,start,end,pitch,velocity
0,2.26145153125,2.47900889375,60.0,78.0
1,2.49045928125,2.7805357645833335,62.0,79.0
2,2.03244378125,2.900764833333333,55.0,75.0
3,1.80343603125,2.98282594375,48.0,88.0
4,2.94847478125,3.4255742604166666,63.0,76.0
5,3.40649028125,3.7423683145833335,67.0,79.0
6,3.86450578125,4.6832084875,51.0,72.0
7,3.63549803125,4.8015291583333335,44.0,85.0
8,4.09351353125,4.80343755625,56.0,78.0
9,4.78053678125,5.03244530625,51.0,76.0
10,4.32252128125,5.074430060416667,63.0,84.0
11,5.00954453125,5.4293920729166665,56.0,73.0
12,5.46756003125,6.416033795833333,39.0,90.0
13,5.69656778125,6.44084296875,46.0,73.0
14,5.92557553125,6.643133147916667,51.0,80.0
15,6.15458328125,6.69275149375,55.0,81.0
16,6.61259878125,6.9045836625,63.0,85.0
17,6.84160653125,7.0877898625,51.0,85.0
18,7.07061428125,7.335881591666666,63.0,79.0
19,7.75763753125,7.946568925,58.0,75.0
20,7.52862978125,8.339698895833333,53.0,76.0
21,7.29962203125,8.687027316666667,46.0,81.0
22,7.98664528125,8.69656930625,65.0,86.0
23,8.44466078125,8.778630416666667,53.0,78.0
24,8.67366853125,8.9198518625,58.0,79.0
25,8.90267628125,9.333974210416667,65.0,85.0
26,9.58969953125,9.700386610416666,60.0,77.0
27,9.36069178125,10.131684539583333,55.0,80.0
28,9.13168403125,10.4427534,48.0,89.0
29,10.27672278125,10.4771045625,55.0,78.0
30,9.81870728125,10.704203914583333,63.0,88.0
31,10.50573053125,10.74618866875,60.0,75.0
32,10.73473828125,11.085883497916667,67.0,77.0
33,11.42176153125,11.725196799999999,56.0,79.0
34,10.96374603125,12.227105452083332,44.0,89.0
35,11.19275378125,12.24618943125,51.0,84.0
36,12.10878478125,12.370235295833334,60.0,76.0
37,11.65076928125,12.387410877083333,63.0,80.0
38,12.33779253125,12.7213805125,56.0,81.0
39,13.25382353125,13.6145107375,51.0,84.0
40,12.795808031249999,13.799625335416666,39.0,85.0
41,13.02481578125,13.8435184875,46.0,76.0
42,13.48283128125,13.967564352083333,63.0,84.0
43,14.16985453125,14.360694322916666,51.0,84.0
44,13.94084678125,14.412221066666667,58.0,80.0
45,14.39886228125,14.643137214583334,63.0,79.0
46,14.85687778125,16.1221456,53.0,63.0
47,15.08588553125,16.1335959875,58.0,72.0
48,14.62787003125,16.141229579166666,46.0,84.0
49,15.31489328125,16.232832679166666,65.0,86.0
50,16.908405541666667,17.122146108333332,62.0,59.0
51,17.137413291666668,17.61642116875,60.0,79.0
52,17.137413291666668,17.620237964583332,63.0,85.0
53,17.595428791666667,17.8626045,62.0,64.0
54,16.679397791666666,17.900772458333332,55.0,57.0
55,16.450390041666665,17.904589254166666,48.0,85.0
56,17.824436541666667,17.98283356875,60.0,68.0
57,17.824436541666667,18.076345066666665,63.0,81.0
58,18.053444291666665,18.2862688375,62.0,63.0
59,18.740467541666668,18.998101260416668,58.0,71.0
60,18.969475291666665,19.383597639583332,60.0,77.0
61,18.969475291666665,19.406498414583332,63.0,83.0
62,18.282452041666666,19.656498541666668,44.0,92.0
63,18.511459791666667,19.667948929166666,51.0,64.0
64,19.427490791666667,19.687032908333332,58.0,67.0
65,19.656498541666668,19.868330710416668,60.0,68.0
66,19.656498541666668,19.961842208333334,63.0,71.0
67,19.885506291666665,20.08970486875,58.0,68.0
68,20.57252954166667,20.7939037,53.0,71.0
69,20.801537291666666,21.272911577083335,55.0,91.0
70,20.801537291666666,21.284361964583333,58.0,88.0
71,20.114514041666666,21.513369714583334,39.0,92.0
72,21.259552791666668,21.522911704166667,53.0,61.0
73,20.343521791666667,21.541995683333333,46.0,63.0
74,21.488560541666665,21.7213850875,55.0,83.0
75,21.717568291666666,21.805354595833332,53.0,61.0
76,21.488560541666665,21.8816905125,58.0,87.0
77,22.404591541666665,22.6374160875,60.0,71.0
78,22.633599291666666,22.814897093749998,65.0,95.0
79,22.633599291666666,23.0496300375,62.0,79.0
80,23.091614791666668,23.31680574583333,60.0,80.0
81,21.946576041666667,23.383599672916667,46.0,88.0
82,22.175583791666668,23.383599672916667,53.0,59.0
83,23.320622541666665,23.608790627083334,65.0,92.0
84,23.320622541666665,23.614515820833333,62.0,90.0
85,23.549630291666666,23.69657693125,60.0,63.0
86,24.236653541666666,24.496195658333335,62.0,71.0
87,24.465661291666667,24.94466916875,63.0,87.0
88,24.465661291666667,24.965661545833335,60.0,83.0
89,24.00764579166667,25.026730279166667,55.0,67.0
90,23.778638041666667,25.043905860416668,48.0,84.0
91,24.923676791666665,25.183218908333334,62.0,76.0
92,25.152684541666666,25.370241904166665,60.0,79.0
93,25.152684541666666,25.4313106375,63.0,84.0
94,25.381692291666667,25.572532083333332,62.0,65.0
95,26.068715541666666,26.30726528125,58.0,67.0
96,26.297723291666667,26.700395252083332,63.0,84.0
97,26.297723291666667,26.73092961875,60.0,79.0
98,25.839707791666665,26.830166310416665,51.0,64.0
99,25.610700041666668,26.837799902083333,44.0,88.0
100,26.755738791666666,27.030548091666667,58.0,69.0
101,26.984746541666667,27.24619705625,60.0,72.0
102,26.984746541666667,27.272914627083335,63.0,80.0
103,27.213754291666667,27.36451772708333,58.0,56.0
104,27.900777541666667,28.145052475,53.0,63.0
105,28.129785291666668,28.604976372916667,58.0,95.0
106,28.129785291666668,28.60879316875,55.0,90.0
107,27.442762041666665,28.83780091875,39.0,88.0
108,28.587800791666666,28.8549765,53.0,61.0
109,27.671769791666666,28.87024368333333,46.0,65.0
110,28.816808541666667,29.110701820833334,55.0,72.0
111,29.045816291666668,29.13551099375,53.0,67.0
112,28.816808541666667,29.26146525625,58.0,81.0
113,29.732839541666667,29.979022872916666,60.0,64.0
114,29.503831791666666,30.755740825,53.0,58.0
115,29.96184729166667,30.763374416666668,62.0,80.0
116,29.96184729166667,30.77291640625,65.0,79.0
117,29.274824041666665,30.774824804166666,46.0,85.0
118,31.57444353125,31.79200089375,60.0,78.0
119,31.11642803125,31.927497145833332,48.0,88.0
120,31.80345128125,32.093527764583335,62.0,79.0
121,31.34543578125,32.213756833333335,55.0,75.0
122,32.26146678125,32.73856626041667,63.0,76.0
123,32.71948228125,33.05536031458333,67.0,79.0
124,33.17749778125,33.9962004875,51.0,72.0
125,32.94849003125,34.11452115833333,44.0,85.0
126,33.40650553125,34.11642955625,56.0,78.0
127,34.09352878125,34.34543730625,51.0,76.0
128,33.63551328125,34.38742206041667,63.0,84.0
129,34.32253653125,34.742384072916664,56.0,73.0
130,34.78055203125,35.72902579583333,39.0,90.0
131,35.00955978125,35.75383496875,46.0,73.0
132,35.23856753125,35.956125147916666,51.0,80.0
133,35.46757528125,36.00574349375,55.0,81.0
134,35.92559078125,36.2175756625,63.0,85.0
135,36.15459853125,36.4007818625,51.0,85.0
136,36.38360628125,36.648873591666664,63.0,79.0
137,37.07062953125,37.259560925,58.0,75.0
138,36.84162178125,37.65269089583333,53.0,76.0
139,36.61261403125,38.000019316666666,46.0,81.0
140,37.29963728125,38.00956130625,65.0,86.0
141,37.75765278125,38.09162241666667,53.0,78.0
142,37.98666053125,38.2328438625,58.0,79.0
143,38.21566828125,38.646966210416664,65.0,85.0
144,38.90269153125,39.12024889375,60.0,78.0
145,39.13169928125,39.42177576458333,62.0,79.0
146,38.67368378125,39.54200483333333,55.0,75.0
147,38.44467603125,39.62406594375,48.0,88.0
148,39.58971478125,40.06681426041666,63.0,76.0
149,40.04773028125,40.383608314583334,67.0,79.0
150,40.50574578125,41.3244484875,51.0,72.0
151,40.27673803125,41.442769158333334,44.0,85.0
152,40.73475353125,41.44467755625,56.0,78.0
153,41.42177678125,41.67368530625,51.0,76.0
154,40.96376128125,41.71567006041666,63.0,84.0
155,41.65078453125,42.070632072916666,56.0,73.0
156,42.10880003125,43.05727379583333,39.0,90.0
157,42.33780778125,43.08208296875,46.0,73.0
158,42.56681553125,43.28437314791667,51.0,80.0
159,42.79582328125,43.33399149375,55.0,81.0
160,43.25383878125,43.5458236625,63.0,85.0
161,43.48284653125,43.7290298625,51.0,85.0
162,43.71185428125,43.977121591666666,63.0,79.0
163,44.39887753125,44.587808925,58.0,75.0
164,44.16986978125,44.98093889583333,53.0,76.0
165,43.94086203125,45.32826731666667,46.0,81.0
166,44.62788528125,45.33780930625,65.0,86.0
167,45.08590078125,45.41987041666667,53.0,78.0
168,45.31490853125,45.5610918625,58.0,79.0
169,45.54391628125,45.97521421041667,65.0,85.0
170,46.23093953125,46.44849689375,60.0,78.0
171,46.45994728125,46.75002376458333,62.0,79.0
172,46.00193178125,46.87025283333333,55.0,75.0
173,45.77292403125,46.95231394375,48.0,88.0
174,46.91796278125,47.395062260416665,63.0,76.0
175,47.37597828125,47.711856314583336,67.0,79.0
176,47.83399378125,48.6526964875,51.0,72.0
177,47.60498603125,48.771017158333336,44.0,85.0
178,48.06300153125,48.77292555625,56.0,78.0
179,48.75002478125,49.00193330625,51.0,76.0
180,48.29200928125,49.043918060416665,63.0,84.0
181,48.97903253125,49.39888007291667,56.0,73.0
182,49.43704803125,50.385521795833334,39.0,90.0
183,49.66605578125,50.41033096875,46.0,73.0
184,49.89506353125,50.61262114791667,51.0,80.0
185,50.124071281249996,50.66223949375,55.0,81.0
186,50.58208678125,50.8740716625,63.0,85.0
187,50.81109453125,51.0572778625,51.0,85.0
188,51.04010228125,51.30536959166667,63.0,79.0
189,51.72712553125,51.916056925,58.0,75.0
190,51.49811778125,52.309186895833335,53.0,76.0
191,51.26911003125,52.65651531666666,46.0,81.0
192,51.95613328125,52.666057306249996,65.0,86.0
193,52.41414878125,52.748118416666664,53.0,78.0
194,52.64315653125,52.8893398625,58.0,79.0
195,52.87216428125,53.30346221041667,65.0,85.0
196,53.55918753125,53.77674489375,60.0,78.0
197,53.78819528125,54.078271764583334,62.0,79.0
198,53.33017978125,54.198500833333334,55.0,75.0
199,53.10117203125,54.28056194375,48.0,88.0
200,54.24621078125,54.72331026041667,63.0,76.0
201,54.70422628125,55.04010431458333,67.0,79.0
202,55.16224178125,55.9809444875,51.0,72.0
203,54.93323403125,56.09926515833333,44.0,85.0
204,55.39124953125,56.10117355625,56.0,78.0
205,56.07827278125,56.33018130625,51.0,76.0
206,55.62025728125,56.37216606041667,63.0,84.0
207,56.30728053125,56.72712807291666,56.0,73.0
208,56.76529603125,57.713769795833336,39.0,90.0
209,56.99430378125,57.73857896875,46.0,73.0
210,57.22331153125,57.940869147916665,51.0,80.0
211,57.45231928125,57.99048749375,55.0,81.0
212,57.91033478125,58.2023196625,63.0,85.0
213,58.13934253125,58.3855258625,51.0,85.0
214,58.36835028125,58.63361759166666,63.0,79.0
215,59.05537353125,59.244304925,58.0,75.0
216,58.82636578125,59.63743489583333,53.0,76.0
217,58.59735803125,59.984763316666665,46.0,81.0
218,59.28438128125,59.99430530625,65.0,86.0
219,59.74239678125,60.076366416666666,53.0,78.0
220,59.97140453125,60.2175878625,58.0,79.0
221,60.20041228125,60.631710210416664,65.0,85.0
222,60.88743553125,61.10499289375,60.0,78.0
223,61.11644328125,61.40651976458334,62.0,79.0
224,60.65842778125,61.526748833333336,55.0,75.0
225,60.42942003125,61.60880994375,48.0,88.0
226,61.57445878125,62.05155826041667,63.0,76.0
227,62.03247428125,62.36835231458333,67.0,79.0
228,62.49048978125,63.3091924875,51.0,72.0
229,62.26148203125,63.42751315833333,44.0,85.0
230,62.71949753125,63.42942155625,56.0,78.0
231,63.40652078125,63.65842930625,51.0,76.0
232,62.94850528125,63.70041406041667,63.0,84.0
233,63.63552853125,64.05537607291667,56.0,73.0
234,64.09354403125,65.04201779583333,39.0,90.0
235,64.32255178125,65.06682696875,46.0,73.0
236,64.55155953125,65.26911714791666,51.0,80.0
237,64.78056728125,65.31873549375,55.0,81.0
238,65.23858278125,65.5305676625,63.0,85.0
239,65.46759053125,65.7137738625,51.0,85.0
240,65.69659828125,65.96186559166667,63.0,79.0
241,66.38362153125,66.572552925,58.0,75.0
242,66.15461378125,66.96568289583334,53.0,76.0
243,65.92560603125,67.31301131666666,46.0,81.0
244,66.61262928125,67.32255330625,65.0,86.0
245,67.07064478125,67.40461441666666,53.0,78.0
246,67.29965253125,67.5458358625,58.0,79.0
247,67.52866028125,67.95995821041667,65.0,85.0
248,68.21568353125,68.43324089375,60.0,78.0
249,68.44469128125,68.73476776458334,62.0,79.0
250,67.98667578125,68.85499683333333,55.0,75.0
251,67.75766803125,68.93705794375,48.0,88.0
252,68.90270678125,69.37980626041667,63.0,76.0
253,69.36072228125,69.69660031458334,67.0,79.0
254,69.81873778125,70.6374404875,51.0,72.0
255,69.58973003125,70.75576115833333,44.0,85.0
256,70.04774553125,70.75766955625,56.0,78.0
257,70.73476878125,70.98667730625,51.0,76.0
258,70.27675328125,71.02866206041666,63.0,84.0
259,70.96377653125,71.38362407291666,56.0,73.0
260,71.42179203124999,72.37026579583333,39.0,90.0
261,71.65079978125,72.39507496875,46.0,73.0
262,71.87980753125,72.59736514791666,51.0,80.0
263,72.10881528125,72.64698349375,55.0,81.0
264,72.56683078125,72.8588156625,63.0,85.0
265,72.79583853125,73.0420218625,51.0,85.0
266,73.02484628125,73.29011359166667,63.0,79.0
267,73.71186953125,73.900800925,58.0,75.0
268,73.48286178125,74.29393089583333,53.0,76.0
269,73.25385403125,74.64125931666666,46.0,81.0
270,73.94087728125,74.65080130625,65.0,86.0
271,74.39889278125,74.73286241666666,53.0,78.0
272,74.62790053125,74.8740838625,58.0,79.0
273,74.85690828125,75.28820621041666,65.0,85.0
274,75.54393153125,75.66034380416667,62.0,72.0
275,75.31492378125,76.01721421458333,55.0,64.0
276,75.77293928125,76.08209974375,60.0,77.0
277,75.77293928125,76.24049677083333,63.0,102.0
278,76.23095478125,76.3969854,55.0,53.0
279,75.08591603125,76.5229396625,48.0,97.0
280,76.45996253125,76.71377945416667,62.0,85.0
281,76.68897028125,76.75576420833333,60.0,63.0
282,76.68897028125,77.13553539375,63.0,104.0
283,77.37599353125,77.43515386666667,58.0,76.0
284,77.60500128125,77.885535775,63.0,100.0
285,77.60500128125,77.9542381,60.0,88.0
286,78.06301678125,78.13553590208333,58.0,71.0
287,77.14698578125,78.30729171458333,51.0,63.0
288,76.91797803125,78.33400928541667,44.0,97.0
289,78.29202453125,78.480955925,60.0,79.0
290,78.52103228125,78.56492543333333,51.0,79.0
291,78.29202453125,78.60118499375,63.0,91.0
292,79.20805553125,79.35500217083333,53.0,69.0
293,79.43706328125,79.946605525,55.0,90.0
294,79.43706328125,79.95423911666667,58.0,100.0
295,79.89507878125,80.129811725,53.0,72.0
296,78.75004003125,80.18324686666666,39.0,100.0
297,78.97904778125,80.19088045833334,46.0,63.0
298,80.12408653125,80.39889583125,55.0,83.0
299,80.35309428125,80.4847737375,53.0,69.0
300,80.12408653125,80.52675849166667,58.0,90.0
301,81.04011753125,81.20423975208334,60.0,80.0
302,81.26912528125,81.32446882083333,62.0,77.0
303,81.26912528125,81.6985148125,65.0,88.0
304,80.58210203125,81.9733241125,50.0,85.0
305,80.81110978125,82.007675275,58.0,62.0
306,81.72714078125,82.007675275,58.0,69.0
307,81.95614853125,82.18897307708333,60.0,74.0
308,82.18515628125,82.25004181041666,62.0,76.0
309,82.18515628125,82.45614878541667,65.0,92.0
310,82.87217953125,83.01912617083333,60.0,61.0
311,83.10118728125,83.57256156666666,63.0,104.0
312,83.55920278125,83.7366837875,60.0,67.0
313,82.64317178125,83.8740884375,55.0,76.0
314,82.41416403125,83.9084396,48.0,95.0
315,83.78821053125,84.04584425,62.0,84.0
316,84.01721828125,84.274852,63.0,97.0
317,84.70424153125,84.76340186666667,58.0,72.0
318,84.93324928125,85.24431814166667,63.0,92.0
319,84.93324928125,85.28821129375,60.0,81.0
320,85.39126478125,85.58210457291666,58.0,84.0
321,84.47523378125,85.62790612291667,51.0,69.0
322,84.24622603125,85.65653209166666,44.0,94.0
323,85.62027253125,85.83401309791667,63.0,90.0
324,85.62027253125,85.86073066875,60.0,80.0
325,85.84928028125,86.0267612875,58.0,80.0
326,86.53630353125,86.67179978333333,53.0,55.0
327,86.76531128125,87.20042600625,63.0,95.0
328,86.76531128125,87.22332678125,55.0,87.0
329,86.76531128125,87.23286877083333,58.0,92.0
330,86.07828803125,87.3779070125,39.0,102.0
331,86.30729578125,87.42752535833333,46.0,74.0
332,87.22332678125,87.47714370416666,53.0,64.0
333,87.45233453125,87.71378504583333,55.0,72.0
334,87.45233453125,87.74622781041667,63.0,84.0
335,87.68134228125,87.74813620833334,53.0,67.0
336,87.45233453125,87.79202936041666,58.0,85.0
337,88.36836553125,88.52103736458334,58.0,63.0
338,88.13935778125,88.8893581625,53.0,57.0
339,88.59737328125,89.03248800625,62.0,90.0
340,89.05538878125,89.27485454166667,58.0,50.0
341,89.05538878125,89.29393852083334,53.0,54.0
342,87.91035003125,89.35691565208333,46.0,84.0
343,89.28439653125,89.44279355833334,62.0,67.0
344,89.28439653125,89.44470195625,65.0,79.0
345,89.51340428125,89.58019820833333,58.0,81.0
346,90.20042753125,90.31683980416666,62.0,72.0
347,89.97141978125,90.67371021458334,55.0,64.0
348,90.42943528125,90.73859574375,60.0,77.0
349,90.42943528125,90.89699277083334,63.0,102.0
350,90.88745078125,91.0534814,55.0,53.0
351,89.74050363333333,91.1794356625,48.0,97.0
352,91.11645853125,91.37027545416667,62.0,85.0
353,91.34546628125,91.41226020833334,60.0,63.0
354,91.34546628125,91.79203139375,63.0,104.0
355,92.03248953125,92.09164986666667,58.0,76.0
356,92.26149728125,92.542031775,63.0,100.0
357,92.26149728125,92.6107341,60.0,88.0
358,92.71951278125,92.79203190208334,58.0,71.0
359,91.80348178125,92.96378771458333,51.0,63.0
360,91.57447403125,92.99050528541666,44.0,97.0
361,92.94852053125,93.137451925,60.0,79.0
362,93.17752828125,93.22142143333333,51.0,79.0
363,92.94852053125,93.25768099375,63.0,91.0
364,93.86455153125,94.01149817083333,53.0,69.0
365,94.09355928125,94.603101525,55.0,90.0
366,94.09355928125,94.61073511666666,58.0,100.0
367,94.55157478125,94.786307725,53.0,72.0
368,93.40653603125,94.83974286666667,39.0,100.0
369,93.63554378124999,94.84737645833333,46.0,63.0
370,94.78058253125,95.05539183125,55.0,83.0
371,95.00959028125,95.1412697375,53.0,69.0
372,94.78058253125,95.18325449166667,58.0,90.0
373,95.69661353125,95.86073575208333,60.0,80.0
374,95.92562128125,95.98096482083334,62.0,77.0
375,95.92562128125,96.3550108125,65.0,88.0
376,95.23859803125,96.6298201125,50.0,85.0
377,95.46760578125,96.664171275,58.0,62.0
378,96.38363678125,96.664171275,58.0,69.0
379,96.61264453125,96.84546907708334,60.0,74.0
380,96.84165228125,96.90653781041667,62.0,76.0
381,96.84165228125,97.11264478541666,65.0,92.0
382,97.52867553125,97.67562217083334,60.0,61.0
383,97.75768328125,98.22905756666667,63.0,104.0
384,98.21569878125,98.3931797875,60.0,67.0
385,97.29966778125,98.5305844375,55.0,76.0
386,97.07066003125,98.5649356,48.0,95.0
387,98.44470653125,98.70234025,62.0,84.0
388,98.67371428125,98.931348,63.0,97.0
389,99.36073753125,99.41989786666667,58.0,72.0
390,99.58974528125,99.90081414166667,63.0,92.0
391,99.58974528125,99.94470729375,60.0,81.0
392,100.04776078125,100.23860057291667,58.0,84.0
393,99.13172978125,100.28440212291666,51.0,69.0
394,98.90272203125,100.31302809166667,44.0,94.0
395,100.27676853125,100.49050909791667,63.0,90.0
396,100.27676853125,100.51722666875,60.0,80.0
397,100.50577628125,100.6832572875,58.0,80.0
398,101.19279953125,101.32829578333333,53.0,55.0
399,101.42180728125,101.85692200625,63.0,95.0
400,101.42180728125,101.87982278125,55.0,87.0
401,101.42180728125,101.88936477083334,58.0,92.0
402,100.73478403125,102.0344030125,39.0,102.0
403,100.96379178125,102.08402135833333,46.0,74.0
404,101.87982278125,102.13363970416667,53.0,64.0
405,102.10883053125,102.37028104583334,55.0,72.0
406,102.10883053125,102.40272381041666,63.0,84.0
407,102.33783828125,102.40463220833334,53.0,67.0
408,102.10883053125,102.44852536041667,58.0,85.0
409,103.02486153125,103.17753336458334,58.0,63.0
410,102.79585378125,103.5458541625,53.0,57.0
411,103.25386928125,103.68898400625,62.0,90.0
412,103.71188478125,103.93135054166666,58.0,50.0
413,103.71188478125,103.95043452083333,53.0,54.0
414,102.56684603125,104.01341165208333,46.0,84.0
415,103.94089253125,104.09928955833334,62.0,67.0
416,103.94089253125,104.10119795625,65.0,79.0
417,104.16990028125,104.23669420833333,58.0,81.0
418,104.39699963333334,104.427534,48.0,88.0
419,104.85692353125,105.07448089375,60.0,78.0
420,105.08593128125,105.37600776458333,62.0,79.0
421,104.62791578125,105.49623683333333,55.0,75.0
422,105.54394678125,106.02104626041667,63.0,76.0
423,106.00196228125,106.33784031458333,67.0,79.0
424,106.45997778125,107.2786804875,51.0,72.0
425,106.23097003125,107.39700115833334,44.0,85.0
426,106.68898553125,107.39890955625,56.0,78.0
427,107.37600878125,107.62791730625,51.0,76.0
428,106.91799328125,107.66990206041666,63.0,84.0
429,107.60501653125,108.02486407291667,56.0,73.0
430,108.06303203125,109.01150579583333,39.0,90.0
431,108.29203978125,109.03631496875,46.0,73.0
432,108.52104753125,109.23860514791667,51.0,80.0
433,108.75005528125,109.28822349375,55.0,81.0
434,109.20807078125,109.5000556625,63.0,85.0
435,109.43707853125,109.6832618625,51.0,85.0
436,109.66608628125,109.93135359166666,63.0,79.0
437,110.35310953125,110.542040925,58.0,75.0
438,110.12410178125,110.93517089583334,53.0,76.0
439,109.89509403125,111.28249931666667,46.0,81.0
440,110.58211728125,111.29204130625,65.0,86.0
441,111.04013278125,111.37410241666667,53.0,78.0
442,111.26914053125,111.5153238625,58.0,79.0
443,111.49814828125,111.92944621041667,65.0,85.0
444,112.18517153125,112.29585861041667,60.0,77.0
445,111.95616378125,112.72715653958333,55.0,80.0
446,111.72715603125,113.0382254,48.0,89.0
447,112.87219478125,113.0725765625,55.0,78.0
448,112.41417928125,113.29967591458333,63.0,88.0
449,113.10120253125,113.34166066875,60.0,75.0
450,113.33021028125,113.68135549791667,67.0,77.0
451,114.01723353125,114.32066879999999,56.0,79.0
452,113.55921803125,114.82257745208334,44.0,89.0
453,113.78822578125,114.84166143125,51.0,84.0
454,114.70425678125,114.96570729583334,60.0,76.0
455,114.24624128125,114.98288287708333,63.0,80.0
456,114.93326453125,115.3168525125,56.0,81.0
457,115.84929553125,116.2099827375,51.0,84.0
458,115.39128003125,116.39509733541666,39.0,85.0
459,115.62028778125,116.43899048749999,46.0,76.0
460,116.07830328125,116.56303635208333,63.0,84.0
461,116.76532653125,116.95616632291667,51.0,84.0
462,116.53631878125,117.00769306666666,58.0,80.0
463,116.99433428125,117.23860921458333,63.0,79.0
464,117.45234978125,118.7176176,53.0,63.0
465,117.68135753125,118.7290679875,58.0,72.0
466,117.22334203125,118.73670157916666,46.0,84.0
467,117.91036528125,118.82830467916666,65.0,86.0
468,119.51341953125,119.73097689375,60.0,78.0
469,119.74242728125,120.03250376458334,62.0,79.0
470,119.28441178125,120.15273283333333,55.0,75.0
471,119.05540403125,120.23479394375,48.0,88.0
472,120.20044278125,120.67754226041667,63.0,76.0
473,120.65845828125,120.99433631458334,67.0,79.0
474,121.11647378125,121.9351764875,51.0,72.0
475,120.88746603125,122.05349715833333,44.0,85.0
476,121.34548153125,122.05540555625,56.0,78.0
477,122.03250478125,122.28441330625,51.0,76.0
478,121.57448928125,122.32639806041666,63.0,84.0
479,122.26151253125,122.68136007291666,56.0,73.0
480,122.71952803125,123.66800179583333,39.0,90.0
481,122.94853578125,123.69281096875,46.0,73.0
482,123.17754353125,123.89510114791666,51.0,80.0
483,123.40655128125,123.94471949375,55.0,81.0
484,123.86456678125,124.1565516625,63.0,85.0
485,124.09357453125,124.3397578625,51.0,85.0
486,124.32258228124999,124.58784959166667,63.0,79.0
487,125.00960553125,125.198536925,58.0,75.0
488,124.78059778125,125.59166689583333,53.0,76.0
489,124.55159003125,125.93899531666666,46.0,81.0
490,125.23861328125,125.94853730625,65.0,86.0
491,125.69662878125,126.03059841666666,53.0,78.0
492,125.92563653125,126.1718198625,58.0,79.0
493,126.15464428125,126.58594221041666,65.0,85.0
494,126.84166753125,127.05922489375,60.0,78.0
495,127.07067528125,127.36075176458333,62.0,79.0
496,126.61265978125,127.48098083333333,55.0,75.0
497,126.38365203125,127.56304194375,48.0,88.0
498,127.52869078125,128.00579026041666,63.0,76.0
499,127.98670628125,128.32258431458334,67.0,79.0
500,128.44472178125,129.2634244875,51.0,72.0
501,128.21571403125,129.38174515833333,44.0,85.0
502,128.67372953125,129.38365355625,56.0,78.0
503,129.36075278125,129.61266130625,51.0,76.0
504,128.90273728125,129.65464606041667,63.0,84.0
505,129.58976053125,130.00960807291668,56.0,73.0
506,130.04777603125,130.99624979583334,39.0,90.0
507,130.27678378125,131.02105896875,46.0,73.0
508,130.50579153125,131.22334914791668,51.0,80.0
509,130.73479928125,131.27296749375,55.0,81.0
510,131.19281478125,131.4847996625,63.0,85.0
511,131.42182253125,131.6680058625,51.0,85.0
512,131.65083028125,131.91609759166667,63.0,79.0
513,132.33785353125,132.526784925,58.0,75.0
514,132.10884578125,132.91991489583333,53.0,76.0
515,131.87983803125,133.26724331666668,46.0,81.0
516,132.56686128125,133.27678530625,65.0,86.0
517,133.02487678125,133.35884641666667,53.0,78.0
518,133.25388453125,133.5000678625,58.0,79.0
519,133.48289228125,133.91419021041668,65.0,85.0
520,134.16991553125,134.38747289375,60.0,78.0
521,134.39892328125,134.68899976458334,62.0,79.0
522,133.94090778125,134.80922883333332,55.0,75.0
523,133.71190003125,134.89128994375,48.0,88.0
524,134.85693878125,135.33403826041666,63.0,76.0
525,135.31495428125,135.65083231458334,67.0,79.0
526,135.77296978125,136.5916724875,51.0,72.0
527,135.54396203125,136.70999315833333,44.0,85.0
528,136.00197753125,136.71190155625,56.0,78.0
529,136.68900078125,136.94090930625,51.0,76.0
530,136.23098528124999,136.98289406041667,63.0,84.0
531,136.91800853125,137.33785607291668,56.0,73.0
532,137.37602403125,138.32449779583334,39.0,90.0
533,137.60503178125,138.34930696875,46.0,73.0
534,137.83403953125,138.55159714791665,51.0,80.0
535,138.06304728125,138.60121549375,55.0,81.0
536,138.52106278125,138.8130476625,63.0,85.0
537,138.75007053125,138.9962538625,51.0,85.0
538,138.97907828125,139.24434559166667,63.0,79.0
539,139.66610153125,139.855032925,58.0,75.0
540,139.43709378125,140.24816289583333,53.0,76.0
541,139.20808603125,140.59549131666665,46.0,81.0
542,139.89510928125,140.60503330625,65.0,86.0
543,140.35312478125,140.68709441666667,53.0,78.0
544,140.58213253125,140.8283158625,58.0,79.0
545,140.81114028125,141.24243821041668,65.0,85.0
546,141.49816353125,141.71572089375,60.0,78.0
547,141.72717128125,142.01724776458335,62.0,79.0
548,141.26915578125,142.13747683333332,55.0,75.0
549,141.04014803125,142.21953794375,48.0,88.0
550,142.18518678125,142.66228626041666,63.0,76.0
551,142.64320228125,142.97908031458334,67.0,79.0
552,143.10121778125,143.9199204875,51.0,72.0
553,142.87221003125,144.03824115833334,44.0,85.0
554,143.33022553125,144.04014955625,56.0,78.0
555,144.01724878125,144.26915730625,51.0,76.0
556,143.55923328125,144.31114206041667,63.0,84.0
557,144.24625653125,144.66610407291665,56.0,73.0
558,144.70427203125,145.65274579583334,39.0,90.0
559,144.93327978125,145.67755496875,46.0,73.0
560,145.16228753125,145.87984514791665,51.0,80.0
561,145.39129528125,145.92946349375,55.0,81.0
562,145.84931078125,146.1412956625,63.0,85.0
563,146.07831853125,146.3245018625,51.0,85.0
564,146.30732628125,146.57259359166667,63.0,79.0
565,146.99434953125,147.183280925,58.0,75.0
566,146.76534178125,147.57641089583333,53.0,76.0
567,146.53633403125,147.92373931666665,46.0,81.0
568,147.22335728125,147.93328130625,65.0,86.0
569,147.68137278125,148.01534241666667,53.0,78.0
570,147.91038053125,148.1565638625,58.0,79.0
571,148.13938828125,148.3626708375,65.0,85.0
572,148.80160235833333,148.91801463125,62.0,72.0
573,148.57259460833333,149.27488504166666,55.0,64.0
574,149.03061010833332,149.33977057083334,60.0,77.0
575,149.03061010833332,149.49816759791668,63.0,102.0
576,149.48862560833334,149.65465622708334,55.0,53.0
577,148.34358685833334,149.78061048958332,48.0,97.0
578,149.71763335833333,149.97145028125,62.0,85.0
579,149.94664110833332,150.01343503541668,60.0,63.0
580,149.94664110833332,150.39320622083332,63.0,104.0
581,150.63366435833333,150.69282469375,58.0,76.0
582,150.86267210833333,151.14320660208332,63.0,100.0
583,150.86267210833333,151.21190892708333,60.0,88.0
584,151.32068760833334,151.39320672916668,58.0,71.0
585,150.40465660833334,151.56496254166666,51.0,63.0
586,150.17564885833335,151.5916801125,44.0,97.0
587,151.54969535833334,151.73862675208332,60.0,79.0
588,151.77870310833333,151.82259626041667,51.0,79.0
589,151.54969535833334,151.85885582083333,63.0,91.0
590,152.46572635833334,152.61267299791666,53.0,69.0
591,152.69473410833334,153.20427635208333,55.0,90.0
592,152.69473410833334,153.21190994375,58.0,100.0
593,153.15274960833332,153.38748255208333,53.0,72.0
594,152.00771085833333,153.44091769375,39.0,100.0
595,152.23671860833332,153.44855128541667,46.0,63.0
596,153.38175735833335,153.65656665833333,55.0,83.0
597,153.61076510833334,153.74244456458334,53.0,69.0
598,153.38175735833335,153.78442931875,58.0,90.0
599,154.29778835833332,154.46191057916667,60.0,80.0
600,154.52679610833334,154.58213964791668,62.0,77.0
601,154.52679610833334,154.95618563958334,65.0,88.0
602,153.83977285833333,155.23099493958333,50.0,85.0
603,154.06878060833333,155.26534610208333,58.0,62.0
604,154.98481160833333,155.26534610208333,58.0,69.0
605,155.21381935833332,155.44664390416668,60.0,74.0
606,155.44282710833335,155.5077126375,62.0,76.0
607,155.44282710833335,155.7138196125,65.0,92.0
608,156.12985035833333,156.27679699791668,60.0,61.0
609,156.35885810833332,156.83023239375,63.0,104.0
610,156.81687360833334,156.99435461458333,60.0,67.0
611,155.90084260833333,157.13175926458334,55.0,76.0
612,155.67183485833334,157.16611042708334,48.0,95.0
613,157.04588135833333,157.30351507708335,62.0,84.0
614,157.27488910833333,157.53252282708334,63.0,97.0
615,157.96191235833334,158.02107269375,58.0,72.0
616,158.19092010833333,158.50198896875,63.0,92.0
617,158.19092010833333,158.54588212083334,60.0,81.0
618,158.64893560833335,158.8397754,58.0,84.0
619,157.73290460833334,158.88557695,51.0,69.0
620,157.50389685833332,158.91420291875,44.0,94.0
621,158.87794335833334,159.091683925,63.0,90.0
622,158.87794335833334,159.11840149583333,60.0,80.0
623,159.10695110833333,159.28443211458332,58.0,80.0
624,159.79397435833334,159.92947061041667,53.0,55.0
625,160.02298210833334,160.45809683333334,63.0,95.0
626,160.02298210833334,160.48099760833333,55.0,87.0
627,160.02298210833334,160.49053959791667,58.0,92.0
628,159.33595885833333,160.63557783958333,39.0,102.0
629,159.56496660833332,160.68519618541666,46.0,74.0
630,160.48099760833333,160.73481453125,53.0,64.0
631,160.71000535833332,160.97145587291666,55.0,72.0
632,160.71000535833332,161.0038986375,63.0,84.0
633,160.93901310833334,161.00580703541667,53.0,67.0
634,160.71000535833332,161.0497001875,58.0,85.0
635,161.62603635833332,161.77870819166665,58.0,63.0
636,161.39702860833333,162.14702898958333,53.0,57.0
637,161.85504410833335,162.29015883333332,62.0,90.0
638,162.31305960833333,162.53252536875,58.0,50.0
639,162.31305960833333,162.55160934791667,53.0,54.0
640,161.16802085833334,162.61458647916666,46.0,84.0
641,162.54206735833333,162.70046438541667,62.0,67.0
642,162.54206735833333,162.70237278333335,65.0,79.0
643,162.77107510833332,162.83786903541667,58.0,81.0
644,163.45809835833333,163.57451063125,62.0,72.0
645,163.22909060833334,163.93138104166667,55.0,64.0
646,163.68710610833332,163.99626657083334,60.0,77.0
647,163.68710610833332,164.15466359791665,63.0,102.0
648,164.14512160833334,164.31115222708334,55.0,53.0
649,163.00008285833334,164.43710648958333,48.0,97.0
650,164.37412935833333,164.62794628125,62.0,85.0
651,164.60313710833333,164.66993103541665,60.0,63.0
652,164.60313710833333,165.04970222083332,63.0,104.0
653,165.29016035833334,165.34932069375,58.0,76.0
654,165.51916810833333,165.79970260208333,63.0,100.0
655,165.51916810833333,165.86840492708333,60.0,88.0
656,165.97718360833332,166.04970272916665,58.0,71.0
657,165.06115260833334,166.22145854166666,51.0,63.0
658,164.83214485833332,166.2481761125,44.0,97.0
659,166.20619135833334,166.39512275208332,60.0,79.0
660,166.43519910833334,166.47909226041668,51.0,79.0
661,166.20619135833334,166.51535182083333,63.0,91.0
662,167.12222235833335,167.26916899791667,53.0,69.0
663,167.35123010833334,167.86077235208333,55.0,90.0
664,167.35123010833334,167.86840594375,58.0,100.0
665,167.80924560833333,168.04397855208333,53.0,72.0
666,166.66420685833333,168.09741369375,39.0,100.0
667,166.89321460833332,168.10504728541667,46.0,63.0
668,168.03825335833332,168.31306265833334,55.0,83.0
669,168.26726110833334,168.39894056458334,53.0,69.0
670,168.03825335833332,168.44092531875,58.0,90.0
671,168.95428435833333,169.11840657916667,60.0,80.0
672,169.18329210833332,169.23863564791665,62.0,77.0
673,169.18329210833332,169.61268163958334,65.0,88.0
674,168.49626885833334,169.88749093958333,50.0,85.0
675,168.72527660833333,169.92184210208333,58.0,62.0
676,169.64130760833334,169.92184210208333,58.0,69.0
677,169.87031535833333,170.10313990416665,60.0,74.0
678,170.09932310833332,170.1642086375,62.0,76.0
679,170.09932310833332,170.3703156125,65.0,92.0
680,170.78634635833333,170.93329299791665,60.0,61.0
681,171.01535410833333,171.48672839375,63.0,104.0
682,171.47336960833334,171.65085061458333,60.0,67.0
683,170.55733860833334,171.78825526458334,55.0,76.0
684,170.32833085833335,171.82260642708334,48.0,95.0
685,171.70237735833334,171.96001107708332,62.0,84.0
686,171.93138510833333,172.18901882708334,63.0,97.0
687,172.61840835833334,172.67756869375,58.0,72.0
688,172.84741610833333,173.15848496875,63.0,92.0
689,172.84741610833333,173.20237812083334,60.0,81.0
690,173.30543160833332,173.4962714,58.0,84.0
691,172.38940060833335,173.54207295,51.0,69.0
692,172.16039285833332,173.57069891875,44.0,94.0
693,173.53443935833334,173.748179925,63.0,90.0
694,173.53443935833334,173.77489749583333,60.0,80.0
695,173.76344710833334,173.94092811458333,58.0,80.0
696,174.45047035833332,174.58596661041668,53.0,55.0
697,174.67947810833334,175.11459283333332,63.0,95.0
698,174.67947810833334,175.13749360833333,55.0,87.0
699,174.67947810833334,175.14703559791667,58.0,92.0
700,173.99245485833333,175.29207383958334,39.0,102.0
701,174.22146260833333,175.34169218541666,46.0,74.0
702,175.13749360833333,175.39131053125,53.0,64.0
703,175.36650135833332,175.62795187291667,55.0,72.0
704,175.36650135833332,175.6603946375,63.0,84.0
705,175.59550910833335,175.66230303541667,53.0,67.0
706,175.36650135833332,175.7061961875,58.0,85.0
707,176.28253235833333,176.43520419166666,58.0,63.0
708,176.05352460833333,176.80352498958334,53.0,57.0
709,176.51154010833332,176.94665483333333,62.0,90.0
710,176.96955560833334,177.18902136875,58.0,50.0
711,176.96955560833334,177.20810534791667,53.0,54.0
712,176.99436478125,177.26154048958333,62.0,86.0
713,177.19856335833333,177.26154048958333,62.0,67.0
714,175.82451685833334,177.27108247916667,46.0,84.0
715,177.19856335833333,177.35886878333332,65.0,79.0
716,177.22337253125,177.49436503541668,58.0,83.0
717,177.42757110833332,177.49436503541668,58.0,81.0
718,177.68138803125,177.93520495416666,56.0,80.0
719,177.68138803125,178.01535766666666,60.0,84.0
720,177.68138803125,178.03444164583334,63.0,79.0
721,178.13940353125,178.2252814375,56.0,85.0
722,177.91039578125,178.48673195208335,51.0,67.0
723,177.68138803125,178.56688466458334,44.0,105.0
724,178.36841128125,178.57070146041667,68.0,81.0
725,178.36841128125,178.62031980625,56.0,85.0
726,178.59741903125,178.68138853958334,51.0,67.0
727,178.82642678125,178.85886954583333,56.0,70.0
728,178.82642678125,178.91612148333334,60.0,85.0
729,178.82642678125,178.94474745208333,63.0,83.0
730,179.28444228125,179.68329744583335,56.0,89.0
731,179.28444228125,179.73100739375,68.0,84.0
732,179.97146553125,180.05925183541666,56.0,85.0
733,179.74245778125,180.23291604583332,51.0,85.0
734,179.51345003125,180.23673284166668,44.0,101.0
735,180.20047328125,180.33406113541668,60.0,86.0
736,180.20047328125,180.3665039,63.0,85.0
737,180.20047328125,180.41039705208334,56.0,86.0
738,180.42948103125,180.53062612083335,51.0,78.0
739,180.65848878124999,180.72337431041666,60.0,64.0
740,180.65848878124999,180.78062624791667,63.0,85.0
741,180.65848878124999,180.79207663541666,56.0,85.0
742,181.34551203125,181.63558851458333,55.0,84.0
743,181.34551203125,181.69665724791668,62.0,84.0
744,181.80352753125,181.9352069875,58.0,86.0
745,182.03253528125,182.221466675,67.0,85.0
746,181.57451978125,182.5306271375,50.0,76.0
747,181.34551203125,182.587879075,43.0,86.0
748,182.49055078125,182.64322261458332,62.0,86.0
749,182.49055078125,182.64703941041665,58.0,83.0
750,182.94856628125,183.3321542625,55.0,78.0
751,182.94856628125,183.37032222083334,58.0,75.0
752,182.94856628125,183.412306975,62.0,82.0
753,183.63558953125,183.72528423333333,55.0,84.0
754,183.40658178125,183.89513164791666,50.0,71.0
755,183.17757403125,183.96383397291666,43.0,87.0
756,183.86459728125,184.12032260208332,67.0,84.0
757,183.86459728125,184.12795619375,62.0,91.0
758,183.86459728125,184.14131497916668,58.0,90.0
759,183.86459728125,184.15849056041665,55.0,84.0
760,184.09360503125,184.19665851875,50.0,86.0
761,184.32261278125,184.37604792291665,67.0,79.0
762,184.32261278125,184.49818538958334,62.0,98.0
763,184.32261278125,184.50200218541667,58.0,93.0
764,184.32261278125,184.511544175,55.0,87.0
765,185.00963603125,185.26154455625,53.0,80.0
766,185.00963603125,185.36650644166667,60.0,84.0
767,185.46765153125,185.54398744791666,53.0,78.0
768,185.69665928125,185.89131586875,53.0,87.0
769,185.69665928125,185.9428426125,65.0,86.0
770,186.15467478125,186.23101069791667,53.0,91.0
771,185.23864378125,186.24436948333334,48.0,80.0
772,185.00963603125,186.26727025833333,41.0,86.0
773,186.15467478125,186.28253744166668,65.0,86.0
774,186.84169803125,187.07070578125,60.0,84.0
775,186.84169803125,187.122232525,68.0,85.0
776,187.29971353125,187.41040061041667,60.0,85.0
777,187.07070578125,187.62032438125,48.0,83.0
778,187.52872128125,187.84933213125,65.0,89.0
779,186.84169803125,187.85124052916666,41.0,87.0
780,187.52872128125,187.85696572291667,60.0,85.0
781,187.52872128125,187.8779581,68.0,88.0
782,187.75772903125,187.8894084875,48.0,84.0
783,187.98673678125,188.12223303333334,65.0,90.0
784,187.98673678125,188.13750021666667,68.0,91.0
785,187.98673678125,188.1413170125,60.0,89.0
786,188.67376003125,188.91230977083333,58.0,82.0
787,188.67376003125,189.04780602291666,62.0,85.0
788,189.13177553124999,189.26918018125,58.0,77.0
789,188.90276778125,189.44284439166665,53.0,85.0
790,188.67376003125,189.57452384791668,46.0,90.0
791,189.36078328125,189.65467656041668,65.0,85.0
792,189.36078328125,189.66231015208334,58.0,79.0
793,189.36078328125,189.66994374375,62.0,87.0
794,189.58979103125,189.75200485416667,53.0,82.0
795,189.81879878125,189.99818818541667,62.0,90.0
796,189.81879878125,190.0191805625,58.0,87.0
797,189.81879878125,190.08215769375,65.0,85.0
798,190.50582203125,190.70429541458333,55.0,84.0
799,190.50582203125,190.74246337291666,59.0,85.0
800,190.50582203125,190.75391376041668,62.0,86.0
801,190.96383753125,191.05925742708334,55.0,84.0
802,190.73482978125,191.27681478958334,50.0,84.0
803,191.19284528125,191.36460109375,55.0,88.0
804,191.19284528125,191.36650949166668,59.0,100.0
805,191.19284528125,191.36650949166668,62.0,90.0
806,191.19284528125,191.45620419375,67.0,84.0
807,191.42185303125,191.68712034166666,50.0,90.0
808,191.65086078125,192.022998375,71.0,90.0
809,191.65086078125,192.02490677291667,67.0,85.0
810,190.50582203125,192.11650987291668,43.0,86.0
811,191.87986853125,192.12986865833332,50.0,85.0
812,192.10887628125,192.33979242916666,67.0,77.0
813,192.33788403125,192.33979242916666,67.0,79.0
814,192.10887628125,192.35124281666666,71.0,81.0
815,192.10887628125,192.37223519375,74.0,81.0
816,192.33788403125,192.50009785416665,60.0,82.0
817,192.33788403125,192.82261710208334,63.0,85.0
818,192.79589953125,192.94857136458333,60.0,73.0
819,192.33788403125,193.38177769166666,36.0,87.0
820,193.25391503125,193.43330443541666,60.0,85.0
821,193.25391503125,193.47528918958332,63.0,95.0
822,193.48292278125,193.59551825833333,36.0,84.0
823,193.71193053125,193.98673983125,60.0,91.0
824,193.94093828125,194.18903001041667,62.0,87.0
825,194.16994603125,194.55925920625,63.0,87.0
826,194.16994603125,195.22338168125,44.0,98.0
827,194.62796153125,195.25391604791668,51.0,84.0
828,195.08597703125,195.40658788125,56.0,87.0
829,195.08597703125,195.47910700208334,63.0,86.0
830,195.54399253125,195.62223684583333,44.0,93.0
831,196.00200803125,196.50773347916666,63.0,79.0
832,196.00200803125,196.59742818125,58.0,80.0
833,196.68903128125,196.79399316666667,55.0,76.0
834,196.46002353125,197.01918412083333,46.0,71.0
835,196.91803903125,197.16994755625,55.0,86.0
836,196.00200803125,197.18521473958333,39.0,93.0
837,197.14704678125,197.25773386041666,46.0,90.0
838,196.91803903125,197.473382825,63.0,90.0
839,197.37605453125,197.6794898,55.0,85.0
840,197.83407003125,198.21574961458333,58.0,85.0
841,197.83407003125,198.26918475625,62.0,85.0
842,198.52109328125,198.62605516666667,58.0,79.0
843,197.83407003125,198.74628423541665,50.0,84.0
844,198.29208553125,198.801627775,53.0,77.0
845,198.75010103125,198.95429960833334,58.0,88.0
846,198.75010103125,198.9962843625,65.0,86.0
847,198.97910878125,199.09170425833332,53.0,89.0
848,199.20811653125,199.46193345416665,63.0,95.0
849,199.43712428125,199.57452893125,62.0,85.0
850,198.778727,199.69094120416668,46.0,84.0
851,199.66613203125,199.98674288125,63.0,90.0
852,199.66613203125,200.09933835833334,60.0,77.0
853,200.12414753125,200.66422414166666,55.0,84.0
854,200.58216303125,200.70620889583333,63.0,95.0
855,200.58216303125,200.7367432625,60.0,87.0
856,200.58216303125,200.75582724166668,67.0,86.0
857,199.66613203125,200.88750669791668,48.0,89.0
858,200.81117078125,200.92567465625,55.0,86.0
859,201.04017853125,201.21193434375,60.0,84.0
860,201.26918628125,201.52109480625,62.0,84.0
861,201.49819403125,201.86269803333334,63.0,85.0
862,201.49819403125,202.55353807916666,44.0,90.0
863,201.95620953125,202.66804195416665,51.0,80.0
864,202.41422503125,202.76727864583333,56.0,86.0
865,202.41422503125,202.85506495,63.0,83.0
866,202.87224053125,202.95621003958334,44.0,91.0
867,203.33025603125,204.28827178541667,39.0,100.0
868,203.78827153125,204.30735576458332,55.0,95.0
869,204.24628703125,204.64323379791668,58.0,88.0
870,204.24628703125,204.67185976666667,63.0,86.0
871,204.70430253125,205.03445537083334,55.0,85.0
872,205.16231803125,205.5459060125,62.0,84.0
873,205.16231803125,205.60506634791668,58.0,88.0
874,205.62033353125,206.084074225,53.0,84.0
875,206.07834903125,206.36079192291666,65.0,88.0
876,206.30735678125,206.50201336875,53.0,86.0
877,206.53636453125,206.67758597708334,63.0,95.0
878,205.16231803125,206.679494375,46.0,90.0
879,206.76537228125,207.000105225,62.0,80.0
880,206.99438003125,207.7214796375,60.0,84.0
881,207.45239553125,208.03827369166666,55.0,84.0
882,206.99438003125,208.18331193333333,48.0,89.0
883,207.91041103125,208.2138463,67.0,83.0
884,207.91041103125,208.23102188125,63.0,91.0
885,208.13941878125,208.26537304375,55.0,84.0
886,208.36842653125,208.60506787291666,60.0,86.0
887,208.59743428125,208.87033518333334,62.0,85.0
888,208.82644203125,209.25773996041667,63.0,84.0
889,208.82644203125,209.90468685416667,44.0,91.0
890,209.28445753125,209.92377083333332,51.0,81.0
891,209.74247303125,210.08980145208332,56.0,87.0
892,209.74247303125,210.1375114,63.0,85.0
893,210.20048853125,210.29400002916665,44.0,84.0
894,210.65850403125,211.16613787708334,58.0,81.0
895,210.65850403125,211.18140506041667,63.0,79.0
896,211.11651953125,211.52682508333334,55.0,81.0
897,210.65850403125,211.7291152625,39.0,88.0
898,211.11651953125,211.7520160375,46.0,70.0
899,211.57453503125,212.05163451041668,58.0,95.0
900,211.57453503125,212.16995518125,63.0,89.0
901,212.49056603125,212.98293269375,62.0,84.0
902,212.49056603125,213.00392507083333,58.0,84.0
903,212.94858153125,213.30163514583333,53.0,85.0
904,213.40659703125,213.66232235208332,58.0,86.0
905,212.49056603125,213.67758953541667,50.0,88.0
906,213.40659703125,213.87797131666667,62.0,86.0
907,213.86461253125,214.24629211458333,60.0,84.0
908,214.78064353125,215.29781936666666,55.0,89.0
909,215.23865903125,215.41804843541667,60.0,83.0
910,215.23865903125,215.49438435208333,63.0,100.0
911,214.32262803125,215.51728512708334,48.0,88.0
912,215.46766678125,215.58789585,55.0,84.0
913,215.23865903125,215.58789585,67.0,85.0
914,215.69667453125,215.84934636458334,60.0,84.0
915,215.92568228125,216.20812517291665,62.0,85.0
916,216.15469003125,216.61270553125,63.0,84.0
917,216.61270553125,217.22339286458333,51.0,85.0
918,216.15469003125,217.25392723125,44.0,85.0
919,217.07072103125,217.38178989166667,56.0,85.0
920,217.07072103125,217.50583575625,63.0,84.0
921,217.52873653125,217.61270603958334,44.0,85.0
922,217.98675203125,218.29782089166667,55.0,79.0
923,217.98675203125,218.46003471458334,63.0,82.0
924,217.98675203125,218.49247747916667,58.0,77.0
925,218.44476753125,218.94858458125,55.0,79.0
926,217.98675203125,219.0230121,39.0,89.0
927,218.44476753125,219.04209607916667,46.0,51.0
928,218.90278303125,219.3321725625,58.0,89.0
929,218.90278303125,219.34362295,63.0,87.0
930,219.36079853125,219.54209633333332,55.0,84.0
931,219.81881403124999,220.05163857708334,58.0,87.0
932,219.81881403124999,220.28446312291666,62.0,93.0
933,219.81881403124999,220.37224942708335,65.0,86.0
934,219.81881403124999,220.42950136458333,46.0,101.0
935,220.27682953125,220.55354722916667,58.0,85.0
936,220.50583728125,220.64324193125,62.0,85.0
937,220.73484503125,220.9352268125,59.0,82.0
938,220.73484503125,221.16805135833334,63.0,88.0
939,221.19286053125,221.32644838541665,59.0,90.0
940,220.73484503125,221.52492176875,47.0,90.0
941,221.42186828125,221.6680516125,59.0,87.0
942,221.42186828125,221.67759360208333,63.0,85.0
943,221.42186828125,221.69286078541666,66.0,79.0
944,222.10507473541668,222.22148700833333,63.0,72.0
945,221.87606698541666,222.57835741875,56.0,64.0
946,222.33408248541667,222.64324294791666,61.0,77.0
947,222.33408248541667,222.801639975,64.0,102.0
948,222.79209798541666,222.95812860416666,56.0,53.0
949,221.64705923541666,223.08408286666668,49.0,97.0
950,223.02110573541665,223.27492265833334,63.0,85.0
951,223.25011348541668,223.3169074125,61.0,63.0
952,223.25011348541668,223.69667859791667,64.0,104.0
953,223.93713673541666,223.99629707083332,59.0,76.0
954,224.16614448541668,224.44667897916668,64.0,100.0
955,224.16614448541668,224.51538130416665,61.0,88.0
956,224.62415998541667,224.69667910625,59.0,71.0
957,223.70812898541666,224.86843491875,52.0,63.0
958,223.47912123541667,224.89515248958332,45.0,97.0
959,224.85316773541666,225.04209912916667,61.0,79.0
960,225.08217548541666,225.1260686375,52.0,79.0
961,224.85316773541666,225.16232819791668,64.0,91.0
962,225.76919873541667,225.916145375,54.0,69.0
963,225.99820648541666,226.50774872916668,56.0,90.0
964,225.99820648541666,226.51538232083334,59.0,100.0
965,226.45622198541668,226.69095492916668,54.0,72.0
966,225.31118323541668,226.74439007083333,40.0,100.0
967,225.54019098541667,226.7520236625,47.0,63.0
968,226.68522973541667,226.96003903541666,56.0,83.0
969,226.91423748541666,227.04591694166666,54.0,69.0
970,226.68522973541667,227.08790169583332,59.0,90.0
971,227.60126073541667,227.76538295625,61.0,80.0
972,227.83026848541667,227.885612025,63.0,77.0
973,227.83026848541667,228.25965801666666,66.0,88.0
974,227.14324523541666,228.53446731666668,51.0,85.0
975,227.37225298541668,228.56881847916668,59.0,62.0
976,228.28828398541665,228.56881847916668,59.0,69.0
977,228.51729173541668,228.75011628125,61.0,74.0
978,228.74629948541667,228.81118501458334,63.0,76.0
979,228.74629948541667,229.01729198958333,66.0,92.0
980,229.43332273541665,229.580269375,61.0,61.0
981,229.66233048541667,230.13370477083333,64.0,104.0
982,230.12034598541666,230.29782699166665,61.0,67.0
983,229.20431498541666,230.43523164166666,56.0,76.0
984,228.97530723541666,230.46958280416666,49.0,95.0
985,230.34935373541666,230.60698745416667,63.0,84.0
986,230.57836148541668,230.83599520416666,64.0,97.0
987,231.26538473541666,231.32454507083332,59.0,72.0
988,231.49439248541665,231.80546134583332,64.0,92.0
989,231.49439248541665,231.84935449791666,61.0,81.0
990,231.95240798541667,232.14324777708333,59.0,84.0
991,231.03637698541667,232.18904932708332,52.0,69.0
992,230.80736923541667,232.21767529583335,45.0,94.0
993,232.18141573541666,232.39515630208334,64.0,90.0
994,232.18141573541666,232.42187387291668,61.0,80.0
995,232.41042348541666,232.58790449166668,59.0,80.0
996,233.09744673541667,233.2329429875,54.0,55.0
997,233.32645448541666,233.76156921041667,64.0,95.0
998,233.32645448541666,233.78446998541668,56.0,87.0
999,233.32645448541666,233.794011975,59.0,92.0
1000,232.63943123541668,233.93905021666666,40.0,102.0
1001,232.86843898541667,233.9886685625,47.0,74.0
1002,233.78446998541668,234.03828690833333,54.0,64.0
1003,234.01347773541667,234.27492825,56.0,72.0
1004,234.01347773541667,234.30737101458334,64.0,84.0
1005,234.24248548541667,234.3092794125,54.0,67.0
1006,234.01347773541667,234.35317256458333,59.0,85.0
1007,234.92950873541668,235.08218056875,59.0,63.0
1008,234.70050098541665,235.45050136666666,54.0,57.0
1009,235.15851648541667,235.59363121041667,63.0,90.0
1010,235.61653198541666,235.83599774583334,59.0,50.0
1011,235.61653198541666,235.855081725,54.0,54.0
1012,234.47149323541666,235.91805885625,47.0,84.0
1013,235.84553973541668,236.0039367625,63.0,67.0
1014,235.84553973541668,236.00584516041667,66.0,79.0
1015,236.07454748541667,236.1413414125,59.0,81.0
1016,236.76157073541665,236.87798300833333,63.0,72.0
1017,236.53256298541666,237.23485341875,56.0,64.0
1018,236.99057848541668,237.29973894791667,61.0,77.0
1019,236.99057848541668,237.458135975,64.0,102.0
1020,237.44859398541666,237.61462460416666,56.0,53.0
1021,236.30355523541667,237.74057886666665,49.0,97.0
1022,237.67760173541666,237.93141865833334,63.0,85.0
1023,237.90660948541665,237.9734034125,61.0,63.0
1024,237.90660948541665,238.35317459791668,64.0,104.0
1025,238.59363273541666,238.65279307083333,59.0,76.0
1026,238.82264048541666,239.10317497916665,64.0,100.0
1027,238.82264048541666,239.17187730416666,61.0,88.0
1028,239.28065598541667,239.35317510625,59.0,71.0
1029,238.36462498541667,239.52493091875,52.0,63.0
1030,238.13561723541667,239.55164848958333,45.0,97.0
1031,239.50966373541667,239.69859512916668,61.0,79.0
1032,239.73867148541666,239.7825646375,52.0,79.0
1033,239.50966373541667,239.81882419791665,64.0,91.0
1034,240.42569473541667,240.572641375,54.0,69.0
1035,240.65470248541666,241.16424472916665,56.0,90.0
1036,240.65470248541666,241.17187832083334,59.0,100.0
1037,241.11271798541668,241.34745092916665,54.0,72.0
1038,239.96767923541665,241.40088607083334,40.0,100.0
1039,240.19668698541668,241.4085196625,47.0,63.0
1040,241.34172573541667,241.61653503541666,56.0,83.0
1041,241.57073348541667,241.70241294166667,54.0,69.0
1042,241.34172573541667,241.74439769583333,59.0,90.0
1043,242.25775673541668,242.42187895625,61.0,80.0
1044,242.48676448541667,242.542108025,63.0,77.0
1045,242.48676448541667,242.91615401666667,66.0,88.0
1046,241.79974123541666,243.19096331666665,51.0,85.0
1047,242.02874898541666,243.22531447916666,59.0,62.0
1048,242.94477998541666,243.22531447916666,59.0,69.0
1049,243.17378773541665,243.40661228125,61.0,74.0
1050,243.40279548541668,243.46768101458332,63.0,76.0
1051,243.40279548541668,243.67378798958333,66.0,92.0
1052,244.08981873541666,244.236765375,61.0,61.0
1053,244.31882648541668,244.79020077083334,64.0,104.0
1054,244.77684198541667,244.95432299166666,61.0,67.0
1055,243.86081098541666,245.09172764166667,56.0,76.0
1056,243.63180323541667,245.12607880416667,49.0,95.0
1057,245.00584973541666,245.26348345416667,63.0,84.0
1058,245.23485748541665,245.49249120416667,64.0,97.0
1059,245.92188073541666,245.98104107083333,59.0,72.0
1060,246.15088848541666,246.46195734583333,64.0,92.0
1061,246.15088848541666,246.50585049791667,61.0,81.0
1062,246.60890398541667,246.79974377708334,59.0,84.0
1063,245.69287298541667,246.84554532708333,52.0,69.0
1064,245.46386523541668,246.87417129583332,45.0,94.0
1065,246.83791173541667,247.05165230208334,64.0,90.0
1066,246.83791173541667,247.07836987291665,61.0,80.0
1067,247.06691948541666,247.24440049166665,59.0,80.0
1068,247.75394273541667,247.8894389875,54.0,55.0
1069,247.98295048541667,248.41806521041667,64.0,95.0
1070,247.98295048541667,248.44096598541665,56.0,87.0
1071,247.98295048541667,248.450507975,59.0,92.0
1072,247.29592723541666,248.59554621666666,40.0,102.0
1073,247.52493498541668,248.64516456249999,47.0,74.0
1074,248.44096598541665,248.69478290833334,54.0,64.0
1075,248.66997373541668,248.93142425,56.0,72.0
1076,248.66997373541668,248.96386701458334,64.0,84.0
1077,248.89898148541667,248.9657754125,54.0,67.0
1078,248.66997373541668,249.00966856458334,59.0,85.0
1079,249.13180603125,249.67760783541667,63.0,86.0
1080,249.58600473541668,249.73867656875,59.0,63.0
1081,249.35699698541666,250.10699736666666,54.0,57.0
1082,249.81882928125,250.20623405833334,66.0,85.0
1083,249.12798923541666,250.57455485625,47.0,84.0
1084,250.27684478125,250.6833335375,71.0,89.0
1085,251.65089128125,251.81883029791666,63.0,78.0
1086,251.42188353125,251.88753262291667,59.0,78.0
1087,251.19287578125,254.44669422916667,54.0,60.0
1088,250.96386803125,254.47913699375,47.0,84.0
1089,252.10890678125,254.4848621875,59.0,77.0
1090,252.10890678125,254.50012937083332,63.0,74.0
1091,252.10890678125,254.51730495208332,66.0,71.0
1092,255.08600753125,255.30356489375,61.0,78.0
1093,255.31501528125,255.60509176458334,63.0,79.0
1094,254.85699978125,255.72532083333334,56.0,75.0
1095,254.62799203125,255.80738194375,49.0,88.0
1096,255.77303078125,256.25013026041665,64.0,76.0
1097,256.23104628125,256.56692431458333,68.0,79.0
1098,256.68906178125,257.5077644875,52.0,72.0
1099,256.46005403125,257.62608515833335,45.0,85.0
1100,256.91806953125,257.62799355625,57.0,78.0
1101,257.60509278125,257.85700130625,52.0,76.0
1102,257.14707728125,257.8989860604167,64.0,84.0
1103,257.83410053125,258.25394807291667,57.0,73.0
1104,258.29211603125,259.24058979583333,40.0,90.0
1105,258.52112378125,259.26539896875,47.0,73.0
1106,258.75013153125,259.46768914791664,52.0,80.0
1107,258.97913928125,259.51730749375,56.0,81.0
1108,259.43715478125,259.7291396625,64.0,85.0
1109,259.66616253125,259.9123458625,52.0,85.0
1110,259.89517028125,260.16043759166666,64.0,79.0
1111,260.58219353125,260.771124925,59.0,75.0
1112,260.35318578125,261.1642548958333,54.0,76.0
1113,260.12417803125,261.51158331666664,47.0,81.0
1114,260.81120128125,261.52112530625,66.0,86.0
1115,261.26921678125,261.6031864166667,54.0,78.0
1116,261.49822453125,261.7444078625,59.0,79.0
1117,261.72723228125,262.15853021041664,66.0,85.0
1118,262.41425553125,262.52494261041664,61.0,77.0
1119,262.18524778125,262.95624053958335,56.0,80.0
1120,261.95624003125,263.2673094,49.0,89.0
1121,263.10127878125,263.3016605625,56.0,78.0
1122,262.64326328125,263.52875991458336,64.0,88.0
1123,263.33028653125,263.57074466875,61.0,75.0
1124,263.55929428125,263.9104394979167,68.0,77.0
1125,264.24631753125,264.5497528,57.0,79.0
1126,263.78830203125,265.05166145208335,45.0,89.0
1127,264.01730978125,265.07074543125,52.0,84.0
1128,264.93334078125,265.19479129583334,61.0,76.0
1129,264.47532528125,265.21196687708334,64.0,80.0
1130,265.16234853125,265.5459365125,57.0,81.0
1131,266.07837953125,266.4390667375,52.0,84.0
1132,265.62036403125,266.62418133541667,40.0,85.0
1133,265.84937178125,266.6680744875,47.0,76.0
1134,266.30738728125,266.7921203520833,64.0,84.0
1135,266.99441053125,267.18525032291666,52.0,84.0
1136,266.76540278125,267.23677706666666,59.0,80.0
1137,267.22341828125,267.46769321458333,64.0,79.0
1138,267.8741819708333,268.19479282083336,63.0,72.0
1139,267.65662460833335,268.20051801458334,59.0,79.0
1140,267.4428840416667,268.49250289583335,47.0,84.0
1141,268.1203653020833,268.85128170416664,66.0,79.0
1142,268.77685418541665,269.03448790416667,59.0,82.0
1143,268.55357162916664,269.0955566375,54.0,77.0
1144,269.0383047,269.6070072791667,71.0,83.0
1145,270.08983195208333,270.48868711666665,63.0,71.0
1146,269.78830508125,270.5039543,59.0,72.0
1147,270.4257099854167,270.92189344375,66.0,74.0
1148,270.85319111875,271.26922186458336,71.0,54.0
1149,269.2577704604167,271.4066265145833,47.0,79.0
1150,269.53257976041664,271.4562448604167,54.0,70.0
1151,271.29975623125,272.81120738125,59.0,72.0
