,start,end,pitch,velocity
0,37.36814445,37.784053125,70.0,83.0
1,37.91359845,38.202234525,70.0,83.0
2,38.186325450000005,38.412461587500005,77.0,70.0
3,38.45905245,38.897688375,77.0,83.0
4,39.00450645,39.295415250000005,75.0,85.0
5,39.277233450000004,39.5624604375,73.0,70.0
6,39.54996045,39.7510966125,75.0,85.0
7,39.822687450000004,40.36814145,77.0,83.0
8,40.36814145,41.4147313125,75.0,78.0
9,41.731776450000005,42.126094237500006,72.0,82.0
10,42.277230450000005,42.51359385000001,72.0,82.0
11,42.54995745,42.7692754125,75.0,86.0
12,42.822684450000004,43.25904765000001,77.0,82.0
13,43.368138450000004,43.580638237500004,75.0,82.0
14,43.64086545000001,43.893137925000005,68.0,65.0
15,43.91359245,45.3851818875,70.0,82.0
16,46.09540845,46.511317125000005,70.0,83.0
17,46.64086245,46.92949852500001,70.0,83.0
18,46.91358945,47.1397255875,77.0,70.0
19,47.18631645000001,47.62495237500001,77.0,83.0
20,47.731770450000006,48.02267925,75.0,85.0
21,48.00449745,48.289724437500006,73.0,70.0
22,48.277224450000006,48.8624511375,75.0,85.0
23,48.822678450000005,49.1579053875,77.0,83.0
24,49.09540545,50.1419953125,75.0,78.0
25,50.18631345000001,50.4363132,68.0,74.0
26,50.45904045,50.76244923750001,75.0,84.0
27,51.00449445,51.540857550000005,75.0,88.0
28,51.54994845,51.828357262500006,77.0,82.0
29,51.822675450000006,52.112447887500004,78.0,81.0
30,52.09540245,52.388583975,77.0,82.0
31,52.368129450000005,52.66017461250001,75.0,83.0
32,52.64085645,54.43971828750001,77.0,80.0
33,54.822672450000006,55.3510810125,77.0,88.0
34,55.368126450000005,55.743126075000006,82.0,73.0
35,55.913580450000005,56.4363072,82.0,82.0
36,56.459034450000004,57.014715712500006,75.0,88.0
37,57.004488450000004,57.303351787500006,77.0,78.0
38,57.27721545000001,57.553351537500006,75.0,83.0
39,57.54994245,58.62380501250001,73.0,81.0
40,58.64085045,58.876077487500005,73.0,77.0
41,58.913577450000005,59.11244088750001,75.0,84.0
42,59.18630445,59.71357665000001,77.0,78.0
43,59.73175845000001,59.92607643750001,82.0,77.0
44,60.004485450000004,60.204485250000005,82.0,81.0
45,60.27721245000001,60.718121100000005,75.0,84.0
46,60.82266645000001,61.0465298625,77.0,78.0
47,61.09539345,61.37380226250001,75.0,83.0
48,61.368120450000006,62.722664550000005,73.0,78.0
49,63.004482450000005,63.18970953750001,68.0,82.0
50,63.27720945000001,63.4635729,70.0,77.0
51,63.549936450000004,64.23402667500001,72.0,78.0
52,64.36811745,64.6078899375,72.0,80.0
53,64.64084445,65.090844,75.0,84.0
54,65.18629845000001,65.76697968750001,77.0,82.0
55,65.73175245,66.8419786125,75.0,81.0
56,67.91356845,68.30106806250001,72.0,82.0
57,68.45902245,68.92038562500001,72.0,88.0
58,68.9908401,69.27833981250001,73.0,84.0
59,69.38402152500001,69.68629395,73.0,85.0
60,69.80333928750001,70.1942479875,72.0,88.0
61,70.36811145,71.9726553,70.0,83.0
62,72.27720045000001,72.693109125,70.0,83.0
63,72.82265445,73.111290525,70.0,83.0
64,73.09538145,73.32151758750001,77.0,70.0
65,73.36810845000001,73.80674437500001,77.0,83.0
66,73.91356245,74.20447125000001,75.0,85.0
67,74.18628945,74.4715164375,73.0,70.0
68,74.45901645000001,74.6601526125,75.0,85.0
69,74.73174345000001,75.27719745,77.0,83.0
70,75.27719745,76.3237873125,75.0,78.0
71,76.64083245,77.45901345,72.0,82.0
72,77.73174045,78.27719445000001,72.0,82.0
73,78.27719445000001,78.80219392500001,68.0,65.0
74,78.82264845,80.2942378875,70.0,82.0
75,81.00446445,81.42037312500001,70.0,83.0
76,81.54991845,81.838554525,70.0,83.0
77,81.82264545000001,82.0487815875,77.0,70.0
78,82.09537245000001,82.53400837500001,77.0,83.0
79,82.64082645,82.93173525,75.0,85.0
80,82.91355345000001,83.1987804375,73.0,70.0
81,83.18628045000001,83.77150713750001,75.0,85.0
82,83.73173445,84.0669613875,77.0,83.0
83,84.00446145000001,85.05105131250001,75.0,78.0
84,85.36809645000001,85.6715052375,75.0,84.0
85,85.91355045,86.44991355,75.0,88.0
86,86.45900445000001,86.73741326250001,77.0,82.0
87,86.73173145000001,87.0215038875,78.0,81.0
88,87.00445845,87.29763997500001,77.0,82.0
89,87.27718545,87.56923061250001,75.0,83.0
90,87.54991245000001,89.3487742875,77.0,80.0
91,89.73172845,90.26013701250001,77.0,88.0
92,90.27718245000001,90.65218207500001,82.0,73.0
93,90.82263645,91.34536320000001,82.0,82.0
94,91.36809045000001,91.92377171250001,75.0,88.0
95,91.91354445,92.21240778750001,77.0,78.0
96,92.18627145,92.46240753750001,75.0,83.0
97,92.45899845000001,93.5328610125,73.0,81.0
98,93.54990645000001,93.7851334875,73.0,77.0
99,93.82263345000001,94.0214968875,75.0,84.0
100,94.09536045,94.62263265000001,77.0,78.0
101,94.64081445000001,95.18626845000001,82.0,77.0
102,95.18626845000001,95.62717710000001,75.0,84.0
103,95.73172245,95.9555858625,77.0,78.0
104,96.00444945000001,96.28285826250001,75.0,83.0
105,96.27717645000001,97.63172055000001,73.0,78.0
106,97.91353845,98.09876553750001,68.0,82.0
107,98.18626545000001,98.37262890000001,70.0,77.0
108,98.45899245000001,99.143082675,72.0,78.0
109,99.27717345,99.51694593750001,72.0,80.0
110,99.54990045000001,99.99990000000001,75.0,84.0
111,100.09535445,100.6760356875,77.0,82.0
112,100.64080845000001,101.7510346125,75.0,81.0
113,102.82262445,103.21012406250001,72.0,82.0
114,103.36807845000001,103.829441625,72.0,88.0
115,103.8998961,104.18739581250001,73.0,84.0
116,104.18625945000001,104.73171345000002,72.0,85.0
117,105.00444045,106.64080245000001,70.0,83.0
118,109.36807245000001,110.3328442125,77.0,93.0
119,110.45898045000001,111.05557076250001,82.0,82.0
120,111.00443445,111.52829756250001,84.0,85.0
121,111.54988845000001,113.35215937500001,82.0,82.0
122,113.73170445000001,114.07602228750001,80.0,82.0
123,114.27715845000002,114.47602188750001,80.0,83.0
124,114.54988545,114.76465796250001,82.0,83.0
125,114.82261245000001,115.3192028625,84.0,80.0
126,115.36806645000001,115.94192951250001,80.0,82.0
127,115.91352045000001,117.83056398750001,82.0,79.0
128,118.09533645,118.79647211250001,82.0,84.0
129,118.91351745000001,119.05215367500001,82.0,82.0
130,119.18624445,119.71465301250001,82.0,82.0
131,119.73169845000001,120.2169252375,84.0,82.0
132,120.27715245,120.68965203750001,82.0,82.0
133,120.82260645000001,121.0328335125,84.0,73.0
134,121.09533345000001,121.27828781250001,82.0,80.0
135,121.36806045000002,121.9464689625,80.0,81.0
136,121.91351445000001,122.34646856250001,77.0,83.0
137,122.45896845000001,123.00214972500001,75.0,85.0
138,123.00442245,123.38851297500001,70.0,83.0
139,123.54987645000001,123.73283081250001,80.0,84.0
140,123.82260345000002,124.52714820000001,82.0,82.0
141,124.64078445000001,126.39191906250001,77.0,83.0
142,126.82260045000001,127.19873643750002,75.0,82.0
143,127.36805445000002,127.77600858750002,75.0,88.0
144,127.91350845000001,128.3305534875,75.0,88.0
145,128.45896245,128.91691653750001,77.0,84.0
146,129.00441645,129.38964333750002,82.0,81.0
147,129.54987045000001,129.97714275,82.0,81.0
148,130.09532445000002,130.9146418125,82.0,82.0
149,131.18623245,131.68395922500002,77.0,81.0
150,131.73168645,132.220322325,80.0,81.0
151,132.27714045000002,132.6725946,77.0,82.0
152,132.82259445,133.2635031,70.0,84.0
153,133.36804845,134.183956725,77.0,82.0
154,134.18622945,134.479410975,75.0,82.0
155,134.45895645000002,135.2941828875,73.0,75.0
156,135.54986445,136.08736391250002,72.0,80.0
157,136.09531845,136.2737273625,72.0,83.0
158,136.36804545,136.5941815875,72.0,82.0
159,136.64077245000001,137.04190841250002,75.0,86.0
160,137.18622645000002,137.62372601250001,77.0,82.0
161,137.73168045,138.15668002500001,75.0,83.0
162,138.27713445,138.6896340375,77.0,80.0
163,138.82258845,139.6259967375,73.0,83.0
164,139.91349645000003,140.3100869625,72.0,85.0
165,140.45895045,140.7305410875,72.0,86.0
166,140.73167745,140.91122272500002,75.0,86.0
167,141.00440445,141.297585975,75.0,84.0
168,141.36122227500002,141.647585625,75.0,86.0
169,141.76690368750002,142.02144888750001,77.0,83.0
170,142.09531245000002,144.27712845000002,70.0,87.0
171,144.27712845000002,145.2419002125,77.0,93.0
172,145.36803645,145.96462676250002,82.0,82.0
173,145.91349045,146.43735356250002,84.0,85.0
174,146.45894445000002,148.261215375,82.0,82.0
175,148.64076045000002,148.98507828750002,80.0,82.0
176,149.18621445000002,149.38507788750002,80.0,83.0
177,149.45894145000003,149.67371396250002,82.0,83.0
178,149.73166845,150.2282588625,84.0,80.0
179,150.27712245,150.85098551250002,80.0,82.0
180,150.82257645,152.73961998750002,82.0,79.0
181,153.00439245,153.70552811250002,82.0,84.0
182,153.82257345000002,153.96120967500002,82.0,82.0
183,154.09530045000002,154.6237090125,82.0,82.0
184,154.64075445,155.1259812375,84.0,82.0
185,155.18620845,155.59870803750002,82.0,82.0
186,155.73166245000002,155.9418895125,84.0,73.0
187,156.00438945000002,156.18734381250002,82.0,80.0
188,156.27711645000002,156.8555249625,80.0,81.0
189,156.82257045,157.09529745,77.0,83.0
190,157.09529745,157.36802445,77.0,83.0
191,157.36802445,157.911205725,75.0,85.0
192,157.91347845,158.29756897500002,70.0,83.0
193,159.00438645,159.18734081250003,80.0,84.0
194,159.27711345,159.54984045,79.0,82.0
195,159.54984045,161.30097506250002,77.0,83.0
196,161.73165645,162.10779243750002,75.0,82.0
197,162.27711045,162.68506458750002,75.0,88.0
198,162.82256445000002,163.23960948750002,75.0,88.0
199,163.36801845000002,163.8259725375,77.0,84.0
200,163.91347245,164.2986993375,82.0,81.0
201,164.45892645,164.88619875,82.0,81.0
202,165.00438045,165.8236978125,82.0,82.0
203,166.09528845000003,166.59301522500002,77.0,81.0
204,166.64074245,167.129378325,80.0,81.0
205,167.18619645,167.58165060000002,77.0,82.0
206,167.73165045000002,168.1725591,70.0,84.0
207,168.27710445000002,169.09301272500002,77.0,82.0
208,169.09528545,169.388466975,75.0,82.0
209,169.36801245,170.20323888750002,73.0,75.0
210,170.45892045000002,170.99641991250002,72.0,80.0
211,171.00437445,171.1827833625,72.0,83.0
212,171.27710145,171.50323758750002,72.0,82.0
213,171.54982845,171.9509644125,75.0,86.0
214,172.09528245,172.5327820125,77.0,82.0
215,172.64073645000002,173.065736025,75.0,83.0
216,173.18619045000003,173.5986900375,77.0,80.0
217,173.73164445,174.53505273750002,73.0,83.0
218,174.82255245000002,175.2191429625,72.0,85.0
219,175.36800645000002,175.63959708750002,72.0,86.0
220,175.64073345000003,175.91346045,75.0,86.0
221,175.91346045,176.45891445,75.0,84.0
222,176.45891445,177.00436845000002,68.0,83.0
223,177.00436845000002,179.18618445,70.0,87.0
224,214.09524045,214.511149125,70.0,83.0
225,214.64069445,214.929330525,70.0,83.0
226,214.91342145000002,215.1395575875,77.0,70.0
227,215.18614845000002,215.62478437500002,77.0,83.0
228,215.73160245000003,216.02251125,75.0,85.0
229,216.00432945000003,216.2895564375,73.0,70.0
230,216.27705645,216.4781926125,75.0,85.0
231,216.54978345,217.09523745,77.0,83.0
232,217.09523745,218.14182731250003,75.0,78.0
233,218.45887245000003,219.00432645,72.0,82.0
234,219.00432645,219.27705345,75.0,83.0
235,219.54978045000001,220.09523445000002,75.0,82.0
236,220.09523445000002,220.620233925,68.0,65.0
237,220.64068845000003,222.11227788750003,70.0,82.0
238,222.82250445000003,223.23841312500002,70.0,83.0
239,223.36795845000003,223.65659452500003,70.0,83.0
240,223.64068545,223.86682158750003,77.0,70.0
241,223.91341245,224.352048375,77.0,83.0
242,224.45886645000002,224.74977525000003,75.0,85.0
243,224.73159345000002,225.01682043750003,73.0,70.0
244,225.00432045000002,225.5895471375,75.0,85.0
245,225.54977445000003,225.8850013875,77.0,83.0
246,225.82250145,226.86909131250002,75.0,78.0
247,227.18613645000002,227.4895452375,75.0,84.0
248,227.73159045000003,228.26795355000002,75.0,88.0
249,228.27704445,228.5554532625,77.0,82.0
250,228.54977145,228.8395438875,78.0,81.0
251,228.82249845,229.115679975,77.0,82.0
252,229.09522545000002,229.38727061250003,75.0,83.0
253,229.36795245000002,231.16681428750002,77.0,80.0
254,231.54976845000002,232.07817701250002,77.0,88.0
255,232.09522245000002,232.470222075,82.0,73.0
256,232.64067645000003,233.1634032,82.0,82.0
257,233.18613045,233.7418117125,75.0,88.0
258,233.73158445,234.0304477875,77.0,78.0
259,234.00431145000002,234.2804475375,75.0,83.0
260,234.27703845000002,235.35090101250003,73.0,81.0
261,235.64067345,235.83953688750003,75.0,84.0
262,235.91340045,236.44067265,77.0,78.0
263,236.45885445000002,237.00430845000002,82.0,77.0
264,237.00430845000002,237.4452171,82.0,84.0
265,237.54976245000003,237.7736258625,75.0,78.0
266,238.09521645,238.36794345,77.0,83.0
267,238.36794345,238.64067045000002,75.0,83.0
268,238.64067045000002,239.73157845000003,73.0,78.0
269,239.73157845000003,239.9168055375,68.0,82.0
270,240.00430545000003,240.19066890000002,70.0,77.0
271,240.27703245,240.961122675,72.0,78.0
272,241.09521345000002,241.33498593750002,72.0,80.0
273,241.36794045000002,241.81794000000002,75.0,84.0
274,241.91339445000003,242.49407568750001,77.0,82.0
275,242.45884845,243.56907461250003,75.0,81.0
276,244.64066445000003,245.02816406250003,72.0,82.0
277,245.18611845,245.647481625,72.0,88.0
278,245.71793610000003,246.00543581250002,73.0,84.0
279,246.27702645000002,246.54975345000003,73.0,85.0
280,246.54975345000003,246.82248045000003,72.0,85.0
281,246.82248045000003,248.45884245000002,70.0,83.0
282,251.18611245000002,252.15088421250002,77.0,93.0
283,252.27702045,252.87361076250002,82.0,82.0
284,252.82247445000002,253.34633756250003,84.0,85.0
285,253.36792845000002,255.170199375,82.0,82.0
286,255.54974445000002,255.89406228750002,80.0,82.0
287,256.09519845,256.2940618875,80.0,83.0
288,256.36792545000003,256.5826979625,82.0,83.0
289,256.64065245,257.13724286250005,84.0,80.0
290,257.18610645,257.7599695125,80.0,82.0
291,257.73156045,259.6486039875,82.0,79.0
292,259.91337645000004,260.6145121125,82.0,84.0
293,260.73155745,260.870193675,82.0,82.0
294,261.00428445,261.53269301250003,82.0,82.0
295,261.54973845,262.03496523750005,84.0,82.0
296,262.09519245,262.5076920375,82.0,82.0
297,262.64064645,262.8508735125,84.0,73.0
298,262.91337345,263.0963278125,82.0,80.0
299,263.18610045,263.76450896250003,80.0,81.0
300,263.73155445000003,264.16450856250003,77.0,83.0
301,264.27700845000004,264.82018972500003,75.0,85.0
302,264.82246245000005,265.206552975,70.0,83.0
303,265.36791645,265.5508708125,80.0,84.0
304,265.64064345,266.3451882,82.0,82.0
305,266.45882445,268.20995906250005,77.0,83.0
306,268.64064045000003,269.0167764375,75.0,82.0
307,269.18609445000004,269.5940485875,75.0,88.0
308,269.73154845000005,270.1485934875,75.0,88.0
309,270.27700245,270.7349565375,77.0,84.0
310,270.82245645,271.20768333750004,82.0,81.0
311,271.36791045,271.79518275000004,82.0,81.0
312,271.91336445,272.7326818125,82.0,82.0
313,273.00427245000003,273.501999225,77.0,81.0
314,273.54972645000004,274.03836232500004,80.0,81.0
315,274.09518045000004,274.4906346,77.0,82.0
316,274.64063445000005,275.08154310000003,70.0,84.0
317,275.18608845,276.001996725,77.0,82.0
318,276.00426945000004,276.297450975,75.0,82.0
319,276.27699645,277.1122228875,73.0,75.0
320,277.36790445,277.90540391250005,72.0,80.0
321,277.91335845000003,278.09176736250004,72.0,83.0
322,278.18608545,278.4122215875,72.0,82.0
323,278.45881245000004,278.85994841250005,75.0,86.0
324,279.00426645000005,279.4417660125,77.0,82.0
325,279.54972045,279.974720025,75.0,83.0
326,280.09517445,280.5076740375,77.0,80.0
327,280.64062845,281.4440367375,73.0,83.0
328,281.73153645,282.1281269625,72.0,85.0
329,282.27699045,282.5485810875,72.0,86.0
330,282.54971745,282.729262725,75.0,86.0
331,282.82244445000003,283.115625975,75.0,84.0
332,283.17926227500004,283.46562562500003,75.0,86.0
333,283.5849436875,283.8394888875,77.0,83.0
334,283.91335245000005,286.09516845,70.0,87.0
335,286.09516845,287.0599402125,77.0,93.0
336,287.18607645000003,287.7826667625,82.0,82.0
337,287.73153045000004,288.25539356250005,84.0,85.0
338,288.27698445000004,290.079255375,82.0,82.0
339,290.45880045,290.8031182875,80.0,82.0
340,291.00425445,291.2031178875,80.0,83.0
341,291.27698145000005,291.4917539625,82.0,83.0
342,291.54970845,292.0462988625,84.0,80.0
343,292.09516245000003,292.6690255125,80.0,82.0
344,292.64061645000004,294.5576599875,82.0,79.0
345,294.82243245,295.5235681125,82.0,84.0
346,295.64061345000005,295.779249675,82.0,82.0
347,295.91334045,296.4417490125,82.0,82.0
348,296.45879445,296.9440212375,84.0,82.0
349,297.00424845000003,297.41674803750004,82.0,82.0
350,297.54970245000004,297.75992951250004,84.0,73.0
351,297.82242945,298.00538381250004,82.0,80.0
352,298.09515645000005,298.67356496250005,80.0,81.0
353,298.64061045,298.91333745000003,77.0,83.0
354,298.91333745000003,299.18606445,77.0,83.0
355,299.18606445,299.729245725,75.0,85.0
356,299.73151845,300.11560897500004,70.0,83.0
357,300.82242645,301.00538081250005,80.0,84.0
358,301.09515345,301.36788045000003,79.0,82.0
359,301.36788045000003,303.1190150625,77.0,83.0
360,303.54969645,303.92583243750005,75.0,82.0
361,304.09515045,304.50310458750005,75.0,88.0
362,304.64060445,305.05764948750004,75.0,88.0
363,305.18605845,305.64401253750003,77.0,84.0
364,305.73151245,306.1167393375,82.0,81.0
365,306.27696645000003,306.70423875,82.0,81.0
366,306.82242045000004,307.6417378125,82.0,82.0
367,307.91332845000005,308.41105522500004,77.0,81.0
368,308.45878245,308.947418325,80.0,81.0
369,309.00423645,309.39969060000004,77.0,82.0
370,309.54969045,309.9905991,70.0,84.0
371,310.09514445,310.91105272500005,77.0,82.0
372,310.91332545,311.206506975,75.0,82.0
373,311.18605245000003,312.02127888750005,73.0,75.0
374,312.27696045000005,312.8144599125,72.0,80.0
375,312.82241445,313.0008233625,72.0,83.0
376,313.09514145,313.32127758750005,72.0,82.0
377,313.36786845,313.7690044125,75.0,86.0
378,313.91332245,314.35082201250003,77.0,82.0
379,314.45877645,314.88377602500003,75.0,83.0
380,315.00423045,315.41673003750003,77.0,80.0
381,315.54968445000003,316.35309273750005,73.0,83.0
382,316.64059245000004,317.0371829625,72.0,85.0
383,317.18604645000005,317.4576370875,72.0,86.0
384,317.45877345,317.73150045,75.0,86.0
385,317.73150045,318.27695445,75.0,84.0
386,318.27695445,318.82240845,68.0,83.0
387,318.82240845,321.00422445000004,70.0,87.0
388,321.00422445000004,321.5417239125,72.0,80.0
389,321.54967845000004,321.72808736250005,72.0,83.0
390,321.82240545,322.04854158750004,72.0,82.0
391,322.09513245000005,322.4962684125,75.0,86.0
392,322.64058645,323.0780860125,77.0,82.0
393,323.18604045,323.611040025,75.0,83.0
394,323.73149445,324.1439940375,77.0,80.0
395,324.27694845,325.08035673750004,73.0,83.0
396,325.36785645000003,325.7644469625,72.0,85.0
397,325.91331045000004,326.1849010875,72.0,86.0
398,326.18603745,326.45876445000005,75.0,86.0
399,326.45876445000005,327.54967245,75.0,84.0
400,327.54967245,329.18603445,68.0,83.0
401,329.73148845000003,331.91330445,70.0,87.0
