,start,end,pitch,velocity
0,3.00454245,4.0829504625,58.0,81.0
1,3.2772694500000004,4.0965868125,61.0,72.0
2,2.73181545,4.4579500875,53.0,73.0
3,2.4590884500000003,4.477268250000001,46.0,82.0
4,4.36817745,4.9829495625,58.0,69.0
5,4.09545045,5.04999495,65.0,81.0
6,5.18635845,5.370449175,58.0,77.0
7,5.459085450000001,5.690903400000001,58.0,75.0
8,5.459085450000001,5.6999943,61.0,75.0
9,4.9136314500000005,6.398857237500001,53.0,71.0
10,6.00453945,6.402266325,61.0,76.0
11,6.00453945,6.405675412500001,65.0,78.0
12,4.640904450000001,6.4647662625,46.0,78.0
13,6.277266450000001,6.481811700000001,58.0,66.0
14,6.82272045,7.145447400000001,56.0,69.0
15,6.82272045,7.4238562125000005,60.0,72.0
16,7.368174450000001,8.2920371625,56.0,77.0
17,7.095447450000001,8.50453695,48.0,65.0
18,6.82272045,8.5738550625,41.0,80.0
19,8.18635545,8.581809600000001,65.0,69.0
20,8.45908245,8.9352183375,56.0,78.0
21,7.64090145,8.943172875,60.0,74.0
22,9.549990450000001,9.914762812500001,58.0,73.0
23,9.82271745,10.0329445125,61.0,77.0
24,10.36817145,10.6454439,61.0,75.0
25,10.36817145,10.6783984125,65.0,77.0
26,10.640898450000002,10.7988528375,58.0,65.0
27,9.277263450000001,10.827261900000002,53.0,70.0
28,9.004536450000002,10.942034512500001,46.0,81.0
29,11.186352450000001,11.76817005,65.0,79.0
30,11.73180645,12.098851537500002,58.0,79.0
31,12.00453345,12.3238513125,61.0,77.0
32,11.186352450000001,13.267032187500002,46.0,82.0
33,11.45907945,13.440895650000002,53.0,74.0
34,13.095441450000001,13.998849637500001,65.0,78.0
35,13.913622450000002,14.260213012500001,58.0,84.0
36,14.186349450000002,14.601121762500002,61.0,82.0
37,14.731803450000001,15.1693030125,65.0,78.0
38,15.00453045,15.243166575000002,58.0,72.0
39,13.64089545,15.257939287500001,53.0,73.0
40,13.36816845,15.305666512500002,46.0,78.0
41,15.549984450000002,16.0465748625,66.0,77.0
42,15.822711450000002,16.188620175,58.0,82.0
43,16.09543845,16.4170290375,63.0,77.0
44,16.368165450000003,16.9806648375,66.0,75.0
45,15.549984450000002,17.161346475000002,51.0,78.0
46,16.913619450000002,17.243164575,63.0,75.0
47,17.73180045,18.3999816,68.0,74.0
48,18.27725445,18.765890325,60.0,83.0
49,18.54998145,18.864753862500002,65.0,86.0
50,18.00452745,19.1488444875,48.0,69.0
51,18.82270845,19.174980825000002,68.0,79.0
52,17.73180045,19.20452625,41.0,80.0
53,19.09543545,19.387480612500003,65.0,76.0
54,19.36816245,19.526116837500002,60.0,84.0
55,19.913616450000003,20.155661662500002,58.0,73.0
56,19.913616450000003,20.423843212500003,63.0,77.0
57,20.459070450000002,20.829524625,58.0,83.0
58,20.731797450000002,21.2715696375,66.0,80.0
59,21.27725145,21.593160225000002,63.0,78.0
60,19.913616450000003,21.718160100000002,51.0,78.0
61,20.186343450000003,21.732932812500003,54.0,73.0
62,21.54997845,21.757932787500003,58.0,76.0
63,22.09543245,22.6556591625,61.0,75.0
64,22.640886450000004,23.5238401125,58.0,80.0
65,23.459067450000003,23.785203487500002,61.0,71.0
66,22.913613450000003,23.7897489375,65.0,80.0
67,22.09543245,23.829521625,46.0,82.0
68,23.731794450000002,23.837476162500003,58.0,78.0
69,22.36815945,23.872703400000002,53.0,71.0
70,24.277248450000002,24.439748287500002,60.0,74.0
71,24.277248450000002,24.6033844875,65.0,82.0
72,24.82270245,25.1397475875,65.0,77.0
73,24.277248450000002,25.560201712500003,53.0,82.0
74,24.54997545,25.6533834375,60.0,76.0
75,25.09542945,25.7533833375,68.0,72.0
76,25.64088345,25.986337650000003,65.0,76.0
77,25.913610450000004,26.14088295,60.0,81.0
78,26.459064450000003,26.760200512500003,58.0,71.0
79,26.459064450000003,27.006791175000004,61.0,73.0
80,27.004518450000003,27.897699375000002,58.0,83.0
81,27.277245450000002,27.938608425,65.0,82.0
82,26.731791450000003,27.999972000000003,53.0,75.0
83,26.459064450000003,28.053381037500003,46.0,82.0
84,27.82269945,28.137471862500004,61.0,84.0
85,28.09542645,28.670425875000003,58.0,83.0
86,28.64088045,29.199970800000003,60.0,68.0
87,29.186334450000004,29.6988339375,53.0,86.0
88,29.459061450000004,30.048833587500003,56.0,83.0
89,30.004515450000003,30.564742162500004,60.0,77.0
90,28.64088045,30.569287612500002,41.0,82.0
91,28.91360745,30.571560337500003,48.0,75.0
92,30.277242450000003,31.0647416625,53.0,76.0
93,30.549969450000003,31.4533776375,56.0,77.0
94,31.36815045,31.588604775000004,53.0,78.0
95,31.095423450000002,31.9920134625,48.0,70.0
96,31.64087745,32.4272403,60.0,78.0
97,32.186331450000004,32.4636039,48.0,72.0
98,31.64087745,32.47724025,56.0,82.0
99,30.822696450000002,32.5465583625,41.0,84.0
100,32.45905845,32.5908765,53.0,84.0
101,33.00451245,33.319284862500005,58.0,71.0
102,33.00451245,33.5420119125,61.0,77.0
103,33.54996645,34.228374862500004,58.0,77.0
104,33.82269345,34.247693025000004,65.0,83.0
105,34.36814745,34.6181472,61.0,76.0
106,33.00451245,34.9147378125,46.0,83.0
107,33.27723945,34.961328675000004,53.0,74.0
108,34.91360145,35.412464587500004,70.0,82.0
109,34.640874450000005,35.449964550000004,58.0,82.0
110,36.00450945,36.461327175,61.0,70.0
111,35.731782450000004,36.5283725625,58.0,78.0
112,36.54996345,36.870417675000006,65.0,76.0
113,35.45905545,37.1670082875,53.0,72.0
114,35.186328450000005,37.181781,46.0,81.0
115,36.82269045,37.606780575,58.0,77.0
116,37.91359845,38.3329162125,58.0,78.0
117,38.186325450000005,38.776097587500004,65.0,78.0
118,38.731779450000005,39.074960925000006,61.0,72.0
119,37.36814445,39.409051500000004,46.0,80.0
120,37.640871450000006,39.4101878625,53.0,71.0
121,39.00450645,39.511324125,58.0,75.0
122,39.277233450000004,39.6181422,65.0,74.0
123,39.822687450000004,40.181778,58.0,81.0
124,40.09541445,40.424959575,63.0,72.0
125,40.36814145,40.943140875000005,66.0,79.0
126,39.54996045,41.106777075000004,51.0,79.0
127,40.91359545,41.25904965,63.0,73.0
128,41.186322450000006,41.3329132125,58.0,78.0
129,41.731776450000005,42.3601849125,65.0,79.0
130,41.731776450000005,42.852229875000006,41.0,73.0
131,42.00450345,42.867002587500004,48.0,70.0
132,42.277230450000005,43.1692750125,60.0,83.0
133,42.54995745,43.179502275000004,68.0,78.0
134,43.09541145,43.438592925,65.0,79.0
135,43.368138450000004,43.697683575000006,60.0,80.0
136,43.64086545000001,43.812456187500004,65.0,72.0
137,43.91359245,44.5090464,61.0,74.0
138,44.45904645,44.8465460625,58.0,72.0
139,44.731773450000006,45.345409200000006,65.0,82.0
140,45.277227450000005,45.588590775,61.0,83.0
141,44.186319450000006,45.778363312500005,53.0,69.0
142,43.91359245,45.86813595,46.0,77.0
143,45.54995445,46.4124535875,58.0,77.0
144,46.64086245,47.27722545,58.0,84.0
145,46.91358945,47.5351797375,65.0,82.0
146,47.45904345,47.7601795125,61.0,82.0
147,46.368135450000004,48.1363155,53.0,74.0
148,46.09540845,48.15677002500001,46.0,83.0
149,47.731770450000006,48.2169972375,58.0,78.0
150,48.00449745,48.332906212500006,65.0,76.0
151,48.277224450000006,48.590860500000005,63.0,79.0
152,48.54995145,48.93176925,58.0,77.0
153,48.822678450000005,49.1942689875,63.0,73.0
154,49.09540545,49.693132125000005,66.0,78.0
155,49.64085945,49.9147228125,63.0,79.0
156,48.277224450000006,49.999950000000005,51.0,80.0
157,49.913586450000004,50.539722187500004,58.0,83.0
158,50.45904045,51.007903537500006,63.0,78.0
159,51.277221450000006,51.7010846625,63.0,78.0
160,51.00449445,51.70903920000001,58.0,83.0
161,51.822675450000006,52.1329024125,63.0,81.0
162,50.73176745000001,52.1760841875,46.0,67.0
163,50.45904045,52.237447762500004,39.0,83.0
164,52.09540245,52.449947550000005,58.0,77.0
165,52.368129450000005,52.6579018875,63.0,76.0
166,52.64085645,53.2544922,65.0,83.0
167,53.18631045000001,53.5556282625,60.0,82.0
168,53.459037450000004,53.7726735,65.0,82.0
169,54.00449145,54.2760820875,65.0,74.0
170,52.913583450000004,54.378354712500006,48.0,66.0
171,52.64085645,54.386309250000004,41.0,83.0
172,54.27721845000001,54.56471816250001,68.0,78.0
173,54.54994545,54.83176335,65.0,82.0
174,54.822672450000006,55.3578991875,70.0,70.0
175,55.368126450000005,55.74085335,58.0,77.0
176,55.64085345,56.120398425000005,65.0,78.0
177,56.18630745,56.5056253125,61.0,75.0
178,54.822672450000006,56.853352237500005,46.0,82.0
179,55.09539945,57.00107936250001,53.0,72.0
180,56.459034450000004,57.1442610375,58.0,76.0
181,57.004488450000004,57.593124225000004,65.0,81.0
182,57.54994245,58.3090326,58.0,80.0
183,57.82266945000001,58.4397142875,65.0,78.0
184,57.004488450000004,59.007895537500005,46.0,82.0
185,57.27721545000001,59.029486425,53.0,71.0
186,58.64085045,59.53744046250001,58.0,83.0
187,58.368123450000006,59.560167712500004,70.0,82.0
188,58.913577450000005,59.77607658750001,65.0,80.0
189,60.004485450000004,60.406757775,61.0,78.0
190,59.73175845000001,60.556757625,58.0,73.0
191,60.549939450000004,60.83516643750001,65.0,78.0
192,60.82266645000001,61.044257137500004,58.0,82.0
193,59.18630445,61.205620612500006,46.0,82.0
194,59.459031450000005,61.219256962500005,53.0,72.0
195,61.368120450000006,61.637438362500006,58.0,68.0
196,61.368120450000006,61.946528962500004,61.0,74.0
197,61.913574450000006,62.561301075,58.0,78.0
198,62.18630145,62.611301025,65.0,83.0
199,62.73175545,63.01357335,61.0,83.0
200,61.64084745,63.256754925,53.0,71.0
201,61.368120450000006,63.2578912875,46.0,82.0
202,63.004482450000005,63.36584572500001,58.0,82.0
203,63.27720945000001,63.435163837500006,61.0,83.0
204,63.549936450000004,63.830617987500005,56.0,78.0
205,63.549936450000004,64.0942540875,60.0,81.0
206,64.09539045000001,64.4510719125,56.0,84.0
207,64.36811745,64.8908442,63.0,80.0
208,64.91357145,65.24198021250001,60.0,78.0
209,63.82266345000001,65.57493442500001,51.0,70.0
210,63.549936450000004,65.6124343875,44.0,75.0
211,65.18629845000001,65.78288876250001,56.0,84.0
212,65.73175245,66.2874337125,60.0,79.0
213,66.27720645000001,66.94993305,56.0,83.0
214,66.54993345000001,66.95788758750001,60.0,82.0
215,67.09538745,67.13288741250001,60.0,68.0
216,66.00447945,67.284023625,51.0,68.0
217,65.73175245,67.5897051375,44.0,82.0
218,67.09538745,67.661295975,63.0,81.0
219,67.36811445000001,67.89652301250001,56.0,84.0
220,67.64084145000001,68.2942498875,60.0,76.0
221,68.45902245,68.797658475,53.0,82.0
222,68.73174945000001,69.25333983750001,56.0,86.0
223,68.18629545,69.3965215125,48.0,71.0
224,67.91356845,69.49538505000001,41.0,84.0
225,69.27720345,69.5965213125,60.0,83.0
226,69.54993045,69.6806121375,53.0,84.0
227,70.09538445000001,70.38629325000001,58.0,73.0
228,70.09538445000001,70.6828838625,61.0,78.0
229,70.64083845,70.8397018875,58.0,78.0
230,70.91356545000001,71.47720125000001,65.0,83.0
231,71.45901945,71.76129187500001,61.0,82.0
232,70.36811145,71.8737917625,53.0,67.0
233,71.73174645,72.10220062500001,58.0,83.0
234,72.00447345,72.256745925,61.0,78.0
235,70.09538445000001,72.27151863750001,46.0,79.0
236,72.82265445,73.2419722125,58.0,78.0
237,73.09538145,73.68515358750001,65.0,78.0
238,73.64083545000001,73.984016925,61.0,72.0
239,72.27720045000001,74.31810750000001,46.0,80.0
240,72.54992745000001,74.3192438625,53.0,71.0
241,73.91356245,74.42038012500001,58.0,75.0
242,74.18628945,74.5271982,65.0,74.0
243,74.73174345000001,75.090834,58.0,81.0
244,75.00447045,75.33401557500001,63.0,72.0
245,75.27719745,75.852196875,66.0,79.0
246,74.45901645000001,76.015833075,51.0,79.0
247,75.82265145000001,76.16810565,63.0,73.0
248,76.09537845000001,76.24196921250001,58.0,78.0
249,76.64083245,77.26924091250001,65.0,79.0
250,76.64083245,77.76128587500001,41.0,73.0
251,76.91355945000001,77.7760585875,48.0,70.0
252,77.18628645000001,78.0783310125,60.0,83.0
253,77.45901345,78.08855827500001,68.0,78.0
254,78.00446745,78.347648925,65.0,79.0
255,78.27719445000001,78.606739575,60.0,80.0
256,78.54992145,78.72151218750001,65.0,72.0
257,78.82264845,79.41810240000001,61.0,74.0
258,79.36810245000001,79.7556020625,58.0,72.0
259,79.64082945000001,80.25446520000001,65.0,82.0
260,80.18628345,80.497646775,61.0,83.0
261,79.09537545,80.68741931250001,53.0,69.0
262,78.82264845,80.77719195,46.0,77.0
263,80.45901045000001,81.3215095875,58.0,77.0
264,81.54991845,82.18628145000001,58.0,84.0
265,81.82264545000001,82.44423573750001,65.0,82.0
266,82.36809945,82.66923551250001,61.0,82.0
267,81.27719145,83.0453715,53.0,74.0
268,81.00446445,83.065826025,46.0,83.0
269,82.64082645,83.1260532375,58.0,78.0
270,82.91355345000001,83.24196221250001,65.0,76.0
271,83.18628045000001,83.49991650000001,63.0,79.0
272,83.45900745,83.84082525000001,58.0,77.0
273,83.73173445,84.1033249875,63.0,73.0
274,84.00446145000001,84.60218812500001,66.0,78.0
275,84.54991545,84.82377881250001,63.0,79.0
276,83.18628045000001,84.909006,51.0,80.0
277,84.82264245,85.44877818750001,58.0,83.0
278,85.36809645000001,85.9169595375,63.0,78.0
279,86.18627745,86.6101406625,63.0,78.0
280,85.91355045,86.61809520000001,58.0,83.0
281,86.73173145000001,87.04195841250001,63.0,81.0
282,85.64082345000001,87.0851401875,46.0,67.0
283,85.36809645000001,87.1465037625,39.0,83.0
284,87.00445845,87.35900355000001,58.0,77.0
285,87.27718545,87.56695788750001,63.0,76.0
286,87.54991245000001,88.16354820000001,65.0,83.0
287,88.09536645,88.4646842625,60.0,82.0
288,88.36809345,88.6817295,65.0,82.0
289,88.91354745000001,89.18513808750001,65.0,74.0
290,87.82263945000001,89.2874107125,48.0,66.0
291,87.54991245000001,89.29536525,41.0,83.0
292,89.18627445000001,89.4737741625,68.0,78.0
293,89.45900145,89.74081935000001,65.0,82.0
294,89.73172845,90.2669551875,70.0,70.0
295,90.27718245000001,90.64990935,58.0,77.0
296,90.54990945,91.02945442500001,65.0,78.0
297,91.09536345000001,91.41468131250001,61.0,75.0
298,89.73172845,91.76240823750001,46.0,82.0
299,90.00445545000001,91.9101353625,53.0,72.0
300,91.36809045000001,92.05331703750001,58.0,76.0
301,91.91354445,92.502180225,65.0,81.0
302,92.45899845000001,93.2180886,58.0,80.0
303,92.73172545000001,93.3487702875,65.0,78.0
304,91.91354445,93.91695153750001,46.0,82.0
305,92.18627145,93.93854242500001,53.0,71.0
306,93.54990645000001,94.44649646250001,58.0,83.0
307,93.27717945,94.46922371250001,70.0,82.0
308,93.82263345000001,94.68513258750001,65.0,80.0
309,94.91354145000001,95.31581377500001,61.0,78.0
310,94.64081445000001,95.46581362500001,58.0,73.0
311,95.45899545,95.74422243750001,65.0,78.0
312,95.73172245,95.9533131375,58.0,82.0
313,94.09536045,96.1146766125,46.0,82.0
314,94.36808745,96.1283129625,53.0,72.0
315,96.27717645000001,96.54649436250001,58.0,68.0
316,96.27717645000001,96.8555849625,61.0,74.0
317,96.82263045,97.47035707500001,58.0,78.0
318,97.09535745000001,97.52035702500001,65.0,83.0
319,97.64081145,97.92262935000001,61.0,83.0
320,96.54990345,98.165810925,53.0,71.0
321,96.27717645000001,98.16694728750001,46.0,82.0
322,97.91353845,98.274901725,58.0,82.0
323,98.18626545000001,98.3442198375,61.0,83.0
324,98.45899245000001,98.73967398750001,56.0,78.0
325,98.45899245000001,99.00331008750001,60.0,81.0
326,99.00444645,99.3601279125,56.0,84.0
327,99.27717345,99.79990020000001,63.0,80.0
328,99.82262745000001,100.1510362125,60.0,78.0
329,98.73171945000001,100.483990425,51.0,70.0
330,98.45899245000001,100.52149038750001,44.0,75.0
331,100.09535445,100.69194476250001,56.0,84.0
332,100.64080845000001,101.19648971250001,60.0,79.0
333,101.18626245,101.85898905,56.0,83.0
334,101.45898945,101.8669435875,60.0,82.0
335,102.00444345000001,102.0419434125,60.0,68.0
336,100.91353545000001,102.19307962500001,51.0,68.0
337,100.64080845000001,102.49876113750001,44.0,82.0
338,102.00444345000001,102.57035197500001,63.0,81.0
339,102.27717045000001,102.8055790125,56.0,84.0
340,102.54989745,103.20330588750001,60.0,76.0
341,103.36807845000001,103.70671447500001,53.0,82.0
342,103.64080545,104.16239583750001,56.0,86.0
343,103.09535145000001,104.30557751250001,48.0,71.0
344,102.82262445,104.40444105,41.0,84.0
345,104.18625945000001,104.50557731250001,60.0,83.0
346,104.45898645000001,104.58966813750001,53.0,84.0
347,105.00444045,105.29534925000002,58.0,73.0
348,105.00444045,105.59193986250001,61.0,78.0
349,105.54989445000001,105.7487578875,58.0,78.0
350,105.82262145000001,106.38625725000001,65.0,83.0
351,106.36807545,106.670347875,61.0,82.0
352,105.27716745000001,106.78284776250001,53.0,67.0
353,106.64080245000001,107.011256625,58.0,83.0
354,106.91352945000001,107.16580192500001,61.0,78.0
355,105.00444045,107.18057463750002,46.0,79.0
356,107.18625645,107.4646652625,61.0,75.0
357,107.18625645,107.4783016125,58.0,75.0
358,107.18625645,107.52148338750001,65.0,84.0
359,107.73171045000001,107.8362558,58.0,83.0
360,107.45898345,108.1533009375,53.0,74.0
361,108.00443745000001,108.3578461875,70.0,84.0
362,108.00443745000001,108.43398247500001,58.0,83.0
363,108.27716445000001,108.68398222500001,53.0,82.0
364,108.54989145,108.902163825,58.0,79.0
365,108.54989145,108.95330013750001,61.0,83.0
366,108.54989145,109.13398177500001,65.0,86.0
367,107.18625645,109.2214816875,46.0,83.0
368,109.09534545000001,109.23739076250001,58.0,78.0
369,108.82261845000001,109.26125437500001,53.0,82.0
370,109.36807245000001,109.70557211250001,58.0,77.0
371,109.36807245000001,109.80102656250001,61.0,76.0
372,109.91352645,110.04534450000001,58.0,75.0
373,109.64079945,110.315798775,53.0,71.0
374,110.18625345000001,110.4237532125,58.0,85.0
375,110.18625345000001,110.43170775000002,65.0,84.0
376,110.73170745,110.815798275,58.0,72.0
377,110.73170745,110.9737526625,61.0,77.0
378,111.00443445,111.1623888375,58.0,73.0
379,110.45898045000001,111.18625245000001,53.0,80.0
380,109.36807245000001,111.23625240000001,46.0,84.0
381,111.54988845000001,111.82943362500001,58.0,70.0
382,111.54988845000001,111.85216087500001,61.0,73.0
383,112.09534245,112.2532968375,58.0,69.0
384,112.36806945000001,112.46693298750002,61.0,68.0
385,111.82261545000001,112.770341775,53.0,71.0
386,112.64079645000001,112.8169326375,58.0,79.0
387,112.64079645000001,112.85443260000001,65.0,83.0
388,113.18625045,113.2305685875,58.0,62.0
389,112.91352345000001,113.25443220000001,53.0,77.0
390,111.54988845000001,113.34420483750002,46.0,83.0
391,113.18625045,113.53738646250001,61.0,82.0
392,113.45897745,113.60102276250001,58.0,73.0
393,113.73170445000001,114.03511323750001,56.0,76.0
394,113.73170445000001,114.30215842500002,60.0,75.0
395,114.27715845000002,114.42943102500001,56.0,71.0
396,114.54988545,114.63170355000001,60.0,59.0
397,114.00443145000001,114.89306692500001,48.0,68.0
398,114.82261245000001,115.01124862500001,56.0,83.0
399,114.82261245000001,115.07943037500002,65.0,85.0
400,113.73170445000001,115.288521075,41.0,83.0
401,115.09533945000001,115.3101119625,48.0,75.0
402,115.36806645000001,115.429430025,56.0,71.0
403,115.36806645000001,115.5851116875,60.0,82.0
404,115.64079345,115.76692968750001,56.0,70.0
405,115.91352045000001,116.2714746375,58.0,74.0
406,115.91352045000001,116.465792625,61.0,73.0
407,116.18624745000001,116.61920156250001,53.0,72.0
408,116.45897445000001,116.806701375,58.0,73.0
409,116.73170145,117.1101101625,53.0,74.0
410,117.00442845,117.2510191125,58.0,76.0
411,117.00442845,117.2896554375,65.0,84.0
412,117.00442845,117.29647361250001,61.0,78.0
413,115.91352045000001,117.64988235000001,46.0,83.0
414,117.27715545000001,117.66579142500001,53.0,74.0
415,117.54988245000001,117.706700475,58.0,85.0
416,118.09533645,118.4396542875,58.0,75.0
417,118.09533645,118.58851777500001,65.0,82.0
418,118.64079045000001,118.7782903125,58.0,84.0
419,118.91351745000001,119.23169895000001,61.0,81.0
420,118.91351745000001,119.25783528750001,58.0,81.0
421,119.45897145,119.57601678750001,58.0,75.0
422,119.45897145,119.7998802,65.0,82.0
423,118.36806345000001,120.10897080000001,53.0,75.0
424,118.09533645,120.11237988750001,46.0,83.0
425,119.73169845000001,120.55669762500001,58.0,78.0
426,120.00442545000001,120.6464702625,61.0,70.0
427,120.82260645000001,120.98169720000001,58.0,79.0
428,121.09533345000001,121.279424175,58.0,82.0
429,121.09533345000001,121.2851059875,65.0,83.0
430,121.64078745,121.75556006250001,58.0,76.0
431,121.64078745,121.78965093750001,61.0,82.0
432,121.91351445000001,122.04987795000001,58.0,78.0
433,120.27715245,122.329423125,46.0,84.0
434,120.54987945,122.37146853750001,53.0,73.0
435,122.45896845000001,122.76919541250001,63.0,82.0
436,122.73169545,123.10442235000001,58.0,82.0
437,123.00442245,123.1737404625,63.0,82.0
438,123.27714945000001,123.64646726250001,67.0,77.0
439,123.27714945000001,123.64987635000001,58.0,78.0
440,123.82260345000002,123.95896695,58.0,79.0
441,122.45896845000001,124.09192136250002,51.0,84.0
442,123.82260345000002,124.1453304,63.0,83.0
443,124.09533045,124.25896665,58.0,81.0
444,124.64078445000001,124.84646606250001,60.0,76.0
445,124.64078445000001,124.84987515000002,65.0,82.0
446,125.18623845,125.34305647500001,53.0,77.0
447,124.91351145000002,125.58396532500001,48.0,68.0
448,125.45896545000001,125.64305617500001,53.0,68.0
449,125.45896545000001,125.8169196375,56.0,88.0
450,125.73169245000001,126.11351025,48.0,83.0
451,126.00441945000001,126.1998738,53.0,85.0
452,126.00441945000001,126.28964643750001,60.0,88.0
453,124.64078445000001,126.32373731250001,41.0,84.0
454,126.27714645,126.538509825,56.0,87.0
455,126.54987345,126.66464606250001,53.0,80.0
456,126.82260045000001,127.17032737500001,58.0,79.0
457,126.82260045000001,127.40100896250001,63.0,82.0
458,127.36805445000002,127.51919066250001,58.0,82.0
459,127.64078145,127.993053825,58.0,83.0
460,127.64078145,128.0328265125,63.0,85.0
461,127.09532745000001,128.52373511250002,46.0,69.0
462,128.18623545,128.55782598750002,58.0,80.0
463,126.82260045000001,128.56805325000002,39.0,83.0
464,128.45896245,128.69532585000002,63.0,84.0
465,129.00441645,129.302143425,58.0,75.0
466,129.00441645,129.60555221250002,61.0,79.0
467,129.54987045000001,129.6646430625,58.0,71.0
468,129.27714345,129.9373700625,53.0,73.0
469,129.82259745000002,130.0487335875,65.0,87.0
470,129.82259745000002,130.0919153625,58.0,82.0
471,130.36805145000002,130.4805513375,58.0,75.0
472,130.09532445000002,130.51691493750002,53.0,75.0
473,130.36805145000002,130.647596625,61.0,82.0
474,129.00441645,130.6850965875,46.0,83.0
475,130.64077845,130.9850962875,58.0,76.0
476,130.91350545,131.13964158750002,61.0,81.0
477,131.18623245,131.5180503,60.0,76.0
478,131.18623245,131.6123683875,65.0,82.0
479,131.73168645,131.9032771875,60.0,84.0
480,132.00441345000002,132.31577677500002,60.0,82.0
481,132.00441345000002,132.4260039375,68.0,71.0
482,132.54986745000002,132.86009441250002,65.0,82.0
483,131.45895945,132.89532165,48.0,68.0
484,131.18623245,132.9282761625,41.0,82.0
485,132.82259445,133.03850332500002,60.0,83.0
486,133.36804845,133.66463906250002,58.0,76.0
487,133.36804845,133.80895710000001,61.0,78.0
488,133.91350245,134.029411425,58.0,73.0
489,134.18622945,134.46463826250002,65.0,82.0
490,134.18622945,134.5055473125,58.0,82.0
491,134.73168345000002,134.8623651375,58.0,71.0
492,134.73168345000002,135.04986495,61.0,84.0
493,133.64077545,135.1123648875,53.0,74.0
494,133.36804845,135.1998648,46.0,79.0
495,135.00441045000002,135.333955575,58.0,81.0
496,135.27713745,135.44986455,61.0,77.0
497,135.54986445,135.8396368875,60.0,74.0
498,135.54986445,135.93736406250002,65.0,80.0
499,136.09531845,136.23622740000002,60.0,73.0
500,136.36804545,136.6623633375,60.0,82.0
501,136.36804545,136.7453178,68.0,79.0
502,136.91349945000002,137.0396356875,60.0,77.0
503,136.91349945000002,137.25895365000002,65.0,83.0
504,135.82259145,137.51918066250002,48.0,66.0
505,135.54986445,137.57372606250001,41.0,82.0
506,137.18622645000002,137.59758967500002,60.0,82.0
507,137.73168045,138.0509983125,58.0,73.0
508,137.73168045,138.3555434625,65.0,82.0
509,138.27713445,138.44986155,58.0,78.0
510,138.54986145,138.87940657500002,58.0,77.0
511,138.54986145,138.91804290000002,61.0,76.0
512,139.09531545000002,139.238497125,58.0,75.0
513,138.00440745,139.4805423375,53.0,69.0
514,139.09531545000002,139.4828150625,65.0,82.0
515,137.73168045,139.59076950000002,46.0,82.0
516,139.36804245000002,139.63963308750002,58.0,83.0
517,139.91349645000003,140.2259961375,56.0,71.0
518,139.91349645000003,140.51690493750002,60.0,79.0
519,140.45895045,140.81804100000002,56.0,74.0
520,140.73167745,141.102131625,60.0,82.0
521,140.18622345,141.36235863750002,48.0,69.0
522,141.27713145,141.497585775,56.0,78.0
523,139.91349645000003,141.77258550000002,41.0,83.0
524,141.54985845000002,141.78622185,48.0,71.0
525,141.27713145,141.8691763125,65.0,83.0
526,141.82258545000002,142.12826696250002,60.0,75.0
527,142.09531245000002,142.379403075,58.0,74.0
528,142.09531245000002,142.6634937,61.0,78.0
529,142.64076645,142.77712995000002,58.0,73.0
530,142.91349345,143.2237204125,65.0,83.0
531,142.91349345,143.26803855,58.0,76.0
532,142.36803945,143.52258375000002,53.0,70.0
533,143.45894745,143.80440165000002,58.0,77.0
534,143.45894745,144.102128625,61.0,83.0
535,144.00440145000002,144.233946675,58.0,84.0
536,143.73167445,144.279401175,53.0,84.0
537,142.09531245000002,144.29303752500002,46.0,82.0
538,144.27712845000002,144.29303752500002,46.0,84.0
539,144.27712845000002,144.61462811250001,58.0,77.0
540,144.27712845000002,144.71008256250002,61.0,76.0
541,144.82258245,144.95440050000002,58.0,75.0
542,144.54985545000002,145.224854775,53.0,71.0
543,145.09530945,145.33280921250002,58.0,85.0
544,145.09530945,145.34076375,65.0,84.0
545,145.64076345,145.724854275,58.0,72.0
546,145.64076345,145.88280866250003,61.0,77.0
547,145.91349045,146.07144483750002,58.0,73.0
548,145.36803645,146.09530845,53.0,80.0
549,146.45894445000002,146.738489625,58.0,70.0
550,146.45894445000002,146.761216875,61.0,73.0
551,147.00439845000002,147.1623528375,58.0,69.0
552,147.27712545,147.37598898750002,61.0,68.0
553,146.73167145000002,147.679397775,53.0,71.0
554,147.54985245,147.72598863750002,58.0,79.0
555,147.54985245,147.76348860000002,65.0,83.0
556,148.09530645,148.1396245875,58.0,62.0
557,147.82257945,148.16348820000002,53.0,77.0
558,146.45894445000002,148.25326083750002,46.0,83.0
559,148.09530645,148.44644246250002,61.0,82.0
560,148.36803345,148.5100787625,58.0,73.0
561,148.64076045000002,148.9441692375,56.0,76.0
562,148.64076045000002,149.211214425,60.0,75.0
563,149.18621445000002,149.338487025,56.0,71.0
564,149.45894145000003,149.54075955000002,60.0,59.0
565,148.91348745000002,149.80212292500002,48.0,68.0
566,149.73166845,149.920304625,56.0,83.0
567,149.73166845,149.988486375,65.0,85.0
568,148.64076045000002,150.197577075,41.0,83.0
569,150.00439545,150.21916796250002,48.0,75.0
570,150.27712245,150.338486025,56.0,71.0
571,150.27712245,150.4941676875,60.0,82.0
572,150.54984945,150.6759856875,56.0,70.0
573,150.82257645,151.1805306375,58.0,74.0
574,150.82257645,151.374848625,61.0,73.0
575,151.09530345000002,151.52825756250002,53.0,72.0
576,151.36803045000002,151.715757375,58.0,73.0
577,151.64075745000002,152.0191661625,53.0,74.0
578,151.91348445,152.1600751125,58.0,76.0
579,151.91348445,152.1987114375,65.0,84.0
580,151.91348445,152.20552961250002,61.0,78.0
581,150.82257645,152.55893835,46.0,83.0
582,152.18621145,152.574847425,53.0,74.0
583,152.45893845,152.615756475,58.0,85.0
584,153.00439245,153.3487102875,58.0,75.0
585,153.00439245,153.497573775,65.0,82.0
586,153.54984645000002,153.6873463125,58.0,84.0
587,153.82257345000002,154.14075495,61.0,81.0
588,153.82257345000002,154.16689128750002,58.0,81.0
589,154.36802745,154.4850727875,58.0,75.0
590,154.36802745,154.7089362,65.0,82.0
591,153.27711945000001,155.0180268,53.0,75.0
592,153.00439245,155.02143588750002,46.0,83.0
593,154.64075445,155.46575362500002,58.0,78.0
594,154.91348145,155.55552626250002,61.0,70.0
595,155.73166245000002,155.8907532,58.0,79.0
596,156.00438945000002,156.18848017500002,58.0,82.0
597,156.00438945000002,156.19416198750002,65.0,83.0
598,156.54984345000003,156.66461606250002,58.0,76.0
599,156.54984345000003,156.69870693750002,61.0,82.0
600,156.82257045,156.95893395000002,58.0,78.0
601,155.18620845,157.23847912500003,46.0,84.0
602,155.45893545,157.2805245375,53.0,73.0
603,157.36802445,157.6782514125,63.0,82.0
604,157.64075145,158.01347835,58.0,82.0
605,157.91347845,158.0827964625,63.0,82.0
606,158.18620545000002,158.5555232625,67.0,77.0
607,158.18620545000002,158.55893235000002,58.0,78.0
608,158.73165945000002,158.86802295,58.0,79.0
609,157.36802445,159.0009773625,51.0,84.0
610,158.73165945000002,159.0543864,63.0,83.0
611,159.00438645,159.16802265,58.0,81.0
612,159.54984045,159.7555220625,60.0,76.0
613,159.54984045,159.75893115000002,65.0,82.0
614,160.09529445,160.25211247500002,53.0,77.0
615,159.82256745,160.493021325,48.0,68.0
616,160.36802145000001,160.55211217500002,53.0,68.0
617,160.36802145000001,160.7259756375,56.0,88.0
618,160.64074845000002,161.02256625,48.0,83.0
619,160.91347545000002,161.1089298,53.0,85.0
620,160.91347545000002,161.1987024375,60.0,88.0
621,159.54984045,161.2327933125,41.0,84.0
622,161.18620245000002,161.44756582500003,56.0,87.0
623,161.45892945,161.57370206250002,53.0,80.0
624,161.73165645,162.07938337500002,58.0,79.0
625,161.73165645,162.3100649625,63.0,82.0
626,162.27711045,162.42824666250002,58.0,82.0
627,162.54983745,162.90210982500003,58.0,83.0
628,162.54983745,162.9418825125,63.0,85.0
629,162.00438345,163.4327911125,46.0,69.0
630,163.09529145000002,163.46688198750002,58.0,80.0
631,161.73165645,163.47710925,39.0,83.0
632,163.36801845000002,163.60438185,63.0,84.0
633,163.91347245,164.21119942500002,58.0,75.0
634,163.91347245,164.5146082125,61.0,79.0
635,164.45892645,164.57369906250003,58.0,71.0
636,164.18619945,164.8464260625,53.0,73.0
637,164.73165345,164.9577895875,65.0,87.0
638,164.73165345,165.00097136250002,58.0,82.0
639,165.27710745000002,165.38960733750002,58.0,75.0
640,165.00438045,165.4259709375,53.0,75.0
641,165.27710745000002,165.55665262500003,61.0,82.0
642,163.91347245,165.59415258750002,46.0,83.0
643,165.54983445000002,165.89415228750002,58.0,76.0
644,165.82256145000002,166.04869758750002,61.0,81.0
645,166.09528845000003,166.42710630000002,60.0,76.0
646,166.09528845000003,166.52142438750002,65.0,82.0
647,166.64074245,166.8123331875,60.0,84.0
648,166.91346945,167.224832775,60.0,82.0
649,166.91346945,167.3350599375,68.0,71.0
650,167.45892345000001,167.7691504125,65.0,82.0
651,166.36801545,167.80437765000002,48.0,68.0
652,166.09528845000003,167.83733216250002,41.0,82.0
653,167.73165045000002,167.94755932500001,60.0,83.0
654,168.27710445000002,168.5736950625,58.0,76.0
655,168.27710445000002,168.7180131,61.0,78.0
656,168.82255845,168.93846742500003,58.0,73.0
657,169.09528545,169.3736942625,65.0,82.0
658,169.09528545,169.41460331250002,58.0,82.0
659,169.64073945,169.77142113750003,58.0,71.0
660,169.64073945,169.95892095000002,61.0,84.0
661,168.54983145,170.0214208875,53.0,74.0
662,168.27710445000002,170.10892080000002,46.0,79.0
663,169.91346645000002,170.24301157500003,58.0,81.0
664,170.18619345000002,170.35892055000002,61.0,77.0
665,170.45892045000002,170.74869288750003,60.0,74.0
666,170.45892045000002,170.84642006250002,65.0,80.0
667,171.00437445,171.1452834,60.0,73.0
668,171.27710145,171.5714193375,60.0,82.0
669,171.27710145,171.6543738,68.0,79.0
670,171.82255545,171.9486916875,60.0,77.0
671,171.82255545,172.16800965000002,65.0,83.0
672,170.73164745000003,172.4282366625,48.0,66.0
673,170.45892045000002,172.4827820625,41.0,82.0
674,172.09528245,172.50664567500002,60.0,82.0
675,172.64073645000002,172.9600543125,58.0,73.0
676,172.64073645000002,173.2645994625,65.0,82.0
677,173.18619045000003,173.35891755,58.0,78.0
678,173.45891745,173.788462575,58.0,77.0
679,173.45891745,173.8270989,61.0,76.0
680,174.00437145,174.147553125,58.0,75.0
681,172.91346345000002,174.38959833750002,53.0,69.0
682,174.00437145,174.3918710625,65.0,82.0
683,172.64073645000002,174.49982550000001,46.0,82.0
684,174.27709845,174.5486890875,58.0,83.0
685,174.82255245000002,175.13505213750003,56.0,71.0
686,174.82255245000002,175.4259609375,60.0,79.0
687,175.36800645000002,175.72709700000001,56.0,74.0
688,175.64073345000003,176.01118762500002,60.0,82.0
689,175.09527945000002,176.27141463750002,48.0,69.0
690,176.18618745,176.40664177500003,56.0,78.0
691,174.82255245000002,176.6816415,41.0,83.0
692,176.45891445,176.69527785000002,48.0,71.0
693,176.18618745,176.77823231250002,65.0,83.0
694,176.73164145,177.0373229625,60.0,75.0
695,177.00436845000002,177.28845907500002,58.0,74.0
696,177.00436845000002,177.57254970000002,61.0,78.0
697,177.54982245000002,177.68618595,58.0,73.0
698,177.82254945000003,178.13277641250002,65.0,83.0
699,177.82254945000003,178.17709455000002,58.0,76.0
700,177.27709545000002,178.43163975000002,53.0,70.0
701,178.36800345,178.71345765,58.0,77.0
702,178.36800345,179.01118462500003,61.0,83.0
703,178.91345745,179.14300267500002,58.0,84.0
704,178.64073045,179.18845717500002,53.0,84.0
705,177.00436845000002,179.202093525,46.0,82.0
706,179.18618445,179.202093525,46.0,82.0
707,179.73163845000002,180.81004646250003,58.0,81.0
708,180.00436545000002,180.8236828125,61.0,72.0
709,179.45891145000002,181.1850460875,53.0,73.0
710,181.09527345,181.71004556250003,58.0,69.0
711,180.82254645,181.77709095,65.0,81.0
712,181.91345445000002,182.09754517500002,58.0,77.0
713,182.18618145000002,182.4179994,58.0,75.0
714,182.18618145000002,182.4270903,61.0,75.0
715,181.64072745,183.12595323750003,53.0,71.0
716,182.73163545000003,183.12936232500002,61.0,76.0
717,182.73163545000003,183.1327714125,65.0,78.0
718,181.36800045,183.19186226250002,46.0,78.0
719,183.00436245,183.20890770000003,58.0,66.0
720,183.54981645,183.8725434,56.0,69.0
721,183.54981645,184.15095221250002,60.0,72.0
722,184.09527045000002,185.01913316250003,56.0,77.0
723,183.82254345,185.23163295,48.0,65.0
724,183.54981645,185.30095106250002,41.0,80.0
725,184.91345145000003,185.3089056,65.0,69.0
726,185.18617845000003,185.66231433750002,56.0,78.0
727,184.36799745000002,185.670268875,60.0,74.0
728,186.27708645,186.6418588125,58.0,73.0
729,186.54981345000002,186.7600405125,61.0,77.0
730,187.09526745000002,187.37253990000002,61.0,75.0
731,187.09526745000002,187.40549441250002,65.0,77.0
732,187.36799445000003,187.5259488375,58.0,65.0
733,186.00435945,187.5543579,53.0,70.0
734,185.73163245,187.6691305125,46.0,81.0
735,187.91344845,188.49526605000003,65.0,79.0
736,188.45890245,188.8259475375,58.0,79.0
737,188.73162945,189.05094731250003,61.0,77.0
738,187.91344845,189.99412818750002,46.0,82.0
739,188.18617545,190.16799165,53.0,74.0
740,189.82253745000003,190.72594563750002,65.0,78.0
741,190.64071845,190.98730901250002,58.0,84.0
742,190.91344545,191.3282177625,61.0,82.0
743,191.45889945000002,191.8963990125,65.0,78.0
744,191.73162645000002,191.97026257500002,58.0,72.0
745,190.36799145,191.9850352875,53.0,73.0
746,190.09526445,192.03276251250003,46.0,78.0
747,192.27708045000003,192.7736708625,66.0,77.0
748,192.54980745,192.91571617500003,58.0,82.0
749,192.82253445,193.1441250375,63.0,77.0
750,193.09526145,193.70776083750002,66.0,75.0
751,192.27708045000003,193.888442475,51.0,78.0
752,193.64071545000002,193.97026057500003,63.0,75.0
753,194.45889645000003,195.1270776,68.0,74.0
754,195.00435045,195.492986325,60.0,83.0
755,195.27707745,195.59184986250003,65.0,86.0
756,194.73162345000003,195.8759404875,48.0,69.0
757,195.54980445,195.90207682500002,68.0,79.0
758,194.45889645000003,195.93162225,41.0,80.0
759,195.82253145,196.1145766125,65.0,76.0
760,196.09525845000002,196.2532128375,60.0,84.0
761,196.64071245000002,196.8827576625,58.0,73.0
762,196.64071245000002,197.15093921250002,63.0,77.0
763,197.18616645,197.55662062500002,58.0,83.0
764,197.45889345,197.9986656375,66.0,80.0
765,198.00434745,198.320256225,63.0,78.0
766,196.64071245000002,198.44525610000002,51.0,78.0
767,196.91343945000003,198.4600288125,54.0,73.0
768,198.27707445000001,198.48502878750003,58.0,76.0
769,198.82252845000002,199.38275516250002,61.0,75.0
770,199.36798245000003,200.25093611250003,58.0,80.0
771,200.18616345,200.5122994875,61.0,71.0
772,199.64070945,200.51684493750003,65.0,80.0
773,198.82252845000002,200.55661762500003,46.0,82.0
774,200.45889045,200.5645721625,58.0,78.0
775,199.09525545000002,200.59979940000002,53.0,71.0
776,201.00434445000002,201.16684428750003,60.0,74.0
777,201.00434445000002,201.3304804875,65.0,82.0
778,201.54979845000003,201.86684358750003,65.0,77.0
779,201.00434445000002,202.28729771250002,53.0,82.0
780,201.27707145000002,202.38047943750001,60.0,76.0
781,201.82252545000003,202.48047933750001,68.0,72.0
782,202.36797945,202.71343365,65.0,76.0
783,202.64070645,202.86797895,60.0,81.0
784,203.18616045000002,203.48729651250002,58.0,71.0
785,203.18616045000002,203.733887175,61.0,73.0
786,203.73161445000002,204.62479537500002,58.0,83.0
787,204.00434145000003,204.66570442500003,65.0,82.0
788,203.45888745000002,204.727068,53.0,75.0
789,203.18616045000002,204.78047703750002,46.0,82.0
790,204.54979545,204.86456786250002,61.0,84.0
791,204.82252245,205.39752187500002,58.0,83.0
792,205.36797645000001,205.9270668,60.0,68.0
793,205.91343045000002,206.42592993750003,53.0,86.0
794,206.18615745000002,206.77592958750003,56.0,83.0
795,206.73161145,207.29183816250003,60.0,77.0
796,205.36797645000001,207.29638361250002,41.0,82.0
797,205.64070345000002,207.2986563375,48.0,75.0
798,207.00433845,207.79183766250003,53.0,76.0
799,207.27706545,208.18047363750003,56.0,77.0
800,208.09524645000002,208.315700775,53.0,78.0
801,207.82251945000002,208.71910946250003,48.0,70.0
802,208.36797345000002,209.1543363,60.0,78.0
803,208.91342745000003,209.19069990000003,48.0,72.0
804,208.36797345000002,209.20433625,56.0,82.0
805,207.54979245,209.27365436250003,41.0,84.0
806,209.18615445,209.31797250000002,53.0,84.0
807,209.73160845,210.04638086250003,58.0,71.0
808,209.73160845,210.2691079125,61.0,77.0
809,210.27706245000002,210.95547086250002,58.0,77.0
810,210.54978945000002,210.974789025,65.0,83.0
811,211.09524345000003,211.34524320000003,61.0,76.0
812,209.73160845,211.6418338125,46.0,83.0
813,210.00433545,211.68842467500002,53.0,74.0
814,211.64069745,212.13956058750003,70.0,82.0
815,211.36797045000003,212.17706055000002,58.0,82.0
816,212.73160545000002,213.18842317500003,61.0,70.0
817,212.45887845000001,213.25546856250003,58.0,78.0
818,213.27705945000002,213.59751367500002,65.0,76.0
819,212.18615145,213.89410428750003,53.0,72.0
820,211.91342445,213.90887700000002,46.0,81.0
821,213.54978645000003,214.333876575,58.0,77.0
822,214.64069445,215.06001221250003,58.0,78.0
823,214.91342145000002,215.50319358750002,65.0,78.0
824,215.45887545000002,215.80205692500002,61.0,72.0
825,214.09524045,216.13614750000002,46.0,80.0
826,214.36796745,216.13728386250003,53.0,71.0
827,215.73160245000003,216.238420125,58.0,75.0
828,216.00432945000003,216.3452382,65.0,74.0
829,216.54978345,216.90887400000003,58.0,81.0
830,216.82251045,217.15205557500002,63.0,72.0
831,217.09523745,217.67023687500003,66.0,79.0
832,216.27705645,217.833873075,51.0,79.0
833,217.64069145000002,217.98614565000003,63.0,73.0
834,217.91341845000002,218.0600092125,58.0,78.0
835,218.45887245000003,219.0872809125,65.0,79.0
836,218.45887245000003,219.57932587500002,41.0,73.0
837,218.73159945,219.5940985875,48.0,70.0
838,219.00432645,219.89637101250003,60.0,83.0
839,219.27705345,219.90659827500002,68.0,78.0
840,219.82250745000002,220.165688925,65.0,79.0
841,220.09523445000002,220.42477957500003,60.0,80.0
842,220.36796145000002,220.53955218750002,65.0,72.0
843,220.64068845000003,221.2361424,61.0,74.0
844,221.18614245,221.57364206250003,58.0,72.0
845,221.45886945,222.07250520000002,65.0,82.0
846,222.00432345000002,222.31568677500002,61.0,83.0
847,220.91341545000003,222.50545931250002,53.0,69.0
848,220.64068845000003,222.59523195000003,46.0,77.0
849,222.27705045000002,223.13954958750003,58.0,77.0
850,223.36795845000003,224.00432145000002,58.0,84.0
851,223.64068545,224.2622757375,65.0,82.0
852,224.18613945,224.48727551250002,61.0,82.0
853,223.09523145000003,224.8634115,53.0,74.0
854,222.82250445000003,224.88386602500003,46.0,83.0
855,224.45886645000002,224.94409323750003,58.0,78.0
856,224.73159345000002,225.06000221250002,65.0,76.0
857,225.00432045000002,225.3179565,63.0,79.0
858,225.27704745000003,225.65886525000002,58.0,77.0
859,225.54977445000003,225.92136498750003,63.0,73.0
860,225.82250145,226.42022812500002,66.0,78.0
861,226.36795545,226.64181881250002,63.0,79.0
862,225.00432045000002,226.72704600000003,51.0,80.0
863,226.64068245,227.2668181875,58.0,83.0
864,227.18613645000002,227.73499953750002,63.0,78.0
865,228.00431745000003,228.4281806625,63.0,78.0
866,227.73159045000003,228.43613520000002,58.0,83.0
867,228.54977145,228.8599984125,63.0,81.0
868,227.45886345000002,228.90318018750003,46.0,67.0
869,227.18613645000002,228.96454376250003,39.0,83.0
870,228.82249845,229.17704355,58.0,77.0
871,229.09522545000002,229.38499788750002,63.0,76.0
872,229.36795245000002,229.9815882,65.0,83.0
873,229.91340645000002,230.2827242625,60.0,82.0
874,230.18613345000003,230.4997695,65.0,82.0
875,230.73158745,231.00317808750003,65.0,74.0
876,229.64067945000002,231.10545071250002,48.0,66.0
877,229.36795245000002,231.11340525000003,41.0,83.0
878,231.00431445,231.29181416250003,68.0,78.0
879,231.27704145,231.55885935,65.0,82.0
880,231.54976845000002,232.08499518750003,70.0,70.0
881,232.09522245000002,232.46794935000003,58.0,77.0
882,232.36794945000003,232.847494425,65.0,78.0
883,232.91340345000003,233.23272131250002,61.0,75.0
884,231.54976845000002,233.5804482375,46.0,82.0
885,231.82249545000002,233.72817536250002,53.0,72.0
886,233.18613045,233.87135703750002,58.0,76.0
887,233.73158445,234.320220225,65.0,81.0
888,234.27703845000002,235.0361286,58.0,80.0
889,234.54976545000002,235.16681028750003,65.0,78.0
890,233.73158445,235.7349915375,46.0,82.0
891,234.00431145000002,235.756582425,53.0,71.0
892,235.36794645,236.26453646250002,58.0,83.0
893,235.09521945000003,236.28726371250002,70.0,82.0
894,235.64067345,236.50317258750002,65.0,80.0
895,236.73158145000002,237.133853775,61.0,78.0
896,236.45885445000002,237.283853625,58.0,73.0
897,237.27703545000003,237.5622624375,65.0,78.0
898,237.54976245000003,237.77135313750003,58.0,82.0
899,235.91340045,237.93271661250003,46.0,82.0
900,236.18612745000001,237.94635296250001,53.0,72.0
901,238.09521645,238.36453436250002,58.0,68.0
902,238.09521645,238.6736249625,61.0,74.0
903,238.64067045000002,239.288397075,58.0,78.0
904,238.91339745000002,239.338397025,65.0,83.0
905,239.45885145000003,239.74066935000002,61.0,83.0
906,238.36794345,239.983850925,53.0,71.0
907,238.09521645,239.98498728750002,46.0,82.0
908,239.73157845000003,240.09294172500003,58.0,82.0
909,240.00430545000003,240.16225983750002,61.0,83.0
910,240.27703245,240.55771398750002,56.0,78.0
911,240.27703245,240.8213500875,60.0,81.0
912,240.82248645,241.17816791250002,56.0,84.0
913,241.09521345000002,241.61794020000002,63.0,80.0
914,241.64066745000002,241.96907621250003,60.0,78.0
915,240.54975945,242.30203042500003,51.0,70.0
916,240.27703245,242.33953038750002,44.0,75.0
917,241.91339445000003,242.5099847625,56.0,84.0
918,242.45884845,243.0145297125,60.0,79.0
919,243.00430245,243.67702905000002,56.0,83.0
920,243.27702945000001,243.68498358750003,60.0,82.0
921,243.82248345000002,243.85998341250001,60.0,68.0
922,242.73157545,244.01111962500002,51.0,68.0
923,242.45884845,244.31680113750002,44.0,82.0
924,243.82248345000002,244.38839197500002,63.0,81.0
925,244.09521045000002,244.62361901250003,56.0,84.0
926,244.36793745000003,245.02134588750002,60.0,76.0
927,245.18611845,245.524754475,53.0,82.0
928,245.45884545,245.9804358375,56.0,86.0
929,244.91339145,246.12361751250003,48.0,71.0
930,244.64066445000003,246.22248105000003,41.0,84.0
931,246.00429945000002,246.32361731250003,60.0,83.0
932,246.27702645000002,246.4077081375,53.0,84.0
933,246.82248045000003,247.11338925,58.0,73.0
934,246.82248045000003,247.40997986250002,61.0,78.0
935,247.36793445,247.56679788750003,58.0,78.0
936,247.64066145,248.20429725000002,65.0,83.0
937,248.18611545000002,248.48838787500003,61.0,82.0
938,247.09520745000003,248.6008877625,53.0,67.0
939,248.45884245000002,248.829296625,58.0,83.0
940,248.73156945000002,248.983841925,61.0,78.0
941,246.82248045000003,248.99861463750003,46.0,79.0
942,249.00429645000003,249.28270526250003,61.0,75.0
943,249.00429645000003,249.29634161250002,58.0,75.0
944,249.00429645000003,249.3395233875,65.0,84.0
945,249.54975045000003,249.65429580000003,58.0,83.0
946,249.27702345000003,249.97134093750003,53.0,74.0
947,249.82247745,250.17588618750003,70.0,84.0
948,249.82247745,250.25202247500002,58.0,83.0
949,250.09520445,250.50202222500002,53.0,82.0
950,250.36793145000001,250.72020382500003,58.0,79.0
951,250.36793145000001,250.77134013750003,61.0,83.0
952,250.36793145000001,250.95202177500002,65.0,86.0
953,249.00429645000003,251.0395216875,46.0,83.0
954,250.91338545000002,251.0554307625,58.0,78.0
955,250.64065845000002,251.07929437500002,53.0,82.0
956,251.18611245000002,251.52361211250002,58.0,77.0
957,251.18611245000002,251.61906656250002,61.0,76.0
958,251.73156645000003,251.86338450000002,58.0,75.0
959,251.45883945000003,252.13383877500002,53.0,71.0
960,252.00429345,252.24179321250003,58.0,85.0
961,252.00429345,252.24974775,65.0,84.0
962,252.54974745,252.63383827500002,58.0,72.0
963,252.54974745,252.79179266250003,61.0,77.0
964,252.82247445000002,252.98042883750003,58.0,73.0
965,252.27702045,253.00429245,53.0,80.0
966,251.18611245000002,253.0542924,46.0,84.0
967,253.36792845000002,253.64747362500003,58.0,70.0
968,253.36792845000002,253.670200875,61.0,73.0
969,253.91338245000003,254.0713368375,58.0,69.0
970,254.18610945000003,254.28497298750003,61.0,68.0
971,253.64065545000003,254.58838177500002,53.0,71.0
972,254.45883645,254.63497263750003,58.0,79.0
973,254.45883645,254.67247260000002,65.0,83.0
974,255.00429045,255.0486085875,58.0,62.0
975,254.73156345,255.07247220000002,53.0,77.0
976,253.36792845000002,255.16224483750003,46.0,83.0
977,255.00429045,255.35542646250002,61.0,82.0
978,255.27701745000002,255.41906276250003,58.0,73.0
979,255.54974445000002,255.8531532375,56.0,76.0
980,255.54974445000002,256.120198425,60.0,75.0
981,256.09519845,256.24747102500004,56.0,71.0
982,256.36792545000003,256.44974355,60.0,59.0
983,255.82247145000002,256.711106925,48.0,68.0
984,256.64065245,256.829288625,56.0,83.0
985,256.64065245,256.897470375,65.0,85.0
986,255.54974445000002,257.106561075,41.0,83.0
987,256.91337945000004,257.1281519625,48.0,75.0
988,257.18610645,257.24747002500004,56.0,71.0
989,257.18610645,257.40315168750004,60.0,82.0
990,257.45883345000004,257.5849696875,56.0,70.0
991,257.73156045,258.08951463750003,58.0,74.0
992,257.73156045,258.283832625,61.0,73.0
993,258.00428745,258.43724156250005,53.0,72.0
994,258.27701445,258.62474137500004,58.0,73.0
995,258.54974145,258.9281501625,53.0,74.0
996,258.82246845000003,259.06905911250004,58.0,76.0
997,258.82246845000003,259.1076954375,65.0,84.0
998,258.82246845000003,259.11451361250005,61.0,78.0
999,257.73156045,259.46792235000004,46.0,83.0
1000,259.09519545,259.483831425,53.0,74.0
1001,259.36792245000004,259.52474047500004,58.0,85.0
1002,259.91337645000004,260.25769428750004,58.0,75.0
1003,259.91337645000004,260.406557775,65.0,82.0
1004,260.45883045,260.5963303125,58.0,84.0
1005,260.73155745,261.04973895,61.0,81.0
1006,260.73155745,261.0758752875,58.0,81.0
1007,261.27701145000003,261.3940567875,58.0,75.0
1008,261.27701145000003,261.6179202,65.0,82.0
1009,260.18610345,261.9270108,53.0,75.0
1010,259.91337645000004,261.9304198875,46.0,83.0
1011,261.54973845,262.374737625,58.0,78.0
1012,261.82246545000004,262.4645102625,61.0,70.0
1013,262.64064645,262.79973720000004,58.0,79.0
1014,262.91337345,263.097464175,58.0,82.0
1015,262.91337345,263.1031459875,65.0,83.0
1016,263.45882745,263.5736000625,58.0,76.0
1017,263.45882745,263.6076909375,61.0,82.0
1018,263.73155445000003,263.86791795000005,58.0,78.0
1019,262.09519245,264.147463125,46.0,84.0
1020,262.36791945000004,264.18950853750005,53.0,73.0
1021,264.27700845000004,264.58723541250004,63.0,82.0
1022,264.54973545,264.92246235000005,58.0,82.0
1023,264.82246245000005,264.9917804625,63.0,82.0
1024,265.09518945,265.46450726250004,67.0,77.0
1025,265.09518945,265.46791635,58.0,78.0
1026,265.64064345,265.77700695000004,58.0,79.0
1027,264.27700845000004,265.90996136250004,51.0,84.0
1028,265.64064345,265.96337040000003,63.0,83.0
1029,265.91337045,266.07700665000004,58.0,81.0
1030,266.45882445,266.66450606250004,60.0,76.0
1031,266.45882445,266.66791515,65.0,82.0
1032,267.00427845,267.161096475,53.0,77.0
1033,266.73155145000004,267.402005325,48.0,68.0
1034,267.27700545000005,267.461096175,53.0,68.0
1035,267.27700545000005,267.6349596375,56.0,88.0
1036,267.54973245,267.93155025000004,48.0,83.0
1037,267.82245945,268.01791380000003,53.0,85.0
1038,267.82245945,268.10768643750004,60.0,88.0
1039,266.45882445,268.14177731250004,41.0,84.0
1040,268.09518645,268.356549825,56.0,87.0
1041,268.36791345,268.4826860625,53.0,80.0
1042,268.64064045000003,268.988367375,58.0,79.0
1043,268.64064045000003,269.21904896250004,63.0,82.0
1044,269.18609445000004,269.3372306625,58.0,82.0
1045,269.45882145,269.811093825,58.0,83.0
1046,269.45882145,269.85086651250003,63.0,85.0
1047,268.91336745,270.34177511250004,46.0,69.0
1048,270.00427545,270.37586598750005,58.0,80.0
1049,268.64064045000003,270.38609325000004,39.0,83.0
1050,270.27700245,270.51336585,63.0,84.0
1051,270.82245645,271.120183425,58.0,75.0
1052,270.82245645,271.4235922125,61.0,79.0
1053,271.36791045,271.48268306250003,58.0,71.0
1054,271.09518345000004,271.7554100625,53.0,73.0
1055,271.64063745000004,271.8667735875,65.0,87.0
1056,271.64063745000004,271.9099553625,58.0,82.0
1057,272.18609145000005,272.2985913375,58.0,75.0
1058,271.91336445,272.3349549375,53.0,75.0
1059,272.18609145000005,272.465636625,61.0,82.0
1060,270.82245645,272.5031365875,46.0,83.0
1061,272.45881845,272.8031362875,58.0,76.0
1062,272.73154545,272.9576815875,61.0,81.0
1063,273.00427245000003,273.3360903,60.0,76.0
1064,273.00427245000003,273.4304083875,65.0,82.0
1065,273.54972645000004,273.7213171875,60.0,84.0
1066,273.82245345,274.133816775,60.0,82.0
1067,273.82245345,274.2440439375,68.0,71.0
1068,274.36790745,274.6781344125,65.0,82.0
1069,273.27699945,274.71336165,48.0,68.0
1070,273.00427245000003,274.7463161625,41.0,82.0
1071,274.64063445000005,274.856543325,60.0,83.0
1072,275.18608845,275.48267906250004,58.0,76.0
1073,275.18608845,275.62699710000004,61.0,78.0
1074,275.73154245,275.84745142500003,58.0,73.0
1075,276.00426945000004,276.28267826250004,65.0,82.0
1076,276.00426945000004,276.3235873125,58.0,82.0
1077,276.54972345000004,276.68040513750003,58.0,71.0
1078,276.54972345000004,276.86790495,61.0,84.0
1079,275.45881545000003,276.9304048875,53.0,74.0
1080,275.18608845,277.0179048,46.0,79.0
1081,276.82245045,277.151995575,58.0,81.0
1082,277.09517745,277.26790455,61.0,77.0
1083,277.36790445,277.65767688750003,60.0,74.0
1084,277.36790445,277.7554040625,65.0,80.0
1085,277.91335845000003,278.0542674,60.0,73.0
1086,278.18608545,278.48040333750004,60.0,82.0
1087,278.18608545,278.5633578,68.0,79.0
1088,278.73153945,278.85767568750003,60.0,77.0
1089,278.73153945,279.07699365,65.0,83.0
1090,277.64063145,279.33722066250004,48.0,66.0
1091,277.36790445,279.39176606250004,41.0,82.0
1092,279.00426645000005,279.41562967500005,60.0,82.0
1093,279.54972045,279.86903831250004,58.0,73.0
1094,279.54972045,280.1735834625,65.0,82.0
1095,280.09517445,280.26790155000003,58.0,78.0
1096,280.36790145000003,280.697446575,58.0,77.0
1097,280.36790145000003,280.73608290000004,61.0,76.0
1098,280.91335545000004,281.05653712500003,58.0,75.0
1099,279.82244745,281.2985823375,53.0,69.0
1100,280.91335545000004,281.30085506250003,65.0,82.0
1101,279.54972045,281.4088095,46.0,82.0
1102,281.18608245,281.45767308750004,58.0,83.0
1103,281.73153645,282.04403613750003,56.0,71.0
1104,281.73153645,282.33494493750004,60.0,79.0
1105,282.27699045,282.63608100000005,56.0,74.0
1106,282.54971745,282.920171625,60.0,82.0
1107,282.00426345,283.18039863750005,48.0,69.0
1108,283.09517145,283.315625775,56.0,78.0
1109,281.73153645,283.59062550000004,41.0,83.0
1110,283.36789845000004,283.60426185,48.0,71.0
1111,283.09517145,283.6872163125,65.0,83.0
1112,283.64062545,283.94630696250005,60.0,75.0
1113,283.91335245000005,284.197443075,58.0,74.0
1114,283.91335245000005,284.4815337,61.0,78.0
1115,284.45880645,284.59516995,58.0,73.0
1116,284.73153345000003,285.0417604125,65.0,83.0
1117,284.73153345000003,285.08607855,58.0,76.0
1118,284.18607945,285.34062375,53.0,70.0
1119,285.27698745000004,285.62244165000004,58.0,77.0
1120,285.27698745000004,285.92016862500003,61.0,83.0
1121,285.82244145000004,286.051986675,58.0,84.0
1122,285.54971445,286.09744117500003,53.0,84.0
1123,283.91335245000005,286.11107752500004,46.0,82.0
1124,286.09516845,286.11107752500004,46.0,84.0
1125,286.09516845,286.43266811250004,58.0,77.0
1126,286.09516845,286.5281225625,61.0,76.0
1127,286.64062245,286.7724405,58.0,75.0
1128,286.36789545000005,287.04289477500004,53.0,71.0
1129,286.91334945,287.1508492125,58.0,85.0
1130,286.91334945,287.15880375,65.0,84.0
1131,287.45880345,287.54289427500004,58.0,72.0
1132,287.45880345,287.70084866250005,61.0,77.0
1133,287.73153045000004,287.88948483750005,58.0,73.0
1134,287.18607645000003,287.91334845,53.0,80.0
1135,288.27698445000004,288.556529625,58.0,70.0
1136,288.27698445000004,288.579256875,61.0,73.0
1137,288.82243845000005,288.9803928375,58.0,69.0
1138,289.09516545,289.1940289875,61.0,68.0
1139,288.54971145,289.49743777500004,53.0,71.0
1140,289.36789245,289.54402863750005,58.0,79.0
1141,289.36789245,289.5815286,65.0,83.0
1142,289.91334645,289.9576645875,58.0,62.0
1143,289.64061945000003,289.9815282,53.0,77.0
1144,288.27698445000004,290.0713008375,46.0,83.0
1145,289.91334645,290.26448246250004,61.0,82.0
1146,290.18607345000004,290.3281187625,58.0,73.0
1147,290.45880045,290.76220923750003,56.0,76.0
1148,290.45880045,291.02925442500003,60.0,75.0
1149,291.00425445,291.156527025,56.0,71.0
1150,291.27698145000005,291.35879955,60.0,59.0
1151,290.73152745000004,291.62016292500005,48.0,68.0
1152,291.54970845,291.738344625,56.0,83.0
1153,291.54970845,291.80652637500003,65.0,85.0
1154,290.45880045,292.015617075,41.0,83.0
1155,291.82243545,292.0372079625,48.0,75.0
1156,292.09516245000003,292.156526025,56.0,71.0
1157,292.09516245000003,292.3122076875,60.0,82.0
1158,292.36788945,292.4940256875,56.0,70.0
1159,292.64061645000004,292.9985706375,58.0,74.0
1160,292.64061645000004,293.192888625,61.0,73.0
1161,292.91334345,293.3462975625,53.0,72.0
1162,293.18607045000005,293.533797375,58.0,73.0
1163,293.45879745,293.8372061625,53.0,74.0
1164,293.73152445,293.9781151125,58.0,76.0
1165,293.73152445,294.01675143750003,65.0,84.0
1166,293.73152445,294.0235696125,61.0,78.0
1167,292.64061645000004,294.37697835,46.0,83.0
1168,294.00425145,294.392887425,53.0,74.0
1169,294.27697845,294.433796475,58.0,85.0
1170,294.82243245,295.1667502875,58.0,75.0
1171,294.82243245,295.31561377500003,65.0,82.0
1172,295.36788645,295.50538631250004,58.0,84.0
1173,295.64061345000005,295.95879495,61.0,81.0
1174,295.64061345000005,295.98493128750005,58.0,81.0
1175,296.18606745,296.3031127875,58.0,75.0
1176,296.18606745,296.52697620000004,65.0,82.0
1177,295.09515945000004,296.8360668,53.0,75.0
1178,294.82243245,296.83947588750004,46.0,83.0
1179,296.45879445,297.28379362500004,58.0,78.0
1180,296.73152145,297.37356626250005,61.0,70.0
1181,297.54970245000004,297.7087932,58.0,79.0
1182,297.82242945,298.00652017500005,58.0,82.0
1183,297.82242945,298.0122019875,65.0,83.0
1184,298.36788345,298.48265606250004,58.0,76.0
1185,298.36788345,298.51674693750005,61.0,82.0
1186,298.64061045,298.77697395,58.0,78.0
1187,297.00424845000003,299.056519125,46.0,84.0
1188,297.27697545,299.0985645375,53.0,73.0
1189,299.18606445,299.4962914125,63.0,82.0
1190,299.45879145000004,299.83151835,58.0,82.0
1191,299.73151845,299.9008364625,63.0,82.0
1192,300.00424545000004,300.3735632625,67.0,77.0
1193,300.00424545000004,300.37697235,58.0,78.0
1194,300.54969945000005,300.68606295,58.0,79.0
1195,299.18606445,300.8190173625,51.0,84.0
1196,300.54969945000005,300.87242640000005,63.0,83.0
1197,300.82242645,300.98606265,58.0,81.0
1198,301.36788045000003,301.5735620625,60.0,76.0
1199,301.36788045000003,301.57697115,65.0,82.0
1200,301.91333445000004,302.07015247500004,53.0,77.0
1201,301.64060745,302.311061325,48.0,68.0
1202,302.18606145,302.37015217500004,53.0,68.0
1203,302.18606145,302.5440156375,56.0,88.0
1204,302.45878845000004,302.84060625,48.0,83.0
1205,302.73151545,302.92696980000005,53.0,85.0
1206,302.73151545,303.0167424375,60.0,88.0
1207,301.36788045000003,303.0508333125,41.0,84.0
1208,303.00424245000005,303.265605825,56.0,87.0
1209,303.27696945,303.39174206250004,53.0,80.0
1210,303.54969645,303.897423375,58.0,79.0
1211,303.54969645,304.1281049625,63.0,82.0
1212,304.09515045,304.24628666250004,58.0,82.0
1213,304.36787745000004,304.720149825,58.0,83.0
1214,304.36787745000004,304.7599225125,63.0,85.0
1215,303.82242345000003,305.2508311125,46.0,69.0
1216,304.91333145000004,305.2849219875,58.0,80.0
1217,303.54969645,305.29514925,39.0,83.0
1218,305.18605845,305.42242185000003,63.0,84.0
1219,305.73151245,306.029239425,58.0,75.0
1220,305.73151245,306.33264821250003,61.0,79.0
1221,306.27696645000003,306.39173906250005,58.0,71.0
1222,306.00423945,306.6644660625,53.0,73.0
1223,306.54969345,306.7758295875,65.0,87.0
1224,306.54969345,306.8190113625,58.0,82.0
1225,307.09514745,307.2076473375,58.0,75.0
1226,306.82242045000004,307.24401093750004,53.0,75.0
1227,307.09514745,307.374692625,61.0,82.0
1228,305.73151245,307.41219258750004,46.0,83.0
1229,307.36787445000004,307.71219228750005,58.0,76.0
1230,307.64060145,307.86673758750004,61.0,81.0
1231,307.91332845000005,308.24514630000004,60.0,76.0
1232,307.91332845000005,308.3394643875,65.0,82.0
1233,308.45878245,308.6303731875,60.0,84.0
1234,308.73150945000003,309.04287277500003,60.0,82.0
1235,308.73150945000003,309.15309993750003,68.0,71.0
1236,309.27696345000004,309.58719041250004,65.0,82.0
1237,308.18605545,309.62241765000005,48.0,68.0
1238,307.91332845000005,309.65537216250004,41.0,82.0
1239,309.54969045,309.76559932500004,60.0,83.0
1240,310.09514445,310.3917350625,58.0,76.0
1241,310.09514445,310.5360531,61.0,78.0
1242,310.64059845,310.75650742500005,58.0,73.0
1243,310.91332545,311.1917342625,65.0,82.0
1244,310.91332545,311.23264331250004,58.0,82.0
1245,311.45877945,311.58946113750005,58.0,71.0
1246,311.45877945,311.77696095000005,61.0,84.0
1247,310.36787145000005,311.8394608875,53.0,74.0
1248,310.09514445,311.9269608,46.0,79.0
1249,311.73150645000004,312.061051575,58.0,81.0
1250,312.00423345,312.17696055000005,61.0,77.0
1251,312.27696045000005,312.56673288750005,60.0,74.0
1252,312.27696045000005,312.66446006250004,65.0,80.0
1253,312.82241445,312.96332340000004,60.0,73.0
1254,313.09514145,313.3894593375,60.0,82.0
1255,313.09514145,313.4724138,68.0,79.0
1256,313.64059545000003,313.7667316875,60.0,77.0
1257,313.64059545000003,313.98604965000004,65.0,83.0
1258,312.54968745,314.2462766625,48.0,66.0
1259,312.27696045000005,314.3008220625,41.0,82.0
1260,313.91332245,314.324685675,60.0,82.0
1261,314.45877645,314.7780943125,58.0,73.0
1262,314.45877645,315.0826394625,65.0,82.0
1263,315.00423045,315.17695755,58.0,78.0
1264,315.27695745,315.60650257500004,58.0,77.0
1265,315.27695745,315.6451389,61.0,76.0
1266,315.82241145,315.965593125,58.0,75.0
1267,314.73150345000005,316.20763833750004,53.0,69.0
1268,315.82241145,316.2099110625,65.0,82.0
1269,314.45877645,316.31786550000004,46.0,82.0
1270,316.09513845000004,316.3667290875,58.0,83.0
1271,316.64059245000004,316.95309213750005,56.0,71.0
1272,316.64059245000004,317.2440009375,60.0,79.0
1273,317.18604645000005,317.545137,56.0,74.0
1274,317.45877345,317.82922762500004,60.0,82.0
1275,316.91331945,318.0894546375,48.0,69.0
1276,318.00422745000003,318.224681775,56.0,78.0
1277,316.64059245000004,318.4996815,41.0,83.0
1278,318.27695445,318.51331785,48.0,71.0
1279,318.00422745000003,318.59627231250005,65.0,83.0
1280,318.54968145000004,318.8553629625,60.0,75.0
1281,318.82240845,319.10649907500004,58.0,74.0
1282,318.82240845,319.3905897,61.0,78.0
1283,319.36786245,319.50422595000003,58.0,73.0
1284,319.64058945000005,319.95081641250005,65.0,83.0
1285,319.64058945000005,319.99513455000005,58.0,76.0
1286,319.09513545000004,320.24967975000004,53.0,70.0
1287,320.18604345,320.53149765,58.0,77.0
1288,320.18604345,320.82922462500005,61.0,83.0
1289,320.73149745,320.96104267500004,58.0,84.0
1290,320.45877045000003,321.00649717500005,53.0,84.0
1291,318.82240845,321.020133525,46.0,82.0
1292,321.00422445000004,321.363315,60.0,83.0
1293,321.00422445000004,321.57126933750004,65.0,82.0
1294,321.54967845000004,321.92581443750004,60.0,88.0
1295,321.82240545,322.179223275,65.0,87.0
1296,322.36785945,322.55990471250004,60.0,80.0
1297,322.36785945,322.75876815000004,68.0,79.0
1298,321.27695145,322.788313575,48.0,66.0
1299,321.00422445000004,322.874677125,41.0,84.0
1300,322.64058645,322.96104067500005,65.0,82.0
1301,322.91331345000003,323.1008132625,60.0,79.0
1302,323.18604045,323.5076310375,58.0,68.0
1303,323.18604045,323.77240350000005,61.0,73.0
1304,323.73149445,323.9189942625,58.0,80.0
1305,323.45876745000004,324.10308498750004,53.0,75.0
1306,323.18604045,324.11217588750003,46.0,82.0
1307,324.00422145000005,324.429221025,58.0,75.0
1308,324.00422145000005,324.465584625,61.0,84.0
1309,324.54967545000005,324.5871754125,58.0,67.0
1310,324.54967545000005,325.03149315,61.0,82.0
1311,324.54967545000005,325.065584025,65.0,83.0
1312,324.81331155000004,325.25990201250005,58.0,84.0
1313,325.87808321250003,326.24626466250004,53.0,88.0
1314,326.14967385,326.5212643875,56.0,78.0
1315,326.44853718750005,327.10308198750005,60.0,77.0
1316,326.7099005625,327.75649042500004,65.0,78.0
1317,327.0087639,328.1269446,53.0,80.0
1318,325.62694710000005,328.41444431250005,48.0,81.0
1319,325.34853828750005,328.58035323750005,41.0,86.0
1320,327.33376357500003,328.99512555,56.0,81.0
1321,327.75535406250003,329.19853443750003,60.0,59.0
1322,330.27694245000004,331.35535046250004,58.0,81.0
1323,330.54966945,331.36898681250005,61.0,72.0
1324,330.00421545,331.7303500875,53.0,73.0
1325,329.73148845000003,331.74966825,46.0,82.0
1326,331.64057745,332.25534956250004,58.0,69.0
1327,331.36785045000005,332.32239495000005,65.0,81.0
1328,332.45875845,332.64284917500004,58.0,77.0
1329,332.73148545000004,332.96330340000003,58.0,75.0
1330,332.73148545000004,332.9723943,61.0,75.0
1331,332.18603145000003,333.6712572375,53.0,71.0
1332,333.27693945000004,333.67466632500003,61.0,76.0
1333,333.27693945000004,333.67807541250005,65.0,78.0
1334,331.91330445,333.7371662625,46.0,78.0
1335,333.54966645,333.75421170000004,58.0,66.0
1336,334.09512045,334.4178474,56.0,69.0
1337,334.09512045,334.69625621250003,60.0,72.0
1338,334.64057445000003,335.56443716250004,56.0,77.0
1339,334.36784745,335.77693695000005,48.0,65.0
1340,334.09512045,335.8462550625,41.0,80.0
1341,335.45875545,335.85420960000005,65.0,69.0
1342,335.73148245000004,336.20761833750004,56.0,78.0
1343,334.91330145,336.215572875,60.0,74.0
1344,336.78602685000004,337.1917082625,53.0,89.0
1345,337.0814811,337.27466272500004,56.0,88.0
1346,336.5144362125,337.6803441375,48.0,71.0
1347,336.22125468750005,337.733753175,41.0,82.0
1348,337.3996626,337.81784400000004,60.0,83.0
1349,337.66557142500005,337.9894347375,53.0,75.0
1350,337.97466202500004,338.07238920000003,56.0,77.0
1351,338.8917065625,340.66215933750004,58.0,69.0
1352,338.81784300000004,340.67125023750003,53.0,77.0
1353,338.97238830000003,340.701932025,61.0,75.0
1354,338.61897956250004,340.7030683875,46.0,80.0
1355,339.06443366250005,340.72238655,65.0,78.0
1356,339.1235245125,340.78602285000005,70.0,75.0
