,start,end,pitch,velocity
0,1.0847211375,3.6152741625,35.0,63.0
1,1.4180541375,3.8055517500000002,42.0,45.0
2,1.7513871375,3.9763849125000004,47.0,56.0
3,2.0847201375,4.4708288625,59.0,55.0
4,2.4180531375000003,4.930550625,66.0,77.0
5,2.4180531375000003,5.069439375,62.0,72.0
6,3.7513851375000002,5.3791612875000006,35.0,58.0
7,4.0847181375,5.4111057,42.0,36.0
8,4.4180511375,5.4736056375,47.0,42.0
9,5.0847171375,6.42777135,66.0,82.0
10,5.0847171375,6.480549075,62.0,41.0
11,4.7513841375000005,6.5208268125,59.0,47.0
12,7.4180481375000005,8.547213675,59.0,66.0
13,6.418049137500001,8.924991075000001,43.0,71.0
14,6.7513821375,9.119435325,50.0,63.0
15,7.0847151375,9.3652684125,55.0,81.0
16,8.7513801375,9.9097123125,59.0,56.0
17,7.7513811375,10.1597120625,62.0,79.0
18,7.7513811375,10.1666565,67.0,81.0
19,9.7513791375,10.586100525,55.0,82.0
20,9.0847131375,11.084711137500001,43.0,67.0
21,9.418046137500001,11.084711137500001,50.0,56.0
22,10.0847121375,11.084711137500001,59.0,64.0
23,10.4180451375,11.084711137500001,62.0,73.0
24,10.4180451375,11.084711137500001,67.0,75.0
25,11.084711137500001,11.5319329125,45.0,59.0
26,11.084711137500001,11.662488337500001,61.0,90.0
27,11.084711137500001,11.665266112500001,64.0,78.0
28,11.084711137500001,11.666655,57.0,76.0
29,12.751376137500001,13.791652875,59.0,75.0
30,11.7513771375,14.2555413,35.0,68.0
31,12.0847101375,14.465263312500001,42.0,38.0
32,12.4180431375,14.499985500000001,47.0,77.0
33,14.0847081375,15.2208181125,59.0,69.0
34,13.0847091375,15.4263734625,66.0,102.0
35,13.7513751375,15.5208178125,62.0,58.0
36,15.0847071375,15.9791506875,47.0,85.0
37,14.751374137500001,16.1319283125,42.0,66.0
38,14.418041137500001,16.2208171125,35.0,53.0
39,15.4180401375,16.4735946375,59.0,72.0
40,15.7513731375,16.8874831125,66.0,117.0
41,16.4180391375,17.1485939625,62.0,85.0
42,16.751372137500002,17.1958161375,59.0,81.0
43,17.7513711375,18.5569258875,55.0,95.0
44,18.0847041375,19.1097031125,59.0,88.0
45,17.084705137500002,19.538869350000002,43.0,83.0
46,17.4180381375,19.784702437500002,50.0,50.0
47,18.7513701375,20.3874796125,55.0,79.0
48,19.4180361375,20.424979575000002,59.0,81.0
49,18.4180371375,20.87220135,67.0,99.0
50,20.418035137500002,21.5888673,55.0,68.0
51,20.084702137500003,21.747200475,50.0,63.0
52,19.7513691375,21.83886705,43.0,85.0
53,21.0847011375,22.2735888375,67.0,61.0
54,19.0847031375,22.401366487500002,62.0,82.0
55,20.751368137500002,22.4124775875,59.0,67.0
56,23.418032137500003,23.8541428125,62.0,66.0
57,22.7513661375,23.8666428,54.0,92.0
58,23.0846991375,24.019420425,59.0,75.0
59,22.4180331375,24.8596973625,47.0,83.0
60,24.084698137500002,24.98330835,54.0,54.0
61,24.7513641375,25.120808212500002,59.0,62.0
62,23.751365137500002,25.1291415375,66.0,102.0
63,24.4180311375,25.1374748625,62.0,81.0
64,25.7513631375,26.602751175,59.0,78.0
65,26.751362137500003,27.002750775000003,59.0,78.0
66,25.4180301375,27.091639575000002,54.0,64.0
67,26.0846961375,27.148583962500002,62.0,76.0
68,25.0846971375,27.1708061625,47.0,75.0
69,27.418028137500002,27.7513611375,62.0,82.0
70,27.084695137500002,27.7513611375,66.0,107.0
71,26.4180291375,27.7513611375,71.0,117.0
72,28.7513601375,29.0985820125,61.0,67.0
73,28.0846941375,29.3235817875,52.0,73.0
74,28.4180271375,29.6874703125,57.0,77.0
75,27.7513611375,30.2763586125,45.0,83.0
76,29.4180261375,30.3763585125,52.0,54.0
77,30.084692137500003,30.431914012500002,57.0,71.0
78,29.7513591375,30.452747325,61.0,95.0
79,29.0846931375,30.4652473125,64.0,89.0
80,31.084691137500002,31.874968125000002,57.0,77.0
81,30.751358137500002,31.97219025,52.0,39.0
82,31.4180241375,32.0208013125,61.0,48.0
83,32.084690137500004,32.323578787500004,52.0,61.0
84,30.418025137500003,32.3708009625,45.0,74.0
85,31.7513571375,33.058300275,69.0,69.0
86,31.7513571375,33.065244712500004,64.0,70.0
87,32.4180231375,33.1124668875,61.0,61.0
88,33.7513551375,34.574965425,55.0,73.0
89,32.9180226375,35.4596867625,43.0,75.0
90,34.7513541375,35.538853350000004,55.0,48.0
91,33.4180221375,35.647186575,50.0,54.0
92,34.4180211375,35.7069087375,67.0,83.0
93,35.084687137500005,35.7207976125,62.0,62.0
94,34.0846881375,35.7402420375,59.0,57.0
95,36.7513521375,37.06107405,61.0,73.0
96,36.0846861375,37.295796037500004,52.0,48.0
97,37.4180181375,37.663851225,52.0,48.0
98,35.751353137500004,37.722184500000004,45.0,69.0
99,37.7513511375,38.397183825,61.0,96.0
100,37.0846851375,38.4291282375,64.0,97.0
101,36.4180191375,38.50551705,57.0,74.0
102,39.0846831375,39.894404550000004,50.0,93.0
103,38.4180171375,40.1596820625,38.0,72.0
104,38.751350137500005,40.163848725,45.0,79.0
105,40.0846821375,40.3555152,50.0,77.0
106,39.418016137500004,40.434681787500004,57.0,85.0
107,39.7513491375,41.012458987500004,66.0,112.0
108,40.7513481375,41.0207923125,57.0,66.0
109,40.4180151375,41.03884785,62.0,68.0
110,41.751347137500005,42.5888463,54.0,90.0
111,41.4180141375,43.0110681,49.0,40.0
112,41.0846811375,43.059679162500004,42.0,77.0
113,42.7513461375,43.158290175000005,54.0,73.0
114,42.418013137500004,43.713845175,61.0,67.0
115,42.0846801375,43.7207896125,58.0,68.0
116,43.084679137500004,43.759678462500005,66.0,92.0
117,44.4180111375,45.0985660125,59.0,96.0
118,44.7513441375,45.104121562500005,62.0,83.0
119,45.418010137500005,45.7791208875,59.0,89.0
120,45.7513431375,46.2443982,61.0,72.0
121,43.7513451375,46.295787037500006,47.0,79.0
122,46.084676137500004,46.4513424375,62.0,60.0
123,44.0846781375,46.473564637500004,54.0,82.0
124,45.0846771375,46.6152311625,66.0,100.0
125,47.4180081375,47.76106335,62.0,58.0
126,46.751342137500004,47.9596742625,54.0,60.0
127,47.0846751375,48.07217415,59.0,47.0
128,48.0846741375,48.431896012500005,54.0,77.0
129,46.4180091375,48.469395975000005,47.0,77.0
130,47.7513411375,49.0430065125,66.0,127.0
131,48.7513401375,49.091617575,59.0,81.0
132,48.418007137500005,49.09439535,62.0,93.0
133,49.751339137500004,50.516616150000004,57.0,81.0
134,50.0846721375,50.5957827375,61.0,78.0
135,50.4180051375,51.170782162500004,64.0,66.0
136,50.7513381375,51.270782062500004,57.0,70.0
137,49.084673137500005,51.5999484,45.0,79.0
138,49.4180061375,51.80550375,52.0,50.0
139,51.0846711375,52.497169725,61.0,72.0
140,50.4180051375,52.651336237500004,69.0,67.0
141,52.4180031375,52.7735583375,57.0,77.0
142,51.4180041375,53.191613475000004,64.0,58.0
143,52.084670137500005,53.27216895,52.0,41.0
144,53.418002137500004,53.754112912500005,52.0,51.0
145,51.7513371375,53.7846684375,45.0,61.0
146,52.751336137500004,53.791612875000006,61.0,83.0
147,53.0846691375,54.386056725,69.0,65.0
148,53.7513351375,54.4124455875,64.0,59.0
149,54.0846681375,54.4652233125,61.0,63.0
150,55.084667137500006,55.919388525,55.0,89.0
151,56.0846661375,56.33883255,55.0,55.0
152,55.4180001375,56.474943525,59.0,72.0
153,54.4180011375,56.6402211375,43.0,75.0
154,55.751333137500005,57.052720725,67.0,96.0
155,54.7513341375,57.074942925,50.0,68.0
156,56.417999137500004,57.1124428875,62.0,74.0
157,56.7513321375,57.13883175,59.0,82.0
158,58.0846641375,58.377719400000004,61.0,90.0
159,57.4179981375,58.5596636625,52.0,63.0
160,57.7513311375,58.840218937500005,57.0,77.0
161,57.084665137500004,59.14994085,45.0,66.0
162,58.751330137500005,59.192996362500004,52.0,52.0
163,59.0846631375,59.769384675000005,61.0,90.0
164,58.4179971375,59.769384675000005,64.0,99.0
165,59.417996137500005,59.777718,57.0,81.0
166,60.4179951375,61.1957721375,59.0,63.0
167,60.7513281375,61.21660545,62.0,51.0
168,60.084662137500004,61.2541054125,54.0,70.0
169,61.4179941375,61.87216035,54.0,71.0
170,59.7513291375,62.136048975,47.0,79.0
171,61.0846611375,62.13882675,66.0,107.0
172,62.0846601375,62.3652154125,62.0,81.0
173,62.417993137500005,63.648547462500005,66.0,107.0
174,62.417993137500005,63.6791029875,63.0,93.0
175,61.751327137500006,63.89438055,59.0,86.0
176,62.417993137500005,63.9846582375,47.0,76.0
177,64.0846581375,64.5666021,47.0,90.0
178,63.751325137500004,64.6124353875,66.0,122.0
179,63.751325137500004,64.6318798125,63.0,117.0
180,64.4179911375,65.063823825,59.0,102.0
181,64.7513241375,65.069379375,63.0,112.0
182,64.7513241375,65.08326825,66.0,127.0
183,65.4179901375,65.8568785875,55.0,95.0
184,65.5846566375,66.0221562,59.0,70.0
185,65.9179896375,66.1374338625,55.0,76.0
186,65.75132313750001,66.1735449375,62.0,89.0
187,66.2513226375,66.42771135000001,55.0,70.0
188,66.0846561375,66.5110446,59.0,82.0
189,66.5846556375,66.7929887625,55.0,77.0
190,66.4179891375,66.93465528750001,67.0,97.0
191,66.9179886375,67.147155075,55.0,59.0
192,66.7513221375,67.2263216625,59.0,66.0
193,67.2513216375,67.3790992875,55.0,69.0
194,65.0846571375,67.58465463750001,43.0,89.0
195,65.25132363750001,67.63465458750001,50.0,97.0
196,67.4179881375,67.66243233750001,62.0,77.0
197,67.08465513750001,67.6652101125,67.0,92.0
198,67.58465463750001,67.7402100375,59.0,93.0
199,68.08465413750001,68.3735427375,57.0,82.0
200,68.2513206375,68.4068760375,61.0,78.0
201,67.9179876375,68.4985426125,52.0,77.0
202,67.7513211375,68.96659770000001,45.0,76.0
203,68.5846536375,69.0777087,52.0,59.0
204,68.91798663750001,69.102708675,57.0,76.0
205,68.7513201375,69.1207642125,61.0,95.0
206,68.4179871375,69.2846529375,64.0,97.0
207,69.41798613750001,69.8013190875,52.0,66.0
208,69.0846531375,69.963818925,45.0,75.0
209,69.91798563750001,69.9777078,52.0,37.0
210,69.7513191375,70.32076301250001,64.0,102.0
211,70.0846521375,70.3624296375,61.0,102.0
212,70.2513186375,70.4068740375,57.0,82.0
213,70.75131813750001,71.1624288375,54.0,92.0
214,70.9179846375,71.19992880000001,57.0,74.0
215,70.4179851375,71.6457616875,42.0,77.0
216,70.5846516375,71.67631721250001,49.0,48.0
217,71.25131763750001,72.013816875,54.0,76.0
218,71.0846511375,72.236038875,66.0,112.0
219,71.4179841375,72.2457610875,61.0,76.0
220,71.5846506375,72.27909438750001,57.0,86.0
221,72.0846501375,72.65687178750001,49.0,35.0
222,72.58464963750001,72.66103845,54.0,82.0
223,71.75131713750001,72.7179828375,42.0,89.0
224,72.4179831375,73.0152047625,66.0,117.0
225,72.7513161375,73.024926975,61.0,96.0
226,72.9179826375,73.0777047,57.0,90.0
227,73.4179821375,73.8179817375,52.0,73.0
228,73.58464863750001,73.88325945,56.0,56.0
229,73.7513151375,74.202703575,59.0,47.0
230,74.0846481375,74.608258725,52.0,78.0
231,74.4179811375,74.7790918875,56.0,81.0
232,73.08464913750001,75.14298041250001,40.0,75.0
233,74.4179811375,75.14436930000001,59.0,73.0
234,73.2513156375,75.1554804,47.0,71.0
235,74.7513141375,75.1554804,52.0,82.0
236,75.0846471375,75.4874245125,56.0,112.0
237,74.4179811375,75.686035425,64.0,79.0
238,75.41798013750001,75.7040909625,59.0,69.0
239,76.0846461375,76.5124234875,55.0,90.0
240,76.75131213750001,77.10547845,55.0,72.0
241,75.9179796375,77.2818671625,50.0,78.0
242,76.4179791375,77.60131128750001,67.0,92.0
243,77.0846451375,77.62770015000001,62.0,95.0
244,76.2513126375,77.69436675,59.0,72.0
245,77.4179781375,77.797144425,50.0,66.0
246,77.7513111375,78.136032975,62.0,97.0
247,75.7513131375,78.1513107375,43.0,88.0
248,78.0846441375,78.3235327875,59.0,96.0
249,77.9179776375,78.3485327625,50.0,72.0
250,77.7513111375,78.38464383750001,67.0,99.0
251,78.2513106375,78.4124215875,62.0,70.0
252,78.7513101375,79.22769855,52.0,67.0
253,79.08464313750001,79.6540870125,61.0,112.0
254,79.4179761375,79.9290867375,52.0,72.0
255,80.0846421375,80.347141875,52.0,53.0
256,78.4179771375,80.41797513750001,45.0,83.0
257,79.7513091375,80.5068639375,61.0,112.0
258,79.7513091375,80.913807975,64.0,92.0
259,80.7513081375,81.06103005,61.0,50.0
260,80.41797513750001,81.1318633125,57.0,96.0
261,81.41797413750001,82.4957508375,54.0,83.0
262,82.5846396375,82.7901949875,54.0,85.0
263,81.7513071375,82.8151949625,57.0,95.0
264,82.4179731375,83.1151946625,66.0,117.0
265,82.0846401375,83.1374168625,61.0,107.0
266,81.0846411375,83.33186111250001,42.0,117.0
267,83.0846391375,83.41658325,57.0,95.0
268,83.7513051375,84.363804525,61.0,107.0
269,83.7513051375,84.38186006250001,59.0,102.0
270,84.4179711375,84.46241553750001,61.0,43.0
271,83.5846386375,84.9443595,42.0,99.0
272,84.7513041375,85.019359425,61.0,117.0
273,84.4179711375,85.0554705,54.0,90.0
274,85.08463713750001,85.64991435,61.0,127.0
275,85.08463713750001,85.6568587875,58.0,127.0
276,85.08463713750001,85.69435875,54.0,81.0
277,85.08463713750001,86.0040806625,46.0,117.0
278,85.7513031375,86.363802525,58.0,107.0
279,86.0846361375,86.380469175,54.0,112.0
280,85.7513031375,86.4013024875,61.0,112.0
281,87.0846351375,87.32352378750001,62.0,97.0
282,87.0846351375,87.336023775,59.0,66.0
283,87.0846351375,87.3401904375,66.0,102.0
284,86.91796863750001,87.6874123125,54.0,73.0
285,87.4179681375,88.263800625,66.0,95.0
286,87.4179681375,88.269356175,59.0,83.0
287,87.4179681375,88.269356175,62.0,90.0
288,86.41796913750001,88.95685548750001,47.0,88.0
289,88.25130063750001,89.008244325,54.0,82.0
290,88.75130013750001,89.3929661625,59.0,90.0
291,88.4179671375,89.3929661625,66.0,107.0
292,88.4179671375,89.40685503750001,62.0,95.0
293,89.7512991375,89.9235211875,59.0,88.0
294,89.0846331375,89.9665767,47.0,92.0
295,89.7512991375,90.0124099875,62.0,89.0
296,89.7512991375,90.0124099875,66.0,96.0
297,89.58463263750001,90.23185421250001,54.0,93.0
298,90.08463213750001,90.75963146250001,59.0,90.0
299,90.08463213750001,90.902686875,62.0,81.0
300,90.08463213750001,90.93463128750001,66.0,88.0
301,90.9179646375,91.097131125,54.0,93.0
302,91.2512976375,91.4235196875,54.0,93.0
303,91.0846311375,91.4568529875,62.0,99.0
304,90.4179651375,91.53879735000001,47.0,89.0
305,91.0846311375,91.68324165,66.0,112.0
306,91.5846306375,91.7235193875,62.0,77.0
307,91.41796413750001,91.730463825,59.0,107.0
308,91.7512971375,92.94851816250001,45.0,88.0
309,92.2512966375,93.0540736125,52.0,79.0
310,92.7512961375,93.45129543750001,57.0,97.0
311,92.41796313750001,93.5429620125,61.0,100.0
312,92.41796313750001,93.54573978750001,64.0,90.0
313,93.5846286375,93.77351733750001,52.0,99.0
314,93.0846291375,94.2985168125,45.0,99.0
315,93.9179616375,94.33046122500001,52.0,95.0
316,94.25129463750001,94.40129448750001,57.0,86.0
317,94.0846281375,94.4096278125,61.0,102.0
318,93.75129513750001,94.441572225,64.0,92.0
319,95.08462713750001,95.50823782500001,61.0,102.0
320,94.4179611375,95.597126625,45.0,93.0
321,94.9179606375,95.74990425,52.0,86.0
322,95.4179601375,95.81657085,57.0,96.0
323,95.08462713750001,95.9554596,64.0,85.0
324,96.2512926375,96.4540702125,52.0,78.0
325,96.58462563750001,96.697125525,52.0,83.0
326,96.4179591375,96.71656995000001,61.0,99.0
327,95.7512931375,96.7457365875,45.0,96.0
328,96.7512921375,97.0540696125,57.0,93.0
329,96.4179591375,97.07212515,64.0,92.0
330,96.9179586375,97.0790695875,61.0,102.0
331,97.0846251375,98.30545725,43.0,90.0
332,97.5846246375,98.4346237875,50.0,88.0
333,98.0846241375,98.54573478750001,55.0,96.0
334,97.7512911375,98.64851246250001,59.0,89.0
335,97.7512911375,98.69990130000001,62.0,89.0
336,98.9179566375,99.08323425,50.0,89.0
337,99.0846231375,99.45406721250001,59.0,88.0
338,98.41795713750001,99.4554561,43.0,82.0
339,99.4179561375,99.68323365,55.0,97.0
340,99.0846231375,99.6887892,62.0,88.0
341,99.5846226375,99.7068447375,59.0,78.0
342,99.25128963750001,99.72351138750001,50.0,85.0
343,99.75128913750001,100.813788075,45.0,93.0
344,100.25128863750001,100.9457323875,52.0,86.0
345,100.7512881375,101.03601007500001,57.0,93.0
346,100.4179551375,101.0485100625,64.0,88.0
347,100.4179551375,101.0651767125,61.0,100.0
348,101.08462113750001,101.8540648125,45.0,92.0
349,101.58462063750001,101.8554537,52.0,68.0
350,102.08462013750001,102.31656435000001,45.0,79.0
351,101.7512871375,102.3554532,64.0,85.0
352,101.7512871375,102.39017538750001,61.0,100.0
353,102.4179531375,103.5540631125,38.0,86.0
354,102.91795263750001,103.64572968750001,45.0,56.0
355,103.0846191375,103.82350728750001,62.0,96.0
356,103.41795213750001,103.82767395,57.0,93.0
357,103.0846191375,103.863785025,66.0,107.0
358,103.7512851375,104.4596177625,38.0,90.0
359,104.2512846375,104.52767325,45.0,81.0
360,104.4179511375,104.97767280000001,62.0,96.0
361,104.75128413750001,105.0540616125,57.0,99.0
362,104.4179511375,105.0707282625,66.0,112.0
363,105.75128313750001,106.036005075,61.0,112.0
364,105.75128313750001,106.1485049625,66.0,97.0
365,106.0846161375,106.1596160625,61.0,50.0
366,105.0846171375,106.3096159125,42.0,100.0
367,105.5846166375,106.32767145000001,54.0,86.0
368,106.25128263750001,106.386004725,61.0,56.0
369,106.0846161375,106.3873936125,58.0,112.0
370,106.9179486375,107.14989285,54.0,96.0
371,106.4179491375,107.31378157500001,42.0,100.0
372,107.2512816375,107.4012814875,54.0,96.0
373,107.08461513750001,107.441559225,61.0,117.0
374,107.4179481375,107.66378122500001,58.0,122.0
375,107.08461513750001,107.674892325,66.0,112.0
376,107.58461463750001,107.719336725,61.0,85.0
377,107.7512811375,108.9790576875,47.0,70.0
378,108.2512806375,109.024890975,54.0,76.0
379,108.7512801375,109.31655735000001,59.0,90.0
380,108.41794713750001,109.5818348625,62.0,88.0
381,108.41794713750001,109.5901681875,66.0,93.0
382,109.0846131375,110.32350078750001,47.0,73.0
383,109.5846126375,110.4096118125,54.0,81.0
384,110.0846121375,110.4651673125,59.0,83.0
385,109.7512791375,110.55127833750001,66.0,100.0
386,109.7512791375,110.580444975,62.0,93.0
387,110.4179451375,111.5846106375,47.0,78.0
388,110.9179446375,111.774888225,54.0,68.0
389,111.4179441375,112.25544330000001,59.0,92.0
390,111.0846111375,112.2623877375,62.0,93.0
391,111.0846111375,112.2651655125,66.0,107.0
392,112.2512766375,112.4123875875,54.0,92.0
393,112.4179431375,112.4623875375,55.0,38.0
394,111.75127713750001,112.75683168750001,47.0,85.0
395,112.4179431375,113.052664725,66.0,117.0
396,112.4179431375,113.05822027500001,62.0,96.0
397,112.7512761375,113.1151646625,59.0,93.0
398,113.08460913750001,114.3012745875,45.0,73.0
399,113.58460863750001,114.44433000000001,52.0,63.0
400,114.0846081375,114.597107625,57.0,85.0
401,113.7512751375,114.86655180000001,64.0,93.0
402,113.7512751375,114.88321845,61.0,102.0
403,114.91794063750001,115.14432930000001,52.0,59.0
404,115.0846071375,115.4262734625,61.0,112.0
405,114.41794113750001,115.602662175,45.0,82.0
406,115.41794013750001,115.652662125,59.0,83.0
407,115.2512736375,115.69293986250001,52.0,72.0
408,115.0846071375,115.8873841125,64.0,92.0
409,115.5846066375,115.930439625,61.0,58.0
410,115.75127313750001,116.95682748750001,45.0,92.0
411,116.25127263750001,117.035994075,52.0,67.0
412,116.75127213750001,117.12627176250001,57.0,85.0
413,116.4179391375,117.1665495,61.0,112.0
414,116.4179391375,117.18043837500001,64.0,86.0
415,117.75127113750001,117.93321540000001,61.0,100.0
416,117.58460463750001,117.9679375875,52.0,76.0
417,117.0846051375,118.00265977500001,45.0,86.0
418,117.9179376375,118.319326125,57.0,82.0
419,118.08460413750001,118.35682608750001,64.0,93.0
420,118.2512706375,118.4151593625,61.0,92.0
421,118.4179371375,119.6554359,43.0,78.0
422,119.58460263750001,119.72765805,55.0,73.0
423,118.9179366375,119.7318247125,50.0,55.0
424,119.4179361375,119.74988025,59.0,63.0
425,119.08460313750001,119.7846024375,62.0,100.0
426,120.2512686375,120.4568239875,50.0,65.0
427,119.7512691375,120.8818235625,43.0,85.0
428,120.7512681375,121.035990075,59.0,75.0
429,120.41793513750001,121.04154562500001,62.0,99.0
430,120.5846016375,121.06654560000001,50.0,76.0
431,120.91793463750001,121.09571223750001,55.0,83.0
432,121.0846011375,122.31654435,45.0,92.0
433,121.5846006375,122.39987760000001,52.0,52.0
434,122.25126663750001,122.4623775375,57.0,68.0
435,121.75126713750001,122.4651553125,64.0,96.0
436,122.0846001375,122.469321975,61.0,78.0
437,122.4179331375,123.40682103750001,45.0,79.0
438,123.0845991375,123.6373763625,61.0,112.0
439,123.0845991375,123.641543025,64.0,96.0
440,122.9179326375,123.6998763,52.0,58.0
441,123.4179321375,123.71654295,57.0,107.0
442,124.08459813750001,124.619319825,54.0,63.0
443,124.9179306375,125.030430525,54.0,13.0
444,123.7512651375,125.03459718750001,47.0,86.0
445,124.7512641375,125.230430325,59.0,88.0
446,124.4179311375,125.2568191875,62.0,86.0
447,124.4179311375,125.3040413625,66.0,86.0
448,125.41793013750001,125.83737416250001,54.0,76.0
449,125.5845966375,125.8776519,59.0,82.0
450,125.08459713750001,126.29292926250001,47.0,95.0
451,125.91792963750001,126.380429175,54.0,79.0
452,125.7512631375,126.39570693750001,66.0,117.0
453,126.0845961375,126.4262624625,62.0,86.0
454,126.2512626375,126.4332069,59.0,92.0
455,126.91792863750001,127.1373728625,59.0,74.0
456,127.25126163750001,127.4290392375,62.0,63.0
457,127.0845951375,127.61931682500001,66.0,117.0
458,126.41792913750001,127.6332057,47.0,82.0
459,126.7512621375,127.7332056,54.0,77.0
460,127.4179281375,127.758205575,59.0,90.0
461,127.5845946375,127.77765000000001,62.0,73.0
462,128.2512606375,128.452649325,59.0,68.0
463,128.0845941375,128.52070481250001,54.0,92.0
464,127.75126113750001,128.6429269125,47.0,81.0
465,128.41792713750002,128.6554269,66.0,122.0
466,128.5845936375,128.7290379375,62.0,70.0
467,128.7512601375,128.7901489875,66.0,26.0
468,128.91792663750002,129.06098205,62.0,76.0
469,128.7512601375,129.0818153625,59.0,85.0
470,129.5845926375,129.852647925,57.0,70.0
471,129.91792563750002,130.1151476625,61.0,76.0
472,129.7512591375,130.169314275,64.0,90.0
473,129.0845931375,130.3290363375,45.0,86.0
474,130.0845921375,130.34986965000002,57.0,76.0
475,130.2512586375,130.42070291250002,61.0,89.0
476,129.41792613750002,130.42625846250002,52.0,68.0
477,130.9179246375,131.1776466,57.0,76.0
478,131.2512576375,131.469312975,61.0,85.0
479,131.0845911375,131.5068129375,64.0,89.0
480,130.4179251375,131.52625736250002,45.0,77.0
481,131.4179241375,131.6443128,57.0,92.0
482,130.7512581375,131.7179238375,52.0,67.0
483,131.5845906375,131.7443127,61.0,93.0
484,132.2512566375,132.469311975,57.0,82.0
485,132.4179231375,132.71097840000002,64.0,93.0
486,132.58458963750002,132.7512561375,61.0,96.0
487,131.7512571375,132.9734781375,45.0,90.0
488,132.7512561375,132.9929225625,57.0,90.0
489,132.08459013750002,133.0665336,52.0,74.0
490,132.9179226375,133.0734780375,64.0,88.0
491,133.58458863750002,133.8068106375,57.0,79.0
492,133.4179221375,133.8998661,52.0,68.0
493,133.08458913750002,133.93875495,45.0,89.0
494,133.7512551375,133.94986605,61.0,88.0
495,134.0845881375,134.3234767875,61.0,97.0
496,133.9179216375,134.34014343750002,64.0,97.0
497,134.2512546375,134.4040322625,57.0,96.0
498,134.9179206375,135.1568092875,55.0,72.0
499,135.2512536375,135.4318090125,59.0,79.0
500,135.0845871375,135.64986435,62.0,99.0
501,135.4179201375,135.658197675,55.0,93.0
502,134.4179211375,135.66097545,43.0,90.0
503,134.7512541375,135.7123642875,50.0,71.0
504,135.5845866375,135.75125313750002,59.0,71.0
505,136.25125263750002,136.53041902500001,55.0,75.0
506,136.4179191375,136.69430775,62.0,57.0
507,136.5845856375,136.80402986250002,59.0,71.0
508,135.75125313750002,136.8456964875,43.0,78.0
509,136.0845861375,137.002640775,50.0,61.0
510,136.75125213750002,137.03875185,55.0,93.0
511,137.5845846375,137.8679176875,55.0,70.0
512,137.75125113750002,137.919306525,59.0,64.0
513,137.9179176375,138.2318062125,62.0,92.0
514,137.0845851375,138.252639525,43.0,85.0
515,138.0845841375,138.3484727625,59.0,90.0
516,137.4179181375,138.3818060625,50.0,69.0
517,138.2512506375,138.452639325,55.0,93.0
518,138.7512501375,139.13319420000002,50.0,70.0
519,138.4179171375,139.1540275125,43.0,81.0
520,138.9179166375,139.169305275,55.0,78.0
521,139.0845831375,139.22763855,59.0,90.0
522,139.41791613750001,139.68319365,59.0,92.0
523,139.2512496375,139.7040269625,62.0,95.0
524,139.5845826375,139.7109714,55.0,93.0
525,140.2512486375,140.4484706625,50.0,77.0
526,139.7512491375,140.9109702,38.0,82.0
527,140.0845821375,141.030414525,45.0,88.0
528,140.5845816375,141.0540256125,50.0,69.0
529,140.41791513750002,141.12069221250002,66.0,93.0
530,140.7512481375,141.3401364375,62.0,72.0
531,140.91791463750002,141.5151362625,57.0,78.0
532,141.5845806375,141.82902483750001,57.0,85.0
533,141.41791413750002,141.8984692125,50.0,86.0
534,141.9179136375,142.13874675,62.0,76.0
535,140.91791463750002,142.20541335000001,38.0,77.0
536,142.0845801375,142.2873577125,57.0,93.0
537,141.9179136375,142.29430215,50.0,47.0
538,141.7512471375,142.29430215,66.0,112.0
539,142.2512466375,142.369302075,62.0,75.0
540,142.7512461375,142.90541265000002,58.0,79.0
541,142.7512461375,142.92624596250002,61.0,78.0
542,142.7512461375,142.9443015,54.0,88.0
543,142.7512461375,142.947079275,42.0,93.0
544,143.08457913750001,143.2568011875,58.0,102.0
545,143.08457913750001,143.2706900625,61.0,95.0
546,143.08457913750001,143.28180116250002,54.0,95.0
547,143.08457913750001,143.297078925,42.0,95.0
548,143.4179121375,143.5443009,58.0,117.0
549,143.4179121375,143.563745325,61.0,102.0
550,143.4179121375,143.5706897625,54.0,102.0
551,143.4179121375,143.580411975,42.0,95.0
552,145.4179101375,145.79568753750002,55.0,72.0
553,145.5845766375,145.84290971250002,59.0,62.0
554,145.9179096375,146.09013168750002,55.0,77.0
555,145.08457713750002,146.31652035000002,43.0,75.0
556,145.7512431375,146.39568693750002,67.0,86.0
557,146.0845761375,146.4067980375,62.0,81.0
558,145.2512436375,146.41929802500002,50.0,69.0
559,146.2512426375,146.44985355,59.0,90.0
560,146.9179086375,147.1401306375,59.0,86.0
561,146.75124213750001,147.14846396250002,55.0,81.0
562,147.25124163750002,147.402630375,55.0,82.0
563,146.4179091375,147.59568573750002,43.0,72.0
564,147.0845751375,147.6151301625,67.0,92.0
565,147.4179081375,147.64846346250002,62.0,82.0
566,146.5845756375,147.652630125,50.0,69.0
567,147.5845746375,147.74568558750002,59.0,89.0
568,148.0845741375,148.30124058750002,57.0,78.0
569,148.25124063750002,148.3929071625,61.0,89.0
570,147.9179076375,148.4887404,52.0,67.0
571,147.75124113750002,148.95679548750002,45.0,79.0
572,148.5845736375,148.9956843375,52.0,74.0
573,148.4179071375,149.00123988750002,64.0,93.0
574,148.75124013750002,149.0179065375,61.0,99.0
575,148.9179066375,149.0262398625,57.0,86.0
576,149.4179061375,149.6234614875,57.0,78.0
577,149.5845726375,149.719294725,61.0,78.0
578,149.25123963750002,149.8206835125,52.0,59.0
579,149.9179056375,149.9790166875,52.0,67.0
580,149.0845731375,150.0179055375,45.0,70.0
581,149.7512391375,150.3554052,64.0,99.0
582,150.0845721375,150.3901273875,61.0,96.0
583,150.2512386375,150.3956829375,57.0,88.0
584,150.7512381375,151.0817933625,54.0,82.0
585,150.91790463750002,151.08318225,58.0,74.0
586,151.0845711375,151.5095707125,66.0,107.0
587,151.41790413750002,151.5595706625,61.0,96.0
588,150.41790513750001,151.64151502500002,42.0,69.0
589,150.5845716375,151.67345943750001,49.0,53.0
590,151.2512376375,151.72068161250002,54.0,88.0
591,151.5845706375,151.780403775,58.0,102.0
592,152.2512366375,152.39151427500002,58.0,86.0
593,152.0845701375,152.4554031,54.0,97.0
594,151.91790363750002,152.6540140125,49.0,41.0
595,152.5845696375,152.6887362,54.0,95.0
596,151.7512371375,152.7040139625,42.0,75.0
597,152.41790313750002,152.84429160000002,66.0,112.0
598,152.7512361375,152.8776249,61.0,93.0
599,152.91790263750002,153.0665136,58.0,107.0
600,153.4179021375,153.80262397500002,52.0,88.0
601,153.5845686375,153.8151239625,56.0,83.0
602,153.9179016375,154.113734775,52.0,78.0
603,153.0845691375,154.3012345875,40.0,69.0
604,153.2512356375,154.42762335,47.0,74.0
605,154.0845681375,154.46095665,56.0,73.0
606,154.2512346375,154.47206775,59.0,67.0
607,153.7512351375,154.497067725,64.0,76.0
608,154.7512341375,155.1456781875,52.0,83.0
609,154.9179006375,155.16095595000002,56.0,70.0
610,154.4179011375,155.347066875,40.0,74.0
611,154.58456763750002,155.38456683750002,47.0,76.0
612,155.2512336375,155.580399975,52.0,88.0
613,155.4179001375,155.64984435,59.0,63.0
614,155.58456663750002,155.7234553875,56.0,97.0
615,155.08456713750002,155.72762205,64.0,75.0
616,156.08456613750002,156.4623435375,55.0,86.0
617,156.2512326375,156.48456573750002,59.0,92.0
618,156.58456563750002,156.752621025,55.0,85.0
619,156.4178991375,156.8095654125,62.0,93.0
620,155.7512331375,156.9762319125,43.0,76.0
621,155.9178996375,157.0845651375,50.0,82.0
622,156.9178986375,157.102620675,62.0,72.0
623,156.7512321375,157.14012063750002,59.0,78.0
624,157.4178981375,157.76373112500002,55.0,85.0
625,157.5845646375,157.81928662500002,59.0,79.0
626,157.9178976375,158.0623419375,55.0,86.0
627,157.0845651375,158.23873065,43.0,74.0
628,158.0845641375,158.3234527875,62.0,93.0
629,157.7512311375,158.32484167500002,67.0,95.0
630,157.2512316375,158.3317861125,50.0,78.0
631,158.25123063750002,158.37206385000002,59.0,95.0
632,158.75123013750002,158.9567854875,57.0,95.0
633,158.9178966375,159.047063175,61.0,93.0
634,158.5845636375,159.1442853,52.0,75.0
635,158.4178971375,159.58039597500002,45.0,89.0
636,159.25122963750002,159.67206255000002,52.0,61.0
637,159.0845631375,159.6887292,64.0,97.0
638,159.4178961375,159.691506975,61.0,97.0
639,159.5845626375,159.6928958625,57.0,99.0
640,160.0845621375,160.29428415,57.0,82.0
641,159.75122913750002,160.3206730125,52.0,74.0
642,160.25122863750002,160.3887285,61.0,90.0
643,159.75122913750002,160.4873395125,45.0,68.0
644,160.5845616375,160.7206726125,61.0,127.0
645,160.4178951375,160.752617025,64.0,97.0
646,160.7512281375,160.9373390625,57.0,44.0
647,161.4178941375,161.76511601250002,54.0,97.0
648,161.5845606375,161.76789378750001,57.0,79.0
649,161.0845611375,162.2512266375,42.0,92.0
650,161.7512271375,162.26094885,66.0,122.0
651,161.91789363750001,162.308171025,54.0,89.0
652,162.0845601375,162.31233768750002,61.0,99.0
653,161.2512276375,162.33872655000002,49.0,72.0
654,162.2512266375,162.4220598,57.0,90.0
655,162.91789263750002,163.080392475,57.0,83.0
656,162.7512261375,163.130392425,54.0,92.0
657,162.41789313750002,163.5873364125,42.0,86.0
658,163.41789213750002,163.6373363625,61.0,122.0
659,162.5845596375,163.666503,49.0,45.0
660,163.0845591375,163.674836325,66.0,107.0
661,163.2512256375,163.69150297500002,54.0,89.0
662,163.5845586375,163.69428075000002,57.0,95.0
663,164.2512246375,164.47622441250002,58.0,93.0
664,164.0845581375,164.4817799625,54.0,107.0
665,163.7512251375,164.98316835,42.0,95.0
666,164.41789113750002,165.041501625,66.0,122.0
667,164.5845576375,165.0567793875,54.0,96.0
668,163.91789163750002,165.069279375,49.0,96.0
669,164.7512241375,165.119279325,61.0,102.0
670,165.58455663750001,165.7428898125,58.0,99.0
671,165.4178901375,165.7984453125,54.0,100.0
672,165.9178896375,166.11650055,54.0,99.0
673,165.2512236375,166.12622276250002,49.0,96.0
674,165.0845571375,166.16094495000002,42.0,89.0
675,166.08455613750002,166.25538930000002,61.0,107.0
676,165.7512231375,166.3220559,66.0,127.0
677,166.2512226375,166.37622251250002,58.0,107.0
678,167.08455513750002,167.88455433750002,55.0,90.0
679,168.08455413750002,168.4095538125,55.0,71.0
680,167.7512211375,168.4734426375,62.0,86.0
681,167.4178881375,168.591498075,59.0,81.0
682,166.4178891375,168.86094225,43.0,89.0
683,166.7512221375,169.1706641625,50.0,65.0
684,168.4178871375,169.8109413,67.0,83.0
685,168.7512201375,170.0331633,62.0,86.0
686,169.75121913750002,170.14288541250002,55.0,95.0
687,169.4178861375,170.59844051250002,50.0,69.0
688,170.0845521375,170.60538495,59.0,93.0
689,170.75121813750002,170.98316235000001,50.0,82.0
690,169.0845531375,171.04982895,43.0,75.0
691,170.4178851375,171.6373283625,67.0,107.0
692,171.0845511375,171.663717225,62.0,102.0
693,171.4178841375,171.78593932500002,59.0,99.0
694,172.4178831375,173.163715725,52.0,90.0
695,172.7512161375,173.8067706375,59.0,95.0
696,173.41788213750002,174.05954816250002,52.0,96.0
697,171.75121713750002,174.3039923625,40.0,90.0
698,172.0845501375,174.5067699375,47.0,77.0
699,174.0845481375,175.22343588750002,59.0,99.0
700,173.0845491375,175.49982450000002,67.0,107.0
701,173.7512151375,175.5095467125,64.0,96.0
702,175.0845471375,175.92760185,52.0,93.0
703,175.41788013750002,176.10537945000002,59.0,89.0
704,175.7512131375,176.3345458875,67.0,112.0
705,174.41788113750002,176.37204585,40.0,88.0
706,174.7512141375,176.43871245,47.0,60.0
707,176.0845461375,176.574823425,52.0,83.0
708,176.4178791375,177.04982295000002,64.0,93.0
709,176.4178791375,177.074822925,67.0,96.0
710,176.7512121375,177.12343398750002,59.0,95.0
711,178.08454413750002,178.33732166250002,62.0,70.0
712,178.08454413750002,178.3456549875,66.0,95.0
713,178.08454413750002,178.3484327625,71.0,83.0
714,177.7512111375,178.4998215,59.0,97.0
715,178.4178771375,179.185931925,66.0,112.0
716,177.08454513750002,179.56926487500002,47.0,83.0
717,177.4178781375,179.7512091375,54.0,79.0
718,178.7512101375,179.7512091375,59.0,89.0
719,179.08454313750002,179.7512091375,62.0,95.0
720,179.4178761375,179.7512091375,66.0,95.0
721,178.4178771375,179.7512091375,71.0,95.0
722,180.4178751375,180.90120798750002,57.0,89.0
723,180.0845421375,181.202596575,52.0,69.0
724,180.75120813750002,181.4817629625,61.0,81.0
725,181.4178741375,181.691484975,52.0,77.0
726,179.7512091375,181.741484925,45.0,92.0
727,181.0845411375,181.7762071125,64.0,72.0
728,181.0845411375,182.369262075,69.0,74.0
729,182.0845401375,182.3928731625,64.0,48.0
730,181.75120713750002,182.44981755,61.0,112.0
731,183.0845391375,183.86509391250001,52.0,88.0
732,183.4178721375,184.0734270375,56.0,70.0
733,183.7512051375,184.502593275,59.0,76.0
734,182.4178731375,184.680370875,40.0,79.0
735,182.75120613750002,184.8373151625,47.0,86.0
736,184.0845381375,184.852592925,52.0,74.0
737,184.41787113750001,185.0012038875,56.0,107.0
738,184.7512041375,185.013703875,59.0,71.0
739,183.7512051375,185.0512038375,64.0,92.0
740,186.0845361375,186.3317581125,61.0,68.0
741,186.0845361375,186.3428692125,66.0,71.0
742,185.7512031375,186.3456469875,58.0,102.0
743,185.41787013750002,186.57342453750002,54.0,89.0
744,186.41786913750002,186.74981325000002,58.0,117.0
745,186.41786913750002,187.1775906,61.0,127.0
746,185.0845371375,187.230368325,42.0,97.0
747,186.7512021375,187.28314605,54.0,93.0
748,186.41786913750002,187.308146025,66.0,117.0
749,187.41786813750002,187.6456456875,61.0,112.0
750,187.0845351375,187.65259012500002,58.0,117.0
751,187.41786813750002,187.7067567375,66.0,107.0
752,188.7512001375,188.7956445375,62.0,31.0
753,188.4178671375,189.2178663375,55.0,81.0
754,188.7512001375,189.4886994,59.0,82.0
755,187.7512011375,190.2331431,43.0,90.0
756,188.08453413750001,190.5123094875,50.0,76.0
757,189.4178661375,190.8623091375,55.0,82.0
758,190.08453213750002,191.230364325,59.0,88.0
759,189.08453313750002,191.51925292500002,67.0,100.0
760,189.7511991375,191.5206418125,62.0,93.0
761,191.08453113750002,191.9261969625,55.0,72.0
762,191.4178641375,192.0345301875,59.0,85.0
763,192.0845301375,192.363696525,55.0,72.0
764,191.75119713750001,192.508140825,62.0,97.0
765,190.7511981375,192.68036287500001,50.0,55.0
766,190.4178651375,192.7150850625,43.0,69.0
767,192.75119613750002,192.99286256250002,62.0,97.0
768,191.75119713750001,193.05675138750001,67.0,99.0
769,192.4178631375,193.09564023750002,59.0,99.0
770,193.75119513750002,194.5373054625,52.0,92.0
771,194.0845281375,194.5873054125,59.0,53.0
772,194.4178611375,195.20536035,64.0,97.0
773,194.75119413750002,195.208138125,52.0,93.0
774,194.4178611375,195.2664714,67.0,100.0
775,193.0845291375,195.5789710875,40.0,82.0
776,193.4178621375,195.797026425,47.0,63.0
777,195.0845271375,196.6220256,59.0,85.0
778,195.4178601375,196.71508106250002,67.0,88.0
779,196.41785913750002,197.2109139,52.0,95.0
780,195.7511931375,197.6345245875,40.0,82.0
781,196.0845261375,197.6595245625,47.0,69.0
782,197.41785813750002,197.8067466375,52.0,86.0
783,196.7511921375,197.824802175,59.0,92.0
784,197.7511911375,198.33869055,64.0,97.0
785,197.0845251375,198.34424610000002,67.0,107.0
786,198.0845241375,198.47896818750002,59.0,93.0
787,199.4178561375,199.7373002625,62.0,79.0
788,198.7511901375,199.780355775,54.0,88.0
789,199.0845231375,200.0678554875,59.0,85.0
790,200.08452213750002,200.3956329375,54.0,79.0
791,198.41785713750002,200.469243975,47.0,88.0
792,199.7511891375,200.93868795,66.0,127.0
793,200.4178551375,201.0234100875,62.0,97.0
794,200.7511881375,201.124798875,59.0,99.0
795,202.08452013750002,202.34979765,61.0,97.0
796,201.7511871375,202.5289641375,57.0,88.0
797,201.4178541375,202.6234084875,52.0,78.0
798,202.7511861375,202.96368592500002,52.0,70.0
799,200.9178546375,202.96646370000002,45.0,74.0
800,202.4178531375,203.67757410000002,64.0,112.0
801,203.0845191375,203.6872963125,61.0,112.0
802,203.4178521375,203.708129625,57.0,102.0
803,204.4178511375,205.19423925,54.0,96.0
804,204.75118413750002,205.42201680000002,58.0,90.0
805,205.0845171375,205.947016275,61.0,97.0
806,203.75118513750002,206.25673818750002,42.0,97.0
807,204.0845181375,206.374793625,49.0,53.0
808,205.4178501375,206.724793275,54.0,86.0
809,205.75118313750002,206.8664598,58.0,92.0
810,206.0845161375,206.8734042375,66.0,107.0
811,206.0845161375,206.89145977500002,61.0,107.0
812,207.0845151375,207.508125825,58.0,97.0
813,207.0845151375,207.51507026250002,66.0,96.0
814,207.0845151375,207.524792475,61.0,112.0
815,207.41784813750002,207.60673683750002,54.0,64.0
816,207.5845146375,207.8817365625,58.0,97.0
817,207.5845146375,207.91229208750002,66.0,82.0
818,207.5845146375,207.92756985,61.0,93.0
819,208.0845141375,208.2484028625,58.0,97.0
820,208.0845141375,208.252569525,61.0,107.0
821,208.0845141375,208.26090285,66.0,97.0
822,208.2511806375,208.4261804625,54.0,39.0
823,206.4178491375,208.513680375,42.0,78.0
824,206.7511821375,208.52340258750002,49.0,36.0
825,208.41784713750002,208.552569225,66.0,122.0
826,208.41784713750002,208.5567358875,61.0,127.0
827,208.7511801375,208.8539578125,61.0,127.0
828,208.7511801375,208.8567355875,58.0,100.0
829,208.7511801375,208.88312445,66.0,112.0
830,209.41784613750002,209.9122900875,54.0,81.0
831,210.0845121375,210.45534510000002,54.0,86.0
832,209.7511791375,210.463678425,66.0,117.0
833,210.58451163750001,210.76090035000001,54.0,82.0
834,210.4178451375,210.79701142500002,62.0,95.0
835,210.9178446375,211.0886778,54.0,89.0
836,210.7511781375,211.130344425,59.0,85.0
837,209.0845131375,211.380344175,47.0,89.0
838,211.08451113750002,211.5928439625,66.0,112.0
839,211.2511776375,211.7483993625,54.0,81.0
840,211.4178441375,211.7928437625,62.0,88.0
841,211.58451063750002,211.830343725,59.0,85.0
842,212.08451013750002,212.347009875,59.0,68.0
843,212.2511766375,212.480343075,54.0,75.0
844,211.7511771375,212.98173146250002,47.0,74.0
845,212.58450963750002,213.074786925,54.0,46.0
846,212.4178431375,213.1567312875,66.0,99.0
847,212.9178426375,213.1622868375,59.0,88.0
848,212.7511761375,213.3622866375,62.0,70.0
849,213.4178421375,213.6678418875,59.0,74.0
850,213.58450863750002,213.802563975,54.0,57.0
851,213.9178416375,214.047008175,54.0,56.0
852,213.08450913750002,214.0789525875,47.0,79.0
853,214.08450813750002,214.352563425,62.0,71.0
854,213.7511751375,214.3622856375,66.0,102.0
855,214.25117463750001,214.4997855,59.0,93.0
856,214.75117413750002,215.14978485,52.0,85.0
857,214.9178406375,215.152562625,57.0,82.0
858,214.4178411375,215.5900621875,45.0,90.0
859,215.4178401375,215.6817287625,61.0,82.0
860,215.25117363750002,215.708117625,52.0,71.0
861,215.5845066375,215.76922867500002,57.0,76.0
862,215.0845071375,215.81922862500002,64.0,95.0
863,216.25117263750002,216.42756135000002,57.0,86.0
864,216.0845061375,216.469227975,52.0,72.0
865,215.75117313750002,216.92200530000002,45.0,89.0
866,216.75117213750002,217.03033852500002,61.0,72.0
867,216.5845056375,217.08589402500002,52.0,48.0
868,216.4178391375,217.113671775,64.0,92.0
869,216.9178386375,217.11644955,57.0,73.0
870,217.5845046375,217.819226625,57.0,82.0
871,217.4178381375,217.8345043875,52.0,65.0
872,217.0845051375,218.258115075,45.0,88.0
873,217.9178376375,218.402559375,52.0,57.0
874,218.0845041375,218.40533715,61.0,88.0
875,218.2511706375,218.4400593375,57.0,81.0
876,217.75117113750002,218.4928370625,64.0,89.0
877,218.91783663750002,219.080336475,57.0,69.0
878,218.7511701375,219.17200305,52.0,72.0
879,219.2511696375,219.39422505000002,52.0,66.0
880,218.41783713750002,219.43589167500002,45.0,70.0
881,219.41783613750002,219.62339148750002,61.0,92.0
882,219.0845031375,219.666447,64.0,96.0
883,219.5845026375,219.7289469375,57.0,79.0
884,220.2511686375,220.463668425,55.0,65.0
885,220.41783513750002,220.6872793125,59.0,81.0
886,220.5845016375,220.78311255,55.0,66.0
887,219.7511691375,220.935890175,43.0,73.0
888,220.7511681375,220.96089015,62.0,81.0
889,220.0845021375,221.0886678,50.0,74.0
890,220.91783463750002,221.19144547500002,59.0,79.0
891,221.5845006375,221.79422265000002,55.0,75.0
892,221.9178336375,222.0595001625,55.0,72.0
893,221.7511671375,222.163666725,59.0,85.0
894,221.0845011375,222.27199995,43.0,73.0
895,222.08450013750002,222.40255537500002,67.0,89.0
896,221.41783413750002,222.4178331375,50.0,70.0
897,222.2511666375,222.4178331375,62.0,69.0
898,222.9178326375,223.1733879375,57.0,81.0
899,222.7511661375,223.17894348750002,52.0,68.0
900,222.4178331375,223.6567207875,45.0,86.0
901,223.2511656375,223.7456095875,52.0,59.0
902,223.4178321375,223.79005398750002,61.0,93.0
903,223.58449863750002,223.824776175,57.0,92.0
904,223.08449913750002,223.8442206,64.0,86.0
905,224.08449813750002,224.2761646125,57.0,73.0
906,224.2511646375,224.44560888750001,52.0,70.0
907,223.7511651375,224.66366422500002,45.0,85.0
908,224.58449763750002,224.680330875,52.0,72.0
909,224.7511641375,224.946997275,61.0,97.0
910,224.4178311375,224.96921947500002,64.0,97.0
911,224.9178306375,225.1206082125,57.0,90.0
912,225.58449663750002,225.7761631125,57.0,79.0
913,225.75116313750001,225.802551975,66.0,68.0
914,225.08449713750002,226.39421805,38.0,90.0
915,225.75116313750001,226.396995825,50.0,82.0
916,225.4178301375,226.4872735125,45.0,73.0
917,226.0844961375,226.952550825,62.0,77.0
918,226.0844961375,226.9553286,66.0,99.0
919,226.9178286375,227.1233839875,50.0,90.0
920,226.4178291375,227.2844949375,38.0,85.0
921,226.75116213750002,227.35393931250002,45.0,82.0
922,227.25116163750002,227.402550375,50.0,95.0
923,227.0844951375,227.4233836875,57.0,93.0
924,227.4178281375,227.691438975,66.0,127.0
925,227.5844946375,227.7622722375,57.0,93.0
926,228.25116063750002,228.3456049875,58.0,55.0
927,228.0844941375,228.35949386250002,54.0,97.0
928,227.75116113750002,228.496993725,42.0,107.0
929,228.4178271375,228.53588257500002,58.0,89.0
930,228.4178271375,228.555327,61.0,122.0
931,228.75116013750002,228.82477117500002,58.0,100.0
932,228.75116013750002,228.83032672500002,61.0,107.0
933,228.5844936375,228.9983821125,42.0,79.0
934,228.9178266375,229.01504876250002,61.0,67.0
935,228.9178266375,229.10393756250002,54.0,107.0
936,229.41782613750001,229.469214975,58.0,97.0
937,229.41782613750001,229.48310385000002,61.0,95.0
938,229.41782613750001,229.50393716250002,54.0,88.0
939,229.7511591375,229.81504796250002,58.0,127.0
940,229.0844931375,229.8428257125,42.0,92.0
941,229.7511591375,229.8428257125,61.0,127.0
942,229.7511591375,229.8456034875,54.0,100.0
943,230.0844921375,230.1317143125,58.0,122.0
944,230.0844921375,230.15671428750002,61.0,117.0
945,230.91782463750002,231.09421335000002,59.0,90.0
946,230.7511581375,231.13587997500002,54.0,95.0
947,231.0844911375,231.555324,66.0,117.0
948,230.41782513750002,231.64699057500002,47.0,89.0
949,231.41782413750002,231.6553239,62.0,86.0
950,231.5844906375,231.78310155,59.0,81.0
951,231.2511576375,231.7956015375,54.0,88.0
952,232.0844901375,232.4928230625,54.0,90.0
953,232.2511566375,232.52615636250002,59.0,63.0
954,231.7511571375,232.9622670375,47.0,74.0
955,232.41782313750002,232.98310035,66.0,112.0
956,232.5844896375,233.0456002875,54.0,77.0
957,232.91782263750002,233.16782238750002,59.0,90.0
958,232.7511561375,233.191433475,62.0,88.0
959,233.4178221375,233.7900439875,54.0,86.0
960,233.58448863750002,233.80532175000002,59.0,72.0
961,233.7511551375,234.3039323625,66.0,107.0
962,233.08448913750001,234.3067101375,47.0,82.0
963,234.08448813750002,234.3483767625,62.0,88.0
964,233.9178216375,234.3983767125,54.0,85.0
965,234.2511546375,234.485876625,59.0,95.0
966,234.7511541375,235.13448708750002,54.0,93.0
967,234.9178206375,235.1775426,59.0,69.0
968,234.4178211375,235.33448688750002,47.0,86.0
969,235.08448713750002,235.67893098750002,66.0,127.0
970,235.4178201375,235.71920872500002,62.0,95.0
971,235.58448663750002,235.7983753125,59.0,93.0
972,236.08448613750002,236.46365242500002,52.0,74.0
973,236.2511526375,236.50531905,57.0,77.0
974,235.7511531375,236.7886521,45.0,83.0
975,236.4178191375,237.01087410000002,64.0,95.0
976,236.75115213750001,237.0567073875,61.0,89.0
977,236.58448563750002,237.07754070000001,52.0,61.0
978,236.9178186375,237.1567072875,57.0,88.0
979,237.5844846375,237.758095575,57.0,79.0
980,237.4178181375,237.79559553750002,52.0,86.0
981,237.08448513750002,238.2442062,45.0,82.0
982,237.75115113750002,238.3205950125,64.0,92.0
983,238.0844841375,238.35670608750002,61.0,83.0
984,237.9178176375,238.37753940000002,52.0,70.0
985,238.25115063750002,238.4400393375,57.0,95.0
986,238.9178166375,239.06087205,57.0,85.0
987,238.75115013750002,239.1289275375,52.0,83.0
988,238.4178171375,239.5997604,45.0,82.0
989,239.0844831375,239.6442048,64.0,93.0
990,239.4178161375,239.669204775,61.0,97.0
991,239.25114963750002,239.68864920000001,52.0,66.0
992,239.5844826375,239.7789268875,57.0,93.0
993,240.25114863750002,240.3872596125,57.0,76.0
994,240.0844821375,240.49142617500002,52.0,78.0
995,239.75114913750002,240.57198165,45.0,82.0
996,240.75114813750002,240.969203475,61.0,102.0
997,240.4178151375,241.0317034125,64.0,97.0
998,240.91781463750002,241.0400367375,57.0,83.0
999,241.5844806375,241.7344804875,59.0,75.0
1000,241.41781413750002,241.8039248625,50.0,72.0
1001,241.0844811375,242.2775355,43.0,88.0
1002,241.91781363750002,242.35947986250002,50.0,69.0
1003,241.7511471375,242.4039242625,62.0,95.0
1004,242.2511466375,242.4344797875,55.0,83.0
1005,242.0844801375,242.4344797875,59.0,79.0
1006,242.7511461375,243.119201325,50.0,74.0
1007,242.91781263750002,243.163645725,55.0,75.0
1008,242.41781313750002,243.5539231125,43.0,79.0
1009,243.0844791375,243.69142297500002,62.0,93.0
1010,243.2511456375,243.6928118625,50.0,81.0
1011,243.41781213750002,243.6928118625,59.0,76.0
1012,243.5844786375,243.73864515000002,55.0,89.0
1013,244.0844781375,244.4664222,52.0,77.0
1014,244.2511446375,244.513644375,57.0,82.0
1015,243.7511451375,244.93864395,45.0,88.0
1016,244.58447763750002,245.0330883,52.0,60.0
1017,244.41781113750002,245.069199375,64.0,93.0
1018,244.7511441375,245.0886438,61.0,82.0
1019,244.9178106375,245.12753265,57.0,88.0
1020,245.7511431375,245.9566984875,57.0,77.0
1021,245.7511431375,245.97197625,64.0,96.0
1022,245.7511431375,245.974754025,61.0,117.0
1023,245.08447713750002,246.09419835,45.0,92.0
1024,246.08447613750002,246.296975925,61.0,96.0
1025,246.08447613750002,246.35530920000002,57.0,92.0
1026,246.08447613750002,246.3733647375,64.0,79.0
1027,245.4178101375,246.39419805,52.0,63.0
1028,246.7511421375,247.1761417125,54.0,83.0
1029,246.9178086375,247.22197500000001,59.0,66.0
1030,247.2511416375,247.6441968,54.0,66.0
1031,247.4178081375,248.1622518375,62.0,51.0
1032,247.08447513750002,248.1886407,66.0,127.0
1033,246.4178091375,248.95113993750002,47.0,74.0
1034,247.7511411375,249.07197315000002,54.0,67.0
1035,248.75114013750002,249.0761398125,62.0,55.0
1036,248.4178071375,249.091417575,66.0,97.0
1037,248.08447413750002,249.13030642500001,59.0,59.0
1038,249.4178061375,250.013638875,54.0,44.0
1039,250.0844721375,250.69558263750002,54.0,53.0
1040,250.4178051375,251.23030432500002,62.0,47.0
1041,249.0844731375,251.63030392500002,47.0,38.0
1042,250.9178046375,251.6928038625,54.0,61.0
1043,251.0844711375,251.75113713750002,59.0,66.0
1044,251.4178041375,251.75113713750002,62.0,54.0
1045,249.75113913750002,251.75113713750002,66.0,93.0
1046,252.41780313750002,252.824747175,55.0,74.0
1047,252.0844701375,253.17196905,50.0,41.0
1048,252.7511361375,253.8816905625,59.0,72.0
1049,251.75113713750002,254.21224578750002,43.0,73.0
1050,253.41780213750002,254.380301175,50.0,39.0
1051,253.7511351375,254.85252292500002,55.0,76.0
1052,253.0844691375,254.86502291250002,62.0,93.0
1053,254.0844681375,255.085856025,59.0,77.0
1054,255.0844671375,255.82891083750002,55.0,75.0
1055,255.41780013750002,256.0177995375,62.0,78.0
1056,256.0844661375,256.2761326125,55.0,55.0
1057,254.41780113750002,256.296965925,43.0,67.0
1058,255.7511331375,256.369188075,59.0,81.0
1059,254.7511341375,256.4511324375,50.0,61.0
1060,256.4177991375,256.93029862500003,45.0,70.0
1061,256.4177991375,257.019187425,61.0,89.0
1062,256.4177991375,257.0233540875,64.0,90.0
1063,256.4177991375,257.0511318375,57.0,81.0
1064,258.0844641375,258.44974155,62.0,58.0
1065,257.41779813750003,258.5955747375,54.0,82.0
1066,257.7511311375,258.8539078125,59.0,67.0
1067,257.0844651375,259.569184875,47.0,77.0
1068,258.7511301375,259.7900179875,54.0,75.0
1069,259.2511296375,260.0372399625,59.0,75.0
1070,259.0844631375,260.5261283625,62.0,88.0
1071,258.41779713750003,260.6539060125,66.0,122.0
1072,260.7511281375,261.0677944875,62.0,66.0
1073,260.0844621375,261.32890533750003,54.0,79.0
1074,260.41779513750004,261.330294225,59.0,70.0
1075,261.41779413750004,261.71084940000003,54.0,72.0
1076,259.7511291375,261.824738175,47.0,63.0
1077,261.0844611375,262.31640435,66.0,122.0
1078,261.7511271375,262.47195975,62.0,90.0
1079,262.0844601375,262.8150149625,59.0,85.0
1080,263.0844591375,263.241403425,62.0,17.0
1081,263.0844591375,263.9011249875,55.0,83.0
1082,263.4177921375,264.49417995,59.0,72.0
1083,262.4177931375,264.7372352625,43.0,82.0
1084,263.7511251375,264.89279066250003,67.0,100.0
1085,264.4177911375,264.9733461375,62.0,66.0
1086,262.7511261375,265.0150127625,50.0,75.0
1087,265.0844571375,267.70945451250003,62.0,71.0
1088,265.0844571375,267.7344544875,67.0,81.0
1089,265.0844571375,267.75112113750004,43.0,69.0
1090,265.0844571375,267.75112113750004,50.0,43.0
1091,264.0844581375,267.75112113750004,55.0,66.0
1092,264.7511241375,267.75112113750004,59.0,72.0
1093,267.75112113750004,273.0622269375,63.0,57.0
1094,267.75112113750004,273.08306025,66.0,48.0
1095,267.75112113750004,273.0900046875,59.0,49.0
1096,267.75112113750004,273.1094491125,47.0,67.0
