,start,end,pitch,velocity
0,30.479154474999998,30.82811266875,64.0,84.0
1,30.895820975,31.241306947916666,67.0,80.0
2,31.312487474999998,31.5312373875,69.0,73.0
3,31.520820725,32.145820475,72.0,78.0
4,32.145820475,32.8020702125,67.0,75.0
5,32.979153475,33.39929219583333,62.0,78.0
6,33.395819974999995,33.84026424166667,64.0,77.0
7,33.812486475,34.267347404166664,62.0,76.0
8,34.229152975,34.437486225,64.0,77.0
9,34.437486225,34.645819474999996,62.0,77.0
10,34.645819474999996,35.06074986458333,60.0,78.0
11,35.062485975,35.50866635208333,62.0,77.0
12,35.479152475,36.8229019375,64.0,78.0
13,37.145818475,37.49477666875,64.0,84.0
14,37.562484975,37.90797094791667,67.0,80.0
15,37.979151474999995,38.197901387499996,69.0,73.0
16,38.187484725,38.812484475,72.0,78.0
17,38.812484475,39.468734212499996,67.0,75.0
18,39.645817475,40.06595619583333,62.0,78.0
19,40.062483975,40.506928241666664,64.0,77.0
20,40.479150475,40.93401140416666,62.0,76.0
21,40.895816974999995,41.104150225,64.0,77.0
22,41.104150225,41.312483475,62.0,77.0
23,41.312483475,41.72741386458333,60.0,78.0
24,41.729149975,42.17533035208333,62.0,77.0
25,42.145816475,43.4895659375,60.0,78.0
26,43.812482474999996,44.157968447916666,62.0,78.0
27,44.229148975,44.55900995416666,64.0,78.0
28,44.645815475,45.043384760416664,62.0,76.0
29,45.062481975,45.44963459791666,60.0,80.0
30,45.479148474999995,46.270814824999995,62.0,76.0
31,46.312481475,46.699634097916665,60.0,78.0
32,46.729147975,47.18574501458333,62.0,75.0
33,47.145814474999995,47.574633747916664,64.0,78.0
34,47.562480975,47.996508579166665,67.0,76.0
35,47.979147475,48.44442506666667,64.0,78.0
36,48.395813974999996,48.715258291666665,62.0,77.0
37,48.812480474999994,49.55900795416667,64.0,77.0
38,49.645813475,49.965257791666666,64.0,80.0
39,50.062479974999995,50.37671596041666,67.0,78.0
40,50.479146475,51.203104518749996,69.0,78.0
41,51.312479474999996,51.671854331249996,69.0,77.0
42,51.729145974999994,52.088520831249994,67.0,69.0
43,52.145812475,52.8645621875,64.0,81.0
44,52.979145474999996,53.30900645416666,64.0,79.0
45,53.395811974999994,53.744770168749994,67.0,73.0
46,53.812478475,54.053797822916664,62.0,76.0
47,54.020811724999994,54.54338096041666,64.0,77.0
48,54.645811474999995,55.078102968749995,62.0,71.0
49,55.062477975,55.506922241666665,60.0,77.0
50,55.479144475,56.890602243749996,62.0,73.0
51,57.145810475,57.49476866875,64.0,84.0
52,57.562476974999996,57.907962947916666,67.0,80.0
53,57.979143474999994,58.197893387499995,69.0,73.0
54,58.187476724999996,58.812476475,72.0,78.0
55,58.812476475,59.468726212499995,67.0,75.0
56,59.645809475,60.06594819583333,62.0,78.0
57,60.062475975,60.50692024166666,64.0,77.0
58,60.479142474999996,60.93400340416667,62.0,76.0
59,60.895808974999994,61.104142225,64.0,77.0
60,61.104142225,61.312475475,62.0,77.0
61,61.312475475,61.72740586458333,60.0,78.0
62,61.729141975,62.17532235208333,62.0,77.0
63,62.145808474999995,63.489557937499995,64.0,78.0
64,63.812474474999995,64.16143266875,64.0,84.0
65,64.22914097499999,64.57462694791667,67.0,80.0
66,64.645807475,64.8645573875,69.0,73.0
67,64.854140725,65.479140475,72.0,78.0
68,65.479140475,66.1353902125,67.0,75.0
69,66.31247347499999,66.73261219583333,62.0,78.0
70,66.729139975,67.17358424166666,64.0,77.0
71,67.145806475,67.60066740416666,62.0,76.0
72,67.56247297499999,67.770806225,64.0,77.0
73,67.770806225,67.979139475,62.0,77.0
74,67.979139475,68.39406986458333,60.0,78.0
75,68.395805975,68.84198635208332,62.0,77.0
76,68.81247247499999,70.15622193749999,60.0,78.0
77,70.479138475,70.82462444791666,62.0,78.0
78,70.89580497499999,71.22566595416666,64.0,78.0
79,71.312471475,71.71004076041666,62.0,76.0
80,71.729137975,72.11629059791666,60.0,80.0
81,72.14580447499999,72.93747082499999,62.0,76.0
82,72.979137475,73.36629009791666,60.0,78.0
83,73.39580397499999,73.85240101458334,62.0,75.0
84,73.812470475,74.24128974791667,64.0,78.0
85,74.229136975,74.66316457916666,67.0,76.0
86,74.645803475,75.11108106666666,64.0,78.0
87,75.062469975,75.38191429166666,62.0,77.0
88,75.47913647499999,76.22566395416666,64.0,77.0
89,76.312469475,76.63191379166666,64.0,80.0
90,76.72913597499999,77.04337196041666,67.0,78.0
91,77.145802475,77.86976051875,69.0,78.0
92,77.97913547499999,78.33851033124999,69.0,77.0
93,78.395801975,78.75517683125,67.0,69.0
94,78.812468475,79.020801725,64.0,81.0
95,79.020801725,79.645801475,64.0,81.0
96,79.645801475,79.97566245416667,64.0,79.0
97,80.06246797499999,80.41142616875,67.0,73.0
98,80.479134475,80.72045382291667,62.0,76.0
99,80.68746772499999,81.21003696041666,64.0,77.0
100,81.31246747499999,81.74475896874999,62.0,71.0
101,81.729133975,82.17357824166666,60.0,77.0
102,82.145800475,83.55725824375,62.0,73.0
103,83.812466475,84.21003576041666,64.0,93.0
104,84.229132975,84.64059114375,67.0,79.0
105,84.64579947499999,85.10586873541666,69.0,78.0
106,85.062465975,85.49128524791666,72.0,81.0
107,85.479132475,86.37149322916666,74.0,80.0
108,86.312465475,87.19440956666666,76.0,86.0
109,87.14579847499999,87.57461774791666,74.0,88.0
110,87.562464975,87.71003436041666,72.0,78.0
111,87.770798225,89.49475586874999,72.0,79.0
112,89.645797475,90.00170011041666,74.0,82.0
113,90.062463975,90.40968605833334,72.0,78.0
114,90.47913047499999,91.21524129166666,64.0,84.0
115,91.312463475,91.67878277291666,64.0,81.0
116,91.72912997499999,92.10065760416666,67.0,73.0
117,92.145796475,92.56419908541666,62.0,78.0
118,92.56246297499999,92.89232395416666,64.0,76.0
119,92.979129475,93.41489318958332,64.0,78.0
120,93.395795975,93.78989303958333,62.0,80.0
121,93.81246247499999,96.87496125,60.0,78.0
122,97.14579447499999,97.49475266875,64.0,84.0
123,97.562460975,97.90794694791666,67.0,80.0
124,97.979127475,98.1978773875,69.0,73.0
125,98.187460725,98.812460475,72.0,78.0
126,98.812460475,99.4687102125,67.0,75.0
127,99.64579347499999,100.06593219583333,62.0,78.0
128,100.062459975,100.50690424166666,64.0,77.0
129,100.479126475,100.93398740416666,62.0,76.0
130,100.89579297499999,101.104126225,64.0,77.0
131,101.104126225,101.312459475,62.0,77.0
132,101.312459475,101.72738986458333,60.0,78.0
133,101.72912597499999,102.17530635208333,62.0,77.0
134,102.145792475,103.4895419375,64.0,78.0
135,103.812458475,104.16141666875,64.0,84.0
136,104.22912497499999,104.57461094791667,67.0,80.0
137,104.645791475,104.8645413875,69.0,73.0
138,104.85412472499999,105.47912447499999,72.0,78.0
139,105.47912447499999,106.1353742125,67.0,75.0
140,106.31245747499999,106.73259619583332,62.0,78.0
141,106.729123975,107.17356824166666,64.0,77.0
142,107.145790475,107.60065140416665,62.0,76.0
143,107.56245697499999,107.770790225,64.0,77.0
144,107.770790225,107.979123475,62.0,77.0
145,107.979123475,108.39405386458333,60.0,78.0
146,108.395789975,108.84197035208332,62.0,77.0
147,108.81245647499999,110.15620593749999,60.0,78.0
148,110.479122475,110.82460844791666,62.0,78.0
149,110.89578897499999,111.22564995416666,64.0,78.0
150,111.312455475,111.71002476041666,62.0,76.0
151,111.729121975,112.11627459791666,60.0,80.0
152,112.14578847499999,112.93745482499999,62.0,76.0
153,112.979121475,113.36627409791666,60.0,78.0
154,113.39578797499999,113.85238501458333,62.0,75.0
155,113.812454475,114.24127374791667,64.0,78.0
156,114.229120975,114.66314857916666,67.0,76.0
157,114.64578747499999,115.11106506666665,64.0,78.0
158,115.062453975,115.38189829166666,62.0,77.0
159,115.47912047499999,116.22564795416666,64.0,77.0
160,116.312453475,116.63189779166666,64.0,80.0
161,116.72911997499999,117.04335596041666,67.0,78.0
162,117.145786475,117.86974451875,69.0,78.0
163,117.97911947499999,118.33849433124999,69.0,77.0
164,118.395785975,118.75516083125,67.0,69.0
165,118.812452475,119.5312021875,64.0,81.0
166,119.645785475,119.97564645416666,64.0,79.0
167,120.06245197499999,120.41141016875,67.0,73.0
168,120.47911847499999,120.72043782291667,62.0,76.0
169,120.68745172499999,121.21002096041666,64.0,77.0
170,121.31245147499999,121.74474296874999,62.0,71.0
171,121.729117975,122.17356224166666,60.0,77.0
172,122.145784475,123.55724224375,62.0,73.0
173,123.81245047499999,124.21001976041666,64.0,93.0
174,124.229116975,124.64057514375,67.0,79.0
175,124.64578347499999,125.10585273541666,69.0,78.0
176,125.06244997499999,125.49126924791666,72.0,81.0
177,125.479116475,126.37147722916666,74.0,80.0
178,126.312449475,127.19439356666666,76.0,86.0
179,127.14578247499999,127.57460174791666,74.0,88.0
180,127.562448975,127.71001836041665,72.0,78.0
181,127.77078222499999,129.49473986875,72.0,79.0
182,129.645781475,130.00168411041665,74.0,82.0
183,130.062447975,130.40967005833332,72.0,78.0
184,130.479114475,131.21522529166666,64.0,84.0
185,131.312447475,131.67876677291665,64.0,81.0
186,131.729113975,132.10064160416667,67.0,73.0
187,132.14578047499998,132.56418308541666,62.0,78.0
188,132.562446975,132.89230795416665,64.0,76.0
189,132.979113475,133.41487718958334,64.0,78.0
190,133.39577997499998,133.78987703958333,62.0,80.0
191,133.812446475,136.87494525,60.0,78.0
192,163.812434475,164.16139266874998,64.0,84.0
193,164.229100975,164.57458694791666,67.0,80.0
194,164.64576747499999,164.8645173875,69.0,73.0
195,164.854100725,165.479100475,72.0,78.0
196,165.479100475,166.1353502125,67.0,75.0
197,166.31243347499998,166.7325721958333,62.0,78.0
198,166.729099975,167.17354424166666,64.0,77.0
199,167.145766475,167.60062740416666,62.0,76.0
200,167.56243297499998,167.770766225,64.0,77.0
201,167.770766225,167.979099475,62.0,77.0
202,167.979099475,168.39402986458333,60.0,78.0
203,168.395765975,168.8419463520833,62.0,77.0
204,168.81243247499998,170.15618193749998,64.0,78.0
205,170.479098475,170.82805666874998,64.0,84.0
206,170.895764975,171.24125094791665,67.0,80.0
207,171.31243147499998,171.5311813875,69.0,73.0
208,171.520764725,172.145764475,72.0,78.0
209,172.145764475,172.80201421249998,67.0,75.0
210,172.979097475,173.3992361958333,62.0,78.0
211,173.395763975,173.84020824166666,64.0,77.0
212,173.81243047499999,174.26729140416666,62.0,76.0
213,174.229096975,174.43743022499999,64.0,77.0
214,174.43743022499999,174.645763475,62.0,77.0
215,174.645763475,175.06069386458333,60.0,78.0
216,175.062429975,175.50861035208334,62.0,77.0
217,175.47909647499998,176.82284593749998,60.0,78.0
218,177.145762475,177.49124844791666,62.0,78.0
219,177.562428975,177.89228995416667,64.0,78.0
220,177.97909547499998,178.37666476041665,62.0,76.0
221,178.395761975,178.78291459791666,60.0,80.0
222,178.812428475,179.604094825,62.0,76.0
223,179.645761475,180.03291409791666,60.0,78.0
224,180.062427975,180.51902501458332,62.0,75.0
225,180.47909447499998,180.90791374791667,64.0,78.0
226,180.895760975,181.32978857916666,67.0,76.0
227,181.312427475,181.77770506666667,64.0,78.0
228,181.72909397499998,182.04853829166666,62.0,77.0
229,182.145760475,182.89228795416665,64.0,77.0
230,182.97909347499998,183.29853779166666,64.0,80.0
231,183.395759975,183.70999596041665,67.0,78.0
232,183.812426475,184.53638451875,69.0,78.0
233,184.64575947499998,185.00513433125,69.0,77.0
234,185.062425975,185.42180083124998,67.0,69.0
235,185.479092475,186.1978421875,64.0,81.0
236,186.312425475,186.64228645416665,64.0,79.0
237,186.729091975,187.07805016875,67.0,73.0
238,187.14575847499998,187.38707782291667,62.0,76.0
239,187.354091725,187.87666096041664,64.0,77.0
240,187.979091475,188.41138296875,62.0,71.0
241,188.39575797499998,188.84020224166665,60.0,77.0
242,188.812424475,190.22388224374998,62.0,73.0
243,190.479090475,190.87665976041666,64.0,93.0
244,190.89575697499998,191.30721514375,67.0,79.0
245,191.312423475,191.77249273541665,69.0,78.0
246,191.729089975,192.15790924791665,72.0,81.0
247,192.14575647499998,193.03811722916666,74.0,80.0
248,192.979089475,193.86103356666666,76.0,86.0
249,193.81242247499998,194.24124174791666,74.0,88.0
250,194.229088975,194.37665836041666,72.0,78.0
251,194.43742222499998,196.16137986875,72.0,79.0
252,196.31242147499998,196.66832411041665,74.0,82.0
253,196.729087975,197.07631005833332,72.0,78.0
254,197.145754475,197.88186529166666,64.0,84.0
255,197.979087475,198.34540677291665,64.0,81.0
256,198.395753975,198.76728160416667,67.0,73.0
257,198.81242047499998,199.23082308541666,62.0,78.0
258,199.229086975,199.55894795416665,64.0,76.0
259,199.645753475,200.0815171895833,64.0,78.0
260,200.06241997499998,200.45651703958333,62.0,80.0
261,200.479086475,203.54158525,60.0,78.0
262,203.812418475,204.20998776041665,64.0,93.0
263,204.22908497499998,204.64054314375,67.0,79.0
264,204.645751475,205.10582073541664,69.0,78.0
265,205.062417975,205.49123724791664,72.0,81.0
266,205.47908447499998,206.37144522916665,74.0,80.0
267,206.312417475,207.19436156666666,76.0,86.0
268,207.145750475,207.57456974791666,74.0,88.0
269,207.562416975,207.70998636041665,72.0,78.0
270,207.770750225,209.49470786875,72.0,79.0
271,209.645749475,210.00165211041664,74.0,82.0
272,210.062415975,210.40963805833331,72.0,78.0
273,210.47908247499998,211.21519329166665,64.0,84.0
274,211.312415475,211.67873477291664,64.0,81.0
275,211.72908197499999,212.10060960416666,67.0,73.0
276,212.14574847499998,212.56415108541665,62.0,78.0
277,212.562414975,212.89227595416665,64.0,76.0
278,212.979081475,213.41484518958333,64.0,78.0
279,213.39574797499998,213.78984503958333,62.0,80.0
280,213.812414475,216.87491325,60.0,78.0
