,start,end,pitch,velocity
0,0.33506931041666665,5.050345202083333,57.0,60.0
1,0.40451372708333333,5.256942341666666,60.0,62.0
2,0.46354148125,5.331595089583333,64.0,66.0
3,3.7465262791666665,5.633678302083333,69.0,70.0
4,5.487845027083333,6.12499755,64.0,64.0
5,5.41145616875,6.178816972916667,60.0,73.0
6,5.329858979166667,6.196178077083333,57.0,62.0
7,5.027775766666666,6.23437250625,52.0,64.0
8,0.4097220583333333,6.2499975,45.0,70.0
9,6.659719558333333,7.01562219375,43.0,72.0
10,6.6562473375,7.020830525,55.0,71.0
11,7.121524929166666,9.102426914583333,53.0,76.0
12,9.16145466875,9.66145446875,53.0,66.0
13,7.105899935416666,9.72395444375,57.0,73.0
14,7.92187183125,9.772565535416666,60.0,71.0
15,9.58853783125,9.861107166666667,65.0,68.0
16,7.111108266666666,10.147565385416666,41.0,77.0
17,7.4878442270833325,10.343745862499999,48.0,54.0
18,10.37499585,11.921870231249999,57.0,69.0
19,10.413190279166667,11.937495225,60.0,68.0
20,10.006940441666666,12.090272941666665,53.0,62.0
21,12.123259039583333,12.968744812499999,60.0,71.0
22,12.498258889583333,12.99478646875,53.0,68.0
23,12.92186983125,13.064230885416666,57.0,73.0
24,11.675342552083332,13.121522529166667,48.0,43.0
25,10.418398610416666,13.187494724999999,41.0,72.0
26,13.729161175,14.28645261875,57.0,59.0
27,13.777772266666666,14.631938591666666,62.0,67.0
28,13.777772266666666,14.644091364583332,50.0,70.0
29,14.616313597916665,15.37499385,52.0,63.0
30,14.633674702083333,15.392354954166667,64.0,70.0
31,14.590271941666666,15.449646597916665,59.0,60.0
32,15.470479922916665,16.1562435375,53.0,67.0
33,15.460063260416666,16.182285193749998,62.0,65.0
34,15.494785468749999,16.184021304166667,65.0,69.0
35,16.29166015,17.059020954166666,55.0,71.0
36,16.2812434875,17.069437616666665,67.0,72.0
37,17.145826475,17.61978461875,60.0,73.0
38,17.562492974999998,18.032978897916667,55.0,76.0
39,17.145826475,18.288187129166666,48.0,75.0
40,17.979159475,18.451381508333334,60.0,73.0
41,18.395825974999997,18.605895335416665,55.0,69.0
42,17.979159475,18.857631345833333,64.0,75.0
43,18.812492475,19.454853329166667,60.0,67.0
44,19.645825475,19.83158928958333,57.0,72.0
45,19.645825475,19.993047558333334,60.0,77.0
46,18.812492475,19.996519779166665,45.0,73.0
47,19.229158975,19.999992,52.0,63.0
48,20.479158475,20.956588839583333,55.0,70.0
49,20.479158475,21.376727560416665,59.0,72.0
50,21.312491474999998,21.779505177083333,55.0,79.0
51,20.479158475,21.92013012083333,43.0,76.0
52,20.895824975,21.979157875,50.0,63.0
53,21.729157975,22.15971335833333,59.0,78.0
54,22.145824474999998,22.559018754166665,57.0,67.0
55,22.145824474999998,22.80728254375,45.0,77.0
56,22.562490975,22.94617137708333,52.0,72.0
57,22.145824474999998,22.98436580625,60.0,72.0
58,22.979157474999997,23.394087864583334,55.0,69.0
59,22.979157474999997,23.465268391666665,43.0,69.0
60,22.979157474999997,23.8229071375,59.0,69.0
61,23.812490474999997,24.673601241666667,53.0,62.0
62,23.812490474999997,24.682281793749997,57.0,68.0
63,24.229156975,24.916656699999997,48.0,64.0
64,23.812490474999997,24.946170577083333,41.0,74.0
65,24.645823475,25.074642747916666,60.0,73.0
66,25.062489975,25.163184379166665,53.0,73.0
67,25.479156475,25.72221193333333,57.0,64.0
68,25.479156475,26.374989449999998,62.0,69.0
69,25.895822974999998,26.397558885416665,57.0,71.0
70,25.479156475,26.574642147916666,50.0,71.0
71,26.312489475,26.70137820833333,66.0,74.0
72,26.729155974999998,26.86978091875,57.0,77.0
73,27.145822475,27.96700270208333,62.0,73.0
74,27.145822475,28.605891335416665,43.0,73.0
75,27.562488974999997,28.689224635416664,50.0,67.0
76,27.979155475,28.895821774999998,55.0,78.0
77,28.395821974999997,29.7499881,62.0,73.0
78,28.812488475,29.78471030833333,67.0,64.0
79,29.645821474999998,30.42533505208333,59.0,67.0
80,29.229154975,30.467001702083333,50.0,56.0
81,28.812488475,30.475682254166664,43.0,68.0
82,30.479154474999998,30.921862631249997,64.0,71.0
83,30.479154474999998,30.965265391666666,60.0,63.0
84,30.895820975,31.378459670833333,55.0,53.0
85,30.479154474999998,31.434015204166666,48.0,77.0
86,31.312487474999998,31.550334602083332,67.0,74.0
87,31.312487474999998,31.590265141666666,64.0,73.0
88,31.729153975,31.855890035416664,60.0,59.0
89,32.145820475,32.40450092708333,59.0,67.0
90,32.145820475,32.553806422916665,62.0,72.0
91,32.562486975,33.08679232083333,50.0,63.0
92,32.979153475,33.104153425,59.0,71.0
93,32.979153475,33.11109786666667,55.0,68.0
94,32.979153475,33.1666534,62.0,72.0
95,32.145820475,33.262139472916665,43.0,71.0
96,33.812486475,34.3020696125,57.0,63.0
97,33.812486475,34.30554183333333,53.0,63.0
98,34.229152975,34.70831945,48.0,58.0
99,33.812486475,34.805541633333334,41.0,77.0
100,34.645819474999996,34.80727774375,57.0,73.0
101,34.645819474999996,34.885402712499996,60.0,77.0
102,35.479152475,35.97741616458333,60.0,60.0
103,35.895818975,36.348943793749996,55.0,66.0
104,35.479152475,36.39755488541667,48.0,73.0
105,36.312485474999995,36.40797154791667,60.0,67.0
106,36.312485474999995,36.44442986666667,64.0,78.0
107,37.145818475,37.612832177083334,60.0,72.0
108,37.562484975,38.03991533958333,55.0,73.0
109,37.145818475,38.12672086041666,48.0,71.0
110,37.979151474999995,38.157970847916665,60.0,71.0
111,37.979151474999995,38.25692914166667,64.0,77.0
112,38.395817975,38.94095664583333,55.0,75.0
113,38.812484475,39.24651207916666,59.0,66.0
114,38.812484475,39.26387318333333,62.0,64.0
115,39.229150974999996,39.9270673625,50.0,54.0
116,39.645817475,39.93053958333333,59.0,74.0
117,39.645817475,39.940956245833334,62.0,74.0
118,38.812484475,40.03470620833333,43.0,72.0
119,40.479150475,40.954844729166666,62.0,71.0
120,40.479150475,40.965261391666665,65.0,72.0
121,40.895816974999995,41.395816775,57.0,67.0
122,40.479150475,41.494775068749995,50.0,74.0
123,41.312483475,41.52949727708333,62.0,77.0
124,41.312483475,41.645816675,65.0,74.0
125,42.145816475,42.69269125625,60.0,66.0
126,42.145816475,43.0520661125,64.0,71.0
127,42.145816475,43.38887153333333,48.0,73.0
128,42.562482974999995,43.73088528541666,55.0,65.0
129,42.979149475,43.74477416875,60.0,73.0
130,43.812482474999996,44.70657933958333,62.0,73.0
131,44.229148975,44.86282927708333,57.0,63.0
132,44.645815475,45.24130134791666,65.0,77.0
133,45.062481975,45.69269005625,57.0,65.0
134,45.479148474999995,45.89234275416666,69.0,73.0
135,45.479148474999995,45.92012052083333,65.0,77.0
136,45.895814975,46.44095364583333,57.0,60.0
137,43.812482474999996,46.70657853958333,50.0,78.0
138,46.312481475,46.73088408541666,62.0,73.0
139,46.729147975,47.11977281875,65.0,69.0
140,47.145814474999995,47.71352258125,60.0,68.0
141,47.562480975,47.95484192916666,55.0,71.0
142,47.145814474999995,47.99130024791666,64.0,77.0
143,47.145814474999995,48.142341854166666,48.0,75.0
144,47.979147475,48.585050010416666,60.0,77.0
145,48.395813974999996,48.69616107708333,64.0,66.0
146,48.812480474999994,49.234355306249995,64.0,73.0
147,48.812480474999994,49.24824418958333,67.0,67.0
148,49.645813475,49.84025784166666,64.0,78.0
149,49.645813475,49.90102170625,60.0,76.0
150,48.812480474999994,50.00866055208333,48.0,72.0
151,49.229146975,50.02428554583333,55.0,63.0
152,50.062479974999995,50.35067430416667,59.0,71.0
153,50.062479974999995,50.43053538333333,62.0,74.0
154,50.479146475,51.08504901041666,60.0,72.0
155,50.479146475,51.37150722916667,57.0,64.0
156,51.312479474999996,51.605882135416664,60.0,77.0
157,51.312479474999996,51.64754878541667,64.0,73.0
158,50.479146475,51.72740986458333,45.0,71.0
159,50.895812975,51.72740986458333,52.0,64.0
160,52.145812475,52.39407626458333,55.0,64.0
161,52.145812475,52.65449282708333,60.0,68.0
162,52.562478975,53.02949267708333,55.0,77.0
163,52.145812475,53.13365930208333,48.0,70.0
164,52.979145474999996,53.41317307916666,60.0,73.0
165,52.979145474999996,53.4270619625,64.0,78.0
166,53.395811974999994,53.7395618375,55.0,78.0
167,53.812478475,54.6978947875,62.0,73.0
168,54.229144975,54.791644749999996,57.0,62.0
169,53.812478475,54.85067250416667,50.0,78.0
170,54.645811474999995,55.10761684583333,65.0,79.0
171,55.062477975,55.53817222916666,62.0,75.0
172,55.479144475,55.88192209166667,67.0,71.0
173,56.312477474999994,56.611088466666665,55.0,81.0
174,55.895810974999996,56.61803290833333,50.0,71.0
175,55.479144475,56.76560229375,43.0,75.0
176,56.729143975,57.086782720833334,53.0,77.0
177,57.145810475,57.58851863125,64.0,71.0
178,57.145810475,57.631921391666665,60.0,63.0
179,57.562476974999996,58.04511567083333,55.0,53.0
180,57.145810475,58.100671204166666,48.0,77.0
181,57.979143474999994,58.21699060208333,67.0,74.0
182,57.979143474999994,58.256921141666666,64.0,73.0
183,58.395809975,58.52254603541667,60.0,59.0
184,58.812476475,59.07115692708333,59.0,67.0
185,58.812476475,59.22046242291666,62.0,72.0
186,59.229142974999995,59.75344832083333,50.0,63.0
187,59.645809475,59.770809424999996,59.0,71.0
188,59.645809475,59.777753866666664,55.0,68.0
189,59.645809475,59.8333094,62.0,72.0
190,58.812476475,59.92879547291666,43.0,71.0
191,60.479142474999996,60.968725612499995,57.0,63.0
192,60.479142474999996,60.97219783333333,53.0,63.0
193,60.895808974999994,61.374975449999994,48.0,58.0
194,60.479142474999996,61.47219763333333,41.0,77.0
195,61.312475475,61.473933743749996,57.0,73.0
196,61.312475475,61.5520587125,60.0,77.0
197,62.145808474999995,62.64407216458333,60.0,60.0
198,62.56247497499999,63.01559979375,55.0,66.0
199,62.145808474999995,63.064210885416664,48.0,73.0
200,62.979141475,63.07462754791666,60.0,67.0
201,62.979141475,63.11108586666666,64.0,78.0
202,63.812474474999995,64.27948817708332,60.0,72.0
203,64.22914097499999,64.70657133958333,55.0,73.0
204,63.812474474999995,64.79337686041666,48.0,71.0
205,64.645807475,64.82462684791666,60.0,71.0
206,64.645807475,64.92358514166666,64.0,77.0
207,65.062473975,65.60761264583333,55.0,75.0
208,65.479140475,65.91316807916667,59.0,66.0
209,65.479140475,65.93052918333333,62.0,64.0
210,65.895806975,66.5937233625,50.0,54.0
211,66.31247347499999,66.59719558333333,59.0,74.0
212,66.31247347499999,66.60761224583332,62.0,74.0
213,65.479140475,66.70136220833334,43.0,72.0
214,67.145806475,67.62150072916667,62.0,71.0
215,67.145806475,67.63191739166666,65.0,72.0
216,67.56247297499999,68.062472775,57.0,67.0
217,67.145806475,68.16143106874999,50.0,74.0
218,67.979139475,68.19615327708333,62.0,77.0
219,67.979139475,68.312472675,65.0,74.0
220,68.81247247499999,69.35934725624999,60.0,66.0
221,68.81247247499999,69.71872211249999,64.0,71.0
222,68.81247247499999,70.05552753333333,48.0,73.0
223,69.229138975,70.39754128541666,55.0,65.0
224,69.645805475,70.41143016875,60.0,73.0
225,70.479138475,71.37323533958333,62.0,73.0
226,70.89580497499999,71.52948527708332,57.0,63.0
227,71.312471475,71.90795734791666,65.0,77.0
228,71.729137975,72.35934605624999,57.0,65.0
229,72.14580447499999,72.55899875416667,69.0,73.0
230,72.14580447499999,72.58677652083333,65.0,77.0
231,72.562470975,73.10760964583334,57.0,60.0
232,70.479138475,73.37323453958334,50.0,78.0
233,72.979137475,73.39754008541667,62.0,73.0
234,73.39580397499999,73.78642881875,65.0,69.0
235,73.812470475,74.38017858125,60.0,68.0
236,74.229136975,74.62149792916667,55.0,71.0
237,73.812470475,74.65795624791666,64.0,77.0
238,73.812470475,74.80899785416666,48.0,75.0
239,74.645803475,75.25170601041667,60.0,77.0
240,75.062469975,75.36281707708333,64.0,66.0
241,75.47913647499999,75.90101130625,64.0,73.0
242,75.47913647499999,75.91490018958334,67.0,67.0
243,76.312469475,76.50691384166666,64.0,78.0
244,76.312469475,76.56767770625,60.0,76.0
245,75.47913647499999,76.67531655208333,48.0,72.0
246,75.895802975,76.69094154583333,55.0,63.0
247,76.72913597499999,77.01733030416666,59.0,71.0
248,76.72913597499999,77.09719138333332,62.0,74.0
249,77.145802475,77.75170501041666,60.0,72.0
250,77.145802475,78.03816322916666,57.0,64.0
251,77.97913547499999,78.27253813541667,60.0,77.0
252,77.97913547499999,78.31420478541666,64.0,73.0
253,77.145802475,78.39406586458333,45.0,71.0
254,77.562468975,78.39406586458333,52.0,64.0
255,78.812468475,79.06073226458332,55.0,64.0
256,78.812468475,79.32114882708333,60.0,68.0
257,79.229134975,79.69614867708333,55.0,77.0
258,78.812468475,79.80031530208333,48.0,70.0
259,79.645801475,80.07982907916666,60.0,73.0
260,79.645801475,80.0937179625,64.0,78.0
261,80.06246797499999,80.4062178375,55.0,78.0
262,80.479134475,81.3645507875,62.0,73.0
263,80.895800975,81.45830074999999,57.0,62.0
264,80.479134475,81.51732850416666,50.0,78.0
265,81.31246747499999,81.77427284583332,65.0,79.0
266,81.729133975,82.20482822916667,62.0,75.0
267,82.145800475,82.54857809166666,67.0,71.0
268,82.979133475,83.27774446666666,55.0,81.0
269,82.56246697499999,83.28468890833332,50.0,71.0
270,82.145800475,83.43225829375,43.0,75.0
271,83.39579997499999,83.75343872083333,53.0,77.0
272,83.812466475,84.24128574791666,60.0,76.0
273,83.812466475,84.31420238541666,64.0,78.0
274,84.229132975,84.77427164583332,55.0,42.0
275,83.812466475,84.79163274999999,48.0,83.0
276,84.64579947499999,84.80552163333333,60.0,75.0
277,84.64579947499999,85.04510487083333,64.0,73.0
278,84.64579947499999,85.11975761875,67.0,75.0
279,85.062465975,85.22045202291666,60.0,80.0
280,85.479132475,85.83503511041667,59.0,72.0
281,85.479132475,86.020798925,62.0,72.0
282,85.89579897499999,86.437465425,50.0,61.0
283,86.312465475,86.52774316666667,55.0,75.0
284,86.312465475,86.77427084583333,59.0,79.0
285,85.479132475,86.81420138541667,43.0,75.0
286,86.729131975,86.94961799791666,55.0,81.0
287,86.312465475,87.11107626666666,62.0,78.0
288,87.14579847499999,87.65795104791667,60.0,70.0
289,87.14579847499999,87.95656203958333,57.0,71.0
290,87.562464975,88.11628419791666,52.0,58.0
291,87.97913147499999,88.40274241666665,60.0,74.0
292,87.97913147499999,88.4270479625,64.0,77.0
293,88.395797975,88.93572831458333,52.0,73.0
294,88.812464475,89.40100590624999,57.0,74.0
295,88.812464475,89.40274201666666,60.0,76.0
296,89.645797475,90.07461674791666,64.0,78.0
297,89.645797475,90.09197785208333,60.0,72.0
298,87.14579847499999,90.11281117708333,45.0,77.0
299,89.22913097499999,90.14232505416666,52.0,72.0
300,90.062463975,90.39232495416667,62.0,75.0
301,90.47913047499999,90.73954703749999,55.0,65.0
302,90.47913047499999,91.15100520624999,64.0,77.0
303,90.895796975,91.40794954791666,55.0,72.0
304,91.312463475,91.73781052708333,60.0,76.0
305,91.312463475,91.90100490625,64.0,78.0
306,90.47913047499999,92.12149092916667,48.0,73.0
307,91.72912997499999,92.40794914791667,55.0,81.0
308,92.145796475,92.72392124375,62.0,74.0
309,92.145796475,92.73781012708334,59.0,72.0
310,92.979129475,93.20655993958333,55.0,77.0
311,92.979129475,93.41836541041665,59.0,78.0
312,92.56246297499999,93.67010142083333,50.0,62.0
313,92.145796475,93.68225419375,43.0,74.0
314,93.395795975,93.87149022916667,55.0,78.0
315,93.81246247499999,94.25517063125,67.0,71.0
316,93.81246247499999,94.27774006666667,64.0,75.0
317,93.81246247499999,94.43746222499999,48.0,78.0
318,94.229128975,94.58850383125,55.0,64.0
319,94.645795475,95.03989253958333,60.0,77.0
320,94.645795475,95.27947577708333,65.0,80.0
321,94.645795475,95.43398960416665,50.0,70.0
322,95.06246197499999,95.47565625416667,55.0,75.0
323,95.479128475,95.84023944166667,53.0,75.0
324,95.895794975,96.29336426041667,57.0,76.0
325,95.479128475,96.32635035833333,41.0,73.0
326,96.31246147499999,96.96523899166667,55.0,77.0
327,95.479128475,97.07808616874999,65.0,78.0
328,95.479128475,97.0937111625,69.0,78.0
329,96.31246147499999,97.14058614375,43.0,72.0
330,97.14579447499999,97.58850263125,64.0,71.0
331,97.14579447499999,97.63190539166666,60.0,63.0
332,97.562460975,98.04509967083332,55.0,53.0
333,97.14579447499999,98.10065520416666,48.0,77.0
334,97.979127475,98.21697460208333,67.0,74.0
335,97.979127475,98.25690514166666,64.0,73.0
336,98.39579397499999,98.52253003541666,60.0,59.0
337,98.812460475,99.07114092708333,59.0,67.0
338,98.812460475,99.22044642291667,62.0,72.0
339,99.229126975,99.75343232083333,50.0,63.0
340,99.64579347499999,99.770793425,59.0,71.0
341,99.64579347499999,99.77773786666666,55.0,68.0
342,99.64579347499999,99.83329339999999,62.0,72.0
343,98.812460475,99.92877947291666,43.0,71.0
344,100.479126475,100.96870961249999,57.0,63.0
345,100.479126475,100.97218183333332,53.0,63.0
346,100.89579297499999,101.37495944999999,48.0,58.0
347,100.479126475,101.47218163333332,41.0,77.0
348,101.312459475,101.47391774375,57.0,73.0
349,101.312459475,101.5520427125,60.0,77.0
350,102.145792475,102.64405616458333,60.0,60.0
351,102.562458975,103.01558379375,55.0,66.0
352,102.145792475,103.06419488541665,48.0,73.0
353,102.97912547499999,103.07461154791666,60.0,67.0
354,102.97912547499999,103.11106986666667,64.0,78.0
355,103.812458475,104.27947217708333,60.0,72.0
356,104.22912497499999,104.70655533958333,55.0,73.0
357,103.812458475,104.79336086041666,48.0,71.0
358,104.645791475,104.82461084791666,60.0,71.0
359,104.645791475,104.92356914166666,64.0,77.0
360,105.062457975,105.60759664583333,55.0,75.0
361,105.47912447499999,105.91315207916666,59.0,66.0
362,105.47912447499999,105.93051318333333,62.0,64.0
363,105.895790975,106.5937073625,50.0,54.0
364,106.31245747499999,106.59717958333333,59.0,74.0
365,106.31245747499999,106.60759624583332,62.0,74.0
366,105.47912447499999,106.70134620833333,43.0,72.0
367,107.145790475,107.62148472916667,62.0,71.0
368,107.145790475,107.63190139166666,65.0,72.0
369,107.56245697499999,108.062456775,57.0,67.0
370,107.145790475,108.16141506874999,50.0,74.0
371,107.979123475,108.19613727708332,62.0,77.0
372,107.979123475,108.31245667499999,65.0,74.0
373,108.81245647499999,109.35933125624999,60.0,66.0
374,108.81245647499999,109.71870611249999,64.0,71.0
375,108.81245647499999,110.05551153333333,48.0,73.0
376,109.229122975,110.39752528541666,55.0,65.0
377,109.645789475,110.41141416875,60.0,73.0
378,110.479122475,111.37321933958333,62.0,73.0
379,110.89578897499999,111.52946927708332,57.0,63.0
380,111.312455475,111.90794134791666,65.0,77.0
381,111.729121975,112.35933005624999,57.0,65.0
382,112.14578847499999,112.55898275416666,69.0,73.0
383,112.14578847499999,112.58676052083332,65.0,77.0
384,112.562454975,113.10759364583333,57.0,60.0
385,110.479122475,113.37321853958333,50.0,78.0
386,112.979121475,113.39752408541666,62.0,73.0
387,113.39578797499999,113.78641281875,65.0,69.0
388,113.812454475,114.38016258124999,60.0,68.0
389,114.229120975,114.62148192916666,55.0,71.0
390,113.812454475,114.65794024791666,64.0,77.0
391,113.812454475,114.80898185416666,48.0,75.0
392,114.64578747499999,115.25169001041667,60.0,77.0
393,115.062453975,115.36280107708333,64.0,66.0
394,115.47912047499999,115.90099530625,64.0,73.0
395,115.47912047499999,115.91488418958333,67.0,67.0
396,116.312453475,116.50689784166666,64.0,78.0
397,116.312453475,116.56766170625,60.0,76.0
398,115.47912047499999,116.67530055208333,48.0,72.0
399,115.895786975,116.69092554583332,55.0,63.0
400,116.72911997499999,117.01731430416666,59.0,71.0
401,116.72911997499999,117.09717538333332,62.0,74.0
402,117.145786475,117.75168901041665,60.0,72.0
403,117.145786475,118.03814722916665,57.0,64.0
404,117.97911947499999,118.27252213541666,60.0,77.0
405,117.97911947499999,118.31418878541666,64.0,73.0
406,117.145786475,118.39404986458332,45.0,71.0
407,117.562452975,118.39404986458332,52.0,64.0
408,118.812452475,119.06071626458332,55.0,64.0
409,118.812452475,119.32113282708333,60.0,68.0
410,119.22911897499999,119.69613267708333,55.0,77.0
411,118.812452475,119.80029930208333,48.0,70.0
412,119.645785475,120.07981307916666,60.0,73.0
413,119.645785475,120.09370196249999,64.0,78.0
414,120.06245197499999,120.40620183749999,55.0,78.0
415,120.47911847499999,121.36453478749999,62.0,73.0
416,120.895784975,121.45828474999999,57.0,62.0
417,120.47911847499999,121.51731250416665,50.0,78.0
418,121.31245147499999,121.77425684583332,65.0,79.0
419,121.729117975,122.20481222916666,62.0,75.0
420,122.145784475,122.54856209166665,67.0,71.0
421,122.979117475,123.27772846666666,55.0,81.0
422,122.56245097499999,123.28467290833332,50.0,71.0
423,122.145784475,123.43224229375,43.0,75.0
424,123.395783975,123.75342272083333,53.0,77.0
425,123.81245047499999,124.24126974791666,60.0,76.0
426,123.81245047499999,124.31418638541666,64.0,78.0
427,124.229116975,124.77425564583332,55.0,42.0
428,123.81245047499999,124.79161674999999,48.0,83.0
429,124.64578347499999,124.80550563333333,60.0,75.0
430,124.64578347499999,125.04508887083333,64.0,73.0
431,124.64578347499999,125.11974161875,67.0,75.0
432,125.06244997499999,125.22043602291666,60.0,80.0
433,125.479116475,125.83501911041667,59.0,72.0
434,125.479116475,126.02078292499999,62.0,72.0
435,125.89578297499999,126.437449425,50.0,61.0
436,126.312449475,126.52772716666666,55.0,75.0
437,126.312449475,126.77425484583333,59.0,79.0
438,125.479116475,126.81418538541666,43.0,75.0
439,126.729115975,126.94960199791666,55.0,81.0
440,126.312449475,127.11106026666666,62.0,78.0
441,127.14578247499999,127.65793504791667,60.0,70.0
442,127.14578247499999,127.95654603958333,57.0,71.0
443,127.562448975,128.11626819791667,52.0,58.0
444,127.97911547499999,128.40272641666667,60.0,74.0
445,127.97911547499999,128.4270319625,64.0,77.0
446,128.395781975,128.93571231458333,52.0,73.0
447,128.812448475,129.40098990625,57.0,74.0
448,128.812448475,129.40272601666666,60.0,76.0
449,129.645781475,130.07460074791666,64.0,78.0
450,129.645781475,130.09196185208333,60.0,72.0
451,127.14578247499999,130.1127951770833,45.0,77.0
452,129.229114975,130.14230905416667,52.0,72.0
453,130.062447975,130.39230895416665,62.0,75.0
454,130.479114475,130.7395310375,55.0,65.0
455,130.479114475,131.15098920625,64.0,77.0
456,130.89578097499998,131.40793354791666,55.0,72.0
457,131.312447475,131.73779452708334,60.0,76.0
458,131.312447475,131.90098890625,64.0,78.0
459,130.479114475,132.12147492916665,48.0,73.0
460,131.729113975,132.40793314791665,55.0,81.0
461,132.14578047499998,132.72390524374998,62.0,74.0
462,132.14578047499998,132.73779412708333,59.0,72.0
463,132.979113475,133.20654393958333,55.0,77.0
464,132.979113475,133.41834941041665,59.0,78.0
465,132.562446975,133.67008542083332,50.0,62.0
466,132.14578047499998,133.68223819374998,43.0,74.0
467,133.39577997499998,133.87147422916667,55.0,78.0
468,133.812446475,134.25515463124998,67.0,71.0
469,133.812446475,134.27772406666665,64.0,75.0
470,133.812446475,134.437446225,48.0,78.0
471,134.229112975,134.58848783125,55.0,64.0
472,134.64577947499998,135.03987653958333,60.0,77.0
473,134.64577947499998,135.27945977708333,65.0,80.0
474,134.64577947499998,135.43397360416665,50.0,70.0
475,135.062445975,135.47564025416665,55.0,75.0
476,135.479112475,135.84022344166667,53.0,75.0
477,135.89577897499998,136.29334826041665,57.0,76.0
478,135.479112475,136.32633435833333,41.0,73.0
479,136.312445475,136.96522299166665,55.0,77.0
480,135.479112475,137.07807016875,65.0,78.0
481,135.479112475,137.09369516249998,69.0,78.0
482,136.312445475,137.14057014374998,43.0,72.0
483,137.145778475,137.61973661874998,60.0,73.0
484,137.562444975,138.03293089791666,55.0,76.0
485,137.145778475,138.28813912916667,48.0,75.0
486,137.979111475,138.45133350833333,60.0,73.0
487,138.395777975,138.60584733541666,55.0,69.0
488,137.979111475,138.85758334583332,64.0,75.0
489,138.812444475,139.45480532916665,60.0,67.0
490,139.645777475,139.83154128958333,57.0,72.0
491,139.645777475,139.99299955833334,60.0,77.0
492,138.812444475,139.99647177916665,45.0,73.0
493,139.229110975,139.999944,52.0,63.0
494,140.479110475,140.9565408395833,55.0,70.0
495,140.479110475,141.37667956041665,59.0,72.0
496,141.31244347499998,141.77945717708332,55.0,79.0
497,140.479110475,141.9200821208333,43.0,76.0
498,140.895776975,141.979109875,50.0,63.0
499,141.729109975,142.1596653583333,59.0,78.0
500,142.145776475,142.55897075416667,57.0,67.0
501,142.145776475,142.80723454374998,45.0,77.0
502,142.56244297499998,142.94612337708332,52.0,72.0
503,142.145776475,142.98431780625,60.0,72.0
504,142.979109475,143.39403986458333,55.0,69.0
505,142.979109475,143.46522039166666,43.0,69.0
506,142.979109475,143.8228591375,59.0,69.0
507,143.81244247499998,144.67355324166667,53.0,62.0
508,143.81244247499998,144.68223379375,57.0,68.0
509,144.229108975,144.91660869999998,48.0,64.0
510,143.81244247499998,144.94612257708332,41.0,74.0
511,144.645775475,145.07459474791665,60.0,73.0
512,145.06244197499998,145.16313637916667,53.0,73.0
513,145.479108475,145.72216393333332,57.0,64.0
514,145.479108475,146.37494145,62.0,69.0
515,145.895774975,146.39751088541666,57.0,71.0
516,145.479108475,146.57459414791666,50.0,71.0
517,146.31244147499999,146.70133020833333,66.0,74.0
518,146.729107975,146.86973291875,57.0,77.0
519,147.145774475,147.9669547020833,62.0,73.0
520,147.145774475,148.60584333541667,43.0,73.0
521,147.562440975,148.68917663541666,50.0,67.0
522,147.97910747499998,148.89577377499998,55.0,78.0
523,148.395773975,149.7499401,62.0,73.0
524,148.812440475,149.78466230833334,67.0,64.0
525,149.645773475,150.42528705208332,59.0,67.0
526,149.22910697499998,150.46695370208332,50.0,56.0
527,148.812440475,150.47563425416666,43.0,68.0
528,150.47910647499998,150.95306461875,60.0,73.0
529,150.895772975,151.36625889791665,55.0,76.0
530,150.47910647499998,151.62146712916666,48.0,75.0
531,151.312439475,151.78466150833333,60.0,73.0
532,151.72910597499998,151.93917533541665,55.0,69.0
533,151.312439475,152.1909113458333,64.0,75.0
534,152.145772475,152.78813332916667,60.0,67.0
535,152.97910547499998,153.16486928958332,57.0,72.0
536,152.97910547499998,153.32632755833333,60.0,77.0
537,152.145772475,153.32979977916665,45.0,73.0
538,152.562438975,153.333272,52.0,63.0
539,153.812438475,154.28986883958333,55.0,70.0
540,153.812438475,154.71000756041667,59.0,72.0
541,154.645771475,155.11278517708334,55.0,79.0
542,153.812438475,155.25341012083334,43.0,76.0
543,154.22910497499998,155.312437875,50.0,63.0
544,155.062437975,155.49299335833334,59.0,78.0
545,155.47910447499999,155.89229875416666,57.0,67.0
546,155.47910447499999,156.14056254374998,45.0,77.0
547,155.895770975,156.27945137708332,52.0,72.0
548,155.47910447499999,156.31764580625,60.0,72.0
549,156.312437475,156.72736786458333,55.0,69.0
550,156.312437475,156.79854839166666,43.0,69.0
551,156.312437475,157.15618713749998,59.0,69.0
552,157.14577047499998,158.00688124166666,53.0,62.0
553,157.14577047499998,158.01556179374998,57.0,68.0
554,157.562436975,158.24993669999998,48.0,64.0
555,157.14577047499998,158.27945057708334,41.0,74.0
556,157.979103475,158.40792274791667,60.0,73.0
557,158.39576997499998,158.49646437916667,53.0,73.0
558,158.812436475,159.05549193333331,57.0,64.0
559,158.812436475,159.70826945,62.0,69.0
560,159.229102975,159.73083888541666,57.0,71.0
561,158.812436475,159.90792214791665,50.0,71.0
562,159.64576947499998,160.03465820833333,66.0,74.0
563,160.062435975,160.20306091875,57.0,77.0
564,160.479102475,161.30028270208334,62.0,73.0
565,160.479102475,161.93917133541666,43.0,73.0
566,160.89576897499998,162.02250463541665,50.0,67.0
567,161.312435475,162.229101775,55.0,78.0
568,161.729101975,163.0832681,62.0,73.0
569,162.14576847499998,163.11799030833333,67.0,64.0
570,162.979101475,163.75861505208331,59.0,67.0
571,162.562434975,163.8002817020833,50.0,56.0
572,162.14576847499998,163.80896225416666,43.0,68.0
573,163.812434475,164.25514263124998,64.0,71.0
574,163.812434475,164.29854539166666,60.0,63.0
575,164.229100975,164.71173967083334,55.0,53.0
576,163.812434475,164.76729520416666,48.0,77.0
577,164.64576747499999,164.88361460208333,67.0,74.0
578,164.64576747499999,164.92354514166666,64.0,73.0
579,165.062433975,165.18917003541665,60.0,59.0
580,165.479100475,165.73778092708332,59.0,67.0
581,165.479100475,165.88708642291667,62.0,72.0
582,165.895766975,166.42007232083333,50.0,63.0
583,166.31243347499998,166.437433425,59.0,71.0
584,166.31243347499998,166.44437786666666,55.0,68.0
585,166.31243347499998,166.4999334,62.0,72.0
586,165.479100475,166.59541947291666,43.0,71.0
587,167.145766475,167.6353496125,57.0,63.0
588,167.145766475,167.63882183333334,53.0,63.0
589,167.56243297499998,168.04159944999998,48.0,58.0
590,167.145766475,168.13882163333332,41.0,77.0
591,167.979099475,168.14055774374998,57.0,73.0
592,167.979099475,168.2186827125,60.0,77.0
593,168.81243247499998,169.31069616458333,60.0,60.0
594,169.229098975,169.68222379374998,55.0,66.0
595,168.81243247499998,169.73083488541667,48.0,73.0
596,169.645765475,169.74125154791665,60.0,67.0
597,169.645765475,169.77770986666667,64.0,78.0
598,170.479098475,170.94611217708334,60.0,72.0
599,170.895764975,171.37319533958333,55.0,73.0
600,170.479098475,171.46000086041667,48.0,71.0
601,171.31243147499998,171.49125084791666,60.0,71.0
602,171.31243147499998,171.59020914166666,64.0,77.0
603,171.729097975,172.27423664583333,55.0,75.0
604,172.145764475,172.57979207916665,59.0,66.0
605,172.145764475,172.59715318333332,62.0,64.0
606,172.56243097499998,173.2603473625,50.0,54.0
607,172.979097475,173.26381958333332,59.0,74.0
608,172.979097475,173.27423624583332,62.0,74.0
609,172.145764475,173.36798620833332,43.0,72.0
610,173.81243047499999,174.28812472916667,62.0,71.0
611,173.81243047499999,174.29854139166665,65.0,72.0
612,174.229096975,174.729096775,57.0,67.0
613,173.81243047499999,174.82805506875,50.0,74.0
614,174.645763475,174.86277727708332,62.0,77.0
615,174.645763475,174.979096675,65.0,74.0
616,175.47909647499998,176.02597125625,60.0,66.0
617,175.47909647499998,176.3853461125,64.0,71.0
618,175.47909647499998,176.72215153333332,48.0,73.0
619,175.895762975,177.06416528541666,55.0,65.0
620,176.312429475,177.07805416875,60.0,73.0
621,177.145762475,178.03985933958333,62.0,73.0
622,177.562428975,178.19610927708334,57.0,63.0
623,177.97909547499998,178.57458134791665,65.0,77.0
624,178.395761975,179.02597005625,57.0,65.0
625,178.812428475,179.22562275416666,69.0,73.0
626,178.812428475,179.2534005208333,65.0,77.0
627,179.22909497499998,179.77423364583333,57.0,60.0
628,177.145762475,180.03985853958332,50.0,78.0
629,179.645761475,180.06416408541665,62.0,73.0
630,180.062427975,180.45305281875,65.0,69.0
631,180.47909447499998,181.04680258124998,60.0,68.0
632,180.895760975,181.28812192916666,55.0,71.0
633,180.47909447499998,181.32458024791666,64.0,77.0
634,180.47909447499998,181.47562185416666,48.0,75.0
635,181.312427475,181.91833001041667,60.0,77.0
636,181.72909397499998,182.02944107708333,64.0,66.0
637,182.145760475,182.56763530625,64.0,73.0
638,182.145760475,182.58152418958332,67.0,67.0
639,182.97909347499998,183.17353784166664,64.0,78.0
640,182.97909347499998,183.23430170625,60.0,76.0
641,182.145760475,183.34194055208332,48.0,72.0
642,182.562426975,183.35756554583332,55.0,63.0
643,183.395759975,183.68395430416666,59.0,71.0
644,183.395759975,183.76381538333334,62.0,74.0
645,183.812426475,184.41832901041667,60.0,72.0
646,183.812426475,184.70478722916667,57.0,64.0
647,184.64575947499998,184.93916213541667,60.0,77.0
648,184.64575947499998,184.98082878541666,64.0,73.0
649,183.812426475,185.0606898645833,45.0,71.0
650,184.229092975,185.0606898645833,52.0,64.0
651,185.479092475,185.72735626458334,55.0,64.0
652,185.479092475,185.98777282708332,60.0,68.0
653,185.89575897499998,186.3627726770833,55.0,77.0
654,185.479092475,186.46693930208332,48.0,70.0
655,186.312425475,186.74645307916666,60.0,73.0
656,186.312425475,186.76034196249998,64.0,78.0
657,186.729091975,187.0728418375,55.0,78.0
658,187.14575847499998,188.0311747875,62.0,73.0
659,187.562424975,188.12492475,57.0,62.0
660,187.14575847499998,188.18395250416665,50.0,78.0
661,187.979091475,188.44089684583332,65.0,79.0
662,188.39575797499998,188.87145222916666,62.0,75.0
663,188.812424475,189.21520209166667,67.0,71.0
664,189.64575747499998,189.94436846666665,55.0,81.0
665,189.229090975,189.95131290833334,50.0,71.0
666,188.812424475,190.09888229375,43.0,75.0
667,190.062423975,190.42006272083333,53.0,77.0
668,190.479090475,190.90790974791665,60.0,76.0
669,190.479090475,190.98082638541666,64.0,78.0
670,190.89575697499998,191.44089564583334,55.0,42.0
671,190.479090475,191.45825675,48.0,83.0
672,191.312423475,191.47214563333333,60.0,75.0
673,191.312423475,191.71172887083333,64.0,73.0
674,191.312423475,191.78638161875,67.0,75.0
675,191.729089975,191.88707602291666,60.0,80.0
676,192.14575647499998,192.50165911041665,59.0,72.0
677,192.14575647499998,192.687422925,62.0,72.0
678,192.56242297499998,193.10408942499998,50.0,61.0
679,192.979089475,193.19436716666667,55.0,75.0
680,192.979089475,193.44089484583333,59.0,79.0
681,192.14575647499998,193.48082538541667,43.0,75.0
682,193.395755975,193.61624199791666,55.0,81.0
683,192.979089475,193.77770026666667,62.0,78.0
684,193.81242247499998,194.32457504791665,60.0,70.0
685,193.81242247499998,194.62318603958332,57.0,71.0
686,194.229088975,194.78290819791667,52.0,58.0
687,194.645755475,195.06936641666667,60.0,74.0
688,194.645755475,195.0936719625,64.0,77.0
689,195.06242197499998,195.60235231458333,52.0,73.0
690,195.479088475,196.06762990624998,57.0,74.0
691,195.479088475,196.06936601666666,60.0,76.0
692,196.31242147499998,196.74124074791666,64.0,78.0
693,196.31242147499998,196.75860185208333,60.0,72.0
694,193.81242247499998,196.77943517708331,45.0,77.0
695,195.895754975,196.80894905416665,52.0,72.0
696,196.729087975,197.05894895416665,62.0,75.0
697,197.145754475,197.4061710375,55.0,65.0
698,197.145754475,197.81762920625,64.0,77.0
699,197.56242097499998,198.07457354791666,55.0,72.0
700,197.979087475,198.4044345270833,60.0,76.0
701,197.979087475,198.56762890624998,64.0,78.0
702,197.145754475,198.78811492916665,48.0,73.0
703,198.395753975,199.07457314791665,55.0,81.0
704,198.81242047499998,199.39054524374998,62.0,74.0
705,198.81242047499998,199.40443412708333,59.0,72.0
706,199.645753475,199.87318393958333,55.0,77.0
707,199.645753475,200.08498941041665,59.0,78.0
708,199.229086975,200.33672542083332,50.0,62.0
709,198.81242047499998,200.34887819374998,43.0,74.0
710,200.06241997499998,200.53811422916667,55.0,78.0
711,200.479086475,201.11450288749998,57.0,73.0
712,200.479086475,201.12144732916664,60.0,72.0
713,200.895752975,201.44436386666666,52.0,70.0
714,201.31241947499998,201.80547483333334,60.0,77.0
715,201.31241947499998,201.99471086875,57.0,77.0
716,201.72908597499998,202.26554409374998,52.0,73.0
717,202.145752475,202.62665506041665,60.0,79.0
718,202.145752475,202.64054394374998,64.0,80.0
719,200.479086475,202.80200221249999,45.0,77.0
720,202.56241897499999,202.89227995416667,57.0,79.0
721,202.97908547499998,203.20998816041666,55.0,79.0
722,202.97908547499998,203.50859915208332,59.0,78.0
723,203.395751975,203.8228351375,50.0,72.0
724,202.97908547499998,203.82977957916665,43.0,77.0
725,203.812418475,204.24123774791664,60.0,76.0
726,203.812418475,204.31415438541666,64.0,78.0
727,204.22908497499998,204.77422364583333,55.0,42.0
728,203.812418475,204.79158475,48.0,83.0
729,204.645751475,204.80547363333332,60.0,75.0
730,204.645751475,205.04505687083332,64.0,73.0
731,204.645751475,205.11970961875,67.0,75.0
732,205.062417975,205.22040402291665,60.0,80.0
733,205.47908447499998,205.83498711041665,59.0,72.0
734,205.47908447499998,206.020750925,62.0,72.0
735,205.895750975,206.43741742499998,50.0,61.0
736,206.312417475,206.52769516666666,55.0,75.0
737,206.312417475,206.77422284583332,59.0,79.0
738,205.47908447499998,206.81415338541666,43.0,75.0
739,206.72908397499998,206.94956999791665,55.0,81.0
740,206.312417475,207.11102826666666,62.0,78.0
741,207.145750475,207.65790304791665,60.0,70.0
742,207.145750475,207.9565140395833,57.0,71.0
743,207.562416975,208.11623619791666,52.0,58.0
744,207.97908347499998,208.40269441666666,60.0,74.0
745,207.97908347499998,208.4269999625,64.0,77.0
746,208.395749975,208.93568031458332,52.0,73.0
747,208.812416475,209.40095790625,57.0,74.0
748,208.812416475,209.40269401666666,60.0,76.0
749,209.645749475,210.07456874791666,64.0,78.0
750,209.645749475,210.09192985208333,60.0,72.0
751,207.145750475,210.1127631770833,45.0,77.0
752,209.22908297499998,210.14227705416667,52.0,72.0
753,210.062415975,210.39227695416665,62.0,75.0
754,210.47908247499998,210.7394990375,55.0,65.0
755,210.47908247499998,211.15095720624998,64.0,77.0
756,210.89574897499998,211.40790154791665,55.0,72.0
757,211.312415475,211.73776252708333,60.0,76.0
758,211.312415475,211.90095690625,64.0,78.0
759,210.47908247499998,212.12144292916665,48.0,73.0
760,211.72908197499999,212.40790114791665,55.0,81.0
761,212.14574847499998,212.72387324374998,62.0,74.0
762,212.14574847499998,212.73776212708333,59.0,72.0
763,212.979081475,213.20651193958332,55.0,77.0
764,212.979081475,213.41831741041665,59.0,78.0
765,212.562414975,213.6700534208333,50.0,62.0
766,212.14574847499998,213.68220619374998,43.0,74.0
767,213.39574797499998,213.87144222916666,55.0,78.0
768,213.812414475,214.24123374791665,60.0,76.0
769,213.812414475,214.31415038541667,64.0,78.0
770,214.229080975,214.7742196458333,55.0,42.0
771,213.812414475,214.79158074999998,48.0,83.0
772,214.64574747499998,214.80546963333333,60.0,75.0
773,214.64574747499998,215.04505287083333,64.0,73.0
774,214.64574747499998,215.11970561874998,67.0,75.0
775,215.062413975,215.22040002291666,60.0,80.0
776,215.479080475,215.83498311041666,59.0,72.0
777,215.479080475,216.020746925,62.0,72.0
778,215.89574697499998,216.437413425,50.0,61.0
779,216.312413475,216.52769116666664,55.0,75.0
780,216.312413475,216.77421884583333,59.0,79.0
781,215.479080475,216.81414938541664,43.0,75.0
782,216.729079975,216.94956599791666,55.0,81.0
783,216.312413475,217.11102426666665,62.0,78.0
784,217.14574647499998,217.65789904791666,60.0,70.0
785,217.14574647499998,217.95651003958332,57.0,71.0
786,217.562412975,218.11623219791664,52.0,58.0
787,217.979079475,218.40269041666664,60.0,74.0
788,217.979079475,218.4269959625,64.0,77.0
789,218.39574597499998,218.93567631458333,52.0,73.0
790,218.812412475,219.40095390624998,57.0,74.0
791,218.812412475,219.40269001666667,60.0,76.0
792,219.64574547499998,220.07456474791667,64.0,78.0
793,219.64574547499998,220.09192585208334,60.0,72.0
794,217.14574647499998,220.11275917708332,45.0,77.0
795,219.229078975,220.14227305416665,52.0,72.0
796,220.06241197499997,220.39227295416666,62.0,75.0
797,221.40095310625,222.11102226666665,53.0,78.0
798,220.51206457291664,222.13185559166666,41.0,77.0
799,220.97560605416666,222.1648416895833,48.0,61.0
800,221.88011958125,222.2117166708333,57.0,82.0
801,222.52942487708333,224.00685484166667,50.0,68.0
802,222.33671662083333,224.17352144166665,43.0,76.0
803,222.78636921875,224.79157675,67.0,68.0
804,222.57109152708333,224.79678508125,55.0,63.0
805,222.65442482708332,224.8019934125,59.0,71.0
806,222.74470256875,224.82803506874998,62.0,66.0
807,225.36622929791665,225.62664586041666,50.0,69.0
808,225.59539587291667,225.7585902520833,52.0,70.0
809,225.85060410416665,225.9999096,55.0,70.0
810,226.187409525,226.40789554791667,60.0,74.0
811,226.57456214791665,226.92352034166666,62.0,71.0
812,227.11275637708331,227.27942297708333,60.0,61.0
813,227.1075480458333,227.29852019166665,64.0,71.0
814,225.11102106666667,227.3992145958333,43.0,57.0
815,224.76553509374997,227.70650613958333,36.0,77.0
816,228.22386704374998,229.05199171249998,64.0,62.0
817,228.15095040625,229.05720004375,60.0,58.0
818,228.17178373124997,229.09886669374998,43.0,61.0
819,228.27595035624998,229.104075025,67.0,60.0
820,228.03983933958332,229.15095000624999,36.0,43.0
