,start,end,pitch,velocity
0,19.4028914375,19.661819870833334,68.0,83.0
1,19.670748437500002,20.0256589625,70.0,79.0
2,19.9386054375,20.363828425,72.0,84.0
3,20.4743194375,20.700881816666666,72.0,85.0
4,20.7421764375,21.0636048375,70.0,83.0
5,21.010033437500002,21.600434908333334,72.0,86.0
6,21.5457474375,21.86271155416667,75.0,86.0
7,21.8136044375,23.264496520833333,72.0,86.0
8,23.6886034375,23.974317570833335,70.0,85.0
9,23.956460437500002,24.296862041666667,72.0,85.0
10,24.2243174375,24.632799362500002,75.0,87.0
11,24.7600314375,25.043513429166666,75.0,89.0
12,25.0278884375,25.343736483333334,72.0,85.0
13,25.2957454375,25.886146908333334,75.0,92.0
14,25.8314594375,26.141727129166668,77.0,82.0
15,26.0993164375,27.570297795833334,75.0,89.0
16,27.9743154375,28.320297395833336,72.0,85.0
17,28.242172437500003,28.56918119166667,75.0,90.0
18,28.510029437500002,28.892841733333334,77.0,84.0
19,29.0457434375,29.283466525,77.0,89.0
20,29.3136004375,29.618287775000002,75.0,87.0
21,29.5814574375,30.158466058333335,77.0,89.0
22,30.1171714375,30.449760545833335,80.0,86.0
23,30.3850284375,31.9519918875,77.0,86.0
24,32.2600274375,32.55243799583334,75.0,91.0
25,32.5278844375,32.81136642916667,77.0,86.0
26,32.7957414375,33.22766085,80.0,84.0
27,33.331455437500004,33.56024995833334,80.0,81.0
28,33.599312437500004,33.92966940416667,77.0,86.0
29,33.8671694375,34.4028834375,80.0,86.0
30,34.4028834375,34.995517050000004,84.0,85.0
31,34.9385974375,36.38837345,82.0,81.0
32,36.8135964375,37.08480165,70.0,86.0
33,37.0814534375,37.470962158333336,82.0,86.0
34,37.6171674375,38.123863595833335,82.0,88.0
35,38.1528814375,38.58480085,80.0,86.0
36,38.6885954375,39.2577915625,80.0,85.0
37,39.224309437500004,40.8582371375,77.0,74.0
38,41.0993084375,41.425201120833336,77.0,87.0
39,41.3671654375,41.78122771666667,80.0,85.0
40,41.902879437500005,42.44082557916667,80.0,85.0
41,42.4385934375,42.6260933375,77.0,86.0
42,42.7064504375,43.51225357916667,77.0,85.0
43,43.5100214375,45.06247596666667,75.0,86.0
44,45.3850204375,45.70979705,75.0,87.0
45,45.6528774375,46.06582364583333,77.0,86.0
46,46.1885914375,46.653992975,77.0,86.0
47,46.7243054375,46.88390356666667,75.0,85.0
48,46.9921624375,47.77006380833333,75.0,86.0
49,47.795733437500004,49.52229501666667,72.0,81.0
50,49.6707324375,49.92966087083334,72.0,89.0
51,49.9385894375,50.341491008333335,75.0,92.0
52,50.474303437500005,50.9999728,75.0,87.0
53,51.010017437500004,51.22653517916667,72.0,85.0
54,51.2778744375,52.05577580833334,72.0,86.0
55,52.0814454375,53.59037320416667,70.0,81.0
56,53.688587437500004,53.947515870833335,68.0,83.0
57,53.956444437500004,54.311354962500005,70.0,79.0
58,54.2243014375,54.649524425,72.0,84.0
59,54.7600154375,54.98657781666667,72.0,85.0
60,55.0278724375,55.3493008375,70.0,83.0
61,55.2957294375,55.886130908333335,72.0,86.0
62,55.8314434375,56.14840755416667,75.0,86.0
63,56.0993004375,57.550192520833335,72.0,86.0
64,57.9742994375,58.26001357083334,70.0,85.0
65,58.2421564375,58.582558041666665,72.0,85.0
66,58.5100134375,58.9184953625,75.0,87.0
67,59.313584437500005,59.62943248333333,72.0,85.0
68,59.581441437500004,60.17184290833333,75.0,92.0
69,60.1171554375,60.42742312916667,77.0,82.0
70,60.3850124375,61.855993795833335,75.0,89.0
71,62.260011437500005,62.60599339583334,72.0,85.0
72,62.527868437500004,62.85487719166667,75.0,90.0
73,62.7957254375,63.178537733333336,77.0,84.0
74,63.3314394375,63.569162525,77.0,89.0
75,63.5992964375,63.903983775,75.0,87.0
76,63.8671534375,64.44416205833333,77.0,89.0
77,64.4028674375,64.73545654583333,80.0,86.0
78,64.6707244375,66.2376878875,77.0,86.0
79,66.5457234375,66.83813399583333,75.0,91.0
80,66.81358043750001,67.09706242916667,77.0,86.0
81,67.0814374375,67.34706229583334,80.0,84.0
82,67.3492944375,67.61491929583333,80.0,84.0
83,67.6171514375,67.84594595833333,80.0,81.0
84,67.8850084375,68.21536540416668,77.0,86.0
85,68.1528654375,68.6885794375,80.0,86.0
86,68.6885794375,69.28121305,84.0,85.0
87,69.22429343750001,70.67406945,82.0,81.0
88,71.0992924375,71.37049765,70.0,86.0
89,71.3671494375,71.75665815833334,82.0,86.0
90,71.9028634375,72.16848829583334,82.0,88.0
91,72.17072043750001,72.43634529583333,82.0,88.0
92,72.4385774375,72.87049685000001,80.0,86.0
93,72.9742914375,73.5434875625,80.0,85.0
94,73.5100054375,75.1439331375,77.0,74.0
95,75.3850044375,75.71089712083334,77.0,87.0
96,75.65286143750001,76.06692371666666,80.0,85.0
97,76.1885754375,76.45420029583333,80.0,85.0
98,76.4564324375,76.72205729583334,80.0,85.0
99,76.7242894375,77.25777129583334,77.0,86.0
100,77.2600034375,77.79794957916667,77.0,85.0
101,77.7957174375,79.34817196666667,75.0,86.0
102,79.6707164375,79.99549305000001,75.0,87.0
103,79.9385734375,80.35151964583333,77.0,86.0
104,80.4742874375,80.73991229583334,77.0,86.0
105,80.7421444375,81.00776929583334,77.0,86.0
106,81.01000143750001,81.54348329583334,75.0,85.0
107,81.54571543750001,82.07919729583334,75.0,86.0
108,82.0814294375,83.68633929583333,72.0,81.0
109,83.6885714375,83.95419629583334,70.0,86.0
110,83.95642843750001,84.21535687083333,72.0,89.0
111,84.2242854375,84.48991029583334,75.0,92.0
112,84.49214243750001,84.75776729583333,75.0,92.0
113,84.7599994375,85.02562429583334,75.0,87.0
114,85.0278564375,85.29348129583333,75.0,87.0
115,85.2957134375,85.82919529583333,72.0,85.0
116,85.8314274375,86.34147180833334,72.0,86.0
117,86.36714143750001,87.87606920416667,70.0,81.0
118,87.9742834375,88.23321187083333,68.0,83.0
119,88.2421404375,88.5970509625,70.0,79.0
120,88.5099974375,88.935220425,72.0,84.0
121,89.0457114375,89.27227381666667,72.0,85.0
122,89.31356843750001,89.6349968375,70.0,83.0
123,89.5814254375,90.11490729583333,72.0,86.0
124,90.1171394375,90.38276429583334,72.0,86.0
125,90.3849964375,90.70196055416667,70.0,86.0
126,90.6528534375,91.18633529583333,72.0,86.0
127,91.1885674375,91.45419229583334,75.0,86.0
128,91.4564244375,91.98990629583334,72.0,86.0
129,92.25999543750001,92.54570957083334,70.0,85.0
130,92.5278524375,92.86825404166667,72.0,85.0
131,92.79570943750001,93.2041913625,75.0,87.0
132,93.3314234375,93.61490542916667,75.0,89.0
133,93.5992804375,93.91512848333333,72.0,85.0
134,93.8671374375,94.13276229583333,75.0,92.0
135,94.1349944375,94.40061929583334,75.0,92.0
136,94.4028514375,94.66847629583333,75.0,82.0
137,94.6707084375,94.93633329583334,72.0,82.0
138,94.9385654375,95.20419029583334,75.0,86.0
139,95.20642243750001,95.73990429583334,77.0,86.0
140,95.74213643750001,96.54347529583333,75.0,89.0
141,96.5457074375,96.89168939583334,72.0,85.0
142,96.8135644375,97.14057319166668,75.0,90.0
143,97.0814214375,97.46423373333333,77.0,84.0
144,97.6171354375,97.854858525,77.0,89.0
145,97.8849924375,98.189679775,75.0,87.0
146,98.15284943750001,98.68633129583334,77.0,89.0
147,98.68856343750001,98.92628652500001,77.0,89.0
148,98.9564204375,99.261107775,75.0,87.0
149,99.2242774375,99.48990229583333,77.0,89.0
150,99.4921344375,100.02561629583333,80.0,86.0
151,100.0278484375,100.82918729583334,77.0,86.0
152,100.8314194375,101.12382999583333,75.0,91.0
153,101.09927643750001,101.38275842916667,77.0,86.0
154,101.3671334375,101.79905285000001,80.0,84.0
155,101.9028474375,102.13164195833333,80.0,81.0
156,102.1707044375,102.50106140416666,77.0,86.0
157,102.4385614375,102.9742754375,80.0,86.0
158,102.9742754375,103.56690905,84.0,85.0
159,103.5099894375,104.95976545,82.0,81.0
160,105.3849884375,105.65619365,70.0,86.0
161,105.6528454375,106.04235415833334,82.0,86.0
162,106.1885594375,106.69525559583333,82.0,88.0
163,106.7242734375,107.15619285,80.0,86.0
164,107.2599874375,107.8291835625,80.0,85.0
165,107.7957014375,109.4296291375,77.0,74.0
166,109.6707004375,109.99659312083334,77.0,87.0
167,109.93855743750001,110.35261971666667,80.0,85.0
168,110.47427143750001,111.01221757916667,80.0,85.0
169,111.0099854375,111.54346729583334,77.0,85.0
170,111.5456994375,112.08364557916667,77.0,85.0
171,112.0814134375,113.63386796666667,75.0,86.0
172,114.2242694375,114.63721564583334,77.0,86.0
173,114.7599834375,115.225384975,77.0,86.0
174,115.29569743750001,115.82917929583334,75.0,85.0
175,115.83141143750001,116.36489329583334,75.0,85.0
176,116.36712543750001,118.09368701666666,72.0,81.0
177,118.5099814375,118.91288300833334,75.0,92.0
178,119.0456954375,119.5713648,75.0,87.0
179,119.5814094375,120.11489129583333,72.0,85.0
180,120.1171234375,120.65060529583334,72.0,86.0
181,120.6528374375,122.16176520416667,70.0,81.0
182,122.25997943750001,122.51890787083333,68.0,83.0
183,122.5278364375,122.88274696250001,70.0,79.0
184,122.7956934375,123.220916425,72.0,84.0
185,123.3314074375,123.55796981666667,72.0,85.0
186,123.5992644375,123.9206928375,70.0,83.0
187,123.8671214375,124.40060329583333,72.0,86.0
188,124.4028354375,124.66846029583334,72.0,86.0
189,124.67069243750001,124.98765655416668,70.0,86.0
190,124.9385494375,125.47203129583333,72.0,86.0
191,125.4742634375,125.73988829583334,75.0,86.0
192,125.7421204375,126.27560229583334,72.0,86.0
193,126.5456914375,126.83140557083334,70.0,85.0
194,126.8135484375,127.15395004166668,72.0,85.0
195,127.08140543750001,127.4898873625,75.0,87.0
196,127.61711943750001,127.90060142916667,75.0,89.0
197,127.8849764375,128.20082448333335,72.0,85.0
198,128.1528334375,128.41845829583335,75.0,92.0
199,128.4206904375,128.68631529583334,75.0,92.0
200,128.6885474375,128.95417229583333,75.0,82.0
201,128.9564044375,129.22202929583332,72.0,82.0
202,129.2242614375,129.48988629583334,75.0,86.0
203,129.4921184375,130.02560029583333,77.0,86.0
204,130.0278324375,130.82917129583333,75.0,89.0
205,130.8314034375,131.17738539583334,72.0,85.0
206,131.0992604375,131.36488529583335,75.0,90.0
207,131.3671174375,131.74992973333335,77.0,84.0
208,131.9028314375,132.140554525,77.0,89.0
209,132.1706884375,132.475375775,75.0,87.0
210,132.4385454375,132.97202729583333,77.0,89.0
211,132.9742594375,133.211982525,77.0,89.0
212,133.24211643750002,133.546803775,75.0,87.0
213,133.5099734375,133.77559829583333,77.0,89.0
214,133.7778304375,134.31131229583335,80.0,86.0
215,134.3135444375,135.11488329583335,77.0,86.0
216,135.1171154375,135.40952599583335,75.0,91.0
217,135.3849724375,135.66845442916667,77.0,86.0
218,135.6528294375,136.08474885,80.0,84.0
219,136.18854343750002,136.41733795833335,80.0,81.0
220,136.4564004375,136.78675740416668,77.0,86.0
221,136.7242574375,137.2599714375,80.0,86.0
222,137.2599714375,137.85260505,84.0,85.0
223,137.7956854375,139.24546145,82.0,81.0
224,139.6706844375,139.94188965,70.0,86.0
225,139.9385414375,140.32805015833333,82.0,86.0
226,140.4742554375,140.98095159583335,82.0,88.0
227,141.00996943750002,141.44188885,80.0,86.0
228,141.5456834375,142.1148795625,80.0,85.0
229,142.08139743750002,143.7153251375,77.0,74.0
230,144.2242534375,144.63831571666668,80.0,85.0
231,144.7599674375,145.29791357916667,80.0,85.0
232,145.2956814375,145.82916329583333,77.0,85.0
233,145.8313954375,146.36934157916667,77.0,85.0
234,146.3671094375,147.91956396666666,75.0,86.0
235,148.5099654375,148.92291164583332,77.0,86.0
236,149.0456794375,149.511080975,77.0,86.0
237,149.5813934375,150.11487529583334,75.0,85.0
238,150.1171074375,150.65058929583333,75.0,85.0
239,150.6528214375,152.37938301666668,72.0,81.0
240,152.79567743750002,153.19857900833333,75.0,92.0
241,153.3313914375,153.8570608,75.0,87.0
242,153.86710543750002,154.40058729583333,72.0,85.0
243,154.4028194375,154.93630129583335,72.0,86.0
244,154.9385334375,156.44746120416667,70.0,81.0
245,157.0813894375,157.47089815833334,82.0,86.0
246,157.6171034375,158.12379959583333,82.0,88.0
247,158.1528174375,158.58473685,80.0,86.0
248,158.68853143750002,159.2577275625,80.0,85.0
249,159.2242454375,160.85817313750002,77.0,74.0
250,161.3671014375,161.78116371666667,80.0,85.0
251,161.9028154375,162.44076157916666,80.0,85.0
252,162.4385294375,162.97201129583334,77.0,85.0
253,162.9742434375,163.51218957916666,77.0,85.0
254,163.5099574375,165.06241196666667,75.0,86.0
255,165.65281343750001,166.06575964583334,77.0,86.0
256,166.1885274375,166.653928975,77.0,86.0
257,166.7242414375,167.25772329583333,75.0,85.0
258,167.2599554375,167.79343729583334,75.0,85.0
259,167.7956694375,169.52223101666667,72.0,81.0
260,169.9385254375,170.34142700833334,75.0,92.0
261,170.47423943750002,170.99990880000001,75.0,87.0
262,171.0099534375,171.54343529583335,72.0,85.0
263,171.54566743750001,172.07914929583333,72.0,86.0
264,172.0813814375,173.59030920416666,70.0,81.0
265,174.2242374375,174.61374615833333,82.0,86.0
266,174.7599514375,175.26664759583335,82.0,88.0
267,175.2956654375,175.72758485,80.0,86.0
268,175.8313794375,176.4005755625,80.0,85.0
269,176.36709343750002,178.0010211375,77.0,74.0
270,178.5099494375,178.92401171666668,80.0,85.0
271,179.0456634375,179.58360957916668,80.0,85.0
272,179.5813774375,180.11485929583333,77.0,85.0
273,180.1170914375,180.65503757916667,77.0,85.0
274,180.6528054375,182.20525996666666,75.0,86.0
275,182.7956614375,183.20860764583333,77.0,86.0
276,183.33137543750001,183.796776975,77.0,86.0
277,183.8670894375,184.40057129583334,75.0,85.0
278,184.4028034375,184.93628529583333,75.0,85.0
279,184.9385174375,186.66507901666668,72.0,81.0
280,187.08137343750002,187.48427500833333,75.0,92.0
281,187.6170874375,188.1427568,75.0,87.0
282,188.15280143750002,188.68628329583333,72.0,85.0
283,188.6885154375,189.22199729583335,72.0,86.0
284,189.22422943750001,190.73315720416667,70.0,81.0
285,191.3670854375,191.75659415833334,82.0,86.0
286,191.9027994375,192.40949559583333,82.0,88.0
287,192.4385134375,192.87043285000001,80.0,86.0
288,192.97422743750002,193.5434235625,80.0,85.0
289,193.5099414375,195.14386913750002,77.0,74.0
290,195.6527974375,196.06685971666667,80.0,85.0
291,196.1885114375,196.72645757916666,80.0,85.0
292,196.7242254375,197.25770729583334,77.0,85.0
293,197.2599394375,197.79788557916666,77.0,85.0
294,197.7956534375,199.34810796666667,75.0,86.0
295,199.93850943750002,200.35145564583334,77.0,86.0
296,200.4742234375,200.93962497500002,77.0,86.0
297,201.0099374375,201.54341929583333,75.0,85.0
298,201.5456514375,202.07913329583334,75.0,85.0
299,202.0813654375,203.80792701666667,72.0,81.0
300,204.2242214375,204.783372925,75.0,87.0
301,205.0277924375,205.75212240833335,75.0,86.0
302,205.5635064375,206.4943095125,72.0,81.0
303,206.3670774375,207.9742194375,75.0,87.0
304,208.5099334375,213.10144884583335,77.0,85.0
