,start,end,pitch,velocity
0,29.88353225833333,30.232846983333328,69.0,108.0
1,30.29449075833333,30.722572529166662,71.0,88.0
2,30.705449258333328,31.761955068749995,66.0,103.0
3,31.93832475833333,32.318461370833326,69.0,108.0
4,32.34928325833333,32.67291307708333,71.0,93.0
5,32.76024175833333,33.09585786666666,66.0,93.0
6,33.17120025833333,33.493117749999996,64.0,93.0
7,33.58215875833333,33.946884427083326,66.0,93.0
8,33.99311725833333,35.023938162499995,62.0,88.0
9,36.458868258333325,36.84071719791666,62.0,78.0
10,36.86982675833333,37.1814702875,64.0,73.0
11,37.28078525833333,37.83900388749999,66.0,108.0
12,38.51366075833333,38.91605762291666,74.0,108.0
13,38.92461925833333,39.296194235416664,71.0,103.0
14,39.33557775833333,39.60955009166666,69.0,103.0
15,39.74653625833333,39.94174154583333,69.0,108.0
16,40.15749475833333,40.52735740833333,66.0,108.0
17,40.56845325833333,41.96057517708333,64.0,108.0
18,43.034204258333325,43.438313449999995,64.0,93.0
19,43.445162758333325,43.82016238958333,66.0,98.0
20,43.856121258333324,44.72598341666666,69.0,98.0
21,45.08899675833333,45.441736137499994,66.0,98.0
22,45.49995525833333,46.48968031249999,69.0,98.0
23,47.14378925833333,47.481117693749994,74.0,108.0
24,47.55474775833333,47.81330914791666,76.0,98.0
25,47.96570625833333,48.25851418958333,76.0,93.0
26,48.37666475833333,48.72769181041666,73.0,98.0
27,48.787623258333326,49.54275950208333,71.0,108.0
28,49.609540258333325,49.95543032916666,71.0,98.0
29,50.020498758333325,50.35269021249999,74.0,98.0
30,50.431457258333324,50.71056657291666,76.0,98.0
31,50.842415758333324,51.465702816666656,76.0,108.0
32,51.66433275833332,51.921181820833326,73.0,108.0
33,52.07529125833333,52.43145529166666,71.0,98.0
34,52.48624975833333,53.16604361041666,73.0,103.0
35,53.30816675833333,53.604399343749996,71.0,108.0
36,53.71912525833333,55.31501409999999,69.0,80.0
37,56.184876258333325,56.534190983333325,69.0,108.0
38,56.595834758333325,57.02391652916666,71.0,88.0
39,57.006793258333325,58.06329906874999,66.0,103.0
40,58.23966875833332,58.619805370833326,69.0,108.0
41,58.65062725833332,58.97425707708332,71.0,93.0
42,59.06158575833332,59.397201866666656,66.0,93.0
43,59.47254425833332,59.79446174999999,64.0,93.0
44,59.88350275833333,60.248228427083326,66.0,93.0
45,60.29446125833333,62.330418160416656,62.0,88.0
46,62.760212258333326,63.14206119791666,62.0,78.0
47,63.171170758333325,63.48281428749999,64.0,73.0
48,63.582129258333325,64.14034788749998,66.0,108.0
49,64.81500475833333,65.21740162291665,74.0,108.0
50,65.22596325833332,65.59753823541666,71.0,103.0
51,65.63692175833333,65.91089409166666,69.0,103.0
52,66.04788025833332,66.24308554583332,69.0,108.0
53,66.45883875833333,66.82870140833333,66.0,108.0
54,66.86979725833332,68.85095969374999,64.0,108.0
55,69.33554825833332,69.73965745,64.0,93.0
56,69.74650675833333,70.12150638958333,66.0,98.0
57,70.15746525833332,71.02732741666665,69.0,98.0
58,71.39034075833332,71.74308013749999,66.0,98.0
59,71.80129925833333,73.44513325833333,69.0,98.0
60,73.44513325833333,73.78246169375,74.0,108.0
61,73.85609175833332,74.11465314791666,76.0,98.0
62,74.26705025833333,74.55985818958332,76.0,93.0
63,74.67800875833332,75.02903581041666,73.0,98.0
64,75.08896725833333,75.84410350208333,71.0,108.0
65,75.91088425833333,76.25677432916666,71.0,98.0
66,76.32184275833332,76.6540342125,74.0,98.0
67,76.73280125833332,77.01191057291666,76.0,98.0
68,77.14375975833332,77.31670479374999,76.0,108.0
69,77.55471825833332,77.76019750833332,76.0,103.0
70,77.96567675833332,78.22252582083333,73.0,108.0
71,78.37663525833332,78.73279929166665,71.0,98.0
72,78.78759375833333,79.01019627916665,71.0,93.0
73,78.99307300833333,79.37663427499999,73.0,83.0
74,79.60951075833333,79.90574334374999,71.0,108.0
75,80.02046925833332,81.61635809999999,74.0,80.0
76,82.48622025833332,82.74991862916666,74.0,98.0
77,82.89717875833333,83.13005524166665,76.0,108.0
78,83.30813725833332,84.07868444583332,78.0,108.0
79,84.54101275833332,84.83724534374998,76.0,108.0
80,84.95197125833332,85.31840925416665,78.0,108.0
81,85.36292975833332,85.65231303541665,76.0,98.0
82,85.77388825833332,86.14717556249998,66.0,88.0
83,86.18484675833332,86.50162726874998,69.0,103.0
84,86.59580525833333,87.10094174791665,71.0,108.0
85,89.06155625833333,89.42628192708332,76.0,108.0
86,89.47251475833332,89.74135011041666,74.0,108.0
87,89.88347325833332,90.60436296041665,76.0,108.0
88,91.11634875833332,91.37833480208332,74.0,108.0
89,91.52730725833332,91.84922474999999,66.0,108.0
90,91.93826575833332,92.28929281041665,66.0,108.0
91,92.34922425833332,92.62490891875,73.0,108.0
92,92.76018275833331,93.05299068958332,71.0,76.0
93,93.17114125833332,95.63689225833332,69.0,108.0
94,95.63689225833332,95.94339880624999,62.0,108.0
95,96.04785075833333,96.33209705416665,64.0,108.0
96,96.45880925833332,97.34408236041665,66.0,108.0
97,97.69168475833332,97.95367080208332,69.0,103.0
98,98.10264325833332,98.43997169374998,69.0,108.0
99,98.92456025833332,99.18140932083332,69.0,108.0
100,99.33551875833332,99.62147738124999,66.0,108.0
101,99.74647725833331,100.12147688958332,71.0,108.0
102,100.15743575833332,100.72592834999999,74.0,108.0
103,100.97935275833332,101.18654433541666,73.0,108.0
104,101.39031125833333,101.71736573124998,71.0,108.0
105,102.21222825833333,102.53585807708332,69.0,98.0
106,102.62318675833332,102.94852890416665,71.0,108.0
107,103.03414525833333,103.76702124999998,74.0,108.0
108,104.26702075833332,104.52386982083333,74.0,108.0
109,104.67797925833332,105.00332140416666,74.0,108.0
110,105.08893775833332,105.33208820416665,71.0,98.0
111,105.49989625833332,105.69510154583332,78.0,108.0
112,105.70537550833332,105.90743010416665,76.0,108.0
113,105.91085475833331,106.26016948333331,74.0,108.0
114,106.32181325833332,107.85092134374999,76.0,108.0
115,108.78756425833332,109.05126262916666,74.0,98.0
116,109.19852275833333,109.43139924166665,76.0,108.0
117,109.60948125833332,110.38002844583332,78.0,108.0
118,110.84235675833332,111.13858934374998,76.0,108.0
119,111.25331525833332,111.61975325416665,78.0,108.0
120,111.66427375833332,111.95365703541665,76.0,98.0
121,112.07523225833332,112.44851956249998,66.0,88.0
122,112.48619075833332,112.80297126874999,69.0,103.0
123,112.89714925833331,114.86118842291665,71.0,108.0
124,115.36290025833331,115.72762592708332,76.0,108.0
125,115.77385875833332,116.04269411041665,74.0,108.0
126,116.18481725833331,116.90570696041665,76.0,108.0
127,117.41769275833332,117.67967880208332,74.0,108.0
128,117.82865125833332,118.15056874999999,66.0,108.0
129,118.23960975833332,118.59063681041665,66.0,108.0
130,118.65056825833332,118.92625291874998,73.0,108.0
131,119.06152675833332,119.35433468958331,71.0,76.0
132,119.47248525833332,121.93823625833332,69.0,108.0
133,121.93823625833332,122.24474280624999,62.0,108.0
134,122.34919475833331,122.63344105416665,64.0,108.0
135,122.76015325833332,123.64542636041665,66.0,108.0
136,123.99302875833332,124.25501480208332,69.0,103.0
137,124.40398725833332,124.74131569374998,69.0,108.0
138,125.22590425833332,125.48275332083331,69.0,108.0
139,125.63686275833332,125.92282138124999,66.0,108.0
140,126.04782125833331,126.42282088958332,71.0,108.0
141,126.45877975833332,127.02727234999999,74.0,108.0
142,127.28069675833332,127.48788833541666,73.0,108.0
143,127.69165525833331,128.01870973124997,71.0,108.0
144,128.5135722583333,128.8372020770833,69.0,98.0
145,128.9245307583333,129.24987290416664,71.0,108.0
146,129.33548925833333,130.06836524999997,74.0,108.0
147,130.1574062583333,130.3885704145833,74.0,103.0
148,130.5683647583333,130.7687070270833,78.0,108.0
149,130.97932325833332,131.280692825,76.0,103.0
150,131.39028175833332,131.89541824791664,74.0,108.0
151,132.21219875833333,132.53240392291664,71.0,93.0
152,132.62315725833332,134.24815566041664,74.0,108.0
153,161.3902522583333,161.7395669833333,69.0,108.0
154,161.8012107583333,162.22929252916666,71.0,88.0
155,162.21216925833332,163.26867506874999,66.0,103.0
156,163.44504475833332,163.82518137083332,69.0,108.0
157,163.85600325833332,164.1796330770833,71.0,93.0
158,164.2669617583333,164.60257786666665,66.0,93.0
159,164.6779202583333,164.99983774999998,64.0,93.0
160,165.08887875833332,165.45360442708332,66.0,93.0
161,165.49983725833332,167.53579416041666,62.0,88.0
162,167.9655882583333,168.34743719791663,62.0,78.0
163,168.37654675833332,168.68819028749996,64.0,73.0
164,168.7875052583333,169.3457238875,66.0,108.0
165,170.02038075833332,170.42277762291664,74.0,108.0
166,170.4313392583333,170.80291423541664,71.0,103.0
167,170.8422977583333,171.11627009166665,69.0,103.0
168,171.25325625833332,171.4484615458333,69.0,108.0
169,171.66421475833332,172.0340774083333,66.0,108.0
170,172.0751732583333,174.05633569375,64.0,108.0
171,174.54092425833332,174.94503344999998,64.0,93.0
172,174.9518827583333,175.32688238958332,66.0,98.0
173,175.3628412583333,176.23270341666665,69.0,98.0
174,176.5957167583333,176.9484561375,66.0,98.0
175,177.0066752583333,178.6505092583333,69.0,98.0
176,178.6505092583333,178.98783769374998,74.0,108.0
177,179.06146775833332,179.32002914791664,76.0,98.0
178,179.47242625833331,179.7652341895833,76.0,93.0
179,179.8833847583333,180.23441181041665,73.0,98.0
180,180.2943432583333,181.0494795020833,71.0,108.0
181,181.1162602583333,181.46215032916663,71.0,98.0
182,181.5272187583333,181.85941021249997,74.0,98.0
183,181.9381772583333,182.21728657291663,76.0,98.0
184,182.34913575833332,182.52208079374998,76.0,108.0
185,182.7600942583333,182.9655735083333,76.0,103.0
186,183.1710527583333,183.4279018208333,73.0,108.0
187,183.5820112583333,183.93817529166665,71.0,98.0
188,183.99296975833332,184.21557227916665,71.0,93.0
189,184.1984490083333,184.582010275,73.0,83.0
190,184.8148867583333,185.11111934374998,71.0,108.0
191,185.22584525833332,186.8217341,74.0,80.0
192,187.6915962583333,187.95529462916664,74.0,98.0
193,188.1025547583333,188.33543124166664,76.0,108.0
194,188.51351325833332,189.28406044583332,78.0,108.0
195,189.7463887583333,190.04262134374997,76.0,108.0
196,190.15734725833332,190.52378525416665,78.0,108.0
197,190.5683057583333,190.85768903541666,76.0,98.0
198,190.9792642583333,191.35255156249997,66.0,88.0
199,191.3902227583333,191.70700326875,69.0,103.0
200,191.80118125833332,192.30631774791664,71.0,108.0
201,194.2669322583333,194.6316579270833,76.0,108.0
202,194.67789075833332,194.94672611041665,74.0,108.0
203,195.0888492583333,195.80973896041664,76.0,108.0
204,196.32172475833332,196.58371080208332,74.0,108.0
205,196.7326832583333,197.05460074999996,66.0,108.0
206,197.1436417583333,197.49466881041664,66.0,108.0
207,197.5546002583333,197.83028491874998,73.0,108.0
208,197.96555875833332,198.2583666895833,71.0,76.0
209,198.3765172583333,200.84226825833332,69.0,108.0
210,200.84226825833332,201.14877480624997,62.0,108.0
211,201.2532267583333,201.53747305416664,64.0,108.0
212,201.6641852583333,202.54945836041665,66.0,108.0
213,202.8970607583333,203.1590468020833,69.0,103.0
214,203.3080192583333,203.64534769374998,69.0,108.0
215,204.12993625833332,204.3867853208333,69.0,108.0
216,204.5408947583333,204.82685338124998,66.0,108.0
217,204.9518532583333,205.3268528895833,71.0,108.0
218,205.3628117583333,205.93130434999998,74.0,108.0
219,206.1847287583333,206.39192033541664,73.0,108.0
220,206.5956872583333,206.92274173124997,71.0,108.0
221,207.4176042583333,207.7412340770833,69.0,98.0
222,207.8285627583333,208.15390490416664,71.0,108.0
223,208.2395212583333,208.97239724999997,74.0,108.0
224,209.4723967583333,209.7292458208333,74.0,108.0
225,209.8833552583333,210.20869740416663,74.0,108.0
226,210.29431375833332,210.53746420416664,71.0,98.0
227,210.7052722583333,210.9004775458333,78.0,108.0
228,210.9107515083333,211.11280610416665,76.0,108.0
229,211.1162307583333,211.4655454833333,74.0,108.0
230,211.5271892583333,213.05629734374997,76.0,108.0
231,213.9929402583333,214.25663862916664,74.0,98.0
232,214.4038987583333,214.63677524166664,76.0,108.0
233,214.8148572583333,215.5854044458333,78.0,108.0
234,216.0477327583333,216.34396534374997,76.0,108.0
235,216.45869125833332,216.82512925416663,78.0,108.0
236,216.8696497583333,217.15903303541663,76.0,98.0
237,217.2806082583333,217.65389556249997,66.0,88.0
238,217.6915667583333,218.00834726874996,69.0,103.0
239,218.10252525833332,220.06656442291663,71.0,108.0
240,220.5682762583333,220.9330019270833,76.0,108.0
241,220.9792347583333,221.24807011041665,74.0,108.0
242,221.3901932583333,222.11108296041664,76.0,108.0
243,222.62306875833332,222.88505480208332,74.0,108.0
244,223.0340272583333,223.35594474999996,66.0,108.0
245,223.4449857583333,223.79601281041664,66.0,108.0
246,223.8559442583333,224.13162891874998,73.0,108.0
247,224.26690275833332,224.5597106895833,71.0,76.0
248,224.6778612583333,227.1436122583333,69.0,108.0
249,227.1436122583333,227.45011880624998,62.0,108.0
250,227.5545707583333,227.83881705416664,64.0,108.0
251,227.9655292583333,228.85080236041662,66.0,108.0
252,229.1984047583333,229.4603908020833,69.0,103.0
253,229.6093632583333,229.94669169374998,69.0,108.0
254,230.43128025833332,230.6881293208333,69.0,108.0
255,230.8422387583333,231.12819738124998,66.0,108.0
256,231.2531972583333,231.6281968895833,71.0,108.0
257,231.6641557583333,232.23264834999998,74.0,108.0
258,232.4860727583333,232.69326433541664,73.0,108.0
259,232.8970312583333,233.22408573124997,71.0,108.0
260,233.7189482583333,234.0425780770833,69.0,98.0
261,234.1299067583333,234.45524890416664,71.0,108.0
262,234.5408652583333,235.27374124999997,74.0,108.0
263,235.3627822583333,235.5939464145833,74.0,103.0
264,235.7737407583333,235.9740830270833,78.0,108.0
265,236.1846992583333,236.48606882499996,76.0,103.0
266,236.5956577583333,237.10079424791664,74.0,108.0
267,237.4175747583333,237.73777992291664,71.0,93.0
268,237.8285332583333,239.45353166041664,74.0,108.0
269,240.2942842583333,240.6179140770833,69.0,98.0
270,240.7052427583333,241.03058490416663,71.0,108.0
271,241.1162012583333,241.84907724999997,74.0,108.0
272,241.9381182583333,242.1692824145833,74.0,103.0
273,242.3490767583333,242.5494190270833,78.0,108.0
274,242.7600352583333,243.06140482499995,76.0,103.0
275,243.1709937583333,243.8953081145833,74.0,108.0
276,243.7874315083333,246.1812647708333,71.0,80.0
277,246.2531825083333,250.58023304791664,74.0,98.0
