,start,end,pitch,velocity
0,5.226022258333333,6.2071856770833325,50.0,72.0
1,4.404105258333333,6.890404183333333,38.0,89.0
2,4.8150637583333324,6.895541164583332,45.0,61.0
3,5.6369807583333325,6.976020537499999,57.0,63.0
4,6.4588977583333325,7.017116387499999,50.0,60.0
5,6.869856258333332,7.7174581645833324,62.0,93.0
6,6.047939258333333,7.744855397916665,66.0,88.0
7,7.2808147583333325,7.753417033333332,61.0,63.0
8,8.924648758333332,9.422935939583333,62.0,64.0
9,8.102731758333332,9.619853554166665,54.0,67.0
10,8.513690258333332,9.741428777083332,59.0,73.0
11,9.746565758333332,10.220880360416665,54.0,99.0
12,7.691773258333332,10.337318602083332,47.0,71.0
13,9.335607258333333,10.993139874999999,66.0,127.0
14,10.157524258333332,11.066769939583331,62.0,88.0
15,10.568482758333332,11.07019459375,59.0,75.0
16,11.801358258333332,12.854439414583332,52.0,78.0
17,12.212316758333332,13.467452510416665,55.0,79.0
18,10.979441258333331,13.506836033333332,40.0,81.0
19,11.390399758333333,13.518822322916664,47.0,56.0
20,13.03423375833333,13.589027733333332,52.0,71.0
21,13.856150758333332,14.265396931249999,55.0,73.0
22,13.445192258333332,14.320191397916664,59.0,76.0
23,12.623275258333331,14.340739322916665,64.0,92.0
24,15.499984758333332,15.984573322916665,61.0,93.0
25,15.910943258333331,16.04450477083333,64.0,90.0
26,15.089026258333332,16.52224402708333,57.0,93.0
27,16.321901758333333,16.71744931458333,69.0,76.0
28,14.67806775833333,16.857860135416665,52.0,69.0
29,14.267109258333331,16.898955985416663,45.0,81.0
30,17.14381875833333,17.58388681875,69.0,95.0
31,18.37669425833333,19.421213779166663,54.0,92.0
32,17.55477725833333,20.10271995833333,42.0,93.0
33,17.96573575833333,20.111281593749997,49.0,64.0
34,18.78765275833333,20.114706247916665,57.0,93.0
35,19.60956975833333,20.172925368749997,54.0,90.0
36,19.19861125833333,20.83559595,66.0,117.0
37,20.43148675833333,20.844157585416664,57.0,93.0
38,20.020528258333332,20.854431547916665,61.0,122.0
39,21.66436225833333,22.724292722916665,59.0,90.0
40,22.07532075833333,23.25168946458333,62.0,95.0
41,22.89723775833333,23.26538808125,59.0,92.0
42,21.25340375833333,23.340730472916665,54.0,73.0
43,20.84244525833333,23.393812612499996,47.0,89.0
44,23.30819625833333,24.152373510416663,66.0,107.0
45,22.48627925833333,24.169496781249997,71.0,99.0
46,23.71915475833333,24.183195397916663,62.0,96.0
47,24.54107175833333,25.304769637499998,47.0,47.0
48,24.13011325833333,25.308194291666663,40.0,93.0
49,24.95203025833333,25.479426999999998,52.0,99.0
50,25.36298875833333,25.78935820208333,55.0,100.0
51,26.59586425833333,26.86983659166666,57.0,85.0
52,26.18490575833333,26.943466656249996,52.0,72.0
53,25.77394725833333,26.969151562499995,45.0,96.0
54,27.00682275833333,27.47428805208333,61.0,96.0
55,26.59586425833333,27.511959247916664,64.0,97.0
56,28.23969825833333,30.17634018958333,50.0,93.0
57,27.41778125833333,30.609558941666663,38.0,81.0
58,29.06161525833333,30.611271268749995,66.0,79.0
59,29.06161525833333,30.63010686666666,62.0,88.0
60,28.65065675833333,30.678052024999996,57.0,93.0
61,27.82873975833333,30.705449258333328,45.0,59.0
62,31.52736625833333,32.56503647083333,50.0,85.0
63,30.705449258333328,33.02565245624999,38.0,83.0
64,31.11640775833333,33.05647434375,45.0,49.0
65,31.93832475833333,33.18318654791666,57.0,75.0
66,32.76024175833333,33.24483032291666,50.0,82.0
67,33.58215875833333,34.00167889375,57.0,69.0
68,33.17120025833333,34.04448707083333,62.0,59.0
69,32.34928325833333,34.07188430416666,66.0,97.0
70,34.81503425833333,35.383526849999996,59.0,83.0
71,35.22599275833333,35.71058132291666,62.0,62.0
72,34.40407575833333,35.90578661041666,54.0,58.0
73,36.047909758333326,36.43660800625,54.0,73.0
74,33.99311725833333,36.575306499999996,47.0,74.0
75,35.636951258333326,37.273935949999995,66.0,102.0
76,36.458868258333325,37.31503179999999,62.0,88.0
77,36.86982675833333,37.32359343541666,59.0,72.0
78,38.10270225833333,39.190029956249994,55.0,81.0
79,39.33557775833333,39.594139147916664,55.0,75.0
80,38.51366075833333,39.79276908958333,59.0,76.0
81,37.28078525833333,39.93660456458333,43.0,82.0
82,37.69174375833333,39.979412741666664,50.0,46.0
83,38.92461925833333,40.55817929583333,67.0,95.0
84,39.74653625833333,40.60441212708333,62.0,77.0
85,40.15749475833333,40.60612445416666,59.0,76.0
86,41.39037025833333,41.914342345833326,57.0,89.0
87,41.80132875833333,42.220848893749995,61.0,96.0
88,40.97941175833333,42.36810902291666,52.0,61.0
89,42.623245758333326,43.068450799999994,52.0,82.0
90,40.56845325833333,43.13351922916666,45.0,74.0
91,43.034204258333325,43.892080127083325,61.0,122.0
92,43.445162758333325,43.910915724999995,59.0,70.0
93,42.212287258333326,43.910915724999995,64.0,99.0
94,44.67803825833333,45.688311237499995,54.0,89.0
95,44.267079758333324,46.26707779166666,49.0,66.0
96,43.856121258333324,46.299612006249994,42.0,95.0
97,45.91091375833333,46.38351603333333,54.0,78.0
98,45.08899675833333,46.39892697708333,57.0,76.0
99,45.49995525833333,47.123241333333326,66.0,107.0
100,46.73283075833333,47.157487874999994,57.0,85.0
101,46.32187225833333,47.16091252916666,61.0,107.0
102,47.96570625833333,48.39721268333333,59.0,89.0
103,47.55474775833333,48.44515784166666,54.0,73.0
104,47.14378925833333,48.4828290375,47.0,82.0
105,48.37666475833333,48.78419860416666,62.0,99.0
106,49.198581758333326,49.71056755624999,56.0,79.0
107,48.787623258333326,49.861252339583324,44.0,99.0
108,49.609540258333325,50.493101033333325,59.0,88.0
109,50.020498758333325,50.4965256875,62.0,86.0
110,51.253374258333324,52.376660824999995,52.0,70.0
111,52.48624975833333,52.73796183958333,52.0,53.0
112,50.842415758333324,52.87323567916666,47.0,65.0
113,50.431457258333324,52.93145479999999,40.0,72.0
114,51.66433275833332,52.95542737916666,55.0,75.0
115,53.30816675833333,53.86981004166666,55.0,83.0
116,52.89720825833333,53.88864563958332,59.0,78.0
117,52.07529125833333,53.96570035833333,64.0,89.0
118,54.13008375833333,54.90405559999999,40.0,58.0
119,53.71912525833333,54.95371308541666,33.0,88.0
120,54.54104225833333,55.511931714583326,45.0,86.0
121,54.95200075833333,56.00850656874999,52.0,95.0
122,55.773917758333326,56.457136264583326,49.0,56.0
123,56.595834758333325,57.006793258333325,52.0,79.0
124,56.184876258333325,57.006793258333325,57.0,77.0
125,55.362959258333326,57.006793258333325,61.0,107.0
126,57.006793258333325,58.47254524166666,38.0,97.0
127,57.417751758333324,58.66775052916666,45.0,43.0
128,57.828710258333324,58.679736818749994,50.0,88.0
129,58.23966875833332,59.224256831249996,62.0,78.0
130,58.65062725833332,59.56158526666666,38.0,88.0
131,59.06158575833332,59.66432489166666,45.0,58.0
132,59.47254425833332,59.85953017916666,50.0,66.0
133,59.88350275833333,60.32185849166666,57.0,79.0
134,57.828710258333324,60.36637899583332,66.0,112.0
135,59.47254425833332,60.397200883333326,62.0,89.0
136,60.29446125833333,61.82528167083333,47.0,78.0
137,60.70541975833333,61.99137739791666,54.0,75.0
138,61.52733675833333,62.43144545833332,59.0,90.0
139,61.11637825833333,62.50336319583332,66.0,102.0
140,62.349253758333326,62.75678760416666,54.0,90.0
141,61.938295258333326,62.96740383541666,47.0,86.0
142,62.760212258333326,63.57014296874999,66.0,112.0
143,63.171170758333325,63.57870460416666,45.0,112.0
144,63.582129258333325,65.11466199791666,43.0,67.0
145,64.81500475833333,65.25849747291666,55.0,82.0
146,63.993087758333324,65.27562074375,50.0,74.0
147,64.40404625833332,65.486236975,62.0,86.0
148,65.22596325833332,66.21740063958332,43.0,89.0
149,65.63692175833333,66.47253737499999,50.0,69.0
150,66.04788025833332,66.80815348333333,62.0,99.0
151,66.45883875833333,66.84582467916665,55.0,95.0
152,66.86979725833332,68.40404232499999,45.0,93.0
153,68.30815200833332,68.41774094166665,50.0,33.0
154,67.28075575833333,68.57527503333333,52.0,81.0
155,68.10267275833333,68.9691102625,57.0,92.0
156,68.51363125833332,69.42972624791666,45.0,83.0
157,68.92458975833333,69.44342486458332,52.0,86.0
158,67.69171425833332,70.10780777291666,64.0,96.0
159,69.33554825833332,70.24136928541665,61.0,102.0
160,70.15746525833332,71.67972403541665,42.0,99.0
161,70.56842375833332,71.83725812708333,49.0,70.0
162,70.97938225833333,71.87664165,54.0,88.0
163,70.97938225833333,72.49136707291666,66.0,97.0
164,71.39034075833332,72.55129852083333,61.0,97.0
165,69.74650675833333,72.55472317499999,57.0,95.0
166,72.21225775833332,72.99136658124999,49.0,55.0
167,71.80129925833333,73.00677752499999,42.0,82.0
168,72.62321625833333,73.07527060833333,54.0,81.0
169,73.03417475833332,73.43143464166666,57.0,97.0
170,72.62321625833333,73.55643451875,66.0,107.0
171,73.44513325833333,74.93657014791665,47.0,95.0
172,73.85609175833332,75.11978914583332,54.0,93.0
173,74.26705025833333,75.66088450416666,66.0,122.0
174,74.67800875833332,75.71054198958332,62.0,93.0
175,75.49992575833332,76.03759646249999,54.0,97.0
176,75.08896725833333,76.19513055416665,47.0,95.0
177,75.91088425833333,76.55300691458332,66.0,127.0
178,76.32184275833332,76.77903408958332,59.0,102.0
179,77.14375975833332,77.64033461249998,47.0,73.0
180,76.73280125833332,77.65917021041666,40.0,97.0
181,77.55471825833332,78.27218330624999,55.0,92.0
182,77.55471825833332,78.27560796041665,59.0,93.0
183,77.96567675833332,78.75334721666665,52.0,100.0
184,78.37663525833332,79.32868911666665,33.0,95.0
185,78.78759375833333,79.40060685416665,40.0,62.0
186,79.19855225833332,79.50848346041666,45.0,89.0
187,79.19855225833332,79.97766108124999,57.0,99.0
188,79.60951075833333,79.97937340833332,52.0,96.0
189,79.19855225833332,80.01704460416666,61.0,117.0
190,81.04786550833332,81.27046802916665,50.0,96.0
191,80.84238625833332,81.41430350416665,52.0,112.0
192,81.45882400833332,81.50505683958332,52.0,33.0
193,81.25334475833333,81.52902941874999,54.0,117.0
194,80.02046925833332,81.53587872708333,38.0,107.0
195,81.45882400833332,81.6471799875,57.0,102.0
196,80.43142775833333,81.71053608958333,45.0,88.0
197,82.07526175833333,82.55471334166666,50.0,97.0
198,82.28074100833332,82.75334328333332,57.0,100.0
199,82.69169950833333,82.87663083333332,50.0,122.0
200,81.66430325833332,83.15745247499999,38.0,102.0
201,82.48622025833332,83.19854832499999,66.0,127.0
202,81.86978250833332,83.28074002499999,45.0,97.0
203,82.89717875833333,83.32183587499999,62.0,117.0
204,83.10265800833332,83.32354820208332,57.0,107.0
205,84.13005425833332,84.77046458749999,50.0,78.0
206,83.30813725833332,84.77560156874999,38.0,82.0
207,83.71909575833332,84.94854660416665,45.0,45.0
208,84.13005425833332,85.52046384999998,62.0,102.0
209,84.54101275833332,85.54786108333332,57.0,93.0
210,84.13005425833332,85.5512857375,66.0,112.0
211,85.36292975833332,86.00334008749999,45.0,48.0
212,84.95197125833332,86.02902499374999,38.0,88.0
213,85.77388825833332,86.15573719791665,50.0,89.0
214,85.77388825833332,86.58724362291666,62.0,100.0
215,86.18484675833332,86.60779154791666,57.0,86.0
216,85.77388825833332,86.61977783749998,66.0,117.0
217,86.59580525833333,87.65916037708332,47.0,95.0
218,87.00676375833332,87.75162603958333,54.0,83.0
219,87.82868075833332,87.89888616874998,54.0,50.0
220,87.82868075833332,88.03416000833332,47.0,69.0
221,87.41772225833333,88.74477574791665,62.0,107.0
222,87.41772225833333,88.76874832708332,59.0,95.0
223,87.41772225833333,88.83039210208332,66.0,100.0
224,88.65059775833332,89.15573424791666,54.0,95.0
225,88.23963925833333,89.24648758333332,47.0,95.0
226,89.06155625833333,89.73963778333332,66.0,122.0
227,89.06155625833333,89.90573351041665,62.0,96.0
228,89.47251475833332,90.0512813125,59.0,97.0
229,90.70539025833332,91.13518435625,52.0,76.0
230,89.88347325833332,91.16771857083332,40.0,90.0
231,90.29443175833332,91.52901958541665,47.0,57.0
232,90.70539025833332,91.99990953333332,64.0,93.0
233,90.70539025833332,92.01360814999998,67.0,90.0
234,91.11634875833332,92.05299167291666,59.0,96.0
235,91.52730725833332,92.80641558958332,40.0,88.0
236,91.93826575833332,92.84408678541665,47.0,51.0
237,92.34922425833332,93.1129221375,52.0,85.0
238,92.34922425833332,93.18826452916666,64.0,96.0
239,92.34922425833332,93.19511383749999,67.0,92.0
240,92.76018275833331,93.22251107083332,59.0,79.0
241,93.17114125833332,94.19168819999999,45.0,92.0
242,93.58209975833331,94.29442782499999,52.0,88.0
243,94.40401675833333,94.65230418541665,45.0,86.0
244,93.99305825833332,94.94682444374999,57.0,86.0
245,93.99305825833332,95.11976947916665,61.0,127.0
246,93.99305825833332,95.22764608541665,64.0,96.0
247,95.22593375833333,95.75675515416665,52.0,93.0
248,94.81497525833332,95.76360446249998,45.0,89.0
249,95.63689225833332,96.37319290416666,64.0,97.0
250,95.63689225833332,96.49990510833332,61.0,127.0
251,96.04785075833333,96.53586397708332,57.0,89.0
252,96.45880925833332,97.93825985833332,42.0,69.0
253,96.86976775833332,98.11462954791665,49.0,56.0
254,97.28072625833332,98.17113634166665,54.0,89.0
255,97.28072625833332,98.72935497083331,61.0,117.0
256,97.69168475833332,98.73106729791665,57.0,102.0
257,97.28072625833332,98.78414943749999,66.0,107.0
258,98.10264325833332,99.14202579791666,42.0,96.0
259,98.92456025833332,99.18483397499999,54.0,90.0
260,98.51360175833332,99.24476542291666,49.0,52.0
261,99.33551875833332,99.65229926874999,42.0,95.0
262,98.92456025833332,99.74647725833331,61.0,122.0
263,98.92456025833332,99.91770996666665,66.0,100.0
264,99.74647725833331,101.25161276458331,47.0,95.0
265,100.15743575833332,101.41942081874998,54.0,89.0
266,100.97935275833332,101.45366736041666,59.0,95.0
267,100.56839425833331,102.01531064374998,62.0,97.0
268,100.56839425833331,102.04270787708332,66.0,100.0
269,101.80126975833332,102.40400889166665,54.0,90.0
270,101.39031125833333,102.46907732083332,47.0,86.0
271,102.21222825833333,102.98448777291665,66.0,107.0
272,102.21222825833333,103.11462463124998,62.0,99.0
273,102.62318675833332,103.12832324791665,59.0,93.0
274,103.85606225833332,104.32523987916666,55.0,73.0
275,103.03414525833333,104.53414378333332,43.0,78.0
276,103.44510375833332,104.71393812708332,50.0,44.0
277,104.26702075833332,104.80469146249999,59.0,93.0
278,103.85606225833332,105.11119801041666,62.0,92.0
279,103.85606225833332,105.12832128124998,67.0,90.0
280,105.49989625833332,105.75845764791666,55.0,92.0
281,104.67797925833332,105.85777261874999,43.0,93.0
282,105.08893775833332,105.90058079583332,50.0,63.0
283,105.49989625833332,106.37147074374998,62.0,95.0
284,105.91085475833331,106.37832005208332,59.0,95.0
285,105.49989625833332,106.38174470624999,67.0,93.0
286,107.14373025833332,107.19852472499998,57.0,81.0
287,106.73277175833331,107.21222334166666,52.0,102.0
288,107.14373025833332,107.58551064583332,61.0,127.0
289,106.32181325833332,107.86633228749999,45.0,90.0
290,107.34920950833332,107.99133216458331,52.0,93.0
291,107.55468875833331,108.00845543541665,57.0,117.0
292,107.14373025833332,108.08037317291665,64.0,102.0
293,107.76016800833332,108.08208549999999,61.0,127.0
294,108.58208500833332,108.81838614583332,61.0,122.0
295,108.17112650833332,108.84235872499998,52.0,99.0
296,108.37660575833331,108.85263268749999,57.0,93.0
297,108.99304350833332,109.15742690833332,52.0,72.0
298,107.96564725833332,109.19509810416665,45.0,96.0
299,109.19852275833333,109.55639911874998,61.0,100.0
300,108.78756425833332,109.60091962291665,64.0,93.0
301,109.40400200833332,109.65913874374999,57.0,89.0
302,110.43139825833332,110.77043902083332,50.0,88.0
303,109.60948125833332,110.99132921458332,38.0,83.0
304,110.02043975833332,111.21050708124999,45.0,52.0
305,110.84235675833332,111.30982205208332,57.0,99.0
306,110.43139825833332,111.67968470208332,62.0,97.0
307,110.43139825833332,111.78071199999998,66.0,112.0
308,111.66427375833332,112.20023213541666,45.0,50.0
309,111.25331525833332,112.20194446249998,38.0,90.0
310,112.07523225833332,112.38345113333332,50.0,79.0
311,112.07523225833332,112.86632737083332,62.0,96.0
312,112.48619075833332,112.88002598749999,57.0,93.0
313,112.07523225833332,112.95023139791665,66.0,107.0
314,112.89714925833331,114.44338061458332,47.0,71.0
315,113.30810775833332,114.56838049166664,54.0,93.0
316,113.71906625833331,115.04269509374998,62.0,102.0
317,113.71906625833331,115.09235257916666,66.0,100.0
318,114.13002475833332,115.13344842916665,59.0,99.0
319,114.95194175833332,115.41427007083331,54.0,92.0
320,114.54098325833331,115.55468089166665,47.0,77.0
321,115.36290025833331,116.22248845416665,62.0,95.0
322,115.36290025833331,116.23789939791665,66.0,102.0
323,115.77385875833332,116.31324178958332,59.0,97.0
324,117.00673425833332,117.35776131041665,52.0,86.0
325,116.18481725833331,117.69337741874999,40.0,86.0
326,116.59577575833332,117.83378823958331,47.0,36.0
327,117.00673425833332,118.48104787708331,67.0,90.0
328,117.00673425833332,118.51186976458332,64.0,96.0
329,117.41769275833332,118.54611630624998,59.0,92.0
330,117.82865125833332,118.89714335833332,40.0,70.0
331,118.23960975833332,118.94680084374998,47.0,61.0
332,118.65056825833332,119.11289657083331,52.0,93.0
333,118.65056825833332,119.48960852916665,67.0,93.0
334,118.65056825833332,119.49303318333332,64.0,97.0
335,119.06152675833332,119.55638928541666,59.0,95.0
336,119.47248525833332,120.98789472708332,45.0,82.0
337,119.88344375833331,121.17625070624999,52.0,89.0
338,120.70536075833331,121.71734606458331,57.0,107.0
339,120.29440225833332,121.74816795208332,61.0,117.0
340,120.29440225833332,121.77042820416665,64.0,96.0
341,121.52727775833331,122.23275651666665,52.0,90.0
342,121.11631925833332,122.26357840416665,45.0,72.0
343,121.93823625833332,122.79268747291665,64.0,85.0
344,121.93823625833332,122.82179703333331,61.0,100.0
345,122.34919475833331,122.85946822916665,57.0,95.0
346,122.76015325833332,124.15912448541665,42.0,76.0
347,123.17111175833331,124.40912423958332,49.0,42.0
348,123.58207025833332,124.48960361249998,54.0,78.0
349,123.99302875833332,124.97761683124999,57.0,96.0
350,123.58207025833332,125.04439758749999,61.0,100.0
351,123.58207025833332,125.08378111041665,66.0,96.0
352,124.81494575833332,125.42795885416665,49.0,35.0
353,124.40398725833332,125.45193143333331,42.0,88.0
354,125.22590425833332,125.52727382499998,54.0,95.0
355,125.22590425833332,126.04782125833331,61.0,112.0
356,125.63686275833332,126.10946503333332,57.0,72.0
357,125.22590425833332,126.11460201458331,66.0,96.0
358,126.04782125833331,127.53925814791666,47.0,88.0
359,126.45877975833332,127.73788808958332,54.0,92.0
360,127.28069675833332,128.07350419791666,59.0,97.0
361,126.86973825833331,128.20021640208333,66.0,122.0
362,126.86973825833331,128.20706571041666,62.0,100.0
363,128.10261375833332,128.6197365375,54.0,96.0
364,127.69165525833331,128.68309263958332,47.0,85.0
365,128.5135722583333,129.2156263625,66.0,122.0
366,128.5135722583333,129.22932497916665,62.0,97.0
367,128.9245307583333,129.42453026666664,59.0,100.0
368,129.33548925833333,130.40569368541665,43.0,89.0
369,130.1574062583333,130.87658363333333,62.0,99.0
370,130.1574062583333,130.96048766041665,59.0,96.0
371,129.74644775833332,130.97076162291665,50.0,89.0
372,130.5683647583333,130.99130954791664,55.0,90.0
373,131.39028175833332,131.95363736874998,52.0,73.0
374,130.97932325833332,132.05295233958333,45.0,78.0
375,131.8012402583333,132.59576002499998,61.0,122.0
376,131.8012402583333,132.61459562291665,64.0,93.0
377,132.21219875833333,132.63685587499998,57.0,99.0
378,133.4450742583333,133.8971286083333,62.0,93.0
379,133.4450742583333,133.94507376666664,66.0,99.0
380,133.6505535083333,133.97418332708332,50.0,78.0
381,132.62315725833332,134.02041615833332,38.0,81.0
382,134.06151200833332,134.24815566041664,62.0,88.0
383,133.85603275833333,134.27897754791664,57.0,95.0
384,134.26699125833332,134.27897754791664,57.0,64.0
385,134.26699125833332,135.84918148333333,38.0,58.0
386,134.26699125833332,135.86630475416663,62.0,82.0
387,134.26699125833332,135.88342802499997,50.0,90.0
388,134.26699125833332,135.8851403520833,66.0,99.0
389,133.03411575833331,135.90740060416664,45.0,66.0
390,136.7327422583333,137.78753574166666,50.0,93.0
391,137.14370075833332,138.47760355625,57.0,75.0
392,136.3217837583333,138.98787702708333,45.0,66.0
393,135.91082525833332,139.00157564375,38.0,89.0
394,137.9656177583333,139.03582218541663,50.0,53.0
395,138.78753475833332,139.15054809999998,57.0,73.0
396,137.55465925833332,139.1573974083333,62.0,72.0
397,138.3765762583333,139.19849325833331,66.0,93.0
398,140.02041025833333,140.61801241041664,55.0,89.0
399,139.6094517583333,141.0889023583333,50.0,54.0
400,140.43136875833332,141.91766866666666,59.0,73.0
401,141.2532857583333,141.95705218958332,50.0,77.0
402,139.19849325833331,141.96047684374997,43.0,81.0
403,140.8423272583333,142.51869547291665,62.0,89.0
404,142.07520275833332,142.5323940895833,59.0,82.0
405,141.66424425833333,142.54095572499998,55.0,97.0
406,143.30807825833332,144.4108169,50.0,90.0
407,143.71903675833332,145.05293955624998,57.0,81.0
408,144.5409537583333,145.10259704166666,50.0,61.0
409,142.8971197583333,145.23273389999997,45.0,65.0
410,142.4861612583333,145.23787088125,38.0,82.0
411,144.95191225833332,145.86629492083333,62.0,89.0
412,144.1299952583333,145.8868428458333,66.0,99.0
413,145.36287075833332,146.01355504999998,57.0,88.0
414,146.59574625833332,147.6060192375,45.0,74.0
415,147.0067047583333,148.27211447291666,52.0,78.0
416,147.82862175833333,148.71047020625,45.0,82.0
417,145.7738292583333,149.03238769791665,33.0,85.0
418,146.1847877583333,149.03238769791665,40.0,60.0
419,148.6505387583333,149.06492191249998,52.0,102.0
420,148.23958025833332,149.0871821645833,57.0,102.0
421,147.4176632583333,149.10088078124997,61.0,117.0
422,149.88341425833332,150.92793377916664,54.0,92.0
423,149.0614972583333,151.60943995833333,42.0,93.0
424,149.47245575833333,151.61800159374997,49.0,64.0
425,150.2943727583333,151.62142624791665,57.0,93.0
426,151.11628975833332,151.67964536875,54.0,90.0
427,150.7053312583333,152.34231594999997,66.0,117.0
428,151.9382067583333,152.35087758541664,57.0,93.0
429,151.52724825833332,152.36115154791665,61.0,122.0
430,153.1710822583333,154.23101272291666,59.0,90.0
431,153.5820407583333,154.7584094645833,62.0,95.0
432,154.40395775833332,154.77210808124997,59.0,92.0
433,152.76012375833332,154.84745047291665,54.0,73.0
434,152.3491652583333,154.90053261249997,47.0,89.0
435,154.8149162583333,155.65909351041665,66.0,107.0
436,153.9929992583333,155.67621678125,71.0,99.0
437,155.2258747583333,155.68991539791665,62.0,96.0
438,156.04779175833332,156.8114896375,47.0,47.0
439,155.63683325833333,156.81491429166664,40.0,93.0
440,156.4587502583333,156.986147,52.0,99.0
441,156.8697087583333,157.29607820208332,55.0,100.0
442,158.1025842583333,158.37655659166666,57.0,85.0
443,157.69162575833332,158.45018665624997,52.0,72.0
444,157.28066725833332,158.47587156249998,45.0,96.0
445,158.5135427583333,158.98100805208333,61.0,96.0
446,158.1025842583333,159.01867924791665,64.0,97.0
447,159.7464182583333,161.6830601895833,50.0,93.0
448,158.92450125833332,162.11627894166665,38.0,81.0
449,160.56833525833332,162.11799126875,66.0,79.0
450,160.56833525833332,162.13682686666664,62.0,88.0
451,160.1573767583333,162.18477202499997,57.0,93.0
452,159.33545975833331,162.21216925833332,45.0,59.0
453,162.21216925833332,163.67792124166664,38.0,97.0
454,162.6231277583333,163.87312652916665,45.0,43.0
455,163.0340862583333,163.88511281874997,50.0,88.0
456,163.44504475833332,164.42963283125,62.0,78.0
457,163.85600325833332,164.76696126666664,38.0,88.0
458,164.2669617583333,164.86970089166664,45.0,58.0
459,164.6779202583333,165.06490617916666,50.0,66.0
460,165.08887875833332,165.52723449166663,57.0,79.0
461,163.0340862583333,165.57175499583332,66.0,112.0
462,164.6779202583333,165.6025768833333,62.0,89.0
463,165.49983725833332,167.0306576708333,47.0,78.0
464,165.9107957583333,167.19675339791664,54.0,75.0
465,166.73271275833332,167.63682145833332,59.0,90.0
466,166.3217542583333,167.70873919583332,66.0,102.0
467,167.5546297583333,167.96216360416665,54.0,90.0
468,167.1436712583333,168.17277983541663,47.0,86.0
469,167.9655882583333,168.77551896874996,66.0,112.0
470,168.37654675833332,168.78408060416663,45.0,112.0
471,168.7875052583333,170.32003799791664,43.0,67.0
472,170.02038075833332,170.46387347291665,55.0,82.0
473,169.1984637583333,170.48099674374998,50.0,74.0
474,169.60942225833332,170.69161297499997,62.0,86.0
475,170.4313392583333,171.4227766395833,43.0,89.0
476,170.8422977583333,171.67791337499997,50.0,69.0
477,171.25325625833332,172.01352948333331,62.0,99.0
478,171.66421475833332,172.05120067916664,55.0,95.0
479,172.0751732583333,173.60941832499998,45.0,93.0
480,172.4861317583333,173.7806510333333,52.0,81.0
481,173.3080487583333,174.17448626249998,57.0,92.0
482,173.7190072583333,174.63510224791665,45.0,83.0
483,174.1299657583333,174.6488008645833,52.0,86.0
484,172.89709025833332,175.31318377291663,64.0,96.0
485,174.54092425833332,175.44674528541665,61.0,102.0
486,175.3628412583333,176.88510003541666,42.0,99.0
487,175.7737997583333,177.04263412708332,49.0,70.0
488,176.18475825833332,177.08201764999998,54.0,88.0
489,176.18475825833332,177.69674307291663,66.0,97.0
490,176.5957167583333,177.75667452083331,61.0,97.0
491,174.9518827583333,177.76009917499997,57.0,95.0
492,177.41763375833332,178.19674258124996,49.0,55.0
493,177.0066752583333,178.21215352499996,42.0,82.0
494,177.82859225833332,178.2806466083333,54.0,81.0
495,178.2395507583333,178.63681064166664,57.0,97.0
496,177.82859225833332,178.76181051874997,66.0,107.0
497,178.6505092583333,180.14194614791666,47.0,95.0
498,179.06146775833332,180.3251651458333,54.0,93.0
499,179.47242625833331,180.86626050416663,66.0,122.0
500,179.8833847583333,180.9159179895833,62.0,93.0
501,180.70530175833332,181.24297246249998,54.0,97.0
502,180.2943432583333,181.40050655416664,47.0,95.0
503,181.1162602583333,181.7583829145833,66.0,127.0
504,181.5272187583333,181.98441008958332,59.0,102.0
505,182.34913575833332,182.84571061249997,47.0,73.0
506,181.9381772583333,182.86454621041665,40.0,97.0
507,182.7600942583333,183.47755930625,55.0,92.0
508,182.7600942583333,183.48098396041664,59.0,93.0
509,183.1710527583333,183.95872321666664,52.0,100.0
510,183.5820112583333,184.53406511666665,33.0,95.0
511,183.99296975833332,184.60598285416665,40.0,62.0
512,184.4039282583333,184.71385946041664,45.0,89.0
513,184.4039282583333,185.18303708124998,57.0,99.0
514,184.8148867583333,185.18474940833332,52.0,96.0
515,184.4039282583333,185.22242060416664,61.0,117.0
516,186.2532415083333,186.47584402916664,50.0,96.0
517,186.0477622583333,186.61967950416664,52.0,112.0
518,186.4587207583333,186.73440541875,54.0,117.0
519,185.22584525833332,186.74125472708332,38.0,107.0
520,186.6642000083333,186.85255598749998,57.0,102.0
521,185.63680375833331,186.91591208958332,45.0,88.0
522,187.2806377583333,187.76008934166663,50.0,97.0
523,187.4861170083333,187.9587192833333,57.0,100.0
524,187.8970755083333,188.0820068333333,50.0,122.0
525,186.86967925833332,188.362828475,38.0,102.0
526,187.6915962583333,188.40392432499996,66.0,127.0
527,187.07515850833332,188.48611602499997,45.0,97.0
528,188.1025547583333,188.52721187499998,62.0,117.0
529,188.3080340083333,188.52892420208332,57.0,107.0
530,189.3354302583333,189.9758405875,50.0,78.0
531,188.51351325833332,189.98097756874998,38.0,82.0
532,188.9244717583333,190.15392260416664,45.0,45.0
533,189.3354302583333,190.72583984999997,62.0,102.0
534,189.7463887583333,190.75323708333332,57.0,93.0
535,189.3354302583333,190.75666173749997,66.0,112.0
536,190.5683057583333,191.20871608749997,45.0,48.0
537,190.15734725833332,191.23440099374997,38.0,88.0
538,190.9792642583333,191.36111319791664,50.0,89.0
539,190.9792642583333,191.79261962291665,62.0,100.0
540,191.3902227583333,191.81316754791663,57.0,86.0
541,190.9792642583333,191.82515383749998,66.0,117.0
542,191.80118125833332,192.8645363770833,47.0,95.0
543,192.2121397583333,192.9570020395833,54.0,83.0
544,193.03405675833332,193.10426216874998,54.0,50.0
545,193.03405675833332,193.23953600833332,47.0,69.0
546,192.6230982583333,193.95015174791664,62.0,107.0
547,192.6230982583333,193.9741243270833,59.0,95.0
548,192.6230982583333,194.0357681020833,66.0,100.0
549,193.8559737583333,194.36111024791663,54.0,95.0
550,193.4450152583333,194.4518635833333,47.0,95.0
551,194.2669322583333,194.9450137833333,66.0,122.0
552,194.2669322583333,195.11110951041664,62.0,96.0
553,194.67789075833332,195.25665731249998,59.0,97.0
554,195.9107662583333,196.34056035624997,52.0,76.0
555,195.0888492583333,196.3730945708333,40.0,90.0
556,195.4998077583333,196.73439558541665,47.0,57.0
557,195.9107662583333,197.2052855333333,64.0,93.0
558,195.9107662583333,197.21898414999998,67.0,90.0
559,196.32172475833332,197.25836767291665,59.0,96.0
560,196.7326832583333,198.0117915895833,40.0,88.0
561,197.1436417583333,198.04946278541664,47.0,51.0
562,197.5546002583333,198.31829813749997,52.0,85.0
563,197.5546002583333,198.39364052916665,64.0,96.0
564,197.5546002583333,198.40048983749998,67.0,92.0
565,197.96555875833332,198.4278870708333,59.0,79.0
566,198.3765172583333,199.39706419999996,45.0,92.0
567,198.7874757583333,199.499803825,52.0,88.0
568,199.6093927583333,199.85768018541663,45.0,86.0
569,199.1984342583333,200.15220044374996,57.0,86.0
570,199.1984342583333,200.32514547916665,61.0,127.0
571,199.1984342583333,200.43302208541664,64.0,96.0
572,200.4313097583333,200.96213115416663,52.0,93.0
573,200.0203512583333,200.96898046249999,45.0,89.0
574,200.84226825833332,201.57856890416664,64.0,97.0
575,200.84226825833332,201.7052811083333,61.0,127.0
576,201.2532267583333,201.7412399770833,57.0,89.0
577,201.6641852583333,203.1436358583333,42.0,69.0
578,202.0751437583333,203.32000554791665,49.0,56.0
579,202.48610225833332,203.37651234166663,54.0,89.0
580,202.48610225833332,203.9347309708333,61.0,117.0
581,202.8970607583333,203.93644329791664,57.0,102.0
582,202.48610225833332,203.98952543749996,66.0,107.0
583,203.3080192583333,204.34740179791663,42.0,96.0
584,204.12993625833332,204.39020997499998,54.0,90.0
585,203.7189777583333,204.45014142291663,49.0,52.0
586,204.5408947583333,204.85767526874997,42.0,95.0
587,204.12993625833332,204.9518532583333,61.0,122.0
588,204.12993625833332,205.12308596666665,66.0,100.0
589,204.9518532583333,206.45698876458331,47.0,95.0
590,205.3628117583333,206.62479681874999,54.0,89.0
591,206.1847287583333,206.65904336041663,59.0,95.0
592,205.77377025833331,207.22068664374999,62.0,97.0
593,205.77377025833331,207.2480838770833,66.0,100.0
594,207.0066457583333,207.60938489166665,54.0,90.0
595,206.5956872583333,207.6744533208333,47.0,86.0
596,207.4176042583333,208.18986377291665,66.0,107.0
597,207.4176042583333,208.32000063124997,62.0,99.0
598,207.8285627583333,208.33369924791663,59.0,93.0
599,209.0614382583333,209.53061587916665,55.0,73.0
600,208.2395212583333,209.7395197833333,43.0,78.0
601,208.65047975833332,209.9193141270833,50.0,44.0
602,209.4723967583333,210.01006746249996,59.0,93.0
603,209.0614382583333,210.31657401041664,62.0,92.0
604,209.0614382583333,210.33369728124998,67.0,90.0
605,210.7052722583333,210.96383364791663,55.0,92.0
606,209.8833552583333,211.06314861874998,43.0,93.0
607,210.29431375833332,211.1059567958333,50.0,63.0
608,210.7052722583333,211.57684674374997,62.0,95.0
609,211.1162307583333,211.5836960520833,59.0,95.0
610,210.7052722583333,211.58712070624998,67.0,93.0
611,212.3491062583333,212.40390072499997,57.0,81.0
612,211.93814775833332,212.41759934166663,52.0,102.0
613,212.3491062583333,212.7908866458333,61.0,127.0
614,211.5271892583333,213.07170828749997,45.0,90.0
615,212.5545855083333,213.1967081645833,52.0,93.0
616,212.7600647583333,213.21383143541664,57.0,117.0
617,212.3491062583333,213.28574917291664,64.0,102.0
618,212.9655440083333,213.28746149999998,61.0,127.0
619,213.7874610083333,214.0237621458333,61.0,122.0
620,213.37650250833332,214.04773472499997,52.0,99.0
621,213.5819817583333,214.05800868749998,57.0,93.0
622,214.1984195083333,214.3628029083333,52.0,72.0
623,213.1710232583333,214.40047410416665,45.0,96.0
624,214.4038987583333,214.76177511874997,61.0,100.0
625,213.9929402583333,214.80629562291665,64.0,93.0
626,214.6093780083333,214.86451474374996,57.0,89.0
627,215.6367742583333,215.9758150208333,50.0,88.0
628,214.8148572583333,216.19670521458332,38.0,83.0
629,215.2258157583333,216.41588308124997,45.0,52.0
630,216.0477327583333,216.5151980520833,57.0,99.0
631,215.6367742583333,216.8850607020833,62.0,97.0
632,215.6367742583333,216.98608799999997,66.0,112.0
633,216.8696497583333,217.40560813541663,45.0,50.0
634,216.45869125833332,217.40732046249997,38.0,90.0
635,217.2806082583333,217.5888271333333,50.0,79.0
636,217.2806082583333,218.0717033708333,62.0,96.0
637,217.6915667583333,218.08540198749998,57.0,93.0
638,217.2806082583333,218.15560739791664,66.0,107.0
639,218.10252525833332,219.6487566145833,47.0,71.0
640,218.5134837583333,219.77375649166663,54.0,93.0
641,218.9244422583333,220.24807109374996,62.0,102.0
642,218.9244422583333,220.29772857916663,66.0,100.0
643,219.3354007583333,220.33882442916664,59.0,99.0
644,220.1573177583333,220.6196460708333,54.0,92.0
645,219.7463592583333,220.76005689166664,47.0,77.0
646,220.5682762583333,221.42786445416664,62.0,95.0
647,220.5682762583333,221.44327539791664,66.0,102.0
648,220.9792347583333,221.51861778958332,59.0,97.0
649,222.2121102583333,222.56313731041664,52.0,86.0
650,221.3901932583333,222.89875341874998,40.0,86.0
651,221.8011517583333,223.0391642395833,47.0,36.0
652,222.2121102583333,223.6864238770833,67.0,90.0
653,222.2121102583333,223.7172457645833,64.0,96.0
654,222.62306875833332,223.75149230624996,59.0,92.0
655,223.0340272583333,224.1025193583333,40.0,70.0
656,223.4449857583333,224.15217684374997,47.0,61.0
657,223.8559442583333,224.3182725708333,52.0,93.0
658,223.8559442583333,224.69498452916665,67.0,93.0
659,223.8559442583333,224.6984091833333,64.0,97.0
660,224.26690275833332,224.76176528541663,59.0,95.0
661,224.6778612583333,226.1932707270833,45.0,82.0
662,225.0888197583333,226.38162670624996,52.0,89.0
663,225.91073675833331,226.9227220645833,57.0,107.0
664,225.4997782583333,226.9535439520833,61.0,117.0
665,225.4997782583333,226.97580420416665,64.0,96.0
666,226.7326537583333,227.43813251666663,52.0,90.0
667,226.3216952583333,227.46895440416662,45.0,72.0
668,227.1436122583333,227.99806347291664,64.0,85.0
669,227.1436122583333,228.0271730333333,61.0,100.0
670,227.5545707583333,228.06484422916662,57.0,95.0
671,227.9655292583333,229.36450048541664,42.0,76.0
672,228.3764877583333,229.6145002395833,49.0,42.0
673,228.7874462583333,229.69497961249996,54.0,78.0
674,229.1984047583333,230.18299283124998,57.0,96.0
675,228.7874462583333,230.24977358749996,61.0,100.0
676,228.7874462583333,230.28915711041662,66.0,96.0
677,230.0203217583333,230.63333485416663,49.0,35.0
678,229.6093632583333,230.6573074333333,42.0,88.0
679,230.43128025833332,230.73264982499998,54.0,95.0
680,230.43128025833332,231.2531972583333,61.0,112.0
681,230.8422387583333,231.3148410333333,57.0,72.0
682,230.43128025833332,231.3199780145833,66.0,96.0
683,231.2531972583333,232.74463414791663,47.0,88.0
684,231.6641557583333,232.9432640895833,54.0,92.0
685,232.4860727583333,233.27888019791664,59.0,97.0
686,232.07511425833331,233.4055924020833,66.0,122.0
687,232.07511425833331,233.41244171041663,62.0,100.0
688,233.3079897583333,233.82511253749996,54.0,96.0
689,232.8970312583333,233.8884686395833,47.0,85.0
690,233.7189482583333,234.42100236249996,66.0,122.0
691,233.7189482583333,234.43470097916665,62.0,97.0
692,234.1299067583333,234.5408652583333,59.0,100.0
693,235.3627822583333,235.71552163749996,55.0,86.0
694,235.3627822583333,235.8456584958333,71.0,89.0
695,234.5408652583333,235.87476805624996,43.0,95.0
696,235.7737407583333,236.08880894166663,62.0,82.0
697,235.3627822583333,236.10421988541663,67.0,93.0
698,234.9518237583333,236.21894579999997,50.0,61.0
699,236.1846992583333,237.1144928645833,69.0,97.0
700,236.1846992583333,237.12305449999997,73.0,100.0
701,236.1846992583333,237.17956129374997,64.0,97.0
702,236.1846992583333,237.31312280624996,45.0,83.0
703,238.6504502583333,238.74120359374996,57.0,75.0
704,238.23949175833332,241.03743421249996,45.0,75.0
705,238.6504502583333,241.06825609999996,62.0,99.0
706,238.6504502583333,241.0802423895833,66.0,99.0
707,239.0614087583333,241.0956533333333,50.0,78.0
708,239.4723672583333,241.09907798749998,57.0,96.0
709,237.8285332583333,241.10935194999996,38.0,88.0
710,241.5271597583333,242.3028439270833,55.0,62.0
711,241.12476289374996,242.4877752520833,43.0,93.0
712,241.33880377916662,242.74119966041664,50.0,89.0
713,241.75489926041664,242.84907626666663,59.0,66.0
714,242.3798986458333,242.8679118645833,62.0,72.0
715,241.98263876249996,242.87647349999997,67.0,96.0
716,243.4792126333333,243.77373289166664,61.0,65.0
717,243.7206507520833,243.8490752833333,64.0,76.0
718,244.15386950416664,244.29256799791662,69.0,77.0
719,243.2429114958333,246.13160728541664,57.0,93.0
720,243.01859664791664,246.51688087916662,52.0,55.0
721,242.79085714583331,246.63674377499996,45.0,79.0
722,244.97236184999997,246.95523661249996,73.0,56.0
723,245.18297808124996,246.9569489395833,81.0,72.0
724,245.06825216666664,246.96379824791663,76.0,63.0
725,244.91071807499998,246.96893522916665,69.0,62.0
726,248.52030356666663,248.9295497395833,58.0,72.0
727,248.1076327395833,248.95180999166664,53.0,66.0
728,247.6658523520833,249.01516609374997,46.0,93.0
729,248.93297439374996,249.3610561645833,62.0,76.0
730,250.2086580708333,250.8096848770833,48.0,64.0
731,249.34906987499997,251.10078048124996,36.0,79.0
732,249.7874256083333,251.19324614374997,43.0,55.0
733,250.71893154166662,251.3439309270833,60.0,77.0
734,250.24119228541664,251.34735558124996,64.0,86.0
735,252.5562585020833,253.10420316874996,50.0,73.0
736,252.46036818541663,253.4346822958333,54.0,70.0
737,252.38331346666664,253.5374219208333,57.0,92.0
738,253.42098367916662,253.77201073124996,52.0,53.0
739,253.58536707916664,253.80796959999998,54.0,64.0
740,253.7891340020833,253.8405038145833,57.0,70.0
741,253.98091463541664,254.52543464791663,62.0,67.0
742,254.21379111874995,254.59221540416664,64.0,37.0
743,254.41413338749996,254.62474961874997,66.0,58.0
744,254.61276332916663,254.65899616041662,69.0,51.0
745,254.79426999999995,255.52885831874997,74.0,75.0
746,255.05111906249996,255.5357076270833,76.0,44.0
747,255.27714623749998,255.58536511249997,78.0,39.0
748,255.51687202916662,255.6178993270833,81.0,63.0
749,253.0288607770833,259.1675533708333,45.0,40.0
750,253.24118933541664,259.3952928729166,50.0,44.0
751,256.1641316666666,259.4415257041666,90.0,48.0
752,256.36104928124996,259.4449503583333,98.0,39.0
753,256.2428987125,259.44666268541664,93.0,40.0
754,252.55797082916663,259.46207362916664,38.0,95.0
755,256.11447418125,259.4791969,86.0,31.0
