,start,end,pitch,velocity
0,20.10484005,20.4193562,59.0,97.0
1,20.58871105,20.9697594625,59.0,92.0
2,21.07258205,21.399194975,61.0,96.0
3,21.556453050000002,22.0342756625,63.0,85.0
4,22.282259550000003,23.4012112375,66.0,90.0
5,23.97580805,24.322582266666668,68.0,112.0
6,24.459679050000002,24.808469395833335,68.0,99.0
7,24.943550050000002,25.296372654166667,63.0,96.0
8,25.42742105,26.163308195833334,66.0,96.0
9,27.846776050000003,28.177421233333334,68.0,100.0
10,28.33064705,28.657259975000002,68.0,100.0
11,28.81451805,29.203630979166668,63.0,97.0
12,29.29838905,29.895163283333336,66.0,97.0
13,29.78226005,30.191534270833333,63.0,97.0
14,30.266131050000002,31.04234077916667,61.0,107.0
15,31.233873050000003,31.532260166666667,61.0,99.0
16,31.71774405,32.02217955416667,59.0,93.0
17,32.20161505,32.57863120416667,59.0,93.0
18,32.68548605,33.06250220416667,63.0,96.0
19,33.16935705,34.37701842083334,61.0,95.0
20,35.588712050000005,35.8729862625,59.0,90.0
21,36.07258305,36.372986295833336,59.0,97.0
22,36.55645405,36.83266374583334,61.0,96.0
23,37.04032505,37.62500250833334,63.0,97.0
24,37.766131550000004,38.7641154875,66.0,107.0
25,39.45968005,39.790325233333334,68.0,97.0
26,39.94355105,40.21774461666667,68.0,99.0
27,40.427422050000004,40.74597045833333,63.0,95.0
28,40.911293050000005,42.133067325,66.0,89.0
29,43.33064805,43.651212587500005,68.0,99.0
30,43.81451905,44.179438429166666,68.0,97.0
31,44.29839005,44.580648133333334,63.0,95.0
32,44.78226105,45.05847074583333,66.0,97.0
33,45.26613205,45.57056755416667,63.0,92.0
34,45.750003050000004,46.129035333333334,61.0,89.0
35,46.233874050000004,47.13306765833334,59.0,95.0
36,47.201616050000005,47.51209994166667,56.0,93.0
37,47.68548705,47.98992255416667,59.0,97.0
38,48.16935805,48.63105162916667,61.0,97.0
39,48.65322905,50.15121302083334,59.0,90.0
40,50.58871305,50.88306790833334,59.0,96.0
41,51.07258405,51.300406645833334,61.0,93.0
42,51.31451955,51.84677765,63.0,89.0
43,52.040326050000004,52.370971233333336,68.0,99.0
44,52.524197050000005,52.95766482083334,66.0,127.0
45,53.008068050000006,53.9576648875,63.0,99.0
46,54.45968105,54.96572947083334,59.0,93.0
47,54.94355205,55.258068200000004,56.0,100.0
48,55.42742305,55.9536327625,59.0,93.0
49,56.153229550000006,56.429439245833336,61.0,96.0
50,56.39516505,57.49798770416667,63.0,97.0
51,58.08871355,58.298390983333334,56.0,88.0
52,58.330649050000005,58.63508455416667,59.0,93.0
53,58.814520050000006,59.05443942083333,56.0,89.0
54,59.05645555,59.3770200875,59.0,93.0
55,60.024197550000004,60.26411692083334,71.0,117.0
56,60.26613305,60.67339114166667,70.0,117.0
57,60.75000405,61.1068589125,71.0,100.0
58,61.23387505,61.70363314583334,66.0,97.0
59,61.71774605,62.19758479166667,63.0,96.0
60,62.20161705,64.17393775833334,68.0,102.0
61,65.87308837500001,65.99385095,66.0,95.0
62,66.14639315000001,66.483257175,68.0,102.0
63,66.69300270000001,66.87308724166667,63.0,96.0
64,66.9472397,67.64427280833334,66.0,117.0
65,67.9641877,68.08706891666667,66.0,102.0
66,68.2184247,68.33706863333333,68.0,122.0
67,68.4726617,68.61884797500001,71.0,112.0
68,68.7268987,68.90698324166667,68.0,107.0
69,68.9811357,69.08494914166667,66.0,93.0
70,69.2353727,69.33918614166667,63.0,127.0
71,69.4896097,69.60189770833334,61.0,122.0
72,69.7438467,69.85613470833334,59.0,107.0
73,69.9980837,70.09765985833333,61.0,112.0
74,70.2523207,70.5319814,63.0,127.0
75,70.7607947,70.89426912500001,56.0,102.0
76,71.01503170000001,71.80528504166666,59.0,127.0
77,72.03197970000001,72.15274227500001,61.0,97.0
78,72.2862167,72.406979275,63.0,97.0
79,72.5404537,72.68028405,66.0,100.0
80,72.7946907,72.93028376666666,63.0,96.0
81,73.04892770000001,73.15274114166667,61.0,99.0
82,73.3031647,73.44299505000001,59.0,102.0
83,73.5574017,73.73113031666666,61.0,93.0
84,73.8116387,73.96206225833333,63.0,96.0
85,74.0658757,74.186638275,66.0,100.0
86,74.32011270000001,74.56375649166667,68.0,122.0
87,74.8285867,74.95358655833334,63.0,97.0
88,75.0828237,75.67180608333334,66.0,102.0
89,76.0997717,76.22900884166667,63.0,102.0
90,76.35400870000001,76.61248298333334,61.0,112.0
91,76.8624827,76.96841478333334,63.0,102.0
92,77.1167197,77.82646465833334,59.0,100.0
93,78.1336677,78.23536250000001,63.0,117.0
94,78.3879047,78.52985369166667,61.0,112.0
95,78.6421417,78.775616125,59.0,107.0
96,78.8963787,79.03409040833334,59.0,96.0
97,79.1506157,79.26925963333333,56.0,89.0
98,79.4048527,79.56798810833334,59.0,99.0
99,79.65908970000001,79.79044548333334,61.0,107.0
100,80.1675637,80.36671601666667,63.0,97.0
101,80.4218007,81.1633397,61.0,122.0
102,81.1845982,81.30577165,54.0,93.0
103,81.43970019999999,81.58213214999999,59.0,96.0
104,81.6948022,81.8946321,61.0,96.0
105,81.94990419999999,82.04981914999999,63.0,107.0
106,82.2050062,82.33043135,66.0,102.0
107,82.4601082,82.78111154999999,68.0,112.0
108,82.9703122,83.1021149,63.0,95.0
109,83.2254142,83.78876445,66.0,117.0
110,84.24582219999999,84.37549905,66.0,102.0
111,84.5009242,84.61784595,68.0,112.0
112,84.7560262,84.8495636,71.0,112.0
113,85.0111282,85.1429309,68.0,107.0
114,85.2662302,85.3895295,66.0,100.0
115,85.5213322,85.6191213,63.0,102.0
116,85.7764342,85.8997335,61.0,112.0
117,86.03153619999999,86.1378287,59.0,100.0
118,86.2866382,86.38655315,61.0,95.0
119,86.54174019999999,86.82022655,63.0,127.0
120,87.0519442,87.1879986,56.0,95.0
121,87.3070462,87.96393384999999,59.0,107.0
122,88.32745419999999,88.4465018,61.0,100.0
123,88.5825562,88.684597,63.0,112.0
124,88.83765819999999,88.9184405,66.0,86.0
125,89.0927602,89.20543024999999,63.0,102.0
126,89.3478622,89.43927375,61.0,90.0
127,89.6029642,89.71138255,59.0,96.0
128,89.8580662,89.96861039999999,61.0,97.0
129,90.11316819999999,90.2279641,63.0,112.0
130,90.3682702,90.47881439999999,66.0,96.0
131,90.62337219999999,90.96350819999999,68.0,117.0
132,91.6437802,91.86699444999999,68.0,102.0
133,91.8988822,92.13485155,66.0,82.0
134,92.1539842,92.43530009999999,63.0,97.0
135,92.40943804999999,92.65081718333333,68.0,97.0
136,92.66805855,93.14435130416666,66.0,112.0
137,93.70254055,93.86202319166665,66.0,96.0
138,93.96116104999999,94.07969544583332,68.0,102.0
139,94.21978155,94.36633316666666,71.0,97.0
140,94.47840204999999,94.59909161666666,68.0,102.0
141,94.73702254999999,94.92667758333333,71.0,112.0
142,94.99564304999998,95.20253944999999,68.0,102.0
143,95.25426354999999,95.39219448333333,66.0,92.0
144,95.514799775,95.86896640625,68.0,99.0
145,96.070355275,96.84350334583333,63.0,99.0
146,96.90368852499999,97.11896628125,61.0,102.0
147,97.18146627499999,97.32729959375,63.0,93.0
148,97.45924402499999,97.62822548958333,66.0,97.0
149,97.737021775,98.05183655833333,63.0,112.0
150,98.014799525,98.20692913541666,61.0,112.0
151,98.292577275,98.54026243541666,59.0,107.0
152,99.095355,99.68077166666666,56.0,92.0
153,99.595355,101.13702166666666,59.0,99.0
154,114.95534004999999,115.24969490833332,59.0,96.0
155,115.43921104999998,115.66703364583331,61.0,93.0
156,115.68114654999998,116.21340464999999,63.0,89.0
157,116.40695304999998,116.73759823333332,68.0,99.0
158,116.89082404999999,117.32429182083332,66.0,127.0
159,117.37469504999999,118.32429188749998,63.0,99.0
160,118.82630804999998,119.33235647083332,59.0,93.0
161,119.31017904999999,119.62469519999999,56.0,100.0
162,119.79405004999998,120.32025976249999,59.0,93.0
163,120.51985654999999,120.79606624583332,61.0,96.0
164,120.76179204999998,121.86461470416666,63.0,97.0
165,122.45534054999999,122.66501798333331,56.0,88.0
166,122.69727604999999,123.00171155416665,59.0,93.0
167,123.18114704999999,123.42106642083331,56.0,89.0
168,123.42308254999999,123.7436470875,59.0,93.0
169,124.39082454999999,124.63074392083332,71.0,117.0
170,124.63276004999999,125.04001814166665,70.0,117.0
171,125.11663104999998,125.47348591249998,71.0,100.0
172,125.60050204999999,126.07026014583332,66.0,97.0
173,126.08437304999998,126.56421179166665,63.0,96.0
174,128.262599,128.42301566666666,70.0,100.0
175,126.56824404999999,128.53551566666667,68.0,102.0
176,128.512599,128.53551566666667,68.0,72.0
177,128.512599,129.16051566666667,66.0,95.0
178,130.279547,130.42121366666666,66.0,95.0
179,130.529547,130.823297,68.0,102.0
180,131.029547,131.20663033333332,63.0,96.0
181,131.2799707,131.97700380833334,66.0,117.0
182,132.2969187,132.41979991666668,66.0,102.0
183,132.5511557,132.66979963333333,68.0,122.0
184,132.8053927,132.951578975,71.0,112.0
185,133.05962970000002,133.23971424166666,68.0,107.0
186,133.3138667,133.41768014166666,66.0,93.0
187,133.5681037,133.67191714166668,63.0,127.0
188,133.8223407,133.93462870833335,61.0,122.0
189,134.0765777,134.18886570833334,59.0,107.0
190,134.3308147,134.43039085833334,61.0,112.0
191,134.5850517,134.8647124,63.0,127.0
192,135.09352570000001,135.227000125,56.0,102.0
193,135.3477627,136.13801604166667,59.0,127.0
194,136.3647107,136.485473275,61.0,97.0
195,136.6189477,136.739710275,63.0,97.0
196,136.8731847,137.01301505,66.0,100.0
197,137.1274217,137.26301476666666,63.0,96.0
198,137.3816587,137.48547214166666,61.0,99.0
199,137.6358957,137.77572605,59.0,102.0
200,137.8901327,138.06386131666667,61.0,93.0
201,138.1443697,138.29479325833333,63.0,96.0
202,138.39860670000002,138.519369275,66.0,100.0
203,138.6528437,138.89648749166668,68.0,122.0
204,139.1613177,139.28631755833334,63.0,97.0
205,139.4155547,140.00453708333333,66.0,102.0
206,140.43250270000001,140.56173984166668,63.0,102.0
207,140.6867397,140.94521398333333,61.0,112.0
208,141.1952137,141.30114578333334,63.0,102.0
209,141.4494507,142.15919565833335,59.0,100.0
210,142.4663987,142.5680935,63.0,117.0
211,142.7206357,142.86258469166668,61.0,112.0
212,142.9748727,143.108347125,59.0,107.0
213,143.2291097,143.36682140833335,59.0,96.0
214,143.4833467,143.60199063333334,56.0,89.0
215,143.73758370000002,143.90071910833333,59.0,99.0
216,143.9918207,144.12317648333334,61.0,107.0
217,144.5002947,144.69944701666668,63.0,97.0
218,144.7545317,145.4960707,61.0,122.0
219,145.5173292,145.63850265,54.0,93.0
220,145.7724312,145.91486315,59.0,96.0
221,146.0275332,146.2273631,61.0,96.0
222,146.2826352,146.38255015,63.0,107.0
223,146.53773719999998,146.66316235,66.0,102.0
224,146.7928392,147.11384255,68.0,112.0
225,147.3030432,147.4348459,63.0,95.0
226,147.55814519999998,148.12149545,66.0,117.0
227,148.5785532,148.70823005,66.0,102.0
228,148.83365519999998,148.95057695,68.0,112.0
229,149.0887572,149.1822946,71.0,112.0
230,149.3438592,149.4756619,68.0,107.0
231,149.5989612,149.7222605,66.0,100.0
232,149.85406319999998,149.95185229999998,63.0,102.0
233,150.1091652,150.2324645,61.0,112.0
234,150.3642672,150.4705597,59.0,100.0
235,150.6193692,150.71928415,61.0,95.0
236,150.8744712,151.15295755,63.0,127.0
237,151.3846752,151.52072959999998,56.0,95.0
238,151.6397772,152.29666484999998,59.0,107.0
239,152.6601852,152.7792328,61.0,100.0
240,152.9152872,153.017328,63.0,112.0
241,153.1703892,153.2511715,66.0,86.0
242,153.42549119999998,153.53816125,63.0,102.0
243,153.6805932,153.77200474999998,61.0,90.0
244,153.9356952,154.04411355,59.0,96.0
245,154.1907972,154.30134139999998,61.0,97.0
246,154.44589919999999,154.5606951,63.0,112.0
247,154.70100119999998,154.8115454,66.0,96.0
248,154.9561032,155.2962392,68.0,117.0
249,155.9765112,156.19972545,68.0,102.0
250,156.2316132,156.46758255,66.0,82.0
251,156.4867152,156.7680311,63.0,97.0
252,156.74216905,156.98354818333334,68.0,97.0
253,157.00078955,157.47708230416666,66.0,112.0
254,158.03527155,158.19475419166668,66.0,96.0
255,158.29389205,158.41242644583335,68.0,102.0
256,158.55251255,158.69906416666666,71.0,97.0
257,158.81113305,158.93182261666666,68.0,102.0
258,159.06975355,159.25940858333334,71.0,112.0
259,159.32837405,159.53527045,68.0,102.0
260,159.58699455000001,159.72492548333332,66.0,92.0
261,159.84561505,160.1753561875,68.0,99.0
262,160.36285605,161.08669101249998,63.0,99.0
263,161.143708525,161.34765578124998,61.0,102.0
264,161.406866275,161.54502409375,63.0,93.0
265,161.67002402499998,161.83011165624998,66.0,97.0
266,161.93318177499998,162.23142722499998,63.0,112.0
267,162.19633952499998,162.37835696874998,61.0,112.0
268,162.459497275,162.69414626875,59.0,107.0
269,163.24897052499998,163.86519825624998,56.0,92.0
270,163.77528602499999,165.32879466666665,59.0,99.0
271,165.537128,165.63921133333332,54.0,95.0
272,165.787128,165.912128,61.0,100.0
273,166.037128,166.14962799999998,63.0,107.0
274,166.287128,166.499628,66.0,112.0
275,166.787128,167.06421133333333,63.0,95.0
276,167.287128,167.74337799999998,61.0,117.0
277,167.787128,168.70796133333332,63.0,122.0
278,169.537128,169.73921133333332,54.0,73.0
279,169.787128,170.04962799999998,61.0,100.0
280,170.037128,170.17462799999998,63.0,97.0
281,170.287128,170.537128,66.0,122.0
282,170.537128,170.82046133333333,63.0,107.0
283,171.037128,171.15796133333333,61.0,107.0
284,171.287128,171.67254466666665,61.0,117.0
285,171.787128,172.01421133333332,63.0,102.0
286,172.037128,173.01629466666665,59.0,117.0
287,173.537128,173.630878,59.0,100.0
288,173.787128,173.91421133333333,59.0,93.0
289,174.037128,174.1517113333333,61.0,112.0
290,174.287128,174.474628,63.0,107.0
291,174.787128,174.9642113333333,66.0,117.0
292,175.037128,175.387128,70.0,112.0
293,175.787128,176.64754466666665,66.0,107.0
294,177.037128,177.13504466666666,66.0,112.0
295,177.287128,177.69754466666666,68.0,127.0
296,177.787128,177.85796133333332,66.0,122.0
297,178.03799005,178.5358345125,63.0,107.0
298,178.81385154999998,178.90221355416665,61.0,112.0
299,179.07247205,179.54014412083333,61.0,117.0
300,179.84833354999998,179.98410931249998,63.0,122.0
301,180.36557455,180.66083295416666,61.0,117.0
302,180.62419505,181.464711675,59.0,89.0
303,182.17591804999998,182.38065927916665,68.0,127.0
304,182.43453854999998,182.65221080416666,66.0,99.0
305,182.69315905,182.86557271666666,63.0,100.0
306,182.95177955,183.17376214583334,61.0,100.0
307,183.21040004999998,183.3483309833333,59.0,97.0
308,183.46902054999998,183.91083057083333,63.0,107.0
309,183.98626155,184.12634765416666,59.0,100.0
310,184.49402,184.96902,59.0,112.0
311,184.74402,185.72110333333333,56.0,100.0
312,187.21095555,187.34805233333333,66.0,95.0
313,187.45289105,187.7371652625,68.0,102.0
314,187.93676205,188.10813302916668,63.0,96.0
315,188.179504,188.86492066666668,66.0,117.0
316,189.18036605,189.30536595833334,66.0,102.0
317,189.43898655,189.55967611666668,68.0,122.0
318,189.69760705000002,189.8463138375,71.0,112.0
319,189.95622755,190.13941707083333,68.0,107.0
320,190.21484805,190.32045142083334,66.0,93.0
321,190.47346855,190.57907192083334,63.0,127.0
322,190.73208905,190.84631310416668,61.0,122.0
323,190.99070955,191.10493360416666,59.0,107.0
324,191.24933005,191.35062307916667,61.0,112.0
325,191.50795055,191.7924331,63.0,127.0
326,192.02519155000002,192.1609673125,56.0,102.0
327,192.28381205,193.08769077083335,59.0,127.0
328,193.31829405,193.4411387875,61.0,97.0
329,193.57691455,193.6997592875,63.0,97.0
330,193.83553505,193.977776325,66.0,100.0
331,194.09415555,194.23208648333335,63.0,96.0
332,194.35277605,194.45837942083332,61.0,99.0
333,194.61139655,194.753637825,59.0,102.0
334,194.87001705,195.04674105833334,61.0,93.0
335,195.12863755,195.28165467916668,63.0,96.0
336,195.38725805,195.5101027875,66.0,100.0
337,195.64587855,195.89372319583333,68.0,122.0
338,196.16311955,196.29027462916667,63.0,97.0
339,196.42174005,197.02087754166666,66.0,102.0
340,197.456675775,197.59044763125002,63.0,102.0
341,197.719833525,197.9873772375,61.0,112.0
342,198.246149025,198.3557980875,63.0,102.0
343,198.509306775,199.24395549375,59.0,100.0
344,199.56193777500002,199.66720087500002,63.0,117.0
345,199.825095525,199.97202526875,61.0,112.0
346,200.088253275,200.22641109375002,59.0,107.0
347,200.351411025,200.49395480625,59.0,96.0
348,200.614568775,200.73737572500002,56.0,89.0
349,200.877726525,201.04658608125,59.0,99.0
350,201.14088427500002,201.2768491125,61.0,107.0
351,201.667199775,201.8733400125,63.0,97.0
352,201.930357525,202.6979009625,61.0,122.0
353,202.71983077500002,202.84483070625,54.0,93.0
354,202.982988525,203.12991826875,59.0,96.0
355,203.246146275,203.4522865125,61.0,96.0
356,203.509304025,203.61237414375,63.0,107.0
357,203.77200805,203.89916312916668,66.0,102.0
358,204.03062855000002,204.35605934583333,68.0,112.0
359,204.54786955,204.68149014166667,63.0,95.0
360,204.80649005,205.37761032083336,66.0,117.0
361,205.8405337,205.96977084166667,66.0,102.0
362,206.0947707,206.21129599166667,68.0,112.0
363,206.34900770000002,206.44222793333333,71.0,112.0
364,206.6032447,206.73460048333334,68.0,107.0
365,206.8574817,206.98036291666668,66.0,100.0
366,207.1117187,207.20917621666666,63.0,102.0
367,207.3659557,207.48883691666668,61.0,112.0
368,207.62019270000002,207.72612478333335,59.0,100.0
369,207.8744297,207.97400585833333,61.0,95.0
370,208.1286667,208.40620875833335,63.0,127.0
371,208.6371407,208.77273376666668,56.0,95.0
372,208.8913777,209.546037975,59.0,107.0
373,209.9083257,210.02696963333335,61.0,100.0
374,210.1625627,210.2642575,63.0,112.0
375,210.4167997,210.49730808333334,66.0,86.0
376,210.6710367,210.78332470833334,63.0,102.0
377,210.9252737,211.01637529166666,61.0,90.0
378,211.1795107,211.287561425,59.0,96.0
379,211.4337477,211.54391706666667,61.0,97.0
380,211.68798470000002,211.80239135,63.0,112.0
381,211.9422217,212.05239106666667,66.0,96.0
382,212.1964587,212.53544136666667,68.0,117.0
383,213.2134067,213.435864075,68.0,102.0
384,213.4676437,213.70281292500002,66.0,82.0
385,213.7218807,214.0015414,63.0,97.0
386,213.9761177,214.21340556666667,68.0,97.0
387,214.2303547,214.69857450833334,66.0,112.0
388,215.2473027,215.40408218333334,66.0,96.0
389,215.5015397,215.61806499166667,68.0,102.0
390,215.7557767,215.89984433333333,71.0,97.0
391,216.011375725,216.136375775,68.0,102.0
392,216.27923297499999,216.475661625,71.0,112.0
393,216.547090225,216.761376025,68.0,102.0
394,216.814947475,216.957804675,66.0,92.0
395,217.082804725,217.42432271875,68.0,99.0
396,217.618519225,218.36835707083333,63.0,99.0
397,218.42744797499998,218.63881159374998,61.0,102.0
398,218.70017522499998,218.84335703124998,63.0,93.0
399,218.97290247499998,219.13881155208333,66.0,97.0
400,219.245629725,219.55472060833333,63.0,112.0
401,219.518356975,219.70699332291665,61.0,112.0
402,219.791084225,220.03426602291665,59.0,107.0
403,221.15472047499998,221.67972043125,56.0,99.0
404,221.70017497499998,222.8047203375,59.0,112.0
405,224.35926566249998,224.591083825,66.0,100.0
406,224.85926562083333,225.36608376041664,68.0,107.0
407,225.43881102708332,225.71608373125,66.0,117.0
408,225.9138109875,226.36381095,63.0,95.0
409,226.43653821666666,226.8410836375,61.0,97.0
410,227.24108360416665,229.28653797916667,66.0,107.0
411,229.86381065833334,230.47290151666667,58.0,90.0
412,230.81835603333332,234.30926483333332,59.0,95.0
