,start,end,pitch,velocity
0,0.64655125,1.2198266916666667,73.0,63.0
1,1.16379225,1.9568951166666668,76.0,64.0
2,1.6831884208333334,2.1939639083333335,80.0,72.0
3,2.2392224958333333,2.7866358875,81.0,68.0
4,2.7866358875,3.2693941541666667,80.0,64.0
5,3.3038768875,3.7887903250000003,78.0,69.0
6,3.825428229166667,4.3124968375,76.0,65.0
7,4.3900829875000005,4.911634329166667,75.0,64.0
8,4.941806720833333,5.4482718666666665,71.0,65.0
9,5.491375283333333,5.948271500000001,75.0,73.0
10,5.9913749166666666,6.469822841666667,78.0,75.0
11,6.5883572375,7.133615458333334,80.0,75.0
12,7.16378785,7.6637874833333335,78.0,66.0
13,7.696115045833333,8.1788733125,76.0,67.0
14,8.219821558333333,8.754303925,75.0,67.0
15,10.370682050000001,10.504302641666667,75.0,67.0
16,8.7607694375,10.685336991666667,73.0,68.0
17,10.590509475000001,10.825423095833333,76.0,56.0
18,10.877147195833334,11.340508925,78.0,70.0
19,11.374991658333334,11.808180995833334,76.0,59.0
20,11.853439583333333,12.325421995833334,75.0,68.0
21,12.366370241666667,12.870680216666667,73.0,70.0
22,12.8857664125,13.678869279166667,72.0,59.0
23,13.715507183333333,14.8254201625,68.0,60.0
24,14.997833829166668,16.512918925,75.0,67.0
25,16.530160291666668,16.760763570833333,76.0,59.0
26,16.7392118625,17.0236944125,75.0,69.0
27,17.0366254375,18.547400191666668,73.0,68.0
28,35.366353375,37.40083464166667,64.0,77.0
29,37.435317375000004,39.29307463333333,63.0,76.0
30,49.849101375000004,50.857721325,61.0,96.0
31,50.883583375,51.89004815416667,53.0,77.0
32,97.44604922916668,97.89863510416667,76.0,85.0
33,97.96329022916667,98.314583075,75.0,91.0
34,98.48053122916667,98.67880694583334,73.0,76.0
35,98.73915172916666,98.961134325,68.0,85.0
36,98.99777222916667,99.17880657916668,75.0,85.0
37,99.25639272916668,99.53225459583334,68.0,72.0
38,99.51501322916667,99.71544411666667,76.0,91.0
39,99.77363372916668,100.021478375,68.0,77.0
40,100.03225422916667,100.228374775,78.0,91.0
41,100.29087472916667,100.56242625416667,68.0,75.0
42,100.54949522916667,100.76285714166667,80.0,106.0
43,100.80811572916667,101.08613276666667,68.0,51.0
44,101.06673622916666,101.29949467916667,76.0,103.0
45,101.32535672916667,101.6378565,68.0,60.0
46,101.58397722916668,101.79087362916667,75.0,115.0
47,101.84259772916667,102.10983891250001,68.0,71.0
48,102.10121822916668,102.28009740833333,73.0,100.0
49,102.35983872916667,102.65078679166668,68.0,75.0
50,102.61845922916667,102.840441825,71.0,85.0
51,102.87707972916667,103.124924375,68.0,88.0
52,103.13570022916667,103.32104492083334,73.0,103.0
53,103.39432072916667,103.71544118333334,68.0,76.0
54,103.65294122916667,103.84475143333334,75.0,100.0
55,103.91156172916666,104.18742359583334,68.0,73.0
56,104.17018222916667,104.39000965416668,76.0,95.0
57,104.42880272916668,104.7219059625,68.0,69.0
58,104.68742322916667,104.90509548333334,78.0,106.0
59,104.94604372916668,105.2585435,68.0,73.0
60,105.20466422916667,105.4201813125,75.0,109.0
61,105.46328472916667,105.75423279166667,68.0,73.0
62,105.72190522916667,105.918025775,73.0,113.0
63,105.98052572916667,106.25854276666666,68.0,73.0
64,106.23914622916666,106.45897365416667,71.0,95.0
65,106.49776672916667,106.77793893750001,68.0,91.0
66,106.75638722916668,106.97405948333333,69.0,98.0
67,107.01500772916667,107.27793857083334,68.0,85.0
68,107.27362822916668,107.47836945833333,71.0,88.0
69,107.53224872916667,107.81457610833334,68.0,79.0
70,107.79086922916667,108.02793802083333,73.0,106.0
71,108.04948972916667,108.34043779166667,68.0,71.0
72,108.30811022916667,108.48052389583334,75.0,95.0
73,108.56673072916666,108.8469029375,68.0,71.0
74,108.82535122916667,109.09690275416668,76.0,106.0
75,109.08397172916668,109.34259222916667,68.0,49.0
76,109.34259222916667,109.52362657916667,73.0,111.0
77,109.60121272916668,109.90293664583334,68.0,79.0
78,109.85983322916667,110.46543623333334,75.0,77.0
79,111.41155622916668,111.62276297083334,73.0,109.0
80,111.67017672916667,111.92233171666668,68.0,95.0
81,111.92879722916668,113.16371011666668,72.0,107.0
82,127.952492375,128.96757783750002,64.0,93.0
83,129.504215375,130.44602502916666,68.0,96.0
84,130.538697375,131.80378265416667,69.0,85.0
85,193.65287522916668,193.82528889583335,83.0,88.0
86,193.65287522916668,193.82959923750002,87.0,88.0
87,194.17011622916667,194.32528852916667,85.0,68.0
88,194.17011622916667,194.33606438333334,81.0,73.0
89,194.68735722916668,194.82097782083335,81.0,77.0
90,194.68735722916668,194.82528816250002,85.0,75.0
91,195.20459822916666,195.35761535833333,80.0,76.0
92,195.20459822916666,195.37916706666667,83.0,71.0
93,195.72183922916668,197.53649307083333,78.0,88.0
94,195.72183922916668,197.573130975,81.0,75.0
95,197.79080322916667,198.02356167916668,81.0,91.0
96,197.79080322916667,198.0321823625,85.0,91.0
97,198.30804422916668,198.48045789583335,80.0,82.0
98,198.30804422916668,198.49338892083335,83.0,75.0
99,198.82528522916667,199.00631957916667,80.0,95.0
100,198.82528522916667,199.00631957916667,83.0,88.0
101,199.34252622916668,199.53864677500002,78.0,88.0
102,199.34252622916668,199.54726745833335,81.0,76.0
103,199.85976722916666,201.08605943333333,76.0,88.0
104,199.85976722916666,201.0968352875,80.0,77.0
105,201.9287312291667,202.1442483125,80.0,100.0
106,201.9287312291667,202.14855865416666,76.0,103.0
107,202.44597222916667,202.59252384583334,75.0,82.0
108,202.44597222916667,202.5968341875,78.0,75.0
109,202.96321322916668,203.11623035833335,75.0,88.0
110,202.96321322916668,203.12054070000002,78.0,85.0
111,203.48045422916667,203.6183851625,73.0,82.0
112,203.48045422916667,203.62269550416667,76.0,77.0
113,204.60976374583333,204.79079809583334,69.0,77.0
114,204.61622925833333,204.79941877916667,73.0,75.0
115,203.99769522916668,205.55372857083333,72.0,92.0
116,205.33821148750002,205.55372857083333,72.0,71.0
117,203.99769522916668,205.55588374166666,75.0,85.0
118,205.34898734166669,206.93303790416667,68.0,70.0
119,207.59683052083335,207.8468303375,65.0,61.0
120,207.76924418750002,207.8791579,68.0,54.0
121,207.55588227500002,209.61622559166668,61.0,69.0
122,207.0709688375,209.63346695833334,49.0,77.0
123,207.3295893375,209.63993247083334,56.0,72.0
124,207.8338993125,209.650708325,73.0,79.0
