,start,end,pitch,velocity
0,18.297400375000002,18.512917458333334,61.0,41.0
1,18.556020875,18.86421030416667,63.0,64.0
2,18.814641375,18.918089575,64.0,68.0
3,19.331882375,19.616364925,57.0,60.0
4,19.849123375,20.219812758333333,57.0,71.0
5,20.366364375,20.8448123,64.0,70.0
6,20.883605375000002,22.129294116666667,63.0,65.0
7,22.435328375,22.5581731125,59.0,73.0
8,22.693948875,22.8814487375,61.0,66.0
9,22.952569375,23.019379670833334,63.0,82.0
10,23.728430875,24.06894786666667,56.0,85.0
11,24.504292375000002,25.021533375,63.0,66.0
12,25.021533375,25.857739658333333,61.0,67.0
13,26.573256375,26.771532091666668,61.0,73.0
14,26.831876875000003,27.07756635,59.0,63.0
15,27.090497375,27.700410720833336,57.0,59.0
16,27.866358875,28.612047983333333,57.0,62.0
17,28.642220375,29.135754495833336,61.0,79.0
18,29.159461375000003,29.935322875,60.0,66.0
19,29.676702375,30.131443420833335,61.0,71.0
20,30.193943375,30.6723913,63.0,98.0
21,30.711184375000002,31.219804691666667,56.0,71.0
22,31.228425375,32.704717395833335,63.0,88.0
23,33.038768875,33.39868240416667,61.0,73.0
24,33.297389375,33.90299237916667,63.0,88.0
25,33.814630375,34.767215883333336,64.0,73.0
26,34.849112375000004,34.99566399166667,61.0,72.0
27,35.107732875,35.323249958333335,63.0,88.0
28,35.366353375,35.728422075000005,64.0,85.0
29,35.883594375,36.25428375833334,57.0,71.0
30,36.400835375,36.892214325000005,57.0,73.0
31,36.918076375,37.12281760416667,64.0,88.0
32,37.176696875000005,37.99566179166667,63.0,79.0
33,37.952558375,38.26074780416667,64.0,98.0
34,38.469799375,38.952557641666665,64.0,95.0
35,38.987040375,39.465488300000004,66.0,85.0
36,39.504281375000005,40.12712574583333,63.0,79.0
37,40.280142875,41.0754009125,63.0,71.0
38,41.056004375,41.55600400833333,59.0,82.0
39,41.573245375,42.7241066,61.0,73.0
40,43.124968375,43.564623225,61.0,88.0
41,43.642209375,44.13574349583334,68.0,103.0
42,44.159450375,44.624967275,66.0,106.0
43,44.676691375000004,45.20901857083334,64.0,73.0
44,45.193932375,45.6529837625,61.0,98.0
45,45.711173375,46.586172733333335,63.0,100.0
46,46.228414375,46.6551382,64.0,95.0
47,46.745655375,47.23272398333334,63.0,85.0
48,47.262896375000004,47.711171908333334,56.0,75.0
49,47.780137375,49.42668789166667,63.0,79.0
50,49.590480875000004,49.773670395833335,63.0,73.0
51,49.331860375000005,49.855566887500004,64.0,71.0
52,49.849101375000004,50.381428570833336,61.0,76.0
53,51.918065375000005,52.0861687,69.0,106.0
54,52.176685875000004,52.3383236875,68.0,61.0
55,52.435306375,52.650823458333335,69.0,82.0
56,52.693926875,52.902978445833334,68.0,66.0
57,52.952547375,53.48056422916667,69.0,100.0
58,53.469788375,53.92021907916667,71.0,70.0
59,53.987029375,55.030132058333336,66.0,82.0
60,55.021511375,55.87280385416667,63.0,88.0
61,56.055993375,56.26073460416667,68.0,106.0
62,56.314613875,56.4827172,66.0,73.0
63,56.573234375000006,56.786596287500004,68.0,75.0
64,56.831854875000005,57.027975420833336,66.0,68.0
65,57.090475375000004,57.58616466666667,68.0,98.0
66,57.607716375,58.0861643,71.0,77.0
67,58.124957375,59.185301425000006,64.0,95.0
68,59.676680375000004,59.8447837,61.0,106.0
69,59.935300875,60.03659390416667,63.0,69.0
70,60.193921375,60.53443836666667,64.0,95.0
71,60.711162375,60.80167955,63.0,66.0
72,60.969782875,61.46331699583334,63.0,75.0
73,61.487023875000006,62.185299225,61.0,71.0
74,62.262885375,62.61633339166667,64.0,100.0
75,62.780126375,63.174522637500004,63.0,82.0
76,63.297367375,63.79090149583334,63.0,88.0
77,63.814608375000006,64.280125275,61.0,91.0
78,64.331849375,66.142192875,63.0,103.0
79,66.918054375,67.39003678750001,61.0,95.0
80,67.43529537500001,67.62064006666667,64.0,103.0
81,67.95253637500001,68.47193254583334,68.0,95.0
82,68.469777375,68.89434602916667,71.0,88.0
83,68.987018375,69.39219049166667,69.0,75.0
84,69.504259375,69.9503797375,69.0,95.0
85,70.021500375,70.22624160416667,68.0,98.0
86,70.28012087500001,71.04089617916667,66.0,91.0
87,71.055982375,71.34477526666667,59.0,103.0
88,71.573223375,71.80382665416667,63.0,76.0
89,72.090464375,72.53873990833334,69.0,71.0
90,72.60770537500001,73.0538257375,69.0,109.0
91,73.12494637500001,73.5064116125,68.0,85.0
92,73.642187375,74.11848012916667,68.0,109.0
93,74.159428375,74.64649698333334,66.0,88.0
94,74.676669375,75.711151375,64.0,103.0
95,76.228392375,76.37063365,61.0,98.0
96,76.487012875,76.60339210000001,63.0,73.0
97,76.745633375,76.8555470875,64.0,111.0
98,77.26287437500001,77.63356375833334,57.0,75.0
99,77.78011537500001,78.24778744583334,57.0,85.0
100,78.297356375,78.79304566666667,64.0,98.0
101,78.814597375,79.32752803333334,63.0,106.0
102,79.331838375,79.84692420416667,63.0,103.0
103,79.849079375,80.28442388333333,66.0,117.0
104,80.366320375,80.83614761666666,63.0,98.0
105,80.883561375,81.75425039166667,64.0,113.0
106,81.918043375,82.9072667875,66.0,109.0
107,82.95252537500001,83.57321457500001,68.0,103.0
108,83.469766375,83.92019707916667,61.0,113.0
109,83.987007375,84.39648983333333,64.0,76.0
110,84.504248375,84.98700664166667,68.0,111.0
111,85.021489375,85.44390285833333,71.0,98.0
112,85.538730375,85.91804044166668,69.0,88.0
113,86.055971375,86.5408848125,69.0,106.0
114,86.573212375,86.7995053125,68.0,111.0
115,86.831832875,87.24778084583333,66.0,103.0
116,87.60769437500001,88.12924571666667,59.0,88.0
117,88.124935375,88.46545236666667,63.0,98.0
118,88.642176375,89.08398639583334,69.0,85.0
119,89.159417375,89.58398602916667,69.0,103.0
120,89.676658375,90.08829600416666,68.0,95.0
121,90.193899375,90.57967495416668,68.0,109.0
122,90.711140375,91.5710535375,66.0,120.0
123,91.487001875,92.75855266666667,64.0,109.0
124,92.78010437500001,92.96544906666666,61.0,111.0
125,93.038724875,93.29950054583334,63.0,95.0
126,93.297345375,93.97622418750001,64.0,100.0
127,94.073206875,94.8813959375,57.0,79.0
128,94.849068375,95.39432659583333,64.0,100.0
129,95.366309375,95.80380905416666,63.0,100.0
130,95.883550375,96.38355000833333,64.0,106.0
131,96.400791375,96.83613588333334,66.0,100.0
132,97.43527337500001,98.25208312083333,63.0,103.0
133,98.211134875,99.17018589583334,61.0,113.0
134,113.469744375,113.68526145833334,61.0,41.0
135,113.72836487500001,114.03655430416667,63.0,64.0
136,113.986985375,114.090433575,64.0,68.0
137,114.504226375,114.78870892500001,57.0,60.0
138,115.021467375,115.39215675833334,57.0,71.0
139,115.538708375,116.01715630000001,64.0,70.0
140,116.05594937500001,117.30163811666667,63.0,65.0
141,117.607672375,117.73051711250001,59.0,73.0
142,117.866292875,118.0537927375,61.0,66.0
143,118.124913375,118.19172367083334,63.0,82.0
144,118.90077487500001,119.24129186666667,56.0,85.0
145,119.676636375,120.193877375,63.0,66.0
146,120.193877375,121.03008365833334,61.0,67.0
147,121.74560037500001,121.94387609166667,61.0,73.0
148,122.004220875,122.24991035000001,59.0,63.0
149,122.26284137500001,122.87275472083334,57.0,59.0
150,123.038702875,123.78439198333334,57.0,62.0
151,123.814564375,124.30809849583333,61.0,79.0
152,124.331805375,125.107666875,60.0,66.0
153,124.849046375,125.30378742083334,61.0,71.0
154,125.366287375,125.84473530000001,63.0,98.0
155,125.88352837500001,126.39214869166668,56.0,71.0
156,126.40076937500001,127.87706139583334,63.0,88.0
157,127.952492375,128.12921638333333,64.0,88.0
158,128.211112875,128.4503368375,63.0,73.0
159,128.469733375,130.46973190833333,61.0,76.0
160,130.538697375,130.7068007,69.0,106.0
161,130.797317875,130.9589556875,68.0,61.0
162,131.055938375,131.27145545833335,69.0,82.0
163,131.31455887500002,131.52361044583333,68.0,66.0
164,131.573179375,132.10119622916667,69.0,100.0
165,132.090420375,132.54085107916669,71.0,70.0
166,132.607661375,133.65076405833335,66.0,82.0
167,133.64214337500002,134.49343585416668,63.0,88.0
168,134.67662537500001,134.88136660416666,68.0,106.0
169,134.935245875,135.1033492,66.0,73.0
170,135.193866375,135.4072282875,68.0,75.0
171,135.452486875,135.64860742083334,66.0,68.0
172,135.711107375,136.20679666666666,68.0,98.0
173,136.228348375,136.7067963,71.0,77.0
174,136.745589375,137.805933425,64.0,95.0
175,138.29731237500002,138.4654157,61.0,106.0
176,138.555932875,138.65722590416667,63.0,69.0
177,138.814553375,139.15507036666668,64.0,95.0
178,139.33179437500002,139.42231155000002,63.0,66.0
179,139.590414875,140.08394899583334,63.0,75.0
180,140.107655875,140.805931225,61.0,71.0
181,140.883517375,141.23696539166667,64.0,100.0
182,141.400758375,141.79515463750002,63.0,82.0
183,141.917999375,142.41153349583334,63.0,88.0
184,142.435240375,142.90075727500002,61.0,91.0
185,142.95248137500002,144.762824875,63.0,103.0
186,145.538686375,146.0106687875,61.0,95.0
187,146.055927375,146.24127206666668,64.0,103.0
188,146.573168375,147.09256454583334,68.0,95.0
189,147.090409375,147.51497802916668,71.0,88.0
190,147.60765037500002,148.01282249166667,69.0,75.0
191,148.124891375,148.57101173750002,69.0,95.0
192,148.64213237500002,148.84687360416666,68.0,98.0
193,148.900752875,149.66152817916668,66.0,91.0
194,149.676614375,149.96540726666666,59.0,103.0
195,150.193855375,150.42445865416667,63.0,76.0
196,150.711096375,151.15937190833333,69.0,71.0
197,151.228337375,151.6744577375,69.0,109.0
198,151.745578375,152.12704361250002,68.0,85.0
199,152.262819375,152.73911212916667,68.0,109.0
200,152.780060375,153.26712898333335,66.0,88.0
201,153.29730137500002,154.33178337500001,64.0,103.0
202,154.849024375,154.99126565,61.0,98.0
203,155.107644875,155.2240241,63.0,73.0
204,155.366265375,155.47617908750001,64.0,111.0
205,155.883506375,156.25419575833334,57.0,75.0
206,156.400747375,156.86841944583335,57.0,85.0
207,156.917988375,157.41367766666667,64.0,98.0
208,157.435229375,157.94816003333335,63.0,106.0
209,157.95247037500002,158.46755620416667,63.0,103.0
210,158.469711375,158.90505588333335,66.0,117.0
211,158.98695237500002,159.45677961666667,63.0,98.0
212,159.504193375,160.37488239166666,64.0,113.0
213,160.538675375,161.5278987875,66.0,109.0
214,161.573157375,162.193846575,68.0,103.0
215,162.090398375,162.54082907916668,61.0,113.0
216,162.60763937500002,163.01712183333333,64.0,76.0
217,163.124880375,163.60763864166668,68.0,111.0
218,163.64212137500002,164.06453485833333,71.0,98.0
219,164.159362375,164.53867244166668,69.0,88.0
220,164.676603375,165.1615168125,69.0,106.0
221,165.193844375,165.4201373125,68.0,111.0
222,165.452464875,165.86841284583335,66.0,103.0
223,166.228326375,166.74987771666667,59.0,88.0
224,166.745567375,167.08608436666668,63.0,98.0
225,167.26280837500002,167.70461839583334,69.0,85.0
226,167.780049375,168.20461802916668,69.0,103.0
227,168.29729037500002,168.70892800416667,68.0,95.0
228,168.814531375,169.20030695416668,68.0,109.0
229,169.331772375,170.1916855375,66.0,120.0
230,170.107633875,171.37918466666667,64.0,109.0
231,171.400736375,171.58608106666668,61.0,111.0
232,171.65935687500001,171.92013254583335,63.0,95.0
233,171.91797737500002,172.5968561875,64.0,100.0
234,172.693838875,173.5020279375,57.0,79.0
235,173.469700375,174.01495859583335,64.0,100.0
236,173.98694137500001,174.42444105416666,63.0,100.0
237,174.504182375,175.00418200833334,64.0,106.0
238,175.021423375,175.45676788333333,66.0,100.0
239,176.055905375,176.87271512083333,63.0,103.0
240,176.831766875,177.79081789583333,61.0,113.0
241,178.64211037500002,179.18736859583333,61.0,103.0
242,179.159351375,179.30590299166667,64.0,111.0
243,179.676592375,180.19167820416666,68.0,106.0
244,180.193833375,180.61840202916667,71.0,98.0
245,180.711074375,181.12486717500002,69.0,73.0
246,181.228315375,181.71538398333334,69.0,100.0
247,181.745556375,182.25848703333335,68.0,79.0
248,182.26279737500002,182.93090033333334,66.0,95.0
249,182.780038375,183.23908976250002,59.0,98.0
250,183.29727937500002,183.50202060416666,63.0,109.0
251,183.814520375,184.19814078333334,69.0,111.0
252,184.331761375,184.7908127625,69.0,111.0
253,184.849002375,185.23477795416667,68.0,103.0
254,185.366243375,185.84253612916666,68.0,103.0
255,185.883484375,186.70244929166668,66.0,79.0
256,186.400725375,187.52572455,64.0,77.0
257,187.95244837500002,188.17658614166666,61.0,95.0
258,188.211068875,188.4826204,63.0,77.0
259,188.469689375,189.2369301916667,64.0,85.0
260,189.24555087500002,190.11408472083335,57.0,69.0
261,190.021412375,190.57744645,64.0,95.0
262,190.538653375,191.34253209583335,63.0,75.0
263,191.31451487500001,192.43089336666668,61.0,88.0
264,192.866237875,193.8597716291667,60.0,55.0
265,193.64209937500002,196.2412354,61.0,82.0
