,start,end,pitch,velocity
0,22.34960639166667,22.565185800000002,63.0,89.0
1,22.56699739166667,22.782576800000005,63.0,89.0
2,22.78438839166667,23.21917039166667,63.0,102.0
3,23.21917039166667,23.43656139166667,64.0,94.0
4,23.43656139166667,25.826050800000004,63.0,96.0
5,25.82786239166667,26.06336930833334,63.0,108.0
6,26.04525339166667,26.262644391666672,64.0,104.0
7,26.262644391666672,26.695614800000005,66.0,116.0
8,26.69742639166667,26.91481739166667,66.0,110.0
9,26.91481739166667,27.56699039166667,68.0,116.0
10,27.56699039166667,29.306118391666672,66.0,114.0
11,29.306118391666672,29.52350939166667,68.0,110.0
12,29.52350939166667,29.74090039166667,70.0,94.0
13,29.74090039166667,31.045246391666673,71.0,114.0
14,31.045246391666673,31.262637391666672,63.0,113.0
15,31.262637391666672,31.48002839166667,71.0,108.0
16,31.48002839166667,31.91481039166667,70.0,114.0
17,31.91481039166667,32.34959239166667,68.0,93.0
18,32.34959239166667,32.784374391666674,66.0,108.0
19,32.784374391666674,36.2608188,68.0,110.0
20,36.262630391666676,36.480021391666675,68.0,110.0
21,36.480021391666675,36.70465875833334,66.0,92.0
22,36.697412391666674,37.13219439166667,64.0,107.0
23,37.13219439166667,37.56697639166667,63.0,100.0
24,37.56697639166667,38.00175839166667,64.0,107.0
25,38.00175839166667,38.436540391666675,66.0,98.0
26,38.436540391666675,38.87132239166667,68.0,116.0
27,38.87132239166667,39.08690180000001,66.0,102.0
28,39.08871339166667,39.74088639166667,66.0,108.0
29,39.74088639166667,39.95827739166667,71.0,104.0
30,39.95827739166667,40.222769775,73.0,88.0
31,40.175668391666676,40.610450391666674,75.0,107.0
32,40.610450391666674,41.04342080000001,73.0,107.0
33,41.04523239166667,41.48001439166667,73.0,108.0
34,41.48001439166667,41.751753141666676,71.0,104.0
35,41.69740539166667,42.349578391666675,68.0,110.0
36,42.349578391666675,43.21914239166667,66.0,96.0
37,43.21914239166667,43.43653339166667,71.0,108.0
38,43.43653339166667,43.70646055000001,73.0,110.0
39,43.65392439166667,44.088706391666676,75.0,113.0
40,44.088706391666676,44.52167680000001,73.0,107.0
41,44.523488391666675,44.95827039166667,73.0,107.0
42,44.95827039166667,45.391240800000006,71.0,102.0
43,45.39305239166667,46.045225391666676,71.0,104.0
44,46.045225391666676,46.91478939166667,68.0,114.0
45,46.91478939166667,47.237252708333344,71.0,114.0
46,47.13218039166667,50.175654391666676,73.0,117.0
47,50.175654391666676,50.41297290000001,63.0,110.0
48,50.393045391666675,50.62492912500001,64.0,92.0
49,50.610436391666674,51.04521839166667,63.0,108.0
50,51.04521839166667,51.26260939166667,64.0,102.0
51,51.26260939166667,53.65209880000001,63.0,107.0
52,53.65391039166668,53.91477959166667,63.0,98.0
53,53.87130139166668,54.110431491666674,64.0,98.0
54,54.088692391666676,54.52166280000001,66.0,107.0
55,54.523474391666674,54.740865391666674,66.0,108.0
56,54.740865391666674,55.63035690000001,68.0,108.0
57,55.61042939166668,57.13216639166667,66.0,113.0
58,57.13216639166667,57.34955739166668,68.0,104.0
59,57.34955739166668,57.61223818333334,70.0,102.0
60,57.56694839166668,58.87129439166667,71.0,113.0
61,58.87129439166667,59.12854040833334,70.0,104.0
62,59.08868539166667,59.30607639166668,71.0,96.0
63,59.30607639166668,59.74085839166668,70.0,100.0
64,59.74085839166668,60.175640391666676,68.0,110.0
65,60.175640391666676,60.610422391666674,66.0,110.0
66,60.610422391666674,64.08686680000001,68.0,114.0
67,64.08867839166668,64.32962008333334,68.0,107.0
68,64.30606939166668,64.52527198333334,66.0,93.0
69,64.52346039166667,64.95824239166667,64.0,100.0
70,64.95824239166667,65.39302439166667,63.0,100.0
71,65.39302439166667,65.82780639166668,64.0,107.0
72,65.82780639166668,66.26258839166668,66.0,113.0
73,66.26258839166668,66.69737039166668,68.0,114.0
74,66.69737039166668,66.9129498,66.0,107.0
75,66.91476139166667,67.56693439166668,66.0,110.0
76,67.56693439166668,67.78794857500002,71.0,104.0
77,67.78432539166668,68.00171639166668,73.0,96.0
78,68.00171639166668,68.43649839166667,75.0,108.0
79,68.43649839166667,68.8694688,73.0,102.0
80,68.87128039166667,69.31149716666668,73.0,107.0
81,69.30606239166667,69.52345339166668,71.0,96.0
82,69.52345339166668,70.17562639166668,68.0,94.0
83,70.17562639166668,71.04519039166668,66.0,92.0
84,71.04519039166668,71.26258139166667,71.0,108.0
85,71.26258139166667,71.47997239166668,73.0,107.0
86,71.47997239166668,71.91475439166668,75.0,116.0
87,71.91475439166668,72.34772480000001,73.0,108.0
88,72.34953639166667,72.78431839166667,73.0,104.0
89,72.78431839166667,73.2172888,71.0,102.0
90,73.21910039166667,73.87127339166668,71.0,108.0
91,73.87127339166668,74.52344639166668,68.0,117.0
92,74.52344639166668,75.39119880000001,80.0,120.0
93,75.39301039166668,76.69735639166667,80.0,123.0
94,76.69735639166667,79.08865739166667,78.0,117.0
95,79.08865739166667,79.30604839166668,68.0,116.0
96,79.30604839166668,79.73901880000001,83.0,113.0
97,79.74083039166668,79.95640980000002,83.0,119.0
98,79.95822139166668,80.17561239166668,83.0,107.0
99,80.17561239166668,80.61039439166667,82.0,113.0
100,80.61039439166667,81.04517639166669,80.0,117.0
101,81.04517639166669,81.47995839166668,78.0,114.0
102,81.47995839166668,81.91474039166668,73.0,117.0
103,81.91474039166668,83.21908639166668,75.0,116.0
104,83.21908639166668,83.65386839166668,76.0,116.0
105,83.65386839166668,86.04516939166668,78.0,117.0
106,86.04516939166668,86.26256039166668,68.0,108.0
107,86.26256039166668,86.47813980000001,80.0,116.0
108,86.47995139166667,86.9129218,80.0,116.0
109,86.91473339166669,87.13212439166668,80.0,114.0
110,87.13212439166668,87.56690639166668,78.0,116.0
111,87.56690639166668,87.78248580000002,73.0,113.0
112,87.78429739166668,88.21907939166668,73.0,116.0
113,88.21907939166668,88.87125239166669,76.0,113.0
114,88.87125239166669,89.08864339166668,75.0,117.0
115,89.08864339166668,89.30784598333335,73.0,100.0
116,89.30603439166669,93.00168139166668,71.0,113.0
117,93.00168139166668,93.21907239166669,68.0,110.0
118,93.21907239166669,93.45095612500002,80.0,116.0
119,93.43646339166668,93.87124539166668,82.0,116.0
120,93.87124539166668,94.08682480000002,83.0,120.0
121,94.08863639166668,94.52341839166668,83.0,119.0
122,94.52341839166668,94.95820039166668,82.0,113.0
123,94.95820039166668,95.39298239166668,80.0,116.0
124,95.39298239166668,95.82776439166668,78.0,117.0
125,95.82776439166668,96.69732839166669,75.0,119.0
126,96.69732839166669,97.13211039166669,73.0,114.0
127,97.13211039166669,97.56689239166668,78.0,116.0
128,97.56689239166668,100.17558439166669,71.0,117.0
129,100.17558439166669,100.45275791666668,76.0,116.0
130,100.39297539166668,100.82775739166668,75.0,114.0
131,100.82775739166668,101.04514839166669,76.0,107.0
132,101.04514839166669,101.48355357500002,75.0,116.0
133,101.47993039166668,101.71000253333335,73.0,110.0
134,101.69732139166668,101.71000253333335,73.0,114.0
135,101.91471239166668,101.95275581666668,73.0,116.0
136,102.34949439166668,102.78246480000001,71.0,117.0
137,102.78427639166668,106.26253239166668,71.0,116.0
138,119.74077439166669,119.95816539166668,66.0,89.0
139,119.95816539166668,120.17555639166669,64.0,89.0
140,120.17555639166669,120.61033839166669,63.0,102.0
141,120.61033839166669,120.82772939166668,64.0,94.0
142,120.82772939166668,123.21721880000003,63.0,96.0
143,123.21903039166669,123.45453730833336,63.0,108.0
144,123.43642139166668,123.65381239166669,64.0,104.0
145,123.65381239166669,124.08678280000002,66.0,116.0
146,124.08859439166669,124.30598539166668,66.0,110.0
147,124.30598539166668,124.95815839166669,68.0,116.0
148,124.95815839166669,126.69728639166668,66.0,114.0
149,126.69728639166668,126.91467739166669,68.0,110.0
150,126.91467739166669,127.13206839166669,70.0,94.0
151,127.13206839166669,128.4364143916667,71.0,114.0
152,128.4364143916667,128.65380539166668,63.0,113.0
153,128.65380539166668,128.8711963916667,71.0,108.0
154,128.8711963916667,129.30597839166668,70.0,114.0
155,129.30597839166668,129.7407603916667,68.0,93.0
156,129.7407603916667,130.17554239166668,66.0,108.0
157,130.17554239166668,133.65198680000003,68.0,110.0
158,133.6537983916667,133.8711893916667,68.0,110.0
159,133.8711893916667,134.09582675833335,66.0,92.0
160,134.08858039166668,134.5233623916667,64.0,107.0
161,134.5233623916667,134.95814439166668,63.0,100.0
162,134.95814439166668,135.3929263916667,64.0,107.0
163,135.3929263916667,135.82770839166668,66.0,98.0
164,135.82770839166668,136.2624903916667,68.0,116.0
165,136.2624903916667,136.47806980000001,66.0,102.0
166,136.47988139166668,137.13205439166668,66.0,108.0
167,137.13205439166668,137.34944539166668,71.0,104.0
168,137.34944539166668,137.613937775,73.0,88.0
169,137.5668363916667,138.00161839166668,75.0,107.0
170,138.00161839166668,138.43458880000003,73.0,107.0
171,138.4364003916667,138.87118239166668,73.0,108.0
172,138.87118239166668,139.14292114166668,71.0,104.0
173,139.0885733916667,139.74074639166668,68.0,110.0
174,139.74074639166668,140.6103103916667,66.0,96.0
175,140.6103103916667,140.8277013916667,71.0,108.0
176,140.8277013916667,141.09762855000002,73.0,110.0
177,141.04509239166669,141.4798743916667,75.0,113.0
178,141.4798743916667,141.91284480000002,73.0,107.0
179,141.91465639166668,142.3494383916667,73.0,107.0
180,142.3494383916667,142.7824088,71.0,102.0
181,142.78422039166668,143.43639339166668,71.0,104.0
182,143.43639339166668,144.30595739166668,68.0,114.0
183,144.30595739166668,144.62842070833335,71.0,114.0
184,144.5233483916667,147.56682239166668,73.0,117.0
185,147.56682239166668,147.80414090000002,63.0,110.0
186,147.7842133916667,148.01609712500002,64.0,92.0
187,148.0016043916667,148.4363863916667,63.0,108.0
188,148.4363863916667,148.6537773916667,64.0,102.0
189,148.6537773916667,151.04326680000003,63.0,107.0
190,151.0450783916667,151.3059475916667,63.0,98.0
191,151.26246939166668,151.5015994916667,64.0,98.0
192,151.47986039166668,151.91283080000002,66.0,107.0
193,151.9146423916667,152.13203339166668,66.0,108.0
194,152.13203339166668,153.02152490000003,68.0,108.0
195,153.00159739166668,154.52333439166668,66.0,113.0
196,154.52333439166668,154.7407253916667,68.0,104.0
197,154.7407253916667,155.00340618333337,70.0,102.0
198,154.9581163916667,156.2624623916667,71.0,113.0
199,156.2624623916667,156.51970840833334,70.0,104.0
200,156.4798533916667,156.6972443916667,71.0,96.0
201,156.6972443916667,157.1320263916667,70.0,100.0
202,157.1320263916667,157.56680839166668,68.0,110.0
203,157.56680839166668,158.0015903916667,66.0,110.0
204,158.0015903916667,161.47803480000002,68.0,114.0
205,161.47984639166668,161.72078808333336,68.0,107.0
206,161.6972373916667,161.91643998333336,66.0,93.0
207,161.9146283916667,162.34941039166668,64.0,100.0
208,162.34941039166668,162.7841923916667,63.0,100.0
209,162.7841923916667,163.2189743916667,64.0,107.0
210,163.2189743916667,163.6537563916667,66.0,113.0
211,163.6537563916667,164.0885383916667,68.0,114.0
212,164.0885383916667,164.30411780000003,66.0,107.0
213,164.3059293916667,164.9581023916667,66.0,110.0
214,164.9581023916667,165.17911657500002,71.0,104.0
215,165.1754933916667,165.39288439166668,73.0,96.0
216,165.39288439166668,165.8276663916667,75.0,108.0
217,165.8276663916667,166.26063680000001,73.0,102.0
218,166.26244839166668,166.7026651666667,73.0,107.0
219,166.6972303916667,166.91462139166669,71.0,96.0
220,166.91462139166669,167.5667943916667,68.0,94.0
221,167.5667943916667,168.4363583916667,66.0,92.0
222,168.4363583916667,168.65374939166668,71.0,108.0
223,168.65374939166668,168.8711403916667,73.0,107.0
224,168.8711403916667,169.30592239166668,75.0,116.0
225,169.30592239166668,169.73889280000003,73.0,108.0
226,169.7407043916667,170.17548639166668,73.0,104.0
227,170.17548639166668,170.60845680000003,71.0,102.0
228,170.6102683916667,171.2624413916667,71.0,108.0
229,171.2624413916667,171.9146143916667,68.0,117.0
230,171.9146143916667,172.78236680000003,80.0,120.0
231,172.7841783916667,174.08852439166668,80.0,123.0
232,174.08852439166668,176.4798253916667,78.0,117.0
233,176.4798253916667,176.6972163916667,68.0,116.0
234,176.6972163916667,177.13018680000002,83.0,113.0
235,177.13199839166668,177.34757780000004,83.0,119.0
236,177.3493893916667,177.5667803916667,83.0,107.0
237,177.5667803916667,178.00156239166668,82.0,113.0
238,178.00156239166668,178.4363443916667,80.0,117.0
239,178.4363443916667,178.8711263916667,78.0,114.0
240,178.8711263916667,179.3059083916667,73.0,117.0
241,179.3059083916667,180.6102543916667,75.0,116.0
242,180.6102543916667,181.04503639166668,76.0,116.0
243,181.04503639166668,183.43633739166668,78.0,117.0
244,183.43633739166668,183.6537283916667,68.0,108.0
245,183.6537283916667,183.86930780000003,80.0,116.0
246,183.8711193916667,184.30408980000004,80.0,116.0
247,184.3059013916667,184.5232923916667,80.0,114.0
248,184.5232923916667,184.95807439166668,78.0,116.0
249,184.95807439166668,185.17365380000004,73.0,113.0
250,185.1754653916667,185.6102473916667,73.0,116.0
251,185.6102473916667,186.2624203916667,76.0,113.0
252,186.2624203916667,186.4798113916667,75.0,117.0
253,186.4798113916667,186.69901398333337,73.0,100.0
254,186.6972023916667,190.3928493916667,71.0,113.0
255,190.3928493916667,190.6102403916667,68.0,110.0
256,190.6102403916667,190.84212412500003,80.0,116.0
257,190.8276313916667,191.26241339166668,82.0,116.0
258,191.26241339166668,191.47799280000004,83.0,120.0
259,191.4798043916667,191.9145863916667,83.0,119.0
260,191.9145863916667,192.3493683916667,82.0,113.0
261,192.3493683916667,192.78415039166669,80.0,116.0
262,192.78415039166669,193.2189323916667,78.0,117.0
263,193.2189323916667,194.0884963916667,75.0,119.0
264,194.0884963916667,194.5232783916667,73.0,114.0
265,194.5232783916667,194.9580603916667,78.0,116.0
266,194.9580603916667,197.5667523916667,71.0,117.0
267,197.5667523916667,197.8439259166667,76.0,116.0
268,197.7841433916667,198.2189253916667,75.0,114.0
269,198.2189253916667,198.4363163916667,76.0,107.0
270,198.4363163916667,198.87472157500002,75.0,116.0
271,198.8710983916667,199.10117053333337,73.0,110.0
272,199.08848939166668,199.10117053333337,73.0,114.0
273,199.3058803916667,199.3439238166667,73.0,116.0
274,199.7406623916667,200.17363280000004,71.0,117.0
275,200.1754443916667,203.6537003916667,71.0,116.0
276,228.8710563916667,229.30402680000003,76.0,116.0
277,229.3058383916667,230.17359080000003,76.0,116.0
278,230.1754023916667,230.6101843916667,76.0,117.0
279,230.6101843916667,231.0449663916667,78.0,114.0
280,231.0449663916667,231.47793680000004,80.0,116.0
281,231.4797483916667,231.91453039166672,80.0,116.0
282,231.91453039166672,232.34750080000003,78.0,113.0
283,232.3493123916667,232.7840943916667,78.0,116.0
284,232.7840943916667,233.2188763916667,76.0,114.0
285,233.2188763916667,233.6536583916667,78.0,116.0
286,233.6536583916667,233.8710493916667,76.0,110.0
287,233.8710493916667,235.82756839166672,73.0,116.0
288,235.82756839166672,236.26053880000003,76.0,117.0
289,236.2623503916667,236.69532080000005,76.0,116.0
290,236.6971323916667,237.13010280000003,76.0,116.0
291,237.1319143916667,237.5666963916667,76.0,114.0
292,237.5666963916667,238.0014783916667,78.0,116.0
293,238.0014783916667,238.43444880000004,80.0,116.0
294,238.4362603916667,239.3058243916667,80.0,116.0
295,239.3058243916667,240.1753883916667,78.0,116.0
296,240.1753883916667,241.0449523916667,80.0,120.0
297,241.0449523916667,242.7840803916667,78.0,120.0
298,242.7840803916667,243.2188623916667,76.0,116.0
299,243.2188623916667,243.65364439166672,78.0,114.0
300,243.65364439166672,244.08661480000004,80.0,107.0
301,244.0884263916667,244.53045475833338,80.0,114.0
302,244.5232083916667,244.9579903916667,78.0,113.0
303,244.9579903916667,245.3927723916667,76.0,114.0
304,245.3927723916667,245.8275543916667,75.0,114.0
305,245.8275543916667,246.04313380000005,78.0,116.0
306,246.04494539166672,249.7405923916667,78.0,113.0
307,249.7405923916667,250.17356280000004,80.0,116.0
308,250.1753743916667,250.60834480000003,80.0,116.0
309,250.6101563916667,251.04312680000004,80.0,117.0
310,251.0449383916667,251.47972039166672,80.0,114.0
311,251.47972039166672,251.9145023916667,82.0,119.0
312,251.9145023916667,252.34747280000005,83.0,116.0
313,252.3492843916667,254.0884123916667,83.0,113.0
314,254.0884123916667,256.47971339166673,82.0,119.0
315,256.47971339166673,256.6971043916667,71.0,108.0
316,256.6971043916667,256.91811857500005,83.0,116.0
317,256.9144953916667,256.91811857500005,83.0,114.0
318,257.3492773916667,257.5666683916667,83.0,114.0
319,257.5666683916667,258.0014503916667,82.0,117.0
320,258.0014503916667,258.4362323916667,80.0,108.0
321,258.4362323916667,258.87101439166673,78.0,113.0
322,258.87101439166673,259.3057963916667,73.0,108.0
323,259.3057963916667,260.6101423916667,75.0,114.0
324,260.6101423916667,261.0449243916667,76.0,116.0
325,261.0449243916667,261.9144883916667,80.0,117.0
326,261.9144883916667,263.4362253916667,78.0,117.0
327,263.4362253916667,263.65361639166673,71.0,107.0
328,263.65361639166673,263.86919580000006,80.0,117.0
329,263.8710073916667,264.30397780000004,80.0,117.0
330,264.30578939166674,264.5231803916667,80.0,116.0
331,264.5231803916667,264.9579623916667,78.0,119.0
332,264.9579623916667,265.17354180000007,73.0,116.0
333,265.1753533916667,265.6101353916667,73.0,116.0
334,265.6101353916667,266.2623083916667,76.0,108.0
335,266.2623083916667,266.69709039166673,75.0,116.0
336,266.69709039166673,267.1318723916667,73.0,108.0
337,267.1318723916667,270.39092580000005,71.0,102.0
338,270.3927373916667,270.6101283916667,71.0,113.0
339,270.6101283916667,270.82933098333336,80.0,117.0
340,270.8275193916667,271.2623013916667,82.0,116.0
341,271.2623013916667,271.47969239166673,83.0,117.0
342,271.47969239166673,271.9126628,82.0,117.0
343,271.9144743916667,272.3492563916667,82.0,113.0
344,272.3492563916667,272.7840383916667,80.0,113.0
345,272.7840383916667,273.2188203916667,78.0,116.0
346,273.2188203916667,274.0883843916667,75.0,119.0
347,274.0883843916667,274.52316639166673,73.0,117.0
348,274.52316639166673,274.9579483916667,78.0,88.0
349,274.9579483916667,277.56664039166674,71.0,113.0
350,277.56664039166674,277.9271471333334,76.0,116.0
351,277.7840313916667,278.2188133916667,75.0,107.0
352,278.2188133916667,278.4923637333334,76.0,107.0
353,278.4362043916667,278.8709863916667,75.0,108.0
354,278.8709863916667,279.1372903666667,73.0,114.0
355,279.0883773916667,279.1372903666667,73.0,110.0
356,279.30576839166673,279.7405503916667,73.0,110.0
357,279.7405503916667,280.17352080000006,71.0,116.0
358,280.1753323916667,284.5231523916667,71.0,117.0
359,284.5231523916667,284.9579343916667,76.0,113.0
360,284.9579343916667,285.39271639166674,75.0,102.0
361,285.39271639166674,285.8274983916667,76.0,104.0
362,285.8274983916667,286.39996135833337,75.0,107.0
363,286.2622803916667,286.69525080000005,73.0,110.0
364,286.6970623916667,289.0937981666667,73.0,110.0
365,289.0937981666667,290.01952150833336,70.0,117.0
366,289.99415922500003,294.7948771416667,71.0,114.0
