,start,end,pitch,velocity
0,1.9148523916666669,2.6956484000000005,66.0,94.0
1,1.9148523916666669,2.757242516666667,63.0,104.0
2,1.9148523916666669,2.7644888833333336,59.0,90.0
3,2.784416391666667,3.503618283333334,66.0,92.0
4,2.784416391666667,3.5398501166666674,59.0,88.0
5,2.784416391666667,3.5452848916666673,63.0,92.0
6,3.6539803916666673,4.342385225000001,66.0,89.0
7,3.6539803916666673,4.3478200000000005,59.0,89.0
8,3.6539803916666673,4.3478200000000005,63.0,93.0
9,4.523544391666667,5.144920333333334,63.0,98.0
10,4.523544391666667,5.1865869416666674,59.0,91.0
11,4.523544391666667,5.206514450000001,66.0,93.0
12,1.9148523916666669,5.302528808333334,47.0,93.0
13,5.393108391666668,5.905788833333334,66.0,92.0
14,5.393108391666668,5.949267033333334,61.0,98.0
15,5.393108391666668,5.952890216666668,58.0,91.0
16,6.262672391666667,6.858686050000001,61.0,108.0
17,6.262672391666667,6.862309233333335,66.0,98.0
18,6.262672391666667,6.880425150000001,58.0,96.0
19,7.132236391666668,7.219192791666668,58.0,92.0
20,7.132236391666668,7.699264583333335,66.0,96.0
21,7.132236391666668,7.710134133333335,61.0,107.0
22,5.393108391666668,8.291655058333335,46.0,88.0
23,8.001800391666668,8.623176333333335,58.0,104.0
24,8.001800391666668,8.668466125000002,66.0,102.0
25,8.001800391666668,8.739118200000002,61.0,113.0
26,8.871364391666669,9.541653308333334,68.0,88.0
27,8.871364391666669,9.568827183333335,64.0,89.0
28,8.871364391666669,9.572450366666668,59.0,88.0
29,9.740928391666667,10.215565408333335,68.0,88.0
30,9.740928391666667,10.246362466666668,64.0,91.0
31,9.740928391666667,10.278971116666668,59.0,88.0
32,8.871364391666669,10.413028900000002,52.0,88.0
33,10.610492391666668,11.186578541666668,66.0,88.0
34,10.610492391666668,11.217375600000002,63.0,91.0
35,10.610492391666668,11.248172658333335,58.0,88.0
36,11.480056391666668,11.996360016666669,58.0,90.0
37,11.480056391666668,12.030780258333335,63.0,91.0
38,11.480056391666668,12.038026625000002,66.0,89.0
39,10.610492391666668,12.135852575000001,51.0,86.0
40,12.349620391666669,12.902155850000002,68.0,94.0
41,12.349620391666669,12.958315191666669,64.0,100.0
42,12.349620391666669,12.97461951666667,61.0,91.0
43,12.349620391666669,13.601430233333335,49.0,87.0
44,13.21918439166667,13.748169158333335,68.0,91.0
45,13.21918439166667,13.766285075000003,64.0,98.0
46,13.21918439166667,13.793458950000002,61.0,91.0
47,14.08874839166667,14.626791116666668,66.0,91.0
48,14.08874839166667,14.652153400000003,61.0,98.0
49,14.08874839166667,14.677515683333336,58.0,90.0
50,14.958312391666668,15.528963766666669,66.0,93.0
51,14.958312391666668,15.53983331666667,58.0,90.0
52,14.958312391666668,15.547079683333335,61.0,94.0
53,14.08874839166667,15.559760825000003,42.0,84.0
54,14.08874839166667,15.563384008333335,54.0,80.0
55,15.827876391666669,16.195629500000003,47.0,87.0
56,15.827876391666669,16.411208908333336,68.0,90.0
57,15.827876391666669,16.431136416666668,59.0,89.0
58,15.827876391666669,16.461933475000002,64.0,94.0
59,16.480049391666668,16.847802500000004,47.0,87.0
60,16.480049391666668,19.188378933333336,59.0,88.0
61,16.480049391666668,19.199248483333335,66.0,91.0
62,16.480049391666668,19.201060075000004,63.0,96.0
63,19.30613239166667,19.720986883333335,68.0,92.0
64,19.30613239166667,19.737291208333335,64.0,93.0
65,19.30613239166667,19.742725983333337,59.0,88.0
66,19.30613239166667,19.786204183333336,47.0,93.0
67,19.95830539166667,20.438377183333337,47.0,93.0
68,19.95830539166667,20.557942233333335,59.0,90.0
69,19.95830539166667,20.574246558333336,63.0,108.0
70,19.95830539166667,20.614101575000003,66.0,96.0
71,23.65395239166667,25.67025391666667,59.0,65.0
72,24.08873439166667,25.75177554166667,70.0,73.0
73,23.21917039166667,25.793442150000004,54.0,64.0
74,22.78438839166667,25.84054353333334,47.0,86.0
75,24.08873439166667,25.956485400000005,61.0,67.0
76,27.13220839166667,27.592352675000004,66.0,69.0
77,27.56699039166667,29.065176700000006,61.0,73.0
78,27.13220839166667,29.07423465833334,58.0,66.0
79,26.262644391666672,29.148509916666672,46.0,83.0
80,26.69742639166667,29.18655334166667,54.0,71.0
81,30.61046439166667,31.02350729166667,56.0,75.0
82,29.74090039166667,31.12314483333334,68.0,87.0
83,29.74090039166667,31.146695525000005,44.0,79.0
84,29.74090039166667,31.19742009166667,59.0,81.0
85,30.175682391666673,31.407564725000004,51.0,52.0
86,32.34959239166667,32.72821505,54.0,70.0
87,31.48002839166667,32.77531643333334,42.0,65.0
88,31.91481039166667,32.800678716666674,51.0,67.0
89,31.48002839166667,32.86770760833334,66.0,81.0
90,31.48002839166667,32.907562625000004,58.0,81.0
91,33.21915639166667,34.21009703333334,64.0,82.0
92,33.21915639166667,34.38763301666667,56.0,75.0
93,34.523502391666675,35.88763091666667,56.0,76.0
94,34.523502391666675,35.91118160833334,64.0,83.0
95,34.08872039166667,35.94560185,52.0,77.0
96,33.65393839166667,35.94922503333334,47.0,67.0
97,33.21915639166667,35.96009458333334,40.0,76.0
98,36.697412391666674,38.065164100000004,40.0,87.0
99,37.13219439166667,38.170236416666675,47.0,68.0
100,38.00175839166667,38.31154056666667,56.0,78.0
101,38.00175839166667,38.31878693333334,64.0,73.0
102,37.56697639166667,38.33509125833334,52.0,75.0
103,38.436540391666675,38.95465560833334,66.0,87.0
104,38.436540391666675,38.97639470833334,58.0,80.0
105,39.30610439166667,39.90392964166667,66.0,88.0
106,39.30610439166667,39.96914694166667,58.0,88.0
107,38.436540391666675,40.14124815000001,42.0,80.0
108,40.175668391666676,40.69921838333334,66.0,87.0
109,40.175668391666676,40.78617478333334,58.0,85.0
110,40.175668391666676,41.49269553333334,39.0,81.0
111,41.04523239166667,41.63581127500001,58.0,85.0
112,41.04523239166667,41.64486923333334,66.0,88.0
113,40.175668391666676,41.91660798333334,51.0,81.0
114,41.91479639166667,42.521679600000006,68.0,86.0
115,41.91479639166667,42.53617233333334,59.0,84.0
116,41.91479639166667,43.17566419166668,44.0,77.0
117,42.784360391666674,43.206461250000004,68.0,91.0
118,42.784360391666674,43.23182353333334,59.0,88.0
119,43.65392439166667,44.130373000000006,64.0,81.0
120,43.65392439166667,44.28073510833334,56.0,84.0
121,43.65392439166667,44.84957489166668,52.0,81.0
122,43.65392439166667,44.88218354166667,40.0,80.0
123,44.523488391666675,45.02167610000001,64.0,87.0
124,44.523488391666675,45.050661566666676,56.0,86.0
125,45.39305239166667,45.99812400833334,65.0,87.0
126,45.39305239166667,46.01080515000001,56.0,88.0
127,45.39305239166667,46.63218109166667,53.0,81.0
128,45.39305239166667,46.65573178333334,41.0,78.0
129,46.262616391666675,46.79341275000001,56.0,88.0
130,46.262616391666675,46.954644408333344,65.0,87.0
131,47.13218039166667,48.18833833333334,66.0,88.0
132,47.13218039166667,48.211889025000005,58.0,81.0
133,48.219135391666676,48.48362777500001,59.0,88.0
134,48.436526391666675,48.67746808333334,61.0,89.0
135,48.653917391666674,48.878554758333344,59.0,82.0
136,48.001744391666676,49.56514800000001,54.0,76.0
137,47.56696239166667,49.59594505833334,49.0,75.0
138,47.13218039166667,49.62855370833334,42.0,83.0
139,48.87130839166667,49.69014782500001,58.0,86.0
140,48.87130839166667,49.755365125000004,61.0,81.0
141,48.87130839166667,49.77348104166668,66.0,86.0
142,50.610436391666674,51.10681250833334,66.0,75.0
143,50.610436391666674,51.191957316666674,63.0,74.0
144,50.610436391666674,51.199203683333344,61.0,75.0
145,51.48000039166668,51.96369536666668,66.0,73.0
146,51.48000039166668,52.132173391666676,63.0,72.0
147,51.48000039166668,52.14304294166668,61.0,74.0
148,52.349564391666675,52.89666507500001,66.0,73.0
149,52.349564391666675,53.01079535000001,63.0,74.0
150,52.349564391666675,53.02709967500001,61.0,73.0
151,53.21912839166667,53.84956229166667,61.0,83.0
152,53.21912839166667,53.876736166666674,66.0,81.0
153,50.610436391666674,53.94738824166667,47.0,81.0
154,53.21912839166667,53.98724325833334,63.0,84.0
155,54.088692391666676,54.760792900000006,66.0,86.0
156,54.088692391666676,54.76622767500001,58.0,85.0
157,54.088692391666676,54.806082691666674,61.0,86.0
158,54.95825639166667,55.63398008333334,66.0,83.0
159,54.95825639166667,55.63760326666667,58.0,82.0
160,54.95825639166667,55.67926987500001,61.0,84.0
161,55.82782039166668,56.496297716666675,66.0,84.0
162,55.82782039166668,56.52709477500001,58.0,78.0
163,55.82782039166668,56.63760186666668,61.0,81.0
164,56.697384391666674,57.26078940000001,58.0,83.0
165,56.697384391666674,57.364050125000006,66.0,87.0
166,54.088692391666676,57.50535427500001,46.0,82.0
167,56.697384391666674,57.51803541666668,61.0,84.0
168,57.56694839166668,58.26259959166668,66.0,84.0
169,57.56694839166668,58.316947341666676,63.0,87.0
170,57.56694839166668,58.329628483333344,59.0,83.0
171,58.436512391666675,58.93470010000001,59.0,80.0
172,58.436512391666675,59.04701878333334,66.0,82.0
173,58.436512391666675,59.20100407500001,63.0,85.0
174,57.56694839166668,59.23723590833334,44.0,83.0
175,59.30607639166668,59.92020596666668,66.0,78.0
176,59.30607639166668,59.94556825000001,61.0,84.0
177,59.30607639166668,59.954626208333345,58.0,83.0
178,59.30607639166668,60.539770316666676,54.0,80.0
179,59.30607639166668,60.68832083333334,42.0,78.0
180,60.175640391666676,60.73542221666668,58.0,78.0
181,60.175640391666676,60.76803086666668,66.0,80.0
182,60.175640391666676,61.01259574166668,61.0,83.0
183,61.04520439166668,61.63397168333334,64.0,84.0
184,61.04520439166668,61.70100057500001,59.0,78.0
185,61.04520439166668,61.74447877500001,56.0,81.0
186,61.91476839166668,62.53252115000001,64.0,76.0
187,61.91476839166668,62.62128914166668,59.0,66.0
188,61.91476839166668,62.67020211666668,56.0,56.0
189,62.78433239166667,63.42020106666668,64.0,78.0
190,62.78433239166667,63.49809950833334,59.0,76.0
191,62.78433239166667,63.507157466666676,56.0,68.0
192,61.04520439166668,64.17925797500001,40.0,75.0
193,63.65389639166668,64.17925797500001,59.0,84.0
194,63.65389639166668,64.19918548333334,64.0,82.0
195,61.04520439166668,64.26259119166667,52.0,73.0
196,63.65389639166668,64.26259119166667,56.0,80.0
197,64.52346039166667,65.10135813333335,64.0,81.0
198,64.52346039166667,65.11766245833334,61.0,84.0
199,64.52346039166667,65.15389429166667,59.0,81.0
200,64.52346039166667,65.190126125,56.0,76.0
201,65.39302439166667,65.99084964166667,64.0,81.0
202,65.39302439166667,66.00534237500001,56.0,77.0
203,65.39302439166667,66.13577697500001,61.0,81.0
204,65.39302439166667,66.20099427500001,59.0,81.0
205,64.52346039166667,66.23903770000001,49.0,83.0
206,66.26258839166668,66.81331225833334,63.0,77.0
207,66.26258839166668,66.8477325,58.0,74.0
208,66.26258839166668,66.85135568333334,66.0,78.0
209,66.26258839166668,67.43831138333334,39.0,74.0
210,66.26258839166668,67.483601175,51.0,73.0
211,67.13215239166668,67.5433837,66.0,80.0
212,67.13215239166668,67.54519529166667,63.0,84.0
213,67.13215239166668,67.55606484166668,58.0,82.0
214,68.00171639166668,68.54700548333335,71.0,87.0
215,68.00171639166668,68.64301984166667,63.0,86.0
216,68.00171639166668,68.66113575833334,66.0,89.0
217,68.87128039166667,69.49627951666668,71.0,85.0
218,68.87128039166667,69.50896065833335,63.0,85.0
219,68.87128039166667,69.54519249166668,66.0,87.0
220,69.74084439166668,70.32598850000001,71.0,82.0
221,69.74084439166668,70.36584351666667,63.0,84.0
222,69.74084439166668,70.38395943333335,66.0,88.0
223,68.00171639166668,70.798813925,47.0,88.0
224,70.61040839166668,71.06874108333335,63.0,87.0
225,70.61040839166668,71.12308883333334,71.0,86.0
226,70.61040839166668,71.26620457500002,66.0,91.0
227,71.47997239166668,72.03431944166668,68.0,90.0
228,71.47997239166668,72.07236286666668,64.0,86.0
229,71.47997239166668,72.07417445833335,71.0,84.0
230,72.34953639166667,73.05062236666667,71.0,82.0
231,72.34953639166667,73.07054987500001,68.0,87.0
232,72.34953639166667,73.081419425,64.0,84.0
233,71.47997239166668,73.58504190833334,52.0,80.0
234,73.21910039166667,73.86221543333335,71.0,86.0
235,73.21910039166667,73.86765020833334,68.0,89.0
236,73.21910039166667,73.86946180000001,64.0,87.0
237,73.87127339166668,74.24808445833334,52.0,78.0
238,71.47997239166668,74.29337425000001,40.0,83.0
239,74.08866439166668,74.44735954166669,64.0,90.0
240,74.08866439166668,74.51257684166667,71.0,89.0
241,74.08866439166668,74.58504050833335,68.0,94.0
242,74.52344639166668,74.64119985,40.0,86.0
243,74.74083739166667,74.89301109166668,66.0,81.0
244,74.95822839166668,75.23721350833334,70.0,104.0
245,74.74083739166667,75.67199550833334,61.0,76.0
246,75.39301039166668,76.05967612500001,49.0,75.0
247,75.61040139166668,76.28431349166668,54.0,88.0
248,74.95822839166668,76.36583511666667,42.0,86.0
249,75.82779239166668,76.54518269166668,59.0,113.0
250,76.47996539166668,76.668370925,61.0,84.0
251,76.26257439166667,76.67380570000002,49.0,78.0
252,76.47996539166668,76.74445777500001,58.0,83.0
253,76.69735639166667,76.84953009166668,66.0,116.0
254,76.69735639166667,76.91474739166668,54.0,65.0
255,77.34952939166668,77.63032610000002,54.0,84.0
256,77.56692039166668,77.75351433333334,66.0,110.0
257,77.56692039166668,77.78612298333334,78.0,110.0
258,77.78431139166668,77.94191986666668,68.0,94.0
259,77.78431139166668,77.95097782500001,80.0,108.0
260,76.69735639166667,78.06510810000002,42.0,91.0
261,77.78431139166668,78.16474564166668,54.0,89.0
262,78.21909339166668,78.31691934166668,70.0,93.0
263,78.21909339166668,78.32416570833334,82.0,110.0
264,78.43648439166668,78.66655653333335,83.0,114.0
265,78.43648439166668,78.72815065000002,71.0,88.0
266,78.43648439166668,78.98539666666667,68.0,92.0
267,78.43648439166668,78.99626621666668,64.0,104.0
268,78.43648439166668,79.02706327500002,59.0,88.0
269,79.30604839166668,79.83322156666668,68.0,88.0
270,79.30604839166668,79.87669976666668,59.0,91.0
271,79.30604839166668,79.88938090833335,64.0,94.0
272,78.43648439166668,79.91112000833334,40.0,87.0
273,78.43648439166668,79.95640980000002,52.0,87.0
274,80.17561239166668,80.80061151666668,66.0,93.0
275,80.17561239166668,80.83684335000001,61.0,102.0
276,80.17561239166668,80.84590130833334,58.0,93.0
277,80.17561239166668,81.19010372500001,52.0,87.0
278,80.17561239166668,81.28249490000002,40.0,87.0
279,81.04517639166669,81.55242205833335,58.0,89.0
280,81.04517639166669,81.60314662500001,66.0,88.0
281,81.04517639166669,81.71727690000002,61.0,89.0
282,81.91474039166668,82.58865249166668,63.0,100.0
283,81.91474039166668,82.60676840833335,59.0,89.0
284,81.91474039166668,82.61039159166668,66.0,92.0
285,82.78430439166668,83.30423120000002,66.0,88.0
286,82.78430439166668,83.30785438333335,59.0,84.0
287,82.78430439166668,83.31510075000001,63.0,91.0
288,81.91474039166668,83.37307168333335,35.0,88.0
289,81.91474039166668,83.38031805000001,47.0,87.0
290,83.65386839166668,84.05423015000001,37.0,96.0
291,83.65386839166668,84.07778084166668,49.0,96.0
292,83.65386839166668,84.22633135833334,61.0,92.0
293,83.65386839166668,84.3911862,68.0,102.0
294,83.65386839166668,84.44191076666668,64.0,107.0
295,84.52343239166667,84.85857685000002,39.0,100.0
296,84.52343239166667,84.91654778333334,51.0,91.0
297,84.52343239166667,85.12669241666669,63.0,96.0
298,84.52343239166667,85.34046023333335,70.0,104.0
299,84.52343239166667,85.45277891666667,66.0,108.0
300,85.39299639166668,86.00169119166668,68.0,107.0
301,85.39299639166668,86.02524188333335,71.0,98.0
302,85.39299639166668,86.04335780000001,64.0,96.0
303,86.26256039166668,86.83321176666668,68.0,107.0
304,86.26256039166668,86.84226972500001,64.0,98.0
305,86.26256039166668,86.84226972500001,71.0,88.0
306,85.39299639166668,86.92197975833335,40.0,98.0
307,85.39299639166668,86.96183477500001,52.0,89.0
308,87.13212439166668,87.62125414166668,70.0,90.0
309,87.13212439166668,87.64480483333335,66.0,92.0
310,87.13212439166668,87.65205120000002,61.0,89.0
311,87.13212439166668,88.25893440833335,42.0,89.0
312,87.13212439166668,88.28610828333335,54.0,87.0
313,88.00168839166668,88.52886156666668,70.0,91.0
314,88.00168839166668,88.54878907500002,61.0,96.0
315,88.00168839166668,88.57777454166668,66.0,96.0
316,88.87125239166669,89.53610653333335,66.0,92.0
317,88.87125239166669,89.54697608333335,59.0,91.0
318,88.87125239166669,89.55241085833335,63.0,102.0
319,88.87125239166669,89.90929441666668,47.0,83.0
320,89.74081639166668,90.23900410000002,59.0,88.0
321,89.74081639166668,90.34226482500002,66.0,92.0
322,89.74081639166668,90.45820669166667,63.0,94.0
323,90.61038039166668,90.93465530000002,37.0,96.0
324,90.61038039166668,90.97813350000001,49.0,89.0
325,90.61038039166668,91.21545200833334,61.0,93.0
326,90.61038039166668,91.37306048333335,68.0,96.0
327,90.61038039166668,91.48719075833334,64.0,104.0
328,91.47994439166668,91.70820494166668,39.0,93.0
329,91.47994439166668,91.75711791666669,51.0,96.0
330,91.47994439166668,91.81690044166668,71.0,89.0
331,91.47994439166668,91.86762500833335,63.0,91.0
332,91.47994439166668,91.90204525000001,66.0,94.0
333,92.34950839166667,92.78066720833334,64.0,104.0
334,92.34950839166667,92.78791357500002,68.0,96.0
335,92.34950839166667,93.09044938333335,59.0,92.0
336,93.21907239166669,93.71726010000002,56.0,104.0
337,93.21907239166669,93.77160785000001,64.0,92.0
338,92.34950839166667,93.83682515000001,40.0,92.0
339,92.78429039166669,93.86399902500001,47.0,72.0
340,93.00168139166668,93.87486857500001,52.0,85.0
341,93.65385439166668,94.09950594166668,59.0,85.0
342,94.08863639166668,94.74986735000002,66.0,98.0
343,94.08863639166668,94.78972236666668,61.0,104.0
344,94.08863639166668,94.80240350833334,58.0,93.0
345,94.95820039166668,95.50348948333335,66.0,91.0
346,94.95820039166668,95.53972131666669,58.0,100.0
347,94.95820039166668,95.61761975833335,61.0,110.0
348,94.08863639166668,95.78609778333335,40.0,90.0
349,95.82776439166668,96.44370555833335,66.0,94.0
350,95.82776439166668,96.53790832500002,59.0,91.0
351,95.82776439166668,96.62305313333334,63.0,107.0
352,95.82776439166668,96.62848790833335,47.0,85.0
353,96.69732839166669,97.30783478333335,58.0,100.0
354,96.69732839166669,97.31508115000001,66.0,90.0
355,96.69732839166669,97.51435623333334,61.0,108.0
356,96.69732839166669,97.52160260000001,46.0,86.0
357,97.56689239166668,98.17558719166668,68.0,94.0
358,97.56689239166668,98.18102196666668,63.0,92.0
359,97.56689239166668,98.23355812500002,59.0,89.0
360,97.56689239166668,98.71544150833334,56.0,86.0
361,97.56689239166668,98.81145586666668,44.0,88.0
362,98.43645639166668,98.92558614166668,63.0,91.0
363,98.43645639166668,98.93102091666668,59.0,88.0
364,98.43645639166668,98.94732524166668,68.0,88.0
365,99.30602039166668,99.86217903333335,59.0,88.0
366,99.30602039166668,99.88029495000002,68.0,89.0
367,99.30602039166668,99.88210654166669,64.0,92.0
368,99.30602039166668,100.75167054166668,40.0,88.0
369,100.17558439166669,100.76616327500001,68.0,87.0
370,99.30602039166668,100.79514874166668,52.0,86.0
371,100.17558439166669,100.79514874166668,64.0,89.0
372,100.17558439166669,100.79696033333335,59.0,89.0
373,101.04514839166669,101.63210409166668,66.0,92.0
374,101.04514839166669,101.65384319166668,61.0,96.0
375,101.04514839166669,101.67739388333335,58.0,91.0
376,101.91471239166668,102.52159560000001,66.0,92.0
377,101.91471239166668,102.52521878333334,58.0,90.0
378,101.04514839166669,102.59405926666668,42.0,89.0
379,101.91471239166668,102.66833452500002,61.0,98.0
380,102.78427639166668,103.44007257500002,66.0,96.0
381,102.78427639166668,103.52159420000001,63.0,102.0
382,102.78427639166668,103.56144921666669,59.0,91.0
383,103.65384039166668,104.30057861666668,66.0,88.0
384,103.65384039166668,104.39659297500002,63.0,89.0
385,103.65384039166668,104.40021615833335,59.0,88.0
386,102.78427639166668,104.94007047500001,47.0,93.0
387,104.52340439166669,105.18101216666668,66.0,89.0
388,104.52340439166669,105.20275126666668,63.0,91.0
389,104.52340439166669,105.20999763333334,59.0,89.0
390,105.17557739166668,105.61579416666669,47.0,86.0
391,105.39296839166668,105.90746042500001,66.0,92.0
392,105.39296839166668,105.92195315833335,63.0,96.0
393,105.39296839166668,105.92557634166668,59.0,90.0
394,107.13209639166668,108.93100691666669,66.0,75.0
395,106.26253239166668,109.11760085833335,47.0,87.0
396,106.69731439166668,109.20455725833335,54.0,46.0
397,107.13209639166668,109.82049842500001,61.0,74.0
398,110.17557039166668,112.40745132500001,54.0,72.0
399,109.74078839166668,112.44911793333335,46.0,85.0
400,110.61035239166668,112.64114665000002,66.0,77.0
401,110.61035239166668,112.69549440000002,58.0,76.0
402,113.21904439166669,114.11215908333335,64.0,86.0
403,113.21904439166669,114.21360821666669,56.0,76.0
404,114.52339039166668,116.08135922500001,59.0,73.0
405,113.65382639166668,116.27338794166668,47.0,60.0
406,114.08860839166668,116.27701112500002,52.0,70.0
407,113.21904439166669,116.29875022500002,40.0,82.0
408,118.00164639166668,119.26613737500001,58.0,70.0
409,118.43642839166668,119.27700692500002,61.0,80.0
410,117.56686439166668,119.28968806666668,54.0,76.0
411,117.13208239166669,119.32410830833335,49.0,74.0
412,116.69730039166669,119.34584740833336,42.0,86.0
413,121.04512039166669,123.06142191666669,59.0,65.0
414,121.47990239166668,123.14294354166668,70.0,73.0
415,120.61033839166669,123.18461015000003,54.0,64.0
416,120.17555639166669,123.23171153333335,47.0,86.0
417,121.47990239166668,123.34765340000001,61.0,67.0
418,124.52337639166669,124.98352067500002,66.0,69.0
419,124.95815839166669,126.45634470000002,61.0,73.0
420,124.52337639166669,126.46540265833335,58.0,66.0
421,123.65381239166669,126.53967791666669,46.0,83.0
422,124.08859439166669,126.57772134166669,54.0,71.0
423,128.00163239166667,128.4146752916667,56.0,75.0
424,127.13206839166669,128.51431283333335,68.0,87.0
425,127.13206839166669,128.537863525,44.0,79.0
426,127.13206839166669,128.58858809166668,59.0,81.0
427,127.56685039166669,128.798732725,51.0,52.0
428,129.7407603916667,130.11938305,54.0,70.0
429,128.8711963916667,130.16648443333335,42.0,65.0
430,129.30597839166668,130.19184671666667,51.0,67.0
431,128.8711963916667,130.25887560833334,66.0,81.0
432,128.8711963916667,130.29873062500002,58.0,81.0
433,130.6103243916667,131.60126503333336,64.0,82.0
434,130.6103243916667,131.77880101666668,56.0,75.0
435,131.91467039166668,133.2787989166667,56.0,76.0
436,131.91467039166668,133.30234960833334,64.0,83.0
437,131.4798883916667,133.33676985000002,52.0,77.0
438,131.04510639166668,133.34039303333336,47.0,67.0
439,130.6103243916667,133.35126258333335,40.0,76.0
440,134.08858039166668,135.45633210000003,40.0,87.0
441,134.5233623916667,135.56140441666668,47.0,68.0
442,135.3929263916667,135.7027085666667,56.0,78.0
443,135.3929263916667,135.70995493333336,64.0,73.0
444,134.95814439166668,135.72625925833336,52.0,75.0
445,135.82770839166668,136.34582360833335,66.0,87.0
446,135.82770839166668,136.36756270833337,58.0,80.0
447,136.6972723916667,137.2950976416667,66.0,88.0
448,136.6972723916667,137.3603149416667,58.0,88.0
449,135.82770839166668,137.53241615000002,42.0,80.0
450,137.5668363916667,138.09038638333337,66.0,87.0
451,137.5668363916667,138.17734278333336,58.0,85.0
452,137.5668363916667,138.88386353333337,39.0,81.0
453,138.4364003916667,139.02697927500003,58.0,85.0
454,138.4364003916667,139.03603723333336,66.0,88.0
455,137.5668363916667,139.30777598333336,51.0,81.0
456,139.3059643916667,139.91284760000002,68.0,86.0
457,139.3059643916667,139.92734033333335,59.0,84.0
458,139.3059643916667,140.5668321916667,44.0,77.0
459,140.1755283916667,140.59762925,68.0,91.0
460,140.1755283916667,140.62299153333336,59.0,88.0
461,141.04509239166669,141.521541,64.0,81.0
462,141.04509239166669,141.67190310833337,56.0,84.0
463,141.04509239166669,142.24074289166668,52.0,81.0
464,141.04509239166669,142.2733515416667,40.0,80.0
465,141.91465639166668,142.41284410000003,64.0,87.0
466,141.91465639166668,142.44182956666668,56.0,86.0
467,142.78422039166668,143.38929200833334,65.0,87.0
468,142.78422039166668,143.40197315000003,56.0,88.0
469,142.78422039166668,144.0233490916667,53.0,81.0
470,142.78422039166668,144.04689978333334,41.0,78.0
471,143.65378439166668,144.18458075,56.0,88.0
472,143.65378439166668,144.34581240833336,65.0,87.0
473,144.5233483916667,145.113927275,66.0,88.0
474,144.5233483916667,145.1374779666667,58.0,81.0
475,145.3929123916667,146.44907033333337,66.0,88.0
476,145.3929123916667,146.47262102500002,58.0,81.0
477,145.3929123916667,146.95631600000002,54.0,76.0
478,144.95813039166669,146.98711305833336,49.0,75.0
479,144.5233483916667,147.01972170833335,42.0,83.0
480,148.0016043916667,148.49798050833337,66.0,75.0
481,148.0016043916667,148.5831253166667,63.0,74.0
482,148.0016043916667,148.59037168333336,61.0,75.0
483,148.87116839166669,149.35486336666668,66.0,73.0
484,148.87116839166669,149.5233413916667,63.0,72.0
485,148.87116839166669,149.5342109416667,61.0,74.0
486,149.74073239166668,150.28783307500004,66.0,73.0
487,149.74073239166668,150.40196335000002,63.0,74.0
488,149.74073239166668,150.418267675,61.0,73.0
489,150.61029639166668,151.2407302916667,61.0,83.0
490,150.61029639166668,151.26790416666668,66.0,81.0
491,148.0016043916667,151.33855624166668,47.0,81.0
492,150.61029639166668,151.37841125833336,63.0,84.0
493,151.47986039166668,152.15196090000003,66.0,86.0
494,151.47986039166668,152.15739567500003,58.0,85.0
495,151.47986039166668,152.19725069166668,61.0,86.0
496,152.3494243916667,153.02514808333336,66.0,83.0
497,152.3494243916667,153.0287712666667,58.0,82.0
498,152.3494243916667,153.070437875,61.0,84.0
499,153.2189883916667,153.8874657166667,66.0,84.0
500,153.2189883916667,153.91826277500002,58.0,78.0
501,153.2189883916667,154.0287698666667,61.0,81.0
502,154.0885523916667,154.65195740000001,58.0,83.0
503,154.0885523916667,154.75521812500003,66.0,87.0
504,151.47986039166668,154.89652227500002,46.0,82.0
505,154.0885523916667,154.90920341666668,61.0,84.0
506,154.9581163916667,155.65376759166668,66.0,84.0
507,154.9581163916667,155.70811534166668,63.0,87.0
508,154.9581163916667,155.72079648333334,59.0,83.0
509,155.8276803916667,156.32586810000004,59.0,80.0
510,155.8276803916667,156.43818678333335,66.0,82.0
511,155.8276803916667,156.59217207500004,63.0,85.0
512,154.9581163916667,156.62840390833335,44.0,83.0
513,156.6972443916667,157.31137396666668,66.0,78.0
514,156.6972443916667,157.33673625000003,61.0,84.0
515,156.6972443916667,157.34579420833336,58.0,83.0
516,156.6972443916667,157.9309383166667,54.0,80.0
517,156.6972443916667,158.07948883333336,42.0,78.0
518,157.56680839166668,158.1265902166667,58.0,78.0
519,157.56680839166668,158.15919886666669,66.0,80.0
520,157.56680839166668,158.4037637416667,61.0,83.0
521,158.43637239166668,159.02513968333335,64.0,84.0
522,158.43637239166668,159.09216857500002,59.0,78.0
523,158.43637239166668,159.13564677500003,56.0,81.0
524,159.3059363916667,159.92368915000003,64.0,76.0
525,159.3059363916667,160.0124571416667,59.0,66.0
526,159.3059363916667,160.0613701166667,56.0,56.0
527,160.1755003916667,160.81136906666669,64.0,78.0
528,160.1755003916667,160.88926750833335,59.0,76.0
529,160.1755003916667,160.8983254666667,56.0,68.0
530,158.43637239166668,161.57042597500003,40.0,75.0
531,161.0450643916667,161.57042597500003,59.0,84.0
532,161.0450643916667,161.59035348333336,64.0,82.0
533,158.43637239166668,161.6537591916667,52.0,73.0
534,161.0450643916667,161.6537591916667,56.0,80.0
535,161.9146283916667,162.49252613333337,64.0,81.0
536,161.9146283916667,162.50883045833336,61.0,84.0
537,161.9146283916667,162.54506229166668,59.0,81.0
538,161.9146283916667,162.58129412500003,56.0,76.0
539,162.7841923916667,163.3820176416667,64.0,81.0
540,162.7841923916667,163.39651037500002,56.0,77.0
541,162.7841923916667,163.52694497500002,61.0,81.0
542,162.7841923916667,163.59216227500002,59.0,81.0
543,161.9146283916667,163.63020570000003,49.0,83.0
544,163.6537563916667,164.20448025833335,63.0,77.0
545,163.6537563916667,164.23890050000003,58.0,74.0
546,163.6537563916667,164.24252368333336,66.0,78.0
547,163.6537563916667,164.82947938333336,39.0,74.0
548,163.6537563916667,164.874769175,51.0,73.0
549,164.5233203916667,164.93455170000001,66.0,80.0
550,164.5233203916667,164.93636329166668,63.0,84.0
551,164.5233203916667,164.9472328416667,58.0,82.0
552,165.39288439166668,165.93817348333337,71.0,87.0
553,165.39288439166668,166.0341878416667,63.0,86.0
554,165.39288439166668,166.05230375833335,66.0,89.0
555,166.26244839166668,166.8874475166667,71.0,85.0
556,166.26244839166668,166.90012865833336,63.0,85.0
557,166.26244839166668,166.9363604916667,66.0,87.0
558,167.1320123916667,167.71715650000002,71.0,82.0
559,167.1320123916667,167.7570115166667,63.0,84.0
560,167.1320123916667,167.77512743333335,66.0,88.0
561,165.39288439166668,168.189981925,47.0,88.0
562,168.0015763916667,168.45990908333337,63.0,87.0
563,168.0015763916667,168.51425683333335,71.0,86.0
564,168.0015763916667,168.65737257500004,66.0,91.0
565,168.8711403916667,169.4254874416667,68.0,90.0
566,168.8711403916667,169.4635308666667,64.0,86.0
567,168.8711403916667,169.46534245833337,71.0,84.0
568,169.7407043916667,170.44179036666668,71.0,82.0
569,169.7407043916667,170.46171787500003,68.0,87.0
570,169.7407043916667,170.47258742500003,64.0,84.0
571,168.8711403916667,170.97620990833337,52.0,80.0
572,170.6102683916667,171.25338343333337,71.0,86.0
573,170.6102683916667,171.25881820833337,68.0,89.0
574,170.6102683916667,171.26062980000003,64.0,87.0
575,171.2624413916667,171.63925245833337,52.0,78.0
576,168.8711403916667,171.68454225000002,40.0,83.0
577,171.4798323916667,171.8385275416667,64.0,90.0
578,171.4798323916667,171.9037448416667,71.0,89.0
579,171.4798323916667,171.97620850833337,68.0,94.0
580,171.9146143916667,172.03236785,40.0,86.0
581,172.1320053916667,172.2841790916667,66.0,81.0
582,172.3493963916667,172.62838150833335,70.0,104.0
583,172.1320053916667,173.06316350833336,61.0,76.0
584,172.7841783916667,173.45084412500003,49.0,75.0
585,173.0015693916667,173.6754814916667,54.0,88.0
586,172.3493963916667,173.75700311666668,42.0,86.0
587,173.21896039166668,173.9363506916667,59.0,113.0
588,173.8711333916667,174.05953892500003,61.0,84.0
589,173.6537423916667,174.06497370000002,49.0,78.0
590,173.8711333916667,174.13562577500002,58.0,83.0
591,174.08852439166668,174.2406980916667,66.0,116.0
592,174.08852439166668,174.3059153916667,54.0,65.0
593,174.74069739166669,175.02149410000004,54.0,84.0
594,174.9580883916667,175.14468233333335,66.0,110.0
595,174.9580883916667,175.17729098333336,78.0,110.0
596,175.1754793916667,175.3330878666667,68.0,94.0
597,175.1754793916667,175.34214582500002,80.0,108.0
598,174.08852439166668,175.45627610000003,42.0,91.0
599,175.1754793916667,175.5559136416667,54.0,89.0
600,175.61026139166668,175.7080873416667,70.0,93.0
601,175.61026139166668,175.71533370833336,82.0,110.0
602,175.8276523916667,176.05772453333336,83.0,114.0
603,175.8276523916667,176.11931865000003,71.0,88.0
604,175.8276523916667,176.3765646666667,68.0,92.0
605,175.8276523916667,176.3874342166667,64.0,104.0
606,175.8276523916667,176.41823127500004,59.0,88.0
607,176.6972163916667,177.2243895666667,68.0,88.0
608,176.6972163916667,177.26786776666668,59.0,91.0
609,176.6972163916667,177.28054890833337,64.0,94.0
610,175.8276523916667,177.30228800833336,40.0,87.0
611,175.8276523916667,177.34757780000004,52.0,87.0
612,177.5667803916667,178.19177951666668,66.0,93.0
613,177.5667803916667,178.22801135000003,61.0,102.0
614,177.5667803916667,178.23706930833336,58.0,93.0
615,177.5667803916667,178.58127172500002,52.0,87.0
616,177.5667803916667,178.67366290000004,40.0,87.0
617,178.4363443916667,178.94359005833337,58.0,89.0
618,178.4363443916667,178.99431462500002,66.0,88.0
619,178.4363443916667,179.10844490000002,61.0,89.0
620,179.3059083916667,179.9798204916667,63.0,100.0
621,179.3059083916667,179.99793640833337,59.0,89.0
622,179.3059083916667,180.0015595916667,66.0,92.0
623,180.1754723916667,180.69539920000003,66.0,88.0
624,180.1754723916667,180.69902238333336,59.0,84.0
625,180.1754723916667,180.70626875000002,63.0,91.0
626,179.3059083916667,180.76423968333336,35.0,88.0
627,179.3059083916667,180.77148605000002,47.0,87.0
628,181.04503639166668,181.44539815000002,37.0,96.0
629,181.04503639166668,181.4689488416667,49.0,96.0
630,181.04503639166668,181.61749935833336,61.0,92.0
631,181.04503639166668,181.78235420000001,68.0,102.0
632,181.04503639166668,181.8330787666667,64.0,107.0
633,181.91460039166668,182.24974485000004,39.0,100.0
634,181.91460039166668,182.30771578333335,51.0,91.0
635,181.91460039166668,182.5178604166667,63.0,96.0
636,181.91460039166668,182.73162823333337,70.0,104.0
637,181.91460039166668,182.84394691666668,66.0,108.0
638,182.7841643916667,183.3928591916667,68.0,107.0
639,182.7841643916667,183.41640988333336,71.0,98.0
640,182.7841643916667,183.43452580000002,64.0,96.0
641,183.6537283916667,184.2243797666667,68.0,107.0
642,183.6537283916667,184.23343772500002,64.0,98.0
643,183.6537283916667,184.23343772500002,71.0,88.0
644,182.7841643916667,184.31314775833337,40.0,98.0
645,182.7841643916667,184.35300277500002,52.0,89.0
646,184.5232923916667,185.0124221416667,70.0,90.0
647,184.5232923916667,185.03597283333337,66.0,92.0
648,184.5232923916667,185.04321920000004,61.0,89.0
649,184.5232923916667,185.65010240833337,42.0,89.0
650,184.5232923916667,185.67727628333336,54.0,87.0
651,185.3928563916667,185.9200295666667,70.0,91.0
652,185.3928563916667,185.93995707500002,61.0,96.0
653,185.3928563916667,185.9689425416667,66.0,96.0
654,186.2624203916667,186.92727453333336,66.0,92.0
655,186.2624203916667,186.93814408333336,59.0,91.0
656,186.2624203916667,186.94357885833335,63.0,102.0
657,186.2624203916667,187.3004624166667,47.0,83.0
658,187.1319843916667,187.63017210000004,59.0,88.0
659,187.1319843916667,187.73343282500002,66.0,92.0
660,187.1319843916667,187.8493746916667,63.0,94.0
661,188.0015483916667,188.32582330000002,37.0,96.0
662,188.0015483916667,188.36930150000003,49.0,89.0
663,188.0015483916667,188.60662000833335,61.0,93.0
664,188.0015483916667,188.76422848333337,68.0,96.0
665,188.0015483916667,188.87835875833338,64.0,104.0
666,188.87111239166668,189.0993729416667,39.0,93.0
667,188.87111239166668,189.1482859166667,51.0,96.0
668,188.87111239166668,189.20806844166668,71.0,89.0
669,188.87111239166668,189.25879300833336,63.0,91.0
670,188.87111239166668,189.29321325000004,66.0,94.0
671,189.7406763916667,190.17183520833336,64.0,104.0
672,189.7406763916667,190.17908157500003,68.0,96.0
673,189.7406763916667,190.48161738333337,59.0,92.0
674,190.6102403916667,191.10842810000003,56.0,104.0
675,190.6102403916667,191.16277585000003,64.0,92.0
676,189.7406763916667,191.22799315000003,40.0,92.0
677,190.1754583916667,191.25516702500002,47.0,72.0
678,190.3928493916667,191.26603657500004,52.0,85.0
679,191.0450223916667,191.4906739416667,59.0,85.0
680,191.4798043916667,192.14103535000004,66.0,98.0
681,191.4798043916667,192.1808903666667,61.0,104.0
682,191.4798043916667,192.19357150833335,58.0,93.0
683,192.3493683916667,192.89465748333336,66.0,91.0
684,192.3493683916667,192.9308893166667,58.0,100.0
685,192.3493683916667,193.00878775833337,61.0,110.0
686,191.4798043916667,193.17726578333335,40.0,90.0
687,193.2189323916667,193.83487355833336,66.0,94.0
688,193.2189323916667,193.92907632500004,59.0,91.0
689,193.2189323916667,194.01422113333336,63.0,107.0
690,193.2189323916667,194.01965590833336,47.0,85.0
691,194.0884963916667,194.69900278333336,58.0,100.0
692,194.0884963916667,194.70624915000002,66.0,90.0
693,194.0884963916667,194.90552423333335,61.0,108.0
694,194.0884963916667,194.91277060000004,46.0,86.0
695,194.9580603916667,195.5667551916667,68.0,94.0
696,194.9580603916667,195.57218996666668,63.0,92.0
697,194.9580603916667,195.62472612500002,59.0,89.0
698,194.9580603916667,196.10660950833338,56.0,86.0
699,194.9580603916667,196.2026238666667,44.0,88.0
700,195.8276243916667,196.3167541416667,63.0,91.0
701,195.8276243916667,196.3221889166667,59.0,88.0
702,195.8276243916667,196.3384932416667,68.0,88.0
703,196.69718839166669,197.25334703333337,59.0,88.0
704,196.69718839166669,197.27146295000003,68.0,89.0
705,196.69718839166669,197.2732745416667,64.0,92.0
706,196.69718839166669,198.1428385416667,40.0,88.0
707,197.5667523916667,198.15733127500002,68.0,87.0
708,196.69718839166669,198.1863167416667,52.0,86.0
709,197.5667523916667,198.1863167416667,64.0,89.0
710,197.5667523916667,198.18812833333337,59.0,89.0
711,198.4363163916667,199.02327209166668,66.0,92.0
712,198.4363163916667,199.0450111916667,61.0,96.0
713,198.4363163916667,199.06856188333336,58.0,91.0
714,199.3058803916667,199.91276360000003,66.0,92.0
715,199.3058803916667,199.91638678333337,58.0,90.0
716,198.4363163916667,199.9852272666667,42.0,89.0
717,199.3058803916667,200.05950252500003,61.0,98.0
718,200.1754443916667,200.83124057500004,66.0,96.0
719,200.1754443916667,200.91276220000003,63.0,102.0
720,200.1754443916667,200.9526172166667,59.0,91.0
721,201.0450083916667,201.6917466166667,66.0,88.0
722,201.0450083916667,201.78776097500003,63.0,89.0
723,201.0450083916667,201.79138415833336,59.0,88.0
724,200.1754443916667,202.33123847500002,47.0,93.0
725,201.9145723916667,202.5721801666667,66.0,89.0
726,201.9145723916667,202.5939192666667,63.0,91.0
727,201.9145723916667,202.60116563333335,59.0,89.0
728,202.5667453916667,203.0069621666667,47.0,86.0
729,203.6537003916667,204.23884450000003,66.0,93.0
730,203.6537003916667,204.2950038416667,61.0,102.0
731,203.6537003916667,204.3167429416667,58.0,92.0
732,204.5232643916667,205.2026112666667,66.0,88.0
733,204.5232643916667,205.22616195833336,58.0,88.0
734,204.5232643916667,205.2406546916667,61.0,91.0
735,205.3928283916667,206.00333478333337,66.0,87.0
736,205.3928283916667,206.0232622916667,58.0,86.0
737,205.3928283916667,206.03232025000003,61.0,89.0
738,203.6537003916667,206.6591309666667,46.0,86.0
739,206.2623923916667,206.6863048416667,58.0,88.0
740,206.2623923916667,206.69536280000003,61.0,92.0
741,206.2623923916667,206.7243482666667,66.0,89.0
742,207.1319563916667,207.7026077666667,68.0,86.0
743,207.1319563916667,207.7515207416667,59.0,84.0
744,207.1319563916667,207.77688302500005,63.0,87.0
745,208.0015203916667,208.65731657500004,59.0,83.0
746,208.0015203916667,208.66093975833337,68.0,86.0
747,208.0015203916667,208.8113018666667,63.0,86.0
748,207.1319563916667,208.81492505000003,44.0,84.0
749,208.8710843916667,209.48702555833336,66.0,89.0
750,208.8710843916667,209.53775012500003,58.0,87.0
751,208.8710843916667,209.54861967500003,61.0,88.0
752,209.7406483916667,210.29861862500005,58.0,85.0
753,209.7406483916667,210.4362995916667,61.0,87.0
754,209.7406483916667,210.5123864416667,66.0,85.0
755,208.8710843916667,210.57035737500004,42.0,84.0
756,210.6102123916667,211.2243419666667,68.0,88.0
757,210.6102123916667,211.23158833333338,64.0,88.0
758,210.6102123916667,211.2460810666667,59.0,85.0
759,211.4797763916667,212.05948572500003,68.0,83.0
760,211.4797763916667,212.09209437500004,64.0,86.0
761,211.4797763916667,212.1265146166667,59.0,81.0
762,210.6102123916667,212.1428189416667,52.0,79.0
763,210.6102123916667,212.1591232666667,40.0,85.0
764,212.3493403916667,212.9254265416667,68.0,89.0
765,212.3493403916667,212.97796270000003,64.0,91.0
766,212.3493403916667,213.00332498333336,59.0,87.0
767,213.2189043916667,213.81491805000005,68.0,87.0
768,212.3493403916667,213.85839625000003,40.0,82.0
769,212.3493403916667,213.86745420833336,52.0,77.0
770,213.2189043916667,213.86745420833336,59.0,87.0
771,213.2189043916667,213.88919330833338,64.0,89.0
772,214.0884683916667,214.6862936416667,66.0,88.0
773,214.0884683916667,214.74245298333338,63.0,88.0
774,214.0884683916667,214.79861232500002,59.0,86.0
775,214.9580323916667,215.68810383333337,66.0,84.0
776,214.9580323916667,215.76056750000004,63.0,87.0
777,214.9580323916667,215.7732486416667,59.0,86.0
778,215.8275963916667,216.45078392500002,66.0,84.0
779,215.8275963916667,216.59208807500002,59.0,83.0
780,215.8275963916667,216.5993344416667,63.0,87.0
781,216.6971603916667,217.29136245833337,66.0,87.0
782,214.0884683916667,217.3112899666667,47.0,86.0
783,216.6971603916667,217.34752180000004,59.0,88.0
784,216.6971603916667,217.41636228333337,63.0,89.0
785,217.5667243916667,218.17179600833336,66.0,85.0
786,217.5667243916667,218.1917235166667,61.0,88.0
787,217.5667243916667,218.22795535000003,58.0,88.0
788,218.4362883916667,219.08483820833337,66.0,84.0
789,218.4362883916667,219.08664980000003,61.0,87.0
790,218.4362883916667,219.13012800000004,58.0,83.0
791,219.3058523916667,219.99788040833337,61.0,90.0
792,219.3058523916667,220.0123731416667,66.0,85.0
793,219.3058523916667,220.01599632500003,58.0,84.0
794,217.5667243916667,220.3710682916667,46.0,76.0
795,220.1754163916667,220.71708230000004,58.0,85.0
796,220.1754163916667,220.8275893916667,66.0,87.0
797,220.1754163916667,220.87287918333337,61.0,91.0
798,221.0449803916667,221.67179110833337,71.0,87.0
799,221.0449803916667,221.6808490666667,68.0,93.0
800,221.0449803916667,221.71164612500004,63.0,88.0
801,221.9145443916667,222.48881895000002,63.0,83.0
802,221.9145443916667,222.56852898333338,71.0,84.0
803,221.9145443916667,222.66816652500003,68.0,87.0
804,221.0449803916667,222.7188910916667,44.0,85.0
805,222.7841083916667,223.3493249916667,70.0,88.0
806,222.7841083916667,223.3982379666667,66.0,91.0
807,222.7841083916667,223.43265820833338,61.0,88.0
808,223.6536723916667,224.30222220833338,61.0,87.0
809,223.6536723916667,224.3819322416667,70.0,86.0
810,222.7841083916667,224.4688886416667,42.0,84.0
811,223.6536723916667,224.4743234166667,66.0,91.0
812,224.5232363916667,224.81852583333338,68.0,90.0
813,224.5232363916667,224.8330185666667,64.0,89.0
814,224.5232363916667,224.83483015833338,59.0,87.0
815,224.9580183916667,225.28048170833335,68.0,87.0
816,224.9580183916667,225.2895396666667,59.0,86.0
817,224.9580183916667,225.2949744416667,64.0,88.0
818,225.3928003916667,225.71164052500004,59.0,86.0
819,225.3928003916667,225.72613325833336,64.0,88.0
820,225.3928003916667,225.72613325833336,68.0,87.0
821,225.8275823916667,226.13011820000003,59.0,86.0
822,225.8275823916667,226.1482341166667,64.0,88.0
823,225.8275823916667,226.16272685000004,68.0,85.0
824,226.2623643916667,226.5504074666667,59.0,86.0
825,226.2623643916667,226.57576975000003,64.0,87.0
826,226.2623643916667,226.57939293333337,68.0,84.0
827,226.6971463916667,227.00692856666672,68.0,83.0
828,226.6971463916667,227.0123633416667,59.0,84.0
829,226.6971463916667,227.02685607500004,64.0,86.0
830,227.1319283916667,227.41815987500004,68.0,87.0
831,227.1319283916667,227.42721783333337,59.0,85.0
832,227.1319283916667,227.44895693333336,64.0,88.0
833,224.5232363916667,228.06489810000002,52.0,86.0
834,227.5667103916667,228.07033287500005,64.0,86.0
835,228.00149239166672,228.07033287500005,64.0,100.0
836,227.5667103916667,228.0721444666667,59.0,81.0
837,228.00149239166672,228.0721444666667,59.0,107.0
838,227.5667103916667,228.0830140166667,68.0,85.0
839,224.5232363916667,228.09026038333337,40.0,86.0
840,228.00149239166672,228.09026038333337,40.0,98.0
841,228.00149239166672,228.5721437666667,56.0,94.0
842,228.8710563916667,229.39460638333338,64.0,96.0
843,228.8710563916667,229.4199686666667,59.0,102.0
844,228.8710563916667,229.4254034416667,56.0,92.0
845,229.5232293916667,229.64641762500003,64.0,87.0
846,229.5232293916667,229.65909876666672,59.0,88.0
847,229.5232293916667,229.82576520000003,56.0,85.0
848,229.3058383916667,230.22069218333337,47.0,80.0
849,230.1754023916667,230.35656155833337,64.0,82.0
850,230.1754023916667,230.43989477500003,59.0,82.0
851,230.1754023916667,230.45438750833338,56.0,82.0
852,230.39279339166671,230.66272055000005,47.0,79.0
853,230.6101843916667,231.09206777500003,56.0,104.0
854,230.6101843916667,231.10837210000003,64.0,108.0
855,230.6101843916667,231.1156184666667,59.0,114.0
856,231.0449663916667,231.4851831666667,47.0,83.0
857,231.4797483916667,232.04496499166672,58.0,104.0
858,231.4797483916667,232.05764613333338,66.0,104.0
859,231.4797483916667,232.0830084166667,61.0,116.0
860,231.91453039166672,232.3221385166667,49.0,44.0
861,232.3493123916667,232.80764508333337,61.0,116.0
862,232.3493123916667,232.8221378166667,66.0,102.0
863,232.3493123916667,232.84025373333336,58.0,107.0
864,233.0014853916667,233.22068798333336,66.0,94.0
865,233.0014853916667,233.23155753333336,58.0,100.0
866,233.0014853916667,233.24786185833338,61.0,108.0
867,231.4797483916667,233.70438295833338,42.0,91.0
868,232.7840943916667,233.77322344166672,49.0,81.0
869,233.4362673916667,233.8927884916667,66.0,91.0
870,233.4362673916667,233.9199623666667,61.0,91.0
871,233.4362673916667,233.92177395833338,58.0,88.0
872,233.8710493916667,234.1971358916667,42.0,98.0
873,234.0884403916667,234.3167009416667,66.0,104.0
874,234.0884403916667,234.34025163333337,61.0,116.0
875,234.0884403916667,234.34206322500003,58.0,107.0
876,234.30583139166671,234.5938744666667,42.0,88.0
877,234.5232223916667,234.79677273333337,58.0,107.0
878,234.5232223916667,234.82032342500003,66.0,102.0
879,234.5232223916667,234.8601784416667,61.0,116.0
880,234.7406133916667,234.93264210833337,41.0,100.0
881,234.9580043916667,235.59568465833337,68.0,110.0
882,234.9580043916667,235.61923535000003,64.0,114.0
883,234.9580043916667,235.63372808333338,59.0,104.0
884,235.6101773916667,235.97611890833338,52.0,91.0
885,235.82756839166672,236.6047412166667,64.0,119.0
886,235.82756839166672,236.60836440000003,68.0,113.0
887,235.82756839166672,236.62104554166672,59.0,114.0
888,236.2623503916667,236.8112626666667,52.0,88.0
889,236.6971323916667,237.23155193333338,68.0,91.0
890,236.6971323916667,237.2514794416667,59.0,93.0
891,236.6971323916667,237.2514794416667,64.0,104.0
892,237.1319143916667,237.45618930000003,52.0,94.0
893,237.3493053916667,237.8656090166667,68.0,107.0
894,237.3493053916667,237.87466697500003,59.0,113.0
895,237.3493053916667,237.88191334166672,64.0,117.0
896,237.7840873916667,238.0286522666667,52.0,94.0
897,238.0014783916667,238.2677823666667,68.0,94.0
898,234.9580043916667,238.26959395833336,40.0,104.0
899,238.0014783916667,238.28227510000005,59.0,104.0
900,238.0014783916667,238.28408669166672,64.0,114.0
901,238.21886939166671,238.4308256166667,52.0,86.0
902,238.4362603916667,239.1047377166667,66.0,110.0
903,238.4362603916667,239.1101724916667,61.0,119.0
904,238.4362603916667,239.1264768166667,58.0,114.0
905,239.0884333916667,239.49966470000004,49.0,87.0
906,239.3058243916667,240.0232146916667,66.0,108.0
907,239.3058243916667,240.02502628333337,61.0,119.0
908,239.3058243916667,240.0503885666667,58.0,114.0
909,239.74060639166672,240.2895186666667,49.0,81.0
910,240.1753883916667,240.95074962500004,66.0,100.0
911,240.1753883916667,240.96161917500004,61.0,117.0
912,240.1753883916667,240.9634307666667,58.0,110.0
913,240.8275613916667,241.04676398333336,49.0,90.0
914,241.0449523916667,241.30219840833337,66.0,107.0
915,241.0449523916667,241.3221259166667,58.0,114.0
916,241.0449523916667,241.32393750833336,61.0,119.0
917,241.26234339166672,241.5232125916667,49.0,117.0
918,238.4362603916667,241.60111103333338,42.0,100.0
919,241.4797343916667,241.70074857500003,58.0,114.0
920,241.4797343916667,241.8275599916667,61.0,119.0
921,241.4797343916667,241.8329947666667,66.0,110.0
922,241.6971253916667,241.8438643166667,42.0,110.0
923,241.9145163916667,242.52139960000002,68.0,92.0
924,241.9145163916667,242.55763143333337,64.0,96.0
925,241.9145163916667,242.58118212500003,59.0,91.0
926,241.9145163916667,243.10654370833336,52.0,94.0
927,242.7840803916667,243.49241273333337,68.0,94.0
928,242.7840803916667,243.49965910000003,59.0,94.0
929,242.7840803916667,243.50328228333336,64.0,100.0
930,243.4362533916667,243.90002085833336,52.0,77.0
931,243.65364439166672,244.32393330833338,68.0,91.0
932,243.65364439166672,244.33117967500004,59.0,91.0
933,243.65364439166672,244.3384260416667,64.0,98.0
934,244.3058173916667,244.64639662500005,52.0,86.0
935,244.5232083916667,244.97610630833339,64.0,108.0
936,244.5232083916667,244.98878745000005,68.0,93.0
937,244.5232083916667,244.9960338166667,59.0,102.0
938,241.9145163916667,245.03045405833336,40.0,91.0
939,244.9579903916667,245.24059869166672,52.0,83.0
940,245.3927723916667,246.0558149416667,66.0,96.0
941,245.3927723916667,246.11922065000005,63.0,107.0
942,245.3927723916667,246.16813362500002,58.0,91.0
943,245.3927723916667,246.60653880833337,51.0,88.0
944,246.2623363916667,246.8166834416667,66.0,93.0
945,246.2623363916667,246.83661095000005,63.0,104.0
946,246.2623363916667,246.84023413333338,58.0,96.0
947,246.9145093916667,247.00508897500004,63.0,98.0
948,246.9145093916667,247.00871215833337,66.0,92.0
949,246.9145093916667,247.02139330000003,58.0,92.0
950,246.6971183916667,247.39458118333337,51.0,87.0
951,247.3492913916667,247.8003777166667,66.0,92.0
952,247.3492913916667,247.80762408333337,63.0,98.0
953,247.3492913916667,247.8221168166667,58.0,93.0
954,247.7840733916667,248.1318989916667,51.0,104.0
955,248.0014643916667,248.50508687500005,58.0,110.0
956,245.3927723916667,248.5177680166667,39.0,88.0
957,248.0014643916667,248.62827510833338,66.0,104.0
958,248.0014643916667,248.65544898333337,63.0,114.0
959,248.4362463916667,248.7405937916667,51.0,102.0
960,248.8710283916667,249.45617250000004,64.0,116.0
961,248.8710283916667,249.46160727500003,68.0,108.0
962,248.8710283916667,249.47791160000003,59.0,108.0
963,249.3058103916667,249.80399810000003,52.0,79.0
964,249.7405923916667,250.44348995833337,64.0,116.0
965,249.7405923916667,250.45073632500004,59.0,108.0
966,249.7405923916667,250.45073632500004,68.0,104.0
967,250.3927653916667,250.8492864916667,52.0,84.0
968,250.6101563916667,251.27682212500005,64.0,114.0
969,250.6101563916667,251.28225690000005,68.0,102.0
970,250.6101563916667,251.29131485833338,59.0,104.0
971,251.2623293916667,251.66631433333336,52.0,98.0
972,248.8710283916667,251.72790845000003,40.0,98.0
973,251.47972039166672,251.99240083333336,59.0,113.0
974,251.47972039166672,252.02500948333338,64.0,116.0
975,251.47972039166672,252.0340674416667,68.0,110.0
976,251.9145023916667,252.10290792500004,40.0,92.0
977,252.3492843916667,252.97247192500004,66.0,107.0
978,252.3492843916667,253.04674718333337,61.0,116.0
979,252.3492843916667,253.05761673333336,58.0,110.0
980,253.00145739166672,253.3710220916667,54.0,93.0
981,252.3492843916667,253.93623869166672,42.0,107.0
982,253.2188483916667,253.93805028333338,66.0,108.0
983,253.2188483916667,253.96703575000004,61.0,117.0
984,253.6536303916667,253.9742821166667,54.0,91.0
985,253.2188483916667,253.9851516666667,58.0,113.0
986,254.0884123916667,254.49783210833337,54.0,96.0
987,254.0884123916667,254.76051290000004,66.0,102.0
988,254.0884123916667,254.7731940416667,61.0,110.0
989,254.0884123916667,254.78768677500003,58.0,104.0
990,254.7405853916667,255.1427587416667,54.0,104.0
991,254.0884123916667,255.1699326166667,42.0,94.0
992,254.9579763916667,255.55217845833337,58.0,110.0
993,254.9579763916667,255.5829755166667,66.0,108.0
994,254.9579763916667,255.67717828333338,61.0,117.0
995,255.39275839166672,255.68985942500004,42.0,98.0
996,255.8275403916667,256.42174245833337,68.0,100.0
997,255.8275403916667,256.43261200833336,64.0,113.0
998,255.8275403916667,256.4525395166667,59.0,98.0
999,256.47971339166673,256.8384085416667,52.0,81.0
1000,256.6971043916667,257.29311805000003,59.0,113.0
1001,255.8275403916667,257.3239151083334,40.0,98.0
1002,256.6971043916667,257.3347846583334,64.0,117.0
1003,256.6971043916667,257.3384078416667,68.0,108.0
1004,257.1318863916667,257.48876995000006,52.0,77.0
1005,257.5666683916667,258.24239208333336,66.0,107.0
1006,257.5666683916667,258.2586964083334,61.0,116.0
1007,257.5666683916667,258.26413118333335,58.0,108.0
1008,258.21884139166673,258.5721017666667,54.0,91.0
1009,257.5666683916667,258.64456543333336,42.0,89.0
1010,258.4362323916667,259.0086953583334,58.0,108.0
1011,258.4362323916667,259.0086953583334,66.0,107.0
1012,258.87101439166673,259.01594172500006,42.0,90.0
1013,258.4362323916667,259.0630431083334,61.0,116.0
1014,259.3057963916667,259.74782475833337,47.0,88.0
1015,259.3057963916667,260.02137510000006,63.0,113.0
1016,259.3057963916667,260.04130260833335,66.0,102.0
1017,259.3057963916667,260.0449257916667,59.0,102.0
1018,259.9579693916667,260.29311385000005,47.0,87.0
1019,260.1753603916667,260.7260842583334,59.0,92.0
1020,259.3057963916667,260.81485225000006,35.0,93.0
1021,260.1753603916667,260.83477975833335,66.0,102.0
1022,260.1753603916667,260.87282318333337,63.0,102.0
1023,260.6101423916667,260.8927506916667,47.0,86.0
1024,261.0449243916667,261.5141266333334,37.0,98.0
1025,261.0449243916667,261.5394889166667,49.0,102.0
1026,261.0449243916667,261.68803943333336,61.0,104.0
1027,261.0449243916667,261.7677494666667,68.0,104.0
1028,261.0449243916667,261.8384015416667,64.0,113.0
1029,261.9144883916667,262.26593717500003,70.0,104.0
1030,261.9144883916667,262.30216900833335,39.0,104.0
1031,261.9144883916667,262.3547051666667,51.0,102.0
1032,261.9144883916667,262.3601399416667,66.0,116.0
1033,261.9144883916667,262.3836906333334,63.0,107.0
1034,262.7840523916667,263.4199210666667,68.0,104.0
1035,262.7840523916667,263.4253558416667,64.0,116.0
1036,262.7840523916667,263.4815151833334,59.0,96.0
1037,263.4362253916667,263.7894857666667,52.0,83.0
1038,263.65361639166673,264.30941257500007,68.0,104.0
1039,263.65361639166673,264.34202122500005,59.0,100.0
1040,263.65361639166673,264.3456444083334,64.0,114.0
1041,262.7840523916667,264.3492675916667,40.0,98.0
1042,263.2188343916667,264.36194873333335,47.0,75.0
1043,264.0883983916667,264.4271660333334,52.0,80.0
1044,264.5231803916667,265.04129560833337,66.0,92.0
1045,264.5231803916667,265.0612231166667,61.0,107.0
1046,264.5231803916667,265.07390425833336,58.0,102.0
1047,265.1753533916667,265.52680217500006,54.0,72.0
1048,264.5231803916667,265.83114957500004,42.0,96.0
1049,265.3927443916667,265.96158417500004,58.0,104.0
1050,265.3927443916667,266.015931925,66.0,102.0
1051,265.3927443916667,266.1264390166667,61.0,110.0
1052,265.8275263916667,266.22788815000007,54.0,87.0
1053,266.2623083916667,266.8565104583334,63.0,114.0
1054,266.2623083916667,266.8655684166667,59.0,108.0
1055,266.2623083916667,266.8891191083334,66.0,102.0
1056,266.69709039166673,267.1662926333334,54.0,76.0
1057,266.2623083916667,267.3057851916667,47.0,88.0
1058,267.5666543916667,267.6753498916667,47.0,89.0
1059,267.1318723916667,267.67897307500004,59.0,102.0
1060,267.1318723916667,267.79310335,66.0,107.0
1061,267.1318723916667,267.8546974666667,63.0,110.0
1062,268.0014363916667,268.4217256583334,37.0,102.0
1063,268.0014363916667,268.4815081833334,49.0,102.0
1064,268.0014363916667,268.5521602583334,64.0,114.0
1065,268.0014363916667,268.5630298083334,61.0,108.0
1066,268.0014363916667,268.57571095000003,68.0,108.0
1067,268.8710003916667,269.27860851666674,39.0,110.0
1068,268.8710003916667,269.33657945000004,51.0,107.0
1069,268.8710003916667,269.33657945000004,63.0,108.0
1070,268.8710003916667,269.3402026333334,70.0,108.0
1071,268.8710003916667,269.3456374083334,66.0,116.0
1072,269.7405643916667,270.374621475,68.0,104.0
1073,269.7405643916667,270.3836794333334,64.0,116.0
1074,269.7405643916667,270.40723012500007,59.0,104.0
1075,270.1753463916667,270.6228095333334,47.0,78.0
1076,269.7405643916667,271.1880261333334,40.0,108.0
1077,270.6101283916667,271.31302595833336,59.0,107.0
1078,270.6101283916667,271.3329534666667,68.0,104.0
1079,270.6101283916667,271.36193893333336,64.0,116.0
1080,271.0449103916667,271.4271562333334,47.0,86.0
1081,271.47969239166673,272.05940172500004,66.0,98.0
1082,271.47969239166673,272.07027127500004,61.0,113.0
1083,271.47969239166673,272.08476400833337,58.0,96.0
1084,272.3492563916667,272.6662849333334,54.0,85.0
1085,271.47969239166673,272.8220818166667,42.0,89.0
1086,272.3492563916667,272.8945454833334,66.0,88.0
1087,272.3492563916667,272.896357075,58.0,96.0
1088,272.3492563916667,273.0575887333334,61.0,102.0
1089,272.7840383916667,273.1046901166667,54.0,87.0
1090,273.2188203916667,273.85831225000004,66.0,100.0
1091,273.2188203916667,273.89635567500005,59.0,100.0
1092,273.2188203916667,273.96700775000005,63.0,114.0
1093,273.2188203916667,273.9851236666667,47.0,91.0
1094,274.0883843916667,274.70613715,58.0,107.0
1095,274.0883843916667,274.71157192500004,66.0,96.0
1096,274.0883843916667,274.88910790833336,61.0,113.0
1097,274.0883843916667,274.9162817833334,46.0,93.0
1098,274.9579483916667,275.40178835000006,56.0,90.0
1099,274.9579483916667,275.61193298333336,68.0,108.0
1100,274.9579483916667,275.6173677583334,63.0,113.0
1101,274.9579483916667,275.64091845,59.0,96.0
1102,275.6101213916667,276.0394686166667,56.0,86.0
1103,276.2622943916667,276.34743920000005,56.0,91.0
1104,275.8275123916667,276.36917830000004,63.0,108.0
1105,274.9579483916667,276.38004785000004,44.0,91.0
1106,275.8275123916667,276.39454058333337,59.0,94.0
1107,275.8275123916667,276.4199028666667,68.0,104.0
1108,276.6970763916667,277.3130175583334,68.0,102.0
1109,276.6970763916667,277.3220755166667,64.0,113.0
1110,276.6970763916667,277.3564957583334,59.0,102.0
1111,276.6970763916667,277.6771474833334,52.0,102.0
1112,277.56664039166674,278.11917585000003,59.0,92.0
1113,277.56664039166674,278.2188133916667,68.0,93.0
1114,276.6970763916667,278.2477988583334,40.0,94.0
1115,277.56664039166674,278.2822191,64.0,90.0
1116,278.0014223916667,278.32388570833336,52.0,86.0
1117,278.4362043916667,278.7894647666667,54.0,96.0
1118,278.4362043916667,278.9905514416667,66.0,100.0
1119,278.4362043916667,279.02134850000004,61.0,110.0
1120,278.4362043916667,279.03221805000004,58.0,98.0
1121,279.0883773916667,279.44526095000003,54.0,79.0
1122,278.4362043916667,279.85830385,42.0,87.0
1123,279.30576839166673,279.9144631916667,58.0,104.0
1124,279.30576839166673,279.9307675166667,66.0,104.0
1125,279.30576839166673,280.03765142500004,61.0,114.0
1126,279.7405503916667,280.059390525,54.0,92.0
1127,280.1753323916667,280.9144617916667,63.0,113.0
1128,280.1753323916667,280.9217081583334,59.0,96.0
1129,280.1753323916667,280.93801248333335,66.0,98.0
1130,281.0448963916667,281.657214375,63.0,107.0
1131,281.0448963916667,281.6753302916667,59.0,89.0
1132,281.0448963916667,281.68982302500007,66.0,91.0
1133,281.69706939166673,282.09743115000003,54.0,67.0
1134,281.9144603916667,282.55395225000007,59.0,82.0
1135,281.9144603916667,282.5684449833334,63.0,87.0
1136,281.9144603916667,282.57025657500003,66.0,84.0
1137,282.34924239166673,282.8438069166667,54.0,85.0
1138,280.1753323916667,283.02315449166673,47.0,96.0
1139,282.7840243916667,283.0775022416667,59.0,89.0
1140,283.0014153916667,283.17895137500005,63.0,91.0
1141,283.2188063916667,283.60467541666674,66.0,94.0
1142,283.6535883916667,285.896338875,59.0,83.0
1143,283.4361973916667,285.99597641666674,68.0,89.0
1144,283.6535883916667,286.1934399083334,64.0,88.0
1145,283.6535883916667,286.2242369666667,40.0,86.0
1146,288.8709723916667,288.9361896916667,85.0,71.0
1147,285.6101073916667,290.0140867333334,42.0,86.0
1148,286.2622803916667,290.0231446916667,54.0,83.0
1149,286.0448893916667,290.06843448333336,49.0,64.0
1150,289.52314539166673,290.11915905000006,88.0,82.0
1151,291.8600986416667,292.38908340833336,66.0,89.0
1152,291.3872732166667,295.62458612500006,59.0,79.0
1153,290.95611440000005,295.63364408333337,54.0,73.0
1154,292.407199325,295.64632522500006,63.0,81.0
1155,293.62096574166674,295.6608179583334,73.0,75.0
1156,292.97241592500006,295.66625273333335,70.0,74.0
1157,290.46698465000003,295.74958595000004,47.0,78.0
