,start,end,pitch,velocity
0,23.220703125,23.435546875,79.0,91.0
1,23.455078125,23.65625,77.0,87.0
2,23.689453125,23.8515625,74.0,94.0
3,23.923828125,24.076171875,72.0,86.0
4,24.158203125,24.888671875,74.0,91.0
5,25.095703125,25.2578125,74.0,104.0
6,25.330078125,25.47265625,72.0,83.0
7,25.564453125,25.736328125,70.0,91.0
8,25.798828125,25.94140625,67.0,86.0
9,26.033203125,26.76171875,70.0,88.0
10,26.970703125,27.13671875,70.0,92.0
11,27.205078125,27.33203125,65.0,88.0
12,27.439453125,27.595703125,70.0,96.0
13,27.673828125,27.82421875,74.0,92.0
14,27.908203125,28.03125,72.0,87.0
15,28.142578125,28.251953125,72.0,87.0
16,28.376953125,28.4921875,72.0,86.0
17,28.611328125,28.751953125,72.0,88.0
18,28.845703125,29.1875,72.0,88.0
19,29.314453125,29.783203125,70.0,91.0
20,29.783203125,30.251953125,72.0,88.0
21,30.251953125,30.4765625,70.0,90.0
22,30.486328125,30.720703125,67.0,85.0
23,30.720703125,30.8828125,79.0,91.0
24,30.955078125,31.115234375,77.0,83.0
25,31.189453125,31.29296875,74.0,94.0
26,31.423828125,31.548828125,72.0,87.0
27,31.658203125,32.423828125,74.0,89.0
28,32.595703125,32.748046875,74.0,93.0
29,32.830078125,32.986328125,72.0,87.0
30,33.064453125,33.185546875,70.0,98.0
31,33.298828125,33.4453125,67.0,88.0
32,33.533203125,34.12109375,70.0,87.0
33,34.470703125,34.650390625,70.0,83.0
34,34.705078125,34.830078125,65.0,87.0
35,34.939453125,35.083984375,70.0,91.0
36,35.173828125,35.712890625,74.0,92.0
37,35.642578125,37.431640625,72.0,88.0
38,38.220703125,38.435546875,79.0,91.0
39,38.455078125,38.65625,77.0,87.0
40,38.689453125,38.8515625,74.0,94.0
41,38.923828125,39.076171875,72.0,86.0
42,39.158203125,39.888671875,74.0,91.0
43,40.095703125,40.2578125,74.0,104.0
44,40.330078125,40.47265625,72.0,83.0
45,40.564453125,40.736328125,70.0,91.0
46,40.798828125,40.94140625,67.0,86.0
47,41.033203125,41.76171875,70.0,88.0
48,41.970703125,42.13671875,70.0,92.0
49,42.205078125,42.33203125,65.0,88.0
50,42.439453125,42.595703125,70.0,96.0
51,42.673828125,42.82421875,74.0,92.0
52,42.908203125,43.03125,72.0,87.0
53,43.142578125,43.251953125,72.0,87.0
54,43.376953125,43.4921875,72.0,86.0
55,43.611328125,43.751953125,72.0,88.0
56,43.845703125,44.1875,72.0,88.0
57,44.314453125,44.783203125,70.0,91.0
58,44.783203125,45.251953125,72.0,88.0
59,45.251953125,45.4765625,70.0,90.0
60,45.486328125,45.720703125,67.0,85.0
61,45.720703125,45.8828125,79.0,91.0
62,45.955078125,46.115234375,77.0,83.0
63,46.189453125,46.29296875,74.0,94.0
64,46.423828125,46.548828125,72.0,87.0
65,46.658203125,47.42814908541666,74.0,89.0
66,47.60137726875,47.75492043125,74.0,93.0
67,47.83759751875,47.99507768541667,72.0,87.0
68,48.07381776875,48.195864897916664,70.0,98.0
69,48.31003801875,48.457675675,67.0,88.0
70,48.54625826875,49.13877739583333,70.0,87.0
71,49.49113926875,49.672241460416664,70.0,83.0
72,49.72735951875,49.85334365208333,65.0,87.0
73,49.96357976875,50.10924892291666,70.0,91.0
74,50.19980001875,50.74310659375,74.0,92.0
75,50.67224051875,52.47538842708333,72.0,88.0
76,52.56200251875,52.709640175,72.0,88.0
77,52.79822276875,52.93798641666667,72.0,89.0
78,53.03444301875,53.17617516875,72.0,89.0
79,53.27066326875,53.428143435416665,72.0,91.0
80,53.50688351875,53.96751300625,77.0,89.0
81,53.97932401875,54.12105616875,72.0,87.0
82,54.21554426875,56.05128163125,72.0,92.0
83,56.09229725625,56.89112538125,70.0,89.0
84,57.02979725625,57.76221913125,72.0,89.0
85,57.96729725625,60.95167225625,74.0,98.0
86,61.01417225625,61.13917225625,74.0,90.0
87,61.24854725625,61.39503163125,77.0,91.0
88,61.48292225625,61.60987538125,74.0,96.0
89,61.71729725625,61.84229725625,79.0,88.0
90,61.95167225625,62.05518788125,79.0,87.0
91,62.18604725625,62.48487538125,79.0,89.0
92,62.65479725625,62.98878163125,79.0,89.0
93,63.12354725625,63.41065663125,77.0,92.0
94,63.59229725625,63.96143788125,74.0,98.0
95,64.06104725624999,64.19971913124999,72.0,87.0
96,64.29542225624999,64.57471913124999,74.0,94.0
97,64.76417225624999,64.88917225624999,74.0,89.0
98,64.99854725624999,65.13526600624999,74.0,96.0
99,65.23292225624999,65.38917225624999,70.0,80.0
100,65.46729725624999,65.75050038124999,72.0,88.0
101,65.93604725624999,66.26221913124999,72.0,90.0
102,66.40479725624999,66.69190663124999,72.0,89.0
103,66.87354725624999,67.02003163124999,72.0,90.0
104,67.10792225624999,67.24659413124999,74.0,90.0
105,67.34229725624999,67.66065663124999,72.0,89.0
106,67.81104725624999,68.02003163124999,70.0,88.0
107,68.04542225624999,68.31885975624999,67.0,88.0
108,68.51417225624999,68.67042225624999,74.0,90.0
109,68.74854725624999,68.92823475624999,77.0,91.0
110,68.98292225624999,69.14503163124999,74.0,98.0
111,69.21729725624999,69.55518788124999,79.0,88.0
112,69.68604725624999,70.00440663124999,79.0,89.0
113,70.15479725624999,70.51026600624999,79.0,89.0
114,70.62354725624999,70.97315663124999,77.0,85.0
115,71.09229725624999,71.44190663124999,74.0,93.0
116,71.56104725624999,71.91456288124999,74.0,94.0
117,72.02979725624999,72.42042225624999,72.0,87.0
118,72.49854725624999,72.85206288124999,70.0,87.0
119,72.96729725624999,73.26807850624999,72.0,94.0
120,73.43604725624999,73.75050038124999,72.0,91.0
121,73.90479725624999,74.04542225624999,72.0,91.0
122,74.13917225624999,74.78956288124999,77.0,90.0
123,74.84229725624999,75.88721913124999,74.0,96.0
124,76.01417225624999,76.13917225624999,74.0,90.0
125,76.24854725624999,76.39503163124999,77.0,91.0
126,76.48292225624999,76.60987538124999,74.0,96.0
127,76.71729725624999,76.84229725624999,79.0,88.0
128,76.95167225624999,77.05518788124999,79.0,87.0
129,77.18604725624999,77.48487538124999,79.0,89.0
130,77.65479725624999,77.98878163124999,79.0,89.0
131,78.12354725624999,78.41065663124999,77.0,92.0
132,78.59229725624999,78.96143788124999,74.0,98.0
133,79.06104725624999,79.19971913124999,72.0,87.0
134,79.29542225624999,79.57471913124999,74.0,94.0
135,79.76417225624999,79.88917225624999,74.0,89.0
136,79.99854725624999,80.13526600624999,74.0,96.0
137,80.23292225624999,80.38917225624999,70.0,80.0
138,80.46729725624999,80.75050038124999,72.0,88.0
139,80.93604725624999,81.26221913124999,72.0,90.0
140,81.40479725624999,81.69190663124999,72.0,89.0
141,81.87354725624999,82.02003163124999,72.0,90.0
142,82.10792225624999,82.24659413124999,74.0,90.0
143,82.34229725624999,82.66065663124999,72.0,89.0
144,82.81104725624999,83.02003163124999,70.0,88.0
145,83.04542225624999,83.31885975624999,67.0,88.0
146,83.51417225624999,83.66846913124999,67.0,84.0
147,83.74854725624999,83.89503163124999,67.0,88.0
148,83.98292225624999,84.15284413124999,69.0,87.0
149,84.21729725624999,84.56885975624999,70.0,87.0
150,84.68604725624999,85.02589100624999,70.0,88.0
151,85.15479725624999,85.50635975624999,70.0,92.0
152,85.62354725624999,86.00831288124999,74.0,90.0
153,86.09229725624999,86.42237538124999,72.0,87.0
154,86.56104725624999,86.85401600624999,72.0,88.0
155,87.02979725624999,87.35010975624999,72.0,91.0
156,87.49854725624999,87.81300038124999,69.0,89.0
157,87.96729725624999,90.77979725624999,67.0,88.0
158,90.77979725624999,90.99464100624999,79.0,91.0
159,91.01417225624999,91.21534413124999,77.0,87.0
160,91.24854725624999,91.41065663124999,74.0,94.0
161,91.48292225624999,91.63526600624999,72.0,86.0
162,91.71729725624999,92.44776600624999,74.0,91.0
163,92.65479725624999,92.81690663124999,74.0,104.0
164,92.88917225624999,93.03175038124999,72.0,83.0
165,93.12354725624999,93.29542225624999,70.0,91.0
166,93.35792225624999,93.50050038124999,67.0,86.0
167,93.59229725624999,94.32081288124999,70.0,88.0
168,94.52979725624999,94.69581288124999,70.0,92.0
169,94.76417225624999,94.89112538124999,65.0,88.0
170,94.99854725624999,95.15479725624999,70.0,96.0
171,95.23292225624999,95.38331288124999,74.0,92.0
172,95.46729725624999,95.59034413124999,72.0,87.0
173,95.70167225624999,95.81104725624999,72.0,87.0
174,95.93604725624999,96.05128163124999,72.0,86.0
175,96.17042225624999,96.31104725624999,72.0,88.0
176,96.40479725624999,96.74659413124999,72.0,88.0
177,96.87354725624999,97.34229725624999,70.0,91.0
178,97.34229725624999,97.81104725624999,72.0,88.0
179,97.81104725624999,98.03565663124999,70.0,90.0
180,98.04542225624999,98.27979725624999,67.0,85.0
181,98.27979725624999,98.44190663124999,79.0,91.0
182,98.51417225624999,98.67432850624999,77.0,83.0
183,98.74854725624999,98.85206288124999,74.0,94.0
184,98.98292225624999,99.10792225624999,72.0,87.0
185,99.21729725624999,99.98292225624999,74.0,89.0
186,100.15479725624999,100.30714100624999,74.0,93.0
187,100.38917225624999,100.54542225624999,72.0,87.0
188,100.62354725624999,100.74464100624999,70.0,98.0
189,100.85792225624999,101.00440663124999,67.0,88.0
190,101.09229725624999,101.68018788124999,70.0,87.0
191,102.02979725624999,102.20948475624999,70.0,83.0
192,102.26417225624999,102.38917225624999,65.0,87.0
193,102.49854725624999,102.64307850624999,70.0,91.0
194,102.73292225624999,103.27198475624999,74.0,92.0
195,103.20167225624999,104.99073475624999,72.0,88.0
196,105.77979725624999,105.99464100624999,79.0,91.0
197,106.01417225624999,106.21534413124999,77.0,87.0
198,106.24854725624999,106.41065663124999,74.0,94.0
199,106.48292225624999,106.63526600624999,72.0,86.0
200,106.71729725624999,107.45108194375,74.0,91.0
201,107.65941500624999,107.82254372499999,74.0,104.0
202,107.89526375624999,108.0387384125,72.0,83.0
203,108.13111250624999,108.30406825624999,70.0,91.0
204,108.36696125625,108.51043591249999,67.0,86.0
205,108.60281000625,109.3359065375,70.0,88.0
206,109.54620500624999,109.7132645375,70.0,92.0
207,109.78205375625,109.90980516249999,65.0,88.0
208,110.01790250625,110.17513500624999,70.0,96.0
209,110.25375125625,110.4050875375,74.0,92.0
210,110.48960000624999,110.6134206,72.0,87.0
211,110.72544875624999,110.83551150624999,72.0,87.0
212,110.96129750624999,111.077256475,72.0,86.0
213,111.19714625625,111.33865550624999,72.0,88.0
214,111.43299500625,111.77694109999999,72.0,88.0
215,111.90469250624999,112.37639000624999,70.0,91.0
216,112.37639000624999,112.84808750625,72.0,88.0
217,112.84808750625,113.07410922499999,70.0,90.0
218,113.08393625625,113.31978500624999,67.0,85.0
219,113.31978500624999,113.48291372499999,79.0,91.0
220,113.55563375624999,113.71679706875,77.0,83.0
221,113.79148250624999,113.8956490375,74.0,94.0
222,114.02733125625,114.15311725625,72.0,87.0
223,114.26318000625,115.03361925624999,74.0,89.0
224,115.20657500624999,115.35987669375,74.0,93.0
225,115.44242375625,115.59965625625,72.0,87.0
226,115.67827250625,115.80012769375,70.0,98.0
227,115.91412125625,116.061526725,67.0,88.0
228,116.14997000624999,116.74155728749999,70.0,87.0
229,117.09336500625,117.27418238125,70.0,83.0
230,117.32921375625,117.45499975624999,65.0,87.0
231,117.56506250624999,117.71050256874999,70.0,91.0
232,117.80091125624999,118.34244228749999,74.0,92.0
233,118.27212978749999,120.06119228749999,72.0,88.0
234,120.14712978749999,120.29361416249999,72.0,88.0
235,120.38150478749999,120.52017666249999,72.0,89.0
236,120.61587978749999,120.75650478749999,72.0,89.0
237,120.85025478749999,121.00650478749999,72.0,91.0
238,121.08462978749999,121.54166103749999,77.0,89.0
239,121.55337978749999,121.69400478749999,72.0,87.0
240,121.78775478749999,123.62173916249999,72.0,92.0
241,123.66275478749999,124.46158291249999,70.0,89.0
242,124.60025478749999,125.33267666249999,72.0,89.0
243,125.53775478749999,128.52212978749998,74.0,98.0
244,128.58462978749998,128.70962978749998,74.0,90.0
245,128.81900478749998,128.96548916249998,77.0,91.0
246,129.05337978749998,129.18033291249998,74.0,96.0
247,129.28775478749998,129.41275478749998,79.0,88.0
248,129.52212978749998,129.62564541249998,79.0,87.0
249,129.75650478749998,130.05533291249998,79.0,89.0
250,130.22525478749998,130.55923916249998,79.0,89.0
251,130.69400478749998,130.98111416249998,77.0,92.0
252,131.16275478749998,131.53189541249998,74.0,98.0
253,131.63150478749998,131.77017666249998,72.0,87.0
254,131.86587978749998,132.14517666249998,74.0,94.0
255,132.33462978749998,132.45962978749998,74.0,89.0
256,132.56900478749998,132.70572353749998,74.0,96.0
257,132.80337978749998,132.95962978749998,70.0,80.0
258,133.03775478749998,133.32095791249998,72.0,88.0
259,133.50650478749998,133.83267666249998,72.0,90.0
260,133.97525478749998,134.26236416249998,72.0,89.0
261,134.44400478749998,134.59048916249998,72.0,90.0
262,134.67837978749998,134.81705166249998,74.0,90.0
263,134.91275478749998,135.23111416249998,72.0,89.0
264,135.38150478749998,135.59048916249998,70.0,88.0
265,135.61587978749998,135.88931728749998,67.0,88.0
266,136.08462978749998,136.24087978749998,74.0,90.0
267,136.31900478749998,136.49869228749998,77.0,91.0
268,136.55337978749998,136.71548916249998,74.0,98.0
269,136.78775478749998,137.12564541249998,79.0,88.0
270,137.25650478749998,137.57486416249998,79.0,89.0
271,137.72525478749998,138.08072353749998,79.0,89.0
272,138.19400478749998,138.54361416249998,77.0,85.0
273,138.66275478749998,139.01236416249998,74.0,93.0
274,139.13150478749998,139.48502041249998,74.0,94.0
275,139.60025478749998,139.99087978749998,72.0,87.0
276,140.06900478749998,140.42252041249998,70.0,87.0
277,140.53775478749998,140.83853603749998,72.0,94.0
278,141.00650478749998,141.32095791249998,72.0,91.0
279,141.47525478749998,141.61587978749998,72.0,91.0
280,141.70962978749998,142.36002041249998,77.0,90.0
281,142.41275478749998,143.45767666249998,74.0,96.0
282,143.58462978749998,143.70962978749998,74.0,90.0
283,143.81900478749998,143.96548916249998,77.0,91.0
284,144.05337978749998,144.18033291249998,74.0,96.0
285,144.28775478749998,144.41275478749998,79.0,88.0
286,144.52212978749998,144.62564541249998,79.0,87.0
287,144.75650478749998,145.05533291249998,79.0,89.0
288,145.22525478749998,145.55923916249998,79.0,89.0
289,145.69400478749998,145.98111416249998,77.0,92.0
290,146.16275478749998,146.53189541249998,74.0,98.0
291,146.63150478749998,146.77017666249998,72.0,87.0
292,146.86587978749998,147.14517666249998,74.0,94.0
293,147.33462978749998,147.45962978749998,74.0,89.0
294,147.56900478749998,147.70572353749998,74.0,96.0
295,147.80337978749998,147.95962978749998,70.0,80.0
296,148.03775478749998,148.32095791249998,72.0,88.0
297,148.50650478749998,148.83267666249998,72.0,90.0
298,148.97525478749998,149.26236416249998,72.0,89.0
299,149.44400478749998,149.59048916249998,72.0,90.0
300,149.67837978749998,149.81705166249998,74.0,90.0
301,149.91275478749998,150.23111416249998,72.0,89.0
302,150.38150478749998,150.59048916249998,70.0,88.0
303,150.61587978749998,150.88931728749998,67.0,88.0
304,151.08462978749998,151.23892666249998,67.0,84.0
305,151.31900478749998,151.46548916249998,67.0,88.0
306,151.55337978749998,151.72330166249998,69.0,87.0
307,151.78775478749998,152.13931728749998,70.0,87.0
308,152.25650478749998,152.59634853749998,70.0,88.0
309,152.72525478749998,153.07681728749998,70.0,92.0
310,153.19400478749998,153.57877041249998,74.0,90.0
311,153.66275478749998,153.99283291249998,72.0,87.0
312,154.13150478749998,154.42447353749998,72.0,88.0
313,154.60025478749998,154.92056728749998,72.0,91.0
314,155.06900478749998,155.38345791249998,69.0,89.0
315,155.53775478749998,158.35025478749998,67.0,88.0
316,158.81900478749998,159.19400478749998,67.0,94.0
317,159.28775478749998,161.49161422499998,79.0,91.0
318,161.64491591249998,162.04585878749998,76.0,87.0
319,162.1166134125,162.5883109125,74.0,96.0
320,162.5883109125,163.00497703749997,72.0,94.0
321,163.06000841249997,163.82116181874997,74.0,91.0
322,163.99889619374997,166.10436494374997,67.0,90.0
323,166.34264619374997,166.70202119374997,67.0,93.0
324,166.81139619374997,167.66295869374997,79.0,88.0
325,167.74889619374997,168.07116181874997,79.0,88.0
326,168.21764619374997,168.61998994374997,77.0,89.0
327,168.68639619374997,169.44616181874997,74.0,91.0
328,169.62389619374997,169.96178681874997,74.0,96.0
329,170.09264619374997,170.52038056874997,77.0,93.0
330,170.56139619374997,171.41686494374997,72.0,92.0
331,171.49889619374997,171.83873994374997,70.0,91.0
332,171.96764619374997,172.28014619374997,72.0,89.0
333,172.43639619374997,174.82702119374997,74.0,94.0
334,190.54953871874997,190.67473418541664,74.0,90.0
335,190.78428021874998,190.93099365624997,77.0,91.0
336,191.01902171874997,191.14617336458332,74.0,96.0
337,191.25376321874998,191.37895868541665,79.0,88.0
338,191.48850471874997,191.59218221458332,79.0,87.0
339,191.72324621874998,192.02254163124996,79.0,89.0
340,192.19272921874997,192.52723585624997,79.0,89.0
341,192.66221221874997,192.94977055624997,77.0,92.0
342,193.13169521874997,193.50141308124998,74.0,98.0
343,193.60117821874996,193.7400669395833,72.0,87.0
344,193.83591971874998,194.1156533395833,74.0,94.0
345,194.30540271874997,194.43059818541664,74.0,89.0
346,194.54014421875,194.67707676041664,74.0,96.0
347,194.77488571874997,194.9313800520833,70.0,80.0
348,195.00962721874998,195.29327319791665,72.0,88.0
349,195.47911021874998,195.8057921395833,72.0,90.0
350,195.94859321874998,196.23615155624998,72.0,89.0
351,196.41807621874997,196.56478965624999,72.0,90.0
352,196.65281771875,196.79170643958332,74.0,90.0
353,196.88755921874997,197.20641642291665,72.0,89.0
354,197.35704221874997,197.5663533895833,70.0,88.0
355,197.59178371874998,197.8656488020833,67.0,88.0
356,198.06126671874998,198.21580487291664,67.0,84.0
357,198.29600821875,198.44272165624997,67.0,88.0
358,198.53074971874997,198.70093730624998,69.0,87.0
359,198.76549121875,199.11668016041665,70.0,87.0
360,199.23350241041663,199.57228693541666,70.0,88.0
361,199.70079141041666,200.05125816041664,70.0,92.0
362,200.16808041041665,200.55164679791665,74.0,90.0
363,200.63536941041664,200.96441874791665,72.0,87.0
364,201.10265841041664,201.39471403541665,72.0,88.0
365,201.56994741041663,201.88926156041666,72.0,91.0
366,202.03723641041665,202.35070944791664,69.0,89.0
367,202.50452541041665,205.30825941041664,67.0,88.0
368,205.54190391041664,205.66651431041666,79.0,90.0
369,205.77554841041663,205.92157622291666,79.0,91.0
370,206.00919291041666,206.13606689791663,79.0,96.0
371,206.24348877291663,206.69075439791663,79.0,88.0
372,206.71223877291663,207.01106689791663,79.0,89.0
373,207.18098877291663,207.32552002291663,79.0,89.0
374,207.42122314791663,207.58919189791663,77.0,97.0
375,207.64973877291663,207.93684814791663,77.0,92.0
376,208.11848877291663,208.48762939791663,74.0,98.0
377,208.58723877291663,208.72591064791663,72.0,87.0
378,208.82161377291663,209.10091064791663,74.0,94.0
379,209.29036377291663,209.41536377291663,74.0,89.0
380,209.52473877291663,209.66145752291663,74.0,96.0
381,209.75911377291663,209.91536377291663,70.0,80.0
382,209.99348877291663,210.27669189791663,72.0,88.0
383,210.46223877291663,210.78841064791663,72.0,90.0
384,210.93098877291663,211.21809814791663,72.0,89.0
385,211.39973877291663,211.54622314791663,72.0,90.0
386,211.63411377291663,211.77278564791663,74.0,90.0
387,211.86848877291663,212.18684814791663,72.0,89.0
388,212.33723877291663,212.54622314791663,77.0,88.0
389,212.57161377291663,212.84505127291663,74.0,88.0
390,213.04036377291663,213.21223877291663,74.0,88.0
391,213.27473877291663,213.40755127291663,77.0,83.0
392,213.50911377291663,213.67512939791663,74.0,90.0
393,213.74348877291663,214.07552002291663,79.0,88.0
394,214.21223877291663,214.53255127291663,79.0,89.0
395,214.68098877291663,215.03450439791663,79.0,91.0
396,215.14973877291663,215.47981689791663,77.0,82.0
397,215.61848877291663,216.03255127291663,74.0,98.0
398,216.08723877291663,216.44661377291663,74.0,92.0
399,216.55598877291663,216.92708252291663,72.0,88.0
400,217.02473877291663,217.40755127291663,70.0,86.0
401,217.49348877291663,217.82161377291663,72.0,92.0
402,217.96223877291663,218.28841064791663,72.0,89.0
403,218.43098877291663,218.61262939791663,72.0,91.0
404,218.66536377291663,219.40559814791663,77.0,87.0
405,219.36848877291663,220.40950439791663,74.0,90.0
406,220.54036377291663,220.66536377291663,74.0,90.0
407,220.77473877291663,220.92122314791663,77.0,91.0
408,221.00911377291663,221.13606689791663,74.0,96.0
409,221.24348877291663,221.36848877291663,79.0,88.0
410,221.47786377291663,221.58137939791663,79.0,87.0
411,221.71223877291663,222.01106689791663,79.0,89.0
412,222.18098877291663,222.51497314791663,79.0,89.0
413,222.64973877291663,222.93684814791663,77.0,92.0
414,223.11848877291663,223.48762939791663,74.0,98.0
415,223.58723877291663,223.72591064791663,72.0,87.0
416,223.82161377291663,224.10091064791663,74.0,94.0
417,224.29036377291663,224.41536377291663,74.0,89.0
418,224.52473877291663,224.66145752291663,74.0,96.0
419,224.75911377291663,224.91536377291663,70.0,80.0
420,224.99348877291663,225.27669189791663,72.0,88.0
421,225.46223877291663,225.78841064791663,72.0,90.0
422,225.93098877291663,226.21809814791663,72.0,89.0
423,226.39973877291663,226.54622314791663,72.0,90.0
424,226.63411377291663,226.77278564791663,74.0,90.0
425,226.86848877291663,227.18684814791663,72.0,89.0
426,227.33723877291663,227.54622314791663,70.0,88.0
427,227.57161377291663,227.84505127291663,67.0,88.0
428,228.04036377291663,228.19466064791663,67.0,84.0
429,228.27473877291663,228.42122314791663,67.0,88.0
430,228.50911377291663,228.67903564791663,69.0,87.0
431,228.74348877291663,229.09505127291663,70.0,87.0
432,229.21223877291663,229.55208252291663,70.0,88.0
433,229.68098877291663,230.03255127291663,70.0,92.0
434,230.14973877291663,230.53450439791663,74.0,90.0
435,230.61848877291663,230.94856689791663,72.0,87.0
436,231.08723877291663,231.38020752291663,72.0,88.0
437,231.55598877291663,231.87630127291663,72.0,91.0
438,232.02473877291663,232.33919189791663,69.0,89.0
439,232.49348877291663,235.30598877291663,67.0,88.0
