,start,end,pitch,velocity
0,9.158203125,9.9140625,62.0,87.0
1,9.158203125,10.017578125,55.0,87.0
2,9.626953125,10.35546875,50.0,82.0
3,9.158203125,10.412109375,43.0,88.0
4,10.095703125,10.830078125,58.0,89.0
5,10.564453125,10.87109375,43.0,87.0
6,10.095703125,11.060546875,62.0,89.0
7,10.798828125,11.154296875,55.0,86.0
8,11.501953125,11.69140625,62.0,49.0
9,11.501953125,11.90234375,53.0,87.0
10,11.033203125,12.484375,46.0,91.0
11,11.970703125,12.501953125,58.0,94.0
12,12.439453125,12.705078125,53.0,91.0
13,11.970703125,12.779296875,62.0,88.0
14,12.908203125,13.1484375,53.0,83.0
15,12.908203125,13.171875,57.0,80.0
16,12.908203125,13.24609375,60.0,87.0
17,13.611328125,13.7421875,57.0,74.0
18,13.376953125,13.95703125,48.0,76.0
19,12.908203125,14.119140625,41.0,88.0
20,13.845703125,14.12890625,57.0,88.0
21,13.845703125,14.162109375,60.0,91.0
22,13.845703125,14.359375,65.0,87.0
23,14.314453125,14.466796875,41.0,87.0
24,14.783203125,15.03515625,55.0,84.0
25,14.783203125,15.337890625,64.0,90.0
26,14.783203125,15.345703125,60.0,84.0
27,15.251953125,15.392578125,55.0,74.0
28,14.783203125,15.87109375,48.0,91.0
29,15.720703125,15.9765625,60.0,96.0
30,15.720703125,15.986328125,55.0,93.0
31,15.720703125,15.986328125,64.0,98.0
32,15.955078125,16.25390625,48.0,91.0
33,16.189453125,16.2890625,55.0,83.0
34,16.189453125,16.498046875,60.0,92.0
35,16.423828125,16.556640625,55.0,83.0
36,16.658203125,17.125,58.0,79.0
37,16.658203125,17.12890625,55.0,78.0
38,17.126953125,17.67578125,50.0,77.0
39,17.595703125,17.84765625,55.0,88.0
40,17.595703125,17.921875,58.0,94.0
41,16.658203125,17.99609375,43.0,88.0
42,17.830078125,18.01953125,50.0,82.0
43,17.595703125,18.01953125,62.0,88.0
44,18.064453125,18.107421875,62.0,67.0
45,18.064453125,18.212890625,55.0,90.0
46,18.298828125,18.486328125,57.0,85.0
47,18.533203125,18.826171875,53.0,81.0
48,18.533203125,18.8828125,58.0,76.0
49,19.001953125,19.388671875,53.0,87.0
50,19.470703125,19.72265625,53.0,88.0
51,18.533203125,19.77734375,46.0,83.0
52,19.470703125,19.833984375,58.0,88.0
53,19.939453125,20.142578125,53.0,98.0
54,19.470703125,20.291015625,62.0,88.0
55,20.408203125,20.74609375,65.0,87.0
56,20.408203125,20.75,60.0,85.0
57,20.408203125,20.7578125,69.0,87.0
58,20.408203125,20.78515625,41.0,88.0
59,20.876953125,24.08203125,60.0,88.0
60,20.876953125,24.087890625,69.0,88.0
61,20.876953125,24.08984375,65.0,88.0
62,20.876953125,24.12109375,41.0,88.0
63,24.158203125,24.689453125,58.0,79.0
64,24.158203125,24.708984375,62.0,85.0
65,24.158203125,24.732421875,55.0,83.0
66,24.626953125,25.177734375,50.0,75.0
67,25.095703125,25.36328125,55.0,87.0
68,25.095703125,25.3828125,58.0,89.0
69,25.095703125,25.607421875,62.0,87.0
70,25.330078125,25.634765625,50.0,83.0
71,24.158203125,25.666015625,43.0,88.0
72,25.564453125,25.685546875,55.0,88.0
73,25.798828125,25.96484375,57.0,88.0
74,26.033203125,26.345703125,53.0,76.0
75,26.033203125,26.3984375,58.0,64.0
76,26.501953125,26.794921875,53.0,69.0
77,26.970703125,27.21875,53.0,82.0
78,26.970703125,27.3203125,58.0,86.0
79,26.033203125,27.642578125,46.0,83.0
80,26.970703125,27.798828125,62.0,88.0
81,27.908203125,28.3515625,53.0,76.0
82,27.908203125,28.375,57.0,73.0
83,27.908203125,28.4140625,60.0,79.0
84,28.845703125,28.880859375,53.0,62.0
85,28.376953125,29.16796875,48.0,69.0
86,27.908203125,29.306640625,41.0,79.0
87,28.845703125,29.314453125,60.0,87.0
88,28.845703125,29.318359375,57.0,84.0
89,28.845703125,29.4140625,65.0,85.0
90,29.314453125,29.42578125,53.0,87.0
91,29.783203125,30.0234375,55.0,76.0
92,29.783203125,30.36328125,60.0,82.0
93,30.251953125,30.419921875,55.0,81.0
94,30.720703125,30.994140625,60.0,88.0
95,30.720703125,31.013671875,55.0,87.0
96,30.720703125,31.19921875,64.0,90.0
97,29.783203125,31.28515625,48.0,86.0
98,31.189453125,31.30078125,60.0,80.0
99,31.658203125,32.11328125,55.0,82.0
100,31.658203125,32.201171875,58.0,81.0
101,32.126953125,32.69140625,50.0,71.0
102,32.595703125,32.80078125,58.0,85.0
103,32.595703125,32.8203125,55.0,81.0
104,32.595703125,32.84375,62.0,87.0
105,31.658203125,33.326171875,43.0,86.0
106,33.064453125,33.34765625,55.0,87.0
107,32.830078125,33.384765625,50.0,82.0
108,33.298828125,33.591796875,57.0,88.0
109,33.533203125,34.001953125,58.0,83.0
110,34.001953125,34.4453125,53.0,80.0
111,33.533203125,34.953125,46.0,88.0
112,34.470703125,34.970703125,58.0,79.0
113,34.470703125,35.154296875,62.0,85.0
114,34.939453125,35.177734375,53.0,85.0
115,35.408203125,36.2421875,57.0,79.0
116,35.876953125,36.27734375,48.0,74.0
117,35.408203125,36.623046875,53.0,79.0
118,36.111328125,36.732421875,60.0,81.0
119,36.580078125,36.974609375,65.0,87.0
120,36.345703125,37.021484375,48.0,78.0
121,35.408203125,37.080078125,41.0,82.0
122,36.814453125,37.09765625,53.0,82.0
123,37.283203125,37.9609375,57.0,76.0
124,37.283203125,38.017578125,60.0,78.0
125,37.283203125,38.068359375,53.0,77.0
126,38.220703125,38.275390625,53.0,76.0
127,37.283203125,38.73828125,41.0,84.0
128,38.689453125,39.041015625,53.0,78.0
129,38.220703125,39.095703125,57.0,88.0
130,38.220703125,39.099609375,60.0,87.0
131,38.220703125,39.12890625,65.0,85.0
132,39.158203125,39.689453125,58.0,79.0
133,39.158203125,39.708984375,62.0,85.0
134,39.158203125,39.732421875,55.0,83.0
135,39.626953125,40.177734375,50.0,75.0
136,40.095703125,40.36328125,55.0,87.0
137,40.095703125,40.3828125,58.0,89.0
138,40.095703125,40.607421875,62.0,87.0
139,40.330078125,40.634765625,50.0,83.0
140,39.158203125,40.666015625,43.0,88.0
141,40.564453125,40.685546875,55.0,88.0
142,40.798828125,40.96484375,57.0,88.0
143,41.033203125,41.345703125,53.0,76.0
144,41.033203125,41.3984375,58.0,64.0
145,41.501953125,41.794921875,53.0,69.0
146,41.970703125,42.21875,53.0,82.0
147,41.970703125,42.3203125,58.0,86.0
148,41.033203125,42.642578125,46.0,83.0
149,41.970703125,42.798828125,62.0,88.0
150,42.908203125,43.3515625,53.0,76.0
151,42.908203125,43.375,57.0,73.0
152,42.908203125,43.4140625,60.0,79.0
153,43.845703125,43.880859375,53.0,62.0
154,43.376953125,44.16796875,48.0,69.0
155,42.908203125,44.306640625,41.0,79.0
156,43.845703125,44.314453125,60.0,87.0
157,43.845703125,44.318359375,57.0,84.0
158,43.845703125,44.4140625,65.0,85.0
159,44.314453125,44.42578125,53.0,87.0
160,44.783203125,45.0234375,55.0,76.0
161,44.783203125,45.36328125,60.0,82.0
162,45.251953125,45.419921875,55.0,81.0
163,45.720703125,45.994140625,60.0,88.0
164,45.720703125,46.013671875,55.0,87.0
165,45.720703125,46.19921875,64.0,90.0
166,44.783203125,46.28515625,48.0,86.0
167,46.189453125,46.30078125,60.0,80.0
168,46.658203125,47.11515725416667,55.0,82.0
169,46.658203125,47.203739847916665,58.0,81.0
170,47.12893676875,47.697833870833335,50.0,71.0
171,47.60137726875,47.8080699875,58.0,85.0
172,47.60137726875,47.827755008333334,55.0,81.0
173,47.60137726875,47.851377033333335,62.0,87.0
174,46.658203125,48.33759704791667,43.0,86.0
175,48.07381776875,48.35925057083333,55.0,87.0
176,47.83759751875,48.39665211041667,50.0,82.0
177,48.31003801875,48.60531333125,57.0,88.0
178,48.54625826875,49.01869876875,58.0,83.0
179,49.01869876875,49.465548741666666,53.0,80.0
180,48.54625826875,49.977359283333335,46.0,88.0
181,49.49113926875,49.995075802083335,58.0,79.0
182,49.49113926875,50.18011499791667,62.0,85.0
183,49.96357976875,50.20373702291667,53.0,85.0
184,50.43602026875,51.276570658333334,57.0,79.0
185,50.908460768750004,51.31200369583333,48.0,74.0
186,50.43602026875,51.660428564583334,53.0,79.0
187,51.14468101875,51.77066468125,60.0,81.0
188,51.61712151875,52.01475893958333,65.0,87.0
189,51.38090126875,52.062002989583334,48.0,78.0
190,50.43602026875,52.121058052083335,41.0,82.0
191,51.85334176875,52.138774570833334,53.0,82.0
192,52.325782268750004,53.008852491666666,57.0,76.0
193,52.325782268750004,53.06593905208334,60.0,78.0
194,52.325782268750004,53.11712010625,53.0,77.0
195,53.27066326875,53.325781327083334,53.0,76.0
196,52.325782268750004,53.792316320833336,41.0,84.0
197,53.743103768750004,54.09743414375,53.0,78.0
198,53.27066326875,54.152552202083335,57.0,88.0
199,53.27066326875,54.15648920625,60.0,87.0
200,53.27066326875,54.1860167375,65.0,85.0
201,54.21554426875,54.53370350625,60.0,87.0
202,54.21554426875,54.54346913125,55.0,86.0
203,54.21554426875,54.86182850625,48.0,104.0
204,54.68604725625,54.89503163125,55.0,74.0
205,54.68604725625,54.89893788125,60.0,80.0
206,55.15479725625,55.40479725625,60.0,88.0
207,55.15479725625,55.40675038125,64.0,90.0
208,55.15479725625,55.42042225625,55.0,88.0
209,55.62354725625,55.84425038125,60.0,77.0
210,55.15479725625,55.85596913125,48.0,101.0
211,55.62354725625,55.86182850625,55.0,75.0
212,55.62354725625,55.87354725625,64.0,84.0
213,56.09229725625,56.38135975625,55.0,85.0
214,56.09229725625,56.67628163125,60.0,85.0
215,56.09229725625,56.83253163125,48.0,96.0
216,56.56104725625,56.86964100625,55.0,85.0
217,57.02979725625,57.19190663125,48.0,92.0
218,57.02979725625,57.23292225625,55.0,91.0
219,57.02979725625,57.25440663125,60.0,89.0
220,57.49854725625,57.68800038125,55.0,88.0
221,57.49854725625,57.85010975625,60.0,89.0
222,57.96729725625,58.04151600625,38.0,91.0
223,57.96729725625,58.28760975625,62.0,87.0
224,57.96729725625,58.28956288125,57.0,83.0
225,58.43604725625,58.55518788125,57.0,78.0
226,58.43604725625,58.57081288125,62.0,82.0
227,58.43604725625,58.60596913125,50.0,88.0
228,58.90479725625,59.07667225625,50.0,89.0
229,58.90479725625,59.08643788125,57.0,83.0
230,58.90479725625,59.11573475625,62.0,79.0
231,58.90479725625,59.15089100625,66.0,79.0
232,59.37354725625,59.56495350625,50.0,88.0
233,59.37354725625,59.56690663125,57.0,87.0
234,59.37354725625,59.62550038125,62.0,87.0
235,59.37354725625,59.65870350625,66.0,87.0
236,59.84229725625,60.20948475625,50.0,92.0
237,59.84229725625,60.23878163125,57.0,89.0
238,60.31104725625,60.44190663125,50.0,88.0
239,59.84229725625,60.58448475625,62.0,87.0
240,59.84229725625,60.58448475625,66.0,87.0
241,59.84229725625,60.60792225625,69.0,87.0
242,61.24854725625,61.64112538125,66.0,93.0
243,61.48292225625,61.64112538125,74.0,88.0
244,61.01417225625,61.64893788125,62.0,91.0
245,60.77979725625,61.66065663125,57.0,96.0
246,60.54542225625,61.68800038125,50.0,88.0
247,62.18604725625,62.46925038125,58.0,81.0
248,62.42042225625,62.55128163125,55.0,87.0
249,62.65479725625,62.75831288125,55.0,87.0
250,62.65479725625,62.92628163125,58.0,89.0
251,62.65479725625,62.97706288125,62.0,90.0
252,62.88917225625,62.98682850625,55.0,75.0
253,61.71729725625,63.44776600625,43.0,91.0
254,63.12354725625,63.45948475625,67.0,88.0
255,61.95167225625,63.46925038125,50.0,82.0
256,63.35792225625,63.63721913125,55.0,79.0
257,63.82667225625,63.99854725625,53.0,77.0
258,64.06104725624999,64.27589100624999,58.0,70.0
259,64.29542225624999,64.52198475624999,53.0,75.0
260,64.52979725624999,64.83253163124999,58.0,81.0
261,64.52979725624999,64.87940663124999,62.0,90.0
262,63.59229725625,64.93018788124999,46.0,92.0
263,64.76417225624999,64.99073475624999,53.0,87.0
264,64.99854725624999,65.27979725624999,58.0,82.0
265,65.23292225624999,65.38526600624999,53.0,87.0
266,65.46729725624999,65.68214100624999,53.0,88.0
267,65.46729725624999,65.71729725624999,57.0,89.0
268,65.93604725624999,66.22120350624999,60.0,86.0
269,66.17042225624999,66.28175038124999,53.0,79.0
270,66.40479725624999,66.49073475624999,53.0,88.0
271,66.40479725624999,66.66651600624999,57.0,94.0
272,66.40479725624999,66.68800038124999,60.0,101.0
273,66.40479725624999,66.70557850624999,65.0,89.0
274,66.63917225624999,66.78760975624999,53.0,77.0
275,65.70167225624999,67.09034413124999,48.0,84.0
276,65.46729725624999,67.10792225624999,41.0,88.0
277,66.87354725624999,67.18409413124999,57.0,77.0
278,66.87354725624999,67.28565663124999,60.0,82.0
279,67.10792225624999,67.31300038124999,53.0,80.0
280,67.81104725624999,68.09229725624999,58.0,81.0
281,68.04542225624999,68.15479725624999,55.0,87.0
282,68.27979725624999,68.36768788124999,55.0,89.0
283,68.27979725624999,68.54932850624999,58.0,90.0
284,68.27979725624999,68.59815663124999,62.0,90.0
285,68.51417225624999,68.65089100624999,55.0,76.0
286,67.57667225624999,68.91456288124999,50.0,80.0
287,67.34229725624999,68.92628163124999,43.0,89.0
288,68.74854725624999,69.01221913124999,62.0,89.0
289,68.74854725624999,69.02784413124999,67.0,84.0
290,68.74854725624999,69.10596913124999,58.0,88.0
291,68.98292225624999,69.17237538124999,55.0,88.0
292,69.21729725624999,69.52784413124999,58.0,80.0
293,69.45167225624999,69.68018788124999,55.0,77.0
294,69.68604725624999,69.93409413124999,58.0,74.0
295,69.92042225624999,70.04932850624999,55.0,76.0
296,70.15479725624999,70.20753163124999,55.0,82.0
297,69.45167225624999,70.32081288124999,46.0,77.0
298,69.21729725624999,70.40089100624999,39.0,93.0
299,70.15479725624999,70.45362538124999,63.0,91.0
300,70.15479725624999,70.45557850624999,58.0,96.0
301,70.38917225624999,70.50440663124999,46.0,85.0
302,70.62354725624999,70.93800038124999,55.0,87.0
303,71.09229725624999,71.24854725624999,53.0,87.0
304,71.09229725624999,71.36378163124999,58.0,82.0
305,71.32667225624999,71.56104725624999,53.0,73.0
306,71.56104725624999,71.89112538124999,58.0,72.0
307,71.79542225624999,72.07276600624999,53.0,76.0
308,72.02979725624999,72.30518788124999,58.0,78.0
309,72.26417225624999,72.57667225624999,53.0,83.0
310,72.02979725624999,72.58448475624999,62.0,89.0
311,72.49854725624999,72.76807850624999,58.0,91.0
312,71.09229725624999,72.80714100624999,46.0,90.0
313,72.73292225624999,72.88917225624999,53.0,87.0
314,72.96729725624999,73.16260975624999,53.0,88.0
315,72.96729725624999,73.24854725624999,57.0,89.0
316,73.43604725624999,73.49073475624999,57.0,73.0
317,73.67042225624999,73.75440663124999,57.0,80.0
318,73.43604725624999,73.76807850624999,60.0,89.0
319,73.20167225624999,74.04932850624999,48.0,74.0
320,73.90479725624999,74.22706288124999,57.0,89.0
321,73.90479725624999,74.26221913124999,60.0,89.0
322,73.90479725624999,74.27003163124999,53.0,83.0
323,73.90479725624999,74.31690663124999,65.0,87.0
324,72.96729725624999,74.60792225624999,41.0,92.0
325,74.37354725624999,74.69581288124999,48.0,90.0
326,74.60792225624999,74.82276600624999,53.0,87.0
327,74.60792225624999,74.84620350624999,57.0,85.0
328,74.60792225624999,74.87745350624999,60.0,85.0
329,74.60792225624999,74.93995350624999,65.0,83.0
330,75.31104725624999,75.59034413124999,62.0,86.0
331,75.31104725624999,75.59815663124999,58.0,87.0
332,75.54542225624999,75.66651600624999,55.0,88.0
333,75.77979725624999,75.81690663124999,55.0,85.0
334,75.07667225624999,75.90675038124999,50.0,84.0
335,75.77979725624999,76.04932850624999,62.0,98.0
336,75.77979725624999,76.07862538124999,58.0,94.0
337,75.77979725624999,76.08643788124999,67.0,91.0
338,74.84229725624999,76.25440663124999,43.0,89.0
339,76.01417225624999,76.26026600624999,50.0,92.0
340,76.24854725624999,76.40675038124999,55.0,93.0
341,76.48292225624999,76.60206288124999,58.0,88.0
342,76.71729725624999,76.92628163124999,55.0,83.0
343,76.71729725624999,76.97901600624999,58.0,80.0
344,77.18604725624999,77.47510975624999,55.0,88.0
345,77.42042225624999,77.53565663124999,58.0,80.0
346,76.95167225624999,77.86768788124999,46.0,79.0
347,77.65479725624999,77.91065663124999,55.0,87.0
348,77.65479725624999,77.93800038124999,58.0,93.0
349,76.71729725624999,77.94385975624999,39.0,93.0
350,77.65479725624999,77.94776600624999,63.0,93.0
351,77.88917225624999,78.01807850624999,46.0,77.0
352,78.12354725624999,78.39307850624999,58.0,87.0
353,78.35792225624999,78.54737538124999,55.0,87.0
354,78.59229725624999,78.89307850624999,58.0,87.0
355,78.82667225624999,79.05909413124999,53.0,82.0
356,79.06104725624999,79.21339100624999,58.0,78.0
357,79.29542225624999,79.52003163124999,53.0,75.0
358,79.52979725624999,79.67237538124999,58.0,74.0
359,79.76417225624999,80.01612538124999,53.0,84.0
360,78.59229725624999,80.26612538124999,46.0,89.0
361,79.99854725624999,80.31495350624999,58.0,80.0
362,79.52979725624999,80.47901600624999,65.0,88.0
363,80.23292225624999,80.49073475624999,53.0,89.0
364,80.93604725624999,81.18604725624999,57.0,75.0
365,80.93604725624999,81.20753163124999,60.0,76.0
366,81.17042225624999,81.31300038124999,53.0,70.0
367,81.40479725624999,81.68604725624999,53.0,87.0
368,81.40479725624999,81.70167225624999,65.0,88.0
369,81.63917225624999,81.92042225624999,60.0,86.0
370,80.70167225624999,81.93995350624999,48.0,76.0
371,80.46729725624999,82.00635975624999,41.0,92.0
372,81.87354725624999,82.22901600624999,57.0,83.0
373,82.10792225624999,82.33253163124999,53.0,87.0
374,82.81104725624999,83.09034413124999,62.0,79.0
375,82.81104725624999,83.09229725624999,58.0,74.0
376,83.04542225624999,83.15479725624999,55.0,87.0
377,83.27979725624999,83.32667225624999,55.0,79.0
378,83.27979725624999,83.48096913124999,58.0,90.0
379,82.57667225624999,83.56690663124999,50.0,76.0
380,83.27979725624999,83.61378163124999,62.0,92.0
381,82.34229725624999,83.77979725624999,43.0,89.0
382,83.27979725624999,83.82862538124999,67.0,88.0
383,83.74854725624999,84.03175038124999,58.0,86.0
384,83.98292225624999,84.16651600624999,55.0,88.0
385,84.21729725624999,84.50050038124999,63.0,73.0
386,84.21729725624999,84.53370350624999,58.0,76.0
387,84.68604725624999,85.25245350624999,55.0,83.0
388,84.92042225624999,85.26612538124999,58.0,90.0
389,84.21729725624999,85.38331288124999,39.0,88.0
390,84.45167225624999,85.41260975624999,46.0,79.0
391,85.15479725624999,85.61964100624999,67.0,89.0
392,85.38917225624999,85.68409413124999,63.0,92.0
393,85.62354725624999,85.81690663124999,58.0,89.0
394,85.85792225624999,85.96339100624999,55.0,88.0
395,86.09229725624999,86.62745350624999,57.0,88.0
396,86.09229725624999,86.64503163124999,53.0,87.0
397,86.56104725624999,86.90479725624999,60.0,87.0
398,86.79542225624999,86.95167225624999,57.0,87.0
399,87.02979725624999,87.07081288124999,57.0,63.0
400,87.02979725624999,87.08839100624999,53.0,55.0
401,86.32667225624999,87.30714100624999,48.0,80.0
402,86.09229725624999,87.40284413124999,41.0,87.0
403,87.02979725624999,87.54346913124999,65.0,89.0
404,87.26417225624999,87.55714100624999,60.0,88.0
405,87.49854725624999,87.76417225624999,57.0,87.0
406,87.73292225624999,87.82862538124999,53.0,81.0
407,87.96729725624999,88.46339100624999,58.0,73.0
408,87.96729725624999,88.47510975624999,55.0,83.0
409,88.43604725624999,88.75050038124999,62.0,83.0
410,88.67042225624999,88.81104725624999,55.0,78.0
411,88.90479725624999,89.16260975624999,62.0,90.0
412,88.90479725624999,89.22706288124999,67.0,89.0
413,88.90479725624999,89.26807850624999,55.0,89.0
414,88.20167225624999,89.66846913124999,50.0,81.0
415,89.37354725624999,89.66846913124999,58.0,83.0
416,87.96729725624999,89.68800038124999,43.0,87.0
417,89.37354725624999,89.69385975624999,62.0,86.0
418,89.60792225624999,89.74464100624999,55.0,82.0
419,89.84229725624999,90.15870350624999,43.0,89.0
420,89.84229725624999,90.16456288124999,58.0,82.0
421,89.84229725624999,90.17628163124999,62.0,88.0
422,89.84229725624999,90.17823475624999,67.0,87.0
423,89.84229725624999,90.18409413124999,55.0,86.0
424,90.31104725624999,90.96339100624999,58.0,83.0
425,90.31104725624999,90.98292225624999,62.0,87.0
426,90.31104725624999,90.98487538124999,55.0,87.0
427,90.31104725624999,91.01221913124999,67.0,83.0
428,90.31104725624999,91.04542225624999,43.0,87.0
429,91.71729725624999,92.24854725624999,58.0,79.0
430,91.71729725624999,92.26807850624999,62.0,85.0
431,91.71729725624999,92.29151600624999,55.0,83.0
432,92.18604725624999,92.73682850624999,50.0,75.0
433,92.65479725624999,92.92237538124999,55.0,87.0
434,92.65479725624999,92.94190663124999,58.0,89.0
435,92.65479725624999,93.16651600624999,62.0,87.0
436,92.88917225624999,93.19385975624999,50.0,83.0
437,91.71729725624999,93.22510975624999,43.0,88.0
438,93.12354725624999,93.24464100624999,55.0,88.0
439,93.35792225624999,93.52393788124999,57.0,88.0
440,93.59229725624999,93.90479725624999,53.0,76.0
441,93.59229725624999,93.95753163124999,58.0,64.0
442,94.06104725624999,94.35401600624999,53.0,69.0
443,94.52979725624999,94.77784413124999,53.0,82.0
444,94.52979725624999,94.87940663124999,58.0,86.0
445,93.59229725624999,95.20167225624999,46.0,83.0
446,94.52979725624999,95.35792225624999,62.0,88.0
447,95.46729725624999,95.91065663124999,53.0,76.0
448,95.46729725624999,95.93409413124999,57.0,73.0
449,95.46729725624999,95.97315663124999,60.0,79.0
450,96.40479725624999,96.43995350624999,53.0,62.0
451,95.93604725624999,96.72706288124999,48.0,69.0
452,95.46729725624999,96.86573475624999,41.0,79.0
453,96.40479725624999,96.87354725624999,60.0,87.0
454,96.40479725624999,96.87745350624999,57.0,84.0
455,96.40479725624999,96.97315663124999,65.0,85.0
456,96.87354725624999,96.98487538124999,53.0,87.0
457,97.34229725624999,97.58253163124999,55.0,76.0
458,97.34229725624999,97.92237538124999,60.0,82.0
459,97.81104725624999,97.97901600624999,55.0,81.0
460,98.27979725624999,98.55323475624999,60.0,88.0
461,98.27979725624999,98.57276600624999,55.0,87.0
462,98.27979725624999,98.75831288124999,64.0,90.0
463,97.34229725624999,98.84425038124999,48.0,86.0
464,98.74854725624999,98.85987538124999,60.0,80.0
465,99.21729725624999,99.67237538124999,55.0,82.0
466,99.21729725624999,99.76026600624999,58.0,81.0
467,99.68604725624999,100.25050038124999,50.0,71.0
468,100.15479725624999,100.35987538124999,58.0,85.0
469,100.15479725624999,100.37940663124999,55.0,81.0
470,100.15479725624999,100.40284413124999,62.0,87.0
471,99.21729725624999,100.88526600624999,43.0,86.0
472,100.62354725624999,100.90675038124999,55.0,87.0
473,100.38917225624999,100.94385975624999,50.0,82.0
474,100.85792225624999,101.15089100624999,57.0,88.0
475,101.09229725624999,101.56104725624999,58.0,83.0
476,101.56104725624999,102.00440663124999,53.0,80.0
477,101.09229725624999,102.51221913124999,46.0,88.0
478,102.02979725624999,102.52979725624999,58.0,79.0
479,102.02979725624999,102.71339100624999,62.0,85.0
480,102.49854725624999,102.73682850624999,53.0,85.0
481,102.96729725624999,103.80128163124999,57.0,79.0
482,103.43604725624999,103.83643788124999,48.0,74.0
483,102.96729725624999,104.18214100624999,53.0,79.0
484,103.67042225624999,104.29151600624999,60.0,81.0
485,104.13917225624999,104.53370350624999,65.0,87.0
486,103.90479725624999,104.58057850624999,48.0,78.0
487,102.96729725624999,104.63917225624999,41.0,82.0
488,104.37354725624999,104.65675038124999,53.0,82.0
489,104.84229725624999,105.52003163124999,57.0,76.0
490,104.84229725624999,105.57667225624999,60.0,78.0
491,104.84229725624999,105.62745350624999,53.0,77.0
492,105.77979725624999,105.83448475624999,53.0,76.0
493,104.84229725624999,106.29737538124999,41.0,84.0
494,106.24854725624999,106.60010975624999,53.0,78.0
495,105.77979725624999,106.65479725624999,57.0,88.0
496,105.77979725624999,106.65870350624999,60.0,87.0
497,105.77979725624999,106.68800038124999,65.0,85.0
498,106.71729725624999,107.25061050625,58.0,79.0
499,106.71729725624999,107.27026456875,62.0,85.0
500,106.71729725624999,107.29384944374999,55.0,83.0
501,107.18771750625,107.74196206875,50.0,75.0
502,107.65941500624999,107.9286756625,55.0,87.0
503,107.65941500624999,107.948329725,58.0,89.0
504,107.65941500624999,108.17435144375,62.0,87.0
505,107.89526375624999,108.20186713125,50.0,83.0
506,106.71729725624999,108.23331363125,43.0,88.0
507,108.13111250624999,108.25296769375,55.0,88.0
508,108.36696125625,108.5340207875,57.0,88.0
509,108.60281000625,108.91727500625,53.0,76.0
510,108.60281000625,108.970340975,58.0,64.0
511,109.07450750624999,109.36931844374999,53.0,69.0
512,109.54620500624999,109.7958116,53.0,82.0
513,109.54620500624999,109.89801272499999,58.0,86.0
514,108.60281000625,110.22230475625,46.0,83.0
515,109.54620500624999,110.37953725624999,62.0,88.0
516,110.48960000624999,110.93574722499999,53.0,76.0
517,110.48960000624999,110.9593321,57.0,73.0
518,110.48960000624999,110.99864022499999,60.0,79.0
519,111.43299500625,111.46837231875,53.0,62.0
520,110.96129750624999,111.75728703749999,48.0,69.0
521,110.48960000624999,111.89683088125,41.0,79.0
522,111.43299500625,111.90469250624999,60.0,87.0
523,111.43299500625,111.90862331874999,57.0,84.0
524,111.43299500625,112.00492822499999,65.0,85.0
525,111.90469250624999,112.01672066249999,53.0,87.0
526,112.37639000624999,112.61813497499999,55.0,76.0
527,112.37639000624999,112.96011566249999,60.0,82.0
528,112.84808750625,113.01711244375,55.0,81.0
529,113.31978500624999,113.59494188125,60.0,88.0
530,113.31978500624999,113.61459594374999,55.0,87.0
531,113.31978500624999,113.80130953749999,64.0,90.0
532,112.37639000624999,113.88778741249999,48.0,86.0
533,113.79148250624999,113.9035106625,60.0,80.0
534,114.26318000625,114.72111966249999,55.0,82.0
535,114.26318000625,114.80956294375,58.0,81.0
536,114.73487750624999,115.30287991249999,50.0,71.0
537,115.20657500624999,115.4129426625,58.0,85.0
538,115.20657500624999,115.432596725,55.0,81.0
539,115.20657500624999,115.4561816,62.0,87.0
540,114.26318000625,115.94163694375,43.0,86.0
541,115.67827250625,115.96325641249999,55.0,87.0
542,115.44242375625,116.00059913125,50.0,82.0
543,115.91412125625,116.20893219374999,57.0,88.0
544,116.14997000624999,116.62166750624999,58.0,83.0
545,116.62166750624999,117.06781472499999,53.0,80.0
546,116.14997000624999,117.57882035,46.0,88.0
547,117.09336500625,117.59650900624999,58.0,79.0
548,117.09336500625,117.78125719375,62.0,85.0
549,117.56506250624999,117.80484206874999,53.0,85.0
550,118.03676000624999,118.87173916249999,57.0,79.0
551,118.50650478749999,118.90689541249999,48.0,74.0
552,118.03676000624999,119.25259853749999,53.0,79.0
553,118.74087978749999,119.36197353749999,60.0,81.0
554,119.20962978749999,119.60416103749999,65.0,87.0
555,118.97525478749999,119.65103603749999,48.0,78.0
556,118.03676000624999,119.70962978749999,41.0,82.0
557,119.44400478749999,119.72720791249999,53.0,82.0
558,119.91275478749999,120.59048916249999,57.0,76.0
559,119.91275478749999,120.64712978749999,60.0,78.0
560,119.91275478749999,120.69791103749999,53.0,77.0
561,120.85025478749999,120.90494228749999,53.0,76.0
562,119.91275478749999,121.36783291249999,41.0,84.0
563,121.31900478749999,121.67056728749999,53.0,78.0
564,120.85025478749999,121.72525478749999,57.0,88.0
565,120.85025478749999,121.72916103749999,60.0,87.0
566,120.85025478749999,121.75845791249999,65.0,85.0
567,121.78775478749999,122.10416103749999,60.0,87.0
568,121.78775478749999,122.11392666249999,55.0,86.0
569,121.78775478749999,122.43228603749999,48.0,104.0
570,122.25650478749999,122.46548916249999,55.0,74.0
571,122.25650478749999,122.46939541249999,60.0,80.0
572,122.72525478749999,122.97525478749999,60.0,88.0
573,122.72525478749999,122.97720791249999,64.0,90.0
574,122.72525478749999,122.99087978749999,55.0,88.0
575,123.19400478749999,123.41470791249999,60.0,77.0
576,122.72525478749999,123.42642666249999,48.0,101.0
577,123.19400478749999,123.43228603749999,55.0,75.0
578,123.19400478749999,123.44400478749999,64.0,84.0
579,123.66275478749999,123.95181728749999,55.0,85.0
580,123.66275478749999,124.24673916249999,60.0,85.0
581,123.66275478749999,124.40298916249999,48.0,96.0
582,124.13150478749999,124.44009853749999,55.0,85.0
583,124.60025478749999,124.76236416249999,48.0,92.0
584,124.60025478749999,124.80337978749999,55.0,91.0
585,124.60025478749999,124.82486416249999,60.0,89.0
586,125.06900478749999,125.25845791249999,55.0,88.0
587,125.06900478749999,125.42056728749999,60.0,89.0
588,125.53775478749999,125.61197353749999,38.0,91.0
589,125.53775478749999,125.85806728749999,62.0,87.0
590,125.53775478749999,125.86002041249999,57.0,83.0
591,126.00650478749999,126.12564541249999,57.0,78.0
592,126.00650478749999,126.14127041249999,62.0,82.0
593,126.00650478749999,126.17642666249999,50.0,88.0
594,126.47525478749999,126.64712978749999,50.0,89.0
595,126.47525478749999,126.65689541249999,57.0,83.0
596,126.47525478749999,126.68619228749999,62.0,79.0
597,126.47525478749999,126.72134853749999,66.0,79.0
598,126.94400478749999,127.13541103749999,50.0,88.0
599,126.94400478749999,127.13736416249999,57.0,87.0
600,126.94400478749999,127.19595791249999,62.0,87.0
601,126.94400478749999,127.22916103749999,66.0,87.0
602,127.41275478749999,127.77994228749999,50.0,92.0
603,127.41275478749999,127.80923916249999,57.0,89.0
604,127.88150478749999,128.01236416249998,50.0,88.0
605,127.41275478749999,128.15494228749998,62.0,87.0
606,127.41275478749999,128.15494228749998,66.0,87.0
607,127.41275478749999,128.17837978749998,69.0,87.0
608,128.81900478749998,129.21158291249998,66.0,93.0
609,129.05337978749998,129.21158291249998,74.0,88.0
610,128.58462978749998,129.21939541249998,62.0,91.0
611,128.35025478749998,129.23111416249998,57.0,96.0
612,128.11587978749998,129.25845791249998,50.0,88.0
613,129.75650478749998,130.03970791249998,58.0,81.0
614,129.99087978749998,130.12173916249998,55.0,87.0
615,130.22525478749998,130.32877041249998,55.0,87.0
616,130.22525478749998,130.49673916249998,58.0,89.0
617,130.22525478749998,130.54752041249998,62.0,90.0
618,130.45962978749998,130.55728603749998,55.0,75.0
619,129.28775478749998,131.01822353749998,43.0,91.0
620,130.69400478749998,131.02994228749998,67.0,88.0
621,129.52212978749998,131.03970791249998,50.0,82.0
622,130.92837978749998,131.20767666249998,55.0,79.0
623,131.39712978749998,131.56900478749998,53.0,77.0
624,131.63150478749998,131.84634853749998,58.0,70.0
625,131.86587978749998,132.09244228749998,53.0,75.0
626,132.10025478749998,132.40298916249998,58.0,81.0
627,132.10025478749998,132.44986416249998,62.0,90.0
628,131.16275478749998,132.50064541249998,46.0,92.0
629,132.33462978749998,132.56119228749998,53.0,87.0
630,132.56900478749998,132.85025478749998,58.0,82.0
631,132.80337978749998,132.95572353749998,53.0,87.0
632,133.03775478749998,133.25259853749998,53.0,88.0
633,133.03775478749998,133.28775478749998,57.0,89.0
634,133.50650478749998,133.79166103749998,60.0,86.0
635,133.74087978749998,133.85220791249998,53.0,79.0
636,133.97525478749998,134.06119228749998,53.0,88.0
637,133.97525478749998,134.23697353749998,57.0,94.0
638,133.97525478749998,134.25845791249998,60.0,101.0
639,133.97525478749998,134.27603603749998,65.0,89.0
640,134.20962978749998,134.35806728749998,53.0,77.0
641,133.27212978749998,134.66080166249998,48.0,84.0
642,133.03775478749998,134.67837978749998,41.0,88.0
643,134.44400478749998,134.75455166249998,57.0,77.0
644,134.44400478749998,134.85611416249998,60.0,82.0
645,134.67837978749998,134.88345791249998,53.0,80.0
646,135.38150478749998,135.66275478749998,58.0,81.0
647,135.61587978749998,135.72525478749998,55.0,87.0
648,135.85025478749998,135.93814541249998,55.0,89.0
649,135.85025478749998,136.11978603749998,58.0,90.0
650,135.85025478749998,136.16861416249998,62.0,90.0
651,136.08462978749998,136.22134853749998,55.0,76.0
652,135.14712978749998,136.48502041249998,50.0,80.0
653,134.91275478749998,136.49673916249998,43.0,89.0
654,136.31900478749998,136.58267666249998,62.0,89.0
655,136.31900478749998,136.59830166249998,67.0,84.0
656,136.31900478749998,136.67642666249998,58.0,88.0
657,136.55337978749998,136.74283291249998,55.0,88.0
658,136.78775478749998,137.09830166249998,58.0,80.0
659,137.02212978749998,137.25064541249998,55.0,77.0
660,137.25650478749998,137.50455166249998,58.0,74.0
661,137.49087978749998,137.61978603749998,55.0,76.0
662,137.72525478749998,137.77798916249998,55.0,82.0
663,137.02212978749998,137.89127041249998,46.0,77.0
664,136.78775478749998,137.97134853749998,39.0,93.0
665,137.72525478749998,138.02408291249998,63.0,91.0
666,137.72525478749998,138.02603603749998,58.0,96.0
667,137.95962978749998,138.07486416249998,46.0,85.0
668,138.19400478749998,138.50845791249998,55.0,87.0
669,138.66275478749998,138.81900478749998,53.0,87.0
670,138.66275478749998,138.93423916249998,58.0,82.0
671,138.89712978749998,139.13150478749998,53.0,73.0
672,139.13150478749998,139.46158291249998,58.0,72.0
673,139.36587978749998,139.64322353749998,53.0,76.0
674,139.60025478749998,139.87564541249998,58.0,78.0
675,139.83462978749998,140.14712978749998,53.0,83.0
676,139.60025478749998,140.15494228749998,62.0,89.0
677,140.06900478749998,140.33853603749998,58.0,91.0
678,138.66275478749998,140.37759853749998,46.0,90.0
679,140.30337978749998,140.45962978749998,53.0,87.0
680,140.53775478749998,140.73306728749998,53.0,88.0
681,140.53775478749998,140.81900478749998,57.0,89.0
682,141.00650478749998,141.06119228749998,57.0,73.0
683,141.24087978749998,141.32486416249998,57.0,80.0
684,141.00650478749998,141.33853603749998,60.0,89.0
685,140.77212978749998,141.61978603749998,48.0,74.0
686,141.47525478749998,141.79752041249998,57.0,89.0
687,141.47525478749998,141.83267666249998,60.0,89.0
688,141.47525478749998,141.84048916249998,53.0,83.0
689,141.47525478749998,141.88736416249998,65.0,87.0
690,140.53775478749998,142.17837978749998,41.0,92.0
691,141.94400478749998,142.26627041249998,48.0,90.0
692,142.17837978749998,142.39322353749998,53.0,87.0
693,142.17837978749998,142.41666103749998,57.0,85.0
694,142.17837978749998,142.44791103749998,60.0,85.0
695,142.17837978749998,142.51041103749998,65.0,83.0
696,142.88150478749998,143.16080166249998,62.0,86.0
697,142.88150478749998,143.16861416249998,58.0,87.0
698,143.11587978749998,143.23697353749998,55.0,88.0
699,143.35025478749998,143.38736416249998,55.0,85.0
700,142.64712978749998,143.47720791249998,50.0,84.0
701,143.35025478749998,143.61978603749998,62.0,98.0
702,143.35025478749998,143.64908291249998,58.0,94.0
703,143.35025478749998,143.65689541249998,67.0,91.0
704,142.41275478749998,143.82486416249998,43.0,89.0
705,143.58462978749998,143.83072353749998,50.0,92.0
706,143.81900478749998,143.97720791249998,55.0,93.0
707,144.05337978749998,144.17252041249998,58.0,88.0
708,144.28775478749998,144.49673916249998,55.0,83.0
709,144.28775478749998,144.54947353749998,58.0,80.0
710,144.75650478749998,145.04556728749998,55.0,88.0
711,144.99087978749998,145.10611416249998,58.0,80.0
712,144.52212978749998,145.43814541249998,46.0,79.0
713,145.22525478749998,145.48111416249998,55.0,87.0
714,145.22525478749998,145.50845791249998,58.0,93.0
715,144.28775478749998,145.51431728749998,39.0,93.0
716,145.22525478749998,145.51822353749998,63.0,93.0
717,145.45962978749998,145.58853603749998,46.0,77.0
718,145.69400478749998,145.96353603749998,58.0,87.0
719,145.92837978749998,146.11783291249998,55.0,87.0
720,146.16275478749998,146.46353603749998,58.0,87.0
721,146.39712978749998,146.62955166249998,53.0,82.0
722,146.63150478749998,146.78384853749998,58.0,78.0
723,146.86587978749998,147.09048916249998,53.0,75.0
724,147.10025478749998,147.24283291249998,58.0,74.0
725,147.33462978749998,147.58658291249998,53.0,84.0
726,146.16275478749998,147.83658291249998,46.0,89.0
727,147.56900478749998,147.88541103749998,58.0,80.0
728,147.10025478749998,148.04947353749998,65.0,88.0
729,147.80337978749998,148.06119228749998,53.0,89.0
730,148.50650478749998,148.75650478749998,57.0,75.0
731,148.50650478749998,148.77798916249998,60.0,76.0
732,148.74087978749998,148.88345791249998,53.0,70.0
733,148.97525478749998,149.25650478749998,53.0,87.0
734,148.97525478749998,149.27212978749998,65.0,88.0
735,149.20962978749998,149.49087978749998,60.0,86.0
736,148.27212978749998,149.51041103749998,48.0,76.0
737,148.03775478749998,149.57681728749998,41.0,92.0
738,149.44400478749998,149.79947353749998,57.0,83.0
739,149.67837978749998,149.90298916249998,53.0,87.0
740,150.38150478749998,150.66080166249998,62.0,79.0
741,150.38150478749998,150.66275478749998,58.0,74.0
742,150.61587978749998,150.72525478749998,55.0,87.0
743,150.85025478749998,150.89712978749998,55.0,79.0
744,150.85025478749998,151.05142666249998,58.0,90.0
745,150.14712978749998,151.13736416249998,50.0,76.0
746,150.85025478749998,151.18423916249998,62.0,92.0
747,149.91275478749998,151.35025478749998,43.0,89.0
748,150.85025478749998,151.39908291249998,67.0,88.0
749,151.31900478749998,151.60220791249998,58.0,86.0
750,151.55337978749998,151.73697353749998,55.0,88.0
751,151.78775478749998,152.07095791249998,63.0,73.0
752,151.78775478749998,152.10416103749998,58.0,76.0
753,152.25650478749998,152.82291103749998,55.0,83.0
754,152.49087978749998,152.83658291249998,58.0,90.0
755,151.78775478749998,152.95377041249998,39.0,88.0
756,152.02212978749998,152.98306728749998,46.0,79.0
757,152.72525478749998,153.19009853749998,67.0,89.0
758,152.95962978749998,153.25455166249998,63.0,92.0
759,153.19400478749998,153.38736416249998,58.0,89.0
760,153.42837978749998,153.53384853749998,55.0,88.0
761,153.66275478749998,154.19791103749998,57.0,88.0
762,153.66275478749998,154.21548916249998,53.0,87.0
763,154.13150478749998,154.47525478749998,60.0,87.0
764,154.36587978749998,154.52212978749998,57.0,87.0
765,154.60025478749998,154.64127041249998,57.0,63.0
766,154.60025478749998,154.65884853749998,53.0,55.0
767,153.89712978749998,154.87759853749998,48.0,80.0
768,153.66275478749998,154.97330166249998,41.0,87.0
769,154.60025478749998,155.11392666249998,65.0,89.0
770,154.83462978749998,155.12759853749998,60.0,88.0
771,155.06900478749998,155.33462978749998,57.0,87.0
772,155.30337978749998,155.39908291249998,53.0,81.0
773,155.53775478749998,156.03384853749998,58.0,73.0
774,155.53775478749998,156.04556728749998,55.0,83.0
775,156.00650478749998,156.32095791249998,62.0,83.0
776,156.24087978749998,156.38150478749998,55.0,78.0
777,156.47525478749998,156.73306728749998,62.0,90.0
778,156.47525478749998,156.79752041249998,67.0,89.0
779,156.47525478749998,156.83853603749998,55.0,89.0
780,155.77212978749998,157.23892666249998,50.0,81.0
781,156.94400478749998,157.23892666249998,58.0,83.0
782,155.53775478749998,157.25845791249998,43.0,87.0
783,156.94400478749998,157.26431728749998,62.0,86.0
784,157.17837978749998,157.31509853749998,55.0,82.0
785,157.41275478749998,157.71353603749998,55.0,86.0
786,157.41275478749998,157.87369228749998,58.0,81.0
787,157.41275478749998,157.98697353749998,62.0,88.0
788,158.11587978749998,158.19595791249998,62.0,65.0
789,158.11587978749998,158.22330166249998,58.0,94.0
790,157.88150478749998,158.22916103749998,55.0,84.0
791,157.64712978749998,158.43814541249998,50.0,77.0
792,158.35025478749998,158.66470791249998,55.0,87.0
793,158.35025478749998,158.69595791249998,67.0,89.0
794,158.35025478749998,158.70181728749998,62.0,103.0
795,158.35025478749998,158.72720791249998,58.0,103.0
796,157.41275478749998,158.86002041249998,43.0,90.0
797,158.58462978749998,158.95572353749998,50.0,89.0
798,158.81900478749998,159.01236416249998,55.0,89.0
799,159.28775478749998,159.53800041249997,55.0,89.0
800,159.28775478749998,159.5773085375,60.0,88.0
801,159.7581259125,159.96842438124997,64.0,82.0
802,159.7581259125,159.97628600624998,60.0,75.0
803,159.7581259125,159.99397466249997,55.0,73.0
804,159.28775478749998,160.06669469374998,48.0,96.0
805,160.22982341249997,160.39884834999998,55.0,87.0
806,160.22982341249997,160.50694569374997,60.0,87.0
807,160.22982341249997,160.52856516249997,64.0,89.0
808,160.46567216249997,160.61307763124998,55.0,88.0
809,160.70152091249997,160.81158366249997,64.0,83.0
810,160.70152091249997,160.95898913124998,60.0,77.0
811,160.22982341249997,161.01598591249999,48.0,108.0
812,160.93736966249998,161.08477513124998,55.0,77.0
813,161.17321841249998,161.26952331874998,55.0,83.0
814,161.17321841249998,161.43461744374997,60.0,86.0
815,161.17321841249998,161.43461744374997,64.0,89.0
816,161.40906716249998,161.62919266249997,55.0,81.0
817,161.64491591249998,161.91221116249997,60.0,81.0
818,161.88076466249998,161.99082741249998,55.0,88.0
819,161.17321841249998,162.02227391249997,48.0,92.0
820,162.1166134125,162.21095291249998,55.0,84.0
821,162.1166134125,162.27384591249998,48.0,89.0
822,162.1166134125,162.37997785,60.0,87.0
823,162.1166134125,162.39766650624998,64.0,89.0
824,162.3524621625,162.48807519374998,55.0,86.0
825,162.5883109125,162.7534050375,60.0,80.0
826,162.82415966249997,162.96566891249998,55.0,82.0
827,163.06000841249997,163.13272844374998,55.0,77.0
828,163.06000841249997,163.29186494374997,62.0,81.0
829,163.06000841249997,163.30748994374997,58.0,79.0
830,163.29577119374997,163.45983369374997,55.0,68.0
831,163.53014619374997,163.74498994374997,58.0,60.0
832,163.53014619374997,163.77819306874997,62.0,80.0
833,163.76452119374997,163.90123994374997,55.0,78.0
834,163.99889619374997,164.25084931874997,62.0,91.0
835,163.99889619374997,164.26256806874997,58.0,90.0
836,163.99889619374997,164.26647431874997,67.0,88.0
837,164.23327119374997,164.37194306874997,55.0,83.0
838,164.46764619374997,164.76452119374997,58.0,81.0
839,163.06000841249997,164.82702119374997,43.0,89.0
840,164.70202119374997,164.99303681874997,55.0,82.0
841,164.93639619374997,165.22155244374997,58.0,80.0
842,164.93639619374997,165.22155244374997,62.0,83.0
843,165.17077119374997,165.36998994374997,55.0,81.0
844,165.40514619374997,165.55748994374997,58.0,76.0
845,165.40514619374997,165.55748994374997,62.0,79.0
846,165.63952119374997,165.91686494374997,55.0,87.0
847,165.17077119374997,166.05748994374997,50.0,77.0
848,165.87389619374997,166.14342744374997,58.0,87.0
849,165.87389619374997,166.15905244374997,62.0,89.0
850,165.87389619374997,166.17077119374997,67.0,87.0
851,166.10827119374997,166.24108369374997,55.0,83.0
852,166.34264619374997,166.52623994374997,58.0,80.0
853,164.93639619374997,166.61998994374997,43.0,87.0
854,166.34264619374997,166.61998994374997,62.0,82.0
855,166.57702119374997,166.73131806874997,55.0,82.0
856,166.79967744374997,167.06725556874997,58.0,87.0
857,166.81139619374997,167.08483369374997,63.0,82.0
858,167.02038056874997,167.16100556874997,55.0,87.0
859,167.26061494374997,167.49694306874997,58.0,80.0
860,167.47545869374997,167.64733369374997,55.0,77.0
861,167.70788056874997,168.03405244374997,58.0,91.0
862,167.71569306874997,168.10241181874997,63.0,96.0
863,167.95202119374997,168.22545869374997,55.0,82.0
864,166.80163056874997,168.31920869374997,39.0,86.0
865,168.18834931874997,168.46178681874997,58.0,84.0
866,168.43053681874997,168.62389619374997,55.0,81.0
867,168.67663056874997,168.98131806874997,58.0,78.0
868,168.68834931874997,168.98717744374997,62.0,85.0
869,168.91881806874997,169.15905244374997,53.0,78.0
870,169.13170869374997,169.39538056874997,58.0,75.0
871,169.35827119374997,169.51061494374997,53.0,76.0
872,168.67467744374997,169.78600556874997,46.0,90.0
873,169.58873994374997,169.90319306874997,58.0,90.0
874,169.59459931874997,169.93444306874997,62.0,89.0
875,169.85045869374997,169.99108369374997,53.0,80.0
876,170.08092744374997,170.31139619374997,58.0,87.0
877,170.11217744374997,170.36413056874997,62.0,75.0
878,170.30944306874997,170.45202119374997,53.0,83.0
879,170.55163056874997,170.74694306874997,53.0,84.0
880,170.54577119374997,170.87389619374997,57.0,82.0
881,171.01842744374997,171.11608369374997,57.0,81.0
882,171.02623994374997,171.33873994374997,60.0,85.0
883,171.26061494374997,171.40709931874997,53.0,82.0
884,171.50280244374997,171.57116181874997,53.0,82.0
885,170.78795869374997,171.64147431874997,48.0,87.0
886,171.49303681874997,171.78014619374997,57.0,91.0
887,171.50084931874997,171.80358369374997,60.0,92.0
888,171.72936494374997,171.82506806874997,53.0,77.0
889,171.49889619374997,171.90905244374997,65.0,87.0
890,170.55358369374997,172.01256806874997,41.0,89.0
891,171.95006806874997,172.04381806874997,48.0,90.0
892,172.25670869374997,172.33678681874997,57.0,61.0
893,172.43053681874997,172.71569306874997,62.0,89.0
894,172.43248994374997,172.72545869374997,66.0,89.0
895,172.65709931874997,172.81920869374997,57.0,79.0
896,172.92077119374997,173.20202119374997,62.0,80.0
897,173.14928681874997,173.25866181874997,57.0,79.0
898,173.36413056874997,173.47741181874997,57.0,80.0
899,173.36217744374997,173.64928681874997,62.0,91.0
900,173.36608369374997,173.65514619374997,66.0,90.0
901,173.60045869374997,173.69811494374997,57.0,76.0
902,173.82116181874997,173.94616181874997,62.0,89.0
903,173.82506806874997,173.95592744374997,66.0,90.0
904,174.06530244374997,174.10827119374997,62.0,73.0
905,172.43834931874997,174.18639619374997,38.0,90.0
906,174.05553681874997,174.19616181874997,57.0,88.0
907,174.31334931874997,175.97741181874997,38.0,94.0
908,174.30748994374997,175.98131806874997,57.0,88.0
909,174.30944306874997,176.00866181874997,62.0,89.0
910,174.31139619374997,176.00866181874997,66.0,89.0
911,176.65671819374998,176.94170209999996,58.0,81.0
912,176.89256694374998,177.02424916249998,55.0,87.0
913,177.12841569374996,177.23258222499996,55.0,87.0
914,177.12841569374996,177.40160716249997,58.0,89.0
915,177.12841569374996,177.45270772499998,62.0,90.0
916,177.36426444374996,177.46253475624997,55.0,75.0
917,176.18639619374997,177.92637063124997,43.0,91.0
918,177.60011319374996,177.93816306874996,67.0,88.0
919,176.42086944374998,177.94799009999997,50.0,82.0
920,177.83596194374996,178.11701503749998,55.0,79.0
921,178.30765944374997,178.48061519374997,53.0,77.0
922,178.54350819374997,178.75970288124998,58.0,70.0
923,178.77935694374997,179.00734406874997,53.0,75.0
924,179.01520569374998,179.31984366249998,58.0,81.0
925,179.01520569374998,179.36701341249997,62.0,90.0
926,178.07181069374997,179.41811397499998,46.0,92.0
927,179.25105444374998,179.47904156874998,53.0,87.0
928,179.48690319374998,179.76992169374998,58.0,82.0
929,179.72275194374998,179.87605363124996,53.0,87.0
930,179.95860069374996,180.17479538124996,53.0,88.0
931,179.95860069374996,180.21017269374997,57.0,89.0
932,180.43029819374996,180.71724750624998,60.0,86.0
933,180.66614694374996,180.77817509999997,53.0,79.0
934,180.90199569374997,180.98847356874998,53.0,88.0
935,180.90199569374997,181.16536013124997,57.0,94.0
936,180.90199569374997,181.18697959999997,60.0,101.0
937,180.90199569374997,181.20466825624996,65.0,89.0
938,181.13784444374997,181.28721531874996,53.0,77.0
939,180.19444944374996,181.59185328749996,48.0,84.0
940,179.95860069374996,181.60954194374997,41.0,88.0
941,181.37369319374997,181.68619278749998,57.0,77.0
942,181.37369319374997,181.78839391249997,60.0,82.0
943,181.60954194374997,181.81590959999997,53.0,80.0
944,182.31708819374998,182.60010669374998,58.0,81.0
945,182.55293694374998,182.66299969374998,55.0,87.0
946,182.78878569374996,182.87722897499998,55.0,89.0
947,182.78878569374996,183.06001175624996,58.0,90.0
948,182.78878569374996,183.10914691249997,62.0,90.0
949,183.02463444374996,183.16221288124996,55.0,76.0
950,182.08123944374998,183.42754272499997,50.0,80.0
951,181.84539069374998,183.43933516249996,43.0,89.0
952,183.26048319374996,183.52581303749997,62.0,89.0
953,183.26048319374996,183.54153628749998,67.0,84.0
954,183.26048319374996,183.62015253749996,58.0,88.0
955,183.49633194374996,183.68697634999998,55.0,88.0
956,183.73218069374997,184.04468028749997,58.0,80.0
957,183.96802944374997,184.19798197499998,55.0,77.0
958,184.20387819374997,184.45348478749997,58.0,74.0
959,184.43972694374997,184.56944375624997,55.0,76.0
960,184.67557569374998,184.72864166249997,55.0,82.0
961,183.96802944374997,184.84263522499998,46.0,77.0
962,183.73218069374997,184.92321688124997,39.0,93.0
963,184.67557569374998,184.97628284999996,63.0,91.0
964,184.67557569374998,184.97824825624997,58.0,96.0
965,184.91142444374998,185.02738341249997,46.0,85.0
966,185.14727319374998,185.46370359999997,55.0,87.0
967,185.61897069375,185.77620319374998,53.0,87.0
968,185.61897069375,185.89187612291664,58.0,82.0
969,185.85470871874998,186.08945021875,53.0,73.0
970,186.08945021875,186.42004449791665,58.0,72.0
971,186.32419171874997,186.60196916041664,53.0,76.0
972,186.55893321874998,186.83475448124997,58.0,78.0
973,186.79367471874997,187.10666338541665,53.0,83.0
974,186.55893321874998,187.1144881020833,62.0,89.0
975,187.02841621874998,187.29836894374998,58.0,91.0
976,185.61897069375,187.3374925270833,46.0,90.0
977,187.26315771874997,187.4196520520833,53.0,87.0
978,187.49789921874998,187.69351713541664,53.0,88.0
979,187.49789921874998,187.77958901875,57.0,89.0
980,187.96738221874998,188.02215523541665,57.0,73.0
981,188.20212371875,188.28623942291665,57.0,80.0
982,187.96738221874998,188.29993267708332,60.0,89.0
983,187.73264071875,188.5816224770833,48.0,74.0
984,188.43686521874997,188.75963478124999,57.0,89.0
985,188.43686521874997,188.79484600624997,60.0,89.0
986,188.43686521874997,188.80267072291664,53.0,83.0
987,188.43686521874997,188.84961902291664,65.0,87.0
988,187.49789921874998,189.14108971874998,41.0,92.0
989,188.90634821874997,189.22911778124998,48.0,90.0
990,189.14108971874998,189.3562694270833,53.0,87.0
991,189.14108971874998,189.3797435770833,57.0,85.0
992,189.14108971874998,189.41104244374998,60.0,85.0
993,189.14108971874998,189.4736401770833,65.0,83.0
994,189.84531421875,190.12504783958332,62.0,86.0
995,189.84531421875,190.13287255624996,58.0,87.0
996,190.08005571874997,190.2013388270833,55.0,88.0
997,190.31479721875,190.35196462291665,55.0,85.0
998,189.61057271874998,190.4419488645833,50.0,84.0
999,190.31479721875,190.58474994374998,62.0,98.0
1000,190.31479721875,190.61409263124997,58.0,94.0
1001,190.31479721875,190.62191734791665,67.0,91.0
1002,189.37583121874997,190.79014875624998,43.0,89.0
1003,190.54953871874997,190.79601729374997,50.0,92.0
1004,190.78428021874998,190.94273073124998,55.0,93.0
1005,191.01902171874997,191.13834864791664,58.0,88.0
1006,191.25376321874998,191.4630743895833,55.0,83.0
1007,191.25376321874998,191.5158912270833,58.0,80.0
1008,191.72324621874998,192.01276073541663,55.0,88.0
1009,191.95798771875,192.0734022895833,58.0,80.0
1010,191.48850471874997,192.40595274791664,46.0,79.0
1011,192.19272921874997,192.4489886895833,55.0,87.0
1012,192.19272921874997,192.47637519791664,58.0,93.0
1013,191.25376321874998,192.48224373541663,39.0,93.0
1014,192.19272921874997,192.48615609374997,63.0,93.0
1015,192.42747071875,192.55657854374996,46.0,77.0
1016,192.66221221874997,192.93216494374997,58.0,87.0
1017,192.89695371874998,193.08670309791665,55.0,87.0
1018,193.13169521874997,193.43294681041664,58.0,87.0
1019,193.36643671874998,193.5992220395833,53.0,82.0
1020,193.60117821874996,193.75376019374997,58.0,78.0
1021,193.83591971874998,194.06088032291663,53.0,75.0
1022,194.07066121875,194.21346229791664,58.0,74.0
1023,194.30540271874997,194.55774983124996,53.0,84.0
1024,193.13169521874997,194.8081407645833,46.0,89.0
1025,194.54014421875,194.85704524374998,58.0,80.0
1026,194.07066121875,195.02136429374997,65.0,88.0
1027,194.77488571874997,195.03310136874998,53.0,89.0
1028,195.47911021874998,195.72950115208332,57.0,75.0
1029,195.47911021874998,195.75101912291663,60.0,76.0
1030,195.71385171874996,195.85665279791664,53.0,70.0
1031,195.94859321874998,196.23028301875,53.0,87.0
1032,195.94859321874998,196.2459324520833,65.0,88.0
1033,196.18333471875,196.46502451874997,60.0,86.0
1034,195.24436871874997,196.48458631041663,48.0,76.0
1035,195.00962721874998,196.55109640208332,41.0,92.0
1036,196.41807621874997,196.77410082708332,57.0,83.0
1037,196.65281771875,196.87777832291664,53.0,87.0
1038,197.35704221874997,197.63677583958332,62.0,79.0
1039,197.35704221874997,197.63873201874998,58.0,74.0
1040,197.59178371874998,197.70132975208332,55.0,87.0
1041,197.82652521874996,197.87347351875,55.0,79.0
1042,197.82652521874996,198.02801167291665,58.0,90.0
1043,197.12230071874998,198.11408355624997,50.0,76.0
1044,197.82652521874996,198.16103185624996,62.0,92.0
1045,196.88755921874997,198.32730708541663,43.0,89.0
1046,197.82652521874996,198.37621156458331,67.0,88.0
1047,198.29600821875,198.57965419791665,58.0,86.0
1048,198.53074971874997,198.71463056041665,55.0,88.0
1049,198.76549121875,199.04853384791664,63.0,73.0
1050,198.76549121875,199.08163348541663,58.0,76.0
1051,199.23350241041663,199.79814328541664,55.0,83.0
1052,199.46714691041663,199.81177254791663,58.0,90.0
1053,198.76549121875,199.92859479791665,39.0,88.0
1054,198.99985791041664,199.95780036041666,46.0,79.0
1055,199.70079141041666,200.16418633541664,67.0,89.0
1056,199.93443591041665,200.22843857291664,63.0,92.0
1057,200.16808041041665,200.36083712291665,58.0,89.0
1058,200.40172491041665,200.50686493541664,55.0,88.0
1059,200.63536941041664,201.16885768541664,57.0,88.0
1060,200.63536941041664,201.18638102291663,53.0,87.0
1061,201.10265841041664,201.44533701041664,60.0,87.0
1062,201.33630291041663,201.49206591041664,57.0,87.0
1063,201.56994741041663,201.61083519791666,57.0,63.0
1064,201.56994741041663,201.62835853541665,53.0,55.0
1065,200.86901391041664,201.84642673541666,48.0,80.0
1066,200.63536941041664,201.94183157291664,41.0,87.0
1067,201.56994741041663,202.08201827291666,65.0,89.0
1068,201.80359191041666,202.09564753541665,60.0,88.0
1069,202.03723641041665,202.30203351041663,57.0,87.0
1070,202.27088091041665,202.36628574791663,53.0,81.0
1071,202.50452541041665,202.99907293541665,58.0,73.0
1072,202.50452541041665,203.01075516041664,55.0,83.0
1073,202.97181441041664,203.28528744791666,62.0,83.0
1074,203.20545891041664,203.34564561041665,55.0,78.0
1075,203.43910341041664,203.69611236041663,62.0,90.0
1076,203.43910341041664,203.76036459791663,67.0,89.0
1077,203.43910341041664,203.80125238541663,55.0,89.0
1078,202.73816991041664,204.20039507291665,50.0,81.0
1079,203.90639241041666,204.20039507291665,58.0,83.0
1080,202.50452541041665,204.21986544791665,43.0,87.0
1081,203.90639241041666,204.22570656041665,62.0,86.0
1082,204.14003691041665,204.27632953541664,55.0,82.0
1083,204.37368141041665,204.67352518541665,55.0,86.0
1084,204.37368141041665,204.83318226041663,58.0,81.0
1085,204.37368141041665,204.94611043541664,62.0,88.0
1086,205.07461491041664,205.15444344791663,62.0,65.0
1087,205.07461491041664,205.18170197291664,58.0,94.0
1088,204.84097041041665,205.18754308541665,55.0,84.0
1089,204.60732591041665,205.39587609791664,50.0,77.0
1090,205.30825941041664,205.62173244791666,55.0,87.0
1091,205.30825941041664,205.65288504791664,67.0,89.0
1092,205.30825941041664,205.65872616041665,62.0,103.0
1093,205.30825941041664,205.68403764791665,58.0,103.0
1094,204.37368141041665,205.81643619791666,43.0,90.0
1095,205.54190391041664,205.91184103541664,50.0,89.0
1096,205.77554841041663,205.96830512291663,55.0,89.0
1097,206.71223877291663,206.99544189791663,58.0,81.0
1098,206.94661377291663,207.07747314791663,55.0,87.0
1099,207.18098877291663,207.28450439791663,55.0,87.0
1100,207.18098877291663,207.45247314791663,58.0,89.0
1101,207.18098877291663,207.50325439791663,62.0,90.0
1102,207.41536377291663,207.51302002291663,55.0,75.0
1103,206.24348877291663,207.97395752291663,43.0,91.0
1104,207.64973877291663,207.98567627291663,67.0,88.0
1105,206.47786377291663,207.99544189791663,50.0,82.0
1106,207.88411377291663,208.16341064791663,55.0,79.0
1107,208.35286377291663,208.52473877291663,53.0,77.0
1108,208.58723877291663,208.80208252291663,58.0,70.0
1109,208.82161377291663,209.04817627291663,53.0,75.0
1110,209.05598877291663,209.35872314791663,58.0,81.0
1111,209.05598877291663,209.40559814791663,62.0,90.0
1112,208.11848877291663,209.45637939791663,46.0,92.0
1113,209.29036377291663,209.51692627291663,53.0,87.0
1114,209.52473877291663,209.80598877291663,58.0,82.0
1115,209.75911377291663,209.91145752291663,53.0,87.0
1116,209.99348877291663,210.20833252291663,53.0,88.0
1117,209.99348877291663,210.24348877291663,57.0,89.0
1118,210.46223877291663,210.74739502291663,60.0,86.0
1119,210.69661377291663,210.80794189791663,53.0,79.0
1120,210.93098877291663,211.01692627291663,53.0,88.0
1121,210.93098877291663,211.19270752291663,57.0,94.0
1122,210.93098877291663,211.21419189791663,60.0,101.0
1123,210.93098877291663,211.23177002291663,65.0,89.0
1124,211.16536377291663,211.31380127291663,53.0,77.0
1125,210.22786377291663,211.61653564791663,48.0,84.0
1126,209.99348877291663,211.63411377291663,41.0,88.0
1127,211.39973877291663,211.71028564791663,57.0,77.0
1128,211.39973877291663,211.81184814791663,60.0,82.0
1129,211.63411377291663,211.83919189791663,53.0,80.0
1130,212.33723877291663,212.61848877291663,58.0,81.0
1131,212.57161377291663,212.68098877291663,55.0,87.0
1132,212.80598877291663,212.89387939791663,55.0,89.0
1133,212.80598877291663,213.07552002291663,58.0,90.0
1134,212.80598877291663,213.12434814791663,62.0,90.0
1135,213.04036377291663,213.17708252291663,55.0,76.0
1136,212.10286377291663,213.44075439791663,50.0,80.0
1137,211.86848877291663,213.45247314791663,43.0,89.0
1138,213.27473877291663,213.53841064791663,62.0,89.0
1139,213.27473877291663,213.55403564791663,67.0,84.0
1140,213.27473877291663,213.63216064791663,58.0,88.0
1141,213.50911377291663,213.69856689791663,55.0,88.0
1142,213.74348877291663,214.05403564791663,58.0,80.0
1143,213.97786377291663,214.20637939791663,55.0,77.0
1144,214.21223877291663,214.46028564791663,58.0,74.0
1145,214.44661377291663,214.57552002291663,55.0,76.0
1146,214.68098877291663,214.73372314791663,55.0,82.0
1147,213.97786377291663,214.84700439791663,46.0,77.0
1148,213.74348877291663,214.92708252291663,39.0,93.0
1149,214.68098877291663,214.97981689791663,63.0,91.0
1150,214.68098877291663,214.98177002291663,58.0,96.0
1151,214.91536377291663,215.03059814791663,46.0,85.0
1152,215.14973877291663,215.46419189791663,55.0,87.0
1153,215.61848877291663,215.77473877291663,53.0,87.0
1154,215.61848877291663,215.88997314791663,58.0,82.0
1155,215.85286377291663,216.08723877291663,53.0,73.0
1156,216.08723877291663,216.41731689791663,58.0,72.0
1157,216.32161377291663,216.59895752291663,53.0,76.0
1158,216.55598877291663,216.83137939791663,58.0,78.0
1159,216.79036377291663,217.10286377291663,53.0,83.0
1160,216.55598877291663,217.11067627291663,62.0,89.0
1161,217.02473877291663,217.29427002291663,58.0,91.0
1162,215.61848877291663,217.33333252291663,46.0,90.0
1163,217.25911377291663,217.41536377291663,53.0,87.0
1164,217.49348877291663,217.68880127291663,53.0,88.0
1165,217.49348877291663,217.77473877291663,57.0,89.0
1166,217.96223877291663,218.01692627291663,57.0,73.0
1167,218.19661377291663,218.28059814791663,57.0,80.0
1168,217.96223877291663,218.29427002291663,60.0,89.0
1169,217.72786377291663,218.57552002291663,48.0,74.0
1170,218.43098877291663,218.75325439791663,57.0,89.0
1171,218.43098877291663,218.78841064791663,60.0,89.0
1172,218.43098877291663,218.79622314791663,53.0,83.0
1173,218.43098877291663,218.84309814791663,65.0,87.0
1174,217.49348877291663,219.13411377291663,41.0,92.0
1175,218.89973877291663,219.22200439791663,48.0,90.0
1176,219.13411377291663,219.34895752291663,53.0,87.0
1177,219.13411377291663,219.37239502291663,57.0,85.0
1178,219.13411377291663,219.40364502291663,60.0,85.0
1179,219.13411377291663,219.46614502291663,65.0,83.0
1180,219.83723877291663,220.11653564791663,62.0,86.0
1181,219.83723877291663,220.12434814791663,58.0,87.0
1182,220.07161377291663,220.19270752291663,55.0,88.0
1183,220.30598877291663,220.34309814791663,55.0,85.0
1184,219.60286377291663,220.43294189791663,50.0,84.0
1185,220.30598877291663,220.57552002291663,62.0,98.0
1186,220.30598877291663,220.60481689791663,58.0,94.0
1187,220.30598877291663,220.61262939791663,67.0,91.0
1188,219.36848877291663,220.78059814791663,43.0,89.0
1189,220.54036377291663,220.78645752291663,50.0,92.0
1190,220.77473877291663,220.93294189791663,55.0,93.0
1191,221.00911377291663,221.12825439791663,58.0,88.0
1192,221.24348877291663,221.45247314791663,55.0,83.0
1193,221.24348877291663,221.50520752291663,58.0,80.0
1194,221.71223877291663,222.00130127291663,55.0,88.0
1195,221.94661377291663,222.06184814791663,58.0,80.0
1196,221.47786377291663,222.39387939791663,46.0,79.0
1197,222.18098877291663,222.43684814791663,55.0,87.0
1198,222.18098877291663,222.46419189791663,58.0,93.0
1199,221.24348877291663,222.47005127291663,39.0,93.0
1200,222.18098877291663,222.47395752291663,63.0,93.0
1201,222.41536377291663,222.54427002291663,46.0,77.0
1202,222.64973877291663,222.91927002291663,58.0,87.0
1203,222.88411377291663,223.07356689791663,55.0,87.0
1204,223.11848877291663,223.41927002291663,58.0,87.0
1205,223.35286377291663,223.58528564791663,53.0,82.0
1206,223.58723877291663,223.73958252291663,58.0,78.0
1207,223.82161377291663,224.04622314791663,53.0,75.0
1208,224.05598877291663,224.19856689791663,58.0,74.0
1209,224.29036377291663,224.54231689791663,53.0,84.0
1210,223.11848877291663,224.79231689791663,46.0,89.0
1211,224.52473877291663,224.84114502291663,58.0,80.0
1212,224.05598877291663,225.00520752291663,65.0,88.0
1213,224.75911377291663,225.01692627291663,53.0,89.0
1214,225.46223877291663,225.71223877291663,57.0,75.0
1215,225.46223877291663,225.73372314791663,60.0,76.0
1216,225.69661377291663,225.83919189791663,53.0,70.0
1217,225.93098877291663,226.21223877291663,53.0,87.0
1218,225.93098877291663,226.22786377291663,65.0,88.0
1219,226.16536377291663,226.44661377291663,60.0,86.0
1220,225.22786377291663,226.46614502291663,48.0,76.0
1221,224.99348877291663,226.53255127291663,41.0,92.0
1222,226.39973877291663,226.75520752291663,57.0,83.0
1223,226.63411377291663,226.85872314791663,53.0,87.0
1224,227.33723877291663,227.61653564791663,62.0,79.0
1225,227.33723877291663,227.61848877291663,58.0,74.0
1226,227.57161377291663,227.68098877291663,55.0,87.0
1227,227.80598877291663,227.85286377291663,55.0,79.0
1228,227.80598877291663,228.00716064791663,58.0,90.0
1229,227.10286377291663,228.09309814791663,50.0,76.0
1230,227.80598877291663,228.13997314791663,62.0,92.0
1231,226.86848877291663,228.30598877291663,43.0,89.0
1232,227.80598877291663,228.35481689791663,67.0,88.0
1233,228.27473877291663,228.55794189791663,58.0,86.0
1234,228.50911377291663,228.69270752291663,55.0,88.0
1235,228.74348877291663,229.02669189791663,63.0,73.0
1236,228.74348877291663,229.05989502291663,58.0,76.0
1237,229.21223877291663,229.77864502291663,55.0,83.0
1238,229.44661377291663,229.79231689791663,58.0,90.0
1239,228.74348877291663,229.90950439791663,39.0,88.0
1240,228.97786377291663,229.93880127291663,46.0,79.0
1241,229.68098877291663,230.14583252291663,67.0,89.0
1242,229.91536377291663,230.21028564791663,63.0,92.0
1243,230.14973877291663,230.34309814791663,58.0,89.0
1244,230.38411377291663,230.48958252291663,55.0,88.0
1245,230.61848877291663,231.15364502291663,57.0,88.0
1246,230.61848877291663,231.17122314791663,53.0,87.0
1247,231.08723877291663,231.43098877291663,60.0,87.0
1248,231.32161377291663,231.47786377291663,57.0,87.0
1249,231.55598877291663,231.59700439791663,57.0,63.0
1250,231.55598877291663,231.61458252291663,53.0,55.0
1251,230.85286377291663,231.83333252291663,48.0,80.0
1252,230.61848877291663,231.92903564791663,41.0,87.0
1253,231.55598877291663,232.06966064791663,65.0,89.0
1254,231.79036377291663,232.08333252291663,60.0,88.0
1255,232.02473877291663,232.29036377291663,57.0,87.0
1256,232.25911377291663,232.35481689791663,53.0,81.0
1257,232.49348877291663,232.98958252291663,58.0,73.0
1258,232.49348877291663,233.00130127291663,55.0,83.0
1259,232.96223877291663,233.27669189791663,62.0,83.0
1260,233.19661377291663,233.33723877291663,55.0,78.0
1261,233.43098877291663,233.68880127291663,62.0,90.0
1262,233.43098877291663,233.75325439791663,67.0,89.0
1263,233.43098877291663,233.79427002291663,55.0,89.0
1264,232.72786377291663,234.19466064791663,50.0,81.0
1265,233.89973877291663,234.19466064791663,58.0,83.0
1266,232.49348877291663,234.21419189791663,43.0,87.0
1267,233.89973877291663,234.22005127291663,62.0,86.0
1268,234.13411377291663,234.27083252291663,55.0,82.0
1269,234.36848877291663,234.66927002291663,55.0,86.0
1270,234.36848877291663,234.82942627291663,58.0,81.0
1271,234.36848877291663,234.94270752291663,62.0,88.0
1272,235.07161377291663,235.15169189791663,62.0,65.0
1273,235.07161377291663,235.17903564791663,58.0,94.0
1274,234.83723877291663,235.18489502291663,55.0,84.0
1275,234.60286377291663,235.39387939791663,50.0,77.0
1276,235.30598877291663,235.62044189791663,55.0,87.0
1277,235.30598877291663,235.65169189791663,67.0,89.0
1278,235.30598877291663,235.65755127291663,62.0,103.0
1279,235.30598877291663,235.68294189791663,58.0,103.0
1280,234.36848877291663,235.81575439791663,43.0,90.0
1281,235.54036377291663,235.91145752291663,50.0,89.0
1282,235.77473877291663,235.96809814791663,55.0,89.0
1283,236.24348877291663,236.99934814791663,62.0,87.0
1284,236.24348877291663,237.10286377291663,55.0,87.0
1285,236.71223877291663,237.44075439791663,50.0,82.0
1286,236.24348877291663,237.49739502291663,43.0,88.0
1287,237.18098877291663,237.91536377291663,58.0,89.0
1288,237.64973877291663,237.95637939791663,43.0,87.0
1289,237.18098877291663,238.14583252291663,62.0,89.0
1290,237.88411377291663,238.23958252291663,55.0,86.0
1291,238.58723877291663,238.77669189791663,62.0,49.0
1292,238.58723877291663,238.98762939791663,53.0,87.0
1293,238.11848877291663,239.56966064791663,46.0,91.0
1294,239.05598877291663,239.58723877291663,58.0,94.0
1295,239.52473877291663,239.79036377291663,53.0,91.0
1296,239.05598877291663,239.86458252291663,62.0,88.0
1297,239.99348877291663,240.23372314791663,53.0,83.0
1298,239.99348877291663,240.25716064791663,57.0,80.0
1299,239.99348877291663,240.33137939791663,60.0,87.0
1300,240.69661377291663,240.82747314791663,57.0,74.0
1301,240.46223877291663,241.04231689791663,48.0,76.0
1302,239.99348877291663,241.20442627291663,41.0,88.0
1303,240.93098877291663,241.21419189791663,57.0,88.0
1304,240.93098877291663,241.24739502291663,60.0,91.0
1305,240.93098877291663,241.44466064791663,65.0,87.0
1306,241.39973877291663,241.55208252291663,41.0,87.0
1307,241.86848877291663,242.12044189791663,55.0,84.0
1308,241.86848877291663,242.42317627291663,64.0,90.0
1309,241.86848877291663,242.43098877291663,60.0,84.0
1310,242.33723877291663,242.47786377291663,55.0,74.0
1311,241.86848877291663,242.95637939791663,48.0,91.0
1312,242.80598877291663,243.06184814791663,60.0,96.0
1313,242.80598877291663,243.07161377291663,55.0,93.0
1314,242.80598877291663,243.07161377291663,64.0,98.0
1315,243.04036377291663,243.33919189791663,48.0,91.0
1316,243.27473877291663,243.37434814791663,55.0,83.0
1317,243.27473877291663,243.58333252291663,60.0,92.0
1318,243.50911377291663,243.64192627291663,55.0,83.0
1319,243.74348877291663,244.21028564791663,58.0,79.0
1320,243.74348877291663,244.21419189791663,55.0,78.0
1321,244.21223877291663,244.76106689791663,50.0,77.0
1322,244.68098877291663,244.93294189791663,55.0,88.0
1323,244.68098877291663,245.00716064791663,58.0,94.0
1324,243.74348877291663,245.08137939791663,43.0,88.0
1325,244.91536377291663,245.10481689791663,50.0,82.0
1326,244.68098877291663,245.10481689791663,62.0,88.0
1327,245.14973877291663,245.19270752291663,62.0,67.0
1328,245.14973877291663,245.29817627291663,55.0,90.0
1329,245.38411377291663,245.57161377291663,57.0,85.0
1330,245.63997314791663,245.95247314791663,53.0,87.0
1331,245.63020752291663,246.27864502291663,58.0,81.0
1332,246.06184814791663,246.43489502291663,53.0,81.0
1333,245.63216064791663,246.83137939791663,46.0,96.0
1334,246.57356689791663,246.83723877291663,53.0,90.0
1335,246.57161377291663,247.12239502291663,58.0,91.0
1336,246.57552002291663,247.24348877291663,62.0,87.0
1337,247.11262939791663,247.44466064791663,53.0,89.0
1338,247.72200439791663,247.84505127291663,41.0,88.0
1339,247.73372314791663,248.03645752291663,53.0,77.0
1340,247.72981689791663,248.12630127291663,57.0,77.0
1341,247.72786377291663,248.23177002291663,60.0,84.0
1342,248.26302002291663,248.65364502291663,53.0,75.0
1343,248.48177002291663,248.66145752291663,60.0,75.0
1344,248.67122314791663,248.85872314791663,65.0,91.0
1345,248.88020752291663,249.01887939791663,69.0,89.0
1346,249.05598877291663,249.28645752291663,65.0,90.0
1347,249.25911377291663,249.42317627291663,72.0,84.0
1348,250.15755127291663,250.28841064791663,77.0,66.0
1349,250.20052002291663,250.32942627291663,81.0,75.0
1350,250.27669189791663,250.40169189791663,89.0,87.0
1351,249.79231689791663,250.86067627291663,72.0,69.0
1352,249.49348877291663,250.91341064791663,65.0,83.0
