,start,end,pitch,velocity
0,1.3655289375,4.3996168125,63.0,107.0
1,1.3655289375,4.3996168125,66.0,113.0
2,1.3655289375,4.4071925625,71.0,102.0
3,1.3655289375,4.5056773125,47.0,100.0
4,5.0018889375,7.2708260625,61.0,107.0
5,5.0018889375,7.2859775625,65.0,113.0
6,5.0018889375,7.303023,68.0,96.0
7,5.0018889375,7.4696895,49.0,98.0
8,12.2746089375,15.1079394375,66.0,110.0
9,12.2746089375,15.15907575,63.0,102.0
10,12.2746089375,15.2026363125,71.0,102.0
11,12.2746089375,15.3011210625,47.0,98.0
12,15.9109689375,19.344677625,61.0,104.0
13,15.9109689375,19.3617230625,65.0,109.0
14,15.9109689375,19.3730866875,68.0,110.0
15,15.9109689375,19.4033896875,49.0,98.0
16,23.1836889375,27.67421475,63.0,107.0
17,23.1836889375,27.70451775,51.0,92.0
18,23.1836889375,27.727245,67.0,113.0
19,23.1836889375,27.7329268125,70.0,107.0
20,23.1836889375,27.7556540625,39.0,88.0
21,29.3200464375,29.90148525,63.0,88.0
22,29.7745914375,30.090879,65.0,83.0
23,28.6382289375,30.1363335,51.0,93.0
24,30.0018639375,30.2670151875,67.0,87.0
25,29.0927739375,30.4564089375,58.0,68.0
26,30.2291364375,30.4829240625,72.0,90.0
27,30.9109539375,31.450726125,58.0,71.0
28,30.4564089375,31.6079229375,70.0,88.0
29,31.5927714375,31.8920135625,58.0,66.0
30,30.4564089375,31.9261044375,50.0,80.0
31,31.1382264375,31.9261044375,62.0,84.0
32,31.8200439375,32.0473164375,65.0,83.0
33,32.0473164375,33.443148375,70.0,83.0
34,32.2745889375,33.450724125,67.0,88.0
35,32.9564064375,33.8276176875,60.0,87.0
36,33.4109514375,33.903375187500004,62.0,75.0
37,32.2745889375,33.96208725,48.0,83.0
38,32.7291339375,34.1003446875,55.0,46.0
39,33.8654964375,34.5018594375,63.0,89.0
40,34.5473139375,34.757541,62.0,87.0
41,34.3200414375,34.791631875,55.0,85.0
42,35.0018589375,35.3048889375,55.0,89.0
43,34.7745864375,35.3086768125,70.0,114.0
44,34.0927689375,35.3617070625,48.0,87.0
45,35.2291314375,35.5548886875,62.0,96.0
46,35.4564039375,35.9109489375,63.0,104.0
47,35.6836764375,35.9109489375,70.0,96.0
48,35.9109489375,36.738599625,60.0,92.0
49,35.9109489375,36.9904933125,68.0,84.0
50,36.8200389375,37.140114375,60.0,88.0
51,37.0473114375,37.2480688125,63.0,98.0
52,36.3654939375,37.32572025,51.0,73.0
53,36.5927664375,37.374962625,56.0,85.0
54,35.9109489375,37.4033716875,44.0,84.0
55,37.2745839375,37.7064016875,68.0,119.0
56,37.7291289375,38.1912496875,70.0,91.0
57,37.7291289375,38.82571875,62.0,91.0
58,38.4109464375,38.9071580625,58.0,87.0
59,39.0927639375,39.2026123125,58.0,88.0
60,38.183673937500004,39.2139759375,53.0,71.0
61,37.7291289375,39.2670061875,46.0,85.0
62,38.8654914375,39.435566625,60.0,90.0
63,38.8654914375,40.0094296875,65.0,82.0
64,40.0018539375,40.4639746875,51.0,79.0
65,40.2291264375,40.4980655625,53.0,80.0
66,40.4563989375,40.776474375,55.0,88.0
67,40.9109439375,41.0927619375,58.0,85.0
68,40.6836714375,41.3124586875,51.0,88.0
69,41.1382164375,41.4147313125,55.0,94.0
70,41.1382164375,41.58329175,58.0,78.0
71,41.1382164375,41.6154886875,63.0,102.0
72,41.5927614375,42.0776094375,51.0,79.0
73,42.0473064375,42.382533375,58.0,87.0
74,42.0473064375,42.458290875,67.0,94.0
75,39.5473089375,42.6192755625,39.0,87.0
76,39.7745814375,42.6382149375,46.0,77.0
77,42.5018514375,42.70450275,58.0,94.0
78,42.2745789375,42.7215481875,51.0,98.0
79,42.7291239375,42.9829115625,63.0,108.0
80,42.9563964375,43.731016875,67.0,96.0
81,43.1836689375,43.9147288125,60.0,88.0
82,43.1836689375,44.329501125,63.0,91.0
83,44.0927589375,44.6079099375,56.0,86.0
84,43.6382139375,44.609803875,51.0,70.0
85,44.3200314375,44.6230614375,60.0,86.0
86,43.1836689375,44.636319,44.0,84.0
87,44.5473039375,44.905258125,63.0,107.0
88,45.0018489375,45.6685149375,62.0,92.0
89,44.7745764375,45.7253330625,70.0,89.0
90,45.0018489375,45.8048784375,65.0,98.0
91,45.9109389375,46.1874538125,60.0,88.0
92,46.1382114375,46.306771875,62.0,108.0
93,45.6836664375,46.36359,58.0,96.0
94,45.4563939375,46.4412414375,53.0,77.0
95,45.0018489375,46.52268075,46.0,89.0
96,46.3654839375,46.5321504375,65.0,119.0
97,46.5927564375,46.79540775,70.0,89.0
98,47.2745739375,47.738588625,55.0,86.0
99,47.5018464375,48.147679125,58.0,83.0
100,47.7291189375,48.1723003125,67.0,92.0
101,46.8200289375,48.215860875,43.0,86.0
102,47.0473014375,48.223436625,50.0,73.0
103,48.1836639375,48.6344210625,62.0,85.0
104,47.9563914375,48.6514665,55.0,86.0
105,48.4109364375,48.68934525,67.0,83.0
106,48.8654814375,49.1116933125,60.0,72.0
107,49.0927539375,49.515102,63.0,79.0
108,48.6382089375,49.5435110625,48.0,83.0
109,49.3200264375,49.5908595,67.0,82.0
110,50.0018439375,50.223434625,67.0,88.0
111,49.7745714375,50.4696465,60.0,80.0
112,49.5472989375,50.4999495,51.0,88.0
113,50.4563889375,51.1306306875,65.0,91.0
114,50.4563889375,51.2215396875,56.0,86.0
115,51.1382064375,51.666615,53.0,81.0
116,50.4563889375,51.7726755,41.0,83.0
117,50.9109339375,51.8427511875,48.0,48.0
118,51.3654789375,51.927978375,56.0,91.0
119,51.8200239375,52.2575235,43.0,84.0
120,52.2745689375,53.151462,44.0,78.0
121,52.2745689375,53.1685074375,63.0,86.0
122,52.2745689375,53.272674,60.0,89.0
123,53.1836589375,53.784037125,65.0,82.0
124,53.1836589375,54.06812775,46.0,74.0
125,53.1836589375,54.0813853125,62.0,81.0
126,53.1836589375,54.1079004375,58.0,76.0
127,54.0927489375,54.7556270625,55.0,81.0
128,54.0927489375,54.799187625,63.0,86.0
129,54.7745664375,55.14388425,51.0,79.0
130,55.0018389375,55.6419898125,53.0,83.0
131,55.4563839375,55.8029745,51.0,74.0
132,55.6836564375,55.99236825,55.0,85.0
133,56.1382014375,56.7177463125,58.0,88.0
134,56.5927464375,56.999943,63.0,84.0
135,54.0927489375,57.1457761875,39.0,75.0
136,54.5472939375,57.238579125,46.0,42.0
137,57.0472914375,57.238579125,65.0,89.0
138,56.8200189375,57.352215375,51.0,88.0
139,57.2745639375,57.636306,67.0,92.0
140,58.6381989375,58.909032,65.0,88.0
141,58.4109264375,59.064334875,63.0,88.0
142,58.8654714375,59.079486375,67.0,100.0
143,57.7291089375,59.208274125,51.0,87.0
144,59.0927439375,59.5302435,72.0,104.0
145,58.1836539375,59.564334375,58.0,71.0
146,59.5472889375,60.05297025,70.0,88.0
147,59.5472889375,60.0738035625,65.0,88.0
148,60.0018339375,60.30297,58.0,75.0
149,60.2291064375,60.791605875,70.0,96.0
150,60.2291064375,60.9184996875,65.0,102.0
151,60.683651437500004,60.9544845,58.0,77.0
152,59.5472889375,60.9753178125,50.0,81.0
153,60.9109239375,61.147666125,63.0,88.0
154,61.3654689375,62.09842275,60.0,94.0
155,61.3654689375,62.1268318125,67.0,87.0
156,61.1381964375,62.14387725,70.0,85.0
157,62.0472864375,62.395770937500004,55.0,81.0
158,62.2745589375,62.4563769375,67.0,82.0
159,62.2745589375,62.814331125,60.0,94.0
160,62.7291039375,62.909028,62.0,88.0
161,62.5018314375,62.9374370625,55.0,83.0
162,62.9563764375,62.9942551875,62.0,87.0
163,62.9563764375,63.251830687500004,63.0,117.0
164,63.4109214375,63.814330125,63.0,89.0
165,63.1836489375,63.9374360625,55.0,87.0
166,63.8654664375,64.1078904375,63.0,78.0
167,63.6381939375,64.1495570625,72.0,100.0
168,63.8654664375,64.291602375,67.0,114.0
169,64.0927389375,64.3124356875,55.0,88.0
170,61.3654689375,64.38629925,48.0,85.0
171,64.3200114375,64.5927384375,63.0,94.0
172,64.5472839375,64.7859200625,67.0,107.0
173,64.7745564375,65.1362985,72.0,100.0
174,65.0018289375,65.5586465625,68.0,116.0
175,65.0018289375,65.943115875,63.0,96.0
176,65.9109189375,66.3237973125,60.0,89.0
177,66.1381914375,66.390085125,63.0,104.0
178,65.4563739375,66.412812375,51.0,68.0
179,65.6836464375,66.465842625,56.0,84.0
180,65.0018289375,66.52266075,44.0,86.0
181,66.3654639375,66.814327125,68.0,116.0
182,66.8200089375,67.1912206875,70.0,100.0
183,66.8200089375,67.58326575,62.0,92.0
184,67.2745539375,67.8427351875,53.0,69.0
185,67.5018264375,67.9715229375,58.0,87.0
186,67.7290989375,68.23478025,60.0,108.0
187,66.8200089375,68.2366741875,46.0,87.0
188,68.1836439375,68.24993175,53.0,80.0
189,68.1836439375,68.4450073125,62.0,70.0
190,67.7290989375,68.602204125,65.0,114.0
191,68.6381889375,69.31053675,55.0,79.0
192,68.6381889375,69.473415375,63.0,83.0
193,69.3200064375,69.64386975,51.0,85.0
194,69.5472789375,69.7328848125,63.0,86.0
195,69.5472789375,70.060536,53.0,102.0
196,68.6381889375,70.2025813125,58.0,86.0
197,70.0018239375,70.2934903125,51.0,80.0
198,70.2290964375,70.579474875,55.0,93.0
199,70.2290964375,70.5889445625,63.0,88.0
200,70.2290964375,70.6268233125,58.0,84.0
201,70.6836414375,71.0283380625,55.0,83.0
202,70.9109139375,71.0851561875,58.0,85.0
203,70.4563689375,71.0927319375,51.0,81.0
204,71.1381864375,71.549170875,63.0,107.0
205,68.6381889375,71.6116708125,39.0,88.0
206,69.0927339375,71.6874283125,46.0,71.0
207,71.3654589375,71.85598875,51.0,107.0
208,71.5927314375,71.8730341875,58.0,94.0
209,71.8200039375,72.0510643125,63.0,102.0
210,72.0472764375,72.8578816875,67.0,98.0
211,72.2745489375,72.8957604375,63.0,100.0
212,72.2745489375,72.93174525,60.0,94.0
213,72.7290939375,73.6950020625,51.0,63.0
214,72.2745489375,73.7480323125,44.0,86.0
215,73.1836389375,73.85598675,60.0,93.0
216,73.6381839375,73.9450018125,56.0,80.0
217,73.1836389375,74.00750175,67.0,102.0
218,73.1836389375,74.0510623125,63.0,108.0
219,74.0927289375,74.7480313125,70.0,89.0
220,74.0927289375,74.76507675,62.0,94.0
221,74.0927289375,74.8503039375,65.0,107.0
222,75.0018189375,75.333258,60.0,110.0
223,74.7745464375,75.374924625,58.0,89.0
224,74.5472739375,75.5131820625,53.0,71.0
225,74.0927289375,75.5472729375,46.0,89.0
226,75.2290914375,75.549166875,62.0,100.0
227,75.4563639375,75.6950000625,65.0,108.0
228,75.6836364375,75.8275756875,67.0,113.0
229,75.9109089375,76.6381809375,67.0,89.0
230,75.9109089375,76.746135375,63.0,94.0
231,75.9109089375,76.8029535,51.0,84.0
232,75.9109089375,76.8427261875,58.0,86.0
233,76.8199989375,77.6533314375,65.0,84.0
234,76.8199989375,77.700679875,50.0,83.0
235,76.8199989375,77.700679875,62.0,92.0
236,77.7290889375,78.02264925,60.0,78.0
237,77.7290889375,78.4336336875,67.0,81.0
238,77.7290889375,78.5472699375,63.0,81.0
239,78.4109064375,78.8578756875,60.0,85.0
240,78.6381789375,78.90143625,62.0,94.0
241,78.1836339375,78.927951375,55.0,71.0
242,77.7290889375,79.08325425,48.0,85.0
243,78.8654514375,79.132496625,63.0,88.0
244,79.0927239375,79.390072125,67.0,100.0
245,79.54726893750001,80.170374375,60.0,36.0
246,79.54726893750001,80.2139349375,65.0,88.0
247,79.54726893750001,80.23476825,56.0,85.0
248,80.4563589375,81.359767125,56.0,86.0
249,80.4563589375,81.534009375,60.0,91.0
250,80.4563589375,81.605979,65.0,88.0
251,81.5927214375,82.0775694375,53.0,80.0
252,82.0472664375,82.5245386875,65.0,100.0
253,81.8199939375,82.6646900625,56.0,81.0
254,82.5018114375,82.76506875,60.0,76.0
255,79.54726893750001,82.7783263125,41.0,82.0
256,81.3654489375,82.8010535625,48.0,72.0
257,82.2745389375,82.882492875,53.0,87.0
258,82.7290839375,83.06809875,65.0,86.0
259,83.6381739375,84.2290824375,51.0,74.0
260,84.0927189375,84.6305971875,63.0,93.0
261,84.0927189375,84.8124151875,55.0,91.0
262,84.5472639375,85.18930875,51.0,70.0
263,85.0018089375,85.8654444375,55.0,87.0
264,85.0018089375,85.878702,63.0,100.0
265,84.7745364375,85.9108989375,58.0,86.0
266,83.1836289375,86.261277375,39.0,91.0
267,85.9108989375,86.27264100000001,51.0,84.0
268,86.8199889375,87.4184731875,63.0,102.0
269,86.8199889375,87.518851875,55.0,96.0
270,86.8199889375,87.526427625,58.0,107.0
271,87.5018064375,87.8843818125,51.0,84.0
272,87.7290789375,88.15900275,55.0,107.0
273,86.8199889375,88.223396625,39.0,94.0
274,87.7290789375,88.3768055625,63.0,110.0
275,87.7290789375,88.4696085,58.0,113.0
276,88.1836239375,88.4942296875,51.0,75.0
277,88.6381689375,88.9942291875,58.0,98.0
278,88.6381689375,89.3351379375,65.0,102.0
279,88.6381689375,89.397637875,62.0,104.0
280,89.3199864375,89.602183125,58.0,88.0
281,89.7745314375,90.011273625,58.0,86.0
282,89.5472589375,90.087031125,60.0,114.0
283,89.0927139375,90.1154401875,53.0,80.0
284,89.5472589375,90.1495310625,65.0,113.0
285,88.6381689375,90.1665765,46.0,88.0
286,90.4563489375,91.09839375,63.0,102.0
287,90.4563489375,91.1230149375,67.0,100.0
288,90.4563489375,91.132484625,60.0,100.0
289,91.1381664375,91.545363,55.0,81.0
290,91.8199839375,91.935514125,55.0,86.0
291,90.4563489375,92.0055898125,48.0,90.0
292,91.3654389375,92.155210875,63.0,113.0
293,91.3654389375,92.1760441875,67.0,110.0
294,91.3654389375,92.200665375,60.0,110.0
295,92.2745289375,92.9714979375,58.0,92.0
296,92.2745289375,92.973391875,62.0,108.0
297,92.2745289375,92.9752858125,67.0,92.0
298,92.9563464375,93.2480128125,55.0,91.0
299,93.1836189375,93.4677095625,67.0,91.0
300,92.2745289375,93.602179125,43.0,88.0
301,93.4108914375,93.6646790625,55.0,102.0
302,92.7290739375,93.6987699375,50.0,78.0
303,93.1836189375,93.6987699375,58.0,114.0
304,93.6381639375,93.8938455,62.0,107.0
305,93.8654364375,94.0453605,67.0,89.0
306,94.0927089375,94.79535975,63.0,108.0
307,94.0927089375,94.8086173125,67.0,94.0
308,94.0927089375,94.8237688125,60.0,107.0
309,94.7745264375,95.0851321875,56.0,86.0
310,94.5472539375,95.4980105625,51.0,67.0
311,95.0017989375,95.52263175,67.0,107.0
312,95.0017989375,95.5358893125,63.0,113.0
313,95.4563439375,95.579449875,56.0,85.0
314,94.0927089375,95.5813438125,44.0,88.0
315,95.0017989375,95.8161920625,60.0,113.0
316,95.9108889375,96.4790701875,55.0,93.0
317,95.9108889375,96.5624034375,58.0,94.0
318,95.9108889375,96.564297375,63.0,87.0
319,96.5927064375,96.9487666875,51.0,85.0
320,96.8199789375,97.2517966875,58.0,110.0
321,95.9108889375,97.2669481875,39.0,93.0
322,96.8199789375,97.337023875,63.0,114.0
323,96.8199789375,97.3843723125,67.0,107.0
324,97.2745239375,97.55293275,51.0,88.0
325,97.7290689375,98.41656825,68.0,97.0
326,97.7290689375,98.424144,60.0,94.0
327,97.7290689375,98.43171975,63.0,113.0
328,98.4108864375,98.7139164375,56.0,91.0
329,98.6381589375,99.0320979375,60.0,108.0
330,98.1836139375,99.1362645,51.0,75.0
331,97.7290689375,99.1533099375,44.0,89.0
332,98.6381589375,99.2101280625,68.0,119.0
333,99.0927039375,99.283991625,56.0,90.0
334,98.6381589375,99.4089915,63.0,116.0
335,99.3199764375,99.511264125,65.0,83.0
336,99.3199764375,99.6457336875,62.0,86.0
337,99.5472489375,100.049142375,70.0,104.0
338,100.2290664375,100.3578541875,60.0,114.0
339,100.0017939375,100.4373995625,58.0,104.0
340,100.4563389375,100.484748,65.0,98.0
341,100.4563389375,100.783990125,62.0,116.0
342,100.6836114375,100.8389143125,58.0,114.0
343,99.7745214375,100.8427021875,53.0,85.0
344,99.5472489375,100.890050625,46.0,88.0
345,100.9108839375,101.079444375,65.0,117.0
346,101.1381564375,101.3086108125,58.0,82.0
347,101.3654289375,101.579443875,63.0,100.0
348,101.3654289375,101.6192165625,67.0,104.0
349,101.3654289375,102.0207313125,58.0,91.0
350,102.04724643750001,102.253685625,55.0,88.0
351,101.8199739375,102.344594625,51.0,89.0
352,101.3654289375,102.74989725,39.0,100.0
353,102.2745189375,102.7669426875,58.0,116.0
354,101.5927014375,102.787776,46.0,86.0
355,102.2745189375,103.06807875,63.0,114.0
356,102.7290639375,103.1722453125,51.0,83.0
357,103.1836089375,103.3389118125,58.0,89.0
358,103.1836089375,103.6230024375,62.0,107.0
359,103.1836089375,103.6722448125,65.0,102.0
360,103.8654264375,104.0245171875,60.0,91.0
361,103.6381539375,104.090805,58.0,90.0
362,104.0926989375,104.427925875,62.0,108.0
363,104.0926989375,104.4298198125,65.0,117.0
364,104.3199714375,104.5737590625,58.0,102.0
365,103.1836089375,104.6722438125,46.0,89.0
366,104.5472439375,104.708228625,65.0,91.0
367,103.4108814375,104.8029255,53.0,80.0
368,104.5472439375,104.935501125,62.0,88.0
369,104.7745164375,104.9411829375,67.0,82.0
370,105.0017889375,105.700651875,67.0,100.0
371,105.0017889375,105.730954875,60.0,107.0
372,105.0017889375,105.74989425,63.0,108.0
373,105.0017889375,106.1911816875,48.0,90.0
374,105.6836064375,106.2063331875,55.0,85.0
375,105.9108789375,106.424136,60.0,113.0
376,106.3654239375,106.4714844375,48.0,88.0
377,105.9108789375,106.5207268125,67.0,108.0
378,105.9108789375,106.723378125,63.0,114.0
379,106.8199689375,107.2858775625,67.0,90.0
380,106.8199689375,107.34080175,58.0,91.0
381,106.8199689375,107.4222410625,62.0,98.0
382,107.5017864375,107.6798165625,58.0,85.0
383,107.2745139375,107.757468,55.0,86.0
384,107.7290589375,108.1154221875,67.0,116.0
385,107.7290589375,108.1305736875,58.0,88.0
386,106.8199689375,108.170346375,43.0,89.0
387,107.0472414375,108.1836039375,50.0,74.0
388,107.9563314375,108.185497875,55.0,108.0
389,108.1836039375,108.5131490625,62.0,98.0
390,108.4108764375,109.26504225,67.0,104.0
391,108.6381489375,109.344587625,63.0,113.0
392,108.6381489375,109.3502694375,60.0,104.0
393,109.3199664375,109.64382975,56.0,85.0
394,109.0926939375,110.0964808125,51.0,68.0
395,110.0017839375,110.102162625,56.0,86.0
396,108.6381489375,110.1495110625,44.0,89.0
397,109.5472389375,110.1911776875,60.0,114.0
398,109.5472389375,110.2271625,67.0,113.0
399,109.5472389375,110.306707875,63.0,117.0
400,110.4563289375,110.8957224375,67.0,94.0
401,110.4563289375,110.9336011875,63.0,113.0
402,110.4563289375,111.1987524375,58.0,93.0
403,111.3654189375,111.6211005,63.0,107.0
404,111.3654189375,111.6570853125,55.0,113.0
405,110.4563289375,111.7517821875,39.0,96.0
406,110.9108739375,111.8086003125,46.0,80.0
407,111.1381464375,111.9146608125,51.0,98.0
408,111.5926914375,111.935494125,58.0,108.0
409,111.8199639375,112.155190875,63.0,96.0
410,112.2745089375,112.999887,60.0,92.0
411,112.2745089375,113.011250625,67.0,93.0
412,112.2745089375,113.12867475,63.0,102.0
413,112.2745089375,113.1457201875,44.0,88.0
414,113.1835989375,113.90140125,58.0,91.0
415,113.1835989375,113.9639011875,65.0,91.0
416,113.1835989375,114.090795,46.0,85.0
417,113.1835989375,114.0926889375,62.0,98.0
418,114.0926889375,114.261249375,63.0,81.0
419,114.0926889375,114.3010220625,67.0,84.0
420,114.0926889375,114.8048094375,58.0,82.0
421,114.5472339375,115.05291525,51.0,86.0
422,114.7745064375,115.060491,55.0,73.0
423,115.0017789375,115.5055663125,63.0,107.0
424,115.0017789375,115.5585965625,58.0,88.0
425,114.3199614375,116.2025353125,46.0,80.0
426,115.4563239375,116.20442925,51.0,77.0
427,114.0926889375,116.2366261875,39.0,88.0
428,115.6835964375,116.5169289375,55.0,71.0
429,115.9108689375,116.6154136875,63.0,87.0
430,115.9108689375,116.6911711875,58.0,74.0
431,117.7290489375,124.2517696875,61.0,86.0
432,117.7290489375,124.283966625,49.0,93.0
433,117.7290489375,124.3161635625,65.0,107.0
434,117.7290489375,124.3275271875,68.0,106.0
435,125.0017689375,130.82562675,63.0,107.0
436,125.0017689375,130.87108125,70.0,100.0
437,125.0017689375,130.882444875,67.0,116.0
438,125.0017689375,131.0017629375,51.0,102.0
439,133.1835789375,133.454412,65.0,88.0
440,132.9563064375,133.609714875,63.0,88.0
441,133.4108514375,133.624866375,67.0,100.0
442,132.2744889375,133.753654125,51.0,87.0
443,133.6381239375,134.0756235,72.0,104.0
444,132.7290339375,134.109714375,58.0,71.0
445,134.0926689375,134.59835025,70.0,88.0
446,134.0926689375,134.6191835625,65.0,88.0
447,134.5472139375,134.84835,58.0,75.0
448,134.7744864375,135.336985875,70.0,96.0
449,134.7744864375,135.4638796875,65.0,102.0
450,135.2290314375,135.4998645,58.0,77.0
451,134.0926689375,135.5206978125,50.0,81.0
452,135.4563039375,135.693046125,63.0,88.0
453,135.9108489375,136.64380275,60.0,94.0
454,135.9108489375,136.6722118125,67.0,87.0
455,135.6835764375,136.68925725,70.0,85.0
456,136.59266643750001,136.9411509375,55.0,81.0
457,136.8199389375,137.0017569375,67.0,82.0
458,136.8199389375,137.359711125,60.0,94.0
459,137.2744839375,137.454408,62.0,88.0
460,137.0472114375,137.4828170625,55.0,83.0
461,137.5017564375,137.5396351875,62.0,87.0
462,137.5017564375,137.7972106875,63.0,117.0
463,137.9563014375,138.359710125,63.0,89.0
464,137.7290289375,138.4828160625,55.0,87.0
465,138.4108464375,138.6532704375,63.0,78.0
466,138.1835739375,138.6949370625,72.0,100.0
467,138.4108464375,138.836982375,67.0,114.0
468,138.6381189375,138.8578156875,55.0,88.0
469,135.9108489375,138.93167925,48.0,85.0
470,138.8653914375,139.1381184375,63.0,94.0
471,139.0926639375,139.3313000625,67.0,107.0
472,139.3199364375,139.6816785,72.0,100.0
473,139.5472089375,140.1040265625,68.0,116.0
474,139.5472089375,140.488495875,63.0,96.0
475,140.4562989375,140.8691773125,60.0,89.0
476,140.6835714375,140.935465125,63.0,104.0
477,140.0017539375,140.958192375,51.0,68.0
478,140.2290264375,141.011222625,56.0,84.0
479,139.5472089375,141.06804075,44.0,86.0
480,140.9108439375,141.359707125,68.0,116.0
481,141.3653889375,141.7366006875,70.0,100.0
482,141.3653889375,142.12864575,62.0,92.0
483,141.8199339375,142.3881151875,53.0,69.0
484,142.0472064375,142.5169029375,58.0,87.0
485,142.2744789375,142.78016025,60.0,108.0
486,141.3653889375,142.7820541875,46.0,87.0
487,142.7290239375,142.79531175,53.0,80.0
488,142.7290239375,142.9903873125,62.0,70.0
489,142.2744789375,143.147584125,65.0,114.0
490,143.1835689375,143.85591675,55.0,79.0
491,143.1835689375,144.018795375,63.0,83.0
492,143.8653864375,144.18924975,51.0,85.0
493,144.0926589375,144.2782648125,63.0,86.0
494,144.0926589375,144.605916,53.0,102.0
495,143.1835689375,144.7479613125,58.0,86.0
496,144.5472039375,144.8388703125,51.0,80.0
497,144.7744764375,145.124854875,55.0,93.0
498,144.7744764375,145.1343245625,63.0,88.0
499,144.7744764375,145.1722033125,58.0,84.0
500,145.2290214375,145.5737180625,55.0,83.0
501,145.4562939375,145.6305361875,58.0,85.0
502,145.0017489375,145.6381119375,51.0,81.0
503,145.6835664375,146.094550875,63.0,107.0
504,143.1835689375,146.1570508125,39.0,88.0
505,143.6381139375,146.2328083125,46.0,71.0
506,145.9108389375,146.40136875,51.0,107.0
507,146.1381114375,146.4184141875,58.0,94.0
508,146.3653839375,146.5964443125,63.0,102.0
509,146.5926564375,147.4032616875,67.0,98.0
510,146.8199289375,147.4411404375,63.0,100.0
511,146.8199289375,147.47712525,60.0,94.0
512,147.2744739375,148.2403820625,51.0,63.0
513,146.8199289375,148.2934123125,44.0,86.0
514,147.7290189375,148.40136675,60.0,93.0
515,148.1835639375,148.4903818125,56.0,80.0
516,147.7290189375,148.55288175,67.0,102.0
517,147.7290189375,148.5964423125,63.0,108.0
518,148.6381089375,149.2934113125,70.0,89.0
519,148.6381089375,149.31045675000001,62.0,94.0
520,148.6381089375,149.3956839375,65.0,107.0
521,149.5471989375,149.878638,60.0,110.0
522,149.3199264375,149.920304625,58.0,89.0
523,149.0926539375,150.0585620625,53.0,71.0
524,148.6381089375,150.0926529375,46.0,89.0
525,149.7744714375,150.094546875,62.0,100.0
526,150.0017439375,150.2403800625,65.0,108.0
527,150.2290164375,150.3729556875,67.0,113.0
528,150.4562889375,151.1835609375,67.0,89.0
529,150.4562889375,151.291515375,63.0,94.0
530,150.4562889375,151.3483335,51.0,84.0
531,150.4562889375,151.3881061875,58.0,86.0
532,151.3653789375,152.1987114375,65.0,84.0
533,151.3653789375,152.24605987500001,50.0,83.0
534,151.3653789375,152.24605987500001,62.0,92.0
535,152.2744689375,152.56802925,60.0,78.0
536,152.2744689375,152.97901368750001,67.0,81.0
537,152.2744689375,153.0926499375,63.0,81.0
538,152.9562864375,153.4032556875,60.0,85.0
539,153.1835589375,153.44681625,62.0,94.0
540,152.7290139375,153.473331375,55.0,71.0
541,152.2744689375,153.62863425,48.0,85.0
542,153.4108314375,153.677876625,63.0,88.0
543,153.6381039375,153.935452125,67.0,100.0
544,154.0926489375,154.715754375,60.0,36.0
545,154.0926489375,154.7593149375,65.0,88.0
546,154.0926489375,154.78014825,56.0,85.0
547,155.0017389375,155.905147125,56.0,86.0
548,155.0017389375,156.079389375,60.0,91.0
549,155.0017389375,156.151359,65.0,88.0
550,156.1381014375,156.6229494375,53.0,80.0
551,156.5926464375,157.0699186875,65.0,100.0
552,156.3653739375,157.2100700625,56.0,81.0
553,157.0471914375,157.31044875,60.0,76.0
554,154.0926489375,157.3237063125,41.0,82.0
555,155.9108289375,157.3464335625,48.0,72.0
556,156.8199189375,157.427872875,53.0,87.0
557,157.2744639375,157.61347875,65.0,86.0
558,158.1835539375,158.7744624375,51.0,74.0
559,158.6380989375,159.1759771875,63.0,93.0
560,158.6380989375,159.3577951875,55.0,91.0
561,159.09264393750001,159.73468875,51.0,70.0
562,159.5471889375,160.4108244375,55.0,87.0
563,159.5471889375,160.424082,63.0,100.0
564,159.3199164375,160.4562789375,58.0,86.0
565,157.7290089375,160.80665737500001,39.0,91.0
566,160.4562789375,160.818021,51.0,84.0
567,161.3653689375,161.9638531875,63.0,102.0
568,161.3653689375,162.064231875,55.0,96.0
569,161.3653689375,162.071807625,58.0,107.0
570,162.0471864375,162.4297618125,51.0,84.0
571,162.27445893750001,162.70438275,55.0,107.0
572,161.3653689375,162.768776625,39.0,94.0
573,162.27445893750001,162.9221855625,63.0,110.0
574,162.27445893750001,163.0149885,58.0,113.0
575,162.7290039375,163.0396096875,51.0,75.0
576,163.1835489375,163.5396091875,58.0,98.0
577,163.1835489375,163.8805179375,65.0,102.0
578,163.1835489375,163.943017875,62.0,104.0
579,163.8653664375,164.147563125,58.0,88.0
580,164.3199114375,164.556653625,58.0,86.0
581,164.0926389375,164.632411125,60.0,114.0
582,163.6380939375,164.6608201875,53.0,80.0
583,164.0926389375,164.6949110625,65.0,113.0
584,163.1835489375,164.7119565,46.0,88.0
585,165.0017289375,165.64377375,63.0,102.0
586,165.0017289375,165.6683949375,67.0,100.0
587,165.0017289375,165.677864625,60.0,100.0
588,165.6835464375,166.090743,55.0,81.0
589,166.3653639375,166.480894125,55.0,86.0
590,165.0017289375,166.5509698125,48.0,90.0
591,165.9108189375,166.700590875,63.0,113.0
592,165.9108189375,166.7214241875,67.0,110.0
593,165.9108189375,166.746045375,60.0,110.0
594,166.8199089375,167.5168779375,58.0,92.0
595,166.8199089375,167.518771875,62.0,108.0
596,166.8199089375,167.5206658125,67.0,92.0
597,167.5017264375,167.7933928125,55.0,91.0
598,167.7289989375,168.0130895625,67.0,91.0
599,166.8199089375,168.147559125,43.0,88.0
600,167.9562714375,168.2100590625,55.0,102.0
601,167.2744539375,168.2441499375,50.0,78.0
602,167.7289989375,168.2441499375,58.0,114.0
603,168.1835439375,168.4392255,62.0,107.0
604,168.4108164375,168.5907405,67.0,89.0
605,168.6380889375,169.34073975,63.0,108.0
606,168.6380889375,169.3539973125,67.0,94.0
607,168.6380889375,169.3691488125,60.0,107.0
608,169.3199064375,169.6305121875,56.0,86.0
609,169.0926339375,170.0433905625,51.0,67.0
610,169.5471789375,170.06801175,67.0,107.0
611,169.5471789375,170.0812693125,63.0,113.0
612,170.0017239375,170.124829875,56.0,85.0
613,168.6380889375,170.1267238125,44.0,88.0
614,169.5471789375,170.3615720625,60.0,113.0
615,170.4562689375,171.0244501875,55.0,93.0
616,170.4562689375,171.1077834375,58.0,94.0
617,170.4562689375,171.109677375,63.0,87.0
618,171.1380864375,171.4941466875,51.0,85.0
619,171.3653589375,171.7971766875,58.0,110.0
620,170.4562689375,171.81232818750001,39.0,93.0
621,171.3653589375,171.882403875,63.0,114.0
622,171.3653589375,171.9297523125,67.0,107.0
623,171.8199039375,172.09831275,51.0,88.0
624,172.2744489375,172.96194825,68.0,97.0
625,172.2744489375,172.969524,60.0,94.0
626,172.2744489375,172.97709975,63.0,113.0
627,172.9562664375,173.2592964375,56.0,91.0
628,173.1835389375,173.5774779375,60.0,108.0
629,172.7289939375,173.6816445,51.0,75.0
630,172.2744489375,173.6986899375,44.0,89.0
631,173.1835389375,173.7555080625,68.0,119.0
632,173.6380839375,173.829371625,56.0,90.0
633,173.1835389375,173.9543715,63.0,116.0
634,173.8653564375,174.056644125,65.0,83.0
635,173.8653564375,174.1911136875,62.0,86.0
636,174.0926289375,174.594522375,70.0,104.0
637,174.7744464375,174.9032341875,60.0,114.0
638,174.5471739375,174.9827795625,58.0,104.0
639,175.0017189375,175.030128,65.0,98.0
640,175.0017189375,175.329370125,62.0,116.0
641,175.2289914375,175.3842943125,58.0,114.0
642,174.3199014375,175.3880821875,53.0,85.0
643,174.0926289375,175.435430625,46.0,88.0
644,175.4562639375,175.624824375,65.0,117.0
645,175.6835364375,175.8539908125,58.0,82.0
646,175.9108089375,176.124823875,63.0,100.0
647,175.9108089375,176.1645965625,67.0,104.0
648,175.9108089375,176.5661113125,58.0,91.0
649,176.5926264375,176.799065625,55.0,88.0
650,176.3653539375,176.889974625,51.0,89.0
651,175.9108089375,177.29527725,39.0,100.0
652,176.8198989375,177.3123226875,58.0,116.0
653,176.1380814375,177.333156,46.0,86.0
654,176.8198989375,177.61345875,63.0,114.0
655,177.2744439375,177.7176253125,51.0,83.0
656,177.7289889375,177.8842918125,58.0,89.0
657,177.7289889375,178.16838243750001,62.0,107.0
658,177.7289889375,178.2176248125,65.0,102.0
659,178.4108064375,178.5698971875,60.0,91.0
660,178.1835339375,178.636185,58.0,90.0
661,178.6380789375,178.973305875,62.0,108.0
662,178.6380789375,178.9751998125,65.0,117.0
663,178.8653514375,179.1191390625,58.0,102.0
664,177.7289889375,179.2176238125,46.0,89.0
665,179.0926239375,179.253608625,65.0,91.0
666,177.9562614375,179.3483055,53.0,80.0
667,179.0926239375,179.480881125,62.0,88.0
668,179.3198964375,179.4865629375,67.0,82.0
669,179.5471689375,180.246031875,67.0,100.0
670,179.5471689375,180.276334875,60.0,107.0
671,179.5471689375,180.29527425,63.0,108.0
672,179.5471689375,180.7365616875,48.0,90.0
673,180.2289864375,180.7517131875,55.0,85.0
674,180.4562589375,180.969516,60.0,113.0
675,180.9108039375,181.0168644375,48.0,88.0
676,180.4562589375,181.0661068125,67.0,108.0
677,180.4562589375,181.268758125,63.0,114.0
678,181.3653489375,181.8312575625,67.0,90.0
679,181.3653489375,181.88618175,58.0,91.0
680,181.3653489375,181.9676210625,62.0,98.0
681,182.0471664375,182.2251965625,58.0,85.0
682,181.8198939375,182.302848,55.0,86.0
683,182.2744389375,182.6608021875,67.0,116.0
684,182.2744389375,182.6759536875,58.0,88.0
685,181.3653489375,182.715726375,43.0,89.0
686,181.59262143750001,182.7289839375,50.0,74.0
687,182.5017114375,182.730877875,55.0,108.0
688,182.7289839375,183.0585290625,62.0,98.0
689,182.9562564375,183.81042225,67.0,104.0
690,183.1835289375,183.889967625,63.0,113.0
691,183.1835289375,183.8956494375,60.0,104.0
692,183.8653464375,184.18920975,56.0,85.0
693,183.6380739375,184.6418608125,51.0,68.0
694,184.5471639375,184.647542625,56.0,86.0
695,183.1835289375,184.6948910625,44.0,89.0
696,184.0926189375,184.7365576875,60.0,114.0
697,184.0926189375,184.77254250000001,67.0,113.0
698,184.0926189375,184.852087875,63.0,117.0
699,185.0017089375,185.4411024375,67.0,94.0
700,185.0017089375,185.4789811875,63.0,113.0
701,185.0017089375,185.7441324375,58.0,93.0
702,185.9107989375,186.1664805,63.0,107.0
703,185.9107989375,186.2024653125,55.0,113.0
704,185.0017089375,186.2971621875,39.0,96.0
705,185.4562539375,186.3539803125,46.0,80.0
706,185.6835264375,186.4600408125,51.0,98.0
707,186.1380714375,186.480874125,58.0,108.0
708,186.3653439375,186.700570875,63.0,96.0
709,186.8198889375,187.545267,60.0,92.0
710,186.8198889375,187.556630625,67.0,93.0
711,186.8198889375,187.67405475,63.0,102.0
712,186.8198889375,187.6911001875,44.0,88.0
713,187.7289789375,188.44678125,58.0,91.0
714,187.7289789375,188.5092811875,65.0,91.0
715,187.7289789375,188.636175,46.0,85.0
716,187.7289789375,188.6380689375,62.0,98.0
717,188.6380689375,188.806629375,63.0,81.0
718,188.6380689375,188.8464020625,67.0,84.0
719,188.6380689375,189.3501894375,58.0,82.0
720,189.0926139375,189.59829525,51.0,86.0
721,189.3198864375,189.605871,55.0,73.0
722,189.5471589375,190.0509463125,63.0,107.0
723,189.5471589375,190.1039765625,58.0,88.0
724,188.8653414375,190.3918550625,46.0,80.0
725,190.0017039375,190.393749,51.0,77.0
726,188.6380689375,190.4259459375,39.0,88.0
727,190.4562489375,191.35586925,59.0,88.0
728,190.4562489375,191.359657125,68.0,90.0
729,191.3653389375,192.99223125,68.0,83.0
730,191.3653389375,192.996019125,59.0,86.0
731,190.4562489375,193.0774584375,64.0,96.0
732,190.4562489375,193.70435175,52.0,86.0
733,190.4562489375,193.7365486875,40.0,86.0
734,193.1835189375,193.76495775,68.0,84.0
735,193.1835189375,193.783897125,59.0,82.0
736,193.1835189375,193.844503125,64.0,86.0
737,194.0926089375,194.8766990625,59.0,87.0
738,194.0926089375,194.8918505625,63.0,91.0
739,194.0926089375,194.8994263125,66.0,88.0
740,194.0926089375,195.41647125,35.0,89.0
741,194.0926089375,195.4941226875,47.0,88.0
742,195.0016989375,195.575562,59.0,87.0
743,195.0016989375,195.7289709375,66.0,86.0
744,195.0016989375,195.817986,63.0,91.0
745,195.9107889375,197.6948780625,63.0,91.0
746,195.9107889375,197.6986659375,66.0,96.0
747,195.9107889375,197.7251810625,71.0,90.0
748,195.9107889375,197.7479083125,47.0,91.0
749,197.7289689375,198.3274531875,64.0,102.0
750,197.7289689375,198.427831875,56.0,96.0
751,197.7289689375,198.435407625,59.0,107.0
752,198.4107864375,198.7933618125,52.0,84.0
753,198.6380589375,199.06798275,56.0,107.0
754,197.7289689375,199.132376625,40.0,94.0
755,198.6380589375,199.2857855625,64.0,110.0
756,198.6380589375,199.3785885,59.0,113.0
757,199.0926039375,199.4032096875,52.0,75.0
758,199.5471489375,199.9032091875,59.0,98.0
759,199.5471489375,200.2441179375,66.0,102.0
760,199.5471489375,200.306617875,63.0,104.0
761,200.2289664375,200.511163125,59.0,88.0
762,200.6835114375,200.920253625,59.0,86.0
763,200.4562389375,200.996011125,61.0,114.0
764,200.0016939375,201.0244201875,54.0,80.0
765,200.4562389375,201.0585110625,66.0,113.0
766,199.5471489375,201.0755565,47.0,88.0
767,201.3653289375,202.00737375,64.0,102.0
768,201.3653289375,202.0319949375,68.0,100.0
769,201.3653289375,202.041464625,61.0,100.0
770,202.0471464375,202.454343,56.0,81.0
771,202.7289639375,202.844494125,56.0,86.0
772,201.3653289375,202.9145698125,49.0,90.0
773,202.2744189375,203.064190875,64.0,113.0
774,202.2744189375,203.0850241875,68.0,110.0
775,202.2744189375,203.109645375,61.0,110.0
776,203.1835089375,203.8804779375,59.0,92.0
777,203.1835089375,203.882371875,63.0,108.0
778,203.1835089375,203.8842658125,68.0,92.0
779,203.8653264375,204.1569928125,56.0,91.0
780,204.09259893750001,204.3766895625,68.0,91.0
781,203.1835089375,204.511159125,44.0,88.0
782,204.3198714375,204.5736590625,56.0,102.0
783,203.6380539375,204.6077499375,51.0,78.0
784,204.09259893750001,204.6077499375,59.0,114.0
785,204.5471439375,204.8028255,63.0,107.0
786,204.7744164375,204.9543405,68.0,89.0
787,205.0016889375,205.70433975,64.0,108.0
788,205.0016889375,205.7175973125,68.0,94.0
789,205.0016889375,205.7327488125,61.0,107.0
790,205.6835064375,205.9941121875,57.0,86.0
791,205.4562339375,206.4069905625,52.0,67.0
792,205.9107789375,206.43161175,68.0,107.0
793,205.9107789375,206.4448693125,64.0,113.0
794,206.3653239375,206.488429875,57.0,85.0
795,205.0016889375,206.4903238125,45.0,88.0
796,205.9107789375,206.7251720625,61.0,113.0
797,206.8198689375,207.3880501875,56.0,93.0
798,206.8198689375,207.4713834375,59.0,94.0
799,206.8198689375,207.473277375,64.0,87.0
800,207.5016864375,207.8577466875,52.0,85.0
801,207.7289589375,208.1607766875,59.0,110.0
802,206.8198689375,208.1759281875,40.0,93.0
803,207.7289589375,208.246003875,64.0,114.0
804,207.7289589375,208.2933523125,68.0,107.0
805,208.1835039375,208.46191275,52.0,88.0
806,208.6380489375,209.32554825,69.0,97.0
807,208.6380489375,209.333124,61.0,94.0
808,208.6380489375,209.34069975,64.0,113.0
809,209.3198664375,209.6228964375,57.0,91.0
810,209.5471389375,209.9410779375,61.0,108.0
811,209.0925939375,210.0452445,52.0,75.0
812,208.6380489375,210.0622899375,45.0,89.0
813,209.5471389375,210.1191080625,69.0,119.0
814,210.0016839375,210.192971625,57.0,90.0
815,209.5471389375,210.3179715,64.0,116.0
816,210.2289564375,210.420244125,66.0,83.0
817,210.2289564375,210.5547136875,63.0,86.0
818,210.4562289375,210.958122375,71.0,104.0
819,211.1380464375,211.2668341875,61.0,114.0
820,210.9107739375,211.3463795625,59.0,104.0
821,211.3653189375,211.393728,66.0,98.0
822,211.3653189375,211.692970125,63.0,116.0
823,211.5925914375,211.7478943125,59.0,114.0
824,210.6835014375,211.7516821875,54.0,85.0
825,210.4562289375,211.799030625,47.0,88.0
826,211.8198639375,211.988424375,66.0,117.0
827,212.0471364375,212.2175908125,59.0,82.0
828,212.2744089375,212.488423875,64.0,100.0
829,212.2744089375,212.5281965625,68.0,104.0
830,212.2744089375,212.9297113125,59.0,91.0
831,212.9562264375,213.162665625,56.0,88.0
832,212.7289539375,213.253574625,52.0,89.0
833,212.2744089375,213.65887725,40.0,100.0
834,213.1834989375,213.6759226875,59.0,116.0
835,212.5016814375,213.696756,47.0,86.0
836,213.1834989375,213.97705875,64.0,114.0
837,213.6380439375,214.0812253125,52.0,83.0
838,214.0925889375,214.2478918125,59.0,89.0
839,214.0925889375,214.5319824375,63.0,107.0
840,214.0925889375,214.5812248125,66.0,102.0
841,214.7744064375,214.9334971875,61.0,91.0
842,214.5471339375,214.999785,59.0,90.0
843,215.0016789375,215.336905875,63.0,108.0
844,215.0016789375,215.3387998125,66.0,117.0
845,215.2289514375,215.4827390625,59.0,102.0
846,214.0925889375,215.5812238125,47.0,89.0
847,215.4562239375,215.617208625,66.0,91.0
848,214.3198614375,215.7119055,54.0,80.0
849,215.4562239375,215.844481125,63.0,88.0
850,215.6834964375,215.8501629375,68.0,82.0
851,215.9107689375,216.609631875,68.0,100.0
852,215.9107689375,216.639934875,61.0,107.0
853,215.9107689375,216.65887425,64.0,108.0
854,215.9107689375,217.1001616875,49.0,90.0
855,216.5925864375,217.1153131875,56.0,85.0
856,216.8198589375,217.333116,61.0,113.0
857,217.2744039375,217.3804644375,49.0,88.0
858,216.8198589375,217.4297068125,68.0,108.0
859,216.8198589375,217.632358125,64.0,114.0
860,217.7289489375,218.1948575625,68.0,90.0
861,217.7289489375,218.24978175,59.0,91.0
862,217.7289489375,218.3312210625,63.0,98.0
863,218.4107664375,218.5887965625,59.0,85.0
864,218.1834939375,218.666448,56.0,86.0
865,218.6380389375,219.0244021875,68.0,116.0
866,218.6380389375,219.0395536875,59.0,88.0
867,217.7289489375,219.079326375,44.0,89.0
868,217.9562214375,219.0925839375,51.0,74.0
869,218.8653114375,219.094477875,56.0,108.0
870,219.0925839375,219.4221290625,63.0,98.0
871,219.3198564375,220.17402225,68.0,104.0
872,219.5471289375,220.253567625,64.0,113.0
873,219.5471289375,220.2592494375,61.0,104.0
874,220.2289464375,220.55280975,57.0,85.0
875,220.0016739375,221.0054608125,52.0,68.0
876,220.9107639375,221.011142625,57.0,86.0
877,219.5471289375,221.0584910625,45.0,89.0
878,220.4562189375,221.1001576875,61.0,114.0
879,220.4562189375,221.1361425,68.0,113.0
880,220.4562189375,221.21568787500001,64.0,117.0
881,221.3653089375,221.8047024375,68.0,94.0
882,221.3653089375,221.8425811875,64.0,113.0
883,221.3653089375,222.1077324375,59.0,93.0
884,222.2743989375,222.5300805,64.0,107.0
885,222.2743989375,222.5660653125,56.0,113.0
886,221.3653089375,222.6607621875,40.0,96.0
887,221.8198539375,222.7175803125,47.0,80.0
888,222.0471264375,222.8236408125,52.0,98.0
889,222.5016714375,222.844474125,59.0,108.0
890,222.7289439375,223.064170875,64.0,96.0
891,223.1834889375,223.908867,61.0,92.0
892,223.1834889375,223.920230625,68.0,93.0
893,223.1834889375,224.03765475,64.0,102.0
894,223.1834889375,224.0547001875,45.0,88.0
895,224.0925789375,224.81038125,59.0,91.0
896,224.0925789375,224.8728811875,66.0,91.0
897,224.0925789375,224.999775,47.0,85.0
898,224.0925789375,225.0016689375,63.0,98.0
899,225.0016689375,225.170229375,64.0,81.0
900,225.0016689375,225.2100020625,68.0,84.0
901,225.0016689375,225.7137894375,59.0,82.0
902,225.4562139375,225.96189525,52.0,86.0
903,225.6834864375,225.969471,56.0,73.0
904,225.9107589375,226.4145463125,64.0,107.0
905,225.9107589375,226.4675765625,59.0,88.0
906,225.2289414375,227.1115153125,47.0,80.0
907,226.3653039375,227.11340925,52.0,77.0
908,225.0016689375,227.1456061875,40.0,88.0
909,226.5925764375,227.4259089375,56.0,71.0
910,226.8198489375,227.5243936875,64.0,87.0
911,226.8198489375,227.6001511875,59.0,74.0
912,227.7289389375,231.7440864375,57.0,73.0
913,227.7289389375,231.81795,69.0,70.0
914,227.7289389375,231.8577226875,64.0,78.0
915,227.7289389375,231.8804499375,45.0,78.0
916,227.7289389375,231.8804499375,61.0,76.0
917,232.2743889375,235.3652949375,68.0,77.0
918,232.2743889375,235.4088555,40.0,38.0
919,232.2743889375,235.4410524375,59.0,67.0
920,232.2743889375,235.4599918125,52.0,66.0
921,232.2743889375,235.4902948125,64.0,73.0
922,235.9107489375,238.935367125,69.0,75.0
923,235.9107489375,239.0622609375,61.0,36.0
924,235.9107489375,239.1039275625,45.0,65.0
925,239.5471089375,240.4978655625,40.0,38.0
926,239.5471089375,240.545214,52.0,54.0
927,239.5471089375,240.545214,59.0,38.0
928,235.9107489375,240.545214,64.0,36.0
929,239.5471089375,240.5660473125,68.0,56.0
