,start,end,pitch,velocity
0,25.131919312500003,25.60552995,64.0,82.0
1,25.798585312500002,26.344418100000002,64.0,78.0
2,26.4652513125,26.959695262500002,64.0,78.0
3,27.1319173125,27.3846948375,64.0,82.0
4,27.4652503125,27.7333056,69.0,76.0
5,27.7985833125,28.4235826875,67.0,76.0
6,28.465249312500003,29.011082100000003,62.0,77.0
7,29.131915312500002,30.337469662500002,62.0,77.0
8,30.4652473125,31.0180245375,60.0,78.0
9,31.1319133125,31.6596905625,60.0,77.0
10,31.798579312500003,32.3666343,60.0,78.0
11,32.4652453125,32.701356187500004,60.0,80.0
12,32.7985783125,33.0458002875,65.0,78.0
13,33.1319113125,33.704132962500005,64.0,79.0
14,33.7985773125,34.431910012500005,59.0,78.0
15,34.4652433125,35.1569092875,59.0,78.0
16,35.1319093125,35.373575737500005,60.0,78.0
17,35.4652423125,35.774964225000005,59.0,78.0
18,35.7985753125,36.3263525625,57.0,77.0
19,36.4652413125,36.994407450000004,57.0,77.0
20,37.131907312500005,37.384684837500004,57.0,74.0
21,37.4652403125,37.7152400625,59.0,76.0
22,37.798573312500004,38.036073075000004,60.0,77.0
23,38.1319063125,38.40551715,62.0,76.0
24,38.4652393125,39.129127537500004,60.0,79.0
25,39.1319053125,39.781904662500004,55.0,79.0
26,39.7985713125,40.4624595375,64.0,78.0
27,40.798570312500004,41.0819033625,64.0,80.0
28,41.1319033125,41.458291875,62.0,71.0
29,41.465236312500004,41.7069027375,60.0,76.0
30,41.7985693125,42.119402325,60.0,76.0
31,42.1319023125,42.37217985,57.0,76.0
32,42.4652353125,43.0888458,59.0,77.0
33,43.1319013125,43.798567312500005,60.0,77.0
34,43.798567312500005,45.894398550000005,62.0,74.0
35,46.4652313125,46.938841950000004,64.0,82.0
36,47.1318973125,47.677730100000005,64.0,78.0
37,47.7985633125,48.293007262500005,64.0,78.0
38,48.4652293125,48.7180068375,64.0,82.0
39,48.7985623125,49.0666176,69.0,76.0
40,49.1318953125,49.7568946875,67.0,76.0
41,49.798561312500006,50.3443941,62.0,77.0
42,50.465227312500005,51.670781662500005,62.0,77.0
43,51.798559312500004,52.3513365375,60.0,78.0
44,52.4652253125,52.9930025625,60.0,77.0
45,53.1318913125,53.6999463,60.0,78.0
46,53.7985573125,54.0346681875,60.0,80.0
47,54.131890312500005,54.3791122875,65.0,78.0
48,54.4652233125,55.037444962500004,64.0,79.0
49,55.1318893125,55.765222012500004,59.0,78.0
50,55.7985553125,56.490221287500006,59.0,78.0
51,56.465221312500006,56.706887737500004,60.0,78.0
52,56.7985543125,57.108276225000004,59.0,78.0
53,57.131887312500005,57.659664562500005,57.0,77.0
54,57.798553312500005,58.327719450000004,57.0,77.0
55,58.465219312500004,58.7179968375,57.0,74.0
56,58.7985523125,59.0485520625,59.0,76.0
57,59.1318853125,59.369385075000004,60.0,77.0
58,59.4652183125,59.73882915,62.0,76.0
59,59.7985513125,60.4624395375,60.0,79.0
60,60.4652173125,61.1152166625,55.0,79.0
61,61.1318833125,61.7957715375,64.0,78.0
62,62.131882312500004,62.4152153625,64.0,80.0
63,62.4652153125,62.791603875,62.0,71.0
64,62.7985483125,63.0402147375,60.0,76.0
65,63.131881312500006,63.452714325,60.0,76.0
66,63.4652143125,63.70549185,57.0,76.0
67,63.798547312500006,64.42215780000001,59.0,77.0
68,64.4652133125,65.1318793125,62.0,77.0
69,65.1318793125,67.22771055,60.0,74.0
70,70.4652073125,70.9818734625,60.0,78.0
71,71.1318733125,71.666595,60.0,79.0
72,71.7985393125,72.1652056125,60.0,80.0
73,72.13187231250001,72.3874276125,62.0,77.0
74,72.4652053125,72.6957606375,64.0,78.0
75,72.7985383125,73.030482525,65.0,77.0
76,73.13187131250001,73.658259675,67.0,76.0
77,73.7985373125,74.369370075,67.0,78.0
78,74.46520331250001,75.0040916625,67.0,78.0
79,75.1318693125,75.4096468125,64.0,82.0
80,75.4652023125,75.7846464375,62.0,77.0
81,75.79853531250001,76.363812525,60.0,76.0
82,76.4652013125,76.98325635,60.0,77.0
83,77.1318673125,77.3596448625,60.0,78.0
84,77.4652003125,77.741588925,62.0,77.0
85,77.7985333125,78.024921975,64.0,77.0
86,78.13186631250001,78.38464383750001,65.0,76.0
87,78.4651993125,78.9763099125,67.0,76.0
88,79.1318653125,79.702698075,67.0,76.0
89,79.7985313125,80.2554753,67.0,74.0
90,80.46519731250001,80.71519706250001,64.0,77.0
91,80.7985303125,81.074918925,62.0,75.0
92,81.1318633125,81.708251625,60.0,79.0
93,81.79852931250001,82.3346398875,72.0,79.0
94,82.4651953125,83.0124169875,71.0,76.0
95,83.1318613125,83.69436075,67.0,77.0
96,83.7985273125,84.33324900000001,69.0,77.0
97,84.4651933125,84.6999153,67.0,71.0
98,84.7985263125,85.0457482875,65.0,76.0
99,85.1318593125,85.6457476875,67.0,71.0
100,86.1318583125,86.3735247375,60.0,82.0
101,86.46519131250001,86.98324635,65.0,80.0
102,87.1318573125,87.6790789875,67.0,74.0
103,87.79852331250001,88.6151891625,69.0,76.0
104,88.7985223125,89.3651884125,67.0,78.0
105,89.4651883125,90.89435355,67.0,76.0
106,91.7985193125,92.3151854625,60.0,78.0
107,92.4651853125,92.99990700000001,60.0,79.0
108,93.1318513125,93.49851761250001,60.0,80.0
109,93.4651843125,93.7207396125,62.0,77.0
110,93.79851731250001,94.02907263750001,64.0,78.0
111,94.1318503125,94.363794525,65.0,77.0
112,94.4651833125,94.991571675,67.0,76.0
113,95.13184931250001,95.702682075,67.0,78.0
114,95.7985153125,96.33740366250001,67.0,78.0
115,96.46518131250001,96.7429588125,64.0,82.0
116,96.7985143125,97.11795843750001,62.0,77.0
117,97.1318473125,97.697124525,60.0,76.0
118,97.7985133125,98.31656835000001,60.0,77.0
119,98.4651793125,98.6929568625,60.0,78.0
120,98.79851231250001,99.07490092500001,62.0,77.0
121,99.1318453125,99.358233975,64.0,77.0
122,99.4651783125,99.7179558375,65.0,76.0
123,99.79851131250001,100.3096219125,67.0,76.0
124,100.4651773125,101.03601007500001,67.0,76.0
125,101.13184331250001,101.5887873,67.0,74.0
126,101.7985093125,102.0485090625,64.0,77.0
127,102.1318423125,102.408230925,62.0,75.0
128,102.46517531250001,103.04156362500001,60.0,79.0
129,103.1318413125,103.66795188750001,72.0,79.0
130,103.7985073125,104.34572898750001,71.0,76.0
131,104.4651733125,104.79572853750001,69.0,77.0
132,104.79850631250001,105.12906153750001,67.0,77.0
133,105.1318393125,105.666561,69.0,77.0
134,105.7985053125,106.03322730000001,67.0,71.0
135,106.13183831250001,106.37906028750001,65.0,76.0
136,106.4651713125,106.9790596875,67.0,71.0
137,107.4651703125,107.7068367375,60.0,82.0
138,107.7985033125,108.31655835000001,65.0,80.0
139,108.46516931250001,109.0123909875,67.0,74.0
140,109.1318353125,109.79572353750001,64.0,76.0
141,109.79850131250001,110.07211215000001,62.0,78.0
142,110.1318343125,110.72086183125,60.0,77.0
143,110.79881278125,112.94803183125,60.0,78.0
144,121.1526380625,121.6262487,64.0,82.0
145,121.81930406250001,122.36513685,64.0,78.0
146,122.4859700625,122.9804140125,64.0,78.0
147,123.15263606250001,123.40541358750001,64.0,82.0
148,123.4859690625,123.75402435000001,69.0,76.0
149,123.8193020625,124.4443014375,67.0,76.0
150,124.4859680625,125.03180085,62.0,77.0
151,125.1526340625,126.3581884125,62.0,77.0
152,126.4859660625,127.0387432875,60.0,78.0
153,127.1526320625,127.6804093125,60.0,77.0
154,127.8192980625,128.38735305,60.0,78.0
155,128.4859640625,128.7220749375,60.0,80.0
156,128.8192970625,129.0665190375,65.0,78.0
157,129.1526300625,129.7248517125,64.0,79.0
158,129.8192960625,130.4526287625,59.0,78.0
159,130.4859620625,131.1776280375,59.0,78.0
160,131.1526280625,131.3942944875,60.0,78.0
161,131.4859610625,131.795682975,59.0,78.0
162,131.8192940625,132.3470713125,57.0,77.0
163,132.4859600625,133.0151262,57.0,77.0
164,133.1526260625,133.40540358750002,57.0,74.0
165,133.4859590625,133.7359588125,59.0,76.0
166,133.8192920625,134.056791825,60.0,77.0
167,134.1526250625,134.4262359,62.0,76.0
168,134.4859580625,135.1498462875,60.0,79.0
169,135.1526240625,135.8026234125,55.0,79.0
170,135.81929006250002,136.4831782875,64.0,78.0
171,136.8192890625,137.1026221125,64.0,80.0
172,137.1526220625,137.479010625,62.0,71.0
173,137.4859550625,137.72762148750002,60.0,76.0
174,137.8192880625,138.140121075,60.0,76.0
175,138.1526210625,138.3928986,57.0,76.0
176,138.4859540625,139.10956455000002,59.0,77.0
177,139.1526200625,139.8192860625,62.0,77.0
178,139.8192860625,141.9151173,60.0,74.0
179,145.1526140625,145.6692802125,60.0,78.0
180,145.8192800625,146.35400175,60.0,79.0
181,146.4859460625,146.8526123625,60.0,80.0
182,146.81927906250002,147.0748343625,62.0,77.0
183,147.1526120625,147.3831673875,64.0,78.0
184,147.4859450625,147.717889275,65.0,77.0
185,147.81927806250002,148.345666425,67.0,76.0
186,148.4859440625,149.05677682500001,67.0,78.0
187,149.1526100625,149.6914984125,67.0,78.0
188,149.8192760625,150.0970535625,64.0,82.0
189,150.1526090625,150.4720531875,62.0,77.0
190,150.48594206250002,151.051219275,60.0,76.0
191,151.1526080625,151.6706631,60.0,77.0
192,151.8192740625,152.0470516125,60.0,78.0
193,152.1526070625,152.428995675,62.0,77.0
194,152.4859400625,152.71232872500002,64.0,77.0
195,152.8192730625,153.0720505875,65.0,76.0
196,153.1526060625,153.6637166625,67.0,76.0
197,153.8192720625,154.390104825,67.0,76.0
198,154.4859380625,154.94288205,67.0,74.0
199,155.15260406250002,155.4026038125,64.0,77.0
200,155.4859370625,155.762325675,62.0,75.0
201,155.8192700625,156.395658375,60.0,79.0
202,156.4859360625,157.0220466375,72.0,79.0
203,157.1526020625,157.6998237375,71.0,76.0
204,157.8192680625,158.3817675,67.0,77.0
205,158.4859340625,159.02065575,69.0,77.0
206,159.1526000625,159.38732205,67.0,71.0
207,159.4859330625,159.7331550375,65.0,76.0
208,159.8192660625,160.3331544375,67.0,71.0
209,160.8192650625,161.0609314875,60.0,82.0
210,161.1525980625,161.6706531,65.0,80.0
211,161.8192640625,162.3664857375,67.0,74.0
212,162.48593006250002,163.3025959125,69.0,76.0
213,163.48592906250002,164.0525951625,67.0,78.0
214,164.1525950625,165.5817603,67.0,76.0
215,166.4859260625,167.00259221250002,60.0,78.0
216,167.1525920625,167.68731375,60.0,79.0
217,167.8192580625,168.1859243625,60.0,80.0
218,168.1525910625,168.40814636250002,62.0,77.0
219,168.4859240625,168.7164793875,64.0,78.0
220,168.81925706250001,169.051201275,65.0,77.0
221,169.1525900625,169.678978425,67.0,76.0
222,169.81925606250002,170.39008882500002,67.0,78.0
223,170.4859220625,171.02481041250002,67.0,78.0
224,171.1525880625,171.43036556250001,64.0,82.0
225,171.4859210625,171.8053651875,62.0,77.0
226,171.81925406250002,172.384531275,60.0,76.0
227,172.4859200625,173.0039751,60.0,77.0
228,173.1525860625,173.3803636125,60.0,78.0
229,173.4859190625,173.762307675,62.0,77.0
230,173.8192520625,174.045640725,64.0,77.0
231,174.1525850625,174.4053625875,65.0,76.0
232,174.4859180625,174.9970286625,67.0,76.0
233,175.1525840625,175.72341682500002,67.0,76.0
234,175.8192500625,176.27619405000002,67.0,74.0
235,176.4859160625,176.7359158125,64.0,77.0
236,176.8192490625,177.095637675,62.0,75.0
237,177.15258206250002,177.72897037500002,60.0,79.0
238,177.8192480625,178.3553586375,72.0,79.0
239,178.4859140625,179.0331357375,71.0,76.0
240,179.15258006250002,179.4831352875,69.0,77.0
241,179.4859130625,179.81646828750002,67.0,77.0
242,179.8192460625,180.35396775,69.0,77.0
243,180.4859120625,180.72063405,67.0,71.0
244,180.8192450625,181.0664670375,65.0,76.0
245,181.1525780625,181.6664664375,67.0,71.0
246,182.1525770625,182.3942434875,60.0,82.0
247,182.4859100625,183.00396510000002,65.0,80.0
248,183.1525760625,183.6997977375,67.0,74.0
249,183.8192420625,184.4831302875,64.0,76.0
250,184.48590806250002,184.7595189,62.0,78.0
251,184.8192410625,185.4081293625,60.0,77.0
252,185.48590706250002,187.6303493625,60.0,78.0
253,187.8192380625,188.3359042125,62.0,78.0
254,188.48590406250003,189.02062575000002,62.0,79.0
255,189.1525700625,189.5192363625,62.0,80.0
256,189.4859030625,189.7414583625,64.0,77.0
257,189.8192360625,190.04979138750002,66.0,78.0
258,190.1525690625,190.38451327500002,67.0,77.0
259,190.4859020625,191.012290425,69.0,76.0
260,191.1525680625,191.723400825,69.0,78.0
261,191.81923406250002,192.3581224125,69.0,78.0
262,192.4859000625,192.7636775625,66.0,82.0
263,192.81923306250002,193.1386771875,64.0,77.0
264,193.1525660625,193.717843275,62.0,76.0
265,193.81923206250002,194.33728710000003,62.0,77.0
266,194.4858980625,194.71367561250003,62.0,78.0
267,194.81923106250002,195.09561967500002,64.0,77.0
268,195.1525640625,195.378952725,66.0,77.0
269,195.4858970625,195.7386745875,67.0,76.0
270,195.81923006250003,196.33034066250002,69.0,76.0
271,196.4858960625,197.056728825,69.0,76.0
272,197.1525620625,197.60950605,69.0,74.0
273,197.8192280625,198.0692278125,66.0,77.0
274,198.1525610625,198.428949675,64.0,75.0
275,198.4858940625,199.062282375,62.0,79.0
276,199.15256006250002,199.68867063750002,74.0,79.0
277,199.8192260625,200.3664477375,73.0,76.0
278,200.4858920625,201.0483915,69.0,77.0
279,201.15255806250002,201.68727975000002,71.0,77.0
280,201.8192240625,202.05394605,69.0,71.0
281,202.15255706250002,202.39977903750002,67.0,76.0
282,202.4858900625,202.99977843750003,69.0,71.0
283,203.4858890625,203.7275554875,62.0,82.0
284,203.8192220625,204.3372771,67.0,80.0
285,204.4858880625,205.0331097375,69.0,74.0
286,205.1525540625,205.96921991250002,71.0,76.0
287,206.1525530625,206.7192191625,69.0,78.0
288,206.8192190625,208.2483843,69.0,76.0
289,209.1525500625,209.6692162125,62.0,78.0
290,209.8192160625,210.35393775,62.0,79.0
291,210.48588206250002,210.8525483625,62.0,80.0
292,210.8192150625,211.0747703625,64.0,77.0
293,211.1525480625,211.3831033875,66.0,78.0
294,211.48588106250003,211.717825275,67.0,77.0
295,211.8192140625,212.345602425,69.0,76.0
296,212.4858800625,213.056712825,69.0,78.0
297,213.1525460625,213.6914344125,69.0,78.0
298,213.81921206250001,214.09698956250003,66.0,82.0
299,214.1525450625,214.47198918750001,64.0,77.0
300,214.4858780625,215.051155275,62.0,76.0
301,215.1525440625,215.6705991,62.0,77.0
302,215.81921006250002,216.0469876125,62.0,78.0
303,216.1525430625,216.428931675,64.0,77.0
304,216.4858760625,216.712264725,66.0,77.0
305,216.81920906250002,217.07198658750002,67.0,76.0
306,217.1525420625,217.6636526625,69.0,76.0
307,217.81920806250002,218.390040825,69.0,76.0
308,218.4858740625,218.94281805000003,69.0,74.0
309,219.1525400625,219.4025398125,66.0,77.0
310,219.4858730625,219.762261675,64.0,75.0
311,219.8192060625,220.395594375,62.0,79.0
312,220.4858720625,221.0219826375,74.0,79.0
313,221.1525380625,221.69975973750002,73.0,76.0
314,221.8192040625,222.1497592875,71.0,77.0
315,222.15253706250002,222.48309228750003,69.0,77.0
316,222.4858700625,223.02059175,71.0,77.0
317,223.15253606250002,223.38725805,69.0,71.0
318,223.4858690625,223.7330910375,67.0,76.0
319,223.8192020625,224.3330904375,69.0,71.0
320,224.8192010625,225.0608674875,62.0,82.0
321,225.15253406250002,225.6705891,67.0,80.0
322,225.8192000625,226.3664217375,69.0,74.0
323,226.4858660625,227.1497542875,66.0,76.0
324,227.1525320625,227.4261429,64.0,78.0
325,227.4858650625,228.07475336250002,62.0,77.0
326,228.1525310625,230.2969733625,62.0,78.0
327,231.428916675,231.69836085000003,57.0,78.0
328,231.7497496875,232.0580827125,69.0,77.0
329,232.1164159875,232.4705823,67.0,71.0
330,232.5358600125,232.94974848750002,66.0,78.0
331,232.9108596375,233.31502590000002,67.0,77.0
332,233.2816926,233.6525255625,66.0,79.0
333,233.6705811,233.95530303750002,62.0,77.0
334,234.05391405,234.4414136625,66.0,78.0
335,234.47891362500002,235.0858574625,67.0,71.0
336,235.4775237375,237.9594657,64.0,74.0
337,238.10946555,238.873353675,62.0,71.0
338,238.9997424375,241.89557287500003,62.0,70.0
