,start,end,pitch,velocity
0,1.7986093125,2.2236088875,60.0,68.0
1,2.1319423125,2.3902753875,62.0,67.0
2,2.4652753125,2.8111083000000003,64.0,68.0
3,2.4652753125,2.9666637000000002,60.0,58.0
4,1.1319433125,3.5527742250000003,48.0,77.0
5,1.4652763125000001,4.0208293125,55.0,64.0
6,3.7986073125,4.1777736,59.0,65.0
7,3.7986073125,4.4902732875,62.0,71.0
8,4.1319403125,4.655550900000001,55.0,68.0
9,3.7986073125,4.7555508,47.0,71.0
10,4.4652733125,5.163883725,59.0,70.0
11,4.7986063125000005,5.2041614625,62.0,72.0
12,5.1319393125,5.2777725,67.0,67.0
13,5.7986053125,6.052771725,44.0,68.0
14,5.7986053125,6.0624939375,56.0,65.0
15,5.7986053125,6.129160537500001,59.0,69.0
16,6.4652713125000005,7.0999929,60.0,68.0
17,6.4652713125000005,7.7624922375,57.0,64.0
18,7.4652703125,8.1430474125,60.0,60.0
19,7.131937312500001,8.1958251375,64.0,69.0
20,7.7986033125,8.236102875,69.0,70.0
21,6.7986043125,8.344436100000001,52.0,63.0
22,6.4652713125000005,8.379158287500001,45.0,76.0
23,9.1319353125,9.851379037500001,52.0,70.0
24,9.7986013125,10.249989750000001,55.0,71.0
25,9.1319353125,10.2958230375,59.0,64.0
26,10.1319343125,10.524989475,52.0,70.0
27,10.4652673125,10.563878325000001,55.0,70.0
28,10.4652673125,10.5999894,59.0,70.0
29,9.465268312500001,10.604156062500001,47.0,57.0
30,9.1319353125,10.6319338125,40.0,76.0
31,11.131933312500001,11.444433,63.0,71.0
32,11.131933312500001,11.4541552125,51.0,71.0
33,11.131933312500001,11.547210675,39.0,70.0
34,11.7985993125,12.1999878,50.0,68.0
35,11.7985993125,12.4708208625,53.0,64.0
36,11.7985993125,12.9152648625,38.0,76.0
37,12.1319323125,12.943042612500001,45.0,58.0
38,12.4652653125,13.0110981,50.0,66.0
39,12.798598312500001,13.187486812500001,57.0,67.0
40,13.1319313125,13.9652638125,43.0,75.0
41,13.4652643125,13.972208250000001,50.0,69.0
42,13.7985973125,13.98331935,55.0,71.0
43,14.1319303125,14.43887445,41.0,72.0
44,14.1319303125,14.4541522125,53.0,71.0
45,14.465263312500001,14.8624851375,52.0,73.0
46,14.465263312500001,14.991651675,59.0,68.0
47,14.7985963125,15.23887365,47.0,64.0
48,14.465263312500001,15.2458180875,40.0,75.0
49,15.1319293125,15.263873625,55.0,69.0
50,15.7985953125,16.1291505375,57.0,65.0
51,15.7985953125,16.48331685,61.0,65.0
52,16.1319283125,16.836094275,52.0,65.0
53,15.7985953125,16.933316400000002,45.0,76.0
54,16.4652613125,16.999983,57.0,76.0
55,16.7985943125,17.0235940875,61.0,73.0
56,17.1319273125,17.508315825,57.0,69.0
57,17.1319273125,17.856926587500002,62.0,77.0
58,17.7985933125,18.486092625,57.0,72.0
59,18.1319263125,19.0013698875,62.0,72.0
60,17.4652603125,19.224980775000002,53.0,59.0
61,17.1319273125,19.28331405,50.0,72.0
62,19.7985913125,22.295811037500002,60.0,70.0
63,19.7985913125,22.2999777,65.0,70.0
64,19.7985913125,22.3374776625,43.0,76.0
65,22.465255312500002,22.8624771375,60.0,63.0
66,22.465255312500002,22.913865975,67.0,65.0
67,22.7985883125,24.0999759,50.0,52.0
68,22.465255312500002,24.1624758375,43.0,72.0
69,23.1319213125,24.2444202,60.0,61.0
70,23.4652543125,24.252753525000003,67.0,58.0
71,25.131919312500003,25.2999747,55.0,69.0
72,25.131919312500003,25.5291411375,60.0,72.0
73,25.465252312500002,25.754140912500002,55.0,67.0
74,25.798585312500002,26.162473837500002,60.0,65.0
75,26.1319183125,26.4958068375,55.0,69.0
76,26.4652513125,27.148583962500002,64.0,78.0
77,26.7985843125,27.1777506,55.0,61.0
78,27.1319173125,27.3846948375,60.0,71.0
79,25.131919312500003,27.4569169875,48.0,73.0
80,27.7985833125,27.9555276,59.0,67.0
81,27.7985833125,28.190249587500002,62.0,70.0
82,28.1319163125,28.5333048,59.0,64.0
83,28.465249312500003,28.863860025,62.0,69.0
84,28.798582312500002,28.9777488,59.0,59.0
85,29.131915312500002,29.2666374,59.0,76.0
86,29.4652483125,29.6569147875,59.0,64.0
87,29.131915312500002,29.780525775,67.0,64.0
88,27.7985833125,29.948581162500002,47.0,75.0
89,29.7985813125,30.013858875,62.0,68.0
90,30.1319143125,30.291636375000003,59.0,49.0
91,30.4652473125,30.8624691375,57.0,61.0
92,30.4652473125,30.890246887500002,60.0,68.0
93,30.7985803125,31.2444132,52.0,61.0
94,31.1319133125,31.5333018,60.0,68.0
95,31.4652463125,31.861079250000003,52.0,65.0
96,31.798579312500003,32.059690162500004,57.0,70.0
97,31.798579312500003,32.13885675,64.0,76.0
98,32.1319123125,32.5291341375,52.0,63.0
99,30.4652473125,32.5680229875,45.0,76.0
100,32.4652453125,32.613856275,57.0,69.0
101,32.4652453125,32.6930228625,60.0,71.0
102,33.1319113125,33.336077775,55.0,65.0
103,33.1319113125,33.56107755,59.0,70.0
104,33.465244312500005,33.8444106,55.0,63.0
105,33.7985773125,34.1777436,59.0,70.0
106,34.131910312500004,34.30552125,55.0,64.0
107,34.4652433125,34.608298725000004,55.0,73.0
108,33.1319113125,34.7930207625,40.0,77.0
109,34.4652433125,34.8402429375,59.0,76.0
110,34.4652433125,34.8624651375,64.0,76.0
111,34.7985763125,34.911076200000004,55.0,72.0
112,35.1319093125,35.452742325,51.0,82.0
113,35.1319093125,35.461075650000005,63.0,74.0
114,35.1319093125,35.6846865375,39.0,76.0
115,35.7985753125,36.202741575000005,57.0,67.0
116,35.7985753125,36.5152412625,62.0,64.0
117,36.1319083125,36.6513522375,45.0,60.0
118,35.7985753125,36.6985744125,38.0,78.0
119,36.7985743125,36.9624630375,62.0,72.0
120,36.4652413125,36.994407450000004,57.0,68.0
121,37.798573312500004,37.961073150000004,55.0,72.0
122,37.798573312500004,38.1888507,59.0,71.0
123,37.798573312500004,38.2069062375,62.0,73.0
124,37.4652403125,38.208295125,50.0,76.0
125,37.131907312500005,38.2902394875,43.0,77.0
126,38.1319063125,38.437461562500005,55.0,66.0
127,38.4652393125,38.8874611125,55.0,69.0
128,38.4652393125,39.1735719375,64.0,74.0
129,38.4652393125,39.18329415,40.0,77.0
130,38.7985723125,39.1874608125,47.0,69.0
131,39.1319053125,39.49440495,55.0,75.0
132,39.4652383125,40.2555153,64.0,76.0
133,40.131904312500005,40.591626075,52.0,75.0
134,40.4652373125,40.6569037875,57.0,71.0
135,39.7985713125,40.823570287500004,45.0,77.0
136,40.4652373125,40.837459162500004,61.0,76.0
137,40.798570312500004,41.197181025,57.0,70.0
138,41.1319033125,41.865235912500005,65.0,72.0
139,41.1319033125,42.04995795,50.0,76.0
140,41.465236312500004,42.1263467625,53.0,62.0
141,41.7985693125,42.17218005,62.0,72.0
142,42.127735650000005,42.3957909375,38.0,78.0
143,42.1319023125,42.4346797875,57.0,77.0
144,42.4652353125,42.9513459375,60.0,74.0
145,42.4652353125,43.072179150000004,69.0,70.0
146,42.7985683125,43.1652346125,57.0,66.0
147,42.4652353125,43.322178900000004,42.0,72.0
148,43.1319013125,43.422178800000005,64.0,58.0
149,43.1319013125,43.6207897125,60.0,69.0
150,43.4652343125,43.709678512500005,57.0,61.0
151,43.4569009875,43.719400725,38.0,61.0
152,43.798567312500005,44.2096780125,55.0,70.0
153,43.798567312500005,44.48328885,62.0,71.0
154,44.465233312500004,44.8596773625,55.0,78.0
155,44.7985663125,45.1818992625,62.0,76.0
156,45.1318993125,45.5291211375,67.0,76.0
157,45.4652323125,45.618009937500005,55.0,71.0
158,44.1319003125,45.9291207375,50.0,67.0
159,43.798567312500005,46.0791205875,43.0,75.0
160,45.7985653125,46.48328685,55.0,77.0
161,46.4652313125,46.48328685,55.0,69.0
162,46.1318983125,46.497175725000005,50.0,78.0
163,45.7985653125,46.511064600000005,62.0,73.0
164,46.1318983125,46.5263423625,43.0,51.0
165,46.4652313125,46.862453137500005,60.0,72.0
166,46.798564312500005,47.087452912500005,55.0,67.0
167,47.1318973125,47.4957858375,60.0,65.0
168,47.465230312500005,47.829118837500005,55.0,69.0
169,47.7985633125,48.481895962500005,64.0,78.0
170,48.131896312500004,48.5110626,55.0,61.0
171,48.4652293125,48.7180068375,60.0,71.0
172,46.4652313125,48.7902289875,48.0,73.0
173,49.1318953125,49.2888396,59.0,67.0
174,49.1318953125,49.523561587500005,62.0,70.0
175,49.4652283125,49.8666168,59.0,64.0
176,49.798561312500006,50.197172025,62.0,69.0
177,50.1318943125,50.3110608,59.0,59.0
178,50.465227312500005,50.5999494,59.0,76.0
179,49.1318953125,50.897171325,47.0,75.0
180,50.7985603125,50.9902267875,59.0,64.0
181,50.465227312500005,51.113837775,67.0,64.0
182,51.147171075,51.4374485625,59.0,68.0
183,51.131893312500004,51.474948525,65.0,68.0
184,51.4652263125,51.624948375,59.0,49.0
185,51.147171075,51.6888372,44.0,68.0
186,51.798559312500004,52.1957811375,57.0,61.0
187,51.798559312500004,52.223558887500005,60.0,68.0
188,52.1318923125,52.5777252,52.0,61.0
189,52.4652253125,52.8666138,60.0,68.0
190,52.7985583125,53.19439125,52.0,65.0
191,53.1318913125,53.393002162500004,57.0,70.0
192,53.1318913125,53.47216875,64.0,76.0
193,53.465224312500006,53.8624461375,52.0,63.0
194,51.798559312500004,53.9013349875,45.0,76.0
195,53.7985573125,53.947168275,57.0,69.0
196,53.7985573125,54.0263348625,60.0,71.0
197,54.4652233125,54.669389775,55.0,65.0
198,54.4652233125,54.89438955,59.0,70.0
199,54.798556312500004,55.1777226,55.0,63.0
200,55.1318893125,55.511055600000006,59.0,70.0
201,55.4652223125,55.638833250000005,55.0,64.0
202,55.7985553125,55.941610725000004,55.0,73.0
203,54.4652233125,56.126332762500006,40.0,77.0
204,55.7985553125,56.1735549375,59.0,76.0
205,55.7985553125,56.1957771375,64.0,76.0
206,56.1318883125,56.2443882,55.0,72.0
207,56.465221312500006,56.786054325,51.0,82.0
208,56.465221312500006,56.794387650000004,63.0,74.0
209,56.465221312500006,57.017998537500006,39.0,76.0
210,57.131887312500005,57.536053575000004,57.0,67.0
211,57.131887312500005,57.848553262500005,62.0,64.0
212,57.4652203125,57.984664237500006,45.0,60.0
213,57.131887312500005,58.0318864125,38.0,78.0
214,58.1318863125,58.2957750375,62.0,72.0
215,57.798553312500005,58.327719450000004,57.0,68.0
216,59.1318853125,59.294385150000004,55.0,72.0
217,59.1318853125,59.5221627,59.0,71.0
218,59.1318853125,59.5402182375,62.0,73.0
219,58.7985523125,59.541607125000006,50.0,76.0
220,58.465219312500004,59.6235514875,43.0,77.0
221,59.4652183125,59.770773562500004,55.0,66.0
222,59.7985513125,60.220773112500005,55.0,69.0
223,59.7985513125,60.5068839375,64.0,74.0
224,59.7985513125,60.51660615,40.0,77.0
225,60.131884312500006,60.520772812500006,47.0,69.0
226,60.4652173125,60.82771695,55.0,75.0
227,60.798550312500005,61.588827300000005,64.0,76.0
228,61.465216312500004,61.924938075,52.0,75.0
229,61.7985493125,61.990215787500006,57.0,71.0
230,61.1318833125,62.156882287500004,45.0,77.0
231,61.7985493125,62.1707711625,61.0,76.0
232,62.131882312500004,62.530493025000006,57.0,70.0
233,62.4652153125,62.530493025000006,57.0,64.0
234,62.4652153125,63.202714575,65.0,69.0
235,62.7985483125,63.2179923375,57.0,76.0
236,63.131881312500006,63.441603225,62.0,77.0
237,63.4652143125,63.597158625000006,57.0,72.0
238,62.4652153125,63.6791029875,50.0,78.0
239,63.798547312500006,64.31938012500001,55.0,67.0
240,63.798547312500006,64.3485467625,59.0,66.0
241,64.4652133125,64.5888243,55.0,71.0
242,64.4652133125,64.8346573875,62.0,75.0
243,64.4652133125,64.8541018125,59.0,73.0
244,64.1318803125,64.9068795375,50.0,69.0
245,63.798547312500006,64.969379475,43.0,75.0
246,64.79854631250001,64.9957683375,55.0,66.0
247,65.1318793125,65.286045825,55.0,76.0
248,65.1318793125,65.69993430000001,60.0,75.0
249,65.4652123125,65.80271197500001,55.0,73.0
250,65.7985453125,66.17215605,62.0,74.0
251,66.1318783125,66.31660035,55.0,69.0
252,66.4652113125,66.5763223125,55.0,77.0
253,66.7985443125,66.9763219125,55.0,64.0
254,66.4652113125,67.0013218875,64.0,76.0
255,67.13187731250001,67.47215475,60.0,76.0
256,65.1318793125,67.50826582500001,48.0,72.0
257,67.4652103125,67.6402101375,55.0,76.0
258,67.7985433125,68.29437615,55.0,71.0
259,67.7985433125,68.319376125,62.0,71.0
260,68.46520931250001,68.9332644,62.0,78.0
261,68.1318763125,68.96798658750001,50.0,79.0
262,67.7985433125,68.99020878750001,43.0,77.0
263,68.7985423125,68.99437545,55.0,76.0
264,69.1318753125,69.27215295,55.0,78.0
265,69.1318753125,69.29437515000001,62.0,77.0
266,69.1318753125,69.39298616250001,67.0,73.0
267,69.4652083125,69.9540967125,50.0,76.0
268,69.7985413125,70.041596625,67.0,77.0
269,70.1318743125,70.2665964,67.0,44.0
270,69.1318753125,70.419374025,43.0,80.0
271,70.1318743125,70.419374025,50.0,71.0
272,69.7985413125,70.42076291250001,71.0,82.0
273,70.4652073125,70.5665961,36.0,76.0
274,70.4652073125,70.6290960375,55.0,69.0
275,70.4652073125,70.930484625,60.0,72.0
276,70.79854031250001,71.1402066375,55.0,65.0
277,71.1318733125,71.547150675,64.0,80.0
278,71.4652063125,71.65548390000001,55.0,76.0
279,71.7985393125,71.95687248750001,55.0,69.0
280,71.7985393125,72.25826107500001,60.0,63.0
281,72.13187231250001,72.3013165875,55.0,65.0
282,71.7985393125,72.5707607625,48.0,74.0
283,72.4652053125,72.58326075000001,55.0,78.0
284,72.4652053125,72.847149375,60.0,78.0
285,72.4652053125,72.8485382625,64.0,79.0
286,72.7985383125,73.00548255,55.0,76.0
287,73.13187131250001,73.291593375,55.0,71.0
288,73.13187131250001,73.53742646250001,58.0,67.0
289,73.4652043125,73.6290930375,55.0,63.0
290,73.7985373125,73.90548165,55.0,78.0
291,73.7985373125,74.252703525,64.0,77.0
292,74.1318703125,74.2999257,55.0,66.0
293,74.46520331250001,74.8624251375,60.0,60.0
294,74.7985363125,75.0040916625,55.0,75.0
295,75.1318693125,75.263813625,55.0,74.0
296,75.1318693125,75.4790911875,58.0,73.0
297,73.13187131250001,75.5568688875,36.0,73.0
298,75.1318693125,75.6110355,60.0,75.0
299,75.4652023125,75.713813175,55.0,76.0
300,75.79853531250001,76.5318679125,60.0,72.0
301,76.4652013125,76.80270097500001,53.0,77.0
302,76.1318683125,76.80547875,48.0,65.0
303,75.79853531250001,76.8374231625,41.0,76.0
304,76.79853431250001,77.111034,60.0,77.0
305,77.1318673125,77.57908908750001,55.0,73.0
306,77.1318673125,77.6888112,59.0,71.0
307,77.7985333125,78.1401996375,62.0,76.0
308,77.4652003125,78.169366275,50.0,68.0
309,77.1318673125,78.2985328125,43.0,76.0
310,78.13186631250001,78.5207548125,55.0,76.0
311,78.4651993125,78.91103220000001,64.0,76.0
312,78.7985323125,79.1568652875,55.0,77.0
313,78.4651993125,79.38742061250001,48.0,77.0
314,79.1318653125,79.6929758625,62.0,77.0
315,79.46519831250001,79.84158682500001,55.0,74.0
316,79.7985313125,80.1763087125,60.0,76.0
317,80.1318643125,80.3374196625,55.0,77.0
318,79.7985313125,80.6790859875,48.0,79.0
319,80.46519731250001,80.6818637625,60.0,81.0
320,80.7985303125,80.9818634625,47.0,79.0
321,80.46519731250001,81.0263078625,64.0,80.0
322,81.1318633125,81.51658515,57.0,70.0
323,81.1318633125,81.5429740125,60.0,71.0
324,81.79852931250001,81.92352918750001,57.0,71.0
325,81.4651963125,82.27352883750001,52.0,72.0
326,81.1318633125,82.30130658750001,45.0,78.0
327,81.79852931250001,82.30269547500001,60.0,78.0
328,81.79852931250001,82.3429732125,64.0,76.0
329,82.1318623125,82.37352873750001,57.0,64.0
330,82.4651953125,83.1179724375,52.0,76.0
331,82.4651953125,83.1665835,55.0,76.0
332,82.4651953125,83.5013053875,40.0,82.0
333,82.7985283125,83.55686088750001,47.0,66.0
334,83.4651943125,83.636027475,52.0,71.0
335,83.1318613125,83.741582925,59.0,77.0
336,83.7985273125,84.491582175,53.0,69.0
337,83.7985273125,84.56102655000001,57.0,69.0
338,84.13186031250001,84.96241503750001,48.0,71.0
339,83.7985273125,84.997137225,41.0,72.0
340,84.4651933125,85.1179704375,60.0,78.0
341,84.7985263125,85.1318593125,53.0,76.0
342,85.1318593125,85.5263033625,55.0,71.0
343,85.1318593125,85.547136675,52.0,71.0
344,85.46519231250001,85.78741421250001,47.0,65.0
345,85.1318593125,85.836025275,40.0,78.0
346,85.7985253125,86.09019168750001,55.0,72.0
347,85.7985253125,86.17213605,59.0,74.0
348,86.1318583125,86.222136,52.0,76.0
349,86.46519131250001,86.69435775000001,57.0,74.0
350,86.46519131250001,86.91935752500001,62.0,67.0
351,86.7985243125,87.17352393750001,57.0,75.0
352,87.1318573125,87.4374125625,62.0,77.0
353,87.1318573125,87.5568568875,65.0,78.0
354,86.46519131250001,87.78324555,50.0,76.0
355,87.4651903125,87.863801025,57.0,75.0
356,87.79852331250001,88.2207451125,60.0,66.0
357,87.79852331250001,88.22630066250001,66.0,74.0
358,88.1318563125,88.30268947500001,57.0,74.0
359,87.79852331250001,88.5957447375,48.0,78.0
360,88.4651893125,88.7985223125,60.0,76.0
361,88.7985223125,88.96102215,57.0,76.0
362,89.13185531250001,89.7665769,55.0,72.0
363,89.13185531250001,89.80546575000001,59.0,67.0
364,89.7985213125,90.1776876,62.0,77.0
365,90.13185431250001,90.324909675,55.0,82.0
366,89.13185531250001,90.33324300000001,43.0,77.0
367,89.4651883125,90.33324300000001,50.0,70.0
368,90.4651873125,90.6151871625,62.0,74.0
369,90.4651873125,90.63602047500001,55.0,77.0
370,90.4651873125,90.7762981125,67.0,74.0
371,91.1318533125,91.352686425,67.0,77.0
372,91.1318533125,91.3707419625,71.0,77.0
373,90.7985203125,91.758241575,50.0,77.0
374,90.4651873125,91.76796378750001,43.0,77.0
375,91.46518631250001,91.77213045,67.0,68.0
376,91.46518631250001,91.81518596250001,74.0,73.0
377,91.7985193125,91.8999081,36.0,76.0
378,91.7985193125,91.9624080375,55.0,69.0
379,91.7985193125,92.263796625,60.0,72.0
380,92.1318523125,92.4735186375,55.0,65.0
381,92.4651853125,92.880462675,64.0,80.0
382,92.79851831250001,92.9887959,55.0,76.0
383,93.1318513125,93.2901844875,55.0,69.0
384,93.1318513125,93.591573075,60.0,63.0
385,93.4651843125,93.6346285875,55.0,65.0
386,93.1318513125,93.90407276250001,48.0,74.0
387,93.79851731250001,93.91657275,55.0,78.0
388,93.79851731250001,94.18046137500001,60.0,78.0
389,93.79851731250001,94.1818502625,64.0,79.0
390,94.1318503125,94.33879455,55.0,76.0
391,94.4651833125,94.624905375,55.0,71.0
392,94.4651833125,94.8707384625,58.0,67.0
393,94.7985163125,94.9624050375,55.0,63.0
394,95.13184931250001,95.23879365,55.0,78.0
395,95.13184931250001,95.58601552500001,64.0,77.0
396,95.4651823125,95.63323770000001,55.0,66.0
397,95.7985153125,96.1957371375,60.0,60.0
398,96.1318483125,96.33740366250001,55.0,75.0
399,96.46518131250001,96.597125625,55.0,74.0
400,96.46518131250001,96.81240318750001,58.0,73.0
401,94.4651833125,96.89018088750001,36.0,73.0
402,96.46518131250001,96.9443475,60.0,75.0
403,96.7985143125,97.047125175,55.0,76.0
404,97.1318473125,97.86517991250001,60.0,72.0
405,97.7985133125,98.136012975,53.0,77.0
406,97.46518031250001,98.13879075,48.0,65.0
407,97.1318473125,98.17073516250001,41.0,76.0
408,98.1318463125,98.44434600000001,60.0,77.0
409,98.4651793125,98.9124010875,55.0,73.0
410,98.4651793125,99.02212320000001,59.0,71.0
411,99.1318453125,99.47351163750001,62.0,76.0
412,98.79851231250001,99.50267827500001,50.0,68.0
413,98.4651793125,99.6318448125,43.0,76.0
414,99.4651783125,99.85406681250001,55.0,76.0
415,99.79851131250001,100.2443442,64.0,76.0
416,100.13184431250001,100.4901772875,55.0,77.0
417,99.79851131250001,100.7207326125,48.0,77.0
418,100.4651773125,101.0262878625,62.0,77.0
419,100.7985103125,101.174898825,55.0,74.0
420,101.13184331250001,101.50962071250001,60.0,76.0
421,101.4651763125,101.6707316625,55.0,77.0
422,101.13184331250001,102.01239798750001,48.0,79.0
423,101.7985093125,102.01517576250001,60.0,81.0
424,102.1318423125,102.31517546250001,47.0,79.0
425,101.7985093125,102.35961986250001,64.0,80.0
426,102.46517531250001,102.84989715,57.0,70.0
427,102.46517531250001,102.8762860125,60.0,71.0
428,103.1318413125,103.2568411875,57.0,71.0
429,102.7985083125,103.6068408375,52.0,72.0
430,102.46517531250001,103.6346185875,45.0,78.0
431,103.1318413125,103.636007475,60.0,78.0
432,103.1318413125,103.6762852125,64.0,76.0
433,103.46517431250001,103.7068407375,57.0,64.0
434,103.7985073125,104.45128443750001,52.0,76.0
435,103.7985073125,104.49989550000001,55.0,76.0
436,103.7985073125,104.8346173875,40.0,82.0
437,104.1318403125,104.8901728875,47.0,66.0
438,104.79850631250001,104.969339475,52.0,71.0
439,104.4651733125,105.07489492500001,59.0,77.0
440,105.1318393125,105.82489417500001,53.0,69.0
441,105.1318393125,105.89433855,57.0,69.0
442,105.4651723125,106.2957270375,48.0,71.0
443,105.1318393125,106.33044922500001,41.0,72.0
444,105.7985053125,106.4512824375,60.0,78.0
445,106.13183831250001,106.4651713125,53.0,76.0
446,106.4651713125,106.85961536250001,55.0,71.0
447,106.4651713125,106.88044867500001,52.0,71.0
448,106.7985043125,107.1207262125,47.0,65.0
449,106.4651713125,107.169337275,40.0,78.0
450,107.13183731250001,107.4235036875,55.0,72.0
451,107.13183731250001,107.50544805,59.0,74.0
452,107.4651703125,107.555448,52.0,76.0
453,107.7985033125,108.02766975,57.0,74.0
454,107.7985033125,108.252669525,62.0,67.0
455,108.1318363125,108.5068359375,57.0,75.0
456,108.46516931250001,108.7707245625,62.0,77.0
457,108.46516931250001,108.89016888750001,65.0,78.0
458,107.7985033125,109.11655755000001,50.0,76.0
459,108.7985023125,109.19711302500001,57.0,75.0
460,109.79850131250001,110.15127873750001,55.0,80.0
461,109.46516831250001,110.1596120625,50.0,76.0
462,109.1318353125,110.17211205000001,62.0,76.0
463,109.1318353125,110.1901675875,43.0,72.0
464,110.1318343125,110.2665564,67.0,72.0
465,110.4651673125,111.35003735625,57.0,67.0
466,110.4651673125,111.44190811875,53.0,66.0
467,111.13288828125,111.49201944375001,60.0,71.0
468,112.13511478125001,112.27988083125001,53.0,62.0
469,111.46696378125,112.34530395,65.0,72.0
470,112.46919028125001,112.5930766125,57.0,76.0
471,110.79881278125,112.61256435,48.0,71.0
472,112.46919028125001,112.63622803125,60.0,76.0
473,110.4651673125,112.68077143125001,41.0,77.0
474,113.13734128125,113.73310925625,52.0,71.0
475,113.13734128125,113.831939925,55.0,68.0
476,113.80549228125001,114.17854325625001,59.0,67.0
477,114.80771878125,114.89402161875,52.0,47.0
478,114.13956778125001,115.17380985,64.0,78.0
479,115.14179428125,115.2434089125,52.0,75.0
480,115.14179428125,115.27681646250001,59.0,65.0
481,113.47141678125,115.32831976875,47.0,71.0
482,113.13734128125,115.35059146875001,40.0,78.0
483,115.80994528125001,116.23589154375,63.0,70.0
484,115.80994528125001,116.44886467500001,56.0,64.0
485,116.81217178125,117.1921826625,56.0,70.0
486,116.47809628125,117.54435391875,60.0,69.0
487,117.14624728125,117.72670346250001,68.0,78.0
488,115.80994528125001,117.81161431875,44.0,73.0
489,116.14402078125,117.82135818750001,51.0,62.0
490,117.48032278125001,117.8714695125,56.0,63.0
491,117.81439828125,117.941068575,63.0,70.0
492,118.48254928125,118.92659130000001,55.0,68.0
493,118.48254928125,119.1910677375,60.0,71.0
494,119.15070028125001,119.62675786875,55.0,77.0
495,119.48477578125001,119.69635693125001,60.0,78.0
496,118.81662478125,119.94691355625001,50.0,68.0
497,119.81885128125,120.2818056,59.0,72.0
498,119.81885128125,120.379027725,55.0,76.0
499,120.4859720625,121.08736035,59.0,71.0
500,120.8193050625,121.09430478750001,55.0,69.0
501,120.4859720625,121.104027,62.0,71.0
502,120.1526390625,121.1137492125,50.0,71.0
503,118.48254928125,121.15402695,43.0,77.0
504,121.1526380625,121.32069345000001,55.0,69.0
505,121.1526380625,121.5498598875,60.0,72.0
506,121.4859710625,121.7748596625,55.0,67.0
507,121.81930406250001,122.1831925875,60.0,65.0
508,122.1526370625,122.5165255875,55.0,69.0
509,122.4859700625,123.1693027125,64.0,78.0
510,122.8193030625,123.19846935,55.0,61.0
511,123.15263606250001,123.40541358750001,60.0,71.0
512,121.1526380625,123.47763573750001,48.0,73.0
513,123.8193020625,123.97624635,59.0,67.0
514,123.8193020625,124.2109683375,62.0,70.0
515,124.1526350625,124.55402355,59.0,64.0
516,124.4859680625,124.88457877500001,62.0,69.0
517,124.8193010625,124.99846755,59.0,59.0
518,125.1526340625,125.28735615000001,59.0,76.0
519,125.48596706250001,125.6776335375,59.0,64.0
520,125.1526340625,125.7165223875,67.0,64.0
521,123.8193020625,125.74291125,47.0,75.0
522,125.823466725,126.11374421250001,59.0,68.0
523,125.8081889625,126.1526330625,65.0,68.0
524,126.14152196250001,126.301244025,59.0,49.0
525,125.823466725,126.36513285000001,44.0,68.0
526,126.4859660625,126.8831878875,57.0,61.0
527,126.4859660625,126.9109656375,60.0,68.0
528,126.81929906250001,127.26513195,52.0,61.0
529,127.1526320625,127.55402055,60.0,68.0
530,127.4859650625,127.881798,52.0,65.0
531,127.8192980625,128.0804089125,57.0,70.0
532,127.8192980625,128.15957550000002,64.0,76.0
533,128.1526310625,128.5498528875,52.0,63.0
534,126.4859660625,128.58874173750002,45.0,76.0
535,128.4859640625,128.634575025,57.0,69.0
536,128.4859640625,128.7137416125,60.0,71.0
537,129.1526300625,129.356796525,55.0,65.0
538,129.1526300625,129.5817963,59.0,70.0
539,129.4859630625,129.86512935000002,55.0,63.0
540,129.8192960625,130.19846235,59.0,70.0
541,130.1526290625,130.32624,55.0,64.0
542,130.4859620625,130.629017475,55.0,73.0
543,129.1526300625,130.8137395125,40.0,77.0
544,130.4859620625,130.8609616875,59.0,76.0
545,130.4859620625,130.8831838875,67.0,76.0
546,130.8192950625,130.93179495,55.0,72.0
547,131.1526280625,131.473461075,54.0,49.0
548,131.1526280625,131.4817944,66.0,74.0
549,131.1526280625,131.7054052875,39.0,76.0
550,131.8192940625,132.223460325,57.0,67.0
551,131.8192940625,132.5359600125,65.0,64.0
552,132.15262706250002,132.6720709875,45.0,60.0
553,131.8192940625,132.7192931625,38.0,78.0
554,132.8192930625,132.9831817875,62.0,72.0
555,132.4859600625,133.0151262,57.0,68.0
556,133.8192920625,133.9817919,55.0,72.0
557,133.8192920625,134.20956945,59.0,71.0
558,133.8192920625,134.2276249875,62.0,73.0
559,133.4859590625,134.229013875,50.0,76.0
560,133.1526260625,134.31095823750002,43.0,77.0
561,134.1526250625,134.4581803125,55.0,66.0
562,134.4859580625,134.9081798625,55.0,69.0
563,134.4859580625,135.1942906875,64.0,74.0
564,134.4859580625,135.2040129,40.0,77.0
565,134.8192910625,135.2081795625,47.0,69.0
566,135.1526240625,135.5151237,55.0,75.0
567,135.4859570625,136.27623405,64.0,76.0
568,136.1526230625,136.612344825,52.0,75.0
569,136.4859560625,136.6776225375,57.0,71.0
570,135.81929006250002,136.8442890375,45.0,77.0
571,136.4859560625,136.8581779125,61.0,76.0
572,136.8192890625,137.217899775,57.0,70.0
573,137.1526220625,137.217899775,57.0,64.0
574,137.1526220625,137.890121325,65.0,69.0
575,137.4859550625,137.9053990875,57.0,76.0
576,137.8192880625,138.129009975,62.0,77.0
577,138.1526210625,138.284565375,57.0,72.0
578,137.1526220625,138.3665097375,50.0,78.0
579,138.4859540625,139.006786875,55.0,67.0
580,138.4859540625,139.03595351250001,59.0,66.0
581,139.1526200625,139.27623105,55.0,71.0
582,139.1526200625,139.5220641375,62.0,75.0
583,139.1526200625,139.5415085625,59.0,73.0
584,138.8192870625,139.5942862875,50.0,69.0
585,138.4859540625,139.65678622500002,43.0,75.0
586,139.48595306250002,139.6831750875,55.0,66.0
587,139.8192860625,139.973452575,55.0,76.0
588,139.8192860625,140.38734105,60.0,75.0
589,140.1526190625,140.490118725,55.0,73.0
590,140.48595206250002,140.8595628,62.0,74.0
591,140.8192850625,141.0040071,55.0,69.0
592,141.1526180625,141.2637290625,55.0,77.0
593,141.4859510625,141.6637286625,55.0,64.0
594,141.1526180625,141.6887286375,64.0,76.0
595,141.8192840625,142.1595615,60.0,76.0
596,139.8192860625,142.195672575,48.0,72.0
597,142.1526170625,142.3276168875,55.0,76.0
598,142.4859500625,142.9817829,55.0,71.0
599,142.4859500625,143.006782875,62.0,71.0
600,143.15261606250002,143.62067115,62.0,78.0
601,142.8192830625,143.65539333750002,50.0,79.0
602,142.4859500625,143.6776155375,43.0,77.0
603,143.4859490625,143.68178220000001,55.0,76.0
604,143.8192820625,143.9595597,55.0,78.0
605,143.8192820625,143.98178190000002,62.0,77.0
606,143.8192820625,144.0803929125,67.0,73.0
607,144.1526150625,144.6415034625,50.0,76.0
608,144.4859480625,144.729003375,67.0,77.0
609,144.8192810625,144.95400315,67.0,44.0
610,143.8192820625,145.106780775,43.0,80.0
611,144.8192810625,145.106780775,50.0,71.0
612,144.4859480625,145.10816966250002,71.0,82.0
613,145.1526140625,145.25400285,36.0,76.0
614,145.1526140625,145.3165027875,55.0,69.0
615,145.1526140625,145.617891375,60.0,72.0
616,145.4859470625,145.8276133875,55.0,65.0
617,145.8192800625,146.234557425,64.0,80.0
618,146.1526130625,146.34289065000002,55.0,76.0
619,146.4859460625,146.6442792375,55.0,69.0
620,146.4859460625,146.94566782500002,60.0,63.0
621,146.81927906250002,146.9887233375,55.0,65.0
622,146.4859460625,147.2581675125,48.0,74.0
623,147.1526120625,147.2706675,55.0,78.0
624,147.1526120625,147.534556125,60.0,78.0
625,147.1526120625,147.5359450125,64.0,79.0
626,147.4859450625,147.6928893,55.0,76.0
627,147.81927806250002,147.979000125,55.0,71.0
628,147.81927806250002,148.22483321250002,58.0,67.0
629,148.1526110625,148.3164997875,55.0,63.0
630,148.4859440625,148.5928884,55.0,78.0
631,148.4859440625,148.940110275,64.0,77.0
632,148.8192770625,148.98733245,55.0,66.0
633,149.1526100625,149.5498318875,60.0,60.0
634,149.4859430625,149.6914984125,55.0,75.0
635,149.8192760625,149.951220375,55.0,74.0
636,149.8192760625,150.1664979375,58.0,73.0
637,147.81927806250002,150.2442756375,36.0,73.0
638,149.8192760625,150.29844225,60.0,75.0
639,150.1526090625,150.401219925,55.0,76.0
640,150.48594206250002,151.2192746625,60.0,72.0
641,151.1526080625,151.490107725,53.0,77.0
642,150.8192750625,151.4928855,48.0,65.0
643,150.48594206250002,151.5248299125,41.0,76.0
644,151.4859410625,151.79844075,60.0,77.0
645,151.8192740625,152.2664958375,55.0,73.0
646,151.8192740625,152.37621795,59.0,71.0
647,152.4859400625,152.8276063875,62.0,76.0
648,152.1526070625,152.856773025,50.0,68.0
649,151.8192740625,152.9859395625,43.0,76.0
650,152.8192730625,153.2081615625,55.0,76.0
651,153.1526060625,153.59843895,64.0,76.0
652,153.4859390625,153.8442720375,55.0,77.0
653,153.1526060625,154.0748273625,48.0,77.0
654,153.8192720625,154.3803826125,62.0,77.0
655,154.15260506250002,154.52899357500002,55.0,74.0
656,154.4859380625,154.8637154625,60.0,76.0
657,154.8192710625,155.0248264125,55.0,77.0
658,154.4859380625,155.3664927375,48.0,79.0
659,155.15260406250002,155.3692705125,60.0,81.0
660,155.4859370625,155.6692702125,47.0,79.0
661,155.15260406250002,155.7137146125,64.0,80.0
662,155.8192700625,156.2039919,57.0,70.0
663,155.8192700625,156.2303807625,60.0,71.0
664,156.4859360625,156.61093593750002,57.0,71.0
665,156.15260306250002,156.9609355875,52.0,72.0
666,155.8192700625,156.9887133375,45.0,78.0
667,156.4859360625,156.990102225,60.0,78.0
668,156.4859360625,157.0303799625,64.0,76.0
669,156.8192690625,157.0609354875,57.0,64.0
670,157.1526020625,157.8053791875,52.0,76.0
671,157.1526020625,157.85399025,55.0,76.0
672,157.1526020625,158.1887121375,40.0,82.0
673,157.4859350625,158.2442676375,47.0,66.0
674,158.1526010625,158.323434225,52.0,71.0
675,157.8192680625,158.428989675,59.0,77.0
676,158.4859340625,159.178988925,53.0,69.0
677,158.4859340625,159.2484333,57.0,69.0
678,158.8192670625,159.6498217875,48.0,71.0
679,158.4859340625,159.684543975,41.0,72.0
680,159.1526000625,159.8053771875,60.0,78.0
681,159.4859330625,159.8192660625,53.0,76.0
682,159.8192660625,160.2137101125,55.0,71.0
683,159.8192660625,160.234543425,52.0,71.0
684,160.1525990625,160.47482096250002,47.0,65.0
685,159.8192660625,160.523432025,40.0,78.0
686,160.4859320625,160.7775984375,55.0,72.0
687,160.4859320625,160.8595428,59.0,74.0
688,160.8192650625,160.90954275,52.0,76.0
689,161.1525980625,161.3817645,57.0,74.0
690,161.1525980625,161.606764275,62.0,67.0
691,161.48593106250001,161.8609306875,57.0,75.0
692,161.8192640625,162.1248193125,62.0,77.0
693,161.8192640625,162.2442636375,65.0,78.0
694,161.1525980625,162.4706523,50.0,76.0
695,162.1525970625,162.551207775,57.0,75.0
696,162.48593006250002,162.9081518625,60.0,66.0
697,162.48593006250002,162.9137074125,66.0,74.0
698,162.8192630625,162.990096225,57.0,74.0
699,162.48593006250002,163.2831514875,48.0,78.0
700,163.1525960625,163.48592906250002,60.0,76.0
701,163.48592906250002,163.6484289,57.0,76.0
702,163.8192620625,164.45398365,55.0,72.0
703,163.8192620625,164.4928725,59.0,67.0
704,164.4859280625,164.86509435,62.0,77.0
705,164.8192610625,165.012316425,55.0,82.0
706,163.8192620625,165.02064975000002,43.0,77.0
707,164.1525950625,165.02064975000002,50.0,70.0
708,165.15259406250001,165.30259391250001,62.0,74.0
709,165.15259406250001,165.323427225,55.0,77.0
710,165.15259406250001,165.4637048625,67.0,74.0
711,165.8192600625,166.040093175,67.0,77.0
712,165.8192600625,166.0581487125,71.0,77.0
713,165.4859270625,166.445648325,50.0,77.0
714,165.15259406250001,166.45537053750002,43.0,77.0
715,166.1525930625,166.4595372,67.0,68.0
716,166.1525930625,166.50259271250002,74.0,73.0
717,166.4859260625,166.58731485,36.0,76.0
718,166.4859260625,166.64981478750002,55.0,69.0
719,166.4859260625,166.951203375,60.0,72.0
720,166.8192590625,167.16092538750001,55.0,65.0
721,167.1525920625,167.567869425,64.0,80.0
722,167.4859250625,167.67620265,55.0,76.0
723,167.8192580625,167.9775912375,55.0,69.0
724,167.8192580625,168.27897982500002,60.0,63.0
725,168.1525910625,168.3220353375,55.0,65.0
726,167.8192580625,168.5914795125,48.0,74.0
727,168.4859240625,168.6039795,55.0,78.0
728,168.4859240625,168.867868125,60.0,78.0
729,168.4859240625,168.86925701250001,64.0,79.0
730,168.81925706250001,169.0262013,55.0,76.0
731,169.1525900625,169.312312125,55.0,71.0
732,169.1525900625,169.5581452125,58.0,67.0
733,169.4859230625,169.6498117875,55.0,63.0
734,169.81925606250002,169.9262004,55.0,78.0
735,169.81925606250002,170.273422275,64.0,77.0
736,170.1525890625,170.32064445,55.0,66.0
737,170.4859220625,170.8831438875,60.0,60.0
738,170.81925506250002,171.02481041250002,55.0,75.0
739,171.1525880625,171.284532375,55.0,74.0
740,171.1525880625,171.4998099375,58.0,73.0
741,169.1525900625,171.57758763750002,36.0,73.0
742,171.1525880625,171.63175425,60.0,75.0
743,171.4859210625,171.734531925,55.0,76.0
744,171.81925406250002,172.5525866625,60.0,72.0
745,172.4859200625,172.823419725,53.0,77.0
746,172.1525870625,172.8261975,48.0,65.0
747,171.81925406250002,172.8581419125,41.0,76.0
748,172.8192530625,173.13175275,60.0,77.0
749,173.1525860625,173.5998078375,55.0,73.0
750,173.1525860625,173.70952995,59.0,71.0
751,173.8192520625,174.1609183875,62.0,76.0
752,173.4859190625,174.190085025,50.0,68.0
753,173.1525860625,174.3192515625,43.0,76.0
754,174.1525850625,174.54147356250002,55.0,76.0
755,174.4859180625,174.93175095,64.0,76.0
756,174.8192510625,175.1775840375,55.0,77.0
757,174.4859180625,175.4081393625,48.0,77.0
758,175.1525840625,175.7136946125,62.0,77.0
759,175.4859170625,175.862305575,55.0,74.0
760,175.8192500625,176.1970274625,60.0,76.0
761,176.1525830625,176.3581384125,55.0,77.0
762,175.8192500625,176.69980473750002,48.0,79.0
763,176.4859160625,176.70258251250002,60.0,81.0
764,176.8192490625,177.0025822125,47.0,79.0
765,176.4859160625,177.04702661250002,64.0,80.0
766,177.15258206250002,177.5373039,57.0,70.0
767,177.15258206250002,177.5636927625,60.0,71.0
768,177.8192480625,177.9442479375,57.0,71.0
769,177.4859150625,178.2942475875,52.0,72.0
770,177.15258206250002,178.3220253375,45.0,78.0
771,177.8192480625,178.32341422500002,60.0,78.0
772,177.8192480625,178.3636919625,64.0,76.0
773,178.15258106250002,178.3942474875,57.0,64.0
774,178.4859140625,179.1386911875,52.0,76.0
775,178.4859140625,179.18730225000002,55.0,76.0
776,178.4859140625,179.5220241375,40.0,82.0
777,178.8192470625,179.5775796375,47.0,66.0
778,179.4859130625,179.656746225,52.0,71.0
779,179.15258006250002,179.762301675,59.0,77.0
780,179.8192460625,180.512300925,53.0,69.0
781,179.8192460625,180.58174530000002,57.0,69.0
782,180.1525790625,180.9831337875,48.0,71.0
783,179.8192460625,181.017855975,41.0,72.0
784,180.4859120625,181.1386891875,60.0,78.0
785,180.8192450625,181.1525780625,53.0,76.0
786,181.1525780625,181.5470221125,55.0,71.0
787,181.1525780625,181.567855425,52.0,71.0
788,181.4859110625,181.8081329625,47.0,65.0
789,181.1525780625,181.856744025,40.0,78.0
790,181.8192440625,182.1109104375,55.0,72.0
791,181.8192440625,182.19285480000002,59.0,74.0
792,182.1525770625,182.24285475,52.0,76.0
793,182.4859100625,182.7150765,57.0,74.0
794,182.4859100625,182.940076275,62.0,67.0
795,182.8192430625,183.1942426875,57.0,75.0
796,183.1525760625,183.4581313125,62.0,77.0
797,183.1525760625,183.5775756375,65.0,78.0
798,182.4859100625,183.80396430000002,50.0,76.0
799,183.4859090625,183.884519775,57.0,75.0
800,184.48590806250002,184.83868548750002,55.0,80.0
801,184.1525750625,184.8470188125,50.0,76.0
802,183.8192420625,184.8595188,62.0,76.0
803,183.8192420625,184.8775743375,43.0,72.0
804,184.8192410625,184.95396315,67.0,72.0
805,185.1525740625,185.5664625375,55.0,68.0
806,185.1525740625,185.9581288125,64.0,76.0
807,185.8192400625,186.2025730125,55.0,71.0
808,186.1525730625,186.378961725,62.0,73.0
809,185.48590706250002,187.112294325,43.0,52.0
810,185.1525740625,187.13173875,36.0,72.0
811,186.48590606250002,187.5817383,55.0,73.0
812,186.48590606250002,187.612293825,60.0,72.0
813,187.8192380625,187.92062685000002,38.0,76.0
814,187.8192380625,187.9831267875,57.0,69.0
815,187.8192380625,188.284515375,62.0,72.0
816,188.1525710625,188.4942373875,57.0,65.0
817,188.48590406250003,188.901181425,66.0,80.0
818,188.8192370625,189.00951465,57.0,76.0
819,189.1525700625,189.31090323749999,57.0,69.0
820,189.1525700625,189.612291825,62.0,63.0
821,189.4859030625,189.65534733750002,57.0,65.0
822,189.1525700625,189.9247915125,50.0,74.0
823,189.8192360625,189.93729150000001,57.0,78.0
824,189.8192360625,190.201180125,62.0,78.0
825,189.8192360625,190.20256901250002,66.0,79.0
826,190.1525690625,190.3595133,57.0,76.0
827,190.4859020625,190.645624125,57.0,71.0
828,190.4859020625,190.8914572125,60.0,67.0
829,190.8192350625,190.9831237875,57.0,63.0
830,191.1525680625,191.2595124,57.0,78.0
831,191.1525680625,191.606734275,66.0,77.0
832,191.4859010625,191.65395645,57.0,66.0
833,191.81923406250002,192.2164558875,62.0,60.0
834,192.1525670625,192.3581224125,57.0,75.0
835,192.4859000625,192.617844375,57.0,74.0
836,192.4859000625,192.8331219375,60.0,73.0
837,190.4859020625,192.9108996375,38.0,73.0
838,192.4859000625,192.96506625,62.0,75.0
839,192.81923306250002,193.067843925,57.0,76.0
840,193.1525660625,193.8858986625,62.0,72.0
841,193.81923206250002,194.156731725,55.0,77.0
842,193.4858990625,194.1595095,50.0,65.0
843,193.1525660625,194.1914539125,43.0,76.0
844,194.1525650625,194.46506475,62.0,77.0
845,194.4858980625,194.9331198375,57.0,73.0
846,194.4858980625,195.04284195000002,61.0,71.0
847,195.1525640625,195.4942303875,64.0,76.0
848,194.81923106250002,195.523397025,52.0,68.0
849,194.4858980625,195.6525635625,45.0,76.0
850,195.4858970625,195.8747855625,57.0,76.0
851,195.81923006250003,196.26506295000002,66.0,76.0
852,196.1525630625,196.5108960375,57.0,77.0
853,195.81923006250003,196.74145136250002,50.0,77.0
854,196.4858960625,197.0470066125,64.0,77.0
855,196.8192290625,197.195617575,57.0,74.0
856,197.1525620625,197.53033946250002,62.0,76.0
857,197.4858950625,197.6914504125,57.0,77.0
858,197.1525620625,198.0331167375,50.0,79.0
859,197.8192280625,198.03589451250002,62.0,81.0
860,198.1525610625,198.33589421250002,49.0,79.0
861,197.8192280625,198.3803386125,66.0,80.0
862,198.4858940625,198.87061590000002,59.0,70.0
863,198.4858940625,198.8970047625,62.0,71.0
864,199.15256006250002,199.2775599375,59.0,71.0
865,198.8192270625,199.6275595875,54.0,72.0
866,198.4858940625,199.6553373375,47.0,78.0
867,199.15256006250002,199.656726225,62.0,78.0
868,199.15256006250002,199.6970039625,66.0,76.0
869,199.4858930625,199.7275594875,59.0,64.0
870,199.8192260625,200.4720031875,54.0,76.0
871,199.8192260625,200.52061425,57.0,76.0
872,199.8192260625,200.8553361375,42.0,82.0
873,200.15255906250002,200.91089163750001,49.0,66.0
874,200.8192250625,200.990058225,54.0,71.0
875,200.4858920625,201.095613675,61.0,77.0
876,201.15255806250002,201.845612925,55.0,69.0
877,201.15255806250002,201.9150573,59.0,69.0
878,201.4858910625,202.31644578750002,50.0,71.0
879,201.15255806250002,202.351167975,43.0,72.0
880,201.8192240625,202.4720011875,62.0,78.0
881,202.15255706250002,202.4858900625,55.0,76.0
882,202.4858900625,202.8803341125,57.0,71.0
883,202.4858900625,202.901167425,54.0,71.0
884,202.8192230625,203.1414449625,49.0,65.0
885,202.4858900625,203.190056025,42.0,78.0
886,203.15255606250003,203.4442224375,57.0,72.0
887,203.15255606250003,203.5261668,61.0,74.0
888,203.4858890625,203.57616675000003,54.0,76.0
889,203.8192220625,204.0483885,59.0,74.0
890,203.8192220625,204.273388275,64.0,67.0
891,204.1525550625,204.52755468750001,59.0,75.0
892,204.4858880625,204.7914433125,64.0,77.0
893,204.4858880625,204.91088763750002,67.0,78.0
894,203.8192220625,205.1372763,52.0,76.0
895,204.8192210625,205.217831775,59.0,75.0
896,205.1525540625,205.57477586250002,62.0,66.0
897,205.1525540625,205.58033141250002,68.0,74.0
898,205.4858870625,205.65672022500002,59.0,74.0
899,205.1525540625,205.9497754875,50.0,78.0
900,205.8192200625,206.1525530625,62.0,76.0
901,206.1525530625,206.3150529,59.0,76.0
902,206.48588606250001,207.12060765,57.0,72.0
903,206.48588606250001,207.1594965,61.0,67.0
904,207.1525520625,207.53171835,64.0,77.0
905,207.48588506250002,207.678940425,57.0,82.0
906,206.48588606250001,207.68727375,45.0,77.0
907,206.8192190625,207.68727375,52.0,70.0
908,207.8192180625,207.9692179125,64.0,74.0
909,207.8192180625,207.990051225,57.0,77.0
910,207.8192180625,208.1303288625,69.0,74.0
911,208.48588406250002,208.706717175,69.0,77.0
912,208.48588406250002,208.7247727125,73.0,77.0
913,208.1525510625,209.112272325,52.0,77.0
914,207.8192180625,209.1219945375,45.0,77.0
915,208.8192170625,209.1261612,69.0,68.0
916,208.8192170625,209.1692167125,76.0,73.0
917,209.1525500625,209.25393885,38.0,76.0
918,209.1525500625,209.3164387875,57.0,69.0
919,209.1525500625,209.617827375,62.0,72.0
920,209.48588306250002,209.8275493875,57.0,65.0
921,209.8192160625,210.234493425,66.0,80.0
922,210.1525490625,210.34282665,57.0,76.0
923,210.48588206250002,210.64421523750002,57.0,69.0
924,210.48588206250002,210.945603825,62.0,63.0
925,210.8192150625,210.9886593375,57.0,65.0
926,210.48588206250002,211.25810351249999,50.0,74.0
927,211.1525480625,211.2706035,57.0,78.0
928,211.1525480625,211.53449212499999,62.0,78.0
929,211.1525480625,211.5358810125,66.0,79.0
930,211.48588106250003,211.6928253,57.0,76.0
931,211.8192140625,211.97893612500002,57.0,71.0
932,211.8192140625,212.2247692125,60.0,67.0
933,212.1525470625,212.3164357875,57.0,63.0
934,212.4858800625,212.5928244,57.0,78.0
935,212.4858800625,212.940046275,66.0,77.0
936,212.8192130625,212.98726845,57.0,66.0
937,213.1525460625,213.54976788750002,62.0,60.0
938,213.4858790625,213.6914344125,57.0,75.0
939,213.81921206250001,213.951156375,57.0,74.0
940,213.81921206250001,214.16643393750002,60.0,73.0
941,211.8192140625,214.2442116375,38.0,73.0
942,213.81921206250001,214.29837825,62.0,75.0
943,214.1525450625,214.401155925,57.0,76.0
944,214.4858780625,215.21921066250002,62.0,72.0
945,215.1525440625,215.49004372500002,55.0,77.0
946,214.81921106250002,215.4928215,50.0,65.0
947,214.4858780625,215.52476591250002,43.0,76.0
948,215.4858770625,215.79837675,62.0,77.0
949,215.81921006250002,216.26643183750002,57.0,73.0
950,215.81921006250002,216.37615395,61.0,71.0
951,216.4858760625,216.8275423875,64.0,76.0
952,216.1525430625,216.856709025,52.0,68.0
953,215.81921006250002,216.9858755625,45.0,76.0
954,216.81920906250002,217.2080975625,57.0,76.0
955,217.1525420625,217.59837495,66.0,76.0
956,217.48587506249999,217.8442080375,57.0,77.0
957,217.1525420625,218.0747633625,50.0,77.0
958,217.81920806250002,218.3803186125,64.0,77.0
959,218.1525410625,218.528929575,57.0,74.0
960,218.4858740625,218.8636514625,62.0,76.0
961,218.81920706250003,219.02476241250002,57.0,77.0
962,218.4858740625,219.3664287375,50.0,79.0
963,219.1525400625,219.3692065125,62.0,81.0
964,219.4858730625,219.6692062125,49.0,79.0
965,219.1525400625,219.7136506125,66.0,80.0
966,219.8192060625,220.2039279,59.0,70.0
967,219.8192060625,220.23031676250002,62.0,71.0
968,220.4858720625,220.6108719375,59.0,71.0
969,220.1525390625,220.9608715875,54.0,72.0
970,219.8192060625,220.98864933750002,47.0,78.0
971,220.4858720625,220.990038225,62.0,78.0
972,220.4858720625,221.03031596250003,66.0,76.0
973,220.8192050625,221.0608714875,59.0,64.0
974,221.1525380625,221.8053151875,54.0,76.0
975,221.1525380625,221.85392625,57.0,76.0
976,221.1525380625,222.18864813750002,42.0,82.0
977,221.4858710625,222.2442036375,49.0,66.0
978,222.15253706250002,222.32337022500002,54.0,71.0
979,221.8192040625,222.42892567500002,61.0,77.0
980,222.4858700625,223.178924925,55.0,69.0
981,222.4858700625,223.2483693,59.0,69.0
982,222.8192030625,223.6497577875,50.0,71.0
983,222.4858700625,223.684479975,43.0,72.0
984,223.15253606250002,223.80531318750002,62.0,78.0
985,223.4858690625,223.8192020625,55.0,76.0
986,223.8192020625,224.2136461125,57.0,71.0
987,223.8192020625,224.23447942500002,54.0,71.0
988,224.15253506250002,224.4747569625,49.0,65.0
989,223.8192020625,224.52336802500002,42.0,78.0
990,224.4858680625,224.7775344375,57.0,72.0
991,224.4858680625,224.8594788,61.0,74.0
992,224.8192010625,224.90947875,54.0,76.0
993,225.15253406250002,225.38170050000002,59.0,74.0
994,225.15253406250002,225.606700275,64.0,67.0
995,225.4858670625,225.8608666875,59.0,75.0
996,225.8192000625,226.1247553125,64.0,77.0
997,225.8192000625,226.2441996375,67.0,78.0
998,225.15253406250002,226.4705883,52.0,76.0
999,226.15253306250003,226.551143775,59.0,75.0
1000,227.1525320625,227.50530948750003,57.0,80.0
1001,226.8191990625,227.5136428125,52.0,76.0
1002,226.4858660625,227.5261428,64.0,76.0
1003,226.4858660625,227.5441983375,45.0,72.0
1004,227.4858650625,227.62058715,69.0,72.0
1005,227.7941980875,228.195586575,62.0,65.0
1006,227.7969758625,228.7414193625,55.0,64.0
1007,228.4414196625,228.817808175,62.0,69.0
1008,228.78586376250001,228.93169695,67.0,71.0
1009,228.12058665,229.5580852125,50.0,63.0
1010,229.467807525,229.91641818750003,67.0,64.0
1011,229.4608630875,229.9580848125,71.0,71.0
1012,227.784475875,229.96919591250003,43.0,76.0
1013,229.778918325,230.0108625375,50.0,68.0
1014,230.46780652500001,231.22197243750003,69.0,66.0
1015,231.10391700000002,231.7483608,61.0,61.0
1016,231.4358611125,232.16502705,69.0,73.0
1017,230.46225097500002,232.4080823625,42.0,70.0
1018,230.8025284125,232.4080823625,49.0,49.0
1019,232.1414159625,232.49141561250002,66.0,68.0
1020,232.4469712125,232.55391555,61.0,57.0
1021,233.190026025,233.55391455,62.0,63.0
1022,233.17891492500002,233.8705809,67.0,63.0
1023,233.8358587125,234.6372468,62.0,74.0
1024,234.24280275,234.72613560000002,67.0,76.0
1025,233.4830812875,234.9775242375,47.0,62.0
1026,233.1719704875,235.08446857500002,40.0,76.0
1027,234.64974678750002,235.44974598750002,71.0,75.0
1028,235.0705797,235.49696816250002,62.0,58.0
1029,235.99835655,236.35530063750002,55.0,76.0
1030,236.240022975,236.667800325,61.0,61.0
1031,236.528911575,236.99557777500002,64.0,67.0
1032,236.8636334625,237.1483554,67.0,57.0
1033,235.76780122500003,237.1802998125,52.0,71.0
1034,235.46780152500003,237.4302995625,45.0,75.0
1035,239.5941862875,239.78724165,52.0,70.0
1036,239.78307498750002,239.90113042500002,54.0,64.0
1037,240.017796975,240.123352425,57.0,60.0
1038,240.23724120000003,240.3997410375,62.0,66.0
1039,240.4608520875,240.62057415,64.0,77.0
1040,240.6858518625,240.940018275,66.0,60.0
1041,240.9469627125,241.10112922500002,69.0,66.0
1042,241.23585131250002,241.3636289625,74.0,75.0
1043,241.55946210000002,241.684461975,76.0,59.0
1044,241.9219617375,242.08307268750002,78.0,53.0
1045,242.451127875,243.2580715125,74.0,56.0
1046,239.3816865,243.273349275,45.0,60.0
1047,242.5039056,243.28307148750002,78.0,56.0
1048,242.562238875,243.345571425,81.0,44.0
1049,242.6927943,243.34696031250002,86.0,24.0
1050,239.1358534125,243.356682525,38.0,65.0
