,start,end,pitch,velocity
0,14.0027653,14.2555735,62.0,117.0
1,14.4241123,14.71466616875,62.0,112.0
2,14.845459300000002,15.502936181250002,66.0,127.0
3,15.688153300000002,15.832991331250001,62.0,112.0
4,15.8988268,16.0901885625,62.0,100.0
5,16.3201738,16.9381494,66.0,127.0
6,17.3735413,17.58684821875,71.0,97.0
7,17.7948883,17.965182712500003,71.0,127.0
8,18.2162353,18.4128639,71.0,127.0
9,18.4269088,18.542779225,69.0,100.0
10,18.637582300000002,18.846500187500002,71.0,127.0
11,19.058929300000003,19.232734937500002,69.0,122.0
12,19.2696028,19.455697725,62.0,117.0
13,19.690949800000002,20.362471581250002,66.0,127.0
14,20.744317300000002,20.909344875000002,74.0,127.0
15,20.9549908,21.0445270375,71.0,102.0
16,21.1656643,21.3342031,71.0,112.0
17,21.3763378,21.500108481250003,69.0,97.0
18,21.5870113,22.04434835625,71.0,127.0
19,22.429705300000002,22.537675468750002,69.0,112.0
20,22.6403788,22.77643876875,62.0,107.0
21,23.0617258,23.669167725,64.0,117.0
22,24.1150933,24.966565362500003,73.0,127.0
23,25.168460800000002,25.29749831875,69.0,117.0
24,25.3791343,25.6477430125,66.0,102.0
25,25.8004813,26.541349775,69.0,117.0
26,27.4858693,27.72726601875,74.0,127.0
27,27.9072163,28.018697693750003,71.0,127.0
28,28.223226550000003,28.3584087125,71.0,112.0
29,28.328563300000003,28.412832700000003,69.0,117.0
30,28.5392368,28.629650843750003,69.0,117.0
31,28.749910300000003,28.838568731250003,71.0,127.0
32,28.960583800000002,29.06592055,71.0,127.0
33,29.381930800000003,29.667217831250003,69.0,99.0
34,29.8032778,29.945482412500002,62.0,100.0
35,30.013951300000002,30.5950590375,66.0,107.0
36,30.8566453,31.11735375625,74.0,127.0
37,31.2779923,31.380695631250003,71.0,117.0
38,31.594002550000003,31.689683431250003,71.0,127.0
39,31.699339300000002,31.786242118750003,69.0,97.0
40,31.9100128,31.99340439375,69.0,107.0
41,32.1206863,32.208466925,71.0,127.0
42,32.3313598,32.41650700625,71.0,122.0
43,32.7527068,32.999370356250004,69.0,107.0
44,33.1740538,33.3057247375,62.0,102.0
45,33.3847273,34.14754093125,64.0,112.0
46,34.2274213,34.82345174375,66.0,127.0
47,35.2807888,35.4212378,62.0,122.0
48,35.4914623,35.82766209375,59.0,100.0
49,35.9128093,36.69493466875,62.0,127.0
50,37.5981973,37.77288074375,66.0,122.0
51,37.8088708,38.0318335875,69.0,112.0
52,38.230217800000005,38.753390325000005,71.0,127.0
53,39.283585300000006,39.456513131250006,66.0,127.0
54,39.494258800000004,39.7734011875,69.0,107.0
55,39.9156058,40.47301276875,71.0,127.0
56,40.9689733,41.751098668750004,74.0,122.0
57,42.0223408,42.22686965625,73.0,127.0
58,42.2330143,42.589403637500006,69.0,100.0
59,42.654361300000005,44.345016137500004,71.0,127.0
60,57.822853300000006,58.0756615,62.0,117.0
61,58.2442003,58.534754168750005,62.0,112.0
62,58.6655473,59.323024181250005,66.0,127.0
63,59.5082413,59.653079331250005,62.0,112.0
64,59.7189148,59.9102765625,62.0,100.0
65,60.140261800000005,60.758237400000006,66.0,127.0
66,61.193629300000005,61.406936218750005,71.0,97.0
67,61.6149763,61.7852707125,71.0,127.0
68,62.03632330000001,62.2329519,71.0,127.0
69,62.246996800000005,62.362867225,69.0,100.0
70,62.457670300000004,62.666588187500004,71.0,127.0
71,62.8790173,63.052822937500004,69.0,122.0
72,63.08969080000001,63.275785725000006,62.0,117.0
73,63.511037800000004,64.18255958125,66.0,127.0
74,64.5644053,64.729432875,74.0,127.0
75,64.7750788,64.8646150375,71.0,102.0
76,64.9857523,65.15429110000001,71.0,112.0
77,65.1964258,65.32019648125001,69.0,97.0
78,65.4070993,65.86443635625001,71.0,127.0
79,66.24979330000001,66.35776346875001,69.0,112.0
80,66.4604668,66.59652676875001,62.0,107.0
81,66.8818138,67.489255725,64.0,117.0
82,67.93518130000001,68.7866533625,73.0,127.0
83,68.9885488,69.11758631875,69.0,117.0
84,69.1992223,69.4678310125,66.0,102.0
85,69.6205693,70.361437775,69.0,117.0
86,71.3059573,71.54735401875,74.0,127.0
87,71.7273043,71.83878569375,71.0,127.0
88,72.04331455,72.1784967125,71.0,112.0
89,72.1486513,72.23292070000001,69.0,117.0
90,72.35932480000001,72.44973884375,69.0,117.0
91,72.56999830000001,72.65865673125,71.0,127.0
92,72.78067180000001,72.88600855,71.0,127.0
93,73.2020188,73.48730583125,69.0,99.0
94,73.6233658,73.7655704125,62.0,100.0
95,73.8340393,74.4151470375,66.0,107.0
96,74.67673330000001,74.93744175625001,74.0,127.0
97,75.0980803,75.20078363125,71.0,117.0
98,75.41409055,75.50977143125,71.0,127.0
99,75.5194273,75.60633011875001,69.0,97.0
100,75.7301008,75.81349239375001,69.0,107.0
101,75.9407743,76.02855492500001,71.0,127.0
102,76.1514478,76.23659500625,71.0,122.0
103,76.57279480000001,76.81945835625001,69.0,107.0
104,76.99414180000001,77.1258127375,62.0,102.0
105,77.2048153,77.96762893125,64.0,112.0
106,78.0475093,78.64353974375001,66.0,127.0
107,79.10087680000001,79.2413258,62.0,122.0
108,79.31155030000001,79.64775009375,59.0,100.0
109,79.7328973,80.51502266875,62.0,127.0
110,81.41828530000001,81.59296874375,66.0,122.0
111,81.6289588,81.8519215875,69.0,112.0
112,82.0503058,82.57347832500001,71.0,127.0
113,83.10367330000001,83.27660113125,66.0,127.0
114,83.31434680000001,83.5934891875,69.0,107.0
115,83.7356938,84.29310076875001,71.0,127.0
116,84.7890613,85.57118666875,74.0,122.0
117,85.84242880000001,86.04695765625,73.0,127.0
118,86.0531023,86.40949163750001,69.0,100.0
119,86.4744493,88.16510413750001,71.0,127.0
