,start,end,pitch,velocity
0,0.7303348000000001,0.77861414375,66.0,90.0
1,0.7303348000000001,0.78036975625,62.0,95.0
2,0.7303348000000001,0.7865144000000001,59.0,81.0
3,0.83567155,0.9181853375000001,62.0,76.0
4,0.83567155,0.93398585,66.0,83.0
5,0.83567155,0.937497075,59.0,66.0
6,0.5196613,0.9840208062500001,47.0,86.0
7,1.1516818,1.2219063000000001,62.0,107.0
8,1.1516818,1.2271731375000001,66.0,95.0
9,1.1516818,1.2306843625000001,59.0,81.0
10,0.9410083,1.38605606875,54.0,65.0
11,1.5730288000000001,1.6555425875,62.0,97.0
12,1.5730288000000001,1.6651984562500002,59.0,77.0
13,1.5730288000000001,1.6660762625,66.0,92.0
14,1.7837023,2.0742561687500003,54.0,77.0
15,1.3623553000000002,2.0768895875,47.0,66.0
16,1.9943758,2.0847898437500003,62.0,102.0
17,1.9943758,2.0847898437500003,66.0,86.0
18,1.9943758,2.096201325,59.0,72.0
19,2.4157228,2.4543462750000002,64.0,69.0
20,2.4157228,2.4648799500000003,61.0,100.0
21,2.4157228,2.4754136250000003,57.0,77.0
22,2.52105955,2.60971798125,64.0,66.0
23,2.52105955,2.615862625,61.0,68.0
24,2.52105955,2.6263963,57.0,67.0
25,2.2050493,2.6518526812500003,45.0,88.0
26,2.8370698,2.90290526875,64.0,88.0
27,2.8370698,2.9055386875,61.0,112.0
28,2.8370698,2.90992771875,57.0,89.0
29,2.6263963,3.01702008125,52.0,61.0
30,3.2584168,3.570915825,64.0,76.0
31,3.2584168,3.58057169375,57.0,82.0
32,3.2584168,3.5823273062500003,61.0,93.0
33,3.0477433,3.6428959375,45.0,70.0
34,3.4690903000000004,3.65957425625,52.0,56.0
35,3.6797638000000004,3.767544425,61.0,96.0
36,3.6797638000000004,3.7930008062500002,64.0,77.0
37,3.6797638000000004,3.8070457062500003,57.0,81.0
38,4.1011108,4.3030062375,59.0,72.0
39,4.1011108,4.31968455625,62.0,69.0
40,4.1011108,4.33724068125,55.0,90.0
41,3.8904373000000003,4.4592557500000005,43.0,73.0
42,4.3117843,4.7278644625,50.0,69.0
43,4.522457800000001,4.798966768750001,59.0,83.0
44,4.522457800000001,4.80950044375,55.0,79.0
45,4.522457800000001,4.81125605625,62.0,82.0
46,4.9438048000000006,5.21768035,55.0,86.0
47,4.9438048000000006,5.2229471875,59.0,85.0
48,4.9438048000000006,5.2299696375,62.0,82.0
49,4.7331313,5.241381118750001,43.0,83.0
50,5.1544783,5.29404949375,50.0,85.0
51,5.3651518000000005,5.47487758125,59.0,89.0
52,5.3651518000000005,5.4898002875000005,62.0,85.0
53,5.3651518000000005,5.498578350000001,55.0,92.0
54,5.7864988,6.0568631250000005,61.0,96.0
55,5.7864988,6.0831973125,57.0,77.0
56,5.5758253,6.260514175,42.0,86.0
57,5.9971723,6.3746289875,54.0,81.0
58,6.2078458,6.48435476875,61.0,97.0
59,6.2078458,6.4887438,66.0,89.0
60,6.2078458,6.5045443125,57.0,85.0
61,6.6291928,6.91799105625,61.0,122.0
62,6.6291928,6.931158150000001,57.0,90.0
63,6.6291928,6.931158150000001,66.0,100.0
64,6.418519300000001,6.93203595625,42.0,86.0
65,6.839866300000001,7.110230625000001,54.0,93.0
66,7.0505398,7.171677062500001,61.0,127.0
67,7.0505398,7.201522475,66.0,95.0
68,7.0505398,7.213811762500001,57.0,92.0
69,7.4718868,7.5227995625,62.0,95.0
70,7.4718868,7.52894420625,66.0,102.0
71,7.4718868,7.55001155625,59.0,86.0
72,7.57722355,7.700116425,62.0,72.0
73,7.57722355,7.70274984375,66.0,65.0
74,7.2612133000000005,7.713283518750001,47.0,71.0
75,7.57722355,7.713283518750001,59.0,64.0
76,7.893233800000001,8.075817500000001,62.0,107.0
77,7.893233800000001,8.08283995,59.0,88.0
78,7.893233800000001,8.0986404625,66.0,100.0
79,7.6825603000000005,8.102151687500001,54.0,83.0
80,8.3145808,8.56124435625,62.0,107.0
81,8.3145808,8.58933415625,59.0,86.0
82,8.3145808,8.602501250000001,66.0,100.0
83,8.5252543,8.835997712500001,54.0,92.0
84,8.103907300000001,8.8465313875,47.0,69.0
85,8.7359278,8.876376800000001,62.0,107.0
86,8.7359278,8.924656143750001,66.0,96.0
87,8.7359278,8.972935487500001,59.0,78.0
88,8.946601300000001,9.392526875,45.0,93.0
89,9.1572748,9.41271641875,64.0,79.0
90,9.1572748,9.4258835125,61.0,102.0
91,9.1572748,9.42851693125,57.0,90.0
92,9.3679483,9.769105756250001,52.0,59.0
93,9.5786218,9.839330256250001,57.0,89.0
94,9.5786218,9.839330256250001,61.0,102.0
95,9.5786218,9.839330256250001,64.0,89.0
96,9.999968800000001,10.255410418750001,61.0,100.0
97,9.999968800000001,10.267699706250001,64.0,85.0
98,9.999968800000001,10.2685775125,57.0,85.0
99,9.789295300000001,10.484517850000001,45.0,73.0
100,10.2106423,10.4915403,52.0,53.0
101,10.4213158,10.530163775,61.0,100.0
102,10.4213158,10.55562015625,64.0,81.0
103,10.4213158,10.6548122625,57.0,90.0
104,10.6319893,10.96204445,43.0,86.0
105,10.842662800000001,11.13321666875,59.0,86.0
106,10.842662800000001,11.13672789375,62.0,83.0
107,10.842662800000001,11.14462815,55.0,89.0
108,11.2640098,11.3359899125,59.0,86.0
109,11.2640098,11.343012362500001,62.0,83.0
110,11.0533363,11.38426925625,43.0,72.0
111,11.2640098,11.443960081250001,55.0,97.0
112,11.4746833,11.983810925,40.0,77.0
113,11.685356800000001,11.998733631250001,55.0,86.0
114,11.685356800000001,12.00400046875,59.0,82.0
115,11.685356800000001,12.00926730625,52.0,92.0
116,12.1067038,12.18833978125,55.0,88.0
117,12.1067038,12.2067737125,52.0,90.0
118,12.1067038,12.221696418750001,59.0,78.0
119,12.3173773,12.384090575,42.0,122.0
120,12.3173773,12.400768893750001,54.0,127.0
121,12.5280508,12.59739749375,42.0,102.0
122,12.5280508,12.609686781250002,54.0,117.0
123,12.738724300000001,12.819482475000001,52.0,100.0
124,12.738724300000001,12.8387942125,40.0,112.0
125,12.9493978,13.02664475,41.0,96.0
126,12.9493978,13.034545006250001,53.0,102.0
127,13.054734550000001,13.12408124375,42.0,127.0
128,13.054734550000001,13.14339298125,54.0,127.0
129,14.0027653,14.425867912500001,38.0,77.0
130,14.2134388,14.48731435,66.0,81.0
131,14.2134388,14.488192156250001,62.0,81.0
132,14.2134388,14.49697021875,57.0,73.0
133,14.634785800000001,14.7137883625,62.0,96.0
134,14.634785800000001,14.7243220375,57.0,81.0
135,14.634785800000001,14.726955456250002,66.0,83.0
136,14.4241123,14.871793487500002,50.0,54.0
137,15.0561328,15.32913054375,62.0,93.0
138,15.0561328,15.3370308,66.0,89.0
139,15.0561328,15.344931056250001,57.0,78.0
140,14.845459300000002,15.3738986625,38.0,73.0
141,15.477479800000001,15.55033771875,62.0,92.0
142,15.2668063,15.5705272625,45.0,53.0
143,15.477479800000001,15.57316068125,66.0,85.0
144,15.477479800000001,15.57842751875,57.0,78.0
145,15.2668063,15.6372405375,50.0,74.0
146,15.8988268,16.11388933125,62.0,92.0
147,15.8988268,16.13056765,66.0,78.0
148,15.8988268,16.1498793875,57.0,77.0
149,15.688153300000002,16.17270235,38.0,63.0
150,16.3201738,16.47203428125,62.0,90.0
151,16.3201738,16.5326029125,66.0,82.0
152,16.3201738,16.550159037500002,57.0,77.0
153,16.1095003,16.59141593125,50.0,83.0
154,16.7415208,16.795066981250002,62.0,97.0
155,16.7415208,16.80560065625,66.0,95.0
156,16.7415208,16.823156781250002,57.0,82.0
157,16.84685755,16.93902720625,66.0,63.0
158,16.84685755,16.9434162375,62.0,71.0
159,16.84685755,16.955705525000003,57.0,66.0
160,16.5308473,17.02329660625,38.0,67.0
161,17.1628678,17.23572571875,62.0,102.0
162,17.1628678,17.2524040375,66.0,92.0
163,17.1628678,17.2559152625,57.0,83.0
164,16.952194300000002,17.34808491875,50.0,90.0
165,17.5842148,17.68867374375,62.0,86.0
166,17.5842148,17.696574000000002,57.0,74.0
167,17.5842148,17.7053520625,66.0,83.0
168,17.3735413,17.8177112625,38.0,69.0
169,18.005561800000002,18.09685365,66.0,81.0
170,18.005561800000002,18.09948706875,62.0,89.0
171,18.005561800000002,18.11353196875,57.0,77.0
172,17.7948883,18.282948575000002,50.0,83.0
173,18.4269088,18.64197133125,62.0,86.0
174,18.4269088,18.6463603625,66.0,74.0
175,18.4269088,18.6604052625,57.0,68.0
176,18.2162353,18.71219583125,38.0,76.0
177,18.637582300000002,18.92111371875,45.0,62.0
178,18.8482558,18.935158618750002,62.0,89.0
179,18.8482558,18.954470356250003,57.0,75.0
180,18.8482558,18.9553481625,66.0,79.0
181,18.637582300000002,18.979048931250002,50.0,77.0
182,19.2696028,19.4363859875,66.0,70.0
183,19.2696028,19.437263793750002,62.0,83.0
184,19.2696028,19.4662314,57.0,70.0
185,19.058929300000003,19.5487451875,38.0,66.0
186,19.4802763,19.899867687500002,50.0,97.0
187,19.690949800000002,19.912156975000002,62.0,92.0
188,19.690949800000002,19.9174238125,66.0,82.0
189,19.690949800000002,19.93673555,57.0,74.0
190,19.9016233,20.35544913125,38.0,73.0
191,20.112296800000003,20.4089953125,62.0,112.0
192,20.112296800000003,20.41513995625,66.0,100.0
193,20.112296800000003,20.42391801875,57.0,85.0
194,20.3229703,20.6653147375,50.0,112.0
195,20.5336438,20.7179831125,62.0,122.0
196,20.5336438,20.72324995,57.0,90.0
197,20.5336438,20.74343949375,66.0,112.0
198,20.744317300000002,21.15951965625,47.0,82.0
199,20.9549908,21.214821450000002,59.0,81.0
200,20.9549908,21.21569925625,62.0,99.0
201,20.9549908,21.22886635,66.0,96.0
202,21.3763378,21.504497512500002,62.0,99.0
203,21.3763378,21.53785415,59.0,81.0
204,21.3763378,21.6028118125,66.0,93.0
205,21.1656643,21.60720084375,54.0,77.0
206,21.797684800000003,22.075071575000003,62.0,100.0
207,21.797684800000003,22.0803384125,59.0,77.0
208,21.797684800000003,22.098772343750003,66.0,97.0
209,22.0083583,22.236587925000002,54.0,76.0
210,21.5870113,22.2471216,47.0,70.0
211,22.2190318,22.353336156250002,66.0,83.0
212,22.2190318,22.388448406250003,62.0,96.0
213,22.2190318,22.408637950000003,59.0,82.0
214,22.429705300000002,22.872119650000002,40.0,77.0
215,22.6403788,22.9124987375,67.0,83.0
216,22.6403788,22.9230324125,64.0,93.0
217,22.6403788,22.923910218750002,59.0,77.0
218,22.851052300000003,23.2144640875,47.0,56.0
219,22.851052300000003,23.27503271875,52.0,72.0
220,23.0617258,23.318045225000002,67.0,92.0
221,23.0617258,23.32770109375,64.0,93.0
222,23.0617258,23.3285789,59.0,89.0
223,23.483072800000002,23.74553686875,64.0,99.0
224,23.483072800000002,23.74729248125,67.0,95.0
225,23.483072800000002,23.7587039625,59.0,95.0
226,23.2723993,23.779771312500003,40.0,76.0
227,23.904419800000003,23.980788943750003,67.0,81.0
228,23.904419800000003,24.006245325000002,64.0,89.0
229,23.6937463,24.062424925000002,52.0,96.0
230,23.904419800000003,24.1168489125,59.0,90.0
231,24.3257668,24.561018875000002,66.0,90.0
232,24.3257668,24.56716351875,61.0,97.0
233,24.3257668,24.57945280625,57.0,85.0
234,24.1150933,24.6154428625,42.0,81.0
235,24.536440300000002,24.9577873,49.0,43.0
236,24.7471138,24.967443168750002,61.0,100.0
237,24.7471138,24.982365875000003,66.0,92.0
238,24.7471138,24.991143937500002,57.0,81.0
239,25.168460800000002,25.432680481250003,66.0,95.0
240,25.168460800000002,25.433558287500002,61.0,117.0
241,25.168460800000002,25.43970293125,57.0,86.0
242,24.9577873,25.585418768750003,42.0,83.0
243,25.3791343,25.733768025,54.0,83.0
244,25.589807800000003,25.759224406250002,61.0,112.0
245,25.589807800000003,25.762735631250003,66.0,90.0
246,25.589807800000003,25.77678053125,57.0,86.0
247,26.0111548,26.24289565,61.0,117.0
248,26.0111548,26.254307131250002,66.0,95.0
249,26.0111548,26.262207387500002,57.0,82.0
250,25.8004813,26.531693906250002,42.0,72.0
251,26.116491550000003,26.600162793750002,54.0,88.0
252,26.4325018,26.702866125,61.0,112.0
253,26.4325018,26.715155412500003,66.0,90.0
254,26.4325018,26.7221778625,57.0,85.0
255,26.643175300000003,27.122457512500002,42.0,92.0
256,26.8538488,27.147036087500002,61.0,122.0
257,26.8538488,27.14791389375,66.0,100.0
258,26.8538488,27.154058537500003,57.0,90.0
259,27.0645223,27.351564943750002,54.0,112.0
260,27.275195800000002,27.411255768750003,61.0,127.0
261,27.275195800000002,27.431445312500003,57.0,90.0
262,27.275195800000002,27.451634856250003,66.0,100.0
263,27.4858693,27.61139559375,47.0,85.0
264,27.696542800000003,27.806268581250002,47.0,71.0
265,27.9072163,27.998508150000003,62.0,127.0
266,27.9072163,28.0002637625,59.0,102.0
267,27.9072163,28.010797437500003,47.0,95.0
268,27.9072163,28.011675243750002,66.0,117.0
269,28.1178898,28.20918165,62.0,97.0
270,28.1178898,28.239904868750003,59.0,89.0
271,28.1178898,28.244293900000002,66.0,102.0
272,28.1178898,28.24692731875,47.0,95.0
273,28.328563300000003,28.41897734375,47.0,90.0
274,28.5392368,28.621750587500003,47.0,92.0
275,28.749910300000003,28.8289128625,62.0,122.0
276,28.749910300000003,28.8324240875,47.0,99.0
277,28.749910300000003,28.84032434375,59.0,99.0
278,28.749910300000003,28.84910240625,66.0,112.0
279,28.960583800000002,29.023785850000003,62.0,102.0
280,28.960583800000002,29.040464168750002,59.0,96.0
281,28.960583800000002,29.0430975875,66.0,102.0
282,28.960583800000002,29.059775906250003,47.0,100.0
283,29.1712573,29.58821526875,47.0,68.0
284,29.381930800000003,29.655806350000002,62.0,95.0
285,29.381930800000003,29.65843976875,59.0,75.0
286,29.381930800000003,29.6645844125,66.0,89.0
287,29.8032778,29.884913781250003,62.0,97.0
288,29.8032778,29.888425006250003,59.0,88.0
289,29.8032778,29.9033477125,66.0,100.0
290,29.5926043,30.03589645625,54.0,59.0
291,30.2246248,30.504644993750002,59.0,76.0
292,30.2246248,30.5055228,62.0,100.0
293,30.013951300000002,30.5143008625,47.0,65.0
294,30.2246248,30.51517866875,66.0,96.0
295,30.6459718,30.726729975,62.0,97.0
296,30.6459718,30.73111900625,59.0,88.0
297,30.6459718,30.7355080375,66.0,95.0
298,30.435298300000003,30.75043074375,54.0,72.0
299,30.8566453,30.97339353125,47.0,93.0
300,31.067318800000002,31.155099425000003,47.0,96.0
301,31.2779923,31.34558338125,66.0,117.0
302,31.2779923,31.34733899375,62.0,127.0
303,31.2779923,31.361383893750002,47.0,92.0
304,31.2779923,31.361383893750002,59.0,100.0
305,31.488665800000003,31.56854616875,62.0,117.0
306,31.488665800000003,31.5869801,47.0,93.0
307,31.488665800000003,31.5887357125,59.0,92.0
308,31.488665800000003,31.60014719375,66.0,112.0
309,31.699339300000002,31.798531406250003,47.0,92.0
310,31.9100128,31.991648781250003,47.0,90.0
311,32.1206863,32.204077893750004,62.0,107.0
312,32.1206863,32.21197815,47.0,88.0
313,32.1206863,32.21197815,59.0,97.0
314,32.1206863,32.2207562125,66.0,117.0
315,32.3313598,32.399828687500005,62.0,117.0
316,32.3313598,32.420018231250005,59.0,97.0
317,32.3313598,32.42177384375,66.0,117.0
318,32.3313598,32.44284119375,47.0,76.0
319,32.7527068,32.84838768125,64.0,92.0
320,32.7527068,32.85014329375,59.0,72.0
321,32.7527068,32.85716574375,67.0,86.0
322,32.5420333,32.934412693750005,40.0,88.0
323,33.1740538,33.23813365625,64.0,90.0
324,33.1740538,33.24340049375,59.0,85.0
325,33.1740538,33.248667331250005,67.0,75.0
326,32.963380300000004,33.293435450000004,47.0,54.0
327,32.963380300000004,33.30309131875,52.0,60.0
328,33.5954008,33.63665769375,59.0,92.0
329,33.5954008,33.64455795,64.0,97.0
330,33.5954008,33.64455795,67.0,89.0
331,33.70073755,33.81309675,64.0,72.0
332,33.70073755,33.81748578125,67.0,73.0
333,33.70073755,33.8253860375,59.0,65.0
334,33.3847273,33.844697775,40.0,79.0
335,34.016747800000005,34.07994985,67.0,89.0
336,34.016747800000005,34.086094493750004,64.0,102.0
337,34.016747800000005,34.106284037500004,59.0,102.0
338,33.8060743,34.149296543750005,52.0,86.0
339,34.4380948,34.61102263125,64.0,86.0
340,34.4380948,34.624189725,61.0,112.0
341,34.4380948,34.6294565625,57.0,93.0
342,34.2274213,34.7137259625,45.0,63.0
343,34.8594418,34.93229971875,64.0,89.0
344,34.8594418,34.9349331375,61.0,102.0
345,34.8594418,34.937566556250005,57.0,96.0
346,34.6487683,34.97267880625,52.0,88.0
347,35.2807888,35.541497256250004,61.0,102.0
348,35.2807888,35.5423750625,64.0,86.0
349,35.2807888,35.548519706250005,57.0,90.0
350,35.070115300000005,35.653856456250004,45.0,81.0
351,35.4914623,35.658245487500004,52.0,64.0
352,35.7021358,35.75392636875,62.0,79.0
353,35.7021358,35.7846495875,64.0,79.0
354,35.7021358,35.78903861875,61.0,117.0
355,35.7021358,35.81010596875,57.0,95.0
356,36.123482800000005,36.218285875,66.0,107.0
357,35.9128093,36.32450043125,38.0,79.0
358,36.228819550000004,36.35083461875,66.0,66.0
359,36.123482800000005,36.3780466125,57.0,93.0
360,36.123482800000005,36.386824675,62.0,102.0
361,36.5448298,36.619443331250004,66.0,107.0
362,36.5448298,36.6273435875,57.0,96.0
363,36.5448298,36.6273435875,62.0,102.0
364,36.334156300000004,36.660700225,45.0,42.0
365,36.334156300000004,36.673867318750005,50.0,73.0
366,36.7555033,37.24444138125,38.0,76.0
367,36.9661768,37.24444138125,62.0,117.0
368,36.9661768,37.2453191875,66.0,117.0
369,36.9661768,37.2523416375,57.0,107.0
370,37.176850300000005,37.4156136,50.0,90.0
371,37.387523800000004,37.4524814625,62.0,122.0
372,37.387523800000004,37.46564855625,57.0,99.0
373,37.387523800000004,37.46564855625,66.0,122.0
374,37.5981973,38.0037437875,47.0,76.0
375,37.8088708,38.079235125000004,62.0,99.0
376,37.8088708,38.08362415625,66.0,112.0
377,37.8088708,38.08889099375,59.0,93.0
378,38.230217800000005,38.29341985,62.0,100.0
379,38.230217800000005,38.31712061875,59.0,96.0
380,38.230217800000005,38.31712061875,66.0,112.0
381,38.0195443,38.403145631250005,54.0,77.0
382,38.6515648,38.942118668750005,62.0,107.0
383,38.6515648,38.95353015,66.0,117.0
384,38.6515648,38.95616356875,59.0,96.0
385,38.440891300000004,39.055355675,47.0,81.0
386,39.0729118,39.12119114375,62.0,112.0
387,38.8622383,39.12645798125,54.0,107.0
388,39.0729118,39.13348043125,59.0,100.0
389,39.0729118,39.136991656250004,66.0,122.0
390,39.17824855,39.2572511125,66.0,90.0
391,39.17824855,39.2712960125,59.0,82.0
392,39.17824855,39.2712960125,62.0,100.0
393,39.283585300000006,39.750578225000005,45.0,88.0
394,39.494258800000004,39.790957312500005,57.0,99.0
395,39.494258800000004,39.795346343750005,64.0,95.0
396,39.494258800000004,39.799735375000004,61.0,127.0
397,39.9156058,39.979685656250005,61.0,127.0
398,39.9156058,39.9875859125,64.0,97.0
399,39.9156058,39.99197494375,57.0,100.0
400,39.7049323,40.118379043750004,52.0,82.0
401,40.1262793,40.15173568125,61.0,81.0
402,40.3369528,40.374698468750005,64.0,89.0
403,40.3369528,40.386109950000005,61.0,122.0
404,40.3369528,40.389621175,57.0,102.0
405,40.442289550000005,40.56869365,57.0,62.0
406,40.442289550000005,40.570449262500006,61.0,79.0
407,40.442289550000005,40.570449262500006,64.0,74.0
408,40.1262793,40.799556693750006,45.0,82.0
409,40.7582998,40.82237965625,61.0,122.0
410,40.547626300000005,40.839935781250006,52.0,88.0
411,40.7582998,40.8583697125,64.0,96.0
412,40.7582998,40.86978119375,57.0,117.0
413,41.1796468,41.457033575000004,59.0,99.0
414,41.1796468,41.4623004125,55.0,99.0
415,41.1796468,41.464056025000005,62.0,95.0
416,40.9689733,41.499168275,43.0,95.0
417,41.3903203,41.5571034875,50.0,77.0
418,41.600993800000005,41.6764851375,59.0,96.0
419,41.600993800000005,41.688774425000005,62.0,92.0
420,41.600993800000005,41.710719581250004,55.0,99.0
421,42.0223408,42.32518395625,57.0,112.0
422,42.0223408,42.333084212500005,61.0,127.0
423,41.8116673,42.337473243750004,42.0,107.0
424,42.4436878,42.452465862500006,58.0,89.0
425,42.2330143,42.48670030625,54.0,89.0
426,42.4436878,42.5139123,57.0,127.0
427,42.4436878,42.534979650000004,61.0,127.0
428,42.865034800000004,42.924725625,62.0,112.0
429,42.865034800000004,42.9299924625,66.0,107.0
430,42.865034800000004,42.945792975,59.0,99.0
431,42.97037155,43.056396562500005,59.0,69.0
432,42.97037155,43.06429681875,62.0,75.0
433,42.97037155,43.06429681875,66.0,71.0
434,42.654361300000005,43.08273075,47.0,77.0
435,43.2863818,43.39259635625,62.0,99.0
436,43.0757083,43.51373361875,54.0,66.0
437,43.4970553,43.5585017375,62.0,29.0
438,43.2863818,43.57166883125,59.0,93.0
439,43.2863818,43.579569087500005,66.0,112.0
440,43.707728800000005,43.950003325000004,62.0,102.0
441,43.707728800000005,43.954392356250004,59.0,97.0
442,43.707728800000005,43.971070675,66.0,117.0
443,43.918402300000004,44.160676825,54.0,86.0
444,43.4970553,44.190522237500005,47.0,86.0
445,44.1290758,44.2431906125,62.0,117.0
446,44.1290758,44.2572355125,66.0,117.0
447,44.1290758,44.2993702125,59.0,100.0
448,44.5504228,44.82517615625,59.0,99.0
449,44.5504228,44.83219860625,62.0,97.0
450,44.5504228,44.83395421875,55.0,100.0
451,44.3397493,44.8365876375,43.0,97.0
452,44.971769800000004,44.983181281250005,61.0,79.0
453,44.971769800000004,45.0226825625,59.0,102.0
454,44.971769800000004,45.0297050125,55.0,97.0
455,44.971769800000004,45.0332162375,62.0,102.0
456,44.761096300000005,45.12363028125,50.0,82.0
457,45.3931168,45.452807625000005,59.0,97.0
458,45.3931168,45.466852525,55.0,95.0
459,45.3931168,45.466852525,62.0,95.0
460,45.49845355,45.656458675,55.0,66.0
461,45.49845355,45.656458675,59.0,69.0
462,45.49845355,45.66699235,62.0,58.0
463,45.1824433,45.691570925,43.0,79.0
464,45.6037903,45.712638275,50.0,102.0
465,45.814463800000006,45.867132175,59.0,93.0
466,45.814463800000006,45.87766585,55.0,97.0
467,45.814463800000006,45.87766585,62.0,97.0
468,46.2358108,46.295501625,66.0,100.0
469,46.2358108,46.494763643750005,61.0,122.0
470,46.2358108,46.5026639,57.0,95.0
471,46.34114755,46.50705293125,66.0,59.0
472,46.025137300000004,46.604489425000004,42.0,76.0
473,46.6571578,46.719482043750006,61.0,127.0
474,46.6571578,46.730893525000006,66.0,107.0
475,46.6571578,46.73879378125,57.0,93.0
476,46.4464843,46.7835619,54.0,102.0
477,47.078504800000005,47.13556220625,61.0,127.0
478,47.078504800000005,47.15136271875,66.0,102.0
479,47.183841550000004,47.32429055,66.0,44.0
480,47.183841550000004,47.32867958125,61.0,66.0
481,47.078504800000005,47.352380350000004,57.0,85.0
482,47.2891783,47.47088419375,54.0,89.0
483,46.867831300000006,47.517407925,42.0,90.0
484,47.4998518,47.519163537500006,63.0,102.0
485,47.4998518,47.573587525,66.0,102.0
486,47.4998518,47.58324339375,57.0,92.0
487,47.4998518,47.58675461875,61.0,127.0
488,47.921198800000006,48.201218993750004,64.0,97.0
489,47.921198800000006,48.205608025000004,67.0,96.0
490,47.921198800000006,48.21350828125,59.0,90.0
491,47.7105253,48.221408537500004,40.0,79.0
492,48.3425458,48.396969787500005,67.0,88.0
493,48.3425458,48.421548362500005,64.0,99.0
494,48.3425458,48.4812391875,59.0,112.0
495,48.131872300000005,48.55585271875,52.0,69.0
496,48.7638928,49.043912993750006,57.0,96.0
497,48.7638928,49.0447908,64.0,93.0
498,48.7638928,49.05093544375,61.0,127.0
499,48.9745663,49.1905066375,52.0,90.0
500,48.5532193,49.234396950000004,45.0,93.0
501,49.185239800000005,49.27565384375,61.0,127.0
502,49.185239800000005,49.28092068125,64.0,97.0
503,49.185239800000005,49.290576550000004,57.0,100.0
504,49.6065868,49.8751955125,62.0,127.0
505,49.6065868,49.9032853125,57.0,99.0
506,49.6065868,49.912941181250005,66.0,107.0
507,49.395913300000004,50.027055993750004,38.0,83.0
508,49.8172603,50.066557275,50.0,86.0
509,50.0279338,50.09376926875,62.0,96.0
510,50.0279338,50.106058556250005,66.0,78.0
511,50.0279338,50.122736875,57.0,102.0
512,50.449280800000004,50.7582686,61.0,99.0
513,50.449280800000004,50.76265763125,64.0,90.0
514,50.238607300000005,50.849560450000006,37.0,99.0
515,50.6599543,50.875894637500004,49.0,92.0
516,50.8706278,50.9601640375,64.0,107.0
517,50.8706278,51.014588025,61.0,122.0
518,51.0813013,51.48158095,47.0,90.0
519,51.291974800000006,51.52634906875,62.0,102.0
520,51.291974800000006,51.5307381,59.0,85.0
521,51.291974800000006,51.53776055,66.0,99.0
522,51.7133218,51.77740165625,62.0,102.0
523,51.7133218,51.78091288125,66.0,102.0
524,51.7133218,51.801102425,59.0,90.0
525,51.502648300000004,51.88098279375,54.0,81.0
526,51.9239953,51.956474131250005,66.0,44.0
527,52.1346688,52.421711443750006,62.0,90.0
528,52.1346688,52.42697828125,59.0,86.0
529,52.1346688,52.42697828125,66.0,78.0
530,51.9239953,52.4875469125,47.0,73.0
531,52.345342300000006,52.5051030375,54.0,90.0
532,52.556015800000004,52.63414055625,66.0,112.0
533,52.556015800000004,52.65169668125,62.0,112.0
534,52.556015800000004,52.656963518750004,59.0,95.0
535,52.9773628,53.027397756250004,67.0,83.0
536,52.9773628,53.037053625000006,64.0,95.0
537,52.7666893,53.162579918750005,40.0,88.0
538,53.08269955,53.200325587500004,67.0,70.0
539,53.08269955,53.214370487500005,64.0,69.0
540,52.9773628,53.234560031250005,59.0,89.0
541,53.398709800000006,53.47595675,67.0,92.0
542,53.398709800000006,53.4829792,64.0,95.0
543,53.398709800000006,53.485612618750004,59.0,95.0
544,53.1880363,53.51194680625,47.0,40.0
545,53.1880363,53.528625125000005,52.0,58.0
546,53.8200568,54.092176737500004,64.0,107.0
547,53.8200568,54.0956879625,67.0,96.0
548,53.8200568,54.103588218750005,59.0,96.0
549,53.609383300000005,54.166790268750006,40.0,77.0
550,54.0307303,54.175568331250005,52.0,83.0
551,54.2414038,54.260715537500005,63.0,82.0
552,54.2414038,54.3028502375,67.0,85.0
553,54.2414038,54.303728043750006,64.0,97.0
554,54.2414038,54.366052287500004,59.0,102.0
555,54.662750800000005,54.982272275,65.0,102.0
556,54.662750800000005,54.985783500000004,68.0,112.0
557,54.662750800000005,54.988416918750005,61.0,95.0
558,54.452077300000006,54.9945615625,37.0,95.0
559,55.0840978,55.1490554625,65.0,100.0
560,55.0840978,55.174511843750004,68.0,102.0
561,55.0840978,55.181534293750005,61.0,102.0
562,54.8734243,55.228058025,49.0,78.0
563,55.50544480000001,55.7845871875,65.0,112.0
564,55.2947713,55.79073183125,37.0,99.0
565,55.50544480000001,55.808287956250005,61.0,100.0
566,55.50544480000001,55.81882163125,68.0,107.0
567,55.926791800000004,55.9548816,65.0,88.0
568,55.926791800000004,55.9777045625,68.0,55.0
569,55.716118300000005,56.018961456250004,49.0,97.0
570,55.926791800000004,56.0268617125,61.0,107.0
571,56.1374653,56.203300768750005,54.0,127.0
572,56.1374653,56.20681199375,66.0,127.0
573,56.1374653,56.20856760625,42.0,102.0
574,56.3481388,56.42626355625001,54.0,112.0
575,56.3481388,56.4271413625,42.0,97.0
576,56.3481388,56.4341638125,66.0,117.0
577,56.55881230000001,56.61762531875,52.0,97.0
578,56.55881230000001,56.6202587375,64.0,127.0
579,56.55881230000001,56.645715118750005,40.0,97.0
580,56.769485800000005,56.84058810625,41.0,88.0
581,56.769485800000005,56.84058810625,53.0,102.0
582,56.769485800000005,56.8625332625,65.0,112.0
583,56.874822550000005,56.927490925,54.0,127.0
584,56.874822550000005,56.92836873125,66.0,127.0
585,56.874822550000005,56.94065801875,42.0,127.0
586,57.822853300000006,58.2459559125,38.0,77.0
587,58.033526800000004,58.307402350000004,66.0,81.0
588,58.033526800000004,58.30828015625001,62.0,81.0
589,58.033526800000004,58.317058218750006,57.0,73.0
590,58.4548738,58.5338763625,62.0,96.0
591,58.4548738,58.5444100375,57.0,81.0
592,58.4548738,58.54704345625,66.0,83.0
593,58.2442003,58.691881487500005,50.0,54.0
594,58.876220800000006,59.14921854375,62.0,93.0
595,58.876220800000006,59.157118800000006,66.0,89.0
596,58.876220800000006,59.16501905625,57.0,78.0
597,58.6655473,59.1939866625,38.0,73.0
598,59.2975678,59.370425718750006,62.0,92.0
599,59.086894300000004,59.390615262500006,45.0,53.0
600,59.2975678,59.39324868125,66.0,85.0
601,59.2975678,59.39851551875,57.0,78.0
602,59.086894300000004,59.457328537500004,50.0,74.0
603,59.7189148,59.933977331250006,62.0,92.0
604,59.7189148,59.95065565,66.0,78.0
605,59.7189148,59.969967387500006,57.0,77.0
606,59.5082413,59.99279035,38.0,63.0
607,60.140261800000005,60.29212228125,62.0,90.0
608,60.140261800000005,60.3526909125,66.0,82.0
609,60.140261800000005,60.3702470375,57.0,77.0
610,59.929588300000006,60.41150393125,50.0,83.0
611,60.5616088,60.61515498125,62.0,97.0
612,60.5616088,60.625688656250006,66.0,95.0
613,60.5616088,60.643244781250004,57.0,82.0
614,60.66694555,60.75911520625,66.0,63.0
615,60.66694555,60.7635042375,62.0,71.0
616,60.66694555,60.775793525000005,57.0,66.0
617,60.3509353,60.843384606250005,38.0,67.0
618,60.982955800000006,61.05581371875,62.0,102.0
619,60.982955800000006,61.072492037500005,66.0,92.0
620,60.982955800000006,61.0760032625,57.0,83.0
621,60.7722823,61.16817291875,50.0,90.0
622,61.4043028,61.50876174375,62.0,86.0
623,61.4043028,61.516662000000004,57.0,74.0
624,61.4043028,61.5254400625,66.0,83.0
625,61.193629300000005,61.6377992625,38.0,69.0
626,61.8256498,61.916941650000005,66.0,81.0
627,61.8256498,61.91957506875001,62.0,89.0
628,61.8256498,61.93361996875,57.0,77.0
629,61.6149763,62.103036575000004,50.0,83.0
630,62.246996800000005,62.46205933125,62.0,86.0
631,62.246996800000005,62.4664483625,66.0,74.0
632,62.246996800000005,62.480493262500005,57.0,68.0
633,62.03632330000001,62.532283831250005,38.0,76.0
634,62.457670300000004,62.741201718750006,45.0,62.0
635,62.6683438,62.75524661875,62.0,89.0
636,62.6683438,62.774558356250004,57.0,75.0
637,62.6683438,62.7754361625,66.0,79.0
638,62.457670300000004,62.799136931250004,50.0,77.0
639,63.08969080000001,63.2564739875,66.0,70.0
640,63.08969080000001,63.257351793750004,62.0,83.0
641,63.08969080000001,63.286319400000004,57.0,70.0
642,62.8790173,63.3688331875,38.0,66.0
643,63.300364300000005,63.719955687500004,50.0,97.0
644,63.511037800000004,63.732244975,62.0,92.0
645,63.511037800000004,63.7375118125,66.0,82.0
646,63.511037800000004,63.75682355000001,57.0,74.0
647,63.7217113,64.17553713125001,38.0,73.0
648,63.9323848,64.22908331250001,62.0,112.0
649,63.9323848,64.23522795625,66.0,100.0
650,63.9323848,64.24400601875,57.0,85.0
651,64.1430583,64.48540273750001,50.0,112.0
652,64.3537318,64.5380711125,62.0,122.0
653,64.3537318,64.54333795000001,57.0,90.0
654,64.3537318,64.56352749375,66.0,112.0
655,64.5644053,64.97960765625001,47.0,82.0
656,64.7750788,65.03490945,59.0,81.0
657,64.7750788,65.03578725625,62.0,99.0
658,64.7750788,65.04895435,66.0,96.0
659,65.1964258,65.32458551250001,62.0,99.0
660,65.1964258,65.35794215,59.0,81.0
661,65.1964258,65.4228998125,66.0,93.0
662,64.9857523,65.42728884375,54.0,77.0
663,65.6177728,65.89515957500001,62.0,100.0
664,65.6177728,65.90042641250001,59.0,77.0
665,65.6177728,65.91886034375,66.0,97.0
666,65.82844630000001,66.05667592500001,54.0,76.0
667,65.4070993,66.0672096,47.0,70.0
668,66.03911980000001,66.17342415625001,66.0,83.0
669,66.03911980000001,66.20853640625,62.0,96.0
670,66.03911980000001,66.22872595,59.0,82.0
671,66.24979330000001,66.69220765,40.0,77.0
672,66.4604668,66.7325867375,67.0,83.0
673,66.4604668,66.7431204125,64.0,93.0
674,66.4604668,66.74399821875001,59.0,77.0
675,66.6711403,67.0345520875,47.0,56.0
676,66.6711403,67.09512071875001,52.0,72.0
677,66.8818138,67.138133225,67.0,92.0
678,66.8818138,67.14778909375,64.0,93.0
679,66.8818138,67.14866690000001,59.0,89.0
680,67.3031608,67.56562486875,64.0,99.0
681,67.3031608,67.56738048125,67.0,95.0
682,67.3031608,67.5787919625,59.0,95.0
683,67.0924873,67.5998593125,40.0,76.0
684,67.7245078,67.80087694375,67.0,81.0
685,67.7245078,67.82633332500001,64.0,89.0
686,67.5138343,67.882512925,52.0,96.0
687,67.7245078,67.9369369125,59.0,90.0
688,68.14585480000001,68.381106875,66.0,90.0
689,68.14585480000001,68.38725151875,61.0,97.0
690,68.14585480000001,68.39954080625,57.0,85.0
691,67.93518130000001,68.4355308625,42.0,81.0
692,68.35652830000001,68.7778753,49.0,43.0
693,68.5672018,68.78753116875001,61.0,100.0
694,68.5672018,68.802453875,66.0,92.0
695,68.5672018,68.8112319375,57.0,81.0
696,68.9885488,69.25276848125,66.0,95.0
697,68.9885488,69.2536462875,61.0,117.0
698,68.9885488,69.25979093125001,57.0,86.0
699,68.7778753,69.40550676875,42.0,83.0
700,69.1992223,69.553856025,54.0,83.0
701,69.4098958,69.57931240625,61.0,112.0
702,69.4098958,69.58282363125001,66.0,90.0
703,69.4098958,69.59686853125001,57.0,86.0
704,69.8312428,70.06298365,61.0,117.0
705,69.8312428,70.07439513125,66.0,95.0
706,69.8312428,70.08229538750001,57.0,82.0
707,69.6205693,70.35178190625001,42.0,72.0
708,69.93657955,70.42025079375,54.0,88.0
709,70.25258980000001,70.522954125,61.0,112.0
710,70.25258980000001,70.53524341250001,66.0,90.0
711,70.25258980000001,70.5422658625,57.0,85.0
712,70.46326330000001,70.9425455125,42.0,92.0
713,70.6739368,70.96712408750001,61.0,122.0
714,70.6739368,70.96800189375,66.0,100.0
715,70.6739368,70.9741465375,57.0,90.0
716,70.8846103,71.17165294375,54.0,112.0
717,71.0952838,71.23134376875001,61.0,127.0
718,71.0952838,71.2515333125,57.0,90.0
719,71.0952838,71.27172285625001,66.0,100.0
720,71.3059573,71.43148359375,47.0,85.0
721,71.5166308,71.62635658125001,47.0,71.0
722,71.7273043,71.81859615,62.0,127.0
723,71.7273043,71.82035176250001,59.0,102.0
724,71.7273043,71.8308854375,47.0,95.0
725,71.7273043,71.83176324375,66.0,117.0
726,71.9379778,72.02926965,62.0,97.0
727,71.9379778,72.05999286875,59.0,89.0
728,71.9379778,72.0643819,66.0,102.0
729,71.9379778,72.06701531875001,47.0,95.0
730,72.1486513,72.23906534375,47.0,90.0
731,72.35932480000001,72.4418385875,47.0,92.0
732,72.56999830000001,72.6490008625,62.0,122.0
733,72.56999830000001,72.6525120875,47.0,99.0
734,72.56999830000001,72.66041234375001,59.0,99.0
735,72.56999830000001,72.66919040625001,66.0,112.0
736,72.78067180000001,72.84387385000001,62.0,102.0
737,72.78067180000001,72.86055216875,59.0,96.0
738,72.78067180000001,72.8631855875,66.0,102.0
739,72.78067180000001,72.87986390625001,47.0,100.0
740,72.9913453,73.40830326875,47.0,68.0
741,73.2020188,73.47589435,62.0,95.0
742,73.2020188,73.47852776875,59.0,75.0
743,73.2020188,73.4846724125,66.0,89.0
744,73.6233658,73.70500178125,62.0,97.0
745,73.6233658,73.70851300625,59.0,88.0
746,73.6233658,73.7234357125,66.0,100.0
747,73.4126923,73.85598445625,54.0,59.0
748,74.0447128,74.32473299375,59.0,76.0
749,74.0447128,74.3256108,62.0,100.0
750,73.8340393,74.3343888625,47.0,65.0
751,74.0447128,74.33526666875001,66.0,96.0
752,74.46605980000001,74.54681797500001,62.0,97.0
753,74.46605980000001,74.55120700625001,59.0,88.0
754,74.46605980000001,74.55559603750001,66.0,95.0
755,74.2553863,74.57051874375,54.0,72.0
756,74.67673330000001,74.79348153125001,47.0,93.0
757,74.88740680000001,74.975187425,47.0,96.0
758,75.0980803,75.16567138125001,66.0,117.0
759,75.0980803,75.16742699375,62.0,127.0
760,75.0980803,75.18147189375,47.0,92.0
761,75.0980803,75.18147189375,59.0,100.0
762,75.3087538,75.38863416875,62.0,117.0
763,75.3087538,75.4070681,47.0,93.0
764,75.3087538,75.40882371250001,59.0,92.0
765,75.3087538,75.42023519375,66.0,112.0
766,75.5194273,75.61861940625,47.0,92.0
767,75.7301008,75.81173678125,47.0,90.0
768,75.9407743,76.02416589375001,62.0,107.0
769,75.9407743,76.03206615,47.0,88.0
770,75.9407743,76.03206615,59.0,97.0
771,75.9407743,76.0408442125,66.0,117.0
772,76.1514478,76.2199166875,62.0,117.0
773,76.1514478,76.24010623125001,59.0,97.0
774,76.1514478,76.24186184375,66.0,117.0
775,76.1514478,76.26292919375001,47.0,76.0
776,76.57279480000001,76.66847568125,64.0,92.0
777,76.57279480000001,76.67023129375,59.0,72.0
778,76.57279480000001,76.67725374375,67.0,86.0
779,76.3621213,76.75450069375,40.0,88.0
780,76.99414180000001,77.05822165625,64.0,90.0
781,76.99414180000001,77.06348849375,59.0,85.0
782,76.99414180000001,77.06875533125,67.0,75.0
783,76.78346830000001,77.11352345,47.0,54.0
784,76.78346830000001,77.12317931875,52.0,60.0
785,77.4154888,77.45674569375001,59.0,92.0
786,77.4154888,77.46464595,64.0,97.0
787,77.4154888,77.46464595,67.0,89.0
788,77.52082555,77.63318475,64.0,72.0
789,77.52082555,77.63757378125,67.0,73.0
790,77.52082555,77.64547403750001,59.0,65.0
791,77.2048153,77.664785775,40.0,79.0
792,77.8368358,77.90003785,67.0,89.0
793,77.8368358,77.90618249375001,64.0,102.0
794,77.8368358,77.9263720375,59.0,102.0
795,77.6261623,77.96938454375001,52.0,86.0
796,78.2581828,78.43111063125001,64.0,86.0
797,78.2581828,78.444277725,61.0,112.0
798,78.2581828,78.44954456250001,57.0,93.0
799,78.0475093,78.5338139625,45.0,63.0
800,78.6795298,78.75238771875,64.0,89.0
801,78.6795298,78.75502113750001,61.0,102.0
802,78.6795298,78.75765455625,57.0,96.0
803,78.4688563,78.79276680625,52.0,88.0
804,79.10087680000001,79.36158525625001,61.0,102.0
805,79.10087680000001,79.3624630625,64.0,86.0
806,79.10087680000001,79.36860770625,57.0,90.0
807,78.89020330000001,79.47394445625001,45.0,81.0
808,79.31155030000001,79.47833348750001,52.0,64.0
809,79.5222238,79.57401436875,62.0,79.0
810,79.5222238,79.60473758750001,64.0,79.0
811,79.5222238,79.60912661875001,61.0,117.0
812,79.5222238,79.63019396875,57.0,95.0
813,79.9435708,80.038373875,66.0,107.0
814,79.7328973,80.14458843125,38.0,79.0
815,80.04890755000001,80.17092261875,66.0,66.0
816,79.9435708,80.1981346125,57.0,93.0
817,79.9435708,80.206912675,62.0,102.0
818,80.3649178,80.43953133125001,66.0,107.0
819,80.3649178,80.4474315875,57.0,96.0
820,80.3649178,80.4474315875,62.0,102.0
821,80.1542443,80.480788225,45.0,42.0
822,80.1542443,80.49395531875001,50.0,73.0
823,80.5755913,81.06452938125001,38.0,76.0
824,80.7862648,81.06452938125001,62.0,117.0
825,80.7862648,81.0654071875,66.0,117.0
826,80.7862648,81.07242963750001,57.0,107.0
827,80.99693830000001,81.2357016,50.0,90.0
828,81.20761180000001,81.2725694625,62.0,122.0
829,81.20761180000001,81.28573655625,57.0,99.0
830,81.20761180000001,81.28573655625,66.0,122.0
831,81.41828530000001,81.8238317875,47.0,76.0
832,81.6289588,81.89932312500001,62.0,99.0
833,81.6289588,81.90371215625001,66.0,112.0
834,81.6289588,81.90897899375001,59.0,93.0
835,82.0503058,82.11350785,62.0,100.0
836,82.0503058,82.13720861875001,59.0,96.0
837,82.0503058,82.13720861875001,66.0,112.0
838,81.8396323,82.22323363125001,54.0,77.0
839,82.4716528,82.76220666875001,62.0,107.0
840,82.4716528,82.77361815,66.0,117.0
841,82.4716528,82.77625156875,59.0,96.0
842,82.2609793,82.875443675,47.0,81.0
843,82.8929998,82.94127914375001,62.0,112.0
844,82.6823263,82.94654598125001,54.0,107.0
845,82.8929998,82.95356843125,59.0,100.0
846,82.8929998,82.95707965625,66.0,122.0
847,82.99833655,83.0773391125,66.0,90.0
848,82.99833655,83.0913840125,59.0,82.0
849,82.99833655,83.0913840125,62.0,100.0
850,83.10367330000001,83.57066622500001,45.0,88.0
851,83.31434680000001,83.61104531250001,57.0,99.0
852,83.31434680000001,83.61543434375001,64.0,95.0
853,83.31434680000001,83.61982337500001,61.0,127.0
854,83.7356938,83.79977365625001,61.0,127.0
855,83.7356938,83.80767391250001,64.0,97.0
856,83.7356938,83.81206294375,57.0,100.0
857,83.52502030000001,83.93846704375001,52.0,82.0
858,83.9463673,83.97182368125,61.0,81.0
859,84.1570408,84.19478646875001,64.0,89.0
860,84.1570408,84.20619795,61.0,122.0
861,84.1570408,84.209709175,57.0,102.0
862,84.26237755000001,84.38878165,57.0,62.0
863,84.26237755000001,84.3905372625,61.0,79.0
864,84.26237755000001,84.3905372625,64.0,74.0
865,83.9463673,84.61964469375,45.0,82.0
866,84.5783878,84.64246765625,61.0,122.0
867,84.3677143,84.66002378125,52.0,88.0
868,84.5783878,84.6784577125,64.0,96.0
869,84.5783878,84.68986919375,57.0,117.0
870,84.9997348,85.27712157500001,59.0,99.0
871,84.9997348,85.2823884125,55.0,99.0
872,84.9997348,85.284144025,62.0,95.0
873,84.7890613,85.319256275,43.0,95.0
874,85.21040830000001,85.3771914875,50.0,77.0
875,85.42108180000001,85.49657313750001,59.0,96.0
876,85.42108180000001,85.508862425,62.0,92.0
877,85.42108180000001,85.53080758125,55.0,99.0
878,85.84242880000001,86.14527195625,57.0,112.0
879,85.84242880000001,86.15317221250001,61.0,127.0
880,85.63175530000001,86.15756124375001,42.0,107.0
881,86.0531023,86.30678830625,54.0,89.0
882,86.2637758,86.3340003,57.0,127.0
883,86.2637758,86.35506765000001,61.0,127.0
884,86.4744493,86.5323845125,35.0,107.0
885,86.4744493,86.53852915625001,59.0,100.0
886,86.4744493,86.5446738,47.0,127.0
887,86.6851228,86.75798071875,35.0,107.0
888,86.6851228,86.75885852500001,59.0,122.0
889,86.6851228,86.77202561875,47.0,117.0
890,86.8957963,86.955487125,57.0,117.0
891,86.8957963,86.969532025,45.0,99.0
892,86.8957963,86.97040983125001,33.0,102.0
893,87.1064698,87.1398264375,58.0,127.0
894,87.1064698,87.1486045,46.0,127.0
895,87.1064698,87.17581649375,34.0,127.0
896,87.21180655,87.26798615,59.0,127.0
897,87.21180655,87.27149737500001,35.0,112.0
898,87.21180655,87.2732529875,47.0,127.0
