,start,end,pitch,velocity
0,22.40027081875,22.6292033,66.0,86.0
1,22.73734931875,23.31319175625,66.0,85.0
2,23.41150631875,23.64746126875,68.0,86.0
3,23.74858481875,23.9634723625,71.0,84.0
4,24.08566331875,24.32583175,70.0,80.0
5,24.422741818749998,24.70644955625,68.0,85.0
6,24.75982031875,25.0365055875,66.0,76.0
7,25.09689881875,27.17554956875,68.0,81.0
8,27.79352681875,28.03790873125,66.0,77.0
9,28.13060531875,28.6657174375,66.0,81.0
10,28.80476231875,29.0336948,68.0,79.0
11,29.141840818749998,29.39184070625,71.0,80.0
12,29.47891931875,29.7218967375,70.0,81.0
13,29.81599781875,30.05757074375,68.0,81.0
14,30.15307631875,30.45082899375,66.0,80.0
15,30.49015481875,32.54071569375,63.0,81.0
16,33.18678281875,33.40447935,61.0,78.0
17,33.52386131875,34.1095352125,61.0,82.0
18,34.19801831875,34.446613712499996,63.0,82.0
19,34.53509681875,35.11093925625,66.0,78.0
20,35.20925381875,35.459253706249996,63.0,77.0
21,35.54633231875,35.77666929375,66.0,79.0
22,35.88341081875,36.3735791375,68.0,81.0
23,36.55756781875,36.81318568125,63.0,81.0
24,36.89464631875,37.1713315875,61.0,77.0
25,37.23172481875,38.33284791875,59.0,82.0
26,38.58003881875,38.803353324999996,68.0,82.0
27,38.91711731875,39.522454124999996,68.0,81.0
28,39.59127431875,39.821611293749996,66.0,81.0
29,39.92835281875,40.18397068125,68.0,85.0
30,40.26543131875,40.52666715625,66.0,81.0
31,40.60250981875,40.869363631249996,63.0,82.0
32,40.93958831875,41.185374725,68.0,79.0
33,41.27666681875,43.17554236875,66.0,81.0
34,43.97329481875,44.2022273,66.0,86.0
35,44.310373318749996,44.886215756249996,66.0,85.0
36,44.98453031875,45.22048526875,68.0,86.0
37,45.32160881875,45.536496362499996,71.0,84.0
38,45.65868731875,45.898855749999996,70.0,80.0
39,45.99576581875,46.27947355625,68.0,85.0
40,46.33284431875,46.6095295875,66.0,76.0
41,46.669922818749995,48.74857356875,68.0,81.0
42,49.36655081875,49.610932731249996,66.0,77.0
43,49.70362931875,50.238741437499996,66.0,81.0
44,50.37778631875,50.606718799999996,68.0,79.0
45,50.71486481875,50.96486470625,71.0,80.0
46,51.05194331875,51.2949207375,70.0,81.0
47,51.389021818749995,51.63059474375,68.0,81.0
48,51.72610031875,52.02385299375,66.0,80.0
49,52.063178818749996,54.11373969375,63.0,81.0
50,54.75980681875,54.97750335,61.0,78.0
51,55.09688531875,55.682559212499996,61.0,82.0
52,55.77104231875,56.0196377125,63.0,82.0
53,56.108120818749995,56.683963256249996,66.0,78.0
54,56.782277818749996,57.03227770625,63.0,77.0
55,57.11935631875,57.34969329375,66.0,79.0
56,57.45643481875,57.9466031375,68.0,81.0
57,58.13059181875,58.38620968125,63.0,81.0
58,58.467670318749995,58.744355587499996,61.0,77.0
59,58.80474881875,59.90587191875,59.0,82.0
60,60.15306281875,60.376377325,68.0,82.0
61,60.49014131875,60.827219818749995,68.0,81.0
62,60.827219818749995,61.16429831875,68.0,81.0
63,61.16429831875,61.39463529375,66.0,81.0
64,61.501376818749996,61.75699468125,68.0,85.0
65,61.83845531875,62.099691156249996,66.0,81.0
66,62.17553381875,62.44238763125,61.0,82.0
67,62.51261231875,62.758398725,63.0,79.0
68,62.84969081875,64.74856636875,59.0,81.0
69,64.87216181875,65.11794822499999,71.0,77.0
70,65.20924031875,65.43395931875,73.0,84.0
71,65.54631881875,65.7555883875,75.0,83.0
72,65.88339731875,66.50418355625,75.0,84.0
73,66.55755431875,66.86513845,73.0,86.0
74,66.89463281875,67.22609334375,71.0,81.0
75,67.23171131875,67.58845273125,75.0,70.0
76,67.56878981875,67.93817167499999,73.0,83.0
77,67.90586831875,68.286486125,71.0,81.0
78,68.24294681875,70.04912578125,68.0,79.0
79,70.26541781875,70.5533390375,68.0,83.0
80,70.60249631875,70.85811418125,71.0,82.0
81,70.93957481875,71.185361225,73.0,82.0
82,71.27665331875,71.9016530375,73.0,86.0
83,71.95081031875,72.21766413125,71.0,82.0
84,72.28788881875,72.6376077625,68.0,81.0
85,72.62496731875,72.93395594375,73.0,83.0
86,72.96204581875,73.297719825,71.0,82.0
87,73.29912431875,73.65867471874999,68.0,81.0
88,73.63620281875,75.41148291875,66.0,80.0
89,75.65867381875,75.938168075,61.0,82.0
90,75.99575231875,76.331426325,63.0,82.0
91,76.33283081875,76.5758082375,66.0,76.0
92,76.66990931875,77.28226859375,66.0,81.0
93,77.34406631875,77.74013355625,63.0,84.0
94,77.68114481875,77.93114470625,66.0,81.0
95,78.01822331875,78.3370434,66.0,80.0
96,78.69238031875,79.02945881875,68.0,79.0
97,79.02945881875,80.1263684375,71.0,82.0
98,80.04069431875,80.3679413625,70.0,76.0
99,80.37777281875,80.9578287375,68.0,85.0
100,81.05192981875,81.365131925,68.0,84.0
101,81.38900831875,81.7443452375,75.0,83.0
102,81.72608681875,82.08282823125,73.0,87.0
103,82.06316531875,82.4185022375,75.0,83.0
104,82.40024381875,82.7555807375,73.0,87.0
105,82.73732231875,83.08985025,71.0,82.0
106,83.07440081875,83.73732186875,68.0,78.0
107,83.74855781875,84.09827676249999,66.0,77.0
108,84.08563631875,84.42833279375,68.0,80.0
109,84.42271481875,87.0140057875,71.0,79.0
110,108.69236681875,108.9212993,66.0,86.0
111,109.02944531874999,109.60528775625,66.0,85.0
112,109.70360231875,109.93955726875,68.0,86.0
113,110.04068081874999,110.2555683625,71.0,84.0
114,110.37775931875,110.61792774999999,70.0,80.0
115,110.71483781875,110.99854555625,68.0,85.0
116,111.05191631875,111.3286015875,66.0,76.0
117,111.38899481874999,113.46764556875,68.0,81.0
118,114.08562281875,114.33000473125,66.0,77.0
119,114.42270131875,114.9578134375,66.0,81.0
120,115.09685831875,115.3257908,68.0,79.0
121,115.43393681875,115.68393670625,71.0,80.0
122,115.77101531875,116.0139927375,70.0,81.0
123,116.10809381874999,116.34966674374999,68.0,81.0
124,116.44517231875,116.74292499375,66.0,80.0
125,116.78225081875,118.83281169375,63.0,81.0
126,119.47887881874999,119.69657535,61.0,78.0
127,119.81595731875,120.40163121249999,61.0,82.0
128,120.49011431875,120.7387097125,63.0,82.0
129,120.82719281874999,121.40303525624999,66.0,78.0
130,121.50134981875,121.75134970625,63.0,77.0
131,121.83842831874999,122.06876529374999,66.0,79.0
132,122.17550681875,122.6656751375,68.0,81.0
133,122.84966381875,123.10528168124999,63.0,81.0
134,123.18674231874999,123.4634275875,61.0,77.0
135,123.52382081875,124.62494391874999,59.0,82.0
136,124.87213481875,125.095449325,68.0,82.0
137,125.20921331875,125.54629181874999,68.0,81.0
138,125.54629181874999,125.88337031875,68.0,81.0
139,125.88337031875,126.11370729375,66.0,81.0
140,126.22044881875,126.47606668125,68.0,85.0
141,126.55752731874999,126.81876315625,66.0,81.0
142,126.89460581875,127.16145963125,61.0,82.0
143,127.23168431875,127.477470725,63.0,79.0
144,127.56876281875,129.46763836875,59.0,81.0
145,129.59123381875,129.837020225,71.0,77.0
146,129.92831231875,130.15303131875,73.0,84.0
147,130.26539081875,130.4746603875,75.0,83.0
148,130.60246931875,131.22325555625,75.0,84.0
149,131.27662631875,131.58421045,73.0,86.0
150,131.61370481875,131.94516534375,71.0,81.0
151,131.95078331874998,132.30752473125,75.0,70.0
152,132.28786181875,132.657243675,73.0,83.0
153,132.62494031875,133.005558125,71.0,81.0
154,132.96201881875,134.76819778125,68.0,79.0
155,134.98448981875,135.2724110375,68.0,83.0
156,135.32156831875,135.57718618125,71.0,82.0
157,135.65864681875,135.904433225,73.0,82.0
158,135.99572531875,136.6207250375,73.0,86.0
159,136.66988231874998,136.93673613125,71.0,82.0
160,137.00696081875,137.3566797625,68.0,81.0
161,137.34403931875,137.65302794375,73.0,83.0
162,137.68111781875,138.01679182499998,71.0,82.0
163,138.01819631875,138.37774671875,68.0,81.0
164,138.35527481875,140.13055491875,66.0,80.0
165,140.37774581875,140.657240075,61.0,82.0
166,140.71482431875,141.050498325,63.0,82.0
167,141.05190281875,141.2948802375,66.0,76.0
168,141.38898131874998,142.00134059375,66.0,81.0
169,142.06313831875,142.45920555625,63.0,84.0
170,142.40021681875,142.65021670625,66.0,81.0
171,142.73729531875,143.0561154,66.0,80.0
172,143.41145231875,143.74853081875,68.0,79.0
173,143.74853081875,144.8454404375,71.0,82.0
174,144.75976631875,145.0870133625,70.0,76.0
175,145.09684481875,145.6769007375,68.0,85.0
176,145.77100181875,146.084203925,68.0,84.0
177,146.10808031874998,146.4634172375,75.0,83.0
178,146.44515881875,146.80190023125,73.0,87.0
179,146.78223731875,147.1375742375,75.0,83.0
180,147.11931581875,147.4746527375,73.0,87.0
181,147.45639431875,147.80892225,71.0,82.0
182,147.79347281875,148.45639386874998,68.0,78.0
183,148.46762981875,148.8173487625,66.0,77.0
184,148.80470831875,149.14740479374998,68.0,80.0
185,149.14178681875,151.16425781875,71.0,79.0
186,151.16425781875,151.410044225,71.0,77.0
187,151.50133631875,151.72605531874999,73.0,84.0
188,151.83841481875,152.0476843875,75.0,83.0
189,152.17549331875,152.79627955625,75.0,84.0
190,152.84965031875,153.15723445,73.0,86.0
191,153.18672881875,153.51818934375,71.0,81.0
192,153.52380731875,153.88054873125,75.0,70.0
193,153.86088581875,154.230267675,73.0,83.0
194,154.19796431875,154.578582125,71.0,81.0
195,154.53504281875,156.34122178125,68.0,79.0
196,156.55751381875,156.8454350375,68.0,83.0
197,156.89459231875,157.15021018125,71.0,82.0
198,157.23167081875,157.477457225,73.0,82.0
199,157.56874931875,158.1937490375,73.0,86.0
200,158.24290631875,158.50976013125,71.0,82.0
201,158.57998481875,158.9297037625,68.0,81.0
202,158.91706331875,159.22605194375,73.0,83.0
203,159.25414181874999,159.589815825,71.0,82.0
204,159.59122031875,159.95077071875,68.0,81.0
205,159.92829881875,161.70357891875,66.0,80.0
206,161.95076981875,162.230264075,61.0,82.0
207,162.28784831875,162.623522325,63.0,82.0
208,162.62492681875,162.8679042375,66.0,76.0
209,162.96200531875,163.57436459375,66.0,81.0
210,163.63616231875,164.03222955625,63.0,84.0
211,163.97324081874999,164.22324070625,66.0,81.0
212,164.31031931875,164.62913939999999,66.0,80.0
213,164.98447631874998,165.32155481875,68.0,79.0
214,165.32155481875,166.4184644375,71.0,82.0
215,166.33279031875,166.6600373625,70.0,76.0
216,166.66986881875,167.2499247375,68.0,85.0
217,167.34402581875,167.657227925,68.0,84.0
218,167.68110431875,168.0364412375,75.0,83.0
219,168.01818281875,168.37492423125,73.0,87.0
220,168.35526131875,168.7105982375,75.0,83.0
221,168.69233981874999,169.04767673749998,73.0,87.0
222,169.02941831875,169.38194625,71.0,82.0
223,169.36649681875,170.02941786875,68.0,78.0
224,170.04065381875,170.3903727625,66.0,77.0
225,170.37773231875,170.72042879375,68.0,80.0
226,170.71481081875,173.30610178749998,71.0,79.0
227,173.41143881874999,173.9634048625,75.0,86.0
228,174.08559581875,174.6375618625,75.0,85.0
229,174.75975281875,175.27941550625,75.0,83.0
230,175.43390981875,175.74570743125,75.0,85.0
231,175.77098831875,175.8903702875,73.0,86.0
232,175.93952756875,176.04907808125,71.0,76.0
233,176.10806681875,178.4971106875,73.0,88.0
234,178.80469481875,179.3117170625,73.0,88.0
235,179.47885181875,180.06031223125,73.0,84.0
236,180.15300881875,180.6656490375,73.0,90.0
237,180.82716581875,181.08278368125,73.0,88.0
238,181.16424431875,181.308907175,71.0,82.0
239,181.33278356875,181.4746374375,68.0,76.0
240,181.50132281875,183.94233295625,66.0,73.0
241,184.19795081875,184.6993550875,75.0,85.0
242,184.87210781875,185.4128379125,75.0,84.0
243,185.54626481875,186.0448601,75.0,82.0
244,186.22042181875,186.40441049999998,73.0,84.0
245,186.38896106875,186.5476688625,75.0,78.0
246,186.55750031875,186.70918564375,73.0,83.0
247,186.72603956875,186.87210691875,71.0,76.0
248,186.89457881875,189.29064515625,73.0,81.0
249,189.59120681875,190.11929646875,73.0,87.0
250,190.26536381875,190.82435233125,73.0,88.0
251,190.93952081875,191.47603743125,73.0,88.0
252,191.61367781875,191.7751946,71.0,82.0
253,191.78221706875,191.94513834375,73.0,81.0
254,191.95075631875,192.09963265625,71.0,82.0
255,192.11929556875,192.2611494375,68.0,81.0
256,192.28783481874999,194.91423813125,71.0,83.0
