,start,end,pitch,velocity
0,0.82724681875,1.0140444874999999,54.0,76.0
1,0.82724681875,1.35533646875,59.0,78.0
2,1.16432531875,1.54072964375,54.0,79.0
3,1.50140381875,1.7780890875,61.0,84.0
4,1.83848231875,2.0140440375,54.0,81.0
5,2.1755608187499997,2.3286506375,54.0,83.0
6,2.1755608187499997,2.67275160625,63.0,83.0
7,2.51263931875,2.7064594562499997,54.0,76.0
8,2.84971781875,3.1334255562499997,54.0,81.0
9,2.84971781875,3.20224575,63.0,82.0
10,0.82724681875,3.308987275,47.0,84.0
11,3.18679631875,3.4915714625,59.0,75.0
12,3.52387481875,4.01123415,56.0,75.0
13,3.86095331875,4.3370767,51.0,69.0
14,4.19803181875,4.61937994375,56.0,78.0
15,4.19803181875,4.6292114,63.0,82.0
16,4.53511031875,4.99016629375,51.0,74.0
17,4.87218881875,5.3061773875,63.0,82.0
18,4.87218881875,5.32724479375,59.0,82.0
19,5.54634581875,5.70364911875,59.0,77.0
20,5.20926731875,5.780896275,51.0,80.0
21,5.54634581875,5.8061771625,63.0,85.0
22,3.52387481875,5.83145805,44.0,81.0
23,5.8834243187499995,6.2443792125,59.0,82.0
24,6.22050281875,6.84690703125,61.0,76.0
25,6.89465981875,7.34128883125,56.0,82.0
26,7.23173831875,7.40870453125,61.0,77.0
27,6.55758131875,7.57443479375,44.0,72.0
28,7.56881681875,7.75140100625,56.0,81.0
29,7.56881681875,7.88342341875,64.0,79.0
30,7.90589531875,8.36376028125,44.0,67.0
31,8.24297381875,8.3848276875,56.0,77.0
32,6.22050281875,8.4129175625,37.0,83.0
33,8.24297381875,8.56600738125,61.0,81.0
34,8.580052318749999,8.6741534,56.0,69.0
35,8.91713081875,9.3679733125,54.0,80.0
36,8.91713081875,9.5702204125,61.0,76.0
37,9.59128781875,10.039321325,54.0,81.0
38,9.92836631875,10.095501075,61.0,82.0
39,9.25420931875,10.43960204375,49.0,78.0
40,10.26544481875,10.53229863125,54.0,81.0
41,10.26544481875,10.612354775,66.0,79.0
42,10.26544481875,10.61797275,61.0,84.0
43,10.60252331875,11.06881524375,49.0,81.0
44,8.91713081875,11.08005119375,42.0,81.0
45,10.939601818749999,11.11235455,54.0,81.0
46,10.939601818749999,11.15870284375,61.0,78.0
47,11.61375881875,12.039320425,58.0,78.0
48,11.61375881875,12.308983225,63.0,81.0
49,12.28791581875,12.7780841375,58.0,82.0
50,12.62499431875,12.80196053125,63.0,81.0
51,11.95083731875,13.0589828875,46.0,72.0
52,11.61375881875,13.08988175,39.0,83.0
53,12.96207281875,13.421342274999999,58.0,82.0
54,12.96207281875,13.48454449375,66.0,80.0
55,13.299151318749999,13.9016791375,46.0,75.0
56,13.63622981875,14.0140386375,63.0,86.0
57,13.97330831875,14.1095442125,58.0,81.0
58,14.31038681875,14.779487731249999,56.0,75.0
59,14.31038681875,15.02948761875,59.0,67.0
60,14.64746531875,15.106734775,51.0,81.0
61,14.98454381875,15.40027396875,56.0,81.0
62,15.32162231875,15.72611651875,51.0,73.0
63,14.31038681875,15.814599625,44.0,82.0
64,15.658700818749999,16.12780173125,56.0,81.0
65,15.658700818749999,16.1825769875,63.0,81.0
66,15.99577931875,16.29353199375,44.0,46.0
67,15.99577931875,16.33566680625,51.0,77.0
68,16.33285781875,16.68538575,61.0,84.0
69,16.66993631875,16.949430575,59.0,86.0
70,17.00701481875,17.108138368749998,37.0,82.0
71,17.68117181875,18.0028008875,52.0,82.0
72,17.344093318749998,18.00982335625,44.0,76.0
73,17.00701481875,18.028081775,61.0,81.0
74,18.01825031875,18.4016771125,56.0,81.0
75,18.35532881875,19.039317275,61.0,78.0
76,19.02948581875,19.4297665375,54.0,84.0
77,18.69240731875,19.5308900875,49.0,71.0
78,18.35532881875,19.54914850625,42.0,81.0
79,19.36656431875,19.62218218125,61.0,81.0
80,19.703642818749998,20.37218184375,59.0,81.0
81,20.37779981875,20.81319288125,61.0,77.0
82,20.04072131875,20.85532769375,51.0,79.0
83,19.703642818749998,20.86515915,47.0,84.0
84,20.71487831875,20.96487820625,54.0,77.0
85,21.05195681875,21.24577695625,54.0,81.0
86,21.05195681875,21.78650705,63.0,82.0
87,21.38903531875,21.79072053125,54.0,74.0
88,21.72611381875,22.275270875,59.0,73.0
89,21.05195681875,22.293529293749998,47.0,78.0
90,22.063192318749998,22.356731512499998,54.0,77.0
91,22.73734931875,23.196618775,54.0,76.0
92,23.07442781875,23.52386581875,59.0,83.0
93,23.41150631875,23.882011724999998,54.0,73.0
94,23.74858481875,24.21206775625,59.0,79.0
95,23.74858481875,24.2836969375,66.0,76.0
96,24.08566331875,24.56038220625,54.0,67.0
97,24.422741818749998,24.57302265,63.0,84.0
98,22.40027081875,24.647460818749998,47.0,85.0
99,24.75982031875,24.943808999999998,61.0,76.0
100,25.43397731875,25.82161759375,51.0,73.0
101,25.09689881875,25.841280506249998,63.0,78.0
102,25.77105581875,26.16712305625,56.0,71.0
103,26.10813431875,26.5533588375,51.0,68.0
104,26.44521281875,26.86656094375,59.0,77.0
105,26.44521281875,27.007010318749998,63.0,82.0
106,26.782291318749998,27.3511112875,51.0,70.0
107,25.09689881875,27.358133756249998,44.0,81.0
108,27.11936981875,27.4915606625,56.0,76.0
109,27.11936981875,27.50139211875,61.0,76.0
110,27.45644831875,27.671335862499998,59.0,78.0
111,27.79352681875,27.99015594375,54.0,76.0
112,27.79352681875,28.47049280625,63.0,81.0
113,28.13060531875,28.537908506249998,54.0,80.0
114,28.46768381875,28.75139155625,59.0,81.0
115,28.80476231875,28.983133025,54.0,70.0
116,27.79352681875,29.34127893125,47.0,70.0
117,29.141840818749998,29.558975462499998,63.0,82.0
118,29.141840818749998,29.6432450875,54.0,83.0
119,29.81599781875,30.01543593125,54.0,77.0
120,29.47891931875,30.22049201875,47.0,77.0
121,30.15307631875,30.455042475,54.0,74.0
122,29.81599781875,30.50419975625,59.0,78.0
123,30.49015481875,30.9522332625,58.0,77.0
124,30.49015481875,31.1600983375,66.0,77.0
125,30.82723331875,31.45925550625,46.0,68.0
126,31.16431181875,31.52948019375,63.0,90.0
127,30.49015481875,31.60672735,39.0,83.0
128,31.83846881875,31.99015414375,58.0,81.0
129,31.83846881875,32.29352479375,66.0,78.0
130,31.83846881875,32.29633378125,63.0,84.0
131,32.17554731875,32.3735809375,58.0,76.0
132,32.51262581875,32.65026620625,58.0,77.0
133,32.51262581875,32.657288675,39.0,82.0
134,32.51262581875,32.8988616,63.0,81.0
135,32.84970431875,33.00981660625,58.0,78.0
136,33.18678281875,33.8454903875,56.0,74.0
137,33.18678281875,33.89464766875,61.0,76.0
138,33.86093981875,34.2612205375,64.0,84.0
139,34.19801831875,34.365153075,56.0,81.0
140,33.52386131875,34.3791980125,44.0,69.0
141,33.18678281875,34.38060250625,37.0,83.0
142,34.53509681875,35.00700671875,58.0,80.0
143,34.53509681875,35.01262469375,63.0,82.0
144,35.20925381875,35.3454897125,58.0,79.0
145,35.20925381875,35.65307384375,66.0,77.0
146,34.87217531875,35.6881861875,46.0,73.0
147,34.53509681875,35.7443659375,39.0,83.0
148,35.20925381875,35.7836917625,63.0,83.0
149,35.54633231875,35.83565803125,58.0,81.0
150,35.88341081875,36.342680275,56.0,78.0
151,35.88341081875,36.432567875,59.0,80.0
152,36.55756781875,36.98172493125,56.0,86.0
153,36.22048931875,37.05475860625,51.0,81.0
154,35.88341081875,37.0589720875,44.0,82.0
155,36.89464631875,37.061781075,59.0,90.0
156,37.23172481875,37.60532015625,59.0,77.0
157,37.23172481875,37.6629044,63.0,79.0
158,37.23172481875,37.71206168125,56.0,72.0
159,37.90588181875,38.06318511875,56.0,81.0
160,37.56880331875,38.0758255625,51.0,80.0
161,37.23172481875,38.1263873375,44.0,80.0
162,37.90588181875,38.2724546875,59.0,83.0
163,38.24296031875,38.567398374999996,56.0,83.0
164,38.58003881875,39.2050385375,61.0,76.0
165,39.25419581875,39.747173124999996,56.0,85.0
166,38.91711731875,39.769645025,44.0,71.0
167,38.58003881875,39.79071243125,37.0,82.0
168,39.59127431875,39.837060725,61.0,81.0
169,39.92835281875,40.167116756249996,56.0,74.0
170,40.26543131875,40.73734121875,44.0,70.0
171,39.92835281875,40.76262210625,37.0,83.0
172,39.92835281875,40.97329616875,64.0,81.0
173,40.60250981875,40.99857705625,56.0,82.0
174,40.93958831875,41.1376219375,61.0,81.0
175,41.27666681875,41.698014943749996,61.0,80.0
176,41.27666681875,41.99014964375,54.0,77.0
177,41.61374531875,42.43958764375,49.0,78.0
178,41.27666681875,42.45082359375,42.0,82.0
179,41.950823818749996,42.46205954375,61.0,82.0
180,42.28790231875,42.474699987499996,54.0,24.0
181,42.62498081875,42.75278975,61.0,84.0
182,42.62498081875,42.758407725,54.0,84.0
183,42.62498081875,42.83284589375,66.0,81.0
184,42.96205931875,43.1039131875,68.0,82.0
185,43.29913781875,43.5308792875,71.0,81.0
186,42.62498081875,43.79632860625,42.0,81.0
187,43.63621631875,43.81318253125,73.0,90.0
188,44.310373318749996,44.769642775,54.0,76.0
189,44.64745181875,45.09688981875,59.0,83.0
190,44.98453031875,45.455035725,54.0,73.0
191,45.32160881875,45.78509175625,59.0,79.0
192,45.32160881875,45.8567209375,66.0,76.0
193,45.65868731875,46.13340620625,54.0,67.0
194,45.99576581875,46.14604665,63.0,84.0
195,43.97329481875,46.22048481875,47.0,85.0
196,46.33284431875,46.516833,61.0,76.0
197,47.00700131875,47.39464159375,51.0,73.0
198,46.669922818749995,47.41430450625,63.0,78.0
199,47.34407981875,47.74014705625,56.0,71.0
200,47.68115831875,48.126382837499996,51.0,68.0
201,48.01823681875,48.43958494375,59.0,77.0
202,48.01823681875,48.58003431875,63.0,82.0
203,48.35531531875,48.9241352875,51.0,70.0
204,46.669922818749995,48.93115775625,44.0,81.0
205,48.69239381875,49.064584662499996,56.0,76.0
206,48.69239381875,49.07441611875,61.0,76.0
207,49.029472318749995,49.2443598625,59.0,78.0
208,49.36655081875,49.56317994375,54.0,76.0
209,49.36655081875,50.04351680625,63.0,81.0
210,49.70362931875,50.11093250625,54.0,80.0
211,50.04070781875,50.324415556249996,59.0,81.0
212,50.37778631875,50.556157025,54.0,70.0
213,49.36655081875,50.91430293125,47.0,70.0
214,50.71486481875,51.1319994625,63.0,82.0
215,50.71486481875,51.2162690875,54.0,83.0
216,51.389021818749995,51.58845993125,54.0,77.0
217,51.05194331875,51.79351601875,47.0,77.0
218,51.72610031875,52.028066474999996,54.0,74.0
219,51.389021818749995,52.07722375625,59.0,78.0
220,52.063178818749996,52.5252572625,58.0,77.0
221,52.063178818749996,52.7331223375,66.0,77.0
222,52.40025731875,53.03227950625,46.0,68.0
223,52.73733581875,53.10250419375,63.0,90.0
224,52.063178818749996,53.17975135,39.0,83.0
225,53.07441431875,53.2555940125,58.0,88.0
226,53.41149281875,53.56317814375,58.0,81.0
227,53.41149281875,53.86654879375,66.0,78.0
228,53.41149281875,53.869357781249995,63.0,84.0
229,53.748571318749995,53.9466049375,58.0,76.0
230,54.08564981875,54.22329020625,58.0,77.0
231,54.08564981875,54.230312675,39.0,82.0
232,54.08564981875,54.4718856,63.0,81.0
233,54.422728318749996,54.58284060625,58.0,78.0
234,54.75980681875,55.4185143875,56.0,74.0
235,54.75980681875,55.46767166875,61.0,76.0
236,55.43396381875,55.8342445375,64.0,84.0
237,55.77104231875,55.938177075,56.0,81.0
238,55.09688531875,55.9522220125,44.0,69.0
239,54.75980681875,55.95362650625,37.0,83.0
240,56.108120818749995,56.580030718749995,58.0,80.0
241,56.108120818749995,56.58564869375,63.0,82.0
242,56.782277818749996,56.9185137125,58.0,79.0
243,56.782277818749996,57.22609784375,66.0,77.0
244,56.44519931875,57.2612101875,46.0,73.0
245,56.108120818749995,57.317389937499996,39.0,83.0
246,56.782277818749996,57.3567157625,63.0,83.0
247,57.11935631875,57.408682031249995,58.0,81.0
248,57.45643481875,57.915704274999996,56.0,78.0
249,57.45643481875,58.005591875,59.0,80.0
250,58.13059181875,58.554748931249996,56.0,86.0
251,57.79351331875,58.62778260625,51.0,81.0
252,57.45643481875,58.6319960875,44.0,82.0
253,58.467670318749995,58.634805074999996,59.0,90.0
254,58.80474881875,59.17834415625,59.0,77.0
255,58.80474881875,59.2359284,63.0,79.0
256,58.80474881875,59.285085681249996,56.0,72.0
257,59.47890581875,59.636209118749996,56.0,81.0
258,59.141827318749996,59.6488495625,51.0,80.0
259,58.80474881875,59.699411337499996,44.0,80.0
260,59.47890581875,59.8454786875,59.0,83.0
261,59.81598431875,60.140422375,56.0,83.0
262,60.15306281875,60.3510964375,56.0,74.0
263,60.15306281875,60.825815325,64.0,77.0
264,60.15306281875,60.873568112499996,49.0,81.0
265,60.49014131875,60.9690736875,56.0,82.0
266,60.827219818749995,61.17974775,61.0,87.0
267,61.16429831875,61.275253325,64.0,86.0
268,61.501376818749996,61.9578372875,54.0,74.0
269,61.501376818749996,62.11935406875,61.0,81.0
270,62.17553381875,62.57441004375,54.0,73.0
271,61.83845531875,62.634803274999996,49.0,77.0
272,61.501376818749996,62.70783695,42.0,75.0
273,62.51261231875,62.79912904375,61.0,81.0
274,62.84969081875,63.249971537499995,54.0,72.0
275,62.84969081875,63.567387124999996,59.0,77.0
276,63.52384781875,63.952218412499995,54.0,82.0
277,63.860926318749996,64.0898588,59.0,84.0
278,64.19800481875,64.589858575,61.0,83.0
279,64.19800481875,64.63058889375,54.0,82.0
280,64.53508331875,64.702218075,59.0,86.0
281,65.20924031875,65.58564464375,59.0,70.0
282,64.87216181875,65.6151390125,54.0,83.0
283,65.54631881875,65.6151390125,54.0,82.0
284,62.84969081875,65.6319929375,47.0,83.0
285,65.54631881875,65.6319929375,47.0,87.0
286,64.87216181875,65.63339743125,63.0,85.0
287,65.54631881875,65.63339743125,63.0,82.0
288,63.186769318749995,65.634801925,51.0,71.0
289,65.88339731875,66.0982848625,54.0,78.0
290,66.22047581875,66.40306000625,59.0,86.0
291,66.55755431875,66.73030705,54.0,84.0
292,66.89463281875,67.01541928125,54.0,77.0
293,66.89463281875,67.29631803125,63.0,82.0
294,66.89463281875,67.29912701875,59.0,81.0
295,66.89463281875,67.44519436875,47.0,86.0
296,67.23171131875,67.47328424375,54.0,80.0
297,67.56878981875,67.61092463125,54.0,70.0
298,67.56878981875,67.88620540625,46.0,84.0
299,67.56878981875,68.02384579375,58.0,82.0
300,67.90586831875,68.05614915,54.0,77.0
301,68.24294681875,68.556148925,59.0,81.0
302,68.24294681875,68.59968823125,56.0,76.0
303,68.58002531875,69.02103635625,51.0,77.0
304,68.91710381875,69.1600812375,63.0,85.0
305,68.91710381875,69.18395763125,59.0,81.0
306,68.24294681875,69.24715985,44.0,82.0
307,69.25418231875,69.82721576875,51.0,77.0
308,69.59126081875,69.99294603125,63.0,83.0
309,69.59126081875,70.0814291375,56.0,82.0
310,70.26541781875,70.4072716875,56.0,80.0
311,70.26541781875,70.44519301875,59.0,80.0
312,70.26541781875,70.59687834374999,63.0,83.0
313,69.92833931875,70.61092328125,44.0,70.0
314,70.60249631875,70.84406924375,59.0,81.0
315,70.93957481875,71.11654103125,56.0,76.0
316,70.93957481875,71.31317015625,61.0,77.0
317,71.27665331875,71.45923750625,56.0,82.0
318,70.93957481875,71.69238346875,49.0,81.0
319,71.61373181875,71.78227106874999,56.0,79.0
320,71.61373181875,72.19238324375,64.0,81.0
321,71.95081031875,72.2387315375,56.0,79.0
322,72.28788881875,72.65867516875,61.0,84.0
323,72.62496731875,72.8173829625,56.0,73.0
324,72.96204581875,73.06597835625,56.0,76.0
325,72.96204581875,73.07721430625,49.0,82.0
326,72.96204581875,73.33002318125,61.0,81.0
327,73.29912431875,73.421315275,56.0,81.0
328,73.63620281875,74.05193296875,61.0,76.0
329,73.63620281875,74.05474195625,54.0,79.0
330,74.31035981875,74.48451704375,54.0,80.0
331,73.97328131875,74.4971574875,49.0,80.0
332,74.31035981875,74.5392923,58.0,82.0
333,73.63620281875,74.65305629375,42.0,82.0
334,74.64743831875,74.80895509999999,54.0,80.0
335,74.98451681875,75.22468525,61.0,76.0
336,74.98451681875,75.4297413375,54.0,83.0
337,75.65867381875,75.780864775,54.0,81.0
338,75.32159531875,75.803336675,49.0,78.0
339,75.65867381875,76.00417928125,66.0,77.0
340,75.65867381875,76.028055675,58.0,86.0
341,75.65867381875,76.04350510625,61.0,82.0
342,75.99575231875,76.15867359375,54.0,84.0
343,76.33283081875,76.7415385,54.0,81.0
344,76.33283081875,76.7949092625,51.0,82.0
345,76.66990931875,77.4690662625,46.0,77.0
346,76.33283081875,77.49856063125,39.0,84.0
347,77.00698781875,77.51822354375,58.0,83.0
348,77.34406631875,77.52665050625,54.0,81.0
349,77.68114481875,77.98591996249999,54.0,77.0
350,77.68114481875,78.095470475,63.0,87.0
351,78.01822331875,78.41148156874999,46.0,78.0
352,77.68114481875,78.5308635375,39.0,82.0
353,78.35530181875,78.5477174625,54.0,81.0
354,78.35530181875,78.5645713875,58.0,83.0
355,78.69238031875,78.79631285625,46.0,82.0
356,79.02945881875,79.44518896875,59.0,76.0
357,79.02945881875,79.455020425,56.0,74.0
358,79.36653731875,79.85249215625,51.0,73.0
359,79.70361581875,79.95923368125,59.0,81.0
360,79.70361581875,79.96766064375,63.0,83.0
361,79.70361581875,80.0083909625,56.0,76.0
362,79.02945881875,80.11091900625,44.0,82.0
363,80.04069431875,80.25136838125,51.0,83.0
364,80.37777281875,80.5617615,56.0,81.0
365,80.37777281875,80.74575018125,68.0,81.0
366,80.71485131875,80.81878385625,66.0,88.0
367,80.37777281875,80.87777259375,44.0,82.0
368,81.05192981875,81.21766008125,51.0,77.0
369,81.05192981875,81.23170501874999,59.0,72.0
370,81.05192981875,81.252772425,63.0,85.0
371,81.05192981875,81.2808623,44.0,82.0
372,81.38900831875,81.62917675,59.0,82.0
373,81.72608681875,81.9297384125,56.0,79.0
374,81.72608681875,82.1376034875,64.0,81.0
375,81.72608681875,82.2892888125,49.0,87.0
376,82.06316531875,82.3454685625,56.0,82.0
377,82.40024381875,82.68676054375,61.0,87.0
378,82.73732231875,82.85810878125,56.0,82.0
379,83.07440081875,83.5308612875,54.0,77.0
380,83.07440081875,83.5477152125,61.0,68.0
381,83.41147931875,83.9185015625,49.0,79.0
382,83.07440081875,83.9241195375,42.0,82.0
383,83.74855781875,83.93956896875,54.0,82.0
384,83.74855781875,83.98451276875,58.0,82.0
385,84.08563631875,84.308950825,42.0,82.0
386,84.42271481875,84.58563609375,54.0,81.0
387,84.42271481875,84.83844496875,59.0,80.0
388,84.75979331875,84.93675953125,54.0,81.0
389,85.09687181875,85.16990549375,54.0,83.0
390,85.09687181875,85.4971525375,61.0,81.0
391,84.42271481875,85.62496146875,47.0,82.0
392,85.43395031875,85.6263659625,54.0,84.0
393,85.77102881875,85.938163575,54.0,84.0
394,85.77102881875,86.2892870125,63.0,85.0
395,86.10810731875,86.30192745625,54.0,82.0
396,86.78226431875,87.09125294374999,54.0,77.0
397,86.44518581875,87.1038933875,61.0,82.0
398,85.77102881875,87.117938325,47.0,87.0
399,87.11934281875,87.3061404875,54.0,76.0
400,87.11934281875,87.64743246875,59.0,78.0
401,87.45642131875,87.83282564375,54.0,79.0
402,87.79349981874999,88.0701850875,61.0,84.0
403,88.13057831875,88.3061400375,54.0,81.0
404,88.46765681875,88.62074663749999,54.0,83.0
405,88.46765681875,88.96484760625,63.0,83.0
406,88.80473531875,88.99855545625,54.0,76.0
407,89.14181381875,89.42552155625,54.0,81.0
408,89.14181381875,89.49434175,63.0,82.0
409,87.11934281875,89.601083275,47.0,84.0
410,89.47889231875,89.78366746249999,59.0,75.0
411,89.81597081875,90.30333015,56.0,75.0
412,90.15304931874999,90.6291727,51.0,69.0
413,90.49012781875,90.91147594374999,56.0,78.0
414,90.49012781875,90.9213074,63.0,82.0
415,90.82720631875,91.28226229375,51.0,74.0
416,91.16428481875,91.5982733875,63.0,82.0
417,91.16428481875,91.61934079375,59.0,82.0
418,91.83844181875,91.99574511875,59.0,77.0
419,91.50136331875,92.072992275,51.0,80.0
420,91.83844181875,92.09827316249999,63.0,85.0
421,89.81597081875,92.12355405,44.0,81.0
422,92.17552031875,92.5364752125,59.0,82.0
423,92.51259881874999,93.13900303125,61.0,76.0
424,93.18675581875,93.63338483125,56.0,82.0
425,93.52383431875,93.70080053125,61.0,77.0
426,92.84967731875,93.86653079375,44.0,72.0
427,93.86091281875,94.04349700624999,56.0,81.0
428,93.86091281875,94.17551941875,64.0,79.0
429,94.19799131875,94.65585628125,44.0,67.0
430,94.53506981875,94.6769236875,56.0,77.0
431,92.51259881874999,94.7050135625,37.0,83.0
432,94.53506981875,94.85810338125,61.0,81.0
433,94.87214831874999,94.9662494,56.0,69.0
434,95.20922681875,95.6600693125,54.0,80.0
435,95.20922681875,95.8623164125,61.0,76.0
436,95.88338381875,96.331417325,54.0,81.0
437,96.22046231875,96.387597075,61.0,82.0
438,95.54630531875,96.73169804375,49.0,78.0
439,96.55754081875,96.82439463125,54.0,81.0
440,96.55754081875,96.904450775,66.0,79.0
441,96.55754081875,96.91006875,61.0,84.0
442,96.89461931875,97.36091124375,49.0,81.0
443,95.20922681875,97.37214719375,42.0,81.0
444,97.23169781874999,97.40445054999999,54.0,81.0
445,97.23169781874999,97.45079884375,61.0,78.0
446,97.90585481875,98.331416425,58.0,78.0
447,97.90585481875,98.60107922499999,63.0,81.0
448,98.58001181875,99.0701801375,58.0,82.0
449,98.91709031875,99.09405653125,63.0,81.0
450,98.24293331875,99.3510788875,46.0,72.0
451,97.90585481875,99.38197775,39.0,83.0
452,99.25416881875,99.713438275,58.0,82.0
453,99.25416881875,99.77664049375,66.0,80.0
454,99.59124731874999,100.1937751375,46.0,75.0
455,99.92832581875,100.3061346375,63.0,86.0
456,100.26540431875,100.4016402125,58.0,81.0
457,100.60248281875,101.07158373125,56.0,75.0
458,100.60248281875,101.32158361875,59.0,67.0
459,100.93956131875,101.398830775,51.0,81.0
460,101.27663981875,101.69236996875,56.0,81.0
461,101.61371831875,102.01821251875,51.0,73.0
462,100.60248281875,102.106695625,44.0,82.0
463,101.95079681874999,102.41989773125,56.0,81.0
464,101.95079681874999,102.4746729875,63.0,81.0
465,102.28787531875,102.58562799375,44.0,46.0
466,102.28787531875,102.62776280625,51.0,77.0
467,102.62495381875,102.97748175,61.0,84.0
468,102.96203231875,103.241526575,59.0,86.0
469,103.29911081875,103.40023436874999,37.0,82.0
470,103.97326781875,104.2948968875,52.0,82.0
471,103.63618931875,104.30191935625,44.0,76.0
472,103.29911081875,104.320177775,61.0,81.0
473,104.31034631874999,104.6937731125,56.0,81.0
474,104.64742481875,105.331413275,61.0,78.0
475,105.32158181875,105.7218625375,54.0,84.0
476,104.98450331875,105.8229860875,49.0,71.0
477,104.64742481875,105.84124450624999,42.0,81.0
478,105.65866031875,105.91427818125,61.0,81.0
479,105.99573881875,106.66427784375,59.0,81.0
480,106.66989581874999,107.10528888125,61.0,77.0
481,106.33281731875,107.14742369375,51.0,79.0
482,105.99573881875,107.15725515,47.0,84.0
483,107.00697431875,107.25697420624999,54.0,77.0
484,107.34405281875,107.53787295625,54.0,81.0
485,107.34405281875,108.07860305,63.0,82.0
486,107.68113131875,108.08281653125,54.0,74.0
487,108.01820981875,108.567366875,59.0,73.0
488,107.34405281875,108.58562529375,47.0,78.0
489,108.35528831875,108.64882751249999,54.0,77.0
490,109.02944531874999,109.48871477499999,54.0,76.0
491,109.36652381875,109.81596181875,59.0,83.0
492,109.70360231875,110.174107725,54.0,73.0
493,110.04068081874999,110.50416375625,59.0,79.0
494,110.04068081874999,110.5757929375,66.0,76.0
495,110.37775931875,110.85247820625,54.0,67.0
496,110.71483781875,110.86511865,63.0,84.0
497,108.69236681875,110.93955681874999,47.0,85.0
498,111.05191631875,111.235905,61.0,76.0
499,111.72607331875,112.11371359374999,51.0,73.0
500,111.38899481874999,112.13337650625,63.0,78.0
501,112.06315181875,112.45921905624999,56.0,71.0
502,112.40023031874999,112.8454548375,51.0,68.0
503,112.73730881875,113.15865694375,59.0,77.0
504,112.73730881875,113.29910631874999,63.0,82.0
505,113.07438731875,113.6432072875,51.0,70.0
506,111.38899481874999,113.65022975625,44.0,81.0
507,113.41146581875,113.7836566625,56.0,76.0
508,113.41146581875,113.79348811874999,61.0,76.0
509,113.74854431874999,113.9634318625,59.0,78.0
510,114.08562281875,114.28225194375,54.0,76.0
511,114.08562281875,114.76258880625,63.0,81.0
512,114.42270131875,114.83000450624999,54.0,80.0
513,114.75977981874999,115.04348755625,59.0,81.0
514,115.09685831875,115.275229025,54.0,70.0
515,114.08562281875,115.63337493125,47.0,70.0
516,115.43393681875,115.8510714625,63.0,82.0
517,115.43393681875,115.93534108749999,54.0,83.0
518,116.10809381874999,116.30753193125,54.0,77.0
519,115.77101531875,116.51258801875,47.0,77.0
520,116.44517231875,116.747138475,54.0,74.0
521,116.10809381874999,116.79629575625,59.0,78.0
522,116.78225081875,117.2443292625,58.0,77.0
523,116.78225081875,117.4521943375,66.0,77.0
524,117.11932931874999,117.75135150625,46.0,68.0
525,117.45640781875,117.82157619374999,63.0,90.0
526,116.78225081875,117.89882335,39.0,83.0
527,117.79348631875,117.9746660125,58.0,88.0
528,118.13056481875,118.28225014374999,58.0,81.0
529,118.13056481875,118.58562079375,66.0,78.0
530,118.13056481875,118.58842978125,63.0,84.0
531,118.46764331874999,118.6656769375,58.0,76.0
532,118.80472181875,118.94236220625,58.0,77.0
533,118.80472181875,118.94938467499999,39.0,82.0
534,118.80472181875,119.1909576,63.0,81.0
535,119.14180031875,119.30191260625,58.0,78.0
536,119.47887881874999,120.1375863875,56.0,74.0
537,119.47887881874999,120.18674366875,61.0,76.0
538,120.15303581875,120.5533165375,64.0,84.0
539,120.49011431875,120.657249075,56.0,81.0
540,119.81595731875,120.6712940125,44.0,69.0
541,119.47887881874999,120.67269850625,37.0,83.0
542,120.82719281874999,121.29910271874999,58.0,80.0
543,120.82719281874999,121.30472069375,63.0,82.0
544,121.50134981875,121.6375857125,58.0,79.0
545,121.50134981875,121.94516984375,66.0,77.0
546,121.16427131875,121.9802821875,46.0,73.0
547,120.82719281874999,122.0364619375,39.0,83.0
548,121.50134981875,122.0757877625,63.0,83.0
549,121.83842831874999,122.12775403124999,58.0,81.0
550,122.17550681875,122.634776275,56.0,78.0
551,122.17550681875,122.72466387499999,59.0,80.0
552,122.84966381875,123.27382093125,56.0,86.0
553,122.51258531875,123.34685460624999,51.0,81.0
554,122.17550681875,123.3510680875,44.0,82.0
555,123.18674231874999,123.353877075,59.0,90.0
556,123.52382081875,123.89741615625,59.0,77.0
557,123.52382081875,123.9550004,63.0,79.0
558,123.52382081875,124.00415768124999,56.0,72.0
559,124.19797781874999,124.35528111875,56.0,81.0
560,123.86089931875,124.3679215625,51.0,80.0
561,123.52382081875,124.41848333749999,44.0,80.0
562,124.19797781874999,124.5645506875,59.0,83.0
563,124.53505631875,124.859494375,56.0,83.0
564,124.87213481875,125.0701684375,56.0,74.0
565,124.87213481875,125.54488732499999,64.0,77.0
566,124.87213481875,125.59264011249999,49.0,81.0
567,125.20921331875,125.6881456875,56.0,82.0
568,125.54629181874999,125.89881975,61.0,87.0
569,125.88337031875,125.99432532499999,64.0,86.0
570,126.22044881875,126.6769092875,54.0,74.0
571,126.22044881875,126.83842606875,61.0,81.0
572,126.89460581875,127.29348204375,54.0,73.0
573,126.55752731874999,127.353875275,49.0,77.0
574,126.22044881875,127.42690895,42.0,75.0
575,127.23168431875,127.51820104375,61.0,81.0
576,127.56876281875,127.9690435375,54.0,72.0
577,127.56876281875,128.286459125,59.0,77.0
578,128.24291981875,128.67129041249999,54.0,82.0
579,128.57999831875,128.80893079999998,59.0,84.0
580,128.91707681875,129.308930575,61.0,83.0
581,128.91707681875,129.34966089374998,54.0,82.0
582,129.25415531875,129.421290075,59.0,86.0
583,129.92831231875,130.30471664375,59.0,70.0
584,129.59123381875,130.3342110125,54.0,83.0
585,130.26539081875,130.3342110125,54.0,82.0
586,127.56876281875,130.35106493749998,47.0,83.0
587,130.26539081875,130.35106493749998,47.0,87.0
588,129.59123381875,130.35246943125,63.0,85.0
589,130.26539081875,130.35246943125,63.0,82.0
590,127.90584131874999,130.353873925,51.0,71.0
591,130.60246931875,130.8173568625,54.0,78.0
592,130.93954781875,131.12213200624998,59.0,86.0
593,131.27662631875,131.44937905,54.0,84.0
594,131.61370481875,131.73449128125,54.0,77.0
595,131.61370481875,132.01539003125,63.0,82.0
596,131.61370481875,132.01819901875,59.0,81.0
597,131.61370481875,132.16426636875,47.0,86.0
598,131.95078331874998,132.19235624375,54.0,80.0
599,132.28786181875,132.32999663125,54.0,70.0
600,132.28786181875,132.60527740625,46.0,84.0
601,132.28786181875,132.74291779375,58.0,82.0
602,132.62494031875,132.77522115,54.0,77.0
603,132.96201881875,133.27522092499999,59.0,81.0
604,132.96201881875,133.31876023125,56.0,76.0
605,133.29909731875,133.74010835625,51.0,77.0
606,133.63617581875,133.8791532375,63.0,85.0
607,133.63617581875,133.90302963125,59.0,81.0
608,132.96201881875,133.96623184999999,44.0,82.0
609,133.97325431875,134.54628776875,51.0,77.0
610,134.31033281875,134.71201803125,63.0,83.0
611,134.31033281875,134.8005011375,56.0,82.0
612,134.98448981875,135.1263436875,56.0,80.0
613,134.98448981875,135.16426501875,59.0,80.0
614,134.98448981875,135.31595034375,63.0,83.0
615,134.64741131875,135.32999528125,44.0,70.0
616,135.32156831875,135.56314124375,59.0,81.0
617,135.65864681875,135.83561303125,56.0,76.0
618,135.65864681875,136.03224215625,61.0,77.0
619,135.99572531875,136.17830950625,56.0,82.0
620,135.65864681875,136.41145546875,49.0,81.0
621,136.33280381875,136.50134306875,56.0,79.0
622,136.33280381875,136.91145524375,64.0,81.0
623,136.66988231874998,136.95780353749998,56.0,79.0
624,137.00696081875,137.37774716875,61.0,84.0
625,137.34403931875,137.5364549625,56.0,73.0
626,137.68111781875,137.78505035625,56.0,76.0
627,137.68111781875,137.79628630625,49.0,82.0
628,137.68111781875,138.04909518125,61.0,81.0
629,138.01819631875,138.140387275,56.0,81.0
630,138.35527481875,138.77100496875,61.0,76.0
631,138.35527481875,138.77381395625,54.0,79.0
632,139.02943181875,139.20358904375,54.0,80.0
633,138.69235331875,139.2162294875,49.0,80.0
634,139.02943181875,139.2583643,58.0,82.0
635,138.35527481875,139.37212829375,42.0,82.0
636,139.36651031875,139.5280271,54.0,80.0
637,139.70358881875,139.94375725,61.0,76.0
638,139.70358881875,140.1488133375,54.0,83.0
639,140.37774581875,140.499936775,54.0,81.0
640,140.04066731875,140.522408675,49.0,78.0
641,140.37774581875,140.72325128125,66.0,77.0
642,140.37774581875,140.747127675,58.0,86.0
643,140.37774581875,140.76257710625,61.0,82.0
644,140.71482431875,140.87774559375,54.0,84.0
645,141.05190281875,141.4606105,54.0,81.0
646,141.05190281875,141.5139812625,51.0,82.0
647,141.38898131874998,142.1881382625,46.0,77.0
648,141.05190281875,142.21763263124998,39.0,84.0
649,141.72605981875,142.23729554375,58.0,83.0
650,142.06313831875,142.24572250625,54.0,81.0
651,142.40021681875,142.7049919625,54.0,77.0
652,142.40021681875,142.814542475,63.0,87.0
653,142.73729531875,143.13055356875,46.0,78.0
654,142.40021681875,143.2499355375,39.0,82.0
655,143.07437381875,143.2667894625,54.0,81.0
656,143.07437381875,143.2836433875,58.0,83.0
657,143.41145231875,143.51538485625,46.0,82.0
658,143.74853081875,144.16426096875,59.0,76.0
659,143.74853081875,144.174092425,56.0,74.0
660,144.08560931875,144.57156415625,51.0,73.0
661,144.42268781875,144.67830568125,59.0,81.0
662,144.42268781875,144.68673264375,63.0,83.0
663,144.42268781875,144.7274629625,56.0,76.0
664,143.74853081875,144.82999100625,44.0,82.0
665,144.75976631875,144.97044038125,51.0,83.0
666,145.09684481875,145.2808335,56.0,81.0
667,145.09684481875,145.46482218124999,68.0,81.0
668,145.43392331875,145.53785585625,66.0,88.0
669,145.09684481875,145.59684459375,44.0,82.0
670,145.77100181875,145.93673208125,51.0,77.0
671,145.77100181875,145.95077701875,59.0,72.0
672,145.77100181875,145.971844425,63.0,85.0
673,145.77100181875,145.9999343,44.0,82.0
674,146.10808031874998,146.34824875,59.0,82.0
675,146.44515881875,146.64881041249998,56.0,79.0
676,146.44515881875,146.85667548749998,64.0,81.0
677,146.44515881875,147.0083608125,49.0,87.0
678,146.78223731875,147.06454056249999,56.0,82.0
679,147.11931581875,147.40583254375,61.0,87.0
680,147.45639431875,147.57718078125,56.0,82.0
681,147.79347281875,148.2499332875,54.0,77.0
682,147.79347281875,148.2667872125,61.0,68.0
683,148.13055131875,148.6375735625,49.0,79.0
684,147.79347281875,148.6431915375,42.0,82.0
685,148.46762981875,148.65864096875,54.0,82.0
686,148.46762981875,148.70358476875,58.0,82.0
687,148.80470831875,149.028022825,42.0,82.0
688,149.14178681875,149.30470809375,54.0,81.0
689,149.14178681875,149.55751696875,59.0,80.0
690,149.47886531875,149.65583153125,54.0,81.0
691,149.81594381875,149.88897749375,54.0,83.0
692,149.81594381875,150.21622453749998,61.0,81.0
693,149.14178681875,150.34403346874998,47.0,82.0
694,150.15302231875,150.3454379625,54.0,84.0
695,150.49010081875,150.657235575,54.0,84.0
696,150.49010081875,151.0083590125,63.0,85.0
697,150.82717931874998,151.02099945625,54.0,82.0
698,151.50133631875,151.81032494375,54.0,77.0
699,151.16425781875,151.8229653875,61.0,82.0
700,150.49010081875,151.837010325,47.0,87.0
701,151.83841481875,152.0252124875,54.0,76.0
702,151.83841481875,152.36650446875,59.0,78.0
703,152.17549331875,152.55189764375,54.0,79.0
704,152.51257181875,152.7892570875,61.0,84.0
705,152.84965031875,153.02521203749998,54.0,81.0
706,153.18672881875,153.3398186375,54.0,83.0
707,153.18672881875,153.68391960625,63.0,83.0
708,153.52380731875,153.71762745625,54.0,76.0
709,153.86088581875,154.14459355625,54.0,81.0
710,153.86088581875,154.21341375,63.0,82.0
711,151.83841481875,154.320155275,47.0,84.0
712,154.19796431875,154.5027394625,59.0,75.0
713,154.53504281875,155.02240215,56.0,75.0
714,154.87212131875,155.3482447,51.0,69.0
715,155.20919981875,155.63054794375,56.0,78.0
716,155.20919981875,155.6403794,63.0,82.0
717,155.54627831874998,156.00133429375,51.0,74.0
718,155.88335681875,156.31734538749998,63.0,82.0
719,155.88335681875,156.33841279375,59.0,82.0
720,156.55751381875,156.71481711875,59.0,77.0
721,156.22043531875,156.792064275,51.0,80.0
722,156.55751381875,156.8173451625,63.0,85.0
723,154.53504281875,156.84262605,44.0,81.0
724,156.89459231875,157.2555472125,59.0,82.0
725,157.23167081875,157.85807503125,61.0,76.0
726,157.90582781875,158.35245683125,56.0,82.0
727,158.24290631875,158.41987253125,61.0,77.0
728,157.56874931875,158.58560279374998,44.0,72.0
729,158.57998481875,158.76256900625,56.0,81.0
730,158.57998481875,158.89459141875,64.0,79.0
731,158.91706331875,159.37492828125,44.0,67.0
732,159.25414181874999,159.3959956875,56.0,77.0
733,157.23167081875,159.42408556249998,37.0,83.0
734,159.25414181874999,159.57717538125,61.0,81.0
735,159.59122031875,159.6853214,56.0,69.0
736,159.92829881875,160.3791413125,54.0,80.0
737,159.92829881875,160.5813884125,61.0,76.0
738,160.60245581875,161.050489325,54.0,81.0
739,160.93953431875,161.10666907499999,61.0,82.0
740,160.26537731874998,161.45077004375,49.0,78.0
741,161.27661281875,161.54346663125,54.0,81.0
742,161.27661281875,161.623522775,66.0,79.0
743,161.27661281875,161.62914075,61.0,84.0
744,161.61369131875,162.07998324375,49.0,81.0
745,159.92829881875,162.09121919375,42.0,81.0
746,161.95076981875,162.12352255,54.0,81.0
747,161.95076981875,162.16987084375,61.0,78.0
748,162.62492681875,163.050488425,58.0,78.0
749,162.62492681875,163.320151225,63.0,81.0
750,163.29908381875,163.7892521375,58.0,82.0
751,163.63616231875,163.81312853125,63.0,81.0
752,162.96200531875,164.0701508875,46.0,72.0
753,162.62492681875,164.10104975,39.0,83.0
754,163.97324081874999,164.432510275,58.0,82.0
755,163.97324081874999,164.49571249375,66.0,80.0
756,164.31031931875,164.9128471375,46.0,75.0
757,164.64739781875,165.0252066375,63.0,86.0
758,164.98447631874998,165.1207122125,58.0,81.0
759,165.32155481875,165.79065573124998,56.0,75.0
760,165.32155481875,166.04065561875,59.0,67.0
761,165.65863331875,166.117902775,51.0,81.0
762,165.99571181875,166.41144196874998,56.0,81.0
763,166.33279031875,166.73728451875,51.0,73.0
764,165.32155481875,166.825767625,44.0,82.0
765,166.66986881875,167.13896973125,56.0,81.0
766,166.66986881875,167.1937449875,63.0,81.0
767,167.00694731875,167.30469999375,44.0,46.0
768,167.00694731875,167.34683480625,51.0,77.0
769,167.34402581875,167.69655375,61.0,84.0
770,167.68110431875,167.960598575,59.0,86.0
771,168.01818281875,168.11930636875,37.0,82.0
772,168.69233981874999,169.0139688875,52.0,82.0
773,168.35526131875,169.02099135625,44.0,76.0
774,168.01818281875,169.039249775,61.0,81.0
775,169.02941831875,169.4128451125,56.0,81.0
776,169.36649681875,170.050485275,61.0,78.0
777,170.04065381875,170.4409345375,54.0,84.0
778,169.70357531874998,170.5420580875,49.0,71.0
779,169.36649681875,170.56031650625,42.0,81.0
780,170.37773231875,170.63335018125,61.0,81.0
781,170.71481081875,171.38334984374998,59.0,81.0
782,171.38896781875,171.82436088125,61.0,77.0
783,171.05188931875,171.86649569374998,51.0,79.0
784,170.71481081875,171.87632715,47.0,84.0
785,171.72604631875,171.97604620625,54.0,77.0
786,172.06312481875,172.25694495625,54.0,81.0
787,172.06312481875,172.79767505,63.0,82.0
788,172.40020331875,172.80188853125,54.0,74.0
789,172.73728181875,173.286438875,59.0,73.0
790,172.06312481875,173.30469729375,47.0,78.0
791,173.07436031875,173.3678995125,54.0,77.0
792,173.41143881874999,173.6712701625,58.0,81.0
793,173.41143881874999,173.8678992875,66.0,77.0
794,173.74851731875,174.08840480625,58.0,77.0
795,174.08559581875,174.29065190625,63.0,83.0
796,173.74851731875,174.601045025,46.0,76.0
797,173.41143881874999,174.61087648125,39.0,83.0
798,174.42267431874998,174.61087648125,58.0,81.0
799,174.75975281875,174.90582016874998,58.0,82.0
800,174.75975281875,175.16705600625,63.0,85.0
801,174.75975281875,175.18110094375,66.0,80.0
802,175.09683131875,175.28643797499998,58.0,77.0
803,175.43390981875,175.5701457125,58.0,82.0
804,175.43390981875,175.85525794375,63.0,82.0
805,174.75975281875,175.8903702875,39.0,83.0
806,175.77098831875,175.983066875,58.0,83.0
807,176.10806681875,176.34963974375,56.0,85.0
808,176.10806681875,176.5027295625,61.0,81.0
809,176.44514531875,176.68110026875,56.0,80.0
810,176.78222381875,176.9240776875,56.0,85.0
811,176.78222381875,177.016774275,64.0,79.0
812,176.10806681875,177.30750448125,37.0,83.0
813,177.11930231875,177.556099875,56.0,75.0
814,177.45638081875,177.9128412875,68.0,83.0
815,177.79345931875,178.00694236875,56.0,80.0
816,178.13053781874999,178.2892456125,56.0,73.0
817,178.13053781874999,178.51817809375,61.0,75.0
818,178.13053781874999,178.53222303125,44.0,76.0
819,177.45638081875,178.5392455,37.0,85.0
820,178.46761631875,178.881941975,56.0,81.0
821,178.80469481875,179.1712676875,64.0,82.0
822,179.14177331874998,179.5420540375,56.0,81.0
823,178.80469481875,179.79767189999998,37.0,84.0
824,179.47885181875,179.881941525,61.0,81.0
825,179.81593031875,180.23727844375,56.0,87.0
826,180.15300881875,180.4943008,68.0,81.0
827,180.15300881875,180.544862575,61.0,78.0
828,180.49008731875,180.66284005,56.0,79.0
829,180.15300881875,180.84963771875,37.0,83.0
830,180.82716581875,180.9577837375,56.0,82.0
831,180.82716581875,181.185311725,61.0,82.0
832,181.16424431875,181.2836262875,56.0,80.0
833,181.50132281875,181.8510417625,59.0,76.0
834,181.50132281875,181.9128394875,54.0,77.0
835,181.83840131875,182.33137862499999,49.0,75.0
836,182.17547981875,182.51536730625,59.0,85.0
837,182.17547981875,182.5420526875,54.0,82.0
838,181.50132281875,182.578569525,42.0,80.0
839,182.51255831875,182.7414908,49.0,84.0
840,182.84963681874999,183.22463665,58.0,80.0
841,182.84963681874999,183.2780074125,54.0,81.0
842,183.18671531875,183.62070388749999,49.0,81.0
843,182.84963681874999,183.6544117375,42.0,82.0
844,183.52379381875,183.80188358125,54.0,81.0
845,183.52379381875,184.0083441625,61.0,81.0
846,183.86087231874998,184.12491714375,42.0,83.0
847,184.19795081875,184.67688318749998,63.0,81.0
848,184.19795081875,184.69514160625,70.0,81.0
849,184.53502931875,185.00132124375,46.0,81.0
850,184.87210781875,185.129130175,63.0,87.0
851,184.87210781875,185.1909279,66.0,84.0
852,184.19795081875,185.24710765,39.0,83.0
853,185.20918631875,185.44514126875,46.0,80.0
854,185.54626481875,185.83839951875,63.0,82.0
855,185.54626481875,186.050478075,70.0,81.0
856,185.88334331875,186.30328695,46.0,70.0
857,186.22042181875,186.5869946875,63.0,82.0
858,185.54626481875,186.6544103875,39.0,83.0
859,186.55750031875,186.73446653125,46.0,81.0
860,186.22042181875,186.78221931875,66.0,82.0
861,186.89457881875,187.016769775,37.0,83.0
862,187.23165731875,187.41845498749998,44.0,72.0
863,186.89457881875,187.53221898125,61.0,81.0
864,186.89457881875,187.54345493124998,64.0,78.0
865,187.56873581874999,187.814522225,61.0,82.0
866,187.56873581874999,187.9100278,52.0,73.0
867,187.56873581874999,187.94794913125,64.0,84.0
868,187.90581431875,188.42969048749998,49.0,81.0
869,188.24289281875,188.46058935,61.0,79.0
870,188.24289281875,188.5027241625,64.0,83.0
871,188.24289281875,188.5167691,68.0,82.0
872,188.91704981875,189.06873514375,61.0,82.0
873,188.57997131874998,189.1544092625,52.0,59.0
874,188.91704981875,189.42266756875,64.0,84.0
875,189.25412831875,189.48727428125,61.0,76.0
876,189.59120681875,190.06311671875,61.0,81.0
877,189.59120681875,190.09120659375,66.0,80.0
878,189.92828531875,190.4044087,49.0,72.0
879,189.59120681875,190.657217575,42.0,82.0
880,190.26536381875,190.668453525,61.0,82.0
881,190.26536381875,190.6937344125,66.0,82.0
882,190.60244231875,190.85525119375,49.0,77.0
883,190.93952081875,191.38895881874998,61.0,79.0
884,190.93952081875,191.43952059375,66.0,77.0
885,191.27659931875,191.75974516875,49.0,70.0
886,191.61367781875,191.80749795625,61.0,81.0
887,191.61367781875,191.85946422499998,66.0,85.0
888,190.93952081875,191.86227321249999,42.0,82.0
889,191.95075631875,192.1207000625,61.0,78.0
890,191.95075631875,192.18952025625,64.0,82.0
891,192.28783481874999,192.37210444375,35.0,78.0
892,192.28783481874999,192.82716041875,59.0,81.0
893,192.28783481874999,192.85805928125,63.0,82.0
894,192.96199181875,193.44935114999998,59.0,81.0
895,192.96199181875,193.44935114999998,63.0,82.0
896,192.62491331875,193.79345211875,47.0,81.0
897,193.29907031874998,193.836991425,54.0,70.0
898,193.63614881875,194.16845195,59.0,81.0
899,193.63614881875,194.1712609375,63.0,82.0
900,194.31030581875,194.4577776625,59.0,83.0
901,193.97322731875,194.544856275,47.0,81.0
902,194.31030581875,194.94794598125,63.0,86.0
903,194.64738431875,195.06030548125,59.0,81.0
904,194.83558648125,195.387552525,54.0,73.0
905,194.96760889375,196.01536123124998,66.0,81.0
906,195.63474342499998,196.07154098125,54.0,82.0
907,195.28923796249998,196.0926083875,49.0,78.0
908,195.97322641875,196.1347432,61.0,81.0
909,194.93951901875,196.140361175,42.0,81.0
910,196.3341813125,196.84401254374998,52.0,74.0
911,196.48165315625,196.88052938125,56.0,78.0
912,196.54345088125,197.1431697125,59.0,73.0
913,197.04345065625,197.2780011125,52.0,80.0
914,196.3594622,197.303282,40.0,79.0
915,196.76395639999998,197.308899975,47.0,74.0
916,197.3510347875,198.8987869,58.0,75.0
917,197.3454168125,198.91423633125,54.0,75.0
918,197.34401231875,199.0757531125,42.0,82.0
919,197.36367523125,199.151595775,61.0,71.0
920,199.21760698125,199.9521572125,54.0,81.0
921,199.05468570624998,201.00693201875,47.0,86.0
922,200.25833685,201.2386734875,54.0,26.0
923,199.29204515,201.27378583125,59.0,73.0
924,199.38333724375,201.30047121249999,63.0,82.0
