,start,end,pitch,velocity
0,14.62797399375,14.83248706875,64.0,85.0
1,14.82543489375,15.07755015,62.0,85.0
2,15.045815362499999,15.409002375,64.0,85.0
3,15.45307846875,15.675221981249999,67.0,85.0
4,15.70343068125,16.44743514375,64.0,85.0
5,16.7806504125,17.11386568125,64.0,85.0
6,17.08036785,17.355402675,67.0,85.0
7,17.37127006875,17.67098750625,72.0,85.0
8,17.66040924375,18.52782676875,71.0,85.0
9,18.4308593625,18.52782676875,71.0,85.0
10,18.86633116875,19.06026598125,72.0,85.0
11,19.09552685625,20.3384727,69.0,85.0
12,20.585298825,20.7580771125,69.0,85.0
13,20.7721814625,20.937907575,67.0,85.0
14,21.00137715,21.22880979375,69.0,85.0
15,21.45447939375,21.6395989875,69.0,85.0
16,21.64841420625,21.8335338,67.0,85.0
17,21.877609893749998,22.09975340625,69.0,85.0
18,22.179090375,22.92838396875,60.0,85.0
19,23.84516671875,23.98973630625,60.0,85.0
20,24.0620211,24.2418515625,65.0,85.0
21,24.3123733125,25.648760475,64.0,85.0
22,25.6240778625,25.88148225,65.0,85.0
23,25.86208876875,26.9498867625,67.0,85.0
24,28.13817825,28.3321130625,64.0,85.0
25,28.3462174125,28.5154696125,62.0,85.0
26,28.57717614375,28.9703349,64.0,85.0
27,28.9985436,29.162506668749998,62.0,85.0
28,29.21187189375,29.682604575,64.0,85.0
29,29.66321109375,29.84656764375,67.0,85.0
30,29.88711765,30.4054525125,64.0,85.0
31,30.676961249999998,30.90263085,64.0,85.0
32,30.8779482375,31.0189917375,72.0,85.0
33,31.1247743625,32.37124629375,71.0,85.0
34,32.390639775,32.59515285,72.0,85.0
35,32.618072418749996,33.66532040625,69.0,85.0
36,34.1007922125,34.2700444125,69.0,85.0
37,34.28767485,34.476320531249996,67.0,85.0
38,34.548605325,34.7495923125,69.0,85.0
39,34.9505793,35.1374619375,69.0,85.0
40,35.2044576,36.01369468125,60.0,83.0
41,36.974553525,37.07152093125,60.0,83.0
42,37.2108013875,37.29013835625,60.0,83.0
43,37.41355141875,37.55459491875,60.0,83.0
44,37.637457975,37.80494713125,65.0,83.0
45,37.89309931875,38.540136375,64.0,83.0
46,38.75346466875,39.05494515,64.0,83.0
47,39.0373147125,39.4392886875,65.0,83.0
48,39.43752564375,40.51650841875,62.0,83.0
49,41.01721284375,41.1670715625,71.0,83.0
50,41.26756505625,41.6184107625,72.0,83.0
51,41.67659120625,41.84936949375,71.0,83.0
52,41.9146021125,42.53695655625,72.0,83.0
53,42.55458699375,42.7925979,71.0,83.0
54,42.780256593749996,43.34090450625,72.0,83.0
55,43.363824075,43.5542328,71.0,83.0
56,43.6000719375,44.2136111625,72.0,83.0
57,44.20479594375,44.79717864375,79.0,83.0
58,44.7107895,45.1374460875,74.0,83.0
59,45.944920125,46.33455279375,64.0,83.0
60,46.3363158375,47.33948773125,71.0,83.0
61,47.64273125625,47.79435301875,69.0,80.0
62,47.83313998125,48.0006291375,67.0,80.0
63,48.04470523125,48.201616125,69.0,80.0
64,48.23864004375,48.41141833125,67.0,80.0
65,48.455494425,48.610642275,69.0,80.0
66,48.642377062499996,48.78518360625,67.0,80.0
67,48.8574684,49.046114081249996,69.0,80.0
68,49.26649455,50.19209251875,69.0,80.0
69,50.53764909375,50.90788828125,69.0,80.0
70,50.8990730625,51.07361439375,67.0,80.0
71,51.2305252875,51.35393835,67.0,80.0
72,51.52319055,52.644486375,67.0,80.0
73,52.674458118749996,53.09758861875,62.0,80.0
74,53.07290600625,54.10252355625,64.0,78.0
75,54.3475866375,54.4392649125,71.0,78.0
76,54.532706231249996,54.6437779875,71.0,78.0
77,54.756612787499996,54.943495425,72.0,78.0
78,54.94525846875,55.11098458125,71.0,78.0
79,55.16740198125,56.01366298125,72.0,78.0
80,56.03658255,56.450897831249996,71.0,78.0
81,56.43150435,57.24955665,72.0,78.0
82,57.2601349125,57.73791976875,71.0,78.0
83,57.69913280625,57.92656545,76.0,78.0
84,58.1416567875,59.39518089375,76.0,78.0
85,59.4463091625,59.61027223125,71.0,78.0
86,59.87120270625,60.810905025,71.0,78.0
87,61.0894659375,61.26753335625,69.0,78.0
88,61.293979012499996,61.4914399125,67.0,78.0
89,61.53198991875,61.671270375,69.0,78.0
90,61.7206356,61.882835625,67.0,78.0
91,61.9357269375,62.052087825,69.0,78.0
92,62.357094393749996,62.56160746875,69.0,78.0
93,62.75554228125,62.852509687499996,67.0,78.0
94,63.1698575625,63.29150758125,67.0,78.0
95,64.00730334375,64.38812079375,69.0,78.0
96,64.3757794875,64.50800776875,67.0,78.0
97,64.65962953125,64.78304259375,67.0,78.0
98,64.94524261875,66.13000801875,67.0,78.0
99,66.17584715625,66.5972146125,60.0,78.0
100,66.579584175,67.58275606875,62.0,80.0
101,68.2756322625,68.63000405625,76.0,80.0
102,68.66173884375,68.84333235,74.0,80.0
103,68.86625191875,69.738958575,76.0,80.0
104,69.7495368375,70.0034151375,74.0,80.0
105,69.98049556875,70.40009998125,76.0,80.0
106,70.41773041875,70.627532625,74.0,80.0
107,70.61166523125,71.44734796875,76.0,83.0
108,71.46674145,71.87047846875,74.0,83.0
109,71.9075023875,72.30947636249999,67.0,83.0
110,72.28655679375,73.64410048124999,69.0,83.0
111,74.59614410625,74.68429629375,69.0,83.0
112,74.64550933125,74.68429629375,69.0,83.0
113,74.788315875,74.88528328125,69.0,83.0
114,74.8553115375,74.9117289375,72.0,83.0
115,75.013985475,75.10390070625,72.0,83.0
116,75.225550725,75.2784420375,72.0,83.0
117,75.44416815,75.49882250625,72.0,83.0
118,75.6592594875,76.2939552375,72.0,83.0
119,76.33450524375,76.46497048125,71.0,83.0
120,76.551359625,77.27244451874999,72.0,83.0
121,77.60037065624999,77.8172250375,71.0,83.0
122,77.81369895,77.88774678749999,72.0,83.0
123,78.02350115625,78.0922598625,72.0,83.0
124,78.23154031874999,78.3073512,72.0,83.0
125,78.47836644375,78.6458556,62.0,83.0
126,78.6740643,79.07780131875,64.0,83.0
127,79.1641904625,80.7579820125,64.0,83.0
128,81.5337212625,81.74352346875,74.0,83.0
129,81.76820608125,82.1895735375,76.0,83.0
130,82.2001518,82.40290183125,74.0,83.0
131,82.404664875,82.94944539375,76.0,83.0
132,82.9653127875,83.11164541875,74.0,83.0
133,83.14514325,83.31439545,76.0,83.0
134,83.5153824375,84.1712347125,76.0,83.0
135,84.2911216875,84.5520521625,74.0,83.0
136,84.50797606875,84.7001478375,76.0,83.0
137,84.72483045,85.56932840625,79.0,83.0
138,85.60458928125,87.143726475,69.0,83.0
139,88.59118539375,88.67228540625,77.0,83.0
140,88.836248475,88.9102963125,77.0,83.0
141,89.06720720625,89.146544175,77.0,83.0
142,89.28935071875,89.5097311875,77.0,83.0
143,89.6930877375,90.08624649375,77.0,83.0
144,90.08448345,90.2502095625,76.0,83.0
145,90.317205225,90.89900966249999,77.0,83.0
146,91.16522926875,91.30979885625,77.0,83.0
147,91.5090228,91.62714673125,77.0,83.0
148,91.78582066875,92.01501635625,77.0,83.0
149,92.06614462499999,92.43462076875,72.0,83.0
150,92.418753375,95.197310325,74.0,83.0
151,99.08305874999999,99.2769935625,64.0,83.0
152,99.29286095625,99.4603501125,62.0,83.0
153,99.52205664375,99.9152154,64.0,83.0
154,99.94518714375,100.10738716875,67.0,83.0
155,100.1585154375,100.627485075,64.0,83.0
156,101.19871125,101.4067504125,64.0,83.0
157,101.516059125,101.73996568125,67.0,83.0
158,101.82459178124999,101.9638722375,72.0,83.0
159,102.04497225,103.29144418125,71.0,83.0
160,103.335520275,103.54003335,72.0,83.0
161,103.56295291875,104.61020090625,69.0,83.0
162,105.04743575625,105.2149249125,69.0,83.0
163,105.23431839375,105.422964075,67.0,83.0
164,105.493485825,105.6944728125,69.0,83.0
165,105.8954598,106.0823424375,60.0,83.0
166,106.1493381,106.5689425125,69.0,80.0
167,106.69940775,106.78932298125,69.0,80.0
168,106.910973,107.7537079125,69.0,80.0
169,107.96879925,108.215625375,69.0,80.0
170,108.39192975,108.53297325,67.0,80.0
171,108.81506025,109.6577951625,67.0,80.0
172,110.08445175,110.486425725,62.0,80.0
173,110.50758225,111.586565025,64.0,80.0
174,112.62323475,112.79248695,64.0,80.0
175,112.8348,112.98113263125,62.0,80.0
176,113.04636525,113.26674571875,64.0,80.0
177,113.46949575,113.645800125,62.0,80.0
178,113.681061,114.14474150625,64.0,80.0
179,114.1041915,114.2769697875,67.0,80.0
180,114.31575675,114.70010028749999,64.0,80.0
181,115.16201775,115.3982656125,64.0,80.0
182,115.373583,115.50052215,72.0,80.0
183,115.58514825,116.45785490625,71.0,80.0
184,116.85453975,117.08020935,72.0,80.0
185,117.066105,117.792479025,69.0,80.0
186,118.54706175,118.7480487375,69.0,80.0
187,118.758627,118.94198355,67.0,80.0
188,118.97019225,119.14120749375,69.0,80.0
189,119.39332275,119.47971189375,69.0,80.0
190,119.604888,120.19198156875,69.0,80.0
191,120.23958375,120.5322490125,60.0,80.0
192,120.66271425,120.81962514375,69.0,80.0
193,121.08584474999999,121.72230354375,69.0,80.0
194,121.93210575,122.1471970875,69.0,80.0
195,122.143671,122.25121666875,67.0,80.0
196,122.35523625,123.5505799125,67.0,80.0
197,123.62462775,124.0442321625,64.0,83.0
198,124.04775825,125.11439971875,62.0,83.0
199,125.31714975,125.493454125,72.0,83.0
200,125.528715,125.690915025,71.0,83.0
201,125.74028025,125.888375925,72.0,83.0
202,125.9518455,126.11933465625,71.0,83.0
203,126.16341075,127.0414065375,72.0,83.0
204,127.00967175,127.2177109125,71.0,83.0
205,127.43280225,127.6619979375,72.0,83.0
206,127.85593275,128.0146066875,72.0,83.0
207,128.067498,128.695141575,72.0,83.0
208,128.70219375,129.11298294375,76.0,83.0
209,129.12532425,130.274828775,71.0,85.0
210,130.39471575,130.8143201625,64.0,85.0
211,130.81784625,131.68350073125,71.0,85.0
212,132.08723774999999,132.2600160375,69.0,85.0
213,132.298803,132.4433725875,67.0,85.0
214,132.51036825,132.64964870625,69.0,85.0
215,132.93349875,133.0075465875,69.0,85.0
216,133.145064,133.68631843125,69.0,85.0
217,133.77975975,133.86438585,69.0,85.0
218,133.991325,134.6119164,69.0,85.0
219,135.04915125,135.3982339125,69.0,87.0
220,135.366499125,135.53751436875,67.0,87.0
221,135.683847,135.81078615,67.0,87.0
222,135.89541225,137.0907559125,67.0,87.0
223,137.16480375,137.4081037875,62.0,87.0
224,137.376369,138.9525301125,64.0,87.0
225,138.85732575,139.02481490625,72.0,90.0
226,139.068891,139.20817145625,71.0,90.0
227,139.28045625,139.48673236875,72.0,90.0
228,139.70358675,139.8693128625,72.0,90.0
229,139.915152,140.0456172375,71.0,90.0
230,140.12671725,140.27657596875,72.0,90.0
231,140.54984775,141.48249789375,72.0,90.0
232,142.24236975,142.40280673125,72.0,90.0
233,142.453935,142.52974588125,76.0,90.0
234,142.66550025,143.9207874,76.0,90.0
235,143.93489175,144.05654176875,71.0,90.0
236,144.146457,145.02268974375,71.0,90.0
237,145.62741375,145.78079855625,69.0,90.0
238,145.838979,145.944761625,67.0,90.0
239,146.05054425,146.35907690625,69.0,90.0
240,146.367892125,146.5159878,67.0,90.0
241,146.579457375,147.524448825,69.0,90.0
242,148.58932725,148.65808595625,69.0,90.0
243,148.8008925,148.878466425,69.0,90.0
244,149.01245775,149.12000341875,69.0,90.0
245,149.224023,149.3368578,72.0,90.0
246,149.43558825,149.82874700625,71.0,90.0
247,149.85871875,150.4898884125,67.0,90.0
248,150.599197125,150.97825153125,76.0,90.0
249,151.12811025,151.9778973375,74.0,90.0
250,152.609067,152.6972191875,74.0,90.0
251,152.82063225,153.11506055625,76.0,90.0
252,153.137980125,153.2684453625,74.0,90.0
253,153.349545375,154.00187156249999,76.0,90.0
254,154.195806375,154.4038455375,74.0,90.0
255,154.407371625,154.8269760375,76.0,90.0
256,154.830502125,155.0314891125,74.0,90.0
257,155.042067375,155.994111,76.0,90.0
258,156.20567625,156.4137154125,72.0,90.0
259,156.4172415,156.82450460625,67.0,90.0
260,156.840372,157.84706998125,69.0,90.0
261,159.16758975,159.24692671875,69.0,90.0
262,159.379155,159.4637811,69.0,90.0
263,159.59072025,159.67358330625,77.0,90.0
264,159.8022855,159.86046594375,77.0,90.0
265,160.01385075,160.0878985875,77.0,90.0
266,160.225416,160.8495334875,77.0,90.0
267,160.86011175,160.9905769875,76.0,90.0
268,161.071677,161.61998360625,77.0,90.0
269,161.917938,162.1153989,76.0,90.0
270,162.12950325,162.2670206625,77.0,90.0
271,162.55263375,162.764199,77.0,90.0
272,162.764199,163.1838034125,72.0,90.0
273,163.39889475,163.48880998125,74.0,90.0
274,163.61046,164.90982324375,74.0,90.0
275,166.149243,166.3361256375,74.0,90.0
276,166.36080825,166.7310474375,76.0,90.0
277,166.78393875,166.93732355625,74.0,90.0
278,166.995504,167.6266736625,76.0,90.0
279,167.63019975,167.85763239375,74.0,92.0
280,167.841765,168.123852,76.0,92.0
281,168.2648955,168.8960651625,76.0,92.0
282,168.89959125,169.15170650625,74.0,92.0
283,169.1111565,169.25748913125,76.0,92.0
284,169.32272175,170.18132405625,79.0,92.0
285,170.16898275,170.7754698,69.0,92.0
286,172.70776575,172.93872448125,69.0,92.0
287,173.13089625,173.2296267,77.0,92.0
288,173.448244125,173.53463326874999,77.0,92.0
289,173.765592,174.04591595624998,77.0,92.0
290,173.97715725,174.04591595624998,77.0,92.0
291,174.40028775,174.55014646875,76.0,92.0
292,174.611853,175.17426395625,77.0,92.0
293,175.66967925,175.83716840625,77.0,92.0
294,175.987027125,176.1104401875,77.0,92.0
295,176.304375,176.52122938125,77.0,92.0
296,176.51594025,176.7028228875,74.0,92.0
297,176.93907074999998,178.4376579375,74.0,92.0
298,199.999683,200.2077221625,74.0,92.0
299,200.21124825,200.58677656875,76.0,92.0
300,200.63437875,200.8847309625,74.0,92.0
301,200.845944,201.43656365625,76.0,92.0
302,201.48063975,201.7874093625,74.0,92.0
303,201.692205,202.2316963875,76.0,90.0
304,202.221118125,202.48028555625,74.0,90.0
305,202.432683375,203.08324651875,76.0,90.0
306,203.278944375,203.66152486875,72.0,90.0
307,203.59629225,204.026474925,67.0,90.0
308,204.01942275,205.6943143125,69.0,90.0
309,206.55820574999998,206.65517315625,69.0,90.0
310,206.769771,206.8438188375,69.0,90.0
311,206.98133625,207.06419930625,72.0,90.0
312,207.1929015,207.256371075,72.0,90.0
313,207.40446675,207.4749885,72.0,90.0
314,207.616032,208.088527725,72.0,90.0
315,208.144945125,208.32301254375,71.0,90.0
316,208.462293,209.047623525,72.0,90.0
317,209.308554,209.45136054374998,71.0,90.0
318,209.52011925,209.58535186875,72.0,90.0
319,209.7316845,209.79339103125,72.0,90.0
320,209.94324975,210.0102454125,72.0,90.0
321,210.15481499999999,210.36285416249999,62.0,90.0
322,210.472162875,210.8917672875,64.0,90.0
323,211.001076,211.85615221875,64.0,90.0
324,213.55572639375,213.67561336875,74.0,87.0
325,213.75142424999999,214.096980825,76.0,87.0
326,214.104033,214.32441346875,74.0,87.0
327,214.32617651249998,214.7916200625,76.0,87.0
328,214.788093975,215.02257879375,74.0,87.0
329,215.0102374875,215.21827665,76.0,87.0
330,215.38752885,216.05219634375,76.0,87.0
331,216.1350594,216.395989875,74.0,87.0
332,216.360729,216.53174424375,76.0,87.0
333,216.58110946875,217.26164435625,79.0,87.0
334,217.50847048125,219.005294625,69.0,87.0
335,220.33991874375,220.52680138125,69.0,87.0
336,220.55853616875,220.63611009375,77.0,87.0
337,220.76304924375,220.8353340375,77.0,87.0
338,220.965799275,221.09450146875,77.0,87.0
339,221.1667862625,221.2655167125,76.0,87.0
340,221.37306238125,221.61988850625,77.0,87.0
341,221.72214504375,221.82087549375,76.0,87.0
342,221.94428855625,222.2034559875,77.0,87.0
343,223.01621915625,223.15021048124999,77.0,87.0
344,223.31946268125,223.46932139999998,77.0,87.0
345,223.631521425,223.79548449375,77.0,87.0
346,223.9030301625,224.21861499375,76.0,87.0
347,224.32968675,224.717556375,76.0,87.0
348,224.7492911625,226.96191106875,74.0,87.0
349,230.45626378125,230.64843555,76.0,83.0
350,230.69251164375,231.11211605625,78.0,83.0
351,231.11035301249998,231.3148660875,76.0,83.0
352,231.31662913125,231.94779879375,78.0,83.0
353,232.051818375,232.2598575375,76.0,83.0
354,232.263383625,232.6829880375,78.0,83.0
355,232.686514125,232.85224023749998,76.0,83.0
356,232.898079375,233.7408142875,78.0,83.0
357,234.06168825,234.32085568125,74.0,83.0
358,234.37198395,234.74046009375,69.0,83.0
359,234.7492753125,235.99631665,71.0,85.0
360,237.70663145833333,237.88848441666664,69.0,83.0
361,237.94974015,238.16987794166667,79.0,83.0
362,238.185191875,238.33069498541664,78.0,83.0
363,238.43905416874998,238.65964250624998,79.0,83.0
364,238.67318740416667,238.79896145625,78.0,83.0
365,238.93441043541665,239.37365212499998,79.0,80.0
366,239.36784716875,239.56328069583333,78.0,80.0
367,239.58843550625,240.55706514791663,79.0,80.0
368,240.70736068541666,241.05495369374998,79.0,80.0
369,241.02938248541665,241.21564342291666,78.0,80.0
370,241.36956726875,241.56577788541665,78.0,80.0
371,241.63851113124997,241.95312470624998,74.0,80.0
372,241.97342235624998,243.7460837895833,76.0,80.0
373,244.6493292145833,244.78972129374998,76.0,83.0
374,244.83877394791665,245.10095192708332,78.0,83.0
375,245.21258900208332,245.37835314375,76.0,83.0
376,245.4054166770833,246.01603764791665,78.0,83.0
377,246.03126088541666,246.25453503541664,76.0,83.0
378,246.25284356458332,246.52178742708332,78.0,83.0
379,246.68416862708332,247.46224521041665,78.0,83.0
380,247.6067163520833,247.8507888520833,76.0,83.0
381,247.8037177270833,248.00420585208332,78.0,83.0
382,248.05127697708332,249.32133676041664,81.0,83.0
383,249.28651276875,250.60066024374999,71.0,83.0
384,251.2223676270833,251.3911892770833,71.0,83.0
385,251.43968060208329,251.5474391020833,79.0,83.0
386,251.6911171020833,252.0449241770833,79.0,83.0
387,252.0592919770833,252.1868062020833,78.0,83.0
388,252.2819928770833,252.6501677520833,79.0,83.0
389,252.65914762708329,252.7848658770833,78.0,83.0
390,252.8746646270833,253.8965744020833,79.0,83.0
391,254.0618041020833,254.36532387708328,79.0,83.0
392,254.3671198520833,254.5233696770833,78.0,83.0
393,254.7083551020833,254.9202801520833,78.0,83.0
394,254.9238721020833,255.13579715208328,76.0,83.0
395,255.3549061020833,257.4939901020833,76.0,83.0
396,258.3841149020833,260.4529596520833,78.0,83.0
397,260.9049761520833,261.33439182708327,78.0,83.0
398,261.34482297708325,261.5534459770833,81.0,83.0
399,261.7498993020833,262.2749338520833,81.0,83.0
400,262.2749338520833,264.25337530208327,71.0,83.0
401,265.0756976270833,267.4366145770833,76.0,83.0
402,267.5200637770833,267.73737940208326,74.0,83.0
403,267.7321638270833,267.93561322708325,76.0,83.0
404,267.9498379604166,268.1560965937499,74.0,83.0
405,268.1418718604166,268.2556697270833,76.0,83.0
406,268.38547041874995,270.79300653541657,76.0,83.0
407,270.92280722708324,271.37266441874993,74.0,83.0
408,271.35132731874995,271.58070114374993,78.0,83.0
409,271.74428557708325,274.0486923770833,78.0,83.0
410,274.3011813937499,274.7563728604166,78.0,83.0
411,274.7368138520833,275.1226597437499,81.0,83.0
412,275.1386625687499,277.64043754374995,71.0,83.0
413,278.4956996354166,281.07393255208325,76.0,85.0
414,281.05259545208327,281.26596645208326,74.0,85.0
415,281.26241026874993,281.47400317708326,76.0,85.0
416,281.4757812687499,281.6695932604166,74.0,85.0
417,281.6642589854166,281.79050349374995,76.0,85.0
418,281.9149699104166,285.33601827708327,76.0,85.0
