,start,end,pitch,velocity
0,30.055115,30.3804823,64.0,90.0
1,30.496291000000003,31.198496133333336,64.0,91.0
2,31.378643000000004,31.529378133333335,66.0,82.0
3,31.599231000000003,31.74077496666667,69.0,82.0
4,31.819819000000003,32.163568633333334,71.0,85.0
5,32.260995,32.889670800000005,71.0,85.0
6,33.143347000000006,33.26099393333334,69.0,87.0
7,33.363935000000005,33.51099366666667,71.0,87.0
8,33.584523000000004,33.90253736666667,73.0,85.0
9,34.025699,34.369448633333334,76.0,86.0
10,34.466875,34.6929777,73.0,86.0
11,34.687463,34.87128633333334,71.0,80.0
12,34.908051,35.25731533333334,69.0,83.0
13,35.349227000000006,36.26282896666667,66.0,85.0
14,37.113931,37.42091596666667,64.0,89.0
15,37.555107,38.27937093333334,64.0,88.0
16,38.437459000000004,38.57900296666667,66.0,85.0
17,38.658047,38.79407626666667,69.0,84.0
18,38.878635,39.79591343333334,71.0,86.0
19,40.202163000000006,40.345545200000004,69.0,85.0
20,40.422751000000005,40.5661332,71.0,86.0
21,40.643339000000005,40.9631916,73.0,87.0
22,41.084515,41.4043676,76.0,86.0
23,41.525691,41.70951433333334,73.0,85.0
24,41.746279,41.91539646666667,71.0,85.0
25,41.966867,42.31796956666667,69.0,82.0
26,42.408043000000006,43.43561543333334,66.0,79.0
27,44.172747,44.5091437,69.0,85.0
28,44.61392300000001,45.17274593333334,69.0,86.0
29,45.275687000000005,45.624951333333335,73.0,84.0
30,45.716863000000004,45.8602452,73.0,84.0
31,45.937451,46.281200633333334,73.0,85.0
32,46.378627,46.968699900000004,71.0,88.0
33,47.260979000000006,47.395170033333336,73.0,80.0
34,47.481567000000005,47.608405100000006,76.0,89.0
35,47.702155000000005,48.00913996666667,78.0,87.0
36,48.143331,48.40987483333334,76.0,88.0
37,48.584507,48.71502156666667,76.0,85.0
38,48.805095,49.143329933333334,76.0,88.0
39,49.24627100000001,49.384138500000006,71.0,84.0
40,49.46685900000001,50.42274033333334,73.0,78.0
41,51.010975,51.170901300000004,69.0,86.0
42,51.231563,51.53670973333334,71.0,85.0
43,51.67273900000001,51.9650181,71.0,87.0
44,52.113915000000006,52.246267800000005,71.0,87.0
45,52.334503000000005,52.73523786666667,69.0,86.0
46,52.775679000000004,53.36562034166667,73.0,85.0
47,53.4351664375,53.81034932291667,71.0,88.0
48,54.094024187500004,54.502149960416666,69.0,84.0
49,54.5332626875,54.74373113541667,66.0,82.0
50,54.7528819375,57.37367165416667,64.0,86.0
51,58.2667899375,58.59072833125,64.0,90.0
52,58.7060284375,59.40657862291667,64.0,91.0
53,59.58672548958333,59.737460622916664,66.0,82.0
54,59.80731348958333,59.948857456249996,69.0,82.0
55,60.027901489583336,60.37165112291667,71.0,85.0
56,60.469077489583334,61.09775328958333,71.0,85.0
57,61.35142948958333,61.469076422916665,69.0,87.0
58,61.57201748958333,61.71907615625,71.0,87.0
59,61.79260548958333,62.11061985625,73.0,85.0
60,62.233781489583336,62.57753112291667,76.0,86.0
61,62.674957489583335,62.90106018958333,73.0,86.0
62,62.895545489583334,63.07936882291666,71.0,80.0
63,63.11613348958333,63.465397822916664,69.0,83.0
64,63.55730948958333,64.47091145625,66.0,85.0
65,65.32201348958333,65.62899845625,64.0,89.0
66,65.76318948958334,66.48745342291667,64.0,88.0
67,66.64554148958334,66.78708545625,66.0,85.0
68,66.86612948958333,67.00215875625,69.0,84.0
69,67.08671748958334,67.52789348958333,71.0,86.0
70,67.52789348958333,67.96906948958333,71.0,86.0
71,68.41024548958333,68.55362768958334,69.0,85.0
72,68.63083348958334,68.77421568958333,71.0,86.0
73,68.85142148958333,69.17127408958333,73.0,87.0
74,69.29259748958333,69.61245008958333,76.0,86.0
75,69.73377348958333,69.91759682291666,73.0,85.0
76,69.95436148958333,70.12347895625,71.0,85.0
77,70.17494948958333,70.52605205625,69.0,82.0
78,70.61612548958334,71.64369792291667,66.0,79.0
79,72.38082948958333,72.71722618958333,69.0,85.0
80,72.82200548958333,73.26318148958333,69.0,86.0
81,73.26318148958333,73.40656368958334,69.0,84.0
82,73.48376948958334,73.83303382291666,73.0,84.0
83,73.92494548958334,74.06832768958333,73.0,84.0
84,74.14537180208333,74.48811358333334,73.0,85.0
85,74.58525430208334,75.17359714583334,71.0,88.0
86,75.46501930208333,75.59881689583334,73.0,80.0
87,75.68496055208334,75.81142677083334,76.0,89.0
88,75.90490180208334,76.21098670833334,78.0,87.0
89,76.34478430208334,76.61054664583334,76.0,88.0
90,76.78466680208334,76.91479870833334,76.0,85.0
91,77.00460805208334,77.34185130208334,76.0,88.0
92,77.44449055208334,77.58195383333334,71.0,84.0
93,77.66443180208334,78.61751055208333,73.0,78.0
94,79.20402055208334,79.36347795833333,69.0,86.0
95,79.42396180208334,79.72821386458334,71.0,85.0
96,79.86384430208334,80.15526645833334,71.0,87.0
97,80.30372680208333,80.43569155208334,71.0,87.0
98,80.52366805208334,80.92322798958334,69.0,86.0
99,80.96355055208333,81.18349180208334,69.0,86.0
100,81.18349180208334,81.62337430208333,73.0,85.0
101,81.62337430208333,81.99910727083333,71.0,88.0
102,82.28319805208334,82.94302180208334,71.0,84.0
103,82.94302180208334,85.56765405208334,69.0,86.0
104,86.90196430208334,87.20804920833334,78.0,91.0
105,87.34206238541668,87.62331208541667,78.0,91.0
106,87.78323838541668,87.91559118541667,76.0,91.0
107,88.00382638541667,88.59022281875001,78.0,89.0
108,88.66559038541668,89.21154568541668,73.0,95.0
109,89.54794238541668,89.66191285208335,73.0,88.0
110,89.76853038541668,89.92110375208334,76.0,90.0
111,89.98911838541667,90.31632391875002,78.0,95.0
112,90.43029438541667,90.54794131875,76.0,89.0
113,90.65088238541668,90.75749991875001,76.0,91.0
114,90.87147038541667,91.00933788541667,76.0,88.0
115,91.09205838541668,91.66374895208334,78.0,88.0
116,91.75382238541667,93.21337965208335,76.0,90.0
117,93.95970238541668,94.28323145208334,78.0,90.0
118,94.40087838541668,94.71705451875,78.0,87.0
119,94.84205438541667,94.95786308541668,76.0,88.0
120,95.06264238541668,95.19683341875,76.0,86.0
121,95.28323038541667,95.58102418541668,78.0,85.0
122,95.72440638541667,96.01484725208334,76.0,93.0
123,96.16558238541667,96.33469985208335,73.0,85.0
124,96.38617038541668,96.49278791875001,71.0,88.0
125,96.60675838541667,96.98175798541668,69.0,86.0
126,97.04793438541668,98.72072671875002,71.0,88.0
127,101.01851838541668,101.30712101875001,78.0,86.0
128,101.45969438541668,101.79609108541668,78.0,85.0
129,101.90087038541668,102.03873788541668,76.0,85.0
130,102.12145838541667,102.64903135208334,78.0,86.0
131,102.78322238541668,103.40454525208334,76.0,90.0
132,103.66557438541668,103.82182421875001,73.0,84.0
133,103.88616238541667,104.01667695208334,76.0,89.0
134,104.10675038541667,104.41925005208334,78.0,83.0
135,104.54792638541667,104.76299968541667,76.0,91.0
136,104.98910238541667,105.28138148541667,73.0,88.0
137,105.20969038541668,105.33101378541667,71.0,85.0
138,105.43027838541667,105.54976355208335,69.0,83.0
139,105.65086638541668,106.86593861875001,69.0,88.0
140,108.29792238541668,108.43946635208334,69.0,80.0
141,108.51851038541668,108.84755415208335,71.0,84.0
142,108.95968638541667,109.14350971875001,73.0,82.0
143,109.18027438541668,109.48174465208334,71.0,85.0
144,109.62145038541668,110.47622888541667,69.0,85.0
145,110.72439038541668,110.87880198541667,73.0,86.0
146,110.94497838541668,111.04424298541667,76.0,95.0
147,111.16556638541668,111.46336018541668,78.0,84.0
148,111.60674238541668,111.85674211875,76.0,86.0
149,112.04791838541668,112.17659471875001,76.0,86.0
150,112.26850638541669,112.83284401875001,78.0,85.0
151,112.93027038541668,113.36225521875001,78.0,86.0
152,113.37144638541668,115.70967918541668,76.0,85.0
153,116.45967838541668,116.78504568541668,64.0,90.0
154,116.90085438541668,117.60305951875002,64.0,91.0
155,117.78320638541668,117.93394151875,66.0,82.0
156,118.00379438541668,118.14533835208334,69.0,82.0
157,118.22438238541667,118.56813201875,71.0,85.0
158,118.66555838541667,119.29423418541668,71.0,85.0
159,119.32732238541668,119.54791038541669,71.0,85.0
160,119.54791038541669,119.66555731875002,69.0,87.0
161,119.76849838541668,119.91555705208334,71.0,87.0
162,119.98908638541667,120.30710075208334,73.0,85.0
163,120.43026238541668,120.77401201875001,76.0,86.0
164,120.87143838541668,121.09754108541668,73.0,86.0
165,121.09202638541669,121.27584971875001,71.0,80.0
166,121.31261438541668,121.66187871875002,69.0,83.0
167,121.75379038541668,122.66739235208334,66.0,85.0
168,123.51849438541669,123.82547935208333,64.0,89.0
169,123.95967038541667,124.68393431875,64.0,88.0
170,124.84202238541667,124.98356635208334,66.0,85.0
171,125.06261038541668,125.19863965208334,69.0,84.0
172,125.28319838541668,125.94496238541669,71.0,86.0
173,126.38613838541667,126.60672638541668,71.0,86.0
174,126.60672638541668,126.75010858541668,69.0,85.0
175,126.82731438541668,126.97069658541668,71.0,86.0
176,127.04790238541668,127.36775498541668,73.0,87.0
177,127.48907838541668,127.80893098541668,76.0,86.0
178,127.93025438541667,128.11407771875002,73.0,85.0
179,128.1508423854167,128.31995985208334,71.0,85.0
180,128.3714303854167,128.72253295208336,69.0,82.0
181,128.81260638541667,129.84017881875002,66.0,79.0
182,130.5773103854167,130.91370708541666,69.0,85.0
183,131.01848638541668,131.45966238541666,69.0,86.0
184,131.45966238541666,131.60304458541668,69.0,84.0
185,131.68025038541668,132.02951471875002,73.0,84.0
186,132.12142638541667,132.2648085854167,73.0,84.0
187,132.3420143854167,132.68576401875,73.0,85.0
188,132.78319038541667,133.37326328541667,71.0,88.0
189,133.66554238541667,133.79973341875,73.0,80.0
190,133.88613038541666,134.01296848541668,76.0,89.0
191,134.10671838541668,134.41370335208336,78.0,87.0
192,134.54789438541667,134.7684823854167,76.0,88.0
193,134.7684823854167,134.98907038541668,76.0,88.0
194,134.98907038541668,135.11958495208336,76.0,85.0
195,135.20965838541667,135.54789331875003,76.0,88.0
196,135.6508343854167,135.78870188541669,71.0,84.0
197,135.87142238541668,136.82730371875002,73.0,78.0
198,138.0773023854167,138.29789038541668,69.0,87.0
199,138.29789038541668,138.95965438541668,69.0,87.0
200,138.95965438541668,139.18024238541668,73.0,86.0
201,139.18024238541668,139.6214183854167,73.0,85.0
202,139.84200638541668,140.5037703854167,71.0,88.0
203,140.72435838541668,141.16553438541666,71.0,84.0
204,141.16553438541666,143.79788451875,69.0,86.0
205,173.37138238541667,173.67836735208334,78.0,91.0
206,173.81255838541668,174.0938080854167,78.0,91.0
207,174.2537343854167,174.38608718541667,76.0,91.0
208,174.47432238541668,175.06071881875002,78.0,89.0
209,175.13608638541666,175.68204168541666,73.0,95.0
210,176.0184383854167,176.13240885208336,73.0,88.0
211,176.23902638541668,176.39159975208335,76.0,90.0
212,176.45961438541667,176.78681991875,78.0,95.0
213,176.90079038541668,177.01843731875002,76.0,89.0
214,177.12137838541668,177.22799591875003,76.0,91.0
215,177.3419663854167,177.47983388541667,76.0,88.0
216,177.56255438541666,178.13424495208335,78.0,88.0
217,178.22431838541667,179.68387565208334,76.0,90.0
218,180.4301983854167,180.75372745208335,78.0,90.0
219,180.8713743854167,181.18755051875002,78.0,87.0
220,181.31255038541667,181.42835908541667,76.0,88.0
221,181.5331383854167,181.66732941875,76.0,86.0
222,181.75372638541668,182.05152018541668,78.0,85.0
223,182.1949023854167,182.48534325208334,76.0,93.0
224,182.63607838541668,182.80519585208333,73.0,85.0
225,182.8566663854167,182.96328391875002,71.0,88.0
226,183.07725438541667,183.4522539854167,69.0,86.0
227,183.51843038541668,185.19122271875,71.0,88.0
228,187.48901438541668,187.77761701875002,78.0,86.0
229,187.93019038541667,188.2665870854167,78.0,85.0
230,188.37136638541668,188.50923388541668,76.0,85.0
231,188.59195438541667,189.11952735208337,78.0,86.0
232,189.25371838541668,189.87504125208335,76.0,90.0
233,190.1360703854167,190.29232021875004,73.0,84.0
234,190.35665838541667,190.48717295208337,76.0,89.0
235,190.5772463854167,190.88974605208335,78.0,83.0
236,191.01842238541667,191.2334956854167,76.0,91.0
237,191.45959838541668,191.75187748541668,73.0,88.0
238,191.68018638541668,191.80150978541667,71.0,85.0
239,191.9007743854167,192.02025955208336,69.0,83.0
240,192.1213623854167,193.33643461875002,69.0,88.0
241,194.76841838541668,194.90996235208337,69.0,80.0
242,194.9890063854167,195.31805015208334,71.0,84.0
243,195.43018238541669,195.61400571875004,73.0,82.0
244,195.65077038541668,195.95224065208333,71.0,85.0
245,196.0919463854167,196.9467248854167,69.0,85.0
246,197.19488638541668,197.34929798541668,73.0,86.0
247,197.4154743854167,197.51473898541667,76.0,95.0
248,197.63606238541666,197.9338561854167,78.0,84.0
249,198.07723838541668,198.32723811875002,76.0,86.0
250,198.5184143854167,198.64709071875,76.0,86.0
251,198.73900238541668,199.30334001875002,78.0,85.0
252,199.4007663854167,199.83275121875002,78.0,86.0
253,199.8419423854167,202.1801751854167,76.0,85.0
254,202.93017438541668,203.2555416854167,64.0,90.0
255,203.3713503854167,204.07355551875003,64.0,91.0
256,204.2537023854167,204.40443751875,66.0,82.0
257,204.47429038541668,204.61583435208337,69.0,82.0
258,204.6948783854167,205.03862801875002,71.0,85.0
259,205.13605438541668,205.76473018541668,71.0,85.0
260,205.7978183854167,206.01840638541668,71.0,85.0
261,206.01840638541668,206.13605331875002,69.0,87.0
262,206.23899438541667,206.38605305208335,71.0,87.0
263,206.4595823854167,206.77759675208335,73.0,85.0
264,206.90075838541668,207.24450801875003,76.0,86.0
265,207.34193438541666,207.56803708541668,73.0,86.0
266,207.56252238541668,207.74634571875004,71.0,80.0
267,207.7831103854167,208.13237471875001,69.0,83.0
268,208.2242863854167,209.13788835208334,66.0,85.0
269,209.98899038541668,210.29597535208336,64.0,89.0
270,210.43016638541667,211.15443031875003,64.0,88.0
271,211.3125183854167,211.45406235208335,66.0,85.0
272,211.5331063854167,211.66913565208336,69.0,84.0
273,211.75369438541668,212.41545838541668,71.0,86.0
274,212.85663438541667,213.0772223854167,71.0,86.0
275,213.0772223854167,213.22060458541668,69.0,85.0
276,213.29781038541668,213.44119258541667,71.0,86.0
277,213.51839838541667,213.83825098541666,73.0,87.0
278,213.9595743854167,214.2794269854167,76.0,86.0
279,214.4007503854167,214.58457371875002,73.0,85.0
280,214.62133838541666,214.79045585208337,71.0,85.0
281,214.84192638541668,215.19302895208335,69.0,82.0
282,215.2831023854167,216.31067481875002,66.0,79.0
283,217.0478063854167,217.3842030854167,69.0,85.0
284,217.48898238541668,217.9301583854167,69.0,86.0
285,217.9301583854167,218.07354058541668,69.0,84.0
286,218.15074638541668,218.50001071875002,73.0,84.0
287,218.5919223854167,218.73530458541669,73.0,84.0
288,218.8125103854167,219.15626001875003,73.0,85.0
289,219.25368638541667,219.8437592854167,71.0,88.0
290,220.1360383854167,220.27022941875,73.0,80.0
291,220.3566263854167,220.48346448541668,76.0,89.0
292,220.57721438541668,220.88419935208336,78.0,87.0
293,221.0183903854167,221.2389783854167,76.0,88.0
294,221.2389783854167,221.45956638541668,76.0,88.0
295,221.45956638541668,221.59008095208335,76.0,85.0
296,221.6801543854167,222.01838931875002,76.0,88.0
297,222.12133038541668,222.25919788541668,71.0,84.0
298,222.34191838541668,223.29779971875,73.0,78.0
299,224.54779838541668,224.76838638541668,69.0,87.0
300,224.76838638541668,225.43015038541668,69.0,87.0
301,225.43015038541668,225.65073838541667,73.0,86.0
302,225.65073838541667,226.0919143854167,73.0,85.0
303,226.31250238541668,226.97426638541668,71.0,88.0
304,227.19485438541668,227.4154423854167,71.0,84.0
305,227.4154423854167,228.07720638541667,71.0,84.0
306,228.07720638541667,230.70955651875002,69.0,86.0
307,231.72426131875002,231.98529045208335,69.0,83.0
308,232.10845208541667,232.61948095208336,69.0,84.0
309,232.72977495208335,232.94484825208335,73.0,79.0
310,233.04778931875,233.37867131875,73.0,84.0
311,233.54962701875002,235.28859575208335,71.0,80.0
312,236.32535935208335,236.63785901875002,71.0,79.0
313,236.72609421875,237.33271121875,71.0,85.0
314,237.29227008541667,240.90991328541668,69.0,81.0
