,start,end,pitch,velocity
0,1.819851,3.3749964,45.0,84.0
1,2.2610270000000003,3.4246287000000004,52.0,65.0
2,3.1433790000000004,3.588231466666667,61.0,70.0
3,2.922791,3.6121285000000003,64.0,73.0
4,3.363967,3.6305108333333336,57.0,85.0
5,2.7022030000000004,3.770216566666667,69.0,84.0
6,4.466907,4.823524266666667,71.0,86.0
7,4.908083,5.2849208333333335,62.0,77.0
8,4.687495,5.294112,66.0,74.0
9,5.128671000000001,5.3437443,59.0,79.0
10,3.5845550000000004,5.393376600000001,47.0,85.0
11,4.025731,5.397053066666667,54.0,73.0
12,5.349259,6.904404400000001,45.0,84.0
13,5.790435,6.9540367000000005,52.0,65.0
14,6.6727870000000005,7.117639466666668,61.0,70.0
15,6.452199,7.141536500000001,64.0,73.0
16,6.893375000000001,7.159918833333334,57.0,85.0
17,6.231611000000001,7.299624566666667,69.0,84.0
18,7.996315000000001,8.352932266666667,71.0,86.0
19,8.437491000000001,8.814328833333335,62.0,77.0
20,8.216903,8.82352,66.0,74.0
21,8.658079,8.873152300000001,59.0,79.0
22,7.113963000000001,8.9227846,47.0,85.0
23,7.5551390000000005,8.926461066666667,54.0,73.0
24,8.878667,10.4338124,45.0,84.0
25,9.319843,10.483444700000002,52.0,65.0
26,10.202195000000001,10.647047466666667,61.0,70.0
27,9.981607,10.670944500000001,64.0,73.0
28,10.422783,10.689326833333334,57.0,85.0
29,9.761019000000001,10.829032566666667,69.0,84.0
30,11.525723000000001,11.882340266666668,71.0,86.0
31,11.966899000000002,12.343736833333335,62.0,77.0
32,11.746311,12.352928,66.0,74.0
33,12.187487,12.402560300000001,59.0,79.0
34,10.643371,12.4521926,47.0,85.0
35,11.084547,12.455869066666668,54.0,73.0
36,12.408075,12.555133666666668,61.0,78.0
37,12.408075,12.560648366666667,57.0,73.0
38,12.408075,12.604765966666667,45.0,84.0
39,12.849251,13.908073400000001,47.0,85.0
40,12.849251,13.970573333333334,59.0,75.0
41,12.849251,14.007338,62.0,77.0
42,14.613955,15.363954200000002,47.0,70.0
43,14.172779,15.4687335,40.0,88.0
44,15.055131000000001,15.887850700000001,56.0,79.0
45,15.055131000000001,15.906233033333335,59.0,83.0
46,14.834543000000002,15.920938900000001,52.0,84.0
47,15.055131000000001,15.931968300000001,64.0,85.0
48,15.937483000000002,16.4613795,62.0,78.0
49,15.937483000000002,16.593732300000003,66.0,80.0
50,16.378659000000003,17.248143366666667,57.0,74.0
51,15.937483000000002,17.253658066666667,50.0,86.0
52,17.040423,17.30329036666667,62.0,79.0
53,16.819835,17.3216727,69.0,86.0
54,17.481599000000003,17.658069400000002,62.0,67.0
55,17.261011,17.6856429,66.0,77.0
56,17.702187000000002,18.580862533333335,68.0,72.0
57,17.702187000000002,18.889685733333334,52.0,85.0
58,18.143363,18.915421000000002,59.0,73.0
59,18.584539000000003,18.976082700000003,64.0,88.0
60,19.466891,20.147037333333333,61.0,74.0
61,19.466891,20.16541966666667,68.0,74.0
62,19.908067000000003,20.290419533333335,56.0,72.0
63,20.128655000000002,20.511007533333334,64.0,80.0
64,20.349243,20.840051300000002,61.0,84.0
65,19.466891,20.847404233333336,49.0,84.0
66,20.790419,20.941154133333335,56.0,78.0
67,21.011007000000003,21.349241933333335,61.0,84.0
68,21.672771,22.43747606666667,49.0,62.0
69,21.231595000000002,22.501814233333334,42.0,86.0
70,21.893359,22.597402366666667,61.0,90.0
71,22.334535000000002,22.637843500000002,57.0,75.0
72,22.555123000000002,22.843725633333335,54.0,79.0
73,22.775711,23.047769533333334,61.0,74.0
74,23.437475000000003,23.766518766666668,62.0,82.0
75,23.658063000000002,23.9503421,57.0,74.0
76,22.996299,24.2536506,50.0,84.0
77,23.878651,24.354753433333336,66.0,90.0
78,24.099239,24.3970328,57.0,84.0
79,24.540415000000003,24.672767800000003,57.0,68.0
80,24.319827,24.790414733333336,62.0,73.0
81,24.761003000000002,24.829017633333336,59.0,73.0
82,25.202179,25.90070766666667,47.0,74.0
83,25.643355000000003,25.904384133333334,52.0,80.0
84,24.761003000000002,25.937472333333336,40.0,85.0
85,25.643355000000003,26.373133633333335,56.0,76.0
86,26.084531000000002,26.448501200000003,52.0,84.0
87,25.643355000000003,26.465045300000003,59.0,79.0
88,24.761003000000002,26.755486166666667,64.0,82.0
89,26.966883000000003,27.82533796666667,52.0,78.0
90,26.525707,27.9760731,45.0,85.0
91,27.408059,28.0422495,59.0,73.0
92,27.849235000000004,28.132322933333334,57.0,78.0
93,28.290411000000002,28.590043033333334,61.0,70.0
94,28.290411000000002,28.67460176666667,57.0,70.0
95,28.290411000000002,28.700337033333337,64.0,79.0
96,29.172763000000003,29.477909733333334,57.0,64.0
97,29.172763000000003,29.58452726666667,61.0,71.0
98,28.731587,29.610262533333337,52.0,64.0
99,28.290411000000002,29.64518896666667,45.0,80.0
100,30.937467,31.408054733333337,57.0,83.0
101,30.055115,31.468716433333334,45.0,85.0
102,30.496291000000003,31.615775100000004,52.0,73.0
103,30.937467,32.34739196666667,64.0,85.0
104,32.481583,32.71687686666667,57.0,84.0
105,32.260995,32.801435600000005,54.0,72.0
106,32.922759,33.17827343333334,54.0,73.0
107,32.702171,33.18562636666667,62.0,86.0
108,31.819819000000003,33.26650863333334,47.0,85.0
109,33.584523000000004,34.11761066666667,57.0,74.0
110,33.584523000000004,34.3345222,61.0,78.0
111,34.246287,34.7260659,57.0,82.0
112,33.584523000000004,35.09371256666667,45.0,80.0
113,34.908051,35.15805073333333,57.0,79.0
114,34.025699,35.22606536666667,52.0,74.0
115,34.687463,35.3051094,64.0,89.0
116,35.349227000000006,36.233417233333334,62.0,79.0
117,36.231579,36.529372800000004,57.0,85.0
118,36.010991000000004,36.58635803333333,54.0,75.0
119,35.349227000000006,36.6782697,47.0,85.0
120,36.452167,36.72054906666667,62.0,85.0
121,36.672755,37.64518043333334,64.0,85.0
122,37.555107,38.172753400000005,52.0,76.0
123,37.996283000000005,38.294076800000006,57.0,77.0
124,37.113931,38.4154002,45.0,84.0
125,37.996283000000005,38.55142946666667,61.0,79.0
126,38.437459000000004,38.62128233333333,57.0,73.0
127,38.878635,39.54959016666667,62.0,80.0
128,39.540399,40.01098673333334,57.0,78.0
129,39.319811,40.03488376666667,54.0,68.0
130,38.878635,40.1745895,47.0,81.0
131,39.98157500000001,40.3069423,62.0,79.0
132,40.202163000000006,40.32164816666667,57.0,76.0
133,40.643339000000005,41.295911833333335,57.0,76.0
134,40.643339000000005,41.2995883,61.0,77.0
135,41.305103,41.808778933333336,64.0,87.0
136,41.746279,42.067969833333336,61.0,86.0
137,40.643339000000005,42.117602133333335,45.0,85.0
138,41.966867,42.159881500000004,57.0,76.0
139,41.084515,42.18010206666667,52.0,73.0
140,42.408043000000006,42.851057233333336,59.0,68.0
141,42.408043000000006,43.05142466666667,62.0,75.0
142,43.069807000000004,43.16723336666667,57.0,72.0
143,42.849219000000005,43.40988016666667,54.0,70.0
144,43.290395000000004,43.77385036666667,57.0,85.0
145,42.408043000000006,43.78855623333334,47.0,79.0
146,43.290395000000004,43.81245326666667,62.0,85.0
147,44.172747,44.4760555,57.0,77.0
148,44.61392300000001,45.14149596666667,57.0,75.0
149,44.172747,45.1543636,62.0,79.0
150,44.172747,45.34553986666667,50.0,84.0
151,45.055099000000006,45.749951200000005,66.0,86.0
152,45.496275000000004,45.81428936666667,57.0,68.0
153,45.716863000000004,45.9815686,62.0,81.0
154,46.378627,47.07164096666667,47.0,69.0
155,45.937451,47.101052700000004,64.0,84.0
156,45.937451,47.150685,40.0,86.0
157,46.599215,47.224214333333336,52.0,84.0
158,47.04039100000001,47.49994933333334,56.0,91.0
159,47.481567000000005,47.665390333333335,52.0,86.0
160,47.260979000000006,48.049581100000005,64.0,86.0
161,47.702155000000005,48.33818373333334,45.0,87.0
162,48.143331,48.439286566666674,57.0,85.0
163,47.922743000000004,48.531198233333335,52.0,70.0
164,48.584507,49.04038886666667,56.0,80.0
165,48.584507,49.06244766666667,59.0,76.0
166,48.584507,49.11759466666667,44.0,79.0
167,49.46685900000001,50.18377,54.0,80.0
168,49.46685900000001,50.19296116666667,61.0,79.0
169,49.908035000000005,50.643328333333336,49.0,58.0
170,50.128623000000005,50.647004800000005,57.0,76.0
171,49.46685900000001,50.71501943333334,42.0,85.0
172,50.790387,51.09185726666667,54.0,85.0
173,51.010975,51.15251896666667,57.0,84.0
174,50.569799,51.24443063333334,66.0,81.0
175,51.231563,52.21134136666667,49.0,87.0
176,51.67273900000001,52.224209,56.0,69.0
177,52.113915000000006,52.294061866666674,61.0,78.0
178,52.113915000000006,52.97579617291667,64.0,84.0
179,52.113915000000006,53.13502012916667,68.0,75.0
180,52.9959279375,53.62001263958334,50.0,89.0
181,53.2155471875,53.66210632916667,57.0,74.0
182,53.4351664375,53.80302868125,62.0,83.0
183,53.6547856875,54.12513691458334,66.0,69.0
184,54.094024187500004,54.4234530625,59.0,73.0
185,54.313643437500005,54.535092847916665,63.0,72.0
186,53.8744049375,54.60097862291667,47.0,86.0
187,54.5332626875,54.63392151041667,59.0,62.0
188,54.7528819375,55.24519508958333,59.0,67.0
189,54.7528819375,55.45749369791667,64.0,78.0
190,55.4117396875,55.89307187708334,59.0,81.0
191,55.850978187500004,56.11269112708334,64.0,85.0
192,55.1921204375,56.335970697916665,47.0,73.0
193,54.7528819375,56.37623422708334,40.0,84.0
194,56.0705974375,56.40551679375,59.0,77.0
195,56.5098359375,57.227258820833335,59.0,62.0
196,56.2902166875,57.23091914166667,64.0,80.0
197,56.5098359375,57.24190010416667,68.0,77.0
198,57.388312937500004,57.60061154583333,59.0,86.0
199,56.5098359375,58.18077239791667,40.0,84.0
200,57.388312937500004,58.31986458958333,64.0,89.0
201,58.2667899375,58.31986458958333,64.0,84.0
202,57.8275514375,58.38025988333334,59.0,84.0
203,58.2667899375,58.84329046875,57.0,78.0
204,58.7060284375,59.31466695625,52.0,80.0
205,59.14554948958333,59.62349015625,57.0,80.0
206,59.14554948958333,59.693343022916665,61.0,85.0
207,58.2667899375,59.70804888958333,45.0,84.0
208,59.14554948958333,59.91944572291666,64.0,87.0
209,59.58672548958333,59.92128395625,52.0,84.0
210,59.80731348958333,59.952533922916665,57.0,84.0
211,60.027901489583336,60.507680389583335,59.0,84.0
212,60.027901489583336,60.56282738958333,62.0,78.0
213,60.689665489583334,60.82201828958333,59.0,85.0
214,60.469077489583334,61.04444452291666,54.0,80.0
215,60.91025348958333,61.34407655625,62.0,90.0
216,60.027901489583336,61.40841472291667,47.0,88.0
217,60.91025348958333,61.43782645625,59.0,86.0
218,61.35142948958333,61.765031989583335,54.0,81.0
219,61.79260548958333,62.12532572291666,64.0,85.0
220,61.79260548958333,62.14186982291667,61.0,84.0
221,62.233781489583336,62.73378095625,56.0,78.0
222,62.674957489583335,62.858780822916664,61.0,79.0
223,61.79260548958333,62.91944252291667,49.0,90.0
224,62.895545489583334,63.07936882291666,56.0,90.0
225,62.674957489583335,63.20253045625,68.0,93.0
226,63.11613348958333,63.32385385625,61.0,86.0
227,63.55730948958333,63.812823922916664,57.0,77.0
228,63.55730948958333,64.01686782291667,62.0,73.0
229,63.99848548958333,64.34223512291666,57.0,84.0
230,64.21907348958334,64.36797038958333,62.0,79.0
231,64.43966148958333,64.84591105625,64.0,93.0
232,63.55730948958333,64.91576392291667,50.0,85.0
233,64.88083748958333,64.96907268958333,62.0,80.0
234,65.32201348958333,65.56649852291666,57.0,80.0
235,65.32201348958333,65.77789535625,61.0,78.0
236,65.76318948958334,65.91024815625,57.0,80.0
237,65.98377748958333,66.32752712291666,59.0,77.0
238,65.54260148958333,66.59039448958333,52.0,79.0
239,66.42495348958333,66.59407095625,57.0,80.0
240,66.42495348958333,66.69701202291667,61.0,87.0
241,65.32201348958333,66.84407068958333,45.0,85.0
242,66.64554148958334,66.99664405625,52.0,84.0
243,67.08671748958334,67.42495242291666,62.0,83.0
244,67.08671748958334,67.53524642291667,59.0,78.0
245,67.52789348958333,68.08303995625,54.0,74.0
246,67.08671748958334,68.11612815625,47.0,86.0
247,67.96906948958333,68.22458392291666,66.0,85.0
248,67.96906948958333,68.54443652291667,59.0,85.0
249,68.85142148958333,69.57752365625,61.0,82.0
250,68.85142148958333,69.58120012291667,68.0,77.0
251,68.85142148958333,69.89553802291667,37.0,84.0
252,69.29259748958333,69.91943505625,44.0,85.0
253,69.51318548958334,70.00215555625,64.0,86.0
254,69.95436148958333,70.21539062291667,61.0,85.0
255,70.17494948958333,70.33671402291667,68.0,84.0
256,70.61612548958334,70.88450755625,57.0,75.0
257,70.61612548958334,71.08303675625,62.0,80.0
258,71.05730148958334,71.40840405624999,57.0,75.0
259,71.27788948958333,71.52788922291667,62.0,85.0
260,70.61612548958334,71.84222712291667,50.0,85.0
261,71.71906548958333,71.98560932291667,57.0,84.0
262,71.71906548958333,72.04259455625,64.0,84.0
263,71.93965348958334,72.11244742291666,62.0,84.0
264,72.38082948958333,72.87531425625,59.0,79.0
265,72.38082948958333,73.08671108958333,62.0,84.0
266,72.82200548958333,73.25582855625,54.0,72.0
267,73.04259348958334,73.59773995625,59.0,85.0
268,73.70435748958333,73.84773968958334,54.0,80.0
269,72.38082948958333,73.88266612291667,47.0,84.0
270,73.48376948958334,73.96722485625,62.0,87.0
271,73.92494548958334,74.28100223958334,59.0,85.0
272,74.80519555208333,75.29823052083334,52.0,86.0
273,75.02513680208334,75.38620702083334,56.0,88.0
274,74.58525430208334,75.42103105208334,47.0,76.0
275,74.14537180208333,75.48151489583334,40.0,87.0
276,75.46501930208333,75.75644145833334,59.0,82.0
277,75.68496055208334,75.88840620833334,52.0,86.0
278,75.24507805208334,76.03686655208334,64.0,89.0
279,75.90490180208334,76.42359658333334,45.0,89.0
280,76.34478430208334,76.64170498958333,57.0,86.0
281,76.56472555208333,76.68386039583334,61.0,85.0
282,76.12484305208334,76.78100111458333,52.0,82.0
283,77.00460805208334,77.44815623958334,52.0,82.0
284,76.78466680208334,77.49397733333333,44.0,85.0
285,77.22454930208333,77.59661658333334,56.0,85.0
286,77.44449055208334,77.63877198958333,59.0,78.0
287,78.10431430208334,78.26927023958334,57.0,79.0
288,78.10431430208334,78.42506195833334,54.0,84.0
289,77.66443180208334,78.46721736458333,42.0,80.0
290,77.88437305208333,78.54786248958334,49.0,75.0
291,78.54419680208333,79.09954845833335,54.0,80.0
292,78.54419680208333,79.13437248958334,57.0,83.0
293,78.54419680208333,79.28099998958334,61.0,83.0
294,79.86384430208334,80.18275911458333,57.0,89.0
295,80.30372680208333,80.53283227083334,57.0,85.0
296,79.42396180208334,80.54016364583333,50.0,84.0
297,80.30372680208333,80.82242158333334,62.0,85.0
298,80.74360930208334,81.02953292708334,57.0,79.0
299,80.96355055208333,81.24214280208334,62.0,80.0
300,81.62337430208333,82.14206908333334,47.0,79.0
301,81.18349180208334,82.15673183333334,40.0,84.0
302,82.06325680208334,82.29052942708334,52.0,85.0
303,82.06325680208334,82.42799270833333,56.0,76.0
304,82.06325680208334,82.46098389583334,59.0,80.0
305,81.18349180208334,82.51047067708333,64.0,85.0
306,82.94302180208334,83.46354942708334,57.0,82.0
307,82.94302180208334,83.57718573958334,61.0,85.0
308,83.38290430208335,83.90343192708335,52.0,79.0
309,83.82278680208334,84.06288933333335,57.0,87.0
310,83.82278680208334,84.12703886458334,61.0,100.0
311,84.48261055208334,84.55225861458334,61.0,75.0
312,84.26266930208334,84.55775714583334,57.0,84.0
313,84.04272805208333,84.56875420833335,52.0,86.0
314,82.94302180208334,84.57975127083334,45.0,85.0
315,84.48261055208334,84.64390080208334,64.0,84.0
316,84.70255180208333,85.16442842708334,57.0,82.0
317,84.70255180208333,85.16809411458334,69.0,86.0
318,84.70255180208333,85.18092402083334,61.0,83.0
319,84.70255180208333,85.21758089583334,64.0,84.0
320,85.36237555208334,85.49067461458334,57.0,84.0
321,85.14243430208334,85.71978008333335,52.0,84.0
322,85.58231680208334,85.80958942708334,57.0,93.0
323,85.58231680208334,85.82241933333334,61.0,101.0
324,85.58231680208334,85.82608502083335,64.0,98.0
325,84.70255180208333,85.89206739583334,45.0,88.0
326,85.80225805208335,85.93972133333334,52.0,84.0
327,86.02219930208334,86.13766845833334,45.0,87.0
328,86.46208180208333,86.66369461458333,54.0,84.0
329,86.46208180208333,86.73150983333333,57.0,85.0
330,86.46208180208333,86.95694961458334,61.0,84.0
331,86.90196430208334,87.19521930208334,54.0,85.0
332,87.12190555208335,87.22637764583334,57.0,79.0
333,87.34206238541668,87.41191525208335,57.0,84.0
334,87.34206238541668,87.67478261875002,66.0,90.0
335,87.34206238541668,87.80345895208335,54.0,78.0
336,87.78323838541668,88.05345868541667,61.0,87.0
337,86.46208180208333,88.09389981875,42.0,91.0
338,86.68202305208334,88.14904681875001,49.0,73.0
339,88.00382638541667,88.17662031875001,54.0,86.0
340,88.22441438541668,88.50934055208334,54.0,72.0
341,88.22441438541668,88.56081108541667,61.0,74.0
342,88.22441438541668,88.69867858541667,57.0,85.0
343,88.88617838541667,89.00566355208335,54.0,81.0
344,88.66559038541668,89.22073685208335,49.0,80.0
345,89.10676638541668,89.35125141875001,54.0,89.0
346,89.10676638541668,89.35125141875001,57.0,88.0
347,89.10676638541668,89.38066315208334,61.0,85.0
348,88.22441438541668,89.38433961875,42.0,90.0
349,89.32735438541667,89.45786895208334,49.0,79.0
350,89.10676638541668,89.48544245208335,66.0,86.0
351,89.98911838541667,90.22808871875,61.0,87.0
352,89.98911838541667,90.41007381875,64.0,88.0
353,90.43029438541667,90.68580881875,61.0,79.0
354,90.65088238541668,90.72808818541668,64.0,74.0
355,90.20970638541668,90.97257321875001,56.0,75.0
356,90.87147038541667,91.13066128541668,61.0,91.0
357,89.98911838541667,91.14169068541668,49.0,93.0
358,90.87147038541667,91.19867591875001,68.0,95.0
359,90.87147038541667,91.20051415208334,64.0,100.0
360,91.09205838541668,91.25566115208335,56.0,75.0
361,91.31264638541667,91.59573431875,61.0,84.0
362,91.75382238541667,92.25566008541668,61.0,83.0
363,91.75382238541667,92.28507181875001,64.0,85.0
364,92.41558638541667,92.49463041875,61.0,75.0
365,92.19499838541668,92.68764491875001,56.0,80.0
366,91.75382238541667,92.79426245208334,49.0,88.0
367,92.63617438541668,92.89352705208334,61.0,93.0
368,92.63617438541668,92.93212995208334,64.0,98.0
369,92.63617438541668,92.96337991875001,68.0,84.0
370,92.85676238541667,92.97440931875,56.0,84.0
371,93.07735038541668,93.16926205208334,61.0,88.0
372,93.51852638541668,93.77404081875001,66.0,84.0
373,93.51852638541668,93.80345255208334,62.0,84.0
374,93.95970238541668,94.48176065208334,45.0,72.0
375,94.40087838541668,94.55712821875001,57.0,85.0
376,93.51852638541668,94.68028985208335,38.0,88.0
377,94.40087838541668,94.73727508541667,62.0,87.0
378,94.40087838541668,94.75749565208335,66.0,85.0
379,94.62146638541668,94.75933388541668,45.0,85.0
380,94.84205438541667,94.95602485208335,57.0,93.0
381,95.28323038541667,95.77403868541667,68.0,84.0
382,95.28323038541667,95.77587691875001,64.0,88.0
383,95.28323038541667,95.77955338541668,61.0,77.0
384,95.72440638541667,96.27955285208334,56.0,69.0
385,95.28323038541667,96.34205278541668,49.0,95.0
386,96.16558238541667,96.42109681875002,61.0,93.0
387,96.16558238541667,96.45050855208333,64.0,101.0
388,96.16558238541667,96.52219965208334,68.0,90.0
389,96.38617038541668,96.55344961875001,56.0,82.0
390,96.60675838541667,96.67661125208335,49.0,81.0
391,97.04793438541668,97.59388968541667,59.0,81.0
392,97.04793438541668,97.65271315208334,62.0,84.0
393,97.48911038541668,98.01668335208335,54.0,69.0
394,97.93028638541668,98.18763905208334,59.0,91.0
395,97.04793438541668,98.19683021875001,47.0,89.0
396,97.93028638541668,98.22256548541668,66.0,95.0
397,97.93028638541668,98.23727135208334,62.0,93.0
398,98.15087438541667,98.30896245208334,54.0,84.0
399,98.37146238541668,98.65822678541667,59.0,93.0
400,98.59205038541668,98.72440318541668,62.0,88.0
401,98.81263838541668,98.99278525208334,59.0,86.0
402,98.81263838541668,99.00197641875,64.0,93.0
403,99.25381438541667,99.39168188541667,52.0,87.0
404,99.03322638541667,99.53138761875002,47.0,80.0
405,99.47440238541668,99.73910798541668,56.0,89.0
406,99.47440238541668,99.75381385208334,52.0,88.0
407,99.47440238541668,99.76851971875001,59.0,90.0
408,99.69499038541667,100.00932828541667,47.0,86.0
409,98.81263838541668,100.14903401875002,40.0,90.0
410,99.91557838541668,100.14903401875002,52.0,98.0
411,100.13616638541667,100.26484271875,47.0,85.0
412,99.91557838541668,100.47623955208334,56.0,105.0
413,99.91557838541668,100.54241595208335,59.0,95.0
414,100.35675438541668,100.55160711875001,52.0,100.0
415,99.91557838541668,100.59388648541668,64.0,93.0
416,100.57734238541667,101.16557705208334,57.0,86.0
417,100.57734238541667,101.17292998541667,62.0,88.0
418,101.01851838541668,101.52403255208334,45.0,76.0
419,101.45969438541668,101.66925298541668,57.0,87.0
420,100.57734238541667,101.74645878541668,38.0,95.0
421,101.45969438541668,101.75932641875,62.0,93.0
422,101.68028238541667,101.77954698541667,45.0,86.0
423,101.45969438541668,101.83653221875001,66.0,90.0
424,101.90087038541668,102.01851731875001,57.0,91.0
425,102.34204638541668,102.84939878541668,68.0,79.0
426,102.34204638541668,102.90822225208335,64.0,86.0
427,102.34204638541668,102.92476635208334,61.0,84.0
428,102.78322238541668,103.31079535208335,56.0,68.0
429,102.34204638541668,103.35675118541667,49.0,98.0
430,103.22439838541668,103.42844228541668,61.0,98.0
431,103.22439838541668,103.43395698541667,64.0,105.0
432,103.22439838541668,103.44682461875001,68.0,90.0
433,103.44498638541668,103.59388328541668,56.0,93.0
434,103.66557438541668,103.75564781875,49.0,85.0
435,104.10675038541667,104.25748551875,57.0,82.0
436,104.10675038541667,104.39902948541668,62.0,84.0
437,104.10675038541667,104.56079401875002,66.0,84.0
438,104.32733838541668,104.69498505208334,57.0,79.0
439,104.54792638541667,104.77402908541667,62.0,74.0
440,104.98910238541667,105.19130805208334,57.0,86.0
441,104.10675038541667,105.36777845208334,50.0,91.0
442,104.98910238541667,105.43395485208335,62.0,90.0
443,104.98910238541667,105.46520481875001,66.0,91.0
444,105.43027838541667,105.59204291875001,57.0,89.0
445,105.87145438541668,106.75380638541668,39.0,64.0
446,105.87145438541668,107.52218791875,69.0,77.0
447,105.87145438541668,107.52954085208334,66.0,80.0
448,105.87145438541668,107.61042311875,63.0,75.0
449,107.57182021875,108.26115771875001,66.0,78.0
450,107.57365845208335,108.29608415208334,59.0,78.0
451,108.03137855208334,108.70049548541668,54.0,56.0
452,108.50931921875001,108.78873068541668,59.0,85.0
453,108.51115745208334,108.90086291875001,62.0,84.0
454,108.96336285208335,109.02034808541669,59.0,65.0
455,108.50748098541668,109.09020095208334,66.0,85.0
456,109.36961241875001,109.66005328541668,59.0,83.0
457,109.37145065208334,109.69130325208334,62.0,78.0
458,110.25196441875,110.47806711875,59.0,85.0
459,107.57917315208334,110.58836111875002,47.0,84.0
460,110.25380265208335,110.58836111875002,62.0,89.0
461,110.24093501875001,110.76483151875001,66.0,86.0
462,110.70784628541668,110.92659605208334,59.0,72.0
463,111.15086051875001,111.37512498541668,59.0,79.0
464,111.14902228541668,111.50196308541668,64.0,80.0
465,111.16556638541668,111.50196308541668,64.0,85.0
466,111.16556638541668,111.66740408541668,52.0,83.0
467,112.04791838541668,112.21519761875001,56.0,86.0
468,112.04791838541668,112.23725641875001,59.0,87.0
469,111.60674238541668,112.53688845208335,47.0,74.0
470,111.14718405208335,112.57732958541668,40.0,84.0
471,111.16556638541668,112.57732958541668,40.0,86.0
472,112.48909438541668,112.81262345208334,52.0,90.0
473,112.93027038541668,113.41924045208334,56.0,86.0
474,112.93027038541668,113.43210808541667,52.0,89.0
475,112.93027038541668,113.48909331875001,59.0,85.0
476,113.59203438541668,113.89901935208334,52.0,89.0
477,113.59203438541668,113.90085758541667,57.0,84.0
478,113.37144638541668,114.42843055208334,47.0,73.0
479,114.25379838541667,114.55343041875001,59.0,90.0
480,114.25379838541667,114.60306271875001,52.0,93.0
481,114.69497438541669,115.05159165208335,47.0,74.0
482,114.91556238541668,115.18394445208335,52.0,91.0
483,114.91556238541668,115.22254735208334,61.0,86.0
484,115.57732638541668,115.82916435208334,52.0,86.0
485,115.57732638541668,115.83467905208335,62.0,88.0
486,115.13615038541667,116.33467851875001,47.0,66.0
487,116.01850238541668,116.36776671875,52.0,98.0
488,116.01850238541668,116.38247258541668,64.0,95.0
489,112.93027038541668,116.47438425208334,40.0,88.0
490,116.45967838541668,116.98725135208335,64.0,84.0
491,116.45967838541668,117.03872188541668,57.0,78.0
492,116.90085438541668,117.51114785208334,52.0,80.0
493,117.34203038541668,117.81997105208335,57.0,80.0
494,117.34203038541668,117.88982391875001,61.0,85.0
495,116.45967838541668,117.90452978541668,45.0,84.0
496,117.34203038541668,118.11592661875001,64.0,87.0
497,117.78320638541668,118.11776485208334,52.0,84.0
498,118.00379438541668,118.14901481875,57.0,84.0
499,118.22438238541667,118.70416128541667,59.0,84.0
500,118.22438238541667,118.75930828541668,62.0,78.0
501,118.88614638541668,119.01849918541667,59.0,85.0
502,118.66555838541667,119.24092541875001,54.0,80.0
503,119.10673438541667,119.54055745208333,62.0,90.0
504,118.22438238541667,119.60489561875002,47.0,88.0
505,119.10673438541667,119.63430735208334,59.0,86.0
506,119.54791038541669,119.96151288541668,54.0,81.0
507,119.98908638541667,120.32180661875,64.0,85.0
508,119.98908638541667,120.33835071875001,61.0,84.0
509,120.43026238541668,120.93026185208335,56.0,78.0
510,120.87143838541668,121.05526171875002,61.0,79.0
511,119.98908638541667,121.11592341875001,49.0,90.0
512,121.09202638541669,121.27584971875001,56.0,90.0
513,120.87143838541668,121.39901135208333,68.0,93.0
514,121.31261438541668,121.52033475208334,61.0,86.0
515,121.75379038541668,122.00930481875001,57.0,77.0
516,121.75379038541668,122.21334871875001,62.0,73.0
517,122.19496638541668,122.53871601875001,57.0,84.0
518,122.41555438541667,122.56445128541668,62.0,79.0
519,122.63614238541668,123.04239195208334,64.0,93.0
520,121.75379038541668,123.11224481875001,50.0,85.0
521,123.07731838541667,123.16555358541667,62.0,80.0
522,123.51849438541669,123.76297941875,57.0,80.0
523,123.51849438541669,123.97437625208335,61.0,78.0
524,123.95967038541667,124.10672905208335,57.0,80.0
525,124.18025838541668,124.52400801875001,59.0,77.0
526,123.73908238541668,124.78687538541668,52.0,79.0
527,124.62143438541668,124.79055185208335,57.0,80.0
528,124.62143438541668,124.89349291875001,61.0,87.0
529,123.51849438541669,125.04055158541668,45.0,85.0
530,124.84202238541667,125.19312495208334,52.0,84.0
531,125.28319838541668,125.62143331875001,62.0,83.0
532,125.28319838541668,125.73172731875002,59.0,78.0
533,125.72437438541668,126.27952085208335,54.0,74.0
534,125.28319838541668,126.31260905208335,47.0,86.0
535,126.16555038541668,126.42106481875001,66.0,85.0
536,126.16555038541668,126.74091741875,59.0,85.0
537,127.04790238541668,127.77400455208334,61.0,82.0
538,127.04790238541668,127.77768101875,68.0,77.0
539,127.04790238541668,128.09201891875,37.0,84.0
540,127.48907838541668,128.11591595208336,44.0,85.0
541,127.70966638541668,128.19863645208335,64.0,86.0
542,128.1508423854167,128.41187151875002,61.0,85.0
543,128.3714303854167,128.53319491875,68.0,84.0
544,128.81260638541667,129.08098845208335,57.0,75.0
545,128.81260638541667,129.27951765208334,62.0,80.0
546,129.25378238541668,129.60488495208335,57.0,75.0
547,129.47437038541668,129.72437011875002,62.0,85.0
548,128.81260638541667,130.03870801875001,50.0,85.0
549,129.9155463854167,130.18209021875,57.0,84.0
550,129.9155463854167,130.23907545208334,64.0,84.0
551,130.13613438541668,130.30892831875002,62.0,84.0
552,130.5773103854167,131.07179515208335,59.0,79.0
553,130.5773103854167,131.2831919854167,62.0,84.0
554,131.01848638541668,131.45230945208334,54.0,72.0
555,131.23907438541667,131.79422085208336,59.0,85.0
556,131.90083838541668,132.04422058541667,54.0,80.0
557,130.5773103854167,132.07914701875,47.0,84.0
558,131.68025038541668,132.16370575208333,62.0,87.0
559,132.12142638541667,132.47804365208333,59.0,85.0
560,133.0037783854167,133.49826315208335,52.0,86.0
561,133.2243663854167,133.58649835208334,56.0,88.0
562,132.78319038541667,133.62142478541668,47.0,76.0
563,132.3420143854167,133.68208648541668,40.0,87.0
564,133.66554238541667,133.95782148541667,59.0,82.0
565,133.88613038541666,134.09017428541668,52.0,86.0
566,133.44495438541668,134.23907118541666,64.0,89.0
567,134.10671838541668,134.62693841875,45.0,89.0
568,134.54789438541667,134.8456881854167,57.0,86.0
569,134.7684823854167,134.88796755208335,61.0,85.0
570,134.32730638541668,134.98539391875002,52.0,82.0
571,135.20965838541667,135.65451085208335,52.0,82.0
572,134.98907038541668,135.70046668541667,44.0,85.0
573,135.4302463854167,135.80340775208333,56.0,85.0
574,135.6508343854167,135.84568711875002,59.0,78.0
575,136.31259838541666,136.47803938541668,57.0,79.0
576,136.31259838541666,136.63428921875,54.0,84.0
577,135.87142238541668,136.67656858541667,42.0,80.0
578,136.09201038541667,136.75745085208334,49.0,75.0
579,136.75377438541668,137.3107590854167,54.0,80.0
580,136.75377438541668,137.34568551875,57.0,83.0
581,136.75377438541668,137.49274418541668,61.0,83.0
582,138.0773023854167,138.39715498541668,57.0,89.0
583,138.51847838541667,138.74825755208334,57.0,85.0
584,137.63612638541667,138.7556104854167,50.0,84.0
585,138.51847838541667,139.03869841875002,62.0,85.0
586,138.95965438541668,139.24641878541667,57.0,79.0
587,139.18024238541668,139.45965385208336,62.0,80.0
588,139.84200638541668,140.36222641875003,47.0,79.0
589,139.40083038541667,140.37693228541667,40.0,84.0
590,140.2831823854167,140.51112331875,52.0,85.0
591,140.2831823854167,140.64899081875,56.0,76.0
592,140.2831823854167,140.68207901875002,59.0,80.0
593,139.40083038541667,140.73171131875,64.0,85.0
594,141.16553438541666,141.68759265208334,57.0,82.0
595,141.16553438541666,141.80156311875,61.0,85.0
596,141.60671038541668,142.12876865208335,52.0,79.0
597,142.0478863854167,142.28869495208335,57.0,87.0
598,142.0478863854167,142.35303311875,61.0,100.0
599,142.7096503854167,142.77950325208334,61.0,75.0
600,142.48906238541667,142.78501795208334,57.0,84.0
601,142.26847438541668,142.79604735208335,52.0,86.0
602,141.16553438541666,142.80707675208333,45.0,85.0
603,142.7096503854167,142.87141491875002,64.0,84.0
604,142.9302383854167,143.39347318541667,57.0,82.0
605,142.9302383854167,143.39714965208333,69.0,86.0
606,142.9302383854167,143.41001728541667,61.0,83.0
607,142.9302383854167,143.44678195208334,64.0,84.0
608,143.59200238541666,143.72067871875,57.0,84.0
609,143.37141438541667,143.95045788541668,52.0,84.0
610,143.81259038541668,144.04053131875003,57.0,93.0
611,143.81259038541668,144.05339895208334,61.0,101.0
612,143.81259038541668,144.05707541875,64.0,98.0
613,142.9302383854167,144.12325181875002,45.0,88.0
614,144.03317838541668,144.17104588541667,52.0,84.0
615,144.25376638541667,144.36957508541667,45.0,87.0
616,144.69494238541668,145.19310361875,64.0,84.0
617,144.69494238541668,145.22435358541668,57.0,77.0
618,145.1361183854167,145.65082371875002,52.0,73.0
619,145.57729438541668,145.7868529854167,57.0,84.0
620,145.57729438541668,145.99457335208334,61.0,90.0
621,145.57729438541668,146.05523505208333,64.0,87.0
622,144.69494238541668,146.06994091875,45.0,84.0
623,146.01847038541666,146.31994065208335,57.0,78.0
624,145.79788238541667,146.36222001875,52.0,79.0
625,146.23905838541668,146.39163175208336,61.0,90.0
626,146.45964638541668,146.83096951875,62.0,85.0
627,146.45964638541668,146.90633708541668,59.0,82.0
628,146.9008223854167,147.44493945208336,54.0,73.0
629,147.34199838541667,147.56993931875002,59.0,89.0
630,147.34199838541667,147.77765968541667,66.0,86.0
631,146.45964638541668,147.82913021875,47.0,85.0
632,147.5625863854167,147.82913021875,54.0,76.0
633,147.7831743854167,148.13060048541666,59.0,85.0
634,148.00376238541668,148.15633575208335,62.0,81.0
635,148.22435038541667,148.70045281875002,64.0,88.0
636,148.66552638541668,149.19677581875,56.0,72.0
637,148.22435038541667,149.55155485208334,49.0,88.0
638,149.10670238541667,149.63427535208336,61.0,79.0
639,149.54787838541668,149.6802311854167,56.0,85.0
640,149.10670238541667,149.8180986854167,68.0,83.0
641,149.76846638541667,149.86956921875003,61.0,84.0
642,149.9890543854167,150.27949525208334,57.0,73.0
643,149.9890543854167,150.54420085208335,62.0,80.0
644,150.43023038541668,150.71148008541667,57.0,82.0
645,150.87140638541666,150.97802391875,57.0,87.0
646,150.87140638541666,151.10670025208336,62.0,88.0
647,149.9890543854167,151.2022883854167,50.0,82.0
648,151.09199438541668,151.45780281875,57.0,85.0
649,151.31258238541668,151.54603801875,62.0,77.0
650,151.53317038541667,151.71699371875002,64.0,76.0
651,151.7537583854167,152.26662548541668,57.0,73.0
652,151.7537583854167,152.29236075208334,61.0,72.0
653,152.19493438541667,152.71515441875002,52.0,76.0
654,152.63611038541669,152.86956601875,57.0,85.0
655,151.7537583854167,153.04603641875002,45.0,85.0
656,152.63611038541669,153.07177168541668,61.0,91.0
657,152.63611038541669,153.1600068854167,64.0,88.0
658,153.0772863854167,153.35485961875003,57.0,83.0
659,152.85669838541668,153.38427135208335,52.0,82.0
660,153.29787438541666,153.46147715208335,61.0,86.0
661,153.51846238541668,153.96147661875,62.0,85.0
662,153.51846238541668,154.04052065208333,59.0,85.0
663,153.95963838541667,154.45963785208335,54.0,71.0
664,154.40081438541668,154.67103468541669,59.0,86.0
665,154.40081438541668,154.85669625208334,62.0,88.0
666,153.51846238541668,154.86956388541668,47.0,86.0
667,154.62140238541667,154.97618141875,54.0,79.0
668,154.8419903854167,155.18574001875,59.0,80.0
669,155.06257838541669,155.20228411875001,62.0,73.0
670,155.28316638541668,155.87691575208333,64.0,86.0
671,155.28316638541668,156.38242991875,49.0,83.0
672,155.72434238541666,156.39345931875002,56.0,73.0
673,156.16551838541668,156.41184165208335,61.0,95.0
674,156.16551838541668,156.69860605208333,64.0,90.0
675,156.6066943854167,156.75742951875003,61.0,75.0
676,157.04787038541667,157.20044375208334,37.0,77.0
677,157.04787038541667,157.30338481875003,64.0,84.0
678,157.04787038541667,157.30889951875002,68.0,77.0
679,157.04787038541667,157.31441421875002,61.0,74.0
680,157.9302223854167,158.15264861875,50.0,84.0
681,157.9302223854167,158.19676621875,62.0,80.0
682,158.15081038541666,158.64345691875002,61.0,98.0
683,158.15081038541666,158.68941275208334,49.0,89.0
684,158.81257438541667,159.43757371875,62.0,85.0
685,158.81257438541667,159.44492665208335,59.0,82.0
686,159.25375038541668,159.78499981875,54.0,74.0
687,159.6949263854167,159.93757318541668,59.0,86.0
688,159.6949263854167,159.98720548541667,62.0,93.0
689,159.6949263854167,160.02397015208334,66.0,86.0
690,159.91551438541669,160.05705835208335,54.0,83.0
691,158.81257438541667,160.06624951875,47.0,86.0
692,160.13610238541668,160.52396961875002,59.0,85.0
693,160.3566903854167,160.5938224854167,62.0,85.0
694,160.57727838541666,160.99639558541668,64.0,84.0
695,161.01845438541667,161.40632161875,52.0,86.0
696,161.23904238541667,161.48352741875001,56.0,80.0
697,160.79786638541668,161.51110091875,47.0,73.0
698,160.57727838541666,161.91183578541668,40.0,85.0
699,161.68021838541668,161.9669827854167,47.0,78.0
700,161.4596303854167,162.15080611875,59.0,88.0
701,161.90080638541667,162.23536485208336,52.0,85.0
702,162.1213943854167,162.36404118541668,56.0,73.0
703,162.34198238541669,162.88426121875,45.0,86.0
704,163.00374638541666,163.2022755854167,61.0,85.0
705,162.7831583854167,163.25006965208337,57.0,87.0
706,162.56257038541668,163.31440781875,52.0,77.0
707,163.44492238541667,163.74087795208334,52.0,82.0
708,163.22433438541668,163.79051025208335,44.0,86.0
709,163.66551038541667,163.92286305208336,56.0,87.0
710,163.8860983854167,164.15448045208336,59.0,82.0
711,164.10668638541668,164.79602388541667,42.0,85.0
712,164.32727438541667,164.82911208541668,49.0,75.0
713,164.5478623854167,164.88609731875002,54.0,77.0
714,164.76845038541668,165.02028835208336,57.0,72.0
715,165.2096263854167,165.68021411875003,47.0,73.0
716,164.98903838541668,165.69308175208334,40.0,87.0
717,165.43021438541666,165.88058155208336,52.0,84.0
718,165.65080238541668,165.88609625208335,56.0,77.0
719,166.3125663854167,166.6213895854167,50.0,81.0
720,166.53315438541668,166.67102188541668,54.0,79.0
721,166.09197838541667,166.90080105208335,45.0,70.0
722,166.75374238541667,167.1342566854167,50.0,85.0
723,166.75374238541667,167.17469781875002,54.0,79.0
724,166.75374238541667,167.19491838541668,57.0,81.0
725,165.87139038541667,167.29785945208334,38.0,86.0
726,166.75374238541667,167.29785945208334,62.0,85.0
727,167.19491838541668,167.50190335208333,45.0,75.0
728,167.6360943854167,168.21697611875,56.0,69.0
729,167.6360943854167,168.32359365208333,59.0,78.0
730,167.6360943854167,168.59565218541667,52.0,79.0
731,168.07727038541668,168.64712271875,47.0,69.0
732,167.6360943854167,168.67653445208333,40.0,85.0
733,168.51844638541667,168.82543135208334,56.0,86.0
734,168.51844638541667,168.90631361875,59.0,85.0
735,168.51844638541667,169.00006351875,64.0,85.0
736,169.4007983854167,170.02212125208337,61.0,72.0
737,169.4007983854167,170.12138585208334,57.0,74.0
738,169.84197438541668,170.40079731875,52.0,74.0
739,170.28315038541666,170.65631175208335,57.0,80.0
740,170.28315038541666,170.74270871875,61.0,85.0
741,169.4007983854167,170.90814971875,45.0,83.0
742,170.7243263854167,170.97800258541668,52.0,76.0
743,170.94491438541667,171.05153191875002,57.0,68.0
744,171.1655023854167,171.60300191875,57.0,86.0
745,171.1655023854167,171.60300191875,61.0,89.0
746,171.8272663854167,171.9375603854167,57.0,84.0
747,171.60667838541667,172.10483961875002,52.0,84.0
748,172.04785438541668,172.2905011854167,57.0,91.0
749,172.04785438541668,172.32726585208334,61.0,105.0
750,172.04785438541668,172.33645701875002,64.0,100.0
751,171.1655023854167,172.84932411875002,45.0,89.0
752,172.26844238541668,172.88976525208335,52.0,95.0
753,172.70961838541666,172.89527995208334,61.0,101.0
754,172.70961838541666,172.90998581875002,64.0,86.0
755,172.4890303854167,172.93388285208334,57.0,88.0
756,172.93020638541668,172.93388285208334,57.0,85.0
757,172.93020638541668,173.13241205208334,54.0,84.0
758,172.93020638541668,173.4265293854167,61.0,84.0
759,173.37138238541667,173.66549971875003,54.0,85.0
760,173.5919703854167,173.69674968541668,57.0,79.0
761,173.81255838541668,173.88241125208333,57.0,84.0
762,173.81255838541668,174.14527861875,66.0,90.0
763,173.81255838541668,174.27395495208333,54.0,78.0
764,174.2537343854167,174.5239546854167,61.0,87.0
765,172.93020638541668,174.56439581875003,42.0,91.0
766,173.1507943854167,174.61954281875,49.0,73.0
767,174.47432238541668,174.64711631875002,54.0,86.0
768,174.69491038541668,174.97983655208333,54.0,72.0
769,174.69491038541668,175.0313070854167,61.0,74.0
770,174.69491038541668,175.16917458541667,57.0,85.0
771,175.35667438541668,175.47615955208335,54.0,81.0
772,175.13608638541666,175.69123285208335,49.0,80.0
773,175.5772623854167,175.82174741875002,54.0,89.0
774,175.5772623854167,175.82174741875002,57.0,88.0
775,175.5772623854167,175.85115915208337,61.0,85.0
776,174.69491038541668,175.85483561875003,42.0,90.0
777,175.79785038541667,175.92836495208334,49.0,79.0
778,175.5772623854167,175.95593845208333,66.0,86.0
779,176.45961438541667,176.69858471875,61.0,87.0
780,176.45961438541667,176.88056981875002,64.0,88.0
781,176.90079038541668,177.15630481875002,61.0,79.0
782,177.12137838541668,177.19858418541668,64.0,74.0
783,176.6802023854167,177.44306921875,56.0,75.0
784,177.3419663854167,177.60115728541666,61.0,91.0
785,176.45961438541667,177.6121866854167,49.0,93.0
786,177.3419663854167,177.66917191875,68.0,95.0
787,177.3419663854167,177.67101015208334,64.0,100.0
788,177.56255438541666,177.72615715208335,56.0,75.0
789,177.78314238541668,178.06623031875,61.0,84.0
790,178.22431838541667,178.72615608541668,61.0,83.0
791,178.22431838541667,178.75556781875002,64.0,85.0
792,178.88608238541667,178.96512641875,61.0,75.0
793,178.66549438541668,179.15814091875,56.0,80.0
794,178.22431838541667,179.26475845208336,49.0,88.0
795,179.1066703854167,179.36402305208335,61.0,93.0
796,179.1066703854167,179.40262595208335,64.0,98.0
797,179.1066703854167,179.43387591875,68.0,84.0
798,179.32725838541668,179.44490531875002,56.0,84.0
799,179.54784638541668,179.63975805208335,61.0,88.0
800,179.9890223854167,180.24453681875002,66.0,84.0
801,179.9890223854167,180.27394855208337,62.0,84.0
802,180.4301983854167,180.95225665208335,45.0,72.0
803,180.8713743854167,181.02762421875002,57.0,85.0
804,179.9890223854167,181.15078585208335,38.0,88.0
805,180.8713743854167,181.20777108541668,62.0,87.0
806,180.8713743854167,181.22799165208335,66.0,85.0
807,181.09196238541668,181.22982988541668,45.0,85.0
808,181.31255038541667,181.42652085208334,57.0,93.0
809,181.75372638541668,182.24453468541668,68.0,84.0
810,181.75372638541668,182.24637291875,64.0,88.0
811,181.75372638541668,182.25004938541667,61.0,77.0
812,182.1949023854167,182.75004885208335,56.0,69.0
813,181.75372638541668,182.81254878541668,49.0,95.0
814,182.63607838541668,182.89159281875,61.0,93.0
815,182.63607838541668,182.92100455208333,64.0,101.0
816,182.63607838541668,182.99269565208334,68.0,90.0
817,182.8566663854167,183.02394561875002,56.0,82.0
818,183.07725438541667,183.14710725208334,49.0,81.0
819,183.51843038541668,184.06438568541668,59.0,81.0
820,183.51843038541668,184.12320915208335,62.0,84.0
821,183.9596063854167,184.48717935208333,54.0,69.0
822,184.40078238541668,184.65813505208337,59.0,91.0
823,183.51843038541668,184.66732621875002,47.0,89.0
824,184.40078238541668,184.69306148541668,66.0,95.0
825,184.40078238541668,184.70776735208335,62.0,93.0
826,184.6213703854167,184.77945845208336,54.0,84.0
827,184.8419583854167,185.1287227854167,59.0,93.0
828,185.06254638541668,185.1948991854167,62.0,88.0
829,185.2831343854167,185.46328125208333,59.0,86.0
830,185.2831343854167,185.47247241875002,64.0,93.0
831,185.7243103854167,185.86217788541668,52.0,87.0
832,185.50372238541667,186.00188361875,47.0,80.0
833,185.94489838541668,186.20960398541666,56.0,89.0
834,185.94489838541668,186.22430985208337,52.0,88.0
835,185.94489838541668,186.23901571875,59.0,90.0
836,186.16548638541667,186.47982428541667,47.0,86.0
837,185.2831343854167,186.61953001875003,40.0,90.0
838,186.3860743854167,186.61953001875003,52.0,98.0
839,186.60666238541668,186.73533871875003,47.0,85.0
840,186.3860743854167,186.94673555208334,56.0,105.0
841,186.3860743854167,187.01291195208336,59.0,95.0
842,186.82725038541668,187.02210311875,52.0,100.0
843,186.3860743854167,187.06438248541667,64.0,93.0
844,187.0478383854167,187.63607305208336,57.0,86.0
845,187.0478383854167,187.64342598541668,62.0,88.0
846,187.48901438541668,187.99452855208335,45.0,76.0
847,187.93019038541667,188.1397489854167,57.0,87.0
848,187.0478383854167,188.2169547854167,38.0,95.0
849,187.93019038541667,188.22982241875002,62.0,93.0
850,188.1507783854167,188.25004298541668,45.0,86.0
851,187.93019038541667,188.30702821875002,66.0,90.0
852,188.37136638541668,188.48901331875,57.0,91.0
853,188.8125423854167,189.3198947854167,68.0,79.0
854,188.8125423854167,189.37871825208333,64.0,86.0
855,188.8125423854167,189.39526235208336,61.0,84.0
856,189.25371838541668,189.78129135208334,56.0,68.0
857,188.8125423854167,189.8272471854167,49.0,98.0
858,189.6948943854167,189.89893828541668,61.0,98.0
859,189.6948943854167,189.9044529854167,64.0,105.0
860,189.6948943854167,189.91732061875,68.0,90.0
861,189.91548238541668,190.0643792854167,56.0,93.0
862,190.1360703854167,190.22614381875002,49.0,85.0
863,190.5772463854167,190.72798151875003,57.0,82.0
864,190.5772463854167,190.8695254854167,62.0,84.0
865,190.5772463854167,191.03129001875,66.0,84.0
866,190.79783438541668,191.16548105208335,57.0,79.0
867,191.01842238541667,191.24452508541668,62.0,74.0
868,191.45959838541668,191.66180405208337,57.0,86.0
869,190.5772463854167,191.83827445208334,50.0,91.0
870,191.45959838541668,191.90445085208336,62.0,90.0
871,191.45959838541668,191.93570081875004,66.0,91.0
872,191.9007743854167,192.06253891875002,57.0,89.0
873,192.34195038541668,193.22430238541668,39.0,64.0
874,192.34195038541668,193.99268391875,69.0,77.0
875,192.34195038541668,194.00003685208335,66.0,80.0
876,192.34195038541668,194.08091911875002,63.0,75.0
877,194.04231621875002,194.73165371875,66.0,78.0
878,194.04415445208335,194.76658015208335,59.0,78.0
879,194.50187455208334,195.17099148541666,54.0,56.0
880,194.97981521875002,195.25922668541668,59.0,85.0
881,194.98165345208335,195.37135891875002,62.0,84.0
882,195.43385885208335,195.49084408541668,59.0,65.0
883,194.9779769854167,195.56069695208333,66.0,85.0
884,195.84010841875002,196.1305492854167,59.0,83.0
885,195.84194665208335,196.16179925208337,62.0,78.0
886,196.72246041875002,196.94856311875003,59.0,85.0
887,194.04966915208337,197.05885711875,47.0,84.0
888,196.72429865208335,197.05885711875,62.0,89.0
889,196.71143101875003,197.23532751875,66.0,86.0
890,197.1783422854167,197.39709205208334,59.0,72.0
891,197.62135651875002,197.8456209854167,59.0,79.0
892,197.6195182854167,197.9724590854167,64.0,80.0
893,197.63606238541666,197.9724590854167,64.0,85.0
894,197.63606238541666,198.13790008541667,52.0,83.0
895,198.5184143854167,198.68569361875,56.0,86.0
896,198.5184143854167,198.70775241875003,59.0,87.0
897,198.07723838541668,199.00738445208333,47.0,74.0
898,197.61768005208336,199.0478255854167,40.0,84.0
899,197.63606238541666,199.0478255854167,40.0,86.0
900,198.95959038541667,199.28311945208335,52.0,90.0
901,199.4007663854167,199.88973645208335,56.0,86.0
902,199.4007663854167,199.90260408541667,52.0,89.0
903,199.4007663854167,199.95958931875003,59.0,85.0
904,200.06253038541666,200.36951535208334,52.0,89.0
905,200.06253038541666,200.37135358541667,57.0,84.0
906,199.8419423854167,200.89892655208337,47.0,73.0
907,200.72429438541667,201.02392641875002,59.0,90.0
908,200.72429438541667,201.07355871875,52.0,93.0
909,201.16547038541668,201.52208765208337,47.0,74.0
910,201.38605838541667,201.65444045208335,52.0,91.0
911,201.38605838541667,201.69304335208335,61.0,86.0
912,202.04782238541668,202.29966035208335,52.0,86.0
913,202.04782238541668,202.30517505208337,62.0,88.0
914,201.6066463854167,202.80517451875002,47.0,66.0
915,202.48899838541666,202.83826271875,52.0,98.0
916,202.48899838541666,202.8529685854167,64.0,95.0
917,199.4007663854167,202.94488025208335,40.0,88.0
918,202.93017438541668,203.45774735208335,64.0,84.0
919,202.93017438541668,203.5092178854167,57.0,78.0
920,203.3713503854167,203.98164385208335,52.0,80.0
921,203.81252638541667,204.29046705208336,57.0,80.0
922,203.81252638541667,204.36031991875,61.0,85.0
923,202.93017438541668,204.37502578541668,45.0,84.0
924,203.81252638541667,204.58642261875002,64.0,87.0
925,204.2537023854167,204.58826085208335,52.0,84.0
926,204.47429038541668,204.61951081875003,57.0,84.0
927,204.6948783854167,205.17465728541669,59.0,84.0
928,204.6948783854167,205.2298042854167,62.0,78.0
929,205.35664238541668,205.48899518541668,59.0,85.0
930,205.13605438541668,205.71142141875004,54.0,80.0
931,205.57723038541667,206.01105345208333,62.0,90.0
932,204.6948783854167,206.07539161875002,47.0,88.0
933,205.57723038541667,206.10480335208337,59.0,86.0
934,206.01840638541668,206.43200888541668,54.0,81.0
935,206.4595823854167,206.79230261875,64.0,85.0
936,206.4595823854167,206.80884671875003,61.0,84.0
937,206.90075838541668,207.40075785208336,56.0,78.0
938,207.34193438541666,207.52575771875001,61.0,79.0
939,206.4595823854167,207.58641941875,49.0,90.0
940,207.56252238541668,207.74634571875004,56.0,90.0
941,207.34193438541666,207.86950735208336,68.0,93.0
942,207.7831103854167,207.99083075208335,61.0,86.0
943,208.2242863854167,208.47980081875002,57.0,77.0
944,208.2242863854167,208.68384471875004,62.0,73.0
945,208.66546238541667,209.00921201875002,57.0,84.0
946,208.8860503854167,209.03494728541668,62.0,79.0
947,209.1066383854167,209.51288795208336,64.0,93.0
948,208.2242863854167,209.58274081875,50.0,85.0
949,209.5478143854167,209.63604958541669,62.0,80.0
950,209.98899038541668,210.23347541875,57.0,80.0
951,209.98899038541668,210.44487225208337,61.0,78.0
952,210.43016638541667,210.57722505208335,57.0,80.0
953,210.6507543854167,210.99450401875004,59.0,77.0
954,210.2095783854167,211.2573713854167,52.0,79.0
955,211.09193038541667,211.26104785208335,57.0,80.0
956,211.09193038541667,211.36398891875,61.0,87.0
957,209.98899038541668,211.5110475854167,45.0,85.0
958,211.3125183854167,211.66362095208336,52.0,84.0
959,211.75369438541668,212.09192931875003,62.0,83.0
960,211.75369438541668,212.20222331875001,59.0,78.0
961,212.19487038541666,212.75001685208335,54.0,74.0
962,211.75369438541668,212.78310505208336,47.0,86.0
963,212.6360463854167,212.89156081875,66.0,85.0
964,212.6360463854167,213.21141341875,59.0,85.0
965,213.51839838541667,214.24450055208337,61.0,82.0
966,213.51839838541667,214.24817701875003,68.0,77.0
967,213.51839838541667,214.56251491875003,37.0,84.0
968,213.9595743854167,214.58641195208335,44.0,85.0
969,214.18016238541668,214.66913245208335,64.0,86.0
970,214.62133838541666,214.88236751875002,61.0,85.0
971,214.84192638541668,215.00369091875,68.0,84.0
972,215.2831023854167,215.55148445208334,57.0,75.0
973,215.2831023854167,215.75001365208334,62.0,80.0
974,215.72427838541668,216.07538095208335,57.0,75.0
975,215.94486638541667,216.19486611875,62.0,85.0
976,215.2831023854167,216.50920401875,50.0,85.0
977,216.3860423854167,216.65258621875003,57.0,84.0
978,216.3860423854167,216.70957145208334,64.0,84.0
979,216.60663038541668,216.77942431875002,62.0,84.0
980,217.0478063854167,217.54229115208335,59.0,79.0
981,217.0478063854167,217.7536879854167,62.0,84.0
982,217.48898238541668,217.92280545208334,54.0,72.0
983,217.7095703854167,218.26471685208335,59.0,85.0
984,218.37133438541667,218.5147165854167,54.0,80.0
985,217.0478063854167,218.54964301875003,47.0,84.0
986,218.15074638541668,218.63420175208336,62.0,87.0
987,218.5919223854167,218.94853965208335,59.0,85.0
988,219.4742743854167,219.96875915208335,52.0,86.0
989,219.69486238541668,220.05699435208336,56.0,88.0
990,219.25368638541667,220.09192078541668,47.0,76.0
991,218.8125103854167,220.15258248541667,40.0,87.0
992,220.1360383854167,220.4283174854167,59.0,82.0
993,220.3566263854167,220.56067028541668,52.0,86.0
994,219.91545038541668,220.7095671854167,64.0,89.0
995,220.57721438541668,221.09743441875003,45.0,89.0
996,221.0183903854167,221.3161841854167,57.0,86.0
997,221.2389783854167,221.35846355208335,61.0,85.0
998,220.79780238541667,221.45588991875002,52.0,82.0
999,221.6801543854167,222.12500685208335,52.0,82.0
1000,221.45956638541668,222.1709626854167,44.0,85.0
1001,221.9007423854167,222.27390375208336,56.0,85.0
1002,222.12133038541668,222.31618311875002,59.0,78.0
1003,222.7830943854167,222.94853538541668,57.0,79.0
1004,222.7830943854167,223.10478521875,54.0,84.0
1005,222.34191838541668,223.14706458541667,42.0,80.0
1006,222.5625063854167,223.22794685208336,49.0,75.0
1007,223.22427038541667,223.7812550854167,54.0,80.0
1008,223.22427038541667,223.81618151875003,57.0,83.0
1009,223.22427038541667,223.96324018541668,61.0,83.0
1010,224.54779838541668,224.86765098541667,57.0,89.0
1011,224.9889743854167,225.21875355208334,57.0,85.0
1012,224.1066223854167,225.2261064854167,50.0,84.0
1013,224.9889743854167,225.50919441875,62.0,85.0
1014,225.43015038541668,225.7169147854167,57.0,79.0
1015,225.65073838541667,225.93014985208336,62.0,80.0
1016,226.31250238541668,226.83272241875002,47.0,79.0
1017,225.8713263854167,226.8474282854167,40.0,84.0
1018,226.7536783854167,226.98161931875,52.0,85.0
1019,226.7536783854167,227.11948681875,56.0,76.0
1020,226.7536783854167,227.15257501875,59.0,80.0
1021,225.8713263854167,227.20220731875003,64.0,85.0
1022,227.6360303854167,228.15808865208336,57.0,82.0
1023,227.6360303854167,228.27205911875,61.0,85.0
1024,228.07720638541667,228.59926465208335,52.0,79.0
1025,228.5183823854167,228.75919095208334,57.0,87.0
1026,228.5183823854167,228.82352911875003,61.0,100.0
1027,229.1801463854167,229.24999925208334,61.0,75.0
1028,228.9595583854167,229.25551395208336,57.0,84.0
1029,228.73897038541668,229.26654335208335,52.0,86.0
1030,227.6360303854167,229.27757275208336,45.0,85.0
1031,229.1801463854167,229.34191091875002,64.0,84.0
1032,229.40073438541668,229.8639691854167,57.0,82.0
1033,229.40073438541668,229.86764565208335,69.0,86.0
1034,229.40073438541668,229.8805132854167,61.0,83.0
1035,229.40073438541668,229.91727795208334,64.0,84.0
1036,230.0624983854167,230.19117471875,57.0,84.0
1037,229.8419103854167,230.42095388541668,52.0,84.0
1038,230.28308638541668,230.51102731875002,57.0,93.0
1039,230.28308638541668,230.52389495208334,61.0,101.0
1040,230.28308638541668,230.52757141875003,64.0,98.0
1041,229.40073438541668,230.59374781875002,45.0,88.0
1042,230.50367438541667,230.6415418854167,52.0,84.0
1043,230.7242623854167,230.8400710854167,45.0,87.0
1044,231.12315901875002,232.27021661875003,66.0,73.0
1045,231.0386002854167,232.28308425208334,62.0,73.0
1046,231.20036481875002,232.31065775208336,69.0,73.0
1047,231.09190905208337,232.39521648541668,38.0,84.0
1048,232.94668648541668,233.62131811875003,52.0,69.0
1049,233.01470111875003,234.0330823854167,56.0,78.0
1050,234.53308185208334,234.9871254854167,56.0,93.0
1051,233.43749478541667,235.50366905208335,47.0,67.0
1052,232.99264231875003,235.5551395854167,40.0,85.0
1053,233.97977361875002,236.25734471875003,52.0,84.0
1054,233.08455398541668,236.27205058541668,59.0,69.0
1055,235.07536068541668,236.72057951875001,64.0,84.0
1056,236.4595503854167,238.01469578541668,45.0,84.0
1057,236.90072638541668,238.0643280854167,52.0,65.0
1058,237.78307838541667,238.22793085208335,61.0,70.0
1059,237.56249038541668,238.25182788541667,64.0,73.0
1060,238.0036663854167,238.27021021875,57.0,85.0
1061,237.3419023854167,238.40991595208337,69.0,84.0
1062,239.10660638541668,239.46322365208334,71.0,86.0
1063,239.5477823854167,239.92462021875002,62.0,77.0
1064,239.32719438541668,239.93381138541667,66.0,74.0
1065,239.7683703854167,239.9834436854167,59.0,79.0
1066,238.22425438541669,240.03307598541667,47.0,85.0
1067,238.6654303854167,240.03675245208336,54.0,73.0
1068,239.98895838541668,241.5441037854167,45.0,84.0
1069,240.4301343854167,241.59373608541668,52.0,65.0
1070,241.3124863854167,241.75733885208336,61.0,70.0
1071,241.0918983854167,241.7812358854167,64.0,73.0
1072,241.53307438541668,241.79961821875003,57.0,85.0
1073,240.87131038541668,241.93932395208336,69.0,84.0
1074,242.6360143854167,242.99263165208336,71.0,86.0
1075,243.07719038541669,243.45402821875,62.0,77.0
1076,242.8566023854167,243.4632193854167,66.0,74.0
1077,243.29777838541668,243.51285168541668,59.0,79.0
1078,241.75366238541667,243.5624839854167,47.0,85.0
1079,242.1948383854167,243.56616045208335,54.0,73.0
1080,243.5183663854167,245.07351178541668,45.0,84.0
1081,243.95954238541668,245.1231440854167,52.0,65.0
1082,244.84189438541668,245.28674685208335,61.0,70.0
1083,244.6213063854167,245.31064388541668,64.0,73.0
1084,245.0624823854167,245.32902621875002,57.0,85.0
1085,244.4007183854167,245.46873195208335,69.0,84.0
1086,246.1654223854167,246.52203965208335,71.0,86.0
1087,246.60659838541667,246.98343621875003,62.0,77.0
1088,246.38601038541668,246.99262738541668,66.0,74.0
1089,246.8271863854167,247.0422596854167,59.0,79.0
1090,247.04042145208336,247.0422596854167,59.0,78.0
1091,245.2830703854167,247.09189198541668,47.0,85.0
1092,245.72424638541668,247.09556845208334,54.0,73.0
1093,247.0422596854167,247.29961235208336,56.0,71.0
1094,247.0477743854167,247.31431821875003,52.0,81.0
1095,247.04409791875003,247.32350938541668,64.0,80.0
1096,247.04593615208336,247.4117445854167,40.0,88.0
1097,247.5165238854167,248.68380205208337,52.0,83.0
1098,247.50917095208337,248.81431661875,56.0,76.0
1099,247.50549448541668,248.85659598541667,59.0,80.0
1100,247.5110091854167,248.85659598541667,64.0,83.0
1101,247.51468565208336,250.49997658541668,40.0,86.0
1102,248.89887535208337,250.51468245208335,47.0,72.0
1103,248.87130185208335,250.68379991875003,52.0,80.0
1104,248.9448311854167,250.7371086854167,56.0,74.0
1105,249.03122815208334,250.77387335208334,59.0,73.0
1106,249.06247811875002,250.93012318541668,64.0,79.0
1107,253.02387095208334,253.59556151875003,59.0,82.0
1108,253.54776745208335,253.99261991875002,61.0,86.0
1109,254.15989915208334,254.31798721875003,64.0,85.0
1110,254.16909031875002,254.34739895208335,57.0,71.0
1111,254.6746044854167,254.7959278854167,57.0,51.0
1112,254.7959278854167,254.92644245208336,69.0,85.0
1113,255.42828015208335,255.62497111875,69.0,64.0
1114,255.56063295208335,255.7168827854167,76.0,75.0
1115,256.14886761875005,256.24445575208335,69.0,72.0
1116,256.20585285208335,256.28673511875,76.0,78.0
1117,256.27570571875003,256.38048501875005,81.0,80.0
1118,257.08452838541666,257.17460181875003,88.0,69.0
1119,257.14151361875,257.2426164520833,93.0,73.0
1120,252.49997445208336,257.86761578541666,52.0,73.0
1121,252.06247491875,257.89335105208335,45.0,86.0
