,start,end,pitch,velocity
0,44.889023125,45.128942,71.0,86.0
1,45.130958125,45.6118039375,79.0,93.0
2,45.614828125,45.853738937500005,79.0,95.0
3,45.856763125,46.580552000000004,79.0,90.0
4,46.582568125,47.064422,78.0,100.0
5,47.066438125000005,47.548292000000004,76.0,94.0
6,47.550308125,48.05232325,79.0,99.0
7,48.034178125000004,48.7670395625,78.0,106.0
8,48.759983125000005,51.419252,74.0,85.0
9,51.421268125000005,51.695461125,71.0,90.0
10,51.663203125,51.9404203125,74.0,91.0
11,51.905138125,53.8375939375,76.0,100.0
12,53.840618125000006,54.324488125,76.0,100.0
13,54.324488125,54.608761750000006,74.0,97.0
14,54.566423125,55.05230925,72.0,71.0
15,55.050293125,55.532147,74.0,87.0
16,55.534163125000006,57.727707125,71.0,92.0
17,60.372863125,60.612782,71.0,90.0
18,60.61479812500001,61.0956439375,79.0,93.0
19,61.098668125,61.337578937500005,79.0,99.0
20,61.340603125,62.086569375,79.0,98.0
21,62.187375625,62.676285937500005,78.0,97.0
22,62.550278125000006,63.032132000000004,76.0,90.0
23,63.034148125,63.516002,79.0,96.0
24,63.518018125000005,64.483742,78.0,100.0
25,64.485758125,64.95853943750001,83.0,95.0
26,64.969628125,66.8627695,78.0,100.0
27,66.905108125,67.3153895625,71.0,87.0
28,67.14704312500001,67.5109536875,74.0,91.0
29,67.38897812500001,68.89099125,76.0,100.0
30,68.961555625,69.33756293750001,76.0,92.0
31,69.324458125,69.8234490625,79.0,89.0
32,69.808328125,70.048247,78.0,92.0
33,70.050263125,70.774052,76.0,93.0
34,70.77606812500001,71.300260625,74.0,100.0
35,71.259938125,74.61779431250001,76.0,106.0
36,74.647028125,75.18505656250001,74.0,111.0
37,75.17800012500001,75.92295831250001,76.0,106.0
38,75.903805125,78.079204,83.0,108.0
39,78.08122012500002,78.56307400000001,81.0,108.0
40,78.56509012500001,79.08323425000002,79.0,108.0
41,79.04896012500001,81.95016400000002,81.0,101.0
42,81.95218012500001,82.43403400000001,79.0,109.0
43,82.43605012500001,82.91790400000001,78.0,114.0
44,82.919920125,84.36951400000001,76.0,114.0
45,84.371530125,84.853384,79.0,101.0
46,84.85540012500002,86.42596150000001,78.0,114.0
47,86.307010125,87.10741175000001,74.0,109.0
48,87.27475012500001,90.29692150000001,71.0,100.0
49,90.17797012500002,90.65982400000001,74.0,109.0
50,90.66184012500001,91.63663656250002,76.0,109.0
51,91.62958012500002,93.56304400000002,83.0,105.0
52,93.56506012500002,94.04691400000002,81.0,108.0
53,94.04893012500001,94.53481625,79.0,100.0
54,94.53280012500001,95.49852400000002,81.0,103.0
55,95.50054012500001,96.46626400000001,86.0,109.0
56,96.468280125,97.91787400000001,83.0,101.0
57,97.91989012500001,98.18702668750001,76.0,105.0
58,98.16182512500001,98.44206650000001,78.0,93.0
59,98.40376012500002,100.33722400000002,79.0,109.0
60,100.33924012500002,101.09125475000002,81.0,109.0
61,101.06504512500001,101.78883400000001,79.0,101.0
62,101.79085012500002,102.27673625000001,81.0,100.0
63,102.27472012500002,105.12753700000002,83.0,108.0
64,105.17794012500002,105.659794,76.0,100.0
65,105.66181012500002,106.19205100000002,78.0,100.0
66,106.14568012500001,107.11946850000001,79.0,97.0
67,107.113420125,108.07914400000001,83.0,111.0
68,108.08116012500001,110.01462400000001,81.0,109.0
69,110.01664012500001,110.53377618750001,79.0,108.0
70,110.500510125,110.98236400000002,78.0,106.0
71,110.98438012500002,111.47732268750002,79.0,97.0
72,111.46825012500001,111.96623300000002,81.0,98.0
73,111.95212012500002,112.91683593750001,79.0,108.0
74,112.91986012500001,113.427923625,79.0,105.0
75,113.40373012500001,113.88558400000002,78.0,103.0
76,113.887600125,114.85332400000001,76.0,100.0
77,114.85534012500001,115.88860418750002,79.0,106.0
78,115.82308012500002,117.27267400000002,78.0,101.0
79,117.274690125,117.75654400000002,74.0,97.0
80,117.75856012500002,120.65976400000002,71.0,98.0
81,120.661780125,121.14363400000002,76.0,114.0
82,121.14565012500002,121.67387487500002,78.0,103.0
83,121.62952012500001,122.59524400000001,79.0,106.0
84,122.59726012500002,123.57104850000002,83.0,97.0
85,123.56500012500001,125.49846400000001,81.0,114.0
86,125.50048012500002,125.98233400000001,79.0,105.0
87,125.98435012500002,126.466204,78.0,106.0
88,126.46822012500002,126.99241262500001,79.0,100.0
89,126.95209012500001,127.47225037500002,81.0,105.0
90,127.43596012500001,128.52164343750002,83.0,106.0
91,128.403700125,128.52164343750002,83.0,111.0
92,128.88757012500002,129.369424,79.0,106.0
93,129.37144012500002,130.821034,76.0,101.0
94,130.823050125,131.30490400000002,79.0,109.0
95,131.306920125,132.756514,78.0,105.0
96,132.75853012500002,133.7484475,74.0,94.0
97,133.726270125,137.11436818750002,76.0,101.0
98,167.59717012500002,168.08809656250003,74.0,111.0
99,168.08104012500002,168.82599831250002,76.0,106.0
100,168.927812625,171.10321150000001,83.0,108.0
101,170.98426012500002,171.466114,81.0,108.0
102,171.46813012500002,171.98627425,79.0,108.0
103,171.952000125,174.853204,81.0,101.0
104,174.85522012500002,175.33707400000003,79.0,109.0
105,175.339090125,175.820944,78.0,114.0
106,175.822960125,177.272554,76.0,114.0
107,177.27457012500003,177.75642400000004,79.0,101.0
108,177.75844012500002,179.208034,78.0,114.0
109,179.210050125,179.68686368750002,74.0,109.0
110,179.69392012500003,181.62133562500003,71.0,100.0
111,183.08101012500003,183.56286400000002,74.0,109.0
112,183.564880125,184.5396765625,76.0,109.0
113,184.53262012500002,186.46608400000002,83.0,105.0
114,186.46810012500003,186.94995400000002,81.0,108.0
115,186.951970125,187.43785625000004,79.0,100.0
116,187.43584012500003,188.401564,81.0,103.0
117,188.40358012500002,189.369304,86.0,109.0
118,189.371320125,190.82091400000002,83.0,101.0
119,190.82293012500003,191.0900666875,76.0,105.0
120,191.064865125,191.3451065,78.0,93.0
121,191.30680012500002,193.24026400000002,79.0,109.0
122,193.24228012500004,193.99429475000002,81.0,109.0
123,193.96808512500002,194.691874,79.0,101.0
124,194.69389012500002,195.17977625000003,81.0,100.0
125,195.17776012500002,198.078964,83.0,108.0
126,198.08098012500002,198.562834,76.0,100.0
127,198.56485012500002,199.09509100000002,78.0,100.0
128,199.04872012500002,200.02250850000001,79.0,97.0
129,200.01646012500004,200.98218400000002,83.0,111.0
130,200.98420012500003,202.917664,81.0,109.0
131,202.919680125,203.43681618750003,79.0,108.0
132,203.403550125,203.88540400000002,78.0,106.0
133,203.887420125,204.38036268750002,79.0,97.0
134,204.37129012500003,204.86927300000002,81.0,98.0
135,204.85516012500003,205.81987593750003,79.0,108.0
136,205.82290012500002,206.330963625,79.0,105.0
137,206.306770125,206.78862400000003,78.0,103.0
138,206.790640125,207.75636400000002,76.0,100.0
139,207.75838012500003,208.79164418750003,79.0,106.0
140,208.72612012500002,210.17571400000003,78.0,101.0
141,210.177730125,210.65958400000002,74.0,97.0
142,210.661600125,213.53054600000002,71.0,98.0
143,213.564820125,214.04667400000002,76.0,114.0
144,214.048690125,214.57691487500003,78.0,103.0
145,214.53256012500003,215.498284,79.0,106.0
146,215.50030012500002,216.47408850000002,83.0,97.0
147,216.46804012500002,218.40150400000002,81.0,114.0
148,218.40352012500003,218.885374,79.0,105.0
149,218.88739012500002,219.369244,78.0,106.0
150,219.37126012500002,219.89545262500002,79.0,100.0
151,219.85513012500002,220.37529037500002,81.0,105.0
152,220.339000125,221.3077481875,83.0,106.0
153,221.30674012500003,221.3077481875,83.0,111.0
154,221.79061012500003,222.272464,79.0,106.0
155,222.27448012500003,223.72407400000003,76.0,101.0
156,223.726090125,224.20794400000003,79.0,109.0
157,224.209960125,225.659554,78.0,105.0
158,225.66157012500003,226.25531893750002,74.0,94.0
159,226.26640762500003,229.53253012500002,76.0,101.0
160,229.04866012500003,229.53253012500002,76.0,100.0
161,229.53253012500002,230.01135981250002,78.0,100.0
162,230.01640012500002,230.99018850000002,79.0,97.0
163,230.984140125,231.94986400000002,83.0,111.0
164,231.95188012500003,233.88534400000003,81.0,109.0
165,233.88736012500001,234.40449618750003,79.0,108.0
166,234.371230125,234.85308400000002,78.0,106.0
167,234.855100125,235.34804268750003,79.0,97.0
168,235.33897012500003,235.83695300000002,81.0,98.0
169,235.82284012500003,236.78755593750003,79.0,108.0
170,236.79058012500002,237.298643625,79.0,105.0
171,237.27445012500002,237.75630400000003,78.0,103.0
172,237.758320125,238.72404400000002,76.0,100.0
173,238.72606012500003,239.68976787500003,79.0,106.0
174,239.69380012500002,241.14339400000003,78.0,101.0
175,241.145410125,241.99117456250002,86.0,97.0
176,241.99218262500003,244.51334693750002,83.0,127.0
177,245.016370125,245.25528093750003,76.0,114.0
178,245.25830512500002,245.50326431250002,78.0,103.0
179,245.50024012500003,246.465964,79.0,106.0
180,246.46798012500003,247.44176850000002,83.0,97.0
181,247.43572012500002,249.36918400000002,81.0,114.0
182,249.37120012500003,249.85305400000001,79.0,105.0
183,249.85507012500003,250.336924,78.0,106.0
184,250.33894012500002,250.86313262500002,79.0,100.0
185,250.82281012500002,251.34297037500002,81.0,105.0
186,251.306680125,254.30062575000002,83.0,106.0
187,256.024412625,256.6443710625,83.0,98.0
188,256.629250125,257.1443700625,79.0,99.0
189,257.113120125,258.562714,76.0,105.0
190,258.564730125,259.048600125,79.0,77.0
191,259.048600125,260.4044441875,78.0,99.0
192,260.500210125,261.00121718750006,74.0,98.0
193,260.984080125,263.87621143750005,76.0,91.0
194,263.887300125,264.3580653125,79.0,98.0
195,264.37117012500005,264.853024,78.0,99.0
196,264.855040125,265.82076400000005,76.0,99.0
197,265.822780125,266.79052012500006,79.0,101.0
198,266.79052012500006,267.514309,78.0,100.0
199,270.177610125,270.42256931250006,74.0,92.0
200,270.661480125,271.627204,76.0,92.0
