,start,end,pitch,velocity
0,3.44757375,4.0332580625,69.0,59.0
1,3.413299625,4.03628225,64.0,45.0
2,3.4707591875,4.062491875,71.0,63.0
3,3.57660575,4.1370885,76.0,45.0
4,5.3054329375,5.5332550625,76.0,39.0
5,5.336682875,6.054423375000001,81.0,42.0
6,5.403215,6.2469633125,83.0,46.0
7,5.4687390625,6.259060062500001,88.0,45.0
8,3.4747914375000004,6.773171937500001,52.0,48.0
9,7.6189363750000005,7.874984250000001,64.0,43.0
10,7.8679278125000005,8.058451625,69.0,60.0
11,7.389098125,8.2913140625,52.0,39.0
12,8.110870875,8.475789500000001,71.0,72.0
13,3.4677350000000002,8.679418125,40.0,50.0
14,9.324578125,9.806432000000001,60.0,78.0
15,9.324578125,9.851794812500001,64.0,85.0
16,9.324578125,9.8538109375,67.0,54.0
17,10.050383125,10.25401175,60.0,64.0
18,9.324578125,10.3790115,45.0,70.0
19,9.566513125,10.4163098125,52.0,59.0
20,9.808448125,10.4273985,57.0,59.0
21,10.292318125000001,10.445543625,67.0,91.0
22,10.776188125000001,12.0715484375,66.0,91.0
23,10.776188125000001,12.07658875,69.0,78.0
24,10.776188125000001,12.1098548125,62.0,78.0
25,10.776188125000001,12.2691286875,47.0,70.0
26,10.776188125000001,12.354814000000001,59.0,78.0
27,12.711668125000001,13.288279875,67.0,66.0
28,12.711668125000001,13.510053625000001,71.0,61.0
29,12.711668125000001,13.772149875,62.0,69.0
30,15.131018125,15.431420750000001,69.0,48.0
31,15.131018125,15.451582,78.0,63.0
32,15.372953125,15.506017375,79.0,64.0
33,15.614888125,15.755008812500002,74.0,63.0
34,15.131018125,15.87496825,64.0,46.0
35,15.856823125000002,15.996943812500001,69.0,56.0
36,16.098758125,16.2892819375,59.0,40.0
37,12.711668125000001,16.322548,52.0,73.0
38,16.340693125,16.4243623125,66.0,70.0
39,17.066498125000003,17.5775858125,69.0,70.0
40,17.066498125000003,17.60883575,64.0,70.0
41,17.066498125000003,17.686456562500002,60.0,69.0
42,17.429400625,18.128996,52.0,37.0
43,18.034238125,18.1763749375,60.0,72.0
44,17.792303125,18.208632937500003,57.0,49.0
45,17.066498125000003,18.2287941875,45.0,72.0
46,18.276173125,18.389076125000003,64.0,67.0
47,18.518108125,19.406211187500002,69.0,72.0
48,18.518108125,19.447541750000003,62.0,72.0
49,18.518108125,19.458630437500002,66.0,99.0
50,19.727783125000002,19.856815125,62.0,53.0
51,18.518108125,20.014072875,38.0,72.0
52,19.485848125,20.07657275,50.0,30.0
53,19.969718125,20.0836291875,66.0,101.0
54,20.453588125,20.9888693125,67.0,66.0
55,20.453588125,21.016087000000002,64.0,58.0
56,20.453588125,21.0271756875,71.0,62.0
57,20.453588125,21.862859500000003,59.0,64.0
58,21.663263125,22.087657437500003,64.0,63.0
59,22.147133125,22.406205187500003,59.0,36.0
60,22.631003125000003,23.16527625,64.0,64.0
61,23.114873125000003,23.6682994375,59.0,49.0
62,23.598743125000002,24.163258125000002,64.0,63.0
63,20.453588125,24.179387125,52.0,53.0
64,25.534223125,25.720714687500003,60.0,73.0
65,25.292288125000002,25.8739401875,57.0,85.0
66,24.808418125000003,25.999948,45.0,78.0
67,25.776158125000002,26.073536562500003,64.0,82.0
68,25.050353125,26.0876494375,52.0,66.0
69,26.018093125,26.196520187500003,67.0,64.0
70,26.260028125,26.559422687500003,62.0,66.0
71,26.260028125,26.585632312500003,66.0,75.0
72,26.743898125,27.05236525,62.0,51.0
73,26.985833125000003,27.1047845,66.0,69.0
74,26.501963125000003,27.292284125000002,59.0,49.0
75,27.227768125,27.741880000000002,66.0,78.0
76,27.227768125,27.759017062500003,62.0,73.0
77,27.711638125,28.260024125,59.0,47.0
78,26.260028125,28.275145062500002,47.0,66.0
79,27.953573125000002,28.275145062500002,62.0,75.0
80,28.195508125000003,28.357806187500003,66.0,99.0
81,28.679378125000003,28.982804937500003,62.0,63.0
82,28.679378125000003,29.0049823125,67.0,75.0
83,28.679378125000003,29.019095187500003,71.0,70.0
84,29.163248125000003,29.314457500000003,62.0,63.0
85,28.921313125,29.4807878125,59.0,61.0
86,29.405183125,29.854779,69.0,76.0
87,29.405183125,29.865867687500003,64.0,70.0
88,30.130988125000002,30.2731249375,64.0,78.0
89,30.372923125000003,30.503971250000003,64.0,61.0
90,28.679378125000003,30.643083875000002,52.0,69.0
91,30.372923125000003,30.7065918125,71.0,75.0
92,30.372923125000003,30.7146563125,67.0,88.0
93,29.889053125,30.804373875000003,59.0,61.0
94,31.340663125000003,31.468687062500003,62.0,72.0
95,31.340663125000003,31.523122437500003,66.0,91.0
96,31.098728125,31.821508937500003,59.0,62.0
97,31.824533125000002,32.1037664375,67.0,95.0
98,31.824533125000002,32.1340083125,64.0,88.0
99,32.066468125,32.1582018125,59.0,75.0
100,30.856793125000003,32.163242125000004,52.0,69.0
101,32.550338125,33.030175875000005,67.0,78.0
102,32.550338125,33.203562625,64.0,82.0
103,32.550338125,33.288239875,60.0,80.0
104,33.518078125,33.689448750000004,60.0,91.0
105,33.760013125,33.9061821875,64.0,73.0
106,34.001948125000006,34.0533593125,64.0,52.0
107,32.550338125,34.0563835,45.0,85.0
108,33.276143125000004,34.106786625000005,57.0,93.0
109,33.034208125,34.201544500000004,52.0,59.0
110,34.001948125000006,34.2650524375,67.0,95.0
111,34.243883125,34.39106025,69.0,58.0
112,34.485818125,34.8950915,64.0,76.0
113,34.485818125,34.905172125,60.0,76.0
114,34.485818125,34.990857437500004,69.0,73.0
115,35.211623125,35.492872562500004,60.0,75.0
116,35.453558125,35.576541750000004,64.0,60.0
117,34.969688125000005,35.741864,57.0,78.0
118,34.727753125,36.022105375,52.0,54.0
119,35.695493125,36.036218250000005,64.0,95.0
120,35.695493125,36.0372263125,60.0,91.0
121,35.937428125000004,36.046298875000005,57.0,78.0
122,34.485818125,36.050331125,45.0,72.0
123,35.695493125,36.06041175,69.0,73.0
124,36.421298125,36.819482812500006,50.0,80.0
125,36.421298125,37.030167875000004,66.0,103.0
126,36.421298125,37.1692805,69.0,82.0
127,36.421298125,37.1884336875,62.0,93.0
128,37.147103125,37.5533523125,50.0,48.0
129,37.389038125,37.751940625,62.0,82.0
130,37.389038125,37.7751260625,69.0,76.0
131,37.389038125,37.776134125000006,66.0,97.0
132,38.356778125000005,39.737823750000004,74.0,58.0
133,38.356778125000005,39.751936625,78.0,63.0
134,38.356778125000005,39.7751220625,69.0,58.0
135,38.356778125000005,39.7831865625,81.0,73.0
136,37.872908125,39.870888,50.0,49.0
137,36.421298125,39.885000875,38.0,76.0
138,40.050323125000006,40.218669562500004,78.0,54.0
139,40.050323125000006,40.218669562500004,90.0,54.0
140,40.171290625000005,40.31846775,76.0,57.0
141,40.171290625000005,40.31846775,88.0,57.0
142,40.292258125000004,40.9303616875,74.0,60.0
143,40.292258125000004,40.9303616875,86.0,60.0
144,40.171290625000005,41.252941687500005,69.0,38.0
145,40.292258125000004,41.264030375000004,66.0,69.0
146,40.292258125000004,41.2650384375,62.0,56.0
147,40.292258125000004,41.268062625000006,38.0,63.0
148,40.292258125000004,41.274111000000005,50.0,48.0
149,44.163218125,46.7146243125,59.0,70.0
150,44.163218125,46.715632375000006,55.0,66.0
151,44.163218125,46.746882312500006,64.0,69.0
152,44.163218125,46.783172562500006,40.0,66.0
153,44.163218125,46.826519250000004,52.0,63.0
154,48.034178125000004,49.095667937500004,57.0,53.0
155,48.034178125000004,49.1279259375,62.0,60.0
156,48.034178125000004,49.146071062500006,66.0,49.0
157,50.937398125,51.127921937500005,69.0,51.0
158,48.034178125000004,51.253929750000005,47.0,66.0
159,48.034178125000004,51.288203875,54.0,70.0
160,51.905138125,53.4767075625,60.0,69.0
161,51.905138125,53.497876875,45.0,72.0
162,51.905138125,53.589610562500006,57.0,66.0
163,51.905138125,53.647070125000006,69.0,69.0
164,52.872878125,53.661183,67.0,55.0
165,51.905138125,53.695457125000004,64.0,66.0
166,53.840618125000006,54.3678348125,60.0,69.0
167,53.840618125000006,54.536181250000006,67.0,67.0
168,53.840618125000006,54.6117859375,64.0,70.0
169,53.840618125000006,55.062389875,57.0,51.0
170,53.840618125000006,55.098680125,50.0,70.0
171,54.808358125000005,55.098680125,66.0,59.0
172,54.808358125000005,55.145051,62.0,48.0
173,55.776098125000004,56.466620937500004,67.0,64.0
174,55.776098125000004,56.501903125000005,62.0,72.0
175,55.776098125000004,56.517024062500006,59.0,69.0
176,55.776098125000004,57.130934125,43.0,69.0
177,57.22770812500001,57.604723500000006,69.0,70.0
178,57.469643125000005,57.630933125000006,71.0,49.0
179,57.711578125,58.0563355,60.0,75.0
180,57.711578125,58.078512875,57.0,75.0
181,57.711578125,58.085569312500006,54.0,62.0
182,57.711578125,58.0996821875,42.0,70.0
183,57.711578125,58.130932125,64.0,61.0
184,58.679318125,59.11480112500001,63.0,78.0
185,58.679318125,59.121857562500004,59.0,62.0
186,58.679318125,59.1238736875,47.0,66.0
187,58.679318125,59.143026875000004,66.0,69.0
188,59.647058125,61.489796375000005,52.0,60.0
189,59.647058125,62.065400062500004,55.0,63.0
190,59.647058125,62.111770937500005,59.0,69.0
191,59.647058125,62.175278875000004,64.0,66.0
192,62.066408125,63.0291078125,52.0,33.0
193,62.550278125000006,63.08253512500001,55.0,47.0
194,59.647058125,63.08757543750001,40.0,66.0
195,63.034148125,63.179309125,64.0,64.0
196,63.518018125000005,64.9222491875,59.0,73.0
197,63.518018125000005,65.35571606250001,66.0,66.0
198,63.518018125000005,65.48777225,62.0,59.0
199,63.518018125000005,65.4968448125,71.0,49.0
200,63.518018125000005,65.5049093125,69.0,48.0
201,65.937368125,66.24986750000001,62.0,37.0
202,65.45349812500001,66.62990706250001,59.0,36.0
203,66.421238125,66.69946337500001,66.0,80.0
204,63.518018125000005,66.70450368750001,47.0,75.0
205,66.905108125,67.3859539375,46.0,43.0
206,67.38897812500001,68.0230494375,60.0,63.0
207,67.38897812500001,68.51296781250001,64.0,69.0
208,67.38897812500001,68.5250645625,62.0,64.0
209,68.23575062500001,68.7508705625,60.0,39.0
210,67.38897812500001,68.824459125,48.0,61.0
211,67.38897812500001,68.83252362500001,67.0,69.0
212,67.38897812500001,68.8335316875,55.0,64.0
213,69.324458125,70.288165875,66.0,66.0
214,69.324458125,70.32244,69.0,72.0
215,69.324458125,70.364778625,62.0,66.0
216,69.324458125,70.5351411875,50.0,62.0
217,69.324458125,70.53917343750001,57.0,72.0
218,71.259938125,71.68937275,64.0,63.0
219,71.259938125,71.755904875,69.0,66.0
220,71.259938125,71.75792100000001,71.0,67.0
221,72.22767812500001,72.53715331250001,69.0,60.0
222,72.46961312500001,72.6298950625,71.0,48.0
223,72.71154812500001,72.80428987500001,76.0,60.0
224,71.985743125,72.98170887500001,64.0,60.0
225,72.953483125,73.15408756250001,81.0,64.0
226,73.195418125,74.203480625,64.0,56.0
227,73.195418125,74.2710208125,83.0,60.0
228,71.743808125,74.4867461875,59.0,51.0
229,71.259938125,74.49581875,52.0,76.0
230,74.16315812500001,74.62283462500001,56.0,60.0
231,75.17800012500001,75.79090212500002,67.0,73.0
232,75.17800012500001,75.85340200000002,69.0,73.0
233,75.17800012500001,75.85340200000002,72.0,73.0
234,75.17800012500001,75.8564261875,64.0,70.0
235,75.17800012500001,76.51469100000001,57.0,78.0
236,76.14574012500002,76.55702962500001,72.0,58.0
237,76.14574012500002,76.58021506250002,67.0,63.0
238,76.14574012500002,76.63364237500001,69.0,61.0
239,76.14574012500002,76.66287618750002,64.0,64.0
240,77.11348012500001,77.52577768750001,67.0,62.0
241,77.11348012500001,77.57416468750002,69.0,61.0
242,77.11348012500001,77.57517275000001,64.0,64.0
243,77.11348012500001,77.76368043750001,72.0,63.0
244,76.62961012500001,78.26972781250001,57.0,40.0
245,78.08122012500002,78.50359831250002,72.0,64.0
246,78.08122012500002,78.54996918750001,64.0,69.0
247,78.08122012500002,78.55904175,67.0,70.0
248,78.08122012500002,78.59230781250001,69.0,70.0
249,75.17800012500001,78.69714631250001,45.0,72.0
250,78.56509012500001,78.70924306250001,57.0,63.0
251,79.04896012500001,79.66186212500001,66.0,73.0
252,79.04896012500001,79.68101531250001,74.0,64.0
253,79.04896012500001,79.68202337500001,69.0,69.0
254,79.04896012500001,79.68706368750001,62.0,66.0
255,79.04896012500001,80.21831262500001,59.0,61.0
256,80.01670012500001,80.47940081250002,69.0,62.0
257,80.01670012500001,80.49048950000001,66.0,62.0
258,80.01670012500001,80.49452175000002,62.0,49.0
259,80.01670012500001,80.57415868750002,74.0,47.0
260,80.50057012500001,80.8019808125,59.0,40.0
261,79.04896012500001,80.81508562500001,47.0,64.0
262,80.74250512500001,80.9793998125,53.0,58.0
263,80.984440125,81.5640760625,62.0,63.0
264,80.984440125,81.57919700000001,74.0,45.0
265,80.984440125,81.59734212500001,66.0,64.0
266,80.984440125,81.6064146875,69.0,69.0
267,81.58927762500001,81.92294631250002,59.0,35.0
268,81.95218012500001,82.41588887500001,69.0,67.0
269,81.95218012500001,82.42697756250001,66.0,69.0
270,81.95218012500001,82.49250162500002,62.0,66.0
271,81.95218012500001,82.500566125,74.0,56.0
272,80.984440125,82.55399343750001,47.0,72.0
273,82.19411512500001,82.56004181250002,59.0,55.0
274,82.43605012500001,82.74451725000002,54.0,69.0
275,82.919920125,83.37657243750002,57.0,72.0
276,82.919920125,83.41286268750001,67.0,73.0
277,82.919920125,83.58826556250001,64.0,72.0
278,83.16185512500002,83.61245906250001,69.0,31.0
279,82.919920125,83.62052356250001,60.0,72.0
280,83.64572512500001,84.06810331250001,57.0,35.0
281,82.919920125,84.16386925,45.0,66.0
282,83.88766012500001,84.31709475000001,69.0,72.0
283,83.88766012500001,84.34532050000001,67.0,75.0
284,83.88766012500001,84.3564091875,64.0,72.0
285,83.88766012500001,84.39975587500001,60.0,76.0
286,84.371530125,84.45721543750001,57.0,57.0
287,84.371530125,84.51265887500001,45.0,73.0
288,84.85540012500002,85.22838325000001,50.0,61.0
289,84.85540012500002,85.46326181250001,62.0,73.0
290,84.85540012500002,85.46326181250001,66.0,78.0
291,84.85540012500002,85.4753585625,69.0,70.0
292,85.58120512500001,85.9773736875,50.0,33.0
293,85.82314012500001,86.13059918750001,69.0,72.0
294,85.82314012500001,86.159833,66.0,80.0
295,85.82314012500001,86.21225225,62.0,78.0
296,84.85540012500002,86.28382468750002,38.0,72.0
297,86.307010125,86.399751875,42.0,72.0
298,86.79088012500002,87.37958862500001,62.0,76.0
299,86.79088012500002,87.5257576875,67.0,76.0
300,86.79088012500002,87.55095925,59.0,69.0
301,86.79088012500002,87.87757150000002,55.0,75.0
302,87.75862012500001,88.15882093750001,66.0,70.0
303,87.75862012500001,88.1930950625,67.0,62.0
304,87.75862012500001,88.31910287500001,59.0,61.0
305,87.75862012500001,88.35236893750002,62.0,63.0
306,88.24249012500002,88.93906131250002,55.0,49.0
307,88.72636012500001,89.17595600000001,67.0,72.0
308,88.72636012500001,89.22232687500001,62.0,73.0
309,88.72636012500001,89.26164131250002,59.0,67.0
310,89.21023012500001,89.76063225000001,55.0,62.0
311,89.694100125,90.14067181250002,62.0,91.0
312,89.694100125,90.14470406250001,67.0,76.0
313,89.93603512500002,90.25458287500001,55.0,57.0
314,89.694100125,90.26667962500001,59.0,82.0
315,86.79088012500002,90.41587287500002,43.0,72.0
316,90.66184012500001,91.00962168750002,67.0,78.0
317,90.66184012500001,91.01970231250002,60.0,82.0
318,90.66184012500001,91.03583131250001,64.0,82.0
319,91.02474262500002,91.54087062500001,55.0,42.0
320,91.62958012500002,92.13058718750001,67.0,59.0
321,91.62958012500002,92.1567968125,64.0,60.0
322,91.62958012500002,92.15982100000001,62.0,67.0
323,91.62958012500002,92.24248212500001,72.0,67.0
324,91.62958012500002,92.7515536875,60.0,49.0
325,92.59732012500001,93.06909337500001,67.0,64.0
326,92.59732012500001,93.08219818750001,72.0,59.0
327,92.59732012500001,93.08320625000002,62.0,63.0
328,92.59732012500001,93.0862304375,64.0,58.0
329,90.66184012500001,93.34429443750001,48.0,76.0
330,93.081190125,93.46627000000001,60.0,36.0
331,92.11345012500001,93.64368900000001,55.0,35.0
332,93.32312512500002,94.00961568750002,62.0,53.0
333,94.04893012500001,94.17897018750001,60.0,80.0
334,93.56506012500002,94.2152604375,48.0,69.0
335,93.80699512500001,94.23038137500001,55.0,66.0
336,94.29086512500001,94.48642925000001,67.0,63.0
337,94.53280012500001,95.11848443750002,69.0,72.0
338,94.53280012500001,95.19509718750001,66.0,80.0
339,94.53280012500001,95.29590343750002,62.0,78.0
340,94.53280012500001,95.66082206250002,59.0,72.0
341,95.50054012500001,95.9632408125,69.0,62.0
342,95.50054012500001,96.04590193750002,66.0,75.0
343,95.50054012500001,96.08118412500001,62.0,67.0
344,95.98441012500001,96.71525543750002,59.0,44.0
345,96.468280125,96.93803725000001,69.0,55.0
346,96.468280125,97.02876287500001,66.0,52.0
347,96.468280125,97.07614181250001,62.0,47.0
348,97.19408512500002,97.51263287500001,59.0,40.0
349,94.53280012500001,97.69307606250001,47.0,72.0
350,97.43602012500001,97.86041443750001,66.0,97.0
351,97.43602012500001,97.89267243750001,69.0,85.0
352,97.43602012500001,98.00960768750001,62.0,91.0
353,98.40376012500002,98.92492843750001,69.0,66.0
354,98.40376012500002,99.06000881250002,67.0,72.0
355,98.40376012500002,99.07815393750002,60.0,76.0
356,98.40376012500002,99.10839581250002,64.0,76.0
357,98.40376012500002,99.55395943750001,57.0,66.0
358,99.37150012500001,99.85032981250001,60.0,64.0
359,99.37150012500001,99.92089418750001,64.0,66.0
360,99.37150012500001,99.9551683125,67.0,61.0
361,98.40376012500002,99.95920056250002,45.0,66.0
362,99.85537012500001,100.00456337500002,57.0,64.0
363,100.33924012500002,100.79589243750002,57.0,78.0
364,100.33924012500002,100.95718243750001,60.0,75.0
365,100.33924012500002,100.9692791875,64.0,80.0
366,100.33924012500002,101.0640370625,69.0,75.0
367,101.06504512500001,101.52673775000001,57.0,50.0
368,101.30698012500001,101.72230187500001,64.0,91.0
369,101.30698012500001,101.72532606250002,60.0,91.0
370,101.30698012500001,101.7333905625,69.0,75.0
371,100.33924012500002,101.84024518750002,45.0,73.0
372,101.79085012500002,101.90980150000001,57.0,76.0
373,102.27472012500002,102.57411468750001,59.0,93.0
374,102.27472012500002,102.84024318750001,66.0,91.0
375,102.27472012500002,102.86342862500001,64.0,88.0
376,102.27472012500002,102.90979950000002,71.0,75.0
377,102.75859012500001,103.38661306250002,59.0,45.0
378,103.24246012500001,103.71322531250001,71.0,72.0
379,103.24246012500001,103.75455587500001,64.0,95.0
380,103.24246012500001,103.77270100000001,66.0,101.0
381,102.27472012500002,103.79588643750002,47.0,69.0
382,103.726330125,103.83923312500002,59.0,88.0
383,104.21020012500001,104.57411068750001,59.0,95.0
384,104.21020012500001,104.91685193750001,71.0,76.0
385,104.21020012500001,104.98842437500001,66.0,99.0
386,104.21020012500001,104.99951306250001,63.0,95.0
387,104.93600512500001,105.28277862500002,59.0,67.0
388,105.17794012500002,105.66080206250001,66.0,109.0
389,105.17794012500002,105.669874625,71.0,88.0
390,105.17794012500002,105.68197137500002,63.0,101.0
391,104.21020012500001,105.74144706250001,47.0,69.0
392,105.66181012500002,105.75555993750001,59.0,88.0
393,106.14568012500001,106.31402656250002,64.0,75.0
394,106.14568012500001,106.49245362500001,67.0,95.0
395,106.14568012500001,106.52067937500001,72.0,73.0
396,106.14568012500001,106.70515481250001,60.0,80.0
397,106.38761512500001,106.82813843750002,64.0,40.0
398,106.87148512500002,107.15777487500002,60.0,61.0
399,107.113420125,107.38257281250002,72.0,72.0
400,107.113420125,107.39366150000001,64.0,78.0
401,107.113420125,107.42491143750001,67.0,88.0
402,106.62955012500001,107.56402406250001,55.0,59.0
403,107.35535512500002,107.75454787500001,60.0,73.0
404,106.14568012500001,107.84325737500001,48.0,73.0
405,107.59729012500001,107.86946700000001,64.0,80.0
406,107.83922512500001,108.01966831250002,69.0,67.0
407,107.83922512500001,108.04991018750002,55.0,73.0
408,108.08116012500001,108.20918406250001,69.0,48.0
409,108.08116012500001,108.3321676875,62.0,75.0
410,108.08116012500001,108.46422387500002,66.0,99.0
411,108.32309512500001,109.08821456250001,57.0,47.0
412,108.806965125,109.16583537500001,64.0,72.0
413,109.04890012500002,109.351318875,66.0,95.0
414,109.29083512500002,109.43297193750001,67.0,67.0
415,108.56503012500002,109.5015201875,62.0,76.0
416,108.08116012500001,109.62752800000001,50.0,58.0
417,109.53277012500001,109.69204400000001,57.0,73.0
418,110.01664012500001,110.29385731250002,64.0,72.0
419,110.01664012500001,110.31401856250001,67.0,82.0
420,110.500510125,110.68397750000001,64.0,69.0
421,110.25857512500002,110.73639675000001,59.0,53.0
422,110.74244512500002,110.8301465625,64.0,50.0
423,110.74244512500002,111.0549445,69.0,78.0
424,111.22631512500001,111.53478225,64.0,67.0
425,110.01664012500001,111.58820956250001,52.0,70.0
426,110.98438012500002,111.74546731250001,59.0,55.0
427,111.46825012500001,111.78276562500001,71.0,76.0
428,111.71018512500001,111.91179762500002,78.0,82.0
429,111.95212012500002,112.12147462500002,79.0,69.0
430,112.194055125,112.30796618750001,78.0,66.0
431,112.43599012500002,112.6033285,74.0,78.0
432,112.67792512500002,112.86643281250002,69.0,82.0
433,112.194055125,112.88256181250001,59.0,64.0
434,112.67792512500002,113.0035293125,64.0,70.0
435,112.91986012500001,113.20110956250002,66.0,99.0
436,113.16179512500001,113.46522193750002,67.0,76.0
437,113.40373012500001,113.50352831250001,59.0,72.0
438,111.95212012500002,113.5277218125,52.0,70.0
439,113.40373012500001,113.53679437500001,69.0,70.0
440,113.64566512500002,113.78578581250002,62.0,80.0
441,113.887600125,114.35836531250001,45.0,69.0
442,113.887600125,114.35836531250001,60.0,73.0
443,114.12953512500002,114.36642981250002,52.0,56.0
444,113.887600125,114.5065505,64.0,75.0
445,113.887600125,114.63255831250001,69.0,75.0
446,114.37147012500002,114.66380825000002,57.0,78.0
447,114.85534012500001,115.14969437500002,60.0,76.0
448,114.61340512500001,115.16380725000002,59.0,69.0
449,115.09727512500001,115.2615893125,64.0,76.0
450,115.33921012500002,115.59929025000002,67.0,82.0
451,115.581145125,115.86441068750001,71.0,70.0
452,115.82308012500002,116.10231343750002,62.0,66.0
453,115.82308012500002,116.36945000000001,66.0,97.0
454,116.06501512500002,116.82307812500002,57.0,57.0
455,116.79082012500001,117.07408568750002,66.0,85.0
456,116.54888512500001,117.09021468750001,64.0,75.0
457,116.30695012500001,117.16581937500001,62.0,60.0
458,115.82308012500002,117.25352081250001,50.0,66.0
459,117.03275512500002,117.30997231250001,67.0,69.0
460,117.274690125,117.37549637500001,57.0,62.0
461,117.274690125,117.49142356250002,69.0,62.0
462,117.51662512500002,117.61541525000001,74.0,47.0
463,117.51662512500002,117.67791512500001,72.0,47.0
464,117.75856012500002,118.15573675000002,71.0,85.0
465,118.48436512500001,118.68900181250001,69.0,72.0
466,118.00049512500001,118.83416281250001,62.0,60.0
467,118.24243012500001,119.1527105625,67.0,52.0
468,117.75856012500002,119.27972643750002,55.0,69.0
469,118.72630012500002,119.2877909375,71.0,80.0
470,119.21017012500002,119.53980656250002,62.0,63.0
471,119.45210512500002,119.65774987500001,74.0,42.0
472,119.69404012500001,119.99645887500002,71.0,76.0
473,119.69404012500001,120.01662012500002,64.0,82.0
474,119.69404012500001,120.04383781250002,66.0,78.0
475,120.17791012500001,120.45109506250002,64.0,75.0
476,120.41984512500002,120.57911900000002,66.0,59.0
477,119.93597512500001,120.73839287500002,59.0,62.0
478,120.661780125,121.16177912500001,71.0,66.0
479,120.661780125,121.16782750000002,66.0,73.0
480,120.661780125,121.18798875000002,63.0,80.0
481,119.69404012500001,121.2212548125,47.0,69.0
482,120.661780125,121.28879500000002,51.0,88.0
483,121.14565012500002,121.31802881250002,59.0,88.0
484,121.62952012500001,122.04988218750002,72.0,80.0
485,121.62952012500001,122.17084968750001,67.0,91.0
486,121.62952012500001,122.19605125000001,64.0,85.0
487,122.35532512500001,122.5498811875,64.0,76.0
488,122.11339012500002,122.67387287500001,60.0,73.0
489,122.59726012500002,122.8744773125,64.0,66.0
490,122.59726012500002,122.92689656250002,67.0,76.0
491,121.87145512500001,123.13959775000001,55.0,67.0
492,123.08113012500002,123.29987968750001,64.0,85.0
493,121.62952012500001,123.3291135,48.0,72.0
494,122.83919512500002,123.33818606250001,60.0,72.0
495,123.32306512500001,123.49947606250001,55.0,70.0
496,123.32306512500001,123.50552443750001,67.0,82.0
497,123.56500012500001,123.71116918750002,62.0,78.0
498,123.56500012500001,123.8986688125,66.0,95.0
499,124.04887012500001,124.15169250000002,64.0,70.0
500,124.04887012500001,124.20511981250002,67.0,82.0
501,124.29080512500002,124.44100643750002,66.0,101.0
502,124.29080512500002,124.44604675000002,69.0,82.0
503,123.80693512500002,124.65572375000002,57.0,52.0
504,124.532740125,124.78677187500001,62.0,58.0
505,123.56500012500001,125.1224566875,50.0,72.0
506,125.01661012500001,125.1224566875,57.0,69.0
507,125.01661012500001,125.16681143750002,62.0,85.0
508,125.50048012500002,125.83414881250002,67.0,82.0
509,125.50048012500002,125.87144712500002,71.0,70.0
510,125.98435012500002,126.25451087500002,69.0,54.0
511,125.74241512500001,126.52366356250002,59.0,45.0
512,126.226285125,126.55592156250002,67.0,76.0
513,126.226285125,126.58817956250002,71.0,59.0
514,126.46822012500002,126.77366306250002,64.0,73.0
515,125.50048012500002,126.85128387500001,52.0,69.0
516,126.95209012500001,127.10329950000002,66.0,78.0
517,126.71015512500001,127.21821862500002,59.0,62.0
518,127.19402512500002,127.41781500000002,67.0,88.0
519,127.19402512500002,127.61640331250001,64.0,91.0
520,127.919830125,128.0297089375,62.0,70.0
521,127.919830125,128.05894275000003,66.0,85.0
522,127.67789512500002,128.19200700000002,59.0,73.0
523,128.16176512500002,128.2797084375,64.0,78.0
524,128.16176512500002,128.3361599375,67.0,80.0
525,128.403700125,128.51861925000003,62.0,80.0
526,128.403700125,128.53777243750002,69.0,72.0
527,128.645635125,128.74442525,62.0,52.0
528,128.645635125,128.8291025,67.0,85.0
529,128.88757012500002,128.98333606250003,62.0,36.0
530,128.88757012500002,128.9994650625,59.0,53.0
531,127.43596012500001,129.02668275000002,52.0,64.0
532,128.88757012500002,129.11539225,66.0,99.0
533,129.129505125,129.24845650000003,62.0,78.0
534,129.37144012500002,129.802890875,64.0,75.0
535,129.37144012500002,129.84220531250003,60.0,82.0
536,129.37144012500002,129.86740687500003,67.0,67.0
537,129.85531012500002,130.35530912500002,55.0,53.0
538,130.09724512500003,130.58212318750003,60.0,57.0
539,129.37144012500002,130.60530862500002,48.0,72.0
540,130.58111512500003,130.70409875,55.0,55.0
541,130.339180125,130.72022775000002,67.0,88.0
542,130.339180125,130.78474375000002,64.0,95.0
543,130.823050125,130.94502568750002,47.0,91.0
544,131.06498512500002,131.19401712500002,45.0,82.0
545,131.306920125,131.86538675000003,62.0,88.0
546,131.306920125,131.891596375,66.0,99.0
547,132.032725125,132.1466361875,62.0,53.0
548,131.790790125,132.36840993750002,59.0,56.0
549,132.27466012500003,132.66276418750002,69.0,85.0
550,132.27466012500003,132.76256237500002,66.0,88.0
551,132.27466012500003,132.76457850000003,62.0,80.0
552,131.306920125,132.81901387500002,47.0,85.0
553,132.75853012500002,132.84824768750002,59.0,69.0
554,133.24240012500002,133.65268156250002,71.0,85.0
555,133.24240012500002,133.70812500000002,64.0,78.0
556,133.24240012500002,133.7655845625,69.0,93.0
557,133.968205125,134.3139705625,64.0,97.0
558,133.726270125,134.4450186875,52.0,56.0
559,134.45207512500002,134.54078462500001,64.0,56.0
560,134.45207512500002,134.61739737500002,69.0,91.0
561,133.24240012500002,135.01659012500002,40.0,76.0
562,134.694010125,135.02767881250003,52.0,69.0
563,135.177880125,135.53574231250002,52.0,72.0
564,135.177880125,135.59925025,64.0,62.0
565,135.177880125,135.61033893750002,68.0,70.0
566,135.177880125,135.6788871875,76.0,75.0
567,135.177880125,136.01860425,40.0,69.0
568,135.903685125,136.06598318750002,52.0,60.0
569,137.113360125,138.3200109375,64.0,60.0
570,137.113360125,138.35730925000001,60.0,60.0
571,137.113360125,138.371422125,69.0,53.0
572,137.113360125,138.41275268750002,45.0,59.0
573,137.113360125,138.46214775,57.0,54.0
574,139.04884012500003,140.202063625,66.0,56.0
575,139.04884012500003,140.28069250000001,62.0,53.0
576,139.04884012500003,140.2877489375,69.0,55.0
577,139.04884012500003,140.31395856250003,47.0,56.0
578,139.04884012500003,140.34218431250002,59.0,44.0
579,140.984320125,141.45004500000002,67.0,50.0
580,140.984320125,141.47121431250002,64.0,46.0
581,140.984320125,141.4974239375,72.0,44.0
582,141.952060125,142.32201906250003,62.0,38.0
583,141.952060125,142.407704375,67.0,39.0
584,141.46819012500004,142.980283875,55.0,40.0
585,142.919800125,143.1970173125,64.0,40.0
586,143.40367012500002,143.55084725,66.0,46.0
587,143.64560512500003,143.75750006250001,67.0,55.0
588,143.161735125,143.7816935625,55.0,38.0
589,143.88754012500002,144.15366862500002,69.0,69.0
590,141.952060125,144.18794275000002,60.0,33.0
591,140.984320125,144.22322493750002,48.0,49.0
592,144.129475125,144.29782156250002,55.0,42.0
593,144.85528012500004,145.34721462500002,67.0,58.0
594,144.85528012500004,145.42382737500003,60.0,62.0
595,144.85528012500004,145.45104506250001,64.0,60.0
596,144.85528012500004,146.06596318750002,48.0,69.0
597,145.82302012500003,146.26757568750003,64.0,80.0
598,145.82302012500003,146.29781756250003,67.0,73.0
599,145.82302012500003,146.37140612500002,60.0,66.0
600,146.306890125,146.41576087500002,48.0,69.0
601,146.548825125,146.73632475,67.0,67.0
602,146.79076012500002,147.185920625,50.0,53.0
603,146.79076012500002,147.35023481250002,69.0,63.0
604,146.79076012500002,147.38047668750002,66.0,59.0
605,146.79076012500002,147.41979112500002,62.0,64.0
606,147.39559762500002,147.903661125,50.0,31.0
607,147.758500125,148.08007206250002,66.0,70.0
608,147.758500125,148.0871285,69.0,54.0
609,147.758500125,148.1677735,62.0,63.0
610,146.79076012500002,148.20507181250002,38.0,54.0
611,148.24237012500004,148.34922475000002,50.0,44.0
612,148.726240125,149.32099700000003,62.0,76.0
613,148.726240125,149.3502308125,67.0,70.0
614,148.726240125,149.43793225000002,59.0,67.0
615,149.693980125,149.8603104375,59.0,75.0
616,149.452045125,149.966157,55.0,55.0
617,148.726240125,150.17785012500002,43.0,75.0
618,149.935915125,150.23329356250002,62.0,82.0
619,149.21011012500003,150.23530968750003,50.0,41.0
620,150.17785012500002,150.28168056250001,55.0,60.0
621,150.66172012500002,150.87341325,54.0,93.0
622,150.66172012500002,151.0599048125,57.0,75.0
623,150.66172012500002,151.0679693125,60.0,82.0
624,150.66172012500002,151.07905800000003,64.0,78.0
625,150.66172012500002,151.17179975000002,42.0,73.0
626,151.145590125,151.27361406250003,54.0,80.0
627,151.62946012500004,151.85123387500002,59.0,69.0
628,151.62946012500004,152.11736237500003,71.0,76.0
629,151.62946012500004,152.12139462500002,66.0,82.0
630,151.62946012500004,152.149620375,63.0,78.0
631,151.62946012500004,152.24337018750003,47.0,73.0
632,152.113330125,152.45103106250002,59.0,72.0
633,152.35526512500002,153.1566748125,64.0,40.0
634,152.59720012500003,153.17784412500004,72.0,78.0
635,152.47623262500002,153.18490056250002,67.0,66.0
636,153.323005125,153.84014118750002,60.0,70.0
637,153.56494012500002,154.01453600000002,64.0,80.0
638,153.80687512500003,154.1677615,67.0,66.0
639,152.59720012500003,154.198003375,48.0,67.0
640,153.081070125,154.39054331250003,55.0,49.0
641,154.04881012500002,154.411712625,60.0,66.0
642,154.290745125,154.78469575000003,72.0,78.0
643,154.532680125,155.020582375,62.0,75.0
644,154.532680125,155.030663,69.0,63.0
645,154.532680125,155.04376781250002,66.0,88.0
646,155.25848512500002,155.39255743750002,62.0,82.0
647,155.016550125,155.7161455,60.0,69.0
648,154.77461512500003,155.8663468125,55.0,62.0
649,155.74235512500002,156.02461262500003,74.0,78.0
650,155.74235512500002,156.0558625625,66.0,91.0
651,155.74235512500002,156.06191093750002,62.0,85.0
652,155.98429012500003,156.0709835,60.0,72.0
653,154.532680125,156.079048,48.0,75.0
654,155.98429012500003,156.0961850625,55.0,58.0
655,156.468160125,156.76453050000003,67.0,76.0
656,156.468160125,156.77461112500004,71.0,76.0
657,156.468160125,157.01654612500002,52.0,69.0
658,156.95203012500002,157.15868293750003,67.0,85.0
659,156.710095125,157.3199729375,59.0,61.0
660,157.19396512500003,157.3623115625,71.0,72.0
661,157.43590012500002,157.74739143750003,62.0,72.0
662,157.43590012500002,157.7494075625,69.0,63.0
663,157.43590012500002,157.75646400000002,66.0,72.0
664,157.677835125,157.94497168750001,59.0,62.0
665,157.43590012500002,157.95202812500003,50.0,73.0
666,157.919770125,157.97622162500002,66.0,47.0
667,157.919770125,158.079044,62.0,82.0
668,158.403640125,158.579043,49.0,76.0
669,158.403640125,158.6042445625,64.0,80.0
670,158.403640125,158.61533325000002,67.0,82.0
671,158.403640125,158.6284380625,61.0,85.0
672,158.403640125,158.65162350000003,71.0,78.0
673,159.03972756250002,159.22823525,76.0,58.0
674,159.11130000000003,159.24436425000002,79.0,60.0
675,159.1304531875,159.25242875000004,73.0,46.0
676,159.1808563125,159.30081575000003,83.0,63.0
677,159.51754918750004,159.70908106250002,88.0,37.0
678,159.63952475000002,159.74537131250003,91.0,34.0
679,159.64456506250002,159.75041162500003,85.0,61.0
680,159.69194400000003,159.78972606250002,95.0,62.0
681,160.33912012500002,160.77258700000002,64.0,69.0
682,160.33912012500002,160.78266762500002,60.0,64.0
683,161.064925125,161.29274725000002,59.0,78.0
684,161.30686012500001,161.40968250000003,60.0,70.0
685,161.54879512500003,161.71512543750003,64.0,80.0
686,160.58105512500003,161.90464118750003,52.0,60.0
687,160.33912012500002,161.9106895625,45.0,78.0
688,160.82299012500002,161.9893184375,57.0,82.0
689,161.790730125,162.01250387500002,67.0,85.0
690,162.03266512500002,162.1808503125,69.0,60.0
691,162.274600125,162.55584956250001,62.0,76.0
692,162.274600125,162.56088987500002,69.0,70.0
693,162.274600125,162.57097050000002,66.0,82.0
694,162.75847012500003,162.87439731250004,62.0,80.0
695,162.51653512500002,163.14758225000003,59.0,59.0
696,163.00040512500001,163.484275125,66.0,85.0
697,163.00040512500001,163.4872993125,74.0,80.0
698,163.00040512500001,163.5175411875,62.0,75.0
699,162.274600125,163.62137162500002,47.0,72.0
700,163.484275125,163.79274225,59.0,69.0
701,163.72621012500002,163.9187500625,62.0,80.0
702,163.96814512500004,164.05080625000002,71.0,46.0
703,164.21008012500002,164.29979768750002,67.0,48.0
704,164.21008012500002,164.46007962500002,69.0,67.0
705,165.177820125,165.4126986875,69.0,64.0
706,165.41975512500002,165.52459362500002,71.0,58.0
707,164.21008012500002,165.90362512500002,52.0,73.0
708,164.93588512500003,165.91874606250002,64.0,78.0
709,164.452015125,165.94898793750002,57.0,64.0
710,164.69395012500001,166.00644750000004,59.0,56.0
711,165.661690125,166.22116481250004,76.0,61.0
712,165.90362512500002,166.23326156250002,88.0,67.0
713,166.38749512500002,166.4903175,86.0,69.0
714,166.38749512500002,166.50140618750004,74.0,80.0
715,166.38749512500002,166.869349,59.0,62.0
716,166.871365125,166.95705043750002,83.0,70.0
717,166.871365125,166.97418750000003,71.0,78.0
718,166.629430125,167.04676800000001,64.0,54.0
719,167.11330012500002,167.38144475,59.0,51.0
720,167.35523512500004,167.59817818750003,79.0,88.0
721,167.35523512500004,167.60321850000003,67.0,88.0
722,166.14556012500003,167.69394412500003,52.0,66.0
723,167.59717012500002,167.7030166875,59.0,63.0
724,168.08104012500002,168.69394212500004,67.0,73.0
725,168.08104012500002,168.75644200000002,69.0,73.0
726,168.08104012500002,168.75644200000002,72.0,73.0
727,168.08104012500002,168.7594661875,64.0,70.0
728,168.08104012500002,169.417731,57.0,78.0
729,169.048780125,169.46006962500002,72.0,58.0
730,169.048780125,169.4832550625,67.0,63.0
731,169.048780125,169.536682375,69.0,61.0
732,169.048780125,169.56591618750002,64.0,64.0
733,170.016520125,170.42881768750001,67.0,62.0
734,170.016520125,170.47720468750003,69.0,61.0
735,170.016520125,170.47821275,64.0,64.0
736,170.016520125,170.66672043750003,72.0,63.0
737,169.53265012500003,171.1727678125,57.0,40.0
738,170.98426012500002,171.40663831250004,72.0,64.0
739,170.98426012500002,171.45300918750002,64.0,69.0
740,170.98426012500002,171.46208175,67.0,70.0
741,170.98426012500002,171.49534781250003,69.0,70.0
742,168.08104012500002,171.6001863125,45.0,72.0
743,171.46813012500002,171.6122830625,57.0,63.0
744,171.952000125,172.564902125,66.0,73.0
745,171.952000125,172.58405531250003,74.0,64.0
746,171.952000125,172.585063375,69.0,69.0
747,171.952000125,172.5901036875,62.0,66.0
748,171.952000125,173.12135262500001,59.0,61.0
749,172.91974012500003,173.38244081250002,69.0,62.0
750,172.91974012500003,173.3935295,66.0,62.0
751,172.91974012500003,173.39756175000002,62.0,49.0
752,172.91974012500003,173.47719868750002,74.0,47.0
753,173.403610125,173.70502081250004,59.0,40.0
754,171.952000125,173.71812562500003,47.0,64.0
755,173.645545125,173.88243981250002,53.0,58.0
756,173.88748012500002,174.4671160625,62.0,63.0
757,173.88748012500002,174.482237,74.0,45.0
758,173.88748012500002,174.50038212500002,66.0,64.0
759,173.88748012500002,174.5094546875,69.0,69.0
760,174.492317625,174.82598631250002,59.0,35.0
761,174.85522012500002,175.318928875,69.0,67.0
762,174.85522012500002,175.33001756250002,66.0,69.0
763,174.85522012500002,175.39554162500002,62.0,66.0
764,174.85522012500002,175.403606125,74.0,56.0
765,173.88748012500002,175.4570334375,47.0,72.0
766,175.09715512500003,175.46308181250004,59.0,55.0
767,175.339090125,175.64755725000003,54.0,69.0
768,175.822960125,176.27961243750002,57.0,72.0
769,175.822960125,176.3159026875,67.0,73.0
770,175.822960125,176.49130556250003,64.0,72.0
771,176.06489512500002,176.5154990625,69.0,31.0
772,175.822960125,176.52356356250002,60.0,72.0
773,176.54876512500002,176.97114331250003,57.0,35.0
774,175.822960125,177.06690925000004,45.0,66.0
775,176.790700125,177.22013475,69.0,72.0
776,176.790700125,177.24836050000002,67.0,75.0
777,176.790700125,177.25944918750002,64.0,72.0
778,176.790700125,177.30279587500002,60.0,76.0
779,177.27457012500003,177.36025543750003,57.0,57.0
780,177.27457012500003,177.41569887500003,45.0,73.0
781,177.75844012500002,178.13142325,50.0,61.0
782,177.75844012500002,178.3663018125,62.0,73.0
783,177.75844012500002,178.3663018125,66.0,78.0
784,177.75844012500002,178.37839856250002,69.0,70.0
785,178.48424512500003,178.88041368750004,50.0,33.0
786,178.726180125,179.0336391875,69.0,72.0
787,178.726180125,179.06287300000002,66.0,80.0
788,178.726180125,179.11529225000004,62.0,78.0
789,177.75844012500002,179.18686468750002,38.0,72.0
790,179.210050125,179.30279187500003,42.0,72.0
791,179.69392012500003,180.28262862500003,62.0,76.0
792,179.69392012500003,180.42879768750004,67.0,76.0
793,179.69392012500003,180.45399925000004,59.0,69.0
794,179.69392012500003,180.78061150000002,55.0,75.0
795,180.66166012500003,181.0618609375,66.0,70.0
796,180.66166012500003,181.09613506250003,67.0,62.0
797,180.66166012500003,181.22214287500003,59.0,61.0
798,180.66166012500003,181.25540893750002,62.0,63.0
799,181.14553012500002,181.8421013125,55.0,49.0
800,181.62940012500002,182.07899600000002,67.0,72.0
801,181.62940012500002,182.125366875,62.0,73.0
802,181.62940012500002,182.16468131250002,59.0,67.0
803,182.113270125,182.66367225000002,55.0,62.0
804,182.597140125,183.04371181250002,62.0,91.0
805,182.597140125,183.04774406250002,67.0,76.0
806,182.83907512500002,183.15762287500002,55.0,57.0
807,182.597140125,183.16971962500003,59.0,82.0
808,179.69392012500003,183.31891287500002,43.0,72.0
809,183.564880125,183.91266168750002,67.0,78.0
810,183.564880125,183.92274231250002,60.0,82.0
811,183.564880125,183.9388713125,64.0,82.0
812,183.92778262500002,184.443910625,55.0,42.0
813,184.53262012500002,185.03362718750003,67.0,59.0
814,184.53262012500002,185.0598368125,64.0,60.0
815,184.53262012500002,185.062861,62.0,67.0
816,184.53262012500002,185.145522125,72.0,67.0
817,184.53262012500002,185.6545936875,60.0,49.0
818,185.50036012500001,185.972133375,67.0,64.0
819,185.50036012500001,185.98523818750002,72.0,59.0
820,185.50036012500001,185.98624625000002,62.0,63.0
821,185.50036012500001,185.9892704375,64.0,58.0
822,183.564880125,186.2473344375,48.0,76.0
823,185.984230125,186.36931,60.0,36.0
824,185.01649012500002,186.54672900000003,55.0,35.0
825,186.22616512500002,186.91265568750003,62.0,53.0
826,186.951970125,187.08201018750003,60.0,80.0
827,186.46810012500003,187.1183004375,48.0,69.0
828,186.71003512500002,187.133421375,55.0,66.0
829,187.19390512500001,187.38946925000002,67.0,63.0
830,187.43584012500003,188.02152443750003,69.0,72.0
831,187.43584012500003,188.09813718750001,66.0,80.0
832,187.43584012500003,188.19894343750002,62.0,78.0
833,187.43584012500003,188.56386206250002,59.0,72.0
834,188.40358012500002,188.8662808125,69.0,62.0
835,188.40358012500002,188.94894193750002,66.0,75.0
836,188.40358012500002,188.98422412500003,62.0,67.0
837,188.88745012500002,189.61829543750002,59.0,44.0
838,189.371320125,189.84107725,69.0,55.0
839,189.371320125,189.93180287500002,66.0,52.0
840,189.371320125,189.97918181250003,62.0,47.0
841,190.09712512500002,190.415672875,59.0,40.0
842,187.43584012500003,190.59611606250002,47.0,72.0
843,190.339060125,190.7634544375,66.0,97.0
844,190.339060125,190.79571243750001,69.0,85.0
845,190.339060125,190.9126476875,62.0,91.0
846,191.30680012500002,191.82796843750003,69.0,66.0
847,191.30680012500002,191.9630488125,67.0,72.0
848,191.30680012500002,191.98119393750002,60.0,76.0
849,191.30680012500002,192.01143581250003,64.0,76.0
850,191.30680012500002,192.45699943750003,57.0,66.0
851,192.27454012500002,192.7533698125,60.0,64.0
852,192.27454012500002,192.82393418750002,64.0,66.0
853,192.27454012500002,192.85820831250004,67.0,61.0
854,191.30680012500002,192.8622405625,45.0,66.0
855,192.758410125,192.907603375,57.0,64.0
856,193.24228012500004,193.69893243750002,57.0,78.0
857,193.24228012500004,193.8602224375,60.0,75.0
858,193.24228012500004,193.8723191875,64.0,80.0
859,193.24228012500004,193.96707706250004,69.0,75.0
860,193.96808512500002,194.42977775000003,57.0,50.0
861,194.21002012500003,194.625341875,64.0,91.0
862,194.21002012500003,194.62836606250002,60.0,91.0
863,194.21002012500003,194.63643056250004,69.0,75.0
864,193.24228012500004,194.74328518750002,45.0,73.0
865,194.69389012500002,194.81284150000002,57.0,76.0
866,195.17776012500002,195.47715468750002,59.0,93.0
867,195.17776012500002,195.74328318750003,66.0,91.0
868,195.17776012500002,195.76646862500002,64.0,88.0
869,195.17776012500002,195.81283950000002,71.0,75.0
870,195.66163012500002,196.2896530625,59.0,45.0
871,196.145500125,196.61626531250002,71.0,72.0
872,196.145500125,196.65759587500003,64.0,95.0
873,196.145500125,196.67574100000002,66.0,101.0
874,195.17776012500002,196.6989264375,47.0,69.0
875,196.62937012500004,196.74227312500003,59.0,88.0
876,197.113240125,197.4771506875,59.0,95.0
877,197.113240125,197.81989193750002,71.0,76.0
878,197.113240125,197.891464375,66.0,99.0
879,197.113240125,197.90255306250003,63.0,95.0
880,197.839045125,198.18581862500002,59.0,67.0
881,198.08098012500002,198.56384206250002,66.0,109.0
882,198.08098012500002,198.572914625,71.0,88.0
883,198.08098012500002,198.58501137500002,63.0,101.0
884,197.113240125,198.64448706250002,47.0,69.0
885,198.56485012500002,198.65859993750001,59.0,88.0
886,199.04872012500002,199.2170665625,64.0,75.0
887,199.04872012500002,199.39549362500003,67.0,95.0
888,199.04872012500002,199.42371937500002,72.0,73.0
889,199.04872012500002,199.60819481250002,60.0,80.0
890,199.290655125,199.73117843750003,64.0,40.0
891,199.77452512500003,200.060814875,60.0,61.0
892,200.01646012500004,200.2856128125,72.0,72.0
893,200.01646012500004,200.2967015,64.0,78.0
894,200.01646012500004,200.32795143750002,67.0,88.0
895,199.532590125,200.46706406250001,55.0,59.0
896,200.25839512500002,200.65758787500002,60.0,73.0
897,199.04872012500002,200.746297375,48.0,73.0
898,200.500330125,200.77250700000002,64.0,80.0
899,200.74226512500002,200.92270831250002,69.0,67.0
900,200.74226512500002,200.95295018750002,55.0,73.0
901,200.98420012500003,201.11222406250002,69.0,48.0
902,200.98420012500003,201.2352076875,62.0,75.0
903,200.98420012500003,201.36726387500002,66.0,99.0
904,201.226135125,201.99125456250002,57.0,47.0
905,201.710005125,202.068875375,64.0,72.0
906,201.95194012500002,202.25435887500004,66.0,95.0
907,202.19387512500003,202.33601193750002,67.0,67.0
908,201.46807012500003,202.4045601875,62.0,76.0
909,200.98420012500003,202.53056800000002,50.0,58.0
910,202.43581012500002,202.595084,57.0,73.0
911,202.919680125,203.19689731250003,64.0,72.0
912,202.919680125,203.21705856250003,67.0,82.0
913,203.403550125,203.58701750000003,64.0,69.0
914,203.16161512500003,203.63943675000002,59.0,53.0
915,203.64548512500002,203.7331865625,64.0,50.0
916,203.64548512500002,203.9579845,69.0,78.0
917,204.12935512500002,204.43782225,64.0,67.0
918,202.919680125,204.49124956250003,52.0,70.0
919,203.887420125,204.64850731250002,59.0,55.0
920,204.37129012500003,204.68580562500003,71.0,76.0
921,204.613225125,204.81483762500002,78.0,82.0
922,204.85516012500003,205.02451462500002,79.0,69.0
923,205.097095125,205.21100618750003,78.0,66.0
924,205.33903012500002,205.5063685,74.0,78.0
925,205.580965125,205.76947281250003,69.0,82.0
926,205.097095125,205.78560181250003,59.0,64.0
927,205.580965125,205.9065693125,64.0,70.0
928,205.82290012500002,206.10414956250003,66.0,99.0
929,206.06483512500003,206.36826193750002,67.0,76.0
930,206.306770125,206.4065683125,59.0,72.0
931,204.85516012500003,206.4307618125,52.0,70.0
932,206.306770125,206.43983437500003,69.0,70.0
933,206.54870512500003,206.68882581250003,62.0,80.0
934,206.790640125,207.26140531250002,45.0,69.0
935,206.790640125,207.26140531250002,60.0,73.0
936,207.03257512500002,207.2694698125,52.0,56.0
937,206.790640125,207.4095905,64.0,75.0
938,206.790640125,207.5355983125,69.0,75.0
939,207.274510125,207.56684825000002,57.0,78.0
940,207.75838012500003,208.05273437500003,60.0,76.0
941,207.51644512500002,208.06684725000002,59.0,69.0
942,208.00031512500001,208.1646293125,64.0,76.0
943,208.24225012500003,208.50233025000003,67.0,82.0
944,208.484185125,208.76745068750003,71.0,70.0
945,208.72612012500002,209.00535343750002,62.0,66.0
946,208.72612012500002,209.27249000000003,66.0,97.0
947,208.968055125,209.72611812500003,57.0,57.0
948,209.69386012500001,209.9771256875,66.0,85.0
949,209.45192512500003,209.9932546875,64.0,75.0
950,209.20999012500002,210.06885937500002,62.0,60.0
951,208.72612012500002,210.15656081250003,50.0,66.0
952,209.93579512500003,210.2130123125,67.0,69.0
953,210.177730125,210.27853637500002,57.0,62.0
954,210.177730125,210.39446356250002,69.0,62.0
955,210.41966512500002,210.51845525000002,74.0,47.0
956,210.41966512500002,210.58095512500003,72.0,47.0
957,210.661600125,211.05877675000002,71.0,85.0
958,211.38740512500002,211.5920418125,69.0,72.0
959,210.90353512500002,211.73720281250002,62.0,60.0
960,211.14547012500003,212.0557505625,67.0,52.0
961,210.661600125,212.18276643750002,55.0,69.0
962,211.62934012500003,212.1908309375,71.0,80.0
963,212.11321012500002,212.44284656250002,62.0,63.0
964,212.355145125,212.560789875,74.0,42.0
965,212.59708012500002,212.899498875,71.0,76.0
966,212.59708012500002,212.919660125,64.0,82.0
967,212.59708012500002,212.94687781250002,66.0,78.0
968,213.08095012500002,213.3541350625,64.0,75.0
969,213.32288512500003,213.48215900000002,66.0,59.0
970,212.83901512500003,213.64143287500002,59.0,62.0
971,213.564820125,214.064819125,71.0,66.0
972,213.564820125,214.07086750000002,66.0,73.0
973,213.564820125,214.09102875000002,63.0,80.0
974,212.59708012500002,214.1242948125,47.0,69.0
975,213.564820125,214.19183500000003,51.0,88.0
976,214.048690125,214.22106881250002,59.0,88.0
977,214.53256012500003,214.9529221875,72.0,80.0
978,214.53256012500003,215.0738896875,67.0,91.0
979,214.53256012500003,215.09909125000001,64.0,85.0
980,215.258365125,215.4529211875,64.0,76.0
981,215.01643012500003,215.57691287500003,60.0,73.0
982,215.50030012500002,215.7775173125,64.0,66.0
983,215.50030012500002,215.82993656250002,67.0,76.0
984,214.77449512500002,216.04263775,55.0,67.0
985,215.98417012500002,216.2029196875,64.0,85.0
986,214.53256012500003,216.2321535,48.0,72.0
987,215.742235125,216.24122606250003,60.0,72.0
988,216.22610512500003,216.4025160625,55.0,70.0
989,216.22610512500003,216.40856443750002,67.0,82.0
990,216.46804012500002,216.61420918750002,62.0,78.0
991,216.46804012500002,216.8017088125,66.0,95.0
992,216.951910125,217.05473250000003,64.0,70.0
993,216.951910125,217.10815981250002,67.0,82.0
994,217.19384512500002,217.34404643750003,66.0,101.0
995,217.19384512500002,217.34908675000003,69.0,82.0
996,216.70997512500003,217.55876375000003,57.0,52.0
997,217.435780125,217.68981187500003,62.0,58.0
998,216.46804012500002,218.0254966875,50.0,72.0
999,217.91965012500003,218.0254966875,57.0,69.0
1000,217.91965012500003,218.0698514375,62.0,85.0
1001,218.40352012500003,218.73718881250002,67.0,82.0
1002,218.40352012500003,218.774487125,71.0,70.0
1003,218.88739012500002,219.15755087500003,69.0,54.0
1004,218.645455125,219.42670356250002,59.0,45.0
1005,219.129325125,219.4589615625,67.0,76.0
1006,219.129325125,219.49121956250002,71.0,59.0
1007,219.37126012500002,219.67670306250002,64.0,73.0
1008,218.40352012500003,219.754323875,52.0,69.0
1009,219.85513012500002,220.00633950000002,66.0,78.0
1010,219.61319512500003,220.12125862500002,59.0,62.0
1011,220.09706512500003,220.32085500000002,67.0,88.0
1012,220.09706512500003,220.51944331250002,64.0,91.0
1013,220.822870125,220.9327489375,62.0,70.0
1014,220.822870125,220.96198275000003,66.0,85.0
1015,220.58093512500002,221.09504700000002,59.0,73.0
1016,221.06480512500002,221.1827484375,64.0,78.0
1017,221.06480512500002,221.23919993750002,67.0,80.0
1018,221.30674012500003,221.42165925000003,62.0,80.0
1019,221.30674012500003,221.44081243750003,69.0,72.0
1020,221.54867512500002,221.64746525,62.0,52.0
1021,221.54867512500002,221.7321425,67.0,85.0
1022,221.79061012500003,221.88637606250003,62.0,36.0
1023,221.79061012500003,221.9025050625,59.0,53.0
1024,220.339000125,221.92972275000002,52.0,64.0
1025,221.79061012500003,222.01843225000002,66.0,99.0
1026,222.032545125,222.1514965,62.0,78.0
1027,222.27448012500003,222.705930875,64.0,75.0
1028,222.27448012500003,222.74524531250003,60.0,82.0
1029,222.27448012500003,222.77044687500003,67.0,67.0
1030,222.75835012500002,223.25834912500002,55.0,53.0
1031,223.00028512500003,223.4851631875,60.0,57.0
1032,222.27448012500003,223.50834862500002,48.0,72.0
1033,223.48415512500003,223.60713875000002,55.0,55.0
1034,223.24222012500002,223.62326775000002,67.0,88.0
1035,223.24222012500002,223.68778375000002,64.0,95.0
1036,223.726090125,223.84806568750002,47.0,91.0
1037,223.96802512500003,224.09705712500002,45.0,82.0
1038,224.209960125,224.76842675000003,62.0,88.0
1039,224.209960125,224.794636375,66.0,99.0
1040,224.93576512500002,225.0496761875,62.0,53.0
1041,224.69383012500003,225.27144993750002,59.0,56.0
1042,225.17770012500003,225.56580418750002,69.0,85.0
1043,225.17770012500003,225.66560237500002,66.0,88.0
1044,225.17770012500003,225.66761850000003,62.0,80.0
1045,224.209960125,225.72205387500003,47.0,85.0
1046,225.66157012500003,225.75128768750002,59.0,69.0
1047,226.14544012500002,226.55572156250003,71.0,85.0
1048,226.14544012500002,226.61116500000003,64.0,78.0
1049,226.14544012500002,226.6686245625,69.0,93.0
1050,226.87124512500003,227.2170105625,64.0,97.0
1051,226.62931012500002,227.34805868750001,52.0,56.0
1052,227.35511512500003,227.44382462500002,64.0,56.0
1053,227.35511512500003,227.52043737500003,69.0,91.0
1054,226.14544012500002,227.91963012500003,40.0,76.0
1055,227.597050125,227.93071881250003,52.0,69.0
1056,228.08092012500003,228.21398437500002,52.0,73.0
1057,228.08092012500003,228.39845981250002,64.0,75.0
1058,228.08092012500003,228.44382262500002,68.0,73.0
1059,228.56479012500003,228.7512816875,52.0,64.0
1060,228.56479012500003,228.82386218750003,64.0,64.0
1061,228.56479012500003,229.07890200000003,69.0,72.0
1062,229.04866012500003,229.141401875,64.0,80.0
1063,229.04866012500003,229.15853893750003,71.0,80.0
1064,229.04866012500003,229.33898212500003,52.0,93.0
1065,229.53253012500002,229.63333637500003,64.0,88.0
1066,228.08092012500003,229.65248956250002,40.0,70.0
1067,229.53253012500002,229.65652181250002,76.0,88.0
1068,229.53253012500002,229.65853793750003,52.0,91.0
1069,230.01640012500002,230.1847465625,64.0,75.0
1070,230.01640012500002,230.36317362500003,67.0,95.0
1071,230.01640012500002,230.39139937500002,72.0,73.0
1072,230.01640012500002,230.57587481250002,60.0,80.0
1073,230.25833512500003,230.6988584375,64.0,40.0
1074,230.74220512500003,231.028494875,60.0,61.0
1075,230.984140125,231.2532928125,72.0,72.0
1076,230.984140125,231.2643815,64.0,78.0
1077,230.984140125,231.29563143750002,67.0,88.0
1078,230.50027012500001,231.43474406250002,55.0,59.0
1079,231.22607512500002,231.62526787500002,60.0,73.0
1080,230.01640012500002,231.713977375,48.0,73.0
1081,231.46801012500003,231.74018700000002,64.0,80.0
1082,231.70994512500002,231.89038831250002,69.0,67.0
1083,231.70994512500002,231.92063018750002,55.0,73.0
1084,231.95188012500003,232.07990406250002,69.0,48.0
1085,231.95188012500003,232.2028876875,62.0,75.0
1086,231.95188012500003,232.33494387500002,66.0,99.0
1087,232.19381512500001,232.95893456250002,57.0,47.0
1088,232.677685125,233.03655537500003,64.0,72.0
1089,232.91962012500002,233.222038875,66.0,95.0
1090,233.161555125,233.30369193750002,67.0,67.0
1091,232.43575012500003,233.3722401875,62.0,76.0
1092,231.95188012500003,233.49824800000002,50.0,58.0
1093,233.40349012500002,233.56276400000002,57.0,73.0
1094,233.88736012500001,234.16457731250003,64.0,72.0
1095,233.88736012500001,234.18473856250003,67.0,82.0
1096,234.371230125,234.55469750000003,64.0,69.0
1097,234.12929512500003,234.60711675000002,59.0,53.0
1098,234.61316512500002,234.7008665625,64.0,50.0
1099,234.61316512500002,234.9256645,69.0,78.0
1100,235.09703512500002,235.40550225,64.0,67.0
1101,233.88736012500001,235.45892956250003,52.0,70.0
1102,234.855100125,235.61618731250002,59.0,55.0
1103,235.33897012500003,235.65348562500003,71.0,76.0
1104,235.58090512500002,235.78251762500003,78.0,82.0
1105,235.82284012500003,235.99219462500002,79.0,69.0
1106,236.064775125,236.17868618750003,78.0,66.0
1107,236.30671012500002,236.4740485,74.0,78.0
1108,236.548645125,236.73715281250003,69.0,82.0
1109,236.064775125,236.75328181250003,59.0,64.0
1110,236.548645125,236.8742493125,64.0,70.0
1111,236.79058012500002,237.07182956250003,66.0,99.0
1112,237.03251512500003,237.33594193750002,67.0,76.0
1113,237.27445012500002,237.37424831250001,59.0,72.0
1114,235.82284012500003,237.3984418125,52.0,70.0
1115,237.27445012500002,237.40751437500003,69.0,70.0
1116,237.51638512500003,237.65650581250003,62.0,80.0
1117,237.758320125,238.22908531250002,45.0,69.0
1118,237.758320125,238.22908531250002,60.0,73.0
1119,238.00025512500002,238.2371498125,52.0,56.0
1120,237.758320125,238.3772705,64.0,75.0
1121,237.758320125,238.50327831250002,69.0,75.0
1122,238.242190125,238.53452825000002,57.0,78.0
1123,238.72606012500003,239.02041437500003,60.0,76.0
1124,238.48412512500002,239.03452725000002,59.0,69.0
1125,238.96799512500002,239.1323093125,64.0,76.0
1126,239.20993012500003,239.47001025000003,67.0,82.0
1127,239.451865125,239.73513068750003,71.0,70.0
1128,239.69380012500002,239.97303343750002,62.0,66.0
1129,239.69380012500002,240.24017000000003,66.0,97.0
1130,239.935735125,240.69379812500003,57.0,57.0
1131,240.66154012500002,240.9448056875,66.0,85.0
1132,240.41960512500003,240.9609346875,64.0,75.0
1133,240.17767012500002,241.03653937500002,62.0,60.0
1134,239.69380012500002,241.12424081250003,50.0,66.0
1135,240.90347512500003,241.1806923125,67.0,69.0
1136,241.145410125,241.24621637500002,57.0,62.0
1137,241.145410125,241.36214356250002,69.0,62.0
1138,241.38734512500002,241.48613525000002,74.0,47.0
1139,241.38734512500002,241.54863512500003,72.0,47.0
1140,241.629280125,242.02645675000002,71.0,85.0
1141,242.35508512500002,242.55972181250002,69.0,72.0
1142,241.87121512500002,242.70488281250002,62.0,60.0
1143,242.11315012500003,243.0234305625,67.0,52.0
1144,241.629280125,243.15044643750002,55.0,69.0
1145,242.59702012500003,243.1585109375,71.0,80.0
1146,243.08089012500002,243.41052656250002,62.0,63.0
1147,243.322825125,243.528469875,74.0,42.0
1148,243.56476012500002,243.867178875,71.0,76.0
1149,243.56476012500002,243.887340125,64.0,82.0
1150,243.56476012500002,243.91455781250002,66.0,78.0
1151,244.04863012500002,244.3218150625,64.0,75.0
1152,244.29056512500003,244.44983900000003,66.0,59.0
1153,243.80669512500003,244.60911287500002,59.0,62.0
1154,244.532500125,245.03249912500002,71.0,66.0
1155,244.532500125,245.03854750000002,66.0,73.0
1156,244.532500125,245.05870875000002,63.0,80.0
1157,243.56476012500002,245.0919748125,47.0,69.0
1158,244.532500125,245.15951500000003,51.0,88.0
1159,245.016370125,245.18874881250002,59.0,88.0
1160,245.50024012500003,245.9206021875,72.0,80.0
1161,245.50024012500003,246.04156968750002,67.0,91.0
1162,245.50024012500003,246.06677125000002,64.0,85.0
1163,246.226045125,246.4206011875,64.0,76.0
1164,245.98411012500003,246.54459287500003,60.0,73.0
1165,246.46798012500003,246.7451973125,64.0,66.0
1166,246.46798012500003,246.79761656250002,67.0,76.0
1167,245.74217512500002,247.01031775,55.0,67.0
1168,246.95185012500002,247.17059968750002,64.0,85.0
1169,245.50024012500003,247.1998335,48.0,72.0
1170,246.709915125,247.20890606250003,60.0,72.0
1171,247.19378512500003,247.3701960625,55.0,70.0
1172,247.19378512500003,247.37624443750002,67.0,82.0
1173,247.43572012500002,247.58188918750002,62.0,78.0
1174,247.43572012500002,247.7693888125,66.0,95.0
1175,247.919590125,248.02241250000003,64.0,70.0
1176,247.919590125,248.07583981250002,67.0,82.0
1177,248.16152512500003,248.31172643750003,66.0,101.0
1178,248.16152512500003,248.31676675000003,69.0,82.0
1179,247.67765512500003,248.52644375000003,57.0,52.0
1180,248.403460125,248.65749187500003,62.0,58.0
1181,247.43572012500002,248.9931766875,50.0,72.0
1182,248.88733012500003,248.9931766875,57.0,69.0
1183,248.88733012500003,249.03753143750004,62.0,85.0
1184,249.37120012500003,249.68974787500002,64.0,73.0
1185,249.37120012500003,249.69378012500002,71.0,73.0
1186,249.37120012500003,249.69882043750002,67.0,76.0
1187,249.37120012500003,250.01031175000003,52.0,70.0
1188,249.85507012500003,250.137327625,64.0,76.0
1189,249.613135125,250.2976095625,59.0,69.0
1190,250.097005125,250.38934325000002,71.0,69.0
1191,250.33894012500002,250.6968023125,62.0,73.0
1192,250.33894012500002,250.69982650000003,69.0,62.0
1193,250.33894012500002,250.71595550000004,66.0,73.0
1194,250.82281012500002,250.88732612500002,66.0,66.0
1195,250.33894012500002,250.91051156250003,50.0,72.0
1196,250.58087512500003,250.93470506250003,59.0,62.0
1197,250.82281012500002,251.11313212500002,62.0,85.0
1198,251.06474512500003,251.20385775000003,71.0,57.0
1199,251.306680125,252.22300893750003,64.0,82.0
1200,251.306680125,252.4256295,67.0,88.0
1201,251.306680125,252.50929868750003,71.0,78.0
1202,253.24216012500003,253.79256225000003,85.0,61.0
1203,253.40647431250002,253.87320725000004,88.0,47.0
1204,253.44780487500003,253.87320725000004,91.0,47.0
1205,253.51534506250002,253.87320725000004,95.0,46.0
1206,251.306680125,254.22602912500003,61.0,99.0
1207,251.306680125,254.25627100000003,49.0,75.0
1208,257.113120125,258.149408375,60.0,67.0
1209,257.113120125,258.169569625,64.0,64.0
1210,257.113120125,258.17360187500003,67.0,66.0
1211,257.113120125,258.29960968750004,45.0,70.0
1212,257.113120125,258.30364193750006,57.0,67.0
1213,259.048600125,260.2229929375,47.0,63.0
1214,259.048600125,260.258275125,66.0,70.0
1215,259.048600125,260.26432350000005,69.0,66.0
1216,259.048600125,260.2653315625,59.0,58.0
1217,259.048600125,260.288517,62.0,67.0
1218,260.984080125,261.46190175000004,67.0,60.0
1219,260.984080125,261.51532906250003,62.0,55.0
1220,260.984080125,261.55061125000003,71.0,58.0
1221,261.467950125,262.07480375,59.0,29.0
1222,261.95182012500004,262.417545,69.0,59.0
1223,261.95182012500004,262.4508110625,64.0,51.0
1224,262.798592625,263.47802675,64.0,41.0
1225,262.91956012500003,263.4810509375,68.0,50.0
1226,262.43569012500006,263.80363093750003,59.0,44.0
1227,262.91956012500003,263.85100987500005,71.0,51.0
1228,263.645365125,263.8701630625,64.0,49.0
1229,260.984080125,263.95383225,52.0,69.0
1230,264.81068537500005,265.282458625,64.0,62.0
1231,264.82479825,265.2935473125,67.0,63.0
1232,264.8177418125,265.37620843750005,60.0,64.0
1233,265.8439494375,266.2935453125,60.0,53.0
1234,264.8278224375,266.3278194375,45.0,62.0
1235,265.32681337500003,266.3379000625,52.0,56.0
1236,265.82479625,266.375198375,57.0,45.0
1237,266.34697262500003,266.6685445625,67.0,64.0
1238,266.82580231250006,269.820756,66.0,60.0
1239,266.83588293750006,269.90341712500003,62.0,63.0
1240,266.83084262500006,269.90543325,69.0,66.0
1241,266.82177006250004,269.9770056875,47.0,55.0
1242,266.8378990625,270.0052314375,59.0,49.0
1243,270.82680237500006,271.37720450000006,64.0,60.0
1244,270.81672175000006,271.39333350000004,69.0,67.0
1245,272.06470312500005,272.26631562500006,69.0,35.0
1246,272.30663812500006,272.40643631250003,71.0,52.0
1247,272.62014556250006,272.9628868125,76.0,32.0
1248,272.919540125,273.3600634375,81.0,57.0
1249,271.53043,273.617119375,59.0,66.0
1250,271.2390999375,273.6342564375,57.0,55.0
1251,271.78446175,273.637280625,64.0,78.0
1252,270.82781043750003,273.72800625,52.0,69.0
1253,273.32478125,273.8771995,83.0,35.0
1254,273.867118875,274.665504375,88.0,44.0
1255,274.81368956250003,275.70179262500005,76.0,37.0
1256,275.02336656250003,275.72195387500005,83.0,40.0
1257,274.90441518750004,275.7310264375,80.0,39.0
1258,275.1019954375,275.80259887500006,88.0,41.0
1259,274.975987625,275.806631125,40.0,44.0
