,start,end,pitch,velocity
0,43.28234517083333,43.56176637916666,62.0,97.0
1,43.67682217083333,43.913508370833334,62.0,93.0
2,44.071299170833335,44.340858454166664,62.0,95.0
3,44.46577617083333,44.7090369875,62.0,95.0
4,44.86025317083333,45.11173225833333,62.0,100.0
5,45.254730170833334,45.55058792083333,65.0,92.0
6,45.64920717083333,45.93027203333333,67.0,95.0
7,46.04368417083333,46.30831249166666,65.0,93.0
8,46.43816117083333,47.710349495833334,62.0,99.0
9,48.01606917083333,48.98253782083333,60.0,95.0
10,48.80502317083333,49.551242162499996,57.0,88.0
11,49.593977170833334,49.84545625833333,62.0,99.0
12,49.98845417083333,50.21034748333333,62.0,86.0
13,50.38293117083333,50.59167525,62.0,95.0
14,50.77740817083333,51.035461874999996,62.0,97.0
15,51.171885170833335,51.4052840625,65.0,100.0
16,51.56636217083333,51.83756510833333,67.0,99.0
17,51.96083917083333,52.406269449999996,69.0,127.0
18,52.35531617083333,52.613369875,67.0,117.0
19,52.74979317083333,53.89870743333333,67.0,100.0
20,55.90560917083333,56.13736440833333,62.0,107.0
21,56.30008617083333,56.50718659583333,62.0,99.0
22,56.694563170833334,56.895088979166665,62.0,100.0
23,57.08904017083333,57.3027152125,62.0,99.0
24,57.48351717083333,57.721847024999995,65.0,102.0
25,57.87799417083333,58.157415379166665,67.0,102.0
26,58.272471170833334,58.56011065,69.0,122.0
27,58.66694817083333,58.750774533333335,67.0,99.0
28,59.06142517083333,59.87339032916667,67.0,117.0
29,60.24485617083333,60.3500500375,69.0,102.0
30,60.63933317083333,61.43814909583333,67.0,96.0
31,61.42828717083333,61.96576208333333,65.0,77.0
32,62.21724117083333,62.4703639125,62.0,100.0
33,62.611718170833335,62.866484566666664,62.0,97.0
34,63.00619517083333,63.2346631,62.0,96.0
35,63.40067217083333,63.64064567916667,62.0,99.0
36,63.795149170833334,64.0778576875,60.0,99.0
37,64.18962617083334,64.4723346875,62.0,97.0
38,64.58410317083333,64.75997416666667,60.0,96.0
39,64.97858017083333,65.28758715416666,55.0,83.0
40,65.37305717083333,66.5630627875,57.0,93.0
41,68.52887317083334,68.80829437916667,62.0,97.0
42,68.92335017083333,69.16003637083332,62.0,93.0
43,69.31782717083333,69.58738645416666,62.0,95.0
44,69.71230417083333,69.9555649875,62.0,95.0
45,70.10678117083333,70.35826025833333,62.0,100.0
46,70.50125817083332,70.79711592083333,65.0,92.0
47,70.89573517083333,71.17680003333334,67.0,95.0
48,71.29021217083333,71.55484049166667,65.0,93.0
49,71.68468917083334,72.95687749583333,62.0,99.0
50,73.26259717083333,74.22906582083333,60.0,95.0
51,74.05155117083333,74.7977701625,57.0,88.0
52,74.84050517083332,75.09198425833333,62.0,99.0
53,75.23498217083333,75.3204521875,62.0,97.0
54,75.43222067083333,75.5078287625,62.0,96.0
55,75.62945917083333,75.83820324999999,62.0,95.0
56,76.02393617083334,76.281989875,62.0,97.0
57,76.41841317083333,76.6518120625,65.0,100.0
58,76.81289017083333,77.08409310833333,67.0,99.0
59,77.20736717083334,77.65279745,69.0,127.0
60,77.60184417083333,77.859897875,67.0,117.0
61,77.99632117083333,79.14523543333333,67.0,100.0
62,81.15213717083333,81.38389240833332,62.0,107.0
63,81.54661417083334,81.75371459583333,62.0,99.0
64,81.94109117083333,82.14161697916667,62.0,100.0
65,82.33556817083333,82.5492432125,62.0,99.0
66,82.73004517083334,82.968375025,65.0,102.0
67,83.12452217083333,83.40394337916666,67.0,102.0
68,83.51899917083333,83.80663865,69.0,122.0
69,83.91347617083333,83.994015225,67.0,97.0
70,84.11071467083333,84.21262122916666,67.0,99.0
71,84.30795317083333,85.11991832916667,67.0,117.0
72,85.49138417083333,85.5965780375,69.0,102.0
73,85.88586117083334,86.68467709583334,67.0,96.0
74,86.67481517083333,87.21229008333333,65.0,77.0
75,87.46376917083333,87.62484727916666,57.0,99.0
76,87.85824617083333,87.938785225,57.0,97.0
77,88.05548467083334,88.1409546875,57.0,93.0
78,88.25272317083333,88.431881475,57.0,107.0
79,88.64720017083333,88.92826503333333,57.0,107.0
80,89.04167717083332,89.27343240833333,65.0,107.0
81,89.43615417083333,89.65804748333333,62.0,107.0
82,89.83063117083333,90.11498334166666,60.0,100.0
83,90.22510817083334,90.43713955833333,62.0,99.0
84,90.61958517083333,91.8342456,62.0,122.0
85,93.77540117083333,93.94141024166666,69.0,122.0
86,94.16987817083333,94.26192280416666,69.0,107.0
87,94.36711667083333,94.45423034166666,69.0,85.0
88,94.56435517083332,94.7385825125,69.0,112.0
89,94.95883217083333,95.1231975875,72.0,122.0
90,95.35330917083333,96.00748352916666,69.0,102.0
91,96.14226317083333,96.43154630416666,67.0,127.0
92,96.53674017083333,96.80794310833333,69.0,100.0
93,96.93121717083334,97.2336495375,67.0,127.0
94,97.32569417083333,97.5788169125,67.0,117.0
95,97.72017117083332,97.92234063333333,67.0,112.0
96,98.11464817083333,98.33161052083334,67.0,112.0
97,98.50912517083333,98.67020327916666,67.0,112.0
98,98.90360217083332,99.09919701666666,69.0,97.0
99,99.10084067083334,99.28328628333333,67.0,75.0
100,99.29807917083333,99.7977500375,65.0,89.0
101,100.08703317083334,100.32700667916666,62.0,107.0
102,100.48151017083333,100.69847252083333,62.0,97.0
103,100.87598717083333,101.12253529583333,62.0,112.0
104,101.27046417083334,101.51208133333333,65.0,107.0
105,101.66494117083333,102.01997047083333,65.0,107.0
106,102.45389517083333,102.83522293749999,62.0,122.0
107,102.84837217083333,102.98150815833333,60.0,107.0
108,103.24284917083332,103.52884499583332,65.0,112.0
109,103.63732617083333,103.87894333333332,67.0,102.0
110,104.03180317083333,104.71556330416666,69.0,117.0
111,104.82075717083333,105.848041025,67.0,112.0
112,106.39866517083333,106.63699502499999,69.0,107.0
113,106.79314217083333,107.00846086666667,69.0,102.0
114,107.18761917083333,107.39636325,69.0,107.0
115,107.58209617083332,107.84343718333334,72.0,117.0
116,107.97657317083333,108.32174054583334,74.0,127.0
117,108.76552717083332,109.04659203333333,72.0,127.0
118,109.16000417083333,109.42956345416667,69.0,112.0
119,109.55448117083333,109.78623640833332,67.0,107.0
120,109.94895817083334,110.06072665416666,67.0,102.0
121,110.34343517083333,110.54067367083333,67.0,100.0
122,110.73791217083333,110.82173853333333,69.0,127.0
123,110.93515067083332,111.03870088333333,69.0,96.0
124,111.13238917083333,111.46276365833333,67.0,117.0
125,111.52686617083333,111.725748325,69.0,102.0
126,111.72410467083333,111.89833201249999,67.0,83.0
127,111.92134317083332,112.38814095416666,65.0,97.0
128,112.71029717083333,112.94698337083332,62.0,117.0
129,113.10477417083332,113.36940249166666,62.0,102.0
130,113.49925117083333,113.78195968749999,65.0,117.0
131,113.89372817083333,114.1221961,67.0,99.0
132,114.28820517083334,114.72706083333333,69.0,117.0
133,115.07715917083333,115.4683488625,67.0,107.0
134,115.47163617083334,115.71654064166667,69.0,122.0
135,115.86611317083333,116.08800648333333,65.0,112.0
136,116.26059017083332,116.44139212916666,62.0,99.0
137,116.65506717083333,117.05776244166667,60.0,100.0
138,117.04954417083333,117.24020805416666,62.0,100.0
139,117.44402117083332,118.195171125,62.0,122.0
140,119.02192917083333,119.18793824166666,69.0,122.0
141,119.41640617083333,119.50845080416666,69.0,107.0
142,119.61364467083332,119.70075834166666,69.0,85.0
143,119.81088317083334,119.9851105125,69.0,112.0
144,120.20536017083333,120.3697255875,72.0,122.0
145,120.59983717083333,121.25401152916666,69.0,102.0
146,121.38879117083333,121.67807430416666,67.0,127.0
147,121.78326817083332,122.05447110833333,69.0,100.0
148,122.17774517083333,122.4801775375,67.0,127.0
149,122.57222217083333,122.8253449125,67.0,117.0
150,122.96669917083332,123.16886863333333,67.0,112.0
151,123.36117617083333,123.57813852083333,67.0,112.0
152,123.75565317083333,123.91673127916667,67.0,112.0
153,124.15013017083334,124.34572501666666,69.0,97.0
154,124.34736867083333,124.52981428333332,67.0,75.0
155,124.54460717083333,125.04427803749999,65.0,89.0
156,125.33356117083333,125.57353467916666,62.0,107.0
157,125.72803817083333,125.94500052083333,62.0,97.0
158,126.12251517083332,126.36906329583333,62.0,112.0
159,126.51699217083333,126.75860933333333,65.0,107.0
160,126.91146917083333,127.26649847083333,65.0,107.0
161,127.70042317083333,128.0817509375,62.0,122.0
162,128.09490017083334,128.22803615833334,60.0,107.0
163,128.48937717083334,128.77537299583332,65.0,112.0
164,128.88385417083333,129.12547133333334,67.0,102.0
165,129.27833117083333,129.96209130416665,69.0,117.0
166,130.06728517083332,131.094569025,67.0,112.0
167,131.64519317083332,131.883523025,69.0,107.0
168,132.03967017083332,132.25498886666665,69.0,102.0
169,132.43414717083334,132.64289125,69.0,107.0
170,132.82862417083334,133.08996518333333,72.0,117.0
171,133.22310117083333,133.56826854583332,74.0,127.0
172,134.01205517083332,134.29312003333334,72.0,127.0
173,134.40653217083332,134.67609145416665,69.0,112.0
174,134.80100917083334,135.03276440833332,67.0,107.0
175,135.19548617083333,135.30725465416666,67.0,102.0
176,135.58996317083333,135.78720167083333,67.0,100.0
177,135.98444017083332,136.06826653333331,69.0,127.0
178,136.18167867083332,136.28522888333333,69.0,96.0
179,136.37891717083332,136.70929165833334,67.0,117.0
180,136.77339417083334,136.972276325,69.0,102.0
181,136.97063267083334,137.1448600125,67.0,83.0
182,137.16787117083334,137.63466895416667,65.0,97.0
183,137.95682517083333,138.19351137083333,62.0,117.0
184,138.35130217083332,138.61593049166666,62.0,102.0
185,138.74577917083332,139.0284876875,65.0,117.0
186,139.14025617083334,139.3687241,67.0,99.0
187,139.53473317083333,139.97358883333334,69.0,117.0
188,140.32368717083332,140.7148768625,67.0,107.0
189,140.71816417083332,140.96306864166667,69.0,122.0
190,141.11264117083334,141.33453448333333,65.0,112.0
191,141.50711817083334,141.68792012916666,62.0,99.0
192,141.90159517083333,142.30429044166667,60.0,100.0
193,142.29607217083333,142.48673605416667,62.0,100.0
194,142.69054917083332,143.44169912499999,62.0,122.0
195,172.67080117083333,172.95022237916666,62.0,97.0
196,173.06527817083332,173.30196437083333,62.0,93.0
197,173.45975517083332,173.72931445416665,62.0,95.0
198,173.85423217083334,174.0974929875,62.0,95.0
199,174.24870917083334,174.50018825833334,62.0,100.0
200,174.64318617083333,174.93904392083334,65.0,92.0
201,175.03766317083333,175.31872803333331,67.0,95.0
202,175.43214017083332,175.69676849166666,65.0,93.0
203,175.82661717083332,177.09880549583332,62.0,99.0
204,177.40452517083332,178.37099382083332,60.0,95.0
205,178.1934791708333,178.9396981625,57.0,88.0
206,178.98243317083333,179.23391225833333,62.0,99.0
207,179.37691017083333,179.59880348333334,62.0,86.0
208,179.77138717083332,179.98013125,62.0,95.0
209,180.16586417083332,180.423917875,62.0,97.0
210,180.56034117083334,180.7937400625,65.0,100.0
211,180.95481817083333,181.22602110833333,67.0,99.0
212,181.34929517083333,181.79472545,69.0,127.0
213,181.74377217083332,182.00182587499998,67.0,117.0
214,182.13824917083332,183.28716343333332,67.0,100.0
215,185.29406517083333,185.52582040833332,62.0,107.0
216,185.68854217083333,185.89564259583332,62.0,99.0
217,186.08301917083332,186.28354497916666,62.0,100.0
218,186.47749617083332,186.6911712125,62.0,99.0
219,186.87197317083331,187.110303025,65.0,102.0
220,187.26645017083334,187.54587137916667,67.0,102.0
221,187.66092717083333,187.94856665,69.0,122.0
222,188.05540417083333,188.13923053333332,67.0,99.0
223,188.44988117083332,189.26184632916667,67.0,117.0
224,189.63331217083334,189.7385060375,69.0,102.0
225,190.02778917083333,190.82660509583332,67.0,96.0
226,190.81674317083332,191.35421808333334,65.0,77.0
227,191.60569717083334,191.8588199125,62.0,100.0
228,192.00017417083333,192.25494056666665,62.0,97.0
229,192.39465117083333,192.6231191,62.0,96.0
230,192.78912817083332,193.02910167916667,62.0,99.0
231,193.18360517083332,193.4663136875,60.0,99.0
232,193.57808217083334,193.86079068749999,62.0,97.0
233,193.97255917083334,194.14843016666666,60.0,96.0
234,194.36703617083333,194.67604315416665,55.0,83.0
235,194.76151317083333,195.9515187875,57.0,93.0
236,197.91732917083334,198.19675037916667,62.0,97.0
237,198.31180617083334,198.54849237083332,62.0,93.0
238,198.70628317083333,198.97584245416667,62.0,95.0
239,199.10076017083333,199.3440209875,62.0,95.0
240,199.49523717083332,199.74671625833332,62.0,100.0
241,199.88971417083332,200.18557192083333,65.0,92.0
242,200.28419117083334,200.56525603333333,67.0,95.0
243,200.67866817083333,200.94329649166667,65.0,93.0
244,201.07314517083333,202.34533349583333,62.0,99.0
245,202.65105317083334,203.61752182083333,60.0,95.0
246,203.44000717083333,204.1862261625,57.0,88.0
247,204.22896117083332,204.48044025833332,62.0,99.0
248,204.62343817083334,204.7089081875,62.0,97.0
249,204.82067667083334,204.8962847625,62.0,96.0
250,205.01791517083333,205.22665924999998,62.0,95.0
251,205.41239217083333,205.67044587499998,62.0,97.0
252,205.80686917083332,206.0402680625,65.0,100.0
253,206.20134617083332,206.47254910833334,67.0,99.0
254,206.5958231708333,207.04125345,69.0,127.0
255,206.99030017083334,207.248353875,67.0,117.0
256,207.38477717083333,208.53369143333333,67.0,100.0
257,210.54059317083332,210.77234840833333,62.0,107.0
258,210.9350701708333,211.14217059583333,62.0,99.0
259,211.32954717083334,211.53007297916665,62.0,100.0
260,211.72402417083333,211.9376992125,62.0,99.0
261,212.11850117083333,212.356831025,65.0,102.0
262,212.51297817083332,212.79239937916665,67.0,102.0
263,212.90745517083332,213.19509465,69.0,122.0
264,213.30193217083334,213.382471225,67.0,97.0
265,213.49917067083334,213.60107722916666,67.0,99.0
266,213.69640917083333,214.50837432916666,67.0,117.0
267,214.87984017083332,214.9850340375,69.0,102.0
268,215.2743171708333,216.07313309583333,67.0,96.0
269,216.06327117083333,216.60074608333332,65.0,77.0
270,216.85222517083332,217.01330327916665,57.0,99.0
271,217.24670217083332,217.327241225,57.0,97.0
272,217.4439406708333,217.5294106875,57.0,93.0
273,217.64117917083334,217.820337475,57.0,107.0
274,218.03565617083333,218.31672103333332,57.0,107.0
275,218.43013317083333,218.66188840833334,65.0,107.0
276,218.82461017083332,219.04650348333334,62.0,107.0
277,219.21908717083332,219.50343934166665,60.0,100.0
278,219.6135641708333,219.82559555833333,62.0,99.0
279,220.00804117083334,221.2227016,62.0,122.0
280,223.16385717083332,223.32986624166665,69.0,122.0
281,223.55833417083332,223.65037880416665,69.0,107.0
282,223.75557267083332,223.84268634166665,69.0,85.0
283,223.95281117083331,224.12703851249998,69.0,112.0
284,224.34728817083334,224.5116535875,72.0,122.0
285,224.74176517083333,225.39593952916667,69.0,102.0
286,225.53071917083332,225.82000230416665,67.0,127.0
287,225.92519617083332,226.19639910833334,69.0,100.0
288,226.31967317083334,226.6221055375,67.0,127.0
289,226.71415017083334,226.9672729125,67.0,117.0
290,227.10862717083333,227.31079663333333,67.0,112.0
291,227.50310417083332,227.7200665208333,67.0,112.0
292,227.89758117083332,228.05865927916665,67.0,112.0
293,228.29205817083331,228.48765301666666,69.0,97.0
294,228.4892966708333,228.67174228333332,67.0,75.0
295,228.68653517083334,229.1862060375,65.0,89.0
296,229.47548917083333,229.71546267916665,62.0,107.0
297,229.86996617083332,230.08692852083334,62.0,97.0
298,230.26444317083332,230.51099129583332,62.0,112.0
299,230.6589201708333,230.90053733333332,65.0,107.0
300,231.05339717083334,231.40842647083332,65.0,107.0
301,231.84235117083333,232.22367893749998,62.0,122.0
302,232.23682817083332,232.36996415833332,60.0,107.0
303,232.63130517083331,232.91730099583333,65.0,112.0
304,233.02578217083334,233.26739933333332,67.0,102.0
305,233.42025917083333,234.10401930416666,69.0,117.0
306,234.20921317083332,235.236497025,67.0,112.0
307,235.78712117083333,236.025451025,69.0,107.0
308,236.18159817083333,236.39691686666666,69.0,102.0
309,236.57607517083332,236.78481925,69.0,107.0
310,236.97055217083332,237.2318931833333,72.0,117.0
311,237.36502917083334,237.71019654583333,74.0,127.0
312,238.15398317083333,238.43504803333332,72.0,127.0
313,238.54846017083332,238.81801945416666,69.0,112.0
314,238.94293717083332,239.17469240833333,67.0,107.0
315,239.3374141708333,239.44918265416666,67.0,102.0
316,239.73189117083334,239.92912967083333,67.0,100.0
317,240.12636817083333,240.21019453333332,69.0,127.0
318,240.32360667083333,240.42715688333334,69.0,96.0
319,240.52084517083333,240.85121965833332,67.0,117.0
320,240.91532217083332,241.114204325,69.0,102.0
321,241.11256067083332,241.28678801249998,67.0,83.0
322,241.30979917083332,241.77659695416665,65.0,97.0
323,242.09875317083333,242.3354393708333,62.0,117.0
324,242.49323017083333,242.75785849166667,62.0,102.0
325,242.88770717083332,243.1704156875,65.0,117.0
326,243.28218417083332,243.5106521,67.0,99.0
327,243.6766611708333,244.11551683333332,69.0,117.0
328,244.46561517083333,244.85680486249998,67.0,107.0
329,244.86009217083333,245.10499664166665,69.0,122.0
330,245.25456917083332,245.47646248333334,65.0,112.0
331,245.64904617083332,245.82984812916666,62.0,99.0
332,246.04352317083334,246.44621844166664,60.0,100.0
333,246.43800017083333,246.62866405416665,62.0,100.0
334,246.83247717083333,247.583627125,62.0,122.0
335,248.41038517083334,248.57639424166666,69.0,122.0
336,248.80486217083333,248.89690680416666,69.0,107.0
337,249.00210067083333,249.08921434166666,69.0,85.0
338,249.19933917083333,249.3735665125,69.0,112.0
339,249.59381617083332,249.7581815875,72.0,122.0
340,249.98829317083332,250.64246752916665,69.0,102.0
341,250.77724717083333,251.06653030416666,67.0,127.0
342,251.17172417083333,251.44292710833332,69.0,100.0
343,251.56620117083332,251.8686335375,67.0,127.0
344,251.96067817083332,252.2138009125,67.0,117.0
345,252.3551551708333,252.55732463333334,67.0,112.0
346,252.74963217083334,252.96659452083333,67.0,112.0
347,253.14410917083333,253.30518727916666,67.0,112.0
348,253.53858617083333,253.73418101666667,69.0,97.0
349,253.73582467083332,253.91827028333333,67.0,75.0
350,253.93306317083332,254.43273403749998,65.0,89.0
351,254.7220171708333,254.96199067916666,62.0,107.0
352,255.11649417083333,255.33345652083332,62.0,97.0
353,255.51097117083333,255.75751929583333,62.0,112.0
354,255.90544817083332,256.14706533333333,65.0,107.0
355,256.2999251708333,256.65495447083333,65.0,107.0
356,257.0888791708333,257.4702069375,62.0,122.0
357,257.4833561708333,257.6164921583333,60.0,107.0
358,257.8778331708333,258.16382899583334,65.0,112.0
359,258.27231017083335,258.5139273333333,67.0,102.0
360,258.66678717083335,259.35054730416664,69.0,117.0
361,259.45574117083333,260.483025025,67.0,112.0
362,261.0336491708333,261.271979025,69.0,107.0
363,261.4281261708333,261.64344486666664,69.0,102.0
364,261.8226031708333,262.03134725,69.0,107.0
365,262.2170801708333,262.47842118333335,72.0,117.0
366,262.61155717083335,262.9567245458333,74.0,127.0
367,263.40051117083334,263.68157603333333,72.0,127.0
368,263.79498817083334,264.06454745416664,69.0,112.0
369,264.18946517083333,264.42122040833334,67.0,107.0
370,264.5839421708333,264.69571065416665,67.0,102.0
371,264.9784191708333,265.17565767083335,67.0,100.0
372,265.3728961708333,265.45672253333333,69.0,127.0
373,265.57013467083334,265.67368488333335,69.0,96.0
374,265.7673731708333,266.09774765833333,67.0,117.0
375,266.1618501708333,266.360732325,69.0,102.0
376,266.35908867083333,266.5333160125,67.0,83.0
377,266.5563271708333,267.02312495416663,65.0,97.0
378,267.34528117083335,267.5819673708333,62.0,117.0
379,267.73975817083334,268.00438649166665,62.0,102.0
380,268.13423517083334,268.4169436875,65.0,117.0
381,268.52871217083333,268.75718009999997,67.0,99.0
382,268.9231891708333,269.3620448333333,69.0,117.0
383,269.7121431708333,270.1033328625,67.0,107.0
384,270.1066201708333,270.3515246416667,69.0,122.0
385,270.5010971708333,270.7229904833333,65.0,112.0
386,270.8955741708333,271.07637612916665,62.0,99.0
387,271.29005117083335,271.69274644166666,60.0,100.0
388,271.68452817083335,271.87519205416663,62.0,100.0
389,272.07900517083334,272.830155125,62.0,122.0
