,start,end,pitch,velocity
0,15.668955170833334,16.594332466666668,50.0,85.0
1,16.063432170833334,17.286310870833333,57.0,73.0
2,16.852386170833334,17.315896645833334,50.0,79.0
3,15.274478170833333,17.325758570833333,45.0,74.0
4,14.880001170833333,17.378355504166667,38.0,88.0
5,17.246863170833333,18.070333908333332,62.0,99.0
6,16.457909170833332,18.090057758333334,65.0,99.0
7,17.64134017083333,18.103206991666667,57.0,93.0
8,18.824771170833333,19.863560604166665,48.0,92.0
9,19.219248170833332,20.463494375,55.0,79.0
10,18.43029417083333,20.466781683333334,43.0,56.0
11,18.035817170833333,20.484861879166665,36.0,89.0
12,20.008202170833332,20.524309579166665,48.0,67.0
13,20.402679170833334,21.24587375833333,60.0,85.0
14,20.797156170833333,21.250804720833333,55.0,77.0
15,19.613725170833334,21.268884916666664,64.0,100.0
16,21.586110170833333,22.1301597,50.0,60.0
17,22.375064170833333,22.928975625,50.0,82.0
18,21.98058717083333,23.5897246,55.0,85.0
19,21.19163317083333,23.658758074999998,43.0,81.0
20,23.164018170833334,23.694918466666667,50.0,56.0
21,23.952972170833334,24.38196590833333,55.0,81.0
22,23.558495170833332,24.388540525,58.0,112.0
23,22.76954117083333,24.400046104166666,62.0,107.0
24,24.74192617083333,25.32377974583333,52.0,76.0
25,25.53088017083333,25.999321608333332,52.0,76.0
26,25.136403170833333,26.303397629166668,57.0,85.0
27,26.31983417083333,26.684725395833333,52.0,88.0
28,24.347449170833332,26.766908104166667,45.0,83.0
29,25.925357170833333,26.964146604166665,61.0,92.0
30,27.108788170833332,27.580516916666667,61.0,100.0
31,25.925357170833333,27.647906737499998,64.0,86.0
32,26.714311170833334,27.904316787499997,57.0,95.0
33,27.897742170833332,28.430286120833333,50.0,78.0
34,27.503265170833334,28.6242373125,38.0,97.0
35,28.686696170833333,29.268549745833333,57.0,86.0
36,28.29221917083333,29.5413963375,65.0,100.0
37,29.475650170833333,29.9408043,61.0,61.0
38,29.08117317083333,30.144617416666666,37.0,86.0
39,30.264604170833334,30.73304560833333,61.0,61.0
40,29.87012717083333,31.176832233333332,65.0,93.0
41,30.659081170833332,31.88195987083333,36.0,76.0
42,31.053558170833334,31.929625841666667,55.0,42.0
43,31.84251217083333,32.71857984166667,60.0,85.0
44,31.448035170833332,32.84185390416667,65.0,89.0
45,32.631466170833335,33.167297429166666,59.0,60.0
46,32.23698917083333,33.27084764166666,35.0,99.0
47,33.42042017083333,33.81489717083333,59.0,79.0
48,33.02594317083333,33.81489717083333,65.0,97.0
49,33.81489717083333,34.49043903333333,64.0,78.0
50,33.81489717083333,34.52495577083333,60.0,81.0
51,33.81489717083333,34.715619654166666,57.0,66.0
52,33.81489717083333,35.2120032125,45.0,82.0
53,34.60385117083333,35.279393033333335,64.0,82.0
54,34.60385117083333,35.28925495833333,60.0,70.0
55,35.392805170833334,35.690306575,45.0,99.0
56,35.392805170833334,35.76591466666667,57.0,107.0
57,35.78728217083333,36.07327799583333,48.0,61.0
58,35.78728217083333,36.104507425,60.0,122.0
59,36.18175917083333,36.51213365833333,65.0,112.0
60,36.18175917083333,36.51542096666667,53.0,93.0
61,36.57623617083333,36.893461425,52.0,90.0
62,36.57623617083333,36.95098932083333,64.0,122.0
63,36.970713170833335,39.55946848333333,62.0,107.0
64,36.970713170833335,39.5611121375,50.0,107.0
65,39.732052170833335,40.060783004166666,48.0,122.0
66,39.732052170833335,40.10516166666667,60.0,127.0
67,40.12652917083333,42.5591373375,50.0,112.0
68,40.12652917083333,42.864857012499996,62.0,127.0
69,44.071299170833335,45.00160742916667,50.0,89.0
70,44.46577617083333,45.749470075,57.0,83.0
71,43.28234517083333,46.176820158333335,38.0,78.0
72,43.67682217083333,46.45788502083333,45.0,57.0
73,45.254730170833334,46.546642345833334,50.0,68.0
74,46.04368417083333,47.496674454166666,57.0,73.0
75,44.86025317083333,47.83033625,65.0,100.0
76,45.64920717083333,47.86156567916667,62.0,82.0
77,47.22711517083333,48.293846725,50.0,85.0
78,47.62159217083333,48.87898760833333,57.0,73.0
79,46.43816117083333,49.457553874999995,38.0,69.0
80,48.410546170833335,49.556173125,50.0,71.0
81,46.832638170833334,49.593977170833334,45.0,42.0
82,49.19950017083333,49.593977170833334,57.0,74.0
83,48.80502317083333,49.593977170833334,62.0,90.0
84,48.01606917083333,49.593977170833334,65.0,92.0
85,50.38293117083333,51.34775616666666,50.0,89.0
86,49.593977170833334,52.00028687083333,38.0,89.0
87,50.77740817083333,52.01836706666666,57.0,93.0
88,49.98845417083333,52.03973457083333,45.0,44.0
89,51.56636217083333,52.15150305416667,50.0,92.0
90,51.96083917083333,52.784309908333334,62.0,97.0
91,51.171885170833335,52.79417183333333,65.0,102.0
92,52.35531617083333,52.85334338333333,57.0,97.0
93,53.933224170833334,54.37701079583333,58.0,69.0
94,53.14427017083333,54.43125138333333,50.0,73.0
95,53.53874717083333,54.70081066666666,55.0,83.0
96,54.72217817083333,55.159390179166664,50.0,69.0
97,52.74979317083333,55.19883787916667,43.0,78.0
98,55.11665517083333,55.908896479166664,58.0,100.0
99,54.32770117083333,55.93026398333333,62.0,100.0
100,55.511132170833335,55.9614934125,55.0,88.0
101,56.694563170833334,57.7169160625,50.0,75.0
102,56.30008617083333,58.26754020833333,45.0,48.0
103,55.90560917083333,58.274114825,38.0,86.0
104,57.08904017083333,58.3480792625,57.0,69.0
105,57.87799417083333,58.43848024166667,50.0,85.0
106,57.48351717083333,59.102516525,65.0,95.0
107,58.272471170833334,59.10416017916666,62.0,95.0
108,58.66694817083333,59.20277942916667,57.0,82.0
109,59.45590217083333,60.042686708333335,50.0,51.0
110,60.24485617083333,60.80205493333333,50.0,62.0
111,60.63933317083333,61.30336945416666,62.0,99.0
112,59.85037917083333,61.54169930833333,55.0,78.0
113,61.033810170833334,61.760305312499995,50.0,82.0
114,59.06142517083333,61.79317839583333,43.0,79.0
115,61.82276417083333,62.238608674999995,55.0,99.0
116,61.42828717083333,62.268194449999996,62.0,99.0
117,62.611718170833335,63.43025794583333,53.0,69.0
118,62.21724117083333,63.54367008333333,46.0,117.0
119,63.203433670833334,63.63735837083333,58.0,102.0
120,63.00619517083333,63.816516674999995,62.0,96.0
121,64.97858017083333,65.38127544166666,60.0,89.0
122,63.795149170833334,65.3894937125,48.0,89.0
123,64.58410317083333,65.41743583333333,64.0,97.0
124,64.18962617083334,65.46345815,55.0,77.0
125,65.37305717083333,66.29679081249999,41.0,69.0
126,65.76753417083333,66.41020295,48.0,62.0
127,66.16201117083334,66.82769110833333,53.0,88.0
128,66.55648817083333,66.95096517083333,60.0,86.0
129,67.34544217083334,67.97989267916667,52.0,86.0
130,66.95096517083333,68.02262768749999,45.0,89.0
131,67.73991917083333,68.431897575,61.0,100.0
132,67.73991917083333,68.44504680833333,64.0,90.0
133,68.13439617083333,68.4861381625,57.0,81.0
134,69.31782717083333,70.24813542916667,50.0,89.0
135,69.71230417083333,70.995998075,57.0,83.0
136,68.52887317083334,71.42334815833333,38.0,78.0
137,68.92335017083333,71.70441302083333,45.0,57.0
138,70.50125817083332,71.79317034583333,50.0,68.0
139,71.29021217083333,72.74320245416666,57.0,73.0
140,70.10678117083333,73.07686425,65.0,100.0
141,70.89573517083333,73.10809367916666,62.0,82.0
142,72.47364317083333,73.54037472499999,50.0,85.0
143,72.86812017083334,74.12551560833333,57.0,73.0
144,71.68468917083334,74.704081875,38.0,69.0
145,73.65707417083333,74.802701125,50.0,71.0
146,72.07916617083333,74.84050517083332,45.0,42.0
147,74.44602817083333,74.84050517083332,57.0,74.0
148,74.05155117083333,74.84050517083332,62.0,90.0
149,73.26259717083333,74.84050517083332,65.0,92.0
150,75.62945917083333,76.59428416666667,50.0,89.0
151,74.84050517083332,77.24681487083333,38.0,89.0
152,76.02393617083334,77.26489506666667,57.0,93.0
153,75.23498217083333,77.28626257083333,45.0,44.0
154,76.81289017083333,77.39803105416667,50.0,92.0
155,77.20736717083334,78.03083790833333,62.0,97.0
156,76.41841317083333,78.04069983333333,65.0,102.0
157,77.60184417083333,78.09987138333334,57.0,97.0
158,79.17975217083332,79.62353879583333,58.0,69.0
159,78.39079817083334,79.67777938333333,50.0,73.0
160,78.78527517083333,79.94733866666667,55.0,83.0
161,79.96870617083333,80.40591817916666,50.0,69.0
162,77.99632117083333,80.44536587916666,43.0,78.0
163,80.36318317083332,81.15542447916667,58.0,100.0
164,79.57422917083333,81.17679198333333,62.0,100.0
165,80.75766017083333,81.2080214125,55.0,88.0
166,81.94109117083333,82.9634440625,50.0,75.0
167,81.54661417083334,83.51406820833333,45.0,48.0
168,81.15213717083333,83.520642825,38.0,86.0
169,82.33556817083333,83.59460726249999,57.0,69.0
170,83.12452217083333,83.68500824166667,50.0,85.0
171,82.73004517083334,84.349044525,65.0,95.0
172,83.51899917083333,84.35068817916667,62.0,95.0
173,83.91347617083333,84.44930742916667,57.0,82.0
174,84.70243017083332,85.28921470833333,50.0,51.0
175,85.49138417083333,86.04858293333334,50.0,62.0
176,85.88586117083334,86.54989745416667,62.0,99.0
177,85.09690717083333,86.78822730833333,55.0,78.0
178,86.28033817083333,87.00683331249999,50.0,82.0
179,84.30795317083333,87.03970639583333,43.0,79.0
180,87.06929217083334,87.48513667499999,55.0,99.0
181,86.67481517083333,87.51472245,62.0,99.0
182,87.85824617083333,88.67678594583333,53.0,69.0
183,87.46376917083333,88.79019808333334,46.0,117.0
184,88.44996167083333,88.88388637083332,58.0,102.0
185,88.25272317083333,89.063044675,62.0,96.0
186,89.04167717083332,90.61958517083333,48.0,89.0
187,89.43615417083333,90.61958517083333,55.0,77.0
188,90.22510817083334,90.61958517083333,60.0,89.0
189,89.83063117083333,90.61958517083333,64.0,97.0
190,90.61958517083333,90.77408866249999,50.0,86.0
191,90.61958517083333,90.779019625,62.0,93.0
192,90.61958517083333,90.7839505875,38.0,65.0
193,90.61958517083333,90.78888155,57.0,88.0
194,90.61958517083333,90.79052520416667,65.0,92.0
195,91.01406217083333,91.09295757083333,62.0,82.0
196,91.01406217083333,91.0995321875,50.0,83.0
197,91.01406217083333,91.10775045833333,57.0,74.0
198,91.01406217083333,91.11761238333332,65.0,78.0
199,91.01406217083333,91.1192560375,38.0,74.0
200,91.21130067083332,91.291839725,62.0,88.0
201,91.21130067083332,91.2967706875,65.0,73.0
202,91.21130067083332,91.3066326125,38.0,68.0
203,91.21130067083332,91.30827626666667,50.0,88.0
204,91.21130067083332,91.30827626666667,57.0,74.0
205,91.40853917083334,91.962450625,50.0,90.0
206,91.40853917083334,91.97231255,38.0,65.0
207,91.40853917083334,91.97231255,62.0,95.0
208,91.40853917083334,91.9772435125,65.0,85.0
209,91.40853917083334,91.98381812916666,57.0,92.0
210,92.19749317083333,92.42924840833334,38.0,77.0
211,92.19749317083333,92.44568495,50.0,86.0
212,92.19749317083333,92.46705245416666,57.0,92.0
213,92.19749317083333,92.46869610833333,62.0,96.0
214,92.19749317083333,92.4802016875,65.0,90.0
215,92.59197017083333,92.82208175416666,38.0,73.0
216,92.59197017083333,92.82865637083333,50.0,75.0
217,92.59197017083333,92.84016195,62.0,66.0
218,92.59197017083333,92.85166752916666,65.0,64.0
219,92.59197017083333,92.8549548375,57.0,71.0
220,92.98644717083333,93.19354759583334,38.0,70.0
221,92.98644717083333,93.205053175,50.0,73.0
222,92.98644717083333,93.23299529583333,62.0,88.0
223,92.98644717083333,93.23792625833333,57.0,78.0
224,92.98644717083333,93.23792625833333,65.0,81.0
225,93.38092417083332,93.64719614583333,38.0,56.0
226,93.38092417083332,93.67185095833334,62.0,99.0
227,93.38092417083332,93.67842557499999,50.0,96.0
228,93.38092417083332,93.68500019166666,65.0,90.0
229,93.38092417083332,93.6882875,57.0,99.0
230,93.77540117083333,94.13043047083333,65.0,93.0
231,93.77540117083333,94.13371777916666,69.0,93.0
232,93.77540117083333,94.21918779583334,62.0,89.0
233,94.56435517083332,95.05745142083333,57.0,89.0
234,94.56435517083332,95.26290819166667,62.0,92.0
235,94.56435517083332,95.2661955,65.0,83.0
236,94.95883217083333,95.48973246666667,50.0,56.0
237,95.35330917083333,96.0009089125,62.0,77.0
238,95.35330917083333,96.00255256666667,65.0,72.0
239,95.35330917083333,96.0157018,57.0,75.0
240,93.77540117083333,96.18992914166667,38.0,78.0
241,95.74778617083334,96.36251282916666,50.0,83.0
242,94.16987817083333,96.4742813125,45.0,37.0
243,96.14226317083333,96.57618787083334,62.0,100.0
244,96.73397867083332,96.97888314166666,62.0,97.0
245,96.14226317083333,96.99860699166666,65.0,97.0
246,96.53674017083333,97.01997449583332,57.0,89.0
247,96.93121717083334,98.30695570833333,43.0,83.0
248,97.32569417083333,98.52884902083333,50.0,81.0
249,97.72017117083332,99.00879603749999,58.0,100.0
250,98.11464817083333,99.06961124166666,55.0,86.0
251,97.72017117083332,99.122208175,62.0,89.0
252,98.50912517083333,99.44929535416667,43.0,82.0
253,98.90360217083332,99.47559382083332,50.0,75.0
254,99.29807917083333,100.05087277916667,62.0,89.0
255,99.29807917083333,100.06730932083333,58.0,102.0
256,99.69255617083333,100.07059662916666,55.0,82.0
257,100.87598717083333,101.48578286666667,65.0,92.0
258,100.87598717083333,101.55481634166667,62.0,79.0
259,101.27046417083334,101.83423755,58.0,74.0
260,101.66494117083333,102.30596629583333,62.0,69.0
261,101.66494117083333,102.3322647625,70.0,85.0
262,101.66494117083333,102.33555207083333,65.0,76.0
263,102.05941817083333,102.56566365416667,58.0,76.0
264,100.48151017083333,102.6971559875,53.0,60.0
265,100.08703317083334,102.75468388333333,46.0,93.0
266,102.45389517083333,103.2790095625,70.0,100.0
267,102.45389517083333,103.28229687083333,65.0,88.0
268,102.84837217083333,103.29380245,62.0,88.0
269,104.42628017083334,105.0147083625,48.0,83.0
270,104.82075717083333,105.48314979999999,64.0,82.0
271,104.82075717083333,105.48479345416666,60.0,85.0
272,104.03180317083333,105.53081577083333,55.0,90.0
273,105.21523417083333,105.63765329166667,48.0,89.0
274,105.80694967083333,105.96967143333333,48.0,88.0
275,103.24284917083332,105.97624605,36.0,77.0
276,105.60971117083334,106.05514145,60.0,96.0
277,103.63732617083333,106.37236670416667,43.0,59.0
278,106.00418817083333,106.46276768333333,55.0,95.0
279,106.20142667083333,106.48249153333333,60.0,117.0
280,105.60971117083334,106.50221538333334,64.0,96.0
281,107.18761917083333,107.70372657916667,65.0,77.0
282,107.18761917083333,107.71194485,62.0,85.0
283,107.18761917083333,107.86644834166667,57.0,89.0
284,107.58209617083332,108.25928168749999,50.0,88.0
285,107.97657317083333,108.6241729125,65.0,79.0
286,107.97657317083333,108.63239118333333,62.0,88.0
287,107.97657317083333,108.64060945416666,57.0,83.0
288,108.37105017083333,108.846066225,50.0,79.0
289,106.39866517083333,109.082752425,38.0,89.0
290,106.79314217083333,109.09261434999999,45.0,64.0
291,108.76552717083332,109.18301532916666,62.0,99.0
292,108.96276567083333,109.24711784166666,50.0,70.0
293,108.76552717083332,109.63830753333333,65.0,95.0
294,109.16000417083333,109.65638772916667,57.0,102.0
295,109.35724267083333,109.66624965416666,62.0,96.0
296,109.94895817083334,110.46670923333333,50.0,77.0
297,110.34343517083333,110.81680757083333,55.0,83.0
298,110.34343517083333,110.85625527083333,58.0,97.0
299,110.34343517083333,110.89899027916667,62.0,83.0
300,110.73791217083333,111.33291497916666,50.0,70.0
301,111.13238917083333,111.66493312083333,55.0,78.0
302,111.13238917083333,111.77341429583333,62.0,82.0
303,111.13238917083333,111.81450565,58.0,88.0
304,111.52686617083333,112.01338780416667,50.0,63.0
305,109.55448117083333,112.2237755375,43.0,83.0
306,112.11858167083334,112.25171765833333,50.0,72.0
307,111.92134317083332,112.38156633749999,58.0,85.0
308,112.31582017083333,112.64455100416666,55.0,100.0
309,111.92134317083332,112.68399870416667,62.0,88.0
310,112.51305867083333,112.69879159166666,58.0,95.0
311,112.71029717083333,113.23462285,62.0,92.0
312,112.71029717083333,113.37104614583333,65.0,93.0
313,112.71029717083333,113.3776207625,70.0,93.0
314,113.10477417083332,113.51404405833333,53.0,39.0
315,112.71029717083333,113.60280138333333,46.0,93.0
316,113.49925117083333,113.90359009583332,65.0,89.0
317,113.49925117083333,113.90523375,70.0,96.0
318,113.89372817083333,114.22903362083333,62.0,99.0
319,114.28820517083334,114.92923029583334,64.0,83.0
320,114.28820517083334,114.93087394999999,60.0,90.0
321,114.28820517083334,115.34671845416666,36.0,74.0
322,114.68268217083333,115.48478540416666,43.0,46.0
323,115.07715917083333,115.76749392083333,60.0,92.0
324,115.47163617083334,115.769137575,55.0,77.0
325,115.07715917083333,115.77571219166666,64.0,85.0
326,115.86611317083333,116.5432986875,46.0,74.0
327,116.26059017083332,116.55480426666666,53.0,41.0
328,116.65506717083333,117.12186495416667,48.0,82.0
329,117.04954417083333,117.4801815625,64.0,77.0
330,117.04954417083333,117.4801815625,67.0,73.0
331,117.04954417083333,117.4999054125,60.0,74.0
332,118.43021367083333,118.80825412916666,50.0,93.0
333,118.23297517083333,118.94632107916667,57.0,93.0
334,118.62745217083332,119.01042359166667,62.0,90.0
335,117.83849817083333,119.02192917083333,45.0,59.0
336,118.62745217083332,119.03014744166666,65.0,90.0
337,119.02192917083333,119.03014744166666,65.0,93.0
338,117.44402117083332,119.0580895625,38.0,74.0
339,119.02192917083333,119.0580895625,38.0,78.0
340,119.02192917083333,119.38024577916666,69.0,93.0
341,119.02192917083333,119.46571579583333,62.0,89.0
342,119.81088317083334,120.30397942083333,57.0,89.0
343,119.81088317083334,120.50943619166667,62.0,92.0
344,119.81088317083334,120.51272349999999,65.0,83.0
345,120.20536017083333,120.73626046666666,50.0,56.0
346,120.59983717083333,121.24743691249999,62.0,77.0
347,120.59983717083333,121.24908056666666,65.0,72.0
348,120.59983717083333,121.2622298,57.0,75.0
349,120.99431417083333,121.60904082916666,50.0,83.0
350,119.41640617083333,121.7208093125,45.0,37.0
351,121.38879117083333,121.82271587083333,62.0,100.0
352,121.98050667083334,122.22541114166667,62.0,97.0
353,121.38879117083333,122.24513499166666,65.0,97.0
354,121.78326817083332,122.26650249583334,57.0,89.0
355,122.17774517083333,123.55348370833333,43.0,83.0
356,122.57222217083333,123.77537702083333,50.0,81.0
357,122.96669917083332,124.2553240375,58.0,100.0
358,123.36117617083333,124.31613924166666,55.0,86.0
359,122.96669917083332,124.368736175,62.0,89.0
360,123.75565317083333,124.69582335416666,43.0,82.0
361,124.15013017083334,124.72212182083332,50.0,75.0
362,124.54460717083333,125.29740077916667,62.0,89.0
363,124.54460717083333,125.31383732083333,58.0,102.0
364,124.93908417083333,125.31712462916666,55.0,82.0
365,126.12251517083332,126.73231086666667,65.0,92.0
366,126.12251517083332,126.80134434166666,62.0,79.0
367,126.51699217083333,127.08076555,58.0,74.0
368,126.91146917083333,127.55249429583333,62.0,69.0
369,126.91146917083333,127.5787927625,70.0,85.0
370,126.91146917083333,127.58208007083333,65.0,76.0
371,127.30594617083332,127.81219165416667,58.0,76.0
372,125.72803817083333,127.9436839875,53.0,60.0
373,125.33356117083333,128.00121188333333,46.0,93.0
374,127.70042317083333,128.5255375625,70.0,100.0
375,127.70042317083333,128.52882487083332,65.0,88.0
376,128.09490017083334,128.54033045,62.0,88.0
377,129.67280817083332,130.2612363625,48.0,83.0
378,130.06728517083332,130.7296778,64.0,82.0
379,130.06728517083332,130.73132145416668,60.0,85.0
380,129.27833117083333,130.77734377083334,55.0,90.0
381,130.46176217083334,130.88418129166666,48.0,89.0
382,131.05347767083333,131.21619943333332,48.0,88.0
383,128.48937717083334,131.22277405,36.0,77.0
384,130.85623917083333,131.30166945,60.0,96.0
385,128.88385417083333,131.61889470416665,43.0,59.0
386,131.25071617083333,131.70929568333332,55.0,95.0
387,131.44795467083333,131.72901953333334,60.0,117.0
388,130.85623917083333,131.74874338333333,64.0,96.0
389,132.43414717083334,132.95025457916665,65.0,77.0
390,132.43414717083334,132.95847285,62.0,85.0
391,132.43414717083334,133.11297634166667,57.0,89.0
392,132.82862417083334,133.5058096875,50.0,88.0
393,133.22310117083333,133.87070091249998,65.0,79.0
394,133.22310117083333,133.87891918333332,62.0,88.0
395,133.22310117083333,133.88713745416666,57.0,83.0
396,133.61757817083333,134.092594225,50.0,79.0
397,131.64519317083332,134.329280425,38.0,89.0
398,132.03967017083332,134.33914235,45.0,64.0
399,134.01205517083332,134.42954332916665,62.0,99.0
400,134.20929367083332,134.49364584166665,50.0,70.0
401,134.01205517083332,134.88483553333333,65.0,95.0
402,134.40653217083332,134.90291572916666,57.0,102.0
403,134.60377067083334,134.91277765416666,62.0,96.0
404,135.19548617083333,135.71323723333333,50.0,77.0
405,135.58996317083333,136.06333557083332,55.0,83.0
406,135.58996317083333,136.10278327083333,58.0,97.0
407,135.58996317083333,136.14551827916665,62.0,83.0
408,135.98444017083332,136.57944297916666,50.0,70.0
409,136.37891717083332,136.91146112083334,55.0,78.0
410,136.37891717083332,137.01994229583332,62.0,82.0
411,136.37891717083332,137.06103364999998,58.0,88.0
412,136.77339417083334,137.25991580416667,50.0,63.0
413,134.80100917083334,137.4703035375,43.0,83.0
414,137.36510967083333,137.49824565833333,50.0,72.0
415,137.16787117083334,137.6280943375,58.0,85.0
416,137.56234817083333,137.89107900416667,55.0,100.0
417,137.16787117083334,137.93052670416665,62.0,88.0
418,137.75958667083333,137.94531959166667,58.0,95.0
419,137.95682517083333,138.48115085,62.0,92.0
420,137.95682517083333,138.61757414583332,65.0,93.0
421,137.95682517083333,138.6241487625,70.0,93.0
422,138.35130217083332,138.76057205833334,53.0,39.0
423,137.95682517083333,138.84932938333333,46.0,93.0
424,138.74577917083332,139.15011809583334,65.0,89.0
425,138.74577917083332,139.15176175,70.0,96.0
426,139.14025617083334,139.47556162083333,62.0,99.0
427,139.53473317083333,140.17575829583333,64.0,83.0
428,139.53473317083333,140.17740195,60.0,90.0
429,139.53473317083333,140.59324645416666,36.0,74.0
430,139.92921017083333,140.73131340416666,43.0,46.0
431,140.32368717083332,141.01402192083333,60.0,92.0
432,140.71816417083332,141.01566557499999,55.0,77.0
433,140.32368717083332,141.02224019166667,64.0,85.0
434,141.11264117083334,141.66819627916666,65.0,76.0
435,141.11264117083334,141.706000325,62.0,82.0
436,141.11264117083334,141.7701028375,58.0,99.0
437,141.11264117083334,141.82105611666665,46.0,86.0
438,141.90159517083333,142.59521722916665,60.0,95.0
439,141.90159517083333,142.5985045375,55.0,92.0
440,141.90159517083333,142.60014819166668,64.0,92.0
441,141.90159517083333,142.61165377083333,48.0,63.0
442,143.28226467083334,143.66030512916666,52.0,71.0
443,143.47950317083334,143.6931782125,53.0,69.0
444,143.67674167083334,143.73591322083334,57.0,89.0
445,143.87398017083333,144.12217195,62.0,100.0
446,144.07121867083333,144.19778004166668,64.0,96.0
447,143.08502617083332,144.21914754583332,50.0,83.0
448,142.88778767083332,144.22736581666666,45.0,73.0
449,142.69054917083332,144.28160640416667,38.0,76.0
450,144.26845717083333,144.28160640416667,38.0,92.0
451,144.66293417083332,145.098502525,50.0,85.0
452,144.86017267083332,145.31875218333332,57.0,73.0
453,145.25464967083332,145.56858761666666,50.0,71.0
454,144.46569567083333,145.8233540125,45.0,92.0
455,145.64912667083334,146.33946142083332,57.0,82.0
456,145.05741117083332,146.46109182916666,65.0,100.0
457,145.45188817083334,146.48903395,62.0,77.0
458,146.24084217083333,146.91474037916666,50.0,73.0
459,145.84636517083334,147.25168948333334,38.0,59.0
460,146.04360367083333,147.4111239375,45.0,69.0
461,147.02979617083332,147.43742240416665,64.0,95.0
462,146.63531917083333,147.43742240416665,65.0,95.0
463,147.22703467083332,147.49330664583331,62.0,88.0
464,146.43808067083333,147.52289242083333,57.0,66.0
465,147.81875017083334,148.23788198333332,50.0,61.0
466,148.41046567083333,148.846034025,50.0,51.0
467,147.42427317083332,148.86575787499999,38.0,78.0
468,147.62151167083334,148.94794058333332,45.0,48.0
469,148.60770417083333,149.10573138333334,64.0,69.0
470,148.21322717083333,149.11394965416667,65.0,90.0
471,148.80494267083333,149.1172369625,62.0,62.0
472,148.01598867083334,149.15339735416666,57.0,69.0
473,149.00218117083332,149.94892597083333,38.0,60.0
474,149.19941967083332,149.96371885833332,45.0,43.0
475,149.39665817083332,149.990017325,50.0,68.0
476,149.59389667083332,150.28751872916666,57.0,70.0
477,149.79113517083334,150.54557243333332,65.0,96.0
478,150.18561217083334,150.5768018625,64.0,71.0
479,150.38285067083334,150.601456675,62.0,65.0
480,150.97456617083333,151.3065843125,55.0,78.0
481,151.17180467083332,151.34274470416665,58.0,72.0
482,150.77732767083333,151.40684721666665,50.0,58.0
483,150.58008917083333,151.91638000833333,43.0,69.0
484,151.56628167083332,152.0166429125,50.0,70.0
485,151.96075867083331,152.11690581666667,55.0,60.0
486,151.76352017083332,152.15635351666666,58.0,42.0
487,151.36904317083332,152.15799717083334,62.0,93.0
488,152.35523567083334,152.63301322499998,53.0,77.0
489,152.55247417083334,152.89435423749998,62.0,93.0
490,152.15799717083334,152.90257250833332,46.0,102.0
491,152.74971267083333,152.92065270416666,58.0,107.0
492,152.94695117083333,153.362795675,48.0,69.0
493,153.14418967083333,153.57811437083333,55.0,89.0
494,153.34142817083332,153.72933055416667,64.0,97.0
495,153.53866667083332,153.75398536666665,60.0,97.0
496,154.13038217083331,154.57416879583332,50.0,81.0
497,154.32762067083334,154.68429362499998,57.0,77.0
498,154.72209767083334,154.98343868333333,50.0,83.0
499,154.52485917083334,154.99658791666667,65.0,102.0
500,154.91933617083333,155.39106491666666,64.0,96.0
501,155.11657467083333,155.4190070375,50.0,73.0
502,155.51105167083333,155.69185362916667,50.0,69.0
503,155.31381317083333,155.76088710416667,65.0,107.0
504,155.70829017083332,155.93347079166665,64.0,127.0
505,155.90552867083332,156.14714583333333,65.0,90.0
506,156.30000567083331,156.50710609583334,50.0,81.0
507,156.10276717083332,156.54491014166666,64.0,117.0
508,153.73590517083332,156.70927555833333,38.0,88.0
509,156.49724417083334,156.75694152916665,65.0,117.0
510,153.93314367083332,156.86213539583332,45.0,56.0
511,156.69448267083334,156.89665213333333,64.0,122.0
512,157.28619817083333,157.67410055416667,50.0,81.0
513,157.68067517083333,157.96009637916666,50.0,85.0
514,156.89172117083334,158.29704548333333,38.0,81.0
515,157.48343667083333,158.36936626666667,65.0,96.0
516,157.08895967083333,158.48113475,45.0,71.0
517,158.07515217083332,158.59290323333332,64.0,89.0
518,158.27239067083332,158.67672959583334,62.0,78.0
519,157.48343667083333,158.94135791666668,57.0,76.0
520,158.86410617083334,159.28323798333332,50.0,69.0
521,159.45582167083333,159.64155459166665,50.0,89.0
522,158.46962917083331,159.8963209875,38.0,61.0
523,159.25858317083333,159.94069965,65.0,99.0
524,159.65306017083333,159.97192907916667,64.0,74.0
525,159.06134467083334,160.06068640416666,57.0,90.0
526,158.66686767083334,160.08205390833334,45.0,49.0
527,159.85029867083333,160.088628525,62.0,93.0
528,160.44201417083332,160.83156020833331,50.0,79.0
529,161.03372967083334,161.27534683333332,50.0,74.0
530,160.04753717083332,161.43806859583333,38.0,69.0
531,160.63925267083332,161.49230918333333,57.0,70.0
532,160.83649117083334,161.50710207083333,65.0,100.0
533,160.24477567083332,161.6616055625,45.0,64.0
534,161.23096817083334,161.6714674875,64.0,89.0
535,161.42820667083333,161.75200654166667,62.0,93.0
536,162.01992217083333,162.48671995416666,50.0,72.0
537,162.21716067083332,162.55246612083332,57.0,78.0
538,161.62544517083333,162.73819904166666,38.0,62.0
539,161.82268367083333,162.8154507875,45.0,68.0
540,162.41439917083332,162.94036850416666,65.0,102.0
541,162.80887617083332,163.047206025,64.0,99.0
542,162.61163767083332,163.12774507916666,50.0,76.0
543,163.00611467083334,163.1310323875,62.0,97.0
544,163.20335317083334,163.27074299166665,55.0,102.0
545,163.40059167083334,163.5255093875,43.0,99.0
546,163.40059167083334,163.5255093875,55.0,99.0
547,163.59783017083333,163.76055193333332,41.0,93.0
548,163.59783017083333,163.76055193333332,53.0,93.0
549,163.79506867083333,163.90354984583334,43.0,90.0
550,163.79506867083333,163.90354984583334,55.0,90.0
551,163.99230717083333,164.06298429999998,45.0,102.0
552,163.99230717083333,164.06298429999998,57.0,102.0
553,164.18954567083333,164.29309588333334,45.0,107.0
554,164.18954567083333,164.29309588333334,57.0,107.0
555,164.38678417083332,164.50841457916667,43.0,92.0
556,164.38678417083332,164.50841457916667,55.0,92.0
557,164.58402267083332,164.69414749999999,45.0,107.0
558,164.58402267083332,164.69414749999999,57.0,107.0
559,164.78126117083332,164.87823676666667,48.0,127.0
560,164.78126117083332,164.87823676666667,60.0,127.0
561,165.17573817083334,165.492963425,45.0,117.0
562,165.17573817083334,165.492963425,57.0,117.0
563,165.57021517083334,165.90880792916667,53.0,117.0
564,165.57021517083334,165.90880792916667,65.0,117.0
565,165.96469217083333,166.34930724583333,52.0,127.0
566,165.96469217083333,166.34930724583333,64.0,127.0
567,166.35916917083333,168.984084875,50.0,112.0
568,166.35916917083333,168.984084875,62.0,112.0
569,169.12050817083332,169.48046843333333,45.0,112.0
570,169.12050817083332,169.48046843333333,57.0,112.0
571,169.51498517083334,171.88184717083334,50.0,127.0
572,169.51498517083334,171.88184717083334,62.0,127.0
573,173.45975517083332,174.39006342916667,50.0,89.0
574,173.85423217083334,175.137926075,57.0,83.0
575,172.67080117083333,175.56527615833332,38.0,78.0
576,173.06527817083332,175.84634102083334,45.0,57.0
577,174.64318617083333,175.93509834583332,50.0,68.0
578,175.43214017083332,176.88513045416667,57.0,73.0
579,174.24870917083334,177.21879225,65.0,100.0
580,175.03766317083333,177.25002167916665,62.0,82.0
581,176.61557117083333,177.682302725,50.0,85.0
582,177.01004817083333,178.26744360833334,57.0,73.0
583,175.82661717083332,178.846009875,38.0,69.0
584,177.79900217083332,178.944629125,50.0,71.0
585,176.22109417083334,178.98243317083333,45.0,42.0
586,178.58795617083334,178.98243317083333,57.0,74.0
587,178.1934791708333,178.98243317083333,62.0,90.0
588,177.40452517083332,178.98243317083333,65.0,92.0
589,179.77138717083332,180.73621216666666,50.0,89.0
590,178.98243317083333,181.38874287083334,38.0,89.0
591,180.16586417083332,181.40682306666668,57.0,93.0
592,179.37691017083333,181.42819057083332,45.0,44.0
593,180.95481817083333,181.53995905416667,50.0,92.0
594,181.34929517083333,182.17276590833333,62.0,97.0
595,180.56034117083334,182.18262783333333,65.0,102.0
596,181.74377217083332,182.24179938333333,57.0,97.0
597,183.32168017083333,183.76546679583333,58.0,69.0
598,182.5327261708333,183.81970738333334,50.0,73.0
599,182.92720317083334,184.08926666666667,55.0,83.0
600,184.11063417083332,184.54784617916667,50.0,69.0
601,182.13824917083332,184.58729387916665,43.0,78.0
602,184.50511117083332,185.29735247916665,58.0,100.0
603,183.71615717083333,185.31871998333332,62.0,100.0
604,184.89958817083334,185.3499494125,55.0,88.0
605,186.08301917083332,187.10537206249998,50.0,75.0
606,185.68854217083333,187.65599620833333,45.0,48.0
607,185.29406517083333,187.662570825,38.0,86.0
608,186.47749617083332,187.73653526249998,57.0,69.0
609,187.26645017083334,187.82693624166666,50.0,85.0
610,186.87197317083331,188.490972525,65.0,95.0
611,187.66092717083333,188.49261617916667,62.0,95.0
612,188.05540417083333,188.59123542916666,57.0,82.0
613,188.84435817083332,189.43114270833334,50.0,51.0
614,189.63331217083334,190.19051093333331,50.0,62.0
615,190.02778917083333,190.69182545416666,62.0,99.0
616,189.23883517083334,190.93015530833333,55.0,78.0
617,190.42226617083332,191.1487613125,50.0,82.0
618,188.44988117083332,191.18163439583333,43.0,79.0
619,191.21122017083331,191.62706467499999,55.0,99.0
620,190.81674317083332,191.65665045,62.0,99.0
621,192.00017417083333,192.81871394583334,53.0,69.0
622,191.60569717083334,192.93212608333332,46.0,117.0
623,192.59188967083332,193.02581437083333,58.0,102.0
624,192.39465117083333,193.204972675,62.0,96.0
625,194.36703617083333,194.76973144166666,60.0,89.0
626,193.18360517083332,194.7779497125,48.0,89.0
627,193.97255917083334,194.80589183333333,64.0,97.0
628,193.57808217083334,194.85191415,55.0,77.0
629,194.76151317083333,195.6852468125,41.0,69.0
630,195.15599017083332,195.79865895,48.0,62.0
631,195.55046717083331,196.21614710833333,53.0,88.0
632,195.94494417083334,196.33942117083333,60.0,86.0
633,196.73389817083333,197.36834867916667,52.0,86.0
634,196.33942117083333,197.4110836875,45.0,89.0
635,197.12837517083332,197.82035357499998,61.0,100.0
636,197.12837517083332,197.83350280833332,64.0,90.0
637,197.52285217083332,197.8745941625,57.0,81.0
638,198.70628317083333,199.63659142916666,50.0,89.0
639,199.10076017083333,200.38445407499998,57.0,83.0
640,197.91732917083334,200.81180415833333,38.0,78.0
641,198.31180617083334,201.09286902083332,45.0,57.0
642,199.88971417083332,201.18162634583334,50.0,68.0
643,200.67866817083333,202.13165845416665,57.0,73.0
644,199.49523717083332,202.46532025,65.0,100.0
645,200.28419117083334,202.49654967916666,62.0,82.0
646,201.86209917083332,202.92883072499998,50.0,85.0
647,202.2565761708333,203.51397160833332,57.0,73.0
648,201.07314517083333,204.092537875,38.0,69.0
649,203.04553017083333,204.191157125,50.0,71.0
650,201.46762217083332,204.22896117083332,45.0,42.0
651,203.83448417083332,204.22896117083332,57.0,74.0
652,203.44000717083333,204.22896117083332,62.0,90.0
653,202.65105317083334,204.22896117083332,65.0,92.0
654,205.01791517083333,205.98274016666667,50.0,89.0
655,204.22896117083332,206.63527087083332,38.0,89.0
656,205.41239217083333,206.65335106666666,57.0,93.0
657,204.62343817083334,206.67471857083333,45.0,44.0
658,206.20134617083332,206.78648705416666,50.0,92.0
659,206.5958231708333,207.41929390833332,62.0,97.0
660,205.80686917083332,207.42915583333334,65.0,102.0
661,206.99030017083334,207.4883273833333,57.0,97.0
662,208.56820817083332,209.01199479583332,58.0,69.0
663,207.77925417083333,209.06623538333332,50.0,73.0
664,208.17373117083332,209.33579466666666,55.0,83.0
665,209.35716217083333,209.79437417916665,50.0,69.0
666,207.38477717083333,209.83382187916666,43.0,78.0
667,209.75163917083333,210.54388047916666,58.0,100.0
668,208.96268517083334,210.56524798333334,62.0,100.0
669,210.14611617083332,210.59647741249998,55.0,88.0
670,211.32954717083334,212.3519000625,50.0,75.0
671,210.9350701708333,212.90252420833332,45.0,48.0
672,210.54059317083332,212.909098825,38.0,86.0
673,211.72402417083333,212.9830632625,57.0,69.0
674,212.51297817083332,213.07346424166667,50.0,85.0
675,212.11850117083333,213.737500525,65.0,95.0
676,212.90745517083332,213.73914417916666,62.0,95.0
677,213.30193217083334,213.83776342916667,57.0,82.0
678,214.09088617083333,214.67767070833332,50.0,51.0
679,214.87984017083332,215.43703893333333,50.0,62.0
680,215.2743171708333,215.93835345416667,62.0,99.0
681,214.48536317083332,216.17668330833334,55.0,78.0
682,215.66879417083334,216.39528931249998,50.0,82.0
683,213.69640917083333,216.42816239583334,43.0,79.0
684,216.45774817083333,216.873592675,55.0,99.0
685,216.06327117083333,216.90317844999998,62.0,99.0
686,217.24670217083332,218.06524194583332,53.0,69.0
687,216.85222517083332,218.17865408333333,46.0,117.0
688,217.83841767083334,218.27234237083331,58.0,102.0
689,217.64117917083334,218.451500675,62.0,96.0
690,218.43013317083333,220.00804117083334,48.0,89.0
691,218.82461017083332,220.00804117083334,55.0,77.0
692,219.6135641708333,220.00804117083334,60.0,89.0
693,219.21908717083332,220.00804117083334,64.0,97.0
694,220.00804117083334,220.16254466249998,50.0,86.0
695,220.00804117083334,220.16747562499998,62.0,93.0
696,220.00804117083334,220.1724065875,38.0,65.0
697,220.00804117083334,220.17733755,57.0,88.0
698,220.00804117083334,220.17898120416666,65.0,92.0
699,220.40251817083333,220.48141357083333,62.0,82.0
700,220.40251817083333,220.48798818749998,50.0,83.0
701,220.40251817083333,220.49620645833332,57.0,74.0
702,220.40251817083333,220.50606838333331,65.0,78.0
703,220.40251817083333,220.5077120375,38.0,74.0
704,220.59975667083333,220.68029572499998,62.0,88.0
705,220.59975667083333,220.6852266875,65.0,73.0
706,220.59975667083333,220.6950886125,38.0,68.0
707,220.59975667083333,220.69673226666666,50.0,88.0
708,220.59975667083333,220.69673226666666,57.0,74.0
709,220.79699517083333,221.350906625,50.0,90.0
710,220.79699517083333,221.36076855,38.0,65.0
711,220.79699517083333,221.36076855,62.0,95.0
712,220.79699517083333,221.3656995125,65.0,85.0
713,220.79699517083333,221.37227412916667,57.0,92.0
714,221.58594917083332,221.81770440833333,38.0,77.0
715,221.58594917083332,221.83414095,50.0,86.0
716,221.58594917083332,221.85550845416665,57.0,92.0
717,221.58594917083332,221.85715210833334,62.0,96.0
718,221.58594917083332,221.8686576875,65.0,90.0
719,221.98042617083334,222.21053775416667,38.0,73.0
720,221.98042617083334,222.21711237083332,50.0,75.0
721,221.98042617083334,222.22861795,62.0,66.0
722,221.98042617083334,222.24012352916665,65.0,64.0
723,221.98042617083334,222.2434108375,57.0,71.0
724,222.37490317083333,222.58200359583333,38.0,70.0
725,222.37490317083333,222.59350917499998,50.0,73.0
726,222.37490317083333,222.62145129583334,62.0,88.0
727,222.37490317083333,222.62638225833334,57.0,78.0
728,222.37490317083333,222.62638225833334,65.0,81.0
729,222.76938017083333,223.03565214583332,38.0,56.0
730,222.76938017083333,223.0603069583333,62.0,99.0
731,222.76938017083333,223.066881575,50.0,96.0
732,222.76938017083333,223.07345619166665,65.0,90.0
733,222.76938017083333,223.0767435,57.0,99.0
734,223.15892620833333,223.28384392499999,36.0,79.0
735,223.16385717083332,223.51888647083334,65.0,93.0
736,223.16385717083332,223.52217377916665,69.0,93.0
737,223.16385717083332,223.60764379583333,62.0,89.0
738,223.95281117083331,224.44590742083332,57.0,89.0
739,223.95281117083331,224.65136419166666,62.0,92.0
740,223.95281117083331,224.6546515,65.0,83.0
741,224.34728817083334,224.87818846666667,50.0,56.0
742,224.74176517083333,225.38936491249999,62.0,77.0
743,224.74176517083333,225.39100856666667,65.0,72.0
744,224.74176517083333,225.40415779999998,57.0,75.0
745,223.16385717083332,225.57838514166667,38.0,78.0
746,225.13624217083333,225.75096882916665,50.0,83.0
747,223.55833417083332,225.8627373125,45.0,37.0
748,225.53071917083332,225.96464387083333,62.0,100.0
749,226.12243467083331,226.36733914166666,62.0,97.0
750,225.53071917083332,226.38706299166665,65.0,97.0
751,225.92519617083332,226.40843049583333,57.0,89.0
752,226.31967317083334,227.69541170833332,43.0,83.0
753,226.71415017083334,227.91730502083334,50.0,81.0
754,227.10862717083333,228.39725203749998,58.0,100.0
755,227.50310417083332,228.45806724166667,55.0,86.0
756,227.10862717083333,228.510664175,62.0,89.0
757,227.89758117083332,228.83775135416667,43.0,82.0
758,228.29205817083331,228.86404982083332,50.0,75.0
759,228.68653517083334,229.43932877916666,62.0,89.0
760,228.68653517083334,229.45576532083334,58.0,102.0
761,229.08101217083333,229.45905262916665,55.0,82.0
762,230.26444317083332,230.87423886666667,65.0,92.0
763,230.26444317083332,230.94327234166667,62.0,79.0
764,230.6589201708333,231.22269355,58.0,74.0
765,231.05339717083334,231.69442229583333,62.0,69.0
766,231.05339717083334,231.72072076249998,70.0,85.0
767,231.05339717083334,231.72400807083332,65.0,76.0
768,231.44787417083333,231.95411965416665,58.0,76.0
769,229.86996617083332,232.0856119875,53.0,60.0
770,229.47548917083333,232.14313988333333,46.0,93.0
771,231.84235117083333,232.66746556249998,70.0,100.0
772,231.84235117083333,232.67075287083333,65.0,88.0
773,232.23682817083332,232.68225845,62.0,88.0
774,233.81473617083333,234.40316436249998,48.0,83.0
775,234.20921317083332,234.8716058,64.0,82.0
776,234.20921317083332,234.87324945416665,60.0,85.0
777,233.42025917083333,234.91927177083332,55.0,90.0
778,234.60369017083332,235.02610929166667,48.0,89.0
779,235.19540567083334,235.35812743333332,48.0,88.0
780,232.63130517083331,235.36470205,36.0,77.0
781,234.9981671708333,235.44359745,60.0,96.0
782,233.02578217083334,235.76082270416666,43.0,59.0
783,235.39264417083334,235.85122368333333,55.0,95.0
784,235.58988267083333,235.87094753333332,60.0,117.0
785,234.9981671708333,235.8906713833333,64.0,96.0
786,236.57607517083332,237.09218257916666,65.0,77.0
787,236.57607517083332,237.10040085,62.0,85.0
788,236.57607517083332,237.25490434166664,57.0,89.0
789,236.97055217083332,237.64773768749998,50.0,88.0
790,237.36502917083334,238.0126289125,65.0,79.0
791,237.36502917083334,238.02084718333333,62.0,88.0
792,237.36502917083334,238.02906545416667,57.0,83.0
793,237.75950617083333,238.234522225,50.0,79.0
794,235.78712117083333,238.471208425,38.0,89.0
795,236.18159817083333,238.48107034999998,45.0,64.0
796,238.15398317083333,238.57147132916666,62.0,99.0
797,238.35122167083333,238.63557384166666,50.0,70.0
798,238.15398317083333,239.02676353333334,65.0,95.0
799,238.54846017083332,239.04484372916667,57.0,102.0
800,238.74569867083332,239.05470565416667,62.0,96.0
801,239.3374141708333,239.85516523333334,50.0,77.0
802,239.73189117083334,240.20526357083332,55.0,83.0
803,239.73189117083334,240.24471127083333,58.0,97.0
804,239.73189117083334,240.28744627916666,62.0,83.0
805,240.12636817083333,240.72137097916666,50.0,70.0
806,240.52084517083333,241.05338912083332,55.0,78.0
807,240.52084517083333,241.16187029583332,62.0,82.0
808,240.52084517083333,241.20296165,58.0,88.0
809,240.91532217083332,241.40184380416665,50.0,63.0
810,238.94293717083332,241.61223153749998,43.0,83.0
811,241.5070376708333,241.64017365833334,50.0,72.0
812,241.30979917083332,241.7700223375,58.0,85.0
813,241.70427617083334,242.03300700416665,55.0,100.0
814,241.30979917083332,242.07245470416666,62.0,88.0
815,241.90151467083334,242.08724759166665,58.0,95.0
816,242.09875317083333,242.62307884999998,62.0,92.0
817,242.09875317083333,242.75950214583332,65.0,93.0
818,242.09875317083333,242.7660767625,70.0,93.0
819,242.49323017083333,242.90250005833332,53.0,39.0
820,242.09875317083333,242.99125738333333,46.0,93.0
821,242.88770717083332,243.2920460958333,65.0,89.0
822,242.88770717083332,243.29368975,70.0,96.0
823,243.28218417083332,243.61748962083334,62.0,99.0
824,243.6766611708333,244.3176862958333,64.0,83.0
825,243.6766611708333,244.31932995,60.0,90.0
826,243.6766611708333,244.73517445416667,36.0,74.0
827,244.07113817083334,244.87324140416666,43.0,46.0
828,244.46561517083333,245.15594992083334,60.0,92.0
829,244.86009217083333,245.157593575,55.0,77.0
830,244.46561517083333,245.16416819166665,64.0,85.0
831,245.25456917083332,245.9317546875,46.0,74.0
832,245.64904617083332,245.94326026666667,53.0,41.0
833,246.04352317083334,246.51032095416667,48.0,82.0
834,246.43800017083333,246.8686375625,64.0,77.0
835,246.43800017083333,246.8686375625,67.0,73.0
836,246.43800017083333,246.8883614125,60.0,74.0
837,247.81866967083332,248.19671012916666,50.0,93.0
838,247.62143117083332,248.33477707916666,57.0,93.0
839,248.0159081708333,248.39887959166666,62.0,90.0
840,247.22695417083332,248.41038517083334,45.0,59.0
841,248.0159081708333,248.41860344166665,65.0,90.0
842,248.41038517083334,248.41860344166665,65.0,93.0
843,246.83247717083333,248.4465455625,38.0,74.0
844,248.41038517083334,248.4465455625,38.0,78.0
845,248.41038517083334,248.76870177916666,69.0,93.0
846,248.41038517083334,248.85417179583334,62.0,89.0
847,249.19933917083333,249.69243542083333,57.0,89.0
848,249.19933917083333,249.89789219166667,62.0,92.0
849,249.19933917083333,249.90117949999998,65.0,83.0
850,249.59381617083332,250.12471646666665,50.0,56.0
851,249.98829317083332,250.6358929125,62.0,77.0
852,249.98829317083332,250.63753656666665,65.0,72.0
853,249.98829317083332,250.6506858,57.0,75.0
854,250.38277017083334,250.99749682916666,50.0,83.0
855,248.80486217083333,251.10926531249999,45.0,37.0
856,250.77724717083333,251.2111718708333,62.0,100.0
857,251.36896267083333,251.61386714166665,62.0,97.0
858,250.77724717083333,251.63359099166667,65.0,97.0
859,251.17172417083333,251.6549584958333,57.0,89.0
860,251.56620117083332,252.94193970833334,43.0,83.0
861,251.96067817083332,253.16383302083332,50.0,81.0
862,252.3551551708333,253.6437800375,58.0,100.0
863,252.74963217083334,253.70459524166665,55.0,86.0
864,252.3551551708333,253.757192175,62.0,89.0
865,253.14410917083333,254.08427935416665,43.0,82.0
866,253.53858617083333,254.11057782083333,50.0,75.0
867,253.93306317083332,254.68585677916667,62.0,89.0
868,253.93306317083332,254.70229332083332,58.0,102.0
869,254.32754017083332,254.70558062916666,55.0,82.0
870,255.51097117083333,256.12076686666666,65.0,92.0
871,255.51097117083333,256.1898003416667,62.0,79.0
872,255.90544817083332,256.46922155,58.0,74.0
873,256.2999251708333,256.9409502958333,62.0,69.0
874,256.2999251708333,256.9672487625,70.0,85.0
875,256.2999251708333,256.9705360708333,65.0,76.0
876,256.6944021708333,257.20064765416663,58.0,76.0
877,255.11649417083333,257.3321399875,53.0,60.0
878,254.7220171708333,257.38966788333335,46.0,93.0
879,257.0888791708333,257.91399356249997,70.0,100.0
880,257.0888791708333,257.91728087083334,65.0,88.0
881,257.4833561708333,257.92878645,62.0,88.0
882,259.06126417083334,259.6496923625,48.0,83.0
883,259.45574117083333,260.1181338,64.0,82.0
884,259.45574117083333,260.11977745416664,60.0,85.0
885,258.66678717083335,260.1657997708333,55.0,90.0
886,259.85021817083333,260.2726372916667,48.0,89.0
887,260.44193367083335,260.60465543333333,48.0,88.0
888,257.8778331708333,260.61123005,36.0,77.0
889,260.2446951708333,260.69012545,60.0,96.0
890,258.27231017083335,261.00735070416664,43.0,59.0
891,260.6391721708333,261.09775168333334,55.0,95.0
892,260.83641067083335,261.11747553333333,60.0,117.0
893,260.2446951708333,261.1371993833333,64.0,96.0
894,261.8226031708333,262.3387105791667,65.0,77.0
895,261.8226031708333,262.34692885,62.0,85.0
896,261.8226031708333,262.50143234166666,57.0,89.0
897,262.2170801708333,262.89426568749997,50.0,88.0
898,262.61155717083335,263.2591569125,65.0,79.0
899,262.61155717083335,263.26737518333334,62.0,88.0
900,262.61155717083335,263.27559345416665,57.0,83.0
901,263.00603417083335,263.481050225,50.0,79.0
902,261.0336491708333,263.717736425,38.0,89.0
903,261.4281261708333,263.72759835,45.0,64.0
904,263.40051117083334,263.81799932916664,62.0,99.0
905,263.5977496708333,263.88210184166667,50.0,70.0
906,263.40051117083334,264.27329153333335,65.0,95.0
907,263.79498817083334,264.29137172916666,57.0,102.0
908,263.9922266708333,264.30123365416665,62.0,96.0
909,264.5839421708333,265.1016932333333,50.0,77.0
910,264.9784191708333,265.45179157083334,55.0,83.0
911,264.9784191708333,265.4912392708333,58.0,97.0
912,264.9784191708333,265.53397427916667,62.0,83.0
913,265.3728961708333,265.96789897916665,50.0,70.0
914,265.7673731708333,266.2999171208333,55.0,78.0
915,265.7673731708333,266.4083982958333,62.0,82.0
916,265.7673731708333,266.44948965,58.0,88.0
917,266.1618501708333,266.6483718041667,50.0,63.0
918,264.18946517083333,266.85875953749996,43.0,83.0
919,266.7535656708333,266.8867016583333,50.0,72.0
920,266.5563271708333,267.0165503375,58.0,85.0
921,266.95080417083335,267.27953500416663,55.0,100.0
922,266.5563271708333,267.3189827041667,62.0,88.0
923,267.1480426708333,267.33377559166667,58.0,95.0
924,267.34528117083335,267.86960684999997,62.0,92.0
925,267.34528117083335,268.00603014583334,65.0,93.0
926,267.34528117083335,268.0126047625,70.0,93.0
927,267.73975817083334,268.14902805833333,53.0,39.0
928,267.34528117083335,268.23778538333335,46.0,93.0
929,268.13423517083334,268.5385740958333,65.0,89.0
930,268.13423517083334,268.54021775,70.0,96.0
931,268.52871217083333,268.86401762083335,62.0,99.0
932,268.9231891708333,269.5642142958333,64.0,83.0
933,268.9231891708333,269.56585795,60.0,90.0
934,268.9231891708333,269.9817024541667,36.0,74.0
935,269.3176661708333,270.1197694041667,43.0,46.0
936,269.7121431708333,270.40247792083335,60.0,92.0
937,270.1066201708333,270.404121575,55.0,77.0
938,269.7121431708333,270.41069619166666,64.0,85.0
939,270.5010971708333,271.05665227916666,65.0,76.0
940,270.5010971708333,271.094456325,62.0,82.0
941,270.5010971708333,271.1585588375,58.0,99.0
942,270.5010971708333,271.20951211666664,46.0,86.0
943,271.29005117083335,271.98367322916664,60.0,95.0
944,271.29005117083335,271.9869605375,55.0,92.0
945,271.29005117083335,271.98860419166664,64.0,92.0
946,271.29005117083335,272.0001097708333,48.0,63.0
947,272.6707206708333,273.0487611291667,52.0,71.0
948,272.86795917083333,273.0816342125,53.0,69.0
949,273.0651976708333,273.12436922083333,57.0,89.0
950,273.2624361708333,273.51062795,62.0,100.0
951,273.45967467083335,273.58623604166667,64.0,96.0
952,272.47348217083334,273.60760354583334,50.0,83.0
953,272.2762436708333,273.61582181666665,45.0,73.0
954,272.07900517083334,273.6700624041667,38.0,76.0
955,273.6569131708333,273.6700624041667,38.0,92.0
956,274.0513901708333,274.486958525,50.0,85.0
957,274.24862867083334,274.7072081833333,57.0,73.0
958,274.64310567083334,274.9570436166667,50.0,71.0
959,273.85415167083335,275.2118100125,45.0,92.0
960,275.03758267083333,275.7279174208333,57.0,82.0
961,274.4458671708333,275.8495478291667,65.0,100.0
962,274.8403441708333,275.87748995,62.0,77.0
963,275.62929817083335,276.30319637916665,50.0,73.0
964,275.2348211708333,276.6401454833333,38.0,59.0
965,275.4320596708333,276.79957993749997,45.0,69.0
966,276.41825217083334,276.82587840416664,64.0,95.0
967,276.02377517083335,276.82587840416664,65.0,95.0
968,276.6154906708333,276.8817626458333,62.0,88.0
969,275.8265366708333,276.91134842083335,57.0,66.0
970,277.20720617083333,277.6263379833333,50.0,61.0
971,277.79892167083335,278.234490025,50.0,51.0
972,276.81272917083334,278.254213875,38.0,78.0
973,277.0099676708333,278.33639658333334,45.0,48.0
974,277.9961601708333,278.4941873833333,64.0,69.0
975,277.6016831708333,278.50240565416664,65.0,90.0
976,278.19339867083335,278.5056929625,62.0,62.0
977,277.4044446708333,278.5418533541667,57.0,69.0
978,278.3906371708333,279.33738197083335,38.0,60.0
979,278.58787567083334,279.35217485833334,45.0,43.0
980,278.7851141708333,279.378473325,50.0,68.0
981,278.98235267083334,279.6759747291667,57.0,70.0
982,279.1795911708333,279.9340284333333,65.0,96.0
983,279.5740681708333,279.9652578625,64.0,71.0
984,279.7713066708333,279.98991267499997,62.0,65.0
985,280.36302217083335,280.6950403125,55.0,78.0
986,280.5602606708333,280.73120070416667,58.0,72.0
987,280.1657836708333,280.79530321666664,50.0,58.0
988,279.96854517083335,281.3048360083333,43.0,69.0
989,280.9547376708333,281.40509891249997,50.0,70.0
990,281.3492146708333,281.50536181666666,55.0,60.0
991,281.15197617083334,281.54480951666665,58.0,42.0
992,280.75749917083334,281.54645317083333,62.0,93.0
993,281.7436916708333,282.021469225,53.0,77.0
994,281.9409301708333,282.2828102375,62.0,93.0
995,281.54645317083333,282.29102850833334,46.0,102.0
996,282.13816867083335,282.30910870416665,58.0,107.0
997,282.3354071708333,282.751251675,48.0,69.0
998,282.53264567083335,282.9665703708333,55.0,89.0
999,282.7298841708333,283.1177865541667,64.0,97.0
1000,282.92712267083334,283.1424413666667,60.0,97.0
1001,283.5188381708333,283.96262479583334,50.0,81.0
1002,283.71607667083333,284.072749625,57.0,77.0
1003,284.1105536708333,284.3718946833333,50.0,83.0
1004,283.9133151708333,284.38504391666663,65.0,102.0
1005,284.30779217083335,284.7795209166667,64.0,96.0
1006,284.5050306708333,284.8074630375,50.0,73.0
1007,284.8995076708333,285.08030962916666,50.0,69.0
1008,284.70226917083335,285.14934310416663,65.0,107.0
1009,285.09674617083334,285.32192679166667,64.0,127.0
1010,285.2939846708333,285.5356018333333,65.0,90.0
1011,285.6884616708333,285.8955620958333,50.0,81.0
1012,285.49122317083334,285.9333661416667,64.0,117.0
1013,283.1243611708333,286.09773155833335,38.0,88.0
1014,285.88570017083333,286.14539752916664,65.0,117.0
1015,283.32159967083334,286.25059139583334,45.0,56.0
1016,286.0829386708333,286.2851081333333,64.0,122.0
1017,286.6746541708333,287.06255655416663,50.0,81.0
1018,287.0691311708333,287.3485523791667,50.0,85.0
1019,286.2801771708333,287.6855014833333,38.0,81.0
1020,286.87189267083335,287.75782226666666,65.0,96.0
1021,286.47741567083335,287.86959075,45.0,71.0
1022,287.4636081708333,287.9813592333333,64.0,89.0
1023,287.66084667083334,288.0651855958333,62.0,78.0
1024,286.87189267083335,288.32981391666664,57.0,76.0
1025,288.2525621708333,288.67169398333334,50.0,69.0
1026,288.8442776708333,289.03001059166667,50.0,89.0
1027,287.8580851708333,289.2847769875,38.0,61.0
1028,288.64703917083335,289.32915565,65.0,99.0
1029,289.04151617083335,289.36038507916663,64.0,74.0
1030,288.4498006708333,289.44914240416665,57.0,90.0
1031,288.05532367083333,289.4705099083333,45.0,49.0
1032,289.2387546708333,289.477084525,62.0,93.0
1033,289.83047017083334,290.22001620833333,50.0,79.0
1034,290.4221856708333,290.6638028333333,50.0,74.0
1035,289.43599317083334,290.82652459583335,38.0,69.0
1036,290.0277086708333,290.8807651833333,57.0,70.0
1037,290.22494717083333,290.8955580708333,65.0,100.0
1038,289.6332316708333,291.0500615625,45.0,64.0
1039,290.6194241708333,291.0599234875,64.0,89.0
1040,290.81666267083335,291.14046254166664,62.0,93.0
1041,291.4083781708333,291.87517595416665,50.0,72.0
1042,291.60561667083334,291.9409221208333,57.0,78.0
1043,291.0139011708333,292.12665504166665,38.0,62.0
1044,291.21113967083335,292.2039067875,45.0,68.0
1045,291.8028551708333,292.3288245041667,65.0,102.0
1046,292.1973321708333,292.435662025,64.0,99.0
1047,292.00009367083334,292.51620107916665,50.0,76.0
1048,292.39457067083333,292.5194883875,62.0,97.0
1049,292.5918091708333,292.65919899166664,55.0,102.0
1050,292.7890476708333,292.9139653875,43.0,99.0
1051,292.7890476708333,292.9139653875,55.0,99.0
1052,292.9862861708333,293.14900793333334,41.0,93.0
1053,292.9862861708333,293.14900793333334,53.0,93.0
1054,293.1835246708333,293.29200584583333,43.0,90.0
1055,293.1835246708333,293.29200584583333,55.0,90.0
1056,293.38076317083335,293.4514403,45.0,102.0
1057,293.38076317083335,293.4514403,57.0,102.0
1058,293.5780016708333,293.6815518833333,45.0,107.0
1059,293.5780016708333,293.6815518833333,57.0,107.0
1060,293.77524017083334,293.89687057916666,43.0,92.0
1061,293.77524017083334,293.89687057916666,55.0,92.0
1062,293.9724786708333,294.0826035,45.0,107.0
1063,293.9724786708333,294.0826035,57.0,107.0
1064,294.16971717083334,294.26669276666667,48.0,127.0
1065,294.16971717083334,294.26669276666667,60.0,127.0
1066,294.56419417083333,294.56912513333333,45.0,117.0
1067,294.56419417083333,294.56912513333333,57.0,117.0
1068,295.7476251708333,296.124021975,45.0,117.0
1069,295.7476251708333,296.124021975,57.0,117.0
1070,296.1421021708333,296.44782184583335,48.0,100.0
1071,296.1421021708333,296.44782184583335,60.0,100.0
1072,296.5365791708333,296.83901153749997,53.0,122.0
1073,296.5365791708333,296.83901153749997,65.0,122.0
1074,296.9310561708333,297.25485604166664,52.0,127.0
1075,296.9310561708333,297.25485604166664,64.0,127.0
1076,297.3255331708333,299.7482794125,50.0,127.0
1077,297.3255331708333,299.7482794125,62.0,127.0
1078,300.0868721708333,300.8561023208333,60.0,117.0
1079,300.0868721708333,300.88733175,48.0,112.0
1080,300.8758261708333,308.63551749166663,50.0,97.0
1081,300.8758261708333,309.1762797125,62.0,127.0
