,start,end,pitch,velocity
0,9.217879,10.055868,73.0,100.0
1,10.055868,10.893857,71.0,105.0
2,10.893857,11.731845999999999,70.0,117.0
3,11.731845999999999,12.9888295,68.0,102.0
4,12.9888295,13.196580939583333,70.0,92.0
5,13.19832675,14.663061689583333,70.0,97.0
6,14.6648075,14.87430475,70.0,111.0
7,14.87430475,16.3407855,78.0,102.0
8,16.3407855,16.55028275,70.0,102.0
9,16.55028275,18.0167635,77.0,105.0
10,18.0167635,18.22626075,70.0,108.0
11,18.22626075,20.949725,75.0,105.0
12,20.949725,21.3687195,70.0,117.0
13,21.3687195,21.57821675,73.0,105.0
14,21.57821675,23.25244893958333,75.0,100.0
15,23.25419475,23.461946189583333,75.0,92.0
16,23.463691999999998,23.8826865,75.0,100.0
17,23.8826865,24.301681,77.0,105.0
18,24.301681,24.7206755,73.0,114.0
19,24.7206755,24.93017275,71.0,96.0
20,24.93017275,26.604404939583333,73.0,92.0
21,26.60615075,26.813902189583334,73.0,82.0
22,26.815648,27.2346425,73.0,102.0
23,27.2346425,27.653637,75.0,105.0
24,27.653637,28.0726315,71.0,105.0
25,28.0726315,28.28212875,70.0,97.0
26,28.28212875,29.7486095,71.0,109.0
27,29.7486095,29.95810675,68.0,108.0
28,29.95810675,30.167604,70.0,108.0
29,30.167604,31.4245875,73.0,111.0
30,31.4245875,31.63408475,71.0,102.0
31,31.63408475,36.033527,70.0,102.0
32,36.033527,36.871516,73.0,100.0
33,36.871516,37.709505,71.0,105.0
34,37.709505,38.547494,70.0,117.0
35,38.547494,39.8044775,68.0,102.0
36,39.8044775,40.01222893958333,70.0,92.0
37,40.01397475,41.47870968958333,70.0,97.0
38,41.4804555,41.689952749999996,70.0,111.0
39,41.689952749999996,43.1564335,78.0,102.0
40,43.1564335,43.36593075,70.0,102.0
41,43.36593075,44.8324115,77.0,105.0
42,44.8324115,45.04190875,70.0,108.0
43,45.04190875,47.765373,75.0,105.0
44,47.765373,48.1843675,70.0,117.0
45,48.1843675,48.39386475,73.0,105.0
46,48.39386475,50.068096939583334,75.0,100.0
47,50.06984275,50.27759418958333,75.0,92.0
48,50.27934,50.6983345,75.0,100.0
49,50.6983345,51.117329,77.0,105.0
50,51.117329,51.5363235,73.0,114.0
51,51.5363235,51.74582075,71.0,96.0
52,51.74582075,53.420052939583336,73.0,92.0
53,53.42179875,53.629550189583334,73.0,82.0
54,53.631296,54.0502905,73.0,102.0
55,54.0502905,54.469285,75.0,105.0
56,54.469285,54.888279499999996,71.0,105.0
57,54.888279499999996,55.09777675,70.0,97.0
58,55.09777675,56.5642575,71.0,109.0
59,56.5642575,56.77375475,68.0,108.0
60,56.77375475,56.983252,70.0,108.0
61,56.983252,58.2402355,73.0,111.0
62,58.2402355,58.44973275,75.0,102.0
63,58.44973275,60.335208,77.0,102.0
64,60.335208,61.173197,78.0,111.0
65,61.173197,62.011186,80.0,117.0
66,62.011186,65.7821365,82.0,108.0
67,65.7821365,66.201131,83.0,109.0
68,66.201131,66.6201255,80.0,108.0
69,66.6201255,66.82962275,78.0,102.0
70,66.82962275,68.2961035,80.0,97.0
71,68.2961035,68.50560075,78.0,102.0
72,68.50560075,72.4860485,80.0,108.0
73,72.4860485,72.905043,82.0,67.0
74,72.905043,73.3240375,78.0,94.0
75,73.3240375,73.53353475,77.0,100.0
76,73.53353475,75.0000155,78.0,108.0
77,75.0000155,75.20951275,77.0,102.0
78,75.20951275,79.1899605,78.0,108.0
79,79.1899605,79.608955,80.0,111.0
80,79.608955,80.0279495,77.0,111.0
81,80.0279495,80.23744675,75.0,92.0
82,80.23744675,81.91342475,77.0,100.0
83,81.91342475,82.12117618958334,75.0,92.0
84,82.122922,85.474878,75.0,100.0
85,103.072647,103.910636,73.0,100.0
86,103.910636,104.748625,71.0,105.0
87,104.748625,105.586614,70.0,117.0
88,105.586614,106.8435975,68.0,102.0
89,106.8435975,107.05134893958333,70.0,92.0
90,107.05309475,108.51782968958334,70.0,97.0
91,108.5195755,108.72907275,70.0,111.0
92,108.72907275,110.1955535,78.0,102.0
93,110.1955535,110.40505075,70.0,102.0
94,110.40505075,111.8715315,77.0,105.0
95,111.8715315,112.08102875,70.0,108.0
96,112.08102875,114.804493,75.0,105.0
97,114.804493,115.2234875,70.0,117.0
98,115.2234875,115.43298475,73.0,105.0
99,115.43298475,117.10721693958334,75.0,100.0
100,117.10896275,117.31671418958334,75.0,92.0
101,117.31846,117.7374545,75.0,100.0
102,117.7374545,118.156449,77.0,105.0
103,118.156449,118.5754435,73.0,114.0
104,118.5754435,118.78494075,71.0,96.0
105,118.78494075,120.45917293958333,73.0,92.0
106,120.46091875,120.66867018958334,73.0,82.0
107,120.670416,121.0894105,73.0,102.0
108,121.0894105,121.508405,75.0,105.0
109,121.508405,121.92739949999999,71.0,105.0
110,121.92739949999999,122.13689675,70.0,97.0
111,122.13689675,123.6033775,71.0,109.0
112,123.6033775,123.81287474999999,68.0,108.0
113,123.81287474999999,124.022372,70.0,108.0
114,124.022372,125.2793555,73.0,111.0
115,125.2793555,125.48885274999999,75.0,102.0
116,125.48885274999999,127.374328,77.0,102.0
117,127.374328,128.21231699999998,78.0,111.0
118,128.21231699999998,129.050306,80.0,117.0
119,129.050306,132.831818,82.0,108.0
120,132.831818,133.25198600000002,83.0,109.0
121,133.25198600000002,133.672154,80.0,108.0
122,133.672154,133.882238,78.0,102.0
123,133.882238,135.352826,80.0,97.0
124,135.352826,135.56291000000002,78.0,102.0
125,135.56291000000002,139.554506,80.0,108.0
126,139.554506,139.974674,82.0,67.0
127,139.974674,140.394842,78.0,94.0
128,140.394842,140.604926,77.0,100.0
129,140.604926,142.075514,78.0,108.0
130,142.075514,142.285598,77.0,102.0
131,142.285598,146.277194,78.0,108.0
132,146.277194,146.697362,80.0,111.0
133,146.697362,147.11753000000002,77.0,111.0
134,147.11753000000002,147.327614,75.0,92.0
135,147.327614,148.378034,77.0,100.0
136,148.378034,148.798202,78.0,114.0
137,148.798202,149.21837,80.0,111.0
138,149.21837,152.999882,82.0,108.0
139,152.999882,153.42005,83.0,109.0
140,153.42005,153.840218,80.0,108.0
141,153.840218,154.05030200000002,78.0,102.0
142,154.05030200000002,155.52089,80.0,97.0
143,155.52089,155.730974,78.0,102.0
144,155.730974,159.72257000000002,80.0,108.0
145,159.72257000000002,160.142738,82.0,67.0
146,160.142738,160.562906,78.0,94.0
147,160.562906,160.77299,77.0,100.0
148,160.77299,162.243578,78.0,108.0
149,162.243578,162.453662,77.0,102.0
150,162.453662,166.44525800000002,78.0,108.0
151,166.44525800000002,166.865426,80.0,111.0
152,166.865426,167.285594,77.0,111.0
153,167.285594,167.495678,75.0,92.0
154,167.495678,169.386434,77.0,100.0
155,169.386434,172.747778,82.0,108.0
