,start,end,pitch,velocity
0,8.37989,8.973465541666666,58.0,78.0
1,8.37989,8.9769571625,54.0,76.0
2,8.7988845,9.308661141666667,49.0,76.0
3,9.217879,10.0872925875,54.0,78.0
4,9.217879,10.101259070833333,58.0,82.0
5,9.6368735,10.158870814583333,49.0,76.0
6,10.055868,10.92004415625,56.0,97.0
7,10.4748625,11.017809539583332,49.0,76.0
8,10.893857,11.515365508333334,54.0,92.0
9,8.37989,11.536315233333333,42.0,92.0
10,11.3128515,11.812153279166667,49.0,76.0
11,11.731845999999999,12.3079634375,53.0,82.0
12,12.1508405,12.671092004166667,49.0,71.0
13,11.731845999999999,12.8107568375,41.0,82.0
14,11.731845999999999,12.812502647916666,56.0,87.0
15,12.9888295,13.276888218749999,41.0,71.0
16,12.569835,13.32926253125,53.0,69.0
17,13.407824,13.655729079166667,53.0,45.0
18,13.407824,14.085198441666666,58.0,80.0
19,13.8268185,14.113131408333333,53.0,64.0
20,13.407824,14.465785112499999,46.0,92.0
21,14.245813,15.027936066666667,53.0,82.0
22,14.6648075,15.071581327083333,46.0,82.0
23,14.245813,15.090785241666666,58.0,94.0
24,15.083802,15.708802129166667,66.0,80.0
25,15.083802,15.991623416666666,63.0,66.0
26,15.5027965,16.04748935,58.0,67.0
27,15.921791,16.384430760416667,66.0,89.0
28,15.083802,16.557265991666668,51.0,92.0
29,16.3407855,16.850562141666668,58.0,71.0
30,15.921791,17.185757741666666,70.0,94.0
31,16.75978,17.311456091666667,65.0,78.0
32,16.75978,17.426679579166667,61.0,62.0
33,17.1787745,17.709500866666666,58.0,78.0
34,17.597769,17.8596405625,61.0,67.0
35,16.75978,18.128495366666666,49.0,71.0
36,18.0167635,18.350213289583333,58.0,71.0
37,17.597769,18.3519591,65.0,97.0
38,18.8547525,19.484990060416667,54.0,60.0
39,17.597769,19.799235935416668,70.0,84.0
40,19.6927415,20.361386889583333,54.0,55.0
41,20.111736,20.822280839583332,63.0,80.0
42,19.273747,20.878146772916665,59.0,77.0
43,18.435758,21.176680354166667,47.0,90.0
44,20.949725,21.2325462875,63.0,92.0
45,20.5307305,21.2534960125,54.0,41.0
46,20.949725,21.272699927083334,59.0,55.0
47,20.949725,21.38268598333333,66.0,84.0
48,21.787714,22.393510214583333,59.0,39.0
49,21.787714,22.40049345625,63.0,69.0
50,21.787714,22.55761639375,56.0,60.0
51,22.2067085,22.779334316666667,51.0,50.0
52,22.625703,23.156429366666668,59.0,99.0
53,21.787714,23.18610814375,44.0,97.0
54,22.625703,23.289110958333332,63.0,82.0
55,23.044697499999998,23.3484685125,51.0,76.0
56,23.463691999999998,23.833803808333332,65.0,92.0
57,23.463691999999998,23.84602448125,61.0,84.0
58,23.463691999999998,23.997909987499998,49.0,94.0
59,23.8826865,24.3750050375,56.0,64.0
60,24.301681,24.979055441666667,59.0,65.0
61,24.301681,25.048887858333334,63.0,84.0
62,24.301681,25.066345962499998,47.0,72.0
63,24.7206755,25.073329204166665,56.0,84.0
64,25.13967,25.618022054166666,61.0,82.0
65,25.13967,25.707058385416666,58.0,73.0
66,25.5586645,26.08764505625,53.0,49.0
67,25.13967,26.147002610416667,46.0,97.0
68,25.977659,26.40189093125,65.0,92.0
69,25.977659,26.4490278125,58.0,97.0
70,26.3966535,26.728357479166668,46.0,89.0
71,26.815648,27.101960908333332,58.0,87.0
72,26.815648,27.395257058333332,63.0,84.0
73,27.2346425,27.4860392,58.0,78.0
74,27.653637,27.870117491666665,58.0,97.0
75,27.653637,28.1250058125,63.0,92.0
76,27.653637,28.14071810625,67.0,82.0
77,26.815648,28.180871745833333,51.0,80.0
78,28.0726315,28.304824285416668,58.0,76.0
79,28.491626,29.001402641666665,63.0,84.0
80,28.491626,29.029335608333334,59.0,59.0
81,28.491626,29.2143915125,56.0,73.0
82,29.329615,29.802729622916665,59.0,96.0
83,28.9106205,29.856849745833333,51.0,62.0
84,29.7486095,29.96334418125,56.0,69.0
85,28.491626,30.0000062,44.0,87.0
86,29.329615,30.034922408333333,63.0,94.0
87,30.167604,30.726263333333332,56.0,87.0
88,30.167604,30.7646711625,59.0,68.0
89,30.5865985,30.87989465,53.0,55.0
90,30.167604,31.311109822916666,41.0,80.0
91,31.005593,31.78597025625,53.0,87.0
92,31.4245875,31.803428360416667,41.0,78.0
93,31.005593,31.808665791666666,56.0,102.0
94,31.843582,32.452869835416664,65.0,82.0
95,31.843582,32.756640847916664,58.0,78.0
96,32.2625765,32.7758447625,53.0,71.0
97,32.681571,33.329266664583336,62.0,96.0
98,33.1005655,33.61732538333333,53.0,66.0
99,33.51956,34.02759083125,70.0,89.0
100,33.51956,34.09916905833333,58.0,78.0
101,33.51956,34.19693444166666,62.0,65.0
102,33.9385545,34.486738970833336,53.0,51.0
103,31.843582,34.8289178125,46.0,84.0
104,34.357549,35.089043564583335,58.0,78.0
105,34.357549,35.09602680625,62.0,52.0
106,35.195538,35.789113541666666,58.0,78.0
107,35.195538,35.7926051625,54.0,76.0
108,35.6145325,36.124309141666664,49.0,76.0
109,36.033527,36.9029405875,54.0,78.0
110,36.033527,36.91690707083333,58.0,82.0
111,36.4525215,36.974518814583334,49.0,76.0
112,36.871516,37.735692156249996,56.0,97.0
113,37.290510499999996,37.833457539583335,49.0,76.0
114,37.709505,38.331013508333335,54.0,92.0
115,35.195538,38.351963233333336,42.0,92.0
116,38.1284995,38.62780127916667,49.0,76.0
117,38.547494,39.1236114375,53.0,82.0
118,38.9664885,39.48674000416666,49.0,71.0
119,38.547494,39.6264048375,41.0,82.0
120,38.547494,39.62815064791667,56.0,87.0
121,39.8044775,40.09253621875,41.0,71.0
122,39.385483,40.14491053125,53.0,69.0
123,40.223472,40.471377079166665,53.0,45.0
124,40.223472,40.900846441666665,58.0,80.0
125,40.6424665,40.928779408333334,53.0,64.0
126,40.223472,41.2814331125,46.0,92.0
127,41.061461,41.843584066666665,53.0,82.0
128,41.4804555,41.88722932708333,46.0,82.0
129,41.061461,41.90643324166667,58.0,94.0
130,41.89945,42.52445012916667,66.0,80.0
131,41.89945,42.807271416666666,63.0,66.0
132,42.3184445,42.86313735,58.0,67.0
133,42.737439,43.200078760416666,66.0,89.0
134,41.89945,43.372913991666664,51.0,92.0
135,43.1564335,43.66621014166667,58.0,71.0
136,42.737439,44.001405741666666,70.0,94.0
137,43.575428,44.127104091666666,65.0,78.0
138,43.575428,44.24232757916667,61.0,62.0
139,43.9944225,44.52514886666667,58.0,78.0
140,44.413417,44.6752885625,61.0,67.0
141,43.575428,44.944143366666665,49.0,71.0
142,44.8324115,45.16586128958333,58.0,71.0
143,44.413417,45.1676071,65.0,97.0
144,45.6704005,46.30063806041667,54.0,60.0
145,44.413417,46.614883935416664,70.0,84.0
146,46.5083895,47.17703488958333,54.0,55.0
147,46.927383999999996,47.63792883958333,63.0,80.0
148,46.089394999999996,47.69379477291667,59.0,77.0
149,45.251406,47.992328354166666,47.0,90.0
150,47.765373,48.0481942875,63.0,92.0
151,47.3463785,48.0691440125,54.0,41.0
152,47.765373,48.08834792708333,59.0,55.0
153,47.765373,48.198333983333335,66.0,84.0
154,48.603362,49.20915821458333,59.0,39.0
155,48.603362,49.21614145625,63.0,69.0
156,48.603362,49.37326439375,56.0,60.0
157,49.0223565,49.594982316666666,51.0,50.0
158,49.441351,49.97207736666667,59.0,99.0
159,48.603362,50.00175614375,44.0,97.0
160,49.441351,50.104758958333335,63.0,82.0
161,49.8603455,50.1641165125,51.0,76.0
162,50.27934,50.64945180833333,65.0,92.0
163,50.27934,50.66167248125,61.0,84.0
164,50.27934,50.8135579875,49.0,94.0
165,50.6983345,51.1906530375,56.0,64.0
166,51.117329,51.79470344166667,59.0,65.0
167,51.117329,51.86453585833333,63.0,84.0
168,51.117329,51.8819939625,47.0,72.0
169,51.5363235,51.888977204166665,56.0,84.0
170,51.955318,52.43367005416667,61.0,82.0
171,51.955318,52.52270638541667,58.0,73.0
172,52.3743125,52.90329305625,53.0,49.0
173,51.955318,52.96265061041667,46.0,97.0
174,52.793307,53.21753893125,65.0,92.0
175,52.793307,53.2646758125,58.0,97.0
176,53.2123015,53.544005479166664,46.0,89.0
177,53.631296,53.917608908333335,58.0,87.0
178,53.631296,54.21090505833333,63.0,84.0
179,54.0502905,54.301687199999996,58.0,78.0
180,54.469285,54.685765491666665,58.0,97.0
181,54.469285,54.9406538125,63.0,92.0
182,54.469285,54.95636610625,67.0,82.0
183,53.631296,54.99651974583333,51.0,80.0
184,54.888279499999996,55.12047228541667,58.0,76.0
185,55.307274,55.81705064166667,63.0,84.0
186,55.307274,55.84498360833333,59.0,59.0
187,55.307274,56.0300395125,56.0,73.0
188,56.145263,56.61837762291667,59.0,96.0
189,55.726268499999996,56.67249774583333,51.0,62.0
190,56.5642575,56.77899218125,56.0,69.0
191,55.307274,56.8156542,44.0,87.0
192,56.145263,56.85057040833333,63.0,94.0
193,56.983252,57.54191133333333,56.0,87.0
194,56.983252,57.5803191625,59.0,68.0
195,57.4022465,57.69554265,53.0,55.0
196,56.983252,58.126757822916666,41.0,80.0
197,57.821241,58.60161825625,53.0,87.0
198,58.2402355,58.61907636041666,41.0,78.0
199,57.821241,58.624313791666665,56.0,102.0
200,58.65923,59.26851783541667,65.0,82.0
201,58.65923,59.57228884791667,58.0,78.0
202,59.0782245,59.591492762499996,53.0,71.0
203,59.497219,60.14491466458333,62.0,96.0
204,59.9162135,60.432973383333334,53.0,66.0
205,60.335208,60.84323883125,70.0,89.0
206,60.335208,60.914817058333334,58.0,78.0
207,60.335208,61.012582441666666,62.0,65.0
208,60.7542025,61.30238697083333,53.0,51.0
209,58.65923,61.6445658125,46.0,84.0
210,61.173197,61.90469156458333,58.0,78.0
211,61.173197,61.91167480625,62.0,52.0
212,62.011186,62.431926310416664,70.0,73.0
213,62.011186,62.465096708333334,66.0,84.0
214,62.011186,62.51921683125,63.0,71.0
215,62.849175,62.89282026041666,63.0,51.0
216,62.4301805,63.072638733333335,58.0,62.0
217,62.849175,63.4881416125,70.0,94.0
218,62.849175,63.496870664583334,66.0,94.0
219,62.011186,63.51432876875,51.0,97.0
220,63.2681695,63.805879108333336,58.0,78.0
221,63.687164,64.3051808875,70.0,89.0
222,63.687164,64.31390993958333,66.0,84.0
223,63.687164,64.38374235625,61.0,80.0
224,63.687164,64.68576755833334,49.0,82.0
225,64.10615849999999,64.77305807916666,58.0,50.0
226,64.525153,64.82717820208333,66.0,102.0
227,64.525153,64.84463630625,61.0,97.0
228,64.9441475,65.1222201625,49.0,100.0
229,64.525153,65.30553025625,70.0,97.0
230,65.363142,65.97242983541666,70.0,67.0
231,65.363142,65.98465050833333,63.0,100.0
232,65.363142,66.01956671666666,59.0,65.0
233,65.363142,66.35476231666667,47.0,74.0
234,65.7821365,66.39142433541667,54.0,34.0
235,66.201131,66.43332378541666,63.0,102.0
236,66.201131,66.44030702708334,59.0,99.0
237,66.6201255,66.9029467875,47.0,96.0
238,66.201131,67.07927363958333,70.0,100.0
239,67.03912,67.5942877125,65.0,92.0
240,67.03912,67.59777933333334,61.0,80.0
241,67.03912,68.0551816625,49.0,100.0
242,67.4581145,68.10930178541666,56.0,71.0
243,67.877109,68.27340796458333,65.0,100.0
244,67.877109,68.30134093125,61.0,92.0
245,68.2961035,68.50210912916667,49.0,94.0
246,67.877109,68.94030754375,68.0,94.0
247,68.715098,69.3750143375,61.0,89.0
248,68.715098,69.42215121875,58.0,78.0
249,69.1340925,69.65434400416666,53.0,48.0
250,68.715098,69.7940088375,46.0,97.0
251,69.9720815,70.17459550833333,46.0,1.0
252,69.553087,70.27061508125,61.0,89.0
253,69.553087,70.28807318541666,65.0,92.0
254,69.9720815,70.3387016875,53.0,67.0
255,70.391076,70.83625765625,68.0,66.0
256,70.391076,70.9252939875,65.0,84.0
257,70.391076,70.99687221458333,61.0,84.0
258,70.391076,71.0300426125,58.0,82.0
259,70.391076,71.37745888541667,46.0,76.0
260,70.8100705,71.39491698958334,53.0,51.0
261,71.229065,71.43856225,61.0,108.0
262,71.229065,71.44205387083333,58.0,105.0
263,71.229065,71.4909365625,65.0,102.0
264,71.6480595,71.74931650416667,46.0,97.0
265,72.067054,72.6222217125,63.0,45.0
266,72.067054,72.63444238541666,66.0,82.0
267,72.067054,72.66062954166667,70.0,87.0
268,72.4860485,73.05867431666667,58.0,64.0
269,72.905043,73.32229168958334,66.0,97.0
270,72.905043,73.36419113958333,63.0,80.0
271,72.067054,73.52829731875,51.0,97.0
272,72.905043,73.64002918541667,70.0,100.0
273,73.3240375,73.85476386666667,58.0,78.0
274,73.743032,74.3296243,61.0,76.0
275,73.743032,74.33660754166667,70.0,89.0
276,73.743032,74.36977793958333,65.0,87.0
277,73.743032,74.74687298958334,49.0,78.0
278,74.58102099999999,74.90923335833334,61.0,92.0
279,74.58102099999999,74.9266914625,65.0,97.0
280,74.1620265,74.93542051458333,58.0,66.0
281,74.58102099999999,75.13095128125,70.0,97.0
282,75.0000155,75.188563025,49.0,84.0
283,75.41901,75.89387043333333,56.0,76.0
284,75.41901,75.96195703958334,63.0,82.0
285,75.41901,76.54854933958333,48.0,87.0
286,76.256999,76.61838175625,56.0,87.0
287,75.8380045,78.66970899583333,54.0,78.0
288,76.6759935,78.68367547916667,56.0,92.0
289,76.6759935,78.70287939375,63.0,94.0
290,76.6759935,78.72208330833334,48.0,89.0
291,78.770966,79.20916441458333,59.0,87.0
292,78.770966,79.29296331458333,63.0,60.0
293,78.770966,79.73639916041667,47.0,65.0
294,79.1899605,79.84114778541667,54.0,66.0
295,79.608955,79.97382937708333,59.0,109.0
296,79.608955,80.06810313958333,63.0,100.0
297,80.0279495,80.3736199625,47.0,68.0
298,80.446944,80.86419268958333,56.0,82.0
299,80.446944,80.97243293541666,62.0,57.0
300,80.446944,81.41237716041667,46.0,69.0
301,80.8659385,81.47173471458333,53.0,78.0
302,81.284933,81.80169288333333,62.0,105.0
303,81.284933,81.87850854166666,65.0,92.0
304,81.284933,81.93088285416667,58.0,100.0
305,81.7039275,82.0286482375,46.0,92.0
306,82.122922,82.73220983541667,63.0,80.0
307,82.122922,82.73570145625,68.0,89.0
308,82.5419165,83.06391381458333,58.0,78.0
309,82.960911,83.59638599166666,68.0,82.0
310,82.960911,83.64526868333333,63.0,84.0
311,83.37990549999999,84.03458440625,58.0,73.0
312,83.7989,84.46579957916667,68.0,97.0
313,83.7989,84.47627444166666,63.0,97.0
314,84.2178945,84.78528288541666,58.0,76.0
315,82.122922,85.14142821041666,51.0,97.0
316,84.636889,85.30902601041666,63.0,89.0
317,84.636889,85.38584166875,68.0,89.0
318,85.0558835,85.41377463541667,58.0,67.0
319,85.474878,86.42459886666667,63.0,80.0
320,85.474878,86.48395642083334,67.0,77.0
321,85.474878,87.65364939999999,51.0,97.0
322,86.312867,87.67809074583333,58.0,41.0
323,86.7318615,88.77271387708333,63.0,58.0
324,86.7318615,88.77271387708333,70.0,64.0
325,86.7318615,88.77620549791666,67.0,50.0
326,88.826834,89.42739278333333,63.0,87.0
327,88.826834,89.6752978625,56.0,71.0
328,89.664823,90.13095438124999,59.0,102.0
329,88.826834,90.1990409875,44.0,84.0
330,89.2458285,90.20777003958334,51.0,60.0
331,90.0838175,90.37187621875,56.0,82.0
332,90.502812,90.72627573333334,56.0,76.0
333,90.502812,91.06147133333333,61.0,84.0
334,90.9218065,91.21335683958333,56.0,45.0
335,90.502812,91.65330106458333,49.0,89.0
336,91.7597955,91.97103856041666,56.0,87.0
337,91.340801,92.12990730833333,65.0,100.0
338,92.17878999999999,92.68682083125,61.0,80.0
339,92.17878999999999,92.77236554166666,58.0,87.0
340,92.17878999999999,93.22103881875,46.0,71.0
341,92.5977845,93.22278462916667,53.0,57.0
342,93.016779,93.41656958541667,65.0,92.0
343,93.016779,93.49687686458333,58.0,100.0
344,93.4357735,93.83905570625,46.0,97.0
345,93.85476799999999,94.07997754375,58.0,71.0
346,93.85476799999999,94.44834354166666,63.0,78.0
347,94.2737625,94.55483797708334,58.0,58.0
348,94.692757,94.86908385208334,58.0,100.0
349,93.85476799999999,95.13619284583334,51.0,84.0
350,95.1117515,95.31426550833334,58.0,89.0
351,94.692757,95.58835774375,66.0,92.0
352,95.530746,96.38270148333334,56.0,78.0
353,95.530746,96.40539701875,63.0,84.0
354,95.9497405,96.80169598333333,51.0,62.0
355,96.368735,96.82788313958334,59.0,112.0
356,96.7877295,96.96056473125,56.0,105.0
357,95.530746,97.08102565,44.0,92.0
358,97.206724,97.71126321041666,53.0,78.0
359,97.206724,97.78458724791666,59.0,44.0
360,97.206724,98.22627728333333,41.0,87.0
361,97.6257185,98.22976890416666,47.0,59.0
362,98.4637075,98.60686395416667,41.0,97.0
363,98.044713,98.73779973541667,53.0,94.0
364,98.044713,98.84603998125,56.0,105.0
365,98.882702,99.75560720833333,65.0,84.0
366,98.882702,99.80274408958333,58.0,80.0
367,99.720691,100.17809332916667,62.0,99.0
368,100.1396855,100.41726935625,65.0,84.0
369,99.3016965,100.6320040375,53.0,76.0
370,100.97767449999999,102.03912723333333,53.0,53.0
371,98.882702,102.06007695833333,46.0,80.0
372,101.396669,102.10372221875,62.0,34.0
373,100.55868,102.11245127083333,58.0,87.0
374,101.396669,102.11943451249999,65.0,40.0
375,100.55868,102.14562166875,70.0,84.0
376,102.234658,102.82823354166666,58.0,78.0
377,102.234658,102.83172516249999,54.0,76.0
378,102.65365249999999,103.16342914166667,49.0,76.0
379,103.072647,103.9420605875,54.0,78.0
380,103.072647,103.95602707083333,58.0,82.0
381,103.4916415,104.01363881458333,49.0,76.0
382,103.910636,104.77481215625,56.0,97.0
383,104.3296305,104.87257753958333,49.0,76.0
384,104.748625,105.37013350833334,54.0,92.0
385,102.234658,105.39108323333333,42.0,92.0
386,105.1676195,105.66692127916667,49.0,76.0
387,105.586614,106.1627314375,53.0,82.0
388,106.0056085,106.52586000416666,49.0,71.0
389,105.586614,106.6655248375,41.0,82.0
390,105.586614,106.66727064791667,56.0,87.0
391,106.8435975,107.13165621875,41.0,71.0
392,106.424603,107.18403053125,53.0,69.0
393,107.262592,107.51049707916667,53.0,45.0
394,107.262592,107.93996644166667,58.0,80.0
395,107.6815865,107.96789940833334,53.0,64.0
396,107.262592,108.3205531125,46.0,92.0
397,108.100581,108.88270406666666,53.0,82.0
398,108.5195755,108.92634932708333,46.0,82.0
399,108.100581,108.94555324166666,58.0,94.0
400,108.93857,109.56357012916666,66.0,80.0
401,108.93857,109.84639141666666,63.0,66.0
402,109.3575645,109.90225735,58.0,67.0
403,109.77655899999999,110.23919876041667,66.0,89.0
404,108.93857,110.41203399166666,51.0,92.0
405,110.1955535,110.70533014166666,58.0,71.0
406,109.77655899999999,111.04052574166667,70.0,94.0
407,110.614548,111.16622409166666,65.0,78.0
408,110.614548,111.28144757916667,61.0,62.0
409,111.0335425,111.56426886666667,58.0,78.0
410,111.45253699999999,111.7144085625,61.0,67.0
411,110.614548,111.98326336666666,49.0,71.0
412,111.8715315,112.20498128958333,58.0,71.0
413,111.45253699999999,112.2067271,65.0,97.0
414,112.7095205,113.33975806041667,54.0,60.0
415,111.45253699999999,113.65400393541667,70.0,84.0
416,113.5475095,114.21615488958334,54.0,55.0
417,113.966504,114.67704883958334,63.0,80.0
418,113.128515,114.73291477291667,59.0,77.0
419,112.290526,115.03144835416667,47.0,90.0
420,114.804493,115.08731428749999,63.0,92.0
421,114.3854985,115.1082640125,54.0,41.0
422,114.804493,115.12746792708333,59.0,55.0
423,114.804493,115.23745398333334,66.0,84.0
424,115.642482,116.24827821458334,59.0,39.0
425,115.642482,116.25526145625,63.0,69.0
426,115.642482,116.41238439375,56.0,60.0
427,116.0614765,116.63410231666667,51.0,50.0
428,116.480471,117.01119736666666,59.0,99.0
429,115.642482,117.04087614375,44.0,97.0
430,116.480471,117.14387895833333,63.0,82.0
431,116.8994655,117.2032365125,51.0,76.0
432,117.31846,117.68857180833334,65.0,92.0
433,117.31846,117.70079248125,61.0,84.0
434,117.31846,117.8526779875,49.0,94.0
435,117.7374545,118.2297730375,56.0,64.0
436,118.156449,118.83382344166667,59.0,65.0
437,118.156449,118.90365585833334,63.0,84.0
438,118.156449,118.9211139625,47.0,72.0
439,118.5754435,118.92809720416666,56.0,84.0
440,118.994438,119.47279005416667,61.0,82.0
441,118.994438,119.56182638541667,58.0,73.0
442,119.4134325,119.94241305625,53.0,49.0
443,118.994438,120.00177061041667,46.0,97.0
444,119.832427,120.25665893125,65.0,92.0
445,119.832427,120.3037958125,58.0,97.0
446,120.25142149999999,120.58312547916667,46.0,89.0
447,120.670416,120.95672890833333,58.0,87.0
448,120.670416,121.25002505833334,63.0,84.0
449,121.0894105,121.3408072,58.0,78.0
450,121.508405,121.72488549166667,58.0,97.0
451,121.508405,121.9797738125,63.0,92.0
452,121.508405,121.99548610625,67.0,82.0
453,120.670416,122.03563974583334,51.0,80.0
454,121.92739949999999,122.15959228541666,58.0,76.0
455,122.346394,122.85617064166667,63.0,84.0
456,122.346394,122.88410360833333,59.0,59.0
457,122.346394,123.0691595125,56.0,73.0
458,123.184383,123.65749762291667,59.0,96.0
459,122.7653885,123.71161774583334,51.0,62.0
460,123.6033775,123.81811218125,56.0,69.0
461,122.346394,123.8547742,44.0,87.0
462,123.184383,123.88969040833334,63.0,94.0
463,124.022372,124.58103133333333,56.0,87.0
464,124.022372,124.6194391625,59.0,68.0
465,124.4413665,124.73466265,53.0,55.0
466,124.022372,125.16587782291667,41.0,80.0
467,124.860361,125.64073825625,53.0,87.0
468,125.2793555,125.65819636041667,41.0,78.0
469,124.860361,125.66343379166666,56.0,102.0
470,125.69835,126.30763783541667,65.0,82.0
471,125.69835,126.61140884791666,58.0,78.0
472,126.1173445,126.6306127625,53.0,71.0
473,126.536339,127.18403466458334,62.0,96.0
474,125.69835,127.374328,46.0,84.0
475,126.9553335,127.374328,53.0,66.0
476,127.374328,127.88235883125,70.0,89.0
477,127.374328,127.95393705833334,58.0,78.0
478,127.374328,128.05170244166666,62.0,65.0
479,127.7933225,128.34150697083334,53.0,51.0
480,128.21231699999998,128.94381156458334,58.0,78.0
481,128.21231699999998,128.95079480625,62.0,52.0
482,129.050306,129.4722247,70.0,73.0
483,129.050306,129.505488,66.0,84.0
484,129.050306,129.5597597,63.0,71.0
485,129.890642,129.93440950000002,63.0,51.0
486,129.470474,130.1147316,58.0,62.0
487,129.890642,130.5313982,70.0,94.0
488,129.890642,130.5401517,66.0,94.0
489,129.050306,130.55765870000002,51.0,97.0
490,130.31081,130.8500256,58.0,78.0
491,130.730978,131.3507258,70.0,89.0
492,130.730978,131.3594793,66.0,84.0
493,130.730978,131.4295073,61.0,80.0
494,130.730978,131.73237840000002,49.0,82.0
495,131.151146,131.81991340000002,58.0,50.0
496,131.571314,131.8741851,66.0,102.0
497,131.571314,131.8916921,61.0,97.0
498,131.99148200000002,132.1700534,49.0,100.0
499,131.571314,132.35387690000002,70.0,97.0
500,132.41165,133.0226443,70.0,67.0
501,132.41165,133.0348992,63.0,100.0
502,132.41165,133.0699132,59.0,65.0
503,132.41165,133.4060476,47.0,74.0
504,132.831818,133.4428123,54.0,34.0
505,133.25198600000002,133.4848291,63.0,102.0
506,133.25198600000002,133.4918319,59.0,99.0
507,133.672154,133.9557674,47.0,96.0
508,133.25198600000002,134.1325881,70.0,100.0
509,134.092322,134.6490446,65.0,92.0
510,134.092322,134.652546,61.0,80.0
511,134.092322,135.1112294,49.0,100.0
512,134.51249,135.1655011,56.0,71.0
513,134.932658,135.33006690000002,65.0,100.0
514,134.932658,135.3580781,61.0,92.0
515,135.352826,135.5594086,49.0,94.0
516,134.932658,135.9988343,68.0,94.0
517,135.772994,136.4347586,61.0,89.0
518,135.772994,136.48202750000002,58.0,78.0
519,136.193162,136.7148706,53.0,48.0
520,135.772994,136.8549266,46.0,97.0
521,137.033498,137.2365792,46.0,1.0
522,136.61333000000002,137.3328677,61.0,89.0
523,136.61333000000002,137.3503747,65.0,92.0
524,137.033498,137.401145,53.0,67.0
525,137.453666,137.9000945,68.0,66.0
526,137.453666,137.9893802,65.0,84.0
527,137.453666,138.0611589,61.0,84.0
528,137.453666,138.0944222,58.0,82.0
529,137.453666,138.4428115,46.0,76.0
530,137.87383400000002,138.4603185,53.0,51.0
531,138.294002,138.504086,61.0,108.0
532,138.294002,138.5075874,58.0,105.0
533,138.294002,138.556607,65.0,102.0
534,138.71417,138.81571060000002,46.0,97.0
535,139.134338,139.69106060000001,63.0,45.0
536,139.134338,139.7033155,66.0,82.0
537,139.134338,139.729576,70.0,87.0
538,139.554506,140.1287356,58.0,64.0
539,139.974674,140.3930913,66.0,97.0
540,139.974674,140.4351081,63.0,80.0
541,139.134338,140.5996739,51.0,97.0
542,139.974674,140.7117187,70.0,100.0
543,140.394842,140.9270548,58.0,78.0
544,140.81501,141.40324520000001,61.0,76.0
545,140.81501,141.410248,70.0,89.0
546,140.81501,141.4435113,65.0,87.0
547,140.81501,141.8216625,49.0,78.0
548,141.655346,141.98447760000002,61.0,92.0
549,141.655346,142.00198460000001,65.0,97.0
550,141.23517800000002,142.0107381,58.0,66.0
551,141.655346,142.2068165,70.0,97.0
552,142.075514,142.2645896,49.0,84.0
553,142.49568200000002,142.9718724,56.0,76.0
554,142.49568200000002,143.0401497,63.0,82.0
555,142.49568200000002,143.62838490000001,48.0,87.0
556,143.336018,143.6984129,56.0,87.0
557,142.91585,145.7554854,54.0,78.0
558,143.756186,145.76949100000002,56.0,92.0
559,143.756186,145.7887487,63.0,94.0
560,143.756186,145.8080064,48.0,89.0
561,145.85702600000002,146.2964517,59.0,87.0
562,145.85702600000002,146.3804853,63.0,60.0
563,145.85702600000002,146.8251631,47.0,65.0
564,146.277194,146.9302051,54.0,66.0
565,146.697362,147.0632583,59.0,109.0
566,146.697362,147.1577961,63.0,100.0
567,147.11753000000002,147.4641686,47.0,68.0
568,147.537698,147.95611530000002,56.0,82.0
569,147.537698,148.0646587,62.0,57.0
570,147.537698,148.5058351,46.0,69.0
571,147.957866,148.5653589,53.0,78.0
572,148.378034,148.89624120000002,62.0,105.0
573,148.378034,148.973272,65.0,92.0
574,148.378034,149.02579300000002,58.0,100.0
575,148.798202,149.1238322,46.0,92.0
576,149.21837,149.6402887,70.0,73.0
577,149.21837,149.673552,66.0,84.0
578,149.21837,149.72782370000002,63.0,71.0
579,150.058706,150.1024735,63.0,51.0
580,149.638538,150.28279560000001,58.0,62.0
581,150.058706,150.6994622,70.0,94.0
582,150.058706,150.7082157,66.0,94.0
583,149.21837,150.7257227,51.0,97.0
584,150.47887400000002,151.0180896,58.0,78.0
585,150.899042,151.5187898,70.0,89.0
586,150.899042,151.5275433,66.0,84.0
587,150.899042,151.5975713,61.0,80.0
588,150.899042,151.9004424,49.0,82.0
589,151.31921,151.9879774,58.0,50.0
590,151.73937800000002,152.0422491,66.0,102.0
591,151.73937800000002,152.05975610000002,61.0,97.0
592,152.159546,152.33811740000002,49.0,100.0
593,151.73937800000002,152.5219409,70.0,97.0
594,152.579714,153.1907083,70.0,67.0
595,152.579714,153.2029632,63.0,100.0
596,152.579714,153.23797720000002,59.0,65.0
597,152.579714,153.5741116,47.0,74.0
598,152.999882,153.6108763,54.0,34.0
599,153.42005,153.6528931,63.0,102.0
600,153.42005,153.6598959,59.0,99.0
601,153.840218,154.1238314,47.0,96.0
602,153.42005,154.3006521,70.0,100.0
603,154.260386,154.8171086,65.0,92.0
604,154.260386,154.82061000000002,61.0,80.0
605,154.260386,155.2792934,49.0,100.0
606,154.680554,155.33356510000002,56.0,71.0
607,155.10072200000002,155.4981309,65.0,100.0
608,155.10072200000002,155.52614210000002,61.0,92.0
609,155.52089,155.7274726,49.0,94.0
610,155.10072200000002,156.1668983,68.0,94.0
611,155.941058,156.6028226,61.0,89.0
612,155.941058,156.6500915,58.0,78.0
613,156.36122600000002,156.8829346,53.0,48.0
614,155.941058,157.0229906,46.0,97.0
615,157.201562,157.4046432,46.0,1.0
616,156.781394,157.5009317,61.0,89.0
617,156.781394,157.51843870000002,65.0,92.0
618,157.201562,157.569209,53.0,67.0
619,157.62173,158.0681585,68.0,66.0
620,157.62173,158.15744420000001,65.0,84.0
621,157.62173,158.2292229,61.0,84.0
622,157.62173,158.2624862,58.0,82.0
623,157.62173,158.61087550000002,46.0,76.0
624,158.041898,158.62838250000001,53.0,51.0
625,158.462066,158.67215000000002,61.0,108.0
626,158.462066,158.6756514,58.0,105.0
627,158.462066,158.724671,65.0,102.0
628,158.882234,158.9837746,46.0,97.0
629,159.302402,159.8591246,63.0,45.0
630,159.302402,159.87137950000002,66.0,82.0
631,159.302402,159.89764,70.0,87.0
632,159.72257000000002,160.2967996,58.0,64.0
633,160.142738,160.5611553,66.0,97.0
634,160.142738,160.6031721,63.0,80.0
635,159.302402,160.76773790000001,51.0,97.0
636,160.142738,160.87978270000002,70.0,100.0
637,160.562906,161.09511880000002,58.0,78.0
638,160.98307400000002,161.5713092,61.0,76.0
639,160.98307400000002,161.578312,70.0,89.0
640,160.98307400000002,161.6115753,65.0,87.0
641,160.98307400000002,161.98972650000002,49.0,78.0
642,161.82341,162.1525416,61.0,92.0
643,161.82341,162.1700486,65.0,97.0
644,161.403242,162.1788021,58.0,66.0
645,161.82341,162.37488050000002,70.0,97.0
646,162.243578,162.4326536,49.0,84.0
647,162.663746,163.1399364,56.0,76.0
648,162.663746,163.20821370000002,63.0,82.0
649,162.663746,163.7964489,48.0,87.0
650,163.504082,163.8664769,56.0,87.0
651,163.083914,165.9235494,54.0,78.0
652,163.92425,165.937555,56.0,92.0
653,163.92425,165.9568127,63.0,94.0
654,163.92425,165.9760704,48.0,89.0
655,166.02509,166.4645157,59.0,87.0
656,166.02509,166.5485493,63.0,60.0
657,166.02509,166.9932271,47.0,65.0
658,166.44525800000002,167.0982691,54.0,66.0
659,166.865426,167.23132230000002,59.0,109.0
660,166.865426,167.3258601,63.0,100.0
661,167.285594,167.6322326,47.0,68.0
662,167.705762,168.1241793,56.0,82.0
663,167.705762,168.2327227,62.0,57.0
664,167.705762,168.6738991,46.0,69.0
665,168.12593,168.7334229,53.0,78.0
666,168.546098,169.0643052,62.0,105.0
667,168.546098,169.14133600000002,65.0,92.0
668,168.546098,169.193857,58.0,100.0
669,168.96626600000002,169.2918962,46.0,92.0
670,169.386434,169.8083527,70.0,73.0
671,169.386434,169.84161600000002,66.0,84.0
672,169.386434,169.8958877,63.0,71.0
673,170.22677000000002,170.2705375,63.0,51.0
674,169.806602,170.4508596,58.0,62.0
675,170.22677000000002,170.86752620000001,70.0,94.0
676,170.22677000000002,170.8762797,66.0,94.0
677,169.386434,170.89378670000002,51.0,97.0
678,170.646938,171.1861536,58.0,78.0
679,171.06710600000002,171.6868538,70.0,89.0
680,171.06710600000002,171.6956073,66.0,84.0
681,171.06710600000002,171.7656353,61.0,80.0
682,171.06710600000002,172.0685064,49.0,82.0
683,171.487274,172.1560414,58.0,50.0
684,171.907442,172.2103131,66.0,102.0
685,171.907442,172.2278201,61.0,97.0
686,172.32761,172.5061814,49.0,100.0
687,171.907442,172.69000490000002,70.0,97.0
688,172.747778,173.3587723,70.0,67.0
689,172.747778,173.37102720000001,63.0,100.0
690,172.747778,173.4060412,59.0,65.0
691,172.747778,173.7421756,47.0,74.0
692,173.167946,173.77894030000002,54.0,34.0
693,173.58811400000002,173.82095710000002,63.0,102.0
694,173.58811400000002,173.8279599,59.0,99.0
695,174.008282,174.29189540000002,47.0,96.0
696,173.58811400000002,174.4687161,70.0,100.0
697,174.42845,174.9851726,65.0,92.0
698,174.42845,174.988674,61.0,80.0
699,174.42845,175.44735740000002,49.0,100.0
700,174.84861800000002,175.5016291,56.0,71.0
701,175.268786,175.6661949,65.0,100.0
702,175.268786,175.6942061,61.0,92.0
703,175.68895400000002,175.8955366,49.0,94.0
704,175.268786,176.3349623,68.0,94.0
705,176.109122,176.7708866,61.0,89.0
706,176.109122,176.8181555,58.0,78.0
707,176.52929,177.0509986,53.0,48.0
708,176.109122,177.1910546,46.0,97.0
709,177.369626,177.5727072,46.0,1.0
710,176.949458,177.6689957,61.0,89.0
711,176.949458,177.6865027,65.0,92.0
712,177.369626,177.73727300000002,53.0,67.0
713,177.789794,178.2362225,68.0,66.0
714,177.789794,178.3255082,65.0,84.0
715,177.789794,178.3972869,61.0,84.0
716,177.789794,178.4305502,58.0,82.0
717,177.789794,178.7789395,46.0,76.0
718,178.20996200000002,178.7964465,53.0,51.0
719,178.63013,178.840214,61.0,108.0
720,178.63013,178.8437154,58.0,105.0
721,178.63013,178.89273500000002,65.0,102.0
722,179.050298,179.15183860000002,46.0,97.0
723,179.47046600000002,180.02718860000002,63.0,45.0
724,179.47046600000002,180.0394435,66.0,82.0
725,179.47046600000002,180.065704,70.0,87.0
726,179.890634,180.4648636,58.0,64.0
727,180.31080200000002,180.7292193,66.0,97.0
728,180.31080200000002,180.7712361,63.0,80.0
729,179.47046600000002,180.9358019,51.0,97.0
730,180.31080200000002,181.0478467,70.0,100.0
731,180.73097,181.2631828,58.0,78.0
732,181.151138,181.7393732,61.0,76.0
733,181.151138,181.746376,70.0,89.0
734,181.151138,181.7796393,65.0,87.0
735,181.151138,182.1577905,49.0,78.0
736,181.991474,182.32060560000002,61.0,92.0
737,181.991474,182.33811260000002,65.0,97.0
738,181.571306,182.3468661,58.0,66.0
739,181.991474,182.5429445,70.0,97.0
740,182.411642,182.6007176,49.0,84.0
741,182.83181000000002,183.3080004,56.0,76.0
742,182.83181000000002,183.3762777,63.0,82.0
743,182.83181000000002,183.96451290000002,48.0,87.0
744,183.672146,184.0345409,56.0,87.0
745,183.251978,186.0916134,54.0,78.0
746,184.09231400000002,186.105619,56.0,92.0
747,184.09231400000002,186.12487670000002,63.0,94.0
748,184.09231400000002,186.1441344,48.0,89.0
749,186.193154,186.6325797,59.0,87.0
750,186.193154,186.7166133,63.0,60.0
751,186.193154,187.1612911,47.0,65.0
752,186.613322,187.2663331,54.0,66.0
753,187.03349,187.3993863,59.0,109.0
754,187.03349,187.49392410000002,63.0,100.0
755,187.45365800000002,187.8002966,47.0,68.0
756,187.873826,188.2922433,56.0,82.0
757,187.873826,188.4007867,62.0,57.0
758,187.873826,188.84196310000002,46.0,69.0
759,188.293994,188.9014869,53.0,78.0
760,188.71416200000002,189.2323692,62.0,105.0
761,188.71416200000002,189.3094,65.0,92.0
762,188.71416200000002,189.361921,58.0,100.0
763,189.13433,189.4599602,46.0,92.0
764,193.7229147,194.1150715,63.0,41.0
765,193.3972845,194.6192731,58.0,29.0
766,194.0800575,194.6787969,65.0,82.0
767,193.06115010000002,194.7925924,51.0,76.0
768,194.64028150000001,195.2285167,67.0,71.0
769,196.0198331,196.8846789,67.0,52.0
770,196.1231244,196.9897209,79.0,52.0
771,196.1984045,197.0632503,82.0,52.0
772,196.91269010000002,198.9172416,63.0,1.0
773,195.84301240000002,198.9417514,58.0,60.0
774,195.6959536,198.9452528,51.0,52.0
