,start,end,pitch,velocity
0,32.714570745833335,32.99016132916667,65.0,114.0
1,32.95079124583334,33.18701174583334,67.0,108.0
2,33.18701174583334,33.42323224583333,69.0,117.0
3,33.42323224583333,33.659452745833335,67.0,98.0
4,33.659452745833335,33.895673245833336,69.0,108.0
5,33.895673245833336,34.13189374583334,67.0,96.0
6,34.13189374583334,34.40354732083333,69.0,114.0
7,34.36811424583334,34.840555245833336,72.0,110.0
8,34.840555245833336,35.785437245833336,67.0,113.0
9,35.785437245833336,36.02165774583334,69.0,114.0
10,36.02165774583334,36.494098745833334,67.0,116.0
11,36.494098745833334,36.96653974583334,69.0,116.0
12,36.96653974583334,37.438980745833334,67.0,114.0
13,37.438980745833334,38.85630374583334,65.0,110.0
14,40.27362674583334,40.509847245833335,69.0,114.0
15,40.509847245833335,40.753941762500006,72.0,100.0
16,40.74606774583334,40.98228824583334,74.0,113.0
17,40.98228824583334,41.21850874583334,72.0,98.0
18,41.21850874583334,41.454729245833335,74.0,108.0
19,41.454729245833335,41.690949745833336,72.0,100.0
20,41.690949745833336,41.94685528750001,74.0,114.0
21,41.92717024583334,42.399611245833334,77.0,104.0
22,42.399611245833334,43.10827274583334,74.0,113.0
23,43.344493245833334,43.578745241666674,74.0,108.0
24,43.580713745833336,43.81496574166667,74.0,113.0
25,43.81693424583334,44.289375245833334,74.0,114.0
26,44.289375245833334,44.580713862500005,69.0,108.0
27,44.525595745833336,45.470477745833335,72.0,113.0
28,47.83268274583334,48.06890324583334,69.0,117.0
29,48.06890324583334,48.305123745833335,72.0,102.0
30,48.305123745833335,48.541344245833336,74.0,110.0
31,48.541344245833336,48.77756474583334,72.0,100.0
32,48.77756474583334,49.01378524583334,74.0,104.0
33,49.01378524583334,49.250005745833334,72.0,102.0
34,49.250005745833334,49.486226245833336,74.0,108.0
35,49.486226245833336,49.95866724583334,77.0,110.0
36,49.95866724583334,50.66732874583334,74.0,110.0
37,50.90354924583334,51.13780124166667,77.0,102.0
38,51.13976974583334,51.374021741666674,77.0,113.0
39,51.375990245833336,51.84843124583334,77.0,108.0
40,51.84843124583334,52.11221080416667,74.0,107.0
41,52.08465174583334,52.79331324583334,72.0,102.0
42,52.79331324583334,53.02756524166667,69.0,104.0
43,53.02953374583334,53.26378574166667,69.0,107.0
44,53.265754245833335,53.73819524583334,69.0,104.0
45,53.73819524583334,54.210636245833335,67.0,108.0
46,54.210636245833335,55.39173874583334,65.0,98.0
47,56.57284124583334,56.80709324166667,67.0,107.0
48,56.80906174583334,57.04331374166667,67.0,100.0
49,57.04528224583334,57.75197524166667,67.0,91.0
50,57.75394374583334,58.224416241666674,67.0,108.0
51,58.226384745833336,58.46260524583334,67.0,91.0
52,58.46260524583334,59.169298241666674,65.0,110.0
53,59.171266745833336,59.40748724583334,65.0,104.0
54,59.40748724583334,60.58858974583334,67.0,108.0
55,62.95079474583334,63.226385329166675,65.0,114.0
56,63.18701524583334,63.42323574583334,67.0,108.0
57,63.42323574583334,63.65945624583334,69.0,117.0
58,63.65945624583334,63.89567674583334,67.0,98.0
59,63.89567674583334,64.13189724583334,69.0,108.0
60,64.13189724583334,64.36811774583335,67.0,96.0
61,64.36811774583335,64.63977132083333,69.0,114.0
62,64.60433824583333,65.07677924583334,72.0,110.0
63,65.07677924583334,65.54922024583334,67.0,113.0
64,66.02166124583334,66.25788174583334,69.0,114.0
65,66.25788174583334,66.73032274583333,67.0,116.0
66,66.73032274583333,67.20276374583334,69.0,116.0
67,67.20276374583334,67.67520474583334,67.0,114.0
68,67.67520474583334,69.09252774583334,65.0,110.0
69,70.50985074583333,70.74607124583333,69.0,114.0
70,70.74607124583333,70.99016576250001,72.0,100.0
71,70.98229174583334,71.21851224583334,74.0,113.0
72,71.21851224583334,71.45473274583334,72.0,98.0
73,71.45473274583334,71.69095324583334,74.0,108.0
74,71.69095324583334,71.92717374583334,72.0,100.0
75,71.92717374583334,72.18307928750001,74.0,114.0
76,72.16339424583335,72.63583524583333,77.0,104.0
77,72.63583524583333,73.34449674583334,74.0,113.0
78,73.58071724583334,73.81496924166667,74.0,108.0
79,73.81693774583334,74.05118974166668,74.0,113.0
80,74.05315824583334,74.52559924583333,74.0,114.0
81,74.52559924583333,74.81693786250001,69.0,108.0
82,74.76181974583334,75.94292224583334,72.0,113.0
83,78.06890674583335,78.30512724583335,69.0,117.0
84,78.30512724583335,78.54134774583333,72.0,102.0
85,78.54134774583333,78.77756824583334,74.0,110.0
86,78.77756824583334,79.01378874583334,72.0,100.0
87,79.01378874583334,79.25000924583334,74.0,104.0
88,79.25000924583334,79.48622974583334,72.0,102.0
89,79.48622974583334,79.72245024583334,74.0,108.0
90,79.72245024583334,80.19489124583335,77.0,110.0
91,80.19489124583335,81.13977324583334,74.0,110.0
92,81.13977324583334,81.37402524166667,77.0,102.0
93,81.37599374583334,81.61024574166667,77.0,113.0
94,81.61221424583334,82.08465524583335,77.0,108.0
95,82.08465524583335,82.34843480416667,74.0,107.0
96,82.32087574583333,83.02953724583334,72.0,102.0
97,83.02953724583334,83.26378924166667,69.0,104.0
98,83.26575774583334,83.50000974166667,69.0,107.0
99,83.50197824583334,83.97441924583335,69.0,104.0
100,83.97441924583335,84.44686024583334,67.0,108.0
101,84.44686024583334,85.39174224583334,65.0,98.0
102,86.80906524583334,87.04331724166667,67.0,107.0
103,87.04528574583334,87.27953774166667,67.0,100.0
104,87.28150624583334,87.99016774583335,67.0,91.0
105,87.99016774583335,88.46064024166668,69.0,102.0
106,88.46260874583334,88.69882924583334,69.0,102.0
107,88.69882924583334,89.40749074583334,67.0,108.0
108,89.40749074583334,89.64174274166668,65.0,100.0
109,89.64371124583334,90.58859324583334,65.0,104.0
110,92.71457774583334,93.18701874583334,77.0,119.0
111,93.18701874583334,93.65945974583335,76.0,113.0
112,93.65945974583335,94.36812124583334,74.0,113.0
113,94.36812124583334,94.62796379583334,72.0,100.0
114,94.60434174583334,95.07678274583334,69.0,96.0
115,95.07678274583334,95.54922374583334,74.0,110.0
116,95.54922374583334,96.49410574583334,72.0,110.0
117,96.96654674583334,97.20276724583334,69.0,102.0
118,97.20276724583334,97.43898774583334,72.0,102.0
119,97.43898774583334,97.67520824583335,74.0,104.0
120,97.67520824583335,97.92323977083335,72.0,91.0
121,97.91142874583335,98.14764924583334,74.0,102.0
122,98.14764924583334,98.397649275,72.0,86.0
123,98.38386974583334,98.69686190833335,69.0,94.0
124,98.62009024583334,99.09253124583334,67.0,93.0
125,99.09253124583334,100.27363374583334,69.0,102.0
126,100.74607474583334,100.98229524583334,69.0,110.0
127,100.98229524583334,101.22442125833334,67.0,93.0
128,101.21851574583334,102.16339774583334,65.0,104.0
129,102.16339774583334,102.87009074166667,77.0,113.0
130,102.87205924583334,103.10827974583334,77.0,108.0
131,103.10827974583334,103.58072074583335,76.0,114.0
132,103.58072074583335,104.05119324166668,72.0,110.0
133,104.05316174583334,104.52560274583334,72.0,110.0
134,104.52560274583334,104.76182324583334,69.0,110.0
135,104.76182324583334,105.70670524583335,74.0,116.0
136,106.65158724583334,106.88780774583334,72.0,110.0
137,106.88780774583334,107.36024874583335,74.0,117.0
138,107.36024874583335,107.83268974583335,72.0,114.0
139,107.83268974583335,108.30513074583334,74.0,119.0
140,108.30513074583334,109.95867424583334,79.0,117.0
141,111.84843824583335,112.11418630833334,72.0,108.0
142,112.08465874583334,112.32087924583334,74.0,110.0
143,112.32087924583334,112.55709974583334,77.0,107.0
144,112.55709974583334,113.02757224166668,81.0,110.0
145,113.02954074583334,113.26379274166668,81.0,114.0
146,113.26576124583335,113.50001324166668,81.0,113.0
147,113.50198174583335,113.97442274583334,81.0,119.0
148,113.97442274583334,114.21064324583334,79.0,108.0
149,114.21064324583334,114.44686374583334,77.0,102.0
150,114.44686374583334,114.91733624166667,81.0,117.0
151,114.91930474583334,115.15355674166668,81.0,113.0
152,115.15552524583335,115.38977724166668,81.0,110.0
153,115.39174574583335,115.86418674583334,81.0,116.0
154,115.86418674583334,116.10040724583334,79.0,113.0
155,116.10040724583334,116.33662774583334,77.0,110.0
156,116.33662774583334,116.80710024166667,79.0,119.0
157,116.80906874583334,117.04528924583335,79.0,110.0
158,117.04528924583335,117.28150974583335,81.0,108.0
159,117.28150974583335,117.75395074583335,79.0,110.0
160,117.75395074583335,117.99804526250001,77.0,113.0
161,117.99017124583334,118.46261224583334,74.0,114.0
162,118.46261224583334,119.40749424583335,72.0,113.0
163,120.11615574583334,120.35040774166667,77.0,110.0
164,120.35237624583334,120.82284874166668,77.0,113.0
165,120.82481724583334,121.05906924166668,77.0,104.0
166,121.06103774583335,121.53151024166668,77.0,114.0
167,121.53347874583335,121.76969924583334,77.0,116.0
168,121.76969924583334,122.00591974583334,74.0,110.0
169,122.00591974583334,122.24214024583334,72.0,100.0
170,122.24214024583334,122.71261274166667,81.0,117.0
171,122.71458124583334,123.18702224583335,81.0,114.0
172,123.18702224583335,123.65946324583335,79.0,117.0
173,123.65946324583335,123.89568374583334,77.0,116.0
174,123.89568374583334,124.15946330416668,79.0,116.0
175,124.13190424583334,124.15946330416668,79.0,104.0
176,124.60434524583334,124.84056574583335,81.0,108.0
177,124.84056574583335,125.09253427916667,79.0,113.0
178,125.07678624583335,125.54922724583335,77.0,98.0
179,125.54922724583335,125.78544774583334,74.0,114.0
180,125.78544774583334,126.73032974583334,79.0,117.0
181,126.96655024583335,127.23229830833334,72.0,108.0
182,127.20277074583335,127.43899124583335,74.0,110.0
183,127.43899124583335,127.67521174583335,77.0,107.0
184,127.67521174583335,128.1456842416667,81.0,110.0
185,128.14765274583334,128.3819047416667,81.0,114.0
186,128.38387324583334,128.6181252416667,81.0,113.0
187,128.62009374583334,129.09253474583335,81.0,119.0
188,129.09253474583335,129.32875524583335,79.0,108.0
189,129.32875524583335,129.56497574583335,77.0,102.0
190,129.56497574583335,130.03544824166667,81.0,117.0
191,130.03741674583335,130.27166874166667,81.0,113.0
192,130.27363724583336,130.50788924166667,81.0,110.0
193,130.50985774583336,130.98229874583333,81.0,116.0
194,130.98229874583333,131.21851924583333,79.0,113.0
195,131.21851924583333,131.45473974583334,77.0,110.0
196,131.45473974583334,131.92521224166669,79.0,119.0
197,131.92718074583334,132.16340124583334,79.0,110.0
198,132.16340124583334,132.39962174583334,81.0,108.0
199,132.39962174583334,132.87206274583335,79.0,110.0
200,132.87206274583335,133.11615726250002,77.0,113.0
201,133.10828324583335,133.58072424583335,74.0,114.0
202,133.58072424583335,134.52560624583336,72.0,113.0
203,135.23426774583334,135.46851974166668,77.0,110.0
204,135.47048824583334,135.9409607416667,77.0,113.0
205,135.94292924583334,136.1771812416667,77.0,104.0
206,136.17914974583334,136.6496222416667,77.0,114.0
207,136.65159074583335,136.88781124583335,77.0,116.0
208,136.88781124583335,137.12403174583335,74.0,110.0
209,137.12403174583335,137.36025224583335,72.0,100.0
210,137.36025224583335,137.83072474166667,81.0,117.0
211,137.83269324583335,138.06694524166667,81.0,114.0
212,138.06891374583336,138.30513424583336,81.0,114.0
213,138.30513424583336,138.77757524583333,79.0,117.0
214,138.77757524583333,139.01379574583333,77.0,116.0
215,139.01379574583333,139.24804774166668,79.0,116.0
216,139.25001624583334,139.48426824166668,79.0,104.0
217,139.48623674583334,139.72245724583334,79.0,104.0
218,139.72245724583334,139.95867774583334,81.0,108.0
219,139.95867774583334,140.21064627916667,79.0,113.0
220,140.19489824583334,140.6653707416667,77.0,98.0
221,140.66733924583335,142.32088274583336,77.0,108.0
222,151.76970274583334,152.04529332916667,65.0,114.0
223,152.00592324583334,152.24214374583335,67.0,108.0
224,152.24214374583335,152.47836424583335,69.0,117.0
225,152.47836424583335,152.71458474583335,67.0,98.0
226,152.71458474583335,152.95080524583335,69.0,108.0
227,152.95080524583335,153.18702574583335,67.0,96.0
228,153.18702574583335,153.45867932083334,69.0,114.0
229,153.42324624583335,153.89568724583336,72.0,110.0
230,153.89568724583336,154.84056924583334,67.0,113.0
231,154.84056924583334,155.07678974583334,69.0,114.0
232,155.07678974583334,155.54923074583334,67.0,116.0
233,155.54923074583334,156.02167174583334,69.0,116.0
234,156.02167174583334,156.49411274583335,67.0,114.0
235,156.49411274583335,157.67521524583336,65.0,110.0
236,159.32875874583334,159.56497924583334,69.0,114.0
237,159.56497924583334,159.80907376250002,72.0,100.0
238,159.80119974583334,160.03742024583335,74.0,113.0
239,160.03742024583335,160.27364074583335,72.0,98.0
240,160.27364074583335,160.50986124583335,74.0,108.0
241,160.50986124583335,160.74608174583335,72.0,100.0
242,160.74608174583335,161.00198728750001,74.0,114.0
243,160.98230224583335,161.45474324583336,77.0,104.0
244,161.45474324583336,162.16340474583336,74.0,113.0
245,162.39962524583333,162.63387724166668,74.0,108.0
246,162.63584574583334,162.87009774166668,74.0,113.0
247,162.87206624583334,163.34450724583334,74.0,114.0
248,163.34450724583334,163.63584586250002,69.0,108.0
249,163.58072774583334,164.76183024583335,72.0,113.0
250,166.88781474583334,167.12403524583334,69.0,117.0
251,167.12403524583334,167.36025574583334,72.0,102.0
252,167.36025574583334,167.59647624583334,74.0,110.0
253,167.59647624583334,167.83269674583335,72.0,100.0
254,167.83269674583335,168.06891724583335,74.0,104.0
255,168.06891724583335,168.30513774583335,72.0,102.0
256,168.30513774583335,168.54135824583335,74.0,108.0
257,168.54135824583335,169.01379924583335,77.0,110.0
258,169.01379924583335,169.95868124583336,74.0,110.0
259,169.95868124583336,170.19293324166668,77.0,102.0
260,170.19490174583333,170.42915374166668,77.0,113.0
261,170.43112224583334,170.90356324583334,77.0,108.0
262,170.90356324583334,171.16734280416668,74.0,107.0
263,171.13978374583334,171.84844524583335,72.0,102.0
264,171.84844524583335,172.0826972416667,69.0,104.0
265,172.08466574583335,172.3189177416667,69.0,107.0
266,172.32088624583335,172.79332724583335,69.0,104.0
267,172.79332724583335,173.26576824583336,67.0,108.0
268,173.26576824583336,174.44687074583334,65.0,98.0
269,175.62797324583335,175.8622252416667,67.0,107.0
270,175.86419374583335,176.0984457416667,67.0,100.0
271,176.10041424583335,176.80907574583335,67.0,91.0
272,176.80907574583335,177.27954824166667,69.0,102.0
273,177.28151674583336,177.51773724583336,69.0,102.0
274,177.51773724583336,178.22639874583334,67.0,108.0
275,178.22639874583334,178.46065074166668,65.0,100.0
276,178.46261924583334,179.64372174583335,65.0,104.0
277,181.53348574583336,182.00592674583334,77.0,119.0
278,182.00592674583334,182.47836774583334,76.0,113.0
279,182.47836774583334,183.18702924583334,74.0,113.0
280,183.18702924583334,183.44687179583335,72.0,100.0
281,183.42324974583335,183.89569074583335,69.0,96.0
282,183.89569074583335,184.36813174583335,74.0,110.0
283,184.36813174583335,185.31301374583336,72.0,110.0
284,185.78545474583336,186.02167524583334,69.0,102.0
285,186.02167524583334,186.25789574583334,72.0,102.0
286,186.25789574583334,186.49411624583334,74.0,104.0
287,186.49411624583334,186.74214777083336,72.0,91.0
288,186.73033674583334,186.96655724583334,74.0,102.0
289,186.96655724583334,187.216557275,72.0,86.0
290,187.20277774583334,187.51576990833334,69.0,94.0
291,187.43899824583335,187.91143924583335,67.0,93.0
292,187.91143924583335,189.32876224583336,69.0,102.0
293,189.56498274583336,189.80120324583336,69.0,110.0
294,189.80120324583336,190.04332925833336,67.0,93.0
295,190.03742374583334,190.98230574583334,65.0,104.0
296,190.98230574583334,191.6889987416667,77.0,113.0
297,191.69096724583335,191.92718774583335,77.0,108.0
298,191.92718774583335,192.39962874583335,76.0,114.0
299,192.39962874583335,192.87010124166667,72.0,110.0
300,192.87206974583336,193.34451074583336,72.0,110.0
301,193.34451074583336,193.58073124583336,69.0,110.0
302,193.58073124583336,194.52561324583334,74.0,116.0
303,195.47049524583335,195.70671574583335,72.0,110.0
304,195.70671574583335,196.17915674583335,74.0,117.0
305,196.17915674583335,196.65159774583336,72.0,114.0
306,196.65159774583336,197.12403874583336,74.0,119.0
307,197.12403874583336,198.06892074583334,79.0,117.0
308,200.66734624583336,200.93309430833335,72.0,108.0
309,200.90356674583336,201.13978724583336,74.0,110.0
310,201.13978724583336,201.37600774583336,77.0,107.0
311,201.37600774583336,201.84648024166668,81.0,110.0
312,201.84844874583334,202.08270074166668,81.0,114.0
313,202.08466924583334,202.3189212416667,81.0,113.0
314,202.32088974583334,202.79333074583334,81.0,119.0
315,202.79333074583334,203.02955124583335,79.0,108.0
316,203.02955124583335,203.26577174583335,77.0,102.0
317,203.26577174583335,203.7362442416667,81.0,117.0
318,203.73821274583335,203.9724647416667,81.0,113.0
319,203.97443324583335,204.20868524166667,81.0,110.0
320,204.21065374583335,204.68309474583336,81.0,116.0
321,204.68309474583336,204.91931524583336,79.0,113.0
322,204.91931524583336,205.15553574583336,77.0,110.0
323,205.15553574583336,205.62600824166668,79.0,119.0
324,205.62797674583337,205.86419724583334,79.0,110.0
325,205.86419724583334,206.10041774583334,81.0,108.0
326,206.10041774583334,206.57285874583334,79.0,110.0
327,206.57285874583334,206.81695326250002,77.0,113.0
328,206.80907924583335,207.28152024583335,74.0,114.0
329,207.28152024583335,208.22640224583336,72.0,113.0
330,208.93506374583336,209.16931574166668,77.0,110.0
331,209.17128424583336,209.64175674166668,77.0,113.0
332,209.64372524583334,209.87797724166668,77.0,104.0
333,209.87994574583334,210.3504182416667,77.0,114.0
334,210.35238674583334,210.58860724583334,77.0,116.0
335,210.58860724583334,210.82482774583335,74.0,110.0
336,210.82482774583335,211.06104824583335,72.0,100.0
337,211.06104824583335,211.5315207416667,81.0,117.0
338,211.53348924583335,212.00593024583335,81.0,114.0
339,212.00593024583335,212.47837124583336,79.0,117.0
340,212.47837124583336,212.71459174583336,77.0,116.0
341,212.71459174583336,212.97837130416667,79.0,116.0
342,212.95081224583336,212.97837130416667,79.0,104.0
343,213.42325324583337,213.65947374583334,81.0,108.0
344,213.65947374583334,213.9114422791667,79.0,113.0
345,213.89569424583334,214.36813524583334,77.0,98.0
346,214.36813524583334,214.60435574583335,74.0,114.0
347,214.60435574583335,215.54923774583335,79.0,117.0
348,215.78545824583335,216.05120630833335,72.0,108.0
349,216.02167874583336,216.25789924583336,74.0,110.0
350,216.25789924583336,216.49411974583336,77.0,107.0
351,216.49411974583336,216.96459224166668,81.0,110.0
352,216.96656074583336,217.20081274166668,81.0,114.0
353,217.20278124583336,217.43703324166668,81.0,113.0
354,217.43900174583337,217.91144274583334,81.0,119.0
355,217.91144274583334,218.14766324583334,79.0,108.0
356,218.14766324583334,218.38388374583334,77.0,102.0
357,218.38388374583334,218.8543562416667,81.0,117.0
358,218.85632474583335,219.0905767416667,81.0,113.0
359,219.09254524583335,219.3267972416667,81.0,110.0
360,219.32876574583335,219.80120674583335,81.0,116.0
361,219.80120674583335,220.03742724583336,79.0,113.0
362,220.03742724583336,220.27364774583336,77.0,110.0
363,220.27364774583336,220.74412024166668,79.0,119.0
364,220.74608874583336,220.98230924583336,79.0,110.0
365,220.98230924583336,221.21852974583337,81.0,108.0
366,221.21852974583337,221.69097074583334,79.0,110.0
367,221.69097074583334,221.93506526250002,77.0,113.0
368,221.92719124583334,222.39963224583335,74.0,114.0
369,222.39963224583335,224.05317574583336,72.0,113.0
370,224.05317574583336,224.28742774166668,77.0,110.0
371,224.28939624583336,224.75986874166668,77.0,113.0
372,224.76183724583336,224.99608924166668,77.0,104.0
373,224.99805774583336,225.46853024166668,77.0,114.0
374,225.47049874583334,225.70671924583334,77.0,116.0
375,225.70671924583334,225.94293974583334,74.0,110.0
376,225.94293974583334,226.17916024583334,72.0,100.0
377,226.17916024583334,226.6496327416667,81.0,117.0
378,226.65160124583335,226.8858532416667,81.0,114.0
379,226.88782174583335,227.12404224583335,81.0,114.0
380,227.12404224583335,227.59648324583335,79.0,117.0
381,227.59648324583335,227.83270374583336,77.0,116.0
382,227.83270374583336,228.06695574166667,79.0,116.0
383,228.06892424583336,228.30317624166668,79.0,104.0
384,228.30514474583336,228.54136524583336,79.0,104.0
385,228.54136524583336,228.77758574583336,81.0,108.0
386,228.77758574583336,229.0295542791667,79.0,113.0
387,229.01380624583336,229.48427874166669,77.0,98.0
388,229.48624724583334,230.90357024583335,77.0,108.0
389,231.61223174583336,231.84648374166667,77.0,114.0
390,231.84845224583336,232.31892474166668,77.0,110.0
391,232.32089324583336,232.55514524166668,77.0,110.0
392,232.55711374583336,232.79136574166668,77.0,113.0
393,232.79333424583336,233.26577524583337,77.0,114.0
394,233.26577524583337,233.50199574583334,74.0,104.0
395,233.50199574583334,233.73821624583334,72.0,108.0
396,233.73821624583334,234.2086887416667,81.0,114.0
397,234.21065724583335,234.4449092416667,81.0,114.0
398,234.44687774583335,234.68309824583335,81.0,117.0
399,234.68309824583335,235.15553924583335,79.0,110.0
400,235.15553924583335,235.39175974583335,77.0,110.0
401,235.39175974583335,235.6260117416667,79.0,114.0
402,235.62798024583336,235.86223224166667,79.0,94.0
403,235.86420074583336,236.10042124583336,79.0,108.0
404,236.10042124583336,236.33664174583336,81.0,107.0
405,236.33664174583336,236.80908274583336,79.0,116.0
406,236.80908274583336,237.7519962416667,77.0,100.0
407,237.75396474583334,239.64372874583336,77.0,107.0
408,253.58073824583334,253.84648630833337,72.0,108.0
409,253.81695874583335,254.05317924583335,74.0,110.0
410,254.05317924583335,254.28939974583335,77.0,107.0
411,254.28939974583335,254.7598722416667,81.0,110.0
412,254.76184074583335,254.9960927416667,81.0,114.0
413,254.99806124583336,255.2323132416667,81.0,113.0
414,255.23428174583336,255.70672274583336,81.0,119.0
415,255.70672274583336,255.94294324583336,79.0,108.0
416,255.94294324583336,256.17916374583336,77.0,102.0
417,256.17916374583336,256.6496362416667,81.0,117.0
418,256.65160474583337,256.8858567416667,81.0,113.0
419,256.88782524583337,257.1220772416667,81.0,110.0
420,257.12404574583337,257.5964867458334,81.0,116.0
421,257.5964867458334,257.8327072458334,79.0,113.0
422,257.8327072458334,258.0689277458334,77.0,110.0
423,258.0689277458334,258.53940024166667,79.0,119.0
424,258.5413687458334,258.7775892458334,79.0,110.0
425,258.7775892458334,259.0138097458333,81.0,108.0
426,259.0138097458333,259.48625074583333,79.0,110.0
427,259.48625074583333,259.7303452625,77.0,113.0
428,259.72247124583333,260.19491224583334,74.0,114.0
429,260.19491224583334,260.90357374583334,72.0,113.0
430,261.84845574583335,262.0827077416667,77.0,110.0
431,262.08467624583335,262.5551487416667,77.0,113.0
432,262.55711724583335,262.7913692416667,77.0,104.0
433,262.79333774583336,263.2638102416667,77.0,114.0
434,263.26577874583336,263.50199924583336,77.0,116.0
435,263.50199924583336,263.73821974583336,74.0,110.0
436,263.73821974583336,263.97444024583336,72.0,100.0
437,263.97444024583336,264.4449127416667,81.0,117.0
438,264.44688124583337,264.91932224583337,81.0,114.0
439,264.91932224583337,265.3917632458334,79.0,117.0
440,265.3917632458334,265.6279837458334,77.0,116.0
441,265.6279837458334,265.86223574166667,79.0,116.0
442,265.8642042458334,266.09845624166667,79.0,104.0
443,266.1004247458334,266.3366452458334,79.0,104.0
444,266.3366452458334,266.5728657458334,81.0,108.0
445,266.5728657458334,266.8248342791667,79.0,113.0
446,266.8090862458334,267.28152724583333,77.0,98.0
447,267.28152724583333,267.51774774583333,74.0,114.0
448,267.51774774583333,268.69885024583334,79.0,117.0
449,268.69885024583334,268.96459830833334,72.0,108.0
450,268.93507074583334,269.17129124583334,74.0,110.0
451,269.17129124583334,269.40751174583335,77.0,107.0
452,269.40751174583335,269.8779842416667,81.0,110.0
453,269.87995274583335,270.1142047416667,81.0,114.0
454,270.11617324583335,270.3504252416667,81.0,113.0
455,270.35239374583335,270.82483474583336,81.0,119.0
456,270.82483474583336,271.06105524583336,79.0,108.0
457,271.06105524583336,271.29727574583336,77.0,102.0
458,271.29727574583336,271.7677482416667,81.0,117.0
459,271.76971674583336,272.0039687416667,81.0,113.0
460,272.00593724583337,272.2401892416667,81.0,110.0
461,272.24215774583337,272.71459874583337,81.0,116.0
462,272.71459874583337,272.9508192458334,79.0,113.0
463,272.9508192458334,273.1870397458334,77.0,110.0
464,273.1870397458334,273.42129174166666,79.0,119.0
465,273.4232602458334,273.65751224166667,79.0,119.0
466,273.6594807458334,273.8957012458334,79.0,110.0
467,273.8957012458334,274.1319217458334,81.0,108.0
468,274.1319217458334,274.6043627458334,79.0,110.0
469,274.6043627458334,274.8484572625,77.0,113.0
470,274.84058324583333,275.31302424583333,74.0,114.0
471,275.31302424583333,276.02168574583334,72.0,113.0
472,276.96656774583334,277.2008197416667,77.0,110.0
473,277.20278824583335,277.6732607416667,77.0,113.0
474,277.67522924583335,277.9094812416667,77.0,104.0
475,277.91144974583335,278.3819222416667,77.0,114.0
476,278.38389074583336,278.62011124583336,77.0,116.0
477,278.62011124583336,278.85633174583336,74.0,110.0
478,278.85633174583336,279.09255224583336,72.0,100.0
479,279.09255224583336,279.5630247416667,81.0,117.0
480,279.56499324583336,279.7992452416667,81.0,114.0
481,279.80121374583337,280.03743424583337,81.0,114.0
482,280.03743424583337,280.50987524583337,79.0,117.0
483,280.50987524583337,280.7460957458334,77.0,116.0
484,280.7460957458334,280.9803477416667,79.0,116.0
485,280.9823162458334,281.21656824166666,79.0,104.0
486,281.2185367458334,281.4547572458334,79.0,104.0
487,281.4547572458334,281.6909777458334,81.0,108.0
488,281.6909777458334,281.9429462791667,79.0,113.0
489,281.9271982458334,282.3976707416667,77.0,98.0
490,282.3996392458334,283.34452124583333,77.0,108.0
491,284.52562374583334,284.7598757416667,77.0,114.0
492,284.76184424583334,285.2323167416667,77.0,110.0
493,285.23428524583335,285.4685372416667,77.0,110.0
494,285.47050574583335,285.7047577416667,77.0,113.0
495,285.70672624583335,286.17916724583336,77.0,114.0
496,286.17916724583336,286.41538774583336,74.0,104.0
497,286.41538774583336,286.65160824583336,72.0,108.0
498,286.65160824583336,287.1220807416667,81.0,114.0
499,287.12404924583336,287.3583012416667,81.0,114.0
500,287.36026974583336,287.59649024583337,81.0,117.0
501,287.59649024583337,288.06893124583337,79.0,110.0
502,288.06893124583337,288.30515174583337,77.0,110.0
503,288.30515174583337,288.5394037416667,79.0,114.0
504,288.5413722458334,288.7756242416667,79.0,94.0
505,288.7775927458334,289.0138132458334,79.0,108.0
506,289.0138132458334,289.2500337458334,81.0,107.0
507,289.2500337458334,289.7224747458334,79.0,116.0
508,289.7224747458334,290.6653882416667,77.0,100.0
509,290.66735674583333,291.023656,77.0,107.0
