,start,end,pitch,velocity
0,2.950787745833334,3.748031933333334,69.0,78.0
1,2.950787745833334,3.801181545833334,53.0,87.0
2,2.950787745833334,3.8503941500000005,60.0,87.0
3,2.950787745833334,3.852362654166667,65.0,89.0
4,3.8956697458333336,4.196850883333334,60.0,83.0
5,3.8956697458333336,4.263780025,65.0,88.0
6,3.8956697458333336,4.265748529166667,69.0,87.0
7,3.8956697458333336,4.738189529166667,53.0,84.0
8,4.840551745833333,5.118110833333334,84.0,107.0
9,5.076772245833334,5.301181720833334,77.0,89.0
10,5.312992745833334,5.513780170833334,74.0,88.0
11,5.549213245833334,6.039370783333334,77.0,107.0
12,6.021654245833334,6.381890508333334,72.0,80.0
13,4.840551745833333,6.547244858333334,46.0,83.0
14,6.730315745833334,7.198819737500001,81.0,89.0
15,6.730315745833334,7.244095333333334,74.0,89.0
16,6.730315745833334,7.271654391666667,77.0,87.0
17,6.730315745833334,7.820867054166667,46.0,84.0
18,8.147638745833333,8.836615204166668,72.0,88.0
19,8.147638745833333,8.854331741666668,76.0,93.0
20,8.147638745833333,8.872048279166668,48.0,85.0
21,8.147638745833333,8.872048279166668,79.0,88.0
22,9.328741245833335,9.442914487500001,60.0,98.0
23,9.564961745833335,9.726379087500002,60.0,88.0
24,9.801182245833335,9.917323991666667,62.0,104.0
25,10.037402745833335,10.311024825,65.0,117.0
26,10.509843745833335,11.307087933333335,69.0,78.0
27,10.509843745833335,11.360237545833334,53.0,87.0
28,10.509843745833335,11.409450150000001,60.0,87.0
29,10.509843745833335,11.411418654166667,65.0,89.0
30,11.454725745833334,11.755906883333335,60.0,83.0
31,11.454725745833334,11.822836025,65.0,88.0
32,11.454725745833334,11.824804529166668,69.0,87.0
33,11.454725745833334,12.297245529166668,53.0,84.0
34,12.399607745833334,12.677166833333334,84.0,107.0
35,12.635828245833334,12.860237720833334,77.0,89.0
36,12.872048745833334,13.072836170833334,74.0,88.0
37,13.108269245833334,13.598426783333334,77.0,107.0
38,13.580710245833334,13.940946508333335,72.0,80.0
39,12.399607745833334,14.106300858333334,46.0,83.0
40,14.289371745833334,14.757875737500001,81.0,89.0
41,14.289371745833334,14.803151333333334,74.0,89.0
42,14.289371745833334,14.830710391666669,77.0,87.0
43,14.998033245833335,15.259844300000001,72.0,104.0
44,14.289371745833334,15.379923054166667,46.0,84.0
45,15.470474245833335,15.659450645833335,84.0,107.0
46,15.706694745833335,15.893702641666668,79.0,104.0
47,15.706694745833335,16.395671204166668,72.0,88.0
48,15.706694745833335,16.413387741666668,76.0,93.0
49,15.706694745833335,16.431104279166668,48.0,85.0
50,16.887797245833333,17.001970487500003,60.0,98.0
51,17.124017745833335,17.2854350875,60.0,88.0
52,17.360238245833333,17.47637999166667,62.0,104.0
53,17.596458745833335,17.870080825000002,65.0,117.0
54,18.068899745833335,19.238191220833336,57.0,94.0
55,18.068899745833335,19.265750279166667,65.0,98.0
56,18.068899745833335,19.370081000000003,60.0,102.0
57,18.068899745833335,19.381892025000003,41.0,94.0
58,19.486222745833334,21.244096966666667,55.0,104.0
59,19.486222745833334,21.340553670833334,64.0,104.0
60,21.139766245833336,21.405514308333334,67.0,84.0
61,19.486222745833334,21.413388325000003,60.0,104.0
62,19.486222745833334,21.43897887916667,48.0,88.0
63,21.375986745833334,21.484254475,69.0,98.0
64,21.612207245833336,21.783467108333337,76.0,108.0
65,21.848427745833334,22.1043332875,74.0,113.0
66,21.848427745833334,23.00393969166667,62.0,116.0
67,21.848427745833334,23.00393969166667,65.0,108.0
68,21.848427745833334,23.017719220833335,57.0,107.0
69,21.848427745833334,23.0374042625,50.0,93.0
70,23.265750745833337,24.181105183333337,64.0,104.0
71,23.265750745833337,24.196853216666668,60.0,113.0
72,23.265750745833337,24.204727233333337,57.0,107.0
73,24.446853245833335,24.58661704166667,60.0,96.0
74,24.683073745833337,24.87598715416667,72.0,113.0
75,24.919294245833335,25.161420258333337,69.0,96.0
76,23.265750745833337,25.224412391666668,45.0,91.0
77,25.155514745833337,25.374018708333335,67.0,94.0
78,25.391735245833335,25.596459679166667,65.0,100.0
79,27.753940245833334,27.960633183333336,81.0,107.0
80,25.627955745833336,28.057089887500002,43.0,88.0
81,27.990160745833336,28.198822187500003,79.0,107.0
82,25.627955745833336,28.33071196666667,55.0,90.0
83,25.627955745833336,28.35433401666667,62.0,96.0
84,25.627955745833336,28.36023952916667,58.0,97.0
85,28.462601745833336,28.78543642916667,55.0,98.0
86,28.698822245833338,29.00984590416667,58.0,109.0
87,28.226381245833334,29.043310475000002,43.0,90.0
88,28.935042745833336,29.218507345833334,62.0,113.0
89,30.588586245833337,30.789373670833335,72.0,88.0
90,30.824806745833335,31.039373700000002,77.0,100.0
91,29.407483745833336,31.068901262500003,65.0,100.0
92,29.407483745833336,31.155515445833338,55.0,96.0
93,29.407483745833336,31.169294975000003,60.0,100.0
94,31.061027245833337,31.316932787500004,84.0,100.0
95,31.297247745833335,31.681106058333334,76.0,98.0
96,29.407483745833336,32.732287283333335,48.0,93.0
97,31.297247745833335,32.88386210416667,55.0,90.0
98,31.297247745833335,32.91338966666667,60.0,110.0
99,31.297247745833335,32.91929517916667,64.0,110.0
100,34.13189374583334,34.598429233333334,67.0,87.0
101,33.659452745833335,35.543311233333334,60.0,73.0
102,34.604334745833334,35.76575220416667,69.0,87.0
103,34.13189374583334,35.976382150000006,72.0,87.0
104,35.785437245833336,36.25787824583334,60.0,78.0
105,33.18701174583334,36.31496486666667,53.0,89.0
106,36.02165774583334,36.458665670833334,67.0,87.0
107,36.96653974583334,37.688980775000005,69.0,81.0
108,36.96653974583334,37.907484737500006,65.0,80.0
109,36.494098745833334,38.37795723333333,72.0,86.0
110,37.91142174583334,39.34055577083333,62.0,84.0
111,38.38386274583333,39.37402034166667,64.0,84.0
112,36.96653974583334,39.543311700000004,50.0,65.0
113,37.438980745833334,40.0452802625,57.0,67.0
114,39.80118574583334,40.29134328333334,50.0,87.0
115,40.27362674583334,40.651579545833336,62.0,78.0
116,39.32874474583333,41.0019732875,65.0,88.0
117,41.690949745833336,42.334650608333334,70.0,86.0
118,41.690949745833336,42.596461662500005,62.0,86.0
119,42.16339074583334,42.732288450000006,58.0,70.0
120,42.635831745833336,43.2578790625,70.0,86.0
121,40.74606774583334,44.01772167083334,46.0,86.0
122,42.635831745833336,44.02362718333334,65.0,80.0
123,41.21850874583334,44.04134372083334,53.0,75.0
124,43.580713745833336,44.05315474583334,58.0,78.0
125,44.05315474583334,44.38780045416667,62.0,71.0
126,44.05315474583334,44.503942200000004,70.0,78.0
127,45.470477745833335,45.98425733333334,67.0,75.0
128,45.470477745833335,47.0019739875,72.0,69.0
129,45.94291874583334,47.05709210416667,69.0,78.0
130,47.12402124583334,47.379926787500004,65.0,73.0
131,44.99803674583334,47.456698450000005,60.0,64.0
132,44.525595745833336,47.553155154166674,53.0,83.0
133,47.360241745833335,47.81890321666667,67.0,87.0
134,48.305123745833335,48.85236790416667,69.0,76.0
135,48.305123745833335,48.885832475,65.0,76.0
136,48.305123745833335,48.9271710625,62.0,73.0
137,49.250005745833334,49.96063575,69.0,77.0
138,49.250005745833334,50.00394284166667,62.0,75.0
139,48.305123745833335,50.435045254166674,58.0,72.0
140,50.194887745833334,50.9232342875,69.0,75.0
141,49.250005745833334,50.96063586666667,65.0,70.0
142,50.194887745833334,50.99016342916667,62.0,70.0
143,51.13976974583334,51.50984852916667,62.0,83.0
144,48.305123745833335,51.64961232500001,46.0,70.0
145,50.90354924583334,51.67520287916667,58.0,77.0
146,51.375990245833336,51.72638398750001,65.0,78.0
147,51.61221074583334,52.76575418750001,69.0,70.0
148,52.08465174583334,52.948825075,65.0,86.0
149,52.08465174583334,53.02953374583334,53.0,81.0
150,52.08465174583334,53.64370704583334,60.0,81.0
151,53.02953374583334,53.93898267083334,67.0,80.0
152,53.02953374583334,54.0000063,64.0,86.0
153,53.02953374583334,54.00197480416667,52.0,86.0
154,53.97441574583334,54.65158117916667,62.0,76.0
155,53.97441574583334,54.68307724583334,69.0,84.0
156,54.68307724583334,55.24213242916667,57.0,58.0
157,53.97441574583334,55.387801737500006,50.0,81.0
158,54.91929774583334,55.8897703,62.0,84.0
159,55.86417974583334,56.48622706250001,67.0,80.0
160,55.86417974583334,56.66339243750001,58.0,82.0
161,56.80906174583334,57.311030308333336,67.0,84.0
162,56.80906174583334,57.50197521250001,58.0,77.0
163,57.281502745833336,57.94292014583334,55.0,36.0
164,57.75394374583334,58.30315640833334,67.0,80.0
165,57.75394374583334,58.45669973333334,58.0,77.0
166,58.69882574583334,59.11024311666667,58.0,84.0
167,55.86417974583334,59.173235250000005,43.0,77.0
168,58.69882574583334,59.177172258333336,67.0,88.0
169,59.171266745833336,59.63583372916667,55.0,78.0
170,59.64370774583334,59.93307785833334,60.0,73.0
171,59.64370774583334,60.157487333333336,64.0,80.0
172,59.64370774583334,60.49607005000001,67.0,30.0
173,61.061030745833335,61.336621329166675,65.0,87.0
174,61.29725124583334,61.52559772916667,67.0,86.0
175,60.58858974583334,61.58071584583334,60.0,80.0
176,61.53347174583334,62.261818287500006,64.0,98.0
177,62.24213324583334,62.45079468750001,60.0,86.0
178,60.116148745833335,62.54725139166667,55.0,65.0
179,59.64370774583334,62.83859000833334,48.0,76.0
180,62.47835374583334,63.41929873750001,62.0,107.0
181,63.42323574583334,63.974416912500004,65.0,89.0
182,63.42323574583334,64.20670040416667,60.0,85.0
183,63.89567674583334,64.63977132083333,53.0,65.0
184,64.36811774583335,64.84055874583333,60.0,78.0
185,64.36811774583335,64.95276348333334,65.0,86.0
186,64.84055874583333,65.55118875000001,53.0,38.0
187,65.31299974583334,65.93307855833334,69.0,85.0
188,65.31299974583334,65.95079509583334,60.0,81.0
189,63.42323574583334,66.47638570833334,41.0,80.0
190,66.25788174583334,66.76181881250001,64.0,88.0
191,66.02166124583334,66.84843299583333,53.0,71.0
192,66.73032274583333,67.64961419166667,65.0,87.0
193,67.20276374583334,67.6948897875,69.0,85.0
194,67.20276374583334,67.76772444166667,62.0,77.0
195,68.14764574583334,68.59252768750001,69.0,81.0
196,68.14764574583334,68.63780328333334,64.0,83.0
197,68.62008674583333,68.96851198333334,65.0,84.0
198,68.62008674583333,69.04134663750001,69.0,74.0
199,69.56496874583334,69.76378766666667,69.0,87.0
200,69.56496874583334,69.77166168333333,76.0,86.0
201,69.80118924583334,70.39567750416667,69.0,79.0
202,69.09252774583334,70.41733105,62.0,73.0
203,69.80118924583334,70.49607121666668,77.0,102.0
204,67.67520474583334,70.500008225,57.0,40.0
205,67.20276374583334,70.58071689583333,50.0,81.0
206,70.50985074583333,70.79922085833334,74.0,84.0
207,70.50985074583333,70.80512637083334,69.0,76.0
208,71.45473274583334,72.17323676666668,58.0,76.0
209,71.92717374583334,72.49213444166668,62.0,88.0
210,71.92717374583334,72.52363050833334,70.0,93.0
211,72.39961474583335,73.11221325416668,58.0,65.0
212,72.87205574583334,73.52559912916668,62.0,84.0
213,72.87205574583334,73.53937865833333,70.0,83.0
214,73.58071724583334,73.95079602916667,58.0,70.0
215,73.81693774583334,74.24016614166668,70.0,84.0
216,73.81693774583334,74.35433938333334,62.0,88.0
217,70.98229174583334,74.43701655833334,46.0,84.0
218,74.28937874583335,74.78937880416667,58.0,78.0
219,74.76181974583334,75.50788282500001,60.0,87.0
220,74.76181974583334,75.52953637083334,69.0,91.0
221,76.65158374583334,77.12402474583334,69.0,84.0
222,76.65158374583334,77.14961530000001,64.0,84.0
223,77.12402474583334,77.58268621666667,65.0,88.0
224,77.59646574583334,78.082686275,64.0,88.0
225,74.76181974583334,78.51575719166668,53.0,83.0
226,78.06890674583335,78.54134774583333,65.0,83.0
227,78.54134774583333,79.09646592083334,69.0,88.0
228,78.54134774583333,79.13189899583334,62.0,81.0
229,79.48622974583334,80.03741091250001,69.0,88.0
230,79.48622974583334,80.19882825416667,62.0,89.0
231,78.54134774583333,80.751977925,58.0,78.0
232,80.43111174583333,81.0059149625,69.0,73.0
233,80.43111174583333,81.06103307916668,62.0,75.0
234,80.43111174583333,81.07087560000001,65.0,78.0
235,81.13977324583334,81.52166305416668,58.0,71.0
236,81.37599374583334,81.90158435833334,62.0,88.0
237,81.37599374583334,81.93111192083335,69.0,88.0
238,81.84843474583334,82.35237181250001,58.0,78.0
239,78.54134774583333,82.35630882083333,46.0,74.0
240,82.32087574583333,83.05315929583334,60.0,72.0
241,82.32087574583333,83.06497032083334,69.0,82.0
242,82.32087574583333,83.10434040416668,65.0,79.0
243,82.32087574583333,83.24016719166667,53.0,76.0
244,83.26575774583334,83.89961608750001,60.0,69.0
245,83.26575774583334,83.94882869166668,67.0,73.0
246,83.26575774583334,84.18308068750001,52.0,80.0
247,83.26575774583334,84.20670273750001,64.0,81.0
248,84.21063974583335,84.66339570416667,69.0,75.0
249,84.21063974583335,84.7086713,65.0,65.0
250,84.21063974583335,84.71063980416668,62.0,72.0
251,84.68308074583334,85.39567925416668,57.0,44.0
252,84.21063974583335,85.5177265125,50.0,74.0
253,85.15552174583334,85.60434069583334,65.0,84.0
254,85.15552174583334,85.65749030833334,69.0,84.0
255,85.15552174583334,85.88780529583335,62.0,85.0
256,85.62796274583334,86.16339587916667,50.0,71.0
257,86.10040374583335,86.58071876250001,67.0,75.0
258,86.10040374583335,86.70670302916668,62.0,75.0
259,86.10040374583335,86.79134870833335,58.0,78.0
260,86.10040374583335,87.29331727083334,43.0,84.0
261,87.04528574583334,87.52756926666667,58.0,83.0
262,87.04528574583334,87.62796297916667,67.0,87.0
263,87.04528574583334,87.89961655416667,62.0,87.0
264,87.51772674583334,87.97835672083335,43.0,82.0
265,87.99016774583335,88.62402608750001,67.0,79.0
266,87.99016774583335,88.65355365,60.0,76.0
267,87.99016774583335,88.70079775,64.0,83.0
268,88.93504974583334,89.67914432083334,60.0,79.0
269,88.93504974583334,89.75394747916667,67.0,82.0
270,87.99016774583335,89.80906559583335,48.0,77.0
271,88.93504974583334,89.84449867083335,64.0,83.0
272,89.87993174583335,90.81497122500001,65.0,71.0
273,89.87993174583335,90.82875075416668,69.0,81.0
274,89.87993174583335,90.83071925833335,60.0,72.0
275,89.87993174583335,91.56890832083334,53.0,65.0
276,91.29725474583334,91.62205793333334,55.0,78.0
277,91.53347524583334,91.80709732500002,57.0,80.0
278,91.76969574583335,91.85237292083335,60.0,30.0
279,92.00591624583335,92.34646746666668,60.0,76.0
280,92.24213674583333,92.38780605416667,65.0,90.0
281,92.47835724583334,92.55512890833334,65.0,86.0
282,91.76969574583335,92.57284544583334,53.0,89.0
283,92.47835724583334,92.97245179166667,67.0,102.0
284,90.82481374583334,93.01182187500001,41.0,85.0
285,92.71457774583334,93.12599511666667,53.0,87.0
286,92.95079824583334,93.23229434166667,60.0,91.0
287,93.18701874583334,93.41536522916668,65.0,84.0
288,93.42323924583334,93.62993218333334,67.0,70.0
289,94.13190074583333,94.99804257916668,58.0,80.0
290,93.89568024583335,95.0374126625,53.0,71.0
291,94.36812124583334,95.07875125000001,62.0,77.0
292,93.65945974583335,95.0846567625,46.0,86.0
293,94.60434174583334,95.45670405000001,69.0,87.0
294,95.07678274583334,95.86615291666668,65.0,78.0
295,96.02166474583335,96.55119236666667,52.0,62.0
296,95.54922374583334,96.95670422500001,45.0,81.0
297,96.96654674583334,97.04134990416668,52.0,71.0
298,96.49410574583334,97.08268849166667,60.0,91.0
299,96.49410574583334,97.33662552916668,67.0,90.0
300,96.96654674583334,97.4704838125,64.0,77.0
301,97.43898774583334,97.9842634,67.0,86.0
302,97.43898774583334,98.01772797083335,58.0,83.0
303,97.43898774583334,98.27166500833334,62.0,86.0
304,97.43898774583334,98.33662564583334,43.0,84.0
305,98.38386974583334,98.83859420833335,64.0,83.0
306,98.38386974583334,98.90158634166667,48.0,79.0
307,98.38386974583334,99.09646825416668,67.0,80.0
308,98.38386974583334,99.1122162875,60.0,82.0
309,98.85631074583334,99.22638952916668,64.0,75.0
310,99.32875174583334,99.62599587500002,65.0,78.0
311,99.32875174583334,99.68111399166668,69.0,81.0
312,99.32875174583334,99.86615338333334,60.0,74.0
313,99.32875174583334,100.69883064583334,41.0,77.0
314,99.80119274583335,100.76379128333335,48.0,69.0
315,100.03741324583335,100.78150782083334,53.0,83.0
316,100.27363374583334,100.85434247500001,57.0,89.0
317,100.74607474583334,101.17520865416668,60.0,87.0
318,101.21851574583334,101.70079926666668,69.0,78.0
319,101.21851574583334,101.78544494583335,62.0,74.0
320,101.21851574583334,101.80316148333334,65.0,69.0
321,102.16339774583334,102.67520882916668,69.0,80.0
322,102.16339774583334,102.80316160000001,62.0,83.0
323,102.16339774583334,102.92324035416668,65.0,80.0
324,101.21851574583334,103.03150808333334,50.0,74.0
325,103.10827974583334,103.66536642500002,69.0,78.0
326,103.10827974583334,103.68308296250001,64.0,78.0
327,103.10827974583334,103.68701997083335,60.0,80.0
328,103.10827974583334,104.47835864583334,57.0,76.0
329,103.10827974583334,104.50198069583334,45.0,80.0
330,104.05316174583334,104.67127205416668,60.0,80.0
331,104.05316174583334,104.70079961666667,69.0,84.0
332,104.05316174583334,104.78938230416668,64.0,86.0
333,104.99804374583334,105.65749264166668,65.0,84.0
334,104.99804374583334,105.69095721250001,62.0,80.0
335,105.94292574583335,106.7067053625,65.0,88.0
336,104.99804374583334,106.72048489166667,58.0,77.0
337,104.99804374583334,106.83465813333335,46.0,74.0
338,105.94292574583335,106.87993372916668,62.0,92.0
339,106.88780774583334,107.50985506250001,67.0,87.0
340,106.88780774583334,107.54528813750001,60.0,84.0
341,106.88780774583334,107.58268971666668,64.0,88.0
342,106.88780774583334,108.07678426250001,48.0,83.0
343,107.83268974583335,108.42914650833335,67.0,90.0
344,107.83268974583335,108.51379218750002,60.0,89.0
345,107.83268974583335,108.56497329583334,64.0,93.0
346,108.30513074583334,108.59450085833335,48.0,84.0
347,108.77757174583334,109.36221748333334,60.0,88.0
348,108.77757174583334,109.56891042083335,67.0,89.0
349,108.77757174583334,109.58662695833334,64.0,91.0
350,109.95867424583334,110.26576089583334,62.0,86.0
351,109.72245374583335,110.27757192083334,60.0,89.0
352,108.77757174583334,110.40355618750002,48.0,88.0
353,110.19489474583334,110.6515877125,64.0,88.0
354,109.48623324583335,110.67324125833335,55.0,84.0
355,110.43111524583334,110.76772945833335,67.0,90.0
356,110.87796569166667,111.59843821666668,36.0,92.0
357,111.35040669166668,111.59843821666668,36.0,91.0
358,111.11418619166668,111.60434372916667,48.0,92.0
359,111.35040669166668,111.62402877083335,60.0,97.0
360,111.58662719166668,111.62402877083335,60.0,94.0
361,111.58662719166668,111.838595725,72.0,96.0
362,111.58662719166668,111.90158785833334,64.0,87.0
363,111.58662719166668,111.90158785833334,67.0,83.0
364,112.05906819166668,112.57087927500001,60.0,104.0
365,112.55906825000001,112.57087927500001,60.0,85.0
366,112.05906819166668,112.58465880416668,64.0,80.0
367,112.05906819166668,112.58465880416668,67.0,79.0
368,112.05906819166668,112.58465880416668,72.0,93.0
369,111.82284769166668,112.59253282083334,48.0,102.0
370,112.55906825000001,112.59253282083334,48.0,62.0
371,112.29528869166667,112.6122178625,36.0,107.0
372,112.55906825000001,112.84056434583334,57.0,87.0
373,112.55906825000001,112.85828088333335,65.0,80.0
374,112.55906825000001,112.94489506666667,53.0,58.0
375,113.03150925000001,113.18505257500001,57.0,50.0
376,113.03150925000001,113.19489509583335,60.0,46.0
377,113.03150925000001,113.20276911250001,65.0,40.0
378,113.26772975000002,113.57284789583335,53.0,38.0
379,112.55906825000001,114.0000133,41.0,58.0
380,113.74017075,114.01969834166668,53.0,45.0
381,113.50395025000002,114.03938338333334,65.0,96.0
382,113.50395025000002,114.04332039166668,57.0,94.0
383,113.50395025000002,114.08072197083334,60.0,92.0
384,113.97639125,114.18308418750001,48.0,46.0
385,114.21261175000001,114.25985585000001,41.0,68.0
386,114.44883225000001,114.82875355416668,62.0,80.0
387,114.44883225000001,114.84253308333335,65.0,76.0
388,114.44883225000001,114.85237560416668,50.0,69.0
389,114.44883225000001,114.85237560416668,57.0,80.0
390,115.15749375000001,115.38977724166668,50.0,72.0
391,114.44883225000001,115.58269065,38.0,77.0
392,115.39371425000002,115.67717885,57.0,91.0
393,115.86615525,115.92717887916668,38.0,75.0
394,115.62993475,115.92717887916668,50.0,67.0
395,115.39371425000002,115.92717887916668,65.0,90.0
396,115.39371425000002,115.97442297916668,62.0,90.0
397,116.10237575000001,116.17127339583334,57.0,53.0
398,116.33859625000001,116.82087977083334,43.0,63.0
399,116.33859625000001,116.83072229166667,65.0,68.0
400,116.33859625000001,116.84253331666667,58.0,69.0
401,116.33859625000001,116.84843882916668,62.0,68.0
402,116.33859625000001,116.85040733333334,55.0,67.0
403,117.04725775000001,117.33269085416667,43.0,69.0
404,116.33859625000001,117.507887725,31.0,68.0
405,117.28347825000002,117.78150980416667,67.0,92.0
406,117.28347825000002,117.791352325,58.0,90.0
407,117.75591925,117.79725783750001,31.0,83.0
408,117.28347825000002,117.80710035833334,55.0,102.0
409,117.51969875,117.85237595416667,43.0,63.0
410,117.28347825000002,117.85631296250001,62.0,72.0
411,118.22836025000001,118.7185177875,48.0,53.0
412,118.22836025000001,118.75198235833335,60.0,63.0
413,118.22836025000001,118.7657618875,64.0,72.0
414,118.22836025000001,118.8248170125,55.0,71.0
415,118.93702175000001,119.23426587916667,48.0,80.0
416,118.22836025000001,119.42324227916667,36.0,56.0
417,119.17324225000002,119.68702183750001,55.0,100.0
418,119.40946275000002,119.68899034166668,48.0,80.0
419,119.64568325,119.69095884583335,36.0,92.0
420,119.17324225000002,119.69883286250001,64.0,90.0
421,119.17324225000002,119.70080136666668,60.0,90.0
422,120.11812425000001,120.58859674583334,50.0,83.0
423,120.11812425000001,120.6791479375,62.0,94.0
424,120.11812425000001,120.70670699583334,69.0,92.0
425,120.11812425000001,120.71064400416668,65.0,87.0
426,120.82678575000001,121.15749445000002,50.0,67.0
427,120.11812425000001,121.30513226250001,38.0,85.0
428,121.06300625000002,121.50395118333334,62.0,97.0
429,121.29922675000002,121.55119528333334,50.0,53.0
430,121.06300625000002,121.57481733333334,65.0,99.0
431,121.53544725,121.59056536666668,38.0,65.0
432,121.06300625000002,121.59253387083335,69.0,95.0
433,122.00788825000001,122.40749459583334,52.0,67.0
434,122.00788825000001,122.51969933333335,69.0,87.0
435,122.00788825000001,122.5334788625,57.0,87.0
436,122.00788825000001,122.54135287916668,60.0,83.0
437,122.00788825000001,122.54922689583334,64.0,77.0
438,122.00788825000001,123.10631357500002,45.0,62.0
439,122.71654975000001,123.15552617916667,52.0,72.0
440,122.95277025000001,123.19292775833334,66.0,84.0
441,122.95277025000001,123.21458130416667,57.0,92.0
442,122.95277025000001,123.22048681666668,62.0,77.0
443,122.95277025000001,123.24607737083335,69.0,95.0
444,123.42521125,123.6378097,50.0,65.0
445,123.89765225000001,124.44292790416668,55.0,87.0
446,123.89765225000001,124.46851845833335,67.0,80.0
447,123.89765225000001,124.50198302916668,62.0,88.0
448,124.60631375000001,124.88584134166668,55.0,75.0
449,123.89765225000001,125.05710120416668,43.0,54.0
450,124.84253425000001,125.11221932083335,58.0,110.0
451,124.84253425000001,125.24017209166668,67.0,102.0
452,124.84253425000001,125.38190439166668,62.0,91.0
453,123.89765225000001,125.45277054166668,50.0,34.0
454,125.31497525000002,125.47442408750001,55.0,64.0
455,125.55119575,125.60237685833334,43.0,69.0
456,125.78741625,126.24804622500001,60.0,81.0
457,125.78741625,126.26182575416668,67.0,84.0
458,125.78741625,126.27166827500001,48.0,72.0
459,125.78741625,126.27166827500001,64.0,77.0
460,126.49607775000001,126.75788880416668,48.0,84.0
461,126.73229825000001,126.78741636666668,69.0,58.0
462,126.73229825000001,126.96458174166668,67.0,83.0
463,126.73229825000001,127.00985733750001,64.0,94.0
464,126.73229825000001,127.01773135416668,60.0,84.0
465,125.78741625,127.08072348750001,36.0,81.0
466,126.73229825000001,127.15355814166668,55.0,104.0
467,127.20473925000002,127.35040855833334,36.0,81.0
468,126.96851875000002,127.36221958333334,48.0,94.0
469,127.20473925000002,127.45473927916667,60.0,100.0
470,127.67718025,127.95867634583334,57.0,87.0
471,127.67718025,127.97639288333335,65.0,80.0
472,127.67718025,127.99607792500001,60.0,85.0
473,127.67718025,128.06300706666667,53.0,58.0
474,128.14962125000002,128.303164575,57.0,50.0
475,128.14962125000002,128.31300709583334,60.0,46.0
476,128.14962125000002,128.32088111250002,65.0,40.0
477,128.38584175,128.69095989583334,53.0,38.0
478,127.67718025,128.95473945416668,48.0,62.0
479,127.67718025,129.1181253,41.0,58.0
480,128.85828275,129.13781034166666,53.0,45.0
481,128.62206225,129.15749538333336,65.0,96.0
482,128.62206225,129.16143239166666,57.0,94.0
483,128.62206225,129.19883397083333,60.0,92.0
484,129.09450325,129.3011961875,48.0,46.0
485,129.33072375,129.37796785,41.0,68.0
486,129.56694425,129.9468655541667,62.0,80.0
487,129.56694425,129.96064508333333,65.0,76.0
488,129.56694425,129.9704876041667,50.0,69.0
489,129.56694425,129.9704876041667,57.0,80.0
490,130.27560575,130.50788924166667,50.0,72.0
491,129.56694425,130.70080265,38.0,77.0
492,130.51182625,130.79529085000001,57.0,91.0
493,130.98426725000002,131.04529087916669,38.0,75.0
494,130.74804675000001,131.04529087916669,50.0,67.0
495,130.51182625,131.04529087916669,65.0,90.0
496,130.51182625,131.0925349791667,62.0,90.0
497,131.22048775000002,131.28938539583334,57.0,53.0
498,131.45670825000002,131.93899177083335,43.0,63.0
499,131.45670825000002,131.94883429166669,65.0,68.0
500,131.45670825000002,131.96064531666667,58.0,69.0
501,131.45670825000002,131.9665508291667,62.0,68.0
502,131.45670825000002,131.96851933333335,55.0,67.0
503,132.16536975000002,132.45080285416668,43.0,69.0
504,131.45670825000002,132.625999725,31.0,68.0
505,132.40159025,132.89962180416669,67.0,92.0
506,132.40159025,132.90946432500002,58.0,90.0
507,132.87403125,132.9153698375,31.0,83.0
508,132.40159025,132.92521235833334,55.0,102.0
509,132.63781075,132.97048795416669,43.0,63.0
510,132.40159025,132.97442496250002,62.0,72.0
511,133.34647225,133.83662978750002,48.0,53.0
512,133.34647225,133.87009435833335,60.0,63.0
513,133.34647225,133.88387388750002,64.0,72.0
514,133.34647225,133.9429290125,55.0,71.0
515,134.05513375,134.35237787916668,48.0,80.0
516,133.34647225,134.54135427916668,36.0,56.0
517,134.29135425,134.80513383750002,55.0,100.0
518,134.52757475,134.80710234166668,48.0,80.0
519,134.76379525000002,134.80907084583333,36.0,92.0
520,134.29135425,134.8169448625,64.0,90.0
521,134.29135425,134.8189133666667,60.0,90.0
522,135.23623625000002,135.70670874583334,50.0,83.0
523,135.23623625000002,135.7972599375,62.0,94.0
524,135.23623625000002,135.82481899583334,69.0,92.0
525,135.23623625000002,135.82875600416668,65.0,87.0
526,135.94489775000002,136.27560645,50.0,67.0
527,135.23623625000002,136.42324426250002,38.0,85.0
528,136.18111825000003,136.62206318333335,62.0,97.0
529,136.41733875,136.66930728333335,50.0,53.0
530,136.18111825000003,136.69292933333335,65.0,99.0
531,136.65355925,136.70867736666668,38.0,65.0
532,136.18111825000003,136.71064587083333,69.0,95.0
533,137.12600025,137.52560659583335,52.0,67.0
534,137.12600025,137.63781133333333,69.0,87.0
535,137.12600025,137.6515908625,57.0,87.0
536,137.12600025,137.65946487916668,60.0,83.0
537,137.12600025,137.66733889583335,64.0,77.0
538,137.12600025,138.224425575,45.0,62.0
539,137.83466175,138.27363817916668,52.0,72.0
540,138.07088225,138.31103975833335,66.0,84.0
541,138.07088225,138.33269330416667,57.0,92.0
542,138.07088225,138.3385988166667,62.0,77.0
543,138.07088225,138.36418937083334,69.0,95.0
544,138.54332325000001,138.75592170000002,50.0,65.0
545,139.01576425000002,139.56103990416668,55.0,87.0
546,139.01576425000002,139.58663045833333,67.0,80.0
547,139.01576425000002,139.6200950291667,62.0,88.0
548,139.72442575000002,140.0039533416667,55.0,75.0
549,139.01576425000002,140.17521320416668,43.0,54.0
550,139.96064625000002,140.23033132083336,58.0,110.0
551,139.96064625000002,140.3582840916667,67.0,102.0
552,139.96064625000002,140.5000163916667,62.0,91.0
553,139.01576425000002,140.5708825416667,50.0,34.0
554,140.43308725,140.5925360875,55.0,64.0
555,140.66930775,140.72048885833334,43.0,69.0
556,140.90552825,141.36615822500002,60.0,81.0
557,140.90552825,141.3799377541667,67.0,84.0
558,140.90552825,141.38978027500002,48.0,72.0
559,140.90552825,141.38978027500002,64.0,77.0
560,141.61418975,141.87600080416667,48.0,84.0
561,141.85041025,141.9055283666667,69.0,58.0
562,141.85041025,142.08269374166667,67.0,83.0
563,141.85041025,142.12796933750002,64.0,94.0
564,141.85041025,142.13584335416667,60.0,84.0
565,140.90552825,142.19883548750002,36.0,81.0
566,141.85041025,142.27167014166668,55.0,104.0
567,142.32285125,142.46852055833335,36.0,81.0
568,142.08663075,142.48033158333334,48.0,94.0
569,142.32285125,142.57285127916668,60.0,100.0
570,142.55907175000002,142.67127648750002,62.0,106.0
571,142.79332374583333,143.22836316666667,69.0,77.0
572,142.79332374583333,143.33072538333334,62.0,76.0
573,142.79332374583333,143.36025294583334,65.0,77.0
574,143.26576474583334,143.83466245000002,58.0,78.0
575,142.79332374583333,143.90946560833333,46.0,69.0
576,143.73820574583334,144.25001682916667,69.0,88.0
577,143.73820574583334,144.3248199875,62.0,86.0
578,143.73820574583334,144.47442630416668,65.0,88.0
579,144.21064674583334,144.71458381250002,46.0,71.0
580,144.68308774583335,145.27167049166667,69.0,86.0
581,144.68308774583335,145.2775760041667,60.0,84.0
582,144.68308774583335,145.4901744541667,64.0,86.0
583,144.68308774583335,145.52757603333333,45.0,78.0
584,145.62796974583335,146.17521390416667,69.0,83.0
585,145.62796974583335,146.21655249166668,65.0,87.0
586,145.62796974583335,146.29332415416667,62.0,84.0
587,145.62796974583335,146.57875725833335,50.0,72.0
588,146.57285174583333,147.177182525,67.0,86.0
589,146.57285174583333,147.24017465833336,58.0,81.0
590,146.57285174583333,147.45474161250002,62.0,84.0
591,146.57285174583333,147.47048964583334,43.0,77.0
592,147.51773374583334,148.0826944416667,48.0,73.0
593,147.51773374583334,148.15946610416668,60.0,73.0
594,147.51773374583334,148.30316690833334,67.0,72.0
595,147.51773374583334,148.45277322500002,64.0,76.0
596,148.46261574583335,150.43505692083335,58.0,81.0
597,148.46261574583335,150.43505692083335,65.0,71.0
598,148.46261574583335,150.44489944166668,62.0,71.0
599,148.46261574583335,150.460647475,69.0,76.0
600,148.46261574583335,150.47639550833335,46.0,77.0
601,152.24214374583335,152.79332491250003,65.0,89.0
602,152.24214374583335,153.0256084041667,60.0,85.0
603,152.71458474583335,153.45867932083334,53.0,65.0
604,153.18702574583335,153.65946674583336,60.0,78.0
605,153.18702574583335,153.77167148333334,65.0,86.0
606,153.65946674583336,154.37009675000002,53.0,38.0
607,154.13190774583336,154.75198655833336,69.0,85.0
608,154.13190774583336,154.76970309583334,60.0,81.0
609,152.24214374583335,155.29529370833336,41.0,80.0
610,155.07678974583334,155.58072681250002,64.0,88.0
611,154.84056924583334,155.66734099583334,53.0,71.0
612,155.54923074583334,156.4685221916667,65.0,87.0
613,156.02167174583334,156.5137977875,69.0,85.0
614,156.02167174583334,156.5866324416667,62.0,77.0
615,156.96655374583335,157.41143568750002,69.0,81.0
616,156.96655374583335,157.45671128333333,64.0,83.0
617,157.43899474583336,157.78741998333334,65.0,84.0
618,157.43899474583336,157.86025463750002,69.0,74.0
619,158.38387674583333,158.5826956666667,69.0,87.0
620,158.38387674583333,158.59056968333334,76.0,86.0
621,158.62009724583334,159.21458550416668,69.0,79.0
622,157.91143574583336,159.23623905000002,62.0,73.0
623,158.62009724583334,159.31497921666667,77.0,102.0
624,156.49411274583335,159.318916225,57.0,40.0
625,156.02167174583334,159.39962489583334,50.0,81.0
626,159.32875874583334,159.61812885833334,74.0,84.0
627,159.32875874583334,159.62403437083336,69.0,76.0
628,160.27364074583335,160.99214476666668,58.0,76.0
629,160.74608174583335,161.31104244166667,62.0,88.0
630,160.74608174583335,161.34253850833335,70.0,93.0
631,161.21852274583335,161.93112125416667,58.0,65.0
632,161.69096374583336,162.3445071291667,62.0,84.0
633,161.69096374583336,162.35828665833336,70.0,83.0
634,162.39962524583333,162.7697040291667,58.0,70.0
635,162.63584574583334,163.05907414166668,70.0,84.0
636,162.63584574583334,163.17324738333335,62.0,88.0
637,159.80119974583334,163.25592455833333,46.0,84.0
638,163.10828674583334,163.60828680416668,58.0,78.0
639,163.58072774583334,164.32679082500002,60.0,87.0
640,163.58072774583334,164.34844437083333,69.0,91.0
641,165.47049174583336,165.94293274583336,69.0,84.0
642,165.47049174583336,165.96852330000002,64.0,84.0
643,165.94293274583336,166.4015942166667,65.0,88.0
644,166.41537374583334,166.901594275,64.0,88.0
645,163.58072774583334,167.3346651916667,53.0,83.0
646,166.88781474583334,167.36025574583334,65.0,83.0
647,167.36025574583334,167.91537392083336,69.0,88.0
648,167.36025574583334,167.95080699583335,62.0,81.0
649,168.30513774583335,168.8563189125,69.0,88.0
650,168.30513774583335,169.0177362541667,62.0,89.0
651,167.36025574583334,169.57088592500003,58.0,78.0
652,169.25001974583336,169.8248229625,69.0,73.0
653,169.25001974583336,169.87994107916668,62.0,75.0
654,169.25001974583336,169.88978360000002,65.0,78.0
655,169.95868124583336,170.34057105416667,58.0,71.0
656,170.19490174583333,170.72049235833336,62.0,88.0
657,170.19490174583333,170.75001992083335,69.0,88.0
658,170.66734274583334,171.17127981250002,58.0,78.0
659,167.36025574583334,171.17521682083336,46.0,74.0
660,171.13978374583334,171.87206729583335,60.0,72.0
661,171.13978374583334,171.88387832083336,69.0,82.0
662,171.13978374583334,171.92324840416669,65.0,79.0
663,171.13978374583334,172.0590751916667,53.0,76.0
664,172.08466574583335,172.71852408750001,60.0,69.0
665,172.08466574583335,172.76773669166667,67.0,73.0
666,172.08466574583335,173.00198868750002,52.0,80.0
667,172.08466574583335,173.02561073750002,64.0,81.0
668,173.02954774583336,173.48230370416667,69.0,75.0
669,173.02954774583336,173.5275793,65.0,65.0
670,173.02954774583336,173.52954780416667,62.0,72.0
671,173.50198874583336,174.21458725416667,57.0,44.0
672,173.02954774583336,174.3366345125,50.0,74.0
673,173.97442974583336,174.42324869583334,65.0,84.0
674,173.97442974583336,174.47639830833336,69.0,84.0
675,173.97442974583336,174.70671329583334,62.0,85.0
676,174.44687074583334,174.9823038791667,50.0,71.0
677,174.91931174583334,175.39962676250002,67.0,75.0
678,174.91931174583334,175.52561102916667,62.0,75.0
679,174.91931174583334,175.61025670833334,58.0,78.0
680,174.91931174583334,176.11222527083333,43.0,84.0
681,175.86419374583335,176.34647726666668,58.0,83.0
682,175.86419374583335,176.44687097916668,67.0,87.0
683,175.86419374583335,176.7185245541667,62.0,87.0
684,176.33663474583335,176.79726472083334,43.0,82.0
685,176.80907574583335,177.44293408750002,67.0,79.0
686,176.80907574583335,177.47246165,60.0,76.0
687,176.80907574583335,177.51970575,64.0,83.0
688,177.75395774583336,178.49805232083335,60.0,79.0
689,177.75395774583336,178.5728554791667,67.0,82.0
690,176.80907574583335,178.62797359583334,48.0,77.0
691,177.75395774583336,178.66340667083335,64.0,83.0
692,178.69883974583334,179.63387922500002,65.0,71.0
693,178.69883974583334,179.64765875416668,69.0,81.0
694,178.69883974583334,179.64962725833334,60.0,72.0
695,178.69883974583334,180.38781632083334,53.0,65.0
696,180.11616274583335,180.44096593333336,55.0,78.0
697,180.35238324583335,180.62600532500002,57.0,80.0
698,180.58860374583335,180.67128092083334,60.0,30.0
699,180.82482424583336,181.1653754666667,60.0,76.0
700,181.06104474583336,181.2067140541667,65.0,90.0
701,181.29726524583336,181.37403690833335,65.0,86.0
702,180.58860374583335,181.39175344583336,53.0,89.0
703,181.29726524583336,181.79135979166668,67.0,102.0
704,179.64372174583335,181.830729875,41.0,85.0
705,181.53348574583336,181.9449031166667,53.0,87.0
706,181.76970624583336,182.05120234166668,60.0,91.0
707,182.00592674583334,182.2342732291667,65.0,84.0
708,182.24214724583334,182.44884018333335,67.0,70.0
709,182.95080874583334,183.81695057916667,58.0,80.0
710,182.71458824583334,183.85632066250002,53.0,71.0
711,183.18702924583334,183.89765925,62.0,77.0
712,182.47836774583334,183.90356476250003,46.0,86.0
713,183.42324974583335,184.27561205,69.0,87.0
714,183.89569074583335,184.68506091666669,65.0,78.0
715,184.84057274583336,185.3701003666667,52.0,62.0
716,184.36813174583335,185.775612225,45.0,81.0
717,185.78545474583336,185.86025790416667,52.0,71.0
718,185.31301374583336,185.90159649166668,60.0,91.0
719,185.31301374583336,186.1555335291667,67.0,90.0
720,185.78545474583336,186.2893918125,64.0,77.0
721,186.25789574583334,186.80317140000002,67.0,86.0
722,186.25789574583334,186.83663597083336,58.0,83.0
723,186.25789574583334,187.09057300833334,62.0,86.0
724,186.25789574583334,187.15553364583334,43.0,84.0
725,187.20277774583334,187.65750220833334,64.0,83.0
726,187.20277774583334,187.7204943416667,48.0,79.0
727,187.20277774583334,187.9153762541667,67.0,80.0
728,187.20277774583334,187.9311242875,60.0,82.0
729,187.67521874583335,188.04529752916667,64.0,75.0
730,188.14765974583335,188.44490387500002,65.0,78.0
731,188.14765974583335,188.50002199166667,69.0,81.0
732,188.14765974583335,188.68506138333336,60.0,74.0
733,188.14765974583335,189.51773864583336,41.0,77.0
734,188.62010074583335,189.58269928333334,48.0,69.0
735,188.85632124583336,189.60041582083335,53.0,83.0
736,189.09254174583336,189.673250475,57.0,89.0
737,189.56498274583336,189.99411665416667,60.0,87.0
738,190.03742374583334,190.51970726666667,69.0,78.0
739,190.03742374583334,190.60435294583334,62.0,74.0
740,190.03742374583334,190.62206948333335,65.0,69.0
741,190.98230574583334,191.49411682916667,69.0,80.0
742,190.98230574583334,191.6220696,62.0,83.0
743,190.98230574583334,191.7421483541667,65.0,80.0
744,190.03742374583334,191.85041608333336,50.0,74.0
745,191.92718774583335,192.48427442500002,69.0,78.0
746,191.92718774583335,192.50199096250003,64.0,78.0
747,191.92718774583335,192.50592797083334,60.0,80.0
748,191.92718774583335,193.29726664583336,57.0,76.0
749,191.92718774583335,193.32088869583336,45.0,80.0
750,192.87206974583336,193.49018005416667,60.0,80.0
751,192.87206974583336,193.5197076166667,69.0,84.0
752,192.87206974583336,193.60829030416667,64.0,86.0
753,193.81695174583336,194.4764006416667,65.0,84.0
754,193.81695174583336,194.50986521250002,62.0,80.0
755,194.76183374583334,195.52561336250002,65.0,88.0
756,193.81695174583336,195.5393928916667,58.0,77.0
757,193.81695174583336,195.65356613333336,46.0,74.0
758,194.76183374583334,195.69884172916667,62.0,92.0
759,195.70671574583335,196.32876306250003,67.0,87.0
760,195.70671574583335,196.36419613750002,60.0,84.0
761,195.70671574583335,196.40159771666669,64.0,88.0
762,195.70671574583335,196.8956922625,48.0,83.0
763,196.65159774583336,197.24805450833335,67.0,90.0
764,196.65159774583336,197.33270018750002,60.0,89.0
765,196.65159774583336,197.38388129583336,64.0,93.0
766,197.12403874583336,197.41340885833336,48.0,84.0
767,197.59647974583336,198.18112548333335,60.0,88.0
768,197.59647974583336,198.38781842083336,67.0,89.0
769,197.59647974583336,198.40553495833336,64.0,91.0
770,198.77758224583334,199.08466889583335,62.0,86.0
771,198.54136174583334,199.09647992083336,60.0,89.0
772,197.59647974583336,199.2224641875,48.0,88.0
773,199.01380274583335,199.47049571250002,64.0,88.0
774,198.30514124583334,199.49214925833334,55.0,84.0
775,199.25002324583335,199.58663745833334,67.0,90.0
776,199.48821225,200.20868477500002,36.0,92.0
777,199.96065325,200.20868477500002,36.0,91.0
778,199.48624374583335,200.21459028750002,48.0,87.0
779,199.72443275,200.21459028750002,48.0,92.0
780,199.96065325,200.23427532916668,60.0,97.0
781,200.19490524583335,200.23427532916668,60.0,89.0
782,200.19687375,200.23427532916668,60.0,94.0
783,200.19687375,200.44884228333336,72.0,96.0
784,200.19687375,200.5118344166667,64.0,87.0
785,200.19687375,200.5118344166667,67.0,83.0
786,199.95868474583335,200.75592893333334,55.0,69.0
787,200.43309425,200.76183444583336,48.0,102.0
788,200.66931475,200.8878187125,60.0,104.0
789,200.66931475,201.1949053625,64.0,80.0
790,200.66931475,201.1949053625,67.0,79.0
791,200.66931475,201.1949053625,72.0,93.0
792,200.90553525,201.22246442083335,36.0,107.0
793,201.37797625000002,201.65947234583336,57.0,87.0
794,201.37797625000002,201.67718888333334,65.0,80.0
795,201.37797625000002,201.696873925,60.0,85.0
796,201.37797625000002,201.7638030666667,53.0,58.0
797,201.85041725000002,202.003960575,57.0,50.0
798,201.85041725000002,202.01380309583334,60.0,46.0
799,201.85041725000002,202.02167711250002,65.0,40.0
800,202.08663775000002,202.39175589583334,53.0,38.0
801,201.37797625000002,202.65553545416668,48.0,62.0
802,201.37797625000002,202.81892130000003,41.0,58.0
803,202.55907875000003,202.8386063416667,53.0,45.0
804,202.32285825000002,202.85829138333335,65.0,96.0
805,202.32285825000002,202.8622283916667,57.0,94.0
806,202.32285825000002,202.89962997083336,60.0,92.0
807,202.79529925000003,203.0019921875,48.0,46.0
808,203.03151975000003,203.07876385000003,41.0,68.0
809,203.26774025000003,203.6476615541667,62.0,80.0
810,203.26774025000003,203.66144108333336,65.0,76.0
811,203.26774025000003,203.6712836041667,50.0,69.0
812,203.26774025000003,203.6712836041667,57.0,80.0
813,203.97640175,204.20868524166667,50.0,72.0
814,203.26774025000003,204.40159865,38.0,77.0
815,204.21262225,204.49608685,57.0,91.0
816,204.68506325,204.74608687916668,38.0,75.0
817,204.44884275,204.74608687916668,50.0,67.0
818,204.21262225,204.74608687916668,65.0,90.0
819,204.21262225,204.79333097916668,62.0,90.0
820,204.92128375000001,204.99018139583336,57.0,53.0
821,205.15750425000002,205.63978777083335,43.0,63.0
822,205.15750425000002,205.64963029166668,65.0,68.0
823,205.15750425000002,205.6614413166667,58.0,69.0
824,205.15750425000002,205.6673468291667,62.0,68.0
825,205.15750425000002,205.66931533333334,55.0,67.0
826,205.86616575000002,206.15159885416668,43.0,69.0
827,205.15750425000002,206.326795725,31.0,68.0
828,206.10238625000002,206.60041780416668,67.0,92.0
829,206.10238625000002,206.610260325,58.0,90.0
830,206.57482725000003,206.6161658375,31.0,83.0
831,206.10238625000002,206.62600835833337,55.0,102.0
832,206.33860675000003,206.67128395416668,43.0,63.0
833,206.10238625000002,206.67522096250002,62.0,72.0
834,207.04726825000003,207.5374257875,48.0,53.0
835,207.04726825000003,207.57089035833334,60.0,63.0
836,207.04726825000003,207.5846698875,64.0,72.0
837,207.04726825000003,207.64372501250003,55.0,71.0
838,207.75592975,208.05317387916668,48.0,80.0
839,207.04726825000003,208.24215027916668,36.0,56.0
840,207.99215025,208.50592983750002,55.0,100.0
841,208.22837075,208.50789834166667,48.0,80.0
842,208.46459125,208.50986684583336,36.0,92.0
843,207.99215025,208.5177408625,64.0,90.0
844,207.99215025,208.5197093666667,60.0,90.0
845,208.93703225000002,209.40750474583336,50.0,83.0
846,208.93703225000002,209.49805593750003,62.0,94.0
847,208.93703225000002,209.52561499583337,69.0,92.0
848,208.93703225000002,209.52955200416667,65.0,87.0
849,209.64569375000002,209.97640245000002,50.0,67.0
850,208.93703225000002,210.12404026250002,38.0,85.0
851,209.88191425000002,210.32285918333335,62.0,97.0
852,210.11813475000002,210.37010328333335,50.0,53.0
853,209.88191425000002,210.39372533333335,65.0,99.0
854,210.35435525000003,210.40947336666667,38.0,65.0
855,209.88191425000002,210.41144187083336,69.0,95.0
856,210.82679625000003,211.22640259583335,52.0,67.0
857,210.82679625000003,211.33860733333336,69.0,87.0
858,210.82679625000003,211.35238686250003,57.0,87.0
859,210.82679625000003,211.36026087916667,60.0,83.0
860,210.82679625000003,211.36813489583335,64.0,77.0
861,210.82679625000003,211.92522157500002,45.0,62.0
862,211.53545775,211.97443417916668,52.0,72.0
863,211.77167825,212.01183575833335,66.0,84.0
864,211.77167825,212.0334893041667,57.0,92.0
865,211.77167825,212.0393948166667,62.0,77.0
866,211.77167825,212.06498537083334,69.0,95.0
867,212.24411925,212.4567177,50.0,65.0
868,212.71656025000001,213.26183590416667,55.0,87.0
869,212.71656025000001,213.28742645833336,67.0,80.0
870,212.71656025000001,213.3208910291667,62.0,88.0
871,213.42522175000002,213.70474934166668,55.0,75.0
872,212.71656025000001,213.87600920416668,43.0,54.0
873,213.66144225000002,213.93112732083335,58.0,110.0
874,213.66144225000002,214.0590800916667,67.0,102.0
875,213.66144225000002,214.2008123916667,62.0,91.0
876,212.71656025000001,214.2716785416667,50.0,34.0
877,214.13388325000003,214.2933320875,55.0,64.0
878,214.37010375000003,214.42128485833337,43.0,69.0
879,214.60632425000003,215.06695422500002,60.0,81.0
880,214.60632425000003,215.0807337541667,67.0,84.0
881,214.60632425000003,215.09057627500002,48.0,72.0
882,214.60632425000003,215.09057627500002,64.0,77.0
883,215.31498575,215.5767968041667,48.0,84.0
884,215.55120625,215.60632436666668,69.0,58.0
885,215.55120625,215.7834897416667,67.0,83.0
886,215.55120625,215.82876533750002,64.0,94.0
887,215.55120625,215.8366393541667,60.0,84.0
888,214.60632425000003,215.89963148750002,36.0,81.0
889,215.55120625,215.97246614166667,55.0,104.0
890,216.02364725,216.16931655833335,36.0,81.0
891,215.78742675,216.18112758333336,48.0,94.0
892,216.02364725,216.27364727916668,60.0,100.0
893,216.49608825,216.77758434583336,57.0,87.0
894,216.49608825,216.79530088333334,65.0,80.0
895,216.49608825,216.81498592500003,60.0,85.0
896,216.49608825,216.8819150666667,53.0,58.0
897,216.96852925000002,217.12207257500003,57.0,50.0
898,216.96852925000002,217.13191509583336,60.0,46.0
899,216.96852925000002,217.1397891125,65.0,40.0
900,217.20474975000002,217.50986789583337,53.0,38.0
901,216.49608825,217.77364745416668,48.0,62.0
902,216.49608825,217.93703330000002,41.0,58.0
903,217.67719075000002,217.9567183416667,53.0,45.0
904,217.44097025000002,217.97640338333335,65.0,96.0
905,217.44097025000002,217.9803403916667,57.0,94.0
906,217.44097025000002,218.01774197083336,60.0,92.0
907,217.91341125000002,218.12010418750003,48.0,46.0
908,218.14963175000003,218.19687585000003,41.0,68.0
909,218.38585225000003,218.76577355416669,62.0,80.0
910,218.38585225000003,218.77955308333335,65.0,76.0
911,218.38585225000003,218.78939560416669,50.0,69.0
912,218.38585225000003,218.78939560416669,57.0,80.0
913,219.09451375000003,219.3267972416667,50.0,72.0
914,218.38585225000003,219.51971065,38.0,77.0
915,219.33073425,219.61419885,57.0,91.0
916,219.80317525,219.86419887916668,38.0,75.0
917,219.56695475,219.86419887916668,50.0,67.0
918,219.33073425,219.86419887916668,65.0,90.0
919,219.33073425,219.91144297916668,62.0,90.0
920,220.03939575,220.10829339583336,57.0,53.0
921,220.27561625,220.75789977083335,43.0,63.0
922,220.27561625,220.76774229166668,65.0,68.0
923,220.27561625,220.7795533166667,58.0,69.0
924,220.27561625,220.78545882916669,62.0,68.0
925,220.27561625,220.78742733333334,55.0,67.0
926,220.98427775000002,221.26971085416668,43.0,69.0
927,220.27561625,221.444907725,31.0,68.0
928,221.22049825000002,221.71852980416668,67.0,92.0
929,221.22049825000002,221.728372325,58.0,90.0
930,221.69293925000002,221.73427783750003,31.0,83.0
931,221.22049825000002,221.74412035833336,55.0,102.0
932,221.45671875000002,221.78939595416668,43.0,63.0
933,221.22049825000002,221.79333296250002,62.0,72.0
934,222.16538025000003,222.6555377875,48.0,53.0
935,222.16538025000003,222.68900235833334,60.0,63.0
936,222.16538025000003,222.7027818875,64.0,72.0
937,222.16538025000003,222.76183701250002,55.0,71.0
938,222.87404175000003,223.17128587916667,48.0,80.0
939,222.16538025000003,223.36026227916668,36.0,56.0
940,223.11026225000003,223.62404183750002,55.0,100.0
941,223.34648275,223.6260103416667,48.0,80.0
942,223.58270325,223.62797884583335,36.0,92.0
943,223.11026225000003,223.63585286250003,64.0,90.0
944,223.11026225000003,223.63782136666669,60.0,90.0
945,224.05514425,224.52561674583336,50.0,83.0
946,224.05514425,224.61616793750002,62.0,94.0
947,224.05514425,224.64372699583336,69.0,92.0
948,224.05514425,224.6476640041667,65.0,87.0
949,224.76380575000002,225.09451445000002,50.0,67.0
950,224.05514425,225.2421522625,38.0,85.0
951,225.00002625000002,225.44097118333335,62.0,97.0
952,225.23624675000002,225.48821528333335,50.0,53.0
953,225.00002625000002,225.51183733333335,65.0,99.0
954,225.47246725000002,225.5275853666667,38.0,65.0
955,225.00002625000002,225.52955387083335,69.0,95.0
956,225.94490825000003,226.34451459583335,52.0,67.0
957,225.94490825000003,226.45671933333335,69.0,87.0
958,225.94490825000003,226.47049886250002,57.0,87.0
959,225.94490825000003,226.4783728791667,60.0,83.0
960,225.94490825000003,226.48624689583335,64.0,77.0
961,225.94490825000003,227.04333357500002,45.0,62.0
962,226.65356975000003,227.09254617916667,52.0,72.0
963,226.88979025000003,227.12994775833334,66.0,84.0
964,226.88979025000003,227.1516013041667,57.0,92.0
965,226.88979025000003,227.15750681666668,62.0,77.0
966,226.88979025000003,227.18309737083337,69.0,95.0
967,227.36223125,227.5748297,50.0,65.0
968,227.83467225,228.3799479041667,55.0,87.0
969,227.83467225,228.40553845833335,67.0,80.0
970,227.83467225,228.43900302916668,62.0,88.0
971,228.54333375000002,228.82286134166668,55.0,75.0
972,227.83467225,228.99412120416667,43.0,54.0
973,228.77955425000002,229.04923932083335,58.0,110.0
974,228.77955425000002,229.17719209166668,67.0,102.0
975,228.77955425000002,229.31892439166668,62.0,91.0
976,227.83467225,229.38979054166668,50.0,34.0
977,229.25199525000002,229.41144408750003,55.0,64.0
978,229.48821575000002,229.53939685833336,43.0,69.0
979,229.72443625000002,230.185066225,60.0,81.0
980,229.72443625000002,230.19884575416668,67.0,84.0
981,229.72443625000002,230.20868827500001,48.0,72.0
982,229.72443625000002,230.20868827500001,64.0,77.0
983,230.43309775000003,230.6949088041667,48.0,84.0
984,230.66931825000003,230.72443636666668,69.0,58.0
985,230.66931825000003,230.9016017416667,67.0,83.0
986,230.66931825000003,230.9468773375,64.0,94.0
987,230.66931825000003,230.9547513541667,60.0,84.0
988,229.72443625000002,231.0177434875,36.0,81.0
989,230.66931825000003,231.0905781416667,55.0,104.0
990,231.14175925,231.28742855833335,36.0,81.0
991,230.90553875000003,231.29923958333336,48.0,94.0
992,231.14175925,231.39175927916668,60.0,100.0
993,231.61223174583336,232.0472711666667,69.0,77.0
994,231.61223174583336,232.14963338333337,62.0,76.0
995,231.61223174583336,232.17916094583336,65.0,77.0
996,232.08467274583336,232.65357045000002,58.0,78.0
997,231.61223174583336,232.72837360833336,46.0,69.0
998,232.55711374583336,233.0689248291667,69.0,88.0
999,232.55711374583336,233.14372798750003,62.0,86.0
1000,232.55711374583336,233.29333430416668,65.0,88.0
1001,233.02955474583337,233.53349181250002,46.0,71.0
1002,233.50199574583334,234.0905784916667,69.0,86.0
1003,233.50199574583334,234.09648400416668,60.0,84.0
1004,233.50199574583334,234.30908245416668,64.0,86.0
1005,233.50199574583334,234.34648403333335,45.0,78.0
1006,234.44687774583335,234.9941219041667,69.0,83.0
1007,234.44687774583335,235.0354604916667,65.0,87.0
1008,234.44687774583335,235.1122321541667,62.0,84.0
1009,234.44687774583335,235.39766525833335,50.0,72.0
1010,235.39175974583335,235.99609052500003,67.0,86.0
1011,235.39175974583335,236.05908265833335,58.0,81.0
1012,235.39175974583335,236.2736496125,62.0,84.0
1013,235.39175974583335,236.28939764583336,43.0,77.0
1014,236.33664174583336,236.90160244166668,48.0,73.0
1015,236.33664174583336,236.97837410416668,60.0,73.0
1016,236.33664174583336,237.12207490833336,67.0,72.0
1017,236.33664174583336,237.271681225,64.0,76.0
1018,237.28152374583337,237.88388602083336,69.0,88.0
1019,237.28152374583337,238.01971280833337,62.0,82.0
1020,237.75396474583334,238.8130199875,53.0,65.0
1021,238.22640574583335,238.91931921250003,69.0,88.0
1022,238.22640574583335,239.2165633416667,62.0,88.0
1023,238.93506724583335,239.5531775541667,58.0,78.0
1024,239.17128774583335,240.0295555625,65.0,73.0
1025,239.87994924583336,240.3445162291667,58.0,82.0
1026,240.11616974583336,240.44294143750002,62.0,88.0
1027,240.35239024583336,240.64766587083335,65.0,83.0
1028,240.58861074583336,240.88979188333334,69.0,71.0
1029,237.28152374583337,240.92719346250001,46.0,80.0
1030,241.06105174583337,241.7677447416667,67.0,78.0
1031,241.06105174583337,241.79530380000003,60.0,78.0
1032,241.76971324583334,242.10042194583335,52.0,38.0
1033,242.00593374583335,242.60435901250003,67.0,88.0
1034,241.06105174583337,242.82089447083337,45.0,76.0
1035,242.00593374583335,242.92128818333336,60.0,85.0
1036,242.95081574583335,243.53742998750002,50.0,79.0
1037,242.95081574583335,243.71262685833335,65.0,87.0
1038,242.95081574583335,243.73624890833335,57.0,83.0
1039,243.89569774583336,244.14963478333337,65.0,87.0
1040,243.89569774583336,244.15160328750002,57.0,102.0
1041,244.13191824583336,244.38585528333334,60.0,87.0
1042,244.36813874583336,244.5728631791667,62.0,89.0
1043,243.65947724583336,244.79727265416668,50.0,88.0
1044,244.60435924583336,245.56105227083336,65.0,78.0
1045,244.84057974583337,245.69491055416668,58.0,86.0
1046,244.84057974583337,245.90947750833337,55.0,74.0
1047,245.78546174583335,246.1850680916667,58.0,86.0
1048,245.78546174583335,246.26774526666668,65.0,88.0
1049,244.84057974583337,246.30514684583335,43.0,72.0
1050,246.25790274583335,246.7342807541667,55.0,81.0
1051,246.73034374583335,247.3012099541667,48.0,78.0
1052,246.73034374583335,247.43309973333336,67.0,79.0
1053,246.73034374583335,247.4488477666667,64.0,76.0
1054,246.73034374583335,247.52168242083334,60.0,83.0
1055,247.43900524583336,247.83861159166668,48.0,87.0
1056,247.67522574583336,248.1516037541667,67.0,94.0
1057,247.67522574583336,248.1791628125,60.0,98.0
1058,248.14766674583336,248.5649896291667,64.0,83.0
1059,248.62010774583337,249.04727315000002,67.0,64.0
1060,248.62010774583337,249.17128891250002,60.0,36.0
1061,249.56498974583334,250.16341501250002,67.0,80.0
1062,249.56498974583334,250.25199770000003,60.0,77.0
1063,249.56498974583334,250.32286385000003,64.0,79.0
1064,250.27365124583335,251.6299506166667,55.0,38.0
1065,248.62010774583337,251.68113172500003,48.0,74.0
1066,250.50987174583335,251.9311317541667,67.0,87.0
1067,250.50987174583335,251.97247034166668,60.0,83.0
1068,252.1791632791667,252.73034444583337,34.0,100.0
1069,252.40160425000002,252.75593500000002,46.0,95.0
1070,252.63782475000002,252.83073815833336,58.0,92.0
1071,252.87404525000002,253.00790353333335,58.0,85.0
1072,252.87404525000002,253.098454725,62.0,83.0
1073,252.87404525000002,253.11026575000002,65.0,84.0
1074,252.87404525000002,253.15160433750003,70.0,101.0
1075,253.93703750000003,254.24412415000003,67.0,102.0
1076,253.93703750000003,254.25002966250003,64.0,99.0
1077,253.80711622500002,254.3582973916667,60.0,100.0
1078,254.29136825000003,254.3582973916667,60.0,85.0
1079,254.04333672500002,254.3799509375,72.0,113.0
1080,253.570895725,254.4055414916667,48.0,110.0
1081,254.29136825000003,254.4055414916667,48.0,62.0
1082,253.35632877083336,254.42128952500002,36.0,109.0
1083,254.29136825000003,254.57286434583335,57.0,87.0
1084,254.29136825000003,254.59058088333336,65.0,80.0
1085,254.29136825000003,254.67719506666668,53.0,58.0
1086,254.76380925,254.91735257500002,57.0,50.0
1087,254.76380925,254.92719509583335,60.0,46.0
1088,254.76380925,254.93506911250003,65.0,40.0
1089,255.00002975,255.30514789583336,53.0,38.0
1090,254.29136825000003,255.73231330000002,41.0,58.0
1091,255.47247075,255.75199834166668,53.0,45.0
1092,255.23625025,255.77168338333337,65.0,96.0
1093,255.23625025,255.77562039166668,57.0,94.0
1094,255.23625025,255.81302197083335,60.0,92.0
1095,255.70869125000002,255.91538418750002,48.0,46.0
1096,255.94491175000002,255.99215585000002,41.0,68.0
1097,256.18113225,256.5610535541667,62.0,80.0
1098,256.18113225,256.5748330833334,65.0,76.0
1099,256.18113225,256.5846756041667,50.0,69.0
1100,256.18113225,256.5846756041667,57.0,80.0
1101,256.88979375,257.1220772416667,50.0,72.0
1102,256.18113225,257.31499065,38.0,77.0
1103,257.12601425,257.40947885,57.0,91.0
1104,257.59845525000003,257.65947887916667,38.0,75.0
1105,257.36223475,257.65947887916667,50.0,67.0
1106,257.12601425,257.65947887916667,65.0,90.0
1107,257.12601425,257.70672297916667,62.0,90.0
1108,257.83467575000003,257.90357339583335,57.0,53.0
1109,258.07089625000003,258.55317977083337,43.0,63.0
1110,258.07089625000003,258.5630222916667,65.0,68.0
1111,258.07089625000003,258.5748333166667,58.0,69.0
1112,258.07089625000003,258.5807388291667,62.0,68.0
1113,258.07089625000003,258.58270733333336,55.0,67.0
1114,258.77955775000004,259.0649908541667,43.0,69.0
1115,258.07089625000003,259.240187725,31.0,68.0
1116,259.01577825000004,259.51380980416667,67.0,92.0
1117,259.01577825000004,259.523652325,58.0,90.0
1118,259.48821925000004,259.5295578375,31.0,83.0
1119,259.01577825000004,259.53940035833335,55.0,102.0
1120,259.25199875000004,259.5846759541667,43.0,63.0
1121,259.01577825000004,259.5886129625,62.0,72.0
1122,259.96066025000005,260.4508177875,48.0,53.0
1123,259.96066025000005,260.48428235833336,60.0,63.0
1124,259.96066025000005,260.4980618875,64.0,72.0
1125,259.96066025000005,260.55711701250004,55.0,71.0
1126,260.66932175,260.9665658791667,48.0,80.0
1127,259.96066025000005,261.1555422791667,36.0,56.0
1128,260.90554225,261.41932183750004,55.0,100.0
1129,261.14176275,261.4212903416667,48.0,80.0
1130,261.37798325,261.42325884583335,36.0,92.0
1131,260.90554225,261.4311328625,64.0,90.0
1132,260.90554225,261.4331013666667,60.0,90.0
1133,261.85042425,262.32089674583335,50.0,83.0
1134,261.85042425,262.41144793750004,62.0,94.0
1135,261.85042425,262.4390069958334,69.0,92.0
1136,261.85042425,262.4429440041667,65.0,87.0
1137,262.55908575,262.88979445,50.0,67.0
1138,261.85042425,263.03743226250003,38.0,85.0
1139,262.79530625,263.23625118333337,62.0,97.0
1140,263.03152675,263.28349528333337,50.0,53.0
1141,262.79530625,263.30711733333334,65.0,99.0
1142,263.26774725,263.3228653666667,38.0,65.0
1143,262.79530625,263.32483387083334,69.0,95.0
1144,263.74018825,264.13979459583334,52.0,67.0
1145,263.74018825,264.25199933333334,69.0,87.0
1146,263.74018825,264.26577886250004,57.0,87.0
1147,263.74018825,264.27365287916666,60.0,83.0
1148,263.74018825,264.28152689583334,64.0,77.0
1149,263.74018825,264.838613575,45.0,62.0
1150,264.44884975,264.88782617916667,52.0,72.0
1151,264.68507025,264.92522775833334,66.0,84.0
1152,264.68507025,264.9468813041667,57.0,92.0
1153,264.68507025,264.9527868166667,62.0,77.0
1154,264.68507025,264.97837737083336,69.0,95.0
1155,265.15751125,265.3701097,50.0,65.0
1156,265.62995225000003,266.1752279041667,55.0,87.0
1157,265.62995225000003,266.20081845833334,67.0,80.0
1158,265.62995225000003,266.2342830291667,62.0,88.0
1159,266.33861375000004,266.61814134166667,55.0,75.0
1160,265.62995225000003,266.78940120416667,43.0,54.0
1161,266.57483425000004,266.84451932083334,58.0,110.0
1162,266.57483425000004,266.9724720916667,67.0,102.0
1163,266.57483425000004,267.1142043916667,62.0,91.0
1164,265.62995225000003,267.1850705416667,50.0,34.0
1165,267.04727525000004,267.20672408750005,55.0,64.0
1166,267.28349575000004,267.33467685833335,43.0,69.0
1167,267.51971625000004,267.980346225,60.0,81.0
1168,267.51971625000004,267.9941257541667,67.0,84.0
1169,267.51971625000004,268.00396827500003,48.0,72.0
1170,267.51971625000004,268.00396827500003,64.0,77.0
1171,268.22837775000005,268.4901888041667,48.0,84.0
1172,268.46459825000005,268.51971636666667,69.0,58.0
1173,268.46459825000005,268.6968817416667,67.0,83.0
1174,268.46459825000005,268.74215733750003,64.0,94.0
1175,268.46459825000005,268.7500313541667,60.0,84.0
1176,267.51971625000004,268.8130234875,36.0,81.0
1177,268.46459825000005,268.8858581416667,55.0,104.0
1178,268.93703925,269.08270855833337,36.0,81.0
1179,268.70081875,269.09451958333335,48.0,94.0
1180,268.93703925,269.1870392791667,60.0,100.0
1181,269.40948025,269.69097634583335,57.0,87.0
1182,269.40948025,269.70869288333336,65.0,80.0
1183,269.40948025,269.728377925,60.0,85.0
1184,269.40948025,269.7953070666667,53.0,58.0
1185,269.88192125,270.03546457500005,57.0,50.0
1186,269.88192125,270.0453070958334,60.0,46.0
1187,269.88192125,270.0531811125,65.0,40.0
1188,270.11814175,270.4232598958334,53.0,38.0
1189,269.40948025,270.68703945416667,48.0,62.0
1190,269.40948025,270.85042530000004,41.0,58.0
1191,270.59058275,270.8701103416667,53.0,45.0
1192,270.35436225,270.88979538333336,65.0,96.0
1193,270.35436225,270.8937323916667,57.0,94.0
1194,270.35436225,270.93113397083334,60.0,92.0
1195,270.82680325,271.0334961875,48.0,46.0
1196,271.06302375,271.11026785,41.0,68.0
1197,271.29924425,271.6791655541667,62.0,80.0
1198,271.29924425,271.69294508333337,65.0,76.0
1199,271.29924425,271.7027876041667,50.0,69.0
1200,271.29924425,271.7027876041667,57.0,80.0
1201,272.00790575,272.2401892416667,50.0,72.0
1202,271.29924425,272.43310265,38.0,77.0
1203,272.24412625,272.52759085,57.0,91.0
1204,272.71656725,272.77759087916667,38.0,75.0
1205,272.48034675,272.77759087916667,50.0,67.0
1206,272.24412625,272.77759087916667,65.0,90.0
1207,272.24412625,272.82483497916667,62.0,90.0
1208,272.95278775,273.02168539583334,57.0,53.0
1209,273.18900825000003,273.67129177083336,43.0,63.0
1210,273.18900825000003,273.6811342916667,65.0,68.0
1211,273.18900825000003,273.6929453166667,58.0,69.0
1212,273.18900825000003,273.6988508291667,62.0,68.0
1213,273.18900825000003,273.70081933333336,55.0,67.0
1214,273.89766975000003,274.1831028541667,43.0,69.0
1215,273.18900825000003,274.35829972500005,31.0,68.0
1216,274.13389025000004,274.63192180416667,67.0,92.0
1217,274.13389025000004,274.641764325,58.0,90.0
1218,274.60633125000004,274.6476698375,31.0,83.0
1219,274.13389025000004,274.65751235833335,55.0,102.0
1220,274.37011075000004,274.7027879541667,43.0,63.0
1221,274.13389025000004,274.7067249625,62.0,72.0
1222,275.07877225000004,275.5689297875,48.0,53.0
1223,275.07877225000004,275.60239435833336,60.0,63.0
1224,275.07877225000004,275.6161738875,64.0,72.0
1225,275.07877225000004,275.67522901250004,55.0,71.0
1226,275.78743375000005,276.0846778791667,48.0,80.0
1227,275.07877225000004,276.2736542791667,36.0,56.0
1228,276.02365425000005,276.53743383750003,55.0,100.0
1229,276.25987475000005,276.5394023416667,48.0,80.0
1230,276.49609525,276.54137084583334,36.0,92.0
1231,276.02365425000005,276.5492448625,64.0,90.0
1232,276.02365425000005,276.5512133666667,60.0,90.0
1233,276.96853625,277.43900874583335,50.0,83.0
1234,276.96853625,277.52955993750004,62.0,94.0
1235,276.96853625,277.5571189958334,69.0,92.0
1236,276.96853625,277.5610560041667,65.0,87.0
1237,277.67719775,278.00790645,50.0,67.0
1238,276.96853625,278.15554426250003,38.0,85.0
1239,277.91341825,278.35436318333336,62.0,97.0
1240,278.14963875,278.40160728333336,50.0,53.0
1241,277.91341825,278.42522933333333,65.0,99.0
1242,278.38585925,278.4409773666667,38.0,65.0
1243,277.91341825,278.44294587083334,69.0,95.0
1244,278.85830025,279.25790659583333,52.0,67.0
1245,278.85830025,279.37011133333334,69.0,87.0
1246,278.85830025,279.38389086250004,57.0,87.0
1247,278.85830025,279.3917648791667,60.0,83.0
1248,278.85830025,279.39963889583333,64.0,77.0
1249,278.85830025,279.956725575,45.0,62.0
1250,279.56696175,280.0059381791667,52.0,72.0
1251,279.80318225,280.04333975833333,66.0,84.0
1252,279.80318225,280.0649933041667,57.0,92.0
1253,279.80318225,280.07089881666667,62.0,77.0
1254,279.80318225,280.09648937083335,69.0,95.0
1255,280.27562325,280.4882217,50.0,65.0
1256,280.74806425,281.2933399041667,55.0,87.0
1257,280.74806425,281.31893045833334,67.0,80.0
1258,280.74806425,281.3523950291667,62.0,88.0
1259,281.45672575000003,281.73625334166667,55.0,75.0
1260,280.74806425,281.9075132041667,43.0,54.0
1261,281.69294625000003,281.96263132083334,58.0,110.0
1262,281.69294625000003,282.0905840916667,67.0,102.0
1263,281.69294625000003,282.2323163916667,62.0,91.0
1264,280.74806425,282.3031825416667,50.0,34.0
1265,282.16538725000004,282.32483608750005,55.0,64.0
1266,282.40160775000004,282.45278885833335,43.0,69.0
1267,282.63782825000004,283.098458225,60.0,81.0
1268,282.63782825000004,283.1122377541667,67.0,84.0
1269,282.63782825000004,283.12208027500003,48.0,72.0
1270,282.63782825000004,283.12208027500003,64.0,77.0
1271,283.34648975000005,283.6083008041667,48.0,84.0
1272,283.58271025000005,283.63782836666667,69.0,58.0
1273,283.58271025000005,283.8149937416667,67.0,83.0
1274,283.58271025000005,283.86026933750003,64.0,94.0
1275,283.58271025000005,283.8681433541667,60.0,84.0
1276,282.63782825000004,283.9311354875,36.0,81.0
1277,283.58271025000005,284.0039701416667,55.0,104.0
1278,284.05515125000005,284.20082055833336,36.0,81.0
1279,283.81893075000005,284.21263158333335,48.0,94.0
1280,284.05515125000005,284.3051512791667,60.0,100.0
1281,284.29137175000005,284.4035764875,62.0,106.0
1282,284.52562374583334,284.9606631666667,69.0,77.0
1283,284.52562374583334,285.06302538333335,62.0,76.0
1284,284.52562374583334,285.09255294583335,65.0,77.0
1285,284.99806474583335,285.56696245,58.0,78.0
1286,284.52562374583334,285.64176560833334,46.0,69.0
1287,285.47050574583335,285.9823168291667,69.0,88.0
1288,285.47050574583335,286.0571199875,62.0,86.0
1289,285.47050574583335,286.2067263041667,65.0,88.0
1290,285.94294674583335,286.4468838125,46.0,71.0
1291,286.41538774583336,287.0039704916667,69.0,86.0
1292,286.41538774583336,287.0098760041667,60.0,84.0
1293,286.41538774583336,287.2224744541667,64.0,86.0
1294,286.41538774583336,287.25987603333334,45.0,78.0
1295,287.36026974583336,287.9075139041667,69.0,83.0
1296,287.36026974583336,287.9488524916667,65.0,87.0
1297,287.36026974583336,288.0256241541667,62.0,84.0
1298,287.36026974583336,288.31105725833334,50.0,72.0
1299,288.30515174583337,288.90948252500004,67.0,86.0
1300,288.30515174583337,288.97247465833334,58.0,81.0
1301,288.30515174583337,289.1870416125,62.0,84.0
1302,288.30515174583337,289.2027896458334,43.0,77.0
1303,289.2500337458334,289.81499444166667,48.0,73.0
1304,289.2500337458334,289.8917661041667,60.0,73.0
1305,289.2500337458334,290.0354669083334,67.0,72.0
1306,289.2500337458334,290.18507322500005,64.0,76.0
1307,290.1949157458334,292.16735692083336,58.0,81.0
1308,290.1949157458334,292.16735692083336,65.0,71.0
1309,290.1949157458334,292.1771994416667,62.0,71.0
1310,290.1949157458334,292.19294747500004,69.0,76.0
1311,290.1949157458334,292.20869550833334,46.0,77.0
1312,293.26578224583335,293.5433413333334,60.0,71.0
1313,293.50200274583335,293.70279017083334,65.0,84.0
1314,293.73822324583335,293.92129413333333,67.0,80.0
1315,293.97444374583336,294.8602706208334,60.0,77.0
1316,293.97444374583336,294.95279031666666,58.0,79.0
1317,293.97444374583336,295.0453100125,69.0,85.0
1318,293.97444374583336,295.14964073333334,65.0,78.0
1319,293.97444374583336,295.1831053041667,46.0,72.0
1320,296.5728692458334,296.66145193333335,60.0,92.0
1321,296.8090897458334,296.9311370041667,60.0,90.0
1322,297.0453102458334,297.13389293333336,62.0,93.0
1323,295.39176674583337,297.3799559541667,48.0,72.0
1324,297.2815307458334,297.5334992791667,65.0,108.0
1325,295.39176674583337,297.56302684166667,67.0,71.0
1326,295.39176674583337,297.62995598333333,64.0,82.0
1327,297.7539717458334,298.9272002291667,62.0,70.0
1328,297.7539717458334,299.00003488333334,69.0,76.0
1329,297.7539717458334,299.1673577375,50.0,73.0
1330,297.7539717458334,299.17326325000005,65.0,65.0
1331,299.87995624583334,300.05318461250005,65.0,88.0
1332,300.11617674583334,300.2854681041667,62.0,85.0
1333,300.35239724583334,300.53349962916667,65.0,87.0
1334,299.17129474583334,300.7460980791667,48.0,82.0
1335,299.17129474583334,300.8189327333334,67.0,78.0
1336,300.58861774583335,300.8189327333334,67.0,94.0
1337,299.17129474583334,300.9744445625,60.0,78.0
1338,299.17129474583334,301.2598776666667,64.0,80.0
1339,301.53349974583335,302.8012164291667,62.0,69.0
1340,301.53349974583335,302.8760195875,69.0,76.0
1341,301.53349974583335,302.92129518333337,46.0,70.0
1342,301.53349974583335,302.95869676250004,65.0,73.0
1343,301.53349974583335,302.9606652666667,58.0,75.0
1344,302.95082274583336,306.1673585541667,60.0,73.0
1345,302.95082274583336,306.21657115833335,64.0,77.0
1346,302.95082274583336,306.24609872083334,48.0,72.0
1347,302.95082274583336,306.27562628333334,67.0,76.0
1348,304.8405867458334,306.295311325,70.0,100.0
1349,306.49413024583333,307.9449178166667,69.0,79.0
1350,306.49413024583333,307.9567288416667,60.0,76.0
1351,306.49413024583333,307.99806742916667,65.0,72.0
1352,306.49413024583333,308.0098784541667,53.0,80.0
