,start,end,pitch,velocity
0,30.64450799375,31.046334327083333,61.0,60.0
1,31.005238452083333,31.490726822916663,63.0,58.0
2,31.47377768958333,31.84010786458333,61.0,59.0
3,31.810819164583332,32.260026731249994,73.0,60.0
4,32.22928904374999,34.090802331249996,70.0,54.0
5,34.425479427083324,34.604914737499996,68.0,46.0
6,34.67749531249999,34.85088224166666,68.0,51.0
7,34.949672468749995,35.75813942916666,68.0,55.0
8,35.70572012499999,35.98797791666666,70.0,56.0
9,35.98596178958333,36.437574256249995,68.0,56.0
10,36.42950974791666,38.239991868749996,66.0,54.0
11,38.80047519791666,39.09281362499999,66.0,60.0
12,39.08878137083333,39.49603904166666,68.0,58.0
13,39.492006787499996,39.89724833125,66.0,59.0
14,39.86499029791666,40.24603831666666,78.0,59.0
15,40.22587704583333,41.63313374999999,75.0,60.0
16,41.973859227083324,42.127084885416664,75.0,56.0
17,42.262165399999994,42.42950394791666,75.0,60.0
18,42.500068395833324,42.69966497708333,75.0,62.0
19,42.80450358541666,43.59885765624999,75.0,62.0
20,43.57063187708333,43.852889668749995,78.0,53.0
21,43.83272839791666,44.300469881249995,75.0,60.0
22,44.28232473749999,46.11095200208332,73.0,54.0
23,46.514177418749995,46.80248359166666,66.0,59.0
24,46.81256422708333,47.25611218541666,68.0,57.0
25,47.25006380416666,47.858934183333325,66.0,60.0
26,47.83070840416666,48.11498232291666,78.0,59.0
27,48.08474041666666,49.69965821041666,75.0,58.0
28,49.766190404166665,49.99602889166666,75.0,58.0
29,50.07264172083333,50.268206047916664,75.0,60.0
30,50.385141418749996,50.63917343124999,75.0,59.0
31,50.73796365833333,51.10489878749999,75.0,60.0
32,51.068608499999996,51.38715657916666,70.0,49.0
33,51.35489854583332,51.864978697916655,73.0,59.0
34,51.848849681249995,52.22586544583333,75.0,51.0
35,52.42344589999999,52.838768079166655,70.0,57.0
36,52.81860680833333,53.18554193749999,68.0,48.0
37,53.179493556249994,54.06658947291666,66.0,54.0
38,54.22989576666666,54.57868575208333,66.0,63.0
39,54.576669624999994,54.95166926249999,68.0,55.0
40,54.929491864583326,55.26416896041666,70.0,51.0
41,55.26618508749999,56.33271631458332,63.0,54.0
42,56.431506541666664,56.69763531666666,66.0,58.0
43,56.64924826666666,56.93957056666666,68.0,53.0
44,56.85892548333332,57.157312291666656,70.0,52.0
45,57.12707038541666,57.68956984166666,63.0,58.0
46,58.07061786041666,58.451665879166654,70.0,59.0
47,58.435536862499994,59.02424597083333,68.0,53.0
48,59.000052445833326,59.45569716666666,66.0,55.0
49,59.423439133333325,61.43351783541666,68.0,52.0
50,61.77021105833333,61.953678622916655,61.0,59.0
51,62.02625919791666,62.44964588541666,61.0,59.0
52,62.44359750416666,62.69964564374999,63.0,56.0
53,62.687548881249995,63.31456440416666,61.0,59.0
54,63.26617735416666,63.60287057708332,73.0,59.0
55,63.56456416249999,65.24601415,70.0,58.0
56,65.51819130625,65.71375563333334,68.0,47.0
57,65.78835233541666,66.06052949166666,68.0,58.0
58,66.13311006666666,66.57262577083333,68.0,58.0
59,66.54036773749999,66.84480292708332,70.0,54.0
60,66.82665778333333,67.28230250416667,68.0,53.0
61,67.26415736041666,69.15931681875,66.0,54.0
62,69.65931633541666,70.04036435416666,66.0,62.0
63,70.01415470208332,70.50205745624999,68.0,58.0
64,70.49600907499999,71.15125037708333,66.0,62.0
65,71.09479881875,71.40729851666666,78.0,58.0
66,71.37504048333332,72.55850708124999,75.0,60.0
67,72.86092614374999,72.99600665833333,75.0,59.0
68,73.09278075833333,73.24399028958332,75.0,61.0
69,73.32866762708332,73.48995779375,75.0,64.0
70,73.60084478333332,73.98390892916666,75.0,65.0
71,74.09882817291665,74.37100532916665,75.0,60.0
72,74.34277954999999,74.64318248541666,78.0,59.0
73,74.64721473958332,75.09681107916666,75.0,61.0
74,75.09681107916666,76.93753510624998,73.0,52.0
75,77.44963138541667,77.83672778541666,66.0,59.0
76,77.81455038749999,78.19156615208333,68.0,58.0
77,78.18551777083333,78.77624300624998,66.0,59.0
78,78.73592046458333,79.05043628958333,78.0,59.0
79,79.04640403541666,80.15124167708333,75.0,60.0
80,80.50809617083333,80.66535408333333,75.0,58.0
81,80.75809592916666,80.90930546041666,75.0,59.0
82,81.00406343333333,81.16938585416665,75.0,59.0
83,81.29035347916667,81.44156301041666,75.0,59.0
84,81.52422422083333,81.67140149791666,75.0,60.0
85,81.78027236041666,81.97382056041666,75.0,59.0
86,82.01615922916666,82.22785257291666,70.0,54.0
87,82.28228800416666,82.73994885208333,73.0,58.0
88,82.71373919999999,83.48591587291665,75.0,59.0
89,83.48188361874999,83.82865747708333,70.0,59.0
90,83.83067360416666,84.16938295416665,68.0,51.0
91,84.17139908125,84.89720483125,66.0,58.0
92,85.17744649583332,85.53430098958333,66.0,59.0
93,85.50204295625,85.86897808541666,68.0,54.0
94,85.84881681458333,86.15728425833333,70.0,52.0
95,86.16736489374999,86.97784798125,63.0,57.0
96,87.08268658958332,87.46373460833333,66.0,56.0
97,87.42341206666666,87.80849233958332,68.0,55.0
98,87.72986338333332,88.07462111458332,70.0,58.0
99,88.06857273333333,88.87300743958332,62.0,58.0
100,89.05445887708333,89.57058741041666,70.0,56.0
101,89.53832937708333,89.87300647291666,68.0,50.0
102,89.83066780416667,90.18349004375,66.0,50.0
103,90.26010287291666,92.45253088541665,66.0,53.0
104,92.84707548333331,93.31187510416666,78.0,58.0
105,93.30968212499998,93.91048064583332,77.0,62.0
106,93.89499394791665,94.1616319958333,75.0,62.0
107,94.1616319958333,94.33707032916664,73.0,58.0
108,94.4366659020833,94.70378766041664,73.0,54.0
109,94.70378766041664,94.95422038749997,70.0,44.0
110,94.96476890833331,95.11666760833332,73.0,59.0
111,95.22382662499997,95.34985961458331,73.0,59.0
112,95.45523145833332,95.63022458749998,73.0,64.0
113,95.68145406666665,95.93760146249997,70.0,59.0
114,95.93760146249997,96.3966175958333,73.0,63.0
115,96.38432252083331,96.68145349999998,75.0,58.0
116,96.68145349999998,97.1835023958333,73.0,59.0
117,97.3127031458333,97.70645314583331,78.0,59.0
118,97.69603647916664,98.0064531458333,77.0,58.0
119,97.99603647916663,98.22936981249997,75.0,64.0
120,98.22728647916664,98.3752031458333,73.0,52.0
121,98.47359242499996,98.66056696249997,73.0,57.0
122,98.69628119999997,98.92527248749997,70.0,56.0
123,98.94628086249996,99.15636461249997,73.0,50.0
124,99.30972574999997,99.64375891249996,73.0,59.0
125,99.75510329999997,99.98619542499996,70.0,54.0
126,100.00930463749997,100.39375789999997,75.0,58.0
127,100.46938804999996,100.68577431249997,70.0,60.0
128,100.71728687499997,101.01140412499997,68.0,58.0
129,100.98409323749996,101.30342053749997,66.0,44.0
130,101.46518502499997,101.68577296249997,66.0,59.0
131,101.73199138749997,101.95468016249997,68.0,56.0
132,102.01560444999997,102.28661248749997,70.0,59.0
133,102.33283091249997,102.61434313749997,68.0,59.0
134,102.65635988749997,102.86434279999997,66.0,54.0
135,102.94837629999996,103.25089689999997,66.0,58.0
136,103.46938399999996,103.71938366249996,66.0,59.0
137,103.72988784999997,103.96518164999996,75.0,62.0
138,103.96518164999996,104.14795451249996,73.0,59.0
139,104.18997126249997,104.40635752499996,70.0,58.0
140,104.43576924999996,104.69627309999997,68.0,56.0
141,104.66896221249996,105.28450759999997,66.0,53.0
142,105.44417124999997,105.71097761249997,66.0,56.0
143,105.67946504999996,105.86433874999997,68.0,57.0
144,105.95467476249996,106.16265767499996,70.0,59.0
145,106.16265767499996,106.30971629999996,68.0,52.0
146,106.41265733749997,106.63324527499996,68.0,58.0
147,106.66475783749996,106.82232064999997,66.0,58.0
148,106.94206838749997,107.24879066249997,66.0,59.0
149,107.26979903749996,107.40215179999997,63.0,62.0
150,107.47988278749997,107.66685732499997,63.0,59.0
151,107.72988244999996,107.91265531249996,66.0,59.0
152,108.04290723749997,108.45887306249998,75.0,69.0
153,108.49878897499997,108.72357858749997,77.0,58.0
154,108.74458696249997,109.17105697499997,73.0,60.0
155,109.25929214999996,109.75088812499997,78.0,59.0
156,109.77609817499997,110.07021542499997,77.0,62.0
157,110.18996316249996,110.40424858749996,75.0,62.0
158,110.42525696249997,110.57651726249998,73.0,51.0
159,110.66895411249996,110.85592864999997,73.0,56.0
160,110.88744121249997,111.08491993749996,70.0,59.0
161,111.14794506249997,111.30550787499996,73.0,59.0
162,111.38533969999997,111.53659999999996,73.0,54.0
163,111.63744019999997,111.84122143749997,73.0,59.0
164,111.88113734999997,112.07861607499997,70.0,58.0
165,112.13954036249997,112.44836347499997,73.0,60.0
166,112.50718692499997,112.85172427499997,75.0,62.0
167,112.90844688749996,113.40424453749996,73.0,59.0
168,113.49878222499997,113.77609277499997,78.0,61.0
169,113.88953799999997,114.06390751249997,80.0,65.0
170,114.18365524999997,114.34541973749997,77.0,69.0
171,114.41894904999997,114.54499929999997,73.0,62.0
172,114.65634368749997,114.81390649999997,73.0,62.0
173,114.88743581249997,115.04920029999997,70.0,59.0
174,115.15844384999997,115.48617449999998,73.0,54.0
175,115.58281302499996,115.87903111249997,75.0,62.0
176,115.95466126249997,116.14163579999996,78.0,60.0
177,116.23617348749997,116.64373596249996,80.0,60.0
178,116.67945019999996,116.89793729999997,75.0,62.0
179,116.93365153749997,117.47776844999997,78.0,60.0
180,117.67314633749997,117.82440663749998,78.0,59.0
181,117.91054097499998,118.06810378749996,80.0,65.0
182,118.18785152499997,118.43785118749997,82.0,61.0
183,118.53659054999997,118.75087597499997,80.0,54.0
184,118.86852287499997,119.04709406249997,78.0,60.0
185,119.15213593749996,119.50717747499996,75.0,65.0
186,119.65003442499997,119.81179891249997,78.0,59.0
187,119.90003408749996,120.05339522499997,80.0,59.0
188,120.15213458749997,120.47356272499997,77.0,60.0
189,120.53658784999996,120.82230174999997,73.0,59.0
190,120.90633524999997,121.09961229999996,70.0,60.0
191,121.20465417499997,121.55969571249997,78.0,59.0
192,121.69835098749996,121.82650207499996,73.0,65.0
193,121.94414897499996,122.08700592499997,75.0,65.0
194,122.18784612499996,122.37271982499996,78.0,63.0
195,122.42103908749996,122.53448431249997,75.0,63.0
196,122.64372786249997,122.80129067499996,75.0,65.0
197,122.87061831249997,123.03868531249996,73.0,59.0
198,123.13952551249997,123.34120591249997,75.0,69.0
199,123.43154192499998,124.07229736249997,78.0,64.0
200,124.19414593749997,124.66263269999996,82.0,59.0
201,124.67313688749996,125.20044709999996,80.0,62.0
202,125.22145547499997,125.46935429999996,78.0,60.0
203,125.57439617499998,125.91473184999997,78.0,58.0
204,125.91263101249997,126.34750437499997,80.0,59.0
205,126.33910102499996,130.41472577499997,78.0,60.0
206,152.74032588749998,153.04284648749996,61.0,58.0
207,153.00713224999998,153.04284648749996,61.0,59.0
208,153.41679556249997,153.76133291249997,63.0,58.0
209,153.75082872499996,154.10587026249996,61.0,58.0
210,154.07015602499996,154.52183608749996,73.0,58.0
211,154.61007126249996,155.944103075,70.0,58.0
212,156.61427023749997,156.81595063749998,68.0,53.0
213,156.91258916249996,157.20460557499996,68.0,56.0
214,157.29284074999998,157.5596471125,68.0,58.0
215,157.59115967499997,157.83695766249997,70.0,57.0
216,157.86847022499995,158.31384777499997,68.0,53.0
217,158.30124274999997,160.22771073749996,66.0,58.0
218,160.75712178749995,161.01342396249999,66.0,65.0
219,161.11636499999997,161.40838141249998,68.0,65.0
220,161.45459983749998,161.74871708749998,66.0,64.0
221,161.77812881249997,162.26552311249998,78.0,67.0
222,162.22770803749998,163.6058574375,75.0,60.0
223,163.86636128749996,164.01341991249996,75.0,64.0
224,164.11215927499995,164.30123464999997,75.0,64.0
225,164.32644469999997,164.52182258749997,73.0,59.0
226,164.60585608749997,164.90627585,75.0,65.0
227,164.99451102499995,165.26551906249998,75.0,63.0
228,165.31803999999997,165.57854384999996,78.0,61.0
229,165.616358925,166.06173647499998,75.0,65.0
230,166.06593814999997,167.5974486875,73.0,58.0
231,168.47349792499998,168.80753108749997,66.0,58.0
232,168.81803527499997,169.15837094999998,68.0,59.0
233,169.16887513749998,169.81173141249997,66.0,62.0
234,169.78231968749998,170.10584866249997,78.0,59.0
235,170.07433609999998,171.42307377499998,75.0,60.0
236,171.67727511249996,171.78231698749997,75.0,57.0
237,171.87685467499998,171.99450157499996,75.0,60.0
238,172.08903926249997,172.24029956249996,75.0,60.0
239,172.34534143749997,172.62055114999998,75.0,64.0
240,172.70668548749995,172.98189519999997,75.0,63.0
241,173.02391194999996,173.255004075,70.0,59.0
242,173.33063422499998,173.75080172499997,73.0,59.0
243,173.81592768749996,174.5281116,75.0,60.0
244,174.56382583749996,174.969287475,70.0,59.0
245,174.93147239999996,175.21508546249999,68.0,54.0
246,175.21718629999998,176.01970622499996,66.0,56.0
247,176.2402941625,176.51760471249997,66.0,60.0
248,176.57642816249995,176.80962112499998,68.0,59.0
249,176.92936886249998,177.170965175,70.0,60.0
250,177.23188946249996,178.06592194999996,63.0,59.0
251,178.1268462375,178.46087939999995,66.0,58.0
252,178.4713835875,178.85583684999997,68.0,57.0
253,178.79911423749996,179.13734907499997,70.0,52.0
254,179.11213902499998,179.94617151249997,62.0,57.0
255,180.13314604999997,180.6016328125,70.0,59.0
256,180.60583448749998,181.08272459999998,68.0,59.0
257,181.05751454999995,181.37474101249995,66.0,57.0
258,181.3579343125,182.0932274375,68.0,50.0
259,182.07221906249998,183.86213261249998,66.0,58.0
260,183.9797795125,184.43356041249996,78.0,64.0
261,184.46087129999995,184.981879,77.0,64.0
262,184.97767732499997,185.21717279999996,75.0,64.0
263,185.19826526249997,185.34322304999998,73.0,58.0
264,185.45036576249998,185.66044951249995,73.0,58.0
265,185.68145788749996,185.89574331249997,70.0,57.0
266,185.9377600625,186.09322203749997,73.0,64.0
267,186.18355805,186.33481834999998,73.0,57.0
268,186.42305352499997,186.62053224999997,73.0,59.0
269,186.64154062499998,186.84112018749997,70.0,59.0
270,186.893641125,187.22767428749995,73.0,65.0
271,187.21296842499999,187.6037242,75.0,62.0
272,187.61632922499996,188.01128667499995,73.0,62.0
273,188.09532017499998,188.532294375,78.0,60.0
274,188.54910107499995,188.81590743749996,77.0,61.0
275,188.84111748749996,189.07641128749998,75.0,63.0
276,189.06590709999998,189.21506656249997,73.0,56.0
277,189.32431011249997,189.51758716249998,73.0,60.0
278,189.54909972499996,189.74867928749995,70.0,57.0
279,189.8054019,190.09741831249997,73.0,64.0
280,190.17094762499997,190.41674561249997,73.0,59.0
281,190.565905075,190.79279552499997,70.0,59.0
282,190.82640892499995,191.17094627499998,73.0,62.0
283,191.27598815,191.51128194999995,70.0,58.0
284,191.5217861375,191.73817239999997,68.0,53.0
285,191.76968496249998,192.16464241249997,66.0,57.0
286,192.305398525,192.51548227499995,66.0,62.0
287,192.53018813749998,192.7948936625,68.0,53.0
288,192.78649031249998,193.27388461249996,70.0,60.0
289,193.26338042499998,193.52598511249997,68.0,59.0
290,193.50917841249998,193.69615294999997,66.0,54.0
291,193.78858979999995,194.16674055,66.0,62.0
292,194.27808493749995,194.41253853749998,66.0,60.0
293,194.507076225,194.6562356875,75.0,59.0
294,194.75077337499997,195.01127722499996,73.0,62.0
295,194.99447052499997,195.18774757499997,70.0,58.0
296,195.2675794,195.46925979999997,68.0,54.0
297,195.51127655,195.99657001249997,66.0,60.0
298,196.23396464999996,196.3915274625,66.0,57.0
299,196.46925844999998,196.62682126249996,68.0,59.0
300,196.72556062499996,196.92934186249997,70.0,59.0
301,196.94404772499996,197.08480383749998,68.0,43.0
302,197.18354319999997,197.38732443749996,68.0,54.0
303,197.43354286249996,197.60581153749996,66.0,60.0
304,197.70034922499997,197.88102124999997,66.0,60.0
305,197.93354218749997,198.10160918749997,63.0,60.0
306,198.2066510625,198.39362559999998,63.0,62.0
307,198.45665072499997,198.63732274999995,66.0,61.0
308,198.742364625,199.10160783749996,75.0,63.0
309,199.20034719999995,199.39782592499998,77.0,60.0
310,199.46715356249996,199.90412776249997,73.0,59.0
311,199.98816126249997,200.3600095,78.0,62.0
312,200.39572373749996,200.62471502499997,77.0,63.0
313,200.64992507499997,200.88101719999997,75.0,64.0
314,200.89152138749998,201.02807582499997,73.0,61.0
315,201.14572272499998,201.3873190375,73.0,60.0
316,201.39362154999998,201.5847977625,70.0,55.0
317,201.65412539999997,201.79067983749997,73.0,62.0
318,201.88731836249997,202.01967112499997,73.0,54.0
319,202.14362053749997,202.31588921249997,73.0,59.0
320,202.37261182499998,202.54908217499997,70.0,59.0
321,202.63101483749998,202.90622455,73.0,61.0
322,202.94824129999998,203.22975352499998,75.0,60.0
323,203.33899707499995,203.64782018749997,73.0,61.0
324,203.86630728749998,204.229752175,78.0,62.0
325,204.32849153749999,204.4965585375,80.0,64.0
326,204.58059203749997,204.79487746249998,77.0,62.0
327,204.82008751249998,204.95664194999998,73.0,58.0
328,205.05748214999997,205.24235584999997,73.0,61.0
329,205.305380975,205.48815383749996,70.0,53.0
330,205.56798566249998,205.83899369999997,73.0,61.0
331,205.93353138749995,206.22974947499998,75.0,65.0
332,206.27176622499996,206.48605164999998,78.0,58.0
333,206.56798431249996,207.05117693749997,80.0,58.0
334,207.070084475,207.28436989999997,75.0,61.0
335,207.30957994999997,207.68352902499998,78.0,60.0
336,208.01336051249996,208.16882248749997,78.0,60.0
337,208.2444526375,208.45033471249997,80.0,61.0
338,208.51756151249998,208.81167876249998,82.0,60.0
339,208.87890556249997,209.16041778749997,80.0,55.0
340,209.22134207499997,209.48394676249995,78.0,63.0
341,209.51966099999999,209.89361007499997,75.0,69.0
342,209.99445027499996,210.22974407499999,78.0,62.0
343,210.22974407499999,210.423021125,80.0,58.0
344,210.50705462499997,210.96503719999998,77.0,69.0
345,210.99444892499997,211.29276784999996,73.0,62.0
346,211.27596114999997,211.54066667499995,70.0,60.0
347,211.56167504999996,211.9167165875,78.0,60.0
348,211.96083417499997,212.08058191249998,73.0,61.0
349,212.18982546249998,212.38940502499997,75.0,69.0
350,212.46923684999996,212.67091724999997,78.0,64.0
351,212.69192562499995,212.82848006249998,75.0,65.0
352,212.94822779999998,213.12679898749997,75.0,65.0
353,213.17301741249997,213.3620927875,73.0,58.0
354,213.44612628749996,213.68772259999997,75.0,65.0
355,213.76125191249997,214.26125123749998,78.0,63.0
356,214.49024252499999,214.96083012499997,82.0,53.0
357,214.95662844999998,215.20032559999999,80.0,58.0
358,215.18141806249997,215.3704934375,78.0,53.0
359,215.43141772499996,215.69192157499998,78.0,58.0
360,215.78225758749997,216.0301564125,78.0,60.0
361,216.09108069999996,216.62679426249997,80.0,59.0
362,216.63099593749996,219.27595034999996,78.0,59.0
363,219.61838686249996,220.41040259999997,79.0,64.0
364,220.37468836249997,221.18351079999997,78.0,63.0
365,221.14359488749997,221.35998114999995,76.0,65.0
366,221.36418282499997,221.51124144999997,74.0,65.0
367,221.60367829999996,221.76964446249997,74.0,60.0
368,221.809560375,222.01544244999997,71.0,59.0
369,222.05745919999998,222.21502201249996,74.0,72.0
370,222.29275299999998,222.42720659999998,74.0,69.0
371,222.53855098749997,222.70871882499998,74.0,62.0
372,222.75283641249996,222.95241597499998,71.0,59.0
373,222.99443272499997,223.22132317499998,74.0,74.0
374,223.2780457875,223.70451579999997,76.0,59.0
375,223.78434762499998,224.19821261249996,74.0,62.0
376,224.32426286249998,224.70451444999998,79.0,59.0
377,224.78644711249996,225.0637576625,78.0,60.0
378,225.09947189999997,225.31375732499998,76.0,60.0
379,225.3347657,225.48812683749998,74.0,60.0
380,225.59737038749998,225.74442901249998,74.0,63.0
381,225.83266418749997,226.019638725,71.0,58.0
382,226.09106719999997,226.24863001249997,74.0,65.0
383,226.47131878749997,226.73392347499998,74.0,60.0
384,226.84526786249995,227.05955328749997,71.0,59.0
385,227.11207422499996,227.54274591249998,76.0,65.0
386,227.56585512499998,227.79064473749997,71.0,59.0
387,227.79064473749997,228.06585444999996,69.0,59.0
388,228.07215696249995,228.43770268749995,67.0,54.0
389,228.5931646625,228.80324841249995,67.0,60.0
390,228.834760975,229.04064304999997,69.0,59.0
391,229.11417236249997,229.53644069999996,71.0,60.0
392,229.59946582499998,229.817952925,69.0,60.0
393,229.859969675,230.05324672499995,67.0,56.0
394,230.13307855,230.43139747499998,67.0,56.0
395,230.5721535875,230.75072477499998,67.0,59.0
396,230.82425408749998,231.00702694999995,76.0,61.0
397,231.0889596125,231.29904336249996,74.0,65.0
398,231.3347576,231.51122794999998,71.0,58.0
399,231.574253075,231.74021923749996,69.0,60.0
400,231.83475692499997,232.27383196249997,67.0,61.0
401,232.54273916249997,232.700301975,67.0,60.0
402,232.76332709999997,232.94189828749995,69.0,59.0
403,233.02593178749999,233.24862056249998,71.0,59.0
404,233.2444188875,233.38097332499996,69.0,58.0
405,233.50702357499995,233.68769559999998,69.0,59.0
406,233.7570232375,233.88307348749998,67.0,60.0
407,233.99861955,234.11836728749995,67.0,60.0
408,234.22971167499998,234.37256862499999,64.0,64.0
409,234.490215525,234.64357666249998,64.0,64.0
410,234.72550932499996,234.8830721375,67.0,60.0
411,235.00912238749999,235.39147481249995,76.0,62.0
412,235.51332338749995,235.71920546249999,78.0,60.0
413,235.78012974999996,236.14567547499996,74.0,65.0
414,236.24861651249995,236.58475051249997,79.0,64.0
415,236.67088485,236.89987613749997,78.0,61.0
416,236.94819539999997,237.16668249999998,76.0,62.0
417,237.187690875,237.3347495,74.0,59.0
418,237.44399304999996,237.59525334999995,74.0,62.0
419,237.70449689999998,237.88096724999997,71.0,54.0
420,237.96289991249995,238.1414711,74.0,65.0
421,238.22550459999997,238.47340342499996,74.0,63.0
422,238.47340342499996,238.72130224999995,74.0,63.0
423,238.66457963749997,238.84104998749996,71.0,59.0
424,238.91878097499995,239.0973521625,74.0,72.0
425,239.17718398749997,239.54483054999997,76.0,62.0
426,239.64777158749996,240.01331731249996,74.0,75.0
427,240.16247677499996,240.57003924999998,79.0,61.0
428,240.65407274999995,240.82844226249995,81.0,59.0
429,240.91667743749997,241.09524862499995,78.0,62.0
430,241.16247542499997,241.28852567499996,74.0,65.0
431,241.422979275,241.565836225,74.0,69.0
432,241.65827307499995,241.809533375,71.0,63.0
433,241.885163525,242.16667574999997,74.0,67.0
434,242.23810422499997,242.448187975,76.0,64.0
435,242.56583487499995,242.77171694999998,79.0,60.0
436,242.87465798749997,243.32213637499996,81.0,60.0
437,243.35995144999998,243.5763377125,76.0,62.0
438,243.6204553,244.141463,79.0,59.0
439,244.3368408875,244.48810118749998,79.0,62.0
440,244.5805380375,244.76961341249995,81.0,59.0
441,244.86835277499995,245.29692362499998,83.0,59.0
442,245.35994875,245.56162915,81.0,53.0
443,245.6099484125,245.8536455625,79.0,57.0
444,245.88095644999999,246.22969547499997,76.0,56.0
445,246.3662499125,246.54272026249998,79.0,58.0
446,246.62255208749997,246.84524086249996,81.0,59.0
447,246.95028273749995,247.3914586125,78.0,62.0
448,247.42717284999998,247.61204655,74.0,58.0
449,247.76960936249998,247.98179395,71.0,61.0
450,248.04481907499996,250.57212658749995,79.0,55.0
451,251.15195773749997,251.3368314375,74.0,65.0
452,251.40195739999996,251.62044449999996,76.0,58.0
453,251.73599056249998,251.95657849999998,79.0,58.0
454,252.03851116249996,252.24859491249998,76.0,59.0
455,252.389351025,252.63094733749995,76.0,59.0
456,252.67926659999995,252.89985453749995,74.0,59.0
457,253.00699724999998,253.31582036249995,76.0,55.0
458,253.39985386249998,253.8872481625,79.0,58.0
459,254.50489438749997,255.07842302499995,83.0,52.0
460,255.07842302499995,255.51119554999997,81.0,53.0
461,255.48388466249997,255.92295969999998,79.0,56.0
462,256.07421999999997,256.6309419375,79.0,49.0
463,256.69396706249995,258.0763181375,81.0,59.0
464,258.03640222499996,261.481775725,79.0,55.0
