,start,end,pitch,velocity
0,1.6088694124999998,2.1209656916666666,56.0,52.0
1,1.1713698354166666,2.3326590354166665,49.0,43.0
2,2.06249800625,2.6411264791666667,58.0,52.0
3,2.55846526875,3.546367539583333,49.0,25.0
4,3.0020132270833333,3.5685449375,54.0,47.0
5,2.995964845833333,3.6572545291666665,61.0,52.0
6,0.7520154020833333,3.703625452083333,42.0,55.0
7,4.5362859375,5.572575258333333,61.0,47.0
8,5.540317225,5.604833291666666,58.0,31.0
9,4.552414954166666,5.889107210416666,65.0,54.0
10,5.030237072916666,7.441525064583333,53.0,40.0
11,4.556447208333333,7.520154020833333,46.0,58.0
12,6.0362844875,7.5403152916666665,61.0,52.0
13,5.526204335416667,7.552412054166666,56.0,42.0
14,8.098782493749999,8.314508091666665,54.0,31.0
15,8.137088908333332,8.7701528125,59.0,42.0
16,8.2378952625,9.020152570833332,63.0,53.0
17,8.747975414583333,11.806440199999999,54.0,39.0
18,8.211685610416666,11.895149791666666,47.0,49.0
19,9.1814427375,11.901198172916667,59.0,42.0
20,9.6411197125,11.917327189583332,66.0,48.0
21,11.987891637499999,12.497971789583334,54.0,45.0
22,12.054423831249998,12.82256825,59.0,45.0
23,12.102810881249999,13.036277720833333,62.0,46.0
24,12.18748821875,13.167325981249999,66.0,48.0
25,12.606842652083333,13.542325618749999,54.0,51.0
26,13.1249873125,15.129017633333332,59.0,48.0
27,13.586680414583332,15.179420810416666,62.0,67.0
28,12.104827008333332,15.241920749999998,47.0,58.0
29,14.096760566666665,15.243936877083332,66.0,37.0
30,16.056436091666665,16.631032310416664,58.0,48.0
31,15.955629737499999,16.90522559375,61.0,48.0
32,15.887081416666666,17.09877379375,65.0,53.0
33,17.014096456249998,17.393128347916665,56.0,65.0
34,17.489902447916666,17.719740935416667,61.0,62.0
35,18.001998727083333,18.67135291875,58.0,47.0
36,17.991918091666665,19.435465083333334,65.0,53.0
37,16.526193702083333,19.596755249999998,53.0,54.0
38,16.044339329166664,19.653206808333334,46.0,58.0
39,19.927400091666666,20.48788342083333,58.0,51.0
40,19.925383964583332,20.687480002083333,61.0,54.0
41,20.864899185416665,21.872962727083333,58.0,59.0
42,21.330624541666666,22.425381547916665,65.0,52.0
43,21.885059489583334,22.467720216666667,70.0,56.0
44,22.336671956249997,22.71368772083333,58.0,42.0
45,20.387077066666667,22.955622970833332,53.0,46.0
46,19.919335583333332,23.001993893749997,46.0,58.0
47,22.818526329166666,23.159251806249998,61.0,58.0
48,22.814494075,23.159251806249998,65.0,60.0
49,23.745944787499997,24.3265893875,57.0,49.0
50,23.87296079375,24.812476014583332,64.0,51.0
51,24.28021846458333,25.50602373125,52.0,46.0
52,24.772153472916667,26.28223265833333,57.0,63.0
53,25.239894956249998,26.780216047916664,69.0,54.0
54,26.221748845833332,26.78424830208333,64.0,46.0
55,25.751991235416664,26.826586970833333,52.0,38.0
56,26.71771610833333,26.858845004166664,57.0,61.0
57,23.850783395833332,26.86287725833333,45.0,65.0
58,27.66731196458333,27.929408485416666,37.0,56.0
59,27.578602372916666,28.692263533333332,61.0,53.0
60,27.687473235416665,28.9081222125,66.0,52.0
61,28.837637745833334,29.016051552083333,61.0,53.0
62,29.11517033333333,29.443595202083333,61.0,54.0
63,29.117372972916666,29.514371431249998,66.0,53.0
64,29.580581452083333,31.72922921458333,65.0,46.0
65,29.58743076458333,31.73132126458333,61.0,44.0
66,28.619576427083334,31.735505364583332,56.0,61.0
67,28.12671903958333,31.75642586458333,49.0,51.0
68,31.596658906249996,31.80035891458333,54.0,42.0
69,31.75433381458333,32.30854598958333,61.0,48.0
70,31.68948026458333,32.538384477083326,58.0,34.0
71,31.77734636458333,32.78435198125,66.0,58.0
72,32.78838423541666,33.52225449375,54.0,65.0
73,33.27225473541666,33.57265767083333,61.0,54.0
74,32.28233633749999,33.685560787499995,49.0,39.0
75,31.73341331458333,33.69564142291666,42.0,58.0
76,33.528302874999994,33.842818699999995,66.0,57.0
77,34.83475322499999,35.17144644791666,56.0,45.0
78,34.332737581249994,35.28434956458333,53.0,31.0
79,33.84886708124999,35.38918817291666,46.0,56.0
80,34.85491449583333,35.39120429999999,61.0,52.0
81,33.81056066666666,35.40128493541666,65.0,51.0
82,35.752091047916664,35.94563924791666,58.0,38.0
83,35.82870387708333,36.51418708541666,63.0,46.0
84,35.90934896041666,36.965799552083325,66.0,53.0
85,36.40531622291666,36.98192856874999,46.0,22.0
86,35.90330057916666,37.018218856249995,39.0,58.0
87,36.909347993749996,37.04039625416666,58.0,59.0
88,37.88515350208333,38.417411052083324,64.0,48.0
89,37.744024606249994,38.52224966041666,54.0,41.0
90,38.81458808749999,39.04241044791666,54.0,54.0
91,38.81458808749999,39.10289426041666,58.0,52.0
92,38.32466920624999,39.12910391249999,49.0,30.0
93,37.85087934166666,39.26015217291666,42.0,58.0
94,39.57668412499999,39.818619375,54.0,32.0
95,39.66539371666666,40.24603831666666,59.0,44.0
96,39.78031296041666,40.308538256249996,63.0,58.0
97,40.284344731249995,40.79442488333333,54.0,16.0
98,39.770232324999995,41.13313423333333,47.0,51.0
99,40.75208621458333,41.18958579166666,59.0,51.0
100,41.59684346249999,41.75006912083333,56.0,36.0
101,41.75611750208333,42.377084643749996,65.0,58.0
102,41.67547241874999,42.71781012083333,61.0,50.0
103,42.21176222291666,42.947648608333324,44.0,31.0
104,41.72789172291666,43.00006791249999,37.0,49.0
105,42.711761739583324,43.22587414583333,56.0,63.0
106,43.183535477083325,43.50611581041666,61.0,60.0
107,43.67345435833333,44.65329212083333,58.0,51.0
108,44.63716310416666,45.17546903541666,54.0,60.0
109,44.14119584166666,45.288372152083326,49.0,26.0
110,43.66740597708333,45.41337203124999,42.0,58.0
111,45.13716262083332,45.65530728124999,56.0,69.0
112,45.58474283333332,46.235951881249996,54.0,48.0
113,45.63917826458333,46.26014540624999,58.0,50.0
114,46.133129399999994,47.20772513541666,49.0,31.0
115,46.621032154166656,47.22788640624999,58.0,52.0
116,46.62304828124999,47.32466050624999,54.0,49.0
117,45.62708150208333,47.38716044583333,42.0,59.0
118,47.50812807083332,47.68151499999999,54.0,46.0
119,47.56457962916666,48.59280444166666,59.0,49.0
120,48.530304502083325,49.15127164374999,63.0,60.0
121,48.04038562083333,49.185545804166665,51.0,27.0
122,47.57062801041666,49.19159418541666,47.0,72.0
123,49.01014274791666,49.33473920833333,54.0,59.0
124,49.50207775624999,50.16739969374999,59.0,40.0
125,49.50006162916666,50.31860922499999,54.0,45.0
126,50.4879639,50.90933446041666,59.0,58.0
127,49.489980993749995,50.915382841666656,47.0,40.0
128,50.49199615416666,51.02425370416666,63.0,57.0
129,51.43554362916666,52.08473654999999,61.0,51.0
130,51.42546299374999,52.12505909166666,58.0,45.0
131,51.89522060416666,52.61497797291666,53.0,42.0
132,52.377074977083325,52.73594559791666,61.0,51.0
133,51.44562426458333,52.73997785208333,46.0,59.0
134,52.39723624791666,52.760139122916655,58.0,44.0
135,52.38513948541666,52.76215524999999,65.0,57.0
136,53.23594511458333,53.401267535416665,58.0,39.0
137,53.31054181666666,53.877073527083326,63.0,50.0
138,53.38513851875,54.324653739583326,66.0,53.0
139,53.838767112499994,54.51416968541666,46.0,34.0
140,53.36900950208333,54.59481476875,39.0,57.0
141,54.338766629166656,54.65731470833333,58.0,52.0
142,54.34481501041666,54.76820169791666,65.0,59.0
143,55.18957225833333,55.3871527125,56.0,43.0
144,55.246023816666664,55.879087720833326,59.0,47.0
145,55.31860439166666,56.32465180624999,63.0,54.0
146,56.26416799374999,56.66537728333333,59.0,65.0
147,55.74803946041666,56.74803849374999,51.0,29.0
148,55.298443120833326,56.947635074999994,44.0,58.0
149,57.17545743541666,57.37303788958333,56.0,41.0
150,57.32061858541666,58.04440820833332,66.0,47.0
151,57.21376384999999,58.24400478958333,60.0,48.0
152,57.25610251875,58.24400478958333,63.0,49.0
153,57.74198914583333,58.40126270208333,51.0,43.0
154,57.26819928124999,58.57263350416666,44.0,58.0
155,58.21779513749999,58.95368152291666,56.0,59.0
156,59.11295556249999,59.49198745416666,37.0,56.0
157,59.09682654583332,60.60287347708332,66.0,60.0
158,60.635131510416656,60.93755057291666,61.0,61.0
159,60.11698684999999,60.979889241666655,49.0,60.0
160,60.344809210416656,60.979889241666655,56.0,53.0
161,60.87706676041666,61.19964709374999,66.0,61.0
162,61.16738906041666,62.58674252708333,49.0,62.0
163,61.173437441666664,62.633113449999996,61.0,55.0
164,61.173437441666664,62.635129577083326,65.0,58.0
165,62.903274479166654,63.493999714583325,54.0,43.0
166,62.977871181249995,63.57666092499999,58.0,53.0
167,63.04843562916666,63.675451152083326,61.0,22.0
168,63.85488646249999,63.993999231249994,54.0,49.0
169,63.3952094875,64.00206373958332,49.0,28.0
170,63.85690258958333,64.02020888333332,58.0,46.0
171,62.97182279999999,64.133112,42.0,60.0
172,63.85085420833333,64.23391835416666,61.0,54.0
173,64.57464383125,64.80448231874999,56.0,44.0
174,64.66536955,64.81859520833333,57.0,44.0
175,64.78230492083333,65.29238507291666,58.0,52.0
176,65.24803027708333,65.90730383333332,53.0,41.0
177,65.76819106458333,66.01617469583333,56.0,65.0
178,65.76617493749998,66.02625533124998,62.0,60.0
179,64.79440168333332,66.03633596666666,46.0,59.0
180,66.52625484791666,66.70770628541666,58.0,32.0
181,66.61496443958333,66.83069003749999,63.0,50.0
182,66.72383530208333,67.35689920624999,66.0,54.0
183,67.18149614999999,67.79641491041666,46.0,34.0
184,67.71173757291666,68.10891460833332,58.0,64.0
185,66.72988368333333,68.14520489583333,39.0,61.0
186,67.92544704374998,68.19359194583333,63.0,54.0
187,68.17141454791667,68.25609188541665,66.0,59.0
188,68.68552695416666,69.03834919375,64.0,57.0
189,68.68754308125,69.15326843749999,54.0,55.0
190,69.12101040416667,69.82867101041666,49.0,49.0
191,68.6814947,69.8427839,42.0,53.0
192,69.63310668333332,69.84480002708332,54.0,60.0
193,69.63915506458332,69.96576765208333,61.0,60.0
194,70.60286381041666,71.08875043749998,59.0,49.0
195,70.60891219166666,71.21375031666666,63.0,57.0
196,71.58270157291666,71.76616913749999,59.0,59.0
197,71.06254078541666,71.85689485625,54.0,22.0
198,70.59681542916667,71.899233525,47.0,60.0
199,71.5847177,71.94358832083333,63.0,59.0
200,71.59076608125,71.98794311666666,66.0,58.0
201,72.39923304166666,72.56858771666666,56.0,31.0
202,72.47786199791666,72.93552284583333,61.0,48.0
203,72.55649095416666,73.11899041041666,65.0,58.0
204,73.03028081874999,73.35084502499998,56.0,58.0
205,73.52221582708333,73.79439298333332,56.0,58.0
206,73.52019969999999,73.83874777916665,61.0,59.0
207,72.55044257291667,74.01213470833332,49.0,58.0
208,74.01213470833332,74.43148914166666,59.0,60.0
209,75.49398811458332,75.89519740416665,54.0,67.0
210,75.00205310625,75.94963283541665,49.0,57.0
211,75.73189111041665,75.97785861458333,58.0,60.0
212,74.53229549583332,76.01414890208332,42.0,62.0
213,75.94963283541665,76.05648757083333,61.0,65.0
214,76.37906790416666,76.55850321458333,49.0,56.0
215,76.45971298749998,76.56253546874999,52.0,48.0
216,76.65124506041666,76.90124481875,44.0,54.0
217,76.5201968,76.91737383541667,56.0,58.0
218,76.43350333541666,76.92140608958333,37.0,59.0
219,76.86697065833332,77.01011568125,49.0,64.0
220,77.39116369999999,77.65527634791667,54.0,58.0
221,77.39721208124999,77.74398593958333,58.0,55.0
222,77.5968086625,78.02825985833333,49.0,54.0
223,77.85487292916666,78.14317910208332,54.0,64.0
224,77.39116369999999,78.20164678749998,42.0,58.0
225,78.08874367083332,78.20769516874999,58.0,59.0
226,78.36898533541665,79.34075858958332,59.0,60.0
227,78.37503371666665,79.7500323875,47.0,69.0
228,78.80245265833332,79.77825816666666,51.0,47.0
229,79.28833928541667,79.83874197916666,63.0,60.0
230,79.77220978541666,79.89720966458333,54.0,63.0
231,80.11898364375,80.30245120833332,56.0,54.0
232,80.20769323541666,80.6935798625,61.0,49.0
233,80.28632219166666,80.8387410125,65.0,59.0
234,80.73793465833333,80.99196667083334,56.0,50.0
235,81.25809544583333,81.5403532375,56.0,58.0
236,81.25204706458332,81.62503057499998,61.0,59.0
237,80.26414479374999,81.71978854791666,49.0,56.0
238,82.09478818541666,82.35688470624999,58.0,41.0
239,82.17744939583332,82.38309435833332,61.0,50.0
240,82.26615898749999,82.91131965416666,65.0,58.0
241,82.72785208958332,83.38712564583332,53.0,53.0
242,82.26011060625,83.48389974583333,46.0,59.0
243,83.19760969999999,83.58268997291665,61.0,67.0
244,83.19357744583333,83.62502864166666,58.0,58.0
245,84.01615729583332,84.14317330208333,58.0,37.0
246,84.06454434583333,84.22381838541665,63.0,49.0
247,84.14115717499999,84.94760800833333,66.0,59.0
248,84.60889865833332,85.13914008124999,58.0,58.0
249,84.14922168333332,85.27825285,51.0,61.0
250,85.09680141249999,85.63107508958333,65.0,64.0
251,85.94760704166666,86.15526813124998,56.0,43.0
252,85.99599409166666,86.83873521249998,59.0,47.0
253,86.09478431874999,87.12502525833332,63.0,53.0
254,87.04639630208332,87.23389612083332,56.0,64.0
255,86.54639678541666,87.25002513749999,51.0,42.0
256,86.11494558958333,87.29841218749999,44.0,54.0
257,88.05647597083333,88.78429784791666,62.0,58.0
258,87.95970187083333,88.86897518541666,59.0,59.0
259,87.85083100833333,88.97179766666666,54.0,38.0
260,88.20163712083333,89.04639436874999,66.0,59.0
261,89.04639436874999,89.49195845416665,59.0,53.0
262,89.04841049583332,89.53228099583333,62.0,57.0
263,88.01212117499999,89.61090995208332,47.0,64.0
264,90.05042565624998,90.36090922708333,54.0,48.0
265,90.09881270624999,90.39316726041666,61.0,51.0
266,90.06453854583333,90.66534441666666,58.0,49.0
267,90.94356995416666,91.44155334375,56.0,67.0
268,90.49800586875,91.59276287499999,49.0,48.0
269,90.02421600416666,91.71776275416666,42.0,59.0
270,91.40929531041667,91.71776275416666,58.0,64.0
271,91.79034332916666,91.83873037916666,61.0,32.0
272,91.76010142291665,91.92340771666666,54.0,42.0
273,91.85485939583333,91.98389152916666,58.0,53.0
274,91.93953673333333,92.20163325416667,61.0,59.0
275,92.59958951041665,92.95604983958332,54.0,58.0
276,92.84493873124998,93.12912675833331,66.0,67.0
277,93.05006693124999,93.41275214583332,61.0,60.0
278,92.37479989791665,93.51225127083332,49.0,52.0
279,93.31845404166666,93.54764943749998,54.0,60.0
280,91.88711742916666,93.57419806249999,42.0,60.0
281,93.82198522916666,94.39554036249997,58.0,52.0
282,93.82640999999998,94.7272919333333,54.0,58.0
283,94.93101364166664,95.29820674999998,58.0,59.0
284,94.92468452916664,95.52134712499998,61.0,59.0
285,94.35441482291664,95.55233884374998,49.0,41.0
286,93.81092330208332,95.71629011249998,42.0,60.0
287,95.42217362499997,96.06260139166665,54.0,51.0
288,95.93145392499997,96.41301102916664,66.0,50.0
289,96.69169939583331,96.83514193749997,58.0,51.0
290,96.43350282083331,96.85973208749998,54.0,57.0
291,96.1568636333333,97.06260082499998,49.0,47.0
292,96.9744861208333,97.37728647916664,54.0,59.0
293,96.95809268749997,97.39395314583331,58.0,58.0
294,96.96424022499997,97.47103647916664,61.0,60.0
295,95.91915884999997,97.52311981249997,42.0,58.0
296,97.4502031458333,97.58145314583331,49.0,58.0
297,97.8814531458333,98.0752031458333,58.0,49.0
298,97.9502031458333,98.43787818749996,61.0,51.0
299,98.43157567499996,98.72989459999997,58.0,58.0
300,98.66266779999997,98.78241553749997,61.0,58.0
301,98.20436981249996,99.03871771249997,53.0,51.0
302,98.94838169999997,99.24670062499997,58.0,58.0
303,99.16896963749997,99.44417934999997,53.0,53.0
304,98.94628086249996,99.44838102499997,61.0,67.0
305,98.94628086249996,99.45468353749997,65.0,67.0
306,97.95645314583331,99.55342289999997,46.0,60.0
307,99.45888521249996,99.65846477499997,58.0,54.0
308,99.88325438749997,99.96938872499997,58.0,37.0
309,99.92947281249997,100.04922054999997,63.0,50.0
310,99.96728788749996,100.78031199999997,66.0,55.0
311,100.43577464999997,101.11434516249997,46.0,41.0
312,99.97569123749997,101.19417698749997,39.0,60.0
313,100.94837899999997,101.36014314999997,58.0,60.0
314,100.94627816249996,101.44417664999997,65.0,62.0
315,101.42316827499997,101.55342019999996,63.0,58.0
316,101.93997429999997,102.54081382499997,66.0,53.0
317,101.96518434999997,102.61854481249996,63.0,56.0
318,101.94627681249997,102.64585569999997,59.0,48.0
319,102.40636022499997,103.13955251249996,54.0,43.0
320,101.94627681249997,103.18156926249996,47.0,59.0
321,102.95467881249996,103.33072872499997,59.0,67.0
322,102.95467881249996,103.42316557499997,66.0,60.0
323,102.95257797499997,103.45467813749997,63.0,64.0
324,103.44417394999996,103.59123257499996,47.0,60.0
325,103.95257662499996,104.31602151249997,56.0,59.0
326,103.95047578749997,104.47148348749997,61.0,60.0
327,104.43366841249997,105.11854143749997,53.0,46.0
328,104.95047443749996,105.28030592499996,58.0,56.0
329,103.94627411249996,105.40215449999997,46.0,60.0
330,104.94837359999997,105.43156622499997,61.0,62.0
331,104.95257527499997,105.46517962499996,65.0,60.0
332,105.42106203749996,105.57862484999997,58.0,56.0
333,105.94837224999996,106.43996822499997,63.0,57.0
334,105.94627141249997,106.44627073749997,56.0,59.0
335,106.41475817499997,106.99458932499996,51.0,43.0
336,105.94206973749996,107.24038731249996,44.0,59.0
337,106.96097592499997,107.24668982499998,56.0,61.0
338,107.16265632499997,107.37694174999997,51.0,57.0
339,106.95887508749996,107.43996687499997,59.0,67.0
340,107.42316017499996,107.57021879999996,44.0,59.0
341,107.69626904999997,107.88534442499997,56.0,69.0
342,107.95887373749997,108.05131058749997,37.0,58.0
343,107.96097457499997,108.32652029999997,56.0,63.0
344,107.95887373749997,108.43786468749997,61.0,63.0
345,108.67525932499997,109.04080504999997,56.0,59.0
346,108.94626736249997,109.26979633749997,61.0,65.0
347,108.42105798749996,109.29710722499996,49.0,59.0
348,109.18156116249997,109.33702313749997,56.0,58.0
349,108.93996484999997,109.58492196249998,65.0,69.0
350,109.55130856249997,109.90004758749997,61.0,61.0
351,110.15634976249997,110.42105528749997,61.0,55.0
352,110.15634976249997,110.83912194999996,66.0,55.0
353,111.15214673749998,111.69836448749997,54.0,61.0
354,110.66055076249997,111.71517118749998,49.0,44.0
355,111.14584422499996,111.71937286249997,61.0,59.0
356,111.64164187499998,111.78659966249997,58.0,60.0
357,110.15845059999997,112.02189346249997,42.0,60.0
358,112.14794371249997,112.66895141249996,66.0,59.0
359,112.59542209999996,113.17315241249997,49.0,40.0
360,113.14794236249998,113.41895039999997,54.0,62.0
361,112.14794371249997,113.46726966249997,42.0,59.0
362,113.14584152499997,113.49247971249997,58.0,62.0
363,113.36642946249997,113.50928641249996,49.0,59.0
364,113.14374068749997,113.59752158749997,61.0,60.0
365,113.65424419999997,113.93995809999997,54.0,65.0
366,113.89163883749997,114.06390751249997,58.0,58.0
367,114.16894938749996,114.59331856249997,61.0,59.0
368,114.16474771249997,114.64373866249997,58.0,52.0
369,114.62903279999998,115.27398991249997,53.0,45.0
370,115.15844384999997,115.69625824999997,58.0,58.0
371,115.15214133749997,115.90003948749997,61.0,60.0
372,114.15844519999997,116.01348471249997,46.0,59.0
373,115.15424217499996,116.04499727499997,65.0,62.0
374,115.62903144999997,116.04709811249997,53.0,54.0
375,116.21306427499997,116.49457649999997,58.0,53.0
376,116.18155171249997,116.62903009999997,65.0,58.0
377,116.66684517499996,117.07860932499997,58.0,63.0
378,117.18365119999997,117.63323042499997,63.0,63.0
379,116.19205589999997,117.70045722499997,51.0,67.0
380,117.18365119999997,117.73827229999998,66.0,59.0
381,117.63323042499997,117.84961668749997,58.0,59.0
382,118.13953226249997,118.77188434999997,59.0,50.0
383,118.14373393749997,118.90213627499998,63.0,55.0
384,119.04289238749996,119.16264012499997,59.0,30.0
385,119.12482504999997,119.25507697499997,63.0,53.0
386,119.21936273749996,119.69415201249997,66.0,58.0
387,118.61011986249997,119.71516038749996,54.0,36.0
388,119.63322772499997,119.77398383749997,59.0,59.0
389,118.13322974999997,119.77818551249997,47.0,62.0
390,120.12902537499997,120.45675602499998,58.0,56.0
391,120.12902537499997,120.55759622499997,61.0,57.0
392,120.13112621249996,120.66683977499997,46.0,60.0
393,120.97986456249997,121.14583072499997,58.0,43.0
394,121.06389806249997,121.26978013749996,63.0,52.0
395,121.13322569999997,121.63952753749997,39.0,65.0
396,121.37902368749997,121.64162837499997,46.0,47.0
397,121.14372988749997,121.68364512499997,66.0,54.0
398,121.62902334999997,121.79498951249997,58.0,64.0
399,122.20045114999996,122.45255164999998,59.0,57.0
400,122.21305617499996,122.90003003749997,63.0,58.0
401,122.16683774999997,122.94414762499997,56.0,47.0
402,122.64162702499996,123.18154226249997,51.0,42.0
403,123.15002969999998,123.66683572499997,59.0,69.0
404,123.39162601249997,123.75717173749997,51.0,47.0
405,123.67313823749997,123.84960858749997,56.0,53.0
406,122.20045114999996,123.90843203749998,44.0,59.0
407,124.04288563749996,124.24246519999997,56.0,52.0
408,124.13322164999997,124.62271678749997,61.0,58.0
409,124.22355766249997,124.78448127499996,65.0,59.0
410,124.64792683749997,124.96305246249997,56.0,56.0
411,125.16053118749997,125.52187523749997,56.0,60.0
412,125.15422867499997,125.65212716249997,61.0,58.0
413,124.18154091249997,125.96305111249997,49.0,59.0
414,125.66053051249997,126.10380722499997,59.0,57.0
415,126.15842899999997,126.72145344999997,54.0,47.0
416,126.15632816249996,126.77397438749998,58.0,49.0
417,127.12481424999997,127.68783869999997,56.0,58.0
418,126.16263067499997,127.85800653749996,42.0,58.0
419,126.62901659999997,127.88951909999997,49.0,43.0
420,128.11430871249996,130.04077669999998,54.0,27.0
421,127.63321692499997,130.06178507499996,58.0,60.0
422,128.14582127499997,130.07649093749995,61.0,54.0
423,130.64371706249997,131.12270801249997,58.0,43.0
424,130.88741421249998,132.09749661249998,63.0,50.0
425,130.37691069999997,132.11850498749996,46.0,41.0
426,132.08699242499998,132.24455523749998,66.0,58.0
427,130.11640684999998,132.28447114999997,39.0,62.0
428,132.56808421249997,132.75715958749998,58.0,39.0
429,133.07648688749998,133.41262088749997,63.0,51.0
430,133.06388186249995,133.44413344999998,66.0,53.0
431,133.06388186249995,133.44833512499997,58.0,50.0
432,133.95043528749997,135.46093744999996,59.0,43.0
433,134.09119139999996,135.47984498749997,63.0,43.0
434,135.37270227499997,136.96303626249997,54.0,40.0
435,135.76555888749996,137.01975887499998,59.0,42.0
436,134.03236794999998,137.05127143749996,47.0,59.0
437,135.91261751249996,137.16471666249998,66.0,59.0
438,137.83698466249996,138.10799269999995,54.0,45.0
439,137.9714382625,138.27185802499997,62.0,54.0
440,137.89580811249996,138.39790827499996,59.0,51.0
441,138.45042921249996,139.13110056249997,54.0,52.0
442,138.69832803749998,139.17311731249998,59.0,64.0
443,137.97353909999998,139.17941982499997,47.0,74.0
444,139.14160474999997,139.40000776249997,62.0,72.0
445,139.38320106249998,139.72773841249997,54.0,59.0
446,139.64160407499998,139.89580541249995,59.0,19.0
447,140.38109887499996,141.12899702499996,52.0,50.0
448,140.616392675,141.21513136249996,56.0,58.0
449,139.88530122499998,141.22143387499997,40.0,64.0
450,140.13109921249998,141.22143387499997,47.0,48.0
451,141.35588747499997,141.78445832499997,52.0,58.0
452,141.12689618749997,141.99874374999996,64.0,57.0
453,142.3789953375,143.18151526249997,57.0,54.0
454,142.14370153749996,143.27395211249996,52.0,43.0
455,141.89370187499998,143.28445629999996,45.0,74.0
456,143.11849013749998,143.45252329999997,64.0,54.0
457,142.63949918749998,143.67311123749997,61.0,56.0
458,143.60168276249996,143.90420336249997,57.0,62.0
459,143.36428812499997,143.91260671249998,69.0,57.0
460,144.35168174999995,144.68571491249998,54.0,49.0
461,144.62689146249997,145.15210083749997,56.0,62.0
462,144.09537957499998,145.53025158749998,49.0,40.0
463,143.86218661249995,145.64579764999996,42.0,59.0
464,145.12058827499996,145.83277218749998,57.0,64.0
465,145.64369681249997,146.01764588749995,61.0,58.0
466,146.7130231,147.26974503749997,57.0,55.0
467,146.46722511249996,147.4966354875,50.0,59.0
468,145.96092327499997,147.62268573749998,38.0,60.0
469,146.18991456249998,147.94831554999996,45.0,51.0
470,147.47982878749997,148.33486964999997,57.0,51.0
471,147.22982912499998,148.52394502499996,54.0,45.0
472,147.74243347499998,148.74873463749998,62.0,53.0
473,148.49033162499995,149.22982642499997,50.0,58.0
474,148.74873463749998,149.30965824999998,54.0,48.0
475,149.27394401249995,149.36638086249997,57.0,58.0
476,148.23613028749998,149.47142273749998,45.0,48.0
477,147.99033229999998,149.49243111249996,38.0,59.0
478,150.05125388749997,150.38108537499997,61.0,52.0
479,150.05545556249996,150.45041301249998,37.0,58.0
480,150.51763981249997,151.35587397499998,61.0,56.0
481,150.04074969999996,151.49242841249998,66.0,53.0
482,151.04284918749997,151.85377246249996,49.0,51.0
483,151.28444549999998,151.87478083749997,56.0,46.0
484,151.53444516249996,151.88948669999996,61.0,58.0
485,151.75293226249997,151.96091517499997,66.0,54.0
486,152.02183946249997,153.87687897499995,61.0,51.0
487,153.77183709999997,153.87687897499995,61.0,52.0
488,152.01973862499997,153.8873831625,49.0,55.0
489,152.01763778749998,153.90208902499998,65.0,57.0
490,153.71931616249998,154.25502972499999,66.0,43.0
491,153.83486222499997,154.26133223749997,58.0,51.0
492,153.92309739999996,154.35376908749998,54.0,52.0
493,154.91889437499998,155.2823392625,61.0,60.0
494,154.92519688749996,155.30544847499996,58.0,60.0
495,154.41679421249998,155.41889369999996,49.0,37.0
496,153.935702425,155.47561631249997,42.0,59.0
497,155.39578448749998,155.85376706249997,54.0,60.0
498,155.82225449999999,155.94830474999998,56.0,53.0
499,155.91679218749996,156.43569904999998,58.0,52.0
500,156.36847224999997,157.07855532499997,53.0,58.0
501,155.89998548749998,157.08275699999996,46.0,59.0
502,156.83065649999998,157.15628631249996,56.0,60.0
503,156.82855566249998,157.18149636249996,62.0,59.0
504,157.64157977499997,157.93989869999996,58.0,37.0
505,157.80124342499997,158.28233521249996,66.0,53.0
506,157.71300824999997,158.31384777499997,63.0,49.0
507,158.78233453749996,158.99451912499995,58.0,58.0
508,158.29283939999996,158.99872079999997,46.0,23.0
509,157.80124342499997,159.11006518749997,39.0,59.0
510,158.78023369999997,159.28653553749996,63.0,60.0
511,158.77813286249997,159.32855228749997,66.0,59.0
512,159.25082129999998,159.55124106249997,58.0,58.0
513,159.73191308749998,160.28443334999997,61.0,59.0
514,159.75292146249996,160.37266852499997,49.0,58.0
515,160.19829901249997,160.42939113749998,56.0,63.0
516,160.71090336249998,161.18989431249997,54.0,58.0
517,160.71300419999997,161.25291943749997,58.0,55.0
518,161.20039849999998,161.43569229999997,49.0,47.0
519,160.71510503749997,161.51132244999997,42.0,58.0
520,161.70249866249998,161.97560753749997,54.0,54.0
521,161.70039782499998,162.30753986249997,59.0,48.0
522,162.15207788749996,162.36006079999999,54.0,35.0
523,162.64367386249995,162.87056431249997,54.0,57.0
524,162.64367386249995,163.17518574999997,59.0,60.0
525,162.64997637499997,163.22350501249997,63.0,58.0
526,161.70880117499996,163.23400919999997,47.0,60.0
527,163.12896732499996,163.44829462499996,54.0,46.0
528,163.38106782499997,163.60165576249997,59.0,52.0
529,163.62266413749995,163.91678138749995,56.0,53.0
530,163.62476497499998,164.21510031249997,61.0,54.0
531,164.08274754999997,164.56594017499998,56.0,58.0
532,163.63316832499999,164.72980549999997,49.0,51.0
533,164.59325106249997,164.78862894999997,61.0,60.0
534,164.59535189999997,164.79913313749995,65.0,62.0
535,165.41467852499997,165.78022424999997,54.0,44.0
536,165.49661118749998,165.93568622499998,58.0,45.0
537,165.54493044999998,166.06173647499998,61.0,51.0
538,166.02602223749997,166.55543328749997,49.0,24.0
539,166.4966098375,166.77602122499997,54.0,58.0
540,166.49871067499998,166.92097901249997,61.0,58.0
541,166.70879442499995,167.25921384999998,49.0,49.0
542,166.99240748749997,167.26551636249997,54.0,60.0
543,165.57224133749997,167.34534818749995,42.0,59.0
544,167.21299542499997,167.49450764999997,56.0,59.0
545,167.46509592499996,167.84744834999998,54.0,59.0
546,167.46719676249995,167.85165002499997,58.0,60.0
547,167.95038938749997,168.33064097499997,54.0,57.0
548,167.93358268749998,168.35164934999997,61.0,58.0
549,167.95669189999995,168.36635521249997,58.0,46.0
550,168.47769959999997,168.73820344999996,54.0,62.0
551,168.47559876249997,168.86425369999998,58.0,64.0
552,168.4798004375,168.89996793749998,61.0,67.0
553,168.48190127499998,168.97559808749998,49.0,60.0
554,167.46929759999998,169.01131232499998,42.0,60.0
555,168.95669054999996,169.49870662499995,54.0,62.0
556,169.40206809999995,169.90626909999997,59.0,49.0
557,169.46719406249997,169.96299171249996,63.0,58.0
558,169.45668987499997,170.64156222499997,47.0,62.0
559,170.389461725,170.91046942499997,59.0,58.0
560,170.8789568625,171.04702386249997,54.0,59.0
561,171.21929253749997,171.38735953749998,54.0,38.0
562,171.31383022499998,171.46298968749997,59.0,47.0
563,171.40836791249995,171.58693909999997,66.0,56.0
564,171.41046874999998,171.59324161249998,68.0,55.0
565,171.87475383749995,172.46298833749995,54.0,36.0
566,171.37685534999997,172.51550927499997,47.0,55.0
567,172.35794646249997,172.71298799999997,59.0,64.0
568,172.36214813749996,172.90626504999997,63.0,60.0
569,172.83483657499997,173.229794025,47.0,65.0
570,173.33063422499998,173.82012936249998,61.0,52.0
571,173.32433171249997,173.82643187499997,56.0,54.0
572,173.80962517499995,174.41676721249996,53.0,33.0
573,173.33693673749997,174.51970824999995,46.0,58.0
574,174.27391026249995,174.64575849999997,56.0,58.0
575,174.27601109999998,174.675170225,61.0,60.0
576,174.27811193749997,174.71928781249997,65.0,60.0
577,174.75290121249998,174.96298496249997,46.0,59.0
578,174.97769082499997,175.72558897499997,58.0,49.0
579,175.24659802499997,175.85794173749997,63.0,54.0
580,175.71718562499996,176.33483184999997,46.0,46.0
581,175.24029551249998,176.42096618749997,39.0,51.0
582,176.20668076249996,176.45878126249997,58.0,58.0
583,176.20457992499996,176.48399131249997,63.0,60.0
584,176.20457992499996,176.61424323749998,66.0,60.0
585,177.02390655,177.25920034999996,56.0,47.0
586,177.1730660125,177.61214105,63.0,51.0
587,177.08272999999997,177.61634272499998,59.0,41.0
588,177.64365361249997,178.16676214999995,51.0,37.0
589,178.14155209999996,178.38524924999996,56.0,58.0
590,178.13524958749997,178.58903048749997,59.0,64.0
591,178.34533333749997,178.63314807499995,51.0,52.0
592,177.19197354999997,178.666761475,44.0,59.0
593,178.14575377499997,178.67936649999996,63.0,59.0
594,178.60583718749996,178.75499664999995,56.0,62.0
595,179.09743316249995,179.34953366249997,54.0,52.0
596,179.10163483749997,179.57852494999997,59.0,48.0
597,179.09743316249995,179.61844086249997,62.0,52.0
598,179.55331489999998,179.96928072499998,54.0,58.0
599,180.08272594999997,180.32222142499995,54.0,60.0
600,179.08902981249997,180.43356581249998,47.0,61.0
601,180.07222176249996,180.53020433749998,62.0,61.0
602,180.07642343749995,180.53230517499998,59.0,64.0
603,180.07432259999996,180.54701103749997,66.0,58.0
604,180.53650684999997,180.70667468749997,54.0,64.0
605,181.03650617499997,181.53230382499999,54.0,55.0
606,181.03860701249997,181.55331219999997,58.0,55.0
607,181.75709343749998,181.88734536249996,54.0,48.0
608,181.97768137499997,182.25289108749996,56.0,60.0
609,181.51129544999998,182.32431956249997,49.0,50.0
610,182.21927768749998,182.49028572499998,58.0,60.0
611,182.46927734999997,182.74448706249996,49.0,63.0
612,181.03440533749998,182.78230213749998,42.0,59.0
613,182.70247031249997,182.851629775,54.0,53.0
614,182.9503691375,183.32431821249997,61.0,61.0
615,182.95877248749997,183.33902407499997,54.0,59.0
616,182.9503691375,183.34322575,58.0,60.0
617,183.69196477499997,183.78650246249998,54.0,50.0
618,183.43566259999997,184.06591384999996,49.0,58.0
619,182.95246997499999,184.17935907499998,42.0,62.0
620,183.95246862499997,184.42515706249998,66.0,57.0
621,183.94406527499996,184.43566124999995,58.0,63.0
622,183.95036778749997,184.46087129999995,54.0,59.0
623,183.94826694999998,184.47347632499998,61.0,64.0
624,184.41465287499997,184.67515672499997,42.0,59.0
625,184.93145889999997,185.37683644999998,61.0,56.0
626,184.9335597375,185.41465152499995,54.0,59.0
627,185.41255068749996,185.97767597499995,49.0,42.0
628,185.93565922499997,186.20246558749997,54.0,61.0
629,185.92935671249995,186.23397814999998,58.0,63.0
630,186.14994464999995,186.67515402499998,49.0,52.0
631,184.91675303749997,186.68145653749997,42.0,60.0
632,186.41254933749997,186.68985988749998,54.0,61.0
633,186.64364146249997,186.9167503375,56.0,62.0
634,186.87893526249997,187.44406054999996,58.0,59.0
635,187.61843006249995,187.73397612499997,54.0,46.0
636,187.36002704999999,187.92935401249997,49.0,46.0
637,187.88103474999997,188.14363943749998,54.0,60.0
638,186.89574196249998,188.21716874999998,42.0,59.0
639,187.87893391249997,188.21716874999998,61.0,60.0
640,187.88313558749996,188.23607628749997,58.0,62.0
641,188.11212687499997,188.24658047499997,49.0,62.0
642,188.36632821249998,188.49237846249997,54.0,61.0
643,188.59742033749995,188.75918482499998,56.0,55.0
644,188.83271413749998,189.465066225,58.0,57.0
645,189.33901597499997,189.85162032499997,53.0,49.0
646,189.83481362499998,190.07010742499997,58.0,60.0
647,189.82851111249997,190.12893087499998,65.0,62.0
648,190.03439318749997,190.50708162499996,53.0,58.0
649,190.31380457499998,190.5427958625,61.0,59.0
650,188.84531916249998,190.57640926249996,46.0,59.0
651,190.52178748749998,190.69825783749997,58.0,50.0
652,190.79489636249997,191.01758513749996,58.0,59.0
653,190.79279552499997,191.3243074125,63.0,58.0
654,191.28018982499998,191.49447525,58.0,53.0
655,190.80540054999997,192.06800388749997,51.0,60.0
656,191.78439082499997,192.18985246249997,58.0,61.0
657,191.78228998749998,192.20035664999997,63.0,65.0
658,191.78018914999996,192.23607088749998,66.0,59.0
659,192.25077674999997,192.33691108749997,49.0,69.0
660,192.77178444999998,193.34531308749996,59.0,51.0
661,192.78228863749996,193.39153151249997,63.0,56.0
662,193.24657372499996,193.81169901249996,54.0,35.0
663,192.7696836125,193.90623669999997,47.0,65.0
664,193.76127891249996,194.06590035,59.0,64.0
665,193.98396768749996,194.3116983375,54.0,52.0
666,193.76758142499997,194.33270671249997,63.0,60.0
667,194.25917739999997,194.44615193749996,47.0,72.0
668,193.76968226249997,194.50497538749997,66.0,58.0
669,194.50497538749997,194.76758007499996,59.0,60.0
670,194.75077337499997,195.12892412499997,58.0,47.0
671,195.26968023749998,195.57640251249995,58.0,58.0
672,195.50077236249996,195.75287286249997,61.0,55.0
673,195.75077202499997,196.26757804999997,63.0,60.0
674,195.03438643749996,196.30539312499997,53.0,56.0
675,196.21505711249998,196.40833416249995,61.0,74.0
676,194.76547923749996,196.41253583749997,46.0,59.0
677,196.72556062499996,197.09320718749996,56.0,58.0
678,196.71715727499998,197.24446748749997,59.0,53.0
679,197.16673649999996,197.691945875,51.0,44.0
680,197.71085341249997,197.9587522375,56.0,62.0
681,196.7108547625,197.97765977499998,44.0,59.0
682,197.90413046249998,198.04068489999997,51.0,61.0
683,197.70875257499998,198.0574916,59.0,69.0
684,197.70665173749995,198.10371002499997,63.0,64.0
685,198.17093682499996,198.30749126249998,44.0,59.0
686,198.43354151249997,198.58900348749995,56.0,65.0
687,198.66673447499997,198.75286881249997,37.0,60.0
688,198.67303698749998,199.08480113749997,56.0,64.0
689,198.67303698749998,199.15412877499998,61.0,64.0
690,199.39992676249997,199.70664903749997,56.0,60.0
691,199.65622893749998,199.97555623749997,61.0,64.0
692,199.88732106249998,200.02807717499996,56.0,58.0
693,199.15833045,200.0427830375,49.0,60.0
694,199.65832977499997,200.18353914999997,65.0,74.0
695,200.17933747499995,200.50496728749997,61.0,67.0
696,200.64992507499997,200.83689961249996,66.0,55.0
697,200.65412675,200.8747146875,61.0,58.0
698,201.12471434999998,201.73605806249998,49.0,47.0
699,200.6520259125,202.0007635875,42.0,59.0
700,201.6562262375,202.03227614999997,54.0,62.0
701,201.65412539999997,202.04908285,58.0,63.0
702,202.13731802499996,202.45454448749996,49.0,57.0
703,202.62681316249996,203.0301739625,66.0,59.0
704,202.62471232499996,203.06168652499997,58.0,60.0
705,202.62891399999995,203.078493225,61.0,59.0
706,202.37261182499998,203.09319908749995,54.0,59.0
707,203.08479573749997,203.641517675,49.0,41.0
708,203.616307625,203.86420644999998,61.0,63.0
709,203.61840846249999,203.86840812499997,58.0,63.0
710,203.62050929999998,203.87050896249997,54.0,61.0
711,202.6142081375,203.92723157499998,42.0,59.0
712,203.82639137499996,203.94193743749997,49.0,60.0
713,204.08899606249997,204.35160075,54.0,65.0
714,204.31378567499996,204.58689454999995,56.0,58.0
715,204.57639036249998,205.2570617125,58.0,53.0
716,205.06588549999998,205.71924596249997,53.0,47.0
717,205.58689319999996,206.07218666249997,65.0,60.0
718,205.58899403749996,206.08059001249995,58.0,61.0
719,206.04487577499998,206.3579005625,53.0,50.0
720,204.56378533749998,206.39571563749996,46.0,59.0
721,206.2864720875,206.43983322499997,58.0,51.0
722,206.56798431249996,206.77176554999997,58.0,60.0
723,206.56588347499996,207.09529452499999,63.0,60.0
724,207.01546269999997,207.288571575,58.0,48.0
725,207.52176453749996,207.93142784999998,63.0,60.0
726,207.52386537499996,207.95663789999998,66.0,60.0
727,206.5784885,207.98394878749997,51.0,62.0
728,207.52596621249995,207.98394878749997,58.0,60.0
729,208.490250625,209.06798093749995,63.0,56.0
730,208.48604894999997,209.07428344999997,59.0,57.0
731,209.53226602499996,209.97974441249997,59.0,53.0
732,209.53856853749997,210.14571057499995,66.0,54.0
733,209.53436686249998,210.16041643749998,63.0,53.0
734,208.96083822499997,210.22344156249997,54.0,36.0
735,208.47554476249996,210.3494918125,47.0,62.0
736,210.498651275,210.78856684999997,58.0,54.0
737,210.498651275,210.96503719999998,65.0,59.0
738,210.50495378749997,211.27806198749997,46.0,60.0
739,210.99024724999998,211.28856617499997,58.0,62.0
740,211.46083484999997,211.66461608749998,58.0,58.0
741,211.46503652499996,211.97764087499996,63.0,57.0
742,211.4755407125,212.02385929999997,51.0,60.0
743,211.95453166249996,212.09528777499997,58.0,61.0
744,212.48394271249998,212.98814371249998,56.0,55.0
745,212.48604354999998,213.14780736249998,59.0,46.0
746,212.47764019999997,213.20032829999997,63.0,55.0
747,213.16881573749998,213.29066431249998,56.0,50.0
748,213.42511791249996,213.69822678749998,58.0,59.0
749,213.66041171249998,213.902008025,59.0,69.0
750,212.95242947499997,214.02595743749998,51.0,44.0
751,213.89570551249997,214.095285075,63.0,59.0
752,212.481841875,214.13730182499998,44.0,60.0
753,214.15200768749997,214.33057887499996,56.0,53.0
754,214.44612493749997,214.72133464999996,56.0,59.0
755,214.45032661249996,214.75284721249997,37.0,59.0
756,214.44402409999998,214.95662844999998,61.0,60.0
757,214.9041075125,215.19402308749997,56.0,58.0
758,215.43141772499996,215.69192157499998,56.0,61.0
759,215.64570314999997,215.80116512499995,49.0,57.0
760,215.42721604999997,215.80116512499995,65.0,63.0
761,215.42931688749997,215.80536679999997,61.0,63.0
762,216.154105825,216.23813932499996,61.0,50.0
763,215.91671118749997,216.26334937499996,56.0,60.0
764,216.41460967499998,216.90830648749997,54.0,52.0
765,216.41040799999996,216.94402072499997,58.0,57.0
766,216.88309643749997,217.40410413749998,49.0,38.0
767,217.38309576249998,217.62889374999997,58.0,61.0
768,217.38099492499998,217.66460798749998,54.0,60.0
769,217.59107867499998,218.2087249,49.0,48.0
770,216.42511386249998,218.2570441625,42.0,59.0
771,217.88729676249997,218.31586761249997,56.0,52.0
772,218.3830944125,218.71292589999996,50.0,63.0
773,218.37679189999997,218.8704887125,62.0,57.0
774,218.88099289999997,219.01544649999997,50.0,67.0
775,218.37889273749997,219.27174867499997,38.0,65.0
776,218.63099323749998,219.288555375,45.0,58.0
777,219.14569842499998,219.32426961249996,62.0,52.0
778,219.14779926249997,219.3347738,50.0,60.0
779,219.46082404999999,220.04905854999998,50.0,60.0
780,220.14149539999997,220.97342704999997,50.0,69.0
781,219.46712656249997,220.9755278875,38.0,72.0
782,219.46922739999997,220.98393123749997,45.0,72.0
783,219.46082404999999,221.00493961249998,62.0,57.0
784,221.1225865125,221.50914061249998,55.0,58.0
785,221.12678818749998,221.65830007499997,62.0,57.0
786,221.64989672499996,221.94821564999998,55.0,54.0
787,221.89149303749997,221.9797282125,59.0,50.0
788,221.42090543749998,222.21502201249996,50.0,50.0
789,222.11628264999996,222.64569369999998,55.0,59.0
790,221.13309069999997,222.87888666249998,43.0,59.0
791,222.5679627125,222.89569336249997,50.0,48.0
792,222.8116598625,223.31165918749997,55.0,52.0
793,222.12258516249997,223.41249938749996,62.0,58.0
794,223.53434796249996,223.8410702375,55.0,56.0
795,223.78224678749996,223.8914903375,59.0,48.0
796,223.27594494999997,224.20031344999995,50.0,48.0
797,223.05745785,224.330565375,43.0,59.0
798,224.061658175,224.54485079999998,55.0,59.0
799,224.05535566249998,224.54485079999998,59.0,64.0
800,224.0637590125,224.61838011249998,62.0,60.0
801,224.5763633625,224.81165716249996,43.0,60.0
802,225.09947189999997,225.4587151125,66.0,56.0
803,225.10577441249995,225.54274861249996,59.0,56.0
804,225.11207692499997,225.557454475,62.0,58.0
805,225.83056334999998,225.98392448749996,59.0,58.0
806,226.10997473749995,226.3872852875,59.0,62.0
807,226.10787389999996,226.40619282499998,71.0,59.0
808,225.58476536249998,226.53854558749998,54.0,48.0
809,226.30745346249998,226.63728494999998,66.0,58.0
810,225.10157273749996,226.6814025375,47.0,62.0
811,226.57425982499996,226.83476367499998,62.0,60.0
812,226.8032511125,227.01543569999995,59.0,63.0
813,227.09106584999995,227.27383871249998,59.0,51.0
814,227.095267525,227.59946852499996,64.0,60.0
815,227.5889643375,227.9040899625,59.0,52.0
816,227.8284598125,227.94610671249995,64.0,55.0
817,227.3410655125,228.1729971625,47.0,46.0
818,228.08896366249996,228.38938342499995,59.0,59.0
819,228.08476198749997,228.5931646625,64.0,64.0
820,228.09106449999996,228.71921491249998,67.0,60.0
821,228.5931646625,229.12257571249995,59.0,64.0
822,228.85366851249995,229.12467654999995,64.0,57.0
823,228.31585411249995,229.14148324999996,47.0,54.0
824,227.0973683625,229.16249162499997,40.0,61.0
825,229.11837403749996,229.38307956249997,55.0,57.0
826,229.1267773875,229.72341523749998,64.0,59.0
827,229.61207084999995,229.93139814999995,55.0,58.0
828,229.8620705125,229.95660819999995,60.0,55.0
829,230.12887687499995,230.26963298749996,55.0,61.0
830,230.1351793875,230.5763552625,64.0,61.0
831,230.36627151249996,230.68139713749997,55.0,58.0
832,229.12467654999995,230.75702728749997,48.0,63.0
833,230.61837201249995,230.868371675,60.0,55.0
834,230.83685911249995,231.04064035,64.0,59.0
835,231.07215291249997,231.41248858749998,59.0,54.0
836,231.07425374999997,231.55744637499998,62.0,53.0
837,231.61837066249996,231.9229921,59.0,57.0
838,231.85576529999997,231.97341219999998,62.0,56.0
839,231.36627016249997,232.24442023749998,54.0,48.0
840,232.10156328749997,232.37047048749997,59.0,53.0
841,232.09736161249998,232.4797140375,66.0,61.0
842,232.30114284999996,232.57425172499995,54.0,44.0
843,231.07845542499996,232.63517601249998,47.0,60.0
844,232.5553441875,232.7780329625,62.0,61.0
845,232.78223463749998,232.90618404999998,59.0,50.0
846,233.05534351249997,233.56164535,57.0,54.0
847,233.05324267499998,233.5637461875,60.0,47.0
848,233.51122525,234.05534216249998,52.0,49.0
849,234.0238296,234.26752675,57.0,60.0
850,233.06164602499996,234.31584601249995,45.0,59.0
851,234.02172876249995,234.33685438749995,60.0,72.0
852,234.2192074875,234.3431569,52.0,59.0
853,234.48601384999995,234.77382858749996,57.0,60.0
854,234.72340848749997,234.89567716249996,60.0,61.0
855,234.97340814999995,235.23811367499997,62.0,58.0
856,234.97550898749995,235.31584466249996,57.0,58.0
857,235.72550797499997,235.84525571249998,57.0,58.0
858,235.4965166875,236.04273443749997,45.0,49.0
859,235.9839109875,236.2780282375,57.0,64.0
860,234.9797106625,236.32004498749995,38.0,62.0
861,236.2023980875,236.35575922499999,45.0,58.0
862,235.97760847499995,236.38096927499998,62.0,61.0
863,235.97550763749996,236.46500277499996,66.0,62.0
864,236.46500277499996,236.60365804999998,57.0,62.0
865,236.9650021,237.30323693749995,59.0,50.0
866,236.9650021,237.3326486625,55.0,53.0
867,236.960800425,237.37046373749996,62.0,54.0
868,237.4544972375,238.01121917499995,50.0,49.0
869,237.97760577499997,238.212899575,55.0,59.0
870,237.97760577499997,238.212899575,59.0,64.0
871,237.97970661249997,238.23390795,62.0,62.0
872,238.18138701249995,238.38516825,50.0,54.0
873,236.95449791249996,238.4334875125,43.0,59.0
874,238.44609253749996,238.78222653749998,55.0,59.0
875,238.90827678749997,239.21079738749995,59.0,58.0
876,238.90827678749997,239.24651162499998,55.0,59.0
877,238.91037762499997,239.25491497499996,62.0,58.0
878,239.6057548375,239.72550257499995,55.0,51.0
879,239.3620576875,239.94819135,50.0,43.0
880,239.88306538749998,240.1435692375,62.0,62.0
881,239.876762875,240.15407342499998,55.0,62.0
882,239.88096455,240.15407342499998,67.0,53.0
883,239.8788637125,240.16457761249995,59.0,69.0
884,238.9208818125,240.27382116249998,43.0,59.0
885,240.1225608625,240.28852702499995,50.0,56.0
886,240.37256052499998,240.51961914999998,55.0,69.0
887,240.6099551625,240.86415649999998,57.0,53.0
888,240.87466068749995,241.42928178749997,59.0,59.0
889,241.37886168749998,241.9839028875,54.0,54.0
890,241.89566771249997,242.17297826249995,59.0,67.0
891,241.89566771249997,242.179280775,66.0,63.0
892,241.8893652,242.18978496249997,71.0,60.0
893,241.89776854999997,242.204490825,62.0,69.0
894,242.1057514625,242.4754988625,54.0,58.0
895,240.8809632,242.50280974999998,47.0,59.0
896,242.3767595,242.73600271249995,59.0,62.0
897,242.61625497499995,242.77801946249997,62.0,59.0
898,242.84944793749997,243.2107919875,59.0,56.0
899,242.85995212499995,243.46709416249996,67.0,49.0
900,243.37255647499995,243.67717791249999,59.0,60.0
901,243.60785027499998,243.7191946625,64.0,59.0
902,243.11625429999998,243.93558092499995,47.0,47.0
903,243.8704549625,244.1645722125,59.0,61.0
904,244.09524457499998,244.27591659999996,47.0,58.0
905,242.868355475,244.3116308375,40.0,61.0
906,243.8725558,244.43558025,67.0,59.0
907,244.32843753749995,244.64776483749995,59.0,63.0
908,244.5805380375,244.99020134999995,64.0,62.0
909,245.30112529999997,245.5868392,60.0,55.0
910,245.54692328749996,245.84314137499996,62.0,58.0
911,245.79062043749997,245.99019999999996,64.0,59.0
912,245.0658315,246.338939025,55.0,50.0
913,246.01541004999996,246.3410398625,67.0,57.0
914,244.84314272499995,246.42927503749996,48.0,65.0
915,246.26120803749996,246.51751021249999,60.0,56.0
916,246.79482076249997,247.14566062499995,59.0,54.0
917,246.79692159999996,247.31372762499996,62.0,53.0
918,247.0763329875,247.48599629999995,54.0,49.0
919,246.79061908749998,247.59944152499997,47.0,59.0
920,247.30322343749998,247.79902108749997,59.0,58.0
921,247.53641639999995,247.8830545875,62.0,58.0
922,248.40826396249997,248.73809545,52.0,58.0
923,248.70028037499998,248.92086831249998,54.0,67.0
924,249.02591018749996,249.43347266249998,55.0,60.0
925,249.36414502499997,249.574228775,59.0,67.0
926,249.63305222499997,249.79691755,55.0,46.0
927,249.74019493749995,249.85994267499996,59.0,59.0
928,249.83263178749996,249.95868203749995,64.0,61.0
929,250.19397583749998,250.34523613749997,66.0,61.0
930,248.07633163749995,251.22758788749996,47.0,45.0
931,250.6057399875,251.27800798749996,67.0,52.0
932,247.82423113749996,251.29901636249997,40.0,64.0
933,251.99859525,253.37674464999998,52.0,51.0
934,251.82002406249995,253.5175007625,45.0,58.0
935,252.00279692499998,253.885147325,55.0,47.0
936,252.21077983749996,254.12044112499996,64.0,53.0
937,252.145653875,254.1246428,60.0,46.0
938,254.60993626249996,254.84523006249998,45.0,44.0
939,254.83052419999996,255.0322046,50.0,59.0
940,255.04691046249997,255.13724647499998,54.0,59.0
941,255.7233801375,256.08262334999995,60.0,58.0
942,256.0469091125,256.22337946249996,66.0,54.0
943,256.45026991249995,256.6603536625,69.0,50.0
944,255.46497712499996,257.296907425,57.0,46.0
945,255.24438918749996,257.3116132875,50.0,61.0
946,256.843126525,259.08472013749997,74.0,64.0
947,254.35363408749998,260.13934056249997,38.0,62.0
948,260.78009599999996,261.25908695,47.0,35.0
949,260.473373725,261.3578263125,40.0,59.0
950,261.128835025,261.49438074999995,52.0,61.0
951,261.42715395,261.58261592499997,55.0,54.0
952,261.76118711249995,262.54269866249996,54.0,51.0
953,262.12883367499995,262.6729505875,45.0,36.0
954,262.5048835875,262.78219413749997,50.0,51.0
955,261.7695904625,262.7990008375,38.0,60.0
956,264.027990775,264.26748625,52.0,53.0
957,264.43555325,264.65193951249995,55.0,48.0
958,263.64773918749995,266.43555054999996,43.0,32.0
959,263.238075875,266.51958405,36.0,56.0
960,264.9292500625,266.53428991249996,60.0,51.0
961,267.6477337875,268.17504399999996,55.0,48.0
962,267.75277566249997,268.4103378,62.0,51.0
963,268.0679012875,268.511178,50.0,39.0
964,267.70865807499996,268.532186375,59.0,46.0
965,268.43554785,268.93764801249995,55.0,55.0
966,267.6939522125,269.12672338749996,43.0,59.0
967,268.81159776249996,269.1666393,50.0,25.0
968,270.20865469999995,271.3515103,55.0,44.0
969,270.372520025,271.38302286249996,60.0,49.0
970,269.79689055,272.8830208375,50.0,45.0
971,269.27798368749995,272.92083591249997,43.0,59.0
972,270.9502503375,273.95024628749997,64.0,48.0
973,274.08259905,274.2821786125,55.0,46.0
974,274.27167442499996,274.4607498,57.0,49.0
975,274.5342791125,274.7779762625,59.0,49.0
976,274.78848044999995,274.95654744999996,62.0,50.0
977,275.07419434999997,275.22755548749996,67.0,46.0
978,275.338899875,275.4838576625,69.0,46.0
979,275.64142047499996,275.9754536375,71.0,41.0
980,275.918731025,276.08049551249997,74.0,53.0
981,276.120411425,276.25066334999997,71.0,43.0
982,276.20444492499996,276.288478425,74.0,52.0
983,276.25486502499996,276.410327,79.0,50.0
984,276.5804948375,276.733855975,81.0,44.0
985,276.94183888749996,277.347300525,83.0,28.0
986,277.3956197875,277.6309135875,86.0,35.0
987,278.2254506,278.3409966625,95.0,47.0
988,273.8620111125,279.02166801249996,50.0,44.0
989,273.58470056249996,279.0846931375,43.0,58.0
