,start,end,pitch,velocity
0,27.316322739583335,27.860569552083334,69.0,74.0
1,27.847295239583335,28.41366590625,71.0,80.0
2,28.378267739583336,28.962337489583334,67.0,75.0
3,28.909240239583333,29.49773476041667,64.0,80.0
4,29.440212739583334,31.364988052083334,62.0,80.0
5,31.564102739583333,32.617198197916665,74.0,84.0
6,32.626047739583335,33.200556902083335,76.0,76.0
7,33.15837223125,33.689010985416665,79.0,79.0
8,33.69123123125,35.49629109375,76.0,80.0
9,35.82266723125,36.3463544125,74.0,80.0
10,36.35520395416667,36.95033563125,76.0,77.0
11,36.886176454166666,37.44369757916667,74.0,81.0
12,37.41714895416666,37.97688246458333,71.0,80.0
13,37.94812145416667,38.578651297916664,67.0,72.0
14,38.479093954166665,39.05210177708333,69.0,74.0
15,39.01006645416666,39.574224735416664,74.0,81.0
16,39.541038954166666,40.09856007916667,71.0,72.0
17,40.07201145416666,44.041030891666665,69.0,72.0
18,44.31979145416666,45.439258475,74.0,86.0
19,45.38173645416666,45.952531891666666,76.0,76.0
20,45.91270895416667,46.46580530833333,79.0,78.0
21,46.443681454166665,48.3197842875,76.0,81.0
22,48.56757145416667,49.11181826666667,69.0,75.0
23,49.098543954166665,49.658277464583335,71.0,74.0
24,49.62951645416666,50.162701339583336,67.0,76.0
25,50.16048895416667,50.71801007916667,64.0,78.0
26,50.691461454166664,52.713581725,62.0,79.0
27,52.81535145416667,53.87065929791667,71.0,75.0
28,53.87729645416667,54.43481757916666,67.0,76.0
29,54.408268954166665,54.98127677708334,64.0,81.0
30,54.93924145416666,55.558709370833334,62.0,77.0
31,55.47021395416667,55.98348737083333,64.0,82.0
32,56.00118645416667,56.57954989583333,69.0,67.0
33,56.53275848333333,57.138818683333334,71.0,79.0
34,57.06751748333333,57.63347075833333,67.0,77.0
35,57.602276483333334,61.19287367083333,64.0,81.0
36,61.372085004166664,61.92033434375,69.0,74.0
37,61.907060031250005,62.47343069791667,71.0,80.0
38,62.43803253125,63.02210228125,67.0,75.0
39,62.96900503125,63.557499552083335,64.0,80.0
40,63.49997753125,65.42475284375,62.0,80.0
41,65.62386753125,66.67696298958333,74.0,84.0
42,66.68581253125001,67.25882035416667,76.0,76.0
43,67.21678503125,67.74554514583333,79.0,79.0
44,67.74775753125,69.54642687500001,76.0,80.0
45,69.87164753125,70.39377048958333,74.0,80.0
46,70.40262003125,70.99775170833334,76.0,77.0
47,70.93359253125,71.49111365625001,74.0,81.0
48,71.46456503125,72.02429854166667,71.0,80.0
49,71.99553753125,72.626067375,67.0,72.0
50,72.52651003125,73.09951785416666,69.0,74.0
51,73.05748253125,73.6216408125,74.0,81.0
52,73.58845503125,74.14597615625,71.0,72.0
53,74.11942753125,78.08844696875,69.0,72.0
54,78.36720753125,79.48667455208334,74.0,86.0
55,79.42915253125,79.99994796875,76.0,76.0
56,79.96012503125,80.51322138541667,79.0,78.0
57,80.49109753125,82.36720036458334,76.0,81.0
58,82.61498753125,83.15923434375,69.0,75.0
59,83.14596003125,83.70569354166668,71.0,74.0
60,83.67693253125,84.21011741666666,67.0,76.0
61,84.20790503125001,84.76542615625,64.0,78.0
62,84.73887753125,86.76099780208334,62.0,79.0
63,86.86276753125,87.918075375,71.0,75.0
64,87.92471253125001,88.48223365625,67.0,76.0
65,88.45568503125,89.02869285416666,64.0,81.0
66,88.98665753125,89.60716673541666,62.0,77.0
67,89.51804023541666,90.03497393541666,64.0,82.0
68,90.05279923541666,90.63514975208334,69.0,67.0
69,90.58802229583334,91.1984350625,71.0,79.0
70,91.12662179583333,91.69972273125,67.0,77.0
71,91.66787561875,95.28450275625,64.0,81.0
72,95.46149358958334,96.58096061041667,74.0,86.0
73,96.52343858958334,97.09423402708333,76.0,76.0
74,97.05441108958334,97.60750744375001,79.0,78.0
75,97.58538358958334,99.46148642291668,76.0,81.0
76,99.70927358958333,100.25352040208334,69.0,75.0
77,100.24024608958334,100.7999796,71.0,74.0
78,100.77121858958334,101.304403475,67.0,76.0
79,101.30219108958335,101.85971221458334,64.0,78.0
80,101.83316358958334,103.85528386041668,62.0,79.0
81,103.95705358958334,105.01236143333334,71.0,75.0
82,105.01899858958333,105.57651971458334,67.0,76.0
83,105.54997108958334,106.1229789125,64.0,81.0
84,106.08094358958334,106.70041150625,62.0,77.0
85,106.61191608958333,107.12518950625001,64.0,82.0
86,107.14288858958334,107.72032118333334,69.0,67.0
87,107.67386108958334,108.27562992291666,71.0,79.0
88,108.20483358958334,108.76791641875,67.0,77.0
89,108.73669431875001,112.34389815208334,64.0,81.0
90,146.59223656250003,147.14000185,70.0,74.0
91,147.12672753750002,147.6930982041667,72.0,80.0
92,147.6577000375,148.2417697875,68.0,75.0
93,148.1886725375,148.77716705833333,65.0,80.0
94,148.71964503750002,150.64442035000002,63.0,80.0
95,150.8435350375,151.89663049583334,75.0,84.0
96,151.9054800375,152.47848786041666,77.0,76.0
97,152.4364525375,152.96521265208335,80.0,79.0
98,152.96742503750002,154.76609438125,77.0,80.0
99,155.0913150375,155.61343799583335,75.0,80.0
100,155.6222875375,156.21741921458334,77.0,77.0
101,156.15326003750002,156.7107811625,75.0,81.0
102,156.6842325375,157.24396604791667,72.0,80.0
103,157.2152050375,157.84573488125,68.0,72.0
104,157.74617753750002,158.31918536041667,70.0,74.0
105,158.2771500375,158.84130831875,75.0,81.0
106,158.8081225375,159.36564366250002,72.0,72.0
107,159.33909503750002,163.30811447500002,70.0,72.0
108,163.58687503750002,164.70634205833335,75.0,86.0
109,164.6488200375,165.219615475,77.0,76.0
110,165.17979253750002,165.73288889166668,80.0,78.0
111,165.7107650375,167.58686787083334,77.0,81.0
112,167.8346550375,168.37890185,70.0,75.0
113,168.36562753750002,168.92536104791668,72.0,74.0
114,168.8966000375,169.42978492291667,68.0,76.0
115,169.4275725375,169.98509366250002,65.0,78.0
116,169.95854503750002,171.98066530833336,63.0,79.0
117,172.0824350375,173.13774288125,72.0,75.0
118,173.1443800375,173.7019011625,68.0,76.0
119,173.6753525375,174.24836036041668,65.0,81.0
120,174.2063250375,174.82647049583335,63.0,77.0
121,174.73773941250002,175.25237969583335,65.0,82.0
122,175.27012591250002,175.84909623125,70.0,67.0
123,175.80251241250002,176.4058837791667,72.0,79.0
124,176.33489891250002,176.89834129166667,68.0,77.0
125,176.8672854125,180.41652874583335,65.0,81.0
126,180.5939909125,181.139687075,70.0,74.0
127,181.1263774125,181.69425634583334,72.0,80.0
128,181.6587639125,182.2443890625,68.0,75.0
129,182.1911504125,182.78121211666667,65.0,80.0
130,182.7235369125,184.653437975,63.0,80.0
131,184.8530829125,185.90898280416667,75.0,84.0
132,185.91785591250002,186.49238967708334,77.0,76.0
133,186.45024241250002,186.98041063541666,80.0,79.0
134,186.98262891250002,188.78608818125002,77.0,80.0
135,189.1121749125,189.63568830416668,75.0,80.0
136,189.6445614125,190.24127794791667,77.0,77.0
137,190.1769479125,190.7359537375,75.0,81.0
138,190.7093344125,191.27055851458334,72.0,80.0
139,191.2417209125,191.87392988125,68.0,72.0
140,191.7741074125,192.34864117708335,70.0,74.0
141,192.3064939125,192.87215456875,75.0,81.0
142,192.8388804125,193.39788623750002,72.0,72.0
143,193.3712669125,197.35085600000002,70.0,72.0
144,197.63035891250001,198.75409277916668,75.0,86.0
145,198.6963150375,199.2696480125,77.0,76.0
146,199.2296480375,199.78520324583334,80.0,78.0
147,199.7629810375,201.64742430416666,77.0,81.0
148,201.89631303750002,202.4429793625,70.0,75.0
149,202.42964603750002,202.99186790833335,72.0,74.0
150,202.96297903750002,203.49853425833334,68.0,76.0
151,203.49631203750002,204.0563116875,65.0,78.0
152,204.02964503750002,206.06075487916667,63.0,79.0
153,206.1629770375,207.222976375,72.0,75.0
154,207.2296430375,207.78964268750002,68.0,76.0
155,207.7629760375,208.33853123333336,65.0,81.0
156,208.2963090375,208.91853087083334,63.0,77.0
157,208.8296420375,209.34519727083335,65.0,82.0
158,209.3629750375,209.94297467500002,70.0,67.0
159,209.8963080375,210.50075210416668,72.0,79.0
160,210.4296410375,210.99408512916668,68.0,77.0
161,210.9629740375,214.51852737083334,65.0,81.0
162,215.56074894166667,216.73185932083334,75.0,91.0
163,216.7229704375,217.38074780416667,77.0,78.0
164,217.32741450416668,217.83185863333335,80.0,81.0
165,217.83185863333335,220.03630170000002,77.0,79.0
166,220.23852379583334,220.80519010833333,72.0,83.0
167,220.75852347083335,221.20074541666668,75.0,84.0
168,221.3474119916667,221.91185608333336,68.0,86.0
169,221.942967175,222.5763001125,65.0,84.0
170,222.556300125,225.52518715833335,63.0,87.0
171,225.9029647,226.28963112500003,70.0,84.0
172,226.25185337083335,227.58963031250002,72.0,79.0
173,227.8029635125,228.14518552083334,70.0,65.0
174,228.06518557083334,228.75851847083334,68.0,76.0
175,228.51407417916667,229.09629603750003,65.0,69.0
176,229.22962928750002,229.78074005416667,63.0,74.0
177,229.74962896250003,230.4074063291667,65.0,77.0
178,230.3229619375,234.01407074166667,72.0,78.0
179,235.969625075,239.5096228625,65.0,73.0
