,start,end,pitch,velocity
0,46.539301287499995,46.8405340375,70.0,88.0
1,46.817362287499996,47.0942647,69.0,88.0
2,47.0954232875,47.3723257,69.0,88.0
3,47.3734842875,47.6503867,69.0,88.0
4,47.6515452875,47.9284477,69.0,88.0
5,47.9296062875,48.207667287499994,69.0,88.0
6,48.207667287499994,48.519327325,67.0,88.0
7,48.485728287499995,49.0418502875,69.0,88.0
8,49.0418502875,49.3199112875,70.0,88.0
9,49.3199112875,49.8760332875,69.0,88.0
10,49.8760332875,50.430996699999994,67.0,88.0
11,50.432155287499995,50.9882772875,67.0,88.0
12,50.9882772875,51.2651797,65.0,88.0
13,51.2663382875,51.5432407,65.0,88.0
14,51.5443992875,51.8213017,65.0,88.0
15,51.8224602875,52.0993627,65.0,91.0
16,52.100521287499994,52.377423699999994,65.0,91.0
17,52.378582287499995,52.656643287499996,65.0,92.0
18,52.656643287499996,52.9347042875,63.0,92.0
19,52.9347042875,53.4908262875,65.0,92.0
20,53.4908262875,53.7688872875,67.0,92.0
21,53.7688872875,54.325009287499995,65.0,92.0
22,54.325009287499995,54.879972699999996,63.0,92.0
23,54.8811312875,55.4581078625,63.0,92.0
24,55.4372532875,55.7141557,62.0,92.0
25,55.7153142875,55.993375287499994,62.0,92.0
26,55.993375287499994,56.270277699999994,60.0,92.0
27,56.271436287499995,57.1056192875,60.0,92.0
28,57.1056192875,57.6617412875,70.0,92.0
29,57.6617412875,58.217863287499995,69.0,92.0
30,58.217863287499995,58.7739852875,70.0,92.0
31,58.7739852875,59.3382174,69.0,92.0
32,59.3301072875,64.3352052875,67.0,92.0
33,64.3352052875,64.6121077,69.0,92.0
34,64.6132662875,64.89016869999999,69.0,92.0
35,64.89132728749999,65.1682297,69.0,92.0
36,65.1693882875,65.44629069999999,69.0,92.0
37,65.44744928749999,65.7243517,69.0,92.0
38,65.7255102875,66.0313773875,69.0,92.0
39,66.0035712875,66.3175485,67.0,92.0
40,66.2816322875,66.866718975,69.0,92.0
41,66.83775428749999,67.1158152875,70.0,92.0
42,67.1158152875,67.6719372875,69.0,93.0
43,67.6719372875,68.2269007,67.0,93.0
44,68.2280592875,68.78418128749999,67.0,93.0
45,68.78418128749999,69.0610837,65.0,93.0
46,69.0622422875,69.33914469999999,65.0,94.0
47,69.34030328749999,69.6172057,65.0,94.0
48,69.6183642875,69.8952667,65.0,94.0
49,69.8964252875,70.1733277,65.0,94.0
50,70.1744862875,70.4525472875,65.0,94.0
51,70.4525472875,70.73060828749999,63.0,94.0
52,70.73060828749999,71.30642627499999,65.0,94.0
53,71.28673028749999,71.5647912875,67.0,94.0
54,71.5647912875,72.1568295,65.0,95.0
55,72.1209132875,72.67587669999999,63.0,95.0
56,72.67703528749999,73.23315728749999,63.0,95.0
57,73.23315728749999,73.5100597,62.0,95.0
58,73.5112182875,73.7892792875,62.0,95.0
59,73.7892792875,74.0661817,60.0,95.0
60,74.0673402875,74.9015232875,60.0,95.0
61,74.9015232875,75.4576452875,70.0,96.0
62,75.4576452875,76.0137672875,69.0,95.0
63,76.0137672875,76.594219625,70.0,98.0
64,76.56988928749999,77.12948705,69.0,90.0
65,77.12601128749999,81.2957677,67.0,93.0
66,81.2969262875,81.5749872875,67.0,65.0
67,81.5749872875,81.8530482875,70.0,74.0
68,81.8530482875,82.96529228749999,74.0,85.0
69,82.96529228749999,84.0775362875,72.0,87.0
70,84.0775362875,84.91171928749999,67.0,80.0
71,84.91171928749999,85.1886217,70.0,105.0
72,85.1897802875,86.30202428749999,70.0,95.0
73,86.30202428749999,87.4142682875,74.0,105.0
74,87.4142682875,88.5265122875,72.0,101.0
75,88.5265122875,89.4058802,67.0,90.0
76,89.3606952875,89.6375977,74.0,97.0
77,89.6387562875,90.4717807,74.0,100.0
78,90.4729392875,90.74984169999999,74.0,93.0
79,90.75100028749999,91.0290612875,74.0,89.0
80,91.0290612875,91.30596369999999,72.0,72.0
81,91.3071222875,91.61646515,72.0,68.0
82,91.5851832875,91.8620857,70.0,56.0
83,91.8632442875,92.69742728749999,70.0,63.0
84,92.69742728749999,92.9743297,72.0,90.0
85,92.9754882875,93.2535492875,72.0,84.0
86,93.2535492875,93.5304517,70.0,73.0
87,93.5316102875,93.815464225,70.0,66.0
88,93.8096712875,94.08657369999999,69.0,62.0
89,94.08773228749999,94.64385428749999,69.0,66.0
90,94.64385428749999,94.9219152875,67.0,71.0
91,94.9219152875,98.53670828749999,69.0,90.0
92,98.53670828749999,98.95379978749999,67.0,90.0
93,98.95379978749999,99.3708912875,70.0,84.0
94,99.3708912875,99.6489522875,74.0,85.0
95,99.6489522875,101.3173182875,79.0,87.0
96,101.3173182875,101.5942207,81.0,93.0
97,101.5953792875,102.98568428749999,81.0,94.0
98,102.98568428749999,103.40277578749999,77.0,103.0
99,103.40277578749999,103.81986728749999,72.0,91.0
100,103.81986728749999,104.0979282875,69.0,84.0
101,104.0979282875,105.4882332875,72.0,98.0
102,105.4882332875,106.0443552875,77.0,97.0
103,106.0443552875,107.4346602875,74.0,100.0
104,107.4346602875,107.86681342499999,67.0,79.0
105,107.85175178749999,108.26884328749999,70.0,87.0
106,108.26884328749999,108.57007603749999,74.0,79.0
107,108.5469042875,109.9372092875,79.0,73.0
108,109.9372092875,110.4933312875,74.0,87.0
109,110.4933312875,110.8316388375,70.0,63.0
110,110.77139228749999,111.8824777,72.0,85.0
111,111.8836362875,112.3088379,72.0,101.0
112,112.16169728749999,112.71781928749999,77.0,89.0
113,112.71781928749999,112.9947217,72.0,85.0
114,112.9958802875,113.55200228749999,72.0,93.0
115,113.55200228749999,113.8289047,74.0,99.0
116,113.8300632875,116.3326122875,74.0,97.0
117,116.3326122875,116.79025435,67.0,91.0
118,116.7497037875,117.1667952875,70.0,95.0
119,117.1667952875,117.44485628749999,74.0,96.0
120,117.44485628749999,118.8351612875,79.0,90.0
121,118.8351612875,119.39012469999999,81.0,103.0
122,119.39128328749999,119.62300078749999,81.0,96.0
123,119.53031378749999,119.6716614625,82.0,90.0
124,119.6693442875,120.7815882875,81.0,66.0
125,120.7815882875,121.1986797875,77.0,93.0
126,121.1986797875,121.47674078749999,72.0,84.0
127,121.47674078749999,121.89383228749999,69.0,66.0
128,121.89383228749999,123.28413728749999,72.0,90.0
129,123.28413728749999,123.84025928749999,77.0,87.0
130,123.84025928749999,124.25735078749999,74.0,91.0
131,124.25735078749999,124.39638128749999,72.0,80.0
132,124.39638128749999,125.23056428749999,70.0,66.0
133,125.23056428749999,125.6476557875,67.0,74.0
134,125.6476557875,125.9257167875,70.0,91.0
135,125.9257167875,126.34280828749999,74.0,93.0
136,126.34280828749999,127.73311328749999,79.0,94.0
137,127.73311328749999,128.5672962875,74.0,103.0
138,128.5672962875,129.6783817,72.0,98.0
139,129.6795402875,130.0966317875,72.0,108.0
140,130.0966317875,130.5229919875,77.0,94.0
141,130.5137232875,130.7906257,72.0,97.0
142,130.79178428749998,131.3479062875,72.0,105.0
143,131.3479062875,131.6248087,74.0,97.0
144,131.6259672875,134.9615407,74.0,99.0
145,134.9626992875,135.2407602875,74.0,91.0
146,135.2407602875,135.5188212875,72.0,90.0
147,135.5188212875,137.1871872875,70.0,95.0
148,137.1871872875,137.4652482875,74.0,96.0
149,137.4652482875,137.74330928749998,72.0,84.0
150,137.74330928749998,138.57749228749998,70.0,85.0
151,138.57749228749998,138.8555532875,74.0,87.0
152,138.8555532875,139.6885777,69.0,93.0
153,139.68973628749998,139.9677972875,69.0,98.0
154,139.9677972875,143.8606512875,67.0,93.0
155,143.8606512875,144.1468224,74.0,91.0
156,144.1387122875,144.4677511375,72.0,84.0
157,144.41677328749998,146.0851392875,70.0,94.0
158,146.0851392875,146.36320028749998,74.0,99.0
159,146.36320028749998,146.6412612875,72.0,94.0
160,146.6412612875,147.47544428749998,70.0,92.0
161,147.47544428749998,147.75929822499998,74.0,97.0
162,147.7535052875,148.5865297,69.0,96.0
163,148.5876882875,149.42187128749998,69.0,95.0
164,149.42187128749998,153.0366642875,67.0,94.0
165,180.0085812875,180.3098140375,70.0,86.0
166,180.2866422875,180.5635447,69.0,86.0
167,180.56470328749998,180.8416057,69.0,87.0
168,180.8427642875,181.11966669999998,69.0,89.0
169,181.1208252875,181.67694728749998,69.0,90.0
170,181.67694728749998,182.2330692875,67.0,92.0
171,182.2330692875,182.51113028749998,70.0,93.0
172,182.51113028749998,182.9270632,69.0,94.0
173,182.92822178749998,183.34531328749998,69.0,96.0
174,183.34531328749998,183.90027669999998,67.0,96.0
175,183.9014352875,184.45755728749998,67.0,97.0
176,184.45755728749998,184.7344597,65.0,99.0
177,184.7356182875,185.01252069999998,65.0,99.0
178,185.0136792875,185.2905817,65.0,100.0
179,185.29174028749998,185.5686427,65.0,100.0
180,185.56980128749998,185.84670369999998,65.0,100.0
181,185.8478622875,186.1259232875,65.0,100.0
182,186.1259232875,186.40398428749998,63.0,100.0
183,186.40398428749998,186.9601062875,65.0,100.0
184,186.9601062875,187.23816728749998,67.0,100.0
185,187.23816728749998,187.7942892875,65.0,100.0
186,187.7942892875,188.48828319999998,63.0,101.0
187,188.4894417875,188.9065332875,63.0,102.0
188,188.9065332875,189.1834357,62.0,103.0
189,189.18459428749998,189.46265528749998,62.0,104.0
190,189.46265528749998,189.73955769999998,60.0,104.0
191,189.7407162875,190.5748992875,60.0,102.0
192,190.5748992875,191.13102128749998,70.0,102.0
193,191.13102128749998,191.6871432875,69.0,100.0
194,191.6871432875,192.24326528749998,70.0,97.0
195,192.24326528749998,192.8086559875,69.0,99.0
196,192.7993872875,197.8044852875,67.0,77.0
197,197.8044852875,198.0813877,69.0,99.0
198,198.08254628749998,198.3594487,69.0,99.0
199,198.3606072875,198.63750969999998,69.0,100.0
200,198.6386682875,198.9155707,69.0,101.0
201,198.91672928749998,199.1936317,69.0,101.0
202,199.19479028749998,199.501815975,69.0,102.0
203,199.4728512875,199.7879870875,67.0,102.0
204,199.7509122875,200.33715756249998,69.0,102.0
205,200.3070342875,200.5850952875,74.0,103.0
206,200.5850952875,201.14121728749998,69.0,104.0
207,201.14121728749998,201.69618069999999,67.0,104.0
208,201.6973392875,202.2534612875,67.0,104.0
209,202.2534612875,202.53036369999998,65.0,104.0
210,202.5315222875,202.8084247,65.0,105.0
211,202.80958328749998,203.0864857,65.0,105.0
212,203.08764428749998,203.36454669999998,65.0,105.0
213,203.3657052875,203.64260769999999,65.0,105.0
214,203.6437662875,203.92182728749998,65.0,106.0
215,203.92182728749998,204.1998882875,63.0,95.0
216,204.1998882875,204.7768648625,65.0,95.0
217,204.75601028749998,205.03407128749998,67.0,95.0
218,205.03407128749998,205.6272680875,65.0,95.0
219,205.5901932875,206.1451567,63.0,95.0
220,206.1463152875,206.70243728749998,63.0,95.0
221,206.70243728749998,206.9793397,62.0,96.0
222,206.98049828749998,207.3964312,62.0,96.0
223,207.2585592875,207.53546169999998,60.0,96.0
224,207.5366202875,208.3708032875,60.0,96.0
225,208.3708032875,208.92692528749998,70.0,96.0
226,208.92692528749998,209.4830472875,69.0,96.0
227,209.4830472875,210.06465821249998,70.0,96.0
228,210.0391692875,210.59992563749998,69.0,96.0
229,210.59529128749998,214.4869867,67.0,98.0
230,214.48814528749998,214.76620628749998,67.0,99.0
231,214.76620628749998,215.3223282875,70.0,99.0
232,215.3223282875,216.43457228749998,74.0,99.0
233,216.43457228749998,217.54681628749998,72.0,99.0
234,217.54681628749998,218.38099928749998,67.0,98.0
235,218.38099928749998,218.6579017,70.0,99.0
236,218.65906028749998,219.7713042875,70.0,102.0
237,219.7713042875,220.8835482875,74.0,109.0
238,220.8835482875,221.9957922875,72.0,111.0
239,221.9957922875,222.8299752875,67.0,111.0
240,222.8299752875,223.10687769999998,74.0,111.0
241,223.1080362875,223.94106069999998,74.0,111.0
242,223.9422192875,224.2191217,74.0,111.0
243,224.22028028749997,224.49834128749998,74.0,111.0
244,224.49834128749998,224.77524369999998,72.0,111.0
245,224.7764022875,225.0544632875,72.0,111.0
246,225.0544632875,225.3313657,70.0,111.0
247,225.33252428749998,226.16670728749997,70.0,111.0
248,226.16670728749997,226.4436097,72.0,90.0
249,226.44476828749998,226.7228292875,72.0,84.0
250,226.7228292875,226.99973169999998,70.0,73.0
251,227.0008902875,227.28590281249998,70.0,66.0
252,227.27895128749998,227.5558537,69.0,62.0
253,227.5570122875,227.8350732875,69.0,66.0
254,227.8350732875,228.11313428749997,67.0,71.0
255,228.11313428749997,228.39119528749998,70.0,90.0
256,228.39119528749998,228.80828678749998,69.0,90.0
257,228.80828678749998,228.9473172875,70.0,90.0
258,228.9473172875,232.00598828749997,69.0,90.0
259,232.00598828749997,232.42192119999999,67.0,90.0
260,232.28404928749998,232.8401712875,70.0,84.0
261,232.8401712875,233.11823228749998,74.0,85.0
262,233.11823228749998,234.7865982875,79.0,87.0
263,234.7865982875,235.0635007,81.0,93.0
264,235.06465928749998,236.4549642875,81.0,94.0
265,236.4549642875,236.7330252875,77.0,103.0
266,236.7330252875,237.1501167875,72.0,91.0
267,237.1501167875,237.5672082875,69.0,84.0
268,237.5672082875,238.95751328749998,72.0,98.0
269,238.95751328749998,239.5136352875,77.0,97.0
270,239.5136352875,240.90394028749998,74.0,100.0
271,240.90394028749998,241.32103178749998,67.0,79.0
272,241.32103178749998,241.73812328749997,70.0,87.0
273,241.73812328749997,242.01618428749998,74.0,79.0
274,242.01618428749998,243.4064892875,79.0,73.0
275,243.4064892875,243.8235807875,74.0,87.0
276,243.8235807875,244.2406722875,70.0,63.0
277,244.2406722875,245.35175769999998,72.0,85.0
278,245.3529162875,245.7700077875,72.0,101.0
279,245.7700077875,246.1870992875,77.0,89.0
280,246.1870992875,246.46400169999998,72.0,85.0
281,246.4651602875,247.0212822875,72.0,93.0
282,247.0212822875,247.29818469999998,74.0,99.0
283,247.2993432875,249.80189228749998,74.0,97.0
284,249.80189228749998,250.26069293749998,67.0,91.0
285,250.21898378749998,250.63607528749998,70.0,95.0
286,250.63607528749998,250.91413628749999,74.0,96.0
287,250.91413628749999,252.4434717875,79.0,90.0
288,252.4434717875,252.9984352,81.0,103.0
289,252.99959378749998,253.1386242875,81.0,96.0
290,253.1386242875,253.28113055,82.0,90.0
291,253.27765478749998,254.2508682875,81.0,66.0
292,254.2508682875,254.6679597875,77.0,93.0
293,254.6679597875,254.94602078749998,72.0,84.0
294,254.94602078749998,255.36311228749997,69.0,66.0
295,255.36311228749997,256.89128919999996,72.0,90.0
296,256.7534172875,257.3095392875,77.0,87.0
297,257.3095392875,257.72663078749997,74.0,91.0
298,257.72663078749997,257.86566128749996,72.0,80.0
299,257.86566128749996,258.6998442875,70.0,66.0
300,258.6998442875,259.1169357875,67.0,74.0
301,259.1169357875,259.5340272875,70.0,91.0
302,259.5340272875,259.8120882875,74.0,93.0
303,259.8120882875,261.2023932875,79.0,94.0
304,261.2023932875,262.0365762875,74.0,103.0
305,262.0365762875,263.14766169999996,72.0,98.0
306,263.1488202875,263.5659117875,72.0,108.0
307,263.5659117875,263.98300328749997,77.0,94.0
308,263.98300328749997,264.2599057,72.0,97.0
309,264.2610642875,264.6781557875,72.0,105.0
310,264.6781557875,265.0940887,74.0,97.0
311,265.0952472875,268.43082069999997,74.0,99.0
312,268.4319792875,268.71004028749996,74.0,91.0
313,268.71004028749996,268.9881012875,72.0,90.0
314,268.9881012875,270.6564672875,70.0,95.0
315,270.6564672875,270.9345282875,74.0,96.0
316,270.9345282875,271.2125892875,72.0,84.0
317,271.2125892875,272.0456137,70.0,85.0
318,271.90774178749996,272.3248332875,74.0,87.0
319,272.3248332875,273.15785769999997,69.0,93.0
320,273.1590162875,273.9931992875,69.0,98.0
321,273.9931992875,276.4945897,67.0,93.0
322,276.49574828749996,276.9128397875,67.0,90.0
323,276.9128397875,277.32993128749996,70.0,84.0
324,277.32993128749996,277.6079922875,74.0,85.0
325,277.6079922875,279.2763582875,79.0,87.0
326,279.2763582875,279.5532607,81.0,93.0
327,279.55441928749997,280.9447242875,81.0,94.0
328,280.9447242875,281.22278528749996,77.0,103.0
329,281.22278528749996,281.6398767875,72.0,91.0
330,281.6398767875,282.0569682875,69.0,84.0
331,282.0569682875,283.44727328749997,72.0,98.0
332,283.44727328749997,284.0033952875,77.0,97.0
333,284.0033952875,285.3937002875,74.0,100.0
334,285.3937002875,285.81079178749997,67.0,79.0
335,285.81079178749997,286.2278832875,70.0,87.0
336,286.2278832875,286.5059442875,74.0,79.0
337,286.5059442875,287.8962492875,79.0,73.0
338,287.8962492875,288.3133407875,74.0,87.0
339,288.3133407875,288.7304322875,70.0,63.0
340,288.7304322875,289.8415177,72.0,85.0
341,289.8426762875,290.2597677875,72.0,101.0
342,290.2597677875,290.6768592875,77.0,89.0
343,290.6768592875,290.9537617,72.0,85.0
344,290.9549202875,291.5110422875,72.0,93.0
345,291.5110422875,291.78794469999997,74.0,99.0
346,291.7891032875,294.29165228749997,74.0,97.0
347,294.29165228749997,294.7504529375,67.0,91.0
348,294.7087437875,295.12583528749997,70.0,95.0
349,295.12583528749997,295.4038962875,74.0,96.0
350,295.4038962875,296.9320732,79.0,90.0
351,296.79420128749996,297.34916469999996,81.0,103.0
352,297.3503232875,297.48935378749997,81.0,96.0
353,297.48935378749997,297.63186005,82.0,90.0
354,297.6283842875,298.7406282875,81.0,88.0
355,298.7406282875,299.15771978749996,77.0,93.0
356,299.15771978749996,299.4357807875,72.0,84.0
357,299.4357807875,299.85287228749996,69.0,66.0
358,299.85287228749996,301.3810492,72.0,90.0
359,301.2431772875,301.7992992875,77.0,87.0
360,301.7992992875,302.21639078749996,74.0,91.0
361,302.21639078749996,302.3554212875,72.0,80.0
362,302.3554212875,303.1896042875,70.0,66.0
363,303.1896042875,303.6066957875,67.0,74.0
364,303.6066957875,304.0237872875,70.0,91.0
365,304.0237872875,304.3018482875,74.0,93.0
366,304.3018482875,305.6921532875,79.0,94.0
367,305.6921532875,306.5263362875,74.0,103.0
368,306.5263362875,307.6374217,72.0,98.0
369,307.63858028749996,308.0556717875,72.0,108.0
370,308.0556717875,308.47276328749996,77.0,94.0
371,308.47276328749996,308.7496657,72.0,97.0
372,308.7508242875,309.16791578749996,72.0,105.0
373,309.16791578749996,309.5838487,74.0,97.0
374,309.5850072875,312.92058069999996,74.0,99.0
375,312.9217392875,313.1998002875,74.0,91.0
376,313.1998002875,313.4778612875,72.0,90.0
377,313.4778612875,315.1462272875,70.0,95.0
378,315.1462272875,315.42428828749996,74.0,96.0
379,315.42428828749996,315.7023492875,72.0,84.0
380,315.7023492875,316.5353737,70.0,85.0
381,316.5365322875,316.8145932875,74.0,87.0
382,316.8145932875,317.64761769999996,69.0,93.0
383,317.64877628749997,318.48295928749997,69.0,98.0
384,318.48295928749997,320.9855082875,67.0,93.0
385,320.9855082875,321.8196912875,67.0,93.0
386,321.8196912875,322.0977522875,74.0,90.0
387,322.0977522875,322.381606225,72.0,89.0
388,322.37581328749997,324.04417928749996,70.0,79.0
389,324.04417928749996,324.3222402875,74.0,105.0
390,324.3222402875,324.6535963125,72.0,90.0
391,324.6003012875,325.43332569999995,74.0,97.0
392,325.43448428749997,325.9906062875,74.0,103.0
393,325.9906062875,326.5467282875,70.0,99.0
394,326.5467282875,328.4931552875,69.0,99.0
395,328.4931552875,328.63218578749996,70.0,52.0
396,328.63218578749996,329.0492772875,69.0,52.0
397,329.0492772875,330.99570428749996,67.0,77.0
