,start,end,pitch,velocity
0,6.220456287499999,6.544860787499999,58.0,75.0
1,6.220456287499999,6.55760525,63.0,88.0
2,6.220456287499999,6.5703497125,67.0,82.0
3,6.7765782875,7.1774495625,58.0,69.0
4,7.0546392875,7.5296601625,63.0,75.0
5,6.4985172874999995,7.6640563125,55.0,58.0
6,7.6107612875,8.0023638625,58.0,80.0
7,7.6107612875,8.0023638625,67.0,76.0
8,7.888822287499999,8.070720524999999,55.0,67.0
9,6.220456287499999,8.097368037499999,51.0,60.0
10,8.1668832875,8.4843362625,70.0,73.0
11,8.4449442875,8.93966115,41.0,72.0
12,8.7230052875,9.0091764,48.0,63.0
13,9.001066287499999,9.368338524999999,53.0,55.0
14,8.4449442875,9.4575497625,65.0,70.0
15,8.4449442875,9.5873115625,69.0,73.0
16,8.4449442875,9.6220691875,60.0,69.0
17,9.8352492875,10.043795037499999,60.0,57.0
18,9.2791272875,10.21874175,55.0,59.0
19,9.557188287499999,10.219900337499999,57.0,66.0
20,10.1133102875,10.382102587499999,65.0,63.0
21,10.6694322875,10.9150528375,38.0,72.0
22,10.947493287499999,11.2858008375,50.0,63.0
23,10.6694322875,11.500139525,69.0,66.0
24,10.6694322875,11.503615287499999,65.0,70.0
25,10.6694322875,11.593985112499999,60.0,62.0
26,11.7816762875,12.143155587499999,60.0,63.0
27,12.059737287499999,12.281027499999999,65.0,75.0
28,12.3377982875,12.3737145,65.0,43.0
29,11.503615287499999,12.38761755,57.0,67.0
30,11.2255542875,12.399203425,53.0,53.0
31,12.3377982875,12.517379349999999,67.0,76.0
32,12.6158592875,12.858004075,69.0,58.0
33,12.893920287499999,13.3098532,62.0,63.0
34,12.893920287499999,13.359672462499999,70.0,70.0
35,12.893920287499999,13.367782575,65.0,62.0
36,13.450042287499999,13.62962335,62.0,66.0
37,13.450042287499999,13.691028487499999,69.0,73.0
38,13.450042287499999,13.696821425,55.0,75.0
39,12.893920287499999,13.8300589875,43.0,67.0
40,13.7281032875,13.8323761625,62.0,40.0
41,13.7281032875,13.8659752,70.0,69.0
42,13.1719812875,13.868292375,50.0,59.0
43,14.006164287499999,14.296969749999999,62.0,82.0
44,14.006164287499999,14.3004455125,55.0,85.0
45,14.006164287499999,14.3189829125,43.0,64.0
46,14.006164287499999,14.366484999999999,70.0,80.0
47,14.423255787499999,14.597043912499998,55.0,63.0
48,14.423255787499999,14.657290462499999,70.0,60.0
49,14.423255787499999,14.670034925,43.0,73.0
50,14.423255787499999,14.695523849999999,69.0,85.0
51,14.423255787499999,14.7105854875,60.0,80.0
52,14.840347287499998,14.990963662499999,53.0,70.0
53,14.840347287499998,15.0234041125,60.0,73.0
54,14.840347287499998,15.029197049999999,41.0,73.0
55,14.840347287499998,15.0975537125,65.0,85.0
56,15.1184082875,15.432385499999999,63.0,91.0
57,15.1184082875,15.4543986625,58.0,88.0
58,15.1184082875,15.45555725,67.0,76.0
59,15.952591287499999,16.176198675,55.0,49.0
60,15.6745302875,16.26193415,51.0,56.0
61,16.2306522875,16.5249335125,63.0,82.0
62,16.2306522875,16.5689598375,55.0,75.0
63,16.2306522875,16.584021475,58.0,73.0
64,16.3696827875,16.5967659375,51.0,48.0
65,16.647743787499998,16.920011849999998,55.0,80.0
66,16.647743787499998,16.9605624125,62.0,78.0
67,15.1184082875,17.070628225,39.0,85.0
68,16.7867742875,17.116971725,51.0,57.0
69,15.396469287499999,17.196914262499998,46.0,59.0
70,17.0648352875,17.1992314375,55.0,64.0
71,17.0648352875,17.2305133,58.0,72.0
72,17.0648352875,17.2363062375,63.0,78.0
73,17.3428962875,17.620957287499998,65.0,80.0
74,17.3428962875,17.6533977375,57.0,80.0
75,17.3428962875,17.6626664375,60.0,78.0
76,17.620957287499998,17.7669393125,51.0,50.0
77,17.7599877875,17.8341373875,65.0,53.0
78,17.7599877875,17.8387717375,60.0,66.0
79,17.7599877875,17.8607849,57.0,70.0
80,17.8990182875,18.1759207,51.0,52.0
81,18.1770792875,18.2373258375,57.0,75.0
82,18.1770792875,18.2419601875,60.0,78.0
83,18.1770792875,18.275559225,65.0,78.0
84,18.4551402875,18.670637562499998,51.0,48.0
85,18.7332012875,18.8432671,65.0,72.0
86,18.7332012875,18.97766325,60.0,80.0
87,18.7332012875,18.995042062499998,72.0,76.0
88,17.3428962875,19.1109008125,39.0,78.0
89,18.8722317875,19.165354425,51.0,53.0
90,19.1502927875,19.32987385,67.0,70.0
91,19.2893232875,19.41329215,69.0,51.0
92,19.567384287499998,19.858189749999998,60.0,72.0
93,19.567384287499998,19.8639826875,65.0,78.0
94,19.567384287499998,19.873251387499998,69.0,73.0
95,20.1235062875,20.283391362499998,60.0,72.0
96,20.401567287499997,20.5301705,65.0,78.0
97,19.8454452875,20.5579766,57.0,61.0
98,20.679628287499998,20.9194559,72.0,80.0
99,20.679628287499998,20.947262,65.0,93.0
100,20.8186587875,20.970433749999998,57.0,58.0
101,21.0967197875,21.260080625,67.0,78.0
102,21.2357502875,21.334230225,57.0,62.0
103,19.567384287499998,21.3956353625,50.0,73.0
104,21.2357502875,21.4257586375,69.0,64.0
105,21.513811287499998,21.709612574999998,69.0,60.0
106,21.7918722875,22.145241475,70.0,59.0
107,21.7918722875,22.1603031125,62.0,82.0
108,21.7918722875,22.24488,65.0,80.0
109,22.347994287499997,22.5936148375,55.0,51.0
110,21.7918722875,22.7361211,43.0,69.0
111,22.347994287499997,22.7604514375,62.0,67.0
112,22.0699332875,22.783623187499998,50.0,54.0
113,22.9041162875,23.149736837499997,55.0,85.0
114,22.9041162875,23.1868116375,43.0,73.0
115,22.9041162875,23.189128812499998,62.0,85.0
116,22.9041162875,23.212300562499998,70.0,80.0
117,23.321207787499997,23.526277775,53.0,85.0
118,23.321207787499997,23.570304099999998,69.0,93.0
119,23.321207787499997,23.5784142125,41.0,76.0
120,23.321207787499997,23.591158675,60.0,85.0
121,23.7382992875,23.924831875,38.0,80.0
122,23.7382992875,23.95495515,50.0,88.0
123,23.7382992875,23.9769683125,58.0,82.0
124,23.7382992875,23.9966643,65.0,95.0
125,24.0163602875,24.235333325,63.0,93.0
126,24.0163602875,24.253870725,67.0,93.0
127,24.0163602875,24.2654566,58.0,85.0
128,24.8505432875,25.053296099999997,55.0,60.0
129,24.572482287499998,25.1958023625,51.0,60.0
130,25.1286042875,25.468070424999997,63.0,78.0
131,25.1286042875,25.505145225,55.0,72.0
132,25.1286042875,25.509779575,58.0,78.0
133,25.406665287499997,25.6777747625,51.0,47.0
134,24.294421287499997,25.9280296625,46.0,62.0
135,25.6847262875,26.018399487499998,55.0,70.0
136,25.9627872875,26.079804624999998,51.0,43.0
137,24.0163602875,26.0913905,39.0,95.0
138,25.9627872875,26.113403662499998,46.0,35.0
139,25.9627872875,26.180601737499998,58.0,72.0
140,26.240848287499997,26.55945985,65.0,75.0
141,26.240848287499997,26.5745214875,57.0,75.0
142,26.240848287499997,26.5791558375,60.0,70.0
143,26.6579397875,26.718186337499997,60.0,66.0
144,26.6579397875,26.7205035125,65.0,52.0
145,26.6579397875,26.7436752625,57.0,76.0
146,26.7969702875,27.1306434875,51.0,44.0
147,27.0750312875,27.18973145,65.0,55.0
148,27.0750312875,27.296321499999998,60.0,54.0
149,27.214061787499997,27.4260833,51.0,44.0
150,27.492122787499998,27.643897749999997,60.0,66.0
151,27.492122787499998,27.672862437499997,72.0,73.0
152,26.240848287499997,27.873298074999997,39.0,64.0
153,27.6311532875,27.88488395,51.0,46.0
154,26.518909287499998,27.905738525,46.0,53.0
155,27.9092142875,28.0748923,60.0,66.0
156,27.9092142875,28.1432489625,69.0,60.0
157,28.187275287499997,28.3958210375,67.0,66.0
158,28.465336287499998,28.7619346875,70.0,54.0
159,28.465336287499998,28.770044799999997,74.0,62.0
160,28.465336287499998,28.823339824999998,65.0,61.0
161,29.0214582875,29.240431325,58.0,85.0
162,28.465336287499998,29.258968725,46.0,78.0
163,29.299519287499997,29.4176952125,67.0,48.0
164,28.7433972875,29.4837347,53.0,61.0
165,29.438549787499998,29.585690399999997,65.0,45.0
166,29.5775802875,29.585690399999997,65.0,85.0
167,29.5775802875,30.11864065,60.0,78.0
168,29.8556412875,30.227547875,53.0,56.0
169,29.5775802875,30.241450925,45.0,70.0
170,30.133702287499997,30.287794424999998,57.0,73.0
171,30.411763287499998,30.5994544625,60.0,60.0
172,30.6898242875,31.26795945,60.0,64.0
173,30.6898242875,31.331681762499997,63.0,70.0
174,30.6898242875,31.3339989375,68.0,78.0
175,30.9678852875,31.4544920375,51.0,61.0
176,31.245946287499997,31.47187085,56.0,80.0
177,30.6898242875,31.5101042375,44.0,76.0
178,31.524007287499998,31.5784609,60.0,37.0
179,31.8020682875,32.4033752,67.0,76.0
180,31.8020682875,32.414961075,62.0,76.0
181,31.8020682875,32.50069655,59.0,82.0
182,32.3581902875,32.530819825,55.0,82.0
183,32.0801292875,32.549357225,50.0,46.0
184,31.8020682875,32.57484615,43.0,75.0
185,32.7752817875,33.017426575,58.0,49.0
186,32.7752817875,33.246826899999995,63.0,63.0
187,33.1923732875,33.3175007375,58.0,20.0
188,33.4704342875,33.8458166375,58.0,82.0
189,33.7484952875,34.028873462499995,63.0,78.0
190,33.1923732875,34.1771726625,55.0,70.0
191,34.0265562875,34.374132537499996,58.0,45.0
192,32.914312287499996,34.41931745,70.0,73.0
193,34.3046172875,34.6915855125,55.0,59.0
194,34.0265562875,34.7124400875,67.0,62.0
195,34.582678287499995,34.7124400875,70.0,47.0
196,34.582678287499995,34.843360475,58.0,62.0
197,32.914312287499996,35.04958905,51.0,66.0
198,35.1388002875,35.2859409,51.0,59.0
199,34.860739287499996,35.464363375,63.0,67.0
200,35.6949222875,35.786450699999996,58.0,39.0
201,35.6949222875,36.2510442875,55.0,57.0
202,36.2510442875,36.634536749999995,67.0,75.0
203,36.2510442875,36.6426468625,63.0,80.0
204,36.2510442875,36.6472812125,58.0,72.0
205,36.529105287499995,36.701734824999996,55.0,66.0
206,35.4168612875,36.7283823375,51.0,64.0
207,36.807166287499996,37.00528475,58.0,69.0
208,37.0852272875,37.206878974999995,65.0,47.0
209,37.0852272875,37.2335264875,50.0,52.0
210,37.3632882875,37.781538375,65.0,62.0
211,37.3632882875,37.8290404625,62.0,69.0
212,37.3632882875,37.897397125,58.0,64.0
213,38.1974712875,38.527668725,60.0,70.0
214,37.9194102875,38.5682192875,55.0,53.0
215,38.475532287499995,38.583280925,62.0,75.0
216,37.3632882875,39.2934950625,43.0,69.0
217,39.0316542875,39.3861820625,67.0,61.0
218,37.6413492875,39.5020408125,50.0,60.0
219,39.3097152875,39.6514986,69.0,76.0
220,39.5877762875,40.057004225,43.0,44.0
221,39.8658372875,40.1056649,50.0,48.0
222,40.1438982875,40.511170525,55.0,49.0
223,40.421959287499995,40.552879675,82.0,63.0
224,40.5609897875,40.701178875,81.0,52.0
225,40.700020287499996,40.834416437499996,77.0,55.0
226,40.8390507875,40.947958012499996,72.0,52.0
227,40.9780812875,41.120587549999996,70.0,73.0
228,40.421959287499995,41.129856249999996,57.0,46.0
229,41.1171117875,41.280472624999994,69.0,69.0
230,41.2561422875,41.424137474999995,67.0,78.0
231,41.395172787499995,41.5620093875,69.0,58.0
232,41.5342032875,41.673233787499996,70.0,61.0
233,41.673233787499996,41.816898637499996,72.0,46.0
234,41.8122642875,42.2316729625,70.0,66.0
235,41.8122642875,42.2525275375,43.0,73.0
236,42.0903252875,42.301188212499994,50.0,57.0
237,42.368386287499995,42.703218074999995,55.0,50.0
238,42.9245082875,43.106406525,58.0,67.0
239,42.646447287499996,43.1098822875,57.0,61.0
240,43.2025692875,43.436603962499994,62.0,63.0
241,43.4806302875,43.6799073375,67.0,61.0
242,43.7586912875,44.1479766875,62.0,64.0
243,43.7586912875,44.1804171375,69.0,70.0
244,44.592874287499995,44.934657599999994,60.0,55.0
245,44.8709352875,45.057467875,65.0,64.0
246,44.0367522875,45.1976569625,41.0,67.0
247,45.4270572875,45.775792124999995,69.0,75.0
248,45.4270572875,45.783902237499994,60.0,63.0
249,46.261240287499994,46.853278499999995,58.0,46.0
250,46.261240287499994,46.888036125,62.0,41.0
251,46.261240287499994,46.915842225,67.0,36.0
252,46.261240287499994,46.9645029,43.0,56.0
253,46.817362287499996,46.9645029,43.0,48.0
254,47.0954232875,47.730329237499994,58.0,47.0
255,47.6515452875,47.9666810875,62.0,41.0
256,46.817362287499996,48.2794997125,55.0,47.0
257,46.539301287499995,48.45212925,50.0,48.0
258,48.207667287499994,48.649089124999996,58.0,16.0
259,48.207667287499994,48.778850925,62.0,48.0
260,48.207667287499994,48.9190400125,67.0,55.0
261,49.0418502875,49.259664737499996,55.0,32.0
262,48.485728287499995,49.2735677875,43.0,43.0
263,48.763789287499996,49.376682075,50.0,42.0
264,49.8760332875,50.068358812499994,60.0,56.0
265,49.8760332875,50.0822618625,57.0,47.0
266,49.8760332875,50.0845790375,65.0,48.0
267,49.8760332875,50.239829762499994,41.0,56.0
268,50.710216287499996,51.032303612499994,67.0,48.0
269,50.710216287499996,51.062426887499996,58.0,49.0
270,50.710216287499996,51.071695587499995,63.0,49.0
271,51.2663382875,51.962649375,58.0,40.0
272,50.9882772875,51.976552424999994,55.0,44.0
273,51.5443992875,52.360044887499996,67.0,55.0
274,52.100521287499994,52.72499995,55.0,34.0
275,50.710216287499996,52.7470131125,51.0,54.0
276,52.378582287499995,53.1872763625,58.0,31.0
277,52.656643287499996,53.255633024999995,63.0,44.0
278,52.9347042875,53.6901033375,51.0,40.0
279,53.4908262875,53.7109579125,58.0,33.0
280,53.2127652875,53.723702374999995,55.0,34.0
281,53.7688872875,53.8696844,63.0,41.0
282,54.046948287499994,54.334277987499995,58.0,49.0
283,54.046948287499994,54.371352787499994,65.0,52.0
284,54.325009287499995,54.6563653125,55.0,44.0
285,54.046948287499994,54.754845249999995,50.0,46.0
286,54.603070287499996,54.83826355,58.0,43.0
287,55.1591922875,55.536891812499995,60.0,46.0
288,55.1591922875,55.564697912499994,63.0,44.0
289,54.8811312875,55.869406424999994,70.0,46.0
290,55.4372532875,56.349061649999996,55.0,37.0
291,55.7153142875,56.424369837499995,60.0,37.0
292,55.993375287499994,56.7534086875,63.0,39.0
293,55.1591922875,56.9457342125,48.0,44.0
294,56.8275582875,57.1322668,60.0,30.0
295,56.549497287499996,57.150804199999996,55.0,29.0
296,57.1056192875,57.6617412875,67.0,44.0
297,57.939802287499994,58.2248148125,58.0,40.0
298,57.6617412875,58.260731025,55.0,38.0
299,57.3836802875,58.550377899999994,48.0,47.0
300,58.6349547875,59.06479075,55.0,33.0
301,58.217863287499995,59.1563191625,62.0,60.0
302,59.0520462875,59.4158427625,38.0,46.0
303,59.3301072875,59.48188225,55.0,37.0
304,59.6081682875,60.090140687499996,58.0,51.0
305,59.6081682875,60.14343571249999,62.0,48.0
306,60.164290287499995,60.5709545,55.0,53.0
307,60.442351287499996,60.984570237499995,62.0,55.0
308,60.442351287499996,61.2649484125,58.0,56.0
309,60.9984732875,61.368062699999996,55.0,31.0
310,59.6081682875,61.5036174375,43.0,64.0
311,61.2765342875,61.510568962499995,57.0,34.0
312,61.415564787499996,61.5545952875,60.0,24.0
313,59.886229287499994,61.80832595,50.0,51.0
314,61.5545952875,62.20456287499999,62.0,55.0
315,61.5545952875,62.2497477875,58.0,53.0
316,62.388778287499996,62.5440290125,55.0,32.0
317,61.832656287499994,62.621654375,43.0,42.0
318,62.110717287499995,62.86264057499999,50.0,40.0
319,62.6668392875,62.9634376875,60.0,48.0
320,62.6668392875,63.1476531,57.0,48.0
321,62.9449002875,63.567061775,41.0,35.0
322,63.2229612875,63.747801425,50.0,48.0
323,63.5010222875,63.762863062499996,57.0,44.0
324,63.779083287499994,64.06062005,60.0,35.0
325,64.0571442875,64.6179006375,62.0,51.0
326,64.0571442875,64.6596097875,58.0,53.0
327,65.1693882875,65.6502021,62.0,46.0
328,65.1693882875,65.7000213625,58.0,47.0
329,64.0571442875,66.106685575,43.0,48.0
330,65.86454078749999,66.241081725,55.0,16.0
331,66.1426017875,66.394015275,50.0,44.0
332,66.2816322875,66.7960451375,57.0,48.0
333,66.2816322875,67.0069080625,60.0,56.0
334,67.1158152875,67.4842461125,55.0,37.0
335,67.39387628749999,67.7449283,62.0,54.0
336,67.39387628749999,67.7808445125,58.0,53.0
337,66.2816322875,67.79358897499999,43.0,54.0
338,67.6719372875,67.8179193125,55.0,36.0
339,67.9499982875,68.229217875,57.0,48.0
340,67.9499982875,68.24891386249999,60.0,52.0
341,68.2280592875,68.447032325,41.0,59.0
342,68.5061202875,68.8954056875,62.0,49.0
343,68.5061202875,69.13059894999999,58.0,52.0
344,68.5061202875,69.1352333,55.0,47.0
345,69.34030328749999,69.781725125,51.0,31.0
346,69.6183642875,69.92770715,55.0,40.0
347,69.6183642875,69.9636233625,58.0,47.0
348,69.6183642875,70.00533251249999,62.0,47.0
349,68.5061202875,70.1466801875,39.0,45.0
350,70.1744862875,70.4699261,58.0,41.0
351,70.4525472875,70.7352426375,65.0,62.0
352,70.73060828749999,71.33654955,63.0,47.0
353,70.73060828749999,71.36435565,67.0,46.0
354,70.73060828749999,71.5555225875,58.0,44.0
355,71.5647912875,72.1533537375,51.0,39.0
356,71.8428522875,72.31787316249999,63.0,59.0
357,71.8428522875,72.3989742875,58.0,50.0
358,71.8428522875,72.4441592,67.0,54.0
359,70.73060828749999,72.492819875,39.0,53.0
360,72.3989742875,72.56465229999999,51.0,53.0
361,72.9550962875,73.665310425,65.0,58.0
362,72.9550962875,73.84025713749999,62.0,55.0
363,72.9550962875,73.84373289999999,69.0,55.0
364,74.0673402875,74.8111534625,65.0,56.0
365,74.0673402875,74.976831475,69.0,52.0
366,72.9550962875,74.98494158749999,38.0,46.0
367,74.0673402875,75.0382366125,62.0,51.0
368,72.9550962875,75.48545138749999,50.0,47.0
369,75.17958428749999,75.8121730625,72.0,49.0
370,75.59667578749999,75.8376619875,69.0,1.0
371,75.17958428749999,75.950044975,65.0,49.0
372,75.17958428749999,75.99754706249999,62.0,43.0
373,76.0137672875,76.682272275,50.0,37.0
374,76.2918282875,76.710078375,65.0,63.0
375,76.2918282875,76.747153175,69.0,60.0
376,76.2918282875,76.886183675,62.0,59.0
377,75.17958428749999,76.937161525,38.0,42.0
378,76.8479502875,77.1097910625,50.0,33.0
379,77.4040722875,77.949767,62.0,47.0
380,77.4040722875,77.9740973375,43.0,48.0
381,77.6821332875,78.012330725,50.0,43.0
382,77.4040722875,78.0331853,70.0,56.0
383,78.2382552875,78.77931565,62.0,51.0
384,78.2382552875,78.84303796249999,69.0,63.0
385,77.9601942875,78.892857225,55.0,47.0
386,78.7943772875,78.93688354999999,57.0,50.0
387,79.07243828749999,79.3458649375,65.0,66.0
388,79.3504992875,80.0873609375,58.0,46.0
389,79.3504992875,80.5925050875,67.0,59.0
390,80.46274328749999,80.8358084625,60.0,36.0
391,80.7408042875,81.01886528749999,65.0,54.0
392,79.9066212875,81.34211119999999,50.0,44.0
393,81.01886528749999,81.38150317499999,67.0,46.0
394,80.1846822875,81.39656481249999,55.0,38.0
395,79.6285602875,81.446384075,43.0,39.0
396,81.2969262875,81.49272757499999,60.0,34.0
397,81.8530482875,82.46594107499999,62.0,61.0
398,81.8530482875,82.52618762499999,58.0,58.0
399,82.6872312875,83.008160025,55.0,78.0
400,82.96529228749999,83.24682905,58.0,66.0
401,83.2433532875,83.37659085,60.0,72.0
402,82.1311092875,83.4310444625,46.0,32.0
403,81.8530482875,83.4739122,39.0,72.0
404,82.40917028749999,83.6604447875,51.0,60.0
405,83.5214142875,83.8365500875,62.0,64.0
406,83.7994752875,84.1134525,67.0,66.0
407,84.0775362875,84.33821847499999,69.0,63.0
408,84.35559728749999,84.4784075625,70.0,59.0
409,84.6336582875,84.838728275,74.0,45.0
410,84.91171928749999,85.302163275,67.0,55.0
411,84.0775362875,85.4678412875,51.0,63.0
412,85.1897802875,85.48174433749999,70.0,70.0
413,85.1897802875,85.547783825,63.0,45.0
414,84.35559728749999,85.6057132,58.0,47.0
415,85.4678412875,85.67638703749999,72.0,58.0
416,85.7459022875,86.01585317499999,74.0,50.0
417,86.0239632875,86.34141626249999,77.0,64.0
418,86.30202428749999,86.7283844875,43.0,62.0
419,86.5800852875,86.9044897875,50.0,44.0
420,86.85814628749999,87.206881125,55.0,39.0
421,86.30202428749999,87.29609236249999,74.0,67.0
422,87.4142682875,87.7687960625,58.0,63.0
423,87.1362072875,87.81398097499999,57.0,48.0
424,87.6923292875,88.04801565,62.0,59.0
425,87.9703902875,88.2183280125,67.0,51.0
426,88.24845128749999,88.560111325,69.0,61.0
427,88.5265122875,89.0444009,70.0,70.0
428,88.5265122875,89.273801225,43.0,66.0
429,89.0826342875,89.3317306,69.0,55.0
430,89.0826342875,89.352585175,55.0,48.0
431,88.80457328749999,89.35953669999999,62.0,57.0
432,88.80457328749999,89.6943684875,50.0,48.0
433,89.3606952875,90.0349932125,70.0,72.0
434,89.6387562875,90.15896207499999,69.0,70.0
435,89.6387562875,90.2690278875,60.0,59.0
436,89.6387562875,90.288723875,41.0,69.0
437,89.9168172875,90.34781183749999,50.0,55.0
438,90.19487828749999,90.381410875,65.0,69.0
439,90.19487828749999,90.3918381625,53.0,53.0
440,90.75100028749999,91.37547895,67.0,67.0
441,90.75100028749999,91.410236575,63.0,67.0
442,90.75100028749999,91.482069,58.0,63.0
443,91.5851832875,91.76128858749999,58.0,41.0
444,91.3071222875,91.9582484625,55.0,48.0
445,90.75100028749999,92.01038489999999,51.0,63.0
446,91.8632442875,92.24673675,58.0,59.0
447,91.8632442875,92.25600544999999,63.0,73.0
448,91.8632442875,92.2687499125,67.0,66.0
449,92.14130528749999,92.3637540875,55.0,48.0
450,92.14130528749999,92.37649855,51.0,46.0
451,92.4193662875,92.666145425,58.0,58.0
452,92.69742728749999,92.874691175,63.0,63.0
453,92.9754882875,93.61155282499999,67.0,66.0
454,92.9754882875,93.736680275,63.0,69.0
455,93.67064078749999,93.7610106125,48.0,40.0
456,92.9754882875,93.76216919999999,60.0,66.0
457,93.9487017875,94.34146295,48.0,44.0
458,94.08773228749999,94.58824208749999,67.0,67.0
459,94.08773228749999,94.62299971249999,63.0,73.0
460,94.08773228749999,94.7110523625,60.0,69.0
461,92.9754882875,94.71684529999999,36.0,67.0
462,94.64385428749999,94.81532523749999,48.0,59.0
463,95.7560982875,96.05617244999999,55.0,69.0
464,96.03415928749999,96.1442251,57.0,64.0
465,96.3122202875,96.62967326249999,62.0,69.0
466,96.59028128749999,96.8498048875,67.0,61.0
467,95.4780372875,96.9563949375,50.0,55.0
468,96.8683422875,97.0004212625,69.0,62.0
469,95.1999762875,97.1579891625,38.0,70.0
470,97.1464032875,98.0547358875,50.0,52.0
471,97.4244642875,98.0547358875,74.0,75.0
472,97.1464032875,98.0871763375,62.0,49.0
473,97.4244642875,98.09992079999999,38.0,67.0
474,99.6489522875,99.89341424999999,74.0,66.0
475,99.92701328749999,100.15757219999999,67.0,58.0
476,99.92701328749999,100.35105631249999,58.0,33.0
477,100.2050742875,100.4170958,63.0,38.0
478,100.2050742875,100.42173014999999,62.0,38.0
479,100.2050742875,100.4356332,70.0,64.0
480,100.48313528749999,100.725280075,67.0,51.0
481,100.48313528749999,101.049684575,58.0,55.0
482,100.7611962875,101.11224829999999,77.0,70.0
483,101.03925728749999,101.24316868749999,67.0,46.0
484,100.7611962875,101.45866596249999,62.0,54.0
485,101.3173182875,101.49458217499999,79.0,55.0
486,99.6489522875,101.7332512,51.0,62.0
487,101.3173182875,101.77959469999999,58.0,61.0
488,101.5953792875,101.842158425,67.0,54.0
489,101.87344028749999,102.16192857499999,72.0,67.0
490,102.1515012875,102.52109069999999,65.0,55.0
491,102.42956228749999,102.634632275,69.0,57.0
492,102.7076232875,103.1050188,65.0,49.0
493,102.98568428749999,103.25795235,77.0,66.0
494,101.87344028749999,103.4352162375,51.0,61.0
495,102.98568428749999,103.607845775,58.0,58.0
496,103.2637452875,103.61479729999999,65.0,58.0
497,103.5418062875,103.82334304999999,72.0,67.0
498,104.0979282875,104.3250114375,69.0,62.0
499,103.81986728749999,104.3296457875,65.0,58.0
500,104.37598928749999,104.7444201125,57.0,56.0
501,104.6540502875,104.83594852499999,60.0,60.0
502,104.6540502875,104.9923578375,65.0,63.0
503,104.93211128749999,105.107058,62.0,64.0
504,104.93211128749999,105.1348641,67.0,75.0
505,105.2101722875,105.2959077625,62.0,44.0
506,105.2101722875,105.35267855,65.0,58.0
507,105.2101722875,105.44768272499999,69.0,57.0
508,105.4882332875,105.57860311249999,65.0,51.0
509,105.4882332875,105.623788025,70.0,58.0
510,105.4882332875,105.6272637875,57.0,63.0
511,104.0979282875,105.6434840125,50.0,60.0
512,105.76629428749999,105.89953184999999,72.0,72.0
513,106.0443552875,106.2691212625,74.0,70.0
514,106.32241628749999,106.65029655,70.0,72.0
515,106.6004772875,107.250444875,50.0,48.0
516,107.1565992875,107.3002641375,58.0,60.0
517,107.1565992875,107.3211187125,62.0,75.0
518,107.4346602875,107.52039576249999,62.0,63.0
519,107.4346602875,107.54588468749999,58.0,67.0
520,106.87853828749999,107.60497265,55.0,48.0
521,106.32241628749999,107.6663777875,43.0,58.0
522,107.4346602875,108.0081611,50.0,55.0
523,107.85175178749999,108.03944296249999,57.0,67.0
524,107.85175178749999,108.0718834125,60.0,69.0
525,107.9907822875,108.144874425,41.0,60.0
526,108.26884328749999,108.4634859875,58.0,61.0
527,108.26884328749999,108.4843405625,62.0,75.0
528,108.5469042875,109.03466962499999,55.0,66.0
529,108.5469042875,109.04973126249999,58.0,64.0
530,108.5469042875,109.08796464999999,65.0,73.0
531,109.3810872875,109.5618269375,55.0,52.0
532,109.1030262875,109.68116144999999,51.0,50.0
533,109.65914828749999,109.90361025,67.0,67.0
534,109.79817878749999,109.9395264625,51.0,38.0
535,109.65914828749999,109.943002225,55.0,61.0
536,109.65914828749999,109.94647798749999,58.0,63.0
537,110.0762397875,110.16081667499999,58.0,36.0
538,110.0762397875,110.25466226249999,55.0,58.0
539,110.0762397875,110.323018925,65.0,58.0
540,108.5469042875,110.3589351375,39.0,46.0
541,108.82496528749999,110.38905841249999,46.0,50.0
542,110.21527028749999,110.44119484999999,51.0,50.0
543,110.4933312875,110.63815472499999,55.0,50.0
544,110.4933312875,110.67291234999999,60.0,60.0
545,110.77139228749999,111.31245265,60.0,73.0
546,110.77139228749999,111.3321486375,57.0,70.0
547,111.3275142875,111.67393195,53.0,47.0
548,110.77139228749999,111.7932664625,41.0,63.0
549,111.0494532875,111.81412103749999,48.0,44.0
550,111.60557528749999,111.83381702499999,60.0,67.0
551,111.60557528749999,111.9207110875,57.0,72.0
552,111.60557528749999,111.940407075,65.0,66.0
553,112.16169728749999,112.6089120625,57.0,62.0
554,112.4397582875,112.7062334125,58.0,76.0
555,112.71781928749999,112.88465588749999,60.0,58.0
556,112.9958802875,113.5311477125,65.0,70.0
557,112.9958802875,113.5601124,62.0,70.0
558,112.9958802875,113.5867599125,60.0,63.0
559,113.8300632875,114.2738023,60.0,73.0
560,113.55200228749999,114.424418675,58.0,58.0
561,114.3861852875,114.4557005375,60.0,45.0
562,114.3861852875,114.7708363375,62.0,76.0
563,114.52521578749999,114.8762678,58.0,52.0
564,112.9958802875,114.9353557625,46.0,62.0
565,114.9423072875,115.10335094999999,60.0,41.0
566,113.2739412875,115.263236025,53.0,51.0
567,115.08133778749999,115.49263635,65.0,47.0
568,115.2203682875,115.5436142,70.0,59.0
569,115.2203682875,115.60386075,46.0,72.0
570,115.2203682875,115.63398402499999,74.0,63.0
571,115.7764902875,115.9641814625,72.0,78.0
572,115.7764902875,116.00009767499999,65.0,70.0
573,115.7764902875,116.37316285,45.0,69.0
574,116.3326122875,116.68829865,62.0,66.0
575,116.3326122875,116.92812626249999,43.0,63.0
576,116.8887342875,117.04861936249999,69.0,80.0
577,116.3326122875,117.0972800375,70.0,72.0
578,116.8887342875,117.19923573749999,60.0,69.0
579,116.8887342875,117.4529664,41.0,64.0
580,117.44485628749999,117.9476832625,39.0,66.0
581,117.7229172875,117.9940267625,46.0,64.0
582,118.00097828749999,118.34160301249999,51.0,56.0
583,117.44485628749999,118.4632547,63.0,78.0
584,117.44485628749999,118.61387107499999,67.0,72.0
585,117.44485628749999,118.623139775,58.0,73.0
586,118.55710028749999,118.95102003749999,55.0,61.0
587,118.2790392875,118.9823019,53.0,50.0
588,118.8351612875,119.18389612499999,58.0,82.0
589,119.1132222875,119.54305824999999,63.0,73.0
590,119.39128328749999,119.591718925,67.0,47.0
591,119.6693442875,119.9752113875,69.0,78.0
592,119.6693442875,120.0111276,60.0,69.0
593,119.6693442875,120.036616525,65.0,69.0
594,120.0864357875,120.15595103749999,65.0,69.0
595,119.6693442875,120.15942679999999,39.0,69.0
596,120.0864357875,120.166378325,69.0,67.0
597,120.0864357875,120.18259855,60.0,63.0
598,119.94740528749999,120.21967335,46.0,55.0
599,120.0864357875,120.42706051249999,51.0,59.0
600,120.50352728749999,120.8928126875,60.0,66.0
601,120.50352728749999,120.89976421249999,65.0,69.0
602,120.50352728749999,120.91482585,72.0,76.0
603,120.36449678749999,121.4292387,53.0,41.0
604,121.0596492875,121.440824575,62.0,67.0
605,121.33771028749999,121.4628377375,55.0,52.0
606,121.0596492875,121.47558219999999,69.0,66.0
607,121.47674078749999,121.8312685625,67.0,63.0
608,121.89383228749999,122.1857963375,38.0,66.0
609,122.1718932875,122.515993775,50.0,66.0
610,121.89383228749999,122.71179506249999,65.0,69.0
611,121.89383228749999,122.7813103125,60.0,64.0
612,123.0060762875,123.3698727625,60.0,88.0
613,122.7280152875,123.37798287499999,57.0,50.0
614,122.44995428749999,123.45792541249999,53.0,48.0
615,123.28413728749999,123.63403071249999,65.0,64.0
616,123.5621982875,123.8703825625,67.0,72.0
617,123.84025928749999,124.100941475,69.0,61.0
618,124.1183202875,124.5168743875,62.0,62.0
619,124.1183202875,124.56901082499999,70.0,60.0
620,124.1183202875,124.71731002499999,65.0,67.0
621,124.6744422875,124.86329205,62.0,66.0
622,124.6744422875,124.9223800125,69.0,72.0
623,124.39638128749999,125.08342367499999,50.0,48.0
624,124.9525032875,125.1262914125,62.0,58.0
625,124.9525032875,125.12745,70.0,72.0
626,124.9525032875,125.15641468749999,55.0,53.0
627,124.1183202875,125.19233089999999,43.0,50.0
628,125.0915337875,125.3047138875,50.0,32.0
629,125.23056428749999,125.38233924999999,62.0,70.0
630,125.23056428749999,125.38813218749999,69.0,70.0
631,125.23056428749999,125.8677874125,41.0,75.0
632,125.5086252875,125.91644808749999,50.0,61.0
633,125.78668628749999,125.9326683125,53.0,67.0
634,125.78668628749999,125.97321887499999,65.0,73.0
635,126.0647472875,126.26170716249999,58.0,67.0
636,126.34280828749999,126.89545452499999,39.0,64.0
637,126.6208692875,126.9406394375,46.0,48.0
638,126.34280828749999,127.057656775,63.0,69.0
639,126.34280828749999,127.0889386375,67.0,67.0
640,126.34280828749999,127.20132162499999,58.0,63.0
641,126.8989302875,127.27778839999999,51.0,61.0
642,127.17699128749999,127.629999,53.0,52.0
643,127.4550522875,127.8211659375,55.0,58.0
644,127.73311328749999,128.18612099999999,53.0,58.0
645,127.4550522875,128.278808,63.0,62.0
646,127.4550522875,128.2846009375,58.0,61.0
647,127.4550522875,128.3842394625,67.0,57.0
648,128.2892352875,128.5533932375,50.0,47.0
649,128.5672962875,128.7271813625,58.0,61.0
650,128.5672962875,128.99713225,65.0,67.0
651,128.5672962875,129.0191454125,62.0,67.0
652,128.84535728749998,129.50111781249998,48.0,51.0
653,129.1234182875,129.8822931,53.0,48.0
654,129.4014792875,129.8904032125,65.0,61.0
655,129.4014792875,129.954125525,60.0,70.0
656,129.4014792875,130.0213236,57.0,69.0
657,128.5672962875,130.20669759999998,41.0,63.0
658,129.95760128749998,130.292433075,48.0,45.0
659,130.2356622875,130.7037316375,57.0,60.0
660,130.79178428749998,131.06405235,58.0,67.0
661,130.79178428749998,131.140519125,62.0,67.0
662,131.6259672875,132.021045625,60.0,66.0
663,131.6259672875,132.1264770875,65.0,69.0
664,131.3479062875,132.29910662499998,58.0,49.0
665,132.1820892875,132.60497372499998,62.0,60.0
666,131.0698452875,132.6362555875,53.0,53.0
667,130.79178428749998,132.6501586375,46.0,52.0
668,132.4601502875,132.7497971625,58.0,38.0
669,132.73821128749998,132.924743875,60.0,58.0
670,132.8772417875,133.05682285,62.0,61.0
671,133.0162722875,133.290857525,63.0,59.0
672,133.2943332875,133.54690536249998,62.0,67.0
673,133.2943332875,133.703314675,53.0,62.0
674,133.5723942875,133.94198369999998,58.0,48.0
675,133.5723942875,133.9975959,60.0,61.0
676,133.85045528749998,134.1679082625,62.0,58.0
677,134.1285162875,134.3277933375,63.0,63.0
678,134.4065772875,134.7819596375,65.0,69.0
679,133.0162722875,134.797021275,46.0,60.0
680,133.85045528749998,134.91403861249998,53.0,61.0
681,134.68463828749998,134.9256244875,67.0,61.0
682,134.9626992875,135.2291744125,69.0,57.0
683,135.2407602875,135.8455429625,67.0,61.0
684,135.2407602875,135.88377635,63.0,58.0
685,136.0749432875,136.7040563,62.0,54.0
686,136.63106528749998,136.7654614375,63.0,61.0
687,135.2407602875,136.8048534125,48.0,63.0
688,135.5188212875,136.86741713749998,55.0,43.0
689,135.79688228749998,136.9114434625,60.0,53.0
690,137.4652482875,137.8035558375,62.0,62.0
691,137.4652482875,137.8452649875,65.0,67.0
692,138.2994312875,138.879883625,65.0,63.0
693,138.0213702875,139.00153531249998,60.0,52.0
694,137.74330928749998,139.04440305,57.0,46.0
695,137.4652482875,139.0548303375,50.0,55.0
696,138.8555532875,139.4904592375,69.0,61.0
697,139.68973628749998,140.0836560375,43.0,56.0
698,139.9677972875,140.196039025,50.0,44.0
699,139.68973628749998,140.47178284999998,70.0,72.0
700,140.2458582875,140.6235578125,55.0,45.0
701,140.52391928749998,141.0893099875,69.0,49.0
702,140.52391928749998,141.13797066249998,62.0,49.0
703,140.52391928749998,141.2237061375,57.0,48.0
704,141.0800412875,141.2260233125,58.0,61.0
705,141.9142242875,142.6788920375,67.0,60.0
706,141.9142242875,142.7368214125,62.0,47.0
707,141.7751937875,142.74377293749998,58.0,40.0
708,143.0264682875,143.18751195,57.0,49.0
709,143.0264682875,143.208366525,65.0,56.0
710,141.9142242875,143.3207495125,55.0,44.0
711,141.9142242875,143.6428368375,43.0,39.0
712,143.58259028749998,143.6428368375,60.0,52.0
713,144.1387122875,144.7504464875,63.0,57.0
714,144.1387122875,144.8477678375,67.0,55.0
715,144.9728952875,145.333216,62.0,52.0
716,144.1387122875,145.6958538875,48.0,46.0
717,145.2509562875,145.6958538875,63.0,62.0
718,144.41677328749998,145.724818575,55.0,36.0
719,144.6948342875,145.7503075,60.0,43.0
720,146.36320028749998,146.7200452375,62.0,49.0
721,146.36320028749998,146.762912975,65.0,55.0
722,146.36320028749998,146.906577825,70.0,51.0
723,146.6412612875,147.81606901249998,58.0,53.0
724,147.1973832875,147.89601155,65.0,64.0
725,146.9193222875,147.97363691249998,62.0,52.0
726,146.36320028749998,147.9829056125,50.0,49.0
727,147.7535052875,148.5714680625,70.0,54.0
728,148.5876882875,149.05459904999998,62.0,50.0
729,148.5876882875,149.15655475,69.0,52.0
730,149.1438102875,149.7717647125,55.0,34.0
731,149.42187128749998,149.9119538,67.0,66.0
732,149.42187128749998,149.99073775,58.0,55.0
733,150.1170237875,150.5016748375,55.0,3.0
734,150.8121762875,151.75179075,55.0,25.0
735,150.8121762875,152.14107615,65.0,32.0
736,150.8121762875,152.2279702125,57.0,30.0
737,151.9244202875,152.24303185,58.0,42.0
738,152.20248128749998,152.55237471249998,60.0,55.0
739,151.9244202875,152.6126212625,55.0,26.0
740,152.4805422875,152.6647577,62.0,63.0
741,148.5876882875,152.6867708625,43.0,47.0
742,148.8657492875,152.6867708625,50.0,43.0
743,153.0366642875,153.29966364999999,60.0,66.0
744,153.0366642875,153.6646187125,65.0,72.0
745,153.0366642875,153.6831561125,61.0,73.0
746,153.0366642875,153.78163605,58.0,63.0
747,153.8708472875,154.39800459999998,61.0,73.0
748,153.8708472875,154.4084318875,65.0,64.0
749,153.5927862875,154.6401493875,60.0,45.0
750,153.8708472875,154.8058274,58.0,56.0
751,154.7050302875,155.12328037499998,60.0,60.0
752,154.7050302875,155.1754168125,65.0,73.0
753,154.7050302875,155.18120975,61.0,73.0
754,154.9830912875,155.220601725,58.0,63.0
755,155.26115228749998,155.76166208749999,65.0,73.0
756,155.26115228749998,155.96209772499998,58.0,64.0
757,155.26115228749998,156.02813721249998,61.0,75.0
758,155.26115228749998,156.5448672375,55.0,69.0
759,156.09533528749998,156.717496775,65.0,76.0
760,156.09533528749998,156.754571575,58.0,72.0
761,156.09533528749998,156.75688875,61.0,70.0
762,156.6514572875,157.06970737499998,55.0,58.0
763,156.9295182875,157.4474069,58.0,63.0
764,156.9295182875,157.4555170125,61.0,73.0
765,156.9295182875,157.468261475,65.0,72.0
766,157.20757928749998,157.523873675,55.0,63.0
767,157.4856402875,158.1483523375,66.0,72.0
768,157.4856402875,158.19469583749998,51.0,46.0
769,157.4856402875,158.2085988875,58.0,67.0
770,157.4856402875,158.2132332375,61.0,72.0
771,158.3198232875,158.9338746625,66.0,70.0
772,158.3198232875,158.9848525125,61.0,70.0
773,158.3198232875,158.99875556249998,58.0,63.0
774,158.3198232875,159.2860852625,51.0,72.0
775,159.15400628749998,159.5803664875,58.0,66.0
776,159.4320672875,159.64988173749998,51.0,66.0
777,159.15400628749998,159.660309025,66.0,69.0
778,159.15400628749998,159.68232218749998,61.0,70.0
779,159.7101282875,160.3473514125,63.0,72.0
780,159.7101282875,160.3635716375,66.0,52.0
781,159.7101282875,160.3936949125,51.0,69.0
782,159.7101282875,160.39485349999998,58.0,66.0
783,160.5443112875,161.07842012499998,66.0,56.0
784,160.5443112875,161.08073729999998,63.0,64.0
785,160.5443112875,161.1363495,58.0,57.0
786,161.3784942875,161.65076234999998,58.0,70.0
787,161.51752478749998,161.8222333,63.0,55.0
788,160.5443112875,161.91723747499998,51.0,56.0
789,161.6565552875,161.93461628749998,65.0,66.0
790,161.93461628749998,162.524337325,68.0,73.0
791,161.93461628749998,162.68653957499998,63.0,72.0
792,161.93461628749998,162.68653957499998,72.0,73.0
793,161.93461628749998,163.0769835625,56.0,70.0
794,162.7687992875,163.3423001,68.0,69.0
795,162.7687992875,163.35272738749998,75.0,67.0
796,162.7687992875,163.35504456249998,72.0,57.0
797,162.7687992875,163.3666304375,63.0,64.0
798,163.3249212875,163.7257925625,56.0,60.0
799,163.6029822875,163.86598164999998,68.0,70.0
800,163.6029822875,163.8764089375,63.0,69.0
801,163.6029822875,164.044404125,72.0,67.0
802,163.88104328749998,164.0594657625,56.0,55.0
803,164.15910428749999,164.7523010875,72.0,73.0
804,164.15910428749999,164.8542567875,65.0,85.0
805,164.15910428749999,164.87626995,69.0,68.0
806,164.99328728749998,165.3918413875,65.0,70.0
807,164.99328728749998,165.4242818375,72.0,73.0
808,164.7152262875,165.6502064,60.0,56.0
809,165.82747028749998,165.944487625,60.0,64.0
810,165.5494092875,165.96070784999998,65.0,67.0
811,165.5494092875,165.9665007875,72.0,60.0
812,164.15910428749999,166.088152475,53.0,72.0
813,166.2445617875,166.33029726249998,65.0,40.0
814,166.3835922875,166.82385553749998,58.0,82.0
815,166.3835922875,167.2618016125,70.0,60.0
816,166.3835922875,167.28265618749998,65.0,80.0
817,166.3835922875,167.288449125,62.0,76.0
818,167.0787447875,167.561875775,58.0,19.0
819,167.4958362875,168.224587825,65.0,78.0
820,168.05195828749999,168.3670940875,58.0,54.0
821,166.3835922875,168.3740456125,46.0,70.0
822,167.4958362875,168.423864875,70.0,69.0
823,167.4958362875,168.4551467375,62.0,75.0
824,168.3300192875,168.5663711375,67.0,61.0
825,168.6080802875,168.94754642499998,38.0,63.0
826,168.88614128749998,169.24877917499998,50.0,63.0
827,168.6080802875,169.45384916249998,62.0,66.0
828,168.6080802875,169.50019266249998,66.0,70.0
829,168.6080802875,169.5905624875,69.0,70.0
830,169.72032428749998,170.120036975,62.0,75.0
831,169.4422632875,170.2486401875,57.0,59.0
832,169.1642022875,170.266019,55.0,75.0
833,169.99838528749999,170.3042523875,66.0,88.0
834,170.2764462875,170.60085078749998,67.0,73.0
835,170.5545072875,170.824458175,69.0,72.0
836,170.83256828749998,170.9889776,62.0,76.0
837,170.83256828749998,170.99824629999998,70.0,76.0
838,170.83256828749998,171.02025946249998,67.0,76.0
839,171.1106292875,171.63315225,67.0,72.0
840,171.1106292875,171.6377866,62.0,75.0
841,171.1106292875,171.7038260875,70.0,75.0
842,171.3886902875,171.9842042625,50.0,56.0
843,171.94481228749999,172.20665306249998,60.0,70.0
844,171.94481228749999,172.2228732875,69.0,62.0
845,171.66675128749998,172.349159325,55.0,49.0
846,172.36190378749998,172.4615423125,67.0,67.0
847,172.36190378749998,172.4823968875,60.0,67.0
848,172.5009342875,172.8427176,55.0,44.0
849,172.2228732875,172.8983298,50.0,48.0
850,172.77899528749998,172.95394199999998,65.0,76.0
851,172.77899528749998,172.99333397499998,58.0,73.0
852,173.61317828749998,173.94105854999998,62.0,69.0
853,173.61317828749998,173.971181825,57.0,67.0
854,173.89123928749999,174.2110094375,58.0,75.0
855,174.1693002875,174.51803512499998,60.0,69.0
856,174.4473612875,174.60492918749998,62.0,73.0
857,174.72542228749998,174.962932725,65.0,69.0
858,170.83256828749998,175.14946531249998,43.0,78.0
859,175.0034832875,175.18306435,67.0,44.0
860,173.3351172875,175.2143462125,50.0,53.0
861,175.2815442875,175.40667173749998,55.0,76.0
862,175.2815442875,175.4344778375,70.0,75.0
863,175.2815442875,175.4367950125,62.0,82.0
864,175.2815442875,175.4391121875,65.0,75.0
865,175.2815442875,175.4472223,43.0,73.0
866,175.55960528749998,175.94889068749998,65.0,64.0
867,175.55960528749998,176.0925555375,55.0,82.0
868,175.55960528749998,176.1110929375,67.0,75.0
869,175.55960528749998,176.130788925,62.0,73.0
870,175.55960528749998,176.167863725,70.0,76.0
871,176.3937882875,176.63014013749998,69.0,70.0
872,176.3937882875,176.63825025,60.0,66.0
873,176.67184928749998,176.835210125,55.0,36.0
874,176.8108797875,176.8746021,60.0,46.0
875,176.8108797875,176.8919809125,58.0,53.0
876,176.8108797875,176.909359725,65.0,66.0
877,176.1157272875,177.2511430375,50.0,42.0
878,176.9499102875,177.30791382499999,55.0,38.0
879,177.2279712875,177.62884256249998,62.0,64.0
880,177.2279712875,177.72268814999998,57.0,48.0
881,178.0621542875,178.20466055,57.0,91.0
882,178.20118478749998,178.29966472499999,58.0,63.0
883,178.3402152875,178.50705188749998,62.0,70.0
884,178.4792457875,178.7063289375,67.0,56.0
885,178.61827628749998,178.78858864999998,69.0,62.0
886,178.7573067875,179.0191475625,70.0,58.0
887,178.8963372875,179.05738094999998,69.0,69.0
888,179.03536778749998,179.143116425,67.0,57.0
889,179.1743982875,179.337759125,62.0,62.0
890,179.3134287875,179.45941081249998,60.0,66.0
891,175.55960528749998,179.50923007499998,43.0,75.0
892,179.45245928749998,179.606551425,58.0,58.0
893,177.78409328749999,179.73052028749998,50.0,63.0
894,179.73052028749998,180.32255849999999,58.0,46.0
895,179.73052028749998,180.35731612499998,62.0,41.0
896,179.73052028749998,180.385122225,67.0,36.0
897,179.73052028749998,180.43378289999998,43.0,56.0
898,180.2866422875,180.43378289999998,43.0,48.0
899,180.56470328749998,181.1996092375,58.0,47.0
900,181.1208252875,181.4359610875,62.0,41.0
901,180.2866422875,181.74877971249998,55.0,47.0
902,180.0085812875,181.92140924999998,50.0,48.0
903,181.67694728749998,182.118369125,58.0,16.0
904,181.67694728749998,182.248130925,62.0,48.0
905,181.67694728749998,182.3883200125,67.0,55.0
906,182.51113028749998,182.7289447375,55.0,32.0
907,181.9550082875,182.74284778749998,43.0,43.0
908,182.2330692875,182.845962075,50.0,42.0
909,183.34531328749998,183.53763881249998,60.0,56.0
910,183.34531328749998,183.5515418625,57.0,47.0
911,183.34531328749998,183.5538590375,65.0,48.0
912,183.34531328749998,183.7091097625,41.0,56.0
913,184.1794962875,184.50158361249999,67.0,48.0
914,184.1794962875,184.53170688749998,58.0,49.0
915,184.1794962875,184.5409755875,63.0,49.0
916,184.7356182875,185.43192937499998,58.0,40.0
917,184.45755728749998,185.445832425,55.0,44.0
918,185.0136792875,185.82932488749998,67.0,55.0
919,185.56980128749998,186.19427994999998,55.0,34.0
920,184.1794962875,186.21629311249998,51.0,54.0
921,185.8478622875,186.6565563625,58.0,31.0
922,186.1259232875,186.72491302499998,63.0,44.0
923,186.40398428749998,187.1593833375,51.0,40.0
924,186.9601062875,187.1802379125,58.0,33.0
925,186.6820452875,187.19298237499999,55.0,34.0
926,187.23816728749998,187.33896439999998,63.0,41.0
927,187.51622828749998,187.8035579875,58.0,49.0
928,187.51622828749998,187.8406327875,65.0,52.0
929,187.7942892875,188.12564531249998,55.0,44.0
930,187.51622828749998,188.22412525,50.0,46.0
931,188.0723502875,188.30754355,58.0,43.0
932,188.6284722875,189.00617181249999,60.0,46.0
933,188.6284722875,189.03397791249998,63.0,44.0
934,188.35041128749998,189.338686425,70.0,46.0
935,188.9065332875,189.81834164999998,55.0,37.0
936,189.18459428749998,189.8936498375,60.0,37.0
937,189.46265528749998,190.22268868749998,63.0,39.0
938,188.6284722875,190.41501421249998,48.0,44.0
939,190.29683828749998,190.6015468,60.0,30.0
940,190.0187772875,190.62008419999998,55.0,29.0
941,190.5748992875,191.13102128749998,67.0,44.0
942,191.40908228749998,191.6940948125,58.0,40.0
943,191.13102128749998,191.73001102499998,55.0,38.0
944,190.8529602875,192.0196579,48.0,47.0
945,192.1042347875,192.53407074999998,55.0,33.0
946,191.6871432875,192.62559916249998,62.0,60.0
947,192.5213262875,192.8851227625,38.0,46.0
948,192.7993872875,192.95116224999998,55.0,37.0
949,193.07744828749998,193.5594206875,58.0,51.0
950,193.07744828749998,193.61271571249998,62.0,48.0
951,193.6335702875,194.0402345,55.0,53.0
952,193.9116312875,194.45385023749998,62.0,55.0
953,193.9116312875,194.7342284125,58.0,56.0
954,194.4677532875,194.8373427,55.0,31.0
955,193.07744828749998,194.9728974375,43.0,64.0
956,194.7458142875,194.9798489625,57.0,34.0
957,194.8848447875,195.02387528749998,60.0,24.0
958,193.35550928749998,195.27760594999998,50.0,51.0
959,195.02387528749998,195.673842875,62.0,55.0
960,195.02387528749998,195.71902778749998,58.0,53.0
961,195.8580582875,196.0133090125,55.0,32.0
962,195.30193628749998,196.090934375,43.0,42.0
963,195.5799972875,196.331920575,50.0,40.0
964,196.13611928749998,196.4327176875,60.0,48.0
965,196.13611928749998,196.61693309999998,57.0,48.0
966,196.4141802875,197.03634177499998,41.0,35.0
967,196.6922412875,197.217081425,50.0,48.0
968,196.97030228749998,197.2321430625,57.0,44.0
969,197.24836328749998,197.52990004999998,60.0,35.0
970,197.5264242875,198.08718063749998,62.0,51.0
971,197.5264242875,198.1288897875,58.0,53.0
972,198.6386682875,199.1194821,62.0,46.0
973,198.6386682875,199.1693013625,58.0,47.0
974,197.5264242875,199.575965575,43.0,48.0
975,199.3338207875,199.71036172499998,55.0,16.0
976,199.61188178749998,199.86329527499998,50.0,44.0
977,199.7509122875,200.26532513749999,57.0,48.0
978,199.7509122875,200.4761880625,60.0,56.0
979,200.5850952875,200.9535261125,55.0,37.0
980,200.86315628749998,201.2142083,62.0,54.0
981,200.86315628749998,201.25012451249998,58.0,53.0
982,199.7509122875,201.262868975,43.0,54.0
983,201.14121728749998,201.28719931249998,55.0,36.0
984,201.4192782875,201.698497875,57.0,48.0
985,201.4192782875,201.7181938625,60.0,52.0
986,201.6973392875,201.91631232499998,41.0,59.0
987,201.97540028749998,202.36468568749999,62.0,49.0
988,201.97540028749998,202.59987894999998,58.0,52.0
989,201.97540028749998,202.60451329999998,55.0,47.0
990,202.80958328749998,203.25100512499998,51.0,31.0
991,203.08764428749998,203.39698715,55.0,40.0
992,203.08764428749998,203.43290336249999,58.0,47.0
993,203.08764428749998,203.4746125125,62.0,47.0
994,201.97540028749998,203.61596018749998,39.0,45.0
995,203.6437662875,203.93920609999998,58.0,41.0
996,203.92182728749998,204.2045226375,65.0,62.0
997,204.1998882875,204.80582955,63.0,47.0
998,204.1998882875,204.83363565,67.0,46.0
999,204.1998882875,205.02480258749998,58.0,44.0
1000,205.03407128749998,205.6226337375,51.0,39.0
1001,205.3121322875,205.78715316249998,63.0,59.0
1002,205.3121322875,205.86825428749998,58.0,50.0
1003,205.3121322875,205.9134392,67.0,54.0
1004,204.1998882875,205.96209987499998,39.0,53.0
1005,205.86825428749998,206.03393229999998,51.0,53.0
1006,206.4243762875,207.134590425,65.0,58.0
1007,206.4243762875,207.3095371375,62.0,55.0
1008,206.4243762875,207.3130129,69.0,55.0
1009,207.5366202875,208.28043346249999,65.0,56.0
1010,207.5366202875,208.44611147499998,69.0,52.0
1011,206.4243762875,208.4542215875,38.0,46.0
1012,207.5366202875,208.50751661249998,62.0,51.0
1013,206.4243762875,208.95473138749998,50.0,47.0
1014,208.64886428749998,209.2814530625,72.0,49.0
1015,209.0659557875,209.30694198749998,69.0,1.0
1016,208.64886428749998,209.419324975,65.0,49.0
1017,208.64886428749998,209.4668270625,62.0,43.0
1018,209.4830472875,210.151552275,50.0,37.0
1019,209.76110828749998,210.179358375,65.0,63.0
1020,209.76110828749998,210.216433175,69.0,60.0
1021,209.76110828749998,210.35546367499998,62.0,59.0
1022,208.64886428749998,210.406441525,38.0,42.0
1023,210.3172302875,210.5790710625,50.0,33.0
1024,210.87335228749998,211.41904699999998,62.0,47.0
1025,210.87335228749998,211.44337733749998,43.0,48.0
1026,211.1514132875,211.481610725,50.0,43.0
1027,210.87335228749998,211.50246529999998,70.0,56.0
1028,211.70753528749998,212.24859565,62.0,51.0
1029,211.70753528749998,212.31231796249998,69.0,63.0
1030,211.4294742875,212.362137225,55.0,47.0
1031,212.2636572875,212.40616355,57.0,50.0
1032,212.54171828749998,212.81514493749998,65.0,66.0
1033,212.81977928749998,213.5566409375,58.0,46.0
1034,212.81977928749998,214.0617850875,67.0,59.0
1035,213.9320232875,214.30508846249998,60.0,36.0
1036,214.2100842875,214.48814528749998,65.0,54.0
1037,213.3759012875,214.8113912,50.0,44.0
1038,214.48814528749998,214.85078317499998,67.0,46.0
1039,213.65396228749998,214.8658448125,55.0,38.0
1040,213.0978402875,214.915664075,43.0,39.0
1041,214.76620628749998,214.962007575,60.0,34.0
1042,215.3223282875,215.935221075,62.0,61.0
1043,215.3223282875,215.99546762499997,58.0,58.0
1044,216.1565112875,216.477440025,55.0,78.0
1045,216.43457228749998,216.71610905,58.0,66.0
1046,216.71263328749998,216.84587084999998,60.0,72.0
1047,215.60038928749998,216.90032446249998,46.0,32.0
1048,215.3223282875,216.9431922,39.0,72.0
1049,215.8784502875,217.12972478749998,51.0,60.0
1050,216.9906942875,217.3058300875,62.0,64.0
1051,217.2687552875,217.5827325,67.0,66.0
1052,217.54681628749998,217.807498475,69.0,63.0
1053,217.8248772875,217.9476875625,70.0,59.0
1054,218.1029382875,218.308008275,74.0,45.0
1055,218.38099928749998,218.771443275,67.0,55.0
1056,217.54681628749998,218.9371212875,51.0,63.0
1057,218.65906028749998,218.9510243375,70.0,70.0
1058,218.65906028749998,219.01706382499998,63.0,45.0
1059,217.8248772875,219.0749932,58.0,47.0
1060,218.9371212875,219.14566703749998,72.0,58.0
1061,219.2151822875,219.485133175,74.0,50.0
1062,219.49324328749998,219.8106962625,77.0,64.0
1063,219.7713042875,220.1976644875,43.0,62.0
1064,220.0493652875,220.37376978749998,50.0,44.0
1065,220.32742628749997,220.676161125,55.0,39.0
1066,219.7713042875,220.7653723625,74.0,67.0
1067,220.8835482875,221.2380760625,58.0,63.0
1068,220.60548728749998,221.283260975,57.0,48.0
1069,221.1616092875,221.51729565,62.0,59.0
1070,221.43967028749998,221.6876080125,67.0,51.0
1071,221.7177312875,222.02939132499998,69.0,61.0
1072,221.9957922875,222.5136809,70.0,70.0
1073,221.9957922875,222.743081225,43.0,66.0
1074,222.55191428749998,222.80101059999998,69.0,55.0
1075,222.55191428749998,222.821865175,55.0,48.0
1076,222.27385328749997,222.82881669999998,62.0,57.0
1077,222.27385328749997,223.16364848749998,50.0,48.0
1078,222.8299752875,223.50427321249998,70.0,72.0
1079,223.1080362875,223.62824207499997,69.0,70.0
1080,223.1080362875,223.73830788749999,60.0,59.0
1081,223.1080362875,223.75800387499999,41.0,69.0
1082,223.38609728749998,223.8170918375,50.0,55.0
1083,223.6641582875,223.850690875,65.0,69.0
1084,223.6641582875,223.8611181625,53.0,53.0
1085,224.22028028749997,224.84475895,67.0,67.0
1086,224.22028028749997,224.879516575,63.0,67.0
1087,224.22028028749997,224.951349,58.0,63.0
1088,225.0544632875,225.2305685875,58.0,41.0
1089,224.7764022875,225.4275284625,55.0,48.0
1090,224.22028028749997,225.4796649,51.0,63.0
1091,225.33252428749998,225.71601675,58.0,59.0
1092,225.33252428749998,225.72528545,63.0,73.0
1093,225.33252428749998,225.7380299125,67.0,66.0
1094,225.6105852875,225.83303408749998,55.0,48.0
1095,225.6105852875,225.84577854999998,51.0,46.0
1096,225.8886462875,226.135425425,58.0,58.0
1097,226.16670728749997,226.34397117499998,63.0,63.0
1098,226.44476828749998,227.080832825,67.0,66.0
1099,226.44476828749998,227.205960275,63.0,69.0
1100,227.1399207875,227.2302906125,48.0,40.0
1101,226.44476828749998,227.2314492,60.0,66.0
1102,227.4179817875,227.81074295,48.0,44.0
1103,227.5570122875,228.0575220875,67.0,67.0
1104,227.5570122875,228.0922797125,63.0,73.0
1105,227.5570122875,228.1803323625,60.0,69.0
1106,226.44476828749998,228.1861253,36.0,67.0
1107,228.11313428749997,228.2846052375,48.0,59.0
1108,229.22537828749998,229.52545245,55.0,69.0
1109,229.5034392875,229.6135051,57.0,64.0
1110,229.7815002875,230.09895326249998,62.0,69.0
1111,230.05956128749997,230.3190848875,67.0,61.0
1112,228.9473172875,230.4256749375,50.0,55.0
1113,230.33762228749998,230.4697012625,69.0,62.0
1114,228.6692562875,230.6272691625,38.0,70.0
1115,230.6156832875,231.52401588749998,50.0,52.0
1116,230.8937442875,231.52401588749998,74.0,75.0
1117,230.6156832875,231.55645633749998,62.0,49.0
1118,230.8937442875,231.56920079999998,38.0,67.0
1119,233.11823228749998,233.36269424999998,74.0,66.0
1120,233.3962932875,233.62685219999997,67.0,58.0
1121,233.3962932875,233.8203363125,58.0,33.0
1122,233.6743542875,233.8863758,63.0,38.0
1123,233.6743542875,233.89101015,62.0,38.0
1124,233.6743542875,233.90491319999998,70.0,64.0
1125,233.95241528749997,234.194560075,67.0,51.0
1126,233.95241528749997,234.51896457499998,58.0,55.0
1127,234.23047628749998,234.58152829999997,77.0,70.0
1128,234.5085372875,234.7124486875,67.0,46.0
1129,234.23047628749998,234.9279459625,62.0,54.0
1130,234.7865982875,234.96386217499997,79.0,55.0
1131,233.11823228749998,235.20253119999998,51.0,62.0
1132,234.7865982875,235.2488747,58.0,61.0
1133,235.06465928749998,235.31143842499998,67.0,54.0
1134,235.3427202875,235.631208575,72.0,67.0
1135,235.6207812875,235.9903707,65.0,55.0
1136,235.89884228749997,236.103912275,69.0,57.0
1137,236.17690328749998,236.57429879999998,65.0,49.0
1138,236.4549642875,236.72723234999998,77.0,66.0
1139,235.3427202875,236.90449623749998,51.0,61.0
1140,236.4549642875,237.07712577499998,58.0,58.0
1141,236.7330252875,237.0840773,65.0,58.0
1142,237.01108628749998,237.29262304999997,72.0,67.0
1143,237.5672082875,237.7942914375,69.0,62.0
1144,237.2891472875,237.7989257875,65.0,58.0
1145,237.84526928749997,238.2137001125,57.0,56.0
1146,238.12333028749998,238.305228525,60.0,60.0
1147,238.12333028749998,238.46163783749998,65.0,63.0
1148,238.4013912875,238.576338,62.0,64.0
1149,238.4013912875,238.60414409999998,67.0,75.0
1150,238.6794522875,238.76518776249998,62.0,44.0
1151,238.6794522875,238.82195854999998,65.0,58.0
1152,238.6794522875,238.916962725,69.0,57.0
1153,238.95751328749998,239.0478831125,65.0,51.0
1154,238.95751328749998,239.09306802499998,70.0,58.0
1155,238.95751328749998,239.0965437875,57.0,63.0
1156,237.5672082875,239.11276401249998,50.0,60.0
1157,239.2355742875,239.36881185,72.0,72.0
1158,239.5136352875,239.7384012625,74.0,70.0
1159,239.79169628749997,240.11957654999998,70.0,72.0
1160,240.06975728749998,240.719724875,50.0,48.0
1161,240.6258792875,240.7695441375,58.0,60.0
1162,240.6258792875,240.79039871249998,62.0,75.0
1163,240.90394028749998,240.98967576249999,62.0,63.0
1164,240.90394028749998,241.01516468749998,58.0,67.0
1165,240.3478182875,241.07425264999998,55.0,48.0
1166,239.79169628749997,241.13565778749998,43.0,58.0
1167,240.90394028749998,241.4774411,50.0,55.0
1168,241.32103178749998,241.50872296249997,57.0,67.0
1169,241.32103178749998,241.5411634125,60.0,69.0
1170,241.4600622875,241.61415442499998,41.0,60.0
1171,241.73812328749997,241.93276598749998,58.0,61.0
1172,241.73812328749997,241.9536205625,62.0,75.0
1173,242.01618428749998,242.503949625,55.0,66.0
1174,242.01618428749998,242.5190112625,58.0,64.0
1175,242.01618428749998,242.55724465,65.0,73.0
1176,242.85036728749998,243.0311069375,55.0,52.0
1177,242.5723062875,243.15044145,51.0,50.0
1178,243.1284282875,243.37289024999998,67.0,67.0
1179,243.26745878749998,243.4088064625,51.0,38.0
1180,243.1284282875,243.41228222499998,55.0,61.0
1181,243.1284282875,243.4157579875,58.0,63.0
1182,243.54551978749998,243.63009667499998,58.0,36.0
1183,243.54551978749998,243.72394226249997,55.0,58.0
1184,243.54551978749998,243.79229892499998,65.0,58.0
1185,242.01618428749998,243.8282151375,39.0,46.0
1186,242.2942452875,243.8583384125,46.0,50.0
1187,243.68455028749997,243.91047484999999,51.0,50.0
1188,243.96261128749998,244.107434725,55.0,50.0
1189,243.96261128749998,244.14219235,60.0,60.0
1190,244.2406722875,244.78173264999998,60.0,73.0
1191,244.2406722875,244.80142863749998,57.0,70.0
1192,244.79679428749998,245.14321195,53.0,47.0
1193,244.2406722875,245.26254646249998,41.0,63.0
1194,244.5187332875,245.2834010375,48.0,44.0
1195,245.0748552875,245.303097025,60.0,67.0
1196,245.0748552875,245.3899910875,57.0,72.0
1197,245.0748552875,245.409687075,65.0,66.0
1198,245.63097728749997,246.0781920625,57.0,62.0
1199,245.90903828749998,246.17551341249998,58.0,76.0
1200,246.1870992875,246.3539358875,60.0,58.0
1201,246.4651602875,247.0004277125,65.0,70.0
1202,246.4651602875,247.02939239999998,62.0,70.0
1203,246.4651602875,247.05603991249998,60.0,63.0
1204,247.2993432875,247.7430823,60.0,73.0
1205,247.0212822875,247.893698675,58.0,58.0
1206,247.85546528749998,247.92498053749998,60.0,45.0
1207,247.85546528749998,248.24011633749998,62.0,76.0
1208,247.9944957875,248.3455478,58.0,52.0
1209,246.4651602875,248.4046357625,46.0,62.0
1210,248.4115872875,248.57263095,60.0,41.0
1211,246.74322128749998,248.732516025,53.0,51.0
1212,248.5506177875,248.96191635,65.0,47.0
1213,248.68964828749998,249.01289419999998,70.0,59.0
1214,248.68964828749998,249.07314075,46.0,72.0
1215,248.68964828749998,249.103264025,74.0,63.0
1216,249.2457702875,249.4334614625,72.0,78.0
1217,249.2457702875,249.46937767499998,65.0,70.0
1218,249.2457702875,249.84244285,45.0,69.0
1219,249.80189228749998,250.15757864999998,62.0,66.0
1220,249.80189228749998,250.3974062625,43.0,63.0
1221,250.3580142875,250.51789936249997,69.0,80.0
1222,249.80189228749998,250.56656003749998,70.0,72.0
1223,250.3580142875,250.66851573749997,60.0,69.0
1224,250.3580142875,250.92224639999998,41.0,64.0
1225,250.91413628749999,251.4169632625,39.0,66.0
1226,251.1921972875,251.4633067625,46.0,64.0
1227,251.47025828749997,251.8108830125,51.0,56.0
1228,250.91413628749999,251.9325347,63.0,78.0
1229,250.91413628749999,252.083151075,67.0,72.0
1230,250.91413628749999,252.092419775,58.0,73.0
1231,252.0263802875,252.4203000375,55.0,61.0
1232,251.74831928749998,252.45158189999998,53.0,50.0
1233,252.3044412875,252.653176125,58.0,82.0
1234,252.58250228749998,253.01233825,63.0,73.0
1235,252.86056328749999,253.06099892499998,67.0,47.0
1236,253.1386242875,253.4444913875,69.0,78.0
1237,253.1386242875,253.48040759999998,60.0,69.0
1238,253.1386242875,253.505896525,65.0,69.0
1239,253.5557157875,253.6252310375,65.0,69.0
1240,253.1386242875,253.62870679999997,39.0,69.0
1241,253.5557157875,253.63565832499998,69.0,67.0
1242,253.5557157875,253.65187855,60.0,63.0
1243,253.41668528749997,253.68895335,46.0,55.0
1244,253.5557157875,253.8963405125,51.0,59.0
1245,253.9728072875,254.3620926875,60.0,66.0
1246,253.9728072875,254.3690442125,65.0,69.0
1247,253.9728072875,254.38410585,72.0,76.0
1248,253.8337767875,254.89851869999998,53.0,41.0
1249,254.52892928749998,254.910104575,62.0,67.0
1250,254.80699028749999,254.9321177375,55.0,52.0
1251,254.52892928749998,254.9448622,69.0,66.0
1252,254.94602078749998,255.30054856249998,67.0,63.0
1253,255.36311228749997,255.6550763375,38.0,66.0
1254,255.64117328749998,255.985273775,50.0,66.0
1255,255.36311228749997,256.1810750625,65.0,69.0
1256,255.36311228749997,256.2505903125,60.0,64.0
1257,256.4753562875,256.83915276249996,60.0,88.0
1258,256.19729528749997,256.847262875,57.0,50.0
1259,255.9192342875,256.9272054125,53.0,48.0
1260,256.7534172875,257.1033107125,65.0,64.0
1261,257.03147828749997,257.3396625625,67.0,72.0
1262,257.3095392875,257.570221475,69.0,61.0
1263,257.5876002875,257.9861543875,62.0,62.0
1264,257.5876002875,258.038290825,70.0,60.0
1265,257.5876002875,258.186590025,65.0,67.0
1266,258.1437222875,258.33257205,62.0,66.0
1267,258.1437222875,258.3916600125,69.0,72.0
1268,257.86566128749996,258.552703675,50.0,48.0
1269,258.4217832875,258.59557141249996,62.0,58.0
1270,258.4217832875,258.59673,70.0,72.0
1271,258.4217832875,258.62569468749996,55.0,53.0
1272,257.5876002875,258.66161089999997,43.0,50.0
1273,258.56081378749997,258.7739938875,50.0,32.0
1274,258.6998442875,258.85161925,62.0,70.0
1275,258.6998442875,258.85741218749996,69.0,70.0
1276,258.6998442875,259.3370674125,41.0,75.0
1277,258.9779052875,259.3857280875,50.0,61.0
1278,259.2559662875,259.4019483125,53.0,67.0
1279,259.2559662875,259.442498875,65.0,73.0
1280,259.5340272875,259.7309871625,58.0,67.0
1281,259.8120882875,260.36473452499996,39.0,64.0
1282,260.09014928749997,260.4099194375,46.0,48.0
1283,259.8120882875,260.52693677499997,63.0,69.0
1284,259.8120882875,260.5582186375,67.0,67.0
1285,259.8120882875,260.67060162499996,58.0,63.0
1286,260.3682102875,260.7470684,51.0,61.0
1287,260.6462712875,261.09927899999997,53.0,52.0
1288,260.92433228749996,261.2904459375,55.0,58.0
1289,261.2023932875,261.655401,53.0,58.0
1290,260.92433228749996,261.748088,63.0,62.0
1291,260.92433228749996,261.7538809375,58.0,61.0
1292,260.92433228749996,261.8535194625,67.0,57.0
1293,261.75851528749996,262.0226732375,50.0,47.0
1294,262.0365762875,262.1964613625,58.0,61.0
1295,262.0365762875,262.46641224999996,65.0,67.0
1296,262.0365762875,262.48842541249996,62.0,67.0
1297,262.3146372875,262.9703978125,48.0,51.0
1298,262.5926982875,263.3515731,53.0,48.0
1299,262.8707592875,263.3596832125,65.0,61.0
1300,262.8707592875,263.42340552499996,60.0,70.0
1301,262.8707592875,263.4906036,57.0,69.0
1302,262.0365762875,263.6759776,41.0,63.0
1303,263.4268812875,263.761713075,48.0,45.0
1304,263.7049422875,264.1730116375,57.0,60.0
1305,264.2610642875,264.53333234999997,58.0,67.0
1306,264.2610642875,264.609799125,62.0,67.0
1307,265.0952472875,265.49032562499997,60.0,66.0
1308,265.0952472875,265.5957570875,65.0,69.0
1309,264.81718628749996,265.768386625,58.0,49.0
1310,265.65136928749996,266.074253725,62.0,60.0
1311,264.5391252875,266.10553558749996,53.0,53.0
1312,264.2610642875,266.11943863749997,46.0,52.0
1313,265.9294302875,266.2190771625,58.0,38.0
1314,266.2074912875,266.39402387499996,60.0,58.0
1315,266.34652178749997,266.52610285,62.0,61.0
1316,266.4855522875,266.760137525,63.0,59.0
1317,266.7636132875,267.0161853625,62.0,67.0
1318,266.7636132875,267.17259467499997,53.0,62.0
1319,267.0416742875,267.4112637,58.0,48.0
1320,267.0416742875,267.4668759,60.0,61.0
1321,267.3197352875,267.6371882625,62.0,58.0
1322,267.5977962875,267.79707333749997,63.0,63.0
1323,267.87585728749997,268.25123963749996,65.0,69.0
1324,266.4855522875,268.266301275,46.0,60.0
1325,267.3197352875,268.3833186125,53.0,61.0
1326,268.1539182875,268.3949044875,67.0,61.0
1327,268.4319792875,268.6984544125,69.0,57.0
1328,268.71004028749996,269.3148229625,67.0,61.0
1329,268.71004028749996,269.35305635,63.0,58.0
1330,269.54422328749996,270.17333629999996,62.0,54.0
1331,270.1003452875,270.23474143749996,63.0,61.0
1332,268.71004028749996,270.27413341249996,48.0,63.0
1333,268.9881012875,270.3366971375,55.0,43.0
1334,269.2661622875,270.3807234625,60.0,53.0
1335,270.9345282875,271.2728358375,62.0,62.0
1336,270.9345282875,271.31454498749997,65.0,67.0
1337,271.76871128749997,272.34916362499996,65.0,63.0
1338,271.4906502875,272.4708153125,60.0,52.0
1339,271.2125892875,272.51368305,57.0,46.0
1340,270.9345282875,272.52411033749996,50.0,55.0
1341,272.3248332875,272.9597392375,69.0,61.0
1342,273.1590162875,273.5529360375,43.0,56.0
1343,273.43707728749996,273.665319025,50.0,44.0
1344,273.1590162875,273.94106285,70.0,72.0
1345,273.7151382875,274.09283781249997,55.0,45.0
1346,273.9931992875,274.5585899875,69.0,49.0
1347,273.9931992875,274.6072506625,62.0,49.0
1348,273.9931992875,274.6929861375,57.0,48.0
1349,274.5493212875,274.69530331249996,58.0,61.0
1350,275.2444737875,275.3835042875,58.0,40.0
1351,275.1054432875,275.38582146249996,57.0,59.0
1352,275.3835042875,275.69284715,58.0,69.0
1353,275.66156528749997,275.88748985,60.0,72.0
1354,275.9396262875,276.2941540625,62.0,76.0
1355,274.5493212875,276.34281473749996,43.0,66.0
1356,275.1054432875,276.34281473749996,55.0,50.0
1357,276.3567177875,276.413488575,69.0,59.0
1358,274.8273822875,276.42623303749997,50.0,56.0
1359,276.2176872875,276.4494047875,67.0,56.0
1360,276.49574828749996,276.7877123375,55.0,82.0
1361,276.49574828749996,276.7877123375,62.0,88.0
1362,276.49574828749996,276.7877123375,70.0,64.0
1363,276.49574828749996,276.798139625,43.0,76.0
1364,276.49574828749996,276.82826289999997,67.0,80.0
1365,276.9128397875,277.0866279125,55.0,67.0
1366,276.9128397875,277.15150881249997,43.0,76.0
1367,276.9128397875,277.15961892499996,62.0,80.0
1368,276.9128397875,277.1700462125,70.0,78.0
1369,276.9128397875,277.229134175,67.0,76.0
1370,277.32993128749996,277.48749918749996,65.0,85.0
1371,277.32993128749996,277.4898163625,69.0,82.0
1372,277.32993128749996,277.5083537625,53.0,75.0
1373,277.32993128749996,277.52689116249996,60.0,80.0
1374,277.32993128749996,277.5407942125,41.0,82.0
1375,277.6079922875,277.9300796125,39.0,80.0
1376,277.8860532875,278.2452154125,51.0,70.0
1377,277.6079922875,278.46187127499996,67.0,80.0
1378,277.6079922875,278.475774325,62.0,82.0
1379,277.6079922875,278.4873602,58.0,78.0
1380,278.7202362875,279.04695796249996,58.0,80.0
1381,278.9982972875,279.3690452875,63.0,72.0
1382,278.1641142875,279.4640494625,53.0,53.0
1383,278.4421752875,279.4640494625,55.0,72.0
1384,279.2763582875,279.5729566875,65.0,66.0
1385,279.55441928749997,279.8591278,70.0,80.0
1386,279.8324802875,280.1707878375,60.0,78.0
1387,279.8324802875,280.19627676249996,65.0,78.0
1388,279.8324802875,280.324879975,69.0,76.0
1389,279.8324802875,280.32719714999996,39.0,78.0
1390,280.1105412875,280.3654305375,46.0,63.0
1391,280.2495717875,280.37585782499997,65.0,61.0
1392,280.2495717875,280.3955538125,60.0,67.0
1393,280.2495717875,280.3967124,70.0,75.0
1394,280.2495717875,280.5392186625,51.0,59.0
1395,280.6666632875,281.0721689125,60.0,70.0
1396,280.6666632875,281.080279025,65.0,67.0
1397,280.6666632875,281.3791946,72.0,80.0
1398,281.22278528749996,281.41511081249996,60.0,72.0
1399,280.9447242875,281.571520125,55.0,73.0
1400,281.5008462875,281.5958504625,60.0,43.0
1401,281.5008462875,281.603960575,72.0,58.0
1402,280.5276327875,281.66420712499996,53.0,63.0
1403,281.5008462875,281.71750215,65.0,93.0
1404,281.7789072875,282.0001975,72.0,78.0
1405,282.0569682875,282.28868578749996,60.0,75.0
1406,282.0569682875,282.3697869125,65.0,78.0
1407,282.0569682875,282.39411724999997,69.0,82.0
1408,282.4740597875,282.67797118749996,62.0,67.0
1409,282.4740597875,282.87029671249996,67.0,64.0
1410,282.3350292875,283.031340375,57.0,69.0
1411,282.8911512875,283.2294588375,69.0,78.0
1412,282.8911512875,283.2618992875,60.0,80.0
1413,282.8911512875,283.2827538625,65.0,80.0
1414,283.44727328749997,283.6036826,60.0,97.0
1415,283.58630378749996,283.7739949625,65.0,63.0
1416,283.7253342875,283.9524174375,67.0,64.0
1417,283.8643647875,283.9871750625,69.0,69.0
1418,283.3082427875,284.0219326875,57.0,62.0
1419,282.0569682875,284.13779143749997,50.0,85.0
1420,284.0033952875,284.1910864625,72.0,70.0
1421,284.1424257875,284.324324025,69.0,75.0
1422,284.28145628749996,284.36024023749997,67.0,63.0
1423,284.28145628749996,284.53982129999997,62.0,91.0
1424,284.28145628749996,284.61860525,65.0,63.0
1425,284.28145628749996,284.66147298749996,43.0,93.0
1426,284.28145628749996,284.6823275625,70.0,95.0
1427,284.5595172875,284.764587275,50.0,57.0
1428,284.6985477875,284.834102525,60.0,85.0
1429,284.6985477875,284.9661815,55.0,69.0
1430,284.6985477875,285.08551601249997,69.0,82.0
1431,285.11563928749996,285.149238325,69.0,66.0
1432,285.11563928749996,285.28247588749997,62.0,82.0
1433,285.11563928749996,285.4423609625,70.0,64.0
1434,285.3937002875,285.5118762125,62.0,66.0
1435,285.3937002875,285.7598139375,69.0,82.0
1436,285.3937002875,285.9498222875,58.0,72.0
1437,284.97660878749997,286.0054344875,57.0,47.0
1438,285.9498222875,286.117817475,60.0,91.0
1439,285.9498222875,286.12129323749997,65.0,103.0
1440,286.2278832875,286.40283,63.0,95.0
1441,286.5059442875,286.836141725,67.0,69.0
1442,286.5059442875,286.89407109999996,58.0,91.0
1443,286.5059442875,286.9415731875,39.0,73.0
1444,286.5059442875,286.94504895,63.0,78.0
1445,286.7840052875,287.040053125,46.0,69.0
1446,287.0620662875,287.4235455875,51.0,59.0
1447,287.7572187875,287.906676575,58.0,88.0
1448,287.8962492875,288.105953625,63.0,67.0
1449,288.0352797875,288.203274975,65.0,59.0
1450,287.6181882875,288.2693144625,55.0,70.0
1451,288.17431028749996,288.30059632499996,67.0,66.0
1452,287.34012728749997,288.3295610125,53.0,56.0
1453,288.3133407875,288.550851225,70.0,73.0
1454,288.4523712875,288.6400624625,69.0,63.0
1455,288.5914017875,288.7095777125,67.0,48.0
1456,288.7304322875,288.8486082125,65.0,45.0
1457,288.7304322875,289.0942287625,60.0,70.0
1458,288.7304322875,289.16606118749996,41.0,72.0
1459,288.7304322875,289.2332592625,69.0,97.0
1460,289.00849328749996,289.2958229875,48.0,49.0
1461,289.2865542875,289.46729393749996,60.0,61.0
1462,289.2865542875,289.5622981125,67.0,72.0
1463,289.2865542875,289.639923475,53.0,45.0
1464,289.5646152875,289.7546236375,69.0,78.0
1465,289.5646152875,289.788222675,60.0,72.0
1466,289.8426762875,290.1659222,57.0,49.0
1467,289.5646152875,290.2690364875,55.0,72.0
1468,290.1207372875,290.40227404999996,72.0,73.0
1469,290.1207372875,290.4127013375,60.0,82.0
1470,290.3987982875,290.48569234999997,57.0,63.0
1471,290.6768592875,290.84369588749996,67.0,58.0
1472,290.9549202875,291.2515186875,69.0,91.0
1473,290.9549202875,291.322192525,60.0,80.0
1474,290.9549202875,291.33377839999997,65.0,93.0
1475,291.5110422875,291.75550425,60.0,78.0
1476,291.23298128749997,291.91423073749996,57.0,62.0
1477,291.7891032875,292.33363941249996,65.0,75.0
1478,292.3452252875,292.6673126125,57.0,73.0
1479,290.9549202875,292.707863175,50.0,69.0
1480,292.6232862875,292.85847954999997,65.0,97.0
1481,293.1794082875,293.555949225,62.0,69.0
1482,293.1794082875,293.6057684875,70.0,88.0
1483,293.1794082875,293.62778165,65.0,72.0
1484,293.7355302875,293.94291745,62.0,91.0
1485,293.7355302875,293.97188213749996,69.0,73.0
1486,293.7355302875,294.1016439375,55.0,70.0
1487,293.1794082875,294.1549389625,43.0,72.0
1488,294.0135912875,294.1607319,65.0,52.0
1489,294.0135912875,294.16536625,70.0,73.0
1490,293.4574692875,294.1827450625,50.0,60.0
1491,294.29165228749997,294.58361633749996,70.0,91.0
1492,294.29165228749997,294.5870921,55.0,88.0
1493,294.29165228749997,294.59288503749997,62.0,97.0
1494,294.29165228749997,294.5952022125,43.0,73.0
1495,294.7087437875,294.853567225,55.0,88.0
1496,294.7087437875,294.9752189125,60.0,88.0
1497,294.7087437875,294.97753608749997,43.0,95.0
1498,294.7087437875,294.9868047875,69.0,93.0
1499,295.12583528749997,295.25907285,53.0,64.0
1500,295.12583528749997,295.2810860125,60.0,67.0
1501,295.12583528749997,295.30541635,41.0,78.0
1502,295.12583528749997,295.386517475,65.0,88.0
1503,295.4038962875,295.7839129875,67.0,85.0
1504,295.4038962875,295.826780725,51.0,91.0
1505,295.4038962875,295.840683775,39.0,80.0
1506,295.4038962875,295.84184236249996,58.0,85.0
1507,295.6819572875,295.9530667625,46.0,64.0
1508,295.4038962875,295.9681284,63.0,82.0
1509,296.5161402875,296.9100600375,55.0,61.0
1510,296.2380792875,296.9413419,53.0,50.0
1511,296.79420128749996,297.142936125,58.0,82.0
1512,297.0722622875,297.50209824999996,63.0,73.0
1513,297.3503232875,297.55075892499997,67.0,47.0
1514,297.6283842875,297.9342513875,69.0,78.0
1515,297.6283842875,297.97016759999997,60.0,69.0
1516,297.6283842875,297.99565652499996,65.0,69.0
1517,298.0454757875,298.1149910375,65.0,69.0
1518,297.6283842875,298.11846679999996,39.0,69.0
1519,298.0454757875,298.125418325,69.0,67.0
1520,298.0454757875,298.14163855,60.0,63.0
1521,297.9064452875,298.17871335,46.0,55.0
1522,298.0454757875,298.3861005125,51.0,59.0
1523,298.4625672875,298.85185268749996,60.0,66.0
1524,298.4625672875,298.8588042125,65.0,69.0
1525,298.4625672875,298.87386584999996,72.0,76.0
1526,298.32353678749996,299.3882787,53.0,41.0
1527,299.01868928749997,299.399864575,62.0,67.0
1528,299.2967502875,299.4218777375,55.0,52.0
1529,299.01868928749997,299.4346222,69.0,66.0
1530,299.4357807875,299.7903085625,67.0,63.0
1531,299.85287228749996,300.1448363375,38.0,66.0
1532,300.1309332875,300.475033775,50.0,66.0
1533,299.85287228749996,300.6708350625,65.0,69.0
1534,299.85287228749996,300.74035031249997,60.0,64.0
1535,300.9651162875,301.3289127625,60.0,88.0
1536,300.68705528749996,301.337022875,57.0,50.0
1537,300.4089942875,301.41696541249996,53.0,48.0
1538,301.2431772875,301.5930707125,65.0,64.0
1539,301.5212382875,301.8294225625,67.0,72.0
1540,301.7992992875,302.059981475,69.0,61.0
1541,302.07736028749997,302.4759143875,62.0,62.0
1542,302.07736028749997,302.528050825,70.0,60.0
1543,302.07736028749997,302.676350025,65.0,67.0
1544,302.6334822875,302.82233205,62.0,66.0
1545,302.6334822875,302.8814200125,69.0,72.0
1546,302.3554212875,303.04246367499996,50.0,48.0
1547,302.91154328749997,303.0853314125,62.0,58.0
1548,302.91154328749997,303.08648999999997,70.0,72.0
1549,302.91154328749997,303.1154546875,55.0,53.0
1550,302.07736028749997,303.15137089999996,43.0,50.0
1551,303.05057378749996,303.2637538875,50.0,32.0
1552,303.1896042875,303.34137925,62.0,70.0
1553,303.1896042875,303.3471721875,69.0,70.0
1554,303.1896042875,303.8268274125,41.0,75.0
1555,303.4676652875,303.8754880875,50.0,61.0
1556,303.74572628749996,303.8917083125,53.0,67.0
1557,303.74572628749996,303.932258875,65.0,73.0
1558,304.0237872875,304.2207471625,58.0,67.0
1559,304.3018482875,304.854494525,39.0,64.0
1560,304.57990928749996,304.89967943749997,46.0,48.0
1561,304.3018482875,305.01669677499996,63.0,69.0
1562,304.3018482875,305.04797863749997,67.0,67.0
1563,304.3018482875,305.160361625,58.0,63.0
1564,304.8579702875,305.2368284,51.0,61.0
1565,305.1360312875,305.58903899999996,53.0,52.0
1566,305.4140922875,305.7802059375,55.0,58.0
1567,305.6921532875,306.145161,53.0,58.0
1568,305.4140922875,306.237848,63.0,62.0
1569,305.4140922875,306.2436409375,58.0,61.0
1570,305.4140922875,306.3432794625,67.0,57.0
1571,306.2482752875,306.5124332375,50.0,47.0
1572,306.5263362875,306.68622136249996,58.0,61.0
1573,306.5263362875,306.95617225,65.0,67.0
1574,306.5263362875,306.9781854125,62.0,67.0
1575,306.80439728749997,307.4601578125,48.0,51.0
1576,307.0824582875,307.8413331,53.0,48.0
1577,307.3605192875,307.8494432125,65.0,61.0
1578,307.3605192875,307.913165525,60.0,70.0
1579,307.3605192875,307.9803636,57.0,69.0
1580,306.5263362875,308.1657376,41.0,63.0
1581,307.9166412875,308.251473075,48.0,45.0
1582,308.1947022875,308.6627716375,57.0,60.0
1583,308.7508242875,309.02309234999996,58.0,67.0
1584,308.7508242875,309.099559125,62.0,67.0
1585,309.5850072875,309.98008562499996,60.0,66.0
1586,309.5850072875,310.08551708749997,65.0,69.0
1587,309.3069462875,310.258146625,58.0,49.0
1588,310.1411292875,310.564013725,62.0,60.0
1589,309.0288852875,310.5952955875,53.0,53.0
1590,308.7508242875,310.60919863749996,46.0,52.0
1591,310.4191902875,310.7088371625,58.0,38.0
1592,310.69725128749997,310.883783875,60.0,58.0
1593,310.83628178749996,311.01586284999996,62.0,61.0
1594,310.9753122875,311.249897525,63.0,59.0
1595,311.2533732875,311.5059453625,62.0,67.0
1596,311.2533732875,311.66235467499996,53.0,62.0
1597,311.53143428749996,311.9010237,58.0,48.0
1598,311.53143428749996,311.9566359,60.0,61.0
1599,311.8094952875,312.1269482625,62.0,58.0
1600,312.0875562875,312.28683333749996,63.0,63.0
1601,312.36561728749996,312.7409996375,65.0,69.0
1602,310.9753122875,312.756061275,46.0,60.0
1603,311.8094952875,312.87307861249997,53.0,61.0
1604,312.6436782875,312.8846644875,67.0,61.0
1605,312.9217392875,313.1882144125,69.0,57.0
1606,313.1998002875,313.8045829625,67.0,61.0
1607,313.1998002875,313.84281634999996,63.0,58.0
1608,314.0339832875,314.6630963,62.0,54.0
1609,314.59010528749997,314.7245014375,63.0,61.0
1610,313.1998002875,314.7638934125,48.0,63.0
1611,313.4778612875,314.8264571375,55.0,43.0
1612,313.75592228749997,314.8704834625,60.0,53.0
1613,315.42428828749996,315.7625958375,62.0,62.0
1614,315.42428828749996,315.80430498749996,65.0,67.0
1615,316.25847128749996,316.838923625,65.0,63.0
1616,315.9804102875,316.9605753125,60.0,52.0
1617,315.7023492875,317.00344305,57.0,46.0
1618,315.42428828749996,317.0138703375,50.0,55.0
1619,316.8145932875,317.4494992375,69.0,61.0
1620,317.64877628749997,318.1747750125,43.0,73.0
1621,317.9268372875,318.20373969999997,50.0,56.0
1622,318.2048982875,318.5930251,55.0,58.0
1623,317.64877628749997,318.799253675,67.0,66.0
1624,317.64877628749997,318.8004122625,70.0,73.0
1625,318.48295928749997,319.1966491875,57.0,69.0
1626,318.7610202875,319.214028,58.0,69.0
1627,319.0390812875,319.34726556249996,62.0,69.0
1628,319.31714228749996,319.63575384999996,67.0,52.0
1629,319.5952032875,319.897594625,69.0,64.0
1630,319.8732642875,320.3598710375,43.0,66.0
1631,320.15132528749996,320.4015801875,50.0,49.0
1632,320.4293862875,320.764218075,55.0,42.0
1633,319.8732642875,321.014472975,70.0,67.0
1634,320.4293862875,321.023741675,69.0,62.0
1635,319.8732642875,321.0770367,62.0,61.0
1636,320.9855082875,321.345829,67.0,64.0
1637,321.2635692875,321.57638791249997,62.0,46.0
1638,320.7074472875,321.5995596625,57.0,40.0
1639,320.9855082875,321.60071825,58.0,62.0
1640,321.54163028749997,321.8127397625,67.0,63.0
1641,321.8196912875,322.0120168125,70.0,63.0
1642,322.0977522875,322.719913775,63.0,58.0
1643,322.0977522875,322.72223095,70.0,57.0
1644,322.0977522875,322.7372925875,67.0,63.0
1645,323.20999628749996,323.693127275,70.0,61.0
1646,323.20999628749996,323.7962415625,60.0,47.0
1647,322.0977522875,323.8449022375,48.0,66.0
1648,322.6538742875,323.94569935,55.0,36.0
1649,323.20999628749996,323.985091325,67.0,62.0
1650,323.20999628749996,324.1090601875,63.0,63.0
1651,324.3222402875,324.675609475,65.0,59.0
1652,324.3222402875,324.8111642125,69.0,57.0
1653,325.1564232875,325.85389296249997,65.0,69.0
1654,324.8783622875,325.99292346249996,60.0,54.0
1655,324.6003012875,326.03115685,57.0,40.0
1656,324.3222402875,326.07170741249996,50.0,58.0
1657,325.7125452875,326.144698425,72.0,64.0
1658,327.3809112875,327.64970358749997,57.0,76.0
1659,327.6589722875,327.7725138625,58.0,66.0
1660,327.93703328749996,328.350649025,62.0,85.0
1661,326.5467282875,328.5070583375,43.0,70.0
1662,328.2150942875,328.5325472625,70.0,69.0
1663,327.10285028749996,328.57541499999996,55.0,85.0
1664,326.8247892875,328.7515203,50.0,72.0
1665,328.4931552875,328.98207921249997,69.0,97.0
1666,329.0492772875,330.20207185,50.0,60.0
1667,329.6053992875,330.4766570875,58.0,72.0
1668,329.6053992875,330.51141471249997,57.0,67.0
1669,329.6053992875,330.57629561249996,62.0,73.0
1670,329.32733828749997,330.6527623875,55.0,53.0
1671,328.7712162875,330.690995775,43.0,62.0
1672,330.8566737875,331.0327790875,57.0,60.0
1673,330.5786127875,331.094184225,50.0,63.0
1674,330.99570428749996,331.5703636875,62.0,72.0
1675,330.99570428749996,331.5889010875,58.0,72.0
1676,331.5518262875,332.09288664999997,55.0,82.0
1677,331.82988728749996,332.1334372125,57.0,64.0
1678,331.82988728749996,332.3790577625,58.0,75.0
1679,331.82988728749996,332.382533525,62.0,73.0
1680,332.6640702875,332.8668231,57.0,75.0
1681,330.99570428749996,333.008170775,43.0,72.0
1682,332.3860092875,333.02902535,55.0,50.0
1683,331.2737652875,333.03597687499996,50.0,64.0
1684,332.9421312875,333.54807255,58.0,75.0
1685,332.9421312875,333.80064462499996,65.0,75.0
1686,334.05437528749997,334.282617025,57.0,88.0
1687,334.4714667875,334.824835975,58.0,95.0
1688,334.74952778749997,334.8769724125,60.0,76.0
1689,335.1666192875,335.436570175,62.0,75.0
1690,333.22019228749997,335.5999310125,43.0,78.0
1691,333.7763142875,335.608041125,55.0,78.0
1692,333.4982532875,335.63121287499996,50.0,72.0
1693,335.58371078749997,335.663653325,67.0,67.0
1694,336.1398327875,337.02962798749996,58.0,75.0
1695,336.1398327875,337.040055275,55.0,62.0
1696,336.1398327875,337.049323975,57.0,57.0
1697,336.1398327875,337.0620684375,50.0,69.0
1698,336.2788632875,337.072495725,62.0,63.0
1699,336.1398327875,337.09450888749996,43.0,59.0
