,start,end,pitch,velocity
0,15.8880718625,16.44766455,85.0,91.0
1,16.5857458625,16.968013075000002,81.0,91.0
2,16.9345828625,17.8386520875,78.0,91.0
3,26.0043448625,26.7136467625,81.0,86.0
4,26.7020188625,28.6511456,83.0,88.0
5,29.4927148625,30.1874818875,71.0,89.0
6,30.1903888625,30.8837024,78.0,94.0
7,30.8880628625,31.5828298875,78.0,97.0
8,31.5857368625,31.9316668875,76.0,96.0
9,31.9345738625,32.280503887500004,74.0,93.0
10,32.2834108625,32.6278874,76.0,100.0
11,32.6322478625,32.9767244,76.0,92.0
12,32.9810848625,33.3357358125,76.0,100.0
13,33.3299218625,33.6758518875,78.0,103.0
14,33.6787588625,34.3735258875,76.0,98.0
15,34.3764328625,34.72672335,74.0,66.0
16,34.7252698625,35.0711998875,73.0,81.0
17,35.0741068625,35.7688738875,71.0,91.0
18,35.7717808625,36.4665478875,74.0,90.0
19,36.4694548625,36.8153848875,76.0,90.0
20,36.8182918625,37.1642218875,78.0,84.0
21,37.1671288625,37.5130588875,81.0,90.0
22,37.5159658625,37.8618958875,76.0,77.0
23,37.8648028625,39.9549178875,78.0,95.0
24,39.9578248625,40.3706153125,78.0,91.0
25,40.3066618625,40.6525918875,81.0,86.0
26,40.655498862500004,41.6991028875,76.0,93.0
27,41.7020098625,42.0479398875,74.0,99.0
28,42.0508468625,43.4418344,76.0,98.0
29,43.4461948625,43.8022993,76.0,90.0
30,43.795031862500004,44.1409618875,78.0,99.0
31,44.1438688625,44.4999733,74.0,97.0
32,44.4927058625,44.845903325,73.0,96.0
33,44.8415428625,45.5348564,71.0,100.0
34,45.5392168625,45.8851468875,71.0,97.0
35,45.8880538625,46.2339838875,69.0,97.0
36,46.2368908625,46.9316578875,71.0,106.0
37,46.9345648625,47.6293318875,74.0,100.0
38,47.6322388625,47.9781688875,76.0,108.0
39,47.9810758625,48.3270058875,78.0,96.0
40,48.3299128625,48.6758428875,73.0,105.0
41,48.6787498625,49.0246798875,69.0,93.0
42,49.0275868625,51.8139224,71.0,101.0
43,51.8182828625,52.5130498875,71.0,93.0
44,52.5159568625,53.2092704,78.0,99.0
45,53.2136308625,53.9083978875,78.0,101.0
46,53.9113048625,54.2572348875,76.0,97.0
47,54.2601418625,54.6060718875,74.0,95.0
48,54.6089788625,55.3022924,76.0,96.0
49,55.3066528625,55.6874665875,76.0,98.0
50,55.6554898625,56.0232222,78.0,99.0
51,56.0043268625,56.6990938875,76.0,105.0
52,56.7020008625,57.0479308875,74.0,101.0
53,57.0508378625,57.3967678875,73.0,95.0
54,57.3996748625,58.0944418875,71.0,93.0
55,58.0973488625,58.7921158875,74.0,101.0
56,58.7950228625,59.1409528875,76.0,100.0
57,59.1438598625,59.4897898875,78.0,93.0
58,59.4926968625,59.8386268875,81.0,90.0
59,59.8415338625,60.1874638875,76.0,68.0
60,60.190370862500004,62.2804858875,78.0,105.0
61,62.2833928625,62.6293228875,83.0,108.0
62,62.6322298625,62.9781598875,81.0,99.0
63,62.9810668625,64.0246708875,76.0,100.0
64,64.0275778625,64.3735078875,74.0,109.0
65,64.3764148625,65.7674024,76.0,106.0
66,65.7717628625,66.1176928875,76.0,103.0
67,66.1205998625,66.4752508125,78.0,100.0
68,66.4694368625,66.8153668875,74.0,108.0
69,66.8182738625,67.1743783,73.0,99.0
70,67.1671108625,67.8604244,71.0,106.0
71,67.8647848625,68.2107148875,71.0,100.0
72,68.2136218625,68.5595518875,69.0,87.0
73,68.5624588625,69.26158635,71.0,94.0
74,69.2601328625,69.9548998875,74.0,99.0
75,69.95780686250001,70.3037368875,76.0,103.0
76,70.3066438625,70.6787366625,78.0,93.0
77,70.6554808625,71.0014108875,73.0,90.0
78,71.0043178625,71.363329275,69.0,84.0
79,71.3531548625,73.4432698875,71.0,108.0
80,73.4461768625,73.7906534,74.0,105.0
81,73.7950138625,74.1409438875,76.0,101.0
82,74.1438508625,74.8386178875,78.0,103.0
83,74.8415248625,75.1874548875,71.0,93.0
84,75.1903618625,75.5362918875,78.0,106.0
85,75.5391988625,76.9316398875,76.0,99.0
86,76.9345468625,77.2804768875,81.0,106.0
87,77.2833838625,77.642395275,83.0,99.0
88,77.6322208625,77.99413925,85.0,97.0
89,77.9810578625,78.35460415,81.0,98.0
90,78.3298948625,79.7223358875,78.0,99.0
91,79.7252428625,80.0711728875,74.0,106.0
92,80.0740798625,80.4185564,71.0,94.0
93,80.4229168625,80.7688468875,71.0,93.0
94,80.7717538625,81.11768388750001,74.0,97.0
95,81.1205908625,81.4665208875,76.0,98.0
96,81.4694278625,81.8153578875,78.0,90.0
97,81.8182648625,82.1641948875,81.0,90.0
98,82.1671018625,82.55227605,76.0,95.0
99,82.5159388625,84.6046004,78.0,106.0
100,84.6089608625,84.9548908875,78.0,97.0
101,84.9577978625,85.3037278875,81.0,98.0
102,85.3066348625,86.0014018875,83.0,100.0
103,86.0043088625,86.3502388875,81.0,108.0
104,86.3531458625,86.6990758875,78.0,87.0
105,86.7019828625,88.0929704,76.0,94.0
106,88.0973308625,88.4432608875,76.0,101.0
107,88.4461678625,88.7920978875,78.0,97.0
108,88.7950048625,89.1409348875,73.0,84.0
109,89.1438418625,89.4897718875,76.0,87.0
110,89.4926788625,90.8851198875,74.0,101.0
111,90.8880268625,91.5827938875,71.0,95.0
112,91.5857008625,91.9316308875,74.0,100.0
113,91.9345378625,92.2804678875,78.0,103.0
114,92.2833748625,92.6293048875,76.0,98.0
115,92.6322118625,92.9781418875,74.0,93.0
116,92.9810488625,93.3269788875,73.0,94.0
117,93.3298858625,93.68017635,69.0,89.0
118,93.6787228625,95.7688378875,71.0,99.0
119,95.7717448625,96.1351167375,74.0,109.0
120,96.1205818625,96.47087235,76.0,93.0
121,96.4694188625,97.1641858875,78.0,103.0
122,97.1670928625,97.5130228875,71.0,97.0
123,97.5159298625,97.8618598875,78.0,108.0
124,97.8647668625,99.0813359,76.0,108.0
125,99.0856963625,99.2572078875,76.0,66.0
126,99.2601148625,99.6060448875,81.0,97.0
127,99.6089518625,99.9548818875,83.0,93.0
128,99.9577888625,100.3037188875,85.0,90.0
129,100.3066258625,100.6525558875,81.0,98.0
130,100.6554628625,102.0479038875,78.0,109.0
131,102.0508108625,102.3967408875,74.0,100.0
132,102.3996478625,102.7441244,71.0,90.0
133,102.7484848625,103.0944148875,71.0,93.0
134,103.0973218625,103.4432518875,74.0,94.0
135,103.4461588625,103.7920888875,76.0,96.0
136,103.7949958625,104.1409258875,78.0,92.0
137,104.1438328625,104.4897628875,81.0,86.0
138,104.4926698625,104.8385998875,76.0,99.0
139,104.8415068625,106.9301684,78.0,103.0
140,106.9345288625,107.2804588875,78.0,95.0
141,107.2833658625,107.6292958875,81.0,90.0
142,107.6322028625,108.369121025,83.0,103.0
143,108.3298768625,108.6758068875,81.0,96.0
144,108.6787138625,109.0246438875,78.0,85.0
145,109.02755086250001,110.2441199,76.0,100.0
146,110.2484803625,110.4185384,76.0,95.0
147,110.4228988625,110.7688288875,76.0,94.0
148,110.7717358625,111.1176658875,78.0,100.0
149,111.1205728625,111.4665028875,73.0,97.0
150,111.4694098625,111.8153398875,76.0,100.0
151,111.8182468625,113.2106878875,74.0,109.0
152,113.2135948625,113.9083618875,71.0,97.0
153,113.9112688625,114.2571988875,74.0,99.0
154,114.2601058625,114.6060358875,78.0,96.0
155,114.6089428625,114.9548728875,76.0,93.0
156,114.9577798625,115.3037098875,74.0,90.0
157,115.30661686250001,115.6525468875,73.0,89.0
158,115.6554538625,116.0013838875,69.0,93.0
159,116.0042908625,117.3967318875,71.0,101.0
160,118.4461498625,118.6147544125,74.0,82.0
161,118.6205683625,118.7891729125,76.0,80.0
162,118.7949868625,120.1845209125,78.0,81.0
163,120.1903348625,121.5798689125,76.0,82.0
164,121.5856828625,121.9287059125,81.0,90.0
165,121.9345198625,122.2775429125,83.0,98.0
166,122.2833568625,122.6263799125,85.0,98.0
167,122.6321938625,122.9752169125,81.0,94.0
168,122.9810308625,124.3705649125,78.0,91.0
169,124.3763788625,125.4170759125,74.0,101.0
170,125.4228898625,125.7659129125,71.0,86.0
171,125.7717268625,126.1147499125,76.0,95.0
172,126.1205638625,126.4635869125,78.0,84.0
173,126.4694008625,126.8124239125,81.0,86.0
174,126.8182378625,127.1612609125,76.0,90.0
175,127.1670748625,127.5100979125,78.0,95.0
176,137.6321848625,138.2484635625,81.0,110.0
177,138.3298588625,140.1859624,83.0,97.0
178,141.1205548625,141.8153218875,71.0,89.0
179,141.8182288625,142.5115424,78.0,94.0
180,142.5159028625,143.2106698875,78.0,97.0
181,143.2135768625,143.5595068875,76.0,96.0
182,143.5624138625,143.9083438875,74.0,93.0
183,143.9112508625,144.2557274,76.0,100.0
184,144.2600878625,144.6045644,76.0,92.0
185,144.6089248625,144.9635758125,76.0,100.0
186,144.9577618625,145.3036918875,78.0,103.0
187,145.3065988625,146.00136588750001,76.0,98.0
188,146.0042728625,146.35456335,74.0,66.0
189,146.3531098625,146.6990398875,73.0,81.0
190,146.7019468625,147.3967138875,71.0,91.0
191,147.3996208625,148.0943878875,74.0,90.0
192,148.0972948625,148.4432248875,76.0,90.0
193,148.4461318625,148.7920618875,78.0,84.0
194,148.7949688625,149.1408988875,81.0,90.0
195,149.1438058625,149.4897358875,76.0,77.0
196,149.4926428625,151.5827578875,78.0,95.0
197,151.5856648625,151.9984553125,78.0,91.0
198,151.9345018625,152.2804318875,81.0,86.0
199,152.2833388625,153.3269428875,76.0,93.0
200,153.3298498625,153.6757798875,74.0,99.0
201,153.6786868625,155.0696744,76.0,98.0
202,155.0740348625,155.4301393,76.0,90.0
203,155.4228718625,155.7688018875,78.0,99.0
204,155.7717088625,156.1278133,74.0,97.0
205,156.1205458625,156.473743325,73.0,96.0
206,156.4693828625,157.1626964,71.0,100.0
207,157.1670568625,157.5129868875,71.0,97.0
208,157.5158938625,157.8618238875,69.0,97.0
209,157.8647308625,158.5594978875,71.0,106.0
210,158.5624048625,159.2571718875,74.0,100.0
211,159.2600788625,159.6060088875,76.0,108.0
212,159.6089158625,159.9548458875,78.0,96.0
213,159.9577528625,160.3036828875,73.0,105.0
214,160.3065898625,160.6525198875,69.0,93.0
215,160.6554268625,163.4417624,71.0,101.0
216,163.4461228625,164.1408898875,71.0,93.0
217,164.1437968625,164.8371104,78.0,99.0
218,164.8414708625,165.5362378875,78.0,101.0
219,165.5391448625,165.8850748875,76.0,97.0
220,165.8879818625,166.2339118875,74.0,95.0
221,166.2368188625,166.9301324,76.0,96.0
222,166.9344928625,167.3153065875,76.0,98.0
223,167.2833298625,167.6510622,78.0,99.0
224,167.63216686250001,168.3269338875,76.0,105.0
225,168.3298408625,168.6757708875,74.0,101.0
226,168.6786778625,169.0246078875,73.0,95.0
227,169.0275148625,169.7222818875,71.0,93.0
228,169.7251888625,170.4199558875,74.0,101.0
229,170.4228628625,170.7687928875,76.0,100.0
230,170.77169986250001,171.1176298875,78.0,93.0
231,171.1205368625,171.4664668875,81.0,90.0
232,171.4693738625,171.8153038875,76.0,68.0
233,171.8182108625,173.9083258875,78.0,105.0
234,173.91123286250001,174.2571628875,83.0,108.0
235,174.2600698625,174.6059998875,81.0,99.0
236,174.6089068625,175.6525108875,76.0,100.0
237,175.6554178625,176.0013478875,74.0,109.0
238,176.0042548625,177.3952424,76.0,106.0
239,177.3996028625,177.7455328875,76.0,103.0
240,177.7484398625,178.1030908125,78.0,100.0
241,178.0972768625,178.4432068875,74.0,108.0
242,178.4461138625,178.8022183,73.0,99.0
243,178.7949508625,179.4882644,71.0,106.0
244,179.4926248625,179.8385548875,71.0,100.0
245,179.8414618625,180.1873918875,69.0,87.0
246,180.19029886250001,180.88942635,71.0,94.0
247,180.8879728625,181.5827398875,74.0,99.0
248,181.5856468625,181.9315768875,76.0,103.0
249,181.9344838625,182.3065766625,78.0,93.0
250,182.2833208625,182.6292508875,73.0,90.0
251,182.6321578625,182.991169275,69.0,84.0
252,182.9809948625,185.0711098875,71.0,108.0
253,185.0740168625,185.4184934,74.0,105.0
254,185.4228538625,185.7687838875,76.0,101.0
255,185.7716908625,186.4664578875,78.0,103.0
256,186.4693648625,186.8152948875,71.0,93.0
257,186.8182018625,187.1641318875,78.0,106.0
258,187.1670388625,188.5594798875,76.0,99.0
259,188.5623868625,188.9083168875,81.0,106.0
260,188.9112238625,189.270235275,83.0,99.0
261,189.2600608625,189.62197925,85.0,97.0
262,189.6088978625,189.98244415,81.0,98.0
263,189.9577348625,191.3501758875,78.0,99.0
264,191.3530828625,191.6990128875,74.0,106.0
265,191.7019198625,192.0463964,71.0,94.0
266,192.0507568625,192.3966868875,71.0,93.0
267,192.3995938625,192.7455238875,74.0,97.0
268,192.7484308625,193.0943608875,76.0,98.0
269,193.0972678625,193.4431978875,78.0,90.0
270,193.4461048625,193.7920348875,81.0,90.0
271,193.7949418625,194.18011605,76.0,95.0
272,194.1437788625,196.2324404,78.0,106.0
273,196.2368008625,196.5827308875,78.0,97.0
274,196.5856378625,196.9315678875,81.0,98.0
275,196.9344748625,197.6292418875,83.0,100.0
276,197.6321488625,197.9780788875,81.0,108.0
277,197.9809858625,198.3269158875,78.0,87.0
278,198.3298228625,199.7208104,76.0,94.0
279,199.7251708625,200.0711008875,76.0,101.0
280,200.0740078625,200.4199378875,78.0,97.0
281,200.4228448625,200.7687748875,73.0,84.0
282,200.7716818625,201.1176118875,76.0,87.0
283,201.1205188625,202.5129598875,74.0,101.0
284,202.5158668625,203.2106338875,71.0,95.0
285,203.2135408625,203.5594708875,74.0,100.0
286,203.5623778625,203.9083078875,78.0,103.0
287,203.9112148625,204.2571448875,76.0,98.0
288,204.2600518625,204.6059818875,74.0,93.0
289,204.6088888625,204.9548188875,73.0,94.0
290,204.9577258625,205.30801635,69.0,89.0
291,205.3065628625,207.3966778875,71.0,99.0
292,207.3995848625,207.7629567375,74.0,109.0
293,207.7484218625,208.09871235,76.0,93.0
294,208.0972588625,208.7920258875,78.0,103.0
295,208.7949328625,209.1408628875,71.0,97.0
296,209.1437698625,209.4896998875,78.0,108.0
297,209.4926068625,210.7091759,76.0,108.0
298,210.7135363625,210.8850478875,76.0,66.0
299,210.8879548625,211.2338848875,81.0,97.0
300,211.2367918625,211.5827218875,83.0,93.0
301,211.5856288625,211.9315588875,85.0,90.0
302,211.9344658625,212.2803958875,81.0,98.0
303,212.2833028625,213.6757438875,78.0,109.0
304,213.6786508625,214.0245808875,74.0,100.0
305,214.0274878625,214.3719644,71.0,90.0
306,214.3763248625,214.72225488750001,71.0,93.0
307,214.7251618625,215.0710918875,74.0,94.0
308,215.0739988625,215.4199288875,76.0,96.0
309,215.4228358625,215.7687658875,78.0,92.0
310,215.7716728625,216.1176028875,81.0,86.0
311,216.1205098625,216.4664398875,76.0,99.0
312,216.4693468625,218.5580084,78.0,103.0
313,218.5623688625,218.9082988875,78.0,95.0
314,218.9112058625,219.2571358875,81.0,90.0
315,219.2600428625,219.996961025,83.0,103.0
316,219.9577168625,220.3036468875,81.0,96.0
317,220.3065538625,220.6524838875,78.0,85.0
318,220.6553908625,221.8719599,76.0,100.0
319,221.8763203625,222.0463784,76.0,95.0
320,222.0507388625,222.3966688875,76.0,94.0
321,222.3995758625,222.7455058875,78.0,100.0
322,222.7484128625,223.0943428875,73.0,97.0
323,223.0972498625,223.4431798875,76.0,100.0
324,223.4460868625,224.8385278875,74.0,109.0
325,224.8414348625,225.5362018875,71.0,97.0
326,225.5391088625,225.8850388875,74.0,99.0
327,225.8879458625,226.2338758875,78.0,96.0
328,226.2367828625,226.5827128875,76.0,93.0
329,226.5856198625,226.9315498875,74.0,90.0
330,226.9344568625,227.28038688750001,73.0,89.0
331,227.2832938625,227.6292238875,69.0,93.0
332,227.6321308625,229.0245718875,71.0,101.0
333,229.7251528625,230.0710828875,74.0,98.0
334,230.0739898625,230.4184664,71.0,93.0
335,230.4228268625,231.4664308875,71.0,100.0
336,231.4693378625,231.8152678875,74.0,106.0
337,231.8181748625,232.16846535,73.0,98.0
338,232.1670118625,232.601604625,71.0,87.0
339,232.6902673625,233.0361973875,69.0,87.0
340,233.0391043625,236.0013118875,73.0,93.0
341,236.0042188625,239.6641003875,71.0,89.0
