,start,end,pitch,velocity
0,7.1671468625,7.61046055,74.0,84.0
1,7.1671468625,7.6162745,71.0,80.0
2,7.1671468625,7.624995425,66.0,79.0
3,7.1671468625,8.031971925,47.0,84.0
4,7.1671468625,8.1497044125,59.0,75.0
5,7.8648208625,8.1933090375,66.0,74.0
6,7.8648208625,8.22673925,71.0,81.0
7,8.2136578625,8.47092515,74.0,84.0
8,8.5624948625,8.9956341375,59.0,72.0
9,8.5624948625,9.161331712500001,71.0,82.0
10,8.5624948625,9.23836655,64.0,76.0
11,8.5624948625,9.252901425,67.0,83.0
12,9.2601688625,9.4229594625,59.0,71.0
13,8.5624948625,9.4462152625,52.0,72.0
14,9.4345873625,9.572668675,64.0,77.0
15,9.6090058625,9.793598775,69.0,72.0
16,9.7834243625,9.8967963875,71.0,78.0
17,9.9578428625,10.3793542375,73.0,80.0
18,9.9578428625,10.4258658375,69.0,79.0
19,9.9578428625,10.4462146625,64.0,72.0
20,9.9578428625,10.799412125,57.0,62.0
21,10.6555168625,10.9985399125,64.0,73.0
22,10.6555168625,11.01743525,69.0,76.0
23,9.9578428625,11.1060979875,45.0,78.0
24,11.0043538625,11.12208635,57.0,68.0
25,11.3531908625,11.723830175,66.0,79.0
26,11.3531908625,11.7427255125,69.0,81.0
27,12.0508648625,12.316853075000001,64.0,79.0
28,11.3531908625,12.3997018625,42.0,83.0
29,11.7020278625,12.441853,54.0,38.0
30,12.3997018625,12.7209226,69.0,79.0
31,12.7485388625,13.0813875,67.0,78.0
32,12.7485388625,13.1031898125,62.0,69.0
33,12.7485388625,13.1031898125,71.0,76.0
34,12.7485388625,13.7543522125,43.0,82.0
35,13.4462128625,13.760166162500001,62.0,80.0
36,13.0973758625,14.0683055125,55.0,57.0
37,13.7950498625,14.0828403875,71.0,72.0
38,14.1438868625,14.758712075,73.0,81.0
39,14.1438868625,14.7688864875,64.0,71.0
40,14.1438868625,14.799409725,69.0,76.0
41,14.1438868625,14.9433049875,45.0,78.0
42,14.4927238625,15.02906075,52.0,75.0
43,14.8415608625,15.4767349,57.0,61.0
44,15.1903978625,15.48254885,64.0,72.0
45,15.5392348625,15.927316025,69.0,80.0
46,15.5392348625,15.927316025,73.0,82.0
47,15.5392348625,15.9898159875,64.0,77.0
48,16.2369088625,16.6206295625,64.0,71.0
49,15.8880718625,16.87789685,61.0,80.0
50,16.5857458625,16.8967921875,71.0,78.0
51,16.9345828625,17.13371065,64.0,47.0
52,16.9345828625,17.3488268,73.0,86.0
53,17.2834198625,17.6613266125,61.0,68.0
54,17.6322568625,17.84301255,64.0,74.0
55,17.6322568625,17.944756675,69.0,83.0
56,15.5392348625,17.9781868875,54.0,82.0
57,17.9810938625,18.1555123625,66.0,80.0
58,18.3299308625,18.7310934125,71.0,78.0
59,18.3299308625,18.741267825,67.0,79.0
60,18.3299308625,18.816849175,62.0,77.0
61,18.3299308625,18.8648142625,43.0,83.0
62,18.6787678625,18.9287677125,50.0,79.0
63,18.8531863625,19.1206280625,55.0,80.0
64,19.0276048625,19.2252791625,57.0,78.0
65,19.2020233625,19.316848875,62.0,73.0
66,19.3764418625,19.5464999,67.0,76.0
67,19.5508603625,19.683127725,71.0,78.0
68,19.7252788625,19.9956275375,73.0,77.0
69,19.7252788625,20.037778675,64.0,73.0
70,19.7252788625,20.049406575,69.0,79.0
71,20.4229528625,20.566848125,76.0,80.0
72,20.4229528625,20.613359725,64.0,72.0
73,20.4229528625,20.648243425,57.0,63.0
74,19.7252788625,20.6555108625,45.0,75.0
75,20.0741158625,20.697662,52.0,72.0
76,20.7717898625,20.8822549125,66.0,63.0
77,20.7717898625,20.915685125,74.0,80.0
78,21.1206268625,21.531963825000002,73.0,90.0
79,21.1206268625,21.5624870625,69.0,83.0
80,21.1206268625,21.5683010125,64.0,77.0
81,21.6438823625,21.69184745,69.0,69.0
82,21.4694638625,22.020335625,61.0,82.0
83,21.6438823625,22.08719605,64.0,90.0
84,21.1206268625,22.0973704625,54.0,83.0
85,22.1671378625,22.4578353625,69.0,80.0
86,22.5159748625,22.6206259625,69.0,59.0
87,22.5159748625,22.8793467375,66.0,83.0
88,22.5159748625,23.0770210375,74.0,90.0
89,23.2136488625,23.3531836625,74.0,53.0
90,23.2136488625,23.40114875,73.0,83.0
91,22.5159748625,23.5305091375,47.0,83.0
92,23.2136488625,23.549404475,59.0,63.0
93,23.2136488625,23.5712067875,64.0,77.0
94,22.8648118625,23.572660275,54.0,75.0
95,23.5624858625,23.805218275,69.0,80.0
96,23.9113228625,24.3182993625,67.0,78.0
97,23.9113228625,24.322659825,71.0,78.0
98,23.9113228625,24.334287725,62.0,82.0
99,24.2601598625,24.747078175,59.0,58.0
100,24.6089968625,24.8953339,67.0,84.0
101,24.6089968625,24.91277575,62.0,82.0
102,24.6089968625,24.921496675,71.0,80.0
103,23.9113228625,24.991264075,52.0,79.0
104,24.9578338625,25.1206244625,59.0,76.0
105,25.3066708625,25.654054375,73.0,86.0
106,25.3066708625,25.719461312500002,69.0,80.0
107,25.3066708625,25.7892287125,64.0,80.0
108,26.0043448625,26.177309875,64.0,76.0
109,25.3066708625,26.264519125,54.0,75.0
110,26.1787633625,26.3241121125,69.0,80.0
111,26.3531818625,26.5697515,73.0,77.0
112,26.5276003625,27.0712046875,74.0,63.0
113,26.7020188625,27.2165534375,71.0,73.0
114,26.7020188625,27.2281813375,66.0,68.0
115,27.574111362500002,27.712192675,61.0,78.0
116,27.7485298625,27.858994912500002,62.0,78.0
117,27.9229483625,28.1758551875,66.0,78.0
118,27.3996928625,28.700564175,59.0,61.0
119,28.0973668625,28.793587375,71.0,75.0
120,26.7020188625,28.811029225,47.0,75.0
121,27.0508558625,28.83137805,54.0,72.0
122,29.4927148625,29.886609975,47.0,76.0
123,29.8415518625,29.9665517875,54.0,75.0
124,29.4927148625,30.223819075,66.0,73.0
125,29.4927148625,30.276144625,74.0,84.0
126,30.0159703625,30.2950399625,59.0,55.0
127,30.1903888625,30.415679425,61.0,51.0
128,30.3648073625,30.4534701,62.0,77.0
129,30.5392258625,30.712190875,66.0,56.0
130,30.7136443625,30.8619000875,71.0,68.0
131,30.8880628625,31.0653883375,66.0,71.0
132,30.8880628625,31.1511441,74.0,82.0
133,31.2368998625,31.3720742,64.0,63.0
134,31.2368998625,31.5421322375,73.0,79.0
135,30.8880628625,31.7543414125,47.0,80.0
136,31.5857368625,31.7790507,66.0,69.0
137,31.5857368625,31.815387887500002,74.0,79.0
138,31.2368998625,31.8182948625,54.0,62.0
139,31.5857368625,31.922945962500002,59.0,58.0
140,31.9345738625,32.2427132125,69.0,69.0
141,32.2834108625,32.5813758,64.0,75.0
142,32.2834108625,32.6467827375,67.0,77.0
143,32.2834108625,32.677305975,71.0,78.0
144,33.3299218625,33.688933275,66.0,62.0
145,33.6787588625,33.7456192875,67.0,84.0
146,32.9810848625,33.81974715,64.0,63.0
147,32.2834108625,34.5275955625,52.0,78.0
148,34.0275958625,34.607537375,64.0,43.0
149,34.3764328625,34.607537375,71.0,69.0
150,32.6322478625,34.65695595,59.0,62.0
151,34.3764328625,34.6874791875,78.0,75.0
152,34.7252698625,35.0479440875,76.0,76.0
153,35.0741068625,35.1118975375,69.0,44.0
154,35.0741068625,35.4767229,67.0,57.0
155,35.0741068625,35.65695535,74.0,79.0
156,35.4229438625,35.87788545,62.0,75.0
157,35.0741068625,35.9185831,55.0,79.0
158,35.7717808625,35.979629575,66.0,59.0
159,35.9461993625,36.1584085375,67.0,77.0
160,36.1206178625,36.2688735875,69.0,71.0
161,36.2950363625,36.5682920125,74.0,78.0
162,36.4694548625,36.834280225,69.0,62.0
163,36.4694548625,36.8371872,64.0,59.0
164,36.4694548625,37.0043382625,73.0,80.0
165,37.1671288625,37.3095706375,71.0,52.0
166,36.4694548625,37.34300085,45.0,76.0
167,37.1671288625,37.34300085,64.0,63.0
168,36.8182918625,37.40114035,52.0,75.0
169,37.1671288625,37.5159658625,57.0,70.0
170,37.5159658625,37.6496867125,64.0,59.0
171,37.5159658625,37.764512225,69.0,70.0
172,37.8648028625,38.2775933125,64.0,74.0
173,37.8648028625,38.3066630625,69.0,78.0
174,38.5624768625,39.1845695125,64.0,63.0
175,38.9113138625,39.2674183,71.0,75.0
176,38.2136398625,39.42439495,61.0,80.0
177,39.2601508625,39.607534375,73.0,82.0
178,39.2601508625,39.6438715625,69.0,75.0
179,39.2601508625,39.7020110625,64.0,42.0
180,39.6089878625,40.19183635,61.0,63.0
181,39.9578248625,40.23834795,69.0,80.0
182,37.8648028625,40.2456153875,54.0,84.0
183,39.9578248625,40.258696775,64.0,77.0
184,40.655498862500004,41.2543357125,71.0,79.0
185,40.655498862500004,41.2775915125,67.0,81.0
186,41.3531728625,42.09881195,64.0,81.0
187,41.7020098625,42.1380561125,66.0,69.0
188,42.0508468625,42.311021125,67.0,83.0
189,42.3996838625,43.0275904625,64.0,56.0
190,42.7485208625,43.031950925,74.0,86.0
191,40.655498862500004,43.063927650000004,52.0,86.0
192,41.0043358625,43.090090425,59.0,62.0
193,43.0973578625,43.2223577875,73.0,82.0
194,43.4461948625,43.8880550625,47.0,80.0
195,43.4461948625,44.042124737500004,66.0,75.0
196,43.795031862500004,44.1177060875,54.0,73.0
197,44.1438688625,44.531950025,59.0,58.0
198,43.4461948625,44.9752637125,74.0,84.0
199,45.1903798625,45.3880541625,66.0,74.0
200,45.1903798625,45.4200308875,73.0,82.0
201,44.8415428625,45.5392168625,62.0,79.0
202,44.4927058625,45.6206121625,61.0,78.0
203,45.5392168625,45.8299143625,69.0,69.0
204,45.8880538625,46.014507275,66.0,79.0
205,46.2368908625,46.6613092125,67.0,75.0
206,46.2368908625,46.671483625,71.0,67.0
207,46.2368908625,46.717995225,62.0,73.0
208,46.9345648625,47.24997165,62.0,63.0
209,46.2368908625,47.2572390875,43.0,80.0
210,47.2834018625,47.607529575,67.0,80.0
211,46.5857278625,47.6322388625,55.0,55.0
212,47.6322388625,48.2339826875,64.0,74.0
213,47.6322388625,48.5304941375,71.0,78.0
214,47.6322388625,48.6903777625,45.0,72.0
215,47.9810758625,48.80811025,52.0,79.0
216,48.6787498625,48.892412525,64.0,72.0
217,48.3299128625,49.0944472875,57.0,72.0
218,49.0275868625,49.4985168125,74.0,80.0
219,49.0275868625,49.5581098,47.0,82.0
220,49.3764238625,49.6860167,73.0,78.0
221,49.3764238625,49.723807375,54.0,77.0
222,49.7252608625,50.148225725,59.0,50.0
223,49.7252608625,50.2078187125,71.0,73.0
224,50.7717718625,50.91276015,66.0,62.0
225,50.7717718625,51.02903915,71.0,69.0
226,51.1206088625,51.2630506375,64.0,61.0
227,50.0740978625,51.3153761875,61.0,62.0
228,50.4229348625,51.3240971125,62.0,78.0
229,51.1206088625,51.374969175,69.0,71.0
230,51.4694458625,51.7223526875,71.0,72.0
231,51.4694458625,51.7325271,66.0,62.0
232,51.8182828625,52.212177975,47.0,76.0
233,52.1671198625,52.2921197875,54.0,75.0
234,51.8182828625,52.549387075,66.0,73.0
235,51.8182828625,52.601712625,74.0,84.0
236,52.3415383625,52.6206079625,59.0,55.0
237,52.5159568625,52.741247425,61.0,51.0
238,52.6903753625,52.7790381,62.0,77.0
239,52.8647938625,53.037758875,66.0,56.0
240,53.0392123625,53.1874680875,71.0,68.0
241,53.2136308625,53.3909563375,66.0,71.0
242,53.2136308625,53.4767121,74.0,82.0
243,53.5624678625,53.6976422,64.0,63.0
244,53.5624678625,53.8677002375,73.0,79.0
245,53.2136308625,54.0799094125,47.0,80.0
246,53.9113048625,54.1046187,66.0,69.0
247,53.9113048625,54.1409558875,74.0,79.0
248,53.5624678625,54.1438628625,54.0,62.0
249,53.9113048625,54.2485139625,59.0,58.0
250,54.2601418625,54.5682812125,69.0,69.0
251,54.6089788625,54.9069438,64.0,75.0
252,54.6089788625,54.9723507375,67.0,77.0
253,54.6089788625,55.002873975,71.0,78.0
254,55.6554898625,56.014501275,66.0,62.0
255,56.0043268625,56.0711872875,67.0,84.0
256,55.3066528625,56.14531515,64.0,63.0
257,54.6089788625,56.8531635625,52.0,78.0
258,56.3531638625,56.933105375,64.0,43.0
259,56.7020008625,56.933105375,71.0,69.0
260,54.9578158625,56.98252395,59.0,62.0
261,56.7020008625,57.0130471875,78.0,75.0
262,57.0508378625,57.3735120875,76.0,76.0
263,57.3996748625,57.4374655375,69.0,44.0
264,57.3996748625,57.8022909,67.0,57.0
265,57.3996748625,57.98252335,74.0,79.0
266,57.7485118625,58.20345345,62.0,75.0
267,57.3996748625,58.2441511,55.0,79.0
268,58.0973488625,58.305197575,66.0,59.0
269,58.2717673625,58.4839765375,67.0,77.0
270,58.4461858625,58.5944415875,69.0,71.0
271,58.6206043625,58.8938600125,74.0,78.0
272,58.7950228625,59.159848225,69.0,62.0
273,58.7950228625,59.1627552,64.0,59.0
274,58.7950228625,59.3299062625,73.0,80.0
275,59.4926968625,59.6351386375,71.0,52.0
276,58.7950228625,59.66856885,45.0,76.0
277,59.4926968625,59.66856885,64.0,63.0
278,59.1438598625,59.72670835,52.0,75.0
279,59.4926968625,59.8415338625,57.0,70.0
280,59.8415338625,59.9752547125,64.0,59.0
281,59.8415338625,60.090080225,69.0,70.0
282,60.190370862500004,60.6031613125,64.0,74.0
283,60.190370862500004,60.6322310625,69.0,78.0
284,60.8880448625,61.5101375125,64.0,63.0
285,61.2368818625,61.5929863,71.0,75.0
286,60.5392078625,61.74996295,61.0,80.0
287,61.5857188625,61.933102375,73.0,82.0
288,61.5857188625,61.9694395625,69.0,75.0
289,61.5857188625,62.0275790625,64.0,42.0
290,61.9345558625,62.51740435,61.0,63.0
291,62.2833928625,62.56391595,69.0,80.0
292,60.190370862500004,62.5711833875,54.0,84.0
293,62.2833928625,62.584264775,64.0,77.0
294,62.9810668625,63.5799037125,71.0,79.0
295,62.9810668625,63.6031595125,67.0,81.0
296,63.6787408625,64.42437995,64.0,81.0
297,64.0275778625,64.4636241125,66.0,69.0
298,64.3764148625,64.636589125,67.0,83.0
299,64.7252518625,65.3531584625,64.0,56.0
300,65.0740888625,65.357518925,74.0,86.0
301,62.9810668625,65.38949565,52.0,86.0
302,63.329903862500004,65.415658425,59.0,62.0
303,65.4229258625,65.5479257875,73.0,82.0
304,65.7717628625,66.2136230625,47.0,80.0
305,65.7717628625,66.3676927375,66.0,75.0
306,66.1205998625,66.4432740875,54.0,73.0
307,66.4694368625,66.857518025,59.0,58.0
308,65.7717628625,67.3008317125,74.0,84.0
309,67.5159478625,67.7136221625,66.0,74.0
310,67.5159478625,67.7455988875,73.0,82.0
311,67.1671108625,67.8647848625,62.0,79.0
312,66.8182738625,67.9461801625,61.0,78.0
313,67.8647848625,68.1554823625,69.0,69.0
314,68.2136218625,68.340075275,66.0,79.0
315,68.5624588625,68.9868772125,67.0,75.0
316,68.5624588625,68.997051625,71.0,67.0
317,68.5624588625,69.043563225,62.0,73.0
318,69.2601328625,69.57553965,62.0,63.0
319,68.5624588625,69.5828070875,43.0,80.0
320,69.6089698625,69.933097575,67.0,80.0
321,68.9112958625,69.95780686250001,55.0,55.0
322,69.95780686250001,70.5595506875,64.0,74.0
323,69.95780686250001,70.8560621375,71.0,78.0
324,69.95780686250001,71.0159457625,45.0,72.0
325,70.3066438625,71.13367825,52.0,79.0
326,71.0043178625,71.217980525,64.0,72.0
327,70.6554808625,71.42001528750001,57.0,72.0
328,71.3531548625,71.8240848125,74.0,80.0
329,71.3531548625,71.8836778,47.0,82.0
330,71.7019918625,72.0115847,73.0,78.0
331,71.7019918625,72.049375375,54.0,77.0
332,72.0508288625,72.47379372500001,59.0,50.0
333,72.0508288625,72.5333867125,71.0,73.0
334,73.09733986250001,73.23832815,66.0,62.0
335,73.09733986250001,73.35460715,71.0,69.0
336,73.4461768625,73.5886186375,64.0,61.0
337,72.3996658625,73.6409441875,61.0,62.0
338,72.7485028625,73.6496651125,62.0,78.0
339,73.4461768625,73.700537175,69.0,71.0
340,73.7950138625,74.0479206875,71.0,72.0
341,73.7950138625,74.0580951,66.0,62.0
342,74.1438508625,74.5014087875,66.0,81.0
343,74.1438508625,74.75286212500001,74.0,86.0
344,74.8415248625,74.883676,74.0,44.0
345,74.8415248625,75.031931725,64.0,78.0
346,74.8415248625,75.1264084125,73.0,91.0
347,74.1438508625,75.1758269875,47.0,77.0
348,74.4926878625,75.2194316125,54.0,75.0
349,75.1903618625,75.2208851,73.0,47.0
350,75.1903618625,75.28483855,64.0,58.0
351,74.8415248625,75.404024525,59.0,60.0
352,75.1903618625,75.43600125,74.0,80.0
353,75.5391988625,75.9112916625,64.0,75.0
354,75.5391988625,75.997047425,67.0,80.0
355,75.5391988625,76.02902415,71.0,76.0
356,76.2368728625,76.479605275,64.0,72.0
357,75.8880358625,76.520302925,59.0,63.0
358,75.5391988625,76.5682680125,52.0,82.0
359,76.4112913625,76.642395875,66.0,75.0
360,76.5857098625,76.7630353375,67.0,76.0
361,76.7601283625,76.9999538,74.0,84.0
362,76.9345468625,77.3008257125,69.0,76.0
363,76.9345468625,77.3720466,64.0,72.0
364,76.9345468625,77.4578023625,73.0,82.0
365,76.9345468625,77.78483705000001,45.0,82.0
366,77.2833838625,77.8182672625,52.0,79.0
367,77.6322208625,77.91274395,69.0,79.0
368,77.6322208625,77.9374532375,57.0,63.0
369,77.6322208625,78.0101276125,64.0,78.0
370,77.9810578625,78.27320885,67.0,83.0
371,78.3298948625,78.8124527125,69.0,82.0
372,78.3298948625,78.8589643125,64.0,77.0
373,79.0275688625,79.310998925,64.0,80.0
374,78.3298948625,79.31971985,54.0,82.0
375,78.6787318625,79.3211733375,61.0,79.0
376,79.3764058625,79.677277775,69.0,79.0
377,79.7252428625,80.148207725,71.0,79.0
378,79.7252428625,80.1961728125,67.0,80.0
379,79.7252428625,80.2310565125,62.0,81.0
380,80.0740798625,80.555184225,59.0,62.0
381,80.4229168625,80.7426841125,67.0,84.0
382,80.4229168625,80.7673934,71.0,80.0
383,80.4229168625,80.8095445375,62.0,80.0
384,79.7252428625,80.8734979875,52.0,81.0
385,80.7717538625,80.886579375,59.0,69.0
386,81.1205908625,81.35460235,73.0,81.0
387,81.1205908625,81.4810557625,64.0,80.0
388,81.1205908625,81.4810557625,69.0,81.0
389,81.1205908625,81.9083810875,45.0,79.0
390,81.4694278625,81.9665205875,52.0,59.0
391,81.8182648625,82.060997275,67.0,78.0
392,81.8182648625,82.078439125,62.0,82.0
393,81.8182648625,82.2426832125,71.0,78.0
394,81.8182648625,82.310997125,57.0,69.0
395,82.1671018625,82.3298924625,74.0,70.0
396,82.5159388625,82.8851246875,73.0,86.0
397,82.5159388625,83.023206,69.0,83.0
398,83.2136128625,83.6511126,66.0,80.0
399,82.5159388625,83.6758218875,54.0,83.0
400,82.8647758625,83.8560543375,61.0,76.0
401,83.5624498625,83.8938450125,71.0,78.0
402,83.9112868625,84.3444261375,73.0,84.0
403,84.6089608625,84.76157705,69.0,82.0
404,84.6089608625,84.78483285,64.0,75.0
405,84.2601238625,84.92436765,61.0,78.0
406,83.9112868625,84.96651878750001,54.0,80.0
407,84.9577978625,85.1409372875,69.0,78.0
408,85.3066348625,85.6147742125,62.0,75.0
409,85.3066348625,85.642390475,67.0,81.0
410,85.3066348625,85.65692535,71.0,74.0
411,85.3066348625,86.154018075,55.0,75.0
412,86.0043088625,86.177273875,62.0,73.0
413,85.6554718625,86.1859948,59.0,76.0
414,86.1787273625,86.3255296,67.0,73.0
415,86.3531458625,86.543552725,69.0,68.0
416,86.5275643625,86.7746572375,74.0,74.0
417,86.7019828625,86.9781454875,64.0,61.0
418,86.7019828625,87.1060523875,73.0,84.0
419,87.0508198625,87.2484941625,74.0,84.0
420,86.7019828625,87.26157555,45.0,78.0
421,87.0508198625,87.3473313125,52.0,76.0
422,87.3996568625,87.5391916625,67.0,75.0
423,87.3996568625,87.5653544375,76.0,84.0
424,87.3996568625,87.790645,57.0,53.0
425,87.7484938625,87.8764007625,59.0,72.0
426,88.0973308625,88.4665166875,69.0,84.0
427,88.0973308625,88.5188422375,66.0,80.0
428,88.0973308625,88.543551525,50.0,83.0
429,88.0973308625,88.642388675,74.0,90.0
430,88.7950048625,89.0929698,69.0,81.0
431,88.7950048625,89.1278535,64.0,82.0
432,88.7950048625,89.136574425,61.0,78.0
433,88.7950048625,89.154016275,73.0,90.0
434,88.7950048625,89.1612837125,49.0,82.0
435,89.3182603625,89.4200044875,73.0,80.0
436,89.1438418625,89.8967483875,71.0,80.0
437,89.4926788625,89.9141902375,66.0,77.0
438,89.4926788625,89.9287251125,74.0,82.0
439,90.1903528625,90.316806275,71.0,68.0
440,90.1903528625,90.3952946,66.0,80.0
441,89.4926788625,90.3967480875,47.0,80.0
442,89.8415158625,90.5101201125,59.0,59.0
443,90.5391898625,90.729596725,69.0,78.0
444,90.8880268625,91.2659336125,67.0,77.0
445,90.8880268625,91.2920963875,71.0,75.0
446,90.8880268625,91.29645685,62.0,69.0
447,91.4112823625,91.648200825,62.0,73.0
448,91.5857008625,91.857503025,67.0,78.0
449,90.8880268625,91.9418053,52.0,79.0
450,91.2368638625,92.0115727,59.0,73.0
451,91.9345378625,92.241223725,71.0,80.0
452,92.2833748625,92.7441304,69.0,82.0
453,92.2833748625,92.7513978375,64.0,77.0
454,92.6322118625,93.20197896250001,61.0,79.0
455,92.9810488625,93.223781275,64.0,76.0
456,92.2833748625,93.2804672875,54.0,82.0
457,93.3298858625,93.6627345,71.0,76.0
458,93.6787228625,94.1700016375,66.0,80.0
459,93.6787228625,94.2426760125,47.0,81.0
460,93.6787228625,94.3240713125,74.0,80.0
461,94.0275598625,94.3618619875,54.0,67.0
462,94.3763968625,94.462152625,74.0,49.0
463,94.3763968625,94.5711641875,64.0,76.0
464,94.3763968625,94.61040835,73.0,83.0
465,94.3763968625,94.81971055,59.0,59.0
466,94.7252338625,94.95924535,69.0,74.0
467,94.7252338625,95.3211637375,61.0,77.0
468,95.0740708625,95.4883148,71.0,79.0
469,95.0740708625,95.4999427,62.0,74.0
470,95.4229078625,95.72668675,69.0,73.0
471,95.7717448625,95.851686675,66.0,83.0
472,96.4694188625,96.6932559375,66.0,80.0
473,96.4694188625,96.85459305,74.0,90.0
474,96.8182558625,96.9694185625,64.0,75.0
475,96.8182558625,97.1409300875,73.0,86.0
476,97.1670928625,97.3604067,66.0,78.0
477,96.4694188625,97.3618601875,47.0,83.0
478,97.1670928625,97.386569475,74.0,83.0
479,96.8182558625,97.415639225,54.0,80.0
480,97.1670928625,97.5072089375,59.0,61.0
481,97.5159298625,97.7804645875,69.0,79.0
482,97.8647668625,98.194708525,64.0,78.0
483,97.8647668625,98.2092434,67.0,81.0
484,97.8647668625,98.27319685,71.0,83.0
485,98.5624408625,98.7368593625,64.0,79.0
486,98.2136038625,98.7717430625,59.0,62.0
487,97.8647668625,98.8211616375,52.0,80.0
488,98.7368593625,98.8647662625,67.0,67.0
489,98.9112778625,99.1031382125,69.0,67.0
490,99.0856963625,99.206335825,71.0,68.0
491,99.2601148625,99.6627309,74.0,84.0
492,99.6089518625,99.9883121,73.0,80.0
493,99.2601148625,100.1234864375,45.0,80.0
494,99.6089518625,100.1932538375,52.0,76.0
495,99.9577888625,100.21505615,69.0,63.0
496,99.9577888625,100.3037188875,57.0,62.0
497,100.3066258625,100.51302108750001,64.0,67.0
498,100.6554628625,101.0159277625,66.0,81.0
499,100.6554628625,101.0217417125,69.0,78.0
500,101.0042998625,101.462148425,61.0,73.0
501,101.3531368625,101.6031367125,64.0,78.0
502,101.3531368625,101.619125075,66.0,77.0
503,101.3531368625,101.6612762125,69.0,81.0
504,100.6554628625,101.7557529,54.0,83.0
505,101.7019738625,101.770287775,61.0,80.0
506,102.0508108625,102.537729175,43.0,83.0
507,102.3996478625,102.77319415,50.0,79.0
508,102.0508108625,103.0798800125,67.0,82.0
509,102.0508108625,103.0813335,62.0,79.0
510,102.0508108625,103.1380195125,71.0,74.0
511,102.7484848625,103.1467404375,55.0,71.0
512,103.0973218625,103.2092404,57.0,80.0
513,103.4461588625,103.66854245,73.0,83.0
514,103.4461588625,103.6743564,64.0,79.0
515,103.4461588625,103.8415074625,69.0,79.0
516,104.1438328625,104.3560420375,57.0,69.0
517,103.4461588625,104.4650536,45.0,83.0
518,104.1438328625,104.48249545,74.0,93.0
519,104.1438328625,104.4897628875,66.0,81.0
520,103.7949958625,104.5188326375,52.0,80.0
521,104.4926698625,104.613309325,57.0,41.0
522,104.4926698625,104.7324953,71.0,78.0
523,104.8415068625,105.229588025,69.0,79.0
524,104.8415068625,105.334239125,64.0,77.0
525,105.5391808625,105.7688318875,64.0,78.0
526,104.8415068625,105.97086665,54.0,83.0
527,105.1903438625,106.1205758625,61.0,76.0
528,105.8880178625,106.200517675,71.0,77.0
529,106.2368548625,106.5449942125,69.0,72.0
530,106.2368548625,106.5537151375,73.0,82.0
531,106.2368548625,106.55516862500001,64.0,76.0
532,106.5856918625,106.9752265125,61.0,72.0
533,106.9345288625,107.177261275,69.0,81.0
534,106.9345288625,107.18016825,64.0,77.0
535,106.2368548625,107.2077845125,54.0,78.0
536,107.1089473625,107.2252263625,61.0,82.0
537,107.2833658625,107.3996448625,66.0,71.0
538,107.4577843625,107.5813308,69.0,78.0
539,107.6322028625,108.1729002125,43.0,79.0
540,107.9810398625,108.3138885,50.0,75.0
541,107.6322028625,108.6496441125,71.0,75.0
542,107.6322028625,108.654004575,62.0,75.0
543,107.6322028625,108.665632475,67.0,81.0
544,108.3298768625,108.72667895000001,55.0,74.0
545,108.6787138625,108.781911475,57.0,82.0
546,109.02755086250001,109.398190175,45.0,82.0
547,109.3763878625,109.508655225,52.0,81.0
548,109.02755086250001,109.6627249,64.0,76.0
549,109.02755086250001,109.68016675,73.0,78.0
550,109.02755086250001,109.7223178875,69.0,80.0
551,109.5508063625,109.767376,57.0,72.0
552,109.7252248625,109.9635968125,59.0,63.0
553,109.8996433625,110.0042944625,61.0,82.0
554,110.0740618625,110.2281315375,64.0,69.0
555,110.2484803625,110.351677975,69.0,75.0
556,110.4228988625,110.630747575,66.0,80.0
557,110.4228988625,110.7019684625,69.0,83.0
558,110.4228988625,110.7106893875,74.0,84.0
559,110.4228988625,110.89818927500001,50.0,80.0
560,110.7717358625,110.9432473875,64.0,72.0
561,110.7717358625,111.046445,73.0,80.0
562,110.7717358625,111.1758053875,57.0,75.0
563,111.1205728625,111.415630825,64.0,76.0
564,111.1205728625,111.44760755,69.0,84.0
565,111.1205728625,111.6438283625,49.0,83.0
566,111.4694098625,111.6525492875,57.0,78.0
567,111.4694098625,111.683072525,66.0,53.0
568,111.8182468625,112.24993265,66.0,58.0
569,111.8182468625,112.328420975,71.0,78.0
570,111.8182468625,112.5929557,47.0,84.0
571,112.16708386250001,112.68016495,54.0,81.0
572,112.5159208625,112.787723025,59.0,76.0
573,112.8647578625,113.014467075,66.0,60.0
574,112.8647578625,113.049350775,73.0,73.0
575,113.0391763625,113.276094825,74.0,76.0
576,113.2135948625,113.8153386875,67.0,76.0
577,113.2135948625,113.85458285,71.0,73.0
578,113.9112688625,114.0944082875,64.0,81.0
579,113.5624318625,114.1234780375,59.0,71.0
580,113.2135948625,114.124931525,52.0,78.0
581,114.2601058625,114.3037104875,76.0,51.0
582,114.2601058625,114.607489375,74.0,59.0
583,114.6089428625,114.956326375,42.0,84.0
584,114.6089428625,114.9897565875,73.0,80.0
585,114.9577798625,115.30807035,69.0,78.0
586,115.30661686250001,115.3676633375,66.0,62.0
587,114.9577798625,115.3938261125,54.0,71.0
588,115.30661686250001,115.438884225,57.0,72.0
589,115.30661686250001,115.654000375,64.0,62.0
590,115.6554538625,115.8996397625,62.0,78.0
591,116.0042908625,116.4534185,66.0,78.0
592,116.0042908625,116.6292904875,62.0,80.0
593,116.7019648625,117.18016225,59.0,79.0
594,117.0508018625,117.19179015,66.0,73.0
595,117.2252203625,117.3938249125,71.0,71.0
596,117.3996388625,117.5827782875,66.0,68.0
597,117.3996388625,117.8022549,74.0,80.0
598,117.7484758625,117.903999025,64.0,71.0
599,117.7484758625,117.9883013,73.0,81.0
600,117.3996388625,118.159812825,59.0,62.0
601,116.3531278625,118.200510475,54.0,76.0
602,116.0042908625,118.212138375,47.0,72.0
603,118.0973128625,118.2208593,71.0,79.0
604,118.7949868625,119.23830055,74.0,84.0
605,118.7949868625,119.2441145,71.0,80.0
606,118.7949868625,119.252835425,66.0,79.0
607,118.7949868625,119.659811925,47.0,84.0
608,118.7949868625,119.7775444125,59.0,75.0
609,119.4926608625,119.8211490375,66.0,74.0
610,119.4926608625,119.85457925,71.0,81.0
611,119.8414978625,120.09876515,74.0,84.0
612,120.1903348625,120.6234741375,59.0,72.0
613,120.1903348625,120.7891717125,71.0,82.0
614,120.1903348625,120.86620655,64.0,76.0
615,120.1903348625,120.880741425,67.0,83.0
616,120.8880088625,121.0507994625,59.0,71.0
617,120.1903348625,121.0740552625,52.0,72.0
618,121.0624273625,121.200508675,64.0,77.0
619,121.2368458625,121.421438775,69.0,72.0
620,121.4112643625,121.5246363875,71.0,78.0
621,121.5856828625,122.0071942375,73.0,80.0
622,121.5856828625,122.0537058375,69.0,79.0
623,121.5856828625,122.0740546625,64.0,72.0
624,121.5856828625,122.427252125,57.0,62.0
625,122.2833568625,122.6263799125,64.0,73.0
626,122.2833568625,122.64527525,69.0,76.0
627,121.5856828625,122.7339379875,45.0,78.0
628,122.6321938625,122.74992635,57.0,68.0
629,122.9810308625,123.351670175,66.0,79.0
630,122.9810308625,123.3705655125,69.0,81.0
631,123.6787048625,123.944693075,64.0,79.0
632,122.9810308625,124.0275418625,42.0,83.0
633,123.3298678625,124.069693,54.0,38.0
634,124.0275418625,124.3487626,69.0,79.0
635,124.3763788625,124.7092275,67.0,78.0
636,124.3763788625,124.7310298125,62.0,69.0
637,124.3763788625,124.7310298125,71.0,76.0
638,124.3763788625,125.3821922125,43.0,82.0
639,125.0740528625,125.3880061625,62.0,80.0
640,124.7252158625,125.6961455125,55.0,57.0
641,125.4228898625,125.7106803875,71.0,72.0
642,125.7717268625,126.386552075,73.0,81.0
643,125.7717268625,126.3967264875,64.0,71.0
644,125.7717268625,126.427249725,69.0,76.0
645,125.7717268625,126.5711449875,45.0,78.0
646,126.1205638625,126.65690075,52.0,75.0
647,126.4694008625,127.1045749,57.0,61.0
648,126.8182378625,127.11038885,64.0,72.0
649,127.1670748625,127.555156025,69.0,80.0
650,127.1670748625,127.555156025,73.0,82.0
651,127.1670748625,127.6176559875,64.0,77.0
652,127.8647488625,128.1757951875,71.0,78.0
653,127.8647488625,128.2484695625,64.0,71.0
654,127.1670748625,128.456318275,54.0,82.0
655,127.5159118625,128.50573685,61.0,80.0
656,128.5624228625,128.688876275,61.0,97.0
657,128.5624228625,128.7368413625,54.0,97.0
658,128.5624228625,128.7368413625,73.0,86.0
659,128.5624228625,128.76155065,64.0,47.0
660,128.7949808625,128.921434275,61.0,97.0
661,128.7949808625,128.9693993625,54.0,97.0
662,128.7949808625,128.9693993625,73.0,86.0
663,128.7949808625,128.99410865,64.0,47.0
664,129.0275388625,129.2019573625,42.0,97.0
665,129.0275388625,129.2600968625,61.0,68.0
666,129.2600968625,129.47085255,64.0,74.0
667,129.2600968625,129.572596675,69.0,83.0
668,129.6089338625,129.7833523625,66.0,80.0
669,129.2600968625,129.7906198,45.0,97.0
670,129.9577708625,130.3589334125,71.0,78.0
671,129.9577708625,130.36910782500001,67.0,79.0
672,129.9577708625,130.444689175,62.0,77.0
673,129.9577708625,130.4926542625,43.0,83.0
674,130.3066078625,130.5566077125,50.0,79.0
675,130.4810263625,130.7484680625,55.0,80.0
676,130.6554448625,130.8531191625,57.0,78.0
677,130.8298633625,130.944688875,62.0,73.0
678,131.0042818625,131.1743399,67.0,76.0
679,131.1787003625,131.310967725,71.0,78.0
680,131.3531188625,131.6234675375,73.0,77.0
681,131.3531188625,131.665618675,64.0,73.0
682,131.3531188625,131.677246575,69.0,79.0
683,132.0507928625,132.194688125,76.0,80.0
684,132.0507928625,132.241199725,64.0,72.0
685,132.0507928625,132.276083425,57.0,63.0
686,131.3531188625,132.2833508625,45.0,75.0
687,131.7019558625,132.325502,52.0,72.0
688,132.3996298625,132.5100949125,66.0,63.0
689,132.3996298625,132.543525125,74.0,80.0
690,132.7484668625,133.159803825,73.0,90.0
691,132.7484668625,133.1903270625,69.0,83.0
692,132.7484668625,133.1961410125,64.0,77.0
693,133.27172236250001,133.31968745,69.0,69.0
694,133.0973038625,133.648175625,61.0,82.0
695,133.27172236250001,133.71503605,64.0,90.0
696,132.7484668625,133.7252104625,54.0,83.0
697,133.7949778625,134.0856753625,69.0,80.0
698,134.1438148625,134.2484659625,69.0,59.0
699,134.1438148625,134.5071867375,66.0,83.0
700,134.1438148625,134.7048610375,74.0,90.0
701,134.8414888625,134.9810236625,74.0,53.0
702,134.8414888625,135.02898875,73.0,83.0
703,134.1438148625,135.1583491375,47.0,83.0
704,134.8414888625,135.177244475,59.0,63.0
705,134.8414888625,135.1990467875,64.0,77.0
706,134.4926518625,135.200500275,54.0,75.0
707,135.1903258625,135.433058275,69.0,80.0
708,135.5391628625,135.9461393625,67.0,78.0
709,135.5391628625,135.950499825,71.0,78.0
710,135.5391628625,135.962127725,62.0,82.0
711,135.8879998625,136.374918175,59.0,58.0
712,136.2368368625,136.5231739,67.0,84.0
713,136.2368368625,136.54061575,62.0,82.0
714,136.2368368625,136.549336675,71.0,80.0
715,135.5391628625,136.619104075,52.0,79.0
716,136.5856738625,136.7484644625,59.0,76.0
717,136.9345108625,137.281894375,73.0,86.0
718,136.9345108625,137.3473013125,69.0,80.0
719,136.9345108625,137.4170687125,64.0,80.0
720,137.6321848625,137.805149875,64.0,76.0
721,136.9345108625,137.892359125,54.0,75.0
722,137.8066033625,137.9519521125,69.0,80.0
723,137.9810218625,138.1975915,73.0,77.0
724,138.1554403625,138.6990446875,74.0,63.0
725,138.3298588625,138.8443934375,71.0,73.0
726,138.3298588625,138.8560213375,66.0,68.0
727,139.2019513625,139.340032675,61.0,78.0
728,139.3763698625,139.4868349125,62.0,78.0
729,139.5507883625,139.8036951875,66.0,78.0
730,139.0275328625,140.328404175,59.0,61.0
731,139.7252068625,140.421427375,71.0,75.0
732,138.3298588625,140.438869225,47.0,75.0
733,138.6786958625,140.45921805,54.0,72.0
734,141.1205548625,141.514449975,47.0,76.0
735,141.4693918625,141.5943917875,54.0,75.0
736,141.1205548625,141.851659075,66.0,73.0
737,141.1205548625,141.903984625,74.0,84.0
738,141.6438103625,141.9228799625,59.0,55.0
739,141.8182288625,142.043519425,61.0,51.0
740,141.9926473625,142.0813101,62.0,77.0
741,142.1670658625,142.340030875,66.0,56.0
742,142.3414843625,142.4897400875,71.0,68.0
743,142.5159028625,142.6932283375,66.0,71.0
744,142.5159028625,142.7789841,74.0,82.0
745,142.8647398625,142.9999142,64.0,63.0
746,142.8647398625,143.1699722375,73.0,79.0
747,142.5159028625,143.3821814125,47.0,80.0
748,143.2135768625,143.4068907,66.0,69.0
749,143.2135768625,143.4432278875,74.0,79.0
750,142.8647398625,143.4461348625,54.0,62.0
751,143.2135768625,143.5507859625,59.0,58.0
752,143.5624138625,143.8705532125,69.0,69.0
753,143.9112508625,144.2092158,64.0,75.0
754,143.9112508625,144.2746227375,67.0,77.0
755,143.9112508625,144.305145975,71.0,78.0
756,144.9577618625,145.316773275,66.0,62.0
757,145.3065988625,145.3734592875,67.0,84.0
758,144.6089248625,145.44758715,64.0,63.0
759,143.9112508625,146.1554355625,52.0,78.0
760,145.6554358625,146.235377375,64.0,43.0
761,146.0042728625,146.235377375,71.0,69.0
762,144.2600878625,146.28479595,59.0,62.0
763,146.0042728625,146.3153191875,78.0,75.0
764,146.3531098625,146.6757840875,76.0,76.0
765,146.7019468625,146.7397375375,69.0,44.0
766,146.7019468625,147.1045629,67.0,57.0
767,146.7019468625,147.28479535,74.0,79.0
768,147.0507838625,147.50572545,62.0,75.0
769,146.7019468625,147.5464231,55.0,79.0
770,147.3996208625,147.607469575,66.0,59.0
771,147.5740393625,147.7862485375,67.0,77.0
772,147.7484578625,147.8967135875,69.0,71.0
773,147.9228763625,148.1961320125,74.0,78.0
774,148.0972948625,148.462120225,69.0,62.0
775,148.0972948625,148.4650272,64.0,59.0
776,148.0972948625,148.6321782625,73.0,80.0
777,148.7949688625,148.9374106375,71.0,52.0
778,148.0972948625,148.97084085,45.0,76.0
779,148.7949688625,148.97084085,64.0,63.0
780,148.4461318625,149.02898035,52.0,75.0
781,148.7949688625,149.1438058625,57.0,70.0
782,149.1438058625,149.2775267125,64.0,59.0
783,149.1438058625,149.392352225,69.0,70.0
784,149.4926428625,149.9054333125,64.0,74.0
785,149.4926428625,149.9345030625,69.0,78.0
786,150.1903168625,150.8124095125,64.0,63.0
787,150.5391538625,150.8952583,71.0,75.0
788,149.8414798625,151.05223495,61.0,80.0
789,150.8879908625,151.235374375,73.0,82.0
790,150.8879908625,151.2717115625,69.0,75.0
791,150.8879908625,151.3298510625,64.0,42.0
792,151.2368278625,151.81967635,61.0,63.0
793,151.5856648625,151.86618795,69.0,80.0
794,149.4926428625,151.8734553875,54.0,84.0
795,151.5856648625,151.886536775,64.0,77.0
796,152.2833388625,152.88217571250001,71.0,79.0
797,152.2833388625,152.9054315125,67.0,81.0
798,152.9810128625,153.72665195,64.0,81.0
799,153.3298498625,153.7658961125,66.0,69.0
800,153.6786868625,153.938861125,67.0,83.0
801,154.0275238625,154.6554304625,64.0,56.0
802,154.3763608625,154.659790925,74.0,86.0
803,152.2833388625,154.69176765,52.0,86.0
804,152.6321758625,154.717930425,59.0,62.0
805,154.7251978625,154.8501977875,73.0,82.0
806,155.0740348625,155.5158950625,47.0,80.0
807,155.0740348625,155.6699647375,66.0,75.0
808,155.4228718625,155.7455460875,54.0,73.0
809,155.7717088625,156.159790025,59.0,58.0
810,155.0740348625,156.6031037125,74.0,84.0
811,156.8182198625,157.0158941625,66.0,74.0
812,156.8182198625,157.0478708875,73.0,82.0
813,156.4693828625,157.1670568625,62.0,79.0
814,156.1205458625,157.2484521625,61.0,78.0
815,157.1670568625,157.4577543625,69.0,69.0
816,157.5158938625,157.642347275,66.0,79.0
817,157.8647308625,158.2891492125,67.0,75.0
818,157.8647308625,158.299323625,71.0,67.0
819,157.8647308625,158.345835225,62.0,73.0
820,158.5624048625,158.87781165,62.0,63.0
821,157.8647308625,158.8850790875,43.0,80.0
822,158.9112418625,159.235369575,67.0,80.0
823,158.2135678625,159.2600788625,55.0,55.0
824,159.2600788625,159.8618226875,64.0,74.0
825,159.2600788625,160.1583341375,71.0,78.0
826,159.2600788625,160.3182177625,45.0,72.0
827,159.6089158625,160.43595025,52.0,79.0
828,160.3065898625,160.520252525,64.0,72.0
829,159.9577528625,160.7222872875,57.0,72.0
830,160.6554268625,161.1263568125,74.0,80.0
831,160.6554268625,161.1859498,47.0,82.0
832,161.0042638625,161.3138567,73.0,78.0
833,161.0042638625,161.351647375,54.0,77.0
834,161.3531008625,161.776065725,59.0,50.0
835,161.3531008625,161.8356587125,71.0,73.0
836,162.3996118625,162.54060015,66.0,62.0
837,162.3996118625,162.65687915,71.0,69.0
838,162.7484488625,162.8908906375,64.0,61.0
839,161.7019378625,162.9432161875,61.0,62.0
840,162.0507748625,162.9519371125,62.0,78.0
841,162.7484488625,163.002809175,69.0,71.0
842,163.0972858625,163.3501926875,71.0,72.0
843,163.0972858625,163.3603671,66.0,62.0
844,163.4461228625,163.840017975,47.0,76.0
845,163.7949598625,163.9199597875,54.0,75.0
846,163.4461228625,164.177227075,66.0,73.0
847,163.4461228625,164.229552625,74.0,84.0
848,163.9693783625,164.2484479625,59.0,55.0
849,164.1437968625,164.369087425,61.0,51.0
850,164.3182153625,164.4068781,62.0,77.0
851,164.4926338625,164.665598875,66.0,56.0
852,164.6670523625,164.8153080875,71.0,68.0
853,164.8414708625,165.0187963375,66.0,71.0
854,164.8414708625,165.1045521,74.0,82.0
855,165.1903078625,165.3254822,64.0,63.0
856,165.1903078625,165.4955402375,73.0,79.0
857,164.8414708625,165.7077494125,47.0,80.0
858,165.5391448625,165.7324587,66.0,69.0
859,165.5391448625,165.7687958875,74.0,79.0
860,165.1903078625,165.7717028625,54.0,62.0
861,165.5391448625,165.8763539625,59.0,58.0
862,165.8879818625,166.1961212125,69.0,69.0
863,166.2368188625,166.5347838,64.0,75.0
864,166.2368188625,166.60019073750001,67.0,77.0
865,166.2368188625,166.630713975,71.0,78.0
866,167.2833298625,167.642341275,66.0,62.0
867,167.63216686250001,167.6990272875,67.0,84.0
868,166.9344928625,167.77315515,64.0,63.0
869,166.2368188625,168.4810035625,52.0,78.0
870,167.9810038625,168.560945375,64.0,43.0
871,168.3298408625,168.560945375,71.0,69.0
872,166.5856558625,168.61036395,59.0,62.0
873,168.3298408625,168.6408871875,78.0,75.0
874,168.6786778625,169.0013520875,76.0,76.0
875,169.0275148625,169.0653055375,69.0,44.0
876,169.0275148625,169.4301309,67.0,57.0
877,169.0275148625,169.61036335,74.0,79.0
878,169.3763518625,169.83129345,62.0,75.0
879,169.0275148625,169.8719911,55.0,79.0
880,169.7251888625,169.93303757500001,66.0,59.0
881,169.8996073625,170.1118165375,67.0,77.0
882,170.0740258625,170.2222815875,69.0,71.0
883,170.2484443625,170.5217000125,74.0,78.0
884,170.4228628625,170.787688225,69.0,62.0
885,170.4228628625,170.7905952,64.0,59.0
886,170.4228628625,170.9577462625,73.0,80.0
887,171.1205368625,171.2629786375,71.0,52.0
888,170.4228628625,171.29640885,45.0,76.0
889,171.1205368625,171.29640885,64.0,63.0
890,170.77169986250001,171.35454835,52.0,75.0
891,171.1205368625,171.4693738625,57.0,70.0
892,171.4693738625,171.6030947125,64.0,59.0
893,171.4693738625,171.717920225,69.0,70.0
894,171.8182108625,172.2310013125,64.0,74.0
895,171.8182108625,172.2600710625,69.0,78.0
896,172.5158848625,173.1379775125,64.0,63.0
897,172.8647218625,173.2208263,71.0,75.0
898,172.1670478625,173.37780295,61.0,80.0
899,173.2135588625,173.560942375,73.0,82.0
900,173.2135588625,173.5972795625,69.0,75.0
901,173.2135588625,173.6554190625,64.0,42.0
902,173.5623958625,174.14524435,61.0,63.0
903,173.91123286250001,174.19175595,69.0,80.0
904,171.8182108625,174.1990233875,54.0,84.0
905,173.91123286250001,174.212104775,64.0,77.0
906,174.6089068625,175.2077437125,71.0,79.0
907,174.6089068625,175.2309995125,67.0,81.0
908,175.3065808625,176.05221995,64.0,81.0
909,175.6554178625,176.0914641125,66.0,69.0
910,176.0042548625,176.264429125,67.0,83.0
911,176.3530918625,176.9809984625,64.0,56.0
912,176.7019288625,176.985358925,74.0,86.0
913,174.6089068625,177.01733565,52.0,86.0
914,174.9577438625,177.043498425,59.0,62.0
915,177.05076586250001,177.1757657875,73.0,82.0
916,177.3996028625,177.8414630625,47.0,80.0
917,177.3996028625,177.9955327375,66.0,75.0
918,177.7484398625,178.0711140875,54.0,73.0
919,178.0972768625,178.485358025,59.0,58.0
920,177.3996028625,178.9286717125,74.0,84.0
921,179.1437878625,179.3414621625,66.0,74.0
922,179.1437878625,179.3734388875,73.0,82.0
923,178.7949508625,179.4926248625,62.0,79.0
924,178.4461138625,179.5740201625,61.0,78.0
925,179.4926248625,179.7833223625,69.0,69.0
926,179.8414618625,179.967915275,66.0,79.0
927,180.19029886250001,180.6147172125,67.0,75.0
928,180.19029886250001,180.624891625,71.0,67.0
929,180.19029886250001,180.671403225,62.0,73.0
930,180.8879728625,181.20337965,62.0,63.0
931,180.19029886250001,181.2106470875,43.0,80.0
932,181.2368098625,181.560937575,67.0,80.0
933,180.5391358625,181.5856468625,55.0,55.0
934,181.5856468625,182.1873906875,64.0,74.0
935,181.5856468625,182.4839021375,71.0,78.0
936,181.5856468625,182.6437857625,45.0,72.0
937,181.9344838625,182.76151825,52.0,79.0
938,182.6321578625,182.845820525,64.0,72.0
939,182.2833208625,183.0478552875,57.0,72.0
940,182.9809948625,183.4519248125,74.0,80.0
941,182.9809948625,183.5115178,47.0,82.0
942,183.3298318625,183.6394247,73.0,78.0
943,183.3298318625,183.677215375,54.0,77.0
944,183.6786688625,184.101633725,59.0,50.0
945,183.6786688625,184.1612267125,71.0,73.0
946,184.7251798625,184.86616815,66.0,62.0
947,184.7251798625,184.98244715,71.0,69.0
948,185.0740168625,185.2164586375,64.0,61.0
949,184.0275058625,185.2687841875,61.0,62.0
950,184.3763428625,185.2775051125,62.0,78.0
951,185.0740168625,185.328377175,69.0,71.0
952,185.4228538625,185.6757606875,71.0,72.0
953,185.4228538625,185.6859351,66.0,62.0
954,185.7716908625,186.1292487875,66.0,81.0
955,185.7716908625,186.380702125,74.0,86.0
956,186.4693648625,186.511516,74.0,44.0
957,186.4693648625,186.659771725,64.0,78.0
958,186.4693648625,186.7542484125,73.0,91.0
959,185.7716908625,186.8036669875,47.0,77.0
960,186.1205278625,186.8472716125,54.0,75.0
961,186.8182018625,186.8487251,73.0,47.0
962,186.8182018625,186.91267855,64.0,58.0
963,186.4693648625,187.031864525,59.0,60.0
964,186.8182018625,187.06384125,74.0,80.0
965,187.1670388625,187.5391316625,64.0,75.0
966,187.1670388625,187.624887425,67.0,80.0
967,187.1670388625,187.65686415,71.0,76.0
968,187.8647128625,188.107445275,64.0,72.0
969,187.5158758625,188.148142925,59.0,63.0
970,187.1670388625,188.1961080125,52.0,82.0
971,188.0391313625,188.270235875,66.0,75.0
972,188.2135498625,188.3908753375,67.0,76.0
973,188.3879683625,188.6277938,74.0,84.0
974,188.5623868625,188.9286657125,69.0,76.0
975,188.5623868625,188.9998866,64.0,72.0
976,188.5623868625,189.0856423625,73.0,82.0
977,188.5623868625,189.41267705,45.0,82.0
978,188.9112238625,189.4461072625,52.0,79.0
979,189.2600608625,189.54058395,69.0,79.0
980,189.2600608625,189.56529323750001,57.0,63.0
981,189.2600608625,189.6379676125,64.0,78.0
982,189.6088978625,189.90104885,67.0,83.0
983,189.9577348625,190.4402927125,69.0,82.0
984,189.9577348625,190.4868043125,64.0,77.0
985,190.6554088625,190.938838925,64.0,80.0
986,189.9577348625,190.94755985,54.0,82.0
987,190.3065718625,190.9490133375,61.0,79.0
988,191.0042458625,191.305117775,69.0,79.0
989,191.3530828625,191.776047725,71.0,79.0
990,191.3530828625,191.8240128125,67.0,80.0
991,191.3530828625,191.8588965125,62.0,81.0
992,191.7019198625,192.183024225,59.0,62.0
993,192.0507568625,192.3705241125,67.0,84.0
994,192.0507568625,192.3952334,71.0,80.0
995,192.0507568625,192.4373845375,62.0,80.0
996,191.3530828625,192.5013379875,52.0,81.0
997,192.3995938625,192.514419375,59.0,69.0
998,192.7484308625,192.98244235,73.0,81.0
999,192.7484308625,193.1088957625,64.0,80.0
1000,192.7484308625,193.1088957625,69.0,81.0
1001,192.7484308625,193.5362210875,45.0,79.0
1002,193.0972678625,193.5943605875,52.0,59.0
1003,193.4461048625,193.688837275,67.0,78.0
1004,193.4461048625,193.706279125,62.0,82.0
1005,193.4461048625,193.8705232125,71.0,78.0
1006,193.4461048625,193.938837125,57.0,69.0
1007,193.7949418625,193.9577324625,74.0,70.0
1008,194.1437788625,194.5129646875,73.0,86.0
1009,194.1437788625,194.651046,69.0,83.0
1010,194.8414528625,195.2789526,66.0,80.0
1011,194.1437788625,195.3036618875,54.0,83.0
1012,194.4926158625,195.4838943375,61.0,76.0
1013,195.1902898625,195.5216850125,71.0,78.0
1014,195.5391268625,195.97226613750001,73.0,84.0
1015,196.2368008625,196.38941705,69.0,82.0
1016,196.2368008625,196.41267285,64.0,75.0
1017,195.8879638625,196.55220765,61.0,78.0
1018,195.5391268625,196.5943587875,54.0,80.0
1019,196.5856378625,196.7687772875,69.0,78.0
1020,196.9344748625,197.2426142125,62.0,75.0
1021,196.9344748625,197.270230475,67.0,81.0
1022,196.9344748625,197.28476535000001,71.0,74.0
1023,196.9344748625,197.781858075,55.0,75.0
1024,197.6321488625,197.805113875,62.0,73.0
1025,197.2833118625,197.8138348,59.0,76.0
1026,197.8065673625,197.9533696,67.0,73.0
1027,197.9809858625,198.171392725,69.0,68.0
1028,198.1554043625,198.4024972375,74.0,74.0
1029,198.3298228625,198.6059854875,64.0,61.0
1030,198.3298228625,198.7338923875,73.0,84.0
1031,198.6786598625,198.8763341625,74.0,84.0
1032,198.3298228625,198.88941555,45.0,78.0
1033,198.6786598625,198.9751713125,52.0,76.0
1034,199.0274968625,199.1670316625,67.0,75.0
1035,199.0274968625,199.1931944375,76.0,84.0
1036,199.0274968625,199.418485,57.0,53.0
1037,199.3763338625,199.5042407625,59.0,72.0
1038,199.7251708625,200.0943566875,69.0,84.0
1039,199.7251708625,200.1466822375,66.0,80.0
1040,199.7251708625,200.171391525,50.0,83.0
1041,199.7251708625,200.270228675,74.0,90.0
1042,200.4228448625,200.7208098,69.0,81.0
1043,200.4228448625,200.7556935,64.0,82.0
1044,200.4228448625,200.764414425,61.0,78.0
1045,200.4228448625,200.781856275,73.0,90.0
1046,200.4228448625,200.78912371250001,49.0,82.0
1047,200.9461003625,201.0478444875,73.0,80.0
1048,200.7716818625,201.5245883875,71.0,80.0
1049,201.1205188625,201.5420302375,66.0,77.0
1050,201.1205188625,201.5565651125,74.0,82.0
1051,201.8181928625,201.944646275,71.0,68.0
1052,201.8181928625,202.0231346,66.0,80.0
1053,201.1205188625,202.0245880875,47.0,80.0
1054,201.4693558625,202.1379601125,59.0,59.0
1055,202.1670298625,202.357436725,69.0,78.0
1056,202.5158668625,202.8937736125,67.0,77.0
1057,202.5158668625,202.9199363875,71.0,75.0
1058,202.5158668625,202.92429685,62.0,69.0
1059,203.0391223625,203.276040825,62.0,73.0
1060,203.2135408625,203.485343025,67.0,78.0
1061,202.5158668625,203.5696453,52.0,79.0
1062,202.8647038625,203.6394127,59.0,73.0
1063,203.5623778625,203.869063725,71.0,80.0
1064,203.9112148625,204.3719704,69.0,82.0
1065,203.9112148625,204.3792378375,64.0,77.0
1066,204.2600518625,204.8298189625,61.0,79.0
1067,204.6088888625,204.851621275,64.0,76.0
1068,203.9112148625,204.9083072875,54.0,82.0
1069,204.9577258625,205.2905745,71.0,76.0
1070,205.3065628625,205.7978416375,66.0,80.0
1071,205.3065628625,205.8705160125,47.0,81.0
1072,205.3065628625,205.9519113125,74.0,80.0
1073,205.6553998625,205.9897019875,54.0,67.0
1074,206.0042368625,206.089992625,74.0,49.0
1075,206.0042368625,206.1990041875,64.0,76.0
1076,206.0042368625,206.23824835,73.0,83.0
1077,206.0042368625,206.44755055,59.0,59.0
1078,206.3530738625,206.58708535,69.0,74.0
1079,206.3530738625,206.9490037375,61.0,77.0
1080,206.7019108625,207.1161548,71.0,79.0
1081,206.7019108625,207.1277827,62.0,74.0
1082,207.0507478625,207.35452675,69.0,73.0
1083,207.3995848625,207.479526675,66.0,83.0
1084,208.0972588625,208.3210959375,66.0,80.0
1085,208.0972588625,208.48243305,74.0,90.0
1086,208.4460958625,208.5972585625,64.0,75.0
1087,208.4460958625,208.7687700875,73.0,86.0
1088,208.7949328625,208.9882467,66.0,78.0
1089,208.0972588625,208.9897001875,47.0,83.0
1090,208.7949328625,209.014409475,74.0,83.0
1091,208.4460958625,209.043479225,54.0,80.0
1092,208.7949328625,209.1350489375,59.0,61.0
1093,209.1437698625,209.4083045875,69.0,79.0
1094,209.4926068625,209.822548525,64.0,78.0
1095,209.4926068625,209.8370834,67.0,81.0
1096,209.4926068625,209.90103685,71.0,83.0
1097,210.1902808625,210.3646993625,64.0,79.0
1098,209.8414438625,210.3995830625,59.0,62.0
1099,209.4926068625,210.4490016375,52.0,80.0
1100,210.3646993625,210.4926062625,67.0,67.0
1101,210.5391178625,210.7309782125,69.0,67.0
1102,210.7135363625,210.834175825,71.0,68.0
1103,210.8879548625,211.2905709,74.0,84.0
1104,211.2367918625,211.6161521,73.0,80.0
1105,210.8879548625,211.7513264375,45.0,80.0
1106,211.2367918625,211.8210938375,52.0,76.0
1107,211.5856288625,211.84289615,69.0,63.0
1108,211.5856288625,211.9315588875,57.0,62.0
1109,211.9344658625,212.1408610875,64.0,67.0
1110,212.2833028625,212.6437677625,66.0,81.0
1111,212.2833028625,212.6495817125,69.0,78.0
1112,212.6321398625,213.089988425,61.0,73.0
1113,212.9809768625,213.2309767125,64.0,78.0
1114,212.9809768625,213.246965075,66.0,77.0
1115,212.9809768625,213.2891162125,69.0,81.0
1116,212.2833028625,213.3835929,54.0,83.0
1117,213.3298138625,213.398127775,61.0,80.0
1118,213.6786508625,214.165569175,43.0,83.0
1119,214.0274878625,214.40103415,50.0,79.0
1120,213.6786508625,214.7077200125,67.0,82.0
1121,213.6786508625,214.7091735,62.0,79.0
1122,213.6786508625,214.76585951250001,71.0,74.0
1123,214.3763248625,214.7745804375,55.0,71.0
1124,214.7251618625,214.8370804,57.0,80.0
1125,215.0739988625,215.29638245,73.0,83.0
1126,215.0739988625,215.3021964,64.0,79.0
1127,215.0739988625,215.4693474625,69.0,79.0
1128,215.7716728625,215.9838820375,57.0,69.0
1129,215.0739988625,216.0928936,45.0,83.0
1130,215.7716728625,216.11033545,74.0,93.0
1131,215.7716728625,216.1176028875,66.0,81.0
1132,215.4228358625,216.1466726375,52.0,80.0
1133,216.1205098625,216.241149325,57.0,41.0
1134,216.1205098625,216.3603353,71.0,78.0
1135,216.4693468625,216.857428025,69.0,79.0
1136,216.4693468625,216.962079125,64.0,77.0
1137,217.1670208625,217.3966718875,64.0,78.0
1138,216.4693468625,217.59870665,54.0,83.0
1139,216.8181838625,217.7484158625,61.0,76.0
1140,217.5158578625,217.828357675,71.0,77.0
1141,217.8646948625,218.1728342125,69.0,72.0
1142,217.8646948625,218.1815551375,73.0,82.0
1143,217.8646948625,218.183008625,64.0,76.0
1144,218.2135318625,218.6030665125,61.0,72.0
1145,218.5623688625,218.805101275,69.0,81.0
1146,218.5623688625,218.80800825,64.0,77.0
1147,217.8646948625,218.8356245125,54.0,78.0
1148,218.7367873625,218.8530663625,61.0,82.0
1149,218.9112058625,219.0274848625,66.0,71.0
1150,219.0856243625,219.2091708,69.0,78.0
1151,219.2600428625,219.8007402125,43.0,79.0
1152,219.6088798625,219.9417285,50.0,75.0
1153,219.2600428625,220.2774841125,71.0,75.0
1154,219.2600428625,220.281844575,62.0,75.0
1155,219.2600428625,220.293472475,67.0,81.0
1156,219.9577168625,220.35451895,55.0,74.0
1157,220.3065538625,220.409751475,57.0,82.0
1158,220.6553908625,221.026030175,45.0,82.0
1159,221.0042278625,221.136495225,52.0,81.0
1160,220.6553908625,221.2905649,64.0,76.0
1161,220.6553908625,221.30800675,73.0,78.0
1162,220.6553908625,221.3501578875,69.0,80.0
1163,221.1786463625,221.395216,57.0,72.0
1164,221.3530648625,221.5914368125,59.0,63.0
1165,221.5274833625,221.6321344625,61.0,82.0
1166,221.7019018625,221.8559715375,64.0,69.0
1167,221.8763203625,221.979517975,69.0,75.0
1168,222.0507388625,222.258587575,66.0,80.0
1169,222.0507388625,222.3298084625,69.0,83.0
1170,222.0507388625,222.3385293875,74.0,84.0
1171,222.0507388625,222.526029275,50.0,80.0
1172,222.3995758625,222.5710873875,64.0,72.0
1173,222.3995758625,222.674285,73.0,80.0
1174,222.3995758625,222.8036453875,57.0,75.0
1175,222.7484128625,223.043470825,64.0,76.0
1176,222.7484128625,223.07544755,69.0,84.0
1177,222.7484128625,223.2716683625,49.0,83.0
1178,223.0972498625,223.28038928750001,57.0,78.0
1179,223.0972498625,223.310912525,66.0,53.0
1180,223.4460868625,223.87777265,66.0,58.0
1181,223.4460868625,223.956260975,71.0,78.0
1182,223.4460868625,224.2207957,47.0,84.0
1183,223.7949238625,224.30800495,54.0,81.0
1184,224.1437608625,224.415563025,59.0,76.0
1185,224.4925978625,224.642307075,66.0,60.0
1186,224.4925978625,224.677190775,73.0,73.0
1187,224.6670163625,224.903934825,74.0,76.0
1188,224.8414348625,225.4431786875,67.0,76.0
1189,224.8414348625,225.48242285,71.0,73.0
1190,225.5391088625,225.7222482875,64.0,81.0
1191,225.1902718625,225.7513180375,59.0,71.0
1192,224.8414348625,225.752771525,52.0,78.0
1193,225.8879458625,225.9315504875,76.0,51.0
1194,225.8879458625,226.235329375,74.0,59.0
1195,226.2367828625,226.584166375,42.0,84.0
1196,226.2367828625,226.6175965875,73.0,80.0
1197,226.5856198625,226.93591035,69.0,78.0
1198,226.9344568625,226.9955033375,66.0,62.0
1199,226.5856198625,227.02166611250001,54.0,71.0
1200,226.9344568625,227.066724225,57.0,72.0
1201,226.9344568625,227.281840375,64.0,62.0
1202,227.2832938625,227.5274797625,62.0,78.0
1203,227.6321308625,228.0812585,66.0,78.0
1204,227.6321308625,228.2571304875,62.0,80.0
1205,228.3298048625,228.80800225,59.0,79.0
1206,228.6786418625,228.81963015,66.0,73.0
1207,228.8530603625,229.0216649125,71.0,71.0
1208,229.0274788625,229.2106182875,66.0,68.0
1209,229.0274788625,229.4300949,74.0,80.0
1210,229.3763158625,229.531839025,64.0,71.0
1211,229.3763158625,229.6161413,73.0,81.0
1212,229.0274788625,229.787652825,59.0,62.0
1213,227.9809678625,229.828350475,54.0,76.0
1214,227.6321308625,229.839978375,47.0,72.0
1215,229.7251528625,229.8486993,71.0,79.0
1216,230.4417222,230.5652686375,66.0,63.0
1217,230.4184664,233.8036387875,62.0,62.0
1218,230.4417222,233.8181736625,67.0,63.0
1219,230.4141059375,233.8472434125,55.0,55.0
1220,230.41265245,233.8675922375,74.0,81.0
1221,230.4111989625,234.0187549375,71.0,67.0
1222,230.4170129125,234.0928828,78.0,72.0
1223,238.1960780125,238.31962445,47.0,78.0
1224,238.0565432125,238.61032195,64.0,53.0
1225,238.1234036375,238.7484032625,69.0,43.0
1226,238.1960780125,238.8152636875,71.0,41.0
1227,238.3123570125,238.88939155,73.0,76.0
