,start,end,pitch,velocity
0,24.16343904375,24.305230027083333,71.0,93.0
1,24.38731954375,24.523513514583332,71.0,94.0
2,24.61120004375,24.74739401458333,71.0,93.0
3,24.83508054375,24.965677502083334,71.0,93.0
4,25.05896104375,25.409707160416666,71.0,93.0
5,25.50672204375,25.95448304375,69.0,88.0
6,25.95448304375,26.506721610416665,68.0,93.0
7,26.40224404375,26.78843790625,66.0,93.0
8,26.85000504375,27.24739293125,66.0,94.0
9,27.29776604375,27.43769135625,64.0,95.0
10,27.521646543750002,29.53657104375,64.0,95.0
11,31.32761504375,31.458212002083336,64.0,94.0
12,31.55149554375,31.661570122916665,64.0,93.0
13,31.77537604375,31.90037598958333,64.0,93.0
14,31.99925654375,32.129853502083336,64.0,91.0
15,32.22313704375,32.943285985416665,66.0,93.0
16,33.11865904375,33.54030065208333,66.0,90.0
17,33.56642004375,33.928360185416665,64.0,95.0
18,34.01418104375,36.86492607708333,68.0,85.0
19,38.49179104375,38.62611934375,71.0,94.0
20,38.71567154375,38.83134313541667,71.0,94.0
21,38.93955204375,39.05895497708333,71.0,94.0
22,39.16343254375,39.65783531458334,71.0,96.0
23,39.83507404375,40.19328284375,71.0,99.0
24,40.28283504375,40.64720604791666,73.0,94.0
25,40.736221110416665,40.89909973541666,75.0,94.0
26,40.96349361041666,42.83659779791667,76.0,94.0
27,43.918036110416665,44.26841454791666,68.0,97.0
28,44.37258111041666,44.50894461041666,69.0,94.0
29,44.599853610416666,45.21727723541666,71.0,95.0
30,45.28167111041667,45.626367735416665,64.0,100.0
31,45.73621611041666,46.08091273541666,68.0,94.0
32,46.190761110416666,46.33091248541666,69.0,93.0
33,46.418033610416664,47.01462392291666,71.0,92.0
34,47.099851110416665,47.50894161041666,64.0,97.0
35,48.008941110416664,48.190759110416664,63.0,93.0
36,48.23621361041666,48.385834672916666,64.0,95.0
37,48.46348611041667,48.876364485416666,66.0,97.0
38,48.91803111041666,51.156850568749995,64.0,95.0
39,52.9836646625,53.12545564583333,71.0,93.0
40,53.2075451625,53.34373913333333,71.0,94.0
41,53.4314256625,53.56761963333333,71.0,93.0
42,53.6553061625,53.785903120833325,71.0,93.0
43,53.8791866625,54.22993277916666,71.0,93.0
44,54.3269476625,54.7747086625,69.0,88.0
45,54.7747086625,55.32694722916666,68.0,93.0
46,55.222469662499996,55.608663525,66.0,93.0
47,55.670230662499996,57.685155162499996,68.0,94.0
48,60.16082974166666,60.29240859583333,64.0,94.0
49,60.38639349166666,60.49729566874999,64.0,93.0
50,60.61195724166666,60.73789700208333,64.0,93.0
51,60.83752099166666,60.96909984583333,64.0,91.0
52,61.06308474166666,61.55556559583333,66.0,93.0
53,61.55556559583333,61.78112934583333,66.0,93.0
54,61.73977599166666,61.78112934583333,66.0,90.0
55,62.41646724166666,62.78112863749999,64.0,95.0
56,62.86759474166666,63.232256137499995,68.0,95.0
57,63.31872224166666,66.19090065833332,71.0,85.0
58,67.37886974166666,67.51420799166667,71.0,94.0
59,67.60443349166665,67.72097476249999,71.0,94.0
60,67.82999724166666,67.95029790833333,71.0,94.0
61,68.05556099166665,68.55368093958333,71.0,96.0
62,68.73225224166666,69.09315424166665,71.0,99.0
63,69.18337974166666,69.54616143958333,73.0,94.0
64,69.63450724166665,69.7961612625,75.0,94.0
65,69.86007099166666,71.70714115624999,76.0,94.0
66,72.77243920208332,73.11758830625,68.0,97.0
67,73.22020020208333,73.35452850208333,69.0,94.0
68,73.44408070208333,74.05228939374999,71.0,95.0
69,74.11572220208333,74.45527429375,64.0,100.0
70,74.56348320208333,74.90303529375,68.0,94.0
71,75.01124420208333,75.14930384374999,69.0,93.0
72,75.23512470208333,75.82281101458332,71.0,92.0
73,75.90676620208333,76.30975110208333,64.0,97.0
74,76.80228820208333,76.98139260208333,63.0,93.0
75,77.02616870208333,77.17355669791667,64.0,95.0
76,77.25004920208333,77.65676544374999,66.0,97.0
77,77.69781020208333,79.92044560625,64.0,95.0
78,79.94885466874999,80.25756648125,68.0,99.0
79,80.17612716874999,80.46400566874999,66.0,98.0
80,80.63067216875,80.82385379374999,64.0,97.0
81,80.85794466875,81.46756485625,64.0,100.0
82,81.76079773125,82.13109822083332,73.0,97.0
83,82.21192523124999,82.37169955416665,75.0,93.0
84,82.43748898124998,83.08598476249999,73.0,100.0
85,83.11418023124999,83.67620990833332,71.0,97.0
86,84.24199898124999,84.39237481458332,68.0,97.0
87,84.46756273124998,85.22508099166666,73.0,94.0
88,85.36981773124998,85.76831368958332,71.0,93.0
89,85.82094523125,85.9957571375,73.0,97.0
90,86.04650898124999,87.01267371041665,68.0,89.0
91,87.17056833541666,87.46004181458332,68.0,95.0
92,87.48071849166665,87.65928979374999,66.0,93.0
93,87.77395136666665,87.92808659583332,64.0,97.0
94,88.05026696041665,88.70628153333332,64.0,99.0
95,88.97883773124998,89.36793519999999,73.0,97.0
96,89.42996523124998,89.56154408541666,75.0,97.0
97,89.65552898124999,90.30214506458333,73.0,100.0
98,90.33222023124999,91.22319704374999,71.0,97.0
99,91.21755794999999,91.42056532499998,68.0,97.0
100,91.43748260624999,91.59349753333332,69.0,94.0
101,91.69124182499999,91.94500104374998,71.0,104.0
102,91.99575288749999,92.23635422083332,69.0,99.0
103,92.27206848124999,92.5258277,68.0,95.0
104,92.54650437708332,92.77018842916665,69.0,94.0
105,92.86605302291666,93.15364680416666,68.0,95.0
106,93.17432348124998,93.36229327291666,69.0,94.0
107,93.45439847083333,93.68936071041665,71.0,95.0
108,93.74195017083332,93.98635304999998,69.0,94.0
109,94.04605451666664,94.30538276249999,68.0,97.0
110,94.33896483749999,94.64493485416665,69.0,96.0
111,94.83523327916664,95.05538243749999,68.0,102.0
112,95.05911377916665,95.20090476249999,69.0,94.0
113,95.28299427916664,95.67851649583332,73.0,100.0
114,95.73075527916664,95.86135223749999,71.0,97.0
115,95.95463577916665,96.48262062499998,73.0,97.0
116,96.62627727916664,98.56844061666665,71.0,99.0
117,98.86508227916664,99.58896256249999,76.0,100.0
118,99.76060427916664,100.49008157499998,78.0,97.0
119,100.65612627916664,101.01620074999998,80.0,99.0
120,101.10388727916666,101.22888722499998,81.0,94.0
121,101.32776777916665,102.01765906458331,80.0,99.0
122,102.00262148124999,102.37856106458332,78.0,94.0
123,102.45374898124999,103.44998887708331,76.0,99.0
124,103.80713148124998,104.13607861666665,76.0,95.0
125,104.25825898124998,104.60036400208332,75.0,97.0
126,104.70938648125,104.88983748124998,76.0,99.0
127,104.93495023124999,105.52893477291666,78.0,97.0
128,105.61164148124999,106.03645321041665,75.0,97.0
129,106.06276898124999,107.06840736666665,76.0,98.0
130,107.41615148124998,107.75449710624999,76.0,99.0
131,107.86727898124998,108.22254188749999,75.0,97.0
132,108.31840648124998,108.44998533541666,76.0,97.0
133,108.54397023124999,108.90299253333332,75.0,100.0
134,108.99509773124998,109.14735326249999,73.0,95.0
135,109.22066148124999,109.65863109583331,71.0,100.0
136,109.67178898124999,110.59284096041665,76.0,99.0
137,111.02517148124998,111.15111124166665,73.0,93.0
138,111.25073523124999,111.41802834583332,73.0,93.0
139,111.47629898124998,111.87479493958332,71.0,104.0
140,111.92742648124998,112.03832865833331,75.0,99.0
141,112.15299023124999,112.71689960624998,76.0,85.0
142,113.06652341874998,113.22629774166666,71.0,107.0
143,113.28832777291666,113.52329001249998,73.0,99.0
144,113.60599672083332,113.78832741874999,75.0,96.0
145,113.89359050208331,114.06088361666666,76.0,97.0
146,114.18682337708331,114.42742471041666,76.0,100.0
147,114.48381564791666,114.76013124166666,75.0,100.0
148,114.77892822083332,114.98945438749999,73.0,94.0
149,115.08719867916665,115.38043155416665,76.0,98.0
150,115.51576980416665,115.93682213749999,76.0,104.0
151,115.98757398124998,116.26119947708332,71.0,104.0
152,116.21254681458332,116.45393887083333,73.0,97.0
153,116.66164831458333,116.86000147708333,75.0,104.0
154,116.88619906458332,117.87796487708333,76.0,99.0
155,118.23350356458333,118.56097340833333,76.0,95.0
156,118.68260506458333,119.02317370208333,75.0,97.0
157,119.13170656458333,119.31134716458332,76.0,99.0
158,119.35625731458333,119.94757428958333,78.0,97.0
159,120.02990956458332,120.45281347708332,75.0,97.0
160,120.47901106458332,121.48013315833333,76.0,98.0
161,121.82631556458333,122.16314168958333,76.0,99.0
162,122.27541706458332,122.62908449583333,75.0,97.0
163,122.72451856458332,122.85550650208333,76.0,97.0
164,122.94906931458333,123.30647925833333,75.0,100.0
165,123.39817081458332,123.54974257083333,73.0,95.0
166,123.62272156458333,124.05872427083332,71.0,100.0
167,124.07182306458333,124.98873862708332,76.0,99.0
168,125.41912756458332,125.54450173333332,73.0,93.0
169,125.64367831458333,125.81022012083332,73.0,93.0
170,125.86822906458332,126.26493538958333,71.0,104.0
171,126.31733056458333,126.42773468333333,75.0,99.0
172,126.54188131458332,127.10325818958333,76.0,85.0
173,127.45131185208332,127.61036863333332,71.0,107.0
174,127.67212008958333,127.90602712083333,73.0,99.0
175,128.11373656458332,128.25408078333334,76.0,97.0
176,128.3382873145833,128.9071492145833,76.0,96.0
177,129.01193956458332,129.13731373333331,73.0,97.0
178,129.23649031458334,129.38244830208333,73.0,95.0
179,129.46104106458333,129.76044206458332,76.0,100.0
180,129.91014256458334,130.28813632708332,76.0,97.0
181,130.35924406458332,130.60624988958332,75.0,104.0
182,130.5837948145833,130.72601028958331,76.0,102.0
183,130.80834556458333,131.10587530833334,78.0,95.0
184,131.25744706458332,131.66901075833331,78.0,99.0
185,131.70854387083332,134.70364777499998,76.0,104.0
186,164.59760940416666,164.74003815416665,71.0,93.0
187,164.82249690416666,164.95930346666665,71.0,94.0
188,165.04738440416668,165.18419096666668,71.0,93.0
189,165.27227190416667,165.40345627916668,71.0,93.0
190,165.49715940416667,165.84948315416668,71.0,93.0
191,165.94693440416665,166.39670940416667,69.0,88.0
192,166.39670940416667,166.95143190416667,68.0,93.0
193,166.84648440416666,167.23441534166668,66.0,93.0
194,167.29625940416668,169.32024690416668,68.0,94.0
195,171.79400940416667,171.92519377916668,64.0,94.0
196,172.01889690416667,172.12946659166667,64.0,93.0
197,172.24378440416666,172.36934659166667,64.0,93.0
198,172.46867190416668,172.59985627916666,64.0,91.0
199,172.69355940416668,173.18456377916667,66.0,93.0
200,173.18456377916667,173.40945127916666,66.0,93.0
201,173.36822190416666,173.40945127916666,66.0,90.0
202,174.04288440416667,174.40645252916667,64.0,95.0
203,174.49265940416666,174.85622752916666,68.0,95.0
204,174.94243440416668,177.80600190416666,71.0,85.0
205,178.99040940416666,179.12534190416667,71.0,94.0
206,179.21529690416668,179.33148877916668,71.0,94.0
207,179.44018440416667,179.5601244041667,71.0,94.0
208,179.66507190416667,180.16169846666668,71.0,96.0
209,180.33973440416668,180.69955440416666,71.0,99.0
210,180.78950940416667,181.1512034666667,73.0,94.0
211,181.23928440416665,181.40045377916667,75.0,94.0
212,181.46417190416668,183.31761971666668,76.0,94.0
213,184.38770940416669,184.73441096666667,68.0,97.0
214,184.83748440416667,184.97241690416666,69.0,94.0
215,185.06237190416667,185.67331627916667,71.0,95.0
216,185.73703440416668,186.07811377916667,64.0,100.0
217,186.18680940416667,186.52788877916666,68.0,94.0
218,186.63658440416668,186.77526502916666,69.0,93.0
219,186.86147190416668,187.45180159166665,71.0,92.0
220,187.53613440416666,187.94093190416666,64.0,97.0
221,188.43568440416666,188.61559440416667,63.0,93.0
222,188.66057190416666,188.80862284166668,64.0,95.0
223,188.88545940416668,189.29400502916667,66.0,97.0
224,189.33523440416667,191.55599846666667,64.0,95.0
225,191.58410940416667,191.88958159166668,68.0,99.0
226,191.80899690416666,192.09385440416668,66.0,98.0
227,192.25877190416668,192.44992627916668,64.0,97.0
228,192.48365940416667,193.09085565416666,64.0,100.0
229,193.38320940416668,193.75239971666667,73.0,97.0
230,193.83298440416667,193.99227971666667,75.0,93.0
231,194.05787190416666,194.70442346666667,73.0,100.0
232,194.73253440416667,195.29287909166666,71.0,97.0
233,195.85697190416667,196.00689690416667,68.0,97.0
234,196.08185940416666,196.83710659166667,73.0,94.0
235,196.98140940416667,197.37871065416667,71.0,93.0
236,197.4311844041667,197.60547221666667,73.0,97.0
237,197.65607190416668,198.61934002916666,68.0,89.0
238,198.77676127916666,199.06536690416667,68.0,95.0
239,199.08598159166667,199.26401752916667,66.0,93.0
240,199.37833534166668,199.53200846666667,64.0,97.0
241,199.65382252916666,200.30787034166667,64.0,99.0
242,200.57960940416666,200.96754034166668,73.0,97.0
243,201.02938440416668,201.16056877916668,75.0,97.0
244,201.25427190416667,201.89894940416667,73.0,100.0
245,201.92893440416668,202.81724002916667,71.0,97.0
246,202.81161784166667,203.01401659166666,68.0,97.0
247,203.03088315416667,203.18643034166666,69.0,94.0
248,203.28388159166667,203.53688002916667,71.0,104.0
249,203.58747971666668,203.82735971666668,69.0,99.0
250,203.86296690416668,204.11596534166668,68.0,95.0
251,204.13658002916668,204.35959346666667,69.0,94.0
252,204.45517065416666,204.74190221666666,68.0,95.0
253,204.76251690416666,204.94992315416667,69.0,94.0
254,205.04175221666668,205.27601002916668,71.0,95.0
255,205.32848377916667,205.57398596666667,69.0,94.0
256,205.63395596666666,205.89445065416666,68.0,97.0
257,205.92818377916666,206.23553002916668,69.0,96.0
258,206.42668440416668,206.64782377916669,68.0,102.0
259,206.65157190416667,206.79400065416667,69.0,94.0
260,206.87645940416667,207.27376065416667,73.0,100.0
261,207.32623440416666,207.4574187791667,71.0,97.0
262,207.55112190416668,208.08148159166666,73.0,97.0
263,208.2257844041667,210.17668346666667,71.0,99.0
264,210.4746594041667,211.20368915416665,76.0,100.0
265,211.3766213625,212.11158324791666,78.0,97.0
266,212.2788763625,212.64165806041666,80.0,99.0
267,212.73000386249998,212.85594362291667,81.0,94.0
268,212.9555676125,213.64729644583332,80.0,99.0
269,213.6322588625,214.00819844583333,78.0,94.0
270,214.0833863625,215.07962625833332,76.0,99.0
271,215.4367688625,215.76571599791666,76.0,95.0
272,215.8878963625,216.23000138333333,75.0,97.0
273,216.3390238625,216.5194748625,76.0,99.0
274,216.5645876125,217.15857215416668,78.0,97.0
275,217.2412788625,217.66609059166666,75.0,97.0
276,217.6924063625,218.69804474791667,76.0,98.0
277,219.0457888625,219.3841344875,76.0,99.0
278,219.4969163625,219.85217926875,75.0,97.0
279,219.9480438625,220.07962271666668,76.0,97.0
280,220.1736076125,220.53262991458334,75.0,100.0
281,220.6247351125,220.77699064375,73.0,95.0
282,220.85029886249998,221.28826847708334,71.0,100.0
283,221.3014263625,222.22247834166666,76.0,99.0
284,222.6548088625,222.78074862291666,73.0,93.0
285,222.8803726125,223.04766572708334,73.0,93.0
286,223.1059363625,223.50443232083333,71.0,104.0
287,223.5570638625,223.66796603958332,75.0,99.0
288,223.7826276125,224.3465369875,76.0,85.0
289,224.6961608,224.85593512291666,71.0,107.0
290,224.91796515416667,225.15292739375,73.0,99.0
291,225.23563410208334,225.41756468541666,75.0,96.0
292,225.52251218541664,225.68930374791665,76.0,97.0
293,225.81486593541666,226.05474593541666,76.0,100.0
294,226.11096781041664,226.38645499791664,75.0,100.0
295,226.40519562291666,226.61509062291665,73.0,94.0
296,226.71254187291666,227.00489562291665,76.0,98.0
297,227.13982812291664,227.55961812291665,76.0,104.0
298,227.61021781041666,227.88383093541665,71.0,104.0
299,227.83510531041665,228.07685937291666,73.0,97.0
300,228.28488031041664,228.48353093541667,75.0,104.0
301,228.50976781041666,229.50302093541666,76.0,99.0
302,229.85909281041666,230.18705374791665,76.0,95.0
303,230.30886781041664,230.64994718541666,75.0,97.0
304,230.75864281041666,230.93855281041667,76.0,99.0
305,230.98353031041665,231.57573406041666,78.0,97.0
306,231.65819281041666,232.08173093541666,75.0,97.0
307,232.10796781041665,233.11059124791666,76.0,98.0
308,233.45729281041665,233.79462406041665,76.0,99.0
309,233.90706781041666,234.26126562291665,75.0,97.0
310,234.35684281041665,234.48802718541666,76.0,97.0
311,234.58173031041665,234.93967624791665,75.0,100.0
312,235.03150531041666,235.18330437291667,73.0,95.0
313,235.25639281041666,235.69304937291665,71.0,100.0
314,235.70616781041664,236.62445843541664,76.0,99.0
315,237.05549281041667,237.18105499791665,73.0,93.0
316,237.28038031041666,237.44717187291664,73.0,93.0
317,237.50526781041665,237.90256906041665,71.0,104.0
318,237.95504281041664,238.06561249791665,75.0,99.0
319,238.17993031041667,238.74214906041666,76.0,85.0
320,239.09072468541666,239.25001999791667,71.0,107.0
321,239.31186406041667,239.54612187291664,73.0,99.0
322,239.75414281041665,239.89469749791664,76.0,97.0
323,239.97903031041665,240.54874531041665,76.0,96.0
324,240.65369281041666,240.77925499791667,73.0,97.0
325,240.87858031041665,241.02475718541666,73.0,95.0
326,241.10346781041665,241.40331781041664,76.0,100.0
327,241.55324281041666,241.93180343541667,76.0,97.0
328,242.00301781041665,242.25039406041665,75.0,104.0
329,242.22790531041665,242.37033406041667,76.0,102.0
330,242.45279281041667,242.75076874791665,78.0,95.0
331,242.90256781041666,243.31298749791665,78.0,99.0
332,243.35234281041664,246.33397624791667,76.0,104.0
333,246.50076781041665,247.49402093541664,77.0,99.0
334,247.85009281041664,248.17805374791666,77.0,95.0
335,248.29986781041666,248.64094718541665,76.0,97.0
336,248.74964281041665,248.92955281041665,77.0,99.0
337,248.97453031041664,249.56673406041665,79.0,97.0
338,249.64919281041665,250.07273093541664,76.0,97.0
339,250.09896781041664,251.10159124791664,77.0,98.0
340,251.44829281041666,251.78562406041667,77.0,99.0
341,251.89806781041665,252.25226562291664,76.0,97.0
342,252.34784281041667,252.47902718541667,77.0,97.0
343,252.57273031041666,252.93067624791667,76.0,100.0
344,253.02250531041665,253.17430437291665,74.0,95.0
345,253.24739281041664,253.68404937291666,72.0,100.0
346,253.69716781041666,254.61545843541666,77.0,99.0
347,255.04649281041665,255.17205499791666,74.0,93.0
348,255.27138031041665,255.43817187291666,74.0,93.0
349,255.49626781041667,255.89356906041667,72.0,104.0
350,255.94604281041666,256.05661249791666,76.0,99.0
351,256.1709303104167,256.7331490604167,77.0,85.0
352,257.08172468541665,257.2410199979167,72.0,107.0
353,257.30286406041665,257.53712187291666,74.0,99.0
354,257.61958062291666,257.8013646854167,76.0,96.0
355,257.90631218541665,258.07310374791666,77.0,97.0
356,258.19866593541667,258.43854593541664,77.0,100.0
357,258.49476781041665,258.77025499791665,76.0,100.0
358,258.7889956229167,258.99889062291663,74.0,94.0
359,259.09634187291664,259.38869562291666,77.0,98.0
360,259.52362812291665,259.9434181229167,77.0,104.0
361,259.99401781041666,260.26763093541666,72.0,104.0
362,260.21890531041663,260.46065937291667,74.0,97.0
363,260.6686803104167,260.86733093541665,76.0,104.0
364,260.89356781041664,261.88682093541667,77.0,99.0
365,262.24289281041666,262.57085374791666,77.0,95.0
366,262.69266781041665,263.03374718541664,76.0,97.0
367,263.14244281041664,263.32235281041665,77.0,99.0
368,263.36733031041666,263.9595340604167,79.0,97.0
369,264.0419928104167,264.46553093541667,76.0,97.0
370,264.49176781041666,265.49439124791667,77.0,98.0
371,265.8410928104166,266.17842406041666,77.0,99.0
372,266.29086781041667,266.64506562291666,76.0,97.0
373,266.74064281041666,266.87182718541663,77.0,97.0
374,266.9655303104166,267.32347624791663,76.0,100.0
375,267.41530531041667,267.5671043729167,74.0,95.0
376,267.64019281041664,268.0768493729166,72.0,100.0
377,268.0899678104166,269.0082584354167,77.0,99.0
378,269.43929281041665,269.56485499791665,74.0,93.0
379,269.66418031041667,269.8309718729167,74.0,93.0
380,269.88906781041663,270.28636906041663,72.0,104.0
381,270.3388428104167,270.4494124979167,76.0,99.0
382,270.56373031041664,271.12594906041664,77.0,85.0
383,271.47452468541667,271.63381999791665,72.0,107.0
384,271.6956640604167,271.9299218729167,74.0,99.0
385,272.13794281041663,272.27849749791665,77.0,97.0
386,272.36283031041665,272.9325453104167,77.0,96.0
387,273.03749281041667,273.1630549979167,74.0,97.0
388,273.26238031041663,273.40855718541667,74.0,95.0
389,273.48726781041665,273.78711781041665,77.0,100.0
390,273.93704281041664,274.3156034354167,77.0,97.0
391,274.38681781041663,274.63419406041663,76.0,104.0
392,274.61170531041665,274.7541340604167,77.0,102.0
393,274.8365928104167,275.13456874791666,79.0,95.0
394,275.28636781041666,275.69678749791666,79.0,99.0
395,275.73614281041665,278.7177762479167,77.0,104.0
