,start,end,pitch,velocity
0,1.6623127125000001,2.2444020125,64.0,89.0
1,1.6623127125000001,2.4626855,68.0,82.0
2,2.1100737125,2.6380585583333334,59.0,81.0
3,1.6623127125000001,2.7369391125,52.0,86.0
4,2.5578347125,2.9944016875,64.0,91.0
5,3.0055957125,3.8376849041666667,59.0,69.0
6,3.4533567125,4.005595279166667,63.0,88.0
7,3.4533567125,4.5839532375,47.0,92.0
8,3.9011177125,4.632460679166667,54.0,81.0
9,4.3488787125,4.7817143458333335,66.0,88.0
10,4.3488787125,4.8320874583333335,63.0,95.0
11,4.7966397125,5.348878279166667,59.0,95.0
12,5.2444007125,5.707087079166667,61.0,83.0
13,5.2444007125,6.0037287416666665,64.0,89.0
14,5.6921617125,6.395519616666667,56.0,58.0
15,5.2444007125,6.404847970833334,49.0,87.0
16,6.1399227125,6.4701464500000005,61.0,92.0
17,6.1399227125,6.988802941666667,64.0,94.0
18,7.0354447125,7.339549058333334,64.0,95.0
19,7.0354447125,7.352608754166667,49.0,94.0
20,7.0354447125,7.384325158333334,68.0,89.0
21,7.0354447125,7.412310220833334,61.0,85.0
22,7.9309667125,8.268653133333334,59.0,92.0
23,7.9309667125,8.292906854166667,56.0,84.0
24,7.9309667125,8.3227575875,63.0,88.0
25,7.9309667125,8.3339516125,44.0,92.0
26,8.8264887125,9.546637654166666,61.0,82.0
27,8.8264887125,9.578354058333334,64.0,90.0
28,8.8264887125,9.608204791666667,57.0,82.0
29,8.8264887125,10.078353841666667,45.0,93.0
30,9.2742497125,10.085816525,52.0,86.0
31,9.7220107125,10.1473836625,61.0,104.0
32,10.1697717125,10.281711962500001,57.0,98.0
33,10.617532712500001,11.227607075,59.0,93.0
34,10.617532712500001,11.559696483333333,56.0,86.0
35,10.617532712500001,11.576487520833334,44.0,93.0
36,11.0652937125,11.630591975,51.0,76.0
37,11.5130547125,11.805965033333333,59.0,98.0
38,11.5130547125,11.917905283333333,63.0,94.0
39,12.4085767125,12.973874975000001,50.0,85.0
40,12.4085767125,12.9794719875,54.0,85.0
41,13.3040987125,14.5970086,50.0,100.0
42,12.4085767125,14.617530979166666,57.0,79.0
43,13.7518597125,14.626859333333334,54.0,104.0
44,12.4085767125,14.645516041666667,38.0,97.0
45,12.8563377125,14.651113054166666,45.0,83.0
46,14.1996207125,14.833948795833333,62.0,94.0
47,15.542903712500001,15.759321529166668,50.0,95.0
48,15.542903712500001,15.815291654166668,62.0,93.0
49,15.766784212500001,15.983202029166668,49.0,94.0
50,15.766784212500001,15.999993066666667,61.0,96.0
51,15.990664712500001,16.9421568375,59.0,95.0
52,16.8861867125,17.458947658333333,63.0,102.0
53,17.3339477125,17.673499804166667,66.0,83.0
54,16.4384257125,18.0391712875,54.0,87.0
55,17.7817087125,18.444021858333333,63.0,85.0
56,17.7817087125,18.457081554166667,59.0,91.0
57,17.7817087125,18.7164098,71.0,94.0
58,17.7817087125,18.742529191666666,66.0,89.0
59,18.229469712500002,19.083946954166667,54.0,81.0
60,18.677230712500002,19.11752902916667,63.0,93.0
61,15.990664712500001,19.285439404166667,47.0,104.0
62,19.1249917125,19.492528866666667,59.0,85.0
63,19.5727527125,19.8867164625,59.0,87.0
64,19.5727527125,20.1451433125,66.0,83.0
65,19.5727527125,20.169487870833336,63.0,80.0
66,19.5727527125,20.399824845833336,47.0,93.0
67,20.0215478625,20.563305770833335,59.0,81.0
68,20.929206062500004,21.205068062500004,63.0,76.0
69,20.4709858625,21.231887979166668,66.0,82.0
70,20.929206062500004,23.16955077291667,59.0,52.0
71,21.388976062500003,23.17742478125,63.0,82.0
72,21.388976062500003,23.179393283333333,66.0,73.0
73,21.388976062500003,23.20104680625,71.0,86.0
74,23.260101868750002,24.030976414583332,64.0,91.0
75,23.71567804375,24.30896136875,47.0,77.0
76,23.260101868750002,24.338812102083335,40.0,88.0
77,24.16343904375,24.47687174375,64.0,88.0
78,23.71567804375,24.53843888125,59.0,79.0
79,24.16343904375,25.118662510416666,68.0,92.0
80,25.05896104375,26.051497927083332,63.0,83.0
81,25.50672204375,26.142915797916665,54.0,80.0
82,25.05896104375,26.226870985416667,47.0,93.0
83,25.95448304375,26.797766260416665,66.0,92.0
84,26.85000504375,27.836944914583334,64.0,91.0
85,26.85000504375,27.971273214583334,49.0,94.0
86,27.29776604375,28.189556702083333,56.0,77.0
87,27.745527043750002,28.234332802083333,61.0,93.0
88,28.19328804375,29.32388456875,64.0,82.0
89,29.53657104375,29.786570935416666,61.0,86.0
90,29.53657104375,30.329481147916667,64.0,93.0
91,30.43209304375,31.127988264583333,61.0,82.0
92,30.43209304375,31.208212110416667,57.0,77.0
93,30.43209304375,31.767913360416667,45.0,89.0
94,31.32761504375,31.825749156249998,61.0,93.0
95,30.87985404375,31.840674522916665,52.0,77.0
96,31.77537604375,31.963808797916666,57.0,79.0
97,31.32761504375,31.997390872916668,64.0,94.0
98,32.22313704375,33.18209185208333,63.0,82.0
99,32.22313704375,33.187688864583336,59.0,83.0
100,32.67089804375,33.21007691458333,54.0,80.0
101,32.22313704375,33.34813655625,47.0,87.0
102,33.11865904375,33.48433052708333,66.0,87.0
103,34.01418104375,34.62612107708333,59.0,78.0
104,34.01418104375,34.995523902083335,64.0,88.0
105,34.46194204375,35.16343427708333,47.0,76.0
106,34.90970304375,35.540299785416664,59.0,84.0
107,35.35746404375,35.58134454375,64.0,89.0
108,35.80522504375,36.31082183958333,64.0,86.0
109,35.80522504375,36.35373226875,59.0,78.0
110,35.80522504375,36.46567251875,68.0,78.0
111,36.25298604375,36.89850815208334,47.0,55.0
112,34.01418104375,37.029105110416666,40.0,93.0
113,36.70074704375,37.08134389375,64.0,89.0
114,37.14850804375,37.67835856041667,59.0,67.0
115,37.59626904375,38.08320913125,64.0,92.0
116,37.59626904375,38.48432836041667,68.0,81.0
117,38.04403004375,38.62238800208333,47.0,71.0
118,38.49179104375,38.685820810416665,59.0,90.0
119,37.59626904375,38.706343189583336,40.0,94.0
120,38.49179104375,38.90596996875,64.0,93.0
121,39.38731304375,40.03096948125,63.0,85.0
122,38.93955204375,40.35559620625,59.0,88.0
123,39.83507404375,40.484327422916664,54.0,79.0
124,40.28283504375,40.605539422916664,66.0,86.0
125,40.28283504375,40.626372735416666,63.0,89.0
126,39.38731304375,40.677509047916665,47.0,92.0
127,40.736221110416665,40.918039110416665,59.0,74.0
128,41.19076611041666,41.86121998541666,61.0,84.0
129,41.19076611041666,41.88394723541666,64.0,94.0
130,42.55440111041666,42.84796142291666,64.0,89.0
131,42.09985611041667,42.870688672916664,61.0,94.0
132,43.008946110416666,43.116900547916664,61.0,64.0
133,41.645311110416664,43.33470336041666,56.0,78.0
134,43.008946110416666,43.44455173541667,64.0,81.0
135,43.46349111041666,44.00326329791666,56.0,56.0
136,41.19076611041666,44.00894511041666,49.0,96.0
137,43.918036110416665,44.36689929791666,61.0,93.0
138,44.37258111041666,44.719171672916666,44.0,83.0
139,43.918036110416665,44.885838172916664,64.0,94.0
140,44.827126110416664,45.514625422916666,61.0,88.0
141,44.827126110416664,45.77220092291667,57.0,86.0
142,44.827126110416664,46.374473047916666,45.0,86.0
143,45.73621611041666,46.38204879791667,61.0,81.0
144,45.73621611041666,46.45780629791666,64.0,93.0
145,45.28167111041667,46.49947292291667,52.0,81.0
146,46.64530611041666,47.330911485416664,63.0,81.0
147,46.64530611041666,47.590380922916665,59.0,84.0
148,47.099851110416665,47.637729360416664,54.0,81.0
149,46.64530611041666,47.768411047916665,47.0,94.0
150,47.55439611041666,48.196440922916665,63.0,93.0
151,47.55439611041666,48.440758860416665,66.0,94.0
152,48.46348611041667,49.16234904791666,64.0,89.0
153,48.46348611041667,49.169924797916664,59.0,86.0
154,48.91803111041666,49.531666860416664,47.0,68.0
155,49.37257611041666,49.857424110416666,59.0,83.0
156,49.37257611041666,49.88962104791666,64.0,79.0
157,49.82712111041666,50.45008415208333,47.0,70.0
158,50.281666110416666,50.74519672499999,64.0,89.0
159,50.281666110416666,50.812865849999994,68.0,84.0
160,50.733918537499996,51.41812857916666,47.0,60.0
161,48.46348611041667,51.989556745833326,40.0,94.0
162,51.185046037499994,52.03466949583333,64.0,97.0
163,51.185046037499994,52.05346647499999,68.0,95.0
164,51.63617353749999,52.113616808333326,59.0,94.0
165,52.0873010375,52.113616808333326,59.0,91.0
166,52.0873010375,52.61985884999999,64.0,94.0
167,52.5359036625,53.06388850833333,59.0,86.0
168,52.0873010375,53.220604858333324,40.0,94.0
169,52.9836646625,53.37172419583333,64.0,97.0
170,52.9836646625,53.53963457083333,68.0,95.0
171,53.4314256625,53.71873897083333,59.0,93.0
172,53.8791866625,54.10120149166666,59.0,94.0
173,53.8791866625,54.42769388749999,63.0,93.0
174,54.3269476625,54.629186337499995,59.0,88.0
175,54.7747086625,54.94635037916666,59.0,95.0
176,53.8791866625,55.15530551249999,47.0,94.0
177,54.7747086625,55.20567862499999,66.0,95.0
178,54.7747086625,55.239260699999996,63.0,99.0
179,55.222469662499996,55.72620078749999,59.0,82.0
180,55.670230662499996,55.97620067916666,61.0,87.0
181,55.670230662499996,56.459409425,64.0,94.0
182,56.565752662499996,57.03963305416666,61.0,96.0
183,56.565752662499996,57.06015543333333,64.0,98.0
184,55.670230662499996,57.29522995833333,37.0,92.0
185,57.013513662499996,57.530304483333325,56.0,84.0
186,57.461274662499996,58.01351322916666,61.0,95.0
187,57.461274662499996,58.015378899999995,64.0,96.0
188,57.909035662499996,58.42962796041666,56.0,85.0
189,58.356796662499995,58.67022929374999,44.0,87.0
190,58.80744724166666,58.88075546041666,56.0,74.0
191,58.356796662499995,58.88451485624999,61.0,88.0
192,58.356796662499995,58.95782307499999,64.0,95.0
193,59.25857474166666,59.75105559583333,61.0,84.0
194,59.25857474166666,59.90519082499999,64.0,93.0
195,59.25857474166666,60.089401220833324,57.0,84.0
196,59.25857474166666,60.48225808541666,45.0,94.0
197,59.70970224166666,60.604438449999996,52.0,80.0
198,60.16082974166666,60.604438449999996,61.0,102.0
199,60.16082974166666,60.74165639791666,64.0,95.0
200,60.61195724166666,60.74729549166666,57.0,82.0
201,61.06308474166666,61.596918949999996,63.0,89.0
202,61.06308474166666,61.76797146041666,59.0,93.0
203,61.51421224166666,62.07248252291666,54.0,83.0
204,61.06308474166666,62.26421171041666,47.0,93.0
205,61.96533974166666,62.49729425208333,63.0,102.0
206,61.96533974166666,62.589399449999995,66.0,94.0
207,62.41646724166666,62.77736924166666,59.0,95.0
208,62.86759474166666,63.10255698124999,59.0,89.0
209,62.86759474166666,63.78112792916666,64.0,93.0
210,63.76984974166666,64.14766902291666,56.0,88.0
211,63.76984974166666,64.29992455416667,59.0,88.0
212,64.22097724166666,64.7435332625,52.0,81.0
213,64.67210474166666,65.01233006458332,56.0,85.0
214,64.67210474166666,65.23225472083332,59.0,88.0
215,65.12323224166666,65.63826947083332,52.0,77.0
216,63.31872224166666,65.98225418958333,47.0,72.0
217,62.86759474166666,66.08187817916667,40.0,95.0
218,65.57435974166665,66.1194721375,56.0,97.0
219,65.57435974166665,66.27172766874999,64.0,96.0
220,65.57435974166665,66.28112615833332,59.0,94.0
221,66.47661474166667,67.0217271375,56.0,91.0
222,66.47661474166667,67.07435867916666,59.0,91.0
223,66.02548724166665,67.36759155416667,52.0,99.0
224,66.92774224166666,67.59127560625,47.0,72.0
225,66.47661474166667,67.61383198124999,40.0,95.0
226,67.37886974166666,67.83563633541667,56.0,95.0
227,67.37886974166666,67.83939573125,59.0,94.0
228,67.82999724166666,67.9578167,52.0,96.0
229,67.37886974166666,68.01232793958333,64.0,94.0
230,68.28112474166666,68.87698898125,63.0,90.0
231,68.28112474166666,68.94277840833333,59.0,93.0
232,68.73225224166666,69.29804131458333,54.0,83.0
233,69.18337974166666,69.37886832499998,59.0,94.0
234,68.28112474166666,69.47285322083333,47.0,96.0
235,69.18337974166666,69.57811630416666,66.0,93.0
236,69.18337974166666,69.59691328333332,63.0,99.0
237,69.63450724166665,70.07435655416666,59.0,93.0
238,70.08563474166667,70.64930579374999,61.0,95.0
239,70.08563474166667,70.77244006874999,64.0,94.0
240,70.08563474166667,71.21833539791666,49.0,100.0
241,70.98139520208332,71.24072344791666,61.0,107.0
242,70.98139520208332,71.51124571874999,64.0,96.0
243,70.53363420208332,71.55042480624999,56.0,77.0
244,71.42915620208332,71.76311128124999,61.0,95.0
245,71.87691720208332,72.53549900624999,61.0,95.0
246,71.87691720208332,72.56534973958333,64.0,96.0
247,72.32467820208333,72.81908097291667,49.0,79.0
248,72.77243920208332,73.26497630208333,61.0,107.0
249,72.77243920208332,73.55788662291666,64.0,99.0
250,73.22020020208333,73.61572241875,44.0,93.0
251,73.66796120208333,74.33960270208333,61.0,87.0
252,73.66796120208333,74.36199075208333,64.0,95.0
253,73.66796120208333,74.40676685208332,57.0,85.0
254,74.56348320208333,74.77243833541667,57.0,98.0
255,74.11572220208333,74.87878157291667,52.0,81.0
256,73.66796120208333,74.88810992708332,45.0,96.0
257,74.56348320208333,75.03736359374999,64.0,100.0
258,74.56348320208333,75.04669194791666,61.0,104.0
259,75.01124420208333,75.15490085625,57.0,93.0
260,75.45900520208333,76.00564675624999,59.0,95.0
261,75.45900520208333,76.01684078125,63.0,94.0
262,75.90676620208333,76.50004952708332,54.0,77.0
263,76.35452720208333,76.54295995624999,59.0,97.0
264,75.45900520208333,76.61572111874999,47.0,97.0
265,76.35452720208333,76.77990015208333,63.0,104.0
266,76.35452720208333,76.82094491041666,66.0,95.0
267,76.80228820208333,77.20527310208332,59.0,102.0
268,77.25004920208333,77.34333274375,59.0,75.0
269,77.25004920208333,77.77057136458333,68.0,88.0
270,77.25004920208333,77.78363106041667,64.0,94.0
271,77.69781020208333,78.21086968124999,59.0,83.0
272,78.14557120208333,78.32280993124999,64.0,97.0
273,78.14557120208333,78.68475007291666,68.0,97.0
274,78.59333220208333,79.10825735208333,59.0,82.0
275,79.04109320208333,79.56059748124999,68.0,99.0
276,79.04109320208333,79.60226410624999,64.0,96.0
277,79.49430966874999,79.69696098124999,59.0,76.0
278,79.94885466874999,80.18938473124999,59.0,100.0
279,77.25004920208333,80.33521791874999,40.0,97.0
280,80.17612716874999,80.38446029375,47.0,96.0
281,79.94885466874999,80.39203604375,68.0,109.0
282,79.94885466874999,80.43180873124999,64.0,110.0
283,80.40339966875,80.71021754374999,59.0,104.0
284,80.85794466875,81.37921905416665,64.0,96.0
285,80.85794466875,81.45440697083332,68.0,93.0
286,80.85794466875,82.127338825,37.0,94.0
287,81.76079773125,82.15741399166666,64.0,104.0
288,81.30967023125,82.16681248124999,44.0,73.0
289,82.21192523124999,82.27395526249998,61.0,94.0
290,81.76079773125,82.28899284583332,68.0,99.0
291,82.66305273124999,83.33222518958333,63.0,91.0
292,82.66305273124999,83.33410488749999,56.0,99.0
293,82.66305273124999,83.70440537708332,44.0,100.0
294,83.56530773124999,83.83598423125,56.0,94.0
295,83.56530773124999,83.85666090833332,63.0,95.0
296,83.11418023124999,83.92245033541666,51.0,77.0
297,84.01643523124999,84.29463052291665,44.0,104.0
298,84.46756273124998,85.09538183541666,61.0,87.0
299,84.46756273124998,85.09726153333332,64.0,94.0
300,84.46756273124998,85.21944189791665,57.0,88.0
301,84.91869023124998,85.73071973124999,52.0,79.0
302,84.46756273124998,85.73823852291666,45.0,94.0
303,85.36981773124998,85.85853918958333,64.0,99.0
304,85.36981773124998,85.86793767916666,61.0,104.0
305,85.82094523125,85.96380227291665,57.0,95.0
306,86.27207273124999,86.86793697083333,63.0,91.0
307,86.27207273124999,86.92432790833332,59.0,94.0
308,86.27207273124999,87.36605691874999,47.0,94.0
309,86.72320023124999,87.38673359583332,54.0,81.0
310,87.17432773124999,87.53522973124998,63.0,98.0
311,87.17432773124999,87.55026731458332,59.0,98.0
312,87.17432773124999,87.61229734583333,66.0,93.0
313,87.62545523124999,87.77959046041666,47.0,97.0
314,88.07658273124999,88.63485301249999,68.0,90.0
315,88.07658273124999,88.65740938749998,64.0,98.0
316,88.07658273124999,88.83598068958332,61.0,90.0
317,88.07658273124999,89.12545416874998,37.0,97.0
318,88.52771023124998,89.16868722083332,44.0,77.0
319,88.97883773124998,89.19688268958332,61.0,94.0
320,88.97883773124998,89.38297278333332,64.0,107.0
321,88.97883773124998,89.51079224166665,68.0,99.0
322,89.42996523124998,89.52582982499999,61.0,94.0
323,89.88109273124999,90.47507727291665,63.0,91.0
324,89.88109273124999,90.49199455416665,56.0,93.0
325,89.88109273124999,90.97695661666666,44.0,98.0
326,90.78334773124999,91.00703178333332,56.0,95.0
327,90.78334773124999,91.03898664791666,63.0,96.0
328,90.33222023124999,91.14612942916665,51.0,77.0
329,91.23447523124999,91.49575324166665,44.0,100.0
330,91.68560273124999,92.31342183541665,61.0,89.0
331,91.68560273124999,92.40552703333333,64.0,94.0
332,91.68560273124999,92.42996310624999,57.0,89.0
333,91.68560273124999,92.79086510624998,45.0,94.0
334,92.58785773124998,92.79274480416666,61.0,98.0
335,92.58785773124998,92.79274480416666,64.0,99.0
336,92.58785773124998,92.82094027291666,57.0,94.0
337,92.13673023124998,92.83033876249999,52.0,83.0
338,93.03898523125,93.23635351249999,45.0,94.0
339,93.49011273124998,94.03299482083331,59.0,94.0
340,93.49011273124998,94.05351719999999,63.0,92.0
341,93.49011273124998,94.18784549999998,56.0,90.0
342,93.71567648124999,94.51620356666665,51.0,82.0
343,93.49011273124998,94.59269607083331,44.0,94.0
344,94.38747227916664,94.65986022083331,59.0,100.0
345,94.38747227916664,94.73821839583331,56.0,98.0
346,94.38747227916664,94.78299449583332,63.0,95.0
347,94.83523327916664,95.08150182916665,44.0,104.0
348,95.28299427916664,95.75687467083331,57.0,91.0
349,95.28299427916664,95.77553137916665,61.0,89.0
350,95.28299427916664,95.82963583333331,54.0,89.0
351,95.28299427916664,96.41359080416665,42.0,96.0
352,95.73075527916664,96.50500867499998,49.0,77.0
353,96.17851627916664,96.56284447083331,54.0,102.0
354,96.17851627916664,96.56471014166665,57.0,102.0
355,96.17851627916664,96.66918770833331,61.0,98.0
356,96.62627727916664,96.92851595416666,54.0,95.0
357,97.07403827916664,97.42291872499999,61.0,87.0
358,97.07403827916664,97.45090378749998,57.0,94.0
359,97.07403827916664,97.51620226666665,54.0,98.0
360,97.07403827916664,97.56284403749999,66.0,90.0
361,97.96956027916664,98.26433627083331,54.0,104.0
362,97.96956027916664,98.30351535833331,66.0,94.0
363,97.52179927916664,98.42291829166665,49.0,83.0
364,97.07403827916664,98.42851530416665,42.0,99.0
365,98.41732127916664,98.52739585833332,56.0,93.0
366,98.41732127916664,98.54791823749999,68.0,88.0
367,98.64120177916665,98.74567934583331,69.0,92.0
368,98.64120177916665,98.75314202916665,57.0,91.0
369,98.86508227916664,99.21582839583331,59.0,96.0
370,98.86508227916664,99.35948504999999,71.0,95.0
371,99.31284327916664,99.99381313333332,54.0,88.0
372,99.76060427916664,100.07217130833331,59.0,100.0
373,99.76060427916664,100.22702198749998,63.0,109.0
374,99.76060427916664,100.25314137916665,66.0,102.0
375,98.86508227916664,100.47702187916664,47.0,99.0
376,100.20836527916666,100.51060395416665,54.0,83.0
377,100.43224577916665,100.57590243333331,59.0,95.0
378,100.65612627916664,101.10948429166665,63.0,107.0
379,100.65612627916664,101.11881264583332,59.0,104.0
380,100.65612627916664,101.15985740416664,66.0,98.0
381,100.65612627916664,101.16545441666665,71.0,95.0
382,101.32776777916665,101.39120058749998,71.0,92.0
383,101.32776777916665,101.42851400416664,59.0,98.0
384,101.10388727916666,101.49754382499998,54.0,87.0
385,100.65612627916664,101.50687217916665,47.0,102.0
386,101.55164827916664,101.66239615833332,59.0,107.0
387,101.55164827916664,101.69623072083333,71.0,98.0
388,102.00262148124999,102.08156879374998,61.0,99.0
389,102.00262148124999,102.10412516874999,73.0,89.0
390,101.55164827916664,102.28457616875,54.0,99.0
391,102.22818523124998,102.31465133541666,63.0,98.0
392,102.22818523124998,102.32780922083332,75.0,86.0
393,101.55164827916664,102.34472650208332,47.0,94.0
394,102.45374898124999,102.70186910624999,59.0,95.0
395,102.45374898124999,102.94435013749998,64.0,95.0
396,102.45374898124999,102.96878621041665,68.0,90.0
397,102.90487648124999,103.18495147083333,59.0,97.0
398,102.45374898124999,103.51953769999999,40.0,97.0
399,103.35600398124998,103.58344742916665,59.0,99.0
400,103.35600398124998,103.83156755416665,64.0,104.0
401,103.35600398124998,103.89735698124998,68.0,98.0
402,103.80713148124998,104.07028918958332,59.0,94.0
403,104.03269523124999,104.13795831458332,64.0,92.0
404,104.25825898124998,104.62292037708332,59.0,95.0
405,104.25825898124998,104.76765711666665,63.0,104.0
406,105.16051398124999,105.37291984583332,59.0,98.0
407,104.70938648125,105.44246866874998,54.0,84.0
408,104.25825898124998,105.46502504374999,47.0,95.0
409,105.16051398124999,105.66051362708332,63.0,107.0
410,105.16051398124999,105.68307000208333,66.0,97.0
411,105.61164148124999,105.88231798124998,59.0,95.0
412,106.06276898124999,106.38043792916665,56.0,88.0
413,106.06276898124999,106.63983624166666,61.0,86.0
414,106.06276898124999,106.77517449166665,64.0,97.0
415,106.51389648124999,106.82592633541665,56.0,93.0
416,106.06276898124999,107.04209159583331,37.0,95.0
417,106.96502398124998,107.17367044999999,56.0,97.0
418,106.96502398124998,107.37479812708332,61.0,100.0
419,106.96502398124998,107.48382060624999,64.0,98.0
420,107.41615148124998,107.80524894999999,56.0,98.0
421,107.86727898124998,108.32968466874999,56.0,93.0
422,107.86727898124998,108.53269204374999,59.0,93.0
423,107.86727898124998,108.57028600208332,63.0,93.0
424,108.54397023124999,108.66990999166666,56.0,88.0
425,108.31840648124998,108.86163917916666,51.0,84.0
426,108.76953398124999,109.00449622083332,56.0,98.0
427,108.76953398124999,109.01013531458332,59.0,104.0
428,107.86727898124998,109.03645108541666,44.0,100.0
429,108.76953398124999,109.05900746041665,63.0,98.0
430,108.99509773124998,109.16990963749998,51.0,95.0
431,109.22066148124999,109.46314251249999,44.0,94.0
432,109.67178898124999,110.22442016874999,61.0,87.0
433,109.67178898124999,110.24697654374998,64.0,93.0
434,109.67178898124999,110.31652536666665,57.0,87.0
435,110.12291648124999,110.70562283541665,52.0,87.0
436,110.57404398124999,110.97066024166665,57.0,102.0
437,110.57404398124999,111.00261510624999,64.0,104.0
438,110.57404398124999,111.01201359583332,61.0,109.0
439,109.67178898124999,111.05148725208332,45.0,95.0
440,111.02517148124998,111.14547214791665,52.0,96.0
441,111.47629898124998,111.88983252291665,56.0,98.0
442,111.47629898124998,111.96690013749999,63.0,93.0
443,111.47629898124998,111.97065953333332,59.0,98.0
444,112.15299023124999,112.26765180416665,56.0,95.0
445,111.92742648124998,112.49133585624999,51.0,75.0
446,111.47629898124998,112.61727561666666,44.0,104.0
447,112.37855398124998,112.76201235624998,59.0,107.0
448,112.37855398124998,112.77517024166666,63.0,93.0
449,112.37855398124998,112.78456873124999,56.0,102.0
450,112.37855398124998,112.85223785624999,68.0,90.0
451,112.82968148124999,112.94622275208332,51.0,95.0
452,113.28080898124999,113.66802675208332,57.0,94.0
453,113.28080898124999,113.80712439791665,64.0,99.0
454,113.28080898124999,113.81464318958332,61.0,95.0
455,113.28080898124999,113.91990627291665,45.0,96.0
456,113.73193648124999,113.98381600208332,52.0,83.0
457,114.18306398124999,114.61163510624999,58.0,94.0
458,114.18306398124999,114.62479299166665,61.0,94.0
459,114.18306398124999,114.62855238749998,46.0,110.0
460,115.08531898124998,115.29208575208332,59.0,99.0
461,115.08531898124998,115.38607064791665,63.0,99.0
462,115.08531898124998,115.41614581458332,66.0,94.0
463,115.53644648124998,115.84283724166666,59.0,94.0
464,115.08531898124998,116.03832582499999,47.0,97.0
465,115.98757398124998,116.23874440208333,59.0,107.0
466,115.98757398124998,116.26681324583332,63.0,119.0
467,115.98757398124998,116.28365455208332,66.0,100.0
468,115.98757398124998,116.29113957708333,71.0,94.0
469,116.21254681458332,116.50072027708332,54.0,95.0
470,116.43709756458333,116.56434298958332,59.0,98.0
471,116.66164831458333,116.72527102708332,66.0,81.0
472,116.66164831458333,116.76643866458332,59.0,82.0
473,116.66164831458333,116.91426790833333,63.0,107.0
474,116.88619906458332,117.13320488958333,59.0,95.0
475,116.88619906458332,117.37459694583332,64.0,95.0
476,116.88619906458332,117.39892327708333,68.0,90.0
477,117.33530056458332,117.61411774583333,59.0,97.0
478,116.88619906458332,117.94720135833333,40.0,97.0
479,117.78440206458332,118.01082407083332,59.0,99.0
480,117.78440206458332,118.25782989583332,64.0,104.0
481,117.78440206458332,118.32332386458333,68.0,98.0
482,118.23350356458333,118.49547943958332,59.0,94.0
483,118.45805431458332,118.56284466458332,64.0,92.0
484,118.68260506458333,119.04562877708332,59.0,95.0
485,118.68260506458333,119.18971550833332,63.0,104.0
486,119.58080806458332,119.79226002083333,59.0,98.0
487,119.13170656458333,119.86149650208333,54.0,84.0
488,118.68260506458333,119.88395157708332,47.0,95.0
489,119.58080806458332,120.07856222708332,63.0,107.0
490,119.58080806458332,120.10101730208332,66.0,97.0
491,120.02990956458332,120.29937046458332,59.0,95.0
492,120.47901106458332,120.79525337083332,56.0,88.0
493,120.47901106458332,121.05348673333333,61.0,86.0
494,120.47901106458332,121.18821718333332,64.0,97.0
495,120.92811256458333,121.23874110208332,56.0,93.0
496,120.47901106458332,121.45393557083332,37.0,95.0
497,121.37721406458333,121.58492350833332,56.0,97.0
498,121.37721406458333,121.78514792708333,61.0,100.0
499,121.37721406458333,121.89368078958333,64.0,98.0
500,121.82631556458333,122.21366560833333,56.0,98.0
501,122.27541706458332,122.73574610208333,56.0,93.0
502,122.27541706458332,122.93784177708332,59.0,93.0
503,122.27541706458332,122.97526690208332,63.0,93.0
504,122.94906931458333,123.07444348333333,56.0,88.0
505,122.72451856458332,123.26531162083333,51.0,84.0
506,123.17362006458333,123.40752709583333,56.0,98.0
507,123.17362006458333,123.41314086458333,59.0,104.0
508,122.27541706458332,123.43933845208332,44.0,100.0
509,123.17362006458333,123.46179352708333,63.0,98.0
510,123.39817081458332,123.57219764583333,51.0,95.0
511,123.62272156458333,123.86411362083332,44.0,94.0
512,124.07182306458333,124.62197240208333,61.0,87.0
513,124.07182306458333,124.64442747708333,64.0,93.0
514,124.07182306458333,124.71366395833333,57.0,87.0
515,124.52092456458332,125.10101400208333,52.0,87.0
516,124.97002606458332,125.36486113333332,57.0,102.0
517,124.97002606458332,125.39667248958332,64.0,104.0
518,124.97002606458332,125.40602877083333,61.0,109.0
519,124.07182306458333,125.44532515208333,45.0,95.0
520,125.41912756458332,125.53888796458332,52.0,96.0
521,125.86822906458332,126.27990543958333,56.0,98.0
522,125.86822906458332,126.35662694583333,63.0,93.0
523,125.86822906458332,126.36036945833332,59.0,98.0
524,126.54188131458332,126.65602794583333,56.0,95.0
525,126.31733056458333,126.87870743958332,51.0,75.0
526,125.86822906458332,127.00408160833332,44.0,104.0
527,126.76643206458333,127.14816833958332,59.0,107.0
528,126.76643206458333,127.16126713333333,63.0,93.0
529,126.76643206458333,127.17062341458333,56.0,102.0
530,126.76643206458333,127.23798863958332,68.0,90.0
531,127.21553356458332,127.33155145208332,51.0,95.0
532,127.66463506458332,128.0501138520833,57.0,94.0
533,127.66463506458332,128.18858681458332,64.0,99.0
534,127.66463506458332,128.19607183958334,61.0,95.0
535,127.66463506458332,128.3008621895833,45.0,96.0
536,128.11373656458332,128.36448490208332,52.0,83.0
537,128.56283806458333,128.98948448958333,58.0,94.0
538,128.56283806458333,129.00258328333334,61.0,94.0
539,128.56283806458333,129.00632579583333,46.0,110.0
540,129.46104106458333,129.66687925208333,59.0,99.0
541,129.46104106458333,129.76044206458332,63.0,99.0
542,129.46104106458333,129.79038216458332,66.0,94.0
543,129.91014256458334,130.21515733333334,59.0,94.0
544,129.46104106458333,130.40976798333332,47.0,97.0
545,130.35924406458332,130.60999240208332,59.0,107.0
546,130.35924406458332,130.6380612458333,63.0,119.0
547,130.35924406458332,130.6549025520833,66.0,100.0
548,130.35924406458332,130.66238757708334,71.0,94.0
549,130.5837948145833,130.8719682770833,54.0,95.0
550,130.80834556458333,130.93559098958332,59.0,98.0
551,131.03289631458333,131.09651902708333,66.0,81.0
552,131.03289631458333,131.13768666458333,59.0,82.0
553,131.03289631458333,131.28551590833334,63.0,107.0
554,131.25744706458332,131.51087830833333,59.0,94.0
555,131.25744706458332,131.73678180833332,64.0,95.0
556,131.70854387083332,131.9645678375,59.0,93.0
557,132.16035087083333,132.6968716833333,59.0,99.0
558,132.61215787083333,132.88324207083332,71.0,99.0
559,131.25744706458332,132.92089265416666,40.0,100.0
560,132.16035087083333,132.92842277083332,64.0,100.0
561,133.06396487083333,133.32940148333333,59.0,84.0
562,133.06396487083333,133.38775988749998,64.0,93.0
563,133.06396487083333,133.44988335,69.0,93.0
564,133.51577187083333,133.55342245416665,64.0,75.0
565,133.51577187083333,133.91110299583332,68.0,104.0
566,134.4193858708333,134.50409968333332,59.0,78.0
567,133.96757887083334,134.53233762083332,66.0,99.0
568,134.4193858708333,134.839189875,64.0,98.0
569,133.06396487083333,134.89566574999998,40.0,95.0
570,134.8711928708333,134.89566574999998,40.0,97.0
571,134.8711928708333,135.1592198333333,59.0,94.0
572,135.54890337083333,136.01577060416665,47.0,88.0
573,134.8711928708333,136.03271336666666,64.0,98.0
574,135.77480687083332,136.19837593333332,52.0,98.0
575,136.00071037083333,136.25108674999998,59.0,94.0
576,136.22661387083332,136.34709573749998,64.0,100.0
577,136.45251737083333,137.15658327916665,54.0,89.0
578,136.45251737083333,137.21494168333334,50.0,94.0
579,137.13022787083332,137.30906814166667,57.0,89.0
580,136.90432437083334,137.51991140833331,45.0,82.0
581,137.3561313708333,137.821116075,50.0,94.0
582,137.3561313708333,137.86441424583333,54.0,94.0
583,136.45251737083333,137.90959494583333,38.0,99.0
584,137.3561313708333,137.91900759166666,57.0,93.0
585,137.8079383708333,137.94912805833332,45.0,96.0
586,137.3561313708333,137.979248525,62.0,95.0
587,138.03384187083333,138.14302856249998,50.0,99.0
588,138.48564887083333,139.15582925416666,52.0,97.0
589,138.48564887083333,139.20854007083332,56.0,96.0
590,138.48564887083333,139.470211625,64.0,95.0
591,139.16335937083332,139.78647652499998,47.0,83.0
592,138.48564887083333,139.88060298333332,40.0,98.0
593,139.38926287083333,139.90131080416666,52.0,95.0
594,139.61516637083332,139.90507586249998,56.0,78.0
595,139.84106987083334,139.97661197083332,59.0,94.0
596,140.06697337083332,140.83692779999998,54.0,93.0
597,140.06697337083332,140.83881032916665,50.0,94.0
598,140.7446838708333,140.89528620416667,57.0,89.0
599,140.51878037083333,141.0684788875,45.0,84.0
600,140.97058737083333,141.2699095083333,50.0,102.0
601,140.97058737083333,141.2830872125,54.0,95.0
602,140.97058737083333,141.30756009166666,57.0,94.0
603,140.97058737083333,141.31132515,62.0,96.0
604,141.19649087083332,141.52405094583332,45.0,94.0
605,140.06697337083332,141.52969853333332,38.0,99.0
606,141.42239437083333,141.62759004999998,50.0,99.0
607,141.42239437083333,141.69159604166666,54.0,95.0
608,141.42239437083333,141.7123038625,57.0,96.0
609,141.64829787083332,141.7800749125,38.0,97.0
610,142.10010487083332,142.62344797916666,52.0,93.0
611,142.10010487083332,142.67992385416665,56.0,94.0
612,142.7778153708333,142.8455864208333,52.0,79.0
613,142.10010487083332,142.87947194583333,64.0,96.0
614,143.00371887083332,143.0451345125,64.0,91.0
615,143.00371887083332,143.2522127208333,52.0,109.0
616,143.00371887083332,143.3049235375,56.0,104.0
617,143.00371887083332,143.3256313583333,59.0,97.0
618,143.2296223708333,143.4442306958333,47.0,91.0
619,142.10010487083332,143.4743511625,40.0,97.0
620,143.45552587083333,143.54588727083333,52.0,97.0
621,143.6814293708333,144.23029815416666,54.0,99.0
622,143.6814293708333,144.44394127916667,57.0,95.0
623,144.35773440416668,144.48891877916668,54.0,81.0
624,143.6814293708333,144.53764440416666,50.0,102.0
625,144.13284690416666,144.73629502916666,45.0,87.0
626,144.58262190416667,144.82812409166667,50.0,89.0
627,144.58262190416667,144.82999815416667,54.0,93.0
628,144.58262190416667,144.86560534166668,57.0,97.0
629,144.80750940416667,145.06238190416667,45.0,90.0
630,145.03239690416666,145.21418096666667,50.0,102.0
631,143.6814293708333,145.33224690416668,38.0,100.0
632,145.25728440416665,145.41095752916667,45.0,95.0
633,145.03239690416666,145.57212690416668,62.0,95.0
634,145.70705940416667,146.03689440416667,68.0,94.0
635,145.70705940416667,146.05750909166667,64.0,98.0
636,146.15683440416666,146.43419565416667,47.0,80.0
637,146.15683440416666,146.47917315416666,59.0,96.0
638,146.15683440416666,146.48666940416666,64.0,100.0
639,146.60660940416668,146.86523002916667,47.0,82.0
640,146.83149690416667,147.05263627916668,59.0,97.0
641,146.83149690416667,147.09199159166667,64.0,99.0
642,145.70705940416667,147.09386565416668,40.0,96.0
643,146.83149690416667,147.12197659166668,68.0,100.0
644,147.05638440416666,147.14633940416667,47.0,83.0
645,147.50615940416668,147.77415034166665,64.0,102.0
646,147.50615940416668,147.81163159166667,76.0,97.0
647,147.50615940416668,147.87722377916666,40.0,102.0
648,148.18082190416666,148.39259096666666,42.0,98.0
649,148.18082190416666,148.42070190416666,66.0,95.0
650,148.18082190416666,148.43569440416667,78.0,96.0
651,148.63059690416668,148.73741846666667,44.0,100.0
652,148.63059690416668,148.75990721666668,68.0,95.0
653,148.63059690416668,148.76740346666668,80.0,94.0
654,149.30525940416666,149.87872252916668,57.0,93.0
655,149.30525940416666,149.92557409166668,64.0,94.0
656,149.97992190416667,150.29289034166666,61.0,107.0
657,150.42969690416666,150.58524409166668,57.0,94.0
658,150.42969690416666,150.73704315416666,64.0,99.0
659,150.65458440416666,150.86822752916666,61.0,95.0
660,149.75503440416668,150.98067127916667,52.0,85.0
661,149.30525940416666,150.98629346666667,45.0,95.0
662,150.87947190416668,151.30488409166668,57.0,95.0
663,151.10435940416667,151.40420940416666,61.0,89.0
664,151.10435940416667,151.40420940416666,64.0,97.0
665,151.10435940416667,151.44918690416668,69.0,96.0
666,151.55413440416666,151.65345971666667,57.0,89.0
667,151.32924690416667,151.85585846666666,52.0,85.0
668,151.77902190416665,151.98516877916666,61.0,85.0
669,151.77902190416665,152.02639815416666,64.0,93.0
670,152.22879690416667,152.52677284166666,69.0,93.0
671,151.10435940416667,152.79101565416667,45.0,94.0
672,152.00390940416668,152.79476377916666,52.0,87.0
673,152.67857190416666,153.01965127916668,61.0,91.0
674,152.45368440416667,153.02152534166666,57.0,93.0
675,152.90345940416665,153.56875159166668,64.0,92.0
676,153.57812190416666,153.73929127916668,61.0,91.0
677,153.35323440416667,153.86672752916667,57.0,82.0
678,153.12834690416668,154.12160002916667,52.0,84.0
679,154.02789690416665,154.24341409166666,57.0,90.0
680,154.02789690416665,154.29401377916668,61.0,99.0
681,154.02789690416665,154.32025065416667,64.0,97.0
682,152.90345940416665,154.57324909166667,45.0,95.0
683,154.25278440416668,154.58824159166667,52.0,86.0
684,154.47767190416667,154.60510815416666,57.0,85.0
685,154.70255940416666,154.94618752916668,57.0,87.0
686,154.70255940416666,155.01740190416666,61.0,79.0
687,154.70255940416666,155.13921596666665,69.0,93.0
688,155.15233440416668,155.25165971666667,57.0,90.0
689,154.92744690416666,155.41282909166668,52.0,86.0
690,155.37722190416667,155.65645721666667,57.0,98.0
691,155.37722190416667,155.66582752916668,61.0,100.0
692,155.37722190416667,155.67707190416667,64.0,99.0
693,155.37722190416667,155.67894596666667,69.0,94.0
694,154.70255940416666,155.86822627916666,45.0,95.0
695,155.60210940416667,155.91695190416667,52.0,93.0
696,155.82699690416666,156.00128471666667,57.0,100.0
697,155.82699690416666,156.00690690416667,61.0,107.0
698,155.82699690416666,156.02564752916666,64.0,104.0
699,155.82699690416666,156.12309877916667,69.0,94.0
700,156.05188440416666,156.16245409166666,45.0,94.0
701,156.50165940416667,156.98704159166667,60.0,97.0
702,156.50165940416667,157.15758127916666,67.0,95.0
703,157.17632190416666,157.31875065416668,60.0,99.0
704,157.40120940416668,157.45555721666668,64.0,95.0
705,157.62609690416667,157.65420784166668,64.0,100.0
706,156.95143440416666,157.66545221666667,43.0,90.0
707,157.62609690416667,157.94843565416667,60.0,104.0
708,157.62609690416667,157.96155409166667,67.0,99.0
709,156.50165940416667,158.10210877916666,36.0,93.0
710,157.85098440416667,158.17519721666667,43.0,95.0
711,158.07587190416666,158.17707127916668,60.0,95.0
712,158.07587190416666,158.20705627916666,67.0,93.0
713,158.30075940416666,158.53876534166668,62.0,94.0
714,158.30075940416666,158.58186877916665,66.0,96.0
715,158.75053440416667,158.83486721666668,62.0,95.0
716,158.52564690416668,159.02789565416666,45.0,89.0
717,158.97542190416667,159.30525690416667,62.0,100.0
718,158.97542190416667,159.31462721666668,69.0,99.0
719,158.30075940416666,159.39333784166666,38.0,97.0
720,159.20030940416666,159.41582659166667,45.0,94.0
721,159.42519690416668,159.65945471666666,66.0,107.0
722,159.42519690416668,159.65945471666666,74.0,96.0
723,159.42519690416668,159.66695096666666,69.0,99.0
724,159.42519690416668,159.68756565416666,62.0,97.0
725,160.09985940416666,160.31350252916667,59.0,96.0
726,160.09985940416666,160.57399721666667,63.0,94.0
727,160.09985940416666,160.64521159166668,66.0,90.0
728,160.54963440416668,160.73891471666667,59.0,93.0
729,160.99940940416667,161.25615596666665,59.0,98.0
730,160.99940940416667,161.32362221666668,63.0,97.0
731,160.99940940416667,161.51665065416665,71.0,94.0
732,160.99940940416667,161.52227284166668,66.0,95.0
733,161.44918440416666,161.74341221666668,59.0,91.0
734,161.67407190416668,161.78464159166666,63.0,89.0
735,160.09985940416666,162.87909409166667,47.0,96.0
736,161.22429690416666,162.96904909166668,54.0,87.0
737,161.89895940416667,163.17519596666668,63.0,94.0
738,161.89895940416667,163.20705502916667,59.0,93.0
739,161.89895940416667,163.22017346666667,66.0,89.0
740,163.69805940416666,163.96792440416667,59.0,91.0
741,163.69805940416666,164.23216721666665,64.0,94.0
742,164.14783440416667,164.67819409166668,59.0,86.0
743,163.69805940416666,164.83561534166665,40.0,94.0
744,164.59760940416666,164.98741440416666,64.0,97.0
745,164.59760940416666,165.15608002916667,68.0,95.0
746,165.04738440416668,165.33599002916668,59.0,93.0
747,165.49715940416667,165.72017284166668,59.0,94.0
748,165.49715940416667,166.04813377916668,63.0,93.0
749,165.94693440416665,166.25053252916666,59.0,88.0
750,166.39670940416667,166.56912315416668,59.0,95.0
751,165.49715940416667,166.77901815416666,47.0,94.0
752,166.39670940416667,166.82961784166667,66.0,95.0
753,166.39670940416667,166.86335096666667,63.0,99.0
754,166.84648440416666,167.35248127916668,59.0,82.0
755,167.29625940416668,167.60360565416667,61.0,87.0
756,167.29625940416668,168.08898784166666,64.0,94.0
757,168.19580940416665,168.67182127916666,61.0,96.0
758,168.19580940416665,168.69243596666666,64.0,98.0
759,167.29625940416668,168.92856784166668,37.0,92.0
760,168.64558440416667,169.16469971666666,56.0,84.0
761,169.09535940416666,169.65008190416665,61.0,95.0
762,169.09535940416666,169.65195596666666,64.0,96.0
763,169.54513440416667,170.06799784166668,56.0,85.0
764,169.99490940416666,170.30787784166668,44.0,87.0
765,170.44468440416668,170.51777284166667,56.0,74.0
766,169.99490940416666,170.52152096666666,61.0,88.0
767,169.99490940416666,170.59460940416668,64.0,95.0
768,170.89445940416667,171.38546377916666,61.0,84.0
769,170.89445940416667,171.53913690416667,64.0,93.0
770,170.89445940416667,171.72279502916666,57.0,84.0
771,170.89445940416667,172.11447409166666,45.0,94.0
772,171.34423440416668,172.23628815416666,52.0,80.0
773,171.79400940416667,172.23628815416666,61.0,102.0
774,171.79400940416667,172.37309471666666,64.0,95.0
775,172.24378440416666,172.37871690416668,57.0,82.0
776,172.69355940416668,173.22579315416667,63.0,89.0
777,172.69355940416668,173.39633284166666,59.0,93.0
778,173.14333440416667,173.69993096666667,54.0,83.0
779,172.69355940416668,173.89108534166667,47.0,93.0
780,173.59310940416668,174.12346909166666,63.0,102.0
781,173.59310940416668,174.21529815416667,66.0,94.0
782,174.04288440416667,174.40270440416668,59.0,95.0
783,174.49265940416666,174.72691721666666,59.0,89.0
784,174.49265940416666,175.40345377916668,64.0,93.0
785,175.39220940416666,175.76889596666666,56.0,88.0
786,175.39220940416666,175.92069502916667,59.0,88.0
787,175.84198440416668,176.36297377916668,52.0,81.0
788,176.29175940416667,176.63096471666665,56.0,85.0
789,176.29175940416667,176.85023002916665,59.0,88.0
790,176.74153440416666,177.25502752916668,52.0,77.0
791,174.94243440416668,177.59798096666668,47.0,72.0
792,174.49265940416666,177.69730627916667,40.0,95.0
793,177.19130940416667,177.73478752916668,56.0,97.0
794,177.19130940416667,177.88658659166668,64.0,96.0
795,177.19130940416667,177.89595690416667,59.0,94.0
796,178.09085940416668,178.63433752916666,56.0,91.0
797,178.09085940416668,178.68681127916668,59.0,91.0
798,177.64108440416666,178.97916502916667,52.0,99.0
799,178.54063440416667,179.20217846666668,47.0,72.0
800,178.09085940416668,179.22466721666666,40.0,95.0
801,178.99040940416666,179.44580659166667,56.0,95.0
802,178.99040940416666,179.44955471666668,59.0,94.0
803,179.44018440416667,179.56762065416666,52.0,96.0
804,178.99040940416666,179.62196846666666,64.0,94.0
805,179.88995940416666,180.48403721666668,63.0,90.0
806,179.88995940416666,180.54962940416667,59.0,93.0
807,180.33973440416668,180.90382721666668,54.0,83.0
808,180.78950940416667,180.98441190416668,59.0,94.0
809,179.88995940416666,181.07811502916667,47.0,96.0
810,180.78950940416667,181.18306252916668,66.0,93.0
811,180.78950940416667,181.20180315416667,63.0,99.0
812,181.23928440416665,181.67781502916665,59.0,93.0
813,181.68905940416667,182.25502627916666,61.0,95.0
814,181.68905940416667,182.37871440416666,64.0,94.0
815,181.68905940416667,182.82661534166667,49.0,100.0
816,182.58860940416668,182.84910409166667,61.0,107.0
817,182.58860940416668,183.12084315416666,64.0,96.0
818,182.13883440416666,183.16019846666666,56.0,77.0
819,183.03838440416666,183.37384159166666,61.0,95.0
820,183.48815940416665,184.14970346666667,61.0,95.0
821,183.48815940416665,184.17968846666668,64.0,96.0
822,183.93793440416667,184.43456096666665,49.0,79.0
823,184.38770940416669,184.88246190416666,61.0,107.0
824,184.38770940416669,185.17668971666666,64.0,99.0
825,184.83748440416667,185.23478565416667,44.0,93.0
826,185.28725940416666,185.96192190416667,61.0,87.0
827,185.28725940416666,185.98441065416665,64.0,95.0
828,185.28725940416666,186.02938815416667,57.0,85.0
829,186.18680940416667,186.39670440416666,57.0,98.0
830,185.73703440416668,186.50352596666667,52.0,81.0
831,185.28725940416666,186.51289627916668,45.0,96.0
832,186.18680940416667,186.66282127916668,64.0,100.0
833,186.18680940416667,186.67219159166666,61.0,104.0
834,186.63658440416668,186.78088721666666,57.0,93.0
835,187.08635940416667,187.63545971666667,59.0,95.0
836,187.08635940416667,187.64670409166666,63.0,94.0
837,187.53613440416666,188.13208627916669,54.0,77.0
838,187.98590940416668,188.17518971666667,59.0,97.0
839,187.08635940416667,188.24827815416666,47.0,97.0
840,187.98590940416668,188.41319565416666,63.0,104.0
841,187.98590940416668,188.45442502916666,66.0,95.0
842,188.43568440416666,188.84048190416667,59.0,102.0
843,188.88545940416668,188.97916252916667,59.0,75.0
844,188.88545940416668,189.40832284166666,68.0,88.0
845,188.88545940416668,189.4214412791667,64.0,94.0
846,189.33523440416667,189.85060159166667,59.0,83.0
847,189.78500940416666,189.96304534166666,64.0,97.0
848,189.78500940416666,190.32661346666669,68.0,97.0
849,190.23478440416667,190.7520256541667,59.0,82.0
850,190.68455940416666,191.19992659166667,68.0,99.0
851,190.68455940416666,191.24115596666667,64.0,96.0
852,191.13433440416668,191.33485909166666,59.0,76.0
853,191.58410940416667,191.82211534166666,59.0,100.0
854,188.88545940416668,191.96641815416666,40.0,97.0
855,191.80899690416666,192.01514377916666,47.0,96.0
856,191.58410940416667,192.02264002916667,68.0,109.0
857,191.58410940416667,192.06199534166666,64.0,110.0
858,192.03388440416666,192.33748252916666,59.0,104.0
859,192.48365940416667,193.00277471666666,64.0,96.0
860,192.48365940416667,193.07773721666666,68.0,93.0
861,192.48365940416667,193.74865159166666,37.0,94.0
862,193.38320940416668,193.77863659166667,64.0,104.0
863,192.93343440416666,193.78800690416668,44.0,73.0
864,193.83298440416667,193.89482846666667,61.0,94.0
865,193.38320940416668,193.90982096666667,68.0,99.0
866,194.28275940416665,194.94992565416666,63.0,91.0
867,194.28275940416665,194.95179971666667,56.0,99.0
868,194.28275940416665,195.32099002916667,44.0,100.0
869,195.18230940416666,195.45217440416667,56.0,94.0
870,195.18230940416666,195.47278909166667,63.0,95.0
871,194.73253440416667,195.53838127916669,51.0,77.0
872,195.63208440416668,195.90944565416666,44.0,104.0
873,196.08185940416666,196.70779627916667,61.0,87.0
874,196.08185940416666,196.70967034166668,64.0,94.0
875,196.08185940416666,196.83148440416667,57.0,88.0
876,196.53163440416665,197.34122940416665,52.0,79.0
877,196.08185940416666,197.34872565416669,45.0,94.0
878,196.98140940416667,197.46866565416667,64.0,99.0
879,196.98140940416667,197.47803596666665,61.0,104.0
880,197.4311844041667,197.57361315416668,57.0,95.0
881,197.88095940416667,198.47503721666666,63.0,91.0
882,197.88095940416667,198.53125909166667,59.0,94.0
883,197.88095940416667,198.97166377916668,47.0,94.0
884,198.33073440416666,198.99227846666668,54.0,81.0
885,198.78050940416668,199.14032940416666,63.0,98.0
886,198.78050940416668,199.15532190416667,59.0,98.0
887,198.78050940416668,199.21716596666667,66.0,93.0
888,199.23028440416667,199.38395752916668,47.0,97.0
889,199.68005940416668,200.23665596666666,68.0,90.0
890,199.68005940416668,200.25914471666667,64.0,98.0
891,199.68005940416668,200.43718065416667,61.0,90.0
892,199.68005940416668,200.72578627916667,37.0,97.0
893,200.12983440416667,200.76888971666668,44.0,77.0
894,200.57960940416666,200.79700065416665,61.0,94.0
895,200.57960940416666,200.98253284166668,64.0,107.0
896,200.57960940416666,201.10996909166667,68.0,99.0
897,201.02938440416668,201.12496159166668,61.0,94.0
898,201.47915940416667,202.07136315416668,63.0,91.0
899,201.47915940416667,202.08822971666666,56.0,93.0
900,201.47915940416667,202.57173784166667,44.0,98.0
901,202.37870940416667,202.60172284166669,56.0,95.0
902,202.37870940416667,202.63358190416668,63.0,96.0
903,201.92893440416668,202.74040346666666,51.0,77.0
904,202.82848440416666,203.08897909166666,44.0,100.0
905,203.27825940416668,203.90419627916668,61.0,89.0
906,203.27825940416668,203.99602534166667,64.0,94.0
907,203.27825940416668,204.02038815416665,57.0,89.0
908,203.27825940416668,204.38020815416667,45.0,94.0
909,204.17780940416668,204.38208221666667,61.0,98.0
910,204.17780940416668,204.38208221666667,64.0,99.0
911,204.17780940416668,204.41019315416668,57.0,94.0
912,203.72803440416666,204.41956346666666,52.0,83.0
913,204.62758440416667,204.82436096666666,45.0,94.0
914,205.07735940416666,205.62083752916666,59.0,94.0
915,205.07735940416666,205.64145221666666,63.0,92.0
916,205.07735940416666,205.77638471666666,56.0,90.0
917,205.30224690416668,206.10621971666666,51.0,82.0
918,205.07735940416666,206.18305627916666,44.0,94.0
919,205.97690940416666,206.2505225291667,59.0,100.0
920,205.97690940416666,206.32923315416667,56.0,98.0
921,205.97690940416666,206.37421065416666,63.0,95.0
922,206.42668440416668,206.67406065416668,44.0,104.0
923,206.87645940416667,207.35247127916668,57.0,91.0
924,206.87645940416667,207.37121190416667,61.0,89.0
925,206.87645940416667,207.42555971666667,54.0,89.0
926,206.87645940416667,208.01214127916666,42.0,96.0
927,207.32623440416666,208.10397034166667,49.0,77.0
928,207.77600940416667,208.16206627916665,54.0,102.0
929,207.77600940416667,208.16394034166666,57.0,102.0
930,207.77600940416667,208.26888784166667,61.0,98.0
931,208.2257844041667,208.52938252916667,54.0,95.0
932,208.67555940416668,209.02600909166665,61.0,87.0
933,208.67555940416668,209.05412002916665,57.0,94.0
934,208.67555940416668,209.11971221666667,54.0,98.0
935,208.67555940416668,209.16656377916667,66.0,90.0
936,209.57510940416665,209.8712112791667,54.0,104.0
937,209.57510940416665,209.91056659166668,66.0,94.0
938,209.12533440416667,210.03050659166666,49.0,83.0
939,208.67555940416668,210.0361287791667,42.0,99.0
940,210.02488440416667,210.13545409166667,56.0,93.0
941,210.02488440416667,210.15606877916667,68.0,88.0
942,210.24977190416666,210.35471940416667,69.0,92.0
943,210.24977190416666,210.36221565416668,57.0,91.0
944,210.4746594041667,210.82774957083333,59.0,96.0
945,210.4746594041667,210.97248631041666,71.0,95.0
946,210.9254938625,211.61158360208333,54.0,88.0
947,211.3766213625,211.69053091458332,59.0,100.0
948,211.3766213625,211.84654584166665,63.0,109.0
949,211.3766213625,211.8728616125,66.0,102.0
950,210.4746594041667,212.0984253625,47.0,99.0
951,211.8277488625,212.132259925,54.0,83.0
952,212.0533126125,212.19804935208333,59.0,95.0
953,212.2788763625,212.73564295625,63.0,107.0
954,212.2788763625,212.74504144583332,59.0,104.0
955,212.2788763625,212.7863948,66.0,98.0
956,212.2788763625,212.79203389375,71.0,95.0
957,212.9555676125,213.01947734166666,71.0,92.0
958,212.9555676125,213.0570713,59.0,98.0
959,212.73000386249998,213.12662012291668,54.0,87.0
960,212.2788763625,213.1360186125,47.0,102.0
961,213.1811313625,213.29203353958334,59.0,107.0
962,213.1811313625,213.32586810208332,71.0,98.0
963,213.6322588625,213.711206175,61.0,99.0
964,213.6322588625,213.73376255,73.0,89.0
965,213.1811313625,213.91421355,54.0,99.0
966,213.8578226125,213.94428871666668,63.0,98.0
967,213.8578226125,213.95744660208334,75.0,86.0
968,213.1811313625,213.97436388333333,47.0,94.0
969,214.0833863625,214.3315064875,59.0,95.0
970,214.0833863625,214.57398751875,64.0,95.0
971,214.0833863625,214.59842359166666,68.0,90.0
972,214.5345138625,214.81458885208332,59.0,97.0
973,214.0833863625,215.14917508125,40.0,97.0
974,214.9856413625,215.21308481041666,59.0,99.0
975,214.9856413625,215.46120493541667,64.0,104.0
976,214.9856413625,215.5269943625,68.0,98.0
977,215.4367688625,215.69992657083333,59.0,94.0
978,215.6623326125,215.76759569583334,64.0,92.0
979,215.8878963625,216.25255775833332,59.0,95.0
980,215.8878963625,216.39729449791668,63.0,104.0
981,216.79015136249998,217.00255722708334,59.0,98.0
982,216.3390238625,217.07210605,54.0,84.0
983,215.8878963625,217.094662425,47.0,95.0
984,216.79015136249998,217.29015100833334,63.0,107.0
985,216.79015136249998,217.31270738333333,66.0,97.0
986,217.2412788625,217.5119553625,59.0,95.0
987,217.6924063625,218.01007531041665,56.0,88.0
988,217.6924063625,218.26947362291668,61.0,86.0
989,217.6924063625,218.40481187291667,64.0,97.0
990,218.1435338625,218.45556371666666,56.0,93.0
991,217.6924063625,218.67172897708332,37.0,95.0
992,218.5946613625,218.80330783125,56.0,97.0
993,218.5946613625,219.00443550833333,61.0,100.0
994,218.5946613625,219.1134579875,64.0,98.0
995,219.0457888625,219.43488633125,56.0,98.0
996,219.4969163625,219.95932205,56.0,93.0
997,219.4969163625,220.162329425,59.0,93.0
998,219.4969163625,220.19992338333333,63.0,93.0
999,220.1736076125,220.29954737291666,56.0,88.0
1000,219.9480438625,220.49127656041665,51.0,84.0
1001,220.3991713625,220.63413360208332,56.0,98.0
1002,220.3991713625,220.63977269583333,59.0,104.0
1003,219.4969163625,220.66608846666665,44.0,100.0
1004,220.3991713625,220.68864484166667,63.0,98.0
1005,220.6247351125,220.79954701875,51.0,95.0
1006,220.85029886249998,221.09277989375,44.0,94.0
1007,221.3014263625,221.85405755,61.0,87.0
1008,221.3014263625,221.876613925,64.0,93.0
1009,221.3014263625,221.94616274791667,57.0,87.0
1010,221.7525538625,222.33526021666665,52.0,87.0
1011,222.2036813625,222.60029762291666,57.0,102.0
1012,222.2036813625,222.6322524875,64.0,104.0
1013,222.2036813625,222.64165097708332,61.0,109.0
1014,221.3014263625,222.68112463333333,45.0,95.0
1015,222.6548088625,222.77510952916666,52.0,96.0
1016,223.1059363625,223.51946990416667,56.0,98.0
1017,223.1059363625,223.59653751874998,63.0,93.0
1018,223.1059363625,223.60029691458334,59.0,98.0
1019,223.7826276125,223.89728918541667,56.0,95.0
1020,223.5570638625,224.12097323749998,51.0,75.0
1021,223.1059363625,224.24691299791667,44.0,104.0
1022,224.00819136249999,224.3916497375,59.0,107.0
1023,224.00819136249999,224.40480762291665,63.0,93.0
1024,224.00819136249999,224.41420611249998,56.0,102.0
1025,224.00819136249999,224.4818752375,68.0,90.0
1026,224.4593188625,224.57586013333332,51.0,95.0
1027,224.9104463625,225.29762468541665,57.0,94.0
1028,224.9104463625,225.43630531041666,64.0,99.0
1029,224.9104463625,225.44380156041666,61.0,95.0
1030,224.9104463625,225.54874906041664,45.0,96.0
1031,225.36134281041666,225.61246718541665,52.0,83.0
1032,225.81111781041665,226.23840406041666,58.0,94.0
1033,225.81111781041665,226.25152249791665,61.0,94.0
1034,225.81111781041665,226.25527062291664,46.0,110.0
1035,226.71066781041665,226.91681468541665,59.0,99.0
1036,226.71066781041665,227.01051781041664,63.0,99.0
1037,226.71066781041665,227.04050281041665,66.0,94.0
1038,227.16044281041664,227.46591499791666,59.0,94.0
1039,226.71066781041665,227.66081749791664,47.0,97.0
1040,227.61021781041666,227.86134218541665,59.0,107.0
1041,227.61021781041666,227.88945312291665,63.0,119.0
1042,227.61021781041666,227.90631968541666,66.0,100.0
1043,227.61021781041666,227.91381593541666,71.0,94.0
1044,227.83510531041665,228.12371093541665,54.0,95.0
1045,228.05999281041665,228.18742906041666,59.0,98.0
1046,228.28488031041664,228.34859843541665,66.0,81.0
1047,228.28488031041664,228.38982781041665,59.0,82.0
1048,228.28488031041664,228.53787874791666,63.0,107.0
1049,228.50976781041666,228.75714406041666,59.0,95.0
1050,228.50976781041666,228.99889812291664,64.0,95.0
1051,228.50976781041666,229.02326093541666,68.0,90.0
1052,228.95954281041665,229.23877812291664,59.0,97.0
1053,228.50976781041666,229.57236124791666,40.0,97.0
1054,229.40931781041667,229.63607937291664,59.0,99.0
1055,229.40931781041667,229.88345562291664,64.0,104.0
1056,229.40931781041667,229.94904781041666,68.0,98.0
1057,229.85909281041666,230.12146156041666,59.0,94.0
1058,230.08398031041665,230.18892781041666,64.0,92.0
1059,230.30886781041664,230.67243593541664,59.0,95.0
1060,230.30886781041664,230.81673874791665,63.0,104.0
1061,231.20841781041665,231.42018687291664,59.0,98.0
1062,230.75864281041666,231.48952718541665,54.0,84.0
1063,230.30886781041664,231.51201593541666,47.0,95.0
1064,231.20841781041665,231.70691843541664,63.0,107.0
1065,231.20841781041665,231.72940718541665,66.0,97.0
1066,231.65819281041666,231.92805781041665,59.0,95.0
1067,232.10796781041665,232.42468437291666,56.0,88.0
1068,232.10796781041665,232.68330499791665,61.0,86.0
1069,232.10796781041665,232.81823749791664,64.0,97.0
1070,232.55774281041664,232.86883718541665,56.0,93.0
1071,232.10796781041665,233.08435437291666,37.0,95.0
1072,233.00751781041666,233.21553874791664,56.0,97.0
1073,233.00751781041666,233.41606343541665,61.0,100.0
1074,233.00751781041666,233.52475906041664,64.0,98.0
1075,233.45729281041665,233.84522374791666,56.0,98.0
1076,233.90706781041666,234.36808718541664,56.0,93.0
1077,233.90706781041666,234.57048593541666,59.0,93.0
1078,233.90706781041666,234.60796718541664,63.0,93.0
1079,234.58173031041665,234.70729249791665,56.0,88.0
1080,234.35684281041665,234.89844687291665,51.0,84.0
1081,234.80661781041664,235.04087562291664,56.0,98.0
1082,234.80661781041664,235.04649781041667,59.0,104.0
1083,233.90706781041666,235.07273468541666,44.0,100.0
1084,234.80661781041664,235.09522343541664,63.0,98.0
1085,235.03150531041666,235.20579312291665,51.0,95.0
1086,235.25639281041666,235.49814687291666,44.0,94.0
1087,235.70616781041664,236.25714218541665,61.0,87.0
1088,235.70616781041664,236.27963093541666,64.0,93.0
1089,235.70616781041664,236.34897124791667,57.0,87.0
1090,236.15594281041666,236.73690218541665,52.0,87.0
1091,236.60571781041665,237.00114499791664,57.0,102.0
1092,236.60571781041665,237.03300406041666,64.0,104.0
1093,236.60571781041665,237.04237437291664,61.0,109.0
1094,235.70616781041664,237.08172968541666,45.0,95.0
1095,237.05549281041667,237.17543281041665,52.0,96.0
1096,237.50526781041665,237.91756156041666,56.0,98.0
1097,237.50526781041665,237.99439812291666,63.0,93.0
1098,237.50526781041665,237.99814624791665,59.0,98.0
1099,238.17993031041667,238.29424812291666,56.0,95.0
1100,237.95504281041664,238.51726156041664,51.0,75.0
1101,237.50526781041665,238.64282374791665,44.0,104.0
1102,238.40481781041666,238.78712656041665,59.0,107.0
1103,238.40481781041666,238.80024499791665,63.0,93.0
1104,238.40481781041666,238.80961531041666,56.0,102.0
1105,238.40481781041666,238.87708156041666,68.0,90.0
1106,238.85459281041665,238.97078468541665,51.0,95.0
1107,239.30436781041666,239.69042468541664,57.0,94.0
1108,239.30436781041666,239.82910531041665,64.0,99.0
1109,239.30436781041666,239.83660156041665,61.0,95.0
1110,239.30436781041666,239.94154906041666,45.0,96.0
1111,239.75414281041665,240.00526718541664,52.0,83.0
1112,240.20391781041664,240.63120406041665,58.0,94.0
1113,240.20391781041664,240.64432249791665,61.0,94.0
1114,240.20391781041664,240.64807062291666,46.0,110.0
1115,241.10346781041665,241.30961468541665,59.0,99.0
1116,241.10346781041665,241.40331781041664,63.0,99.0
1117,241.10346781041665,241.43330281041665,66.0,94.0
1118,241.55324281041666,241.85871499791665,59.0,94.0
1119,241.10346781041665,242.05361749791666,47.0,97.0
1120,242.00301781041665,242.25414218541664,59.0,107.0
1121,242.00301781041665,242.28225312291664,63.0,119.0
1122,242.00301781041665,242.29911968541666,66.0,100.0
1123,242.00301781041665,242.30661593541666,71.0,94.0
1124,242.22790531041665,242.51651093541665,54.0,95.0
1125,242.45279281041667,242.58022906041666,59.0,98.0
1126,242.67768031041666,242.74139843541664,66.0,81.0
1127,242.67768031041666,242.78262781041664,59.0,82.0
1128,242.67768031041666,242.93067874791666,63.0,107.0
1129,242.90256781041666,243.40294249791665,76.0,94.0
1130,242.90256781041666,243.48727531041666,64.0,92.0
1131,243.35234281041664,244.02700531041665,47.0,87.0
1132,243.80211781041666,244.27063343541664,68.0,98.0
1133,243.80211781041666,244.30998874791666,71.0,95.0
1134,243.80211781041666,244.32310718541666,64.0,100.0
1135,242.90256781041666,244.49177281041665,40.0,98.0
1136,244.25189281041665,244.51800968541664,47.0,85.0
1137,244.70166781041667,244.94342187291664,36.0,92.0
1138,244.70166781041667,244.97153281041665,72.0,77.0
1139,244.70166781041667,244.98465124791664,64.0,93.0
1140,244.70166781041667,244.98652531041665,67.0,81.0
1141,244.70166781041667,244.98839937291666,60.0,87.0
1142,245.15144281041665,245.46441124791664,48.0,95.0
1143,245.15144281041665,245.46815937291666,64.0,89.0
1144,245.15144281041665,245.48127781041666,67.0,86.0
1145,245.15144281041665,245.48315187291666,60.0,86.0
1146,245.60121781041664,245.89919374791666,48.0,98.0
1147,245.60121781041664,245.96478593541664,55.0,95.0
1148,245.60121781041664,246.48390124791666,60.0,93.0
1149,245.60121781041664,246.49139749791667,64.0,96.0
1150,245.60121781041664,246.49701968541666,67.0,94.0
1151,245.60121781041664,246.50264187291666,72.0,92.0
1152,246.05099281041666,246.54949343541665,48.0,97.0
1153,246.50076781041665,246.74814406041665,60.0,95.0
1154,246.50076781041665,246.98989812291666,65.0,95.0
1155,246.50076781041665,247.01426093541664,69.0,90.0
1156,246.95054281041666,247.22977812291666,60.0,97.0
1157,246.50076781041665,247.56336124791665,41.0,97.0
1158,247.40031781041665,247.62707937291665,60.0,99.0
1159,247.40031781041665,247.87445562291666,65.0,104.0
1160,247.40031781041665,247.94004781041664,69.0,98.0
1161,247.85009281041664,248.11246156041665,60.0,94.0
1162,248.07498031041666,248.17992781041664,65.0,92.0
1163,248.29986781041666,248.66343593541666,60.0,95.0
1164,248.29986781041666,248.80773874791666,64.0,104.0
1165,249.19941781041666,249.41118687291666,60.0,98.0
1166,248.74964281041665,249.48052718541666,55.0,84.0
1167,248.29986781041666,249.50301593541667,48.0,95.0
1168,249.19941781041666,249.69791843541665,64.0,107.0
1169,249.19941781041666,249.72040718541666,67.0,97.0
1170,249.64919281041665,249.91905781041666,60.0,95.0
1171,250.09896781041664,250.41568437291664,57.0,88.0
1172,250.09896781041664,250.67430499791666,62.0,86.0
1173,250.09896781041664,250.80923749791666,65.0,97.0
1174,250.54874281041666,250.85983718541667,57.0,93.0
1175,250.09896781041664,251.07535437291665,38.0,95.0
1176,250.99851781041664,251.20653874791665,57.0,97.0
1177,250.99851781041664,251.40706343541666,62.0,100.0
1178,250.99851781041664,251.51575906041666,65.0,98.0
1179,251.44829281041666,251.83622374791665,57.0,98.0
1180,251.89806781041665,252.35908718541666,57.0,93.0
1181,251.89806781041665,252.56148593541667,60.0,93.0
1182,251.89806781041665,252.59896718541665,64.0,93.0
1183,252.57273031041666,252.69829249791667,57.0,88.0
1184,252.34784281041667,252.88944687291666,52.0,84.0
1185,252.79761781041665,253.03187562291666,57.0,98.0
1186,252.79761781041665,253.03749781041665,60.0,104.0
1187,251.89806781041665,253.06373468541665,45.0,100.0
1188,252.79761781041665,253.08622343541666,64.0,98.0
1189,253.02250531041665,253.19679312291666,52.0,95.0
1190,253.24739281041664,253.48914687291665,45.0,94.0
1191,253.69716781041666,254.24814218541667,62.0,87.0
1192,253.69716781041666,254.27063093541665,65.0,93.0
1193,253.69716781041666,254.33997124791665,58.0,87.0
1194,254.14694281041665,254.72790218541667,53.0,87.0
1195,254.59671781041666,254.99214499791665,58.0,102.0
1196,254.59671781041666,255.02400406041664,65.0,104.0
1197,254.59671781041666,255.03337437291665,62.0,109.0
1198,253.69716781041666,255.07272968541665,46.0,95.0
1199,255.04649281041665,255.16643281041667,53.0,96.0
1200,255.49626781041667,255.90856156041664,57.0,98.0
1201,255.49626781041667,255.98539812291665,64.0,93.0
1202,255.49626781041667,255.98914624791666,60.0,98.0
1203,256.1709303104167,256.28524812291664,57.0,95.0
1204,255.94604281041666,256.50826156041666,52.0,75.0
1205,255.49626781041667,256.63382374791667,45.0,104.0
1206,256.39581781041664,256.77812656041664,60.0,107.0
1207,256.39581781041664,256.79124499791664,64.0,93.0
1208,256.39581781041664,256.8006153104167,57.0,102.0
1209,256.39581781041664,256.86808156041667,69.0,90.0
1210,256.84559281041663,256.96178468541666,52.0,95.0
1211,257.2953678104167,257.68142468541663,58.0,94.0
1212,257.2953678104167,257.82010531041664,65.0,99.0
1213,257.2953678104167,257.82760156041667,62.0,95.0
1214,257.2953678104167,257.93254906041665,46.0,96.0
1215,257.74514281041667,257.9962671854166,53.0,83.0
1216,258.19491781041665,258.62220406041666,59.0,94.0
1217,258.19491781041665,258.63532249791666,62.0,94.0
1218,258.19491781041665,258.6390706229167,47.0,110.0
1219,259.09446781041663,259.30061468541663,60.0,99.0
1220,259.09446781041663,259.3943178104166,64.0,99.0
1221,259.09446781041663,259.42430281041663,67.0,94.0
1222,259.5442428104167,259.84971499791664,60.0,94.0
1223,259.09446781041663,260.04461749791665,48.0,97.0
1224,259.99401781041666,260.2451421854166,60.0,107.0
1225,259.99401781041666,260.2732531229167,64.0,119.0
1226,259.99401781041666,260.29011968541664,67.0,100.0
1227,259.99401781041666,260.2976159354167,72.0,94.0
1228,260.21890531041663,260.50751093541663,55.0,95.0
1229,260.44379281041665,260.57122906041667,60.0,98.0
1230,260.6686803104167,260.73239843541666,67.0,81.0
1231,260.6686803104167,260.77362781041666,60.0,82.0
1232,260.6686803104167,260.92167874791664,64.0,107.0
1233,260.89356781041664,261.14094406041664,60.0,95.0
1234,260.89356781041664,261.3826981229167,65.0,95.0
1235,260.89356781041664,261.40706093541667,69.0,90.0
1236,261.34334281041663,261.62257812291665,60.0,97.0
1237,260.89356781041664,261.95616124791667,41.0,97.0
1238,261.7931178104167,262.01987937291665,60.0,99.0
1239,261.7931178104167,262.26725562291665,65.0,104.0
1240,261.7931178104167,262.33284781041664,69.0,98.0
1241,262.24289281041666,262.50526156041667,60.0,94.0
1242,262.46778031041663,262.57272781041667,65.0,92.0
1243,262.69266781041665,263.0562359354167,60.0,95.0
1244,262.69266781041665,263.20053874791665,64.0,104.0
1245,263.5922178104166,263.80398687291665,60.0,98.0
1246,263.14244281041664,263.87332718541666,55.0,84.0
1247,262.69266781041665,263.89581593541664,48.0,95.0
1248,263.5922178104166,264.09071843541665,64.0,107.0
1249,263.5922178104166,264.1132071854166,67.0,97.0
1250,264.0419928104167,264.31185781041665,60.0,95.0
1251,264.49176781041666,264.80848437291667,57.0,88.0
1252,264.49176781041666,265.06710499791666,62.0,86.0
1253,264.49176781041666,265.20203749791665,65.0,97.0
1254,264.94154281041665,265.25263718541663,57.0,93.0
1255,264.49176781041666,265.4681543729167,38.0,95.0
1256,265.39131781041664,265.59933874791665,57.0,97.0
1257,265.39131781041664,265.7998634354167,62.0,100.0
1258,265.39131781041664,265.9085590604167,65.0,98.0
1259,265.8410928104166,266.22902374791664,57.0,98.0
1260,266.29086781041667,266.75188718541665,57.0,93.0
1261,266.29086781041667,266.95428593541664,60.0,93.0
1262,266.29086781041667,266.9917671854167,64.0,93.0
1263,266.9655303104166,267.09109249791663,57.0,88.0
1264,266.74064281041666,267.28224687291663,52.0,84.0
1265,267.19041781041665,267.42467562291665,57.0,98.0
1266,267.19041781041665,267.4302978104167,60.0,104.0
1267,266.29086781041667,267.45653468541667,45.0,100.0
1268,267.19041781041665,267.47902343541665,64.0,98.0
1269,267.41530531041667,267.58959312291665,52.0,95.0
1270,267.64019281041664,267.88194687291667,45.0,94.0
1271,268.0899678104166,268.64094218541663,62.0,87.0
1272,268.0899678104166,268.66343093541667,65.0,93.0
1273,268.0899678104166,268.7327712479167,58.0,87.0
1274,268.53974281041667,269.12070218541663,53.0,87.0
1275,268.98951781041666,269.38494499791665,58.0,102.0
1276,268.98951781041666,269.41680406041667,65.0,104.0
1277,268.98951781041666,269.42617437291665,62.0,109.0
1278,268.0899678104166,269.46552968541664,46.0,95.0
1279,269.43929281041665,269.55923281041663,53.0,96.0
1280,269.88906781041663,270.30136156041664,57.0,98.0
1281,269.88906781041663,270.3781981229167,64.0,93.0
1282,269.88906781041663,270.38194624791663,60.0,98.0
1283,270.56373031041664,270.67804812291666,57.0,95.0
1284,270.3388428104167,270.9010615604167,52.0,75.0
1285,269.88906781041663,271.02662374791663,45.0,104.0
1286,270.78861781041667,271.17092656041666,60.0,107.0
1287,270.78861781041667,271.18404499791666,64.0,93.0
1288,270.78861781041667,271.19341531041664,57.0,102.0
1289,270.78861781041667,271.26088156041664,69.0,90.0
1290,271.23839281041666,271.3545846854166,52.0,95.0
1291,271.68816781041664,272.07422468541665,58.0,94.0
1292,271.68816781041664,272.21290531041666,65.0,99.0
1293,271.68816781041664,272.22040156041663,62.0,95.0
1294,271.68816781041664,272.32534906041667,46.0,96.0
1295,272.13794281041663,272.38906718541665,53.0,83.0
1296,272.5877178104167,273.0150040604167,59.0,94.0
1297,272.5877178104167,273.0281224979167,62.0,94.0
1298,272.5877178104167,273.03187062291664,47.0,110.0
1299,273.48726781041665,273.69341468541666,60.0,99.0
1300,273.48726781041665,273.78711781041665,64.0,99.0
1301,273.48726781041665,273.81710281041666,67.0,94.0
1302,273.93704281041664,274.24251499791666,60.0,94.0
1303,273.48726781041665,274.43741749791667,48.0,97.0
1304,274.38681781041663,274.63794218541665,60.0,107.0
1305,274.38681781041663,274.66605312291665,64.0,119.0
1306,274.38681781041663,274.68291968541666,67.0,100.0
1307,274.38681781041663,274.69041593541664,72.0,94.0
1308,274.61170531041665,274.90031093541666,55.0,95.0
1309,274.8365928104167,274.96402906041664,60.0,98.0
1310,275.06148031041664,275.1251984354167,67.0,81.0
1311,275.06148031041664,275.1664278104167,60.0,82.0
1312,275.06148031041664,275.31447874791667,64.0,107.0
1313,275.28636781041666,275.9760228104167,60.0,82.0
1314,275.28636781041666,276.17279937291664,65.0,82.0
1315,275.28636781041666,276.2627543729167,69.0,80.0
1316,275.73614281041665,276.40518312291664,48.0,81.0
1317,276.18591781041664,276.83059531041664,60.0,96.0
1318,276.6356928104167,278.65780624791665,48.0,79.0
1319,277.0854678104167,278.68216906041664,65.0,87.0
1320,275.28636781041666,278.69716156041665,41.0,93.0
1321,277.0854678104167,278.70090968541666,60.0,88.0
1322,277.0854678104167,278.73651687291664,69.0,85.0
1323,278.8845678104167,279.51987499791665,60.0,83.0
1324,278.8845678104167,279.53486749791665,65.0,84.0
1325,279.3343428104167,280.1045824979167,48.0,72.0
1326,279.78411781041666,280.35945499791666,60.0,81.0
1327,280.68366781041664,281.7350168729167,65.0,77.0
1328,280.68366781041664,281.7368909354167,60.0,77.0
1329,280.68366781041664,281.75375749791664,69.0,56.0
1330,280.23389281041665,281.85308281041665,48.0,52.0
1331,278.8845678104167,281.8886899979167,41.0,87.0
1332,282.4621531229167,283.0674753104166,58.0,80.0
1333,282.47901968541663,283.0787196854167,65.0,81.0
1334,282.4640271854166,283.08996406041666,62.0,85.0
1335,283.42729531041664,283.67279749791663,58.0,78.0
1336,283.41417687291664,283.73089343541665,62.0,85.0
1337,283.41605093541665,283.7515081229167,65.0,82.0
1338,284.30435656041664,284.6285693729167,58.0,75.0
1339,284.3024824979167,284.63981374791666,62.0,84.0
1340,284.3024824979167,284.64918406041664,65.0,81.0
1341,285.17579562291667,285.3575796854167,58.0,76.0
1342,285.61245218541666,286.0416124979167,58.0,81.0
1343,285.17204749791665,286.0566049979167,62.0,84.0
1344,285.17392156041666,286.07909374791666,65.0,83.0
1345,282.48464187291665,286.13156749791665,50.0,90.0
1346,286.06410124791665,286.6881640604166,68.0,84.0
1347,286.06222718541665,286.76312656041665,61.0,81.0
1348,286.07534562291664,287.3197231229167,49.0,95.0
1349,287.10420593541664,287.4021818729167,65.0,91.0
1350,286.55885374791666,287.43404093541665,56.0,60.0
1351,287.10233187291664,287.43404093541665,61.0,92.0
1352,287.10045781041663,287.50712937291667,68.0,90.0
1353,287.61207687291665,287.70765406041664,49.0,85.0
1354,288.1274440604167,288.95765374791665,63.0,88.0
1355,288.12369593541666,288.9782684354167,70.0,87.0
1356,288.65405562291664,289.53673906041666,46.0,62.0
1357,288.12556999791667,289.5685981229167,39.0,90.0
1358,289.2799924979167,290.92916749791664,67.0,89.0
1359,289.28186656041663,291.08471468541666,63.0,92.0
1360,289.2781184354167,291.1315662479167,70.0,90.0
1361,291.54948218541665,291.8605765604167,53.0,75.0
1362,291.82871749791667,292.07984187291663,55.0,89.0
1363,292.1323156229166,292.60270531041664,57.0,88.0
1364,292.45090624791663,292.69640843541663,60.0,92.0
1365,292.81260031041666,292.9681474979167,57.0,85.0
1366,292.8069781229167,292.97376968541664,60.0,87.0
1367,292.8069781229167,293.0093768729167,65.0,91.0
1368,293.19865718541666,293.29985656041663,65.0,80.0
1369,293.19678312291666,293.3260934354166,67.0,79.0
1370,293.59595843541666,293.8339643729166,69.0,85.0
1371,293.60720281041665,293.83958656041665,65.0,80.0
1372,294.02324468541667,294.16754749791664,65.0,79.0
1373,294.03636312291667,294.17129562291666,69.0,79.0
1374,294.02137062291666,294.1769178104166,72.0,84.0
1375,295.21327437291666,295.31822187291664,77.0,64.0
1376,295.2451334354167,295.34633281041664,81.0,82.0
1377,291.26275062291666,296.11469843541664,48.0,78.0
1378,290.8429606229166,296.1784165604166,41.0,94.0
