,start,end,pitch,velocity
0,19.55116557708333,20.00019449375,69.0,120.0
1,20.13368957708333,20.299951635416665,64.0,111.0
2,20.424951577083334,21.31451426875,64.0,114.0
3,21.589999577083333,21.73320339375,69.0,114.0
4,21.881261577083333,22.325436127083332,71.0,114.0
5,22.463785577083332,22.626406860416665,64.0,111.0
6,22.75504757708333,23.77931894375,64.0,108.0
7,24.211357577083334,24.66281367708333,72.0,105.0
8,24.793881577083333,24.93708539375,71.0,108.0
9,25.085143577083333,25.68708504375,72.0,114.0
10,25.95892957708333,26.416453635416666,74.0,111.0
11,26.54145357708333,26.967424252083333,71.0,117.0
12,27.12397757708333,27.29509400208333,69.0,105.0
13,27.415239577083334,28.552374968749998,67.0,114.0
14,28.871549577083332,29.26960764375,69.0,117.0
15,29.45407357708333,29.60334535208333,67.0,108.0
16,29.74533557708333,30.38611197708333,65.0,114.0
17,30.619121577083334,30.751403068749998,65.0,114.0
18,30.91038357708333,31.036597110416665,67.0,105.0
19,31.201645577083333,31.61790751875,69.0,111.0
20,31.784169577083333,32.18222764375,69.0,111.0
21,32.36669357708333,32.50504302708333,67.0,105.0
22,32.65795557708333,33.121547593749995,65.0,114.0
23,33.240479577083335,35.71620657708333,64.0,108.0
24,38.18961979583333,38.600890372916666,69.0,111.0
25,38.76515879583334,38.89825218958333,64.0,114.0
26,39.05292829583333,39.688419275,64.0,111.0
27,39.98578109166667,40.27594867083334,69.0,108.0
28,40.491775795833334,40.873070383333335,71.0,114.0
29,41.06731479583333,41.200408189583335,64.0,114.0
30,41.355084295833336,42.16203793541667,64.0,111.0
31,42.79393179583333,43.17882350208333,72.0,108.0
32,43.36947079583334,43.522947862500004,71.0,105.0
33,43.65724029583333,44.23158025625,72.0,111.0
34,44.26755144375,44.81191541458333,74.0,117.0
35,45.096087795833334,45.46898910625,71.0,108.0
36,45.67162679583333,45.804720189583335,69.0,111.0
37,45.959396295833336,47.03013864375,67.0,108.0
38,47.39997114375,47.86382556041667,69.0,114.0
39,47.978283143750005,48.118041877083336,71.0,102.0
40,48.26743914375,48.94816056041667,72.0,105.0
41,49.134907143750006,49.42165351041667,74.0,114.0
42,49.424063143750004,49.71080951041667,72.0,100.0
43,49.71321914375,49.88309829375,71.0,102.0
44,50.00237514375,50.14213387708334,71.0,100.0
45,50.29153114375,50.47827772708334,71.0,114.0
46,50.580687143750005,50.76261446041667,71.0,105.0
47,50.86984314375,51.20719181041667,67.0,108.0
48,51.16743286041667,51.349360177083334,71.0,92.0
49,51.737311143750006,53.108800181250004,69.0,114.0
50,56.127181025000006,56.26933781666667,72.0,117.0
51,56.421298525000005,56.55487688958334,74.0,111.0
52,56.715416025,57.13398291041667,76.0,117.0
53,57.28253359791667,57.708861993750006,72.0,114.0
54,57.87915180625,58.28736426458334,74.0,108.0
55,58.458861806250006,58.59895838958334,72.0,108.0
56,58.74871680625,58.90934478541667,74.0,111.0
57,59.038571806250005,59.18108384791667,76.0,108.0
58,59.32842680625,59.46852338958334,77.0,105.0
59,59.61828180625,59.755962931250004,79.0,105.0
60,59.908136806250006,60.056687493750005,76.0,111.0
61,60.19799180625,60.57359557708334,74.0,114.0
62,60.77770180625,60.91779838958334,72.0,108.0
63,61.06755680625,61.19919928541667,74.0,108.0
64,61.35741180625,61.67383684791667,76.0,117.0
65,61.937121806250005,62.363450202083335,69.0,111.0
66,62.51683180625,62.868280993750005,74.0,105.0
67,63.09654180625,63.26079297291667,72.0,102.0
68,63.386396806250005,63.52890884791667,71.0,111.0
69,63.67625180625,63.83446432708334,69.0,108.0
70,63.966106806250004,64.09171063958334,71.0,111.0
71,64.25596180625,64.38760428541667,69.0,111.0
72,64.54581680625,64.70644478541666,67.0,108.0
73,64.83567180625,65.19074418125,64.0,120.0
74,65.41538180625,65.58567161875,72.0,105.0
75,65.70523680625,65.85137203541667,74.0,108.0
76,65.99509180625,66.40934291041667,76.0,114.0
77,66.57480180625001,67.01562295208333,72.0,111.0
78,67.15451180625,67.59291749375001,74.0,102.0
79,67.73422180625,67.86827974375001,72.0,105.0
80,68.02407680625001,68.15571928541667,74.0,111.0
81,68.31393180625,68.44557428541667,76.0,102.0
82,68.60378680625,68.74388338958333,77.0,108.0
83,68.89364180625,69.02662098958334,79.0,105.0
84,69.18429971875,69.32715666458333,76.0,102.0
85,69.47485621875,69.83320923541666,74.0,108.0
86,70.05596921875,70.21456464166667,72.0,108.0
87,70.34652571875,70.4809081,74.0,105.0
88,70.63708221875,70.95911567291667,76.0,114.0
89,71.21819521875,71.62497431875,69.0,111.0
90,71.79930821875,72.1661358,74.0,105.0
91,72.38042121875,72.52691012083334,72.0,108.0
92,72.67097771875,73.110444425,71.0,117.0
93,73.25209071875,74.1927673875,69.0,114.0
94,75.31328536666668,75.73682885833334,69.0,120.0
95,75.87032394166667,76.036586,64.0,111.0
96,76.16158594166667,77.05114863333334,64.0,114.0
97,77.32663394166667,77.46983775833334,69.0,114.0
98,77.61789594166667,78.06207049166667,71.0,114.0
99,78.20041994166667,78.363041225,64.0,111.0
100,78.49168194166667,79.51595330833334,64.0,108.0
101,79.94799194166667,80.39944804166667,72.0,105.0
102,80.53051594166668,80.67371975833333,71.0,108.0
103,80.82177794166667,81.42371940833334,72.0,114.0
104,81.69556394166668,82.15308800000001,74.0,111.0
105,82.27808794166667,82.70405861666667,71.0,117.0
106,82.86061194166668,83.03172836666667,69.0,105.0
107,83.15187394166668,84.28900933333334,67.0,114.0
108,84.60818394166667,85.00624200833334,69.0,117.0
109,85.19070794166667,85.33997971666668,67.0,108.0
110,85.48196994166668,86.12274634166667,65.0,114.0
111,86.35575594166667,86.48803743333333,65.0,114.0
112,86.64701794166668,86.773231475,67.0,105.0
113,86.93827994166668,87.35454188333334,69.0,111.0
114,87.52080394166667,87.91886200833333,69.0,111.0
115,88.10332794166668,88.24167739166667,67.0,105.0
116,88.39458994166667,88.85818195833333,65.0,114.0
117,88.97711394166667,91.45284094166666,64.0,108.0
118,93.92789961666668,94.34215072083335,69.0,111.0
119,94.50760961666668,94.64166755416667,64.0,114.0
120,94.79746461666667,95.437561075,64.0,111.0
121,95.64649822083335,95.86147401250001,69.0,108.0
122,96.24673961666667,96.63079749166668,71.0,114.0
123,96.82644961666668,96.96050755416668,64.0,114.0
124,97.11630461666668,97.92910634583335,64.0,111.0
125,98.56557961666668,98.95326067916668,72.0,108.0
126,99.14528961666667,99.29987895000001,71.0,105.0
127,99.43514461666668,99.93514449166668,72.0,111.0
128,99.95084497083334,100.31678690833334,74.0,117.0
129,100.90857420000002,101.26002338750001,71.0,108.0
130,101.46412961666668,101.59818755416669,69.0,111.0
131,101.75398461666668,102.83248676250001,67.0,108.0
132,103.20325961666668,103.66601735833335,69.0,114.0
133,103.78020003541668,103.91962309375002,71.0,102.0
134,104.06866153541668,104.74774798333335,72.0,105.0
135,104.93404603541669,105.22010368958335,74.0,114.0
136,105.22250753541668,105.50856518958335,72.0,100.0
137,105.51096903541668,105.68044016666668,71.0,102.0
138,105.79943053541668,105.93885359375001,71.0,100.0
139,106.08789203541669,106.27419008750002,71.0,114.0
140,106.37635353541668,106.55784389583334,71.0,105.0
141,106.66481503541668,106.92563230833335,67.0,108.0
142,106.92563230833335,107.10712266875001,71.0,92.0
143,107.52779568958334,108.85036959166669,69.0,114.0
144,111.87210796666669,112.01220455000002,72.0,117.0
145,112.16196296666668,112.29360544583335,74.0,111.0
146,112.45181796666668,112.86606907083335,76.0,117.0
147,113.03152796666669,113.45785636250002,72.0,114.0
148,113.61123796666668,114.01945042500002,74.0,108.0
149,114.19094796666668,114.33104455000002,72.0,108.0
150,114.48080296666669,114.64143094583335,74.0,111.0
151,114.77065796666669,114.91317000833335,76.0,108.0
152,115.06051296666668,115.20060955000002,77.0,105.0
153,115.35036796666668,115.48804909166668,79.0,105.0
154,115.64022296666668,115.78877365416669,76.0,111.0
155,115.93007796666669,116.30568173750002,74.0,114.0
156,116.50978796666668,116.64988455000002,72.0,108.0
157,116.79964296666668,116.93128544583335,74.0,108.0
158,117.08949796666668,117.40592300833335,76.0,117.0
159,117.66920796666669,118.09553636250001,69.0,111.0
160,118.24891796666668,118.60036715416669,74.0,105.0
161,118.82862796666669,118.99287913333335,72.0,102.0
162,119.11848296666669,119.26099500833335,71.0,111.0
163,119.40833796666668,119.56655048750002,69.0,108.0
164,119.69819296666668,119.82379680000003,71.0,111.0
165,119.98804796666668,120.11969044583336,69.0,111.0
166,120.27790296666669,120.43853094583335,67.0,108.0
167,120.56775796666669,120.92283034166668,64.0,120.0
168,121.14746796666668,121.31775777916668,72.0,105.0
169,121.43732296666668,121.58345819583334,74.0,108.0
170,121.72717796666669,122.14142907083335,76.0,114.0
171,122.30688796666668,122.74770911250002,72.0,111.0
172,122.88659796666668,123.32500365416668,74.0,102.0
173,123.46630796666669,123.60036590416668,72.0,105.0
174,123.75616296666668,123.88780544583335,74.0,111.0
175,124.04601796666668,124.17766044583335,76.0,102.0
176,124.33587296666668,124.47596955000002,77.0,108.0
177,124.62572796666669,124.75857817500003,79.0,105.0
178,124.91558296666668,125.05809500833335,76.0,102.0
179,125.20543796666668,125.56292580000002,74.0,108.0
180,125.78514796666668,125.94336048750002,72.0,108.0
181,126.07500296666669,126.20906090416668,74.0,105.0
182,126.36485796666668,126.68611392500002,76.0,114.0
183,126.94456796666668,127.35120916666669,69.0,111.0
184,127.5259663666667,127.8936846416667,74.0,105.0
185,128.1084903666667,128.25533495833335,72.0,108.0
186,128.3997523666667,128.8402861416667,71.0,117.0
187,128.9822763666667,129.9252370916667,69.0,114.0
188,130.4385863666667,130.57936300000003,72.0,117.0
189,130.7298483666667,130.86212985833336,74.0,111.0
190,131.02111036666668,131.43737230833335,76.0,117.0
191,131.60363436666668,132.03203222500002,72.0,114.0
192,132.1861583666667,132.59635235000002,74.0,108.0
193,132.7686823666667,132.90945900000003,72.0,108.0
194,133.05994436666668,133.22135205833337,74.0,111.0
195,133.3512063666667,133.49441018333334,76.0,108.0
196,133.6424683666667,133.78324500000002,77.0,105.0
197,133.93373036666668,134.0720798166667,79.0,105.0
198,134.2249923666667,134.37426414166669,76.0,111.0
199,134.5162543666667,134.89368137500003,74.0,114.0
200,135.0987783666667,135.23955500000002,72.0,108.0
201,135.39004036666668,135.52232185833336,74.0,108.0
202,135.6813023666667,135.99926338333336,76.0,117.0
203,136.26382636666668,136.68852523125003,69.0,111.0
204,136.8411694416667,137.19092901041668,74.0,105.0
205,137.4180924416667,137.58155395833336,72.0,102.0
206,137.7065539416667,137.84838084583336,71.0,111.0
207,137.99501544166668,138.15246734375003,69.0,108.0
208,138.2834769416667,138.40847692500003,71.0,111.0
209,138.5719384416667,138.70294803958336,69.0,111.0
210,138.86039994166669,139.02025568958337,67.0,108.0
211,139.1488614416667,139.50222677916668,64.0,120.0
212,139.7257844416667,139.89525557291668,72.0,105.0
213,140.0142459416667,140.15967861458336,74.0,108.0
214,140.30270744166668,140.71496700208337,76.0,114.0
215,140.87963044166668,141.31833230625003,72.0,111.0
216,141.4565534416667,141.8928514604167,74.0,102.0
217,142.0334764416667,142.16688988541668,72.0,105.0
218,142.32193794166668,142.45294753958336,74.0,111.0
219,142.6103994416667,142.74140903958335,76.0,102.0
220,142.8988609416667,143.03828400000003,77.0,108.0
221,143.18732244166668,143.31953396250003,79.0,105.0
222,143.4757839416667,143.61761084583335,76.0,102.0
223,143.76424544166667,144.120014625,74.0,108.0
224,144.3411684416667,144.49862034375002,72.0,108.0
225,144.62962994166668,144.7637201729167,74.0,105.0
226,144.92027349791667,145.24308888125,76.0,114.0
227,145.50279749791667,145.91056429791666,69.0,111.0
228,146.08532149791668,146.45303977291667,74.0,105.0
229,146.6678454979167,146.81469008958334,72.0,108.0
230,146.95910749791668,147.39964127291668,71.0,117.0
231,147.54163149791668,148.4845922229167,69.0,114.0
232,167.63870949791666,167.77899473125,72.0,117.0
233,167.9283919979167,168.05971701458336,74.0,111.0
234,168.21754799791668,168.63080011458334,76.0,117.0
235,168.7958599979167,169.22116028125,72.0,114.0
236,169.37417199791668,169.78140003125003,74.0,108.0
237,169.9524839979167,170.09224273125002,72.0,108.0
238,170.24163999791668,170.40188061458335,74.0,111.0
239,170.53079599791667,170.67296436458335,76.0,108.0
240,170.8199519979167,170.95971073125003,77.0,105.0
241,171.10910799791668,171.24645709791668,79.0,105.0
242,171.39826399791667,171.54645644791668,76.0,111.0
243,171.6874199979167,172.06211798125003,74.0,114.0
244,172.26573199791667,172.40549073125,72.0,108.0
245,172.5548879979167,172.68621301458336,74.0,108.0
246,172.84404399791669,173.15970596458334,76.0,117.0
247,173.4223559979167,173.84765628125,69.0,111.0
248,174.00066799791668,174.3512696479167,74.0,105.0
249,174.5789799979167,174.74283506458335,72.0,102.0
250,174.86813599791668,175.01030436458336,71.0,111.0
251,175.15729199791667,175.31512298125003,69.0,108.0
252,175.4464479979167,175.57174893125003,71.0,111.0
253,175.73560399791668,175.86692901458335,69.0,111.0
254,176.02475999791668,176.18500061458334,67.0,108.0
255,176.3139159979167,176.66813209791667,64.0,120.0
256,176.89222799791668,177.0621071479167,72.0,105.0
257,177.18138399791667,177.32716681458334,74.0,108.0
258,177.4705399979167,177.88379211458334,76.0,114.0
259,178.04885199791667,178.48861008125002,72.0,111.0
260,178.62716399791668,179.06451244791668,74.0,102.0
261,179.2054759979167,179.33921064791667,72.0,105.0
262,179.49463199791668,179.62595701458335,74.0,111.0
263,179.78378799791668,179.91511301458334,76.0,102.0
264,180.0729439979167,180.21270273125,77.0,108.0
265,180.3620999979167,180.49462983125002,79.0,105.0
266,180.65125599791668,180.79342436458336,76.0,102.0
267,180.94041199791667,181.29621590625,74.0,108.0
268,181.51736972291667,181.674821625,72.0,108.0
269,181.80583122291668,181.93924466666667,74.0,105.0
270,182.09429272291666,182.41400421875,76.0,114.0
271,182.67121572291668,183.07506182291667,69.0,111.0
272,183.24813872291668,183.61232136666666,74.0,105.0
273,183.82506172291667,183.97049439583333,72.0,108.0
274,184.11352322291668,184.54982124166668,71.0,117.0
275,184.69044622291668,185.62434032916667,69.0,114.0
276,186.13404895416667,186.2748255875,72.0,117.0
277,186.42531095416666,186.55759244583334,74.0,111.0
278,186.71657295416665,187.13283489583333,76.0,117.0
279,187.29909695416666,187.7274948125,72.0,114.0
280,187.88162095416666,188.2918149375,74.0,108.0
281,188.46414495416667,188.6049215875,72.0,108.0
282,188.75540695416666,188.9168146458333,74.0,111.0
283,189.04666895416665,189.18987277083332,76.0,108.0
284,189.33793095416667,189.4787075875,77.0,105.0
285,189.62919295416665,189.76754240416665,79.0,105.0
286,189.92045495416667,190.06972672916666,76.0,111.0
287,190.21171695416666,190.5891439625,74.0,114.0
288,190.79424095416667,190.9350175875,72.0,108.0
289,191.08550295416666,191.21778444583333,74.0,108.0
290,191.37676495416665,191.69472597083333,76.0,117.0
291,191.95928895416665,192.3876868125,69.0,111.0
292,192.54181295416666,192.89496812916667,74.0,105.0
293,193.12433695416667,193.28938542083333,72.0,102.0
294,193.41559895416665,193.55880277083332,71.0,111.0
295,193.70686095416667,193.8658414625,69.0,108.0
296,193.99812295416666,194.1243364875,71.0,111.0
297,194.28938495416665,194.42166644583332,69.0,111.0
298,194.58064695416667,194.74205464583332,67.0,108.0
299,194.87190895416666,195.22870490416665,64.0,120.0
300,195.45443295416666,195.62554937916667,72.0,105.0
301,195.74569495416665,195.89253954583333,74.0,108.0
302,196.03695695416667,196.45321889583332,76.0,114.0
303,196.61948095416665,197.0624419125,72.0,111.0
304,197.20200495416665,197.64253872916666,74.0,102.0
305,197.78452895416666,197.91923762916664,72.0,105.0
306,198.07579095416665,198.20807244583332,74.0,111.0
307,198.36705295416667,198.4993344458333,76.0,102.0
308,198.65831495416666,198.7990915875,77.0,108.0
309,198.94957695416664,199.0830720375,79.0,105.0
310,199.24083895416666,199.38404277083333,76.0,102.0
311,199.53210095416665,199.89132408749998,74.0,108.0
312,200.11462495416666,200.2736054625,72.0,108.0
313,200.40588695416665,200.54059562916666,74.0,105.0
314,200.69714895416666,201.0199643375,76.0,114.0
315,201.27967295416667,201.68743975416666,69.0,111.0
316,201.86219695416665,202.22991522916666,74.0,105.0
317,202.44472095416666,202.59156554583333,72.0,108.0
318,202.73598295416667,203.17651672916665,71.0,117.0
319,203.31850695416665,204.26146767916666,69.0,114.0
320,205.35734095416666,205.77360289583333,69.0,111.0
321,205.93986495416667,206.07457362916665,64.0,114.0
322,206.23112695416665,206.8743305375,64.0,111.0
323,207.39617495416667,207.61219427083333,69.0,108.0
324,207.68743695416666,208.07335910416666,71.0,114.0
325,208.26996095416666,208.40466962916665,64.0,114.0
326,208.56122295416665,209.37797014583333,64.0,111.0
327,210.01753295416665,210.40709587916666,72.0,108.0
328,210.60005695416666,210.7553966875,71.0,105.0
329,210.89131895416665,211.57420769583334,72.0,111.0
330,211.502951675,211.8688936125,74.0,117.0
331,212.34111571666665,212.7167194875,71.0,108.0
332,212.92082571666666,213.05488365416667,69.0,111.0
333,213.21068071666667,214.28918286249998,67.0,108.0
334,214.65995571666667,215.12493144583334,69.0,114.0
335,215.23966571666665,215.37976229999998,71.0,102.0
336,215.52952071666667,216.21188769583333,72.0,105.0
337,216.39908571666666,216.68652525833332,74.0,114.0
338,216.68894071666665,216.97638025833334,72.0,100.0
339,216.97879571666667,217.14908552916665,71.0,102.0
340,217.26865071666666,217.4087473,71.0,100.0
341,217.55850571666667,217.74570373749998,71.0,114.0
342,217.84836071666666,218.03072782083333,71.0,105.0
343,218.13821571666665,218.4232398,67.0,108.0
344,218.40753932083334,218.58990642499998,71.0,92.0
345,219.00778071666667,220.4366748125,69.0,114.0
