,start,end,pitch,velocity
0,19.435275631249997,19.69643645,65.0,97.0
1,19.70313288125,20.024561581249998,72.0,112.0
2,19.970990131249998,20.169650925,70.0,100.0
3,20.23884738125,20.55581179375,70.0,97.0
4,20.50670463125,20.8169726125,72.0,97.0
5,20.774561881249998,21.189740618749997,70.0,122.0
6,21.578133631249997,21.69643725,72.0,95.0
7,21.84599088125,22.11384813125,72.0,97.0
8,22.11384813125,22.408491106249997,70.0,102.0
9,22.381705381249997,22.6741162125,68.0,95.0
10,22.64956263125,22.973223474999998,67.0,89.0
11,22.917419881249998,23.700902337499997,65.0,88.0
12,23.98884888125,24.1294739375,63.0,117.0
13,24.25670613125,24.375009749999997,63.0,112.0
14,24.524563381249997,24.7187598875,63.0,127.0
15,24.79242063125,25.044652874999997,65.0,100.0
16,25.06027788125,25.38617086875,67.0,102.0
17,25.328135131249997,25.38617086875,67.0,97.0
18,25.59599238125,25.80581389375,67.0,99.0
19,25.863849631249998,26.01563540625,68.0,112.0
20,26.131706881249997,26.348224825,68.0,112.0
21,26.39956413125,26.55358205,65.0,88.0
22,26.667421381249998,26.8348321625,65.0,79.0
23,26.935278631249997,27.104921556249998,63.0,96.0
24,27.20313588125,28.062511224999998,65.0,95.0
25,28.00670763125,28.062511224999998,65.0,95.0
26,28.274564881249997,28.508939974999997,72.0,117.0
27,28.54242213125,28.660725749999997,70.0,95.0
28,28.810279381249998,28.95760086875,70.0,117.0
29,29.078136631249997,29.241083125,72.0,99.0
30,29.34599388125,29.723226174999997,70.0,117.0
31,29.881708381249997,29.988851281249996,77.0,117.0
32,30.14956563125,30.2500121,77.0,96.0
33,30.417422881249998,30.604922956249997,77.0,112.0
34,30.685280131249996,30.812512324999997,75.0,117.0
35,30.95313738125,31.1294767375,75.0,122.0
36,31.220994631249997,31.433048287499997,70.0,102.0
37,31.488851881249996,32.21206645625,72.0,97.0
38,32.560280881249994,32.665191637499994,63.0,102.0
39,32.82813813125,32.94420960625,63.0,100.0
40,33.09599538125,33.24778115625,63.0,117.0
41,33.36385263125,33.51563840625,65.0,93.0
42,33.631709881249996,33.9776921625,70.0,112.0
43,33.899567131249995,33.9776921625,70.0,117.0
44,34.16742438125,34.348228025,70.0,127.0
45,34.43528163125,34.671888868749996,72.0,102.0
46,34.70313888125,34.91742468125,68.0,127.0
47,34.97099613125,35.17188906875,67.0,117.0
48,35.238853381249996,35.52456778125,65.0,96.0
49,35.506710631249994,35.78349645625,63.0,86.0
50,35.77456788125,36.488853881249995,65.0,93.0
51,36.31028238125,36.488853881249995,65.0,100.0
52,36.57813963125,36.7544789875,68.0,122.0
53,36.845996881249995,36.97546121875,70.0,127.0
54,37.113854131249994,37.22992560625,70.0,112.0
55,37.38171138125,37.500015,70.0,122.0
56,37.64956863125,37.76117581875,68.0,112.0
57,37.91742588125,38.3705510625,70.0,127.0
58,38.453140381249995,38.6785869,70.0,127.0
59,38.72099763125,38.8437655375,72.0,95.0
60,38.98885488125,39.21206925625,72.0,117.0
61,39.25671213125,39.54689081875,70.0,127.0
62,39.52456938125,39.785730199999996,68.0,102.0
63,39.792426631249995,40.095998181249996,67.0,99.0
64,40.060283881249994,40.560284081249996,65.0,102.0
65,40.59599838125,40.70314128125,65.0,97.0
66,40.86385563125,41.06474856875,68.0,127.0
67,41.131712881249996,41.252248643749994,70.0,122.0
68,41.399570131249995,41.51564160625,70.0,127.0
69,41.66742738125,41.803588149999996,70.0,127.0
70,41.93528463125,42.122784706249995,77.0,122.0
71,42.20314188125,42.4509098375,75.0,122.0
72,42.47099913125,42.65849920625,77.0,107.0
73,42.738856381249995,42.93528503125,75.0,117.0
74,43.006713631249994,43.250017299999996,70.0,99.0
75,43.27457088125,44.7857322,72.0,102.0
76,44.88171438125,45.02903586875,65.0,102.0
77,45.14957163125,45.421893168749996,68.0,122.0
78,45.41742888125,45.5491253625,70.0,117.0
79,45.685286131249995,45.81475046875,70.0,127.0
80,45.953143381249994,46.08930415,70.0,117.0
81,46.22100063125,46.352697112499996,68.0,107.0
82,46.48885788125,46.781268712499994,70.0,127.0
83,47.024572381249996,47.2143046,70.0,127.0
84,47.292429631249995,47.4151975375,72.0,93.0
85,47.56028688124999,47.78796554375,72.0,112.0
86,47.82814413125,48.14510854375,70.0,112.0
87,48.09600138125,48.383947924999994,68.0,102.0
88,48.36385863125,48.584840862499995,67.0,95.0
89,48.631715881249995,49.145108943749996,65.0,117.0
90,49.16743038125,49.49332336875,65.0,100.0
91,49.43528763125,49.6026984125,68.0,112.0
92,49.70314488125,49.96653784375,68.0,127.0
93,50.238859381249995,50.399573731249994,68.0,127.0
94,50.506716631249994,50.6205559625,70.0,93.0
95,50.77457388125,51.013413262499995,67.0,117.0
96,51.04243113125,51.328145531249994,67.0,117.0
97,51.578145631249996,51.7723421375,68.0,117.0
98,51.846002881249994,52.3437709375,67.0,122.0
99,52.38171738125,54.274575281249994,65.0,99.0
100,57.471005131249996,57.638415912499994,72.0,122.0
101,57.738862381249994,57.95538032499999,75.0,127.0
102,58.00671963124999,58.1830589875,72.0,102.0
103,58.27457688125,58.397344787499996,77.0,127.0
104,58.54243413125,58.656273462499996,77.0,127.0
105,58.810291381249996,59.017880749999996,77.0,100.0
106,59.078148631249995,59.281273712499996,75.0,117.0
107,59.346005881249994,59.723238175,77.0,112.0
108,59.88172038125,60.122791906249994,77.0,127.0
109,60.14957763125,60.419667024999995,80.0,122.0
110,60.417434881249996,60.54689921874999,75.0,127.0
111,60.685292131249994,60.81029218125,75.0,122.0
112,60.95314938124999,61.15850660624999,75.0,127.0
113,61.22100663125,61.47770316249999,72.0,97.0
114,61.48886388125,61.912971193749996,75.0,127.0
115,62.56029288124999,62.67636435625,70.0,127.0
116,62.82815013125,62.9419894625,70.0,112.0
117,63.09600738125,63.24332886875,70.0,122.0
118,63.363864631249996,63.51118611875,77.0,127.0
119,63.631721881249995,63.839311249999994,75.0,127.0
120,63.89957913124999,64.0937756375,77.0,112.0
121,64.16743638125,64.41743648125,75.0,127.0
122,64.43529363124999,64.59600798125,72.0,99.0
123,64.70315088125,64.87279380625,70.0,107.0
124,64.97100813125,65.73663343749999,72.0,112.0
125,65.50672263125,65.73663343749999,72.0,127.0
126,66.57815163125,66.61833021874999,72.0,122.0
127,66.84600888125,67.0357411,72.0,127.0
128,67.11386613124999,67.205384025,70.0,117.0
129,67.38172338125,67.55583059374999,70.0,122.0
130,67.64958063124999,67.75672353124999,72.0,122.0
131,67.91743788125,68.37279520624999,70.0,127.0
132,68.72100963125,68.81922395625,72.0,127.0
133,68.98886688124999,69.1830633875,72.0,127.0
134,69.25672413125,69.37279560625,70.0,112.0
135,69.52458138125,69.72547431874999,70.0,127.0
136,69.79243863125,69.8348493625,70.0,54.0
137,69.79243863125,69.9419922625,72.0,96.0
138,70.06029588125,70.57592108749999,65.0,112.0
139,71.13172488125,71.2723499375,65.0,107.0
140,71.39958213125,71.544671475,67.0,112.0
141,71.66743938124999,71.883957325,68.0,127.0
142,71.93529663125,72.08261811874999,77.0,122.0
143,72.20315388124999,72.43083254375,75.0,127.0
144,72.47101113125,72.64511834375,77.0,112.0
145,72.73886838125,72.85270771249999,75.0,127.0
146,73.00672563124999,73.27458288125,70.0,112.0
147,73.27458288125,74.1830653875,72.0,102.0
148,74.61386913125,74.7812799125,72.0,122.0
149,74.88172638124999,75.098244325,75.0,127.0
150,75.14958363125,75.3259229875,72.0,102.0
151,75.41744088124999,75.54020878749999,77.0,127.0
152,75.68529813125,75.7991374625,77.0,127.0
153,75.95315538125,76.16074474999999,77.0,100.0
154,76.22101263124999,76.4241377125,75.0,117.0
155,76.48886988125,76.866102175,77.0,112.0
156,77.02458438125,77.26565590624999,77.0,127.0
157,77.29244163125,77.562531025,80.0,122.0
158,77.56029888124999,77.68976321874999,75.0,127.0
159,77.82815613125,77.95315618125,75.0,122.0
160,78.09601338124999,78.30137060624999,75.0,127.0
161,78.36387063125,78.6205671625,72.0,97.0
162,78.63172788125,79.05583519375,75.0,127.0
163,79.70315688125,79.81922835625,70.0,127.0
164,79.97101413125,80.08485346249999,70.0,112.0
165,80.23887138125,80.38619286875,70.0,122.0
166,80.50672863125,80.65405011874999,77.0,127.0
167,80.77458588124999,80.98217525,75.0,127.0
168,81.04244313125,81.23663963749999,77.0,112.0
169,81.31030038124999,81.56030048125,75.0,127.0
170,81.57815763125,81.73887198125,72.0,99.0
171,81.84601488125,82.01565780624999,70.0,107.0
172,82.11387213124999,82.87949743749999,72.0,112.0
173,82.64958663124999,82.87949743749999,72.0,127.0
174,83.72101563125,83.76119421874999,72.0,122.0
175,83.98887288124999,84.1786051,72.0,127.0
176,84.25673013125,84.34824802499999,70.0,117.0
177,84.52458738125,84.69869459374999,70.0,122.0
178,84.79244463124999,84.89958753124999,72.0,122.0
179,85.06030188125,85.51565920624999,70.0,127.0
180,85.86387363124999,85.97548081875,75.0,122.0
181,86.13173088125,86.2544987875,75.0,127.0
182,86.39958813125,86.52012389375,72.0,112.0
183,86.66744538124999,86.82369544375,70.0,117.0
184,86.93530263125,87.08708840624999,72.0,107.0
185,87.20315988124999,87.7187850875,65.0,112.0
186,88.27458888125,88.38842821249999,63.0,127.0
187,88.54244613124999,88.64958903124999,63.0,112.0
188,88.81030338125,88.99333916875,63.0,122.0
189,89.07816063125,89.29467857499999,65.0,97.0
190,89.34601788124999,89.59155369374999,70.0,127.0
191,89.61387513125,89.71655374375,70.0,127.0
192,89.88173238124999,90.03798244375,70.0,127.0
193,90.14958963125,90.33708970625,72.0,112.0
194,90.41744688124999,90.66521483749999,68.0,127.0
195,90.68530413124999,90.94869709375,67.0,89.0
196,90.95316138125,92.37726909374999,65.0,99.0
197,109.43531163124999,109.69647244999999,65.0,97.0
198,109.70316888125,110.02459758124999,72.0,112.0
199,109.97102613124999,110.169686925,70.0,100.0
200,110.23888338124999,110.55584779374999,70.0,97.0
201,110.50674063125,110.81700861249999,72.0,97.0
202,110.77459788124999,111.18977661874999,70.0,122.0
203,111.57816963124999,111.69647325,72.0,95.0
204,111.84602688125,112.11388413124999,72.0,97.0
205,112.11388413124999,112.40852710624999,70.0,102.0
206,112.38174138125,112.67415221249999,68.0,95.0
207,112.64959863124999,112.97325947499999,67.0,89.0
208,112.91745588124999,113.70093833749999,65.0,88.0
209,113.98888488124999,114.12950993749999,63.0,117.0
210,114.25674213125,114.37504575,63.0,112.0
211,114.52459938124998,114.7187958875,63.0,127.0
212,114.79245663124999,115.04468887499999,65.0,100.0
213,115.06031388125,115.38620686875,67.0,102.0
214,115.32817113124999,115.38620686875,67.0,97.0
215,115.59602838125,115.80584989375,67.0,99.0
216,115.86388563124999,116.01567140625,68.0,112.0
217,116.13174288124999,116.348260825,68.0,112.0
218,116.39960013125,116.55361805,65.0,88.0
219,116.66745738124999,116.83486816249999,65.0,79.0
220,116.93531463125,117.10495755624999,63.0,96.0
221,117.20317188124999,118.06254722499999,65.0,95.0
222,118.00674363124999,118.06254722499999,65.0,95.0
223,118.27460088125,118.508975975,72.0,117.0
224,118.54245813124999,118.66076174999999,70.0,95.0
225,118.81031538124999,118.95763686874999,70.0,117.0
226,119.07817263125,119.241119125,72.0,99.0
227,119.34602988124999,119.72326217499999,70.0,117.0
228,119.88174438124999,119.98888728124999,77.0,117.0
229,120.14960163125,120.25004809999999,77.0,96.0
230,120.41745888124998,120.60495895624999,77.0,112.0
231,120.68531613124999,120.812548325,75.0,117.0
232,120.95317338125,121.1295127375,75.0,122.0
233,121.22103063124999,121.4330842875,70.0,102.0
234,121.48888788125,122.21210245625,72.0,97.0
235,122.56031688124999,122.6652276375,63.0,102.0
236,122.82817413125,122.94424560624999,63.0,100.0
237,123.09603138124999,123.24781715625,63.0,117.0
238,123.36388863124999,123.51567440624999,65.0,93.0
239,123.63174588125,123.97772816249999,70.0,112.0
240,123.89960313124999,123.97772816249999,70.0,117.0
241,124.16746038125,124.34826402499999,70.0,127.0
242,124.43531763124999,124.67192486875,72.0,102.0
243,124.70317488124999,124.91746068124999,68.0,127.0
244,124.97103213124998,125.17192506874999,67.0,117.0
245,125.23888938124999,125.52460378125,65.0,96.0
246,125.50674663125,125.78353245624999,63.0,86.0
247,125.77460388124999,126.48888988124999,65.0,93.0
248,126.31031838124999,126.48888988124999,65.0,100.0
249,126.57817563124999,126.75451498749999,68.0,122.0
250,126.84603288125,126.97549721875,70.0,127.0
251,127.11389013124999,127.22996160624999,70.0,112.0
252,127.38174738125,127.50005099999998,70.0,122.0
253,127.64960463124999,127.76121181874998,68.0,112.0
254,127.91746188124999,128.3705870625,70.0,127.0
255,128.45317638125,128.6786229,70.0,127.0
256,128.72103363124998,128.84380153749998,72.0,95.0
257,128.98889088125,129.21210525625,72.0,117.0
258,129.25674813125,129.54692681875,70.0,127.0
259,129.52460538124998,129.78576619999998,68.0,102.0
260,129.79246263125,130.09603418125,67.0,99.0
261,130.06031988125,130.56032008124998,65.0,102.0
262,130.59603438124998,130.70317728125,65.0,97.0
263,130.86389163125,131.06478456874999,68.0,127.0
264,131.13174888125,131.25228464375,70.0,122.0
265,131.39960613124998,131.51567760625,70.0,127.0
266,131.66746338125,131.80362415,70.0,127.0
267,131.93532063125,132.12282070625,77.0,122.0
268,132.20317788124999,132.4509458375,75.0,122.0
269,132.47103513124998,132.65853520624998,77.0,107.0
270,132.73889238125,132.93532103125,75.0,117.0
271,133.00674963125,133.2500533,70.0,99.0
272,133.27460688124998,134.78576819999998,72.0,102.0
273,134.88175038125,135.02907186874998,65.0,102.0
274,135.14960763124998,135.42192916874998,68.0,122.0
275,135.41746488125,135.5491613625,70.0,117.0
276,135.68532213125,135.81478646875,70.0,127.0
277,135.95317938124998,136.08934015,70.0,117.0
278,136.22103663125,136.35273311249998,68.0,107.0
279,136.48889388125,136.7813047125,70.0,127.0
280,137.02460838124998,137.21434059999999,70.0,127.0
281,137.29246563125,137.4152335375,72.0,93.0
282,137.56032288125,137.78800154375,72.0,112.0
283,137.82818013124998,138.14514454374998,70.0,112.0
284,138.09603738125,138.383983925,68.0,102.0
285,138.36389463125,138.58487686249998,67.0,95.0
286,138.63175188124998,139.14514494374998,65.0,117.0
287,139.16746638125,139.49335936875,65.0,100.0
288,139.43532363125,139.60273441249998,68.0,112.0
289,139.70318088124998,139.96657384374998,68.0,127.0
290,140.23889538125,140.39960973125,68.0,127.0
291,140.50675263124998,140.6205919625,70.0,93.0
292,140.77460988125,141.0134492625,67.0,117.0
293,141.04246713125,141.32818153124998,67.0,117.0
294,141.57818163124998,141.7723781375,75.0,117.0
295,141.84603888125,142.34380693749998,75.0,122.0
296,142.38175338124998,144.27461128125,77.0,99.0
297,145.32818313125,145.4955939125,72.0,122.0
298,145.59604038125,145.812558325,75.0,127.0
299,145.86389763124998,146.04023698749998,72.0,102.0
300,146.13175488125,146.25452278749998,77.0,127.0
301,146.39961213125,146.5134514625,77.0,127.0
302,146.66746938125,146.87505875,77.0,100.0
303,146.93532663124998,147.1384517125,75.0,117.0
304,147.20318388125,147.58041617499998,77.0,112.0
305,147.73889838124998,147.97996990624998,77.0,127.0
306,148.00675563125,148.276845025,80.0,122.0
307,148.27461288125,148.40407721875,75.0,127.0
308,148.54247013124998,148.66747018125,75.0,122.0
309,148.81032738124998,149.01568460624998,75.0,127.0
310,149.07818463125,149.33488116249998,72.0,97.0
311,149.34604188125,149.77014919375,75.0,127.0
312,150.41747088124998,150.53354235625,70.0,127.0
313,150.68532813125,150.79916746249998,70.0,112.0
314,150.95318538125,151.10050686875,70.0,122.0
315,151.22104263125,151.36836411874998,77.0,127.0
316,151.48889988124998,151.69648924999998,75.0,127.0
317,151.75675713125,151.9509536375,77.0,112.0
318,152.02461438125,152.27461448124998,75.0,127.0
319,152.29247163124998,152.45318598125,72.0,99.0
320,152.56032888125,152.72997180624998,70.0,107.0
321,152.82818613125,153.5938114375,72.0,112.0
322,153.36390063124998,153.5938114375,72.0,127.0
323,154.43532963125,154.47550821874998,72.0,122.0
324,154.70318688125,154.8929191,72.0,127.0
325,154.97104413124998,155.06256202499998,70.0,117.0
326,155.23890138125,155.41300859375,70.0,122.0
327,155.50675863125,155.61390153124998,72.0,122.0
328,155.77461588124999,156.22997320624998,70.0,127.0
329,156.57818763125,156.67640195624998,72.0,127.0
330,156.84604488124998,157.04024138749998,72.0,127.0
331,157.11390213125,157.22997360624998,70.0,112.0
332,157.38175938125,157.58265231874998,70.0,127.0
333,157.64961663124998,157.6920273625,70.0,54.0
334,157.64961663124998,157.79917026249998,72.0,96.0
335,157.91747388124998,158.43309908749998,65.0,112.0
336,158.98890288125,159.1295279375,65.0,107.0
337,159.25676013125,159.40184947499998,67.0,112.0
338,159.52461738124998,159.741135325,68.0,127.0
339,159.79247463125,159.93979611875,77.0,122.0
340,160.06033188125,160.28801054374998,75.0,127.0
341,160.32818913124999,160.50229634374998,77.0,112.0
342,160.59604638124998,160.70988571249998,75.0,127.0
343,160.86390363125,161.13176088125,70.0,112.0
344,161.13176088125,162.0402433875,72.0,102.0
345,162.47104713124997,162.6384579125,72.0,122.0
346,162.73890438125,162.955422325,75.0,127.0
347,163.00676163125,163.18310098749998,72.0,102.0
348,163.27461888124998,163.39738678749998,77.0,127.0
349,163.54247613125,163.65631546249998,77.0,127.0
350,163.81033338125,164.01792275,77.0,100.0
351,164.07819063124998,164.28131571249997,75.0,117.0
352,164.34604788125,164.72328017499999,77.0,112.0
353,164.88176238124998,165.12283390624998,77.0,127.0
354,165.14961963124998,165.41970902499997,80.0,122.0
355,165.41747688125,165.54694121875,75.0,127.0
356,165.68533413125,165.81033418125,75.0,122.0
357,165.95319138124998,166.15854860624998,75.0,127.0
358,166.22104863125,166.47774516249999,72.0,97.0
359,166.48890588125,166.91301319374998,75.0,127.0
360,167.56033488125,167.67640635625,70.0,127.0
361,167.82819213124998,167.94203146249998,70.0,112.0
362,168.09604938125,168.24337086875,70.0,122.0
363,168.36390663125,168.51122811874998,77.0,127.0
364,168.63176388124998,168.83935325,75.0,127.0
365,168.89962113125,169.0938176375,77.0,112.0
366,169.16747838125,169.41747848125,75.0,127.0
367,169.43533563124998,169.59604998125,72.0,99.0
368,169.70319288124998,169.87283580624998,70.0,107.0
369,169.97105013125,170.7366754375,72.0,112.0
370,170.50676463124998,170.7366754375,72.0,127.0
371,171.57819363124997,171.61837221874998,72.0,122.0
372,171.84605088125,172.03578309999997,72.0,127.0
373,172.11390813124999,172.20542602499998,70.0,117.0
374,172.38176538124998,172.55587259375,70.0,122.0
375,172.64962263125,172.75676553124998,72.0,122.0
376,172.91747988125,173.37283720624998,70.0,127.0
377,173.72105163125,173.83265881875,75.0,122.0
378,173.98890888124998,174.1116767875,75.0,127.0
379,174.25676613124998,174.37730189375,72.0,112.0
380,174.52462338125,174.68087344375,70.0,117.0
381,174.79248063125,174.94426640625,72.0,107.0
382,175.06033788124998,175.57596308749999,65.0,112.0
383,176.13176688124997,176.24560621249998,63.0,127.0
384,176.39962413125,176.50676703124998,63.0,112.0
385,176.66748138124998,176.85051716874997,63.0,122.0
386,176.93533863124998,177.15185657499998,65.0,97.0
387,177.20319588125,177.44873169374998,70.0,127.0
388,177.47105313125,177.57373174375,70.0,127.0
389,177.73891038124998,177.89516044375,70.0,127.0
390,178.00676763125,178.19426770624997,72.0,112.0
391,178.27462488125,178.52239283749998,68.0,127.0
392,178.54248213124998,178.80587509375,67.0,89.0
393,178.81033938124997,180.23444709375,65.0,99.0
394,181.75676913125,181.9241799125,72.0,122.0
395,182.02462638125,182.241144325,75.0,127.0
396,182.29248363124998,182.46882298749998,72.0,102.0
397,182.56034088125,182.68310878749998,77.0,127.0
398,182.82819813125,182.9420374625,77.0,127.0
399,183.09605538124998,183.30364475,77.0,100.0
400,183.36391263124997,183.5670377125,75.0,117.0
401,183.63176988125,184.00900217499998,77.0,112.0
402,184.16748438124998,184.40855590624997,77.0,127.0
403,184.43534163125,184.705431025,80.0,122.0
404,184.70319888125,184.83266321874999,75.0,127.0
405,184.97105613124998,185.09605618125,75.0,122.0
406,185.23891338125,185.44427060625,75.0,127.0
407,185.50677063125,185.76346716249998,72.0,97.0
408,185.77462788124998,186.19873519375,75.0,127.0
409,186.84605688124998,186.96212835625,70.0,127.0
410,187.11391413125,187.22775346249998,70.0,112.0
411,187.38177138125,187.52909286874998,70.0,122.0
412,187.64962863124998,187.79695011874998,77.0,127.0
413,187.91748588124997,188.12507524999998,75.0,127.0
414,188.18534313125,188.3795396375,77.0,112.0
415,188.45320038124999,188.70320048124998,75.0,127.0
416,188.72105763124998,188.88177198124998,72.0,99.0
417,188.98891488125,189.15855780624997,70.0,107.0
418,189.25677213125,190.0223974375,72.0,112.0
419,189.79248663125,190.0223974375,72.0,127.0
420,190.86391563125,190.90409421874998,72.0,122.0
421,191.13177288125,191.3215051,72.0,127.0
422,191.39963013124998,191.49114802499997,70.0,117.0
423,191.66748738125,191.84159459375,70.0,122.0
424,191.93534463125,192.04248753124998,72.0,122.0
425,192.20320188124998,192.65855920624998,70.0,127.0
426,193.00677363124998,193.10498795625,72.0,127.0
427,193.27463088124998,193.4688273875,72.0,127.0
428,193.54248813125,193.65855960624998,70.0,112.0
429,193.81034538125,194.01123831874997,70.0,127.0
430,194.07820263124998,194.1206133625,70.0,54.0
431,194.07820263124998,194.22775626249998,72.0,96.0
432,194.34605988125,194.86168508749998,65.0,112.0
433,195.41748888125,195.5581139375,65.0,107.0
434,195.68534613125,195.83043547499997,67.0,112.0
435,195.95320338124998,196.16972132499998,68.0,127.0
436,196.22106063125,196.36838211875,77.0,122.0
437,196.48891788125,196.71659654374997,75.0,127.0
438,196.75677513124998,196.93088234375,77.0,112.0
439,197.02463238124997,197.13847171249998,75.0,127.0
440,197.29248963125,197.56034688124998,70.0,112.0
441,197.56034688124998,198.4688293875,72.0,102.0
442,198.89963313125,199.0670439125,72.0,122.0
443,199.16749038125,199.384008325,75.0,127.0
444,199.43534763124998,199.61168698749998,72.0,102.0
445,199.70320488124997,199.82597278749998,77.0,127.0
446,199.97106213125,200.0849014625,77.0,127.0
447,200.23891938124999,200.44650875,77.0,100.0
448,200.50677663124998,200.7099017125,75.0,117.0
449,200.77463388125,201.15186617499998,77.0,112.0
450,201.31034838124998,201.55141990624998,77.0,127.0
451,201.57820563124997,201.848295025,80.0,122.0
452,201.84606288125,201.97552721875,75.0,127.0
453,202.11392013124998,202.23892018125,75.0,122.0
454,202.38177738124998,202.58713460624998,75.0,127.0
455,202.64963463125,202.90633116249998,72.0,97.0
456,202.91749188125,203.34159919375,75.0,127.0
457,203.98892088124998,204.10499235625,70.0,127.0
458,204.25677813124997,204.37061746249998,70.0,112.0
459,204.52463538125,204.67195686875,70.0,122.0
460,204.79249263124998,204.93981411874998,77.0,127.0
461,205.06034988124998,205.26793924999998,75.0,127.0
462,205.32820713125,205.5224036375,77.0,112.0
463,205.59606438125,205.84606448124998,75.0,127.0
464,205.86392163124998,206.02463598125,72.0,99.0
465,206.13177888124997,206.30142180624998,70.0,107.0
466,206.39963613125,207.1652614375,72.0,112.0
467,206.93535063124997,207.1652614375,72.0,127.0
468,208.00677963125,208.04695821874998,72.0,122.0
469,208.27463688125,208.4643691,72.0,127.0
470,208.54249413124998,208.63401202499998,70.0,117.0
471,208.81035138124997,208.98445859375,70.0,122.0
472,209.07820863125,209.18535153124998,72.0,122.0
473,209.34606588124998,209.80142320624998,70.0,127.0
474,210.14963763125,210.26124481875,75.0,122.0
475,210.41749488124998,210.54026278749998,75.0,127.0
476,210.68535213124997,210.80588789375,72.0,112.0
477,210.95320938125,211.10945944374998,70.0,117.0
478,211.22106663124998,211.37285240625,72.0,107.0
479,211.48892388124997,212.00454908749998,65.0,112.0
480,212.56035288125,212.67419221249997,63.0,127.0
481,212.82821013125,212.93535303124997,63.0,112.0
482,213.09606738124998,213.27910316875,63.0,122.0
483,213.36392463124997,213.58044257499998,65.0,97.0
484,213.63178188125,213.87731769374997,70.0,127.0
485,213.89963913124998,214.00231774374998,70.0,127.0
486,214.16749638124998,214.32374644375,70.0,127.0
487,214.43535363125,214.62285370625,72.0,112.0
488,214.70321088125,214.95097883749997,68.0,127.0
489,214.97106813124998,215.23446109374999,67.0,89.0
490,215.23892538125,216.66303309375,65.0,99.0
491,216.57821163124999,216.78356885624999,72.0,127.0
492,216.84606888124998,217.0358011,72.0,127.0
493,217.11392613125,217.205444025,70.0,117.0
494,217.38178338125,217.55589059374998,70.0,122.0
495,217.64964063124998,217.75678353125,72.0,122.0
496,217.91749788124997,218.37285520625,70.0,127.0
497,218.72106963124997,218.83267681874997,75.0,122.0
498,218.98892688125,219.11169478749997,75.0,127.0
499,219.25678413125,219.37731989374998,72.0,112.0
500,219.52464138124998,219.68089144374997,70.0,117.0
501,219.79249863125,219.94428440624998,72.0,107.0
502,220.06035588125,220.5759810875,65.0,112.0
503,221.13178488124998,221.2456242125,63.0,127.0
504,221.39964213124998,221.50678503125,63.0,112.0
505,221.66749938125,221.85053516874999,63.0,122.0
506,221.93535663125,222.151874575,65.0,97.0
507,222.20321388124998,222.43089254375,70.0,127.0
508,222.49785685625,222.75232124374998,70.0,127.0
509,222.8527677125,223.23223215,70.0,122.0
510,223.36839291874998,225.07375074375,72.0,122.0
511,225.35500085624997,226.02910826874998,68.0,122.0
512,226.00901897499998,226.6116977875,67.0,95.0
513,226.61616207499998,229.59160969374997,65.0,97.0
