,start,end,pitch,velocity
0,3.3638406312499995,4.24776955625,56.0,63.0
1,2.56026888125,4.341519593749999,41.0,72.0
2,3.09598338125,4.470983931249999,53.0,67.0
3,2.82812613125,4.535716099999999,48.0,56.0
4,4.16741238125,4.7008947375,65.0,52.0
5,3.6316978812499996,4.703126881249999,60.0,66.0
6,4.43526963125,4.716519743749999,56.0,40.0
7,5.238841381249999,5.92187736875,56.0,82.0
8,5.50669863125,6.1205381625,60.0,75.0
9,6.042413131249999,6.2366096375,56.0,56.0
10,4.97098413125,6.24330606875,51.0,52.0
11,4.703126881249999,6.325895387499999,44.0,72.0
12,5.7745558812499995,6.816967012499999,68.0,117.0
13,6.31027038125,6.866074175,63.0,97.0
14,6.578127631249999,6.8973241875,60.0,67.0
15,7.649556631249999,7.910717449999999,58.0,93.0
16,7.113842131249999,8.011163918749999,51.0,71.0
17,7.38169938125,8.01562820625,55.0,72.0
18,6.84598488125,8.2723247375,39.0,95.0
19,8.18527113125,8.3348247625,51.0,64.0
20,7.917413881249999,8.941967862499999,63.0,112.0
21,8.45312838125,8.9687535875,58.0,83.0
22,8.720985631249999,9.031253612499999,55.0,67.0
23,9.792414631249999,10.17634335625,56.0,43.0
24,9.52455738125,10.243307668749999,53.0,72.0
25,8.98884288125,10.620539962499999,41.0,69.0
26,9.25670013125,10.669647125,48.0,59.0
27,10.32812913125,10.709825712499999,53.0,81.0
28,10.595986381249999,11.05357585,56.0,69.0
29,10.863843631249999,11.098218724999999,60.0,66.0
30,10.06027188125,11.113843731249998,65.0,69.0
31,11.667415381249999,12.32366564375,61.0,86.0
32,11.39955813125,12.328129931249999,58.0,85.0
33,12.470987131249998,12.598219324999999,58.0,93.0
34,11.13170088125,12.6428622,46.0,90.0
35,11.93527263125,12.738844381249999,65.0,73.0
36,12.20312988125,13.296880318749999,70.0,102.0
37,13.00670163125,13.30580889375,65.0,63.0
38,12.738844381249999,13.348219624999999,61.0,82.0
39,13.81027338125,14.497773656249999,53.0,88.0
40,14.07813063125,14.522327237499999,56.0,51.0
41,14.613845131249999,14.808041637499999,53.0,96.0
42,13.274558881249998,14.823666643749998,41.0,69.0
43,13.542416131249999,14.848220224999999,48.0,53.0
44,15.149559631249998,15.3437561375,60.0,54.0
45,14.345987881249998,15.379470437499998,65.0,69.0
46,14.88170238125,15.39955973125,56.0,77.0
47,15.95313138125,16.47098873125,55.0,85.0
48,16.22098863125,16.52009589375,58.0,99.0
49,15.685274131249999,16.580363775,51.0,97.0
50,15.417416881249999,16.955363925,39.0,97.0
51,16.75670313125,17.01786395,51.0,97.0
52,17.024560381249998,17.5357213,58.0,100.0
53,17.29241763125,17.5491141625,55.0,88.0
54,16.48884588125,17.5491141625,63.0,127.0
55,18.09598938125,18.89509684375,53.0,89.0
56,17.56027488125,19.133936225,41.0,85.0
57,17.828132131249998,19.21652554375,48.0,67.0
58,18.631703881249997,19.62723999375,68.0,100.0
59,18.36384663125,19.72991860625,60.0,63.0
60,19.970990131249998,20.852686912499998,58.0,88.0
61,20.23884738125,20.93974051875,61.0,78.0
62,21.04241913125,21.212062056249998,58.0,81.0
63,20.50670463125,21.294651374999997,65.0,68.0
64,19.70313288125,21.296883518749997,46.0,107.0
65,20.774561881249998,21.8437587375,70.0,78.0
66,21.31027638125,21.89956233125,61.0,79.0
67,22.381705381249997,23.341527193749997,53.0,79.0
68,22.11384813125,23.366080774999997,48.0,53.0
69,21.84599088125,23.3794736375,41.0,70.0
70,22.64956263125,23.410723649999998,56.0,44.0
71,22.917419881249998,24.008938174999997,65.0,69.0
72,24.524563381249997,25.149563631249997,51.0,85.0
73,24.79242063125,25.258938675,55.0,67.0
74,24.25670613125,25.450903037499998,46.0,53.0
75,25.328135131249997,25.504474487499998,51.0,81.0
76,23.98884888125,25.508938774999997,39.0,69.0
77,25.59599238125,26.174117612499998,58.0,88.0
78,25.06027788125,26.203135481249998,63.0,102.0
79,26.935278631249997,27.395100243749997,56.0,46.0
80,26.667421381249998,27.491082425,53.0,78.0
81,26.131706881249997,27.7455468125,41.0,70.0
82,26.39956413125,28.0848326625,48.0,57.0
83,27.20313588125,28.122779106249997,65.0,69.0
84,28.54242213125,28.915190137499998,53.0,69.0
85,29.078136631249997,29.466529643749997,53.0,64.0
86,28.274564881249997,29.723226174999997,46.0,78.0
87,28.810279381249998,30.4062621625,58.0,97.0
88,29.34599388125,30.412958593749998,61.0,107.0
89,30.95313738125,31.616084074999996,56.0,93.0
90,31.220994631249997,31.656262662499998,60.0,72.0
91,31.75670913125,31.872780606249997,56.0,86.0
92,30.685280131249996,31.8794770375,51.0,65.0
93,30.417422881249998,31.93081634375,44.0,88.0
94,31.488851881249996,32.56920945625,68.0,107.0
95,32.02456638125,32.58260231875,63.0,79.0
96,33.09599538125,33.7142992,51.0,85.0
97,33.36385263125,33.741084924999996,55.0,66.0
98,32.82813813125,34.055817193749995,46.0,61.0
99,32.560280881249994,34.0759064875,39.0,81.0
100,33.899567131249995,34.113852931249994,51.0,93.0
101,33.631709881249996,34.68974601875,63.0,127.0
102,34.43528163125,34.7098353125,55.0,82.0
103,34.16742438125,34.71653174375,58.0,100.0
104,35.506710631249994,35.883942925,56.0,95.0
105,35.238853381249996,35.910728649999996,53.0,90.0
106,36.04242513125,36.258943075,53.0,82.0
107,34.97099613125,36.696443249999994,48.0,77.0
108,34.70313888125,36.76787185,41.0,74.0
109,35.77456788125,36.799121862499995,65.0,77.0
110,36.31028238125,36.82367544375,60.0,67.0
111,36.57813963125,36.841532593749996,56.0,76.0
112,37.38171138125,38.040193787499994,58.0,75.0
113,37.113854131249994,38.12278310625,53.0,69.0
114,38.185283131249996,38.453140381249995,53.0,59.0
115,36.845996881249995,38.473229675,46.0,96.0
116,37.64956863125,38.51787255,61.0,58.0
117,37.91742588125,38.97992630625,65.0,77.0
118,38.453140381249995,39.013408462499996,58.0,85.0
119,39.792426631249995,40.2187660875,56.0,58.0
120,39.52456938125,40.23439109375,53.0,88.0
121,40.32814113125,40.6473376875,53.0,71.0
122,38.98885488125,40.69421270625,41.0,69.0
123,39.25671213125,40.772337737499996,48.0,65.0
124,40.060283881249994,41.078141431249996,65.0,72.0
125,40.59599838125,41.095998581249994,56.0,96.0
126,41.399570131249995,41.46207015625,53.0,61.0
127,41.131712881249996,41.73439169375,46.0,90.0
128,41.66742738125,42.18974901875,58.0,112.0
129,41.93528463125,42.205374025,61.0,99.0
130,42.47099913125,42.8214457,55.0,77.0
131,42.738856381249995,43.18082084375,58.0,112.0
132,43.006713631249994,43.203142281249995,55.0,72.0
133,42.20314188125,43.205374424999995,39.0,107.0
134,43.54242813125,43.91742828125,56.0,85.0
135,43.81028538125,44.16296409375,63.0,112.0
136,43.27457088125,44.348232024999994,44.0,102.0
137,44.345999881249995,44.504482087499994,55.0,78.0
138,44.345999881249995,44.93975011875,60.0,77.0
139,44.345999881249995,45.294660975,48.0,74.0
140,44.345999881249995,45.34153599375,64.0,86.0
141,45.14957163125,45.377250293749995,60.0,77.0
142,44.88171438125,45.41073245,55.0,92.0
143,45.685286131249995,46.58930435,53.0,66.0
144,45.953143381249994,46.78573299999999,58.0,122.0
145,45.41742888125,47.17189386875,46.0,90.0
146,46.22100063125,47.2098403125,61.0,79.0
147,46.48885788125,47.473233275,65.0,67.0
148,47.024572381249996,47.5312690125,58.0,97.0
149,46.75671513125,47.542429731249996,53.0,82.0
150,48.09600138125,48.7276980625,53.0,82.0
151,48.36385863125,48.7544837875,56.0,67.0
152,48.899573131249994,49.093769637499996,53.0,83.0
153,47.56028688124999,49.160733949999994,41.0,63.0
154,47.82814413125,49.16296609374999,48.0,62.0
155,48.631715881249995,49.59600198125,65.0,70.0
156,49.16743038125,49.6384127125,56.0,85.0
157,49.70314488125,50.4330558875,37.0,102.0
158,50.506716631249994,50.589305949999996,39.0,33.0
159,49.971002131249996,50.71653814374999,49.0,82.0
160,50.506716631249994,50.72993100625,56.0,41.0
161,50.238859381249995,50.78350245625,53.0,86.0
162,50.77457388125,51.325913387499995,39.0,93.0
163,51.04243113125,51.383949124999994,51.0,76.0
164,51.31028838125,51.8214493,58.0,117.0
165,52.64957463125,53.0000212,56.0,68.0
166,52.38171738125,53.035735499999994,53.0,71.0
167,53.185289131249995,53.3705570625,53.0,88.0
168,51.846002881249994,53.694217906249996,41.0,82.0
169,52.11386013124999,54.0312716125,48.0,66.0
170,53.453146381249994,55.60046866875,60.0,62.0
171,53.72100363125,55.613861531249995,56.0,85.0
172,52.917431881249996,55.613861531249995,65.0,68.0
173,53.98886088125,55.718772287499995,41.0,71.0
174,56.131718881249995,56.346004681249994,56.0,117.0
175,56.131718881249995,56.3705582625,53.0,99.0
176,56.131718881249995,56.37502255,60.0,97.0
177,56.131718881249995,56.390647556249995,29.0,82.0
178,56.131718881249995,56.41073685,41.0,92.0
179,56.93529063125,57.212076456249996,56.0,127.0
180,56.93529063125,57.218772887499995,60.0,112.0
181,56.93529063125,57.23216574999999,53.0,100.0
182,56.93529063125,57.2455586125,41.0,102.0
183,56.93529063125,57.267880049999995,29.0,93.0
184,58.810291381249996,59.232166549999995,53.0,102.0
185,59.078148631249995,59.4241309125,56.0,112.0
186,59.61386313124999,59.94645255,56.0,117.0
187,58.27457688125,60.011184718749995,41.0,83.0
188,58.54243413125,60.07814903124999,48.0,107.0
189,59.346005881249994,60.30582769375,65.0,92.0
190,59.88172038125,60.38618486874999,60.0,72.0
191,60.14957763125,60.3973455875,56.0,127.0
192,60.685292131249994,61.049131562499994,56.0,90.0
193,60.95314938124999,61.41743528124999,60.0,64.0
194,61.22100663125,61.5402031875,56.0,99.0
195,61.756721131249996,61.9509176375,51.0,96.0
196,60.417434881249996,62.031274812499994,44.0,100.0
197,61.48886388125,62.080381974999995,63.0,127.0
198,61.48886388125,62.2143106,60.0,92.0
199,62.024578381249995,62.47547141875,56.0,112.0
200,62.292435631249994,62.50672143124999,60.0,78.0
201,62.292435631249994,62.5223464375,63.0,127.0
202,63.09600738125,63.689757618749994,55.0,112.0
203,63.363864631249996,63.74332906874999,58.0,127.0
204,62.82815013125,64.08261491875,51.0,95.0
205,62.56029288124999,64.18306138749999,39.0,112.0
206,63.89957913124999,64.27457928125,46.0,77.0
207,63.631721881249995,64.53797224374999,63.0,127.0
208,64.16743638125,64.6473472875,58.0,127.0
209,64.43529363124999,64.7277044625,55.0,100.0
210,65.23886538125,65.6830619875,53.0,97.0
211,65.50672263125,65.8527049125,56.0,86.0
212,64.97100813125,65.91074065,48.0,78.0
213,66.04243713125,66.39065155624999,48.0,122.0
214,64.70315088125,66.4330622875,41.0,86.0
215,65.77457988124999,66.80136600624999,65.0,100.0
216,66.57815163125,66.81029458124999,60.0,66.0
217,66.31029438124999,66.84600888125,56.0,112.0
218,67.64958063124999,67.96208075624999,53.0,89.0
219,67.38172338125,68.026812925,46.0,102.0
220,67.11386613124999,68.27011659374999,41.0,36.0
221,66.84600888125,68.31475946875,34.0,112.0
222,68.18529513125,68.40850950625,46.0,112.0
223,67.91743788125,68.4598488125,58.0,122.0
224,67.91743788125,68.92413471249999,61.0,127.0
225,68.45315238124999,68.98440259374999,53.0,100.0
226,68.72100963125,69.008956175,58.0,127.0
227,69.52458138125,69.9285994,53.0,95.0
228,69.79243863125,70.133956625,56.0,83.0
229,69.25672413125,70.2187780875,48.0,71.0
230,70.32815313124999,70.47993890625,48.0,96.0
231,68.98886688124999,70.50002819999999,41.0,83.0
232,70.06029588125,70.63172468124999,60.0,72.0
233,70.06029588125,70.98886768125,65.0,93.0
234,70.86386763124999,71.00449268749999,60.0,66.0
235,70.59601038125,71.01342126249999,56.0,112.0
236,71.39958213125,71.72101083125,53.0,79.0
237,71.66743938124999,72.04467167499999,61.0,117.0
238,71.93529663125,72.14288599999999,53.0,97.0
239,71.13172488125,72.20315388124999,37.0,122.0
240,72.47101113125,72.83931485,51.0,89.0
241,72.20315388124999,72.89511844375,39.0,122.0
242,73.00672563124999,73.14511854375,51.0,122.0
243,72.73886838125,73.151814975,58.0,107.0
244,73.54244013124999,73.88619026875,56.0,112.0
245,74.07815463125,74.11386893125,56.0,56.0
246,73.81029738125,74.14958323124999,63.0,127.0
247,73.27458288125,74.31699401249999,44.0,122.0
248,74.34601188124999,74.50672623125,55.0,102.0
249,74.34601188124999,74.92190496875,60.0,100.0
250,74.34601188124999,75.04020858749999,48.0,96.0
251,74.88172638124999,75.30136940624999,55.0,102.0
252,75.14958363125,75.3973515875,60.0,112.0
253,74.34601188124999,75.4062801625,64.0,100.0
254,75.95315538125,76.205387625,53.0,97.0
255,76.22101263124999,76.4509234375,56.0,112.0
256,75.68529813125,76.59378063749999,48.0,93.0
257,75.41744088124999,76.96654864374999,41.0,86.0
258,76.75672713124999,77.00226294375,48.0,96.0
259,77.02458438125,77.4777095625,56.0,122.0
260,77.29244163125,77.51788814999999,53.0,100.0
261,76.48886988125,77.51788814999999,60.0,107.0
262,77.82815613125,78.276817025,51.0,61.0
263,78.36387063125,78.73440649375,51.0,89.0
264,78.09601338124999,78.74333506875,56.0,112.0
265,77.56029888124999,79.02012089374999,44.0,122.0
266,78.89958513124999,79.0491387625,51.0,89.0
267,79.16744238125,79.71208545625,56.0,97.0
268,78.63172788125,79.72994260624999,63.0,127.0
269,79.43529963124999,79.741103325,60.0,79.0
270,80.50672863125,80.8527109125,55.0,93.0
271,80.23887138125,80.8616394875,51.0,99.0
272,79.70315688125,81.22324677499999,39.0,68.0
273,79.97101413125,81.25003249999999,46.0,69.0
274,81.04244313125,81.25449678749999,51.0,100.0
275,80.77458588124999,81.68530053125,63.0,127.0
276,81.31030038124999,81.7902112875,58.0,127.0
277,81.57815763125,81.87949703749999,55.0,112.0
278,82.38172938125,82.73440809374999,53.0,95.0
279,82.11387213124999,83.05137250624999,48.0,99.0
280,82.91744388125,83.455390525,56.0,117.0
281,81.84601488125,83.61610487499999,41.0,90.0
282,83.18530113125,83.7634263625,48.0,102.0
283,82.64958663124999,83.86833711874999,60.0,127.0
284,83.45315838124999,84.0580693375,53.0,99.0
285,83.72101563125,84.080390775,56.0,117.0
286,84.25673013125,84.61833741874999,53.0,88.0
287,84.79244463124999,85.1205697625,53.0,89.0
288,85.06030188125,85.36387343125,58.0,127.0
289,85.32815913124999,85.68976641875,53.0,58.0
290,83.98887288124999,85.97548081875,46.0,127.0
291,84.52458738125,86.03351655624999,61.0,127.0
292,85.59601638125,86.04244513124999,58.0,127.0
293,85.86387363124999,86.08262371875,53.0,95.0
294,86.13173088125,86.90851690625,36.0,89.0
295,86.39958813125,86.95315978125,43.0,96.0
296,86.66744538124999,87.19869559374999,48.0,112.0
297,86.93530263125,87.21208845624999,63.0,127.0
298,87.47101713125,87.97771376249999,48.0,99.0
299,87.20315988124999,87.98664233749999,41.0,76.0
300,88.00673163124999,88.29691031875,56.0,127.0
301,87.73887438125,88.31923175624999,60.0,117.0
302,88.54244613124999,88.91967842499999,49.0,100.0
303,89.07816063125,89.21878568749999,56.0,127.0
304,88.27458888125,89.23887498124999,37.0,99.0
305,88.81030338125,89.29467857499999,53.0,102.0
306,89.34601788124999,89.8884288125,39.0,112.0
307,89.61387513125,89.9777145625,51.0,95.0
308,89.88173238124999,90.35048256875,58.0,127.0
309,90.14958963125,90.35494685625,51.0,117.0
310,90.95316138125,91.33932225,53.0,97.0
311,91.22101863124999,91.48441159375,56.0,122.0
312,90.68530413124999,91.60717949999999,48.0,90.0
313,91.75673313124999,92.41075124999999,48.0,97.0
314,90.41744688124999,92.56030488124999,41.0,88.0
315,92.29244763125,92.56030488124999,53.0,75.0
316,92.02459038125,92.56030488124999,56.0,112.0
317,91.48887588125,92.56030488124999,60.0,107.0
318,93.37503735,94.25673413125,56.0,63.0
319,92.5714656,94.35048416874999,41.0,72.0
320,93.1071801,94.48218064999999,53.0,67.0
321,92.83932284999999,94.54691281874999,48.0,56.0
322,94.17860909999999,94.70985931249999,65.0,52.0
323,93.64289459999999,94.7143236,60.0,66.0
324,94.44646635,94.7277164625,56.0,40.0
325,95.2500381,95.93084194375,56.0,82.0
326,95.51789534999999,96.12950273749999,60.0,75.0
327,96.05360984999999,96.24780635625,56.0,56.0
328,94.98218084999999,96.25450278749999,51.0,52.0
329,94.7143236,96.33709210625,44.0,72.0
330,95.7857526,96.82816373124999,68.0,117.0
331,96.32146709999999,96.87727089375,63.0,97.0
332,96.58932435,96.9062887625,60.0,67.0
333,97.66075335,97.91968202499999,58.0,93.0
334,97.12503885,98.02012849375,51.0,71.0
335,97.39289609999999,98.026824925,55.0,72.0
336,96.85718159999999,98.2812893125,39.0,95.0
337,98.19646784999999,98.34602148124999,51.0,64.0
338,97.9286106,98.95093243749999,63.0,112.0
339,98.4643251,98.97995030624999,58.0,83.0
340,98.73218234999999,99.04021818749999,55.0,67.0
341,99.80361135,100.18754007499999,56.0,43.0
342,99.53575409999999,100.25450438749999,53.0,72.0
343,99.0000396,100.63173668124999,41.0,69.0
344,99.26789685,100.68084384375,48.0,59.0
345,100.33932585,100.7187902875,53.0,81.0
346,100.60718309999999,101.06477256874999,56.0,69.0
347,100.87504034999999,101.10941544375,60.0,66.0
348,100.07146859999999,101.12504044999999,65.0,69.0
349,101.6786121,102.33263021875,61.0,86.0
350,101.41075484999999,102.33709450625,58.0,85.0
351,102.48218385,102.6071839,58.0,93.0
352,101.1428976,102.65405891875,46.0,90.0
353,101.94646934999999,102.74780895625,65.0,73.0
354,102.21432659999999,103.30584489374999,70.0,102.0
355,103.01789835,103.31477346874999,65.0,63.0
356,102.75004109999999,103.35718419999999,61.0,82.0
357,103.8214701,104.50673823125,53.0,88.0
358,104.08932734999999,104.53129181249999,56.0,51.0
359,104.62504184999999,104.81923835625,53.0,96.0
360,103.28575559999999,104.83486336249999,41.0,69.0
361,103.55361285,104.85941694374999,48.0,53.0
362,105.16075634999999,105.35272071249999,60.0,54.0
363,104.3571846,105.39066715624999,65.0,69.0
364,104.8928991,105.40852430624999,56.0,77.0
365,105.96432809999999,106.47995330625,55.0,85.0
366,106.23218535,106.5312926125,58.0,99.0
367,105.69647085,106.58932834999999,51.0,97.0
368,105.42861359999999,106.96656064374999,39.0,97.0
369,106.76789984999999,107.026828525,51.0,97.0
370,107.0357571,107.544685875,58.0,100.0
371,106.50004259999999,107.5580787375,63.0,127.0
372,107.30361434999999,107.56031088124999,55.0,88.0
373,108.10718609999999,108.90406141874999,53.0,89.0
374,107.5714716,109.14513294374999,41.0,85.0
375,107.83932884999999,109.22549011874999,48.0,67.0
376,108.64290059999999,109.63620456874999,68.0,100.0
377,108.37504335,109.73888318124999,60.0,63.0
378,109.98218684999999,110.86388363124999,58.0,88.0
379,110.2500441,110.95093723749999,61.0,78.0
380,111.05361584999999,111.22102663125,58.0,81.0
381,109.71432959999999,111.30584809374999,46.0,107.0
382,110.51790134999999,111.30584809374999,65.0,68.0
383,110.7857586,111.85495545625,70.0,78.0
384,111.32147309999999,111.91075905,61.0,79.0
385,112.39290209999999,113.3527239125,53.0,79.0
386,112.12504485,113.37504535,48.0,53.0
387,111.85718759999999,113.39067035625,41.0,70.0
388,112.66075934999999,113.42192036875,56.0,44.0
389,112.9286166,114.01790274999999,65.0,69.0
390,114.53576009999999,115.16076034999999,51.0,85.0
391,114.80361735,115.27013539375,55.0,67.0
392,114.26790285,115.46209975625,46.0,53.0
393,115.33933185,115.51567120624999,51.0,81.0
394,114.00004559999999,115.51790335,39.0,69.0
395,115.60718909999999,116.18308218749999,58.0,88.0
396,115.07147459999999,116.21210005625,63.0,102.0
397,116.94647534999999,117.4062969625,56.0,46.0
398,116.6786181,117.50227914374999,53.0,78.0
399,116.1429036,117.75451138749999,41.0,70.0
400,116.41076084999999,118.09379723749998,48.0,57.0
401,117.21433259999999,118.133975825,65.0,69.0
402,118.55361884999999,118.9241547125,53.0,69.0
403,119.08933334999999,119.47549421874999,53.0,64.0
404,118.28576159999999,119.73219074999999,46.0,78.0
405,118.8214761,120.41522673749999,58.0,97.0
406,119.3571906,120.42192316874998,61.0,107.0
407,120.96433409999999,121.62728079374999,56.0,93.0
408,121.23219135,121.66745938125,60.0,72.0
409,121.76790584999999,121.88174518125,56.0,86.0
410,120.69647685,121.88844161249999,51.0,65.0
411,120.42861959999999,121.9420130625,44.0,88.0
412,121.50004859999999,122.57817403124999,68.0,107.0
413,122.0357631,122.59156689374998,63.0,79.0
414,123.10719209999999,123.72326377499999,51.0,85.0
415,123.37504935,123.75228164375,55.0,66.0
416,122.83933484999999,124.06701391249999,46.0,61.0
417,122.5714776,124.08487106249999,39.0,81.0
418,123.91076385,124.12281750624999,51.0,93.0
419,123.64290659999999,124.69871059375,63.0,127.0
420,124.44647834999999,124.72103203124999,55.0,82.0
421,124.17862109999999,124.7277284625,58.0,100.0
422,125.51790734999999,125.89513964374999,56.0,95.0
423,125.2500501,125.92192536875,53.0,90.0
424,126.05362184999998,126.27013979374999,53.0,82.0
425,124.98219284999999,126.705407825,48.0,77.0
426,124.71433559999998,126.77683642499998,41.0,74.0
427,125.7857646,126.81031858124999,65.0,77.0
428,126.32147909999999,126.83264001874998,60.0,67.0
429,126.58933635,126.85049716875,56.0,76.0
430,127.39290809999999,128.04915836249998,58.0,75.0
431,127.12505085,128.13397982499998,53.0,69.0
432,128.19647985,128.46210495625,53.0,59.0
433,126.85719359999999,128.48442639375,46.0,96.0
434,127.66076534999999,128.526837125,61.0,58.0
435,127.9286226,128.99112302499998,65.0,77.0
436,128.4643371,129.02460518125,58.0,85.0
437,129.80362334999998,130.2277306625,56.0,58.0
438,129.5357661,130.24335566874998,53.0,88.0
439,130.33933785,130.6563022625,53.0,71.0
440,129.00005159999998,130.705409425,41.0,69.0
441,129.26790885,130.78353445624998,48.0,65.0
442,130.0714806,131.08710600625,65.0,72.0
443,130.60719509999998,131.1071953,56.0,96.0
444,131.41076685,131.47103473125,53.0,61.0
445,131.1429096,131.74558841249998,46.0,90.0
446,131.67862409999998,132.20094573749998,58.0,112.0
447,131.94648135,132.2143386,61.0,99.0
448,132.48219584999998,132.83264241875,55.0,77.0
449,132.7500531,133.18978541874998,58.0,112.0
450,132.2143386,133.214339,39.0,107.0
451,133.01791035,133.214339,55.0,72.0
452,133.55362484999998,133.92862499999998,56.0,85.0
453,133.8214821,134.17192866874998,63.0,112.0
454,133.28576759999999,134.35942874375,44.0,102.0
455,134.35719659999998,134.51567880624998,55.0,78.0
456,134.35719659999998,134.9509468375,60.0,77.0
457,134.35719659999998,135.30362555,48.0,74.0
458,134.35719659999998,135.3527327125,64.0,86.0
459,135.16076834999998,135.38621486875,60.0,77.0
460,134.8929111,135.42192916874998,55.0,92.0
461,135.69648285,136.60050106875,53.0,66.0
462,135.9643401,136.794697575,58.0,122.0
463,135.4286256,137.1830905875,46.0,90.0
464,136.23219734999998,137.2188048875,61.0,79.0
465,136.5000546,137.48219784999998,65.0,67.0
466,137.03576909999998,137.54246573125,58.0,97.0
467,136.76791185,137.55139430625,53.0,82.0
468,138.10719809999998,138.7366626375,53.0,82.0
469,138.37505535,138.76568050625,56.0,67.0
470,138.91076984999998,139.10496635625,53.0,83.0
471,137.5714836,139.17193066874998,41.0,63.0
472,137.83934084999999,139.1741628125,48.0,62.0
473,138.6429126,139.6071987,65.0,70.0
474,139.1786271,139.64960943124998,56.0,85.0
475,139.71434159999998,140.44202046249998,37.0,102.0
476,140.51791335,140.598270525,39.0,33.0
477,139.98219885,140.72550271875,49.0,82.0
478,140.51791335,140.73889558124998,56.0,41.0
479,140.2500561,140.79469917499998,53.0,86.0
480,140.78577059999998,141.3348779625,39.0,93.0
481,141.05362785,141.39514584375,51.0,76.0
482,141.3214851,141.83041387499998,58.0,117.0
483,142.38175338124998,143.0313072125,48.0,97.0
484,142.91746788125,143.30586089374998,56.0,107.0
485,143.18532513124998,143.52014669374998,48.0,93.0
486,141.84603888125,143.62728959375,41.0,85.0
487,143.45318238125,143.77014679375,53.0,100.0
488,142.91746788125,143.78800394375,60.0,99.0
489,143.72103963125,143.8170218125,56.0,100.0
490,143.98889688124999,144.2277362625,46.0,127.0
491,143.98889688124999,144.27014699375,58.0,127.0
492,144.25675413124998,144.40630776249998,56.0,127.0
493,144.25675413124998,144.40853990624998,44.0,100.0
494,144.52461138125,144.794700775,55.0,117.0
495,144.52461138125,144.80139720625,43.0,97.0
496,144.79246863125,145.10943304375,41.0,92.0
497,144.79246863125,145.11836161875,53.0,107.0
498,146.6786301,147.098273125,53.0,102.0
499,146.94648734999998,147.29023748749998,56.0,112.0
500,147.48220185,147.81479126874999,56.0,117.0
501,146.14291559999998,147.87729129374998,41.0,83.0
502,146.41077285,147.94425560624998,48.0,107.0
503,147.21434459999998,148.1741664125,65.0,92.0
504,147.7500591,148.25229144374998,60.0,72.0
505,148.01791634999998,148.2634521625,56.0,127.0
506,148.55363085,148.91523813749998,56.0,90.0
507,148.82148809999998,149.28577399999998,60.0,64.0
508,149.08934535,149.40854190624998,56.0,99.0
509,149.62505984999999,149.8170242125,51.0,96.0
510,148.2857736,149.89961353125,44.0,100.0
511,149.3572026,149.94872069374998,63.0,127.0
512,149.3572026,150.08041717499998,60.0,92.0
513,149.89291709999998,150.3438101375,56.0,112.0
514,150.16077435,150.37282800625,60.0,78.0
515,150.16077435,150.38845301249998,63.0,127.0
516,150.9643461,151.5580963375,55.0,112.0
517,151.23220335,151.61166778749998,58.0,127.0
518,150.69648884999998,151.94872149374999,51.0,95.0
519,150.4286316,152.04916796249998,39.0,112.0
520,151.76791784999998,152.14291799999998,46.0,77.0
521,151.50006059999998,152.40407881874998,63.0,127.0
522,152.0357751,152.5134538625,58.0,127.0
523,152.30363235,152.59604318125,55.0,100.0
524,153.1072041,153.55140070624998,53.0,97.0
525,153.37506134999998,153.72104363124998,56.0,86.0
526,152.83934685,153.77907936875,48.0,78.0
527,153.91077585,154.25675813125,48.0,122.0
528,152.57148959999998,154.29916886249998,41.0,86.0
529,153.6429186,154.669704725,65.0,100.0
530,154.44649034999998,154.67640115625,60.0,66.0
531,154.17863309999998,154.7143476,56.0,112.0
532,155.51791935,155.83041947499999,53.0,89.0
533,155.25006209999998,155.89291949999998,46.0,102.0
534,154.98220485,156.13845531249999,41.0,36.0
535,154.7143476,156.18309818749998,34.0,112.0
536,156.05363384999998,156.27461608125,46.0,112.0
537,155.7857766,156.3259553875,58.0,122.0
538,155.7857766,156.79247343125,61.0,127.0
539,156.3214911,156.85050916875,53.0,100.0
540,156.58934835,156.87729489375,58.0,127.0
541,157.3929201,157.79693811874998,53.0,95.0
542,157.66077735,158.00229534374998,56.0,83.0
543,157.12506284999998,158.08711680624998,48.0,71.0
544,158.19649185,158.34604548125,48.0,96.0
545,156.8572056,158.36836691874998,41.0,83.0
546,157.92863459999998,158.49783125624998,60.0,72.0
547,157.92863459999998,158.8572064,65.0,93.0
548,158.73220634999998,158.87283140625,60.0,66.0
549,158.4643491,158.88175998124999,56.0,112.0
550,159.26792085,159.58711740625,53.0,79.0
551,159.5357781,159.91301039375,61.0,117.0
552,159.80363534999998,160.00899257499998,53.0,97.0
553,159.00006359999998,160.06926045625,37.0,122.0
554,160.33934985,160.705421425,51.0,89.0
555,160.0714926,160.76345716249998,39.0,122.0
556,160.87506435,161.0134572625,51.0,122.0
557,160.60720709999998,161.01792154999998,58.0,107.0
558,161.41077884999999,161.75452898749998,56.0,112.0
559,161.94649335,161.98220765,56.0,56.0
560,161.67863609999998,162.01568980624998,63.0,127.0
561,161.1429216,162.18533273124999,44.0,122.0
562,162.2143506,162.37506495,55.0,102.0
563,162.2143506,162.78801154375,60.0,100.0
564,162.2143506,162.90854730625,48.0,96.0
565,162.7500651,163.169708125,55.0,102.0
566,163.01792235,163.2634581625,60.0,112.0
567,162.2143506,163.2723867375,64.0,100.0
568,163.8214941,164.07372634375,53.0,97.0
569,164.08935135,164.31926215624998,56.0,112.0
570,163.55363684999998,164.46211935624999,48.0,93.0
571,163.28577959999998,164.83265521874998,41.0,86.0
572,164.62506585,164.87060166249998,48.0,96.0
573,164.8929231,165.3438161375,56.0,122.0
574,165.16078034999998,165.38622686875,53.0,100.0
575,164.35720859999998,165.38622686875,60.0,107.0
576,165.69649485,166.14515574375,51.0,61.0
577,166.23220934999998,166.6027452125,51.0,89.0
578,165.96435209999999,166.60944164375,56.0,112.0
579,165.4286376,166.88622746874998,44.0,122.0
580,166.76792385,166.91524533749998,51.0,89.0
581,167.03578109999998,167.580424175,56.0,97.0
582,166.5000666,167.59604918124998,63.0,127.0
583,167.30363835,167.6072099,60.0,79.0
584,168.37506735,168.7188174875,55.0,93.0
585,168.10721009999997,168.7277460625,51.0,99.0
586,167.5714956,169.09158549375,39.0,68.0
587,167.83935284999998,169.11837121874999,46.0,69.0
588,168.91078184999998,169.1206033625,51.0,100.0
589,168.6429246,169.55140710625,63.0,127.0
590,169.1786391,169.65855000624998,58.0,127.0
591,169.44649635,169.7456036125,55.0,112.0
592,170.2500681,170.6027468125,53.0,95.0
593,169.98221085,170.91747908124998,48.0,99.0
594,170.78578259999998,171.3214971,56.0,117.0
595,169.71435359999998,171.48221145,41.0,90.0
596,171.05363985,171.6295329375,48.0,102.0
597,170.51792534999998,171.73444369375,60.0,127.0
598,171.3214971,171.92640805624998,53.0,99.0
599,171.58935434999998,171.94649735,56.0,117.0
600,172.12506885,172.48667613749998,53.0,88.0
601,172.66078334999997,172.9866763375,53.0,89.0
602,172.9286406,173.23221214999998,58.0,127.0
603,173.19649785,173.55587299375,53.0,58.0
604,171.8572116,173.84158739375,46.0,127.0
605,172.39292609999998,173.89962313125,61.0,127.0
606,173.46435509999998,173.91078385,58.0,127.0
607,173.73221235,173.94873029374997,53.0,95.0
608,174.0000696,174.776855625,36.0,89.0
609,174.26792684999998,174.8214985,43.0,96.0
610,174.5357841,175.0670343125,48.0,112.0
611,174.80364135,175.07819503124998,63.0,127.0
612,175.33935584999998,175.84382033749998,48.0,99.0
613,175.07149859999998,175.85274891249998,41.0,76.0
614,175.87507035,176.16301689374998,56.0,127.0
615,175.6072131,176.187570475,60.0,117.0
616,176.41078485,176.78801714374998,49.0,100.0
617,176.94649934999998,177.08489226249998,56.0,127.0
618,176.14292759999998,177.10498155624998,37.0,99.0
619,176.6786421,177.16301729375,53.0,102.0
620,177.21435659999997,177.7545353875,39.0,112.0
621,177.48221385,177.84605328125,51.0,95.0
622,177.75007109999999,178.21658914374999,58.0,127.0
623,178.01792834999998,178.22328557499998,51.0,117.0
624,178.82150009999998,179.20766096875,53.0,97.0
625,179.08935735,179.35051816875,56.0,122.0
626,178.55364285,179.47328607499998,48.0,90.0
627,179.62507184999998,180.27685782499998,48.0,97.0
628,178.2857856,180.44873289375,41.0,88.0
629,180.41748288124998,180.44873289375,41.0,57.0
630,179.89292909999998,180.4688221875,56.0,112.0
631,180.41748288124998,180.4688221875,56.0,107.0
632,179.3572146,180.4866793375,60.0,107.0
633,180.41748288124998,180.4866793375,60.0,92.0
634,180.16078635,180.5313222125,53.0,75.0
635,180.41748288124998,180.5313222125,53.0,92.0
636,180.41748288124998,181.35944754374998,48.0,70.0
637,180.41748288124998,182.223287175,89.0,79.0
638,180.41748288124998,182.259001475,84.0,79.0
639,180.41748288124998,182.276858625,80.0,76.0
640,180.41748288124998,182.28355505624998,77.0,73.0
641,183.1072161,183.526859125,53.0,102.0
642,183.37507334999998,183.71882348749998,56.0,112.0
643,183.91078785,184.24337726874998,56.0,117.0
644,182.57150159999998,184.30587729375,41.0,83.0
645,182.83935885,184.37284160624998,48.0,107.0
646,183.6429306,184.6027524125,65.0,92.0
647,184.17864509999998,184.68087744374998,60.0,72.0
648,184.44650234999997,184.69203816249998,56.0,127.0
649,184.98221685,185.34382413749998,56.0,90.0
650,185.25007409999998,185.71436,60.0,64.0
651,185.51793135,185.83712790624998,56.0,99.0
652,186.05364584999998,186.2456102125,51.0,96.0
653,184.7143596,186.32819953125,44.0,100.0
654,185.7857886,186.37730669375,63.0,127.0
655,185.7857886,186.50900317499998,60.0,92.0
656,186.32150309999997,186.77239613749998,56.0,112.0
657,186.58936035,186.80141400624998,60.0,78.0
658,186.58936035,186.81703901249998,63.0,127.0
659,187.3929321,187.98668233749999,55.0,112.0
660,187.66078935,188.04025378749998,58.0,127.0
661,187.12507484999998,188.37730749374998,51.0,95.0
662,186.85721759999998,188.47775396249997,39.0,112.0
663,188.19650385,188.57150399999998,46.0,77.0
664,187.92864659999998,188.83266481874998,63.0,127.0
665,188.4643611,188.9420398625,58.0,127.0
666,188.73221834999998,189.02462918125,55.0,100.0
667,189.53579009999999,189.97998670624997,53.0,97.0
668,189.80364734999998,190.14962963124998,56.0,86.0
669,189.26793285,190.20766536874999,48.0,78.0
670,190.33936185,190.68534413125,48.0,122.0
671,189.00007559999997,190.72775486249998,41.0,86.0
672,190.0715046,191.098290725,65.0,100.0
673,190.87507635,191.10498715625,60.0,66.0
674,190.60721909999998,191.1429336,56.0,112.0
675,191.94650535,192.25900547499998,53.0,89.0
676,191.67864809999998,192.32150549999997,46.0,102.0
677,191.41079084999998,192.56704131249998,41.0,36.0
678,191.1429336,192.61168418749997,34.0,112.0
679,192.48221984999998,192.70320208125,46.0,112.0
680,192.2143626,192.75454138749998,58.0,122.0
681,192.2143626,193.22105943124998,61.0,127.0
682,192.7500771,193.27909516875,53.0,100.0
683,193.01793435,193.30588089375,58.0,127.0
684,193.8215061,194.22552411874997,53.0,95.0
685,194.08936334999999,194.43088134374997,56.0,83.0
686,193.55364884999997,194.51570280624998,48.0,71.0
687,194.62507785,194.77463148125,48.0,96.0
688,193.28579159999998,194.79695291874998,41.0,83.0
689,194.35722059999998,194.92641725624998,60.0,72.0
690,194.35722059999998,195.2857924,65.0,93.0
691,195.16079234999998,195.30141740624998,60.0,66.0
692,194.8929351,195.31034598124998,56.0,112.0
693,195.69650685,196.01570340625,53.0,79.0
694,195.96436409999998,196.34159639375,61.0,117.0
695,196.23222134999997,196.43757857499997,53.0,97.0
696,195.4286496,196.49784645625,37.0,122.0
697,196.76793585,197.134007425,51.0,89.0
698,196.5000786,197.1920431625,39.0,122.0
699,197.30365035,197.4420432625,51.0,122.0
700,197.03579309999998,197.44650754999998,58.0,107.0
701,197.83936484999998,198.18311498749998,56.0,112.0
702,198.37507935,198.41079365,56.0,56.0
703,198.10722209999997,198.44427580624998,63.0,127.0
704,197.5715076,198.61391873124998,44.0,122.0
705,198.64293659999998,198.80365095,55.0,102.0
706,198.64293659999998,199.21659754375,60.0,100.0
707,198.64293659999998,199.33713330625,48.0,96.0
708,199.1786511,199.598294125,55.0,102.0
709,199.44650835,199.6920441625,60.0,112.0
710,198.64293659999998,199.7009727375,64.0,100.0
711,200.2500801,200.50231234375,53.0,97.0
712,200.51793734999998,200.74784815624997,56.0,112.0
713,199.98222285,200.89070535624998,48.0,93.0
714,199.71436559999998,201.26124121874997,41.0,86.0
715,201.05365185,201.29918766249997,48.0,96.0
716,201.3215091,201.7724021375,56.0,122.0
717,201.58936634999998,201.81481286874998,53.0,100.0
718,200.78579459999997,201.81481286874998,60.0,107.0
719,202.12508085,202.57374174375,51.0,61.0
720,202.66079534999997,203.0313312125,51.0,89.0
721,202.39293809999998,203.03802764374998,56.0,112.0
722,201.8572236,203.31481346874997,44.0,122.0
723,203.19650984999998,203.34383133749998,51.0,89.0
724,203.46436709999998,204.009010175,56.0,97.0
725,202.9286526,204.02463518124998,63.0,127.0
726,203.73222435,204.03579589999998,60.0,79.0
727,204.80365335,205.1474034875,55.0,93.0
728,204.5357961,205.15633206249998,51.0,99.0
729,204.0000816,205.52017149374998,39.0,68.0
730,204.26793884999998,205.54695721874998,46.0,69.0
731,205.33936784999997,205.5491893625,51.0,100.0
732,205.07151059999998,205.97999310625,63.0,127.0
733,205.6072251,206.08713600624998,58.0,127.0
734,205.87508234999999,206.1741896125,55.0,112.0
735,206.6786541,207.03133281249998,53.0,95.0
736,206.41079685,207.34606508124998,48.0,99.0
737,207.21436859999997,207.75008309999998,56.0,117.0
738,206.14293959999998,207.91079745,41.0,90.0
739,207.48222585,208.05811893749998,48.0,102.0
740,206.94651134999998,208.16302969375,60.0,127.0
741,207.75008309999998,208.35499405624998,53.0,99.0
742,208.01794034999998,208.37508334999998,56.0,117.0
743,208.55365485,208.91526213749998,53.0,88.0
744,209.08936935,209.4152623375,53.0,89.0
745,209.3572266,209.66079814999998,58.0,127.0
746,209.62508384999998,209.98445899375,53.0,58.0
747,208.2857976,210.27017339374999,46.0,127.0
748,208.82151209999998,210.32820913125,61.0,127.0
749,209.89294109999997,210.33936985,58.0,127.0
750,210.16079835,210.37731629375,53.0,95.0
751,210.42865559999998,211.205441625,36.0,89.0
752,210.69651284999998,211.25008449999999,43.0,96.0
753,210.9643701,211.4956203125,48.0,112.0
754,211.23222735,211.50678103124997,63.0,127.0
755,211.76794184999997,212.27240633749997,48.0,99.0
756,211.50008459999998,212.28133491249997,41.0,76.0
757,212.30365634999998,212.59160289374998,56.0,127.0
758,212.0357991,212.616156475,60.0,117.0
759,212.83937085,213.21660314374998,49.0,100.0
760,213.37508534999998,213.51347826249997,56.0,127.0
761,212.57151359999997,213.53356755624998,37.0,99.0
762,213.1072281,213.59160329374998,53.0,102.0
763,213.6429426,214.1831213875,39.0,112.0
764,213.91079985,214.27463928125,51.0,95.0
765,214.17865709999998,214.64517514374998,58.0,127.0
766,214.44651434999997,214.65187157499997,51.0,117.0
767,215.25008609999998,215.63624696875,53.0,97.0
768,215.51794335,215.77910416875,56.0,122.0
769,214.98222884999998,215.90187207499997,48.0,90.0
770,216.05365784999998,216.70544382499997,48.0,97.0
771,214.7143716,216.87731889375,41.0,88.0
772,216.32151509999997,216.8974081875,56.0,112.0
773,215.7858006,216.9152653375,60.0,107.0
774,216.58937235,216.95990821249998,53.0,75.0
775,217.38178338125,217.99562291249998,58.0,90.0
776,217.11392613125,218.02464078124999,53.0,56.0
777,217.64964063124998,218.27240873749997,61.0,97.0
778,218.18535513125,218.35723019999998,53.0,83.0
779,216.84606888124998,218.37731949374998,46.0,100.0
780,217.91749788124997,218.92642685624998,65.0,82.0
781,218.72106963124997,218.9509804375,61.0,95.0
782,218.45321238124998,218.9688375875,58.0,99.0
783,219.52464138124998,220.05365945,60.0,102.0
784,219.25678413125,220.0715166,55.0,72.0
785,218.98892688125,220.07821303125,48.0,112.0
786,219.79249863125,220.08267731874997,63.0,127.0
787,220.32821313124998,220.65857040625,48.0,107.0
788,220.06035588125,220.70767756874997,41.0,82.0
789,220.59607038124997,221.116159875,60.0,99.0
790,220.86392763125,221.13178488124998,53.0,74.0
791,220.59607038124997,221.13178488124998,56.0,117.0
792,221.93535663125,222.31705321249999,55.0,69.0
793,222.20321388124998,222.97553561874997,63.0,127.0
794,221.13178488124998,223.05589279375,39.0,83.0
795,222.47107113124997,223.07374994375,58.0,112.0
796,221.66749938125,223.09160709374999,51.0,96.0
797,221.39964213124998,223.12732139374998,46.0,86.0
798,223.27464288124997,225.75232244375,51.0,66.0
799,223.27464288124997,225.93982251875,46.0,61.0
800,223.27464288124997,226.10053686874997,39.0,79.0
801,223.27464288124997,226.18535833124997,58.0,92.0
802,223.27464288124997,226.20544762499998,63.0,112.0
803,223.00678563124998,226.25009049999997,55.0,93.0
804,226.55589419375,227.08268011874998,72.0,71.0
805,226.55366204999999,227.08714440625,68.0,69.0
806,226.56705491249997,227.13178728124998,65.0,49.0
807,228.07821623125,228.76348436249998,53.0,66.0
808,228.33714490625,228.78134151249998,60.0,53.0
809,227.81482326875,228.80366295,48.0,44.0
810,227.54919816249998,228.80589509375,41.0,82.0
811,228.62285930624998,229.63848471249997,68.0,117.0
812,230.45321718124998,230.75902087499998,63.0,56.0
813,229.9331276875,230.76794944999997,56.0,55.0
814,230.21214565625,230.78580659999997,60.0,58.0
815,230.98000310625,231.06928885624998,56.0,50.0
816,229.66303829375,231.11169958749997,44.0,92.0
817,230.7188422875,231.866164175,68.0,112.0
818,231.29696751875,231.87286060625,63.0,43.0
819,232.36393223124998,232.99116462499998,51.0,72.0
820,232.61839661874998,233.03357535625,55.0,70.0
821,233.14518254375,233.33268261874997,51.0,76.0
822,231.7991998625,233.35500405624998,39.0,76.0
823,232.10053926874997,233.36170048749997,46.0,50.0
824,232.89518244374997,233.92420071249998,63.0,127.0
825,233.41080764999998,233.98670073749997,58.0,64.0
826,233.68536133125,234.00679003124998,55.0,51.0
827,234.53357595625,234.99562971249998,53.0,55.0
828,234.77018319374997,235.0581297375,56.0,58.0
829,234.23893298124997,235.10054046874998,48.0,49.0
830,235.2724155375,235.52911206874998,48.0,67.0
831,233.95098643749998,235.54696921874998,41.0,66.0
832,235.56259422499997,236.03134441249998,56.0,63.0
833,235.03357615624998,236.05589799375,60.0,88.0
834,236.41080885,236.7813447125,53.0,66.0
835,236.67420181249997,237.01348766249998,58.0,90.0
836,236.93759477499998,237.25232704374997,53.0,53.0
837,236.09607658124997,237.69652365,46.0,96.0
838,237.17866629999997,238.34830962499998,61.0,122.0
839,238.8170598125,239.37286360624998,53.0,78.0
840,239.0581313375,239.39518504375,56.0,68.0
841,238.52241683749997,239.50679223125,48.0,48.0
842,238.23447029374998,239.6295601375,41.0,81.0
843,239.32598858749998,240.27464968124997,60.0,95.0
844,240.95768566874997,241.7099181125,55.0,72.0
845,240.37063186249998,242.78804354374998,39.0,97.0
846,240.64295339999998,244.68536573125,51.0,71.0
847,241.27911436875,244.95991941249997,58.0,82.0
848,241.60947164374997,244.96438369999998,63.0,102.0
849,246.61840221875,246.8527773125,56.0,89.0
850,246.82599158749997,246.91304519374998,60.0,86.0
851,247.0670631125,247.43313468749997,65.0,69.0
852,247.28581319999998,247.5715276,68.0,64.0
853,247.50902757499998,247.6742062125,72.0,79.0
854,247.776884825,248.14965283125,77.0,88.0
855,248.05143850624998,248.41081365,80.0,102.0
856,248.36840291874998,248.47777796249997,84.0,93.0
857,246.169741325,252.2545651875,48.0,74.0
858,248.69652804999998,252.26795804999998,89.0,86.0
859,249.13402822499998,252.2813509125,92.0,89.0
860,246.401884275,252.31929735625,53.0,93.0
861,249.55590339375,252.366172375,96.0,81.0
862,245.80143760624998,252.5045652875,41.0,74.0
863,250.79697531875,253.59608358124999,101.0,34.0
