,start,end,pitch,velocity
0,21.105766416666665,21.34494907708333,73.0,114.0
1,21.394227916666665,21.544468281249998,70.0,107.0
2,21.682689416666665,21.861775931249998,70.0,107.0
3,21.971150916666666,22.094948977083334,73.0,108.0
4,22.259612416666666,22.426679702083334,73.0,108.0
5,22.548073916666667,22.75600658125,66.0,96.0
6,23.413458416666668,23.5889391625,73.0,108.0
7,23.701919916666665,23.842544897916667,70.0,100.0
8,23.990381416666665,24.1225929375,70.0,107.0
9,24.278842916666665,24.475958275,75.0,116.0
10,24.567304416666666,24.77884285,73.0,113.0
11,24.855765916666666,25.11417934375,70.0,113.0
12,25.721150416666667,25.948313847916666,78.0,117.0
13,26.009611916666667,26.14783305208333,75.0,113.0
14,26.298073416666664,26.527640693749998,75.0,114.0
15,26.586534916666665,26.81129450208333,78.0,116.0
16,26.874996416666665,27.079323312499998,66.0,114.0
17,27.163457916666665,27.47475595208333,68.0,114.0
18,27.740380916666666,28.0889385625,70.0,119.0
19,30.336534416666666,30.575717077083333,73.0,114.0
20,30.624995916666666,30.77523628125,70.0,107.0
21,30.913457416666667,31.09254393125,70.0,107.0
22,31.201918916666667,31.32571697708333,73.0,108.0
23,31.490380416666667,31.65744770208333,73.0,108.0
24,31.778841916666664,31.98677458125,66.0,96.0
25,32.64422641666667,32.8197071625,73.0,108.0
26,32.932687916666666,33.073312897916665,70.0,100.0
27,33.22114941666666,33.3533609375,70.0,107.0
28,33.50961091666667,33.706726275,75.0,116.0
29,33.79807241666666,34.00961085,73.0,113.0
30,34.08653391666667,34.34494734375,70.0,113.0
31,34.951918416666665,35.17908184791666,78.0,117.0
32,35.24037991666667,35.37860105208333,75.0,113.0
33,35.528841416666666,35.75840869375,75.0,114.0
34,35.81730291666666,36.04206250208333,78.0,116.0
35,36.105764416666666,36.3100913125,66.0,114.0
36,36.39422591666666,36.70552395208333,68.0,114.0
37,36.971148916666664,37.3197065625,66.0,119.0
38,38.99037941666666,39.1225909375,66.0,100.0
39,39.27884091666667,39.423071666666665,78.0,116.0
40,39.567302416666664,39.792062002083334,78.0,117.0
41,39.85576391666667,39.950715827083336,77.0,117.0
42,40.144225416666664,40.284850397916664,77.0,113.0
43,40.43268691666667,40.56850420625,75.0,113.0
44,40.721148416666665,40.918263775,75.0,116.0
45,41.00960991666667,41.215138735416666,77.0,108.0
46,41.298071416666666,41.50360023541666,70.0,108.0
47,41.58653291666666,41.96033094375,73.0,113.0
48,43.60576341666667,43.84254223125,70.0,116.0
49,43.894224916666666,44.10576335,73.0,110.0
50,44.18268641666666,44.34855177916666,75.0,110.0
51,44.471147916666666,44.536051754166664,75.0,104.0
52,44.615378666666665,44.7043209625,75.0,108.0
53,45.04807091666667,45.175474745833334,75.0,100.0
54,45.336532416666664,45.54686892708333,75.0,116.0
55,45.62499391666667,45.87499388333333,73.0,113.0
56,45.913455416666665,46.11658038958333,66.0,110.0
57,46.20191691666667,46.50119572291666,73.0,116.0
58,46.77883991666666,47.05167641875,70.0,117.0
59,48.07691666666666,48.335330093749995,70.0,113.0
60,48.509608916666664,48.67427235625,73.0,110.0
61,48.79807041666667,48.9447050125,78.0,114.0
62,49.086531916666665,49.21754151458333,77.0,110.0
63,49.37499341666666,49.52403185833333,77.0,116.0
64,49.663454916666666,49.808887589583335,75.0,116.0
65,49.95191641666666,50.15864715833333,75.0,117.0
66,50.24037791666667,50.55768556666666,82.0,110.0
67,50.81730091666667,51.09133934166667,77.0,116.0
68,52.54806991666666,52.71754104791667,70.0,113.0
69,52.836531416666666,53.05047369583333,70.0,113.0
70,53.12499291666666,53.292060202083334,73.0,113.0
71,53.41345441666667,53.59975246875,75.0,116.0
72,53.701915916666664,53.864175510416665,73.0,114.0
73,53.99037741666667,54.171867777083335,75.0,116.0
74,54.278838916666665,54.4398965875,73.0,116.0
75,54.56730041666667,54.79206000208333,75.0,119.0
76,54.855761916666665,55.15744456875,78.0,117.0
77,55.432684916666666,55.69710795833333,80.0,120.0
78,56.00960791666667,56.132204054166664,80.0,119.0
79,56.298069416666664,56.477155931249996,80.0,120.0
80,56.874992416666664,57.22955967708333,70.0,117.0
81,57.451915416666665,57.725953841666666,73.0,119.0
82,58.028838416666666,58.173069166666664,82.0,119.0
83,58.31729991666666,58.4350883625,82.0,117.0
84,58.60576141666667,58.724751785416665,82.0,119.0
85,58.89422291666666,59.0120113625,82.0,117.0
86,59.18268441666667,59.36177093125,82.0,119.0
87,59.61537666666666,59.887011245833335,78.0,117.0
88,60.048068916666665,60.20071312708333,75.0,117.0
89,60.33653041666666,60.682684216666665,80.0,120.0
90,61.20191491666667,61.346145666666665,80.0,114.0
91,61.49037641666666,61.847347522916664,80.0,113.0
92,62.067299416666664,62.179078247916664,78.0,114.0
93,62.35576091666667,62.50840512708333,78.0,113.0
94,62.644222416666665,62.889414691666666,77.0,117.0
95,62.93268391666666,63.05287620833333,77.0,110.0
96,63.221145416666666,63.336530016666664,77.0,116.0
97,63.50960691666666,63.631001131249995,77.0,119.0
98,63.798068416666666,63.975953008333335,77.0,119.0
99,64.08652991666666,64.33172219166667,73.0,116.0
100,64.37499141666666,64.5360490875,70.0,108.0
101,64.66345291666667,65.03484709791667,78.0,117.0
102,66.68268341666666,66.93388530625,73.0,113.0
103,66.97114491666666,67.21393334583333,75.0,114.0
104,67.25960641666667,67.45431792916666,78.0,113.0
105,67.54806791666667,67.7091255875,75.0,114.0
106,67.83652941666666,68.05047169583334,75.0,119.0
107,68.12499091666666,68.32691396666667,73.0,116.0
108,68.41345241666666,68.70191391666667,75.0,119.0
109,68.99037541666667,69.24878884374999,75.0,117.0
110,69.27883691666666,69.42907728125,73.0,110.0
111,69.56729841666666,69.83412530416666,82.0,117.0
112,69.99999066666666,70.254798325,80.0,120.0
113,70.43268291666666,70.6514328875,80.0,119.0
114,70.72114441666666,71.00119245625,73.0,110.0
115,71.29806741666667,71.57210584166667,75.0,117.0
116,71.87499041666666,72.0504711625,82.0,120.0
117,72.16345191666666,72.33532689375,82.0,123.0
118,72.45191341666667,72.61176916458334,82.0,120.0
119,72.74037491666667,72.89902874166667,82.0,119.0
120,73.02883641666666,73.27402869166666,82.0,123.0
121,73.46152866666667,73.72474978541666,78.0,117.0
122,73.89422091666667,74.05167281874999,75.0,119.0
123,74.18268241666667,74.42667276875,80.0,123.0
124,74.61537466666667,74.68989388749999,80.0,114.0
125,74.75960541666666,74.99037461666667,80.0,119.0
126,75.33652841666667,75.74758605416666,80.0,119.0
127,75.91345141666666,76.21513406875,78.0,119.0
128,76.49037441666667,76.72595130833334,77.0,120.0
129,76.77883591666667,76.92667243541666,77.0,113.0
130,77.06729741666666,77.235566625,77.0,114.0
131,77.35575891666666,77.54446081458333,78.0,116.0
132,77.64422041666667,77.82450885416667,77.0,117.0
133,77.93268191666667,78.16224919375,73.0,114.0
134,78.50960491666666,78.79446064791667,80.0,119.0
135,79.08652791666667,79.30287404166667,80.0,117.0
136,79.37498941666666,79.64301822708333,78.0,116.0
137,80.24037391666667,80.38821043541667,73.0,113.0
138,80.52883541666667,80.73196038958334,73.0,110.0
139,80.81729691666666,80.99037381666666,75.0,114.0
140,81.10575841666666,81.30768146666666,78.0,117.0
141,81.39421991666667,81.50960451666667,75.0,110.0
142,81.68268141666667,81.87018139166666,75.0,119.0
143,81.97114291666666,82.12979674166667,73.0,113.0
144,82.25960441666666,82.40864285833334,75.0,117.0
145,82.54806591666666,82.78364280833333,78.0,117.0
146,83.12498891666667,83.5023927125,82.0,120.0
147,83.70191191666666,83.8197003625,80.0,117.0
148,83.99037341666667,84.17426762291666,80.0,119.0
149,84.27883491666667,84.475950275,82.0,117.0
150,84.56729641666666,84.77282523541666,80.0,116.0
151,84.85575791666666,85.09734442291666,73.0,98.0
152,85.14421941666666,85.2620078625,75.0,107.0
153,85.43268091666667,85.78484433125,78.0,116.0
154,85.72114241666667,85.96032507708333,73.0,114.0
155,86.00960391666666,86.15984428125,70.0,107.0
156,86.29806541666666,86.47715193124999,70.0,107.0
157,86.58652691666667,86.71032497708333,73.0,108.0
158,86.87498841666667,87.04205570208333,73.0,108.0
159,87.16344991666666,87.37138258125,66.0,96.0
160,88.02883441666667,88.2043151625,73.0,108.0
161,88.31729591666667,88.45792089791667,70.0,100.0
162,88.60575741666666,88.7379689375,70.0,107.0
163,88.89421891666666,89.091334275,75.0,116.0
164,89.18268041666667,89.39421885,73.0,113.0
165,89.47114191666667,89.72955534375,70.0,113.0
166,90.33652641666666,90.56368984791666,78.0,117.0
167,90.62498791666667,90.76320905208333,75.0,113.0
168,90.91344941666667,91.14301669375,75.0,114.0
169,91.20191091666666,91.42667050208333,78.0,116.0
170,91.49037241666666,91.69469931249999,66.0,114.0
171,91.77883391666667,92.09013195208333,68.0,114.0
172,92.35575691666666,92.7043145625,70.0,119.0
173,94.95191041666666,95.19109307708334,73.0,114.0
174,95.24037191666666,95.39061228125,70.0,107.0
175,95.52883341666666,95.70791993125,70.0,107.0
176,95.81729491666667,95.94109297708333,73.0,108.0
177,96.10575641666667,96.27282370208333,73.0,108.0
178,96.39421791666666,96.60215058125,66.0,96.0
179,97.25960241666667,97.43508316249999,73.0,108.0
180,97.54806391666666,97.68868889791666,70.0,100.0
181,97.83652541666666,97.9687369375,70.0,107.0
182,98.12498691666666,98.32210227499999,75.0,116.0
183,98.41344841666667,98.62498685,73.0,113.0
184,98.70190991666666,98.96032334374999,70.0,113.0
185,99.56729441666667,99.79445784791666,78.0,117.0
186,99.85575591666667,99.99397705208332,75.0,113.0
187,100.14421741666666,100.37378469375,75.0,114.0
188,100.43267891666666,100.65743850208334,78.0,116.0
189,100.72114041666666,100.9254673125,66.0,114.0
190,101.00960191666667,101.32089995208334,68.0,114.0
191,101.58652491666666,101.9350825625,66.0,119.0
192,103.60575541666667,103.73796693749999,66.0,100.0
193,103.89421691666666,104.03844766666667,78.0,116.0
194,104.18267841666666,104.40743800208332,78.0,117.0
195,104.47113991666666,104.56609182708333,77.0,117.0
196,104.75960141666667,104.90022639791667,77.0,113.0
197,105.04806291666667,105.18388020625,75.0,113.0
198,105.33652441666666,105.533639775,75.0,116.0
199,105.62498591666666,105.83051473541667,77.0,108.0
200,105.91344741666667,106.11897623541667,70.0,108.0
201,106.20190891666667,106.57570694374999,73.0,113.0
202,108.22113941666666,108.45791823124999,70.0,116.0
203,108.50960091666667,108.72113935,73.0,110.0
204,108.79806241666667,108.96392777916667,75.0,110.0
205,109.08652391666666,109.15142775416666,75.0,104.0
206,109.23075466666667,109.3196969625,75.0,108.0
207,109.66344691666666,109.79085074583332,75.0,100.0
208,109.95190841666667,110.16224492708334,75.0,116.0
209,110.24036991666667,110.49036988333333,73.0,113.0
210,110.52883141666666,110.73195638958333,66.0,110.0
211,110.81729291666666,111.11657172291666,73.0,116.0
212,111.39421591666667,111.66705241875,70.0,117.0
213,112.83652341666667,113.09493684374999,70.0,113.0
214,113.12498491666666,113.28964835625,73.0,110.0
215,113.41344641666666,113.56008101249999,78.0,114.0
216,113.70190791666667,113.83291751458333,77.0,110.0
217,113.99036941666667,114.13940785833333,77.0,116.0
218,114.27883091666666,114.42426358958333,75.0,116.0
219,114.56729241666666,114.77402315833334,75.0,117.0
220,114.85575391666666,115.17306156666666,82.0,110.0
221,115.43267691666667,115.70671534166667,77.0,116.0
222,117.16344591666666,117.33291704791667,70.0,113.0
223,117.45190741666666,117.66584969583333,70.0,113.0
224,117.74036891666667,117.90743620208333,73.0,113.0
225,118.02883041666666,118.21512846875,75.0,116.0
226,118.31729191666666,118.47955151041667,73.0,114.0
227,118.60575341666666,118.78724377708333,75.0,116.0
228,118.89421491666667,119.0552725875,73.0,116.0
229,119.18267641666667,119.40743600208333,75.0,119.0
230,119.47113791666666,119.77282056874999,78.0,117.0
231,120.04806091666666,120.31248395833333,80.0,120.0
232,120.62498391666666,120.74758005416666,80.0,119.0
233,120.91344541666666,121.09253193125,80.0,120.0
234,121.49036841666667,121.84493567708333,70.0,117.0
235,122.06729141666666,122.34132984166666,73.0,119.0
236,122.64421441666666,122.78844516666666,82.0,119.0
237,122.93267591666667,123.0504643625,82.0,117.0
238,123.22113741666666,123.34012778541667,82.0,119.0
239,123.50959891666666,123.6273873625,82.0,117.0
240,123.79806041666666,123.97714693124999,82.0,119.0
241,124.23075266666666,124.50238724583333,78.0,117.0
242,124.66344491666666,124.81608912708333,75.0,117.0
243,124.95190641666666,125.29806021666667,80.0,120.0
244,125.81729091666666,125.96152166666667,80.0,114.0
245,126.10575241666666,126.46272352291666,80.0,113.0
246,126.68267541666667,126.79445424791666,78.0,114.0
247,126.97113691666667,127.12378112708333,78.0,113.0
248,127.25959841666666,127.50479069166666,77.0,117.0
249,127.54805991666666,127.66825220833333,77.0,110.0
250,127.83652141666666,127.95190601666667,77.0,116.0
251,128.12498291666665,128.24637713125,77.0,119.0
252,128.41344441666666,128.59132900833333,77.0,119.0
253,128.70190591666668,128.94709819166667,73.0,116.0
254,128.99036741666666,129.1514250875,70.0,108.0
255,129.27882891666667,129.65022309791667,78.0,117.0
256,131.29805941666666,131.54926130625,73.0,113.0
257,131.58652091666667,131.82930934583334,75.0,114.0
258,131.87498241666665,132.06969392916668,78.0,113.0
259,132.16344391666667,132.3245015875,75.0,114.0
260,132.45190541666668,132.66584769583332,75.0,119.0
261,132.74036691666666,132.94228996666666,73.0,116.0
262,133.02882841666667,133.31728991666665,75.0,119.0
263,133.60575141666666,133.86416484375,75.0,117.0
264,133.89421291666667,134.04445328125,73.0,110.0
265,134.18267441666666,134.44950130416666,82.0,117.0
266,134.61536666666666,134.870174325,80.0,120.0
267,135.04805891666666,135.2668088875,80.0,119.0
268,135.33652041666667,135.61656845625,73.0,110.0
269,135.91344341666667,136.18748184166665,75.0,117.0
270,136.49036641666666,136.6658471625,82.0,120.0
271,136.77882791666667,136.95070289375,82.0,123.0
272,137.06728941666665,137.22714516458333,82.0,120.0
273,137.35575091666666,137.51440474166665,82.0,119.0
274,137.64421241666668,137.88940469166667,82.0,123.0
275,138.07690466666665,138.34012578541666,78.0,117.0
276,138.50959691666665,138.66704881875,75.0,119.0
277,138.79805841666666,139.04204876875,80.0,123.0
278,139.23075066666667,139.3052698875,80.0,114.0
279,139.37498141666666,139.60575061666665,80.0,119.0
280,139.95190441666665,140.36296205416667,80.0,119.0
281,140.52882741666667,140.83051006875,78.0,119.0
282,141.10575041666667,141.34132730833332,77.0,120.0
283,141.39421191666665,141.54204843541666,77.0,113.0
284,141.68267341666666,141.850942625,77.0,114.0
285,141.97113491666667,142.15983681458334,78.0,116.0
286,142.25959641666665,142.43988485416665,77.0,117.0
287,142.54805791666666,142.77762519375,73.0,114.0
288,143.12498091666666,143.40983664791665,80.0,119.0
289,143.70190391666665,143.91825004166665,80.0,117.0
290,143.99036541666666,144.25839422708333,78.0,116.0
291,144.85574991666667,145.00358643541665,73.0,113.0
292,145.14421141666665,145.34733638958332,73.0,110.0
293,145.43267291666666,145.60574981666667,75.0,114.0
294,145.72113441666667,145.92305746666668,78.0,117.0
295,146.00959591666665,146.12498051666665,75.0,110.0
296,146.29805741666667,146.48555739166667,75.0,119.0
297,146.58651891666668,146.74517274166666,73.0,113.0
298,146.87498041666666,147.02401885833333,75.0,117.0
299,147.16344191666667,147.39901880833332,78.0,117.0
300,147.74036491666666,148.1177687125,82.0,120.0
301,148.31728791666666,148.43507636249998,80.0,117.0
302,148.60574941666667,148.78964362291666,80.0,119.0
303,148.89421091666665,149.091326275,82.0,117.0
304,149.18267241666666,149.38820123541666,80.0,116.0
305,149.47113391666667,149.71272042291668,73.0,98.0
306,149.75959541666666,149.87738386249998,75.0,107.0
307,150.04805691666667,150.40022033124998,78.0,116.0
308,155.24036391666667,155.35695043958333,71.0,116.0
309,155.52882541666665,155.7764215375,71.0,119.0
310,155.81728691666666,156.10454649375,70.0,119.0
311,156.10574841666667,156.23675801458333,71.0,119.0
312,156.39420991666665,156.53483489791665,78.0,116.0
313,156.68267141666666,156.8725752375,78.0,117.0
314,157.54805591666667,157.67786359166666,75.0,117.0
315,157.83651741666665,158.08892122916666,75.0,117.0
316,158.12497891666666,158.37137311458332,73.0,114.0
317,158.41344041666667,158.56368078124999,75.0,116.0
318,158.70190191666666,158.85214228125,78.0,120.0
319,158.99036341666667,159.24276722916667,78.0,120.0
320,159.56728641666666,160.00719020416668,82.0,123.0
321,160.43267091666667,160.81247855833334,78.0,120.0
322,161.29805541666667,161.7187284375,75.0,113.0
323,164.47113191666665,164.58771843958334,71.0,116.0
324,164.75959341666666,165.00718953749998,71.0,119.0
325,165.04805491666667,165.33531449375,70.0,119.0
326,165.33651641666665,165.46752601458334,71.0,119.0
327,165.62497791666667,165.76560289791666,78.0,116.0
328,165.91343941666665,166.10334323749998,78.0,117.0
329,166.77882391666665,166.90863159166668,75.0,117.0
330,167.06728541666666,167.31968922916667,75.0,117.0
331,167.35574691666667,167.60214111458333,73.0,114.0
332,167.64420841666666,167.79444878125,75.0,116.0
333,167.93266991666667,168.08291028125,82.0,120.0
334,168.50959291666666,168.94949670416665,82.0,123.0
335,172.83651541666666,172.97954424374998,78.0,119.0
336,173.12497691666667,173.31968842916666,78.0,116.0
337,173.41343841666665,173.75358260208333,85.0,120.0
338,173.70189991666666,174.19829408125,83.0,113.0
339,174.27882291666666,174.59492864375,82.0,116.0
340,174.85574591666665,175.19348625625,78.0,117.0
341,175.43266891666667,175.76199579583331,85.0,120.0
342,176.00959191666666,176.33050533541666,85.0,123.0
343,176.58651491666666,176.93146679375,85.0,120.0
344,177.16343791666665,177.52521671458334,78.0,119.0
345,177.74036091666667,178.10093779166667,80.0,117.0
346,178.31728391666667,178.68387040625,82.0,119.0
347,182.06728341666667,182.25237954583332,78.0,117.0
348,182.35574491666665,182.54444681458332,78.0,117.0
349,182.64420641666666,183.05406213125,86.0,123.0
350,183.22112941666666,183.47353322916666,85.0,117.0
351,183.50959091666667,183.90261971041667,83.0,123.0
352,184.08651391666666,184.4062254125,81.0,123.0
353,184.66343691666665,185.01560033125,80.0,117.0
354,185.24035991666665,185.54084064583333,83.0,123.0
355,185.81728291666667,186.14180210416666,80.0,123.0
356,189.56728241666667,189.71151316666666,82.0,119.0
357,189.85574391666665,189.97353236249998,82.0,117.0
358,190.14420541666667,190.26319578541666,82.0,119.0
359,190.43266691666665,190.5504553625,82.0,117.0
360,190.72112841666666,190.90021493125,82.0,119.0
361,191.00958991666667,191.28122449583333,78.0,117.0
362,191.29805141666665,191.45069562708332,75.0,117.0
363,191.58651291666666,191.93266671666666,80.0,120.0
364,192.74035891666665,192.88458966666667,80.0,114.0
365,193.02882041666666,193.38579152291666,80.0,113.0
366,193.60574341666666,193.71752224791666,78.0,114.0
367,193.89420491666667,194.04684912708333,78.0,113.0
368,194.18266641666665,194.42785869166667,77.0,117.0
369,194.47112791666666,194.59132020833331,77.0,110.0
370,194.75958941666667,194.87497401666667,77.0,116.0
371,195.04805091666665,195.16944513125,77.0,119.0
372,195.33651241666666,195.51439700833333,77.0,119.0
373,195.62497391666665,195.87016619166667,73.0,116.0
374,195.91343541666666,196.0744930875,70.0,108.0
375,196.20189691666667,196.57329109791667,78.0,117.0
376,198.22112741666666,198.47232930625,73.0,113.0
377,198.50958891666667,198.75237734583334,75.0,114.0
378,198.79805041666665,198.99276192916665,78.0,113.0
379,199.08651191666667,199.24756958749998,75.0,114.0
380,199.37497341666665,199.58891569583332,75.0,119.0
381,199.66343491666666,199.86535796666666,73.0,116.0
382,199.95189641666667,200.24035791666665,75.0,119.0
383,200.52881941666666,200.78723284375,75.0,117.0
384,200.81728091666668,200.96752128125,73.0,110.0
385,201.10574241666666,201.37256930416666,82.0,117.0
386,201.53843466666666,201.793242325,83.0,120.0
387,201.97112691666666,202.1898768875,80.0,119.0
388,218.26920166666667,218.34131704166666,75.0,100.0
389,218.41343241666667,218.65021123124998,84.0,119.0
390,218.84612466666667,219.10213424791667,84.0,119.0
391,219.27881691666667,219.49155727291665,80.0,119.0
392,219.56727841666665,219.88218222083333,82.0,119.0
393,220.14420141666665,220.26078793958334,82.0,100.0
394,220.43266291666666,220.572085975,84.0,100.0
395,221.00958591666665,221.466316625,82.0,100.0
396,222.74035491666666,222.88819143541667,75.0,116.0
397,223.02881641666667,223.29924907291667,84.0,119.0
398,223.31727791666665,223.65261441041667,82.0,117.0
399,223.89420091666665,224.12857588541667,80.0,108.0
400,224.18266241666666,224.44708545833333,79.0,116.0
401,224.75958541666665,224.99756615416666,77.0,113.0
402,225.04804691666666,225.32809495625,79.0,119.0
403,225.62496991666666,225.86174873125,80.0,117.0
404,226.49035441666666,226.8389120625,84.0,119.0
405,227.06727741666666,227.30886392291666,82.0,113.0
406,227.35573891666667,227.70069079375,80.0,113.0
407,227.93266191666666,228.25117148958333,77.0,119.0
408,228.79804641666666,229.09131560833333,84.0,119.0
409,229.37496941666666,229.57689246666666,85.0,117.0
410,229.66343091666667,229.96511356874998,84.0,117.0
411,230.24035391666666,230.52641157083332,82.0,120.0
412,231.10573841666667,231.27761339375,84.0,119.0
413,231.39419991666665,231.53963258958333,84.0,117.0
414,231.68266141666666,231.82929601249998,84.0,116.0
415,231.97112291666667,232.11054597499998,84.0,113.0
416,232.25958441666666,232.47352669583333,84.0,117.0
417,232.54804591666667,232.83410357083332,80.0,117.0
418,233.12496891666666,233.26679582083332,77.0,117.0
419,233.41343041666667,233.70189191666665,82.0,119.0
420,234.27881491666665,234.39059374791665,82.0,113.0
421,234.56727641666666,234.937468675,82.0,114.0
422,235.14419941666665,235.28121862916666,80.0,114.0
423,235.43266091666666,235.64299742708332,80.0,108.0
424,235.72112241666667,235.98794930416665,79.0,119.0
425,236.00958391666666,236.27641080416666,77.0,114.0
426,236.29804541666667,236.55645884375,79.0,116.0
427,236.58650691666665,236.82929534583332,77.0,114.0
428,236.87496841666666,237.05405493125,79.0,119.0
429,237.16342991666667,237.29804528333332,75.0,108.0
430,237.45189141666665,237.56847793958332,75.0,110.0
431,237.74035291666667,238.0456413375,82.0,119.0
432,238.31727591666666,238.54083357916667,80.0,119.0
433,239.47112191666665,239.57689113333333,75.0,114.0
434,239.75958341666666,239.9350641625,75.0,114.0
435,240.04804491666667,240.16222759375,77.0,114.0
436,240.33650641666665,240.51078523958333,80.0,117.0
437,240.62496791666666,240.72953521041666,77.0,110.0
438,240.91342941666667,241.06246785833332,77.0,117.0
439,241.20189091666666,241.38939089166666,75.0,117.0
440,241.49035241666667,241.75958315,77.0,119.0
441,241.92304466666667,242.21150616666665,77.0,116.0
442,242.21150616666665,242.34972730208332,75.0,113.0
443,242.64419841666665,242.93746760833332,84.0,119.0
444,243.07689066666666,243.32208294166665,82.0,117.0
445,243.50958291666666,243.69347712291665,82.0,117.0
446,243.79804441666667,244.08290014791666,75.0,119.0
447,244.37496741666666,244.6249673833333,77.0,119.0
448,244.95189041666666,245.12376539375,84.0,119.0
449,245.24035191666667,245.38578458958332,84.0,117.0
450,245.52881341666665,245.6754480125,84.0,116.0
451,245.81727491666666,245.956697975,84.0,113.0
452,246.10573641666667,246.31967869583332,84.0,117.0
453,246.39419791666666,246.68025557083334,84.0,117.0
454,246.97112091666665,247.1129478208333,80.0,117.0
455,247.25958241666666,247.54804391666667,82.0,119.0
456,247.54804391666667,247.82448618749999,84.0,114.0
457,247.98073616666667,248.14539960624998,82.0,120.0
458,248.41342841666665,248.70188991666666,79.0,114.0
459,248.99035141666667,249.12737062916665,79.0,114.0
460,249.56727441666666,249.83410130416667,79.0,119.0
461,249.85573591666665,250.12256280416665,77.0,114.0
462,250.14419741666666,250.40261084374998,79.0,116.0
463,250.43265891666667,250.67544734583333,77.0,114.0
464,250.72112041666665,250.90020693124998,87.0,119.0
465,251.15381266666665,251.34131264166666,84.0,108.0
466,251.58650491666666,251.93025487083332,82.0,116.0
467,252.16342791666665,252.45068749375,84.0,119.0
468,253.31727391666666,253.42304313333332,75.0,114.0
469,253.60573541666665,253.7812161625,75.0,114.0
470,253.89419691666666,254.00837959375,77.0,114.0
471,254.18265841666667,254.35693723958332,80.0,117.0
472,254.47111991666665,254.57568721041665,77.0,110.0
473,254.75958141666666,254.90861985833334,77.0,117.0
474,255.04804291666667,255.23554289166665,75.0,117.0
475,255.33650441666666,255.60573515,77.0,119.0
476,255.62496591666667,255.91342741666665,80.0,116.0
477,256.20188891666663,256.51799464375,84.0,117.0
478,256.77881191666665,256.90020613125,82.0,116.0
479,257.06727341666664,257.2139080125,82.0,117.0
480,257.3557349166667,257.52160027916665,84.0,113.0
481,257.64419641666666,257.80285024166665,82.0,114.0
482,257.93265791666664,258.14419635,75.0,114.0
483,258.2211194166667,258.33650401666665,80.0,113.0
484,258.50958091666666,258.76078280625,80.0,116.0
485,258.79804241666665,260.12135954791665,80.0,127.0
486,260.2403499166667,260.4831383458333,82.0,127.0
487,260.52881141666666,260.8869844458333,84.0,87.0
488,260.81727291666664,261.71030164375,82.0,117.0
489,263.39179180416664,264.68145509375,75.0,127.0
490,264.8208781520833,265.1490031083333,72.0,127.0
491,265.10693580624996,265.41582999583335,70.0,110.0
492,265.41582999583335,267.13818553541665,72.0,103.0
