,start,end,pitch,velocity
0,0.3365384166666667,2.1141824104166664,70.0,87.0
1,0.3365384166666667,2.1802881708333333,61.0,84.0
2,0.3365384166666667,2.2656246979166665,66.0,86.0
3,0.3365384166666667,2.2716343125,54.0,86.0
4,0.3365384166666667,2.3389419958333333,42.0,86.0
5,2.644230416666667,4.674278222916667,61.0,88.0
6,2.644230416666667,4.73437436875,66.0,91.0
7,2.644230416666667,4.743989752083333,70.0,91.0
8,2.644230416666667,4.804085897916667,46.0,88.0
9,4.951922416666666,6.895431772916666,70.0,86.0
10,4.951922416666666,6.91947023125,63.0,84.0
11,4.951922416666666,6.975960608333333,47.0,80.0
12,4.951922416666666,6.981970222916667,59.0,83.0
13,4.951922416666666,7.039662522916666,66.0,79.0
14,7.2596144166666665,8.08052776875,49.0,80.0
15,7.2596144166666665,8.120191225,61.0,83.0
16,7.2596144166666665,8.15264314375,65.0,86.0
17,7.2596144166666665,8.197114291666667,68.0,80.0
18,8.413460416666666,9.001200722916666,59.0,79.0
19,8.413460416666666,9.034854564583332,47.0,76.0
20,8.413460416666666,9.305287220833334,71.0,78.0
21,8.413460416666666,9.36418144375,61.0,82.0
22,8.413460416666666,9.427883358333332,65.0,86.0
23,9.567306416666666,11.4447100125,42.0,80.0
24,9.567306416666666,11.72235420625,70.0,85.0
25,9.567306416666666,11.813700347916667,61.0,77.0
26,9.567306416666666,11.861777264583333,66.0,86.0
27,9.567306416666666,11.914661872916666,54.0,70.0
28,11.874998416666667,13.354565527083333,58.0,75.0
29,11.874998416666667,13.3774020625,46.0,72.0
30,11.874998416666667,13.432690516666666,68.0,81.0
31,11.874998416666667,13.455527052083333,65.0,76.0
32,11.874998416666667,13.455527052083333,70.0,74.0
33,11.874998416666667,13.4783635875,73.0,76.0
34,14.182690416666667,15.993988252083334,47.0,82.0
35,14.182690416666667,16.06730555,63.0,86.0
36,14.182690416666667,16.09975746875,59.0,83.0
37,14.182690416666667,16.22235360625,71.0,82.0
38,14.182690416666667,16.4423055,66.0,87.0
39,16.490382416666666,18.229564877083334,65.0,83.0
40,16.490382416666666,18.282449485416667,68.0,83.0
41,16.490382416666666,18.284853331249998,49.0,82.0
42,16.490382416666666,18.314901404166665,73.0,81.0
43,21.105766416666665,22.9615354,42.0,83.0
44,21.105766416666665,23.08773730625,54.0,84.0
45,21.105766416666665,23.15264114375,70.0,80.0
46,21.105766416666665,23.158650758333334,66.0,78.0
47,21.105766416666665,23.18148729375,61.0,82.0
48,23.413458416666668,25.022833202083334,46.0,80.0
49,23.413458416666668,25.159852414583334,61.0,80.0
50,23.413458416666668,25.185092795833334,68.0,79.0
51,23.413458416666668,25.228362020833334,70.0,80.0
52,23.413458416666668,25.324515854166666,65.0,81.0
53,25.721150416666667,26.492784929166667,47.0,81.0
54,25.721150416666667,26.582929147916666,59.0,81.0
55,25.721150416666667,26.651438754166666,63.0,83.0
56,25.721150416666667,26.677881058333334,71.0,76.0
57,25.721150416666667,26.824515654166667,66.0,86.0
58,26.874996416666665,27.578121322916665,49.0,80.0
59,26.874996416666665,27.673073233333334,73.0,81.0
60,26.874996416666665,27.686294385416666,65.0,81.0
61,26.874996416666665,27.808890522916666,68.0,81.0
62,28.028842416666667,30.007207537499998,61.0,72.0
63,28.028842416666667,30.020428689583333,42.0,86.0
64,28.028842416666667,30.03965945625,66.0,86.0
65,28.028842416666667,30.05408253125,70.0,83.0
66,30.336534416666666,32.049274572916666,42.0,82.0
67,30.336534416666666,32.056486110416664,54.0,76.0
68,30.336534416666666,32.40504375625,66.0,79.0
69,30.336534416666666,32.409851447916665,70.0,80.0
70,30.336534416666666,32.42547644583333,61.0,79.0
71,32.64422641666667,34.32812042291667,46.0,71.0
72,32.64422641666667,34.36177426458333,58.0,74.0
73,32.64422641666667,34.38941849166667,68.0,75.0
74,32.64422641666667,34.430283870833335,61.0,76.0
75,32.64422641666667,34.456726175,70.0,79.0
76,32.64422641666667,34.47715886458333,65.0,81.0
77,34.951918416666665,35.691101010416666,71.0,82.0
78,34.951918416666665,35.76321638541667,59.0,80.0
79,34.951918416666665,35.80408176458333,63.0,84.0
80,34.951918416666665,35.81850483958333,47.0,81.0
81,34.951918416666665,35.872591370833334,66.0,87.0
82,36.105764416666666,36.694706645833335,49.0,87.0
83,36.105764416666666,36.98316814583333,61.0,81.0
84,36.105764416666666,37.00600468125,68.0,80.0
85,36.105764416666666,37.026437370833335,65.0,82.0
86,37.25961041666667,38.86658135625,61.0,80.0
87,37.25961041666667,38.903840966666664,42.0,82.0
88,37.25961041666667,38.91586019583333,66.0,78.0
89,37.25961041666667,38.9206678875,70.0,81.0
90,39.567302416666664,40.13461003333333,70.0,83.0
91,39.567302416666664,40.174273489583335,63.0,87.0
92,39.567302416666664,40.23917732708333,66.0,87.0
93,40.43268691666667,41.33653295,58.0,72.0
94,39.567302416666664,41.39182140416666,51.0,89.0
95,40.721148416666665,41.915859795833335,70.0,91.0
96,40.721148416666665,41.92427325625,63.0,96.0
97,40.721148416666665,41.968744404166664,66.0,104.0
98,42.019225166666665,43.46754228125,53.0,73.0
99,41.73076366666667,43.513215352083336,46.0,90.0
100,42.45191741666667,43.55528265416667,58.0,75.0
101,42.596148166666666,43.74638839791667,61.0,83.0
102,43.02884041666667,43.885811456249996,70.0,100.0
103,43.60576341666667,44.04807105,65.0,79.0
104,44.038455666666664,44.7620132625,47.0,84.0
105,44.038455666666664,44.826917099999996,59.0,84.0
106,44.038455666666664,44.9495132375,70.0,88.0
107,44.18268641666666,44.97114785,63.0,86.0
108,44.18268641666666,45.249993966666665,66.0,87.0
109,45.336532416666664,45.91465733958333,65.0,86.0
110,45.336532416666664,46.018022710416666,49.0,85.0
111,45.336532416666664,46.026436170833335,68.0,80.0
112,45.336532416666664,46.17787845833333,61.0,83.0
113,46.490378416666665,46.80888798958333,61.0,88.0
114,46.490378416666665,46.888214902083334,66.0,88.0
115,46.490378416666665,46.92186874375,58.0,87.0
116,47.35576291666666,47.69230133333333,56.0,88.0
117,47.067301416666666,47.75359940208333,54.0,78.0
118,47.64422441666667,47.94109937708333,58.0,90.0
119,47.35576291666666,47.985570525,61.0,88.0
120,46.490378416666665,48.302878175,42.0,87.0
121,46.77883991666666,48.36177239791667,49.0,76.0
122,47.932685916666664,48.39542623958333,54.0,83.0
123,48.22114741666667,48.64061851458333,61.0,85.0
124,48.79807041666667,49.01561846458333,58.0,86.0
125,48.79807041666667,49.215137668749996,66.0,88.0
126,48.79807041666667,49.225954975,63.0,87.0
127,49.807685666666664,50.27042598958333,75.0,90.0
128,49.663454916666666,50.466339425,63.0,83.0
129,49.37499341666666,50.633406710416665,58.0,73.0
130,48.79807041666667,50.653839399999995,51.0,87.0
131,49.807685666666664,50.76802207708333,66.0,96.0
132,51.105762416666664,51.907445002083335,61.0,87.0
133,51.105762416666664,51.968743070833334,68.0,86.0
134,51.105762416666664,52.00840652708333,65.0,89.0
135,51.682685416666665,52.80407949791667,53.0,68.0
136,51.97114691666666,52.82210834166666,58.0,86.0
137,51.105762416666664,52.82571411041666,46.0,84.0
138,52.259608416666666,52.9038391,61.0,104.0
139,52.836531416666666,53.33532942708333,65.0,88.0
140,53.41345441666667,54.282444685416664,63.0,89.0
141,53.41345441666667,54.378598518749996,66.0,96.0
142,54.278838916666665,54.73196385625,59.0,87.0
143,54.56730041666667,55.331723391666664,63.0,98.0
144,53.41345441666667,55.42186761041666,47.0,85.0
145,55.14422341666666,55.51681952083333,59.0,81.0
146,54.56730041666667,55.61177143125,66.0,104.0
147,55.72114641666666,55.91946369791666,61.0,89.0
148,55.72114641666666,56.14782905208333,65.0,96.0
149,55.72114641666666,56.20191558333333,68.0,92.0
150,56.58653091666667,56.717540514583334,73.0,87.0
151,56.58653091666667,56.74157897291666,65.0,89.0
152,56.298069416666664,56.94109817708333,61.0,93.0
153,56.874992416666664,57.18869429791666,65.0,107.0
154,56.874992416666664,57.21874237083333,73.0,96.0
155,56.874992416666664,57.28484813125,68.0,114.0
156,57.16345391666667,57.42907888125,61.0,86.0
157,56.00960791666667,57.49398271875,56.0,77.0
158,55.72114641666666,57.54806925,49.0,86.0
159,58.028838416666666,58.84013638541666,70.0,92.0
160,58.028838416666666,58.981963289583334,63.0,94.0
161,58.89422291666666,59.36056900833333,59.0,81.0
162,58.46153066666667,59.87499201666667,54.0,75.0
163,58.028838416666666,59.98917469375,47.0,89.0
164,59.75960741666667,60.052876608333335,59.0,74.0
165,60.048068916666665,60.210328510416666,63.0,87.0
166,59.18268441666667,60.2523958125,66.0,110.0
167,60.33653041666666,60.624991916666666,61.0,96.0
168,60.33653041666666,60.9591264875,68.0,92.0
169,60.33653041666666,61.09854954583333,65.0,92.0
170,61.49037641666666,61.92787635833333,63.0,113.0
171,61.20191491666667,62.001193656249995,61.0,86.0
172,61.77883791666667,62.02883788333333,65.0,90.0
173,60.91345341666666,62.07571287708333,56.0,73.0
174,60.33653041666666,62.120184025,49.0,85.0
175,62.067299416666664,62.12258787083333,65.0,81.0
176,62.067299416666664,62.60215511458333,66.0,108.0
177,62.644222416666665,63.424270389583334,61.0,87.0
178,62.644222416666665,63.51321268541666,68.0,89.0
179,62.644222416666665,63.53484729791666,65.0,89.0
180,63.50960691666666,64.15864529166666,58.0,83.0
181,62.644222416666665,64.43268371666666,46.0,85.0
182,63.221145416666666,64.4639337125,53.0,71.0
183,63.798068416666666,64.59494331041667,61.0,110.0
184,63.798068416666666,64.63701061249999,68.0,107.0
185,64.37499141666666,64.88340481041666,65.0,76.0
186,64.37499141666666,64.96032787708333,58.0,80.0
187,64.95191441666667,65.65143355416666,63.0,88.0
188,64.95191441666667,65.77282776874999,66.0,93.0
189,64.66345291666667,65.77523161458333,70.0,90.0
190,65.81729891666666,66.20191425,58.0,79.0
191,66.10576041666667,66.72595264166667,66.0,114.0
192,66.10576041666667,66.74157763958333,70.0,107.0
193,66.68268341666666,66.79686609375,58.0,87.0
194,64.95191441666667,66.80407763125,51.0,86.0
195,66.10576041666667,66.85215454791667,63.0,108.0
196,67.25960641666667,67.93388517291666,66.0,89.0
197,67.25960641666667,68.08532746041666,63.0,100.0
198,67.25960641666667,68.14542360624999,59.0,95.0
199,67.25960641666667,68.52162547916666,47.0,87.0
200,68.41345241666666,69.06729848333333,59.0,95.0
201,68.41345241666666,69.0793177125,66.0,102.0
202,68.41345241666666,69.38700997916666,63.0,108.0
203,68.99037541666667,69.39301959375,47.0,89.0
204,69.56729841666666,69.966336825,61.0,93.0
205,69.56729841666666,70.32450985416666,65.0,110.0
206,69.56729841666666,70.36176946458333,68.0,90.0
207,70.43268291666666,71.36777894583334,61.0,88.0
208,70.72114441666666,71.38821163541667,65.0,108.0
209,70.14422141666667,71.40383663333333,56.0,82.0
210,69.56729841666666,71.41345201666667,49.0,86.0
211,70.72114441666666,71.60095199166666,73.0,100.0
212,71.29806741666667,71.62018275833333,68.0,96.0
213,72.74037491666667,72.9879710375,66.0,79.0
214,72.16345191666666,73.13580755625,59.0,79.0
215,72.45191341666667,73.7091247875,63.0,81.0
216,73.02883641666666,73.774028625,71.0,109.0
217,73.02883641666666,73.80287477499999,66.0,85.0
218,71.87499041666666,73.88099976458334,47.0,106.0
219,73.60575941666667,73.91585552916666,59.0,80.0
220,73.89422091666667,74.08893242916666,71.0,86.0
221,73.89422091666667,74.10816319583333,66.0,83.0
222,74.18268241666667,74.61657658958333,65.0,91.0
223,74.18268241666667,74.91224962708333,73.0,91.0
224,74.18268241666667,74.98917269374999,68.0,98.0
225,75.04806691666667,75.11297075416667,61.0,80.0
226,75.33652841666667,75.84373988749999,65.0,113.0
227,75.62498991666666,75.87739372916667,61.0,82.0
228,75.33652841666667,75.89181680416667,73.0,108.0
229,74.75960541666666,75.92426872291666,56.0,71.0
230,74.18268241666667,75.97955717708334,49.0,86.0
231,75.91345141666666,76.24518214166666,68.0,89.0
232,76.20191291666667,76.37859558541666,73.0,85.0
233,76.49037441666667,77.11657625625,61.0,89.0
234,76.49037441666667,77.25960508333333,68.0,81.0
235,76.49037441666667,77.30287430833333,65.0,102.0
236,77.35575891666666,77.71273002291666,58.0,79.0
237,77.06729741666666,78.27883571666666,53.0,69.0
238,76.49037441666667,78.2884511,46.0,86.0
239,77.64422041666667,78.533643375,68.0,110.0
240,77.64422041666667,78.63099913125,61.0,108.0
241,78.22114341666666,78.79566257083333,58.0,78.0
242,78.79806641666667,79.34494134375,61.0,91.0
243,78.79806641666667,79.58772977291666,70.0,94.0
244,78.79806641666667,79.615374,65.0,102.0
245,79.95191241666666,80.50599888125,70.0,108.0
246,79.66345091666666,80.51080657291666,58.0,82.0
247,78.79806641666667,80.54325849166666,51.0,87.0
248,79.95191241666666,80.81849883958333,63.0,108.0
249,80.52883541666667,80.95551805208333,66.0,102.0
250,81.10575841666666,81.93388330625,70.0,93.0
251,81.10575841666666,81.95191215,66.0,102.0
252,81.10575841666666,81.97955637708333,63.0,91.0
253,81.97114291666666,82.456719775,59.0,81.0
254,81.10575841666666,83.06849853958333,47.0,84.0
255,82.25960441666666,83.12979660833334,70.0,104.0
256,82.83652741666667,83.16825814166667,59.0,81.0
257,82.25960441666666,83.3870081125,63.0,107.0
258,83.41345041666666,83.74998883333333,61.0,88.0
259,83.41345041666666,84.09133494166666,65.0,92.0
260,83.41345041666666,84.26801761041666,68.0,91.0
261,84.27883491666667,85.1538348,61.0,75.0
262,83.99037341666667,85.20551748541666,56.0,46.0
263,83.41345041666666,85.26320978541666,49.0,87.0
264,84.56729641666666,85.38580592291666,68.0,96.0
265,84.56729641666666,85.47955591041666,63.0,104.0
266,85.14421941666666,85.50479629166666,65.0,81.0
267,85.72114241666667,86.42426732291666,66.0,102.0
268,85.72114241666667,86.44229616666667,58.0,96.0
269,85.72114241666667,86.46272885625,61.0,107.0
270,86.29806541666666,86.86657495624999,54.0,88.0
271,86.58652691666667,87.19349798958334,66.0,98.0
272,86.58652691666667,87.21513260208333,61.0,104.0
273,86.58652691666667,87.22114221666666,58.0,91.0
274,87.45191141666666,87.49998833333333,61.0,92.0
275,87.16344991666666,87.5264306375,54.0,91.0
276,85.72114241666667,87.72114214999999,42.0,92.0
277,87.45191141666666,87.90503635625,58.0,108.0
278,87.45191141666666,87.908642125,66.0,104.0
279,87.74037291666666,88.03604595416667,54.0,88.0
280,88.02883441666667,88.31369014791666,58.0,89.0
281,88.02883441666667,88.42667090208333,61.0,96.0
282,88.02883441666667,88.45311320625,65.0,96.0
283,88.89421891666666,89.35215154791666,61.0,94.0
284,88.89421891666666,89.437488075,70.0,102.0
285,88.89421891666666,89.48676691458333,65.0,108.0
286,89.47114191666667,89.84253609791666,58.0,90.0
287,88.60575741666666,89.90503608958333,53.0,79.0
288,88.02883441666667,89.97234377291666,46.0,81.0
289,89.75960341666666,90.1081610625,61.0,104.0
290,89.75960341666666,90.15503605625,70.0,107.0
291,90.04806491666666,90.27162257916666,65.0,91.0
292,90.33652641666666,90.66825714166666,70.0,100.0
293,90.33652641666666,90.68628598541666,63.0,104.0
294,90.33652641666666,90.72955521041666,66.0,107.0
295,90.33652641666666,91.1177763125,47.0,90.0
296,90.62498791666667,91.24518014166667,59.0,86.0
297,90.91344941666667,91.26441090833333,63.0,98.0
298,90.91344941666667,91.33051666875,70.0,98.0
299,90.91344941666667,91.41945896458333,66.0,107.0
300,91.49037241666666,91.8389300625,61.0,93.0
301,91.49037241666666,91.8389300625,68.0,98.0
302,91.49037241666666,91.85695890625,65.0,100.0
303,91.77883391666667,92.16344925,56.0,85.0
304,91.49037241666666,92.18388193958333,49.0,91.0
305,92.06729541666667,92.32450692083333,65.0,108.0
306,92.06729541666667,92.41344921666666,61.0,94.0
307,92.06729541666667,92.42426652291667,68.0,100.0
308,92.64421841666666,93.25719910416666,66.0,92.0
309,92.64421841666666,93.35215101458333,58.0,87.0
310,92.64421841666666,93.40142985416666,61.0,96.0
311,93.22114141666667,93.6346029,54.0,84.0
312,93.50960291666667,94.12739129583333,66.0,107.0
313,93.50960291666667,94.13700667916666,58.0,110.0
314,93.50960291666667,94.15984321458333,61.0,107.0
315,94.08652591666666,94.40864125833333,54.0,93.0
316,94.37498741666667,94.73075659999999,58.0,100.0
317,94.37498741666667,94.745179675,66.0,92.0
318,92.64421841666666,94.75479505833333,42.0,94.0
319,94.37498741666667,94.81248735833333,61.0,113.0
320,94.66344891666667,94.93388157291666,54.0,87.0
321,94.95191041666666,95.17907384791667,58.0,91.0
322,94.95191041666666,95.30647767708334,66.0,98.0
323,94.95191041666666,95.31609306041666,61.0,102.0
324,95.52883341666666,96.12017949166666,54.0,90.0
325,95.81729491666667,96.24157370625,61.0,107.0
326,95.81729491666667,96.37378522708333,70.0,108.0
327,95.81729491666667,96.4110448375,66.0,116.0
328,96.68267941666666,96.72114094999999,69.0,88.0
329,96.39421791666666,96.75479479166667,54.0,92.0
330,94.95191041666666,96.87859285208333,42.0,93.0
331,96.82691016666666,96.87859285208333,42.0,78.0
332,96.68267941666666,97.0312370625,61.0,108.0
333,96.68267941666666,97.04085244583334,70.0,108.0
334,96.68267941666666,97.08772743958333,66.0,114.0
335,97.25960241666667,97.72594850833333,61.0,94.0
336,97.25960241666667,97.87618887291666,68.0,110.0
337,97.25960241666667,97.90503502291666,65.0,113.0
338,97.83652541666666,98.26080420625,58.0,83.0
339,98.12498691666666,98.60575608333333,61.0,100.0
340,98.12498691666666,98.72474645208334,65.0,110.0
341,98.12498691666666,98.73075606666666,68.0,107.0
342,97.25960241666667,99.03123679583334,46.0,91.0
343,98.70190991666666,99.03965025625,58.0,104.0
344,98.99037141666666,99.27883291666666,61.0,102.0
345,98.99037141666666,99.34734252291666,68.0,110.0
346,98.99037141666666,99.43147712708333,65.0,110.0
347,99.56729441666667,99.92546744583333,70.0,104.0
348,99.56729441666667,99.94590013541666,63.0,104.0
349,99.56729441666667,99.96993859375,66.0,113.0
350,100.14421741666666,100.44469814583333,63.0,107.0
351,99.56729441666667,100.45551545208333,47.0,84.0
352,99.85575591666667,100.52041928958333,59.0,87.0
353,100.14421741666666,100.52883274999999,70.0,100.0
354,100.14421741666666,100.60335197083333,66.0,113.0
355,100.72114041666666,101.01561153125,61.0,96.0
356,100.72114041666666,101.03484229791667,68.0,100.0
357,100.72114041666666,101.07330383125,65.0,107.0
358,101.00960191666667,101.35815956249999,56.0,86.0
359,100.72114041666666,101.36777494583333,49.0,87.0
360,101.29806341666666,101.55527492083333,65.0,108.0
361,101.29806341666666,101.5889287625,68.0,100.0
362,101.29806341666666,101.75960181666666,61.0,96.0
363,101.87498641666666,102.45912095416666,66.0,104.0
364,101.87498641666666,102.47114018333333,58.0,94.0
365,101.87498641666666,102.52883248333333,61.0,98.0
366,102.45190941666667,102.86296705416666,54.0,94.0
367,102.74037091666666,103.36777467916666,66.0,102.0
368,102.74037091666666,103.38820736875,58.0,98.0
369,102.74037091666666,103.41464967291667,61.0,110.0
370,103.31729391666667,103.63219772083333,54.0,108.0
371,102.16344791666667,103.81609192708333,49.0,84.0
372,101.87498641666666,103.82690923333332,42.0,90.0
373,103.60575541666667,103.99277459583332,66.0,104.0
374,103.60575541666667,104.01080343958333,58.0,110.0
375,103.89421691666666,104.01681305416666,53.0,114.0
376,103.60575541666667,104.08051496875,61.0,114.0
377,104.18267841666666,104.32690916666667,58.0,96.0
378,104.18267841666666,104.48676491458333,66.0,107.0
379,104.18267841666666,104.495178375,63.0,114.0
380,104.75960141666667,105.24157250625,63.0,102.0
381,105.04806291666667,105.66224552708333,75.0,114.0
382,105.04806291666667,105.99758202083333,66.0,116.0
383,105.62498591666666,106.0168127875,63.0,90.0
384,104.47113991666666,106.0745050875,58.0,84.0
385,104.18267841666666,106.15743776875,51.0,98.0
386,105.91344741666667,106.254793525,70.0,104.0
387,106.20190891666667,106.52402425833333,75.0,96.0
388,107.06729341666666,107.63339911041666,58.0,96.0
389,107.35575491666667,108.03363944166666,70.0,114.0
390,107.35575491666667,108.07811058958333,61.0,113.0
391,107.93267791666666,108.22594710833333,58.0,92.0
392,106.49037041666666,108.22955287708334,46.0,89.0
393,106.77883191666666,108.23916826041666,53.0,84.0
394,108.22113941666666,108.54565860416666,65.0,100.0
395,108.50960091666667,108.82330279791667,70.0,107.0
396,108.79806241666667,109.65022576458333,63.0,89.0
397,108.79806241666667,109.66104307083333,66.0,102.0
398,108.79806241666667,109.67907191458333,47.0,84.0
399,109.08652391666666,109.70070652708333,54.0,84.0
400,109.37498541666666,109.72955267708333,59.0,86.0
401,109.66344691666666,109.98075456666666,70.0,104.0
402,109.95190841666667,110.58772563958333,68.0,94.0
403,110.24036991666667,110.65022563125,56.0,87.0
404,109.95190841666667,110.70671600833333,49.0,86.0
405,109.95190841666667,110.74397561875,61.0,88.0
406,110.52883141666666,110.87258137083333,65.0,91.0
407,110.81729291666666,111.14782171875,70.0,93.0
408,111.10575441666667,111.50118705625,66.0,89.0
409,111.10575441666667,111.96633122499999,61.0,84.0
410,111.68267741666666,112.31008117916666,54.0,86.0
411,111.97113891666666,112.56849460625,58.0,92.0
412,112.25960041666666,112.77282150208333,61.0,96.0
413,111.39421591666667,112.83291764791666,49.0,84.0
414,111.10575441666667,112.84974456875,42.0,89.0
415,112.54806191666667,113.03003300625,54.0,98.0
416,112.83652341666667,113.19109067708332,66.0,110.0
417,113.12498491666666,113.46392717916666,61.0,86.0
418,113.41344641666666,113.69830214791666,63.0,92.0
419,113.41344641666666,113.72354252916666,66.0,91.0
420,113.99036941666667,114.4687347375,63.0,88.0
421,114.27883091666666,114.86657122291666,75.0,96.0
422,114.27883091666666,115.03243658541666,66.0,107.0
423,114.85575391666666,115.1177731125,63.0,89.0
424,113.70190791666667,115.1898884875,58.0,84.0
425,113.41344641666666,115.23916732708334,51.0,89.0
426,115.14421541666667,115.59854227916667,75.0,98.0
427,115.72113841666666,116.0408499125,73.0,107.0
428,115.72113841666666,116.26801334375,65.0,94.0
429,116.29806141666667,116.76200366249999,58.0,84.0
430,116.58652291666667,117.16104207083333,61.0,94.0
431,116.58652291666667,117.22474398541667,68.0,98.0
432,115.72113841666666,117.51801317708333,46.0,84.0
433,117.16344591666666,117.5264266375,58.0,84.0
434,116.00959991666666,117.55407086458332,53.0,79.0
435,117.45190741666666,117.73315737916667,68.0,108.0
436,117.74036891666667,118.07810925625,70.0,98.0
437,118.02883041666666,118.6081572625,63.0,85.0
438,118.02883041666666,118.71993609375,66.0,91.0
439,118.60575341666666,119.25959948333333,59.0,81.0
440,118.89421491666667,119.264407175,63.0,100.0
441,119.18267641666667,119.66344558333333,66.0,116.0
442,119.75959941666666,119.99036861666666,68.0,104.0
443,119.47113791666666,120.03243591875,59.0,86.0
444,118.02883041666666,120.04084937916666,47.0,82.0
445,118.31729191666666,120.05647437708333,54.0,75.0
446,120.04806091666666,120.26560896458334,68.0,86.0
447,120.04806091666666,120.28243588541666,70.0,88.0
448,120.33652241666667,120.55767623333332,61.0,91.0
449,120.33652241666667,120.64782045208332,65.0,100.0
450,120.33652241666667,120.6995031375,68.0,91.0
451,120.91344541666666,121.46993572708332,61.0,91.0
452,121.20190691666666,121.76560876458333,65.0,113.0
453,121.20190691666666,121.78003183958333,73.0,98.0
454,121.49036841666667,121.8100799125,68.0,113.0
455,121.77882991666667,122.13099333125,61.0,94.0
456,120.62498391666666,122.15142602083333,56.0,83.0
457,120.33652241666667,122.17666640208333,49.0,88.0
458,122.06729141666666,122.31608946041666,73.0,94.0
459,122.06729141666666,122.34373368749999,65.0,104.0
460,122.64421441666666,123.24036818333333,63.0,113.0
461,122.64421441666666,123.24397395208334,71.0,116.0
462,122.64421441666666,123.25358933541666,66.0,117.0
463,123.22113741666666,123.56128160208333,59.0,95.0
464,123.50959891666666,124.14902190833332,63.0,113.0
465,123.50959891666666,124.18387767291667,66.0,116.0
466,123.50959891666666,124.19349305624999,71.0,113.0
467,124.08652191666667,124.35455072708334,59.0,91.0
468,122.64421441666666,124.5937333875,47.0,106.0
469,124.37498341666667,124.64781991875,63.0,104.0
470,123.07690666666666,124.67546414583333,54.0,64.0
471,124.37498341666667,124.6946949125,71.0,116.0
472,124.37498341666667,124.76080067291666,66.0,114.0
473,124.66344491666666,124.77281990208333,59.0,93.0
474,124.95190641666666,125.24156983958333,73.0,107.0
475,124.95190641666666,125.25238714583332,65.0,108.0
476,124.95190641666666,125.26200252916666,68.0,114.0
477,125.38459866666666,125.43507942916666,73.0,88.0
478,125.38459866666666,125.43748327499999,68.0,102.0
479,125.38459866666666,125.44108904375,65.0,104.0
480,125.81729091666666,126.38580045625,73.0,107.0
481,125.81729091666666,126.42906968125,65.0,110.0
482,125.81729091666666,126.45310813958334,68.0,117.0
483,126.39421391666666,126.72233887291667,61.0,104.0
484,125.24036791666666,126.73676194791666,56.0,81.0
485,124.95190641666666,126.77642540416666,49.0,89.0
486,126.68267541666667,126.87257923749999,73.0,107.0
487,126.68267541666667,126.90262731041666,68.0,116.0
488,126.68267541666667,126.95070422708334,65.0,110.0
489,126.97113691666667,127.1177715125,49.0,91.0
490,127.25959841666666,127.57450222083332,61.0,107.0
491,127.25959841666666,127.57570414375,68.0,110.0
492,127.25959841666666,127.58051183541666,65.0,110.0
493,127.69229066666666,127.73555989166667,65.0,102.0
494,127.69229066666666,127.75118488958333,68.0,100.0
495,127.69229066666666,127.75358873541666,61.0,96.0
496,127.83652141666666,128.28243481875,58.0,79.0
497,128.12498291666665,128.72955014375,61.0,113.0
498,128.12498291666665,128.754790525,68.0,113.0
499,128.12498291666665,128.76560783125,65.0,117.0
500,128.70190591666668,129.00959818333334,58.0,104.0
501,127.25959841666666,129.2956558375,46.0,94.0
502,128.99036741666666,129.30166545208334,61.0,108.0
503,128.99036741666666,129.36656928958334,68.0,114.0
504,128.99036741666666,129.46031927708333,65.0,116.0
505,129.27882891666667,129.53964618958332,58.0,98.0
506,129.56729041666665,129.89060768125,63.0,100.0
507,129.56729041666665,129.89060768125,70.0,104.0
508,129.56729041666665,129.89661729583332,66.0,114.0
509,129.85575191666666,130.17065572083334,58.0,85.0
510,130.14421341666667,130.23195378958334,63.0,113.0
511,130.14421341666667,130.45070376041667,66.0,116.0
512,130.14421341666667,130.45430952916666,70.0,104.0
513,130.57690566666668,131.08772290625,58.0,66.0
514,131.00959791666665,131.34974210208333,70.0,110.0
515,131.00959791666665,131.36897286875,63.0,116.0
516,131.00959791666665,131.38339594375,66.0,117.0
517,131.29805941666666,131.51440554166666,58.0,102.0
518,129.56729041666665,131.5745016875,51.0,89.0
519,131.58652091666667,131.67426128958334,63.0,94.0
520,131.58652091666667,131.68387667291665,70.0,93.0
521,131.58652091666667,131.69829974791665,66.0,108.0
522,131.87498241666665,131.96632855833332,67.0,97.0
523,131.87498241666665,132.30887658958332,71.0,109.0
524,131.87498241666665,132.34373235416666,63.0,102.0
525,131.87498241666665,132.52402079166666,66.0,110.0
526,132.45190541666668,132.83051113541666,59.0,80.0
527,132.74036691666666,133.283636075,63.0,113.0
528,132.74036691666666,133.3269053,71.0,109.0
529,132.74036691666666,133.34613606666667,66.0,116.0
530,133.31728991666665,133.61055910833332,59.0,97.0
531,132.16344391666667,133.81969369583334,54.0,77.0
532,131.87498241666665,133.88099176458334,47.0,90.0
533,133.60575141666666,133.89781868541667,71.0,109.0
534,133.60575141666666,133.90022253125,63.0,116.0
535,133.89421291666667,134.03003020625,59.0,95.0
536,133.60575141666666,134.07329943125,66.0,120.0
537,134.18267441666666,134.44589553541667,61.0,107.0
538,134.18267441666666,134.46031861041666,65.0,113.0
539,134.18267441666666,134.46031861041666,68.0,108.0
540,134.61536666666666,134.65983781458334,65.0,110.0
541,134.61536666666666,134.66584742916666,68.0,107.0
542,134.61536666666666,134.66945319791665,61.0,96.0
543,134.61536666666666,135.09132814166665,56.0,75.0
544,135.04805891666666,135.68387613958333,61.0,113.0
545,135.04805891666666,135.69349152291667,68.0,116.0
546,135.04805891666666,135.69829921458333,65.0,117.0
547,135.62498191666666,135.91704918541666,56.0,89.0
548,135.91344341666667,136.19469337916667,61.0,113.0
549,134.18267441666666,136.19829914791666,49.0,98.0
550,135.91344341666667,136.22233760625,68.0,116.0
551,136.20190491666665,136.2692126,56.0,89.0
552,135.91344341666667,136.30647221041667,65.0,117.0
553,136.49036641666666,137.20190478333333,63.0,113.0
554,136.49036641666666,137.20310670625,71.0,113.0
555,136.49036641666666,137.25358746875,66.0,117.0
556,137.06728941666665,137.48195282291667,59.0,109.0
557,137.35575091666666,137.95070276041668,63.0,114.0
558,137.35575091666666,137.95911622083332,71.0,116.0
559,137.35575091666666,137.97954891041667,66.0,119.0
560,137.93267391666666,138.22714503125,59.0,113.0
561,136.49036641666666,138.30046232916666,47.0,109.0
562,138.22113541666667,138.46152,71.0,100.0
563,138.22113541666667,138.54325075833333,63.0,107.0
564,138.50959691666665,138.61897190208333,47.0,100.0
565,138.22113541666667,138.63219305416666,66.0,110.0
566,138.79805841666666,139.0961353,61.0,108.0
567,138.79805841666666,139.11296222083334,65.0,114.0
568,138.79805841666666,139.11536606666667,68.0,113.0
569,139.23075066666667,139.29204873541667,61.0,98.0
570,139.23075066666667,139.29685642708333,65.0,108.0
571,139.23075066666667,139.30286604166668,68.0,102.0
572,139.66344291666667,140.21272168958333,61.0,110.0
573,139.66344291666667,140.26079860625,65.0,116.0
574,139.66344291666667,140.26560629791666,68.0,117.0
575,140.24036591666666,140.55166395208332,56.0,114.0
576,140.52882741666667,140.89301006041666,61.0,113.0
577,138.79805841666666,140.90382736666666,49.0,94.0
578,140.81728891666666,140.9062312125,56.0,96.0
579,140.52882741666667,140.94829851458334,65.0,117.0
580,140.52882741666667,140.96512543541667,68.0,117.0
581,141.10575041666667,141.6562311125,61.0,98.0
582,141.10575041666667,141.706711875,70.0,107.0
583,141.10575041666667,141.76680802083334,65.0,113.0
584,141.68267341666666,142.42666370208332,53.0,87.0
585,141.97113491666667,142.56127906875,61.0,108.0
586,141.97113491666667,142.61897136875,70.0,110.0
587,141.97113491666667,142.64300982708332,65.0,117.0
588,142.54805791666666,142.82810595625,58.0,104.0
589,142.83651941666668,142.85454826041666,67.0,95.0
590,141.10575041666667,142.91224056041665,46.0,104.0
591,142.83651941666668,143.15142322083332,61.0,108.0
592,142.83651941666668,143.19469244583334,70.0,107.0
593,142.83651941666668,143.31127896875,65.0,117.0
594,143.12498091666666,143.379788575,46.0,98.0
595,143.41344241666667,143.7475769875,70.0,98.0
596,143.41344241666667,143.7692116,63.0,110.0
597,143.41344241666667,143.7764231375,66.0,114.0
598,143.99036541666666,144.2235384625,58.0,81.0
599,144.27882691666667,144.83171145833333,70.0,114.0
600,144.27882691666667,144.85695183958333,63.0,114.0
601,144.27882691666667,144.86296145416665,66.0,119.0
602,144.85574991666667,145.16945179791665,58.0,94.0
603,143.41344241666667,145.20310563958333,51.0,102.0
604,145.14421141666665,145.37498061666668,70.0,93.0
605,145.14421141666665,145.39421138333333,66.0,117.0
606,145.14421141666665,145.39901907499998,63.0,113.0
607,145.72113441666667,146.32570164375,71.0,109.0
608,145.72113441666667,146.408634325,63.0,108.0
609,145.72113441666667,146.44949970416667,66.0,114.0
610,146.58651891666668,146.67786505833334,70.0,114.0
611,146.29805741666667,146.69228813333334,59.0,93.0
612,146.58651891666668,146.73555735833332,71.0,106.0
613,146.58651891666668,147.07449962083334,63.0,113.0
614,146.58651891666668,147.15262461041667,66.0,116.0
615,147.16344191666667,147.4687303375,59.0,109.0
616,147.45190341666665,147.71993222708332,71.0,109.0
617,147.45190341666665,147.74757645416668,63.0,108.0
618,145.72113441666667,147.77281683541665,47.0,90.0
619,147.74036491666666,147.80647067708333,59.0,91.0
620,147.45190341666665,147.91103797083332,66.0,117.0
621,148.02882641666667,149.87858578541667,61.0,107.0
622,148.02882641666667,149.88219155416667,65.0,113.0
623,148.02882641666667,149.89781655208333,68.0,110.0
624,148.02882641666667,149.90863385833333,49.0,93.0
625,150.33651841666665,150.5119991625,66.0,100.0
626,150.33651841666665,150.55406646458334,70.0,93.0
627,150.33651841666665,150.80406643125,61.0,93.0
628,150.91344141666667,151.46272018958334,54.0,78.0
629,151.20190291666665,151.8821912875,66.0,94.0
630,151.20190291666665,151.96512396875,58.0,90.0
631,151.77882591666668,152.16945086458333,54.0,78.0
632,150.33651841666665,152.40743160208334,42.0,102.0
633,152.06728741666666,152.60935465208334,61.0,87.0
634,150.62497991666666,152.61536426666666,49.0,74.0
635,152.35574891666667,152.65983541458334,54.0,79.0
636,152.64421041666665,153.3966141625,66.0,90.0
637,152.64421041666665,153.41584492916667,58.0,88.0
638,153.22113341666667,153.68747950833333,54.0,77.0
639,153.50959491666666,154.04324869166666,66.0,91.0
640,153.50959491666666,154.11536406666667,61.0,96.0
641,154.37497941666666,154.67425822291665,58.0,104.0
642,154.37497941666666,154.70671014166666,66.0,98.0
643,152.64421041666665,154.71752744791667,42.0,84.0
644,154.08651791666665,154.78964282291668,54.0,85.0
645,154.66344091666667,154.91584472916665,61.0,88.0
646,154.95190241666666,156.69348872291667,40.0,86.0
647,154.95190241666666,156.74517140833333,68.0,108.0
648,154.95190241666666,156.74877717708333,52.0,87.0
649,154.95190241666666,156.75238294583332,64.0,91.0
650,154.95190241666666,156.82810408958332,71.0,88.0
651,157.25959441666666,158.99637303125,59.0,85.0
652,157.25959441666666,159.02401725833332,47.0,84.0
653,157.25959441666666,159.0576711,63.0,89.0
654,157.25959441666666,159.0648826375,71.0,87.0
655,157.25959441666666,159.08411340416666,66.0,96.0
656,159.56728641666666,160.35574785,61.0,89.0
657,159.56728641666666,160.37618053958332,70.0,89.0
658,159.56728641666666,160.40021899791665,66.0,93.0
659,160.14420941666665,160.83291124791666,54.0,78.0
660,160.43267091666667,161.0841131375,61.0,89.0
661,160.43267091666667,161.10094005833332,70.0,90.0
662,160.43267091666667,161.19469004583334,66.0,92.0
663,161.00959391666666,161.35214194791666,54.0,83.0
664,159.56728641666666,161.37738232916666,42.0,89.0
665,161.29805541666667,161.85935341875,61.0,88.0
666,161.29805541666667,161.95069956041667,70.0,88.0
667,161.29805541666667,161.985555325,66.0,89.0
668,162.45190141666666,162.67425715625,58.0,87.0
669,162.16343991666668,162.93146866041667,54.0,83.0
670,163.17305516666667,163.35093975833334,54.0,87.0
671,161.87497841666666,163.46151666666665,42.0,94.0
672,162.74036291666667,163.48675704791665,66.0,114.0
673,162.74036291666667,163.49036281666667,58.0,87.0
674,163.60574741666667,163.64300702708334,66.0,71.0
675,163.60574741666667,163.70791086458334,61.0,102.0
676,164.18267041666667,164.96271838958333,64.0,90.0
677,164.18267041666667,164.96512223541666,68.0,107.0
678,164.18267041666667,165.03242991874998,71.0,87.0
679,164.18267041666667,165.57449715416666,52.0,86.0
680,165.04805491666667,165.70069906041667,64.0,86.0
681,165.04805491666667,165.7427663625,68.0,102.0
682,165.04805491666667,165.80166058541667,71.0,77.0
683,164.18267041666667,165.95069902708332,40.0,86.0
684,165.62497791666667,165.95310287291667,52.0,86.0
685,165.91343941666665,166.09132400833332,64.0,83.0
686,165.91343941666665,166.30166051875,71.0,89.0
687,166.49036241666667,167.29204500208334,63.0,88.0
688,166.49036241666667,167.29805461666666,66.0,96.0
689,166.49036241666667,167.31968922916667,71.0,86.0
690,166.49036241666667,167.639400725,59.0,85.0
691,167.35574691666667,168.03483336458333,63.0,90.0
692,167.35574691666667,168.08891989583333,66.0,96.0
693,167.35574691666667,168.08891989583333,71.0,87.0
694,167.93266991666667,168.23194872291666,59.0,81.0
695,166.49036241666667,168.30526602083333,47.0,84.0
696,168.79805441666667,169.26079473958333,66.0,91.0
697,168.79805441666667,169.26680435416665,70.0,91.0
698,169.37497741666667,169.92305426666667,54.0,81.0
699,169.66343891666665,170.23315037916666,58.0,87.0
700,169.66343891666665,170.3148811375,66.0,91.0
701,168.79805441666667,170.36776574583334,61.0,88.0
702,168.79805441666667,170.8773810625,42.0,87.0
703,170.24036191666667,170.94589066875,54.0,78.0
704,171.10574641666668,171.8076694,61.0,88.0
705,171.10574641666668,171.83411170416667,70.0,88.0
706,171.10574641666668,171.88339054374998,66.0,93.0
707,171.68266941666667,172.12978474166667,54.0,78.0
708,171.97113091666665,172.52762122708333,61.0,89.0
709,171.97113091666665,172.56247699166667,70.0,91.0
710,171.97113091666665,172.58771737291667,66.0,94.0
711,171.10574641666668,173.00718847083334,42.0,86.0
712,172.54805391666667,173.04925577291667,54.0,83.0
713,172.83651541666666,173.07930384583332,61.0,87.0
714,172.83651541666666,173.13579422291667,70.0,87.0
715,172.83651541666666,173.21632305833333,66.0,88.0
716,173.41343841666665,173.78122682916666,71.0,93.0
717,173.41343841666665,173.80406336458333,68.0,113.0
718,173.41343841666665,173.82449605416667,64.0,103.0
719,173.41343841666665,174.06608256041667,52.0,100.0
720,173.99036141666667,174.35814982916665,71.0,93.0
721,173.99036141666667,174.39060174791666,68.0,113.0
722,173.99036141666667,174.39540943958332,64.0,100.0
723,174.27882291666666,174.61656325625,52.0,78.0
724,174.56728441666667,174.9230536,64.0,87.0
725,174.56728441666667,174.92665936875,71.0,85.0
726,174.56728441666667,174.98555359166667,68.0,102.0
727,174.85574591666665,175.16944779791666,52.0,79.0
728,175.14420741666666,175.40141892083332,64.0,95.0
729,173.41343841666665,175.42305353333333,40.0,84.0
730,175.14420741666666,175.43988045416665,68.0,108.0
731,175.14420741666666,175.45430352916665,71.0,88.0
732,175.43266891666667,175.53964005625,52.0,81.0
733,175.72113041666665,176.13098613124998,63.0,90.0
734,175.72113041666665,176.13218805416668,66.0,100.0
735,175.72113041666665,176.14420728333332,71.0,87.0
736,176.00959191666666,176.30887072291665,59.0,82.0
737,176.29805341666668,176.72713989791666,63.0,88.0
738,176.29805341666668,176.754784125,66.0,94.0
739,176.29805341666668,176.76920719999998,71.0,86.0
740,176.58651491666666,176.88218795416665,59.0,75.0
741,176.87497641666667,177.27882251666665,63.0,90.0
742,176.87497641666667,177.31608212708332,71.0,86.0
743,176.87497641666667,177.33411097083334,66.0,94.0
744,177.16343791666665,177.53002440625,59.0,82.0
745,175.72113041666665,177.63939939166667,47.0,86.0
746,177.45189941666666,177.69348592291666,63.0,89.0
747,177.45189941666666,177.69709169166666,71.0,87.0
748,177.45189941666666,177.72113015,66.0,96.0
749,178.02882241666666,178.42786082499998,70.0,93.0
750,178.02882241666666,178.45790889791667,61.0,91.0
751,178.02882241666666,178.485553125,66.0,104.0
752,178.31728391666667,178.66223579375,54.0,82.0
753,178.60574541666665,179.01079343958332,70.0,92.0
754,178.60574541666665,179.0192069,61.0,92.0
755,178.60574541666665,179.04925497291666,66.0,98.0
756,178.89420691666666,179.1850722625,54.0,81.0
757,179.18266841666667,179.63579335625,61.0,90.0
758,179.18266841666667,179.64180297083334,70.0,91.0
759,179.18266841666667,179.69468757916667,66.0,98.0
760,179.47112991666665,179.77281256875,54.0,83.0
761,178.02882241666666,180.11896636875,42.0,98.0
762,179.75959141666667,180.19829328125,70.0,91.0
763,179.75959141666667,180.20790866458333,61.0,98.0
764,179.75959141666667,180.24997596666665,66.0,98.0
765,180.04805291666665,180.35213941458332,54.0,80.0
766,180.33651441666666,180.73795667083334,61.0,96.0
767,180.33651441666666,180.74757205416665,70.0,89.0
768,180.33651441666666,180.77401435833332,66.0,98.0
769,180.62497591666667,180.9446874125,54.0,83.0
770,180.91343741666665,181.32449505416668,61.0,94.0
771,180.91343741666665,181.34853351249998,70.0,90.0
772,180.91343741666665,181.36896620208333,66.0,93.0
773,181.20189891666666,181.50358156875,54.0,83.0
774,181.49036041666668,181.89540843958332,61.0,92.0
775,181.49036041666668,181.95670650833333,66.0,102.0
776,181.49036041666668,181.97233150625,70.0,88.0
777,181.77882191666666,182.06007187916666,54.0,86.0
778,180.33651441666666,182.20430262916665,42.0,90.0
779,182.06728341666667,182.25838916041667,61.0,94.0
780,182.06728341666667,182.28843723333333,66.0,98.0
781,182.06728341666667,182.32689876666666,70.0,88.0
782,182.64420641666666,183.00237944583333,71.0,116.0
783,182.64420641666666,183.00237944583333,74.0,100.0
784,182.64420641666666,183.014398675,67.0,109.0
785,182.93266791666667,183.26319671874998,55.0,79.0
786,183.22112941666666,183.59252359791665,74.0,97.0
787,183.22112941666666,183.60935051875,71.0,119.0
788,183.22112941666666,183.62978320833332,67.0,103.0
789,183.50959091666667,183.81608126041667,55.0,79.0
790,183.79805241666665,184.14420621666667,74.0,97.0
791,183.79805241666665,184.17064852083334,71.0,119.0
792,183.79805241666665,184.17305236666667,67.0,106.0
793,184.08651391666666,184.399013875,55.0,76.0
794,184.37497541666667,184.72233113958333,74.0,97.0
795,184.37497541666667,184.72593690833332,71.0,116.0
796,182.64420641666666,184.73555229166666,43.0,97.0
797,184.37497541666667,184.74276382916665,67.0,100.0
798,184.66343691666665,184.99877341041667,55.0,76.0
799,184.95189841666667,185.68747524166668,71.0,102.0
800,184.95189841666667,185.70189831666667,64.0,93.0
801,184.95189841666667,185.71632139166667,68.0,109.0
802,185.52882141666666,185.9494944375,52.0,81.0
803,185.81728291666667,186.40862899166666,71.0,96.0
804,185.81728291666667,186.42064822083333,64.0,98.0
805,185.81728291666667,186.42906168125,68.0,106.0
806,186.39420591666666,186.77761932708333,52.0,74.0
807,184.95189841666667,186.91103277083332,40.0,94.0
808,186.68266741666667,187.00358083541667,71.0,100.0
809,186.68266741666667,187.07930197916667,64.0,92.0
810,186.68266741666667,187.09011928541665,68.0,103.0
811,187.25959041666667,188.96511903541665,52.0,104.0
812,187.25959041666667,188.99035941666665,64.0,102.0
813,187.25959041666667,188.9999748,68.0,113.0
814,187.25959041666667,189.00117672291665,40.0,94.0
815,187.25959041666667,189.02521518125,71.0,107.0
816,189.56728241666667,190.72833995416667,61.0,86.0
817,189.56728241666667,190.7668014875,70.0,88.0
818,189.56728241666667,190.88819570208332,66.0,88.0
819,189.56728241666667,191.32088795208332,42.0,90.0
820,191.00958991666667,191.70189751666666,61.0,88.0
821,191.29805141666665,191.79684942708332,70.0,92.0
822,190.72112841666666,191.83891672916667,54.0,81.0
823,191.87497441666667,192.59612816666666,61.0,83.0
824,191.87497441666667,192.62617623958332,68.0,79.0
825,191.87497441666667,192.62978200833334,65.0,86.0
826,192.45189741666667,192.8076666,56.0,66.0
827,192.74035891666665,193.43266651666667,68.0,93.0
828,192.74035891666665,193.43987805416666,61.0,87.0
829,193.31728191666667,193.74276262916666,56.0,71.0
830,191.87497441666667,193.75478185833333,49.0,82.0
831,193.60574341666666,193.96752221458334,65.0,93.0
832,194.18266641666665,194.86055094166667,68.0,88.0
833,194.18266641666665,194.99035861666667,61.0,87.0
834,194.75958941666667,195.32088741875,58.0,76.0
835,195.04805091666665,195.89901234166666,65.0,108.0
836,194.18266641666665,195.9446854125,46.0,86.0
837,195.62497391666665,196.1033392375,58.0,81.0
838,195.91343541666666,196.44708919166666,68.0,96.0
839,196.49035841666665,196.93146412708333,66.0,102.0
840,197.06728141666667,197.7115121,63.0,79.0
841,197.93266591666665,198.17785819166667,63.0,82.0
842,196.77881991666666,198.22112741666666,58.0,74.0
843,196.49035841666665,198.37016585833334,51.0,88.0
844,197.35574291666666,198.56487737083333,75.0,113.0
845,197.35574291666666,198.620165825,66.0,91.0
846,198.22112741666666,198.74156003958333,70.0,89.0
847,199.08651191666667,200.65141555416668,54.0,67.0
848,199.37497341666665,200.67665593541665,59.0,79.0
849,198.79805041666665,200.77040592291667,47.0,87.0
850,199.66343491666666,200.96631935833332,71.0,95.0
851,199.66343491666666,201.02521358125,63.0,88.0
852,201.68266541666665,202.31367494791667,61.0,80.0
853,202.54804991666666,202.84011718541666,61.0,82.0
854,201.97112691666666,202.860549875,73.0,89.0
855,201.39420391666667,202.90141525416666,56.0,81.0
856,201.97112691666666,202.92064602083332,65.0,91.0
857,201.10574241666666,202.97112678333332,49.0,88.0
858,202.83651141666667,203.18026137083334,68.0,86.0
859,203.41343441666666,204.14540547291665,65.0,100.0
860,203.41343441666666,204.16824200833332,73.0,103.0
861,203.41343441666666,204.17905931458333,68.0,113.0
862,203.99035741666665,204.51439580833332,61.0,84.0
863,204.27881891666667,204.90982844791665,65.0,107.0
864,204.27881891666667,204.92184767708332,68.0,113.0
865,204.27881891666667,204.92905921458333,73.0,109.0
866,203.41343441666666,205.23554955833333,49.0,97.0
867,204.85574191666666,205.34732838958334,61.0,86.0
868,205.14420341666667,205.3629533875,73.0,106.0
869,205.14420341666667,205.3773764625,68.0,114.0
870,205.14420341666667,205.40021299791667,65.0,107.0
871,205.72112641666666,206.37737632916665,63.0,108.0
872,205.72112641666666,206.40381863333332,70.0,108.0
873,205.72112641666666,206.44949170416666,67.0,113.0
874,206.29804941666666,206.75357820208333,58.0,77.0
875,206.58651091666667,207.16703968541665,63.0,100.0
876,206.58651091666667,207.21271275625,67.0,114.0
877,206.58651091666667,207.22232813958334,70.0,108.0
878,207.16343391666666,207.50117425624998,58.0,86.0
879,205.72112641666666,207.60934731875,51.0,87.0
880,207.45189541666667,207.66223192708333,67.0,96.0
881,207.45189541666667,207.75477999166665,70.0,113.0
882,207.45189541666667,207.84852997916667,63.0,113.0
883,208.02881841666667,208.66944333125,72.0,110.0
884,208.02881841666667,208.68867409791667,63.0,100.0
885,208.02881841666667,208.75477985833334,67.0,113.0
886,208.60574141666666,209.0552605875,60.0,83.0
887,208.89420291666667,209.39901054166666,72.0,108.0
888,208.89420291666667,209.48915476041665,63.0,102.0
889,208.89420291666667,209.52641437083332,67.0,114.0
890,209.47112591666667,209.8052604875,60.0,94.0
891,208.02881841666667,209.83651048333334,48.0,88.0
892,209.75958741666665,210.07328929791666,63.0,108.0
893,209.75958741666665,210.1081450625,72.0,108.0
894,210.04804891666666,210.14540467291667,48.0,93.0
895,209.75958741666665,210.20069312708333,67.0,117.0
896,210.33651041666667,210.75357766874998,72.0,107.0
897,210.33651041666667,210.937471875,65.0,108.0
898,210.33651041666667,210.937471875,68.0,114.0
899,210.91343341666666,211.49035641666666,60.0,88.0
900,211.20189491666667,211.80886598958332,72.0,110.0
901,211.20189491666667,211.84251983125,65.0,113.0
902,211.20189491666667,211.88819290208332,68.0,116.0
903,211.77881791666667,212.13939479166666,60.0,108.0
904,210.33651041666667,212.17905824791666,53.0,100.0
905,212.06727941666665,212.39540437291666,67.0,119.0
906,212.35574091666666,212.60213511458332,68.0,88.0
907,212.64420241666667,213.02280813541665,61.0,103.0
908,212.64420241666667,213.34251963124998,73.0,103.0
909,212.64420241666667,213.38819270208333,65.0,102.0
910,212.64420241666667,213.41583692916666,68.0,102.0
911,213.22112541666667,213.66703881875,61.0,103.0
912,213.50958691666665,214.20069259375,65.0,108.0
913,213.50958691666665,214.21030797708332,68.0,114.0
914,213.50958691666665,214.21631759166667,73.0,106.0
915,214.08650991666667,214.38578872291666,61.0,113.0
916,214.37497141666665,214.64780791875,73.0,100.0
917,214.37497141666665,214.66824060833332,65.0,110.0
918,212.64420241666667,214.687471375,49.0,87.0
919,214.66343291666666,214.76319251875,61.0,106.0
920,214.37497141666665,214.82569251041667,68.0,110.0
921,214.95189441666665,215.57208664166666,63.0,89.0
922,214.95189441666665,215.58650971666665,70.0,104.0
923,214.95189441666665,215.64179817083334,67.0,108.0
924,214.95189441666665,215.98074043333332,51.0,94.0
925,215.52881741666667,216.02400965833334,58.0,84.0
926,215.81727891666665,216.42905768125,63.0,107.0
927,215.81727891666665,216.46872113749998,70.0,113.0
928,215.81727891666665,216.47473075208333,67.0,114.0
929,216.39420191666667,216.79203840208334,51.0,104.0
930,216.68266341666666,217.04684606041667,63.0,100.0
931,216.68266341666666,217.12136528125,70.0,108.0
932,216.68266341666666,217.13218258749998,67.0,114.0
933,217.25958641666665,217.99155747291667,65.0,100.0
934,217.25958641666665,218.01439400833334,73.0,103.0
935,217.25958641666665,218.02521131458332,68.0,113.0
936,217.83650941666667,218.36054780833334,61.0,84.0
937,218.12497091666665,218.75598044791667,65.0,107.0
938,218.12497091666665,218.76799967708334,68.0,113.0
939,218.12497091666665,218.77521121458332,73.0,109.0
940,217.25958641666665,219.08170155833332,49.0,97.0
941,218.70189391666665,219.19348038958333,61.0,86.0
942,218.99035541666666,219.2091053875,73.0,106.0
943,218.99035541666666,219.22352846249998,68.0,114.0
944,218.99035541666666,219.24636499791666,65.0,107.0
945,219.56727841666665,220.22352832916667,63.0,108.0
946,219.56727841666665,220.24997063333333,70.0,108.0
947,219.56727841666665,220.29564370416665,67.0,113.0
948,220.14420141666665,220.59973020208332,58.0,77.0
949,220.43266291666666,221.01319168541667,63.0,100.0
950,220.43266291666666,221.05886475625,67.0,114.0
951,220.43266291666666,221.06848013958333,70.0,108.0
952,219.56727841666665,221.45549931875,51.0,87.0
953,221.00958591666665,221.47473008541667,58.0,86.0
954,221.29804741666666,221.60093199166667,70.0,113.0
955,221.29804741666666,221.69468197916666,63.0,113.0
956,221.58650891666667,221.79684542708333,67.0,96.0
957,221.87497041666666,222.51559533124998,72.0,110.0
958,221.87497041666666,222.53482609791666,63.0,100.0
959,221.87497041666666,222.60093185833333,67.0,113.0
960,222.45189341666665,222.9014125875,60.0,83.0
961,222.74035491666666,223.24516254166667,72.0,108.0
962,222.74035491666666,223.33530676041667,63.0,102.0
963,222.74035491666666,223.37256637083334,67.0,114.0
964,223.60573941666667,223.62376826041665,69.0,88.0
965,223.31727791666665,223.65141248749998,60.0,94.0
966,221.87497041666666,223.68266248333333,48.0,88.0
967,223.60573941666667,223.91944129791665,63.0,108.0
968,223.60573941666667,223.9542970625,72.0,108.0
969,223.89420091666665,223.99155667291666,48.0,93.0
970,223.60573941666667,224.04684512708332,67.0,117.0
971,224.18266241666666,224.59972966875,72.0,107.0
972,224.18266241666666,224.783623875,65.0,108.0
973,224.18266241666666,224.783623875,68.0,114.0
974,224.75958541666665,224.91823924166667,67.0,91.0
975,224.75958541666665,225.33650841666667,60.0,88.0
976,225.04804691666666,225.6550179895833,72.0,110.0
977,225.04804691666666,225.68867183125,65.0,113.0
978,225.04804691666666,225.73434490208334,68.0,116.0
979,225.62496991666666,225.98554679166665,60.0,108.0
980,224.18266241666666,226.02521024791665,53.0,100.0
981,225.91343141666667,226.24155637291665,67.0,119.0
982,226.20189291666665,226.44828711458334,68.0,88.0
983,226.49035441666666,226.86896013541667,61.0,103.0
984,226.49035441666666,227.18867163125,73.0,103.0
985,226.49035441666666,227.23434470208332,65.0,102.0
986,226.49035441666666,227.26198892916665,68.0,102.0
987,227.06727741666666,227.51319081875,61.0,103.0
988,227.35573891666667,228.04684459375,65.0,108.0
989,227.35573891666667,228.05645997708334,68.0,114.0
990,227.35573891666667,228.06246959166666,73.0,106.0
991,227.93266191666666,228.23194072291665,61.0,113.0
992,228.22112341666667,228.49395991875,73.0,100.0
993,228.22112341666667,228.51439260833334,65.0,110.0
994,226.49035441666666,228.533623375,49.0,87.0
995,228.50958491666665,228.60934451875,61.0,106.0
996,228.22112341666667,228.67184451041666,68.0,110.0
997,228.79804641666666,229.41823864166665,63.0,89.0
998,228.79804641666666,229.43266171666667,70.0,104.0
999,228.79804641666666,229.48795017083333,67.0,108.0
1000,228.79804641666666,229.8268924333333,51.0,94.0
1001,229.37496941666666,229.87016165833333,58.0,84.0
1002,229.66343091666667,230.27520968125,63.0,107.0
1003,229.66343091666667,230.3148731375,70.0,113.0
1004,229.66343091666667,230.32088275208332,67.0,114.0
1005,230.24035391666666,230.63819040208332,51.0,104.0
1006,230.52881541666667,230.89299806041666,63.0,100.0
1007,230.52881541666667,230.96751728125,70.0,108.0
1008,230.52881541666667,230.9783345875,67.0,114.0
1009,231.10573841666667,231.83770947291666,65.0,100.0
1010,231.10573841666667,231.86054600833333,73.0,103.0
1011,231.10573841666667,231.87136331458333,68.0,113.0
1012,231.68266141666666,232.20669980833333,61.0,84.0
1013,231.97112291666667,232.60213244791666,65.0,107.0
1014,231.97112291666667,232.61415167708333,68.0,113.0
1015,231.97112291666667,232.62136321458334,73.0,109.0
1016,231.10573841666667,232.92785355833334,49.0,97.0
1017,232.54804591666667,233.03963238958332,61.0,86.0
1018,232.83650741666665,233.0552573875,73.0,106.0
1019,232.83650741666665,233.0696804625,68.0,114.0
1020,232.83650741666665,233.09251699791665,65.0,107.0
1021,233.41343041666667,234.06968032916666,63.0,108.0
1022,233.41343041666667,234.09612263333332,70.0,108.0
1023,233.41343041666667,234.14179570416667,67.0,113.0
1024,233.99035341666666,234.44588220208334,58.0,77.0
1025,234.27881491666665,234.85934368541666,63.0,100.0
1026,234.27881491666665,234.90501675625,67.0,114.0
1027,234.27881491666665,234.91463213958332,70.0,108.0
1028,233.41343041666667,235.30165131875,51.0,87.0
1029,234.85573791666667,235.32088208541666,58.0,86.0
1030,235.14419941666665,235.44708399166666,70.0,113.0
1031,235.14419941666665,235.54083397916665,63.0,113.0
1032,235.43266091666666,235.64299742708332,67.0,96.0
1033,235.72112241666667,236.36174733125,72.0,110.0
1034,235.72112241666667,236.38097809791665,63.0,100.0
1035,235.72112241666667,236.44708385833331,67.0,113.0
1036,236.29804541666667,236.7475645875,60.0,83.0
1037,236.58650691666665,237.09131454166666,72.0,108.0
1038,236.58650691666665,237.18145876041666,63.0,102.0
1039,236.58650691666665,237.21871837083333,67.0,114.0
1040,237.45189141666665,237.46992026041667,69.0,88.0
1041,237.16342991666667,237.4975644875,60.0,94.0
1042,235.72112241666667,237.52881448333332,48.0,88.0
1043,237.45189141666665,237.76559329791667,63.0,108.0
1044,237.45189141666665,237.8004490625,72.0,108.0
1045,237.74035291666667,237.83770867291665,48.0,93.0
1046,237.45189141666665,237.89299712708333,67.0,117.0
1047,238.02881441666665,238.44588166875,72.0,107.0
1048,238.02881441666665,238.629775875,65.0,108.0
1049,238.02881441666665,238.629775875,68.0,114.0
1050,238.60573741666667,238.76439124166666,67.0,91.0
1051,238.60573741666667,239.18266041666666,60.0,88.0
1052,238.89419891666665,239.50116998958333,72.0,110.0
1053,238.89419891666665,239.53482383124998,65.0,113.0
1054,238.89419891666665,239.58049690208333,68.0,116.0
1055,239.47112191666665,239.83169879166667,60.0,108.0
1056,238.02881441666665,239.87136224791666,53.0,100.0
1057,239.75958341666666,240.08770837291667,67.0,119.0
1058,240.04804491666667,240.29443911458333,68.0,88.0
1059,240.33650641666665,240.71511213541666,61.0,103.0
1060,240.33650641666665,241.03482363125,73.0,103.0
1061,240.33650641666665,241.08049670208334,65.0,102.0
1062,240.33650641666665,241.10814092916667,68.0,102.0
1063,240.91342941666667,241.35934281874998,61.0,103.0
1064,241.20189091666666,241.89299659374998,65.0,108.0
1065,241.20189091666666,241.90261197708332,68.0,114.0
1066,241.20189091666666,241.90862159166667,73.0,106.0
1067,241.77881391666665,242.07809272291667,61.0,113.0
1068,242.06727541666666,242.34011191874998,73.0,100.0
1069,242.06727541666666,242.36054460833333,65.0,110.0
1070,240.33650641666665,242.37977537499998,49.0,87.0
1071,242.35573691666667,242.45549651874998,61.0,106.0
1072,242.06727541666666,242.51799651041665,68.0,110.0
1073,242.64419841666665,243.26439064166667,63.0,89.0
1074,242.64419841666665,243.27881371666666,70.0,104.0
1075,242.64419841666665,243.33410217083332,67.0,108.0
1076,242.64419841666665,243.67304443333333,51.0,94.0
1077,243.22112141666665,243.71631365833332,58.0,84.0
1078,243.50958291666666,244.12136168125,63.0,107.0
1079,243.50958291666666,244.1610251375,70.0,113.0
1080,243.50958291666666,244.16703475208334,67.0,114.0
1081,244.08650591666665,244.4843424020833,51.0,104.0
1082,244.37496741666666,244.73915006041665,63.0,100.0
1083,244.37496741666666,244.81366928125,70.0,108.0
1084,244.37496741666666,244.8244865875,67.0,114.0
1085,244.95189041666666,245.68386147291665,65.0,100.0
1086,244.95189041666666,245.70669800833332,73.0,103.0
1087,244.95189041666666,245.71751531458332,68.0,113.0
1088,245.52881341666665,246.05285180833332,61.0,84.0
1089,245.81727491666666,246.44828444791665,65.0,107.0
1090,245.81727491666666,246.46030367708332,68.0,113.0
1091,245.81727491666666,246.46751521458333,73.0,109.0
1092,244.95189041666666,246.77400555833333,49.0,97.0
1093,246.39419791666666,246.88578438958334,61.0,86.0
1094,246.68265941666667,246.9014093875,73.0,106.0
1095,246.68265941666667,246.9158324625,68.0,114.0
1096,246.68265941666667,246.93866899791666,65.0,107.0
1097,247.25958241666666,247.91583232916665,63.0,108.0
1098,247.25958241666666,247.94227463333334,70.0,108.0
1099,247.25958241666666,247.98794770416666,67.0,113.0
1100,247.83650541666665,248.29203420208333,58.0,77.0
1101,248.12496691666666,248.70549568541665,63.0,100.0
1102,248.12496691666666,248.75116875625,67.0,114.0
1103,248.12496691666666,248.76078413958334,70.0,108.0
1104,247.25958241666666,249.14780331875,51.0,87.0
1105,248.70188991666666,249.16703408541667,58.0,86.0
1106,248.99035141666667,249.29323599166665,70.0,113.0
1107,248.99035141666667,249.38698597916667,63.0,113.0
1108,249.27881291666665,249.48914942708333,67.0,96.0
1109,249.56727441666666,250.20789933125,72.0,110.0
1110,249.56727441666666,250.22713009791667,63.0,100.0
1111,249.56727441666666,250.29323585833333,67.0,113.0
1112,250.14419741666666,250.59371658749998,60.0,83.0
1113,250.43265891666667,250.93746654166665,72.0,108.0
1114,250.43265891666667,251.02761076041665,63.0,102.0
1115,250.43265891666667,251.06487037083332,67.0,114.0
1116,251.29804341666667,251.31607226041666,69.0,88.0
1117,251.00958191666666,251.3437164875,60.0,94.0
1118,249.56727441666666,251.37496648333334,48.0,88.0
1119,251.29804341666667,251.61174529791666,63.0,108.0
1120,251.29804341666667,251.6466010625,72.0,108.0
1121,251.58650491666666,251.68386067291667,48.0,93.0
1122,251.29804341666667,251.73914912708332,67.0,117.0
1123,251.87496641666667,252.29203366874998,72.0,107.0
1124,251.87496641666667,252.475927875,65.0,108.0
1125,251.87496641666667,252.475927875,68.0,114.0
1126,252.45188941666666,252.61054324166665,67.0,91.0
1127,252.45188941666666,253.02881241666665,60.0,88.0
1128,252.74035091666667,253.34732198958332,72.0,110.0
1129,252.74035091666667,253.38097583125,65.0,113.0
1130,252.74035091666667,253.42664890208331,68.0,116.0
1131,253.31727391666666,253.67785079166666,60.0,108.0
1132,251.87496641666667,253.71751424791665,53.0,100.0
1133,253.60573541666665,253.93386037291666,67.0,119.0
1134,253.89419691666666,254.14059111458332,68.0,88.0
1135,254.18265841666667,254.56126413541665,61.0,103.0
1136,254.18265841666667,254.88097563124998,73.0,103.0
1137,254.18265841666667,254.92664870208333,65.0,102.0
1138,254.18265841666667,254.95429292916666,68.0,102.0
1139,254.75958141666666,255.20549481875,61.0,103.0
1140,255.04804291666667,255.73914859375,65.0,108.0
1141,255.04804291666667,255.7487639770833,68.0,114.0
1142,255.04804291666667,255.75477359166666,73.0,106.0
1143,255.62496591666667,255.92424472291665,61.0,113.0
1144,255.91342741666665,256.18626391875,73.0,100.0
1145,255.91342741666665,256.20669660833335,65.0,110.0
1146,254.18265841666667,256.22592737499997,49.0,87.0
1147,256.20188891666663,256.30164851874997,61.0,106.0
1148,255.91342741666665,256.36414851041667,68.0,110.0
1149,256.4903504166667,257.11054264166665,63.0,89.0
1150,256.4903504166667,257.1249657166667,70.0,104.0
1151,256.4903504166667,257.18025417083334,67.0,108.0
1152,256.4903504166667,257.5191964333333,51.0,94.0
1153,257.06727341666664,257.56246565833334,58.0,84.0
1154,257.3557349166667,257.96751368125,63.0,107.0
1155,257.3557349166667,258.0071771375,70.0,113.0
1156,257.3557349166667,258.0131867520833,67.0,114.0
1157,257.93265791666664,258.33049440208333,51.0,104.0
1158,258.2211194166667,258.58530206041667,63.0,100.0
1159,258.2211194166667,258.65982128125,70.0,108.0
1160,258.2211194166667,258.6706385875,67.0,114.0
1161,258.79804241666665,259.53001347291666,65.0,100.0
1162,258.79804241666665,259.55285000833334,73.0,103.0
1163,258.79804241666665,259.5636673145833,68.0,113.0
1164,259.37496541666667,259.8990038083333,61.0,84.0
1165,259.66342691666665,260.29443644791667,65.0,107.0
1166,259.66342691666665,260.3064556770833,68.0,113.0
1167,259.66342691666665,260.31366721458335,73.0,109.0
1168,258.79804241666665,260.62015755833335,49.0,97.0
1169,260.2403499166667,260.7319363895833,61.0,86.0
1170,260.52881141666666,260.7475613875,73.0,106.0
1171,260.52881141666666,260.7619844625,68.0,114.0
1172,260.52881141666666,260.78482099791665,65.0,107.0
1173,261.1057344166667,261.76198432916664,63.0,108.0
1174,261.1057344166667,261.7884266333333,70.0,108.0
1175,261.1057344166667,261.83409970416665,67.0,113.0
1176,261.68265741666664,262.1381862020833,58.0,77.0
1177,261.9711189166667,262.55164768541664,63.0,100.0
1178,261.9711189166667,262.59732075625,67.0,114.0
1179,261.9711189166667,262.60693613958335,70.0,108.0
1180,261.1057344166667,262.99395531875,51.0,87.0
1181,262.54804191666665,263.01318608541663,58.0,86.0
1182,262.8365034166667,263.13938799166664,70.0,113.0
1183,262.8365034166667,263.23313797916666,63.0,113.0
1184,263.12496491666667,263.3353014270833,67.0,96.0
1185,263.41342641666665,264.05405133125,72.0,110.0
1186,263.41342641666665,264.07328209791666,63.0,100.0
1187,263.41342641666665,264.13938785833335,67.0,113.0
1188,263.9903494166667,264.4398685875,60.0,83.0
1189,264.27881091666666,264.78361854166667,72.0,108.0
1190,264.27881091666666,264.87376276041664,63.0,102.0
1191,264.27881091666666,264.91102237083334,67.0,114.0
1192,265.14419541666666,265.1622242604167,69.0,88.0
1193,264.8557339166667,265.1898684875,60.0,94.0
1194,263.41342641666665,265.2211184833333,48.0,88.0
1195,265.14419541666666,265.45789729791665,63.0,108.0
1196,265.14419541666666,265.4927530625,72.0,108.0
1197,265.43265691666664,265.53001267291665,48.0,93.0
1198,265.14419541666666,265.5853011270833,67.0,117.0
1199,265.7211184166667,266.13818566875,72.0,107.0
1200,265.7211184166667,266.322079875,65.0,108.0
1201,265.7211184166667,266.322079875,68.0,114.0
1202,266.29804141666665,266.45669524166664,67.0,91.0
1203,266.29804141666665,266.87496441666667,60.0,88.0
1204,266.58650291666663,267.1934739895833,72.0,110.0
1205,266.58650291666663,267.22712783125,65.0,113.0
1206,266.58650291666663,267.2728009020833,68.0,116.0
1207,267.16342591666665,267.52400279166665,60.0,108.0
1208,265.7211184166667,267.5636662479167,53.0,100.0
1209,267.45188741666664,267.78001237291664,67.0,119.0
1210,267.7403489166667,267.9867431145833,68.0,88.0
1211,268.02881041666666,268.40741613541667,61.0,103.0
1212,268.02881041666666,268.72712763124997,73.0,103.0
1213,268.02881041666666,268.7728007020833,65.0,102.0
1214,268.02881041666666,268.80044492916664,68.0,102.0
1215,268.6057334166667,269.05164681875,61.0,103.0
1216,268.89419491666666,269.58530059375,65.0,108.0
1217,268.89419491666666,269.5949159770833,68.0,114.0
1218,268.89419491666666,269.6009255916667,73.0,106.0
1219,269.4711179166667,269.77039672291664,61.0,113.0
1220,269.75957941666667,270.03241591875,73.0,100.0
1221,269.75957941666667,270.0528486083333,65.0,110.0
1222,268.02881041666666,270.072079375,49.0,87.0
1223,270.04804091666665,270.14780051875,61.0,106.0
1224,269.75957941666667,270.2103005104167,68.0,110.0
1225,270.33650241666663,270.9566946416667,63.0,89.0
1226,270.33650241666663,270.97111771666664,70.0,104.0
1227,270.33650241666663,271.02640617083335,67.0,108.0
1228,270.33650241666663,271.36534843333334,51.0,94.0
1229,270.91342541666666,271.4086176583333,58.0,84.0
1230,271.20188691666664,271.81366568125,63.0,107.0
1231,271.20188691666664,271.8533291375,70.0,113.0
1232,271.20188691666664,271.8593387520833,67.0,114.0
1233,271.77880991666666,272.17664640208335,51.0,104.0
1234,272.06727141666664,272.4314540604167,63.0,100.0
1235,272.06727141666664,272.50597328124996,70.0,108.0
1236,272.06727141666664,272.5167905875,67.0,114.0
1237,272.64419441666666,273.3761654729167,65.0,100.0
1238,272.64419441666666,273.3990020083333,73.0,103.0
1239,272.64419441666666,273.40981931458333,68.0,113.0
1240,273.2211174166667,273.7451558083333,61.0,84.0
1241,273.50957891666667,274.1405884479167,65.0,107.0
1242,273.50957891666667,274.1526076770833,68.0,113.0
1243,273.50957891666667,274.1598192145833,73.0,109.0
1244,272.64419441666666,274.4663095583333,49.0,97.0
1245,274.08650191666663,274.57808838958334,61.0,86.0
1246,274.3749634166667,274.5937133875,73.0,106.0
1247,274.3749634166667,274.6081364625,68.0,114.0
1248,274.3749634166667,274.6309729979167,65.0,107.0
