,start,end,pitch,velocity
0,22.332708885416668,22.693623770833334,62.0,88.0
1,22.755243385416666,23.146087797916667,64.0,91.0
2,23.177777885416667,23.526368847916668,65.0,85.0
3,23.600312385416668,24.105593225,67.0,82.0
4,24.234114135416668,24.40664905625,67.0,85.0
5,24.445381385416667,24.83974691875,64.0,88.0
6,24.867915885416668,25.311577110416668,62.0,84.0
7,25.290450385416666,25.771083379166665,60.0,84.0
8,25.712984885416667,27.466503060416667,62.0,88.0
9,29.093260885416665,29.5245981875,62.0,88.0
10,29.515795385416666,29.911921479166665,64.0,88.0
11,29.938329885416668,30.4119206375,65.0,84.0
12,30.360864385416665,30.9295254,67.0,84.0
13,30.994666135416665,31.1302292875,67.0,84.0
14,31.205933385416667,31.54748210625,67.0,86.0
15,31.628467885416665,31.92776315625,72.0,90.0
16,32.051002385416666,32.52635369791667,74.0,91.0
17,32.473536885416664,32.70240973958333,72.0,88.0
18,32.68480413541667,34.63374451666667,69.0,85.0
19,35.853812885416666,35.99465771875,74.0,85.0
20,36.065080135416665,36.20944608958333,74.0,88.0
21,36.27634738541666,36.57388209583333,74.0,89.0
22,36.69888188541667,36.8555717625,72.0,84.0
23,36.91014913541667,37.542190325,74.0,88.0
24,37.54395088541666,38.7886671,72.0,84.0
25,39.23408888541667,39.35556755416667,69.0,84.0
26,39.44535613541667,39.60556713333333,69.0,84.0
27,39.656623385416665,40.04746779791667,67.0,86.0
28,40.07915788541666,40.499931825,65.0,83.0
29,40.50169238541667,40.94711417083333,67.0,84.0
30,40.924226885416665,42.21647823125,69.0,83.0
31,42.61436488541667,42.728801312499996,62.0,85.0
32,42.82563213541667,42.97527977083333,62.0,84.0
33,43.03689938541667,43.34675801875,64.0,88.0
34,43.459433885416665,43.76225027708333,65.0,84.0
35,43.88196838541667,44.404854829166666,67.0,80.0
36,44.515770135416666,44.68830505625,67.0,85.0
37,44.727037385416665,45.11788179791667,64.0,86.0
38,45.14957188541667,45.6231626375,62.0,85.0
39,45.57210638541667,46.005204247916666,60.0,87.0
40,45.994640885416665,48.8766782875,62.0,81.0
41,49.37491688541667,49.735831770833336,62.0,88.0
42,49.797451385416664,50.188295797916666,64.0,91.0
43,50.21998588541667,50.56857684791667,65.0,85.0
44,50.64252038541667,51.447096495833335,67.0,82.0
45,51.48758938541667,51.88195491875,64.0,88.0
46,51.91012388541667,52.353785110416666,62.0,84.0
47,52.332658385416664,52.813291379166664,60.0,84.0
48,52.75519288541667,54.508711060416665,62.0,88.0
49,56.135468885416664,56.5668061875,62.0,88.0
50,56.55800338541667,56.95412947916667,64.0,88.0
51,56.980537885416666,57.4541286375,65.0,84.0
52,57.403072385416664,57.9717334,67.0,84.0
53,58.03687413541667,58.1724372875,67.0,84.0
54,58.248141385416666,58.589690106249996,67.0,86.0
55,58.670675885416664,58.96997115625,72.0,90.0
56,59.09321038541667,59.568561697916664,74.0,91.0
57,59.515744885416666,59.74461773958333,72.0,88.0
58,59.727012135416665,61.67595251666667,69.0,85.0
59,62.89602088541667,63.03686571875,74.0,85.0
60,63.10728813541667,63.25165408958333,74.0,88.0
61,63.318555385416666,63.616090095833336,74.0,89.0
62,63.74108988541666,63.8977797625,72.0,84.0
63,63.95235713541667,64.584398325,74.0,88.0
64,64.58615888541667,65.8308751,72.0,84.0
65,66.27629688541667,66.39777555416667,69.0,84.0
66,66.48756413541666,66.64777513333333,69.0,84.0
67,66.69883138541667,67.08967579791667,67.0,86.0
68,67.12136588541667,67.54213982499999,65.0,83.0
69,67.54390038541666,67.98932217083333,67.0,84.0
70,67.96643488541666,69.25868623125,69.0,83.0
71,69.65657288541667,69.7710093125,62.0,85.0
72,69.86784013541667,70.01748777083333,62.0,84.0
73,70.07910738541666,70.38896601875,64.0,88.0
74,70.50164188541666,70.80445827708333,65.0,84.0
75,70.92417638541667,71.44706282916667,67.0,80.0
76,71.55797813541666,71.73051305625,67.0,85.0
77,71.76924538541667,72.16008979791667,64.0,86.0
78,72.19177988541666,72.6653706375,62.0,85.0
79,72.61431438541666,73.04741224791667,60.0,87.0
80,73.03684888541666,75.9188862875,62.0,81.0
81,76.41712488541667,76.53684299375,67.0,84.0
82,76.62839213541666,76.72698351875,67.0,84.0
83,76.83965938541667,77.22522211666667,67.0,87.0
84,77.26219388541666,77.70761567083333,65.0,85.0
85,77.68472838541666,79.2991622875,67.0,85.0
86,79.79740088541666,79.98225972916667,67.0,85.0
87,80.00866813541667,80.19352697916666,67.0,85.0
88,80.21993538541666,80.64423044583333,64.0,86.0
89,80.64246988541666,80.79035696041666,62.0,84.0
90,80.85373713541667,81.316764525,60.0,80.0
91,81.27627163541666,82.74457902291667,62.0,85.0
92,83.17767688541666,83.29387387291666,67.0,85.0
93,83.38894413541666,83.50866224375,67.0,84.0
94,83.60021138541667,84.00337972083334,67.0,88.0
95,84.02274588541667,84.47873103333333,65.0,90.0
96,84.44528038541667,85.30091274791667,67.0,88.0
97,85.29034938541666,85.4470392625,72.0,91.0
98,85.50161663541667,85.61781362291667,69.0,86.0
99,85.71288388541667,85.88365824583333,69.0,88.0
100,85.92415113541666,86.05443260625,72.0,90.0
101,86.13541838541667,88.40654132291667,76.0,93.0
102,89.30442713541666,89.52801830833333,69.0,88.0
103,89.51569438541667,89.70055322916667,74.0,88.0
104,89.72696163541667,89.95583448958334,72.0,88.0
105,89.93822888541666,90.13189053125,74.0,87.0
106,90.14949613541667,90.38541123125,72.0,87.0
107,90.36076338541666,90.5913968,74.0,89.0
108,90.57203063541667,90.98048065208333,77.0,88.0
109,91.20583238541667,91.34315609791666,74.0,88.0
110,91.41709963541666,91.5209727,72.0,88.0
111,91.62836688541667,91.795620125,72.0,87.0
112,91.83963413541666,92.00160569375,72.0,86.0
113,92.05090138541667,92.41533739166667,74.0,86.0
114,92.47343588541666,92.79737900208333,72.0,85.0
115,92.89597038541666,93.02625185625,65.0,90.0
116,93.10723763541667,93.20758957916667,65.0,85.0
117,93.31850488541667,93.41885682916667,65.0,86.0
118,93.52977213541666,93.654771925,65.0,86.0
119,93.74103938541667,94.15301052291666,67.0,90.0
120,94.16357388541667,94.3097004,65.0,86.0
121,94.37484113541666,95.45758579166666,69.0,86.0
122,96.06497913541666,96.27624638541667,69.0,84.0
123,96.27624638541667,96.4540629875,74.0,91.0
124,96.48751363541666,96.697020325,72.0,87.0
125,96.69878088541667,96.88363972916666,74.0,86.0
126,96.91004813541666,97.14420267083334,72.0,86.0
127,97.12131538541666,97.3413854375,74.0,93.0
128,97.33258263541667,97.82201843125,77.0,91.0
129,97.75511713541667,98.08962361458333,79.0,86.0
130,98.17765163541667,98.31145422708333,79.0,84.0
131,98.38891888541667,98.52272147708334,79.0,85.0
132,98.60018613541666,98.72166480416666,76.0,84.0
133,98.81145338541667,98.92236869166666,74.0,88.0
134,99.02272063541666,99.54384651875,72.0,91.0
135,99.65652238541666,99.78328273541666,74.0,84.0
136,99.86778963541667,99.96638101875,74.0,88.0
137,100.07905688541666,100.17588770833333,74.0,86.0
138,100.29032413541667,100.39947888125,74.0,91.0
139,100.50159138541666,100.61778837291666,74.0,95.0
140,100.71285863541667,101.30968861666666,77.0,86.0
141,101.34666038541667,102.63186948958334,76.0,88.0
142,102.82553113541667,103.04912230833334,69.0,88.0
143,103.03679838541666,103.22165722916667,74.0,88.0
144,103.24806563541667,103.47693848958333,72.0,88.0
145,103.45933288541667,103.65299453125,74.0,87.0
146,103.67060013541666,103.90651523125,72.0,87.0
147,103.88186738541667,104.11250079999999,74.0,89.0
148,104.09313463541666,104.50158465208334,77.0,88.0
149,104.72693638541666,104.86426009791667,74.0,88.0
150,104.93820363541667,105.0420767,72.0,88.0
151,105.14947088541666,105.316724125,72.0,87.0
152,105.36073813541667,105.52270969375,72.0,86.0
153,105.57200538541666,105.93644139166666,74.0,86.0
154,105.99453988541667,106.31848300208333,72.0,85.0
155,106.41707438541667,106.54735585625,65.0,90.0
156,106.62834163541666,106.72869357916666,65.0,85.0
157,106.83960888541667,106.93996082916667,65.0,86.0
158,107.05087613541667,107.175875925,65.0,86.0
159,107.26214338541666,107.67411452291667,67.0,90.0
160,107.68467788541666,107.8308044,65.0,86.0
161,107.89594513541667,108.31847963541667,67.0,86.0
162,108.31847963541667,108.97868979166667,69.0,86.0
163,109.58608313541667,109.79735038541666,69.0,84.0
164,109.79735038541666,109.9751669875,74.0,91.0
165,110.00861763541667,110.218124325,72.0,87.0
166,110.21988488541666,110.40474372916667,74.0,86.0
167,110.43115213541667,110.66530667083333,72.0,86.0
168,110.64241938541666,110.8624894375,74.0,93.0
169,110.85368663541666,111.34312243125,77.0,91.0
170,111.27622113541666,111.61072761458334,79.0,86.0
171,111.69875563541666,111.83255822708334,79.0,84.0
172,111.91002288541667,112.04382547708333,79.0,85.0
173,112.12129013541667,112.24276880416667,76.0,84.0
174,112.33255738541666,112.44347269166667,74.0,88.0
175,112.54382463541667,113.06495051875,72.0,91.0
176,113.17762638541667,113.30438673541667,74.0,84.0
177,113.38889363541666,113.48748501875,74.0,88.0
178,113.60016088541667,113.69699170833333,74.0,86.0
179,113.81142813541666,113.92058288125,74.0,91.0
180,114.02269538541667,114.13889237291667,74.0,95.0
181,114.23396263541666,114.83079261666667,77.0,86.0
182,114.86776438541666,115.71283338541667,76.0,88.0
183,115.71283338541667,116.09311443541667,77.0,87.0
184,116.13536788541667,116.55790238541667,76.0,87.0
185,116.55790238541667,116.98571856666666,72.0,84.0
186,116.98043688541667,119.85895316666667,74.0,91.0
187,133.88181688541667,134.24273177083333,62.0,88.0
188,134.30435138541665,134.69519579791665,64.0,91.0
189,134.72688588541666,135.07547684791666,65.0,85.0
190,135.14942038541668,135.95399649583334,67.0,82.0
191,135.99448938541667,136.38885491874998,64.0,88.0
192,136.41702388541665,136.86068511041665,62.0,84.0
193,136.83955838541667,137.32019137916666,60.0,84.0
194,137.26209288541668,139.01561106041666,62.0,88.0
195,140.64236888541666,141.0737061875,62.0,88.0
196,141.06490338541667,141.46102947916665,64.0,88.0
197,141.48743788541665,141.9610286375,65.0,84.0
198,141.90997238541667,142.4786334,67.0,84.0
199,142.54377413541667,142.6793372875,67.0,84.0
200,142.75504138541666,143.09659010625,67.0,86.0
201,143.17757588541667,143.47687115625,72.0,90.0
202,143.60011038541666,144.07546169791667,74.0,91.0
203,144.02264488541667,144.25151773958333,72.0,88.0
204,144.23391213541666,146.18285251666666,69.0,85.0
205,147.40292088541668,147.54376571875,74.0,85.0
206,147.61418813541667,147.75855408958333,74.0,88.0
207,147.82545538541666,148.12299009583333,74.0,89.0
208,148.24798988541667,148.4046797625,72.0,84.0
209,148.45925713541666,149.091298325,74.0,88.0
210,149.09305888541667,150.3377751,72.0,84.0
211,150.78319688541666,150.90467555416666,69.0,84.0
212,150.99446413541668,151.15467513333334,69.0,84.0
213,151.20573138541667,151.59657579791667,67.0,86.0
214,151.62826588541665,152.049039825,65.0,83.0
215,152.05080038541666,152.49622217083333,67.0,84.0
216,152.47333488541668,153.76558623125,69.0,83.0
217,154.16347288541667,154.2779093125,62.0,85.0
218,154.37474013541666,154.52438777083333,62.0,84.0
219,154.58600738541668,154.89586601875,64.0,88.0
220,155.00854188541666,155.31135827708334,65.0,84.0
221,155.43107638541667,155.95396282916667,67.0,80.0
222,156.06487813541668,156.23741305625,67.0,85.0
223,156.27614538541667,156.66698979791667,64.0,86.0
224,156.69867988541665,157.1722706375,62.0,85.0
225,157.12121438541666,157.55431224791667,60.0,87.0
226,157.54374888541668,160.4257862875,62.0,81.0
227,160.92402488541666,161.04374299375,67.0,84.0
228,161.13529213541668,161.23388351875,67.0,84.0
229,161.34655938541667,161.73212211666666,67.0,87.0
230,161.76909388541665,162.21451567083332,65.0,85.0
231,162.19162838541666,163.8060622875,67.0,85.0
232,164.30430088541667,164.48915972916666,67.0,85.0
233,164.51556813541666,164.70042697916668,67.0,85.0
234,164.72683538541668,165.15113044583333,64.0,86.0
235,165.14936988541666,165.29725696041666,62.0,84.0
236,165.36063713541665,165.823664525,60.0,80.0
237,165.78317163541666,167.25147902291667,62.0,85.0
238,167.68457688541667,167.80077387291666,67.0,85.0
239,167.89584413541667,168.01556224375,67.0,84.0
240,168.10711138541666,168.51027972083332,67.0,88.0
241,168.52964588541667,168.98563103333333,65.0,90.0
242,168.95218038541665,169.80781274791667,67.0,88.0
243,169.79724938541668,169.9539392625,72.0,91.0
244,170.00851663541667,170.12471362291666,69.0,86.0
245,170.21978388541666,170.39055824583332,69.0,88.0
246,170.43105113541665,170.56133260625,72.0,90.0
247,170.64231838541667,172.91344132291667,76.0,93.0
248,173.81132713541666,174.03491830833335,69.0,88.0
249,174.02259438541665,174.20745322916667,74.0,88.0
250,174.23386163541667,174.46273448958334,72.0,88.0
251,174.44512888541666,174.63879053125,74.0,87.0
252,174.65639613541666,174.89231123125,72.0,87.0
253,174.86766338541668,175.09829679999999,74.0,89.0
254,175.07893063541667,175.48738065208335,77.0,88.0
255,175.71273238541667,175.85005609791668,74.0,88.0
256,175.92399963541666,176.0278727,72.0,88.0
257,176.13526688541666,176.302520125,72.0,87.0
258,176.34653413541668,176.50850569375,72.0,86.0
259,176.55780138541667,176.92223739166667,74.0,86.0
260,176.98033588541668,177.30427900208332,72.0,85.0
261,177.40287038541666,177.53315185625,65.0,90.0
262,177.61413763541665,177.71448957916667,65.0,85.0
263,177.82540488541667,177.92575682916666,65.0,86.0
264,178.03667213541667,178.161671925,65.0,86.0
265,178.24793938541666,178.65991052291668,67.0,90.0
266,178.67047388541667,178.8166004,65.0,86.0
267,178.88174113541666,179.96448579166668,69.0,86.0
268,180.57187913541665,180.78314638541667,69.0,84.0
269,180.78314638541667,180.9609629875,74.0,91.0
270,180.99441363541666,181.203920325,72.0,87.0
271,181.20568088541665,181.39053972916668,74.0,86.0
272,181.41694813541667,181.65110267083332,72.0,86.0
273,181.62821538541667,181.8482854375,74.0,93.0
274,181.83948263541666,182.32891843125,77.0,91.0
275,182.26201713541667,182.59652361458333,79.0,86.0
276,182.68455163541665,182.81835422708332,79.0,84.0
277,182.89581888541667,183.02962147708334,79.0,85.0
278,183.10708613541667,183.22856480416667,76.0,84.0
279,183.31835338541666,183.42926869166666,74.0,88.0
280,183.52962063541668,184.05074651875,72.0,91.0
281,184.16342238541665,184.29018273541666,74.0,84.0
282,184.37468963541667,184.47328101875,74.0,88.0
283,184.58595688541666,184.68278770833334,74.0,86.0
284,184.79722413541666,184.90637888125,74.0,91.0
285,185.00849138541668,185.12468837291667,74.0,95.0
286,185.21975863541667,185.81658861666668,77.0,86.0
287,185.85356038541667,187.13876948958332,76.0,88.0
288,187.33243113541667,187.55602230833333,69.0,88.0
289,187.54369838541666,187.72855722916665,74.0,88.0
290,187.75496563541665,187.98383848958332,72.0,88.0
291,187.96623288541667,188.15989453125,74.0,87.0
292,188.17750013541666,188.41341523124999,72.0,87.0
293,188.38876738541666,188.6194008,74.0,89.0
294,188.60003463541668,189.00848465208333,77.0,88.0
295,189.23383638541665,189.37116009791666,74.0,88.0
296,189.44510363541667,189.5489767,72.0,88.0
297,189.65637088541666,189.823624125,72.0,87.0
298,189.86763813541666,190.02960969375,72.0,86.0
299,190.07890538541668,190.44334139166668,74.0,86.0
300,190.50143988541666,190.82538300208333,72.0,85.0
301,190.92397438541667,191.05425585625,65.0,90.0
302,191.13524163541666,191.23559357916668,65.0,85.0
303,191.34650888541665,191.44686082916667,65.0,86.0
304,191.55777613541667,191.682775925,65.0,86.0
305,191.76904338541667,192.18101452291666,67.0,90.0
306,192.19157788541668,192.3377044,65.0,86.0
307,192.40284513541667,192.82537963541665,67.0,86.0
308,192.82537963541665,193.48558979166665,69.0,86.0
309,194.09298313541666,194.30425038541665,69.0,84.0
310,194.30425038541665,194.4820669875,74.0,91.0
311,194.51551763541667,194.725024325,72.0,87.0
312,194.72678488541666,194.91164372916666,74.0,86.0
313,194.93805213541665,195.17220667083333,72.0,86.0
314,195.14931938541667,195.3693894375,74.0,93.0
315,195.36058663541667,195.85002243125,77.0,91.0
316,195.78312113541668,196.11762761458334,79.0,86.0
317,196.20565563541666,196.33945822708333,79.0,84.0
318,196.41692288541665,196.55072547708332,79.0,85.0
319,196.62819013541667,196.74966880416667,76.0,84.0
320,196.83945738541667,196.95037269166667,74.0,88.0
321,197.05072463541666,197.57185051875,72.0,91.0
322,197.68452638541666,197.81128673541667,74.0,84.0
323,197.89579363541665,197.99438501875,74.0,88.0
324,198.10706088541667,198.20389170833334,74.0,86.0
325,198.31832813541666,198.42748288125,74.0,91.0
326,198.52959538541666,198.64579237291667,74.0,95.0
327,198.74086263541668,199.33769261666666,77.0,86.0
328,199.37466438541668,200.21973338541667,76.0,88.0
329,200.21973338541667,200.60001443541665,77.0,87.0
330,200.64226788541666,201.06480238541667,76.0,87.0
331,201.06480238541667,201.49261856666666,72.0,84.0
332,201.48733688541665,204.36585316666665,74.0,91.0
333,205.92394913541668,206.14754030833333,69.0,88.0
334,206.13521638541667,206.32007522916666,74.0,88.0
335,206.34648363541666,206.57535648958333,72.0,88.0
336,206.55775088541665,206.75141253125,74.0,87.0
337,206.76901813541667,207.00493323125,72.0,87.0
338,206.98028538541666,207.2109188,74.0,89.0
339,207.19155263541666,207.60000265208333,77.0,88.0
340,207.82535438541666,207.96267809791667,74.0,88.0
341,208.03662163541665,208.1404947,72.0,88.0
342,208.24788888541667,208.415142125,72.0,87.0
343,208.45915613541666,208.62112769375,72.0,86.0
344,208.67042338541665,209.03485939166666,74.0,86.0
345,209.09295788541667,209.41690100208334,72.0,85.0
346,209.51549238541668,209.64577385625,65.0,90.0
347,209.72675963541667,209.82711157916665,65.0,85.0
348,209.93802688541666,210.03837882916667,65.0,86.0
349,210.14929413541665,210.274293925,65.0,86.0
350,210.36056138541667,210.77253252291666,67.0,90.0
351,210.78309588541666,210.9292224,65.0,86.0
352,210.99436313541668,212.07710779166666,69.0,86.0
353,212.68450113541667,212.89576838541666,69.0,84.0
354,212.89576838541666,213.0735849875,74.0,91.0
355,213.10703563541668,213.316542325,72.0,87.0
356,213.31830288541667,213.50316172916666,74.0,86.0
357,213.52957013541666,213.76372467083334,72.0,86.0
358,213.74083738541665,213.9609074375,74.0,93.0
359,213.95210463541667,214.44154043125,77.0,91.0
360,214.37463913541666,214.70914561458332,79.0,86.0
361,214.79717363541667,214.93097622708333,79.0,84.0
362,215.00844088541666,215.14224347708333,79.0,85.0
363,215.21970813541665,215.34118680416665,76.0,84.0
364,215.43097538541667,215.54189069166665,74.0,88.0
365,215.64224263541666,216.16336851875,72.0,91.0
366,216.27604438541667,216.40280473541665,74.0,84.0
367,216.48731163541666,216.58590301875,74.0,88.0
368,216.69857888541665,216.79540970833332,74.0,86.0
369,216.90984613541667,217.01900088125,74.0,91.0
370,217.12111338541666,217.23731037291665,74.0,95.0
371,217.33238063541665,217.92921061666667,77.0,86.0
372,217.96618238541666,219.25139148958334,76.0,88.0
373,219.44505313541666,219.66864430833334,69.0,88.0
374,219.65632038541668,219.84117922916667,74.0,88.0
375,219.86758763541667,220.09646048958334,72.0,88.0
376,220.07885488541666,220.27251653125,74.0,87.0
377,220.29012213541665,220.52603723125,72.0,87.0
378,220.50138938541667,220.7320228,74.0,89.0
379,220.71265663541666,221.12110665208334,77.0,88.0
380,221.34645838541667,221.48378209791667,74.0,88.0
381,221.55772563541666,221.66159869999998,72.0,88.0
382,221.76899288541665,221.936246125,72.0,87.0
383,221.98026013541667,222.14223169375,72.0,86.0
384,222.19152738541666,222.55596339166667,74.0,86.0
385,222.61406188541667,222.93800500208334,72.0,85.0
386,223.03659638541666,223.16687785625,65.0,90.0
387,223.24786363541668,223.34821557916666,65.0,85.0
388,223.45913088541667,223.55948282916665,65.0,86.0
389,223.67039813541666,223.795397925,65.0,86.0
390,223.88166538541665,224.29363652291667,67.0,90.0
391,224.30419988541666,224.4503264,65.0,86.0
392,224.51546713541666,224.93800163541667,67.0,86.0
393,224.93800163541667,225.59821179166667,69.0,86.0
394,226.20560513541668,226.41687238541667,69.0,84.0
395,226.41687238541667,226.5946889875,74.0,91.0
396,226.62813963541666,226.837646325,72.0,87.0
397,226.83940688541668,227.02426572916667,74.0,86.0
398,227.05067413541667,227.28482867083332,72.0,86.0
399,227.26194138541666,227.4820114375,74.0,93.0
400,227.47320863541665,227.96264443125,77.0,91.0
401,227.89574313541667,228.23024961458333,79.0,86.0
402,228.31827763541668,228.45208022708334,79.0,84.0
403,228.52954488541667,228.66334747708333,79.0,85.0
404,228.74081213541666,228.86229080416666,76.0,84.0
405,228.95207938541665,229.06299469166666,74.0,88.0
406,229.16334663541667,229.68447251875,72.0,91.0
407,229.79714838541668,229.92390873541666,74.0,84.0
408,230.00841563541667,230.10700701875,74.0,88.0
409,230.21968288541666,230.31651370833333,74.0,86.0
410,230.43095013541665,230.54010488125,74.0,91.0
411,230.64221738541667,230.75841437291666,74.0,95.0
412,230.85348463541666,231.45031461666667,77.0,86.0
413,231.48728638541667,232.33235538541666,76.0,88.0
414,233.11228365,233.640451775,77.0,90.0
415,233.73728259791667,234.43622508333334,76.0,90.0
416,234.43094340208333,234.88164686875,72.0,88.0
417,234.86932294583332,238.94149918958334,74.0,90.0
