,start,end,pitch,velocity
0,8.811604885416667,9.051041102083333,62.0,85.0
1,9.022872135416666,9.209491539583333,65.0,84.0
2,9.445406635416667,9.598575391666667,69.0,85.0
3,8.600337635416667,9.92427906875,57.0,75.0
4,8.389070385416666,9.947166354166667,50.0,88.0
5,9.867941135416666,10.197165933333332,62.0,78.0
6,10.501742885416666,10.7640663875,62.0,85.0
7,10.713010135416667,11.021108208333333,69.0,88.0
8,11.135544635416666,11.288713391666667,65.0,87.0
9,10.079208385416667,11.394347016666666,50.0,84.0
10,10.290475635416666,11.447163829166666,57.0,73.0
11,11.346811885416667,11.760543583333334,62.0,82.0
12,12.403148135416666,12.890823370833333,69.0,84.0
13,12.191880885416667,12.894344491666667,60.0,86.0
14,11.980613635416667,13.308076189583334,55.0,71.0
15,11.769346385416666,13.33624515625,48.0,85.0
16,13.248217135416667,13.639061547916667,60.0,80.0
17,12.825682635416667,13.718286766666667,64.0,84.0
18,13.882018885416667,14.170750793749999,60.0,84.0
19,13.670751635416666,14.485891108333334,55.0,75.0
20,13.459484385416667,14.499975591666667,48.0,84.0
21,14.093286135416667,14.543989602083332,64.0,86.0
22,14.727087885416667,15.040467639583333,60.0,84.0
23,14.515820635416667,15.211242,69.0,85.0
24,15.572156885416666,15.9189872875,58.0,72.0
25,15.783424135416666,16.239409283333334,65.0,84.0
26,15.149622385416667,16.68483106875,46.0,86.0
27,15.360889635416667,16.75877460625,53.0,83.0
28,16.205958635416668,16.804549177083334,58.0,76.0
29,16.417225885416666,16.866168791666666,62.0,80.0
30,17.262294885416665,17.53518175,57.0,85.0
31,17.473562135416667,17.9260261625,64.0,89.0
32,17.896096635416665,18.093279402083333,61.0,90.0
33,17.051027635416666,18.387292991666666,52.0,74.0
34,16.839760385416668,18.47003933125,45.0,77.0
35,18.107363885416667,18.573912395833332,57.0,86.0
36,18.741165635416667,19.147855091666667,57.0,86.0
37,18.952432885416666,19.211235266666666,62.0,83.0
38,19.163700135416665,19.683065458333335,65.0,84.0
39,18.529898385416665,19.7006710625,50.0,95.0
40,19.586234635416666,19.98588185,57.0,81.0
41,19.797501885416665,20.62496528125,62.0,78.0
42,20.008769135416667,20.723556664583334,69.0,79.0
43,20.642570885416667,21.2112319,57.0,84.0
44,20.431303635416665,21.350316172916667,45.0,71.0
45,20.220036385416666,21.434823072916668,38.0,86.0
46,21.276372635416667,21.84855477083333,62.0,74.0
47,21.487639885416666,21.90313214375,57.0,69.0
48,20.853838135416666,22.40841298333333,69.0,85.0
49,22.332708885416668,22.677778727083332,57.0,77.0
50,22.121441635416666,22.8908065375,45.0,70.0
51,21.910174385416667,22.924257185416668,38.0,87.0
52,22.543976135416667,23.100313227083333,62.0,79.0
53,23.177777885416667,23.353833927083333,57.0,74.0
54,22.966510635416668,23.980593435416665,69.0,82.0
55,24.022846885416666,24.68481760208333,60.0,75.0
56,23.600312385416668,24.88728205,48.0,87.0
57,23.811579635416667,24.894324291666667,55.0,75.0
58,24.867915885416668,25.292210945833332,60.0,73.0
59,24.234114135416668,25.624956864583332,69.0,78.0
60,25.712984885416667,25.999956233333332,62.0,74.0
61,25.501717635416668,26.374955602083332,57.0,74.0
62,25.290450385416666,26.78340561875,50.0,87.0
63,26.558053885416665,26.864391397916666,57.0,72.0
64,26.769321135416668,27.019320714583333,62.0,71.0
65,26.980588385416667,27.059813604166667,67.0,68.0
66,25.924252135416666,27.61791125625,69.0,84.0
67,27.403122885416668,27.95593885625,57.0,78.0
68,27.614390135416667,28.285163654166666,65.0,85.0
69,26.980588385416667,28.360867752083333,50.0,86.0
70,28.036924635416668,28.48410698125,57.0,78.0
71,28.248191885416666,28.68481086875,64.0,88.0
72,28.670726385416668,29.133753775,65.0,76.0
73,29.093260885416665,29.359105508333332,62.0,77.0
74,28.881993635416666,29.774597766666666,57.0,78.0
75,28.670726385416668,30.13199153125,50.0,89.0
76,29.938329885416668,30.232343475,57.0,74.0
77,30.149597135416666,30.447131845833333,62.0,79.0
78,29.304528135416668,30.698891985416665,69.0,85.0
79,30.572131635416667,31.397834470833335,55.0,77.0
80,30.783398885416666,31.635510127083332,60.0,82.0
81,30.360864385416665,31.81508728958333,48.0,87.0
82,31.628467885416665,31.931284277083332,55.0,78.0
83,31.839735135416667,32.05452350625,60.0,76.0
84,30.994666135416665,32.4400862375,69.0,84.0
85,32.473536885416664,32.75170543125,62.0,79.0
86,32.262269635416665,32.966493802083335,57.0,75.0
87,32.68480413541667,33.3274086875,69.0,85.0
88,32.051002385416666,33.540436497916666,50.0,91.0
89,33.318605885416666,33.62142227708333,62.0,83.0
90,33.10733863541667,33.62846451875,57.0,79.0
91,33.529873135416665,34.20240721458333,69.0,84.0
92,34.16367488541667,34.44360399166666,62.0,80.0
93,34.37494213541667,35.058039577083335,69.0,85.0
94,33.95240763541667,35.11789863125,57.0,75.0
95,33.741140385416664,35.1231803125,50.0,85.0
96,35.00874388541666,35.501700802083334,67.0,86.0
97,35.43127838541667,35.869657929166664,65.0,81.0
98,35.64254563541667,36.54395256875,53.0,85.0
99,35.853812885416666,36.619656666666664,58.0,76.0
100,36.065080135416665,36.975289870833336,65.0,89.0
101,35.43127838541667,36.99641659583333,46.0,91.0
102,36.69888188541667,37.06859957291667,53.0,83.0
103,36.91014913541667,37.20944440625,58.0,86.0
104,37.332683635416664,37.65134507083334,60.0,85.0
105,37.54395088541666,37.70592244375,64.0,80.0
106,37.75521813541667,38.091485175,67.0,87.0
107,38.17775263541667,38.38197764375,64.0,84.0
108,37.121416385416666,38.6090899375,48.0,89.0
109,38.389019885416666,38.87493456041667,60.0,77.0
110,39.23408888541667,39.50697575,57.0,85.0
111,39.02282163541667,39.73584860416667,52.0,79.0
112,39.44535613541667,40.1302141375,64.0,85.0
113,38.81155438541666,40.211199916666665,45.0,85.0
114,39.867890635416664,40.24465056458333,52.0,84.0
115,40.07915788541666,40.50521350625,57.0,77.0
116,40.50169238541667,40.964719775,65.0,86.0
117,40.924226885416665,41.16894478333333,57.0,87.0
118,40.50169238541667,41.7464086,50.0,86.0
119,40.71295963541667,41.748169160416666,53.0,73.0
120,41.55802863541667,41.79746485208333,57.0,85.0
121,41.135494135416664,41.811549335416665,65.0,87.0
122,41.980563135416666,42.16718253958333,57.0,80.0
123,41.76929588541667,42.22704159375,64.0,85.0
124,42.191830385416665,42.61612544583333,62.0,84.0
125,42.61436488541667,42.92774463958333,58.0,84.0
126,42.82563213541667,43.330912975,65.0,86.0
127,43.248166635416666,43.50520845625,58.0,86.0
128,42.191830385416665,43.63901104791667,46.0,86.0
129,43.459433885416665,43.71647570625,65.0,85.0
130,42.403097635416664,43.73232075,53.0,79.0
131,43.670701135416664,43.87492614375,58.0,85.0
132,44.30450288541667,44.58443199166667,60.0,88.0
133,44.09323563541667,44.78161475833333,55.0,80.0
134,44.938304635416664,45.246402708333335,55.0,75.0
135,44.515770135416666,45.25344495,64.0,91.0
136,43.88196838541667,45.256966070833336,48.0,90.0
137,45.14957188541667,45.52633181458333,60.0,84.0
138,45.783373635416666,46.06506330208333,57.0,86.0
139,45.994640885416665,46.26048550833333,62.0,80.0
140,46.205908135416664,46.76576634791667,69.0,88.0
141,46.62844263541667,47.068582739583334,57.0,83.0
142,45.57210638541667,47.10731506875,50.0,89.0
143,46.83970988541667,47.44534266875,62.0,84.0
144,47.050977135416666,47.4928778,69.0,87.0
145,47.47351163541666,47.79745475208333,57.0,85.0
146,47.68477888541667,47.966468552083334,62.0,85.0
147,48.318580635416666,48.52632676458333,57.0,85.0
148,47.89604613541667,48.58266469791667,67.0,85.0
149,48.529847885416665,48.77456578333333,65.0,84.0
150,48.74111513541666,48.94534014375,64.0,86.0
151,47.262244385416665,49.00872031875,50.0,87.0
152,49.37491688541667,49.71998672708333,57.0,77.0
153,49.16364963541667,49.9330145375,45.0,70.0
154,48.95238238541667,49.966465185416666,38.0,87.0
155,49.586184135416666,50.142521227083336,62.0,79.0
156,50.21998588541667,50.39604192708333,57.0,74.0
157,50.00871863541666,51.02280143541667,69.0,82.0
158,51.065054885416664,51.72702560208333,60.0,75.0
159,50.64252038541667,51.92949005,48.0,87.0
160,50.853787635416666,51.936532291666666,55.0,75.0
161,51.91012388541667,52.334418945833335,60.0,73.0
162,51.27632213541666,52.667164864583334,69.0,78.0
163,52.75519288541667,53.04216423333333,62.0,74.0
164,52.54392563541666,53.417163602083335,57.0,74.0
165,52.332658385416664,53.82561361875,50.0,87.0
166,53.600261885416664,53.906599397916665,57.0,72.0
167,53.81152913541666,54.06152871458333,62.0,71.0
168,54.02279638541667,54.102021604166666,67.0,68.0
169,52.96646013541667,54.66011925625,69.0,84.0
170,54.445330885416666,54.99814685625,57.0,78.0
171,54.656598135416665,55.32737165416667,65.0,85.0
172,54.02279638541667,55.40307575208333,50.0,86.0
173,55.07913263541666,55.526314981249996,57.0,78.0
174,55.29039988541667,55.72701886875,64.0,88.0
175,55.712934385416666,56.175961775,65.0,76.0
176,56.135468885416664,56.40131350833333,62.0,77.0
177,55.924201635416665,56.81680576666667,57.0,78.0
178,55.712934385416666,57.17419953125,50.0,89.0
179,56.980537885416666,57.274551475,57.0,74.0
180,57.191805135416665,57.489339845833335,62.0,79.0
181,56.34673613541666,57.74109998541667,69.0,85.0
182,57.61433963541667,58.44004247083333,55.0,77.0
183,57.82560688541667,58.67771812708333,60.0,82.0
184,57.403072385416664,58.857295289583334,48.0,87.0
185,58.670675885416664,58.97349227708333,55.0,78.0
186,58.88194313541667,59.09673150625,60.0,76.0
187,58.03687413541667,59.4822942375,69.0,84.0
188,59.515744885416666,59.79391343125,62.0,79.0
189,59.30447763541667,60.00870180208333,57.0,75.0
190,59.727012135416665,60.3696166875,69.0,85.0
191,59.09321038541667,60.58264449791667,50.0,91.0
192,60.36081388541667,60.663630277083335,62.0,83.0
193,60.14954663541667,60.67067251875,57.0,79.0
194,60.57208113541667,61.244615214583334,69.0,84.0
195,61.20588288541666,61.485811991666665,62.0,80.0
196,61.41715013541667,62.10024757708333,69.0,85.0
197,60.994615635416665,62.16010663125,57.0,75.0
198,60.783348385416666,62.1653883125,50.0,85.0
199,62.050951885416666,62.54390880208333,67.0,86.0
200,62.47348638541666,62.911865929166666,65.0,81.0
201,62.68475363541667,63.586160568749996,53.0,85.0
202,62.89602088541667,63.661864666666666,58.0,76.0
203,63.10728813541667,64.01749787083334,65.0,89.0
204,62.47348638541666,64.03862459583333,46.0,91.0
205,63.74108988541666,64.11080757291667,53.0,83.0
206,63.95235713541667,64.25165240625,58.0,86.0
207,64.37489163541666,64.69355307083333,60.0,85.0
208,64.58615888541667,64.74813044375,64.0,80.0
209,64.79742613541667,65.133693175,67.0,87.0
210,65.21996063541667,65.42418564375,64.0,84.0
211,64.16362438541667,65.6512979375,48.0,89.0
212,65.43122788541666,65.91714256041666,60.0,77.0
213,66.27629688541667,66.54918375,57.0,85.0
214,66.06502963541666,66.77805660416666,52.0,79.0
215,66.48756413541666,67.17242213749999,64.0,85.0
216,65.85376238541667,67.25340791666666,45.0,85.0
217,66.91009863541666,67.28685856458333,52.0,84.0
218,67.12136588541667,67.54742150625,57.0,77.0
219,67.54390038541666,68.006927775,65.0,86.0
220,67.96643488541666,68.21115278333333,57.0,87.0
221,67.54390038541666,68.7886166,50.0,86.0
222,67.75516763541667,68.79037716041667,53.0,73.0
223,68.60023663541666,68.83967285208334,57.0,85.0
224,68.17770213541667,68.85375733541666,65.0,87.0
225,69.02277113541666,69.20939053958334,57.0,80.0
226,68.81150388541667,69.26924959375,64.0,85.0
227,69.23403838541667,69.65833344583334,62.0,84.0
228,69.65657288541667,69.96995263958333,58.0,84.0
229,69.86784013541667,70.373120975,65.0,86.0
230,70.29037463541667,70.54741645625,58.0,86.0
231,69.23403838541667,70.68121904791667,46.0,86.0
232,70.50164188541666,70.75868370625,65.0,85.0
233,69.44530563541666,70.77452875,53.0,79.0
234,70.71290913541667,70.91713414375,58.0,85.0
235,71.34671088541667,71.62663999166666,60.0,88.0
236,71.13544363541666,71.82382275833334,55.0,80.0
237,71.98051263541667,72.28861070833334,55.0,75.0
238,71.55797813541666,72.29565295,64.0,91.0
239,70.92417638541667,72.29917407083333,48.0,90.0
240,72.19177988541666,72.56853981458333,60.0,84.0
241,72.82558163541667,73.10727130208333,57.0,86.0
242,73.03684888541666,73.30269350833333,62.0,80.0
243,73.24811613541667,73.80797434791667,69.0,88.0
244,73.67065063541666,74.11079073958334,57.0,83.0
245,72.61431438541666,74.14952306875,50.0,89.0
246,73.88191788541667,74.48755066875,62.0,84.0
247,74.09318513541666,74.5350858,69.0,87.0
248,74.51571963541667,74.83966275208333,57.0,85.0
249,74.72698688541666,75.00867655208333,62.0,85.0
250,75.36078863541667,75.56853476458333,57.0,85.0
251,74.93825413541667,75.57205588541666,67.0,85.0
252,75.57205588541666,75.81677378333333,67.0,84.0
253,75.78332313541667,75.98754814375,65.0,86.0
254,74.30445238541667,76.05092831875,50.0,87.0
255,75.99459038541667,76.288603975,55.0,76.0
256,75.99459038541667,76.42592768749999,58.0,74.0
257,75.99459038541667,76.52804019166666,62.0,82.0
258,76.41712488541667,77.38015143333334,55.0,82.0
259,76.62839213541666,77.52099626666667,67.0,86.0
260,76.20585763541666,77.76219304375,50.0,76.0
261,77.68472838541666,78.16007969791667,58.0,86.0
262,77.68472838541666,78.18120642291666,62.0,86.0
263,77.89599563541667,78.66712109791666,50.0,79.0
264,78.10726288541666,78.96289524791666,55.0,86.0
265,78.31853013541667,79.01923318125,58.0,86.0
266,75.99459038541667,79.09141615833333,43.0,85.0
267,78.31853013541667,79.09669783958333,62.0,87.0
268,78.95233188541667,79.23754267291666,50.0,84.0
269,79.37486638541667,79.79740088541666,57.0,75.0
270,79.37486638541667,79.99810477291666,64.0,84.0
271,80.00866813541667,80.38894918541666,57.0,90.0
272,80.43120263541667,80.63366708333334,60.0,91.0
273,79.79740088541666,80.63718820416666,52.0,80.0
274,79.37486638541667,80.6935261375,45.0,86.0
275,80.64246988541666,80.81148368541666,57.0,85.0
276,81.06500438541667,81.33613068958333,57.0,79.0
277,81.06500438541667,81.55796130208333,65.0,84.0
278,81.48753888541667,81.697045575,57.0,80.0
279,81.27627163541666,82.24105874375,45.0,78.0
280,81.06500438541667,82.29563611666667,38.0,86.0
281,81.69880613541666,82.33436844583333,65.0,86.0
282,82.33260788541666,82.80795919791666,64.0,85.0
283,82.75514238541666,83.15126847916666,62.0,84.0
284,83.38894413541666,84.0315486875,58.0,85.0
285,83.17767688541666,84.08964718125,55.0,84.0
286,83.38894413541666,84.11429502708333,62.0,85.0
287,82.96640963541667,84.20408360833333,50.0,75.0
288,82.75514238541666,84.27098490416667,43.0,85.0
289,84.44528038541667,84.70056164583333,55.0,84.0
290,84.44528038541667,85.10725110208334,67.0,80.0
291,84.86781488541666,85.161828475,55.0,88.0
292,85.07908213541667,85.54563064583333,62.0,85.0
293,85.50161663541667,85.74809509375,58.0,76.0
294,84.65654763541667,85.81675695,50.0,82.0
295,85.71288388541667,85.81675695,55.0,88.0
296,84.44528038541667,85.82732031249999,43.0,85.0
297,86.13541838541667,86.56147400625,57.0,80.0
298,86.13541838541667,86.69527659791666,61.0,75.0
299,86.76922013541666,87.03682531875,57.0,87.0
300,87.19175463541667,87.27274041458334,57.0,85.0
301,86.55795288541667,87.30795162291666,52.0,79.0
302,87.19175463541667,87.485768225,61.0,91.0
303,86.13541838541667,87.5385850375,45.0,86.0
304,87.19175463541667,87.54210615833334,64.0,88.0
305,87.82555638541666,87.93295057083333,61.0,80.0
306,87.82555638541666,87.93647169166667,64.0,86.0
307,87.82555638541666,87.93823225208334,57.0,81.0
308,87.82555638541666,87.94175337291666,45.0,89.0
309,87.82555638541666,87.95935897708333,69.0,78.0
310,88.03682363541667,88.16710510625,45.0,88.0
311,88.03682363541667,88.18999239166666,61.0,89.0
312,88.03682363541667,88.19879519375,69.0,85.0
313,88.03682363541667,88.20583743541667,64.0,89.0
314,88.03682363541667,88.20759799583334,57.0,86.0
315,88.67062538541667,89.06675147916667,52.0,85.0
316,88.67062538541667,89.1019626875,45.0,90.0
317,88.67062538541667,89.11604717083333,57.0,77.0
318,88.67062538541667,89.1230894125,61.0,73.0
319,88.67062538541667,89.28330041041667,64.0,83.0
320,89.51569438541667,89.66886314166666,57.0,79.0
321,89.51569438541667,89.76041228333334,62.0,81.0
322,89.72696163541667,90.02273578541667,57.0,84.0
323,89.93822888541666,90.18294678333334,62.0,81.0
324,90.14949613541667,90.23400303541666,57.0,72.0
325,90.36076338541666,90.61604464583333,65.0,100.0
326,89.51569438541667,90.66005865625,50.0,85.0
327,90.57203063541667,90.75865003958333,57.0,81.0
328,90.78329788541667,90.89949487291666,62.0,91.0
329,91.20583238541667,91.35548002083333,55.0,86.0
330,91.20583238541667,91.457592525,60.0,86.0
331,91.41709963541666,91.5949162375,55.0,81.0
332,91.62836688541667,91.81322572916666,60.0,73.0
333,91.83963413541666,91.94702832083333,55.0,78.0
334,92.05090138541667,92.17061949375,55.0,91.0
335,91.20583238541667,92.32378824999999,48.0,93.0
336,92.05090138541667,92.33787273333333,64.0,87.0
337,92.26216863541667,92.38188674375,55.0,89.0
338,92.47343588541666,92.56146390625,60.0,87.0
339,92.89597038541666,93.01568849375,53.0,84.0
340,92.89597038541666,93.11780099791666,58.0,84.0
341,92.89597038541666,93.1266038,46.0,98.0
342,93.10723763541667,93.3273076875,53.0,83.0
343,93.31850488541667,93.55265942083334,58.0,84.0
344,93.52977213541666,93.6442085625,53.0,85.0
345,93.74103938541667,93.866039175,55.0,85.0
346,93.74103938541667,93.99103896458334,60.0,84.0
347,93.95230663541666,94.18822173125,55.0,84.0
348,93.74103938541667,94.330827125,48.0,87.0
349,94.16357388541667,94.42413682708333,60.0,81.0
350,94.37484113541666,94.49103812291666,55.0,77.0
351,94.58610838541667,94.79385451458333,53.0,86.0
352,94.58610838541667,94.90300926041667,57.0,85.0
353,94.58610838541667,95.05265689583334,41.0,88.0
354,94.79737563541667,95.0702625,48.0,84.0
355,95.00864288541666,95.25512134375,53.0,86.0
356,95.21991013541667,95.33610712291667,57.0,86.0
357,95.43117738541666,95.67413472291666,57.0,82.0
358,95.43117738541666,95.74983882083333,61.0,89.0
359,95.85371188541667,96.11427482708334,57.0,90.0
360,95.64244463541667,96.13892267291666,52.0,85.0
361,96.06497913541666,96.14244379375,61.0,93.0
362,95.43117738541666,96.16004939791667,45.0,91.0
363,96.27624638541667,96.40300673541667,57.0,85.0
364,96.27624638541667,96.5068798,62.0,88.0
365,96.48751363541666,96.66356967708333,57.0,80.0
366,96.69878088541667,96.823780675,62.0,76.0
367,96.91004813541666,96.99455503541667,57.0,75.0
368,96.27624638541667,97.2146250875,50.0,98.0
369,97.12131538541666,97.21638564791667,57.0,85.0
370,97.12131538541666,97.32377983333333,62.0,89.0
371,97.12131538541666,97.42941345833333,65.0,91.0
372,97.33258263541667,97.50335699583333,57.0,78.0
373,97.54384988541666,97.76568049791666,62.0,76.0
374,97.75511713541667,97.880116925,57.0,76.0
375,97.96638438541666,98.08786305416666,55.0,85.0
376,97.96638438541666,98.21462340416667,60.0,85.0
377,98.17765163541667,98.35898935833333,55.0,83.0
378,98.38891888541667,98.5350454,60.0,74.0
379,98.60018613541666,98.70053807916666,55.0,74.0
380,98.81145338541667,98.9258898125,55.0,85.0
381,97.96638438541666,99.01919951458333,48.0,90.0
382,98.81145338541667,99.09842473333333,64.0,86.0
383,99.02272063541666,99.15300210625,55.0,85.0
384,99.23398788541667,99.44525513541667,60.0,84.0
385,99.44525513541667,99.54384651875,55.0,84.0
386,99.65652238541666,99.81673338333333,53.0,86.0
387,99.65652238541666,99.94701485416667,58.0,84.0
388,99.86778963541667,100.035042875,53.0,77.0
389,100.07905688541666,100.2780002125,58.0,70.0
390,100.29032413541667,100.40652112291667,53.0,85.0
391,100.50159138541666,100.58961940625,53.0,88.0
392,100.50159138541666,100.69701359166666,58.0,91.0
393,99.65652238541666,100.70933751458334,46.0,90.0
394,100.50159138541666,100.77271768958333,62.0,87.0
395,100.71285863541667,100.89947803958333,53.0,84.0
396,100.92412588541667,101.11074528958333,58.0,76.0
397,101.13539313541666,101.218139475,53.0,73.0
398,101.34666038541667,101.50335026249999,57.0,84.0
399,101.34666038541667,101.58257548125,61.0,86.0
400,101.76919488541667,101.91003971875,57.0,93.0
401,101.98046213541667,102.04912399166666,61.0,85.0
402,101.98046213541667,102.06849015625,64.0,86.0
403,101.55792763541666,102.24630675833333,52.0,86.0
404,101.34666038541667,102.38539103125,45.0,88.0
405,102.19172938541666,102.40651775625,57.0,93.0
406,102.19172938541666,102.44525008541666,69.0,89.0
407,102.19172938541666,102.45053176666667,64.0,95.0
408,102.19172938541666,102.4540528875,61.0,98.0
409,102.40299663541667,102.50158801875,52.0,105.0
410,102.61426388541666,102.866024025,57.0,91.0
411,102.82553113541667,102.89419299166667,61.0,81.0
412,103.03679838541666,103.14595313125,57.0,83.0
413,103.03679838541666,103.23750227291667,62.0,85.0
414,103.24806563541667,103.39419215,57.0,82.0
415,103.45933288541667,103.57905099375,62.0,77.0
416,103.67060013541666,103.75862815625,57.0,82.0
417,103.88186738541667,103.97165596666666,57.0,85.0
418,103.03679838541666,103.99102213125,50.0,93.0
419,103.88186738541667,104.24278227083333,65.0,84.0
420,104.09313463541666,104.29559908333333,57.0,85.0
421,104.30440188541667,104.54031698125,62.0,85.0
422,104.51566913541667,104.62306332083334,57.0,85.0
423,104.72693638541666,104.94172475625,60.0,86.0
424,104.93820363541667,105.08609071041667,55.0,86.0
425,105.14947088541666,105.358977575,60.0,78.0
426,105.36073813541667,105.47165344166666,55.0,85.0
427,105.57200538541666,105.65123060416667,55.0,88.0
428,105.57200538541666,105.73221638333334,60.0,91.0
429,104.72693638541666,105.7498219875,48.0,90.0
430,105.57200538541666,105.87482177708333,64.0,91.0
431,105.78327263541667,105.96284979791666,55.0,84.0
432,105.99453988541667,106.2251733,60.0,80.0
433,106.20580713541666,106.3202435625,55.0,84.0
434,106.41707438541667,106.60017266875,62.0,84.0
435,106.41707438541667,106.68115844791667,58.0,84.0
436,106.62834163541666,106.84136944583334,53.0,86.0
437,106.83960888541667,107.091369025,58.0,85.0
438,106.41707438541667,107.1019323875,46.0,87.0
439,107.05087613541667,107.13010135416667,53.0,84.0
440,107.26214338541666,107.38538261458334,55.0,86.0
441,107.26214338541666,107.51918520625,60.0,84.0
442,107.26214338541666,107.62657939166667,48.0,91.0
443,107.47341063541667,107.6301005125,55.0,85.0
444,107.68467788541666,107.90298737708333,60.0,84.0
445,107.89594513541667,107.99981819999999,55.0,84.0
446,108.10721238541666,108.274465625,53.0,86.0
447,108.10721238541666,108.32376131666666,57.0,86.0
448,108.52974688541667,108.81671823333333,53.0,91.0
449,108.74101413541666,108.86777448541666,57.0,80.0
450,108.95228138541667,109.00685875833334,57.0,73.0
451,108.31847963541667,109.1829148,48.0,85.0
452,108.95228138541667,109.204041525,65.0,93.0
453,108.10721238541666,109.22868937083334,41.0,85.0
454,109.16354863541666,109.457562225,60.0,88.0
455,109.37481588541667,109.6160126625,53.0,91.0
456,109.58608313541667,109.7427730125,57.0,84.0
457,110.00861763541667,110.2498144125,57.0,86.0
458,110.21988488541666,110.38361700416667,62.0,84.0
459,110.43115213541667,110.51037735416666,57.0,74.0
460,110.64241938541666,110.72692628541667,57.0,85.0
461,110.64241938541666,110.81319374583333,62.0,91.0
462,109.79735038541666,110.82727822916667,50.0,93.0
463,110.64241938541666,110.93819353541667,65.0,89.0
464,110.85368663541666,111.105446775,57.0,81.0
465,111.06495388541667,111.30262954166666,62.0,81.0
466,111.27622113541666,111.37129139791666,57.0,78.0
467,111.48748838541667,111.59312201041666,55.0,88.0
468,111.48748838541667,111.70931899791667,60.0,86.0
469,111.69875563541666,111.8765722375,55.0,85.0
470,111.91002288541667,112.0561494,60.0,76.0
471,112.12129013541667,112.23748712291666,55.0,80.0
472,112.33255738541666,112.39241643958333,55.0,79.0
473,112.33255738541666,112.49452894375,60.0,95.0
474,112.33255738541666,112.60720481041666,64.0,91.0
475,111.48748838541667,112.61776817291667,48.0,91.0
476,112.54382463541667,112.71635955625,55.0,86.0
477,112.75509188541666,112.87480999375,60.0,84.0
478,113.17762638541667,113.29382337291666,53.0,85.0
479,113.17762638541667,113.3976964375,58.0,88.0
480,113.17762638541667,113.45051325,62.0,87.0
481,113.38889363541666,113.61248480833333,53.0,79.0
482,113.60016088541667,113.83783654166666,58.0,76.0
483,113.81142813541666,113.98748417708333,53.0,84.0
484,114.02269538541667,114.2427654375,58.0,85.0
485,114.02269538541667,114.24628655833334,53.0,88.0
486,114.02269538541667,114.316708975,62.0,88.0
487,113.17762638541667,114.41353979791667,46.0,87.0
488,114.44522988541667,114.55086351041666,53.0,80.0
489,114.44522988541667,114.63889153125,58.0,73.0
490,114.86776438541666,115.08255275625,57.0,80.0
491,114.86776438541666,115.14241181041666,61.0,87.0
492,115.29029888541666,115.60015751875,57.0,90.0
493,115.50156613541667,115.77269243958334,61.0,88.0
494,115.71283338541667,115.95755128333333,64.0,85.0
495,116.13536788541667,116.36071961875,57.0,87.0
496,115.92410063541666,116.387128025,69.0,88.0
497,115.07903163541667,116.40121250833333,52.0,89.0
498,114.86776438541666,116.43114203541667,45.0,87.0
499,116.55790238541667,116.75508515208334,57.0,86.0
500,116.55790238541667,116.851915975,62.0,90.0
501,116.98043688541667,117.17761965208334,57.0,89.0
502,116.55790238541667,117.61599919583334,50.0,98.0
503,116.76916963541666,117.62656255833333,53.0,78.0
504,117.61423863541667,117.85191429166666,57.0,79.0
505,117.19170413541667,117.88008325833333,65.0,89.0
506,117.82550588541666,118.077266025,62.0,77.0
507,118.03677313541667,118.26036430833334,57.0,86.0
508,118.67057488541667,119.00508136458333,50.0,86.0
509,118.88184213541666,119.06494041875,53.0,85.0
510,119.09310938541667,119.32902448125,62.0,90.0
511,119.30437663541666,119.57198181875,57.0,84.0
512,119.51564388541667,119.79205187083333,53.0,83.0
513,119.72691113541667,119.9047277375,50.0,89.0
514,118.45930763541666,119.98395295625,45.0,79.0
515,118.24804038541667,120.00155856041667,38.0,89.0
516,120.36071288541666,120.60014910208334,62.0,85.0
517,120.57198013541667,120.75859953958333,65.0,84.0
518,120.99451463541666,121.14768339166666,69.0,85.0
519,120.14944563541667,121.47338706875,57.0,75.0
520,119.93817838541666,121.49627435416667,50.0,88.0
521,121.41704913541666,121.74627393333333,62.0,78.0
522,122.05085088541666,122.3131743875,62.0,85.0
523,122.26211813541667,122.57021620833333,69.0,88.0
524,122.68465263541667,122.83782139166667,65.0,87.0
525,121.62831638541667,122.94345501666666,50.0,84.0
526,121.83958363541666,122.99627182916666,57.0,73.0
527,122.89591988541666,123.30965158333333,62.0,82.0
528,123.95225613541666,124.43993137083334,69.0,84.0
529,123.74098888541667,124.44345249166666,60.0,86.0
530,123.52972163541666,124.85718418958334,55.0,71.0
531,123.31845438541667,124.88535315625,48.0,85.0
532,124.79732513541667,125.18816954791667,60.0,80.0
533,124.37479063541666,125.26739476666667,64.0,84.0
534,125.43112688541666,125.71985879374999,60.0,84.0
535,125.21985963541667,126.03499910833334,55.0,75.0
536,125.00859238541666,126.04908359166667,48.0,84.0
537,125.64239413541667,126.09309760208333,64.0,86.0
538,126.27619588541667,126.58957563958333,60.0,84.0
539,126.06492863541666,126.76035,69.0,85.0
540,127.12126488541666,127.4680952875,58.0,72.0
541,127.33253213541667,127.78851728333333,65.0,84.0
542,126.69873038541667,128.23393906875,46.0,86.0
543,126.90999763541667,128.30788260625,53.0,83.0
544,127.75506663541667,128.35365717708333,58.0,76.0
545,127.96633388541666,128.41527679166666,62.0,80.0
546,128.81140288541667,129.08428975,57.0,85.0
547,129.02267013541666,129.4751341625,64.0,89.0
548,129.44520463541667,129.64238740208333,61.0,90.0
549,128.60013563541668,129.93640099166666,52.0,74.0
550,128.38886838541666,130.01914733125,45.0,77.0
551,129.65647188541666,130.12302039583332,57.0,86.0
552,130.29027363541667,130.69696309166667,57.0,86.0
553,130.50154088541666,130.76034326666667,62.0,83.0
554,130.71280813541668,131.23217345833334,65.0,84.0
555,130.07900638541668,131.2497790625,50.0,95.0
556,131.13534263541666,131.53498985,57.0,81.0
557,131.34660988541665,132.17407328125,62.0,78.0
558,131.55787713541667,132.27266466458335,69.0,79.0
559,132.19167888541668,132.7603399,57.0,84.0
560,131.98041163541666,132.89942417291667,45.0,71.0
561,131.76914438541667,132.98393107291668,38.0,86.0
562,132.82548063541665,133.39766277083334,62.0,74.0
563,133.03674788541667,133.45224014375,57.0,69.0
564,132.40294613541667,133.95752098333332,69.0,85.0
565,133.88181688541667,134.22688672708333,57.0,77.0
566,133.67054963541668,134.4399145375,45.0,70.0
567,133.45928238541666,134.47336518541667,38.0,87.0
568,134.09308413541666,134.64942122708334,62.0,79.0
569,134.72688588541666,134.90294192708333,57.0,74.0
570,134.51561863541667,135.52970143541665,69.0,82.0
571,135.57195488541666,136.23392560208333,60.0,75.0
572,135.14942038541668,136.43639005,48.0,87.0
573,135.36068763541667,136.44343229166665,55.0,75.0
574,136.41702388541665,136.84131894583334,60.0,73.0
575,135.78322213541668,137.17406486458333,69.0,78.0
576,137.26209288541668,137.54906423333333,62.0,74.0
577,137.05082563541666,137.92406360208332,57.0,74.0
578,136.83955838541667,138.33251361875,50.0,87.0
579,138.10716188541667,138.41349939791667,57.0,72.0
580,138.31842913541666,138.56842871458332,62.0,71.0
581,138.52969638541666,138.60892160416665,67.0,68.0
582,137.47336013541667,139.16701925625,69.0,84.0
583,138.95223088541667,139.50504685625,57.0,78.0
584,139.16349813541666,139.83427165416666,65.0,85.0
585,138.52969638541666,139.90997575208334,50.0,86.0
586,139.58603263541667,140.03321498125,57.0,78.0
587,139.79729988541666,140.23391886875,64.0,88.0
588,140.21983438541668,140.682861775,65.0,76.0
589,140.64236888541666,140.90821350833332,62.0,77.0
590,140.43110163541667,141.32370576666668,57.0,78.0
591,140.21983438541668,141.68109953125,50.0,89.0
592,141.48743788541665,141.781451475,57.0,74.0
593,141.69870513541667,141.99623984583334,62.0,79.0
594,140.85363613541668,142.24799998541667,69.0,85.0
595,142.12123963541666,142.94694247083333,55.0,77.0
596,142.33250688541668,143.18461812708333,60.0,82.0
597,141.90997238541667,143.36419528958334,48.0,87.0
598,143.17757588541667,143.48039227708333,55.0,78.0
599,143.38884313541666,143.60363150625,60.0,76.0
600,142.54377413541667,143.9891942375,69.0,84.0
601,144.02264488541667,144.30081343125,62.0,79.0
602,143.81137763541668,144.51560180208332,57.0,75.0
603,144.23391213541666,144.8765166875,69.0,85.0
604,143.60011038541666,145.08954449791668,50.0,91.0
605,144.86771388541666,145.17053027708334,62.0,83.0
606,144.65644663541667,145.17757251875,57.0,79.0
607,145.07898113541665,145.75151521458332,69.0,84.0
608,145.71278288541666,145.99271199166665,62.0,80.0
609,145.92405013541668,146.60714757708334,69.0,85.0
610,145.50151563541667,146.66700663125,57.0,75.0
611,145.29024838541667,146.6722883125,50.0,85.0
612,146.55785188541665,147.05080880208334,67.0,86.0
613,146.98038638541667,147.41876592916665,65.0,81.0
614,147.19165363541666,148.09306056875,53.0,85.0
615,147.40292088541668,148.16876466666668,58.0,76.0
616,147.61418813541667,148.52439787083333,65.0,89.0
617,146.98038638541667,148.54552459583334,46.0,91.0
618,148.24798988541667,148.61770757291666,53.0,83.0
619,148.45925713541666,148.75855240625,58.0,86.0
620,148.88179163541668,149.20045307083333,60.0,85.0
621,149.09305888541667,149.25503044375,64.0,80.0
622,149.30432613541666,149.640593175,67.0,87.0
623,149.72686063541667,149.93108564375,64.0,84.0
624,148.67052438541666,150.1581979375,48.0,89.0
625,149.93812788541666,150.42404256041667,60.0,77.0
626,150.78319688541666,151.05608375,57.0,85.0
627,150.57192963541667,151.28495660416667,52.0,79.0
628,150.99446413541668,151.6793221375,64.0,85.0
629,150.36066238541667,151.76030791666668,45.0,85.0
630,151.41699863541666,151.79375856458333,52.0,84.0
631,151.62826588541665,152.05432150625,57.0,77.0
632,152.05080038541666,152.513827775,65.0,86.0
633,152.47333488541668,152.71805278333332,57.0,87.0
634,152.05080038541666,153.29551659999998,50.0,86.0
635,152.26206763541666,153.29727716041666,53.0,73.0
636,153.10713663541665,153.34657285208334,57.0,85.0
637,152.68460213541667,153.36065733541668,65.0,87.0
638,153.52967113541666,153.71629053958333,57.0,80.0
639,153.31840388541667,153.77614959375,64.0,85.0
640,153.74093838541665,154.16523344583334,62.0,84.0
641,154.16347288541667,154.47685263958334,58.0,84.0
642,154.37474013541666,154.880020975,65.0,86.0
643,154.79727463541667,155.05431645625,58.0,86.0
644,153.74093838541665,155.18811904791667,46.0,86.0
645,155.00854188541666,155.26558370625,65.0,85.0
646,153.95220563541668,155.28142875,53.0,79.0
647,155.21980913541665,155.42403414375,58.0,85.0
648,155.85361088541666,156.13353999166665,60.0,88.0
649,155.64234363541667,156.33072275833334,55.0,80.0
650,156.48741263541666,156.79551070833332,55.0,75.0
651,156.06487813541668,156.80255295,64.0,91.0
652,155.43107638541667,156.80607407083332,48.0,90.0
653,156.69867988541665,157.07543981458332,60.0,84.0
654,157.33248163541666,157.61417130208332,57.0,86.0
655,157.54374888541668,157.80959350833334,62.0,80.0
656,157.75501613541667,158.31487434791666,69.0,88.0
657,158.17755063541668,158.61769073958334,57.0,83.0
658,157.12121438541666,158.65642306875,50.0,89.0
659,158.38881788541667,158.99445066875,62.0,84.0
660,158.60008513541666,159.0419858,69.0,87.0
661,159.02261963541667,159.34656275208334,57.0,85.0
662,159.23388688541667,159.51557655208333,62.0,85.0
663,159.86768863541667,160.07543476458332,57.0,85.0
664,159.44515413541666,160.07895588541666,67.0,85.0
665,160.07895588541666,160.32367378333333,67.0,84.0
666,160.29022313541665,160.49444814375,65.0,86.0
667,158.81135238541665,160.55782831875,50.0,87.0
668,160.50149038541667,160.795503975,55.0,76.0
669,160.50149038541667,160.9328276875,58.0,74.0
670,160.50149038541667,161.03494019166666,62.0,82.0
671,160.92402488541666,161.88705143333334,55.0,82.0
672,161.13529213541668,162.02789626666666,67.0,86.0
673,160.71275763541666,162.26909304375,50.0,76.0
674,162.19162838541666,162.66697969791667,58.0,86.0
675,162.19162838541666,162.68810642291666,62.0,86.0
676,162.40289563541666,163.17402109791666,50.0,79.0
677,162.61416288541668,163.46979524791666,55.0,86.0
678,162.82543013541667,163.52613318125,58.0,86.0
679,160.50149038541667,163.59831615833332,43.0,85.0
680,162.82543013541667,163.60359783958333,62.0,87.0
681,163.45923188541667,163.74444267291668,50.0,84.0
682,163.88176638541665,164.30430088541667,57.0,75.0
683,163.88176638541665,164.50500477291666,64.0,84.0
684,164.51556813541666,164.89584918541667,57.0,90.0
685,164.93810263541667,165.14056708333334,60.0,91.0
686,164.30430088541667,165.14408820416668,52.0,80.0
687,163.88176638541665,165.2004261375,45.0,86.0
688,165.14936988541666,165.31838368541668,57.0,85.0
689,165.57190438541667,165.84303068958334,57.0,79.0
690,165.57190438541667,166.06486130208333,65.0,84.0
691,165.99443888541666,166.203945575,57.0,80.0
692,165.78317163541666,166.74795874375,45.0,78.0
693,165.57190438541667,166.80253611666666,38.0,86.0
694,166.20570613541668,166.84126844583332,65.0,86.0
695,166.83950788541665,167.31485919791666,64.0,85.0
696,167.26204238541666,167.65816847916668,62.0,84.0
697,167.89584413541667,168.5384486875,58.0,85.0
698,167.68457688541667,168.59654718125,55.0,84.0
699,167.89584413541667,168.62119502708333,62.0,85.0
700,167.47330963541665,168.71098360833332,50.0,75.0
701,167.26204238541666,168.77788490416665,43.0,85.0
702,168.95218038541665,169.20746164583332,55.0,84.0
703,168.95218038541665,169.61415110208333,67.0,80.0
704,169.37471488541667,169.668728475,55.0,88.0
705,169.58598213541666,170.05253064583334,62.0,85.0
706,170.00851663541667,170.25499509375,58.0,76.0
707,169.16344763541667,170.32365695,50.0,82.0
708,170.21978388541666,170.32365695,55.0,88.0
709,168.95218038541665,170.3342203125,43.0,85.0
710,170.64231838541667,171.06837400625,57.0,80.0
711,170.64231838541667,171.20217659791666,61.0,75.0
712,171.27612013541668,171.54372531875,57.0,87.0
713,171.69865463541666,171.77964041458333,57.0,85.0
714,171.06485288541666,171.81485162291668,52.0,79.0
715,171.69865463541666,171.992668225,61.0,91.0
716,170.64231838541667,172.0454850375,45.0,86.0
717,171.69865463541666,172.04900615833333,64.0,88.0
718,172.33245638541666,172.43985057083333,61.0,80.0
719,172.33245638541666,172.44337169166667,64.0,86.0
720,172.33245638541666,172.44513225208334,57.0,81.0
721,172.33245638541666,172.44865337291665,45.0,89.0
722,172.33245638541666,172.46625897708333,69.0,78.0
723,172.54372363541665,172.67400510625,45.0,88.0
724,172.54372363541665,172.69689239166667,61.0,89.0
725,172.54372363541665,172.70569519375,69.0,85.0
726,172.54372363541665,172.71273743541667,64.0,89.0
727,172.54372363541665,172.71449799583334,57.0,86.0
728,173.17752538541666,173.57365147916667,52.0,85.0
729,173.17752538541666,173.6088626875,45.0,90.0
730,173.17752538541666,173.62294717083333,57.0,77.0
731,173.17752538541666,173.6299894125,61.0,73.0
732,173.17752538541666,173.79020041041667,64.0,83.0
733,174.02259438541665,174.17576314166666,57.0,79.0
734,174.02259438541665,174.26731228333333,62.0,81.0
735,174.23386163541667,174.52963578541667,57.0,84.0
736,174.44512888541666,174.68984678333334,62.0,81.0
737,174.65639613541666,174.74090303541666,57.0,72.0
738,174.86766338541668,175.12294464583334,65.0,100.0
739,174.02259438541665,175.16695865625,50.0,85.0
740,175.07893063541667,175.26555003958333,57.0,81.0
741,175.29019788541666,175.40639487291668,62.0,91.0
742,175.71273238541667,175.86238002083334,55.0,86.0
743,175.71273238541667,175.964492525,60.0,86.0
744,175.92399963541666,176.1018162375,55.0,81.0
745,176.13526688541666,176.32012572916668,60.0,73.0
746,176.34653413541668,176.45392832083334,55.0,78.0
747,176.55780138541667,176.67751949375,55.0,91.0
748,175.71273238541667,176.83068825,48.0,93.0
749,176.55780138541667,176.84477273333334,64.0,87.0
750,176.76906863541666,176.88878674375,55.0,89.0
751,176.98033588541668,177.06836390625,60.0,87.0
752,177.40287038541666,177.52258849375,53.0,84.0
753,177.40287038541666,177.62470099791668,58.0,84.0
754,177.40287038541666,177.6335038,46.0,98.0
755,177.61413763541665,177.8342076875,53.0,83.0
756,177.82540488541667,178.05955942083332,58.0,84.0
757,178.03667213541667,178.15110856249999,53.0,85.0
758,178.24793938541666,178.372939175,55.0,85.0
759,178.24793938541666,178.49793896458334,60.0,84.0
760,178.45920663541668,178.69512173125,55.0,84.0
761,178.24793938541666,178.837727125,48.0,87.0
762,178.67047388541667,178.93103682708332,60.0,81.0
763,178.88174113541666,178.99793812291668,55.0,77.0
764,179.09300838541665,179.30075451458333,53.0,86.0
765,179.09300838541665,179.40990926041667,57.0,85.0
766,179.09300838541665,179.55955689583334,41.0,88.0
767,179.30427563541667,179.5771625,48.0,84.0
768,179.51554288541666,179.76202134375,53.0,86.0
769,179.72681013541666,179.84300712291667,57.0,86.0
770,179.93807738541668,180.18103472291668,57.0,82.0
771,179.93807738541668,180.25673882083333,61.0,89.0
772,180.36061188541666,180.62117482708334,57.0,90.0
773,180.14934463541667,180.64582267291667,52.0,85.0
774,180.57187913541665,180.64934379375,61.0,93.0
775,179.93807738541668,180.66694939791665,45.0,91.0
776,180.78314638541667,180.90990673541666,57.0,85.0
777,180.78314638541667,181.0137798,62.0,88.0
778,180.99441363541666,181.17046967708333,57.0,80.0
779,181.20568088541665,181.330680675,62.0,76.0
780,181.41694813541667,181.50145503541665,57.0,75.0
781,180.78314638541667,181.7215250875,50.0,98.0
782,181.62821538541667,181.72328564791667,57.0,85.0
783,181.62821538541667,181.83067983333333,62.0,89.0
784,181.62821538541667,181.93631345833333,65.0,91.0
785,181.83948263541666,182.01025699583334,57.0,78.0
786,182.05074988541668,182.27258049791666,62.0,76.0
787,182.26201713541667,182.387016925,57.0,76.0
788,182.47328438541666,182.59476305416666,55.0,85.0
789,182.47328438541666,182.72152340416667,60.0,85.0
790,182.68455163541665,182.86588935833333,55.0,83.0
791,182.89581888541667,183.0419454,60.0,74.0
792,183.10708613541667,183.20743807916668,55.0,74.0
793,183.31835338541666,183.4327898125,55.0,85.0
794,182.47328438541666,183.52609951458334,48.0,90.0
795,183.31835338541666,183.60532473333333,64.0,86.0
796,183.52962063541668,183.65990210625,55.0,85.0
797,183.74088788541667,183.95215513541666,60.0,84.0
798,183.95215513541666,184.05074651875,55.0,84.0
799,184.16342238541665,184.32363338333334,53.0,86.0
800,184.16342238541665,184.45391485416667,58.0,84.0
801,184.37468963541667,184.541942875,53.0,77.0
802,184.58595688541666,184.7849002125,58.0,70.0
803,184.79722413541666,184.91342112291667,53.0,85.0
804,185.00849138541668,185.09651940625,53.0,88.0
805,185.00849138541668,185.20391359166666,58.0,91.0
806,184.16342238541665,185.21623751458333,46.0,90.0
807,185.00849138541668,185.27961768958332,62.0,87.0
808,185.21975863541667,185.40637803958333,53.0,84.0
809,185.43102588541666,185.61764528958332,58.0,76.0
810,185.64229313541668,185.725039475,53.0,73.0
811,185.85356038541667,186.0102502625,57.0,84.0
812,185.85356038541667,186.08947548125,61.0,86.0
813,186.27609488541665,186.41693971875,57.0,93.0
814,186.48736213541667,186.55602399166668,61.0,85.0
815,186.48736213541667,186.57539015625,64.0,86.0
816,186.06482763541666,186.75320675833333,52.0,86.0
817,185.85356038541667,186.89229103125,45.0,88.0
818,186.69862938541667,186.91341775625,57.0,93.0
819,186.69862938541667,186.95215008541666,69.0,89.0
820,186.69862938541667,186.95743176666667,64.0,95.0
821,186.69862938541667,186.96095288749999,61.0,98.0
822,186.90989663541666,187.00848801875,52.0,105.0
823,187.12116388541668,187.372924025,57.0,91.0
824,187.33243113541667,187.40109299166667,61.0,81.0
825,187.54369838541666,187.65285313125,57.0,83.0
826,187.54369838541666,187.74440227291666,62.0,85.0
827,187.75496563541665,187.90109215,57.0,82.0
828,187.96623288541667,188.08595099375,62.0,77.0
829,188.17750013541666,188.26552815624999,57.0,82.0
830,188.38876738541666,188.47855596666668,57.0,85.0
831,187.54369838541666,188.49792213125,50.0,93.0
832,188.38876738541666,188.74968227083332,65.0,84.0
833,188.60003463541668,188.80249908333334,57.0,85.0
834,188.81130188541667,189.04721698125,62.0,85.0
835,189.02256913541666,189.12996332083333,57.0,85.0
836,189.23383638541665,189.44862475625,60.0,86.0
837,189.44510363541667,189.59299071041667,55.0,86.0
838,189.65637088541666,189.86587757499998,60.0,78.0
839,189.86763813541666,189.97855344166666,55.0,85.0
840,190.07890538541668,190.15813060416667,55.0,88.0
841,190.07890538541668,190.23911638333334,60.0,91.0
842,189.23383638541665,190.2567219875,48.0,90.0
843,190.07890538541668,190.38172177708333,64.0,91.0
844,190.29017263541667,190.46974979791668,55.0,84.0
845,190.50143988541666,190.7320733,60.0,80.0
846,190.71270713541668,190.8271435625,55.0,84.0
847,190.92397438541667,191.10707266875,62.0,84.0
848,190.92397438541667,191.18805844791666,58.0,84.0
849,191.13524163541666,191.34826944583332,53.0,86.0
850,191.34650888541665,191.598269025,58.0,85.0
851,190.92397438541667,191.6088323875,46.0,87.0
852,191.55777613541667,191.63700135416667,53.0,84.0
853,191.76904338541667,191.89228261458334,55.0,86.0
854,191.76904338541667,192.02608520625,60.0,84.0
855,191.76904338541667,192.13347939166667,48.0,91.0
856,191.98031063541666,192.1370005125,55.0,85.0
857,192.19157788541668,192.40988737708332,60.0,84.0
858,192.40284513541667,192.5067182,55.0,84.0
859,192.61411238541666,192.781365625,53.0,86.0
860,192.61411238541666,192.83066131666666,57.0,86.0
861,193.03664688541667,193.32361823333332,53.0,91.0
862,193.24791413541666,193.37467448541668,57.0,80.0
863,193.45918138541666,193.51375875833332,57.0,73.0
864,192.82537963541665,193.6898148,48.0,85.0
865,193.45918138541666,193.710941525,65.0,93.0
866,192.61411238541666,193.73558937083334,41.0,85.0
867,193.67044863541668,193.964462225,60.0,88.0
868,193.88171588541667,194.1229126625,53.0,91.0
869,194.09298313541666,194.2496730125,57.0,84.0
870,194.51551763541667,194.7567144125,57.0,86.0
871,194.72678488541666,194.89051700416667,62.0,84.0
872,194.93805213541665,195.01727735416665,57.0,74.0
873,195.14931938541667,195.23382628541665,57.0,85.0
874,195.14931938541667,195.32009374583333,62.0,91.0
875,194.30425038541665,195.33417822916667,50.0,93.0
876,195.14931938541667,195.44509353541667,65.0,89.0
877,195.36058663541667,195.612346775,57.0,81.0
878,195.57185388541666,195.80952954166668,62.0,81.0
879,195.78312113541668,195.87819139791665,57.0,78.0
880,195.99438838541667,196.10002201041667,55.0,88.0
881,195.99438838541667,196.21621899791666,60.0,86.0
882,196.20565563541666,196.3834722375,55.0,85.0
883,196.41692288541665,196.5630494,60.0,76.0
884,196.62819013541667,196.74438712291666,55.0,80.0
885,196.83945738541667,196.89931643958334,55.0,79.0
886,196.83945738541667,197.00142894375,60.0,95.0
887,196.83945738541667,197.11410481041668,64.0,91.0
888,195.99438838541667,197.12466817291667,48.0,91.0
889,197.05072463541666,197.22325955624999,55.0,86.0
890,197.26199188541668,197.38170999375,60.0,84.0
891,197.68452638541666,197.80072337291668,53.0,85.0
892,197.68452638541666,197.9045964375,58.0,88.0
893,197.68452638541666,197.95741325,62.0,87.0
894,197.89579363541665,198.11938480833334,53.0,79.0
895,198.10706088541667,198.34473654166666,58.0,76.0
896,198.31832813541666,198.49438417708333,53.0,84.0
897,198.52959538541666,198.7496654375,58.0,85.0
898,198.52959538541666,198.75318655833334,53.0,88.0
899,198.52959538541666,198.82360897499998,62.0,88.0
900,197.68452638541666,198.92043979791666,46.0,87.0
901,198.95212988541667,199.05776351041666,53.0,80.0
902,198.95212988541667,199.14579153125,58.0,73.0
903,199.37466438541668,199.58945275625,57.0,80.0
904,199.37466438541668,199.64931181041666,61.0,87.0
905,199.79719888541666,200.10705751875,57.0,90.0
906,200.00846613541665,200.27959243958333,61.0,88.0
907,200.21973338541667,200.46445128333332,64.0,85.0
908,200.64226788541666,200.86761961875,57.0,87.0
909,200.43100063541667,200.894028025,69.0,88.0
910,199.58593163541667,200.90811250833332,52.0,89.0
911,199.37466438541668,200.93804203541666,45.0,87.0
912,201.06480238541667,201.37290045833333,62.0,79.0
913,201.06480238541667,201.39402718333332,57.0,78.0
914,201.06480238541667,201.39754830416666,65.0,81.0
915,201.06480238541667,201.42043558958332,38.0,85.0
916,201.48733688541665,201.68451965208334,62.0,81.0
917,201.48733688541665,201.7074069375,38.0,87.0
918,201.48733688541665,201.7074069375,65.0,83.0
919,201.48733688541665,201.70916749791667,57.0,79.0
920,201.90987138541666,202.07008238333333,57.0,78.0
921,201.90987138541666,202.07184294375,62.0,85.0
922,201.90987138541666,202.07360350416667,65.0,80.0
923,201.90987138541666,202.10001191041667,38.0,87.0
924,202.33240588541668,202.5313492125,38.0,86.0
925,202.33240588541668,202.53487033333334,62.0,86.0
926,202.33240588541668,202.53663089375,65.0,84.0
927,202.33240588541668,202.54367313541667,57.0,83.0
928,202.75494038541666,202.85529232916667,57.0,86.0
929,202.75494038541666,202.86409513125,62.0,90.0
930,202.75494038541666,202.89402465833334,38.0,101.0
931,202.75494038541666,202.90986970208334,65.0,85.0
932,202.96620763541665,203.0700807,43.0,87.0
933,202.96620763541665,203.0700807,55.0,87.0
934,203.17747488541667,203.32008027916666,45.0,85.0
935,203.17747488541667,203.32008027916666,57.0,85.0
936,203.38874213541666,203.61761498958333,46.0,90.0
937,203.38874213541666,203.61761498958333,58.0,90.0
938,203.81127663541668,203.95212146875,46.0,90.0
939,203.81127663541668,203.95212146875,58.0,90.0
940,204.02254388541667,204.1581070375,48.0,87.0
941,204.02254388541667,204.1581070375,60.0,87.0
942,204.23381113541666,204.37289540833333,50.0,91.0
943,204.23381113541666,204.37289540833333,62.0,91.0
944,204.65634563541667,204.87817624791666,45.0,88.0
945,204.65634563541667,204.87817624791666,61.0,86.0
946,204.65634563541667,204.88521848958334,57.0,82.0
947,204.65634563541667,204.89050017083332,64.0,86.0
948,205.07888013541665,205.26902066041666,61.0,77.0
949,205.07888013541665,205.29190794583334,57.0,75.0
950,205.07888013541665,205.2989501875,64.0,84.0
951,205.07888013541665,205.30423186875,45.0,85.0
952,205.50141463541667,205.62993554583332,61.0,84.0
953,205.50141463541667,205.63345666666666,45.0,86.0
954,205.50141463541667,205.63345666666666,57.0,81.0
955,205.50141463541667,205.64578058958332,69.0,85.0
956,205.71268188541666,206.06655452916667,57.0,89.0
957,205.71268188541666,206.07887845208333,45.0,90.0
958,205.71268188541666,206.08416013333334,61.0,98.0
959,205.71268188541666,206.1017657375,69.0,87.0
960,206.13521638541667,206.28838514166665,57.0,79.0
961,206.13521638541667,206.37993428333334,62.0,81.0
962,206.34648363541666,206.64225778541666,57.0,84.0
963,206.55775088541665,206.80246878333332,62.0,81.0
964,206.76901813541667,206.85352503541665,57.0,72.0
965,206.98028538541666,207.23556664583333,65.0,100.0
966,206.13521638541667,207.27958065625,50.0,85.0
967,207.19155263541666,207.37817203958332,57.0,81.0
968,207.40281988541668,207.51901687291667,62.0,91.0
969,207.82535438541666,207.97500202083333,55.0,86.0
970,207.82535438541666,208.07711452499998,60.0,86.0
971,208.03662163541665,208.2144382375,55.0,81.0
972,208.24788888541667,208.43274772916666,60.0,73.0
973,208.45915613541666,208.56655032083333,55.0,78.0
974,208.67042338541665,208.79014149374999,55.0,91.0
975,207.82535438541666,208.94331025,48.0,93.0
976,208.67042338541665,208.95739473333333,64.0,87.0
977,208.88169063541667,209.00140874375,55.0,89.0
978,209.09295788541667,209.18098590625,60.0,87.0
979,209.51549238541668,209.63521049375,53.0,84.0
980,209.51549238541668,209.73732299791666,58.0,84.0
981,209.51549238541668,209.7461258,46.0,98.0
982,209.72675963541667,209.94682968749999,53.0,83.0
983,209.93802688541666,210.17218142083334,58.0,84.0
984,210.14929413541665,210.2637305625,53.0,85.0
985,210.36056138541667,210.485561175,55.0,85.0
986,210.36056138541667,210.61056096458333,60.0,84.0
987,210.57182863541667,210.80774373124999,55.0,84.0
988,210.36056138541667,210.950349125,48.0,87.0
989,210.78309588541666,211.04365882708333,60.0,81.0
990,210.99436313541668,211.11056012291667,55.0,77.0
991,211.20563038541667,211.41337651458332,53.0,86.0
992,211.20563038541667,211.52253126041666,57.0,85.0
993,211.20563038541667,211.67217889583333,41.0,88.0
994,211.41689763541666,211.6897845,48.0,84.0
995,211.62816488541665,211.87464334375,53.0,86.0
996,211.83943213541667,211.95562912291666,57.0,86.0
997,212.05069938541666,212.29365672291667,57.0,82.0
998,212.05069938541666,212.36936082083332,61.0,89.0
999,212.47323388541668,212.73379682708332,57.0,90.0
1000,212.26196663541666,212.75844467291665,52.0,85.0
1001,212.68450113541667,212.76196579375,61.0,93.0
1002,212.05069938541666,212.77957139791667,45.0,91.0
1003,212.89576838541666,213.02252873541667,57.0,85.0
1004,212.89576838541666,213.1264018,62.0,88.0
1005,213.10703563541668,213.28309167708332,57.0,80.0
1006,213.31830288541667,213.443302675,62.0,76.0
1007,213.52957013541666,213.61407703541667,57.0,75.0
1008,212.89576838541666,213.83414708749999,50.0,98.0
1009,213.74083738541665,213.83590764791666,57.0,85.0
1010,213.74083738541665,213.94330183333332,62.0,89.0
1011,213.74083738541665,214.04893545833332,65.0,91.0
1012,213.95210463541667,214.12287899583333,57.0,78.0
1013,214.16337188541667,214.38520249791665,62.0,76.0
1014,214.37463913541666,214.499638925,57.0,76.0
1015,214.58590638541668,214.70738505416668,55.0,85.0
1016,214.58590638541668,214.83414540416666,60.0,85.0
1017,214.79717363541667,214.97851135833332,55.0,83.0
1018,215.00844088541666,215.1545674,60.0,74.0
1019,215.21970813541665,215.32006007916667,55.0,74.0
1020,215.43097538541667,215.5454118125,55.0,85.0
1021,214.58590638541668,215.63872151458332,48.0,90.0
1022,215.43097538541667,215.71794673333332,64.0,86.0
1023,215.64224263541666,215.77252410625,55.0,85.0
1024,215.85350988541666,216.06477713541668,60.0,84.0
1025,216.06477713541668,216.16336851875,55.0,84.0
1026,216.27604438541667,216.43625538333333,53.0,86.0
1027,216.27604438541667,216.56653685416666,58.0,84.0
1028,216.48731163541666,216.654564875,53.0,77.0
1029,216.69857888541665,216.8975222125,58.0,70.0
1030,216.90984613541667,217.02604312291666,53.0,85.0
1031,217.12111338541666,217.20914140625,53.0,88.0
1032,217.12111338541666,217.31653559166668,58.0,91.0
1033,216.27604438541667,217.32885951458334,46.0,90.0
1034,217.12111338541666,217.39223968958333,62.0,87.0
1035,217.33238063541665,217.51900003958332,53.0,84.0
1036,217.54364788541668,217.73026728958334,58.0,76.0
1037,217.75491513541667,217.837661475,53.0,73.0
1038,217.96618238541666,218.1228722625,57.0,84.0
1039,217.96618238541666,218.20209748125,61.0,86.0
1040,218.38871688541667,218.52956171875,57.0,93.0
1041,218.59998413541666,218.66864599166666,61.0,85.0
1042,218.59998413541666,218.68801215625,64.0,86.0
1043,218.17744963541668,218.86582875833332,52.0,86.0
1044,217.96618238541666,219.00491303125,45.0,88.0
1045,218.81125138541665,219.02603975625,57.0,93.0
1046,218.81125138541665,219.06477208541668,69.0,89.0
1047,218.81125138541665,219.07005376666666,64.0,95.0
1048,218.81125138541665,219.0735748875,61.0,98.0
1049,219.02251863541667,219.12111001875,52.0,105.0
1050,219.23378588541667,219.485546025,57.0,91.0
1051,219.44505313541666,219.51371499166666,61.0,81.0
1052,219.65632038541668,219.76547513124999,57.0,83.0
1053,219.65632038541668,219.85702427291668,62.0,85.0
1054,219.86758763541667,220.01371415,57.0,82.0
1055,220.07885488541666,220.19857299375,62.0,77.0
1056,220.29012213541665,220.37815015625,57.0,82.0
1057,220.50138938541667,220.59117796666666,57.0,85.0
1058,219.65632038541668,220.61054413125,50.0,93.0
1059,220.50138938541667,220.86230427083333,65.0,84.0
1060,220.71265663541666,220.91512108333333,57.0,85.0
1061,220.92392388541666,221.15983898125,62.0,85.0
1062,221.13519113541668,221.24258532083334,57.0,85.0
1063,221.34645838541667,221.56124675625,60.0,86.0
1064,221.55772563541666,221.70561271041666,55.0,86.0
1065,221.76899288541665,221.978499575,60.0,78.0
1066,221.98026013541667,222.09117544166668,55.0,85.0
1067,222.19152738541666,222.27075260416666,55.0,88.0
1068,222.19152738541666,222.35173838333333,60.0,91.0
1069,221.34645838541667,222.3693439875,48.0,90.0
1070,222.19152738541666,222.49434377708334,64.0,91.0
1071,222.40279463541665,222.58237179791666,55.0,84.0
1072,222.61406188541667,222.8446953,60.0,80.0
1073,222.82532913541667,222.93976556249999,55.0,84.0
1074,223.03659638541666,223.21969466875,62.0,84.0
1075,223.03659638541666,223.30068044791668,58.0,84.0
1076,223.24786363541668,223.46089144583334,53.0,86.0
1077,223.45913088541667,223.710891025,58.0,85.0
1078,223.03659638541666,223.7214543875,46.0,87.0
1079,223.67039813541666,223.74962335416666,53.0,84.0
1080,223.88166538541665,224.00490461458332,55.0,86.0
1081,223.88166538541665,224.13870720625,60.0,84.0
1082,223.88166538541665,224.24610139166666,48.0,91.0
1083,224.09293263541667,224.2496225125,55.0,85.0
1084,224.30419988541666,224.52250937708334,60.0,84.0
1085,224.51546713541666,224.6193402,55.0,84.0
1086,224.72673438541668,224.893987625,53.0,86.0
1087,224.72673438541668,224.94328331666665,57.0,86.0
1088,225.14926888541666,225.43624023333334,53.0,91.0
1089,225.36053613541665,225.48729648541666,57.0,80.0
1090,225.57180338541667,225.62638075833334,57.0,73.0
1091,224.93800163541667,225.8024368,48.0,85.0
1092,225.57180338541667,225.823563525,65.0,93.0
1093,224.72673438541668,225.84821137083333,41.0,85.0
1094,225.78307063541666,226.077084225,60.0,88.0
1095,225.99433788541666,226.2355346625,53.0,91.0
1096,226.20560513541668,226.3622950125,57.0,84.0
1097,226.62813963541666,226.8693364125,57.0,86.0
1098,226.83940688541668,227.00313900416666,62.0,84.0
1099,227.05067413541667,227.12989935416667,57.0,74.0
1100,227.26194138541666,227.34644828541667,57.0,85.0
1101,227.26194138541666,227.43271574583332,62.0,91.0
1102,226.41687238541667,227.44680022916666,50.0,93.0
1103,227.26194138541666,227.55771553541666,65.0,89.0
1104,227.47320863541665,227.724968775,57.0,81.0
1105,227.68447588541667,227.92215154166666,62.0,81.0
1106,227.89574313541667,227.99081339791667,57.0,78.0
1107,228.10701038541666,228.21264401041665,55.0,88.0
1108,228.10701038541666,228.32884099791667,60.0,86.0
1109,228.31827763541668,228.4960942375,55.0,85.0
1110,228.52954488541667,228.6756714,60.0,76.0
1111,228.74081213541666,228.85700912291668,55.0,80.0
1112,228.95207938541665,229.01193843958333,55.0,79.0
1113,228.95207938541665,229.11405094375,60.0,95.0
1114,228.95207938541665,229.22672681041666,64.0,91.0
1115,228.10701038541666,229.23729017291666,48.0,91.0
1116,229.16334663541667,229.33588155625,55.0,86.0
1117,229.37461388541666,229.49433199375,60.0,84.0
1118,229.79714838541668,229.91334537291667,53.0,85.0
1119,229.79714838541668,230.0172184375,58.0,88.0
1120,229.79714838541668,230.07003525,62.0,87.0
1121,230.00841563541667,230.23200680833332,53.0,79.0
1122,230.21968288541666,230.45735854166668,58.0,76.0
1123,230.43095013541665,230.60700617708332,53.0,84.0
1124,230.64221738541667,230.8622874375,58.0,85.0
1125,230.64221738541667,230.86580855833333,53.0,88.0
1126,230.64221738541667,230.936230975,62.0,88.0
1127,229.79714838541668,231.03306179791667,46.0,87.0
1128,231.06475188541665,231.17038551041668,53.0,80.0
1129,231.06475188541665,231.25841353125,58.0,73.0
1130,231.48728638541667,231.70207475625,57.0,80.0
1131,231.48728638541667,231.76193381041668,61.0,87.0
1132,231.90982088541668,232.21967951874998,57.0,90.0
1133,232.12108813541667,232.39221443958334,61.0,88.0
1134,232.33235538541666,232.57707328333333,64.0,85.0
1135,232.75488988541667,232.98024161875,57.0,87.0
1136,232.96263601458332,232.98024161875,57.0,68.0
1137,232.54362263541665,233.006650025,69.0,88.0
1138,231.69855363541666,233.02073450833333,52.0,89.0
1139,231.48728638541667,233.05066403541667,45.0,87.0
1140,233.04186123333332,234.78657660625,61.0,74.0
1141,233.08235412291666,234.79890052916667,45.0,89.0
1142,233.12988925416667,234.79890052916667,64.0,82.0
1143,235.29009688541666,235.52953310208332,62.0,85.0
1144,235.50136413541665,235.68798353958334,65.0,84.0
1145,235.92389863541666,236.07706739166667,69.0,85.0
1146,235.07882963541667,236.40277106874998,57.0,75.0
1147,234.86756238541668,236.42565835416667,50.0,88.0
1148,236.34643313541667,236.67565793333333,62.0,78.0
1149,236.98023488541668,237.2425583875,62.0,85.0
1150,237.19150213541667,237.49960020833333,69.0,88.0
1151,237.61403663541665,237.76720539166666,65.0,87.0
1152,236.55770038541667,237.87283901666666,50.0,84.0
1153,236.76896763541666,237.92565582916666,57.0,73.0
1154,237.82530388541667,238.23903558333333,62.0,82.0
1155,238.88164013541666,239.36931537083333,69.0,84.0
1156,238.67037288541667,239.37283649166667,60.0,86.0
1157,238.45910563541668,239.78656818958333,55.0,71.0
1158,238.24783838541666,239.81473715625,48.0,85.0
1159,239.72670913541666,240.11755354791666,60.0,80.0
1160,239.30417463541667,240.19677876666665,64.0,84.0
1161,240.36051088541666,240.64924279375,60.0,84.0
1162,240.14924363541667,240.96438310833332,55.0,75.0
1163,239.93797638541668,240.97846759166666,48.0,84.0
1164,240.57177813541668,241.02248160208333,64.0,86.0
1165,241.20557988541665,241.51895963958333,60.0,84.0
1166,240.99431263541666,241.689734,69.0,85.0
1167,242.05064888541668,242.3974792875,58.0,72.0
1168,242.26191613541667,242.71790128333333,65.0,84.0
1169,241.62811438541667,243.16332306875,46.0,86.0
1170,241.83938163541666,243.23726660625,53.0,83.0
1171,242.68445063541665,243.28304117708333,58.0,76.0
1172,242.89571788541667,243.34466079166666,62.0,80.0
1173,243.74078688541667,244.01367375,57.0,85.0
1174,243.95205413541666,244.4045181625,64.0,89.0
1175,244.37458863541667,244.57177140208333,61.0,90.0
1176,243.52951963541668,244.86578499166666,52.0,74.0
1177,243.31825238541666,244.94853133125,45.0,77.0
1178,244.58585588541666,245.05240439583332,57.0,86.0
1179,244.99782702291665,246.1791630625,50.0,44.0
1180,245.00839038541667,246.1791630625,50.0,95.0
1181,244.98198197916668,248.45556768125,38.0,62.0
1182,245.13867185625,248.4819760875,53.0,52.0
1183,245.21965763541667,248.49782113125,57.0,47.0
1184,245.27599556875,248.51894785625,62.0,48.0
