,start,end,pitch,velocity
0,17.658420979166667,17.852082625,71.0,87.0
1,17.940110645833332,18.040462589583335,69.0,81.0
2,18.080955479166665,18.2218003125,71.0,88.0
3,18.362645145833334,18.455954847916665,69.0,87.0
4,18.503489979166666,18.63905313125,71.0,88.0
5,18.785179645833335,18.883771029166667,69.0,86.0
6,18.926024479166667,19.181305739583333,71.0,87.0
7,19.348558979166665,19.512291097916666,76.0,87.0
8,19.630248645833333,19.797501885416665,71.0,91.0
9,20.045740904166667,20.135529485416665,71.0,87.0
10,20.198909660416668,20.35912065833333,71.0,88.0
11,20.45595148125,20.57214846875,71.0,86.0
12,20.637289204166667,20.95242951875,69.0,93.0
13,21.04749978125,21.212992460416668,67.0,87.0
14,21.308062722916667,21.403132985416665,67.0,86.0
15,21.461231479166667,21.762287310416667,69.0,90.0
16,21.88200541875,22.095033229166667,67.0,87.0
17,22.168976766666667,23.579185660416666,71.0,88.0
18,24.410170177083334,24.609113504166668,71.0,91.0
19,24.6865781625,24.790451227083334,69.0,87.0
20,24.837986358333332,24.954183345833332,71.0,87.0
21,25.107352102083333,25.202422364583335,69.0,90.0
22,25.260520858333333,25.38904176875,71.0,87.0
23,25.522844360416666,25.623196304166665,69.0,90.0
24,25.67425255625,25.852069158333332,71.0,91.0
25,25.955942222916665,26.18129395625,76.0,90.0
26,26.336223272916666,26.639039664583333,78.0,90.0
27,26.748194410416666,27.228827404166665,79.0,86.0
28,27.3696722375,27.658404145833334,81.0,90.0
29,27.78516449583333,27.9189670875,79.0,90.0
30,28.01931903125,28.501712585416666,79.0,87.0
31,28.626712375,28.823895141666668,76.0,88.0
32,28.88551475625,30.1372732125,78.0,90.0
33,30.3274137375,30.484103614583333,71.0,97.0
34,30.589737239583332,30.688328622916668,71.0,87.0
35,30.746427116666666,31.11438424375,72.0,97.0
36,31.176003858333335,31.334454295833332,71.0,95.0
37,31.417200635416666,31.730580389583334,72.0,93.0
38,31.830932333333333,32.040439022916665,79.0,88.0
39,32.260509075,32.75170543125,79.0,91.0
40,32.697128058333334,33.345014291666665,78.0,91.0
41,33.714731979166665,33.86966129583333,71.0,95.0
42,33.99642164583333,34.105576391666666,71.0,90.0
43,34.13726647916667,34.39782942083333,83.0,92.0
44,34.55980097916667,34.853814568749996,83.0,92.0
45,34.982335479166665,35.290433552083336,81.0,90.0
46,35.40486997916667,35.71824973333333,79.0,88.0
47,35.82740447916667,36.14254479375,81.0,91.0
48,36.10029134375,36.29395298958333,79.0,87.0
49,36.22000945208333,36.806276070833334,76.0,90.0
50,37.065078452083334,37.25345841666667,76.0,102.0
51,37.343246997916665,37.43127501875,78.0,92.0
52,37.51402135833333,37.65310563125,79.0,92.0
53,37.76930261875,37.87845736458333,79.0,84.0
54,37.95240090208333,38.109090779166664,76.0,90.0
55,38.18831599791667,38.82563886875,79.0,92.0
56,39.19535655625,39.38197596041667,79.0,88.0
57,39.4752856625,39.573877045833335,79.0,87.0
58,39.612609375,39.806271020833336,76.0,88.0
59,39.867890635416664,40.165425345833334,79.0,90.0
60,40.285143454166665,40.60556545,81.0,90.0
61,40.71295963541667,40.84324110625,79.0,86.0
62,40.9119029625,42.05626723333333,78.0,88.0
63,42.14253469375,42.350280822916666,76.0,92.0
64,42.38549203125,43.34675801875,78.0,88.0
65,43.43830716041666,43.626687125,83.0,102.0
66,43.68478561875,43.793940364583335,81.0,90.0
67,43.85027829791667,43.99288369166667,79.0,92.0
68,44.10379899791667,44.209432622916665,78.0,91.0
69,44.2816156,44.56330526666667,79.0,92.0
70,44.69886841875,44.827389329166664,71.0,93.0
71,44.931262393749996,45.24816326875,71.0,90.0
72,45.355557454166664,45.653092164583335,79.0,88.0
73,45.79041587708333,46.53865405416666,78.0,88.0
74,46.8168226,47.03689265208333,78.0,91.0
75,47.07386442083333,47.17421636458333,76.0,90.0
76,47.20414589166667,47.32914568125,74.0,90.0
77,47.471751075,48.12667955,76.0,90.0
78,48.28865110833333,48.38724249166667,67.0,82.0
79,48.475270512499996,48.846748760416666,67.0,86.0
80,48.910128935416665,49.12491730625,76.0,90.0
81,49.1513257125,49.93125397708333,74.0,87.0
82,50.204140841666664,50.41716865208333,74.0,97.0
83,50.4506193,50.5668162875,72.0,82.0
84,50.61787253958333,50.917167810416665,71.0,87.0
85,51.02280143541667,51.529842835416666,72.0,90.0
86,51.67244822916667,51.76575793125,72.0,88.0
87,51.86082819375,52.17420794791666,72.0,93.0
88,52.26751765,52.54920731666667,83.0,97.0
89,52.70941831458333,53.049206475,83.0,93.0
90,53.15307953958333,53.29040325208333,81.0,87.0
91,53.388994635416665,53.880190991666666,79.0,88.0
92,54.01223302291667,54.20589466875,76.0,97.0
93,54.267514283333334,54.38371127083333,78.0,86.0
94,54.4330069625,54.584415158333336,79.0,88.0
95,54.697091025,54.78511904583333,79.0,84.0
96,54.85730202291666,54.99814685625,79.0,86.0
97,55.1090621625,55.202371864583334,79.0,85.0
98,55.286878764583335,55.44885032291667,79.0,87.0
99,55.54039946458333,55.915398833333334,81.0,89.0
100,55.93124387708333,56.30096156458333,76.0,88.0
101,56.32736997083333,56.700608779166664,78.0,88.0
102,56.959411160416664,57.147791125,83.0,102.0
103,57.20588961875,57.315044364583336,81.0,90.0
104,57.37138229791667,57.513987691666664,79.0,92.0
105,57.624902997916664,57.73053662291667,78.0,91.0
106,57.802719599999996,58.08440926666667,79.0,92.0
107,58.21997241875,58.348493329166665,71.0,93.0
108,58.45236639375,58.76926726875,71.0,90.0
109,58.876661454166666,59.174196164583336,79.0,88.0
110,59.311519877083335,60.059758054166664,78.0,88.0
111,60.3379266,60.55799665208333,78.0,91.0
112,60.59496842083333,60.69532036458333,76.0,90.0
113,60.725249891666664,60.85024968125,74.0,90.0
114,60.992855075,61.64778355,76.0,90.0
115,61.809755108333334,61.90834649166666,67.0,82.0
116,61.9963745125,62.36785276041667,67.0,86.0
117,62.431232935416666,62.64602130625,76.0,90.0
118,62.6724297125,63.45235797708333,74.0,87.0
119,63.725244841666665,63.938272652083334,74.0,97.0
120,63.9717233,64.0879202875,72.0,82.0
121,64.13897653958334,64.43827181041667,71.0,87.0
122,64.54390543541666,65.05094683541667,72.0,90.0
123,65.19355222916667,65.28686193125,72.0,88.0
124,65.38193219375,65.69531194791666,72.0,93.0
125,65.78862165,66.07031131666666,83.0,97.0
126,66.23052231458334,66.570310475,83.0,93.0
127,66.67418353958334,66.81150725208333,81.0,87.0
128,66.91009863541666,67.40129499166666,79.0,88.0
129,67.53333702291667,67.72699866875,76.0,97.0
130,67.78861828333334,67.90481527083334,78.0,86.0
131,67.9541109625,68.10551915833334,79.0,88.0
132,68.218195025,68.30622304583333,79.0,84.0
133,68.37840602291666,68.51925085625,79.0,86.0
134,68.6301661625,68.72347586458334,79.0,85.0
135,68.80798276458333,68.96995432291666,79.0,87.0
136,69.06150346458334,69.43650283333334,81.0,89.0
137,69.45234787708333,69.82206556458333,76.0,88.0
138,69.84847397083334,70.39072657916667,78.0,88.0
139,70.45586731458333,70.73403586041667,76.0,91.0
140,70.71290913541667,71.28861239166666,75.0,86.0
141,71.28157015,71.96290703125,78.0,88.0
142,71.96994927291666,73.62839718541666,76.0,88.0
143,85.26394097916666,85.45760262499999,71.0,87.0
144,85.54563064583333,85.64598258958333,69.0,81.0
145,85.68647547916666,85.82732031249999,71.0,88.0
146,85.96816514583334,86.06147484791667,69.0,87.0
147,86.10900997916667,86.24457313125,71.0,88.0
148,86.39069964583334,86.48929102916667,69.0,86.0
149,86.53154447916667,86.78682573958334,71.0,87.0
150,86.95407897916667,87.11781109791667,76.0,87.0
151,87.23576864583333,87.40302188541666,71.0,91.0
152,87.65126090416666,87.74104948541667,71.0,87.0
153,87.80442966041666,87.96464065833334,71.0,88.0
154,88.06147148125,88.17766846875,71.0,86.0
155,88.24280920416666,88.55794951875,69.0,93.0
156,88.65301978125,88.81851246041667,67.0,87.0
157,88.91358272291667,89.00865298541666,67.0,86.0
158,89.06675147916667,89.36780731041667,69.0,90.0
159,89.48752541875,89.70055322916667,67.0,87.0
160,89.77449676666667,91.18470566041667,71.0,88.0
161,92.01569017708333,92.21463350416667,71.0,91.0
162,92.2920981625,92.39597122708334,69.0,87.0
163,92.44350635833334,92.55970334583333,71.0,87.0
164,92.71287210208334,92.80794236458333,69.0,90.0
165,92.86604085833333,92.99456176875,71.0,87.0
166,93.12836436041667,93.22871630416667,69.0,90.0
167,93.27977255625,93.45758915833333,71.0,91.0
168,93.56146222291666,93.78681395625,76.0,90.0
169,93.94174327291667,94.24455966458333,78.0,90.0
170,94.35371441041667,94.83434740416666,79.0,86.0
171,94.9751922375,95.26392414583333,81.0,90.0
172,95.39068449583333,95.5244870875,79.0,90.0
173,95.62483903125,96.10723258541667,79.0,87.0
174,96.232232375,96.42941514166667,76.0,88.0
175,96.49103475625,97.7427932125,78.0,90.0
176,97.9329337375,98.08962361458333,71.0,97.0
177,98.19525723958333,98.29384862291667,71.0,87.0
178,98.35194711666666,98.71990424375,72.0,97.0
179,98.78152385833333,98.93997429583334,71.0,95.0
180,99.02272063541666,99.33610038958334,72.0,93.0
181,99.43645233333334,99.64595902291667,79.0,88.0
182,99.866029075,100.35722543125,79.0,91.0
183,100.30264805833333,100.95053429166667,78.0,91.0
184,101.32025197916667,101.47518129583334,71.0,95.0
185,101.60194164583334,101.71109639166667,71.0,90.0
186,101.74278647916667,102.00334942083333,83.0,92.0
187,102.16532097916667,102.45933456875,83.0,92.0
188,102.58785547916666,102.89595355208333,81.0,90.0
189,103.01038997916666,103.32376973333334,79.0,88.0
190,103.43292447916667,103.74806479375,81.0,91.0
191,103.70581134375,103.89947298958333,79.0,87.0
192,103.82552945208333,104.41179607083333,76.0,90.0
193,104.67059845208333,104.85897841666666,76.0,102.0
194,104.94876699791666,105.03679501875,78.0,92.0
195,105.11954135833334,105.25862563125,79.0,92.0
196,105.37482261875,105.48397736458334,79.0,84.0
197,105.55792090208334,105.71461077916666,76.0,90.0
198,105.79383599791666,106.43115886875,79.0,92.0
199,106.80087655625,106.98749596041667,79.0,88.0
200,107.0808056625,107.17939704583333,79.0,87.0
201,107.218129375,107.41179102083333,76.0,88.0
202,107.47341063541667,107.77094534583333,79.0,90.0
203,107.89066345416667,108.21108545,81.0,90.0
204,108.31847963541667,108.44876110625,79.0,86.0
205,108.51742296249999,109.66178723333333,78.0,88.0
206,109.69523788125,109.90474457083333,84.0,92.0
207,110.01389931666667,110.97516530416667,84.0,88.0
208,111.04382716041667,111.232207125,84.0,102.0
209,111.29030561875,111.39946036458333,82.0,90.0
210,111.45579829791667,111.59840369166666,80.0,92.0
211,111.70931899791667,111.81495262291666,79.0,91.0
212,111.8871356,112.16882526666667,80.0,92.0
213,112.30438841875,112.43290932916666,72.0,93.0
214,112.53678239375,112.85368326875,72.0,90.0
215,112.96107745416667,113.25861216458333,80.0,88.0
216,113.39593587708333,114.14417405416667,79.0,88.0
217,114.4223426,114.64241265208334,79.0,91.0
218,114.67938442083333,114.77973636458333,77.0,90.0
219,114.80966589166667,114.93466568125,75.0,90.0
220,115.077271075,115.73219955,77.0,90.0
221,115.89417110833334,115.99276249166667,68.0,82.0
222,116.0807905125,116.45226876041667,68.0,86.0
223,116.51564893541666,116.73043730625,77.0,90.0
224,116.7568457125,117.53677397708333,75.0,87.0
225,117.80966084166667,118.02268865208333,75.0,97.0
226,118.0561393,118.1723362875,73.0,82.0
227,118.22339253958333,118.52268781041667,72.0,87.0
228,118.62832143541667,119.13536283541667,73.0,90.0
229,119.27796822916666,119.37127793125,73.0,88.0
230,119.46634819375,119.77972794791667,73.0,93.0
231,119.87303765,120.15472731666667,84.0,97.0
232,120.31493831458333,120.654726475,84.0,93.0
233,120.75859953958333,120.89592325208334,82.0,87.0
234,120.99451463541666,121.48571099166666,80.0,88.0
235,121.61775302291666,121.81141466875,77.0,97.0
236,121.87303428333333,121.98923127083333,79.0,86.0
237,122.0385269625,122.18993515833333,80.0,88.0
238,122.302611025,122.39063904583334,80.0,84.0
239,122.46282202291667,122.60366685625,80.0,86.0
240,122.7145821625,122.80789186458333,80.0,85.0
241,122.89239876458333,123.05437032291667,80.0,87.0
242,123.14591946458333,123.52091883333333,82.0,89.0
243,123.53676387708333,123.90648156458333,77.0,88.0
244,123.93288997083333,124.30612877916667,79.0,88.0
245,124.56493116041666,124.753311125,84.0,102.0
246,124.81140961875,124.92056436458333,82.0,90.0
247,124.97690229791667,125.11950769166667,80.0,92.0
248,125.23042299791666,125.33605662291667,79.0,91.0
249,125.4082396,125.68992926666667,80.0,92.0
250,125.82549241875,125.95401332916667,72.0,93.0
251,126.05788639375,126.37478726875,72.0,90.0
252,126.48218145416666,126.77971616458333,80.0,88.0
253,126.91703987708333,127.66527805416666,79.0,88.0
254,127.9434466,128.16351665208333,79.0,91.0
255,128.20048842083332,128.30084036458334,77.0,90.0
256,128.33076989166668,128.45576968125,75.0,90.0
257,128.598375075,129.25330355,77.0,90.0
258,129.41527510833333,129.51386649166668,68.0,82.0
259,129.6018945125,129.97337276041665,68.0,86.0
260,130.03675293541667,130.25154130625,77.0,90.0
261,130.2779497125,131.05787797708334,75.0,87.0
262,131.33076484166668,131.54379265208334,75.0,97.0
263,131.5772433,131.6934402875,73.0,82.0
264,131.74449653958334,132.04379181041668,72.0,87.0
265,132.14942543541667,132.65646683541667,73.0,90.0
266,132.79907222916665,132.89238193125,73.0,88.0
267,132.98745219375,133.30083194791666,73.0,93.0
268,133.39414165,133.67583131666666,84.0,97.0
269,133.83604231458332,134.175830475,84.0,93.0
270,134.27970353958332,134.41702725208333,82.0,87.0
271,134.51561863541667,135.00681499166666,80.0,88.0
272,135.13885702291665,135.33251866875,77.0,97.0
273,135.39413828333332,135.51033527083334,79.0,86.0
274,135.5596309625,135.71103915833334,80.0,88.0
275,135.823715025,135.91174304583333,80.0,84.0
276,135.98392602291668,136.12477085625,80.0,86.0
277,136.2356861625,136.32899586458333,80.0,85.0
278,136.41350276458334,136.57547432291668,80.0,87.0
279,136.66702346458334,137.04202283333333,82.0,89.0
280,137.05786787708334,137.42758556458332,77.0,88.0
281,137.45399397083332,137.99624657916667,79.0,88.0
282,138.06138731458333,138.33955586041665,77.0,91.0
283,138.31842913541666,138.89413239166666,80.0,86.0
284,138.88709015,141.3272268875,82.0,88.0
285,141.47863508333333,141.7497613875,82.0,92.0
286,141.80785988125,142.13708467916666,85.0,97.0
287,142.27616895208334,142.55081637708332,84.0,90.0
288,142.70926681458334,142.9011679,80.0,90.0
289,142.99447760208332,143.07898450208333,77.0,84.0
290,143.15292803958334,143.32546296041667,80.0,93.0
291,143.40468817916667,143.51208236458334,77.0,86.0
292,143.52792740833334,143.89412397499999,82.0,90.0
293,143.98215199583333,144.80961539166665,80.0,102.0
294,151.60713916041666,151.795519125,86.0,102.0
295,151.85361761875,151.96277236458334,84.0,90.0
296,152.01911029791665,152.16171569166667,82.0,92.0
297,152.27263099791668,152.37826462291667,81.0,91.0
298,152.4504476,152.73213726666665,82.0,92.0
299,152.86770041875,152.99622132916667,74.0,93.0
300,153.10009439375,153.41699526875,74.0,90.0
301,153.52438945416665,153.82192416458332,82.0,88.0
302,153.95924787708333,154.70748605416668,81.0,88.0
303,154.9856546,155.20572465208332,81.0,91.0
304,155.24269642083334,155.34304836458332,79.0,90.0
305,155.37297789166666,155.49797768125,77.0,90.0
306,155.640583075,156.29551155,79.0,90.0
307,156.45748310833332,156.55607449166666,70.0,82.0
308,156.6441025125,157.01558076041667,70.0,86.0
309,157.07896093541666,157.29374930625,79.0,90.0
310,157.3201577125,158.10008597708332,77.0,87.0
311,158.37297284166667,158.58600065208333,77.0,97.0
312,158.6194513,158.7356482875,75.0,82.0
313,158.78670453958333,159.08599981041667,74.0,87.0
314,159.19163343541666,159.69867483541665,75.0,90.0
315,159.84128022916667,159.93458993125,75.0,88.0
316,160.02966019375,160.34303994791668,75.0,93.0
317,160.43634965,160.71803931666668,86.0,97.0
318,160.87825031458334,161.218038475,86.0,93.0
319,161.32191153958334,161.45923525208335,84.0,87.0
320,161.55782663541666,162.04902299166667,82.0,88.0
321,162.18106502291667,162.37472666875,79.0,97.0
322,162.43634628333334,162.55254327083333,81.0,86.0
323,162.6018389625,162.75324715833332,82.0,88.0
324,162.865923025,162.95395104583332,82.0,84.0
325,163.02613402291666,163.16697885625,82.0,86.0
326,163.2778941625,163.37120386458332,82.0,85.0
327,163.45571076458333,163.61768232291666,82.0,87.0
328,163.70923146458333,164.08423083333332,84.0,89.0
329,164.10007587708333,164.46979356458334,86.0,88.0
330,164.70042697916668,164.86944077916667,81.0,88.0
331,165.12824316041667,165.316623125,86.0,102.0
332,165.37472161875,165.48387636458332,84.0,90.0
333,165.54021429791666,165.68281969166665,86.0,92.0
334,165.79373499791666,165.89936862291665,85.0,91.0
335,165.9715516,166.25324126666666,86.0,92.0
336,166.38880441875,166.51732532916665,79.0,93.0
337,166.62119839375,166.93809926875,79.0,90.0
338,167.04549345416666,167.34302816458333,86.0,88.0
339,167.66521072083333,168.22859005416666,81.0,88.0
340,168.50323747916667,168.71450472916666,82.0,91.0
341,168.71450472916666,168.81485667291668,81.0,90.0
342,168.92577197916665,169.04725064791666,79.0,90.0
343,169.13703922916667,169.25499677708333,77.0,97.0
344,169.34830647916667,169.89760132916666,79.0,90.0
345,169.98210822916667,170.0806996125,79.0,82.0
346,170.19337547916666,170.56485372708335,79.0,86.0
347,170.61590997916667,170.83069835,82.0,90.0
348,170.8412617125,171.54196475833334,79.0,87.0
349,171.46097897916667,171.72682360208333,77.0,97.0
350,171.89407684166667,172.10710465208334,77.0,97.0
351,172.1405553,172.46978009791667,77.0,82.0
352,172.50851242708333,172.60710381041667,74.0,87.0
353,172.71273743541667,173.21977883541666,75.0,90.0
354,173.36238422916668,173.45569393125,75.0,88.0
355,173.55076419375,173.86414394791666,75.0,93.0
356,173.95745365,174.23914331666666,86.0,97.0
357,174.39935431458332,174.739142475,86.0,93.0
358,174.84301553958332,174.98033925208333,84.0,87.0
359,175.07893063541667,175.57012699166665,82.0,88.0
360,175.70216902291668,175.89583066875,79.0,97.0
361,175.95745028333334,176.07364727083333,81.0,86.0
362,176.1229429625,176.27435115833333,82.0,88.0
363,176.387027025,176.47505504583333,82.0,84.0
364,176.54723802291667,176.68808285625,82.0,86.0
365,176.7989981625,176.89230786458333,82.0,85.0
366,176.97681476458334,177.13878632291667,82.0,87.0
367,177.23033546458333,177.60533483333333,84.0,89.0
368,177.62117987708334,177.99089756458332,86.0,88.0
369,178.01730597083332,178.55955857916666,81.0,88.0
370,178.64934716041665,178.837727125,86.0,102.0
371,178.89582561875,179.00498036458333,84.0,90.0
372,179.06131829791667,179.20392369166666,86.0,92.0
373,179.31483899791667,179.42047262291666,85.0,91.0
374,179.4926556,179.77434526666667,86.0,92.0
375,180.11413342708335,180.2426543375,79.0,93.0
376,180.34652740208332,180.66342827708334,79.0,90.0
377,180.55779465208334,180.8553293625,86.0,88.0
378,181.17927247916666,181.76201797708333,81.0,88.0
379,182.02434147916668,182.24441153125,82.0,91.0
380,182.29370722291665,182.39405916666666,81.0,90.0
381,182.44687597916666,182.57187576875,79.0,90.0
382,182.71624172291666,182.92750897291666,77.0,97.0
383,182.86941047916667,183.47680382291668,79.0,90.0
384,183.49969110833334,183.59828249166665,79.0,82.0
385,183.6863105125,184.05778876041666,79.0,86.0
386,184.1299717375,184.34476010833333,82.0,90.0
387,184.52609783124998,184.73736508125,77.0,87.0
388,185.01377306666666,185.18102630625,77.0,97.0
389,185.41518084166665,185.62820865208334,77.0,97.0
390,185.67046210208332,185.79546189166666,75.0,82.0
391,186.02257418541666,186.20567246875,74.0,87.0
392,186.23384143541668,186.74088283541667,75.0,90.0
393,186.88348822916666,186.97679793125,75.0,88.0
394,187.07186819375,187.38524794791667,75.0,93.0
395,187.47855765,187.76024731666666,86.0,97.0
396,187.92045831458333,188.260246475,86.0,93.0
397,188.36411953958333,188.50144325208333,84.0,87.0
398,188.60003463541668,189.09123099166666,82.0,88.0
399,189.22327302291666,189.41693466875,79.0,97.0
400,189.47855428333332,189.59475127083334,81.0,86.0
401,189.6440469625,189.79545515833334,82.0,88.0
402,189.908131025,189.99615904583334,82.0,84.0
403,190.06834202291665,190.20918685625,82.0,86.0
404,190.3201021625,190.41341186458334,82.0,85.0
405,190.49791876458332,190.65989032291665,82.0,87.0
406,190.75143946458334,191.12643883333334,84.0,89.0
407,191.12643883333334,191.49615652083332,86.0,88.0
408,191.53840997083333,192.08066257916667,81.0,88.0
409,192.14580331458333,192.42397186041666,79.0,91.0
410,192.40284513541667,192.97854839166666,78.0,86.0
411,194.27784197916665,194.35354607708334,82.0,101.0
412,194.48910922916667,194.91516485,82.0,101.0
413,192.97150615,195.4116428875,79.0,88.0
414,194.91164372916666,195.781360575,81.0,101.0
415,195.96797997916667,196.31657094166667,79.0,101.0
416,196.39051447916665,197.58593500208335,82.0,101.0
417,197.65811797916666,197.9257231625,84.0,101.0
418,197.86938522916665,198.24438459791668,86.0,101.0
419,198.29191972916666,199.44156568125,84.0,101.0
420,199.24966459583334,199.62290340416666,79.0,101.0
421,199.55952322916667,200.05248014583333,77.0,101.0
422,199.98205772916666,200.94156315625,79.0,101.0
423,201.03839397916667,201.22853450416667,72.0,101.0
424,201.24966122916666,201.50318192916666,74.0,101.0
425,201.46092847916665,201.96973043958334,72.0,101.0
426,201.88346297916667,202.64402507916665,70.0,101.0
427,203.15106647916667,204.24613505833332,72.0,101.0
428,204.62993722916667,204.88345792916667,70.0,105.0
429,204.84120447916666,205.32007691249999,69.0,105.0
430,205.26373897916667,205.71268188541666,67.0,105.0
431,205.68627347916666,206.06831508958334,72.0,105.0
432,206.10880797916667,206.40634268958334,70.0,105.0
433,206.32007522916666,206.63169442291667,69.0,105.0
434,207.37641147916668,208.75140916458332,67.0,105.0
