,start,end,pitch,velocity
0,3.716543039583333,4.3943588,64.0,82.0
1,3.6637262270833335,4.4049221625,59.0,75.0
2,4.149640902083333,4.7042174333333335,47.0,62.0
3,4.572175402083333,4.735907520833333,59.0,80.0
4,3.705979677083333,4.749992004166667,40.0,88.0
5,4.577457083333333,4.7658370479166665,64.0,82.0
6,4.570414841666667,4.860907310416667,67.0,81.0
7,5.346821985416667,6.0105532625,62.0,73.0
8,5.383793754166667,6.19541210625,66.0,73.0
9,5.43485000625,6.23766555625,69.0,75.0
10,5.8309761,6.32217245625,45.0,73.0
11,5.4190049625,6.3380175,38.0,84.0
12,6.223581072916667,6.34329918125,62.0,82.0
13,6.9401291625,7.660198372916667,60.0,68.0
14,7.1161852041666664,7.8943529083333335,67.0,79.0
15,7.036959985416667,7.920761314583333,64.0,82.0
16,7.4929451333333335,8.005268214583333,55.0,72.0
17,7.089776797916667,8.0387188625,48.0,88.0
18,7.936606358333333,8.0598455875,60.0,74.0
19,8.797520402083332,9.1161818375,66.0,74.0
20,8.790478160416667,9.325688527083333,59.0,75.0
21,8.802802083333333,9.336251889583334,63.0,75.0
22,9.2218154625,9.683082291666667,54.0,58.0
23,9.6337866,9.80808208125,63.0,79.0
24,8.809844325,9.8133637625,47.0,83.0
25,9.640828841666666,9.8133637625,66.0,75.0
26,9.635547160416667,9.823927124999999,71.0,83.0
27,9.632026039583334,9.866180575,59.0,80.0
28,10.450686633333333,11.079206702083333,55.0,80.0
29,10.43132046875,11.110896789583332,52.0,73.0
30,10.47357391875,11.121460152083333,59.0,85.0
31,10.855615529166666,11.429558225,47.0,77.0
32,11.299276754166666,11.448924389583333,52.0,87.0
33,11.293995072916667,11.464769433333334,55.0,85.0
34,11.295755633333334,11.475332795833333,59.0,86.0
35,10.471813358333334,11.4929384,40.0,88.0
36,12.04751493125,12.260542741666667,57.0,63.0
37,12.1161767875,12.619697066666667,62.0,75.0
38,12.582725297916667,13.153146872916667,45.0,75.0
39,12.174275281249999,13.1830764,38.0,87.0
40,12.186599204166667,13.3204001125,66.0,76.0
41,13.021104841666666,13.433075979166667,62.0,87.0
42,13.401385891666667,13.512301197916667,57.0,88.0
43,13.709483964583333,13.890821687499999,55.0,72.0
44,13.788709183333333,14.258778814583334,60.0,79.0
45,13.871455522916667,14.352088516666667,64.0,87.0
46,14.257018254166667,14.758777972916667,55.0,85.0
47,13.855610479166666,14.811594785416666,48.0,85.0
48,14.695397797916666,14.83096095,60.0,82.0
49,15.42779093125,15.9189872875,59.0,72.0
50,15.531663995833334,15.920747847916667,66.0,73.0
51,15.457720458333334,15.970043539583333,63.0,74.0
52,15.93483233125,16.387296358333334,54.0,73.0
53,15.526382314583334,16.480606060416665,47.0,86.0
54,16.374972435416666,16.512296147916665,59.0,82.0
55,16.36616963333333,16.6372959375,63.0,82.0
56,16.369690754166665,16.640817058333333,71.0,86.0
57,16.364409072916665,16.64257761875,66.0,79.0
58,17.235886479166666,17.70947723125,55.0,83.0
59,17.235886479166666,17.734125077083334,52.0,82.0
60,17.658420979166667,18.14257509375,47.0,64.0
61,17.235886479166666,18.202434147916666,40.0,91.0
62,18.080955479166665,18.531658945833332,55.0,86.0
63,18.080955479166665,18.551025110416667,52.0,87.0
64,18.080955479166665,18.563349033333335,59.0,87.0
65,18.714757229166665,18.885531589583334,55.0,81.0
66,18.714757229166665,18.904897754166665,52.0,84.0
67,19.137291729166666,19.286939364583333,50.0,80.0
68,19.137291729166666,19.311587210416665,57.0,77.0
69,19.348558979166665,19.852079258333333,45.0,73.0
70,18.926024479166667,19.90137495,38.0,88.0
71,19.771093479166666,20.003487454166667,50.0,85.0
72,19.771093479166666,20.024614179166665,54.0,85.0
73,19.771093479166666,20.052783145833335,57.0,79.0
74,19.771093479166666,20.098557716666665,62.0,83.0
75,20.616162479166668,20.89961270625,55.0,80.0
76,20.616162479166668,21.07918986875,60.0,80.0
77,21.038696979166666,21.18482349375,55.0,80.0
78,20.616162479166668,21.593273510416665,48.0,86.0
79,21.461231479166667,21.66017480625,55.0,88.0
80,21.461231479166667,21.70066769583333,60.0,88.0
81,21.461231479166667,21.709470497916666,64.0,87.0
82,22.306300479166666,22.417215785416666,55.0,82.0
83,22.517567729166668,22.778130670833335,59.0,89.0
84,22.517567729166668,22.809820758333334,63.0,84.0
85,22.306300479166666,23.235876379166665,47.0,87.0
86,22.728834979166667,23.251721422916667,51.0,85.0
87,23.151369479166668,23.596791264583334,59.0,91.0
88,23.151369479166668,23.607354627083332,63.0,91.0
89,23.151369479166668,23.683058725,66.0,86.0
90,23.573903979166666,23.684819285416665,54.0,81.0
91,23.785171229166668,23.8837626125,59.0,87.0
92,23.996438479166667,24.508761560416666,64.0,87.0
93,23.996438479166667,24.514043241666666,59.0,82.0
94,24.630240229166667,24.74467665625,59.0,83.0
95,24.418972979166668,25.0140424,47.0,74.0
96,24.841507479166665,25.05981697083333,64.0,91.0
97,24.841507479166665,25.063338091666665,67.0,87.0
98,24.841507479166665,25.079183135416667,59.0,87.0
99,23.996438479166667,25.086225377083334,40.0,88.0
100,25.897843729166667,26.0809420125,62.0,84.0
101,25.897843729166667,26.114392660416666,66.0,80.0
102,26.109110979166665,26.660166389583335,45.0,87.0
103,25.686576479166668,26.676011433333333,38.0,91.0
104,26.531645479166666,26.78340561875,57.0,86.0
105,26.531645479166666,26.991151747916668,62.0,88.0
106,26.531645479166666,27.008757352083332,66.0,87.0
107,26.954179979166668,27.066855845833334,38.0,91.0
108,26.954179979166668,27.087982570833333,57.0,88.0
109,27.376714479166665,27.642559102083332,55.0,80.0
110,27.376714479166665,27.874953077083333,60.0,81.0
111,28.010516229166665,28.089741447916666,55.0,76.0
112,27.376714479166665,28.41896624583333,48.0,87.0
113,28.221783479166668,28.577416683333333,55.0,95.0
114,28.221783479166668,28.619670133333333,60.0,91.0
115,28.221783479166668,28.619670133333333,64.0,92.0
116,28.644317979166665,28.771078329166667,48.0,86.0
117,29.278119729166665,29.415443441666667,59.0,86.0
118,29.278119729166665,29.42776736458333,63.0,76.0
119,29.278119729166665,29.452415210416667,66.0,79.0
120,29.066852479166666,29.52987986875,47.0,88.0
121,29.489386979166667,29.855583545833333,51.0,88.0
122,29.911921479166665,30.191850585416667,54.0,91.0
123,30.123188729166667,30.286920847916665,66.0,75.0
124,30.123188729166667,30.29044196875,63.0,79.0
125,30.123188729166667,30.308047572916667,59.0,87.0
126,30.334455979166666,30.450652966666667,51.0,87.0
127,30.756990479166667,31.285158604166668,57.0,81.0
128,30.756990479166667,31.311567010416667,60.0,87.0
129,31.390792229166667,31.491144172916666,57.0,76.0
130,31.179524979166665,31.709453664583332,52.0,74.0
131,30.756990479166667,31.83269289375,45.0,87.0
132,31.602059479166666,32.0281151,57.0,87.0
133,31.602059479166666,32.0809319125,60.0,89.0
134,31.602059479166666,32.112622,64.0,91.0
135,32.02459397916667,32.32212868958333,52.0,85.0
136,32.235861229166666,32.387269425,57.0,81.0
137,32.658395729166664,32.771071595833334,63.0,74.0
138,32.658395729166664,32.78515607916667,59.0,86.0
139,32.658395729166664,32.78515607916667,66.0,78.0
140,32.447128479166665,32.8414940125,47.0,88.0
141,33.08093022916667,33.20240889791667,59.0,76.0
142,33.29219747916667,33.690084133333336,54.0,89.0
143,33.29219747916667,33.7076897375,63.0,80.0
144,33.29219747916667,33.72353478125,59.0,79.0
145,33.714731979166665,33.788675516666665,51.0,87.0
146,33.29219747916667,33.84149232916667,66.0,77.0
147,33.92599922916666,34.01930893125,59.0,86.0
148,34.13726647916667,34.4682518375,59.0,86.0
149,34.13726647916667,34.499941925,64.0,88.0
150,34.13726647916667,34.53339257291667,40.0,88.0
151,34.982335479166665,35.12494087291667,50.0,91.0
152,34.982335479166665,35.23585617916667,66.0,86.0
153,34.982335479166665,35.30099691458333,62.0,87.0
154,35.82740447916667,36.03691116875,36.0,86.0
155,35.82740447916667,36.188319364583336,55.0,86.0
156,35.82740447916667,36.315079714583334,60.0,85.0
157,36.46120622916666,36.55099481041667,55.0,80.0
158,36.67247347916667,36.95768426666667,55.0,87.0
159,36.67247347916667,37.17071207708333,60.0,90.0
160,36.67247347916667,37.20944440625,48.0,87.0
161,36.67247347916667,37.21120496666666,64.0,90.0
162,37.09500797916667,37.2781062625,55.0,73.0
163,37.517542479166664,38.175992074999996,55.0,88.0
164,37.517542479166664,38.19887936041667,60.0,86.0
165,37.517542479166664,38.59676601458333,48.0,97.0
166,38.36261147916667,39.08444125,55.0,90.0
167,38.36261147916667,39.093244052083335,64.0,88.0
168,38.36261147916667,39.10732853541666,60.0,93.0
169,39.20768047916667,39.79746821875,57.0,82.0
170,39.20768047916667,39.867890635416664,60.0,84.0
171,39.841482229166665,40.07915788541666,52.0,85.0
172,40.052749479166664,40.50521350625,57.0,88.0
173,40.052749479166664,40.52457967083333,64.0,92.0
174,39.20768047916667,40.54042471458333,45.0,88.0
175,40.052749479166664,40.54042471458333,60.0,97.0
176,40.47528397916667,40.58619928541667,52.0,87.0
177,40.897818479166666,41.2710572875,54.0,86.0
178,40.897818479166666,41.37140923125,57.0,87.0
179,41.53162022916667,41.653098897916664,54.0,76.0
180,40.897818479166666,41.79218317083333,42.0,88.0
181,41.74288747916667,42.08795732083333,57.0,89.0
182,41.74288747916667,42.09323900208333,54.0,87.0
183,41.74288747916667,42.2006331875,64.0,90.0
184,42.165421979166666,42.24464719791666,42.0,88.0
185,42.587956479166664,42.85380110208333,59.0,88.0
186,42.587956479166664,42.86260390416667,66.0,86.0
187,42.587956479166664,42.99992761666667,63.0,86.0
188,43.01049097916667,43.2569694375,51.0,84.0
189,42.587956479166664,43.265772239583335,47.0,90.0
190,43.22175822916667,43.33267353541667,59.0,95.0
191,43.433025479166666,43.97175696666667,59.0,89.0
192,44.06682722916667,44.1442918875,59.0,87.0
193,43.433025479166666,44.14781300833333,71.0,93.0
194,43.855559979166664,44.18302421666667,54.0,87.0
195,43.433025479166666,44.190066458333334,66.0,87.0
196,43.433025479166666,44.21295374375,63.0,90.0
197,44.27809447916667,44.78689643958333,59.0,88.0
198,44.27809447916667,44.809783725,64.0,88.0
199,44.911896229166665,44.977036964583334,59.0,82.0
200,44.700628979166666,45.23936046666667,47.0,87.0
201,44.27809447916667,45.24816326875,40.0,91.0
202,45.123163479166664,45.39781090416667,59.0,88.0
203,45.123163479166664,45.58619086875,64.0,93.0
204,45.123163479166664,45.612599275,67.0,86.0
205,45.54569797916667,45.66717664791667,59.0,89.0
206,45.968232479166666,46.4471049125,63.0,85.0
207,45.968232479166666,46.46471051666666,66.0,88.0
208,45.968232479166666,46.549217416666664,47.0,87.0
209,46.60203422916667,46.68478056875,59.0,87.0
210,46.81330147916667,47.03513209166667,59.0,88.0
211,46.81330147916667,47.126681233333336,51.0,93.0
212,46.81330147916667,47.2921739125,63.0,87.0
213,46.81330147916667,47.2921739125,66.0,86.0
214,47.235835979166666,47.34146960416667,59.0,97.0
215,47.65837047916666,47.86787716875,55.0,81.0
216,47.65837047916666,48.12667955,60.0,87.0
217,48.08090497916667,48.232313175,55.0,87.0
218,47.65837047916666,48.60027030208333,48.0,88.0
219,48.503439479166666,48.93301622083333,55.0,92.0
220,48.503439479166666,48.97879079166667,64.0,97.0
221,48.503439479166666,49.00519919791667,60.0,95.0
222,48.92597397916666,49.16717075625,48.0,93.0
223,49.13724122916667,49.20238196458333,55.0,86.0
224,49.34850847916667,49.55449404791667,55.0,85.0
225,49.34850847916667,49.55449404791667,59.0,88.0
226,49.55977572916667,49.74639513333333,59.0,88.0
227,49.55977572916667,49.74815569375,55.0,84.0
228,49.55977572916667,49.762240177083335,62.0,88.0
229,49.771042979166666,50.316816708333334,50.0,92.0
230,49.34850847916667,50.388999685416664,43.0,87.0
231,50.19357747916666,50.57209796875,55.0,92.0
232,50.19357747916666,50.64252038541667,59.0,102.0
233,50.19357747916666,50.66716823125,62.0,90.0
234,50.61611197916667,50.78336521875,50.0,90.0
235,51.038646479166665,51.494631627083336,57.0,83.0
236,51.038646479166665,51.558011802083335,60.0,87.0
237,51.67244822916667,51.767518491666664,57.0,79.0
238,51.46118097916666,51.99463078541667,52.0,74.0
239,51.038646479166665,52.08265880625,45.0,87.0
240,51.88371547916667,52.330897825,57.0,87.0
241,51.88371547916667,52.35554567083333,64.0,91.0
242,51.88371547916667,52.37667239583333,60.0,90.0
243,52.306249979166665,52.58793964583333,52.0,90.0
244,52.517517229166664,52.59674244791667,57.0,86.0
245,52.72878447916666,53.21117803333333,59.0,95.0
246,52.72878447916666,53.218220275,55.0,88.0
247,53.15131897916667,53.48758601875,50.0,83.0
248,52.72878447916666,53.556247875,43.0,88.0
249,53.785120729166664,53.94885284791667,50.0,88.0
250,53.573853479166665,53.96469789166667,55.0,93.0
251,53.573853479166665,54.07561319791667,59.0,100.0
252,53.573853479166665,54.08617656041667,62.0,92.0
253,53.99638797916666,54.25695092083333,55.0,91.0
254,54.20765522916667,54.313288854166665,59.0,88.0
255,54.41892247916667,54.91363995625,57.0,83.0
256,54.41892247916667,54.952372285416665,60.0,88.0
257,55.052724229166664,55.14075225,57.0,75.0
258,54.841456979166665,55.37666734583333,52.0,86.0
259,54.41892247916667,55.396033510416665,45.0,89.0
260,55.26399147916667,55.602019079166666,57.0,87.0
261,55.26399147916667,55.61258244166667,60.0,89.0
262,55.26399147916667,55.646033089583334,64.0,91.0
263,55.68652597916667,55.802722966666664,45.0,89.0
264,56.109060479166665,56.37314454166667,66.0,83.0
265,56.109060479166665,56.53159497916667,59.0,87.0
266,56.109060479166665,56.565045627083336,63.0,86.0
267,56.74286222916667,56.83793249166666,59.0,88.0
268,56.53159497916667,57.054481422916666,54.0,71.0
269,56.95412947916667,57.27279091458333,59.0,87.0
270,56.95412947916667,57.39250902291666,71.0,88.0
271,56.95412947916667,57.4752553625,63.0,91.0
272,56.95412947916667,57.489339845833335,66.0,87.0
273,57.165396729166666,57.69884653541666,54.0,91.0
274,57.376663979166665,57.75166334791667,59.0,100.0
275,56.109060479166665,57.76398727083333,47.0,90.0
276,57.79919847916667,58.14426832083333,59.0,85.0
277,57.79919847916667,58.23229634166667,67.0,84.0
278,57.79919847916667,58.24109914375,64.0,87.0
279,58.433000229166666,58.52807049166667,59.0,89.0
280,57.79919847916667,58.59145066666667,40.0,88.0
281,58.644267479166665,59.126661033333335,64.0,93.0
282,58.644267479166665,59.146027197916666,67.0,88.0
283,58.644267479166665,59.153069439583334,59.0,90.0
284,59.06680197916667,59.27806922916667,40.0,89.0
285,59.48933647916667,59.58616730208333,59.0,80.0
286,59.48933647916667,60.00165956041667,63.0,85.0
287,59.48933647916667,60.024546845833335,66.0,86.0
288,60.12313822916666,60.19532120625,59.0,87.0
289,59.48933647916667,60.450602466666666,39.0,88.0
290,60.33440547916667,60.56503889375,59.0,91.0
291,60.33440547916667,60.735813254166665,63.0,95.0
292,60.33440547916667,60.78686950625,66.0,86.0
293,60.75693997916667,60.90658761458333,59.0,86.0
294,61.179474479166664,61.524544320833336,55.0,87.0
295,61.179474479166664,61.70412148333333,60.0,87.0
296,61.179474479166664,61.83616351458333,36.0,84.0
297,61.81327622916667,61.881938085416664,55.0,82.0
298,62.02454347916667,62.459401902083336,55.0,93.0
299,62.02454347916667,62.52806375833333,60.0,97.0
300,62.02454347916667,62.533345439583336,64.0,91.0
301,62.447077979166664,62.742852129166664,48.0,88.0
302,62.65834522916666,62.75869717291667,55.0,87.0
303,63.08087972916667,63.260456891666664,55.0,87.0
304,63.08087972916667,63.26573857291667,59.0,92.0
305,63.08087972916667,63.27630193541667,62.0,86.0
306,62.86961247916667,63.71116035833333,43.0,88.0
307,63.29214697916667,63.7921461375,50.0,88.0
308,63.714681479166664,64.06327244166667,55.0,87.0
309,63.714681479166664,64.08087804583333,59.0,89.0
310,63.714681479166664,64.13545541875,62.0,89.0
311,64.13721597916667,64.34848322916666,43.0,88.0
312,64.55975047916667,64.95235545208334,60.0,84.0
313,64.55975047916667,64.95939769375,57.0,82.0
314,65.19355222916667,65.27453800833334,57.0,84.0
315,64.98228497916666,65.53157982916666,52.0,83.0
316,64.55975047916667,65.63193177291667,45.0,88.0
317,65.40481947916666,65.85904406666667,57.0,81.0
318,65.40481947916666,65.87136798958333,69.0,88.0
319,65.40481947916666,65.88193135208333,60.0,90.0
320,65.40481947916666,65.9048186375,64.0,93.0
321,65.82735397916666,66.08967748124999,52.0,87.0
322,66.03862122916667,66.13017037083333,57.0,88.0
323,66.46115572916666,66.64601457291667,55.0,87.0
324,66.46115572916666,66.64953569375,59.0,86.0
325,66.67242297916667,67.20587278541666,50.0,90.0
326,66.24988847916667,67.22523895,43.0,90.0
327,67.09495747916667,67.48404133125,55.0,92.0
328,67.09495747916667,67.51925253958333,59.0,97.0
329,67.09495747916667,67.53509758333334,62.0,93.0
330,67.72875922916667,67.79213940416666,55.0,78.0
331,67.51749197916666,67.87664630416667,50.0,87.0
332,67.94002647916666,68.37312434166667,57.0,83.0
333,67.94002647916666,68.42418059375,60.0,84.0
334,68.57382822916666,68.64777176666666,57.0,79.0
335,68.36256097916666,68.91537695,52.0,75.0
336,67.94002647916666,68.96643320208334,45.0,89.0
337,68.78509547916667,69.08086962916667,60.0,95.0
338,68.78509547916667,69.08439075,57.0,88.0
339,68.78509547916667,69.11960195833333,64.0,89.0
340,69.20762997916667,69.3273480875,45.0,88.0
341,69.63016447916667,70.00868496875,66.0,80.0
342,69.63016447916667,70.10023411041666,59.0,86.0
343,69.63016447916667,70.10199467083334,63.0,79.0
344,70.26396622916667,70.35375481041666,59.0,87.0
345,70.05269897916666,70.57030374166666,54.0,63.0
346,69.63016447916667,70.69178241041666,47.0,88.0
347,70.47523347916666,70.74812034375,66.0,88.0
348,70.47523347916666,70.76044426666667,63.0,91.0
349,70.47523347916666,70.77804987083333,59.0,86.0
350,70.47523347916666,70.82558500208333,71.0,88.0
351,71.10903522916666,71.27452790833333,52.0,79.0
352,71.32030247916667,71.45410507083334,55.0,82.0
353,71.32030247916667,71.46818955416667,59.0,76.0
354,71.32030247916667,71.58966822291667,64.0,88.0
355,71.32030247916667,72.27628678541667,40.0,88.0
356,72.16537147916667,72.32206135625,59.0,87.0
357,72.16537147916667,72.32206135625,64.0,88.0
358,72.79917322916667,73.61959438333334,59.0,71.0
359,73.01044047916666,73.66008727291667,64.0,81.0
360,73.01044047916666,73.67769287708333,67.0,80.0
361,73.85550947916667,73.93649525833334,64.0,89.0
362,73.85550947916667,73.94001637916666,67.0,85.0
363,73.85550947916667,73.95586142291667,59.0,88.0
364,73.43297497916667,73.98403038958334,47.0,65.0
365,73.01044047916666,74.049171125,40.0,79.0
366,74.70057847916667,74.77980369791666,38.0,87.0
367,74.70057847916667,75.66712614791666,62.0,81.0
368,74.70057847916667,75.71994296041666,66.0,80.0
369,75.54564747916666,76.43649105,57.0,87.0
370,75.12311297916666,76.4787445,50.0,78.0
371,76.39071647916667,76.83437770416667,69.0,80.0
372,76.39071647916667,76.85022274791666,62.0,77.0
373,76.39071647916667,76.85726498958333,66.0,78.0
374,76.81325097916667,76.92416628541666,57.0,54.0
375,77.02451822916666,77.091419525,62.0,79.0
376,77.23578547916667,77.55268635416667,66.0,87.0
377,77.23578547916667,77.57557363958334,62.0,87.0
378,77.65831997916666,77.7357846375,57.0,79.0
379,78.08085447916666,78.17768530208333,36.0,85.0
380,78.08085447916666,78.96641636875,60.0,79.0
381,78.08085447916666,79.07557111458333,64.0,82.0
382,79.13719072916666,79.33613405625,60.0,82.0
383,78.92592347916667,79.70585174375,55.0,80.0
384,79.77099247916667,80.30092116458333,64.0,84.0
385,79.77099247916667,80.32204788958333,60.0,82.0
386,79.77099247916667,80.33085069166667,67.0,82.0
387,80.19352697916666,80.67768109375,55.0,69.0
388,80.61606147916666,80.71289230208333,64.0,83.0
389,80.61606147916666,80.73930070833333,60.0,77.0
390,81.46113047916667,81.93824235208334,59.0,61.0
391,81.46113047916667,81.99105916458333,64.0,74.0
392,82.30619947916666,82.50866392708333,59.0,87.0
393,81.88366497916667,82.60021306875,47.0,85.0
394,81.46113047916667,82.65655100208333,40.0,87.0
395,82.30619947916666,82.67591716666666,64.0,91.0
396,83.15126847916666,83.7357745375,63.0,79.0
397,83.15126847916666,83.73929565833333,59.0,82.0
398,83.15126847916666,83.75866182291666,66.0,77.0
399,83.57380297916667,83.98577411666666,54.0,69.0
400,83.15126847916666,84.05443597291666,47.0,87.0
401,83.99633747916667,84.14950623541667,63.0,78.0
402,83.99633747916667,84.15478791666666,66.0,81.0
403,83.99633747916667,84.21112585,59.0,85.0
404,84.41887197916667,84.79915302916666,38.0,88.0
405,84.84140647916666,85.31499723125,55.0,83.0
406,84.84140647916666,85.33964507708333,52.0,82.0
407,85.26394097916666,85.74809509375,47.0,64.0
408,84.84140647916666,85.80795414791666,40.0,91.0
409,85.68647547916666,86.13717894583333,55.0,86.0
410,85.68647547916666,86.15654511041667,52.0,87.0
411,85.68647547916666,86.16886903333334,59.0,87.0
412,86.32027722916666,86.49105158958334,55.0,81.0
413,86.32027722916666,86.51041775416667,52.0,84.0
414,86.74281172916666,86.89245936458333,50.0,80.0
415,86.74281172916666,86.91710721041666,57.0,77.0
416,86.95407897916667,87.45759925833333,45.0,73.0
417,86.53154447916667,87.50689495,38.0,88.0
418,87.37661347916666,87.60900745416667,50.0,85.0
419,87.37661347916666,87.63013417916666,54.0,85.0
420,87.37661347916666,87.65830314583333,57.0,79.0
421,87.37661347916666,87.70407771666666,62.0,83.0
422,88.22168247916666,88.50513270625,55.0,80.0
423,88.22168247916666,88.68470986875,60.0,80.0
424,88.64421697916667,88.79034349375,55.0,80.0
425,88.22168247916666,89.19879351041666,48.0,86.0
426,89.06675147916667,89.26569480625,55.0,88.0
427,89.06675147916667,89.30618769583333,60.0,88.0
428,89.06675147916667,89.31499049791667,64.0,87.0
429,89.91182047916666,90.02273578541667,55.0,82.0
430,90.12308772916667,90.38365067083333,59.0,89.0
431,90.12308772916667,90.41534075833333,63.0,84.0
432,89.91182047916666,90.84139637916667,47.0,87.0
433,90.33435497916666,90.85724142291667,51.0,85.0
434,90.75688947916666,91.20231126458333,59.0,91.0
435,90.75688947916666,91.21287462708334,63.0,91.0
436,90.75688947916666,91.288578725,66.0,86.0
437,91.17942397916667,91.29033928541666,54.0,81.0
438,91.39069122916666,91.4892826125,59.0,87.0
439,91.60195847916667,92.11428156041667,64.0,87.0
440,91.60195847916667,92.11956324166667,59.0,82.0
441,92.23576022916667,92.35019665625,59.0,83.0
442,92.02449297916667,92.61956239999999,47.0,74.0
443,92.44702747916666,92.66533697083334,64.0,91.0
444,92.44702747916666,92.66885809166666,67.0,87.0
445,92.44702747916666,92.68470313541667,59.0,87.0
446,91.60195847916667,92.69174537708334,40.0,88.0
447,93.50336372916667,93.6864620125,62.0,84.0
448,93.50336372916667,93.71991266041667,66.0,80.0
449,93.71463097916667,94.26568638958334,45.0,87.0
450,93.29209647916666,94.28153143333333,38.0,91.0
451,94.13716547916667,94.38892561875,57.0,86.0
452,94.13716547916667,94.59667174791666,62.0,88.0
453,94.13716547916667,94.61427735208333,66.0,87.0
454,94.55969997916667,94.67237584583333,38.0,91.0
455,94.55969997916667,94.69350257083333,57.0,88.0
456,94.98223447916666,95.24807910208334,55.0,80.0
457,94.98223447916666,95.48047307708333,60.0,81.0
458,95.61603622916667,95.69526144791666,55.0,76.0
459,94.98223447916666,96.02448624583333,48.0,87.0
460,95.82730347916666,96.18293668333334,55.0,95.0
461,95.82730347916666,96.22519013333333,60.0,91.0
462,95.82730347916666,96.22519013333333,64.0,92.0
463,96.24983797916667,96.37659832916667,48.0,86.0
464,96.88363972916666,97.02096344166667,59.0,86.0
465,96.88363972916666,97.03328736458333,63.0,76.0
466,96.88363972916666,97.05793521041667,66.0,79.0
467,96.67237247916667,97.13539986875,47.0,88.0
468,97.09490697916667,97.46110354583334,51.0,88.0
469,97.51744147916666,97.79737058541667,54.0,91.0
470,97.72870872916667,97.89244084791666,66.0,75.0
471,97.72870872916667,97.89596196875,63.0,79.0
472,97.72870872916667,97.91356757291666,59.0,87.0
473,97.93997597916666,98.05617296666667,51.0,87.0
474,98.36251047916667,98.89067860416667,57.0,81.0
475,98.36251047916667,98.91708701041667,60.0,87.0
476,98.99631222916666,99.09666417291666,57.0,76.0
477,98.78504497916667,99.31497366458333,52.0,74.0
478,98.36251047916667,99.43821289375,45.0,87.0
479,99.20757947916667,99.63363509999999,57.0,87.0
480,99.20757947916667,99.6864519125,60.0,89.0
481,99.20757947916667,99.718142,64.0,91.0
482,99.63011397916667,99.92764868958334,52.0,85.0
483,99.84138122916667,99.992789425,57.0,81.0
484,100.26391572916667,100.37659159583333,63.0,74.0
485,100.26391572916667,100.39067607916667,59.0,86.0
486,100.26391572916667,100.39067607916667,66.0,78.0
487,100.05264847916666,100.4470140125,47.0,88.0
488,100.68645022916667,100.80792889791667,59.0,76.0
489,100.89771747916667,101.29560413333333,54.0,89.0
490,100.89771747916667,101.3132097375,63.0,80.0
491,100.89771747916667,101.32905478125,59.0,79.0
492,101.32025197916667,101.39419551666667,51.0,87.0
493,100.89771747916667,101.44701232916667,66.0,77.0
494,101.53151922916666,101.62482893125,59.0,86.0
495,101.74278647916667,102.0737718375,59.0,86.0
496,101.74278647916667,102.105461925,64.0,88.0
497,101.74278647916667,102.13891257291667,40.0,88.0
498,102.58785547916666,102.73046087291667,50.0,91.0
499,102.58785547916666,102.84137617916667,66.0,86.0
500,102.58785547916666,102.90651691458334,62.0,87.0
501,103.43292447916667,103.64243116875,36.0,86.0
502,103.43292447916667,103.79383936458333,55.0,86.0
503,103.43292447916667,103.92059971458333,60.0,85.0
504,104.06672622916666,104.15651481041667,55.0,80.0
505,104.27799347916667,104.56320426666666,55.0,87.0
506,104.27799347916667,104.77623207708334,60.0,90.0
507,104.27799347916667,104.81496440625,48.0,87.0
508,104.27799347916667,104.81672496666667,64.0,90.0
509,104.70052797916667,104.8836262625,55.0,73.0
510,105.12306247916666,105.781512075,55.0,88.0
511,105.12306247916666,105.80439936041667,60.0,86.0
512,105.12306247916666,106.20228601458334,48.0,97.0
513,105.96813147916667,106.68996125,55.0,90.0
514,105.96813147916667,106.69876405208333,64.0,88.0
515,105.96813147916667,106.71284853541667,60.0,93.0
516,106.81320047916667,107.40298821875,57.0,82.0
517,106.81320047916667,107.47341063541667,60.0,84.0
518,107.44700222916667,107.68467788541666,52.0,85.0
519,107.65826947916666,108.11073350625,57.0,88.0
520,107.65826947916666,108.13009967083333,64.0,92.0
521,106.81320047916667,108.14594471458334,45.0,88.0
522,107.65826947916666,108.14594471458334,60.0,97.0
523,108.08080397916666,108.19171928541667,52.0,87.0
524,108.50333847916667,108.8765772875,54.0,86.0
525,108.50333847916667,108.97692923125,57.0,87.0
526,109.13714022916666,109.25861889791666,54.0,76.0
527,108.50333847916667,109.39770317083334,42.0,88.0
528,109.34840747916667,109.69347732083334,57.0,89.0
529,109.34840747916667,109.69875900208334,54.0,87.0
530,109.34840747916667,109.8061531875,64.0,90.0
531,109.77094197916666,109.85016719791666,42.0,88.0
532,110.19347647916666,110.36249027916666,55.0,83.0
533,110.19347647916666,110.67410947291667,60.0,84.0
534,110.61601097916666,110.81143318541666,55.0,86.0
535,111.03854547916667,111.14946078541666,55.0,88.0
536,111.03854547916667,111.29206617916667,60.0,91.0
537,111.24981272916666,111.71988236041666,55.0,89.0
538,110.19347647916666,111.78326253541667,36.0,87.0
539,111.03854547916667,111.81143150208334,67.0,87.0
540,111.46107997916667,111.823755425,60.0,86.0
541,111.88361447916667,112.39241643958333,60.0,88.0
542,111.88361447916667,112.415303725,65.0,88.0
543,112.51741622916667,112.58255696458333,60.0,82.0
544,112.30614897916666,112.84488046666667,48.0,87.0
545,111.88361447916667,112.85368326875,41.0,91.0
546,112.72868347916666,113.00333090416666,60.0,88.0
547,112.72868347916666,113.19171086875,65.0,93.0
548,112.72868347916666,113.21811927499999,68.0,86.0
549,113.15121797916666,113.27269664791666,60.0,89.0
550,113.57375247916667,114.0526249125,64.0,85.0
551,113.57375247916667,114.07023051666667,67.0,88.0
552,113.57375247916667,114.15473741666666,48.0,87.0
553,114.20755422916666,114.29030056875,60.0,87.0
554,114.41882147916667,114.64065209166667,60.0,88.0
555,114.41882147916667,114.73220123333333,52.0,93.0
556,114.41882147916667,114.8976939125,64.0,87.0
557,114.41882147916667,114.8976939125,67.0,86.0
558,114.84135597916666,114.94698960416666,60.0,97.0
559,115.26389047916666,115.47339716875,56.0,81.0
560,115.26389047916666,115.73219955,61.0,87.0
561,115.68642497916666,115.837833175,56.0,87.0
562,115.26389047916666,116.20579030208333,49.0,88.0
563,116.10895947916667,116.53853622083334,56.0,92.0
564,116.10895947916667,116.58431079166667,65.0,97.0
565,116.10895947916667,116.61071919791667,61.0,95.0
566,116.53149397916667,116.77269075625,49.0,93.0
567,116.74276122916666,116.80790196458334,56.0,86.0
568,116.95402847916667,117.16001404791666,56.0,85.0
569,116.95402847916667,117.16001404791666,60.0,88.0
570,117.16529572916667,117.35191513333334,60.0,88.0
571,117.16529572916667,117.35367569375,56.0,84.0
572,117.16529572916667,117.36776017708333,63.0,88.0
573,117.37656297916666,117.92233670833333,51.0,92.0
574,116.95402847916667,117.99451968541666,44.0,87.0
575,117.79909747916666,118.17761796875,56.0,92.0
576,117.79909747916666,118.24804038541667,60.0,102.0
577,117.79909747916666,118.27268823125,63.0,90.0
578,118.22163197916666,118.38888521875,51.0,90.0
579,118.64416647916667,119.10015162708333,58.0,83.0
580,118.64416647916667,119.16353180208333,61.0,87.0
581,119.27796822916666,119.37303849166666,58.0,79.0
582,119.06670097916667,119.60015078541666,53.0,74.0
583,118.64416647916667,119.68817880625,46.0,87.0
584,119.48923547916667,119.93641782499999,58.0,87.0
585,119.48923547916667,119.96106567083334,65.0,91.0
586,119.48923547916667,119.98219239583334,61.0,90.0
587,119.91176997916666,120.19345964583333,53.0,90.0
588,120.12303722916667,120.20226244791667,58.0,86.0
589,120.33430447916666,120.81669803333334,60.0,95.0
590,120.33430447916666,120.823740275,56.0,88.0
591,120.75683897916666,121.09310601874999,51.0,83.0
592,120.33430447916666,121.161767875,44.0,88.0
593,121.39064072916666,121.55437284791667,51.0,88.0
594,121.17937347916667,121.57021789166667,56.0,93.0
595,121.17937347916667,121.68113319791667,60.0,100.0
596,121.17937347916667,121.69169656041666,63.0,92.0
597,121.60190797916667,121.86247092083333,56.0,91.0
598,121.81317522916666,121.91880885416667,60.0,88.0
599,122.02444247916667,122.51915995625,58.0,83.0
600,122.02444247916667,122.55789228541667,61.0,88.0
601,122.65824422916667,122.74627225,58.0,75.0
602,122.44697697916666,122.98218734583334,53.0,86.0
603,122.02444247916667,123.00155351041667,46.0,89.0
604,122.86951147916666,123.20753907916666,58.0,87.0
605,122.86951147916666,123.21810244166666,61.0,89.0
606,122.86951147916666,123.25155308958334,65.0,91.0
607,123.29204597916666,123.40824296666666,46.0,89.0
608,123.71458047916667,123.97866454166666,67.0,83.0
609,123.71458047916667,124.13711497916667,60.0,87.0
610,123.71458047916667,124.17056562708333,64.0,86.0
611,124.34838222916666,124.44345249166666,60.0,88.0
612,124.13711497916667,124.66000142291666,55.0,71.0
613,124.55964947916667,124.87831091458334,60.0,87.0
614,124.55964947916667,124.99802902291667,72.0,88.0
615,124.55964947916667,125.0807753625,64.0,91.0
616,124.55964947916667,125.09485984583333,67.0,87.0
617,124.77091672916667,125.30436653541666,55.0,91.0
618,124.98218397916666,125.35718334791666,60.0,100.0
619,123.71458047916667,125.36950727083334,48.0,90.0
620,125.40471847916666,125.74978832083333,60.0,85.0
621,125.40471847916666,125.83781634166667,68.0,84.0
622,125.40471847916666,125.84661914375,65.0,87.0
623,126.03852022916666,126.13359049166667,60.0,89.0
624,125.40471847916666,126.19697066666667,41.0,88.0
625,126.24978747916667,126.73218103333333,65.0,93.0
626,126.24978747916667,126.75154719791666,68.0,88.0
627,126.24978747916667,126.75858943958333,60.0,90.0
628,126.67232197916667,126.88358922916666,41.0,89.0
629,127.09485647916667,127.19168730208334,60.0,80.0
630,127.09485647916667,127.60717956041667,64.0,85.0
631,127.09485647916667,127.63006684583333,67.0,86.0
632,127.72865822916667,127.80084120625,60.0,87.0
633,127.09485647916667,128.05612246666666,40.0,88.0
634,127.93992547916666,128.17055889375,60.0,91.0
635,127.93992547916666,128.34133325416667,64.0,95.0
636,127.93992547916666,128.39238950625,67.0,86.0
637,128.36245997916666,128.51210761458333,60.0,86.0
638,128.78499447916667,129.13006432083333,56.0,87.0
639,128.78499447916667,129.30964148333334,61.0,87.0
640,128.78499447916667,129.44168351458333,37.0,84.0
641,129.41879622916667,129.48745808541668,56.0,82.0
642,129.63006347916667,130.06492190208334,56.0,93.0
643,129.63006347916667,130.13358375833334,61.0,97.0
644,129.63006347916667,130.13886543958333,65.0,91.0
645,130.05259797916668,130.34837212916668,49.0,88.0
646,130.26386522916667,130.36421717291665,56.0,87.0
647,130.68639972916665,130.86597689166666,56.0,87.0
648,130.68639972916665,130.87125857291667,60.0,92.0
649,130.68639972916665,130.88182193541667,63.0,86.0
650,130.47513247916666,131.31668035833334,44.0,88.0
651,130.89766697916667,131.3976661375,51.0,88.0
652,131.32020147916666,131.66879244166665,56.0,87.0
653,131.32020147916666,131.68639804583333,60.0,89.0
654,131.32020147916666,131.74097541875,63.0,89.0
655,131.74273597916667,131.95400322916666,44.0,88.0
656,132.16527047916668,132.55787545208332,61.0,84.0
657,132.16527047916668,132.56491769375,58.0,82.0
658,132.79907222916665,132.88005800833332,58.0,84.0
659,132.58780497916666,133.13709982916666,53.0,83.0
660,132.16527047916668,133.23745177291667,46.0,88.0
661,133.01033947916667,133.46456406666667,58.0,81.0
662,133.01033947916667,133.47688798958333,70.0,88.0
663,133.01033947916667,133.48745135208333,61.0,90.0
664,133.01033947916667,133.5103386375,65.0,93.0
665,133.43287397916666,133.69519748125,53.0,87.0
666,133.64414122916668,133.73569037083334,58.0,88.0
667,134.06667572916666,134.25153457291665,56.0,87.0
668,134.06667572916666,134.25505569375,60.0,86.0
669,134.27794297916665,134.81139278541667,51.0,90.0
670,133.85540847916667,134.83075895,44.0,90.0
671,134.70047747916666,135.08956133125,56.0,92.0
672,134.70047747916666,135.12477253958332,60.0,97.0
673,134.70047747916666,135.14061758333332,63.0,93.0
674,135.33427922916667,135.39765940416666,56.0,78.0
675,135.12301197916668,135.48216630416667,51.0,87.0
676,135.54554647916666,135.97864434166667,58.0,83.0
677,135.54554647916666,136.02970059375,61.0,84.0
678,136.17934822916666,136.25329176666668,58.0,79.0
679,135.96808097916667,136.52089695,53.0,75.0
680,135.54554647916666,136.57195320208334,46.0,89.0
681,136.39061547916666,136.68638962916665,61.0,95.0
682,136.39061547916666,136.68991075,58.0,88.0
683,136.39061547916666,136.72512195833332,65.0,89.0
684,136.81314997916667,136.9328680875,46.0,88.0
685,137.23568447916668,137.68638794583333,60.0,85.0
686,137.23568447916668,137.68990906666667,56.0,82.0
687,137.23568447916668,137.74800756041665,44.0,92.0
688,137.65821897916666,137.80082437291668,51.0,84.0
689,137.23568447916668,137.84659894375,63.0,80.0
690,138.08075347916667,138.46983733125,55.0,92.0
691,138.08075347916667,138.59659768125,60.0,88.0
692,138.71455522916668,138.8554000625,55.0,93.0
693,138.71455522916668,138.86420286458332,60.0,86.0
694,138.08075347916667,138.865963425,36.0,88.0
695,138.50328797916666,138.87124510625,43.0,90.0
696,138.92582247916667,139.40117379166668,54.0,82.0
697,138.92582247916667,139.4680750875,58.0,76.0
698,139.55962422916667,139.63884944791667,54.0,77.0
699,139.34835697916665,139.922299675,49.0,69.0
700,138.92582247916667,139.93462359791667,42.0,88.0
701,139.77089147916666,140.25856671458334,54.0,87.0
702,139.77089147916666,140.3342708125,58.0,87.0
703,140.19342597916668,140.47511564583334,42.0,81.0
704,140.40469322916667,140.54025638125,58.0,66.0
705,139.77089147916666,140.57722815,61.0,85.0
706,140.40469322916667,140.71279130208333,54.0,93.0
707,140.82722772916668,140.96279088125,54.0,91.0
708,140.82722772916668,140.9680725625,58.0,87.0
709,140.82722772916668,140.97511480416668,61.0,85.0
710,141.24976222916666,141.34483249166666,54.0,89.0
711,141.03849497916667,141.55786030208333,49.0,68.0
712,140.61596047916666,141.61067711458332,42.0,91.0
713,141.46102947916665,141.68990233333332,58.0,86.0
714,141.46102947916665,141.70574737708333,54.0,87.0
715,141.46102947916665,141.71278961875,61.0,83.0
716,141.46102947916665,141.74447970625,66.0,86.0
717,141.88356397916667,141.97335256041666,42.0,95.0
718,142.30609847916668,142.75680194583333,56.0,78.0
719,142.30609847916668,142.795534275,60.0,86.0
720,142.30609847916668,142.86771725208334,53.0,82.0
721,142.72863297916666,143.2920123125,48.0,75.0
722,143.15116747916667,143.2920123125,53.0,95.0
723,143.15116747916667,143.40996986041665,65.0,88.0
724,142.30609847916668,143.42053322291667,41.0,87.0
725,143.57370197916666,143.81841987708333,41.0,44.0
726,143.57370197916666,143.83602548125,48.0,80.0
727,143.78496922916668,144.00679984166666,60.0,88.0
728,143.78496922916668,144.04025048958334,65.0,88.0
729,143.78496922916668,144.27792614583333,68.0,86.0
730,144.20750372916666,144.42053153958332,60.0,91.0
731,144.63003822916667,144.66348887708332,65.0,67.0
732,144.63003822916667,144.68813672291665,60.0,82.0
733,144.41877097916665,145.05257272916666,48.0,87.0
734,143.99623647916667,145.14940355208333,41.0,87.0
735,144.84130547916666,145.372994725,65.0,97.0
736,144.84130547916666,145.584261975,60.0,95.0
737,145.26383997916668,145.58602253541667,41.0,88.0
738,144.84130547916666,145.67052943541665,68.0,97.0
739,145.68637447916666,146.08426113333334,55.0,85.0
740,145.68637447916666,146.21630316458334,64.0,87.0
741,145.68637447916666,146.21982428541668,60.0,85.0
742,146.32017622916666,146.39411976666668,55.0,82.0
743,145.68637447916666,146.73390792708332,40.0,87.0
744,146.53144347916665,146.74975297083333,55.0,90.0
745,146.53144347916665,146.77087969583334,60.0,93.0
746,146.53144347916665,146.78496417916668,64.0,92.0
747,146.95397797916667,147.063132725,40.0,93.0
748,147.37651247916668,147.5596107625,51.0,88.0
749,147.58777972916667,147.6863711125,51.0,89.0
750,147.37651247916668,147.70045559583332,55.0,87.0
751,147.37651247916668,147.7286245625,58.0,79.0
752,147.37651247916668,148.29376445625,39.0,100.0
753,147.79904697916666,148.30608837916665,46.0,78.0
754,148.22158147916667,148.67580606666667,51.0,91.0
755,148.22158147916667,148.74446792291667,55.0,88.0
756,148.85538322916668,148.96629853541666,51.0,91.0
757,148.22158147916667,148.97686189791668,63.0,85.0
758,148.64411597916666,148.98918582083334,46.0,87.0
759,148.22158147916667,148.99094638125,58.0,83.0
760,149.06665047916667,149.55784683541665,57.0,82.0
761,149.06665047916667,149.65819877916667,60.0,85.0
762,149.48918497916665,149.6934099875,51.0,79.0
763,149.70045222916667,149.77439576666666,57.0,84.0
764,149.06665047916667,149.7990436125,45.0,88.0
765,149.06665047916667,149.81840977708333,63.0,83.0
766,149.91171947916666,150.17580354166665,55.0,91.0
767,149.91171947916666,150.48742273541666,60.0,83.0
768,150.33425397916668,150.54200010833333,55.0,86.0
769,149.91171947916666,150.5596057125,48.0,100.0
770,150.75678847916666,151.03847814583332,57.0,82.0
771,150.75678847916666,151.08073159583333,62.0,87.0
772,151.39059022916666,151.47333656875,62.0,88.0
773,151.17932297916667,151.77791352083332,45.0,88.0
774,151.60185747916665,152.09481439583334,62.0,90.0
775,152.23565922916666,152.3342506125,62.0,88.0
776,151.60185747916665,152.34657453541666,66.0,91.0
777,151.60185747916665,152.37826462291667,69.0,89.0
778,152.02439197916667,152.3976307875,45.0,87.0
779,150.75678847916666,152.40643358958334,38.0,92.0
780,152.44692647916668,152.88706658333334,58.0,86.0
781,152.44692647916668,152.89762994583333,55.0,86.0
782,152.44692647916668,152.9046721875,62.0,87.0
783,153.08072822916665,153.16171400833332,55.0,88.0
784,152.86946097916666,153.42051638958333,50.0,82.0
785,152.44692647916668,153.45924871875,43.0,88.0
786,153.29199547916667,153.6652342875,55.0,86.0
787,153.29199547916667,153.7497411875,67.0,83.0
788,153.29199547916667,153.80960024166666,62.0,89.0
789,153.29199547916667,153.81664248333334,58.0,88.0
790,153.92579722916668,154.0032618875,58.0,51.0
791,153.71452997916666,154.00854356874999,50.0,87.0
792,153.92579722916668,154.06136038125,55.0,95.0
793,154.34833172916666,154.50502160625,54.0,87.0
794,154.34833172916666,154.52790889166667,57.0,84.0
795,154.77086622916667,154.9011477,54.0,88.0
796,154.13706447916667,155.07896430208334,42.0,91.0
797,154.98213347916666,155.41347078125,54.0,86.0
798,155.40466797916667,155.54023113125,50.0,87.0
799,154.98213347916666,155.62649859166666,57.0,87.0
800,155.61593522916667,155.7462167,54.0,89.0
801,154.98213347916666,155.85713200625,62.0,88.0
802,155.82720247916666,156.61769410624998,39.0,95.0
803,156.46100422916666,156.7074826875,51.0,87.0
804,156.46100422916666,156.71980661041667,58.0,83.0
805,156.46100422916666,156.72508829166668,55.0,87.0
806,156.46100422916666,156.82191911458332,63.0,79.0
807,156.67227147916665,157.01734132083334,46.0,88.0
808,157.09480597916667,157.4257913375,51.0,97.0
809,157.30607322916666,157.43283357916667,55.0,86.0
810,157.72860772916667,157.84480471666666,53.0,85.0
811,157.72860772916667,157.85008639791667,58.0,87.0
812,158.15114222916665,158.24093081041667,53.0,78.0
813,157.51734047916668,158.513817675,46.0,97.0
814,158.36240947916667,158.77262005625,53.0,88.0
815,158.36240947916667,158.83776079166665,62.0,90.0
816,158.36240947916667,158.83952135208332,58.0,93.0
817,158.78494397916666,158.90114096666667,46.0,97.0
818,159.20747847916667,159.40642180625,36.0,88.0
819,159.20747847916667,159.45219637708334,55.0,86.0
820,159.20747847916667,159.696914275,60.0,81.0
821,159.63001297916668,159.81135070208333,55.0,87.0
822,160.05254747916666,160.24973024583332,48.0,95.0
823,160.05254747916666,160.29198369583332,55.0,91.0
824,160.05254747916666,160.52261711041666,60.0,100.0
825,160.05254747916666,160.58951840625,63.0,91.0
826,160.47508197916667,160.60712401041667,55.0,87.0
827,160.68634922916667,160.83423630416667,60.0,83.0
828,160.68634922916667,160.86768695208335,55.0,77.0
829,161.10888372916668,161.24092576041667,55.0,83.0
830,161.10888372916668,161.25324968333334,58.0,86.0
831,160.89761647916666,161.2708552875,43.0,89.0
832,161.10888372916668,161.27613696875,62.0,88.0
833,161.53141822916666,161.62296737083332,55.0,86.0
834,161.74268547916665,162.18810726458332,55.0,87.0
835,161.74268547916665,162.189867825,67.0,82.0
836,161.74268547916665,162.22683959375,58.0,88.0
837,161.74268547916665,162.25852968125,62.0,86.0
838,162.37648722916666,162.45043076666667,55.0,86.0
839,162.16521997916666,162.4539518875,50.0,91.0
840,162.58775447916668,162.83599349791666,57.0,90.0
841,162.58775447916668,162.97331721041667,60.0,88.0
842,163.01028897916666,163.31310537083334,57.0,86.0
843,162.58775447916668,163.56134438958333,45.0,92.0
844,163.43282347916667,163.82014677083333,57.0,88.0
845,163.85535797916666,164.06486466875,45.0,88.0
846,163.43282347916667,164.133526525,67.0,86.0
847,164.06662522916668,164.19866726041667,57.0,89.0
848,163.43282347916667,164.19866726041667,63.0,87.0
849,163.43282347916667,164.21099118333333,60.0,90.0
850,164.27789247916667,164.6194412,38.0,93.0
851,164.48915972916666,164.6511312875,50.0,91.0
852,164.48915972916666,164.66345521041666,54.0,88.0
853,164.48915972916666,164.70922978125,57.0,88.0
854,164.91169422916667,165.02260953541668,50.0,91.0
855,165.12296147916666,165.32366536666666,45.0,81.0
856,165.12296147916666,165.53669317708332,50.0,92.0
857,165.12296147916666,165.56310158333332,54.0,97.0
858,165.12296147916666,165.58950998958332,57.0,95.0
859,165.12296147916666,165.66873520833335,62.0,90.0
860,165.54549597916667,165.67929857083334,38.0,91.0
861,165.96803047916666,166.38176217708335,55.0,83.0
862,165.96803047916666,166.41873394583334,58.0,78.0
863,165.96803047916666,166.51204364791667,62.0,84.0
864,166.60183222916666,166.67577576666667,55.0,89.0
865,166.39056497916667,166.97331047708334,50.0,86.0
866,165.96803047916666,166.9961977625,43.0,89.0
867,166.81309947916665,167.14584539791667,67.0,87.0
868,166.81309947916665,167.18985940833332,55.0,89.0
869,166.81309947916665,167.20394389166665,58.0,93.0
870,166.81309947916665,167.23035229791665,62.0,91.0
871,167.23563397916666,167.38352105416666,50.0,88.0
872,167.65816847916668,167.9680271125,54.0,87.0
873,167.65816847916668,168.19161828541667,57.0,87.0
874,167.65816847916668,168.2426745375,62.0,88.0
875,168.29197022916668,168.41697001875,54.0,87.0
876,167.65816847916668,168.46450515,42.0,86.0
877,168.50323747916667,168.88880021041666,54.0,93.0
878,168.50323747916667,168.96626486875,57.0,90.0
879,168.92577197916665,169.0983069,42.0,92.0
880,169.13703922916667,169.2567573375,54.0,93.0
881,168.50323747916667,169.31309527083334,62.0,93.0
882,169.55957372916666,169.70570024375,51.0,87.0
883,169.55957372916666,169.71802416666665,55.0,83.0
884,169.55957372916666,169.74971425416666,58.0,75.0
885,169.34830647916667,169.80077050625,39.0,95.0
886,169.98210822916667,170.06485456875,51.0,90.0
887,170.19337547916666,170.45569898125,55.0,90.0
888,170.19337547916666,170.48738906875,51.0,86.0
889,170.19337547916666,170.5032341125,58.0,88.0
890,170.19337547916666,170.5243608375,46.0,90.0
891,170.19337547916666,170.5349242,63.0,86.0
892,170.61590997916667,170.70217743958332,39.0,100.0
893,171.03844447916666,171.17576819166666,53.0,85.0
894,171.03844447916666,171.401119925,58.0,80.0
895,171.24971172916668,171.45745785833333,53.0,88.0
896,171.03844447916666,171.950414775,46.0,95.0
897,171.88351347916665,172.30076629791665,53.0,88.0
898,171.88351347916665,172.34830142916667,58.0,93.0
899,171.88351347916665,172.37118871458333,62.0,88.0
900,172.30604797916666,172.39055487916667,46.0,103.0
901,172.72858247916668,172.8060471375,36.0,87.0
902,172.72858247916668,173.15287753958333,55.0,87.0
903,172.72858247916668,173.21625771458332,60.0,85.0
904,173.36238422916668,173.44160944791668,55.0,87.0
905,173.15111697916666,173.67752454375,48.0,97.0
906,173.57365147916667,174.01555214375,55.0,87.0
907,173.57365147916667,174.05076335208332,60.0,92.0
908,173.57365147916667,174.07012951666667,63.0,89.0
909,173.99618597916665,174.24090387708333,48.0,95.0
910,174.20745322916667,174.27083340416667,63.0,34.0
911,174.20745322916667,174.33245301875,60.0,73.0
912,174.20745322916667,174.39231207291667,55.0,89.0
913,174.41872047916667,174.78667760625,43.0,88.0
914,174.62998772916666,174.81132545208334,55.0,82.0
915,174.62998772916666,174.85005778125,58.0,89.0
916,174.62998772916666,174.85710002291665,62.0,87.0
917,175.05252222916667,175.17752201875,55.0,84.0
918,175.26378947916666,175.55604250833332,50.0,91.0
919,175.26378947916666,175.66695781458333,55.0,91.0
920,175.26378947916666,175.71625350625,58.0,88.0
921,175.68632397916667,175.91519683333334,43.0,89.0
922,175.89759122916666,175.9433658,55.0,80.0
923,175.26378947916666,176.01378821666665,62.0,88.0
924,176.10885847916666,176.39582982708333,45.0,90.0
925,176.10885847916666,176.48913952916666,57.0,85.0
926,176.10885847916666,176.60357595625,60.0,88.0
927,176.74266022916666,176.84829385416666,57.0,87.0
928,176.53139297916667,177.06836390625,45.0,88.0
929,176.95392747916665,177.3799831,57.0,87.0
930,177.37646197916666,177.52082793333332,45.0,88.0
931,176.95392747916665,177.66167276666667,67.0,82.0
932,176.95392747916665,177.69864453541666,63.0,91.0
933,176.95392747916665,177.71448957916667,60.0,92.0
934,177.58772922916665,177.7285740625,57.0,86.0
935,177.79899647916668,178.14934800208334,38.0,91.0
936,178.01026372916667,178.203925375,50.0,92.0
937,178.01026372916667,178.24089714375,54.0,86.0
938,178.01026372916667,178.27258723125,57.0,87.0
939,178.43279822916668,178.51906568958333,50.0,71.0
940,178.64406547916667,179.12469847291666,50.0,89.0
941,178.64406547916667,179.21096593333334,54.0,92.0
942,179.27786722916667,179.38350085416667,50.0,97.0
943,178.64406547916667,179.4081487,62.0,88.0
944,179.06659997916665,179.4187120625,45.0,88.0
945,178.64406547916667,179.42047262291666,57.0,90.0
946,179.48913447916667,179.95744355,67.0,86.0
947,179.48913447916667,179.97328859375,70.0,86.0
948,179.48913447916667,179.97504915416667,62.0,87.0
949,180.12293622916667,180.18631640416666,62.0,88.0
950,179.91166897916668,180.43103430208333,50.0,89.0
951,180.33420347916666,180.51554120208334,62.0,90.0
952,179.48913447916667,180.53666792708333,43.0,87.0
953,180.54547072916665,180.84828712083333,62.0,89.0
954,180.33420347916666,180.865892725,67.0,97.0
955,180.33420347916666,180.92047009791668,70.0,92.0
956,180.96800522916666,181.05955437083333,67.0,81.0
957,180.75673797916667,181.20215976458334,50.0,93.0
958,180.96800522916666,181.26906106041667,62.0,88.0
959,181.39053972916668,181.62117314374999,62.0,87.0
960,181.39053972916668,181.73384901041666,66.0,87.0
961,181.39053972916668,181.879975525,69.0,87.0
962,181.81307422916666,181.90110225,62.0,83.0
963,181.17927247916666,182.16342575208333,42.0,95.0
964,182.02434147916668,182.40990421041667,62.0,87.0
965,182.02434147916668,182.45391822083334,66.0,88.0
966,182.02434147916668,182.46272102291667,50.0,87.0
967,182.02434147916668,182.51201671458332,69.0,87.0
968,182.44687597916666,182.53666456041665,42.0,93.0
969,182.86941047916667,183.23032536458334,63.0,91.0
970,182.86941047916667,183.24969152916665,67.0,87.0
971,182.86941047916667,183.27786049583332,70.0,87.0
972,182.86941047916667,183.401099725,39.0,97.0
973,183.50321222916668,183.58243744791667,63.0,91.0
974,183.29194497916666,183.70039499583334,46.0,88.0
975,183.71447947916667,184.12821117708333,67.0,93.0
976,183.71447947916667,184.16342238541665,63.0,91.0
977,183.71447947916667,184.20391527499999,70.0,97.0
978,184.13701397916665,184.20919695625,39.0,89.0
979,184.13701397916665,184.2567320875,46.0,91.0
980,184.34828122916667,184.41694308541668,67.0,86.0
981,184.34828122916667,184.44511205208335,70.0,85.0
982,184.34828122916667,184.46095709583332,63.0,85.0
983,184.77081572916666,184.92046336458333,58.0,90.0
984,184.77081572916666,184.95039289166667,62.0,91.0
985,184.55954847916666,184.97856185833334,46.0,95.0
986,185.19335022916667,185.28137825,58.0,89.0
987,184.98208297916668,185.31130777708333,53.0,86.0
988,185.40461747916666,185.82363085833333,58.0,89.0
989,185.40461747916666,185.83419422083333,62.0,90.0
990,185.40461747916666,185.92926448333333,70.0,87.0
991,185.82715197916667,185.97503905416667,53.0,92.0
992,186.03841922916666,186.15285565625,58.0,87.0
993,186.46095372916668,186.570108475,60.0,86.0
994,186.46095372916668,186.58419295833332,67.0,78.0
995,186.46095372916668,186.58771407916666,63.0,88.0
996,186.24968647916666,186.61060136458335,48.0,95.0
997,187.09475547916668,187.18102293958333,36.0,87.0
998,186.88348822916666,187.52785334166666,60.0,76.0
999,187.09475547916668,187.56482511041668,67.0,87.0
1000,187.09475547916668,187.60003631875,63.0,84.0
1001,187.51728997916666,187.61236024166666,48.0,89.0
1002,187.72855722916665,187.83947253541666,63.0,70.0
1003,187.72855722916665,187.86059926041668,67.0,81.0
1004,187.72855722916665,187.8694020625,60.0,75.0
1005,188.15109172916667,188.29897880416667,58.0,81.0
1006,188.15109172916667,188.302499925,62.0,86.0
1007,188.15109172916667,188.30778160625,55.0,76.0
1008,187.93982447916667,188.35355617708333,43.0,87.0
1009,188.57362622916668,188.65813312916666,55.0,77.0
1010,188.78489347916667,189.24616030833334,55.0,86.0
1011,188.78489347916667,189.32538552708334,58.0,90.0
1012,189.20742797916665,189.52080773333333,50.0,92.0
1013,189.41869522916667,189.52432885416667,55.0,87.0
1014,188.78489347916667,189.61763855625,62.0,90.0
1015,188.78489347916667,189.66869480833333,67.0,87.0
1016,189.84122972916666,189.98735624374999,57.0,84.0
1017,189.84122972916666,190.14580668125,60.0,87.0
1018,190.26376422916667,190.35883449166667,57.0,79.0
1019,189.62996247916666,190.69862265208334,45.0,92.0
1020,190.47503147916666,190.9116504625,57.0,88.0
1021,190.47503147916666,191.00496016458334,63.0,89.0
1022,190.47503147916666,191.02256576874998,60.0,92.0
1023,190.89756597916667,191.10883322916666,45.0,88.0
1024,190.47503147916666,191.19157956875,67.0,88.0
1025,191.10883322916666,191.21622741458333,60.0,55.0
1026,191.10883322916666,191.24087526041666,57.0,81.0
1027,191.53136772916667,191.73383217708334,50.0,92.0
1028,191.53136772916667,191.80777571458333,54.0,87.0
1029,191.53136772916667,191.96974727291666,57.0,87.0
1030,191.32010047916665,192.02960632708334,38.0,93.0
1031,191.95390222916666,192.02960632708334,50.0,85.0
1032,192.16516947916668,192.61059126458332,50.0,87.0
1033,192.58770397916666,192.8341824375,45.0,89.0
1034,192.79897122916665,192.89932317291667,50.0,88.0
1035,192.16516947916668,192.94685830416665,54.0,88.0
1036,192.16516947916668,192.98383007291667,57.0,88.0
1037,192.16516947916668,193.06481585208334,62.0,89.0
1038,193.22150572916667,193.42749129791667,58.0,87.0
1039,193.22150572916667,193.44861802291666,55.0,89.0
1040,193.22150572916667,193.6792514375,62.0,89.0
1041,193.64404022916668,193.71622320625,55.0,81.0
1042,193.01023847916667,194.02432127916666,43.0,91.0
1043,193.85530747916667,194.33241935208332,55.0,86.0
1044,193.85530747916667,194.40108120833332,58.0,89.0
1045,193.85530747916667,194.5665738875,67.0,87.0
1046,194.48910922916667,194.61410901874999,55.0,86.0
1047,194.27784197916665,194.64227798541665,50.0,91.0
1048,193.85530747916667,194.64403854583333,62.0,90.0
1049,194.91164372916666,195.17220667083333,54.0,80.0
1050,194.91164372916666,195.25143188958333,57.0,86.0
1051,195.33417822916667,195.4538963375,54.0,86.0
1052,194.70037647916666,195.65988190625,42.0,93.0
1053,195.54544547916666,195.88875476041667,54.0,88.0
1054,195.54544547916666,195.88875476041667,57.0,91.0
1055,195.54544547916666,195.93628989166666,62.0,90.0
1056,195.96797997916667,196.06305024166667,42.0,97.0
1057,196.39051447916665,196.87114747291668,63.0,86.0
1058,196.39051447916665,196.90811924166667,58.0,81.0
1059,197.02431622916666,197.09825976666667,55.0,87.0
1060,196.39051447916665,197.31656925833335,39.0,93.0
1061,196.81304897916667,197.32889318125,46.0,87.0
1062,197.23558347916668,197.79368113125,55.0,93.0
1063,197.23558347916668,197.82185009791667,58.0,91.0
1064,197.23558347916668,197.82713177916668,63.0,88.0
1065,197.65811797916666,197.91339923958333,46.0,85.0
1066,197.86938522916665,198.020793425,55.0,86.0
1067,197.86938522916665,198.04720183125,58.0,84.0
1068,197.86938522916665,198.05600463333334,63.0,80.0
1069,198.29191972916666,198.45565184791667,53.0,85.0
1070,198.29191972916666,198.61058116458332,62.0,87.0
1071,198.29191972916666,198.62114452708335,58.0,79.0
1072,198.71445422916668,198.77255272291666,62.0,55.0
1073,198.71445422916668,198.81832729375,53.0,85.0
1074,198.08065247916667,198.82889065625,46.0,88.0
1075,198.92572147916667,199.17748161875,53.0,86.0
1076,198.92572147916667,199.26903076041665,57.0,88.0
1077,199.34825597916665,199.46445296666667,57.0,83.0
1078,198.92572147916667,199.5102275375,45.0,91.0
1079,199.34825597916665,199.57888939375,58.0,100.0
1080,199.77079047916666,200.04367734375,55.0,82.0
1081,199.77079047916666,200.09297303541666,60.0,86.0
1082,200.19332497916668,200.40811335,55.0,87.0
1083,199.77079047916666,200.70916918125,48.0,90.0
1084,200.61585947916666,201.13698536249998,55.0,92.0
1085,200.61585947916666,201.14578816458334,60.0,93.0
1086,200.61585947916666,201.14930928541668,63.0,92.0
1087,201.03839397916667,201.35705541458333,48.0,95.0
1088,201.24966122916666,201.36233709583334,60.0,85.0
1089,201.24966122916666,201.37818213958334,63.0,85.0
1090,201.24966122916666,201.40811166666666,55.0,82.0
1091,201.67219572916667,201.781350475,55.0,86.0
1092,201.67219572916667,201.79895607916666,58.0,90.0
1093,201.67219572916667,201.81128000208332,62.0,88.0
1094,201.46092847916665,201.86057569375,43.0,88.0
1095,202.09473022916666,202.19508217291667,55.0,77.0
1096,202.30599747916668,202.61761667291665,50.0,92.0
1097,202.30599747916668,202.73381366041667,55.0,87.0
1098,202.30599747916668,202.76902486875,58.0,91.0
1099,202.30599747916668,202.79191215416665,62.0,91.0
1100,202.30599747916668,202.81127831875,67.0,87.0
1101,202.72853197916666,202.95212315208335,43.0,92.0
1102,203.15106647916667,203.40282661875,57.0,89.0
1103,203.15106647916667,203.78662878958332,60.0,88.0
1104,203.57360097916666,203.80775551458333,63.0,72.0
1105,203.15106647916667,204.13874087291666,45.0,90.0
1106,203.99613547916667,204.44155726458334,57.0,93.0
1107,203.99613547916667,204.50845856041667,63.0,92.0
1108,203.99613547916667,204.53662752708334,60.0,91.0
1109,203.99613547916667,204.54719088958333,67.0,86.0
1110,204.41866997916665,204.60704994374998,45.0,87.0
1111,204.62993722916667,204.74085253541668,60.0,76.0
1112,204.62993722916667,204.7602187,57.0,81.0
1113,205.05247172916665,205.27078122083333,50.0,91.0
1114,204.84120447916666,205.2778234625,38.0,95.0
1115,205.05247172916665,205.32183747291666,57.0,88.0
1116,205.47500622916667,205.56479481041666,50.0,88.0
1117,205.68627347916666,205.84296335625,45.0,86.0
1118,206.10880797916667,206.217962725,38.0,90.0
1119,205.68627347916666,206.4186666125,50.0,89.0
1120,205.68627347916666,206.44155389791666,54.0,92.0
1121,205.68627347916666,206.47852566666666,57.0,91.0
1122,205.68627347916666,206.61408881875,62.0,88.0
1123,207.37641147916668,207.67570675,57.0,76.0
1124,207.58767872916667,207.88521343958334,58.0,75.0
1125,207.79894597916666,208.04190331666666,62.0,79.0
1126,208.01021322916665,208.27253673125,55.0,68.0
1127,208.43274772916666,208.61408545208334,67.0,78.0
1128,208.64401497916666,208.78133869166666,69.0,75.0
1129,209.06654947916667,209.30070401458335,74.0,85.0
1130,209.58239368125,209.76549196458333,79.0,65.0
1131,210.03485770833333,210.16161805833335,81.0,79.0
1132,210.57182863541667,210.64049049166667,81.0,61.0
1133,210.62464544791666,210.71443402916665,86.0,82.0
1134,206.95387697916667,211.28661616458334,50.0,87.0
1135,206.53134247916665,211.31302457083333,43.0,89.0
