,start,end,pitch,velocity
0,16.632162706250003,16.876015027083337,64.0,85.0
1,17.12396570625,17.262285300000002,64.0,85.0
2,17.61576870625,17.789948935416668,64.0,85.0
3,17.861670206250004,18.007161927083335,55.0,85.0
4,18.107571706250003,18.289948652083336,57.0,85.0
5,18.35347320625,18.48257149375,55.0,85.0
6,18.599374706250003,18.699784485416668,64.0,85.0
7,18.845276206250002,18.97642367291667,64.0,85.0
8,19.337079206250003,19.534824995833336,64.0,85.0
9,19.828882206250004,20.08912796041667,55.0,85.0
10,20.074783706250003,20.22232460625,57.0,85.0
11,20.32068520625,20.502037562500004,60.0,85.0
12,20.566586706250003,20.907775037500002,62.0,85.0
13,21.058389706250004,21.477446845833335,64.0,85.0
14,21.55019270625,21.84117614791667,62.0,85.0
15,21.796094206250004,22.22232347291667,60.0,85.0
16,22.287897206250005,23.241790108333337,57.0,85.0
17,24.501010706250003,24.706953212500004,65.0,85.0
18,24.992813706250004,25.189534906250003,65.0,85.0
19,25.484616706250005,25.687485443750003,65.0,85.0
20,25.730518206250004,25.99691149791667,55.0,85.0
21,25.976419706250002,26.16904254791667,57.0,85.0
22,26.222321206250005,26.46617352708334,55.0,85.0
23,26.468222706250003,26.712075027083337,62.0,85.0
24,26.714124206250002,27.028673208333338,64.0,85.0
25,27.205927206250003,27.883180920833336,64.0,85.0
26,27.697730206250004,27.95182842291667,60.0,85.0
27,27.943631706250002,28.202852870833336,62.0,85.0
28,28.189533206250005,28.38420522708334,64.0,85.0
29,28.435434706250003,28.825803337500005,67.0,85.0
30,28.927237706250004,29.35039320416667,69.0,85.0
31,29.419040706250005,29.640352056250006,67.0,85.0
32,29.664942206250004,30.14240095208334,64.0,85.0
33,30.156745206250005,31.42108875208334,62.0,85.0
34,32.36985870625001,32.61371102708334,64.0,85.0
35,32.861661706250004,32.9999813,64.0,85.0
36,33.35346470625,33.527644935416674,64.0,85.0
37,33.599366206250004,33.74485792708334,55.0,85.0
38,33.845267706250006,34.02764465208334,57.0,85.0
39,34.09116920625001,34.22026749375001,55.0,85.0
40,34.33707070625,34.43748048541667,64.0,85.0
41,34.582972206250005,34.714119672916674,64.0,85.0
42,35.07477520625,35.27252099583334,64.0,85.0
43,35.56657820625001,35.82682396041667,55.0,87.0
44,35.81247970625,35.960020606250005,57.0,87.0
45,36.058381206250004,36.23973356250001,60.0,87.0
46,36.30428270625001,36.6454710375,62.0,87.0
47,36.796085706250004,37.21514284583334,64.0,87.0
48,37.28788870625001,37.57887214791667,62.0,87.0
49,37.53379020625,37.96001947291667,60.0,87.0
50,38.02559320625001,38.97948610833334,57.0,87.0
51,40.23870670625001,40.4446492125,65.0,87.0
52,40.730509706250004,40.92723090625,65.0,87.0
53,41.22231270625001,41.425181443750006,65.0,87.0
54,41.46821420625,41.73460749791667,55.0,87.0
55,41.714115706250006,41.906738547916675,57.0,87.0
56,41.96001720625001,42.20386952708334,55.0,87.0
57,42.20591870625,42.44977102708334,62.0,87.0
58,42.451820206250005,42.76636920833334,64.0,90.0
59,42.94362320625,43.62087692083334,64.0,90.0
60,43.43542620625001,43.68952442291667,60.0,90.0
61,43.68132770625001,43.94054887083334,62.0,90.0
62,43.927229206250004,44.12190122708334,64.0,90.0
63,44.17313070625001,44.563499337500005,69.0,90.0
64,44.664933706250004,45.08808920416667,67.0,90.0
65,45.15673670625001,45.37804805625001,64.0,90.0
66,45.40263820625,45.88009695208334,62.0,90.0
67,45.89444120625001,47.12189952708334,60.0,90.0
68,47.36985020625001,47.66903036458334,60.0,90.0
69,47.61575170625001,47.89341548333334,64.0,90.0
70,47.861653206250004,48.10550552708334,67.0,90.0
71,48.107554706250006,48.64136587916667,69.0,90.0
72,49.09116070625001,49.64546367083334,69.0,90.0
73,50.07476670625001,50.32886492291667,69.0,90.0
74,50.320668206250005,50.53070907083334,67.0,90.0
75,50.56656970625001,50.768413854166674,65.0,90.0
76,50.81247120625001,51.33296271458334,69.0,90.0
77,51.30427420625001,51.33296271458334,69.0,90.0
78,51.55017570625001,51.636241231250004,69.0,90.0
79,51.796077206250004,51.94361810625001,69.0,90.0
80,52.041978706250006,52.63009312708334,67.0,90.0
81,53.02558470625001,53.673125322916675,67.0,90.0
82,54.00919070625001,54.255092206250005,67.0,90.0
83,54.255092206250005,54.49894452708334,65.0,90.0
84,54.50099370625001,54.77968207291667,64.0,90.0
85,54.74689520625001,54.99074752708334,67.0,90.0
86,55.23869820625001,55.53787836458334,60.0,90.0
87,55.48459970625001,55.76226348333334,64.0,90.0
88,55.730501206250004,55.97435352708334,67.0,90.0
89,55.976402706250006,56.51021387916668,69.0,90.0
90,56.96000870625001,57.514311670833344,69.0,90.0
91,57.94361470625001,58.19771292291667,69.0,90.0
92,58.189516206250005,58.39955707083334,67.0,90.0
93,58.43541770625001,58.637261854166674,65.0,90.0
94,58.68131920625001,59.20181071458334,69.0,90.0
95,59.17312220625001,59.20181071458334,69.0,90.0
96,59.41902370625001,59.560417068750006,69.0,90.0
97,59.66492520625001,59.80836774791668,72.0,90.0
98,59.910826706250006,60.08398234583334,74.0,90.0
99,60.40262970625001,60.58808042083334,74.0,90.0
100,60.89443270625001,61.11779323541668,74.0,90.0
101,61.14033420625001,61.36267014583334,72.0,90.0
102,61.386235706250005,61.62598966875001,71.0,90.0
103,61.63213720625001,61.81656333125001,69.0,90.0
104,61.87803870625001,62.08090744375001,71.0,90.0
105,62.12394020625001,63.70795570208334,67.0,90.0
106,65.81246270625,66.05631502708334,64.0,90.0
107,66.30426570625,66.4425853,64.0,90.0
108,66.79606870625001,66.97024893541668,64.0,90.0
109,67.04197020625001,67.18746192708335,55.0,90.0
110,67.28787170625002,67.47024865208334,57.0,90.0
111,67.53377320625,67.66287149375,55.0,90.0
112,67.77967470625,67.88008448541667,64.0,90.0
113,68.02557620625001,68.15672367291667,64.0,90.0
114,68.51737920625001,68.71512499583335,64.0,90.0
115,69.00918220625,69.26942796041668,55.0,90.0
116,69.25508370625,69.40262460625001,57.0,90.0
117,69.50098520625001,69.68233756250001,60.0,90.0
118,69.74688670625001,70.0880750375,62.0,90.0
119,70.23868970625001,70.65774684583334,64.0,90.0
120,70.73049270625,71.02147614791667,62.0,90.0
121,70.97639420625,71.40262347291667,60.0,90.0
122,71.46819720625001,72.42209010833335,57.0,90.0
123,73.68131070625002,73.88725321250001,65.0,90.0
124,74.17311370625,74.36983490625,65.0,90.0
125,74.66491670625001,74.86778544375001,65.0,90.0
126,74.91081820625001,75.17721149791667,55.0,90.0
127,75.15671970625002,75.34934254791668,57.0,90.0
128,75.40262120625,75.64647352708334,55.0,90.0
129,75.64852270625,75.89237502708335,62.0,90.0
130,75.89442420625001,76.20897320833335,64.0,90.0
131,76.38622720625001,77.06348092083334,64.0,87.0
132,76.87803020625002,77.13212842291668,60.0,87.0
133,77.12393170625,77.38315287083334,62.0,87.0
134,77.36983320625001,77.56450522708334,64.0,87.0
135,77.61573470625001,78.00610333750001,67.0,87.0
136,78.10753770625001,78.53069320416668,69.0,87.0
137,78.59934070625,78.82065205625001,64.0,87.0
138,78.84524220625,79.32270095208334,62.0,87.0
139,79.33704520625001,80.60138875208334,60.0,87.0
140,97.28785470625002,97.53170702708334,64.0,83.0
141,97.77965770625,97.91797730000002,64.0,83.0
142,98.27146070625001,98.44564093541668,64.0,83.0
143,98.51736220625001,98.66285392708335,55.0,83.0
144,98.76326370625002,98.94564065208334,57.0,83.0
145,99.00916520625002,99.13826349375002,55.0,83.0
146,99.25506670625002,99.35547648541667,64.0,83.0
147,99.50096820625001,99.63211567291668,64.0,83.0
148,99.99277120625001,100.19051699583335,64.0,83.0
149,100.48457420625002,100.74481996041668,55.0,83.0
150,100.73047570625002,100.87801660625001,57.0,83.0
151,100.97637720625,101.15772956250001,60.0,83.0
152,101.22227870625001,101.56346703750002,62.0,83.0
153,101.71408170625001,102.13313884583334,64.0,83.0
154,102.20588470625002,102.49686814791669,62.0,83.0
155,102.45178620625002,102.87801547291669,60.0,83.0
156,102.94358920625001,103.89748210833335,57.0,83.0
157,105.15670270625002,105.36264521250001,65.0,83.0
158,105.64850570625002,105.84522690625002,65.0,83.0
159,106.14030870625001,106.34317744375001,65.0,83.0
160,106.38621020625001,106.65260349791669,55.0,83.0
161,106.63211170625002,106.82473454791668,57.0,83.0
162,106.87801320625002,107.12186552708334,55.0,83.0
163,107.12391470625002,107.36776702708335,62.0,83.0
164,107.36981620625001,107.68436520833335,64.0,83.0
165,107.86161920625001,108.53887292083334,64.0,83.0
166,108.35342220625002,108.60752042291668,60.0,83.0
167,108.59932370625002,108.85854487083334,62.0,83.0
168,108.84522520625002,109.03989722708334,64.0,83.0
169,109.09112670625001,109.48149533750002,67.0,83.0
170,109.58292970625001,110.00608520416668,69.0,83.0
171,110.07473270625002,110.29604405625001,67.0,83.0
172,110.32063420625002,110.79809295208335,64.0,83.0
173,110.81243720625001,112.07678075208335,62.0,83.0
174,113.02555070625002,113.26940302708334,64.0,83.0
175,113.51735370625002,113.65567330000002,64.0,83.0
176,114.00915670625001,114.18333693541668,64.0,83.0
177,114.25505820625001,114.40054992708335,55.0,83.0
178,114.50095970625001,114.68333665208336,57.0,83.0
179,114.74686120625002,114.87595949375002,55.0,83.0
180,114.99276270625002,115.09317248541669,64.0,83.0
181,115.23866420625002,115.36981167291668,64.0,83.0
182,115.73046720625001,115.92821299583335,64.0,83.0
183,116.22227020625002,116.48251596041668,55.0,83.0
184,116.46817170625002,116.61571260625001,57.0,83.0
185,116.71407320625002,116.89542556250001,60.0,83.0
186,116.95997470625002,117.30116303750002,62.0,83.0
187,117.45177770625001,117.87083484583334,64.0,83.0
188,117.94358070625002,118.23456414791669,62.0,83.0
189,118.18948220625002,118.61571147291669,60.0,83.0
190,118.68128520625001,119.63517810833335,57.0,83.0
191,120.89439870625002,121.10034121250001,65.0,83.0
192,121.38620170625002,121.58292290625002,65.0,83.0
193,121.87800470625001,122.08087344375002,65.0,83.0
194,122.12390620625001,122.39029949791669,55.0,83.0
195,122.36980770625001,122.56243054791668,57.0,83.0
196,122.61570920625002,122.85956152708334,55.0,83.0
197,122.86161070625002,123.10546302708335,62.0,83.0
198,123.10751220625002,123.42206120833335,64.0,83.0
199,123.59931520625001,124.27656892083336,64.0,83.0
200,124.09111820625002,124.34521642291668,60.0,83.0
201,124.33701970625002,124.59624087083336,62.0,83.0
202,124.58292120625002,124.77759322708334,64.0,83.0
203,124.82882270625002,125.21919133750002,69.0,83.0
204,125.32062570625001,125.74378120416668,67.0,83.0
205,125.81242870625002,126.03374005625001,64.0,83.0
206,126.05833020625002,126.53578895208335,62.0,83.0
207,126.55013320625002,127.77759152708335,60.0,83.0
208,128.02554220625,128.32472236458335,60.0,83.0
209,128.27144370625,128.54910748333336,64.0,83.0
210,128.51734520625,128.76119752708334,67.0,83.0
211,128.76324670625002,129.2970578791667,69.0,83.0
212,129.74685270625002,130.30115567083334,69.0,83.0
213,130.73045870625,130.98455692291668,69.0,83.0
214,130.97636020625,131.18640107083334,67.0,83.0
215,131.22226170625,131.4241058541667,65.0,85.0
216,131.46816320625,131.84111381458334,69.0,83.0
217,131.95996620625002,132.05115467916667,69.0,83.0
218,132.20586770625002,132.29193323125003,69.0,83.0
219,132.45176920625002,132.59931010625002,72.0,83.0
220,132.69767070625002,133.28578512708336,67.0,80.0
221,133.68127670625003,134.32881732291668,67.0,80.0
222,134.66488270625,134.91078420625,67.0,80.0
223,134.91078420625,135.15463652708334,65.0,80.0
224,135.15668570625002,135.4353740729167,64.0,80.0
225,135.40258720625002,135.64643952708334,67.0,80.0
226,135.89439020625002,136.19357036458337,60.0,78.0
227,136.14029170625003,136.41795548333334,64.0,78.0
228,136.38619320625003,136.63004552708335,67.0,78.0
229,136.63209470625003,137.16590587916667,69.0,80.0
230,137.61570070625,138.17000367083335,69.0,80.0
231,138.59930670625002,138.8534049229167,69.0,80.0
232,138.84520820625002,139.05524907083336,67.0,80.0
233,139.09110970625002,139.29295385416668,65.0,80.0
234,139.33701120625003,139.85750271458335,69.0,80.0
235,139.82881420625003,139.85750271458335,69.0,80.0
236,140.07471570625003,140.21610906875003,69.0,80.0
237,140.32061720625,140.46405974791668,72.0,80.0
238,140.56651870625,140.73967434583335,74.0,80.0
239,141.05832170625,141.24377242083335,74.0,80.0
240,141.55012470625002,141.77348523541667,74.0,80.0
241,141.79602620625002,142.01836214583335,72.0,80.0
242,142.04192770625002,142.28168166875002,71.0,80.0
243,142.28782920625002,142.47225533125,69.0,80.0
244,142.53373070625003,142.73659944375,71.0,80.0
245,142.77963220625003,144.36364770208334,67.0,83.0
246,146.46815470625003,146.71200702708336,64.0,83.0
247,146.95995770625,147.0982773,64.0,83.0
248,147.45176070625,147.62552472500002,64.0,83.0
249,147.69689497500002,147.84167462500002,55.0,83.0
250,147.94159297500002,148.12307732500003,57.0,83.0
251,148.18629097500002,148.314757425,55.0,87.0
252,148.43098897500002,148.53090732500002,64.0,87.0
253,148.67568697500002,148.806192575,64.0,87.0
254,149.16508297500002,149.36186095000002,64.0,85.0
255,149.65447897500002,149.91345102500003,55.0,85.0
256,149.89917697500002,150.04599577500002,57.0,85.0
257,150.14387497500002,150.32433975000004,60.0,85.0
258,150.38857297500002,150.72809145000002,62.0,85.0
259,150.87796897500002,151.29497515000003,64.0,85.0
260,151.36736497500002,151.65692427500002,62.0,85.0
261,151.61206297500001,152.03620617500002,60.0,85.0
262,152.101458975,153.05068330000003,57.0,85.0
263,154.303740975,154.50867555000002,65.0,85.0
264,154.793136975,154.98889537500003,65.0,85.0
265,155.282532975,155.48440882500003,65.0,85.0
266,155.527230975,155.79232047500003,55.0,85.0
267,155.771928975,155.96360907500002,57.0,85.0
268,156.016626975,156.25928582500003,55.0,85.0
269,156.26132497500004,156.50398382500003,62.0,85.0
270,156.506022975,156.81903250000002,64.0,85.0
271,156.995418975,157.66935805000003,64.0,85.0
272,157.48481497500003,157.737669575,60.0,85.0
273,157.72951297500003,157.98746545000003,62.0,85.0
274,157.97421097500003,158.16793022500002,64.0,85.0
275,158.21890897500003,158.60736705000002,67.0,83.0
276,158.70830497500003,159.12938945000002,69.0,83.0
277,159.19770097500003,159.417929175,64.0,83.0
278,159.44239897500003,159.91752092500002,62.0,83.0
279,159.93179497500003,161.18995052500003,60.0,83.0
