,start,end,pitch,velocity
0,1.1403682062500002,1.5461056812500003,55.0,64.0
1,1.3862697062500002,1.6680318416666668,67.0,69.0
2,1.3862697062500002,1.6741793791666668,64.0,69.0
3,1.3862697062500002,1.6813515062500002,60.0,69.0
4,1.6321712062500002,2.169056147916667,55.0,69.0
5,2.12397420625,2.2909823083333336,60.0,69.0
6,2.12397420625,2.319670816666667,64.0,69.0
7,2.12397420625,2.3709002958333336,67.0,69.0
8,0.8944667062500001,2.5952854145833335,48.0,66.0
9,2.36987570625,2.659834558333334,55.0,69.0
10,2.61577720625,2.859629527083334,60.0,69.0
11,2.61577720625,2.859629527083334,64.0,69.0
12,2.61577720625,2.859629527083334,67.0,69.0
13,3.10758020625,3.509219322916667,59.0,71.0
14,3.3534817062500006,3.6454897375000006,71.0,71.0
15,3.3534817062500006,3.646514327083334,67.0,71.0
16,3.3534817062500006,3.6485635062500004,64.0,71.0
17,3.5993832062500006,4.162907477083334,59.0,71.0
18,4.091186206250001,4.30020248125,64.0,71.0
19,4.091186206250001,4.3329893479166675,67.0,71.0
20,4.091186206250001,4.359628677083334,71.0,71.0
21,2.86167870625,4.531759727083334,52.0,71.0
22,4.33708770625,4.559423645833334,59.0,71.0
23,4.582989206250001,4.768439920833334,67.0,71.0
24,4.582989206250001,4.769464510416667,64.0,71.0
25,4.582989206250001,4.810448093750001,71.0,71.0
26,5.074792206250001,5.4764313229166675,57.0,73.0
27,5.320693706250001,5.564546027083334,67.0,73.0
28,5.320693706250001,5.564546027083334,69.0,73.0
29,5.320693706250001,5.565570616666667,64.0,73.0
30,5.320693706250001,5.579914870833334,60.0,73.0
31,5.566595206250001,6.152660447916667,57.0,73.0
32,6.058398206250001,6.2879062729166675,60.0,73.0
33,6.058398206250001,6.299176758333334,64.0,73.0
34,6.058398206250001,6.3278652666666675,69.0,73.0
35,6.304299706250001,6.507168443750001,57.0,73.0
36,4.828890706250001,6.615774939583334,45.0,71.0
37,6.550201206250001,6.6997912854166675,64.0,73.0
38,6.550201206250001,6.702865054166668,60.0,73.0
39,6.550201206250001,6.712086360416667,69.0,73.0
40,7.042004206250001,7.4190531729166675,53.0,73.0
41,7.287905706250001,7.885241433333334,57.0,73.0
42,7.287905706250001,7.897536508333334,60.0,73.0
43,7.287905706250001,7.901634866666668,65.0,73.0
44,7.533807206250001,8.113724910416668,53.0,73.0
45,8.02561020625,8.272536295833335,57.0,73.0
46,8.02561020625,8.31454446875,60.0,73.0
47,8.02561020625,8.317618237500001,65.0,73.0
48,8.271511706250001,8.519462385416668,53.0,73.0
49,6.796102706250001,8.608601679166668,41.0,73.0
50,8.517413206250001,8.755117989583335,57.0,73.0
51,8.517413206250001,8.765363885416669,60.0,73.0
52,8.517413206250001,8.778683550000002,65.0,73.0
53,9.00921620625,9.450814316666667,50.0,73.0
54,9.255117706250001,9.560445402083335,53.0,73.0
55,9.255117706250001,9.563519170833334,57.0,73.0
56,9.255117706250001,9.577863425000002,62.0,73.0
57,9.501019206250001,10.076838552083334,50.0,73.0
58,9.99282220625,10.220281093750001,53.0,73.0
59,9.99282220625,10.252043370833334,57.0,73.0
60,9.99282220625,10.269461393750001,62.0,73.0
61,8.763314706250002,10.339133485416667,38.0,73.0
62,10.238723706250001,10.538928454166667,50.0,73.0
63,10.484625206250001,10.635239875000002,53.0,73.0
64,10.484625206250001,10.664952972916668,62.0,73.0
65,10.484625206250001,10.680321816666668,57.0,73.0
66,10.976428206250002,11.352452583333335,55.0,73.0
67,11.222329706250001,11.539952477083334,59.0,73.0
68,11.222329706250001,11.540977066666668,67.0,73.0
69,11.222329706250001,11.556345910416669,62.0,73.0
70,11.468231206250001,11.971304691666669,55.0,73.0
71,11.960034206250002,12.209009475000002,59.0,73.0
72,11.960034206250002,12.254091416666668,67.0,73.0
73,11.960034206250002,12.341181531250001,62.0,73.0
74,10.730526706250002,12.434419183333334,43.0,73.0
75,12.205935706250001,12.539951910416669,55.0,73.0
76,12.451837206250001,12.636263331250001,59.0,73.0
77,12.451837206250001,12.642410868750002,62.0,73.0
78,12.451837206250001,12.642410868750002,67.0,73.0
79,12.943640206250002,13.33605801666667,55.0,73.0
80,13.189541706250003,13.465156304166669,60.0,73.0
81,13.189541706250003,13.465156304166669,67.0,73.0
82,13.189541706250003,13.468230072916668,64.0,73.0
83,13.435443206250001,13.995893708333336,55.0,73.0
84,12.697738706250002,14.063516620833335,48.0,73.0
85,13.927246206250002,14.185442781250002,60.0,73.0
86,13.927246206250002,14.204909983333335,64.0,73.0
87,13.927246206250002,14.222328006250002,67.0,73.0
88,14.173147706250003,14.491795066666668,55.0,73.0
89,14.173147706250003,14.510237679166668,48.0,73.0
90,14.419049206250001,14.547122904166669,60.0,73.0
91,14.419049206250001,14.547122904166669,64.0,73.0
92,14.419049206250001,14.558393389583335,67.0,73.0
93,14.910852206250002,15.332983114583335,55.0,73.0
94,15.156753706250003,15.425196177083336,60.0,73.0
95,15.156753706250003,15.439540431250002,64.0,73.0
96,15.156753706250003,15.441589610416669,67.0,73.0
97,15.402655206250001,15.919048356250002,55.0,73.0
98,15.894458206250002,16.138310527083334,60.0,73.0
99,15.894458206250002,16.138310527083334,64.0,73.0
100,15.894458206250002,16.138310527083334,67.0,73.0
101,16.140359706250003,16.261261277083335,55.0,73.0
102,14.664950706250002,16.312490756250003,48.0,73.0
103,16.38626120625,16.623965989583336,67.0,73.0
104,16.38626120625,16.62499057916667,60.0,73.0
105,16.38626120625,16.630113527083335,64.0,73.0
106,16.878064206250002,17.25818694166667,55.0,73.0
107,17.12396570625,17.377039333333336,67.0,73.0
108,17.12396570625,17.389334408333337,60.0,73.0
109,17.12396570625,17.392408177083336,64.0,73.0
110,17.369867206250003,17.932366887500002,55.0,73.0
111,17.861670206250004,18.093227452083337,60.0,73.0
112,17.861670206250004,18.133186445833335,64.0,73.0
113,17.861670206250004,18.140358572916668,67.0,73.0
114,16.632162706250003,18.41699776041667,48.0,73.0
115,18.107571706250003,18.446710858333336,55.0,73.0
116,18.35347320625,18.471301008333334,60.0,73.0
117,18.35347320625,18.471301008333334,64.0,73.0
118,18.35347320625,18.49998951666667,67.0,73.0
119,19.091177706250004,19.1987596125,67.0,73.0
120,19.091177706250004,19.20388256041667,64.0,73.0
121,19.091177706250004,19.228472710416668,60.0,73.0
122,18.845276206250002,19.259210397916668,55.0,73.0
123,19.337079206250003,19.83707892291667,55.0,73.0
124,19.828882206250004,19.95080836666667,60.0,73.0
125,19.828882206250004,20.029701764583336,67.0,73.0
126,19.828882206250004,20.044046018750002,64.0,73.0
127,20.074783706250003,20.35347207291667,55.0,73.0
128,18.599374706250003,20.354496662500004,48.0,73.0
129,20.32068520625,20.432365470833336,60.0,73.0
130,20.32068520625,20.44875890416667,64.0,73.0
131,20.32068520625,20.459004800000002,67.0,73.0
132,20.812488206250002,21.2151519125,57.0,73.0
133,21.058389706250004,21.31043874375,65.0,73.0
134,21.058389706250004,21.319660050000003,69.0,73.0
135,21.058389706250004,21.328881356250005,62.0,73.0
136,21.304291206250003,21.858594170833335,57.0,73.0
137,21.796094206250004,22.081954700000004,62.0,73.0
138,21.796094206250004,22.092200595833337,69.0,73.0
139,21.796094206250004,22.098348133333335,65.0,73.0
140,20.566586706250003,22.365766014583336,50.0,73.0
141,22.041995706250002,22.38830698541667,57.0,73.0
142,22.287897206250005,22.393429933333337,65.0,73.0
143,22.287897206250005,22.420069262500004,69.0,73.0
144,22.287897206250005,22.42211844166667,62.0,73.0
145,22.779700206250002,23.148552456250002,57.0,73.0
146,23.025601706250004,23.238716339583338,62.0,73.0
147,23.025601706250004,23.253060593750003,69.0,73.0
148,23.025601706250004,23.257158952083337,65.0,73.0
149,23.271503206250003,23.754084900000002,57.0,73.0
150,23.763306206250004,23.910847106250003,69.0,73.0
151,23.763306206250004,23.93133889791667,65.0,73.0
152,23.763306206250004,24.007158527083337,62.0,73.0
153,22.533798706250003,24.18031416666667,50.0,73.0
154,24.009207706250002,24.26330592291667,57.0,73.0
155,24.255109206250005,24.427240256250002,62.0,73.0
156,24.255109206250005,24.428264845833336,69.0,73.0
157,24.255109206250005,24.42928943541667,65.0,73.0
158,24.746912206250002,25.091174306250004,53.0,73.0
159,24.992813706250004,25.232567668750004,57.0,73.0
160,24.501010706250003,25.29301845416667,41.0,73.0
161,24.992813706250004,25.29609222291667,60.0,73.0
162,24.992813706250004,25.29814140208334,65.0,73.0
163,25.238715206250003,25.45900196666667,53.0,73.0
164,25.730518206250004,26.069657358333338,55.0,73.0
165,25.976419706250002,26.191583518750004,59.0,73.0
166,25.976419706250002,26.235640870833336,62.0,73.0
167,25.976419706250002,26.243837587500003,67.0,73.0
168,25.484616706250005,26.32887852291667,43.0,73.0
169,26.222321206250005,26.39342766666667,55.0,73.0
170,26.714124206250002,27.058386306250004,55.0,73.0
171,26.960025706250004,27.10346824791667,64.0,73.0
172,26.960025706250004,27.126009218750003,67.0,73.0
173,26.960025706250004,27.133181345833336,60.0,73.0
174,27.205927206250003,27.731541662500003,55.0,73.0
175,27.697730206250004,27.854492412500004,60.0,73.0
176,27.697730206250004,27.90572189166667,64.0,73.0
177,27.697730206250004,27.95490219166667,67.0,73.0
178,26.468222706250003,28.150598802083337,48.0,73.0
179,27.943631706250002,28.227443020833338,55.0,73.0
180,28.189533206250005,28.27457414166667,64.0,73.0
181,28.189533206250005,28.276623320833338,60.0,73.0
182,28.189533206250005,28.293016754166672,67.0,73.0
183,28.681336206250005,29.06453271041667,57.0,73.0
184,28.927237706250004,29.320680106250006,60.0,73.0
185,28.927237706250004,29.36883581666667,64.0,73.0
186,28.927237706250004,29.382155481250003,69.0,73.0
187,29.173139206250003,29.71309791666667,57.0,73.0
188,29.664942206250004,29.908794527083337,60.0,73.0
189,29.664942206250004,29.908794527083337,64.0,73.0
190,29.664942206250004,29.908794527083337,69.0,73.0
191,29.910843706250002,30.129081287500004,57.0,73.0
192,28.435434706250003,30.16494192291667,45.0,73.0
193,30.156745206250005,30.400597527083338,60.0,73.0
194,30.156745206250005,30.400597527083338,64.0,73.0
195,30.156745206250005,30.400597527083338,69.0,73.0
196,30.648548206250005,31.03994142708334,55.0,73.0
197,30.894449706250004,31.138302027083338,59.0,73.0
198,30.894449706250004,31.138302027083338,62.0,73.0
199,30.894449706250004,31.138302027083338,67.0,73.0
200,31.140351206250003,31.75100659791667,55.0,73.0
201,31.632154206250004,31.876006527083337,59.0,73.0
202,31.632154206250004,31.876006527083337,62.0,73.0
203,31.632154206250004,31.876006527083337,67.0,73.0
204,30.402646706250003,32.13112933333334,43.0,73.0
205,31.878055706250006,32.20285060416667,55.0,73.0
206,32.123957206250005,32.25203090416667,67.0,73.0
207,32.123957206250005,32.254080083333335,59.0,73.0
208,32.123957206250005,32.2684243375,62.0,73.0
209,32.61576020625,32.99588294166667,55.0,73.0
210,32.861661706250004,33.114735333333336,67.0,73.0
211,32.861661706250004,33.12703040833334,60.0,73.0
212,32.861661706250004,33.13010417708334,64.0,73.0
213,33.107563206250006,33.6700628875,55.0,73.0
214,33.599366206250004,33.83092345208334,60.0,73.0
215,33.599366206250004,33.87088244583334,64.0,73.0
216,33.599366206250004,33.878054572916675,67.0,73.0
217,32.36985870625001,34.15469376041667,48.0,73.0
218,33.845267706250006,34.18440685833334,55.0,73.0
219,34.09116920625001,34.20899700833334,60.0,73.0
220,34.09116920625001,34.20899700833334,64.0,73.0
221,34.09116920625001,34.23768551666667,67.0,73.0
222,34.82887370625001,34.936455612500005,67.0,73.0
223,34.82887370625001,34.94157856041667,64.0,73.0
224,34.82887370625001,34.966168710416675,60.0,73.0
225,34.582972206250005,34.996906397916675,55.0,73.0
226,35.07477520625,35.574774922916674,55.0,73.0
227,35.56657820625001,35.68850436666667,60.0,73.0
228,35.56657820625001,35.767397764583336,67.0,73.0
229,35.56657820625001,35.78174201875,64.0,73.0
230,35.81247970625,36.09116807291667,55.0,73.0
231,34.33707070625,36.092192662500004,48.0,73.0
232,36.058381206250004,36.17006147083334,60.0,73.0
233,36.058381206250004,36.18645490416667,64.0,73.0
234,36.058381206250004,36.1967008,67.0,73.0
235,36.55018420625,36.952847912500005,57.0,73.0
236,36.796085706250004,37.048134743750005,65.0,73.0
237,36.796085706250004,37.05735605,69.0,73.0
238,36.796085706250004,37.06657735625001,62.0,73.0
239,37.041987206250006,37.59629017083334,57.0,73.0
240,37.53379020625,37.819650700000004,62.0,73.0
241,37.53379020625,37.82989659583334,69.0,73.0
242,37.53379020625,37.83604413333334,65.0,73.0
243,36.30428270625001,38.103462014583336,50.0,73.0
244,37.779691706250006,38.12600298541667,57.0,73.0
245,38.02559320625001,38.13112593333334,65.0,73.0
246,38.02559320625001,38.15776526250001,69.0,73.0
247,38.02559320625001,38.15981444166667,62.0,73.0
248,38.517396206250005,38.88624845625001,57.0,73.0
249,38.76329770625001,38.97641233958334,62.0,73.0
250,38.76329770625001,38.99075659375001,69.0,73.0
251,38.76329770625001,38.99485495208334,65.0,73.0
252,39.00919920625,39.4917809,57.0,73.0
253,39.50100220625001,39.64854310625,69.0,73.0
254,39.50100220625001,39.669034897916674,65.0,73.0
255,39.50100220625001,39.74485452708334,62.0,73.0
256,38.27149470625,39.91801016666667,50.0,73.0
257,39.74690370625,40.00100192291667,57.0,71.0
258,39.992805206250004,40.16493625625001,62.0,71.0
259,39.992805206250004,40.16596084583334,69.0,71.0
260,39.992805206250004,40.16698543541667,65.0,71.0
261,40.48460820625001,40.82887030625,53.0,71.0
262,40.730509706250004,40.97026366875001,57.0,71.0
263,40.23870670625001,41.03071445416667,41.0,71.0
264,40.730509706250004,41.03378822291667,60.0,71.0
265,40.730509706250004,41.03583740208334,65.0,71.0
266,40.976411206250006,41.19669796666667,53.0,71.0
267,41.46821420625,41.80735335833334,55.0,71.0
268,41.714115706250006,41.92927951875001,59.0,69.0
269,41.714115706250006,41.973336870833336,62.0,69.0
270,41.714115706250006,41.9815335875,67.0,69.0
271,41.22231270625001,42.066574522916675,43.0,71.0
272,41.96001720625001,42.131123666666674,55.0,69.0
273,42.451820206250005,42.79608230625001,55.0,69.0
274,42.69772170625001,42.84116424791667,64.0,69.0
275,42.69772170625001,42.863705218750006,67.0,69.0
276,42.69772170625001,42.87087734583334,60.0,69.0
277,42.94362320625,43.46923766250001,55.0,73.0
278,43.43542620625001,43.59218841250001,60.0,73.0
279,43.43542620625001,43.64341789166667,64.0,73.0
280,43.43542620625001,43.692598191666676,67.0,73.0
281,42.20591870625,43.88829480208334,48.0,69.0
282,43.68132770625001,43.96513902083334,55.0,73.0
283,43.927229206250004,44.012270141666676,64.0,73.0
284,43.927229206250004,44.01431932083334,60.0,73.0
285,43.927229206250004,44.03071275416667,67.0,73.0
286,44.41903220625001,44.76739266458334,57.0,73.0
287,44.17313070625001,44.777638560416676,50.0,73.0
288,44.664933706250004,45.009195806250005,69.0,73.0
289,44.664933706250004,45.02046629166667,62.0,73.0
290,44.664933706250004,45.06452364375001,65.0,73.0
291,45.40263820625,45.708990491666675,55.0,73.0
292,45.648539706250006,45.89239202708334,62.0,73.0
293,45.648539706250006,45.89239202708334,67.0,73.0
294,45.648539706250006,45.90776087083334,59.0,73.0
295,45.15673670625001,45.92620348333334,43.0,73.0
296,45.89444120625001,46.13829352708334,55.0,71.0
297,46.386244206250005,46.72435876875001,55.0,71.0
298,46.63214570625001,46.88112097500001,60.0,69.0
299,46.63214570625001,46.88521933333334,64.0,69.0
300,46.63214570625001,46.92210455833334,67.0,69.0
301,46.87804720625001,47.39751412500001,55.0,69.0
302,47.36985020625001,47.657759879166676,64.0,69.0
303,47.36985020625001,47.660833647916675,60.0,69.0
304,47.36985020625001,47.67620249166667,67.0,69.0
305,47.61575170625001,47.820669622916675,55.0,69.0
306,46.14034270625,47.827841750000005,48.0,71.0
307,47.861653206250004,48.09525963125001,67.0,69.0
308,47.861653206250004,48.09628422083334,64.0,69.0
309,47.861653206250004,48.10550552708334,60.0,69.0
310,48.35345620625001,48.820669056250004,53.0,69.0
311,48.107554706250006,48.942595216666675,41.0,69.0
312,48.599357706250004,49.034808279166676,57.0,69.0
313,48.599357706250004,49.07681645208334,60.0,69.0
314,48.599357706250004,49.07681645208334,65.0,69.0
315,49.09116070625001,49.86165207291668,41.0,69.0
316,49.33706220625,49.90673401458334,53.0,69.0
317,49.582963706250005,50.04710278750001,57.0,69.0
318,49.582963706250005,50.06964375833334,65.0,69.0
319,49.582963706250005,50.08603719166668,60.0,69.0
320,50.320668206250005,50.64853687291667,53.0,69.0
321,50.56656970625001,50.81964333333334,57.0,69.0
322,50.56656970625001,50.854479379166676,60.0,69.0
323,50.56656970625001,50.864725275000005,65.0,69.0
324,50.81247120625001,51.34525778958334,53.0,69.0
325,51.30427420625001,51.48357738333334,57.0,69.0
326,51.30427420625001,51.52865932500001,60.0,69.0
327,51.30427420625001,51.53992981041667,65.0,69.0
328,50.07476670625001,51.718208397916676,41.0,69.0
329,51.55017570625001,51.82783948333334,53.0,69.0
330,51.796077206250004,51.94771646458334,57.0,69.0
331,51.796077206250004,51.96103612916667,60.0,69.0
332,51.796077206250004,51.96820825625001,65.0,69.0
333,52.28788020625001,52.80734712500001,55.0,69.0
334,52.041978706250006,52.83501104375001,48.0,69.0
335,52.533781706250004,53.05939616250001,60.0,69.0
336,52.533781706250004,53.070666647916674,64.0,69.0
337,52.533781706250004,53.09628138750001,67.0,69.0
338,53.02558470625001,53.79505148333334,48.0,69.0
339,53.27148620625001,53.80734655833334,55.0,69.0
340,53.517387706250005,53.98357596666668,60.0,71.0
341,53.517387706250005,54.00919070625001,64.0,71.0
342,53.517387706250005,54.02558413958334,67.0,71.0
343,54.255092206250005,54.52660844583334,55.0,71.0
344,54.00919070625001,54.58091169375001,48.0,71.0
345,54.50099370625001,54.862673829166674,60.0,71.0
346,54.50099370625001,54.896485285416674,64.0,71.0
347,54.50099370625001,54.91492789791668,67.0,71.0
348,54.74689520625001,55.567591462500005,48.0,71.0
349,55.23869820625001,55.58500948541668,55.0,73.0
350,55.48459970625001,55.77046020000001,67.0,73.0
351,55.48459970625001,55.77865691666668,60.0,73.0
352,55.48459970625001,55.817591320833344,64.0,73.0
353,56.22230420625001,56.66287772708334,53.0,73.0
354,55.976402706250006,56.83500877708334,41.0,73.0
355,56.46820570625001,56.94668904166667,65.0,73.0
356,56.46820570625001,56.96615624375001,57.0,73.0
357,56.46820570625001,56.98664803541667,60.0,73.0
358,56.96000870625001,57.69873779583334,41.0,76.0
359,57.20591020625001,57.71308205000001,53.0,76.0
360,57.451811706250005,57.94771306458334,57.0,76.0
361,57.451811706250005,57.97537698333334,60.0,76.0
362,57.451811706250005,57.97640157291667,65.0,76.0
363,58.189516206250005,58.43336852708334,53.0,76.0
364,58.43541770625001,58.67927002708334,57.0,76.0
365,58.43541770625001,58.68541756458334,60.0,76.0
366,58.43541770625001,58.695663460416675,65.0,76.0
367,58.68131920625001,59.177220564583344,53.0,76.0
368,59.17312220625001,59.38931060833334,65.0,76.0
369,59.17312220625001,59.39443355625001,60.0,76.0
370,57.94361470625001,59.41697452708334,41.0,76.0
371,59.17312220625001,59.41697452708334,57.0,76.0
372,59.41902370625001,59.63418751875001,53.0,76.0
373,59.66492520625001,59.908777527083345,57.0,76.0
374,59.66492520625001,59.908777527083345,60.0,76.0
375,59.66492520625001,59.908777527083345,65.0,76.0
376,60.15672820625001,60.52967881458334,50.0,76.0
377,60.40262970625001,60.647506616666675,57.0,76.0
378,60.40262970625001,60.64955579583334,54.0,76.0
379,60.40262970625001,60.65570333333334,62.0,76.0
380,60.648531206250006,60.92926875208334,50.0,76.0
381,60.89443270625001,61.14853092291668,57.0,76.0
382,60.89443270625001,61.15160469166668,54.0,76.0
383,60.89443270625001,61.15160469166668,62.0,76.0
384,61.14033420625001,61.379063579166676,50.0,76.0
385,61.509186456250006,61.69361258125001,50.0,76.0
386,61.386235706250005,61.72537485833334,57.0,76.0
387,59.910826706250006,61.72844862708334,38.0,76.0
388,61.386235706250005,61.75303877708334,54.0,76.0
389,61.386235706250005,61.76123549375001,62.0,76.0
390,62.12394020625001,62.44156297708334,50.0,76.0
391,62.36984170625001,62.57680880208334,55.0,76.0
392,62.36984170625001,62.60549731041667,62.0,76.0
393,62.36984170625001,62.61062025833334,59.0,76.0
394,62.61574320625001,62.889308625000005,50.0,76.0
395,62.86164470625001,63.113693743750005,55.0,76.0
396,62.86164470625001,63.137259304166676,62.0,76.0
397,62.86164470625001,63.144431431250005,59.0,76.0
398,63.10754620625001,63.35344770625001,50.0,76.0
399,63.35344770625001,63.595250847916674,55.0,76.0
400,63.35344770625001,63.62701312500001,59.0,76.0
401,63.35344770625001,63.63418525208334,62.0,76.0
402,61.87803870625001,63.67414424583334,43.0,76.0
403,63.59934920625001,63.843201527083345,50.0,76.0
404,63.845250706250006,64.10959481875001,43.0,76.0
405,63.845250706250006,64.33500452708334,50.0,76.0
406,63.845250706250006,64.33500452708334,55.0,76.0
407,63.845250706250006,64.33500452708334,59.0,76.0
408,63.845250706250006,64.33500452708334,62.0,76.0
409,64.58295520625,64.68951252291667,50.0,76.0
410,64.58295520625,64.70385677708335,43.0,76.0
411,64.58295520625,64.70385677708335,55.0,76.0
412,64.58295520625,64.70385677708335,59.0,76.0
413,64.58295520625,64.70385677708335,62.0,76.0
414,64.82885670625001,64.94975827708335,43.0,76.0
415,64.82885670625001,64.94975827708335,50.0,76.0
416,64.82885670625001,64.94975827708335,55.0,76.0
417,64.82885670625001,64.94975827708335,59.0,76.0
418,64.82885670625001,64.94975827708335,62.0,76.0
419,65.32065970625001,65.56246284791668,55.0,76.0
420,65.32065970625001,65.56246284791668,59.0,76.0
421,65.32065970625001,65.56246284791668,62.0,76.0
422,65.32065970625001,65.56451202708334,43.0,76.0
423,65.32065970625001,65.57783169166667,50.0,76.0
424,66.05836420625,66.43848694166668,55.0,76.0
425,66.30426570625,66.55733933333335,67.0,76.0
426,66.30426570625,66.56963440833334,60.0,76.0
427,66.30426570625,66.57270817708334,64.0,76.0
428,66.55016720625001,67.11266688750001,55.0,76.0
429,67.04197020625001,67.27352745208334,60.0,76.0
430,67.04197020625001,67.31348644583335,64.0,76.0
431,67.04197020625001,67.32065857291667,67.0,76.0
432,65.81246270625,67.59729776041668,48.0,76.0
433,67.28787170625002,67.62701085833335,55.0,76.0
434,67.53377320625,67.65160100833334,60.0,76.0
435,67.53377320625,67.65160100833334,64.0,76.0
436,67.53377320625,67.68028951666668,67.0,76.0
437,68.27147770625001,68.37905961250001,67.0,76.0
438,68.27147770625001,68.38418256041668,64.0,76.0
439,68.27147770625001,68.40877271041667,60.0,76.0
440,68.02557620625001,68.43951039791668,55.0,76.0
441,68.51737920625001,69.01737892291668,55.0,76.0
442,69.00918220625,69.13110836666668,60.0,76.0
443,69.00918220625,69.21000176458334,67.0,76.0
444,69.00918220625,69.22434601875001,64.0,76.0
445,69.25508370625,69.53377207291668,55.0,76.0
446,67.77967470625,69.53479666250001,48.0,76.0
447,69.50098520625001,69.61266547083335,60.0,76.0
448,69.50098520625001,69.62905890416667,64.0,76.0
449,69.50098520625001,69.6393048,67.0,76.0
450,69.99278820625001,70.39545191250001,57.0,76.0
451,70.23868970625001,70.49073874375001,65.0,76.0
452,70.23868970625001,70.49996005000001,69.0,76.0
453,70.23868970625001,70.50918135625001,62.0,76.0
454,70.48459120625002,71.03889417083334,57.0,76.0
455,70.97639420625,71.26225470000001,62.0,76.0
456,70.97639420625,71.27250059583335,69.0,76.0
457,70.97639420625,71.27864813333335,65.0,76.0
458,69.74688670625001,71.54606601458335,50.0,76.0
459,71.22229570625001,71.56860698541668,57.0,76.0
460,71.46819720625001,71.57372993333334,65.0,76.0
461,71.46819720625001,71.60036926250001,69.0,76.0
462,71.46819720625001,71.60241844166667,62.0,76.0
463,71.96000020625002,72.32885245625,57.0,76.0
464,72.20590170625,72.41901633958334,62.0,76.0
465,72.20590170625,72.43336059375001,69.0,76.0
466,72.20590170625,72.43745895208335,65.0,76.0
467,72.45180320625,72.93438490000001,57.0,76.0
468,72.94360620625001,73.09114710625,69.0,76.0
469,72.94360620625001,73.11163889791668,65.0,76.0
470,72.94360620625001,73.18745852708334,62.0,76.0
471,71.71409870625001,73.36061416666668,50.0,76.0
472,73.18950770625001,73.44360592291667,57.0,76.0
473,73.43540920625001,73.60754025625,62.0,76.0
474,73.43540920625001,73.60856484583334,69.0,76.0
475,73.43540920625001,73.60958943541668,65.0,76.0
476,73.92721220625,74.27147430625001,53.0,76.0
477,74.17311370625,74.41286766875001,57.0,76.0
478,73.68131070625002,74.47331845416667,41.0,76.0
479,74.17311370625,74.47639222291667,60.0,76.0
480,74.17311370625,74.47844140208335,65.0,76.0
481,74.41901520625001,74.63930196666668,53.0,76.0
482,74.91081820625001,75.24995735833335,55.0,76.0
483,75.15671970625002,75.37188351875001,59.0,76.0
484,75.15671970625002,75.41594087083334,62.0,76.0
485,75.15671970625002,75.42413758750001,67.0,76.0
486,74.66491670625001,75.50917852291667,43.0,76.0
487,75.40262120625,75.57372766666667,55.0,76.0
488,75.89442420625001,76.23868630625002,55.0,76.0
489,76.14032570625001,76.28376824791668,64.0,76.0
490,76.14032570625001,76.30630921875002,67.0,76.0
491,76.14032570625001,76.31348134583334,60.0,76.0
492,76.38622720625001,76.91184166250001,55.0,76.0
493,76.87803020625002,77.03479241250001,60.0,76.0
494,76.87803020625002,77.08602189166668,64.0,76.0
495,76.87803020625002,77.13520219166668,67.0,76.0
496,75.64852270625,77.33089880208334,48.0,76.0
497,77.12393170625,77.40774302083334,55.0,76.0
498,77.36983320625001,77.45487414166668,64.0,76.0
499,77.36983320625001,77.45692332083334,60.0,76.0
500,77.36983320625001,77.47331675416667,67.0,76.0
501,77.86163620625001,78.20999666458334,57.0,76.0
502,77.61573470625001,78.22024256041668,50.0,76.0
503,78.10753770625001,78.45179980625001,69.0,76.0
504,78.10753770625001,78.46307029166668,62.0,76.0
505,78.10753770625001,78.50712764375001,65.0,76.0
506,78.84524220625,79.15159449166667,55.0,76.0
507,79.09114370625001,79.33499602708335,62.0,76.0
508,79.09114370625001,79.33499602708335,67.0,76.0
509,79.09114370625001,79.35036487083335,59.0,76.0
510,78.59934070625,79.36880748333334,43.0,76.0
511,79.33704520625001,79.58089752708334,55.0,76.0
512,79.82884820625002,80.16696276875001,55.0,76.0
513,80.07474970625002,80.323724975,60.0,76.0
514,80.07474970625002,80.32782333333334,64.0,76.0
515,80.07474970625002,80.36470855833335,67.0,76.0
516,80.32065120625,80.84011812500002,55.0,76.0
517,80.81245420625001,81.10036387916668,64.0,76.0
518,80.81245420625001,81.10343764791668,60.0,76.0
519,80.81245420625001,81.11880649166667,67.0,76.0
520,81.05835570625001,81.26327362291667,55.0,76.0
521,79.58294670625001,81.27044575000001,48.0,76.0
522,81.30425720625001,81.53786363125,67.0,76.0
523,81.30425720625001,81.53888822083334,64.0,76.0
524,81.30425720625001,81.54810952708334,60.0,76.0
525,81.79606020625,82.23048618958335,55.0,76.0
526,82.04196170625,82.55220731875,64.0,76.0
527,82.04196170625,82.55835485625,60.0,76.0
528,82.04196170625,82.56962534166668,67.0,76.0
529,82.28786320625001,82.80835471458334,55.0,76.0
530,82.77966620625001,83.03478901250001,60.0,76.0
531,82.77966620625001,83.06757587916668,64.0,76.0
532,82.77966620625001,83.08089554375002,67.0,76.0
533,81.55015870625002,83.33191999166668,48.0,76.0
534,83.02556770625002,83.33806752916668,55.0,76.0
535,83.27146920625002,83.44667402500001,60.0,76.0
536,83.27146920625002,83.45999368958334,64.0,76.0
537,83.27146920625002,83.48458383958335,67.0,76.0
538,83.76327220625001,84.1536408375,59.0,76.0
539,84.00917370625001,84.32884565625001,67.0,76.0
540,84.00917370625001,84.33191942500001,64.0,76.0
541,84.00917370625001,84.33191942500001,71.0,76.0
542,84.25507520625001,84.80015686458334,59.0,76.0
543,84.74687820625002,84.99073052708334,64.0,76.0
544,84.74687820625002,84.99995183333334,71.0,76.0
545,84.74687820625002,85.00302560208334,67.0,76.0
546,83.51737070625,85.22126318333335,52.0,76.0
547,84.99277970625,85.24277956458334,59.0,76.0
548,85.23868120625,85.45179583958334,67.0,76.0
549,85.23868120625,85.46204173541668,71.0,76.0
550,85.23868120625,85.48253352708335,64.0,76.0
551,85.73048420625001,86.10138563541668,57.0,76.0
552,85.97638570625001,86.55835258958335,69.0,76.0
553,85.97638570625001,86.56040176875001,60.0,76.0
554,85.97638570625001,86.56654930625001,64.0,76.0
555,86.22228720625002,86.82269670208335,57.0,76.0
556,86.71409020625,87.00302446875001,69.0,76.0
557,86.71409020625,87.01224577500001,60.0,76.0
558,86.71409020625,87.02146708125001,64.0,76.0
559,86.95999170625001,87.15568831666668,57.0,76.0
560,85.48458270625001,87.28478660416668,45.0,76.0
561,87.20589320625001,87.33191772500001,64.0,76.0
562,87.20589320625001,87.33601608333335,69.0,76.0
563,87.20589320625001,87.3503603375,60.0,76.0
564,87.69769620625001,88.05015502291668,53.0,76.0
565,87.94359770625002,88.25404835,57.0,76.0
566,87.94359770625002,88.39646630208334,60.0,76.0
567,87.94359770625002,88.42208104166667,65.0,76.0
568,88.18949920625,88.74687593958335,53.0,76.0
569,88.68130220625001,88.87904799583335,57.0,76.0
570,88.68130220625001,88.93847419166669,60.0,76.0
571,88.68130220625001,88.94974467708334,65.0,76.0
572,88.92720370625001,89.14646587708334,53.0,76.0
573,87.45179470625001,89.22126091666668,41.0,76.0
574,89.17310520625001,89.40466245208334,57.0,76.0
575,89.17310520625001,89.41695752708334,60.0,76.0
576,89.17310520625001,89.43130178125001,65.0,76.0
577,89.66490820625002,89.90876052708334,50.0,76.0
578,89.91080970625,90.49380117916668,53.0,76.0
579,89.91080970625,90.50609625416668,50.0,76.0
580,89.91080970625,90.51121920208334,62.0,76.0
581,89.91080970625,90.51634215000001,57.0,76.0
582,89.41900670625002,90.89236652708334,38.0,76.0
583,90.64851420625001,90.89236652708334,50.0,76.0
584,90.64851420625001,90.89236652708334,53.0,76.0
585,90.64851420625001,90.89236652708334,57.0,76.0
586,90.64851420625001,90.89236652708334,62.0,76.0
587,91.14031720625002,91.36572691458335,62.0,76.0
588,91.14031720625002,91.38416952708334,53.0,76.0
589,91.14031720625002,91.38416952708334,57.0,76.0
590,91.63212020625001,91.87597252708335,55.0,76.0
591,91.87802170625001,92.16695596875002,67.0,76.0
592,91.87802170625001,92.19461988750001,59.0,76.0
593,91.87802170625001,92.19666906666667,62.0,76.0
594,91.87802170625001,92.24482477708335,55.0,76.0
595,91.38621870625,92.36777552708335,43.0,76.0
596,92.61572620625002,92.76634087500001,59.0,76.0
597,92.61572620625002,92.86367688541668,62.0,76.0
598,92.61572620625002,92.88007031875001,67.0,76.0
599,92.86162770625002,93.22945536666668,55.0,76.0
600,93.10752920625,93.27043895000001,59.0,76.0
601,93.10752920625,93.30527499583334,67.0,76.0
602,93.10752920625,93.32064383958334,62.0,76.0
603,93.59933220625001,93.84318452708335,55.0,76.0
604,93.84523370625001,94.16183188750001,60.0,76.0
605,93.84523370625001,94.19052039583335,64.0,76.0
606,93.84523370625001,94.19154498541668,67.0,76.0
607,93.84523370625001,94.21203677708334,55.0,76.0
608,94.58293820625,94.87084787916667,60.0,76.0
609,94.58293820625,94.88519213333335,64.0,76.0
610,94.58293820625,94.88519213333335,67.0,76.0
611,94.58293820625,94.94974127708335,55.0,76.0
612,93.35343070625001,95.16592967916668,48.0,76.0
613,95.07474120625001,95.31859352708335,60.0,76.0
614,95.07474120625001,95.31859352708335,64.0,76.0
615,95.07474120625001,95.31859352708335,67.0,76.0
616,95.56654420625001,95.81039652708334,55.0,76.0
617,95.81244570625002,96.09523243125001,67.0,76.0
618,95.81244570625002,96.10957668541668,64.0,76.0
619,95.81244570625002,96.11162586458335,60.0,76.0
620,96.05834720625002,96.59420755833335,55.0,76.0
621,96.55015020625001,96.82269103541668,60.0,73.0
622,96.55015020625001,96.83498611041668,67.0,73.0
623,96.55015020625001,96.84933036458335,64.0,73.0
624,96.79605170625001,97.12187119375001,55.0,73.0
625,95.32064270625001,97.12904332083335,48.0,76.0
626,97.04195320625001,97.28580552708334,60.0,73.0
627,97.04195320625001,97.28580552708334,67.0,73.0
628,97.04195320625001,97.28887929583334,64.0,73.0
629,97.53375620625002,97.91387894166668,55.0,73.0
630,97.77965770625,98.03273133333334,67.0,73.0
631,97.77965770625,98.04502640833334,60.0,73.0
632,97.77965770625,98.04810017708334,64.0,73.0
633,98.02555920625001,98.58805888750001,55.0,73.0
634,98.51736220625001,98.74891945208334,60.0,73.0
635,98.51736220625001,98.78887844583335,64.0,73.0
636,98.51736220625001,98.79605057291668,67.0,73.0
637,97.28785470625002,99.07268976041668,48.0,73.0
638,98.76326370625002,99.10240285833335,55.0,73.0
639,99.00916520625002,99.12699300833334,60.0,73.0
640,99.00916520625002,99.12699300833334,64.0,73.0
641,99.00916520625002,99.15568151666668,67.0,73.0
642,99.74686970625001,99.85445161250001,67.0,73.0
643,99.74686970625001,99.85957456041668,64.0,73.0
644,99.74686970625001,99.88416471041668,60.0,73.0
645,99.50096820625001,99.91490239791668,55.0,73.0
646,99.99277120625001,100.49277092291668,55.0,73.0
647,100.48457420625002,100.60650036666668,60.0,73.0
648,100.48457420625002,100.68539376458335,67.0,73.0
649,100.48457420625002,100.69973801875001,64.0,73.0
650,100.73047570625002,101.00916407291668,55.0,73.0
651,99.25506670625002,101.01018866250001,48.0,73.0
652,100.97637720625,101.08805747083335,60.0,73.0
653,100.97637720625,101.10445090416668,64.0,73.0
654,100.97637720625,101.11469680000002,67.0,73.0
655,101.46818020625001,101.8708439125,57.0,73.0
656,101.71408170625001,101.96613074375001,65.0,73.0
657,101.71408170625001,101.97535205000001,69.0,73.0
658,101.71408170625001,101.98457335625001,62.0,73.0
659,101.95998320625002,102.51428617083334,57.0,73.0
660,102.45178620625002,102.73764670000001,62.0,73.0
661,102.45178620625002,102.74789259583335,69.0,73.0
662,102.45178620625002,102.75404013333335,65.0,73.0
663,101.22227870625001,103.02145801458335,50.0,73.0
664,102.69768770625001,103.04399898541668,57.0,73.0
665,102.94358920625001,103.04912193333335,65.0,73.0
666,102.94358920625001,103.07576126250001,69.0,73.0
667,102.94358920625001,103.07781044166668,62.0,73.0
668,103.43539220625001,103.80424445625002,57.0,73.0
669,103.68129370625002,103.89440833958335,62.0,73.0
670,103.68129370625002,103.90875259375001,69.0,73.0
671,103.68129370625002,103.91285095208335,65.0,73.0
672,103.92719520625002,104.40977690000001,57.0,73.0
673,104.41899820625001,104.56653910625002,69.0,71.0
674,104.41899820625001,104.58703089791668,65.0,71.0
675,104.41899820625001,104.66285052708335,62.0,71.0
676,103.18949070625001,104.83600616666668,50.0,73.0
677,104.66489970625001,104.91899792291667,57.0,69.0
678,104.91080120625001,105.08293225625002,62.0,69.0
679,104.91080120625001,105.08395684583334,69.0,69.0
680,104.91080120625001,105.08498143541668,65.0,69.0
681,105.40260420625002,105.74686630625001,53.0,69.0
682,105.64850570625002,105.88825966875001,57.0,69.0
683,105.15670270625002,105.94871045416669,41.0,69.0
684,105.64850570625002,105.95178422291669,60.0,69.0
685,105.64850570625002,105.95383340208335,65.0,69.0
686,105.89440720625001,106.11469396666668,53.0,69.0
687,106.38621020625001,106.72534935833335,55.0,69.0
688,106.63211170625002,106.84727551875001,59.0,69.0
689,106.63211170625002,106.89133287083335,62.0,69.0
690,106.63211170625002,106.89952958750001,67.0,69.0
691,106.14030870625001,106.98457052291668,43.0,69.0
692,106.87801320625002,107.04911966666668,55.0,69.0
693,107.36981620625001,107.71407830625002,55.0,69.0
694,107.61571770625001,107.75916024791668,64.0,69.0
695,107.61571770625001,107.78170121875002,67.0,69.0
696,107.61571770625001,107.78887334583335,60.0,69.0
697,107.86161920625001,108.38723366250001,55.0,69.0
698,108.35342220625002,108.51018441250001,60.0,69.0
699,108.35342220625002,108.56141389166667,64.0,69.0
700,108.35342220625002,108.61059419166668,67.0,69.0
701,107.12391470625002,108.80629080208335,48.0,69.0
702,108.59932370625002,108.88313502083335,55.0,69.0
703,108.84522520625002,108.93026614166668,64.0,69.0
704,108.84522520625002,108.93231532083335,60.0,69.0
705,108.84522520625002,108.94870875416669,67.0,69.0
706,109.33702820625001,109.72022471041669,57.0,69.0
707,109.58292970625001,109.97637210625001,60.0,69.0
708,109.58292970625001,110.02452781666668,64.0,69.0
709,109.58292970625001,110.03784748125001,69.0,69.0
710,109.82883120625002,110.36878991666669,57.0,69.0
711,110.32063420625002,110.56448652708335,60.0,69.0
712,110.32063420625002,110.56448652708335,64.0,69.0
713,110.32063420625002,110.56448652708335,69.0,69.0
714,110.56653570625002,110.78477328750002,57.0,69.0
715,109.09112670625001,110.82063392291668,45.0,69.0
716,110.81243720625001,111.05628952708335,60.0,69.0
717,110.81243720625001,111.05628952708335,64.0,69.0
718,110.81243720625001,111.05628952708335,69.0,69.0
719,111.30424020625001,111.69563342708335,55.0,69.0
720,111.55014170625002,111.79399402708334,59.0,69.0
721,111.55014170625002,111.79399402708334,62.0,69.0
722,111.55014170625002,111.79399402708334,67.0,69.0
723,111.79604320625002,112.40669859791669,55.0,69.0
724,112.28784620625001,112.53169852708335,59.0,69.0
725,112.28784620625001,112.53169852708335,62.0,69.0
726,112.28784620625001,112.53169852708335,67.0,69.0
727,111.05833870625001,112.78682133333335,43.0,69.0
728,112.53374770625001,112.85854260416669,55.0,69.0
729,112.77964920625001,112.90772290416668,67.0,69.0
730,112.77964920625001,112.90977208333335,59.0,69.0
731,112.77964920625001,112.92411633750001,62.0,69.0
732,113.27145220625002,113.65157494166668,55.0,69.0
733,113.51735370625002,113.77042733333334,67.0,69.0
734,113.51735370625002,113.78272240833334,60.0,69.0
735,113.51735370625002,113.78579617708336,64.0,69.0
736,113.76325520625002,114.32575488750001,55.0,69.0
737,114.25505820625001,114.48661545208334,60.0,69.0
738,114.25505820625001,114.52657444583335,64.0,69.0
739,114.25505820625001,114.53374657291668,67.0,69.0
740,113.02555070625002,114.81038576041668,48.0,69.0
741,114.50095970625001,114.84009885833335,55.0,69.0
742,114.74686120625002,114.86468900833334,60.0,69.0
743,114.74686120625002,114.86468900833334,64.0,69.0
744,114.74686120625002,114.89337751666669,67.0,69.0
745,115.48456570625001,115.59214761250001,67.0,69.0
746,115.48456570625001,115.59727056041669,64.0,69.0
747,115.48456570625001,115.62186071041668,60.0,69.0
748,115.23866420625002,115.65259839791668,55.0,69.0
749,115.73046720625001,116.23046692291668,55.0,69.0
750,116.22227020625002,116.34419636666668,60.0,69.0
751,116.22227020625002,116.42308976458335,67.0,69.0
752,116.22227020625002,116.43743401875001,64.0,69.0
753,116.46817170625002,116.74686007291669,55.0,69.0
754,114.99276270625002,116.74788466250001,48.0,69.0
755,116.71407320625002,116.82575347083335,60.0,69.0
756,116.71407320625002,116.84214690416668,64.0,69.0
757,116.71407320625002,116.85239280000002,67.0,69.0
758,117.20587620625001,117.60853991250002,57.0,69.0
759,117.45177770625001,117.70382674375001,65.0,69.0
760,117.45177770625001,117.71304805000001,69.0,69.0
761,117.45177770625001,117.72226935625001,62.0,69.0
762,117.69767920625002,118.25198217083334,57.0,69.0
763,118.18948220625002,118.47534270000001,62.0,69.0
764,118.18948220625002,118.48558859583335,69.0,69.0
765,118.18948220625002,118.49173613333335,65.0,69.0
766,116.95997470625002,118.75915401458334,50.0,69.0
767,118.43538370625002,118.78169498541668,57.0,69.0
768,118.68128520625001,118.78681793333335,65.0,69.0
769,118.68128520625001,118.81345726250002,69.0,69.0
770,118.68128520625001,118.81550644166668,62.0,69.0
771,119.17308820625001,119.54194045625002,57.0,69.0
772,119.41898970625002,119.63210433958335,62.0,69.0
773,119.41898970625002,119.64644859375002,69.0,69.0
774,119.41898970625002,119.65054695208335,65.0,69.0
775,119.66489120625002,120.14747290000001,57.0,69.0
776,120.15669420625002,120.30423510625002,69.0,69.0
777,120.15669420625002,120.32472689791668,65.0,69.0
778,120.15669420625002,120.40054652708335,62.0,69.0
779,118.92718670625001,120.57370216666668,50.0,69.0
780,120.40259570625001,120.65669392291669,57.0,69.0
781,120.64849720625001,120.82062825625002,62.0,69.0
782,120.64849720625001,120.82165284583336,69.0,69.0
783,120.64849720625001,120.82267743541668,65.0,69.0
784,121.14030020625002,121.48456230625001,53.0,69.0
785,121.38620170625002,121.62595566875001,57.0,69.0
786,120.89439870625002,121.68640645416669,41.0,69.0
787,121.38620170625002,121.68948022291669,60.0,69.0
788,121.38620170625002,121.69152940208335,65.0,69.0
789,121.63210320625002,121.85238996666668,53.0,69.0
790,122.12390620625001,122.46304535833335,55.0,69.0
791,122.36980770625001,122.58497151875001,59.0,69.0
792,122.36980770625001,122.62902887083335,62.0,69.0
793,122.36980770625001,122.63722558750001,67.0,69.0
794,121.87800470625001,122.72226652291668,43.0,69.0
795,122.61570920625002,122.78681566666668,55.0,69.0
796,123.10751220625002,123.45177430625002,55.0,69.0
797,123.35341370625002,123.49685624791668,64.0,69.0
798,123.35341370625002,123.51939721875002,67.0,69.0
799,123.35341370625002,123.52656934583335,60.0,69.0
800,123.59931520625001,124.12492966250002,55.0,69.0
801,124.09111820625002,124.24788041250002,60.0,69.0
802,124.09111820625002,124.29910989166669,64.0,69.0
803,124.09111820625002,124.34829019166668,67.0,69.0
804,122.86161070625002,124.54398680208335,48.0,69.0
805,124.33701970625002,124.62083102083335,55.0,69.0
806,124.58292120625002,124.66796214166668,64.0,71.0
807,124.58292120625002,124.67001132083335,60.0,71.0
808,124.58292120625002,124.68640475416669,67.0,71.0
809,125.07472420625001,125.42308466458336,57.0,71.0
810,124.82882270625002,125.43333056041668,50.0,71.0
811,125.32062570625001,125.66488780625002,69.0,71.0
812,125.32062570625001,125.67615829166668,62.0,71.0
813,125.32062570625001,125.72021564375002,65.0,71.0
814,126.05833020625002,126.36468249166668,55.0,71.0
815,126.30423170625002,126.54808402708335,62.0,71.0
816,126.30423170625002,126.54808402708335,67.0,71.0
817,126.30423170625002,126.56345287083334,59.0,71.0
818,125.81242870625002,126.58189548333335,43.0,71.0
819,126.55013320625002,126.79398552708335,55.0,71.0
820,127.04193620625001,127.38005076875002,55.0,71.0
821,127.28783770625002,127.53681297500002,60.0,71.0
822,127.28783770625002,127.54091133333336,64.0,71.0
823,127.28783770625002,127.57779655833335,67.0,71.0
824,127.53373920625002,128.05320612500003,55.0,71.0
825,128.02554220625,128.31345187916668,64.0,71.0
826,128.02554220625,128.31652564791668,60.0,71.0
827,128.02554220625,128.33189449166667,67.0,71.0
828,128.27144370625,128.47636162291667,55.0,71.0
829,126.79603470625001,128.48353375000002,48.0,71.0
830,128.51734520625,128.75095163125002,67.0,71.0
831,128.51734520625,128.75197622083334,64.0,71.0
832,128.51734520625,128.76119752708334,60.0,71.0
833,129.00914820625002,129.47636105625003,53.0,71.0
834,128.76324670625002,129.59828721666668,41.0,71.0
835,129.25504970625002,129.69050027916668,57.0,71.0
836,129.25504970625002,129.73250845208335,60.0,71.0
837,129.25504970625002,129.73250845208335,65.0,71.0
838,129.74685270625002,130.51734407291667,41.0,71.0
839,129.99275420625003,130.56242601458334,53.0,71.0
840,130.23865570625003,130.7027947875,57.0,71.0
841,130.23865570625003,130.72533575833336,65.0,71.0
842,130.23865570625003,130.74172919166668,60.0,71.0
843,130.97636020625,131.3042288729167,53.0,71.0
844,131.22226170625,131.47533533333336,57.0,71.0
845,131.22226170625,131.51017137916668,60.0,71.0
846,131.22226170625,131.52041727500003,65.0,71.0
847,131.46816320625,132.00094978958336,53.0,71.0
848,131.95996620625002,132.13926938333336,57.0,71.0
849,131.95996620625002,132.18435132500002,60.0,71.0
850,131.95996620625002,132.1956218104167,65.0,71.0
851,130.73045870625,132.37390039791669,41.0,71.0
852,132.20586770625002,132.48353148333334,53.0,71.0
853,132.45176920625002,132.60340846458334,57.0,71.0
854,132.45176920625002,132.6167281291667,60.0,71.0
855,132.45176920625002,132.62390025625,65.0,71.0
856,132.94357220625002,133.46303912500002,55.0,71.0
857,132.69767070625002,133.49070304375002,48.0,71.0
858,133.18947370625003,133.71508816250002,60.0,71.0
859,133.18947370625003,133.7263586479167,64.0,71.0
860,133.18947370625003,133.75197338750002,67.0,71.0
861,133.68127670625003,134.45074348333335,48.0,71.0
862,133.92717820625,134.46303855833335,55.0,71.0
863,134.17307970625,134.6392679666667,60.0,71.0
864,134.17307970625,134.66488270625,64.0,71.0
865,134.17307970625,134.68127613958336,67.0,71.0
866,134.91078420625,135.18230044583336,55.0,73.0
867,134.66488270625,135.23660369375003,48.0,73.0
868,135.15668570625002,135.5183658291667,60.0,73.0
869,135.15668570625002,135.5521772854167,64.0,73.0
870,135.15668570625002,135.57061989791669,67.0,73.0
871,135.40258720625002,136.2232834625,48.0,73.0
872,135.89439020625002,136.24070148541668,55.0,73.0
873,136.14029170625003,136.42615220000002,67.0,73.0
874,136.14029170625003,136.4343489166667,60.0,73.0
875,136.14029170625003,136.47328332083336,64.0,73.0
876,136.87799620625003,137.31856972708334,53.0,73.0
877,136.63209470625003,137.49070077708336,41.0,73.0
878,137.12389770625,137.6023810416667,65.0,73.0
879,137.12389770625,137.62184824375,57.0,73.0
880,137.12389770625,137.64234003541668,60.0,73.0
881,137.61570070625,138.35442979583334,41.0,73.0
882,137.86160220625,138.36877405,53.0,73.0
883,138.10750370625001,138.60340506458334,57.0,73.0
884,138.10750370625001,138.63106898333336,60.0,73.0
885,138.10750370625001,138.6320935729167,65.0,73.0
886,138.84520820625002,139.08906052708335,53.0,73.0
887,139.09110970625002,139.33496202708335,57.0,73.0
888,139.09110970625002,139.34110956458335,60.0,73.0
889,139.09110970625002,139.3513554604167,65.0,73.0
890,139.33701120625003,139.83291256458335,53.0,73.0
891,139.82881420625003,140.04500260833336,65.0,73.0
892,139.82881420625003,140.05012555625,60.0,73.0
893,138.59930670625002,140.07266652708336,41.0,73.0
894,139.82881420625003,140.07266652708336,57.0,73.0
895,140.07471570625003,140.28987951875,53.0,73.0
896,140.32061720625,140.56446952708336,57.0,73.0
897,140.32061720625,140.56446952708336,60.0,73.0
898,140.32061720625,140.56446952708336,65.0,73.0
899,140.81242020625,141.18537081458337,50.0,73.0
900,141.05832170625,141.3031986166667,57.0,76.0
901,141.05832170625,141.30524779583334,54.0,76.0
902,141.05832170625,141.31139533333337,62.0,76.0
903,141.30422320625001,141.58496075208336,50.0,76.0
904,141.55012470625002,141.8042229229167,57.0,76.0
905,141.55012470625002,141.8072966916667,54.0,76.0
906,141.55012470625002,141.8072966916667,62.0,76.0
907,141.79602620625002,142.0347555791667,50.0,76.0
908,142.16487845625002,142.34930458125,50.0,76.0
909,142.04192770625002,142.38106685833336,57.0,76.0
910,140.56651870625,142.38414062708335,38.0,73.0
911,142.04192770625002,142.40873077708335,54.0,76.0
912,142.04192770625002,142.41692749375002,62.0,76.0
913,142.77963220625003,143.09725497708337,50.0,76.0
914,143.02553370625003,143.23250080208336,55.0,76.0
915,143.02553370625003,143.26118931041668,62.0,76.0
916,143.02553370625003,143.26631225833336,59.0,76.0
917,143.27143520625003,143.54500062500003,50.0,76.0
918,143.51733670625,143.76938574375,55.0,76.0
919,143.51733670625,143.79295130416668,62.0,76.0
920,143.51733670625,143.80012343125003,59.0,76.0
921,143.76323820625,144.00913970625,50.0,76.0
922,144.00913970625,144.2509428479167,55.0,76.0
923,144.00913970625,144.282705125,59.0,76.0
924,144.00913970625,144.28987725208336,62.0,76.0
925,142.53373070625003,144.32983624583335,43.0,76.0
926,144.25504120625,144.49889352708334,50.0,76.0
927,144.50094270625002,144.76528681875,43.0,76.0
928,144.50094270625002,144.99069652708334,50.0,76.0
929,144.50094270625002,144.99069652708334,55.0,76.0
930,144.50094270625002,144.99069652708334,59.0,76.0
931,144.50094270625002,144.99069652708334,62.0,76.0
932,145.23864720625002,145.34520452291667,50.0,76.0
933,145.23864720625002,145.35954877708335,43.0,76.0
934,145.23864720625002,145.35954877708335,55.0,76.0
935,145.23864720625002,145.35954877708335,59.0,76.0
936,145.23864720625002,145.35954877708335,62.0,76.0
937,145.48454870625002,145.60545027708335,43.0,76.0
938,145.48454870625002,145.60545027708335,50.0,76.0
939,145.48454870625002,145.60545027708335,55.0,76.0
940,145.48454870625002,145.60545027708335,59.0,76.0
941,145.48454870625002,145.60545027708335,62.0,76.0
942,145.97635170625003,146.21815484791668,55.0,76.0
943,145.97635170625003,146.21815484791668,59.0,76.0
944,145.97635170625003,146.21815484791668,62.0,76.0
945,145.97635170625003,146.22020402708335,43.0,76.0
946,145.97635170625003,146.23352369166668,50.0,76.0
947,146.71405620625,147.09417894166668,55.0,76.0
948,146.95995770625,147.21303133333336,67.0,76.0
949,146.95995770625,147.22532640833336,60.0,76.0
950,146.95995770625,147.22840017708336,64.0,76.0
951,147.20585920625,147.76724565000004,55.0,76.0
952,147.69689497500002,147.927318925,60.0,76.0
953,147.69689497500002,147.96708235000003,64.0,76.0
954,147.69689497500002,147.97421937500002,67.0,76.0
955,146.46815470625003,148.24950462500001,48.0,76.0
956,147.94159297500002,148.27907230000002,55.0,76.0
957,148.18629097500002,148.30354210000002,60.0,76.0
958,148.18629097500002,148.30354210000002,64.0,76.0
959,148.18629097500002,148.3320902,67.0,76.0
960,148.92038497500002,149.02744035000003,67.0,76.0
961,148.92038497500002,149.03253822500002,64.0,76.0
962,148.92038497500002,149.05700802500002,60.0,76.0
963,148.67568697500002,149.087595275,55.0,76.0
964,149.16508297500002,149.66263557500002,55.0,76.0
965,149.65447897500002,149.77580840000002,60.0,76.0
966,149.65447897500002,149.854315675,67.0,76.0
967,149.65447897500002,149.86858972500002,64.0,76.0
968,149.89917697500002,150.17650137500002,55.0,76.0
969,148.43098897500002,150.17752095000003,48.0,76.0
970,150.14387497500002,150.25500865000004,60.0,76.0
971,150.14387497500002,150.27132185000002,64.0,76.0
972,150.14387497500002,150.28151760000003,67.0,76.0
973,150.63327097500002,151.03396395000001,57.0,76.0
974,150.87796897500002,151.12878442500002,65.0,76.0
975,150.87796897500002,151.1379606,69.0,76.0
976,150.87796897500002,151.14713677500004,62.0,76.0
977,151.12266697500002,151.67425705000002,57.0,76.0
978,151.61206297500001,151.89652440000003,62.0,76.0
979,151.61206297500001,151.90672015,69.0,76.0
980,151.61206297500001,151.91283760000002,65.0,76.0
981,150.38857297500002,152.17894667500002,50.0,76.0
982,151.85676097500001,152.201377325,57.0,76.0
983,152.101458975,152.20647520000003,65.0,76.0
984,152.101458975,152.23298415000002,69.0,76.0
985,152.101458975,152.23502330000002,62.0,76.0
986,152.590854975,152.95790197500003,57.0,76.0
987,152.835552975,153.04762457500001,62.0,76.0
988,152.835552975,153.06189862500003,69.0,76.0
989,152.835552975,153.06597692500003,65.0,76.0
990,153.080250975,153.56047080000002,57.0,76.0
991,153.569646975,153.71646577500002,69.0,76.0
992,153.569646975,153.73685727500003,65.0,76.0
993,153.569646975,153.812305825,62.0,76.0
994,152.346156975,153.98461400000002,50.0,76.0
995,153.814344975,154.06719957500002,57.0,76.0
996,154.059042975,154.23033157500004,62.0,76.0
997,154.059042975,154.23135115000002,69.0,76.0
998,154.059042975,154.232370725,65.0,76.0
999,154.548438975,154.89101617500003,53.0,76.0
1000,154.793136975,155.03171752500003,57.0,76.0
1001,154.303740975,155.09187245,41.0,76.0
1002,154.793136975,155.09493117500003,60.0,76.0
1003,154.793136975,155.09697032500003,65.0,76.0
1004,155.037834975,155.25704360000003,53.0,76.0
1005,155.527230975,155.8647103,55.0,76.0
1006,155.771928975,155.986039725,59.0,76.0
1007,155.771928975,156.02988145000003,62.0,76.0
1008,155.771928975,156.03803805,67.0,76.0
1009,155.282532975,156.122662775,43.0,76.0
1010,156.016626975,156.18689600000002,55.0,76.0
1011,156.506022975,156.84860017500003,55.0,76.0
1012,156.75072097500004,156.893461475,64.0,76.0
1013,156.75072097500004,156.91589212500003,67.0,76.0
1014,156.75072097500004,156.92302915000002,60.0,76.0
1015,156.995418975,157.51846095000002,55.0,76.0
1016,157.48481497500003,157.64080995000003,60.0,76.0
1017,157.48481497500003,157.69178870000002,64.0,76.0
1018,157.48481497500003,157.74072830000003,67.0,76.0
1019,156.26132497500004,157.93546712500003,48.0,76.0
1020,157.72951297500003,158.01193525000002,55.0,76.0
1021,157.97421097500003,158.05883570000003,64.0,76.0
1022,157.97421097500003,158.06087485000003,60.0,76.0
1023,157.97421097500003,158.07718805000002,67.0,76.0
1024,158.46360697500003,158.81026247500003,57.0,76.0
1025,158.21890897500003,158.820458225,50.0,76.0
1026,158.70830497500003,159.05088217500003,69.0,76.0
1027,158.70830497500003,159.06209750000002,62.0,76.0
1028,158.70830497500003,159.10593922500001,65.0,76.0
1029,159.44239897500003,159.7472519,55.0,76.0
1030,159.68709697500003,159.92975582500003,62.0,76.0
1031,159.68709697500003,159.92975582500003,67.0,76.0
1032,159.68709697500003,159.94504945000003,59.0,76.0
1033,159.19770097500003,159.9634018,43.0,76.0
1034,159.93179497500003,160.17445382500003,55.0,76.0
1035,160.42119097500003,160.75765072500002,55.0,76.0
1036,160.66588897500003,160.91364570000002,60.0,76.0
1037,160.66588897500003,160.91772400000002,64.0,76.0
1038,160.66588897500003,160.95442870000002,67.0,76.0
1039,160.91058697500003,161.42751150000004,55.0,76.0
1040,161.39998297500003,161.68648355000002,64.0,76.0
1041,161.39998297500003,161.689542275,60.0,76.0
1042,161.39998297500003,161.70483590000003,67.0,76.0
1043,161.64468097500003,161.84859597500002,55.0,76.0
1044,160.17649297500003,161.85573300000001,48.0,76.0
1045,161.88937897500003,162.12184207500002,67.0,76.0
1046,161.88937897500003,162.12286165000003,64.0,76.0
1047,161.88937897500003,162.13203782500003,60.0,76.0
1048,162.37877497500003,162.73868495000002,55.0,76.0
1049,162.62347297500003,162.97114805,64.0,76.0
1050,162.62347297500003,162.97420677500003,60.0,76.0
1051,162.62347297500003,163.00785275,67.0,76.0
1052,162.86817097500003,163.41160445000003,55.0,76.0
1053,163.35756697500003,163.57983432500004,60.0,76.0
1054,163.35756697500003,163.61144115000002,64.0,76.0
1055,163.35756697500003,163.620617325,67.0,76.0
1056,162.13407697500003,163.88060895,48.0,76.0
1057,163.60226497500003,163.90100045000003,55.0,76.0
1058,163.84696297500003,163.92445067500003,60.0,76.0
1059,163.84696297500003,163.92547025000002,64.0,76.0
1060,163.84696297500003,163.92750940000002,67.0,76.0
1061,164.09166097500002,164.26906702500003,69.0,76.0
1062,164.09166097500002,164.27110617500003,62.0,76.0
1063,164.09166097500002,164.28843895000003,65.0,76.0
1064,164.09166097500002,164.32718280000003,57.0,76.0
1065,164.09166097500002,164.33024152500002,50.0,76.0
1066,164.58105697500002,164.69728852500003,69.0,76.0
1067,164.58105697500002,164.71156257500002,62.0,76.0
1068,164.58105697500002,164.71156257500002,65.0,76.0
1069,164.58105697500002,164.74928685000003,50.0,76.0
1070,164.58105697500002,164.7554043,57.0,76.0
1071,165.07045297500002,165.17444962500002,62.0,76.0
1072,165.07045297500002,165.18464537500003,55.0,76.0
1073,165.07045297500002,165.18464537500003,59.0,76.0
1074,165.07045297500002,165.18566495000002,65.0,76.0
1075,165.07045297500002,165.20299772500002,43.0,76.0
1076,165.31515097500002,165.52008555000003,43.0,76.0
1077,165.31515097500002,165.53232045000001,59.0,76.0
1078,165.31515097500002,165.545574925,62.0,76.0
1079,165.31515097500002,165.54863365000003,65.0,76.0
1080,165.31515097500002,165.55067280000003,55.0,76.0
1081,165.80454697500002,166.29190382500002,43.0,76.0
1082,166.29394297500002,166.5090733,41.0,76.0
1083,165.80454697500002,166.524366925,59.0,76.0
1084,165.80454697500002,166.53252352500002,62.0,76.0
1085,165.80454697500002,166.53660182500002,55.0,76.0
1086,165.80454697500002,166.53660182500002,65.0,76.0
1087,166.53864097500002,168.61653482500003,36.0,76.0
1088,166.53864097500002,168.61653482500003,48.0,76.0
1089,166.53864097500002,168.61653482500003,52.0,76.0
1090,166.53864097500002,168.61653482500003,55.0,76.0
