,start,end,pitch,velocity
0,44.12679116666667,44.34737916666667,64.0,87.0
1,44.34737916666667,44.56796716666667,67.0,102.0
2,44.56796716666667,45.00730493333334,71.0,113.0
3,45.00914316666667,45.448480933333336,71.0,108.0
4,45.45031916666667,45.713186533333335,71.0,116.0
5,45.67090716666667,45.89149516666667,69.0,96.0
6,45.89149516666667,46.11208316666667,67.0,92.0
7,46.11208316666667,47.65619916666667,71.0,119.0
8,47.65619916666667,47.8951695,69.0,104.0
9,47.876787166666674,48.09737516666667,67.0,96.0
10,48.09737516666667,48.536712933333334,69.0,110.0
11,48.53855116666667,48.97972716666667,69.0,104.0
12,48.97972716666667,49.19847693333334,62.0,102.0
13,49.20031516666667,49.42090316666667,62.0,93.0
14,49.42090316666667,49.64149116666667,67.0,110.0
15,49.64149116666667,51.62678316666667,64.0,100.0
16,51.62678316666667,51.84553293333334,67.0,116.0
17,51.84737116666667,52.06612093333334,67.0,100.0
18,52.06795916666667,52.29957656666667,67.0,102.0
19,52.28854716666667,52.509135166666674,66.0,97.0
20,52.509135166666674,52.72972316666667,64.0,93.0
21,52.72972316666667,53.169060933333334,67.0,107.0
22,53.17089916666667,53.39148716666667,67.0,87.0
23,53.39148716666667,53.61023693333334,71.0,93.0
24,53.61207516666667,53.83082493333334,71.0,98.0
25,53.83266316666667,54.05141293333334,71.0,102.0
26,54.05325116666667,54.27383916666667,71.0,98.0
27,54.27383916666667,54.52751536666667,74.0,93.0
28,54.49442716666667,55.15619116666667,71.0,91.0
29,55.15619116666667,55.7756758,69.0,92.0
30,55.59736716666667,56.25913116666667,71.0,91.0
31,56.25913116666667,56.47971916666667,69.0,97.0
32,56.47971916666667,58.24442316666667,71.0,97.0
33,58.24442316666667,58.46501116666667,64.0,87.0
34,58.46501116666667,58.68559916666667,67.0,102.0
35,58.68559916666667,59.12493693333334,71.0,113.0
36,59.12677516666667,59.566112933333336,71.0,108.0
37,59.567951166666674,59.830818533333336,71.0,116.0
38,59.78853916666667,60.00912716666667,69.0,96.0
39,60.00912716666667,60.22971516666667,67.0,92.0
40,60.22971516666667,61.773831166666675,71.0,119.0
41,61.773831166666675,62.0128015,69.0,104.0
42,61.994419166666674,62.21500716666667,67.0,96.0
43,62.21500716666667,62.433756933333335,69.0,110.0
44,62.43559516666667,63.09735916666667,69.0,104.0
45,63.09735916666667,63.31610893333334,62.0,102.0
46,63.31794716666667,63.53853516666667,62.0,93.0
47,63.53853516666667,63.75912316666667,67.0,110.0
48,63.75912316666667,65.74441516666667,64.0,100.0
49,65.74441516666667,65.96316493333333,67.0,116.0
50,65.96500316666668,66.18375293333334,67.0,100.0
51,66.18559116666667,66.41720856666667,67.0,102.0
52,66.40617916666667,66.62676716666667,66.0,97.0
53,66.62676716666667,66.84735516666667,64.0,93.0
54,66.84735516666667,67.06610493333334,67.0,107.0
55,67.06794316666667,67.50911916666668,67.0,87.0
56,67.50911916666668,67.72786893333334,71.0,93.0
57,67.72970716666667,67.94845693333333,71.0,98.0
58,67.95029516666668,68.16904493333334,71.0,102.0
59,68.17088316666667,68.39147116666668,71.0,98.0
60,68.39147116666668,68.64514736666668,74.0,93.0
61,68.61205916666667,69.05323516666667,71.0,91.0
62,69.05323516666667,69.27382316666667,69.0,86.0
63,69.27382316666667,69.71499916666667,67.0,98.0
64,69.71499916666667,69.94845480000001,69.0,107.0
65,69.93558716666668,70.1690428,67.0,88.0
66,70.15617516666667,70.59735116666667,66.0,95.0
67,70.59735116666667,70.84551266666668,62.0,100.0
68,70.81793916666668,72.80323116666668,64.0,100.0
69,72.80323116666668,73.02198093333334,69.0,114.0
70,73.02381916666667,73.24256893333335,69.0,93.0
71,73.24440716666668,73.46315693333334,69.0,94.0
72,73.46499516666667,73.68558316666667,69.0,94.0
73,73.68558316666667,73.90617116666667,64.0,91.0
74,73.90617116666667,74.34734716666667,69.0,110.0
75,74.34734716666667,76.33263916666667,67.0,108.0
76,76.33263916666667,76.55138893333334,66.0,119.0
77,76.55322716666667,76.77197693333333,66.0,100.0
78,76.77381516666668,76.99256493333334,66.0,91.0
79,76.99440316666667,77.21315293333333,66.0,93.0
80,77.21499116666668,77.43557916666667,66.0,109.0
81,77.43557916666667,77.87675516666667,62.0,102.0
82,77.87675516666667,79.86204716666667,64.0,102.0
83,79.86204716666667,80.08079693333335,69.0,102.0
84,80.08263516666668,80.30138493333334,69.0,108.0
85,80.30322316666667,80.52197293333334,69.0,89.0
86,80.52381116666668,80.74439916666667,69.0,96.0
87,80.74439916666667,80.96498716666667,64.0,104.0
88,80.96498716666667,81.40616316666667,69.0,110.0
89,81.40616316666667,81.84550093333334,67.0,108.0
90,81.84733916666667,82.06608893333333,67.0,100.0
91,82.06792716666668,82.28667693333334,67.0,96.0
92,82.28851516666667,82.50910316666668,67.0,94.0
93,82.50910316666668,82.72969116666667,69.0,108.0
94,82.72969116666667,83.17086716666667,67.0,100.0
95,83.17086716666667,83.39145516666667,69.0,89.0
96,83.39145516666667,86.25909916666667,71.0,113.0
97,86.25909916666667,86.47968716666668,74.0,116.0
98,86.47968716666668,86.69843693333334,71.0,98.0
99,86.70027516666667,86.92086316666668,71.0,108.0
100,86.92086316666668,87.36020093333335,76.0,119.0
101,87.36203916666668,87.80321516666667,76.0,89.0
102,87.80321516666667,88.02380316666667,71.0,110.0
103,88.02380316666667,88.68556716666667,76.0,113.0
104,88.68556716666667,89.78850716666668,74.0,116.0
105,89.78850716666668,90.00725693333334,71.0,113.0
106,90.00909516666667,90.22968316666667,71.0,110.0
107,90.22968316666667,90.45027116666667,74.0,108.0
108,90.45027116666667,90.88960893333334,78.0,119.0
109,90.89144716666668,91.33078493333333,78.0,119.0
110,91.33262316666668,91.55321116666667,78.0,119.0
111,91.55321116666667,91.99438716666667,74.0,113.0
112,91.99438716666667,93.75909116666668,71.0,116.0
113,93.75909116666668,94.19842893333335,72.0,114.0
114,94.20026716666668,94.41901693333334,72.0,108.0
115,94.42085516666667,94.64144316666668,72.0,113.0
116,94.64144316666668,94.86203116666667,71.0,108.0
117,94.86203116666667,95.08261916666667,69.0,100.0
118,95.08261916666667,95.52379516666667,72.0,117.0
119,95.52379516666667,95.96313293333334,71.0,108.0
120,95.96497116666667,96.18372093333335,71.0,100.0
121,96.18555916666668,96.40614716666667,71.0,107.0
122,96.40614716666667,96.62489693333335,69.0,100.0
123,96.62673516666668,96.84732316666667,69.0,98.0
124,96.84732316666667,97.28666093333334,67.0,104.0
125,97.28849916666667,97.50908716666667,67.0,113.0
126,97.50908716666667,98.39143916666667,76.0,114.0
127,98.39143916666667,98.83261516666667,74.0,116.0
128,98.83261516666667,99.08261490000001,71.0,108.0
129,99.05320316666668,100.37673116666667,69.0,113.0
130,100.37673116666667,100.59731916666668,74.0,116.0
131,100.59731916666668,100.81606893333334,71.0,98.0
132,100.81790716666667,101.03849516666668,71.0,108.0
133,101.03849516666668,101.47783293333335,76.0,119.0
134,101.47967116666668,101.92084716666668,76.0,89.0
135,101.92084716666668,102.14143516666667,71.0,110.0
136,102.14143516666667,102.80319916666667,76.0,113.0
137,102.80319916666667,103.90613916666668,74.0,116.0
138,103.90613916666668,104.12488893333334,71.0,113.0
139,104.12672716666667,104.34731516666668,71.0,110.0
140,104.34731516666668,104.56790316666668,74.0,108.0
141,104.56790316666668,105.00724093333334,78.0,119.0
142,105.00907916666668,105.44841693333335,78.0,119.0
143,105.45025516666668,105.67084316666667,78.0,119.0
144,105.67084316666667,106.11201916666667,74.0,113.0
145,106.11201916666667,107.87672316666668,71.0,116.0
146,107.87672316666668,108.31606093333335,72.0,114.0
147,108.31789916666668,108.53664893333334,72.0,108.0
148,108.53848716666667,108.75907516666668,72.0,113.0
149,108.75907516666668,108.97966316666667,71.0,108.0
150,108.97966316666667,109.20025116666667,69.0,100.0
151,109.20025116666667,109.64142716666667,72.0,117.0
152,109.64142716666667,110.08076493333334,71.0,108.0
153,110.08260316666667,110.30135293333335,71.0,100.0
154,110.30319116666668,110.52377916666667,71.0,107.0
155,110.52377916666667,110.74252893333335,69.0,100.0
156,110.74436716666668,110.96495516666667,69.0,98.0
157,110.96495516666667,111.40429293333334,67.0,104.0
158,111.40613116666667,111.62671916666667,67.0,113.0
159,111.62671916666667,112.28664493333333,76.0,114.0
160,112.28848316666668,112.50907116666667,76.0,113.0
161,112.50907116666667,112.72965916666668,74.0,107.0
162,112.72965916666668,113.17083516666668,71.0,110.0
163,113.17083516666668,115.59730316666668,76.0,116.0
164,144.63771336666667,144.85830136666667,64.0,87.0
165,144.85830136666667,145.0788893666667,67.0,102.0
166,145.0788893666667,145.51822713333334,71.0,113.0
167,145.52006536666667,145.95940313333335,71.0,108.0
168,145.96124136666668,146.22410873333334,71.0,116.0
169,146.18182936666668,146.40241736666667,69.0,96.0
170,146.40241736666667,146.6230053666667,67.0,92.0
171,146.6230053666667,148.1671213666667,71.0,119.0
172,148.1671213666667,148.40609170000002,69.0,104.0
173,148.38770936666668,148.60829736666668,67.0,96.0
174,148.60829736666668,148.82704713333334,69.0,110.0
175,148.82888536666667,149.49064936666667,69.0,104.0
176,149.49064936666667,149.70939913333333,62.0,102.0
177,149.71123736666667,149.9318253666667,62.0,93.0
178,149.9318253666667,150.15241336666668,67.0,110.0
179,150.15241336666668,152.13770536666667,64.0,100.0
180,152.13770536666667,152.35645513333336,67.0,116.0
181,152.3582933666667,152.57704313333335,67.0,100.0
182,152.57888136666668,152.812337,67.0,102.0
183,152.79946936666667,153.0200573666667,66.0,97.0
184,153.0200573666667,153.24064536666668,64.0,93.0
185,153.24064536666668,153.45939513333335,67.0,107.0
186,153.46123336666668,153.9024093666667,67.0,87.0
187,153.9024093666667,154.12115913333335,71.0,93.0
188,154.12299736666668,154.34174713333334,71.0,98.0
189,154.34358536666667,154.56233513333333,71.0,102.0
190,154.56417336666667,154.7847613666667,71.0,98.0
191,154.7847613666667,155.0384375666667,74.0,93.0
192,155.00534936666668,155.4465253666667,71.0,91.0
193,155.4465253666667,155.66711336666668,69.0,86.0
194,155.66711336666668,156.10828936666667,67.0,98.0
195,156.10828936666667,156.34358323333333,69.0,107.0
196,156.3288773666667,156.56417123333335,67.0,88.0
197,156.54946536666668,156.99064136666667,66.0,95.0
198,156.99064136666667,157.23880286666667,62.0,100.0
199,157.2112293666667,159.19652136666667,64.0,100.0
200,159.19652136666667,159.41527113333333,69.0,114.0
201,159.41710936666666,159.63585913333335,69.0,93.0
202,159.63769736666669,159.85644713333335,69.0,94.0
203,159.85828536666668,160.07887336666667,69.0,94.0
204,160.07887336666667,160.2994613666667,64.0,91.0
205,160.2994613666667,160.74063736666668,69.0,110.0
206,160.74063736666668,162.7259293666667,67.0,108.0
207,162.7259293666667,162.94467913333335,66.0,119.0
208,162.94651736666668,163.16526713333334,66.0,100.0
209,163.16710536666668,163.38585513333334,66.0,91.0
210,163.38769336666667,163.60644313333336,66.0,93.0
211,163.6082813666667,163.82886936666668,66.0,109.0
212,163.82886936666668,164.2700453666667,62.0,102.0
213,164.2700453666667,166.25533736666668,64.0,102.0
214,166.25533736666668,166.47408713333334,69.0,102.0
215,166.47592536666667,166.69467513333333,69.0,108.0
216,166.6965133666667,166.91526313333335,69.0,89.0
217,166.91710136666669,167.13768936666668,69.0,96.0
218,167.13768936666668,167.35827736666667,64.0,104.0
219,167.35827736666667,167.79945336666668,69.0,110.0
220,167.79945336666668,168.23879113333334,67.0,108.0
221,168.24062936666667,168.45937913333336,67.0,100.0
222,168.4612173666667,168.67996713333335,67.0,96.0
223,168.68180536666668,168.90239336666667,67.0,94.0
224,168.90239336666667,169.1229813666667,69.0,108.0
225,169.1229813666667,169.56415736666668,67.0,100.0
226,169.56415736666668,169.78474536666667,69.0,89.0
227,169.78474536666667,172.6762864,71.0,113.0
228,172.6762864,172.8968744,74.0,116.0
229,172.8968744,173.1156241666667,71.0,98.0
230,173.11746240000002,173.33805040000001,71.0,108.0
231,173.33805040000001,173.77738816666667,76.0,119.0
232,173.77922640000003,174.2204024,76.0,89.0
233,174.2204024,174.4409904,71.0,110.0
234,174.4409904,175.1027544,76.0,113.0
235,175.1027544,176.20569440000003,74.0,116.0
236,176.20569440000003,176.4244441666667,71.0,113.0
237,176.42628240000002,176.6468704,71.0,110.0
238,176.6468704,176.8674584,74.0,108.0
239,176.8674584,177.3067961666667,78.0,119.0
240,177.30863440000002,177.74797216666667,78.0,119.0
241,177.7498104,177.97039840000002,78.0,119.0
242,177.97039840000002,178.4115744,74.0,113.0
243,178.4115744,180.1762784,71.0,116.0
244,180.1762784,180.61561616666668,72.0,114.0
245,180.6174544,180.83620416666668,72.0,108.0
246,180.8380424,181.05863040000003,72.0,113.0
247,181.05863040000003,181.27921840000002,71.0,108.0
248,181.27921840000002,181.4998064,69.0,100.0
249,181.4998064,181.94098240000002,72.0,117.0
250,181.94098240000002,182.38032016666668,71.0,108.0
251,182.3821584,182.60090816666667,71.0,100.0
252,182.6027464,182.82333440000002,71.0,107.0
253,182.82333440000002,183.04208416666668,69.0,100.0
254,183.0439224,183.2645104,69.0,98.0
255,183.2645104,183.7038481666667,67.0,104.0
256,183.70568640000002,183.9262744,67.0,113.0
257,183.9262744,184.8086264,76.0,114.0
258,184.8086264,185.24980240000002,74.0,116.0
259,185.24980240000002,185.49980213333336,71.0,108.0
260,185.4703904,186.79391840000002,69.0,113.0
261,186.79391840000002,187.01450640000002,74.0,116.0
262,187.01450640000002,187.23325616666668,71.0,98.0
263,187.2350944,187.4556824,71.0,108.0
264,187.4556824,187.89502016666668,76.0,119.0
265,187.8968584,188.33803440000003,76.0,89.0
266,188.33803440000003,188.55862240000002,71.0,110.0
267,188.55862240000002,189.22038640000002,76.0,113.0
268,189.22038640000002,190.3233264,74.0,116.0
269,190.3233264,190.54207616666667,71.0,113.0
270,190.5439144,190.76450240000003,71.0,110.0
271,190.76450240000003,190.98509040000002,74.0,108.0
272,190.98509040000002,191.42442816666667,78.0,119.0
273,191.4262664,191.86560416666669,78.0,119.0
274,191.86744240000002,192.0880304,78.0,119.0
275,192.0880304,192.52920640000002,74.0,113.0
276,192.52920640000002,194.29391040000002,71.0,116.0
277,194.29391040000002,194.73324816666667,72.0,114.0
278,194.73508640000003,194.9538361666667,72.0,108.0
279,194.95567440000002,195.1762624,72.0,113.0
280,195.1762624,195.3968504,71.0,108.0
281,195.3968504,195.61743840000003,69.0,100.0
282,195.61743840000003,196.0586144,72.0,117.0
283,196.0586144,196.4979521666667,71.0,108.0
284,196.49979040000002,196.71854016666668,71.0,100.0
285,196.72037840000002,196.9409664,71.0,107.0
286,196.9409664,197.15971616666667,69.0,100.0
287,197.16155440000003,197.38214240000002,69.0,98.0
288,197.38214240000002,197.82148016666667,67.0,104.0
289,197.8233184,198.04390640000003,67.0,113.0
290,198.04390640000003,198.70383216666667,76.0,114.0
291,198.7056704,198.92625840000002,76.0,113.0
292,198.92625840000002,199.14684640000002,74.0,107.0
293,199.14684640000002,199.58802240000003,71.0,110.0
294,199.58802240000003,200.8986827666667,76.0,116.0
295,200.8986827666667,201.1192707666667,74.0,116.0
296,201.1192707666667,201.33802053333335,71.0,98.0
297,201.33985876666668,201.56044676666667,71.0,108.0
298,201.56044676666667,201.99978453333335,76.0,119.0
299,202.00162276666669,202.44279876666667,76.0,89.0
300,202.44279876666667,202.6633867666667,71.0,110.0
301,202.6633867666667,203.3251507666667,76.0,113.0
302,203.3251507666667,204.42809076666668,74.0,116.0
303,204.42809076666668,204.64684053333335,71.0,113.0
304,204.64867876666668,204.86926676666667,71.0,110.0
305,204.86926676666667,205.0898547666667,74.0,108.0
306,205.0898547666667,205.52919253333334,78.0,119.0
307,205.53103076666667,205.97036853333336,78.0,119.0
308,205.9722067666667,206.19279476666668,78.0,119.0
309,206.19279476666668,206.6339707666667,74.0,113.0
310,206.6339707666667,208.3986747666667,71.0,116.0
311,208.3986747666667,208.83801253333334,72.0,114.0
312,208.83985076666667,209.05860053333336,72.0,108.0
313,209.0604387666667,209.28102676666668,72.0,113.0
314,209.28102676666668,209.50161476666668,71.0,108.0
315,209.50161476666668,209.72220276666667,69.0,100.0
316,209.72220276666667,210.16337876666668,72.0,117.0
317,210.16337876666668,210.60271653333334,71.0,108.0
318,210.6045547666667,210.82330453333336,71.0,100.0
319,210.8251427666667,211.04573076666668,71.0,107.0
320,211.04573076666668,211.26448053333334,69.0,100.0
321,211.26631876666667,211.4869067666667,69.0,98.0
322,211.4869067666667,211.92624453333335,67.0,104.0
323,211.92808276666668,212.14867076666667,67.0,113.0
324,212.14867076666667,213.0310227666667,76.0,114.0
325,213.0310227666667,213.47219876666668,74.0,116.0
326,213.47219876666668,213.72403673333335,71.0,108.0
327,213.69278676666667,215.01631476666668,69.0,113.0
328,215.01631476666668,215.23690276666667,74.0,116.0
329,215.23690276666667,215.45565253333334,71.0,98.0
330,215.4574907666667,215.6780787666667,71.0,108.0
331,215.6780787666667,216.11741653333334,76.0,119.0
332,216.11925476666667,216.56043076666668,76.0,89.0
333,216.56043076666668,216.78101876666668,71.0,110.0
334,216.78101876666668,217.44278276666668,76.0,113.0
335,217.44278276666668,218.54572276666667,74.0,116.0
336,218.54572276666667,218.76447253333336,71.0,113.0
337,218.7663107666667,218.98689876666668,71.0,110.0
338,218.98689876666668,219.20748676666668,74.0,108.0
339,219.20748676666668,219.64682453333336,78.0,119.0
340,219.6486627666667,220.08800053333334,78.0,119.0
341,220.08983876666667,220.3104267666667,78.0,119.0
342,220.3104267666667,220.75160276666668,74.0,113.0
343,220.75160276666668,222.51630676666667,71.0,116.0
344,222.51630676666667,222.95564453333336,72.0,114.0
345,222.9574827666667,223.17623253333335,72.0,108.0
346,223.17807076666668,223.39865876666667,72.0,113.0
347,223.39865876666667,223.6192467666667,71.0,108.0
348,223.6192467666667,223.83983476666668,69.0,100.0
349,223.83983476666668,224.2810107666667,72.0,117.0
350,224.2810107666667,224.72034853333335,71.0,108.0
351,224.72218676666668,224.94093653333334,71.0,100.0
352,224.94277476666667,225.1633627666667,71.0,107.0
353,225.1633627666667,225.38211253333336,69.0,100.0
354,225.3839507666667,225.60453876666668,69.0,98.0
355,225.60453876666668,226.04387653333336,67.0,104.0
356,226.0457147666667,226.26630276666668,67.0,113.0
357,226.26630276666668,226.92622853333336,76.0,114.0
358,226.9280667666667,227.14865476666668,76.0,113.0
359,227.14865476666668,227.36924276666667,74.0,107.0
360,227.36924276666667,227.8104187666667,71.0,110.0
361,227.8104187666667,231.51629716666667,76.0,116.0
362,231.51629716666667,231.95563493333336,72.0,107.0
363,231.9574731666667,232.17622293333335,72.0,102.0
364,232.17806116666668,232.39864916666667,72.0,102.0
365,232.39864916666667,232.6192371666667,71.0,96.0
366,232.6192371666667,232.83982516666669,69.0,91.0
367,232.83982516666669,233.2810011666667,72.0,113.0
368,233.2810011666667,233.72033893333335,71.0,107.0
369,233.72217716666668,233.94092693333334,71.0,98.0
370,233.94276516666667,234.16151493333336,71.0,102.0
371,234.1633531666667,234.3839411666667,71.0,91.0
372,234.3839411666667,234.60452916666668,69.0,91.0
373,234.60452916666668,234.93541116666668,67.0,94.0
374,234.93541116666668,235.15599916666667,71.0,88.0
375,235.15599916666667,235.81592493333335,76.0,116.0
376,235.81776316666668,236.03835116666667,76.0,113.0
377,236.03835116666667,236.47952716666668,74.0,113.0
378,236.47952716666668,236.70011516666668,71.0,100.0
379,236.70011516666668,237.47952610000002,76.0,116.0
