,start,end,pitch,velocity
0,15.76416695,16.0710763375,64.0,63.0
1,16.25196995,16.58835076875,72.0,71.0
2,16.73977295,17.117820275,74.0,89.0
3,17.22757595,17.398307,72.0,83.0
4,17.47147745,17.873914925,76.0,87.0
5,17.959280449999998,18.257043531249998,72.0,83.0
6,18.44708345,18.7966756,74.0,93.0
7,18.93488645,19.44199831875,72.0,97.0
8,20.15439395,20.486709743749998,72.0,71.0
9,20.64219695,20.9775615125,74.0,75.0
10,21.12999995,21.264145775,72.0,80.0
11,21.373901449999998,21.6930059125,76.0,90.0
12,21.861704449999998,22.13710989375,72.0,77.0
13,22.34950745,22.66759565625,72.0,68.0
14,22.59340895,22.86678188125,74.0,84.0
15,22.83731045,23.3495036,76.0,87.0
16,23.56901495,24.835270237499998,76.0,106.0
17,24.78852245,25.093399325,74.0,91.0
18,25.03242395,25.30884565,72.0,87.0
19,25.276325449999998,25.620836318749998,74.0,94.0
20,25.764128449999998,26.560873349999998,67.0,94.0
21,26.25193145,26.560873349999998,67.0,62.0
22,26.49583295,26.74888075625,69.0,71.0
23,26.73973445,27.224488681249998,72.0,100.0
24,27.47143895,27.88505524375,77.0,100.0
25,27.95924195,28.3799720375,76.0,94.0
26,28.44704495,28.914522825,74.0,89.0
27,28.934847949999998,29.21228590625,72.0,66.0
28,29.178749449999998,29.69602388125,74.0,87.0
29,29.666552449999998,29.89317759375,76.0,90.0
30,29.91045395,30.2051682625,72.0,64.0
31,30.15435545,30.6848412125,74.0,89.0
32,30.64215845,31.093376225,76.0,95.0
33,31.37386295,31.8555684125,64.0,82.0
34,31.86166595,32.37487535625,72.0,83.0
35,32.34946895,32.85048328125,74.0,86.0
36,32.83727195,33.10251483125,72.0,66.0
37,33.08117345,33.573041475,76.0,89.0
38,33.56897645,33.90129224375,72.0,85.0
39,34.05677945,34.38198145,72.0,90.0
40,34.30068095,34.586248956249996,74.0,90.0
41,34.54458245,34.987670175,72.0,93.0
42,35.27628695,35.6035214625,64.0,86.0
43,35.76408995,36.0628692875,72.0,90.0
44,36.25189295,36.624858993749996,74.0,98.0
45,36.73969595,36.8921343875,72.0,95.0
46,36.98359745,37.280344275,76.0,90.0
47,37.47140045,37.75696845625,72.0,95.0
48,37.95920345,38.122820706249996,72.0,93.0
49,38.20310495,38.369770975,74.0,96.0
50,38.447006449999996,38.938874475,76.0,91.0
51,39.178710949999996,40.123829262499996,76.0,98.0
52,40.39821845,40.7010628125,74.0,90.0
53,40.64211995,40.92362293125,72.0,82.0
54,40.88602145,41.3067515375,74.0,83.0
55,41.37382445,41.674636299999996,67.0,81.0
56,41.86162745,42.041504806249996,67.0,79.0
57,42.10552895,42.2823575375,69.0,91.0
58,42.34943045,42.74272161875,72.0,95.0
59,43.08113495,43.42564581875,77.0,101.0
60,43.56893795,43.89515620625,76.0,97.0
61,44.05674095,44.49576365,74.0,96.0
62,44.54454395,44.7132424875,72.0,86.0
63,44.78844545,45.20206174375,76.0,97.0
64,45.27624845,45.61059675625,74.0,83.0
65,45.52014995,45.87685589375,72.0,83.0
66,45.76405145,46.37075643125,76.0,90.0
67,46.251854449999996,46.68579586875,74.0,96.0
68,47.47136195,47.807742768749996,79.0,97.0
69,47.95916495,48.37684626875,79.0,96.0
70,48.44696795,48.65326796875,72.0,84.0
71,48.69086945,49.1888350125,76.0,96.0
72,49.17867245,49.6725729875,74.0,87.0
73,49.66647545,50.04553903125,76.0,98.0
74,50.520130699999996,50.74269081875,72.0,71.0
75,50.64208145,50.9164706375,74.0,66.0
76,50.88598295,51.38699728125,76.0,98.0
77,51.37378595,51.67764656875,77.0,95.0
78,51.61768745,51.90732048125,76.0,103.0
79,51.86158895,52.36565205,74.0,91.0
80,52.34939195,52.82804864375,76.0,96.0
81,52.83719495,53.78129700625,72.0,101.0
82,54.788406949999995,55.31990896875,76.0,93.0
83,55.27620995,55.57397303125,72.0,95.0
84,55.76401295,56.215230725,72.0,87.0
85,56.25181595,56.52925390625,69.0,77.0
86,56.49571745,57.007910599999995,76.0,105.0
87,56.98352045,57.917459943749996,74.0,101.0
88,58.20302795,58.5200999,72.0,98.0
89,58.44692945,59.355462537499996,74.0,108.0
90,59.3005847,61.01500899375,72.0,93.0
91,62.7152057,62.90931064375,76.0,97.0
92,62.837156449999995,62.963172225,72.0,90.0
93,63.08105795,63.2456914625,72.0,90.0
94,63.32495945,63.666421549999995,74.0,97.0
95,63.81276245,64.18572849374999,72.0,98.0
96,64.30056545,64.6826778,76.0,103.0
97,64.78836845,64.90218915,72.0,82.0
98,65.03226995,65.18775715625,72.0,91.0
99,65.27617144999999,65.39710594374999,74.0,90.0
100,65.52007295,65.7416168125,74.0,94.0
101,65.76397444999999,66.0668188125,72.0,91.0
102,66.00787595,66.2822651375,74.0,100.0
103,66.6176297,66.79445828749999,76.0,109.0
104,66.73958044999999,66.87067750625,72.0,87.0
105,66.98348195,67.1277903375,72.0,92.0
106,67.22738345,67.572910575,74.0,100.0
107,67.71518645,68.00278696875,72.0,100.0
108,68.20298945,68.5017687875,76.0,114.0
109,68.69079245,68.81071068749999,72.0,97.0
110,68.93469395,69.08814864375,72.0,93.0
111,69.17859545,69.30562748125,74.0,97.0
112,69.42249695,69.64708958125,74.0,100.0
113,69.66639845,69.857454625,72.0,97.0
114,69.91029995,70.17046155,74.0,108.0
115,70.39810295,71.61049665624999,79.0,97.0
116,71.61761045,71.92553609375,77.0,90.0
117,71.86151195,72.1155760125,76.0,92.0
118,72.10541345,72.499720875,72.0,90.0
119,72.59321645,73.3594736625,72.0,92.0
120,73.56882245,73.84524415,67.0,67.0
121,73.81272394999999,74.05764170625,69.0,85.0
122,74.05662545,74.18365748125,72.0,96.0
123,74.30052694999999,74.540363425,72.0,94.0
124,74.54442845,74.7049969375,65.0,62.0
125,74.54442845,74.80560630625,67.0,62.0
126,74.78832995,75.05458908749999,69.0,82.0
127,75.03223145,75.16332850625,72.0,92.0
128,75.27613295,75.4793842,72.0,96.0
129,75.52003445,75.8147487625,67.0,65.0
130,75.76393595,76.0180000125,69.0,77.0
131,76.00783745,76.18161726875,72.0,92.0
132,76.25173895,76.66129021875,76.0,90.0
133,76.73954195,76.98344345,77.0,77.0
134,76.98344345,77.36657205624999,72.0,93.0
135,77.47124645,78.08100019999999,74.0,105.0
136,78.20295095,78.43364111875,76.0,100.0
137,78.44685245,78.56372191874999,72.0,93.0
138,78.69075395,78.8391273625,72.0,94.0
139,78.93465545,79.23648355625,74.0,100.0
140,79.42245845,79.73140035,72.0,101.0
141,79.91026145,80.31676395,76.0,101.0
142,80.39806444999999,80.52509648125,72.0,97.0
143,80.64196595,80.7964369,72.0,90.0
144,80.88586744999999,80.99968815,74.0,93.0
145,81.12976895,81.31371133125,74.0,95.0
146,81.37367044999999,81.5139138125,72.0,97.0
147,81.61757195,81.87163601249999,74.0,105.0
148,82.10537495,82.280171025,76.0,95.0
149,82.34927644999999,82.46004838125,72.0,89.0
150,82.59317795,82.7130961875,72.0,93.0
151,82.83707945,83.1195986875,74.0,99.0
152,83.32488245,83.5952066125,72.0,97.0
153,83.81268545,84.10638350625,76.0,97.0
154,84.30048845,84.3960165375,72.0,95.0
155,84.54438995,84.64703183125,72.0,90.0
156,84.78829145,84.8716244625,74.0,89.0
157,85.03219295,85.23646045625,74.0,91.0
158,85.27609445,85.3878826375,72.0,87.0
159,85.51999595,85.69377576875,74.0,97.0
160,86.00779895,87.0504778625,79.0,106.0
161,87.22730645,87.54234588749999,77.0,101.0
162,87.47120795,87.74661339375,76.0,87.0
163,87.71510945,88.1764897875,74.0,90.0
164,88.20291245,88.80351989374999,72.0,99.0
165,89.3004692,89.50880173125,67.0,87.0
166,89.42241994999999,89.61855740624999,69.0,90.0
167,89.66632145,89.8024997875,72.0,97.0
168,89.91022294999999,90.1134742,72.0,105.0
169,90.15412445,90.38786338749999,67.0,82.0
170,90.39802595,90.662252575,69.0,90.0
171,90.64192745,90.77912204375,72.0,96.0
172,90.88582895,91.0951777375,72.0,101.0
173,91.12973045,91.40615215,67.0,89.0
174,91.37363195,91.572818175,69.0,89.0
175,91.61753345,91.7577768125,72.0,93.0
176,91.86143495,92.32281528749999,76.0,98.0
177,92.34923795,92.53927786874999,74.0,87.0
178,92.59313945,92.90513011875,72.0,98.0
179,93.08094245,93.37057548125,67.0,92.0
180,93.32484395,93.53520899375,69.0,97.0
181,93.56874545,93.70085876249999,72.0,99.0
182,93.81264695,94.0484184,72.0,105.0
183,94.05654845,94.29841743749999,67.0,90.0
184,94.30044995,94.5829691875,69.0,91.0
185,94.54435145,94.6663022,72.0,101.0
186,94.78825295,95.003699275,72.0,99.0
187,95.03215445,95.35024265625,67.0,64.0
188,95.27605595,95.50674611875,69.0,92.0
189,95.51995744999999,95.71507865,72.0,96.0
190,95.76385895,96.26080825625,76.0,85.0
191,96.25166195,96.48235211875,77.0,100.0
192,96.49556344999999,96.89800092499999,74.0,97.0
193,97.22726795,97.4569418625,74.0,100.0
194,97.47116944999999,97.8187290875,74.0,97.0
195,97.95897244999999,99.25469916875,72.0,89.0
196,132.83688695,133.1437963375,64.0,63.0
197,133.32468995,133.66005451249998,72.0,71.0
198,133.81249295,134.190540275,74.0,89.0
199,134.30029595,134.471027,72.0,83.0
200,134.54419744999998,134.94561866875,76.0,87.0
201,135.03200045,135.32976353125,72.0,83.0
202,135.51980344999998,135.86837934375,74.0,93.0
203,136.00760645,136.51471831875,72.0,97.0
204,137.22711395,137.56044599999998,72.0,71.0
205,137.71491695,138.0502815125,74.0,75.0
206,138.20271995,138.33788203125,72.0,80.0
207,138.44662145,138.76674216875,76.0,90.0
208,138.93442445,139.20982989375,72.0,77.0
209,139.42222745,139.74031565625,72.0,68.0
210,139.66612895,139.9405181375,74.0,84.0
211,139.91003045,140.4222236,76.0,87.0
212,140.64173495,141.9079902375,76.0,106.0
213,141.86124245,142.16611932499998,74.0,91.0
214,142.10514394999998,142.38156565,72.0,87.0
215,142.34904545,142.6925400625,74.0,94.0
216,142.83684845,143.63359334999998,67.0,94.0
217,143.32465145,143.63359334999998,67.0,62.0
218,143.56855295,143.82160075625,69.0,71.0
219,143.81245445,144.29720868125,72.0,100.0
220,144.54415895,144.9587915,77.0,100.0
221,145.03196195,145.4526920375,76.0,94.0
222,145.51976495,145.987242825,74.0,89.0
223,146.00756795,146.2860221625,72.0,66.0
224,146.25146945,146.76874388125,74.0,87.0
225,146.73927245,146.96691385,76.0,90.0
226,146.98317395,147.2778882625,72.0,64.0
227,147.22707545,147.7575612125,74.0,89.0
228,147.71487845,148.166096225,76.0,95.0
229,148.44658295,148.9282884125,64.0,82.0
230,148.93438595,149.44759535625,72.0,83.0
231,149.42218895,149.92320328124998,74.0,86.0
232,149.90999195,150.174218575,72.0,66.0
233,150.15389345,150.645761475,76.0,89.0
234,150.64169644999998,150.97299598749998,72.0,85.0
235,151.12949945,151.45571770625,72.0,90.0
236,151.37340095,151.65896895625,74.0,90.0
237,151.61730244999998,152.060390175,72.0,93.0
238,152.34900695,152.67725771874998,64.0,86.0
239,152.83680995,153.13558928749998,72.0,90.0
240,153.32461295,153.69757899375,74.0,98.0
241,153.81241595,153.9648543875,72.0,95.0
242,154.05631745,154.353064275,76.0,90.0
243,154.54412045,154.82968845624998,72.0,95.0
244,155.03192345,155.19452445,72.0,93.0
245,155.27582495,155.44147471875,74.0,96.0
246,155.51972645,156.011594475,76.0,91.0
247,156.25143094999999,157.19654926249999,76.0,98.0
248,157.47093845,157.7737828125,74.0,90.0
249,157.71483995,157.9973591875,72.0,82.0
250,157.95874145,158.3794715375,74.0,83.0
251,158.44654445,158.7473563,67.0,81.0
252,158.93434745,159.11422480625,67.0,79.0
253,159.17824894999998,159.3550775375,69.0,91.0
254,159.42215045,159.81544161875,72.0,95.0
255,160.15385494999998,160.49836581875,77.0,101.0
256,160.64165795,160.96787620625,76.0,97.0
257,161.12946095,161.56848365,74.0,96.0
258,161.61726395,161.7859624875,72.0,86.0
259,161.86116545,162.27478174375,76.0,97.0
260,162.34896845,162.68331675625,74.0,83.0
261,162.59286995,162.94957589375,72.0,83.0
262,162.83677145,163.44347643125,76.0,90.0
263,163.32457445,163.75851586874998,74.0,96.0
264,164.54408195,164.88046276875,79.0,97.0
265,165.03188495,165.44956626875,79.0,96.0
266,165.51968795,165.72598796875,72.0,84.0
267,165.76358944999998,166.2615550125,76.0,96.0
268,166.25139245,166.7452929875,74.0,87.0
269,166.73919544999998,167.11825903125,76.0,98.0
270,167.59285069999999,167.81541081875,72.0,71.0
271,167.71480144999998,167.99020689374998,74.0,66.0
272,167.95870295,168.45971728125,76.0,98.0
273,168.44650595,168.74935031249998,77.0,95.0
274,168.69040745,168.98004048125,76.0,103.0
275,168.93430895,169.43837205,74.0,91.0
276,169.42211195,169.8997523875,76.0,96.0
277,169.90991495,170.85401700625,72.0,101.0
278,171.86112695,172.39262896875,76.0,93.0
279,172.34892994999998,172.64669303124998,72.0,95.0
280,172.83673295,173.287950725,72.0,87.0
281,173.32453594999998,173.60197390625,69.0,77.0
282,173.56843745,174.0806306,76.0,105.0
283,174.05624045,174.99017994375,74.0,101.0
284,175.27574794999998,175.5928199,72.0,98.0
285,175.51964945,176.42919879375,74.0,108.0
286,176.3733047,178.08772899375,72.0,93.0
287,179.66597495,179.86109615,76.0,97.0
288,179.90987644999998,180.035892225,72.0,90.0
289,180.15377795,180.31942771875,72.0,90.0
290,180.39767945,180.73914155,74.0,97.0
291,180.88548244999998,181.25743223749998,72.0,98.0
292,181.37328545,181.75438154375,76.0,103.0
293,181.86108844999998,181.97592540624998,72.0,82.0
294,182.10498995,182.2594609,72.0,91.0
295,182.34889145,182.4688096875,74.0,90.0
296,182.59279295,182.8143368125,74.0,94.0
297,182.83669444999998,183.1395388125,72.0,91.0
298,183.08059595,183.35396888124998,74.0,100.0
299,183.56839895,183.7452275375,76.0,109.0
300,183.81230044999998,183.94339750625,72.0,87.0
301,184.05620195,184.19949408125,72.0,92.0
302,184.30010345,184.64563057499998,74.0,100.0
303,184.78790645,185.07550696875,72.0,100.0
304,185.27570945,185.5744887875,76.0,114.0
305,185.76351245,185.88343068749998,72.0,97.0
306,186.00741395,186.1618849,72.0,93.0
307,186.25131545,186.37834748125,74.0,97.0
308,186.49521694999999,186.71980958125,74.0,100.0
309,186.73911845,186.92915836875,72.0,97.0
310,186.98301995,187.24318155,74.0,108.0
311,187.47082294999998,188.6822004,79.0,97.0
312,188.69033045,188.9972398375,77.0,90.0
313,188.93423195,189.18727975625,76.0,92.0
314,189.17813345,189.57244087499998,71.0,90.0
315,189.66593645,190.4321936625,72.0,92.0
316,190.64154245,190.91796415,67.0,67.0
317,190.88544395,191.13036170625,69.0,85.0
318,191.12934545,191.25637748124998,72.0,96.0
319,191.37324694999998,191.61206716875,72.0,94.0
320,191.61714845,191.87731005,67.0,62.0
321,191.86104995,192.12730908749998,69.0,82.0
322,192.10495145,192.23604850625,72.0,92.0
323,192.34885295,192.55312045624999,72.0,96.0
324,192.59275445,192.8874687625,67.0,65.0
325,192.83665595,193.0907200125,69.0,77.0
326,193.08055745,193.25433726875,72.0,92.0
327,193.32445895,193.7329939625,76.0,90.0
328,193.81226195,194.05616344999999,77.0,77.0
329,194.05616344999999,194.43929205625,72.0,93.0
330,194.54396645,195.15372019999998,74.0,105.0
331,195.27567095,195.507377375,76.0,100.0
332,195.51957245,195.637458175,72.0,93.0
333,195.76347395,195.9118473625,72.0,94.0
334,196.00737544999998,196.30920355625,74.0,100.0
335,196.49517845,196.80412035,72.0,101.0
336,196.98298144999998,197.38948395,76.0,101.0
337,197.47078445,197.59680022499998,72.0,97.0
338,197.71468595,197.8691569,72.0,90.0
339,197.95858744999998,198.07240815,74.0,93.0
340,198.20248895,198.38643133125,74.0,95.0
341,198.44639045,198.5866338125,72.0,97.0
342,198.69029195,198.94333975625,74.0,105.0
343,199.17809495,199.352891025,76.0,95.0
344,199.42199645,199.5337846375,72.0,89.0
345,199.66589795,199.7858161875,72.0,93.0
346,199.90979945,200.1923186875,74.0,99.0
347,200.39760245,200.66894286875,72.0,97.0
348,200.88540545,201.17910350625,76.0,97.0
349,201.37320845,201.4687365375,72.0,95.0
350,201.61710994999999,201.71975183125,72.0,90.0
351,201.86101145,201.9443444625,74.0,89.0
352,202.10491295,202.3081642,74.0,91.0
353,202.34881445,202.45958638125,72.0,87.0
354,202.59271594999998,202.7654795125,74.0,97.0
355,203.08051895,204.1231978625,79.0,106.0
356,204.30002645,204.61404963125,77.0,101.0
357,204.54392794999998,204.82034965,76.0,87.0
358,204.78782945,205.2492097875,74.0,90.0
359,205.27563245,205.87725615,72.0,99.0
360,206.37318919999998,206.58152173125,67.0,87.0
361,206.49513994999998,206.6922936625,69.0,90.0
362,206.73904145,206.8752197875,72.0,97.0
363,206.98294295,207.18721045625,72.0,105.0
364,207.22684445,207.46058338749998,67.0,82.0
365,207.47074595,207.734972575,69.0,90.0
366,207.71464745,207.8528583,72.0,96.0
367,207.95854895,208.1678977375,72.0,101.0
368,208.20245045,208.47785589375,67.0,89.0
369,208.44635195,208.64553817499998,69.0,89.0
370,208.69025345,208.8304968125,72.0,93.0
371,208.93415495,209.39451903124998,76.0,98.0
372,209.42195795,209.61098161249998,74.0,87.0
373,209.66585945,209.97785011874998,72.0,98.0
374,210.15366244999998,210.44329548125,67.0,92.0
375,210.39756395,210.60792899375,69.0,97.0
376,210.64146545,210.77459501875,72.0,99.0
377,210.88536695,211.1211384,72.0,105.0
378,211.12926844999998,211.37113743749998,67.0,90.0
379,211.37316995,211.65467293125,69.0,91.0
380,211.61707145,211.73800594374998,72.0,101.0
381,211.86097295,212.076419275,72.0,99.0
382,212.10487444999998,212.42296265625,67.0,64.0
383,212.34877595,212.57946611875,69.0,92.0
384,212.59267745,212.78779864999998,72.0,96.0
385,212.83657895,213.33352825625,76.0,85.0
386,213.32438195,213.55507211875,77.0,100.0
387,213.56828345,213.970720925,74.0,97.0
388,214.29998795,214.5296618625,74.0,100.0
389,214.54388945,214.8914490875,74.0,97.0
390,215.03169244999998,216.7938807875,72.0,89.0
391,216.73900294999999,217.49611385625,81.0,108.0
392,217.47070745,217.58351189375,79.0,127.0
393,217.5926582,217.73798284375,81.0,127.0
394,217.71460894999998,218.5682642,79.0,127.0
395,218.69021494999998,218.92090511875,76.0,100.0
396,218.93411645,219.05098591875,72.0,93.0
397,219.17801795,219.32537510625,72.0,94.0
398,219.42191945,219.72374755625,74.0,100.0
399,219.90972245,220.21866434999998,72.0,101.0
400,220.39752545,220.80402795,76.0,101.0
401,220.88532845,221.01236048125,72.0,97.0
402,221.12922995,221.28370089999999,72.0,90.0
403,221.37313145,221.48695215,74.0,93.0
404,221.61703294999998,221.80097533125,74.0,95.0
405,221.86093445,222.00219406875,72.0,97.0
406,222.10483595,222.40259903125,74.0,105.0
407,222.59263894999998,222.8263778875,76.0,95.0
408,222.83654045,222.94731238125,72.0,89.0
409,223.08044195,223.2003601875,72.0,93.0
410,223.32434345,223.60686268749998,74.0,99.0
411,223.81214645,224.0824706125,72.0,97.0
412,224.29994944999999,224.59263124999998,76.0,97.0
413,224.78775245,224.88328053749999,72.0,95.0
414,225.03165395,225.13429583125,72.0,90.0
415,225.27555544999998,225.35787220625,74.0,89.0
416,225.51945695,225.72372445624998,74.0,91.0
417,225.76335845,225.8751466375,72.0,87.0
418,226.00725995,226.18103976875,74.0,97.0
419,226.49506295,227.53774186249998,79.0,106.0
420,227.71457045,228.0296098875,77.0,101.0
421,227.95847195,228.23387739375,76.0,87.0
422,228.20237344999998,228.66375378749999,71.0,90.0
423,228.69017645,229.29078389375,72.0,99.0
424,229.66578245,230.01232583125,67.0,87.0
425,229.90968395,230.18204062499998,69.0,90.0
426,230.15358544999998,230.31313768125,72.0,97.0
427,230.39748695,230.6007382,72.0,105.0
428,230.64138845,230.8751273875,67.0,82.0
429,230.88528995,231.14850031875,69.0,90.0
430,231.12919145,231.26638604375,72.0,96.0
431,231.37309295,231.5824417375,72.0,101.0
432,231.61699445,231.89341615,67.0,89.0
433,231.86089594999999,232.060082175,69.0,89.0
434,232.10479745,232.24504081249998,72.0,93.0
435,232.34869895,232.85276205,76.0,98.0
436,232.83650194999998,233.10377734374998,77.0,87.0
437,233.08040345,233.4482882125,79.0,98.0
438,233.56820645,234.08751339375,74.0,92.0
439,234.29991095,234.53060111874998,76.0,100.0
440,234.54381245,234.66068191875,72.0,93.0
441,234.78771394999998,234.93507110625,72.0,94.0
442,235.03161545,235.3324273,74.0,100.0
443,235.51941845,235.82734409374999,72.0,101.0
444,236.00722145,236.41372395,76.0,101.0
445,236.49502445,236.62205648124998,72.0,97.0
446,236.73892594999998,236.8933969,72.0,90.0
447,236.98282745,237.09563189374998,74.0,93.0
448,237.22672895,237.41067133125,74.0,95.0
449,237.47063045,237.6108738125,72.0,97.0
450,237.71453194999998,238.011278775,74.0,105.0
451,238.20233495,238.4360738875,76.0,95.0
452,238.44623645,238.55802463749998,72.0,89.0
453,238.69013795,238.81005618749998,72.0,93.0
454,238.93403945,239.2165586875,74.0,99.0
455,239.42184244999999,239.6921666125,72.0,97.0
456,239.90964545,240.20232725,76.0,97.0
457,240.39744844999998,240.49399279374998,72.0,95.0
458,240.64134995,240.74399183124999,72.0,90.0
459,240.88525145,240.96756820625,74.0,89.0
460,241.12915295,241.33342045625,74.0,91.0
461,241.37305444999998,241.48484263749998,72.0,87.0
462,241.61695595,241.7897195125,74.0,97.0
463,242.10475895,243.1474378625,79.0,106.0
464,243.32426644999998,243.63828963125,77.0,101.0
465,243.56816795,243.84357339375,76.0,87.0
466,243.81206945,244.214506925,74.0,100.0
467,244.29987244999998,244.90047989375,72.0,99.0
468,245.15352769999998,245.50007108124998,67.0,87.0
469,245.51937995,245.79072036875,69.0,90.0
470,245.76328145,245.9238499375,72.0,97.0
471,246.00718295,246.21043419999998,72.0,105.0
472,246.25108444999998,246.48583964374998,67.0,82.0
473,246.49498595,246.759212575,69.0,90.0
474,246.73888745,246.87608204375,72.0,96.0
475,246.98278894999999,247.1921377375,72.0,101.0
476,247.22669045,247.50209589374998,67.0,89.0
477,247.47059195,247.669778175,69.0,89.0
478,247.71449345,247.8547368125,72.0,93.0
479,247.95839494999998,248.46245804999998,76.0,98.0
480,248.44619795,248.69518073125,74.0,87.0
481,248.69009945,249.0579842125,72.0,98.0
482,249.05595169999998,249.401478825,67.0,87.0
483,249.2998532,249.572209875,69.0,90.0
484,249.66570545,249.82525768124998,72.0,97.0
485,249.90960694999998,250.11387445625,72.0,105.0
486,250.15350845,250.3872473875,67.0,82.0
487,250.39740995,250.661636575,69.0,90.0
488,250.64131145,250.7795223,72.0,96.0
489,250.88521294999998,251.0945617375,72.0,101.0
490,251.12911445,251.40451989375,67.0,89.0
491,251.37301595,251.572202175,69.0,89.0
492,251.61691745,251.7571608125,72.0,93.0
493,251.86081894999998,252.36386579375,76.0,98.0
494,252.34862195,252.61589734375,77.0,87.0
495,252.59252345,253.10979788125,76.0,98.0
496,253.32422795,253.531544225,74.0,100.0
497,253.56812945,254.05288368125,74.0,100.0
498,254.05593245,254.677881275,72.0,100.0
499,256.8607997,257.206326825,67.0,87.0
500,257.22665195,257.499008625,69.0,90.0
501,257.47055345,257.63010568125,72.0,97.0
502,257.71445495,257.91872245625,72.0,105.0
503,257.95835645,258.1920953875,67.0,82.0
504,258.20225795,258.466484575,69.0,90.0
505,258.44615945,258.58335404375,72.0,96.0
506,258.69006095,258.8994097375,72.0,101.0
507,258.93396244999997,259.21038415,67.0,89.0
508,259.17786395,259.37705017499997,69.0,89.0
509,259.42176545,259.5620088125,72.0,93.0
510,259.66566695,260.29269705625,76.0,98.0
511,260.15346995,260.56098870625,74.0,87.0
512,260.39737145,260.8465567125,72.0,98.0
513,260.978670025,261.3811075,67.0,87.0
514,261.28761192499996,261.5863912625,69.0,90.0
515,261.58435875,261.72155334375,72.0,97.0
516,261.87602429375,262.1554947625,72.0,93.0
517,262.116877025,262.3506159625,67.0,85.0
518,262.35569724375,262.645330275,69.0,93.0
519,262.6168751,262.69411057499997,72.0,85.0
520,262.88211798125,263.15853968125,72.0,104.0
521,263.1311007625,263.40447369375,67.0,91.0
522,263.38618108125,263.67479785625,69.0,99.0
523,263.65040770625,263.9644308875,72.0,104.0
524,263.9684959125,264.4400388125,76.0,100.0
525,264.409551125,264.80893983125,77.0,110.0
526,264.78759845,265.75100937499997,76.0,95.0
527,265.71035912499997,266.0965365,74.0,110.0
528,266.157511875,267.0721425,74.0,112.0
529,267.09551639375,267.22559719375,72.0,73.0
530,267.222548425,267.34754794375,74.0,65.0
531,267.316044,269.66257968125,72.0,81.0
