,start,end,pitch,velocity
0,0.15447095,1.0823129062499999,48.0,59.0
1,0.64227395,1.126011925,55.0,46.0
2,1.1300769499999999,1.6676765062499999,60.0,44.0
3,1.6178799499999998,1.69409916875,62.0,57.0
4,2.10568295,3.6564899875,47.0,55.0
5,5.03250095,5.1788418499999995,69.0,53.0
6,4.54469795,5.18392313125,64.0,40.0
7,4.05689495,5.191036925,57.0,66.0
8,5.52030395,7.239809525,46.0,51.0
9,5.52030395,7.2682647,65.0,47.0
10,5.52030395,7.27944351875,62.0,41.0
11,5.52030395,7.30993120625,58.0,48.0
12,5.52030395,7.35871150625,69.0,44.0
13,7.95931895,8.49488599375,67.0,50.0
14,7.95931895,8.5670401875,62.0,54.0
15,7.95931895,8.59854413125,64.0,46.0
16,7.95931895,9.20220034375,72.0,46.0
17,8.93492495,9.264191975,60.0,44.0
18,7.95931895,9.34650873125,48.0,49.0
19,8.44712195,9.356671293749999,55.0,44.0
20,8.93492495,9.364801343749999,67.0,49.0
21,8.93492495,9.36886636875,62.0,53.0
22,9.91053095,10.445081737499999,67.0,48.0
23,9.91053095,10.47861819375,62.0,46.0
24,9.91053095,10.575162537499999,71.0,49.0
25,10.39833395,11.32211088125,59.0,35.0
26,10.88613695,11.3312571875,67.0,47.0
27,10.88613695,11.363777387499999,62.0,44.0
28,9.91053095,11.376988718749999,47.0,46.0
29,11.86072669375,12.6523903125,58.0,66.0
30,11.86072669375,12.677796718749999,65.0,61.0
31,11.86072669375,12.6849105125,62.0,54.0
32,11.86072669375,12.6889755375,69.0,63.0
33,13.32515195,14.55583826875,62.0,50.0
34,13.32515195,14.814983612499999,67.0,48.0
35,13.32515195,15.59851718125,59.0,51.0
36,13.32515195,15.61071225625,55.0,44.0
37,13.32515195,15.6117285125,43.0,39.0
38,14.788560949999999,15.63916743125,62.0,46.0
39,15.27636395,15.70624034375,67.0,40.0
40,15.76416695,16.185913293749998,67.0,49.0
41,15.76416695,16.199124625,64.0,45.0
42,15.76416695,16.366806906249998,72.0,57.0
43,16.73977295,17.207250825,60.0,44.0
44,15.76416695,17.26517743125,48.0,62.0
45,16.73977295,17.274323737499998,67.0,52.0
46,16.73977295,17.2946488625,62.0,48.0
47,16.25196995,17.338347881249998,55.0,29.0
48,17.715378949999998,18.361717925,62.0,55.0
49,17.715378949999998,18.39830315,67.0,60.0
50,17.715378949999998,19.19403179375,74.0,51.0
51,19.17878795,19.54565645625,67.0,70.0
52,17.715378949999998,19.581225425,47.0,60.0
53,19.66659095,20.14321513125,72.0,63.0
54,19.66659095,20.15337769375,67.0,46.0
55,19.66659095,20.174719075,64.0,59.0
56,19.66659095,21.1056098,45.0,61.0
57,20.64219695,21.10662605625,72.0,54.0
58,20.64219695,21.11272359375,67.0,57.0
59,20.64219695,21.14930881875,64.0,54.0
60,21.617802949999998,22.20418280625,62.0,47.0
61,21.617802949999998,22.20621531875,67.0,51.0
62,21.617802949999998,22.46332815,71.0,47.0
63,21.617802949999998,22.70214836875,52.0,42.0
64,22.59340895,22.979586325,67.0,67.0
65,22.59340895,23.01312278125,62.0,56.0
66,21.617802949999998,23.1726750125,40.0,47.0
67,23.08121195,23.195032649999998,52.0,46.0
68,23.56901495,24.109663275,60.0,55.0
69,23.56901495,24.12693963125,65.0,58.0
70,23.56901495,24.15437855,69.0,54.0
71,23.56901495,24.78344116875,53.0,45.0
72,24.54462095,25.03547271875,65.0,49.0
73,24.54462095,25.04970030625,60.0,47.0
74,24.54462095,25.095431837499998,69.0,51.0
75,23.56901495,25.143195881249998,41.0,54.0
76,25.03242395,25.190959924999998,53.0,46.0
77,25.520226949999998,26.00091615625,67.0,54.0
78,25.520226949999998,26.01616,60.0,55.0
79,25.520226949999998,26.02733881875,64.0,55.0
80,25.520226949999998,26.725506862499998,52.0,45.0
81,26.49583295,26.885059093749998,64.0,56.0
82,26.49583295,26.8942054,60.0,49.0
83,26.49583295,26.9206280625,67.0,56.0
84,25.520226949999998,27.0059935875,40.0,49.0
85,26.98363595,27.09034285625,52.0,35.0
86,27.47143895,28.08220895625,60.0,48.0
87,27.47143895,28.093387775,65.0,57.0
88,27.47143895,28.1462331,72.0,43.0
89,27.47143895,28.14928186875,69.0,48.0
90,28.44704495,28.800702125,65.0,52.0
91,28.44704495,28.80578340625,60.0,48.0
92,28.44704495,28.8291573,69.0,49.0
93,27.47143895,28.892165187499998,50.0,54.0
94,29.422650949999998,29.7824056625,60.0,55.0
95,29.422650949999998,29.85455985625,69.0,55.0
96,29.422650949999998,29.86065739375,65.0,57.0
97,30.39825695,30.532402774999998,71.0,57.0
98,30.39825695,30.568987999999997,62.0,56.0
99,30.39825695,30.58219933125,67.0,63.0
100,29.91045395,30.8840274375,55.0,42.0
101,29.422650949999998,30.90232005,43.0,61.0
102,30.88605995,31.0141082375,64.0,47.0
103,30.88605995,31.06593730625,72.0,59.0
104,31.37386295,31.65739844375,72.0,56.0
105,31.37386295,31.822031956249997,64.0,57.0
106,31.37386295,31.84235708125,67.0,66.0
107,31.86166595,32.4734522125,55.0,48.0
108,32.34946895,32.751906425,67.0,60.0
109,32.34946895,32.82101185,60.0,48.0
110,32.34946895,32.8271093875,62.0,51.0
111,32.34946895,32.85251579375,64.0,55.0
112,31.37386295,32.88300348125,48.0,52.0
113,32.83727195,33.369790224999996,55.0,61.0
114,33.32507495,33.6726345875,67.0,67.0
115,33.32507495,33.769178931249996,62.0,54.0
116,33.81287795,34.33320115,55.0,44.0
117,34.30068095,34.70210216875,74.0,54.0
118,34.30068095,34.7132809875,67.0,58.0
119,34.30068095,34.82811794375,59.0,40.0
120,34.30068095,34.8311667125,62.0,47.0
121,34.78848395,34.85352435,55.0,39.0
122,34.78848395,35.23055541875,71.0,67.0
123,33.32507495,35.3108396625,47.0,62.0
124,35.27628695,35.8047402,72.0,59.0
125,35.27628695,35.825065325,64.0,49.0
126,35.27628695,35.825065325,67.0,55.0
127,35.76408995,36.2945757125,52.0,43.0
128,36.25189295,36.69802944375,67.0,51.0
129,36.25189295,36.6990457,64.0,48.0
130,36.25189295,36.73867969375,57.0,48.0
131,35.27628695,36.76103733125,45.0,44.0
132,36.25189295,37.00087380625,72.0,63.0
133,36.73969595,37.26916545625,52.0,49.0
134,37.22749895,37.74782215,67.0,56.0
135,37.22749895,37.768147275,71.0,58.0
136,37.22749895,37.78948865625,62.0,56.0
137,37.71530195,38.25899904375,52.0,49.0
138,38.20310495,38.520176899999996,67.0,56.0
139,38.20310495,38.658387749999996,71.0,64.0
140,38.20310495,38.69395671875,62.0,53.0
141,38.5689572,38.73054194375,52.0,60.0
142,38.20310495,38.75289958125,55.0,56.0
143,37.22749895,39.1522882875,43.0,60.0
144,39.178710949999996,39.67159523125,65.0,62.0
145,39.178710949999996,39.674644,60.0,61.0
146,39.178710949999996,39.686839075,69.0,61.0
147,39.66651395,40.26305636875,48.0,40.0
148,40.15431695,40.556754425,65.0,64.0
149,40.15431695,40.58825836875,60.0,64.0
150,40.15431695,40.63297364375,69.0,57.0
151,40.15431695,40.678705175,53.0,58.0
152,39.178710949999996,40.696997787499996,41.0,70.0
153,40.64211995,41.04963870625,48.0,61.0
154,41.12992295,41.638051075,72.0,58.0
155,41.12992295,41.66345748125,67.0,54.0
156,41.12992295,41.70614024375,64.0,58.0
157,41.61772595,42.182764425,48.0,48.0
158,42.10552895,42.54353539375,64.0,64.0
159,42.10552895,42.6177221,67.0,66.0
160,42.10552895,42.64109599375,52.0,59.0
161,41.12992295,42.64516101875,40.0,67.0
162,42.59333195,42.70715265,48.0,62.0
163,42.10552895,42.71629895625,72.0,62.0
164,43.08113495,43.580116768749996,72.0,56.0
165,43.08113495,43.60450691875,69.0,59.0
166,43.08113495,43.60857194375,65.0,70.0
167,43.08113495,43.63905963125,62.0,59.0
168,43.446987199999995,44.170561649999996,50.0,39.0
169,44.05674095,44.44799960625,72.0,44.0
170,44.05674095,44.5343813875,65.0,72.0
171,44.05674095,44.55165774375,62.0,63.0
172,43.08113495,44.56182030625,38.0,69.0
173,44.05674095,44.590275481249996,69.0,67.0
174,44.54454395,44.68986859375,50.0,53.0
175,45.03234695,45.46832088125,69.0,66.0
176,45.03234695,45.47441841875,60.0,66.0
177,45.03234695,45.540475074999996,65.0,66.0
178,45.3981992,45.97441649375,50.0,33.0
179,46.007952949999996,46.39921160625,71.0,62.0
180,46.007952949999996,46.4490081625,55.0,48.0
181,46.007952949999996,46.51912984375,67.0,67.0
182,46.007952949999996,46.572991425,62.0,62.0
183,45.03234695,46.57400768125,43.0,72.0
184,46.495755949999996,46.60449536875,50.0,49.0
185,46.98254269375,47.2681107,69.0,59.0
186,46.98254269375,47.35855750625,72.0,67.0
187,46.98254269375,47.3920939625,77.0,70.0
188,47.47136195,47.64514176875,67.0,55.0
189,47.47136195,47.843311737499995,76.0,62.0
190,47.95916495,48.093310775,69.0,66.0
191,47.95916495,48.109570874999996,72.0,75.0
192,47.47136195,48.11261964375,60.0,46.0
193,47.95916495,48.12074969375,77.0,76.0
194,47.95916495,48.21831029375,65.0,59.0
195,46.98254269375,48.5099758375,53.0,66.0
196,48.44696795,48.67460935,79.0,66.0
197,48.93477095,49.235582799999996,74.0,66.0
198,48.93477095,49.255907924999995,71.0,60.0
199,48.93477095,49.278265562499996,67.0,57.0
200,49.91037695,50.02114888125,62.0,69.0
201,49.91037695,50.03334395625,59.0,72.0
202,49.42257395,50.06586415625,50.0,28.0
203,49.91037695,50.09431933125,55.0,58.0
204,49.91037695,50.13700209375,67.0,69.0
205,48.93477095,50.30976565625,43.0,69.0
206,50.39817995,50.605496224999996,55.0,53.0
207,50.39817995,50.668504112499996,60.0,47.0
208,50.39817995,50.694926775,64.0,46.0
209,50.39817995,50.9327307375,45.0,55.0
210,50.88598295,51.33821698125,67.0,58.0
211,50.88598295,51.359558362499996,55.0,62.0
212,50.88598295,51.40325738125,60.0,70.0
213,50.88598295,51.58618350625,64.0,63.0
214,50.88598295,51.91138550625,48.0,70.0
215,51.86158895,52.35447323125,59.0,73.0
216,51.86158895,52.3717495875,62.0,70.0
217,51.86158895,52.37683086875,67.0,62.0
218,51.86158895,52.4225624,47.0,63.0
219,52.83719495,53.320932925,69.0,66.0
220,52.83719495,53.33820928125,64.0,70.0
221,52.83719495,53.3432905625,60.0,64.0
222,52.83719495,53.459143775,45.0,66.0
223,53.812800949999996,54.1644256125,60.0,60.0
224,53.812800949999996,54.268083749999995,64.0,66.0
225,53.812800949999996,54.27723005625,69.0,67.0
226,53.32499795,54.434749775,52.0,45.0
227,54.300603949999996,54.52519658125,60.0,43.0
228,54.300603949999996,54.57600939375,67.0,67.0
229,54.300603949999996,54.582106931249996,43.0,70.0
230,54.788406949999995,55.080072493749995,60.0,51.0
231,54.788406949999995,55.21421831875,62.0,48.0
232,54.788406949999995,55.21421831875,67.0,49.0
233,54.788406949999995,55.2945025625,57.0,49.0
234,55.27620995,55.82193955625,48.0,46.0
235,55.76401295,56.1522228375,65.0,72.0
236,55.76401295,56.23555585,53.0,53.0
237,55.76401295,56.248767181249995,60.0,72.0
238,54.788406949999995,56.255880975,41.0,67.0
239,55.76401295,56.3107588125,57.0,63.0
240,56.25181595,56.49470119375,48.0,43.0
241,56.73961895,57.19185298125,55.0,62.0
242,56.73961895,57.22843820625,60.0,72.0
243,56.73961895,57.251812099999995,64.0,75.0
244,57.22742195,57.80770426875,50.0,41.0
245,57.71522495,58.2660358375,62.0,76.0
246,56.73961895,58.282295937499995,43.0,66.0
247,57.71522495,58.28432845,67.0,70.0
248,57.71522495,58.28940973125,59.0,72.0
249,58.20302795,58.3107511125,50.0,66.0
250,58.69083095,59.19591030625,55.0,70.0
251,58.69083095,59.21420291875,60.0,73.0
252,58.69083095,59.23656055625,64.0,73.0
253,59.3005847,59.80363154375,48.0,39.0
254,59.66643695,60.0790369875,65.0,73.0
255,59.66643695,60.1115571875,60.0,72.0
256,58.69083095,60.1562724625,36.0,64.0
257,59.66643695,60.16948379375,57.0,63.0
258,60.64204295,62.198947525,60.0,72.0
259,60.64204295,62.216223881249995,64.0,66.0
260,60.64204295,62.2497603375,36.0,66.0
261,60.64204295,62.25484161875,55.0,63.0
262,60.15423995,62.311751968749995,48.0,57.0
263,62.593254949999995,62.995692425,67.0,67.0
264,62.593254949999995,63.01500129375,64.0,63.0
265,62.593254949999995,63.226382593749996,72.0,72.0
266,63.32495945,63.5749584875,62.0,60.0
267,63.32495945,63.70808805625,67.0,61.0
268,63.32495945,63.746705793749996,71.0,72.0
269,62.837156449999995,63.865607775,55.0,57.0
270,63.81276245,63.9672334,64.0,67.0
271,63.08105795,63.968249656249995,60.0,55.0
272,63.81276245,63.98450975625,67.0,66.0
273,63.81276245,64.00280236875,72.0,72.0
274,62.593254949999995,64.36255708125,48.0,64.0
275,64.30056545,64.55767828124999,55.0,52.0
276,64.54446695,64.963164525,74.0,70.0
277,64.54446695,64.971294575,64.0,66.0
278,64.54446695,65.0871477875,67.0,66.0
279,65.03226995,65.20604976874999,60.0,80.0
280,64.54446695,65.23247243125,48.0,69.0
281,65.27617144999999,65.35239066875,64.0,46.0
282,65.27617144999999,65.39710594374999,67.0,62.0
283,64.78836845,65.4286098875,55.0,66.0
284,65.27617144999999,65.5017803375,72.0,78.0
285,65.52007295,66.05157496875,62.0,82.0
286,65.52007295,66.07088383749999,67.0,76.0
287,65.52007295,66.0993390125,71.0,76.0
288,66.00787595,66.174541975,59.0,85.0
289,65.76397444999999,66.20401340625,55.0,69.0
290,65.52007295,66.2578749875,47.0,69.0
291,66.25177744999999,66.48450013125,69.0,59.0
292,66.3737282,66.49669520625,71.0,66.0
293,66.49567895,66.99669328125,72.0,62.0
294,66.49567895,67.00279081875,64.0,72.0
295,66.49567895,67.01498589375,67.0,69.0
296,67.22738345,67.36457804375,64.0,69.0
297,67.22738345,67.36864306875,67.0,75.0
298,67.22738345,67.5769756,72.0,76.0
299,66.98348195,67.743641625,57.0,76.0
300,67.71518645,67.82189335625,67.0,61.0
301,67.71518645,67.8920150375,62.0,72.0
302,67.71518645,67.9834781,71.0,78.0
303,67.95908795,68.17758304375,57.0,61.0
304,66.49567895,68.20705447499999,45.0,73.0
305,66.73958044999999,68.31376138125,52.0,50.0
306,68.20298945,68.79140181875,72.0,78.0
307,68.20298945,68.824938275,64.0,75.0
308,68.20298945,68.83408458125,67.0,75.0
309,68.93469395,69.1643678625,57.0,88.0
310,68.44689095,69.18367673125,45.0,70.0
311,69.17859545,69.34119645,67.0,61.0
312,69.17859545,69.38387921249999,72.0,72.0
313,69.42249695,69.4651797125,72.0,49.0
314,68.69079245,69.46619596875,52.0,73.0
315,69.42249695,69.800544275,71.0,82.0
316,69.42249695,69.9529827125,62.0,75.0
317,69.66639845,70.02920193125,52.0,73.0
318,69.91029995,70.044445775,55.0,88.0
319,69.42249695,70.06781966875,43.0,70.0
320,70.15420145,70.377777825,67.0,70.0
321,70.39810295,70.8310281125,41.0,73.0
322,70.64200445,70.90521481875,48.0,69.0
323,70.88590595,71.2090754375,53.0,70.0
324,70.39810295,71.28529465625,60.0,73.0
325,70.39810295,71.394034075,65.0,73.0
326,70.39810295,71.43976560624999,69.0,75.0
327,71.37370895,71.62065921874999,57.0,69.0
328,71.12980745,71.63488680625,55.0,62.0
329,71.61761045,71.77106514375,60.0,82.0
330,71.86151195,72.12878734374999,65.0,66.0
331,72.10541345,72.28427454999999,69.0,63.0
332,72.34931495,72.67654946249999,40.0,72.0
333,72.59321645,72.9123209125,52.0,60.0
334,72.34931495,72.9753288,60.0,73.0
335,72.34931495,73.02309284374999,67.0,66.0
336,73.08101945,73.40114016875,60.0,69.0
337,73.32492094999999,73.53122096874999,67.0,63.0
338,73.56882245,73.61252146875,67.0,45.0
339,72.83711794999999,73.71617960625,55.0,69.0
340,73.56882245,73.857439225,69.0,67.0
341,73.81272394999999,74.15418604999999,72.0,78.0
342,74.30052694999999,74.613533875,60.0,88.0
343,74.30052694999999,74.6399565375,65.0,75.0
344,74.05662545,74.65215161249999,69.0,69.0
345,74.78832995,74.95804474375,60.0,49.0
346,74.54442845,75.16739353125,57.0,72.0
347,75.03223145,75.5932049,69.0,73.0
348,75.03223145,75.60641623125,60.0,76.0
349,75.03223145,75.60641623125,65.0,69.0
350,75.52003445,75.73141575,57.0,72.0
351,74.30052694999999,75.82999260625,50.0,66.0
352,75.76393595,75.92755320625,60.0,85.0
353,76.00783745,76.15722711875,65.0,70.0
354,76.25173895,76.64299760624999,60.0,85.0
355,76.25173895,76.66942026875,69.0,70.0
356,76.25173895,76.6887291375,65.0,75.0
357,76.73954195,76.99258975625,55.0,91.0
358,76.98344345,77.08202030625,62.0,85.0
359,76.98344345,77.10641045625,74.0,85.0
360,76.25173895,77.272060225,43.0,76.0
361,76.49564045,77.27510899375,50.0,67.0
362,77.22734495,77.33201934374999,64.0,67.0
363,77.22734495,77.34421441875,76.0,82.0
364,77.22734495,77.55356320625,55.0,85.0
365,77.47124645,77.58608340625,65.0,60.0
366,77.47124645,77.58811591874999,77.0,78.0
367,77.71514795,77.816773575,67.0,57.0
368,77.71514795,77.8310011625,59.0,67.0
369,77.71514795,77.833033675,79.0,80.0
370,77.47124645,77.87470018124999,57.0,41.0
371,77.95904945,78.06372384375,69.0,56.0
372,77.95904945,78.08913025,81.0,73.0
373,78.20193469375,78.60233965625,48.0,69.0
374,78.44685245,78.6643312875,55.0,66.0
375,78.20193469375,78.79136331875,72.0,69.0
376,78.69075395,78.979370725,60.0,67.0
377,78.20193469375,79.198882075,79.0,72.0
378,79.17855695,79.54745796875,64.0,66.0
379,78.93465545,79.57997816875,62.0,59.0
380,79.42245845,79.7618880375,67.0,88.0
381,79.66635995,79.841156025,72.0,76.0
382,79.91026145,80.33302404999999,67.0,69.0
383,79.91026145,80.50883638124999,79.0,78.0
384,79.91026145,80.5179826875,72.0,67.0
385,80.15416295,80.7456240875,48.0,73.0
386,80.64196595,80.75578665,79.0,30.0
387,80.64196595,80.80558320624999,60.0,76.0
388,80.88586744999999,81.01086696875,67.0,67.0
389,80.88586744999999,81.0261108125,76.0,73.0
390,80.39806444999999,81.04338716875,55.0,72.0
391,81.12976895,81.45598720625,76.0,76.0
392,81.37367044999999,81.5301739125,74.0,72.0
393,81.12976895,81.532206425,67.0,70.0
394,81.61757195,81.79338428125,59.0,73.0
395,81.37367044999999,81.80151433125,55.0,67.0
396,81.61757195,81.8147256625,74.0,72.0
397,81.12976895,81.85232714375,47.0,70.0
398,81.61757195,82.0057818375,67.0,69.0
399,81.86147344999999,82.04541583125,72.0,75.0
400,82.10537495,82.55760898125,45.0,73.0
401,82.34927644999999,82.59521046249999,52.0,59.0
402,82.59317795,82.8939898,57.0,51.0
403,82.10537495,83.133826275,67.0,70.0
404,82.10537495,83.14703760625,72.0,75.0
405,83.32488245,83.5057760625,67.0,70.0
406,83.08098095,83.58504405,60.0,63.0
407,82.83707945,83.6114667125,59.0,66.0
408,83.56878395,83.6521169625,67.0,40.0
409,83.56878395,83.89703471874999,72.0,67.0
410,83.81268545,84.1480500125,67.0,69.0
411,83.81268545,84.1561800625,79.0,75.0
412,84.30048845,84.4976421625,67.0,72.0
413,84.30048845,84.67345449375,76.0,76.0
414,84.05658695,84.74052740625,45.0,64.0
415,84.54438995,84.776096375,57.0,72.0
416,84.30048845,84.9915427,52.0,70.0
417,84.78829145,85.20800528125,74.0,80.0
418,84.78829145,85.4447929875,67.0,61.0
419,85.51999595,85.71410089375,55.0,78.0
420,85.27609445,85.73442601875,52.0,64.0
421,85.03219295,85.75475114375,43.0,58.0
422,85.76389745,86.01084771875,72.0,62.0
423,85.8858482,86.0179615125,74.0,60.0
424,86.00779895,86.3675536625,76.0,59.0
425,86.00779895,86.45190293125,67.0,66.0
426,86.73950345,87.06470544999999,57.0,69.0
427,86.49560195,87.17039609999999,53.0,73.0
428,86.98340495,87.3797448875,60.0,73.0
429,87.22730645,87.55962224375,57.0,60.0
430,87.22730645,87.58502865,65.0,64.0
431,87.47120795,87.65515033125,53.0,48.0
432,86.00779895,87.8147025625,41.0,66.0
433,86.25170045,88.05555529375,48.0,63.0
434,87.71510945,88.06165283125,57.0,73.0
435,87.71510945,88.10027056874999,60.0,66.0
436,87.71510945,88.53116321875,65.0,78.0
437,88.69071545,89.003722375,55.0,69.0
438,88.44681394999999,89.10534799999999,52.0,78.0
439,88.93461694999999,89.14498199375,60.0,76.0
440,89.17851845,89.50880173125,60.0,49.0
441,89.17851845,89.55250075,67.0,72.0
442,89.42241994999999,89.7211992875,52.0,62.0
443,88.20291245,89.72221554375,48.0,64.0
444,87.95901094999999,89.73237810625,40.0,69.0
445,89.66632145,89.88481654374999,62.0,69.0
446,89.91022294999999,90.280140225,57.0,67.0
447,89.91022294999999,90.30046535,60.0,59.0
448,89.91022294999999,90.312660425,65.0,78.0
449,90.39802595,90.54335059374999,57.0,67.0
450,90.39802595,90.59213089375,64.0,73.0
451,90.15412445,90.72322795,50.0,57.0
452,90.64192745,90.96103191249999,65.0,76.0
453,90.64192745,90.97017821875,57.0,64.0
454,90.64192745,91.02708856875,60.0,76.0
455,91.12973045,91.34009549375,57.0,62.0
456,89.91022294999999,91.38684328125,38.0,73.0
457,91.37363195,91.442737375,57.0,40.0
458,90.88582895,91.47119255,50.0,51.0
459,91.37363195,91.544363,60.0,64.0
460,91.61753345,91.80147583125,62.0,61.0
461,91.86143495,92.198832025,65.0,73.0
462,91.86143495,92.22423843125,57.0,64.0
463,91.86143495,92.48846505624999,60.0,72.0
464,92.34923795,92.69984635624999,55.0,72.0
465,92.59313945,92.93460155,67.0,75.0
466,92.59313945,92.96407298125,59.0,80.0
467,92.59313945,92.98439810625,62.0,76.0
468,93.08094245,93.30756759375,62.0,69.0
469,93.08094245,93.3350065125,67.0,70.0
470,93.32484395,93.41325824375,55.0,70.0
471,93.08094245,93.41732326875,59.0,73.0
472,92.10533645,93.43866464999999,50.0,72.0
473,91.86143495,93.4569572625,43.0,66.0
474,93.56874545,93.79333808125,62.0,67.0
475,93.81264695,94.31975881875,65.0,72.0
476,93.81264695,94.41325439375,60.0,70.0
477,93.81264695,94.41528690625,57.0,70.0
478,94.54435145,94.6927248625,57.0,64.0
479,94.54435145,94.73947265,64.0,73.0
480,94.30044995,94.88276478125,53.0,72.0
481,94.78825295,94.89495985625,57.0,48.0
482,94.78825295,95.1114224375,65.0,61.0
483,93.81264695,95.1602027375,41.0,67.0
484,94.78825295,95.17341406874999,60.0,75.0
485,95.03215445,95.25268205625,53.0,56.0
486,94.05654845,95.2577633375,48.0,67.0
487,95.27605595,95.40613675,57.0,59.0
488,95.3980067,95.46406335625,62.0,36.0
489,95.6419082,95.69576978125,43.0,57.0
490,95.51995744999999,96.15511760625,67.0,72.0
491,95.51995744999999,96.17341021874999,62.0,67.0
492,95.51995744999999,96.27706835625,59.0,69.0
493,96.25166195,96.76182258749999,55.0,78.0
494,96.49556344999999,97.02096793125,60.0,88.0
495,95.76385895,97.0301142375,43.0,75.0
496,96.49556344999999,97.04332556874999,65.0,78.0
497,96.00776044999999,97.06873197499999,50.0,69.0
498,96.98336644999999,97.125642325,55.0,67.0
499,97.71507095,98.223199075,65.0,64.0
500,97.71507095,98.23031286874999,67.0,73.0
501,98.20287395,98.70795330624999,60.0,73.0
502,98.44677545,99.63681151875,64.0,67.0
503,98.44677545,99.76079478125,67.0,60.0
504,100.64188895,100.7414820625,72.0,78.0
505,100.64188895,100.77501851875,84.0,78.0
506,100.88579045,100.97420474375,74.0,73.0
507,100.88579045,100.99046484375,86.0,85.0
508,101.12969195,101.21200870625,75.0,73.0
509,101.12969195,101.22217126875,87.0,82.0
510,97.95897244999999,101.23436634375,55.0,46.0
511,97.71507095,101.25875649375,48.0,63.0
512,101.37359345,101.47826784375,89.0,88.0
513,101.37359345,101.4813166125,77.0,78.0
514,101.61647869375,102.03720878125,65.0,40.0
515,101.61647869375,102.0463550875,60.0,61.0
516,101.61647869375,102.07176149375,68.0,55.0
517,102.34919945,102.6073285375,60.0,66.0
518,102.34919945,102.75468569374999,63.0,67.0
519,102.34919945,102.78110835625,67.0,66.0
520,102.83700245,103.2130172625,62.0,41.0
521,101.61647869375,103.23639115625,44.0,70.0
522,102.83700245,103.251635,65.0,44.0
523,102.10529795,103.35326062499999,56.0,64.0
524,101.86139645,103.42236605,51.0,63.0
525,103.32480545,103.56362566874999,63.0,57.0
526,103.32480545,103.64390991249999,67.0,53.0
527,103.56870694999999,103.9772419625,44.0,69.0
528,103.81260845,104.04126610624999,51.0,62.0
529,104.05650994999999,104.34614298125,56.0,59.0
530,104.30041145,104.54126418125,67.0,54.0
531,104.30041145,104.57581689375,70.0,63.0
532,104.30041145,104.64187355,75.0,63.0
533,104.78821445,104.9406528875,65.0,53.0
534,104.54431294999999,105.04837605,60.0,63.0
535,104.30041145,105.08089625,58.0,50.0
536,104.78821445,105.18150561875,74.0,75.0
537,105.51991894999999,105.8999987875,67.0,54.0
538,105.51991894999999,105.914226375,70.0,57.0
539,105.51991894999999,105.92642144999999,74.0,59.0
540,106.25162345,106.57682545,65.0,44.0
541,106.49552495,106.73637768124999,70.0,42.0
542,106.00772195,106.82580823125,62.0,47.0
543,105.51991894999999,106.995523025,51.0,63.0
544,106.73942645,107.04531958125,74.0,69.0
545,106.98332795,107.19979053125,72.0,56.0
546,105.76382045,107.28922108124999,58.0,49.0
547,107.22722945,107.67336594375,65.0,52.0
548,107.22722945,107.88271473124999,70.0,70.0
549,108.20283545,108.36645270625,65.0,64.0
550,108.44673695,108.5219399125,65.0,43.0
551,108.44673695,108.57681775,67.0,59.0
552,107.95893395,108.66726455625,63.0,76.0
553,107.47113095,108.84714191249999,51.0,64.0
554,108.69063845,108.85628821875,70.0,60.0
555,107.71503245,108.86949955,58.0,62.0
556,109.30039219999999,109.8512030875,63.0,70.0
557,109.30039219999999,109.98230014375,60.0,57.0
558,109.42234295,109.99144645,67.0,73.0
559,109.91014595,110.04530803125,70.0,20.0
560,110.15404745,110.46095683749999,60.0,57.0
561,110.15404745,110.53209477499999,65.0,67.0
562,109.91014595,110.613395275,56.0,70.0
563,110.64185044999999,110.95180860625,63.0,64.0
564,110.64185044999999,110.96705245,67.0,60.0
565,109.42234295,111.09713325,44.0,69.0
566,110.88575195,111.12965344999999,56.0,57.0
567,109.66624445,111.2129864625,51.0,63.0
568,111.12965344999999,111.2780268625,62.0,54.0
569,111.12965344999999,111.33595346874999,65.0,55.0
570,111.37355495,111.8369678,67.0,78.0
571,111.37355495,111.922333325,63.0,69.0
572,111.86135795,112.2292427125,56.0,66.0
573,112.10525944999999,112.64692403125,67.0,67.0
574,112.10525944999999,112.65810284999999,60.0,58.0
575,112.10525944999999,112.6763954625,63.0,72.0
576,112.59306244999999,112.7007856125,56.0,66.0
577,111.37355495,112.72822453124999,44.0,69.0
578,111.61745644999999,112.72822453124999,51.0,55.0
579,113.32476695,113.58391229375,39.0,70.0
580,113.56866844999999,113.87761035,51.0,54.0
581,113.32476695,114.0137886875,67.0,70.0
582,113.32476695,114.03106504374999,58.0,57.0
583,113.32476695,114.13777195,62.0,67.0
584,114.05647145,114.41520990625,55.0,72.0
585,113.81256995,114.45382764375,53.0,60.0
586,114.30037295,114.46602271875,58.0,75.0
587,114.54427445,114.59000598125,58.0,44.0
588,114.54427445,114.74854195625,62.0,76.0
589,114.78817595,114.99041094374999,63.0,70.0
590,115.03207745,115.59813218125,58.0,69.0
591,115.03207745,115.62963612499999,65.0,72.0
592,115.76378195,115.92333418125,58.0,52.0
593,115.51988045,116.07678887499999,51.0,85.0
594,116.00768345,116.55544556875,67.0,78.0
595,116.00768345,116.55951059374999,58.0,72.0
596,116.00768345,116.5625593625,62.0,78.0
597,115.27597895,116.57475443749999,39.0,67.0
598,116.49548645,116.6113396625,51.0,72.0
599,117.22719095,117.76479050625,66.0,78.0
600,117.22719095,117.7780018375,63.0,67.0
601,117.22719095,117.78105060624999,73.0,67.0
602,117.22719095,117.88165997499999,71.0,67.0
603,117.95889545,118.24446345625,61.0,72.0
604,117.95889545,118.35015410625,68.0,59.0
605,117.71499395,118.4975112625,59.0,72.0
606,118.44669845,118.72413640625,61.0,64.0
607,118.44669845,118.7820630125,66.0,75.0
608,118.69059994999999,118.86946105,59.0,60.0
609,117.22719095,118.91112755625,47.0,70.0
610,117.47109245,119.03511081875,54.0,66.0
611,118.93450145,119.060517225,61.0,48.0
612,119.17840294999999,119.63876703125,61.0,69.0
613,119.17840294999999,119.6479133375,66.0,69.0
614,119.17840294999999,119.6479133375,70.0,64.0
615,119.91010745,120.288154775,61.0,73.0
616,119.91010745,120.30441487499999,66.0,76.0
617,119.66620594999999,120.36640650625,58.0,61.0
618,119.42230445,120.69973855625,54.0,62.0
619,120.39791045,120.702787325,61.0,72.0
620,120.39791045,120.7210799375,66.0,78.0
621,120.39791045,120.73429126875,73.0,70.0
622,119.17840294999999,120.74038880625,46.0,73.0
623,120.64181194999999,120.75461639375,58.0,64.0
624,121.12961494999999,121.467012025,63.0,67.0
625,121.12961494999999,121.47107704999999,66.0,75.0
626,121.12961494999999,121.48632089374999,71.0,75.0
627,121.61741795,121.72005983125,61.0,47.0
628,121.61741795,121.74851500625,70.0,49.0
629,121.86131945,122.15705001875,63.0,57.0
630,121.86131945,122.16314755625,66.0,66.0
631,121.86131945,122.20176529375,71.0,97.0
632,121.12961494999999,122.483268275,44.0,69.0
633,122.34912245,122.50664216874999,66.0,72.0
634,121.37351645,122.50867468125,51.0,60.0
635,122.10522095,122.55135744374999,56.0,59.0
636,122.59302395,122.84403924375,68.0,62.0
637,122.83692545,122.9913964,73.0,63.0
638,123.08082695,123.33082598749999,66.0,73.0
639,123.08082695,123.38468756875,70.0,69.0
640,123.81253145,123.9324496875,70.0,62.0
641,123.81253145,124.16110734374999,77.0,75.0
642,123.32472845,124.2332615375,61.0,66.0
643,123.56862995,124.2576516875,66.0,59.0
644,124.30033445,124.64078029375,68.0,91.0
645,124.54423595,124.645861575,61.0,78.0
646,124.30033445,124.65704039375,73.0,88.0
647,123.08082695,124.6641541875,54.0,73.0
648,125.03203895,125.91110060625,60.0,62.0
649,125.03203895,125.9243119375,63.0,62.0
650,125.03203895,125.9243119375,67.0,72.0
651,125.03203895,126.3145543375,56.0,64.0
652,126.00764495,126.53813071249999,67.0,75.0
653,126.00764495,126.54524450625,60.0,69.0
654,126.00764495,126.5503257875,63.0,80.0
655,125.1539897,126.65398392499999,44.0,23.0
656,126.49544795,126.65703269375,56.0,70.0
657,126.98325095,127.75560569999999,65.0,72.0
658,126.98325095,127.7617032375,67.0,73.0
659,126.98325095,127.77999584999999,62.0,63.0
660,126.98325095,128.18040081249998,55.0,64.0
661,127.95885695,128.5259279375,70.0,70.0
662,127.95885695,128.54422055,65.0,64.0
663,126.98325095,128.5503180875,43.0,69.0
664,127.95885695,128.55133434375,67.0,61.0
665,127.95885695,128.564545675,62.0,61.0
666,128.44665995,128.5706432125,55.0,73.0
667,128.93446294999998,129.755598,60.0,69.0
668,128.93446294999998,129.7576305125,65.0,70.0
669,128.93446294999998,129.7576305125,69.0,66.0
670,128.942593,129.792183225,67.0,28.0
671,128.93446294999998,130.15092168125,53.0,72.0
672,128.9324304375,130.41209953749998,38.0,72.0
673,129.91006895,130.45783106874998,65.0,70.0
674,129.91006895,130.45986358125,69.0,72.0
675,129.91006895,130.46392860625,60.0,72.0
676,129.91006895,130.47612368125,67.0,73.0
677,130.39787195,130.52083895625,53.0,88.0
678,130.88567495,131.62652575625,67.0,69.0
679,130.88567495,131.62855826875,62.0,64.0
680,130.88567495,131.65701344375,71.0,67.0
681,131.86128095,132.20782433125,62.0,62.0
682,131.61737945,132.33282384999998,55.0,44.0
683,132.10518245,132.36229528125,71.0,64.0
684,131.86128095,132.36229528125,74.0,72.0
685,130.88567495,132.38871794375,43.0,73.0
686,132.34908395,132.66412338749998,69.0,58.0
687,132.59298545,132.89481355625,62.0,40.0
688,132.59298545,132.9608702125,67.0,59.0
689,132.83688695,132.9608702125,67.0,49.0
690,132.83688695,133.271844625,64.0,45.0
691,132.83688695,133.43952690625,72.0,57.0
692,133.81249295,134.279970825,60.0,44.0
693,132.83688695,134.33789743124998,48.0,62.0
694,133.81249295,134.3470437375,67.0,52.0
695,133.81249295,134.3673688625,62.0,48.0
696,133.32468995,134.41106788125,55.0,29.0
697,134.78708269375,135.434437925,62.0,55.0
698,134.78708269375,135.47102315,67.0,60.0
699,134.78708269375,136.26675179375,74.0,51.0
700,136.25150795,136.61837645625,67.0,70.0
701,134.78708269375,136.653945425,47.0,60.0
702,136.73931095,137.21593513125,72.0,63.0
703,136.73931095,137.22609769375,67.0,46.0
704,136.73931095,137.247439075,64.0,59.0
705,136.73931095,138.1783298,45.0,61.0
706,137.71491695,138.17934605624998,72.0,54.0
707,137.71491695,138.18544359375,67.0,57.0
708,137.71491695,138.22202881875,64.0,54.0
709,138.69052295,139.27690280625,62.0,47.0
710,138.69052295,139.27893531875,67.0,51.0
711,138.69052295,139.53604815,71.0,47.0
712,138.69052295,139.77486836875,52.0,42.0
713,139.66612895,140.052306325,67.0,67.0
714,139.66612895,140.08584278125,62.0,56.0
715,138.69052295,140.24539501249998,40.0,47.0
716,140.15393195,140.26775265,52.0,46.0
717,140.64173495,141.182383275,60.0,55.0
718,140.64173495,141.19965963125,65.0,58.0
719,140.64173495,141.22709855,69.0,54.0
720,140.64173495,141.85616116875,53.0,45.0
721,141.61734095,142.10819271875,65.0,49.0
722,141.61734095,142.12242030625,60.0,47.0
723,141.61734095,142.1681518375,69.0,51.0
724,140.64173495,142.21591588125,41.0,54.0
725,142.10514394999998,142.263679925,53.0,46.0
726,142.59294695,143.07363615625,67.0,54.0
727,142.59294695,143.08888,60.0,55.0
728,142.59294695,143.10005881875,64.0,55.0
729,142.59294695,143.7982268625,52.0,45.0
730,143.56855295,143.95777909375,64.0,56.0
731,143.56855295,143.9669254,60.0,49.0
732,143.56855295,143.9933480625,67.0,56.0
733,142.59294695,144.0787135875,40.0,49.0
734,144.05635594999998,144.16306285625,52.0,35.0
735,144.54415895,145.15492895625,60.0,48.0
736,144.54415895,145.166107775,65.0,57.0
737,144.54415895,145.2189531,72.0,43.0
738,144.54415895,145.22200186875,69.0,48.0
739,145.51976495,145.873422125,65.0,52.0
740,145.51976495,145.87850340625,60.0,48.0
741,145.51976495,145.9018773,69.0,49.0
742,144.54415895,145.9648851875,50.0,54.0
743,146.49537095,146.8551256625,60.0,55.0
744,146.49537095,146.92727985625,69.0,55.0
745,146.49537095,146.93337739375,65.0,57.0
746,147.47097695,147.60512277499998,71.0,57.0
747,147.47097695,147.641708,62.0,56.0
748,147.47097695,147.65491933125,67.0,63.0
749,146.98317395,147.95674743749998,55.0,42.0
750,146.49537095,147.97504005,43.0,61.0
751,147.95877995,148.0868282375,64.0,47.0
752,147.95877995,148.13865730625,72.0,59.0
753,148.44658295,148.73011844375,72.0,56.0
754,148.44658295,148.89475195625,64.0,57.0
755,148.44658295,148.91507708125,67.0,66.0
756,148.93438595,149.54617221249998,55.0,48.0
757,149.42218895,149.824626425,67.0,60.0
758,149.42218895,149.89373185,60.0,48.0
759,149.42218895,149.8998293875,62.0,51.0
760,149.42218895,149.92523579375,64.0,55.0
761,148.44658295,149.95572348125,48.0,52.0
762,149.90999195,150.442510225,55.0,61.0
763,150.39779495,150.7453545875,67.0,67.0
764,150.39779495,150.84189893125,62.0,54.0
765,150.88559795,151.40592114999998,55.0,44.0
766,151.37340095,151.77482216875,74.0,54.0
767,151.37340095,151.7860009875,67.0,58.0
768,151.37340095,151.90083794375,59.0,40.0
769,151.37340095,151.9038867125,62.0,47.0
770,151.86120395,151.92624435,55.0,39.0
771,151.86120395,152.30327541875,71.0,67.0
772,150.39779495,152.3835596625,47.0,62.0
773,152.34900695,152.8774602,72.0,59.0
774,152.34900695,152.897785325,64.0,49.0
775,152.34900695,152.897785325,67.0,55.0
776,152.83680995,153.3672957125,52.0,43.0
777,153.32461295,153.77074944375,67.0,51.0
778,153.32461295,153.7717657,64.0,48.0
779,153.32461295,153.81139969375,57.0,48.0
780,152.34900695,153.83375733124998,45.0,44.0
781,153.32461295,154.07359380625,72.0,63.0
782,153.81241595,154.34188545625,52.0,49.0
783,154.30021895,154.82054215,67.0,56.0
784,154.30021895,154.840867275,71.0,58.0
785,154.30021895,154.86220865625,62.0,56.0
786,154.78802195,155.33171904374998,52.0,49.0
787,155.27582495,155.5928969,67.0,56.0
788,155.27582495,155.73110775,71.0,64.0
789,155.27582495,155.76667671875,62.0,53.0
790,155.6416772,155.80326194375,52.0,60.0
791,155.27582495,155.82561958125,55.0,56.0
792,154.30021895,156.2250082875,43.0,60.0
793,156.25143094999999,156.74431523125,65.0,62.0
794,156.25143094999999,156.747364,60.0,61.0
795,156.25143094999999,156.759559075,69.0,61.0
796,156.73923395,157.33577636875,48.0,40.0
797,157.22703694999998,157.62947442499998,65.0,64.0
798,157.22703694999998,157.66097836875,60.0,64.0
799,157.22703694999998,157.70569364375,69.0,57.0
800,157.22703694999998,157.751425175,53.0,58.0
801,156.25143094999999,157.76971778749999,41.0,70.0
802,157.71483995,158.12235870625,48.0,61.0
803,158.20264294999998,158.710771075,72.0,58.0
804,158.20264294999998,158.73617748125,67.0,54.0
805,158.20264294999998,158.77886024375,64.0,58.0
806,158.69044595,159.255484425,48.0,48.0
807,159.17824894999998,159.61625539375,64.0,64.0
808,159.17824894999998,159.69044209999998,67.0,66.0
809,159.17824894999998,159.71381599375,52.0,59.0
810,158.20264294999998,159.71788101875,40.0,67.0
811,159.66605195,159.77987265,48.0,62.0
812,159.17824894999998,159.78901895625,72.0,62.0
813,160.15385494999998,160.65283676875,72.0,56.0
814,160.15385494999998,160.67722691875,69.0,59.0
815,160.15385494999998,160.68129194374998,65.0,70.0
816,160.15385494999998,160.71177963124998,62.0,59.0
817,160.5197072,161.24328165,50.0,39.0
818,161.12946095,161.52071960625,72.0,44.0
819,161.12946095,161.6071013875,65.0,72.0
820,161.12946095,161.62437774375,62.0,63.0
821,160.15385494999998,161.63454030625,38.0,69.0
822,161.12946095,161.66299548125,69.0,67.0
823,161.61726395,161.76258859375,50.0,53.0
824,162.10506695,162.54104088124998,69.0,66.0
825,162.10506695,162.54713841875,60.0,66.0
826,162.10506695,162.613195075,65.0,66.0
827,162.4709192,163.04713649375,50.0,33.0
828,163.08067295,163.47193160625,71.0,62.0
829,163.08067295,163.52172816249998,55.0,48.0
830,163.08067295,163.59184984375,67.0,67.0
831,163.08067295,163.645711425,62.0,62.0
832,162.10506695,163.64672768124998,43.0,72.0
833,163.56847595,163.67721536874998,50.0,49.0
834,164.05526269375,164.3408307,69.0,59.0
835,164.05526269375,164.43127750624998,72.0,67.0
836,164.05526269375,164.4648139625,77.0,70.0
837,164.54408195,164.71786176875,67.0,55.0
838,164.54408195,164.9160317375,76.0,62.0
839,165.03188495,165.166030775,69.0,66.0
840,165.03188495,165.182290875,72.0,75.0
841,164.54408195,165.18533964374998,60.0,46.0
842,165.03188495,165.19346969375,77.0,76.0
843,165.03188495,165.29103029375,65.0,59.0
844,164.05526269375,165.58269583749998,53.0,66.0
845,165.51968795,165.74732935,79.0,66.0
846,166.00749095,166.3083028,74.0,66.0
847,166.00749095,166.328627925,71.0,60.0
848,166.00749095,166.3509855625,67.0,57.0
849,166.98309695,167.09386888125,62.0,69.0
850,166.98309695,167.10606395624998,59.0,72.0
851,166.49529395,167.13858415625,50.0,28.0
852,166.98309695,167.16703933125,55.0,58.0
853,166.98309695,167.20972209375,67.0,69.0
854,166.00749095,167.38248565625,43.0,69.0
855,167.47089995,167.678216225,55.0,53.0
856,167.47089995,167.7412241125,60.0,47.0
857,167.47089995,167.767646775,64.0,46.0
858,167.47089995,168.00545073749998,45.0,55.0
859,167.95870295,168.41093698125,67.0,58.0
860,167.95870295,168.4322783625,55.0,62.0
861,167.95870295,168.47597738125,60.0,70.0
862,167.95870295,168.65890350625,64.0,63.0
863,167.95870295,168.98410550625,48.0,70.0
864,168.93430895,169.42719323125,59.0,73.0
865,168.93430895,169.4444695875,62.0,70.0
866,168.93430895,169.44955086875,67.0,62.0
867,168.93430895,169.4952824,47.0,63.0
868,169.90991495,170.393652925,69.0,66.0
869,169.90991495,170.41092928125,64.0,70.0
870,169.90991495,170.4160105625,60.0,64.0
871,169.90991495,170.531863775,45.0,66.0
872,170.88552095,171.2371456125,60.0,60.0
873,170.88552095,171.34080375,64.0,66.0
874,170.88552095,171.34995005625,69.0,67.0
875,170.39771795,171.507469775,52.0,45.0
876,171.37332394999999,171.59791658125,60.0,43.0
877,171.37332394999999,171.64872939375,67.0,67.0
878,171.37332394999999,171.65482693125,43.0,70.0
879,171.86112695,172.15279249374998,60.0,51.0
880,171.86112695,172.28693831875,62.0,48.0
881,171.86112695,172.28693831875,67.0,49.0
882,171.86112695,172.3672225625,57.0,49.0
883,172.34892994999998,172.89465955625,48.0,46.0
884,172.83673295,173.2249428375,65.0,72.0
885,172.83673295,173.30827585,53.0,53.0
886,172.83673295,173.32148718125,60.0,72.0
887,171.86112695,173.328600975,41.0,67.0
888,172.83673295,173.3834788125,57.0,63.0
889,173.32453594999998,173.56742119375,48.0,43.0
890,173.81233895,174.26457298124998,55.0,62.0
891,173.81233895,174.30115820625,60.0,72.0
892,173.81233895,174.3245321,64.0,75.0
893,174.30014194999998,174.88042426875,50.0,41.0
894,174.78794495,175.3387558375,62.0,76.0
895,173.81233895,175.35501593749999,43.0,66.0
896,174.78794495,175.35704845,67.0,70.0
897,174.78794495,175.36212973125,59.0,72.0
898,175.27574794999998,175.3834711125,50.0,66.0
899,175.76355095,176.26863030625,55.0,70.0
900,175.76355095,176.28692291875,60.0,73.0
901,175.76355095,176.30928055625,64.0,73.0
902,176.3733047,176.87635154375,48.0,39.0
903,176.73915695,177.1517569875,65.0,73.0
904,176.73915695,177.1842771875,60.0,72.0
905,175.76355095,177.2289924625,36.0,64.0
906,176.73915695,177.24220379375,57.0,63.0
907,177.71476295,179.271667525,60.0,72.0
908,177.71476295,179.28894388125,64.0,66.0
909,177.71476295,179.3224803375,36.0,66.0
910,177.71476295,179.32756161875,55.0,63.0
911,177.22695995,179.38447196875,48.0,57.0
912,179.66597495,180.068412425,67.0,67.0
913,179.66597495,180.08772129375,64.0,63.0
914,179.66597495,180.29910259375,72.0,72.0
915,180.39767945,180.6476784875,62.0,60.0
916,180.39767945,180.78080805624998,67.0,61.0
917,180.39767945,180.81942579374999,71.0,72.0
918,179.90987644999998,180.938327775,55.0,57.0
919,180.88548244999998,181.0399534,64.0,67.0
920,180.15377795,181.04096965624998,60.0,55.0
921,180.88548244999998,181.05722975625,67.0,66.0
922,180.88548244999998,181.07552236875,72.0,72.0
923,179.66597495,181.43527708125,48.0,64.0
924,181.37328545,181.63039828125,55.0,52.0
925,181.61718695,182.035884525,74.0,70.0
926,181.61718695,182.044014575,64.0,66.0
927,181.61718695,182.1598677875,67.0,66.0
928,182.10498995,182.27876976874998,60.0,80.0
929,181.61718695,182.30519243125,48.0,69.0
930,182.34889145,182.42511066875,64.0,46.0
931,182.34889145,182.46982594374998,67.0,62.0
932,181.86108844999998,182.5013298875,55.0,66.0
933,182.34889145,182.57450033749998,72.0,78.0
934,182.59279295,183.12429496875,62.0,82.0
935,182.59279295,183.1436038375,67.0,76.0
936,182.59279295,183.1720590125,71.0,76.0
937,183.08059595,183.247261975,59.0,85.0
938,182.83669444999998,183.27673340625,55.0,69.0
939,182.59279295,183.3305949875,47.0,69.0
940,183.32449745,183.55722013125,69.0,59.0
941,183.4464482,183.56941520625,71.0,66.0
942,183.56839895,184.06941328125,72.0,62.0
943,183.56839895,184.07551081875,64.0,72.0
944,183.56839895,184.08770589374998,67.0,69.0
945,184.30010345,184.43729804375,64.0,69.0
946,184.30010345,184.44136306875,67.0,75.0
947,184.2980709375,184.6476630875,74.0,76.0
948,184.05620195,184.81636162499998,57.0,76.0
949,184.78790645,184.89461335625,67.0,61.0
950,184.78790645,184.9647350375,62.0,72.0
951,184.78790645,185.0561981,72.0,78.0
952,185.03180795,185.25030304375,57.0,61.0
953,183.56839895,185.27977447499998,45.0,73.0
954,183.81230044999998,185.38648138125,52.0,50.0
955,185.27570945,185.86412181875,72.0,78.0
956,185.27570945,185.897658275,64.0,75.0
957,185.27570945,185.90680458125,67.0,75.0
958,186.00741395,186.2370878625,57.0,88.0
959,185.51961095,186.25639673125,45.0,70.0
960,186.25131545,186.41391645,67.0,61.0
961,186.25131545,186.45659921249998,72.0,72.0
962,185.76351245,186.53891596875,52.0,73.0
963,186.49521694999999,186.873264275,71.0,82.0
964,186.49521694999999,187.0257027125,62.0,75.0
965,186.73911845,187.10192193125,52.0,73.0
966,186.98301995,187.117165775,55.0,88.0
967,186.49521694999999,187.14053966875,43.0,70.0
968,187.22692145,187.45049782499999,67.0,70.0
969,187.47082294999998,187.90374811249998,41.0,73.0
970,187.71472445,187.97793481875,48.0,69.0
971,187.95862595,188.2817954375,53.0,70.0
972,187.47082294999998,188.35801465625,60.0,73.0
973,187.47082294999998,188.46675407499998,65.0,73.0
974,187.47082294999998,188.51248560624998,69.0,75.0
975,188.44642894999998,188.69337921874998,57.0,69.0
976,188.20252745,188.70760680625,55.0,62.0
977,188.69033045,188.84378514374998,60.0,82.0
978,188.93423195,189.20150734375,65.0,66.0
979,189.1862635,189.3651246,67.0,63.0
980,189.42203494999998,189.7492694625,40.0,72.0
981,189.66593645,189.98504091249998,52.0,60.0
982,189.42203494999998,190.0480488,60.0,73.0
983,189.42203494999998,190.09581284375,67.0,66.0
984,190.15373945,190.47386016875,60.0,69.0
985,190.39764094999998,190.60394096874998,67.0,63.0
986,189.90983795,190.78889960625,55.0,69.0
987,190.64154245,190.93015922499998,69.0,67.0
988,190.88544395,191.22690605,72.0,78.0
989,191.37324694999998,191.686253875,60.0,88.0
990,191.37324694999998,191.7126765375,65.0,75.0
991,191.12934545,191.72487161249998,69.0,69.0
992,191.86104995,192.03076474374998,60.0,49.0
993,191.61714845,192.24011353125,57.0,72.0
994,192.10495145,192.6659249,69.0,73.0
995,192.10495145,192.67913623125,60.0,76.0
996,192.10495145,192.67913623125,65.0,69.0
997,192.59275445,192.80413575,57.0,72.0
998,191.37324694999998,192.90271260625,50.0,66.0
999,192.83665595,193.00027320625,60.0,85.0
1000,193.08055745,193.22994711875,65.0,70.0
1001,193.32445895,193.71571760625,60.0,85.0
1002,193.32445895,193.74214026875,69.0,70.0
1003,193.32445895,193.7614491375,65.0,75.0
1004,193.81226195,194.06530975625,55.0,91.0
1005,193.32445895,194.344780225,43.0,76.0
1006,193.56836045,194.34782899375,50.0,67.0
1007,194.30006495,194.40473934374998,64.0,67.0
1008,194.30006495,194.41693441875,76.0,82.0
1009,194.30006495,194.62628320625,55.0,85.0
1010,194.54396645,194.65880340625,65.0,60.0
1011,194.54396645,194.66083591875,77.0,78.0
1012,194.78786795,194.889493575,67.0,57.0
1013,194.78786795,194.9037211625,59.0,67.0
1014,194.78786795,194.905753675,79.0,80.0
1015,194.54396645,194.94742018124998,57.0,41.0
1016,195.03176944999998,195.13644384375,69.0,56.0
1017,195.03176944999998,195.16185025,81.0,73.0
1018,195.27465469375,195.67505965625,48.0,69.0
1019,195.51957245,195.7370512875,55.0,66.0
1020,195.27465469375,195.86408331875,72.0,69.0
1021,195.76347395,196.052090725,60.0,67.0
1022,195.27465469375,196.271602075,79.0,72.0
1023,196.25127695,196.62017796875,64.0,66.0
1024,196.00737544999998,196.65269816875,62.0,59.0
1025,196.49517845,196.8346080375,67.0,88.0
1026,196.73907995,196.913876025,72.0,76.0
1027,196.98298144999998,197.40574404999998,67.0,69.0
1028,196.98298144999998,197.58155638124998,79.0,78.0
1029,196.98298144999998,197.5907026875,72.0,67.0
1030,197.22688295,197.8183440875,48.0,73.0
1031,197.71468595,197.82850665,79.0,30.0
1032,197.71468595,197.87830320625,60.0,76.0
1033,197.95858744999998,198.08358696874998,67.0,67.0
1034,197.954522425,198.0947657875,74.0,73.0
1035,197.47078445,198.11610716875,55.0,72.0
1036,198.20248895,198.41387025,74.0,76.0
1037,198.442325425,198.5988288875,72.0,72.0
1038,198.20248895,198.604926425,67.0,70.0
1039,198.69029195,198.86610428125,59.0,73.0
1040,198.44639045,198.87423433125,55.0,67.0
1041,198.69029195,198.8874456625,74.0,72.0
1042,198.20248895,198.92504714375,47.0,70.0
1043,198.69029195,199.0785018375,67.0,69.0
1044,198.93419344999998,199.11813583125,72.0,75.0
1045,199.17809495,199.63032898125,45.0,73.0
1046,199.42199645,199.66793046249998,52.0,59.0
1047,199.66589795,199.9667098,57.0,51.0
1048,199.17809495,200.206546275,67.0,70.0
1049,199.17809495,200.21975760625,72.0,75.0
1050,200.39760245,200.5784960625,67.0,70.0
1051,200.15370095,200.65776405,60.0,63.0
1052,199.90979945,200.6841867125,59.0,66.0
1053,200.64150395,200.7248369625,67.0,40.0
1054,200.64150395,200.96975471874998,72.0,67.0
1055,200.88540545,201.2207700125,67.0,69.0
1056,200.88540545,201.2289000625,79.0,75.0
1057,201.37320845,201.5703621625,67.0,72.0
1058,201.37320845,201.74617449375,76.0,76.0
1059,201.12930695,201.81324740624999,45.0,64.0
1060,201.61710994999999,201.84881637499998,57.0,72.0
1061,201.37320845,202.0642627,52.0,70.0
1062,201.86101145,202.28072528125,74.0,80.0
1063,201.86101145,202.5175129875,67.0,61.0
1064,202.59271594999998,202.78682089375,55.0,78.0
1065,202.34881445,202.80714601875,52.0,64.0
1066,202.10491295,202.82747114375,43.0,58.0
1067,202.83661745,203.08356771875,72.0,62.0
1068,202.9585682,203.0906815125,74.0,60.0
1069,203.08051895,203.4402736625,76.0,59.0
1070,203.08051895,203.52462293125,67.0,66.0
1071,203.81222345,204.13742545,57.0,69.0
1072,203.56832194999998,204.24311609999998,53.0,73.0
1073,204.05612495,204.45246488749999,60.0,73.0
1074,204.30002645,204.63234224375,57.0,60.0
1075,204.30002645,204.65774865,65.0,64.0
1076,204.54392794999998,204.72787033125,53.0,48.0
1077,203.08051895,204.8874225625,41.0,66.0
1078,203.32442045,205.12827529375,48.0,63.0
1079,204.78782945,205.13437283125,57.0,73.0
1080,204.78782945,205.17299056874998,60.0,66.0
1081,204.78782945,205.60388321874998,65.0,78.0
1082,205.76343545,206.076442375,55.0,69.0
1083,205.51953394999998,206.178068,52.0,78.0
1084,206.00733695,206.21770199374998,60.0,76.0
1085,206.25123845,206.58152173125,60.0,49.0
1086,206.25123845,206.62522074999998,67.0,72.0
1087,206.49513994999998,206.7939192875,52.0,62.0
1088,205.27563245,206.79493554375,48.0,64.0
1089,205.03173095,206.80509810625,40.0,69.0
1090,206.73904145,206.95753654375,62.0,69.0
1091,206.98294295,207.352860225,57.0,67.0
1092,206.98294295,207.37318535,60.0,59.0
1093,206.98294295,207.385380425,65.0,78.0
1094,207.47074595,207.61607059374998,57.0,67.0
1095,207.47074595,207.66485089374999,64.0,73.0
1096,207.22684445,207.79594795,50.0,57.0
1097,207.71464745,208.03375191249998,65.0,76.0
1098,207.71464745,208.04289821875,57.0,64.0
1099,207.71464745,208.09980856875,60.0,76.0
1100,208.20245045,208.41281549375,57.0,62.0
1101,206.98294295,208.45956328124998,38.0,73.0
1102,208.44635195,208.51545737499998,57.0,40.0
1103,207.95854895,208.54391255,50.0,51.0
1104,208.44635195,208.617083,60.0,64.0
1105,208.69025345,208.87419583125,62.0,61.0
1106,208.93415495,209.271552025,65.0,73.0
1107,208.93415495,209.29695843125,57.0,64.0
1108,208.93415495,209.56118505625,60.0,72.0
1109,209.42195795,209.77256635625,55.0,72.0
1110,209.66585945,210.00732155,67.0,75.0
1111,209.66585945,210.03679298125,59.0,80.0
1112,209.66585945,210.05711810625,62.0,76.0
1113,210.15366244999998,210.38028759374998,62.0,69.0
1114,210.15366244999998,210.4077265125,67.0,70.0
1115,210.39756395,210.48597824375,55.0,70.0
1116,210.15366244999998,210.49004326875,59.0,73.0
1117,209.17805644999999,210.51138465,50.0,72.0
1118,208.93415495,210.5296772625,43.0,66.0
1119,210.64146545,210.86605808125,62.0,67.0
1120,210.88536695,211.39247881875,65.0,72.0
1121,210.88536695,211.48597439374998,60.0,70.0
1122,210.88536695,211.48800690625,57.0,70.0
1123,211.61707145,211.7654448625,57.0,64.0
1124,211.61707145,211.81219265,64.0,73.0
1125,211.37316995,211.95548478125,53.0,72.0
1126,211.86097295,211.96767985625,57.0,48.0
1127,211.86097295,212.1841424375,65.0,61.0
1128,210.88536695,212.2329227375,41.0,67.0
1129,211.86097295,212.24613406875,60.0,75.0
1130,212.10487444999998,212.32540205625,53.0,56.0
1131,211.12926844999998,212.3304833375,48.0,67.0
1132,212.34877595,212.47885675,57.0,59.0
1133,212.4707267,212.53678335625,62.0,36.0
1134,212.7146282,212.76848978125,43.0,57.0
1135,212.59267745,213.22783760625,67.0,72.0
1136,212.59267745,213.24613021874998,62.0,67.0
1137,212.59267745,213.34978835625,59.0,69.0
1138,213.32438195,213.83454258749998,55.0,78.0
1139,213.56828345,214.09368793125,60.0,88.0
1140,212.83657895,214.1028342375,43.0,75.0
1141,213.56828345,214.11604556875,65.0,78.0
1142,213.08048044999998,214.141451975,50.0,69.0
1143,214.05608644999998,214.198362325,55.0,67.0
1144,214.78677469375,215.1434806375,67.0,73.0
1145,214.78677469375,215.16278950625,63.0,75.0
1146,214.78677469375,215.17498458125,51.0,91.0
1147,214.78677469375,215.22376488125,39.0,75.0
1148,215.51949545,215.80303094375,50.0,62.0
1149,215.51949545,215.8365674,65.0,75.0
1150,215.51949545,215.848762475,57.0,66.0
1151,215.51949545,215.85181124375,60.0,76.0
1152,215.51949545,215.856892525,38.0,66.0
1153,216.25119995,216.58351574374998,48.0,85.0
1154,216.25119995,216.7633931,64.0,78.0
1155,216.25119995,216.81318965625,55.0,73.0
1156,216.25119995,216.82538473124998,60.0,72.0
1157,216.98290445,217.21257836249998,55.0,55.0
1158,216.25119995,217.3101389625,36.0,72.0
1159,217.22680595,217.42904094374998,60.0,70.0
1160,216.73900294999999,217.44936606874998,48.0,46.0
1161,217.47070745,217.66684490625,62.0,69.0
1162,217.71460894999998,217.95952670625,65.0,73.0
1163,217.71460894999998,218.0154208,57.0,75.0
1164,217.71460894999998,218.08859125,60.0,82.0
1165,217.71460894999998,218.21155825625,43.0,82.0
1166,218.20241195,218.3243627,60.0,73.0
1167,218.20241195,218.51135385,67.0,80.0
1168,218.69021494999998,219.09265242499998,48.0,82.0
1169,218.69021494999998,219.16683913125,55.0,82.0
1170,218.69021494999998,219.206473125,64.0,75.0
1171,218.69021494999998,219.320293825,60.0,82.0
1172,219.42191945,219.77049534374999,55.0,76.0
1173,219.42191945,219.80911308125,62.0,82.0
1174,219.17801795,219.93512885625,48.0,55.0
1175,219.90972245,219.99712048749998,60.0,85.0
1176,219.90972245,220.035738225,64.0,73.0
1177,218.69021494999998,220.26439588124998,36.0,72.0
1178,220.15362395,220.45341954375,48.0,48.0
1179,220.39752545,220.52252496875,64.0,91.0
1180,220.39752545,220.523541225,67.0,93.0
1181,220.39752545,220.53268753125,72.0,78.0
1182,220.64142694999998,220.90870234375,36.0,67.0
1183,220.64142694999998,220.9239461875,64.0,80.0
1184,220.64142694999998,220.92699495624998,72.0,78.0
1185,220.64142694999998,220.95748264374998,67.0,88.0
1186,220.88532845,221.0418319125,48.0,70.0
1187,221.12922995,221.26642454375,72.0,75.0
1188,221.12922995,221.2674408,62.0,75.0
1189,221.37313145,221.70544724375,62.0,88.0
1190,221.37313145,221.77455266875,71.0,85.0
1191,221.86093445,222.206461575,62.0,73.0
1192,221.61703294999998,222.2247541875,47.0,66.0
1193,222.10483595,222.230851725,53.0,78.0
1194,221.86093445,222.23898177499998,67.0,75.0
1195,222.34873745,222.56520003125,69.0,64.0
1196,222.47068819999998,222.62515915,71.0,67.0
1197,222.59263894999998,223.04385672499998,45.0,69.0
1198,222.83654045,223.09568579375,52.0,70.0
1199,222.59263894999998,223.33348975625,64.0,73.0
1200,223.08044195,223.38836759375,57.0,93.0
1201,222.59263894999998,223.57332623125,72.0,70.0
1202,222.59263894999998,223.621090275,67.0,73.0
1203,223.56824495,223.80909768125,60.0,72.0
1204,223.32434345,223.82739029375,59.0,62.0
1205,223.81214645,223.986942525,64.0,80.0
1206,224.05604795,224.2288115125,67.0,80.0
1207,224.29994944999999,224.77250860625,64.0,91.0
1208,224.29994944999999,224.90258940625,72.0,78.0
1209,225.03165395,225.32941703125,55.0,67.0
1210,225.27555544999998,225.45949783125,62.0,66.0
1211,225.27555544999998,225.4889692625,71.0,82.0
1212,225.51945695,225.76437470624998,55.0,57.0
1213,225.76335845,226.092625475,67.0,88.0
1214,225.76335845,226.1068530625,62.0,80.0
1215,224.78775245,226.11193434375,52.0,72.0
1216,224.54385095,226.1149831125,43.0,69.0
1217,226.00725995,226.117015625,55.0,78.0
1218,226.25116144999998,226.41681121874998,65.0,62.0
1219,226.37311219999998,226.50827428124998,67.0,67.0
1220,226.49506295,227.00217481875,60.0,91.0
1221,226.49506295,227.00420733125,65.0,70.0
1222,226.49506295,227.11193049374998,69.0,76.0
1223,226.98286595,227.312132975,53.0,80.0
1224,227.22676744999998,227.55806698749998,60.0,82.0
1225,227.22676744999998,227.6109123125,67.0,73.0
1226,227.47066895,227.74200936875,53.0,46.0
1227,227.71457045,227.89444780624999,65.0,76.0
1228,227.71457045,227.9035941125,60.0,78.0
1229,227.95847195,228.04078870625,60.0,46.0
1230,227.95847195,228.13021925625,64.0,82.0
1231,227.95847195,228.13428428125,53.0,78.0
1232,226.49506295,228.149528125,41.0,73.0
1233,228.20237344999998,228.2572512875,64.0,58.0
1234,226.73896445,228.37818578124998,48.0,67.0
1235,228.20237344999998,228.677981375,60.0,67.0
1236,228.20237344999998,229.0418011125,67.0,78.0
1237,228.93407795,229.25927995,52.0,88.0
1238,229.17797944999998,229.48793760625,67.0,78.0
1239,229.17797944999998,229.5255390875,55.0,97.0
1240,229.17797944999998,229.5336691375,60.0,97.0
1241,229.42188095,229.66476619374998,52.0,51.0
1242,228.69017645,229.7287903375,48.0,69.0
1243,229.90968395,229.9686268125,52.0,47.0
1244,229.90968395,229.9828544,57.0,36.0
1245,228.44627495,229.98387065625,40.0,70.0
1246,229.90968395,230.0153746,48.0,76.0
1247,229.66578245,230.03163469999998,62.0,76.0
1248,230.15358544999998,230.26842240624998,67.0,73.0
1249,229.90968395,230.36598300625,64.0,75.0
1250,230.39748695,230.710493875,57.0,75.0
1251,230.39748695,230.7409815625,65.0,76.0
1252,230.39748695,230.76232294375,60.0,75.0
1253,230.88528995,231.01435449375,57.0,63.0
1254,230.88528995,231.07532986875,64.0,67.0
1255,230.64138845,231.190166825,50.0,57.0
1256,231.12919145,231.46760478125,57.0,76.0
1257,231.12919145,231.49097867499998,65.0,69.0
1258,231.12919145,231.51232005625,60.0,88.0
1259,231.37309295,231.68305110625,50.0,80.0
1260,231.61699445,231.7389452,57.0,59.0
1261,230.39748695,231.85174964375,38.0,76.0
1262,231.86089594999999,231.92288758125,57.0,45.0
1263,231.61699445,231.97268413749998,62.0,70.0
1264,231.86089594999999,232.04280581875,64.0,70.0
1265,231.86089594999999,232.04687084374999,50.0,80.0
1266,232.10479745,232.53569009999998,57.0,82.0
1267,232.10479745,232.5580477375,60.0,88.0
1268,232.10479745,232.58548665625,65.0,70.0
1269,232.34869895,232.81719308125,43.0,66.0
1270,232.59260045,232.85377830625,50.0,66.0
1271,232.83650194999998,233.12918374999998,55.0,73.0
1272,233.08040345,233.17898030625,67.0,72.0
1273,233.08040345,233.21759804375,79.0,85.0
1274,233.32430495,233.45133698125,69.0,60.0
1275,233.08040345,233.4726783625,57.0,63.0
1276,233.32430495,233.4787759,81.0,66.0
1277,233.32430495,233.5743039875,59.0,67.0
1278,233.56820645,233.69218971249998,71.0,63.0
1279,233.56820645,233.71353109375,83.0,88.0
1280,233.56820645,233.88019711875,60.0,73.0
1281,233.81210794999998,233.9279611625,72.0,61.0
1282,233.81210794999998,233.94218874999999,62.0,60.0
1283,233.81210794999998,233.9503188,84.0,78.0
1284,234.05600945,234.1799927125,74.0,60.0
1285,234.05600945,234.2003178375,86.0,75.0
1286,234.29889469375,234.79787651249998,64.0,91.0
1287,234.29889469375,234.80295779374998,48.0,76.0
1288,234.29889469375,234.8100715875,67.0,95.0
1289,234.29889469375,234.82734794375,72.0,82.0
1290,234.54381245,234.83649425,55.0,67.0
1291,234.78771394999998,235.08547703124998,60.0,85.0
1292,235.03161545,235.41677656874998,62.0,67.0
1293,235.27551695,235.4198253375,64.0,73.0
1294,235.51941845,235.848685475,79.0,85.0
1295,235.51941845,235.86799434374998,67.0,95.0
1296,235.51941845,235.87612439375,72.0,101.0
1297,236.00722145,236.38120375,67.0,76.0
1298,236.00722145,236.3832362625,76.0,80.0
1299,236.00722145,236.38628503125,72.0,91.0
1300,236.25112295,236.61799145625,48.0,75.0
1301,236.49502445,236.63831658125,60.0,101.0
1302,237.22672895,237.6149388375,64.0,95.0
1303,237.22672895,237.62205263125,68.0,101.0
1304,237.22672895,237.65660534375,71.0,95.0
1305,237.47063045,237.83953146874998,59.0,70.0
1306,237.22672895,237.88627925625,47.0,82.0
1307,237.71453194999998,237.9279457625,69.0,67.0
1308,237.95843345,238.003148725,69.0,50.0
1309,237.95843345,238.1596521875,71.0,82.0
1310,238.20233495,238.64643893125,45.0,80.0
1311,238.44623645,238.726723175,52.0,72.0
1312,238.69013795,239.003144875,57.0,75.0
1313,238.20233495,239.1433882375,64.0,75.0
1314,238.20233495,239.2165586875,72.0,67.0
1315,238.20233495,239.2572089375,67.0,76.0
1316,239.17794095,239.368997125,60.0,75.0
1317,238.93403945,239.40050106875,59.0,63.0
1318,239.42184244999999,239.4970454125,67.0,59.0
1319,239.42184244999999,239.6027360625,64.0,80.0
1320,239.66574395,239.7226543,64.0,39.0
1321,239.66574395,239.98179964374998,67.0,76.0
1322,239.90964545,240.08545778125,72.0,80.0
1323,240.15354695,240.68911399375,43.0,78.0
1324,240.39744844999998,240.73586178124998,50.0,78.0
1325,240.64134995,240.76228444375,55.0,95.0
1326,240.15354695,240.7775282875,62.0,82.0
1327,240.15354695,240.82529233124998,67.0,91.0
1328,240.15354695,240.84053617499998,70.0,95.0
1329,240.88525145,240.9726494875,62.0,64.0
1330,241.12915295,241.28870518124998,60.0,76.0
1331,241.12915295,241.45943623124998,67.0,76.0
1332,241.12915295,241.462485,72.0,76.0
1333,241.12915295,241.4787451,64.0,95.0
1334,241.37305444999998,241.580370725,60.0,82.0
1335,241.12915295,241.6474436375,55.0,73.0
1336,241.12915295,241.69724019375,48.0,76.0
1337,241.61695595,241.93910918125,67.0,93.0
1338,241.86085745,242.0620761875,69.0,73.0
1339,242.10475895,242.547846675,41.0,85.0
1340,242.34866044999998,242.6271146625,48.0,69.0
1341,242.59256195,242.91674769374998,53.0,69.0
1342,242.10475895,243.181990575,65.0,60.0
1343,242.10475895,243.18300683125,60.0,91.0
1344,242.10475895,243.18910436874998,72.0,72.0
1345,242.10475895,243.1962181625,69.0,66.0
1346,243.08036495,243.3588191625,57.0,75.0
1347,242.83646345,243.36390044375,55.0,59.0
1348,243.32426644999998,243.38829059374999,72.0,61.0
1349,243.32426644999998,243.5112576,60.0,93.0
1350,243.56816795,243.61186696875,60.0,35.0
1351,243.56816795,243.8750773375,65.0,85.0
1352,244.05597095,244.28666111875,40.0,73.0
1353,244.29987244999998,244.60983060625,52.0,64.0
1354,244.05597095,244.7287325875,60.0,66.0
1355,244.05597095,244.81511436875,64.0,67.0
1356,244.05597095,244.82324441875,67.0,64.0
1357,243.81206945,245.10373114375,72.0,76.0
1358,244.78767545,245.3791365875,60.0,88.0
1359,244.54377395,245.49600605625,55.0,56.0
1360,245.27547844999998,245.5579976875,64.0,82.0
1361,245.5173474375,245.8059642125,69.0,73.0
1362,245.76328145,246.19315784375,72.0,85.0
1363,246.00718295,246.3750677125,60.0,82.0
1364,246.00718295,246.39132781249998,69.0,73.0
1365,246.00718295,246.42283175625,65.0,73.0
1366,246.49498595,246.6758795625,60.0,63.0
1367,246.73888745,246.81307415625,60.0,36.0
1368,246.73888745,246.94112244375,65.0,69.0
1369,246.25108444999998,247.0823820625,57.0,70.0
1370,246.98278894999999,247.2998609,60.0,75.0
1371,246.98278894999999,247.3303485875,69.0,76.0
1372,246.98278894999999,247.33746238125,65.0,70.0
1373,247.22669045,247.3791288875,57.0,76.0
1374,246.00718295,247.434006725,50.0,76.0
1375,247.47059195,247.68502201875,60.0,72.0
1376,247.71449345,247.921809725,65.0,76.0
1377,247.95839494999998,248.2856294625,71.0,76.0
1378,247.95839494999998,248.35981616875,62.0,75.0
1379,247.95839494999998,248.4482304625,67.0,76.0
1380,248.44619795,248.72261964999998,55.0,80.0
1381,248.69009945,248.86489552499998,64.0,76.0
1382,248.69009945,248.8791231125,67.0,78.0
1383,248.69009945,248.9197733625,72.0,75.0
1384,248.8120502,249.11286205,55.0,59.0
1385,248.20229645,249.34151970624998,50.0,60.0
1386,247.95839494999998,249.45838917499998,43.0,69.0
1387,249.17790245,249.515299525,64.0,91.0
1388,249.42180395,249.52851085625,50.0,44.0
1389,249.17790245,249.53867341875,67.0,97.0
1390,249.42180395,249.5661123375,55.0,93.0
1391,249.66570545,249.80696506875,67.0,64.0
1392,249.90960694999998,250.23785771875,60.0,95.0
1393,249.90960694999998,250.26732915,65.0,91.0
1394,249.90960694999998,250.27037791875,69.0,80.0
1395,250.39740995,250.58135233125,60.0,76.0
1396,250.64131145,250.83948141874998,65.0,72.0
1397,250.15350845,250.98480606249998,57.0,67.0
1398,250.88521294999998,251.22159376874998,60.0,76.0
1399,251.12911445,251.25208145624998,57.0,70.0
1400,250.88521294999998,251.2693578125,67.0,80.0
1401,249.90960694999998,251.27647160625,50.0,73.0
1402,251.61691745,251.67281154375,72.0,52.0
1403,251.37301595,251.7246406125,69.0,48.0
1404,251.86081894999998,252.38114215,60.0,93.0
1405,251.86081894999998,252.39232096875,72.0,76.0
1406,251.86081894999998,252.40349978749998,65.0,80.0
1407,252.59252345,252.99699343749998,60.0,80.0
1408,253.08032645,253.18093581875,60.0,49.0
1409,252.34862195,253.3303254875,55.0,73.0
1410,251.86081894999998,253.58337329375,43.0,69.0
1411,252.10472045,253.63012108125,50.0,70.0
1412,253.08032645,253.63418610624998,65.0,72.0
1413,253.81203094999998,254.35267927499999,72.0,56.0
1414,253.81203094999998,254.4217847,64.0,78.0
1415,253.81203094999998,254.42889849374998,67.0,78.0
1416,254.54373544999999,255.08743254375,65.0,73.0
1417,254.54373544999999,255.1433266375,69.0,72.0
1418,255.03153845,255.4522685375,60.0,44.0
1419,255.76324295,256.59758933125,64.0,49.0
1420,255.76324295,256.6351908125,67.0,59.0
1421,254.05593245,256.88010856875,55.0,48.0
1422,253.81203094999998,256.88620610625,48.0,73.0
1423,255.76324295,256.889254875,60.0,45.0
1424,257.71445495,258.16465646874997,77.0,66.0
1425,257.71445495,258.20327420625,69.0,62.0
1426,257.71445495,258.20327420625,72.0,66.0
1427,258.69006095,259.15652256875,77.0,66.0
1428,258.69006095,259.16160385,62.0,49.0
1429,258.69006095,259.17888020624997,72.0,70.0
1430,257.71445495,259.1961565625,50.0,64.0
1431,258.69006095,259.21038415,69.0,62.0
1432,258.20225795,259.24392060625,57.0,40.0
1433,259.66566695,260.21546158125,67.0,56.0
1434,259.66566695,260.33029853749997,76.0,69.0
1435,260.39737145,260.63009413125,72.0,63.0
1436,260.39737145,260.759158675,67.0,52.0
1437,259.66566695,261.1433035375,55.0,69.0
1438,260.978670025,261.21952275625,67.0,61.0
1439,261.86179670625,262.13212086875,72.0,47.0
1440,261.86179670625,262.1758198875,69.0,60.0
1441,261.86179670625,262.20021003749997,60.0,69.0
1442,261.86179670625,262.2083400875,65.0,70.0
1443,262.1270395875,262.57520859375,57.0,59.0
1444,261.86179670625,262.60772879374997,50.0,70.0
1445,262.3567135,262.6311026875,60.0,60.0
1446,262.600615,262.82724014375,65.0,69.0
1447,262.91870320625,263.12703573749997,60.0,70.0
1448,262.91870320625,263.2652465875,69.0,60.0
1449,262.91870320625,263.33536826875,65.0,70.0
1450,263.40650620625,263.620936275,60.0,56.0
1451,263.69105795625,263.8526427,65.0,61.0
1452,263.9827235,264.385160975,72.0,73.0
1453,263.9827235,264.4054861,60.0,67.0
1454,263.9827235,264.4542664,65.0,76.0
1455,264.83637875,265.2042635125,60.0,82.0
1456,264.83637875,265.2449137625,65.0,82.0
1457,264.83637875,265.25202755624997,69.0,63.0
1458,265.4461325,266.03657738124997,60.0,62.0
1459,265.4461325,266.1595443875,67.0,64.0
1460,263.9827235,266.23982863125,43.0,67.0
1461,264.83637875,266.25812124375,55.0,75.0
1462,266.177837,266.73779419375,65.0,46.0
1463,267.3485642,267.61380708125,55.0,46.0
1464,267.47051495,267.74998541875,59.0,64.0
1465,267.5924657,267.8505947875,64.0,44.0
1466,268.44612094999997,268.59551061875,67.0,53.0
1467,268.8119732,269.42274320625,71.0,62.0
1468,267.95831795,269.67070973125,55.0,48.0
1469,267.5924657,269.68188855,48.0,46.0
1470,268.20221945,269.6839210625,60.0,55.0
1471,269.4786373,269.81298560625,74.0,64.0
1472,269.79164422499997,270.09347233125,76.0,63.0
1473,270.03961075,270.09347233125,76.0,62.0
1474,270.64123445,270.88615220625,69.0,48.0
1475,270.88513595,271.42883304375,72.0,55.0
1476,270.0314807,271.78858775624997,53.0,64.0
1477,270.344487625,271.78858775624997,60.0,34.0
1478,271.61684045,271.82314046875,74.0,63.0
1479,271.86074195,272.08533458125,76.0,69.0
1480,272.10464344999997,272.56704004375,67.0,52.0
1481,272.10464344999997,272.80382775,74.0,69.0
1482,272.83634795,273.1148021625,67.0,52.0
1483,272.83634795,273.2530130125,72.0,64.0
1484,272.83634795,273.33939479375,64.0,53.0
1485,272.59244645,273.43797165,60.0,35.0
1486,272.10464344999997,273.4603292875,52.0,58.0
1487,273.4461017,273.68898694374997,67.0,44.0
1488,273.6900032,273.962359875,72.0,56.0
1489,273.93390469999997,274.0944731875,74.0,61.0
1490,274.1778062,274.42882149375,72.0,61.0
1491,274.1778062,274.51418701874996,67.0,54.0
1492,274.6656092,274.90138064999996,65.0,52.0
1493,274.6656092,274.9765836125,69.0,47.0
1494,275.27536295,275.51621568125,60.0,36.0
1495,275.27536295,275.54263834375,65.0,48.0
1496,275.27536295,275.60767874375,72.0,50.0
1497,274.6656092,275.80686496875,57.0,39.0
1498,274.1778062,275.8525965,50.0,62.0
1499,275.88511669999997,276.0050349375,65.0,76.0
1500,276.73877195,277.01214488125,36.0,63.0
1501,276.6168212,277.108689225,55.0,43.0
1502,276.73877195,277.35767200624997,59.0,62.0
1503,276.8607227,277.42372866249997,64.0,66.0
1504,278.20218095,278.4399849125,67.0,46.0
1505,278.5680332,278.775349475,69.0,15.0
1506,278.8119347,278.89120268749997,72.0,39.0
1507,279.0720963,279.22351848125,76.0,40.0
1508,279.3159978,279.4643712125,79.0,49.0
1509,279.5598993,279.6899801,83.0,54.0
1510,279.8038008,279.9033939125,84.0,53.0
1511,280.035507225,280.12392151874997,88.0,50.0
1512,280.279408725,280.37798558125,91.0,53.0
1513,280.645260975,280.74180531875,95.0,48.0
