,start,end,pitch,velocity
0,15.023529691666669,15.427514633333336,62.0,90.0
1,15.458311691666669,16.58888015,71.0,90.0
2,16.769850220833334,17.172835120833334,71.0,90.0
3,17.217611220833334,17.633655816666668,72.0,90.0
4,17.665372220833333,18.118730233333334,71.0,90.0
5,18.113133220833333,18.54037184166667,69.0,90.0
6,18.560894220833333,18.82768515,67.0,90.0
7,18.784774720833333,19.792236970833336,69.0,90.0
8,19.904177220833336,20.116863695833334,69.0,90.0
9,20.128057720833336,20.364997916666667,67.0,90.0
10,20.351938220833336,21.49026734166667,71.0,90.0
11,21.675049691666672,22.05004916666667,69.0,90.0
12,22.10983169166667,22.258382208333337,71.0,90.0
13,22.32722269166667,23.43591679166667,72.0,90.0
14,24.28374169166667,24.602581825000005,72.0,90.0
15,24.71852369166667,24.915987183333336,71.0,90.0
16,24.93591469166667,25.59895724166667,69.0,90.0
17,25.588087691666672,25.747507758333338,67.0,90.0
18,25.80547869166667,26.76381068333334,67.0,90.0
19,26.89243369166667,27.18591154166667,69.0,90.0
20,27.327215691666673,28.492069133333338,69.0,90.0
21,28.631561691666672,28.950401825000004,71.0,90.0
22,29.066343691666674,29.156923275000004,72.0,90.0
23,29.283734691666673,30.684095050000003,74.0,90.0
24,30.80547169166667,30.981196083333337,74.0,90.0
25,31.240253691666673,31.68228205833334,74.0,90.0
26,31.67503569166667,32.03916561666667,72.0,90.0
27,32.10981769166667,32.568363600000005,71.0,90.0
28,32.54814303333334,32.7558634,69.0,90.0
29,32.76873103333334,32.98931903333334,67.0,90.0
30,32.98931903333334,33.54814196666667,69.0,90.0
31,33.43049503333334,33.74667116666667,71.0,90.0
32,33.87167103333334,34.261376500000004,72.0,90.0
33,34.31284703333334,35.23931663333334,71.0,90.0
34,35.63637503333334,36.0481393,69.0,90.0
35,36.077551033333336,36.290786100000005,71.0,90.0
36,36.29813903333334,36.776079700000004,74.0,90.0
37,36.95990303333334,37.98747546666667,72.0,90.0
38,38.28343103333334,38.667621800000006,72.0,90.0
39,38.72460703333334,39.13453306666668,71.0,90.0
40,39.16578303333334,39.56467966666667,69.0,90.0
41,39.60695903333334,39.82938526666668,67.0,90.0
42,39.82754703333334,40.02607623333334,64.0,90.0
43,40.04813503333334,40.46541400000001,67.0,90.0
44,40.48931103333334,40.67129613333334,69.0,90.0
45,40.70989903333334,40.85511946666667,67.0,90.0
46,40.930487033333335,41.36798656666667,67.0,90.0
47,41.37166303333334,42.73011746666667,69.0,90.0
48,43.14377596458334,43.56612449166668,62.0,90.0
49,43.59832146458334,44.76365915000001,71.0,90.0
50,44.94462922083334,45.34761412083334,71.0,90.0
51,45.39239022083334,45.808434816666676,72.0,90.0
52,45.84015122083334,46.29350923333334,71.0,90.0
53,46.28791222083334,46.71515084166667,69.0,90.0
54,46.73567322083334,47.18343422083334,67.0,90.0
55,47.18343422083334,47.87000108750001,69.0,90.0
56,48.07895622083334,48.29164269583334,69.0,90.0
57,48.30283672083334,48.539776916666675,67.0,90.0
58,48.52671722083334,49.67970179583334,71.0,90.0
59,49.87000022083334,50.261934708333335,69.0,90.0
60,50.32539625208334,50.48308857291667,71.0,90.0
61,50.55616550208334,51.73308867708334,72.0,90.0
62,52.61167622083334,52.940034287500005,72.0,90.0
63,53.05943722083334,53.50719822083334,71.0,90.0
64,53.50719822083334,53.83369061666667,69.0,90.0
65,53.95495922083334,54.11913825416667,67.0,90.0
66,54.17883972083334,55.16577959166667,67.0,90.0
67,55.29824222083334,55.600480895833336,69.0,90.0
68,55.74600322083334,56.94562956666667,69.0,90.0
69,57.08928622083334,57.4176442875,71.0,90.0
70,57.53704722083334,57.98480822083334,72.0,90.0
71,57.98480822083334,59.16204651666667,74.0,90.0
72,59.328091220833336,59.50906129166667,74.0,90.0
73,59.775852220833336,60.23107590416667,74.0,90.0
74,60.223613220833336,60.598613058333335,72.0,90.0
75,60.671374220833336,61.13965760000001,71.0,90.0
76,61.119135220833336,61.329956025,69.0,90.0
77,61.343015720833336,61.566896220833335,68.0,90.0
78,61.566896220833335,62.13406015416667,69.0,90.0
79,62.014657220833335,62.33555260416667,71.0,90.0
80,62.462418220833335,62.72920915,72.0,90.0
81,62.69935841666667,62.99040306666667,69.0,90.0
82,62.910179220833335,63.7870445125,71.0,90.0
83,64.25346222083334,64.67137248750001,69.0,90.0
84,64.70122322083334,64.9176410375,71.0,90.0
85,65.14898422083334,65.56600200000001,72.0,90.0
86,65.58955269166667,66.01527673333334,71.0,90.0
87,66.02433469166667,66.44824714166667,67.0,90.0
88,66.45911669166668,66.66020336666668,67.0,90.0
89,66.67650769166667,66.89027550833333,64.0,90.0
90,66.89389869166668,67.27252135,67.0,90.0
91,67.32868069166668,67.68194106666667,69.0,90.0
92,67.76346269166667,68.13343938125001,71.0,90.0
93,68.20919696458334,70.62775781250001,67.0,90.0
94,74.92638403333335,75.2664572,71.0,90.0
95,75.36756003333335,75.74807433333335,72.0,90.0
96,75.80873603333335,76.75163919583335,74.0,90.0
97,76.71186646458335,77.15315438750001,72.0,90.0
98,77.16641196458335,77.48080593541668,71.0,90.0
99,77.62095746458334,78.21944237291667,71.0,90.0
100,78.53004846458334,78.89078806666667,71.0,90.0
101,78.97718503333334,79.33012583333334,69.0,90.0
102,79.41836103333334,79.78171868333334,67.0,90.0
103,79.86694596458334,80.183233875,69.0,90.0
104,80.32149146458335,80.72300665625,71.0,90.0
105,80.77603696458334,81.20027943125001,78.0,90.0
106,81.23058246458334,82.228688625,74.0,90.0
107,83.04876446458334,83.73058271458333,76.0,90.0
108,83.95785546458333,84.34249210000002,74.0,90.0
109,84.40499203333334,84.83330040000001,72.0,90.0
110,84.84616803333334,85.53182906666667,74.0,90.0
111,85.72852003333334,86.06491673333335,72.0,90.0
112,86.16969603333334,86.50241626666667,71.0,90.0
113,86.61087203333334,86.97668046666668,72.0,90.0
114,87.05204803333335,87.39763590000001,71.0,90.0
115,87.49322403333335,87.86415744166668,67.0,90.0
116,87.94180896458334,88.22400596250002,71.0,90.0
117,88.16908171458334,88.22400596250002,71.0,90.0
118,88.62362721458335,89.26567273333335,69.0,90.0
119,90.19375803333334,90.85184556666667,67.0,90.0
120,91.07611003333334,91.48235960000001,69.0,90.0
121,91.51728603333333,91.88309446666668,71.0,90.0
122,91.95846203333333,92.87903328333334,78.0,90.0
123,92.85104822083335,93.17567494583335,79.0,90.0
124,93.29880922083335,93.73164485416667,78.0,90.0
125,93.74657022083335,94.06000292083334,76.0,90.0
126,94.19433122083335,94.61597282916668,74.0,90.0
127,94.64209222083335,95.07306218333335,71.0,90.0
128,95.08985322083335,96.21858407500001,67.0,90.0
129,98.22418022083335,98.54880694583335,72.0,90.0
130,98.67194122083335,99.01149331250001,72.0,90.0
131,99.11970222083335,99.45738864166668,71.0,90.0
132,99.56746322083335,99.93686604583334,67.0,90.0
133,100.01522422083335,100.37529869166669,71.0,90.0
134,100.46298522083335,103.12111399166668,69.0,90.0
135,103.60785646458335,103.9582352875,71.0,90.0
136,104.06240196458334,104.45444745833335,72.0,90.0
137,104.51694746458334,105.47729137083334,74.0,90.0
138,105.43690675208333,105.8813123875,72.0,90.0
139,105.89456996458334,106.20896393541668,71.0,90.0
140,106.34911546458335,106.94760037291668,71.0,90.0
141,107.25820646458334,107.62373680416667,71.0,90.0
142,107.71275196458335,108.07638836458334,69.0,90.0
143,108.16729746458334,108.53661568333334,67.0,90.0
144,108.62184296458334,108.93813087500001,69.0,90.0
145,109.07638846458335,109.47790365625,71.0,90.0
146,109.53093396458334,109.95517643125001,74.0,90.0
147,109.98547946458334,110.97171275000001,74.0,90.0
148,111.55566772083334,111.76462285416667,67.0,90.0
149,111.77954822083335,112.45118972083334,76.0,90.0
150,112.67507022083335,113.05939841250002,74.0,90.0
151,113.12283122083335,113.55753252500001,72.0,90.0
152,113.57059222083335,114.26648744166668,74.0,90.0
153,114.46611422083335,114.80753198333335,72.0,90.0
154,114.91387522083335,115.25156164166668,71.0,90.0
155,115.36163622083335,115.73290471666668,72.0,90.0
156,115.80939722083335,116.16014333750002,71.0,90.0
157,116.03327772083334,116.40454621666667,67.0,90.0
158,116.48103872083334,116.75529233333334,71.0,90.0
159,116.92879972083335,117.44559054166668,71.0,90.0
160,117.37656072083334,118.73663475833335,69.0,90.0
161,118.94372422083335,119.61163437916667,67.0,90.0
162,119.83924622083335,120.25155947500001,69.0,90.0
163,120.28700722083335,120.65827571666668,71.0,90.0
164,120.73476822083335,121.65827528333335,78.0,90.0
165,121.63029022083334,121.95491694583335,79.0,90.0
166,122.07805122083334,122.51088685416669,78.0,90.0
167,122.52581222083334,122.83924492083335,76.0,90.0
168,122.97357322083334,123.39521482916668,74.0,90.0
169,123.42133422083334,123.84890193333334,71.0,90.0
170,123.86544603333334,126.57867843333334,67.0,90.0
171,126.95367803333335,127.2330895,72.0,90.0
172,127.39485403333335,127.69632430000001,72.0,90.0
173,127.83603003333334,128.09705916666667,71.0,90.0
174,128.27720603333333,128.50882343333333,72.0,90.0
175,128.71838203333334,128.9757347,71.0,90.0
176,129.15955803333335,132.43510246666668,74.0,90.0
177,146.54820003958335,146.94641439166668,62.0,90.0
178,146.97677153958335,148.08927172500003,71.0,90.0
179,148.26248603958337,148.64820038958337,71.0,90.0
180,148.69105753958337,149.0892718916667,72.0,90.0
181,149.11962903958337,149.55355768333337,71.0,90.0
182,149.54820053958335,149.96353646666668,69.0,90.0
183,149.98375703333335,150.42493303333336,67.0,90.0
184,150.42493303333336,151.10140290000004,69.0,90.0
185,151.30728503333336,151.51684363333337,69.0,90.0
186,151.52787303333335,151.76132866666669,67.0,90.0
187,151.74846103333337,152.88448923333337,71.0,90.0
188,153.07198903333335,153.45250333333337,69.0,90.0
189,153.51316503333337,153.6639001666667,71.0,90.0
190,153.73375303333336,154.85875183333337,72.0,90.0
191,155.69945553958337,156.01374130625004,72.0,90.0
192,156.12802703958337,156.55659853958338,71.0,90.0
193,156.55659853958338,156.8690985916667,69.0,90.0
194,156.98517003958338,157.14231292291672,67.0,90.0
195,157.19945578958337,158.1440988041667,67.0,90.0
196,158.27088453958336,158.56017030208338,69.0,90.0
197,158.69945603958337,159.8476705166667,69.0,90.0
198,159.98517053958338,160.30308010000002,71.0,90.0
199,160.42072703333335,160.86190303333336,72.0,90.0
200,160.86190303333336,162.0218282666667,74.0,90.0
201,162.18543103333337,162.3637396666667,74.0,90.0
202,162.62660703333336,163.0751359666667,74.0,90.0
203,163.06778303333337,163.43726793333337,72.0,90.0
204,163.50895903333335,163.96651920000002,71.0,90.0
205,163.9465916916667,164.15130155000003,69.0,90.0
206,164.1639826916667,164.38137369166668,67.0,90.0
207,164.38137369166668,164.93209755833334,69.0,90.0
208,164.8161556916667,165.12774945833334,71.0,90.0
209,165.25093769166668,165.5028765625,72.0,90.0
210,165.47998925000002,165.6261159375,71.0,90.0
211,165.67893281250002,166.50639718750003,71.0,90.0
212,166.94653781250003,167.34687422500002,69.0,90.0
213,167.3758596916667,167.58600432500003,71.0,90.0
214,167.8106416916667,168.22187300000002,72.0,90.0
215,168.2454236916667,168.67114773333336,71.0,90.0
216,168.68020569166669,169.10750163333336,67.0,90.0
217,169.11853103333334,169.32257493333336,67.0,90.0
218,169.33911903333336,169.5560305666667,64.0,90.0
219,169.55970703333335,169.94389780000003,67.0,90.0
220,170.00088303333337,170.35933853333336,69.0,90.0
221,170.44205903333335,170.80970570000002,71.0,90.0
222,170.88323503333336,173.23065900000003,67.0,90.0
223,177.47190381250002,177.79760787500004,71.0,90.0
224,177.89443881250003,178.25887525000002,72.0,90.0
225,178.31697381250004,179.19901562500002,74.0,90.0
226,179.16204381250003,179.57225487500003,72.0,90.0
227,179.5845788125,179.8768321875,71.0,90.0
228,180.00711381250002,180.5687083479167,71.0,90.0
229,180.86156553958335,181.2062084541667,71.0,90.0
230,181.29013703958336,181.63299423958335,69.0,90.0
231,181.71870853958336,182.06692288333335,67.0,90.0
232,182.14728003958336,182.44549437500004,69.0,90.0
233,182.57585153958337,182.95442303125003,71.0,90.0
234,183.00442303958337,183.40442310625002,78.0,90.0
235,183.43299453958335,184.374066125,74.0,90.0
236,185.14728053958336,185.79013778958335,76.0,90.0
237,186.00442353958337,186.37228074375003,74.0,90.0
238,186.43299503958335,186.84906653750002,72.0,90.0
239,186.86156653958335,187.52763807916668,74.0,90.0
240,187.71870953958336,188.04549530833336,72.0,90.0
241,188.14728103958336,188.4704953791667,71.0,90.0
242,188.57585253958337,188.9312097416667,72.0,90.0
243,189.00442403958337,189.34013838125003,71.0,90.0
244,189.43299553958335,189.7883527416667,67.0,90.0
245,189.86156703958335,190.12763851250003,71.0,90.0
246,190.07585278958337,190.12763851250003,71.0,90.0
247,190.50442428958337,191.10978153333335,69.0,90.0
248,192.00442453958337,192.6437103604167,67.0,90.0
249,192.86156753958335,193.25621046250004,69.0,90.0
250,193.29013903958335,193.6454962416667,71.0,90.0
251,193.71871053958336,194.60263925833337,78.0,90.0
252,194.57585353958336,194.88656787708337,79.0,90.0
253,195.00442503958337,195.4187108229167,78.0,90.0
254,195.43299653958337,195.73299658958337,76.0,90.0
255,195.86156803958335,196.2651395354167,74.0,90.0
256,196.29013953958335,196.70263960833336,71.0,90.0
257,196.71871103958335,197.79906836250004,67.0,90.0
258,199.71871153958335,200.02942587708336,72.0,90.0
259,200.14728303958336,200.47228309375004,72.0,90.0
260,200.57585453958336,200.8990688791667,71.0,90.0
261,201.00442603958336,201.35799752708337,67.0,90.0
262,201.43299753958337,201.7776404541667,71.0,90.0
263,201.86156903958334,204.4026408916667,69.0,90.0
264,204.86156953958334,205.1919267375,71.0,90.0
265,205.29014103958335,205.65978395833335,72.0,90.0
266,205.71871253958335,206.61335554583337,74.0,90.0
267,206.57585553958336,206.99192703750003,72.0,90.0
268,207.00442703958336,207.3008556604167,71.0,90.0
269,207.43299853958337,207.9972843479167,71.0,90.0
270,208.29014153958337,208.6347844541667,71.0,90.0
271,208.71871303958335,209.06157023958335,69.0,90.0
272,209.14728453958335,209.49549888333337,67.0,90.0
273,209.57585603958336,209.87407037500003,69.0,90.0
274,210.00442753958336,210.38299903125002,71.0,90.0
275,210.43299903958336,210.83299910625,78.0,90.0
276,210.86157053958337,211.80264212500003,74.0,90.0
277,212.36157078958337,212.56157082291668,67.0,90.0
278,212.57585653958336,213.21871378958338,76.0,90.0
279,213.43299953958336,213.80085674375002,74.0,90.0
280,213.86157103958337,214.27764253750001,72.0,90.0
281,214.29014253958337,214.9562140791667,74.0,90.0
282,215.14728553958335,215.47407130833335,72.0,90.0
283,215.57585703958335,215.89907137916668,71.0,90.0
284,216.00442853958336,216.35978574166668,72.0,90.0
285,216.43300003958336,216.76871438125002,71.0,90.0
286,216.64728578958335,217.00264299166668,83.0,90.0
287,217.20442873958336,217.46692878333334,84.0,90.0
288,217.56335737083336,218.0580003104167,83.0,90.0
289,217.92228600208335,219.22228621875,81.0,90.0
290,219.43300053958336,220.07228636041668,67.0,90.0
291,220.29014353958337,220.68478646250003,69.0,90.0
292,220.71871503958334,221.0740722416667,71.0,90.0
293,221.14728653958335,222.03121525833336,78.0,90.0
294,222.00442953958336,222.31514387708336,79.0,90.0
295,222.43300103958336,222.8472868229167,78.0,90.0
296,222.86157253958336,223.16157258958336,76.0,90.0
297,223.29014403958337,223.6937155354167,74.0,90.0
298,223.71871553958334,224.13121560833335,71.0,90.0
299,224.14728703958338,226.93254082916667,67.0,90.0
300,229.97440869166667,230.28781405,72.0,90.0
301,230.40919069166668,230.74433515,72.0,90.0
302,230.8439726916667,231.19542147500002,71.0,90.0
303,231.27875469166668,231.65194257500002,72.0,90.0
304,231.7135366916667,232.09215935,71.0,90.0
305,232.03781160000003,232.57947750833335,74.0,90.0
306,232.56679636666667,232.869332175,76.0,90.0
307,232.88925968333334,234.16099703333336,79.0,90.0
308,234.32222869166668,234.64288041666669,71.0,90.0
309,234.7570106916667,235.13563335,71.0,90.0
310,235.19179269166668,235.61389355,64.0,90.0
311,235.6265746916667,240.41303012500003,67.0,90.0
