,start,end,pitch,velocity
0,0.5543470500000001,1.300722816666667,43.0,90.0
1,0.5579702333333334,1.333331466666667,50.0,98.0
2,1.5434761000000004,2.4945617250000005,50.0,93.0
3,1.5271717750000002,2.545286291666667,43.0,98.0
4,2.5688369833333335,3.900356858333334,52.0,68.0
5,2.5815181250000006,3.9420234666666674,48.0,84.0
6,4.007240766666667,4.447457541666667,54.0,98.0
7,4.010863950000001,4.476443008333334,50.0,98.0
8,4.565211000000001,5.471006833333334,47.0,98.0
9,4.561587816666667,5.478253200000001,50.0,98.0
10,4.567022591666667,5.492745933333334,43.0,98.0
11,5.485499566666667,5.492745933333334,43.0,98.0
12,5.476441608333334,5.860499041666667,47.0,98.0
13,5.4836879750000005,5.8677454083333345,50.0,98.0
14,5.878614958333334,8.282597100000002,48.0,98.0
15,5.880426550000001,8.307959383333335,52.0,98.0
16,8.342379625000001,9.090566983333336,43.0,98.0
17,8.356872358333334,9.123175633333334,50.0,98.0
18,9.275349333333335,9.713754516666668,50.0,98.0
19,9.273537741666669,9.719189291666668,43.0,98.0
20,9.708319741666669,10.827883391666669,52.0,98.0
21,9.715566108333334,10.829694983333335,48.0,91.0
22,10.547086683333335,10.829694983333335,48.0,98.0
23,10.543463500000001,11.293462450000002,55.0,98.0
24,11.260853800000001,11.786215383333335,54.0,98.0
25,11.253607433333334,11.815200850000002,57.0,98.0
26,11.264476983333335,11.820635625000001,50.0,98.0
27,11.980055691666669,12.409402916666668,62.0,98.0
28,11.980055691666669,12.567011391666668,69.0,98.0
29,11.980055691666669,12.574257758333335,67.0,98.0
30,11.980055691666669,12.657590975000002,38.0,87.0
31,11.980055691666669,12.661214158333335,50.0,98.0
32,12.84961969166667,15.458311691666669,66.0,98.0
33,12.84961969166667,15.470992833333336,69.0,98.0
34,13.711937325000003,15.483673975000002,26.0,98.0
35,12.84961969166667,15.619543350000002,50.0,98.0
36,12.84961969166667,15.621354941666668,38.0,87.0
37,15.458311691666669,16.150339708333338,62.0,98.0
38,15.458311691666669,16.168455625000004,59.0,98.0
39,15.89309369166667,16.48548416666667,50.0,78.0
40,16.32787569166667,16.781044245833336,62.0,98.0
41,16.32787569166667,17.038506820833334,59.0,98.0
42,16.769850220833334,17.318357445833335,50.0,88.0
43,15.458311691666669,17.46574544166667,43.0,98.0
44,17.217611220833334,17.691491612500002,62.0,98.0
45,17.217611220833334,17.738133383333334,59.0,98.0
46,17.665372220833333,18.068357120833333,43.0,98.0
47,18.560894220833333,18.932162716666667,42.0,98.0
48,18.113133220833333,18.954550766666667,62.0,98.0
49,18.113133220833333,19.001192537500003,59.0,98.0
50,19.904177220833336,20.06275924166667,55.0,98.0
51,19.904177220833336,20.096341316666667,59.0,98.0
52,20.351938220833336,20.92469916666667,52.0,59.0
53,20.799699220833336,21.334470458333335,59.0,98.0
54,20.799699220833336,21.347151600000004,67.0,98.0
55,20.799699220833336,21.367079108333336,64.0,98.0
56,21.24026769166667,21.613455575000003,52.0,71.0
57,19.456416220833333,21.85983204166667,47.0,65.0
58,19.008655220833333,21.93591889166667,40.0,98.0
59,21.675049691666672,22.09896214166667,67.0,98.0
60,21.675049691666672,22.102585325000003,64.0,98.0
61,22.10983169166667,22.52287459166667,59.0,96.0
62,22.54461369166667,22.67504829166667,60.0,98.0
63,22.54461369166667,22.700410575000003,64.0,98.0
64,23.41417769166667,23.867075608333337,72.0,98.0
65,23.41417769166667,23.943162458333337,69.0,98.0
66,23.41417769166667,23.944974050000003,64.0,96.0
67,23.84895969166667,24.399683558333336,57.0,84.0
68,24.28374169166667,24.812726458333337,64.0,98.0
69,24.28374169166667,24.83808874166667,72.0,98.0
70,24.28374169166667,24.983016075000005,69.0,98.0
71,24.71852369166667,25.341711225000005,57.0,60.0
72,25.15330569166667,25.540986308333338,69.0,98.0
73,25.15330569166667,25.551855858333337,72.0,98.0
74,22.97939569166667,25.67142090833334,52.0,65.0
75,22.54461369166667,25.684102050000003,45.0,98.0
76,25.588087691666672,26.01200014166667,57.0,90.0
77,26.02286969166667,26.611636983333337,62.0,98.0
78,26.02286969166667,26.635187675000005,69.0,98.0
79,26.02286969166667,26.68228905833334,66.0,98.0
80,26.45765169166667,27.019245108333337,57.0,64.0
81,26.89243369166667,27.173230400000005,62.0,96.0
82,26.02286969166667,27.211273825000006,50.0,95.0
83,26.89243369166667,27.42685323333334,69.0,98.0
84,26.89243369166667,27.43772278333334,66.0,98.0
85,27.327215691666673,27.64424423333334,62.0,98.0
86,27.76199769166667,28.472141625000006,57.0,98.0
87,27.76199769166667,28.477576400000004,62.0,98.0
88,27.76199769166667,28.483011175000005,66.0,98.0
89,27.76199769166667,28.519243008333337,38.0,87.0
90,28.631561691666672,29.374314275000003,66.0,98.0
91,28.631561691666672,29.385183825000006,62.0,98.0
92,28.631561691666672,29.44858953333334,36.0,98.0
93,29.501125691666672,30.01380613333334,66.0,98.0
94,29.501125691666672,30.02467568333334,62.0,98.0
95,29.501125691666672,30.08808139166667,59.0,98.0
96,30.37068969166667,30.870688991666672,66.0,98.0
97,30.37068969166667,30.883370133333337,62.0,98.0
98,30.37068969166667,30.921413558333338,59.0,98.0
99,29.93590769166667,31.309094175000006,47.0,55.0
100,31.240253691666673,31.792789150000004,59.0,98.0
101,31.240253691666673,31.829020983333336,66.0,98.0
102,31.240253691666673,31.84351371666667,62.0,98.0
103,31.67503569166667,32.14967270833334,47.0,65.0
104,30.80547169166667,32.22575955833334,42.0,61.0
105,29.501125691666672,32.24749865833334,35.0,94.0
106,32.10981769166667,32.54262833333334,66.0,98.0
107,32.10981769166667,32.77056926666667,62.0,98.0
108,32.54814303333334,32.947039666666676,59.0,90.0
109,32.98931903333334,33.349612766666674,59.0,98.0
110,32.98931903333334,33.382700966666675,68.0,98.0
111,32.98931903333334,33.38637743333334,64.0,98.0
112,33.43049503333334,33.84409753333334,47.0,82.0
113,33.87167103333334,34.64372903333334,59.0,98.0
114,33.87167103333334,34.649243733333336,52.0,98.0
115,33.87167103333334,34.66027313333334,56.0,98.0
116,32.98931903333334,35.075713866666675,40.0,98.0
117,35.19519903333334,35.62718386666667,40.0,98.0
118,34.75402303333334,35.643727966666674,59.0,98.0
119,34.75402303333334,35.64924266666667,56.0,98.0
120,34.75402303333334,35.65843383333334,52.0,98.0
121,35.63637503333334,36.031595200000005,42.0,98.0
122,36.077551033333336,36.47093296666667,44.0,98.0
123,36.51872703333334,37.25769683333334,57.0,98.0
124,36.51872703333334,37.290785033333336,64.0,98.0
125,36.51872703333334,37.29262326666667,60.0,98.0
126,36.51872703333334,37.77791686666667,45.0,98.0
127,37.40107903333334,38.114313566666674,57.0,98.0
128,37.40107903333334,38.12901943333334,64.0,98.0
129,37.40107903333334,38.13269590000001,60.0,98.0
130,38.28343103333334,38.77607756666667,57.0,98.0
131,38.28343103333334,39.00953320000001,60.0,98.0
132,38.28343103333334,39.022400833333336,64.0,98.0
133,38.72460703333334,39.233797666666675,52.0,83.0
134,38.28343103333334,39.26688586666667,45.0,68.0
135,39.16578303333334,39.621664900000006,64.0,98.0
136,39.16578303333334,39.78159120000001,60.0,98.0
137,39.82754703333334,39.884532266666675,66.0,57.0
138,39.60695903333334,39.94519396666667,57.0,94.0
139,40.04813503333334,40.16026726666667,38.0,93.0
140,40.04813503333334,40.41578170000001,57.0,98.0
141,40.04813503333334,40.459899300000004,62.0,98.0
142,40.04813503333334,40.491149266666675,66.0,98.0
143,40.930487033333335,41.46541293333334,66.0,98.0
144,40.930487033333335,41.49482466666667,62.0,98.0
145,40.930487033333335,41.527912866666675,69.0,98.0
146,41.37166303333334,41.97460356666667,57.0,55.0
147,41.81283903333334,42.32570613333334,66.0,98.0
148,41.81283903333334,42.36982373333334,62.0,98.0
149,41.81283903333334,42.38085313333334,69.0,92.0
150,42.25401503333334,42.75585273333334,57.0,69.0
151,42.916503214583344,43.018775952083345,57.0,93.0
152,40.48931103333334,43.02066989166668,50.0,73.0
153,42.69519103333334,43.63998813541668,69.0,98.0
154,42.69519103333334,43.64188207500001,66.0,98.0
155,42.69519103333334,43.657033591666675,64.0,98.0
156,43.14377596458334,43.67029116875001,62.0,98.0
157,43.59832146458334,43.67029116875001,62.0,98.0
158,43.59832146458334,44.33268918750001,59.0,98.0
159,44.04910722083334,44.65918158333334,50.0,78.0
160,44.49686822083334,44.955823245833336,62.0,98.0
161,44.49686822083334,45.21328582083334,59.0,98.0
162,44.94462922083334,45.493136445833336,50.0,88.0
163,43.59832146458334,45.64052444166667,43.0,98.0
164,45.39239022083334,45.8662706125,62.0,98.0
165,45.39239022083334,45.91291238333334,59.0,98.0
166,45.84015122083334,46.24313612083334,43.0,98.0
167,46.73567322083334,47.106941716666675,42.0,98.0
168,46.28791222083334,47.12932976666667,62.0,98.0
169,46.28791222083334,47.175971537500004,59.0,98.0
170,48.07895622083334,48.23753824166667,55.0,98.0
171,48.07895622083334,48.271120316666675,59.0,98.0
172,48.52671722083334,49.09947816666667,52.0,59.0
173,48.97447822083334,49.51925410416667,59.0,98.0
174,48.97447822083334,49.532313800000004,67.0,98.0
175,48.97447822083334,49.552836179166675,64.0,98.0
176,49.42223922083334,49.80656741250001,52.0,71.0
177,47.63119522083334,50.06029864583334,47.0,65.0
178,47.18343422083334,50.14078085208334,40.0,98.0
179,49.87000022083334,50.31385778958334,67.0,98.0
180,49.87000022083334,50.317703943750004,64.0,98.0
181,50.32539625208334,50.763857827083335,59.0,96.0
182,50.78693475208334,50.925396302083335,60.0,98.0
183,50.78693475208334,50.95231938125001,64.0,98.0
184,51.71001175208334,52.18257192916667,72.0,98.0
185,51.71001175208334,52.26093010416667,69.0,98.0
186,51.71001175208334,52.262795775,64.0,96.0
187,52.16391522083334,52.73107915416667,57.0,84.0
188,52.61167622083334,53.15645210416667,64.0,98.0
189,52.61167622083334,53.182571495833336,72.0,98.0
190,52.61167622083334,53.3318251625,69.0,98.0
191,53.05943722083334,53.701227987500005,57.0,60.0
192,53.50719822083334,53.906451779166666,69.0,98.0
193,53.50719822083334,53.91764580416667,72.0,98.0
194,51.248473252083336,54.040780079166666,52.0,65.0
195,50.78693475208334,54.053839775,45.0,98.0
196,53.95495922083334,54.391526195833336,57.0,90.0
197,54.40272022083334,55.00906324166667,62.0,98.0
198,54.40272022083334,55.0333169625,69.0,98.0
199,54.40272022083334,55.08182440416667,66.0,98.0
200,54.85048122083334,55.42883917916667,57.0,64.0
201,55.29824222083334,55.5874212,62.0,96.0
202,54.40272022083334,55.626600287500004,50.0,95.0
203,55.29824222083334,55.84861511666667,69.0,98.0
204,55.29824222083334,55.859809141666666,66.0,98.0
205,55.74600322083334,56.07249561666667,62.0,98.0
206,56.19376422083334,56.925107187500004,57.0,98.0
207,56.19376422083334,56.9307042,62.0,98.0
208,56.19376422083334,56.936301212500005,66.0,98.0
209,56.19376422083334,56.97361462916667,38.0,87.0
210,57.08928622083334,57.8542112625,66.0,98.0
211,57.08928622083334,57.8654052875,62.0,98.0
212,57.08928622083334,57.93070376666667,36.0,98.0
213,57.98480822083334,58.51279306666667,66.0,98.0
214,57.98480822083334,58.52398709166667,62.0,98.0
215,57.98480822083334,58.58928557083334,59.0,98.0
216,58.880330220833336,59.39525537083334,66.0,98.0
217,58.880330220833336,59.40831506666667,62.0,98.0
218,58.880330220833336,59.44749415416667,59.0,98.0
219,58.43256922083334,59.846747712500004,47.0,55.0
220,59.775852220833336,60.344881825,59.0,98.0
221,59.775852220833336,60.38219524166667,66.0,98.0
222,59.775852220833336,60.39712060833334,62.0,98.0
223,60.223613220833336,60.71241897916667,47.0,65.0
224,59.328091220833336,60.79077715416667,42.0,61.0
225,57.98480822083334,60.813165204166665,35.0,94.0
226,60.671374220833336,61.11353820833334,66.0,98.0
227,60.671374220833336,61.34488139166667,62.0,98.0
228,61.119135220833336,61.52398579166667,59.0,90.0
229,61.566896220833335,62.0631646625,59.0,98.0
230,61.566896220833335,62.09861240833334,69.0,98.0
231,61.566896220833335,62.10047807916667,64.0,98.0
232,62.014657220833335,62.678836037500005,47.0,82.0
233,62.462418220833335,63.24599997083334,59.0,98.0
234,62.462418220833335,63.251596983333336,52.0,98.0
235,62.462418220833335,63.26279100833334,56.0,98.0
236,61.566896220833335,63.68443261666667,40.0,98.0
237,63.805701220833335,64.24413386666667,40.0,98.0
238,63.357940220833335,64.26092490416667,59.0,98.0
239,63.357940220833335,64.26652191666668,56.0,98.0
240,63.357940220833335,64.27585027083333,52.0,98.0
241,64.25346222083334,64.65458145000001,42.0,98.0
242,64.70122322083334,65.10047677916667,44.0,98.0
243,65.14898422083334,65.70368296666668,60.0,98.0
244,65.14898422083334,65.72904525,57.0,98.0
245,65.14898422083334,65.85223348333334,64.0,98.0
246,65.58955269166667,66.18918953333333,52.0,87.0
247,66.24172569166667,66.34679800833334,52.0,62.0
248,65.14898422083334,66.44462395833334,45.0,98.0
249,66.02433469166667,66.54244990833334,64.0,98.0
250,66.02433469166667,66.77614523333334,60.0,98.0
251,66.45911669166668,66.81237706666667,57.0,87.0
252,66.89389869166668,67.45549210833335,57.0,98.0
253,66.89389869166668,67.63302809166667,62.0,98.0
254,66.89389869166668,67.63302809166667,66.0,98.0
255,67.32868069166668,67.79788293333334,50.0,57.0
256,66.89389869166668,67.86491182500001,38.0,87.0
257,67.76346269166667,68.18078787083334,66.0,98.0
258,67.76346269166667,68.22245454166668,62.0,98.0
259,68.20919696458334,68.4686666875,57.0,74.0
260,68.66374246458335,68.76601520208334,59.0,98.0
261,68.66374246458335,68.80010611458334,62.0,98.0
262,69.57283346458334,70.22624262083335,62.0,98.0
263,69.57283346458334,70.25086383541668,67.0,98.0
264,69.57283346458334,70.252757775,71.0,98.0
265,70.02737896458335,70.68836387916667,55.0,80.0
266,70.48192446458334,71.05389421875002,62.0,82.0
267,70.48192446458334,71.19593968750002,71.0,85.0
268,70.48192446458334,71.21677302291668,67.0,89.0
269,70.93646996458334,71.42889425625,55.0,68.0
270,69.11828796458335,71.51601547708334,50.0,76.0
271,71.61756403333334,71.703961,50.0,98.0
272,68.66374246458335,71.71866686666668,43.0,95.0
273,71.39101546458335,71.83815203333334,67.0,98.0
274,71.39101546458335,71.83815203333334,71.0,98.0
275,71.83815203333334,72.00359303333335,62.0,98.0
276,72.27932803333334,72.55873950000002,69.0,98.0
277,72.27932803333334,72.56976890000001,62.0,98.0
278,72.27932803333334,72.5752836,66.0,98.0
279,72.72050403333334,72.84182743333335,66.0,98.0
280,72.72050403333334,72.84182743333335,69.0,84.0
281,72.72050403333334,72.90065090000002,62.0,96.0
282,73.16168003333334,73.29035636666667,62.0,98.0
283,72.72050403333334,73.38042980000002,50.0,98.0
284,73.16168003333334,73.38778273333334,57.0,98.0
285,73.16168003333334,73.40616506666667,66.0,98.0
286,73.60285603333334,73.69844416666668,62.0,98.0
287,73.60285603333334,73.72050296666667,57.0,95.0
288,73.60285603333334,73.73153236666668,66.0,98.0
289,73.60285603333334,73.91719393333335,50.0,75.0
290,74.04403203333334,74.34734053333334,57.0,98.0
291,74.04403203333334,74.35285523333334,62.0,98.0
292,74.04403203333334,74.36388463333334,66.0,98.0
293,74.04403203333334,74.5330021,50.0,98.0
294,74.48520803333335,74.56425206666668,62.0,97.0
295,74.48520803333335,74.60836966666668,66.0,98.0
296,74.70579603333334,74.93373696666667,50.0,93.0
297,72.27932803333334,75.21866313333335,38.0,98.0
298,74.92638403333335,75.2554278,62.0,98.0
299,75.14697203333334,75.30138363333334,50.0,98.0
300,74.92638403333335,75.32344243333334,66.0,98.0
301,75.36756003333335,75.43373643333335,57.0,98.0
302,75.80873603333335,75.91903003333334,55.0,98.0
303,75.80873603333335,75.92086826666667,59.0,98.0
304,75.80873603333335,75.94660353333335,62.0,98.0
305,76.25732096458334,76.95050285208335,50.0,71.0
306,75.80873603333335,76.98459376458335,43.0,98.0
307,76.93913921458335,77.04898771041668,55.0,98.0
308,76.71186646458335,77.10391195833334,67.0,98.0
309,76.71186646458335,77.13232105208334,71.0,98.0
310,77.16641196458335,77.20997257500001,62.0,98.0
311,77.62095746458334,77.68535141041667,63.0,98.0
312,77.62095746458334,77.68724535000001,59.0,98.0
313,77.62095746458334,77.69671504791668,66.0,98.0
314,78.30277571458335,78.38610905625,78.0,98.0
315,78.30277571458335,78.39936663333334,71.0,92.0
316,78.30277571458335,78.40126057291668,75.0,98.0
317,78.53004846458334,78.60959392708334,59.0,98.0
318,78.53004846458334,78.61148786666668,71.0,98.0
319,77.62095746458334,78.62285150416668,47.0,95.0
320,78.07550296458335,78.64557877916668,54.0,60.0
321,78.53004846458334,78.8319646,78.0,98.0
322,78.53004846458334,78.84667046666668,75.0,98.0
323,79.41836103333334,79.47534626666668,40.0,98.0
324,79.41836103333334,79.90482475625001,67.0,98.0
325,79.41836103333334,79.92565809166668,64.0,98.0
326,79.41836103333334,79.94649142708334,71.0,98.0
327,80.32149146458335,80.34043086041667,70.0,98.0
328,79.86694596458334,80.37262783333334,52.0,77.0
329,80.54876421458334,80.58285512708333,52.0,98.0
330,80.32149146458335,80.7627793875,67.0,98.0
331,80.32149146458335,80.78550666250001,71.0,98.0
332,80.77603696458334,80.86315818541667,64.0,98.0
333,81.23058246458334,81.29876428958335,66.0,98.0
334,81.23058246458334,81.30634004791668,62.0,98.0
335,81.23058246458334,81.31202186666667,69.0,98.0
336,81.91240071458334,82.01846133125001,69.0,98.0
337,81.68512796458334,82.03929466666668,57.0,72.0
338,81.91240071458334,82.03929466666668,74.0,98.0
339,81.91240071458334,82.03929466666668,78.0,98.0
340,82.13967346458334,82.20406741041667,57.0,98.0
341,81.23058246458334,82.22679468541668,50.0,98.0
342,82.13967346458334,82.59043108541667,78.0,98.0
343,82.13967346458334,82.65293109166667,74.0,98.0
344,82.59421896458333,83.06959780000001,69.0,98.0
345,83.04876446458334,83.07149173958334,75.0,98.0
346,83.04876446458334,83.13209780625,72.0,98.0
347,83.04876446458334,83.13399174583334,76.0,98.0
348,83.04876446458334,83.13588568541667,36.0,93.0
349,83.73058271458333,83.83096151250001,67.0,54.0
350,83.95785546458333,84.41418320000001,64.0,98.0
351,83.95785546458333,84.44359493333334,67.0,98.0
352,84.40499203333334,84.78734456666668,48.0,97.0
353,84.84616803333334,85.59065253333334,59.0,98.0
354,84.84616803333334,85.6108731,62.0,98.0
355,84.84616803333334,85.62741720000001,66.0,98.0
356,85.50793203333335,85.69359360000001,54.0,62.0
357,85.72852003333334,86.19359306666668,66.0,98.0
358,84.84616803333334,86.19726953333334,47.0,98.0
359,85.72852003333334,86.20278423333335,62.0,98.0
360,86.16969603333334,86.22300480000001,54.0,80.0
361,86.16969603333334,86.39763696666668,59.0,98.0
362,86.61087203333334,86.67337196666668,60.0,98.0
363,86.61087203333334,86.67888666666667,57.0,98.0
364,86.61087203333334,86.68440136666668,64.0,98.0
365,87.27263603333334,87.34800360000001,69.0,78.0
366,87.27263603333334,87.54101810000002,64.0,98.0
367,87.05204803333335,87.58329746666668,57.0,98.0
368,86.83146003333334,87.77703622083335,52.0,90.0
369,86.61087203333334,87.80733925416668,45.0,98.0
370,87.71453621458335,87.80923319375002,57.0,98.0
371,87.49322403333335,87.90771805208335,72.0,98.0
372,87.49322403333335,87.92286956875002,69.0,98.0
373,87.94180896458334,88.03082412500001,64.0,98.0
374,88.16908171458334,88.27893021041668,69.0,67.0
375,88.39635446458335,88.77514238125,62.0,98.0
376,88.39635446458335,88.87552117916668,66.0,98.0
377,88.39635446458335,89.03650604375001,38.0,98.0
378,88.85089996458335,89.14635453958334,57.0,98.0
379,88.62362721458335,89.21264242500001,50.0,98.0
380,89.07817271458335,89.33006667916668,66.0,98.0
381,89.30544546458334,89.80221433333334,39.0,98.0
382,89.97317003333335,90.00809646666667,64.0,48.0
383,89.30544546458334,90.11655223333334,63.0,98.0
384,90.19375803333334,90.47316950000001,59.0,98.0
385,90.19375803333334,90.77280153333334,64.0,98.0
386,90.19375803333334,90.91618373333334,67.0,98.0
387,90.85552203333334,90.91802196666667,64.0,47.0
388,90.85552203333334,91.0577277,59.0,98.0
389,90.63493403333334,91.14963936666668,52.0,98.0
390,90.19375803333334,91.40147733333335,40.0,98.0
391,90.41434603333335,91.40699203333334,47.0,98.0
392,91.29669803333334,91.40699203333334,52.0,98.0
393,91.07611003333334,91.50074193333334,67.0,98.0
394,91.07611003333334,91.5264772,64.0,98.0
395,91.51728603333333,91.91250620000001,59.0,98.0
396,91.95846203333333,92.46858570000002,69.0,98.0
397,91.95846203333333,92.66261546666668,63.0,98.0
398,91.95846203333333,92.67380949166667,66.0,98.0
399,92.40328722083335,92.92940639583334,51.0,98.0
400,93.07492872083334,93.20739135000001,51.0,98.0
401,91.95846203333333,93.20925702083335,39.0,98.0
402,92.85104822083335,93.21671970416668,63.0,98.0
403,92.85104822083335,93.33239129583335,69.0,98.0
404,92.85104822083335,93.37530172500001,66.0,98.0
405,93.29880922083335,93.420077825,63.0,98.0
406,93.74657022083335,94.26895805416667,66.0,98.0
407,93.74657022083335,94.30813714166668,62.0,98.0
408,94.64209222083335,94.76149515416668,62.0,98.0
409,94.64209222083335,94.77642052083334,66.0,98.0
410,93.74657022083335,94.85477869583335,50.0,98.0
411,94.19433122083335,94.91448016250001,57.0,98.0
412,95.08985322083335,96.18500200000001,67.0,98.0
413,95.08985322083335,96.20179303750001,64.0,98.0
414,95.08985322083335,96.20552437916668,61.0,98.0
415,95.08985322083335,96.53201677500002,49.0,98.0
416,96.65701672083334,96.72791221250002,49.0,98.0
417,96.43313622083335,96.83985246250002,61.0,98.0
418,96.43313622083335,96.912613625,67.0,98.0
419,96.43313622083335,96.97418076250001,64.0,98.0
420,96.88089722083335,96.99097180000001,61.0,93.0
421,97.32865822083335,97.91447886250002,55.0,98.0
422,97.32865822083335,97.92940422916668,60.0,98.0
423,97.32865822083335,98.06559820000001,64.0,98.0
424,97.77641922083335,98.39022492500001,48.0,98.0
425,98.22418022083335,98.96485154166668,55.0,98.0
426,98.22418022083335,99.01149331250001,60.0,98.0
427,98.22418022083335,99.01709032500001,64.0,98.0
428,98.67194122083335,99.39582150416668,48.0,60.0
429,99.11970222083335,99.67567212916668,55.0,98.0
430,99.11970222083335,99.85477652916668,64.0,98.0
431,99.11970222083335,99.86037354166668,60.0,98.0
432,99.56746322083335,100.16447788750001,48.0,66.0
433,97.32865822083335,100.23910472083335,36.0,98.0
434,100.01522422083335,100.47791058750002,64.0,98.0
435,100.01522422083335,100.55626876250001,60.0,98.0
436,100.46298522083335,100.69432840416668,55.0,98.0
437,100.91074622083335,100.99470140833334,38.0,98.0
438,100.91074622083335,101.26149233750002,57.0,98.0
439,100.91074622083335,101.27082069166669,62.0,98.0
440,100.91074622083335,101.31186545000001,66.0,98.0
441,101.58238772083334,101.69432797083334,62.0,92.0
442,101.58238772083334,101.70179065416667,69.0,98.0
443,101.58238772083334,101.71671602083335,66.0,98.0
444,101.80626822083335,102.06559646666668,66.0,98.0
445,101.80626822083335,102.07492482083335,69.0,98.0
446,101.80626822083335,102.11596957916667,62.0,98.0
447,101.80626822083335,102.42380526666668,57.0,98.0
448,102.47790972083335,102.53761118750002,78.0,98.0
449,102.47790972083335,102.56746192083335,66.0,98.0
450,101.35850722083335,102.67193948750001,50.0,98.0
451,102.25402922083335,102.6831335125,54.0,98.0
452,102.70179022083335,102.76522302916668,78.0,98.0
453,102.70179022083335,102.77455138333335,66.0,98.0
454,102.70179022083335,103.32376552708334,57.0,98.0
455,103.15331096458334,103.39762917083334,81.0,98.0
456,103.15331096458334,103.40899280833334,69.0,98.0
457,103.15331096458334,103.63815949791667,54.0,98.0
458,103.60785646458335,103.83891709375001,83.0,98.0
459,103.60785646458335,103.85028073125001,71.0,98.0
460,103.60785646458335,104.08323530000001,57.0,98.0
461,104.06240196458334,104.14762924583334,54.0,98.0
462,102.70179022083335,104.18550803750001,50.0,75.0
463,104.06240196458334,104.19497773541667,81.0,98.0
464,104.06240196458334,104.20255349375,69.0,98.0
465,104.51694746458334,104.63058383958334,55.0,98.0
466,104.51694746458334,104.63247777916668,59.0,98.0
467,104.51694746458334,104.65899293333334,62.0,98.0
468,104.97536825208334,105.67866085208334,50.0,71.0
469,104.51694746458334,105.71275176458334,43.0,98.0
470,105.66729721458334,105.77714571041668,55.0,98.0
471,105.43690675208333,105.83206995833334,67.0,98.0
472,105.43690675208333,105.86047905208335,71.0,98.0
473,105.89456996458334,105.938130575,62.0,98.0
474,106.34911546458335,106.41350941041668,63.0,98.0
475,106.34911546458335,106.41540335,59.0,98.0
476,106.34911546458335,106.42487304791668,66.0,98.0
477,107.03093371458334,107.11426705625001,78.0,98.0
478,107.03093371458334,107.12752463333334,71.0,92.0
479,107.03093371458334,107.12941857291668,75.0,98.0
480,107.25820646458334,107.33775192708335,59.0,98.0
481,107.25820646458334,107.33964586666667,71.0,98.0
482,106.34911546458335,107.35100950416667,47.0,95.0
483,106.80366096458334,107.37373677916668,54.0,60.0
484,107.25820646458334,107.5631307375,78.0,98.0
485,107.25820646458334,107.57828225416668,75.0,98.0
486,108.16729746458334,108.22600959166668,40.0,98.0
487,108.16729746458334,108.65972175625001,67.0,98.0
488,108.16729746458334,108.68055509166668,64.0,98.0
489,108.16729746458334,108.70138842708334,71.0,98.0
490,108.62184296458334,109.12752483333334,52.0,77.0
491,109.30366121458334,109.33775212708335,52.0,98.0
492,109.07638846458335,109.5176763875,67.0,98.0
493,109.07638846458335,109.54040366250001,71.0,98.0
494,109.53093396458334,109.61805518541668,64.0,98.0
495,109.98547946458334,110.05366128958335,66.0,98.0
496,109.98547946458334,110.06123704791668,62.0,98.0
497,109.98547946458334,110.06691886666667,69.0,98.0
498,110.66014572083334,110.76462328750002,69.0,98.0
499,110.43626522083335,110.78514566666668,57.0,72.0
500,110.66014572083334,110.78514566666668,74.0,98.0
501,110.66014572083334,110.78514566666668,78.0,98.0
502,110.88402622083335,110.94745902916668,57.0,98.0
503,109.98547946458334,110.96984707916668,50.0,98.0
504,110.88402622083335,111.32805587916668,78.0,98.0
505,110.88402622083335,111.38962301666668,74.0,98.0
506,111.33178722083335,111.80007060000001,69.0,98.0
507,111.77954822083335,111.80193627083335,75.0,98.0
508,111.77954822083335,111.86163773750002,72.0,98.0
509,111.77954822083335,111.86350340833334,76.0,98.0
510,111.77954822083335,111.86536907916668,36.0,93.0
511,112.45118972083334,112.55007027500001,67.0,54.0
512,112.67507022083335,113.13215957500002,64.0,98.0
513,112.67507022083335,113.16201030833335,67.0,98.0
514,113.12283122083335,113.51089075416668,48.0,97.0
515,113.57059222083335,114.32618890833335,59.0,98.0
516,113.57059222083335,114.34671128750001,62.0,98.0
517,113.57059222083335,114.36350232500001,66.0,98.0
518,114.24223372083334,114.43066647500001,54.0,62.0
519,114.46611422083335,114.93812894166668,66.0,98.0
520,113.57059222083335,114.94186028333334,47.0,98.0
521,114.46611422083335,114.94745729583335,62.0,98.0
522,114.91387522083335,114.96797967500001,54.0,80.0
523,114.91387522083335,115.14521840416668,59.0,98.0
524,115.36163622083335,115.42506902916668,60.0,98.0
525,115.36163622083335,115.43066604166668,57.0,98.0
526,115.36163622083335,115.43626305416667,64.0,98.0
527,116.03327772083334,116.109770225,69.0,78.0
528,116.03327772083334,116.30566566250002,64.0,98.0
529,115.80939722083335,116.34857609166667,57.0,98.0
530,115.58551672083334,116.54260585833335,52.0,90.0
531,115.36163622083335,116.57245659166668,45.0,98.0
532,116.48103872083334,116.57432226250002,57.0,98.0
533,116.25715822083335,116.67133714583335,72.0,98.0
534,116.25715822083335,116.68626251250001,69.0,98.0
535,116.70491922083335,116.79260575,64.0,98.0
536,116.92879972083335,117.03700862916668,69.0,67.0
537,117.15268022083335,117.52581438750002,62.0,98.0
538,117.15268022083335,117.62469494166668,66.0,98.0
539,117.15268022083335,117.78327696250001,38.0,98.0
540,117.60044122083335,117.89148587083335,57.0,98.0
541,117.37656072083334,117.95678435,50.0,98.0
542,117.82432172083335,118.07245594166668,66.0,98.0
543,118.04820222083335,118.54633633333334,39.0,98.0
544,118.04820222083335,118.86536604583334,63.0,98.0
545,118.94372422083335,119.2273061875,59.0,98.0
546,118.94372422083335,119.53141053333334,64.0,98.0
547,118.94372422083335,119.67693285833334,67.0,98.0
548,119.61536572083335,119.67879852916668,64.0,47.0
549,119.61536572083335,119.8205895125,59.0,98.0
550,119.39148522083335,119.91387305416669,52.0,98.0
551,118.94372422083335,120.16946995833335,40.0,98.0
552,119.16760472083334,120.17506697083334,47.0,98.0
553,120.06312672083334,120.17506697083334,52.0,98.0
554,119.83924622083335,120.27021618333335,67.0,98.0
555,119.83924622083335,120.29633557500001,64.0,98.0
556,120.28700722083335,120.68812645000001,59.0,98.0
557,120.73476822083335,121.24782770000002,69.0,98.0
558,120.73476822083335,121.44185746666668,63.0,98.0
559,120.73476822083335,121.45305149166668,66.0,98.0
560,121.18252922083335,121.70864839583335,51.0,98.0
561,121.85417072083335,121.98663335,51.0,98.0
562,120.73476822083335,121.98849902083334,39.0,98.0
563,121.63029022083334,121.99596170416667,63.0,98.0
564,121.63029022083334,122.11163329583334,69.0,98.0
565,121.63029022083334,122.15454372500001,66.0,98.0
566,122.07805122083334,122.19931982500002,63.0,98.0
567,122.52581222083334,123.04820005416668,66.0,98.0
568,122.52581222083334,123.08737914166667,62.0,98.0
569,123.42133422083334,123.54073715416668,62.0,98.0
570,123.42133422083334,123.55566252083335,66.0,98.0
571,122.52581222083334,123.63382863333334,50.0,98.0
572,122.97357322083334,123.6926521,57.0,98.0
573,123.86544603333334,124.944489,67.0,98.0
574,123.86544603333334,124.96103310000001,64.0,98.0
575,123.86544603333334,124.96470956666667,61.0,98.0
576,123.86544603333334,125.2864004,49.0,98.0
577,125.40956203333334,125.47941490000001,49.0,98.0
578,125.18897403333334,125.5897089,61.0,98.0
579,125.18897403333334,125.66140000000001,67.0,98.0
580,125.18897403333334,125.72206170000001,64.0,98.0
581,125.63015003333334,125.7386058,61.0,93.0
582,126.07132603333334,126.73125180000001,57.0,98.0
583,126.07132603333334,126.78639880000001,64.0,98.0
584,126.07132603333334,126.79007526666668,60.0,98.0
585,126.51250203333335,127.18529543333334,45.0,72.0
586,126.95367803333335,127.62830966666668,57.0,98.0
587,126.95367803333335,127.66691256666668,60.0,98.0
588,126.95367803333335,127.67794196666668,64.0,98.0
589,127.39485403333335,128.0106622,45.0,68.0
590,127.83603003333334,128.36727946666667,57.0,98.0
591,127.83603003333334,128.37095593333333,60.0,98.0
592,127.83603003333334,128.4297794,64.0,98.0
593,126.07132603333334,128.67977913333334,33.0,98.0
594,128.71838203333334,128.8213231,57.0,98.0
595,128.27720603333333,128.82316133333333,45.0,93.0
596,128.71838203333334,129.20367563333335,60.0,98.0
597,128.71838203333334,129.36544016666667,64.0,98.0
598,129.15955803333335,129.45919006666668,57.0,98.0
599,129.60073403333334,129.85539593333334,57.0,98.0
600,129.60073403333334,129.889816175,62.0,98.0
601,129.60073403333334,129.94597551666666,66.0,98.0
602,130.25575769166667,130.313728625,69.0,94.0
603,130.25575769166667,130.3191634,62.0,98.0
604,130.25575769166667,130.335467725,66.0,98.0
605,130.03836669166668,130.57278623333335,50.0,98.0
606,130.47314869166667,130.94597411666666,62.0,98.0
607,130.47314869166667,130.95865525833335,66.0,98.0
608,130.47314869166667,130.97314799166668,69.0,98.0
609,131.12532169166667,131.20322013333333,62.0,98.0
610,131.12532169166667,131.205031725,69.0,98.0
611,131.12532169166667,131.215901275,66.0,98.0
612,130.90793069166668,131.35358224166666,50.0,98.0
613,131.34271269166666,131.66879919166666,69.0,98.0
614,131.34271269166666,131.683291925,66.0,98.0
615,131.77749469166667,132.09452323333335,62.0,98.0
616,131.99488569166667,132.10539278333334,69.0,98.0
617,131.99488569166667,132.12169710833334,66.0,98.0
618,131.56010369166668,132.26843603333333,50.0,98.0
619,132.42966769166668,132.54017478333333,50.0,98.0
620,132.21227669166666,132.54742115,66.0,98.0
621,129.60073403333334,132.58365298333334,38.0,98.0
622,132.21227669166666,132.75031941666668,69.0,98.0
623,132.64705869166667,132.94597131666666,62.0,98.0
624,132.86444969166666,132.97857996666667,66.0,98.0
625,133.08184069166668,133.80828895000002,62.0,98.0
626,133.08184069166668,133.81191213333335,71.0,98.0
627,133.08184069166668,133.82278168333335,67.0,98.0
628,133.51662269166667,133.96952060833334,50.0,98.0
629,133.08184069166668,133.976766975,43.0,98.0
630,133.95140469166668,134.00937562500002,71.0,98.0
631,133.95140469166668,134.04379586666667,67.0,98.0
632,133.95140469166668,134.12531749166666,62.0,98.0
633,134.38274503958334,135.3345309125,60.0,98.0
634,134.38274503958334,135.34524520000002,67.0,98.0
635,134.38274503958334,135.36845948958336,64.0,98.0
636,135.23988803958335,135.75774526875003,55.0,98.0
637,134.38274503958334,135.944038,48.0,98.0
638,135.8824183125,135.972207,55.0,98.0
639,135.66845953958335,136.102488625,64.0,98.0
640,135.66845953958335,136.1077703125,67.0,98.0
641,136.0936858125,136.1957984375,60.0,98.0
642,136.5162208125,137.19051625,71.0,98.0
643,136.5162208125,137.211643,67.0,98.0
644,136.5162208125,137.22748806250002,62.0,98.0
645,136.5162208125,137.30319225,43.0,98.0
646,136.9387558125,137.341924625,50.0,98.0
647,137.36129081250002,137.426431625,71.0,98.0
648,137.36129081250002,137.44579781250002,67.0,98.0
649,137.36129081250002,137.54438931250002,62.0,98.0
650,137.7838258125,138.71081248125,60.0,98.0
651,137.7838258125,138.7697410625,67.0,98.0
652,137.7838258125,138.7786696354167,64.0,98.0
653,138.63224103958333,139.17152684375,55.0,86.0
654,139.27578103333335,139.40078090000003,55.0,98.0
655,137.7838258125,139.44857496666668,48.0,98.0
656,139.06081253958334,139.46695730000002,67.0,98.0
657,139.06081253958334,139.50188373333336,64.0,98.0
658,139.49636903333334,139.83276573333336,62.0,98.0
659,139.93754503333335,140.59011786666667,62.0,98.0
660,139.93754503333335,140.59747080000002,71.0,98.0
661,139.93754503333335,140.60482373333335,67.0,98.0
662,139.93754503333335,140.75739710000002,43.0,98.0
663,140.37872103333336,140.77945590000002,50.0,98.0
664,140.81989703333335,140.86769110000003,71.0,98.0
665,140.81989703333335,140.89158813333336,67.0,98.0
666,140.81989703333335,140.96695570000003,62.0,98.0
667,141.26107303333336,142.20776320000002,60.0,98.0
668,141.26107303333336,142.24085140000003,64.0,98.0
669,141.26107303333336,142.28496900000002,67.0,98.0
670,142.14342503333336,142.64158626666668,55.0,87.0
671,142.58460103333334,142.6912185666667,60.0,98.0
672,141.26107303333336,142.84930663333336,48.0,94.0
673,142.80518903333336,142.8971007,55.0,92.0
674,142.58460103333334,143.00371823333336,64.0,98.0
675,142.58460103333334,143.00739470000002,67.0,98.0
676,143.02577703333336,143.13974750000003,60.0,98.0
677,143.46695303333334,144.07357003333334,66.0,98.0
678,143.46695303333334,144.18570226666668,57.0,98.0
679,143.46695303333334,144.24268750000002,62.0,98.0
680,143.90812903333335,144.59195183333335,50.0,98.0
681,144.34930503333337,144.95959850000003,62.0,98.0
682,144.34930503333337,144.97614260000003,66.0,98.0
683,145.23165703333336,145.97062683333334,57.0,95.0
684,145.23165703333336,145.98533270000001,62.0,98.0
685,145.23165703333336,146.0000385666667,66.0,98.0
686,144.79048103333335,146.18937660000003,50.0,76.0
687,143.46695303333334,146.3624857229167,38.0,98.0
688,146.11400903333336,146.99284297083335,62.0,89.0
689,146.97677153958335,146.99284297083335,62.0,98.0
690,146.11400903333336,147.0214144041667,66.0,76.0
691,146.97677153958335,147.67677165625003,59.0,98.0
692,147.40534303958336,147.98927170833335,50.0,78.0
693,147.83391453958336,148.27320032708337,62.0,98.0
694,147.83391453958336,148.51962893958336,59.0,98.0
695,148.26248603958337,148.78748612708335,50.0,88.0
696,146.97677153958335,148.9285575791667,43.0,98.0
697,148.69105753958337,149.14462904375003,62.0,98.0
698,148.69105753958337,149.18927190833335,59.0,98.0
699,149.11962903958337,149.50534338958335,43.0,98.0
700,149.98375703333335,150.3495654666667,42.0,98.0
701,149.54820053958335,150.3716242666667,62.0,98.0
702,149.54820053958335,150.41758010000004,59.0,98.0
703,151.30728503333336,151.4635348666667,55.0,98.0
704,151.30728503333336,151.4966230666667,59.0,98.0
705,151.74846103333337,152.3127986666667,52.0,59.0
706,152.18963703333336,152.7264011666667,59.0,98.0
707,152.18963703333336,152.73926880000002,67.0,98.0
708,152.18963703333336,152.75948936666668,64.0,98.0
709,152.63081303333337,153.00948910000002,52.0,71.0
710,150.86610903333337,153.25948883333336,47.0,65.0
711,150.42493303333336,153.33669463333337,40.0,98.0
712,153.07198903333335,153.50213563333335,67.0,98.0
713,153.07198903333335,153.5058121,64.0,98.0
714,153.51316503333337,153.93228223333335,59.0,96.0
715,153.95434103333335,154.08669383333336,60.0,98.0
716,153.95434103333335,154.11242910000004,64.0,98.0
717,154.83669303333338,155.2887411854167,72.0,98.0
718,154.83669303333338,155.3637411979167,69.0,98.0
719,154.83669303333338,155.36552691250003,64.0,96.0
720,155.27088403958336,155.8137412729167,57.0,84.0
721,155.69945553958337,156.22088419791672,64.0,98.0
722,155.69945553958337,156.24588420208337,72.0,98.0
723,155.69945553958337,156.38874136875003,69.0,98.0
724,156.12802703958337,156.74231285625004,57.0,60.0
725,156.55659853958338,156.9387414604167,69.0,98.0
726,156.55659853958338,156.94945574791672,72.0,98.0
727,154.39551703333336,157.06731291041672,52.0,65.0
728,153.95434103333335,157.07981291250005,45.0,98.0
729,156.98517003958338,157.40302725208338,57.0,90.0
730,157.41374153958338,157.9940987791667,62.0,98.0
731,157.41374153958338,158.01731306875004,69.0,98.0
732,157.41374153958338,158.06374164791671,66.0,98.0
733,157.8423130395834,158.3958845604167,57.0,64.0
734,158.27088453958336,158.54767030000005,62.0,96.0
735,157.41374153958338,158.58517030625003,50.0,95.0
736,158.27088453958336,158.7976703416667,69.0,98.0
737,158.27088453958336,158.8083846291667,66.0,98.0
738,158.69945603958337,159.01195609166672,62.0,98.0
739,159.12802753958337,159.82802765625004,57.0,98.0
740,159.12802753958337,159.83338480000003,62.0,98.0
741,159.12802753958337,159.83874194375005,66.0,98.0
742,159.12802753958337,159.87445623541672,38.0,87.0
743,159.98517053958338,160.73322670000002,66.0,98.0
744,159.98517053958338,160.74425610000003,62.0,98.0
745,159.98517053958338,160.8085942666667,36.0,98.0
746,160.86190303333336,161.3821230666667,66.0,98.0
747,160.86190303333336,161.3931524666667,62.0,98.0
748,160.86190303333336,161.45749063333335,59.0,98.0
749,161.74425503333336,162.25160743333336,66.0,98.0
750,161.74425503333336,162.2644750666667,62.0,98.0
751,161.74425503333336,162.3030779666667,59.0,98.0
752,161.30307903333338,162.69645990000004,47.0,55.0
753,162.62660703333336,163.18726820000003,59.0,98.0
754,162.62660703333336,163.2240328666667,66.0,98.0
755,162.62660703333336,163.23873873333338,62.0,98.0
756,163.06778303333337,163.5494001666667,47.0,65.0
757,162.18543103333337,163.6266059666667,42.0,61.0
758,160.86190303333336,163.64866476666668,35.0,94.0
759,163.50895903333335,163.9411569166667,66.0,98.0
760,163.50895903333335,164.16579428333335,62.0,98.0
761,163.9465916916667,164.33970708333337,59.0,90.0
762,164.38137369166668,164.48825760000003,59.0,98.0
763,164.38137369166668,164.52086625,69.0,98.0
764,164.38137369166668,164.52448943333334,64.0,98.0
765,164.8161556916667,165.46062306250002,47.0,82.0
766,165.25093769166668,165.99583406250002,59.0,98.0
767,165.25093769166668,166.00111575000003,52.0,98.0
768,165.25093769166668,166.011679125,56.0,98.0
769,164.38137369166668,166.40956625,40.0,98.0
770,166.52400281250002,166.937735,40.0,98.0
771,166.1014678125,166.9535800625,59.0,98.0
772,166.1014678125,166.95886175,56.0,98.0
773,166.1014678125,166.9676645625,52.0,98.0
774,166.94653781250003,167.33056990000003,42.0,98.0
775,167.3758596916667,167.76354030833335,44.0,98.0
776,167.8106416916667,168.35955396666668,60.0,98.0
777,167.8106416916667,168.38491625000003,57.0,98.0
778,167.8106416916667,168.50810448333337,64.0,98.0
779,168.2454236916667,168.84506053333337,52.0,87.0
780,168.89794303333335,169.0045605666667,52.0,62.0
781,167.8106416916667,169.1038251666667,45.0,98.0
782,168.68020569166669,169.2030897666667,64.0,98.0
783,168.68020569166669,169.4402218666667,60.0,98.0
784,169.11853103333334,169.47698653333336,57.0,87.0
785,169.55970703333335,170.12955936666668,57.0,98.0
786,169.55970703333335,170.30970623333334,62.0,98.0
787,169.55970703333335,170.30970623333334,66.0,98.0
788,170.00088303333337,170.4769854666667,50.0,57.0
789,169.55970703333335,170.5450001,38.0,87.0
790,170.44205903333335,170.85566153333335,66.0,98.0
791,170.44205903333335,170.89610266666668,62.0,98.0
792,170.88323503333336,171.13507300000003,57.0,74.0
793,171.32441103333335,171.42367563333335,59.0,98.0
794,171.32441103333335,171.45676383333335,62.0,98.0
795,172.20676303333335,172.84095353333336,62.0,98.0
796,172.20676303333335,172.8648505666667,67.0,98.0
797,172.20676303333335,172.86668880000002,71.0,98.0
798,172.64793903333336,173.2894824666667,55.0,80.0
799,173.08911503333334,173.64426150000003,62.0,82.0
800,173.08911503333334,173.78212900000003,71.0,85.0
801,173.08911503333334,173.8023495666667,67.0,89.0
802,173.53029103333336,174.0082317,55.0,68.0
803,171.76558703333336,174.09279043333336,50.0,76.0
804,174.19205503333336,174.27845200000002,50.0,98.0
805,171.32441103333335,174.2931578666667,43.0,95.0
806,173.97146703333337,174.41264303333335,67.0,98.0
807,173.97146703333337,174.41264303333335,71.0,98.0
808,174.41264303333335,174.57808403333337,62.0,98.0
809,174.85381903333337,175.13323050000002,69.0,98.0
810,174.85381903333337,175.1442599,62.0,98.0
811,174.85381903333337,175.14977460000003,66.0,98.0
812,175.29499503333335,175.41631843333334,66.0,98.0
813,175.29499503333335,175.41631843333334,69.0,84.0
814,175.29499503333335,175.4751419,62.0,96.0
815,175.73617103333336,175.86484736666668,62.0,98.0
816,175.29499503333335,175.95492080000002,50.0,98.0
817,175.73617103333336,175.96227373333335,57.0,98.0
818,175.73617103333336,175.98065606666668,66.0,98.0
819,176.17734703333335,176.27293516666668,62.0,98.0
820,176.17734703333335,176.29499396666668,57.0,95.0
821,176.17734703333335,176.3060233666667,66.0,98.0
822,176.17734703333335,176.49168493333335,50.0,75.0
823,176.61852303333336,176.91732662500002,57.0,98.0
824,176.61852303333336,176.92260831250002,62.0,98.0
825,176.61852303333336,176.93317168750002,66.0,98.0
826,176.61852303333336,177.0951434375,50.0,98.0
827,177.04936881250003,177.12507300000001,62.0,97.0
828,177.04936881250003,177.16732650000003,66.0,98.0
829,177.26063631250003,177.47894606250003,50.0,93.0
830,174.85381903333337,177.75183325000003,38.0,98.0
831,177.47190381250002,177.78704450000004,62.0,98.0
832,177.68317131250004,177.83105856250003,50.0,98.0
833,177.47190381250002,177.8521853125,66.0,98.0
834,177.89443881250003,177.95781906250002,57.0,98.0
835,178.31697381250004,178.42260756250002,55.0,98.0
836,178.31697381250004,178.42436812500003,59.0,98.0
837,178.31697381250004,178.44901600000003,62.0,98.0
838,178.73950881250002,179.38387468750003,50.0,71.0
839,178.31697381250004,179.41556481250004,43.0,98.0
840,179.37331131250002,179.47542393750004,55.0,98.0
841,179.16204381250003,179.52648025000002,67.0,98.0
842,179.16204381250003,179.55288868750003,71.0,98.0
843,179.5845788125,179.62507175000002,62.0,98.0
844,180.00711381250002,180.06697293750003,63.0,98.0
845,180.00711381250002,180.06873350000004,59.0,98.0
846,180.00711381250002,180.07753631250003,66.0,98.0
847,180.64727978958337,180.72585123125003,78.0,98.0
848,180.64727978958337,180.73835123333336,71.0,92.0
849,180.64727978958337,180.74013694791668,75.0,98.0
850,180.86156553958335,180.93656555208335,59.0,98.0
851,180.86156553958335,180.9383512666667,71.0,98.0
852,180.00711381250002,180.94906555416668,47.0,95.0
853,180.43299403958335,180.9704941291667,54.0,60.0
854,180.86156553958335,181.14906558750002,78.0,98.0
855,180.86156553958335,181.1633513041667,75.0,98.0
856,181.71870853958336,181.7740656916667,40.0,98.0
857,181.71870853958336,182.18299433125003,67.0,98.0
858,181.71870853958336,182.2026371916667,64.0,98.0
859,181.71870853958336,182.22228005208336,71.0,98.0
860,182.14728003958336,182.62406583333336,52.0,77.0
861,182.79013728958336,182.82228015208335,52.0,98.0
862,182.57585153958337,182.99192303750002,67.0,98.0
863,182.57585153958337,183.01335161250003,71.0,98.0
864,183.00442303958337,183.08656591041668,64.0,98.0
865,183.43299453958335,183.49728026458337,66.0,98.0
866,183.43299453958335,183.5044231229167,62.0,98.0
867,183.43299453958335,183.5097802666667,69.0,98.0
868,184.07585178958337,184.17585180625002,69.0,98.0
869,183.86156603958335,184.1954946666667,57.0,72.0
870,184.07585178958337,184.1954946666667,74.0,98.0
871,184.07585178958337,184.1954946666667,78.0,98.0
872,184.29013753958336,184.3508518354167,57.0,98.0
873,183.43299453958335,184.3722804104167,50.0,98.0
874,184.29013753958336,184.7151376104167,78.0,98.0
875,184.29013753958336,184.7740661916667,74.0,98.0
876,184.71870903958336,185.16692340000003,69.0,98.0
877,185.14728053958336,185.16870911458335,75.0,98.0
878,185.14728053958336,185.22585198125003,72.0,98.0
879,185.14728053958336,185.22763769583335,76.0,98.0
880,185.14728053958336,185.2294234104167,36.0,93.0
881,185.79013778958335,185.88478066250002,67.0,54.0
882,186.00442353958337,186.44192361250003,64.0,98.0
883,186.00442353958337,186.47049504583336,67.0,98.0
884,186.43299503958335,186.8044236729167,48.0,97.0
885,186.86156653958335,187.58478094583336,59.0,98.0
886,186.86156653958335,187.60442380625003,62.0,98.0
887,186.86156653958335,187.62049523750002,66.0,98.0
888,187.50442378958337,187.6847809625,54.0,62.0
889,187.71870953958336,188.1704953291667,66.0,98.0
890,186.86156653958335,188.17406675833337,47.0,98.0
891,187.71870953958336,188.17942390208336,62.0,98.0
892,188.14728103958336,188.19906676250002,54.0,80.0
893,188.14728103958336,188.3687096479167,59.0,98.0
894,188.57585253958337,188.6365668354167,60.0,98.0
895,188.57585253958337,188.64192397916668,57.0,98.0
896,188.57585253958337,188.6472811229167,64.0,98.0
897,189.21870978958336,189.29192408750004,69.0,78.0
898,189.21870978958336,189.47942411875002,64.0,98.0
899,189.00442403958337,189.5204955541667,57.0,98.0
900,188.79013828958335,189.70620987083336,52.0,90.0
901,188.57585253958337,189.7347813041667,45.0,98.0
902,189.64728128958336,189.73656701875004,57.0,98.0
903,189.43299553958335,189.82942417708335,72.0,98.0
904,189.43299553958335,189.84370989375003,69.0,98.0
905,189.86156703958335,189.94549562500004,64.0,98.0
906,190.07585278958337,190.1794242354167,69.0,67.0
907,190.29013853958335,190.64728145625003,62.0,98.0
908,190.29013853958335,190.7419243291667,66.0,98.0
909,190.29013853958335,190.89371006875,38.0,98.0
910,190.71871003958336,190.99728151458336,57.0,98.0
911,190.50442428958337,191.05978152500003,50.0,98.0
912,190.93299578958334,191.1704958291667,66.0,98.0
913,191.14728153958336,191.62406733333336,39.0,98.0
914,191.14728153958336,191.92942452708337,63.0,98.0
915,192.00442453958337,192.27585315625004,59.0,98.0
916,192.00442453958337,192.56692463333337,64.0,98.0
917,192.00442453958337,192.70621037083336,67.0,98.0
918,192.64728178958336,192.70799608541668,64.0,47.0
919,192.64728178958336,192.84371039375003,59.0,98.0
920,192.43299603958337,192.93299612291668,52.0,98.0
921,192.00442453958337,193.17763902083337,40.0,98.0
922,192.21871028958336,193.18299616458336,47.0,98.0
923,193.07585328958336,193.18299616458336,52.0,98.0
924,192.86156753958335,193.27406760833335,67.0,98.0
925,192.86156753958335,193.29906761250004,64.0,98.0
926,193.29013903958335,193.67406767500003,59.0,98.0
927,193.71871053958336,194.20978205000003,69.0,98.0
928,193.71871053958336,194.3954963666667,63.0,98.0
929,193.71871053958336,194.4062106541667,66.0,98.0
930,194.14728203958336,194.65085355208336,51.0,98.0
931,194.79013928958335,194.916925025,51.0,98.0
932,193.71871053958336,194.91871073958336,39.0,98.0
933,194.57585353958336,194.9258535979167,63.0,98.0
934,194.57585353958336,195.03656790208336,69.0,98.0
935,194.57585353958336,195.07763933750002,66.0,98.0
936,195.00442503958337,195.12049648750002,63.0,98.0
937,195.43299653958337,195.9329966229167,66.0,98.0
938,195.43299653958337,195.9704966291667,62.0,98.0
939,196.29013953958335,196.40442527291668,62.0,98.0
940,196.29013953958335,196.41871098958336,66.0,98.0
941,195.43299653958337,196.49371100208336,50.0,98.0
942,195.86156803958335,196.55085386875004,57.0,98.0
943,196.71871103958335,197.7669255,67.0,98.0
944,196.71871103958335,197.78299693125,64.0,98.0
945,196.71871103958335,197.78656836041668,61.0,98.0
946,196.71871103958335,198.09906841250003,49.0,98.0
947,198.21871128958335,198.28656844375,49.0,98.0
948,198.00442553958337,198.39371131875004,61.0,98.0
949,198.00442553958337,198.46335418750002,67.0,98.0
950,198.00442553958337,198.52228276875002,64.0,98.0
951,198.43299703958337,198.53835420000001,61.0,93.0
952,198.86156853958335,199.42228291875003,55.0,98.0
953,198.86156853958335,199.43656863541668,60.0,98.0
954,198.86156853958335,199.56692580000004,64.0,98.0
955,199.29014003958335,199.8776401375,48.0,98.0
956,199.71871153958335,200.42764022916668,55.0,98.0
957,199.71871153958335,200.47228309375004,60.0,98.0
958,199.71871153958335,200.47764023750003,64.0,98.0
959,200.14728303958336,200.8401402979167,48.0,60.0
960,200.57585453958336,201.1079974854167,55.0,98.0
961,200.57585453958336,201.2794260854167,64.0,98.0
962,200.57585453958336,201.2847832291667,60.0,98.0
963,201.00442603958336,201.57585470625003,48.0,66.0
964,198.86156853958335,201.64728328958336,36.0,98.0
965,201.43299753958337,201.87585475625002,64.0,98.0
966,201.43299753958337,201.95085476875002,60.0,98.0
967,201.86156903958334,202.0829976479167,55.0,98.0
968,202.29014053958335,202.37049769583336,38.0,98.0
969,202.29014053958335,202.62585488125004,57.0,98.0
970,202.29014053958335,202.6347834541667,62.0,98.0
971,202.29014053958335,202.67406917500003,66.0,98.0
972,202.93299778958337,203.04014066458336,62.0,92.0
973,202.93299778958337,203.0472835229167,69.0,98.0
974,202.93299778958337,203.06156923958335,66.0,98.0
975,203.14728353958336,203.3954978666667,66.0,98.0
976,203.14728353958336,203.40442643958335,69.0,98.0
977,203.14728353958336,203.44371216041668,62.0,98.0
978,203.14728353958336,203.73835506666668,57.0,98.0
979,203.79014078958335,203.84728365625003,78.0,98.0
980,203.79014078958335,203.87585508958335,66.0,98.0
981,202.71871203958335,203.97585510625004,50.0,98.0
982,203.57585503958336,203.98656939375002,54.0,98.0
983,204.00442653958336,204.06514083541668,78.0,98.0
984,204.00442653958336,204.07406940833334,66.0,98.0
985,204.00442653958336,204.59371235208334,57.0,98.0
986,204.43299803958337,204.66335522083335,81.0,98.0
987,204.43299803958337,204.67406950833336,69.0,98.0
988,204.43299803958337,204.8901409729167,54.0,98.0
989,204.86156953958334,205.07942671875003,83.0,98.0
990,204.86156953958334,205.09014100625004,71.0,98.0
991,204.86156953958334,205.3097839,57.0,98.0
992,205.29014103958335,205.37049819583336,54.0,98.0
993,204.00442653958336,205.40621248750003,50.0,75.0
994,205.29014103958335,205.4151410604167,81.0,98.0
995,205.29014103958335,205.42228391875003,69.0,98.0
996,205.71871253958335,205.82585541458337,55.0,98.0
997,205.71871253958335,205.8276411291667,59.0,98.0
998,205.71871253958335,205.85264113333335,62.0,98.0
999,206.14728403958335,206.80085557708335,50.0,71.0
1000,205.71871253958335,206.83299843958335,43.0,98.0
1001,206.79014128958335,206.8937127354167,55.0,98.0
1002,206.57585553958336,206.94549845833336,67.0,98.0
1003,206.57585553958336,206.97228417708337,71.0,98.0
1004,207.00442703958336,207.04549847500002,62.0,98.0
1005,207.43299853958337,207.4937128354167,63.0,98.0
1006,207.43299853958337,207.49549855000004,59.0,98.0
1007,207.43299853958337,207.5044271229167,66.0,98.0
1008,208.07585578958336,208.15442723125003,78.0,98.0
1009,208.07585578958336,208.16692723333335,71.0,92.0
1010,208.07585578958336,208.1687129479167,75.0,98.0
1011,208.29014153958337,208.36514155208334,59.0,98.0
1012,208.29014153958337,208.3669272666667,71.0,98.0
1013,207.43299853958337,208.3776415541667,47.0,95.0
1014,207.86157003958337,208.3990701291667,54.0,60.0
1015,208.29014153958337,208.5776415875,78.0,98.0
1016,208.29014153958337,208.5919273041667,75.0,98.0
1017,209.14728453958335,209.20264169166668,40.0,98.0
1018,209.14728453958335,209.61157033125002,67.0,98.0
1019,209.14728453958335,209.6312131916667,64.0,98.0
1020,209.14728453958335,209.65085605208336,71.0,98.0
1021,209.57585603958336,210.05264183333335,52.0,77.0
1022,210.21871328958335,210.25085615208337,52.0,98.0
1023,210.00442753958336,210.42049903750004,67.0,98.0
1024,210.00442753958336,210.44192761250002,71.0,98.0
1025,210.43299903958336,210.5151419104167,64.0,98.0
1026,210.86157053958337,210.92585626458336,66.0,98.0
1027,210.86157053958337,210.9329991229167,62.0,98.0
1028,210.86157053958337,210.9383562666667,69.0,98.0
1029,211.50442778958336,211.60442780625002,69.0,98.0
1030,211.29014203958337,211.62407066666668,57.0,72.0
1031,211.50442778958336,211.62407066666668,74.0,98.0
1032,211.50442778958336,211.62407066666668,78.0,98.0
1033,211.71871353958335,211.7794278354167,57.0,98.0
1034,210.86157053958337,211.80085641041669,50.0,98.0
1035,211.71871353958335,212.14371361041668,78.0,98.0
1036,211.71871353958335,212.20264219166668,74.0,98.0
1037,212.14728503958335,212.59549940000002,69.0,98.0
1038,212.57585653958336,212.65442798125002,72.0,98.0
1039,212.57585653958336,212.65621369583334,76.0,98.0
1040,212.57585653958336,212.6579994104167,36.0,93.0
1041,213.21871378958338,213.31335666250004,67.0,54.0
1042,213.43299953958336,213.87049961250003,64.0,98.0
1043,213.43299953958336,213.89907104583335,67.0,98.0
1044,213.86157103958337,214.2329996729167,48.0,97.0
1045,214.29014253958337,215.01335694583335,59.0,98.0
1046,214.29014253958337,215.03299980625002,62.0,98.0
1047,214.29014253958337,215.04907123750002,66.0,98.0
1048,214.93299978958336,215.11335696250003,54.0,62.0
1049,215.14728553958335,215.5990713291667,66.0,98.0
1050,214.29014253958337,215.60264275833336,47.0,98.0
1051,215.14728553958335,215.60799990208335,62.0,98.0
1052,215.57585703958335,215.62764276250002,54.0,80.0
1053,215.57585703958335,215.79728564791668,59.0,98.0
1054,216.00442853958336,216.06514283541668,60.0,98.0
1055,216.00442853958336,216.0704999791667,57.0,98.0
1056,216.00442853958336,216.0758571229167,64.0,98.0
1057,216.64728578958335,216.72050008750003,69.0,78.0
1058,216.64728578958335,216.90800011875,64.0,98.0
1059,216.43300003958336,216.9490715541667,57.0,98.0
1060,216.21871428958337,217.13478587083335,52.0,90.0
1061,216.00442853958336,217.1633573041667,45.0,98.0
1062,217.07585728958335,217.16514301875003,57.0,98.0
1063,216.86157153958337,217.25800017708337,72.0,98.0
1064,216.86157153958337,217.27228589375002,69.0,98.0
1065,217.29014303958337,217.37407162500003,64.0,98.0
1066,217.50442878958336,217.60800023541668,69.0,67.0
1067,217.71871453958335,218.07585745625002,62.0,98.0
1068,217.71871453958335,218.17050032916669,66.0,98.0
1069,217.71871453958335,218.32228606875003,38.0,98.0
1070,218.14728603958335,218.42585751458336,57.0,98.0
1071,217.93300028958336,218.48835752500003,50.0,98.0
1072,218.36157178958337,218.5990718291667,66.0,98.0
1073,218.57585753958335,219.05264333333335,39.0,98.0
1074,218.57585753958335,219.35800052708336,63.0,98.0
1075,219.43300053958336,219.70442915625003,59.0,98.0
1076,219.43300053958336,219.99550063333336,64.0,98.0
1077,219.43300053958336,220.13478637083335,67.0,98.0
1078,220.07585778958335,220.1365720854167,64.0,47.0
1079,220.07585778958335,220.27228639375002,59.0,98.0
1080,219.86157203958336,220.3615721229167,52.0,98.0
1081,219.43300053958336,220.60621502083336,40.0,98.0
1082,219.64728628958335,220.61157216458335,47.0,98.0
1083,220.50442928958336,220.61157216458335,52.0,98.0
1084,220.29014353958337,220.70264360833335,67.0,98.0
1085,220.29014353958337,220.72764361250003,64.0,98.0
1086,220.71871503958334,221.10264367500002,59.0,98.0
1087,221.14728653958335,221.63835805000002,69.0,98.0
1088,221.14728653958335,221.82407236666668,63.0,98.0
1089,221.14728653958335,221.8347866541667,66.0,98.0
1090,221.57585803958335,222.07942955208335,51.0,98.0
1091,222.21871528958337,222.34550102500003,51.0,98.0
1092,221.14728653958335,222.34728673958335,39.0,98.0
1093,222.00442953958336,222.3544295979167,63.0,98.0
1094,222.00442953958336,222.46514390208335,69.0,98.0
1095,222.00442953958336,222.5062153375,66.0,98.0
1096,222.43300103958336,222.54907248750004,63.0,98.0
1097,222.86157253958336,223.3615726229167,66.0,98.0
1098,222.86157253958336,223.39907262916668,62.0,98.0
1099,223.71871553958334,223.8330012729167,62.0,98.0
1100,223.71871553958334,223.84728698958335,66.0,98.0
1101,222.86157253958336,223.92228700208335,50.0,98.0
1102,223.29014403958337,223.97942986875003,57.0,98.0
1103,224.14728703958338,227.0575408375,67.0,98.0
1104,224.14728703958338,227.07366987083336,64.0,98.0
1105,224.14728703958338,227.07971825833334,61.0,98.0
1106,224.14728703958338,227.43052473333336,49.0,98.0
1107,227.34383117916667,228.27513570833335,59.0,98.0
1108,228.23528069166667,229.2334677,64.0,98.0
1109,228.90556960833334,229.2334677,64.0,80.0
1110,228.95448258333334,230.11390125000003,69.0,98.0
1111,229.05412012500003,230.41824865,72.0,98.0
1112,229.956292775,231.021508675,57.0,98.0
1113,230.38382840833336,231.26969673333335,69.0,98.0
1114,230.81317563333334,231.53056593333335,72.0,98.0
1115,231.22621853333334,231.67549326666668,57.0,85.0
1116,229.51426440833333,231.74433375,52.0,68.0
1117,229.1211490166667,231.79324672500002,45.0,97.0
1118,231.673681675,232.1157100416667,72.0,98.0
1119,231.67187008333335,232.11752163333335,69.0,98.0
1120,232.1048404916667,232.26244896666668,62.0,73.0
1121,232.10121730833333,232.32766626666668,64.0,63.0
1122,232.5831006916667,233.32404168333335,69.0,98.0
1123,232.5831006916667,233.38382420833335,66.0,98.0
1124,233.01788269166667,233.64831659166668,57.0,84.0
1125,233.45266469166668,233.92730170833335,66.0,98.0
1126,233.45266469166668,233.94360603333334,62.0,98.0
1127,233.45266469166668,233.9635335416667,69.0,98.0
1128,234.1048376916667,234.15556225833333,69.0,80.0
1129,234.1048376916667,234.18273613333335,66.0,98.0
1130,234.1048376916667,234.20266364166667,62.0,75.0
1131,233.88744669166667,234.43817055833335,57.0,98.0
1132,234.32222869166668,234.59396744166668,62.0,98.0
1133,234.32222869166668,234.608460175,69.0,98.0
1134,234.32222869166668,234.6211413166667,66.0,98.0
1135,234.7570106916667,235.01969148333336,62.0,98.0
1136,234.7570106916667,235.0287494416667,69.0,98.0
1137,234.7570106916667,235.054111725,66.0,98.0
1138,234.7570106916667,235.24795203333335,57.0,98.0
1139,235.19179269166668,235.31860410833335,62.0,98.0
1140,235.19179269166668,235.37476345000002,69.0,98.0
1141,235.19179269166668,235.39287936666668,66.0,98.0
1142,235.40918369166667,235.651936975,57.0,98.0
1143,232.5831006916667,235.76606725000002,50.0,95.0
1144,235.6265746916667,236.05048714166668,69.0,98.0
1145,235.6265746916667,236.054110325,62.0,98.0
1146,235.6265746916667,236.06316828333334,66.0,98.0
1147,236.06135669166667,236.55229803333336,55.0,98.0
1148,236.06135669166667,236.56860235833335,59.0,98.0
1149,236.06135669166667,236.6465008,62.0,98.0
1150,236.71352969166668,236.83128315000002,62.0,47.0
1151,236.71352969166668,236.83309474166668,59.0,52.0
1152,236.06135669166667,236.8874424916667,43.0,98.0
1153,236.4961386916667,236.95447138333336,50.0,98.0
1154,236.93092069166667,236.96715252500002,55.0,98.0
1155,236.93092069166667,237.01063072500003,59.0,98.0
1156,236.93092069166667,237.0124423166667,62.0,98.0
1157,237.36570269166668,238.3385274166667,60.0,98.0
1158,237.36570269166668,238.510628625,67.0,98.0
1159,237.36570269166668,238.51787499166667,64.0,98.0
1160,238.23526669166668,238.71896166666667,55.0,82.0
1161,237.36570269166668,238.92185993333334,48.0,98.0
1162,238.88743969166669,238.98526564166667,55.0,98.0
1163,238.6700486916667,239.06497567500003,67.0,98.0
1164,238.6700486916667,239.07584522500002,64.0,98.0
1165,239.10483069166668,239.1682364,60.0,98.0
1166,239.5396126916667,240.0380303125,55.0,98.0
1167,239.5396126916667,240.28803018750003,59.0,98.0
1168,239.5396126916667,240.29683300000002,62.0,98.0
1169,239.96760781250003,240.349649875,50.0,77.0
1170,239.5396126916667,240.38662168750002,43.0,98.0
1171,240.39014281250002,240.46408643750001,62.0,98.0
1172,240.39014281250002,240.46584700000002,59.0,98.0
1173,240.81267781250003,241.7169956604167,60.0,98.0
1174,240.81267781250003,241.87150948750005,67.0,98.0
1175,240.81267781250003,241.90102336458338,64.0,98.0
1176,241.65449568541672,242.1180371666667,55.0,86.0
1177,240.81267781250003,242.35935651458337,48.0,98.0
1178,242.27949543541672,242.37324539791672,55.0,98.0
1179,242.0711621854167,242.48435646458339,64.0,98.0
1180,242.0711621854167,242.48609257500004,67.0,98.0
1181,242.4878286854167,242.5451203291667,60.0,98.0
1182,242.9044951854167,243.58505046875004,55.0,98.0
1183,242.9044951854167,243.60935601458337,59.0,98.0
1184,242.9044951854167,243.62498100833338,62.0,98.0
1185,242.9044951854167,243.70310597708337,43.0,96.0
1186,243.3211616854167,243.71178652916672,50.0,71.0
1187,243.7378281854167,243.80727260208337,59.0,98.0
1188,243.7378281854167,243.81942537500004,62.0,98.0
1189,244.1544946854167,245.02602211458338,60.0,98.0
1190,244.1544946854167,245.1909526041667,67.0,98.0
1191,244.1544946854167,245.2117859291667,64.0,98.0
1192,245.01560545208338,245.3992858541667,62.0,98.0
1193,244.9878276854167,245.57463300625005,55.0,98.0
1194,244.1544946854167,246.2326188541667,48.0,98.0
1195,246.04164670833336,246.34546603125003,55.0,98.0
1196,245.53123024583337,246.4409521041667,62.0,98.0
1197,246.86109082500005,246.95831300833336,31.0,88.0
1198,246.35588269375003,247.4305350416667,57.0,98.0
1199,246.83504916875003,248.04164590833338,55.0,98.0
1200,246.83678527916672,248.1961597354167,59.0,98.0
1201,246.85067416250004,248.21004861875005,62.0,98.0
1202,248.6961595354167,249.0242844041667,57.0,98.0
1203,248.97046498125005,249.25171486875004,59.0,94.0
1204,249.22914543333337,249.30727040208336,62.0,98.0
1205,248.37671521875004,251.3211584854167,55.0,98.0
1206,248.11456254583337,251.34720014166672,50.0,80.0
1207,250.19615893541672,251.35067236250003,69.0,88.0
1208,250.19442282500003,251.35935291458338,71.0,88.0
1209,250.19268671458337,251.36456124583339,74.0,91.0
1210,249.59546473125005,251.3732417979167,67.0,97.0
1211,247.82810432708337,251.4617834291667,43.0,82.0
