,start,end,pitch,velocity
0,49.703934768749995,49.924522518749995,72.0,86.0
1,49.95577245,50.2756246875,77.0,82.0
2,50.36937448125,50.48702128125,77.0,86.0
3,50.58260930625,51.2167990875,77.0,86.0
4,51.242534325,51.608342343749996,80.0,81.0
5,51.661651049999996,52.244370356249995,77.0,89.0
6,52.343634843749996,52.89510421875,77.0,86.0
7,52.9888540125,53.16164775,75.0,86.0
8,53.16716244375,53.4116472,72.0,85.0
9,53.4226765875,56.18553815625,77.0,87.0
10,56.47965515625,56.608331343749995,72.0,86.0
11,56.69105175,56.869360181249995,72.0,87.0
12,56.96127174375,57.52009404375,77.0,90.0
13,57.60281445,58.18185729375,80.0,86.0
14,58.2535483125,58.6359004125,87.0,87.0
15,58.72229728125,59.2645755,84.0,87.0
16,59.37303114375,59.94655929375,82.0,84.0
17,60.00905915625,60.18185289375,80.0,83.0
18,60.203911668749996,60.40244064375,77.0,87.0
19,60.448396425,63.2755960875,84.0,86.0
20,63.82155076875,64.04213851875,72.0,86.0
21,64.07338845,64.3932406875,77.0,82.0
22,64.48699048125,64.60463728124999,77.0,86.0
23,64.70022530625,65.33441508749999,77.0,86.0
24,65.36015032499999,65.72595834375,80.0,81.0
25,65.77926705,66.36198635625,77.0,89.0
26,66.46125084375,67.01272021875,77.0,86.0
27,67.1064700125,67.27926375,75.0,86.0
28,67.28477844375,67.5292632,72.0,85.0
29,67.54029258749999,70.30315415625,77.0,87.0
30,70.4079333375,70.53477129375,77.0,88.0
31,70.63219755,70.7829325125,77.0,89.0
32,70.85094706875,70.992490875,80.0,87.0
33,71.08256420625,71.66895997499999,84.0,87.0
34,71.75168038125,72.2902821375,84.0,87.0
35,72.389546625,72.70388416875,87.0,89.0
36,72.8343985875,73.404250275,82.0,89.0
37,73.49800006875,74.02373420625,82.0,87.0
38,74.14873393124999,74.31601297499999,80.0,86.0
39,74.3527776,74.54946834375,77.0,90.0
40,74.6174829,74.80314425625,84.0,82.0
41,74.81233541249999,75.036599625,87.0,87.0
42,75.01086438749999,77.301300525,84.0,83.0
43,77.47960895625,77.60093221875,84.0,87.0
44,77.69835847499999,77.87666690625,84.0,89.0
45,77.918946225,78.06049003125,87.0,86.0
46,78.14504866875,78.72041505,89.0,87.0
47,78.83806185,79.35460483125,89.0,90.0
48,79.46489870625,79.89136835625,87.0,88.0
49,79.9079124375,80.16710304375,84.0,84.0
50,80.13033841875,80.3527644,87.0,86.0
51,80.34541147499999,80.99798356875,84.0,80.0
52,81.2461447875,81.44099729999999,82.0,87.0
53,81.43915906875,81.6579085875,80.0,81.0
54,81.69099675,82.1799662625,82.0,86.0
55,82.3270247625,82.5402595875,84.0,88.0
56,82.5549654375,82.92077345625,87.0,90.0
57,83.01452325,83.26084623749999,89.0,88.0
58,83.23327276875,83.43547820625,87.0,90.0
59,83.463051675,84.49429940625,84.0,86.0
60,84.536578725,84.6468726,84.0,90.0
61,84.74062239375,84.90422497499999,84.0,87.0
62,84.95385721875,85.1137833375,87.0,86.0
63,85.19834197499999,85.79209066874999,89.0,87.0
64,85.874811075,86.5255449375,89.0,90.0
65,86.536574325,86.9703969,92.0,90.0
66,86.99061744375,87.8123068125,89.0,87.0
67,88.27737931875,88.4409819,87.0,87.0
68,88.477746525,88.65973141875,84.0,86.0
69,88.7167165875,89.24428895625,82.0,86.0
70,89.3490681375,89.53840595625,84.0,79.0
71,89.59539112499999,89.99612553749999,82.0,87.0
72,90.03656662499999,90.4814185875,80.0,86.0
73,90.49060974375,91.86560671875,77.0,88.0
74,92.02001814375,92.24060589375,84.0,85.0
75,92.26634113125,93.60089701874999,89.0,90.0
76,93.57516178125,93.77736721875,87.0,87.0
77,93.78472014375,93.99244027499999,84.0,86.0
78,94.02185197499999,94.330674825,89.0,92.0
79,94.4519980875,94.78287971249999,89.0,90.0
80,94.9078794375,95.095379025,89.0,93.0
81,95.3784666375,95.58986323124999,92.0,87.0
82,95.58251030625,95.78839220625,91.0,84.0
83,95.80309805625,96.81780170625,89.0,88.0
84,97.32515353125,97.57515298125,84.0,86.0
85,97.580667675,98.8931647875,89.0,91.0
86,98.87294424375,99.09720845625,87.0,85.0
87,99.080664375,99.35272259999999,84.0,81.0
88,99.34169321249999,99.66154544999999,89.0,88.0
89,99.771839325,99.86926558124999,89.0,86.0
90,99.98323591875,100.08617686875,89.0,86.0
91,100.2019854375,100.374779175,89.0,88.0
92,100.41705849374999,100.57882284374999,92.0,87.0
93,100.62661685625,100.82882229375,89.0,89.0
94,100.8563957625,100.9887484125,87.0,85.0
95,101.08617466874999,102.135451525,84.0,86.0
96,102.411377175,102.765080525,84.0,93.0
97,102.872487825,103.513227925,89.0,90.0
98,103.51878347499999,103.744709175,92.0,88.0
99,103.744709175,104.152116175,89.0,92.0
100,104.192856875,104.418782575,84.0,88.0
101,104.407671475,104.620634225,87.0,83.0
102,104.639152725,105.300263175,82.0,87.0
103,105.318781675,105.703966475,82.0,86.0
104,105.96119658125,106.17075494375,80.0,89.0
105,106.17075494375,106.35457806875,82.0,81.0
106,106.39685738749999,106.98876785,84.0,87.0
107,107.02001778125,107.29207600625,84.0,87.0
108,107.25531138125,107.66707518125,82.0,87.0
109,107.72038388749999,108.084353675,80.0,88.0
110,108.16523585,109.14868956875,84.0,87.0
111,109.70015894375,109.92074669375,84.0,85.0
112,109.94648193124999,111.28103781875,89.0,90.0
113,111.25530258124999,111.45750801874999,87.0,87.0
114,111.46486094375,111.672581075,84.0,86.0
115,111.701992775,112.01081562499999,89.0,92.0
116,112.13213888749999,112.4630205125,89.0,90.0
117,112.58802023749999,112.775519825,89.0,93.0
118,113.0586074375,113.27000403125,92.0,87.0
119,113.26265110624999,113.46853300625,91.0,84.0
120,113.48323885625,114.49794250625,89.0,88.0
121,115.00529433125,115.25529378125,84.0,86.0
122,115.260808475,116.5733055875,89.0,91.0
123,116.55308504375,116.77734925624999,87.0,85.0
124,116.760805175,117.0328634,84.0,81.0
125,117.0218340125,117.34168625,89.0,88.0
126,117.45198012499999,117.54940638125,89.0,86.0
127,117.66337671875,117.76631766874999,89.0,86.0
128,117.88212623749999,118.05491997499999,89.0,88.0
129,118.09719929375,118.25896364375,92.0,87.0
130,118.30675765625,118.50896309375,89.0,89.0
131,118.5365365625,118.66888921249999,87.0,85.0
132,118.76631546875,119.81043081874999,84.0,86.0
133,120.08432727499999,120.43542944375,84.0,93.0
134,120.54204685625,121.17807486875,89.0,90.0
135,121.1835895625,121.40785377499999,92.0,88.0
136,121.40785377499999,121.81226465,89.0,92.0
137,121.8527057375,122.07696994999999,84.0,88.0
138,122.0659405625,122.27733715625,87.0,83.0
139,122.29571946875,122.951968025,82.0,87.0
140,122.9703503375,123.3527024375,82.0,86.0
141,123.60821658124999,123.81777494375,80.0,89.0
142,123.81777494375,124.00159806875,82.0,81.0
143,124.0438773875,124.63578785,84.0,87.0
144,124.66703778125,124.93909600625,84.0,87.0
145,124.90233138125,125.31409518125,82.0,87.0
146,125.36740388749999,125.731373675,80.0,88.0
147,125.81225585,126.79570956875,84.0,87.0
148,126.6982833125,126.97585623124999,75.0,88.0
149,127.1210765,127.39681118749999,77.0,88.0
150,127.57144315625,128.054897975,82.0,89.0
151,128.2387211,128.47952939375,84.0,86.0
152,128.49055878125,128.91702843125,82.0,86.0
153,128.92070489374998,129.172542575,80.0,81.0
154,129.13761618125,129.3600421625,82.0,82.0
155,129.36188039375,132.45377301874998,77.0,85.0
156,162.7202635,162.94085124999998,72.0,86.0
157,162.97210118124997,163.29195341874998,77.0,82.0
158,163.38570321249998,163.50335001249996,77.0,86.0
159,163.59893803749998,164.23312781874998,77.0,86.0
160,164.25886305624996,164.62467107499998,80.0,81.0
161,164.67797978124997,165.26069908749997,77.0,89.0
162,165.35996357499997,165.91143294999998,77.0,86.0
163,166.00518274374997,166.17797648124997,75.0,86.0
164,166.18349117499997,166.42797593125,72.0,85.0
165,166.43900531874996,169.2018668875,77.0,87.0
166,169.49598388749996,169.62466007499998,72.0,86.0
167,169.70738048124997,169.88568891249997,72.0,87.0
168,169.97760047499997,170.53642277499998,77.0,90.0
169,170.61914318124997,171.19818602499998,80.0,86.0
170,171.26987704374997,171.65222914374996,87.0,87.0
171,171.73862601249996,172.28090423124996,84.0,87.0
172,172.38935987499997,172.96288802499998,82.0,84.0
173,173.02538788749996,173.19818162499996,80.0,83.0
174,173.22024039999997,173.41876937499998,77.0,87.0
175,173.46472515624998,176.29192481874998,84.0,86.0
176,176.83787949999999,177.05846724999998,72.0,86.0
177,177.08971718124997,177.40956941874998,77.0,82.0
178,177.50331921249997,177.6209660125,77.0,86.0
179,177.71655403749998,178.35074381874998,77.0,86.0
180,178.37647905625,178.74228707499998,80.0,81.0
181,178.79559578124997,179.37831508749997,77.0,89.0
182,179.47757957499996,180.02904894999998,77.0,86.0
183,180.12279874374997,180.29559248124997,75.0,86.0
184,180.30110717499997,180.54559193125,72.0,85.0
185,180.55662131875,183.3194828875,77.0,87.0
186,183.42426206874998,183.55110002499998,77.0,88.0
187,183.64852628124999,183.79926124374998,77.0,89.0
188,183.86727579999996,184.00881960624997,80.0,87.0
189,184.09889293749998,184.68528870625,84.0,87.0
190,184.76800911249998,185.30661086874997,84.0,87.0
191,185.40587535624996,185.72021289999998,87.0,89.0
192,185.85072731875,186.4225060645833,82.0,89.0
193,186.5166019145833,187.04427668124998,82.0,87.0
194,187.16973781458333,187.33763433124997,80.0,86.0
195,187.3745346645833,187.57195144791666,77.0,90.0
196,187.6402170645833,187.82656374791665,84.0,82.0
197,187.83578883124997,188.0608808645833,87.0,87.0
198,188.03505063125,190.33394139791665,84.0,83.0
199,190.5129080145833,190.63467911458332,84.0,87.0
200,190.73246499791665,190.9114316145833,84.0,89.0
201,190.95386699791663,191.09593328124998,87.0,86.0
202,191.18080404791664,191.75829426458333,89.0,87.0
203,191.87637533125,192.39482501458332,89.0,90.0
204,192.50552601458332,192.93356988124998,87.0,88.0
205,192.95017503124998,193.21032238125,84.0,84.0
206,193.17342204791666,193.3966690645833,87.0,86.0
207,193.38928899791665,194.0442699145833,84.0,80.0
208,194.2933471645833,194.48891893124997,82.0,87.0
209,194.4870739145833,194.70663089791665,80.0,81.0
210,194.73984119791666,195.23061563124998,82.0,86.0
211,195.37821696458332,195.59223889791664,84.0,88.0
212,195.60699903124998,195.97415734791664,87.0,90.0
213,196.06825319791665,196.31548543124998,89.0,88.0
214,196.28781018125,196.4907620145833,87.0,90.0
215,196.51843726458333,197.55349161458332,84.0,86.0
216,197.59592699791665,197.70662799791666,84.0,90.0
217,197.80072384791666,197.96493033124997,84.0,87.0
218,198.01474578124999,198.17526223124997,87.0,86.0
219,198.26013299791666,198.85607338124998,89.0,87.0
220,198.93909913124998,199.59223503124997,89.0,90.0
221,199.60330513124998,200.03872906458332,92.0,90.0
222,200.05902424791665,200.88374669791665,89.0,87.0
223,201.3505359145833,201.51471525624999,87.0,87.0
224,201.55147988125,201.733464775,84.0,86.0
225,201.79044994375,202.3180223125,82.0,86.0
226,202.42280149375,202.6121393125,84.0,79.0
227,202.66912448124998,203.06985889375,82.0,87.0
228,203.11029998125,203.55515194375,80.0,86.0
229,203.5643431,204.939340075,77.0,88.0
230,205.0937515,205.31433925,84.0,85.0
231,205.3400744875,206.674630375,89.0,90.0
232,206.6488951375,206.851100575,87.0,87.0
233,206.8584535,207.06617363125,84.0,86.0
234,207.09558533125,207.40440818125,89.0,92.0
235,207.52573144375,207.85661306875,89.0,90.0
236,207.98161279375,208.16911238125,89.0,93.0
237,208.45219999374999,208.6635965875,92.0,87.0
238,208.6562436625,208.86212556249998,91.0,84.0
239,208.8768314125,209.8915350625,89.0,88.0
240,210.3988868875,210.6488863375,84.0,86.0
241,210.65440103125,211.96689814375,89.0,91.0
242,211.9466776,212.1709418125,87.0,85.0
243,212.15439773125,212.42645595624998,84.0,81.0
244,212.41542656874998,212.73527880625,89.0,88.0
245,212.84557268125,212.9429989375,89.0,86.0
246,213.056969275,213.159910225,89.0,86.0
247,213.27571879375,213.44851253125,89.0,88.0
248,213.49079185,213.6525562,92.0,87.0
249,213.70035021249998,213.90255564999998,89.0,89.0
250,213.93012911875,214.06248176875,87.0,85.0
251,214.159908025,215.204023375,84.0,86.0
252,215.47791983125,215.82902199999998,84.0,93.0
253,215.9356394125,216.571667425,89.0,90.0
254,216.57718211875,216.80144633125,92.0,88.0
255,216.80144633125,217.20585720625,89.0,92.0
256,217.24629829375,217.47056250625,84.0,88.0
257,217.45953311875,217.6709297125,87.0,83.0
258,217.689312025,218.34556058125,82.0,87.0
259,218.36394289375,218.74629499374998,82.0,86.0
260,219.0018091375,219.2113675,80.0,89.0
261,219.2113675,219.395190625,82.0,81.0
262,219.43746994375,220.02938040625,84.0,87.0
263,220.0606303375,220.33268856249998,84.0,87.0
264,220.2959239375,220.70768773749998,82.0,87.0
265,220.76099644375,221.12496623125,80.0,88.0
266,221.20584840625,222.18930212499998,84.0,87.0
267,222.7407715,222.96135925,84.0,85.0
268,222.9870944875,224.321650375,89.0,90.0
269,224.2959151375,224.498120575,87.0,87.0
270,224.5054735,224.71319363125,84.0,86.0
271,224.74260533125,225.05142818125,89.0,92.0
272,225.17275144375,225.50363306875,89.0,90.0
273,225.62863279375,225.81613238125,89.0,93.0
274,226.09921999374998,226.3106165875,92.0,87.0
275,226.3032636625,226.50914556249998,91.0,84.0
276,226.5238514125,227.5385550625,89.0,88.0
277,228.0459068875,228.29590633749999,84.0,86.0
278,228.30142103125,229.61391814375,89.0,91.0
279,229.59369759999998,229.8179618125,87.0,85.0
280,229.80141773124998,230.07347595624998,84.0,81.0
281,230.06244656874998,230.38229880625,89.0,88.0
282,230.49259268125,230.5900189375,89.0,86.0
283,230.703989275,230.806930225,89.0,86.0
284,230.92290842916665,231.09633999583332,89.0,88.0
285,231.13877537916667,231.30113684583333,92.0,87.0
286,231.34910727916667,231.5520591125,89.0,89.0
287,231.5797343625,231.7125755625,87.0,85.0
288,231.81036144583334,232.8583309125,84.0,86.0
289,233.13323839583333,233.48563657916665,84.0,93.0
290,233.59264754583333,234.23102331249999,89.0,90.0
291,234.2365583625,234.46165039583335,92.0,88.0
292,234.46165039583335,234.8675540625,89.0,92.0
293,234.90814442916667,235.1332364625,84.0,88.0
294,235.1221663625,235.33434327916666,87.0,83.0
295,235.35279344583333,236.01146439583334,82.0,87.0
296,236.0299145625,236.41367802916668,82.0,86.0
297,236.67013534583333,236.88046724583333,80.0,89.0
298,236.88046724583333,237.0649689125,82.0,81.0
299,237.10740429583333,237.7014996625,84.0,87.0
300,237.73286494583334,238.0059274125,84.0,87.0
301,237.96902707916666,238.3823108125,82.0,87.0
302,238.43581629583332,238.80112959583334,80.0,88.0
303,238.88231032916667,239.86939424583335,84.0,87.0
304,239.7716083625,240.05020587916667,75.0,88.0
305,240.19596219583335,240.47271469583333,77.0,88.0
306,240.64799127916666,241.1332306625,82.0,89.0
307,241.31773232916666,241.5594295125,84.0,86.0
308,241.5704996125,241.99854347916667,82.0,86.0
309,242.0022335125,242.25500079583333,80.0,81.0
310,242.21994547916665,242.44319249583333,82.0,82.0
311,242.4450375125,245.5446655125,77.0,85.0
312,245.73654724583332,245.95794924583333,84.0,85.0
313,245.98377947916666,247.31966530833333,89.0,90.0
314,247.2939300708333,247.49613550833334,87.0,87.0
315,247.50348843333333,247.71120856458333,84.0,86.0
316,247.74062026458333,248.0494431145833,89.0,92.0
317,248.17076637708334,248.50164800208333,89.0,90.0
318,248.62664772708334,248.81414731458332,89.0,93.0
319,249.09723492708332,249.30863152083333,92.0,87.0
320,249.30127859583334,249.50716049583332,91.0,84.0
321,249.52186634583333,250.53656999583333,89.0,88.0
322,251.04392182083333,251.29392127083332,84.0,86.0
323,251.29943596458332,252.61193307708334,89.0,91.0
324,252.59171253333332,252.81597674583332,87.0,85.0
325,252.79943266458332,253.07149088958332,84.0,81.0
326,253.0604615020833,253.38031373958333,89.0,88.0
327,253.49060761458333,253.58803387083333,89.0,86.0
328,253.70200420833334,253.80494515833334,89.0,86.0
329,253.92075372708334,254.09354746458334,89.0,88.0
330,254.13582678333333,254.29759113333333,92.0,87.0
331,254.34538514583332,254.54759058333332,89.0,89.0
332,254.57516405208332,254.70751670208332,87.0,85.0
333,254.80494295833333,255.84905830833333,84.0,86.0
334,256.1229547645833,256.4740569333333,84.0,93.0
335,256.5806743458333,257.21670235833335,89.0,90.0
336,257.22221705208335,257.4464812645833,92.0,88.0
337,257.4464812645833,257.8508921395833,89.0,92.0
338,257.89133322708335,258.1155974395833,84.0,88.0
339,258.1045680520833,258.31596464583333,87.0,83.0
340,258.3343469583333,258.99059551458333,82.0,87.0
341,259.0089778270833,259.39132992708335,82.0,86.0
342,259.6468440708333,259.8564024333333,80.0,89.0
343,259.8564024333333,260.0402255583333,82.0,81.0
344,260.08250487708335,260.67441533958333,84.0,87.0
345,260.7056652708333,260.97772349583335,84.0,87.0
346,260.9409588708333,261.3527226708333,82.0,87.0
347,261.4060313770833,261.77000116458333,80.0,88.0
348,261.85088333958333,262.83433705833335,84.0,87.0
349,263.3858064333333,263.60639418333335,84.0,85.0
350,263.63212942083334,264.96668530833335,89.0,90.0
351,264.9409500708333,265.14315550833334,87.0,87.0
352,265.1505084333333,265.3582285645833,84.0,86.0
353,265.3876402645833,265.6964631145833,89.0,92.0
354,265.81778637708334,266.14866800208335,89.0,90.0
355,266.2736677270833,266.46116731458335,89.0,93.0
356,266.7442549270833,266.9556515208333,92.0,87.0
357,266.9482985958333,267.1541804958333,91.0,84.0
358,267.1688863458333,268.1835899958333,89.0,88.0
359,268.6909418208333,268.9409412708333,84.0,86.0
360,268.9464559645833,270.25895307708333,89.0,91.0
361,270.23873253333335,270.4629967458333,87.0,85.0
362,270.4464526645833,270.71851088958334,84.0,81.0
363,270.70748150208334,271.02733373958336,89.0,88.0
364,271.1376276145833,271.2350538708333,89.0,86.0
365,271.34902420833333,271.45196515833334,89.0,86.0
366,271.5677737270833,271.7405674645833,89.0,88.0
367,271.7828467833333,271.9446111333333,92.0,87.0
368,271.99240514583335,272.1946105833333,89.0,89.0
369,272.2221840520833,272.35453670208335,87.0,85.0
370,272.4519629583333,273.4960783083333,84.0,86.0
371,273.7699747645833,274.1210769333333,84.0,93.0
372,274.2276943458333,274.86372235833335,89.0,90.0
373,274.86923705208335,275.0935012645833,92.0,88.0
374,275.0935012645833,275.49802070625,89.0,92.0
375,275.53861107291664,275.76370310625,84.0,88.0
376,275.75263300624994,275.96480992291663,87.0,83.0
377,275.98326008958327,276.6419310395833,82.0,87.0
378,276.66038120624995,277.0441446729166,82.0,86.0
379,277.3006019895833,277.51093388958327,80.0,89.0
380,277.51093388958327,277.69543555624995,82.0,81.0
381,277.7378709395833,278.33196630624997,84.0,87.0
382,278.3633315895833,278.63639405624997,84.0,87.0
383,278.59949372291663,279.01277745625,82.0,87.0
384,279.0662829395833,279.4315962395833,80.0,88.0
385,279.51277697291664,280.4998608895833,84.0,87.0
386,280.40207500624996,280.6806725229166,75.0,88.0
387,280.8264288395833,281.1031813395833,77.0,88.0
388,281.27845792291663,281.76369730625,82.0,89.0
389,281.94819897291666,282.18989615625,84.0,86.0
390,282.20096625624996,282.6290101229166,82.0,86.0
391,282.63270015624994,282.8854674395833,80.0,81.0
392,282.8504121229166,283.0736591395833,82.0,82.0
393,283.07550415624996,285.1825131895833,77.0,85.0
394,285.4629557229166,285.7950587229166,72.0,88.0
395,285.7415532395833,286.16590707291664,75.0,87.0
396,286.16037202291665,286.57550077291666,77.0,87.0
397,286.6474564229166,286.95741922291666,82.0,87.0
398,287.0976404895833,287.3227325229166,82.0,86.0
399,287.3079723895833,287.56811973958327,84.0,82.0
400,287.53121940625,287.7175660895833,82.0,90.0
401,287.72494615625,287.97402340624996,80.0,84.0
402,287.9445031395833,288.18989035625,82.0,80.0
403,288.15668005624997,288.34487175625,80.0,79.0
404,288.3651669395833,289.97586648958327,77.0,88.0
405,290.1197777895833,290.6566776395833,82.0,86.0
406,290.78029375625,291.04413113958327,84.0,86.0
407,291.0109208395833,291.24154792291665,82.0,82.0
408,291.2194077229166,291.3873042395833,80.0,85.0
409,291.45003480624996,291.58103098958327,82.0,82.0
410,291.5699608895833,291.6751268395833,80.0,75.0
411,291.66221172291665,291.8780786729166,77.0,86.0
412,291.95925940624994,293.55335380624996,77.0,86.0
413,293.68804002291665,294.1253089729166,82.0,82.0
414,294.3208807395833,294.59394320624995,84.0,82.0
415,294.57733805624997,294.77659985624996,82.0,81.0
416,294.7581496895833,294.95925650625,80.0,77.0
417,294.98693175625,295.14191315625,82.0,76.0
418,295.09763275624994,295.19357362291663,80.0,79.0
419,295.1788134895833,295.3670051895833,77.0,85.0
420,295.4813962229166,296.93526935625,77.0,86.0
421,297.19541670624994,297.71017635625,82.0,80.0
422,297.86146772291664,298.1437552729166,84.0,81.0
423,298.1013198895833,298.2950466395833,82.0,82.0
424,298.2839765395833,298.44633800624996,80.0,80.0
425,298.50906857291665,298.6363747229166,82.0,86.0
426,298.6086994729166,298.7194004729166,80.0,77.0
427,298.71755545624995,298.8762268895833,77.0,83.0
428,299.00722307291664,300.7083284395833,77.0,84.0
