,start,end,pitch,velocity
0,2.20036280625,2.6966852437499997,60.0,76.0
1,2.60293545,2.88418483125,53.0,76.0
2,2.43565640625,2.89521421875,65.0,80.0
3,1.9411722,3.01469925,48.0,70.0
4,1.3860263625,3.0827138062499997,41.0,88.0
5,2.8198467375,3.1470518999999997,60.0,75.0
6,3.09374319375,3.4154336625,65.0,79.0
7,3.7610211375,3.96138834375,56.0,64.0
8,4.11947623125,4.31432874375,65.0,78.0
9,4.28859350625,4.64521036875,72.0,82.0
10,4.45587255,4.659916218749999,65.0,86.0
11,4.6286662875,5.02020954375,77.0,86.0
12,4.81800410625,5.14153280625,65.0,76.0
13,4.9963125375,5.3014589249999995,72.0,58.0
14,3.9227854874999997,5.4209439562499995,60.0,75.0
15,5.2242532125,5.44300273125,77.0,75.0
16,5.7830755125,6.15991291875,77.0,72.0
17,6.25917740625,6.6782941312499995,77.0,73.0
18,6.03858965625,6.73711753125,84.0,73.0
19,6.5845443375,7.01285221875,89.0,78.0
20,6.88785249375,7.66726254375,77.0,72.0
21,7.238954662499999,8.139687975,84.0,47.0
22,7.6764537,8.14520266875,89.0,44.0
23,5.4760908937499995,8.6470398,60.0,66.0
24,3.4999922999999997,8.74446605625,53.0,67.0
25,8.0183647125,8.75549544375,77.0,61.0
26,8.85475993125,9.2242444125,89.0,45.0
27,8.42645205,9.22975910625,84.0,45.0
28,9.38049406875,9.50549379375,41.0,73.0
29,10.27755091875,10.5624767625,65.0,77.0
30,10.5257121375,10.76652043125,67.0,57.0
31,12.07901754375,12.39886978125,70.0,75.0
32,12.31431114375,12.567987056249999,72.0,81.0
33,12.588207599999999,12.73710433125,75.0,86.0
34,12.917250993749999,13.4411469,77.0,82.0
35,13.85842539375,14.41724769375,79.0,69.0
36,14.24445395625,14.567982656249999,77.0,72.0
37,14.566144425,14.860261425,75.0,59.0
38,14.937467137499999,15.13231965,77.0,58.0
39,10.0771837125,15.430113112499999,60.0,72.0
40,15.71136249375,16.76650723125,56.0,54.0
41,15.92459731875,16.81062478125,60.0,61.0
42,9.84372834375,16.93930096875,53.0,77.0
43,16.3712875125,18.4227535875,77.0,81.0
44,16.1433468375,18.452165287499998,68.0,58.0
45,16.03489119375,18.4668711375,65.0,67.0
46,16.2021702375,18.472385831249998,72.0,69.0
47,19.14150200625,19.904367975,53.0,63.0
48,18.90253194375,19.939294368749998,48.0,60.0
49,18.619444331249998,19.99076484375,41.0,84.0
50,20.805101287499998,21.25179148125,60.0,59.0
51,20.88782169375,21.2940708,65.0,76.0
52,22.1139219375,22.24075989375,60.0,71.0
53,22.19664234375,22.2977450625,65.0,84.0
54,22.275686287499997,22.435612406249998,72.0,84.0
55,22.70399416875,22.893331987499998,72.0,72.0
56,22.7058324,22.904361375,77.0,78.0
57,23.060611031249998,23.2536253125,72.0,72.0
58,23.077155112499998,23.3124487125,80.0,80.0
59,23.66722734375,23.80325645625,72.0,57.0
60,23.727888975,23.8345063875,77.0,80.0
61,23.7903888375,23.922741487499998,84.0,85.0
62,22.018333912499997,25.0845036375,53.0,77.0
63,26.953984818749998,27.248101818749998,53.0,78.0
64,27.183763725,27.62310099375,60.0,78.0
65,27.37677800625,27.639645075,53.0,79.0
66,27.591851062499998,27.830821125,56.0,74.0
67,27.78854180625,28.0293501,53.0,80.0
68,28.21133499375,28.536701925,53.0,76.0
69,28.00912955625,28.755451443749998,65.0,84.0
70,28.474202062499998,28.7977307625,56.0,68.0
71,28.6874368875,29.0550831375,53.0,73.0
72,26.70398536875,29.51647918125,48.0,62.0
73,26.406191906249997,29.527508568749997,41.0,56.0
74,29.06059783125,29.7352287,65.0,41.0
75,29.28486204375,29.8124344125,53.0,62.0
76,30.58265330625,31.54404825,53.0,61.0
77,31.47971015625,31.7609595375,56.0,76.0
78,31.124931524999997,31.81426824375,60.0,70.0
79,30.25177168125,31.896988649999997,48.0,48.0
80,31.806915318749997,31.948459125,65.0,87.0
81,29.86574311875,31.953973818749997,41.0,30.0
82,32.17823803125,32.920883456249996,60.0,78.0
83,32.533016662499996,33.17088290625,65.0,82.0
84,33.66720534375,35.08264340625,65.0,74.0
85,33.29588263125,35.463157275,60.0,67.0
86,32.9153687625,35.521980675,53.0,68.0
87,34.86205565625,35.69661264375,77.0,64.0
88,34.41352723125,35.73705373125,68.0,71.0
89,33.99808696875,35.757274275,72.0,80.0
90,35.29587823125,35.77381835625,65.0,73.0
91,36.176390999999995,37.8712402125,53.0,65.0
92,36.374919975,39.08263460625,58.0,62.0
93,36.5477137125,39.286678275,61.0,65.0
94,36.72602214375,39.389619225,65.0,60.0
95,37.038521456249995,39.396972149999996,70.0,34.0
96,39.270134193749996,40.5550578375,58.0,60.0
97,38.950281956249995,42.759097106249996,53.0,71.0
98,40.80689551875,42.77012649375,58.0,69.0
99,39.964985606249996,42.771964725,61.0,75.0
100,39.60836874375,42.77747941875,65.0,66.0
101,35.92087685625,42.792185268749996,46.0,68.0
102,40.3712347125,42.812405812499996,70.0,67.0
103,43.327110562499996,44.03482959375,53.0,78.0
104,43.547698312499996,44.049535443749996,56.0,81.0
105,43.988873812499996,44.33262305625,60.0,80.0
106,44.209461562499996,44.51644618125,56.0,81.0
107,43.106522812499996,44.5182844125,48.0,71.0
108,42.885935062499996,44.5624019625,41.0,86.0
109,44.430049312499996,44.69291638125,53.0,80.0
110,44.650637062499996,44.7021075375,60.0,56.0
111,44.650637062499996,44.744386856249996,56.0,64.0
112,44.650637062499996,44.904312974999996,65.0,83.0
113,45.091812562499996,45.2315181375,68.0,80.0
114,45.312400312499996,45.53114983125,63.0,77.0
115,45.753575812499996,45.83813445,65.0,86.0
116,44.871224812499996,46.1175456,48.0,75.0
117,44.650637062499996,46.18556015625,41.0,87.0
118,46.856514562499996,47.44291033125,53.0,80.0
119,47.077102312499996,47.72232148125,60.0,81.0
120,46.635926812499996,47.93555630625,48.0,70.0
121,47.518277812499996,47.9373945375,65.0,87.0
122,46.415339062499996,48.021953175,41.0,87.0
123,47.738865562499996,48.03849725625,53.0,82.0
124,47.959453312499996,48.200261606249995,60.0,77.0
125,48.621216562499995,48.72967220625,68.0,81.0
126,48.841804312499995,49.01459805,63.0,79.0
127,49.282979812499995,49.422685387499996,65.0,78.0
128,49.503567562499995,49.896949049999996,60.0,72.0
129,48.400628812499995,49.9594489125,48.0,74.0
130,48.180041062499996,49.97966945625,41.0,87.0
131,49.917169593749996,49.97966945625,41.0,88.0
132,49.838125649999995,50.42819788125,53.0,79.0
133,49.896949049999996,50.463124275,56.0,75.0
134,49.933713675,50.492535974999996,60.0,72.0
135,50.78849120625,51.404298675,60.0,80.0
136,51.5035631625,51.608342343749996,53.0,71.0
137,51.56054833125,51.6800333625,56.0,73.0
138,51.6138570375,51.727827375,60.0,79.0
139,51.67819513125,51.96128274375,65.0,88.0
140,52.5550314375,53.07157441875,60.0,80.0
141,50.325256931249996,53.17451536875,48.0,67.0
142,53.39694135,53.69657304375,53.0,73.0
143,53.46127944375,54.3932626875,65.0,79.0
144,53.43554420625,54.4447331625,60.0,78.0
145,54.2976746625,54.82157056875,53.0,84.0
146,53.4410589,55.104658181249995,41.0,87.0
147,53.8785579375,55.1064964125,48.0,70.0
148,54.770100093749996,55.301348925,56.0,69.0
149,55.211275593749995,56.10281775,53.0,82.0
150,56.080758974999995,56.22230278125,56.0,74.0
151,56.066053124999996,56.268258562499994,60.0,76.0
152,55.6506128625,56.6506106625,48.0,63.0
153,55.22046675,56.77009569375,41.0,81.0
154,56.80686031875,57.0182569125,53.0,70.0
155,56.8638454875,57.066050925,56.0,77.0
156,56.92450711875,57.5182558125,60.0,73.0
157,56.9667864375,57.92082845625,65.0,87.0
158,57.3711973125,57.92818138125,48.0,66.0
159,56.93921296875,57.952078387499995,41.0,86.0
160,57.83259335625,57.9741371625,53.0,78.0
161,58.60097401875,59.213105025,58.0,62.0
162,58.6653121125,59.57156011875,61.0,74.0
163,59.52744256875,59.65244229375,58.0,81.0
164,58.6763415,59.74803031875,46.0,84.0
165,59.10464938125,59.77376555625,53.0,73.0
166,60.350970168749996,60.7939839,60.0,66.0
167,60.431852343749995,61.41714429375,63.0,77.0
168,60.4888375125,61.4373648375,67.0,76.0
169,61.354644431249994,61.8785403375,60.0,88.0
170,61.793981699999996,62.35831869375,67.0,87.0
171,60.91714539375,62.70758263125,55.0,67.0
172,62.2535395125,63.1763316,63.0,81.0
173,63.13405228125,63.32155186875,55.0,68.0
174,62.691038549999995,63.36934588125,60.0,73.0
175,60.4667787375,63.39508111875,48.0,87.0
176,63.904271175,64.6064755125,60.0,74.0
177,64.01456505,64.93368067499999,65.0,82.0
178,64.9226512875,65.624855625,60.0,90.0
179,65.345444475,65.845443375,65.0,90.0
180,65.81419344375,66.3123541125,68.0,87.0
181,66.2388248625,66.54213301875,65.0,78.0
182,64.45390231875,67.1873521875,48.0,68.0
183,64.00905035625,67.20573449999999,41.0,88.0
184,66.68551505625,67.389557625,63.0,90.0
185,67.4888221125,68.06786495624999,61.0,71.0
186,67.5623513625,68.904260175,65.0,84.0
187,68.433672975,68.98330411875,61.0,87.0
188,68.8822014,69.37117091249999,68.0,84.0
189,69.31418574375,69.74433185625,65.0,87.0
190,69.73146423749999,70.1358751125,63.0,83.0
191,67.9741151625,70.139551575,56.0,74.0
192,67.56418959375,70.31418354374999,49.0,87.0
193,70.1763162,70.59359469374999,60.0,75.0
194,70.5917564625,70.75535904374999,58.0,77.0
195,71.04579958125,71.610136575,56.0,74.0
196,71.04212311875,71.95756228124999,60.0,79.0
197,71.91160649999999,72.24984105,56.0,87.0
198,71.0329319625,72.31785560624999,44.0,86.0
199,71.44285753125,72.34359084375,51.0,76.0
200,72.70388416875,73.4226325875,58.0,72.0
201,72.7829281125,73.69652904375,61.0,81.0
202,73.6726320375,73.78844060624999,58.0,87.0
203,72.7976339625,73.9410138,46.0,87.0
204,73.22961830625,73.97042549999999,53.0,79.0
205,74.52373310624999,75.139540575,60.0,74.0
206,74.5917476625,75.53843675625,63.0,86.0
207,75.47593689375,76.00167103125,60.0,88.0
208,75.90240654375,76.13770014375,63.0,88.0
209,74.62299759375,76.1799794625,67.0,69.0
210,76.213067625,76.36747905,60.0,77.0
211,76.2902733375,76.38402313125,63.0,81.0
212,76.33806735,76.43181714375,67.0,57.0
213,76.3932142875,76.8417427125,72.0,88.0
214,76.79946339375,77.10277155,70.0,89.0
215,75.03108493124999,77.40424147499999,55.0,76.0
216,74.60277705,77.60828514375,48.0,87.0
217,77.25718297499999,77.6358586125,67.0,88.0
218,78.14137220625,78.43365097499999,65.0,86.0
219,78.13769574375,78.50166553125,68.0,80.0
220,78.58070947499999,79.198355175,48.0,79.0
221,78.15240159375,79.21857571875,41.0,89.0
222,79.00901735625,79.2387962625,53.0,87.0
223,79.01637028124999,79.2608550375,56.0,87.0
224,79.00901735625,79.30864905,60.0,87.0
225,79.83254495625,80.48511705,60.0,77.0
226,79.86563311875,80.6064403125,63.0,82.0
227,79.92629475,80.8049692875,67.0,76.0
228,80.301293925,80.96121894375,55.0,75.0
229,80.75166058125,80.99798356875,60.0,90.0
230,79.88033896875,81.07335105,48.0,87.0
231,81.5549676375,81.73327606875,58.0,76.0
232,81.6174675,82.51452435,61.0,75.0
233,81.6873202875,82.5990829875,65.0,83.0
234,82.07334885,82.69283278124999,53.0,78.0
235,81.65974681875,82.8417295125,46.0,86.0
236,82.52739196875,83.07886134374999,58.0,91.0
237,82.96121454375,83.10092011875,61.0,87.0
238,83.42077235625,84.09724145625,56.0,82.0
239,83.4152576625,84.14503546875,60.0,84.0
240,83.8527567,84.52371110624999,51.0,77.0
241,84.29025573749999,84.53841695625,63.0,84.0
242,84.286579275,84.54393164999999,56.0,86.0
243,84.29209396875,84.5476081125,60.0,87.0
244,83.40239004375,84.58621096875,44.0,86.0
245,85.168930275,85.79209066874999,56.0,80.0
246,85.16341558124999,86.08988413125,60.0,81.0
247,85.17076850625,86.1174576,65.0,87.0
248,85.1762832,86.22591324375,41.0,87.0
249,85.59356169374999,86.2314279375,48.0,73.0
250,86.03841365625,86.57885364375,56.0,90.0
251,86.48510385,86.64502996875,60.0,87.0
252,86.9373087375,87.19282288125,56.0,82.0
253,86.93547050625,87.6064249125,61.0,80.0
254,86.933632275,87.93914476875,49.0,87.0
255,87.38032246875,87.97958585625,56.0,84.0
256,87.82885089375,87.99245347499999,61.0,86.0
257,87.8343655875,88.0549533375,65.0,86.0
258,88.6284814875,89.830684725,62.0,73.0
259,88.5696580875,89.85090526875,58.0,70.0
260,88.72774597499999,89.89686105,65.0,80.0
261,88.77737821875,89.9078904375,70.0,82.0
262,88.72958420625,89.99612553749999,46.0,87.0
263,90.43730103749999,91.38399013125,60.0,70.0
264,90.49428620625,91.44097529999999,65.0,80.0
265,91.3784754375,91.86928318125,68.0,85.0
266,90.92810878125,91.918915425,48.0,74.0
267,90.52002144375,91.9667094375,41.0,88.0
268,91.81045978125,92.0770033125,60.0,95.0
269,92.21854711875,92.42075255625,60.0,87.0
270,92.22038535,92.5292082,65.0,91.0
271,92.63398738125,92.71854601874999,65.0,63.0
272,92.6652373125,92.8122958125,60.0,78.0
273,92.22590004375,92.99244247499999,41.0,97.0
274,93.13398628125,93.33619171875,60.0,91.0
275,93.13766274375,93.41891212499999,65.0,103.0
276,93.1358245125,93.63398518125,68.0,88.0
277,93.56597062499999,93.86927878125,60.0,86.0
278,93.77920544999999,93.87295524375,65.0,86.0
279,94.0108225875,94.213028025,60.0,86.0
280,94.01266081874999,94.49060094375,65.0,88.0
281,94.0034696625,94.492439175,68.0,86.0
282,94.43361577499999,94.62295359375,60.0,84.0
283,94.00898435625,95.007143925,53.0,97.0
284,94.9005265125,95.04942324375,60.0,89.0
285,94.9078794375,95.11559956875,65.0,100.0
286,95.10089371875,95.18912881874999,53.0,90.0
287,94.90604120625,95.25162868125,68.0,89.0
288,95.37295194375,95.4152312625,68.0,58.0
289,95.34537847499999,95.62295139375,60.0,93.0
290,95.58618676875,95.7167011875,65.0,83.0
291,95.7939069,96.06045043124999,61.0,80.0
292,95.80309805625,96.10089151875,65.0,88.0
293,96.22772947499999,96.50530239375,61.0,88.0
294,96.45750838125,96.53839055625,65.0,87.0
295,96.0328769625,96.75530184374999,56.0,80.0
296,96.6725814375,96.94647789375,61.0,87.0
297,95.79758336249999,96.9519925875,49.0,89.0
298,96.87294864375,97.02368360625,56.0,85.0
299,96.66890497499999,97.04574238125,65.0,100.0
300,96.67074320625,97.0769923125,68.0,90.0
301,97.1137569375,97.2093449625,49.0,88.0
302,97.565961825,97.75162318125,60.0,86.0
303,97.56412359375,98.00346086249999,65.0,86.0
304,97.99794616874999,98.31044548125,60.0,84.0
305,98.21485745625,98.33801894999999,65.0,86.0
306,98.44279813125,98.67257703749999,69.0,100.0
307,98.6505182625,98.83801785,65.0,88.0
308,97.77919665,98.98507635,48.0,83.0
309,97.56780005625,99.08250260625,41.0,88.0
310,98.87662070625,99.1762524,60.0,87.0
311,99.31044328125,99.73323646875,60.0,87.0
312,99.3049285875,99.89132435625,65.0,88.0
313,99.7387511625,100.24794121875,48.0,78.0
314,100.19095605,100.3784556375,60.0,88.0
315,99.3122815125,100.45198488749999,41.0,91.0
316,100.1872795875,100.4740436625,65.0,93.0
317,100.3784556375,100.49426420625,48.0,87.0
318,100.18360312499999,100.63029331874999,69.0,88.0
319,100.61926393125,100.76999889375,60.0,91.0
320,101.0990422875,101.566933575,60.0,88.0
321,101.10088051875,101.631748325,63.0,87.0
322,101.739155625,101.902118425,60.0,87.0
323,101.541007675,102.070636775,55.0,80.0
324,102.17248852499999,102.361377225,55.0,82.0
325,101.0880129,102.370636475,48.0,88.0
326,101.976192425,102.403969775,67.0,90.0
327,102.398414225,102.726191675,63.0,82.0
328,102.85026562499999,103.174339375,60.0,85.0
329,102.844710075,103.544709375,65.0,86.0
330,103.285450375,103.942857125,48.0,30.0
331,103.726190675,104.059523675,60.0,87.0
332,103.72804252499999,104.18730132499999,65.0,91.0
333,102.842858225,104.209523525,41.0,90.0
334,103.733598075,104.209523525,68.0,86.0
335,104.15581987499999,104.24656052499999,48.0,92.0
336,104.613226825,104.859522875,58.0,79.0
337,104.60581942499999,105.007670875,61.0,82.0
338,105.035448625,105.315077975,58.0,81.0
339,105.24285582499999,105.400263075,61.0,85.0
340,104.829893275,105.650262825,53.0,79.0
341,105.474337075,105.89841072499999,65.0,88.0
342,105.663225775,105.933595875,61.0,86.0
343,104.61507867499999,106.040240525,46.0,86.0
344,105.92063292499999,106.07516691875,58.0,82.0
345,106.40972500625,106.63398921875,56.0,82.0
346,106.40972500625,106.81781234374999,60.0,82.0
347,106.83251819374999,107.15788512499999,56.0,87.0
348,107.05126771249999,107.260826075,63.0,83.0
349,107.26634076875,107.52001668125,68.0,87.0
350,106.62295983125,107.71854565625,51.0,77.0
351,106.41156323749999,107.76082497499999,44.0,87.0
352,107.47222266874999,107.76633966874999,63.0,87.0
353,107.70383980625,107.95383925624999,60.0,82.0
354,107.922589325,107.996118575,56.0,86.0
355,108.15604469374999,108.42994114999999,60.0,85.0
356,108.157882925,108.65972005625,63.0,86.0
357,108.81413148125,108.92258712499999,60.0,87.0
358,108.60273488749999,109.1027337875,55.0,85.0
359,109.04942508124999,109.30310099375,60.0,91.0
360,108.143177075,109.30677745625,48.0,88.0
361,109.03839569374999,109.34354208124999,63.0,93.0
362,109.24795405625,109.3894978625,55.0,92.0
363,109.03839569374999,109.41707133125,67.0,91.0
364,109.49427704375,109.599056225,48.0,88.0
365,109.93545254375,110.07515811875,65.0,88.0
366,109.937290775,110.10640805,60.0,87.0
367,110.3894956625,110.7056714375,53.0,88.0
368,110.584348175,110.71486259375,56.0,86.0
369,110.8306711625,111.10640585,60.0,85.0
370,111.0292001375,111.216699725,56.0,88.0
371,110.15604029375,111.54941958124999,48.0,85.0
372,109.9336143125,111.57699305,41.0,92.0
373,111.2424349625,111.5806695125,53.0,95.0
374,111.44647863125,111.75346325,56.0,87.0
375,112.11743303749999,112.46853520625,60.0,84.0
376,111.67809576875,112.47956459375,65.0,92.0
377,112.3747854125,112.6468436375,53.0,90.0
378,111.88765413125,112.68544649374999,48.0,87.0
379,112.57882908124999,112.8306667625,56.0,89.0
380,112.7791962875,112.937284175,53.0,92.0
381,111.6836104625,113.0733132875,41.0,88.0
382,113.01632811875,113.11559260625,48.0,92.0
383,113.45015069375,113.599047425,56.0,80.0
384,113.46118008124999,113.85088510624999,65.0,87.0
385,113.687282525,113.95382605625,56.0,83.0
386,113.88029680625,114.1247815625,61.0,85.0
387,114.10823748125,114.38397216874999,65.0,89.0
388,114.33985461875,114.5328689,61.0,91.0
389,113.466694775,114.78838304375,49.0,92.0
390,114.54206005625,114.81963297499999,56.0,89.0
391,114.77735365625,114.88764753125,61.0,87.0
392,115.2424261625,115.5733077875,60.0,84.0
393,115.24058793124999,115.58066071249999,65.0,87.0
394,115.68543989375,116.26264450625,48.0,82.0
395,116.10823308124999,116.33985021875,60.0,84.0
396,115.2387497,116.5659526625,41.0,92.0
397,116.10823308124999,116.60087905625,65.0,87.0
398,116.11558600625,116.80676095625,69.0,88.0
399,116.5328645,116.81227565,60.0,81.0
400,116.98690761875,117.216686525,60.0,86.0
401,116.99058408124999,117.49793590624999,65.0,88.0
402,116.98874585,117.51999468125,69.0,86.0
403,117.3894802625,117.613744475,60.0,86.0
404,116.9850693875,117.92992025,41.0,84.0
405,117.863743925,118.03837589375,65.0,86.0
406,117.8600674625,118.069625825,60.0,85.0
407,117.85822923125,118.069625825,69.0,78.0
408,118.64315397499999,118.82881533125,60.0,73.0
409,118.701977375,119.04940308124999,63.0,76.0
410,118.76999193124999,119.0916824,67.0,75.0
411,119.2056527375,119.76263680625,60.0,87.0
412,119.4115346375,119.7938867375,63.0,81.0
413,118.97219736875,119.83984251875,55.0,73.0
414,119.672563475,119.96116578125,72.0,86.0
415,118.74058023125,119.98690101874999,48.0,87.0
416,120.951972425,121.13028085625,53.0,87.0
417,121.14866316874999,121.26998643125,55.0,87.0
418,121.3747656125,121.7056472375,56.0,87.0
419,120.73689936875,121.81410288125,48.0,78.0
420,121.599029825,121.8674115875,60.0,87.0
421,120.53469393124999,121.90601444375,41.0,91.0
422,122.054911175,122.2571166125,56.0,86.0
423,121.82513226875,122.37292518125,65.0,86.0
424,122.70748326875,122.996085575,58.0,82.0
425,122.91336516875,123.04755605,61.0,79.0
426,123.16704108125,123.76998093124999,58.0,85.0
427,123.16336461875,123.7718191625,61.0,87.0
428,123.16520285,123.77733385625,65.0,88.0
429,122.49424844375,123.87108365,53.0,79.0
430,122.27733715625,123.88762773124999,46.0,87.0
431,124.0438773875,124.35086200625,56.0,79.0
432,124.04571561875,124.5732879875,60.0,80.0
433,124.481376425,125.08983096875,51.0,79.0
434,124.93174308125,125.3232863375,56.0,85.0
435,124.92439015625,125.35821273124999,60.0,87.0
436,124.92806661875,125.40600674375,63.0,83.0
437,124.04755385,125.584315175,44.0,86.0
438,125.38027150625,125.66152088749999,51.0,75.0
439,125.73688836875,126.40232808125,60.0,75.0
440,125.8012264625,126.52732780625,63.0,81.0
441,125.863726325,126.75710671249999,67.0,81.0
442,126.22034318749999,126.76813609999999,55.0,67.0
443,126.71115093124999,126.86188589375,60.0,80.0
444,125.79755,126.87842997499999,48.0,87.0
445,127.57695785,128.53099986875,70.0,86.0
446,127.4850462875,128.56776449375,62.0,73.0
447,127.54938438125,128.69644068125,65.0,79.0
448,127.43909050625,128.72401415,58.0,74.0
449,127.554899075,128.73320530625,46.0,89.0
450,129.33614515624998,129.43173318125,41.0,88.0
451,129.326954,129.71482079375,60.0,79.0
452,129.33063046249998,129.79570296875,65.0,86.0
453,130.01996718125,130.33246649375,60.0,87.0
454,130.2497460875,130.50158376874998,65.0,97.0
455,130.67989219999998,130.76996553125,65.0,88.0
456,130.4482750625,130.82143600625,60.0,92.0
457,130.67805396875,130.89128879375,68.0,87.0
458,129.7938647375,130.92253872499998,53.0,87.0
459,130.90047995,131.03467083125,65.0,90.0
460,131.14496470625,131.60322033541667,65.0,89.0
461,131.14128824375,131.60691036875,68.0,87.0
462,131.79510206875,131.85414260208333,68.0,75.0
463,131.80063711875,131.85967765208332,65.0,74.0
464,131.78956701874998,131.86890273541667,72.0,77.0
465,131.57185505208332,132.13274011874998,60.0,86.0
466,132.01465905208332,132.19731570208333,65.0,91.0
467,131.1394500125,132.27480640208333,53.0,91.0
468,132.01096901875,132.30617168541664,68.0,91.0
469,132.01834908541665,132.31170673541666,72.0,90.0
470,132.22314593541665,132.31724178541666,60.0,87.0
471,132.45930806874998,132.62351455208332,65.0,93.0
472,132.89657701874998,133.09952885208332,68.0,83.0
473,132.9002670520833,133.11428898541666,65.0,88.0
474,133.33384596874998,133.81908535208333,48.0,74.0
475,133.78034000208334,133.97591176875,53.0,90.0
476,133.78587505208333,133.98698186874998,60.0,90.0
477,133.77480495208331,133.99989698541665,56.0,87.0
478,133.97960180208332,134.36152025208332,48.0,87.0
479,132.89842203541664,134.40949068541664,41.0,91.0
480,134.23605911874998,134.78587408541665,53.0,87.0
481,134.4445460020833,134.97406578541666,56.0,86.0
482,135.27664851875,135.60506148541666,56.0,88.0
483,135.05524651874998,135.70284736874999,53.0,87.0
484,134.85782973541666,135.75081780208333,48.0,79.0
485,134.66041295208333,135.79878823541665,41.0,90.0
486,135.52203573541667,136.01281016874998,65.0,91.0
487,135.73974770208332,136.0331053520833,60.0,87.0
488,135.99066996874998,136.11613110208333,56.0,87.0
489,136.44085403541666,136.61428560208333,60.0,87.0
490,136.43900901875,136.75266185208332,63.0,90.0
491,136.91133328541665,137.14749541875,63.0,88.0
492,136.72867663541666,137.1788607020833,60.0,87.0
493,137.1013700020833,137.71945058541667,67.0,88.0
494,137.31723695208333,137.76557600208332,55.0,88.0
495,137.50727366874997,137.80801138541665,60.0,87.0
496,136.43347396874998,137.87996703541666,48.0,88.0
497,137.71391553541665,137.97775291874999,63.0,84.0
498,137.94823265208333,138.12535425208333,67.0,87.0
499,138.17885973541667,138.61428366874998,65.0,87.0
500,138.59767851875,138.93716158541665,60.0,90.0
501,138.8227705520833,139.06262271875,65.0,87.0
502,139.04786258541665,139.33384016875,68.0,90.0
503,138.38365658541665,139.37996558541664,48.0,90.0
504,138.17332468541665,139.44454116875,41.0,88.0
505,139.27664465208332,139.50173668541666,65.0,90.0
506,139.50173668541666,139.62719781874998,60.0,91.0
507,139.95930081875,140.21575813541665,60.0,82.0
508,139.95745580208333,140.37627458541667,63.0,86.0
509,140.38549966875,140.67885731874998,60.0,87.0
510,140.61059170208333,140.83937376875,63.0,87.0
511,140.16963271875,140.96114486874998,55.0,79.0
512,139.94823071874998,141.10690118541666,48.0,88.0
513,140.83014868541665,141.1751668020833,67.0,92.0
514,141.06446580208333,141.28955783541664,63.0,87.0
515,141.28586780208332,141.63273093541665,60.0,88.0
516,141.49619970208332,141.65487113541667,63.0,83.0
517,141.73051681874998,142.21206616875,65.0,87.0
518,142.1493356020833,142.47036850208332,60.0,86.0
519,142.37442763541665,142.49988876875,65.0,83.0
520,141.92977861875,142.66040521875,48.0,82.0
521,142.60136468541666,142.80800655208333,65.0,93.0
522,142.59582963541666,142.83568180208331,60.0,88.0
523,141.72682678541665,142.87627216874998,41.0,88.0
524,142.78771136875,142.92055256875,48.0,87.0
525,142.59398461875,143.11736544999997,68.0,86.0
526,143.04199796874997,143.34530612499998,60.0,88.0
527,143.28832095624998,143.40780598749998,65.0,77.0
528,143.51258516874998,143.74787876874998,58.0,83.0
529,143.5107469375,143.88390788124997,61.0,87.0
530,143.90964311874998,144.23501004999997,58.0,78.0
531,144.13390733125,144.36368623749996,61.0,86.0
532,144.36184800624997,144.63022976874998,65.0,87.0
533,144.57692106249996,144.82508228124996,61.0,87.0
534,143.71111414374997,144.83427343749997,53.0,82.0
535,143.48868816249998,144.84530282499998,46.0,87.0
536,144.8085382,144.90964091874997,58.0,89.0
537,145.25339016249998,145.45559559999998,60.0,83.0
538,145.25339016249998,145.61552171875,63.0,85.0
539,145.86735939999997,146.12655000624997,63.0,80.0
540,145.66883042499998,146.19088809999997,60.0,88.0
541,145.46662498749998,146.38390238124998,55.0,81.0
542,146.10632946249999,146.55118142499998,67.0,84.0
543,145.25706662499996,146.57875489375,48.0,89.0
544,146.30485843749997,146.5842695875,63.0,80.0
545,146.55669611874998,146.74051924375,60.0,80.0
546,147.00890100624997,147.14860658124996,65.0,87.0
547,147.00706277499998,147.17985651249998,60.0,80.0
548,147.67250248749997,147.95926656249998,56.0,82.0
549,147.46845881874998,148.14308968749998,53.0,85.0
550,147.91147254999998,148.18169254375,65.0,91.0
551,148.12654560624998,148.39308913749997,60.0,86.0
552,147.21662113749997,148.62838273749998,48.0,82.0
553,148.35080981874998,148.63022096874997,56.0,87.0
554,147.01257746874998,148.65963266874996,41.0,91.0
555,148.57507403124998,149.01624953124997,53.0,90.0
556,149.2202932,149.51624843124998,53.0,88.0
557,149.42066040624997,149.53279251249998,56.0,87.0
558,149.00705837499999,149.7386744125,48.0,81.0
559,149.67249808749997,149.91514461249997,53.0,91.0
560,148.79750001249997,149.9519092375,41.0,91.0
561,149.67065985624998,149.96661508749997,56.0,93.0
562,149.87286529374998,149.97212978124998,48.0,89.0
563,149.66882162499996,150.06955603749998,65.0,91.0
564,150.09712950624998,150.19087929999998,53.0,100.0
565,150.58426078749997,150.74602513749997,60.0,74.0
566,150.58242255624998,150.88021601874996,63.0,80.0
567,150.82874554375,151.11550961874997,60.0,84.0
568,151.01624513124997,151.26072988749996,63.0,81.0
569,150.55668731874997,151.70742008124998,48.0,89.0
570,151.45006770624997,151.73315531874997,55.0,87.0
571,151.23499464999998,151.889404975,67.0,100.0
572,151.64308198749998,151.92433136874996,60.0,87.0
573,151.88389028125,152.14124265624997,63.0,86.0
574,152.10080156874997,152.39675679999996,60.0,87.0
575,152.31587462499996,152.82322644999996,65.0,86.0
576,152.75153543124998,153.08976998125,60.0,87.0
577,152.98131433749998,153.26256371875,68.0,86.0
578,152.51991829374998,153.29932834374998,48.0,86.0
579,153.2166079375,153.48682793125,65.0,97.0
580,152.31035993124996,153.51991609374997,41.0,91.0
581,153.42248983749997,153.64491581874998,60.0,92.0
582,153.63756289375,153.73866561249997,48.0,88.0
583,154.09712070624997,154.29932614374997,60.0,85.0
584,154.09344424374999,154.44270818124997,63.0,84.0
585,154.54748736249996,154.82873674374997,60.0,92.0
586,154.75704572499998,154.88020721874997,63.0,88.0
587,154.35263485,155.12836843749997,55.0,87.0
588,155.20005945625,155.45189713749997,63.0,88.0
589,154.99601578749997,155.51072053749996,67.0,95.0
590,155.46844121874997,155.66697019375,55.0,75.0
591,154.09528247499998,155.68167604374997,48.0,82.0
592,155.43535305624997,155.7018965875,60.0,92.0
593,155.63939672499998,155.82321985,63.0,92.0
594,156.28277766249997,156.61182105624997,58.0,88.0
595,156.50704187499997,156.67248268749998,61.0,88.0
596,156.07505753124997,156.85262934999997,53.0,87.0
597,156.73682078124997,157.22211383124997,65.0,102.0
598,156.94086444999996,157.25152553124997,53.0,87.0
599,155.86182270624997,157.26071668749998,46.0,87.0
600,157.17615804999997,157.28645192499997,58.0,87.0
601,158.55850794999998,158.95740413124997,55.0,76.0
602,158.51439039999997,158.97394821249998,64.0,76.0
603,157.63571586249998,159.07321269999997,48.0,90.0
604,158.51255216874998,159.13938902499999,72.0,82.0
605,158.52725801875,159.16144779999996,67.0,76.0
606,157.63020116874998,159.18718303749998,60.0,90.0
607,159.40777078749997,159.65409377499998,65.0,86.0
608,159.39674139999997,159.69637309374997,60.0,79.0
609,160.29931294374998,160.65225334374998,56.0,83.0
610,160.30115117499997,160.72210613124997,53.0,84.0
611,161.00519374374997,161.11548761874997,53.0,72.0
612,161.07320829999998,161.13754639374997,56.0,75.0
613,161.11548761874997,161.19820802499999,60.0,72.0
614,161.16511986249998,161.301148975,65.0,86.0
615,159.84710805624997,162.65776363749998,48.0,79.0
616,159.42799133124998,162.70739588124997,41.0,90.0
617,162.14489711874998,162.92063070624997,65.0,50.0
618,161.97210338124998,162.93166009374997,68.0,54.0
619,162.01438269999997,162.93349832499996,72.0,75.0
620,162.0915884125,162.93349832499996,77.0,77.0
621,162.85445438124998,163.44452661249997,53.0,79.0
622,162.91327778124997,163.47945300624997,56.0,75.0
623,162.95004240624996,163.50886470624997,60.0,72.0
624,163.80481993749999,164.42062740624996,60.0,80.0
625,164.51989189374999,164.62467107499998,53.0,71.0
626,164.5768770625,164.69636209374997,56.0,73.0
627,164.63018576874998,164.74415610625,60.0,79.0
628,164.69452386249998,164.97761147499997,65.0,88.0
629,165.57136016874998,166.08790315,60.0,80.0
630,163.34158566249997,166.19084409999996,48.0,67.0
631,162.93349832499996,166.27540273749997,41.0,88.0
632,166.41327008124998,166.71290177499998,53.0,73.0
633,166.47760817499997,167.40959141874998,65.0,79.0
634,166.45187293749999,167.46106189374999,60.0,78.0
635,167.31400339374997,167.83789929999998,53.0,84.0
636,166.45738763125,168.12098691249997,41.0,87.0
637,166.89488666874996,168.12282514374996,48.0,70.0
638,167.78642882499997,168.31767765624997,56.0,69.0
639,168.227604325,169.11914648124997,53.0,82.0
640,169.09708770624997,169.23863151249998,56.0,74.0
641,169.08238185624998,169.28458729374998,60.0,76.0
642,168.66694159374998,169.66693939374997,48.0,63.0
643,168.23679548124997,169.78642442499998,41.0,81.0
644,169.82318904999997,170.03458564374998,53.0,70.0
645,169.88017421874997,170.08237965624997,56.0,77.0
646,169.94083584999998,170.53458454375,60.0,73.0
647,169.98311516874998,170.93715718749996,65.0,87.0
648,170.38752604374997,170.94451011249998,48.0,66.0
649,169.95554169999997,170.96840711874998,41.0,86.0
650,170.84892208749997,170.99046589374998,53.0,78.0
651,171.61730274999996,172.22943375625,58.0,62.0
652,171.68164084374996,172.58788884999998,61.0,74.0
653,172.54377129999997,172.66877102499998,58.0,81.0
654,171.69267023124996,172.76435904999997,46.0,84.0
655,172.12097811249998,172.79009428749998,53.0,73.0
656,173.36729889999998,173.81031263124999,60.0,66.0
657,173.44818107499998,174.43347302499998,63.0,77.0
658,173.50516624374998,174.45369356874997,67.0,76.0
659,174.37097316249998,174.89486906874998,60.0,88.0
660,174.81031043124997,175.37464742499998,67.0,87.0
661,173.93347412499998,175.72391136249996,55.0,67.0
662,175.26986824374998,176.19266033124998,63.0,81.0
663,176.15038101249996,176.33788059999998,55.0,68.0
664,175.70736728124996,176.38567461249997,60.0,73.0
665,173.48310746874998,176.41140984999998,48.0,87.0
666,176.92059990624998,177.62280424374998,60.0,74.0
667,177.03089378124997,177.95000940625,65.0,82.0
668,177.93898001875,178.64118435624997,60.0,90.0
669,178.36177320624998,178.86177210625,65.0,90.0
670,178.83052217499997,179.32868284374996,68.0,87.0
671,179.25515359374998,179.55846175,65.0,78.0
672,177.47023104999997,180.20368091874997,48.0,68.0
673,177.02537908749997,180.22206323125,41.0,88.0
674,179.70184378749997,180.40588635624997,63.0,90.0
675,180.50515084374996,181.08419368749998,61.0,71.0
676,180.57868009374997,181.92058890624998,65.0,84.0
677,181.45000170624996,181.99963284999998,61.0,87.0
678,181.89853013124997,182.38749964374998,68.0,84.0
679,182.33051447499997,182.76066058749998,65.0,87.0
680,182.74779296875,183.15220384375,63.0,83.0
681,180.99044389374998,183.15588030624997,56.0,74.0
682,180.58051832499996,183.330512275,49.0,87.0
683,183.19264493124996,183.60992342499998,60.0,75.0
684,183.60808519374996,183.77168777499998,58.0,77.0
685,184.06212831249996,184.62646530624997,56.0,74.0
686,184.05845184999998,184.97389101249996,60.0,79.0
687,184.92793523125,185.26616978124997,56.0,87.0
688,184.04926069374997,185.33418433749998,44.0,86.0
689,184.45918626249997,185.359919575,51.0,76.0
690,185.72021289999998,186.44095623124997,58.0,72.0
691,185.79925684374996,186.71586371458332,61.0,81.0
692,186.69187849791666,186.80811454791666,58.0,87.0
693,185.81396269374997,186.96125093125,46.0,87.0
694,186.24722948124997,186.99077119791664,53.0,79.0
695,187.5461212145833,188.16420179791666,60.0,74.0
696,187.61438683125,188.5645704145833,63.0,86.0
697,188.50183984791664,189.02951461458332,60.0,88.0
698,188.92988371458333,189.16604584791665,63.0,88.0
699,187.6457521145833,189.20848123124998,67.0,69.0
700,189.24169153124998,189.39667293124998,60.0,77.0
701,189.31918223124998,189.41327808124998,63.0,81.0
702,189.3671526645833,189.4612485145833,67.0,57.0
703,189.4225031645833,189.87268723124998,72.0,88.0
704,189.83025184791666,190.13467959791666,70.0,89.0
705,188.05534581458332,190.43726233124997,55.0,76.0
706,187.62545693124997,190.64205918124998,48.0,87.0
707,190.28966099791666,190.66973443125,67.0,88.0
708,191.1771140145833,191.47047166458333,65.0,86.0
709,191.17342398124998,191.53873728124998,68.0,80.0
710,191.61807299791664,192.23799859791666,48.0,79.0
711,191.18818411458332,192.25829378125,41.0,89.0
712,192.04796188125,192.27858896458332,53.0,87.0
713,192.05534194791665,192.30072916458332,56.0,87.0
714,192.04796188125,192.34869959791664,60.0,87.0
715,192.87452934791665,193.5295102645833,60.0,77.0
716,192.90773964791666,193.65128136458333,63.0,82.0
717,192.96862519791665,193.8505431645833,67.0,76.0
718,193.34500859791666,194.00736958124997,55.0,75.0
719,193.79703768124998,194.0442699145833,60.0,90.0
720,192.92249978124997,194.11991559791664,48.0,87.0
721,194.6033099645833,194.78227658125,58.0,76.0
722,194.66604053125,195.56640866458332,61.0,75.0
723,194.7361511645833,195.65127943124998,65.0,83.0
724,195.12360466458333,195.74537528124998,53.0,78.0
725,194.70847591458332,195.89482163124998,46.0,86.0
726,195.57932378124997,196.13282878124997,58.0,91.0
727,196.0147477145833,196.15496898125,61.0,87.0
728,196.47600188124997,197.15496801458332,56.0,82.0
729,196.47046683124998,197.20293844791664,60.0,84.0
730,196.90958079791665,197.58301188124997,51.0,77.0
731,197.3486947645833,197.5977720145833,63.0,84.0
732,197.34500473125,197.6033070645833,56.0,86.0
733,197.35053978124998,197.60699709791666,60.0,87.0
734,196.4575517145833,197.64574244791666,44.0,86.0
735,198.23061273124998,198.85607338124998,56.0,80.0
736,198.22507768124999,199.15496608125,60.0,81.0
737,198.23245774791664,199.18264133124998,65.0,87.0
738,198.23799279791666,199.29149731458332,41.0,87.0
739,198.65681158125,199.29703236458332,48.0,73.0
740,199.10330561458332,199.6457405145833,56.0,90.0
741,199.5516446645833,199.71216111458332,60.0,87.0
742,200.00551876458331,200.26197608124997,56.0,82.0
743,200.00367374791665,200.67710483124998,61.0,80.0
744,200.00182873125,201.01105284791666,49.0,87.0
745,200.45016778124997,201.05164321458332,56.0,84.0
746,200.90035184791665,201.06455833124997,61.0,86.0
747,200.90588689791664,201.12728889791666,65.0,86.0
748,201.70221484375,202.90441808125,62.0,73.0
749,201.64339144375,202.924638625,58.0,70.0
750,201.80147933125,202.97059440625,65.0,80.0
751,201.851111575,202.98162379375,70.0,82.0
752,201.80331756249998,203.06985889375,46.0,87.0
753,203.51103439374998,204.4577234875,60.0,70.0
754,203.56801956249998,204.51470865624998,65.0,80.0
755,204.45220879375,204.9430165375,68.0,85.0
756,204.0018421375,204.99264878124998,48.0,74.0
757,203.5937548,205.04044279375,41.0,88.0
758,204.8841931375,205.15073666875,60.0,95.0
759,205.29228047499998,205.49448591249998,60.0,87.0
760,205.29411870625,205.60294155625,65.0,91.0
761,205.70772073749998,205.792279375,65.0,63.0
762,205.73897066875,205.88602916874999,60.0,78.0
763,205.2996334,206.06617583125,41.0,97.0
764,206.2077196375,206.409925075,60.0,91.0
765,206.2113961,206.49264548124998,65.0,103.0
766,206.20955786874998,206.7077185375,68.0,88.0
767,206.63970398125,206.9430121375,60.0,86.0
768,206.85293880625,206.9466886,65.0,86.0
769,207.08455594375,207.28676138125,60.0,86.0
770,207.08639417499998,207.56433429999998,65.0,88.0
771,207.07720301875,207.56617253125,68.0,86.0
772,207.50734913124998,207.69668695,60.0,84.0
773,207.0827177125,208.08087728125,53.0,97.0
774,207.97425986874998,208.1231566,60.0,89.0
775,207.98161279375,208.189332925,65.0,100.0
776,208.174627075,208.26286217499998,53.0,90.0
777,207.97977456249998,208.32536203749999,68.0,89.0
778,208.44668529999998,208.48896461875,68.0,58.0
779,208.41911183125,208.69668475,60.0,93.0
780,208.65992012499999,208.79043454375,65.0,83.0
781,208.86764025624998,209.1341837875,61.0,80.0
782,208.8768314125,209.174624875,65.0,88.0
783,209.30146283125,209.57903575,61.0,88.0
784,209.53124173749998,209.61212391249998,65.0,87.0
785,209.10661031875,209.8290352,56.0,80.0
786,209.74631479375,210.02021125,61.0,87.0
787,208.87131671875,210.02572594375,49.0,89.0
788,209.94668199999998,210.0974169625,56.0,85.0
789,209.74263833125,210.11947573749998,65.0,100.0
790,209.74447656249998,210.15072566875,68.0,90.0
791,210.18749029375,210.28307831875,49.0,88.0
792,210.63969518125,210.8253565375,60.0,86.0
793,210.63785694999999,211.07719421874998,65.0,86.0
794,211.07167952499998,211.3841788375,60.0,84.0
795,211.2885908125,211.41175230624998,65.0,86.0
796,211.5165314875,211.74631039374998,69.0,100.0
797,211.72425161875,211.91175120625,65.0,88.0
798,210.85293000625,212.05880970625,48.0,83.0
799,210.6415334125,212.1562359625,41.0,88.0
800,211.9503540625,212.24998575625,60.0,87.0
801,212.3841766375,212.80696982499998,60.0,87.0
802,212.37866194375,212.9650577125,65.0,88.0
803,212.81248451874998,213.321674575,48.0,78.0
804,213.26468940625,213.45218899374999,60.0,88.0
805,212.38601486874998,213.52571824375,41.0,91.0
806,213.26101294375,213.54777701875,65.0,93.0
807,213.45218899374999,213.56799756249998,48.0,87.0
808,213.25733648124998,213.704026675,69.0,88.0
809,213.6929972875,213.84373225,60.0,91.0
810,214.17277564375,214.63968638125,60.0,88.0
811,214.174613875,214.70402447499998,63.0,87.0
812,214.8106418875,214.9724062375,60.0,87.0
813,214.61395114375,215.13968528125,55.0,80.0
814,215.24078799999998,215.4282875875,55.0,82.0
815,214.16174625624998,215.43747874375,48.0,88.0
816,215.0459354875,215.47056690624999,67.0,90.0
817,215.46505221249998,215.79041914375,63.0,82.0
818,215.9135806375,216.23527110625,60.0,85.0
819,215.90806594375,216.60291735625,65.0,86.0
820,216.34556498125,216.998137075,48.0,30.0
821,216.78306401875,217.11394564375,60.0,87.0
822,216.78490225,217.2407836,65.0,91.0
823,215.9062277125,217.262842375,41.0,90.0
824,216.79041694375,217.262842375,68.0,86.0
825,217.20953366875,217.29960699999998,48.0,92.0
826,217.6635767875,217.90806154375,58.0,79.0
827,217.65622386249998,218.05512004374998,61.0,82.0
828,218.0826935125,218.36026643124998,58.0,81.0
829,218.2885754125,218.44482506875,61.0,85.0
830,217.87864984375,218.6929862875,53.0,79.0
831,218.51835431875,218.939309275,65.0,88.0
832,218.70585390624998,218.97423566875,61.0,86.0
833,217.66541501875,219.08085308124998,46.0,86.0
834,218.96136805,219.11577947499998,58.0,82.0
835,219.45033756249998,219.67460177499999,56.0,82.0
836,219.45033756249998,219.8584249,60.0,82.0
837,219.87313075,220.19849768125,56.0,87.0
838,220.09188026875,220.30143863125,63.0,83.0
839,220.306953325,220.5606292375,68.0,87.0
840,219.66357238749998,220.75915821249998,51.0,77.0
841,219.45217579375,220.80143753125,44.0,87.0
842,220.512835225,220.806952225,63.0,87.0
843,220.7444523625,220.9944518125,60.0,82.0
844,220.96320188125,221.03673113125,56.0,86.0
845,221.19665725,221.47055370625,60.0,85.0
846,221.19849548125,221.7003326125,63.0,86.0
847,221.85474403749998,221.96319968125,60.0,87.0
848,221.64334744375,222.14334634374998,55.0,85.0
849,222.0900376375,222.34371355,60.0,91.0
850,221.18378963125,222.3473900125,48.0,88.0
851,222.07900825,222.3841546375,63.0,93.0
852,222.2885666125,222.43011041875,55.0,92.0
853,222.07900825,222.4576838875,67.0,91.0
854,222.53488959999999,222.63966878124998,48.0,88.0
855,222.9760651,223.115770675,65.0,88.0
856,222.97790333125,223.14702060624998,60.0,87.0
857,223.43010821874998,223.74628399374998,53.0,88.0
858,223.62496073124998,223.75547515,56.0,86.0
859,223.87128371875,224.14701840625,60.0,85.0
860,224.06981269374998,224.25731228125,56.0,88.0
861,223.19665285,224.5900321375,48.0,85.0
862,222.97422686874998,224.61760560624998,41.0,92.0
863,224.28304751874998,224.62128206875,53.0,95.0
864,224.4870911875,224.79407580625,56.0,87.0
865,225.15804559375,225.5091477625,60.0,84.0
866,224.718708325,225.52017715,65.0,92.0
867,225.41539796875,225.68745619375,53.0,90.0
868,224.92826668749998,225.72605905,48.0,87.0
869,225.6194416375,225.87127931875,56.0,89.0
870,225.81980884375,225.97789673124998,53.0,92.0
871,224.72422301875,226.11392584375,41.0,88.0
872,226.056940675,226.1562051625,48.0,92.0
873,226.49076325,226.63965998125,56.0,80.0
874,226.5017926375,226.8914976625,65.0,87.0
875,226.72789508124998,226.9944386125,56.0,83.0
876,226.9209093625,227.16539411875,61.0,85.0
877,227.14885003749998,227.424584725,65.0,89.0
878,227.38046717499998,227.57348145625,61.0,91.0
879,226.50730733125,227.82899559999998,49.0,92.0
880,227.5826726125,227.86024553125,56.0,89.0
881,227.81796621249998,227.9282600875,61.0,87.0
882,228.28303871875,228.61392034374998,60.0,84.0
883,228.2812004875,228.62127326875,65.0,87.0
884,228.72605245,229.3032570625,48.0,82.0
885,229.1488456375,229.38046277499998,60.0,84.0
886,228.27936225624998,229.60656521875,41.0,92.0
887,229.1488456375,229.64149161249998,65.0,87.0
888,229.15619856249998,229.84737351249998,69.0,88.0
889,229.57347705625,229.85288820625,60.0,81.0
890,230.027520175,230.25729908124998,60.0,86.0
891,230.0311966375,230.5385484625,65.0,88.0
892,230.02935840625,230.5606072375,69.0,86.0
893,230.43009281874998,230.65435703125,60.0,86.0
894,230.02568194375,230.9708788625,41.0,84.0
895,230.9044582625,231.07973484583334,65.0,86.0
896,230.90076822916666,231.11110012916666,60.0,85.0
897,230.8989232125,231.11110012916666,69.0,78.0
898,231.68674532916665,231.8730920125,60.0,73.0
899,231.7457858625,232.0944940125,63.0,76.0
900,231.81405147916666,232.13692939583333,67.0,75.0
901,232.25132042916667,232.81036047916666,60.0,87.0
902,232.45796229583334,232.8417257625,63.0,81.0
903,232.0170033125,232.88785117916666,55.0,73.0
904,232.7199546625,233.00962227916668,72.0,86.0
905,231.78453121249999,233.0354525125,48.0,87.0
906,234.0040862625,234.18305287916667,53.0,87.0
907,234.20150304583333,234.32327414583332,55.0,87.0
908,234.42844009583334,234.76054309583333,56.0,87.0
909,233.7882193125,234.86939907916667,48.0,78.0
910,234.65353212916668,234.9229045625,60.0,87.0
911,233.58526747916667,234.9616499125,41.0,91.0
912,235.1110962625,235.31404809583333,56.0,86.0
913,234.88046917916665,235.43028414583333,65.0,86.0
914,235.76607717916667,236.05574479583333,58.0,82.0
915,235.97271904583334,236.1074052625,61.0,79.0
916,236.22733134583333,236.8324968125,58.0,85.0
917,236.2236413125,236.83434182916668,61.0,87.0
918,236.22548632916667,236.83987687916667,65.0,88.0
919,235.55205524583334,236.93397272916667,53.0,79.0
920,235.33434327916666,236.95057787916667,46.0,87.0
921,237.10740429583333,237.41552207916666,56.0,79.0
922,237.1092493125,237.63876909583334,60.0,80.0
923,237.5465182625,238.15721877916667,51.0,79.0
924,237.99854734583334,238.39153589583333,56.0,85.0
925,237.99116727916666,238.4265912125,60.0,87.0
926,237.9948573125,238.47456164583332,63.0,83.0
927,237.11109432916666,238.6535282625,44.0,86.0
928,238.4487314125,238.7310189625,51.0,75.0
929,238.80666464583334,239.47456067916667,60.0,75.0
930,238.87124022916666,239.6000218125,63.0,81.0
931,238.93397079583335,239.83064889583332,67.0,81.0
932,239.29190402916666,239.84171899583333,55.0,67.0
933,239.78452347916667,239.93581484583333,60.0,80.0
934,238.86755019583333,239.95241999583334,48.0,87.0
935,240.65352632916665,241.61108997916668,70.0,86.0
936,240.56127549583334,241.64799031249999,62.0,73.0
937,240.62585107916667,241.77714147916666,65.0,79.0
938,240.51515007916666,241.80481672916667,58.0,74.0
939,240.63138612916666,241.8140418125,46.0,89.0
940,242.41920727916667,242.51514814583334,41.0,88.0
941,242.40998219583332,242.7992807125,60.0,79.0
942,242.41367222916668,242.88046144583333,65.0,86.0
943,243.10555347916667,243.4192063125,60.0,87.0
944,243.3361805625,243.58894784583333,65.0,97.0
945,243.7679144625,243.85832027916666,65.0,88.0
946,243.5354423625,243.90998074583334,60.0,92.0
947,243.76606944583332,243.98009137916668,68.0,87.0
948,242.87861642916667,244.0114566625,53.0,87.0
949,243.9893164625,244.12400267916667,65.0,90.0
950,244.23470367916667,244.69411282916667,65.0,89.0
951,244.23101364583334,244.6978028625,68.0,87.0
952,244.8859945625,244.94503509583333,68.0,75.0
953,244.8915296125,244.95057014583332,65.0,74.0
954,244.8804595125,244.95979522916667,72.0,77.0
955,244.66274754583333,245.2236326125,60.0,86.0
956,245.10555154583332,245.28820819583333,65.0,91.0
957,244.22916862916668,245.36569889583333,53.0,91.0
958,245.1018615125,245.39706417916668,68.0,91.0
959,245.10924157916668,245.40259922916667,72.0,90.0
960,245.31403842916666,245.40813427916666,60.0,87.0
961,245.5502005625,245.71440704583333,65.0,93.0
962,245.9874695125,246.23839177916668,60.0,86.0
963,245.99484957916667,246.29189726250002,65.0,87.0
964,245.98931452916668,246.30665739583333,68.0,83.0
965,246.44834369583333,246.71304899583333,60.0,92.0
966,246.63400505208332,246.72775484583332,65.0,86.0
967,246.86929865208333,247.01268068958333,60.0,91.0
968,246.87113688333332,247.19098912083334,68.0,89.0
969,247.11562163958334,247.28473891458333,60.0,87.0
970,247.32701823333332,247.54576775208332,65.0,87.0
971,246.21625157916668,247.5880470708333,48.0,81.0
972,246.0040746625,247.61929700208333,41.0,90.0
973,247.54025305833332,248.00532556458333,68.0,86.0
974,247.7608408083333,248.03106080208332,60.0,89.0
975,248.16892814583332,248.48142745833331,60.0,90.0
976,248.39319235833332,248.49245684583332,65.0,83.0
977,247.96304624583334,248.70569167083332,48.0,81.0
978,248.62480949583332,248.86929425208334,60.0,90.0
979,248.62664772708334,248.92811765208333,65.0,95.0
980,247.74429672708334,248.9317941145833,41.0,91.0
981,248.81966200833332,248.94649996458332,48.0,82.0
982,248.61929480208332,249.13032308958333,68.0,88.0
983,249.05679383958332,249.24613165833333,60.0,93.0
984,249.49429287708332,249.74061586458333,61.0,84.0
985,249.49980757083333,249.80863042083334,65.0,88.0
986,249.91892429583334,250.21120306458332,61.0,87.0
987,250.14686497083332,250.24245299583333,65.0,87.0
988,249.71304239583333,250.45201135833332,56.0,80.0
989,250.37296741458331,250.64686387083333,61.0,88.0
990,249.50532226458333,250.72590781458334,49.0,91.0
991,250.37480564583333,250.73509897083332,65.0,97.0
992,250.37664387708332,250.76634890208334,68.0,86.0
993,250.58987870208333,250.86561338958333,56.0,84.0
994,250.84539284583332,251.01267188958332,49.0,86.0
995,251.05495120833334,251.2902448083333,61.0,93.0
996,251.90605227708332,252.27553675833332,57.0,88.0
997,251.71487622708332,252.37663947708333,53.0,78.0
998,252.11928710208332,252.38766886458333,60.0,81.0
999,251.49428847708333,252.81597674583332,48.0,82.0
1000,251.28473011458334,252.83803552083333,41.0,92.0
1001,252.33803662083332,253.12479959583334,65.0,91.0
1002,252.58068314583332,253.15237306458332,53.0,97.0
1003,252.78472681458334,253.43362244583332,57.0,93.0
1004,253.64685727083332,253.96119481458334,57.0,92.0
1005,253.42626952083333,254.14134147708333,53.0,89.0
1006,253.23325523958331,254.18729725833333,48.0,83.0
1007,253.01082925833333,254.22406188333332,41.0,93.0
1008,253.88766556458333,254.37663507708334,65.0,93.0
1009,254.09354746458334,254.38766446458334,60.0,86.0
1010,254.32884106458332,254.63214922083333,57.0,100.0
1011,254.55310527708332,254.70751670208332,53.0,95.0
1012,255.00531016458334,255.46854443958333,60.0,79.0
1013,255.22222145208332,255.47773559583334,63.0,80.0
1014,255.42626512083334,255.99795503958333,67.0,90.0
1015,255.67258810833331,256.08802837083334,55.0,77.0
1016,254.79575180208332,256.28104265208333,48.0,92.0
1017,256.07148428958334,256.41707176458334,63.0,84.0
1018,255.88398470208332,256.43361584583334,60.0,90.0
1019,256.3012631958333,256.5071450958333,67.0,87.0
1020,256.9924381458333,257.3049374583333,60.0,90.0
1021,257.20934943333333,257.3251580020833,65.0,87.0
1022,256.7828797833333,257.5475839833333,48.0,84.0
1023,257.4501577270833,257.70199540833335,60.0,88.0
1024,256.55861557083335,257.7461129583333,41.0,90.0
1025,257.45751065208333,257.77184819583334,65.0,88.0
1026,257.6615543208333,257.7755246583333,48.0,88.0
1027,257.4446430333333,257.9483183958333,68.0,88.0
1028,257.89133322708335,258.0273623395833,60.0,90.0
1029,258.3527292708333,258.5990522583333,58.0,78.0
1030,258.3527292708333,258.7148608270833,61.0,80.0
1031,258.7405960645833,259.08250707708333,58.0,80.0
1032,258.9519926583333,259.2700066645833,61.0,86.0
1033,258.5567729395833,259.5016238020833,53.0,81.0
1034,259.19647741458334,259.55860897083335,70.0,87.0
1035,258.3564057333333,259.64868230208333,46.0,87.0
1036,259.41890339583335,259.6744175395833,65.0,86.0
1037,259.6578734583333,259.7865496458333,58.0,87.0
1038,260.09353426458335,260.3159602458333,56.0,80.0
1039,260.0953724958333,260.4942686770833,60.0,80.0
1040,260.5163274520833,260.97772349583335,56.0,86.0
1041,260.7314005083333,261.0512527458333,60.0,85.0
1042,260.3269896333333,261.1854436270833,51.0,76.0
1043,260.1008871895833,261.24794348958335,44.0,87.0
1044,261.1946347833333,261.5402222583333,63.0,81.0
1045,260.96669410833334,261.5677957270833,68.0,86.0
1046,261.42073722708335,261.7019866083333,60.0,76.0
1047,261.6450014395833,261.76448647083333,56.0,86.0
1048,261.8913244270833,262.05676523958334,60.0,88.0
1049,261.8986773520833,262.17625027083335,63.0,88.0
1050,262.1450003395833,262.45014672708334,60.0,82.0
1051,262.34352931458335,262.5769846833333,63.0,81.0
1052,261.8876479645833,262.9023516145833,48.0,88.0
1053,262.7442637270833,263.0677924270833,55.0,85.0
1054,262.5347053645833,263.09168943333333,67.0,90.0
1055,262.9501456270833,263.26080670833335,60.0,87.0
1056,263.2093362333333,263.47587976458334,63.0,84.0
1057,263.4023505145833,263.6633793520833,60.0,84.0
1058,263.6358058833333,263.6633793520833,60.0,86.0
1059,263.64315880833334,263.93911403958333,65.0,87.0
1060,263.63764411458334,263.9538198895833,68.0,83.0
1061,264.0953636958333,264.36006899583333,60.0,92.0
1062,264.28102505208335,264.3747748458333,65.0,86.0
1063,264.5163186520833,264.6597006895833,60.0,91.0
1064,264.51815688333335,264.8380091208333,68.0,89.0
1065,264.7626416395833,264.9317589145833,60.0,87.0
1066,264.9740382333333,265.19278775208335,65.0,87.0
1067,263.86374655833333,265.23506707083334,48.0,81.0
1068,263.6523499645833,265.2663170020833,41.0,90.0
1069,265.18727305833335,265.6523455645833,68.0,86.0
1070,265.40786080833334,265.67808080208334,60.0,89.0
1071,265.8159481458333,266.1284474583333,60.0,90.0
1072,266.04021235833335,266.1394768458333,65.0,83.0
1073,265.6100662458333,266.35271167083334,48.0,81.0
1074,266.27182949583334,266.5163142520833,60.0,90.0
1075,266.2736677270833,266.5751376520833,65.0,95.0
1076,265.39131672708334,266.57881411458334,41.0,91.0
1077,266.46668200833335,266.5935199645833,48.0,82.0
1078,266.26631480208334,266.7773430895833,68.0,88.0
1079,266.70381383958335,266.8931516583333,60.0,93.0
1080,267.14131287708335,267.38763586458333,61.0,84.0
1081,267.14682757083335,267.4556504208333,65.0,88.0
1082,267.56594429583333,267.85822306458334,61.0,87.0
1083,267.79388497083335,267.88947299583333,65.0,87.0
1084,267.3600623958333,268.0990313583333,56.0,80.0
1085,268.01998741458334,268.2938838708333,61.0,88.0
1086,267.15234226458335,268.3729278145833,49.0,91.0
1087,268.0218256458333,268.38211897083335,65.0,97.0
1088,268.0236638770833,268.41336890208333,68.0,86.0
1089,268.23689870208335,268.5126333895833,56.0,84.0
1090,268.4924128458333,268.6596918895833,49.0,86.0
1091,268.7019712083333,268.93726480833334,61.0,93.0
1092,269.55307227708334,269.9225567583333,57.0,88.0
1093,269.3618962270833,270.0236594770833,53.0,78.0
1094,269.7663071020833,270.0346888645833,60.0,81.0
1095,269.1413084770833,270.4629967458333,48.0,82.0
1096,268.93175011458334,270.4850555208333,41.0,92.0
1097,269.98505662083335,270.77181959583334,65.0,91.0
1098,270.22770314583335,270.79939306458334,53.0,97.0
1099,270.43174681458333,271.08064244583335,57.0,93.0
1100,271.2938772708333,271.60821481458333,57.0,92.0
1101,271.0732895208333,271.7883614770833,53.0,89.0
1102,270.88027523958334,271.83431725833333,48.0,83.0
1103,270.65784925833333,271.8710818833333,41.0,93.0
1104,271.5346855645833,272.02365507708333,65.0,93.0
1105,271.7405674645833,272.03468446458334,60.0,86.0
1106,271.97586106458334,272.2791692208333,57.0,100.0
1107,272.2001252770833,272.35453670208335,53.0,95.0
1108,272.6523301645833,273.1155644395833,60.0,79.0
1109,272.8692414520833,273.12475559583334,63.0,80.0
1110,273.0732851208333,273.6449750395833,67.0,90.0
1111,273.31960810833334,273.73504837083334,55.0,77.0
1112,272.4427718020833,273.9280626520833,48.0,92.0
1113,273.71850428958334,274.06409176458334,63.0,84.0
1114,273.53100470208335,274.08063584583334,60.0,90.0
1115,273.9482831958333,274.1541650958333,67.0,87.0
1116,274.6394581458333,274.9519574583333,60.0,90.0
1117,274.8563694333333,274.9721780020833,65.0,87.0
1118,274.4298997833333,275.1946039833333,48.0,84.0
1119,275.0971777270833,275.34901540833334,60.0,88.0
1120,274.20563557083335,275.39313295833335,41.0,90.0
1121,275.1045306520833,275.41886819583334,65.0,88.0
1122,275.3085743208333,275.4225446583333,48.0,88.0
1123,275.0916630333333,275.5958065895833,68.0,88.0
1124,275.53861107291664,275.67514230624994,60.0,90.0
1125,276.00171025624996,276.24894248958327,58.0,78.0
1126,276.00171025624996,276.36517853958327,61.0,80.0
1127,276.3910087729166,276.7341818729166,58.0,80.0
1128,276.6031856895833,276.9223735729166,61.0,86.0
1129,276.20650710624994,277.1548456729166,53.0,81.0
1130,276.84857290624996,277.2120411895833,70.0,87.0
1131,276.0054002895833,277.30244700624996,46.0,87.0
1132,277.07181992291663,277.3282772395833,65.0,86.0
1133,277.3116720895833,277.44082325625,58.0,87.0
1134,277.7489410395833,277.97218805624993,56.0,80.0
1135,277.75078605625,278.1511546729166,60.0,80.0
1136,278.17329487291664,278.63639405624997,56.0,86.0
1137,278.3891618229166,278.71019472291664,60.0,85.0
1138,277.98325815625,278.8448809395833,51.0,76.0
1139,277.75632110624997,278.90761150624996,44.0,87.0
1140,278.85410602291665,279.20096915625,63.0,81.0
1141,278.62532395625,279.22864440624994,68.0,86.0
1142,279.0810430729166,279.36333062291664,60.0,76.0
1143,279.30613510624994,279.4260611895833,56.0,86.0
1144,279.5533673395833,279.7194188395833,60.0,88.0
1145,279.56074740624996,279.8393449229166,63.0,88.0
1146,279.8079796395833,280.11425240625,60.0,82.0
1147,280.0072414395833,280.24155855624997,63.0,81.0
1148,279.54967730625,280.56812650624994,48.0,88.0
1149,280.4094550729166,280.73417800625,55.0,85.0
1150,280.19912317291664,280.7581632229166,67.0,90.0
1151,280.6160969395833,280.92790475625,60.0,87.0
1152,280.87624428958327,281.14377170624994,63.0,84.0
1153,281.0699710395833,281.33196340624994,60.0,84.0
1154,281.19912220624997,281.4131441395833,58.0,69.0
1155,281.23786755624997,281.43712935624995,62.0,78.0
1156,281.3614836729166,282.3873129395833,70.0,86.0
1157,282.16775595624995,282.42790330624996,58.0,70.0
1158,281.30428815625,282.4684936729166,65.0,86.0
1159,281.7231069395833,282.52015413958327,53.0,78.0
1160,281.3301183895833,282.5902647729166,46.0,88.0
1161,282.90207258958327,283.6640644729166,60.0,70.0
1162,283.04229385624996,283.71941497291664,68.0,83.0
1163,282.9721832229166,283.7544702895833,65.0,82.0
1164,283.44819752291664,284.1751340895833,48.0,75.0
1165,283.95557710624996,284.26553990624996,60.0,87.0
1166,283.02015365625,284.6511483895833,41.0,86.0
1167,283.9537320895833,284.6622184895833,65.0,88.0
1168,283.95188707291663,284.67144357291664,68.0,86.0
1169,284.39469107291666,284.7452442395833,48.0,86.0
1170,284.84118510624995,285.3743949229166,60.0,80.0
1171,284.8430301229166,285.41129525624996,65.0,87.0
1172,285.2600038895833,285.81719892291665,48.0,78.0
1173,284.83011500624997,285.84302915624994,41.0,88.0
1174,285.7138779895833,285.9076047395833,60.0,87.0
1175,285.71572300624996,285.92789992291665,65.0,89.0
1176,285.7175680229166,285.93158995625,68.0,84.0
1177,286.42420940625,287.49985412291664,58.0,71.0
1178,286.6382313395833,287.52568435624994,70.0,79.0
1179,286.4998550895833,287.53121940625,62.0,77.0
1180,286.5884158895833,287.58287987291664,65.0,79.0
1181,286.6050210395833,287.69727090624997,46.0,87.0
1182,288.1382298895833,288.6732847229166,53.0,71.0
1183,288.22310065625,288.71387508958327,56.0,75.0
1184,288.31166145624996,289.10317360625,60.0,81.0
1185,289.02568290625,289.44081165624993,53.0,82.0
1186,289.26553507291663,289.48509205625,56.0,84.0
1187,289.2766051729166,289.51276730624994,60.0,80.0
1188,288.8227310729166,289.5441325895833,48.0,78.0
1189,288.33933670625,289.5754978729166,41.0,88.0
1190,289.29321032291665,289.6382284395833,65.0,83.0
1191,290.18250835624997,290.71571817291664,70.0,79.0
1192,290.02383692291664,290.79689890624996,58.0,72.0
1193,290.06073725625,290.84117930624996,62.0,73.0
1194,290.13453792291665,290.8504043895833,65.0,78.0
1195,290.59394707291665,291.2249427729166,53.0,74.0
1196,291.05704625625,291.2360128729166,58.0,76.0
1197,290.16590320624994,291.2987434395833,46.0,87.0
1198,291.04413113958327,291.4814000895833,62.0,81.0
1199,291.0552012395833,291.56258082291663,65.0,85.0
1200,291.46479493958327,291.5736509229166,58.0,79.0
1201,291.9020638895833,292.45741390624994,60.0,72.0
1202,291.90390890624997,292.46294895625,65.0,77.0
1203,292.76737670624993,292.8817677395833,60.0,79.0
1204,292.7710667395833,292.9039079395833,65.0,87.0
1205,292.3319527729166,292.9149780395833,48.0,62.0
1206,292.7876718895833,292.94449830624995,68.0,83.0
1207,291.91497900624995,293.00169382291665,41.0,84.0
1208,293.53121360624993,293.8319513229166,58.0,64.0
1209,293.56811393958327,294.06626843958327,62.0,71.0
1210,293.68804002291665,294.11423887291664,70.0,86.0
1211,293.63084450624996,294.1548292395833,65.0,81.0
1212,294.58840815624995,294.6788139729166,58.0,49.0
1213,294.08656362291663,294.69357410624997,53.0,73.0
1214,293.66958985624996,294.8171902229166,46.0,87.0
1215,294.5957882229166,294.94818640625,70.0,49.0
1216,294.56073290624994,294.99984687291663,62.0,63.0
1217,294.57733805624997,295.01460700624995,65.0,64.0
1218,294.98324172291666,295.0884076729166,58.0,68.0
1219,295.91313012291664,296.4241997395833,53.0,81.0
1220,296.3356389395833,296.46479010624995,56.0,63.0
1221,295.45372097291664,296.48324027291665,41.0,87.0
1222,296.3245688395833,296.58102615624995,60.0,70.0
1223,297.21202185625,297.8909879895833,62.0,78.0
1224,297.6511358229166,298.28766657291663,53.0,69.0
1225,297.21755690624997,298.4168177395833,46.0,76.0
1226,298.0736446395833,298.42604282291666,62.0,68.0
1227,298.0847147395833,298.5385888395833,65.0,77.0
1228,299.41497175624994,299.9666317395833,48.0,56.0
1229,298.95925263958327,299.99615200625,65.0,73.0
1230,298.9537175895833,300.0330523395833,41.0,71.0
1231,300.30611480625,300.7064834229166,60.0,60.0
1232,299.8836059895833,301.5717962395833,68.0,71.0
1233,300.72862362291664,302.06257067291665,46.0,63.0
1234,301.2009478895833,302.18434177291664,62.0,74.0
1235,301.65666700624996,302.5570351395833,65.0,72.0
1236,302.1253012395833,302.60500557291664,58.0,54.0
1237,303.01090923958327,303.5312039395833,56.0,80.0
1238,302.55150008958327,304.01644332291664,41.0,69.0
1239,303.4758534395833,304.02566840624996,60.0,76.0
1240,304.2987308729166,305.09024302291664,41.0,54.0
1241,304.33009615624997,305.2175491729166,53.0,75.0
1242,304.4334170895833,305.23784435625,56.0,74.0
1243,304.52935795624995,305.2581395395833,60.0,68.0
1244,304.62898885625,305.27843472291664,65.0,51.0
