,start,end,pitch,velocity
0,23.6573411125,23.954399787499998,66.0,90.0
1,24.0102821125,24.208811425,67.0,89.0
2,24.3632231125,25.1985168125,69.0,99.0
3,25.4220461125,25.661751875,69.0,81.0
4,26.127928112499998,26.3955750375,69.0,92.0
5,26.4808691125,26.723516049999997,67.0,93.0
6,26.8338101125,27.177927587499997,66.0,72.0
7,27.186751112499998,27.413221587499997,64.0,75.0
8,27.5396921125,27.891162525,64.0,66.0
9,27.8926331125,28.2132211875,66.0,86.0
10,28.245574112499998,28.807338537499998,64.0,89.0
11,28.951456112499997,29.09998545,64.0,83.0
12,29.3043971125,29.6632204625,66.0,96.0
13,29.6573381125,29.927926212499997,64.0,71.0
14,30.010279112499997,30.305867199999998,64.0,89.0
15,30.3632201125,30.611749399999997,62.0,62.0
16,30.7161611125,30.9308668875,62.0,81.0
17,31.069102112499998,31.4220431125,62.0,85.0
18,31.4220431125,31.702925325,62.0,89.0
19,31.7749841125,32.114689825,74.0,95.0
20,32.1279251125,32.3058662,73.0,95.0
21,32.480866112499996,32.7749836125,66.0,83.0
22,32.8338071125,33.939688912499996,69.0,88.0
23,34.9514531125,35.144100075,69.0,93.0
24,35.3043941125,35.48821755,69.0,79.0
25,35.6573351125,36.26468775,71.0,95.0
26,36.7161581125,37.0705697,62.0,97.0
27,37.4220401125,37.638216475,71.0,95.0
28,37.7749811125,38.0455692125,71.0,97.0
29,38.127922112499995,38.355863174999996,69.0,95.0
30,38.480863112499996,38.6485100875,69.0,96.0
31,38.8338041125,39.085274575,62.0,92.0
32,39.1867451125,39.5543919875,64.0,86.0
33,39.5396861125,39.7485095375,62.0,67.0
34,39.7161566125,40.749979624999995,66.0,97.0
35,40.9514501125,41.197038225,66.0,92.0
36,41.3043911125,41.5411557,67.0,88.0
37,41.6573321125,41.880861412499996,67.0,89.0
38,42.010273112499995,42.2896847375,67.0,93.0
39,42.363214112499996,42.614684575,66.0,90.0
40,42.7161551125,42.941154999999995,64.0,81.0
41,43.0690961125,43.302919525,62.0,90.0
42,43.4220371125,43.52939,66.0,97.0
43,43.7749781125,44.2823308,66.0,97.0
44,44.4808601125,45.552918399999996,64.0,85.0
45,46.245565112499996,46.5426237875,66.0,90.0
46,46.5985061125,46.797035425,67.0,89.0
47,46.9514471125,47.7867408125,69.0,99.0
48,48.010270112499995,48.249975875,69.0,81.0
49,48.7161521125,48.9837990375,69.0,92.0
50,49.0690931125,49.31174005,67.0,93.0
51,49.4220341125,49.7661515875,66.0,72.0
52,49.774975112499995,50.0014455875,64.0,75.0
53,50.127916112499996,50.479386524999995,64.0,66.0
54,50.4808571125,50.8014451875,66.0,86.0
55,50.8337981125,51.3955625375,64.0,89.0
56,51.892621112499995,52.2514444625,66.0,96.0
57,52.2455621125,52.516150212499994,64.0,71.0
58,52.5985031125,52.8940912,64.0,89.0
59,52.9514441125,53.1999734,62.0,62.0
60,53.3043851125,53.5190908875,62.0,81.0
61,53.657326112499995,53.8235025,62.0,85.0
62,54.010267112499996,54.291149325,62.0,89.0
63,54.3632081125,54.702913824999996,74.0,95.0
64,54.7161491125,54.8940902,73.0,95.0
65,55.0690901125,55.3632076125,66.0,83.0
66,55.4220311125,56.5279129125,69.0,88.0
67,57.1867361125,57.422030112499996,69.0,93.0
68,57.539677112499994,57.732324074999994,69.0,93.0
69,57.892618112499996,58.07644155,69.0,79.0
70,58.2455591125,58.85291175,71.0,95.0
71,59.3043821125,59.6587937,62.0,97.0
72,60.010264112499996,60.226440475,71.0,95.0
73,60.3632051125,60.633793212499995,71.0,97.0
74,60.7161461125,60.944087175,69.0,95.0
75,61.0690871125,61.2367340875,69.0,96.0
76,61.422028112499994,61.673498574999996,62.0,92.0
77,61.774969112499996,62.142615987499994,64.0,86.0
78,62.1279101125,63.161733125,66.0,97.0
79,63.539674112499995,63.785262225,66.0,92.0
80,63.892615112499996,64.1293797,67.0,88.0
81,64.2455561125,64.4690854125,67.0,89.0
82,64.5984971125,64.8779087375,67.0,93.0
83,64.9514381125,65.202908575,66.0,90.0
84,65.3043791125,65.52937899999999,64.0,81.0
85,65.6573201125,65.891143525,62.0,90.0
86,66.0102611125,66.202908075,64.0,92.0
87,66.36320211249999,66.9337900625,64.0,100.0
88,67.0690841125,68.1279071125,62.0,95.0
89,68.4808481125,68.702906825,74.0,96.0
90,68.8337891125,69.06467135,73.0,100.0
91,69.1867301125,69.37643589999999,74.0,99.0
92,69.5396711125,70.5955529375,71.0,100.0
93,70.59849411249999,70.879376325,71.0,102.0
94,71.3043761125,71.49555248749999,73.0,117.0
95,71.6573171125,71.9308463875,73.0,122.0
96,72.0102581125,72.1955521375,74.0,99.0
97,72.3631991125,72.6367283875,69.0,93.0
98,72.7161401125,72.9779046875,66.0,96.0
99,73.0690811125,73.314669225,69.0,92.0
100,73.4220221125,73.7131984375,64.0,93.0
101,73.7749631125,74.2249628875,66.0,96.0
102,74.8337861125,75.10437421249999,66.0,92.0
103,75.1867271125,75.46172697499999,67.0,85.0
104,75.5396681125,75.79113857499999,67.0,78.0
105,75.8926091125,76.14702075,67.0,96.0
106,76.2455501125,76.7131969375,74.0,100.0
107,76.9514321125,77.0940791,73.0,117.0
108,77.3043731125,77.64113764999999,73.0,102.0
109,77.6573141125,77.9411375,71.0,83.0
110,78.01025511249999,79.3529015,69.0,99.0
111,79.7749601125,79.98231295,69.0,95.0
112,80.1279011125,80.2661363375,69.0,86.0
113,80.4808421125,80.68966553749999,69.0,92.0
114,80.8337831125,81.5279004125,70.0,107.0
115,81.89260611249999,82.3661352875,78.0,107.0
116,82.5984881125,82.8073115375,76.0,112.0
117,82.9514291125,83.161723125,76.0,96.0
118,83.3043701125,83.48819354999999,76.0,100.0
119,83.6573111125,83.96466389999999,76.0,100.0
120,84.0102521125,84.2337814125,74.0,99.0
121,84.3631931125,84.59407535,73.0,112.0
122,84.7161341125,85.1337809625,74.0,112.0
123,86.12789811249999,86.3396627125,74.0,95.0
124,86.48083911249999,86.64848608749999,74.0,93.0
125,86.8337801125,87.04113294999999,66.0,102.0
126,87.1867211125,87.47348567499999,66.0,107.0
127,87.5396621125,87.764662,67.0,97.0
128,87.8926031125,88.12054417499999,67.0,107.0
129,88.2455441125,88.444073425,67.0,96.0
130,88.5984851125,88.7455438625,66.0,107.0
131,88.9514261125,89.6720139875,66.0,102.0
132,89.65730811249999,90.4602488875,64.0,95.0
133,91.0690721125,91.291130825,74.0,96.0
134,91.4220131125,91.65289535,73.0,100.0
135,91.7749541125,91.9646599,74.0,99.0
136,92.1278951125,93.1837769375,71.0,100.0
137,93.18671811249999,93.46760032499999,71.0,102.0
138,93.89260011249999,94.08377648749999,73.0,117.0
139,94.24554111249999,94.5190703875,73.0,122.0
140,94.5984821125,94.7837761375,74.0,99.0
141,94.9514231125,95.2249523875,69.0,93.0
142,95.3043641125,95.5661286875,66.0,96.0
143,95.6573051125,95.902893225,69.0,92.0
144,96.0102461125,96.3014224375,64.0,93.0
145,96.3631871125,96.8131868875,66.0,96.0
146,97.42201011249999,97.6925982125,66.0,92.0
147,97.77495111249999,98.049950975,67.0,85.0
148,98.12789211249999,98.379362575,67.0,78.0
149,98.4808331125,98.73524474999999,67.0,96.0
150,98.8337741125,99.3014209375,74.0,100.0
151,99.5396561125,99.6823031,73.0,117.0
152,99.8925971125,100.22936165,73.0,102.0
153,100.2455381125,100.5293615,71.0,83.0
154,100.5984791125,100.973478925,71.0,127.0
155,100.95142011249999,101.85583142499999,69.0,99.0
156,102.3631841125,102.57053694999999,69.0,95.0
157,102.7161251125,102.8543603375,69.0,86.0
158,103.0690661125,103.2778895375,69.0,92.0
159,103.4220071125,104.1161244125,70.0,107.0
160,104.4808301125,104.9543592875,78.0,107.0
161,105.18671211249999,105.3955355375,76.0,112.0
162,105.53965311249999,105.74994712499999,76.0,96.0
163,105.89259411249999,106.07641755,76.0,100.0
164,106.2455351125,106.5528879,76.0,100.0
165,106.5984761125,106.82200541249999,74.0,99.0
166,106.9514171125,107.18229935,73.0,112.0
167,107.3043581125,107.7220049625,74.0,112.0
168,108.71612211249999,108.9278867125,74.0,95.0
169,109.06906311249999,109.2367100875,74.0,93.0
170,109.42200411249999,109.62935695,66.0,102.0
171,109.77494511249999,110.06170967499999,66.0,107.0
172,110.1278861125,110.77641519999999,67.0,102.0
173,111.5396501125,111.74112059999999,74.0,117.0
174,111.8925911125,112.0602380875,74.0,97.0
175,112.2455321125,112.5367084375,67.0,112.0
176,112.59847311249999,112.82788476249999,66.0,107.0
177,112.95141411249999,113.6514137625,67.0,100.0
178,113.65729611249999,114.02641357499999,67.0,107.0
179,114.3631781125,114.7720014375,66.0,95.0
180,115.0690601125,116.967588575,62.0,96.0
181,119.6572931125,119.95435178749999,66.0,90.0
182,120.0102341125,120.208763425,67.0,89.0
183,120.36317511249999,121.1984688125,69.0,99.0
184,121.42199811249999,121.661703875,69.0,81.0
185,122.1278801125,122.39552703749999,69.0,92.0
186,122.4808211125,122.72346805,67.0,93.0
187,122.8337621125,123.1778795875,66.0,72.0
188,123.1867031125,123.4131735875,64.0,75.0
189,123.5396441125,123.89111452499999,64.0,66.0
190,123.8925851125,124.21317318749999,66.0,86.0
191,124.24552611249999,124.8072905375,64.0,89.0
192,124.95140811249999,125.09993745,64.0,83.0
193,125.30434911249999,125.6631724625,66.0,96.0
194,125.6572901125,125.92787821249999,64.0,71.0
195,126.0102311125,126.30581919999999,64.0,89.0
196,126.3631721125,126.6117014,62.0,62.0
197,126.7161131125,126.9308188875,62.0,81.0
198,127.0690541125,127.4219951125,62.0,85.0
199,127.4219951125,127.70287732499999,62.0,89.0
200,127.7749361125,128.114641825,74.0,95.0
201,128.1278771125,128.3058182,73.0,95.0
202,128.4808181125,128.7749356125,66.0,83.0
203,128.8337591125,129.93964091249998,69.0,88.0
204,130.9514051125,131.144052075,69.0,93.0
205,131.30434611249999,131.48816954999998,69.0,79.0
206,131.6572871125,132.26463975,71.0,95.0
207,132.7161101125,133.0705217,62.0,97.0
208,133.4219921125,133.638168475,71.0,95.0
209,133.77493311249998,134.0455212125,71.0,97.0
210,134.1278741125,134.355815175,69.0,95.0
211,134.48081511249998,134.6484620875,69.0,96.0
212,134.8337561125,135.085226575,62.0,92.0
213,135.18669711249998,135.5543439875,64.0,86.0
214,135.5396381125,135.7484615375,62.0,67.0
215,135.7161086125,136.749931625,66.0,97.0
216,136.9514021125,137.196990225,66.0,92.0
217,137.3043431125,137.5411077,67.0,88.0
218,137.65728411249998,137.8808134125,67.0,89.0
219,138.0102251125,138.2896367375,67.0,93.0
220,138.36316611249998,138.614636575,66.0,90.0
221,138.7161071125,138.941107,64.0,81.0
222,139.06904811249998,139.302871525,62.0,90.0
223,139.4219891125,139.52934199999999,66.0,97.0
224,139.7749301125,140.2822828,66.0,97.0
225,140.4808121125,141.5528704,64.0,85.0
226,142.24551711249998,142.5425757875,66.0,90.0
227,142.5984581125,142.796987425,67.0,89.0
228,142.95139911249998,143.7866928125,69.0,99.0
229,144.0102221125,144.249927875,69.0,81.0
230,144.7161041125,144.98375103749999,69.0,92.0
231,145.0690451125,145.31169205,67.0,93.0
232,145.42198611249998,145.7661035875,66.0,72.0
233,145.7749271125,146.00139758749998,64.0,75.0
234,146.12786811249998,146.479338525,64.0,66.0
235,146.4808091125,146.8013971875,66.0,86.0
236,146.83375011249998,147.3955145375,64.0,89.0
237,147.8925731125,148.2513964625,66.0,96.0
238,148.2455141125,148.5161022125,64.0,71.0
239,148.5984551125,148.8940432,64.0,89.0
240,148.9513961125,149.19992539999998,62.0,62.0
241,149.30433711249998,149.5190428875,62.0,81.0
242,149.6572781125,149.8234545,62.0,85.0
243,150.01021911249998,150.291101325,62.0,89.0
244,150.3631601125,150.702865825,74.0,95.0
245,150.71610111249998,150.8940422,73.0,95.0
246,151.0690421125,151.3631596125,66.0,83.0
247,151.4219831125,152.5278649125,69.0,88.0
248,153.18668811249998,153.4219821125,69.0,93.0
249,153.5396291125,153.732276075,69.0,93.0
250,153.89257011249998,154.07639355,69.0,79.0
251,154.2455111125,154.85286374999998,71.0,95.0
252,155.3043341125,155.6587457,62.0,97.0
253,156.0102161125,156.22639247499998,71.0,95.0
254,156.3631571125,156.6337452125,71.0,97.0
255,156.7160981125,156.944039175,69.0,95.0
256,157.06903911249998,157.2366860875,69.0,96.0
257,157.4219801125,157.673450575,62.0,92.0
258,157.77492111249998,158.1425679875,64.0,86.0
259,158.1278621125,159.161685125,66.0,97.0
260,159.5396261125,159.785214225,66.0,92.0
261,159.8925671125,160.1293317,67.0,88.0
262,160.2455081125,160.4690374125,67.0,89.0
263,160.5984491125,160.8778607375,67.0,93.0
264,160.95139011249998,161.202860575,66.0,90.0
265,161.3043311125,161.52933099999998,64.0,81.0
266,161.65727211249998,161.891095525,62.0,90.0
267,162.0102131125,162.202860075,64.0,92.0
268,162.36315411249998,162.9337420625,64.0,100.0
269,163.0690361125,164.1278591125,62.0,95.0
270,164.4808001125,164.702858825,74.0,96.0
271,164.83374111249998,165.06462335,73.0,100.0
272,165.1866821125,165.3763879,74.0,99.0
273,165.53962311249998,166.59550493749998,71.0,100.0
274,166.5984461125,166.879328325,71.0,102.0
275,167.3043281125,167.4955044875,73.0,117.0
276,167.6572691125,167.9307983875,73.0,122.0
277,168.0102101125,168.1955041375,74.0,99.0
278,168.3631511125,168.63668038749998,69.0,93.0
279,168.71609211249998,168.97785668749998,66.0,96.0
280,169.0690331125,169.314621225,69.0,92.0
281,169.42197411249998,169.7131504375,64.0,93.0
282,169.7749151125,170.2249148875,66.0,96.0
283,170.8337381125,171.10432621249998,66.0,92.0
284,171.1866791125,171.46167897499998,67.0,85.0
285,171.5396201125,171.791090575,67.0,78.0
286,171.8925611125,172.14697275,67.0,96.0
287,172.2455021125,172.7131489375,74.0,100.0
288,172.9513841125,173.0940311,73.0,117.0
289,173.30432511249998,173.64108965,73.0,102.0
290,173.6572661125,173.9410895,71.0,83.0
291,174.01020711249998,175.35285349999998,69.0,99.0
292,175.7749121125,175.98226495,69.0,95.0
293,176.1278531125,176.26608833749998,69.0,86.0
294,176.48079411249998,176.6896175375,69.0,92.0
295,176.8337351125,177.52785241249998,70.0,107.0
296,177.89255811249998,178.3660872875,78.0,107.0
297,178.5984401125,178.80726353749998,76.0,112.0
298,178.9513811125,179.161675125,76.0,96.0
299,179.3043221125,179.48814554999998,76.0,100.0
300,179.6572631125,179.96461589999998,76.0,100.0
301,180.0102041125,180.2337334125,74.0,99.0
302,180.36314511249998,180.59402735,73.0,112.0
303,180.7160861125,181.1337329625,74.0,112.0
304,182.1278501125,182.33961471249998,74.0,95.0
305,182.4807911125,182.64843808749998,74.0,93.0
306,182.8337321125,183.04108495,66.0,102.0
307,183.1866731125,183.47343767499999,66.0,107.0
308,183.5396141125,183.764614,67.0,97.0
309,183.8925551125,184.120496175,67.0,107.0
310,184.24549611249998,184.44402542499998,67.0,96.0
311,184.5984371125,184.74549586249998,66.0,107.0
312,184.95137811249998,185.6719659875,66.0,102.0
313,185.65726011249998,186.46020088749998,64.0,95.0
314,187.0690241125,187.291082825,74.0,96.0
315,187.4219651125,187.65284735,73.0,100.0
316,187.7749061125,187.9646119,74.0,99.0
317,188.12784711249998,189.18372893749998,71.0,100.0
318,189.1866701125,189.46755232499999,71.0,102.0
319,189.8925521125,190.0837284875,73.0,117.0
320,190.2454931125,190.5190223875,73.0,122.0
321,190.5984341125,190.7837281375,74.0,99.0
322,190.9513751125,191.2249043875,69.0,93.0
323,191.3043161125,191.5660806875,66.0,96.0
324,191.6572571125,191.902845225,69.0,92.0
325,192.01019811249998,192.3013744375,64.0,93.0
326,192.3631391125,192.8131388875,66.0,96.0
327,193.42196211249998,193.69255021249998,66.0,92.0
328,193.7749031125,194.04990297499998,67.0,85.0
329,194.1278441125,194.379314575,67.0,78.0
330,194.4807851125,194.73519675,67.0,96.0
331,194.8337261125,195.3013729375,74.0,100.0
332,195.5396081125,195.6822551,73.0,117.0
333,195.89254911249998,196.22931365,73.0,102.0
334,196.2454901125,196.5293135,71.0,83.0
335,196.59843111249998,196.973430925,71.0,127.0
336,196.9513721125,197.855783425,69.0,99.0
337,198.3631361125,198.57048895,69.0,95.0
338,198.7160771125,198.8543123375,69.0,86.0
339,199.0690181125,199.2778415375,69.0,92.0
340,199.4219591125,200.11607641249998,70.0,107.0
341,200.48078211249998,200.9543112875,78.0,107.0
342,201.18666411249998,201.3954875375,76.0,112.0
343,201.5396051125,201.74989912499998,76.0,96.0
344,201.89254611249999,202.07636954999998,76.0,100.0
345,202.2454871125,202.55283989999998,76.0,100.0
346,202.5984281125,202.82195741249998,74.0,99.0
347,202.9513691125,203.18225135,73.0,112.0
348,203.3043101125,203.7219569625,74.0,112.0
349,204.7160741125,204.92783871249998,74.0,95.0
350,205.06901511249998,205.23666208749998,74.0,93.0
351,205.4219561125,205.62930895,66.0,102.0
352,205.77489711249999,206.06166167499998,66.0,107.0
353,206.1278381125,206.4807791125,67.0,102.0
354,206.4807791125,206.702837825,67.0,112.0
355,206.8337201125,207.04548471249998,67.0,107.0
356,207.1866611125,207.3896021875,78.0,127.0
357,207.53960211249998,208.10283712499998,78.0,127.0
358,208.24548411249998,208.9896013875,76.0,122.0
359,209.65724811249999,209.879306825,74.0,96.0
360,210.0101891125,210.24107135,73.0,100.0
361,210.3631301125,210.5528359,74.0,99.0
362,210.7160711125,211.7719529375,71.0,100.0
363,211.7748941125,212.05577632499998,71.0,102.0
364,212.4807761125,212.6719524875,73.0,117.0
365,212.83371711249998,213.1072463875,73.0,122.0
366,213.1866581125,213.3719521375,74.0,99.0
367,213.53959911249999,213.8131283875,69.0,93.0
368,213.8925401125,214.1543046875,66.0,96.0
369,214.2454811125,214.491069225,69.0,92.0
370,214.5984221125,214.88959843749998,64.0,93.0
371,214.9513631125,215.4013628875,66.0,96.0
372,216.01018611249998,216.28077421249998,66.0,92.0
373,216.3631271125,216.63812697499998,67.0,85.0
374,216.71606811249998,216.967538575,67.0,78.0
375,217.0690091125,217.32342075,67.0,96.0
376,217.42195011249999,217.8895969375,74.0,100.0
377,218.1278321125,218.2704791,73.0,117.0
378,218.4807731125,218.81753765,73.0,102.0
379,218.8337141125,219.1175375,71.0,83.0
380,219.18665511249998,220.5293015,69.0,99.0
381,220.9513601125,221.15871295,69.0,95.0
382,221.30430111249999,221.4425363375,69.0,86.0
383,221.6572421125,221.8660655375,69.0,92.0
384,222.0101831125,222.7043004125,70.0,107.0
385,223.06900611249998,223.5425352875,78.0,107.0
386,223.77488811249998,223.9837115375,76.0,112.0
387,224.1278291125,224.33812312499998,76.0,96.0
388,224.48077011249998,224.66459354999998,76.0,100.0
389,224.8337111125,225.14106389999998,76.0,100.0
390,225.18665211249998,225.41018141249998,74.0,99.0
391,225.5395931125,225.77047535,73.0,112.0
392,225.8925341125,226.3101809625,74.0,112.0
393,227.3042981125,227.5160627125,74.0,95.0
394,227.65723911249998,227.82488608749998,74.0,93.0
395,228.0101801125,228.21753295,66.0,102.0
396,228.36312111249998,228.64988567499998,66.0,107.0
397,228.7160621125,228.941062,67.0,97.0
398,229.06900311249998,229.296944175,67.0,107.0
399,229.4219441125,229.620473425,67.0,96.0
400,229.7748851125,229.9219438625,66.0,107.0
401,230.1278261125,230.84841398749998,66.0,102.0
402,230.83370811249998,231.6366488875,64.0,95.0
403,232.24547211249998,232.46753082499998,74.0,96.0
404,232.5984131125,232.82929535,73.0,100.0
405,232.95135411249998,233.1410599,74.0,99.0
406,233.3042951125,234.3601769375,71.0,100.0
407,234.3631181125,234.64400032499998,71.0,102.0
408,235.0690001125,235.2601764875,73.0,117.0
409,235.42194111249998,235.6954703875,73.0,122.0
410,235.7748821125,235.96017613749999,74.0,99.0
411,236.12782311249998,236.4013523875,69.0,93.0
412,236.4807641125,236.7425286875,66.0,96.0
413,236.83370511249998,237.079293225,69.0,92.0
414,237.1866461125,237.47782243749998,64.0,93.0
415,237.5395871125,237.9895868875,66.0,96.0
416,238.59841011249998,238.8689982125,66.0,92.0
417,238.9513511125,239.226350975,67.0,85.0
418,239.30429211249998,239.555762575,67.0,78.0
419,239.6572331125,239.91164475,67.0,96.0
420,240.01017411249998,240.47782093749998,74.0,100.0
421,240.71605611249998,240.85870309999999,73.0,117.0
422,241.0689971125,241.40576165,73.0,102.0
423,241.4219381125,241.7057615,71.0,83.0
424,241.7748791125,242.149878925,71.0,127.0
425,242.1278201125,243.032231425,69.0,99.0
426,243.5395841125,243.74693695,69.0,95.0
427,243.89252511249998,244.0307603375,69.0,86.0
428,244.2454661125,244.4542895375,69.0,92.0
429,244.59840711249998,245.2925244125,70.0,107.0
430,245.6572301125,246.13075928749998,78.0,107.0
431,246.36311211249998,246.5719355375,76.0,112.0
432,246.7160531125,246.92634712499998,76.0,96.0
433,247.06899411249998,247.25281754999997,76.0,100.0
434,247.4219351125,247.7292879,76.0,100.0
435,247.77487611249998,247.99840541249998,74.0,99.0
436,248.1278171125,248.35869935,73.0,112.0
437,248.48075811249998,248.8984049625,74.0,112.0
438,249.8925221125,250.1042867125,74.0,95.0
439,250.24546311249998,250.4131100875,74.0,93.0
440,250.5984041125,250.80575695,66.0,102.0
441,250.95134511249998,251.23810967499998,66.0,107.0
442,251.3042861125,251.95281519999997,67.0,102.0
443,252.7160501125,252.9175206,74.0,117.0
444,253.0689911125,253.23663808749998,74.0,97.0
445,253.4219321125,253.71310843749998,67.0,112.0
446,253.7748731125,254.0042847625,66.0,107.0
447,254.12781411249998,254.8278137625,67.0,100.0
448,254.83369611249998,255.202813575,67.0,107.0
449,255.53957811249998,255.9484014375,66.0,95.0
450,256.2454601125,258.143988575,62.0,96.0
