,start,end,pitch,velocity
0,2.1279401124999997,3.2499983749999997,54.0,70.0
1,2.4808811125,3.279410125,59.0,65.0
2,3.5397041125,3.8867627624999996,54.0,39.0
3,3.1867631125,3.9661744875,62.0,56.0
4,1.7749991125,3.985292125,47.0,77.0
5,2.8338221125,4.3058802,66.0,102.0
6,3.8926451125,4.938232825,59.0,70.0
7,4.2455861125,5.0161739625,62.0,43.0
8,5.3044091125,6.0382322749999995,55.0,69.0
9,6.0102911125,6.7749966125,59.0,54.0
10,4.598527112499999,6.864702449999999,43.0,67.0
11,6.3632321124999995,6.8882318499999995,55.0,56.0
12,4.9514681125,6.9191141875,50.0,53.0
13,5.6573501125,7.4397021625,67.0,97.0
14,6.7161731125,7.4573492125,62.0,85.0
15,7.069114112499999,7.5044080125,59.0,60.0
16,8.1279371125,8.832348525,57.0,72.0
17,7.774996112499999,8.9838190375,52.0,76.0
18,9.1867601125,9.488230549999999,52.0,56.0
19,7.4220551125,9.549995225,45.0,82.0
20,8.833819112499999,9.697053975,61.0,78.0
21,9.892642112499999,10.279406625,61.0,82.0
22,8.4808781125,10.2838183875,64.0,93.0
23,9.5397011125,10.461759475,57.0,86.0
24,10.9514651125,11.8514646625,50.0,70.0
25,11.304406112499999,12.1882292,57.0,79.0
26,10.5985241125,12.397052624999999,45.0,48.0
27,10.2455831125,12.408817325,38.0,70.0
28,12.0102881125,12.5044055125,50.0,79.0
29,11.6573471125,12.8955817875,66.0,112.0
30,12.716170112499999,13.0749934625,57.0,81.0
31,12.3632291125,13.108816975,62.0,88.0
32,13.774993112499999,14.627933862499999,55.0,78.0
33,14.8338161125,15.114698324999999,55.0,82.0
34,13.4220521125,15.13528655,50.0,46.0
35,13.0691111125,15.141168899999998,43.0,75.0
36,14.4808751125,15.291168825,59.0,68.0
37,15.186757112499999,15.874992062499999,62.0,79.0
38,15.5396981125,15.8926391125,59.0,72.0
39,14.1279341125,15.8926391125,67.0,86.0
40,15.8926391125,16.649991675,42.0,78.0
41,16.2455801125,16.7411681,54.0,75.0
42,16.5985211125,17.2808737125,57.0,85.0
43,16.9514621125,17.514697124999998,66.0,96.0
44,17.6573441125,18.0588145,54.0,74.0
45,17.304403112499998,18.158814449999998,47.0,73.0
46,18.0102851125,18.755872975,66.0,96.0
47,19.0691081125,19.7132254375,47.0,56.0
48,18.7161671125,19.7249901375,40.0,74.0
49,19.422049112499998,19.8044018625,52.0,61.0
50,19.7749901125,20.151460512499998,55.0,85.0
51,20.4808721125,20.97057775,52.0,73.0
52,20.1279311125,20.979401275,45.0,74.0
53,21.186754112499997,21.54704805,61.0,56.0
54,20.8338131125,21.5779303875,64.0,86.0
55,22.245577112499998,23.1632237125,50.0,72.0
56,22.5985181125,23.691164625,57.0,85.0
57,23.304400112499998,23.832341024999998,50.0,62.0
58,21.5396951125,23.9661644875,38.0,69.0
59,21.8926361125,24.314693724999998,45.0,51.0
60,23.6573411125,24.510281862499998,62.0,54.0
61,22.9514591125,25.4220461125,66.0,102.0
62,25.069105112499997,25.895575287499998,50.0,58.0
63,25.4220461125,26.579398474999998,57.0,40.0
64,25.7749871125,26.658810199999998,66.0,93.0
65,24.7161641125,26.695574887499998,45.0,57.0
66,24.3632231125,26.69998665,38.0,72.0
67,26.127928112499998,26.7529278,50.0,50.0
68,26.4808691125,27.261751075,62.0,56.0
69,26.8338101125,27.294103999999997,66.0,72.0
70,27.5396921125,28.538221025,52.0,54.0
71,27.8926331125,29.289691237499998,57.0,50.0
72,27.186751112499998,29.3867500125,45.0,61.0
73,28.951456112499997,29.44116175,52.0,55.0
74,29.3043971125,30.020573225,61.0,99.0
75,29.6573381125,30.038220274999997,57.0,67.0
76,28.245574112499998,30.055867324999998,64.0,89.0
77,30.7161611125,31.307337287499998,59.0,58.0
78,30.3632201125,31.5308665875,54.0,58.0
79,31.7749841125,32.044101624999996,54.0,63.0
80,30.010279112499997,32.066160437499995,47.0,62.0
81,31.4220431125,32.079395725,59.0,66.0
82,32.1279251125,32.802924775,62.0,89.0
83,31.069102112499998,32.8823365,66.0,117.0
84,32.480866112499996,32.914689425,59.0,78.0
85,33.5396891125,34.370571049999995,54.0,72.0
86,34.245571112499995,34.5338062625,85.0,79.0
87,33.8926301125,34.767629674999995,57.0,73.0
88,33.1867481125,34.926453125,49.0,33.0
89,34.5838062375,35.05292365,81.0,73.0
90,32.8338071125,35.057335412499995,42.0,76.0
91,34.598512112499996,35.057335412499995,54.0,69.0
92,34.9573354625,35.307335287499996,78.0,74.0
93,34.9514531125,35.6455704125,61.0,68.0
94,34.245571112499995,35.7132174375,66.0,79.0
95,35.3043941125,35.78233505,57.0,85.0
96,36.363217112499996,37.267628425,55.0,82.0
97,37.4220401125,37.7176282,55.0,75.0
98,36.7161581125,37.7279223125,59.0,68.0
99,36.0102761125,37.767628175,50.0,57.0
100,35.6573351125,37.844098724999995,43.0,72.0
101,37.7749811125,38.4543925375,62.0,96.0
102,38.127922112499995,38.5161572125,59.0,79.0
103,37.0690991125,38.5190983875,67.0,96.0
104,38.480863112499996,39.764686,38.0,79.0
105,38.8338041125,39.7867448125,45.0,61.0
106,39.1867451125,39.84115655,50.0,82.0
107,39.5396861125,39.876450649999995,62.0,86.0
108,39.8926271125,40.574979712499996,51.0,92.0
109,40.5985091125,41.385273425,66.0,92.0
110,40.9514501125,41.392626362499996,63.0,58.0
111,40.245568112499996,41.46468515,59.0,76.0
112,42.010273112499995,42.8573315125,52.0,74.0
113,41.3043911125,43.444095925,40.0,73.0
114,41.6573321125,43.4485076875,47.0,50.0
115,42.363214112499996,43.5014488375,59.0,70.0
116,43.0690961125,43.55880175,52.0,61.0
117,43.4220371125,44.1573308625,64.0,72.0
118,43.7749781125,44.1838014375,59.0,82.0
119,42.7161551125,44.208801425,67.0,88.0
120,45.1867421125,45.608800724999995,61.0,112.0
121,44.8338011125,45.6632124625,57.0,97.0
122,45.892624112499995,46.208800425,57.0,70.0
123,44.127919112499995,46.55880025,45.0,78.0
124,44.4808601125,46.561741425,52.0,56.0
125,46.5985061125,46.938211824999996,57.0,95.0
126,46.245565112499996,46.944094175,61.0,93.0
127,45.5396831125,46.960270637499995,64.0,95.0
128,47.6573291125,48.4837992875,50.0,58.0
129,48.010270112499995,49.167622474999995,57.0,40.0
130,48.3632111125,49.247034199999995,66.0,93.0
131,47.3043881125,49.2837988875,45.0,57.0
132,46.9514471125,49.288210649999996,38.0,72.0
133,48.7161521125,49.3411518,50.0,50.0
134,49.0690931125,49.849975074999996,62.0,56.0
135,49.4220341125,49.882328,66.0,72.0
136,50.127916112499996,51.126445024999995,52.0,54.0
137,50.4808571125,51.8779152375,57.0,50.0
138,49.774975112499995,51.9749740125,45.0,61.0
139,51.5396801125,52.029385749999996,52.0,55.0
140,51.892621112499995,52.608797224999996,61.0,99.0
141,52.2455621125,52.626444275,57.0,67.0
142,50.8337981125,52.644091325,64.0,89.0
143,53.3043851125,53.895561287499994,59.0,58.0
144,52.9514441125,54.1190905875,54.0,58.0
145,54.3632081125,54.632325625,54.0,63.0
146,52.5985031125,54.6543844375,47.0,62.0
147,54.010267112499996,54.667619724999994,59.0,66.0
148,54.7161491125,55.391148775,62.0,89.0
149,53.657326112499995,55.4705605,66.0,117.0
150,55.0690901125,55.502913424999996,59.0,78.0
151,56.127913112499996,56.95879505,54.0,72.0
152,56.823501,57.210265512499994,85.0,89.0
153,56.4808541125,57.355853675,57.0,73.0
154,55.774972112499995,57.514677125,49.0,33.0
155,57.176441999999994,57.5985006125,81.0,89.0
156,55.4220311125,57.6455594125,42.0,76.0
157,57.1867361125,57.6455594125,54.0,89.0
158,57.529382999999996,57.904382812499996,78.0,90.0
159,57.882324,58.2132061875,76.0,84.0
160,57.539677112499994,58.233794412499996,61.0,89.0
161,56.8337951125,58.301441437499996,66.0,89.0
162,57.892618112499996,58.37055905,57.0,79.0
163,58.235265,58.9837940375,74.0,78.0
164,58.9514411125,59.855852424999995,55.0,82.0
165,60.010264112499996,60.3058522,55.0,75.0
166,59.3043821125,60.316146312499995,59.0,68.0
167,58.5985001125,60.355852174999995,50.0,57.0
168,58.2455591125,60.432322725,43.0,78.0
169,60.3632051125,61.042616537499995,62.0,96.0
170,60.7161461125,61.104381212499995,59.0,79.0
171,59.657323112499995,61.1073223875,67.0,96.0
172,61.0690871125,62.352909999999994,38.0,79.0
173,61.422028112499994,62.3749688125,45.0,61.0
174,61.774969112499996,62.42938055,50.0,82.0
175,62.1279101125,62.46467465,62.0,86.0
176,62.4808511125,63.1632037125,51.0,92.0
177,62.8337921125,63.892615112499996,59.0,76.0
178,63.539674112499995,63.892615112499996,63.0,58.0
179,63.186733112499994,63.892615112499996,66.0,92.0
180,63.892615112499996,64.685261775,40.0,79.0
181,64.2455561125,64.7220264625,47.0,79.0
182,64.5984971125,64.95879105,55.0,76.0
183,64.9514381125,65.3293791,59.0,86.0
184,65.6573201125,66.1632022125,52.0,52.0
185,65.3043791125,66.2249668875,45.0,70.0
186,66.0102611125,66.7926136625,64.0,88.0
187,67.4220251125,68.29996584999999,50.0,72.0
188,67.7749661125,68.6984950625,57.0,73.0
189,66.71614311249999,68.8940832,38.0,75.0
190,67.0690841125,68.9249655375,45.0,53.0
191,68.1279071125,68.99408315,66.0,117.0
192,68.4808481125,69.05878899999999,50.0,71.0
193,68.8337891125,69.25290654999999,64.0,83.0
194,69.1867301125,69.5396711125,62.0,107.0
195,69.8926121125,70.31172955,55.0,82.0
196,70.0690826125,70.32349425,59.0,76.0
197,69.5396711125,70.7837881375,43.0,74.0
198,70.4220236125,70.8543763375,55.0,66.0
199,69.7161416125,70.94849393749999,50.0,63.0
200,70.59849411249999,70.9896703875,62.0,74.0
201,70.7749646125,70.99555273749999,59.0,93.0
202,70.24555311249999,71.02937625,67.0,90.0
203,71.3043761125,71.5764348,57.0,88.0
204,71.4808466125,71.655846525,61.0,77.0
205,71.1279056125,71.71025826249999,52.0,63.0
206,71.8337876125,71.9411405,52.0,64.0
207,70.9514351125,71.98231695,45.0,77.0
208,71.6573171125,72.31172855,64.0,92.0
209,72.0102581125,72.3367285375,61.0,95.0
210,72.18672861249999,72.361728525,57.0,75.0
211,72.7161401125,73.11908108749999,54.0,82.0
212,72.8926106125,73.1529046,57.0,89.0
213,72.53966961249999,73.355845675,49.0,63.0
214,72.3631991125,73.36908096249999,42.0,69.0
215,73.2455516125,73.4661397375,54.0,85.0
216,73.4220221125,73.6602572875,61.0,89.0
217,73.0690811125,73.7176102,66.0,112.0
218,73.5984926125,73.81025721249999,57.0,88.0
219,74.3043746125,74.426433375,62.0,62.0
220,74.12790411249999,74.4426098375,59.0,76.0
221,73.9514336125,74.5337862625,54.0,79.0
222,74.6573156125,74.797021425,54.0,82.0
223,73.7749631125,74.80290377499999,47.0,65.0
224,74.48084511249999,74.98084486249999,66.0,112.0
225,74.8337861125,75.0573154125,62.0,99.0
226,75.0102566125,75.31172705,59.0,82.0
227,75.5396681125,75.95731496249999,52.0,66.0
228,75.7161386125,75.98231495,59.0,72.0
229,75.1867271125,76.18231485,40.0,68.0
230,75.3631976125,76.191138375,47.0,63.0
231,76.06907961249999,76.2543736375,52.0,66.0
232,75.8926091125,76.51760879999999,67.0,102.0
233,76.2455501125,76.5426087875,64.0,82.0
234,76.42202061249999,76.655844025,59.0,82.0
235,77.1279026125,77.2867260625,61.0,100.0
236,76.9514321125,77.2926084125,57.0,92.0
237,76.7749616125,77.408784825,52.0,50.0
238,77.4808436125,77.6837846875,52.0,75.0
239,76.5984911125,77.73525525,45.0,41.0
240,77.6573141125,77.8837845875,61.0,117.0
241,77.3043731125,77.91907868749999,64.0,88.0
242,77.8337846125,78.002902175,57.0,69.0
243,78.36319611249999,78.7426076875,50.0,93.0
244,78.5396666125,78.82348999999999,57.0,86.0
245,78.8926076125,79.2661368375,50.0,100.0
246,78.01025511249999,79.3176074,38.0,83.0
247,78.1867256125,79.3926073625,45.0,83.0
248,79.0690781125,79.53084258749999,57.0,86.0
249,79.2455486125,79.6484895875,62.0,102.0
250,78.7161371125,79.732313075,66.0,122.0
251,80.1279011125,80.41613626249999,60.0,107.0
252,79.95143061249999,80.420548025,57.0,97.0
253,80.30437161249999,80.5293715,62.0,97.0
254,79.4220191125,80.644077325,38.0,81.0
255,79.5984896125,80.69407729999999,45.0,86.0
256,79.7749601125,80.7279008125,50.0,96.0
257,80.4808421125,80.802900775,66.0,99.0
258,80.6573126125,80.8337831125,62.0,85.0
259,81.1867241125,81.6073121375,54.0,67.0
260,81.3631946125,81.6131944875,58.0,81.0
261,81.5396651125,81.9867237125,66.0,93.0
262,81.89260611249999,82.11025306249999,61.0,83.0
263,80.8337831125,82.12348835,42.0,86.0
264,81.0102536125,82.1955471375,49.0,62.0
265,81.7161356125,82.28819415,54.0,67.0
266,82.0690766125,82.40878232499999,58.0,97.0
267,82.5984881125,83.0367231875,54.0,77.0
268,82.7749586125,83.04113495,58.0,82.0
269,82.4220176125,83.22642897499999,49.0,36.0
270,82.24554711249999,83.255840725,42.0,72.0
271,83.1278996125,83.314664225,54.0,83.0
272,82.9514291125,83.4396641625,66.0,100.0
273,83.3043701125,83.5058406,61.0,97.0
274,83.48084061249999,83.64701699999999,58.0,99.0
275,84.18672261249999,84.332310775,62.0,68.0
276,84.0102521125,84.3661342875,59.0,61.0
277,83.83378161249999,84.4587813,54.0,78.0
278,84.5396636125,84.7161341125,54.0,76.0
279,83.6573111125,84.7514282125,47.0,56.0
280,84.3631931125,84.9720163375,66.0,122.0
281,84.7161341125,84.9867222125,62.0,92.0
282,84.8926046125,85.085251575,59.0,86.0
283,85.42201611249999,85.73083948749999,57.0,72.0
284,85.5984866125,85.7411336,61.0,89.0
285,85.2455456125,85.88819235,52.0,66.0
286,85.9514276125,86.07642754999999,52.0,59.0
287,85.0690751125,86.1528981,45.0,67.0
288,86.12789811249999,86.4190744375,61.0,97.0
289,85.77495711249999,86.432309725,64.0,100.0
290,86.3043686125,86.48083911249999,57.0,85.0
291,86.8337801125,87.24407402499999,52.0,81.0
292,87.0102506125,87.285250475,55.0,73.0
293,87.36319161249999,87.64848558749999,52.0,65.0
294,86.48083911249999,87.714662025,40.0,73.0
295,86.6573096125,87.844073725,47.0,78.0
296,87.71613261249999,87.9837795375,55.0,77.0
297,87.5396621125,87.99407364999999,59.0,74.0
298,87.1867211125,88.18230885,64.0,96.0
299,88.2455441125,88.6587792,52.0,71.0
300,88.42201461249999,88.673485075,55.0,72.0
301,87.8926031125,88.8705438,40.0,73.0
302,88.06907361249999,88.87642615,47.0,71.0
303,88.7749556125,88.9808378625,52.0,69.0
304,88.9514261125,89.24407302499999,59.0,79.0
305,88.5984851125,89.2867200625,64.0,99.0
306,89.1278966125,89.28819064999999,55.0,81.0
307,89.65730811249999,89.9573079625,57.0,71.0
308,89.8337786125,89.99848441249999,61.0,93.0
309,89.4808376125,90.0720137875,52.0,55.0
310,89.30436711249999,90.591131175,45.0,69.0
311,90.5396606125,90.6823076,57.0,95.0
312,90.1867196125,90.732307575,52.0,92.0
313,90.36319011249999,90.76466049999999,61.0,97.0
314,90.01024911249999,90.8426016375,64.0,97.0
315,91.0690721125,91.32054257499999,57.0,66.0
316,91.24554261249999,91.4573072125,61.0,99.0
317,90.8926016125,91.49848366249999,52.0,66.0
318,91.59848361249999,91.96318931249999,52.0,77.0
319,90.7161311125,91.9881893,45.0,78.0
320,91.7749541125,92.0955421875,61.0,95.0
321,91.4220131125,92.120542175,64.0,97.0
322,91.95142461249999,92.1308362875,57.0,89.0
323,92.4808361125,92.89995354999999,55.0,82.0
324,92.6573066125,92.91171824999999,59.0,76.0
325,92.1278951125,93.3720121375,43.0,74.0
326,93.0102476125,93.4426003375,55.0,66.0
327,92.30436561249999,93.5367179375,50.0,63.0
328,93.18671811249999,93.5778943875,62.0,74.0
329,93.3631886125,93.5837767375,59.0,93.0
330,92.8337771125,93.61760025,67.0,90.0
331,93.89260011249999,94.1646588,57.0,88.0
332,94.0690706125,94.244070525,61.0,77.0
333,93.7161296125,94.2984822625,52.0,63.0
334,94.4220116125,94.5293645,52.0,64.0
335,93.53965911249999,94.57054095,45.0,77.0
336,94.24554111249999,94.89995255,64.0,92.0
337,94.5984821125,94.92495253749999,61.0,95.0
338,94.7749526125,94.949952525,57.0,75.0
339,95.3043641125,95.70730508749999,54.0,82.0
340,95.48083461249999,95.7411286,57.0,89.0
341,95.12789361249999,95.944069675,49.0,63.0
342,94.9514231125,95.95730496249999,42.0,69.0
343,95.83377561249999,96.0543637375,54.0,85.0
344,96.0102461125,96.2484812875,61.0,89.0
345,95.6573051125,96.30583419999999,66.0,112.0
346,96.18671661249999,96.3984812125,57.0,88.0
347,96.8925986125,97.014657375,62.0,62.0
348,96.7161281125,97.0308338375,59.0,76.0
349,96.5396576125,97.1220102625,54.0,79.0
350,97.2455396125,97.385245425,54.0,82.0
351,96.3631871125,97.391127775,47.0,65.0
352,97.06906911249999,97.56906886249999,66.0,112.0
353,97.42201011249999,97.6455394125,62.0,99.0
354,97.5984806125,97.89995105,59.0,82.0
355,98.12789211249999,98.54553896249999,52.0,66.0
356,98.3043626125,98.57053895,59.0,72.0
357,97.77495111249999,98.77053885,40.0,68.0
358,97.9514216125,98.77936237499999,47.0,63.0
359,98.6573036125,98.84259763749999,52.0,66.0
360,98.4808331125,99.1058328,67.0,102.0
361,98.8337741125,99.1308327875,64.0,82.0
362,99.01024461249999,99.24406802499999,59.0,82.0
363,99.71612661249999,99.87495006249999,61.0,100.0
364,99.5396561125,99.8808324125,57.0,92.0
365,99.36318561249999,99.997008825,52.0,50.0
366,100.06906761249999,100.27200868749999,52.0,75.0
367,99.1867151125,100.32347924999999,45.0,41.0
368,100.2455381125,100.4720085875,61.0,117.0
369,99.8925971125,100.5073026875,64.0,88.0
370,100.4220086125,100.591126175,57.0,69.0
371,100.95142011249999,101.3308316875,50.0,93.0
372,101.1278906125,101.41171399999999,57.0,86.0
373,101.4808316125,101.8543608375,50.0,100.0
374,100.5984791125,101.9058314,38.0,83.0
375,100.7749496125,101.9808313625,45.0,83.0
376,101.65730211249999,102.1190665875,57.0,86.0
377,101.8337726125,102.23671358749999,62.0,102.0
378,101.30436111249999,102.32053707499999,66.0,122.0
379,102.7161251125,103.0043602625,60.0,107.0
380,102.5396546125,103.008772025,57.0,97.0
381,102.89259561249999,103.1175955,62.0,97.0
382,102.01024311249999,103.232301325,38.0,81.0
383,102.1867136125,103.2823013,45.0,86.0
384,102.3631841125,103.3161248125,50.0,96.0
385,103.0690661125,103.391124775,66.0,99.0
386,103.24553661249999,103.4220071125,62.0,85.0
387,103.7749481125,104.1955361375,54.0,67.0
388,103.95141861249999,104.20141848749999,58.0,81.0
389,104.1278891125,104.57494771249999,66.0,93.0
390,104.4808301125,104.69847706249999,61.0,83.0
391,103.4220071125,104.71171235,42.0,86.0
392,103.59847761249999,104.7837711375,49.0,62.0
393,104.3043596125,104.87641814999999,54.0,67.0
394,104.6573006125,104.997006325,58.0,97.0
395,105.18671211249999,105.6249471875,54.0,77.0
396,105.3631826125,105.62935895,58.0,82.0
397,105.0102416125,105.814652975,49.0,36.0
398,104.83377111249999,105.844064725,42.0,72.0
399,105.7161236125,105.902888225,54.0,83.0
400,105.53965311249999,106.02788816249999,66.0,100.0
401,105.89259411249999,106.0940646,61.0,97.0
402,106.0690646125,106.235241,58.0,99.0
403,106.77494661249999,106.920534775,62.0,68.0
404,106.5984761125,106.9543582875,59.0,61.0
405,106.4220056125,107.0470053,54.0,78.0
406,107.12788761249999,107.3043581125,54.0,76.0
407,106.2455351125,107.3396522125,47.0,56.0
408,106.9514171125,107.56024033749999,66.0,122.0
409,107.3043581125,107.5749462125,62.0,92.0
410,107.48082861249999,107.673475575,59.0,86.0
411,108.0102401125,108.31906348749999,57.0,72.0
412,108.1867106125,108.3293576,61.0,89.0
413,107.83376961249999,108.47641635,52.0,66.0
414,108.5396516125,108.66465155,52.0,59.0
415,107.6572991125,108.7411221,45.0,67.0
416,108.71612211249999,109.0072984375,61.0,97.0
417,108.3631811125,109.02053372499999,64.0,100.0
418,108.8925926125,109.06906311249999,57.0,85.0
419,109.42200411249999,109.832298025,52.0,81.0
420,109.5984746125,109.873474475,55.0,73.0
421,109.9514156125,110.2367095875,52.0,65.0
422,109.06906311249999,110.30288602499999,40.0,73.0
423,109.2455336125,110.432297725,47.0,78.0
424,110.3043566125,110.5720035375,55.0,77.0
425,110.1278861125,110.58229765,59.0,74.0
426,109.77494511249999,110.77053285,64.0,96.0
427,110.8337681125,111.2470032,52.0,71.0
428,111.01023861249999,111.261709075,55.0,72.0
429,110.4808271125,111.45876779999999,40.0,73.0
430,110.65729761249999,111.46465015,47.0,71.0
431,111.36317961249999,111.56906186249999,52.0,69.0
432,111.5396501125,111.83229702499999,59.0,79.0
433,111.1867091125,111.87494406249999,64.0,99.0
434,111.71612061249999,111.87641465,55.0,81.0
435,112.2455321125,112.5455319625,57.0,71.0
436,112.4220026125,112.5867084125,61.0,93.0
437,112.0690616125,112.6602377875,52.0,55.0
438,111.8925911125,113.179355175,45.0,69.0
439,113.1278846125,113.2705316,57.0,95.0
440,112.7749436125,113.32053157499999,52.0,92.0
441,112.95141411249999,113.3528845,61.0,97.0
442,112.59847311249999,113.43082563749999,64.0,97.0
443,113.65729611249999,113.908766575,57.0,66.0
444,113.8337666125,114.0455312125,61.0,99.0
445,113.4808256125,114.08670766249999,52.0,66.0
446,114.1867076125,114.55141331249999,52.0,77.0
447,113.30435511249999,114.5764133,45.0,78.0
448,114.3631781125,114.6837661875,61.0,95.0
449,114.0102371125,114.708766175,64.0,97.0
450,114.53964861249999,114.7190602875,57.0,89.0
451,115.4220011125,116.25288305,50.0,86.0
452,115.7749421125,116.5411182,57.0,78.0
453,114.7161191125,117.4470001,38.0,88.0
454,115.0690601125,117.597000025,45.0,54.0
455,116.48082411249999,117.70288232499999,50.0,69.0
456,116.83376511249999,117.92347045,64.0,75.0
457,117.18670611249999,117.92935279999999,62.0,67.0
458,116.1278831125,118.7808229625,66.0,107.0
459,118.2455291125,119.0190581375,50.0,60.0
460,117.8925881125,120.308763375,45.0,44.0
461,119.6572931125,120.3602339375,64.0,65.0
462,117.53964711249999,120.3690574625,38.0,78.0
463,120.36317511249999,120.3690574625,38.0,72.0
464,118.5984701125,120.37052804999999,57.0,53.0
465,119.3043521125,120.373469225,50.0,63.0
466,120.0102341125,120.3764104,62.0,56.0
467,118.9514111125,120.379351575,66.0,99.0
468,121.06905711249999,121.89552728749999,50.0,58.0
469,121.42199811249999,122.579350475,57.0,40.0
470,121.7749391125,122.6587622,66.0,93.0
471,120.71611611249999,122.6955268875,45.0,57.0
472,122.1278801125,122.75287979999999,50.0,50.0
473,122.4808211125,123.261703075,62.0,56.0
474,122.8337621125,123.294056,66.0,72.0
475,123.5396441125,124.53817302499999,52.0,54.0
476,123.8925851125,125.28964323749999,57.0,50.0
477,123.1867031125,125.3867020125,45.0,61.0
478,124.95140811249999,125.44111375,52.0,55.0
479,125.30434911249999,126.020525225,61.0,99.0
480,125.6572901125,126.038172275,57.0,67.0
481,124.24552611249999,126.05581932499999,64.0,89.0
482,126.7161131125,127.3072892875,59.0,58.0
483,126.3631721125,127.5308185875,54.0,58.0
484,127.7749361125,128.044053625,54.0,63.0
485,126.0102311125,128.06611243749998,47.0,62.0
486,127.4219951125,128.079347725,59.0,66.0
487,128.1278771125,128.802876775,62.0,89.0
488,127.0690541125,128.8822885,66.0,117.0
489,128.4808181125,128.91464142499999,59.0,78.0
490,129.5396411125,130.37052305,54.0,72.0
491,130.235229,130.64111115,85.0,89.0
492,129.89258211249998,130.767581675,57.0,73.0
493,129.1867001125,130.926405125,49.0,33.0
494,130.58817,130.97934627499998,81.0,52.0
495,128.8337591125,131.0572874125,42.0,76.0
496,130.59846411249998,131.0572874125,54.0,49.0
497,130.941111,131.49552248749998,78.0,58.0
498,130.9514051125,131.6455224125,61.0,57.0
499,130.2455231125,131.7131694375,66.0,80.0
500,131.30434611249999,131.78228705,57.0,85.0
501,132.3631691125,133.267580425,55.0,82.0
502,133.4219921125,133.7175802,55.0,75.0
503,132.7161101125,133.7278743125,59.0,68.0
504,132.0102281125,133.767580175,50.0,57.0
505,131.6572871125,133.844050725,43.0,72.0
506,133.77493311249998,134.4543445375,62.0,96.0
507,134.1278741125,134.5161092125,59.0,79.0
508,133.0690511125,134.5190503875,67.0,96.0
509,134.48081511249998,135.764638,38.0,79.0
510,134.8337561125,135.7866968125,45.0,61.0
511,135.18669711249998,135.84110855,50.0,82.0
512,135.5396381125,135.87640265,62.0,86.0
513,135.8925791125,136.5749317125,51.0,92.0
514,136.5984611125,137.385225425,66.0,92.0
515,136.9514021125,137.3925783625,63.0,58.0
516,136.2455201125,137.46463715,59.0,76.0
517,138.0102251125,138.8572835125,52.0,74.0
518,137.3043431125,139.444047925,40.0,73.0
519,137.65728411249998,139.4484596875,47.0,50.0
520,138.36316611249998,139.5014008375,59.0,70.0
521,139.06904811249998,139.55875375,52.0,61.0
522,139.4219891125,140.15728286249998,64.0,72.0
523,139.7749301125,140.1837534375,59.0,82.0
524,138.7161071125,140.208753425,67.0,88.0
525,141.1866941125,141.608752725,61.0,112.0
526,140.8337531125,141.6631644625,57.0,97.0
527,141.8925761125,142.208752425,57.0,70.0
528,140.1278711125,142.55875225,45.0,78.0
529,140.4808121125,142.561693425,52.0,56.0
530,142.5984581125,142.938163825,57.0,95.0
531,142.24551711249998,142.94404617499998,61.0,93.0
532,141.53963511249998,142.96022263749998,64.0,95.0
533,143.6572811125,144.48375128749998,50.0,58.0
534,144.0102221125,145.16757447499998,57.0,40.0
535,144.3631631125,145.24698619999998,66.0,93.0
536,143.3043401125,145.2837508875,45.0,57.0
537,142.95139911249998,145.28816265,38.0,72.0
538,144.7161041125,145.34110379999998,50.0,50.0
539,145.0690451125,145.84992707499998,62.0,56.0
540,145.42198611249998,145.88227999999998,66.0,72.0
541,146.12786811249998,147.126397025,52.0,54.0
542,146.4808091125,147.8778672375,57.0,50.0
543,145.7749271125,147.9749260125,45.0,61.0
544,147.5396321125,148.02933775,52.0,55.0
545,147.8925731125,148.608749225,61.0,99.0
546,148.2455141125,148.626396275,57.0,67.0
547,146.83375011249998,148.64404332499998,64.0,89.0
548,149.30433711249998,149.8955132875,59.0,58.0
549,148.9513961125,150.1190425875,54.0,58.0
550,150.3631601125,150.632277625,54.0,63.0
551,148.5984551125,150.6543364375,47.0,62.0
552,150.01021911249998,150.667571725,59.0,66.0
553,150.71610111249998,151.39110077499998,62.0,89.0
554,149.6572781125,151.47051249999998,66.0,117.0
555,151.0690421125,151.50286542499998,59.0,78.0
556,152.1278651125,152.95874705,54.0,72.0
557,152.823453,153.1749234125,85.0,70.0
558,152.4808061125,153.355805675,57.0,73.0
559,151.7749241125,153.514629125,49.0,33.0
560,153.176394,153.549923225,81.0,68.0
561,151.4219831125,153.64551141249999,42.0,76.0
562,153.18668811249998,153.64551141249999,54.0,68.0
563,153.529335,153.861687775,78.0,58.0
564,153.5396291125,154.23374641249998,61.0,59.0
565,153.882276,154.2690405125,76.0,56.0
566,152.8337471125,154.3013934375,66.0,70.0
567,153.89257011249998,154.37051105,57.0,56.0
568,154.235217,154.87639314999998,74.0,64.0
569,154.9513931125,155.855804425,55.0,82.0
570,156.0102161125,156.30580419999998,55.0,75.0
571,155.3043341125,156.3160983125,59.0,68.0
572,154.59845211249998,156.355804175,50.0,57.0
573,154.2455111125,156.43227472499998,43.0,65.0
574,156.3631571125,157.0425685375,62.0,96.0
575,156.7160981125,157.1043332125,59.0,79.0
576,155.6572751125,157.10727438749998,67.0,96.0
577,157.06903911249998,158.352862,38.0,79.0
578,157.4219801125,158.3749208125,45.0,61.0
579,157.77492111249998,158.42933255,50.0,82.0
580,158.1278621125,158.46462664999999,62.0,86.0
581,158.48080311249998,159.1631557125,51.0,92.0
582,158.8337441125,159.8925671125,59.0,76.0
583,159.5396261125,159.8925671125,63.0,58.0
584,159.1866851125,159.8925671125,66.0,92.0
585,159.8925671125,160.685213775,40.0,79.0
586,160.2455081125,160.7219784625,47.0,79.0
587,160.5984491125,160.95874304999998,55.0,76.0
588,160.95139011249998,161.3293311,59.0,86.0
589,161.65727211249998,162.1631542125,52.0,52.0
590,161.3043311125,162.2249188875,45.0,70.0
591,162.0102131125,162.79256566249998,64.0,88.0
592,163.4219771125,164.29991784999999,50.0,72.0
593,163.7749181125,164.69844706249998,57.0,73.0
594,162.7160951125,164.8940352,38.0,75.0
595,163.0690361125,164.9249175375,45.0,53.0
596,164.1278591125,164.99403515,66.0,117.0
597,164.4808001125,165.058741,50.0,71.0
598,164.83374111249998,165.25285854999998,64.0,83.0
599,165.1866821125,165.53962311249998,62.0,107.0
600,165.8925641125,166.31168155,55.0,82.0
601,166.0690346125,166.32344625,59.0,76.0
602,165.53962311249998,166.7837401375,43.0,74.0
603,166.4219756125,166.8543283375,55.0,66.0
604,165.7160936125,166.9484459375,50.0,63.0
605,166.5984461125,166.9896223875,62.0,74.0
606,166.7749166125,166.9955047375,59.0,93.0
607,166.24550511249998,167.02932825,67.0,90.0
608,167.3043281125,167.5763868,57.0,88.0
609,167.4807986125,167.655798525,61.0,77.0
610,167.12785761249998,167.7102102625,52.0,63.0
611,167.83373961249998,167.9410925,52.0,64.0
612,166.9513871125,167.98226895,45.0,77.0
613,167.6572691125,168.31168055,64.0,92.0
614,168.0102101125,168.3366805375,61.0,95.0
615,168.1866806125,168.361680525,57.0,75.0
616,168.71609211249998,169.1190330875,54.0,82.0
617,168.8925626125,169.15285659999998,57.0,89.0
618,168.53962161249999,169.355797675,49.0,63.0
619,168.3631511125,169.3690329625,42.0,69.0
620,169.2455036125,169.4660917375,54.0,85.0
621,169.42197411249998,169.66020928749998,61.0,89.0
622,169.0690331125,169.7175622,66.0,112.0
623,169.5984446125,169.81020921249998,57.0,88.0
624,170.3043266125,170.426385375,62.0,62.0
625,170.12785611249998,170.4425618375,59.0,76.0
626,169.9513856125,170.53373826249998,54.0,79.0
627,170.6572676125,170.796973425,54.0,82.0
628,169.7749151125,170.80285577499998,47.0,65.0
629,170.4807971125,170.9807968625,66.0,112.0
630,170.8337381125,171.05726741249998,62.0,99.0
631,171.01020861249998,171.31167904999998,59.0,82.0
632,171.5396201125,171.9572669625,52.0,66.0
633,171.71609061249998,171.98226695,59.0,72.0
634,171.1866791125,172.18226685,40.0,68.0
635,171.3631496125,172.191090375,47.0,63.0
636,172.0690316125,172.2543256375,52.0,66.0
637,171.8925611125,172.51756079999998,67.0,102.0
638,172.2455021125,172.54256078749998,64.0,82.0
639,172.42197261249999,172.655796025,59.0,82.0
640,173.1278546125,173.2866780625,61.0,100.0
641,172.9513841125,173.2925604125,57.0,92.0
642,172.7749136125,173.408736825,52.0,50.0
643,173.4807956125,173.6837366875,52.0,75.0
644,172.59844311249998,173.73520725,45.0,41.0
645,173.6572661125,173.88373658749998,61.0,117.0
646,173.30432511249998,173.9190306875,64.0,88.0
647,173.8337366125,174.00285417499998,57.0,69.0
648,174.3631481125,174.7425596875,50.0,93.0
649,174.5396186125,174.823442,57.0,86.0
650,174.89255961249998,175.26608883749998,50.0,100.0
651,174.01020711249998,175.3175594,38.0,83.0
652,174.1866776125,175.39255936249998,45.0,83.0
653,175.0690301125,175.5307945875,57.0,86.0
654,175.2455006125,175.6484415875,62.0,102.0
655,174.7160891125,175.732265075,66.0,122.0
656,176.1278531125,176.41608826249998,60.0,107.0
657,175.9513826125,176.420500025,57.0,97.0
658,176.30432361249999,176.5293235,62.0,97.0
659,175.4219711125,176.644029325,38.0,81.0
660,175.59844161249998,176.69402929999998,45.0,86.0
661,175.7749121125,176.7278528125,50.0,96.0
662,176.48079411249998,176.802852775,66.0,99.0
663,176.6572646125,176.8337351125,62.0,85.0
664,177.18667611249998,177.60726413749998,54.0,67.0
665,177.3631466125,177.6131464875,58.0,81.0
666,177.5396171125,177.9866757125,66.0,93.0
667,177.89255811249998,178.1102050625,61.0,83.0
668,176.8337351125,178.12344034999998,42.0,86.0
669,177.0102056125,178.19549913749998,49.0,62.0
670,177.7160876125,178.28814615,54.0,67.0
671,178.0690286125,178.40873432499998,58.0,97.0
672,178.5984401125,179.03667518749998,54.0,77.0
673,178.77491061249998,179.04108695,58.0,82.0
674,178.4219696125,179.22638097499998,49.0,36.0
675,178.2454991125,179.255792725,42.0,72.0
676,179.1278516125,179.31461622499998,54.0,83.0
677,178.9513811125,179.4396161625,66.0,100.0
678,179.3043221125,179.50579259999998,61.0,97.0
679,179.48079261249998,179.64696899999998,58.0,99.0
680,180.18667461249998,180.332262775,62.0,68.0
681,180.0102041125,180.3660862875,59.0,61.0
682,179.8337336125,180.4587333,54.0,78.0
683,180.5396156125,180.7160861125,54.0,76.0
684,179.6572631125,180.75138021249998,47.0,56.0
685,180.36314511249998,180.9719683375,66.0,122.0
686,180.7160861125,180.9866742125,62.0,92.0
687,180.8925566125,181.08520357499998,59.0,86.0
688,181.4219681125,181.7307914875,57.0,72.0
689,181.5984386125,181.7410856,61.0,89.0
690,181.2454976125,181.88814435,52.0,66.0
691,181.9513796125,182.07637954999998,52.0,59.0
692,181.06902711249998,182.1528501,45.0,67.0
693,182.1278501125,182.41902643749998,61.0,97.0
694,181.77490911249998,182.432261725,64.0,100.0
695,182.3043206125,182.4807911125,57.0,85.0
696,182.8337321125,183.24402602499998,52.0,81.0
697,183.0102026125,183.285202475,55.0,73.0
698,183.36314361249998,183.64843758749998,52.0,65.0
699,182.4807911125,183.714614025,40.0,73.0
700,182.65726161249998,183.844025725,47.0,78.0
701,183.7160846125,183.98373153749998,55.0,77.0
702,183.5396141125,183.99402565,59.0,74.0
703,183.1866731125,184.18226085,64.0,96.0
704,184.24549611249998,184.6587312,52.0,71.0
705,184.4219666125,184.67343707499998,55.0,72.0
706,183.8925551125,184.8704958,40.0,73.0
707,184.06902561249998,184.87637815,47.0,71.0
708,184.7749076125,184.9807898625,52.0,69.0
709,184.95137811249998,185.24402502499998,59.0,79.0
710,184.5984371125,185.2866720625,64.0,99.0
711,185.1278486125,185.28814265,55.0,81.0
712,185.65726011249998,185.9572599625,57.0,71.0
713,185.8337306125,185.99843641249998,61.0,93.0
714,185.4807896125,186.0719657875,52.0,55.0
715,185.3043191125,186.591083175,45.0,69.0
716,186.53961261249998,186.68225959999998,57.0,95.0
717,186.1866716125,186.732259575,52.0,92.0
718,186.3631421125,186.7646125,61.0,97.0
719,186.0102011125,186.8425536375,64.0,97.0
720,187.0690241125,187.320494575,57.0,66.0
721,187.24549461249998,187.4572592125,61.0,99.0
722,186.8925536125,187.4984356625,52.0,66.0
723,187.5984356125,187.9631413125,52.0,77.0
724,186.7160831125,187.9881413,45.0,78.0
725,187.7749061125,188.09549418749998,61.0,95.0
726,187.4219651125,188.120494175,64.0,97.0
727,187.95137661249998,188.1307882875,57.0,89.0
728,188.4807881125,188.89990555,55.0,82.0
729,188.6572586125,188.91167025,59.0,76.0
730,188.12784711249998,189.3719641375,43.0,74.0
731,189.0101996125,189.4425523375,55.0,66.0
732,188.3043176125,189.5366699375,50.0,63.0
733,189.1866701125,189.5778463875,62.0,74.0
734,189.3631406125,189.5837287375,59.0,93.0
735,188.83372911249998,189.61755225,67.0,90.0
736,189.8925521125,190.1646108,57.0,88.0
737,190.0690226125,190.244022525,61.0,77.0
738,189.7160816125,190.2984342625,52.0,63.0
739,190.42196361249998,190.5293165,52.0,64.0
740,189.53961111249998,190.57049295,45.0,77.0
741,190.2454931125,190.89990455,64.0,92.0
742,190.5984341125,190.9249045375,61.0,95.0
743,190.7749046125,190.949904525,57.0,75.0
744,191.3043161125,191.70725708749998,54.0,82.0
745,191.4807866125,191.7410806,57.0,89.0
746,191.12784561249998,191.944021675,49.0,63.0
747,190.9513751125,191.9572569625,42.0,69.0
748,191.83372761249998,192.0543157375,54.0,85.0
749,192.01019811249998,192.24843328749998,61.0,89.0
750,191.6572571125,192.3057862,66.0,112.0
751,192.1866686125,192.39843321249998,57.0,88.0
752,192.8925506125,193.014609375,62.0,62.0
753,192.71608011249998,193.0307858375,59.0,76.0
754,192.5396096125,193.12196226249998,54.0,79.0
755,193.2454916125,193.385197425,54.0,82.0
756,192.3631391125,193.39107977499998,47.0,65.0
757,193.0690211125,193.5690208625,66.0,112.0
758,193.42196211249998,193.64549141249998,62.0,99.0
759,193.5984326125,193.89990304999998,59.0,82.0
760,194.1278441125,194.5454909625,52.0,66.0
761,194.30431461249998,194.57049095,59.0,72.0
762,193.7749031125,194.77049085,40.0,68.0
763,193.9513736125,194.77931437499998,47.0,63.0
764,194.6572556125,194.84254963749999,52.0,66.0
765,194.4807851125,195.10578479999998,67.0,102.0
766,194.8337261125,195.1307847875,64.0,82.0
767,195.01019661249998,195.244020025,59.0,82.0
768,195.71607861249998,195.87490206249998,61.0,100.0
769,195.5396081125,195.8807844125,57.0,92.0
770,195.3631376125,195.996960825,52.0,50.0
771,196.0690196125,196.27196068749998,52.0,75.0
772,195.1866671125,196.32343125,45.0,41.0
773,196.2454901125,196.47196058749998,61.0,117.0
774,195.89254911249998,196.5072546875,64.0,88.0
775,196.4219606125,196.59107817499998,57.0,69.0
776,196.9513721125,197.3307836875,50.0,93.0
777,197.1278426125,197.411666,57.0,86.0
778,197.4807836125,197.8543128375,50.0,100.0
779,196.59843111249998,197.9057834,38.0,83.0
780,196.7749016125,197.98078336249998,45.0,83.0
781,197.6572541125,198.1190185875,57.0,86.0
782,197.8337246125,198.2366655875,62.0,102.0
783,197.30431311249998,198.32048907499998,66.0,122.0
784,198.7160771125,199.00431226249998,60.0,107.0
785,198.5396066125,199.008724025,57.0,97.0
786,198.89254761249998,199.1175475,62.0,97.0
787,198.01019511249999,199.232253325,38.0,81.0
788,198.18666561249998,199.28225329999998,45.0,86.0
789,198.3631361125,199.3160768125,50.0,96.0
790,199.0690181125,199.391076775,66.0,99.0
791,199.2454886125,199.4219591125,62.0,85.0
792,199.77490011249998,200.19548813749998,54.0,67.0
793,199.9513706125,200.2013704875,58.0,81.0
794,200.1278411125,200.57489971249998,66.0,93.0
795,200.48078211249998,200.6984290625,61.0,83.0
796,199.4219591125,200.71166434999998,42.0,86.0
797,199.59842961249998,200.7837231375,49.0,62.0
798,200.3043116125,200.87637014999999,54.0,67.0
799,200.6572526125,200.99695832499998,58.0,97.0
800,201.18666411249998,201.62489918749998,54.0,77.0
801,201.3631346125,201.62931095,58.0,82.0
802,201.0101936125,201.81460497499998,49.0,36.0
803,200.8337231125,201.844016725,42.0,72.0
804,201.7160756125,201.90284022499998,54.0,83.0
805,201.5396051125,202.02784016249998,66.0,100.0
806,201.89254611249999,202.0940166,61.0,97.0
807,202.06901661249998,202.23519299999998,58.0,99.0
808,202.77489861249998,202.920486775,62.0,68.0
809,202.5984281125,202.9543102875,59.0,61.0
810,202.4219576125,203.0469573,54.0,78.0
811,203.1278396125,203.3043101125,54.0,76.0
812,202.2454871125,203.33960421249998,47.0,56.0
813,202.9513691125,203.56019233749998,66.0,122.0
814,203.3043101125,203.5748982125,62.0,92.0
815,203.48078061249998,203.67342757499998,59.0,86.0
816,204.0101921125,204.3190154875,57.0,72.0
817,204.1866626125,204.3293096,61.0,89.0
818,203.8337216125,204.47636835,52.0,66.0
819,204.5396036125,204.66460354999998,52.0,59.0
820,203.65725111249998,204.7410741,45.0,67.0
821,204.7160741125,205.00725043749998,61.0,97.0
822,204.36313311249998,205.020485725,64.0,100.0
823,204.8925446125,205.06901511249998,57.0,85.0
824,205.4219561125,205.83225002499998,52.0,81.0
825,205.5984266125,205.873426475,55.0,73.0
826,205.95136761249998,206.23666158749998,52.0,65.0
827,205.06901511249998,206.302838025,40.0,73.0
828,205.24548561249998,206.432249725,47.0,78.0
829,206.3043086125,206.5719555375,55.0,77.0
830,206.1278381125,206.58224965,59.0,74.0
831,205.77489711249999,206.77048485,64.0,96.0
832,206.8337201125,207.2469552,52.0,71.0
833,207.0101906125,207.26166107499998,55.0,72.0
834,206.4807791125,207.45871979999998,40.0,73.0
835,206.65724961249998,207.46460215,47.0,71.0
836,207.36313161249998,207.5690138625,52.0,69.0
837,207.53960211249998,207.83224902499998,59.0,79.0
838,207.1866611125,207.8748960625,64.0,99.0
839,207.7160726125,207.87636665,55.0,81.0
840,208.24548411249998,208.5454839625,57.0,71.0
841,208.4219546125,208.58666041249998,61.0,93.0
842,208.0690136125,208.6601897875,52.0,55.0
843,207.8925431125,209.179307175,45.0,69.0
844,209.12783661249998,209.27048359999998,57.0,95.0
845,208.7748956125,209.320483575,52.0,92.0
846,208.95136611249998,209.3528365,61.0,97.0
847,208.5984251125,209.4307776375,64.0,97.0
848,209.65724811249999,209.908718575,57.0,66.0
849,209.83371861249998,210.0454832125,61.0,99.0
850,209.4807776125,210.08665966249998,52.0,66.0
851,210.1866596125,210.5513653125,52.0,77.0
852,209.3043071125,210.5763653,45.0,78.0
853,210.3631301125,210.68371818749998,61.0,95.0
854,210.0101891125,210.708718175,64.0,97.0
855,210.53960061249998,210.7160711125,57.0,89.0
856,211.0690121125,211.48812955,55.0,82.0
857,211.24548261249998,211.49989424999998,59.0,76.0
858,210.7160711125,211.96018813749998,43.0,74.0
859,211.5984236125,212.0307763375,55.0,66.0
860,210.8925416125,212.1248939375,50.0,63.0
861,211.7748941125,212.16607038749999,62.0,74.0
862,211.9513646125,212.1719527375,59.0,93.0
863,211.42195311249998,212.20577624999999,67.0,90.0
864,212.4807761125,212.7528348,57.0,88.0
865,212.6572466125,212.832246525,61.0,77.0
866,212.3043056125,212.8866582625,52.0,63.0
867,213.01018761249998,213.1175405,52.0,64.0
868,212.12783511249998,213.15871694999998,45.0,77.0
869,212.83371711249998,213.48812855,64.0,92.0
870,213.1866581125,213.5131285375,61.0,95.0
871,213.3631286125,213.538128525,57.0,75.0
872,213.8925401125,214.29548108749998,54.0,82.0
873,214.0690106125,214.3293046,57.0,89.0
874,213.71606961249998,214.53224567499998,49.0,63.0
875,213.53959911249999,214.5454809625,42.0,69.0
876,214.42195161249998,214.6425397375,54.0,85.0
877,214.5984221125,214.8366572875,61.0,89.0
878,214.2454811125,214.8940102,66.0,112.0
879,214.7748926125,214.98665721249998,57.0,88.0
880,215.4807746125,215.602833375,62.0,62.0
881,215.30430411249998,215.6190098375,59.0,76.0
882,215.12783361249998,215.7101862625,54.0,79.0
883,215.8337156125,215.973421425,54.0,82.0
884,214.9513631125,215.97930377499998,47.0,65.0
885,215.6572451125,216.1572448625,66.0,112.0
886,216.01018611249998,216.2337154125,62.0,99.0
887,216.1866566125,216.48812705,59.0,82.0
888,216.71606811249998,217.1337149625,52.0,66.0
889,216.89253861249998,217.15871495,59.0,72.0
890,216.3631271125,217.35871484999998,40.0,68.0
891,216.5395976125,217.36753837499998,47.0,63.0
892,217.2454796125,217.43077363749998,52.0,66.0
893,217.0690091125,217.69400879999998,67.0,102.0
894,217.42195011249999,217.7190087875,64.0,82.0
895,217.59842061249998,217.832244025,59.0,82.0
896,218.30430261249998,218.46312606249998,61.0,100.0
897,218.1278321125,218.4690084125,57.0,92.0
898,217.9513616125,218.585184825,52.0,50.0
899,218.6572436125,218.86018468749998,52.0,75.0
900,217.7748911125,218.91165525,45.0,41.0
901,218.8337141125,219.0601845875,61.0,117.0
902,218.4807731125,219.0954786875,64.0,88.0
903,219.01018461249998,219.179302175,57.0,69.0
904,219.5395961125,219.9190076875,50.0,93.0
905,219.7160666125,219.99989,57.0,86.0
906,220.0690076125,220.4425368375,50.0,100.0
907,219.18665511249998,220.4940074,38.0,83.0
908,219.3631256125,220.5690073625,45.0,83.0
909,220.2454781125,220.7072425875,57.0,86.0
910,220.4219486125,220.8248895875,62.0,102.0
911,219.89253711249998,220.90871307499998,66.0,122.0
912,221.30430111249999,221.59253626249998,60.0,107.0
913,221.1278306125,221.596948025,57.0,97.0
914,221.48077161249998,221.7057715,62.0,97.0
915,220.59841911249998,221.82047732499998,38.0,81.0
916,220.77488961249998,221.87047729999998,45.0,86.0
917,220.9513601125,221.9043008125,50.0,96.0
918,221.6572421125,221.97930077499998,66.0,99.0
919,221.8337126125,222.0101831125,62.0,85.0
920,222.3631241125,222.7837121375,54.0,67.0
921,222.5395946125,222.78959448749998,58.0,81.0
922,222.7160651125,223.16312371249998,66.0,93.0
923,223.06900611249998,223.2866530625,61.0,83.0
924,222.0101831125,223.29988835,42.0,86.0
925,222.18665361249998,223.3719471375,49.0,62.0
926,222.89253561249998,223.46459414999998,54.0,67.0
927,223.2454766125,223.58518232499998,58.0,97.0
928,223.77488811249998,224.2131231875,54.0,77.0
929,223.9513586125,224.21753495,58.0,82.0
930,223.5984176125,224.40282897499998,49.0,36.0
931,223.4219471125,224.43224072499999,42.0,72.0
932,224.3042996125,224.491064225,54.0,83.0
933,224.1278291125,224.61606416249998,66.0,100.0
934,224.48077011249998,224.6822406,61.0,97.0
935,224.65724061249998,224.82341699999998,58.0,99.0
936,225.36312261249998,225.508710775,62.0,68.0
937,225.18665211249998,225.5425342875,59.0,61.0
938,225.0101816125,225.6351813,54.0,78.0
939,225.7160636125,225.8925341125,54.0,76.0
940,224.8337111125,225.9278282125,47.0,56.0
941,225.5395931125,226.14841633749998,66.0,122.0
942,225.8925341125,226.16312221249999,62.0,92.0
943,226.06900461249998,226.261651575,59.0,86.0
944,226.5984161125,226.9072394875,57.0,72.0
945,226.77488661249998,226.91753359999998,61.0,89.0
946,226.4219456125,227.06459235,52.0,66.0
947,227.1278276125,227.25282754999998,52.0,59.0
948,226.2454751125,227.3292981,45.0,67.0
949,227.3042981125,227.5954744375,61.0,97.0
950,226.95135711249998,227.60870972499998,64.0,100.0
951,227.4807686125,227.65723911249998,57.0,85.0
952,228.0101801125,228.42047402499998,52.0,81.0
953,228.1866506125,228.461650475,55.0,73.0
954,228.53959161249998,228.82488558749998,52.0,65.0
955,227.65723911249998,228.891062025,40.0,73.0
956,227.8337096125,229.020473725,47.0,78.0
957,228.8925326125,229.1601795375,55.0,77.0
958,228.7160621125,229.17047365,59.0,74.0
959,228.36312111249998,229.35870885,64.0,96.0
960,229.4219441125,229.8351792,52.0,71.0
961,229.5984146125,229.849885075,55.0,72.0
962,229.06900311249998,230.04694379999998,40.0,73.0
963,229.24547361249998,230.05282615,47.0,71.0
964,229.95135561249998,230.15723786249998,52.0,69.0
965,230.1278261125,230.42047302499998,59.0,79.0
966,229.7748851125,230.4631200625,64.0,99.0
967,230.3042966125,230.46459065,55.0,81.0
968,230.83370811249998,231.13370796249998,57.0,71.0
969,231.0101786125,231.17488441249998,61.0,93.0
970,230.65723761249998,231.2484137875,52.0,55.0
971,230.4807671125,231.767531175,45.0,69.0
972,231.7160606125,231.8587076,57.0,95.0
973,231.3631196125,231.908707575,52.0,92.0
974,231.53959011249998,231.9410605,61.0,97.0
975,231.1866491125,232.0190016375,64.0,97.0
976,232.24547211249998,232.496942575,57.0,66.0
977,232.42194261249998,232.63370721249998,61.0,99.0
978,232.0690016125,232.67488366249998,52.0,66.0
979,232.7748836125,233.1395893125,52.0,77.0
980,231.8925311125,233.1645893,45.0,78.0
981,232.95135411249998,233.2719421875,61.0,95.0
982,232.5984131125,233.296942175,64.0,97.0
983,233.12782461249998,233.3072362875,57.0,89.0
984,233.6572361125,234.07635355,55.0,82.0
985,233.83370661249998,234.08811824999998,59.0,76.0
986,233.3042951125,234.54841213749998,43.0,74.0
987,234.1866476125,234.61900033749998,55.0,66.0
988,233.4807656125,234.7131179375,50.0,63.0
989,234.3631181125,234.75429438749998,62.0,74.0
990,234.53958861249998,234.7601767375,59.0,93.0
991,234.0101771125,234.79400024999998,67.0,90.0
992,235.0690001125,235.34105879999998,57.0,88.0
993,235.2454706125,235.42047052499998,61.0,77.0
994,234.8925296125,235.4748822625,52.0,63.0
995,235.5984116125,235.7057645,52.0,64.0
996,234.71605911249998,235.74694094999998,45.0,77.0
997,235.42194111249998,236.07635255,64.0,92.0
998,235.7748821125,236.1013525375,61.0,95.0
999,235.9513526125,236.126352525,57.0,75.0
1000,236.4807641125,236.88370508749998,54.0,82.0
1001,236.6572346125,236.9175286,57.0,89.0
1002,236.30429361249998,237.12046967499998,49.0,63.0
1003,236.12782311249998,237.1337049625,42.0,69.0
1004,237.01017561249998,237.23076373749998,54.0,85.0
1005,237.1866461125,237.4248812875,61.0,89.0
1006,236.83370511249998,237.4822342,66.0,112.0
1007,237.3631166125,237.5748812125,57.0,88.0
1008,238.0689986125,238.19105737499999,62.0,62.0
1009,237.8925281125,238.20723383749998,59.0,76.0
1010,237.71605761249998,238.2984102625,54.0,79.0
1011,238.42193961249998,238.561645425,54.0,82.0
1012,237.5395871125,238.567527775,47.0,65.0
1013,238.2454691125,238.7454688625,66.0,112.0
1014,238.59841011249998,238.8219394125,62.0,99.0
1015,238.7748806125,239.07635105,59.0,82.0
1016,239.30429211249998,239.7219389625,52.0,66.0
1017,239.4807626125,239.74693895,59.0,72.0
1018,238.9513511125,239.94693884999998,40.0,68.0
1019,239.1278216125,239.95576237499998,47.0,63.0
1020,239.8337036125,240.01899763749998,52.0,66.0
1021,239.6572331125,240.2822328,67.0,102.0
1022,240.01017411249998,240.3072327875,64.0,82.0
1023,240.18664461249998,240.420468025,59.0,82.0
1024,240.89252661249998,241.05135006249998,61.0,100.0
1025,240.71605611249998,241.05723241249999,57.0,92.0
1026,240.5395856125,241.173408825,52.0,50.0
1027,241.2454676125,241.44840868749998,52.0,75.0
1028,240.3631151125,241.49987925,45.0,41.0
1029,241.4219381125,241.6484085875,61.0,117.0
1030,241.0689971125,241.6837026875,64.0,88.0
1031,241.59840861249998,241.767526175,57.0,69.0
1032,242.1278201125,242.5072316875,50.0,93.0
1033,242.30429061249998,242.588114,57.0,86.0
1034,242.6572316125,243.0307608375,50.0,100.0
1035,241.7748791125,243.08223139999998,38.0,83.0
1036,241.9513496125,243.1572313625,45.0,83.0
1037,242.8337021125,243.2954665875,57.0,86.0
1038,243.01017261249999,243.4131135875,62.0,102.0
1039,242.48076111249998,243.49693707499998,66.0,122.0
1040,243.89252511249998,244.1807602625,60.0,107.0
1041,243.7160546125,244.18517202499999,57.0,97.0
1042,244.06899561249998,244.2939955,62.0,97.0
1043,243.18664311249998,244.40870132499998,38.0,81.0
1044,243.3631136125,244.4587013,45.0,86.0
1045,243.5395841125,244.4925248125,50.0,96.0
1046,244.2454661125,244.56752477499998,66.0,99.0
1047,244.4219366125,244.59840711249998,62.0,85.0
1048,244.9513481125,245.3719361375,54.0,67.0
1049,245.1278186125,245.37781848749998,58.0,81.0
1050,245.3042891125,245.75134771249998,66.0,93.0
1051,245.6572301125,245.8748770625,61.0,83.0
1052,244.59840711249998,245.88811235,42.0,86.0
1053,244.77487761249998,245.9601711375,49.0,62.0
1054,245.48075961249998,246.05281814999998,54.0,67.0
1055,245.8337006125,246.173406325,58.0,97.0
1056,246.36311211249998,246.8013471875,54.0,77.0
1057,246.5395826125,246.80575894999998,58.0,82.0
1058,246.18664161249998,246.991052975,49.0,36.0
1059,246.0101711125,247.02046472499998,42.0,72.0
1060,246.89252361249999,247.079288225,54.0,83.0
1061,246.7160531125,247.20428816249998,66.0,100.0
1062,247.06899411249998,247.2704646,61.0,97.0
1063,247.2454646125,247.41164099999997,58.0,99.0
1064,247.95134661249998,248.096934775,62.0,68.0
1065,247.77487611249998,248.1307582875,59.0,61.0
1066,247.5984056125,248.2234053,54.0,78.0
1067,248.3042876125,248.48075811249998,54.0,76.0
1068,247.4219351125,248.5160522125,47.0,56.0
1069,248.1278171125,248.73664033749998,66.0,122.0
1070,248.48075811249998,248.75134621249998,62.0,92.0
1071,248.65722861249998,248.849875575,59.0,86.0
1072,249.1866401125,249.4954634875,57.0,72.0
1073,249.36311061249998,249.50575759999998,61.0,89.0
1074,249.0101696125,249.65281635,52.0,66.0
1075,249.7160516125,249.84105154999997,52.0,59.0
1076,248.8336991125,249.91752209999999,45.0,67.0
1077,249.8925221125,250.1836984375,61.0,97.0
1078,249.5395811125,250.19693372499998,64.0,100.0
1079,250.06899261249998,250.24546311249998,57.0,85.0
1080,250.5984041125,252.449873775,47.0,60.0
1081,250.95134511249998,252.46605023749999,52.0,76.0
1082,250.24546311249998,252.49840316249998,40.0,92.0
1083,251.3042861125,253.04840288749998,64.0,69.0
1084,251.3042861125,253.0822264,67.0,75.0
1085,251.3042861125,253.0984028625,59.0,70.0
1086,253.7748731125,254.9719313375,57.0,47.0
1087,253.4219321125,255.56310751249998,52.0,56.0
1088,253.0689911125,255.62634277499998,45.0,88.0
1089,254.12781411249998,255.7601662375,61.0,78.0
1090,255.1866371125,255.773401525,57.0,71.0
1091,254.12781411249998,255.78222505,64.0,78.0
1092,255.9336955625,257.9101651625,38.0,85.0
1093,256.31310713749997,257.9572239625,45.0,42.0
1094,256.6366363875,258.0484003875,50.0,74.0
1095,256.949871525,258.22634147499997,57.0,60.0
1096,257.2954595875,258.3836943375,66.0,97.0
1097,257.999871,258.4160472625,62.0,88.0
1098,258.8116353,260.18957578749996,62.0,85.0
1099,258.8101647125,260.23663458749996,59.0,79.0
1100,260.1513405125,260.255752225,67.0,82.0
1101,259.69545838749997,260.3572227625,55.0,79.0
1102,258.7984000125,260.62634027499996,43.0,82.0
1103,259.255752725,260.755751975,50.0,56.0
1104,260.7072225875,261.12486943749997,58.0,90.0
1105,260.71310493749996,261.1660458875,62.0,88.0
1106,261.5983986125,262.4719275875,55.0,52.0
1107,261.14692825,262.68810394999997,50.0,40.0
1108,262.091045425,262.726339225,67.0,64.0
1109,260.72781081249997,262.802809775,43.0,88.0
1110,263.00575084999997,263.067515525,40.0,38.0
1111,262.585162825,263.4704565,74.0,82.0
1112,261.64839858749997,263.5175153,70.0,75.0
1113,264.0807503125,264.34692665,54.0,48.0
1114,264.33516195,264.3998678,57.0,61.0
1115,264.56163242499997,264.9454557625,62.0,77.0
1116,264.7895734875,265.058691,66.0,54.0
1117,265.05280865,265.12339685,69.0,58.0
1118,265.29986735,266.4101609125,74.0,58.0
1119,265.57045545,266.4395726625,78.0,55.0
1120,265.891043525,266.4542785375,81.0,57.0
1121,266.34692565,266.51457262499997,86.0,53.0
1122,263.5881035,267.5881015,45.0,39.0
1123,263.84692689999997,267.5925132625,50.0,73.0
1124,263.26457425,267.6219250125,38.0,86.0
1125,267.3248663375,267.8542778375,98.0,46.0
1126,267.08074881249996,267.855748425,90.0,37.0
1127,267.02339589999997,267.8660425375,86.0,33.0
1128,267.20574875,267.86751312499996,93.0,35.0
