,start,end,pitch,velocity
0,2.732637795833333,4.4479148875,79.0,107.0
1,4.399303795833333,6.059025354166667,86.0,127.0
2,6.065969795833333,7.732635795833333,84.0,127.0
3,7.732635795833333,9.312496274999999,77.0,107.0
4,9.399301795833333,11.065967795833332,86.0,127.0
5,11.45832875,12.152772916666667,89.0,127.0
6,12.315967295833333,12.4687450125,86.0,122.0
7,12.524300545833333,12.675342152083333,89.0,112.0
8,12.628467170833332,12.729161575,86.0,97.0
9,12.732633795833333,14.008674952083332,84.0,97.0
10,14.399299795833333,16.013882483333333,79.0,122.0
11,16.065965795833332,17.876728960416667,82.0,127.0
12,18.149298295833333,19.29165895,79.0,107.0
13,19.39929779583333,20.970477722916666,84.0,127.0
14,21.065963795833333,21.795130170833332,77.0,122.0
15,21.899296795833333,22.272560535416666,82.0,127.0
16,22.31596329583333,22.685754814583333,84.0,97.0
17,22.732629795833333,24.796865081249997,86.0,127.0
18,24.782976197916664,25.33853153125,89.0,117.0
19,25.649295295833333,25.80033690208333,86.0,127.0
20,25.788184129166666,25.90450352708333,89.0,100.0
21,25.9270729625,26.015614593749998,86.0,117.0
22,26.06596179583333,27.472211233333333,84.0,102.0
23,27.73262779583333,29.319432716666665,91.0,127.0
24,29.39929379583333,34.81422218541667,91.0,127.0
25,63.56594679583333,63.94094664583333,67.0,97.0
26,63.98261329583333,64.312474275,74.0,99.0
27,64.39927979583334,66.05552913333332,74.0,97.0
28,70.23261079583332,70.63018008124999,67.0,99.0
29,70.64927729583333,70.95830495,72.0,95.0
30,71.06594379583333,72.49649877916666,72.0,90.0
31,73.56594279583332,73.91142876875,77.0,112.0
32,73.98260929583333,74.24823418958333,79.0,96.0
33,74.39927579583333,74.64233125416666,79.0,99.0
34,74.60760904583333,74.79858119166666,77.0,66.0
35,74.81594229583332,75.89233075416666,74.0,99.0
36,76.89927479583334,77.62670506041667,74.0,100.0
37,77.73260779583333,79.88885693333333,79.0,117.0
38,80.23260679583333,80.56767610624999,79.0,96.0
39,80.64927329583332,80.78642601874999,70.0,90.0
40,80.85760654583333,80.98607871666667,72.0,83.0
41,81.06593979583333,82.70482802916666,72.0,93.0
42,83.56593879583333,83.97218863333333,72.0,100.0
43,83.98260529583332,84.38885513333332,74.0,107.0
44,84.39927179583333,85.81941011666666,77.0,100.0
45,86.89927079583333,87.16489568958333,72.0,122.0
46,87.31593729583332,87.50343722083333,72.0,122.0
47,87.52427054583333,87.73607601666666,74.0,68.0
48,87.73260379583333,88.1353814125,70.0,107.0
49,88.56593679583332,88.79683948124999,70.0,127.0
50,88.77427004583333,88.9478810875,72.0,89.0
51,88.98260329583333,89.03815882916666,72.0,50.0
52,88.98260329583333,89.22045042291666,74.0,93.0
53,89.19093654583332,89.40447812708332,77.0,97.0
54,88.14927029583333,89.4895475375,67.0,99.0
55,89.39926979583333,92.19440756666665,74.0,99.0
56,116.06592579583332,116.87321713958333,82.0,127.0
57,116.89925879583333,117.66488348958333,84.0,122.0
58,117.73259179583333,120.26036856249999,86.0,127.0
59,120.23259079583333,120.48606291666665,82.0,127.0
60,120.44092404583333,120.58502121041666,84.0,117.0
61,120.85759054583333,123.31592289583332,84.0,127.0
62,123.56592279583333,123.97911707499999,84.0,112.0
63,123.98258929583332,124.41835301041667,86.0,127.0
64,124.39925579583333,126.80897705416666,89.0,122.0
65,126.48258829583332,126.84196315208332,86.0,122.0
66,126.89925479583333,127.29856019166667,89.0,122.0
67,127.31592129583332,127.72737946458332,86.0,127.0
68,127.73258779583333,130.10237851458334,84.0,127.0
69,130.23258679583333,130.61453108749998,82.0,127.0
70,130.64925329583332,130.99647537916667,84.0,117.0
71,131.06591979583334,133.41140496875,86.0,127.0
72,133.5659187958333,133.96869641249998,79.0,112.0
73,133.98258529583333,134.39230735416666,82.0,127.0
74,134.39925179583332,136.69438976666666,77.0,102.0
75,136.89925079583332,137.26904231458332,82.0,127.0
76,137.31591729583332,137.6353616125,84.0,117.0
77,137.73258379583334,138.03813922916666,86.0,127.0
78,138.14925029583333,140.2186939125,89.0,122.0
79,140.23258279583334,140.61626319791665,79.0,127.0
80,140.64924929583333,141.04161025,82.0,122.0
81,141.06591579583332,147.51730210416665,79.0,127.0
82,148.56591279583333,148.94091264583332,67.0,97.0
83,148.98257929583332,149.312440275,74.0,99.0
84,149.39924579583334,151.05549513333332,74.0,97.0
85,155.23257679583332,155.63014608125,67.0,99.0
86,155.64924329583332,155.95827094999999,72.0,95.0
87,156.06590979583333,157.49646477916667,72.0,90.0
88,158.56590879583334,158.91139476875,77.0,112.0
89,158.98257529583333,159.24820018958332,79.0,96.0
90,159.39924179583332,159.64229725416666,79.0,99.0
91,159.60757504583333,159.79854719166667,77.0,66.0
92,159.81590829583334,160.89229675416667,74.0,99.0
93,161.89924079583332,162.62667106041667,74.0,100.0
94,162.73257379583333,164.88882293333333,79.0,117.0
95,165.23257279583333,165.56764210625,79.0,96.0
96,165.64923929583333,165.78639201874998,70.0,90.0
97,165.85757254583334,165.98604471666667,72.0,83.0
98,166.06590579583332,167.70479402916666,72.0,93.0
99,168.56590479583332,168.97215463333333,72.0,100.0
100,168.98257129583334,169.38882113333332,74.0,107.0
101,169.39923779583333,170.81937611666666,77.0,100.0
102,171.89923679583333,172.16486168958332,72.0,122.0
103,172.31590329583332,172.50340322083332,72.0,122.0
104,172.52423654583333,172.73604201666666,74.0,68.0
105,172.7325697958333,173.13534741249998,70.0,107.0
106,173.56590279583332,173.79680548125,70.0,127.0
107,173.77423604583333,173.94784708749998,72.0,89.0
108,173.98256929583331,174.03812482916666,72.0,50.0
109,173.98256929583331,174.22041642291666,74.0,93.0
110,174.19090254583332,174.40444412708334,77.0,97.0
111,173.14923629583333,174.4895135375,67.0,99.0
112,174.39923579583333,177.19437356666666,74.0,99.0
113,186.06589779583334,186.30374492291665,86.0,127.0
114,186.48256429583333,186.66832811041667,86.0,127.0
115,186.69089754583334,186.89228635416666,89.0,107.0
116,186.89923079583332,187.1283973708333,84.0,102.0
117,187.10756404583333,187.30721674375,86.0,102.0
118,187.3158972958333,187.71520269166666,89.0,100.0
119,187.73256379583333,189.34020204166666,86.0,122.0
120,201.72908597499998,201.78290539791666,62.0,89.0
121,201.72908597499998,201.79158594999998,50.0,89.0
122,201.92005812083332,201.98603031666664,50.0,96.0
123,201.92005812083332,201.98603031666664,62.0,96.0
124,202.11450248749998,202.16658579999998,50.0,103.0
125,202.104085825,202.17700246249998,62.0,102.0
126,202.30373852291666,202.36797460833333,50.0,109.0
127,202.31589129583332,202.36797460833333,62.0,109.0
128,202.51728010416664,202.64748838541666,50.0,117.0
129,202.50686344166667,202.64748838541666,62.0,117.0
130,214.39921979583332,214.63706692291666,86.0,127.0
131,214.8158862958333,215.00165011041665,86.0,127.0
132,215.02421954583332,215.22560835416667,89.0,107.0
133,215.23255279583333,215.46171937083332,84.0,102.0
134,215.4408860458333,215.64053874375,86.0,102.0
135,215.64921929583332,216.04852469166664,89.0,100.0
136,216.0658857958333,217.67352404166667,86.0,122.0
137,236.48254429583332,237.69955769791665,79.0,117.0
138,237.73254379583332,239.26900151458332,86.0,127.0
139,239.39920979583331,241.09365356249998,84.0,127.0
140,241.0658757958333,241.90788934791667,79.0,117.0
141,241.89920879583332,242.71691680208332,82.0,127.0
142,242.73254179583333,247.84017864166665,79.0,112.0
