,start,end,pitch,velocity
0,35.23262479583333,35.6145690875,67.0,107.0
1,35.64929129583333,35.93054118333333,74.0,96.0
2,36.065957795833334,37.87324873958333,74.0,117.0
3,38.56595679583333,38.854151125,74.0,112.0
4,38.98262329583333,39.27949817708333,72.0,102.0
5,39.39928979583333,40.939219735416664,72.0,93.0
6,41.89928879583333,42.270816425,67.0,99.0
7,42.315955295833334,42.611094066666666,72.0,99.0
8,42.73262179583333,44.59546827291666,72.0,102.0
9,46.06595379583333,46.470467522916664,77.0,102.0
10,46.48262029583333,48.33678622083333,74.0,99.0
11,48.56595279583333,49.18227199375,74.0,112.0
12,49.39928579583333,51.11282677708333,79.0,122.0
13,51.89928479583333,52.241298547916664,79.0,107.0
14,52.31595129583333,52.49129844791666,70.0,112.0
15,52.52428454583333,52.623242839583334,72.0,86.0
16,52.73261779583333,54.70831145,72.0,100.0
17,55.23261679583333,55.63365830208333,72.0,99.0
18,55.64928329583333,56.036435918749994,74.0,102.0
19,56.06594979583333,57.24303265833333,77.0,112.0
20,58.56594879583333,58.76907371458333,70.0,122.0
21,58.98261529583333,59.225670754166664,70.0,127.0
22,59.19094854583333,59.37324013958333,72.0,77.0
23,59.39928179583333,59.770809424999996,70.0,102.0
24,59.81594829583333,61.06594779583333,67.0,95.0
25,61.89928079583333,62.265600093749995,67.0,100.0
26,62.31594729583333,62.62323883958333,74.0,102.0
27,62.73261379583333,63.895807774999994,74.0,122.0
28,65.23261279583333,65.6353904125,74.0,122.0
29,65.64927929583332,65.95136250833333,72.0,112.0
30,66.06594579583333,68.13712552291666,72.0,102.0
31,68.56594479583333,68.94962519791666,67.0,107.0
32,68.98261129583332,69.29163894999999,72.0,99.0
33,69.39927779583333,71.23434650624999,72.0,112.0
34,71.89927679583333,72.33156828958333,77.0,112.0
35,72.31594329583334,72.7395542375,79.0,90.0
36,72.73260979583333,73.16316517916667,77.0,97.0
37,73.14927629583333,74.9687200125,74.0,96.0
38,75.23260879583333,75.9895529375,74.0,117.0
39,76.06594179583333,78.03816322916666,79.0,127.0
40,78.56594079583333,78.9166351,79.0,92.0
41,78.98260729583333,79.19614887708333,70.0,99.0
42,79.19094054583333,79.31767660624999,72.0,96.0
43,79.39927379583332,81.44441186666666,72.0,95.0
44,81.89927279583333,82.25517543125,72.0,99.0
45,82.31593929583333,82.70830025,74.0,117.0
46,82.73260579583332,84.26211907291666,77.0,112.0
47,85.23260479583332,85.50864635208333,72.0,117.0
48,85.64927129583333,85.83156288958332,72.0,122.0
49,85.85760454583333,86.00343782083333,74.0,90.0
50,86.06593779583334,86.47218763333333,70.0,117.0
51,86.48260429583333,88.83677002083333,67.0,96.0
52,89.39926979583333,89.69961689791666,74.0,117.0
53,89.81593629583332,90.062463975,74.0,102.0
54,90.23260279583333,90.61107486666666,74.0,107.0
55,90.64926929583334,90.9687136125,82.0,127.0
56,91.06593579583333,91.89926879583332,79.0,117.0
57,92.31593529583333,92.49822688958332,77.0,112.0
58,92.52426854583332,92.62322683958332,79.0,93.0
59,92.73260179583333,93.11454608749999,79.0,127.0
60,93.14926829583332,93.4895459375,77.0,97.0
61,93.56593479583333,93.90621243749999,72.0,95.0
62,93.98260129583333,94.29683728124999,79.0,112.0
63,94.39926779583332,95.21003136041666,77.0,112.0
64,96.06593379583333,96.28641981874999,72.0,100.0
65,96.48260029583332,96.74301685833333,72.0,102.0
66,96.89926679583333,97.13016948125,72.0,102.0
67,97.31593329583333,97.54162765,74.0,112.0
68,97.73259979583332,98.07982187916666,72.0,122.0
69,98.14926629583333,98.4999606,70.0,112.0
70,98.56593279583333,99.11454368749999,67.0,102.0
71,99.39926579583333,99.64058514374999,70.0,127.0
72,99.81593229583333,99.90273781666666,67.0,102.0
73,100.02426554583333,100.13884883333333,67.0,97.0
74,100.23259879583333,100.53815422916666,79.0,112.0
75,100.64926529583333,100.94961239791667,77.0,127.0
76,101.06593179583332,102.36627849791667,74.0,127.0
77,102.73259779583333,102.98086158541666,74.0,107.0
78,103.14926429583333,103.38711142291666,74.0,97.0
79,103.56593079583332,103.82808346875,74.0,100.0
80,103.98259729583333,104.27773606666666,82.0,122.0
81,104.39926379583333,105.72044382291666,79.0,127.0
82,105.64926329583332,105.81766600625,77.0,97.0
83,105.85759654583333,105.99474926875,79.0,100.0
84,106.06592979583333,106.47391574375,82.0,127.0
85,106.69092954583333,106.86974891874999,79.0,117.0
86,106.89926279583332,107.12842937083333,77.0,107.0
87,107.31592929583333,107.47565145416667,72.0,97.0
88,107.52426254583332,107.69440136666667,77.0,97.0
89,107.73259579583333,108.49127604791666,74.0,127.0
90,109.39926179583333,109.64752558541666,72.0,107.0
91,109.81592829583333,110.04856709166665,72.0,100.0
92,110.23259479583332,110.51731690416666,72.0,112.0
93,110.64926129583333,110.94787228749999,74.0,127.0
94,111.06592779583333,111.35759434583333,79.0,127.0
95,111.48259429583332,111.64578867499999,77.0,107.0
96,111.69092754583333,112.60759384583332,74.0,99.0
97,112.73259379583332,112.99127424791666,77.0,112.0
98,113.14926029583333,113.29162135,77.0,112.0
99,113.35759354583332,113.47391294375,79.0,97.0
100,113.56592679583332,113.93398220416665,81.0,122.0
101,113.98259329583333,114.37148202916666,77.0,107.0
102,114.39925979583333,115.85932865625,79.0,127.0
103,146.89924679583333,147.26556609374998,67.0,100.0
104,147.31591329583333,147.62320483958334,74.0,102.0
105,147.73257979583332,148.89577377499998,74.0,122.0
106,150.23257879583332,150.6353564125,74.0,122.0
107,150.64924529583334,150.95132850833332,72.0,112.0
108,151.06591179583333,153.13709152291665,72.0,102.0
109,153.56591079583333,153.94959119791665,67.0,107.0
110,153.98257729583332,154.29160495,72.0,99.0
111,154.3992437958333,156.23431250624998,72.0,112.0
112,156.89924279583332,157.33153428958332,77.0,112.0
113,157.31590929583334,157.7395202375,79.0,90.0
114,157.73257579583333,158.16313117916667,77.0,97.0
115,158.14924229583332,159.9686860125,74.0,96.0
116,160.23257479583333,160.98951893749998,74.0,117.0
117,161.0659077958333,163.03812922916666,79.0,127.0
118,163.5659067958333,163.91660109999998,79.0,92.0
119,163.98257329583333,164.19611487708332,70.0,99.0
120,164.19090654583331,164.31764260625,72.0,96.0
121,164.39923979583332,166.44437786666666,72.0,95.0
122,166.89923879583333,167.25514143125,72.0,99.0
123,167.31590529583332,167.70826624999998,74.0,117.0
124,167.73257179583334,169.26208507291665,77.0,112.0
125,170.2325707958333,170.50861235208333,72.0,117.0
126,170.64923729583333,170.83152888958332,72.0,122.0
127,170.8575705458333,171.0034038208333,74.0,90.0
128,171.06590379583332,171.47215363333333,70.0,117.0
129,171.4825702958333,173.8367360208333,67.0,96.0
130,174.39923579583333,174.69958289791666,74.0,117.0
131,174.81590229583333,175.062429975,74.0,102.0
132,175.23256879583332,175.61104086666666,74.0,107.0
133,175.64923529583334,175.96867961249998,82.0,127.0
134,176.06590179583333,176.89923479583334,79.0,117.0
135,177.31590129583333,177.49819288958332,77.0,112.0
136,177.52423454583334,177.6231928395833,79.0,93.0
137,177.73256779583332,178.1145120875,79.0,127.0
138,178.1492342958333,178.4895119375,77.0,97.0
139,178.56590079583333,178.9061784375,72.0,95.0
140,178.98256729583332,179.29680328125,79.0,112.0
141,179.3992337958333,180.20999736041665,77.0,112.0
142,181.06589979583333,181.28638581874998,72.0,100.0
143,181.48256629583332,181.74298285833333,72.0,102.0
144,181.8992327958333,182.13013548125,72.0,102.0
145,182.31589929583333,182.54159364999998,74.0,112.0
146,182.73256579583332,183.07978787916664,72.0,122.0
147,183.14923229583331,183.49992659999998,70.0,112.0
148,183.56589879583333,184.1145096875,67.0,102.0
149,184.39923179583332,184.64055114375,70.0,127.0
150,184.81589829583334,184.90270381666664,67.0,102.0
151,185.02423154583332,185.13881483333333,67.0,97.0
152,185.23256479583333,185.53812022916665,79.0,112.0
153,185.64923129583332,185.94957839791667,77.0,127.0
154,186.06589779583334,187.36624449791665,74.0,127.0
155,187.73256379583333,187.98082758541665,74.0,107.0
156,188.14923029583332,188.38707742291666,74.0,97.0
157,188.5658967958333,188.82804946874998,74.0,100.0
158,188.98256329583333,189.27770206666665,82.0,122.0
159,189.39922979583332,190.72040982291665,79.0,127.0
160,190.64922929583332,190.81763200625,77.0,97.0
161,190.85756254583333,190.99471526874999,79.0,100.0
162,191.0658957958333,191.47388174374998,82.0,127.0
163,191.6908955458333,191.86971491875,79.0,117.0
164,191.89922879583332,192.12839537083332,77.0,107.0
165,192.31589529583331,192.47561745416667,72.0,97.0
166,192.52422854583332,192.69436736666665,77.0,97.0
167,192.73256179583333,193.49124204791664,74.0,127.0
168,194.39922779583333,194.64749158541665,72.0,107.0
169,194.81589429583332,195.04853309166666,72.0,100.0
170,195.23256079583334,195.51728290416665,72.0,112.0
171,195.64922729583333,195.9478382875,74.0,127.0
172,196.06589379583332,196.80026850208333,79.0,127.0
173,196.89922679583333,197.39749048541665,74.0,127.0
174,197.7325597958333,197.99124024791666,77.0,112.0
175,198.14922629583333,198.29158735,77.0,112.0
176,198.3575595458333,198.47387894374998,79.0,97.0
177,198.56589279583332,198.93394820416665,81.0,122.0
178,198.9825592958333,199.37144802916666,77.0,107.0
179,199.39922579583333,200.2325587958333,79.0,127.0
180,202.73255779583332,203.03290489791667,74.0,117.0
181,203.14922429583333,203.395751975,74.0,102.0
182,203.56589079583333,203.94436286666667,74.0,107.0
183,203.98255729583332,204.3020016125,82.0,127.0
184,204.39922379583334,205.23255679583332,79.0,117.0
185,205.6492232958333,205.83151488958333,77.0,112.0
186,205.85755654583332,205.95651483958332,79.0,93.0
187,206.06588979583333,206.44783408749998,79.0,127.0
188,206.48255629583332,206.82283393749998,77.0,97.0
189,206.8992227958333,207.2395004375,72.0,95.0
190,207.31588929583333,207.63012528125,79.0,112.0
191,207.73255579583332,208.54331936041666,77.0,112.0
192,209.3992217958333,209.61970781875,72.0,100.0
193,209.81588829583333,210.07630485833332,72.0,102.0
194,210.23255479583332,210.46345748124997,72.0,102.0
195,210.6492212958333,210.87491565,74.0,112.0
196,211.06588779583333,211.41310987916665,72.0,122.0
197,211.48255429583332,211.8332486,70.0,112.0
198,211.89922079583332,212.44783168749998,67.0,102.0
199,212.73255379583333,212.97387314374998,70.0,127.0
200,213.14922029583332,213.23602581666665,67.0,102.0
201,213.35755354583333,213.4721368333333,67.0,97.0
202,213.56588679583334,213.87144222916666,79.0,112.0
203,213.98255329583333,214.28290039791665,77.0,127.0
204,214.39921979583332,215.69956649791666,74.0,127.0
205,216.0658857958333,216.31414958541666,74.0,107.0
206,216.48255229583333,216.72039942291664,74.0,97.0
207,216.89921879583332,217.16137146875,74.0,100.0
208,217.3158852958333,217.61102406666666,82.0,122.0
209,217.73255179583333,219.05373182291666,79.0,127.0
210,218.98255129583333,219.15095400624998,77.0,97.0
211,219.1908845458333,219.32803726875,79.0,100.0
212,219.39921779583332,219.80720374375,82.0,127.0
213,220.02421754583332,220.20303691875,79.0,117.0
214,220.23255079583333,220.46171737083333,77.0,107.0
215,220.64921729583332,220.80893945416665,72.0,97.0
216,220.85755054583333,221.02768936666666,77.0,97.0
217,221.06588379583332,221.82456404791665,74.0,127.0
218,222.7325497958333,222.98081358541666,72.0,107.0
219,223.14921629583333,223.38185509166667,72.0,100.0
220,223.56588279583332,223.85060490416666,72.0,112.0
221,223.9825492958333,224.2811602875,74.0,127.0
222,224.39921579583333,224.74122954791665,79.0,127.0
223,224.81588229583332,224.99470166875,77.0,102.0
224,225.02421554583333,225.95477072916665,74.0,102.0
225,226.06588179583332,226.32456224791665,77.0,112.0
226,226.4825482958333,226.62490935,77.0,112.0
227,226.69088154583332,226.80720094375,79.0,97.0
228,226.89921479583333,227.26727020416666,81.0,122.0
229,227.31588129583332,227.70477002916667,77.0,107.0
230,227.7325477958333,229.20997776041665,79.0,127.0
231,229.39921379583333,229.67351924166667,72.0,102.0
232,229.81588029583332,230.0728246375,72.0,102.0
233,230.23254679583331,230.49122724791664,72.0,102.0
234,230.64921329583333,231.05893535416666,74.0,127.0
235,231.06587979583333,231.4304629833333,79.0,127.0
236,231.48254629583332,231.92351834166666,77.0,127.0
237,231.8992127958333,232.50511533124998,74.0,117.0
238,232.73254579583332,233.05025400208334,77.0,117.0
239,233.1492122958333,233.40268441666666,77.0,112.0
240,233.35754554583332,233.63011488125,79.0,102.0
241,233.6856704145833,234.08844803124998,81.0,127.0
242,234.14400356458333,236.06587779583333,77.0,107.0
243,236.06587779583333,241.33670902083333,79.0,127.0
