,start,end,pitch,velocity
0,0.23263879583333333,2.57812396875,39.0,66.0
1,0.23263879583333333,2.6319433916666664,51.0,67.0
2,0.23263879583333333,3.13020708125,67.0,61.0
3,0.23263879583333333,3.1684015104166665,70.0,63.0
4,0.23263879583333333,3.1736098416666665,75.0,55.0
5,2.732637795833333,3.5347208083333332,39.0,97.0
6,3.1493042958333333,3.65104020625,51.0,60.0
7,3.982637295833333,4.907984147916666,70.0,62.0
8,3.565970795833333,5.1302062812499996,67.0,70.0
9,4.815970295833333,5.3854145125,58.0,36.0
10,5.024303545833333,5.413192279166666,51.0,20.0
11,5.232636795833333,6.064233685416666,70.0,95.0
12,5.649303295833333,6.104164225,67.0,49.0
13,6.482636295833333,7.871524629166666,60.0,63.0
14,6.899302795833333,8.27603835625,65.0,77.0
15,8.149302295833333,8.404510527083334,60.0,43.0
16,6.065969795833333,8.418399410416667,53.0,85.0
17,8.565968795833333,9.062496375,69.0,86.0
18,7.315969295833333,9.2499963,72.0,76.0
19,8.982635295833333,9.402774016666665,65.0,56.0
20,10.649301295833332,11.241314947916665,55.0,31.0
21,10.232634795833333,11.517356504166665,67.0,68.0
22,10.649301295833332,11.7499953,70.0,85.0
23,9.399301795833333,12.034717408333332,43.0,70.0
24,9.815968295833333,12.05728684375,50.0,56.0
25,11.482634295833332,12.270828425,55.0,65.0
26,11.899300795833332,12.711800470833333,70.0,100.0
27,12.315967295833333,12.774300445833333,67.0,59.0
28,13.149300295833333,14.312494274999999,55.0,63.0
29,13.565966795833333,14.368049808333332,60.0,88.0
30,12.732633795833333,15.338535531249999,48.0,71.0
31,14.815966295833332,15.354160525,55.0,37.0
32,15.232632795833332,16.0520769125,67.0,86.0
33,15.649299295833332,16.062493574999998,72.0,72.0
34,13.982633295833333,16.065965795833332,64.0,95.0
35,16.065965795833332,16.3229101375,67.0,99.0
36,16.065965795833332,16.338535131249998,70.0,99.0
37,16.065965795833332,16.3437434625,63.0,97.0
38,16.065965795833332,16.387146222916666,39.0,95.0
39,16.482632295833334,17.187493125,51.0,93.0
40,16.482632295833334,17.3437430625,67.0,117.0
41,16.482632295833334,17.41145136875,70.0,107.0
42,16.482632295833334,17.513881883333333,63.0,107.0
43,17.315965295833333,17.883673402083332,51.0,57.0
44,17.73263179583333,18.081589989583332,67.0,117.0
45,17.73263179583333,18.13367330208333,63.0,102.0
46,17.73263179583333,18.20658993958333,70.0,99.0
47,18.149298295833333,18.628464770833332,51.0,56.0
48,18.56596479583333,18.87325633958333,67.0,107.0
49,18.56596479583333,18.887145222916665,63.0,89.0
50,18.56596479583333,18.892353554166665,70.0,112.0
51,16.482632295833334,18.90103410625,39.0,69.0
52,18.982631295833333,19.079853479166665,51.0,72.0
53,19.39929779583333,19.637144922916665,69.0,93.0
54,19.39929779583333,19.65103380625,60.0,96.0
55,19.39929779583333,19.65103380625,65.0,100.0
56,19.815964295833332,20.37846407083333,48.0,68.0
57,19.815964295833332,20.7812416875,65.0,96.0
58,19.815964295833332,20.835061110416664,69.0,95.0
59,19.815964295833332,20.866311097916665,60.0,97.0
60,20.232630795833334,21.237838727083332,53.0,79.0
61,21.065963795833333,21.532977497916665,65.0,93.0
62,21.065963795833333,21.532977497916665,69.0,90.0
63,21.065963795833333,21.538185829166665,60.0,86.0
64,21.48263029583333,22.107630045833332,53.0,55.0
65,21.899296795833333,22.32117162708333,69.0,93.0
66,21.899296795833333,22.331588289583333,65.0,97.0
67,19.39929779583333,22.36283827708333,41.0,79.0
68,20.649297295833332,22.371518829166664,48.0,38.0
69,21.899296795833333,22.522560435416665,60.0,90.0
70,22.31596329583333,22.62846317083333,53.0,62.0
71,22.732629795833333,22.928810272916664,62.0,90.0
72,22.732629795833333,22.95832415,67.0,93.0
73,22.732629795833333,22.96353248125,70.0,96.0
74,22.732629795833333,23.878462670833333,55.0,92.0
75,23.14929629583333,24.041657049999998,70.0,107.0
76,23.14929629583333,24.071170927083333,67.0,99.0
77,23.14929629583333,24.079851479166667,62.0,95.0
78,23.98262929583333,24.57811516875,55.0,52.0
79,24.399295795833332,24.897559485416664,62.0,99.0
80,24.399295795833332,24.944434466666664,70.0,102.0
81,24.399295795833332,24.958323349999997,67.0,95.0
82,24.815962295833334,25.371517629166664,55.0,61.0
83,23.565962795833332,25.60936475625,50.0,47.0
84,25.23262879583333,25.626725860416666,67.0,100.0
85,25.23262879583333,25.62846197083333,70.0,122.0
86,22.732629795833333,25.649295295833333,43.0,72.0
87,25.649295295833333,25.828114668749997,55.0,68.0
88,26.06596179583333,26.220475622916666,60.0,96.0
89,26.06596179583333,26.22221173333333,64.0,96.0
90,26.06596179583333,26.24478116875,67.0,93.0
91,26.482628295833333,27.251725210416666,55.0,57.0
92,26.482628295833333,27.46179457083333,67.0,92.0
93,26.482628295833333,27.4687390125,60.0,93.0
94,26.482628295833333,27.515613993749998,64.0,95.0
95,27.315961295833333,27.8229055375,55.0,39.0
96,27.73262779583333,28.312488674999997,60.0,85.0
97,27.73262779583333,28.35762754583333,67.0,79.0
98,27.73262779583333,28.366308097916665,64.0,82.0
99,28.149294295833332,28.64061354375,55.0,41.0
100,28.56596079583333,28.94616897708333,67.0,92.0
101,28.56596079583333,28.982627295833332,60.0,89.0
102,28.56596079583333,28.991307847916666,64.0,95.0
103,26.06596179583333,28.9999884,48.0,72.0
104,28.982627295833332,29.04686338125,55.0,57.0
105,29.39929379583333,29.600682604166664,62.0,88.0
106,29.39929379583333,29.607627045833333,67.0,97.0
107,29.39929379583333,29.607627045833333,70.0,100.0
108,29.81596029583333,31.781237287499998,70.0,117.0
109,29.81596029583333,31.815959495833333,67.0,112.0
110,30.232626795833333,31.984362206249997,55.0,60.0
111,29.39929379583333,32.604153624999995,43.0,70.0
112,32.31595929583333,32.623250839583335,69.0,23.0
113,29.81596029583333,32.76561189375,50.0,62.0
114,31.899292795833333,32.98088958541666,70.0,76.0
115,29.81596029583333,33.142347854166665,62.0,95.0
116,33.56595879583333,34.28818072916666,67.0,61.0
117,33.98262529583333,34.638875033333335,55.0,34.0
118,32.73262579583333,35.527763566666664,43.0,65.0
119,33.149292295833334,35.91491618958333,50.0,45.0
120,34.39929179583333,36.12498555,70.0,88.0
121,37.31595729583333,37.93574871458333,55.0,56.0
122,36.48262429583333,38.68574841458333,50.0,38.0
123,36.065957795833334,38.69269285625,43.0,83.0
124,36.89929079583333,39.37324813958333,62.0,93.0
125,37.732623795833334,39.39928979583333,70.0,95.0
126,39.81595629583333,40.33505331041666,55.0,56.0
127,40.649289295833334,41.69269165625,55.0,36.0
128,39.39928979583333,41.90449712708333,48.0,73.0
129,41.06595579583333,42.02602485625,67.0,79.0
130,41.06595579583333,42.0520665125,63.0,86.0
131,42.10762204583333,42.4166497,67.0,35.0
132,42.10762204583333,42.61803850833333,63.0,32.0
133,40.23262279583333,42.70310791875,60.0,90.0
134,43.14928829583333,45.33157908958333,48.0,77.0
135,43.56595479583333,45.36109296666667,53.0,73.0
136,42.73262179583333,45.36803740833333,41.0,82.0
137,43.98262129583333,45.39755128541666,57.0,78.0
138,43.98262129583333,45.432273493749996,60.0,92.0
139,46.89928679583333,47.37324493958333,57.0,64.0
140,46.48262029583333,48.16143906875,58.0,79.0
141,47.31595329583333,48.36282787708333,65.0,83.0
142,48.35761954583333,48.515605593749996,58.0,9.0
143,47.31595329583333,48.522550035416664,62.0,79.0
144,46.06595379583333,48.777758266666666,46.0,97.0
145,48.56595279583333,49.40970245833333,65.0,90.0
146,48.98261929583333,49.46178577083333,62.0,48.0
147,50.23261879583333,50.6666464,55.0,64.0
148,49.815952295833334,51.97567365416666,50.0,59.0
149,49.39928579583333,52.01386808333333,43.0,86.0
150,50.64928529583333,52.07984027916666,58.0,78.0
151,50.64928529583333,52.13365970208333,62.0,85.0
152,53.56595079583333,55.064214085416666,60.0,76.0
153,53.98261729583333,55.14060294375,67.0,68.0
154,53.98261729583333,55.157964047916664,64.0,68.0
155,53.14928429583333,55.34546397291666,55.0,70.0
156,52.73261779583333,55.4687278125,48.0,90.0
157,55.23261679583333,55.64407496458333,67.0,83.0
158,55.23261679583333,55.94442206666666,64.0,93.0
159,55.64928329583333,55.975672054166665,60.0,56.0
160,56.06594979583333,56.729143975,69.0,89.0
161,56.06594979583333,56.79685228125,65.0,88.0
162,56.06594979583333,56.814213385416664,60.0,69.0
163,56.89928279583333,57.65449082708333,65.0,65.0
164,57.31594929583333,58.546851581249996,53.0,69.0
165,56.06594979583333,58.786434818749996,41.0,72.0
166,56.48261629583333,59.32810126875,48.0,48.0
167,56.89928279583333,59.46178177083333,69.0,63.0
168,57.73261579583333,59.498240089583334,65.0,59.0
169,59.81594829583333,60.520809125,50.0,77.0
170,60.23261479583333,61.14407276458333,55.0,86.0
171,59.39928179583333,62.60240551458333,43.0,89.0
172,61.89928079583333,62.635391612499994,57.0,66.0
173,60.64928129583333,62.6562249375,50.0,57.0
174,61.06594779583333,62.718724912499994,58.0,71.0
175,61.06594779583333,62.861085966666664,62.0,72.0
176,63.14928029583333,63.74997449999999,50.0,76.0
177,63.56594679583333,64.50518253125,55.0,85.0
178,62.73261379583333,65.42184883125,43.0,93.0
179,64.39927979583334,65.47740436458334,58.0,66.0
180,63.98261329583333,65.48087658541667,50.0,53.0
181,64.39927979583334,65.52775156666667,62.0,69.0
182,66.48261229583333,67.00518153125,55.0,58.0
183,66.89927879583333,67.80379232291666,60.0,89.0
184,67.31594529583333,68.19441716666667,55.0,51.0
185,66.06594579583333,68.20830604999999,48.0,93.0
186,67.73261179583334,69.34545837291667,67.0,78.0
187,67.73261179583334,69.38018058125,63.0,90.0
188,68.56594479583333,69.40795834791666,60.0,72.0
189,69.81594429583333,70.31768020625,48.0,61.0
190,70.64927729583333,71.21698540208332,48.0,45.0
191,70.23261079583332,71.22392984375,53.0,88.0
192,71.06594379583333,71.93920733541667,60.0,63.0
193,69.39927779583333,72.09545727291666,41.0,75.0
194,71.89927679583333,72.19267945624999,48.0,60.0
195,71.06594379583333,72.21004056041666,57.0,72.0
196,72.31594329583334,72.72219313333333,57.0,59.0
197,73.14927629583333,73.74476216875,58.0,83.0
198,73.56594279583332,74.30031750208333,62.0,93.0
199,73.98260929583333,74.53295629791667,58.0,48.0
200,74.39927579583333,75.12149772916666,65.0,95.0
201,72.73260979583333,75.19615047708334,46.0,107.0
202,74.39927579583333,75.31073376458333,62.0,85.0
203,75.23260879583333,76.02601125625,65.0,90.0
204,75.64927529583333,76.08677512083332,62.0,95.0
205,76.48260829583333,77.06941361666667,50.0,55.0
206,76.89927479583334,77.81767720625,55.0,92.0
207,77.31594129583333,77.86107996666667,50.0,45.0
208,76.06594179583333,78.54337136041666,43.0,81.0
209,78.56594079583333,79.29684328124999,55.0,86.0
210,77.73260779583333,79.34892659375,58.0,96.0
211,77.73260779583333,79.36975991874999,62.0,88.0
212,79.81594029583333,80.31420398541667,55.0,43.0
213,80.23260679583333,81.11628699791666,60.0,89.0
214,80.64927329583332,81.29684248125,55.0,32.0
215,79.39927379583332,81.65968955833333,48.0,93.0
216,81.06593979583333,82.72392524374999,67.0,86.0
217,81.06593979583333,82.76211967291667,64.0,78.0
218,81.89927279583333,82.77253633541666,60.0,81.0
219,83.14927229583333,83.66316097916666,48.0,59.0
220,83.98260529583332,84.62149392916666,48.0,44.0
221,83.56593879583333,84.687466125,53.0,76.0
222,82.73260579583332,85.41836861041666,41.0,77.0
223,85.23260479583332,86.00343782083333,53.0,76.0
224,84.39927179583333,86.07635445833333,57.0,78.0
225,84.39927179583333,86.09197945208332,60.0,89.0
226,86.48260429583333,87.05552073333332,50.0,58.0
227,86.89927079583333,87.6353816125,55.0,83.0
228,87.73260379583333,87.77774266666667,55.0,33.0
229,86.06593779583334,87.79857599166667,43.0,95.0
230,87.73260379583333,87.87322873958333,58.0,122.0
231,87.73260379583333,87.90447872708333,62.0,96.0
232,87.31593729583332,88.00343702083333,50.0,69.0
233,88.56593679583332,88.80031170208333,50.0,62.0
234,88.14927029583333,88.85760334583333,43.0,79.0
235,88.56593679583332,88.88364500208333,67.0,117.0
236,88.56593679583332,88.88885333333333,62.0,100.0
237,88.56593679583332,88.89579777499999,70.0,122.0
238,88.98260329583333,89.13364490208333,67.0,99.0
239,88.98260329583333,89.24822818958333,62.0,99.0
240,88.98260329583333,89.270797625,70.0,112.0
241,89.39926979583333,89.79683908125,67.0,107.0
242,89.39926979583333,89.80551963333333,70.0,127.0
243,89.39926979583333,89.81072796458332,62.0,127.0
244,89.81593629583332,90.32808886875,50.0,72.0
245,90.23260279583333,90.47913047499999,67.0,122.0
246,90.23260279583333,90.63017208125,70.0,122.0
247,90.23260279583333,90.64579707499999,62.0,100.0
248,89.39926979583333,90.8228803375,43.0,95.0
249,90.85760254583333,90.94093584583332,50.0,78.0
250,91.06593579583333,91.17878297291666,67.0,112.0
251,91.06593579583333,91.23781072708333,70.0,99.0
252,91.06593579583333,91.34371346249999,63.0,102.0
253,91.48260229583333,91.94614377708332,51.0,96.0
254,91.89926879583332,92.10065760416666,63.0,127.0
255,91.06593579583333,92.22218533333333,39.0,122.0
256,92.10760204583333,92.25169921041666,51.0,107.0
257,91.89926879583332,92.27253253541666,67.0,127.0
258,91.89926879583332,92.32982417916666,70.0,127.0
259,92.31593529583333,92.36975471875,63.0,102.0
260,92.73260179583333,93.25169881041666,69.0,96.0
261,92.73260179583333,93.28815712916666,60.0,117.0
262,93.35760154583333,93.40794874791666,69.0,30.0
263,92.73260179583333,93.43225429374999,65.0,112.0
264,93.14926829583332,93.67183753124999,48.0,79.0
265,92.73260179583333,94.00169851041666,41.0,86.0
266,93.56593479583333,94.00690684166666,65.0,122.0
267,93.56593479583333,94.03468460833332,69.0,117.0
268,93.77426804583332,94.04510127083333,48.0,92.0
269,93.98260129583333,94.0937123625,60.0,100.0
270,94.39926779583332,94.72739266458333,65.0,122.0
271,94.39926779583332,94.77947597708332,62.0,112.0
272,94.39926779583332,94.82808706875,58.0,117.0
273,94.81593429583333,95.25169801041666,53.0,50.0
274,94.39926779583332,95.5312117875,46.0,122.0
275,94.81593429583333,95.53642011875,50.0,63.0
276,95.23260079583333,95.59197565208333,65.0,102.0
277,95.23260079583333,95.59718398333332,62.0,127.0
278,95.44093404583333,95.61280897708333,53.0,99.0
279,95.64926729583333,95.72044782291667,58.0,127.0
280,96.06593379583333,96.44440586666666,64.0,112.0
281,96.06593379583333,96.44614197708333,67.0,112.0
282,96.06593379583333,96.45829475,60.0,122.0
283,96.06593379583333,97.02253063541666,55.0,107.0
284,96.89926679583333,97.53989153958332,67.0,122.0
285,96.89926679583333,97.54509987083333,60.0,117.0
286,96.89926679583333,97.55551653333333,64.0,127.0
287,97.52426654583333,97.79336366041666,55.0,95.0
288,97.73259979583332,98.18398850416666,64.0,117.0
289,97.73259979583332,98.19266905625,60.0,102.0
290,97.73259979583332,98.19614127708333,67.0,112.0
291,98.14926629583333,98.52773836666667,55.0,97.0
292,96.48260029583332,98.78989103958332,52.0,58.0
293,98.56593279583333,98.86801600833333,64.0,127.0
294,96.06593379583333,98.89926599583333,48.0,93.0
295,98.77426604583333,98.98086318541667,55.0,112.0
296,98.56593279583333,98.98607151666666,67.0,127.0
297,98.98259929583332,99.04509927083333,60.0,102.0
298,99.39926579583333,99.64926569583332,67.0,117.0
299,99.39926579583333,99.66662679999999,63.0,127.0
300,99.39926579583333,99.71697400208333,70.0,127.0
301,99.39926579583333,100.11280717708333,51.0,127.0
302,100.23259879583333,100.46176537083333,53.0,112.0
303,100.23259879583333,100.49127924791667,65.0,112.0
304,100.23259879583333,100.49127924791667,69.0,112.0
305,100.23259879583333,100.51037646249999,60.0,107.0
306,101.06593179583332,101.47391774375,65.0,95.0
307,101.06593179583332,101.48259829583333,62.0,102.0
308,101.06593179583332,101.48607051666666,58.0,127.0
309,101.06593179583332,101.88016758124999,53.0,85.0
310,101.48259829583333,102.19266745624999,50.0,72.0
311,101.06593179583332,102.20829244999999,46.0,97.0
312,102.10759804583333,102.28120908749999,53.0,102.0
313,101.89926479583333,102.38711182291667,62.0,127.0
314,102.31593129583332,102.60759784583333,58.0,127.0
315,102.73259779583333,103.12843097083332,58.0,127.0
316,102.73259779583333,103.13016708125,55.0,112.0
317,102.73259779583333,103.14926429583333,62.0,107.0
318,103.14926429583333,103.64231965416666,50.0,86.0
319,103.56593079583332,103.98086118541666,62.0,117.0
320,103.56593079583332,104.10933335624999,58.0,127.0
321,102.73259779583333,104.19093054583333,43.0,97.0
322,104.19093054583333,104.2812082875,50.0,72.0
323,104.39926379583333,104.43398600416666,55.0,74.0
324,104.39926379583333,104.63537481249999,63.0,122.0
325,104.39926379583333,104.64231925416667,58.0,127.0
326,104.39926379583333,105.12669406041667,51.0,107.0
327,105.23259679583333,105.34891619375,51.0,127.0
328,104.81593029583333,105.42356894166666,63.0,127.0
329,104.81593029583333,105.42530505208333,58.0,127.0
330,105.64926329583332,105.80724934375,63.0,127.0
331,105.64926329583332,105.83676322083333,58.0,127.0
332,105.85759654583333,105.95655483958333,55.0,89.0
333,106.06592979583333,106.53120738749999,57.0,127.0
334,106.06592979583333,106.54336016041665,60.0,102.0
335,106.48259629583333,106.98606831666666,48.0,70.0
336,106.06592979583333,107.15099880625,41.0,89.0
337,107.10759604583333,107.19440156666666,48.0,89.0
338,106.89926279583332,107.2603737625,57.0,127.0
339,106.89926279583332,107.28467930833332,60.0,122.0
340,107.31592929583333,107.37148482916666,53.0,83.0
341,107.73259579583333,108.26037336249999,65.0,92.0
342,107.73259579583333,108.28294279791666,62.0,100.0
343,107.73259579583333,108.29335946041667,58.0,127.0
344,107.73259579583333,108.59891489374999,53.0,78.0
345,108.56592879583333,108.84197035208332,58.0,127.0
346,108.56592879583333,108.85759534583333,65.0,107.0
347,108.56592879583333,108.89752588541666,62.0,127.0
348,108.14926229583332,108.90099810625,50.0,55.0
349,108.77426204583332,108.98259529583333,53.0,107.0
350,107.73259579583333,109.00342862083333,46.0,93.0
351,108.98259529583333,109.08502581041667,62.0,68.0
352,108.98259529583333,109.187456325,58.0,127.0
353,109.19092854583333,109.26731740416666,55.0,59.0
354,109.39926179583333,110.04509487083332,55.0,96.0
355,109.39926179583333,110.04683098125,64.0,95.0
356,109.39926179583333,110.05377542291666,60.0,97.0
357,109.39926179583333,110.58849743124999,48.0,112.0
358,110.23259479583332,110.89058064375,55.0,112.0
359,110.23259479583332,110.89231675416666,60.0,112.0
360,110.23259479583332,110.89578897499999,64.0,100.0
361,110.85759454583332,111.08155278958333,48.0,102.0
362,111.06592779583333,111.45828875,67.0,92.0
363,111.06592779583333,111.49821928958333,63.0,127.0
364,111.06592779583333,111.5103720625,58.0,102.0
365,111.06592779583333,111.90967745833333,51.0,86.0
366,111.89926079583333,111.94960799791666,58.0,89.0
367,111.06592779583333,112.19439956666666,39.0,67.0
368,112.10759404583332,112.29162174999999,51.0,107.0
369,111.89926079583333,112.35585783541666,67.0,102.0
370,111.89926079583333,112.38016338125,63.0,127.0
371,112.31592729583333,112.39752448541667,58.0,99.0
372,112.73259379583332,113.36801020833333,60.0,122.0
373,112.73259379583332,113.40446852708332,65.0,127.0
374,112.73259379583332,113.41314907916666,69.0,117.0
375,113.56592679583332,113.96002386041665,69.0,117.0
376,113.56592679583332,113.97391274374999,65.0,122.0
377,113.56592679583332,114.01905161458333,60.0,100.0
378,112.73259379583332,114.05550993333333,41.0,76.0
379,113.98259329583333,114.32460704791666,48.0,83.0
380,114.39405146458333,114.83675962083333,67.0,97.0
381,114.39925979583333,114.87495405,58.0,127.0
382,114.39925979583333,114.87842627083333,62.0,107.0
383,115.22044002291666,115.53814822916667,67.0,99.0
384,115.44092604583332,115.77599535625,55.0,107.0
385,114.81592629583332,115.83502311041666,50.0,63.0
386,114.39925979583333,115.86627309791666,43.0,100.0
387,115.64925929583333,116.05377302291666,58.0,127.0
388,115.63710652291667,116.05898135416666,67.0,42.0
389,115.23259279583333,116.06939801666665,62.0,112.0
390,116.48259229583333,116.58502281041666,70.0,96.0
391,116.48259229583333,116.58849503124999,67.0,79.0
392,116.48259229583333,116.59196725208332,74.0,72.0
393,116.06592579583332,116.97043932291666,55.0,93.0
394,116.89925879583333,117.02252263541666,67.0,102.0
395,117.10759204583333,117.28467530833333,55.0,97.0
396,116.89925879583333,117.312453075,70.0,127.0
397,116.89925879583333,117.38710582291667,74.0,122.0
398,116.69092554583332,117.49474466874999,50.0,51.0
399,116.06592579583332,117.52946687708332,43.0,96.0
400,117.31592529583332,117.66141126874999,67.0,89.0
401,117.73259179583333,117.85064730416666,67.0,102.0
402,117.73259179583333,117.86974451875,70.0,102.0
403,117.73259179583333,117.93224449374999,63.0,100.0
404,117.73259179583333,118.28641101874999,51.0,92.0
405,118.14925829583332,118.92877187291666,67.0,112.0
406,118.14925829583332,119.01036906249999,70.0,117.0
407,118.14925829583332,119.15099400624999,63.0,102.0
408,118.56592479583333,119.56071606458333,51.0,97.0
409,119.39925779583332,119.78814652916667,67.0,127.0
410,119.39925779583332,119.8332854,70.0,107.0
411,119.39925779583332,119.86106316666665,63.0,100.0
412,119.81592429583333,120.3437018625,51.0,72.0
413,120.23259079583333,120.5103684625,70.0,122.0
414,120.44092404583333,120.52772956666666,51.0,59.0
415,117.73259179583333,120.54682678124999,39.0,107.0
416,120.23259079583333,120.88536831249999,67.0,122.0
417,121.06592379583333,121.20307651875,65.0,97.0
418,121.06592379583333,121.22217373333332,72.0,102.0
419,121.06592379583333,121.22390984375,69.0,112.0
420,121.48259029583333,122.00689564166666,48.0,65.0
421,121.48259029583333,122.33675662083333,72.0,117.0
422,121.48259029583333,122.35585383541667,69.0,117.0
423,121.48259029583333,122.38189549166665,65.0,99.0
424,121.89925679583332,122.72738146458333,53.0,88.0
425,122.73258979583332,123.21349238124999,65.0,52.0
426,122.73258979583332,123.23085348541666,72.0,55.0
427,122.73258979583332,123.23432570624999,69.0,52.0
428,123.14925629583333,123.72043662291667,53.0,53.0
429,123.56592279583333,123.87495045,72.0,107.0
430,123.56592279583333,123.89057544375,69.0,112.0
431,123.56592279583333,123.89404766458333,65.0,96.0
432,122.31592329583333,123.98432540625,48.0,49.0
433,121.06592379583333,124.01210317291665,41.0,88.0
434,123.98258929583332,124.10932535625,53.0,66.0
435,124.39925579583333,124.54335296041666,67.0,96.0
436,124.39925579583333,124.54682518125,62.0,100.0
437,124.39925579583333,124.56071406458332,71.0,95.0
438,124.39925579583333,125.08501941041666,55.0,96.0
439,124.39925579583333,125.57981087916666,50.0,67.0
440,124.81592229583333,125.71001916041666,71.0,96.0
441,124.81592229583333,125.75342192083333,62.0,102.0
442,124.81592229583333,125.79856079166666,67.0,112.0
443,125.23258879583332,126.36626889791665,55.0,63.0
444,126.06592179583333,126.70828264999999,62.0,85.0
445,126.06592179583333,126.70828264999999,71.0,75.0
446,126.06592179583333,126.73258819583333,67.0,88.0
447,126.48258829583332,127.06592139583333,55.0,41.0
448,126.89925479583333,127.23779632708333,67.0,117.0
449,126.89925479583333,127.27251853541667,71.0,102.0
450,124.39925579583333,127.31244907499999,43.0,52.0
451,125.64925529583333,127.34890739375,50.0,35.0
452,127.31592129583332,127.57633785833333,55.0,58.0
453,127.73258779583333,127.87321273958332,60.0,93.0
454,127.73258779583333,127.88015718125,67.0,89.0
455,127.73258779583333,127.88362940208333,63.0,117.0
456,128.14925429583332,129.09890669375,67.0,96.0
457,128.14925429583332,129.14404556458334,60.0,100.0
458,128.14925429583332,129.1561983375,63.0,127.0
459,128.56592079583334,129.58154538958334,55.0,64.0
460,129.39925379583332,130.0520313125,67.0,89.0
461,129.39925379583332,130.05550353333334,60.0,96.0
462,129.39925379583332,130.08154518958332,63.0,122.0
463,129.81592029583334,130.26557289375,55.0,43.0
464,130.23258679583333,130.44092004583334,63.0,127.0
465,130.23258679583333,130.47390614374999,67.0,96.0
466,127.73258779583333,130.48779502708334,48.0,75.0
467,131.06591979583334,131.13536421249998,67.0,100.0
468,131.06591979583334,131.17876697291666,63.0,99.0
469,131.06591979583334,131.18744752499998,51.0,86.0
470,131.06591979583334,131.19612807708333,39.0,82.0
471,131.06591979583334,131.19960029791665,70.0,122.0
472,131.48258629583333,132.20480822916667,51.0,93.0
473,131.48258629583333,132.25689154166665,67.0,122.0
474,131.48258629583333,132.36973871875,70.0,127.0
475,131.48258629583333,132.40966925833334,63.0,112.0
476,132.31591929583334,132.9895301375,51.0,55.0
477,132.73258579583333,133.13883563333331,67.0,112.0
478,132.73258579583333,133.19091894583332,70.0,107.0
479,132.73258579583333,133.20654393958333,63.0,99.0
480,133.14925229583332,133.63362710208332,51.0,61.0
481,133.5659187958333,133.82459924791667,67.0,127.0
482,133.5659187958333,133.82807146874998,70.0,127.0
483,133.5659187958333,133.84890479375,63.0,99.0
484,131.48258629583333,133.9044603270833,39.0,82.0
485,133.98258529583333,134.09543247291666,51.0,76.0
486,134.39925179583332,134.50689064166667,69.0,96.0
487,134.39925179583332,134.51904341458334,65.0,99.0
488,134.39925179583332,134.52251563541665,60.0,95.0
489,134.8159182958333,135.71695960208334,69.0,99.0
490,134.8159182958333,135.72390404375,65.0,102.0
491,134.8159182958333,135.76383458333333,60.0,107.0
492,135.64925129583332,136.28119548749999,53.0,53.0
493,136.06591779583331,136.49647317916666,65.0,95.0
494,136.06591779583331,136.51904261458333,60.0,92.0
495,136.06591779583331,136.52425094583333,69.0,88.0
496,136.48258429583333,136.94091744583332,53.0,55.0
497,135.23258479583333,137.0520285125,48.0,59.0
498,136.89925079583332,137.30550063333334,65.0,112.0
499,134.39925179583332,137.31418118541666,41.0,72.0
500,136.89925079583332,137.36279227708332,69.0,102.0
501,137.73258379583334,137.86279207708333,62.0,93.0
502,137.73258379583334,137.86452818749999,65.0,95.0
503,137.73258379583334,137.87668096041665,69.0,95.0
504,137.73258379583334,137.8888337333333,38.0,75.0
505,137.73258379583334,137.89230595416666,50.0,88.0
506,138.14925029583333,139.19091654583332,62.0,90.0
507,138.14925029583333,139.20133320833332,69.0,93.0
508,138.14925029583333,139.21522209166665,65.0,99.0
509,138.14925029583333,139.62320803958332,50.0,95.0
510,139.39924979583333,139.84195795208333,62.0,93.0
511,139.39924979583333,139.9895273375,69.0,77.0
512,139.39924979583333,140.02077732499998,65.0,86.0
513,139.81591629583332,140.43397160416666,50.0,55.0
514,140.23258279583334,140.62841597083332,69.0,102.0
515,138.98258329583334,140.63709652291666,45.0,36.0
516,138.14925029583333,140.64230485416667,38.0,72.0
517,140.23258279583334,140.86626309791666,65.0,107.0
518,140.64924929583333,141.01730470416666,50.0,63.0
519,141.06591579583332,141.1492490958333,62.0,95.0
520,141.06591579583332,141.16834631041667,67.0,99.0
521,141.06591579583332,141.17529075208333,70.0,117.0
522,141.48258229583334,142.01556819375,50.0,58.0
523,141.89924879583333,142.52772076666665,55.0,71.0
524,141.48258229583334,142.55549853333332,62.0,95.0
525,141.48258229583334,142.60237351458332,70.0,122.0
526,141.48258229583334,142.60758184583332,67.0,102.0
527,142.7325817958333,143.11626219791665,62.0,63.0
528,142.7325817958333,143.13188719166666,67.0,57.0
529,142.7325817958333,143.35931765625,70.0,58.0
530,143.14924829583333,143.61973421874998,55.0,58.0
531,142.31591529583332,143.66313697916667,50.0,37.0
532,143.56591479583332,143.94091464583332,69.0,122.0
533,141.06591579583332,144.03640071875,43.0,86.0
534,143.77424804583333,144.3645255875,50.0,38.0
535,144.39924779583333,144.57980327916667,67.0,44.0
536,144.39924779583333,144.6075810458333,62.0,66.0
537,143.9825812958333,144.72737266458333,70.0,90.0
538,144.81591429583332,145.53466400833332,50.0,44.0
539,145.23258079583331,146.72216353333332,62.0,69.0
540,145.23258079583331,146.76556629375,58.0,82.0
541,146.06591379583332,146.86105236666666,55.0,68.0
542,145.64924729583333,147.69612147708332,50.0,52.0
543,147.31591329583333,147.79334366041667,58.0,88.0
544,144.39924779583333,147.83501031041666,43.0,81.0
545,147.73257979583332,147.83501031041666,43.0,93.0
546,146.89924679583333,147.84021864166667,62.0,96.0
547,148.14924629583334,148.74994049999998,50.0,76.0
548,148.56591279583333,149.50514853125,55.0,85.0
549,149.39924579583334,150.47737036458332,58.0,66.0
550,148.98257929583332,150.48084258541667,50.0,53.0
551,149.39924579583334,150.52771756666667,62.0,69.0
552,151.48257829583332,152.00514753125,55.0,58.0
553,151.8992447958333,152.80375832291665,60.0,89.0
554,152.31591129583333,153.19438316666665,55.0,51.0
555,151.06591179583333,153.20827205,48.0,93.0
556,152.73257779583332,154.34542437291665,67.0,78.0
557,152.73257779583332,154.38014658125,63.0,90.0
558,153.56591079583333,154.40792434791666,60.0,72.0
559,154.81591029583333,155.31764620625,48.0,61.0
560,155.64924329583332,156.21695140208334,48.0,45.0
561,155.23257679583332,156.22389584375,53.0,88.0
562,156.06590979583333,156.93917333541665,60.0,63.0
563,154.3992437958333,157.09542327291666,41.0,75.0
564,156.89924279583332,157.19264545625,48.0,60.0
565,156.06590979583333,157.21000656041664,57.0,72.0
566,157.31590929583334,157.72215913333332,57.0,59.0
567,158.14924229583332,158.74472816875,58.0,83.0
568,158.56590879583334,159.30028350208332,62.0,93.0
569,158.98257529583333,159.53292229791666,58.0,48.0
570,159.39924179583332,160.12146372916666,65.0,95.0
571,157.73257579583333,160.19611647708334,46.0,107.0
572,159.39924179583332,160.31069976458332,62.0,85.0
573,160.23257479583333,161.02597725625,65.0,90.0
574,160.64924129583332,161.08674112083332,62.0,95.0
575,161.48257429583333,162.06937961666665,50.0,55.0
576,161.89924079583332,162.81764320624998,55.0,92.0
577,162.3159072958333,162.86104596666667,50.0,45.0
578,161.0659077958333,163.54333736041667,43.0,81.0
579,163.5659067958333,164.29680928124998,55.0,86.0
580,162.73257379583333,164.34889259374998,58.0,96.0
581,162.73257379583333,164.36972591875,62.0,88.0
582,164.81590629583332,165.31416998541667,55.0,43.0
583,165.23257279583333,166.11625299791666,60.0,89.0
584,165.64923929583333,166.29680848125,55.0,32.0
585,164.39923979583332,166.65965555833333,48.0,93.0
586,166.06590579583332,167.72389124375,67.0,86.0
587,166.06590579583332,167.76208567291667,64.0,78.0
588,166.89923879583333,167.77250233541665,60.0,81.0
589,168.14923829583333,168.66312697916666,48.0,59.0
590,168.98257129583334,169.62145992916666,48.0,44.0
591,168.56590479583332,169.687432125,53.0,76.0
592,167.73257179583334,170.41833461041665,41.0,77.0
593,170.2325707958333,171.0034038208333,53.0,76.0
594,169.39923779583333,171.07632045833333,57.0,78.0
595,169.39923779583333,171.09194545208334,60.0,89.0
596,171.4825702958333,172.0554867333333,50.0,58.0
597,171.89923679583333,172.6353476125,55.0,83.0
598,172.7325697958333,172.77770866666665,55.0,33.0
599,171.06590379583332,172.79854199166667,43.0,95.0
600,172.7325697958333,172.8731947395833,58.0,122.0
601,172.7325697958333,172.90444472708333,62.0,96.0
602,172.31590329583332,173.00340302083333,50.0,69.0
603,173.56590279583332,173.80027770208332,50.0,62.0
604,173.14923629583333,173.85756934583333,43.0,79.0
605,173.56590279583332,173.8836110020833,67.0,117.0
606,173.56590279583332,173.88881933333332,62.0,100.0
607,173.56590279583332,173.89576377499998,70.0,122.0
608,173.98256929583331,174.13361090208332,67.0,99.0
609,173.98256929583331,174.24819418958333,62.0,99.0
610,173.98256929583331,174.270763625,70.0,112.0
611,174.39923579583333,174.79680508125,67.0,107.0
612,174.39923579583333,174.80548563333332,70.0,127.0
613,174.39923579583333,174.81069396458332,62.0,127.0
614,174.81590229583333,175.32805486875,50.0,72.0
615,175.23256879583332,175.47909647499998,67.0,122.0
616,175.23256879583332,175.63013808124998,70.0,122.0
617,175.23256879583332,175.645763075,62.0,100.0
618,174.39923579583333,175.82284633749998,43.0,95.0
619,175.85756854583332,175.94090184583334,50.0,78.0
620,176.06590179583333,176.17874897291665,67.0,112.0
621,176.06590179583333,176.23777672708331,70.0,99.0
622,176.06590179583333,176.34367946249998,63.0,102.0
623,176.48256829583332,176.94610977708334,51.0,96.0
624,176.89923479583334,177.10062360416666,63.0,127.0
625,176.06590179583333,177.22215133333333,39.0,122.0
626,177.10756804583332,177.25166521041666,51.0,107.0
627,176.89923479583334,177.27249853541664,67.0,127.0
628,176.89923479583334,177.32979017916665,70.0,127.0
629,177.31590129583333,177.36972071875,63.0,102.0
630,177.73256779583332,178.25166481041666,69.0,96.0
631,177.73256779583332,178.28812312916665,60.0,117.0
632,178.35756754583332,178.40791474791666,69.0,30.0
633,177.73256779583332,178.43222029375,65.0,112.0
634,178.1492342958333,178.67180353125,48.0,79.0
635,177.73256779583332,179.00166451041665,41.0,86.0
636,178.56590079583333,179.00687284166665,65.0,122.0
637,178.56590079583333,179.03465060833332,69.0,117.0
638,178.7742340458333,179.04506727083333,48.0,92.0
639,178.98256729583332,179.0936783625,60.0,100.0
640,179.3992337958333,179.72735866458333,65.0,122.0
641,179.3992337958333,179.77944197708334,62.0,112.0
642,179.3992337958333,179.82805306875,58.0,117.0
643,179.81590029583333,180.25166401041665,53.0,50.0
644,179.3992337958333,180.53117778749998,46.0,122.0
645,179.81590029583333,180.53638611875,50.0,63.0
646,180.23256679583332,180.59194165208334,65.0,102.0
647,180.23256679583332,180.5971499833333,62.0,127.0
648,180.44090004583333,180.61277497708332,53.0,99.0
649,180.6492332958333,180.72041382291667,58.0,127.0
650,181.06589979583333,181.44437186666667,64.0,112.0
651,181.06589979583333,181.44610797708333,67.0,112.0
652,181.06589979583333,181.45826075,60.0,122.0
653,181.06589979583333,182.02249663541664,55.0,107.0
654,181.8992327958333,182.53985753958332,67.0,122.0
655,181.8992327958333,182.54506587083333,60.0,117.0
656,181.8992327958333,182.55548253333333,64.0,127.0
657,182.5242325458333,182.79332966041665,55.0,95.0
658,182.73256579583332,183.18395450416665,64.0,117.0
659,182.73256579583332,183.19263505625,60.0,102.0
660,182.73256579583332,183.1961072770833,67.0,112.0
661,183.14923229583331,183.52770436666665,55.0,97.0
662,181.48256629583332,183.78985703958332,52.0,58.0
663,183.56589879583333,183.8679820083333,64.0,127.0
664,181.06589979583333,183.89923199583333,48.0,93.0
665,183.77423204583332,183.98082918541667,55.0,112.0
666,183.56589879583333,183.98603751666667,67.0,127.0
667,183.98256529583333,184.04506527083333,60.0,102.0
668,184.39923179583332,184.64923169583332,67.0,117.0
669,184.39923179583332,184.6665928,63.0,127.0
670,184.39923179583332,184.71694000208333,70.0,127.0
671,184.39923179583332,185.1127731770833,51.0,127.0
672,185.23256479583333,185.46173137083332,53.0,112.0
673,185.23256479583333,185.49124524791665,65.0,112.0
674,185.23256479583333,185.49124524791665,69.0,112.0
675,185.23256479583333,185.51034246249998,60.0,107.0
676,186.06589779583334,186.47388374374998,65.0,95.0
677,186.06589779583334,186.48256429583333,62.0,102.0
678,186.06589779583334,186.48603651666664,58.0,127.0
679,186.06589779583334,186.88013358125,53.0,85.0
680,186.48256429583333,187.19263345624998,50.0,72.0
681,186.06589779583334,187.20825845,46.0,97.0
682,187.10756404583333,187.2811750875,53.0,102.0
683,186.89923079583332,187.38707782291667,62.0,127.0
684,187.3158972958333,187.6075638458333,58.0,127.0
685,187.73256379583333,188.12839697083334,58.0,127.0
686,187.73256379583333,188.13013308125,55.0,112.0
687,187.73256379583333,188.14923029583332,62.0,107.0
688,188.14923029583332,188.64228565416667,50.0,86.0
689,188.5658967958333,188.98082718541664,62.0,117.0
690,188.5658967958333,189.10929935624998,58.0,127.0
691,187.73256379583333,189.1908965458333,43.0,97.0
692,189.1908965458333,189.2811742875,50.0,72.0
693,189.39922979583332,189.43395200416666,55.0,74.0
694,189.39922979583332,189.63534081249998,63.0,122.0
695,189.39922979583332,189.64228525416667,58.0,127.0
696,189.39922979583332,190.12666006041667,51.0,107.0
697,190.23256279583333,190.34888219375,51.0,127.0
698,189.8158962958333,190.42353494166665,63.0,127.0
699,189.8158962958333,190.42527105208333,58.0,127.0
700,190.64922929583332,190.80721534375,63.0,127.0
701,190.64922929583332,190.83672922083332,58.0,127.0
702,190.85756254583333,190.95652083958333,55.0,89.0
703,191.0658957958333,191.5311733875,57.0,127.0
704,191.0658957958333,191.54332616041665,60.0,102.0
705,191.48256229583333,191.98603431666666,48.0,70.0
706,191.0658957958333,192.15096480625,41.0,89.0
707,192.10756204583333,192.19436756666667,48.0,89.0
708,191.89922879583332,192.2603397625,57.0,127.0
709,191.89922879583332,192.28464530833332,60.0,122.0
710,192.31589529583331,192.37145082916666,53.0,83.0
711,192.73256179583333,193.2603393625,65.0,92.0
712,192.73256179583333,193.28290879791666,62.0,100.0
713,192.73256179583333,193.29332546041667,58.0,127.0
714,192.73256179583333,193.59888089375,53.0,78.0
715,193.56589479583332,193.84193635208334,58.0,127.0
716,193.56589479583332,193.85756134583332,65.0,107.0
717,193.56589479583332,193.89749188541666,62.0,127.0
718,193.14922829583332,193.90096410625,50.0,55.0
719,193.77422804583333,193.98256129583334,53.0,107.0
720,192.73256179583333,194.00339462083332,46.0,93.0
721,193.98256129583334,194.08499181041665,62.0,68.0
722,193.98256129583334,194.187422325,58.0,127.0
723,194.19089454583332,194.26728340416665,55.0,59.0
724,194.39922779583333,195.0450608708333,55.0,96.0
725,194.39922779583333,195.04679698125,64.0,95.0
726,194.39922779583333,195.05374142291666,60.0,97.0
727,194.39922779583333,195.58846343124998,48.0,112.0
728,195.23256079583334,195.89054664374999,55.0,112.0
729,195.23256079583334,195.89228275416664,60.0,112.0
730,195.23256079583334,195.895754975,64.0,100.0
731,195.85756054583334,196.08151878958333,48.0,102.0
732,196.06589379583332,196.45825474999998,67.0,92.0
733,196.06589379583332,196.49818528958332,63.0,127.0
734,196.06589379583332,196.51033806249998,58.0,102.0
735,196.06589379583332,196.90964345833333,51.0,86.0
736,196.89922679583333,196.94957399791664,58.0,89.0
737,196.06589379583332,197.19436556666665,39.0,67.0
738,197.1075600458333,197.29158775,51.0,107.0
739,196.89922679583333,197.35582383541666,67.0,102.0
740,196.89922679583333,197.38012938125,63.0,127.0
741,197.31589329583332,197.39749048541665,58.0,99.0
742,197.7325597958333,198.36797620833332,60.0,122.0
743,197.7325597958333,198.4044345270833,65.0,127.0
744,197.7325597958333,198.41311507916666,69.0,117.0
745,198.56589279583332,198.95998986041667,69.0,117.0
746,198.56589279583332,198.97387874375,65.0,122.0
747,198.56589279583332,199.01901761458333,60.0,100.0
748,197.7325597958333,199.05547593333333,41.0,76.0
749,198.9825592958333,199.32457304791666,48.0,83.0
750,199.39922579583333,199.54158685,62.0,102.0
751,199.39922579583333,199.54158685,62.0,107.0
752,199.39922579583333,199.54158685,67.0,117.0
753,199.39922579583333,199.5554757333333,70.0,117.0
754,199.39922579583333,199.87492005,58.0,127.0
755,200.02422554583333,200.09193385208332,79.0,72.0
756,200.02422554583333,200.11276717708333,67.0,64.0
757,199.81589229583332,200.3211004270833,50.0,49.0
758,199.81589229583332,200.3211004270833,50.0,63.0
759,200.2325587958333,200.34366986249998,67.0,117.0
760,200.2325587958333,200.36797540833334,79.0,99.0
761,200.2325587958333,200.7586002520833,55.0,92.0
762,200.64922529583333,200.83498911041664,50.0,48.0
763,200.8575585458333,200.92353074166667,81.0,79.0
764,200.8575585458333,200.9478362875,69.0,89.0
765,200.64922529583333,201.05373902291666,58.0,127.0
766,200.2325587958333,201.06589179583332,62.0,112.0
767,201.06589179583332,201.14922509583332,81.0,96.0
768,201.06589179583332,201.16485008958333,69.0,112.0
769,201.06589179583332,201.53637771875,55.0,92.0
770,201.69089154583332,201.74644707916664,82.0,89.0
771,201.69089154583332,201.77422484583332,70.0,99.0
772,201.89922479583333,201.95478032916665,82.0,83.0
773,201.89922479583333,202.00512753125,70.0,127.0
774,202.10755804583331,202.32457184791664,55.0,107.0
775,202.31589129583332,202.73950223749998,69.0,122.0
776,201.48255829583331,202.75165501041667,50.0,39.0
777,199.39922579583333,202.80894665416665,43.0,88.0
778,202.73255779583332,202.80894665416665,43.0,86.0
779,202.73255779583332,202.99471046875,58.0,122.0
780,202.73255779583332,202.99818268958333,55.0,102.0
781,202.73255779583332,203.00165491041665,62.0,97.0
782,203.14922429583333,203.67179353125,50.0,64.0
783,203.14922429583333,203.80200181249998,55.0,102.0
784,203.14922429583333,203.95304341874998,62.0,99.0
785,203.14922429583333,203.96519619166665,58.0,127.0
786,204.39922379583334,204.52075152499998,55.0,93.0
787,204.39922379583334,204.52248763541667,63.0,117.0
788,204.39922379583334,204.53464040833333,58.0,127.0
789,204.39922379583334,204.58845983125,51.0,95.0
790,204.39922379583334,204.60061260416666,39.0,88.0
791,204.81589029583333,205.11276517708333,55.0,90.0
792,204.81589029583333,205.11276517708333,63.0,100.0
793,204.81589029583333,205.12491795,58.0,122.0
794,204.81589029583333,205.5085983520833,39.0,93.0
795,204.81589029583333,205.54332056041665,51.0,107.0
796,205.23255679583332,205.67352884166667,58.0,127.0
797,205.23255679583332,205.68047328333333,63.0,127.0
798,205.23255679583332,205.73082048541664,55.0,112.0
799,205.85755654583332,205.90095930625,60.0,40.0
800,206.06588979583333,206.50338962083333,53.0,107.0
801,206.06588979583333,206.52769516666666,57.0,112.0
802,206.06588979583333,206.54505627083333,60.0,107.0
803,206.48255629583332,206.92005612083332,48.0,63.0
804,206.06588979583333,206.93220889375,41.0,89.0
805,206.8992227958333,207.0311671875,57.0,112.0
806,206.8992227958333,207.04679218125,60.0,117.0
807,207.73255579583332,207.85234741458333,65.0,90.0
808,207.73255579583332,207.8575557458333,62.0,99.0
809,207.73255579583332,207.86102796666665,46.0,95.0
810,207.73255579583332,207.86623629791666,53.0,85.0
811,207.73255579583332,207.86623629791666,58.0,127.0
812,208.1492222958333,208.8158886958333,53.0,100.0
813,208.1492222958333,208.97387474375,46.0,117.0
814,208.1492222958333,209.02943027708332,65.0,93.0
815,208.1492222958333,209.09887469375,62.0,100.0
816,208.1492222958333,209.19088854583333,58.0,127.0
817,209.3992217958333,210.07630485833332,64.0,122.0
818,209.3992217958333,210.09019374166667,55.0,117.0
819,209.3992217958333,210.09713818333333,60.0,127.0
820,210.23255479583332,210.31415198541666,55.0,107.0
821,210.23255479583332,210.32804086874998,60.0,117.0
822,209.3992217958333,210.33151308958332,48.0,107.0
823,210.23255479583332,210.33324919999998,64.0,100.0
824,210.85755454583332,210.9894989375,55.0,81.0
825,211.06588779583333,211.15790164791665,60.0,107.0
826,211.06588779583333,211.16310997916665,64.0,99.0
827,211.06588779583333,211.1665822,55.0,73.0
828,211.06588779583333,211.1769988625,48.0,117.0
829,211.48255429583332,212.09192905208332,55.0,99.0
830,211.48255429583332,212.1353318125,48.0,127.0
831,211.48255429583332,212.15616513749998,60.0,117.0
832,211.48255429583332,212.15790124791667,64.0,99.0
833,212.31588729583333,212.37665116041666,60.0,97.0
834,212.31588729583333,212.37665116041666,64.0,83.0
835,212.31588729583333,212.39574837499998,55.0,102.0
836,212.73255379583333,213.11449808749998,39.0,100.0
837,212.73255379583333,213.13185919166665,51.0,100.0
838,212.73255379583333,213.15616473749998,58.0,122.0
839,212.73255379583333,213.15963695833332,63.0,122.0
840,212.73255379583333,213.19262305625,55.0,100.0
841,213.56588679583334,213.94262275625,41.0,99.0
842,213.56588679583334,213.96345608125,57.0,117.0
843,213.56588679583334,213.98602551666664,60.0,117.0
844,213.56588679583334,214.01206717291666,53.0,107.0
845,214.39921979583332,214.8210946270833,65.0,96.0
846,214.39921979583332,214.88012238124998,58.0,127.0
847,214.39921979583332,214.88185849166666,62.0,100.0
848,215.23255279583333,215.46171937083332,58.0,127.0
849,215.23255279583333,215.46866381249998,62.0,96.0
850,215.23255279583333,215.4929693583333,65.0,92.0
851,214.8158862958333,215.66484428958333,50.0,48.0
852,214.39921979583332,215.70303871874998,46.0,92.0
853,215.64921929583332,215.76901091458333,53.0,70.0
854,216.0658857958333,216.41137176875,62.0,107.0
855,216.0658857958333,216.41658009999998,58.0,127.0
856,216.0658857958333,216.42005232083332,55.0,112.0
857,216.89921879583332,217.00512153124998,55.0,100.0
858,216.89921879583332,217.00859375208333,58.0,127.0
859,216.89921879583332,217.00859375208333,62.0,96.0
860,216.48255229583333,217.04157984999998,50.0,66.0
861,216.0658857958333,217.562412975,43.0,76.0
862,217.52421854583332,217.79331566041665,50.0,78.0
863,217.73255179583333,217.82977397916665,55.0,93.0
864,217.73255179583333,217.83845453125,62.0,90.0
865,217.73255179583333,217.84019064166665,58.0,117.0
866,218.14921829583332,218.58845423124998,55.0,102.0
867,218.14921829583332,218.59887089375,58.0,127.0
868,218.14921829583332,218.72387084374998,62.0,100.0
869,218.5658847958333,219.11449568749998,50.0,99.0
870,217.73255179583333,219.1335929020833,43.0,92.0
871,218.98255129583333,219.23602341666665,58.0,127.0
872,218.98255129583333,219.31241227499999,62.0,117.0
873,219.1908845458333,219.3783844708333,55.0,88.0
874,219.39921779583332,219.67525935208332,39.0,117.0
875,219.39921779583332,219.68220379374998,55.0,117.0
876,219.39921779583332,219.70303711875,51.0,107.0
877,219.39921779583332,219.70303711875,58.0,107.0
878,220.23255079583333,220.50859235208333,41.0,99.0
879,220.23255079583333,220.52595345625,57.0,117.0
880,220.23255079583333,220.54331456041666,60.0,107.0
881,220.23255079583333,220.57803676875,53.0,107.0
882,221.06588379583332,221.16831431041666,53.0,90.0
883,221.06588379583332,221.17352264166666,58.0,112.0
884,221.06588379583332,221.17873097291667,62.0,95.0
885,221.27421704583332,221.54505027083331,62.0,90.0
886,221.27421704583332,221.57630025833333,53.0,90.0
887,221.06588379583332,221.5936613625,46.0,117.0
888,221.27421704583332,221.70998076041664,58.0,117.0
889,221.69088354583332,222.06414728541665,46.0,112.0
890,221.89921679583333,222.32803606874998,62.0,107.0
891,221.89921679583333,222.54157765,58.0,127.0
892,221.89921679583333,222.5519943125,53.0,99.0
893,222.31588329583332,222.63706372291665,46.0,127.0
894,222.7325497958333,223.46518839166666,64.0,122.0
895,222.7325497958333,223.48081338541667,55.0,112.0
896,222.7325497958333,223.48254949583333,60.0,117.0
897,222.7325497958333,223.79678548125,48.0,122.0
898,223.56588279583332,224.15095200624998,64.0,117.0
899,223.56588279583332,224.15616033749998,60.0,127.0
900,223.56588279583332,224.166577,55.0,107.0
901,224.19088254583332,224.39921579583333,48.0,59.0
902,224.39921579583333,224.78810452916665,67.0,97.0
903,224.39921579583333,224.82803506874998,58.0,117.0
904,224.39921579583333,224.87491004999998,63.0,122.0
905,224.39921579583333,225.26727100416664,51.0,95.0
906,225.2325487958333,225.26900711458333,58.0,86.0
907,224.39921579583333,225.52768756666666,39.0,102.0
908,225.44088204583332,225.60754864583333,51.0,99.0
909,225.2325487958333,225.63879863333332,63.0,127.0
910,225.2325487958333,225.65789584791665,67.0,107.0
911,225.64921529583333,225.72213193333332,58.0,112.0
912,226.06588179583332,226.47213163333333,53.0,112.0
913,226.06588179583332,226.48428440625,57.0,122.0
914,226.06588179583332,226.50685384166667,60.0,112.0
915,226.4825482958333,226.89227035416664,48.0,58.0
916,226.89921479583333,227.27421464583333,57.0,122.0
917,226.06588179583332,227.28983963958333,41.0,83.0
918,226.89921479583333,227.3436590625,60.0,127.0
919,227.1075480458333,227.36622849791667,48.0,100.0
920,227.31588129583332,227.42525625208333,53.0,102.0
921,227.7325477958333,228.2065059395833,55.0,117.0
922,227.7325477958333,228.22039482291666,62.0,100.0
923,227.7325477958333,228.23775592708333,58.0,127.0
924,228.14921429583333,228.60581133541666,50.0,86.0
925,228.56588079583332,228.82456124791665,62.0,117.0
926,228.56588079583332,228.84018624166666,58.0,127.0
927,227.7325477958333,229.30546383333333,43.0,81.0
928,228.77421404583333,229.39921379583333,50.0,117.0
929,229.19088054583332,229.39921379583333,55.0,95.0
930,228.9825472958333,229.39921379583333,58.0,127.0
931,228.9825472958333,229.39921379583333,62.0,122.0
932,229.39921379583333,229.80025530208331,67.0,90.0
933,229.39921379583333,229.88706082291665,58.0,112.0
934,229.39921379583333,230.07803296875,63.0,112.0
935,229.39921379583333,230.25858845208333,51.0,86.0
936,230.23254679583331,230.2690051145833,58.0,71.0
937,229.39921379583333,230.49817168958333,39.0,97.0
938,230.44088004583332,230.57282443749997,51.0,112.0
939,230.23254679583331,230.61622719791666,63.0,127.0
940,230.23254679583331,230.63532441249998,67.0,99.0
941,230.64921329583333,230.72560215416667,58.0,127.0
942,231.06587979583333,231.68740732499998,53.0,97.0
943,231.06587979583333,231.73775452708333,60.0,97.0
944,231.06587979583333,231.74643507916664,57.0,97.0
945,231.48254629583332,231.89226835416665,48.0,49.0
946,232.10754604583332,232.44608757708332,48.0,96.0
947,231.06587979583333,232.49817088958332,41.0,76.0
948,231.8992127958333,232.6144902875,57.0,122.0
949,231.8992127958333,232.63185139166666,60.0,127.0
950,232.31587929583333,232.68219859375,53.0,97.0
951,232.73254579583332,235.09018374166666,50.0,78.0
952,232.73254579583332,235.32108642708332,38.0,60.0
953,232.73254579583332,235.32803086874998,45.0,71.0
954,232.73254579583332,235.36101696666665,62.0,100.0
955,232.73254579583332,235.36622529791666,69.0,95.0
956,232.73254579583332,235.41830861041666,65.0,97.0
957,236.06587779583333,236.77941917708333,67.0,99.0
958,236.06587779583333,236.78289139791664,70.0,112.0
959,236.06587779583333,236.8019886125,62.0,96.0
960,236.8992107958333,237.45650223958333,62.0,75.0
961,236.8992107958333,237.59539107291664,67.0,95.0
962,236.8992107958333,237.604071625,70.0,107.0
963,237.31587729583333,238.00684924166666,55.0,73.0
964,237.73254379583332,238.19955749791666,62.0,72.0
965,237.73254379583332,238.37664076041665,70.0,72.0
966,237.73254379583332,238.38184909166665,67.0,75.0
967,238.1492102958333,238.39226575416666,55.0,57.0
968,236.48254429583332,238.6561545375,50.0,64.0
969,238.7742100458333,238.86622389791665,50.0,53.0
970,236.06587779583333,238.86969611875,43.0,99.0
971,238.56587679583333,239.0103210625,70.0,127.0
972,238.56587679583333,239.2481681895833,67.0,112.0
973,239.39920979583331,239.67351524166665,67.0,59.0
974,239.39920979583331,239.85580683541664,63.0,73.0
975,239.39920979583331,239.92177903125,70.0,73.0
976,239.81587629583333,240.32629275833332,51.0,64.0
977,240.23254279583333,240.71691760208333,74.0,64.0
978,240.23254279583333,240.7186537125,67.0,79.0
979,240.23254279583333,240.76205647291664,70.0,69.0
980,240.23254279583333,240.91309807916664,63.0,82.0
981,240.64920929583332,241.25511183125,51.0,37.0
982,241.0658757958333,241.4044173270833,74.0,31.0
983,241.0658757958333,241.45476452916665,67.0,53.0
984,241.0658757958333,241.49469506875,63.0,41.0
985,241.27420904583332,241.51900061458332,70.0,19.0
986,239.39920979583331,241.76900051458333,39.0,107.0
987,241.48254229583333,241.82108382708333,51.0,54.0
988,241.89920879583332,242.25163921041664,74.0,78.0
989,241.89920879583332,242.270736425,63.0,97.0
990,241.89920879583332,242.30372252291664,67.0,107.0
991,242.73254179583333,248.3019840125,55.0,92.0
992,242.73254179583333,248.31066456458333,50.0,73.0
993,242.73254179583333,248.32455344791666,43.0,62.0
994,242.73254179583333,248.354067325,62.0,102.0
995,242.73254179583333,248.35580343541665,67.0,100.0
996,242.73254179583333,248.36101176666665,71.0,95.0
