,start,end,pitch,velocity
0,0.1943179875,1.0715898375000001,44.0,93.0
1,0.7397719875000001,1.2409078500000001,59.0,100.0
2,0.7397719875000001,1.2454533,56.0,97.0
3,0.7397719875000001,1.261362375,63.0,96.0
4,1.2852259875,1.8681799500000003,51.0,102.0
5,1.8306799875000002,2.3465885625,59.0,107.0
6,1.8306799875000002,2.3511340125,63.0,99.0
7,2.3761339875000003,3.3011330625000004,40.0,89.0
8,2.9215879875,3.479541975,52.0,89.0
9,2.9215879875,3.4920419625,56.0,92.0
10,2.9215879875,3.4999965000000004,59.0,90.0
11,3.4670419875000005,4.0079505375,47.0,68.0
12,4.0124959875,4.5215863875,42.0,95.0
13,4.557949987500001,5.64999435,44.0,102.0
14,5.1034039875,5.6943124875,56.0,82.0
15,5.1034039875,5.711357925000001,63.0,86.0
16,5.1034039875,5.738630625000001,59.0,90.0
17,6.194311987500001,6.4602208125,56.0,99.0
18,5.6488579875000005,6.4727208,51.0,79.0
19,6.194311987500001,6.534084375000001,59.0,102.0
20,6.194311987500001,6.5352207375,63.0,99.0
21,6.4670389875000005,6.753402337500001,46.0,83.0
22,6.7397659875,7.451128912500001,47.0,95.0
23,7.2852199875000005,7.8727194,54.0,81.0
24,7.2852199875000005,7.8795375750000005,59.0,89.0
25,7.2852199875000005,7.880673937500001,63.0,78.0
26,7.830673987500001,8.3715825375,47.0,93.0
27,8.3761279875,8.802263925,59.0,96.0
28,8.3761279875,8.818173,63.0,83.0
29,8.3761279875,8.851127512500002,54.0,86.0
30,8.921581987500002,10.0011263625,39.0,76.0
31,9.467035987500001,10.0829444625,51.0,83.0
32,9.467035987500001,10.08635355,54.0,89.0
33,9.467035987500001,10.109080800000001,58.0,88.0
34,10.0124899875,10.6420348125,46.0,89.0
35,10.557943987500002,11.026125337500002,51.0,79.0
36,10.557943987500002,11.0397616875,58.0,86.0
37,10.557943987500002,11.067034387500001,54.0,88.0
38,11.103397987500001,11.802260925,47.0,88.0
39,11.6488519875,12.2533968375,54.0,86.0
40,11.6488519875,12.2579422875,59.0,93.0
41,11.6488519875,12.270442275,63.0,88.0
42,12.194305987500002,12.961350675,47.0,97.0
43,12.739759987500001,12.972714300000002,54.0,83.0
44,12.739759987500001,13.0193051625,59.0,99.0
45,12.739759987500001,13.062486937500001,63.0,85.0
46,13.0124869875,13.229532225000002,46.0,97.0
47,13.830667987500002,14.335212937500001,56.0,82.0
48,13.830667987500002,14.347712925000002,59.0,99.0
49,13.830667987500002,14.3783947125,63.0,93.0
50,13.2852139875,14.3999856,44.0,95.0
51,14.376121987500001,15.457939087500002,51.0,92.0
52,14.9215759875,16.544301637500002,58.0,102.0
53,16.5579379875,17.659073250000002,59.0,73.0
54,16.5579379875,17.6670277875,63.0,69.0
55,16.5579379875,17.6693005125,51.0,69.0
56,16.5579379875,17.677255050000003,56.0,57.0
57,15.467029987500002,17.7193004625,44.0,88.0
58,17.6488459875,17.7193004625,44.0,89.0
59,18.194299987500003,18.811344825000003,56.0,81.0
60,18.194299987500003,18.836344800000003,59.0,88.0
61,18.194299987500003,18.855662962500002,63.0,78.0
62,18.739753987500002,19.807934737500002,51.0,83.0
63,19.2852079875,19.8783892125,59.0,90.0
64,19.2852079875,19.884071025,56.0,78.0
65,19.2852079875,19.915889175,63.0,85.0
66,19.8306619875,20.9181609,44.0,72.0
67,20.3761159875,20.947706325000002,56.0,78.0
68,20.3761159875,20.9897517375,59.0,86.0
69,20.3761159875,21.0147517125,63.0,83.0
70,20.921569987500003,21.8692963125,51.0,72.0
71,21.467023987500003,21.993159825000003,59.0,89.0
72,21.467023987500003,21.993159825000003,63.0,88.0
73,21.467023987500003,22.0011143625,56.0,89.0
74,22.012477987500002,23.04997695,39.0,95.0
75,22.5579319875,23.074976925,51.0,88.0
76,22.5579319875,23.0874769125,54.0,93.0
77,22.5579319875,23.111340525000003,58.0,93.0
78,23.1033859875,23.784067125000004,46.0,65.0
79,23.6488399875,24.1965667125,54.0,90.0
80,23.6488399875,24.201112162500003,51.0,82.0
81,23.6488399875,24.215884875,58.0,90.0
82,24.194293987500004,25.1738384625,44.0,88.0
83,24.739747987500003,25.374974625000004,59.0,95.0
84,24.739747987500003,25.3829291625,63.0,93.0
85,24.739747987500003,25.447701825000003,56.0,96.0
86,25.830655987500002,26.3102009625,56.0,77.0
87,25.830655987500002,26.31361005,61.0,89.0
88,25.285201987500002,26.3329282125,51.0,78.0
89,25.830655987500002,26.336337300000004,58.0,95.0
90,26.3761099875,27.487472512500002,44.0,88.0
91,26.9215639875,27.573836062500003,56.0,82.0
92,26.9215639875,27.612472387500002,63.0,92.0
93,26.9215639875,27.618154200000003,59.0,95.0
94,28.012471987500003,28.523835112500002,56.0,89.0
95,28.012471987500003,28.597698675000004,59.0,96.0
96,27.467017987500004,28.624971375,51.0,72.0
97,28.012471987500003,28.634062275,63.0,86.0
98,28.557925987500003,29.678379412500004,44.0,67.0
99,29.103379987500002,29.702243025,56.0,90.0
100,29.103379987500002,29.781788400000003,59.0,100.0
101,29.103379987500002,29.788606575000003,63.0,89.0
102,29.6488339875,30.3101969625,51.0,71.0
103,30.1942879875,30.685196587500002,63.0,88.0
104,30.1942879875,30.703378387500003,59.0,96.0
105,30.1942879875,30.739741987500004,56.0,78.0
106,30.739741987500004,31.632922912500003,39.0,70.0
107,31.285195987500003,31.8011045625,54.0,90.0
108,31.285195987500003,31.82269545,51.0,85.0
109,31.285195987500003,31.842013612500004,58.0,90.0
110,31.830649987500003,32.493149325000005,46.0,99.0
111,32.3761039875,32.88633075,51.0,81.0
112,32.3761039875,32.8897398375,54.0,89.0
113,32.3761039875,32.911330725,58.0,86.0
114,32.9215579875,33.676102687500006,39.0,69.0
115,33.4670119875,34.0170114375,51.0,78.0
116,33.4670119875,34.0181478,54.0,86.0
117,33.4670119875,34.0670113875,58.0,86.0
118,34.0124659875,34.54542,39.0,79.0
119,34.5579199875,34.961328675000004,51.0,79.0
120,34.5579199875,34.9942831875,54.0,86.0
121,34.5579199875,35.018146800000004,58.0,86.0
122,35.648827987500006,36.2238274125,59.0,90.0
123,35.648827987500006,36.231781950000006,56.0,86.0
124,35.648827987500006,36.252236475000004,63.0,88.0
125,35.1033739875,36.25905465,44.0,92.0
126,36.194281987500005,37.1692810125,51.0,56.0
127,36.739735987500005,37.3010990625,56.0,88.0
128,36.739735987500005,37.347689925000005,59.0,99.0
129,36.739735987500005,37.356780825,63.0,90.0
130,37.285189987500004,38.1692800125,44.0,73.0
131,37.830643987500004,38.4897342375,56.0,89.0
132,37.830643987500004,38.519279662500004,63.0,90.0
133,37.830643987500004,38.534052375,59.0,95.0
134,38.3760979875,39.095415450000004,51.0,37.0
135,38.9215519875,39.4624605375,56.0,90.0
136,38.9215519875,39.4783696125,59.0,93.0
137,38.9215519875,39.4988241375,63.0,93.0
138,39.4670059875,40.5579139875,44.0,75.0
139,40.0124599875,40.568141250000004,56.0,88.0
140,40.0124599875,40.585186687500006,59.0,93.0
141,40.0124599875,40.6147321125,63.0,88.0
142,40.5579139875,41.531776650000005,46.0,79.0
143,41.1033679875,41.599958400000006,61.0,89.0
144,41.1033679875,41.744276437500005,58.0,85.0
145,41.6488219875,42.5806392375,47.0,95.0
146,42.194275987500006,42.678366412500004,59.0,97.0
147,42.194275987500006,42.7738208625,63.0,96.0
148,42.194275987500006,42.777229950000006,54.0,85.0
149,42.739729987500006,43.385183887500006,47.0,67.0
150,43.285183987500005,43.830637987500005,54.0,90.0
151,43.285183987500005,43.830637987500005,59.0,107.0
152,43.285183987500005,43.830637987500005,63.0,95.0
153,43.830637987500005,44.894273287500006,39.0,78.0
154,44.376091987500004,44.9033641875,54.0,92.0
155,44.376091987500004,44.909046000000004,51.0,89.0
156,44.376091987500004,44.932909612500005,58.0,86.0
157,44.921545987500004,45.7635906,46.0,59.0
158,45.4669999875,46.03177215,54.0,83.0
159,45.4669999875,46.03972668750001,51.0,83.0
160,45.4669999875,46.05222667500001,58.0,86.0
161,46.0124539875,47.105634712500006,39.0,61.0
162,46.5579079875,47.119271062500005,54.0,89.0
163,46.5579079875,47.1283619625,51.0,82.0
164,46.5579079875,47.162452837500005,58.0,86.0
165,47.1033619875,47.688588675000005,46.0,58.0
166,47.6488159875,48.128360962500004,51.0,81.0
167,47.6488159875,48.1419973125,54.0,92.0
168,47.6488159875,48.1544973,58.0,86.0
169,47.6488159875,48.221542687500005,61.0,86.0
170,48.73972398750001,49.24654166250001,63.0,88.0
171,48.73972398750001,49.25335983750001,59.0,95.0
172,48.73972398750001,49.3010870625,56.0,88.0
173,48.19426998750001,49.323814312500005,44.0,77.0
174,49.830631987500006,50.3363133,61.0,93.0
175,49.285177987500006,50.344267837500006,51.0,66.0
176,49.830631987500006,50.406767775000006,58.0,92.0
177,50.921539987500005,51.465857625000005,59.0,93.0
178,50.921539987500005,51.488584875,63.0,90.0
179,50.376085987500005,51.5238121125,44.0,66.0
180,51.466993987500004,51.952220775,58.0,95.0
181,51.466993987500004,52.318129500000005,51.0,65.0
182,52.0124479875,52.411311225000006,59.0,96.0
183,53.1033559875,53.69426448750001,59.0,97.0
184,53.1033559875,53.6988099375,56.0,92.0
185,53.1033559875,53.715855375000004,63.0,93.0
186,52.5579019875,53.765855325000004,44.0,93.0
187,53.6488099875,54.491990962500005,51.0,112.0
188,54.1942639875,54.75221797500001,59.0,99.0
189,54.1942639875,54.75335433750001,63.0,92.0
190,54.1942639875,54.7624452375,56.0,90.0
191,55.28517198750001,55.7851714875,59.0,96.0
192,55.28517198750001,55.80562601250001,63.0,92.0
193,55.28517198750001,55.813580550000005,56.0,96.0
194,54.73971798750001,55.826080537500005,44.0,88.0
195,55.83062598750001,56.827215900000006,51.0,67.0
196,56.376079987500006,56.86357950000001,56.0,90.0
197,56.376079987500006,56.86926131250001,59.0,95.0
198,56.376079987500006,56.8919885625,63.0,85.0
199,57.466987987500005,57.991987462500006,58.0,100.0
200,57.466987987500005,57.9965329125,54.0,99.0
201,56.921533987500005,58.002214725,42.0,83.0
202,57.466987987500005,58.0090329,61.0,93.0
203,58.012441987500004,58.66812315000001,49.0,66.0
204,58.557895987500004,59.052213675000004,61.0,89.0
205,58.557895987500004,59.0533500375,54.0,90.0
206,58.557895987500004,59.113577250000006,58.0,92.0
207,59.6488039875,60.223803412500004,63.0,88.0
208,59.1033499875,60.236303400000004,44.0,72.0
209,59.6488039875,60.25789428750001,59.0,95.0
210,59.6488039875,60.4010759625,56.0,85.0
211,60.7397119875,61.2783478125,61.0,89.0
212,60.1942579875,61.294256887500005,51.0,72.0
213,60.7397119875,61.31130232500001,58.0,93.0
214,61.83061998750001,62.41243758750001,63.0,83.0
215,61.28516598750001,62.415846675000004,44.0,76.0
216,61.83061998750001,62.420392125000006,56.0,85.0
217,61.83061998750001,62.420392125000006,59.0,97.0
218,62.37607398750001,63.3828911625,51.0,68.0
219,62.921527987500006,63.46584562500001,56.0,79.0
220,62.921527987500006,63.487436512500004,59.0,95.0
221,62.921527987500006,63.49652741250001,63.0,86.0
222,64.0124359875,64.54766272500001,56.0,88.0
223,63.466981987500006,64.5624354375,44.0,69.0
224,64.0124359875,64.58061723750001,59.0,96.0
225,64.0124359875,64.5908445,63.0,90.0
226,64.5578899875,65.3090256,51.0,72.0
227,65.10334398750001,65.55561626250001,63.0,89.0
228,65.10334398750001,65.55788898750001,59.0,99.0
229,65.10334398750001,65.5851616875,56.0,89.0
230,65.6487979875,66.69425148750001,39.0,82.0
231,66.19425198750001,66.729478725,54.0,86.0
232,66.19425198750001,66.761296875,51.0,79.0
233,66.19425198750001,66.79425138750001,58.0,88.0
234,66.7397059875,67.62947782500001,46.0,49.0
235,67.28515998750001,67.7760685875,54.0,86.0
236,67.28515998750001,67.788568575,51.0,83.0
237,67.28515998750001,67.8010685625,58.0,88.0
238,68.37606798750001,68.8465220625,51.0,79.0
239,68.37606798750001,68.87379476250001,54.0,89.0
240,68.37606798750001,68.91470381250001,58.0,85.0
241,67.8306139875,68.9465219625,39.0,72.0
242,68.9215219875,69.60333948750001,46.0,69.0
243,69.4669759875,69.62833946250001,51.0,83.0
244,69.4669759875,69.6737939625,54.0,96.0
245,69.4669759875,69.68174850000001,58.0,93.0
246,70.0124299875,70.68629295000001,49.0,85.0
247,70.5578839875,71.13174705,56.0,93.0
248,70.5578839875,71.1465197625,61.0,95.0
249,70.5578839875,71.1647015625,65.0,97.0
250,71.10333798750001,71.8419736125,49.0,62.0
251,71.6487919875,72.16356420000001,56.0,82.0
252,71.6487919875,72.184018725,61.0,90.0
253,71.6487919875,72.20788233750001,65.0,92.0
254,72.19424598750001,72.997654275,49.0,50.0
255,72.7396999875,73.3669720875,56.0,86.0
256,72.7396999875,73.37151753750001,61.0,89.0
257,72.7396999875,73.4010629625,65.0,88.0
258,73.28515398750001,74.09310772500001,49.0,75.0
259,73.8306079875,74.37038017500001,56.0,89.0
260,73.8306079875,74.38628925,65.0,96.0
261,73.8306079875,74.39878923750001,61.0,96.0
262,74.37606198750001,75.45901545000001,44.0,73.0
263,74.9215159875,75.54537900000001,59.0,90.0
264,74.9215159875,75.565833525,56.0,81.0
265,74.9215159875,75.5828789625,63.0,81.0
266,75.46696998750001,76.502196225,51.0,52.0
267,76.0124239875,76.60333248750001,59.0,93.0
268,76.0124239875,76.6101506625,56.0,85.0
269,76.0124239875,76.61924156250001,63.0,85.0
270,76.5578779875,77.59083150000001,44.0,60.0
271,77.10333198750001,77.61696783750001,56.0,85.0
272,77.10333198750001,77.6181042,59.0,90.0
273,77.10333198750001,77.64083145000001,63.0,82.0
274,77.6487859875,78.15901275,51.0,48.0
275,78.19423998750001,78.684012225,59.0,89.0
276,78.19423998750001,78.6896940375,63.0,88.0
277,78.19423998750001,78.72264855,56.0,81.0
278,78.7396939875,79.78173840000001,39.0,82.0
279,79.28514798750001,79.847647425,51.0,82.0
280,79.28514798750001,79.86014741250001,54.0,83.0
281,79.28514798750001,79.87719285,58.0,81.0
282,79.8306019875,80.2271925,46.0,55.0
283,80.37605598750001,80.70105566250001,51.0,85.0
284,80.37605598750001,80.779464675,58.0,86.0
285,80.37605598750001,80.7806010375,54.0,88.0
286,80.9215099875,81.5737820625,47.0,79.0
287,81.46696398750001,82.07491792500001,54.0,86.0
288,81.46696398750001,82.10446335,59.0,90.0
289,81.46696398750001,82.12264515000001,63.0,85.0
290,82.0124179875,82.6453719,47.0,74.0
291,82.55787198750001,83.090826,54.0,79.0
292,82.55787198750001,83.1737804625,59.0,90.0
293,82.55787198750001,83.18287136250001,63.0,77.0
294,83.6487799875,84.13514313750001,63.0,85.0
295,83.6487799875,84.1760521875,59.0,95.0
296,83.1033259875,84.19082490000001,44.0,70.0
297,83.6487799875,84.2033248875,56.0,79.0
298,84.7396879875,85.21241478750001,61.0,89.0
299,84.19423398750001,85.25900565,51.0,61.0
300,84.7396879875,85.3283237625,58.0,89.0
301,85.8305959875,86.32832276250001,63.0,67.0
302,85.8305959875,86.40332268750001,59.0,79.0
303,85.28514198750001,86.41354995,44.0,71.0
304,85.8305959875,86.4328681125,56.0,70.0
305,86.37604998750001,87.02604933750001,51.0,73.0
306,86.9215039875,87.44763982500001,58.0,92.0
307,86.9215039875,87.46127617500001,61.0,93.0
308,87.46695798750001,88.35403719583334,44.0,93.0
309,88.01607396250002,88.52649103750001,59.0,100.0
310,88.01607396250002,88.53112067083335,56.0,97.0
311,88.01607396250002,88.54732438750001,63.0,96.0
312,88.57162996250001,89.16538043750002,51.0,102.0
313,89.12718596250001,89.65264934583335,59.0,107.0
314,89.12718596250001,89.65727897916668,63.0,99.0
315,89.68274196250002,90.62487234583335,40.0,89.0
316,90.23829796250001,90.80658545416668,52.0,89.0
317,90.23829796250001,90.81931694583335,56.0,92.0
318,90.23829796250001,90.82741880416668,59.0,90.0
319,90.79385396250001,91.34478032916668,47.0,68.0
320,91.34940996250002,91.86792889583334,42.0,95.0
321,91.90496596250001,93.01723537083335,44.0,102.0
322,92.46052196250001,93.06237429583335,56.0,82.0
323,92.46052196250001,93.07973542083334,63.0,86.0
324,92.46052196250001,93.10751322083334,59.0,90.0
325,93.57163396250002,93.84246751250001,56.0,99.0
326,93.01607796250002,93.85519900416668,51.0,79.0
327,93.57163396250002,93.91769905416668,59.0,102.0
328,93.57163396250002,93.91885646250002,63.0,99.0
329,93.84941196250001,94.14107886250001,46.0,83.0
330,94.12718996250001,94.85172757916668,47.0,95.0
331,94.68274596250001,95.27674853750001,54.0,81.0
332,94.68274596250001,95.2835667125,59.0,89.0
333,94.68274596250001,95.28470307500001,63.0,78.0
334,95.23470312500001,95.77561167500001,47.0,93.0
335,95.78015712500002,96.20629306250001,59.0,96.0
336,95.78015712500002,96.2222021375,63.0,83.0
337,95.78015712500002,96.25515665,54.0,86.0
338,96.32561112500001,97.4051555,39.0,76.0
339,96.87106512500002,97.48697360000001,51.0,83.0
340,96.87106512500002,97.49038268750002,54.0,89.0
341,96.87106512500002,97.5131099375,58.0,88.0
342,97.41651912500001,98.04606395,46.0,89.0
343,97.96197312500001,98.43015447500001,51.0,79.0
344,97.96197312500001,98.44379082500001,58.0,86.0
345,97.96197312500001,98.471063525,54.0,88.0
346,98.507427125,99.20629006250002,47.0,88.0
347,99.05288112500001,99.65742597500001,54.0,86.0
348,99.05288112500001,99.661971425,59.0,93.0
349,99.05288112500001,99.67447141250001,63.0,88.0
350,99.598335125,100.36537981250001,47.0,97.0
351,100.14378912500001,100.37674343750001,54.0,83.0
352,100.14378912500001,100.42333430000001,59.0,99.0
353,100.14378912500001,100.46651607500002,63.0,85.0
354,100.41651612500002,100.63356136250002,46.0,97.0
355,101.23469712500001,101.739242075,56.0,82.0
356,101.23469712500001,101.75174206250001,59.0,99.0
357,101.23469712500001,101.78242385000001,63.0,93.0
358,100.689243125,101.80401473750001,44.0,95.0
359,101.780151125,102.86196822500001,51.0,92.0
360,102.32560512500001,103.94833077500002,58.0,102.0
361,103.96196712500002,105.06310238750001,59.0,73.0
362,103.96196712500002,105.07105692500001,63.0,69.0
363,103.96196712500002,105.07332965,51.0,69.0
364,103.96196712500002,105.08128418750002,56.0,57.0
365,102.87105912500002,105.1233296,44.0,88.0
366,105.05287512500001,105.1233296,44.0,89.0
367,105.598329125,106.21537396250001,56.0,81.0
368,105.598329125,106.24037393750001,59.0,88.0
369,105.598329125,106.25969210000001,63.0,78.0
370,106.14378312500001,107.21196387500001,51.0,83.0
371,106.689237125,107.28241835000001,59.0,90.0
372,106.689237125,107.28810016250002,56.0,78.0
373,106.689237125,107.31991831250001,63.0,85.0
374,107.23469112500001,108.32219003750001,44.0,72.0
375,107.78014512500002,108.35173546250002,56.0,78.0
376,107.78014512500002,108.393780875,59.0,86.0
377,107.78014512500002,108.41878085000002,63.0,83.0
378,108.32559912500001,109.27332545000002,51.0,72.0
379,108.87105312500002,109.39718896250001,59.0,89.0
380,108.87105312500002,109.39718896250001,63.0,88.0
381,108.87105312500002,109.40514350000001,56.0,89.0
382,109.41650712500001,110.4540060875,39.0,95.0
383,109.96196112500002,110.4790060625,51.0,88.0
384,109.96196112500002,110.49150605000001,54.0,93.0
385,109.96196112500002,110.5153696625,58.0,93.0
386,110.50741512500001,111.18809626250001,46.0,65.0
387,111.05286912500002,111.60059585000002,54.0,90.0
388,111.05286912500002,111.60514130000001,51.0,82.0
389,111.05286912500002,111.6199140125,58.0,90.0
390,111.59832312500001,112.57786760000002,44.0,88.0
391,112.14377712500001,112.77900376250001,59.0,95.0
392,112.14377712500001,112.78695830000001,63.0,93.0
393,112.14377712500001,112.85173096250001,56.0,96.0
394,113.23468512500001,113.71423010000001,56.0,77.0
395,113.23468512500001,113.71763918750001,61.0,89.0
396,112.689231125,113.73695735000001,51.0,78.0
397,113.23468512500001,113.74036643750001,58.0,95.0
398,113.780139125,114.89150165000001,44.0,88.0
399,114.32559312500001,114.97786520000001,56.0,82.0
400,114.32559312500001,115.01650152500001,63.0,92.0
401,114.32559312500001,115.02218333750001,59.0,95.0
402,115.41650112500001,115.92786425000001,56.0,89.0
403,115.41650112500001,116.00172781250001,59.0,96.0
404,114.87104712500002,116.0290005125,51.0,72.0
405,115.41650112500001,116.03809141250001,63.0,86.0
406,115.96195512500002,117.08240855000001,44.0,67.0
407,116.50740912500001,117.1062721625,56.0,90.0
408,116.50740912500001,117.18581753750001,59.0,100.0
409,116.50740912500001,117.1926357125,63.0,89.0
410,117.05286312500002,117.71422610000002,51.0,71.0
411,117.59831712500001,118.089225725,63.0,88.0
412,117.59831712500001,118.10740752500001,59.0,96.0
413,117.59831712500001,118.14377112500001,56.0,78.0
414,118.14377112500001,119.03695205000001,39.0,70.0
415,118.68922512500001,119.2051337,54.0,90.0
416,118.68922512500001,119.22672458750002,51.0,85.0
417,118.68922512500001,119.24604275000002,58.0,90.0
418,119.23467912500001,119.89717846250001,46.0,99.0
419,119.78013312500002,120.29035988750002,51.0,81.0
420,119.78013312500002,120.293768975,54.0,89.0
421,119.78013312500002,120.31535986250002,58.0,86.0
422,120.32558712500001,121.08013182500001,39.0,69.0
423,120.871041125,121.421040575,51.0,78.0
424,120.871041125,121.42217693750001,54.0,86.0
425,120.871041125,121.471040525,58.0,86.0
426,121.41649512500001,121.94944913750001,39.0,79.0
427,121.96194912500002,122.36535781250001,51.0,79.0
428,121.96194912500002,122.398312325,54.0,86.0
429,121.96194912500002,122.42217593750001,58.0,86.0
430,123.05285712500002,123.62785655000002,59.0,90.0
431,123.05285712500002,123.63581108750002,56.0,86.0
432,123.05285712500002,123.65626561250001,63.0,88.0
433,122.50740312500001,123.66308378750001,44.0,92.0
434,123.59831112500001,124.57331015000001,51.0,56.0
435,124.14376512500002,124.70512820000002,56.0,88.0
436,124.14376512500002,124.75171906250002,59.0,99.0
437,124.14376512500002,124.76080996250002,63.0,90.0
438,124.68921912500001,125.57330915000001,44.0,73.0
439,125.23467312500001,125.89376337500002,56.0,89.0
440,125.23467312500001,125.92330880000002,63.0,90.0
441,125.23467312500001,125.93808151250002,59.0,95.0
442,125.780127125,126.49944458750001,51.0,37.0
443,126.32558112500001,126.86648967500001,56.0,90.0
444,126.32558112500001,126.88239875000002,59.0,93.0
445,126.32558112500001,126.90285327500001,63.0,93.0
446,126.87103512500002,127.961943125,44.0,75.0
447,127.41648912500001,127.97217038750001,56.0,88.0
448,127.41648912500001,127.989215825,59.0,93.0
449,127.41648912500001,128.01876125,63.0,88.0
450,127.961943125,128.93580578750002,46.0,79.0
451,128.507397125,129.0039875375,61.0,89.0
452,128.507397125,129.14830557500002,58.0,85.0
453,129.05285112500002,129.984668375,47.0,95.0
454,129.59830512500002,130.08239555,59.0,97.0
455,129.59830512500002,130.17785,63.0,96.0
456,129.59830512500002,130.1812590875,54.0,85.0
457,130.143759125,130.789213025,47.0,67.0
458,130.689213125,131.23466712500002,54.0,90.0
459,130.689213125,131.23466712500002,59.0,107.0
460,130.689213125,131.23466712500002,63.0,95.0
461,131.23466712500002,132.298302425,39.0,78.0
462,131.78012112500002,132.30739332500002,54.0,92.0
463,131.78012112500002,132.31307513750002,51.0,89.0
464,131.78012112500002,132.33693875,58.0,86.0
465,132.325575125,133.16761973750002,46.0,59.0
466,132.871029125,133.4358012875,54.0,83.0
467,132.871029125,133.443755825,51.0,83.0
468,132.871029125,133.45625581250002,58.0,86.0
469,133.416483125,134.50966385,39.0,61.0
470,133.96193712500002,134.52330020000002,54.0,89.0
471,133.96193712500002,134.5323911,51.0,82.0
472,133.96193712500002,134.56648197500002,58.0,86.0
473,134.50739112500003,135.0926178125,46.0,58.0
474,135.052845125,135.53239010000001,51.0,81.0
475,135.052845125,135.54602645,54.0,92.0
476,135.052845125,135.5585264375,58.0,86.0
477,135.052845125,135.625571825,61.0,86.0
478,136.14375312500002,136.65057080000003,63.0,88.0
479,136.14375312500002,136.657388975,59.0,95.0
480,136.14375312500002,136.70511620000002,56.0,88.0
481,135.598299125,136.72784345000002,44.0,77.0
482,137.234661125,137.7403424375,61.0,93.0
483,136.689207125,137.74829697500002,51.0,66.0
484,137.234661125,137.81079691250002,58.0,92.0
485,138.32556912500002,138.86988676250002,59.0,93.0
486,138.32556912500002,138.89261401250002,63.0,90.0
487,137.780115125,138.92784125000003,44.0,66.0
488,138.87102312500002,139.3562499125,58.0,95.0
489,138.87102312500002,139.7221586375,51.0,65.0
490,139.41647712500003,139.81534036250002,59.0,96.0
491,140.507385125,141.098293625,59.0,97.0
492,140.507385125,141.10283907500002,56.0,92.0
493,140.507385125,141.11988451250002,63.0,93.0
494,139.961931125,141.16988446250002,44.0,93.0
495,141.05283912500002,141.89602010000002,51.0,112.0
496,141.598293125,142.1562471125,59.0,99.0
497,141.598293125,142.15738347500002,63.0,92.0
498,141.598293125,142.166474375,56.0,90.0
499,142.689201125,143.189200625,59.0,96.0
500,142.689201125,143.20965515,63.0,92.0
501,142.689201125,143.21760968750002,56.0,96.0
502,142.143747125,143.23010967500002,44.0,88.0
503,143.23465512500002,144.2312450375,51.0,67.0
504,143.78010912500002,144.26760863750002,56.0,90.0
505,143.78010912500002,144.27329045000002,59.0,95.0
506,143.78010912500002,144.29601770000002,63.0,85.0
507,144.871017125,145.39601660000002,58.0,100.0
508,144.871017125,145.40056205000002,54.0,99.0
509,144.32556312500003,145.40624386250002,42.0,83.0
510,144.871017125,145.41306203750003,61.0,93.0
511,145.41647112500002,146.07215228750002,49.0,66.0
512,145.96192512500002,146.45624281250002,61.0,89.0
513,145.96192512500002,146.45737917500003,54.0,90.0
514,145.96192512500002,146.51760638750002,58.0,92.0
515,147.052833125,147.62783255000002,63.0,88.0
516,146.507379125,147.6403325375,44.0,72.0
517,147.052833125,147.661923425,59.0,95.0
518,147.052833125,147.80510510000002,56.0,85.0
519,148.14374112500002,148.68237695000002,61.0,89.0
520,147.598287125,148.69828602500002,51.0,72.0
521,148.14374112500002,148.71533146250002,58.0,93.0
522,149.234649125,149.816466725,63.0,83.0
523,148.68919512500003,149.81987581250002,44.0,76.0
524,149.234649125,149.8244212625,56.0,85.0
525,149.234649125,149.8244212625,59.0,97.0
526,149.780103125,150.78692030000002,51.0,68.0
527,150.32555712500002,150.86987476250002,56.0,79.0
528,150.32555712500002,150.89146565000001,59.0,95.0
529,150.32555712500002,150.90055655,63.0,86.0
530,151.416465125,151.9516918625,56.0,88.0
531,150.87101112500002,151.96646457500003,44.0,69.0
532,151.416465125,151.984646375,59.0,96.0
533,151.416465125,151.9948736375,63.0,90.0
534,151.961919125,152.71305473750002,51.0,72.0
535,152.50737312500002,152.9596454,63.0,89.0
536,152.50737312500002,152.961918125,59.0,99.0
537,152.50737312500002,152.989190825,56.0,89.0
538,153.05282712500002,154.09828062500003,39.0,82.0
539,153.59828112500003,154.1335078625,54.0,86.0
540,153.59828112500003,154.16532601250003,51.0,79.0
541,153.59828112500003,154.19828052500003,58.0,88.0
542,154.143735125,155.0335069625,46.0,49.0
543,154.689189125,155.18009772500002,54.0,86.0
544,154.689189125,155.1925977125,51.0,83.0
545,154.689189125,155.2050977,58.0,88.0
546,155.780097125,156.25055120000002,51.0,79.0
547,155.780097125,156.27782390000002,54.0,89.0
548,155.780097125,156.31873295000003,58.0,85.0
549,155.23464312500002,156.35055110000002,39.0,72.0
550,156.325551125,157.00736862500003,46.0,69.0
551,156.871005125,157.0323686,51.0,83.0
552,156.871005125,157.07782310000002,54.0,96.0
553,156.871005125,157.08577763750003,58.0,93.0
554,157.41645912500002,158.0903220875,49.0,85.0
555,157.96191312500002,158.5357761875,56.0,93.0
556,157.96191312500002,158.55054890000002,61.0,95.0
557,157.96191312500002,158.5687307,65.0,97.0
558,158.50736712500003,159.24600275,49.0,62.0
559,159.052821125,159.5675933375,56.0,82.0
560,159.052821125,159.58804786250002,61.0,90.0
561,159.052821125,159.611911475,65.0,92.0
562,159.59827512500001,160.4016834125,49.0,50.0
563,160.14372912500002,160.77100122500002,56.0,86.0
564,160.14372912500002,160.77554667500002,61.0,89.0
565,160.14372912500002,160.80509210000002,65.0,88.0
566,160.689183125,161.4971368625,49.0,75.0
567,161.234637125,161.7744093125,56.0,89.0
568,161.234637125,161.7903183875,65.0,96.0
569,161.234637125,161.80281837500002,61.0,96.0
570,161.780091125,162.8630445875,44.0,73.0
571,162.32554512500002,162.94940813750003,59.0,90.0
572,162.32554512500002,162.96986266250002,56.0,81.0
573,162.32554512500002,162.98690810000002,63.0,81.0
574,162.87099912500003,163.9062253625,51.0,52.0
575,163.41645312500003,164.00736162500002,59.0,93.0
576,163.41645312500003,164.01417980000002,56.0,85.0
577,163.41645312500003,164.0232707,63.0,85.0
578,163.961907125,164.9948606375,44.0,60.0
579,164.50736112500002,165.020996975,56.0,85.0
580,164.50736112500002,165.0221333375,59.0,90.0
581,164.50736112500002,165.0448605875,63.0,82.0
582,165.052815125,165.56304188750002,51.0,48.0
583,165.598269125,166.0880413625,59.0,89.0
584,165.598269125,166.09372317500004,63.0,88.0
585,165.598269125,166.12667768750003,56.0,81.0
586,166.143723125,167.1857675375,39.0,82.0
587,166.68917712500001,167.2516765625,51.0,82.0
588,166.68917712500001,167.26417655,54.0,83.0
589,166.68917712500001,167.28122198750003,58.0,81.0
590,167.23463112500002,167.6312216375,46.0,55.0
591,167.78008512500003,168.10508480000001,51.0,85.0
592,167.78008512500003,168.18349381250002,58.0,86.0
593,167.78008512500003,168.184630175,54.0,88.0
594,168.32553912500003,168.97781120000002,47.0,79.0
595,168.870993125,169.47894706250003,54.0,86.0
596,168.870993125,169.5084924875,59.0,90.0
597,168.870993125,169.52667428750001,63.0,85.0
598,169.41644712500002,170.04940103750002,47.0,74.0
599,169.961901125,170.4948551375,54.0,79.0
600,169.961901125,170.57780960000002,59.0,90.0
601,169.961901125,170.5869005,63.0,77.0
602,171.052809125,171.539172275,63.0,85.0
603,171.052809125,171.58008132500004,59.0,95.0
604,170.507355125,171.5948540375,44.0,70.0
605,171.052809125,171.607354025,56.0,79.0
606,172.14371712500002,172.616443925,61.0,89.0
607,171.59826312500002,172.6630347875,51.0,61.0
608,172.14371712500002,172.73235290000002,58.0,89.0
609,173.23462512500004,173.73235190000003,63.0,67.0
610,173.23462512500004,173.807351825,59.0,79.0
611,172.68917112500003,173.8175790875,44.0,71.0
612,173.23462512500004,173.83689725000002,56.0,70.0
613,173.78007912500001,174.4356135291667,51.0,73.0
614,174.3291319625,174.86501202083335,58.0,92.0
615,174.3291319625,174.87890092083336,61.0,93.0
616,174.8846879625,175.57103110416668,49.0,85.0
617,175.44024396250003,176.02473517083337,56.0,93.0
618,175.44024396250003,176.0397814791667,61.0,95.0
619,175.44024396250003,176.0583000125,65.0,97.0
620,175.99579996250003,176.74811537916668,49.0,62.0
621,176.55135596250003,177.07566193750003,56.0,82.0
622,176.55135596250003,177.09649528750003,61.0,90.0
623,176.55135596250003,177.12080086250003,65.0,92.0
624,177.10691196250002,177.91682341250004,49.0,50.0
625,177.65886912500002,178.28614122500002,56.0,86.0
626,177.65886912500002,178.29068667500002,61.0,89.0
627,177.65886912500002,178.32023210000003,65.0,88.0
628,178.20432312500003,179.01227686250002,49.0,75.0
629,178.74977712500004,179.28954931250001,56.0,89.0
630,178.74977712500004,179.3054583875,65.0,96.0
631,178.74977712500004,179.31795837500002,61.0,96.0
632,179.29523112500002,180.37818458750002,44.0,73.0
633,179.84068512500002,180.46454813750003,59.0,90.0
634,179.84068512500002,180.48500266250002,56.0,81.0
635,179.84068512500002,180.50204810000002,63.0,81.0
636,180.38613912500003,181.4213653625,51.0,52.0
637,180.93159312500003,181.52250162500002,59.0,93.0
638,180.93159312500003,181.52931980000002,56.0,85.0
639,180.93159312500003,181.53841070000001,63.0,85.0
640,181.477047125,182.5100006375,44.0,60.0
641,182.02250112500002,182.53613697500003,56.0,85.0
642,182.02250112500002,182.5372733375,59.0,90.0
643,182.02250112500002,182.5600005875,63.0,82.0
644,182.56795512500003,183.07818188750002,51.0,48.0
645,183.11340912500003,183.60318136250004,59.0,89.0
646,183.11340912500003,183.608863175,63.0,88.0
647,183.11340912500003,183.64181768750004,56.0,81.0
648,183.65886312500004,184.70090753750003,39.0,82.0
649,184.20431712500002,184.76681656250003,51.0,82.0
650,184.20431712500002,184.77931655000003,54.0,83.0
651,184.20431712500002,184.79636198750003,58.0,81.0
652,184.74977112500002,185.14636163750004,46.0,55.0
653,185.29522512500003,185.62022480000002,51.0,85.0
654,185.29522512500003,185.69863381250002,58.0,86.0
655,185.29522512500003,185.69977017500003,54.0,88.0
656,185.84067912500004,186.49295120000002,47.0,79.0
657,186.38613312500001,186.99408706250003,54.0,86.0
658,186.38613312500001,187.02363248750004,59.0,90.0
659,186.38613312500001,187.04181428750002,63.0,85.0
660,186.93158712500002,187.56454103750002,47.0,74.0
661,187.47704112500003,188.00999513750003,54.0,79.0
662,187.47704112500003,188.09294960000003,59.0,90.0
663,187.47704112500003,188.10204050000002,63.0,77.0
664,188.567949125,189.05431227500003,63.0,85.0
665,188.567949125,189.095221325,59.0,95.0
666,188.02249512500003,189.10999403750003,44.0,70.0
667,188.567949125,189.12249402500004,56.0,79.0
668,189.65885712500003,190.13158392500003,61.0,89.0
669,189.11340312500002,190.1781747875,51.0,61.0
670,189.65885712500003,190.24749290000003,58.0,89.0
671,190.749765125,191.24749190000003,63.0,67.0
672,190.749765125,191.32249182500001,59.0,79.0
673,190.20431112500003,191.33271908750004,44.0,71.0
674,190.749765125,191.35203725000002,56.0,70.0
675,191.29521912500002,191.94521847500002,51.0,73.0
676,191.84067312500002,192.36680896250002,58.0,92.0
677,191.84067312500002,192.38044531250003,61.0,93.0
678,192.38612712500003,192.8213539625,56.0,92.0
679,192.38612712500003,192.827035775,63.0,93.0
680,192.38612712500003,192.8327175875,59.0,96.0
681,192.93158112500004,193.33158072500004,56.0,69.0
682,192.93158112500004,193.33158072500004,59.0,71.0
683,192.38612712500003,193.33953526250002,44.0,69.0
684,192.93158112500004,193.33953526250002,63.0,71.0
685,193.47703512500001,194.20657985000003,51.0,75.0
686,194.02248912500002,194.68044301250004,56.0,90.0
687,194.02248912500002,194.68498846250003,59.0,92.0
688,194.02248912500002,194.70544298750002,63.0,90.0
689,194.56794312500003,195.7145328875,44.0,73.0
690,195.11339712500003,195.72589651250001,63.0,88.0
691,195.11339712500003,195.73044196250004,59.0,95.0
692,195.11339712500003,195.95203265000004,56.0,86.0
693,196.20430512500002,196.50885027500001,61.0,99.0
694,195.658851125,196.65430467500002,51.0,83.0
695,196.20430512500002,196.65544103750003,58.0,102.0
696,196.74975912500003,202.28270813750004,51.0,79.0
697,196.74975912500003,202.28952631250002,59.0,97.0
698,196.74975912500003,202.29748085000003,63.0,97.0
699,196.74975912500003,202.30316266250003,56.0,97.0
700,196.74975912500003,202.34634443750002,44.0,70.0
