,start,end,pitch,velocity
0,27.482807864583332,27.83453191458333,62.0,92.0
1,27.89660086458333,28.21556630208333,72.0,94.0
2,28.310393864583332,29.30004878958333,71.0,95.0
3,29.55177286458333,29.82935900208333,71.0,86.0
4,29.965565864583333,30.27246233958333,72.0,91.0
5,30.37935886458333,30.698324302083332,71.0,92.0
6,30.79315186458333,31.15184430208333,69.0,92.0
7,31.207399835416663,31.545941366666664,67.0,90.0
8,31.624066335416664,31.926149547916665,69.0,90.0
9,32.04073283541666,32.330663275,71.0,91.0
10,32.45739933541666,32.790732535416666,72.0,92.0
11,32.874065835416665,34.228231960416664,71.0,94.0
12,34.540731835416665,34.903578912499995,64.0,102.0
13,34.95739833541666,36.04767567708333,72.0,93.0
14,36.207397835416664,36.49559216458333,72.0,92.0
15,36.62406433541666,36.93830032083333,74.0,95.0
16,37.04073083541667,37.35323071041666,72.0,92.0
17,37.457397335416665,37.82198052291666,69.0,89.0
18,37.87406383541666,38.20913314583333,71.0,90.0
19,38.29073033541666,39.39836878125,72.0,90.0
20,39.54072983541666,39.81156306041666,71.0,93.0
21,39.95739633541666,41.019895910416665,71.0,93.0
22,41.20739583541666,41.53725681458333,67.0,94.0
23,41.62406233541667,42.76468687916666,74.0,102.0
24,42.87406183541666,43.13621450833333,74.0,97.0
25,43.29072833541666,43.60843654166666,76.0,94.0
26,43.707394835416665,44.01642248958333,74.0,95.0
27,44.12406133541666,44.462602866666664,72.0,93.0
28,44.54072783541666,44.86885270416666,71.0,95.0
29,44.957394335416666,45.288991425,71.0,97.0
30,45.374060835416664,45.67093571666666,72.0,94.0
31,45.79072733541666,46.071977222916665,69.0,90.0
32,46.20739383541667,46.53551870416666,67.0,92.0
33,46.624060335416665,47.306351729166664,78.0,90.0
34,47.87405983541666,48.16051805416666,76.0,93.0
35,48.290726335416664,48.57892066458333,74.0,95.0
36,48.70739283541666,48.99905938541666,72.0,92.0
37,49.12405933541666,49.42267032708333,64.0,97.0
38,49.540725835416666,49.8619062625,66.0,91.0
39,49.957392335416664,50.65704483333333,71.0,90.0
40,50.79072533541667,51.49211394375,69.0,90.0
41,51.62405833541666,53.29072433541666,67.0,84.0
42,54.124057335416666,54.47822386041666,62.0,92.0
43,54.540723835416664,54.86190426249999,72.0,94.0
44,54.95739033541666,55.953917714583326,71.0,95.0
45,56.20738983541666,56.4869036125,71.0,86.0
46,56.62405633541666,56.93308398958333,72.0,91.0
47,57.04072283541666,57.36190326249999,71.0,92.0
48,57.457389335416664,57.81850030208333,69.0,92.0
49,57.87405583541666,58.212597366666664,67.0,90.0
50,58.29072233541666,58.59280554791666,69.0,90.0
51,58.707388835416666,58.997319274999995,71.0,91.0
52,59.124055335416664,59.45738853541666,72.0,92.0
53,59.54072183541666,60.89488796041666,71.0,94.0
54,61.20738783541666,61.5702349125,64.0,102.0
55,61.62405433541666,62.71433167708333,72.0,93.0
56,62.87405383541666,63.16224816458333,72.0,92.0
57,63.290720335416665,63.604956320833324,74.0,95.0
58,63.707386835416656,64.01988671041666,72.0,92.0
59,64.12405333541666,64.48863652291666,69.0,89.0
60,64.54071983541667,64.87578914583332,71.0,90.0
61,64.95738633541666,66.06502478124999,72.0,90.0
62,66.20738583541666,66.47821906041666,71.0,93.0
63,66.62405233541666,67.68655191041667,71.0,93.0
64,67.87405183541667,68.20391281458333,67.0,94.0
65,68.29071833541666,69.43134287916666,74.0,102.0
66,69.54071783541666,69.80287050833333,74.0,97.0
67,69.95738433541666,70.27509254166667,76.0,94.0
68,70.37405083541667,70.68307848958332,74.0,95.0
69,70.79071733541666,71.12925886666666,72.0,93.0
70,71.20738383541666,71.53550870416666,71.0,95.0
71,71.62405033541665,71.955647425,71.0,97.0
72,72.04071683541666,72.33759171666667,72.0,94.0
73,72.45738333541667,72.73863322291666,69.0,90.0
74,72.87404983541666,73.20217470416667,67.0,92.0
75,73.29071633541666,73.97300772916667,78.0,90.0
76,74.54071583541666,74.82717405416666,76.0,93.0
77,74.95738233541667,75.24557666458333,74.0,95.0
78,75.37404883541666,75.66571538541666,72.0,92.0
79,75.79071533541666,76.08932632708333,64.0,97.0
80,76.20738183541665,76.52856226249999,66.0,91.0
81,76.62404833541666,77.32370083333333,71.0,90.0
82,77.45738133541666,78.15876994374999,69.0,90.0
83,78.29071433541667,79.95738033541666,67.0,84.0
84,80.37404683541666,80.66050505416666,67.0,97.0
85,80.79071333541665,81.06328267083333,71.0,99.0
86,81.20737983541666,81.50946304791667,74.0,99.0
87,81.62404633541666,81.91224066458332,74.0,102.0
88,82.04071283541666,82.30112939791667,76.0,99.0
89,82.45737933541666,82.77161532083333,72.0,99.0
90,82.87404583541667,83.00425411666666,71.0,93.0
91,83.08237908541666,83.84800377916666,69.0,99.0
92,83.91571208541666,84.03723981458333,67.0,91.0
93,84.12404533541667,84.25425361666666,71.0,95.0
94,84.33237858541666,84.62925346666665,72.0,99.0
95,84.74904508541665,85.27161432083332,72.0,97.0
96,85.37404483541665,85.65529472291666,74.0,102.0
97,85.79071133541666,86.11362787291667,71.0,102.0
98,86.20737783541666,86.33237778541667,69.0,94.0
99,86.41571108541666,87.24209964375,67.0,92.0
100,87.24904408541666,87.38966902916665,62.0,91.0
101,87.45737733541667,87.58237728541665,69.0,89.0
102,87.66571058541666,87.93307158958332,71.0,90.0
103,88.08237708541667,88.64140463958333,71.0,99.0
104,88.70737683541667,88.90529342291666,72.0,92.0
105,89.12404333541666,89.39487656041666,72.0,97.0
106,89.54070983541666,89.89487636041666,64.0,97.0
107,89.95737633541665,90.45043169374999,66.0,90.0
108,90.79070933541666,91.08758421666666,67.0,91.0
109,91.20737583541666,91.53550070416667,69.0,95.0
110,91.62404233541666,92.82716685416666,67.0,93.0
111,92.87404183541666,93.19869448333333,69.0,92.0
112,93.29070833541667,93.65008319166667,71.0,93.0
113,93.70737483541666,94.01119415833332,67.0,94.0
114,94.12404133541666,94.45911064583332,71.0,95.0
115,94.54070783541665,94.83758271666666,74.0,102.0
116,94.95737433541666,95.24209644374999,74.0,97.0
117,95.37404083541665,95.63966572916665,76.0,95.0
118,95.79070733541666,96.11535998333332,72.0,91.0
119,96.20737383541666,96.36883210416666,71.0,91.0
120,96.41570708541666,97.08931792708333,69.0,92.0
121,97.24904008541665,97.37056781458332,79.0,94.0
122,97.45737333541666,97.59278994791666,78.0,94.0
123,97.66570658541666,98.22820636041666,79.0,94.0
124,98.29070633541666,98.58410899583332,74.0,95.0
125,98.70737283541666,99.01466437916666,76.0,95.0
126,99.12403933541665,99.47126141874999,74.0,102.0
127,99.54070583541666,99.74903908541665,72.0,93.0
128,99.74903908541665,100.44001103125,71.0,95.0
129,100.58237208541665,100.70216370416665,67.0,94.0
130,100.79070533541666,100.92091361666665,72.0,99.0
131,100.99903858541666,101.50424671666666,74.0,97.0
132,101.62403833541666,101.90876044374998,74.0,95.0
133,102.04070483541666,102.29591306666666,76.0,94.0
134,102.45737133541665,102.73341289166666,76.0,97.0
135,102.87403783541666,103.20389881458333,67.0,92.0
136,103.29070433541666,103.96084295624999,67.0,90.0
137,104.12403733541666,104.82716205416665,66.0,94.0
138,104.95737033541666,107.23167498125,67.0,94.0
139,107.45736933541666,107.81153586041665,62.0,92.0
140,107.87403583541666,108.19521626249998,72.0,94.0
141,108.29070233541665,109.28722971458332,71.0,95.0
142,109.54070183541666,109.8202156125,71.0,86.0
143,109.95736833541666,110.26639598958332,72.0,91.0
144,110.37403483541665,110.69521526249999,71.0,92.0
145,110.79070133541666,111.15181230208333,69.0,92.0
146,111.20736783541666,111.54590936666665,67.0,90.0
147,111.62403433541665,111.92611754791666,69.0,90.0
148,112.04070083541666,112.33063127499999,71.0,91.0
149,112.45736733541666,112.79070053541666,72.0,92.0
150,112.87403383541665,114.22819996041666,71.0,94.0
151,114.54069983541666,114.90354691249999,64.0,102.0
152,114.95736633541665,116.04764367708333,72.0,93.0
153,116.20736583541665,116.49556016458332,72.0,92.0
154,116.62403233541666,116.93826832083332,74.0,95.0
155,117.04069883541665,117.35319871041665,72.0,92.0
156,117.45736533541665,117.82194852291666,69.0,89.0
157,117.87403183541666,118.20910114583332,71.0,90.0
158,118.29069833541665,119.39833678125,72.0,90.0
159,119.54069783541665,119.81153106041666,71.0,93.0
160,119.95736433541666,121.01986391041666,71.0,93.0
161,121.20736383541666,121.53722481458333,67.0,94.0
162,121.62403033541665,122.76465487916666,74.0,102.0
163,122.87402983541665,123.13618250833332,74.0,97.0
164,123.29069633541665,123.60840454166666,76.0,94.0
165,123.70736283541666,124.01639048958332,74.0,95.0
166,124.12402933541665,124.46257086666665,72.0,93.0
167,124.54069583541666,124.86882070416665,71.0,95.0
168,124.95736233541666,125.28895942499999,71.0,97.0
169,125.37402883541665,125.67090371666666,72.0,94.0
170,125.79069533541666,126.07194522291665,69.0,90.0
171,126.20736183541665,126.53548670416666,67.0,92.0
172,126.62402833541665,127.30631972916666,78.0,90.0
173,127.87402783541665,128.16048605416665,76.0,93.0
174,128.29069433541667,128.57888866458333,74.0,95.0
175,128.70736083541667,128.99902738541667,72.0,92.0
176,129.12402733541666,129.42263832708332,64.0,97.0
177,129.54069383541668,129.8618742625,66.0,91.0
178,129.95736033541667,130.65701283333334,71.0,90.0
179,130.79069333541665,131.49208194375,69.0,90.0
180,131.62402633541666,133.29069233541665,67.0,84.0
181,146.62402033541667,146.92263132708334,71.0,102.0
182,147.04068683541666,147.1535340125,74.0,104.0
183,147.24902008541667,147.56672829166666,79.0,93.0
184,147.66568658541667,148.12922806666666,81.0,95.0
185,148.29068633541667,148.61360287291666,83.0,93.0
186,148.70735283541666,148.80631112916666,79.0,99.0
187,148.91568608541667,149.24207484375,79.0,92.0
188,149.33235258541666,149.85839404166666,76.0,97.0
189,149.95735233541666,150.21429667708333,81.0,104.0
190,150.37401883541665,150.49207434375,78.0,93.0
191,150.58235208541666,150.99901858541665,78.0,97.0
192,150.99901858541665,151.41568508541667,76.0,83.0
193,151.62401833541665,151.95735153541665,74.0,102.0
194,152.04068483541667,152.34276804791665,81.0,94.0
195,152.45735133541666,152.76290676874999,78.0,92.0
196,152.87401783541665,154.23860062291666,79.0,92.0
197,154.95735033541666,155.35665573125,72.0,97.0
198,155.37401683541665,155.50596122708333,71.0,94.0
199,155.58235008541666,155.91741939583332,72.0,94.0
200,155.99901658541665,156.50943304791667,74.0,97.0
201,156.62401633541666,157.03026617291667,76.0,95.0
202,157.04068283541667,157.15700223333332,74.0,102.0
203,157.24901608541666,157.62575204583334,76.0,94.0
204,157.66568258541665,158.1014463,78.0,99.0
205,158.29068233541665,158.59450165833331,79.0,94.0
206,158.70734883541667,158.84970988958332,78.0,95.0
207,158.91568208541665,159.18477919999998,79.0,90.0
208,159.33234858541664,159.85839004166667,81.0,93.0
209,159.95734833541664,160.37401483541666,81.0,95.0
210,160.37401483541666,160.66047305416666,67.0,97.0
211,160.79068133541665,161.06325067083333,71.0,99.0
212,161.20734783541664,161.50943104791665,74.0,99.0
213,161.62401433541666,161.91220866458332,74.0,102.0
214,162.04068083541665,162.30109739791666,76.0,99.0
215,162.45734733541664,162.77158332083332,72.0,99.0
216,162.87401383541666,163.00422211666665,71.0,93.0
217,163.08234708541664,163.84797177916664,69.0,99.0
218,163.91568008541665,164.03720781458333,67.0,91.0
219,164.12401333541666,164.25422161666665,71.0,95.0
220,164.33234658541664,164.62922146666665,72.0,99.0
221,164.74901308541666,165.27158232083332,72.0,97.0
222,165.37401283541666,165.65526272291666,74.0,102.0
223,165.79067933541666,166.11359587291665,71.0,102.0
224,166.20734583541665,166.33234578541666,69.0,94.0
225,166.41567908541666,167.24206764374998,67.0,92.0
226,167.24901208541667,167.38963702916666,62.0,91.0
227,167.45734533541665,167.58234528541666,69.0,89.0
228,167.66567858541666,167.93303958958333,71.0,90.0
229,168.08234508541665,168.64137263958332,71.0,99.0
230,168.70734483541665,168.90526142291665,72.0,92.0
231,169.12401133541664,169.39484456041666,72.0,97.0
232,169.54067783541666,169.89484436041664,64.0,97.0
233,169.95734433541665,170.45039969374997,66.0,90.0
234,170.79067733541666,171.08755221666667,67.0,91.0
235,171.20734383541665,171.53546870416665,69.0,95.0
236,171.62401033541664,172.82713485416664,67.0,93.0
237,172.87400983541664,173.19866248333332,69.0,92.0
238,173.29067633541666,173.65005119166665,71.0,93.0
239,173.70734283541665,174.01116215833332,67.0,94.0
240,174.12400933541664,174.45907864583333,71.0,95.0
241,174.54067583541666,174.83755071666664,74.0,102.0
242,174.95734233541666,175.24206444375,74.0,97.0
243,175.37400883541665,175.63963372916666,76.0,95.0
244,175.79067533541667,176.11532798333332,72.0,91.0
245,176.20734183541666,176.36880010416667,71.0,91.0
246,176.41567508541667,177.08928592708332,69.0,92.0
247,177.24900808541665,177.37053581458332,79.0,94.0
248,177.45734133541666,177.59275794791665,78.0,94.0
249,177.66567458541664,178.22817436041666,79.0,94.0
250,178.29067433541664,178.58407699583333,74.0,95.0
251,178.70734083541666,179.01463237916664,76.0,95.0
252,179.12400733541665,179.47122941875,74.0,102.0
253,179.54067383541664,179.74900708541665,72.0,93.0
254,179.74900708541665,180.43997903124998,71.0,95.0
255,183.91567208541665,184.03546370416666,67.0,94.0
256,184.12400533541665,184.25421361666665,72.0,99.0
257,184.33233858541666,184.83754671666665,74.0,97.0
258,184.95733833541667,185.24206044374998,74.0,95.0
259,185.37400483541666,185.62921306666667,76.0,94.0
260,185.79067133541665,186.06671289166664,76.0,97.0
261,186.20733783541664,186.53719881458332,67.0,92.0
262,186.62400433541666,187.29414295625,67.0,90.0
263,187.45733733541664,188.16046205416666,66.0,94.0
264,188.29067033541665,190.56497498124997,67.0,94.0
265,190.79066933541665,191.14483586041666,62.0,92.0
266,191.20733583541664,191.52851626249998,72.0,94.0
267,191.62400233541666,192.6205297145833,71.0,95.0
268,192.87400183541666,193.15351561249997,71.0,86.0
269,193.29066833541665,193.59969598958332,72.0,91.0
270,193.70733483541665,194.02851526249998,71.0,92.0
271,194.12400133541666,194.4851123020833,69.0,92.0
272,194.54066783541666,194.87920936666666,67.0,90.0
273,194.95733433541665,195.25941754791666,69.0,90.0
274,195.37400083541664,195.66393127499998,71.0,91.0
275,195.79066733541666,196.12400053541666,72.0,92.0
276,196.20733383541665,197.56149996041665,71.0,94.0
277,197.87399983541664,198.23684691249997,64.0,102.0
278,198.29066633541666,199.3809436770833,72.0,93.0
279,199.54066583541666,199.82886016458332,72.0,92.0
280,199.95733233541665,200.27156832083332,74.0,95.0
281,200.37399883541664,200.68649871041666,72.0,92.0
282,200.79066533541666,201.15524852291665,69.0,89.0
283,201.20733183541665,201.5424011458333,71.0,90.0
284,201.62399833541664,202.73163678125,72.0,90.0
285,202.87399783541665,203.14483106041666,71.0,93.0
286,203.29066433541666,204.35316391041664,71.0,93.0
287,204.54066383541664,204.87052481458332,67.0,94.0
288,204.95733033541666,206.09795487916665,74.0,102.0
289,206.20732983541666,206.46948250833333,74.0,97.0
290,206.62399633541665,206.94170454166664,76.0,94.0
291,207.04066283541664,207.3496904895833,74.0,95.0
292,207.45732933541666,207.79587086666666,72.0,93.0
293,207.87399583541665,208.20212070416665,71.0,95.0
294,208.29066233541664,208.62225942499998,71.0,97.0
295,208.70732883541666,209.00420371666664,72.0,94.0
296,209.12399533541665,209.40524522291665,69.0,90.0
297,209.54066183541664,209.86878670416664,67.0,92.0
298,209.95732833541666,210.63961972916664,78.0,90.0
299,211.20732783541666,211.49378605416666,76.0,93.0
300,211.62399433541665,211.9121886645833,74.0,95.0
301,212.04066083541665,212.33232738541665,72.0,92.0
302,212.45732733541666,212.75593832708333,64.0,97.0
303,212.87399383541666,213.1951742625,66.0,91.0
304,213.29066033541665,213.99031283333332,71.0,90.0
305,214.12399333541666,214.82538194375,69.0,90.0
306,214.95732633541664,216.62399233541666,67.0,84.0
307,217.04065883541665,217.33753371666666,67.0,90.0
308,217.45732533541664,217.79760297708333,66.0,92.0
309,217.87399183541666,218.25420001666666,67.0,89.0
310,218.29065833541665,219.43128287916664,74.0,102.0
311,219.54065783541665,219.80281050833332,74.0,97.0
312,219.95732433541664,220.27503254166666,76.0,94.0
313,220.37399083541666,220.6830184895833,74.0,95.0
314,220.79065733541665,221.12919886666666,72.0,93.0
315,221.20732383541664,221.53544870416664,71.0,95.0
316,221.62399033541666,221.95558742499998,71.0,97.0
317,222.04065683541666,222.33753171666666,72.0,94.0
318,222.45732333541665,222.73857322291664,69.0,90.0
319,222.87398983541664,223.20211470416666,67.0,92.0
320,223.29065633541666,223.97294772916666,78.0,90.0
321,224.54065583541666,224.82711405416666,76.0,93.0
322,224.95732233541665,225.2455166645833,74.0,95.0
323,225.37398883541664,225.66565538541664,72.0,92.0
324,225.79065533541666,226.08926632708332,64.0,97.0
325,226.20732183541665,226.52850226249998,66.0,91.0
326,226.62398833541664,227.32364083333331,71.0,90.0
327,227.45732133541665,228.15870994374998,69.0,90.0
328,228.29065433541666,229.95732033541665,67.0,84.0
329,231.20731983541665,231.49377805416665,76.0,93.0
330,231.62398633541665,231.9121806645833,74.0,95.0
331,232.04065283541664,232.33231938541664,72.0,92.0
332,232.45731933541666,232.75593032708332,64.0,97.0
333,232.87398583541665,233.19516626249998,66.0,91.0
334,233.29065233541664,233.9903048333333,71.0,90.0
335,234.12398533541665,234.82537394374998,69.0,90.0
336,234.95731833541666,236.62398433541665,67.0,84.0
337,237.87398383541665,238.16044205416665,76.0,93.0
338,238.29065033541664,238.57884466458333,74.0,95.0
339,238.70731683541666,238.99898338541664,72.0,92.0
340,239.12398333541665,239.42259432708332,64.0,97.0
341,239.54064983541664,239.86183026249998,66.0,91.0
342,239.95731633541664,242.87398183541666,71.0,90.0
343,243.49898158541666,244.23162018124998,69.0,97.0
344,244.33231458541664,247.03370239375,67.0,90.0
