,start,end,pitch,velocity
0,1.666666,2.144096364583333,55.0,82.0
1,1.666666,2.395832375,59.0,85.0
2,2.499999,3.0052071312499997,55.0,91.0
3,1.666666,3.0295126770833334,43.0,88.0
4,2.0833325,3.0746515479166665,50.0,73.0
5,2.9166654999999997,3.3819430916666664,59.0,95.0
6,3.333332,3.836804020833333,60.0,83.0
7,3.333332,4.145831675,57.0,84.0
8,4.166665,4.368053808333333,60.0,84.0
9,4.166665,4.444442666666666,64.0,90.0
10,3.7499985,4.565970395833333,52.0,73.0
11,3.333332,4.571178727083333,45.0,88.0
12,4.999998,5.447914487499999,62.0,84.0
13,5.4166644999999995,5.9340254041666665,57.0,84.0
14,5.833330999999999,6.282983597916666,62.0,87.0
15,5.833330999999999,6.2986085916666665,66.0,78.0
16,4.999998,6.3090252541666665,50.0,86.0
17,6.2499975,6.3749974499999995,57.0,71.0
18,6.666664,7.352427614583333,59.0,81.0
19,6.666664,7.354163724999999,55.0,81.0
20,6.666664,7.4114553687499996,43.0,88.0
21,7.499997,7.871524629166666,57.0,86.0
22,7.499997,7.887149622916667,45.0,88.0
23,7.916663499999999,8.286455018749999,59.0,92.0
24,7.916663499999999,8.298607791666667,47.0,82.0
25,8.33333,8.725690954166666,64.0,84.0
26,8.33333,8.821177027083333,60.0,85.0
27,9.166663,9.26562129375,64.0,92.0
28,9.166663,9.312496274999999,67.0,87.0
29,9.166663,9.324649047916667,60.0,89.0
30,8.7499965,9.329857379166667,55.0,73.0
31,8.33333,9.347218483333332,48.0,90.0
32,9.999996,10.342009752083333,63.0,80.0
33,9.999996,10.623259639583333,69.0,86.0
34,9.999996,10.656245737499999,66.0,79.0
35,10.4166625,10.699648497916666,63.0,81.0
36,9.999996,10.925342852083332,42.0,83.0
37,10.833328999999999,11.5833287,63.0,79.0
38,10.833328999999999,11.5937453625,57.0,84.0
39,10.833328999999999,11.607634245833333,66.0,83.0
40,10.833328999999999,11.623259239583332,47.0,89.0
41,11.666661999999999,12.08853683125,67.0,79.0
42,11.666661999999999,12.111106266666667,64.0,86.0
43,12.083328499999999,12.314231185416666,66.0,76.0
44,12.499995,12.782980997916667,64.0,91.0
45,12.499995,12.836800420833333,67.0,89.0
46,11.666661999999999,12.8645781875,40.0,87.0
47,13.333328,13.79166115,62.0,80.0
48,13.333328,13.805550033333333,67.0,80.0
49,14.166661,14.366313697916667,62.0,89.0
50,13.7499945,14.413188679166666,50.0,76.0
51,14.166661,14.657980247916665,65.0,92.0
52,13.333328,14.666660799999999,43.0,86.0
53,14.5833275,14.782980197916666,62.0,87.0
54,14.999994,15.524299345833333,64.0,87.0
55,14.999994,15.704854829166665,60.0,81.0
56,14.999994,16.170132420833333,48.0,89.0
57,15.416660499999999,16.178812972916667,55.0,82.0
58,15.833326999999999,16.326382358333333,64.0,90.0
59,15.833326999999999,16.338535131249998,67.0,88.0
60,16.2499935,16.66145166875,60.0,85.0
61,16.66666,17.496520779166666,66.0,86.0
62,17.0833265,17.57811796875,57.0,84.0
63,16.66666,17.5833263,50.0,89.0
64,17.499993,17.704854029166665,62.0,92.0
65,18.333326,19.184020104166667,62.0,85.0
66,18.749992499999998,19.37499225,54.0,78.0
67,18.95832575,19.463533881249997,57.0,89.0
68,18.333326,19.583325499999997,47.0,84.0
69,18.333326,19.611103266666667,66.0,80.0
70,19.583325499999997,19.934019804166667,62.0,88.0
71,19.999992,20.364575187499998,64.0,88.0
72,20.4166585,20.673602841666664,59.0,88.0
73,19.999992,21.024297145833334,52.0,89.0
74,20.833325,21.041658249999998,68.0,80.0
75,20.833325,21.0937415625,59.0,86.0
76,21.666657999999998,21.899296795833333,55.0,88.0
77,21.666657999999998,21.937491225,60.0,88.0
78,21.666657999999998,21.996518979166666,45.0,89.0
79,22.499990999999998,22.819435316666667,62.0,88.0
80,22.499990999999998,22.864574187499997,57.0,85.0
81,22.499990999999998,22.91144916875,47.0,88.0
82,23.333323999999998,24.074643147916664,64.0,88.0
83,23.333323999999998,24.081587589583332,61.0,80.0
84,24.166656999999997,24.90103170625,61.0,82.0
85,24.166656999999997,24.916656699999997,64.0,89.0
86,23.333323999999998,24.946170577083333,67.0,77.0
87,23.333323999999998,25.02418778958333,49.0,76.0
88,24.99999,25.09832570208333,38.0,90.0
89,24.99999,26.294877127083332,69.0,87.0
90,26.24142886458333,26.331084014583332,66.0,92.0
91,24.99999,26.36211848958333,62.0,84.0
92,25.41384286458333,27.63970437708333,50.0,83.0
93,25.827635864583332,27.64315265208333,57.0,92.0
94,26.655221864583332,28.14315252708333,62.0,83.0
95,26.655221864583332,28.14315252708333,66.0,81.0
96,26.655221864583332,28.14315252708333,74.0,90.0
97,29.13797986458333,29.32935912708333,55.0,83.0
98,28.310393864583332,29.71039351458333,43.0,87.0
99,28.72418686458333,29.767290052083332,50.0,81.0
100,29.55177286458333,29.80522107708333,55.0,88.0
101,29.13797986458333,29.93453138958333,62.0,84.0
102,29.965565864583333,30.52591055208333,60.0,80.0
103,29.965565864583333,30.77246221458333,45.0,88.0
104,30.37935886458333,30.77591048958333,52.0,76.0
105,29.965565864583333,30.86728977708333,57.0,79.0
106,30.79315186458333,31.12591040208333,60.0,90.0
107,30.79315186458333,31.12935867708333,64.0,90.0
108,31.624066335416664,31.85496902083333,57.0,78.0
109,31.624066335416664,32.259482747916664,62.0,83.0
110,32.04073283541666,32.33760771666666,57.0,83.0
111,31.624066335416664,32.61364927291666,42.0,78.0
112,32.45739933541666,32.764690879166665,57.0,83.0
113,32.45739933541666,32.98517690208333,62.0,86.0
114,33.29073233541666,33.85323211041666,59.0,83.0
115,33.29073233541666,34.1744125375,55.0,80.0
116,33.70739883541666,34.55288460833333,50.0,76.0
117,33.29073233541666,34.580662374999996,43.0,84.0
118,34.12406533541667,34.58413459583333,59.0,91.0
119,34.12406533541667,34.62580124583333,62.0,89.0
120,34.540731835416665,34.81850950208333,55.0,88.0
121,34.95739833541666,35.80288410833333,60.0,83.0
122,35.37406483541666,35.82892576458333,55.0,82.0
123,34.95739833541666,35.88968962916666,48.0,86.0
124,35.790731335416666,36.25948114791667,64.0,90.0
125,36.62406433541666,36.97302252916666,60.0,84.0
126,36.62406433541666,37.065036381249996,48.0,89.0
127,36.62406433541666,37.290730735416666,64.0,86.0
128,37.457397335416665,37.806355529166666,47.0,88.0
129,37.457397335416665,37.81156386041666,59.0,82.0
130,37.457397335416665,37.9660776875,62.0,85.0
131,38.29073033541666,38.82371623333333,60.0,82.0
132,38.29073033541666,39.14663277083333,57.0,77.0
133,38.70739683541666,39.53552150416667,52.0,80.0
134,38.29073033541666,39.566771491666664,45.0,87.0
135,39.54072983541666,39.85322971041666,57.0,83.0
136,39.124063335416665,39.926146347916664,64.0,90.0
137,40.374062835416666,41.009479247916666,50.0,81.0
138,40.790729335416664,41.02163202083333,55.0,89.0
139,39.95739633541666,41.16052085416666,43.0,86.0
140,40.790729335416664,41.28378469374999,59.0,89.0
141,41.20739583541666,41.405312422916666,55.0,89.0
142,41.62406233541667,42.11711769375,62.0,83.0
143,42.040728835416665,42.49211754375,57.0,88.0
144,41.62406233541667,42.69697857291666,38.0,82.0
145,42.45739533541666,42.97822846041666,65.0,94.0
146,42.87406183541666,43.32892276458333,57.0,89.0
147,43.707394835416665,44.11538078333333,55.0,88.0
148,44.12406133541666,44.49038063333333,59.0,89.0
149,44.12406133541666,44.55461671875,62.0,90.0
150,43.29072833541666,44.66746389583333,43.0,88.0
151,45.374060835416664,45.84454675833333,55.0,89.0
152,44.957394335416666,45.98343559166666,48.0,89.0
153,45.79072733541666,46.10669943124999,60.0,88.0
154,45.79072733541666,46.16746329583333,64.0,90.0
155,46.624060335416665,46.997324074999995,59.0,83.0
156,46.624060335416665,47.059824049999996,62.0,83.0
157,46.624060335416665,47.080657374999994,47.0,88.0
158,47.45739333541666,48.1535736125,50.0,84.0
159,47.45739333541666,48.41225406458333,62.0,88.0
160,47.45739333541666,48.523365131249996,57.0,84.0
161,49.12405933541666,49.33933702708333,55.0,89.0
162,48.70739283541666,49.54246194583333,52.0,83.0
163,48.290726335416664,49.598017479166664,45.0,89.0
164,49.540725835416666,49.973017329166666,55.0,83.0
165,49.12405933541666,49.986906212499996,60.0,88.0
166,50.37405883541666,50.90183640208333,57.0,89.0
167,49.957392335416664,51.0702391125,50.0,91.0
168,50.79072533541667,51.14141963958333,62.0,89.0
169,51.20739183541666,51.34801677916666,60.0,92.0
170,51.62405833541666,52.18829422083333,55.0,83.0
171,51.62405833541666,52.33759971666666,59.0,83.0
172,52.04072483541666,52.79246064583333,50.0,79.0
173,51.62405833541666,52.89662727083333,43.0,88.0
174,52.45739133541666,52.943502252083334,55.0,92.0
175,52.874057835416664,53.313293770833326,59.0,80.0
176,53.70739083541666,54.66745989583333,45.0,81.0
177,53.29072433541666,54.68829322083333,38.0,90.0
178,54.124057335416666,54.94176534166667,50.0,89.0
179,54.124057335416666,54.94176534166667,54.0,87.0
180,54.124057335416666,54.96433477708333,57.0,85.0
181,53.29072433541666,54.97475143958333,60.0,80.0
182,55.79072333541666,55.98343159166666,55.0,83.0
183,54.95739033541666,56.36711199375,43.0,87.0
184,55.37405683541667,56.42440363749999,50.0,81.0
185,56.20738983541666,56.46259806666666,55.0,88.0
186,55.79072333541666,56.592806347916664,62.0,84.0
187,56.62405633541666,57.18829222083333,60.0,80.0
188,56.62405633541666,57.436556010416666,45.0,88.0
189,57.04072283541666,57.44002823125,52.0,76.0
190,56.62405633541666,57.53204208333333,57.0,79.0
191,57.457389335416664,57.79245864583333,60.0,90.0
192,57.457389335416664,57.795930866666666,64.0,90.0
193,58.29072233541666,58.521625020833326,57.0,78.0
194,58.29072233541666,58.92613874791667,62.0,83.0
195,58.707388835416666,59.004263716666664,57.0,83.0
196,58.29072233541666,59.280305272916664,42.0,78.0
197,59.124055335416664,59.43134687916666,57.0,83.0
198,59.124055335416664,59.65183290208333,62.0,86.0
199,59.95738833541667,60.51988811041666,59.0,83.0
200,59.95738833541667,60.84106853749999,55.0,80.0
201,60.37405483541666,61.21954060833333,50.0,76.0
202,59.95738833541667,61.24731837499999,43.0,84.0
203,60.79072133541666,61.25079059583333,59.0,91.0
204,60.79072133541666,61.29245724583333,62.0,89.0
205,61.20738783541666,61.48516550208333,55.0,88.0
206,61.62405433541666,62.469540108333334,60.0,83.0
207,62.040720835416664,62.49558176458333,55.0,82.0
208,61.62405433541666,62.55634562916666,48.0,86.0
209,62.45738733541666,62.92613714791666,64.0,90.0
210,63.290720335416665,63.63967852916666,60.0,84.0
211,63.290720335416665,63.73169238125,48.0,89.0
212,63.290720335416665,63.95738673541666,64.0,86.0
213,64.12405333541666,64.47301152916666,47.0,88.0
214,64.12405333541666,64.47821986041666,59.0,82.0
215,64.12405333541666,64.6327336875,62.0,85.0
216,64.95738633541666,65.49037223333333,60.0,82.0
217,64.95738633541666,65.81328877083332,57.0,77.0
218,65.37405283541666,66.20217750416666,52.0,80.0
219,64.95738633541666,66.23342749166666,45.0,87.0
220,66.20738583541666,66.51988571041666,57.0,83.0
221,65.79071933541667,66.59280234791666,64.0,90.0
222,67.04071883541665,67.67613524791666,50.0,81.0
223,67.45738533541666,67.68828802083333,55.0,89.0
224,66.62405233541666,67.82717685416667,43.0,86.0
225,67.45738533541666,67.95044069375,59.0,89.0
226,67.87405183541667,68.07196842291667,55.0,89.0
227,68.29071833541666,68.78377369374999,62.0,83.0
228,68.70738483541666,69.15877354375,57.0,88.0
229,68.29071833541666,69.36363457291667,38.0,82.0
230,69.12405133541667,69.64488446041666,65.0,94.0
231,69.54071783541666,69.99557876458333,57.0,89.0
232,70.37405083541667,70.78203678333333,55.0,88.0
233,70.79071733541666,71.15703663333333,59.0,89.0
234,70.79071733541666,71.22127271875,62.0,90.0
235,69.95738433541666,71.33411989583333,43.0,88.0
236,72.04071683541666,72.51120275833333,55.0,89.0
237,71.62405033541665,72.65009159166667,48.0,89.0
238,72.45738333541667,72.77335543125,60.0,88.0
239,72.45738333541667,72.83411929583333,64.0,90.0
240,73.29071633541666,73.663980075,59.0,83.0
241,73.29071633541666,73.72648004999999,62.0,83.0
242,73.29071633541666,73.74731337499999,47.0,88.0
243,74.12404933541666,74.8202296125,50.0,84.0
244,74.12404933541666,75.07891006458333,62.0,88.0
245,74.12404933541666,75.19002113124999,57.0,84.0
246,75.79071533541666,76.00599302708333,55.0,89.0
247,75.37404883541666,76.20911794583333,52.0,83.0
248,74.95738233541667,76.26467347916666,45.0,89.0
249,76.20738183541665,76.63967332916665,55.0,83.0
250,75.79071533541666,76.65356221249999,60.0,88.0
251,77.04071483541667,77.56849240208332,57.0,89.0
252,76.62404833541666,77.7368951125,50.0,91.0
253,77.45738133541666,77.80807563958332,62.0,89.0
254,77.87404783541666,78.01467277916666,60.0,92.0
255,78.29071433541667,78.68133917916666,59.0,91.0
256,78.29071433541667,78.70911694583333,55.0,89.0
257,78.29071433541667,78.90008909166666,43.0,91.0
258,78.70738083541666,78.96953350833333,57.0,89.0
259,78.91571408541667,79.038977925,59.0,93.0
260,79.12404733541666,79.52161662083333,60.0,97.0
261,79.12404733541666,79.63446379791667,57.0,83.0
262,79.12404733541666,79.78376929375,45.0,90.0
263,79.54071383541667,79.81849150208333,59.0,90.0
264,79.74904708541666,79.87404703541667,60.0,91.0
265,79.95738033541666,80.25425521666666,59.0,84.0
266,79.95738033541666,80.30460241875,62.0,90.0
267,79.95738033541666,80.30807463958332,47.0,92.0
268,80.37404683541666,80.61536618333332,79.0,93.0
269,80.37404683541666,80.62578284583333,67.0,93.0
270,80.79071333541665,81.04418545624999,78.0,90.0
271,80.79071333541665,81.0493937875,66.0,89.0
272,81.20737983541666,81.31328257083332,79.0,91.0
273,81.20737983541666,81.32890756458333,67.0,91.0
274,80.79071333541665,81.63793521874999,43.0,91.0
275,81.62404633541666,81.90008789166666,60.0,91.0
276,81.62404633541666,82.05981005,67.0,87.0
277,81.62404633541666,82.45564322499999,36.0,88.0
278,82.45737933541666,82.61536538333333,60.0,91.0
279,82.45737933541666,82.83585140625,64.0,102.0
280,82.45737933541666,83.05807353958333,67.0,93.0
281,82.87404583541667,83.11883740416665,60.0,87.0
282,83.08237908541666,83.21258736666667,64.0,84.0
283,83.29071233541666,83.53897612499999,62.0,88.0
284,83.29071233541666,83.58411499583333,66.0,91.0
285,83.70737883541666,83.90703153333332,62.0,91.0
286,83.29071233541666,83.96953150833333,50.0,95.0
287,83.49904558541667,83.99904538541666,57.0,83.0
288,84.12404533541667,84.32369803333333,57.0,90.0
289,84.12404533541667,84.32717025416666,50.0,94.0
290,84.12404533541667,84.33237858541666,66.0,93.0
291,84.12404533541667,84.36015635208332,62.0,93.0
292,84.54071183541666,84.66918400624999,47.0,72.0
293,84.95737833541666,85.38272538749999,59.0,91.0
294,84.95737833541666,85.44175314166667,62.0,91.0
295,84.95737833541666,85.59626696875,66.0,89.0
296,85.58237808541666,85.69175304166666,59.0,89.0
297,85.37404483541665,85.86015575208333,54.0,76.0
298,85.79071133541666,86.22821116041666,59.0,93.0
299,85.79071133541666,86.25078059583333,62.0,94.0
300,84.95737833541666,86.26987781041666,47.0,91.0
301,86.20737783541666,86.30286390833332,54.0,90.0
302,85.79071133541666,86.37230832499999,66.0,90.0
303,86.41571108541666,86.54071103541666,59.0,92.0
304,86.62404433541666,86.69696097291666,59.0,84.0
305,86.62404433541666,87.01466917916666,67.0,88.0
306,86.83237758541667,87.03029417291665,59.0,90.0
307,87.04071083541666,87.25946074791666,64.0,92.0
308,87.24904408541666,87.33237738541666,59.0,88.0
309,86.62404433541666,87.38966902916665,40.0,90.0
310,87.45737733541667,87.6952244625,59.0,92.0
311,87.45737733541667,87.82890496458333,47.0,89.0
312,87.45737733541667,87.84973828958333,40.0,90.0
313,87.45737733541667,87.85494662083333,64.0,104.0
314,87.45737733541667,87.913974375,67.0,92.0
315,87.87404383541666,87.96952990833333,59.0,95.0
316,88.29071033541666,88.74209904374999,60.0,87.0
317,88.29071033541666,88.78897402499999,57.0,85.0
318,88.70737683541667,89.21952940833333,52.0,85.0
319,89.12404333541666,89.37925156666667,57.0,93.0
320,89.12404333541666,89.38619600833333,60.0,104.0
321,88.29071033541666,89.40008489166667,45.0,88.0
322,89.12404333541666,89.40182100208332,64.0,97.0
323,89.33237658541665,89.47647375,52.0,89.0
324,89.54070983541666,89.58932092708332,57.0,86.0
325,89.54070983541666,89.74036253333333,45.0,90.0
326,89.95737633541665,90.34452895833333,59.0,93.0
327,89.95737633541665,90.44001503125,63.0,86.0
328,90.37404283541666,90.51466777916666,51.0,66.0
329,90.58237608541666,90.71779269791666,59.0,95.0
330,89.95737633541665,90.89487596041666,47.0,92.0
331,90.79070933541666,91.01987591041666,59.0,104.0
332,90.79070933541666,91.03550090416667,63.0,99.0
333,90.79070933541666,91.05980645,66.0,92.0
334,90.79070933541666,91.1118897625,71.0,93.0
335,90.99904258541666,91.11536198333333,54.0,88.0
336,91.20737583541666,91.45390351458333,59.0,95.0
337,91.62404233541666,91.82369503333332,64.0,93.0
338,91.62404233541666,92.0702227125,67.0,92.0
339,92.04070883541667,92.15008379166666,64.0,92.0
340,91.62404233541666,92.15529212291666,40.0,93.0
341,91.62404233541666,92.34973648958332,71.0,91.0
342,92.45737533541666,92.65876414374999,63.0,91.0
343,92.45737533541666,92.77334743124999,39.0,92.0
344,92.45737533541666,92.84800017916666,67.0,90.0
345,92.87404183541666,92.97300012916666,63.0,78.0
346,92.45737533541666,93.14140283958332,71.0,93.0
347,93.29070833541667,93.46431937708333,62.0,90.0
348,93.29070833541667,93.61015265208333,38.0,92.0
349,93.29070833541667,93.63445819791666,67.0,92.0
350,93.70737483541666,93.99730527499999,62.0,90.0
351,94.12404133541666,94.330638475,62.0,92.0
352,94.12404133541666,94.54938838749999,66.0,97.0
353,94.12404133541666,94.54938838749999,71.0,97.0
354,94.12404133541666,94.61536058333333,38.0,88.0
355,94.54070783541665,94.76987441041666,62.0,93.0
356,94.95737433541666,95.26119365833333,60.0,90.0
357,94.95737433541666,95.4035547125,67.0,86.0
358,95.37404083541665,95.84452675833333,43.0,80.0
359,95.79070733541666,95.93133227916665,60.0,104.0
360,94.95737433541666,96.05633222916666,36.0,88.0
361,95.79070733541666,96.07542944375,67.0,95.0
362,95.99904058541665,96.11535998333332,43.0,89.0
363,96.20737383541666,96.49035983333333,60.0,92.0
364,96.41570708541666,96.56501258124999,64.0,89.0
365,96.62404033541665,97.08237348541665,66.0,92.0
366,97.24904008541665,97.33758171666666,62.0,85.0
367,97.04070683541666,97.52681775208332,57.0,89.0
368,96.62404033541665,97.60147049999999,50.0,90.0
369,97.45737333541666,97.69869268333332,62.0,94.0
370,97.45737333541666,97.70390101458332,66.0,97.0
371,97.66570658541666,97.80806763958333,57.0,82.0
372,97.87403983541665,97.99035923333332,50.0,93.0
373,98.29070633541666,98.65702563333332,59.0,83.0
374,98.29070633541666,98.70390061458332,66.0,81.0
375,98.29070633541666,98.72647004999999,62.0,84.0
376,98.29070633541666,99.24209484375,47.0,89.0
377,98.70737283541666,99.31848370208333,54.0,80.0
378,99.12403933541665,99.5285530625,59.0,93.0
379,99.12403933541665,99.56674749166666,62.0,95.0
380,99.12403933541665,99.70563632499999,66.0,95.0
381,99.54070583541666,99.84973348958333,47.0,91.0
382,99.74903908541665,99.85494182083332,59.0,91.0
383,99.95737233541665,100.19521946249999,59.0,94.0
384,99.95737233541665,100.43133047916666,64.0,95.0
385,100.37403883541666,100.46952490833333,59.0,87.0
386,99.95737233541665,100.93133027916666,52.0,99.0
387,100.79070533541666,100.97994137083332,59.0,95.0
388,100.79070533541666,101.04244134583332,67.0,91.0
389,100.99903858541666,101.10320521041666,52.0,91.0
390,101.20737183541665,101.48341339166666,59.0,90.0
391,101.41570508541666,101.50424671666666,64.0,84.0
392,101.62403833541666,102.13098257708333,60.0,92.0
393,101.62403833541666,102.18306588958332,57.0,88.0
394,101.62403833541666,102.54244074583332,45.0,90.0
395,102.04070483541666,102.56674629166666,52.0,88.0
396,102.45737133541665,102.87577394583332,60.0,95.0
397,102.45737133541665,102.87924616666666,64.0,94.0
398,102.45737133541665,102.88098227708332,57.0,89.0
399,102.87403783541666,103.16223216458333,45.0,90.0
400,103.29070433541666,103.52507924166666,57.0,83.0
401,103.29070433541666,103.90875964374999,66.0,87.0
402,103.29070433541666,103.91396797499999,62.0,88.0
403,103.70737083541665,103.96952350833332,57.0,80.0
404,103.29070433541666,104.38098167708333,50.0,92.0
405,104.12403733541666,104.45910664583332,57.0,90.0
406,104.12403733541666,104.47299552916665,62.0,93.0
407,104.12403733541666,104.51466217916666,66.0,92.0
408,104.95737033541666,105.37924516666665,60.0,88.0
409,104.95737033541666,105.41570348541666,64.0,89.0
410,104.95737033541666,105.60667563124998,48.0,89.0
411,105.37403683541666,105.66570338541666,55.0,82.0
412,105.58237008541666,105.68653671041666,60.0,90.0
413,105.79070333541665,106.15007819166665,59.0,93.0
414,105.79070333541665,106.33063367499999,62.0,89.0
415,105.79070333541665,106.45042529374999,47.0,92.0
416,106.62403633541666,106.90528622291666,60.0,91.0
417,106.62403633541666,106.90702233333332,45.0,90.0
418,106.62403633541666,106.92611954791666,57.0,89.0
419,107.45736933541666,108.21778569791665,50.0,82.0
420,107.45736933541666,108.22646624999999,54.0,81.0
421,107.45736933541666,108.24729957499999,57.0,74.0
422,107.45736933541666,108.27854956249999,62.0,83.0
423,107.45736933541666,108.28375789374999,38.0,91.0
424,109.12403533541665,109.31674359166665,55.0,83.0
425,108.29070233541665,109.70042399375,43.0,87.0
426,108.70736883541666,109.75771563749998,50.0,81.0
427,109.54070183541666,109.79591006666665,55.0,88.0
428,109.12403533541665,109.92611834791666,62.0,84.0
429,109.95736833541666,110.52160422083332,60.0,80.0
430,109.95736833541666,110.76986801041666,45.0,88.0
431,110.37403483541665,110.77334023124999,52.0,76.0
432,109.95736833541666,110.86535408333333,57.0,79.0
433,110.79070133541666,111.12577064583333,60.0,90.0
434,110.79070133541666,111.12924286666666,64.0,90.0
435,111.62403433541665,111.85493702083332,57.0,78.0
436,111.62403433541665,112.25945074791666,62.0,83.0
437,112.04070083541666,112.33757571666665,57.0,83.0
438,111.62403433541665,112.61361727291666,42.0,78.0
439,112.45736733541666,112.76465887916666,57.0,83.0
440,112.45736733541666,112.98514490208332,62.0,86.0
441,113.29070033541666,113.85320011041665,59.0,83.0
442,113.29070033541666,114.17438053749999,55.0,80.0
443,113.70736683541665,114.55285260833332,50.0,76.0
444,113.29070033541666,114.58063037499998,43.0,84.0
445,114.12403333541666,114.58410259583333,59.0,91.0
446,114.12403333541666,114.62576924583333,62.0,89.0
447,114.54069983541666,114.81847750208333,55.0,88.0
448,114.95736633541665,115.80285210833333,60.0,83.0
449,115.37403283541666,115.82889376458333,55.0,82.0
450,114.95736633541665,115.88965762916665,48.0,86.0
451,115.79069933541666,116.25944914791665,64.0,90.0
452,116.62403233541666,116.97299052916665,60.0,84.0
453,116.62403233541666,117.06500438124999,48.0,89.0
454,116.62403233541666,117.29069873541665,64.0,86.0
455,117.45736533541665,117.80632352916666,47.0,88.0
456,117.45736533541665,117.81153186041665,59.0,82.0
457,117.45736533541665,117.96604568749999,62.0,85.0
458,118.29069833541665,118.82368423333332,60.0,82.0
459,118.29069833541665,119.14660077083332,57.0,77.0
460,118.70736483541666,119.53548950416666,52.0,80.0
461,118.29069833541665,119.56673949166665,45.0,87.0
462,119.54069783541665,119.85319771041665,57.0,83.0
463,119.12403133541666,119.92611434791665,64.0,90.0
464,120.37403083541666,121.00944724791665,50.0,81.0
465,120.79069733541665,121.02160002083332,55.0,89.0
466,119.95736433541666,121.16048885416666,43.0,86.0
467,120.79069733541665,121.28375269374999,59.0,89.0
468,121.20736383541666,121.40528042291666,55.0,89.0
469,121.62403033541665,122.11708569374998,62.0,83.0
470,122.04069683541665,122.49208554375,57.0,88.0
471,121.62403033541665,122.69694657291666,38.0,82.0
472,122.45736333541666,122.97819646041665,65.0,94.0
473,122.87402983541665,123.32889076458332,57.0,89.0
474,123.70736283541666,124.11534878333332,55.0,88.0
475,124.12402933541665,124.49034863333333,59.0,89.0
476,124.12402933541665,124.55458471875,62.0,90.0
477,123.29069633541665,124.66743189583332,43.0,88.0
478,125.37402883541665,125.84451475833332,55.0,89.0
479,124.95736233541666,125.98340359166666,48.0,89.0
480,125.79069533541666,126.10666743124999,60.0,88.0
481,125.79069533541666,126.16743129583332,64.0,90.0
482,126.62402833541665,126.99729207499999,59.0,83.0
483,126.62402833541665,127.05979204999998,62.0,83.0
484,126.62402833541665,127.08062537499998,47.0,88.0
485,127.45736133541665,128.1535416125,50.0,84.0
486,127.45736133541665,128.41222206458332,62.0,88.0
487,127.45736133541665,128.52333313124998,57.0,84.0
488,129.12402733541666,129.33930502708333,55.0,89.0
489,128.70736083541667,129.54242994583333,52.0,83.0
490,128.29069433541667,129.59798547916665,45.0,89.0
491,129.54069383541668,129.97298532916668,55.0,83.0
492,129.12402733541666,129.9868742125,60.0,88.0
493,130.37402683541666,130.90180440208334,57.0,89.0
494,129.95736033541667,131.0702071125,50.0,91.0
495,130.79069333541665,131.14138763958334,62.0,89.0
496,131.20735983541667,131.34798477916667,60.0,92.0
497,131.62402633541666,132.01465117916666,59.0,91.0
498,131.62402633541666,132.04242894583334,55.0,89.0
499,131.62402633541666,132.23340109166665,43.0,91.0
500,132.04069283541665,132.30284550833332,57.0,89.0
501,132.24902608541666,132.372289925,59.0,93.0
502,132.45735933541667,132.85492862083333,60.0,97.0
503,132.45735933541667,132.96777579791666,57.0,83.0
504,132.45735933541667,133.11708129375,45.0,90.0
505,132.87402583541666,133.15180350208334,59.0,90.0
506,133.08235908541667,133.20735903541666,60.0,91.0
507,133.29069233541665,133.58756721666666,59.0,84.0
508,133.29069233541665,133.63791441875,62.0,90.0
509,133.29069233541665,133.64138663958332,47.0,92.0
510,133.70735883541667,133.94867818333333,79.0,93.0
511,133.70735883541667,133.95909484583333,67.0,93.0
512,134.12402533541666,134.37749745624998,78.0,90.0
513,134.12402533541666,134.3827057875,66.0,89.0
514,134.54069183541665,134.64659457083332,79.0,91.0
515,134.54069183541665,134.66221956458332,67.0,91.0
516,134.12402533541666,134.97124721875,43.0,91.0
517,134.95735833541667,134.97124721875,43.0,90.0
518,134.95735833541667,135.06846940208334,62.0,84.0
519,134.95735833541667,135.09971938958333,65.0,90.0
520,134.95735833541667,135.11881660416665,67.0,88.0
521,134.95735833541667,135.16742769583334,71.0,89.0
522,135.16569158541665,135.22645545,62.0,75.0
523,135.37402483541666,135.45909424583334,67.0,84.0
524,135.37402483541666,135.46430257708332,65.0,88.0
525,135.37402483541666,135.4868720125,71.0,88.0
526,135.79069133541665,135.83409409583334,62.0,88.0
527,135.79069133541665,135.872288525,67.0,90.0
528,135.79069133541665,135.87402463541667,65.0,95.0
529,135.79069133541665,135.90006629166666,71.0,91.0
530,135.79069133541665,135.93999683125,43.0,91.0
531,136.20735783541667,136.28201058333332,62.0,92.0
532,136.20735783541667,136.29069113541667,65.0,97.0
533,136.20735783541667,136.29589946666667,67.0,89.0
534,136.20735783541667,136.33235778541666,71.0,91.0
535,136.62402433541666,136.70909374583331,62.0,89.0
536,136.62402433541666,136.70909374583331,65.0,91.0
537,136.62402433541666,136.72298262916667,67.0,88.0
538,136.62402433541666,136.74207984375,71.0,90.0
539,137.04069083541665,137.13617690833334,62.0,89.0
540,137.04069083541665,137.13791301875,65.0,91.0
541,137.04069083541665,137.14312135,67.0,88.0
542,137.04069083541665,137.17263522708333,71.0,90.0
543,136.62402433541666,137.27506574166665,43.0,89.0
544,137.45735733541667,137.64138503958333,62.0,88.0
545,137.45735733541667,137.64138503958333,65.0,91.0
546,137.45735733541667,137.65006559166667,67.0,88.0
547,137.45735733541667,137.6743711375,71.0,90.0
548,137.45735733541667,137.90874604375,43.0,91.0
549,137.87402383541666,137.97124601875,67.0,85.0
550,137.87402383541666,137.97471823958332,65.0,90.0
551,137.87402383541666,137.99902378541665,62.0,88.0
552,137.87402383541666,138.018121,71.0,90.0
553,138.29069033541666,138.36534308333333,67.0,73.0
554,138.29069033541666,138.42784305833334,64.0,77.0
555,138.29069033541666,138.45388471458332,60.0,70.0
556,138.70735683541668,138.81846790208334,64.0,91.0
557,138.70735683541668,138.83930122708333,60.0,87.0
558,138.70735683541668,138.84624566875,67.0,88.0
559,139.12402333541667,139.41568988541667,64.0,104.0
560,139.12402333541667,139.41916210624998,67.0,97.0
561,139.12402333541667,139.42263432708333,60.0,97.0
562,139.54068983541666,139.67263422708334,64.0,88.0
563,139.54068983541666,139.68652311041666,67.0,84.0
564,138.29069033541666,139.68825922083332,48.0,92.0
565,139.54068983541666,139.70388421458333,60.0,83.0
566,139.95735633541665,140.04068963541667,64.0,82.0
567,139.95735633541665,140.05110629791668,67.0,78.0
568,139.95735633541665,140.06152296041665,60.0,82.0
569,140.37402283541667,140.40527282291666,65.0,64.0
570,140.37402283541667,140.43131447916667,64.0,74.0
571,140.37402283541667,140.45909224583332,67.0,82.0
572,140.37402283541667,140.47124501874998,60.0,78.0
573,139.95735633541665,140.55457831875,48.0,95.0
574,140.79068933541666,140.9452031625,71.0,79.0
575,140.79068933541666,141.06673089166665,64.0,89.0
576,140.79068933541666,141.06846700208334,72.0,78.0
577,140.79068933541666,141.0702031125,60.0,87.0
578,140.79068933541666,141.07367533333334,67.0,81.0
579,141.20735583541665,141.31846690208332,72.0,89.0
580,141.20735583541665,141.32367523333332,67.0,90.0
581,140.79068933541666,141.34277244791667,55.0,85.0
582,141.20735583541665,141.34624466875,64.0,95.0
583,140.79068933541666,141.35666133125,48.0,92.0
584,141.20735583541665,141.36881410416666,60.0,89.0
585,141.62402233541667,141.75943894791666,39.0,90.0
586,141.62402233541667,141.8827027875,70.0,85.0
587,141.62402233541667,141.89485556041666,63.0,86.0
588,141.62402233541667,141.90180000208332,67.0,88.0
589,142.04068883541666,142.22992487083332,67.0,84.0
590,142.04068883541666,142.2577026375,63.0,82.0
591,142.04068883541666,142.29416095624998,51.0,76.0
592,142.04068883541666,142.29589706666667,58.0,81.0
593,142.45735533541665,142.52679975208332,51.0,102.0
594,142.45735533541665,142.53721641458333,58.0,94.0
595,142.45735533541665,142.53895252499998,67.0,88.0
596,142.45735533541665,142.54763307708333,63.0,89.0
597,142.45735533541665,142.55978585,70.0,88.0
598,142.87402183541667,142.96429957708332,67.0,86.0
599,142.87402183541667,142.96777179791667,63.0,82.0
600,142.87402183541667,142.98339679166665,70.0,84.0
601,142.87402183541667,142.98860512291665,51.0,90.0
602,142.87402183541667,142.98860512291665,58.0,84.0
603,143.29068833541666,143.56325767083334,67.0,88.0
604,143.29068833541666,143.56672989166665,63.0,86.0
605,143.29068833541666,143.57193822291666,70.0,83.0
606,143.70735483541665,143.851452,67.0,90.0
607,143.70735483541665,143.85839644166666,63.0,90.0
608,143.70735483541665,143.86707699375,70.0,90.0
609,143.29068833541666,143.87749365624998,51.0,97.0
610,143.29068833541666,143.88096587708333,58.0,90.0
611,144.12402133541667,144.205618525,51.0,99.0
612,144.12402133541667,144.20909074583332,58.0,91.0
613,144.12402133541667,144.21256296666667,63.0,93.0
614,144.12402133541667,144.21950740833333,67.0,92.0
615,144.12402133541667,144.2368685125,70.0,90.0
616,144.54068783541666,144.59277114791666,67.0,87.0
617,144.54068783541666,144.6118683625,70.0,88.0
618,144.54068783541666,144.61707669375,63.0,89.0
619,144.95735433541665,145.13964592916665,38.0,93.0
620,144.95735433541665,145.20735423541666,66.0,89.0
621,144.95735433541665,145.21950700833332,62.0,88.0
622,144.95735433541665,145.22992367083333,69.0,88.0
623,145.37402083541667,145.61013185208333,66.0,91.0
624,145.37402083541667,145.61360407291667,62.0,89.0
625,145.37402083541667,145.63096517708334,50.0,92.0
626,145.37402083541667,145.63096517708334,69.0,89.0
627,145.79068733541666,145.92610394791666,62.0,93.0
628,145.79068733541666,145.97818726041666,66.0,104.0
629,145.79068733541666,145.97992337083332,74.0,93.0
630,145.79068733541666,145.98513170208332,69.0,97.0
631,146.20735383541665,146.31325657083332,62.0,95.0
632,146.41568708541666,146.50596482708332,69.0,87.0
633,146.41568708541666,146.51464537916667,66.0,94.0
634,145.99902058541667,146.5285342625,57.0,89.0
635,145.79068733541666,146.54068703541665,50.0,95.0
636,146.62402033541667,146.91568688541665,62.0,97.0
637,146.62402033541667,147.09103403749998,66.0,102.0
638,146.62402033541667,147.12922846666666,69.0,95.0
639,147.04068683541666,147.18304788958332,62.0,95.0
640,146.83235358541666,147.330617275,57.0,90.0
641,147.24902008541667,147.33408949583333,62.0,85.0
642,147.24902008541667,147.34797837916665,66.0,105.0
643,147.24902008541667,147.372283925,69.0,97.0
644,147.24902008541667,147.39138113958333,74.0,95.0
645,147.45735333541666,147.63096437708333,74.0,102.0
646,147.45735333541666,147.65526992291666,62.0,102.0
647,147.45735333541666,147.66221436458332,66.0,102.0
648,147.45735333541666,147.68651991041665,69.0,99.0
649,147.87401983541668,147.94346425208332,69.0,52.0
650,147.87401983541668,148.19346415208332,62.0,88.0
651,148.08235308541666,148.19346415208332,66.0,91.0
652,146.62402033541667,148.22818636041666,50.0,90.0
653,147.66568658541667,148.2681169,57.0,89.0
654,148.29068633541667,148.39485296041667,36.0,88.0
655,148.29068633541667,148.51985291041666,64.0,95.0
656,148.29068633541667,148.55283900833334,67.0,89.0
657,148.49901958541665,148.60665843125,60.0,84.0
658,148.70735283541666,148.8826999875,67.0,86.0
659,148.70735283541666,148.91221386458332,64.0,94.0
660,148.91568608541667,149.03026937291665,60.0,82.0
661,149.12401933541665,149.38964422916666,60.0,97.0
662,149.12401933541665,149.40526922291667,64.0,104.0
663,149.12401933541665,149.41915810625,67.0,93.0
664,149.54068583541667,149.62054691458331,60.0,92.0
665,149.54068583541667,149.79242184583333,64.0,97.0
666,148.70735283541666,149.82714405416667,48.0,89.0
667,149.54068583541667,149.83235238541667,67.0,89.0
668,149.12401933541665,149.83582460625,55.0,88.0
669,149.74901908541665,149.85665793125,60.0,88.0
670,149.95735233541666,150.16915780624998,62.0,84.0
671,149.95735233541666,150.20908834583332,66.0,89.0
672,150.37401883541665,150.60318541041667,62.0,88.0
673,150.16568558541667,150.80978255,57.0,71.0
674,149.95735233541666,150.92089361666666,50.0,94.0
675,150.79068533541667,150.99554636458333,62.0,95.0
676,150.79068533541667,151.038949125,66.0,99.0
677,150.99901858541665,151.11012965208332,57.0,92.0
678,151.20735183541666,151.34971288958332,62.0,93.0
679,151.62401833541665,152.02158762083332,59.0,89.0
680,151.62401833541665,152.0285320625,62.0,88.0
681,151.62401833541665,152.07367093333332,66.0,83.0
682,152.24901808541665,152.38617080833333,59.0,102.0
683,152.04068483541667,152.44693467291665,54.0,86.0
684,151.62401833541665,152.49554576458334,47.0,92.0
685,152.45735133541666,152.55457351875,62.0,94.0
686,152.45735133541666,152.58582350625,59.0,84.0
687,152.87401783541665,153.18304548958332,59.0,92.0
688,152.87401783541665,153.36533708333332,64.0,97.0
689,153.49901758541665,153.7455452645833,64.0,91.0
690,153.49901758541665,153.76811469999998,67.0,93.0
691,153.91568408541667,154.04068403541666,59.0,74.0
692,152.87401783541665,154.28721171458332,52.0,99.0
693,154.12401733541665,154.38964222916667,59.0,94.0
694,154.12401733541665,154.41221166458334,64.0,105.0
695,154.33235058541666,154.44172554166667,52.0,94.0
696,154.54068383541667,154.69866988333334,59.0,97.0
697,154.95735033541666,155.37922516666666,57.0,89.0
698,154.95735033541666,155.5215862208333,60.0,95.0
699,155.37401683541665,155.91047495416666,52.0,84.0
700,154.95735033541666,155.94346105208334,45.0,89.0
701,155.79068333541667,156.2368637125,57.0,91.0
702,156.20734983541666,156.2368637125,57.0,76.0
703,155.79068333541667,156.37748865625,60.0,104.0
704,155.79068333541667,156.43998863125,64.0,102.0
705,156.62401633541666,156.86880790416666,59.0,89.0
706,156.62401633541666,157.1014467,62.0,93.0
707,157.04068283541667,157.13443279791667,59.0,91.0
708,157.24901608541666,157.4903354333333,59.0,99.0
709,157.24901608541666,157.50075209583332,62.0,97.0
710,157.24901608541666,157.51984931041667,66.0,90.0
711,156.62401633541666,157.54762707708332,47.0,89.0
712,157.45734933541667,157.7160297875,54.0,88.0
713,157.66568258541665,157.79068253541666,62.0,95.0
714,157.66568258541665,157.79589086666667,59.0,99.0
715,157.66568258541665,157.82366863333334,66.0,90.0
716,157.87401583541666,157.97818246041666,47.0,88.0
717,158.29068233541665,158.37054341458332,39.0,95.0
718,158.29068233541665,158.54415445625,63.0,95.0
719,158.29068233541665,158.57887666458333,67.0,90.0
720,158.70734883541667,158.97470983958334,51.0,92.0
721,158.91568208541665,159.10665423125,58.0,95.0
722,159.12401533541666,159.41568188541666,63.0,99.0
723,159.33234858541664,159.53720961458333,67.0,89.0
724,159.54068183541665,159.6465845708333,70.0,104.0
725,159.95734833541664,160.35491762083333,38.0,99.0
726,160.16568158541665,160.38095927708332,45.0,89.0
727,160.37401483541666,160.47644534999998,62.0,95.0
728,160.58234808541664,160.7038758145833,62.0,92.0
729,160.58234808541664,160.72991747083333,66.0,114.0
730,160.99901458541666,161.05109789791666,66.0,88.0
731,160.99901458541666,161.18651451041666,62.0,91.0
732,160.99901458541666,161.20734783541664,74.0,89.0
733,161.20734783541664,161.59102823749998,57.0,89.0
734,160.79068133541665,161.6153337833333,50.0,94.0
735,161.62401433541666,161.90005589166665,60.0,91.0
736,161.62401433541666,162.05977804999998,67.0,87.0
737,161.62401433541666,162.45561122499998,36.0,88.0
738,162.45734733541664,162.6153333833333,60.0,91.0
739,162.45734733541664,162.83581940624998,64.0,102.0
740,162.45734733541664,163.05804153958331,67.0,93.0
741,162.87401383541666,163.11880540416666,60.0,87.0
742,163.08234708541664,163.21255536666666,64.0,84.0
743,163.29068033541665,163.538944125,62.0,88.0
744,163.29068033541665,163.5840829958333,66.0,91.0
745,163.70734683541664,163.90699953333333,62.0,91.0
746,163.29068033541665,163.9694995083333,50.0,95.0
747,163.49901358541666,163.99901338541665,57.0,83.0
748,164.12401333541666,164.32366603333332,57.0,90.0
749,164.12401333541666,164.32713825416664,50.0,94.0
750,164.12401333541666,164.33234658541664,66.0,93.0
751,164.12401333541666,164.36012435208332,62.0,93.0
752,164.54067983541665,164.66915200625,47.0,72.0
753,164.95734633541664,165.38269338749998,59.0,91.0
754,164.95734633541664,165.44172114166665,62.0,91.0
755,164.95734633541664,165.59623496875,66.0,89.0
756,165.58234608541665,165.69172104166665,59.0,89.0
757,165.37401283541666,165.86012375208333,54.0,76.0
758,165.79067933541666,166.22817916041666,59.0,93.0
759,165.79067933541666,166.25074859583333,62.0,94.0
760,164.95734633541664,166.26984581041665,47.0,91.0
761,166.20734583541665,166.30283190833333,54.0,90.0
762,165.79067933541666,166.37227632499997,66.0,90.0
763,166.41567908541666,166.54067903541664,59.0,92.0
764,166.62401233541667,166.69692897291665,59.0,84.0
765,166.62401233541667,167.01463717916664,67.0,88.0
766,166.83234558541665,167.03026217291665,59.0,90.0
767,167.04067883541666,167.25942874791664,64.0,92.0
768,167.24901208541667,167.33234538541666,59.0,88.0
769,166.62401233541667,167.38963702916666,40.0,90.0
770,167.45734533541665,167.6951924625,59.0,92.0
771,167.45734533541665,167.82887296458333,47.0,89.0
772,167.45734533541665,167.8497062895833,40.0,90.0
773,167.45734533541665,167.8549146208333,64.0,104.0
774,167.45734533541665,167.91394237499998,67.0,92.0
775,167.87401183541667,167.96949790833332,59.0,95.0
776,168.29067833541666,168.74206704374998,60.0,87.0
777,168.29067833541666,168.78894202499998,57.0,85.0
778,168.70734483541665,169.21949740833332,52.0,85.0
779,169.12401133541664,169.37921956666665,57.0,93.0
780,169.12401133541664,169.3861640083333,60.0,104.0
781,168.29067833541666,169.40005289166666,45.0,88.0
782,169.12401133541664,169.40178900208332,64.0,97.0
783,169.33234458541665,169.47644175,52.0,89.0
784,169.54067783541666,169.58928892708332,57.0,86.0
785,169.54067783541666,169.74033053333332,45.0,90.0
786,169.95734433541665,170.3444969583333,59.0,93.0
787,169.95734433541665,170.43998303125,63.0,86.0
788,170.37401083541664,170.51463577916664,51.0,66.0
789,170.58234408541665,170.71776069791665,59.0,95.0
790,169.95734433541665,170.89484396041667,47.0,92.0
791,170.79067733541666,171.01984391041665,59.0,104.0
792,170.79067733541666,171.03546890416666,63.0,99.0
793,170.79067733541666,171.05977445,66.0,92.0
794,170.79067733541666,171.1118577625,71.0,93.0
795,170.99901058541664,171.1153299833333,54.0,88.0
796,171.20734383541665,171.4538715145833,59.0,95.0
797,171.62401033541664,171.82366303333333,64.0,93.0
798,171.62401033541664,172.0701907125,67.0,92.0
799,172.04067683541666,172.15005179166664,64.0,92.0
800,171.62401033541664,172.15526012291664,40.0,93.0
801,171.62401033541664,172.34970448958333,71.0,91.0
802,172.45734333541665,172.65873214374997,63.0,91.0
803,172.45734333541665,172.77331543124998,39.0,92.0
804,172.45734333541665,172.84796817916666,67.0,90.0
805,172.87400983541664,172.97296812916665,63.0,78.0
806,172.45734333541665,173.14137083958332,71.0,93.0
807,173.29067633541666,173.4642873770833,62.0,90.0
808,173.29067633541666,173.6101206520833,38.0,92.0
809,173.29067633541666,173.63442619791664,67.0,92.0
810,173.70734283541665,173.997273275,62.0,90.0
811,174.12400933541664,174.330606475,62.0,92.0
812,174.12400933541664,174.54935638749998,66.0,97.0
813,174.12400933541664,174.54935638749998,71.0,97.0
814,174.12400933541664,174.6153285833333,38.0,88.0
815,174.54067583541666,174.76984241041666,62.0,93.0
816,174.95734233541666,175.26116165833332,60.0,90.0
817,174.95734233541666,175.40352271249998,67.0,86.0
818,175.37400883541665,175.84449475833333,43.0,80.0
819,175.79067533541667,175.93130027916666,60.0,104.0
820,174.95734233541666,176.05630022916665,36.0,88.0
821,175.79067533541667,176.07539744374998,67.0,95.0
822,175.99900858541665,176.11532798333332,43.0,89.0
823,176.20734183541666,176.4903278333333,60.0,92.0
824,176.41567508541667,176.56498058124998,64.0,89.0
825,176.62400833541665,177.08234148541666,66.0,92.0
826,177.24900808541665,177.33754971666664,62.0,85.0
827,177.04067483541667,177.52678575208333,57.0,89.0
828,176.62400833541665,177.60143849999997,50.0,90.0
829,177.45734133541666,177.69866068333332,62.0,94.0
830,177.45734133541666,177.70386901458332,66.0,97.0
831,177.66567458541664,177.80803563958332,57.0,82.0
832,177.87400783541665,177.99032723333332,50.0,93.0
833,178.29067433541664,178.7924102458333,59.0,90.0
834,178.29067433541664,178.94518796249997,62.0,93.0
835,178.29067433541664,179.01463237916664,66.0,89.0
836,178.70734083541666,179.14831288124998,54.0,73.0
837,178.29067433541664,179.20213230416664,47.0,91.0
838,178.91567408541664,179.2194934083333,59.0,90.0
839,179.12400733541665,179.24553506458332,62.0,92.0
840,179.54067383541664,179.75247930625,40.0,92.0
841,179.54067383541664,179.87747925624998,59.0,89.0
842,179.54067383541664,179.97296532916664,64.0,89.0
843,180.79067333541664,181.07886766458333,64.0,93.0
844,180.99900658541665,181.2351176020833,67.0,83.0
845,181.41567308541664,181.4799091708333,76.0,73.0
846,181.20733983541666,181.49727027499998,71.0,88.0
847,180.58234008541666,182.47122821874999,59.0,76.0
848,180.37400683541665,182.51983931041664,52.0,84.0
849,181.62400633541665,183.11358907291665,71.0,86.0
850,181.62400633541665,183.12921406666666,64.0,89.0
851,181.62400633541665,183.1622001645833,76.0,89.0
852,184.95733833541667,185.4642825770833,60.0,92.0
853,184.95733833541667,185.5163658895833,57.0,88.0
854,184.95733833541667,185.87574074583333,45.0,90.0
855,185.37400483541666,185.90004629166665,52.0,88.0
856,185.79067133541665,186.20907394583332,60.0,95.0
857,185.79067133541665,186.21254616666664,64.0,94.0
858,185.79067133541665,186.21428227708333,57.0,89.0
859,186.20733783541664,186.49553216458332,45.0,90.0
860,186.62400433541666,186.85837924166665,57.0,83.0
861,186.62400433541666,187.24205964375,66.0,87.0
862,186.62400433541666,187.24726797499997,62.0,88.0
863,187.04067083541665,187.30282350833332,57.0,80.0
864,186.62400433541666,187.7142816770833,50.0,92.0
865,187.45733733541664,187.79240664583332,57.0,90.0
866,187.45733733541664,187.80629552916665,62.0,93.0
867,187.45733733541664,187.84796217916664,66.0,92.0
868,188.29067033541665,188.71254516666664,60.0,88.0
869,188.29067033541665,188.74900348541667,64.0,89.0
870,188.29067033541665,188.93997563124998,48.0,89.0
871,188.70733683541664,188.99900338541664,55.0,82.0
872,188.91567008541665,189.01983671041666,60.0,90.0
873,189.12400333541666,189.48337819166665,59.0,93.0
874,189.12400333541666,189.66393367499998,62.0,89.0
875,189.12400333541666,189.78372529375,47.0,92.0
876,189.95733633541664,190.23858622291664,60.0,91.0
877,189.95733633541664,190.24032233333332,45.0,90.0
878,189.95733633541664,190.25941954791665,57.0,89.0
879,190.79066933541665,191.55108569791665,50.0,82.0
880,190.79066933541665,191.55976625,54.0,81.0
881,190.79066933541665,191.58059957499998,57.0,74.0
882,190.79066933541665,191.6118495625,62.0,83.0
883,190.79066933541665,191.61705789374997,38.0,91.0
884,192.45733533541664,192.65004359166664,55.0,83.0
885,191.62400233541666,193.03372399375,43.0,87.0
886,192.04066883541665,193.0910156375,50.0,81.0
887,192.87400183541666,193.12921006666664,55.0,88.0
888,192.45733533541664,193.25941834791666,62.0,84.0
889,193.29066833541665,193.8549042208333,60.0,80.0
890,193.29066833541665,194.10316801041665,45.0,88.0
891,193.70733483541665,194.10664023125,52.0,76.0
892,193.29066833541665,194.1986540833333,57.0,79.0
893,194.12400133541666,194.45907064583332,60.0,90.0
894,194.12400133541666,194.46254286666664,64.0,90.0
895,194.95733433541665,195.18823702083333,57.0,78.0
896,194.95733433541665,195.59275074791665,62.0,83.0
897,195.37400083541664,195.67087571666664,57.0,83.0
898,194.95733433541665,195.94691727291666,42.0,78.0
899,195.79066733541666,196.09795887916664,57.0,83.0
900,195.79066733541666,196.31844490208331,62.0,86.0
901,196.62400033541664,197.18650011041666,59.0,83.0
902,196.62400033541664,197.5076805375,55.0,80.0
903,197.04066683541666,197.8861526083333,50.0,76.0
904,196.62400033541664,197.91393037499998,43.0,84.0
905,197.45733333541665,197.91740259583332,59.0,91.0
906,197.45733333541665,197.95906924583332,62.0,89.0
907,197.87399983541664,198.15177750208332,55.0,88.0
908,198.29066633541666,199.1361521083333,60.0,83.0
909,198.70733283541665,199.16219376458332,55.0,82.0
910,198.29066633541666,199.22295762916664,48.0,86.0
911,199.12399933541664,199.59274914791666,64.0,90.0
912,199.95733233541665,200.30629052916666,60.0,84.0
913,199.95733233541665,200.39830438124997,48.0,89.0
914,199.95733233541665,200.62399873541665,64.0,86.0
915,200.79066533541666,201.13962352916664,47.0,88.0
916,200.79066533541666,201.14483186041664,59.0,82.0
917,200.79066533541666,201.2993456875,62.0,85.0
918,201.62399833541664,202.1569842333333,60.0,82.0
919,201.62399833541664,202.47990077083332,57.0,77.0
920,202.04066483541666,202.86878950416664,52.0,80.0
921,201.62399833541664,202.90003949166666,45.0,87.0
922,202.87399783541665,203.18649771041666,57.0,83.0
923,202.45733133541665,203.25941434791665,64.0,90.0
924,203.70733083541666,204.34274724791666,50.0,81.0
925,204.12399733541665,204.35490002083333,55.0,89.0
926,203.29066433541666,204.49378885416664,43.0,86.0
927,204.12399733541665,204.61705269375,59.0,89.0
928,204.54066383541664,204.73858042291664,55.0,89.0
929,204.95733033541666,205.45038569374998,62.0,83.0
930,205.37399683541665,205.82538554374997,57.0,88.0
931,204.95733033541666,206.03024657291664,38.0,82.0
932,205.79066333541664,206.31149646041666,65.0,94.0
933,206.20732983541666,206.66219076458333,57.0,89.0
934,207.04066283541664,207.4486487833333,55.0,88.0
935,207.45732933541666,207.8236486333333,59.0,89.0
936,207.45732933541666,207.88788471874997,62.0,90.0
937,206.62399633541665,208.00073189583333,43.0,88.0
938,208.70732883541666,209.1778147583333,55.0,89.0
939,208.29066233541664,209.31670359166665,48.0,89.0
940,209.12399533541665,209.43996743124998,60.0,88.0
941,209.12399533541665,209.5007312958333,64.0,90.0
942,209.95732833541666,210.33059207499997,59.0,83.0
943,209.95732833541666,210.39309204999998,62.0,83.0
944,209.95732833541666,210.413925375,47.0,88.0
945,210.79066133541664,211.48684161249997,50.0,84.0
946,210.79066133541664,211.74552206458333,62.0,88.0
947,210.79066133541664,211.85663313125,57.0,84.0
948,212.45732733541666,212.6726050270833,55.0,89.0
949,212.04066083541665,212.8757299458333,52.0,83.0
950,211.62399433541665,212.93128547916666,45.0,89.0
951,212.87399383541666,213.30628532916666,55.0,83.0
952,212.45732733541666,213.32017421249998,60.0,88.0
953,213.70732683541664,214.23510440208332,57.0,89.0
954,213.29066033541665,214.4035071125,50.0,91.0
955,214.12399333541666,214.47468763958332,62.0,89.0
956,214.54065983541665,214.68128477916665,60.0,92.0
957,214.95732633541664,215.34795117916664,59.0,91.0
958,214.95732633541664,215.37572894583332,55.0,89.0
959,214.95732633541664,215.56670109166666,43.0,91.0
960,215.37399283541666,215.63614550833333,57.0,89.0
961,215.58232608541664,215.70558992499997,59.0,93.0
962,215.79065933541665,216.1882286208333,60.0,97.0
963,215.79065933541665,216.30107579791664,57.0,83.0
964,215.79065933541665,216.45038129374998,45.0,90.0
965,216.20732583541664,216.48510350208332,59.0,90.0
966,216.41565908541665,216.54065903541664,60.0,91.0
967,216.62399233541666,216.92086721666666,59.0,84.0
968,216.62399233541666,216.97121441874998,62.0,90.0
969,216.62399233541666,216.97468663958333,47.0,92.0
970,217.04065883541665,217.2819781833333,79.0,93.0
971,217.04065883541665,217.29239484583331,67.0,93.0
972,217.45732533541664,217.71079745625,78.0,90.0
973,217.45732533541664,217.7160057875,66.0,89.0
974,217.87399183541666,217.97989457083332,79.0,91.0
975,217.87399183541666,217.9955195645833,67.0,91.0
976,217.45732533541664,218.30454721874997,43.0,91.0
977,218.29065833541665,218.77329703125,62.0,88.0
978,218.29065833541665,218.94690807291664,65.0,90.0
979,218.91565808541665,219.05107469791665,62.0,89.0
980,218.70732483541664,219.26461627916666,45.0,79.0
981,219.12399133541666,219.3514218,62.0,94.0
982,219.12399133541666,219.46079675624998,69.0,88.0
983,219.33232458541664,219.58753281666665,45.0,86.0
984,218.29065833541665,219.60315781041666,38.0,93.0
985,219.54065783541665,219.7871855145833,62.0,91.0
986,220.37399083541666,220.66912960624998,62.0,90.0
987,220.58232408541664,220.69169904166665,67.0,88.0
988,220.16565758541665,220.8392684270833,50.0,76.0
989,219.95732433541664,221.00419891666664,41.0,90.0
990,220.79065733541665,221.04065723541666,62.0,93.0
991,220.79065733541665,221.1309349770833,67.0,97.0
992,219.95732433541664,221.15176830208333,43.0,90.0
993,220.99899058541666,221.15176830208333,50.0,89.0
994,220.79065733541665,221.4590598458333,71.0,97.0
995,221.20732383541664,221.58405979583333,62.0,91.0
996,221.41565708541665,221.63614310833333,67.0,88.0
997,222.04065683541666,222.56148996041665,55.0,88.0
998,221.62399033541666,222.57017051249997,48.0,90.0
999,222.45732333541665,222.69690657291665,64.0,102.0
1000,222.45732333541665,222.72121211874997,60.0,93.0
1001,222.45732333541665,222.77503154166666,67.0,89.0
1002,222.87398983541664,222.98336479166665,48.0,90.0
1003,223.29065633541666,223.5701701125,59.0,89.0
1004,223.29065633541666,223.6621839645833,62.0,88.0
1005,223.29065633541666,223.7576700375,66.0,84.0
1006,223.29065633541666,223.78544780416664,47.0,92.0
1007,224.12398933541664,224.4278086583333,57.0,88.0
1008,224.12398933541664,224.50419751666664,62.0,91.0
1009,224.12398933541664,224.5215586208333,66.0,89.0
1010,224.12398933541664,224.59621136874998,50.0,94.0
1011,224.95732233541665,225.3913499395833,57.0,83.0
1012,224.95732233541665,225.59794707916666,60.0,83.0
1013,225.58232208541665,225.93996083124998,55.0,93.0
1014,225.37398883541664,225.9746830395833,52.0,83.0
1015,225.79065533541666,226.0215580208333,60.0,99.0
1016,224.95732233541665,226.17086351666666,45.0,90.0
1017,225.99898858541664,226.45732173541666,64.0,102.0
1018,226.20732183541665,226.50246060625,55.0,88.0
1019,226.41565508541666,226.63440499791665,60.0,88.0
1020,226.62398833541664,226.76287716874998,38.0,88.0
1021,226.62398833541664,226.9225993270833,57.0,83.0
1022,226.62398833541664,226.98857152291666,62.0,87.0
1023,227.04065483541666,227.53544630416664,50.0,89.0
1024,227.45732133541665,227.68301568958333,62.0,94.0
1025,227.45732133541665,227.7403073333333,66.0,95.0
1026,227.87398783541664,227.98336279166665,62.0,73.0
1027,228.29065433541666,228.5215570208333,64.0,95.0
1028,228.29065433541666,228.5632236708333,67.0,93.0
1029,228.70732083541665,228.87572354583332,64.0,93.0
1030,228.70732083541665,228.96252906666666,67.0,91.0
1031,228.29065433541666,228.96947350833332,40.0,94.0
1032,229.12398733541664,229.4225983270833,62.0,92.0
1033,229.12398733541664,229.4278066583333,66.0,97.0
1034,229.54065383541666,229.81669539166666,62.0,94.0
1035,229.54065383541666,229.82537594374998,66.0,94.0
1036,229.12398733541664,229.91391757499997,38.0,94.0
1037,229.95732033541665,230.24898688541666,62.0,85.0
1038,229.95732033541665,230.25766743749998,67.0,89.0
1039,230.37398683541664,230.68127837916666,62.0,91.0
1040,230.37398683541664,230.69169504166666,67.0,93.0
1041,229.95732033541665,230.70037559374998,43.0,88.0
1042,230.79065333541664,231.05454211875,62.0,89.0
1043,230.79065333541664,231.05975045,69.0,93.0
1044,230.79065333541664,231.13787541874999,45.0,102.0
1045,231.20731983541665,231.50593082708332,62.0,89.0
1046,231.20731983541665,231.52502804166664,66.0,92.0
1047,231.20731983541665,231.55454191874998,47.0,102.0
1048,231.62398633541665,232.10662503125,60.0,89.0
1049,231.62398633541665,232.12398613541666,64.0,90.0
1050,231.62398633541665,232.24030553333333,57.0,89.0
1051,232.04065283541664,232.55106929791665,52.0,87.0
1052,231.62398633541665,232.61183316249998,45.0,92.0
1053,232.45731933541666,232.7819719833333,60.0,104.0
1054,232.45731933541666,232.79065253541665,57.0,92.0
1055,232.45731933541666,232.80106919791666,64.0,99.0
1056,232.87398583541665,232.98336079166666,45.0,92.0
1057,233.29065233541664,233.47988837083332,57.0,88.0
1058,233.29065233541664,233.48336059166664,62.0,89.0
1059,233.29065233541664,233.56669389166666,66.0,82.0
1060,233.70731883541666,234.16044365416664,57.0,75.0
1061,233.29065233541664,234.24030473333332,50.0,91.0
1062,234.12398533541665,234.36877690416665,62.0,94.0
1063,234.12398533541665,234.40870744375,66.0,99.0
1064,234.12398533541665,234.4225963270833,69.0,97.0
1065,234.33231858541666,234.43474909999998,57.0,89.0
1066,234.54065183541664,234.8913461395833,62.0,92.0
1067,234.74898508541665,234.91044335416666,66.0,92.0
1068,234.95731833541666,235.28023487291665,63.0,93.0
1069,234.95731833541666,235.413915375,67.0,90.0
1070,235.58231808541666,235.68127637916666,63.0,90.0
1071,235.37398483541665,235.86704019374997,46.0,74.0
1072,234.95731833541666,235.90870684375,39.0,97.0
1073,235.79065133541664,236.0475956770833,67.0,93.0
1074,235.79065133541664,236.06842900208332,63.0,99.0
1075,235.79065133541664,236.1361373083333,70.0,94.0
1076,235.99898458541665,236.16912340624998,46.0,89.0
1077,236.20731783541666,236.28544280416665,39.0,95.0
1078,236.62398433541665,236.72815096041666,38.0,93.0
1079,236.62398433541665,237.26808129999998,62.0,90.0
1080,236.62398433541665,237.330581275,66.0,95.0
1081,236.62398433541665,237.66391447499998,69.0,92.0
1082,237.45731733541666,237.91565048541665,62.0,95.0
1083,237.04065083541664,237.98335879166666,50.0,90.0
1084,237.24898408541665,238.00419211666664,57.0,90.0
1085,237.66565058541664,238.1986364833333,66.0,99.0
1086,238.08231708541666,238.33058087499998,62.0,95.0
1087,237.87398383541665,238.37051141458332,74.0,95.0
1088,238.29065033541664,238.60662243124997,64.0,92.0
1089,238.29065033541664,238.6830112895833,60.0,95.0
1090,238.29065033541664,238.70558072499998,57.0,89.0
1091,238.70731683541666,238.86877510416664,52.0,95.0
1092,238.29065033541664,238.89481676041666,45.0,93.0
1093,239.12398333541665,239.53023317291664,60.0,104.0
1094,239.12398333541665,239.56669149166666,64.0,97.0
1095,239.12398333541665,239.60314981041665,57.0,95.0
1096,239.92259412708333,240.01287186874998,38.0,93.0
1097,239.9278024583333,240.50245500625,62.0,85.0
1098,239.9347469,240.5528022083333,66.0,80.0
1099,240.19689957291664,240.5632188708333,50.0,89.0
1100,239.9330107895833,240.56495498124997,69.0,84.0
1101,240.43821892083332,240.62224662499997,57.0,88.0
1102,240.6534966125,240.98335759166665,62.0,89.0
1103,240.88439929791664,241.11530198333332,66.0,99.0
1104,241.11009365208332,241.2246769395833,69.0,84.0
1105,241.24551026458332,243.8653008833333,62.0,81.0
1106,241.41217686458333,243.8757175458333,66.0,75.0
1107,241.68821842083332,243.8809258770833,78.0,77.0
1108,241.80106559791665,243.8809258770833,86.0,89.0
1109,241.61356567291665,243.89134253958332,69.0,61.0
1110,241.73856562291664,243.90175920208333,81.0,72.0
1111,241.60835734166665,243.90523142291664,74.0,81.0
1112,246.62398033541666,247.10141069999997,55.0,82.0
1113,246.62398033541666,247.35314671041664,59.0,85.0
1114,247.45731333541664,247.96252146666666,55.0,91.0
1115,246.62398033541666,247.9868270125,43.0,88.0
1116,247.04064683541665,248.03196588333333,50.0,73.0
1117,247.87397983541666,248.3392574270833,59.0,95.0
1118,248.29064633541665,248.79411835624998,60.0,83.0
1119,248.29064633541665,249.10314601041665,57.0,84.0
1120,249.12397933541664,249.32536814374998,60.0,84.0
1121,249.12397933541664,249.40175700208331,64.0,90.0
1122,248.70731283541664,249.52328473125,52.0,73.0
1123,248.29064633541665,249.5284930625,45.0,88.0
1124,249.95731233541665,250.40522882291665,62.0,84.0
1125,250.37397883541664,250.89133973958332,57.0,84.0
1126,250.79064533541666,251.24029793333332,62.0,87.0
1127,250.79064533541666,251.2559229270833,66.0,78.0
1128,249.95731233541665,251.2663395895833,50.0,86.0
1129,251.20731183541665,251.33231178541664,57.0,71.0
1130,251.62397833541664,252.30974195,59.0,81.0
1131,251.62397833541664,252.31147806041665,55.0,81.0
1132,251.62397833541664,252.36876970416665,43.0,88.0
1133,252.45731133541665,252.82883896458333,57.0,86.0
1134,252.45731133541665,252.8444639583333,45.0,88.0
1135,252.87397783541664,253.24376935416666,59.0,92.0
1136,252.87397783541664,253.25592212708332,47.0,82.0
1137,253.29064433541666,253.68300528958332,64.0,84.0
1138,253.29064433541666,253.77849136249998,60.0,85.0
1139,254.12397733541664,254.22293562916664,64.0,92.0
1140,254.12397733541664,254.26981061041664,67.0,87.0
1141,254.12397733541664,254.2819633833333,60.0,89.0
1142,253.70731083541665,254.2871717145833,55.0,73.0
1143,253.29064433541666,254.30453281874998,48.0,90.0
1144,254.92085201666666,255.50939344791664,66.0,77.0
1145,254.92432423749997,255.51112955833332,62.0,84.0
1146,255.32710185416664,255.84446275833332,57.0,88.0
1147,254.92085201666666,255.88092107708331,50.0,90.0
1148,255.7819627833333,256.2871709145833,66.0,92.0
1149,255.78717111458332,256.71946240833336,69.0,89.0
1150,256.21425427708334,256.872240125,62.0,85.0
1151,257.24897608541664,257.39828158125,55.0,80.0
1152,257.39307325,257.52328153125,57.0,78.0
1153,257.56494818125,257.8027953083333,59.0,79.0
1154,257.75071199583334,257.9955035645833,62.0,84.0
1155,257.94862858333335,258.1100868520833,67.0,82.0
1156,258.14654517083335,258.28369789375,69.0,84.0
1157,258.3826561875,258.8375171166667,71.0,76.0
1158,258.62397553541666,258.85661433125,74.0,82.0
1159,258.98161428125,259.2246697395833,71.0,80.0
1160,258.98508650208333,259.2350864020833,74.0,88.0
1161,258.95036429375,259.2402947333333,79.0,80.0
1162,257.0198095104167,259.95036389375,50.0,80.0
1163,256.69342075208334,260.06321107083335,43.0,89.0
