,start,end,pitch,velocity
0,33.348792545833334,33.683469987500004,78.0,127.0
1,33.832663545833334,34.10282485416667,78.0,117.0
2,34.316534545833335,34.594760370833335,78.0,112.0
3,34.800405545833335,35.1471797625,78.0,112.0
4,35.284276545833336,35.70161528333333,74.0,100.0
5,35.76814754583334,36.08266369583333,71.0,92.0
6,36.01008304583333,36.58266372916667,74.0,102.0
7,36.73588954583334,36.955647625000005,69.0,95.0
8,36.977825045833335,37.207663770833335,71.0,86.0
9,37.21976054583334,37.7479863875,73.0,93.0
10,37.70363154583333,38.044357375000004,76.0,95.0
11,38.18750254583333,38.5100832125,76.0,95.0
12,38.67137354583333,39.161292933333335,69.0,89.0
13,39.155244545833334,40.7116962625,71.0,82.0
14,41.090728545833336,41.5100834125,71.0,95.0
15,41.57459954583334,41.92943827916667,78.0,107.0
16,42.05847054583334,42.431454441666666,78.0,117.0
17,42.54234154583334,42.909277054166665,78.0,112.0
18,43.02621254583334,43.419357733333335,74.0,100.0
19,43.51008354583333,43.71774485,71.0,86.0
20,43.752019045833336,44.49395457916667,76.0,93.0
21,44.47782554583333,44.49395457916667,76.0,95.0
22,44.71976104583334,44.963712675000004,71.0,79.0
23,44.961696545833334,45.324599795833336,74.0,95.0
24,45.445567545833335,45.883067575000005,74.0,100.0
25,45.929438545833335,46.312503087500005,76.0,99.0
26,46.413309545833336,46.80040634583334,78.0,102.0
27,46.897180545833336,48.516132266666666,78.0,122.0
28,48.83266454583334,49.155245212500006,78.0,122.0
29,49.31653554583333,49.6512129875,76.0,99.0
30,49.80040654583333,50.19758399166667,78.0,127.0
31,50.28427754583333,50.63306789166667,83.0,100.0
32,50.768148545833334,51.12298727916667,83.0,102.0
33,51.252019545833335,51.65524537916667,78.0,112.0
34,51.735890545833335,52.064519600000004,76.0,107.0
35,52.219761545833336,52.4032293,74.0,95.0
36,52.46169704583333,52.602826087500006,76.0,93.0
37,52.70363254583334,53.12097128333333,78.0,112.0
38,53.18750354583334,53.67137454583334,81.0,117.0
39,53.67137454583334,54.04435844166667,81.0,107.0
40,54.15524554583334,54.66331009583334,76.0,95.0
41,54.63911654583334,55.0705681875,78.0,112.0
42,55.12298754583333,56.0866972875,74.0,96.0
43,56.574600545833334,57.03226186666667,71.0,107.0
44,57.058471545833335,57.38306834166667,78.0,102.0
45,57.542342545833336,58.01411677083333,78.0,122.0
46,58.026213545833336,58.401213570833335,78.0,112.0
47,58.51008454583334,58.8931490875,74.0,112.0
48,58.99395554583334,59.41129428333333,78.0,107.0
49,59.47782654583334,59.7883104375,73.0,102.0
50,59.96169754583334,60.19556852916667,69.0,96.0
51,60.203633045833335,60.38306854166667,71.0,96.0
52,60.44556854583334,60.82661695833334,73.0,99.0
53,60.92943954583334,61.28024602083334,76.0,102.0
54,61.41331054583333,61.824600895833335,69.0,95.0
55,61.897181545833334,62.25202027916667,71.0,99.0
56,62.381052545833334,64.22782686250001,71.0,97.0
57,64.31653654583333,64.92540755416667,83.0,122.0
58,65.28427854583333,65.71774631666668,83.0,102.0
59,65.76814954583334,66.20564957500001,78.0,112.0
60,66.25202054583333,66.5806496,83.0,112.0
61,66.49395604583334,66.72177864166667,86.0,117.0
62,66.73589154583334,67.64314967083334,83.0,97.0
63,68.18750454583333,68.67540780416667,81.0,107.0
64,68.67137554583334,69.18347235416667,83.0,112.0
65,69.15524654583334,69.50202076250001,85.0,127.0
66,69.63911754583334,70.1189562875,85.0,122.0
67,70.12298854583334,71.61694025833334,83.0,107.0
68,72.05847254583334,72.4657306375,78.0,122.0
69,72.54234354583333,72.88508550416667,83.0,107.0
70,73.02621454583334,73.34879521250001,83.0,117.0
71,73.51008554583333,73.88306944166666,83.0,122.0
72,73.99395654583334,74.26613398333333,83.0,112.0
73,74.47782754583334,74.81653724583333,78.0,112.0
74,74.96169854583334,75.37298889583333,76.0,102.0
75,75.44556954583334,75.74194053333333,78.0,127.0
76,75.92944054583333,76.33871476666667,76.0,112.0
77,76.41331154583334,76.81653737916668,71.0,100.0
78,76.89718254583333,77.31250515416667,81.0,112.0
79,77.38105354583334,77.71774711666667,83.0,112.0
80,77.86492454583333,78.10686004583334,83.0,127.0
81,78.10686004583334,78.33468264166667,81.0,112.0
82,78.34879554583334,79.54032788333333,78.0,107.0
83,79.80040854583333,80.33871503333334,83.0,107.0
84,80.76815054583334,81.18347315416668,83.0,107.0
85,81.25202154583334,81.42742478333334,78.0,107.0
86,81.73589254583334,82.2157312875,83.0,122.0
87,82.21976354583333,82.67742486666667,86.0,112.0
88,82.70363454583334,83.63911847916667,83.0,107.0
89,83.67137654583334,84.11694109166667,81.0,102.0
90,84.15524754583333,84.64919919166667,83.0,112.0
91,84.63911854583334,84.99597340833334,85.0,112.0
92,85.12298954583333,85.62298957916667,85.0,127.0
93,85.60686054583334,87.25807033333334,83.0,117.0
94,87.54234454583333,87.97581231666668,76.0,102.0
95,88.02621554583334,88.391134925,81.0,112.0
96,88.51008654583333,88.8810543125,81.0,112.0
97,88.99395754583334,89.38307047500001,78.0,127.0
98,89.47782854583333,89.9032318,76.0,95.0
99,89.96169954583334,90.39113505833333,78.0,117.0
100,90.44557054583333,90.79436089166667,74.0,102.0
101,90.92944154583334,91.08871575,76.0,112.0
102,91.17137704583334,91.33065125,74.0,86.0
103,91.41331254583334,92.987909425,76.0,117.0
104,93.34879654583334,93.68145785833333,73.0,122.0
105,93.83266754583333,94.17540950416667,76.0,107.0
106,94.31653854583334,94.63105469583334,69.0,102.0
107,94.80040954583333,95.02218375416668,71.0,117.0
108,95.04234504583334,95.80444187083334,69.0,85.0
109,95.76815154583333,97.14315163750001,71.0,102.0
110,126.25202454583334,126.5867019875,78.0,127.0
111,126.73589554583334,127.00605685416667,78.0,117.0
112,127.21976654583334,127.49799237083334,78.0,112.0
113,127.70363754583335,128.0504117625,78.0,112.0
114,128.18750854583334,128.60484728333333,74.0,100.0
115,128.67137954583333,128.98589569583334,71.0,92.0
116,128.91331504583334,129.48589572916669,74.0,102.0
117,129.63912154583335,129.85887962500001,69.0,95.0
118,129.88105704583333,130.11089577083334,71.0,86.0
119,130.12299254583334,130.6512183875,73.0,93.0
120,130.60686354583333,130.947589375,76.0,95.0
121,131.09073454583333,131.4133152125,76.0,95.0
122,131.57460554583335,132.06452493333333,69.0,89.0
123,132.05847654583334,133.6149282625,71.0,82.0
124,133.99396054583335,134.4133154125,71.0,95.0
125,134.47783154583334,134.83267027916668,78.0,107.0
126,134.96170254583333,135.33468644166666,78.0,117.0
127,135.44557354583333,135.81250905416667,78.0,112.0
128,135.92944454583335,136.32258973333333,74.0,100.0
129,136.41331554583334,136.62097685,71.0,86.0
130,136.65525104583335,137.39718657916669,76.0,93.0
131,137.38105754583333,137.39718657916669,76.0,95.0
132,137.62299304583334,137.866944675,71.0,79.0
133,137.86492854583335,138.22783179583334,74.0,95.0
134,138.34879954583334,138.78629957500002,74.0,100.0
135,138.83267054583334,139.2157350875,76.0,99.0
136,139.31654154583333,139.70363834583333,78.0,102.0
137,139.80041254583335,141.41936426666666,78.0,122.0
138,141.73589654583333,142.0584772125,78.0,122.0
139,142.21976754583335,142.5544449875,76.0,99.0
140,142.70363854583334,143.10081599166668,78.0,127.0
141,143.18750954583334,143.5362998916667,83.0,100.0
142,143.67138054583333,144.02621927916667,83.0,102.0
143,144.15525154583335,144.55847737916667,78.0,112.0
144,144.63912254583335,144.9677516,76.0,107.0
145,145.12299354583334,145.3064613,74.0,95.0
146,145.36492904583335,145.5060580875,76.0,93.0
147,145.60686454583333,146.02420328333335,78.0,112.0
148,146.09073554583335,146.57460654583335,81.0,117.0
149,146.57460654583335,146.94759044166668,81.0,107.0
150,147.05847754583334,147.56654209583334,76.0,95.0
151,147.54234854583333,147.97380018750002,78.0,112.0
152,148.02621954583333,148.98992928750002,74.0,96.0
153,149.47783254583334,149.93549386666666,71.0,107.0
154,149.96170354583333,150.28630034166667,78.0,102.0
155,150.44557454583335,150.91734877083334,78.0,122.0
156,150.92944554583335,151.30444557083334,78.0,112.0
157,151.41331654583334,151.7963810875,74.0,112.0
158,151.89718754583333,152.31452628333335,78.0,107.0
159,152.38105854583335,152.6915424375,73.0,102.0
160,152.86492954583335,153.09880052916668,69.0,96.0
161,153.10686504583333,153.28630054166666,71.0,96.0
162,153.34880054583334,153.72984895833335,73.0,99.0
163,153.83267154583334,154.18347802083335,76.0,102.0
164,154.31654254583333,154.72783289583333,69.0,95.0
165,154.80041354583335,155.15525227916666,71.0,99.0
166,155.28428454583334,157.1310588625,71.0,97.0
167,157.21976854583335,157.82863955416667,83.0,122.0
168,158.18751054583333,158.62097831666668,83.0,102.0
169,158.67138154583333,159.108881575,78.0,112.0
170,159.15525254583335,159.48388160000002,83.0,112.0
171,159.39718804583333,159.62501064166668,86.0,117.0
172,159.63912354583334,160.54638167083334,83.0,97.0
173,161.09073654583335,161.57863980416667,81.0,107.0
174,161.57460754583335,162.08670435416667,83.0,112.0
175,162.05847854583334,162.4052527625,85.0,127.0
176,162.54234954583333,163.0221882875,85.0,122.0
177,163.02622054583335,164.52017225833333,83.0,107.0
178,164.96170454583333,165.3689626375,78.0,122.0
179,165.44557554583335,165.78831750416668,83.0,107.0
180,165.92944654583334,166.2520272125,83.0,117.0
181,166.41331754583334,166.78630144166667,83.0,122.0
182,166.89718854583333,167.16936598333334,83.0,112.0
183,167.38105954583335,167.71976924583333,78.0,112.0
184,167.86493054583335,168.27622089583335,76.0,102.0
185,168.34880154583334,168.64517253333335,78.0,127.0
186,168.83267254583333,169.24194676666667,76.0,112.0
187,169.31654354583335,169.71976937916668,71.0,100.0
188,169.80041454583335,170.21573715416667,81.0,112.0
189,170.28428554583334,170.6209791166667,83.0,112.0
190,170.76815654583334,171.01009204583335,83.0,127.0
191,171.01009204583335,171.23791464166666,81.0,112.0
192,171.25202754583333,172.44355988333334,78.0,107.0
193,172.70364054583334,173.24194703333333,83.0,107.0
194,173.67138254583335,174.08670515416668,83.0,107.0
195,174.15525354583335,174.33065678333335,78.0,107.0
196,174.63912454583334,175.1189632875,83.0,122.0
197,175.12299554583333,175.5806568666667,86.0,112.0
198,175.60686654583336,176.54235047916669,83.0,107.0
199,176.57460854583334,177.02017309166666,81.0,102.0
200,177.05847954583334,177.55243119166667,83.0,112.0
201,177.54235054583333,177.89920540833333,85.0,112.0
202,178.02622154583335,178.52622157916667,85.0,127.0
203,178.51009254583334,179.00202806250002,83.0,117.0
204,180.4536410625,180.88710883333334,78.0,102.0
205,180.92944754583334,181.29436692500002,81.0,112.0
206,181.41331854583333,181.7842863125,81.0,112.0
207,181.89718954583336,182.286302475,78.0,127.0
208,182.38106054583335,182.80646380000002,76.0,95.0
209,182.86493154583334,183.29436705833334,78.0,117.0
210,183.34880254583334,183.6975928916667,74.0,102.0
211,183.83267354583333,183.99194775,76.0,112.0
212,184.07460904583334,184.23388325000002,74.0,86.0
213,184.31654454583335,185.891141425,76.0,117.0
214,186.25202854583335,186.58468985833335,73.0,122.0
215,186.73589954583335,187.07864150416668,76.0,107.0
216,187.21977054583334,187.53428669583334,69.0,102.0
217,187.70364154583334,187.92541575416666,71.0,117.0
218,187.94557704583335,188.70767387083333,69.0,85.0
219,188.67138354583335,190.0463836375,71.0,102.0
220,190.12299654583333,190.73186755416668,83.0,122.0
221,191.09073854583335,191.52420631666666,83.0,102.0
222,191.57460954583334,192.012109575,78.0,112.0
223,192.05848054583333,192.3871096,83.0,112.0
224,192.30041604583334,192.5282386416667,86.0,117.0
225,192.54235154583336,193.44960967083335,83.0,97.0
226,193.99396454583334,194.48186780416668,81.0,107.0
227,194.47783554583333,194.98993235416668,83.0,112.0
228,194.96170654583335,195.3084807625,85.0,127.0
229,195.44557754583334,195.9254162875,85.0,122.0
230,195.92944854583334,197.42340025833334,83.0,107.0
231,197.86493254583334,198.27219063750002,78.0,122.0
232,198.34880354583333,198.69154550416667,83.0,107.0
233,198.83267454583336,199.1552552125,83.0,117.0
234,199.31654554583335,199.68952944166668,83.0,122.0
235,199.80041654583334,200.07259398333335,83.0,112.0
236,200.28428754583334,200.62299724583335,78.0,112.0
237,200.76815854583333,201.17944889583333,76.0,102.0
238,201.25202954583335,201.54840053333334,78.0,127.0
239,201.73590054583335,202.14517476666668,76.0,112.0
240,202.21977154583334,202.62299737916666,71.0,100.0
241,202.70364254583333,203.1189651541667,81.0,112.0
242,203.18751354583335,203.52420711666667,83.0,112.0
243,203.67138454583335,203.91332004583333,83.0,127.0
244,203.91332004583333,204.14114264166668,81.0,112.0
245,204.15525554583334,205.34678788333335,78.0,107.0
246,205.60686854583335,206.14517503333335,83.0,107.0
247,206.57461054583334,206.98993315416666,83.0,107.0
248,207.05848154583333,207.23388478333334,78.0,107.0
249,207.54235254583335,208.02219128750002,83.0,122.0
250,208.02622354583335,208.48388486666667,86.0,112.0
251,208.51009454583334,209.44557847916667,83.0,107.0
252,209.47783654583336,209.92340109166668,81.0,102.0
253,209.96170754583335,210.45565919166668,83.0,112.0
254,210.44557854583334,210.80243340833334,85.0,112.0
255,210.92944954583334,211.4294495791667,85.0,127.0
256,211.41332054583333,213.06453033333335,83.0,117.0
257,213.34880454583333,213.78227231666668,76.0,102.0
258,213.83267554583335,214.197594925,81.0,112.0
259,214.31654654583335,214.6875143125,81.0,112.0
260,214.80041754583334,215.189530475,78.0,127.0
261,215.28428854583333,215.7096918,76.0,95.0
262,215.76815954583336,216.19759505833335,78.0,117.0
263,216.25203054583335,216.60082089166667,74.0,102.0
264,216.73590154583334,216.89517575000002,76.0,112.0
265,216.97783704583335,217.13711125,74.0,86.0
266,217.21977254583334,218.794369425,76.0,117.0
267,219.15525654583334,219.48791785833333,73.0,122.0
268,219.63912754583333,219.98186950416667,76.0,107.0
269,220.12299854583335,220.43751469583336,69.0,102.0
270,220.60686954583335,220.82864375416668,71.0,117.0
271,220.84880504583333,221.61090187083335,69.0,85.0
272,221.09074054583334,222.4657406375,71.0,102.0
273,225.14719242916667,226.03025700416669,81.0,117.0
274,226.31453121666667,227.52420871666666,81.0,127.0
275,227.54033775000002,228.95566042500002,78.0,95.0
276,228.83267654583335,229.2883217375,81.0,112.0
277,229.31654754583334,231.84477352083334,78.0,112.0
278,232.46170904583335,236.09678993333335,83.0,107.0
