,start,end,pitch,velocity
0,0.4455645458333334,2.3387098333333336,47.0,69.0
1,0.4455645458333334,2.3750001583333336,59.0,68.0
2,0.4455645458333334,2.3971775791666667,66.0,78.0
3,2.8649195458333336,3.1310485958333336,71.0,86.0
4,3.1068550458333335,3.897177679166667,78.0,102.0
5,3.8326615458333335,4.292338995833333,74.0,88.0
6,3.3487905458333334,4.8084680625,66.0,79.0
7,4.558468045833334,4.8084680625,66.0,83.0
8,4.316532545833334,5.215726154166667,71.0,77.0
9,4.800403545833333,5.215726154166667,71.0,65.0
10,2.8649195458333336,5.336693904166667,54.0,40.0
11,2.3810485458333335,5.3649197125,47.0,93.0
12,3.3487905458333334,5.502016495833334,62.0,81.0
13,5.042339045833334,5.530242304166667,83.0,79.0
14,5.768145545833334,6.147177829166667,78.0,93.0
15,6.252016545833333,6.600806891666667,52.0,79.0
16,6.493952045833334,6.737903675,64.0,83.0
17,6.735887545833334,7.014113370833334,76.0,81.0
18,6.9778230458333335,7.4334682375000005,81.0,69.0
19,6.252016545833333,8.4858876625,57.0,86.0
20,8.187500545833334,8.4858876625,57.0,78.0
21,6.252016545833333,8.683468320833335,61.0,82.0
22,8.429436045833334,8.683468320833335,61.0,83.0
23,8.671371545833333,8.9516135,64.0,71.0
24,6.252016545833333,9.26612965,45.0,65.0
25,9.155242545833334,9.282258683333334,57.0,79.0
26,9.155242545833334,9.2842748125,61.0,79.0
27,8.913307045833333,9.971774858333333,69.0,85.0
28,10.364920045833333,10.653226516666667,67.0,68.0
29,10.606855545833334,10.872984595833334,71.0,72.0
30,10.122984545833333,10.975807183333334,59.0,78.0
31,10.122984545833333,11.0020168625,55.0,79.0
32,10.848791045833334,12.022178220833334,79.0,88.0
33,11.574597545833335,12.1149201625,74.0,83.0
34,12.058468545833334,12.336694370833333,67.0,88.0
35,12.300404045833334,12.570565354166668,74.0,67.0
36,10.122984545833333,12.872984729166667,50.0,83.0
37,11.090726545833334,12.911291183333335,59.0,66.0
38,12.542339545833334,12.9133073125,79.0,86.0
39,11.090726545833334,12.9193557,55.0,53.0
40,10.122984545833333,13.068549258333334,43.0,70.0
41,13.026210545833335,13.171371845833335,55.0,78.0
42,13.026210545833335,13.177420233333335,59.0,76.0
43,12.784275045833335,13.423387991666667,83.0,93.0
44,13.510081545833334,13.995968675,79.0,97.0
45,14.235888045833335,14.528226775,73.0,86.0
46,14.477823545833335,14.745968725,78.0,45.0
47,13.993952545833334,15.885081704166668,54.0,96.0
48,14.961694545833334,15.885081704166668,61.0,61.0
49,14.719759045833333,16.078630104166667,85.0,86.0
50,13.993952545833334,16.725807566666667,58.0,97.0
51,15.929436545833335,16.725807566666667,61.0,60.0
52,15.929436545833335,16.729839825,54.0,48.0
53,13.993952545833334,16.98588822916667,42.0,88.0
54,15.445565545833334,17.1774205,82.0,112.0
55,17.139114045833335,17.211694695833334,42.0,112.0
56,16.897178545833334,17.221775341666667,54.0,127.0
57,16.897178545833334,17.270162441666667,61.0,102.0
58,16.897178545833334,17.298388250000002,58.0,122.0
59,17.381049545833335,17.49193665,54.0,107.0
60,17.381049545833335,17.49193665,58.0,66.0
61,17.864920545833336,18.16935605,47.0,112.0
62,17.864920545833336,18.243952829166666,50.0,107.0
63,17.864920545833336,18.288307670833333,54.0,102.0
64,18.106856045833336,18.46774316666667,66.0,62.0
65,18.348791545833333,18.661291566666666,71.0,63.0
66,18.348791545833333,19.04032385,47.0,53.0
67,18.832662545833333,19.294356125,62.0,112.0
68,18.832662545833333,19.294356125,66.0,112.0
69,19.074598045833334,19.294356125,66.0,50.0
70,18.832662545833333,19.314517416666668,59.0,92.0
71,18.590727045833333,19.413307745833333,78.0,99.0
72,19.316533545833334,19.5967755,71.0,63.0
73,19.316533545833334,20.0322594,47.0,58.0
74,19.800404545833334,20.1834690875,54.0,100.0
75,19.558469045833334,20.20363037916667,78.0,85.0
76,20.042340045833335,20.383065875,66.0,47.0
77,19.800404545833334,20.502017495833336,50.0,88.0
78,20.284275545833335,20.558469112500003,71.0,63.0
79,20.768146545833336,21.276211095833336,54.0,100.0
80,20.526211045833335,21.278227225000002,78.0,95.0
81,20.768146545833336,21.3084691625,59.0,95.0
82,17.864920545833336,21.3205659375,35.0,96.0
83,21.252017545833333,21.368953037500003,50.0,56.0
84,20.284275545833335,21.520162725000002,47.0,78.0
85,21.252017545833333,21.65322725,71.0,64.0
86,21.735888545833333,22.098791795833336,76.0,93.0
87,22.219759545833334,22.44758214166667,73.0,55.0
88,21.977824045833334,22.461695045833334,69.0,41.0
89,21.735888545833333,22.536291825000003,61.0,95.0
90,21.735888545833333,22.548388600000003,52.0,93.0
91,21.735888545833333,22.55040472916667,57.0,93.0
92,22.461695045833334,23.012098308333336,81.0,90.0
93,21.735888545833333,23.03427572916667,45.0,71.0
94,22.703630545833335,23.28830800416667,61.0,100.0
95,22.703630545833335,23.379033816666666,57.0,99.0
96,22.703630545833335,23.393146720833336,52.0,92.0
97,22.945566045833335,23.407259625000002,69.0,63.0
98,23.187501545833335,23.923388691666666,45.0,59.0
99,23.429437045833335,24.054437087500002,76.0,82.0
100,23.671372545833336,24.185485483333334,52.0,88.0
101,23.671372545833336,24.447582275000002,61.0,90.0
102,24.155243545833333,24.47984034166667,73.0,52.0
103,23.671372545833336,24.50806615,57.0,89.0
104,23.913308045833336,24.526211312500003,69.0,39.0
105,24.155243545833333,24.840727462500002,45.0,42.0
106,24.639114545833333,25.068550058333333,57.0,117.0
107,24.639114545833333,25.231856520833336,61.0,117.0
108,24.397179045833333,25.2399210375,81.0,72.0
109,25.122985545833334,25.316533945833335,45.0,66.0
110,25.122985545833334,25.651211387500002,69.0,78.0
111,25.606856545833335,25.8870985,66.0,32.0
112,25.848792045833335,26.2923404625,69.0,74.0
113,26.090727545833335,26.308469495833336,73.0,82.0
114,25.606856545833335,26.368953370833335,54.0,95.0
115,25.606856545833335,26.381050145833335,57.0,107.0
116,25.606856545833335,26.409275954166667,61.0,112.0
117,26.574598545833336,26.627017904166667,54.0,82.0
118,26.574598545833336,26.931453408333336,57.0,99.0
119,26.332663045833336,26.967743733333336,78.0,99.0
120,26.574598545833336,26.991937283333336,61.0,100.0
121,26.816534045833336,27.4838728,69.0,50.0
122,27.058469545833336,27.713711525,73.0,76.0
123,27.058469545833336,27.729840558333336,54.0,78.0
124,27.542340545833333,28.13911477916667,61.0,95.0
125,27.542340545833333,28.153227683333334,66.0,97.0
126,28.026211545833334,28.286292208333336,73.0,68.0
127,27.784276045833334,28.3064535,69.0,60.0
128,28.026211545833334,28.620969650000003,54.0,76.0
129,28.752018045833335,28.866937408333335,54.0,85.0
130,25.606856545833335,28.883066441666667,42.0,88.0
131,28.993953545833335,29.175405170833336,61.0,100.0
132,28.993953545833335,29.278227758333333,73.0,50.0
133,28.268147045833334,29.34879227916667,78.0,99.0
134,28.510082545833335,29.479840675000002,66.0,117.0
135,29.477824545833336,29.864921345833334,59.0,93.0
136,29.719760045833336,29.927421350000003,74.0,50.0
137,29.961695545833336,30.108872975,78.0,46.0
138,29.477824545833336,30.288308470833336,71.0,77.0
139,29.961695545833336,30.5383084875,47.0,76.0
140,30.203631045833333,30.826614958333334,83.0,102.0
141,30.445566545833334,31.024195616666667,54.0,82.0
142,30.929437545833334,31.173389175,74.0,60.0
143,30.687502045833334,31.2399214375,71.0,55.0
144,30.687502045833334,31.278227891666667,47.0,49.0
145,29.477824545833336,31.346776283333334,35.0,75.0
146,31.655244045833335,31.713711791666668,71.0,23.0
147,31.171373045833334,32.27217957083334,78.0,99.0
148,31.413308545833335,32.647179595833336,54.0,75.0
149,32.38105054583333,32.671373145833336,74.0,95.0
150,31.413308545833335,32.70161508333334,59.0,73.0
151,32.622986045833336,32.93145380833334,73.0,67.0
152,31.413308545833335,33.2358893125,35.0,35.0
153,29.719760045833336,33.274195766666665,42.0,59.0
154,32.86492154583333,33.3326635125,74.0,63.0
155,31.413308545833335,33.348792545833334,47.0,59.0
156,34.07459904583334,34.42540552083334,59.0,45.0
157,33.832663545833334,34.5302442375,54.0,59.0
158,33.348792545833334,35.1471797625,47.0,83.0
159,34.55847004583333,35.35080880833333,54.0,42.0
160,34.316534545833335,35.8245991625,66.0,90.0
161,35.04234104583333,35.84677658333334,59.0,41.0
162,34.800405545833335,35.87097013333334,62.0,58.0
163,35.76814754583334,36.264115320833334,54.0,44.0
164,36.493954045833334,36.66935728333333,54.0,50.0
165,35.284276545833336,36.74193793333333,47.0,65.0
166,36.01008304583333,37.159276670833336,66.0,93.0
167,36.73588954583334,37.21976054583334,62.0,44.0
168,37.461696045833335,38.1290348,52.0,56.0
169,37.70363154583333,38.55443805416667,57.0,52.0
170,37.21976054583334,38.65927677083334,45.0,74.0
171,38.429438045833336,38.725809033333334,52.0,59.0
172,38.67137354583333,39.14314777083334,61.0,53.0
173,37.945567045833336,39.1512122875,64.0,86.0
174,39.639115545833334,39.9616962125,59.0,47.0
175,39.39718004583334,40.21371235833333,54.0,47.0
176,39.88105104583334,40.225809133333335,66.0,96.0
177,40.122986545833335,40.61290593333334,62.0,93.0
178,39.155244545833334,40.76209949166667,47.0,63.0
179,40.36492204583333,41.133067258333334,54.0,59.0
180,40.84879304583333,41.28226081666667,62.0,55.0
181,40.606857545833336,41.32056727083334,61.0,92.0
182,41.57459954583334,41.92943827916667,59.0,62.0
183,41.33266404583333,42.08669635416667,54.0,75.0
184,42.300406045833334,42.44355121666667,54.0,60.0
185,41.090728545833336,42.46169637916667,47.0,74.0
186,41.816535045833334,43.03024480416667,66.0,88.0
187,42.54234154583334,43.038309320833335,62.0,74.0
188,43.51008354583333,44.10887390833334,52.0,65.0
189,43.02621254583334,44.564519100000005,40.0,72.0
190,43.268148045833335,44.59879329583334,47.0,55.0
191,44.23589004583334,44.8729868625,52.0,45.0
192,43.752019045833336,45.02621267916667,59.0,68.0
193,44.47782554583333,45.036293325,55.0,73.0
194,45.20363204583334,45.98790629166667,50.0,52.0
195,45.445567545833335,46.209680500000005,62.0,85.0
196,46.17137404583334,46.39516438333334,50.0,58.0
197,44.961696545833334,46.415325675000005,43.0,82.0
198,46.413309545833336,46.91330957916667,62.0,58.0
199,45.68750304583334,47.02822894166667,55.0,54.0
200,47.38105154583334,47.8125031875,57.0,66.0
201,47.13911604583333,47.834680608333336,54.0,53.0
202,46.897180545833336,48.34072902916667,42.0,76.0
203,48.106858045833334,48.399196775,54.0,77.0
204,48.34879354583334,48.8407290625,61.0,112.0
205,47.622987045833334,48.90524519583334,66.0,89.0
206,49.31653554583333,49.71976137916667,59.0,67.0
207,49.074600045833336,49.84879364583333,54.0,69.0
208,50.04234204583334,50.20564850833333,54.0,61.0
209,48.83266454583334,50.25403560833334,47.0,75.0
210,49.558471045833336,50.74193886666667,66.0,95.0
211,50.28427754583333,50.794358225,62.0,71.0
212,51.252019545833335,51.83064861666667,52.0,74.0
213,51.01008404583334,52.20766477083333,47.0,48.0
214,50.768148545833334,52.2096809,40.0,71.0
215,51.49395504583334,52.647180929166666,59.0,92.0
216,51.735890545833335,52.65927770416667,56.0,77.0
217,52.94556804583333,53.73589067916667,54.0,56.0
218,52.70363254583334,54.13710038333333,42.0,92.0
219,53.913310045833335,54.14919715833334,54.0,45.0
220,54.15524554583334,54.63911654583334,61.0,97.0
221,53.18750354583334,54.731858487500006,57.0,86.0
222,53.429439045833334,54.826616558333335,66.0,92.0
223,55.12298754583333,55.50403595833333,59.0,68.0
224,54.881052045833336,55.6875037125,54.0,66.0
225,54.63911654583334,56.423390858333335,47.0,73.0
226,55.84879404583334,56.63508442083334,54.0,60.0
227,55.364923045833336,56.981858637500004,66.0,117.0
228,56.090729545833334,57.02621347916667,62.0,76.0
229,56.81653604583334,57.54839093333334,54.0,73.0
230,57.78427804583334,58.00605225416667,54.0,66.0
231,57.058471545833335,58.06048774166667,59.0,69.0
232,56.574600545833334,58.1068587125,47.0,79.0
233,58.026213545833336,58.481858737500005,62.0,77.0
234,57.30040704583334,58.5000039,66.0,102.0
235,58.26814904583333,58.57258455,59.0,59.0
236,58.75202004583333,59.600810425000006,52.0,61.0
237,59.719762045833335,59.903229800000005,52.0,62.0
238,58.51008454583334,59.925407220833335,45.0,74.0
239,58.99395554583334,59.99597174166667,57.0,69.0
240,59.235891045833334,60.40121370416667,64.0,92.0
241,59.96169754583334,60.44355241666667,61.0,89.0
242,60.687504045833336,61.548391200000005,54.0,75.0
243,60.44556854583334,61.76210089166667,42.0,97.0
244,61.65524604583334,61.80847186250001,54.0,25.0
245,61.897181545833334,62.419359,61.0,99.0
246,60.92943954583334,62.48185900416667,57.0,58.0
247,61.17137504583334,62.76613321666667,66.0,100.0
248,62.864923545833335,63.133068725,61.0,79.0
249,63.10685904583334,63.40927842083334,66.0,107.0
250,62.62298804583334,63.453633262500006,54.0,65.0
251,63.348794545833336,63.7741978,62.0,97.0
252,63.832665545833336,64.11492362916667,61.0,127.0
253,62.381052545833334,64.13508492083334,47.0,78.0
254,64.07460104583333,64.27621396250001,62.0,81.0
255,63.59073004583334,64.34476235416668,54.0,96.0
256,64.31653654583333,65.14516563333333,66.0,127.0
257,64.31653654583333,65.15726240833334,62.0,102.0
258,64.31653654583333,65.18145595833333,59.0,97.0
259,64.80040754583334,65.479843075,54.0,82.0
260,65.28427854583333,65.9092785875,62.0,112.0
261,65.28427854583333,65.9334721375,66.0,127.0
262,65.76814954583334,66.15121408750001,59.0,72.0
263,64.31653654583333,66.15927860416667,47.0,85.0
264,64.32056880416667,66.1633108625,35.0,85.0
265,66.01008504583334,66.21371409166667,54.0,20.0
266,66.25202054583333,67.0463754375,59.0,89.0
267,66.25202054583333,67.0463754375,66.0,117.0
268,66.25202054583333,67.04839156666667,62.0,97.0
269,66.25202054583333,67.27218190416667,47.0,89.0
270,66.25605280416667,67.2762141625,35.0,89.0
271,66.73589154583334,67.2762141625,54.0,54.0
272,67.21976254583333,67.70363354583334,62.0,117.0
273,67.21976254583333,67.70968193333334,66.0,122.0
274,67.70363354583334,68.116940025,59.0,96.0
275,67.46169804583333,68.165327125,47.0,90.0
276,67.46573030416667,68.16935938333333,35.0,90.0
277,68.18750454583333,68.82863362083333,64.0,96.0
278,68.18750454583333,69.02016589166666,61.0,112.0
279,68.67137554583334,69.471778825,52.0,38.0
280,69.15524654583334,69.72379497083334,64.0,96.0
281,68.18750454583333,69.75605303750001,45.0,82.0
282,68.19153680416667,69.76008529583333,33.0,82.0
283,69.15524654583334,70.04839176666667,61.0,117.0
284,69.63911754583334,70.11694015833334,52.0,67.0
285,70.12298854583334,70.7237950375,62.0,102.0
286,70.12298854583334,70.73387568333334,59.0,88.0
287,70.12298854583334,70.7358918125,66.0,107.0
288,70.84879504583334,70.91331117916667,62.0,27.0
289,70.60685954583333,71.15323055,54.0,88.0
290,70.12298854583334,71.4496015375,47.0,73.0
291,70.12702080416668,71.45363379583334,35.0,73.0
292,71.33266604583334,71.46371444166667,54.0,97.0
293,71.09073054583334,71.54435960833334,62.0,112.0
294,71.09073054583334,71.77419833333333,66.0,127.0
295,71.57460154583333,71.86492414583334,59.0,96.0
296,71.81653704583334,72.33064998333333,61.0,102.0
297,72.30040804583334,73.09274680833333,54.0,93.0
298,72.54234354583333,73.3729887625,57.0,74.0
299,72.05847254583334,73.91935976666667,42.0,99.0
300,72.06250480416666,73.923392025,30.0,99.0
301,73.26815004583334,73.99798880416667,54.0,68.0
302,73.75202104583333,74.34879527916667,57.0,73.0
303,73.51008554583333,74.504037225,61.0,99.0
304,72.78427904583333,74.52621464583333,66.0,112.0
305,74.23589204583334,75.01411790416667,54.0,81.0
306,73.99395654583334,75.35282760416668,42.0,92.0
307,73.99798880416667,75.3568598625,30.0,92.0
308,75.20363404583334,75.45161793333334,54.0,65.0
309,74.71976304583333,75.495972775,66.0,96.0
310,74.47782754583334,75.56048890833334,57.0,52.0
311,75.44556954583334,75.79435989166667,61.0,117.0
312,75.92944054583333,76.67137607916668,61.0,107.0
313,75.92944054583333,76.71774705,64.0,97.0
314,75.68750504583333,76.7358922125,57.0,71.0
315,76.41331154583334,76.99798900416667,52.0,63.0
316,75.92944054583333,77.26411805416667,45.0,85.0
317,75.93347280416667,77.2681503125,33.0,85.0
318,77.13911804583334,77.27218257083334,52.0,67.0
319,76.89718254583333,77.4012148375,64.0,102.0
320,76.89718254583333,77.41734387083334,61.0,127.0
321,77.62298904583334,77.69355356666667,66.0,28.0
322,77.38105354583334,77.73790840833334,57.0,93.0
323,78.10686004583334,78.23790844166668,54.0,77.0
324,77.86492454583333,78.26210199166667,57.0,102.0
325,77.86492454583333,78.41734393750001,61.0,122.0
326,77.86492454583333,78.44355361666668,66.0,117.0
327,78.34879554583334,78.5141181375,57.0,72.0
328,78.34879554583334,78.76008589583334,54.0,69.0
329,78.59073104583334,79.13911817916667,61.0,117.0
330,78.59073104583334,79.13911817916667,66.0,127.0
331,77.86492454583333,79.25605367083334,42.0,102.0
332,77.86895680416667,79.26008592916666,30.0,102.0
333,79.07460204583333,79.35081174166667,54.0,85.0
334,79.31653754583334,79.63911821250001,66.0,117.0
335,79.31653754583334,79.7237956375,61.0,127.0
336,79.80040854583333,80.58871505,59.0,107.0
337,79.80040854583333,80.60887634166667,66.0,112.0
338,79.80040854583333,80.62097311666668,62.0,102.0
339,80.28427954583334,81.0483925,54.0,58.0
340,80.76815054583334,81.5504086625,66.0,117.0
341,80.76815054583334,81.55444092083334,62.0,122.0
342,79.80040854583333,81.6290377,47.0,76.0
343,79.80444080416667,81.63306995833334,35.0,76.0
344,81.25202154583334,81.78427964583334,54.0,75.0
345,81.73589254583334,82.56452163333334,66.0,112.0
346,81.73589254583334,82.58871518333333,62.0,97.0
347,81.49395704583334,82.62298937916667,59.0,60.0
348,82.21976354583333,82.82863455416667,54.0,86.0
349,82.94557004583334,83.13508618750001,54.0,99.0
350,81.73589254583334,83.19153780416667,47.0,72.0
351,81.73992480416668,83.19557006250001,35.0,72.0
352,82.70363454583334,83.21169909583334,66.0,127.0
353,82.70363454583334,83.24395716250001,62.0,107.0
354,83.18750554583333,83.54436040833333,59.0,96.0
355,83.67137654583334,84.44557014583334,64.0,99.0
356,83.67137654583334,84.47379595416668,61.0,122.0
357,84.15524754583333,84.78831210416666,52.0,73.0
358,84.63911854583334,85.12097341666667,61.0,122.0
359,84.63911854583334,85.14516696666666,64.0,97.0
360,84.63911854583334,85.3004089125,57.0,88.0
361,83.67137654583334,85.3064573,45.0,76.0
362,83.67540880416666,85.31048955833334,33.0,76.0
363,85.12298954583333,85.6149250625,52.0,71.0
364,85.60686054583334,86.38105414583333,66.0,93.0
365,85.60686054583334,86.40323156666668,62.0,85.0
366,85.60686054583334,86.40927995416668,59.0,83.0
367,86.09073154583334,86.68952190833333,54.0,68.0
368,86.81653804583334,86.94758644166667,54.0,83.0
369,85.60686054583334,86.96169934583334,47.0,90.0
370,85.61089280416667,86.96573160416668,35.0,90.0
371,86.57460254583334,87.02218322083334,62.0,96.0
372,86.57460254583334,87.06250580416668,66.0,117.0
373,87.05847354583334,87.50807035000001,59.0,93.0
374,87.54234454583333,88.342747825,66.0,95.0
375,87.54234454583333,88.35887685833333,61.0,100.0
376,88.02621554583334,88.71371559166667,54.0,53.0
377,88.51008654583333,89.30040917916666,66.0,96.0
378,87.54234454583333,89.31855434166667,42.0,82.0
379,87.54637680416667,89.32258660000001,30.0,82.0
380,88.51008654583333,89.33669950416667,57.0,85.0
381,88.51008654583333,89.33669950416667,61.0,107.0
382,88.99395754583334,89.53428016250001,54.0,47.0
383,89.47782854583333,90.29637698750001,57.0,78.0
384,89.47782854583333,90.33871570000001,66.0,92.0
385,89.47782854583333,90.34879634583334,61.0,96.0
386,89.96169954583334,90.67540927083334,54.0,39.0
387,89.47782854583333,91.00605445416667,42.0,78.0
388,89.48186080416667,91.0100867125,30.0,78.0
389,90.92944154583334,91.11492542916668,54.0,66.0
390,90.44557054583333,91.19355446666667,66.0,97.0
391,90.44557054583333,91.30242544166667,61.0,100.0
392,91.41331254583334,92.29032873333334,64.0,88.0
393,91.41331254583334,92.29839325,57.0,90.0
394,91.41331254583334,92.30242550833334,61.0,102.0
395,91.41331254583334,92.7580707,45.0,69.0
396,91.41734480416667,92.76210295833334,33.0,69.0
397,92.38105454583334,92.94758684166668,64.0,85.0
398,92.38105454583334,93.21976427916667,61.0,96.0
399,93.34879654583334,94.79234502916667,42.0,52.0
400,93.35282880416668,94.79637728750001,30.0,52.0
401,93.34879654583334,94.92742568333334,66.0,85.0
402,93.34879654583334,94.995974075,54.0,56.0
403,93.34879654583334,95.00000633333333,57.0,79.0
404,93.34879654583334,95.17339344166668,61.0,82.0
405,95.28428054583334,95.86290961666667,66.0,102.0
406,95.28428054583334,96.12500640833333,62.0,99.0
407,95.28428054583334,96.16734512083333,59.0,89.0
408,95.76815154583333,96.48589352916667,54.0,55.0
409,96.25202254583334,96.8044419375,64.0,96.0
410,95.28428054583334,97.12903873333333,47.0,69.0
411,95.28831280416667,97.13307099166667,35.0,69.0
412,96.25202254583334,97.13911937916667,61.0,117.0
413,96.73589354583333,97.23387745000001,54.0,81.0
414,97.21976454583334,97.7117000625,66.0,95.0
415,97.46170004583334,97.7117000625,66.0,83.0
416,97.21976454583334,98.11895815416668,71.0,77.0
417,97.70363554583334,98.11895815416668,71.0,65.0
418,97.21976454583334,98.16936138333334,59.0,97.0
419,97.94557104583333,98.43347430416667,83.0,79.0
420,98.67137754583334,99.05040982916667,78.0,93.0
421,97.21976454583334,99.15524854583335,47.0,69.0
422,98.67137754583334,99.15524854583335,54.0,44.0
423,98.18750654583334,99.15524854583335,61.0,107.0
424,97.21976454583334,99.15524854583335,62.0,93.0
425,97.22379680416667,99.15928080416667,35.0,69.0
426,99.15524854583335,99.50403889166667,52.0,79.0
427,99.39718404583334,99.641135675,64.0,83.0
428,99.63911954583334,99.91734537083333,76.0,81.0
429,99.88105504583334,100.33670023750001,81.0,69.0
430,99.15524854583335,101.38911966250001,57.0,86.0
431,101.09073254583333,101.38911966250001,57.0,78.0
432,99.15524854583335,101.58670032083334,61.0,82.0
433,101.33266804583334,101.58670032083334,61.0,83.0
434,101.57460354583334,101.85484550000001,64.0,71.0
435,99.15524854583335,102.16936165,45.0,65.0
436,99.15928080416667,102.17339390833334,33.0,65.0
437,102.05847454583333,102.18549068333334,57.0,79.0
438,102.05847454583333,102.1875068125,61.0,79.0
439,101.81653904583334,102.87500685833334,69.0,85.0
440,103.26815204583333,103.55645851666667,67.0,68.0
441,103.51008754583334,103.77621659583333,71.0,72.0
442,103.02621654583334,103.87903918333333,59.0,78.0
443,103.02621654583334,103.9052488625,55.0,79.0
444,103.75202304583334,104.92541022083334,79.0,88.0
445,104.47782954583334,105.0181521625,74.0,83.0
446,104.96170054583334,105.23992637083335,67.0,88.0
447,105.20363604583333,105.47379735416668,74.0,67.0
448,103.02621654583334,105.77621672916668,50.0,83.0
449,103.99395854583334,105.81452318333334,59.0,66.0
450,105.44557154583333,105.8165393125,79.0,86.0
451,103.99395854583334,105.8225877,55.0,53.0
452,103.02621654583334,105.97178125833334,43.0,70.0
453,105.92944254583334,106.07460384583334,55.0,78.0
454,105.92944254583334,106.08065223333334,59.0,76.0
455,105.68750704583334,106.32661999166667,83.0,93.0
456,106.41331354583333,106.899200675,79.0,97.0
457,107.13912004583334,107.43145877500001,73.0,86.0
458,107.38105554583333,107.649200725,78.0,45.0
459,106.89718454583334,108.78831370416667,54.0,96.0
460,107.86492654583334,108.78831370416667,61.0,61.0
461,107.62299104583334,108.98186210416667,85.0,86.0
462,106.89718454583334,109.62903956666668,58.0,97.0
463,108.83266854583334,109.62903956666668,61.0,60.0
464,108.83266854583334,109.633071825,54.0,48.0
465,106.89718454583334,109.88912022916668,42.0,88.0
466,108.34879754583334,110.0806525,82.0,112.0
467,110.04234604583334,110.11492669583333,42.0,112.0
468,109.80041054583334,110.12500734166667,54.0,127.0
469,109.80041054583334,110.17339444166667,61.0,102.0
470,109.80041054583334,110.20162025,58.0,122.0
471,110.28428154583334,110.39516865,54.0,107.0
472,110.28428154583334,110.39516865,58.0,66.0
473,110.76815254583335,111.07258805000001,47.0,112.0
474,110.76815254583335,111.14718482916668,50.0,107.0
475,110.76815254583335,111.19153967083334,54.0,102.0
476,111.01008804583334,111.37097516666667,66.0,62.0
477,111.25202354583334,111.56452356666667,71.0,63.0
478,111.25202354583334,111.94355585000001,47.0,53.0
479,111.73589454583333,112.19758812500001,62.0,112.0
480,111.73589454583333,112.19758812500001,66.0,112.0
481,111.97783004583334,112.19758812500001,66.0,50.0
482,111.73589454583333,112.21774941666668,59.0,92.0
483,111.49395904583334,112.31653974583334,78.0,99.0
484,112.21976554583334,112.50000750000001,71.0,63.0
485,112.21976554583334,112.9354914,47.0,58.0
486,112.70363654583333,113.0867010875,54.0,100.0
487,112.46170104583334,113.10686237916667,78.0,85.0
488,112.94557204583334,113.286297875,66.0,47.0
489,112.70363654583333,113.40524949583335,50.0,88.0
490,113.18750754583334,113.46170111250001,71.0,63.0
491,113.67137854583333,114.17944309583334,54.0,100.0
492,113.42944304583334,114.18145922500001,78.0,95.0
493,113.67137854583333,114.2117011625,59.0,95.0
494,110.76815254583335,114.22379793750001,35.0,96.0
495,114.15524954583334,114.27218503750001,50.0,56.0
496,113.18750754583334,114.42339472500001,47.0,78.0
497,114.15524954583334,114.55645925,71.0,64.0
498,114.63912054583334,115.00202379583334,76.0,93.0
499,115.12299154583334,115.35081414166667,73.0,55.0
500,114.88105604583333,115.36492704583334,69.0,41.0
501,114.63912054583334,115.43952382500001,61.0,95.0
502,114.63912054583334,115.45162060000001,52.0,93.0
503,114.63912054583334,115.45363672916667,57.0,93.0
504,115.36492704583334,115.91533030833334,81.0,90.0
505,114.63912054583334,115.93750772916667,45.0,71.0
506,115.60686254583334,116.19154000416667,61.0,100.0
507,115.60686254583334,116.28226581666667,57.0,99.0
508,115.60686254583334,116.29637872083335,52.0,92.0
509,115.84879804583333,116.31049162500001,69.0,63.0
510,116.09073354583334,116.82662069166668,45.0,59.0
511,116.33266904583334,116.95766908750001,76.0,82.0
512,116.57460454583334,117.08871748333334,52.0,88.0
513,116.57460454583334,117.350814275,61.0,90.0
514,117.05847554583333,117.38307234166668,73.0,52.0
515,116.57460454583334,117.41129815000001,57.0,89.0
516,116.81654004583334,117.42944331250001,69.0,39.0
517,117.05847554583333,117.7439594625,45.0,42.0
518,117.54234654583334,117.97178205833333,57.0,117.0
519,117.54234654583334,118.13508852083334,61.0,117.0
520,117.30041104583334,118.1431530375,81.0,72.0
521,118.02621754583333,118.21976594583334,45.0,66.0
522,118.02621754583333,118.5544433875,69.0,78.0
523,118.51008854583334,118.79033050000001,66.0,32.0
524,118.75202404583334,119.19557246250001,69.0,74.0
525,118.99395954583333,119.21170149583334,73.0,82.0
526,118.51008854583334,119.27218537083334,54.0,95.0
527,118.51008854583334,119.28428214583334,57.0,107.0
528,118.51008854583334,119.31250795416668,61.0,112.0
529,119.47783054583334,119.53024990416667,54.0,82.0
530,119.47783054583334,119.83468540833334,57.0,99.0
531,119.23589504583335,119.87097573333334,78.0,99.0
532,119.47783054583334,119.89516928333335,61.0,100.0
533,119.71976604583334,120.3871048,69.0,50.0
534,119.96170154583334,120.61694352500001,73.0,76.0
535,119.96170154583334,120.63307255833334,54.0,78.0
536,120.44557254583334,121.04234677916668,61.0,95.0
537,120.44557254583334,121.05645968333334,66.0,97.0
538,120.92944354583334,121.18952420833334,73.0,68.0
539,120.68750804583334,121.2096855,69.0,60.0
540,120.92944354583334,121.52420165000001,54.0,76.0
541,121.65525004583334,121.77016940833335,54.0,85.0
542,118.51008854583334,121.78629844166667,42.0,88.0
543,121.89718554583334,122.07863717083335,61.0,100.0
544,121.89718554583334,122.18145975833333,73.0,50.0
545,121.17137904583333,122.25202427916668,78.0,99.0
546,121.41331454583334,122.38307267500001,66.0,117.0
547,122.38105654583335,122.76815334583334,59.0,93.0
548,122.62299204583334,122.83065335,74.0,50.0
549,122.86492754583334,123.012104975,78.0,46.0
550,122.38105654583335,123.19154047083335,71.0,77.0
551,122.86492754583334,123.4415404875,47.0,76.0
552,123.10686304583334,123.72984695833334,83.0,102.0
553,123.34879854583333,123.92742761666668,54.0,82.0
554,123.83266954583334,124.076621175,74.0,60.0
555,123.59073404583334,124.1431534375,71.0,55.0
556,123.59073404583334,124.18145989166668,47.0,49.0
557,122.38105654583335,124.25000828333334,35.0,75.0
558,124.55847604583334,124.61694379166667,71.0,23.0
559,124.07460504583334,125.17541157083333,78.0,99.0
560,124.31654054583333,125.55041159583334,54.0,75.0
561,125.28428254583334,125.57460514583335,74.0,95.0
562,124.31654054583333,125.60484708333334,59.0,73.0
563,125.52621804583335,125.83468580833333,73.0,67.0
564,124.31654054583333,126.13912131250001,35.0,35.0
565,122.62299204583334,126.17742776666667,42.0,59.0
566,125.76815354583334,126.23589551250001,74.0,63.0
567,124.31654054583333,126.25202454583334,47.0,59.0
568,126.97783104583334,127.32863752083334,59.0,45.0
569,126.73589554583334,127.4334762375,54.0,59.0
570,126.25202454583334,128.0504117625,47.0,83.0
571,127.46170204583333,128.25404080833334,54.0,42.0
572,127.21976654583334,128.7278311625,66.0,90.0
573,127.94557304583334,128.75000858333334,59.0,41.0
574,127.70363754583335,128.77420213333335,62.0,58.0
575,128.67137954583333,129.16734732083333,54.0,44.0
576,129.39718604583334,129.57258928333334,54.0,50.0
577,128.18750854583334,129.64516993333334,47.0,65.0
578,128.91331504583334,130.06250867083335,66.0,93.0
579,129.63912154583335,130.12299254583334,62.0,44.0
580,130.36492804583335,131.0322668,52.0,56.0
581,130.60686354583333,131.45767005416667,57.0,52.0
582,130.12299254583334,131.56250877083335,45.0,74.0
583,131.33267004583334,131.62904103333335,52.0,59.0
584,131.57460554583335,132.04637977083334,61.0,53.0
585,130.84879904583335,132.05444428750002,64.0,86.0
586,132.54234754583334,132.86492821250002,59.0,47.0
587,132.30041204583333,133.11694435833334,54.0,47.0
588,132.78428304583335,133.12904113333335,66.0,96.0
589,133.02621854583333,133.51613793333334,62.0,93.0
590,132.05847654583334,133.66533149166668,47.0,63.0
591,133.26815404583334,134.03629925833334,54.0,59.0
592,133.75202504583334,134.18549281666668,62.0,55.0
593,133.51008954583335,134.22379927083335,61.0,92.0
594,134.47783154583334,134.83267027916668,59.0,62.0
595,134.23589604583333,134.98992835416666,54.0,75.0
596,135.20363804583334,135.34678321666667,54.0,60.0
597,133.99396054583335,135.36492837916668,47.0,74.0
598,134.71976704583335,135.93347680416667,66.0,88.0
599,135.44557354583333,135.94154132083335,62.0,74.0
600,136.41331554583334,137.01210590833335,52.0,65.0
601,135.92944454583335,137.46775110000002,40.0,72.0
602,136.17138004583333,137.50202529583333,47.0,55.0
603,137.13912204583335,137.7762188625,52.0,45.0
604,136.65525104583335,137.92944467916666,59.0,68.0
605,137.38105754583333,137.939525325,55.0,73.0
606,138.10686404583333,138.89113829166666,50.0,52.0
607,138.34879954583334,139.1129125,62.0,85.0
608,139.07460604583335,139.29839638333334,50.0,58.0
609,137.86492854583335,139.318557675,43.0,82.0
610,139.31654154583333,139.81654157916668,62.0,58.0
611,138.59073504583333,139.93146094166667,55.0,54.0
612,140.28428354583335,140.7157351875,57.0,66.0
613,140.04234804583334,140.73791260833335,54.0,53.0
614,139.80041254583335,141.24396102916668,42.0,76.0
615,141.01009004583335,141.302428775,54.0,77.0
616,141.25202554583333,141.7439610625,61.0,112.0
617,140.52621904583333,141.80847719583335,66.0,89.0
618,142.21976754583335,142.62299337916667,59.0,67.0
619,141.97783204583334,142.75202564583333,54.0,69.0
620,142.94557404583335,143.10888050833333,54.0,61.0
621,141.73589654583333,143.15726760833334,47.0,75.0
622,142.46170304583333,143.64517086666666,66.0,95.0
623,143.18750954583334,143.697590225,62.0,71.0
624,144.15525154583335,144.73388061666668,52.0,74.0
625,143.91331604583334,145.11089677083334,47.0,48.0
626,143.67138054583333,145.1129129,40.0,71.0
627,144.39718704583333,145.55041292916667,59.0,92.0
628,144.63912254583335,145.56250970416667,56.0,77.0
629,145.84880004583334,146.63912267916666,54.0,56.0
630,145.60686454583333,147.04033238333335,42.0,92.0
631,146.81654204583333,147.05242915833335,54.0,45.0
632,147.05847754583334,147.54234854583333,61.0,97.0
633,146.09073554583335,147.6350904875,57.0,86.0
634,146.33267104583334,147.72984855833334,66.0,92.0
635,148.02621954583333,148.40726795833334,59.0,68.0
636,147.78428404583335,148.59073571250002,54.0,66.0
637,147.54234854583333,149.32662285833334,47.0,73.0
638,148.75202604583333,149.53831642083335,54.0,60.0
639,148.26815504583334,149.8850906375,66.0,117.0
640,148.99396154583334,149.92944547916667,62.0,76.0
641,149.71976804583335,150.45162293333334,54.0,73.0
642,150.68751004583333,150.90928425416666,54.0,66.0
643,149.96170354583333,150.96371974166667,59.0,69.0
644,149.47783254583334,151.01009071250002,47.0,79.0
645,150.92944554583335,151.3850907375,62.0,77.0
646,150.20363904583334,151.4032359,66.0,102.0
647,151.17138104583333,151.47581655000002,59.0,59.0
648,151.65525204583335,152.504042425,52.0,61.0
649,152.62299404583334,152.8064618,52.0,62.0
650,151.41331654583334,152.82863922083334,45.0,74.0
651,151.89718754583333,152.89920374166667,57.0,69.0
652,152.13912304583334,153.30444570416668,64.0,92.0
653,152.86492954583335,153.34678441666668,61.0,89.0
654,153.59073604583335,154.4516232,54.0,75.0
655,153.34880054583334,154.66533289166668,42.0,97.0
656,154.55847804583334,154.7117038625,54.0,25.0
657,154.80041354583335,155.32259100000002,61.0,99.0
658,153.83267154583334,155.38509100416667,57.0,58.0
659,154.07460704583335,155.66936521666668,66.0,100.0
660,155.76815554583334,156.03630072500002,61.0,79.0
661,156.01009104583335,156.31251042083335,66.0,107.0
662,155.52622004583333,156.3568652625,54.0,65.0
663,156.25202654583333,156.6774298,62.0,97.0
664,156.73589754583335,157.01815562916667,61.0,127.0
665,155.28428454583334,157.03831692083335,47.0,78.0
666,156.97783304583334,157.1794459625,62.0,81.0
667,156.49396204583334,157.24799435416668,54.0,96.0
668,157.21976854583335,158.04839763333334,66.0,127.0
669,157.21976854583335,158.06049440833334,62.0,102.0
670,157.21976854583335,158.08468795833335,59.0,97.0
671,157.70363954583334,158.383075075,54.0,82.0
672,158.18751054583333,158.81251058750001,62.0,112.0
673,158.18751054583333,158.83670413750002,66.0,127.0
674,158.67138154583333,159.0544460875,59.0,72.0
675,157.21976854583335,159.06251060416668,47.0,85.0
676,157.221784675,159.06452673333334,35.0,85.0
677,158.91331704583334,159.11694609166668,54.0,20.0
678,159.15525254583335,159.94960743750002,59.0,89.0
679,159.15525254583335,159.94960743750002,66.0,117.0
680,159.15525254583335,159.95162356666668,62.0,97.0
681,159.15525254583335,160.17541390416667,47.0,89.0
682,159.157268675,160.17743003333334,35.0,89.0
683,159.63912354583334,160.1794461625,54.0,54.0
684,160.12299454583334,160.60686554583333,62.0,117.0
685,160.12299454583334,160.61291393333335,66.0,122.0
686,160.60686554583333,161.020172025,59.0,96.0
687,160.36493004583335,161.068559125,47.0,90.0
688,160.366946175,161.07057525416667,35.0,90.0
689,161.09073654583335,161.73186562083333,64.0,96.0
690,161.09073654583335,161.92339789166667,61.0,112.0
691,161.57460754583335,162.375010825,52.0,38.0
692,162.05847854583334,162.62702697083333,64.0,96.0
693,161.09073654583335,162.6592850375,45.0,82.0
694,161.092752675,162.66130116666668,33.0,82.0
695,162.05847854583334,162.95162376666667,61.0,117.0
696,162.54234954583333,163.02017215833334,52.0,67.0
697,163.02622054583335,163.6270270375,62.0,102.0
698,163.02622054583335,163.63710768333334,59.0,88.0
699,163.02622054583335,163.6391238125,66.0,107.0
700,163.75202704583333,163.81654317916667,62.0,27.0
701,163.51009154583335,164.05646255000002,54.0,88.0
702,163.02622054583335,164.3528335375,47.0,73.0
703,163.02823667500002,164.35484966666667,35.0,73.0
704,164.23589804583335,164.36694644166667,54.0,97.0
705,163.99396254583334,164.44759160833334,62.0,112.0
706,163.99396254583334,164.67743033333335,66.0,127.0
707,164.47783354583333,164.76815614583333,59.0,96.0
708,164.71976904583335,165.23388198333333,61.0,102.0
709,165.20364004583334,165.99597880833335,54.0,93.0
710,165.44557554583335,166.2762207625,57.0,74.0
711,164.96170454583333,166.82259176666668,42.0,99.0
712,164.96372067500002,166.82460789583334,30.0,99.0
713,166.17138204583335,166.90122080416668,54.0,68.0
714,166.65525304583335,167.25202727916667,57.0,73.0
715,166.41331754583334,167.40726922500002,61.0,99.0
716,165.68751104583333,167.42944664583334,66.0,112.0
717,167.13912404583334,167.91734990416668,54.0,81.0
718,166.89718854583333,168.25605960416667,42.0,92.0
719,166.89920467500002,168.25807573333333,30.0,92.0
720,168.10686604583333,168.35484993333336,54.0,65.0
721,167.62299504583333,168.39920477500002,66.0,96.0
722,167.38105954583335,168.46372090833333,57.0,52.0
723,168.34880154583334,168.69759189166666,61.0,117.0
724,168.83267254583333,169.57460807916667,61.0,107.0
725,168.83267254583333,169.62097905000002,64.0,97.0
726,168.59073704583335,169.6391242125,57.0,71.0
727,169.31654354583335,169.90122100416667,52.0,63.0
728,168.83267254583333,170.16735005416666,45.0,85.0
729,168.834688675,170.16936618333335,33.0,85.0
730,170.04235004583333,170.17541457083334,52.0,67.0
731,169.80041454583335,170.3044468375,64.0,102.0
732,169.80041454583335,170.32057587083335,61.0,127.0
733,170.52622104583335,170.59678556666668,66.0,28.0
734,170.28428554583334,170.64114040833334,57.0,93.0
735,171.01009204583335,171.14114044166666,54.0,77.0
736,170.76815654583334,171.16533399166667,57.0,102.0
737,170.76815654583334,171.3205759375,61.0,122.0
738,170.76815654583334,171.34678561666666,66.0,117.0
739,171.25202754583333,171.4173501375,57.0,72.0
740,171.25202754583333,171.66331789583333,54.0,69.0
741,171.49396304583334,172.04235017916668,61.0,117.0
742,171.49396304583334,172.04235017916668,66.0,127.0
743,170.76815654583334,172.15928567083336,42.0,102.0
744,170.770172675,172.16130180000002,30.0,102.0
745,171.97783404583333,172.25404374166666,54.0,85.0
746,172.21976954583334,172.5423502125,66.0,117.0
747,172.21976954583334,172.62702763750002,61.0,127.0
748,172.70364054583334,173.49194705000002,59.0,107.0
749,172.70364054583334,173.51210834166667,66.0,112.0
750,172.70364054583334,173.52420511666668,62.0,102.0
751,173.18751154583333,173.9516245,54.0,58.0
752,173.67138254583335,174.45364066250002,66.0,117.0
753,173.67138254583335,174.45767292083335,62.0,122.0
754,172.70364054583334,174.5322697,47.0,76.0
755,172.705656675,174.53428582916666,35.0,76.0
756,174.15525354583335,174.68751164583335,54.0,75.0
757,174.63912454583334,175.46775363333333,66.0,112.0
758,174.63912454583334,175.49194718333334,62.0,97.0
759,174.39718904583333,175.52622137916669,59.0,60.0
760,175.12299554583333,175.7318665541667,54.0,86.0
761,175.84880204583334,176.0383181875,54.0,99.0
762,174.63912454583334,176.09476980416667,47.0,72.0
763,174.641140675,176.09678593333334,35.0,72.0
764,175.60686654583336,176.11493109583336,66.0,127.0
765,175.60686654583336,176.1471891625,62.0,107.0
766,176.09073754583335,176.44759240833335,59.0,96.0
767,176.57460854583334,177.34880214583333,64.0,99.0
768,176.57460854583334,177.37702795416666,61.0,122.0
769,177.05847954583334,177.69154410416667,52.0,73.0
770,177.54235054583333,178.0242054166667,61.0,122.0
771,177.54235054583333,178.04839896666667,64.0,97.0
772,177.54235054583333,178.20364091250002,57.0,88.0
773,176.57460854583334,178.2096893,45.0,76.0
774,176.576624675,178.21170542916667,33.0,76.0
775,178.02622154583335,178.5181570625,52.0,71.0
776,178.51009254583334,179.28428614583333,66.0,93.0
777,178.51009254583334,179.30646356666668,62.0,85.0
778,178.51009254583334,179.31251195416667,59.0,83.0
779,178.99396354583334,179.59275390833335,54.0,68.0
780,179.71977004583334,179.8508184416667,54.0,83.0
781,178.51009254583334,179.86493134583336,47.0,90.0
782,178.512108675,179.86694747500002,35.0,90.0
783,179.47783454583333,179.92541522083334,62.0,96.0
784,179.47783454583333,179.96573780416668,66.0,117.0
785,179.96170554583335,180.41130235,59.0,93.0
786,180.44557654583335,181.245979825,66.0,95.0
787,180.44557654583335,181.26210885833333,61.0,100.0
788,180.92944754583334,181.61694759166667,54.0,53.0
789,181.41331854583333,182.20364117916668,66.0,96.0
790,180.44557654583335,182.22178634166667,42.0,82.0
791,180.447592675,182.22380247083333,30.0,82.0
792,181.41331854583333,182.23993150416666,57.0,85.0
793,181.41331854583333,182.23993150416666,61.0,107.0
794,181.89718954583336,182.4375121625,54.0,47.0
795,182.38106054583335,183.1996089875,57.0,78.0
796,182.38106054583335,183.2419477,66.0,92.0
797,182.38106054583335,183.25202834583334,61.0,96.0
798,182.86493154583334,183.57864127083334,54.0,39.0
799,182.38106054583335,183.90928645416668,42.0,78.0
800,182.383076675,183.91130258333334,30.0,78.0
801,183.83267354583333,184.01815742916668,54.0,66.0
802,183.34880254583334,184.09678646666669,66.0,97.0
803,183.34880254583334,184.2056574416667,61.0,100.0
804,184.31654454583335,185.19356073333336,64.0,88.0
805,184.31654454583335,185.20162525,57.0,90.0
806,184.31654454583335,185.20565750833333,61.0,102.0
807,184.31654454583335,185.66130270000002,45.0,69.0
808,184.31856067500001,185.66331882916668,33.0,69.0
809,185.28428654583334,185.85081884166667,64.0,85.0
810,185.28428654583334,186.12299627916667,61.0,96.0
811,186.25202854583335,187.69557702916669,42.0,52.0
812,186.25404467500002,187.69759315833335,30.0,52.0
813,186.25202854583335,187.83065768333336,66.0,85.0
814,186.25202854583335,187.899206075,54.0,56.0
815,186.25202854583335,187.90323833333335,57.0,79.0
816,186.25202854583335,188.07662544166666,61.0,82.0
817,188.67138354583335,188.939528725,61.0,79.0
818,188.91331904583333,189.21573842083333,66.0,107.0
819,188.42944804583334,189.26009326250002,54.0,65.0
820,189.15525454583334,189.5806578,62.0,97.0
821,189.63912554583334,189.92138362916668,61.0,127.0
822,188.18751254583333,189.94154492083334,47.0,78.0
823,188.18952867500002,189.94356105,35.0,78.0
824,189.88106104583335,190.0826739625,62.0,81.0
825,189.39719004583336,190.12299654583333,54.0,96.0
826,190.12299654583333,190.95162563333335,66.0,127.0
827,190.12299654583333,190.96372240833335,62.0,102.0
828,190.12299654583333,190.98791595833333,59.0,97.0
829,190.60686754583335,191.286303075,54.0,82.0
830,191.09073854583335,191.7157385875,62.0,112.0
831,191.09073854583335,191.7399321375,66.0,127.0
832,191.57460954583334,191.9576740875,59.0,72.0
833,190.12299654583333,191.9657386041667,47.0,85.0
834,190.12501267500002,191.96775473333335,35.0,85.0
835,191.81654504583335,192.0201740916667,54.0,20.0
836,192.05848054583333,192.8528354375,59.0,89.0
837,192.05848054583333,192.8528354375,66.0,117.0
838,192.05848054583333,192.85485156666667,62.0,97.0
839,192.05848054583333,193.0786419041667,47.0,89.0
840,192.060496675,193.08065803333335,35.0,89.0
841,192.54235154583336,193.0826741625,54.0,54.0
842,193.02622254583335,193.51009354583334,62.0,117.0
843,193.02622254583335,193.51614193333333,66.0,122.0
844,193.51009354583334,193.923400025,59.0,96.0
845,193.26815804583333,193.97178712500002,47.0,90.0
846,193.27017417500002,193.97380325416668,35.0,90.0
847,193.99396454583334,194.63509362083335,64.0,96.0
848,193.99396454583334,194.82662589166668,61.0,112.0
849,194.47783554583333,195.27823882500002,52.0,38.0
850,194.96170654583335,195.53025497083334,64.0,96.0
851,193.99396454583334,195.5625130375,45.0,82.0
852,193.995980675,195.5645291666667,33.0,82.0
853,194.96170654583335,195.85485176666668,61.0,117.0
854,195.44557754583334,195.92340015833335,52.0,67.0
855,195.92944854583334,196.5302550375,62.0,102.0
856,195.92944854583334,196.54033568333335,59.0,88.0
857,195.92944854583334,196.54235181250002,66.0,107.0
858,196.65525504583334,196.71977117916668,62.0,27.0
859,196.41331954583333,196.95969055,54.0,88.0
860,195.92944854583334,197.25606153750002,47.0,73.0
861,195.931464675,197.25807766666668,35.0,73.0
862,197.13912604583334,197.27017444166668,54.0,97.0
863,196.89719054583335,197.35081960833335,62.0,112.0
864,196.89719054583335,197.58065833333333,66.0,127.0
865,197.38106154583335,197.67138414583334,59.0,96.0
866,197.62299704583333,198.13710998333335,61.0,102.0
867,198.10686804583335,198.89920680833333,54.0,93.0
868,198.34880354583333,199.17944876250002,57.0,74.0
869,197.86493254583334,199.7258197666667,42.0,99.0
870,197.866948675,199.72783589583335,30.0,99.0
871,199.07461004583334,199.80444880416667,54.0,68.0
872,199.55848104583333,200.15525527916668,57.0,73.0
873,199.31654554583335,200.310497225,61.0,99.0
874,198.59073904583335,200.33267464583335,66.0,112.0
875,200.04235204583335,200.82057790416667,54.0,81.0
876,199.80041654583334,201.15928760416668,42.0,92.0
877,199.802432675,201.16130373333334,30.0,92.0
878,201.01009404583334,201.25807793333334,54.0,65.0
879,200.52622304583335,201.302432775,66.0,96.0
880,200.28428754583334,201.36694890833334,57.0,52.0
881,201.25202954583335,201.60081989166667,61.0,117.0
882,201.73590054583335,202.47783607916668,61.0,107.0
883,201.73590054583335,202.52420705,64.0,97.0
884,201.49396504583333,202.54235221250002,57.0,71.0
885,202.21977154583334,202.80444900416668,52.0,63.0
886,201.73590054583335,203.07057805416667,45.0,85.0
887,201.737916675,203.07259418333334,33.0,85.0
888,202.94557804583334,203.07864257083335,52.0,67.0
889,202.70364254583333,203.2076748375,64.0,102.0
890,202.70364254583333,203.22380387083334,61.0,127.0
891,203.42944904583334,203.50001356666667,66.0,28.0
892,203.18751354583335,203.54436840833336,57.0,93.0
893,203.91332004583333,204.04436844166668,54.0,77.0
894,203.67138454583335,204.06856199166668,57.0,102.0
895,203.67138454583335,204.2238039375,61.0,122.0
896,203.67138454583335,204.25001361666668,66.0,117.0
897,204.15525554583334,204.3205781375,57.0,72.0
898,204.15525554583334,204.56654589583334,54.0,69.0
899,204.39719104583335,204.9455781791667,61.0,117.0
900,204.39719104583335,204.9455781791667,66.0,127.0
901,203.67138454583335,205.06251367083334,42.0,102.0
902,203.673400675,205.0645298,30.0,102.0
903,204.88106204583335,205.15727174166668,54.0,85.0
904,205.12299754583336,205.4455782125,66.0,117.0
905,205.12299754583336,205.5302556375,61.0,127.0
906,205.60686854583335,206.39517505,59.0,107.0
907,205.60686854583335,206.4153363416667,66.0,112.0
908,205.60686854583335,206.42743311666666,62.0,102.0
909,206.09073954583334,206.85485250000002,54.0,58.0
910,206.57461054583334,207.3568686625,66.0,117.0
911,206.57461054583334,207.36090092083333,62.0,122.0
912,205.60686854583335,207.4354977,47.0,76.0
913,205.608884675,207.43751382916668,35.0,76.0
914,207.05848154583333,207.59073964583334,54.0,75.0
915,207.54235254583335,208.37098163333334,66.0,112.0
916,207.54235254583335,208.39517518333335,62.0,97.0
917,207.30041704583334,208.42944937916667,59.0,60.0
918,208.02622354583335,208.63509455416667,54.0,86.0
919,208.75203004583335,208.94154618750002,54.0,99.0
920,207.54235254583335,208.9979978041667,47.0,72.0
921,207.54436867500002,209.00001393333335,35.0,72.0
922,208.51009454583334,209.01815909583334,66.0,127.0
923,208.51009454583334,209.0504171625,62.0,107.0
924,208.99396554583333,209.35082040833333,59.0,96.0
925,209.47783654583336,210.25203014583334,64.0,99.0
926,209.47783654583336,210.28025595416668,61.0,122.0
927,209.96170754583335,210.59477210416668,52.0,73.0
928,210.44557854583334,210.92743341666667,61.0,122.0
929,210.44557854583334,210.95162696666668,64.0,97.0
930,210.44557854583334,211.1068689125,57.0,88.0
931,209.47783654583336,211.11291730000002,45.0,76.0
932,209.47985267500002,211.11493342916668,33.0,76.0
933,210.92944954583334,211.4213850625,52.0,71.0
934,211.41332054583333,212.18751414583335,66.0,93.0
935,211.41332054583333,212.20969156666666,62.0,85.0
936,211.41332054583333,212.21573995416668,59.0,83.0
937,211.89719154583335,212.49598190833333,54.0,68.0
938,212.62299804583336,212.75404644166667,54.0,83.0
939,211.41332054583333,212.76815934583334,47.0,90.0
940,211.41533667500002,212.770175475,35.0,90.0
941,212.38106254583334,212.82864322083336,62.0,96.0
942,212.38106254583334,212.86896580416666,66.0,117.0
943,212.86493354583334,213.31453035,59.0,93.0
944,213.34880454583333,214.14920782500002,66.0,95.0
945,213.34880454583333,214.16533685833335,61.0,100.0
946,213.83267554583335,214.52017559166669,54.0,53.0
947,214.31654654583335,215.10686917916667,66.0,96.0
948,213.34880454583333,215.12501434166668,42.0,82.0
949,213.35082067500002,215.12703047083335,30.0,82.0
950,214.31654654583335,215.14315950416668,57.0,85.0
951,214.31654654583335,215.14315950416668,61.0,107.0
952,214.80041754583334,215.3407401625,54.0,47.0
953,215.28428854583333,216.1028369875,57.0,78.0
954,215.28428854583333,216.1451757,66.0,92.0
955,215.28428854583333,216.15525634583335,61.0,96.0
956,215.76815954583336,216.48186927083336,54.0,39.0
957,215.28428854583333,216.8125144541667,42.0,78.0
958,215.286304675,216.81453058333335,30.0,78.0
959,216.73590154583334,216.9213854291667,54.0,66.0
960,216.25203054583335,217.00001446666667,66.0,97.0
961,216.25203054583335,217.10888544166667,61.0,100.0
962,217.21977254583334,218.09678873333334,64.0,88.0
963,217.21977254583334,218.10485325000002,57.0,90.0
964,217.21977254583334,218.10888550833334,61.0,102.0
965,217.21977254583334,218.5645307,45.0,69.0
966,217.221788675,218.56654682916667,33.0,69.0
967,218.18751454583335,218.75404684166668,64.0,85.0
968,218.18751454583335,219.02622427916668,61.0,96.0
969,219.15525654583334,220.59880502916667,42.0,52.0
970,219.157272675,220.60082115833333,30.0,52.0
971,219.15525654583334,220.73388568333334,66.0,85.0
972,219.15525654583334,220.802434075,54.0,56.0
973,219.15525654583334,220.80646633333333,57.0,79.0
974,219.15525654583334,220.97985344166668,61.0,82.0
975,221.818563175,222.09477287083334,61.0,50.0
976,221.3225954,222.15525674583336,54.0,90.0
977,221.5826760625,222.15727287500002,59.0,63.0
978,221.08670828750002,222.84678905,47.0,88.0
979,221.08872441666668,222.84880517916667,35.0,88.0
980,222.32259546666668,222.94154712083335,54.0,35.0
981,223.01211164166668,223.9778375125,54.0,45.0
982,223.02017615833336,224.1189665541667,47.0,54.0
983,223.02219228750002,224.12098268333335,35.0,54.0
984,222.04840190000002,224.18146655833334,66.0,79.0
985,222.76211162500002,224.20566010833335,61.0,52.0
986,222.51815999583334,224.25606333750002,62.0,66.0
987,223.0161439,224.50404722500002,59.0,41.0
988,224.8548537,225.79638602083335,57.0,72.0
989,224.96775693333333,226.11695055833334,52.0,38.0
990,225.00001500000002,226.65525704583334,64.0,82.0
991,224.90727305833335,227.47582161666668,60.0,69.0
992,225.9979989375,228.02622487916668,57.0,44.0
993,226.47783767916667,228.73791847500001,52.0,34.0
994,224.98791822500002,228.77824105833335,45.0,36.0
995,224.98993435416668,228.7802571875,33.0,36.0
996,227.89517648333336,232.72178970833335,60.0,39.0
997,227.00606352083335,232.74598325833335,64.0,47.0
998,228.91533784166668,232.74799938750002,57.0,31.0
999,228.8649346125,234.04638657083333,52.0,43.0
1000,228.87098300000002,235.57662860833335,45.0,40.0
1001,236.09074154583334,236.71775771666668,54.0,55.0
1002,236.57461254583333,236.92945127916667,59.0,56.0
1003,235.60687054583335,237.40929002083334,47.0,92.0
1004,236.57461254583333,237.41735453750002,66.0,117.0
1005,237.05848354583335,237.82864488750002,54.0,53.0
1006,237.05848354583335,238.15122555416667,61.0,68.0
1007,237.54235454583335,238.28227395000002,62.0,68.0
1008,237.54235454583335,238.34477395416667,66.0,66.0
1009,237.54235454583335,238.6028384875,59.0,68.0
1010,238.02622554583334,238.67138687916668,54.0,56.0
1011,238.51009654583333,239.01614496666667,66.0,95.0
1012,237.54235454583335,239.04235464583334,47.0,69.0
1013,238.99396754583336,239.1854998166667,54.0,45.0
1014,238.99396754583336,239.49598370833334,59.0,78.0
1015,239.47783854583335,240.32259666666667,64.0,70.0
1016,239.47783854583335,240.32662892500002,61.0,70.0
1017,239.96170954583334,240.544370875,52.0,63.0
1018,240.44558054583334,240.97783864583334,61.0,85.0
1019,239.47783854583335,241.27420963333336,45.0,83.0
1020,240.92945154583333,241.7238064375,52.0,56.0
1021,240.44558054583334,242.1774355,64.0,85.0
1022,241.41332254583335,242.3185645416667,61.0,50.0
1023,240.92945154583333,242.43348390416668,57.0,47.0
1024,241.89719354583335,242.51009681250002,52.0,43.0
1025,241.41332254583335,242.7842903791667,45.0,79.0
1026,242.86493554583333,243.0000162,52.0,58.0
1027,242.38106454583334,243.26614525000002,64.0,97.0
1028,242.86493554583333,243.34880654583336,61.0,76.0
1029,243.83267754583335,244.41332274583334,55.0,49.0
1030,244.31654854583334,244.59679050000003,59.0,71.0
1031,243.83267754583335,244.66735502083336,50.0,60.0
1032,244.80041954583334,245.14517763333333,59.0,60.0
1033,244.31654854583334,245.16735505416668,62.0,92.0
1034,243.34880654583336,245.21775828333335,43.0,86.0
1035,244.80041954583334,245.4980002375,50.0,50.0
1036,245.28429054583336,246.08469382500002,59.0,76.0
1037,245.28429054583336,246.08872608333334,62.0,78.0
1038,245.28429054583336,246.326629325,55.0,44.0
1039,245.28429054583336,246.39114545833334,43.0,66.0
1040,246.25203254583334,246.55243579166668,59.0,89.0
1041,246.25203254583334,246.56251643750002,62.0,86.0
1042,247.21977454583333,248.12904880000002,61.0,92.0
1043,247.70364554583335,248.28832300416667,54.0,51.0
1044,248.18751654583335,248.83872626666667,66.0,58.0
1045,248.18751654583335,249.00404885833333,61.0,66.0
1046,247.21977454583333,249.01614563333334,42.0,93.0
1047,249.15525854583333,249.96775860000002,66.0,52.0
1048,249.15525854583333,250.0161457,61.0,63.0
1049,247.21977454583333,250.16130700000002,58.0,88.0
1050,249.15525854583333,250.59074251250001,42.0,74.0
1051,248.67138754583334,251.08872641666667,54.0,27.0
1052,250.12300054583335,251.13912964583335,66.0,60.0
1053,250.12300054583335,251.16130706666667,61.0,71.0
1054,252.38711360000002,252.54235554583335,50.0,93.0
1055,252.63308135833336,252.74598459166668,52.0,82.0
1056,252.858887825,252.92542008750002,54.0,97.0
1057,253.06856525833334,253.18751687916668,59.0,81.0
1058,253.31453301666667,253.44154915416667,62.0,95.0
1059,253.57259755,253.657274975,64.0,95.0
1060,253.85485563333336,253.9355008,66.0,107.0
1061,254.1975975916667,254.30848469583336,71.0,96.0
1062,254.6068718125,254.73388795000002,74.0,100.0
1063,255.08267829583335,255.1996137875,76.0,90.0
1064,255.56050090833335,255.62904930000002,78.0,93.0
1065,256.44961387083333,256.60888807500004,71.0,41.0
1066,256.50404935833336,256.66735582083334,59.0,33.0
1067,256.6633235625,256.73590421250003,71.0,66.0
1068,256.7439687291667,256.7923558291667,59.0,45.0
1069,256.80243647500004,256.850823575,71.0,48.0
1070,256.86896873750004,256.92743648333334,59.0,51.0
1071,256.94558164583333,256.9798558416667,71.0,42.0
1072,256.99195261666665,257.0645332666667,59.0,55.0
1073,257.0746139125,257.1290494,71.0,54.0
1074,257.13308165833337,257.19356553333336,59.0,59.0
1075,257.21171069583335,257.262113925,71.0,58.0
1076,257.27622682916666,257.3326784458333,59.0,71.0
1077,257.3367107041667,257.40324296666665,71.0,70.0
1078,257.419372,257.4677591,59.0,72.0
1079,257.47783974583336,257.54437200833337,71.0,69.0
1080,257.55445265416665,257.61695265833333,59.0,72.0
1081,257.6189687875,257.6935655666667,71.0,73.0
1082,257.68751717916666,257.75606557083336,59.0,66.0
1083,257.75404944166667,257.8286462208333,71.0,70.0
1084,257.8367107375,257.9173559041667,59.0,73.0
1085,257.90324300000003,257.9838881666667,71.0,59.0
1086,257.9576784875,258.05243655833334,59.0,52.0
1087,258.0463881708333,258.11695269166665,71.0,48.0
1088,258.12501720833336,258.1895333416667,59.0,45.0
1089,258.18751721250004,258.2621139916667,71.0,58.0
1090,258.26816237916665,258.33872690000004,59.0,42.0
1091,258.3286462541667,258.39719464583334,71.0,53.0
1092,258.40122690416666,258.4738075541667,59.0,38.0
1093,258.46372690833334,258.5423559458333,71.0,47.0
1094,258.53630755833336,258.62098498333336,59.0,39.0
1095,258.60283982083337,258.67945272916666,71.0,46.0
1096,258.67542047083333,258.75404950833337,59.0,39.0
1097,258.74800112083335,258.82058177083337,71.0,49.0
1098,258.81453338333336,258.89921080833335,59.0,42.0
1099,258.8891301625,258.9576785541667,71.0,55.0
1100,258.955662425,259.0423559791667,59.0,50.0
1101,259.0342914625,259.09880759583336,71.0,56.0
1102,259.09275920833335,259.1673559875,59.0,51.0
1103,259.1693721166667,259.2359043791667,71.0,66.0
1104,259.23792050833333,259.294372125,59.0,58.0
1105,259.3064689,259.3689689041667,71.0,79.0
1106,259.37703342083336,259.4334850375,59.0,77.0
1107,259.44356568333336,259.50203342916666,71.0,82.0
1108,259.5161463333333,259.56856569166666,59.0,81.0
1109,259.584694725,259.6411463416667,71.0,88.0
1110,259.66130763333337,259.7117108625,59.0,86.0
1111,259.72783989583337,259.78025925416665,71.0,85.0
1112,259.80042054583333,259.85485603333336,59.0,86.0
1113,259.87098506666666,259.9274366833333,71.0,85.0
1114,259.9455818458334,259.995985075,59.0,86.0
1115,260.00404959166667,260.0705818541667,71.0,95.0
1116,260.0947754041667,260.1471947625,59.0,88.0
1117,260.15122702083335,260.213727025,71.0,95.0
1118,260.2298560583333,260.2923560625,59.0,79.0
1119,260.30042057916665,260.3609044541667,71.0,89.0
1120,260.36896897083335,260.4395334916667,59.0,77.0
1121,260.45566252500004,260.5121141416667,71.0,86.0
1122,260.5221947875,260.5907431791667,59.0,72.0
1123,260.5967915666667,260.6613077,71.0,83.0
1124,260.6754206041667,260.7419528666667,59.0,73.0
1125,260.75001738333333,260.8145335166667,71.0,86.0
1126,260.82259803333335,260.891146425,59.0,70.0
1127,260.90122707083333,260.97179159166666,71.0,82.0
1128,260.9818722375,261.0484045,59.0,68.0
1129,261.06050127500004,261.12098515,71.0,76.0
1130,261.13106579583336,261.1955819291667,59.0,59.0
1131,261.20364644583333,261.27622709583335,71.0,72.0
1132,261.2721948375,261.3568722625,59.0,55.0
1133,261.3548561333333,261.423404525,71.0,67.0
1134,261.42542065416666,261.5040496916667,59.0,58.0
1135,261.51009807916665,261.5705819541667,71.0,66.0
1136,261.5705819541667,261.641146475,59.0,60.0
1137,261.65122712083337,261.7177593833334,71.0,73.0
1138,261.73590454583336,261.786307775,59.0,59.0
1139,261.80243680833337,261.8689690708334,71.0,74.0
1140,261.87501745833333,261.94558197916666,59.0,62.0
1141,261.96574327083334,262.03025940416666,71.0,75.0
1142,262.03429166250004,262.1109045708333,59.0,65.0
1143,262.12300134583336,262.17743683333333,71.0,63.0
1144,262.1794529625,262.2520336125,59.0,59.0
1145,262.25606587083337,262.33469490833335,71.0,66.0
1146,262.33267877916666,262.4032433,59.0,52.0
1147,262.40727555833337,262.48388846666666,71.0,64.0
1148,262.4939691125,262.5645336333333,59.0,52.0
1149,262.5625175041667,262.64114654166667,71.0,60.0
1150,262.6451788,262.72179170833334,59.0,45.0
1151,262.7157433208333,262.79235622916667,71.0,58.0
1152,262.778243325,262.87904978333336,59.0,44.0
1153,262.8689691375,262.94154978750004,71.0,51.0
1154,262.92743688333337,263.02622721250003,59.0,41.0
1155,263.020178825,263.0988078625,71.0,50.0
1156,263.07864657083337,263.1673562541667,59.0,39.0
1157,263.1492110916667,263.2338885166667,71.0,38.0
1158,263.2338885166667,263.30646916666666,59.0,37.0
1159,263.3044530375,263.383082075,71.0,45.0
1160,263.36896917083334,263.4637272416667,59.0,40.0
1161,263.4455820791667,263.528243375,71.0,38.0
1162,263.6028401541667,263.83469500833337,71.0,48.0
1163,251.62904903333336,267.1250178083333,42.0,66.0
1164,251.96775873333334,267.13711458333336,47.0,93.0
1165,263.52421111666666,267.2560662041667,59.0,40.0
1166,263.8830821083333,267.28832427083336,71.0,34.0
1167,251.03832318750003,267.302437175,35.0,97.0
