,start,end,pitch,velocity
0,56.95118696666666,57.19580148333333,53.0,74.0
1,57.162364966666665,57.34010644999999,55.0,71.0
2,57.37354296666666,57.69734923333333,60.0,93.0
3,57.79589896666666,58.07570981666666,60.0,86.0
4,58.21825496666666,58.469908749999995,60.0,107.0
5,58.640610966666664,58.84826933333333,58.0,88.0
6,58.85178896666666,58.99961356666666,60.0,89.0
7,59.27414496666666,59.518759483333326,60.0,96.0
8,59.69650096666666,59.86368355,55.0,71.0
9,59.90767896666666,60.20860761666666,62.0,93.0
10,60.33003496666666,60.62568416666666,60.0,90.0
11,60.75239096666666,61.452797999999994,58.0,86.0
12,64.13123896666666,64.3776133,60.0,92.0
13,64.55359496666667,64.6627036,60.0,79.0
14,64.76477296666665,64.87388159999999,60.0,82.0
15,64.97595096666666,65.18536915,60.0,75.0
16,65.39830696666667,65.49157724999999,58.0,95.0
17,65.60948496666666,65.85585929999999,58.0,85.0
18,66.03184096666666,66.24477878333333,60.0,86.0
19,66.45419696666666,66.59146266666666,53.0,73.0
20,66.66537496666666,66.91526893333332,62.0,86.0
21,67.08773096666665,67.32706603333332,60.0,92.0
22,67.29890896666666,67.48896916666666,58.0,70.0
23,67.51008696666666,68.0309927,55.0,89.0
24,70.88893496666667,71.03851938333332,60.0,83.0
25,71.31129096666666,71.45031648333332,60.0,79.0
26,71.73364696666665,71.87091266666665,60.0,88.0
27,72.15600296666666,72.27039105,58.0,89.0
28,72.36718096666667,72.49388776666666,60.0,88.0
29,72.78953696666666,72.94088119999999,60.0,92.0
30,73.42307096666666,73.63072933333332,65.0,95.0
31,73.63424896666666,73.83662788333332,63.0,64.0
32,73.84542696666666,74.07420313333333,62.0,75.0
33,74.26778296666666,74.60742758333333,62.0,92.0
34,74.69013896666667,74.93651329999999,58.0,95.0
35,75.11249496666666,75.29199626666666,58.0,96.0
36,75.32367296666666,75.52253225,60.0,85.0
37,75.74602896666666,76.33380773333333,58.0,90.0
38,77.64663096666666,77.89476511666666,60.0,77.0
39,78.06898696666666,78.22561065,60.0,77.0
40,78.49134296666666,78.62332921666666,60.0,88.0
41,78.91369896666666,79.01224869999999,58.0,82.0
42,79.12487696666666,79.28326046666666,58.0,69.0
43,79.54723296666666,79.76369041666666,60.0,86.0
44,80.18076696666667,80.353229,57.0,78.0
45,80.60312296666666,80.77558499999999,53.0,79.0
46,80.81430096666666,80.95860593333333,57.0,82.0
47,81.23665696666666,82.55651946666666,55.0,83.0
48,83.98197096666667,84.22658548333332,53.0,74.0
49,84.19314896666666,84.37089044999999,55.0,71.0
50,84.40432696666666,84.72813323333332,60.0,93.0
51,84.82668296666665,85.10649381666666,60.0,86.0
52,85.24903896666666,85.50069275,60.0,107.0
53,85.67139496666665,85.87905333333333,58.0,88.0
54,85.88257296666666,86.03039756666666,58.0,89.0
55,86.30492896666667,86.54954348333332,60.0,96.0
56,86.72728496666666,86.89446754999999,55.0,71.0
57,86.93846296666666,87.23939161666667,62.0,93.0
58,87.36081896666666,87.65646816666666,60.0,90.0
59,87.78317496666666,88.07882416666666,60.0,86.0
60,88.20553096666666,89.47259896666665,58.0,86.0
61,90.73966696666666,90.84173633333333,55.0,90.0
62,90.95084496666666,91.05995359999999,55.0,83.0
63,91.16202296666665,91.40839729999999,60.0,92.0
64,91.58437896666666,91.6934876,60.0,79.0
65,92.00673496666666,92.21615315,60.0,75.0
66,92.42909096666666,92.52236124999999,58.0,95.0
67,92.64026896666665,92.88664329999999,58.0,85.0
68,93.06262496666666,93.27556278333333,60.0,86.0
69,93.48498096666665,93.62224666666665,53.0,73.0
70,93.69615896666666,93.94605293333332,62.0,86.0
71,94.11851496666665,94.35785003333332,60.0,92.0
72,94.32969296666666,94.51975316666666,58.0,70.0
73,94.54087096666666,96.23029496666666,55.0,89.0
74,97.91971896666666,98.06930338333332,60.0,83.0
75,98.34207496666666,98.48110048333332,60.0,79.0
76,98.76443096666665,98.90169666666665,60.0,88.0
77,99.18678696666666,99.30117505,58.0,89.0
78,99.39796496666666,99.52467176666666,60.0,88.0
79,99.82032096666666,99.97166519999999,60.0,92.0
80,100.45385496666665,100.66151333333333,65.0,95.0
81,100.66503296666666,100.86741188333332,63.0,64.0
82,100.87621096666666,101.10498713333332,62.0,75.0
83,101.29856696666666,101.63821158333333,62.0,92.0
84,101.72092296666666,101.96729729999998,58.0,95.0
85,102.14327896666666,102.32278026666665,58.0,96.0
86,102.35445696666666,102.55331625,60.0,85.0
87,102.77681296666665,103.36459173333333,58.0,90.0
88,104.67741496666666,104.92554911666666,60.0,77.0
89,105.09977096666665,105.25639464999999,60.0,77.0
90,105.52212696666666,105.65411321666666,60.0,88.0
91,105.94448296666665,106.0430327,58.0,82.0
92,106.15566096666666,106.31404446666666,58.0,69.0
93,106.57801696666665,106.79447441666666,60.0,86.0
94,107.21155096666666,107.384013,57.0,78.0
95,107.63390696666666,107.80636899999999,53.0,79.0
96,107.84508496666666,107.98938993333333,57.0,82.0
97,108.26744096666665,109.58730346666665,55.0,83.0
98,110.59039896666665,110.86141073333333,58.0,107.0
99,111.01275496666666,111.28552654999999,65.0,112.0
100,111.43511096666666,112.69162006666666,65.0,107.0
101,112.70217896666665,112.90455788333333,63.0,117.0
102,112.91335696666665,113.12629478333332,62.0,72.0
103,113.12453496666666,113.82142236666665,60.0,100.0
104,113.96924696666666,114.05547798333332,60.0,95.0
105,114.18042496666666,114.26665598333332,60.0,88.0
106,114.39160296666665,114.5112705,60.0,88.0
107,114.60278096666666,114.8280375,58.0,100.0
108,114.81395896666666,115.04625476666666,62.0,100.0
109,115.23631496666665,115.45277241666666,62.0,122.0
110,115.65867096666666,115.7677796,58.0,96.0
111,115.86984896666665,116.09686531666665,60.0,89.0
112,116.29220496666666,116.6547272,58.0,102.0
113,117.34809496666665,117.58918985,58.0,102.0
114,117.77045096666666,117.97634951666666,65.0,97.0
115,118.19280696666665,119.10615181666665,65.0,112.0
116,119.45987496666666,119.67809223333332,63.0,122.0
117,119.67105296666665,119.87871133333333,62.0,71.0
118,119.88223096666665,120.4348134,60.0,97.0
119,120.72694296666666,120.82549269999998,60.0,92.0
120,120.93812096666666,121.02435198333332,60.0,79.0
121,121.14929896666666,121.29536374999999,60.0,82.0
122,121.36047696666665,121.48366413333332,58.0,86.0
123,121.57165496666666,121.76875443333333,60.0,95.0
124,121.99401096666665,123.08861693333333,58.0,102.0
125,124.10579096666666,124.36096438333333,58.0,100.0
126,124.52814696666665,124.71292771666666,65.0,107.0
127,124.95050296666666,125.92192176666666,65.0,112.0
128,126.21757096666666,126.45514621666666,63.0,122.0
129,126.42874896666666,126.64872605,62.0,82.0
130,126.63992696666665,127.20482811666666,60.0,96.0
131,127.48463896666665,127.57086998333332,60.0,93.0
132,127.69581696666665,127.78556761666665,60.0,92.0
133,127.90699496666666,128.0724177333333,60.0,92.0
134,128.11817296666666,128.3539884,58.0,77.0
135,128.32935096666665,128.50005318333334,62.0,100.0
136,128.75170696666666,129.21629856666667,62.0,97.0
137,129.17406296666667,129.48027106666666,63.0,107.0
138,129.59641896666665,129.70024815,62.0,92.0
139,129.80759696666667,130.11556488333332,60.0,96.0
140,130.22995296666664,130.65406878333332,58.0,83.0
141,130.86348696666664,131.06410606666665,58.0,99.0
142,131.28584296666665,131.4899817,62.0,93.0
143,131.70819896666666,132.3346937,62.0,97.0
144,132.97526696666665,133.12661119999999,65.0,79.0
145,133.18644496666664,133.33426956666665,63.0,97.0
146,133.39762296666666,133.6862329,60.0,85.0
147,133.81997896666667,134.24761441666666,60.0,90.0
148,134.45351296666666,134.70516675,57.0,96.0
149,134.87586896666664,135.0166543,58.0,83.0
150,135.08704696666666,135.41613268333333,60.0,95.0
151,135.50940296666664,136.32771771666665,58.0,75.0
152,137.62118296666665,137.89571436666665,58.0,96.0
153,138.04353896666666,138.44301735,62.0,100.0
154,138.46589496666667,140.32426136666666,57.0,112.0
155,141.00003096666666,141.19889024999998,57.0,92.0
156,141.21120896666665,141.58604991666667,58.0,92.0
157,141.84474296666664,142.2582998833333,60.0,95.0
158,142.26709896666665,144.04979325,58.0,70.0
159,144.37887896666666,144.6762879833333,58.0,117.0
160,144.80123496666664,145.1215216,62.0,96.0
161,145.22359096666665,146.4343448333333,57.0,96.0
162,147.54654896666665,147.65565759999998,57.0,82.0
163,147.75772696666667,147.98474331666665,57.0,90.0
164,148.18008296666665,148.3032701333333,53.0,82.0
165,148.39126096666666,148.63235584999998,57.0,86.0
166,148.81361696666664,151.14713386666665,55.0,86.0
167,179.01207096666664,179.10182161666665,60.0,89.0
168,179.22324896666666,179.30947998333332,60.0,85.0
169,179.43442696666665,179.55233468333333,60.0,92.0
170,179.64560496666664,179.73007616666666,58.0,92.0
171,179.85678296666666,180.0609217,60.0,96.0
172,180.27913896666666,180.39528686666665,58.0,97.0
173,180.49031696666665,180.69621551666665,60.0,93.0
174,180.91267296666666,181.18720436666666,60.0,95.0
175,181.54620696666666,181.80841965,62.0,95.0
176,181.96856296666664,182.22197656666665,60.0,95.0
177,182.39091896666665,183.26378803333333,58.0,92.0
178,185.34741096666664,185.4442008833333,55.0,89.0
179,185.55858896666666,185.73281081666664,55.0,75.0
180,185.76976696666665,186.02318056666664,60.0,93.0
181,186.19212296666666,186.41737949999998,60.0,88.0
182,186.61447896666664,186.79222044999997,60.0,100.0
183,187.03683496666665,187.12658561666666,58.0,96.0
184,187.24801296666666,187.53134344999998,58.0,88.0
185,187.67036896666664,187.96777798333332,60.0,97.0
186,188.09272496666665,188.2211915833333,53.0,86.0
187,188.30390296666664,188.59427271666664,62.0,95.0
188,188.72625896666665,188.89344154999998,60.0,93.0
189,188.93743696666664,189.13277661666666,58.0,92.0
190,189.14861496666666,191.16360504999997,55.0,90.0
191,192.52746296666666,192.77735693333332,60.0,89.0
192,192.94981896666664,193.08708466666664,60.0,88.0
193,193.37217496666665,193.53583791666665,60.0,93.0
194,193.79453096666666,193.96699299999997,58.0,97.0
195,194.00570896666665,194.20456825,60.0,90.0
196,194.42806496666665,194.67795893333331,60.0,99.0
197,195.06159896666665,195.24110026666665,65.0,85.0
198,195.27277696666664,195.50859239999997,63.0,81.0
199,195.48395496666666,195.77432471666665,62.0,93.0
200,195.90631096666664,196.1421264,62.0,96.0
201,196.32866696666665,196.55040386666664,58.0,96.0
202,196.75102296666665,197.0061963833333,58.0,107.0
203,196.96220096666664,197.23145291666665,60.0,93.0
204,197.38455696666665,198.13247904999997,58.0,90.0
205,199.28515896666664,199.54209219999998,60.0,92.0
206,199.70751496666665,199.95212948333332,60.0,86.0
207,200.12987096666666,200.33752933333332,60.0,90.0
208,200.55222696666664,200.66133559999997,58.0,95.0
209,200.76340496666666,201.05025508333333,58.0,90.0
210,201.18576096666666,201.46733163333332,60.0,89.0
211,201.81929496666666,202.16597885,57.0,95.0
212,202.24165096666664,202.41235318333332,53.0,83.0
213,202.45282896666666,202.70272293333332,57.0,92.0
214,202.87518496666664,205.07143616666664,55.0,92.0
215,205.19814296666664,205.4691547333333,58.0,107.0
216,205.62049896666664,205.89327054999998,65.0,112.0
217,206.04285496666665,207.29936406666664,65.0,107.0
218,207.30992296666665,207.51230188333332,63.0,117.0
219,207.52110096666664,207.73403878333332,62.0,72.0
220,207.73227896666666,208.42916636666664,60.0,100.0
221,208.57699096666664,208.66322198333333,60.0,95.0
222,208.78816896666666,208.87439998333332,60.0,88.0
223,208.99934696666665,209.1190145,60.0,88.0
224,209.21052496666664,209.4357815,58.0,100.0
225,209.42170296666666,209.65399876666666,62.0,100.0
226,209.84405896666664,210.06051641666664,62.0,122.0
227,210.26641496666664,210.37552359999998,58.0,96.0
228,210.47759296666666,210.70460931666665,60.0,89.0
229,210.89994896666664,211.2624712,58.0,102.0
230,211.95583896666665,212.19693385,58.0,102.0
231,212.37819496666665,212.58409351666666,65.0,97.0
232,212.80055096666666,213.71389581666665,65.0,112.0
233,214.06761896666666,214.28583623333333,63.0,122.0
234,214.27879696666665,214.4864553333333,62.0,71.0
235,214.48997496666664,215.0425574,60.0,97.0
236,215.33468696666665,215.43323669999998,60.0,92.0
237,215.54586496666664,215.63209598333333,60.0,79.0
238,215.75704296666666,215.90310774999998,60.0,82.0
239,215.96822096666665,216.09140813333332,58.0,86.0
240,216.17939896666664,216.37649843333332,60.0,95.0
241,216.60175496666665,217.69636093333332,58.0,102.0
242,218.71353496666666,218.9687083833333,58.0,100.0
243,219.13589096666664,219.32067171666665,65.0,107.0
244,219.55824696666664,220.52966576666665,65.0,112.0
245,220.82531496666664,221.06289021666666,63.0,122.0
246,221.03649296666666,221.25647005,62.0,82.0
247,221.24767096666665,221.81257211666664,60.0,96.0
248,222.09238296666663,222.17861398333332,60.0,93.0
249,222.30356096666665,222.39331161666664,60.0,92.0
250,222.51473896666664,222.6801617333333,60.0,92.0
251,222.72591696666666,222.9617324,58.0,77.0
252,222.93709496666665,223.1077971833333,62.0,100.0
253,223.35945096666666,223.82404256666663,62.0,97.0
254,223.78180696666664,224.08801506666666,63.0,107.0
255,224.20416296666664,224.30799215,62.0,92.0
256,224.41534096666663,224.72330888333332,60.0,96.0
257,224.83769696666664,225.2618127833333,58.0,83.0
258,225.47123096666664,225.67185006666665,58.0,99.0
259,225.89358696666665,226.09772569999998,62.0,93.0
260,226.31594296666665,226.94243769999997,62.0,97.0
261,227.58301096666665,227.73435519999998,65.0,79.0
262,227.79418896666664,227.94201356666665,63.0,97.0
263,228.00536696666666,228.2939769,60.0,85.0
264,228.42772296666664,228.85535841666666,60.0,90.0
265,229.06125696666663,229.31291075,57.0,96.0
266,229.48361296666664,229.62439829999997,58.0,83.0
267,229.69479096666666,230.02387668333333,60.0,95.0
268,230.11714696666664,230.93546171666665,58.0,75.0
269,232.22892696666665,232.50345836666665,58.0,96.0
270,232.65128296666666,233.05076135,62.0,100.0
271,233.07363896666664,234.93200536666666,57.0,112.0
272,235.60777496666665,235.80663424999997,57.0,92.0
273,235.81895296666664,236.19379391666664,58.0,92.0
274,236.45248696666664,236.8660438833333,60.0,95.0
275,236.87484296666665,238.65753725,58.0,70.0
276,238.98662296666666,239.2840319833333,58.0,117.0
277,239.40897896666664,239.7292656,62.0,96.0
278,239.83133496666665,241.0420888333333,57.0,96.0
279,242.15429296666665,242.26340159999998,57.0,82.0
280,242.36547096666663,242.59248731666665,57.0,90.0
281,242.78782696666664,242.9110141333333,53.0,82.0
282,242.99900496666663,243.24009984999998,57.0,86.0
283,243.42136096666664,245.75487786666665,55.0,86.0
284,245.74431896666664,246.01533073333331,58.0,107.0
285,246.16667496666665,246.43944654999999,65.0,112.0
286,246.58903096666666,247.84554006666664,65.0,107.0
287,247.85609896666665,248.05847788333332,63.0,117.0
288,248.06727696666664,248.28021478333332,62.0,72.0
289,248.27845496666666,248.97534236666664,60.0,100.0
290,249.12316696666664,249.2093979833333,60.0,95.0
291,249.33434496666663,249.42057598333332,60.0,88.0
292,249.54552296666665,249.66519049999997,60.0,88.0
293,249.75670096666664,249.9819575,58.0,100.0
294,249.96787896666663,250.20017476666663,62.0,100.0
295,250.39023496666664,250.60669241666665,62.0,122.0
296,250.81259096666665,250.92169959999998,58.0,96.0
297,251.02376896666664,251.25078531666665,60.0,89.0
298,251.44612496666664,251.80864719999997,58.0,102.0
299,252.50201496666665,252.74310984999997,58.0,102.0
300,252.92437096666666,253.13026951666666,65.0,97.0
301,253.34672696666664,254.26007181666665,65.0,112.0
302,254.61379496666663,254.8320122333333,63.0,122.0
303,254.82497296666665,255.0326313333333,62.0,71.0
304,255.03615096666664,255.58873339999997,60.0,97.0
305,255.88086296666665,255.97941269999998,60.0,92.0
306,256.0920409666667,256.17827198333333,60.0,79.0
307,256.30321896666663,256.44928375,60.0,82.0
308,256.51439696666665,256.6375841333333,58.0,86.0
309,256.72557496666667,256.9226744333333,60.0,95.0
310,257.14793096666665,258.2425369333333,58.0,102.0
311,259.25971096666666,259.5148843833333,58.0,100.0
312,259.68206696666664,259.86684771666665,65.0,107.0
313,260.1044229666666,261.07584176666666,65.0,112.0
314,261.37149096666667,261.60906621666663,63.0,122.0
315,261.58266896666663,261.80264604999996,62.0,82.0
316,261.79384696666665,262.3587481166666,60.0,96.0
317,262.63855896666666,262.7247899833333,60.0,93.0
318,262.8497369666666,262.93948761666667,60.0,92.0
319,263.06091496666664,263.2263377333333,60.0,92.0
320,263.27209296666666,263.50790839999996,58.0,77.0
321,263.4832709666666,263.65397318333333,62.0,100.0
322,263.90562696666666,264.37021856666667,62.0,97.0
323,264.32798296666664,264.63419106666663,63.0,107.0
324,264.7503389666666,264.85416814999996,62.0,92.0
325,264.96151696666664,265.2694848833333,60.0,96.0
326,265.3838729666667,265.8079887833333,58.0,83.0
327,266.01740696666667,266.21802606666665,58.0,99.0
328,266.43976296666665,266.64390169999996,62.0,93.0
329,266.8621189666666,267.4886137,62.0,97.0
330,268.1291869666666,268.2805312,65.0,79.0
331,268.34036496666664,268.4881895666666,63.0,97.0
332,268.55154296666666,268.84015289999996,60.0,85.0
333,268.97389896666664,269.40153441666666,60.0,90.0
334,269.60743296666664,269.85908674999996,57.0,96.0
335,270.0297889666667,270.1705743,58.0,83.0
336,270.24096696666663,270.5700526833333,60.0,95.0
337,270.66332296666667,271.4816377166666,58.0,75.0
338,272.7751029666666,273.0496343666666,58.0,96.0
339,273.19745896666666,273.59693734999996,62.0,100.0
340,273.61981496666664,275.47818136666666,57.0,112.0
341,276.1539509666666,276.35281025,57.0,92.0
342,276.36512896666665,276.73996991666667,58.0,92.0
343,276.99866296666664,277.4122198833333,60.0,95.0
344,277.4210189666666,279.20371324999996,58.0,70.0
345,279.53279896666663,279.8302079833333,58.0,117.0
346,279.95515496666667,280.27544159999997,62.0,96.0
347,280.37751096666665,281.5882648333333,57.0,96.0
348,282.7004689666666,282.80957759999995,57.0,82.0
349,282.91164696666664,283.1386633166666,57.0,90.0
350,283.3340029666666,283.4571901333333,53.0,82.0
351,283.54518096666663,283.78627585,57.0,86.0
352,283.9675369666666,286.3010538666666,55.0,86.0
