,start,end,pitch,velocity
0,3.5231529666666663,3.808243266666666,58.0,66.0
1,3.734330966666666,4.010622183333333,55.0,62.0
2,3.9455089666666665,4.2763545,50.0,48.0
3,4.156686966666666,4.508650299999999,58.0,75.0
4,4.367864966666667,4.6423963666666666,55.0,59.0
5,4.579042966666666,4.888770699999999,50.0,49.0
6,4.790220966666666,5.179140449999999,58.0,72.0
7,5.001398966666666,5.244253666666666,55.0,59.0
8,5.212576966666666,5.5011868999999995,50.0,52.0
9,3.3119749666666665,5.698286366666666,43.0,64.0
10,5.4237549666666665,5.777478116666666,58.0,76.0
11,5.634932966666666,5.8918662,55.0,51.0
12,5.846110966666666,6.178716316666666,50.0,62.0
13,6.0572889666666665,6.4743655166666665,58.0,72.0
14,6.268466966666666,6.572915249999999,55.0,60.0
15,6.479644966666666,6.592273233333333,50.0,63.0
16,6.6908229666666665,7.202929616666666,48.0,72.0
17,6.902000966666666,7.245165216666666,60.0,70.0
18,7.113178966666666,7.405308533333333,55.0,72.0
19,7.324356966666666,7.795987833333332,48.0,65.0
20,7.535534966666666,7.825904716666666,60.0,81.0
21,7.746712966666666,8.003646199999999,55.0,61.0
22,7.957890966666666,8.41016385,48.0,73.0
23,8.169068966666666,8.48407615,60.0,66.0
24,8.380246966666666,8.628381116666667,55.0,58.0
25,8.591424966666667,9.008501516666666,48.0,68.0
26,8.802602966666665,9.0700951,60.0,72.0
27,9.013780966666666,9.293591816666666,55.0,67.0
28,9.436136966666666,9.598040099999999,60.0,52.0
29,9.224958966666666,9.670192583333332,48.0,75.0
30,9.647314966666666,9.986959583333332,55.0,77.0
31,9.858492966666665,10.050312983333333,60.0,76.0
32,10.280848966666666,10.472668983333332,58.0,75.0
33,10.069670966666665,10.514904583333333,51.0,82.0
34,10.492026966666666,10.755999466666665,55.0,69.0
35,10.703204966666666,11.095644083333333,51.0,76.0
36,10.914382966666667,11.143159133333333,58.0,71.0
37,11.125560966666665,11.363136216666666,55.0,53.0
38,11.547916966666666,11.766134233333332,58.0,79.0
39,11.336738966666665,11.771413683333332,51.0,70.0
40,11.759094966666666,11.996670216666665,55.0,58.0
41,11.970272966666666,12.380310249999999,51.0,81.0
42,12.181450966666665,12.478859983333333,58.0,81.0
43,12.392628966666665,12.621405133333333,55.0,57.0
44,12.603806966666665,13.034962049999999,51.0,72.0
45,12.814984966666666,13.070158383333332,58.0,88.0
46,13.026162966666666,13.32005235,55.0,69.0
47,13.237340966666666,13.38340575,58.0,89.0
48,13.448518966666665,13.951826533333332,48.0,72.0
49,13.659696966666665,13.955346166666665,60.0,69.0
50,13.870874966666666,14.147166183333333,55.0,74.0
51,14.082052966666666,14.557203466666666,48.0,68.0
52,14.293230966666666,14.5818409,60.0,81.0
53,14.504408966666665,14.740224399999999,55.0,65.0
54,14.715586966666665,15.192497283333331,48.0,72.0
55,14.926764966666665,15.192497283333331,60.0,88.0
56,15.137942966666666,15.393116383333332,55.0,63.0
57,15.349120966666666,15.799634033333332,48.0,69.0
58,15.560298966666666,15.850668716666664,60.0,85.0
59,15.771476966666665,16.026650383333333,55.0,58.0
60,15.982654966666665,16.366294999999997,48.0,69.0
61,16.193832966666665,16.405010966666666,60.0,83.0
62,16.405010966666666,16.705939616666665,55.0,73.0
63,16.616188966666666,16.78689118333333,60.0,81.0
64,17.038544966666667,17.379949399999997,58.0,73.0
65,17.249722966666667,17.42746445,55.0,70.0
66,17.460900966666664,17.767109066666666,50.0,56.0
67,17.672078966666664,18.092675149999998,58.0,96.0
68,17.883256966666664,18.13491075,55.0,59.0
69,18.094434966666665,18.427040316666666,50.0,41.0
70,18.305612966666665,18.634698683333333,58.0,93.0
71,18.516790966666665,18.75612603333333,55.0,61.0
72,18.727968966666666,19.039456516666664,50.0,53.0
73,18.939146966666666,19.259433599999998,58.0,88.0
74,19.150324966666666,19.361502966666666,55.0,59.0
75,19.361502966666666,19.63779418333333,50.0,61.0
76,19.572680966666663,19.91760503333333,58.0,93.0
77,16.827366966666666,20.031993116666666,43.0,69.0
78,19.783858966666664,20.12878303333333,55.0,56.0
79,19.995036966666664,20.163979366666666,50.0,68.0
80,20.206214966666664,20.718321616666664,48.0,72.0
81,20.417392966666664,20.760557216666665,60.0,70.0
82,20.628570966666665,20.92070053333333,55.0,72.0
83,20.839748966666665,21.31137983333333,48.0,65.0
84,21.050926966666665,21.341296716666665,60.0,81.0
85,21.262104966666666,21.519038199999997,55.0,61.0
86,21.473282966666666,21.92555585,48.0,73.0
87,21.684460966666666,21.99946815,60.0,66.0
88,21.895638966666663,22.143773116666665,55.0,58.0
89,22.106816966666663,22.523893516666664,48.0,68.0
90,22.317994966666664,22.585487099999998,60.0,72.0
91,22.529172966666664,22.808983816666665,55.0,67.0
92,22.951528966666665,23.113432099999997,60.0,52.0
93,22.740350966666664,23.18558458333333,48.0,75.0
94,23.162706966666665,23.502351583333333,55.0,77.0
95,23.373884966666665,23.56570498333333,60.0,76.0
96,23.796240966666666,23.98806098333333,58.0,75.0
97,23.585062966666666,24.03029658333333,51.0,82.0
98,24.007418966666666,24.271391466666664,55.0,69.0
99,24.218596966666663,24.61103608333333,51.0,76.0
100,24.429774966666663,24.658551133333333,58.0,71.0
101,24.640952966666664,24.878528216666666,55.0,53.0
102,25.063308966666664,25.28152623333333,58.0,79.0
103,24.852130966666664,25.28680568333333,51.0,70.0
104,25.274486966666665,25.512062216666664,55.0,58.0
105,25.485664966666665,25.89570225,51.0,81.0
106,25.696842966666665,25.99425198333333,58.0,81.0
107,25.908020966666665,26.13679713333333,55.0,57.0
108,26.119198966666666,26.55035405,51.0,72.0
109,26.330376966666666,26.58555038333333,58.0,88.0
110,26.541554966666663,26.835444349999996,55.0,69.0
111,26.752732966666663,26.898797749999996,58.0,89.0
112,26.963910966666663,27.476017616666663,48.0,72.0
113,27.175088966666664,27.518253216666665,60.0,70.0
114,27.386266966666664,27.67839653333333,55.0,72.0
115,27.597444966666664,28.06907583333333,48.0,65.0
116,27.808622966666665,28.098992716666665,60.0,81.0
117,28.019800966666665,28.276734199999996,55.0,61.0
118,28.230978966666665,28.683251849999998,48.0,73.0
119,28.442156966666666,28.757164149999998,60.0,66.0
120,28.653334966666666,28.901469116666664,55.0,58.0
121,28.864512966666663,29.281589516666664,48.0,68.0
122,29.075690966666663,29.343183099999997,60.0,72.0
123,29.286868966666663,29.566679816666664,55.0,67.0
124,29.709224966666664,29.871128099999996,60.0,52.0
125,29.498046966666664,29.94328058333333,48.0,75.0
126,29.920402966666664,30.260047583333332,55.0,77.0
127,30.131580966666665,30.323400983333332,60.0,76.0
128,30.342758966666665,30.696482116666665,67.0,82.0
129,30.342758966666665,30.747516799999996,70.0,90.0
130,30.342758966666665,30.759835516666666,63.0,93.0
131,31.187470966666663,31.28954033333333,67.0,79.0
132,31.187470966666663,31.322976849999996,70.0,73.0
133,31.187470966666663,31.328256299999996,63.0,90.0
134,30.765114966666665,31.381050799999997,51.0,82.0
135,31.821004966666663,31.894917266666663,67.0,89.0
136,31.821004966666663,31.903716349999996,63.0,90.0
137,31.821004966666663,31.910755616666663,70.0,85.0
138,31.609826966666663,32.301434916666665,51.0,90.0
139,32.243360966666664,32.322552716666664,67.0,92.0
140,32.243360966666664,32.348949966666666,63.0,89.0
141,32.243360966666664,32.35070978333333,70.0,86.0
142,32.665716966666665,32.903292216666664,51.0,69.0
143,32.87689496666666,32.998322316666666,67.0,96.0
144,32.87689496666666,33.029999016666665,70.0,88.0
145,32.87689496666666,33.049357,63.0,85.0
146,30.342758966666665,33.11798985,39.0,102.0
147,33.088072966666665,33.244696649999995,51.0,88.0
148,33.29925096666666,33.3766829,63.0,92.0
149,33.72160696666666,34.1369237,65.0,78.0
150,33.72160696666666,34.15276205,62.0,83.0
151,33.72160696666666,34.15628168333333,58.0,97.0
152,34.35514096666667,34.45721033333333,58.0,62.0
153,34.566318966666664,34.680707049999995,62.0,92.0
154,34.566318966666664,34.682466866666665,58.0,117.0
155,34.566318966666664,34.68950613333333,65.0,78.0
156,34.14396296666666,34.73174173333333,53.0,35.0
157,35.19985296666666,35.27904471666666,62.0,81.0
158,35.19985296666666,35.28608398333333,65.0,71.0
159,35.19985296666666,35.2984027,58.0,107.0
160,35.62220896666666,35.70316053333333,65.0,62.0
161,35.62220896666666,35.717239066666664,62.0,77.0
162,35.62220896666666,35.71899888333333,58.0,95.0
163,34.988674966666665,35.73659705,53.0,66.0
164,36.04456496666666,36.28917948333333,53.0,72.0
165,36.255742966666666,36.28917948333333,53.0,93.0
166,36.255742966666666,36.401807749999996,62.0,83.0
167,36.255742966666666,36.45284243333333,65.0,72.0
168,36.255742966666666,36.4598817,58.0,107.0
169,33.72160696666666,36.470440599999996,46.0,93.0
170,34.988674966666665,36.47572005,50.0,38.0
171,36.67809896666667,36.73265328333333,65.0,64.0
172,36.67809896666667,36.739692549999994,62.0,73.0
173,36.67809896666667,36.78016833333333,58.0,127.0
174,36.889276966666664,36.994865966666666,62.0,85.0
175,36.889276966666664,37.00014541666666,58.0,107.0
176,36.889276966666664,37.014223949999995,65.0,82.0
177,37.94516696666666,38.108829916666664,65.0,96.0
178,37.733988966666665,38.11058973333333,53.0,85.0
179,37.94516696666666,38.15106551666666,60.0,95.0
180,37.94516696666666,38.17922258333333,69.0,92.0
181,38.578700966666666,38.657892716666666,65.0,92.0
182,38.578700966666666,38.66317216666666,60.0,89.0
183,38.578700966666666,38.668451616666665,69.0,82.0
184,39.00105696666667,39.078488899999996,65.0,92.0
185,39.00105696666667,39.09784688333333,69.0,86.0
186,39.00105696666667,39.10312633333333,60.0,83.0
187,38.36752296666666,39.131283399999994,53.0,93.0
188,39.42341296666666,39.70674345,53.0,96.0
189,39.634590966666664,39.85456805,65.0,97.0
190,39.634590966666664,39.85632786666666,69.0,93.0
191,37.10045496666666,40.08334421666666,41.0,83.0
192,39.84576896666666,40.09038348333333,53.0,95.0
193,37.52281096666666,40.125579816666665,48.0,56.0
194,40.056946966666665,40.40187103333333,69.0,96.0
195,40.056946966666665,40.4722637,65.0,99.0
196,40.26812496666666,40.477543149999995,60.0,90.0
197,41.11283696666666,41.2008278,67.0,88.0
198,41.11283696666666,41.207867066666665,62.0,77.0
199,41.11283696666666,41.216666149999995,70.0,99.0
200,41.32401496666666,41.43136378333333,67.0,107.0
201,41.32401496666666,41.44192268333333,70.0,117.0
202,41.32401496666666,41.44720213333333,62.0,96.0
203,40.901658966666666,41.456001216666664,55.0,93.0
204,41.957548966666664,42.04026035,70.0,93.0
205,41.957548966666664,42.04202016666666,67.0,88.0
206,41.957548966666664,42.04377998333333,62.0,83.0
207,42.379904966666665,42.457336899999994,62.0,85.0
208,42.379904966666665,42.457336899999994,70.0,99.0
209,42.379904966666665,42.46085653333333,67.0,97.0
210,41.74637096666666,42.5206903,55.0,95.0
211,42.802260966666665,43.006399699999996,55.0,73.0
212,40.69048096666666,43.06447365,50.0,90.0
213,43.01343896666666,43.06447365,50.0,34.0
214,43.01343896666666,43.19118045,67.0,100.0
215,43.01343896666666,43.2175777,70.0,122.0
216,43.224616966666666,43.291489999999996,55.0,93.0
217,40.479302966666665,43.30732835,43.0,90.0
218,43.43579496666666,43.61353645,67.0,112.0
219,43.43579496666666,43.63289443333333,70.0,122.0
220,43.64697296666666,43.7983172,62.0,95.0
221,44.49168496666666,44.613112316666665,63.0,77.0
222,44.702862966666665,44.75213783333333,67.0,95.0
223,44.702862966666665,44.76621636666666,70.0,95.0
224,44.280506966666664,44.77677526666666,51.0,99.0
225,44.702862966666665,44.782054716666664,63.0,112.0
226,45.33639696666666,45.39095128333333,67.0,100.0
227,45.33639696666666,45.3927111,70.0,93.0
228,45.33639696666666,45.41558871666666,63.0,100.0
229,45.75875296666666,45.80978765,70.0,95.0
230,45.75875296666666,45.81506709999999,67.0,100.0
231,45.75875296666666,45.83794471666666,63.0,95.0
232,45.125218966666665,45.980489866666666,51.0,85.0
233,44.06932896666666,46.226864199999994,46.0,52.0
234,43.85815096666666,46.26733998333333,39.0,85.0
235,46.18110896666666,46.39580659999999,51.0,93.0
236,46.39228696666666,46.46091981666666,70.0,100.0
237,46.39228696666666,46.47499834999999,67.0,107.0
238,46.81464296666666,46.91495251666666,67.0,107.0
239,46.81464296666666,46.936070316666665,70.0,107.0
240,47.025820966666664,47.129650149999996,63.0,99.0
241,47.870532966666666,47.93212654999999,65.0,89.0
242,47.870532966666666,47.939165816666666,70.0,97.0
243,47.870532966666666,47.94268545,62.0,78.0
244,48.08171096666666,48.12570638333333,62.0,73.0
245,48.08171096666666,48.1591429,65.0,97.0
246,47.65935496666666,48.16266253333333,58.0,96.0
247,48.08171096666666,48.1697018,70.0,117.0
248,48.71524496666666,48.776838549999994,65.0,86.0
249,48.71524496666666,48.7926769,62.0,79.0
250,48.71524496666666,48.79795634999999,70.0,95.0
251,49.13760096666666,49.21327308333333,65.0,81.0
252,49.13760096666666,49.21855253333333,70.0,90.0
253,49.13760096666666,49.236150699999996,62.0,74.0
254,48.50406696666666,49.278386299999994,58.0,92.0
255,49.55995696666666,49.85560616666666,58.0,86.0
256,49.771134966666665,49.91543993333333,65.0,90.0
257,47.025820966666664,49.94183718333333,46.0,95.0
258,49.771134966666665,49.985832599999995,70.0,100.0
259,47.448176966666665,50.075583249999994,53.0,67.0
260,49.98231296666666,50.09318141666666,58.0,97.0
261,50.193490966666666,50.350114649999995,65.0,93.0
262,50.193490966666666,50.38179134999999,70.0,112.0
263,50.40466896666666,50.51729723333333,62.0,81.0
264,51.46055896666666,51.5379909,65.0,97.0
265,51.46055896666666,51.55206943333333,60.0,95.0
266,51.46055896666666,51.557348883333326,69.0,86.0
267,51.24938096666666,51.590785399999994,53.0,70.0
268,52.094092966666665,52.16976508333333,65.0,81.0
269,52.094092966666665,52.17504453333333,69.0,70.0
270,52.094092966666665,52.183843616666664,60.0,81.0
271,52.516448966666665,52.57980236666666,65.0,74.0
272,52.516448966666665,52.60267998333333,60.0,76.0
273,52.516448966666665,52.606199616666665,69.0,73.0
274,51.88291496666666,52.65547448333333,53.0,75.0
275,52.93880496666666,53.1218259,53.0,58.0
276,53.14998296666666,53.25205233333333,53.0,78.0
277,53.14998296666666,53.26789068333333,65.0,92.0
278,53.14998296666666,53.27317013333333,60.0,74.0
279,53.14998296666666,53.290768299999996,69.0,85.0
280,51.03820296666666,53.35588151666666,48.0,61.0
281,50.61584696666666,53.40515638333333,41.0,85.0
282,53.57233896666666,53.62337365,65.0,70.0
283,53.57233896666666,53.62337365,69.0,47.0
284,53.57233896666666,53.697285949999994,60.0,89.0
285,53.994694966666664,54.337859216666665,67.0,41.0
286,53.994694966666664,54.43288931666666,63.0,58.0
287,53.994694966666664,54.46808564999999,58.0,92.0
288,54.417050966666665,54.90979963333333,46.0,27.0
289,54.839406966666665,54.94499596666666,67.0,59.0
290,54.839406966666665,54.974912849999996,63.0,96.0
291,54.839406966666665,54.98899138333333,58.0,90.0
292,54.417050966666665,55.00306991666666,51.0,35.0
293,53.994694966666664,55.16849268333333,39.0,82.0
294,55.26176296666666,57.29083158333333,46.0,42.0
295,55.26176296666666,57.32602791666666,51.0,68.0
296,55.47294096666666,57.35066534999999,58.0,90.0
297,55.26176296666666,57.354184983333326,39.0,61.0
298,55.47294096666666,57.35946443333333,63.0,81.0
299,55.47294096666666,57.36122424999999,67.0,64.0
300,57.37354296666666,57.764222266666664,69.0,56.0
301,57.37354296666666,57.78358024999999,65.0,64.0
302,57.37354296666666,57.788859699999996,60.0,68.0
303,58.21825496666666,58.30448598333333,60.0,73.0
304,58.21825496666666,58.30448598333333,65.0,81.0
305,58.21825496666666,58.30800561666666,69.0,69.0
306,57.79589896666666,58.35200103333333,48.0,44.0
307,58.85178896666666,58.94153961666666,65.0,74.0
308,58.85178896666666,58.94153961666666,69.0,64.0
309,58.85178896666666,58.948578883333326,60.0,70.0
310,59.27414496666666,59.356856349999994,65.0,71.0
311,59.27414496666666,59.36037598333333,69.0,66.0
312,59.27414496666666,59.37093488333333,60.0,69.0
313,58.21825496666666,59.45892571666666,53.0,64.0
314,59.69650096666666,60.10477843333333,53.0,42.0
315,59.90767896666666,60.38106964999999,69.0,70.0
316,57.37354296666666,60.38810891666666,41.0,72.0
317,59.90767896666666,60.55177186666666,60.0,70.0
318,59.90767896666666,60.646801966666665,65.0,78.0
319,60.33003496666666,60.75063115,53.0,58.0
320,58.640610966666664,60.75591059999999,48.0,40.0
321,60.75239096666666,61.238100366666664,67.0,59.0
322,60.75239096666666,61.24513963333333,70.0,62.0
323,60.75239096666666,61.26977706666666,62.0,59.0
324,61.59710296666666,61.693892883333326,67.0,63.0
325,61.59710296666666,61.70269196666666,70.0,58.0
326,61.17474696666666,61.71853031666666,50.0,59.0
327,61.59710296666666,61.72204994999999,62.0,72.0
328,62.23063696666666,62.30454926666666,70.0,78.0
329,62.23063696666666,62.30982871666666,67.0,79.0
330,62.23063696666666,62.32742688333333,62.0,73.0
331,62.65299296666666,62.72514544999999,67.0,77.0
332,62.65299296666666,62.728665083333325,70.0,79.0
333,62.65299296666666,62.74450343333333,62.0,74.0
334,61.59710296666666,62.79377829999999,55.0,70.0
335,63.07534896666666,63.35867945,55.0,69.0
336,62.01945896666666,63.58921543333333,50.0,38.0
337,63.49770496666666,63.63673048333333,55.0,77.0
338,60.75239096666666,63.638490299999994,43.0,66.0
339,63.28652696666666,63.7124026,70.0,95.0
340,63.28652696666666,63.72824094999999,67.0,86.0
341,63.708882966666664,64.08372391666666,62.0,92.0
342,64.13123896666666,64.6310269,65.0,73.0
343,64.13123896666666,64.65566433333333,69.0,70.0
344,64.97595096666666,65.07098106666666,65.0,72.0
345,64.97595096666666,65.08857923333333,60.0,82.0
346,64.97595096666666,65.08857923333333,69.0,69.0
347,64.55359496666667,65.10617739999999,48.0,40.0
348,65.60948496666666,65.70275525,65.0,69.0
349,65.60948496666666,65.7080347,69.0,66.0
350,65.60948496666666,65.71331414999999,60.0,67.0
351,66.03184096666666,66.1092729,65.0,55.0
352,66.03184096666666,66.1409496,69.0,66.0
353,66.03184096666666,66.14446923333333,60.0,69.0
354,64.97595096666666,66.22366098333333,53.0,76.0
355,65.39830696666667,66.69881148333333,48.0,40.0
356,66.45419696666666,66.70409093333333,53.0,68.0
357,64.13123896666666,66.75160598333333,41.0,67.0
358,66.66537496666666,66.93110728333333,65.0,90.0
359,66.66537496666666,66.93990636666666,69.0,82.0
360,66.66537496666666,66.94342599999999,60.0,67.0
361,67.08773096666665,67.13876565,65.0,74.0
362,67.08773096666665,67.17044234999999,69.0,72.0
363,67.08773096666665,67.17572179999999,60.0,81.0
364,67.51008696666666,67.95532058333333,67.0,62.0
365,67.51008696666666,67.98523746666666,70.0,59.0
366,67.51008696666666,68.06618903333333,63.0,58.0
367,68.35479896666666,68.52022173333333,67.0,72.0
368,68.35479896666666,68.53254045,70.0,62.0
369,68.35479896666666,68.56245733333333,63.0,82.0
370,68.35479896666666,68.70148284999999,51.0,62.0
371,68.98833296666666,69.04992655,67.0,92.0
372,68.98833296666666,69.05344618333332,70.0,69.0
373,68.98833296666666,69.0763238,63.0,88.0
374,68.77715496666666,69.10800049999999,51.0,66.0
375,69.41068896666665,69.48108163333333,67.0,93.0
376,69.41068896666665,69.48636108333332,70.0,76.0
377,69.41068896666665,69.50043961666665,63.0,89.0
378,69.19951096666667,69.54795466666666,51.0,45.0
379,67.93244296666666,70.03190425,46.0,33.0
380,67.51008696666666,70.09349783333333,39.0,63.0
381,70.04422296666667,70.14629233333332,67.0,102.0
382,69.83304496666666,70.15333159999999,51.0,77.0
383,70.04422296666667,70.17092976666666,70.0,86.0
384,70.04422296666667,70.20612609999999,63.0,92.0
385,70.46657896666666,70.57040814999999,63.0,96.0
386,70.88893496666667,71.36232564999999,69.0,74.0
387,70.88893496666667,71.36408546666667,65.0,81.0
388,70.88893496666667,71.42215941666666,60.0,72.0
389,71.73364696666665,71.80755926666666,65.0,75.0
390,71.73364696666665,71.81635834999999,69.0,68.0
391,71.73364696666665,71.84451541666667,60.0,77.0
392,71.31129096666666,71.86563321666667,48.0,43.0
393,72.36718096666667,72.45693161666667,65.0,71.0
394,72.36718096666667,72.45869143333333,69.0,62.0
395,72.36718096666667,72.47101015,60.0,66.0
396,72.78953696666666,72.86520908333333,65.0,69.0
397,72.78953696666666,72.86872871666667,69.0,63.0
398,72.78953696666666,72.87224834999999,60.0,69.0
399,71.73364696666665,73.00071496666666,53.0,77.0
400,73.21189296666667,73.49170381666666,53.0,58.0
401,73.42307096666666,73.60433208333333,65.0,86.0
402,73.42307096666666,73.62544988333333,69.0,81.0
403,73.42307096666666,73.65360695,60.0,83.0
404,73.63424896666666,73.79791191666666,53.0,59.0
405,70.88893496666667,73.86126531666666,41.0,68.0
406,73.84542696666666,73.9439767,69.0,69.0
407,73.84542696666666,73.94573651666666,60.0,55.0
408,73.84542696666666,74.08828166666666,65.0,82.0
409,72.15600296666666,74.20266975,48.0,35.0
410,74.26778296666666,74.72709511666666,67.0,81.0
411,74.26778296666666,74.72709511666666,70.0,86.0
412,74.26778296666666,74.75349236666666,62.0,83.0
413,75.11249496666666,75.2004858,67.0,76.0
414,75.11249496666666,75.21808396666665,70.0,85.0
415,75.11249496666666,75.22688305,62.0,79.0
416,74.69013896666667,75.22864286666666,50.0,42.0
417,75.74602896666666,75.83929925,67.0,76.0
418,75.74602896666666,75.8445787,70.0,79.0
419,75.74602896666666,75.85161796666667,62.0,75.0
420,75.11249496666666,76.36724425,55.0,69.0
421,76.16838496666666,76.58018206666667,62.0,77.0
422,76.16838496666666,76.59602041666666,67.0,78.0
423,76.16838496666666,76.59954004999999,70.0,82.0
424,75.53485096666667,76.95678283333332,50.0,42.0
425,76.59074096666666,76.98845953333333,55.0,69.0
426,76.80191896666666,77.12044578333332,70.0,107.0
427,76.80191896666666,77.19787771666665,67.0,95.0
428,76.80191896666666,77.23659368333333,62.0,79.0
429,74.26778296666666,77.37561919999999,43.0,74.0
430,77.22427496666666,77.5762383,50.0,68.0
431,77.64663096666666,78.10594311666667,65.0,81.0
432,77.64663096666666,78.11122256666665,69.0,74.0
433,77.64663096666666,78.16049743333333,60.0,78.0
434,78.06898696666666,78.59517215,48.0,44.0
435,78.49134296666666,78.60573104999999,65.0,86.0
436,78.49134296666666,78.61101049999999,69.0,77.0
437,78.49134296666666,78.6426872,60.0,78.0
438,79.12487696666666,79.21462761666666,65.0,82.0
439,79.12487696666666,79.21462761666666,69.0,75.0
440,79.12487696666666,79.24630431666667,60.0,78.0
441,79.54723296666666,79.63170416666667,65.0,83.0
442,79.54723296666666,79.63874343333333,69.0,75.0
443,79.54723296666666,79.65810141666665,60.0,79.0
444,78.49134296666666,79.7091361,53.0,65.0
445,79.96958896666666,80.22828201666665,53.0,63.0
446,78.91369896666666,80.23884091666666,48.0,38.0
447,77.64663096666666,80.24412036666666,41.0,76.0
448,80.18076696666667,80.45177873333333,60.0,77.0
449,80.18076696666667,80.47641616666667,65.0,88.0
450,80.18076696666667,80.48697506666666,69.0,83.0
451,80.60312296666666,80.64007911666666,69.0,34.0
452,80.60312296666666,80.72455031666667,60.0,88.0
453,81.02547896666665,81.23841678333332,67.0,68.0
454,81.02547896666665,81.26305421666666,63.0,64.0
455,81.02547896666665,81.27185329999999,58.0,82.0
456,81.87019096666666,81.93882381666666,67.0,43.0
457,81.87019096666666,81.96698088333332,63.0,82.0
458,81.87019096666666,81.98105941666665,58.0,92.0
459,81.44783496666666,82.01449593333332,51.0,55.0
460,82.29254696666666,82.91552206666665,46.0,57.0
461,82.29254696666666,82.92784078333332,51.0,55.0
462,82.50372496666665,84.13155538333332,58.0,82.0
463,82.50372496666665,84.13859464999999,63.0,72.0
464,81.02547896666665,84.16499189999999,39.0,72.0
465,82.50372496666665,84.18610969999999,67.0,58.0
466,84.40432696666666,84.79500626666666,69.0,56.0
467,84.40432696666666,84.81436425,65.0,64.0
468,84.40432696666666,84.81964369999999,60.0,68.0
469,85.24903896666666,85.33526998333332,60.0,73.0
470,85.24903896666666,85.33526998333332,65.0,81.0
471,85.24903896666666,85.33878961666666,69.0,69.0
472,84.82668296666665,85.38278503333332,48.0,44.0
473,85.88257296666666,85.97232361666666,65.0,74.0
474,85.88257296666666,85.97232361666666,69.0,64.0
475,85.88257296666666,85.97936288333332,60.0,70.0
476,86.30492896666667,86.38764035,65.0,71.0
477,86.30492896666667,86.39115998333332,69.0,66.0
478,86.30492896666667,86.40171888333333,60.0,69.0
479,85.24903896666666,86.48970971666665,53.0,64.0
480,86.72728496666666,87.13556243333332,53.0,42.0
481,86.93846296666666,87.41185365,69.0,70.0
482,84.40432696666666,87.41889291666666,41.0,72.0
483,86.93846296666666,87.58255586666665,60.0,70.0
484,86.93846296666666,87.67758596666665,65.0,78.0
485,87.36081896666666,87.78141514999999,53.0,58.0
486,85.67139496666665,87.78669459999999,48.0,40.0
487,87.78317496666666,88.26888436666665,67.0,59.0
488,87.78317496666666,88.27592363333332,70.0,62.0
489,87.78317496666666,88.30056106666666,62.0,59.0
490,88.62788696666667,88.72467688333333,67.0,63.0
491,88.62788696666667,88.73347596666666,70.0,58.0
492,88.20553096666666,88.74931431666666,50.0,59.0
493,88.62788696666667,88.75283395,62.0,72.0
494,89.26142096666666,89.33533326666667,70.0,78.0
495,89.26142096666666,89.34061271666666,67.0,79.0
496,89.26142096666666,89.35821088333333,62.0,73.0
497,89.68377696666666,89.75592945,67.0,77.0
498,89.68377696666666,89.75944908333332,70.0,79.0
499,89.68377696666666,89.77528743333333,62.0,74.0
500,88.62788696666667,89.8245623,55.0,70.0
501,90.10613296666666,90.38946345,55.0,69.0
502,89.05024296666666,90.61999943333332,50.0,38.0
503,90.52848896666666,90.66751448333332,55.0,77.0
504,87.78317496666666,90.6692743,43.0,66.0
505,90.31731096666665,90.74318659999999,70.0,95.0
506,90.31731096666665,90.75902495,67.0,86.0
507,90.73966696666666,91.11450791666665,62.0,92.0
508,91.16202296666665,91.66181089999999,65.0,73.0
509,91.16202296666665,91.68644833333333,69.0,70.0
510,92.00673496666666,92.10176506666666,65.0,72.0
511,92.00673496666666,92.11936323333333,60.0,82.0
512,92.00673496666666,92.11936323333333,69.0,69.0
513,91.58437896666666,92.13696139999999,48.0,40.0
514,92.64026896666665,92.73353924999999,65.0,69.0
515,92.64026896666665,92.7388187,69.0,66.0
516,92.64026896666665,92.74409814999999,60.0,67.0
517,93.06262496666666,93.14005689999999,65.0,55.0
518,93.06262496666666,93.1717336,69.0,66.0
519,93.06262496666666,93.17525323333332,60.0,69.0
520,92.00673496666666,93.25444498333333,53.0,76.0
521,92.42909096666666,93.72959548333333,48.0,40.0
522,93.48498096666665,93.73487493333333,53.0,68.0
523,91.16202296666665,93.78238998333333,41.0,67.0
524,93.69615896666666,93.96189128333333,65.0,90.0
525,93.69615896666666,93.97069036666666,69.0,82.0
526,93.69615896666666,93.97420999999999,60.0,67.0
527,94.11851496666665,94.16954965,65.0,74.0
528,94.11851496666665,94.20122635,69.0,72.0
529,94.11851496666665,94.20650579999999,60.0,81.0
530,94.54087096666666,94.98610458333333,67.0,62.0
531,94.54087096666666,95.01602146666666,70.0,59.0
532,94.54087096666666,95.09697303333333,63.0,58.0
533,95.38558296666666,95.55100573333333,67.0,72.0
534,95.38558296666666,95.56332445,70.0,62.0
535,95.38558296666666,95.59324133333332,63.0,82.0
536,95.38558296666666,95.73226684999999,51.0,62.0
537,96.01911696666666,96.08071054999999,67.0,92.0
538,96.01911696666666,96.08423018333332,70.0,69.0
539,96.01911696666666,96.1071078,63.0,88.0
540,95.80793896666665,96.13878449999999,51.0,66.0
541,96.44147296666665,96.51186563333333,67.0,93.0
542,96.44147296666665,96.51714508333332,70.0,76.0
543,96.44147296666665,96.53122361666667,63.0,89.0
544,96.23029496666666,96.57873866666665,51.0,45.0
545,94.96322696666665,97.06268825,46.0,33.0
546,94.54087096666666,97.12428183333333,39.0,63.0
547,97.07500696666666,97.17707633333333,67.0,102.0
548,96.86382896666666,97.1841156,51.0,77.0
549,97.07500696666666,97.20171376666666,70.0,86.0
550,97.07500696666666,97.23691009999999,63.0,92.0
551,97.49736296666666,97.60119214999999,63.0,96.0
552,97.91971896666666,98.39310964999999,69.0,74.0
553,97.91971896666666,98.39486946666666,65.0,81.0
554,97.91971896666666,98.45294341666666,60.0,72.0
555,98.76443096666665,98.83834326666666,65.0,75.0
556,98.76443096666665,98.84714235,69.0,68.0
557,98.76443096666665,98.87529941666666,60.0,77.0
558,98.34207496666666,98.89641721666666,48.0,43.0
559,99.39796496666666,99.48771561666666,65.0,71.0
560,99.39796496666666,99.48947543333333,69.0,62.0
561,99.39796496666666,99.50179415,60.0,66.0
562,99.82032096666666,99.89599308333332,65.0,69.0
563,99.82032096666666,99.89951271666666,69.0,63.0
564,99.82032096666666,99.90303234999999,60.0,69.0
565,98.76443096666665,100.03149896666666,53.0,77.0
566,100.24267696666666,100.52248781666665,53.0,58.0
567,100.45385496666665,100.63511608333333,65.0,86.0
568,100.45385496666665,100.65623388333333,69.0,81.0
569,100.45385496666665,100.68439095,60.0,83.0
570,100.66503296666666,100.82869591666666,53.0,59.0
571,97.91971896666666,100.89204931666666,41.0,68.0
572,100.87621096666666,100.97476069999999,69.0,69.0
573,100.87621096666666,100.97652051666665,60.0,55.0
574,100.87621096666666,101.11906566666666,65.0,82.0
575,99.18678696666666,101.23345375,48.0,35.0
576,101.29856696666666,101.75787911666666,67.0,81.0
577,101.29856696666666,101.75787911666666,70.0,86.0
578,101.29856696666666,101.78427636666666,62.0,83.0
579,102.14327896666666,102.23126979999999,67.0,76.0
580,102.14327896666666,102.24886796666665,70.0,85.0
581,102.14327896666666,102.25766705,62.0,79.0
582,101.72092296666666,102.25942686666666,50.0,42.0
583,102.77681296666665,102.87008325,67.0,76.0
584,102.77681296666665,102.8753627,70.0,79.0
585,102.77681296666665,102.88240196666666,62.0,75.0
586,102.14327896666666,103.39802825,55.0,69.0
587,103.19916896666666,103.61096606666666,62.0,77.0
588,103.19916896666666,103.62680441666666,67.0,78.0
589,103.19916896666666,103.63032404999998,70.0,82.0
590,102.56563496666666,103.98756683333332,50.0,42.0
591,103.62152496666666,104.01924353333332,55.0,69.0
592,103.83270296666666,104.15122978333332,70.0,107.0
593,103.83270296666666,104.22866171666666,67.0,95.0
594,103.83270296666666,104.26737768333332,62.0,79.0
595,101.29856696666666,104.40640319999999,43.0,74.0
596,104.25505896666665,104.6070223,50.0,68.0
597,104.67741496666666,105.13672711666666,65.0,81.0
598,104.67741496666666,105.14200656666665,69.0,74.0
599,104.67741496666666,105.19128143333333,60.0,78.0
600,105.09977096666665,105.62595615,48.0,44.0
601,105.52212696666666,105.63651504999999,65.0,86.0
602,105.52212696666666,105.64179449999999,69.0,77.0
603,105.52212696666666,105.6734712,60.0,78.0
604,106.15566096666666,106.24541161666666,65.0,82.0
605,106.15566096666666,106.24541161666666,69.0,75.0
606,106.15566096666666,106.27708831666666,60.0,78.0
607,106.57801696666665,106.66248816666666,65.0,83.0
608,106.57801696666665,106.66952743333333,69.0,75.0
609,106.57801696666665,106.68888541666666,60.0,79.0
610,105.52212696666666,106.73992009999999,53.0,65.0
611,107.00037296666666,107.25906601666665,53.0,63.0
612,105.94448296666665,107.26962491666666,48.0,38.0
613,104.67741496666666,107.27490436666666,41.0,76.0
614,107.21155096666666,107.48256273333332,60.0,77.0
615,107.21155096666666,107.50720016666666,65.0,88.0
616,107.21155096666666,107.51775906666666,69.0,83.0
617,107.63390696666666,107.67086311666665,69.0,34.0
618,107.63390696666666,107.75533431666666,60.0,88.0
619,108.05626296666665,108.20936701666666,67.0,71.0
620,108.05626296666665,108.23224463333332,70.0,72.0
621,108.05626296666665,108.23400444999999,63.0,79.0
622,108.90097496666665,108.95904891666666,70.0,60.0
623,108.90097496666665,108.96256854999999,67.0,69.0
624,108.90097496666665,108.98720598333333,63.0,73.0
625,108.47861896666666,109.07871644999999,51.0,52.0
626,109.53450896666666,109.59434273333332,67.0,79.0
627,109.53450896666666,109.59434273333332,70.0,66.0
628,109.53450896666666,109.61722035,63.0,81.0
629,109.95686496666666,110.023738,67.0,73.0
630,109.95686496666666,110.023738,70.0,51.0
631,109.95686496666666,110.0448558,63.0,76.0
632,109.32333096666666,110.13460644999999,51.0,55.0
633,110.59039896666665,110.65903181666665,67.0,93.0
634,110.59039896666665,110.66079163333332,70.0,76.0
635,110.59039896666665,110.67487016666665,63.0,89.0
636,111.01275496666666,111.05499056666666,67.0,99.0
637,111.01275496666666,111.06202983333333,70.0,97.0
638,111.01275496666666,111.08138781666666,63.0,99.0
639,111.22393296666665,111.28904618333333,67.0,88.0
640,111.22393296666665,111.3013649,70.0,79.0
641,111.22393296666665,111.31544343333333,63.0,86.0
642,110.37922096666665,111.39287536666666,51.0,53.0
643,108.05626296666665,111.4175128,39.0,93.0
644,111.85746696666666,112.35373526666666,58.0,97.0
645,111.64628896666666,112.38541196666665,53.0,65.0
646,112.06864496666665,112.40476994999999,62.0,92.0
647,111.43511096666666,112.50155986666665,46.0,100.0
648,112.27982296666666,112.57371235,70.0,127.0
649,112.49100096666666,112.74089493333332,65.0,95.0
650,112.70217896666665,112.96439165,62.0,95.0
651,112.91335696666665,113.15973129999999,65.0,69.0
652,113.54689096666665,114.03963963333332,53.0,90.0
653,113.75806896666666,114.19978294999999,60.0,76.0
654,114.18042496666666,114.352887,53.0,86.0
655,113.12453496666666,114.65557546666666,41.0,71.0
656,113.33571296666666,114.75588501666665,48.0,56.0
657,114.39160296666665,114.75764483333333,65.0,76.0
658,113.96924696666666,114.76116446666666,69.0,100.0
659,114.60278096666666,114.87907218333332,60.0,92.0
660,115.23631496666665,115.72378418333332,55.0,85.0
661,115.44749296666666,115.86808914999999,62.0,82.0
662,115.86984896666665,115.96487906666665,55.0,86.0
663,115.02513696666665,115.97367814999998,50.0,72.0
664,114.81395896666666,116.01239411666666,43.0,79.0
665,115.65867096666666,116.39955378333332,70.0,117.0
666,116.08102696666666,116.44354919999999,67.0,62.0
667,116.29220496666666,116.49106425,62.0,95.0
668,116.92573896666666,117.39912964999999,51.0,90.0
669,117.13691696666666,117.47304195,63.0,85.0
670,116.71456096666665,117.60326838333333,46.0,75.0
671,116.50338296666666,117.62790581666665,39.0,78.0
672,117.55927296666665,117.70885738333332,51.0,93.0
673,117.77045096666666,118.07489924999999,67.0,41.0
674,117.34809496666665,118.07665906666665,70.0,122.0
675,117.98162896666666,118.17344898333333,63.0,99.0
676,118.61516296666666,119.09559291666666,58.0,99.0
677,118.82634096666666,119.20470155,62.0,73.0
678,118.40398496666666,119.34548688333332,53.0,63.0
679,119.24869696666666,119.39124211666666,58.0,97.0
680,118.19280696666665,119.43875716666666,46.0,74.0
681,119.03751896666665,119.60417993333333,70.0,117.0
682,119.45987496666666,119.78016159999999,65.0,83.0
683,119.67105296666665,119.88223096666665,62.0,95.0
684,120.30458696666666,120.76565893333333,53.0,86.0
685,120.51576496666665,121.01027344999999,60.0,90.0
686,119.88223096666665,121.01731271666665,41.0,72.0
687,120.09340896666666,121.02435198333332,48.0,65.0
688,120.93812096666666,121.0261118,53.0,72.0
689,121.14929896666666,121.51006138333332,65.0,79.0
690,120.72694296666666,121.51006138333332,69.0,92.0
691,121.36047696666665,121.54877735,60.0,83.0
692,121.99401096666665,122.47092128333333,51.0,93.0
693,122.20518896666665,122.61874588333332,63.0,86.0
694,122.41636696666666,122.77184993333333,70.0,112.0
695,122.83872296666665,122.94783159999999,70.0,40.0
696,122.83872296666665,122.95311104999999,67.0,63.0
697,122.62754496666666,123.15373014999999,51.0,86.0
698,123.04990096666666,123.15548996666665,67.0,83.0
699,123.04990096666666,123.35082961666666,63.0,93.0
700,123.04990096666666,123.36138851666665,70.0,99.0
701,123.47225696666666,123.85061755,67.0,69.0
702,123.47225696666666,123.88405406666665,70.0,72.0
703,123.47225696666666,123.90341204999999,63.0,75.0
704,123.89461296666666,124.14098729999999,51.0,85.0
705,124.10579096666666,124.32752786666666,67.0,117.0
706,121.78283296666666,124.33984658333333,46.0,52.0
707,124.10579096666666,124.35568493333332,63.0,96.0
708,121.57165496666666,124.36096438333333,39.0,70.0
709,124.10579096666666,124.36096438333333,70.0,107.0
710,124.31696896666665,124.47007301666666,51.0,96.0
711,124.52814696666665,124.66189303333333,67.0,107.0
712,124.73932496666666,124.80795781666666,67.0,33.0
713,124.52814696666665,124.84667378333333,70.0,107.0
714,124.73932496666666,124.88011029999998,63.0,107.0
715,125.37285896666666,125.84273001666665,58.0,96.0
716,125.58403696666666,125.97823589999999,62.0,83.0
717,125.16168096666665,126.08558471666666,53.0,67.0
718,126.00639296666665,126.1049427,58.0,93.0
719,124.95050296666666,126.13309976666666,46.0,57.0
720,125.79521496666666,126.28092436666665,70.0,117.0
721,126.21757096666666,126.52201924999999,65.0,83.0
722,126.42874896666666,126.65752513333332,62.0,93.0
723,127.06228296666666,127.57262979999999,53.0,86.0
724,127.27346096666666,127.88763698333332,60.0,81.0
725,127.69581696666665,127.90347533333332,53.0,73.0
726,126.63992696666665,128.1832861833333,41.0,72.0
727,127.90699496666666,128.24136013333333,65.0,89.0
728,127.48463896666665,128.3047135333333,69.0,99.0
729,126.85110496666665,128.30999298333333,48.0,59.0
730,128.11817296666666,128.36278748333334,60.0,90.0
731,128.75170696666666,129.24093599999998,55.0,88.0
732,128.96288496666665,129.31660811666666,62.0,93.0
733,129.38524096666666,129.47499161666664,55.0,83.0
734,128.32935096666665,129.48203088333332,43.0,72.0
735,128.54052896666664,129.4837907,50.0,72.0
736,129.59641896666665,129.98005899999998,67.0,64.0
737,129.17406296666667,129.9835786333333,70.0,117.0
738,129.80759696666667,130.00645624999999,62.0,95.0
739,130.44113096666666,130.9444385333333,51.0,89.0
740,130.65230896666665,131.00603211666666,63.0,97.0
741,130.22995296666664,131.20489139999998,46.0,50.0
742,130.01877496666665,131.24360736666665,39.0,86.0
743,131.07466496666666,131.3315982,51.0,86.0
744,130.86348696666664,131.60085014999999,70.0,100.0
745,131.28584296666665,131.62900721666665,63.0,107.0
746,131.49702096666667,131.67828208333333,67.0,72.0
747,132.13055496666666,132.60394565,58.0,93.0
748,132.34173296666665,132.62682326666666,65.0,81.0
749,131.91937696666665,132.98758568333332,53.0,60.0
750,132.76408896666666,132.99638476666667,58.0,90.0
751,131.70819896666666,133.02454183333333,46.0,88.0
752,132.55291096666664,133.02806146666666,70.0,97.0
753,133.18644496666664,133.3360293833333,70.0,99.0
754,132.97526696666665,133.35538736666666,65.0,82.0
755,133.81997896666667,134.29512946666665,53.0,72.0
756,134.03115696666666,134.49750838333333,60.0,76.0
757,133.39762296666666,134.52742526666665,41.0,39.0
758,133.60880096666665,134.52742526666665,48.0,72.0
759,134.45351296666666,134.5626216,53.0,88.0
760,134.66469096666665,135.07296843333333,65.0,74.0
761,134.87586896666664,135.07648806666666,60.0,82.0
762,134.24233496666665,135.1099245833333,69.0,97.0
763,135.50940296666664,136.0091909,51.0,89.0
764,135.93175896666665,136.37699258333333,67.0,66.0
765,135.93175896666665,136.40866928333332,70.0,90.0
766,135.72058096666666,136.46850304999998,63.0,59.0
767,136.56529296666665,136.65504361666666,67.0,69.0
768,136.56529296666665,136.70079884999998,70.0,66.0
769,136.56529296666665,136.72015683333333,63.0,72.0
770,136.35411496666666,137.13371375,51.0,61.0
771,136.98764896666665,137.24634201666666,67.0,69.0
772,136.98764896666665,137.28329816666667,70.0,55.0
773,136.98764896666665,137.41528441666665,63.0,75.0
774,137.41000496666666,137.68629618333333,51.0,66.0
775,137.62118296666665,137.84819931666667,67.0,99.0
776,137.62118296666665,137.8710769333333,63.0,95.0
777,137.62118296666665,137.8781162,70.0,89.0
778,135.29822496666665,137.98722483333333,46.0,56.0
779,135.08704696666666,137.99954355,39.0,81.0
780,137.83236096666664,138.01010244999998,51.0,73.0
781,138.04353896666666,138.15968686666665,67.0,102.0
782,138.04353896666666,138.17200558333332,63.0,93.0
783,138.04353896666666,138.23887861666665,70.0,100.0
784,138.88825096666665,139.44611285,53.0,72.0
785,139.31060696666665,139.56930001666666,65.0,77.0
786,139.31060696666665,139.57281964999999,69.0,88.0
787,139.09942896666666,139.58513836666665,60.0,54.0
788,139.94414096666665,140.04797015,65.0,72.0
789,139.94414096666665,140.0532496,60.0,67.0
790,139.94414096666665,140.06028886666667,69.0,68.0
791,140.36649696666666,140.4861645,65.0,70.0
792,140.36649696666666,140.50904211666665,69.0,68.0
793,139.73296296666666,140.51256174999997,53.0,74.0
794,140.78885296666667,140.99475151666667,53.0,41.0
795,138.67707296666666,141.03698711666667,48.0,96.0
796,138.46589496666667,141.0598647333333,41.0,85.0
797,141.00003096666666,141.1091396,60.0,78.0
798,141.00003096666666,141.12321813333332,65.0,85.0
799,141.00003096666666,141.14609575,69.0,77.0
800,141.42238696666666,141.46990201666665,65.0,77.0
801,141.42238696666666,141.49277963333333,60.0,83.0
802,141.42238696666666,141.49453945,69.0,66.0
803,141.84474296666664,142.41316375,67.0,66.0
804,141.84474296666664,142.53987055,70.0,75.0
805,141.84474296666664,142.58738559999998,63.0,81.0
806,142.47827696666664,142.73169056666666,51.0,29.0
807,142.68945496666666,142.82144121666664,67.0,72.0
808,142.68945496666666,142.8513581,70.0,77.0
809,142.68945496666666,142.87247589999998,63.0,85.0
810,143.32298896666666,143.3828227333333,67.0,95.0
811,143.32298896666666,143.3828227333333,70.0,89.0
812,143.32298896666666,143.40746016666665,63.0,93.0
813,143.74534496666666,143.80693854999998,67.0,96.0
814,143.74534496666666,143.82981616666666,63.0,89.0
815,143.74534496666666,143.83157598333332,70.0,81.0
816,143.11181096666667,143.94596406666665,51.0,52.0
817,142.26709896666665,144.29616758333333,46.0,31.0
818,141.84474296666664,144.3595209833333,39.0,85.0
819,144.16770096666664,144.39647713333332,51.0,56.0
820,144.37887896666666,144.45279126666665,67.0,102.0
821,144.37887896666666,144.4703894333333,70.0,97.0
822,144.37887896666666,144.4774287,63.0,97.0
823,144.80123496666664,144.85226964999998,70.0,79.0
824,144.80123496666664,144.88570616666667,63.0,89.0
825,145.22359096666665,145.66882458333333,69.0,86.0
826,145.22359096666665,145.67586384999998,65.0,90.0
827,145.22359096666665,145.70402091666665,60.0,92.0
828,146.06830296666666,146.17917141666666,65.0,75.0
829,146.06830296666666,146.18445086666665,60.0,72.0
830,146.06830296666666,146.18445086666665,69.0,69.0
831,145.85712496666665,146.2090883,53.0,46.0
832,146.49065896666664,146.92357386666666,53.0,52.0
833,146.70183696666666,147.13123223333332,60.0,66.0
834,146.70183696666666,147.18754636666665,65.0,66.0
835,147.12419296666664,147.4444796,53.0,67.0
836,147.54654896666665,147.75244751666665,53.0,72.0
837,145.64594696666666,147.87563468333332,48.0,56.0
838,147.33537096666666,147.98474331666665,60.0,78.0
839,147.96890496666666,148.03753781666666,53.0,72.0
840,147.96890496666666,148.06041543333333,48.0,39.0
841,145.22359096666665,148.06569488333332,41.0,73.0
842,148.18008296666665,148.58660061666666,65.0,83.0
843,147.75772696666667,148.58660061666666,69.0,107.0
844,148.39126096666666,148.62531658333333,60.0,74.0
845,149.02479496666666,149.53866143333332,51.0,86.0
846,149.44715096666664,149.6301719,70.0,117.0
847,149.86950696666665,150.42912866666666,51.0,81.0
848,149.23597296666665,150.50304096666665,63.0,57.0
849,150.08068496666667,150.58927198333333,67.0,67.0
850,150.08068496666667,150.78989108333332,70.0,61.0
851,150.71421896666666,150.8479650333333,63.0,44.0
852,151.13657496666664,151.3442333333333,70.0,1.0
853,148.81361696666664,151.47621958333332,46.0,34.0
854,150.50304096666665,151.47797939999998,51.0,72.0
855,148.60243896666665,151.4920579333333,39.0,81.0
856,151.98128696666666,152.54266848333333,65.0,71.0
857,151.98128696666666,152.56026665,69.0,68.0
858,151.98128696666666,152.63593876666664,60.0,75.0
859,152.82599896666665,152.91047016666664,65.0,85.0
860,152.82599896666665,152.9386272333333,69.0,79.0
861,152.61482096666666,152.94214686666666,53.0,71.0
862,153.24835496666665,153.6742306,53.0,68.0
863,153.45953296666664,154.0209144833333,65.0,77.0
864,153.45953296666664,154.03323319999998,69.0,78.0
865,153.88188896666665,154.5330211333333,53.0,81.0
866,154.72660096666667,154.89026391666664,53.0,64.0
867,154.51542296666665,154.97649493333333,69.0,92.0
868,151.98128696666666,154.98353419999998,41.0,64.0
869,154.93777896666666,155.19999165,60.0,79.0
870,154.51542296666665,155.29854138333332,65.0,92.0
871,152.40364296666667,155.37069386666664,48.0,58.0
872,155.36013496666666,155.8528836333333,67.0,66.0
873,155.36013496666666,155.8634425333333,70.0,58.0
874,155.36013496666666,155.90215849999998,62.0,85.0
875,156.20484696666665,156.29987706666665,67.0,82.0
876,156.20484696666665,156.30867615,62.0,81.0
877,156.20484696666665,156.31571541666665,70.0,89.0
878,156.83838096666665,156.94045033333333,67.0,77.0
879,156.83838096666665,156.94572978333332,70.0,76.0
880,156.83838096666665,156.95276905,62.0,75.0
881,156.62720296666666,157.41560083333331,55.0,53.0
882,157.47191496666665,157.61973956666665,62.0,35.0
883,157.26073696666666,157.7218089333333,70.0,96.0
884,157.26073696666666,157.72708838333332,67.0,89.0
885,157.68309296666666,157.92594766666664,55.0,79.0
886,155.78249096666664,157.97346271666666,50.0,55.0
887,158.10544896666664,158.27263155,50.0,64.0
888,155.36013496666666,158.28495026666664,43.0,68.0
889,157.89427096666665,158.31662696666666,70.0,107.0
890,157.89427096666665,158.38877945,67.0,95.0
891,158.31662696666666,158.6562715833333,62.0,88.0
892,159.37251696666667,159.44114981666667,60.0,27.0
893,158.73898296666664,159.49394431666664,65.0,89.0
894,158.73898296666664,159.49746395,69.0,85.0
895,159.58369496666666,159.71040176666665,65.0,76.0
896,159.58369496666666,159.71744103333333,69.0,70.0
897,159.58369496666666,159.72975975,60.0,81.0
898,160.21722896666665,160.3263376,65.0,73.0
899,160.21722896666665,160.34041613333332,69.0,62.0
900,160.21722896666665,160.34921521666666,60.0,72.0
901,160.63958496666666,160.75397304999998,65.0,74.0
902,160.63958496666666,160.75925249999997,69.0,65.0
903,160.63958496666666,160.76981139999998,60.0,71.0
904,160.00605096666666,160.8014881,53.0,67.0
905,161.06194096666664,161.2027263,53.0,76.0
906,159.16133896666665,161.21328519999997,48.0,49.0
907,158.73898296666664,161.26959933333333,41.0,66.0
908,161.27311896666666,161.70075441666665,69.0,89.0
909,161.27311896666666,161.71131331666666,65.0,89.0
910,161.69547496666667,161.89961369999997,60.0,73.0
911,162.11783096666665,162.39060254999998,67.0,76.0
912,162.11783096666665,162.40468108333332,63.0,86.0
913,162.75136496666664,162.95198406666665,58.0,69.0
914,162.54018696666665,163.0382150833333,51.0,88.0
915,162.96254296666666,163.10860774999998,67.0,79.0
916,162.96254296666666,163.1226862833333,58.0,66.0
917,162.96254296666666,163.1244461,63.0,72.0
918,163.59607696666666,163.84421111666666,67.0,60.0
919,163.59607696666666,163.84773074999998,58.0,85.0
920,163.59607696666666,163.86884855,63.0,66.0
921,163.38489896666664,164.17153701666666,51.0,68.0
922,164.01843296666667,164.30880271666666,67.0,63.0
923,164.01843296666667,164.40911226666665,58.0,83.0
924,164.01843296666667,164.45310768333331,63.0,78.0
925,164.44078896666664,164.72235963333333,51.0,58.0
926,164.65196696666666,164.75403633333332,58.0,58.0
927,162.32900896666666,164.91417965,46.0,38.0
928,162.11783096666665,164.94585634999999,39.0,88.0
929,164.86314496666665,164.99337139999997,51.0,73.0
930,164.65196696666666,165.0338471833333,67.0,69.0
931,164.65196696666666,165.23094665,63.0,81.0
932,165.49667896666665,165.97358928333333,69.0,66.0
933,165.49667896666665,165.97886873333331,65.0,65.0
934,165.49667896666665,166.00526598333332,60.0,64.0
935,166.13021296666665,166.57192694999998,53.0,72.0
936,166.34139096666667,166.88165468333332,69.0,86.0
937,166.34139096666667,166.88517431666665,65.0,90.0
938,166.97492496666666,167.0312391,60.0,52.0
939,166.97492496666666,167.12450938333333,69.0,72.0
940,166.97492496666666,167.14034773333333,65.0,72.0
941,166.76374696666664,167.4676736333333,53.0,69.0
942,167.39728096666664,167.92698578333332,69.0,79.0
943,167.39728096666664,167.94106431666665,65.0,81.0
944,167.81963696666665,168.0871291,53.0,69.0
945,167.60845896666666,168.1381637833333,60.0,57.0
946,168.24199296666666,168.3862979333333,53.0,65.0
947,168.03081496666664,168.41973445,69.0,82.0
948,168.03081496666664,168.42325408333332,65.0,82.0
949,165.49667896666665,168.52004399999998,41.0,68.0
950,168.45317096666665,168.68898639999998,60.0,77.0
951,165.91903496666666,168.86144843333332,48.0,51.0
952,168.87552696666665,169.60937051666664,70.0,70.0
953,168.87552696666665,169.61640978333332,67.0,74.0
954,168.87552696666665,169.64104721666666,62.0,82.0
955,169.50906096666665,169.90150008333333,55.0,69.0
956,169.72023896666664,170.23410543333333,70.0,92.0
957,169.72023896666664,170.25698304999997,67.0,82.0
958,169.72023896666664,170.2974588333333,62.0,74.0
959,170.35377296666664,170.44704324999998,62.0,47.0
960,170.14259496666665,170.70573629999998,55.0,69.0
961,170.35377296666664,171.18792606666665,70.0,97.0
962,170.35377296666664,171.20904386666666,67.0,82.0
963,170.77612896666665,171.2231224,62.0,86.0
964,171.19848496666665,171.4800556333333,55.0,69.0
965,171.62084096666666,171.7545870333333,55.0,68.0
966,169.29788296666666,171.75810666666666,50.0,48.0
967,168.87552696666665,171.81618061666666,43.0,60.0
968,171.40966296666664,171.84081805,70.0,100.0
969,171.40966296666664,171.89537236666666,67.0,89.0
970,171.83201896666665,172.22093844999998,62.0,83.0
971,172.25437496666666,172.99349796666664,69.0,81.0
972,172.25437496666666,173.00053723333332,65.0,81.0
973,172.88790896666666,173.22755358333333,53.0,52.0
974,173.09908696666665,173.57951691666665,65.0,82.0
975,173.09908696666665,173.5812767333333,69.0,75.0
976,173.09908696666665,173.6305516,60.0,53.0
977,173.73262096666664,174.0001131,65.0,73.0
978,173.73262096666664,174.00715236666665,69.0,71.0
979,173.73262096666664,174.03002998333332,60.0,51.0
980,173.52144296666665,174.22009018333333,53.0,66.0
981,174.15497696666665,174.62484801666665,65.0,65.0
982,174.15497696666665,174.62836764999997,60.0,64.0
983,174.15497696666665,174.644206,69.0,63.0
984,172.67673096666664,174.66180416666666,48.0,54.0
985,172.25437496666666,174.68116214999998,41.0,63.0
986,174.57733296666666,174.7181183,53.0,74.0
987,174.78851096666665,174.9081785,65.0,83.0
988,174.78851096666665,175.07360126666666,69.0,78.0
989,174.78851096666665,175.08416016666666,60.0,76.0
990,175.21086696666666,175.27774,65.0,69.0
991,175.21086696666666,175.28301944999998,69.0,56.0
992,175.21086696666666,175.29885779999998,60.0,64.0
993,175.63322296666666,176.0573387833333,67.0,65.0
994,175.63322296666666,176.10837346666665,70.0,59.0
995,175.63322296666666,176.36706651666665,63.0,66.0
996,176.26675696666666,176.45505734999998,51.0,37.0
997,176.47793496666665,176.80702068333332,67.0,74.0
998,176.47793496666665,176.91964894999998,70.0,71.0
999,176.47793496666665,176.97068363333332,63.0,81.0
1000,177.11146896666665,177.20121961666666,67.0,58.0
1001,177.11146896666665,177.283931,70.0,62.0
1002,177.11146896666665,177.34200495,63.0,66.0
1003,176.05557896666664,178.99623261666665,46.0,50.0
1004,175.63322296666666,179.0243896833333,39.0,77.0
1005,176.90029096666666,179.0243896833333,51.0,44.0
1006,179.01207096666664,179.40275026666666,69.0,56.0
1007,179.01207096666664,179.42210824999998,65.0,64.0
1008,179.01207096666664,179.4273877,60.0,68.0
1009,179.85678296666666,179.94301398333332,60.0,73.0
1010,179.85678296666666,179.94301398333332,65.0,81.0
1011,179.85678296666666,179.94653361666664,69.0,69.0
1012,179.43442696666665,179.99052903333333,48.0,44.0
1013,180.49031696666665,180.58006761666664,65.0,74.0
1014,180.49031696666665,180.58006761666664,69.0,64.0
1015,180.49031696666665,180.58710688333332,60.0,70.0
1016,180.91267296666666,180.99538435,65.0,71.0
1017,180.91267296666666,180.99890398333332,69.0,66.0
1018,180.91267296666666,181.00946288333333,60.0,69.0
1019,179.85678296666666,181.09745371666665,53.0,64.0
1020,181.33502896666664,181.74330643333332,53.0,42.0
1021,181.54620696666666,182.01959764999998,69.0,70.0
1022,179.01207096666664,182.02663691666666,41.0,72.0
1023,181.54620696666666,182.19029986666666,60.0,70.0
1024,181.54620696666666,182.28532996666664,65.0,78.0
1025,181.96856296666664,182.38915914999998,53.0,58.0
1026,180.27913896666666,182.39443859999997,48.0,40.0
1027,182.39091896666665,182.87662836666667,67.0,59.0
1028,182.39091896666665,182.88366763333332,70.0,62.0
1029,182.39091896666665,182.90830506666666,62.0,59.0
1030,183.23563096666666,183.33242088333333,67.0,63.0
1031,183.23563096666666,183.34121996666664,70.0,58.0
1032,182.81327496666665,183.35705831666664,50.0,59.0
1033,183.23563096666666,183.36057795,62.0,72.0
1034,183.86916496666666,183.94307726666665,70.0,78.0
1035,183.86916496666666,183.94835671666664,67.0,79.0
1036,183.86916496666666,183.96595488333332,62.0,73.0
1037,184.29152096666664,184.36367345,67.0,77.0
1038,184.29152096666664,184.36719308333332,70.0,79.0
1039,184.29152096666664,184.38303143333331,62.0,74.0
1040,183.23563096666666,184.4323063,55.0,70.0
1041,184.71387696666665,184.99720745,55.0,69.0
1042,183.65798696666664,185.22774343333333,50.0,38.0
1043,185.13623296666665,185.27525848333332,55.0,77.0
1044,182.39091896666665,185.27701829999998,43.0,66.0
1045,184.92505496666666,185.3509306,70.0,95.0
1046,184.92505496666666,185.36676895,67.0,86.0
1047,185.34741096666664,185.72225191666666,62.0,92.0
1048,185.76976696666665,186.26955489999997,65.0,73.0
1049,185.76976696666665,186.2941923333333,69.0,70.0
1050,186.61447896666664,186.70950906666664,65.0,72.0
1051,186.61447896666664,186.72710723333333,60.0,82.0
1052,186.61447896666664,186.72710723333333,69.0,69.0
1053,186.19212296666666,186.7447054,48.0,40.0
1054,187.24801296666666,187.34128324999998,65.0,69.0
1055,187.24801296666666,187.3465627,69.0,66.0
1056,187.24801296666666,187.35184214999998,60.0,67.0
1057,187.67036896666664,187.7478009,65.0,55.0
1058,187.67036896666664,187.77947759999998,69.0,66.0
1059,187.67036896666664,187.7829972333333,60.0,69.0
1060,186.61447896666664,187.8621889833333,53.0,76.0
1061,187.03683496666665,188.33733948333332,48.0,40.0
1062,188.09272496666665,188.3426189333333,53.0,68.0
1063,185.76976696666665,188.39013398333333,41.0,67.0
1064,188.30390296666664,188.56963528333333,65.0,90.0
1065,188.30390296666664,188.57843436666664,69.0,82.0
1066,188.30390296666664,188.581954,60.0,67.0
1067,188.72625896666665,188.77729365,65.0,74.0
1068,188.72625896666665,188.80897034999998,69.0,72.0
1069,188.72625896666665,188.81424979999997,60.0,81.0
1070,189.14861496666666,189.5938485833333,67.0,62.0
1071,189.14861496666666,189.62376546666664,70.0,59.0
1072,189.14861496666666,189.7047170333333,63.0,58.0
1073,189.99332696666664,190.1587497333333,67.0,72.0
1074,189.99332696666664,190.17106844999998,70.0,62.0
1075,189.99332696666664,190.2009853333333,63.0,82.0
1076,189.99332696666664,190.34001084999997,51.0,62.0
1077,190.62686096666664,190.68845455,67.0,92.0
1078,190.62686096666664,190.69197418333331,70.0,69.0
1079,190.62686096666664,190.7148518,63.0,88.0
1080,190.41568296666665,190.74652849999998,51.0,66.0
1081,191.04921696666665,191.1196096333333,67.0,93.0
1082,191.04921696666665,191.12488908333333,70.0,76.0
1083,191.04921696666665,191.13896761666666,63.0,89.0
1084,190.83803896666666,191.18648266666665,51.0,45.0
1085,189.57097096666666,191.67043224999998,46.0,33.0
1086,189.14861496666666,191.73202583333332,39.0,63.0
1087,191.68275096666665,191.78482033333333,67.0,102.0
1088,191.47157296666666,191.79185959999998,51.0,77.0
1089,191.68275096666665,191.80945776666664,70.0,86.0
1090,191.68275096666665,191.84465409999999,63.0,92.0
1091,192.10510696666665,192.20893614999997,63.0,96.0
1092,192.52746296666666,193.00085364999998,69.0,74.0
1093,192.52746296666666,193.00261346666665,65.0,81.0
1094,192.52746296666666,193.06068741666664,60.0,72.0
1095,193.37217496666665,193.44608726666664,65.0,75.0
1096,193.37217496666665,193.45488634999998,69.0,68.0
1097,193.37217496666665,193.48304341666665,60.0,77.0
1098,192.94981896666664,193.50416121666666,48.0,43.0
1099,194.00570896666665,194.09545961666666,65.0,71.0
1100,194.00570896666665,194.09721943333332,69.0,62.0
1101,194.00570896666665,194.10953815,60.0,66.0
1102,194.42806496666665,194.5037370833333,65.0,69.0
1103,194.42806496666665,194.50725671666666,69.0,63.0
1104,194.42806496666665,194.51077635,60.0,69.0
1105,193.37217496666665,194.63924296666664,53.0,77.0
1106,194.85042096666666,195.13023181666665,53.0,58.0
1107,195.06159896666665,195.2428600833333,65.0,86.0
1108,195.06159896666665,195.26397788333333,69.0,81.0
1109,195.06159896666665,195.29213495,60.0,83.0
1110,195.27277696666664,195.43643991666664,53.0,59.0
1111,192.52746296666666,195.49979331666665,41.0,68.0
1112,195.48395496666666,195.5825047,69.0,69.0
1113,195.48395496666666,195.58426451666665,60.0,55.0
1114,195.48395496666666,195.72680966666664,65.0,82.0
1115,193.79453096666666,195.84119775,48.0,35.0
1116,195.90631096666664,196.36562311666665,67.0,81.0
1117,195.90631096666664,196.36562311666665,70.0,86.0
1118,195.90631096666664,196.39202036666666,62.0,83.0
1119,196.75102296666665,196.83901379999998,67.0,76.0
1120,196.75102296666665,196.85661196666666,70.0,85.0
1121,196.75102296666665,196.86541104999998,62.0,79.0
1122,196.32866696666665,196.86717086666664,50.0,42.0
1123,197.38455696666665,197.47782725,67.0,76.0
1124,197.38455696666665,197.48310669999998,70.0,79.0
1125,197.38455696666665,197.49014596666666,62.0,75.0
1126,196.75102296666665,198.00577224999998,55.0,69.0
1127,197.80691296666666,198.21871006666666,62.0,77.0
1128,197.80691296666666,198.23454841666666,67.0,78.0
1129,197.80691296666666,198.23806804999998,70.0,82.0
1130,197.17337896666666,198.59531083333331,50.0,42.0
1131,198.22926896666664,198.6269875333333,55.0,69.0
1132,198.44044696666666,198.75897378333332,70.0,107.0
1133,198.44044696666666,198.83640571666666,67.0,95.0
1134,198.44044696666666,198.8751216833333,62.0,79.0
1135,195.90631096666664,199.0141472,43.0,74.0
1136,198.86280296666666,199.21476629999998,50.0,68.0
1137,199.28515896666664,199.74447111666666,65.0,81.0
1138,199.28515896666664,199.74975056666665,69.0,74.0
1139,199.28515896666664,199.79902543333333,60.0,78.0
1140,199.70751496666665,200.23370014999998,48.0,44.0
1141,200.12987096666666,200.24425904999998,65.0,86.0
1142,200.12987096666666,200.24953849999997,69.0,77.0
1143,200.12987096666666,200.2812152,60.0,78.0
1144,200.76340496666666,200.85315561666664,65.0,82.0
1145,200.76340496666666,200.85315561666664,69.0,75.0
1146,200.76340496666666,200.88483231666666,60.0,78.0
1147,201.18576096666666,201.27023216666666,65.0,83.0
1148,201.18576096666666,201.2772714333333,69.0,75.0
1149,201.18576096666666,201.29662941666666,60.0,79.0
1150,200.12987096666666,201.34766409999997,53.0,65.0
1151,201.60811696666664,201.86681001666665,53.0,63.0
1152,200.55222696666664,201.87736891666665,48.0,38.0
1153,199.28515896666664,201.88264836666664,41.0,76.0
1154,201.81929496666666,202.0903067333333,60.0,77.0
1155,201.81929496666666,202.11494416666665,65.0,88.0
1156,201.81929496666666,202.12550306666665,69.0,83.0
1157,202.24165096666664,202.27860711666665,69.0,34.0
1158,202.24165096666664,202.36307831666664,60.0,88.0
1159,202.66400696666665,202.81711101666664,67.0,71.0
1160,202.66400696666665,202.83998863333332,70.0,72.0
1161,202.66400696666665,202.84174844999998,63.0,79.0
1162,203.50871896666666,203.56679291666666,70.0,60.0
1163,203.50871896666666,203.57031254999998,67.0,69.0
1164,203.50871896666666,203.59494998333332,63.0,73.0
1165,203.08636296666666,203.68646044999997,51.0,52.0
1166,204.14225296666666,204.20208673333332,67.0,79.0
1167,204.14225296666666,204.20208673333332,70.0,66.0
1168,204.14225296666666,204.22496435,63.0,81.0
1169,204.56460896666664,204.63148199999998,67.0,73.0
1170,204.56460896666664,204.63148199999998,70.0,51.0
1171,204.56460896666664,204.6525998,63.0,76.0
1172,203.93107496666664,204.74235044999998,51.0,55.0
1173,205.19814296666664,205.26677581666664,67.0,93.0
1174,205.19814296666664,205.26853563333333,70.0,76.0
1175,205.19814296666664,205.28261416666666,63.0,89.0
1176,205.62049896666664,205.66273456666664,67.0,99.0
1177,205.62049896666664,205.66977383333332,70.0,97.0
1178,205.62049896666664,205.68913181666665,63.0,99.0
1179,205.83167696666666,205.8967901833333,67.0,88.0
1180,205.83167696666666,205.90910889999998,70.0,79.0
1181,205.83167696666666,205.9231874333333,63.0,86.0
1182,204.98696496666665,206.00061936666665,51.0,53.0
1183,202.66400696666665,206.0252568,39.0,93.0
1184,206.46521096666666,206.96147926666666,58.0,97.0
1185,206.25403296666664,206.99315596666665,53.0,65.0
1186,206.67638896666665,207.01251394999997,62.0,92.0
1187,206.04285496666665,207.10930386666664,46.0,100.0
1188,206.88756696666664,207.18145635,70.0,127.0
1189,207.09874496666666,207.34863893333332,65.0,95.0
1190,207.30992296666665,207.57213564999998,62.0,95.0
1191,207.52110096666664,207.76747529999997,65.0,69.0
1192,208.15463496666666,208.6473836333333,53.0,90.0
1193,208.36581296666665,208.80752694999998,60.0,76.0
1194,208.78816896666666,208.96063099999998,53.0,86.0
1195,207.73227896666666,209.26331946666664,41.0,71.0
1196,207.94345696666664,209.36362901666664,48.0,56.0
1197,208.99934696666665,209.36538883333333,65.0,76.0
1198,208.57699096666664,209.36890846666665,69.0,100.0
1199,209.21052496666664,209.4868161833333,60.0,92.0
1200,209.84405896666664,210.33152818333332,55.0,85.0
1201,210.05523696666666,210.47583314999997,62.0,82.0
1202,210.47759296666666,210.57262306666664,55.0,86.0
1203,209.63288096666665,210.58142214999998,50.0,72.0
1204,209.42170296666666,210.62013811666665,43.0,79.0
1205,210.26641496666664,211.0072977833333,70.0,117.0
1206,210.68877096666665,211.05129319999998,67.0,62.0
1207,210.89994896666664,211.09880825,62.0,95.0
1208,211.53348296666664,212.00687365,51.0,90.0
1209,211.74466096666666,212.08078594999998,63.0,85.0
1210,211.32230496666665,212.21101238333333,46.0,75.0
1211,211.11112696666666,212.23564981666664,39.0,78.0
1212,212.16701696666664,212.3166013833333,51.0,93.0
1213,212.37819496666665,212.68264324999998,67.0,41.0
1214,211.95583896666665,212.68440306666665,70.0,122.0
1215,212.58937296666664,212.7811929833333,63.0,99.0
1216,213.22290696666664,213.70333691666664,58.0,99.0
1217,213.43408496666666,213.81244554999998,62.0,73.0
1218,213.01172896666665,213.9532308833333,53.0,63.0
1219,213.85644096666664,213.99898611666666,58.0,97.0
1220,212.80055096666666,214.04650116666664,46.0,74.0
1221,213.64526296666665,214.2119239333333,70.0,117.0
1222,214.06761896666666,214.38790559999998,65.0,83.0
1223,214.27879696666665,214.48997496666664,62.0,95.0
1224,214.91233096666664,215.37340293333332,53.0,86.0
1225,215.12350896666666,215.61801744999997,60.0,90.0
1226,214.48997496666664,215.62505671666665,41.0,72.0
1227,214.70115296666665,215.63209598333333,48.0,65.0
1228,215.54586496666664,215.6338558,53.0,72.0
1229,215.75704296666666,216.11780538333332,65.0,79.0
1230,215.33468696666665,216.11780538333332,69.0,92.0
1231,215.96822096666665,216.15652135,60.0,83.0
1232,216.60175496666665,217.07866528333332,51.0,93.0
1233,216.81293296666664,217.2264898833333,63.0,86.0
1234,217.02411096666665,217.37959393333333,70.0,112.0
1235,217.44646696666666,217.55557559999997,70.0,40.0
1236,217.44646696666666,217.56085505,67.0,63.0
1237,217.23528896666664,217.76147414999997,51.0,86.0
1238,217.65764496666665,217.76323396666666,67.0,83.0
1239,217.65764496666665,217.95857361666665,63.0,93.0
1240,217.65764496666665,217.96913251666666,70.0,99.0
1241,218.08000096666666,218.45836154999998,67.0,69.0
1242,218.08000096666666,218.49179806666666,70.0,72.0
1243,218.08000096666666,218.51115604999998,63.0,75.0
1244,218.50235696666664,218.74873129999997,51.0,85.0
1245,218.71353496666666,218.93527186666665,67.0,117.0
1246,216.39057696666666,218.94759058333332,46.0,52.0
1247,218.71353496666666,218.96342893333332,63.0,96.0
1248,216.17939896666664,218.9687083833333,39.0,70.0
1249,218.71353496666666,218.9687083833333,70.0,107.0
1250,218.92471296666665,219.07781701666664,51.0,96.0
1251,219.13589096666664,219.2696370333333,67.0,107.0
1252,219.34706896666665,219.41570181666665,67.0,33.0
1253,219.13589096666664,219.45441778333333,70.0,107.0
1254,219.34706896666665,219.48785429999998,63.0,107.0
1255,219.98060296666665,220.45047401666665,58.0,96.0
1256,220.19178096666664,220.58597989999998,62.0,83.0
1257,219.76942496666666,220.69332871666666,53.0,67.0
1258,220.61413696666665,220.71268669999998,58.0,93.0
1259,219.55824696666664,220.74084376666664,46.0,57.0
1260,220.40295896666666,220.88866836666665,70.0,117.0
1261,220.82531496666664,221.12976324999997,65.0,83.0
1262,221.03649296666666,221.2652691333333,62.0,93.0
1263,221.67002696666665,222.18037379999998,53.0,86.0
1264,221.88120496666664,222.49538098333332,60.0,81.0
1265,222.30356096666665,222.51121933333332,53.0,73.0
1266,221.24767096666665,222.7910301833333,41.0,72.0
1267,222.51473896666664,222.84910413333333,65.0,89.0
1268,222.09238296666663,222.9124575333333,69.0,99.0
1269,221.45884896666664,222.91773698333333,48.0,59.0
1270,222.72591696666666,222.9705314833333,60.0,90.0
1271,223.35945096666666,223.84867999999997,55.0,88.0
1272,223.57062896666665,223.92435211666665,62.0,93.0
1273,223.99298496666665,224.08273561666664,55.0,83.0
1274,222.93709496666665,224.08977488333332,43.0,72.0
1275,223.14827296666664,224.09153469999998,50.0,72.0
1276,224.20416296666664,224.58780299999998,67.0,64.0
1277,223.78180696666664,224.5913226333333,70.0,117.0
1278,224.41534096666663,224.61420024999998,62.0,95.0
1279,225.04887496666666,225.5521825333333,51.0,89.0
1280,225.26005296666665,225.61377611666666,63.0,97.0
1281,224.83769696666664,225.81263539999998,46.0,50.0
1282,224.62651896666665,225.85135136666665,39.0,86.0
1283,225.68240896666666,225.93934219999997,51.0,86.0
1284,225.47123096666664,226.20859414999998,70.0,100.0
1285,225.89358696666665,226.23675121666665,63.0,107.0
1286,226.10476496666664,226.28602608333333,67.0,72.0
1287,226.73829896666663,227.21168964999998,58.0,93.0
1288,226.94947696666665,227.23456726666666,65.0,81.0
1289,226.52712096666664,227.59532968333332,53.0,60.0
1290,227.37183296666666,227.60412876666663,58.0,90.0
1291,226.31594296666665,227.63228583333333,46.0,88.0
1292,227.16065496666664,227.63580546666665,70.0,97.0
1293,227.79418896666664,227.9437733833333,70.0,99.0
1294,227.58301096666665,227.96313136666666,65.0,82.0
1295,228.42772296666664,228.90287346666665,53.0,72.0
1296,228.63890096666665,229.10525238333332,60.0,76.0
1297,228.00536696666666,229.13516926666665,41.0,39.0
1298,228.21654496666665,229.13516926666665,48.0,72.0
1299,229.06125696666663,229.17036559999997,53.0,88.0
1300,229.27243496666665,229.68071243333333,65.0,74.0
1301,229.48361296666664,229.68423206666665,60.0,82.0
1302,228.85007896666664,229.7176685833333,69.0,97.0
1303,230.11714696666664,230.6169349,51.0,89.0
1304,230.53950296666665,230.9847365833333,67.0,66.0
1305,230.53950296666665,231.01641328333332,70.0,90.0
1306,230.32832496666666,231.07624704999998,63.0,59.0
1307,231.17303696666664,231.26278761666666,67.0,69.0
1308,231.17303696666664,231.30854284999998,70.0,66.0
1309,231.17303696666664,231.3279008333333,63.0,72.0
1310,230.96185896666665,231.74145774999997,51.0,61.0
1311,231.59539296666665,231.85408601666666,67.0,69.0
1312,231.59539296666665,231.89104216666664,70.0,55.0
1313,231.59539296666665,232.02302841666665,63.0,75.0
1314,232.01774896666666,232.29404018333332,51.0,66.0
1315,232.22892696666665,232.45594331666663,67.0,99.0
1316,232.22892696666665,232.4788209333333,63.0,95.0
1317,232.22892696666665,232.4858602,70.0,89.0
1318,229.90596896666665,232.59496883333333,46.0,56.0
1319,229.69479096666666,232.60728754999997,39.0,81.0
1320,232.44010496666664,232.61784644999997,51.0,73.0
1321,232.65128296666666,232.76743086666664,67.0,102.0
1322,232.65128296666666,232.7797495833333,63.0,93.0
1323,232.65128296666666,232.84662261666665,70.0,100.0
1324,233.49599496666664,234.05385685,53.0,72.0
1325,233.91835096666665,234.17704401666666,65.0,77.0
1326,233.91835096666665,234.18056364999998,69.0,88.0
1327,233.70717296666663,234.19288236666665,60.0,54.0
1328,234.55188496666665,234.65571414999997,65.0,72.0
1329,234.55188496666665,234.66099359999998,60.0,67.0
1330,234.55188496666665,234.66803286666664,69.0,68.0
1331,234.97424096666666,235.09390849999997,65.0,70.0
1332,234.97424096666666,235.11678611666665,69.0,68.0
1333,234.34070696666666,235.12030574999997,53.0,74.0
1334,235.39659696666664,235.60249551666664,53.0,41.0
1335,233.28481696666665,235.64473111666663,48.0,96.0
1336,233.07363896666664,235.6676087333333,41.0,85.0
1337,235.60777496666665,235.7168836,60.0,78.0
1338,235.60777496666665,235.73096213333332,65.0,85.0
1339,235.60777496666665,235.75383974999997,69.0,77.0
1340,236.03013096666663,236.07764601666665,65.0,77.0
1341,236.03013096666663,236.10052363333332,60.0,83.0
1342,236.03013096666663,236.10228345,69.0,66.0
1343,236.45248696666664,237.02090775,67.0,66.0
1344,236.45248696666664,237.14761455,70.0,75.0
1345,236.45248696666664,237.19512959999997,63.0,81.0
1346,237.08602096666664,237.33943456666665,51.0,29.0
1347,237.29719896666666,237.42918521666664,67.0,72.0
1348,237.29719896666666,237.45910209999997,70.0,77.0
1349,237.29719896666666,237.48021989999998,63.0,85.0
1350,237.93073296666665,237.9905667333333,67.0,95.0
1351,237.93073296666665,237.9905667333333,70.0,89.0
1352,237.93073296666665,238.01520416666665,63.0,93.0
1353,238.35308896666663,238.41468254999998,67.0,96.0
1354,238.35308896666663,238.43756016666666,63.0,89.0
1355,238.35308896666663,238.43931998333332,70.0,81.0
1356,237.71955496666664,238.55370806666664,51.0,52.0
1357,236.87484296666665,238.90391158333333,46.0,31.0
1358,236.45248696666664,238.9672649833333,39.0,85.0
1359,238.77544496666664,239.00422113333332,51.0,56.0
1360,238.98662296666666,239.06053526666665,67.0,102.0
1361,238.98662296666666,239.0781334333333,70.0,97.0
1362,238.98662296666666,239.0851727,63.0,97.0
1363,239.40897896666664,239.46001364999998,70.0,79.0
1364,239.40897896666664,239.49345016666663,63.0,89.0
1365,239.83133496666665,240.2765685833333,69.0,86.0
1366,239.83133496666665,240.28360784999998,65.0,90.0
1367,239.83133496666665,240.31176491666665,60.0,92.0
1368,240.67604696666663,240.78691541666666,65.0,75.0
1369,240.67604696666663,240.79219486666665,60.0,72.0
1370,240.67604696666663,240.79219486666665,69.0,69.0
1371,240.46486896666664,240.8168323,53.0,46.0
1372,241.09840296666664,241.53131786666665,53.0,52.0
1373,241.30958096666666,241.73897623333332,60.0,66.0
1374,241.30958096666666,241.79529036666665,65.0,66.0
1375,241.73193696666664,242.0522236,53.0,67.0
1376,242.15429296666665,242.36019151666665,53.0,72.0
1377,240.25369096666665,242.4833786833333,48.0,56.0
1378,241.94311496666666,242.59248731666665,60.0,78.0
1379,242.57664896666665,242.64528181666665,53.0,72.0
1380,242.57664896666665,242.6681594333333,48.0,39.0
1381,239.83133496666665,242.67343888333332,41.0,73.0
1382,242.78782696666664,243.19434461666665,65.0,83.0
1383,242.36547096666663,243.19434461666665,69.0,107.0
1384,242.99900496666663,243.23306058333333,60.0,74.0
1385,243.63253896666666,244.1464054333333,51.0,86.0
1386,244.05489496666664,244.2379159,70.0,117.0
1387,244.47725096666665,245.03687266666665,51.0,81.0
1388,243.84371696666665,245.11078496666664,63.0,57.0
1389,244.68842896666663,245.1970159833333,67.0,67.0
1390,244.68842896666663,245.3976350833333,70.0,61.0
1391,245.32196296666663,245.4557090333333,63.0,44.0
1392,245.74431896666664,245.9519773333333,70.0,1.0
1393,243.42136096666664,246.08396358333331,46.0,34.0
1394,245.11078496666664,246.08572339999998,51.0,72.0
1395,243.21018296666665,246.0998019333333,39.0,81.0
1396,247.01138696666663,247.50765526666663,58.0,97.0
1397,246.80020896666664,247.53933196666665,53.0,65.0
1398,247.22256496666665,247.55868994999997,62.0,92.0
1399,246.58903096666666,247.65547986666664,46.0,100.0
1400,247.43374296666664,247.72763234999996,70.0,127.0
1401,247.64492096666663,247.89481493333332,65.0,95.0
1402,247.85609896666665,248.11831164999998,62.0,95.0
1403,248.06727696666664,248.31365129999998,65.0,69.0
1404,248.70081096666664,249.1935596333333,53.0,90.0
1405,248.91198896666666,249.35370294999998,60.0,76.0
1406,249.33434496666663,249.50680699999998,53.0,86.0
1407,248.27845496666666,249.80949546666665,41.0,71.0
1408,248.48963296666665,249.90980501666664,48.0,56.0
1409,249.54552296666665,249.9115648333333,65.0,76.0
1410,249.12316696666664,249.91508446666666,69.0,100.0
1411,249.75670096666664,250.0329921833333,60.0,92.0
1412,250.39023496666664,250.87770418333332,55.0,85.0
1413,250.60141296666666,251.02200914999997,62.0,82.0
1414,251.02376896666664,251.11879906666664,55.0,86.0
1415,250.17905696666665,251.12759814999998,50.0,72.0
1416,249.96787896666663,251.16631411666665,43.0,79.0
1417,250.81259096666665,251.55347378333332,70.0,117.0
1418,251.23494696666666,251.59746919999998,67.0,62.0
1419,251.44612496666664,251.64498424999996,62.0,95.0
1420,252.07965896666664,252.55304965,51.0,90.0
1421,252.29083696666663,252.62696194999998,63.0,85.0
1422,251.86848096666665,252.7571883833333,46.0,75.0
1423,251.65730296666663,252.78182581666664,39.0,78.0
1424,252.71319296666664,252.8627773833333,51.0,93.0
1425,252.92437096666666,253.22881925,67.0,41.0
1426,252.50201496666665,253.23057906666665,70.0,122.0
1427,253.13554896666665,253.32736898333332,63.0,99.0
1428,253.76908296666664,254.24951291666665,58.0,99.0
1429,253.98026096666663,254.35862154999998,62.0,73.0
1430,253.55790496666665,254.4994068833333,53.0,63.0
1431,254.40261696666664,254.54516211666663,58.0,97.0
1432,253.34672696666664,254.59267716666665,46.0,74.0
1433,254.19143896666665,254.7580999333333,70.0,117.0
1434,254.61379496666663,254.93408159999998,65.0,83.0
1435,254.82497296666665,255.03615096666664,62.0,95.0
1436,255.45850696666665,255.9195789333333,53.0,86.0
1437,255.66968496666664,256.16419344999997,60.0,90.0
1438,255.03615096666664,256.1712327166666,41.0,72.0
1439,255.24732896666666,256.17827198333333,48.0,65.0
1440,256.0920409666667,256.1800318,53.0,72.0
1441,256.30321896666663,256.6639813833333,65.0,79.0
1442,255.88086296666665,256.6639813833333,69.0,92.0
1443,256.51439696666665,256.70269735,60.0,83.0
1444,257.14793096666665,257.6248412833333,51.0,93.0
1445,257.35910896666667,257.77266588333333,63.0,86.0
1446,257.57028696666663,257.9257699333333,70.0,112.0
1447,257.99264296666666,258.1017516,70.0,40.0
1448,257.99264296666666,258.10703105,67.0,63.0
1449,257.78146496666665,258.30765015,51.0,86.0
1450,258.2038209666666,258.30940996666664,67.0,83.0
1451,258.2038209666666,258.50474961666663,63.0,93.0
1452,258.2038209666666,258.51530851666666,70.0,99.0
1453,258.62617696666666,259.00453754999995,67.0,69.0
1454,258.62617696666666,259.03797406666666,70.0,72.0
1455,258.62617696666666,259.05733204999996,63.0,75.0
1456,259.04853296666664,259.2949073,51.0,85.0
1457,259.25971096666666,259.48144786666666,67.0,117.0
1458,256.93675296666663,259.4937665833333,46.0,52.0
1459,259.25971096666666,259.5096049333333,63.0,96.0
1460,256.72557496666667,259.5148843833333,39.0,70.0
1461,259.25971096666666,259.5148843833333,70.0,107.0
1462,259.4708889666666,259.62399301666665,51.0,96.0
1463,259.68206696666664,259.8158130333333,67.0,107.0
1464,259.89324496666666,259.96187781666663,67.0,33.0
1465,259.68206696666664,260.00059378333333,70.0,107.0
1466,259.89324496666666,260.0340303,63.0,107.0
1467,260.52677896666665,260.99665001666665,58.0,96.0
1468,260.7379569666667,261.1321559,62.0,83.0
1469,260.31560096666664,261.23950471666666,53.0,67.0
1470,261.16031296666665,261.25886269999995,58.0,93.0
1471,260.1044229666666,261.2870197666666,46.0,57.0
1472,260.94913496666663,261.43484436666665,70.0,117.0
1473,261.37149096666667,261.67593925,65.0,83.0
1474,261.58266896666663,261.81144513333334,62.0,93.0
1475,262.21620296666663,262.7265498,53.0,86.0
1476,262.42738096666665,263.0415569833333,60.0,81.0
1477,262.8497369666666,263.0573953333333,53.0,73.0
1478,261.79384696666665,263.3372061833333,41.0,72.0
1479,263.06091496666664,263.3952801333333,65.0,89.0
1480,262.63855896666666,263.4586335333333,69.0,99.0
1481,262.00502496666667,263.46391298333333,48.0,59.0
1482,263.27209296666666,263.51670748333333,60.0,90.0
1483,263.90562696666666,264.394856,55.0,88.0
1484,264.1168049666666,264.4705281166666,62.0,93.0
1485,264.53916096666666,264.62891161666664,55.0,83.0
1486,263.4832709666666,264.6359508833333,43.0,72.0
1487,263.69444896666664,264.63771069999996,50.0,72.0
1488,264.7503389666666,265.13397899999995,67.0,64.0
1489,264.32798296666664,265.13749863333334,70.0,117.0
1490,264.96151696666664,265.16037624999996,62.0,95.0
1491,265.59505096666663,266.0983585333333,51.0,89.0
1492,265.80622896666665,266.15995211666666,63.0,97.0
1493,265.3838729666667,266.3588114,46.0,50.0
1494,265.17269496666665,266.3975273666666,39.0,86.0
1495,266.22858496666663,266.4855182,51.0,86.0
1496,266.01740696666667,266.75477014999996,70.0,100.0
1497,266.43976296666665,266.7829272166666,63.0,107.0
1498,266.65094096666667,266.8322020833333,67.0,72.0
1499,267.28447496666666,267.75786565,58.0,93.0
1500,267.4956529666666,267.78074326666666,65.0,81.0
1501,267.07329696666665,268.1415056833333,53.0,60.0
1502,267.91800896666666,268.15030476666664,58.0,90.0
1503,266.8621189666666,268.1784618333333,46.0,88.0
1504,267.70683096666664,268.1819814666666,70.0,97.0
1505,268.34036496666664,268.4899493833333,70.0,99.0
1506,268.1291869666666,268.50930736666663,65.0,82.0
1507,268.97389896666664,269.4490494666666,53.0,72.0
1508,269.18507696666666,269.6514283833333,60.0,76.0
1509,268.55154296666666,269.68134526666665,41.0,39.0
1510,268.7627209666666,269.68134526666665,48.0,72.0
1511,269.60743296666664,269.71654159999997,53.0,88.0
1512,269.81861096666665,270.22688843333333,65.0,74.0
1513,270.0297889666667,270.23040806666666,60.0,82.0
1514,269.3962549666666,270.2638445833333,69.0,97.0
1515,270.66332296666667,271.1631109,51.0,89.0
1516,271.08567896666665,271.5309125833333,67.0,66.0
1517,271.08567896666665,271.5625892833333,70.0,90.0
1518,270.87450096666663,271.62242304999995,63.0,59.0
1519,271.71921296666665,271.80896361666663,67.0,69.0
1520,271.71921296666665,271.85471885,70.0,66.0
1521,271.71921296666665,271.87407683333333,63.0,72.0
1522,271.5080349666666,272.28763375,51.0,61.0
1523,272.1415689666666,272.40026201666666,67.0,69.0
1524,272.1415689666666,272.43721816666664,70.0,55.0
1525,272.1415689666666,272.56920441666665,63.0,75.0
1526,272.56392496666666,272.8402161833333,51.0,66.0
1527,272.7751029666666,273.00211931666666,67.0,99.0
1528,272.7751029666666,273.0249969333333,63.0,95.0
1529,272.7751029666666,273.0320362,70.0,89.0
1530,270.45214496666665,273.1411448333333,46.0,56.0
1531,270.24096696666663,273.15346354999997,39.0,81.0
1532,272.98628096666664,273.16402245,51.0,73.0
1533,273.19745896666666,273.31360686666665,67.0,102.0
1534,273.19745896666666,273.3259255833333,63.0,93.0
1535,273.19745896666666,273.39279861666665,70.0,100.0
1536,274.0421709666666,274.60003285,53.0,72.0
1537,274.46452696666665,274.72322001666663,65.0,77.0
1538,274.46452696666665,274.72673964999996,69.0,88.0
1539,274.25334896666664,274.73905836666665,60.0,54.0
1540,275.09806096666665,275.20189015,65.0,72.0
1541,275.09806096666665,275.2071696,60.0,67.0
1542,275.09806096666665,275.21420886666664,69.0,68.0
1543,275.52041696666663,275.6400845,65.0,70.0
1544,275.52041696666663,275.6629621166666,69.0,68.0
1545,274.88688296666663,275.66648175,53.0,74.0
1546,275.94277296666667,276.14867151666664,53.0,41.0
1547,273.83099296666666,276.19090711666666,48.0,96.0
1548,273.61981496666664,276.2137847333333,41.0,85.0
1549,276.1539509666666,276.26305959999996,60.0,78.0
1550,276.1539509666666,276.2771381333333,65.0,85.0
1551,276.1539509666666,276.30001575,69.0,77.0
1552,276.57630696666666,276.6238220166666,65.0,77.0
1553,276.57630696666666,276.6466996333333,60.0,83.0
1554,276.57630696666666,276.64845944999996,69.0,66.0
1555,276.99866296666664,277.56708375,67.0,66.0
1556,276.99866296666664,277.69379054999996,70.0,75.0
1557,276.99866296666664,277.7413056,63.0,81.0
1558,277.63219696666664,277.8856105666666,51.0,29.0
1559,277.84337496666666,277.97536121666667,67.0,72.0
1560,277.84337496666666,278.0052781,70.0,77.0
1561,277.84337496666666,278.02639589999995,63.0,85.0
1562,278.47690896666666,278.5367427333333,67.0,95.0
1563,278.47690896666666,278.5367427333333,70.0,89.0
1564,278.47690896666666,278.56138016666665,63.0,93.0
1565,278.89926496666664,278.96085854999995,67.0,96.0
1566,278.89926496666664,278.98373616666663,63.0,89.0
1567,278.89926496666664,278.9854959833333,70.0,81.0
1568,278.26573096666664,279.0998840666666,51.0,52.0
1569,277.4210189666666,279.4500875833333,46.0,31.0
1570,276.99866296666664,279.5134409833333,39.0,85.0
1571,279.3216209666666,279.5503971333333,51.0,56.0
1572,279.53279896666663,279.60671126666665,67.0,102.0
1573,279.53279896666663,279.62430943333334,70.0,97.0
1574,279.53279896666663,279.6313487,63.0,97.0
1575,279.95515496666667,280.00618964999995,70.0,79.0
1576,279.95515496666667,280.03962616666666,63.0,89.0
1577,280.37751096666665,280.8227445833333,69.0,86.0
1578,280.37751096666665,280.82978384999996,65.0,90.0
1579,280.37751096666665,280.8579409166666,60.0,92.0
1580,281.22222296666666,281.33309141666666,65.0,75.0
1581,281.22222296666666,281.33837086666665,60.0,72.0
1582,281.22222296666666,281.33837086666665,69.0,69.0
1583,281.01104496666665,281.3630083,53.0,46.0
1584,281.64457896666664,282.07749386666666,53.0,52.0
1585,281.85575696666666,282.2851522333333,60.0,66.0
1586,281.85575696666666,282.3414663666666,65.0,66.0
1587,282.27811296666664,282.5983996,53.0,67.0
1588,282.7004689666666,282.90636751666665,53.0,72.0
1589,280.7998669666666,283.0295546833333,48.0,56.0
1590,282.48929096666666,283.1386633166666,60.0,78.0
1591,283.12282496666666,283.1914578166666,53.0,72.0
1592,283.12282496666666,283.2143354333333,48.0,39.0
1593,280.37751096666665,283.2196148833333,41.0,73.0
1594,283.3340029666666,283.74052061666663,65.0,83.0
1595,282.91164696666664,283.74052061666663,69.0,107.0
1596,283.54518096666663,283.75635896666665,60.0,74.0
1597,283.75635896666665,284.4321285666666,70.0,82.0
1598,283.75635896666665,284.4585258166666,67.0,71.0
1599,283.75635896666665,284.4673249,63.0,88.0
1600,284.17871496666663,284.60107096666667,46.0,29.0
1601,283.75635896666665,284.66970381666664,51.0,74.0
1602,284.60107096666667,284.6873019833333,70.0,77.0
1603,284.60107096666667,284.69434125,63.0,88.0
1604,284.60107096666667,284.6978608833333,67.0,74.0
1605,283.75635896666665,284.7418563,39.0,66.0
1606,285.02342696666665,285.0832607333333,39.0,48.0
1607,285.02342696666665,285.1043785333333,46.0,46.0
1608,285.02342696666665,285.1149374333333,51.0,61.0
1609,285.23460496666667,287.0753732,46.0,77.0
1610,285.23460496666667,287.0753732,51.0,79.0
1611,285.23460496666667,287.08065265,39.0,56.0
1612,285.23460496666667,287.0947311833333,63.0,72.0
1613,285.23460496666667,287.10529008333333,67.0,59.0
1614,285.23460496666667,287.1211284333333,70.0,63.0
1615,287.13520696666666,287.67195104999996,69.0,56.0
1616,287.13520696666666,287.70714738333334,65.0,68.0
1617,287.76874096666666,288.03975273333333,60.0,57.0
1618,287.9799189666666,288.06263034999995,65.0,85.0
1619,287.9799189666666,288.06966961666666,69.0,82.0
1620,287.55756296666664,288.07318925,53.0,77.0
1621,288.6134529666666,288.73488031666665,65.0,66.0
1622,288.6134529666666,288.74015976666664,69.0,59.0
1623,288.40227496666665,289.13787833333333,53.0,52.0
1624,289.03580896666665,289.2329084333333,65.0,63.0
1625,289.03580896666665,289.27690385,69.0,59.0
1626,289.24698696666667,289.4511257,60.0,33.0
1627,289.66934296666665,289.74853471666665,65.0,71.0
1628,289.45816496666663,289.7872506833333,53.0,64.0
1629,289.88052096666667,290.0828998833333,53.0,67.0
1630,287.13520696666666,290.0934587833333,41.0,73.0
1631,287.3463849666666,290.36974999999995,48.0,66.0
1632,290.30287696666664,290.5175746,65.0,62.0
1633,290.0916989666666,290.5263736833333,60.0,66.0
1634,289.66934296666665,290.54573166666665,69.0,75.0
1635,290.93641096666664,291.4045222,55.0,66.0
1636,291.14758896666666,291.46435596666663,62.0,53.0
1637,291.3587669666666,291.59106276666665,67.0,73.0
1638,291.3587669666666,291.78992205,70.0,88.0
1639,291.9923009666666,292.25627346666664,67.0,78.0
1640,291.9923009666666,292.27387163333333,70.0,79.0
1641,291.78112296666666,292.49912816666665,55.0,66.0
1642,292.41465696666666,292.903886,67.0,81.0
1643,292.41465696666666,292.9179645333333,70.0,96.0
1644,292.6258349666666,292.93732251666665,62.0,52.0
1645,292.83701296666663,293.01475445,55.0,85.0
1646,290.7252329666666,293.21537355,50.0,75.0
1647,290.51405496666666,293.24881006666664,43.0,60.0
1648,293.04819096666665,293.5198218333333,67.0,93.0
1649,293.04819096666665,293.84538791666665,70.0,95.0
1650,293.68172496666665,293.8893833333333,67.0,71.0
1651,293.47054696666663,293.9105011333333,62.0,72.0
1652,294.52643696666667,294.8396843333333,60.0,74.0
1653,294.31525896666665,294.8502432333333,53.0,74.0
1654,294.7376149666666,295.1494120666666,65.0,82.0
1655,294.7376149666666,295.17404949999997,69.0,76.0
1656,295.3711489666666,295.5048950333333,65.0,71.0
1657,295.3711489666666,295.5084146666666,69.0,70.0
1658,295.15997096666666,295.98356516666666,53.0,76.0
1659,295.79350496666666,296.2968125333333,69.0,74.0
1660,295.79350496666666,296.3020919833333,65.0,78.0
1661,296.0046829666666,296.35840611666663,60.0,60.0
1662,296.21586096666664,296.45871566666665,53.0,78.0
1663,294.10408096666663,296.73148725,48.0,61.0
1664,293.89290296666667,296.7367667,41.0,62.0
1665,296.6382169666666,296.73852651666664,53.0,77.0
1666,297.06057296666665,297.22951536666665,65.0,60.0
1667,296.84939496666664,297.2400742666666,60.0,82.0
1668,296.42703896666666,297.2523929833333,69.0,89.0
1669,297.9052849666666,298.20445379999995,55.0,67.0
1670,298.11646296666663,298.20445379999995,58.0,90.0
1671,297.69410696666665,298.2150127,51.0,81.0
1672,298.11646296666663,298.22557159999997,63.0,99.0
1673,298.74999696666663,298.80631109999996,58.0,79.0
1674,298.74999696666663,298.8344681666666,63.0,96.0
1675,298.53881896666667,298.8520663333333,51.0,68.0
1676,299.59470896666664,299.6914988833333,70.0,40.0
1677,299.59470896666664,299.69501851666666,67.0,61.0
1678,299.59470896666664,299.71965594999995,63.0,71.0
1679,299.17235296666666,299.8498823833333,51.0,63.0
1680,299.80588696666666,300.02410423333333,63.0,85.0
1681,297.48292896666663,300.03818276666664,46.0,32.0
1682,299.80588696666666,300.04698184999995,67.0,92.0
1683,297.2717509666666,300.0628202,39.0,74.0
1684,299.80588696666666,300.1050558,70.0,93.0
1685,300.0170649666666,300.1508110333333,51.0,85.0
1686,300.43942096666666,300.54676978333333,67.0,66.0
1687,300.22824296666664,300.56964739999995,63.0,88.0
1688,300.43942096666666,300.5925250166666,70.0,72.0
1689,301.49531096666664,301.62201776666666,65.0,83.0
1690,301.49531096666664,301.6572141,69.0,82.0
1691,301.2841329666666,301.67481226666666,60.0,69.0
1692,301.07295496666666,301.6994497,53.0,72.0
1693,302.12884496666663,302.2185956166666,65.0,70.0
1694,302.12884496666663,302.23443396666664,60.0,66.0
1695,302.12884496666663,302.26435084999997,69.0,74.0
1696,301.9176669666666,302.80989401666665,53.0,63.0
1697,302.5512009666666,302.9489195333333,69.0,72.0
1698,302.5512009666666,303.00875329999997,65.0,76.0
1699,302.76237896666663,303.0949843166666,60.0,55.0
1700,302.97355696666665,303.2322500166666,53.0,71.0
1701,303.39591296666663,303.5507768333333,53.0,74.0
1702,300.6505989666666,303.64756674999995,41.0,69.0
1703,303.18473496666667,303.6634051,65.0,74.0
1704,300.86177696666664,303.9097794333333,48.0,58.0
1705,303.81826896666666,303.98193191666667,65.0,67.0
1706,303.18473496666667,303.99601044999997,69.0,74.0
1707,303.60709096666665,304.0083291666666,60.0,76.0
1708,304.87415896666664,304.94631145,67.0,79.0
1709,304.87415896666664,304.96742924999995,70.0,92.0
1710,304.6629809666666,304.9832676,62.0,71.0
1711,304.45180296666666,305.00966485,55.0,82.0
1712,305.50769296666664,305.6062427,67.0,81.0
1713,305.50769296666664,305.61856141666664,70.0,76.0
1714,305.50769296666664,305.65375774999995,62.0,71.0
1715,305.2965149666666,306.16058495,55.0,62.0
1716,305.9300489666666,306.27849266666664,67.0,85.0
1717,305.9300489666666,306.27849266666664,70.0,85.0
1718,306.35240496666665,306.59349985,55.0,72.0
1719,306.14122696666664,306.6621327,62.0,71.0
1720,304.24062496666664,306.7149272,50.0,71.0
1721,304.0294469666666,306.7395646333333,43.0,59.0
1722,306.77476096666663,306.96482116666664,67.0,46.0
1723,307.1971169666666,307.3783780833333,67.0,65.0
1724,306.5635829666666,307.3942164333333,70.0,93.0
1725,306.98593896666665,307.4258931333333,62.0,72.0
1726,308.25300696666665,308.44306716666665,65.0,75.0
1727,308.25300696666665,308.45362606666663,69.0,77.0
1728,307.83065096666667,308.4589055166666,53.0,71.0
1729,308.0418289666666,308.5029009333333,60.0,66.0
1730,308.88654096666664,309.00092904999997,65.0,72.0
1731,308.88654096666664,309.0097281333333,69.0,68.0
1732,308.88654096666664,309.0361253833333,60.0,72.0
1733,309.3088969666666,309.37752981666665,65.0,73.0
1734,309.3088969666666,309.38808871666663,69.0,65.0
1735,309.3088969666666,309.4056868833333,60.0,69.0
1736,308.6753629666666,309.4778393666666,53.0,69.0
1737,309.73125296666666,309.8491606833333,53.0,67.0
1738,307.61947296666665,309.8755579333333,48.0,49.0
1739,307.40829496666663,309.87907756666664,41.0,69.0
1740,309.9424309666666,310.39470385,65.0,79.0
1741,310.36478696666666,310.42814036666664,60.0,69.0
1742,309.9424309666666,310.43165999999997,69.0,75.0
1743,310.78714296666664,311.1954204333333,67.0,56.0
1744,310.78714296666664,311.2429354833333,70.0,55.0
1745,310.78714296666664,311.26581309999995,63.0,53.0
1746,311.63185496666665,312.0348529833333,67.0,57.0
1747,311.63185496666665,312.0559707833333,70.0,57.0
1748,311.63185496666665,312.1404419833333,63.0,68.0
1749,312.05421096666663,312.1457214333333,51.0,34.0
1750,311.2094989666666,312.1738785,46.0,42.0
1751,310.78714296666664,312.18091776666665,39.0,83.0
1752,312.26538896666665,315.7410268833333,46.0,62.0
1753,312.26538896666665,315.74806615,51.0,63.0
1754,312.26538896666665,315.7621446833333,67.0,69.0
1755,312.26538896666665,315.7850223,70.0,71.0
1756,312.26538896666665,315.78678211666664,63.0,73.0
1757,312.26538896666665,315.80262046666667,39.0,59.0
