,start,end,pitch,velocity
0,21.079455785416663,21.647023835416665,69.0,61.0
1,21.619996785416664,22.17630356458333,77.0,74.0
2,22.160537785416665,22.701078785416662,73.0,65.0
3,22.701078785416662,23.511890285416662,76.0,71.0
4,23.511890285416662,23.78103465833333,74.0,65.0
5,23.782160785416664,25.401531531249997,74.0,74.0
6,25.40265765833333,25.67292815833333,74.0,75.0
7,25.67292815833333,25.94432478541666,76.0,61.0
8,25.94432478541666,26.484865785416662,77.0,69.0
9,26.484865785416662,26.728109235416664,76.0,67.0
10,26.728109235416664,27.025406785416664,74.0,59.0
11,27.025406785416664,29.72698565833333,70.0,62.0
12,29.728111785416665,30.268652785416663,70.0,61.0
13,30.268652785416663,30.893653316666665,79.0,85.0
14,30.809193785416664,31.34860865833333,77.0,79.0
15,31.349734785416665,31.901537056249996,77.0,75.0
16,31.890275785416662,32.160546285416665,79.0,75.0
17,32.160546285416665,33.78104315833333,76.0,65.0
18,33.782169285416664,34.05131365833333,76.0,64.0
19,34.05243978541667,34.32271028541666,76.0,68.0
20,34.32271028541666,34.592980785416664,77.0,68.0
21,34.592980785416664,35.13352178541666,79.0,81.0
22,35.13352178541666,35.403792285416664,77.0,63.0
23,35.403792285416664,35.674062785416666,76.0,66.0
24,35.674062785416666,38.37564165833333,69.0,65.0
25,38.37676778541666,39.03780438333333,69.0,66.0
26,38.917308785416665,39.45784978541666,77.0,68.0
27,39.45784978541666,39.99839078541666,73.0,63.0
28,39.99839078541666,40.80920228541666,76.0,71.0
29,40.80920228541666,42.69996965833333,74.0,67.0
30,42.70109578541666,43.24163678541666,74.0,70.0
31,43.24163678541666,43.782177785416664,82.0,67.0
32,43.782177785416664,44.32271878541666,78.0,74.0
33,44.32271878541666,44.72699840833333,81.0,75.0
34,44.72812453541666,45.13353028541666,81.0,74.0
35,45.13353028541666,45.40154853125,79.0,74.0
36,45.402674658333325,47.024297658333325,79.0,76.0
37,47.02542378541666,47.29569428541666,79.0,83.0
38,47.29569428541666,47.56596478541666,81.0,67.0
39,47.56596478541666,48.10650578541666,82.0,75.0
40,48.10650578541666,48.37677628541666,81.0,74.0
41,48.37677628541666,48.64704678541666,79.0,73.0
42,48.64704678541666,49.18646165833333,77.0,74.0
43,49.18758778541666,49.45785828541666,77.0,65.0
44,49.45785828541666,49.72812878541666,79.0,71.0
45,49.72812878541666,50.26866978541666,81.0,81.0
46,50.26866978541666,50.53894028541666,79.0,83.0
47,50.53894028541666,50.871147775,77.0,63.0
48,50.80921078541667,51.34862565833333,76.0,67.0
49,51.34975178541666,51.62002228541667,76.0,67.0
50,51.62002228541667,51.89029278541666,77.0,66.0
51,51.89029278541666,52.43083378541667,79.0,100.0
52,52.43083378541667,52.70110428541666,77.0,68.0
53,52.70110428541666,52.97137478541666,76.0,65.0
54,52.97137478541666,55.66372184791666,74.0,69.0
55,55.66372184791666,56.198319777083334,77.0,93.0
56,56.19943584791667,56.73514984791667,77.0,85.0
57,56.73514984791667,57.270863847916665,74.0,74.0
58,57.270863847916665,58.077552285416665,77.0,90.0
59,58.077552285416665,58.34669665833333,76.0,65.0
60,58.34782278541666,59.96944578541667,76.0,77.0
61,59.96944578541667,60.50886065833333,79.0,83.0
62,60.509986785416665,61.05052778541666,79.0,87.0
63,61.05052778541666,61.59178526458333,76.0,70.0
64,61.59178526458333,62.409966264583325,79.0,93.0
65,62.409966264583325,62.68155690208333,77.0,69.0
66,62.68269326458333,64.30851278541665,77.0,79.0
67,64.30851278541665,64.57765715833332,81.0,100.0
68,64.57878328541666,64.84792765833332,81.0,87.0
69,64.84905378541666,65.38959478541666,81.0,98.0
70,65.38959478541666,65.65986528541666,79.0,74.0
71,65.65986528541666,65.93013578541665,77.0,71.0
72,65.93013578541665,66.74094728541665,81.0,108.0
73,66.74094728541665,67.01009165833332,79.0,100.0
74,67.01121778541666,68.63284078541666,79.0,95.0
75,68.63284078541666,68.90198515833333,82.0,108.0
76,68.90311128541666,69.17225565833333,82.0,81.0
77,69.17338178541667,69.44365228541666,82.0,93.0
78,69.44365228541666,69.71321884791666,81.0,74.0
79,69.71321884791666,69.98107584791667,79.0,83.0
80,69.98107584791667,70.78464684791666,77.0,74.0
81,70.78464684791666,72.65852977708333,81.0,95.0
82,72.65964584791666,72.92750284791667,81.0,74.0
83,72.92750284791667,73.19535984791666,80.0,67.0
84,73.19535984791666,73.46392078541668,81.0,95.0
85,73.46392078541668,73.73306515833333,84.0,50.0
86,73.73419128541667,74.00446178541667,84.0,108.0
87,74.00446178541667,74.27473228541668,82.0,79.0
88,74.27473228541668,74.54387665833333,81.0,70.0
89,74.54500278541667,74.769102075,81.0,77.0
90,74.77022820208333,75.08554378541668,81.0,52.0
91,75.08554378541668,75.35581428541667,80.0,67.0
92,75.35581428541667,76.97743728541667,82.0,95.0
93,76.97743728541667,77.24770778541667,79.0,90.0
94,77.24770778541667,77.50896926875001,78.0,68.0
95,77.50896926875001,77.78824878541667,79.0,95.0
96,77.78824878541667,78.05739315833334,82.0,111.0
97,78.05851928541666,78.32878978541667,82.0,100.0
98,78.32878978541667,78.57203323541667,81.0,90.0
99,78.57203323541667,78.86820465833334,79.0,86.0
100,78.86933078541666,79.40987178541667,79.0,90.0
101,79.40987178541667,79.68014228541666,77.0,72.0
102,79.68014228541666,81.30176528541666,81.0,90.0
103,81.30176528541666,81.61257636041667,74.0,65.0
104,81.57203578541667,81.88847749583334,76.0,67.0
105,81.84230628541667,82.11257678541666,77.0,70.0
106,82.11257678541666,82.65241384791666,81.0,69.0
107,82.65241384791666,82.92027084791667,79.0,85.0
108,82.92027084791667,83.18701177708333,77.0,74.0
109,83.18812784791666,83.72384184791666,77.0,73.0
110,83.72384184791666,83.99058277708333,76.0,64.0
111,83.99169884791667,85.86740178541667,76.0,81.0
112,85.86740178541667,86.13654615833333,69.0,60.0
113,86.13767228541667,86.40794278541667,69.0,58.0
114,86.40794278541667,87.21875428541667,77.0,72.0
115,87.21875428541667,87.48902478541667,73.0,68.0
116,87.48902478541667,90.11290088958333,74.0,74.0
117,107.48904178541667,108.05660983541667,69.0,61.0
118,108.02958278541666,108.58588956458334,77.0,74.0
119,108.57012378541667,109.11066478541667,73.0,65.0
120,109.11066478541667,109.92147628541667,76.0,71.0
121,109.92147628541667,110.19062065833333,74.0,65.0
122,110.19174678541667,111.81224365833333,74.0,74.0
123,111.81336978541667,112.08364028541666,74.0,75.0
124,112.08364028541666,112.35391078541667,76.0,61.0
125,112.35391078541667,112.89445178541666,77.0,69.0
126,112.89445178541666,113.14670425208334,76.0,67.0
127,113.14670425208334,113.43499278541667,74.0,59.0
128,113.43499278541667,116.13657165833334,70.0,62.0
129,116.13769778541666,116.67823878541667,70.0,61.0
130,116.67823878541667,117.30323931666666,79.0,85.0
131,117.21877978541667,117.75819465833334,77.0,79.0
132,117.75932078541666,118.31112305625,77.0,75.0
133,118.29986178541667,118.57013228541666,79.0,75.0
134,118.57013228541666,120.19062915833334,76.0,65.0
135,120.19175528541666,120.46089965833333,76.0,64.0
136,120.46202578541667,120.73229628541667,76.0,68.0
137,120.73229628541667,121.00256678541666,77.0,68.0
138,121.00256678541666,121.54310778541667,79.0,81.0
139,121.54310778541667,121.81337828541666,77.0,63.0
140,121.81337828541666,122.08364878541667,76.0,66.0
141,122.08364878541667,124.78522765833333,69.0,65.0
142,124.78635378541667,125.44739038333333,69.0,66.0
143,125.32689478541667,125.86743578541666,77.0,68.0
144,125.86743578541666,126.40797678541666,73.0,63.0
145,126.40797678541666,127.21878828541666,76.0,71.0
146,127.21878828541666,129.10955565833333,74.0,67.0
147,129.11068178541666,129.65122278541668,74.0,70.0
148,129.65122278541668,130.19176378541667,82.0,67.0
149,130.19176378541667,130.73230478541666,78.0,74.0
150,130.73230478541666,131.13658440833333,81.0,75.0
151,131.13771053541666,131.54311628541666,81.0,74.0
152,131.54311628541666,131.81226065833334,79.0,74.0
153,131.81338678541667,133.43388365833334,79.0,76.0
154,133.43500978541667,133.70528028541668,79.0,83.0
155,133.70528028541668,133.97555078541666,81.0,67.0
156,133.97555078541666,134.51609178541668,82.0,75.0
157,134.51609178541668,134.78636228541666,81.0,74.0
158,134.78636228541666,135.05663278541667,79.0,73.0
159,135.05663278541667,135.59604765833333,77.0,74.0
160,135.59717378541666,135.86744428541667,77.0,65.0
161,135.86744428541667,136.13771478541668,79.0,71.0
162,136.13771478541668,136.67825578541667,81.0,81.0
163,136.67825578541667,136.94852628541668,79.0,83.0
164,136.94852628541668,137.280733775,77.0,63.0
165,137.21879678541666,137.75821165833332,76.0,67.0
166,137.75933778541668,138.02960828541666,76.0,67.0
167,138.02960828541666,138.29987878541667,77.0,66.0
168,138.29987878541667,138.84041978541666,79.0,100.0
169,138.84041978541666,139.11069028541667,77.0,68.0
170,139.11069028541667,139.38096078541668,76.0,65.0
171,139.38096078541668,142.07330784791668,74.0,69.0
172,142.07330784791668,142.60790577708335,77.0,93.0
173,142.60902184791667,143.14473584791668,77.0,85.0
174,143.14473584791668,143.68044984791666,74.0,74.0
175,143.68044984791666,144.48713828541665,77.0,90.0
176,144.48713828541665,144.75628265833333,76.0,65.0
177,144.75740878541666,146.37903178541666,76.0,77.0
178,146.37903178541666,146.91844665833332,79.0,83.0
179,146.91957278541665,147.46011378541667,79.0,87.0
180,147.46011378541667,148.00137126458333,76.0,70.0
181,148.00137126458333,148.8195522645833,79.0,93.0
182,148.8195522645833,149.0911429020833,77.0,69.0
183,149.0922792645833,150.71809878541663,77.0,79.0
184,150.71809878541663,150.9872431583333,81.0,100.0
185,150.98836928541664,151.2575136583333,81.0,87.0
186,151.25863978541665,151.79918078541664,81.0,98.0
187,151.79918078541664,152.06945128541665,79.0,74.0
188,152.06945128541665,152.33972178541663,77.0,71.0
189,152.33972178541663,153.15053328541663,81.0,108.0
190,153.15053328541663,153.4196776583333,79.0,100.0
191,153.42080378541664,155.04242678541664,79.0,95.0
192,155.04242678541664,155.31157115833332,82.0,108.0
193,155.31269728541665,155.5818416583333,82.0,81.0
194,155.58296778541666,155.85323828541664,82.0,93.0
195,155.85323828541664,156.12280484791663,81.0,74.0
196,156.12280484791663,156.39066184791665,79.0,83.0
197,156.39066184791665,157.19423284791665,77.0,74.0
198,157.19423284791665,159.0681157770833,81.0,95.0
199,159.06923184791663,159.33708884791665,81.0,74.0
200,159.33708884791665,159.60494584791664,80.0,67.0
201,159.60494584791664,159.87350678541665,81.0,95.0
202,159.87350678541665,160.1426511583333,84.0,50.0
203,160.14377728541663,160.41404778541664,84.0,108.0
204,160.41404778541664,160.68431828541665,82.0,79.0
205,160.68431828541665,160.9534626583333,81.0,70.0
206,160.95458878541663,161.17868807499997,81.0,77.0
207,161.17981420208332,161.49512978541665,81.0,52.0
208,161.49512978541665,161.76540028541663,80.0,67.0
209,161.76540028541663,163.38702328541663,82.0,95.0
210,163.38702328541663,163.65729378541664,79.0,90.0
211,163.65729378541664,163.91855526874997,78.0,68.0
212,163.91855526874997,164.19783478541663,79.0,95.0
213,164.19783478541663,164.46697915833332,82.0,111.0
214,164.46810528541664,164.73837578541665,82.0,100.0
215,164.73837578541665,164.98161923541664,81.0,90.0
216,164.98161923541664,165.27779065833332,79.0,86.0
217,165.27891678541664,165.81945778541666,79.0,90.0
218,165.81945778541666,166.08972828541664,77.0,72.0
219,166.08972828541664,167.71135128541664,81.0,90.0
220,167.71135128541664,168.02216236041664,74.0,65.0
221,167.98162178541665,168.2980634958333,76.0,67.0
222,168.25189228541666,168.52216278541664,77.0,70.0
223,168.52216278541664,169.06199984791664,81.0,69.0
224,169.06199984791664,169.32985684791666,79.0,85.0
225,169.32985684791666,169.59659777708333,77.0,74.0
226,169.59771384791665,170.13342784791666,77.0,73.0
227,170.13342784791666,170.4001687770833,76.0,64.0
228,170.40128484791666,172.27698778541665,76.0,81.0
229,172.27698778541665,172.5461321583333,69.0,60.0
230,172.54725828541663,172.81752878541664,69.0,58.0
231,172.81752878541664,173.62834028541664,77.0,72.0
232,173.62834028541664,173.89861078541665,73.0,68.0
233,173.89861078541665,176.60131578541663,74.0,74.0
234,176.60131578541663,177.1400367770833,77.0,93.0
235,177.14115284791663,177.67686684791664,77.0,85.0
236,177.67686684791664,178.21258084791666,74.0,74.0
237,178.21258084791666,179.01926928541664,77.0,90.0
238,179.01926928541664,179.28841365833333,76.0,65.0
239,179.28953978541665,180.91116278541665,76.0,77.0
240,180.91116278541665,181.45057765833332,79.0,83.0
241,181.45170378541664,181.99224478541666,79.0,87.0
242,181.99224478541666,182.53350226458332,76.0,70.0
243,182.53350226458332,183.3516832645833,79.0,93.0
244,183.3516832645833,183.6232739020833,77.0,69.0
245,183.6244102645833,185.25022978541662,77.0,79.0
246,185.25022978541662,185.5193741583333,81.0,100.0
247,185.52050028541663,185.7896446583333,81.0,87.0
248,185.79077078541664,186.33131178541663,81.0,98.0
249,186.33131178541663,186.60158228541664,79.0,74.0
250,186.60158228541664,186.87185278541662,77.0,71.0
251,186.87185278541662,187.68266428541662,81.0,108.0
252,187.68266428541662,187.9518086583333,79.0,100.0
253,187.95293478541663,189.57455778541663,79.0,95.0
254,189.57455778541663,189.84370215833331,82.0,108.0
255,189.84482828541664,190.1139726583333,82.0,81.0
256,190.11509878541665,190.38536928541663,82.0,93.0
257,190.38536928541663,190.65493584791662,81.0,74.0
258,190.65493584791662,190.92279284791664,79.0,83.0
259,190.92279284791664,191.72636384791664,77.0,74.0
260,191.72636384791664,193.6002467770833,81.0,95.0
261,193.60136284791662,193.86921984791664,81.0,74.0
262,193.86921984791664,194.13707684791663,80.0,67.0
263,194.13707684791663,194.40563778541664,81.0,95.0
264,194.40563778541664,194.6747821583333,84.0,50.0
265,194.67590828541663,194.94617878541663,84.0,108.0
266,194.94617878541663,195.21644928541664,82.0,79.0
267,195.21644928541664,195.4855936583333,81.0,70.0
268,195.48671978541662,195.71081907499996,81.0,77.0
269,195.7119452020833,196.02726078541664,81.0,52.0
270,196.02726078541664,196.29753128541662,80.0,67.0
271,196.29753128541662,197.91915428541662,82.0,95.0
272,197.91915428541662,198.18942478541663,79.0,90.0
273,198.18942478541663,198.45068626874996,78.0,68.0
274,198.45068626874996,198.72996578541662,79.0,95.0
275,198.72996578541662,198.9991101583333,82.0,111.0
276,199.00023628541663,199.27050678541664,82.0,100.0
277,199.27050678541664,199.51375023541664,81.0,90.0
278,199.51375023541664,199.8099216583333,79.0,86.0
279,199.81104778541663,200.35158878541665,79.0,90.0
280,200.35158878541665,200.62185928541663,77.0,72.0
281,200.62185928541663,202.24348228541663,81.0,90.0
282,202.24348228541663,202.55429336041664,74.0,65.0
283,202.51375278541664,202.8301944958333,76.0,67.0
284,202.78402328541665,203.05429378541663,77.0,70.0
285,203.05429378541663,203.59413084791663,81.0,69.0
286,203.59413084791663,203.86198784791665,79.0,85.0
287,203.86198784791665,204.12872877708332,77.0,74.0
288,204.12984484791664,204.66555884791666,77.0,73.0
289,204.66555884791666,204.9322997770833,76.0,64.0
290,204.93341584791665,206.80911878541664,76.0,81.0
291,206.80911878541664,207.0782631583333,69.0,60.0
292,207.07938928541662,207.34965978541663,69.0,58.0
293,207.34965978541663,208.16047128541663,77.0,72.0
294,208.16047128541663,208.43074178541664,73.0,68.0
295,208.43074178541664,211.0546178895833,74.0,74.0
