,start,end,pitch,velocity
0,5.418902160416666,6.141379597916666,74.0,67.0
1,5.418902160416666,6.1482603354166665,65.0,66.0
2,5.418902160416666,6.158581441666666,69.0,65.0
3,6.244590660416666,7.184823874999999,74.0,72.0
4,6.244590660416666,7.196085145833333,65.0,67.0
5,6.244590660416666,7.2050941625,69.0,70.0
6,7.339103285416666,7.398788020833333,69.0,54.0
7,7.339103285416666,7.420184435416666,65.0,59.0
8,6.78587534375,7.58300021875,62.0,58.0
9,7.608669847916667,8.298401622916666,65.0,65.0
10,7.608669847916667,8.310678402083333,69.0,72.0
11,7.608669847916667,8.310678402083333,74.0,74.0
12,8.144383847916666,8.608669314583333,62.0,54.0
13,8.412240847916667,9.050633364583334,65.0,71.0
14,8.412240847916667,9.057329789583333,69.0,68.0
15,8.412240847916667,9.065142285416666,74.0,76.0
16,8.947954847916666,9.212463635416666,62.0,59.0
17,5.969361160416666,9.258222539583333,57.0,61.0
18,5.418902160416666,9.33746356875,50.0,66.0
19,9.215811847916667,9.75599013125,74.0,75.0
20,9.215811847916667,9.761570485416666,69.0,72.0
21,9.215811847916667,9.767150839583334,65.0,74.0
22,10.287943785416665,10.799205481249999,55.0,54.0
23,10.828484785416666,11.470377222916666,62.0,7.0
24,10.558214285416666,11.523305195833332,58.0,60.0
25,11.116773318749999,11.638170158333333,55.0,58.0
26,9.751525847916668,11.703485529166667,43.0,74.0
27,11.639296285416666,12.523306045833333,62.0,70.0
28,11.639296285416666,12.540197952083332,58.0,60.0
29,11.909566785416667,12.894927983333332,55.0,60.0
30,12.720378285416666,13.37353199375,62.0,69.0
31,12.720378285416666,13.3836671375,58.0,60.0
32,10.153311347916667,13.52555915,50.0,10.0
33,13.260919285416666,13.664072781249999,55.0,56.0
34,11.909566785416667,13.865649529166665,43.0,74.0
35,13.531189785416666,13.999658652083333,62.0,75.0
36,13.531189785416666,14.000784779166665,67.0,63.0
37,13.531189785416666,14.027811829166666,58.0,64.0
38,14.612271785416667,14.960245054166666,62.0,62.0
39,14.882542285416665,15.548083391666665,74.0,76.0
40,14.882542285416665,15.555966281249999,69.0,72.0
41,14.882542285416665,15.56272304375,65.0,73.0
42,15.423083285416666,15.723759216666666,62.0,62.0
43,14.342001285416666,15.741777249999998,57.0,60.0
44,14.071730785416666,15.945606252083333,50.0,70.0
45,15.693353785416665,16.284570504166666,69.0,74.0
46,15.693353785416665,16.286822758333333,65.0,79.0
47,15.693353785416665,16.287948885416665,74.0,76.0
48,16.233894785416666,16.287948885416665,74.0,76.0
49,16.233894785416666,16.640426662499998,64.0,53.0
50,16.233894785416666,16.890426875,70.0,67.0
51,16.774435785416664,17.13704870625,64.0,59.0
52,16.233894785416666,17.24515690625,58.0,61.0
53,16.233894785416666,17.287949735416667,52.0,60.0
54,17.044706285416666,17.314976785416665,70.0,83.0
55,17.044706285416666,17.314976785416665,74.0,76.0
56,17.314976785416665,17.855517785416666,45.0,61.0
57,17.855517785416666,18.12015765,52.0,61.0
58,17.314976785416665,18.274437060416666,60.0,59.0
59,17.313850658333333,18.28006769583333,64.0,67.0
60,17.313850658333333,18.287950585416667,69.0,74.0
61,18.125788285416665,18.419707454166666,45.0,67.0
62,18.396058785416663,19.104422543749997,65.0,64.0
63,18.396058785416663,19.118931464583333,69.0,75.0
64,18.935895847916665,19.249511752083333,57.0,60.0
65,18.396058785416663,19.278529593749997,50.0,67.0
66,19.203752847916665,19.736118635416666,58.0,98.0
67,19.203752847916665,19.736118635416666,70.0,98.0
68,19.739466847916667,20.007323847916666,57.0,63.0
69,19.739466847916667,20.007323847916666,69.0,63.0
70,20.007323847916666,20.442591472916664,53.0,59.0
71,20.007323847916666,20.442591472916664,65.0,59.0
72,20.275180847916666,20.56424319375,50.0,67.0
73,20.275180847916666,20.56424319375,62.0,67.0
74,20.543037847916665,21.35873530208333,45.0,76.0
75,20.543037847916665,21.35873530208333,57.0,76.0
76,21.619996785416664,22.670673354166663,67.0,65.0
77,21.619996785416664,22.719096818749996,61.0,111.0
78,21.619996785416664,22.72697970833333,57.0,69.0
79,21.619996785416664,22.741619360416664,49.0,75.0
80,21.619996785416664,22.74387161458333,45.0,81.0
81,21.619996785416664,22.74387161458333,52.0,75.0
82,22.701078785416662,23.211214354166664,65.0,67.0
83,22.701078785416662,23.238241404166665,69.0,71.0
84,22.701078785416662,23.313691918749996,50.0,67.0
85,23.511890285416662,23.62225073958333,50.0,75.0
86,23.782160785416664,24.190944916666663,50.0,76.0
87,23.52089930208333,24.46008928958333,65.0,44.0
88,23.52089930208333,24.543422693749996,69.0,60.0
89,23.782160785416664,24.670675054166665,62.0,60.0
90,24.322701785416662,24.89252208958333,45.0,62.0
91,24.863242785416663,25.363243210416663,65.0,76.0
92,24.863242785416663,25.374504481249996,69.0,74.0
93,25.403783785416664,25.73936965625,62.0,60.0
94,24.863242785416663,26.049054604166663,50.0,83.0
95,25.674054285416663,26.157162804166664,65.0,83.0
96,25.674054285416663,26.17630696458333,69.0,76.0
97,26.214595285416664,26.273153893749996,62.0,60.0
98,22.98035830208333,26.302433197916663,57.0,61.0
99,26.484865785416662,26.880136391666664,69.0,77.0
100,26.484865785416662,26.884640899999997,65.0,87.0
101,27.836218285416663,28.320452931249996,58.0,86.0
102,28.647029785416663,28.86549843958333,62.0,73.0
103,28.647029785416663,28.89702999791666,58.0,83.0
104,27.025406785416664,29.115498652083332,43.0,73.0
105,27.56594778541666,29.117750906249995,55.0,57.0
106,29.18757078541666,29.610994568749994,62.0,83.0
107,29.18757078541666,29.63126485625,58.0,93.0
108,29.728111785416665,29.89928310208333,55.0,50.0
109,29.99838228541666,30.44207635625,62.0,81.0
110,29.99838228541666,30.485995312499995,58.0,86.0
111,28.367750268749997,30.851986614583332,46.0,63.0
112,29.18757078541666,30.870004647916662,43.0,70.0
113,27.313695318749996,31.03104082083333,50.0,58.0
114,30.547932302083332,31.05243723541666,55.0,53.0
115,30.809193785416664,31.186446358333328,62.0,76.0
116,30.809193785416664,31.231491441666662,58.0,93.0
117,31.349734785416665,31.894780293749996,45.0,72.0
118,31.890275785416662,32.147032760416664,57.0,59.0
119,32.160546285416665,32.261897722916665,45.0,68.0
120,32.160546285416665,32.59748359375,64.0,74.0
121,32.160546285416665,32.627889024999995,61.0,79.0
122,32.43081678541667,32.884646,45.0,72.0
123,32.70108728541666,32.89928565208333,57.0,62.0
124,32.971357785416664,33.11550205208333,64.0,76.0
125,32.971357785416664,33.12901557708333,61.0,90.0
126,33.24162828541667,33.4859978625,57.0,65.0
127,32.971357785416664,33.56257450416666,40.0,77.0
128,33.51189878541666,33.965728,64.0,85.0
129,33.51189878541666,33.97811539791666,61.0,83.0
130,34.05243978541667,34.23487237291666,57.0,58.0
131,34.32271028541666,34.74162956041666,64.0,77.0
132,34.32271028541666,34.75289083125,61.0,76.0
133,33.51189878541666,34.972485612499995,45.0,77.0
134,34.592980785416664,35.01640456875,57.0,59.0
135,31.620005285416664,35.02428745833333,52.0,59.0
136,35.13352178541666,35.40604453958333,61.0,80.0
137,35.13352178541666,35.51415273958333,64.0,93.0
138,35.94433328541666,36.44771209166666,62.0,61.0
139,36.214603785416664,37.15266764583333,64.0,79.0
140,36.75514478541666,37.208974,62.0,72.0
141,37.02541528541666,37.67744286666667,65.0,83.0
142,37.56595628541666,37.82834389583333,62.0,66.0
143,35.674062785416666,37.83510065833333,50.0,73.0
144,35.674062785416666,37.83622678541666,57.0,59.0
145,37.56595628541666,37.864379962499996,69.0,86.0
146,37.83622678541666,38.154920749999995,67.0,75.0
147,37.83622678541666,38.17293878333333,64.0,79.0
148,37.83622678541666,38.19433519791666,57.0,73.0
149,37.83622678541666,38.19996583333333,49.0,77.0
150,37.83622678541666,38.204470341666664,52.0,75.0
151,37.83622678541666,38.204470341666664,61.0,100.0
152,37.83622678541666,38.20672259583333,45.0,75.0
153,38.917308785416665,39.93645379583333,67.0,76.0
154,38.917308785416665,39.952219575,49.0,69.0
155,38.917308785416665,39.96122859166666,61.0,87.0
156,38.917308785416665,39.965733099999994,57.0,63.0
157,38.917308785416665,39.98600338749999,52.0,74.0
158,38.917308785416665,39.99050789583333,45.0,59.0
159,39.99839078541666,40.61550842708333,50.0,76.0
160,39.99839078541666,40.67631928958333,65.0,73.0
161,39.99839078541666,40.689832814583326,69.0,77.0
162,40.80920228541666,40.91055372291666,50.0,72.0
163,40.538931785416665,40.95447267916666,62.0,59.0
164,41.07947278541666,41.528797491666666,50.0,75.0
165,40.80920228541666,41.550193906249994,69.0,73.0
166,40.80920228541666,41.57046419375,65.0,76.0
167,41.62001378541666,41.857626599999996,65.0,71.0
168,41.62001378541666,41.95109514791666,69.0,76.0
169,41.62001378541666,42.12564484583333,45.0,69.0
170,41.349743285416665,42.47812262291666,62.0,60.0
171,42.160554785416664,42.83960941666666,66.0,79.0
172,42.160554785416664,42.884654499999996,69.0,79.0
173,42.70109578541666,43.03555552916666,62.0,61.0
174,42.160554785416664,43.49501537916666,50.0,86.0
175,42.971366285416664,43.53330369999999,66.0,86.0
176,42.971366285416664,43.53442982708333,69.0,79.0
177,40.26866128541666,43.74163721041666,57.0,59.0
178,43.51078115833333,43.79118680208333,62.0,63.0
179,42.160554785416664,43.80019581875,54.0,67.0
180,43.781051658333325,44.33285392916666,69.0,72.0
181,43.781051658333325,44.37339450416666,66.0,86.0
182,44.32271878541666,44.92632290208333,43.0,62.0
183,45.13353028541666,45.24389073958333,50.0,76.0
184,44.86325978541666,45.37001697291666,55.0,48.0
185,45.403800785416664,45.90605346458333,50.0,76.0
186,45.67407128541666,45.989386868749996,55.0,53.0
187,45.94434178541666,46.33623401041666,43.0,58.0
188,45.13353028541666,46.40943227083333,58.0,79.0
189,45.403800785416664,46.52429723333333,62.0,75.0
190,46.48488278541666,46.52429723333333,62.0,79.0
191,46.21461228541666,46.55808104583333,55.0,61.0
192,46.48488278541666,47.15943290833333,58.0,83.0
193,46.483756658333334,47.227000533333324,43.0,62.0
194,47.29569428541666,47.40155023125,43.0,63.0
195,47.02542378541666,47.47474849166666,55.0,55.0
196,47.29569428541666,47.862136208333325,62.0,86.0
197,47.29569428541666,47.874523606249994,58.0,90.0
198,47.83623528541666,48.04456879583333,55.0,56.0
199,45.94434178541666,48.117767056249996,46.0,71.0
200,47.56596478541666,48.27655097499999,43.0,72.0
201,48.10650578541666,48.544569220833324,62.0,78.0
202,48.10650578541666,48.57835303333333,58.0,78.0
203,49.18758778541666,49.39366904166666,62.0,60.0
204,49.45785828541666,50.10538135833333,65.0,85.0
205,49.45785828541666,50.107633612499995,69.0,75.0
206,48.64704678541666,50.30583197916666,50.0,77.0
207,49.99839928541667,50.310336487499995,62.0,67.0
208,48.91731728541666,50.31146261458333,57.0,62.0
209,50.26866978541666,50.84862523333333,69.0,79.0
210,50.26866978541666,50.85876037708333,65.0,90.0
211,51.34975178541666,51.74614851874999,57.0,59.0
212,51.62002228541667,52.25741021458333,64.0,88.0
213,51.62002228541667,52.259662468749994,61.0,88.0
214,50.80921078541667,52.58736544999999,45.0,77.0
215,52.169572302083324,52.58849157708333,49.0,37.0
216,51.07948128541666,52.63353666041667,52.0,61.0
217,52.43083378541667,52.925203575,64.0,89.0
218,52.43083378541667,52.935338718749996,61.0,89.0
219,52.169572302083324,53.02993339374999,57.0,63.0
220,53.51191578541666,53.89367286666666,62.0,62.0
221,53.782186285416664,54.64140096458333,64.0,85.0
222,54.05245678541666,54.64921346041667,62.0,70.0
223,52.97137478541666,54.753008047916666,50.0,83.0
224,54.592293847916665,54.95278472708333,65.0,76.0
225,53.24164528541666,54.97622221458333,57.0,67.0
226,54.860150847916664,55.12800784791666,62.0,73.0
227,55.12800784791666,55.529793347916666,69.0,83.0
228,55.12800784791666,55.542070127083335,65.0,81.0
229,55.12800784791666,55.55323083541666,50.0,86.0
230,57.270863847916665,57.72287253541666,62.0,58.0
231,57.270863847916665,57.962687322916665,64.0,70.0
232,57.270863847916665,57.97282246666666,70.0,74.0
233,58.077552285416665,58.722823104166665,64.0,72.0
234,58.077552285416665,58.74196726458333,70.0,73.0
235,57.80728178541666,58.861336735416664,62.0,59.0
236,57.270863847916665,58.96494042708333,58.0,62.0
237,57.270863847916665,59.016742272916666,52.0,60.0
238,58.888363785416665,59.46606697916666,70.0,81.0
239,58.888363785416665,59.48746339375,64.0,86.0
240,59.42890478541666,60.016743122916665,45.0,67.0
241,60.23971628541666,60.345572231249996,40.0,74.0
242,60.230707268749995,60.622599493749995,57.0,56.0
243,60.509986785416665,61.02237460833333,40.0,85.0
244,60.78025728541667,61.155257604166664,49.0,60.0
245,59.66313921875,61.217194593749994,52.0,63.0
246,60.78025728541667,61.31516765,57.0,63.0
247,61.05052778541666,61.589512539583325,60.0,69.0
248,61.05052778541666,61.614512514583325,45.0,81.0
249,61.59178526458333,62.30087546458333,50.0,86.0
250,62.13723926458333,62.565647927083326,62.0,53.0
251,62.409966264583325,62.71223868958333,50.0,60.0
252,62.409966264583325,63.074738327083324,65.0,74.0
253,62.68269326458333,63.10201102708333,45.0,74.0
254,63.22743078541666,63.377205687499995,65.0,59.0
255,62.955420264583324,63.39860210208332,62.0,54.0
256,61.864512264583325,63.441394931249995,57.0,58.0
257,63.22743078541666,63.68576450833333,69.0,74.0
258,63.22743078541666,63.81639524999999,45.0,90.0
259,63.767971785416655,64.39522457083332,65.0,65.0
260,63.767971785416655,64.41099034999999,69.0,70.0
261,64.30851278541665,64.71954917083333,62.0,52.0
262,64.57878328541666,65.208288325,65.0,67.0
263,64.57878328541666,65.21504508749999,69.0,74.0
264,65.11932428541665,65.34680195624999,62.0,58.0
265,64.03824228541666,65.38171189583332,57.0,63.0
266,63.767971785416655,65.45265790208333,50.0,71.0
267,65.38959478541666,65.79950504374999,65.0,70.0
268,65.38959478541666,65.80400955208333,69.0,75.0
269,65.93013578541665,66.51234348749999,58.0,83.0
270,66.47067678541666,66.96392044791666,55.0,60.0
271,66.74094728541665,67.37720908749999,62.0,73.0
272,66.74094728541665,67.42450642499999,58.0,74.0
273,65.93013578541665,67.61256964791666,43.0,71.0
274,66.20040628541666,67.68576790833333,50.0,43.0
275,67.28148828541666,67.77135356666666,55.0,52.0
276,67.55175878541665,67.98644383958333,62.0,73.0
277,67.55175878541665,68.02585828749999,58.0,85.0
278,68.63284078541666,69.04838167916665,60.0,59.0
279,68.90311128541666,69.57315689999999,64.0,67.0
280,68.90311128541666,69.59455331458332,67.0,77.0
281,69.44365228541666,69.67638851041666,60.0,60.0
282,68.36257028541665,69.72326348541667,55.0,61.0
283,68.09229978541666,69.79134380625,48.0,70.0
284,69.71321884791666,69.86835269375,67.0,79.0
285,69.71321884791666,69.87951340208333,64.0,79.0
286,70.24893284791666,70.92750391458333,57.0,65.0
287,70.24893284791666,70.94424497708333,60.0,72.0
288,70.78464684791666,71.17527163958333,53.0,58.0
289,71.05250384791667,71.68419993958334,57.0,68.0
290,71.05250384791667,71.68978029375,60.0,79.0
291,71.58821784791667,71.97995871041667,53.0,60.0
292,71.85607484791666,72.20317287708333,60.0,73.0
293,71.85607484791666,72.21210144375,57.0,65.0
294,72.12393184791667,72.39736920208333,53.0,58.0
295,70.51678984791667,72.47884237291666,48.0,74.0
296,70.24893284791666,72.48442272708333,41.0,76.0
297,72.92750284791667,73.14513666041667,64.0,60.0
298,72.65964584791666,73.36053833125,58.0,56.0
299,73.19535984791666,73.39635316041667,70.0,73.0
300,72.39178884791666,73.46392078541668,52.0,76.0
301,73.46392078541668,73.63058759375001,74.0,83.0
302,73.46392078541668,74.11820062083333,69.0,83.0
303,73.46392078541668,74.13058801875,66.0,67.0
304,73.75220931875,74.2353178375,57.0,58.0
305,74.00446178541667,74.29275031875001,62.0,58.0
306,73.46392078541668,74.36482245208333,50.0,65.0
307,74.27473228541668,74.52473249791667,66.0,87.0
308,74.54500278541667,75.03486806666668,62.0,63.0
309,74.54500278541667,75.24657995833334,58.0,75.0
310,75.08554378541668,75.49320178958334,55.0,53.0
311,75.35581428541667,75.90874268333333,62.0,76.0
312,75.35581428541667,75.96955354583334,58.0,93.0
313,75.89635528541667,76.27923849375,55.0,60.0
314,74.54500278541667,76.34342773750001,43.0,73.0
315,76.16662578541667,76.47968911458334,62.0,77.0
316,76.16662578541667,76.50896841875,58.0,87.0
317,74.81527328541667,76.59455407708333,50.0,62.0
318,76.70716678541667,77.36482500208334,61.0,78.0
319,77.24770778541667,77.63509550208333,57.0,59.0
320,77.51797828541667,78.10469049583334,64.0,83.0
321,77.51797828541667,78.13960043541667,61.0,83.0
322,76.70716678541667,78.36257359791666,45.0,78.0
323,76.97743728541667,78.36933036041667,52.0,60.0
324,78.05851928541666,78.68014143541667,57.0,65.0
325,78.32878978541667,78.80176316041667,61.0,88.0
326,78.59906028541667,78.850186625,64.0,77.0
327,79.40987178541667,79.7758630875,62.0,58.0
328,79.68014228541666,80.31978246875,69.0,72.0
329,79.68014228541666,80.32541310416667,65.0,81.0
330,80.22068328541667,80.606944875,62.0,58.0
331,80.49095378541666,80.66550348333334,88.0,71.0
332,80.62608903541667,80.78599908125,89.0,86.0
333,80.76122428541667,80.84230543541666,88.0,59.0
334,80.49095378541666,80.88509826458333,65.0,85.0
335,80.49095378541666,80.88509826458333,69.0,75.0
336,78.86933078541666,80.90874693333333,50.0,75.0
337,80.76122428541667,80.9245127125,62.0,60.0
338,79.13960128541667,81.03149478541667,57.0,55.0
339,80.89635953541666,81.0731614875,86.0,81.0
340,81.03149478541667,81.46955822083333,58.0,37.0
341,81.03149478541667,81.62496375833334,74.0,65.0
342,81.03149478541667,81.7082971625,65.0,87.0
343,81.03149478541667,81.71167554375,62.0,69.0
344,81.84230628541667,82.471811325,62.0,74.0
345,81.84230628541667,82.47518970625,65.0,87.0
346,81.03149478541667,83.04861899375,50.0,81.0
347,81.03149478541667,83.07875290625,46.0,39.0
348,82.38284728541667,83.17473499791666,58.0,76.0
349,82.65241384791666,83.17473499791666,65.0,87.0
350,82.65241384791666,83.17696713958333,62.0,73.0
351,83.18812784791666,83.63344011041666,62.0,60.0
352,83.18812784791666,83.80308287708333,64.0,71.0
353,83.18812784791666,83.80419894791666,70.0,68.0
354,83.72384184791666,84.02518097291666,62.0,60.0
355,83.99169884791667,84.02518097291666,62.0,69.0
356,83.99169884791667,84.64571635624999,64.0,76.0
357,83.99169884791667,84.65241278124999,70.0,70.0
358,84.52741284791666,84.68031455208333,86.0,69.0
359,84.79526984791666,85.09326076041667,89.0,75.0
360,84.52741284791666,85.24169818125,62.0,64.0
361,84.79526984791666,85.26513566874999,70.0,83.0
362,84.79526984791666,85.27518030625,64.0,87.0
363,85.06312684791666,85.32317135208334,88.0,65.0
364,83.18812784791666,85.34884098124999,58.0,56.0
365,83.18812784791666,85.37785882291666,52.0,64.0
366,85.33098384791666,85.63678725625,81.0,65.0
367,85.33098384791666,85.70709971875,69.0,74.0
368,85.33098384791666,85.71826042708332,64.0,85.0
369,85.33098384791666,85.74058184375,61.0,87.0
370,85.33098384791666,85.76290326041666,45.0,85.0
371,86.40794278541667,87.361772425,64.0,86.0
372,86.40794278541667,87.36515080625,69.0,79.0
373,86.40794278541667,87.39443011041666,45.0,77.0
374,86.40794278541667,87.39893461875,61.0,98.0
375,87.48902478541667,88.14105236666667,65.0,71.0
376,87.48902478541667,88.15006138333334,69.0,70.0
377,87.48902478541667,88.15681814583334,50.0,69.0
378,88.02956578541666,88.52280944791667,62.0,53.0
379,88.29983628541667,88.56109776875,50.0,81.0
380,88.29983628541667,88.94172872291666,65.0,74.0
381,88.29983628541667,88.956368375,69.0,74.0
382,88.57010678541667,88.99240444166666,45.0,77.0
383,88.84037728541666,89.19510731666666,62.0,61.0
384,89.11064778541667,89.68497259791667,45.0,76.0
385,89.38091828541667,90.37416237291667,62.0,62.0
386,89.11064778541667,90.90569435625,65.0,59.0
387,89.11064778541667,91.03407284375,69.0,74.0
388,90.73227078541667,91.19173063541666,62.0,79.0
389,87.75929528541667,91.28970369166667,57.0,62.0
390,89.65118878541666,91.32461363125,74.0,87.0
391,89.65118878541666,91.47438853333334,50.0,75.0
392,91.00254128541667,91.84037983541667,65.0,72.0
393,91.27281178541666,91.85389336041666,69.0,79.0
394,91.54308228541667,91.86290237708333,74.0,76.0
395,92.35389378541667,92.91357894583334,55.0,62.0
396,92.62416428541667,93.29195764583334,58.0,70.0
397,91.81335278541667,93.6928588875,43.0,79.0
398,92.08362328541666,93.82912026458334,50.0,58.0
399,93.16470528541667,93.84488604375,55.0,59.0
400,93.43497578541667,93.89443563541667,62.0,67.0
401,93.43497578541667,93.96650776875,58.0,77.0
402,94.51605778541666,94.89894099375,60.0,60.0
403,94.78632828541667,95.41020268958333,64.0,85.0
404,94.78632828541667,95.41808557916667,67.0,85.0
405,95.32686928541666,95.60614880208334,60.0,70.0
406,94.24578728541667,95.64218486875001,55.0,61.0
407,93.97551678541667,95.68948220625,48.0,86.0
408,95.59713978541667,95.74128405208333,67.0,76.0
409,95.59713978541667,95.75704983125,64.0,83.0
410,96.13768078541666,96.821239925,57.0,69.0
411,96.13768078541666,96.83700570416667,60.0,73.0
412,96.67822178541667,97.15119516041666,53.0,60.0
413,96.94849228541666,97.55547478333334,60.0,76.0
414,96.94849228541666,97.55885316458334,57.0,67.0
415,96.13768078541666,97.75930378541666,41.0,74.0
416,96.40795128541667,97.84376331666667,48.0,74.0
417,97.48903328541667,97.84601557083333,53.0,59.0
418,97.75930378541666,98.32236732708333,39.0,85.0
419,97.75930378541666,98.35389888541667,60.0,83.0
420,97.75930378541666,98.3550250125,57.0,81.0
421,98.29984478541667,98.94398947708333,69.0,73.0
422,98.29984478541667,98.99128681458333,66.0,74.0
423,98.29984478541667,99.02056611875,38.0,85.0
424,99.11065628541667,99.2063770875,38.0,74.0
425,98.84038578541667,99.30885465208334,62.0,58.0
426,99.38092678541666,99.5644855,38.0,65.0
427,99.11065628541667,99.73453068958334,69.0,76.0
428,99.11065628541667,99.78182802708334,66.0,85.0
429,99.65119728541667,99.87754882916667,62.0,63.0
430,99.65119728541667,99.94399032708333,40.0,60.0
431,98.84038578541667,99.95862997916667,54.0,65.0
432,98.57011528541666,99.99804442708333,57.0,58.0
433,98.29984478541667,100.04872014583333,50.0,75.0
434,99.92146778541667,100.08926072083334,42.0,67.0
435,99.92146778541667,100.375297,69.0,79.0
436,100.19173828541666,100.41358532083333,38.0,68.0
437,99.92146778541667,100.43836011666667,66.0,90.0
438,101.00254978541668,101.42372131458333,55.0,52.0
439,100.73227928541667,101.62079355416667,50.0,60.0
440,101.27282028541667,101.87304602083333,62.0,85.0
441,101.27282028541667,101.90232532499999,58.0,98.0
442,100.46200878541667,102.08363178541667,43.0,79.0
443,101.81336128541668,102.1928661125,55.0,66.0
444,101.81336128541668,102.46651499375,50.0,65.0
445,101.81336128541668,102.49128978958333,46.0,2.0
446,102.08363178541667,102.61516376875,62.0,79.0
447,102.08363178541667,102.62304665833334,41.0,77.0
448,102.08363178541667,102.66020885208333,58.0,95.0
449,102.62417278541668,102.66020885208333,58.0,60.0
450,102.62417278541668,103.24579493541667,62.0,58.0
451,102.62417278541668,103.26606522291667,52.0,71.0
452,102.62417278541668,103.26831747708334,70.0,65.0
453,102.62417278541668,103.28295712916668,74.0,65.0
454,103.43498428541668,104.12417406041666,74.0,66.0
455,103.43498428541668,104.12755244166667,70.0,67.0
456,103.43498428541668,104.21088584583333,62.0,58.0
457,103.43498428541668,104.22777775208334,58.0,63.0
458,103.43498428541668,104.23566064166667,52.0,60.0
459,102.62417278541668,104.43498513541667,40.0,87.0
460,104.24579578541668,104.68948985625,62.0,69.0
461,104.24579578541668,104.71088627083333,58.0,83.0
462,104.24579578541668,104.71426465208333,52.0,83.0
463,104.24579578541668,104.73115655833334,70.0,64.0
464,104.24579578541668,104.740165575,74.0,66.0
465,104.78633678541667,105.34376969166667,69.0,64.0
466,104.78633678541667,105.37079674166667,64.0,74.0
467,104.78633678541667,105.39782379166667,61.0,83.0
468,104.78633678541667,105.40345442708333,45.0,74.0
469,104.78633678541667,105.40345442708333,45.0,87.0
470,105.32687778541667,105.6928690875,57.0,58.0
471,105.64219336875,106.02732883125,46.0,93.0
472,105.59714828541667,106.19624789375,69.0,63.0
473,105.59714828541667,106.22777945208333,64.0,83.0
474,105.59714828541667,106.2604371375,61.0,111.0
475,106.13768928541667,106.44286972500001,45.0,64.0
476,106.40795978541666,106.46764452083333,69.0,60.0
477,106.40795978541666,106.51381573125,64.0,81.0
478,105.32687778541667,106.52507700208334,49.0,62.0
479,106.40795978541666,106.54985179791666,61.0,104.0
480,106.13768928541667,106.55886081458334,57.0,64.0
481,105.05660728541667,106.62192393125,52.0,60.0
482,106.40795978541666,106.69174381041667,43.0,67.0
483,106.67823028541667,106.79309524791667,40.0,61.0
484,106.94850078541667,107.19850099791667,69.0,77.0
485,106.94850078541667,107.20976226875,52.0,66.0
486,106.94850078541667,107.21314065,64.0,87.0
487,106.94850078541667,107.22214966666667,45.0,50.0
488,106.94850078541667,107.22214966666667,45.0,104.0
489,106.94850078541667,107.22440192083333,61.0,114.0
490,106.94850078541667,107.22552804791667,57.0,54.0
491,106.94850078541667,107.23791544583334,49.0,67.0
492,108.02958278541666,109.08025935416667,67.0,65.0
493,108.02958278541666,109.12868281875001,61.0,111.0
494,108.02958278541666,109.13656570833334,57.0,69.0
495,108.02958278541666,109.15120536041667,49.0,75.0
496,108.02958278541666,109.15345761458333,45.0,81.0
497,108.02958278541666,109.15345761458333,52.0,75.0
498,109.11066478541667,109.62080035416668,65.0,67.0
499,109.11066478541667,109.64782740416666,69.0,71.0
500,109.11066478541667,109.72327791875,50.0,67.0
501,109.92147628541667,110.03183673958333,50.0,75.0
502,110.19174678541667,110.60053091666667,50.0,76.0
503,109.93048530208333,110.86967528958334,65.0,44.0
504,109.93048530208333,110.95300869375001,69.0,60.0
505,110.19174678541667,111.08026105416667,62.0,60.0
506,110.73228778541667,111.30210808958333,45.0,62.0
507,111.27282878541666,111.77282921041666,65.0,76.0
508,111.27282878541666,111.78409048125,69.0,74.0
509,111.81336978541667,112.14895565625,62.0,60.0
510,111.27282878541666,112.45864060416667,50.0,83.0
511,112.08364028541666,112.56674880416666,65.0,83.0
512,112.08364028541666,112.58589296458334,69.0,76.0
513,112.62418128541667,112.68273989375,62.0,60.0
514,109.38994430208334,112.71201919791667,57.0,61.0
515,112.89445178541666,113.28972239166667,69.0,77.0
516,112.89445178541666,113.2942269,65.0,87.0
517,114.24580428541667,114.73003893125,58.0,86.0
518,115.05661578541667,115.27508443958334,62.0,73.0
519,115.05661578541667,115.30661599791667,58.0,83.0
520,113.43499278541667,115.52508465208334,43.0,73.0
521,113.97553378541667,115.52733690625,55.0,57.0
522,115.59715678541667,116.02058056875,62.0,83.0
523,115.59715678541667,116.04085085625,58.0,93.0
524,116.13769778541666,116.30886910208334,55.0,50.0
525,116.40796828541667,116.85166235625,62.0,81.0
526,116.40796828541667,116.8955813125,58.0,86.0
527,114.77733626875,117.26157261458333,46.0,63.0
528,115.59715678541667,117.27959064791666,43.0,70.0
529,113.72328131875,117.44062682083333,50.0,58.0
530,116.95751830208333,117.46202323541667,55.0,53.0
531,117.21877978541667,117.59603235833333,62.0,76.0
532,117.21877978541667,117.64107744166667,58.0,93.0
533,117.75932078541666,118.30436629375001,45.0,72.0
534,118.29986178541667,118.55661876041667,57.0,59.0
535,118.57013228541666,118.67148372291666,45.0,68.0
536,118.57013228541666,119.00706959375,64.0,74.0
537,118.57013228541666,119.03747502499999,61.0,114.0
538,118.84040278541667,119.294232,45.0,72.0
539,119.11067328541667,119.30887165208333,57.0,62.0
540,119.38094378541666,119.52508805208333,64.0,76.0
541,119.38094378541666,119.53860157708334,61.0,90.0
542,119.65121428541667,119.89558386249999,57.0,65.0
543,119.38094378541666,119.97216050416667,40.0,77.0
544,119.92148478541667,120.375314,64.0,85.0
545,119.92148478541667,120.38770139791666,61.0,112.0
546,120.46202578541667,120.64445837291666,57.0,58.0
547,120.73229628541667,121.15121556041666,64.0,77.0
548,120.73229628541667,121.16247683124999,61.0,104.0
549,119.92148478541667,121.3820716125,45.0,77.0
550,121.00256678541666,121.42599056875,57.0,59.0
551,118.02959128541667,121.43387345833332,52.0,59.0
552,121.54310778541667,121.81563053958334,61.0,112.0
553,121.54310778541667,121.92373873958334,64.0,93.0
554,122.35391928541667,122.85729809166666,62.0,61.0
555,122.62418978541666,123.56225364583332,64.0,79.0
556,123.16473078541667,123.61856,62.0,72.0
557,123.43500128541666,124.08702886666666,65.0,83.0
558,123.97554228541667,124.23792989583333,62.0,66.0
559,122.08364878541667,124.24468665833334,50.0,73.0
560,122.08364878541667,124.24581278541666,57.0,59.0
561,123.97554228541667,124.2739659625,69.0,86.0
562,124.24581278541666,124.56450674999999,67.0,75.0
563,124.24581278541666,124.58252478333333,64.0,79.0
564,124.24581278541666,124.60392119791666,57.0,73.0
565,124.24581278541666,124.60955183333334,49.0,77.0
566,124.24581278541666,124.61405634166667,52.0,75.0
567,124.24581278541666,124.61405634166667,61.0,100.0
568,124.24581278541666,124.61630859583333,45.0,75.0
569,125.32689478541667,126.34603979583333,67.0,76.0
570,125.32689478541667,126.361805575,49.0,69.0
571,125.32689478541667,126.37081459166666,61.0,87.0
572,125.32689478541667,126.3753191,57.0,63.0
573,125.32689478541667,126.3955893875,52.0,74.0
574,125.32689478541667,126.40009389583334,45.0,59.0
575,126.40797678541666,127.02509442708333,50.0,76.0
576,126.40797678541666,127.08590528958334,65.0,73.0
577,126.40797678541666,127.09941881458333,69.0,77.0
578,127.21878828541666,127.32013972291666,50.0,72.0
579,126.94851778541667,127.36405867916667,62.0,59.0
580,127.48905878541666,127.93838349166667,50.0,75.0
581,127.21878828541666,127.95977990624999,69.0,73.0
582,127.21878828541666,127.98005019375,65.0,76.0
583,128.02959978541668,128.2672126,65.0,71.0
584,128.02959978541668,128.36068114791667,69.0,76.0
585,128.02959978541668,128.53523084583333,45.0,69.0
586,127.75932928541667,128.88770862291668,62.0,60.0
587,128.57014078541667,129.24919541666668,66.0,79.0
588,128.57014078541667,129.2942405,69.0,79.0
589,129.11068178541666,129.44514152916668,62.0,61.0
590,128.57014078541667,129.90460137916665,50.0,86.0
591,129.38095228541667,129.9428897,66.0,86.0
592,129.38095228541667,129.94401582708332,69.0,79.0
593,126.67824728541666,130.15122321041667,57.0,59.0
594,129.92036715833333,130.20077280208335,62.0,63.0
595,128.57014078541667,130.20978181875,54.0,67.0
596,130.19063765833334,130.74243992916666,69.0,72.0
597,130.19063765833334,130.78298050416666,66.0,86.0
598,130.73230478541666,131.33590890208333,43.0,62.0
599,131.54311628541666,131.65347673958334,50.0,76.0
600,131.27284578541668,131.77960297291668,55.0,48.0
601,131.81338678541667,132.31563946458334,50.0,76.0
602,132.08365728541668,132.39897286875,55.0,53.0
603,132.35392778541666,132.74582001041665,43.0,58.0
604,131.54311628541666,132.81901827083334,58.0,79.0
605,131.81338678541667,132.93388323333335,62.0,75.0
606,132.89446878541668,132.93388323333335,62.0,79.0
607,132.62419828541667,132.96766704583334,55.0,61.0
608,132.89446878541668,133.56901890833333,58.0,83.0
609,132.89334265833332,133.63658653333334,43.0,62.0
610,133.70528028541668,133.81113623125,43.0,63.0
611,133.43500978541667,133.88433449166666,55.0,55.0
612,133.70528028541668,134.27172220833333,62.0,86.0
613,133.70528028541668,134.28410960625,58.0,90.0
614,134.24582128541667,134.45415479583335,55.0,56.0
615,132.35392778541666,134.52735305625,46.0,71.0
616,133.97555078541666,134.686136975,43.0,72.0
617,134.51609178541668,134.95415522083334,62.0,85.0
618,134.51609178541668,134.98793903333333,58.0,90.0
619,135.59717378541666,135.80325504166666,62.0,60.0
620,135.86744428541667,136.51496735833334,65.0,85.0
621,135.86744428541667,136.5172196125,69.0,75.0
622,135.05663278541667,136.71541797916666,50.0,77.0
623,136.40798528541666,136.7199224875,62.0,67.0
624,135.32690328541668,136.72104861458334,57.0,62.0
625,136.67825578541667,137.25821123333333,69.0,79.0
626,136.67825578541667,137.26834637708333,65.0,90.0
627,137.75933778541668,138.15573451875,57.0,59.0
628,138.02960828541666,138.66699621458332,64.0,79.0
629,138.02960828541666,138.66924846875,61.0,108.0
630,137.21879678541666,138.99695144999998,45.0,77.0
631,138.57915830208333,138.99807757708334,49.0,37.0
632,137.48906728541667,139.04312266041666,52.0,61.0
633,138.84041978541666,139.334789575,64.0,86.0
634,138.84041978541666,139.34492471875,61.0,114.0
635,138.57915830208333,139.43951939375,57.0,63.0
636,139.92150178541667,140.30325886666668,62.0,62.0
637,140.19177228541668,141.05098696458333,64.0,85.0
638,140.46204278541666,141.05879946041668,62.0,70.0
639,139.38096078541668,141.16259404791666,50.0,83.0
640,141.00187984791665,141.36237072708334,65.0,76.0
641,139.65123128541666,141.38580821458334,57.0,67.0
642,141.26973684791668,141.53759384791667,62.0,73.0
643,141.53759384791667,143.04652161458333,69.0,83.0
644,141.53759384791667,143.05991446458333,65.0,81.0
645,141.53759384791667,143.06995910208335,50.0,86.0
646,143.68044984791666,144.13245853541667,62.0,58.0
647,143.68044984791666,144.37227332291667,64.0,70.0
648,143.68044984791666,144.38240846666667,70.0,74.0
649,144.48713828541665,145.13240910416667,64.0,72.0
650,144.48713828541665,145.15155326458333,70.0,73.0
651,144.21686778541667,145.27092273541666,62.0,59.0
652,143.68044984791666,145.37452642708334,58.0,62.0
653,143.68044984791666,145.42632827291666,52.0,60.0
654,145.29794978541665,145.87565297916666,70.0,81.0
655,145.29794978541665,145.89704939375,64.0,86.0
656,145.83849078541667,146.42632912291666,45.0,67.0
657,146.64930228541667,146.75515823125,40.0,74.0
658,146.64029326874999,147.03218549375,57.0,56.0
659,146.91957278541665,147.43196060833333,40.0,85.0
660,147.18984328541666,147.56484360416667,49.0,60.0
661,146.07272521875,147.62678059375,52.0,63.0
662,147.18984328541666,147.72475365,57.0,63.0
663,147.46011378541667,147.99909853958331,60.0,69.0
664,147.46011378541667,148.02409851458333,45.0,81.0
665,148.00137126458333,148.71046146458332,50.0,86.0
666,148.5468252645833,148.9752339270833,62.0,53.0
667,148.8195522645833,149.12182468958332,50.0,60.0
668,148.8195522645833,149.48432432708333,65.0,74.0
669,149.0922792645833,149.51159702708333,45.0,74.0
670,149.63701678541665,149.78679168749997,65.0,59.0
671,149.36500626458331,149.8081881020833,62.0,54.0
672,148.27409826458333,149.85098093124998,57.0,58.0
673,149.63701678541665,150.0953505083333,69.0,74.0
674,149.63701678541665,150.22598124999996,45.0,90.0
675,150.17755778541664,150.8048105708333,65.0,65.0
676,150.17755778541664,150.82057634999998,69.0,70.0
677,150.71809878541663,151.1291351708333,62.0,52.0
678,150.98836928541664,151.61787432499997,65.0,67.0
679,150.98836928541664,151.62463108749998,69.0,74.0
680,151.52891028541663,151.75638795624997,62.0,58.0
681,150.44782828541665,151.7912978958333,57.0,63.0
682,150.17755778541664,151.86224390208332,50.0,71.0
683,151.79918078541664,152.20909104374996,65.0,70.0
684,151.79918078541664,152.21359555208332,69.0,75.0
685,152.33972178541663,152.92192948749997,58.0,83.0
686,152.88026278541665,153.37350644791664,55.0,60.0
687,153.15053328541663,153.78679508749997,62.0,73.0
688,153.15053328541663,153.83409242499997,58.0,74.0
689,152.33972178541663,154.02215564791663,43.0,71.0
690,152.60999228541664,154.09535390833332,50.0,43.0
691,153.69107428541665,154.18093956666664,55.0,52.0
692,153.96134478541663,154.39602983958332,62.0,73.0
693,153.96134478541663,154.43544428749996,58.0,85.0
694,155.04242678541664,155.45796767916664,60.0,59.0
695,155.31269728541665,155.98274289999998,64.0,67.0
696,155.31269728541665,156.0041393145833,67.0,77.0
697,155.85323828541664,156.08597451041663,60.0,60.0
698,154.77215628541663,156.13284948541664,55.0,61.0
699,154.50188578541665,156.20092980624997,48.0,70.0
700,156.12280484791663,156.27793869374997,67.0,79.0
701,156.12280484791663,156.2890994020833,64.0,79.0
702,156.65851884791664,157.33708991458332,57.0,65.0
703,156.65851884791664,157.3538309770833,60.0,72.0
704,157.19423284791665,157.5848576395833,53.0,58.0
705,157.46208984791664,158.0937859395833,57.0,68.0
706,157.46208984791664,158.09936629374997,60.0,79.0
707,157.99780384791663,158.38954471041663,53.0,60.0
708,158.26566084791665,158.6127588770833,60.0,73.0
709,158.26566084791665,158.62168744374998,57.0,65.0
710,158.53351784791664,158.80695520208332,53.0,58.0
711,156.92637584791663,158.88842837291665,48.0,74.0
712,156.65851884791664,158.8940087270833,41.0,76.0
713,159.33708884791665,159.55472266041664,64.0,60.0
714,159.06923184791663,159.77012433124997,58.0,56.0
715,159.60494584791664,159.80593916041664,70.0,73.0
716,158.80137484791663,159.87350678541665,52.0,76.0
717,159.87350678541665,160.04017359374998,74.0,83.0
718,159.87350678541665,160.52778662083333,69.0,83.0
719,159.87350678541665,160.54017401874998,66.0,67.0
720,160.16179531874997,160.64490383749998,57.0,58.0
721,160.41404778541664,160.70233631874999,62.0,58.0
722,159.87350678541665,160.77440845208332,50.0,65.0
723,160.68431828541665,160.93431849791665,66.0,87.0
724,160.95458878541663,161.44445406666665,62.0,63.0
725,160.95458878541663,161.6561659583333,58.0,75.0
726,161.49512978541665,161.9027877895833,55.0,53.0
727,161.76540028541663,162.3183286833333,62.0,76.0
728,161.76540028541663,162.3791395458333,58.0,93.0
729,162.30594128541665,162.68882449375,55.0,60.0
730,160.95458878541663,162.75301373749997,43.0,73.0
731,162.57621178541663,162.8892751145833,62.0,77.0
732,162.57621178541663,162.91855441874998,58.0,87.0
733,161.22485928541664,163.00414007708332,50.0,62.0
734,163.11675278541665,163.7744110020833,61.0,114.0
735,163.65729378541664,164.0446815020833,57.0,59.0
736,163.92756428541665,164.51427649583331,64.0,81.0
737,163.92756428541665,164.54918643541666,61.0,111.0
738,163.11675278541665,164.77215959791664,45.0,68.0
739,163.38702328541663,164.77891636041664,52.0,60.0
740,164.46810528541664,165.08972743541665,57.0,65.0
741,164.73837578541665,165.21134916041663,61.0,111.0
742,165.00864628541663,165.25977262499998,64.0,77.0
743,165.81945778541666,166.1854490875,62.0,58.0
744,166.08972828541664,166.72936846874998,69.0,72.0
745,166.08972828541664,166.73499910416663,65.0,81.0
746,166.63026928541666,167.01653087499997,62.0,58.0
747,166.90053978541664,167.0750894833333,88.0,71.0
748,167.03567503541666,167.19558508125,89.0,86.0
749,167.17081028541665,167.25189143541664,88.0,59.0
750,166.90053978541664,167.2946842645833,65.0,85.0
751,166.90053978541664,167.2946842645833,69.0,75.0
752,165.27891678541664,167.31833293333332,50.0,75.0
753,167.17081028541665,167.33409871249998,62.0,60.0
754,165.54918728541665,167.44108078541666,57.0,55.0
755,167.30594553541664,167.48274748749998,86.0,81.0
756,167.44108078541666,167.87914422083333,58.0,37.0
757,167.44108078541666,168.0345497583333,74.0,65.0
758,167.44108078541666,168.1178831625,65.0,87.0
759,167.44108078541666,168.12126154374997,62.0,69.0
760,168.25189228541666,168.88139732499997,62.0,74.0
761,168.25189228541666,168.88477570624997,65.0,87.0
762,167.44108078541666,169.45820499374997,50.0,81.0
763,167.44108078541666,169.48833890625,46.0,39.0
764,168.79243328541665,169.58432099791665,58.0,76.0
765,169.06199984791664,169.58432099791665,65.0,87.0
766,169.06199984791664,169.58655313958332,62.0,73.0
767,169.59771384791665,170.04302611041666,62.0,60.0
768,169.59771384791665,170.21266887708333,64.0,71.0
769,169.59771384791665,170.21378494791665,70.0,68.0
770,170.13342784791666,170.43476697291666,62.0,60.0
771,170.40128484791666,170.43476697291666,62.0,69.0
772,170.40128484791666,171.05530235625,64.0,76.0
773,170.40128484791666,171.06199878125,70.0,70.0
774,170.93699884791664,171.08990055208332,86.0,69.0
775,171.20485584791666,171.50284676041665,89.0,75.0
776,170.93699884791664,171.65128418125,62.0,64.0
777,171.20485584791666,171.67472166874998,70.0,83.0
778,171.20485584791666,171.68476630625,64.0,87.0
779,171.47271284791665,171.73275735208333,88.0,65.0
780,169.59771384791665,171.75842698124998,58.0,56.0
781,169.59771384791665,171.78744482291665,52.0,64.0
782,171.74056984791665,172.04637325624998,81.0,65.0
783,171.74056984791665,172.11668571874998,69.0,74.0
784,171.74056984791665,172.1278464270833,64.0,85.0
785,171.74056984791665,172.15016784374998,61.0,87.0
786,171.74056984791665,172.17248926041665,45.0,85.0
787,172.81752878541664,173.771358425,64.0,86.0
788,172.81752878541664,173.77473680625,69.0,79.0
789,172.81752878541664,173.80401611041665,45.0,77.0
790,172.81752878541664,173.80852061874998,61.0,98.0
791,173.89861078541665,174.55063836666665,65.0,71.0
792,173.89861078541665,174.5596473833333,69.0,70.0
793,173.89861078541665,174.5664041458333,50.0,69.0
794,174.43915178541664,174.93239544791663,62.0,53.0
795,174.70942228541665,174.97068376874998,50.0,81.0
796,174.70942228541665,175.35131472291664,65.0,74.0
797,174.70942228541665,175.36595437499997,69.0,74.0
798,174.97969278541663,175.40199044166664,45.0,77.0
799,175.24996328541664,175.60469331666664,62.0,61.0
800,175.52023378541665,176.06077478541664,45.0,76.0
801,174.16888128541663,176.06077478541664,57.0,62.0
802,175.79050428541663,176.06077478541664,62.0,62.0
803,175.52023378541665,176.06077478541664,65.0,59.0
804,175.52023378541665,176.06077478541664,69.0,74.0
805,176.06077478541664,176.15536946041664,50.0,58.0
806,176.06077478541664,176.15874784166664,69.0,67.0
807,176.06077478541664,176.16325234999996,65.0,64.0
808,176.06077478541664,176.18239651041665,62.0,60.0
809,176.06077478541664,176.203792925,57.0,63.0
810,176.33104528541665,176.3974867833333,50.0,54.0
811,176.33104528541665,176.41663094374996,69.0,70.0
812,176.33104528541665,176.42901834166665,65.0,67.0
813,176.33104528541665,176.4414057395833,57.0,63.0
814,176.33104528541665,176.4414057395833,62.0,59.0
815,176.60131578541663,176.70379334999998,65.0,67.0
816,176.60131578541663,176.70942398541663,50.0,55.0
817,176.60131578541663,176.71280236666664,57.0,65.0
818,176.60131578541663,176.717306875,69.0,76.0
819,176.60131578541663,176.71955912916664,62.0,50.0
820,176.87158628541664,176.9673070875,62.0,58.0
821,176.87158628541664,176.9673070875,69.0,72.0
822,176.87158628541664,176.97293772291664,50.0,57.0
823,176.87158628541664,176.97293772291664,57.0,65.0
824,176.87158628541664,176.98307286666665,65.0,70.0
825,177.14115284791663,177.2337867270833,50.0,63.0
826,177.14115284791663,177.23825101041663,57.0,67.0
827,177.14115284791663,177.23825101041663,62.0,63.0
828,177.14115284791663,177.23936708124998,69.0,73.0
829,177.14115284791663,177.24829564791665,65.0,69.0
830,177.40900984791665,177.4915990895833,50.0,63.0
831,177.40900984791665,177.50164372708332,65.0,69.0
832,177.40900984791665,177.50275979791664,69.0,77.0
833,177.40900984791665,177.50387586875,57.0,69.0
834,177.40900984791665,177.50610801041665,62.0,65.0
835,177.67686684791664,177.7661525145833,65.0,71.0
836,177.67686684791664,177.76838465624996,69.0,79.0
837,177.67686684791664,177.77508108124997,50.0,70.0
838,177.67686684791664,177.7828935770833,62.0,64.0
839,177.67686684791664,177.7862417895833,57.0,70.0
840,177.94472384791663,178.02619701874997,69.0,87.0
841,177.94472384791663,178.03512558541664,65.0,83.0
842,177.94472384791663,178.10432197708332,62.0,73.0
843,177.94472384791663,178.10543804791664,57.0,77.0
844,177.94472384791663,178.11548268541665,50.0,85.0
845,178.21258084791666,178.66458953541664,62.0,58.0
846,178.21258084791666,178.90440432291666,64.0,70.0
847,178.21258084791666,178.91453946666667,70.0,74.0
848,179.01926928541664,179.66454010416666,64.0,72.0
849,179.01926928541664,179.68368426458332,70.0,73.0
850,178.74899878541666,179.80305373541665,62.0,59.0
851,178.21258084791666,179.90665742708333,58.0,62.0
852,178.21258084791666,179.95845927291666,52.0,60.0
853,179.83008078541664,180.40778397916665,70.0,81.0
854,179.83008078541664,180.42918039375,64.0,86.0
855,180.37062178541666,180.95846012291665,45.0,67.0
856,181.18143328541666,181.28728923124999,40.0,74.0
857,181.17242426874998,181.56431649375,57.0,56.0
858,181.45170378541664,181.96409160833332,40.0,85.0
859,181.72197428541665,182.09697460416666,49.0,60.0
860,180.60485621875,182.15891159375,52.0,63.0
861,181.72197428541665,182.25688465,57.0,63.0
862,181.99224478541666,182.5312295395833,60.0,69.0
863,181.99224478541666,182.55622951458332,45.0,81.0
864,182.53350226458332,183.2425924645833,50.0,86.0
865,183.0789562645833,183.5073649270833,62.0,53.0
866,183.3516832645833,183.6539556895833,50.0,60.0
867,183.3516832645833,184.01645532708332,65.0,74.0
868,183.6244102645833,184.04372802708332,45.0,74.0
869,184.16914778541664,184.31892268749996,65.0,59.0
870,183.8971372645833,184.3403191020833,62.0,54.0
871,182.80622926458332,184.38311193124997,57.0,58.0
872,184.16914778541664,184.6274815083333,69.0,74.0
873,184.16914778541664,184.75811224999995,45.0,90.0
874,184.70968878541663,185.3369415708333,65.0,65.0
875,184.70968878541663,185.35270734999997,69.0,70.0
876,185.25022978541662,185.6612661708333,62.0,52.0
877,185.52050028541663,186.15000532499997,65.0,67.0
878,185.52050028541663,186.15676208749997,69.0,74.0
879,186.06104128541662,186.28851895624996,62.0,58.0
880,184.97995928541664,186.3234288958333,57.0,63.0
881,184.70968878541663,186.3943749020833,50.0,71.0
882,186.33131178541663,186.74122204374996,65.0,70.0
883,186.33131178541663,186.7457265520833,69.0,75.0
884,186.87185278541662,187.45406048749996,58.0,83.0
885,187.41239378541664,187.90563744791663,55.0,60.0
886,187.68266428541662,188.31892608749996,62.0,73.0
887,187.68266428541662,188.36622342499996,58.0,74.0
888,186.87185278541662,188.55428664791663,43.0,71.0
889,187.14212328541663,188.62748490833332,50.0,43.0
890,188.1781602020833,188.71307056666663,55.0,52.0
891,188.49347578541662,188.9281608395833,62.0,73.0
892,188.49347578541662,188.96757528749995,58.0,85.0
893,189.57455778541663,189.99009867916664,60.0,59.0
894,189.84482828541664,190.51487389999997,64.0,67.0
895,189.84482828541664,190.5362703145833,67.0,77.0
896,190.38536928541663,190.61810551041663,60.0,60.0
897,189.30428728541662,190.66498048541663,55.0,61.0
898,189.03401678541664,190.73306080624997,48.0,70.0
899,190.65493584791662,190.81006969374997,67.0,79.0
900,190.65493584791662,190.8212304020833,64.0,79.0
901,191.19064984791663,191.8692209145833,57.0,65.0
902,191.19064984791663,191.8859619770833,60.0,72.0
903,191.72636384791664,192.1169886395833,53.0,58.0
904,191.99422084791664,192.6259169395833,57.0,68.0
905,191.99422084791664,192.63149729374996,60.0,79.0
906,192.52993484791662,192.92167571041662,53.0,60.0
907,192.79779184791664,193.1448898770833,60.0,73.0
908,192.79779184791664,193.15381844374997,57.0,65.0
909,193.06564884791663,193.3390862020833,53.0,58.0
910,191.45850684791662,193.42055937291664,48.0,74.0
911,191.19064984791663,193.4261397270833,41.0,76.0
912,193.86921984791664,194.08685366041664,64.0,60.0
913,193.60136284791662,194.30225533124997,58.0,56.0
914,194.13707684791663,194.33807016041663,70.0,73.0
915,193.33350584791663,194.40563778541664,52.0,76.0
916,194.40563778541664,194.57230459374998,74.0,83.0
917,194.40563778541664,195.05991762083332,69.0,83.0
918,194.40563778541664,195.07230501874997,66.0,67.0
919,194.69392631874996,195.17703483749997,57.0,58.0
920,194.94617878541663,195.23446731874998,62.0,58.0
921,194.40563778541664,195.3065394520833,50.0,65.0
922,195.21644928541664,195.46644949791664,66.0,87.0
923,195.48671978541662,195.97658506666664,62.0,63.0
924,195.48671978541662,196.1882969583333,58.0,75.0
925,196.02726078541664,196.4349187895833,55.0,53.0
926,196.29753128541662,196.8504596833333,62.0,76.0
927,196.29753128541662,196.9112705458333,58.0,93.0
928,196.83807228541664,197.22095549374998,55.0,60.0
929,195.48671978541662,197.28514473749996,43.0,73.0
930,197.10834278541662,197.4214061145833,62.0,77.0
931,197.10834278541662,197.45068541874997,58.0,87.0
932,195.75699028541663,197.5362710770833,50.0,62.0
933,197.64888378541664,198.3065420020833,61.0,89.0
934,198.18942478541663,198.5768125020833,57.0,59.0
935,198.45969528541664,199.0464074958333,64.0,81.0
936,198.45969528541664,199.08131743541665,61.0,99.0
937,197.64888378541664,199.30429059791663,45.0,68.0
938,197.91915428541662,199.31104736041664,52.0,60.0
939,199.00023628541663,199.62185843541664,57.0,65.0
940,199.27050678541664,199.74348016041662,61.0,77.0
941,199.54077728541662,199.79190362499997,64.0,77.0
942,200.35158878541665,200.71758008749998,62.0,58.0
943,200.62185928541663,201.26149946874997,69.0,72.0
944,200.62185928541663,201.26713010416663,65.0,81.0
945,201.16240028541665,201.54866187499996,62.0,58.0
946,201.43267078541663,201.6072204833333,88.0,71.0
947,201.56780603541665,201.72771608124998,89.0,86.0
948,201.70294128541664,201.78402243541663,88.0,59.0
949,201.43267078541663,201.8268152645833,65.0,85.0
950,201.43267078541663,201.8268152645833,69.0,75.0
951,199.81104778541663,201.85046393333332,50.0,75.0
952,201.70294128541664,201.86622971249997,62.0,60.0
953,200.08131828541664,201.97321178541665,57.0,55.0
954,201.83807653541663,202.01487848749997,86.0,81.0
955,201.97321178541665,202.41127522083332,58.0,37.0
956,201.97321178541665,202.5666807583333,74.0,65.0
957,201.97321178541665,202.65001416249999,65.0,87.0
958,201.97321178541665,202.65339254374996,62.0,69.0
959,202.78402328541665,203.41352832499996,62.0,74.0
960,202.78402328541665,203.41690670624996,65.0,87.0
961,201.97321178541665,203.99033599374997,50.0,81.0
962,201.97321178541665,204.02046990624999,46.0,39.0
963,203.32456428541664,204.11645199791664,58.0,76.0
964,203.59413084791663,204.11645199791664,65.0,87.0
965,203.59413084791663,204.1186841395833,62.0,73.0
966,204.12984484791664,204.57515711041665,62.0,60.0
967,204.12984484791664,204.74479987708332,64.0,71.0
968,204.12984484791664,204.74591594791664,70.0,68.0
969,204.66555884791666,204.96689797291666,62.0,60.0
970,204.93341584791665,204.96689797291666,62.0,69.0
971,204.93341584791665,205.58743335625,64.0,76.0
972,204.93341584791665,205.59412978125,70.0,70.0
973,205.46912984791663,205.6220315520833,86.0,69.0
974,205.73698684791665,206.03497776041664,89.0,75.0
975,205.46912984791663,206.18341518124998,62.0,64.0
976,205.73698684791665,206.20685266874997,70.0,83.0
977,205.73698684791665,206.21689730625,64.0,87.0
978,206.00484384791665,206.26488835208332,88.0,65.0
979,204.12984484791664,206.29055798124998,58.0,56.0
980,204.12984484791664,206.31957582291665,52.0,64.0
981,206.27270084791664,206.57850425624997,81.0,65.0
982,206.27270084791664,206.64881671874997,69.0,74.0
983,206.27270084791664,206.6599774270833,64.0,85.0
984,206.27270084791664,206.68229884374998,61.0,87.0
985,206.27270084791664,206.70462026041665,45.0,85.0
986,207.34965978541663,208.30348942499998,64.0,86.0
987,207.34965978541663,208.30686780624998,69.0,86.0
988,207.34965978541663,208.33614711041665,45.0,86.0
989,207.34965978541663,208.34065161874997,61.0,86.0
990,208.43074178541664,209.08276936666664,65.0,71.0
991,208.43074178541664,209.0917783833333,69.0,70.0
992,208.43074178541664,209.0985351458333,50.0,69.0
993,208.97128278541663,209.46452644791663,62.0,53.0
994,209.24155328541664,209.50281476874997,50.0,81.0
995,209.24155328541664,209.88344572291663,65.0,74.0
996,209.24155328541664,209.89808537499997,69.0,74.0
997,209.51182378541662,209.93412144166663,45.0,77.0
998,209.78209428541663,210.13682431666663,62.0,61.0
999,210.05236478541664,210.59290578541663,45.0,76.0
1000,208.70101228541662,210.59290578541663,57.0,62.0
1001,210.32263528541662,210.59290578541663,62.0,62.0
1002,210.05236478541664,210.59290578541663,65.0,59.0
1003,210.05236478541664,210.59290578541663,69.0,74.0
1004,210.59290578541663,211.13344678541662,43.0,74.0
1005,210.59290578541663,211.19538377499998,58.0,60.0
1006,210.59290578541663,211.19538377499998,62.0,76.0
1007,211.40371728541663,211.5208345020833,43.0,71.0
1008,211.40371728541663,212.0140781645833,62.0,83.0
1009,211.40371728541663,212.0174565458333,58.0,79.0
1010,211.13344678541662,212.29223155416665,50.0,67.0
1011,211.67398778541664,212.35979917916663,43.0,77.0
1012,211.94425828541662,212.6086732645833,55.0,57.0
1013,212.21452878541663,212.71227695624998,62.0,83.0
1014,212.21452878541663,212.7505652770833,58.0,83.0
1015,212.48479928541664,212.75506978541665,45.0,68.0
1016,212.75506978541665,213.7336742208333,65.0,75.0
1017,212.75506978541665,213.74606161874996,62.0,76.0
1018,212.75506978541665,213.77984543124998,58.0,66.0
1019,212.75506978541665,213.80124184583332,50.0,77.0
1020,212.75506978541665,213.83277340416663,46.0,77.0
1021,213.83615178541663,214.7877291708333,58.0,66.0
1022,213.83615178541663,214.80574720416664,62.0,65.0
1023,213.83615178541663,214.80687333124996,52.0,65.0
1024,213.83615178541663,214.8789454645833,46.0,79.0
1025,213.83615178541663,214.91047702291664,40.0,76.0
1026,214.91723378541664,214.98817979166662,64.0,57.0
1027,214.91723378541664,215.01971134999997,61.0,63.0
1028,214.91723378541664,215.02984649374997,45.0,86.0
1029,214.91723378541664,215.06363030624996,49.0,73.0
1030,214.91723378541664,215.07263932291664,52.0,59.0
1031,215.18750428541665,215.2775944520833,57.0,54.0
1032,215.18750428541665,215.28322508749997,45.0,71.0
1033,215.18750428541665,215.28322508749997,61.0,69.0
1034,215.18750428541665,215.2978647395833,49.0,67.0
1035,215.18750428541665,215.32263953541664,52.0,59.0
1036,215.45777478541663,215.55011720624998,52.0,57.0
1037,215.45777478541663,215.55236946041663,61.0,75.0
1038,215.45777478541663,215.55349558749998,57.0,58.0
1039,215.45777478541663,215.55687396874998,45.0,79.0
1040,215.45777478541663,215.57038749374996,49.0,70.0
1041,215.72804528541664,215.79336065624997,64.0,61.0
1042,215.72804528541664,215.80349579999998,61.0,77.0
1043,215.72804528541664,215.8147570708333,57.0,59.0
1044,215.72804528541664,215.81588319791663,52.0,58.0
1045,215.72804528541664,215.82038770624996,49.0,72.0
1046,215.72804528541664,215.83390123124997,45.0,81.0
1047,215.99831578541665,216.0580005208333,64.0,61.0
1048,215.99831578541665,216.07939693541664,57.0,59.0
1049,215.99831578541665,216.08277531666664,52.0,59.0
1050,215.99831578541665,216.08615369791664,61.0,90.0
1051,215.99831578541665,216.0884059520833,49.0,66.0
1052,215.99831578541665,216.11430687499998,45.0,86.0
1053,216.26858628541663,216.32376651249996,64.0,61.0
1054,216.26858628541663,216.32714489374996,57.0,54.0
1055,216.26858628541663,216.34628905416665,52.0,58.0
1056,216.26858628541663,216.35079356249997,61.0,93.0
1057,216.26858628541663,216.3586764520833,49.0,67.0
1058,216.26858628541663,216.38007286666664,45.0,79.0
1059,216.53885678541664,216.60079377499997,64.0,68.0
1060,216.53885678541664,216.61092891874998,57.0,60.0
1061,216.53885678541664,216.61768568124998,52.0,64.0
1062,216.53885678541664,216.6188118083333,49.0,74.0
1063,216.53885678541664,216.62106406249998,61.0,98.0
1064,216.53885678541664,216.64246047708332,45.0,85.0
1065,216.80912728541665,216.8823255458333,64.0,74.0
1066,216.80912728541665,216.88345167291664,57.0,61.0
1067,216.80912728541665,216.89471294374997,49.0,81.0
1068,216.80912728541665,216.90034357916664,61.0,108.0
1069,216.80912728541665,216.9093525958333,52.0,72.0
1070,216.80912728541665,216.93074901041663,45.0,83.0
1071,217.07939778541663,218.08277655624997,64.0,89.0
1072,217.07939778541663,218.0879848895833,61.0,89.0
1073,217.07939778541663,218.09449530624997,57.0,89.0
1074,217.07939778541663,218.1114223895833,52.0,89.0
1075,217.07939778541663,218.1153286395833,49.0,89.0
1076,217.07939778541663,218.1192348895833,45.0,89.0
1077,218.25725572291665,220.21927045208332,64.0,74.0
1078,218.25725572291665,220.2609371083333,69.0,77.0
1079,218.25725572291665,220.26381067083332,45.0,71.0
1080,218.25725572291665,220.27099457708331,61.0,61.0
1081,220.9606495770833,222.2494423583333,50.0,59.0
1082,221.9951320770833,222.9764536708333,62.0,11.0
1083,221.65030457708332,223.01955710833332,57.0,58.0
1084,221.3054770770833,223.02530423333332,53.0,54.0
1085,220.27099457708331,225.6086369208333,38.0,35.0
1086,222.6962813270833,225.6991541395833,50.0,53.0
1087,220.61582207708332,225.70059092083332,45.0,61.0
1088,223.5468558270833,225.7020277020833,69.0,50.0
1089,223.7192695770833,225.7824874520833,74.0,72.0
