,start,end,pitch,velocity
0,14.77930665,14.924134200000001,70.0,93.0
1,14.986405945833335,15.308204933333334,72.0,87.0
2,15.401630445833334,15.732079943750001,70.0,92.0
3,15.816854945833335,17.52619580416667,77.0,93.0
4,18.100589695833335,18.277060108333334,70.0,90.0
5,18.308201945833336,18.432769295833335,79.0,95.0
6,18.515814195833336,18.66979328125,82.0,87.0
7,18.723426445833333,19.03311471875,79.0,87.0
8,19.138650945833334,20.1801724,79.0,87.0
9,21.422385695833334,21.614427027083334,79.0,92.0
10,21.629997945833335,21.998509689583333,77.0,92.0
11,22.045222445833332,22.377402045833335,75.0,100.0
12,22.460446945833333,24.5919327125,77.0,93.0
13,24.744181695833333,24.906811291666667,77.0,90.0
14,24.951793945833334,25.301274566666667,75.0,103.0
15,25.36701844583333,25.70784855625,72.0,93.0
16,25.78224294583333,27.860095547916664,70.0,97.0
17,28.065977695833332,28.218226679166666,70.0,88.0
18,28.273589945833333,28.576357810416667,72.0,90.0
19,28.688814445833334,29.00715322916667,70.0,93.0
20,29.10403894583333,30.142100195833333,82.0,93.0
21,30.349712445833333,30.699193066666666,79.0,89.0
22,30.764936945833334,31.8168390125,84.0,93.0
23,32.010610445833336,32.32375892291667,84.0,88.0
24,32.42583494583333,32.72341250416667,79.0,88.0
25,32.84105944583334,33.14382731041667,79.0,93.0
26,33.25628394583333,33.40334262291667,79.0,93.0
27,33.46389619583333,33.71476099791667,77.0,91.0
28,33.879120695833336,34.07808243541666,75.0,88.0
29,34.08673294583333,35.11268348125,72.0,93.0
30,35.33240644583333,35.484655429166665,75.0,100.0
31,35.54001869583333,35.66804625,77.0,87.0
32,35.747630945833336,35.97773452291666,77.0,89.0
33,36.16285544583333,36.31856463333333,77.0,91.0
34,36.370467695833334,36.48465443333333,75.0,100.0
35,36.57807994583333,36.86354678958333,72.0,88.0
36,36.99330444583333,37.12998251041667,75.0,91.0
37,37.20091669583333,37.30126261666666,77.0,85.0
38,37.40852894583333,37.70783660625,77.0,87.0
39,37.82375344583333,37.95351110208333,77.0,87.0
40,38.03136569583333,38.135171820833335,75.0,91.0
41,38.238977945833334,38.552126422916665,72.0,88.0
42,38.654202445833334,38.806451429166664,75.0,85.0
43,38.86181469583333,38.98811214791667,72.0,87.0
44,39.06942694583333,39.335862666666664,68.0,87.0
45,39.484651445833336,39.766658085416665,68.0,87.0
46,39.89987594583333,40.02963360208334,68.0,88.0
47,40.107488195833334,40.23724585208333,70.0,80.0
48,40.31510044583333,40.63343922916667,72.0,86.0
49,40.73032494583333,41.18361169166667,70.0,86.0
50,41.353161695833336,41.49849027083333,70.0,93.0
51,41.56077394583333,41.882572933333336,72.0,87.0
52,41.975998445833326,42.30644794375,70.0,92.0
53,42.391222945833334,44.10056380416667,77.0,93.0
54,44.67495769583333,44.85142810833333,70.0,90.0
55,44.88256994583333,45.00713729583333,79.0,95.0
56,45.090182195833336,45.24416128125,82.0,87.0
57,45.29779444583333,45.60748271875,79.0,87.0
58,45.713018945833326,46.754540399999996,79.0,87.0
59,47.996753695833334,48.18879502708333,79.0,92.0
60,48.20436594583333,48.57287768958333,77.0,92.0
61,48.61959044583333,48.95177004583333,75.0,100.0
62,49.03481494583333,51.1663007125,77.0,93.0
63,51.31854969583333,51.48117929166666,77.0,90.0
64,51.52616194583333,51.87564256666666,75.0,103.0
65,51.94138644583333,52.28221655625,72.0,93.0
66,52.35661094583333,54.434463547916664,70.0,97.0
67,54.64034569583333,54.79259467916666,70.0,88.0
68,54.84795794583333,55.15072581041667,72.0,90.0
69,55.26318244583333,55.58152122916666,70.0,93.0
70,55.67840694583333,56.71646819583333,82.0,93.0
71,56.92408044583333,57.273561066666666,79.0,89.0
72,57.33930494583333,58.3912070125,84.0,93.0
73,58.58497844583333,58.89812692291666,84.0,88.0
74,59.00020294583333,59.29778050416666,79.0,88.0
75,59.41542744583333,59.71819531041666,79.0,93.0
76,59.83065194583333,59.97771062291666,79.0,93.0
77,60.03826419583333,60.28912899791666,77.0,91.0
78,60.45348869583333,60.65245043541666,75.0,88.0
79,60.66110094583333,61.687051481249995,72.0,93.0
80,61.90677444583333,62.059023429166665,75.0,100.0
81,62.11438669583333,62.242414249999996,77.0,87.0
82,62.32199894583333,62.55210252291666,77.0,89.0
83,62.73722344583333,62.89293263333333,77.0,91.0
84,62.944835695833326,63.05902243333333,75.0,100.0
85,63.15244794583333,63.43791478958333,72.0,88.0
86,63.56767244583333,63.70435051041666,75.0,91.0
87,63.77528469583333,63.87563061666666,77.0,85.0
88,63.98289694583333,64.28220460624999,77.0,87.0
89,64.39812144583334,64.52787910208333,77.0,87.0
90,64.60573369583332,64.70953982083333,75.0,91.0
91,64.81334594583333,65.12649442291666,72.0,88.0
92,65.22857044583333,65.38081942916666,75.0,85.0
93,65.43618269583334,65.56248014791666,72.0,87.0
94,65.64379494583332,65.91023066666666,68.0,87.0
95,66.05901944583333,66.34102608541667,68.0,87.0
96,66.47424394583334,66.60400160208333,68.0,88.0
97,66.68185619583332,66.81161385208333,70.0,80.0
98,66.88946844583333,67.20780722916666,72.0,86.0
99,67.30469294583332,68.11092051666665,70.0,86.0
100,68.13514194583333,68.46905164791667,82.0,93.0
101,68.55036644583333,68.68704451041665,84.0,95.0
102,68.75797869583333,68.87735573958332,82.0,89.0
103,68.96559094583333,71.06642508958333,82.0,88.0
104,71.45090775208334,71.75952836458333,82.0,90.0
105,71.86470075208334,72.01642485208333,84.0,91.0
106,72.07159725208334,72.19401101458334,82.0,87.0
107,72.27849375208334,74.20607947708334,77.0,93.0
108,74.76125175208334,75.05952753958334,82.0,87.0
109,75.17504475208334,75.30952747708334,84.0,89.0
110,75.38194125208334,75.48021708958333,82.0,88.0
111,75.58883775208334,76.48711338958334,75.0,95.0
112,76.83021675208334,76.94056155208334,70.0,87.0
113,77.03711325208334,77.14745805208334,70.0,87.0
114,77.24400975208334,77.63366482708334,72.0,92.0
115,77.65780275208334,77.92159578958334,72.0,93.0
116,78.48538875208334,78.61469906458333,72.0,91.0
117,78.69228525208334,78.79573350208334,75.0,89.0
118,78.89918175208334,80.83021575208333,77.0,81.0
119,81.38193975208334,81.67159485208333,82.0,86.0
120,81.79573275208334,81.95262926458334,84.0,87.0
121,82.00262925208334,82.10607750208334,82.0,87.0
122,82.20952575208334,84.54055965208335,82.0,85.0
123,84.69228375208334,84.99400781458334,82.0,88.0
124,85.10607675208334,85.24745602708335,84.0,88.0
125,85.31297325208334,85.40780081458334,82.0,92.0
126,85.51986975208334,87.20435208958334,77.0,90.0
127,88.00262775208334,88.28021388958334,82.0,90.0
128,88.41642075208334,88.58711036458334,84.0,90.0
129,88.62331725208334,88.71814481458334,82.0,88.0
130,88.83021375208334,89.80952385208334,75.0,97.0
131,90.07159275208335,90.16642031458333,70.0,87.0
132,90.27848925208335,90.38538577708334,70.0,87.0
133,90.48538575208335,90.81469601458335,72.0,90.0
134,90.89917875208334,91.25435107708334,72.0,97.0
135,91.72676475208334,91.87159230208334,72.0,90.0
136,91.93366125208334,92.04400605208335,75.0,88.0
137,92.14055775208334,94.50831037500001,75.0,95.0
138,107.70898927083334,107.85431784583335,70.0,93.0
139,107.91660152083335,108.23840050833334,72.0,87.0
140,108.33182602083335,108.66227551875001,70.0,92.0
141,108.74705052083334,110.45639137916667,77.0,93.0
142,111.03078527083335,111.20725568333334,70.0,90.0
143,111.23839752083335,111.36296487083334,79.0,95.0
144,111.44600977083334,111.59998885625001,82.0,87.0
145,111.65362202083335,111.96331029375001,79.0,87.0
146,112.06884652083335,113.11036797500002,79.0,87.0
147,114.35258127083334,114.54462260208335,79.0,92.0
148,114.56019352083334,114.92870526458334,77.0,92.0
149,114.97541802083335,115.30759762083335,75.0,100.0
150,115.39064252083335,117.52212828750001,77.0,93.0
151,117.67437727083335,117.83700686666668,77.0,90.0
152,117.88198952083334,118.23147014166668,75.0,103.0
153,118.29721402083334,118.63804413125001,72.0,93.0
154,118.71243852083335,120.79029112291667,70.0,97.0
155,120.99617327083334,121.14842225416668,70.0,88.0
156,121.20378552083335,121.50655338541668,72.0,90.0
157,121.61901002083334,121.93734880416667,70.0,93.0
158,122.03423452083334,123.07229577083335,82.0,93.0
159,123.27990802083335,123.62938864166668,79.0,89.0
160,123.69513252083334,124.74703458750001,84.0,93.0
161,124.94080602083335,125.25395449791668,84.0,88.0
162,125.35603052083334,125.65360807916667,79.0,88.0
163,125.77125502083334,126.07402288541667,79.0,93.0
164,126.18647952083334,126.33353819791668,79.0,93.0
165,126.39409177083334,126.64495657291667,77.0,91.0
166,126.80931627083334,127.00827801041667,75.0,88.0
167,127.01692852083335,128.04287905625,72.0,93.0
168,128.26260202083336,128.41485100416668,75.0,100.0
169,128.47021427083334,128.598241825,77.0,87.0
170,128.67782652083335,128.90793009791668,77.0,89.0
171,129.09305102083334,129.24876020833335,77.0,91.0
172,129.30066327083335,129.41485000833336,75.0,100.0
173,129.50827552083334,129.79374236458335,72.0,88.0
174,129.92350002083333,130.06017808541668,75.0,91.0
175,130.13111227083334,130.23145819166666,77.0,85.0
176,130.33872452083335,130.63803218125003,77.0,87.0
177,130.75394902083335,130.88370667708335,77.0,87.0
178,130.96156127083333,131.06536739583333,75.0,91.0
179,131.16917352083334,131.48232199791667,72.0,88.0
180,131.58439802083333,131.73664700416668,75.0,85.0
181,131.79201027083334,131.91830772291667,72.0,87.0
182,131.99962252083333,132.26605824166668,68.0,87.0
183,132.41484702083335,132.69685366041668,68.0,87.0
184,132.83007152083334,132.95982917708335,68.0,88.0
185,133.03768377083335,133.16744142708336,70.0,80.0
186,133.24529602083334,133.56363480416667,72.0,86.0
187,133.66052052083336,134.11380726666667,70.0,86.0
188,134.49096952083335,134.82487922291668,82.0,93.0
189,134.90619402083334,135.04287208541666,84.0,95.0
190,135.11380627083335,135.23318331458336,82.0,89.0
191,135.32141852083333,137.42695275625002,82.0,88.0
192,137.81276552083335,138.12245379375003,82.0,90.0
193,138.22799002083335,138.38023900416667,84.0,91.0
194,138.43560227083333,138.55843951875,82.0,87.0
195,138.64321452083334,140.57746865000001,77.0,93.0
196,141.13456152083336,141.43386918125,82.0,87.0
197,141.54978602083335,141.68473398333333,84.0,89.0
198,141.75739827083333,141.85601408958334,82.0,88.0
199,141.96501052083335,142.86639370625,75.0,95.0
200,143.21068402083336,143.32141055416668,70.0,87.0
201,143.41829627083334,143.5290228041667,70.0,87.0
202,143.62590852083335,144.01691159166668,72.0,92.0
203,144.04113302083334,144.30583863958333,72.0,93.0
204,144.87158202083333,145.00133967708334,72.0,91.0
205,145.07919427083334,145.18300039583335,75.0,89.0
206,145.28680652083335,147.22452085416668,77.0,81.0
207,147.77815352083334,148.06881067083333,82.0,86.0
208,148.19337802083334,148.3508173104167,84.0,87.0
209,148.40099027083335,148.50479639583335,82.0,87.0
210,148.60860252083336,150.9477005375,82.0,85.0
211,151.09994952083335,151.40271738541668,82.0,88.0
212,151.51517402083334,151.65704239166666,84.0,88.0
213,151.72278627083335,151.81790013333335,82.0,92.0
214,151.92996907083335,153.61445140833337,77.0,90.0
215,154.41272707083337,154.69031320833335,82.0,90.0
216,154.82652007083337,154.99720968333335,84.0,90.0
217,155.03341657083337,155.12824413333337,82.0,88.0
218,155.24031307083337,156.21962317083336,75.0,97.0
219,156.48169207083336,156.57651963333336,70.0,87.0
220,156.68858857083336,156.79548509583336,70.0,87.0
221,156.89548507083336,157.22479533333336,72.0,90.0
222,157.30927807083336,157.66445039583337,72.0,97.0
223,158.13686407083335,158.28169162083336,72.0,90.0
224,158.34376057083335,158.45410537083336,75.0,88.0
225,158.55065707083335,160.91272544583336,75.0,95.0
226,190.88980722916668,191.22371693125,82.0,93.0
227,191.30503172916667,191.44170979375002,84.0,95.0
228,191.51264397916668,191.6320210229167,82.0,89.0
229,191.7202562291667,193.82579046458335,82.0,88.0
230,194.21160322916668,194.52129150208336,82.0,90.0
231,194.62682772916668,194.77907671250003,84.0,91.0
232,194.8344399791667,194.95727722708335,82.0,87.0
233,195.0420522291667,196.97630635833335,77.0,93.0
234,197.5333992291667,197.83270688958333,82.0,87.0
235,197.94862372916668,198.0835716916667,84.0,89.0
236,198.1562359791667,198.25485179791667,82.0,88.0
237,198.36384822916668,199.26523141458335,75.0,95.0
238,199.6095217291667,199.7202482625,70.0,87.0
239,199.81713397916667,199.92786051250002,70.0,87.0
240,200.02474622916668,200.41574930000002,72.0,92.0
241,200.43997072916667,200.7046763479167,72.0,93.0
242,201.2704197291667,201.40017738541667,72.0,91.0
243,201.47803197916667,201.58183810416668,75.0,89.0
244,201.68564422916668,203.62335856250002,77.0,81.0
245,204.17699122916667,204.4676483791667,82.0,86.0
246,204.5922157291667,204.74965501875002,84.0,87.0
247,204.79982797916668,204.90363410416668,82.0,87.0
248,205.0074402291667,207.34653824583336,82.0,85.0
249,207.49878722916668,207.80155509375,82.0,88.0
250,207.91401172916667,208.05588010000002,84.0,88.0
251,208.12162397916669,208.21677959375,82.0,92.0
252,208.32923622916667,210.01954596458336,77.0,90.0
253,210.8205832291667,211.09912966458336,82.0,90.0
254,211.23580772916668,211.4070878354167,84.0,90.0
255,211.4434199791667,211.53857559375,82.0,88.0
256,211.65103222916667,212.6337302125,75.0,97.0
257,212.89670572916668,212.99186134375003,70.0,87.0
258,213.1043179791667,213.21158430833336,70.0,87.0
259,213.31193022916668,213.64237972708335,72.0,90.0
260,213.72715472916667,214.08355575833335,72.0,97.0
261,214.5576037291667,214.70293230416667,72.0,90.0
262,214.76521597916667,214.87594251250002,75.0,88.0
263,214.97282822916668,217.34306808333335,82.0,95.0
264,217.4641752291667,217.79808493125,82.0,93.0
265,217.87939972916666,218.01607779375001,84.0,95.0
266,218.08701197916668,218.20638902291668,82.0,89.0
267,218.2946242291667,220.40015846458334,82.0,88.0
268,220.78597122916668,221.09565950208335,82.0,90.0
269,221.20119572916667,221.35344471250002,84.0,91.0
270,221.40880797916668,221.53164522708335,82.0,87.0
271,221.6164202291667,223.55067435833334,77.0,93.0
272,224.10776722916668,224.40707488958336,82.0,87.0
273,224.52299172916668,224.65793969166668,84.0,89.0
274,224.7306039791667,224.82921979791666,82.0,88.0
275,224.93821622916667,225.83959941458335,75.0,95.0
276,226.18388972916668,226.29461626250003,70.0,87.0
277,226.3915019791667,226.5022285125,70.0,87.0
278,226.59911422916667,226.9901173,72.0,92.0
279,227.0143387291667,227.27904434791668,72.0,93.0
280,227.84478772916668,227.9745453854167,72.0,91.0
281,228.0523999791667,228.15620610416667,75.0,89.0
282,228.26001222916668,230.1977265625,77.0,81.0
283,230.75135922916667,231.04201637916668,82.0,86.0
284,231.1665837291667,231.32402301875,84.0,87.0
285,231.37419597916667,231.47800210416668,82.0,87.0
286,231.58180822916668,233.92090624583335,82.0,85.0
287,234.07315522916667,234.37592309375,82.0,88.0
288,234.4883797291667,234.63024810000002,84.0,88.0
289,234.69599197916668,234.79114759375,82.0,92.0
290,234.9036042291667,236.59391396458335,77.0,90.0
291,237.39495122916668,237.67349766458335,82.0,90.0
292,237.81017572916667,237.98145583541668,84.0,90.0
293,238.01778797916668,238.11294359375,82.0,88.0
294,238.22540022916667,239.20809821250003,75.0,97.0
295,239.47107372916668,239.56622934375002,70.0,87.0
296,239.6786859791667,239.78595230833335,70.0,87.0
297,239.8862982291667,240.21674772708334,72.0,90.0
298,240.30152272916666,241.06276764583333,72.0,97.0
299,241.9624207291667,242.10774930416667,72.0,90.0
300,242.17003297916668,242.28075951250003,75.0,88.0
301,242.37764522916666,244.74788508333336,75.0,95.0
