,start,end,pitch,velocity
0,2.98620615,3.651723225,58.0,73.0
1,3.39999915,3.9810334875000004,65.0,86.0
2,3.8137921500000003,4.3448265,58.0,72.0
3,4.22758515,4.8672401625,67.0,82.0
4,4.22758515,4.872412575,63.0,82.0
5,4.8482746500000005,5.099998725000001,58.0,70.0
6,5.0551711500000005,5.513791725,63.0,82.0
7,2.57241315,5.6413779,51.0,88.0
8,5.468964150000001,5.8896537,58.0,66.0
9,5.675860650000001,5.996550225,63.0,71.0
10,5.0551711500000005,6.3017225625,70.0,86.0
11,6.296550150000001,6.803446575000001,56.0,74.0
12,6.710343150000001,7.182756825,61.0,81.0
13,6.710343150000001,7.182756825,65.0,81.0
14,7.33103265,7.4706877875,61.0,81.0
15,7.12413615,7.820687700000001,56.0,73.0
16,7.53792915,8.215515187500001,61.0,83.0
17,7.53792915,8.2499979375,68.0,85.0
18,8.158618650000001,8.4275841,56.0,71.0
19,8.36551515,8.7310323,61.0,88.0
20,5.882757150000001,8.8913770875,49.0,87.0
21,8.77930815,8.903446050000001,56.0,77.0
22,8.36551515,9.051721875,65.0,91.0
23,8.986204650000001,9.284480437500001,61.0,78.0
24,9.813790650000001,10.15861815,56.0,79.0
25,9.60689415,10.21379055,51.0,73.0
26,10.02068715,10.59999735,63.0,83.0
27,10.84827315,11.272410975000001,68.0,80.0
28,10.84827315,11.313790275,56.0,80.0
29,10.43448015,11.796548775000002,51.0,75.0
30,11.67585915,12.068962500000001,56.0,86.0
31,9.19310115,12.3086176125,44.0,84.0
32,11.67585915,12.341376225000001,63.0,84.0
33,12.089652150000001,12.374134837500002,51.0,80.0
34,12.29654865,12.531031350000001,56.0,91.0
35,13.12413465,13.3534449375,58.0,79.0
36,13.331031150000001,13.5431000625,62.0,82.0
37,12.917238150000001,14.003444775,53.0,71.0
38,12.503445150000001,14.0051689125,46.0,86.0
39,13.744824150000001,14.06206545,65.0,83.0
40,13.53792765,14.081030962500002,58.0,85.0
41,13.95172065,14.1241344,62.0,82.0
42,14.158617150000001,14.658617025000002,62.0,73.0
43,14.158617150000001,15.057340131250001,58.0,73.0
44,14.158617150000001,15.268412585416668,46.0,84.0
45,14.158617150000001,15.377409016666668,70.0,86.0
46,16.232079445833335,16.816853950000002,58.0,74.0
47,16.647303945833336,17.1075111,63.0,84.0
48,17.062528445833333,17.347995289583334,65.0,83.0
49,15.816854945833335,17.351455493750002,51.0,87.0
50,17.477752945833334,18.121350920833333,63.0,77.0
51,17.477752945833334,18.164603472916667,67.0,75.0
52,18.100589695833335,18.3635652125,58.0,72.0
53,18.308201945833336,18.766678997916667,63.0,84.0
54,17.477752945833334,18.969100941666667,51.0,87.0
55,18.723426445833333,19.040035127083335,58.0,73.0
56,18.931038695833333,19.1524917625,63.0,72.0
57,18.308201945833336,19.282249418750002,70.0,87.0
58,19.761487695833335,20.157681072916667,58.0,74.0
59,19.969099945833335,20.74591578125,65.0,84.0
60,20.384324445833336,20.84972190625,58.0,69.0
61,20.799548945833333,21.219963752083334,67.0,76.0
62,20.799548945833333,21.26321630416667,63.0,75.0
63,21.422385695833334,21.59020559791667,63.0,75.0
64,21.214773445833334,21.72515356041667,58.0,69.0
65,21.629997945833335,22.09539540625,70.0,86.0
66,19.138650945833334,22.232073470833335,51.0,89.0
67,22.045222445833332,22.335879595833333,63.0,77.0
68,21.837610195833335,22.37567194375,58.0,77.0
69,22.252834695833336,22.382592352083336,67.0,73.0
70,22.460446945833333,22.86183062916667,68.0,76.0
71,22.460446945833333,22.87221124166667,65.0,82.0
72,22.875671445833333,23.29954645625,60.0,74.0
73,22.460446945833333,23.32030768125,53.0,87.0
74,23.290895945833334,23.93276381875,65.0,87.0
75,23.706120445833335,23.982936779166668,68.0,73.0
76,24.121344945833336,24.621344447916666,65.0,83.0
77,24.121344945833336,24.764942920833334,72.0,86.0
78,24.536569445833333,25.040029152083335,48.0,68.0
79,24.121344945833336,25.065980683333333,41.0,81.0
80,24.951793945833334,25.11269343958333,65.0,89.0
81,24.951793945833334,25.370478650000003,68.0,86.0
82,25.36701844583333,25.462174060416665,65.0,86.0
83,25.78224294583333,26.591930720833332,58.0,77.0
84,25.78224294583333,26.763210827083334,65.0,77.0
85,26.820304195833334,27.097120529166666,58.0,85.0
86,26.612691945833333,27.289161860416666,53.0,83.0
87,25.78224294583333,27.313383289583335,46.0,85.0
88,27.027916445833334,27.330684310416665,65.0,83.0
89,27.23552869583333,27.37566696458333,58.0,81.0
90,27.443140945833335,27.85663534375,65.0,87.0
91,27.443140945833335,27.873936364583333,70.0,87.0
92,27.443140945833335,27.950060856249998,58.0,86.0
93,27.858365445833336,28.372205764583335,53.0,72.0
94,27.443140945833335,28.462171072916668,46.0,85.0
95,28.273589945833333,28.546946075,62.0,87.0
96,28.273589945833333,28.5780879125,58.0,84.0
97,28.273589945833333,28.652482302083335,65.0,89.0
98,29.10403894583333,29.72514559375,62.0,81.0
99,29.10403894583333,30.124799175,43.0,84.0
100,29.934487945833332,30.152480808333333,50.0,78.0
101,29.10403894583333,30.159401216666666,67.0,78.0
102,30.142100195833333,30.493310918749998,58.0,91.0
103,30.349712445833333,30.590196635416667,62.0,88.0
104,30.557324695833334,30.73206500625,67.0,81.0
105,30.764936945833334,31.27185685625,60.0,82.0
106,30.764936945833334,31.2770471625,63.0,87.0
107,31.18016144583333,31.680160947916665,55.0,70.0
108,30.764936945833334,31.777046664583334,48.0,87.0
109,31.595385945833332,31.8064584,60.0,87.0
110,31.595385945833332,31.924105341666667,63.0,86.0
111,31.595385945833332,31.951786975,67.0,85.0
112,32.42583494583333,33.107495166666666,58.0,77.0
113,32.42583494583333,33.280505375000004,62.0,74.0
114,32.42583494583333,33.50022833958333,43.0,85.0
115,33.048671695833335,33.50887885,50.0,65.0
116,33.25628394583333,33.67669875208333,58.0,76.0
117,33.46389619583333,33.7476329375,62.0,84.0
118,33.67150844583333,33.94313447291667,67.0,86.0
119,34.08673294583333,34.63863551041666,63.0,82.0
120,34.08673294583333,34.664587041666664,60.0,78.0
121,34.501957445833334,34.941403375,55.0,74.0
122,34.08673294583333,35.02098807083333,48.0,84.0
123,34.917181945833335,35.11268348125,60.0,83.0
124,34.917181945833335,35.14728552291666,63.0,86.0
125,34.917181945833335,35.15593603333333,67.0,82.0
126,35.747630945833336,36.370467695833334,60.0,81.0
127,35.747630945833336,36.3739279,56.0,79.0
128,36.16285544583333,36.7580105625,51.0,79.0
129,36.57807994583333,36.90160903541667,63.0,87.0
130,35.747630945833336,37.098840672916666,44.0,80.0
131,37.40852894583333,37.8791167125,60.0,81.0
132,37.40852894583333,37.910258549999995,56.0,77.0
133,38.44659019583333,38.659392752083335,60.0,82.0
134,38.238977945833334,38.659392752083335,63.0,89.0
135,37.82375344583333,38.86181469583333,51.0,73.0
136,37.40852894583333,38.89814683958333,44.0,86.0
137,38.654202445833334,38.92582847291666,56.0,81.0
138,38.86181469583333,39.102298885416666,68.0,85.0
139,39.06942694583333,39.102298885416666,68.0,80.0
140,39.06942694583333,39.60921879583333,65.0,86.0
141,39.484651445833336,40.20264381041666,48.0,79.0
142,39.89987594583333,40.280498404166664,65.0,97.0
143,39.89987594583333,40.38949483541667,68.0,86.0
144,39.06942694583333,40.415446366666664,41.0,87.0
145,40.31510044583333,40.527903002083335,48.0,82.0
146,40.73032494583333,41.240705060416666,70.0,82.0
147,41.353161695833336,41.647279049999995,58.0,86.0
148,41.14554944583333,41.70091221458333,53.0,76.0
149,41.56077394583333,41.759735685416665,63.0,86.0
150,41.76838619583333,41.97426834375,58.0,82.0
151,40.73032494583333,42.18361069583333,46.0,87.0
152,41.975998445833326,42.23724386041667,65.0,88.0
153,42.18361069583333,42.415444375,58.0,82.0
154,42.80644744583333,43.39122195,58.0,74.0
155,43.221671945833336,43.6818791,63.0,84.0
156,43.63689644583333,43.92236328958333,65.0,83.0
157,42.391222945833334,43.92582349375,51.0,87.0
158,44.05212094583333,44.69571892083333,63.0,77.0
159,44.05212094583333,44.73897147291666,67.0,75.0
160,44.67495769583333,44.9379332125,58.0,72.0
161,44.88256994583333,45.34104699791666,63.0,84.0
162,44.05212094583333,45.54346894166666,51.0,87.0
163,45.29779444583333,45.614403127083335,58.0,73.0
164,45.50540669583333,45.7268597625,63.0,72.0
165,44.88256994583333,45.85661741875,70.0,87.0
166,46.33585569583333,46.732049072916666,58.0,74.0
167,46.54346794583333,47.32028378125,65.0,84.0
168,46.95869244583333,47.424089906249996,58.0,69.0
169,47.37391694583333,47.79433175208333,67.0,76.0
170,47.37391694583333,47.83758430416666,63.0,75.0
171,47.996753695833334,48.164573597916664,63.0,75.0
172,47.78914144583333,48.299521560416665,58.0,69.0
173,48.20436594583333,48.66976340625,70.0,86.0
174,45.713018945833326,48.80644147083333,51.0,89.0
175,48.61959044583333,48.91024759583333,63.0,77.0
176,48.41197819583333,48.95003994375,58.0,77.0
177,48.82720269583333,48.95696035208333,67.0,73.0
178,49.03481494583333,49.43619862916666,68.0,76.0
179,49.03481494583333,49.44657924166666,65.0,82.0
180,49.45003944583333,49.87391445625,60.0,74.0
181,49.03481494583333,49.89467568125,53.0,87.0
182,49.865263945833334,50.50713181875,65.0,87.0
183,50.28048844583333,50.557304779166664,68.0,73.0
184,50.69571294583333,51.19571244791666,65.0,83.0
185,50.69571294583333,51.33931092083333,72.0,86.0
186,51.11093744583333,51.61439715208333,48.0,68.0
187,50.69571294583333,51.64034868333333,41.0,81.0
188,51.52616194583333,51.68706143958333,65.0,89.0
189,51.52616194583333,51.944846649999995,68.0,86.0
190,51.94138644583333,52.036542060416664,65.0,86.0
191,52.35661094583333,53.16629872083333,58.0,77.0
192,52.35661094583333,53.33757882708333,65.0,77.0
193,53.39467219583333,53.671488529166666,58.0,85.0
194,53.18705994583333,53.86352986041666,53.0,83.0
195,52.35661094583333,53.88775128958333,46.0,85.0
196,53.602284445833334,53.905052310416664,65.0,83.0
197,53.80989669583333,53.95003496458333,58.0,81.0
198,54.01750894583333,54.43100334375,65.0,87.0
199,54.01750894583333,54.44830436458333,70.0,87.0
200,54.01750894583333,54.52442885625,58.0,86.0
201,54.43273344583333,54.94657376458333,53.0,72.0
202,54.01750894583333,55.03653907291666,46.0,85.0
203,54.84795794583333,55.121314074999994,62.0,87.0
204,54.84795794583333,55.152455912499995,58.0,84.0
205,54.84795794583333,55.22685030208333,65.0,89.0
206,55.67840694583333,56.29951359375,62.0,81.0
207,55.67840694583333,56.699167175,43.0,84.0
208,56.50885594583333,56.72684880833333,50.0,78.0
209,55.67840694583333,56.733769216666666,67.0,78.0
210,56.71646819583333,57.06767891875,58.0,91.0
211,56.92408044583333,57.16456463541666,62.0,88.0
212,57.13169269583333,57.306433006249996,67.0,81.0
213,57.33930494583333,57.84622485625,60.0,82.0
214,57.33930494583333,57.8514151625,63.0,87.0
215,57.75452944583333,58.25452894791666,55.0,70.0
216,57.33930494583333,58.35141466458333,48.0,87.0
217,58.16975394583333,58.3808264,60.0,87.0
218,58.16975394583333,58.49847334166666,63.0,86.0
219,58.16975394583333,58.526154975,67.0,85.0
220,59.00020294583333,59.681863166666666,58.0,77.0
221,59.00020294583333,59.854873375,62.0,74.0
222,59.00020294583333,60.07459633958333,43.0,85.0
223,59.62303969583333,60.083246849999995,50.0,65.0
224,59.83065194583333,60.25106675208333,58.0,76.0
225,60.03826419583333,60.32200093749999,62.0,84.0
226,60.24587644583333,60.51750247291666,67.0,86.0
227,60.66110094583333,61.21300351041666,63.0,82.0
228,60.66110094583333,61.238955041666664,60.0,78.0
229,61.07632544583333,61.51577137499999,55.0,74.0
230,60.66110094583333,61.59535607083333,48.0,84.0
231,61.49154994583333,61.687051481249995,60.0,83.0
232,61.49154994583333,61.72165352291666,63.0,86.0
233,61.49154994583333,61.73030403333333,67.0,82.0
234,62.32199894583333,62.944835695833326,60.0,81.0
235,62.32199894583333,62.9482959,56.0,79.0
236,62.73722344583333,63.3323785625,51.0,79.0
237,63.15244794583333,63.47597703541666,63.0,87.0
238,62.32199894583333,63.673208672916665,44.0,80.0
239,63.98289694583333,64.4534847125,60.0,81.0
240,63.98289694583333,64.48462655,56.0,77.0
241,65.02095819583333,65.23376075208333,60.0,82.0
242,64.81334594583333,65.23376075208333,63.0,89.0
243,64.39812144583334,65.43618269583334,51.0,73.0
244,63.98289694583333,65.47251483958333,44.0,86.0
245,65.22857044583333,65.50019647291666,56.0,81.0
246,65.43618269583334,65.67666688541667,68.0,85.0
247,65.64379494583332,65.67666688541667,68.0,80.0
248,65.64379494583332,66.18358679583332,65.0,86.0
249,66.05901944583333,66.77701181041667,48.0,79.0
250,66.47424394583334,66.85486640416667,65.0,97.0
251,66.47424394583334,66.96386283541666,68.0,86.0
252,65.64379494583332,66.98981436666666,41.0,87.0
253,66.88946844583333,67.10227100208333,48.0,82.0
254,67.30469294583332,67.81507306041667,70.0,82.0
255,67.92752969583333,68.22164705,58.0,86.0
256,67.71991744583333,68.27528021458332,53.0,76.0
257,68.13514194583333,68.33410368541666,63.0,86.0
258,68.34275419583332,68.54863634374999,58.0,82.0
259,67.30469294583332,68.75797869583333,46.0,87.0
260,68.55036644583333,68.81161186041666,65.0,88.0
261,68.75797869583333,68.98981237499999,58.0,82.0
262,68.96559094583333,69.24067717708333,63.0,85.0
263,68.96559094583333,69.62995014583333,70.0,87.0
264,69.38081544583332,69.68012310625,63.0,87.0
265,69.79573575208333,70.01470121458334,67.0,88.0
266,69.79573575208333,70.01642535208333,63.0,87.0
267,69.79573575208333,70.05263223958333,70.0,87.0
268,70.20952875208334,70.52849418958334,46.0,74.0
269,68.96559094583333,70.54918383958334,39.0,90.0
270,70.41642525208334,70.60608037708334,63.0,78.0
271,70.62332175208334,70.81642515208334,67.0,76.0
272,70.62332175208334,71.01125268958334,63.0,70.0
273,70.62332175208334,71.04401130208333,75.0,91.0
274,71.03711475208334,71.61987322708333,46.0,63.0
275,71.45090775208334,71.65780425208334,63.0,88.0
276,70.62332175208334,71.75952836458333,39.0,87.0
277,71.45090775208334,71.90780418958335,67.0,93.0
278,71.45090775208334,71.91642487708334,70.0,88.0
279,71.86470075208334,72.19745928958334,63.0,84.0
280,72.69228675208333,73.20263145208334,58.0,87.0
281,73.10607975208333,73.31125211458334,62.0,93.0
282,73.10607975208333,73.43883828958334,65.0,89.0
283,72.27849375208334,73.82849336458334,46.0,90.0
284,73.51987275208334,73.90090713958334,53.0,79.0
285,73.93366575208334,74.36987253958334,58.0,86.0
286,73.93366575208334,74.37849322708334,70.0,86.0
287,74.34745875208334,74.86814827708334,53.0,73.0
288,74.76125175208334,75.04228616458334,62.0,97.0
289,74.76125175208334,75.05435512708334,58.0,93.0
290,74.76125175208334,75.10607925208333,65.0,95.0
291,73.93366575208334,75.23021715208334,46.0,86.0
292,75.17504475208334,75.46125157708335,53.0,84.0
293,75.58883775208334,76.08711348958334,63.0,86.0
294,75.58883775208334,76.09918245208334,60.0,85.0
295,76.00263075208333,76.55263061458334,55.0,70.0
296,76.41642375208333,76.77676848958333,60.0,89.0
297,76.62332025208335,76.78538917708335,55.0,81.0
298,76.41642375208333,76.89228570208334,67.0,88.0
299,75.58883775208334,76.91297535208334,48.0,88.0
300,76.83021675208334,77.01814773958334,63.0,92.0
301,77.03711325208334,77.37676833958334,60.0,82.0
302,77.65780275208334,78.17676813958334,51.0,81.0
303,78.07159575208334,78.43194048958334,56.0,82.0
304,78.07159575208334,78.49400943958334,63.0,86.0
305,77.24400975208334,78.61297492708334,44.0,83.0
306,78.48538875208334,78.79918177708333,51.0,81.0
307,78.89918175208334,79.33883681458335,62.0,76.0
308,78.89918175208334,79.37331956458334,58.0,82.0
309,79.72676775208333,80.16125040208334,65.0,88.0
310,80.14056075208333,80.26642278958334,62.0,92.0
311,79.31297475208333,80.41642275208334,53.0,79.0
312,78.89918175208334,80.42331930208334,46.0,86.0
313,79.72676775208333,80.52159513958334,58.0,87.0
314,80.55435375208334,81.25262943958334,70.0,90.0
315,81.17504325208334,81.28883632708335,58.0,87.0
316,80.96814675208334,81.46297421458334,53.0,83.0
317,81.38193975208334,81.58538797708334,65.0,93.0
318,81.38193975208334,81.59573280208333,58.0,97.0
319,81.58883625208334,81.98711201458335,53.0,88.0
320,81.79573275208334,81.99228442708333,62.0,93.0
321,80.55435375208334,81.99573270208334,46.0,87.0
322,82.00262925208334,82.11297405208333,58.0,86.0
323,82.20952575208334,82.39573260208334,58.0,87.0
324,82.20952575208334,82.68366356458334,63.0,88.0
325,82.62331875208334,82.85435317708334,58.0,85.0
326,83.03711175208333,83.33021512708333,67.0,88.0
327,83.24400825208333,83.41814613958334,58.0,84.0
328,83.45090475208335,83.70435296458334,63.0,75.0
329,82.20952575208334,83.74918053958334,51.0,86.0
330,83.65780125208335,83.82159431458334,58.0,75.0
331,83.86469775208334,84.05780115208334,58.0,81.0
332,84.27849075208334,84.49918035208334,58.0,81.0
333,83.86469775208334,84.56297343958335,67.0,83.0
334,84.69228375208334,84.88711128958334,58.0,87.0
335,83.86469775208334,85.05435262708335,51.0,87.0
336,84.69228375208334,85.11297330208333,63.0,86.0
337,85.10607675208334,85.21124913958334,58.0,87.0
338,85.51986975208334,85.73883521458333,56.0,85.0
339,85.51986975208334,85.97849032708334,61.0,82.0
340,85.93366275208334,86.42676607708334,56.0,88.0
341,86.34745575208333,86.79745563958335,61.0,86.0
342,86.34745575208333,86.85435217708334,65.0,87.0
343,85.51986975208334,87.06469695208334,49.0,88.0
344,87.17504175208333,87.26814517708334,61.0,71.0
345,86.76124875208333,87.27159345208334,56.0,87.0
346,87.17504175208333,87.84228296458335,68.0,86.0
347,87.58883475208334,87.86814502708334,56.0,80.0
348,87.17504175208333,88.22676562708334,49.0,87.0
349,88.00262775208334,88.45607591458334,65.0,88.0
350,88.00262775208334,88.46469660208334,56.0,90.0
351,88.41642075208334,88.51469658958334,61.0,83.0
352,88.83021375208334,89.25607571458335,59.0,80.0
353,88.83021375208334,89.71986870208335,63.0,80.0
354,89.24400675208334,89.76814455208334,54.0,74.0
355,88.83021375208334,89.93366175208334,47.0,87.0
356,89.65779975208333,89.94055830208333,59.0,95.0
357,90.07159275208335,90.32504096458334,59.0,89.0
358,89.86469625208333,90.34917888958334,54.0,86.0
359,90.27848925208335,90.55607538958334,63.0,82.0
360,90.89917875208334,91.20262695208334,58.0,86.0
361,90.69228225208334,91.24573038958334,53.0,82.0
362,90.48538575208335,91.41986827708334,46.0,89.0
363,91.10607525208334,91.56986823958334,62.0,92.0
364,91.31297175208334,91.61297167708334,50.0,88.0
365,91.51986825208334,91.69055786458334,53.0,81.0
366,91.93366125208334,92.04573018958334,62.0,86.0
367,91.72676475208334,92.05090260208334,58.0,87.0
368,92.14055775208334,92.34055770208334,39.0,88.0
369,92.14055775208334,92.43883353958334,58.0,80.0
370,92.14055775208334,92.50952317708334,63.0,86.0
371,93.17613177083335,93.45467820625001,63.0,87.0
372,93.38374402083335,93.61730780208335,65.0,90.0
373,92.55435075208334,93.67786137500002,51.0,77.0
374,92.96851952083335,93.72111392708335,58.0,86.0
375,93.59135627083334,93.73149453958335,67.0,93.0
376,93.79896852083334,94.03426240416668,67.0,82.0
377,93.79896852083334,94.12941801875002,70.0,87.0
378,93.79896852083334,94.17440067291668,63.0,84.0
379,94.21419302083335,94.80934813750001,58.0,83.0
380,93.79896852083334,95.29377672083335,51.0,88.0
381,94.62941752083334,95.36817111041668,67.0,76.0
382,94.62941752083334,95.39412264166668,63.0,75.0
383,94.62941752083334,95.41834407083334,75.0,86.0
384,95.04464202083335,95.43218488750001,58.0,77.0
385,95.87509102083335,96.54291042500002,58.0,73.0
386,96.29031552083335,96.87335992291668,65.0,86.0
387,96.70554002083335,97.23841146250001,58.0,72.0
388,97.12076452083335,97.76263239375001,67.0,82.0
389,97.12076452083335,97.76782270000001,63.0,82.0
390,97.74360127083335,97.99619617500001,58.0,70.0
391,97.95121352083335,98.41142067500002,63.0,82.0
392,95.45986652083334,98.53944822916668,51.0,88.0
393,98.36643802083334,98.78858292916668,58.0,66.0
394,98.57405027083335,98.89584925833334,63.0,71.0
395,97.95121352083335,99.20207732708334,70.0,86.0
396,99.19688702083334,99.70553703333334,56.0,74.0
397,99.61211152083335,100.08615949166668,61.0,81.0
398,99.61211152083335,100.08615949166668,65.0,81.0
399,100.23494827083334,100.37508653958335,61.0,81.0
400,100.02733602083335,100.72629726250001,56.0,73.0
401,100.44256052083335,101.12249063958335,61.0,83.0
402,100.44256052083335,101.15709268125002,68.0,85.0
403,101.06539727083334,101.33529319583334,56.0,71.0
404,101.27300952083334,101.63979116250002,61.0,88.0
405,98.78166252083335,101.80069065625001,49.0,87.0
406,101.68823402083335,101.81280137083334,56.0,77.0
407,101.27300952083334,101.96159015,65.0,91.0
408,101.89584627083335,102.19515393125002,61.0,78.0
409,102.72629527083335,103.07231568750001,56.0,79.0
410,102.51868302083335,103.12767895416668,51.0,73.0
411,102.93390752083334,103.51522182083335,63.0,83.0
412,103.76435652083335,104.18996163333335,68.0,80.0
413,103.76435652083335,104.23148408333334,56.0,80.0
414,103.34913202083335,104.71591266666668,51.0,75.0
415,104.59480552083335,104.98926879583334,56.0,86.0
416,102.10345852083334,105.22975298541668,44.0,84.0
417,104.59480552083335,105.26262492500001,63.0,84.0
418,105.01003002083334,105.29549686458334,51.0,80.0
419,105.21764227083335,105.45293615416668,56.0,91.0
420,106.04809127083334,106.27819484791668,58.0,79.0
421,106.25570352083335,106.46850607708335,62.0,82.0
422,105.84047902083334,106.93044333333334,53.0,71.0
423,105.42525452083335,106.93217343541667,46.0,86.0
424,106.67092802083334,106.98926680416668,65.0,83.0
425,106.46331577083335,107.00829792708335,58.0,85.0
426,106.87854027083334,107.05155047916668,62.0,82.0
427,107.08615252083335,107.58788212500001,62.0,73.0
428,107.08615252083335,107.98753570625001,58.0,73.0
429,107.08615252083335,108.19860816041668,46.0,84.0
430,107.08615252083335,108.30760459166667,70.0,86.0
431,109.16227502083335,109.74704952500001,58.0,74.0
432,109.57749952083334,110.03770667500001,63.0,84.0
433,109.99272402083335,110.27819086458335,65.0,83.0
434,108.74705052083334,110.28165106875001,51.0,87.0
435,110.40794852083334,111.05154649583335,63.0,77.0
436,110.40794852083334,111.09479904791668,67.0,75.0
437,111.03078527083335,111.29376078750002,58.0,72.0
438,111.23839752083335,111.69687457291668,63.0,84.0
439,110.40794852083334,111.89929651666668,51.0,87.0
440,111.65362202083335,111.97023070208334,58.0,73.0
441,111.86123427083335,112.0826873375,63.0,72.0
442,111.23839752083335,112.21244499375001,70.0,87.0
443,112.69168327083335,113.08787664791669,58.0,74.0
444,112.89929552083335,113.67611135625,65.0,84.0
445,113.31452002083334,113.77991748125001,58.0,69.0
446,113.72974452083335,114.15015932708334,67.0,76.0
447,113.72974452083335,114.19341187916667,63.0,75.0
448,114.35258127083334,114.52040117291668,63.0,75.0
449,114.14496902083334,114.65534913541669,58.0,69.0
450,114.56019352083334,115.02559098125002,70.0,86.0
451,112.06884652083335,115.16226904583334,51.0,89.0
452,114.97541802083335,115.26607517083335,63.0,77.0
453,114.76780577083335,115.30586751875,58.0,77.0
454,115.18303027083334,115.31278792708335,67.0,73.0
455,115.39064252083335,115.79202620416667,68.0,76.0
456,115.39064252083335,115.80240681666668,65.0,82.0
457,115.80586702083335,116.22974203125001,60.0,74.0
458,115.39064252083335,116.25050325625001,53.0,87.0
459,116.22109152083334,116.86295939375,65.0,87.0
460,116.63631602083335,116.91313235416668,68.0,73.0
461,117.05154052083334,117.55154002291668,65.0,83.0
462,117.05154052083334,117.69513849583335,72.0,86.0
463,117.46676502083335,117.97022472708335,48.0,68.0
464,117.05154052083334,117.99617625833335,41.0,81.0
465,117.88198952083334,118.04288901458335,65.0,89.0
466,117.88198952083334,118.30067422500001,68.0,86.0
467,118.29721402083334,118.39236963541669,65.0,86.0
468,118.71243852083335,119.52212629583335,58.0,77.0
469,118.71243852083335,119.69340640208334,65.0,77.0
470,119.75049977083334,120.02731610416669,58.0,85.0
471,119.54288752083335,120.21935743541668,53.0,83.0
472,118.71243852083335,120.24357886458334,46.0,85.0
473,119.95811202083334,120.26087988541667,65.0,83.0
474,120.16572427083335,120.30586253958334,58.0,81.0
475,120.37333652083335,120.78683091875001,65.0,87.0
476,120.37333652083335,120.80413193958334,70.0,87.0
477,120.37333652083335,120.88025643125002,58.0,86.0
478,120.78856102083334,121.30240133958334,53.0,72.0
479,120.37333652083335,121.39236664791667,46.0,85.0
480,121.20378552083335,121.47714165000001,62.0,87.0
481,121.20378552083335,121.50828348750001,58.0,84.0
482,121.20378552083335,121.58267787708334,65.0,89.0
483,122.03423452083334,122.65534116875001,62.0,81.0
484,122.03423452083334,123.05499475000002,43.0,84.0
485,122.86468352083335,123.08267638333334,50.0,78.0
486,122.03423452083334,123.08959679166668,67.0,78.0
487,123.07229577083335,123.42350649375001,58.0,91.0
488,123.27990802083335,123.52039221041667,62.0,88.0
489,123.48752027083334,123.66226058125001,67.0,81.0
490,123.69513252083334,124.20205243125001,60.0,82.0
491,123.69513252083334,124.20724273750001,63.0,87.0
492,124.11035702083335,124.61035652291667,55.0,70.0
493,123.69513252083334,124.70724223958334,48.0,87.0
494,124.52558152083334,124.73665397500001,60.0,87.0
495,124.52558152083334,124.85430091666667,63.0,86.0
496,124.52558152083334,124.88198255,67.0,85.0
497,125.35603052083334,126.03769074166668,58.0,77.0
498,125.35603052083334,126.21070095000002,62.0,74.0
499,125.35603052083334,126.43042391458334,43.0,85.0
500,125.97886727083335,126.439074425,50.0,65.0
501,126.18647952083334,126.60689432708335,58.0,76.0
502,126.39409177083334,126.67782851250001,62.0,84.0
503,126.60170402083335,126.87333004791668,67.0,86.0
504,127.01692852083335,127.56883108541668,63.0,82.0
505,127.01692852083335,127.59478261666668,60.0,78.0
506,127.43215302083334,127.87159895000002,55.0,74.0
507,127.01692852083335,127.95118364583334,48.0,84.0
508,127.84737752083335,128.04287905625,60.0,83.0
509,127.84737752083335,128.0774810979167,63.0,86.0
510,127.84737752083335,128.08613160833335,67.0,82.0
511,128.67782652083335,129.30066327083335,60.0,81.0
512,128.67782652083335,129.304123475,56.0,79.0
513,129.09305102083334,129.6882061375,51.0,79.0
514,129.50827552083334,129.83180461041667,63.0,87.0
515,128.67782652083335,130.02903624791668,44.0,80.0
516,130.33872452083335,130.8093122875,60.0,81.0
517,130.33872452083335,130.840454125,56.0,77.0
518,131.37678577083335,131.58958832708333,60.0,82.0
519,131.16917352083334,131.58958832708333,63.0,89.0
520,130.75394902083335,131.79201027083334,51.0,73.0
521,130.33872452083335,131.82834241458335,44.0,86.0
522,131.58439802083333,131.85602404791666,56.0,81.0
523,131.79201027083334,132.03249446041667,68.0,85.0
524,131.99962252083333,132.03249446041667,68.0,80.0
525,131.99962252083333,132.53941437083336,65.0,86.0
526,132.41484702083335,133.13283938541667,48.0,79.0
527,132.83007152083334,133.21069397916668,65.0,97.0
528,132.83007152083334,133.31969041041668,68.0,86.0
529,131.99962252083333,133.34564194166668,41.0,87.0
530,133.24529602083334,133.45809857708335,48.0,82.0
531,133.66052052083336,134.17090063541667,70.0,82.0
532,134.28335727083333,134.577474625,58.0,86.0
533,134.07574502083335,134.63110778958335,53.0,76.0
534,134.49096952083335,134.68993126041667,63.0,86.0
535,134.69858177083336,134.90446391875003,58.0,82.0
536,133.66052052083336,135.11380627083335,46.0,87.0
537,134.90619402083334,135.16743943541667,65.0,88.0
538,135.11380627083335,135.34563995000002,58.0,82.0
539,135.32141852083333,135.59650475208335,63.0,85.0
540,135.32141852083333,135.98577772083334,70.0,87.0
541,135.73664302083336,136.03595068125,63.0,87.0
542,136.15186752083335,136.37159048541668,67.0,88.0
543,136.15186752083335,136.37332058750002,63.0,87.0
544,136.15186752083335,136.40965273125002,70.0,87.0
545,136.56709202083334,136.88716090625002,46.0,74.0
546,135.32141852083333,136.90792213125002,39.0,90.0
547,136.77470427083335,136.9650155,63.0,78.0
548,136.98231652083334,137.1760879541667,67.0,76.0
549,136.98231652083334,137.37158948958336,63.0,70.0
550,136.98231652083334,137.40446142916667,75.0,91.0
551,137.39754102083333,137.98231552500002,46.0,63.0
552,137.81276552083335,138.02037777083333,63.0,88.0
553,136.98231652083334,138.12245379375003,39.0,87.0
554,137.81276552083335,138.27124257291666,67.0,93.0
555,137.81276552083335,138.27989308333335,70.0,88.0
556,138.22799002083335,138.56189972291668,63.0,84.0
557,139.05843902083333,139.57054923750002,58.0,87.0
558,139.47366352083333,139.67954566875,62.0,93.0
559,139.47366352083333,139.8075732229167,65.0,89.0
560,138.64321452083334,140.19857629375002,46.0,90.0
561,139.88888802083335,140.27124058125003,53.0,79.0
562,140.30411252083334,140.74182834791668,58.0,86.0
563,140.30411252083334,140.75047885833334,70.0,86.0
564,140.71933702083334,141.24182785,53.0,73.0
565,141.13456152083336,141.41656816041666,62.0,97.0
566,141.13456152083336,141.428678875,58.0,93.0
567,141.13456152083336,141.4805819375,65.0,95.0
568,140.30411252083334,141.6051492875,46.0,86.0
569,141.54978602083335,141.83698296666668,53.0,84.0
570,141.96501052083335,142.46501002291666,63.0,86.0
571,141.96501052083335,142.4771207375,60.0,85.0
572,142.38023502083334,142.93213758541668,55.0,70.0
573,142.79545952083333,143.15705085625,60.0,89.0
574,143.00307177083334,143.16570136666667,55.0,81.0
575,142.79545952083333,143.27296769583336,67.0,88.0
576,141.96501052083335,143.29372892083336,48.0,88.0
577,143.21068402083336,143.39926514791668,63.0,92.0
578,143.41829627083334,143.75912638125,60.0,82.0
579,144.04113302083334,144.56189374791668,51.0,81.0
580,144.45635752083334,144.81794885625,56.0,82.0
581,144.45635752083334,144.88023253125002,63.0,86.0
582,143.62590852083335,144.99960957500002,44.0,83.0
583,144.87158202083333,145.1864606,51.0,81.0
584,145.28680652083335,145.72798255208335,62.0,76.0
585,145.28680652083335,145.76258459375,58.0,82.0
586,146.11725552083334,146.55324124583333,65.0,88.0
587,146.53248002083333,146.65877747291668,62.0,92.0
588,145.70203102083335,146.8092963541667,53.0,79.0
589,145.28680652083335,146.8162167625,46.0,86.0
590,146.11725552083334,146.91483258125,58.0,87.0
591,146.94770452083333,147.64839586458334,70.0,90.0
592,147.57054127083336,147.68472800833334,58.0,87.0
593,147.36292902083335,147.85946831875,53.0,83.0
594,147.77815352083334,147.98230556666667,65.0,93.0
595,147.77815352083334,147.99268617916667,58.0,97.0
596,147.98576577083332,148.38541935208335,53.0,88.0
597,148.19337802083334,148.39060965833335,62.0,93.0
598,146.94770452083333,148.3940698625,46.0,87.0
599,148.40099027083335,148.51171680416667,58.0,86.0
600,148.60860252083336,148.79545354583334,58.0,87.0
601,148.60860252083336,149.08438059375,63.0,88.0
602,149.02382702083335,149.25566070000002,58.0,85.0
603,149.43905152083335,149.73316887500002,67.0,88.0
604,149.64666377083336,149.82140408125002,58.0,84.0
605,149.85427602083334,150.10860102708335,63.0,75.0
606,148.60860252083336,150.15358368125,51.0,86.0
607,150.06188827083335,150.22624796875002,58.0,75.0
608,150.26950052083333,150.46327195416666,58.0,81.0
609,150.68472502083335,150.9061780875,58.0,81.0
610,150.26950052083333,150.97019186458334,67.0,83.0
611,151.09994952083335,151.29545105625002,58.0,87.0
612,150.26950052083333,151.46327095833334,51.0,87.0
613,151.09994952083335,151.52209442916669,63.0,86.0
614,151.51517402083334,151.6207102479167,58.0,87.0
615,151.92996907083335,152.14893453333335,56.0,85.0
616,151.92996907083335,152.38858964583335,61.0,82.0
617,152.34376207083335,152.83686539583337,56.0,88.0
618,152.75755507083335,153.20755495833336,61.0,86.0
619,152.75755507083335,153.26445149583336,65.0,87.0
620,151.92996907083335,153.47479627083337,49.0,88.0
621,153.58514107083334,153.67824449583335,61.0,71.0
622,153.17134807083335,153.68169277083337,56.0,87.0
623,153.58514107083334,154.25238228333336,68.0,86.0
624,153.99893407083337,154.27824434583337,56.0,80.0
625,153.58514107083334,154.63686494583337,49.0,87.0
626,154.41272707083337,154.86617523333337,65.0,88.0
627,154.41272707083337,154.87479592083335,56.0,90.0
628,154.82652007083337,154.92479590833335,61.0,83.0
629,155.24031307083337,155.66617503333336,59.0,80.0
630,155.24031307083337,156.12996802083336,63.0,80.0
631,155.65410607083336,156.17824387083337,54.0,74.0
632,155.24031307083337,156.34376107083335,47.0,87.0
633,156.06789907083336,156.35065762083335,59.0,95.0
634,156.48169207083336,156.73514028333335,59.0,89.0
635,156.27479557083336,156.75927820833337,54.0,86.0
636,156.68858857083336,156.96617470833337,63.0,82.0
637,157.30927807083336,157.61272627083335,58.0,86.0
638,157.10238157083336,157.65582970833336,53.0,82.0
639,156.89548507083336,157.82996759583335,46.0,89.0
640,157.51617457083336,157.97996755833336,62.0,92.0
641,157.72307107083336,158.02307099583336,50.0,88.0
642,157.92996757083336,158.10065718333337,53.0,81.0
643,158.34376057083335,158.45582950833335,62.0,86.0
644,158.13686407083335,158.46100192083335,58.0,87.0
645,158.55065707083335,158.75065702083336,39.0,88.0
646,158.55065707083335,158.84893285833337,58.0,80.0
647,158.55065707083335,158.91962249583335,63.0,86.0
648,159.58513957083335,159.86272570833336,63.0,87.0
649,159.79203607083335,160.02479463333336,65.0,90.0
650,158.96445007083335,160.08513944583336,51.0,77.0
651,159.37824307083335,160.12824288333337,58.0,86.0
652,159.99893257083335,160.13858770833335,67.0,93.0
653,160.20582907083335,160.44031177083335,67.0,82.0
654,160.20582907083335,160.53513933333335,70.0,87.0
655,160.20582907083335,160.57996690833335,63.0,84.0
656,160.61962207083337,161.21272537083337,58.0,83.0
657,160.20582907083335,161.69548387083336,51.0,88.0
658,161.03341507083337,161.76962178333335,67.0,76.0
659,161.03341507083337,161.79548384583336,63.0,75.0
660,161.03341507083337,161.81962177083335,75.0,86.0
661,161.44720807083337,161.83341487083337,58.0,77.0
662,161.86100107083337,162.51789745833335,59.0,87.0
663,161.86100107083337,162.53513883333335,63.0,87.0
664,162.68858707083336,162.78169049583335,59.0,86.0
665,162.68858707083336,162.79375945833337,63.0,87.0
666,162.68858707083336,162.80582842083336,66.0,81.0
667,162.27479407083337,162.87134564583334,54.0,71.0
668,161.86100107083337,162.91272494583336,47.0,90.0
669,163.10238007083336,163.18513867083337,63.0,75.0
670,163.10238007083336,163.18513867083337,66.0,73.0
671,163.10238007083336,163.18686280833336,59.0,73.0
672,163.30927657083336,163.58858684583336,59.0,87.0
673,163.30927657083336,163.59720753333335,63.0,88.0
674,163.30927657083336,163.60755235833335,66.0,87.0
675,164.13686257083336,164.41272457083335,59.0,80.0
676,164.34375907083336,164.44893145833336,63.0,88.0
677,164.55065557083336,164.67651760833337,59.0,90.0
678,164.55065557083336,164.70065553333336,63.0,93.0
679,163.92996607083336,164.72134518333337,47.0,72.0
680,164.55065557083336,164.80237964583335,66.0,89.0
681,164.96444857083335,165.08513819583337,59.0,76.0
682,165.17134507083335,165.26272435833334,39.0,88.0
683,165.17134507083335,165.99375865833335,63.0,83.0
684,165.17134507083335,166.00582762083337,67.0,83.0
685,165.17134507083335,166.02651727083335,70.0,84.0
686,165.58513807083335,166.08168967083336,51.0,73.0
687,165.99893107083335,166.12479310833336,58.0,75.0
688,166.20582757083335,166.33686202083337,58.0,87.0
689,166.20582757083335,166.33858615833336,51.0,87.0
690,166.20582757083335,166.34893098333336,67.0,86.0
691,166.20582757083335,166.36099994583336,63.0,82.0
692,166.20582757083335,166.36099994583336,70.0,86.0
693,166.61962057083335,167.25410317083336,58.0,86.0
694,166.61962057083335,167.54548240833336,63.0,86.0
695,166.61962057083335,167.61789618333336,67.0,82.0
696,166.61962057083335,167.74203408333335,70.0,82.0
697,167.65410307083334,167.76962028333335,63.0,88.0
698,167.44720657083337,167.94030989583337,58.0,81.0
699,167.86099957083337,168.12824088333335,63.0,95.0
700,167.86099957083337,168.15582708333335,67.0,92.0
701,167.86099957083337,168.36444772083337,70.0,88.0
702,168.06789607083337,168.40582702083336,58.0,84.0
703,166.61962057083335,168.42306839583335,51.0,88.0
704,168.27479257083337,168.43686149583337,63.0,90.0
705,168.48168907083337,168.60927524583337,68.0,82.0
706,168.48168907083337,168.64893040833337,63.0,85.0
707,169.30927507083337,169.40927504583337,63.0,87.0
708,169.30927507083337,169.41789573333335,56.0,87.0
709,168.48168907083337,169.63168878333335,44.0,86.0
710,169.72306807083336,169.83341287083337,63.0,86.0
711,169.72306807083336,169.83686114583335,56.0,83.0
712,169.72306807083336,169.85582665833337,44.0,86.0
713,169.92996457083336,170.07306798333337,44.0,86.0
714,169.92996457083336,170.07306798333337,56.0,88.0
715,169.92996457083336,170.07651625833336,63.0,88.0
716,170.96444707083336,171.26789527083335,56.0,89.0
717,171.17134357083336,171.30237802083337,63.0,87.0
718,170.75755057083336,171.43341247083336,51.0,79.0
719,170.55065407083336,171.51444693333337,44.0,85.0
720,171.37824007083336,171.75065377083337,56.0,82.0
721,171.37824007083336,171.78168824583335,63.0,84.0
722,171.37824007083336,171.79030893333336,68.0,87.0
723,171.79203307083336,171.85410202083335,61.0,77.0
724,171.79203307083336,172.07134334583336,54.0,80.0
725,171.79203307083336,172.09548127083337,58.0,80.0
726,171.79203307083336,172.33168810833337,42.0,87.0
727,172.20582607083335,172.36099844583336,49.0,79.0
728,172.41272257083335,172.49720530833335,42.0,87.0
729,172.41272257083335,172.50237772083335,61.0,95.0
730,172.41272257083335,172.51099840833336,58.0,90.0
731,172.41272257083335,172.54899504375,66.0,87.0
732,172.82754147916668,172.95383893125003,58.0,86.0
733,172.82754147916668,172.9624894416667,42.0,86.0
734,172.82754147916668,172.96594964583335,66.0,86.0
735,172.82754147916668,172.9676797479167,61.0,88.0
736,173.4503782291667,173.87944354583334,58.0,80.0
737,173.4503782291667,173.93480681250003,61.0,80.0
738,173.4503782291667,173.9694088541667,66.0,82.0
739,174.0732149791667,174.1735609,58.0,83.0
740,173.86560272916668,174.33273029166668,49.0,79.0
741,174.28082722916668,174.49189968333334,58.0,90.0
742,174.28082722916668,174.5143910104167,61.0,97.0
743,174.4884394791667,174.80677826250002,49.0,89.0
744,173.4503782291667,174.87079203958336,42.0,86.0
745,174.6960517291667,175.1631792916667,58.0,86.0
746,174.6960517291667,175.17529000625,61.0,88.0
747,174.6960517291667,175.18740072083335,66.0,89.0
748,175.1112762291667,175.7704451229167,59.0,87.0
749,175.1112762291667,175.78774614375,63.0,87.0
750,175.94172522916668,176.03515074166668,59.0,86.0
751,175.94172522916668,176.04726145625003,63.0,87.0
752,175.94172522916668,176.05937217083334,66.0,81.0
753,175.52650072916668,176.12511605000003,54.0,71.0
754,175.1112762291667,176.16663850000003,47.0,90.0
755,176.35694972916667,176.43999462916668,63.0,75.0
756,176.35694972916667,176.43999462916668,66.0,73.0
757,176.35694972916667,176.44172473125002,59.0,73.0
758,176.56456197916668,176.8448385166667,59.0,87.0
759,176.56456197916668,176.85348902708336,63.0,88.0
760,176.56456197916668,176.86386963958336,66.0,87.0
761,177.3950109791667,177.67182731250003,59.0,80.0
762,177.60262322916668,177.70815945625003,63.0,88.0
763,177.8102354791667,177.93653293125,59.0,90.0
764,177.8102354791667,177.96075436041667,63.0,93.0
765,177.1873987291667,177.98151558541667,47.0,72.0
766,177.8102354791667,178.06283038333336,66.0,89.0
767,178.2254599791667,178.346567125,59.0,76.0
768,178.4330722291667,178.52476763958336,39.0,88.0
769,178.4330722291667,179.25833092291668,63.0,83.0
770,178.4330722291667,179.27044163750003,67.0,83.0
771,178.4330722291667,179.29120286250003,70.0,84.0
772,178.8482967291667,179.3465661291667,51.0,73.0
773,179.26352122916668,179.38981868125,58.0,75.0
774,179.4711334791667,179.60262123750002,58.0,87.0
775,179.4711334791667,179.60435133958336,51.0,87.0
776,179.4711334791667,179.61473195208336,67.0,86.0
777,179.4711334791667,179.62684266666668,63.0,82.0
778,179.4711334791667,179.62684266666668,70.0,86.0
779,179.8863579791667,180.52303554583335,58.0,86.0
780,179.8863579791667,180.81542279791668,63.0,86.0
781,179.8863579791667,180.8880870854167,67.0,82.0
782,179.8863579791667,181.0126544354167,70.0,82.0
783,180.9244192291667,181.04033606875,63.0,88.0
784,180.71680697916668,181.21161617500002,58.0,81.0
785,181.1320314791667,181.40019730208334,63.0,95.0
786,181.1320314791667,181.4278789354167,67.0,92.0
787,181.1320314791667,181.6372212875,70.0,88.0
788,181.33964372916668,181.6787437375,58.0,84.0
789,179.8863579791667,181.69604475833336,51.0,88.0
790,181.5472559791667,181.70988557500002,63.0,90.0
791,181.75486822916668,181.99016211250003,63.0,85.0
792,181.75486822916668,181.9988126229167,60.0,86.0
793,181.75486822916668,182.00227282708335,56.0,86.0
794,182.1700927291667,182.27043865000002,60.0,72.0
795,182.1700927291667,182.28600956875002,63.0,76.0
796,182.1700927291667,182.29292997708336,56.0,76.0
797,181.75486822916668,182.40019630625002,44.0,88.0
798,182.5853172291667,182.85867335833336,62.0,88.0
799,182.5853172291667,183.12683918125,46.0,89.0
800,182.5853172291667,183.19604326458335,58.0,72.0
801,183.41576622916668,183.61472796875003,63.0,88.0
802,183.41576622916668,183.6233784791667,59.0,88.0
803,183.41576622916668,184.07839532708334,47.0,100.0
804,183.83099072916667,184.08185553125003,54.0,75.0
805,184.2462152291667,184.43998666250002,47.0,86.0
806,184.2462152291667,184.46766829583336,59.0,91.0
807,184.2462152291667,184.52130146041668,63.0,89.0
808,184.2462152291667,184.54552288958334,54.0,87.0
809,184.6614397291667,184.7444846291667,47.0,92.0
810,185.07666422916668,185.49188872916667,58.0,87.0
811,185.07666422916668,185.50572954583336,63.0,86.0
812,185.6995009791667,185.81541781875,58.0,102.0
813,186.11472547916668,186.21853160416669,63.0,89.0
814,186.11472547916668,186.23237242083334,58.0,91.0
815,185.07666422916668,186.66662804375002,46.0,91.0
816,185.49188872916667,186.68046886041668,53.0,81.0
817,186.52994997916667,187.23410152708334,58.0,95.0
818,186.52994997916667,187.23929183333334,63.0,91.0
819,187.3603989791667,187.4901566354167,58.0,95.0
820,187.56801122916667,187.69603878333336,63.0,103.0
821,187.56801122916667,187.70641939583336,58.0,100.0
822,187.56801122916667,187.9520938916667,53.0,88.0
823,187.77562347916668,188.09050205833336,58.0,89.0
824,187.77562347916668,188.14240512083336,63.0,95.0
825,187.9832357291667,188.29811430833334,53.0,86.0
826,188.19084797916668,188.31714543125003,58.0,88.0
827,187.15278672916668,188.32752604375003,46.0,89.0
828,188.3984602291667,188.87942860833334,58.0,91.0
829,188.3984602291667,188.88288881250003,62.0,93.0
830,189.0212969791667,189.16662555416667,62.0,82.0
831,189.0212969791667,189.18046637083336,58.0,82.0
832,189.0212969791667,189.19949749375002,65.0,88.0
833,189.4365214791667,189.55243831875,58.0,86.0
834,189.4365214791667,189.5680092375,70.0,86.0
835,188.81368472916668,189.57492964583335,53.0,86.0
836,188.3984602291667,189.94517149166668,46.0,90.0
837,190.0593582291667,190.35174548125002,82.0,89.0
838,190.0593582291667,190.35347558333336,74.0,86.0
839,190.0593582291667,190.35693578750002,70.0,81.0
840,190.0593582291667,190.5212954854167,53.0,93.0
841,190.47458272916668,190.5316760979167,70.0,82.0
842,190.0593582291667,190.60261028333335,46.0,92.0
843,190.6821949791667,190.7652398791667,70.0,87.0
844,190.88980722916668,191.12510111250003,70.0,103.0
845,191.0974194791667,191.19257509375,72.0,88.0
846,191.30503172916667,191.40537765000002,74.0,102.0
847,190.88980722916668,191.80503123125,53.0,90.0
848,190.88980722916668,191.8240623541667,46.0,88.0
849,191.7202562291667,191.99534246041668,63.0,85.0
850,191.7202562291667,192.38461542916667,70.0,87.0
851,192.1354807291667,192.43478838958336,63.0,87.0
852,192.55070522916668,192.77042819375,67.0,88.0
853,192.55070522916668,192.77215829583335,63.0,87.0
854,192.55070522916668,192.80849043958335,70.0,87.0
855,192.96592972916667,193.28599861458335,46.0,74.0
856,191.7202562291667,193.30675983958335,39.0,90.0
857,193.17354197916669,193.36385320833335,63.0,78.0
858,193.38115422916667,193.57492566250002,67.0,76.0
859,193.38115422916667,193.7704271979167,63.0,70.0
860,193.38115422916667,193.8032991375,75.0,91.0
861,193.7963787291667,194.38115323333335,46.0,63.0
862,194.21160322916668,194.4192154791667,63.0,88.0
863,193.38115422916667,194.52129150208336,39.0,87.0
864,194.21160322916668,194.67008028125002,67.0,93.0
865,194.21160322916668,194.67873079166668,70.0,88.0
866,194.62682772916668,194.96073743125,63.0,84.0
867,195.4572767291667,195.96938694583335,58.0,87.0
868,195.8725012291667,196.07838337708336,62.0,93.0
869,195.8725012291667,196.20641093125002,65.0,89.0
870,195.0420522291667,196.59741400208335,46.0,90.0
871,196.28772572916668,196.67007828958336,53.0,79.0
872,196.70295022916667,197.14066605625,58.0,86.0
873,196.70295022916667,197.1493165666667,70.0,86.0
874,197.1181747291667,197.64066555833335,53.0,73.0
875,197.5333992291667,197.81540586875002,62.0,97.0
876,197.5333992291667,197.82751658333336,58.0,93.0
877,197.5333992291667,197.87941964583337,65.0,95.0
878,196.70295022916667,198.00398699583334,46.0,86.0
879,197.94862372916668,198.235820675,53.0,84.0
880,198.36384822916668,198.86384773125002,63.0,86.0
881,198.36384822916668,198.87595844583336,60.0,85.0
882,198.77907272916667,199.33097529375001,55.0,70.0
883,199.1942972291667,199.55588856458334,60.0,89.0
884,199.40190947916668,199.56453907500003,55.0,81.0
885,199.1942972291667,199.6718054041667,67.0,88.0
886,198.36384822916668,199.6925666291667,48.0,88.0
887,199.6095217291667,199.79810285625,63.0,92.0
888,199.81713397916667,200.15796408958334,60.0,82.0
889,200.43997072916667,200.96073145625002,51.0,81.0
890,200.85519522916667,201.21678656458334,56.0,82.0
891,200.85519522916667,201.27907023958335,63.0,86.0
892,200.02474622916668,201.39844728333335,44.0,83.0
893,201.2704197291667,201.58529830833334,51.0,81.0
894,201.68564422916668,202.12682026041668,62.0,76.0
895,201.68564422916668,202.16142230208334,58.0,82.0
896,202.51609322916667,202.9520789541667,65.0,88.0
897,202.9313177291667,203.05761518125001,62.0,92.0
898,202.10086872916668,203.20813406250002,53.0,79.0
899,201.68564422916668,203.21505447083337,46.0,86.0
900,202.51609322916667,203.31367028958334,58.0,87.0
901,203.3465422291667,204.0472335729167,70.0,90.0
902,203.9693789791667,204.08356571666667,58.0,87.0
903,203.76176672916668,204.25830602708334,53.0,83.0
904,204.17699122916667,204.38114327500003,65.0,93.0
905,204.17699122916667,204.39152388750003,58.0,97.0
906,204.38460347916669,204.78425706041668,53.0,88.0
907,204.5922157291667,204.78944736666668,62.0,93.0
908,203.3465422291667,204.79290757083334,46.0,87.0
909,204.79982797916668,204.91055451250003,58.0,86.0
910,205.0074402291667,205.19429125416667,58.0,87.0
911,205.0074402291667,205.48321830208334,63.0,88.0
912,205.42266472916668,205.65449840833335,58.0,85.0
913,205.83788922916668,206.13200658333335,67.0,88.0
914,206.0455014791667,206.22024178958335,58.0,84.0
915,206.25311372916667,206.50743873541668,63.0,75.0
916,205.0074402291667,206.55242138958334,51.0,86.0
917,206.46072597916668,206.62508567708335,58.0,75.0
918,206.6683382291667,206.86210966250002,58.0,81.0
919,207.0835627291667,207.30501579583336,58.0,81.0
920,206.6683382291667,207.36902957291667,67.0,83.0
921,207.49878722916668,207.69428876458335,58.0,87.0
922,206.6683382291667,207.8621086666667,51.0,87.0
923,207.49878722916668,207.92093213750002,63.0,86.0
924,207.91401172916667,208.01954795625002,58.0,87.0
925,208.32923622916667,208.54895919375002,56.0,85.0
926,208.32923622916667,208.78944338333335,61.0,82.0
927,208.7444607291667,209.23926992500003,56.0,88.0
928,209.15968522916668,209.61124187291668,61.0,86.0
929,209.15968522916668,209.66833524166668,65.0,87.0
930,208.32923622916667,209.87940769583335,49.0,88.0
931,209.9901342291667,210.08355974166668,61.0,71.0
932,209.57490972916668,210.08701994583333,56.0,87.0
933,209.9901342291667,210.65968373541668,68.0,86.0
934,210.4053587291667,210.68563526666668,56.0,80.0
935,209.9901342291667,211.0454965,49.0,87.0
936,210.8205832291667,211.27560007708334,65.0,88.0
937,210.8205832291667,211.28425058750003,56.0,90.0
938,211.23580772916668,211.33442354791669,61.0,83.0
939,211.65103222916667,212.07836744375,59.0,80.0
940,211.65103222916667,212.54376490416666,63.0,80.0
941,212.0662567291667,212.5922077625,54.0,74.0
942,211.65103222916667,212.75829756250002,47.0,87.0
943,212.4814812291667,212.76521797083336,59.0,95.0
944,212.89670572916668,213.15103073541667,59.0,89.0
945,212.68909347916667,213.17525216458336,54.0,86.0
946,213.1043179791667,213.38286441458334,63.0,82.0
947,213.72715472916667,214.03165269583334,58.0,86.0
948,213.5195424791667,214.0749052479167,53.0,82.0
949,213.31193022916668,214.24964555833336,46.0,89.0
950,213.93476697916668,214.40016443958336,62.0,92.0
951,214.1423792291667,214.44341699166668,50.0,88.0
952,214.34999147916668,214.52127158541668,53.0,81.0
953,214.76521597916667,214.87767261458333,62.0,86.0
954,214.5576037291667,214.88286292083336,58.0,87.0
955,214.97282822916668,215.10085578333334,70.0,93.0
956,214.97282822916668,215.1285374166667,65.0,93.0
957,215.38805272916667,215.7150420229167,53.0,79.0
958,215.59566497916668,215.77559559583335,65.0,90.0
959,215.59566497916668,215.80327722916667,58.0,88.0
960,216.01088947916668,216.09566448125003,62.0,90.0
961,215.80327722916667,216.1008547875,53.0,79.0
962,216.01088947916668,216.23061244375,58.0,95.0
963,216.01088947916668,216.26175428125,65.0,92.0
964,216.2185017291667,216.31711754791667,53.0,63.0
965,214.97282822916668,216.52645990000002,46.0,90.0
966,216.42611397916667,216.52645990000002,58.0,91.0
967,216.63372622916668,216.8067364375,65.0,91.0
968,216.63372622916668,216.81884715208335,58.0,83.0
969,216.63372622916668,216.920923175,70.0,88.0
970,217.2565629791667,217.3257670625,82.0,86.0
971,217.2565629791667,217.34825838958335,70.0,86.0
972,217.04895072916668,217.48839665833336,53.0,88.0
973,217.4641752291667,217.62161451875002,82.0,92.0
974,217.4641752291667,217.63718543750002,70.0,93.0
975,216.63372622916668,218.15102575625002,46.0,90.0
976,217.67178747916668,218.17005687916668,53.0,93.0
977,217.87939972916666,218.27213290208334,74.0,87.0
978,217.87939972916666,218.28251351458334,70.0,88.0
979,218.2946242291667,218.56971046041667,63.0,85.0
980,218.2946242291667,218.95898342916666,70.0,87.0
981,218.70984872916668,219.00915638958335,63.0,87.0
982,219.12507322916667,219.34479619375003,67.0,88.0
983,219.12507322916667,219.34652629583334,63.0,87.0
984,219.12507322916667,219.38285843958334,70.0,87.0
985,219.5402977291667,219.86036661458334,46.0,74.0
986,218.2946242291667,219.88112783958334,39.0,90.0
987,219.74790997916668,219.93822120833335,63.0,78.0
988,219.9555222291667,220.1492936625,67.0,76.0
989,219.9555222291667,220.34479519791668,63.0,70.0
990,219.9555222291667,220.3776671375,75.0,91.0
991,220.37074672916668,220.95552123333334,46.0,63.0
992,220.78597122916668,220.9935834791667,63.0,88.0
993,219.9555222291667,221.09565950208335,39.0,87.0
994,220.78597122916668,221.24444828125002,67.0,93.0
995,220.78597122916668,221.25309879166667,70.0,88.0
996,221.20119572916667,221.53510543125003,63.0,84.0
997,222.0316447291667,222.54375494583334,58.0,87.0
998,222.44686922916668,222.65275137708335,62.0,93.0
999,222.44686922916668,222.78077893125,65.0,89.0
1000,221.6164202291667,223.17178200208335,46.0,90.0
1001,222.86209372916667,223.24444628958335,53.0,79.0
1002,223.27731822916667,223.71503405625,58.0,86.0
1003,223.27731822916667,223.7236845666667,70.0,86.0
1004,223.6925427291667,224.21503355833335,53.0,73.0
1005,224.10776722916668,224.38977386875,62.0,97.0
1006,224.10776722916668,224.40188458333336,58.0,93.0
1007,224.10776722916668,224.45378764583336,65.0,95.0
1008,223.27731822916667,224.57835499583337,46.0,86.0
1009,224.52299172916668,224.810188675,53.0,84.0
1010,224.93821622916667,225.43821573125,63.0,86.0
1011,224.93821622916667,225.45032644583335,60.0,85.0
1012,225.35344072916666,225.90534329375,55.0,70.0
1013,225.7686652291667,226.13025656458336,60.0,89.0
1014,225.9762774791667,226.13890707500002,55.0,81.0
1015,225.7686652291667,226.24617340416668,67.0,88.0
1016,224.93821622916667,226.26693462916668,48.0,88.0
1017,226.18388972916668,226.37247085625,63.0,92.0
1018,226.3915019791667,226.73233208958334,60.0,82.0
1019,227.0143387291667,227.53509945625,51.0,81.0
1020,227.4295632291667,227.79115456458334,56.0,82.0
1021,227.4295632291667,227.85343823958334,63.0,86.0
1022,226.59911422916667,227.97281528333335,44.0,83.0
1023,227.84478772916668,228.15966630833336,51.0,81.0
1024,228.26001222916668,228.70118826041667,62.0,76.0
1025,228.26001222916668,228.73579030208333,58.0,82.0
1026,229.0904612291667,229.5264469541667,65.0,88.0
1027,229.5056857291667,229.63198318125,62.0,92.0
1028,228.67523672916667,229.78250206250001,53.0,79.0
1029,228.26001222916668,229.78942247083336,46.0,86.0
1030,229.0904612291667,229.88803828958333,58.0,87.0
1031,229.92091022916668,230.6216015729167,70.0,90.0
1032,230.54374697916668,230.6579337166667,58.0,87.0
1033,230.33613472916667,230.83267402708336,53.0,83.0
1034,230.75135922916667,230.95551127500002,65.0,93.0
1035,230.75135922916667,230.96589188750002,58.0,97.0
1036,230.95897147916668,231.35862506041667,53.0,88.0
1037,231.1665837291667,231.36381536666667,62.0,93.0
1038,229.92091022916668,231.36727557083336,46.0,87.0
1039,231.37419597916667,231.48492251250002,58.0,86.0
1040,231.58180822916668,231.76865925416666,58.0,87.0
1041,231.58180822916668,232.05758630208334,63.0,88.0
1042,231.99703272916668,232.22886640833335,58.0,85.0
1043,232.41225722916667,232.70637458333334,67.0,88.0
1044,232.61986947916668,232.79460978958335,58.0,84.0
1045,232.82748172916666,233.08180673541668,63.0,75.0
1046,231.58180822916668,233.12678938958334,51.0,86.0
1047,233.03509397916667,233.19945367708334,58.0,75.0
1048,233.24270622916669,233.4364776625,58.0,81.0
1049,233.65793072916668,233.87938379583335,58.0,81.0
1050,233.24270622916669,233.9433975729167,67.0,83.0
1051,234.07315522916667,234.26865676458334,58.0,87.0
1052,233.24270622916669,234.4364766666667,51.0,87.0
1053,234.07315522916667,234.4953001375,63.0,86.0
1054,234.4883797291667,234.59391595625002,58.0,87.0
1055,234.9036042291667,235.12332719375001,56.0,85.0
1056,234.9036042291667,235.36381138333334,61.0,82.0
1057,235.31882872916668,235.81363792500002,56.0,88.0
1058,235.73405322916668,236.18560987291667,61.0,86.0
1059,235.73405322916668,236.24270324166667,65.0,87.0
1060,234.9036042291667,236.45377569583334,49.0,88.0
1061,236.5645022291667,236.6579277416667,61.0,71.0
1062,236.14927772916667,236.66138794583333,56.0,87.0
1063,236.5645022291667,237.2340517354167,68.0,86.0
1064,236.97972672916669,237.26000326666667,56.0,80.0
1065,236.5645022291667,237.6198645,49.0,87.0
1066,237.39495122916668,237.84996807708336,65.0,88.0
1067,237.39495122916668,237.85861858750002,56.0,90.0
1068,237.81017572916667,237.90879154791668,61.0,83.0
1069,238.22540022916667,238.65273544375003,59.0,80.0
1070,238.22540022916667,239.11813290416669,63.0,80.0
1071,238.6406247291667,239.16657576250003,54.0,74.0
1072,238.22540022916667,239.3326655625,47.0,87.0
1073,239.05584922916668,239.33958597083335,59.0,95.0
1074,239.47107372916668,239.72539873541666,59.0,89.0
1075,239.26346147916666,239.74962016458335,54.0,86.0
1076,239.6786859791667,239.95723241458336,63.0,82.0
1077,239.79460281875,242.13370083541668,62.0,75.0
1078,239.7305890416667,242.15965236666668,58.0,74.0
1079,239.90878955625,242.20117481666668,70.0,86.0
1080,239.88110792291667,242.22193604166668,65.0,77.0
1081,239.85688649375,242.22712634791668,46.0,87.0
1082,242.79286972916668,243.46068913333335,58.0,73.0
1083,243.20809422916668,243.79113863125002,65.0,86.0
1084,243.62331872916667,244.15619017083333,58.0,72.0
1085,244.0385432291667,244.68041110208333,67.0,82.0
1086,244.0385432291667,244.68560140833335,63.0,82.0
1087,244.66137997916667,244.91397488333334,58.0,70.0
1088,244.86899222916668,245.32919938333333,63.0,82.0
1089,242.37764522916666,245.45722693750002,51.0,88.0
1090,245.28421672916667,245.7063616375,58.0,66.0
1091,245.49182897916668,245.81362796666667,63.0,71.0
1092,244.86899222916668,246.11985603541666,70.0,86.0
1093,246.1146657291667,246.62331574166666,56.0,74.0
1094,246.52989022916668,247.0039382,61.0,81.0
1095,246.52989022916668,247.0039382,65.0,81.0
1096,247.1527269791667,247.29286524791667,61.0,81.0
1097,246.94511472916668,247.64407597083334,56.0,73.0
1098,247.3603392291667,248.04026934791668,61.0,83.0
1099,247.3603392291667,248.07487138958334,68.0,85.0
1100,247.98317597916667,248.2530719041667,56.0,71.0
1101,248.19078822916669,248.55756987083333,61.0,88.0
1102,245.69944122916667,248.71846936458334,49.0,87.0
1103,248.60601272916668,248.73058007916666,56.0,77.0
1104,248.19078822916669,248.87936885833335,65.0,91.0
1105,248.81362497916666,249.11293263958333,61.0,78.0
1106,249.02123722916667,249.52815713958336,59.0,75.0
1107,249.02123722916667,249.72711887916668,63.0,79.0
1108,249.64407397916668,250.13196276666667,59.0,86.0
1109,250.05929847916667,250.35341583333334,66.0,86.0
1110,249.02123722916667,250.52815614375,47.0,76.0
1111,250.26691072916668,250.52815614375,59.0,76.0
1112,249.4364617291667,250.56621838958336,54.0,69.0
1113,250.68213522916668,251.16829391458333,59.0,74.0
1114,250.68213522916668,251.19251534375002,63.0,86.0
1115,251.30497197916668,251.77036943958336,59.0,86.0
1116,251.09735972916667,251.83265311458337,54.0,73.0
1117,250.68213522916668,252.19078424583336,47.0,81.0
1118,251.72019647916667,252.19943475625,66.0,87.0
1119,252.13542097916667,252.36552455625002,59.0,78.0
1120,251.92780872916666,252.37763527083334,54.0,80.0
1121,252.96240977500003,253.43818784791668,56.0,86.0
1122,253.17175212708332,253.48317050208334,60.0,87.0
1123,252.34476333125002,253.81015979583333,44.0,86.0
1124,252.74787711666667,253.84822204166667,51.0,74.0
1125,253.65964091458335,254.04026337291668,56.0,88.0
1126,253.87417357291667,254.07832561875,60.0,82.0
1127,253.39147509166668,254.24095521458332,68.0,87.0
1128,254.6752108375,255.22711340208335,58.0,85.0
1129,254.96586798750002,255.3378399354167,62.0,87.0
1130,254.41915572916668,255.99527872708336,53.0,73.0
1131,254.14233939583335,256.05756240208336,46.0,82.0
1132,255.27901646458335,256.62849608958334,65.0,86.0
1133,255.60427565625002,256.92780375,70.0,88.0
1134,256.91223283125,257.32745733125,46.0,74.0
1135,256.63368639583337,257.33610784166666,39.0,88.0
1136,257.15271702083334,257.3828205979167,63.0,82.0
1137,257.34648845416666,257.55756090833336,65.0,86.0
1138,257.54891039791664,257.6890486666667,67.0,86.0
1139,258.10254306458336,258.3309165395833,70.0,79.0
1140,258.4035808270834,258.5454491979167,75.0,86.0
1141,258.68039716041665,258.8032344083333,77.0,85.0
1142,258.98143492291666,259.09216145625,79.0,85.0
1143,259.31188442083334,259.43645177083334,82.0,76.0
1144,257.9278027541667,259.46413340416666,58.0,71.0
1145,257.6994292791667,259.49527524166666,51.0,81.0
1146,259.89838902708334,260.6008104729167,82.0,64.0
1147,259.99873494791666,260.65790384166667,87.0,76.0
1148,259.84129565833337,260.72710792500004,58.0,66.0
1149,259.74960024791665,260.74267884375,51.0,58.0
