,start,end,pitch,velocity
0,1.8285696000000002,2.0410693875000003,74.0,70.0
1,1.8285696000000002,2.0526765187500002,62.0,82.0
2,2.0428551,2.2482120375,69.0,80.0
3,2.0428551,2.2553548875000002,81.0,70.0
4,2.2571406000000005,2.4696403875,74.0,70.0
5,2.2571406000000005,2.48481894375,62.0,79.0
6,2.4714261000000004,2.6794616062500003,60.0,81.0
7,2.4714261000000004,2.6839258875000005,79.0,70.0
8,2.6857116000000003,2.8982113875000004,62.0,75.0
9,2.6857116000000003,2.8982113875000004,81.0,70.0
10,2.8999971,2.9517827625000006,60.0,85.0
11,2.9535684750000004,3.0053541375000004,62.0,77.0
12,3.0071398500000006,3.1124968875000003,60.0,77.0
13,2.8999971,3.2196396375000003,74.0,70.0
14,3.1142826000000006,3.3642823500000003,57.0,77.0
15,3.3285681000000005,3.5401750312500004,60.0,77.0
16,3.5428536000000004,3.9499960500000006,62.0,76.0
17,3.7571391000000003,3.9696388875000004,79.0,70.0
18,3.9714246000000006,4.1839243875,81.0,70.0
19,4.1857101000000005,4.3982098875,74.0,70.0
20,4.3999956000000005,4.612495387500001,79.0,70.0
21,4.6142811,4.826780887500001,81.0,70.0
22,4.8285666,5.041066387500001,84.0,70.0
23,4.3999956000000005,5.09374490625,69.0,78.0
24,5.042852100000001,5.255351887500001,81.0,70.0
25,5.257137600000001,5.422316006250001,67.0,80.0
26,5.257137600000001,5.469637387500001,79.0,70.0
27,5.471423100000001,5.669637187500001,69.0,71.0
28,5.471423100000001,5.6839228875000005,72.0,70.0
29,5.685708600000001,5.845529868750001,67.0,78.0
30,5.685708600000001,5.8982083875,74.0,70.0
31,5.899994100000001,6.038386818750001,65.0,78.0
32,6.114279600000001,6.286600856250001,62.0,77.0
33,5.899994100000001,6.326779387500001,77.0,70.0
34,6.3285651000000005,6.380350762500001,60.0,85.0
35,6.382136475000001,6.433922137500001,62.0,77.0
36,6.435707850000001,6.541064887500001,60.0,77.0
37,6.542850600000001,6.755350387500001,65.0,77.0
38,6.757136100000001,6.969635887500001,67.0,77.0
39,6.971421600000001,7.183921387500001,77.0,70.0
40,7.185707100000001,7.398206887500001,81.0,70.0
41,6.971421600000001,7.409814018750001,69.0,77.0
42,7.399992600000001,7.612492387500001,84.0,70.0
43,7.399992600000001,7.813385043750001,72.0,78.0
44,7.614278100000001,7.826777887500001,89.0,70.0
45,7.828563600000001,8.041063387500001,88.0,70.0
46,8.042849100000002,8.2553488875,84.0,70.0
47,8.2571346,8.469634387500001,79.0,70.0
48,7.828563600000001,8.683919887500002,67.0,78.0
49,8.471420100000001,8.683919887500002,72.0,70.0
50,8.6857056,8.909812518750002,62.0,82.0
51,8.899991100000001,9.1053480375,69.0,80.0
52,9.114276600000002,9.341954943750002,62.0,79.0
53,9.328562100000001,9.536597606250002,60.0,81.0
54,9.542847600000002,9.7553473875,62.0,75.0
55,9.7571331,9.808918762500001,60.0,85.0
56,9.810704475000001,9.862490137500002,62.0,77.0
57,9.864275850000002,9.969632887500001,60.0,77.0
58,9.971418600000002,10.221418350000002,57.0,77.0
59,10.1857041,10.397311031250002,60.0,77.0
60,10.399989600000001,10.612489387500002,62.0,76.0
61,10.614275100000002,10.826774887500001,69.0,77.0
62,10.828560600000001,11.041060387500002,72.0,77.0
63,11.042846100000002,11.2553458875,69.0,78.0
64,11.257131600000001,11.469631387500002,67.0,78.0
65,11.471417100000002,11.523202762500002,67.0,85.0
66,11.524988475,11.576774137500001,69.0,77.0
67,11.578559850000001,11.683916887500002,67.0,77.0
68,11.6857026,11.898202387500001,64.0,77.0
69,11.899988100000002,12.112487887500002,60.0,77.0
70,12.328559100000001,12.541058887500002,81.0,82.0
71,12.542844600000002,12.755344387500001,79.0,82.0
72,12.757130100000001,12.969629887500002,81.0,82.0
73,12.114273600000002,13.183915387500003,62.0,77.0
74,12.971415600000002,13.183915387500003,84.0,82.0
75,13.185701100000001,13.398200887500002,81.0,82.0
76,13.399986600000002,13.612486387500002,64.0,77.0
77,13.399986600000002,13.612486387500002,84.0,82.0
78,13.614272100000003,13.666057762500001,62.0,85.0
79,13.667843475000002,13.719629137500002,64.0,77.0
80,13.721414850000002,13.826771887500001,62.0,77.0
81,13.614272100000003,13.826771887500001,86.0,82.0
82,13.828557600000002,15.112484887500003,60.0,77.0
83,13.828557600000002,15.541055887500002,84.0,82.0
84,15.971412600000003,16.11159103125,65.0,56.0
85,15.757127100000002,16.26426945,69.0,64.0
86,16.185698100000003,16.4517692625,72.0,70.0
87,16.399983600000002,17.300875556250002,77.0,71.0
88,17.4714111,17.75801795625,72.0,68.0
89,17.685696600000004,18.242838900000002,67.0,65.0
90,17.899982100000003,18.5660528625,76.0,71.0
91,18.1142676,18.757124100000002,72.0,52.0
92,19.185695100000004,19.441051987500003,74.0,76.0
93,19.399980600000003,19.97587288125,69.0,67.0
94,19.614266100000002,20.266944018750003,74.0,76.0
95,19.8285516,20.547300881250003,77.0,68.0
96,20.899979100000003,21.141050287500004,72.0,70.0
97,21.114264600000002,21.728549700000002,67.0,70.0
98,21.3285501,22.11158503125,72.0,68.0
99,21.542835600000004,22.249977750000003,76.0,74.0
100,22.614263100000002,22.913369943750002,70.0,67.0
101,22.8285486,23.194619662500003,65.0,58.0
102,23.042834100000004,23.344619512500003,74.0,77.0
103,23.257119600000003,23.983011731250002,77.0,68.0
104,24.3285471,24.6124753875,72.0,69.0
105,24.542832600000004,24.991046437500003,69.0,67.0
106,24.757118100000003,25.533010181250003,72.0,71.0
107,24.971403600000002,25.627652943750004,76.0,74.0
108,26.042831100000004,26.342830800000005,70.0,63.0
109,26.257116600000003,27.121401450000004,65.0,66.0
110,26.471402100000002,27.149972850000005,70.0,74.0
111,26.685687600000005,27.259794168750002,74.0,77.0
112,27.757115100000004,28.358900212500004,67.0,59.0
113,27.971400600000003,28.372293056250005,72.0,72.0
114,28.185686100000005,28.494614362500005,76.0,74.0
115,28.399971600000004,29.052649518750005,79.0,73.0
116,29.257113600000004,30.003541425000005,77.0,87.0
117,30.114255600000003,30.327648243750005,79.0,77.0
118,30.328541100000002,30.476755237500004,77.0,58.0
119,30.542826600000005,30.681219318750003,79.0,82.0
120,30.757112100000004,30.893719106250003,81.0,87.0
121,30.971397600000003,31.183897387500004,84.0,63.0
122,31.185683100000006,31.398182887500003,81.0,59.0
123,31.399968600000005,31.933896637500006,84.0,85.0
124,32.0428251,32.21603921250001,81.0,55.0
125,32.257110600000004,32.612467387500004,84.0,88.0
126,32.6856816,33.4410379875,81.0,74.0
127,33.542823600000006,33.80443048125,79.0,79.0
128,33.7571091,33.9767517375,77.0,67.0
129,33.9713946,34.19728723125,79.0,57.0
130,34.185680100000006,34.3124656875,81.0,96.0
131,34.3999656,34.77228665625,86.0,85.0
132,34.82853660000001,35.144607712500004,84.0,89.0
133,35.257107600000005,35.47139310000001,79.0,68.0
134,35.47139310000001,35.70175001250001,81.0,63.0
135,35.6856786,36.055321087500005,84.0,94.0
136,36.11424960000001,36.789248925,74.0,82.0
137,36.971391600000004,37.203534225000006,74.0,72.0
138,37.18567710000001,37.3696054875,72.0,71.0
139,37.3999626,37.5874624125,74.0,79.0
140,37.614248100000005,37.826747887500005,77.0,71.0
141,37.82853360000001,38.04103338750001,81.0,96.0
142,38.0428191,38.2553188875,72.0,59.0
143,38.257104600000005,38.469604387500006,77.0,59.0
144,38.47139010000001,38.707104150000006,72.0,66.0
145,38.6856756,38.86960398750001,79.0,89.0
146,38.899961100000006,39.10174661250001,72.0,66.0
147,39.11424660000001,39.338353518750004,81.0,87.0
148,39.328532100000004,39.47496052500001,72.0,76.0
149,39.54281760000001,39.79281735000001,79.0,78.0
150,39.7571031,40.01245998750001,72.0,69.0
151,39.971388600000004,40.31781682500001,81.0,82.0
152,40.18567410000001,40.38478104375,72.0,71.0
153,40.3999596,40.55353087500001,79.0,78.0
154,40.614245100000005,40.872280556250004,81.0,66.0
155,40.82853060000001,41.08120891875001,77.0,67.0
156,41.0428161,41.22406591875001,79.0,80.0
157,41.47138710000001,41.672279756250006,72.0,66.0
158,41.257101600000006,41.702636868750005,77.0,66.0
159,41.685672600000004,42.04906509375,84.0,87.0
160,42.328529100000004,42.56960028750001,72.0,38.0
161,42.54281460000001,42.896385675000005,84.0,84.0
162,42.11424360000001,42.924064218750004,77.0,69.0
163,42.971385600000005,43.21513535625001,77.0,76.0
164,43.18567110000001,43.524956475,79.0,80.0
165,43.3999566,43.7428134,86.0,82.0
166,44.685669600000004,44.94459791250001,77.0,66.0
167,44.89995510000001,45.17406196875,79.0,60.0
168,45.11424060000001,45.466025962500005,86.0,76.0
169,45.971382600000005,46.194596662500004,79.0,80.0
170,46.18566810000001,46.426739287500006,77.0,69.0
171,46.3999536,46.62852480000001,79.0,69.0
172,46.614239100000006,46.84638172500001,81.0,69.0
173,46.82852460000001,47.024952975000005,79.0,66.0
174,47.042810100000004,47.202631368750005,77.0,60.0
175,47.25709560000001,47.46959538750001,72.0,63.0
176,47.524952475000006,47.630309512500006,86.0,60.0
177,47.63209522500001,47.68388088750001,84.0,66.0
178,47.685666600000005,47.898166387500005,81.0,55.0
179,49.239236475000006,49.344593512500005,86.0,60.0
180,49.34637922500001,49.39816488750001,84.0,66.0
181,49.399950600000004,49.612450387500004,81.0,55.0
182,49.61423610000001,49.81334304375001,77.0,73.0
183,49.82852160000001,50.04637852500001,79.0,71.0
184,50.042807100000005,50.235664050000004,81.0,62.0
185,50.25709260000001,50.500842356250004,79.0,80.0
186,50.47137810000001,50.70441358125001,77.0,55.0
187,50.685663600000005,51.043698956250005,74.0,53.0
188,51.1142346,51.60084125625001,72.0,68.0
189,51.54280560000001,51.64816263750001,79.0,77.0
190,51.864233850000005,51.969590887500004,81.0,77.0
191,51.971376600000006,52.076733637500006,79.0,77.0
192,52.18566210000001,52.29101913750001,77.0,77.0
193,52.399947600000004,52.505304637500004,74.0,77.0
194,52.61423310000001,52.82673288750001,72.0,77.0
195,52.82851860000001,53.04101838750001,77.0,77.0
196,53.042804100000005,53.255303887500006,79.0,77.0
197,53.25708960000001,53.46958938750001,69.0,77.0
198,53.47137510000001,53.683874887500004,73.0,77.0
199,53.685660600000006,53.898160387500006,76.0,77.0
200,53.89994610000001,54.11244588750001,77.0,77.0
201,54.114231600000004,54.326731387500004,79.0,77.0
202,54.328517100000006,54.433874137500005,79.0,77.0
203,54.43565985000001,54.54101688750001,81.0,77.0
204,54.54280260000001,54.75530238750001,79.0,77.0
205,54.757088100000004,54.969587887500005,77.0,77.0
206,54.97137360000001,55.39815888750001,69.0,77.0
207,56.685657600000006,56.858871712500004,74.0,77.0
208,56.89994310000001,57.114228600000004,69.0,74.0
209,57.114228600000004,57.228514200000006,74.0,77.0
210,57.32851410000001,57.56333529375001,74.0,77.0
211,57.757085100000005,57.989227725000006,74.0,77.0
212,57.97137060000001,58.25083460625001,69.0,67.0
213,58.18565610000001,58.334763093750006,74.0,77.0
214,58.399941600000005,58.59190569375001,77.0,76.0
215,58.61422710000001,58.827619743750006,69.0,72.0
216,58.82851260000001,58.96869103125001,74.0,74.0
217,59.042798100000006,59.20261936875001,74.0,81.0
218,59.47136910000001,59.71511885625001,74.0,80.0
219,59.68565460000001,59.95529718750001,69.0,77.0
220,59.89994010000001,60.05708280000001,74.0,80.0
221,60.114225600000005,60.29101113750001,72.0,73.0
222,60.32851110000001,60.51601091250001,67.0,69.0
223,60.54279660000001,60.672260756250004,72.0,71.0
224,60.757082100000005,60.944581912500006,72.0,76.0
225,61.18565310000001,61.397260031250006,72.0,71.0
226,61.399938600000006,61.64904549375001,67.0,67.0
227,61.61422410000001,61.748152537500005,72.0,70.0
228,61.82850960000001,62.01600941250001,72.0,74.0
229,62.042795100000006,62.338330518750006,69.0,64.0
230,62.25708060000001,62.49279465000001,72.0,72.0
231,62.47136610000001,62.72047299375001,77.0,70.0
232,62.89993710000001,63.161543981250006,72.0,76.0
233,63.114222600000005,63.336543806250006,69.0,70.0
234,63.757079100000006,63.95082890625001,74.0,76.0
235,63.97136460000001,64.23743576250001,69.0,71.0
236,64.1856501,64.34189994375001,74.0,76.0
237,64.61422110000001,64.82225660625001,74.0,77.0
238,64.82850660000001,65.09904204375,69.0,71.0
239,65.04279210000001,65.15529198750001,74.0,76.0
240,65.4713631,65.70618429375001,72.0,72.0
241,65.68564860000001,65.9517197625,67.0,71.0
242,65.89993410000001,66.15350527500001,72.0,71.0
243,66.32850510000002,66.667790475,72.0,69.0
244,66.5427906,66.75975466875,67.0,66.0
245,66.97136160000001,67.15707570000001,74.0,76.0
246,67.18564710000001,67.53028961250001,65.0,67.0
247,67.39993260000001,67.65618234375,70.0,67.0
248,67.6142181,67.79368220625001,74.0,77.0
249,68.04278910000001,68.29189599375,74.0,77.0
250,68.25707460000001,68.474931525,70.0,71.0
251,68.47136010000001,68.60618139375,74.0,77.0
252,68.68564560000002,68.89814538750001,69.0,77.0
253,68.8999311,69.11243088750001,86.0,77.0
254,69.1142166,69.32671638750001,84.0,77.0
255,69.32850210000001,69.5410018875,81.0,77.0
256,69.54278760000001,69.7552873875,79.0,77.0
257,69.75707310000001,69.96957288750001,84.0,77.0
258,69.9713586,70.18385838750001,81.0,77.0
259,70.1856441,70.39814388750001,79.0,77.0
260,70.39992960000001,70.57314371250001,74.0,77.0
261,70.61421510000001,70.82850060000001,69.0,74.0
262,70.82850060000001,70.94278620000001,74.0,77.0
263,71.04278610000001,71.27760729375001,74.0,77.0
264,71.4713571,71.70349972500001,74.0,77.0
265,71.68564260000001,71.96510660625,69.0,67.0
266,71.89992810000001,72.04903509375,74.0,77.0
267,72.11421360000001,72.30617769375002,77.0,76.0
268,72.32849910000002,72.54189174375001,69.0,72.0
269,72.5427846,72.68296303125001,74.0,74.0
270,72.7570701,72.91689136875002,74.0,81.0
271,73.18564110000001,73.42939085625001,74.0,80.0
272,73.39992660000001,73.66956918750002,69.0,77.0
273,73.6142121,73.77135480000001,74.0,80.0
274,73.8284976,74.00528313750002,72.0,73.0
275,74.04278310000001,74.23028291250002,67.0,69.0
276,74.25706860000001,74.38653275625,72.0,71.0
277,74.47135410000001,74.6588539125,72.0,76.0
278,74.8999251,75.11153203125001,72.0,71.0
279,75.1142106,75.36331749375,67.0,67.0
280,75.32849610000001,75.46242453750001,72.0,70.0
281,75.54278160000001,75.7302814125,72.0,74.0
282,75.75706710000001,75.96956688750001,69.0,64.0
283,75.9713526,76.20706665000002,72.0,72.0
284,76.1856381,76.43474499375002,77.0,70.0
285,76.39992360000001,76.61242338750002,76.0,77.0
286,76.61420910000001,76.87581598125001,72.0,76.0
287,76.82849460000001,77.05081580625001,69.0,70.0
288,77.4713511,77.66510090625,74.0,76.0
289,77.68563660000001,77.9517077625,69.0,71.0
290,77.89992210000001,78.05617194375002,74.0,76.0
291,78.32849310000002,78.53652860625002,74.0,77.0
292,78.5427786,78.81331404375001,69.0,71.0
293,78.75706410000001,78.86956398750002,74.0,76.0
294,79.18563510000001,79.42045629375001,72.0,72.0
295,79.39992060000002,79.66599176250001,67.0,71.0
296,79.6142061,79.86777727500001,72.0,71.0
297,80.04277710000001,80.38206247500001,72.0,69.0
298,80.25706260000001,80.47402666875001,67.0,66.0
299,80.68563360000002,80.87134770000002,74.0,76.0
300,80.8999191,81.24456161250001,65.0,67.0
301,81.11420460000001,81.37045434375001,70.0,67.0
302,81.32849010000001,81.50795420625,74.0,77.0
303,81.75706110000002,82.00616799375001,74.0,77.0
304,81.9713466,82.18920352500001,70.0,71.0
305,82.1856321,82.32045339375001,74.0,77.0
306,82.39991760000001,82.62313166250001,72.0,75.0
307,82.61420310000001,82.97402416875,67.0,71.0
308,82.82848860000001,83.06420265000001,72.0,72.0
309,83.04277410000002,83.49813078750002,76.0,76.0
310,83.47134510000001,83.94991605000001,72.0,72.0
311,83.68563060000001,83.98920172500002,67.0,71.0
312,84.11420160000002,84.32670138750001,74.0,70.0
313,84.11420160000002,84.33830851875001,62.0,82.0
314,84.32848710000002,84.53384403750002,69.0,80.0
315,84.32848710000002,84.54098688750001,81.0,70.0
316,84.5427726,84.75527238750001,74.0,70.0
317,84.5427726,84.77045094375,62.0,79.0
318,84.75705810000001,84.96509360625001,60.0,81.0
319,84.75705810000001,84.96955788750002,79.0,70.0
320,84.97134360000001,85.1838433875,62.0,75.0
321,84.97134360000001,85.1838433875,81.0,70.0
322,85.18562910000001,85.23741476250001,60.0,85.0
323,85.239200475,85.29098613750001,62.0,77.0
324,85.29277185000001,85.39812888750001,60.0,77.0
325,85.18562910000001,85.50527163750002,74.0,70.0
326,85.39991460000002,85.64991435000002,57.0,77.0
327,85.6142001,85.82580703125001,60.0,77.0
328,85.82848560000001,86.23562805000002,62.0,76.0
329,86.04277110000001,86.25527088750002,79.0,70.0
330,86.25705660000001,86.4695563875,81.0,70.0
331,86.47134210000002,86.68384188750001,74.0,70.0
332,86.68562760000002,86.89812738750001,79.0,70.0
333,86.8999131,87.11241288750001,81.0,70.0
334,87.11419860000001,87.32669838750002,84.0,70.0
335,86.68562760000002,87.37937690625002,69.0,78.0
336,87.32848410000001,87.5409838875,81.0,70.0
337,87.54276960000001,87.70794800625,67.0,80.0
338,87.54276960000001,87.75526938750001,79.0,70.0
339,87.75705510000002,87.95526918750001,69.0,71.0
340,87.75705510000002,87.96955488750001,72.0,70.0
341,87.9713406,88.13116186875001,67.0,78.0
342,87.9713406,88.18384038750001,74.0,70.0
343,88.18562610000001,88.32401881875,65.0,78.0
344,88.39991160000001,88.57223285625001,62.0,77.0
345,88.18562610000001,88.61241138750002,77.0,70.0
346,88.61419710000001,88.66598276250001,60.0,85.0
347,88.66776847500002,88.71955413750001,62.0,77.0
348,88.72133985,88.8266968875,60.0,77.0
349,88.82848260000002,89.04098238750001,65.0,77.0
350,89.04276810000002,89.25526788750001,67.0,77.0
351,89.2570536,89.46955338750001,77.0,70.0
352,89.47133910000001,89.68383888750002,81.0,70.0
353,89.2570536,89.69544601875,69.0,77.0
354,89.68562460000001,89.8981243875,84.0,70.0
355,89.68562460000001,90.09901704375001,72.0,78.0
356,89.89991010000001,90.11240988750001,89.0,70.0
357,90.11419560000002,90.32669538750001,88.0,70.0
358,90.3284811,90.54098088750001,84.0,70.0
359,90.54276660000001,90.75526638750001,79.0,70.0
360,90.11419560000002,90.96955188750002,67.0,78.0
361,90.75705210000001,90.96955188750002,72.0,70.0
362,90.97133760000001,91.19544451875001,62.0,82.0
363,91.18562310000002,91.39098003750001,69.0,80.0
364,91.39990860000002,91.62758694375002,62.0,79.0
365,91.6141941,91.82222960625,60.0,81.0
366,91.82847960000001,92.04097938750002,62.0,75.0
367,92.04276510000001,92.0945507625,60.0,85.0
368,92.09633647500002,92.14812213750001,62.0,77.0
369,92.14990785,92.25526488750002,60.0,77.0
370,92.25705060000001,92.50705035000001,57.0,77.0
371,92.47133610000002,92.68294303125,60.0,77.0
372,92.68562160000002,92.89812138750001,62.0,76.0
373,92.89990710000001,93.11240688750001,69.0,77.0
374,93.11419260000001,93.32669238750002,72.0,77.0
375,93.32847810000001,93.5409778875,69.0,78.0
376,93.54276360000001,93.75526338750001,67.0,78.0
377,93.75704910000002,93.80883476250001,67.0,85.0
378,93.81062047500001,93.86240613750002,69.0,77.0
379,93.86419185000001,93.96954888750001,67.0,77.0
380,93.9713346,94.18383438750001,64.0,77.0
381,94.18562010000001,94.39811988750002,60.0,77.0
382,94.61419110000001,94.8266908875,81.0,82.0
383,94.82847660000002,95.04097638750001,79.0,82.0
384,95.04276210000002,95.25526188750001,81.0,82.0
385,94.39990560000001,95.46954738750001,62.0,77.0
386,95.2570476,95.46954738750001,84.0,82.0
387,95.47133310000001,95.68383288750002,81.0,82.0
388,95.68561860000001,95.8981183875,64.0,77.0
389,95.68561860000001,95.8981183875,84.0,82.0
390,95.89990410000001,95.95168976250001,62.0,85.0
391,95.95347547500002,96.00526113750001,64.0,77.0
392,96.00704685000001,96.11240388750001,62.0,77.0
393,95.89990410000001,96.11240388750001,86.0,82.0
394,96.11418960000002,97.39811688750001,60.0,77.0
395,96.11418960000002,97.82668788750001,84.0,82.0
396,98.25704460000001,98.39722303125001,65.0,56.0
397,98.04275910000001,98.54990145000001,69.0,64.0
398,98.47133010000002,98.73740126250001,72.0,70.0
399,98.68561560000002,99.58650755625001,77.0,71.0
400,99.75704310000002,100.04364995625001,72.0,68.0
401,99.9713286,100.52847090000002,67.0,65.0
402,100.18561410000001,100.85168486250001,76.0,71.0
403,100.39989960000001,101.04275610000002,72.0,52.0
404,101.47132710000001,101.72668398750001,74.0,76.0
405,101.68561260000001,102.26150488125002,69.0,67.0
406,101.89989810000002,102.55257601875002,74.0,76.0
407,102.11418360000002,102.83293288125002,77.0,68.0
408,103.18561110000002,103.42668228750001,72.0,70.0
409,103.39989660000002,104.01418170000001,67.0,70.0
410,103.61418210000001,104.39721703125001,72.0,68.0
411,103.82846760000001,104.53560975000002,76.0,74.0
412,104.89989510000001,105.19900194375002,70.0,67.0
413,105.11418060000001,105.48025166250001,65.0,58.0
414,105.32846610000001,105.63025151250001,74.0,77.0
415,105.54275160000002,106.26864373125001,77.0,68.0
416,106.61417910000002,106.89810738750002,72.0,69.0
417,106.82846460000002,107.27667843750001,69.0,67.0
418,107.04275010000002,107.81864218125001,72.0,71.0
419,107.25703560000001,107.91328494375001,76.0,74.0
420,108.32846310000001,108.62846280000001,70.0,63.0
421,108.54274860000001,109.40703345000001,65.0,66.0
422,108.75703410000001,109.43560485000002,70.0,74.0
423,108.97131960000002,109.54542616875001,74.0,77.0
424,110.04274710000001,110.64453221250001,67.0,59.0
425,110.25703260000002,110.65792505625001,72.0,72.0
426,110.47131810000002,110.78024636250001,76.0,74.0
427,110.68560360000001,111.33828151875001,79.0,73.0
428,111.97131660000001,112.11149503125002,65.0,56.0
429,111.75703110000002,112.26417345000002,69.0,64.0
430,112.18560210000001,112.45167326250001,72.0,70.0
431,112.39988760000001,113.30077955625002,77.0,71.0
432,113.47131510000001,113.75792195625002,72.0,68.0
433,113.68560060000001,114.24274290000001,67.0,65.0
434,113.89988610000002,114.56595686250002,76.0,71.0
435,114.11417160000002,114.75702810000001,72.0,52.0
436,115.18559910000002,115.44095598750002,74.0,76.0
437,115.39988460000002,115.97577688125001,69.0,67.0
438,115.61417010000001,116.26684801875001,74.0,76.0
439,115.82845560000001,116.54720488125001,77.0,68.0
440,116.89988310000001,117.14095428750001,72.0,70.0
441,117.11416860000001,117.72845370000002,67.0,70.0
442,117.32845410000002,118.11148903125002,72.0,68.0
443,117.54273960000002,118.24988175000001,76.0,74.0
444,118.61416710000002,118.92577393125002,71.0,68.0
445,118.82845260000002,119.13023801250002,67.0,71.0
446,119.04273810000002,119.31238068750001,74.0,72.0
447,119.25702360000001,119.95255861875002,79.0,76.0
448,120.54273660000001,120.83470059375001,70.0,61.0
449,120.75702210000001,121.32398581875002,65.0,69.0
450,120.97130760000002,121.46773567500001,70.0,68.0
451,121.18559310000002,121.70523543750002,74.0,72.0
452,122.04273510000002,122.31148483125001,72.0,71.0
453,122.25702060000002,122.87309141250002,67.0,59.0
454,122.47130610000002,123.10701975000002,72.0,69.0
455,122.68559160000001,123.25344817500002,76.0,71.0
456,123.97130460000001,124.29808998750002,65.0,69.0
457,123.75701910000002,124.30344712500002,69.0,63.0
458,124.18559010000001,124.58648255625002,72.0,68.0
459,124.39987560000002,125.05344637500002,77.0,72.0
460,125.25701760000001,126.20255236875002,65.0,63.0
461,125.25701760000001,126.21415950000002,70.0,65.0
462,126.97130160000002,128.02576483125003,74.0,76.0
463,126.97130160000002,128.03826481875,70.0,65.0
464,128.68558560000002,129.72576313125,72.0,64.0
465,128.68558560000002,129.74540596875002,76.0,71.0
466,130.39986960000002,131.3266543875,72.0,73.0
467,131.25701160000003,131.85522528750002,69.0,72.0
468,132.1141536,133.11504545625002,70.0,64.0
469,132.1141536,133.26593816250002,74.0,77.0
470,133.39986660000002,133.88647325625,72.0,68.0
471,133.82843760000003,133.93379463750003,79.0,77.0
472,134.14986585000003,134.25522288750003,81.0,77.0
473,134.2570086,134.3623656375,79.0,77.0
474,134.47129410000002,134.57665113750002,77.0,77.0
475,134.6855796,134.7909366375,74.0,77.0
476,134.89986510000003,135.1123648875,72.0,77.0
477,135.11415060000002,135.32665038750002,77.0,77.0
478,135.3284361,135.5409358875,79.0,77.0
479,135.54272160000002,135.75522138750003,69.0,77.0
480,135.7570071,135.96950688750002,73.0,77.0
481,135.97129260000003,136.1837923875,76.0,77.0
482,136.18557810000001,136.39807788750002,77.0,77.0
483,136.39986360000003,136.6123633875,79.0,77.0
484,136.61414910000002,136.71950613750002,79.0,77.0
485,136.72129185000003,136.82664888750003,81.0,77.0
486,136.8284346,137.04093438750002,79.0,77.0
487,137.04272010000003,137.2552198875,77.0,77.0
488,137.2570056,137.6837908875,69.0,77.0
489,138.9712896,139.1445037125,74.0,77.0
490,139.18557510000002,139.3998606,69.0,74.0
491,139.3998606,139.51414620000003,74.0,77.0
492,139.61414610000003,139.84896729375,74.0,77.0
493,140.0427171,140.27485972500003,74.0,77.0
494,140.25700260000002,140.53646660625003,69.0,67.0
495,140.4712881,140.62039509375,74.0,77.0
496,140.68557360000003,140.87753769375,77.0,76.0
497,140.89985910000001,141.11325174375003,69.0,72.0
498,141.11414460000003,141.25432303125,74.0,74.0
499,141.32843010000002,141.48825136875,74.0,81.0
500,141.75700110000002,142.00075085625002,74.0,80.0
501,141.9712866,142.24092918750003,69.0,77.0
502,142.18557210000003,142.3427148,74.0,80.0
503,142.39985760000002,142.5766431375,72.0,73.0
504,142.6141431,142.80164291250003,67.0,69.0
505,142.82842860000002,142.95789275625003,72.0,71.0
506,143.0427141,143.2302139125,72.0,76.0
507,143.47128510000002,143.68289203125002,72.0,71.0
508,143.6855706,143.93467749375003,67.0,67.0
509,143.89985610000002,144.03378453750003,72.0,70.0
510,144.1141416,144.30164141250003,72.0,74.0
511,144.32842710000003,144.62396251875,69.0,64.0
512,144.54271260000002,144.77842665000003,72.0,72.0
513,144.75699810000003,145.00610499375003,77.0,70.0
514,145.1855691,145.44717598125,72.0,76.0
515,145.39985460000003,145.62217580625003,69.0,70.0
516,146.04271110000002,146.23646090625002,74.0,76.0
517,146.2569966,146.5230677625,69.0,71.0
518,146.47128210000002,146.62753194375003,74.0,76.0
519,146.89985310000003,147.10788860625001,74.0,77.0
520,147.11413860000002,147.38467404375,69.0,71.0
521,147.3284241,147.4409239875,74.0,76.0
522,147.7569951,147.99181629375002,72.0,72.0
523,147.97128060000003,148.23735176250003,67.0,71.0
524,148.18556610000002,148.439137275,72.0,71.0
525,148.61413710000002,148.95342247500002,72.0,69.0
526,148.8284226,149.04538666875,67.0,66.0
527,149.25699360000002,149.44270770000003,74.0,76.0
528,149.47127910000003,149.8159216125,65.0,67.0
529,149.68556460000002,149.94181434375002,70.0,67.0
530,149.8998501,150.07931420625002,74.0,77.0
531,150.3284211,150.57752799375,74.0,77.0
532,150.54270660000003,150.760563525,70.0,71.0
533,150.75699210000002,150.89181339375003,74.0,77.0
534,150.9712776,151.18377738750002,69.0,77.0
535,151.18556310000002,151.39806288750003,86.0,77.0
536,151.3998486,151.61234838750002,84.0,77.0
537,151.61413410000003,151.8266338875,81.0,77.0
538,151.82841960000002,152.04091938750003,79.0,77.0
539,152.0427051,152.2552048875,84.0,77.0
540,152.25699060000002,152.46949038750003,81.0,77.0
541,152.4712761,152.68377588750002,79.0,77.0
542,152.68556160000003,152.85877571250003,74.0,77.0
543,152.89984710000002,153.11413260000003,69.0,74.0
544,153.11413260000003,153.22841820000002,74.0,77.0
545,153.32841810000002,153.56323929375003,74.0,77.0
546,153.75698910000003,153.98913172500002,74.0,77.0
547,153.97127460000002,154.25073860625002,69.0,67.0
548,154.18556010000003,154.33466709375003,74.0,77.0
549,154.39984560000002,154.59180969375,77.0,76.0
550,154.6141311,154.82752374375002,69.0,72.0
551,154.82841660000003,154.96859503125003,74.0,74.0
552,155.0427021,155.20252336875,74.0,81.0
553,155.47127310000002,155.71502285625002,74.0,80.0
554,155.6855586,155.95520118750002,69.0,77.0
555,155.89984410000002,156.05698680000003,74.0,80.0
556,156.1141296,156.2909151375,72.0,73.0
557,156.32841510000003,156.51591491250002,67.0,69.0
558,156.54270060000002,156.67216475625003,72.0,71.0
559,156.75698610000003,156.94448591250003,72.0,76.0
560,157.1855571,157.39716403125,72.0,71.0
561,157.39984260000003,157.64894949375002,67.0,67.0
562,157.61412810000002,157.74805653750002,72.0,70.0
563,157.82841360000003,158.01591341250003,72.0,74.0
564,158.04269910000002,158.25519888750003,69.0,64.0
565,158.2569846,158.49269865000002,72.0,72.0
566,158.47127010000003,158.72037699375002,77.0,70.0
567,158.68555560000001,158.89805538750002,76.0,77.0
568,158.89984110000003,159.16144798125003,72.0,76.0
569,159.11412660000002,159.33644780625002,69.0,70.0
570,159.7569831,159.95073290625,74.0,76.0
571,159.97126860000003,160.23733976250003,69.0,71.0
572,160.18555410000002,160.34180394375002,74.0,76.0
573,160.61412510000002,160.82216060625,74.0,77.0
574,160.8284106,161.09894604375003,69.0,71.0
575,161.04269610000003,161.1551959875,74.0,76.0
576,161.47126710000003,161.70608829375,72.0,72.0
577,161.68555260000002,161.95162376250002,67.0,71.0
578,161.8998381,162.15340927500003,72.0,71.0
579,162.32840910000002,162.66769447500002,72.0,69.0
580,162.54269460000003,162.75965866875003,67.0,66.0
581,162.9712656,163.15697970000002,74.0,76.0
582,163.18555110000003,163.53019361250003,65.0,67.0
583,163.39983660000001,163.65608634375002,70.0,67.0
584,163.61412210000003,163.79358620625,74.0,77.0
585,164.0426931,164.29179999375003,74.0,77.0
586,164.25697860000002,164.47483552500003,70.0,71.0
587,164.4712641,164.60608539375002,74.0,77.0
588,164.68554960000003,164.90876366250004,72.0,75.0
589,164.89983510000002,165.25965616875,67.0,71.0
590,165.11412060000004,165.34983465000002,72.0,72.0
591,165.32840610000002,165.78376278750002,76.0,76.0
592,165.75697710000003,166.23554805000003,72.0,72.0
593,165.97126260000002,166.274833725,67.0,71.0
594,166.39983360000002,166.63822621875002,74.0,78.0
595,166.6141191,166.80786890625004,79.0,76.0
596,166.82840460000003,167.04715438125,81.0,77.0
597,167.04269010000002,167.30251126875,74.0,82.0
598,167.25697560000003,167.4801896625,79.0,77.0
599,167.47126110000002,167.70786800625,81.0,83.0
600,167.6855466,167.97572488125002,74.0,83.0
601,167.89983210000003,168.14536756875003,79.0,78.0
602,168.11411760000001,168.35608164375003,74.0,82.0
603,168.32840310000003,168.57750999375003,79.0,76.0
604,168.54268860000002,168.78643835625002,81.0,82.0
605,168.75697410000004,169.0569738,74.0,83.0
606,168.97125960000002,169.22125935000003,79.0,78.0
607,169.1855451,169.37661633750002,81.0,77.0
608,169.39983060000003,169.64179464375002,84.0,78.0
609,169.61411610000002,169.71947313750002,81.0,76.0
610,169.72125885000003,169.82661588750003,77.0,76.0
611,169.82840160000003,170.02215140625003,79.0,81.0
612,170.04268710000002,170.28375828750004,81.0,76.0
613,170.2569726,170.52393661875,74.0,87.0
614,170.47125810000003,170.71054357500003,79.0,77.0
615,170.68554360000002,170.93554335000002,81.0,81.0
616,170.89982910000003,171.24536446875,74.0,81.0
617,171.11411460000002,171.32929295625001,79.0,78.0
618,171.3284001,171.49982850000004,81.0,78.0
619,171.54268560000003,171.78464964375002,79.0,77.0
620,171.75697110000002,172.02661368750003,81.0,71.0
621,171.97125660000003,172.15697070000002,84.0,82.0
622,172.18554210000002,172.39804188750003,89.0,69.0
623,172.3998276,172.50518463750004,88.0,77.0
624,172.50697035000002,172.61232738750002,89.0,77.0
625,172.61411310000003,172.71947013750002,88.0,77.0
626,172.72125585000003,172.82661288750003,86.0,77.0
627,172.8283986,173.04089838750002,84.0,77.0
628,173.04268410000003,173.2551838875,81.0,77.0
629,173.25696960000002,173.46946938750003,72.0,77.0
630,173.47125510000004,173.68375488750002,74.0,77.0
631,173.68554060000002,173.89804038750003,77.0,77.0
632,173.8998261,174.11232588750002,74.0,77.0
633,174.11411160000003,174.3266113875,79.0,77.0
634,174.32839710000002,174.54089688750003,81.0,77.0
635,174.75696810000002,174.96946788750003,72.0,77.0
636,174.9712536,175.18375338750002,74.0,77.0
637,175.18553910000003,175.29089613750003,72.0,77.0
638,175.29268185000004,175.39803888750004,74.0,77.0
639,175.39982460000002,175.61232438750002,72.0,77.0
640,175.61411010000003,175.8266098875,74.0,77.0
641,175.82839560000002,176.04089538750003,79.0,77.0
642,176.0426811,176.25518088750002,81.0,77.0
643,176.25696660000003,176.46946638750003,84.0,77.0
644,176.47125210000002,176.68375188750002,77.0,77.0
645,176.68553760000003,176.8980373875,79.0,77.0
646,176.89982310000002,177.11232288750003,81.0,77.0
647,177.11410860000004,177.32660838750002,84.0,77.0
648,177.32839410000003,177.54089388750003,81.0,77.0
649,177.5426796,177.75517938750002,79.0,77.0
650,177.86410785,177.9694648875,81.0,77.0
651,177.97125060000002,178.18375038750003,79.0,77.0
652,178.18553610000004,178.39803588750001,77.0,77.0
653,178.39982160000002,178.61232138750003,81.0,77.0
654,178.82839260000003,179.04089238750004,79.0,77.0
655,179.04267810000002,179.25517788750003,77.0,77.0
656,179.25696360000003,180.00517713750003,74.0,77.0
657,180.54267660000002,180.78196207500002,70.0,67.0
658,180.7569621,181.0408903875,65.0,71.0
659,181.39981860000003,181.68642545625002,70.0,60.0
660,180.97124760000003,181.69713973125002,74.0,77.0
661,181.18553310000001,181.70071115625004,65.0,76.0
662,182.04267510000003,182.29446056250003,72.0,70.0
663,182.47124610000003,182.69981730000003,72.0,67.0
664,182.2569606,182.78642435625002,67.0,66.0
665,182.68553160000002,183.31678096875004,76.0,73.0
666,182.89981710000004,183.33731666250003,72.0,68.0
667,183.11410260000002,183.34803093750003,67.0,65.0
668,183.75695910000002,183.99178029375003,72.0,69.0
669,183.97124460000003,184.32213710625,69.0,60.0
670,184.18553010000002,184.41945843750003,72.0,68.0
671,184.3998156,184.73820811875004,76.0,72.0
672,184.61410110000003,184.90874366250003,72.0,70.0
673,184.82838660000002,185.35695750000002,69.0,59.0
674,185.47124310000004,185.73731426250004,74.0,76.0
675,185.68552860000003,186.08195677500004,69.0,70.0
676,185.89981410000001,186.12749244375001,74.0,78.0
677,186.11409960000003,186.45517068750001,77.0,75.0
678,186.32838510000002,186.59356340625,74.0,77.0
679,186.54267060000004,186.71856328125003,69.0,76.0
680,187.18552710000003,187.47749109375002,70.0,62.0
681,187.39981260000002,187.85516928750002,65.0,70.0
682,187.82838360000002,188.07927620625003,70.0,64.0
683,188.0426691,188.34981165000002,65.0,68.0
684,188.25695460000003,188.3980258875,70.0,57.0
685,187.61409810000004,188.48106151875,74.0,77.0
686,188.89981110000002,189.13373943750003,74.0,74.0
687,189.1140966,189.42213200625002,67.0,67.0
688,189.32838210000003,189.58909612500003,74.0,74.0
689,189.54266760000002,189.8140959,79.0,72.0
690,189.75695310000003,190.02659568750002,74.0,77.0
691,189.97123860000002,190.21855978125004,67.0,76.0
692,190.61409510000001,190.85695200000004,69.0,68.0
693,191.04266610000002,191.26052302500003,69.0,71.0
694,190.82838060000003,191.29355870625002,76.0,72.0
695,191.25695160000004,191.56677271875003,81.0,76.0
696,191.47123710000002,192.50248606875002,76.0,76.0
697,191.6855226,192.61320024375001,69.0,68.0
698,192.7569501,193.03462839375,73.0,63.0
699,192.97123560000003,193.23105676875002,69.0,70.0
700,193.39980660000003,193.57837785000004,69.0,72.0
701,193.18552110000002,193.63284208125003,76.0,74.0
702,193.82837760000004,194.00159171250002,74.0,77.0
703,194.04266310000003,194.25694860000002,69.0,74.0
704,194.25694860000002,194.37123420000003,74.0,77.0
705,194.47123410000003,194.70605529375,74.0,77.0
706,194.89980510000004,195.13194772500003,74.0,77.0
707,195.11409060000003,195.39355460625004,69.0,67.0
708,195.3283761,195.47748309375004,74.0,77.0
709,195.54266160000003,195.73462569375002,77.0,76.0
710,195.75694710000002,195.97033974375003,69.0,72.0
711,195.97123260000004,196.11141103125001,74.0,74.0
712,196.18551810000002,196.34533936875002,74.0,81.0
713,196.61408910000003,196.85783885625003,74.0,80.0
714,196.82837460000002,197.09801718750003,69.0,77.0
715,197.04266010000003,197.19980280000001,74.0,80.0
716,197.25694560000002,197.43373113750002,72.0,73.0
717,197.47123110000004,197.65873091250003,67.0,69.0
718,197.68551660000003,197.81498075625004,72.0,71.0
719,197.89980210000002,198.08730191250004,72.0,76.0
720,198.32837310000002,198.53998003125002,72.0,71.0
721,198.54265860000004,198.79176549375003,67.0,67.0
722,198.75694410000003,198.89087253750003,72.0,70.0
723,198.97122960000002,199.15872941250004,72.0,74.0
724,199.18551510000003,199.48105051875004,69.0,64.0
725,199.39980060000002,199.63551465000003,72.0,72.0
726,199.61408610000004,199.86319299375003,77.0,70.0
727,200.0426571,200.30426398125002,72.0,76.0
728,200.25694260000003,200.47926380625003,69.0,70.0
729,200.89979910000002,201.09354890625002,74.0,76.0
730,201.1140846,201.38015576250004,69.0,71.0
731,201.32837010000003,201.48461994375003,74.0,76.0
732,201.75694110000003,201.96497660625002,74.0,77.0
733,201.97122660000002,202.24176204375001,69.0,71.0
734,202.18551210000004,202.29801198750002,74.0,76.0
735,202.61408310000002,202.84890429375002,72.0,72.0
736,202.82836860000003,203.09443976250003,67.0,71.0
737,203.04265410000002,203.29622527500004,72.0,71.0
738,203.47122510000003,203.81051047500003,72.0,69.0
739,203.68551060000001,203.90247466875002,67.0,66.0
740,204.11408160000002,204.29979570000003,74.0,76.0
741,204.32836710000004,204.67300961250004,65.0,67.0
742,204.54265260000003,204.79890234375003,70.0,67.0
743,204.7569381,204.93640220625002,74.0,77.0
744,205.18550910000002,205.43461599375001,74.0,77.0
745,205.39979460000004,205.617651525,70.0,71.0
746,205.61408010000002,205.74890139375003,74.0,77.0
747,205.82836560000004,206.04086538750002,69.0,77.0
748,206.04265110000003,206.25515088750004,86.0,77.0
749,206.25693660000002,206.46943638750002,84.0,77.0
750,206.47122210000003,206.6837218875,81.0,77.0
751,206.68550760000002,206.89800738750003,79.0,77.0
752,206.89979310000004,207.11229288750002,84.0,77.0
753,207.11407860000003,207.32657838750004,81.0,77.0
754,207.32836410000002,207.54086388750002,79.0,77.0
755,207.54264960000003,207.71586371250004,74.0,77.0
756,207.75693510000002,207.97122060000004,69.0,74.0
757,207.97122060000004,208.08550620000003,74.0,77.0
758,208.18550610000003,208.42032729375003,74.0,77.0
759,208.61407710000003,208.84621972500003,74.0,77.0
760,208.82836260000002,209.10782660625003,69.0,67.0
761,209.04264810000004,209.19175509375003,74.0,77.0
762,209.25693360000002,209.44889769375004,77.0,76.0
763,209.4712191,209.68461174375003,69.0,72.0
764,209.68550460000003,209.82568303125004,74.0,74.0
765,209.89979010000002,210.05961136875004,74.0,81.0
766,210.32836110000002,210.57211085625002,74.0,80.0
767,210.54264660000004,210.81228918750003,69.0,77.0
768,210.75693210000003,210.91407480000004,74.0,80.0
769,210.97121760000002,211.14800313750004,72.0,73.0
770,211.18550310000003,211.37300291250003,67.0,69.0
771,211.39978860000002,211.52925275625003,72.0,71.0
772,211.61407410000004,211.80157391250003,72.0,76.0
773,212.04264510000002,212.25425203125002,72.0,71.0
774,212.25693060000003,212.50603749375003,67.0,67.0
775,212.47121610000002,212.60514453750002,72.0,70.0
776,212.68550160000004,212.87300141250003,72.0,74.0
777,212.89978710000003,213.11228688750003,69.0,64.0
778,213.11407260000001,213.34978665000003,72.0,72.0
779,213.32835810000003,213.57746499375003,77.0,70.0
780,213.54264360000002,213.75514338750003,76.0,77.0
781,213.75692910000004,214.01853598125004,72.0,76.0
782,213.97121460000002,214.19353580625003,69.0,70.0
783,214.61407110000002,214.80782090625002,74.0,76.0
784,214.82835660000003,215.09442776250003,69.0,71.0
785,215.04264210000002,215.19889194375003,74.0,76.0
786,215.47121310000003,215.67924860625004,74.0,77.0
787,215.68549860000002,215.95603404375004,69.0,71.0
788,215.89978410000003,216.01228398750004,74.0,76.0
789,216.32835510000004,216.56317629375002,72.0,72.0
790,216.54264060000003,216.80871176250002,67.0,71.0
791,216.75692610000002,217.01049727500003,72.0,71.0
792,217.18549710000002,217.52478247500002,72.0,69.0
793,217.39978260000004,217.61674666875004,67.0,66.0
794,217.82835360000004,218.01406770000003,74.0,76.0
795,218.04263910000003,218.38728161250003,65.0,67.0
796,218.25692460000002,218.51317434375002,70.0,67.0
797,218.47121010000004,218.65067420625002,74.0,77.0
798,218.89978110000004,219.14888799375004,74.0,77.0
799,219.11406660000003,219.33192352500004,70.0,71.0
800,219.32835210000002,219.46317339375003,74.0,77.0
801,219.54263760000003,219.76585166250004,72.0,75.0
802,219.75692310000002,220.11674416875002,67.0,71.0
803,219.97120860000004,220.20692265000002,72.0,72.0
804,220.18549410000003,220.64085078750003,76.0,76.0
805,220.61406510000003,221.09263605000004,72.0,72.0
806,220.82835060000002,221.13192172500004,67.0,71.0
807,221.25692160000003,221.46942138750003,74.0,70.0
808,221.25692160000003,221.48102851875004,62.0,82.0
809,221.47120710000002,221.67656403750004,69.0,80.0
810,221.47120710000002,221.68370688750002,81.0,70.0
811,221.68549260000003,221.89799238750004,74.0,70.0
812,221.68549260000003,221.91317094375003,62.0,79.0
813,221.89977810000002,222.10781360625003,60.0,81.0
814,221.89977810000002,222.11227788750003,79.0,70.0
815,222.11406360000004,222.32656338750002,62.0,75.0
816,222.11406360000004,222.32656338750002,81.0,70.0
817,222.32834910000003,222.38013476250003,60.0,85.0
818,222.38192047500002,222.43370613750002,62.0,77.0
819,222.43549185000003,222.54084888750003,60.0,77.0
820,222.32834910000003,222.64799163750004,74.0,70.0
821,222.54263460000004,222.79263435000004,57.0,77.0
822,222.75692010000003,222.96852703125003,60.0,77.0
823,222.97120560000002,223.37834805000003,62.0,76.0
824,223.18549110000004,223.39799088750004,79.0,70.0
825,223.39977660000002,223.61227638750003,81.0,70.0
826,223.61406210000004,223.82656188750002,74.0,70.0
827,223.82834760000003,224.04084738750004,79.0,70.0
828,224.04263310000002,224.25513288750003,81.0,70.0
829,224.25691860000003,224.46941838750004,84.0,70.0
830,223.82834760000003,224.52209690625003,69.0,78.0
831,224.47120410000002,224.68370388750003,81.0,70.0
832,224.68548960000004,224.85066800625003,67.0,80.0
833,224.68548960000004,224.89798938750002,79.0,70.0
834,224.89977510000003,225.09798918750002,69.0,71.0
835,224.89977510000003,225.11227488750004,72.0,70.0
836,225.11406060000002,225.27388186875004,67.0,78.0
837,225.11406060000002,225.32656038750002,74.0,70.0
838,225.32834610000003,225.46673881875003,65.0,78.0
839,225.54263160000002,225.71495285625002,62.0,77.0
840,225.32834610000003,225.75513138750003,77.0,70.0
841,225.75691710000004,225.80870276250002,60.0,85.0
842,225.81048847500003,225.86227413750004,62.0,77.0
843,225.86405985000002,225.96941688750002,60.0,77.0
844,225.97120260000003,226.18370238750003,65.0,77.0
845,226.18548810000004,226.39798788750002,67.0,77.0
846,226.39977360000003,226.61227338750004,77.0,70.0
847,226.61405910000002,226.82655888750003,81.0,70.0
848,226.39977360000003,226.83816601875003,69.0,77.0
849,226.82834460000004,227.04084438750002,84.0,70.0
850,226.82834460000004,227.24173704375002,72.0,78.0
851,227.04263010000003,227.25512988750003,89.0,70.0
852,227.25691560000004,227.46941538750002,88.0,70.0
853,227.47120110000003,227.68370088750004,84.0,70.0
854,227.68548660000002,227.89798638750003,79.0,70.0
855,227.25691560000004,228.11227188750004,67.0,78.0
856,227.89977210000004,228.11227188750004,72.0,70.0
857,228.11405760000002,228.33816451875003,62.0,82.0
858,228.32834310000004,228.53370003750004,69.0,80.0
859,228.54262860000003,228.77030694375003,62.0,79.0
860,228.75691410000002,228.96494960625003,60.0,81.0
861,228.97119960000003,229.18369938750004,62.0,75.0
862,229.18548510000002,229.23727076250003,60.0,85.0
863,229.23905647500004,229.29084213750002,62.0,77.0
864,229.29262785000003,229.39798488750003,60.0,77.0
865,229.39977060000004,229.64977035000004,57.0,77.0
866,229.61405610000003,229.82566303125003,60.0,77.0
867,229.82834160000002,230.04084138750002,62.0,76.0
868,230.04262710000003,230.25512688750004,69.0,77.0
869,230.25691260000002,230.46941238750003,72.0,77.0
870,230.47119810000004,230.68369788750002,69.0,78.0
871,230.68548360000003,230.89798338750003,67.0,78.0
872,230.89976910000004,230.95155476250002,67.0,85.0
873,230.95334047500003,231.00512613750004,69.0,77.0
874,231.00691185000002,231.11226888750002,67.0,77.0
875,231.11405460000003,231.32655438750004,64.0,77.0
876,231.32834010000002,231.54083988750003,60.0,77.0
877,231.75691110000002,231.96941088750003,81.0,82.0
878,231.97119660000004,232.18369638750002,79.0,82.0
879,232.18548210000003,232.39798188750004,81.0,82.0
880,231.54262560000004,232.61226738750003,62.0,77.0
881,232.39976760000002,232.61226738750003,84.0,82.0
882,232.61405310000004,232.82655288750004,81.0,82.0
883,232.82833860000002,233.04083838750003,64.0,77.0
884,232.82833860000002,233.04083838750003,84.0,82.0
885,233.04262410000004,233.09440976250002,62.0,85.0
886,233.09619547500003,233.14798113750004,64.0,77.0
887,233.14976685000002,233.25512388750002,62.0,77.0
888,233.04262410000004,233.25512388750002,86.0,82.0
889,233.25690960000003,233.89798038750004,60.0,77.0
890,233.68548060000003,234.16405155000004,69.0,94.0
891,233.25690960000003,234.21940863750004,84.0,82.0
892,234.11405160000004,234.54083688750003,72.0,94.0
893,234.54262260000004,234.68280103125002,76.0,76.0
894,234.64976535000002,234.85512228750002,77.0,58.0
895,234.54262260000004,234.98280073125002,72.0,66.0
896,234.86405085000004,235.01851498125004,76.0,89.0
897,234.97119360000002,238.75333267500002,69.0,73.0
898,234.97119360000002,238.77476122500002,74.0,87.0
