,start,end,pitch,velocity
0,14.685699600000001,15.089270625000003,65.0,83.0
1,15.114270600000001,15.563377293750001,67.0,77.0
2,15.542841600000003,16.275876581250003,65.0,82.0
3,16.399983600000002,16.814268900000002,67.0,77.0
4,16.828554600000004,17.24998275,69.0,80.0
5,17.257125600000002,17.679446606250004,72.0,76.0
6,17.685696600000004,18.1731961125,69.0,77.0
7,18.1142676,18.503552925,67.0,80.0
8,18.542838600000003,18.9803381625,69.0,82.0
9,18.9714096,19.525873331250004,67.0,77.0
10,19.614266100000002,20.188372668750002,65.0,78.0
11,20.257122600000002,20.595515118750004,69.0,78.0
12,20.685693600000004,21.053550375000004,72.0,77.0
13,21.114264600000002,21.511585631250004,69.0,79.0
14,21.542835600000004,21.954442331250004,67.0,77.0
15,21.9714066,22.359799068750004,69.0,80.0
16,22.399977600000003,23.000869856250002,67.0,76.0
17,23.042834100000004,23.609797818750003,65.0,77.0
18,23.685690600000004,24.081225918750004,62.0,79.0
19,24.114261600000003,24.429439856250003,60.0,80.0
20,24.435689850000003,24.541046887500002,62.0,71.0
21,24.542832600000004,24.728546700000003,65.0,78.0
22,24.757118100000003,25.023189262500004,62.0,77.0
23,24.971403600000002,25.314260400000002,65.0,78.0
24,25.399974600000004,25.774974225000005,69.0,76.0
25,25.8285456,26.477652093750002,67.0,77.0
26,26.471402100000002,26.679437606250005,69.0,77.0
27,26.685687600000005,27.100865756250002,67.0,77.0
28,27.114258600000003,27.543722456250002,65.0,76.0
29,27.542829600000005,28.353543075000005,67.0,76.0
30,28.399971600000004,28.711578431250004,65.0,79.0
31,28.828542600000002,29.220506493750005,67.0,69.0
32,29.257113600000004,29.873184412500002,65.0,82.0
33,30.114255600000003,30.406219593750006,67.0,72.0
34,30.542826600000005,30.886576256250002,69.0,77.0
35,30.971397600000003,31.340147231250004,72.0,78.0
36,31.399968600000005,31.821396750000005,69.0,77.0
37,31.828539600000003,32.284789143750004,67.0,76.0
38,32.257110600000004,32.677645893750004,69.0,76.0
39,32.6856816,33.27585958125,67.0,76.0
40,33.3285381,33.835680450000005,65.0,77.0
41,33.9713946,34.299072843750004,69.0,77.0
42,34.3999656,34.75353667500001,72.0,79.0
43,34.82853660000001,35.23567905,69.0,78.0
44,35.257107600000005,35.662464337500005,67.0,70.0
45,35.6856786,36.132999581250004,69.0,77.0
46,36.11424960000001,36.71157043125,67.0,72.0
47,36.7571061,37.34996265,65.0,73.0
48,37.3999626,37.8053193375,62.0,77.0
49,37.82853360000001,38.119604737500005,60.0,78.0
50,38.149961850000004,38.291925993750006,62.0,69.0
51,38.257104600000005,38.46424725000001,65.0,76.0
52,38.47139010000001,38.670497043750004,62.0,77.0
53,38.6856756,39.04460381250001,65.0,77.0
54,39.11424660000001,39.493710506250004,69.0,78.0
55,39.54281760000001,40.1874598125,67.0,72.0
56,40.18567410000001,40.419602437500004,69.0,77.0
57,40.3999596,40.847280581250004,67.0,77.0
58,41.0428161,41.255315887500004,65.0,77.0
59,41.257101600000006,42.49460036250001,65.0,78.0
60,42.54281460000001,42.84727858125,62.0,78.0
61,42.971385600000005,43.143706856250006,67.0,72.0
62,43.18567110000001,43.336563806250005,69.0,77.0
63,43.3999566,43.51513505625,67.0,75.0
64,43.614242100000006,43.739241975000006,65.0,77.0
65,43.82852760000001,44.24102718750001,62.0,82.0
66,44.47138410000001,44.87227655625001,67.0,76.0
67,44.89995510000001,45.045490668750006,69.0,78.0
68,45.11424060000001,45.243704756250004,67.0,79.0
69,45.328526100000005,45.49459736250001,65.0,76.0
70,45.54281160000001,45.861561281250005,62.0,82.0
71,45.971382600000005,46.11513245625001,60.0,85.0
72,46.18566810000001,46.29281085000001,62.0,72.0
73,46.3999536,46.752631818750004,60.0,77.0
74,46.82852460000001,47.17852425000001,62.0,76.0
75,47.25709560000001,47.60709525000001,65.0,77.0
76,47.685666600000005,48.06245193750001,67.0,76.0
77,48.11423760000001,48.35977306875001,69.0,77.0
78,48.328523100000005,48.50530863750001,72.0,80.0
79,48.54280860000001,48.73566555000001,69.0,77.0
80,48.7570941,49.39816488750001,69.0,78.0
81,49.82852160000001,49.97137860000001,67.0,76.0
82,50.042807100000005,50.192806950000005,69.0,75.0
83,50.25709260000001,50.448163837500005,67.0,77.0
84,50.47137810000001,50.60262796875001,65.0,76.0
85,50.685663600000005,51.2142345,62.0,77.0
86,51.328520100000006,51.68744831250001,67.0,77.0
87,51.757091100000004,51.88119811875001,69.0,78.0
88,51.971376600000006,52.086555056250006,67.0,76.0
89,52.18566210000001,52.33119766875001,65.0,82.0
90,52.399947600000004,52.747268681250006,62.0,78.0
91,52.82851860000001,53.105304037500005,67.0,64.0
92,53.25708960000001,54.81333804375001,69.0,78.0
93,54.97137360000001,55.69458716250001,65.0,81.0
94,55.82851560000001,56.563336293750005,67.0,76.0
95,56.685657600000006,56.831193168750005,69.0,78.0
96,56.89994310000001,57.091014337500006,62.0,78.0
97,57.114228600000004,57.228514200000006,69.0,78.0
98,57.32851410000001,57.61512095625001,69.0,76.0
99,57.757085100000005,57.876727837500006,69.0,80.0
100,57.97137060000001,58.094584762500006,69.0,76.0
101,58.18565610000001,58.31690596875001,69.0,78.0
102,58.399941600000005,58.52404861875001,67.0,70.0
103,58.61422710000001,58.745476968750005,69.0,77.0
104,58.82851260000001,58.99458386250001,72.0,75.0
105,59.042798100000006,59.15440513125001,69.0,77.0
106,59.25708360000001,59.56422615000001,67.0,76.0
107,59.68565460000001,59.89815438750001,64.0,68.0
108,59.89994010000001,60.11243988750001,65.0,70.0
109,60.114225600000005,60.249046893750005,67.0,76.0
110,60.32851110000001,60.45261811875001,60.0,76.0
111,60.54279660000001,60.66243933750001,67.0,69.0
112,60.757082100000005,61.00172471250001,67.0,76.0
113,61.18565310000001,61.31601011250001,67.0,77.0
114,61.399938600000006,61.502617068750006,67.0,72.0
115,61.61422410000001,61.70440258125001,67.0,76.0
116,61.82850960000001,61.94636662500001,67.0,76.0
117,62.042795100000006,62.16243783750001,69.0,76.0
118,62.25708060000001,62.388330468750006,72.0,77.0
119,62.47136610000001,62.58029456250001,69.0,76.0
120,62.68565160000001,62.999044143750005,65.0,77.0
121,63.114222600000005,63.24815103750001,65.0,77.0
122,63.32850810000001,63.44636512500001,67.0,71.0
123,63.54279360000001,64.08922162500001,69.0,77.0
124,64.1856501,64.6517210625,72.0,71.0
125,64.82850660000001,65.1713634,69.0,77.0
126,65.2570776,65.84546986875002,65.0,79.0
127,65.89993410000001,66.37939790625,62.0,71.0
128,66.5427906,66.66689761875001,65.0,80.0
129,66.7570761,66.88029026250001,67.0,71.0
130,66.97136160000001,67.3981468875,69.0,77.0
131,67.39993260000001,67.61243238750001,67.0,66.0
132,67.6142181,67.88832496875001,69.0,74.0
133,68.04278910000001,68.16600326250001,72.0,76.0
134,68.25707460000001,68.57850285,72.0,77.0
135,68.68564560000002,69.96957288750001,69.0,78.0
136,69.9713586,70.18385838750001,65.0,81.0
137,70.1856441,70.39814388750001,67.0,76.0
138,70.39992960000001,70.54546516875001,69.0,78.0
139,70.61421510000001,70.80528633750001,62.0,78.0
140,70.82850060000001,70.94278620000001,69.0,78.0
141,71.04278610000001,71.32939295625,69.0,76.0
142,71.4713571,71.59099983750001,69.0,80.0
143,71.68564260000001,71.80885676250001,69.0,76.0
144,71.89992810000001,72.03117796875001,69.0,78.0
145,72.11421360000001,72.23832061875001,67.0,70.0
146,72.32849910000002,72.45974896875,69.0,77.0
147,72.5427846,72.70885586250002,72.0,75.0
148,72.7570701,72.86867713125001,69.0,77.0
149,72.97135560000001,73.27849815,67.0,76.0
150,73.39992660000001,73.61242638750001,64.0,68.0
151,73.6142121,73.82671188750001,65.0,70.0
152,73.8284976,73.96331889375001,67.0,76.0
153,74.04278310000001,74.16689011875,60.0,76.0
154,74.25706860000001,74.37671133750001,67.0,69.0
155,74.47135410000001,74.71599671250002,67.0,76.0
156,74.8999251,75.0302821125,67.0,77.0
157,75.1142106,75.21688906875,67.0,72.0
158,75.32849610000001,75.41867458125002,67.0,76.0
159,75.54278160000001,75.660638625,67.0,76.0
160,75.75706710000001,75.87670983750002,69.0,76.0
161,75.9713526,76.10260246875,72.0,77.0
162,76.1856381,76.29456656250001,69.0,76.0
163,76.39992360000001,76.71331614375,65.0,77.0
164,76.82849460000001,76.96242303750002,65.0,77.0
165,77.04278010000002,77.16063712500001,67.0,71.0
166,77.2570656,77.80349362500002,69.0,77.0
167,77.89992210000001,78.36599306250001,72.0,71.0
168,78.5427786,78.88563540000001,69.0,77.0
169,78.97134960000001,79.55974186875001,65.0,79.0
170,79.6142061,80.09366990625001,62.0,71.0
171,80.25706260000001,80.38116961875001,65.0,80.0
172,80.47134810000001,80.5945622625,67.0,71.0
173,80.68563360000002,81.11241888750001,69.0,77.0
174,81.32849010000001,81.86509670625001,72.0,74.0
175,81.9713466,82.37223905625001,72.0,79.0
176,82.39991760000001,83.03027411250001,67.0,72.0
177,83.04277410000002,83.6427735,69.0,76.0
178,83.68563060000001,84.12223730625001,67.0,76.0
179,84.11420160000002,86.15973526875001,65.0,77.0
180,96.97133160000001,97.37490262500002,65.0,83.0
181,97.39990260000002,97.84900929375002,67.0,77.0
182,97.82847360000001,98.56150858125001,65.0,82.0
183,98.68561560000002,99.09990090000001,67.0,77.0
184,99.11418660000001,99.53561475000001,69.0,80.0
185,99.54275760000002,99.96507860625002,72.0,76.0
186,99.9713286,100.45882811250002,69.0,77.0
187,100.39989960000001,100.78918492500001,67.0,80.0
188,100.82847060000002,101.26597016250001,69.0,82.0
189,101.25704160000001,101.81150533125002,67.0,77.0
190,101.89989810000002,102.47400466875001,65.0,78.0
191,102.54275460000001,102.88114711875001,69.0,78.0
192,102.97132560000001,103.33918237500001,72.0,77.0
193,103.39989660000002,103.79721763125,69.0,79.0
194,103.82846760000001,104.24007433125001,67.0,77.0
195,104.25703860000002,104.64543106875001,69.0,80.0
196,104.68560960000002,105.28650185625001,67.0,76.0
197,105.32846610000001,105.89542981875002,65.0,77.0
198,105.97132260000001,106.36685791875001,62.0,79.0
199,106.39989360000001,106.71507185625002,60.0,80.0
200,106.72132185000001,106.82667888750001,62.0,71.0
201,106.82846460000002,107.01417870000002,65.0,78.0
202,107.04275010000002,107.30882126250002,62.0,77.0
203,107.25703560000001,107.59989240000002,65.0,78.0
204,107.68560660000001,108.06060622500002,69.0,76.0
205,108.11417760000002,108.76328409375002,67.0,77.0
206,108.75703410000001,108.96506960625001,69.0,77.0
207,108.97131960000002,109.38649775625001,67.0,77.0
208,109.39989060000002,109.82935445625002,65.0,76.0
209,109.82846160000001,110.63917507500001,67.0,76.0
210,110.68560360000001,110.99721043125001,65.0,79.0
211,111.11417460000001,111.50613849375002,67.0,69.0
212,111.54274560000002,112.15881641250002,65.0,82.0
213,112.39988760000001,112.69185159375002,67.0,72.0
214,112.82845860000002,113.17220825625002,69.0,77.0
215,113.25702960000001,113.62577923125002,72.0,78.0
216,113.68560060000001,114.10702875000001,69.0,77.0
217,114.11417160000002,114.57042114375001,67.0,76.0
218,114.54274260000001,114.96327789375002,69.0,76.0
219,114.97131360000002,115.56149158125001,67.0,76.0
220,115.61417010000001,116.12131245000002,65.0,77.0
221,116.25702660000002,116.58470484375002,69.0,77.0
222,116.68559760000001,117.03916867500001,72.0,79.0
223,117.11416860000001,117.52131105000001,69.0,78.0
224,117.54273960000002,117.94809633750002,67.0,70.0
225,117.97131060000001,118.41863158125001,69.0,77.0
226,118.39988160000001,118.99720243125002,67.0,72.0
227,119.04273810000002,119.63559465000002,65.0,73.0
228,119.68559460000002,120.09095133750002,62.0,77.0
229,120.11416560000002,120.40523673750002,60.0,78.0
230,120.43559385000002,120.57755799375002,62.0,69.0
231,120.54273660000001,120.74987925000002,65.0,76.0
232,120.75702210000001,120.95612904375001,62.0,77.0
233,120.97130760000002,121.33023581250002,65.0,77.0
234,121.39987860000002,121.77934250625002,69.0,78.0
235,121.82844960000001,122.47309181250002,67.0,72.0
236,122.47130610000002,122.70523443750001,69.0,77.0
237,122.68559160000001,123.13291258125001,67.0,77.0
238,123.32844810000002,123.54094788750001,65.0,77.0
239,123.54273360000002,124.78023236250002,65.0,78.0
240,124.82844660000002,125.13291058125002,62.0,78.0
241,125.25701760000001,125.42933885625001,67.0,72.0
242,125.47130310000001,125.62219580625002,69.0,77.0
243,125.68558860000002,125.80076705625001,67.0,75.0
244,125.89987410000002,126.02487397500002,65.0,77.0
245,126.11415960000002,126.52665918750002,62.0,82.0
246,126.75701610000002,127.15790855625002,67.0,76.0
247,127.18558710000002,127.33112266875001,69.0,78.0
248,127.39987260000002,127.52933675625002,67.0,79.0
249,127.61415810000001,127.78022936250002,65.0,76.0
250,127.82844360000001,128.14719328125003,62.0,82.0
251,128.25701460000002,128.40076445625002,60.0,85.0
252,128.4713001,128.57844285000002,62.0,72.0
253,128.68558560000002,129.03826381875,60.0,77.0
254,129.11415660000003,129.46415625000003,62.0,76.0
255,129.5427276,129.89272725,65.0,77.0
256,129.9712986,130.3480839375,67.0,76.0
257,130.39986960000002,130.64540506875002,69.0,77.0
258,130.6141551,130.79094063750003,72.0,80.0
259,130.82844060000002,131.02129755,69.0,77.0
260,131.0427261,131.68379688750002,69.0,78.0
261,132.1141536,132.25701060000003,67.0,76.0
262,132.32843910000003,132.47843895000003,69.0,75.0
263,132.5427246,132.73379583750003,67.0,77.0
264,132.75701010000003,132.88825996875002,65.0,76.0
265,132.97129560000002,133.49986650000002,62.0,77.0
266,133.6141521,133.97308031250003,67.0,77.0
267,134.04272310000002,134.16683011875003,69.0,78.0
268,134.2570086,134.37218705625003,67.0,76.0
269,134.47129410000002,134.61682966875003,65.0,82.0
270,134.6855796,135.03290068125003,62.0,78.0
271,135.11415060000002,135.3909360375,67.0,64.0
272,135.54272160000002,137.09897004375003,69.0,78.0
273,137.2570056,137.98021916250002,65.0,81.0
274,138.11414760000002,138.84896829375,67.0,76.0
275,138.9712896,139.11682516875,69.0,78.0
276,139.18557510000002,139.3766463375,62.0,78.0
277,139.3998606,139.51414620000003,69.0,78.0
278,139.61414610000003,139.90075295625002,69.0,76.0
279,140.0427171,140.16235983750002,69.0,80.0
280,140.25700260000002,140.38021676250003,69.0,76.0
281,140.4712881,140.60253796875003,69.0,78.0
282,140.68557360000003,140.80968061875,67.0,70.0
283,140.89985910000001,141.03110896875,69.0,77.0
284,141.11414460000003,141.28021586250003,72.0,75.0
285,141.32843010000002,141.44003713125002,69.0,77.0
286,141.5427156,141.84985815000002,67.0,76.0
287,141.9712866,142.18378638750002,64.0,68.0
288,142.18557210000003,142.3980718875,65.0,70.0
289,142.39985760000002,142.53467889375003,67.0,76.0
290,142.6141431,142.73825011875002,60.0,76.0
291,142.82842860000002,142.9480713375,67.0,69.0
292,143.0427141,143.2873567125,67.0,76.0
293,143.47128510000002,143.60164211250003,67.0,77.0
294,143.6855706,143.78824906875002,67.0,72.0
295,143.89985610000002,143.99003458125003,67.0,76.0
296,144.1141416,144.23199862500002,67.0,76.0
297,144.32842710000003,144.44806983750001,69.0,76.0
298,144.54271260000002,144.67396246875,72.0,77.0
299,144.75699810000003,144.86592656250002,69.0,76.0
300,144.97128360000002,145.28467614375,65.0,77.0
301,145.39985460000003,145.53378303750003,65.0,77.0
302,145.61414010000001,145.73199712500002,67.0,71.0
303,145.82842560000003,146.37485362500001,69.0,77.0
304,146.47128210000002,146.93735306250002,72.0,71.0
305,147.11413860000002,147.4569954,69.0,77.0
306,147.54270960000002,148.13110186875002,65.0,79.0
307,148.18556610000002,148.66502990625003,62.0,71.0
308,148.8284226,148.95252961875002,65.0,80.0
309,149.04270810000003,149.16592226250003,67.0,71.0
310,149.25699360000002,149.6837788875,69.0,77.0
311,149.68556460000002,149.89806438750003,67.0,66.0
312,149.8998501,150.17395696875002,69.0,74.0
313,150.3284211,150.45163526250002,72.0,76.0
314,150.54270660000003,150.86413485000003,72.0,77.0
315,150.9712776,152.2552048875,69.0,78.0
316,152.25699060000002,152.46949038750003,65.0,81.0
317,152.4712761,152.68377588750002,67.0,76.0
318,152.68556160000003,152.83109716875003,69.0,78.0
319,152.89984710000002,153.09091833750003,62.0,78.0
320,153.11413260000003,153.22841820000002,69.0,78.0
321,153.32841810000002,153.61502495625,69.0,76.0
322,153.75698910000003,153.8766318375,69.0,80.0
323,153.97127460000002,154.09448876250002,69.0,76.0
324,154.18556010000003,154.31680996875002,69.0,78.0
325,154.39984560000002,154.52395261875003,67.0,70.0
326,154.6141311,154.74538096875003,69.0,77.0
327,154.82841660000003,154.99448786250002,72.0,75.0
328,155.0427021,155.15430913125002,69.0,77.0
329,155.25698760000003,155.56413015,67.0,76.0
330,155.6855586,155.89805838750001,64.0,68.0
331,155.89984410000002,156.11234388750003,65.0,70.0
332,156.1141296,156.24895089375002,67.0,76.0
333,156.32841510000003,156.45252211875,60.0,76.0
334,156.54270060000002,156.66234333750003,67.0,69.0
335,156.75698610000003,157.0016287125,67.0,76.0
336,157.1855571,157.31591411250002,67.0,77.0
337,157.39984260000003,157.50252106875,67.0,72.0
338,157.61412810000002,157.70430658125002,67.0,76.0
339,157.82841360000003,157.946270625,67.0,76.0
340,158.04269910000002,158.1623418375,69.0,76.0
341,158.2569846,158.38823446875003,72.0,77.0
342,158.47127010000003,158.58019856250002,69.0,76.0
343,158.68555560000001,158.99894814375003,65.0,77.0
344,159.11412660000002,159.24805503750002,65.0,77.0
345,159.3284121,159.44626912500001,67.0,71.0
346,159.54269760000003,160.089125625,69.0,77.0
347,160.18555410000002,160.65162506250002,72.0,71.0
348,160.8284106,161.17126740000003,69.0,77.0
349,161.25698160000002,161.84537386875002,65.0,79.0
350,161.8998381,162.37930190625002,62.0,71.0
351,162.54269460000003,162.66680161875001,65.0,80.0
352,162.75698010000002,162.88019426250003,67.0,71.0
353,162.9712656,163.39805088750003,69.0,77.0
354,163.61412210000003,164.15072870625002,72.0,74.0
355,164.25697860000002,164.65787105625003,72.0,79.0
356,164.68554960000003,165.31590611250002,67.0,72.0
357,165.32840610000002,165.92840550000003,69.0,76.0
358,165.97126260000002,166.40786930625003,67.0,76.0
359,166.39983360000002,168.44536726875003,65.0,77.0
360,179.6855346,179.82035589375002,62.0,77.0
361,179.89982010000003,180.02035569375002,65.0,76.0
362,180.11410560000002,180.42392671875,67.0,74.0
363,180.54267660000002,180.85964056875002,69.0,76.0
364,180.97124760000003,181.28017586250002,62.0,78.0
365,181.39981860000003,181.52303276250004,62.0,79.0
366,181.61410410000002,181.73196112500003,65.0,72.0
367,181.82838960000004,181.94624662500001,67.0,72.0
368,182.04267510000003,182.1623178375,69.0,75.0
369,182.2569606,182.38106761875002,72.0,71.0
370,182.47124610000003,182.59088883750002,69.0,76.0
371,182.68553160000002,182.95338847500003,67.0,73.0
372,183.11410260000002,183.27392386875002,60.0,78.0
373,183.3283881,183.45249511875002,65.0,77.0
374,183.54267360000003,183.84803043750003,67.0,78.0
375,183.97124460000003,184.30874426250003,69.0,76.0
376,184.3998156,184.71052957500004,60.0,80.0
377,184.82838660000002,184.95427933125004,60.0,80.0
378,185.04267210000003,185.1551719875,65.0,76.0
379,185.25695760000002,185.37660033750004,67.0,71.0
380,185.47124310000004,185.58552870000003,69.0,69.0
381,185.68552860000003,185.80338562500003,72.0,74.0
382,185.89981410000001,186.02034969375003,69.0,68.0
383,186.11409960000003,186.40249216875003,65.0,73.0
384,186.75695610000002,186.89445596250002,65.0,78.0
385,186.9712416,187.29356270625001,67.0,71.0
386,187.39981260000002,187.74981225000002,69.0,77.0
387,187.82838360000002,188.12481187500003,62.0,78.0
388,188.25695460000003,188.37659733750002,62.0,77.0
389,188.47124010000002,188.58820426875002,65.0,78.0
390,188.68552560000003,188.7980254875,67.0,72.0
391,188.89981110000002,189.02034669375,69.0,73.0
392,189.1140966,189.22213220625002,72.0,76.0
393,189.32838210000003,189.43641770625,69.0,71.0
394,189.54266760000002,189.86409585,67.0,71.0
395,189.97123860000002,190.10605989375003,65.0,77.0
396,190.18552410000004,190.31588111250002,67.0,72.0
397,190.39980960000003,190.74713068125,69.0,77.0
398,190.82838060000003,190.96766617500003,67.0,76.0
399,191.04266610000002,191.61498695625002,69.0,77.0
400,191.6855226,192.01855798125,72.0,76.0
401,192.11409360000002,192.5408788875,69.0,78.0
402,192.11409360000002,192.83730716250003,65.0,81.0
403,192.97123560000003,193.70605629375004,67.0,76.0
404,193.82837760000004,193.97391316875002,69.0,78.0
405,194.04266310000003,194.23373433750004,62.0,78.0
406,194.25694860000002,194.37123420000003,69.0,78.0
407,194.47123410000003,194.75784095625002,69.0,76.0
408,194.89980510000004,195.01944783750002,69.0,80.0
409,195.11409060000003,195.23730476250003,69.0,76.0
410,195.3283761,195.45962596875003,69.0,78.0
411,195.54266160000003,195.66676861875,67.0,70.0
412,195.75694710000002,195.88819696875004,69.0,77.0
413,195.97123260000004,196.13730386250003,72.0,75.0
414,196.18551810000002,196.29712513125003,69.0,77.0
415,196.3998036,196.70694615000002,67.0,76.0
416,196.82837460000002,197.04087438750003,64.0,68.0
417,197.04266010000003,197.2551598875,65.0,70.0
418,197.25694560000002,197.39176689375003,67.0,76.0
419,197.47123110000004,197.59533811875002,60.0,76.0
420,197.68551660000003,197.80515933750002,67.0,69.0
421,197.89980210000002,198.14444471250002,67.0,76.0
422,198.32837310000002,198.45873011250004,67.0,77.0
423,198.54265860000004,198.64533706875002,67.0,72.0
424,198.75694410000003,198.84712258125003,67.0,76.0
425,198.97122960000002,199.08908662500002,67.0,76.0
426,199.18551510000003,199.30515783750002,69.0,76.0
427,199.39980060000002,199.53105046875004,72.0,77.0
428,199.61408610000004,199.72301456250003,69.0,76.0
429,199.82837160000003,200.14176414375004,65.0,77.0
430,200.25694260000003,200.39087103750003,65.0,77.0
431,200.47122810000002,200.58908512500003,67.0,71.0
432,200.68551360000004,201.23194162500002,69.0,77.0
433,201.32837010000003,201.79444106250003,72.0,71.0
434,201.97122660000002,202.31408340000002,69.0,77.0
435,202.39979760000003,202.98818986875003,65.0,79.0
436,203.04265410000002,203.52211790625003,62.0,71.0
437,203.68551060000001,203.80961761875002,65.0,80.0
438,203.89979610000003,204.02301026250004,67.0,71.0
439,204.11408160000002,204.54086688750002,69.0,77.0
440,204.54265260000003,204.75515238750003,67.0,66.0
441,204.7569381,205.03104496875002,69.0,74.0
442,205.18550910000002,205.30872326250002,72.0,76.0
443,205.39979460000004,205.72122285000003,72.0,77.0
444,205.82836560000004,207.11229288750002,69.0,78.0
445,207.11407860000003,207.32657838750004,65.0,81.0
446,207.32836410000002,207.54086388750002,67.0,76.0
447,207.54264960000003,207.68818516875004,69.0,78.0
448,207.75693510000002,207.94800633750003,62.0,78.0
449,207.97122060000004,208.08550620000003,69.0,78.0
450,208.18550610000003,208.47211295625002,69.0,76.0
451,208.61407710000003,208.73371983750002,69.0,80.0
452,208.82836260000002,208.95157676250003,69.0,76.0
453,209.04264810000004,209.17389796875003,69.0,78.0
454,209.25693360000002,209.38104061875003,67.0,70.0
455,209.4712191,209.60246896875003,69.0,77.0
456,209.68550460000003,209.85157586250003,72.0,75.0
457,209.89979010000002,210.01139713125002,69.0,77.0
458,210.11407560000004,210.42121815000002,67.0,76.0
459,210.54264660000004,210.75514638750002,64.0,68.0
460,210.75693210000003,210.96943188750004,65.0,70.0
461,210.97121760000002,211.10603889375002,67.0,76.0
462,211.18550310000003,211.30961011875002,60.0,76.0
463,211.39978860000002,211.51943133750004,67.0,69.0
464,211.61407410000004,211.85871671250004,67.0,76.0
465,212.04264510000002,212.17300211250003,67.0,77.0
466,212.25693060000003,212.35960906875002,67.0,72.0
467,212.47121610000002,212.56139458125003,67.0,76.0
468,212.68550160000004,212.80335862500002,67.0,76.0
469,212.89978710000003,213.01942983750004,69.0,76.0
470,213.11407260000001,213.24532246875003,72.0,77.0
471,213.32835810000003,213.43728656250002,69.0,76.0
472,213.54264360000002,213.85603614375003,65.0,77.0
473,213.97121460000002,214.10514303750003,65.0,77.0
474,214.18550010000004,214.30335712500002,67.0,71.0
475,214.39978560000003,214.94621362500004,69.0,77.0
476,215.04264210000002,215.50871306250002,72.0,71.0
477,215.68549860000002,216.02835540000004,69.0,77.0
478,216.11406960000002,216.70246186875002,65.0,79.0
479,216.75692610000002,217.23638990625003,62.0,71.0
480,217.39978260000004,217.52388961875002,65.0,80.0
481,217.61406810000003,217.73728226250003,67.0,71.0
482,217.82835360000004,218.25513888750004,69.0,77.0
483,218.47121010000004,219.00781670625003,72.0,74.0
484,219.11406660000003,219.51495905625004,72.0,79.0
485,219.54263760000003,220.17299411250002,67.0,72.0
486,220.18549410000003,220.78549350000003,69.0,76.0
487,220.82835060000002,221.26495730625004,67.0,76.0
488,221.25692160000003,223.30245526875004,65.0,77.0
