,start,end,pitch,velocity
0,2.0428551,2.3821404750000004,57.0,76.0
1,2.2571406000000005,2.4678546750000003,62.0,74.0
2,2.4714261000000004,2.9169613687500004,65.0,80.0
3,1.8285696000000002,2.9553541875000002,50.0,83.0
4,2.8999971,3.1339254375000003,62.0,77.0
5,3.1142826000000006,3.3999966000000006,57.0,76.0
6,3.3285681000000005,3.8589247125000004,62.0,76.0
7,3.9714246000000006,4.101781612500001,58.0,76.0
8,4.1857101000000005,4.493745506250001,58.0,67.0
9,4.1857101000000005,4.519638337500001,65.0,76.0
10,3.7571391000000003,4.783030931250001,53.0,62.0
11,3.5428536000000004,4.8053523375000005,46.0,83.0
12,4.6142811,4.867852275000001,62.0,76.0
13,4.8285666,4.92767364375,58.0,76.0
14,5.257137600000001,5.399101743750001,55.0,72.0
15,5.257137600000001,5.500887356250001,60.0,76.0
16,5.471423100000001,5.732137125,55.0,76.0
17,5.685708600000001,5.8053513375,60.0,67.0
18,5.899994100000001,6.182136675000001,55.0,73.0
19,5.899994100000001,6.2732080125000005,64.0,76.0
20,5.257137600000001,6.417850725000001,48.0,78.0
21,6.3285651000000005,6.5553505875,60.0,78.0
22,6.542850600000001,6.685707600000001,55.0,73.0
23,6.971421600000001,7.201778512500001,57.0,69.0
24,6.971421600000001,7.449992550000001,60.0,73.0
25,7.399992600000001,7.733920837500001,57.0,71.0
26,7.614278100000001,8.066063362500001,65.0,77.0
27,7.185707100000001,8.070527643750001,48.0,64.0
28,6.971421600000001,8.12945615625,41.0,77.0
29,8.042849100000002,8.245527468750002,60.0,80.0
30,8.2571346,8.416955868750001,57.0,76.0
31,8.899991100000001,9.1285623,58.0,70.0
32,9.114276600000002,9.347312081250001,62.0,74.0
33,9.328562100000001,9.80981161875,58.0,78.0
34,8.6857056,10.034811393750001,50.0,81.0
35,9.7571331,10.194632662500002,65.0,76.0
36,9.971418600000002,10.335703950000001,58.0,74.0
37,10.614275100000002,10.905346237500002,55.0,76.0
38,10.828560600000001,11.037488962500001,60.0,77.0
39,11.042846100000002,11.403560025,64.0,81.0
40,11.471417100000002,11.720523993750001,60.0,79.0
41,10.399989600000001,11.766952518750001,48.0,85.0
42,11.6857026,12.116059312500001,55.0,78.0
43,12.542844600000002,12.838380018750001,58.0,66.0
44,12.757130100000001,13.204451081250001,62.0,77.0
45,12.114273600000002,13.288379568750003,46.0,75.0
46,12.328559100000001,13.296415275000001,53.0,62.0
47,13.185701100000001,13.445522268750002,58.0,78.0
48,13.399986600000002,13.571415000000002,62.0,76.0
49,13.828557600000002,13.972307456250002,55.0,74.0
50,13.828557600000002,14.101771612500002,60.0,76.0
51,14.042843100000002,14.313378543750002,55.0,76.0
52,14.257128600000001,14.365164206250002,60.0,70.0
53,14.471414100000002,15.471413100000001,55.0,76.0
54,14.471414100000002,15.488377368750003,64.0,76.0
55,13.828557600000002,15.514270200000002,48.0,80.0
56,15.542841600000003,16.09016248125,60.0,69.0
57,16.185698100000003,16.26159088125,60.0,56.0
58,15.971412600000003,16.278555150000003,53.0,77.0
59,15.757127100000002,16.665161906250002,48.0,56.0
60,15.542841600000003,16.680340462500002,41.0,77.0
61,16.185698100000003,16.71337614375,65.0,78.0
62,16.6142691,16.870518843750002,60.0,78.0
63,16.828554600000004,16.937483062500004,53.0,79.0
64,17.257125600000002,17.5053396375,60.0,76.0
65,17.4714111,17.757125100000003,55.0,78.0
66,17.685696600000004,17.8142679,60.0,72.0
67,17.899982100000003,18.201767512500002,55.0,77.0
68,17.899982100000003,18.25444603125,64.0,77.0
69,17.257125600000002,18.452660118750003,48.0,78.0
70,18.328553100000004,18.5571243,60.0,81.0
71,18.542838600000003,18.657124200000002,55.0,80.0
72,18.9714096,19.129445156250004,57.0,73.0
73,18.9714096,19.227659343750002,62.0,77.0
74,19.185695100000004,19.477659093750002,57.0,71.0
75,19.399980600000003,19.582123275000004,62.0,67.0
76,18.9714096,20.0285514,50.0,81.0
77,19.614266100000002,20.04372995625,65.0,76.0
78,20.042837100000003,20.240158331250004,62.0,76.0
79,20.257122600000002,20.54908659375,57.0,76.0
80,20.4714081,20.631229368750002,62.0,69.0
81,20.685693600000004,20.919621937500004,60.0,78.0
82,20.899979100000003,21.187478812500004,55.0,76.0
83,21.114264600000002,21.249085893750003,60.0,74.0
84,21.3285501,21.707121150000003,64.0,79.0
85,20.685693600000004,21.774085368750004,48.0,76.0
86,21.757121100000003,21.949978050000002,60.0,78.0
87,21.9714066,22.099977900000003,55.0,79.0
88,22.399977600000003,22.557120300000005,58.0,64.0
89,22.399977600000003,22.889262825000003,62.0,72.0
90,22.8285486,23.120512593750004,58.0,77.0
91,23.042834100000004,23.510690775000004,65.0,76.0
92,22.399977600000003,23.730333412500002,46.0,74.0
93,23.471405100000002,23.74551196875,62.0,71.0
94,22.614263100000002,23.80801190625,53.0,58.0
95,23.685690600000004,23.809797618750004,58.0,76.0
96,24.114261600000003,24.344618512500002,57.0,65.0
97,24.114261600000003,24.554439731250003,60.0,70.0
98,24.542832600000004,24.741046687500003,57.0,75.0
99,24.757118100000003,25.155331987500002,64.0,78.0
100,24.114261600000003,25.366046062500004,45.0,77.0
101,24.3285471,25.36693891875,52.0,66.0
102,25.185689100000005,25.399081743750003,60.0,79.0
103,25.399974600000004,25.655331487500003,57.0,77.0
104,25.614260100000003,25.727652843750004,60.0,73.0
105,26.257116600000003,26.583009131250005,58.0,76.0
106,26.471402100000002,26.724973275000004,62.0,76.0
107,26.042831100000004,27.029437256250002,53.0,67.0
108,26.899973100000004,27.031222968750004,58.0,68.0
109,25.8285456,27.043722956250004,46.0,83.0
110,26.899973100000004,27.177651393750004,62.0,72.0
111,26.899973100000004,27.211579931250004,65.0,75.0
112,27.114258600000003,27.264258450000003,58.0,70.0
113,27.542829600000005,27.708008006250004,55.0,71.0
114,27.542829600000005,27.811579331250005,60.0,72.0
115,27.757115100000004,28.013364843750004,55.0,68.0
116,27.971400600000003,28.168721831250004,60.0,71.0
117,28.185686100000005,28.570507143750003,64.0,83.0
118,28.614257100000003,28.799971200000005,60.0,77.0
119,27.542829600000005,28.803542625000002,48.0,66.0
120,28.828542600000002,28.920506793750004,55.0,79.0
121,29.257113600000004,29.480327662500002,53.0,71.0
122,29.257113600000004,29.746398825000004,57.0,70.0
123,29.685684600000005,29.887470112500004,60.0,77.0
124,29.899970100000004,30.346398225000005,65.0,78.0
125,29.471399100000003,30.551755162500005,48.0,69.0
126,29.257113600000004,30.552648018750006,41.0,77.0
127,30.328541100000002,30.563362293750004,60.0,77.0
128,30.542826600000005,30.657112200000004,53.0,78.0
129,30.971397600000003,31.075861781250005,55.0,72.0
130,30.971397600000003,31.230325912500003,60.0,76.0
131,31.185683100000006,31.465147106250004,55.0,76.0
132,31.399968600000005,31.598182687500003,60.0,76.0
133,31.614254100000004,32.02853940000001,64.0,85.0
134,32.0428251,32.233896337500006,60.0,79.0
135,32.257110600000004,32.522288906250004,55.0,77.0
136,30.971397600000003,32.54371745625001,48.0,80.0
137,32.47139610000001,32.637467362500004,60.0,78.0
138,32.6856816,32.88835996875,62.0,77.0
139,32.899967100000005,33.16871683125,57.0,75.0
140,33.11425260000001,33.3713952,62.0,74.0
141,33.3285381,33.782109075,65.0,77.0
142,33.7571091,34.04193024375,62.0,77.0
143,33.9713946,34.150858706250006,57.0,72.0
144,32.6856816,34.16157298125,50.0,83.0
145,34.3999656,34.5196083375,55.0,70.0
146,34.3999656,34.6571082,60.0,75.0
147,34.614251100000004,34.93835791875001,55.0,76.0
148,34.82853660000001,35.047286381250004,60.0,76.0
149,35.0428221,35.49639307500001,64.0,78.0
150,35.47139310000001,35.703535725,60.0,80.0
151,34.3999656,35.8338927375,48.0,80.0
152,35.6856786,35.949964050000005,55.0,77.0
153,35.899964100000005,36.123178162500004,60.0,77.0
154,36.11424960000001,36.57407056875,62.0,73.0
155,36.542820600000006,36.86692741875,59.0,76.0
156,36.7571061,37.196391375000005,65.0,76.0
157,37.18567710000001,37.428534000000006,62.0,81.0
158,36.3285351,37.449069693750005,53.0,65.0
159,36.11424960000001,37.48299823125001,47.0,79.0
160,37.3999626,37.666926618750004,59.0,77.0
161,37.614248100000005,38.27139030000001,62.0,81.0
162,38.257104600000005,38.529425756250006,58.0,78.0
163,38.47139010000001,38.93656820625001,65.0,79.0
164,38.899961100000006,39.138353718750004,62.0,76.0
165,37.82853360000001,39.21424650000001,46.0,83.0
166,38.0428191,39.246389325,53.0,68.0
167,39.11424660000001,39.37496062500001,58.0,76.0
168,39.328532100000004,39.660674625000006,62.0,77.0
169,39.971388600000004,40.279424006250004,60.0,79.0
170,40.18567410000001,40.617816525,64.0,78.0
171,39.7571031,40.707102150000004,55.0,66.0
172,39.54281760000001,40.794602062500005,48.0,81.0
173,40.614245100000005,40.87585198125001,60.0,78.0
174,40.82853060000001,41.13567315,64.0,83.0
175,41.0428161,41.277637293750004,60.0,70.0
176,41.257101600000006,41.470494243750004,65.0,72.0
177,41.685672600000004,41.950850906250004,53.0,80.0
178,41.899958100000006,42.346386225,60.0,78.0
179,42.54281460000001,42.81513575625001,57.0,78.0
180,41.47138710000001,42.831207168750005,48.0,67.0
181,41.257101600000006,42.84192144375,41.0,77.0
182,42.328529100000004,42.84727858125,53.0,74.0
183,42.7571001,42.933885637500005,60.0,75.0
184,43.3999566,43.907098950000005,58.0,78.0
185,43.614242100000006,43.94906319375001,62.0,78.0
186,44.042813100000004,44.2981699875,65.0,78.0
187,44.257098600000006,44.50620549375001,62.0,81.0
188,42.971385600000005,44.53834831875,46.0,87.0
189,43.18567110000001,44.603526825,53.0,70.0
190,44.47138410000001,44.92495507500001,58.0,79.0
191,45.11424060000001,45.413347443750006,58.0,80.0
192,45.328526100000005,45.56691871875,62.0,78.0
193,45.7570971,45.899061243750005,58.0,78.0
194,44.89995510000001,45.90798980625001,53.0,72.0
195,44.685669600000004,45.916918368750004,46.0,83.0
196,45.7570971,46.039239675000005,65.0,77.0
197,45.7570971,46.049061093750005,62.0,78.0
198,46.3999536,46.52316776250001,55.0,73.0
199,46.3999536,46.64370335625001,60.0,74.0
200,46.614239100000006,46.827631743750004,55.0,75.0
201,46.82852460000001,46.94370305625001,60.0,71.0
202,47.042810100000004,47.334774093750006,55.0,76.0
203,47.042810100000004,47.349952650000006,64.0,78.0
204,47.47138110000001,47.657988056250005,60.0,85.0
205,47.685666600000005,47.85977356875001,55.0,79.0
206,46.3999536,47.94459491250001,48.0,82.0
207,47.89995210000001,48.516022912500006,60.0,83.0
208,48.54280860000001,48.73030841250001,57.0,77.0
209,48.7570941,48.843701156250006,57.0,59.0
210,48.7570941,49.129415156250005,60.0,97.0
211,49.18566510000001,49.47048624375001,64.0,81.0
212,48.11423760000001,49.5428076,45.0,77.0
213,48.328523100000005,49.567807575,52.0,64.0
214,49.399950600000004,49.70084315625001,57.0,77.0
215,49.61423610000001,49.84191444375001,60.0,76.0
216,49.82852160000001,50.109771318750006,58.0,76.0
217,49.82852160000001,50.31423540000001,62.0,76.0
218,50.25709260000001,50.39369960625001,58.0,81.0
219,50.47137810000001,50.788342068750005,58.0,70.0
220,50.47137810000001,50.803520625000004,65.0,76.0
221,50.89994910000001,51.14280600000001,62.0,77.0
222,50.042807100000005,51.36691291875,53.0,66.0
223,49.82852160000001,51.38030576250001,46.0,87.0
224,51.1142346,51.38477004375001,58.0,79.0
225,51.328520100000006,51.909769518750004,62.0,76.0
226,51.971376600000006,52.10619789375001,55.0,77.0
227,52.18566210000001,52.51601891250001,55.0,77.0
228,52.18566210000001,52.52673318750001,62.0,78.0
229,51.757091100000004,52.71334014375001,50.0,76.0
230,52.61423310000001,52.8481614375,55.0,85.0
231,51.54280560000001,53.052625518750006,43.0,80.0
232,52.61423310000001,53.067804075000005,62.0,76.0
233,52.82851860000001,53.105304037500005,50.0,78.0
234,53.042804100000005,53.15173256250001,55.0,82.0
235,53.25708960000001,53.632982081250006,64.0,81.0
236,53.685660600000006,53.798160487500006,57.0,80.0
237,53.47137510000001,54.006195993750005,52.0,69.0
238,53.89994610000001,54.19458866250001,57.0,82.0
239,53.89994610000001,54.19994580000001,64.0,81.0
240,54.114231600000004,54.39280275000001,52.0,77.0
241,54.328517100000006,54.486552656250005,57.0,72.0
242,54.328517100000006,54.632088225000004,69.0,71.0
243,53.25708960000001,54.772266656250004,45.0,77.0
244,54.54280260000001,54.824052318750006,52.0,76.0
245,54.328517100000006,54.849052293750006,64.0,78.0
246,54.757088100000004,54.89637367500001,57.0,78.0
247,54.97137360000001,55.75083710625001,57.0,73.0
248,54.97137360000001,55.762444237500006,64.0,78.0
249,55.82851560000001,56.130301012500006,57.0,79.0
250,55.82851560000001,56.350836506250005,69.0,74.0
251,56.25708660000001,56.52762204375001,57.0,81.0
252,55.82851560000001,56.563336293750005,64.0,79.0
253,54.97137360000001,56.60530053750001,45.0,80.0
254,56.89994310000001,57.16065712500001,57.0,71.0
255,57.114228600000004,57.28565700000001,62.0,77.0
256,57.32851410000001,57.599049543750006,65.0,83.0
257,56.685657600000006,57.884763543750005,50.0,102.0
258,57.757085100000005,57.932084925000005,62.0,82.0
259,57.97137060000001,58.240120331250004,57.0,80.0
260,58.18565610000001,58.77226265625001,62.0,77.0
261,58.82851260000001,58.952619618750006,58.0,75.0
262,58.61422710000001,59.150833706250005,53.0,72.0
263,59.042798100000006,59.307976406250006,65.0,78.0
264,59.042798100000006,59.328512100000005,58.0,80.0
265,58.399941600000005,59.52761904375001,46.0,90.0
266,59.25708360000001,59.53922617500001,53.0,71.0
267,59.47136910000001,59.60797610625001,58.0,72.0
268,59.47136910000001,59.75261881875001,62.0,77.0
269,59.68565460000001,59.83208302500001,58.0,80.0
270,60.114225600000005,60.22583263125001,55.0,73.0
271,60.114225600000005,60.35618964375001,60.0,76.0
272,60.32851110000001,60.59815368750001,55.0,76.0
273,60.54279660000001,60.64101078750001,60.0,75.0
274,60.114225600000005,60.95083190625001,48.0,83.0
275,60.757082100000005,61.02404611875001,55.0,77.0
276,60.757082100000005,61.047260381250005,64.0,80.0
277,61.18565310000001,61.39904574375001,60.0,83.0
278,61.399938600000006,61.65886691250001,55.0,78.0
279,61.61422410000001,61.81958103750001,60.0,80.0
280,62.25708060000001,62.39725903125001,53.0,78.0
281,62.042795100000006,62.61511595625001,48.0,68.0
282,62.47136610000001,62.753508675000006,60.0,76.0
283,62.47136610000001,62.76779437500001,53.0,76.0
284,62.89993710000001,62.93029421250001,53.0,63.0
285,62.68565160000001,62.99547271875001,48.0,76.0
286,61.82850960000001,63.09011548125001,41.0,78.0
287,62.89993710000001,63.17582968125001,57.0,78.0
288,62.89993710000001,63.21779392500001,60.0,75.0
289,63.114222600000005,63.40797230625001,53.0,82.0
290,63.32850810000001,63.53475789375001,60.0,78.0
291,63.97136460000001,64.14190014375001,58.0,66.0
292,64.1856501,64.52314976250001,62.0,77.0
293,64.1856501,64.54993545,58.0,71.0
294,63.757079100000006,64.70439958125,53.0,76.0
295,64.61422110000001,64.84725658125001,58.0,77.0
296,63.54279360000001,64.91154223125001,46.0,87.0
297,64.82850660000001,65.01422070000001,53.0,76.0
298,65.04279210000001,65.24457761250001,58.0,78.0
299,64.61422110000001,65.33832751875,65.0,77.0
300,65.68564860000001,65.80529133750001,60.0,80.0
301,65.4713631,65.97046974375,55.0,69.0
302,65.89993410000001,66.12225530625001,64.0,85.0
303,65.89993410000001,66.20707665,60.0,78.0
304,65.89993410000001,66.22225520625001,67.0,77.0
305,66.11421960000001,66.34189794375001,55.0,76.0
306,66.32850510000002,66.37046934375,60.0,70.0
307,65.2570776,66.382076475,48.0,85.0
308,66.32850510000002,66.55261201875001,64.0,80.0
309,66.5427906,66.64725478125001,60.0,82.0
310,66.97136160000001,67.11868288125001,58.0,69.0
311,66.97136160000001,67.367789775,62.0,75.0
312,67.39993260000001,67.50439678125001,58.0,79.0
313,67.18564710000001,67.7838607875,53.0,62.0
314,67.6142181,67.86689641875,58.0,76.0
315,67.6142181,67.90528923750001,65.0,77.0
316,66.97136160000001,68.1445747125,46.0,85.0
317,68.04278910000001,68.15796755625001,58.0,77.0
318,67.8285036,68.16064612500001,53.0,73.0
319,68.04278910000001,68.33296738125001,62.0,79.0
320,68.25707460000001,68.36600306250001,46.0,78.0
321,68.47136010000001,68.66332419375001,57.0,70.0
322,68.47136010000001,68.89814538750001,62.0,71.0
323,69.1142166,69.24725218125,55.0,85.0
324,68.8999311,69.4052877375,52.0,77.0
325,69.32850210000001,69.54278760000001,55.0,77.0
326,69.32850210000001,69.55885901250001,61.0,81.0
327,69.54278760000001,69.81243018750001,52.0,76.0
328,69.75707310000001,69.99993,57.0,72.0
329,69.75707310000001,70.07046564375001,61.0,79.0
330,69.75707310000001,70.27225115625001,64.0,79.0
331,68.68564560000002,70.28117971875001,45.0,78.0
332,70.1856441,70.28921542500001,61.0,54.0
333,69.9713586,70.35617964375001,52.0,77.0
334,70.1856441,70.37582248125001,57.0,82.0
335,70.61421510000001,70.87492912500001,57.0,71.0
336,70.82850060000001,70.99992900000001,62.0,77.0
337,71.04278610000001,71.31332154375,65.0,83.0
338,70.39992960000001,71.59903554375,50.0,102.0
339,71.4713571,71.646356925,62.0,82.0
340,71.68564260000001,71.95439233125,57.0,80.0
341,71.89992810000001,72.48653465625002,62.0,77.0
342,72.5427846,72.66689161875001,58.0,75.0
343,72.32849910000002,72.86510570625,53.0,72.0
344,72.7570701,73.02224840625001,65.0,78.0
345,72.7570701,73.0427841,58.0,80.0
346,72.11421360000001,73.24189104375002,46.0,90.0
347,72.97135560000001,73.253498175,53.0,71.0
348,73.18564110000001,73.32224810625002,58.0,72.0
349,73.18564110000001,73.46689081875002,62.0,77.0
350,73.39992660000001,73.54635502500001,58.0,80.0
351,73.8284976,73.94010463125001,55.0,73.0
352,73.8284976,74.07046164375001,60.0,76.0
353,74.04278310000001,74.31242568750001,55.0,76.0
354,74.25706860000001,74.35528278750002,60.0,75.0
355,73.8284976,74.66510390625001,48.0,83.0
356,74.47135410000001,74.73831811875002,55.0,77.0
357,74.47135410000001,74.76153238125,64.0,80.0
358,74.8999251,75.11331774375002,60.0,83.0
359,75.1142106,75.37313891250001,55.0,78.0
360,75.32849610000001,75.53385303750001,60.0,80.0
361,75.9713526,76.11153103125001,53.0,78.0
362,75.75706710000001,76.32938795625002,48.0,68.0
363,76.1856381,76.46778067500001,60.0,76.0
364,76.1856381,76.48206637500002,53.0,76.0
365,76.61420910000001,76.64456621250001,53.0,63.0
366,76.39992360000001,76.70974471875002,48.0,76.0
367,75.54278160000001,76.80438748125,41.0,78.0
368,76.61420910000001,76.89010168125002,57.0,78.0
369,76.61420910000001,76.932065925,60.0,75.0
370,76.82849460000001,77.12224430625001,53.0,82.0
371,77.04278010000002,77.24902989375,60.0,78.0
372,77.68563660000001,77.85617214375002,58.0,66.0
373,77.89992210000001,78.2374217625,62.0,77.0
374,77.89992210000001,78.26420745000001,58.0,71.0
375,77.4713511,78.41867158125001,53.0,76.0
376,78.32849310000002,78.56152858125002,58.0,77.0
377,77.2570656,78.62581423125,46.0,87.0
378,78.5427786,78.7284927,53.0,76.0
379,78.75706410000001,78.9588496125,58.0,78.0
380,78.32849310000002,79.05259951875001,65.0,77.0
381,79.39992060000002,79.51956333750002,60.0,80.0
382,79.18563510000001,79.68474174375001,55.0,69.0
383,79.6142061,79.83652730625,64.0,85.0
384,79.6142061,79.92134865000001,60.0,78.0
385,79.6142061,79.93652720625,67.0,77.0
386,79.8284916,80.05616994375,55.0,76.0
387,80.04277710000001,80.08474134375001,60.0,70.0
388,78.97134960000001,80.09634847500001,48.0,85.0
389,80.04277710000001,80.26688401875,64.0,80.0
390,80.25706260000001,80.36152678125,60.0,82.0
391,80.68563360000002,80.83295488125,58.0,69.0
392,80.68563360000002,81.08206177500001,62.0,75.0
393,81.11420460000001,81.21866878125002,58.0,79.0
394,80.8999191,81.49813278750001,53.0,62.0
395,81.32849010000001,81.58116841875001,58.0,76.0
396,81.32849010000001,81.61956123750001,65.0,77.0
397,80.68563360000002,81.85884671250001,46.0,85.0
398,81.75706110000002,81.87223955625001,58.0,77.0
399,81.54277560000001,81.87491812500001,53.0,73.0
400,81.75706110000002,82.04723938125001,62.0,79.0
401,81.9713466,82.08027506250001,46.0,78.0
402,82.1856321,82.37759619375001,57.0,70.0
403,82.1856321,82.61241738750002,62.0,71.0
404,82.61420310000001,82.93563135000001,55.0,76.0
405,82.82848860000001,82.95348847500001,60.0,78.0
406,83.04277410000002,83.40080945625002,55.0,76.0
407,83.04277410000002,83.44366655625001,64.0,77.0
408,83.47134510000001,83.68920202500001,60.0,85.0
409,82.39991760000001,83.89813038750002,48.0,92.0
410,83.68563060000001,84.0481302375,55.0,79.0
411,83.89991610000001,84.08830876875001,60.0,78.0
412,84.32848710000002,84.667772475,57.0,76.0
413,84.5427726,84.753486675,62.0,74.0
414,84.75705810000001,85.20259336875002,65.0,80.0
415,84.11420160000002,85.24098618750001,50.0,83.0
416,85.18562910000001,85.41955743750002,62.0,77.0
417,85.39991460000002,85.68562860000002,57.0,76.0
418,85.6142001,86.1445567125,62.0,76.0
419,86.25705660000001,86.38741361250001,58.0,76.0
420,86.47134210000002,86.77937750625001,58.0,67.0
421,86.47134210000002,86.8052703375,65.0,76.0
422,86.04277110000001,87.06866293125002,53.0,62.0
423,85.82848560000001,87.09098433750002,46.0,83.0
424,86.8999131,87.15348427500001,62.0,76.0
425,87.11419860000001,87.21330564375,58.0,76.0
426,87.54276960000001,87.68473374375002,55.0,72.0
427,87.54276960000001,87.78651935625001,60.0,76.0
428,87.75705510000002,88.01776912500002,55.0,76.0
429,87.9713406,88.0909833375,60.0,67.0
430,88.18562610000001,88.46776867500002,55.0,73.0
431,88.18562610000001,88.55884001250001,64.0,76.0
432,87.54276960000001,88.70348272500001,48.0,78.0
433,88.61419710000001,88.84098258750001,60.0,78.0
434,88.82848260000002,88.97133960000001,55.0,73.0
435,89.2570536,89.4874105125,57.0,69.0
436,89.2570536,89.73562455000001,60.0,73.0
437,89.68562460000001,90.01955283750002,57.0,71.0
438,89.89991010000001,90.35169536250001,65.0,77.0
439,89.47133910000001,90.35615964375002,48.0,64.0
440,89.2570536,90.41508815625001,41.0,77.0
441,90.3284811,90.53115946875,60.0,80.0
442,90.54276660000001,90.70258786875002,57.0,76.0
443,91.18562310000002,91.4141943,58.0,70.0
444,91.39990860000002,91.63294408125002,62.0,74.0
445,91.6141941,92.09544361875001,58.0,78.0
446,90.97133760000001,92.32044339375001,50.0,81.0
447,92.04276510000001,92.4802646625,65.0,76.0
448,92.25705060000001,92.62133595000002,58.0,74.0
449,92.89990710000001,93.19097823750002,55.0,76.0
450,93.11419260000001,93.32312096250001,60.0,77.0
451,93.32847810000001,93.68919202500001,64.0,81.0
452,93.75704910000002,94.00615599375001,60.0,79.0
453,92.68562160000002,94.05258451875001,48.0,85.0
454,93.9713346,94.4016913125,55.0,78.0
455,94.82847660000002,95.12401201875001,58.0,66.0
456,95.04276210000002,95.49008308125,62.0,77.0
457,94.39990560000001,95.57401156875001,46.0,75.0
458,94.61419110000001,95.58204727500001,53.0,62.0
459,95.47133310000001,95.73115426875002,58.0,78.0
460,95.68561860000001,95.85704700000001,62.0,76.0
461,96.11418960000002,96.25793945625001,55.0,74.0
462,96.11418960000002,96.38740361250001,60.0,76.0
463,96.3284751,96.59901054375001,55.0,76.0
464,96.54276060000001,96.65079620625,60.0,70.0
465,96.75704610000001,97.75704510000001,55.0,76.0
466,96.75704610000001,97.77400936875001,64.0,76.0
467,96.11418960000002,97.79990220000002,48.0,80.0
468,97.82847360000001,98.37579448125001,60.0,69.0
469,98.47133010000002,98.54722288125001,60.0,56.0
470,98.25704460000001,98.56418715000001,53.0,77.0
471,98.04275910000001,98.95079390625001,48.0,56.0
472,97.82847360000001,98.96597246250002,41.0,77.0
473,98.47133010000002,98.99900814375002,65.0,78.0
474,98.89990110000001,99.15615084375001,60.0,78.0
475,99.11418660000001,99.22311506250001,53.0,79.0
476,99.54275760000002,99.79097163750001,60.0,76.0
477,99.75704310000002,100.04275710000002,55.0,78.0
478,99.9713286,100.09989990000001,60.0,72.0
479,100.18561410000001,100.48739951250002,55.0,77.0
480,100.18561410000001,100.54007803125002,64.0,77.0
481,99.54275760000002,100.73829211875001,48.0,78.0
482,100.61418510000001,100.84275630000002,60.0,81.0
483,100.82847060000002,100.94275620000002,55.0,80.0
484,101.25704160000001,101.41507715625,57.0,73.0
485,101.25704160000001,101.51329134375001,62.0,77.0
486,101.47132710000001,101.76329109375001,57.0,71.0
487,101.68561260000001,101.86775527500001,62.0,67.0
488,101.25704160000001,102.31418340000002,50.0,81.0
489,101.89989810000002,102.32936195625001,65.0,76.0
490,102.3284691,102.52579033125001,62.0,76.0
491,102.54275460000001,102.83471859375001,57.0,76.0
492,102.75704010000001,102.91686136875002,62.0,69.0
493,102.97132560000001,103.20525393750002,60.0,78.0
494,103.18561110000002,103.47311081250001,55.0,76.0
495,103.39989660000002,103.53471789375001,60.0,74.0
496,103.61418210000001,103.99275315000001,64.0,79.0
497,102.97132560000001,104.05971736875001,48.0,76.0
498,104.04275310000001,104.23561005000002,60.0,78.0
499,104.25703860000002,104.38560990000002,55.0,79.0
500,104.68560960000002,104.84275230000001,58.0,64.0
501,104.68560960000002,105.17489482500001,62.0,72.0
502,105.11418060000001,105.40614459375001,58.0,77.0
503,105.32846610000001,105.79632277500001,65.0,76.0
504,104.68560960000002,106.01596541250001,46.0,74.0
505,105.75703710000002,106.03114396875002,62.0,71.0
506,104.89989510000001,106.09364390625001,53.0,58.0
507,105.97132260000001,106.09542961875002,58.0,76.0
508,106.39989360000001,106.63025051250001,57.0,65.0
509,106.39989360000001,106.84007173125002,60.0,70.0
510,106.82846460000002,107.02667868750001,57.0,75.0
511,107.04275010000002,107.44096398750001,64.0,78.0
512,106.39989360000001,107.65167806250001,45.0,77.0
513,106.61417910000002,107.65257091875002,52.0,66.0
514,107.47132110000001,107.68471374375001,60.0,79.0
515,107.68560660000001,107.94096348750001,57.0,77.0
516,107.89989210000002,108.01328484375001,60.0,73.0
517,108.54274860000001,108.86864113125002,58.0,76.0
518,108.75703410000001,109.01060527500002,62.0,76.0
519,108.32846310000001,109.31506925625001,53.0,67.0
520,109.18560510000002,109.31685496875001,58.0,68.0
521,108.11417760000002,109.32935495625001,46.0,83.0
522,109.18560510000002,109.46328339375002,62.0,72.0
523,109.18560510000002,109.49721193125002,65.0,75.0
524,109.39989060000002,109.54989045000002,58.0,70.0
525,109.82846160000001,109.99364000625002,55.0,71.0
526,109.82846160000001,110.09721133125001,60.0,72.0
527,110.04274710000001,110.29899684375002,55.0,68.0
528,110.25703260000002,110.45435383125002,60.0,71.0
529,110.47131810000002,110.85613914375001,64.0,83.0
530,110.89988910000001,111.08560320000001,60.0,77.0
531,109.82846160000001,111.08917462500001,48.0,66.0
532,111.11417460000001,111.20613879375001,55.0,79.0
533,111.54274560000002,111.76595966250001,53.0,71.0
534,111.54274560000002,112.03203082500002,57.0,70.0
535,111.97131660000001,112.17310211250002,60.0,77.0
536,112.18560210000001,112.63203022500001,65.0,78.0
537,111.75703110000002,112.83738716250001,48.0,69.0
538,111.54274560000002,112.83828001875001,41.0,77.0
539,112.61417310000002,112.84899429375001,60.0,77.0
540,112.82845860000002,112.94274420000002,53.0,78.0
541,113.25702960000001,113.36149378125002,55.0,72.0
542,113.25702960000001,113.51595791250001,60.0,76.0
543,113.47131510000001,113.75077910625002,55.0,76.0
544,113.68560060000001,113.88381468750002,60.0,76.0
545,113.89988610000002,114.31417140000002,64.0,85.0
546,114.32845710000001,114.51952833750002,60.0,79.0
547,114.54274260000001,114.80792090625002,55.0,77.0
548,113.25702960000001,114.82934945625001,48.0,80.0
549,114.75702810000001,114.92309936250001,60.0,78.0
550,114.97131360000002,115.17399196875002,62.0,77.0
551,115.18559910000002,115.45434883125002,57.0,75.0
552,115.39988460000002,115.65702720000002,62.0,74.0
553,115.61417010000001,116.06774107500001,65.0,77.0
554,116.04274110000001,116.32756224375001,62.0,77.0
555,116.25702660000002,116.43649070625001,57.0,72.0
556,114.97131360000002,116.44720498125001,50.0,83.0
557,116.68559760000001,116.80524033750001,55.0,70.0
558,116.68559760000001,116.94274020000002,60.0,75.0
559,116.89988310000001,117.22398991875002,55.0,76.0
560,117.11416860000001,117.33291838125001,60.0,76.0
561,117.32845410000002,117.78202507500002,64.0,78.0
562,117.75702510000002,117.98916772500002,60.0,80.0
563,116.68559760000001,118.11952473750002,48.0,80.0
564,117.97131060000001,118.23559605000001,55.0,77.0
565,118.18559610000001,118.40881016250002,60.0,77.0
566,118.39988160000001,118.85970256875001,62.0,73.0
567,118.82845260000002,119.15255941875002,59.0,76.0
568,119.04273810000002,119.48202337500001,65.0,76.0
569,119.47130910000001,119.71416600000002,62.0,81.0
570,118.61416710000002,119.73470169375001,53.0,65.0
571,118.39988160000001,119.76863023125001,47.0,79.0
572,119.68559460000002,119.95255861875002,59.0,77.0
573,119.89988010000002,120.55702230000001,62.0,81.0
574,120.54273660000001,120.81505775625001,58.0,78.0
575,120.75702210000001,121.22220020625002,65.0,79.0
576,121.18559310000002,121.42398571875002,62.0,76.0
577,120.11416560000002,121.49987850000002,46.0,83.0
578,120.32845110000001,121.53202132500002,53.0,68.0
579,121.39987860000002,121.66059262500002,58.0,76.0
580,121.61416410000001,121.94630662500002,62.0,77.0
581,122.25702060000002,122.56505600625002,60.0,79.0
582,122.47130610000002,122.90344852500002,64.0,78.0
583,122.04273510000002,122.99273415000002,55.0,66.0
584,121.82844960000001,123.08023406250001,48.0,81.0
585,122.89987710000001,123.16148398125002,60.0,78.0
586,123.11416260000001,123.42130515000001,64.0,83.0
587,123.32844810000002,123.56326929375001,60.0,70.0
588,123.54273360000002,123.75612624375002,65.0,72.0
589,123.97130460000001,124.23648290625002,53.0,80.0
590,124.18559010000001,124.63201822500001,60.0,78.0
591,124.82844660000002,125.10076775625002,57.0,78.0
592,123.75701910000002,125.11683916875002,48.0,67.0
593,123.54273360000002,125.12755344375002,41.0,77.0
594,124.61416110000002,125.13291058125002,53.0,74.0
595,125.04273210000002,125.21951763750002,60.0,75.0
596,125.68558860000002,126.19273095000001,58.0,78.0
597,125.89987410000002,126.23469519375001,62.0,78.0
598,126.32844510000001,126.58380198750001,65.0,78.0
599,126.54273060000001,126.79183749375002,62.0,81.0
600,125.25701760000001,126.82398031875002,46.0,87.0
601,125.47130310000001,126.88915882500001,53.0,70.0
602,126.75701610000002,127.21058707500002,58.0,79.0
603,127.39987260000002,127.69897944375002,58.0,80.0
604,127.61415810000001,127.85255071875001,62.0,78.0
605,128.04272910000003,128.18469324375002,58.0,78.0
606,127.18558710000002,128.19362180625,53.0,72.0
607,126.97130160000002,128.20255036875002,46.0,83.0
608,128.04272910000003,128.32487167500003,65.0,77.0
609,128.04272910000003,128.33469309375002,62.0,78.0
610,128.68558560000002,128.80879976250003,55.0,73.0
611,128.68558560000002,128.92933535625002,60.0,74.0
612,128.8998711,129.11326374375003,55.0,75.0
613,129.11415660000003,129.22933505625002,60.0,71.0
614,129.32844210000002,129.62040609375,55.0,76.0
615,129.32844210000002,129.63558465000003,64.0,78.0
616,129.75701310000002,129.94362005625,60.0,85.0
617,129.9712986,130.14540556875002,55.0,79.0
618,128.68558560000002,130.23022691250003,48.0,82.0
619,130.18558410000003,130.80165491250003,60.0,83.0
620,130.82844060000002,131.01594041250002,57.0,77.0
621,131.0427261,131.12933315625003,57.0,59.0
622,131.0427261,131.41504715625,60.0,97.0
623,131.47129710000002,131.75611824375002,64.0,81.0
624,130.39986960000002,131.82843960000002,45.0,77.0
625,130.6141551,131.853439575,52.0,64.0
626,131.6855826,131.98647515625,57.0,77.0
627,131.89986810000002,132.12754644375002,60.0,76.0
628,132.1141536,132.39540331875003,58.0,76.0
629,132.1141536,132.59986740000002,62.0,76.0
630,132.5427246,132.67933160625003,58.0,81.0
631,132.75701010000003,133.07397406875,58.0,70.0
632,132.75701010000003,133.08915262500003,65.0,76.0
633,133.1855811,133.42843800000003,62.0,77.0
634,132.32843910000003,133.65254491875,53.0,66.0
635,132.1141536,133.66593776250002,46.0,87.0
636,133.39986660000002,133.67040204375002,58.0,79.0
637,133.6141521,134.19540151875003,62.0,76.0
638,134.2570086,134.39182989375,55.0,77.0
639,134.47129410000002,134.8016509125,55.0,77.0
640,134.47129410000002,134.8123651875,62.0,78.0
641,134.04272310000002,134.99897214375002,50.0,76.0
642,134.89986510000003,135.13379343750003,55.0,85.0
643,133.82843760000003,135.33825751875003,43.0,80.0
644,134.89986510000003,135.35343607500002,62.0,76.0
645,135.11415060000002,135.3909360375,50.0,78.0
646,135.3284361,135.43736456250002,55.0,82.0
647,135.54272160000002,135.91861408125,64.0,81.0
648,135.97129260000003,136.0837924875,57.0,80.0
649,135.54272160000002,136.1837923875,45.0,77.0
650,135.7570071,136.29182799375002,52.0,69.0
651,136.18557810000001,136.48022066250002,57.0,82.0
652,136.18557810000001,136.48557780000002,64.0,81.0
653,136.39986360000003,136.67843475,52.0,77.0
654,136.61414910000002,136.77218465625,57.0,72.0
655,136.18557810000001,136.82664888750003,45.0,77.0
656,136.61414910000002,136.917720225,69.0,71.0
657,136.8284346,137.10968431875003,52.0,76.0
658,136.61414910000002,137.13468429375,64.0,78.0
659,136.8284346,137.14807713750002,43.0,91.0
660,137.04272010000003,137.18200567500003,57.0,78.0
661,137.2570056,138.03646910625002,57.0,73.0
662,137.2570056,138.04807623750003,64.0,78.0
663,138.11414760000002,138.4159330125,57.0,79.0
664,138.11414760000002,138.63646850625003,69.0,74.0
665,138.54271860000003,138.81325404375002,57.0,81.0
666,138.11414760000002,138.84896829375,64.0,79.0
667,137.2570056,138.89093253750002,45.0,80.0
668,139.18557510000002,139.44628912500002,57.0,71.0
669,139.3998606,139.571289,62.0,77.0
670,139.61414610000003,139.88468154375002,65.0,83.0
671,138.9712896,140.17039554375,50.0,102.0
672,140.0427171,140.21771692500002,62.0,82.0
673,140.25700260000002,140.52575233125003,57.0,80.0
674,140.4712881,141.05789465625003,62.0,77.0
675,141.11414460000003,141.23825161875,58.0,75.0
676,140.89985910000001,141.43646570625,53.0,72.0
677,141.32843010000002,141.59360840625,65.0,78.0
678,141.32843010000002,141.61414410000003,58.0,80.0
679,140.68557360000003,141.81325104375003,46.0,90.0
680,141.5427156,141.82485817500003,53.0,71.0
681,141.75700110000002,141.89360810625,58.0,72.0
682,141.75700110000002,142.03825081875002,62.0,77.0
683,141.9712866,142.11771502500002,58.0,80.0
684,142.39985760000002,142.51146463125002,55.0,73.0
685,142.39985760000002,142.64182164375,60.0,76.0
686,142.6141431,142.88378568750002,55.0,76.0
687,142.82842860000002,142.92664278750001,60.0,75.0
688,142.39985760000002,143.23646390625,48.0,83.0
689,143.0427141,143.30967811875,55.0,77.0
690,143.0427141,143.33289238125002,64.0,80.0
691,143.47128510000002,143.68467774375003,60.0,83.0
692,143.6855706,143.94449891250002,55.0,78.0
693,143.89985610000002,144.10521303750002,60.0,80.0
694,144.54271260000002,144.68289103125002,53.0,78.0
695,144.32842710000003,144.90074795625003,48.0,68.0
696,144.75699810000003,145.03914067500003,60.0,76.0
697,144.75699810000003,145.05342637500002,53.0,76.0
698,145.1855691,145.21592621250002,53.0,63.0
699,144.97128360000002,145.28110471875002,48.0,76.0
700,144.1141416,145.37574748125002,41.0,78.0
701,145.1855691,145.46146168125003,57.0,78.0
702,145.1855691,145.50342592500002,60.0,75.0
703,145.39985460000003,145.69360430625002,53.0,82.0
704,145.61414010000001,145.82038989375002,60.0,78.0
705,146.2569966,146.42753214375003,58.0,66.0
706,146.47128210000002,146.80878176250002,62.0,77.0
707,146.47128210000002,146.83556745,58.0,71.0
708,146.04271110000002,146.99003158125,53.0,76.0
709,146.89985310000003,147.13288858125003,58.0,77.0
710,145.82842560000003,147.19717423125002,46.0,87.0
711,147.11413860000002,147.29985270000003,53.0,76.0
712,147.3284241,147.53020961250002,58.0,78.0
713,146.89985310000003,147.62395951875,65.0,77.0
714,147.97128060000003,148.09092333750002,60.0,80.0
715,147.7569951,148.25610174375,55.0,69.0
716,148.18556610000002,148.40788730625002,64.0,85.0
717,148.18556610000002,148.49270865000003,60.0,78.0
718,148.18556610000002,148.50788720625002,67.0,77.0
719,148.39985160000003,148.62752994375,55.0,76.0
720,148.61413710000002,148.65610134375,60.0,70.0
721,147.54270960000002,148.667708475,48.0,85.0
722,148.61413710000002,148.83824401875003,64.0,80.0
723,148.8284226,148.93288678125003,60.0,82.0
724,149.25699360000002,149.40431488125003,58.0,69.0
725,149.25699360000002,149.65342177500003,62.0,75.0
726,149.68556460000002,149.79002878125002,58.0,79.0
727,149.47127910000003,150.06949278750002,53.0,62.0
728,149.8998501,150.15252841875002,58.0,76.0
729,149.8998501,150.19092123750002,65.0,77.0
730,149.25699360000002,150.43020671250002,46.0,85.0
731,150.3284211,150.44359955625,58.0,77.0
732,150.11413560000003,150.44627812500002,53.0,73.0
733,150.3284211,150.61859938125002,62.0,79.0
734,150.54270660000003,150.65163506250002,46.0,78.0
735,150.75699210000002,150.94895619375,57.0,70.0
736,150.75699210000002,151.18377738750002,62.0,71.0
737,151.3998486,151.53288418125,55.0,85.0
738,151.18556310000002,151.69091973750002,52.0,77.0
739,151.61413410000003,151.82841960000002,55.0,77.0
740,151.61413410000003,151.84449101250001,61.0,81.0
741,151.82841960000002,152.09806218750003,52.0,76.0
742,152.0427051,152.28556200000003,57.0,72.0
743,152.0427051,152.35609764375002,61.0,79.0
744,152.0427051,152.55788315625003,64.0,79.0
745,150.9712776,152.56681171875002,45.0,78.0
746,152.4712761,152.57484742500003,61.0,54.0
747,152.25699060000002,152.64181164375003,52.0,77.0
748,152.4712761,152.66145448125002,57.0,82.0
749,152.89984710000002,153.16056112500002,57.0,71.0
750,153.11413260000003,153.28556100000003,62.0,77.0
751,153.32841810000002,153.59895354375,65.0,83.0
752,152.68556160000003,153.88466754375003,50.0,102.0
753,153.75698910000003,153.931988925,62.0,82.0
754,153.97127460000002,154.24002433125003,57.0,80.0
755,154.18556010000003,154.77216665625002,62.0,77.0
756,154.82841660000003,154.95252361875,58.0,75.0
757,154.6141311,155.15073770625003,53.0,72.0
758,155.0427021,155.30788040625,65.0,78.0
759,155.0427021,155.32841610000003,58.0,80.0
760,154.39984560000002,155.52752304375002,46.0,90.0
761,155.25698760000003,155.53913017500003,53.0,71.0
762,155.47127310000002,155.60788010625,58.0,72.0
763,155.47127310000002,155.75252281875,62.0,77.0
764,155.6855586,155.83198702500002,58.0,80.0
765,156.1141296,156.22573663125002,55.0,73.0
766,156.1141296,156.35609364375003,60.0,76.0
767,156.32841510000003,156.59805768750002,55.0,76.0
768,156.54270060000002,156.6409147875,60.0,75.0
769,156.1141296,156.95073590625003,48.0,83.0
770,156.75698610000003,157.02395011875,55.0,77.0
771,156.75698610000003,157.04716438125,64.0,80.0
772,157.1855571,157.39894974375002,60.0,83.0
773,157.39984260000003,157.65877091250002,55.0,78.0
774,157.61412810000002,157.81948503750002,60.0,80.0
775,158.2569846,158.39716303125002,53.0,78.0
776,158.04269910000002,158.61501995625002,48.0,68.0
777,158.47127010000003,158.75341267500002,60.0,76.0
778,158.47127010000003,158.767698375,53.0,76.0
779,158.89984110000003,158.93019821250002,53.0,63.0
780,158.68555560000001,158.99537671875,48.0,76.0
781,157.82841360000003,159.09001948125,41.0,78.0
782,158.89984110000003,159.17573368125002,57.0,78.0
783,158.89984110000003,159.217697925,60.0,75.0
784,159.11412660000002,159.40787630625002,53.0,82.0
785,159.3284121,159.53466189375,60.0,78.0
786,159.97126860000003,160.14180414375002,58.0,66.0
787,160.18555410000002,160.5230537625,62.0,77.0
788,160.18555410000002,160.54983945,58.0,71.0
789,159.7569831,160.70430358125003,53.0,76.0
790,160.61412510000002,160.84716058125002,58.0,77.0
791,159.54269760000003,160.91144623125,46.0,87.0
792,160.8284106,161.01412470000002,53.0,76.0
793,161.04269610000003,161.2444816125,58.0,78.0
794,160.61412510000002,161.33823151875,65.0,77.0
795,161.68555260000002,161.8051953375,60.0,80.0
796,161.47126710000003,161.97037374375003,55.0,69.0
797,161.8998381,162.12215930625,64.0,85.0
798,161.8998381,162.20698065000002,60.0,78.0
799,161.8998381,162.22215920625,67.0,77.0
800,162.11412360000003,162.34180194375003,55.0,76.0
801,162.32840910000002,162.37037334375003,60.0,70.0
802,161.25698160000002,162.38198047500003,48.0,85.0
803,162.32840910000002,162.55251601875003,64.0,80.0
804,162.54269460000003,162.64715878125003,60.0,82.0
805,162.9712656,163.11858688125002,58.0,69.0
806,162.9712656,163.36769377500002,62.0,75.0
807,163.39983660000001,163.50430078125,58.0,79.0
808,163.18555110000003,163.78376478750002,53.0,62.0
809,163.61412210000003,163.86680041875002,58.0,76.0
810,163.61412210000003,163.90519323750001,65.0,77.0
811,162.9712656,164.14447871250002,46.0,85.0
812,164.0426931,164.15787155625003,58.0,77.0
813,163.82840760000002,164.16055012500001,53.0,73.0
814,164.0426931,164.33287138125002,62.0,79.0
815,164.25697860000002,164.3659070625,46.0,78.0
816,164.4712641,164.66322819375003,57.0,70.0
817,164.4712641,164.8980493875,62.0,71.0
818,164.89983510000002,165.22126335000002,55.0,76.0
819,165.11412060000004,165.23912047500002,60.0,78.0
820,165.32840610000002,165.68644145625,55.0,76.0
821,165.32840610000002,165.72929855625003,64.0,77.0
822,165.75697710000003,165.97483402500004,60.0,85.0
823,164.68554960000003,166.18376238750002,48.0,92.0
824,165.97126260000002,166.33376223750003,55.0,79.0
825,166.18554810000003,166.37394076875003,60.0,78.0
826,166.6141191,166.953404475,57.0,76.0
827,166.82840460000003,167.03911867500003,62.0,74.0
828,167.04269010000002,167.48822536875002,65.0,80.0
829,166.39983360000002,167.52661818750002,50.0,83.0
830,167.47126110000002,167.70518943750002,62.0,77.0
831,167.6855466,167.97126060000002,57.0,76.0
832,167.89983210000003,168.4301887125,62.0,76.0
833,168.54268860000002,168.67304561250003,58.0,76.0
834,168.75697410000004,169.06500950625002,58.0,67.0
835,168.75697410000004,169.0909023375,65.0,76.0
836,168.32840310000003,169.35429493125002,53.0,62.0
837,168.11411760000001,169.37661633750002,46.0,83.0
838,169.1855451,169.43911627500003,62.0,76.0
839,169.39983060000003,169.49893764375003,58.0,76.0
840,169.82840160000003,169.97036574375002,55.0,72.0
841,169.82840160000003,170.07215135625003,60.0,76.0
842,170.04268710000002,170.30340112500002,55.0,76.0
843,170.2569726,170.37661533750003,60.0,67.0
844,170.47125810000003,170.75340067500002,55.0,73.0
845,170.47125810000003,170.84447201250003,64.0,76.0
846,169.82840160000003,170.98911472500004,48.0,78.0
847,170.89982910000003,171.12661458750003,60.0,78.0
848,171.11411460000002,171.2569716,55.0,73.0
849,171.54268560000003,171.7730425125,57.0,69.0
850,171.54268560000003,172.02125655000003,60.0,73.0
851,171.97125660000003,172.30518483750004,57.0,71.0
852,172.18554210000002,172.63732736250003,65.0,77.0
853,171.75697110000002,172.64179164375003,48.0,64.0
854,171.54268560000003,172.70072015625001,41.0,77.0
855,172.61411310000003,172.81679146875,60.0,80.0
856,172.8283986,172.98821986875004,57.0,76.0
857,173.47125510000004,173.6998263,58.0,70.0
858,173.68554060000002,173.91857608125002,62.0,74.0
859,173.8998261,174.38107561875003,58.0,78.0
860,173.25696960000002,174.60607539375002,50.0,81.0
861,174.32839710000002,174.7658966625,65.0,76.0
862,174.54268260000003,174.90696795000002,58.0,74.0
863,175.18553910000003,175.4766102375,55.0,76.0
864,175.39982460000002,175.60875296250003,60.0,77.0
865,175.61411010000003,175.97482402500003,64.0,81.0
866,176.0426811,176.29178799375003,60.0,79.0
867,174.9712536,176.33821651875002,48.0,85.0
868,176.25696660000003,176.6873233125,55.0,78.0
869,177.11410860000004,177.40964401875001,58.0,66.0
870,177.32839410000003,177.77571508125,62.0,77.0
871,176.68553760000003,177.85964356875002,46.0,75.0
872,176.89982310000002,177.86767927500003,53.0,62.0
873,177.75696510000003,178.01678626875002,58.0,78.0
874,177.97125060000002,178.14267900000002,62.0,76.0
875,178.39982160000002,178.54357145625002,55.0,74.0
876,178.39982160000002,178.67303561250003,60.0,76.0
877,178.6141071,178.88464254375003,55.0,76.0
878,178.82839260000003,178.93642820625,60.0,70.0
879,179.04267810000002,180.04267710000002,55.0,76.0
880,179.04267810000002,180.05964136875002,64.0,76.0
881,178.39982160000002,180.0855342,48.0,80.0
882,180.11410560000002,180.28999828125004,53.0,72.0
883,180.11410560000002,180.42124815000003,58.0,71.0
884,180.32839110000003,180.81856918125,53.0,62.0
885,180.54267660000002,180.89267625000002,58.0,66.0
886,180.97124760000003,181.17749739375003,53.0,74.0
887,180.97124760000003,181.30606869375003,58.0,72.0
888,180.11410560000002,181.35517578750003,46.0,78.0
889,180.97124760000003,181.36946148750002,62.0,76.0
890,181.82838960000004,181.96946088750002,55.0,73.0
891,181.82838960000004,182.09624647500002,60.0,73.0
892,182.04267510000003,182.34178194375002,55.0,72.0
893,182.2569606,182.51678176875004,60.0,75.0
894,182.68553160000002,182.85874571250002,55.0,76.0
895,181.82838960000004,182.90249566875002,48.0,68.0
896,182.68553160000002,182.94713848125002,60.0,79.0
897,182.68553160000002,182.97213845625004,64.0,78.0
898,183.54267360000003,183.77303051250001,57.0,68.0
899,183.54267360000003,183.83553045000002,60.0,73.0
900,183.97124460000003,184.22570863125003,57.0,76.0
901,184.18553010000002,184.27749429375,60.0,78.0
902,184.3998156,184.66410105000003,64.0,77.0
903,184.3998156,184.66767247500002,60.0,78.0
904,184.3998156,184.67570818125003,57.0,72.0
905,183.75695910000002,184.68195817500003,52.0,70.0
906,183.54267360000003,184.78552950000002,45.0,77.0
907,185.25695760000002,185.36142178125002,57.0,70.0
908,185.25695760000002,185.48820736875,62.0,74.0
909,185.47124310000004,185.74802853750003,57.0,75.0
910,185.68552860000003,185.88374268750002,62.0,73.0
911,185.89981410000001,186.18731381250004,65.0,80.0
912,185.25695760000002,186.45338497500003,50.0,77.0
913,186.11409960000003,186.45695640000002,57.0,76.0
914,186.9712416,187.41052687500002,58.0,56.0
915,186.9712416,187.6873123125,62.0,76.0
916,187.39981260000002,187.69534801875002,53.0,75.0
917,187.82838360000002,188.00338342500004,53.0,76.0
918,186.9712416,188.25606174375002,46.0,81.0
919,187.82838360000002,188.27213315625002,58.0,77.0
920,187.82838360000002,188.35249021875003,62.0,77.0
921,188.25695460000003,188.53284718125002,53.0,78.0
922,188.47124010000002,188.83731116250001,58.0,76.0
923,189.1140966,189.43820341875002,55.0,80.0
924,189.32838210000003,189.453381975,58.0,76.0
925,188.89981110000002,189.72659598750002,50.0,72.0
926,188.68552560000003,189.83016731250004,43.0,77.0
927,189.54266760000002,189.89177439375,55.0,76.0
928,189.54266760000002,189.90248866875004,58.0,78.0
929,189.54266760000002,189.95427433125002,62.0,77.0
930,189.97123860000002,190.23284548125002,43.0,78.0
931,190.39980960000003,190.63820221875002,57.0,71.0
932,190.39980960000003,190.79266635000002,61.0,70.0
933,190.82838060000003,190.92570193125002,57.0,77.0
934,191.04266610000002,191.36945148750002,57.0,76.0
935,191.04266610000002,191.39623717500004,64.0,78.0
936,190.61409510000001,191.75337967500002,52.0,69.0
937,191.47123710000002,191.77480822500002,61.0,74.0
938,191.47123710000002,191.77570108125002,57.0,76.0
939,191.47123710000002,191.78373678750003,64.0,78.0
940,190.39980960000003,191.84980815000003,45.0,78.0
941,192.11409360000002,192.59445026250003,57.0,77.0
942,192.11409360000002,192.65070020625004,61.0,78.0
943,192.11409360000002,192.82302146250004,64.0,78.0
944,192.7569501,192.89802138750002,57.0,77.0
945,192.54266460000002,193.12659258750003,52.0,70.0
946,192.11409360000002,193.72123485000003,45.0,78.0
947,192.97123560000003,193.75069910625004,57.0,71.0
948,193.39980660000003,193.76587766250003,52.0,77.0
949,192.97123560000003,193.77302051250004,61.0,76.0
950,192.97123560000003,193.77391336875002,69.0,77.0
951,192.97123560000003,193.77569908125002,64.0,79.0
952,194.04266310000003,194.30337712500003,57.0,71.0
953,194.25694860000002,194.428377,62.0,77.0
954,194.47123410000003,194.74176954375002,65.0,83.0
955,193.82837760000004,195.02748354375004,50.0,102.0
956,194.89980510000004,195.07480492500002,62.0,82.0
957,195.11409060000003,195.38284033125004,57.0,80.0
958,195.3283761,195.91498265625003,62.0,77.0
959,195.97123260000004,196.09533961875002,58.0,75.0
960,195.75694710000002,196.29355370625004,53.0,72.0
961,196.18551810000002,196.45069640625002,65.0,78.0
962,196.18551810000002,196.47123210000004,58.0,80.0
963,195.54266160000003,196.67033904375003,46.0,90.0
964,196.3998036,196.68194617500004,53.0,71.0
965,196.61408910000003,196.75069610625002,58.0,72.0
966,196.61408910000003,196.89533881875002,62.0,77.0
967,196.82837460000002,196.97480302500003,58.0,80.0
968,197.25694560000002,197.36855263125003,55.0,73.0
969,197.25694560000002,197.49890964375004,60.0,76.0
970,197.47123110000004,197.74087368750003,55.0,76.0
971,197.68551660000003,197.78373078750002,60.0,75.0
972,197.25694560000002,198.09355190625,48.0,83.0
973,197.89980210000002,198.16676611875002,55.0,77.0
974,197.89980210000002,198.18998038125002,64.0,80.0
975,198.32837310000002,198.54176574375003,60.0,83.0
976,198.54265860000004,198.80158691250003,55.0,78.0
977,198.75694410000003,198.96230103750003,60.0,80.0
978,199.39980060000002,199.53997903125003,53.0,78.0
979,199.18551510000003,199.75783595625003,48.0,68.0
980,199.61408610000004,199.89622867500003,60.0,76.0
981,199.61408610000004,199.91051437500002,53.0,76.0
982,200.0426571,200.07301421250003,53.0,63.0
983,199.82837160000003,200.13819271875002,48.0,76.0
984,198.97122960000002,200.23283548125002,41.0,78.0
985,200.0426571,200.31854968125003,57.0,78.0
986,200.0426571,200.36051392500002,60.0,75.0
987,200.25694260000003,200.55069230625003,53.0,82.0
988,200.47122810000002,200.67747789375002,60.0,78.0
989,201.1140846,201.28462014375003,58.0,66.0
990,201.32837010000003,201.66586976250002,62.0,77.0
991,201.32837010000003,201.69265545000002,58.0,71.0
992,200.89979910000002,201.84711958125,53.0,76.0
993,201.75694110000003,201.98997658125003,58.0,77.0
994,200.68551360000004,202.05426223125002,46.0,87.0
995,201.97122660000002,202.15694070000004,53.0,76.0
996,202.18551210000004,202.38729761250002,58.0,78.0
997,201.75694110000003,202.48104751875002,65.0,77.0
998,202.82836860000003,202.94801133750002,60.0,80.0
999,202.61408310000002,203.11318974375,55.0,69.0
1000,203.04265410000002,203.26497530625002,64.0,85.0
1001,203.04265410000002,203.34979665000003,60.0,78.0
1002,203.04265410000002,203.36497520625002,67.0,77.0
1003,203.25693960000004,203.48461794375004,55.0,76.0
1004,203.47122510000003,203.51318934375,60.0,70.0
1005,202.39979760000003,203.52479647500002,48.0,85.0
1006,203.47122510000003,203.69533201875004,64.0,80.0
1007,203.68551060000001,203.78997478125004,60.0,82.0
1008,204.11408160000002,204.26140288125004,58.0,69.0
1009,204.11408160000002,204.51050977500003,62.0,75.0
1010,204.54265260000003,204.64711678125002,58.0,79.0
1011,204.32836710000004,204.92658078750003,53.0,62.0
1012,204.7569381,205.00961641875003,58.0,76.0
1013,204.7569381,205.04800923750003,65.0,77.0
1014,204.11408160000002,205.28729471250003,46.0,85.0
1015,205.18550910000002,205.30068755625004,58.0,77.0
1016,204.97122360000003,205.30336612500003,53.0,73.0
1017,205.18550910000002,205.47568738125003,62.0,79.0
1018,205.39979460000004,205.50872306250002,46.0,78.0
1019,205.61408010000002,205.80604419375004,57.0,70.0
1020,205.61408010000002,206.04086538750002,62.0,71.0
1021,206.25693660000002,206.38997218125002,55.0,85.0
1022,206.04265110000003,206.54800773750003,52.0,77.0
1023,206.47122210000003,206.68550760000002,55.0,77.0
1024,206.47122210000003,206.70157901250002,61.0,81.0
1025,206.68550760000002,206.95515018750004,52.0,76.0
1026,206.89979310000004,207.14265000000003,57.0,72.0
1027,206.89979310000004,207.21318564375002,61.0,79.0
1028,206.89979310000004,207.41497115625003,64.0,79.0
1029,205.82836560000004,207.42389971875002,45.0,78.0
1030,207.32836410000002,207.43193542500003,61.0,54.0
1031,207.11407860000003,207.49889964375004,52.0,77.0
1032,207.32836410000002,207.51854248125002,57.0,82.0
1033,207.75693510000002,208.01764912500002,57.0,71.0
1034,207.97122060000004,208.14264900000003,62.0,77.0
1035,208.18550610000003,208.45604154375002,65.0,83.0
1036,207.54264960000003,208.74175554375003,50.0,102.0
1037,208.61407710000003,208.78907692500002,62.0,82.0
1038,208.82836260000002,209.09711233125003,57.0,80.0
1039,209.04264810000004,209.62925465625003,62.0,77.0
1040,209.68550460000003,209.80961161875004,58.0,75.0
1041,209.4712191,210.00782570625003,53.0,72.0
1042,209.89979010000002,210.16496840625004,65.0,78.0
1043,209.89979010000002,210.18550410000003,58.0,80.0
1044,209.25693360000002,210.38461104375003,46.0,90.0
1045,210.11407560000004,210.39621817500003,53.0,71.0
1046,210.32836110000002,210.46496810625004,58.0,72.0
1047,210.32836110000002,210.60961081875,62.0,77.0
1048,210.54264660000004,210.68907502500002,58.0,80.0
1049,210.97121760000002,211.08282463125002,55.0,73.0
1050,210.97121760000002,211.21318164375003,60.0,76.0
1051,211.18550310000003,211.45514568750002,55.0,76.0
1052,211.39978860000002,211.49800278750004,60.0,75.0
1053,210.97121760000002,211.80782390625004,48.0,83.0
1054,211.61407410000004,211.88103811875004,55.0,77.0
1055,211.61407410000004,211.90425238125002,64.0,80.0
1056,212.04264510000002,212.25603774375003,60.0,83.0
1057,212.25693060000003,212.51585891250002,55.0,78.0
1058,212.47121610000002,212.67657303750002,60.0,80.0
1059,213.11407260000001,213.25425103125002,53.0,78.0
1060,212.89978710000003,213.47210795625003,48.0,68.0
1061,213.32835810000003,213.61050067500003,60.0,76.0
1062,213.32835810000003,213.62478637500004,53.0,76.0
1063,213.75692910000004,213.78728621250002,53.0,63.0
1064,213.54264360000002,213.85246471875004,48.0,76.0
1065,212.68550160000004,213.94710748125001,41.0,78.0
1066,213.75692910000004,214.03282168125003,57.0,78.0
1067,213.75692910000004,214.07478592500001,60.0,75.0
1068,213.97121460000002,214.26496430625002,53.0,82.0
1069,214.18550010000004,214.39174989375002,60.0,78.0
1070,214.82835660000003,214.99889214375003,58.0,66.0
1071,215.04264210000002,215.38014176250002,62.0,77.0
1072,215.04264210000002,215.40692745000004,58.0,71.0
1073,214.61407110000002,215.56139158125004,53.0,76.0
1074,215.47121310000003,215.70424858125003,58.0,77.0
1075,214.39978560000003,215.76853423125002,46.0,87.0
1076,215.68549860000002,215.87121270000003,53.0,76.0
1077,215.89978410000003,216.10156961250001,58.0,78.0
1078,215.47121310000003,216.19531951875004,65.0,77.0
1079,216.54264060000003,216.66228333750004,60.0,80.0
1080,216.32835510000004,216.82746174375004,55.0,69.0
1081,216.75692610000002,216.97924730625002,64.0,85.0
1082,216.75692610000002,217.06406865000002,60.0,78.0
1083,216.75692610000002,217.07924720625002,67.0,77.0
1084,216.97121160000003,217.19888994375003,55.0,76.0
1085,217.18549710000002,217.22746134375004,60.0,70.0
1086,216.11406960000002,217.23906847500004,48.0,85.0
1087,217.18549710000002,217.40960401875003,64.0,80.0
1088,217.39978260000004,217.50424678125003,60.0,82.0
1089,217.82835360000004,217.97567488125003,58.0,69.0
1090,217.82835360000004,218.22478177500003,62.0,75.0
1091,218.25692460000002,218.36138878125004,58.0,79.0
1092,218.04263910000003,218.64085278750002,53.0,62.0
1093,218.47121010000004,218.72388841875002,58.0,76.0
1094,218.47121010000004,218.76228123750002,65.0,77.0
1095,217.82835360000004,219.00156671250002,46.0,85.0
1096,218.89978110000004,219.01495955625003,58.0,77.0
1097,218.68549560000002,219.01763812500002,53.0,73.0
1098,218.89978110000004,219.18995938125002,62.0,79.0
1099,219.11406660000003,219.22299506250002,46.0,78.0
1100,219.32835210000002,219.52031619375003,57.0,70.0
1101,219.32835210000002,219.75513738750004,62.0,71.0
1102,219.75692310000002,220.07835135000002,55.0,76.0
1103,219.97120860000004,220.09620847500003,60.0,78.0
1104,220.18549410000003,220.54352945625004,55.0,76.0
1105,220.18549410000003,220.58638655625003,64.0,77.0
1106,220.61406510000003,220.83192202500004,60.0,85.0
1107,219.54263760000003,221.04085038750003,48.0,92.0
1108,220.82835060000002,221.19085023750003,55.0,79.0
1109,221.04263610000004,221.23102876875004,60.0,78.0
1110,221.47120710000002,221.81049247500002,57.0,76.0
1111,221.68549260000003,221.89620667500003,62.0,74.0
1112,221.89977810000002,222.34531336875003,65.0,80.0
1113,221.25692160000003,222.38370618750002,50.0,83.0
1114,222.32834910000003,222.56227743750003,62.0,77.0
1115,222.54263460000004,222.82834860000003,57.0,76.0
1116,222.75692010000003,223.28727671250002,62.0,76.0
1117,223.39977660000002,223.53013361250004,58.0,76.0
1118,223.61406210000004,223.92209750625003,58.0,67.0
1119,223.61406210000004,223.94799033750002,65.0,76.0
1120,223.18549110000004,224.21138293125003,53.0,62.0
1121,222.97120560000002,224.23370433750003,46.0,83.0
1122,224.04263310000002,224.29620427500004,62.0,76.0
1123,224.25691860000003,224.35602564375003,58.0,76.0
1124,224.68548960000004,224.82745374375003,55.0,72.0
1125,224.68548960000004,224.92923935625004,60.0,76.0
1126,224.89977510000003,225.16048912500003,55.0,76.0
1127,225.11406060000002,225.23370333750003,60.0,67.0
1128,225.32834610000003,225.61048867500003,55.0,73.0
1129,225.32834610000003,225.70156001250004,64.0,76.0
1130,224.68548960000004,225.84620272500004,48.0,78.0
1131,225.75691710000004,225.98370258750003,60.0,78.0
1132,225.97120260000003,226.11405960000002,55.0,73.0
1133,226.39977360000003,226.63013051250002,57.0,69.0
1134,226.39977360000003,226.87834455000004,60.0,73.0
1135,226.82834460000004,227.16227283750004,57.0,71.0
1136,227.04263010000003,227.49441536250004,65.0,77.0
1137,226.61405910000002,227.49887964375003,48.0,64.0
1138,226.39977360000003,227.55780815625002,41.0,77.0
1139,227.47120110000003,227.67387946875002,60.0,80.0
1140,227.68548660000002,227.84530786875004,57.0,76.0
1141,228.32834310000004,228.55691430000002,58.0,70.0
1142,228.54262860000003,228.77566408125003,62.0,74.0
1143,228.75691410000002,229.23816361875004,58.0,78.0
1144,228.11405760000002,229.46316339375002,50.0,81.0
1145,229.18548510000002,229.62298466250002,65.0,76.0
1146,229.39977060000004,229.76405595000003,58.0,74.0
1147,230.04262710000003,230.33369823750002,55.0,76.0
1148,230.25691260000002,230.46584096250004,60.0,77.0
1149,230.47119810000004,230.83191202500004,64.0,81.0
1150,230.89976910000004,231.14887599375004,60.0,79.0
1151,229.82834160000002,231.19530451875002,48.0,85.0
1152,231.11405460000003,231.54441131250002,55.0,78.0
1153,231.97119660000004,232.26673201875002,58.0,66.0
1154,232.18548210000003,232.63280308125002,62.0,77.0
1155,231.54262560000004,232.71673156875002,46.0,75.0
1156,231.75691110000002,232.72476727500003,53.0,62.0
1157,232.61405310000004,232.87387426875003,58.0,78.0
1158,232.82833860000002,232.99976700000002,62.0,76.0
1159,233.25690960000003,233.40065945625003,55.0,74.0
1160,233.25690960000003,233.53012361250003,60.0,76.0
1161,233.47119510000002,233.74173054375004,55.0,76.0
1162,233.68548060000003,233.79351620625002,60.0,70.0
1163,233.89976610000002,234.89976510000002,55.0,76.0
1164,233.89976610000002,234.91672936875003,64.0,76.0
1165,233.25690960000003,234.94262220000002,48.0,80.0
1166,234.77833665000003,235.22387191875004,53.0,65.0
1167,234.84797943750004,236.37922790625004,58.0,65.0
1168,234.96940788750004,236.42208500625003,65.0,71.0
1169,234.95780075625004,238.38458304375004,46.0,77.0
