,start,end,pitch,velocity
0,21.08362108125,21.337857581250002,66.0,116.0
1,21.337857581250002,21.5910347625,64.0,90.0
2,21.592094081250004,21.84633058125,64.0,98.0
3,21.84633058125,22.099507762500004,62.0,94.0
4,22.100567081250002,22.354803581250003,62.0,96.0
5,22.354803581250003,22.863276581250002,61.0,108.0
6,22.863276581250002,24.1333997625,59.0,108.0
7,24.134459081250004,24.38869558125,59.0,107.0
8,24.38869558125,24.642932081250002,61.0,91.0
9,24.642932081250002,24.897168581250003,62.0,96.0
10,24.897168581250003,25.15140508125,57.0,92.0
11,25.15140508125,28.964952581250003,55.0,94.0
12,28.964952581250003,29.219189081250004,43.0,93.0
13,29.219189081250004,29.791221206250004,42.0,108.0
14,29.727662081250003,29.981898581250004,46.0,113.0
15,29.981898581250004,30.299694206250003,49.0,102.0
16,30.23613508125,30.744608081250004,54.0,107.0
17,30.744608081250004,30.998844581250005,50.0,100.0
18,30.998844581250005,32.268967762500004,49.0,113.0
19,32.27002708125001,32.53061949375,49.0,108.0
20,32.524263581250004,33.032736581250006,50.0,104.0
21,33.032736581250006,33.29756626875,52.0,110.0
22,33.286973081250004,37.35475708125001,54.0,108.0
23,37.35475708125001,37.608993581250004,71.0,117.0
24,37.608993581250004,37.86217076250001,69.0,110.0
25,37.86323008125,38.11746658125001,69.0,113.0
26,38.11746658125001,38.3706437625,67.0,108.0
27,38.371703081250004,38.62593958125,67.0,117.0
28,38.62593958125,39.134412581250004,66.0,110.0
29,39.134412581250004,40.404535762500004,61.0,102.0
30,40.405595081250006,40.786949831250006,61.0,113.0
31,40.786949831250006,41.168304581250005,62.0,102.0
32,41.168304581250005,41.42254108125,64.0,104.0
33,41.42254108125,42.18525058125,67.0,114.0
34,42.18525058125,43.20219658125001,66.0,108.0
35,43.20219658125001,43.456433081250005,54.0,91.0
36,43.456433081250005,44.219142581250004,64.0,108.0
37,44.219142581250004,44.981852081250004,62.0,104.0
38,44.981852081250004,45.23608858125,61.0,108.0
39,45.23608858125,45.5104521375,59.0,91.0
40,45.490325081250006,46.253034581250006,62.0,107.0
41,46.253034581250006,48.541163081250005,55.0,102.0
42,48.541163081250005,48.8240011875,54.0,88.0
43,48.79539958125,49.0612885875,58.0,85.0
44,49.04963608125001,49.31022849375,61.0,86.0
45,49.303872581250005,49.563405675000006,58.0,87.0
46,49.55810908125,52.60894708125001,59.0,88.0
47,52.60894708125001,53.11742008125,66.0,113.0
48,53.11742008125,53.625893081250005,69.0,116.0
49,53.625893081250005,54.133306762500006,71.0,113.0
50,54.13436608125001,54.64177976250001,71.0,113.0
51,54.64283908125,54.89707558125001,71.0,113.0
52,54.89707558125001,55.40448926250001,74.0,116.0
53,55.40554858125,56.6756717625,74.0,116.0
54,56.676731081250004,57.185204081250006,74.0,116.0
55,57.185204081250006,57.69367708125001,71.0,110.0
56,57.69367708125001,58.202150081250004,73.0,116.0
57,58.202150081250004,58.710623081250006,74.0,113.0
58,58.710623081250006,58.96485958125,73.0,110.0
59,58.96485958125,59.473332581250006,69.0,108.0
60,59.473332581250006,60.74451508125001,66.0,116.0
61,60.74451508125001,61.25298808125,71.0,117.0
62,61.25298808125,61.761461081250005,69.0,114.0
63,61.761461081250005,62.037943275,71.0,116.0
64,62.01569758125001,62.268874762500005,69.0,114.0
65,62.26993408125001,62.524170581250004,69.0,114.0
66,62.524170581250004,63.54005726250001,62.0,113.0
67,63.54111658125001,63.795353081250006,62.0,93.0
68,63.795353081250006,64.30382608125001,67.0,113.0
69,64.30382608125001,64.55806258125001,66.0,108.0
70,64.55806258125001,65.06653558125001,64.0,114.0
71,65.06653558125001,65.32077208125001,62.0,94.0
72,65.32077208125001,65.57500858125,64.0,104.0
73,65.57500858125,68.87902376250001,66.0,110.0
74,68.88008308125,69.38855608125,66.0,113.0
75,69.38855608125,69.89702908125001,69.0,116.0
76,69.89702908125001,70.40444276250001,71.0,113.0
77,70.40550208125,70.9129157625,71.0,113.0
78,70.91397508125,71.16821158125,71.0,113.0
79,71.16821158125,71.6756252625,74.0,116.0
80,71.67668458125,72.9468077625,74.0,116.0
81,72.94786708125001,73.45634008125,74.0,116.0
82,73.45634008125,73.96481308125001,71.0,110.0
83,73.96481308125001,74.47328608125001,73.0,116.0
84,74.47328608125001,74.98175908125,74.0,113.0
85,74.98175908125,75.23599558125001,73.0,110.0
86,75.23599558125001,75.74446858125,69.0,108.0
87,75.74446858125,77.01565108125001,66.0,116.0
88,77.01565108125001,77.52412408125001,71.0,117.0
89,77.52412408125001,78.03259708125,69.0,114.0
90,78.03259708125,78.309079275,71.0,116.0
91,78.28683358125001,78.5400107625,69.0,114.0
92,78.54107008125001,78.79530658125,69.0,114.0
93,78.79530658125,79.81119326250001,62.0,113.0
94,79.81225258125001,80.06648908125001,62.0,93.0
95,80.06648908125001,80.57496208125,67.0,113.0
96,80.57496208125,80.82919858125001,66.0,108.0
97,80.82919858125001,81.33767158125,64.0,114.0
98,81.33767158125,81.59190808125001,62.0,94.0
99,81.59190808125001,81.84614458125,64.0,104.0
100,81.84614458125,82.17982998750001,66.0,110.0
101,86.16816508125001,86.42240158125001,66.0,116.0
102,86.42240158125001,86.67557876250001,64.0,90.0
103,86.67663808125,86.93087458125001,64.0,98.0
104,86.93087458125001,87.1840517625,62.0,94.0
105,87.18511108125001,87.43934758125,62.0,96.0
106,87.43934758125,87.94782058125001,61.0,108.0
107,87.94782058125001,89.21794376250001,59.0,108.0
108,89.21900308125001,89.47323958125001,59.0,107.0
109,89.47323958125001,89.72747608125,61.0,91.0
110,89.72747608125,89.98171258125001,62.0,96.0
111,89.98171258125001,90.23594908125001,57.0,92.0
112,90.23594908125001,94.04949658125001,55.0,94.0
113,94.04949658125001,94.30373308125002,43.0,93.0
114,94.30373308125002,94.87576520625001,42.0,108.0
115,94.81220608125001,95.06644258125002,46.0,113.0
116,95.06644258125002,95.38423820625,49.0,102.0
117,95.32067908125,95.82915208125002,54.0,107.0
118,95.82915208125002,96.08338858125,50.0,100.0
119,96.08338858125,97.3535117625,49.0,113.0
120,97.35457108125001,97.61516349375,49.0,108.0
121,97.60880758125,98.11728058125001,50.0,104.0
122,98.11728058125001,98.38211026875001,52.0,110.0
123,98.37151708125,102.43930108125001,54.0,108.0
124,102.43930108125001,102.69353758125001,71.0,117.0
125,102.69353758125001,102.94671476250001,69.0,110.0
126,102.94777408125,103.20201058125001,69.0,113.0
127,103.20201058125001,103.4551877625,67.0,108.0
128,103.45624708125001,103.71048358125002,67.0,117.0
129,103.71048358125002,104.21895658125001,66.0,110.0
130,104.21895658125001,105.48907976250001,61.0,102.0
131,105.49013908125,105.87149383125,61.0,113.0
132,105.87149383125,106.25284858125,62.0,102.0
133,106.25284858125,106.50708508125001,64.0,104.0
134,106.50708508125001,107.26979458125001,67.0,114.0
135,107.26979458125001,108.28674058125002,66.0,108.0
136,108.28674058125002,108.54097708125,54.0,91.0
137,108.54097708125,109.30368658125,64.0,108.0
138,109.30368658125,110.06639608125,62.0,104.0
139,110.06639608125,110.32063258125001,61.0,108.0
140,110.32063258125001,110.5949961375,59.0,91.0
141,110.57486908125001,111.33757858125001,62.0,107.0
142,111.33757858125001,113.62570708125001,55.0,102.0
143,113.62570708125001,113.90854518750001,54.0,88.0
144,113.87994358125002,114.14583258750001,58.0,85.0
145,114.13418008125001,114.39477249375001,61.0,86.0
146,114.38841658125001,114.647949675,58.0,87.0
147,114.64265308125002,116.67654508125001,59.0,88.0
148,134.98157308125002,135.48898676250002,71.0,114.0
149,135.49004608125,135.7432232625,71.0,108.0
150,135.74428258125002,136.25275558125,71.0,113.0
151,136.25275558125,137.01440576250002,74.0,119.0
152,137.01546508125,137.52393808125,74.0,117.0
153,137.52393808125,138.03241108125002,73.0,116.0
154,138.03241108125002,138.29830008750002,69.0,107.0
155,138.28664758125,139.04935708125,64.0,113.0
156,139.04935708125,139.5567707625,69.0,119.0
157,139.55783008125002,139.81100726250003,69.0,113.0
158,139.81206658125,140.32053958125002,69.0,114.0
159,140.32053958125002,141.0821897625,73.0,120.0
160,141.08324908125002,141.59172208125003,73.0,119.0
161,141.59172208125003,142.10019508125,76.0,113.0
162,142.10019508125,142.35337226250002,74.0,116.0
163,142.35443158125003,143.11714108125003,74.0,117.0
164,143.11714108125003,143.62561408125,71.0,113.0
165,143.62561408125,143.87985058125003,67.0,104.0
166,143.87985058125003,144.38832358125,71.0,117.0
167,144.38832358125,144.64150076250002,74.0,113.0
168,144.64256008125002,144.8957372625,74.0,110.0
169,144.89679658125002,146.16691976250002,74.0,116.0
170,146.16797908125002,146.42221558125001,74.0,114.0
171,146.42221558125001,146.93068858125002,73.0,113.0
172,146.93068858125002,147.18492508125001,71.0,113.0
173,147.18492508125001,149.47305358125,73.0,119.0
174,150.23576308125,150.74423608125002,66.0,113.0
175,150.74423608125002,151.25270908125,69.0,116.0
176,151.25270908125,151.7601227625,71.0,113.0
177,151.76118208125,152.2685957625,71.0,113.0
178,152.26965508125002,152.52389158125,71.0,113.0
179,152.52389158125,153.0313052625,74.0,116.0
180,153.03236458125002,154.30248776250002,74.0,116.0
181,154.30354708125,154.81202008125,74.0,116.0
182,154.81202008125,155.32049308125002,71.0,110.0
183,155.32049308125002,155.82896608125,73.0,116.0
184,155.82896608125,156.33743908125,74.0,113.0
185,156.33743908125,156.59167558125,73.0,110.0
186,156.59167558125,157.10014858125,69.0,108.0
187,157.10014858125,158.37133108125002,66.0,116.0
188,158.37133108125002,158.87980408125003,71.0,117.0
189,158.87980408125003,159.38827708125,69.0,114.0
190,159.38827708125,159.66475927500002,71.0,116.0
191,159.64251358125003,159.8956907625,69.0,114.0
192,159.89675008125002,160.15098658125,69.0,114.0
193,160.15098658125,161.16687326250002,62.0,113.0
194,161.16793258125003,161.42216908125002,62.0,93.0
195,161.42216908125002,161.93064208125003,67.0,113.0
196,161.93064208125003,162.18487858125002,66.0,108.0
197,162.18487858125002,162.69335158125003,64.0,114.0
198,162.69335158125003,162.94758808125002,62.0,94.0
199,162.94758808125002,163.20182458125,64.0,104.0
200,163.20182458125,166.50583976250002,66.0,110.0
201,166.50689908125003,167.01537208125,66.0,113.0
202,167.01537208125,167.52384508125002,69.0,116.0
203,167.52384508125002,168.03125876250002,71.0,113.0
204,168.03231808125003,168.53973176250003,71.0,113.0
205,168.54079108125,168.79502758125003,71.0,113.0
206,168.79502758125003,169.30244126250003,74.0,116.0
207,169.30350058125,170.5736237625,74.0,116.0
208,170.57468308125001,171.08315608125002,74.0,116.0
209,171.08315608125002,171.59162908125,71.0,110.0
210,171.59162908125,172.10010208125001,73.0,116.0
211,172.10010208125001,172.60857508125002,74.0,113.0
212,172.60857508125002,172.86281158125,73.0,110.0
213,172.86281158125,173.37128458125002,69.0,108.0
214,173.37128458125002,174.64246708125,66.0,116.0
215,174.64246708125,175.15094008125,71.0,117.0
216,175.15094008125,175.65941308125002,69.0,114.0
217,175.65941308125002,175.935895275,71.0,116.0
218,175.91364958125,176.16682676250002,69.0,114.0
219,176.16788608125,176.42212258125002,69.0,114.0
220,176.42212258125002,177.43800926250003,62.0,113.0
221,177.43906858125,177.69330508125003,62.0,93.0
222,177.69330508125003,178.20177808125,67.0,113.0
223,178.20177808125,178.45601458125003,66.0,108.0
224,178.45601458125003,178.96448758125,64.0,114.0
225,178.96448758125,179.21872408125003,62.0,94.0
226,179.21872408125003,179.47296058125002,64.0,104.0
227,179.47296058125002,181.25261608125,66.0,110.0
