,start,end,pitch,velocity
0,4.81248508125,8.296584450000001,59.0,84.0
1,4.81248508125,8.35484698125,47.0,82.0
2,4.81248508125,8.400397687500002,62.0,87.0
3,4.81248508125,8.416287468750001,71.0,89.0
4,4.81248508125,8.48620250625,66.0,93.0
5,8.88026908125,12.511613756250002,42.0,81.0
6,8.88026908125,12.559283100000002,54.0,83.0
7,8.88026908125,12.629198137500001,61.0,87.0
8,8.88026908125,12.749960475000002,66.0,87.0
9,8.88026908125,12.778562081250001,70.0,86.0
10,12.948053081250002,15.3834268875,59.0,77.0
11,12.948053081250002,15.391901437500001,47.0,77.0
12,12.948053081250002,16.5529147875,62.0,86.0
13,12.948053081250002,16.618592550000002,66.0,88.0
14,12.948053081250002,16.778549681250002,71.0,89.0
15,17.01583708125,18.261595931250003,54.0,87.0
16,17.01583708125,18.264773887500002,42.0,86.0
17,17.01583708125,19.034898618750002,61.0,86.0
18,17.01583708125,19.0486697625,70.0,85.0
19,17.01583708125,19.050788400000002,66.0,88.0
20,21.08362108125,21.746754618750003,62.0,80.0
21,21.08362108125,21.76158508125,71.0,80.0
22,21.08362108125,21.773237587500002,66.0,80.0
23,21.08362108125,21.777474862500004,47.0,80.0
24,21.84633058125,21.8982372,47.0,80.0
25,21.08362108125,22.2202701,59.0,80.0
26,21.84633058125,22.457557500000004,71.0,80.0
27,21.84633058125,22.475565918750004,62.0,80.0
28,21.84633058125,22.488277743750004,66.0,80.0
29,22.100567081250002,22.92259843125,47.0,80.0
30,22.60904008125,22.994632106250002,71.0,80.0
31,22.354803581250003,23.004165975000003,59.0,80.0
32,22.60904008125,23.011581206250003,62.0,80.0
33,22.60904008125,23.0338269,66.0,80.0
34,23.117513081250003,23.73721455,47.0,80.0
35,23.117513081250003,23.753104331250004,62.0,80.0
36,23.117513081250003,23.799714356250004,71.0,80.0
37,23.117513081250003,23.825138006250004,66.0,80.0
38,23.880222581250003,23.943781706250004,47.0,80.0
39,23.117513081250003,24.222382537500003,59.0,80.0
40,23.880222581250003,24.443780156250003,71.0,80.0
41,23.880222581250003,24.454373343750003,62.0,80.0
42,23.880222581250003,24.48403426875,66.0,80.0
43,24.261577331250002,24.612211837500002,59.0,80.0
44,24.642932081250002,24.776406243750003,62.0,80.0
45,24.642932081250002,24.95013451875,71.0,80.0
46,24.134459081250004,24.9808547625,47.0,80.0
47,24.642932081250002,25.0147529625,66.0,80.0
48,25.15140508125,25.780640418750004,43.0,80.0
49,25.15140508125,25.85479273125,71.0,80.0
50,25.15140508125,25.85691136875,62.0,80.0
51,25.15140508125,25.85691136875,67.0,80.0
52,25.914114581250004,25.977673706250002,43.0,80.0
53,25.15140508125,26.594197218750004,55.0,80.0
54,25.914114581250004,26.83360325625,71.0,80.0
55,25.914114581250004,26.837840531250002,62.0,80.0
56,25.914114581250004,26.847374400000003,67.0,80.0
57,26.16835108125,27.035933137500002,43.0,80.0
58,26.93106058125,27.069831337500002,62.0,80.0
59,26.676824081250004,27.083602481250004,55.0,80.0
60,26.93106058125,27.106907493750004,71.0,80.0
61,26.93106058125,27.114322725,67.0,80.0
62,27.185297081250003,27.78910876875,43.0,80.0
63,27.185297081250003,27.863261081250002,62.0,80.0
64,27.185297081250003,27.863261081250002,71.0,80.0
65,27.185297081250003,27.869616993750004,67.0,80.0
66,27.948006581250002,28.021099575000004,43.0,80.0
67,27.185297081250003,28.249912425,55.0,80.0
68,27.948006581250002,28.56453009375,71.0,80.0
69,27.948006581250002,28.5825385125,62.0,80.0
70,27.948006581250002,28.631267175,67.0,80.0
71,28.456479581250004,28.843130925000004,55.0,80.0
72,28.710716081250002,29.03063034375,71.0,80.0
73,28.710716081250002,29.050757400000002,62.0,80.0
74,28.202243081250003,29.092070831250002,43.0,80.0
75,28.710716081250002,29.130206306250003,67.0,80.0
76,29.219189081250004,29.835712593750003,42.0,80.0
77,29.219189081250004,29.875966706250004,54.0,80.0
78,29.219189081250004,29.900331037500003,70.0,80.0
79,29.219189081250004,29.911983543750004,61.0,80.0
80,29.219189081250004,29.916220818750002,66.0,80.0
81,29.981898581250004,30.046517025000004,42.0,80.0
82,29.981898581250004,30.342066956250004,54.0,80.0
83,29.981898581250004,30.597362775000004,70.0,80.0
84,29.981898581250004,30.622786425000005,66.0,80.0
85,29.981898581250004,30.636557568750003,61.0,80.0
86,30.490371581250002,30.788040150000004,54.0,80.0
87,30.744608081250004,31.094183268750005,70.0,80.0
88,30.23613508125,31.100539181250003,42.0,80.0
89,30.744608081250004,31.134437381250002,61.0,80.0
90,30.744608081250004,31.138674656250004,66.0,80.0
91,30.998844581250005,31.16092035,54.0,80.0
92,31.253081081250002,31.842062306250003,70.0,80.0
93,31.253081081250002,31.877019825,61.0,80.0
94,31.253081081250002,31.879138462500002,66.0,80.0
95,31.253081081250002,31.883375737500003,42.0,80.0
96,32.01579058125,32.088883575000004,42.0,80.0
97,31.253081081250002,32.122781775,54.0,80.0
98,32.01579058125,32.579348156250006,70.0,80.0
99,32.01579058125,32.607949762500006,66.0,80.0
100,32.01579058125,32.60900908125,61.0,80.0
101,32.524263581250004,32.82087283125,54.0,80.0
102,32.77850008125,33.028499306250005,61.0,80.0
103,32.77850008125,33.079346606250006,70.0,80.0
104,32.27002708125001,33.11006685,42.0,80.0
105,33.032736581250006,33.18104120625,54.0,80.0
106,32.77850008125,33.193753031250004,66.0,80.0
107,33.286973081250004,33.877013625000004,71.0,80.0
108,33.286973081250004,33.896081362500006,47.0,80.0
109,33.286973081250004,33.932098200000006,62.0,80.0
110,33.286973081250004,33.932098200000006,66.0,80.0
111,34.04968258125,34.1248942125,47.0,80.0
112,33.795446081250006,34.19586856875,59.0,80.0
113,34.04968258125,34.612180837500006,71.0,80.0
114,34.04968258125,34.665146775000004,62.0,80.0
115,34.04968258125,34.666206093750006,66.0,80.0
116,34.558155581250006,34.85370551250001,59.0,80.0
117,34.30391908125,35.169382500000005,47.0,80.0
118,34.81239208125,35.17785705,71.0,80.0
119,34.81239208125,35.232941625,62.0,80.0
120,34.81239208125,35.2435348125,66.0,80.0
121,35.06662858125,35.374890337500005,59.0,80.0
122,35.320865081250005,35.877007425,47.0,80.0
123,35.320865081250005,35.902431075,71.0,80.0
124,35.320865081250005,35.9299733625,66.0,80.0
125,35.320865081250005,35.94056655000001,62.0,80.0
126,36.083574581250005,36.158786212500004,47.0,80.0
127,35.82933808125,36.325099256250006,59.0,80.0
128,36.083574581250005,36.62064918750001,71.0,80.0
129,36.083574581250005,36.652428750000006,62.0,80.0
130,36.083574581250005,36.65348806875,66.0,80.0
131,36.59204758125,36.900309337500005,59.0,80.0
132,36.33781108125,37.11746968125,47.0,80.0
133,36.846284081250005,37.17467289375001,71.0,80.0
134,36.846284081250005,37.235054062500005,62.0,80.0
135,36.846284081250005,37.239291337500006,66.0,80.0
136,37.35475708125001,37.929967162500006,71.0,80.0
137,37.35475708125001,37.9320858,47.0,80.0
138,37.35475708125001,37.9681026375,62.0,80.0
139,37.35475708125001,37.994585606250006,66.0,80.0
140,38.11746658125001,38.181025706250004,47.0,80.0
141,37.35475708125001,38.425728337500004,59.0,80.0
142,38.11746658125001,38.653481868750006,71.0,80.0
143,38.11746658125001,38.674668243750006,62.0,80.0
144,38.11746658125001,38.735049412500004,66.0,80.0
145,38.880176081250006,39.13653121875,62.0,80.0
146,38.880176081250006,39.171488737500006,71.0,80.0
147,38.62593958125,39.22339535625,59.0,80.0
148,38.371703081250004,39.267886743750005,47.0,80.0
149,38.880176081250006,39.278479931250004,66.0,80.0
150,39.38864908125,39.9426727875,49.0,80.0
151,39.38864908125,40.05813853125,61.0,80.0
152,39.38864908125,40.059197850000004,68.0,80.0
153,39.38864908125,40.095214687500004,65.0,80.0
154,40.15135858125,40.214917706250006,49.0,80.0
155,40.15135858125,40.7604668625,68.0,80.0
156,40.15135858125,40.78059391875001,61.0,80.0
157,40.15135858125,40.8325005375,65.0,80.0
158,40.91406808125,41.135465700000005,68.0,80.0
159,40.91406808125,41.17783845,61.0,80.0
160,40.91406808125,41.186313000000006,65.0,80.0
161,40.405595081250006,41.2032621,49.0,80.0
162,41.42254108125,41.830378800000005,66.0,80.0
163,41.42254108125,42.039064593750005,47.0,80.0
164,41.42254108125,42.082496662500006,59.0,80.0
165,41.42254108125,42.0846153,62.0,80.0
166,42.18525058125,42.25940289375001,47.0,82.0
167,41.931014081250005,42.3324958875,54.0,82.0
168,42.43948708125001,42.888638231250006,47.0,82.0
169,42.18525058125,42.9553753125,66.0,82.0
170,42.18525058125,43.057069912500005,59.0,82.0
171,42.18525058125,43.05918855,62.0,82.0
172,43.20219658125001,43.29223867500001,66.0,84.0
173,43.20219658125001,43.324018237500006,62.0,84.0
174,43.20219658125001,43.32825551250001,59.0,84.0
175,42.94796008125,43.467026268750004,54.0,84.0
176,43.456433081250005,43.99774496250001,52.0,84.0
177,43.456433081250005,44.05177021875001,67.0,84.0
178,43.456433081250005,44.08037182500001,62.0,84.0
179,43.456433081250005,44.114270025,59.0,84.0
180,43.456433081250005,44.114270025,64.0,84.0
181,44.219142581250004,44.28164238750001,52.0,88.0
182,44.219142581250004,44.75727650625,67.0,88.0
183,44.219142581250004,44.774225606250006,62.0,88.0
184,44.219142581250004,44.78270015625,64.0,88.0
185,44.219142581250004,44.801767893750004,59.0,88.0
186,44.981852081250004,45.291173156250004,67.0,88.0
187,44.981852081250004,45.3049443,64.0,88.0
188,44.981852081250004,45.317656125000006,62.0,88.0
189,44.981852081250004,45.33778318125,59.0,88.0
190,44.47337908125,45.3621475125,52.0,88.0
191,45.490325081250006,46.054941975000006,43.0,88.0
192,45.490325081250006,46.072950393750006,67.0,88.0
193,45.490325081250006,46.10261131875001,59.0,88.0
194,45.490325081250006,46.108967231250006,62.0,88.0
195,46.253034581250006,46.317653025000006,43.0,88.0
196,45.490325081250006,47.1799384875,55.0,88.0
197,46.24032275625,47.2265485125,59.0,88.0
198,46.24032275625,47.238201018750004,67.0,88.0
199,46.24032275625,47.24349761250001,62.0,88.0
200,46.50727108125,47.3557854,43.0,88.0
201,47.52421708125001,48.128028768750006,42.0,88.0
202,47.52421708125001,48.146037187500006,66.0,88.0
203,47.52421708125001,48.164045606250006,58.0,88.0
204,47.52421708125001,48.19688448750001,61.0,88.0
205,48.28692658125001,48.350485706250005,42.0,88.0
206,48.28692658125001,48.92887374375,66.0,88.0
207,48.28692658125001,48.96383126250001,58.0,88.0
208,48.28692658125001,48.96383126250001,61.0,88.0
209,49.04963608125001,49.24561005,58.0,88.0
210,49.04963608125001,49.296457350000004,66.0,88.0
211,48.541163081250005,49.410863775,42.0,88.0
212,49.04963608125001,49.426753556250006,61.0,88.0
213,47.52421708125001,49.4468806125,54.0,88.0
214,49.55810908125,50.08247186250001,47.0,88.0
215,49.55810908125,50.185225781250004,66.0,88.0
216,49.55810908125,50.22653921250001,59.0,88.0
217,49.55810908125,50.23713240000001,62.0,88.0
218,50.32081858125,50.3748438375,47.0,88.0
219,50.32081858125,50.89285070625,66.0,88.0
220,50.32081858125,50.938401412500006,62.0,88.0
221,50.32081858125,50.952172556250005,59.0,88.0
222,50.829291581250004,51.19793450625001,54.0,88.0
223,51.08352808125,51.373781418750006,66.0,88.0
224,50.57505508125001,51.42251008125,47.0,88.0
225,51.08352808125,51.45852691875,59.0,88.0
226,51.08352808125,51.47547601875001,62.0,88.0
227,51.592001081250004,52.15873661250001,66.0,88.0
228,51.592001081250004,52.168270481250005,47.0,88.0
229,51.592001081250004,52.200050043750004,62.0,88.0
230,51.592001081250004,52.20534663750001,59.0,88.0
231,52.35471058125,52.419329025,47.0,88.0
232,52.100474081250006,52.53373545,54.0,88.0
233,52.35471058125,52.91085292500001,66.0,88.0
234,52.35471058125,52.945810443750005,62.0,88.0
235,52.35471058125,52.94686976250001,59.0,88.0
236,52.863183581250006,53.196868987500004,54.0,84.0
237,53.11742008125,53.29538563125001,66.0,74.0
238,53.11742008125,53.29962290625001,59.0,74.0
239,53.11742008125,53.30386018125,62.0,74.0
240,52.60894708125001,53.406614100000006,47.0,86.0
241,53.625893081250005,53.89072276875,43.0,91.0
242,53.625893081250005,54.09093401250001,55.0,85.0
243,53.88012958125,54.09093401250001,55.0,85.0
244,53.625893081250005,54.223348856250006,67.0,85.0
245,53.625893081250005,54.255128418750004,62.0,85.0
246,53.625893081250005,54.26042501250001,59.0,85.0
247,54.13436608125001,54.421441462500006,43.0,85.0
248,54.13436608125001,54.60894088125001,55.0,85.0
249,54.388602581250005,54.60894088125001,55.0,85.0
250,54.64283908125,54.942626287500005,43.0,85.0
251,54.388602581250005,54.95110083750001,67.0,85.0
252,54.388602581250005,54.986058356250005,59.0,85.0
253,54.388602581250005,54.99135495000001,62.0,85.0
254,54.89707558125001,55.154490037500004,55.0,85.0
255,54.89707558125001,55.154490037500004,55.0,85.0
256,55.151312081250005,55.39707403125001,43.0,85.0
257,55.151312081250005,55.418260406250006,59.0,85.0
258,55.151312081250005,55.43097223125,67.0,85.0
259,55.151312081250005,55.5422007,62.0,85.0
260,55.40554858125,55.63224279375,55.0,85.0
261,55.65978508125001,55.957453650000005,45.0,85.0
262,55.65978508125001,56.10258031875001,57.0,85.0
263,55.914021581250005,56.10258031875001,57.0,85.0
264,55.65978508125001,56.224401975000006,69.0,85.0
265,55.65978508125001,56.2371138,61.0,85.0
266,55.65978508125001,56.269952681250004,64.0,85.0
267,56.16825808125,56.457452100000005,45.0,85.0
268,56.16825808125,56.615290593750004,57.0,85.0
269,56.42249458125001,56.615290593750004,57.0,85.0
270,56.42249458125001,56.961687825000006,69.0,85.0
271,56.676731081250004,56.97651828750001,45.0,85.0
272,56.42249458125001,56.99134875000001,61.0,85.0
273,56.42249458125001,57.00617921250001,64.0,85.0
274,56.93096758125001,57.165077025,57.0,85.0
275,56.93096758125001,57.165077025,57.0,85.0
276,57.185204081250006,57.46062695625,45.0,91.0
277,57.185204081250006,57.47439810000001,61.0,91.0
278,57.185204081250006,57.490287881250005,69.0,91.0
279,57.439440581250004,57.54537245625001,57.0,91.0
280,57.185204081250006,57.590923162500005,64.0,91.0
281,57.69367708125001,57.97121859375,38.0,91.0
282,57.947913581250006,58.21274326875,50.0,99.0
283,57.69367708125001,58.31549718750001,69.0,89.0
284,57.69367708125001,58.34198015625,62.0,89.0
285,57.69367708125001,58.359988575,66.0,89.0
286,58.202150081250004,58.48816614375001,38.0,95.0
287,58.45638658125001,58.69367398125001,50.0,95.0
288,58.710623081250006,59.02100347500001,38.0,95.0
289,58.96485958125,59.22968926875001,50.0,95.0
290,59.21909608125001,59.419307325000005,57.0,95.0
291,59.21909608125001,59.476510537500005,38.0,95.0
292,58.45638658125001,59.47756985625001,66.0,95.0
293,58.45638658125001,59.48604440625001,69.0,95.0
294,58.45638658125001,59.48922236250001,62.0,95.0
295,59.473332581250006,59.73074703750001,50.0,95.0
296,59.72756908125,60.037949475000005,38.0,95.0
297,59.98180558125001,60.213796387500004,50.0,95.0
298,59.72756908125,60.344092593750005,62.0,95.0
299,59.72756908125,60.34938918750001,69.0,95.0
300,59.72756908125,60.369516243750006,66.0,95.0
301,60.236042081250005,60.53582928750001,38.0,95.0
302,60.49027858125,60.75616758750001,50.0,95.0
303,60.74451508125001,61.02205659375001,38.0,95.0
304,60.49027858125,61.06231070625,69.0,95.0
305,60.49027858125,61.08985299375001,62.0,95.0
306,60.49027858125,61.10150550000001,66.0,95.0
307,60.998751581250005,61.246632168750004,50.0,95.0
308,61.25298808125,61.51463981250001,69.0,95.0
309,61.25298808125,61.531588912500006,38.0,95.0
310,61.25298808125,61.620571687500004,62.0,95.0
311,61.25298808125,61.664003756250004,66.0,95.0
312,61.50722458125001,61.69048672500001,50.0,95.0
313,61.761461081250005,61.999807800000006,43.0,95.0
314,62.01569758125001,62.249807025,55.0,95.0
315,61.761461081250005,62.40764551875001,71.0,95.0
316,61.761461081250005,62.448958950000005,62.0,95.0
317,61.761461081250005,62.463789412500006,67.0,95.0
318,62.26993408125001,62.545356956250004,43.0,95.0
319,62.524170581250004,62.765695256250005,55.0,95.0
320,62.77840708125001,63.06654178125001,43.0,95.0
321,62.524170581250004,63.11950771875001,62.0,95.0
322,62.524170581250004,63.129041587500005,71.0,95.0
323,62.524170581250004,63.165058425000005,67.0,95.0
324,63.03264358125001,63.33137146875001,55.0,95.0
325,63.286880081250004,63.550650450000006,43.0,95.0
326,63.286880081250004,63.55912500000001,67.0,95.0
327,63.286880081250004,63.582430012500005,62.0,95.0
328,63.286880081250004,63.59408251875001,71.0,95.0
329,63.54111658125001,63.76357351875001,55.0,95.0
330,63.795353081250006,64.0824284625,45.0,95.0
331,64.04958958125,64.30594471875001,57.0,95.0
332,63.795353081250006,64.40763931875,69.0,95.0
333,63.795353081250006,64.436240925,64.0,95.0
334,63.795353081250006,64.45954593750001,61.0,95.0
335,64.30382608125001,64.614206475,45.0,95.0
336,64.55806258125001,64.82712954375,57.0,95.0
337,64.55806258125001,65.10784901250001,69.0,95.0
338,64.81229908125,65.1247981125,45.0,95.0
339,64.55806258125001,65.13856925625001,64.0,95.0
340,64.55806258125001,65.139628575,61.0,95.0
341,65.06653558125001,65.34407709375,57.0,95.0
342,65.32077208125001,65.62797451875001,45.0,95.0
343,65.32077208125001,65.64704225625,61.0,95.0
344,65.32077208125001,65.65551680625,69.0,95.0
345,65.57500858125,65.65975408125,57.0,95.0
346,65.32077208125001,65.75615208750001,64.0,95.0
347,65.82924508125001,66.15975253125,38.0,95.0
348,66.08348158125001,66.26356576875001,50.0,95.0
349,65.82924508125001,66.40339584375,69.0,95.0
350,65.82924508125001,66.43941268125,62.0,95.0
351,65.82924508125001,66.44682791250001,66.0,95.0
352,66.33771808125,66.614200275,38.0,95.0
353,66.59195458125001,66.85042835625,50.0,95.0
354,66.84619108125001,67.13220714375001,38.0,89.0
355,66.59195458125001,67.15763079375,66.0,87.0
356,66.59195458125001,67.15974943125,69.0,87.0
357,66.59195458125001,67.16610534375,62.0,87.0
358,67.10042758125,67.376909775,50.0,89.0
359,67.35466408125001,67.53686690625001,66.0,89.0
360,67.35466408125001,67.53686690625001,69.0,89.0
361,67.35466408125001,67.60572262500001,62.0,89.0
362,67.35466408125001,67.6502140125,38.0,89.0
363,67.60890058125001,67.800637275,50.0,91.0
364,67.85466253125,68.10148380000001,42.0,91.0
365,68.0908906125,68.33559324375001,54.0,91.0
366,67.86313708125,68.43940648125,66.0,91.0
367,67.86313708125,68.44152511875001,58.0,91.0
368,67.86313708125,68.45211830625,61.0,91.0
369,68.34618643125,68.631143175,42.0,93.0
370,68.588770425,68.8536001125,54.0,93.0
371,68.62584658125,69.11101456875001,58.0,93.0
372,68.62584658125,69.11101456875001,66.0,93.0
373,68.62584658125,69.12266707500001,61.0,93.0
374,68.86419330000001,69.1332602625,42.0,95.0
375,69.10042138125,69.34512401250001,54.0,95.0
376,69.38855608125,69.57075890625,58.0,97.0
377,69.38855608125,69.57817413750001,66.0,97.0
378,69.35677651875001,69.62160620625001,42.0,97.0
379,69.38855608125,69.62372484375001,61.0,97.0
380,69.60147915,69.82499540625001,54.0,97.0
381,69.84618178125001,70.12372329375,43.0,97.0
382,70.09194373125001,70.32499385625,55.0,97.0
383,70.34723955000001,70.66821313125001,43.0,99.0
384,70.6163065125,70.87266165000001,55.0,99.0
385,70.87266165000001,71.14914384375001,43.0,99.0
386,70.65973858125001,71.1692709,67.0,99.0
387,70.65973858125001,71.18304204375,62.0,99.0
388,70.65973858125001,71.190457275,59.0,99.0
389,71.10677109375001,71.38431260625,55.0,99.0
390,71.37371941875001,71.64066774375,43.0,99.0
391,71.42244808125001,71.690455725,59.0,99.0
392,71.42244808125001,71.73388779375,67.0,99.0
393,71.42244808125001,71.78049781875,62.0,99.0
394,71.60888818125001,71.8408789875,55.0,99.0
395,71.85147217500001,72.17244575625001,45.0,99.0
396,72.11947981875001,72.40761451875001,57.0,99.0
397,71.93092108125,72.537910725,64.0,99.0
398,71.93092108125,72.5612157375,69.0,99.0
399,71.93092108125,72.580283475,61.0,99.0
400,72.43939408125,72.75824902500001,45.0,99.0
401,72.65125783125,72.93939253125001,57.0,99.0
402,72.69363058125,73.2222306375,61.0,99.0
403,72.69363058125,73.22964586875001,64.0,99.0
404,72.69363058125,73.23388314375,69.0,99.0
405,72.94786708125001,73.2561288375,45.0,99.0
406,73.16184946875,73.43727234375001,57.0,99.0
407,73.45634008125,73.75400865,45.0,99.0
408,73.45634008125,73.7688391125,61.0,99.0
409,73.45634008125,73.80167799375,69.0,99.0
410,73.45634008125,73.8620591625,64.0,99.0
411,73.67244110625,73.885364175,57.0,89.0
412,73.96481308125001,74.24023595625,38.0,89.0
413,74.21904958125,74.46269289375,50.0,89.0
414,73.96481308125001,74.5103622375,69.0,89.0
415,73.96481308125001,74.54214180000001,66.0,89.0
416,73.96481308125001,74.56226885625,62.0,89.0
417,74.47328608125001,74.75930214375,38.0,89.0
418,74.72752258125001,74.9849370375,50.0,89.0
419,74.72752258125001,75.24235149375001,69.0,89.0
420,74.98175908125,75.27942765,38.0,89.0
421,74.72752258125001,75.2815462875,66.0,89.0
422,74.72752258125001,75.28366492500001,62.0,89.0
423,75.23599558125001,75.47222366250001,50.0,89.0
424,75.49023208125001,75.7773074625,38.0,89.0
425,75.49023208125001,75.81544293750001,69.0,89.0
426,75.49023208125001,75.85357841250001,62.0,89.0
427,75.49023208125001,75.86523091875,66.0,89.0
428,75.74446858125,75.94679846250001,50.0,89.0
429,75.99870508125001,76.27518727500001,38.0,89.0
430,76.25294158125001,76.52942377500001,50.0,89.0
431,75.99870508125001,76.55378810625001,69.0,89.0
432,75.99870508125001,76.59510153750001,66.0,89.0
433,75.99870508125001,76.60251676875001,62.0,89.0
434,76.50717808125,76.79425346250001,38.0,89.0
435,76.76141458125001,77.01353244375001,50.0,89.0
436,76.76141458125001,77.28895531875001,69.0,89.0
437,77.01565108125001,77.3154382875,38.0,89.0
438,76.76141458125001,77.33450602500001,66.0,89.0
439,76.76141458125001,77.34403989375001,62.0,89.0
440,77.26988758125,77.52412408125001,50.0,89.0
441,77.52412408125001,77.78047921875,69.0,89.0
442,77.52412408125001,77.79954695625001,38.0,89.0
443,77.52412408125001,77.80484355,66.0,89.0
444,77.52412408125001,77.8196740125,62.0,89.0
445,77.77836058125001,77.97963114375001,50.0,89.0
446,78.03259708125,78.35251134375001,43.0,89.0
447,78.28683358125001,78.4764516375,55.0,89.0
448,78.03259708125,78.6268749,71.0,89.0
449,78.03259708125,78.64276468125001,67.0,89.0
450,78.03259708125,78.6544171875,62.0,89.0
451,78.54107008125001,78.83132341875,43.0,89.0
452,78.79530658125,79.01882283750001,55.0,89.0
453,78.79530658125,79.326025275,67.0,89.0
454,78.79530658125,79.3387371,62.0,89.0
455,79.04954308125001,79.33979641875001,43.0,89.0
456,78.79530658125,79.33979641875001,71.0,89.0
457,79.30377958125001,79.52623651875001,55.0,89.0
458,79.55801608125,79.8133119,43.0,89.0
459,79.55801608125,79.83343895625,71.0,89.0
460,79.55801608125,79.8705151125,62.0,89.0
461,79.55801608125,79.88216761875,67.0,89.0
462,79.81225258125001,80.05589589375,55.0,89.0
463,80.06648908125001,80.376869475,45.0,89.0
464,80.26140373125001,80.503987725,57.0,89.0
465,80.06648908125001,80.58131799375,69.0,89.0
466,80.06648908125001,80.63216529375,61.0,89.0
467,80.06648908125001,80.63746188750001,64.0,89.0
468,80.57496208125,80.893817025,45.0,89.0
469,80.78894446875,81.01246072500001,57.0,89.0
470,80.70208033125,81.34402749375,69.0,89.0
471,80.70208033125,81.368391825,61.0,89.0
472,80.70208033125,81.37156978125,64.0,89.0
473,81.08343508125,81.40229002500001,45.0,89.0
474,81.28788360000001,81.54529805625,57.0,89.0
475,81.59190808125001,81.67559426250001,69.0,89.0
476,81.59190808125001,81.69360268125001,64.0,89.0
477,81.59190808125001,81.74233134375001,61.0,89.0
478,81.59190808125001,81.89911051875,45.0,89.0
479,81.78894136875,82.01245762500001,57.0,89.0
480,82.10038108125,82.42135466250001,42.0,89.0
481,82.35461758125001,82.60037953125001,54.0,89.0
482,82.10038108125,82.74232824375001,61.0,89.0
483,82.10038108125,82.74444688125001,58.0,89.0
484,82.10038108125,82.75292143125,66.0,89.0
485,82.60885408125,82.9298276625,42.0,89.0
486,82.86309058125,83.14063209375001,54.0,89.0
487,82.86309058125,83.33872470000001,66.0,89.0
488,82.86309058125,83.36626698750001,61.0,89.0
489,82.86309058125,83.37262290000001,58.0,89.0
490,83.11732708125001,83.41711428750001,42.0,89.0
491,83.37156358125,83.63745258750001,54.0,89.0
492,83.62580008125,83.86520611875001,66.0,89.0
493,83.62580008125,83.9171127375,58.0,89.0
494,83.62580008125,83.93406183750001,42.0,89.0
495,83.62580008125,83.93618047500001,61.0,89.0
496,83.88003658125001,84.12579853125001,54.0,89.0
497,84.13427308125002,84.45418734375001,42.0,89.0
498,84.38850958125,84.65333926875,54.0,89.0
499,84.13427308125002,84.77622024375,66.0,89.0
500,84.13427308125002,84.78045751875001,58.0,89.0
501,84.13427308125002,84.7942286625,61.0,89.0
502,84.64274608125001,84.97431285,42.0,89.0
503,84.89698258125001,85.15333771875001,54.0,89.0
504,85.15121908125,85.45842151875001,42.0,89.0
505,85.15121908125,85.65227685,66.0,89.0
506,85.40545558125001,85.66181071875,54.0,89.0
507,85.15121908125,85.71371733750001,61.0,89.0
508,85.65969208125001,85.71371733750001,61.0,89.0
509,85.15121908125,85.715835975,58.0,89.0
510,85.65969208125001,85.715835975,58.0,89.0
511,85.65969208125001,85.89380152500001,66.0,89.0
512,85.65969208125001,85.9467674625,42.0,89.0
513,85.91392858125,86.0526993375,54.0,89.0
514,86.16816508125001,86.83129861875001,62.0,89.0
515,86.16816508125001,86.84612908125001,71.0,89.0
516,86.16816508125001,86.85672226875,47.0,89.0
517,86.16816508125001,86.85778158750001,66.0,89.0
518,86.93087458125001,86.995493025,47.0,89.0
519,86.93087458125001,87.54210150000002,71.0,89.0
520,86.93087458125001,87.56010991875002,62.0,89.0
521,86.93087458125001,87.57282174375001,66.0,89.0
522,87.18511108125001,88.04739654375001,47.0,89.0
523,87.69358408125001,88.07917610625,71.0,89.0
524,87.69358408125001,88.09612520625001,62.0,89.0
525,87.69358408125001,88.1183709,66.0,89.0
526,88.20205708125,88.81222468125002,47.0,89.0
527,88.20205708125,88.83764833125001,62.0,89.0
528,88.20205708125,88.88425835625002,71.0,89.0
529,88.20205708125,88.90968200625001,66.0,89.0
530,88.96476658125,89.05057140000001,47.0,89.0
531,88.96476658125,89.52832415625001,71.0,89.0
532,88.96476658125,89.53891734375001,62.0,89.0
533,88.96476658125,89.56857826875,66.0,89.0
534,89.72747608125,89.86095024375001,62.0,89.0
535,89.72747608125,90.03467851875001,71.0,89.0
536,89.21900308125001,90.08128854375,47.0,89.0
537,89.72747608125,90.0992969625,66.0,89.0
538,90.23594908125001,90.86306578125001,43.0,89.0
539,90.23594908125001,90.93933673125001,71.0,89.0
540,90.23594908125001,90.94145536875001,62.0,89.0
541,90.23594908125001,90.94145536875001,67.0,89.0
542,90.99865858125001,91.05268383750001,43.0,89.0
543,90.99865858125001,91.91814725625001,71.0,89.0
544,90.99865858125001,91.92238453125,62.0,89.0
545,90.99865858125001,91.93191840000001,67.0,89.0
546,91.25289508125,92.08128234375,43.0,89.0
547,92.01560458125,92.15437533750001,62.0,89.0
548,92.01560458125,92.19145149375001,71.0,89.0
549,92.01560458125,92.198866725,67.0,89.0
550,92.26984108125001,92.90966960625,43.0,89.0
551,92.26984108125001,92.94780508125001,62.0,89.0
552,92.26984108125001,92.94780508125001,71.0,89.0
553,92.26984108125001,92.95416099375001,67.0,89.0
554,93.03255058125,93.10670289375001,43.0,89.0
555,93.03255058125,93.64907409375,71.0,89.0
556,93.03255058125,93.6670825125,62.0,89.0
557,93.03255058125,93.71581117500001,67.0,89.0
558,93.79526008125,94.11517434375001,71.0,89.0
559,93.79526008125,94.1353014,62.0,89.0
560,93.28678708125001,94.18297074375,43.0,89.0
561,93.79526008125,94.21475030625001,67.0,89.0
562,94.30373308125002,94.92449386875,42.0,89.0
563,94.30373308125002,94.9848750375,70.0,89.0
564,94.30373308125002,94.99652754375,61.0,89.0
565,94.30373308125002,95.00076481875001,66.0,89.0
566,95.06644258125002,95.13106102500001,42.0,89.0
567,95.06644258125002,95.68190677500002,70.0,89.0
568,95.06644258125002,95.70733042500001,66.0,89.0
569,95.06644258125002,95.72110156875002,61.0,89.0
570,95.32067908125,96.17554931250001,42.0,89.0
571,95.82915208125002,96.17872726875001,70.0,89.0
572,95.82915208125002,96.21898138125,61.0,89.0
573,95.82915208125002,96.22321865625001,66.0,89.0
574,96.33762508125001,96.87787764375001,42.0,89.0
575,96.33762508125001,96.92660630625001,70.0,89.0
576,96.33762508125001,96.96156382500001,61.0,89.0
577,96.33762508125001,96.9636824625,66.0,89.0
578,97.10033458125001,97.15330051875002,42.0,89.0
579,97.10033458125001,97.66389215625001,70.0,89.0
580,97.10033458125001,97.6924937625,66.0,89.0
581,97.10033458125001,97.69355308125002,61.0,89.0
582,97.86304408125001,98.11304330625,61.0,89.0
583,97.86304408125001,98.16389060625,70.0,89.0
584,97.35457108125001,98.23274632500001,42.0,89.0
585,97.86304408125001,98.27829703125,66.0,89.0
586,98.37151708125,98.95202375625001,47.0,91.0
587,98.37151708125,98.96155762500001,71.0,91.0
588,98.37151708125,99.0166422,62.0,91.0
589,98.37151708125,99.0166422,66.0,91.0
590,99.13422658125,99.19884502500001,47.0,91.0
591,98.87999008125001,99.28041256875001,59.0,91.0
592,99.13422658125,99.69672483750001,71.0,91.0
593,99.13422658125,99.749690775,62.0,91.0
594,99.13422658125,99.75075009375001,66.0,91.0
595,99.64269958125001,99.93824951250001,59.0,91.0
596,99.38846308125001,100.20625715625,47.0,91.0
597,99.89693608125,100.26240105000001,71.0,91.0
598,99.89693608125,100.317485625,62.0,91.0
599,99.89693608125,100.32807881250001,66.0,91.0
600,100.15117258125001,100.45943433750001,59.0,91.0
601,100.40540908125001,100.986975075,71.0,91.0
602,100.40540908125001,101.00286485625001,47.0,91.0
603,100.40540908125001,101.01451736250002,66.0,91.0
604,100.40540908125001,101.02511055000001,62.0,91.0
605,101.16811858125001,101.23379634375002,47.0,91.0
606,100.91388208125001,101.40964325625,59.0,91.0
607,101.16811858125001,101.70519318750002,71.0,91.0
608,101.16811858125001,101.73697275,62.0,91.0
609,101.16811858125001,101.73803206875002,66.0,91.0
610,101.67659158125001,101.98485333750001,59.0,91.0
611,101.42235508125,102.13739523750002,47.0,91.0
612,101.93082808125001,102.25921689375001,71.0,91.0
613,101.93082808125001,102.3195980625,62.0,91.0
614,101.93082808125001,102.32383533750001,66.0,91.0
615,102.43930108125001,103.01451116250001,71.0,91.0
616,102.43930108125001,103.02404503125001,47.0,91.0
617,102.43930108125001,103.0526466375,62.0,91.0
618,102.43930108125001,103.07912960625,66.0,91.0
619,103.20201058125001,103.2772222125,47.0,91.0
620,102.43930108125001,103.51027233750001,59.0,91.0
621,103.20201058125001,103.73802586875001,71.0,91.0
622,103.20201058125001,103.75921224375001,62.0,91.0
623,103.20201058125001,103.81959341250001,66.0,91.0
624,103.96472008125001,104.22107521875002,62.0,91.0
625,103.96472008125001,104.2560327375,71.0,91.0
626,103.71048358125002,104.30793935625002,59.0,91.0
627,103.45624708125001,104.35137142500001,47.0,91.0
628,103.96472008125001,104.36302393125001,66.0,91.0
629,104.47319308125002,105.02827610625,49.0,91.0
630,104.47319308125002,105.14268253125002,61.0,91.0
631,104.47319308125002,105.14374185000001,68.0,91.0
632,104.47319308125002,105.17975868750001,65.0,91.0
633,105.23590258125002,105.31217353125001,49.0,91.0
634,105.23590258125002,105.8450108625,68.0,91.0
635,105.23590258125002,105.86513791875001,61.0,91.0
636,105.23590258125002,105.9170445375,65.0,91.0
637,105.99861208125002,106.2200097,68.0,91.0
638,105.99861208125002,106.26238245,61.0,91.0
639,105.99861208125002,106.270857,65.0,91.0
640,105.49013908125,106.33335680625001,49.0,91.0
641,106.50708508125001,106.91492280000001,66.0,91.0
642,106.50708508125001,107.10030358125002,47.0,91.0
643,106.50708508125001,107.16704066250001,59.0,91.0
644,106.50708508125001,107.1691593,62.0,91.0
645,107.26979458125001,107.334413025,47.0,91.0
646,107.01555808125,107.41703988750001,54.0,91.0
647,107.26979458125001,108.0399193125,66.0,91.0
648,107.26979458125001,108.1416139125,59.0,91.0
649,107.26979458125001,108.14373255000001,62.0,91.0
650,107.52403108125002,108.33440992500002,47.0,91.0
651,108.28674058125002,108.37678267500002,66.0,91.0
652,108.28674058125002,108.4085622375,62.0,91.0
653,108.28674058125002,108.41279951250002,59.0,91.0
654,108.03250408125001,108.55157026875001,54.0,91.0
655,108.54097708125,108.98695027500001,52.0,91.0
656,108.54097708125,109.10665329375001,40.0,91.0
657,109.04945008125001,109.10665329375001,40.0,91.0
658,108.54097708125,109.13631421875002,67.0,91.0
659,108.54097708125,109.16491582500001,62.0,91.0
660,108.54097708125,109.198814025,59.0,91.0
661,108.54097708125,109.198814025,64.0,91.0
662,109.30368658125,109.35559320000002,40.0,91.0
663,109.30368658125,109.35559320000002,40.0,91.0
664,109.04945008125001,109.49012668125,52.0,91.0
665,109.30368658125,109.84182050625002,67.0,91.0
666,109.30368658125,109.85876960625001,62.0,91.0
667,109.30368658125,109.86724415625001,64.0,91.0
668,109.30368658125,109.88631189375,59.0,91.0
669,109.81215958125001,110.20516683750002,52.0,91.0
670,109.55792308125001,110.37465783750001,40.0,91.0
671,110.32063258125001,110.37465783750001,40.0,91.0
672,110.06639608125,110.37571715625,67.0,91.0
673,110.06639608125,110.38948830000001,64.0,91.0
674,110.06639608125,110.40220012500001,62.0,91.0
675,110.06639608125,110.42232718125001,59.0,91.0
676,110.57486908125001,111.15749439375001,67.0,91.0
677,110.57486908125001,111.17868076875001,43.0,91.0
678,110.57486908125001,111.18715531875002,59.0,91.0
679,110.57486908125001,111.19351123125001,62.0,91.0
680,111.33757858125001,111.41384953125001,43.0,91.0
681,111.33757858125001,112.24859270625001,59.0,91.0
682,111.33757858125001,112.26024521250001,67.0,91.0
683,110.57486908125001,112.2644824875,55.0,91.0
684,111.33757858125001,112.26554180625001,62.0,91.0
685,111.59181508125,112.47634623750001,43.0,91.0
686,112.60876108125001,113.20303890000001,42.0,91.0
687,112.60876108125001,113.23058118750001,66.0,91.0
688,112.60876108125001,113.24858960625001,58.0,91.0
689,112.60876108125001,113.28142848750001,61.0,91.0
690,113.37147058125001,113.43608902500002,42.0,91.0
691,113.37147058125001,114.01341774375001,66.0,91.0
692,113.37147058125001,114.04837526250002,58.0,91.0
693,113.37147058125001,114.04837526250002,61.0,91.0
694,114.13418008125001,114.33015405,58.0,91.0
695,114.13418008125001,114.38100135,66.0,91.0
696,113.62570708125001,114.49011118125001,42.0,91.0
697,114.13418008125001,114.51129755625001,61.0,91.0
698,112.60876108125001,114.53142461250002,54.0,91.0
699,114.64265308125002,115.13099902500001,59.0,91.0
700,114.64265308125002,115.17866836875001,47.0,91.0
701,114.64265308125002,115.28671888125001,74.0,91.0
702,114.64265308125002,115.31002389375001,66.0,91.0
703,114.64265308125002,115.31214253125002,71.0,91.0
704,115.40536258125002,115.49116740000001,47.0,91.0
705,115.40536258125002,116.00281835625002,74.0,91.0
706,115.40536258125002,116.03247928125,66.0,91.0
707,115.40536258125002,116.04519110625002,71.0,91.0
708,115.65959908125001,116.45938473750002,47.0,91.0
709,116.16807208125002,116.54836751250001,74.0,91.0
710,115.15112608125001,116.56319797500001,59.0,91.0
711,116.16807208125002,116.57696911875001,66.0,91.0
712,116.16807208125002,116.60451140625001,71.0,91.0
713,116.67654508125001,117.06319642500002,59.0,91.0
714,116.67654508125001,117.30048382500001,47.0,91.0
715,116.67654508125001,117.32802611250001,66.0,91.0
716,116.67654508125001,117.34391589375001,74.0,91.0
717,116.67654508125001,117.3534497625,71.0,91.0
718,117.43925458125001,117.51446621250001,47.0,91.0
719,117.18501808125,117.74327906250001,59.0,91.0
720,117.43925458125001,118.01128670625002,66.0,91.0
721,117.43925458125001,118.01446466250002,74.0,91.0
722,117.43925458125001,118.04094763125,71.0,91.0
723,117.69349108125002,118.42653965625001,47.0,91.0
724,118.20196408125001,118.55577654375001,74.0,91.0
725,118.20196408125001,118.56213245625001,66.0,91.0
726,117.94772758125,118.59391201875002,59.0,91.0
727,118.20196408125001,118.59708997500002,71.0,91.0
728,118.71043708125,118.99963110000002,43.0,95.0
729,118.96467358125001,119.26340146875002,55.0,93.0
730,118.71043708125,119.39581631250002,74.0,93.0
731,118.71043708125,119.41276541250001,71.0,93.0
732,118.71043708125,119.42335860000001,67.0,93.0
733,119.21891008125002,119.53882434375001,43.0,93.0
734,119.47314658125,119.75174741250001,55.0,93.0
735,119.72738308125001,120.01339914375001,43.0,93.0
736,119.47314658125,120.0737803125,74.0,93.0
737,119.47314658125,120.13204284375001,71.0,93.0
738,119.47314658125,120.13310216250001,67.0,93.0
739,119.98161958125002,120.28034746875001,55.0,93.0
740,120.23585608125,120.52293146250001,43.0,93.0
741,120.23585608125,120.60238036875,74.0,93.0
742,120.23585608125,120.64051584375001,67.0,93.0
743,120.23585608125,120.67547336250001,71.0,93.0
744,120.49009258125001,120.84814231875,55.0,93.0
745,120.74432908125002,120.99750626250001,43.0,93.0
746,120.99856558125,121.30364938125001,55.0,93.0
747,120.74432908125002,121.42441171875001,74.0,93.0
748,120.74432908125002,121.4339455875,67.0,93.0
749,120.74432908125002,121.43712354375002,71.0,93.0
750,121.25280208125001,121.50809790000001,43.0,93.0
751,121.50703858125001,121.80470715000001,55.0,93.0
752,121.50703858125001,122.05682501250001,74.0,93.0
753,121.76127508125,122.05894365000002,43.0,93.0
754,121.50703858125001,122.07165547500001,71.0,93.0
755,121.63415683125001,122.1754687125,67.0,93.0
756,122.01551158125001,122.33648516250001,55.0,93.0
757,122.26974808125001,122.51551003125002,43.0,93.0
758,122.26974808125001,122.58648438750001,67.0,93.0
759,122.26974808125001,122.65216215000001,74.0,93.0
760,122.26974808125001,122.71678059375002,71.0,93.0
761,122.52398458125,122.75703470625001,55.0,93.0
762,122.77822108125001,123.0313982625,42.0,93.0
763,123.03245758125001,123.34071933750002,54.0,93.0
764,122.77822108125001,123.43605802500001,70.0,93.0
765,122.77822108125001,123.44347325625002,61.0,93.0
766,122.77822108125001,123.44453257500001,66.0,93.0
767,123.28669408125002,123.58542196875001,42.0,93.0
768,123.54093058125001,123.81741277500001,54.0,93.0
769,123.79516708125001,124.05893745000002,42.0,93.0
770,123.54093058125001,124.06423404375,70.0,93.0
771,123.54093058125001,124.13520840000001,61.0,93.0
772,123.54093058125001,124.15321681875001,66.0,93.0
773,124.04940358125002,124.32164850000001,54.0,93.0
774,124.30364008125001,124.58753750625002,42.0,93.0
775,124.30364008125001,124.66380845625001,70.0,93.0
776,124.30364008125001,124.67016436875001,61.0,93.0
777,124.30364008125001,124.68605415000002,66.0,93.0
778,124.55787658125001,124.81317240000001,54.0,93.0
779,124.81211308125002,125.09918846250001,42.0,93.0
780,125.06634958125001,125.36401815,54.0,93.0
781,124.81211308125002,125.41486545000001,70.0,93.0
782,124.81211308125002,125.41910272500002,66.0,93.0
783,124.81211308125002,125.43393318750002,61.0,93.0
784,125.32058608125001,125.62990715625001,42.0,93.0
785,125.57482258125002,125.84918613750001,54.0,93.0
786,125.82905908125001,126.11719378125001,42.0,93.0
787,125.57482258125002,126.14261743125002,70.0,93.0
788,125.57482258125002,126.18922745625001,61.0,93.0
789,125.57482258125002,126.19240541250001,66.0,93.0
790,126.08329558125001,126.38308278750002,54.0,93.0
791,126.33753208125002,126.53880264375002,61.0,93.0
792,126.33753208125002,126.62778541875001,70.0,93.0
793,126.33753208125002,126.63625996875001,42.0,93.0
794,126.33753208125002,126.71888683125002,66.0,93.0
795,126.59176858125001,126.78456459375002,54.0,93.0
796,126.84600508125001,127.13308046250002,47.0,93.0
797,127.10024158125002,127.38519832500002,59.0,93.0
798,126.84600508125001,127.47841837500002,71.0,93.0
799,126.84600508125001,127.49430815625001,62.0,93.0
800,126.84600508125001,127.51443521250002,66.0,93.0
801,127.35447808125001,127.64896869375,47.0,93.0
802,127.60871458125001,127.89367132500001,59.0,93.0
803,127.86295108125002,128.15002646250002,47.0,93.0
804,127.60871458125001,128.2729074375,62.0,93.0
805,127.60871458125001,128.27926335,71.0,93.0
806,127.60871458125001,128.29727176875002,66.0,93.0
807,128.11718758125002,128.39578841250002,59.0,93.0
808,128.37142408125,128.57269464375003,71.0,93.0
809,128.37142408125,128.57905055625002,66.0,93.0
810,128.37142408125,128.6288385375,62.0,93.0
811,128.37142408125,128.65955878125,47.0,93.0
812,128.62566058125,128.85977002500002,59.0,93.0
813,128.87989708125002,129.17756565000002,45.0,93.0
814,129.13413358125,129.35870915625,57.0,93.0
815,128.87989708125002,129.5101917375,69.0,93.0
816,128.87989708125002,129.53455606875002,61.0,93.0
817,128.87989708125002,129.54091198125002,64.0,93.0
818,129.38837008125,129.68709796875,45.0,93.0
819,129.64260658125002,129.9084955875,57.0,93.0
820,129.89684308125,130.17438459375,45.0,93.0
821,129.64260658125002,130.27078260000002,69.0,93.0
822,129.64260658125002,130.27713851250002,61.0,93.0
823,129.64260658125002,130.29726556875002,64.0,93.0
824,130.15107958125,130.43815496250002,57.0,93.0
825,130.40531608125002,130.70404396875,45.0,93.0
826,130.40531608125002,130.70934056250002,61.0,93.0
827,130.65955258125,130.74429808125,57.0,93.0
828,130.40531608125002,130.77184036875002,69.0,93.0
829,130.40531608125002,130.82798426250002,64.0,93.0
830,130.91378908125,131.19027127500001,38.0,93.0
831,131.16802558125002,131.4127282125,50.0,93.0
832,130.91378908125,131.58645648750002,66.0,93.0
833,130.91378908125,131.588575125,69.0,93.0
834,130.91378908125,131.6076428625,62.0,93.0
835,131.42226208125,131.72098996875002,38.0,93.0
836,131.67649858125,131.95404009375002,50.0,93.0
837,131.93073508125002,132.19874272500002,38.0,93.0
838,131.67649858125,132.23793751875002,69.0,93.0
839,131.67649858125,132.26442048750002,62.0,93.0
840,131.67649858125,132.2728950375,66.0,93.0
841,132.18497158125,132.45191990625003,50.0,93.0
842,132.43920808125,132.45191990625003,50.0,93.0
843,132.43920808125,132.73793596875,38.0,93.0
844,132.43920808125,132.87035081250002,69.0,93.0
845,132.43920808125,132.89471514375,62.0,93.0
846,132.43920808125,132.89895241875,66.0,93.0
847,132.69344458125002,132.92543538750002,50.0,93.0
848,132.94768108125,133.00064701875002,50.0,93.0
849,132.94768108125,133.21357008750002,38.0,93.0
850,133.20191758125,133.43920498125001,50.0,93.0
851,132.94768108125,133.57056050625002,62.0,93.0
852,132.94768108125,133.571619825,69.0,93.0
853,132.94768108125,133.58962824375,66.0,93.0
854,133.45615408125002,133.77394970625002,38.0,93.0
855,133.71039058125,133.98687277500002,50.0,93.0
856,133.96462708125,134.2538211,38.0,93.0
857,133.71039058125,134.28242270625,69.0,93.0
858,133.71039058125,134.29619385,62.0,93.0
859,133.71039058125,134.30572771875,66.0,93.0
860,134.21886358125002,134.452973025,50.0,93.0
861,134.47310008125,134.7601754625,38.0,93.0
862,134.72733658125,134.88623439375002,50.0,93.0
863,134.47310008125,134.93072578125,62.0,93.0
864,134.47310008125,134.93072578125,69.0,93.0
865,134.47310008125,134.95720875,66.0,93.0
866,134.98157308125002,135.42119036250003,55.0,93.0
867,134.98157308125002,135.605511825,71.0,93.0
868,134.98157308125002,135.61398637500002,62.0,93.0
869,134.98157308125002,135.630935475,67.0,93.0
870,135.49004608125,136.00911226875002,55.0,93.0
871,135.74428258125002,136.31737402500002,71.0,93.0
872,135.74428258125002,136.35233154375,62.0,93.0
873,135.74428258125002,136.3555095,67.0,93.0
874,136.25275558125,136.64788147500002,55.0,91.0
875,134.98157308125002,136.81631315625,43.0,93.0
876,136.50699208125002,136.82478770625002,62.0,91.0
877,136.50699208125002,136.83855885000003,71.0,91.0
878,136.50699208125002,136.8618638625,67.0,91.0
879,136.76122858125,136.99851598125002,55.0,91.0
880,137.01546508125,137.5927938,69.0,91.0
881,137.01546508125,137.6160988125,64.0,91.0
882,137.01546508125,137.63622586875002,61.0,91.0
883,137.52393808125,138.01122470625,57.0,91.0
884,137.77817458125003,138.3872828625,69.0,91.0
885,137.77817458125003,138.39893536875002,61.0,91.0
886,137.77817458125003,138.4042319625,64.0,91.0
887,137.01546508125,138.79617990000003,45.0,91.0
888,138.54088408125003,138.8364340125,61.0,91.0
889,138.54088408125003,138.85867970625,69.0,91.0
890,138.28664758125,138.89045926875002,57.0,91.0
891,138.54088408125003,138.90317109375002,64.0,91.0
892,139.04935708125,139.60020283125002,69.0,91.0
893,139.04935708125,139.64257558125001,66.0,91.0
894,139.04935708125,139.65210945,62.0,91.0
895,139.55783008125002,139.99003213125002,57.0,91.0
896,139.81206658125,140.4084630375,69.0,91.0
897,139.81206658125,140.4211748625,66.0,91.0
898,139.81206658125,140.42223418125002,62.0,91.0
899,139.04935708125,140.83113121875002,50.0,91.0
900,140.32053958125002,140.83960576875,57.0,91.0
901,140.57477608125,140.92329195000002,69.0,91.0
902,140.57477608125,140.9254105875,66.0,91.0
903,140.57477608125,140.93388513750003,62.0,91.0
904,141.08324908125002,141.67011166875002,71.0,91.0
905,141.08324908125002,141.68282349375002,66.0,91.0
906,141.08324908125002,141.69871327500002,62.0,91.0
907,141.59172208125003,142.01756821875,59.0,91.0
908,141.84595858125002,142.36926204375,71.0,91.0
909,141.84595858125002,142.38091455,62.0,91.0
910,141.84595858125002,142.38938910000002,66.0,91.0
911,142.35443158125003,142.6669306125,59.0,91.0
912,141.33748558125,142.69447290000002,54.0,91.0
913,141.08324908125002,142.74743883750003,47.0,91.0
914,142.60866808125002,142.92434506875,71.0,91.0
915,142.60866808125002,142.94341280625002,62.0,91.0
916,142.60866808125002,142.95718395,66.0,91.0
917,143.11714108125003,143.563114275,55.0,91.0
918,143.11714108125003,143.71989345,67.0,91.0
919,143.11714108125003,143.72095276875,71.0,91.0
920,143.11714108125003,143.73260527500003,62.0,91.0
921,143.62561408125,144.03451111875,55.0,91.0
922,143.87985058125003,144.4211624625,67.0,91.0
923,143.87985058125003,144.42222178125002,71.0,91.0
924,143.87985058125003,144.4381115625,62.0,91.0
925,144.64256008125002,144.9253981875,71.0,91.0
926,144.64256008125002,144.9508218375,67.0,91.0
927,144.64256008125002,144.95294047500002,62.0,91.0
928,143.11714108125003,144.96671161875003,43.0,91.0
929,144.38832358125,144.97942344375002,55.0,91.0
930,145.15103308125,145.71988725000003,71.0,91.0
931,145.15103308125,145.73259907500002,67.0,91.0
932,145.15103308125,145.74001430625,62.0,91.0
933,145.15103308125,146.16586044375,55.0,91.0
934,145.91374258125,146.53768132500002,71.0,91.0
935,145.91374258125,146.54509655625,62.0,91.0
936,145.91374258125,146.5525117875,67.0,91.0
937,146.42221558125001,146.78768055,55.0,91.0
938,145.15103308125,146.79721441875,43.0,91.0
939,146.67645208125,146.82475670625,62.0,91.0
940,146.67645208125,146.82475670625,71.0,91.0
941,146.67645208125,146.8279346625,67.0,91.0
942,147.18492508125001,147.5991187125,54.0,91.0
943,147.18492508125001,147.79403336250002,70.0,91.0
944,147.18492508125001,147.81416041875002,66.0,91.0
945,147.18492508125001,147.81627905625,61.0,91.0
946,147.69339808125002,148.1457271875,54.0,91.0
947,147.94763458125,148.4804719125,70.0,91.0
948,147.94763458125,148.51860738750003,66.0,91.0
949,147.94763458125,148.5397937625,61.0,91.0
950,148.71034408125,149.00271605625002,70.0,91.0
951,148.71034408125,149.02284311250003,66.0,91.0
952,147.18492508125001,149.0270803875,42.0,91.0
953,148.71034408125,149.02919902500003,61.0,91.0
954,148.45610758125002,149.04191085000002,54.0,91.0
955,149.21881708125002,149.53025679375003,70.0,91.0
956,149.21881708125002,149.53449406875,54.0,91.0
957,149.21881708125002,149.53873134375002,66.0,91.0
958,149.21881708125002,149.54508725625,61.0,91.0
959,149.21881708125002,149.54614657500002,42.0,91.0
960,149.72729008125,150.01436546250002,70.0,91.0
961,149.72729008125,150.04614502500002,42.0,89.0
962,149.72729008125,150.04614502500002,66.0,89.0
963,149.72729008125,150.0525009375,61.0,89.0
964,149.72729008125,150.054619575,54.0,89.0
965,150.23576308125,150.529194375,70.0,89.0
966,150.23576308125,150.53766892500002,66.0,89.0
967,150.23576308125,150.54402483750002,61.0,89.0
968,150.23576308125,150.5524993875,42.0,89.0
969,150.23576308125,150.55355870625002,54.0,89.0
970,150.74423608125002,151.09487058750003,70.0,91.0
971,150.74423608125002,151.0991078625,61.0,89.0
972,150.74423608125002,151.10228581875,66.0,91.0
973,150.74423608125002,151.13194674375,54.0,89.0
974,150.74423608125002,151.14677720625002,42.0,89.0
975,151.25270908125,151.55249628750002,43.0,87.0
976,151.50694558125002,151.741055025,55.0,87.0
977,151.25270908125,151.85016485625002,67.0,87.0
978,151.25270908125,151.88194441875,62.0,87.0
979,151.25270908125,151.88724101250003,59.0,87.0
980,151.76118208125,152.04931678125,43.0,87.0
981,152.01541858125,152.26012121250002,55.0,87.0
982,152.26965508125002,152.5567304625,43.0,87.0
983,152.01541858125,152.57791683750003,67.0,87.0
984,152.01541858125,152.61287435625002,59.0,87.0
985,152.01541858125,152.61817095,62.0,87.0
986,152.52389158125,152.78978058750002,55.0,87.0
987,152.77812808125,153.04507640625002,59.0,95.0
988,152.77812808125,153.05778823125002,67.0,95.0
989,152.77812808125,153.06414414375,43.0,95.0
990,152.77812808125,153.16901670000001,62.0,95.0
991,153.03236458125002,153.24528765000002,55.0,95.0
992,153.28660108125,153.58532896875002,45.0,95.0
993,153.28660108125,153.85121797500003,69.0,95.0
994,153.54083758125,153.8618111625,57.0,95.0
995,153.28660108125,153.86392980000002,61.0,95.0
996,153.28660108125,153.89676868125002,64.0,95.0
997,153.79507408125002,154.10333583750003,45.0,95.0
998,154.04931058125,154.33744528125,57.0,95.0
999,154.04931058125,154.588503825,69.0,95.0
1000,154.30354708125,154.6118088375,45.0,95.0
1001,154.04931058125,154.61816475,61.0,95.0
1002,154.04931058125,154.63299521250002,64.0,95.0
1003,154.55778358125002,154.85863010625002,57.0,95.0
1004,154.81202008125,155.10121410000002,61.0,95.0
1005,154.81202008125,155.11710388125002,69.0,95.0
1006,154.81202008125,155.12981570625,45.0,95.0
1007,155.06625658125,155.16159526875,57.0,95.0
1008,154.81202008125,155.2177391625,64.0,95.0
1009,155.32049308125002,155.60862778125002,38.0,95.0
1010,155.57472958125,155.84061858750002,50.0,95.0
1011,155.32049308125002,155.94231318750002,69.0,95.0
1012,155.32049308125002,155.96879615625002,62.0,95.0
1013,155.32049308125002,155.986804575,66.0,95.0
1014,155.82896608125,156.12769396875,38.0,95.0
1015,156.08320258125002,156.37345591875,50.0,95.0
1016,156.33743908125,156.6160399125,38.0,95.0
1017,156.59167558125,156.84909003750002,50.0,95.0
1018,156.08320258125002,157.10438585625002,66.0,95.0
1019,156.08320258125002,157.11286040625,69.0,95.0
1020,156.08320258125002,157.1160383625,62.0,95.0
1021,156.84591208125002,157.1329874625,38.0,95.0
1022,157.10014858125,157.3448512125,50.0,95.0
1023,157.35438508125003,157.64251978125,38.0,95.0
1024,157.60862158125002,157.83319715625,50.0,95.0
1025,157.35438508125003,157.97090859375,62.0,95.0
1026,157.35438508125003,157.97620518750003,69.0,95.0
1027,157.35438508125003,157.99633224375,66.0,95.0
1028,157.86285808125,158.173238475,38.0,95.0
1029,158.11709458125003,158.38192426875003,50.0,95.0
1030,158.37133108125002,158.66794033125,38.0,95.0
1031,158.11709458125003,158.68912670625002,69.0,95.0
1032,158.11709458125003,158.71666899375,62.0,95.0
1033,158.11709458125003,158.72832150000002,66.0,95.0
1034,158.62556758125,158.87132953125,50.0,95.0
1035,158.87980408125003,159.14145581250003,69.0,95.0
1036,158.87980408125003,159.1689981,38.0,95.0
1037,158.87980408125003,159.2473876875,62.0,95.0
1038,158.87980408125003,159.29081975625002,66.0,95.0
1039,159.13404058125002,159.30459090000002,50.0,95.0
1040,159.38827708125,159.68806428750003,43.0,95.0
1041,159.64251358125003,159.87662302500001,55.0,95.0
1042,159.38827708125,160.03446151875002,71.0,95.0
1043,159.38827708125,160.07577495,62.0,95.0
1044,159.38827708125,160.09060541250003,67.0,95.0
1045,159.89675008125002,160.18488478125002,43.0,95.0
1046,160.15098658125,160.3956892125,55.0,95.0
1047,160.40522308125003,160.69229846250002,43.0,95.0
1048,160.15098658125,160.74632371875,62.0,95.0
1049,160.15098658125,160.7558575875,71.0,95.0
1050,160.15098658125,160.791874425,67.0,95.0
1051,160.65945958125002,160.92534858750003,55.0,95.0
1052,160.91369608125,161.185941,67.0,95.0
1053,160.91369608125,161.19971214375002,43.0,95.0
1054,160.91369608125,161.20924601250002,62.0,95.0
1055,160.91369608125,161.22089851875,71.0,95.0
1056,161.16793258125003,161.38085565000003,55.0,95.0
1057,161.42216908125002,161.72089696875003,45.0,95.0
1058,161.67640558125,161.9973791625,57.0,95.0
1059,161.42216908125002,162.03445531875002,69.0,95.0
1060,161.42216908125002,162.063056925,64.0,95.0
1061,161.42216908125002,162.08636193750002,61.0,95.0
1062,161.93064208125003,162.2389038375,45.0,95.0
1063,162.18487858125002,162.47301328125002,57.0,95.0
1064,162.18487858125002,162.73466501250002,69.0,95.0
1065,162.43911508125,162.7473768375,45.0,95.0
1066,162.18487858125002,162.76538525625003,64.0,95.0
1067,162.18487858125002,162.766444575,61.0,95.0
1068,162.69335158125003,162.99419810625002,57.0,95.0
1069,162.94758808125002,163.26538370625002,45.0,95.0
1070,162.94758808125002,163.27385825625,61.0,95.0
1071,162.94758808125002,163.28233280625003,69.0,95.0
1072,163.20182458125,163.29716326875,57.0,95.0
1073,162.94758808125002,163.38296808750002,64.0,95.0
1074,163.45606108125003,163.74419578125003,38.0,95.0
1075,163.71029758125002,163.97618658750002,50.0,95.0
1076,163.45606108125003,164.03021184375,69.0,95.0
1077,163.45606108125003,164.06622868125,62.0,95.0
1078,163.45606108125003,164.07364391250002,66.0,95.0
1079,163.96453408125,164.26326196875002,38.0,95.0
1080,164.21877058125003,164.50902391875002,50.0,95.0
1081,164.47300708125002,164.75160791250002,38.0,95.0
1082,164.21877058125003,164.78444679375002,66.0,95.0
1083,164.21877058125003,164.78656543125,69.0,95.0
1084,164.21877058125003,164.79292134375,62.0,95.0
1085,164.72724358125,164.98465803750003,50.0,95.0
1086,164.98148008125003,165.16368290625002,66.0,95.0
1087,164.98148008125003,165.16368290625002,69.0,95.0
1088,164.98148008125003,165.23253862500002,62.0,95.0
1089,164.98148008125003,165.26855546250002,38.0,95.0
1090,165.23571658125002,165.4804192125,50.0,95.0
1091,165.48995308125,165.77702846250003,42.0,95.0
1092,165.74418958125003,166.00901926875002,54.0,95.0
1093,165.48995308125,166.06622248125,66.0,95.0
1094,165.48995308125,166.06834111875003,58.0,95.0
1095,165.48995308125,166.07893430625,61.0,95.0
1096,165.99842608125002,166.291857375,42.0,95.0
1097,166.25266258125,166.50689908125003,54.0,95.0
1098,166.25266258125,166.73783056875,58.0,95.0
1099,166.25266258125,166.73783056875,66.0,95.0
1100,166.25266258125,166.74948307500003,61.0,95.0
1101,166.50689908125003,166.8130422,42.0,95.0
1102,166.76113558125002,167.04715164375003,54.0,95.0
1103,167.01537208125,167.19757490625003,58.0,95.0
1104,167.01537208125,167.2049901375,66.0,95.0
1105,167.01537208125,167.25054084375,61.0,95.0
1106,167.01537208125,167.2706679,42.0,95.0
1107,167.26960858125003,167.47193846250002,54.0,95.0
1108,167.52384508125002,167.78231885625001,43.0,95.0
1109,167.77808158125,168.0693942375,55.0,95.0
1110,168.03231808125003,168.31833414375,43.0,95.0
1111,168.28655458125002,168.554562225,55.0,95.0
1112,168.28655458125002,168.7960869,67.0,95.0
1113,168.28655458125002,168.80985804375,62.0,95.0
1114,168.54079108125,168.81727327500002,43.0,95.0
1115,168.28655458125002,168.81727327500002,59.0,95.0
1116,168.79502758125003,169.06303522500002,55.0,95.0
1117,169.04926408125002,169.317271725,59.0,95.0
1118,169.04926408125002,169.32786491250002,43.0,95.0
1119,169.04926408125002,169.36070379375002,67.0,95.0
1120,169.04926408125002,169.40731381875003,62.0,95.0
1121,169.30350058125,169.52807615625002,55.0,95.0
1122,169.55773708125002,169.88718521250001,45.0,95.0
1123,169.81197358125002,170.05773553125002,57.0,95.0
1124,169.55773708125002,170.164726725,64.0,95.0
1125,169.55773708125002,170.1880317375,69.0,95.0
1126,169.55773708125002,170.207099475,61.0,95.0
1127,170.06621008125,170.37553115625002,45.0,95.0
1128,170.32044658125002,170.596928775,57.0,95.0
1129,170.57468308125001,170.8490466375,45.0,95.0
1130,170.32044658125002,170.8490466375,61.0,95.0
1131,170.32044658125002,170.85646186875002,64.0,95.0
1132,170.32044658125002,170.86069914375003,69.0,95.0
1133,170.82891958125,171.10434245625,57.0,95.0
1134,171.08315608125002,171.38188396875,45.0,95.0
1135,171.08315608125002,171.3956551125,61.0,95.0
1136,171.08315608125002,171.42849399375,69.0,95.0
1137,171.08315608125002,171.48887516250002,64.0,95.0
1138,171.33739258125001,171.52806995625002,57.0,95.0
1139,171.59162908125,171.85645876875003,38.0,95.0
1140,171.84586558125002,172.08209366250003,50.0,95.0
1141,171.59162908125,172.13717823750002,69.0,95.0
1142,171.59162908125,172.16895780000002,66.0,95.0
1143,171.59162908125,172.18908485625002,62.0,95.0
1144,172.10010208125001,172.43166885000002,38.0,95.0
1145,172.35433858125,172.59904121250003,50.0,95.0
1146,172.35433858125,172.86916749375,69.0,95.0
1147,172.60857508125002,172.9041250125,38.0,95.0
1148,172.35433858125,172.9083622875,66.0,95.0
1149,172.35433858125,172.91048092500003,62.0,95.0
1150,172.86281158125,173.12975990625003,50.0,97.0
1151,173.11704808125,173.40518278125,38.0,95.0
1152,173.11704808125,173.44225893750001,69.0,95.0
1153,173.11704808125,173.4803944125,62.0,95.0
1154,173.11704808125,173.49204691875002,66.0,95.0
1155,173.37128458125002,173.61386857500003,50.0,93.0
1156,173.62552108125,173.90200327500003,38.0,93.0
1157,173.87975758125,174.16789228125,50.0,91.0
1158,173.62552108125,174.18060410625003,69.0,91.0
1159,173.62552108125,174.22191753750002,66.0,91.0
1160,173.62552108125,174.22933276875003,62.0,91.0
1161,174.13399408125002,174.42001014375,38.0,91.0
1162,174.38823058125,174.62339934375,50.0,91.0
1163,174.38823058125,174.91577131875002,69.0,91.0
1164,174.64246708125,174.93907633125002,38.0,91.0
1165,174.38823058125,174.96132202500002,66.0,91.0
1166,174.38823058125,174.97085589375,62.0,91.0
1167,174.89670358125002,175.190134875,50.0,91.0
1168,175.15094008125,175.40729521875002,69.0,91.0
1169,175.15094008125,175.42848159375,38.0,91.0
1170,175.15094008125,175.43165955,66.0,91.0
1171,175.15094008125,175.44649001250002,62.0,91.0
1172,175.40517658125,175.58526076875,50.0,91.0
1173,175.65941308125002,176.21343678750003,43.0,91.0
1174,175.65941308125002,176.2536909,71.0,91.0
1175,175.65941308125002,176.26958068125,67.0,91.0
1176,175.65941308125002,176.28123318750002,62.0,91.0
1177,176.42212258125002,176.47508851875003,43.0,91.0
1178,176.42212258125002,176.95284127500003,67.0,91.0
1179,176.42212258125002,176.96555310000002,62.0,91.0
1180,176.42212258125002,176.96661241875003,71.0,91.0
1181,177.18483208125002,177.46025495625003,71.0,91.0
1182,177.18483208125002,177.4973311125,62.0,91.0
1183,177.18483208125002,177.50898361875002,67.0,91.0
1184,176.67635908125,177.62656800000002,43.0,91.0
1185,177.69330508125003,178.20813399375,69.0,91.0
1186,177.69330508125003,178.25898129375003,61.0,91.0
1187,177.69330508125003,178.2600406125,45.0,91.0
1188,177.69330508125003,178.26427788750001,64.0,91.0
1189,178.45601458125003,178.51957370625001,45.0,91.0
1190,178.45601458125003,178.97084349375,69.0,91.0
1191,178.45601458125003,178.99520782500002,61.0,91.0
1192,178.45601458125003,178.99838578125002,64.0,91.0
1193,179.21872408125003,179.30241026250002,69.0,91.0
1194,179.21872408125003,179.32041868125,64.0,91.0
1195,179.21872408125003,179.36914734375003,61.0,91.0
1196,178.71025108125002,179.65622272500002,45.0,91.0
1197,179.72719708125,180.30346648125,42.0,91.0
1198,179.72719708125,180.36914424375001,61.0,91.0
1199,179.72719708125,180.37126288125,58.0,91.0
1200,179.72719708125,180.37973743125002,66.0,91.0
1201,180.48990658125,180.55346570625002,42.0,91.0
1202,180.48990658125,180.96554070000002,66.0,91.0
1203,180.48990658125,180.99308298750003,61.0,91.0
1204,180.48990658125,180.99943890000003,58.0,91.0
1205,180.74414308125003,181.18905695625003,42.0,84.0
1206,181.25261608125,181.44329345625002,42.0,97.0
1207,181.50685258125003,182.14879974375,66.0,97.0
1208,181.50685258125003,182.15303701875,58.0,97.0
1209,181.50685258125003,182.16680816250002,61.0,97.0
1210,181.50685258125003,183.15303391875003,42.0,93.0
1211,183.79498108125003,184.82146095000002,66.0,99.0
1212,184.81192708125002,184.82146095000002,66.0,100.0
1213,183.79498108125003,184.8235795875,62.0,99.0
1214,184.81192708125002,184.8235795875,62.0,89.0
1215,183.79498108125003,185.78120373750002,71.0,99.0
1216,183.79498108125003,187.07145397500003,47.0,97.0
1217,185.82887308125,187.4231478,66.0,100.0
1218,183.79498108125003,187.42632575625,59.0,99.0
1219,185.82887308125,187.5862828875,71.0,90.0
1220,185.82887308125,187.59157948125002,62.0,90.0
1221,187.86276508125002,188.75788942500003,68.0,88.0
1222,187.86276508125002,188.80132149375,61.0,92.0
1223,187.86276508125002,188.80555876875002,65.0,100.0
1224,188.87971108125,189.7282254,68.0,88.0
1225,188.87971108125,189.78013201875,65.0,90.0
1226,188.87971108125,189.78225065625003,61.0,90.0
1227,189.89665708125003,190.82038303125003,61.0,86.0
1228,189.89665708125003,190.82356098750003,65.0,89.0
1229,189.89665708125003,190.84474736250002,68.0,86.0
1230,187.86276508125002,191.42207608125003,49.0,110.0
1231,190.91360308125002,191.5015249875,61.0,86.0
1232,190.91360308125002,191.51105885625003,68.0,82.0
1233,190.91360308125002,191.5417791,65.0,90.0
1234,191.93054908125,195.43901278125003,69.0,100.0
1235,191.93054908125,195.45490256250002,62.0,91.0
1236,191.93054908125,195.47502961875003,66.0,107.0
1237,191.93054908125,195.5481226125,73.0,100.0
1238,191.93054908125,195.55765648125,50.0,88.0
1239,195.99833308125002,199.68158437500003,68.0,87.0
1240,195.99833308125002,199.69535551875,61.0,90.0
1241,195.99833308125002,199.70806734375003,49.0,91.0
1242,195.99833308125002,199.76844851250002,65.0,93.0
1243,199.93899883125002,200.63708988750003,47.0,85.0
1244,200.06611708125,200.73984380625,62.0,83.0
1245,200.06611708125,200.76208950000003,66.0,87.0
1246,200.06611708125,200.766326775,71.0,88.0
