,start,end,pitch,velocity
0,2.4282466333333335,2.8814186333333334,60.0,108.0
1,2.8927479333333337,3.2798323500000004,62.0,99.0
2,3.3308142000000003,3.731116133333334,63.0,100.0
3,3.7990919333333335,4.189952783333334,65.0,108.0
4,4.2465992833333335,4.6110251,67.0,116.0
5,4.692218416666667,5.077414616666667,65.0,100.0
6,5.103849650000001,5.498486933333334,68.0,102.0
7,5.5740156,5.902565300000001,67.0,102.0
8,6.013970083333334,6.412383800000001,65.0,108.0
9,6.478471383333334,6.84856185,63.0,108.0
10,6.929755166666667,7.292292766666667,67.0,99.0
11,7.375374300000001,7.753017633333334,70.0,111.0
12,7.836099166666667,11.763589833333334,75.0,111.0
13,11.9070943,12.169556416666667,74.0,87.0
14,12.122351,12.390477766666667,75.0,92.0
15,12.352713433333335,12.609510900000002,74.0,112.0
16,12.579299433333334,12.830432250000001,72.0,105.0
17,12.794556133333334,13.091006150000002,74.0,102.0
18,13.032471433333335,13.257169216666668,72.0,97.0
19,13.262833866666668,14.307017683333335,70.0,97.0
20,14.65444955,14.907470583333335,71.0,99.0
21,14.879147333333334,15.113286200000001,72.0,92.0
22,15.122727283333335,15.337983983333334,82.0,111.0
23,15.332319333333334,15.585340366666667,80.0,94.0
24,15.547576033333334,15.8043735,79.0,102.0
25,15.777938466666669,15.966760133333334,77.0,76.0
26,15.983754083333334,16.221669383333335,80.0,80.0
27,16.191457916666668,16.469025766666668,79.0,102.0
28,16.436926083333336,16.633300616666666,77.0,102.0
29,16.638965266666666,16.84100445,75.0,87.0
30,16.861774833333335,19.127634833333335,70.0,80.0
31,16.8466691,19.127634833333335,74.0,104.0
32,19.210716366666666,19.62423581666667,72.0,111.0
33,19.660111933333337,20.084960683333335,74.0,112.0
34,20.096289983333335,20.494703700000002,75.0,108.0
35,20.54757376666667,23.328329,76.0,109.0
36,40.1161392625,40.54476444583334,56.0,52.0
37,40.50511189583334,42.166742562500005,58.0,52.0
38,41.42656162916667,42.20450689583333,62.0,54.0
39,42.285700212500004,44.13048789583334,63.0,89.0
40,45.91107621250001,47.68033522916667,67.0,45.0
41,47.64634732916667,48.63199642916667,63.0,76.0
42,48.582902795833334,49.45133424166667,60.0,69.0
43,49.49677499166667,50.16513268958334,53.0,80.0
44,50.04206399166667,50.41884354375,55.0,44.0
45,50.380976252083336,51.295471345833334,56.0,87.0
46,52.25730055416667,52.863177220833336,60.0,105.0
47,52.84613693958334,53.141501814583336,63.0,94.0
48,53.19451602291667,54.025703075,65.0,100.0
49,54.084397377083334,54.57856553333333,65.0,102.0
50,54.646726658333336,54.74896834583333,63.0,97.0
51,54.811449377083335,54.88718396041667,65.0,92.0
52,54.981852189583336,55.24124313750001,65.0,100.0
53,55.258283418750004,55.44951324166667,67.0,109.0
54,55.52146109583334,55.74298475208334,68.0,94.0
55,55.845226439583335,56.388622075,68.0,105.0
56,56.47571684583333,56.78054854375,70.0,105.0
57,56.8089490125,57.293650345833335,72.0,108.0
58,57.35613137708334,57.64581615833333,74.0,109.0
59,57.66664316875,57.93171421041667,75.0,114.0
60,57.939287668750005,58.28198665833334,80.0,111.0
61,58.23275917916667,58.62468564791667,79.0,116.0
62,58.579244897916666,59.48616653333333,77.0,120.0
63,59.522140460416665,59.72662383541667,70.0,108.0
64,59.67739635625,59.842119075,72.0,108.0
65,59.806145147916666,59.93868066875,74.0,99.0
66,59.96518777291667,60.14505740833334,75.0,89.0
67,60.11287021041667,60.46503602291667,77.0,105.0
68,60.427168731250006,61.145183637500004,79.0,99.0
69,60.44231564791667,61.145183637500004,79.0,116.0
70,62.2756646375,63.93903230416667,82.0,114.0
71,64.05512547083333,64.96864547083334,86.0,109.0
72,65.00290247083333,65.91642247083334,87.0,92.0
73,65.91642247083334,67.5144998375,91.0,111.0
74,67.74984744583334,68.49005363333333,92.0,114.0
75,68.57736000416666,69.43334203125,84.0,108.0
76,69.52444433125,70.36802777291666,89.0,108.0
77,70.44567921041666,71.27711777291667,87.0,105.0
78,71.38317827291667,71.68620827291666,77.0,108.0
79,71.38317827291667,71.68620827291666,89.0,108.0
80,71.68620827291666,71.90401108541667,75.0,105.0
81,71.68620827291666,71.90401108541667,87.0,105.0
82,71.98923827291667,72.21651077291666,74.0,112.0
83,71.98923827291667,72.21651077291666,86.0,112.0
84,72.29226827291666,72.50438927291667,73.0,97.0
85,72.29226827291666,72.50438927291667,85.0,97.0
86,72.59529827291666,72.79794958541666,72.0,117.0
87,72.59529827291666,72.79794958541666,84.0,117.0
88,72.89832827291666,73.07825233541666,68.0,100.0
89,72.89832827291666,73.07825233541666,80.0,100.0
90,73.20135827291666,73.97217674166667,70.0,120.0
91,73.20135827291666,73.97217674166667,82.0,120.0
92,74.25413142916666,74.41766514791667,72.0,108.0
93,74.3819508875,74.51352974166667,74.0,99.0
94,74.5398455125,74.71841681458334,75.0,89.0
95,74.68646195,75.0360857625,77.0,105.0
96,74.99849180416666,75.70901761666667,79.0,99.0
97,75.0135293875,75.70901761666667,79.0,116.0
98,76.82555817916666,78.46841415833333,82.0,114.0
99,78.58307573125,79.48533073125,86.0,109.0
100,79.51916529375,80.42142029375,87.0,92.0
101,80.42142029375,82.00036654375,91.0,111.0
102,82.23344908541667,82.96653127291667,92.0,114.0
103,83.05304891666667,83.90368990416667,84.0,108.0
104,83.99440650416666,84.83542498333333,89.0,108.0
105,84.91291207916666,85.74259098333333,87.0,105.0
106,85.87110616666666,86.31404596666665,80.0,111.0
107,86.33110175416667,86.73351616666666,77.0,114.0
108,86.78302861666667,87.20198011666666,75.0,120.0
109,87.22864066666666,87.66282676666667,73.0,114.0
110,87.67234839166666,88.58642439166667,75.0,102.0
111,88.58642439166667,89.48336146666666,72.0,105.0
112,89.50050039166666,90.99158686666667,70.0,94.0
113,91.78569039166666,92.03325264166666,63.0,87.0
114,92.01420939166667,92.21416351666666,58.0,84.0
115,92.24272839166666,93.14537844166667,67.0,82.0
116,95.44199439166667,95.69526961666666,63.0,87.0
117,95.67051339166666,95.76953829166666,58.0,84.0
118,95.89903239166667,96.06851731666667,70.0,94.0
119,96.12755139166667,96.26275846666667,72.0,82.0
120,96.35607039166666,96.57506776666666,67.0,99.0
121,96.58458939166667,97.34060641666667,63.0,92.0
122,100.92481904166667,101.18570804166667,51.0,100.0
123,101.15167904166667,101.36908654166666,53.0,87.0
124,101.37853904166667,101.66022354166667,55.0,79.0
125,101.60539904166667,101.80579204166666,58.0,92.0
126,101.83225904166667,102.19901604166667,63.0,77.0
127,102.28597904166666,102.84745754166667,63.0,94.0
128,102.28597904166666,102.95899704166666,68.0,105.0
129,103.34276854166667,103.50724204166667,72.0,108.0
130,103.47132254166667,103.60365754166666,74.0,99.0
131,103.63012454166667,103.80972204166667,75.0,89.0
132,103.19341904166667,104.10274954166667,65.0,100.0
133,103.19341904166667,104.10842104166667,70.0,108.0
134,103.77758354166667,104.12921654166666,77.0,105.0
135,104.09140654166667,104.80717663541667,79.0,99.0
136,104.10653054166667,104.80717663541667,79.0,116.0
137,105.93319892291666,107.59000612708333,82.0,114.0
138,107.7056414125,108.6155584125,86.0,109.0
139,108.6496803,109.5595973,87.0,92.0
140,109.5595973,111.15195204999999,91.0,111.0
141,111.38701394166667,112.12632150416667,92.0,114.0
142,112.21352188333333,113.06846473124999,84.0,108.0
143,113.15945643124999,114.00302531666667,89.0,108.0
144,114.08074739374999,114.91294231666666,87.0,105.0
145,115.0190993,115.32240496666667,77.0,108.0
146,115.0190993,115.32240496666667,89.0,108.0
147,115.32240496666667,115.54040591458333,75.0,105.0
148,115.32240496666667,115.54040591458333,87.0,105.0
149,115.62571063333333,115.85318988333333,74.0,112.0
150,115.62571063333333,115.85318988333333,86.0,112.0
151,115.9290163,116.14133026666666,73.0,97.0
152,115.9290163,116.14133026666666,85.0,97.0
153,116.23232196666666,116.43515763125,72.0,117.0
154,116.23232196666666,116.43515763125,84.0,117.0
155,116.53562763333333,116.71571537291666,68.0,100.0
156,116.53562763333333,116.71571537291666,80.0,100.0
157,116.8389333,117.61425841041667,70.0,120.0
158,116.8389333,117.61425841041667,82.0,120.0
159,117.89860747291667,118.06352992916666,72.0,108.0
160,118.02751238124999,118.16020861041666,74.0,99.0
161,118.18674785625,118.36683559583332,75.0,89.0
162,118.33460936875,118.68720220624999,77.0,105.0
163,118.64928899791666,119.36584863541665,79.0,99.0
164,118.66445428124999,119.36584863541665,79.0,116.0
165,120.49187092291666,122.14867812708333,82.0,114.0
166,122.2643134125,123.1742304125,86.0,109.0
167,123.2083523,124.1182693,87.0,92.0
168,124.1182693,125.71062404999999,91.0,111.0
169,125.94568594166665,126.68499350416667,92.0,114.0
170,126.77219388333333,127.62713673124999,84.0,108.0
171,127.71812843125,128.56169731666665,89.0,108.0
172,128.63941939375,129.47161431666666,87.0,105.0
173,129.600519225,130.0441037625,80.0,111.0
174,130.06116470625,130.46304471458333,77.0,114.0
175,130.51233188541667,130.92937717708332,75.0,120.0
176,130.95591642291666,131.38812699791666,73.0,114.0
177,131.3976053,132.3075223,75.0,102.0
178,132.3075223,133.20037835624998,72.0,105.0
179,133.2174393,134.70174140625,70.0,94.0
180,135.49223179999998,135.73866765416665,63.0,87.0
181,135.71971105,135.91875539375,58.0,84.0
182,135.9471903,136.8457333375,67.0,82.0
183,139.13189979999999,139.38402263541667,63.0,87.0
184,139.35937905,139.45795339166665,58.0,84.0
185,139.5868583,139.75557207708334,70.0,94.0
186,139.81433755,139.94892943958334,72.0,82.0
187,140.0418168,140.25981774791666,67.0,99.0
188,140.26929604999998,141.02187323541665,63.0,92.0
