,start,end,pitch,velocity
0,27.776643345833335,27.9711296625,70.0,97.0
1,28.0787580125,28.2656914625,70.0,97.0
2,28.380872679166668,28.569694345833334,70.0,97.0
3,28.682987345833332,28.886914745833334,70.0,94.0
4,28.9851020125,29.164482595833334,67.0,70.0
5,29.28721667916667,29.487367645833334,68.0,82.0
6,29.589331345833337,31.079134295833335,70.0,105.0
7,31.402019345833335,31.592729229166668,67.0,79.0
8,31.704134012500003,31.87596172916667,67.0,99.0
9,32.00624867916667,32.2536050625,67.0,105.0
10,32.308363345833335,32.5198436125,79.0,102.0
11,32.6104780125,32.810628979166665,79.0,90.0
12,32.912592679166664,33.103302562500005,77.0,89.0
13,33.21470734583333,34.27777332916667,75.0,82.0
14,34.725280679166666,34.95753132916667,72.0,94.0
15,35.027395345833334,35.22376987916667,79.0,99.0
16,35.3295100125,35.4937848625,80.0,100.0
17,35.63162467916667,36.098014195833336,72.0,102.0
18,36.840083345833335,37.274373179166666,79.0,102.0
19,37.44431267916667,37.72754517916667,80.0,108.0
20,37.74642734583334,38.31666877916667,72.0,92.0
21,38.35065667916667,38.60178949583334,75.0,94.0
22,38.65277134583334,40.35783099583334,77.0,89.0
23,42.27814734583333,42.4726336625,70.0,97.0
24,42.5802620125,42.7671954625,70.0,97.0
25,42.88237667916667,43.07119834583334,70.0,97.0
26,43.18449134583334,43.388418745833334,70.0,94.0
27,43.486606012500005,43.66598659583333,67.0,70.0
28,43.78872067916667,43.988871645833335,68.0,82.0
29,44.09083534583334,45.58063829583334,70.0,105.0
30,45.903523345833335,46.09423322916667,67.0,79.0
31,46.2056380125,46.37746572916667,67.0,99.0
32,46.50775267916667,46.755109062500004,67.0,105.0
33,46.80986734583334,47.0213476125,79.0,102.0
34,47.11198201250001,47.31213297916667,79.0,90.0
35,47.41409667916667,47.6048065625,77.0,89.0
36,47.71621134583334,48.77927732916667,75.0,82.0
37,49.22791722083333,49.460801064583336,72.0,94.0
38,49.53085555416667,49.72776547083333,79.0,99.0
39,49.8337938875,49.99851660625,80.0,100.0
40,50.13673222083334,50.60439327291667,72.0,102.0
41,51.045547220833335,51.34848555416667,72.0,114.0
42,51.34848555416667,51.78395940833334,79.0,102.0
43,51.95436222083334,52.23836690833333,80.0,108.0
44,52.25730055416667,52.829096658333334,72.0,92.0
45,52.863177220833336,53.11499471041667,75.0,94.0
46,53.166115554166666,54.87582377291667,77.0,89.0
47,60.2851663875,60.43474218958333,70.0,105.0
48,60.43663555416667,60.63354547083334,79.0,109.0
49,60.7398091375,60.85590230416667,77.0,100.0
50,60.89206247083334,61.1166361375,79.0,109.0
51,61.196569137500006,61.3164686375,77.0,102.0
52,61.34882247083333,61.65142597083334,79.0,112.0
53,61.805582470833336,62.01112447083334,70.0,100.0
54,62.110089137500005,62.7038771375,79.0,112.0
55,63.9371291375,64.04370647083334,70.0,105.0
56,64.08938247083334,64.28160230416667,77.0,105.0
57,64.3938891375,64.49475697083334,75.0,73.0
58,64.54614247083333,64.70600847083334,77.0,100.0
59,64.8506491375,64.96103280416668,75.0,94.0
60,65.00290247083333,65.2503141375,74.0,109.0
61,65.45966247083334,65.59098097083334,67.0,116.0
62,65.7641691375,66.52162947083333,72.0,105.0
63,67.59041842083333,67.70619426041667,72.0,111.0
64,67.7422555875,67.86752125,79.0,112.0
65,68.04592992083333,68.14652204375,79.0,96.0
66,68.1977670875,68.32682867916667,79.0,72.0
67,68.50144142083333,68.58874779166666,79.0,105.0
68,68.6532785875,68.94366716875,79.0,99.0
69,69.1087900875,69.22836185625,79.0,105.0
70,69.41246442083333,69.94189183541667,79.0,109.0
71,70.01954327291666,70.34530052291666,80.0,114.0
72,70.47408827291666,70.81878489791666,72.0,114.0
73,70.77711827291667,71.28090564791667,75.0,108.0
74,71.38317827291667,73.15211589791666,77.0,114.0
75,74.85751446041667,75.00601059583333,70.0,105.0
76,75.00789029375,75.20337887708334,79.0,109.0
77,75.30864196041667,75.42330353333334,79.0,100.0
78,75.45901779375001,75.68082214791667,79.0,109.0
79,75.75976946041666,75.87819042916666,79.0,102.0
80,75.91014529375,76.2090172625,79.0,112.0
81,76.36127279375,76.56428016875,70.0,100.0
82,76.66202446041666,77.24849021041666,79.0,112.0
83,78.46653446041667,78.57179754375,70.0,105.0
84,78.61691029375,78.80675978333333,77.0,105.0
85,78.91766196041667,79.01728595,75.0,73.0
86,79.06803779375,79.22593241875,77.0,100.0
87,79.36878946041666,79.47781193958333,75.0,94.0
88,79.51916529375,79.76352602291666,74.0,109.0
89,79.97029279375,80.09999195,75.0,116.0
90,80.27104446041666,81.01916423125,72.0,105.0
91,82.07555446041667,82.19021603333333,72.0,111.0
92,82.22593029375,82.34999035625,79.0,112.0
93,82.52668196041667,82.62630595,79.0,96.0
94,82.67705779375,82.80487725208333,79.0,72.0
95,82.97780946041667,83.06435089166668,79.0,105.0
96,83.12839541666668,83.41659577916667,79.0,99.0
97,83.58051201666666,83.69957755416667,79.0,105.0
98,83.88290068333333,84.41019092083333,79.0,109.0
99,84.48767801666666,84.81274583333334,80.0,114.0
100,84.94126101666667,85.285228125,72.0,114.0
101,85.24364968333333,85.74637084166666,75.0,108.0
102,85.84842701666666,86.17001931666667,79.0,105.0
103,86.30267544166666,88.72734444166666,77.0,108.0
104,89.50050039166666,89.70997614166666,68.0,108.0
105,89.72901939166667,89.98039029166667,70.0,92.0
106,90.41457639166667,90.55740076666666,70.0,100.0
107,90.64309539166666,90.78591976666667,68.0,67.0
108,90.87161439166667,90.99349119166666,67.0,109.0
109,91.10013339166666,91.22201019166667,68.0,97.0
110,91.32865239166667,92.65787124166667,70.0,97.0
111,93.15680439166667,93.47101801666666,67.0,105.0
112,93.61384239166667,93.70334566666666,67.0,112.0
113,93.84236139166667,93.94900359166667,67.0,102.0
114,94.07088039166666,94.37747671666666,79.0,93.0
115,94.52791839166666,94.98495639166667,77.0,112.0
116,94.98495639166667,95.88189346666667,75.0,92.0
117,96.58458939166667,96.83024731666667,70.0,105.0
118,96.81310839166666,97.19016474166666,79.0,109.0
119,97.27014639166667,97.42630104166666,80.0,97.0
120,97.49866539166666,98.14994454166667,72.0,82.0
121,98.64126039166666,98.94785671666666,79.0,99.0
122,99.09829839166667,99.34966929166667,80.0,97.0
123,99.55533639166667,99.87526299166666,80.0,100.0
124,100.01237439166667,100.30754476666667,79.0,102.0
125,100.46941239166667,100.61223676666667,77.0,100.0
126,100.69793139166667,103.63390554166666,75.0,94.0
127,103.94961904166666,104.09896854166666,70.0,105.0
128,104.10085904166667,104.29747104166667,79.0,109.0
129,104.40340096666667,104.51903625208332,77.0,100.0
130,104.5550538,104.77874172916667,79.0,109.0
131,104.85835946666666,104.97778607291666,77.0,102.0
132,105.0100123,105.31142230625,79.0,112.0
133,105.46497079999999,105.669702125,70.0,100.0
134,105.76827646666666,106.35972251666666,79.0,112.0
135,107.58811046666666,107.69426745,70.0,105.0
136,107.73976329999999,107.93122500208332,77.0,105.0
137,108.04306896666667,108.14353896875,75.0,73.0
138,108.1947218,108.353957275,77.0,100.0
139,108.49802746666666,108.60797577083333,75.0,94.0
140,108.6496803,108.89611615416666,74.0,109.0
141,109.10463879999999,109.23543936875,67.0,116.0
142,109.40794446666666,110.1624173125,72.0,105.0
143,111.22777846666666,111.34341375208332,72.0,111.0
144,111.3794313,111.50454488749999,79.0,112.0
145,111.68273696666667,111.78320696875,79.0,96.0
146,111.8343898,111.96329470833332,79.0,72.0
147,112.13769546666666,112.22489584583333,79.0,105.0
148,112.2893483,112.57938434375,79.0,99.0
149,112.74430679999999,112.86373340624999,79.0,105.0
150,113.04761246666666,113.57650172291666,79.0,109.0
151,113.6542238,113.98027739166666,80.0,114.0
152,114.1091823,114.45419249583333,72.0,114.0
153,114.41248796666666,114.91673363749999,75.0,108.0
154,115.0190993,116.78964612916666,77.0,114.0
155,118.50711446666666,118.65687163958333,70.0,105.0
156,118.6587673,118.85591598333333,79.0,109.0
157,118.96207296666667,119.07770825208333,79.0,100.0
158,119.1137258,119.33741372916666,79.0,109.0
159,119.41703146666666,119.53645807291666,79.0,102.0
160,119.5686843,119.87009430625,79.0,112.0
161,120.02364279999999,120.22837412499999,70.0,100.0
162,120.32694846666666,120.91839451666667,79.0,112.0
163,122.14678246666666,122.25293945,70.0,105.0
164,122.2984353,122.48989700208332,77.0,105.0
165,122.60174096666665,122.70221096875,75.0,73.0
166,122.7533938,122.912629275,77.0,100.0
167,123.05669946666666,123.16664777083332,75.0,94.0
168,123.2083523,123.45478815416666,74.0,109.0
169,123.66331079999999,123.79411136875,75.0,116.0
170,123.96661646666666,124.7210893125,72.0,105.0
171,125.78645046666666,125.90208575208332,72.0,111.0
172,125.9381033,126.06321688749999,79.0,112.0
173,126.24140896666665,126.34187896875,79.0,96.0
174,126.3930618,126.52196670833332,79.0,72.0
175,126.69636746666666,126.78356784583333,79.0,105.0
176,126.8480203,127.13805634375,79.0,99.0
177,127.30297879999999,127.42240540625,79.0,105.0
178,127.60628446666666,128.13517372291665,79.0,109.0
179,128.21289579999998,128.53894939166668,80.0,114.0
180,128.6678543,129.01286449583333,72.0,114.0
181,128.97115996666668,129.4754056375,75.0,108.0
182,129.5777713,129.90003357083333,79.0,105.0
183,130.0327298,132.44780117083332,77.0,108.0
184,133.2174393,133.42596194583334,68.0,108.0
185,133.44491854999998,133.695145725,70.0,92.0
186,134.1273563,134.26953083125,70.0,100.0
187,134.35483555,134.49701008124998,68.0,67.0
188,134.5823148,134.70363706666666,67.0,109.0
189,134.80979405,134.93111631666665,68.0,97.0
190,135.03727329999998,136.36044427083334,70.0,97.0
191,136.8571073,137.16989126875,67.0,105.0
192,137.3120658,137.40116183958332,67.0,112.0
193,137.53954505,137.64570203333332,67.0,102.0
194,137.7670243,138.07222562708333,79.0,93.0
195,138.22198279999998,138.6769413,77.0,112.0
196,138.6769413,139.56979735624998,75.0,92.0
197,140.26929604999998,140.51383624375,70.0,105.0
198,140.4967753,140.8721160625,79.0,109.0
199,140.9517338,141.10717795416667,80.0,97.0
200,141.17921305,141.8275289125,72.0,82.0
201,142.31660929999998,142.62181062708333,79.0,99.0
202,142.77156779999999,143.02179497499998,80.0,97.0
203,143.2265263,143.54499725,80.0,100.0
204,143.6814848,143.97531216458333,79.0,102.0
205,144.1364433,144.27861783125,77.0,100.0
206,144.36392254999998,147.30788317708334,75.0,94.0
