,start,end,pitch,velocity
0,27.818154000000003,28.16815365,74.0,79.0
1,28.363608000000003,28.477244250000002,77.0,79.0
2,28.636335000000003,29.193152625000003,72.0,79.0
3,29.454516,29.606788575000003,74.0,79.0
4,29.727243,31.254514200000003,70.0,79.0
5,31.636332000000003,31.7533773375,70.0,79.0
6,31.909059000000003,32.0090589,69.0,79.0
7,32.181786,32.693149125000005,70.0,79.0
8,32.999967000000005,33.2033758875,65.0,79.0
9,34.090875000000004,34.188602175,75.0,78.0
10,34.363602,34.906783275,74.0,78.0
11,35.181783,36.315872775,72.0,78.0
12,36.545418000000005,36.8306449875,74.0,76.0
13,37.090872000000005,37.2488263875,77.0,76.0
14,37.363599,37.980643837500004,72.0,76.0
15,38.18178,38.3897343375,74.0,75.0
16,38.454507,39.972687300000004,70.0,75.0
17,40.090869000000005,40.370414175,65.0,75.0
18,40.363596,40.5692776125,70.0,75.0
19,40.636323000000004,40.798822837500005,72.0,75.0
20,40.90905,41.551094812500004,70.0,75.0
21,41.727231,42.282912262500005,70.0,75.0
22,42.545412000000006,42.7056391125,69.0,75.0
23,42.818139,44.644273537500005,70.0,75.0
24,45.272682,45.622681650000004,74.0,74.0
25,45.818136,46.143135675,77.0,74.0
26,46.090863000000006,46.64768062500001,72.0,74.0
27,46.909044,47.061316575000006,77.0,74.0
28,47.181771000000005,48.18177000000001,70.0,74.0
29,49.090860000000006,49.14995085,70.0,74.0
30,49.363587,49.566995887500006,70.0,74.0
31,49.636314000000006,49.993131825000006,79.0,74.0
32,50.181768000000005,50.30563151250001,79.0,74.0
33,50.454495,51.02608533750001,79.0,74.0
34,51.272676000000004,51.384039525000006,77.0,74.0
35,51.54540300000001,52.5397201875,74.0,74.0
36,53.999946,54.3510820125,74.0,74.0
37,54.5454,54.666990787500005,77.0,74.0
38,54.818127000000004,55.418126400000006,72.0,74.0
39,55.63630800000001,55.815853275,74.0,74.0
40,55.909035,56.727216000000006,70.0,74.0
41,56.999943,57.1192610625,70.0,74.0
42,57.1363065,57.279488175000004,72.0,74.0
43,57.272670000000005,57.48971523750001,75.0,74.0
44,57.545397,57.661305975000005,74.0,74.0
45,57.818124000000005,57.93176025,72.0,74.0
46,58.09085100000001,58.194259987500004,65.0,74.0
47,58.363578000000004,58.749941250000006,67.0,74.0
48,58.909032,59.095395450000005,70.0,74.0
49,59.18175900000001,59.804485650000004,69.0,74.0
50,59.99994,60.103348987500006,70.0,74.0
51,60.272667000000006,63.068118750000004,70.0,74.0
52,63.818118000000005,64.088572275,74.0,74.0
53,64.090845,64.2192539625,77.0,74.0
54,64.363572,64.4828900625,82.0,74.0
55,64.63629900000001,64.90902600000001,81.0,74.0
56,64.90902600000001,65.2987983375,82.0,83.0
57,65.45448,65.65561616250001,77.0,70.0
58,65.727207,66.343115475,79.0,73.0
59,66.56584252500001,66.7737968625,77.0,81.0
60,66.818115,67.5669778875,74.0,84.0
61,67.909023,68.0419774125,74.0,84.0
62,68.18175000000001,68.32379531250001,75.0,83.0
63,68.45447700000001,68.5783405125,74.0,83.0
64,68.727204,68.87379476250001,72.0,83.0
65,68.999931,69.1215217875,70.0,83.0
66,69.272658,69.7181121,70.0,86.0
67,69.818112,69.93629370000001,77.0,90.0
68,70.090839,70.63402027500001,77.0,89.0
69,70.90902000000001,71.1215197875,72.0,79.0
70,71.181747,71.93629170000001,74.0,83.0
71,72.545382,72.7056091125,74.0,82.0
72,72.818109,72.9396997875,77.0,79.0
73,73.09083600000001,73.2396994875,82.0,79.0
74,73.363563,73.47947197500001,81.0,80.0
75,73.63629,74.11810770000001,82.0,83.0
76,74.18174400000001,74.2919711625,77.0,84.0
77,74.45447100000001,75.04992495,79.0,84.0
78,75.27265200000001,75.5192426625,77.0,80.0
79,75.5271972,76.4987871375,74.0,82.0
80,76.63628700000001,76.752195975,74.0,82.0
81,76.909014,77.04992295000001,75.0,78.0
82,77.181741,77.3237863125,74.0,75.0
83,77.454468,77.579467875,72.0,73.0
84,77.72719500000001,77.8260585375,70.0,73.0
85,77.99992200000001,78.545376,70.0,73.0
86,79.09083000000001,79.438556925,69.0,79.0
87,79.636284,79.74082935000001,70.0,71.0
88,79.909011,82.3237813125,70.0,71.0
89,101.999898,102.34989765,62.0,83.0
90,102.54535200000001,102.87035167500001,65.0,75.0
91,102.81807900000001,103.374896625,60.0,79.0
92,103.63626000000001,103.788532575,62.0,87.0
93,103.90898700000001,104.90898600000001,58.0,84.0
94,105.545349,105.7453488,58.0,64.0
95,105.818076,106.0510303125,60.0,70.0
96,106.09080300000001,106.406711775,58.0,70.0
97,106.36353000000001,106.720347825,67.0,84.0
98,106.908984,107.03284751250001,67.0,89.0
99,107.181711,107.7533013375,67.0,84.0
100,107.999892,108.111255525,65.0,84.0
101,108.272619,109.26693618750001,62.0,81.0
102,110.727162,111.07829801250001,62.0,84.0
103,111.27261600000001,111.39420678750001,65.0,78.0
104,111.545343,112.1453424,60.0,78.0
105,112.36352400000001,112.54306927500001,62.0,78.0
106,112.63625100000002,113.45443200000001,58.0,87.0
107,113.72715900000001,113.84647706250001,58.0,90.0
108,113.8635225,114.00670417500001,60.0,90.0
109,113.999886,114.2169312375,63.0,90.0
110,114.272613,114.388521975,62.0,90.0
111,114.54534000000001,114.65897625000001,60.0,89.0
112,114.81806700000001,114.9214759875,58.0,78.0
113,115.090794,115.47715725,55.0,72.0
114,115.63624800000001,115.82261145000001,58.0,84.0
115,115.90897500000001,116.53170165,57.0,84.0
116,116.72715600000001,116.83056498750001,58.0,87.0
117,116.99988300000001,117.818064,58.0,84.0
118,118.36351800000001,118.633972275,62.0,91.0
119,118.636245,118.7646539625,65.0,91.0
120,118.908972,119.0282900625,70.0,91.0
121,119.18169900000001,119.77147113750001,69.0,91.0
122,119.99988,120.20101616250001,65.0,91.0
123,120.27260700000001,120.888515475,67.0,91.0
124,121.090788,121.29874233750002,65.0,91.0
125,121.363515,122.1123778875,62.0,91.0
126,122.454423,122.5873774125,62.0,94.0
127,122.72715000000001,122.86919531250001,63.0,94.0
128,122.99987700000001,123.1237405125,62.0,94.0
129,123.27260400000002,123.41919476250001,60.0,94.0
130,123.545331,123.66692178750002,58.0,94.0
131,123.81805800000001,124.26351210000001,58.0,94.0
132,124.36351200000001,124.48169370000001,65.0,94.0
133,124.636239,125.17942027500001,65.0,94.0
134,125.45442000000001,125.6669197875,60.0,94.0
135,125.72714700000002,126.48169170000001,62.0,94.0
136,127.090782,127.25100911250001,62.0,94.0
137,127.36350900000001,127.4850997875,65.0,95.0
138,127.63623600000001,127.7850994875,70.0,95.0
139,127.90896300000001,128.024871975,69.0,95.0
140,128.18169,128.6635077,70.0,95.0
141,128.727144,128.8373711625,65.0,95.0
142,128.999871,129.59532495000002,67.0,95.0
143,129.81805200000002,130.18964253750002,65.0,95.0
144,130.0964608125,131.04418713750002,62.0,95.0
145,131.181687,131.297595975,62.0,95.0
146,131.454414,131.59532295,63.0,95.0
147,131.72714100000002,131.8691863125,62.0,95.0
148,131.99986800000002,132.124867875,60.0,95.0
149,132.27259500000002,132.37145853750002,58.0,95.0
150,132.545322,133.090776,58.0,95.0
151,133.63623,133.983956925,57.0,95.0
152,134.18168400000002,134.28622935,58.0,95.0
153,134.45441100000002,135.511228125,58.0,95.0
154,135.818046,136.088500275,62.0,95.0
155,136.090773,136.21918196250002,65.0,96.0
156,136.36350000000002,136.4828180625,70.0,96.0
157,136.63622700000002,136.90895400000002,69.0,96.0
158,136.90895400000002,137.1987264375,70.0,96.0
159,137.454408,137.6555441625,65.0,96.0
160,137.727135,138.343043475,67.0,96.0
161,138.545316,138.7532703375,65.0,96.0
162,138.81804300000002,139.5669058875,62.0,96.0
163,139.908951,140.0419054125,62.0,96.0
164,140.181678,140.32372331250002,63.0,96.0
165,140.454405,140.57826851250002,62.0,96.0
166,140.727132,140.87372276250002,60.0,96.0
167,140.99985900000001,141.1214497875,58.0,96.0
168,141.27258600000002,141.71804010000002,58.0,96.0
169,141.81804000000002,141.9362217,65.0,96.0
170,142.090767,142.63394827500002,65.0,96.0
171,142.908948,143.12826596250002,67.0,96.0
172,143.181675,144.15440130000002,65.0,96.0
173,144.54531,144.70553711250002,62.0,96.0
174,144.818037,144.9396277875,65.0,96.0
175,145.090764,145.2396274875,70.0,96.0
176,145.363491,145.479399975,69.0,96.0
177,145.636218,146.1180357,70.0,96.0
178,146.18167200000002,146.29189916250002,72.0,96.0
179,146.45439900000002,146.97598938750002,72.0,96.0
180,147.27258,147.3737162625,74.0,96.0
181,147.545307,148.51462421250002,74.0,96.0
182,148.62485137500002,148.74076035000002,74.0,96.0
183,148.90894200000002,149.04985095,75.0,96.0
184,149.181669,149.32371431250002,74.0,96.0
185,149.454396,149.57939587500002,72.0,96.0
186,149.727123,149.8259865375,70.0,96.0
187,149.99985,150.54530400000002,70.0,96.0
188,150.54530400000002,150.7441674375,70.0,96.0
189,150.81803100000002,151.14643976250002,69.0,96.0
190,151.636212,151.74075735000002,70.0,96.0
191,151.908939,154.3237093125,70.0,96.0
192,179.45436600000002,179.724820275,74.0,101.0
193,179.72709300000002,179.8555019625,77.0,101.0
194,179.99982000000003,180.1191380625,82.0,103.0
195,180.272547,180.545274,81.0,103.0
196,180.545274,181.05322803750002,82.0,93.0
197,181.090728,181.29186416250002,77.0,102.0
198,181.36345500000002,181.979363475,79.0,102.0
199,182.18163600000003,182.3895903375,77.0,101.0
200,182.454363,183.20322588750003,74.0,101.0
201,183.545271,183.6782254125,74.0,103.0
202,183.81799800000002,183.9600433125,75.0,103.0
203,184.09072500000002,184.2145885125,74.0,103.0
204,184.36345200000002,184.5100427625,72.0,102.0
205,184.63617900000003,184.75776978750002,70.0,102.0
206,184.908906,185.3543601,70.0,102.0
207,185.45436,185.57254170000002,77.0,101.0
208,185.727087,186.270268275,77.0,101.0
209,186.54526800000002,186.7577677875,72.0,103.0
210,186.81799500000002,187.57253970000002,74.0,103.0
211,188.18163,188.3418571125,74.0,102.0
212,188.45435700000002,188.5759477875,77.0,102.0
213,188.72708400000002,188.8759474875,82.0,102.0
214,188.99981100000002,189.11571997500002,81.0,101.0
215,189.27253800000003,189.75435570000002,82.0,101.0
216,189.817992,189.92821916250003,77.0,101.0
217,190.090719,190.68617295,79.0,101.0
218,190.90890000000002,191.28049053750001,77.0,103.0
219,191.1782179125,192.1350351375,74.0,102.0
220,192.272535,192.388443975,74.0,102.0
221,192.545262,192.68617095000002,75.0,102.0
222,192.817989,192.96003431250003,74.0,101.0
223,193.09071600000001,193.21571587500003,72.0,101.0
224,193.36344300000002,193.4623065375,70.0,101.0
225,193.63617000000002,194.18162400000003,70.0,101.0
226,194.727078,195.07480492500002,69.0,103.0
227,195.272532,195.37707735,70.0,102.0
228,195.54525900000002,196.60207612500002,70.0,102.0
229,196.908894,197.17934827500002,74.0,101.0
230,197.181621,197.3100299625,77.0,101.0
231,197.454348,197.57366606250002,82.0,103.0
232,197.727075,197.99980200000002,81.0,103.0
233,197.99980200000002,198.28957443750002,82.0,103.0
234,198.54525600000002,198.74639216250003,77.0,102.0
235,198.81798300000003,199.43389147500002,79.0,102.0
236,199.636164,199.84411833750002,77.0,101.0
237,199.908891,200.6577538875,74.0,101.0
238,200.99979900000002,201.13275341250002,74.0,100.0
239,201.27252600000003,201.41457131250002,75.0,100.0
240,201.545253,201.6691165125,74.0,100.0
241,201.81798,201.96457076250002,72.0,100.0
242,202.090707,202.2122977875,70.0,100.0
243,202.363434,202.80888810000002,70.0,100.0
244,202.90888800000002,203.02706970000003,77.0,100.0
245,203.18161500000002,203.72479627500002,77.0,100.0
246,203.999796,204.21911396250002,79.0,100.0
247,204.272523,205.2452493,77.0,100.0
248,205.63615800000002,205.79638511250002,74.0,100.0
249,205.90888500000003,206.03047578750002,77.0,100.0
250,206.18161200000003,206.33047548750002,82.0,100.0
251,206.454339,206.57024797500003,81.0,100.0
252,206.727066,207.20888370000003,82.0,100.0
253,207.27252000000001,207.3827471625,84.0,100.0
254,207.54524700000002,208.06683738750002,84.0,100.0
255,208.36342800000003,208.4645642625,86.0,100.0
256,208.636155,209.60547221250002,86.0,100.0
257,209.72706300000002,209.842971975,74.0,100.0
258,209.99979000000002,210.14069895000003,75.0,100.0
259,210.27251700000002,210.4145623125,74.0,100.0
260,210.54524400000003,210.670243875,72.0,100.0
261,210.81797100000003,210.91683453750002,70.0,100.0
262,211.090698,211.636152,70.0,100.0
263,211.636152,211.8350154375,70.0,100.0
264,211.908879,212.23728776250002,69.0,100.0
265,212.72706000000002,212.83160535000002,70.0,100.0
266,212.99978700000003,215.41455731250002,70.0,100.0
