,start,end,pitch,velocity
0,10.363626,11.138625225,39.0,80.0
1,10.636353000000002,11.4715794375,46.0,80.0
2,10.909080000000001,11.497715775000001,51.0,80.0
3,11.181807000000001,11.545443,55.0,79.0
4,11.454534,12.239760487500002,41.0,79.0
5,11.999988,12.5261238375,53.0,79.0
6,11.727261,12.540896550000001,48.0,79.0
7,12.272715000000002,12.636351000000001,57.0,79.0
8,13.090896,13.752258975000002,55.0,79.0
9,13.909077000000002,14.210213062500001,55.0,79.0
10,12.818169000000001,14.243167575000001,50.0,79.0
11,12.545442000000001,14.329531125,43.0,79.0
12,13.363623,14.767030687500002,58.0,79.0
13,14.727258,15.4636209,39.0,79.0
14,15.272712000000002,15.792029662500001,51.0,79.0
15,14.999985,15.805666012500001,46.0,79.0
16,15.545439000000002,15.895438650000001,55.0,79.0
17,15.818166000000002,16.6261197375,41.0,79.0
18,16.090893,16.7999832,48.0,79.0
19,16.36362,16.813619550000002,53.0,79.0
20,16.636347,16.992028462500002,57.0,79.0
21,17.181801,17.454528,65.0,75.0
22,17.454528,17.999982000000003,63.0,79.0
23,16.909074,18.818163000000002,46.0,79.0
24,17.999982000000003,18.936344700000003,62.0,79.0
25,17.181801,19.09089,53.0,79.0
26,17.454528,19.09089,58.0,79.0
27,19.09089,19.85907105,39.0,78.0
28,19.363617,20.1602071125,46.0,78.0
29,19.636344,20.1727071,51.0,78.0
30,19.909071,20.239752487500002,55.0,78.0
31,20.181798,21.0306607875,41.0,78.0
32,20.727252,21.288615075000003,53.0,78.0
33,20.454525,21.311342325000002,48.0,78.0
34,20.999979000000003,21.335205937500003,57.0,78.0
35,21.818160000000002,22.757931787500002,55.0,78.0
36,21.5283875625,22.7897499375,50.0,78.0
37,21.272706000000003,22.924977075,43.0,78.0
38,22.090887000000002,23.284067625000002,58.0,77.0
39,23.999976,24.5761117875,51.0,76.0
40,24.272703000000003,24.809066100000003,55.0,76.0
41,23.454522,25.652247075000002,39.0,76.0
42,24.818157000000003,25.654519800000003,51.0,76.0
43,23.727249,25.667019787500003,46.0,76.0
44,24.545430000000003,25.688610675000003,58.0,76.0
45,26.999973,27.497699775,58.0,76.0
46,25.909065000000002,27.545427000000004,48.0,78.0
47,26.454519,27.598836037500003,57.0,77.0
48,26.181792,27.6817905,53.0,78.0
49,25.636338000000002,27.818154000000003,41.0,78.0
50,27.545427000000004,27.818154000000003,60.0,76.0
51,28.363608000000003,28.6715622375,62.0,73.0
52,27.818154000000003,28.724971275,46.0,76.0
53,28.636335000000003,28.798834837500003,58.0,75.0
54,28.090881000000003,28.859062050000002,53.0,75.0
55,28.636335000000003,28.9942891875,65.0,75.0
56,29.454516,29.735197537500003,53.0,78.0
57,28.909062000000002,29.7397429875,45.0,78.0
58,29.181789000000002,29.7397429875,48.0,78.0
59,29.454516,29.752242975,60.0,78.0
60,29.727243,29.954515500000003,65.0,78.0
61,30.545424000000004,30.727242000000004,58.0,78.0
62,30.272697,31.4374685625,50.0,78.0
63,30.818151000000004,31.687468312500002,62.0,78.0
64,29.99997,31.759059150000002,43.0,78.0
65,31.636332000000003,32.1624678375,58.0,78.0
66,32.181786,32.970421575,39.0,77.0
67,32.72724,33.1988304375,51.0,76.0
68,32.454513000000006,33.427239300000004,46.0,76.0
69,33.545421000000005,34.179511275,39.0,75.0
70,32.999967000000005,34.28632935,55.0,76.0
71,34.090875000000004,34.33178385,60.0,74.0
72,34.090875000000004,34.338602025,58.0,74.0
73,33.818148,34.396556512500005,46.0,75.0
74,34.909056,35.3351919375,53.0,74.0
75,34.363602,35.756782425000004,41.0,74.0
76,34.636329,35.8647368625,48.0,74.0
77,35.181783,36.0272367,57.0,74.0
78,35.744282437500004,36.4624635375,53.0,74.0
79,35.999964000000006,36.615872475,62.0,74.0
80,37.090872000000005,37.35223537500001,58.0,74.0
81,36.818145,37.36473536250001,53.0,74.0
82,36.545418000000005,37.4760988875,46.0,74.0
83,37.3488262875,37.656780525,62.0,74.0
84,38.18178,38.497688775,60.0,74.0
85,38.454507,38.5397341875,65.0,74.0
86,37.909053,38.65905225,48.0,74.0
87,37.636326000000004,38.705643112500006,45.0,74.0
88,38.18178,38.7079158375,53.0,74.0
89,39.272688,39.626096737500006,58.0,74.0
90,38.999961000000006,39.92041462500001,50.0,74.0
91,39.545415000000006,40.140868950000005,62.0,74.0
92,38.727234,40.424959575,43.0,74.0
93,40.090869000000005,40.72836836250001,58.0,74.0
94,40.636323000000004,40.938595425,62.0,74.0
95,41.181777000000004,41.7238219125,46.0,74.0
96,41.454504,41.757912787500004,51.0,74.0
97,40.90905,41.8601854125,39.0,74.0
98,41.727231,42.313594050000006,58.0,74.0
99,41.727231,42.3374576625,55.0,74.0
100,41.99995800000001,42.803366287500005,41.0,74.0
101,42.545412000000006,42.874957125,53.0,74.0
102,42.272685,42.915866175000005,48.0,74.0
103,42.818139,43.0760932875,57.0,74.0
104,43.636320000000005,45.0056368125,58.0,74.0
105,43.090866000000005,45.0170004375,46.0,74.0
106,43.909047,45.20677297500001,65.0,74.0
107,43.909047,45.221545687500004,62.0,74.0
108,43.363593,45.271545637500004,53.0,74.0
109,45.818136,46.1260902375,62.0,74.0
110,46.090863000000006,46.1260902375,62.0,74.0
111,45.272682,46.1454084,46.0,74.0
112,45.54540900000001,46.2124537875,53.0,74.0
113,46.090863000000006,46.3624536375,65.0,74.0
114,46.636317000000005,46.956771225000004,60.0,74.0
115,46.36359,46.9579075875,45.0,74.0
116,46.36359,46.9579075875,45.0,74.0
117,46.636317000000005,46.984043925,48.0,74.0
118,46.909044,47.2090437,65.0,74.0
119,46.909044,47.2647254625,53.0,74.0
120,47.999952,48.329497125,58.0,74.0
121,47.454498,48.43858792500001,43.0,74.0
122,47.727225000000004,48.443133375,50.0,74.0
123,47.999952,48.474951525,55.0,74.0
124,48.272679000000004,49.222678050000006,62.0,74.0
125,48.54540600000001,49.2829052625,41.0,74.0
126,48.818133,49.299950700000004,48.0,74.0
127,49.090860000000006,49.386314250000005,57.0,74.0
128,49.363587,49.6897230375,60.0,74.0
129,49.909041,50.31813150000001,46.0,74.0
130,49.636314000000006,50.5806312375,39.0,74.0
131,50.181768000000005,50.727222000000005,51.0,74.0
132,50.454495,51.085176187500004,55.0,74.0
133,50.727222000000005,51.388584975,41.0,74.0
134,50.999949,51.478357612500005,48.0,74.0
135,51.272676000000004,51.611312025000004,57.0,74.0
136,51.54540300000001,51.8454027,60.0,74.0
137,52.636311000000006,53.227219500000004,62.0,74.0
138,52.636311000000006,53.26244673750001,65.0,74.0
139,52.363584,53.4988101375,58.0,74.0
140,52.09085700000001,53.6669917875,53.0,74.0
141,51.818130000000004,53.74994625,46.0,74.0
142,53.454492,54.206763975,65.0,74.0
143,53.454492,54.28290026250001,62.0,74.0
144,54.272673000000005,54.860172412500006,53.0,74.0
145,53.999946,54.893126925000004,46.0,74.0
146,54.818127000000004,55.15903575,62.0,74.0
147,55.63630800000001,55.824944175000006,60.0,75.0
148,55.363581,56.15562566250001,48.0,75.0
149,55.09085400000001,56.19312562500001,45.0,75.0
150,55.909035,56.196534712500004,65.0,75.0
151,56.999943,57.666987787500005,58.0,75.0
152,56.999943,57.6760786875,62.0,75.0
153,56.727216000000006,57.80335128750001,55.0,75.0
154,56.454489,57.848805787500005,50.0,75.0
155,56.181762000000006,57.899942100000004,43.0,75.0
156,57.818124000000005,58.3465325625,58.0,76.0
157,57.818124000000005,58.369259812500005,62.0,76.0
158,58.909032,58.9919864625,55.0,78.0
159,58.909032,58.994259187500006,58.0,78.0
160,58.363578000000004,58.99994100000001,39.0,76.0
161,58.63630500000001,59.26244073750001,46.0,77.0
162,59.454486,60.023803612500004,57.0,78.0
163,59.454486,60.0999399,60.0,78.0
164,59.454486,60.13971258750001,41.0,78.0
165,59.727213000000006,60.2192579625,48.0,78.0
166,60.272667000000006,60.54084855000001,60.0,78.0
167,60.272667000000006,60.5442576375,57.0,78.0
168,59.99994,60.591984862500006,53.0,78.0
169,61.09084800000001,61.614711112500004,58.0,80.0
170,61.363575000000004,62.25107411250001,63.0,79.0
171,62.454483,62.69425548750001,63.0,79.0
172,60.818121000000005,63.87834521250001,53.0,79.0
173,60.545394,63.92948152500001,46.0,79.0
174,62.72721000000001,63.94084515000001,62.0,79.0
175,61.909029000000004,63.955617862500006,58.0,79.0
176,65.45448,65.8283432625,51.0,77.0
177,64.90902600000001,65.8987977375,39.0,79.0
178,65.181753,65.9624340375,46.0,77.0
179,65.727207,66.0760702875,55.0,76.0
180,65.99993400000001,66.91584217500001,41.0,76.0
181,66.272661,66.98629665,48.0,75.0
182,66.545388,67.020387525,53.0,75.0
183,66.818115,67.16811465,57.0,75.0
184,67.909023,68.49879513750001,62.0,75.0
185,67.909023,68.5215223875,58.0,75.0
186,67.636296,68.71356765,55.0,75.0
187,67.363569,68.802203925,50.0,75.0
188,67.09084200000001,68.84538570000001,43.0,75.0
189,68.727204,68.92038562500001,62.0,75.0
190,68.727204,68.94311287500001,58.0,75.0
191,69.272658,69.94083915,55.0,75.0
192,69.272658,69.9635664,58.0,75.0
193,69.272658,70.14992985,39.0,75.0
194,70.090839,70.18629345000001,58.0,75.0
195,70.090839,70.20106616250001,55.0,75.0
196,69.54538500000001,70.34197511250001,46.0,75.0
197,69.818112,70.36811145,51.0,75.0
198,70.363566,71.07833801250001,57.0,75.0
199,70.363566,71.0817471,60.0,75.0
200,70.363566,71.2760650875,41.0,75.0
201,70.90902000000001,71.35561046250001,53.0,75.0
202,71.181747,71.420383125,60.0,75.0
203,71.181747,71.443110375,57.0,75.0
204,70.63629300000001,71.4533376375,48.0,75.0
205,71.454474,72.1897005375,62.0,75.0
206,71.454474,72.193109625,65.0,75.0
207,71.99992800000001,72.60788193750001,58.0,75.0
208,72.272655,72.9692452125,62.0,75.0
209,72.272655,72.974927025,65.0,75.0
210,72.818109,73.27379036250001,58.0,77.0
211,71.72720100000001,73.5806082375,53.0,75.0
212,73.09083600000001,73.59310822500001,65.0,77.0
213,73.09083600000001,73.60447185000001,62.0,77.0
214,71.454474,73.620380925,46.0,75.0
215,73.63629,74.2783348125,58.0,77.0
216,73.63629,74.2919711625,55.0,77.0
217,73.63629,74.3090166,39.0,77.0
218,73.909017,74.69537985000001,46.0,77.0
219,74.18174400000001,74.7306070875,51.0,77.0
220,74.727198,75.4601518125,57.0,77.0
221,74.727198,75.46242453750001,60.0,77.0
222,74.727198,75.53969718750001,41.0,77.0
223,74.999925,75.60446985,48.0,77.0
224,75.27265200000001,75.68174250000001,53.0,77.0
225,75.54537900000001,75.78174240000001,60.0,77.0
226,75.54537900000001,75.7851514875,57.0,77.0
227,76.36356,76.7374232625,55.0,77.0
228,76.63628700000001,77.2453773,58.0,77.0
229,76.63628700000001,77.265831825,62.0,77.0
230,76.090833,77.4533316375,50.0,77.0
231,77.16696828750001,77.45901345,55.0,77.0
232,77.454468,77.543104275,58.0,77.0
233,77.454468,77.543104275,62.0,77.0
234,75.818106,77.55560426250001,43.0,77.0
235,77.99992200000001,78.697648575,55.0,77.0
236,77.99992200000001,78.70446675000001,58.0,77.0
237,77.99992200000001,78.72719400000001,39.0,77.0
238,78.545376,79.05446640000001,51.0,77.0
239,78.272649,79.0726482,46.0,77.0
240,79.09083000000001,79.65446580000001,41.0,77.0
241,79.363557,79.68628395,48.0,77.0
242,79.09083000000001,80.04537450000001,60.0,77.0
243,79.09083000000001,80.10105626250001,57.0,77.0
244,79.636284,80.152192575,53.0,77.0
245,80.18173800000001,82.1101451625,46.0,77.0
246,80.727192,82.11128152500001,58.0,77.0
247,80.999919,82.179463275,62.0,77.0
248,80.999919,82.18628145000001,65.0,77.0
249,80.45446500000001,82.25900865000001,53.0,77.0
250,82.36355400000001,83.98514328750001,62.0,77.0
251,82.36355400000001,83.98627965,65.0,77.0
252,82.36355400000001,84.0055978125,46.0,77.0
253,84.54537,84.83514243750001,58.0,77.0
254,84.54537,84.8396878875,46.0,77.0
255,84.54537,84.87718785000001,62.0,77.0
256,85.09082400000001,85.2805965375,62.0,77.0
257,85.363551,85.8328687125,46.0,77.0
258,85.363551,85.86014141250001,58.0,77.0
259,85.363551,85.947641325,63.0,77.0
260,85.90900500000001,86.1919592625,60.0,77.0
261,86.18173200000001,86.3828681625,55.0,77.0
262,86.727186,86.92604943750001,46.0,77.0
263,86.727186,86.9442312375,58.0,77.0
264,86.454459,86.9715039375,69.0,77.0
265,86.999913,87.2544582,67.0,77.0
266,87.27264000000001,87.4965034125,55.0,77.0
267,87.54536700000001,87.818094,60.0,77.0
268,87.818094,88.08968463750001,46.0,77.0
269,87.818094,88.11923006250001,58.0,77.0
270,88.090821,88.4101388625,63.0,77.0
271,88.63627500000001,88.83286571250001,60.0,77.0
272,88.909002,89.134001775,46.0,77.0
273,88.909002,89.1453654,58.0,77.0
274,88.909002,89.2669561875,62.0,77.0
275,89.45445600000001,89.67945577500001,62.0,77.0
276,89.99991000000001,90.2260461375,58.0,77.0
277,89.72718300000001,90.2283188625,60.0,77.0
278,89.99991000000001,90.24422793750001,46.0,77.0
279,90.272637,90.55900035,62.0,77.0
280,90.545364,90.80786373750001,55.0,77.0
281,91.09081800000001,91.333999575,58.0,77.0
282,91.09081800000001,91.3442268375,46.0,77.0
283,90.81809100000001,91.5442266375,65.0,77.0
284,91.363545,91.688544675,57.0,77.0
285,91.636272,91.83740816250001,60.0,77.0
286,92.18172600000001,92.44081665,46.0,77.0
287,92.18172600000001,92.4464984625,58.0,77.0
288,91.90899900000001,92.838543525,65.0,77.0
289,93.27263400000001,93.58058823750001,65.0,77.0
290,93.54536100000001,93.88967883750001,63.0,77.0
291,93.27263400000001,93.99422418750001,51.0,77.0
292,93.27263400000001,94.00331508750001,39.0,77.0
293,93.818088,94.03286051250001,57.0,77.0
294,94.090815,94.66922351250001,65.0,77.0
295,94.63626900000001,94.88513238750001,63.0,77.0
296,94.36354200000001,95.1180867,51.0,77.0
297,94.908996,95.13513213750001,57.0,77.0
298,94.36354200000001,95.18285936250001,39.0,77.0
299,95.181723,95.8817223,70.0,77.0
300,95.72717700000001,96.03740396250001,58.0,77.0
301,95.45445000000001,96.2089947,51.0,77.0
302,95.45445000000001,96.3055855125,39.0,77.0
303,95.999904,96.30785823750001,55.0,77.0
304,96.54535800000001,97.06581202500001,39.0,77.0
305,96.54535800000001,97.0828574625,51.0,77.0
306,96.272631,97.18967553750001,63.0,77.0
307,96.81808500000001,97.37376626250001,65.0,77.0
308,97.636266,97.90672027500001,53.0,77.0
309,97.636266,97.91467481250001,41.0,77.0
310,97.636266,98.01126562500001,62.0,77.0
311,98.18172000000001,98.3487652875,41.0,78.0
312,98.454447,98.62035592500001,41.0,78.0
313,98.454447,98.65103771250001,53.0,78.0
314,98.42035612500001,98.7192194625,62.0,78.0
315,98.99990100000001,99.23399167500001,53.0,78.0
316,98.99990100000001,99.23853712500001,62.0,78.0
317,98.99990100000001,99.24194621250001,41.0,78.0
318,99.54535500000001,99.8737637625,41.0,78.0
319,99.818082,99.8737637625,41.0,78.0
320,99.54535500000001,99.88853647500001,53.0,78.0
321,99.54535500000001,101.88626175,60.0,78.0
322,102.54535200000001,102.85330623750001,62.0,78.0
323,102.81807900000001,102.85330623750001,62.0,78.0
324,101.999898,102.8726244,34.0,78.0
325,101.999898,102.8726244,46.0,78.0
326,102.272625,102.93966978750001,53.0,78.0
327,102.81807900000001,103.08966963750001,65.0,78.0
328,103.363533,103.68398722500001,60.0,78.0
329,103.09080600000001,103.6851235875,33.0,78.0
330,103.09080600000001,103.6851235875,33.0,78.0
331,103.09080600000001,103.6851235875,45.0,78.0
332,103.09080600000001,103.6851235875,45.0,78.0
333,103.363533,103.71125992500001,48.0,78.0
334,103.63626000000001,103.93625970000001,65.0,78.0
335,103.63626000000001,103.99194146250001,53.0,78.0
336,104.727168,105.056713125,58.0,78.0
337,104.18171400000001,105.165803925,31.0,78.0
338,104.18171400000001,105.165803925,43.0,78.0
339,104.454441,105.17034937500001,50.0,78.0
340,104.727168,105.20216752500001,55.0,78.0
341,104.99989500000001,105.94989405000001,62.0,78.0
342,105.27262200000001,106.01012126250001,29.0,78.0
343,105.27262200000001,106.01012126250001,41.0,78.0
344,105.545349,106.02716670000001,48.0,78.0
345,105.818076,106.11353025000001,57.0,78.0
346,106.09080300000001,106.41693903750001,60.0,78.0
347,106.63625700000001,107.0453475,46.0,78.0
348,106.36353000000001,107.30784723750001,27.0,78.0
349,106.36353000000001,107.30784723750001,39.0,78.0
350,106.908984,107.45443800000001,51.0,78.0
351,107.181711,107.81239218750001,55.0,78.0
352,107.45443800000001,108.11580097500001,29.0,78.0
353,107.45443800000001,108.11580097500001,41.0,78.0
354,107.72716500000001,108.2055736125,48.0,78.0
355,107.999892,108.338528025,57.0,78.0
356,108.272619,108.5726187,60.0,78.0
357,109.363527,109.9544355,62.0,78.0
358,109.363527,109.98966273750001,65.0,78.0
359,109.0908,110.22602613750001,58.0,78.0
360,108.81807300000001,110.39420778750001,53.0,78.0
361,108.54534600000001,110.47716225,34.0,78.0
362,108.54534600000001,110.47716225,46.0,78.0
363,110.18170800000001,110.93397997500001,65.0,78.0
364,110.18170800000001,111.0101162625,62.0,78.0
365,110.99988900000001,111.5873884125,53.0,78.0
366,110.727162,111.620342925,34.0,78.0
367,110.727162,111.620342925,46.0,78.0
368,111.545343,111.88625175000001,62.0,78.0
369,112.36352400000001,112.55216017500001,60.0,78.0
370,112.09079700000001,112.88284166250001,48.0,78.0
371,111.81807,112.920341625,33.0,78.0
372,111.81807,112.920341625,45.0,78.0
373,112.63625100000002,112.92375071250001,65.0,78.0
374,113.72715900000001,114.3942037875,58.0,78.0
375,113.72715900000001,114.40329468750001,62.0,78.0
376,113.45443200000001,114.5305672875,55.0,78.0
377,113.18170500000001,114.57602178750001,50.0,78.0
378,112.908978,114.6271581,31.0,78.0
379,112.908978,114.6271581,43.0,78.0
380,114.54534000000001,115.07374856250001,58.0,78.0
381,114.54534000000001,115.0964758125,62.0,78.0
382,115.63624800000001,115.71920246250001,55.0,78.0
383,115.63624800000001,115.7214751875,58.0,78.0
384,115.090794,115.727157,27.0,78.0
385,115.090794,115.727157,39.0,78.0
386,115.363521,115.98965673750001,46.0,78.0
387,116.18170200000002,116.7510196125,57.0,77.0
388,116.18170200000002,116.82715590000001,60.0,77.0
389,116.18170200000002,116.86692858750001,29.0,77.0
390,116.18170200000002,116.86692858750001,41.0,77.0
391,116.454429,116.94647396250001,48.0,77.0
392,116.99988300000001,117.26806455,60.0,76.0
393,116.99988300000001,117.27147363750001,57.0,76.0
394,116.72715600000001,117.31920086250001,53.0,77.0
395,117.818064,118.3419271125,58.0,76.0
396,118.09079100000001,118.9782901125,63.0,76.0
397,119.18738081250001,119.4282896625,65.0,76.0
398,119.99988,120.37374326250001,51.0,76.0
399,119.45442600000001,120.4441977375,27.0,76.0
400,119.45442600000001,120.4441977375,39.0,76.0
401,117.27261000000001,120.5078340375,34.0,76.0
402,117.27261000000001,120.5078340375,46.0,76.0
403,119.72715300000002,120.5078340375,46.0,76.0
404,117.545337,120.6055612125,53.0,76.0
405,120.27260700000001,120.6214702875,55.0,76.0
406,119.45442600000001,120.66806115000001,63.0,76.0
407,118.636245,120.6828338625,58.0,76.0
408,120.54533400000001,121.46124217500001,29.0,76.0
409,120.54533400000001,121.46124217500001,41.0,76.0
410,120.81806100000001,121.53169665000001,48.0,76.0
411,121.090788,121.565787525,53.0,76.0
412,121.363515,121.71351465000001,57.0,76.0
413,122.454423,123.04419513750001,62.0,76.0
414,122.454423,123.06692238750001,58.0,76.0
415,122.18169600000002,123.25896765000002,55.0,76.0
416,121.90896900000001,123.34760392500002,50.0,76.0
417,121.63624200000001,123.39078570000001,31.0,76.0
418,121.63624200000001,123.39078570000001,43.0,76.0
419,123.27260400000002,123.46578562500001,62.0,76.0
420,123.27260400000002,123.48851287500001,58.0,76.0
421,123.81805800000001,124.48623915,55.0,75.0
422,123.81805800000001,124.5089664,58.0,75.0
423,123.81805800000001,124.69532985000001,27.0,75.0
424,123.81805800000001,124.69532985000001,39.0,75.0
425,124.636239,124.73169345000001,58.0,75.0
426,124.636239,124.74646616250001,55.0,75.0
427,124.09078500000001,124.88737511250001,46.0,75.0
428,124.36351200000001,124.91351145000002,51.0,75.0
429,124.908966,125.62373801250001,57.0,75.0
430,124.908966,125.62714710000002,60.0,75.0
431,124.908966,125.82146508750002,29.0,75.0
432,124.908966,125.82146508750002,41.0,75.0
433,125.45442000000001,125.90101046250001,53.0,75.0
434,125.72714700000002,125.96578312500002,60.0,75.0
435,125.72714700000002,125.988510375,57.0,75.0
436,125.18169300000001,125.99873763750001,48.0,75.0
437,125.999874,126.73510053750002,62.0,75.0
438,125.999874,126.738509625,65.0,75.0
439,126.54532800000001,127.15328193750001,58.0,75.0
440,126.81805500000002,127.51464521250001,62.0,75.0
441,126.81805500000002,127.52032702500001,65.0,75.0
442,127.36350900000001,127.81919036250001,58.0,75.0
443,126.27260100000001,128.1260082375,53.0,75.0
444,127.63623600000001,128.138508225,65.0,75.0
445,127.63623600000001,128.14987185,62.0,75.0
446,125.999874,128.165780925,34.0,75.0
447,125.999874,128.165780925,46.0,75.0
448,128.18169,128.82373481250002,58.0,75.0
449,128.18169,128.8373711625,55.0,75.0
450,128.18169,128.8544166,27.0,75.0
451,128.18169,128.8544166,39.0,75.0
452,128.454417,129.24077985000002,46.0,75.0
453,128.727144,129.2760070875,51.0,75.0
454,129.27259800000002,130.00555181250002,57.0,75.0
455,129.27259800000002,130.0078245375,60.0,75.0
456,129.27259800000002,130.0850971875,29.0,75.0
457,129.27259800000002,130.0850971875,41.0,75.0
458,129.54532500000002,130.14986985000002,48.0,75.0
459,129.81805200000002,130.2271425,53.0,75.0
460,130.090779,130.3271424,60.0,75.0
461,130.090779,130.3305514875,57.0,75.0
462,130.90896,131.28282326250002,55.0,75.0
463,131.181687,131.7907773,58.0,75.0
464,131.181687,131.81123182500002,62.0,75.0
465,130.636233,131.99873163750001,50.0,75.0
466,131.7419137125,132.03395887500002,55.0,75.0
467,131.99986800000002,132.08850427500002,58.0,75.0
468,131.99986800000002,132.08850427500002,62.0,75.0
469,130.363506,132.1010042625,31.0,75.0
470,130.363506,132.1010042625,43.0,75.0
471,132.545322,133.24304857500002,55.0,75.0
472,132.545322,133.24986675000002,58.0,75.0
473,132.545322,133.272594,27.0,75.0
474,132.545322,133.272594,39.0,75.0
475,133.090776,133.59986640000002,51.0,75.0
476,132.818049,133.6180482,46.0,75.0
477,133.63623,134.1998658,29.0,75.0
478,133.63623,134.1998658,41.0,75.0
479,133.90895700000002,134.23168395000002,48.0,75.0
480,133.63623,134.5907745,60.0,75.0
481,133.63623,134.6464562625,57.0,75.0
482,134.18168400000002,134.69759257500002,53.0,75.0
483,135.545319,136.2350910375,65.0,75.0
484,134.727138,136.36350000000002,34.0,75.0
485,134.727138,136.36350000000002,46.0,75.0
486,134.999865,136.36350000000002,53.0,75.0
487,135.272592,136.36350000000002,58.0,75.0
488,135.545319,136.36350000000002,62.0,75.0
489,137.454408,137.8282712625,51.0,75.0
490,136.90895400000002,137.8987257375,27.0,75.0
491,136.90895400000002,137.8987257375,39.0,75.0
492,137.181681,137.96236203750001,46.0,75.0
493,137.727135,138.0759982875,55.0,75.0
494,137.999862,138.915770175,29.0,75.0
495,137.999862,138.915770175,41.0,75.0
496,138.272589,138.98622465,48.0,75.0
497,138.545316,139.020315525,53.0,75.0
498,138.81804300000002,139.16804265000002,57.0,75.0
499,139.908951,140.4987231375,62.0,75.0
500,139.908951,140.5214503875,58.0,75.0
501,139.636224,140.71349565,55.0,75.0
502,139.36349700000002,140.802131925,50.0,75.0
503,139.09077000000002,140.84531370000002,31.0,75.0
504,139.09077000000002,140.84531370000002,43.0,75.0
505,140.727132,140.920313625,62.0,75.0
506,140.727132,140.943040875,58.0,75.0
507,141.27258600000002,141.94076715,55.0,75.0
508,141.27258600000002,141.9634944,58.0,75.0
509,141.27258600000002,142.14985785000002,27.0,75.0
510,141.27258600000002,142.14985785000002,39.0,75.0
511,142.090767,142.18622145,58.0,75.0
512,142.090767,142.20099416250002,55.0,75.0
513,141.54531300000002,142.3419031125,46.0,75.0
514,141.81804000000002,142.36803945,51.0,75.0
515,142.363494,143.07826601250002,57.0,75.0
516,142.363494,143.0816751,60.0,75.0
517,142.363494,143.2759930875,29.0,75.0
518,142.363494,143.2759930875,41.0,75.0
519,142.908948,143.35553846250002,53.0,75.0
520,143.181675,143.420311125,60.0,75.0
521,143.181675,143.44303837500001,57.0,75.0
522,142.636221,143.4532656375,48.0,75.0
523,143.45440200000002,144.1896285375,62.0,75.0
524,143.45440200000002,144.19303762500002,65.0,75.0
525,143.99985600000002,144.6078099375,58.0,75.0
526,144.272583,144.9691732125,62.0,75.0
527,144.272583,144.974855025,65.0,75.0
528,144.818037,145.2737183625,58.0,75.0
529,143.72712900000002,145.5805362375,53.0,75.0
530,145.090764,145.59303622500002,65.0,75.0
531,145.090764,145.60439985000002,62.0,75.0
532,143.45440200000002,145.62030892500002,34.0,75.0
533,143.45440200000002,145.62030892500002,46.0,75.0
534,145.636218,146.2782628125,58.0,75.0
535,145.636218,146.29189916250002,55.0,75.0
536,145.636218,146.30894460000002,27.0,75.0
537,145.636218,146.30894460000002,39.0,75.0
538,145.90894500000002,146.69530785,46.0,75.0
539,146.18167200000002,146.73053508750002,51.0,76.0
540,146.727126,147.4600798125,57.0,77.0
541,146.727126,147.4623525375,60.0,77.0
542,146.727126,147.5396251875,29.0,77.0
543,146.727126,147.5396251875,41.0,77.0
544,146.999853,147.60439785,48.0,77.0
545,147.27258,147.68167050000002,53.0,77.0
546,147.545307,147.78167040000002,60.0,77.0
547,147.545307,147.7850794875,57.0,77.0
548,148.36348800000002,148.7373512625,55.0,78.0
549,148.63621500000002,149.2453053,58.0,78.0
550,148.63621500000002,149.265759825,62.0,78.0
551,148.09076100000001,149.45325963750003,50.0,78.0
552,149.1668962875,149.45894145000003,55.0,78.0
553,149.454396,149.543032275,58.0,78.0
554,149.454396,149.543032275,62.0,78.0
555,147.818034,149.5555322625,31.0,77.0
556,147.818034,149.5555322625,43.0,77.0
557,149.99985,150.697576575,55.0,78.0
558,149.99985,150.70439475,58.0,78.0
559,149.99985,150.727122,27.0,78.0
560,149.99985,150.727122,39.0,78.0
561,150.54530400000002,151.0543944,51.0,78.0
562,150.272577,151.07257620000001,46.0,78.0
563,151.09075800000002,151.6543938,29.0,78.0
564,151.09075800000002,151.6543938,41.0,78.0
565,151.36348500000003,151.68621195,48.0,78.0
566,151.09075800000002,152.04530250000002,60.0,78.0
567,151.09075800000002,152.10098426250002,57.0,78.0
568,151.636212,152.152120575,53.0,78.0
569,152.181666,154.11007316250002,34.0,78.0
570,152.181666,154.11007316250002,46.0,78.0
571,152.72712,154.11120952500002,58.0,78.0
572,152.99984700000002,154.179391275,62.0,78.0
573,152.99984700000002,154.18620945,65.0,78.0
574,152.454393,154.25893665,53.0,78.0
575,154.363482,155.9850712875,62.0,78.0
576,154.363482,155.98620765,65.0,78.0
577,154.363482,156.00552581250003,34.0,78.0
578,154.363482,156.00552581250003,46.0,78.0
579,156.545298,156.802115925,74.0,78.0
580,156.545298,156.86461586250002,46.0,78.0
581,156.545298,156.9350703375,58.0,78.0
582,156.818025,157.0964338125,77.0,78.0
583,157.090752,157.38620625000001,74.0,78.0
584,157.090752,157.43734256250002,46.0,78.0
585,157.090752,157.52711520000003,58.0,78.0
586,157.363479,157.63166055000002,77.0,78.0
587,157.63620600000002,157.90893300000002,72.0,78.0
588,157.63620600000002,157.97711475,57.0,78.0
589,157.63620600000002,158.0077965375,45.0,78.0
590,157.90893300000002,158.16802365,77.0,78.0
591,158.18166000000002,158.44756882500002,72.0,78.0
592,158.18166000000002,158.54188691250002,57.0,78.0
593,158.18166000000002,158.5555232625,45.0,78.0
594,158.45438700000003,158.72597763750002,77.0,78.0
595,158.727114,158.98734101250002,70.0,78.0
596,158.727114,159.11915906250002,43.0,78.0
597,158.727114,159.14756812500002,55.0,78.0
598,158.999841,159.2623407375,77.0,78.0
599,159.13620450000002,159.49188596250002,70.0,78.0
600,159.272568,159.59643131250002,55.0,78.0
601,159.272568,159.67597668750003,43.0,78.0
602,159.818022,160.35324873750002,57.0,79.0
603,159.545295,160.49188496250002,72.0,78.0
604,159.818022,160.693021125,45.0,79.0
605,160.63620300000002,160.7668846875,65.0,79.0
606,160.90893000000003,161.14642976250002,74.0,79.0
607,160.90893000000003,161.23052058750002,58.0,79.0
608,161.454384,161.68506558750002,74.0,79.0
609,161.454384,161.93051988750003,58.0,79.0
610,161.727111,161.999838,77.0,79.0
611,161.999838,162.2827922625,72.0,79.0
612,161.999838,162.34529220000002,57.0,79.0
613,162.27256500000001,162.5362011,77.0,79.0
614,162.54529200000002,162.81688263750002,72.0,79.0
615,162.54529200000002,162.9555188625,57.0,79.0
616,162.81801900000002,163.0714278375,77.0,79.0
617,163.09074600000002,163.29529125000002,70.0,79.0
618,163.363473,163.674836325,65.0,79.0
619,163.6362,163.92824516250002,74.0,79.0
620,163.09074600000002,164.181654,55.0,79.0
621,163.908927,164.54415363750002,72.0,79.0
622,164.181654,165.1577893875,53.0,79.0
623,164.99983500000002,165.374834625,82.0,80.0
624,164.99983500000002,165.43165275,70.0,80.0
625,165.27256200000002,165.43165275,79.0,80.0
626,165.27256200000002,165.579379875,67.0,80.0
627,165.54528900000003,165.66687978750002,81.0,80.0
628,165.54528900000003,165.7350615375,69.0,80.0
629,165.818016,165.93165225,82.0,80.0
630,165.818016,166.17142473750002,70.0,80.0
631,165.27256200000002,166.35551546250002,51.0,80.0
632,166.36347,166.50551531250002,77.0,80.0
633,166.36347,166.68392422500003,65.0,80.0
634,166.636197,166.74415143750002,81.0,80.0
635,166.636197,166.8032422875,69.0,80.0
636,166.908924,167.056651125,82.0,80.0
637,166.908924,167.3077872375,70.0,80.0
638,166.36347,167.34869628750002,50.0,80.0
639,167.45437800000002,167.6634687,75.0,80.0
640,167.45437800000002,167.7282413625,63.0,80.0
641,167.72710500000002,167.8509685125,81.0,80.0
642,167.72710500000002,167.87596848750002,69.0,80.0
643,167.99983200000003,168.1782409125,82.0,80.0
644,167.99983200000003,168.2782408125,70.0,80.0
645,167.45437800000002,168.4725588,48.0,80.0
646,168.818013,168.9907401,84.0,80.0
647,169.09074,169.488466875,82.0,80.0
648,168.545286,169.656648525,46.0,80.0
649,169.90892100000002,170.1396025875,58.0,80.0
650,169.63619400000002,170.14642076250001,48.0,80.0
651,170.18164800000002,170.4782386125,65.0,80.0
652,170.18164800000002,170.5736930625,50.0,80.0
653,170.45437500000003,170.59187486250002,58.0,80.0
654,170.727102,171.011192625,67.0,80.0
655,170.727102,171.0180108,51.0,80.0
656,171.02937442500001,171.356646825,60.0,80.0
657,171.272556,171.543010275,67.0,80.0
658,171.272556,171.67028287500003,52.0,80.0
659,171.54187391250002,171.861191775,60.0,80.0
660,171.81801000000002,172.908918,53.0,80.0
661,171.81801000000002,173.18505408750002,69.0,80.0
662,173.181645,173.47255380000001,62.0,80.0
663,173.454372,173.74982625,69.0,80.0
664,172.908918,173.847553425,54.0,80.0
665,173.7100535625,173.938462425,62.0,80.0
666,173.999826,174.3441438375,70.0,80.0
667,174.27255300000002,174.5418709125,62.0,80.0
668,174.54528000000002,174.86800695000002,70.0,80.0
669,174.81800700000002,175.08618855,62.0,80.0
670,173.999826,175.09073400000003,55.0,80.0
671,175.09073400000003,175.43505183750003,72.0,80.0
672,175.363461,175.62255165000002,62.0,80.0
673,175.636188,175.893005925,72.0,80.0
674,175.09073400000003,175.97936947500003,57.0,80.0
675,175.90550591250002,176.12709660000002,62.0,80.0
676,176.181642,176.72709600000002,74.0,80.0
677,176.99982300000002,177.18391372500002,77.0,80.0
678,176.99982300000002,177.2634591,65.0,80.0
679,177.27255000000002,177.53845882500002,79.0,80.0
680,177.27255000000002,177.6418678125,74.0,80.0
681,177.52823156250003,177.68391322500003,65.0,80.0
682,177.54527700000003,177.81686763750002,77.0,80.0
683,177.818004,177.88845847500002,75.0,80.0
684,177.818004,177.98618565,72.0,80.0
685,178.090731,178.1805036375,77.0,80.0
686,176.181642,178.26118537500003,58.0,80.0
687,178.1077764375,178.32595803750002,65.0,80.0
688,178.363458,179.363457,70.0,80.0
689,178.363458,179.4464114625,74.0,80.0
690,181.090728,181.46459126250002,51.0,80.0
691,180.545274,181.5350457375,27.0,80.0
692,180.545274,181.5350457375,39.0,80.0
693,180.818001,181.59868203750003,46.0,80.0
694,181.36345500000002,181.7123182875,55.0,80.0
695,181.63618200000002,182.55209017500002,29.0,80.0
696,181.63618200000002,182.55209017500002,41.0,80.0
697,181.90890900000002,182.62254465,48.0,80.0
698,182.18163600000003,182.656635525,53.0,80.0
699,182.454363,182.80436265,57.0,80.0
700,183.545271,184.13504313750002,62.0,80.0
701,183.545271,184.15777038750002,58.0,80.0
702,183.272544,184.34981565,55.0,80.0
703,182.999817,184.438451925,50.0,80.0
704,182.72709,184.4816337,31.0,80.0
705,182.72709,184.4816337,43.0,80.0
706,184.36345200000002,184.55663362500002,62.0,80.0
707,184.36345200000002,184.57936087500002,58.0,80.0
708,184.908906,185.57708715,55.0,80.0
709,184.908906,185.5998144,58.0,80.0
710,184.908906,185.78617785,27.0,80.0
711,184.908906,185.78617785,39.0,80.0
712,185.727087,185.82254145000002,58.0,80.0
713,185.727087,185.8373141625,55.0,80.0
714,185.181633,185.97822311250002,46.0,80.0
715,185.45436,186.00435945,51.0,80.0
716,185.99981400000001,186.7145860125,57.0,80.0
717,185.99981400000001,186.71799510000002,60.0,80.0
718,185.99981400000001,186.91231308750002,29.0,80.0
719,185.99981400000001,186.91231308750002,41.0,80.0
720,186.54526800000002,186.9918584625,53.0,80.0
721,186.81799500000002,187.05663112500002,60.0,80.0
722,186.81799500000002,187.07935837500003,57.0,80.0
723,186.27254100000002,187.08958563750002,48.0,80.0
724,187.09072200000003,187.8259485375,62.0,80.0
725,187.09072200000003,187.82935762500003,65.0,80.0
726,187.636176,188.24412993750002,58.0,80.0
727,187.908903,188.60549321250002,62.0,80.0
728,187.908903,188.61117502500002,65.0,80.0
729,188.45435700000002,188.91003836250002,58.0,81.0
730,187.363449,189.21685623750002,53.0,80.0
731,188.72708400000002,189.229356225,65.0,81.0
732,188.72708400000002,189.24071985,62.0,81.0
733,187.09072200000003,189.256628925,34.0,80.0
734,187.09072200000003,189.256628925,46.0,80.0
735,189.27253800000003,189.91458281250002,58.0,81.0
736,189.27253800000003,189.92821916250003,55.0,81.0
737,189.27253800000003,189.9452646,27.0,81.0
738,189.27253800000003,189.9452646,39.0,81.0
739,189.54526500000003,190.33162785000002,46.0,82.0
740,189.817992,190.36685508750003,51.0,82.0
741,190.363446,191.0963998125,57.0,82.0
742,190.363446,191.09867253750002,60.0,82.0
743,190.363446,191.17594518750002,29.0,82.0
744,190.363446,191.17594518750002,41.0,82.0
745,190.636173,191.24071785,48.0,82.0
746,190.90890000000002,191.3179905,53.0,82.0
747,191.18162700000002,191.4179904,60.0,82.0
748,191.18162700000002,191.42139948750003,57.0,82.0
749,191.999808,192.3736712625,55.0,82.0
750,192.272535,192.88162530000002,58.0,82.0
751,192.272535,192.90207982500002,62.0,82.0
752,191.72708100000003,193.0895796375,50.0,82.0
753,192.8327617125,193.12594323750002,55.0,82.0
754,193.09071600000001,193.179352275,58.0,82.0
755,193.09071600000001,193.179352275,62.0,82.0
756,191.45435400000002,193.19185226250002,31.0,82.0
757,191.45435400000002,193.19185226250002,43.0,82.0
758,193.63617000000002,194.333896575,55.0,82.0
759,193.63617000000002,194.34071475000002,58.0,82.0
760,193.63617000000002,194.36344200000002,27.0,82.0
761,193.63617000000002,194.36344200000002,39.0,82.0
762,194.18162400000003,194.69071440000002,51.0,82.0
763,193.90889700000002,194.70889620000003,46.0,82.0
764,194.727078,195.29071380000002,29.0,82.0
765,194.727078,195.29071380000002,41.0,82.0
766,194.999805,195.32253195,48.0,82.0
767,194.727078,195.6816225,60.0,82.0
768,194.727078,195.7373042625,57.0,82.0
769,195.272532,195.788440575,53.0,82.0
770,196.63616700000003,197.3259390375,65.0,82.0
771,195.81798600000002,197.454348,34.0,82.0
772,195.81798600000002,197.454348,46.0,82.0
773,196.09071300000002,197.454348,53.0,82.0
774,196.36344000000003,197.454348,58.0,82.0
775,196.63616700000003,197.454348,62.0,82.0
776,198.54525600000002,198.9191192625,51.0,82.0
777,197.99980200000002,198.98957373750002,27.0,82.0
778,197.99980200000002,198.98957373750002,39.0,82.0
779,198.27252900000002,199.0532100375,46.0,82.0
780,198.81798300000003,199.16684628750002,55.0,82.0
781,199.09071000000003,200.00661817500003,29.0,82.0
782,199.09071000000003,200.00661817500003,41.0,82.0
783,199.363437,200.07707265000002,48.0,82.0
784,199.636164,200.11116352500002,53.0,82.0
785,199.908891,200.25889065,57.0,82.0
786,200.99979900000002,201.5895711375,62.0,82.0
787,200.99979900000002,201.6122983875,58.0,82.0
788,200.72707200000002,201.80434365000002,55.0,82.0
789,200.45434500000002,201.89297992500002,50.0,82.0
790,200.18161800000001,201.9361617,31.0,82.0
791,200.18161800000001,201.9361617,43.0,82.0
792,201.81798,202.01116162500003,62.0,82.0
793,201.81798,202.033888875,58.0,82.0
794,202.363434,203.03161515000002,55.0,82.0
795,202.363434,203.05434240000002,58.0,82.0
796,202.363434,203.24070585,27.0,82.0
797,202.363434,203.24070585,39.0,82.0
798,203.18161500000002,203.27706945000003,58.0,81.0
799,203.18161500000002,203.29184216250002,55.0,81.0
800,202.63616100000002,203.43275111250003,46.0,81.0
801,202.90888800000002,203.45888745000002,51.0,81.0
802,203.45434200000003,204.16911401250002,57.0,81.0
803,203.45434200000003,204.1725231,60.0,81.0
804,203.45434200000003,204.3668410875,29.0,81.0
805,203.45434200000003,204.3668410875,41.0,81.0
806,203.999796,204.44638646250002,53.0,81.0
807,204.272523,204.511159125,60.0,81.0
808,204.272523,204.533886375,57.0,81.0
809,203.72706900000003,204.5441136375,48.0,81.0
810,204.54525,205.28047653750002,62.0,81.0
811,204.54525,205.283885625,65.0,81.0
812,205.09070400000002,205.69865793750003,58.0,80.0
813,205.36343100000002,206.0600212125,62.0,80.0
814,205.36343100000002,206.065703025,65.0,80.0
815,205.90888500000003,206.36456636250003,58.0,80.0
816,204.817977,206.6713842375,53.0,80.0
817,206.18161200000003,206.683884225,65.0,80.0
818,206.18161200000003,206.69524785000002,62.0,80.0
819,204.54525,206.711156925,34.0,81.0
820,204.54525,206.711156925,46.0,81.0
821,206.727066,207.36911081250003,58.0,80.0
822,206.727066,207.3827471625,55.0,80.0
823,206.727066,207.3997926,27.0,80.0
824,206.727066,207.3997926,39.0,80.0
825,206.999793,207.78615585000003,46.0,79.0
826,207.27252000000001,207.8213830875,51.0,79.0
827,207.81797400000002,208.55092781250002,57.0,79.0
828,207.81797400000002,208.5532005375,60.0,79.0
829,207.81797400000002,208.63047318750003,29.0,79.0
830,207.81797400000002,208.63047318750003,41.0,79.0
831,208.09070100000002,208.69524585000002,48.0,78.0
832,208.36342800000003,208.77251850000002,53.0,78.0
833,208.636155,208.87251840000002,60.0,78.0
834,208.636155,208.8759274875,57.0,78.0
835,209.454336,209.82819926250002,55.0,77.0
836,209.72706300000002,210.3361533,58.0,76.0
837,209.72706300000002,210.35660782500003,62.0,76.0
838,209.181609,210.54410763750002,50.0,77.0
839,210.2872897125,210.5804712375,55.0,76.0
840,210.54524400000003,210.63388027500002,58.0,76.0
841,210.54524400000003,210.63388027500002,62.0,76.0
842,208.908882,210.6463802625,31.0,78.0
843,208.908882,210.6463802625,43.0,78.0
844,211.090698,211.78842457500002,55.0,76.0
845,211.090698,211.79524275000003,58.0,76.0
846,211.090698,211.81797,27.0,76.0
847,211.090698,211.81797,39.0,76.0
848,211.636152,212.14524240000003,51.0,76.0
849,211.363425,212.1634242,46.0,76.0
850,212.18160600000002,212.74524180000003,29.0,76.0
851,212.18160600000002,212.74524180000003,41.0,76.0
852,212.45433300000002,212.77705995000002,48.0,76.0
853,212.18160600000002,213.1361505,60.0,76.0
854,212.18160600000002,213.19183226250001,57.0,76.0
855,212.72706000000002,213.24296857500002,53.0,76.0
856,213.27251400000003,215.2009211625,34.0,76.0
857,213.27251400000003,215.2009211625,46.0,76.0
858,213.817968,215.20205752500001,58.0,76.0
859,214.090695,215.27023927500002,62.0,76.0
860,214.090695,215.27705745000003,65.0,76.0
861,213.545241,215.34978465,53.0,76.0
862,215.45433000000003,217.32932812500002,34.0,74.0
863,215.45433000000003,217.32932812500002,46.0,74.0
864,215.45433000000003,217.32932812500002,65.0,74.0
865,215.45433000000003,217.34637356250002,62.0,74.0
866,217.63614600000002,218.55205417500002,39.0,71.0
867,218.1816,218.5759177875,51.0,70.0
868,217.90887300000003,218.72364491250002,46.0,70.0
869,218.454327,218.77819031250002,58.0,70.0
870,218.727054,219.5486440875,41.0,70.0
871,219.27250800000002,219.66341670000003,53.0,70.0
872,218.999781,219.74978025000001,48.0,70.0
873,219.54523500000002,219.87478012500003,57.0,70.0
874,220.36341600000003,220.82364281250003,55.0,69.0
875,220.636143,221.28500598750003,58.0,69.0
876,220.636143,221.30659687500003,62.0,69.0
877,221.181597,221.41568767500002,55.0,69.0
878,220.09068900000003,221.492960325,50.0,69.0
879,219.81796200000002,221.51682393750002,43.0,70.0
880,221.454324,221.67705105000002,62.0,69.0
881,221.454324,221.70091466250003,58.0,69.0
882,221.99977800000002,222.09068700000003,58.0,69.0
883,222.1361415,222.65091371250003,58.0,68.0
884,221.99977800000002,222.65432280000002,55.0,69.0
885,221.99977800000002,222.897504375,39.0,69.0
886,222.81795900000003,222.908868,58.0,68.0
887,222.81795900000003,222.93386797500003,55.0,68.0
888,222.54523200000003,223.07704965000002,51.0,68.0
889,222.27250500000002,223.11000416250002,46.0,68.0
890,223.090686,223.752048975,57.0,68.0
891,223.090686,223.752048975,60.0,68.0
892,223.090686,223.94409423750002,41.0,68.0
893,223.90886700000001,224.01568507500002,60.0,67.0
894,223.90886700000001,224.01682143750003,57.0,67.0
895,223.63614,224.08273046250002,53.0,68.0
896,223.363413,224.17591218750002,48.0,68.0
897,224.18159400000002,224.879320575,58.0,67.0
898,224.18159400000002,224.8850023875,62.0,67.0
899,224.72704800000002,226.090683,55.0,67.0
900,224.18159400000002,226.36341000000002,43.0,67.0
901,224.45432100000002,226.36341000000002,50.0,67.0
902,224.99977500000003,226.36341000000002,58.0,67.0
903,224.99977500000003,226.36341000000002,62.0,67.0
904,226.36341000000002,227.23159095000003,39.0,67.0
905,227.18159100000003,227.28045453750002,58.0,67.0
906,227.18159100000003,227.3054545125,55.0,67.0
907,226.90886400000002,227.33272721250003,51.0,67.0
908,226.63613700000002,227.461136175,46.0,67.0
909,227.45431800000003,228.15886275000003,60.0,67.0
910,227.45431800000003,228.16454456250003,57.0,67.0
911,228.272499,228.365680725,57.0,67.0
912,227.45431800000003,228.37022617500003,41.0,67.0
913,228.272499,228.37363526250002,60.0,67.0
914,227.999772,228.48613515000002,53.0,67.0
915,227.727045,228.54068055000002,48.0,67.0
916,228.545226,229.24749802500003,58.0,67.0
917,228.545226,229.26340710000002,62.0,67.0
918,229.09068000000002,229.53045228750003,55.0,67.0
919,229.36340700000002,230.05772448750002,58.0,67.0
920,229.36340700000002,230.06908811250003,62.0,67.0
921,229.90886100000003,230.1054517125,55.0,67.0
922,228.81795300000002,230.111133525,50.0,67.0
923,228.545226,230.20317888750003,43.0,67.0
924,230.181588,230.29181516250003,62.0,67.0
925,230.181588,230.30431515,58.0,67.0
926,230.727042,231.37817771250002,55.0,67.0
927,230.727042,231.38840497500001,58.0,67.0
928,231.54522300000002,231.66226833750002,55.0,67.0
929,231.54522300000002,231.66795015000002,58.0,67.0
930,230.727042,231.69976830000002,39.0,67.0
931,231.27249600000002,231.76340460000003,51.0,67.0
932,230.99976900000001,231.847495425,46.0,67.0
933,231.81795000000002,232.54522200000002,57.0,67.0
934,231.81795000000002,232.5599947125,60.0,67.0
935,231.81795000000002,232.770221775,41.0,67.0
936,232.636131,232.7759035875,57.0,67.0
937,232.636131,232.77931267500003,60.0,67.0
938,232.36340400000003,232.8690853125,53.0,67.0
939,232.09067700000003,232.92363071250003,48.0,67.0
940,232.908858,233.57703915000002,62.0,67.0
941,232.908858,233.64408453750002,65.0,67.0
942,233.45431200000002,233.92135698750002,58.0,67.0
943,234.27249300000003,234.902037825,58.0,67.0
944,233.72703900000002,234.90999236250002,65.0,67.0
945,233.72703900000002,234.92590143750002,62.0,67.0
946,233.181585,234.95431050000002,53.0,67.0
947,232.908858,234.98385592500003,46.0,67.0
948,235.090674,235.9179459,39.0,67.0
949,235.90885500000002,236.11567297500002,55.0,67.0
950,235.636128,236.17590018750002,51.0,67.0
951,235.363401,236.21340015,46.0,67.0
952,236.18158200000002,236.90999036250003,57.0,67.0
953,236.18158200000002,237.079308375,41.0,67.0
954,236.72703600000003,237.2781718125,53.0,67.0
955,236.45430900000002,237.28044453750002,48.0,67.0
956,236.99976300000003,237.37021717500002,57.0,67.0
957,237.27249,239.26907891250002,67.0,67.0
958,237.27249,241.42589493750003,62.0,67.0
959,237.817944,241.44521310000002,50.0,67.0
960,239.45430600000003,241.4940766875,67.0,67.0
961,239.45430600000003,241.53612210000003,55.0,67.0
962,237.27249,241.53612210000003,58.0,67.0
963,237.27249,241.56453116250003,43.0,67.0
