,start,end,pitch,velocity
0,30.928540500000004,31.873182412500004,71.0,122.0
1,32.214253500000005,32.451753262500006,68.0,97.0
2,32.42853900000001,32.69282445,69.0,82.0
3,32.6428245,33.137466862500006,71.0,95.0
4,33.0713955,33.348180937500004,78.0,122.0
5,33.499966500000006,33.796394775,78.0,122.0
6,33.928537500000004,34.128537300000005,75.0,112.0
7,34.14282300000001,35.3856789,76.0,97.0
8,35.642821500000004,35.73924997500001,76.0,117.0
9,35.857107000000006,36.023178262500004,76.0,89.0
10,36.0713925,36.4338921375,75.0,122.0
11,36.49996350000001,36.803534625000005,71.0,88.0
12,36.928534500000005,37.166034262500006,71.0,92.0
13,37.14282000000001,37.7874622125,75.0,107.0
14,37.78567650000001,38.77674693750001,73.0,102.0
15,39.0713895,39.192817950000006,73.0,122.0
16,39.285675000000005,39.423174862500005,71.0,77.0
17,39.49996050000001,39.81781732500001,73.0,107.0
18,39.928531500000005,40.24995975,71.0,95.0
19,40.3571025,40.7374592625,73.0,107.0
20,40.78567350000001,41.194601662500006,71.0,102.0
21,41.21424450000001,42.878528550000006,68.0,92.0
22,44.21424150000001,44.360669925,68.0,127.0
23,44.428527,44.573169712500004,69.0,90.0
24,44.642812500000005,45.632097225,71.0,117.0
25,45.928525500000006,46.014239700000005,71.0,97.0
26,46.14281100000001,46.21602521250001,71.0,97.0
27,46.357096500000004,46.639239075000006,71.0,99.0
28,46.78566750000001,47.05173866250001,78.0,127.0
29,47.21423850000001,47.485666800000004,78.0,127.0
30,47.642809500000006,47.78209507500001,80.0,127.0
31,47.85709500000001,49.276736437500006,76.0,122.0
32,49.57137900000001,49.782093075000006,76.0,107.0
33,49.78566450000001,50.17673553750001,75.0,122.0
34,50.21423550000001,50.48923522500001,71.0,95.0
35,50.642806500000006,50.88209197500001,71.0,102.0
36,50.85709200000001,51.44280570000001,75.0,122.0
37,51.49994850000001,52.97137560000001,73.0,112.0
38,53.21423250000001,53.49994650000001,78.0,127.0
39,53.64280350000001,53.885660400000006,78.0,117.0
40,54.071374500000005,54.433874137500005,78.0,117.0
41,54.49994550000001,54.81780232500001,75.0,112.0
42,54.92851650000001,56.716014712500005,76.0,107.0
43,58.357084500000006,58.63922707500001,80.0,127.0
44,58.785655500000004,59.048155237500005,80.0,127.0
45,59.21422650000001,59.43744056250001,80.0,127.0
46,59.428512000000005,59.43744056250001,80.0,102.0
47,59.85708300000001,59.94279720000001,80.0,122.0
48,60.071368500000005,60.29279685000001,80.0,127.0
49,60.49993950000001,60.58386798750001,78.0,127.0
50,60.714225000000006,60.93029621250001,78.0,122.0
51,61.35708150000001,61.549938450000006,75.0,122.0
52,61.57136700000001,61.755295387500006,73.0,95.0
53,61.785652500000005,62.073152212500005,71.0,99.0
54,62.21422350000001,62.47315181250001,78.0,127.0
55,62.64279450000001,62.98565130000001,78.0,127.0
56,63.071365500000006,63.38743661250001,80.0,107.0
57,63.49993650000001,63.92672178750001,78.0,127.0
58,63.92850750000001,64.02136455000002,76.0,93.0
59,64.14279300000001,64.496364075,76.0,102.0
60,64.7856495,64.92850650000001,73.0,117.0
61,64.99993500000001,65.11422060000001,75.0,112.0
62,65.21422050000001,65.5017202125,76.0,107.0
63,65.64279150000002,66.23921947500001,76.0,117.0
64,66.9285045,67.28564700000001,76.0,122.0
65,67.35707550000001,67.70528943750001,75.0,107.0
66,67.78564650000001,68.21064607500001,73.0,102.0
67,68.2142175,68.689217025,71.0,93.0
68,68.64278850000001,70.1910012375,68.0,107.0
69,72.07135650000001,72.3374276625,80.0,127.0
70,72.49992750000001,72.717784425,80.0,122.0
71,72.9284985,73.14456971250002,80.0,127.0
72,73.35706950000001,73.4427837,80.0,122.0
73,73.57135500000001,73.653497775,80.0,117.0
74,73.78564050000001,74.0195688375,80.0,127.0
75,74.2142115,74.37849705000001,81.0,112.0
76,74.42849700000001,74.72671098750001,78.0,127.0
77,75.07135350000001,75.20349622500001,75.0,102.0
78,75.285639,75.47313881250001,76.0,90.0
79,75.4999245,75.78742421250001,78.0,122.0
80,75.92849550000001,76.2409951875,83.0,112.0
81,76.35706650000002,76.5767091375,83.0,102.0
82,76.7856375,77.05885151250001,75.0,117.0
83,77.21420850000001,77.5267081875,78.0,127.0
84,77.6427795,77.73385083750001,76.0,112.0
85,77.857065,78.2374217625,76.0,122.0
86,78.49992150000001,78.67134990000001,73.0,127.0
87,78.71420700000002,78.87492112500001,75.0,100.0
88,78.9284925,79.439206275,76.0,117.0
89,79.57134900000001,80.16599126250001,76.0,127.0
90,80.64277650000001,81.08384748750001,76.0,112.0
91,81.07134750000002,81.37313291250001,75.0,102.0
92,81.4999185,81.710632575,76.0,107.0
93,81.71420400000001,82.20527493750001,78.0,122.0
94,82.35706050000002,83.79098763750001,78.0,127.0
95,85.35705750000001,85.689200025,76.0,117.0
96,85.78562850000002,86.15348527500001,83.0,127.0
97,86.64277050000001,86.91241308750001,83.0,122.0
98,87.07134150000002,87.224912775,76.0,102.0
99,87.285627,87.49812678750001,80.0,127.0
100,87.71419800000001,88.5016972125,78.0,127.0
101,88.99991100000001,89.10348232500002,75.0,122.0
102,89.21419650000001,89.47312481250002,75.0,127.0
103,89.6427675,89.93919577500002,83.0,127.0
104,90.07133850000001,90.26955258750002,83.0,127.0
105,90.49990950000002,90.80526633750002,85.0,127.0
106,90.71419500000002,91.17669453750001,78.0,117.0
107,92.21419350000001,92.324907675,78.0,127.0
108,91.14276600000001,92.42847900000001,76.0,102.0
109,92.42847900000001,92.51955033750001,80.0,92.0
110,92.64276450000001,92.92847850000001,81.0,122.0
111,93.07133550000002,93.17490682500001,80.0,122.0
112,93.285621,93.66240633750002,81.0,122.0
113,93.92847750000001,94.13204872500002,81.0,102.0
114,94.14276300000002,94.29097713750001,80.0,112.0
115,94.35704850000002,94.64097678750001,81.0,97.0
116,94.78561950000001,95.02847640000002,80.0,127.0
117,95.21419050000002,95.45526168750001,78.0,127.0
118,95.6427615,95.89990410000001,76.0,127.0
119,96.07133250000001,97.75168796250001,80.0,127.0
120,99.07132950000002,99.38918632500001,76.0,117.0
121,99.49990050000001,99.85704300000002,83.0,127.0
122,100.35704250000002,100.65168506250001,83.0,127.0
123,100.78561350000001,100.93382763750002,76.0,107.0
124,100.99989900000001,101.22132735000001,80.0,122.0
125,101.42847000000002,102.11239788750001,78.0,127.0
126,102.49989750000002,102.57489742500002,75.0,127.0
127,102.71418300000002,102.79989720000002,75.0,117.0
128,102.92846850000001,103.16418255,75.0,127.0
129,103.35703950000001,103.63561065000002,83.0,122.0
130,103.78561050000002,103.96418175000001,83.0,127.0
131,104.21418150000001,104.36060992500002,85.0,122.0
132,104.42846700000001,105.06239493750002,78.0,117.0
133,105.07132350000002,105.52310876250002,76.0,107.0
134,105.92846550000002,106.06417965000001,78.0,127.0
135,106.14275100000002,106.26239373750002,80.0,112.0
136,106.35703650000002,106.61953623750001,81.0,117.0
137,106.78560750000001,106.88560740000001,80.0,122.0
138,106.99989300000001,107.45167826250001,81.0,127.0
139,107.85703500000001,107.97846345000002,80.0,112.0
140,108.07132050000001,108.35524878750002,81.0,99.0
141,108.49989150000002,108.70703415000001,80.0,127.0
142,108.92846250000001,109.21953363750002,78.0,127.0
143,109.35703350000001,109.62489037500002,76.0,112.0
144,109.78560450000002,111.65881691250001,76.0,127.0
145,140.6427165,141.5873584125,71.0,122.0
146,141.92842950000002,142.16592926250001,68.0,97.0
147,142.142715,142.40700045000003,69.0,82.0
148,142.35700050000003,142.85164286250003,71.0,95.0
149,142.78557150000003,143.06235693750003,78.0,122.0
150,143.2141425,143.51057077500002,78.0,122.0
151,143.6427135,143.8427133,75.0,112.0
152,143.85699900000003,145.09985490000003,76.0,97.0
153,145.3569975,145.45342597500002,76.0,117.0
154,145.57128300000002,145.73735426250002,76.0,89.0
155,145.7855685,146.14806813750002,75.0,122.0
156,146.21413950000002,146.517710625,71.0,88.0
157,146.64271050000002,146.88021026250001,71.0,92.0
158,146.856996,147.5016382125,75.0,107.0
159,147.49985250000003,148.49092293750002,73.0,102.0
160,148.78556550000002,148.90699395000001,73.0,122.0
161,148.999851,149.13735086250003,71.0,77.0
162,149.21413650000002,149.53199332500003,73.0,107.0
163,149.64270750000003,149.96413575000003,71.0,95.0
164,150.07127850000003,150.45163526250002,73.0,107.0
165,150.4998495,150.90877766250003,71.0,102.0
166,150.92842050000002,152.59270455,68.0,92.0
167,153.92841750000002,154.07484592500003,68.0,127.0
168,154.142703,154.2873457125,69.0,90.0
169,154.35698850000003,155.34627322500003,71.0,117.0
170,155.64270150000002,155.72841570000003,71.0,97.0
171,155.85698700000003,155.9302012125,71.0,97.0
172,156.07127250000002,156.35341507500002,71.0,99.0
173,156.49984350000003,156.76591466250002,78.0,127.0
174,156.92841450000003,157.19984280000003,78.0,127.0
175,157.3569855,157.496271075,80.0,127.0
176,157.57127100000002,158.99091243750001,76.0,122.0
177,159.28555500000002,159.49626907500001,76.0,107.0
178,159.49984050000003,159.89091153750002,75.0,122.0
179,159.9284115,160.20341122500002,71.0,95.0
180,160.35698250000002,160.59626797500002,71.0,102.0
181,160.57126800000003,161.15698170000002,75.0,122.0
182,161.21412450000003,162.68555160000003,73.0,112.0
183,162.92840850000002,163.21412250000003,78.0,127.0
184,163.35697950000002,163.59983640000002,78.0,117.0
185,163.78555050000003,164.1480501375,78.0,117.0
186,164.21412150000003,164.531978325,75.0,112.0
187,164.6426925,166.43019071250004,76.0,107.0
188,168.07126050000002,168.35340307500002,80.0,127.0
189,168.49983150000003,168.76233123750004,80.0,127.0
190,168.92840250000003,169.1516165625,80.0,127.0
191,169.14268800000002,169.1516165625,80.0,102.0
192,169.57125900000003,169.6569732,80.0,122.0
193,169.78554450000001,170.00697285,80.0,127.0
194,170.21411550000002,170.29804398750002,78.0,127.0
195,170.42840100000004,170.64447221250003,78.0,122.0
196,171.07125750000003,171.26411445000002,75.0,122.0
197,171.28554300000002,171.46947138750002,73.0,95.0
198,171.49982850000004,171.78732821250003,71.0,99.0
199,171.9283995,172.18732781250003,78.0,127.0
200,172.35697050000002,172.6998273,78.0,127.0
201,172.78554150000002,173.10161261250002,80.0,107.0
202,173.21411250000003,173.64089778750002,78.0,127.0
203,173.64268350000003,173.73554055000002,76.0,93.0
204,173.85696900000002,174.210540075,76.0,102.0
205,174.49982550000001,174.64268250000003,73.0,117.0
206,174.71411100000003,174.82839660000002,75.0,112.0
207,174.92839650000002,175.2158962125,76.0,107.0
208,175.35696750000002,175.95339547500004,76.0,117.0
209,176.6426805,176.99982300000002,76.0,122.0
210,177.07125150000002,177.41946543750004,75.0,107.0
211,177.49982250000002,177.92482207500004,73.0,102.0
212,177.92839350000003,178.403393025,71.0,93.0
213,178.35696450000003,179.90517723750003,68.0,107.0
214,181.78553250000002,182.0516036625,80.0,127.0
215,182.21410350000002,182.43196042500003,80.0,122.0
216,182.64267450000003,182.85874571250002,80.0,127.0
217,183.07124550000003,183.15695970000002,80.0,122.0
218,183.28553100000002,183.36767377500001,80.0,117.0
219,183.49981650000004,183.7337448375,80.0,127.0
220,183.9283875,184.09267305000003,81.0,112.0
221,184.14267300000003,184.44088698750002,78.0,127.0
222,184.78552950000002,184.91767222500002,75.0,102.0
223,184.999815,185.18731481250003,76.0,90.0
224,185.21410050000003,185.50160021250002,78.0,122.0
225,185.64267150000003,185.9551711875,83.0,112.0
226,186.0712425,186.29088513750003,83.0,102.0
227,186.49981350000002,186.77302751250002,75.0,117.0
228,186.92838450000002,187.24088418750003,78.0,127.0
229,187.35695550000003,187.44802683750004,76.0,112.0
230,187.57124100000001,187.95159776250003,76.0,122.0
231,188.21409750000004,188.38552590000003,73.0,127.0
232,188.42838300000003,188.58909712500002,75.0,100.0
233,188.6426685,189.153382275,76.0,117.0
234,189.28552500000004,189.88016726250004,76.0,127.0
235,190.35695250000003,190.79802348750002,76.0,112.0
236,190.78552350000004,191.08730891250002,75.0,102.0
237,191.21409450000002,191.42480857500001,76.0,107.0
238,191.42838000000003,191.91945093750002,78.0,122.0
239,192.07123650000003,193.50516363750003,78.0,127.0
240,195.07123350000003,195.40337602500003,76.0,117.0
241,195.49980450000004,195.86766127500002,83.0,127.0
242,196.35694650000002,196.62658908750004,83.0,122.0
243,196.78551750000003,196.93908877500002,76.0,102.0
244,196.999803,197.21230278750002,80.0,127.0
245,197.42837400000002,198.21587321250001,78.0,127.0
246,198.71408700000003,198.81765832500002,75.0,122.0
247,198.92837250000002,199.1873008125,75.0,127.0
248,199.35694350000003,199.65337177500004,83.0,127.0
249,199.78551450000003,199.98372858750002,83.0,127.0
250,200.21408550000004,200.51944233750004,85.0,127.0
251,200.42837100000003,200.89087053750004,78.0,117.0
252,201.92836950000003,202.03908367500003,78.0,127.0
253,200.85694200000003,202.14265500000002,76.0,102.0
254,202.14265500000002,202.23372633750003,80.0,92.0
255,202.35694050000004,202.64265450000002,81.0,122.0
256,202.7855115,202.88908282500003,80.0,122.0
257,202.99979700000003,203.37658233750003,81.0,122.0
258,203.64265350000002,203.846224725,81.0,102.0
259,203.85693900000004,204.00515313750003,80.0,112.0
260,204.07122450000003,204.35515278750003,81.0,97.0
261,204.49979550000003,204.74265240000003,80.0,127.0
262,204.92836650000004,205.16943768750002,78.0,127.0
263,205.35693750000002,205.61408010000002,76.0,127.0
264,205.78550850000002,207.46586396250004,80.0,127.0
265,208.78550550000003,209.10336232500003,76.0,117.0
266,209.21407650000003,209.571219,83.0,127.0
267,210.07121850000001,210.36586106250002,83.0,127.0
268,210.49978950000002,210.64800363750004,76.0,107.0
269,210.71407500000004,210.93550335000003,80.0,122.0
270,211.14264600000004,211.82657388750002,78.0,127.0
271,212.21407350000004,212.28907342500003,75.0,127.0
272,212.42835900000003,212.51407320000004,75.0,117.0
273,212.64264450000002,212.87835855000003,75.0,127.0
274,213.07121550000002,213.34978665000003,83.0,122.0
275,213.49978650000003,213.67835775000003,83.0,127.0
276,213.92835750000003,214.07478592500001,85.0,122.0
277,214.14264300000002,214.77657093750003,78.0,117.0
278,214.78549950000001,215.23728476250002,76.0,107.0
279,215.64264150000002,215.77835565000004,78.0,127.0
280,215.85692700000004,215.97656973750003,80.0,112.0
281,216.07121250000003,216.33371223750004,81.0,117.0
282,216.49978350000004,216.59978340000004,80.0,122.0
283,216.71406900000002,217.16585426250003,81.0,127.0
284,217.57121100000003,217.69263945000003,80.0,112.0
285,217.78549650000002,218.06942478750003,81.0,99.0
286,218.21406750000003,218.42121015000004,80.0,127.0
287,218.64263850000003,218.93370963750002,78.0,127.0
288,219.07120950000004,219.33906637500002,76.0,112.0
289,219.49978050000004,221.37299291250002,76.0,127.0
290,222.49977750000002,222.83192002500002,76.0,117.0
291,222.92834850000003,223.29620527500003,83.0,127.0
292,223.78549050000004,224.05513308750002,83.0,122.0
293,224.21406150000004,224.36763277500003,76.0,102.0
294,224.42834700000003,224.64084678750004,80.0,127.0
295,224.85691800000004,225.64441721250003,78.0,127.0
296,226.14263100000002,226.24620232500004,75.0,122.0
297,226.35691650000004,226.61584481250003,75.0,127.0
298,226.78548750000002,227.08191577500003,83.0,127.0
299,227.21405850000002,227.41227258750004,83.0,127.0
300,227.64262950000003,227.94798633750003,85.0,127.0
301,227.85691500000004,228.31941453750002,78.0,117.0
302,229.35691350000002,229.46762767500002,78.0,127.0
303,228.28548600000002,229.57119900000004,76.0,102.0
304,229.57119900000004,229.66227033750002,80.0,92.0
305,229.78548450000002,230.07119850000004,81.0,122.0
306,230.21405550000003,230.31762682500002,80.0,122.0
307,230.42834100000002,230.80512633750004,81.0,122.0
308,231.07119750000004,231.27476872500003,81.0,102.0
309,231.28548300000003,231.43369713750002,80.0,112.0
310,231.49976850000004,231.78369678750002,81.0,97.0
311,231.92833950000002,232.17119640000004,80.0,127.0
312,232.35691050000003,232.59798168750004,78.0,127.0
313,232.78548150000003,233.04262410000004,76.0,127.0
314,233.21405250000004,234.89440796250003,80.0,127.0
315,236.21404950000004,236.53190632500002,76.0,117.0
316,236.64262050000002,236.99976300000003,83.0,127.0
317,237.49976250000003,237.79440506250003,83.0,127.0
318,237.92833350000004,238.07654763750003,76.0,107.0
319,238.14261900000002,238.36404735000002,80.0,122.0
320,238.57119000000003,239.25511788750003,78.0,127.0
321,239.64261750000003,239.71761742500004,75.0,127.0
322,239.85690300000005,239.94261720000003,75.0,117.0
323,240.07118850000003,240.30690255000002,75.0,127.0
324,240.49975950000004,240.77833065000004,83.0,122.0
325,240.92833050000004,241.10690175000002,83.0,127.0
326,241.35690150000002,241.50332992500003,85.0,122.0
327,241.57118700000004,242.20511493750004,78.0,117.0
328,242.21404350000003,242.66582876250004,76.0,107.0
329,243.07118550000004,243.20689965000003,78.0,127.0
330,243.28547100000003,243.40511373750005,80.0,112.0
331,243.49975650000002,243.76225623750003,81.0,117.0
332,243.92832750000002,244.02832740000002,80.0,122.0
333,244.14261300000004,244.59439826250002,81.0,127.0
334,244.99975500000002,245.12118345000002,80.0,112.0
335,245.21404050000004,245.49796878750004,81.0,99.0
336,245.64261150000004,245.84975415000002,80.0,127.0
337,246.07118250000002,246.36225363750003,78.0,127.0
338,246.49975350000003,246.76761037500003,76.0,112.0
339,246.92832450000003,248.80153691250004,76.0,127.0
340,249.92832150000004,250.06046422500003,78.0,127.0
341,250.14260700000003,250.27653543750003,80.0,112.0
342,250.35689250000004,250.83903487500004,81.0,127.0
343,250.78546350000002,250.95332047500003,80.0,127.0
344,250.99974900000004,251.65689120000005,81.0,112.0
345,251.85689100000005,251.99260515000003,80.0,117.0
346,252.07117650000004,252.31224768750002,81.0,100.0
347,252.49974750000004,252.70689015000002,80.0,122.0
348,252.92831850000005,253.35153236250002,78.0,127.0
349,253.57117500000004,253.69260345000004,76.0,95.0
350,253.78546050000003,256.87295741250006,76.0,100.0
