,start,end,pitch,velocity
0,3.9285675000000007,4.376781337500001,64.0,45.0
1,3.4999965000000004,4.449995550000001,57.0,60.0
2,4.7857095,5.189280525000001,64.0,45.0
3,4.3571385000000005,5.199994800000001,69.0,75.0
4,4.3571385000000005,5.230351912500001,73.0,78.0
5,5.642851500000001,6.421422150000001,66.0,64.0
6,5.214280500000001,6.4696363875000005,59.0,69.0
7,6.071422500000001,6.871421700000001,78.0,63.0
8,6.071422500000001,6.901778812500001,75.0,95.0
9,6.4999935,6.957135900000001,71.0,48.0
10,7.357135500000001,7.842849300000001,68.0,53.0
11,6.928564500000001,8.232134625,56.0,58.0
12,7.785706500000001,8.574991425,75.0,59.0
13,7.785706500000001,8.608919962500002,71.0,66.0
14,8.214277500000001,8.82141975,68.0,46.0
15,9.071419500000001,9.610704675000001,68.0,63.0
16,8.642848500000001,9.735704550000001,61.0,38.0
17,9.9285615,10.3571325,68.0,55.0
18,9.499990500000001,10.3571325,73.0,38.0
19,9.499990500000001,10.3571325,76.0,69.0
20,10.785703500000002,11.312488687500002,64.0,68.0
21,10.3571325,11.923202362500001,57.0,70.0
22,11.642845500000002,12.192844950000001,64.0,47.0
23,11.214274500000002,12.599987400000002,69.0,67.0
24,11.214274500000002,12.648201637500001,73.0,60.0
25,12.499987500000001,12.998201287500002,64.0,51.0
26,12.071416500000002,13.101772612500001,57.0,44.0
27,12.928558500000001,13.814271900000001,69.0,66.0
28,12.928558500000001,13.849986150000001,73.0,58.0
29,13.357129500000001,13.935700350000001,64.0,41.0
30,14.214271500000002,15.323198962500001,54.0,58.0
31,15.071413500000002,16.22141235,66.0,63.0
32,14.642842500000002,16.4017693125,59.0,73.0
33,15.499984500000002,16.778554650000004,54.0,56.0
34,13.785700500000003,16.842840300000002,47.0,57.0
35,15.499984500000002,17.226768487500003,63.0,63.0
36,16.357126500000003,17.255339887500003,66.0,66.0
37,16.7856975,17.257125600000002,59.0,38.0
38,17.214268500000003,18.274981725000004,45.0,71.0
39,17.6428395,18.3410530875,52.0,66.0
40,18.071410500000002,18.9374810625,64.0,88.0
41,18.499981500000004,18.9714096,57.0,52.0
42,18.071410500000002,18.985695300000003,61.0,89.0
43,18.928552500000002,19.923194362500002,47.0,69.0
44,19.357123500000004,19.9285515,54.0,73.0
45,19.7856945,20.594622262500003,63.0,117.0
46,19.7856945,20.687479312500002,66.0,107.0
47,20.214265500000003,20.874979125000003,59.0,59.0
48,20.6428365,21.839263875000004,44.0,90.0
49,21.071407500000003,21.92140665,56.0,82.0
50,21.499978500000005,22.3267633875,63.0,86.0
51,21.499978500000005,22.362477637500003,68.0,96.0
52,21.928549500000003,22.374977625000003,59.0,69.0
53,22.357120500000004,22.901762812500003,49.0,64.0
54,22.785691500000002,23.257119600000003,61.0,76.0
55,23.214262500000004,24.033904537500003,64.0,69.0
56,23.214262500000004,24.067833075000003,68.0,99.0
57,23.642833500000002,24.114261600000003,61.0,67.0
58,24.071404500000003,25.323188962500005,45.0,72.0
59,24.4999755,25.408903162500003,52.0,66.0
60,24.928546500000003,25.799974200000005,64.0,76.0
61,24.928546500000003,25.808902762500004,61.0,86.0
62,25.357117500000005,25.901759812500003,57.0,62.0
63,26.214259500000004,26.817830325000003,54.0,56.0
64,25.785688500000003,26.855330287500003,47.0,71.0
65,26.642830500000002,27.539258175000004,63.0,99.0
66,26.642830500000002,27.580329562500005,66.0,89.0
67,27.071401500000004,27.612472387500002,59.0,55.0
68,27.928543500000004,28.555328587500004,47.0,66.0
69,28.357114500000005,29.139256575000005,59.0,85.0
70,27.499972500000002,29.962470037500005,40.0,73.0
71,28.785685500000003,30.067827075000004,47.0,49.0
72,29.214256500000005,30.803540625000004,52.0,71.0
73,29.214256500000005,30.805326337500006,56.0,62.0
74,29.214256500000005,30.805326337500006,59.0,72.0
75,30.928540500000004,31.353540075000005,52.0,38.0
76,30.928540500000004,31.582111275000003,59.0,67.0
77,30.928540500000004,31.626754087500004,56.0,64.0
78,31.785682500000004,33.330323812500005,59.0,62.0
79,31.785682500000004,33.355323787500005,56.0,63.0
80,31.357111500000006,33.6088949625,47.0,37.0
81,30.928540500000004,33.7196091375,40.0,66.0
82,33.499966500000006,33.89996610000001,56.0,72.0
83,32.6428245,33.916037512500004,52.0,41.0
84,33.499966500000006,33.91782322500001,59.0,75.0
85,34.78567950000001,35.39639317500001,49.0,46.0
86,35.642821500000004,36.267820875000005,49.0,47.0
87,35.214250500000006,36.44996355000001,56.0,70.0
88,36.0713925,36.73746326250001,61.0,82.0
89,34.3571085,37.091034337500005,37.0,93.0
90,36.49996350000001,37.1946056625,49.0,58.0
91,37.3571055,37.924962075,56.0,46.0
92,36.928534500000005,37.9731763125,61.0,95.0
93,38.214247500000006,39.860674425000006,52.0,52.0
94,39.928531500000005,40.10710275,52.0,33.0
95,38.642818500000004,40.1571027,64.0,88.0
96,39.49996050000001,40.171388400000005,61.0,52.0
97,37.78567650000001,40.3124596875,45.0,72.0
98,40.78567350000001,41.199958800000005,61.0,31.0
99,40.3571025,41.262458737500005,64.0,72.0
100,39.0713895,41.30174441250001,57.0,58.0
101,41.642815500000005,42.27495772500001,47.0,59.0
102,42.0713865,42.976742737500004,52.0,66.0
103,42.928528500000006,43.00531413750001,59.0,86.0
104,41.21424450000001,44.12852730000001,40.0,68.0
105,42.49995750000001,44.25888431250001,47.0,52.0
106,43.357099500000004,44.349955650000005,52.0,31.0
107,44.21424150000001,44.67674103750001,59.0,67.0
108,43.999956000000005,44.69638387500001,64.0,63.0
109,43.78567050000001,44.78209807500001,68.0,122.0
110,45.49995450000001,46.039239675000005,64.0,85.0
111,45.928525500000006,46.712453287500004,52.0,53.0
112,45.0713835,47.005310137500004,47.0,58.0
113,44.642812500000005,47.037452962500005,40.0,66.0
114,46.357096500000004,47.05173866250001,64.0,83.0
115,46.357096500000004,47.12138145000001,68.0,97.0
116,46.78566750000001,47.14102428750001,52.0,53.0
117,47.21423850000001,47.817809325000006,68.0,92.0
118,47.21423850000001,47.866023562500004,64.0,88.0
119,47.642809500000006,48.123166162500006,51.0,82.0
120,48.49995150000001,48.999951,61.0,47.0
121,48.071380500000004,49.301736412500006,49.0,82.0
122,48.92852250000001,49.4428077,64.0,69.0
123,49.357093500000005,49.85352157500001,61.0,61.0
124,49.78566450000001,50.480306662500006,68.0,64.0
125,49.78566450000001,50.49994950000001,64.0,74.0
126,50.642806500000006,50.76244923750001,64.0,73.0
127,50.85709200000001,50.97673473750001,64.0,26.0
128,50.642806500000006,51.021377550000004,68.0,88.0
129,51.071377500000004,51.52316276250001,47.0,65.0
130,51.92851950000001,52.542804600000004,52.0,48.0
131,52.78566150000001,53.40173231250001,52.0,38.0
132,52.357090500000005,53.641017787500004,61.0,79.0
133,53.21423250000001,53.983874587500004,57.0,73.0
134,53.64280350000001,54.04280310000001,52.0,39.0
135,51.49994850000001,54.14458871250001,45.0,66.0
136,52.357090500000005,54.92851650000001,64.0,74.0
137,54.071374500000005,54.94815933750001,61.0,112.0
138,54.49994550000001,54.96601646250001,57.0,49.0
139,55.785658500000004,56.56422915000001,59.0,88.0
140,56.21422950000001,56.57672913750001,56.0,81.0
141,55.357087500000006,56.721371850000004,47.0,56.0
142,56.64280050000001,57.34279980000001,62.0,70.0
143,56.64280050000001,57.36244263750001,56.0,72.0
144,56.64280050000001,57.39458546250001,59.0,67.0
145,56.64280050000001,57.42315686250001,52.0,93.0
146,54.92851650000001,57.59279955000001,40.0,76.0
147,57.49994250000001,57.964227750000006,56.0,96.0
148,57.49994250000001,57.982084875000005,62.0,89.0
149,57.49994250000001,57.98387058750001,59.0,85.0
150,57.92851350000001,57.99815628750001,52.0,85.0
151,58.357084500000006,58.835655450000004,64.0,82.0
152,58.357084500000006,58.87494112500001,61.0,88.0
153,58.357084500000006,59.25708360000001,45.0,76.0
154,58.785655500000004,59.26244073750001,52.0,47.0
155,59.21422650000001,59.42136915000001,61.0,102.0
156,59.21422650000001,59.45172626250001,64.0,90.0
157,58.357084500000006,59.59279755000001,57.0,82.0
158,60.071368500000005,60.61065367500001,66.0,97.0
159,60.071368500000005,60.64815363750001,63.0,100.0
160,60.071368500000005,60.657082200000005,59.0,82.0
161,60.49993950000001,61.07672463750001,54.0,58.0
162,60.071368500000005,61.22136735000001,47.0,65.0
163,60.92851050000001,61.27672443750001,66.0,122.0
164,60.92851050000001,61.305295837500005,63.0,112.0
165,61.785652500000005,62.51422320000001,63.0,92.0
166,61.785652500000005,62.583865987500005,59.0,77.0
167,62.64279450000001,63.05707980000001,63.0,100.0
168,61.785652500000005,63.11957973750001,44.0,77.0
169,63.071365500000006,63.47493652500001,56.0,66.0
170,63.49993650000001,64.0160074125,61.0,72.0
171,63.49993650000001,64.1695786875,64.0,89.0
172,63.49993650000001,64.2195786375,56.0,36.0
173,63.49993650000001,64.64814963750001,49.0,66.0
174,64.35707850000001,64.8160066125,61.0,117.0
175,64.35707850000001,64.83564945,64.0,89.0
176,64.7856495,65.20707765,47.0,64.0
177,65.21422050000001,65.946362625,61.0,96.0
178,65.64279150000002,66.082076775,52.0,35.0
179,65.21422050000001,66.13029101250001,57.0,92.0
180,65.21422050000001,66.132076725,64.0,82.0
181,65.21422050000001,66.18029096250001,45.0,69.0
182,66.0713625,66.51957633750001,61.0,68.0
183,66.49993350000001,66.72136185000001,57.0,69.0
184,66.9285045,67.57850385,59.0,82.0
185,66.9285045,67.60528953750001,66.0,100.0
186,66.9285045,67.653503775,63.0,117.0
187,66.9285045,67.92493207500002,47.0,64.0
188,67.78564650000001,68.24278890000001,66.0,102.0
189,67.78564650000001,68.26600316250001,63.0,122.0
190,68.2142175,68.29100313750001,59.0,89.0
191,68.64278850000001,69.489216225,56.0,92.0
192,68.64278850000001,69.49278765000001,59.0,88.0
193,69.92850150000001,70.2552868875,56.0,68.0
194,68.64278850000001,70.25885831250001,40.0,73.0
195,69.07135950000001,70.26778687500001,47.0,56.0
196,70.35707250000002,70.94992905000001,56.0,96.0
197,70.35707250000002,70.9660004625,59.0,90.0
198,70.35707250000002,70.97492902500001,62.0,95.0
199,69.4999305,71.01421470000001,52.0,88.0
200,70.7856435,71.3624286375,47.0,58.0
201,71.21421450000001,71.63385693750001,59.0,97.0
202,71.21421450000001,71.63921407500001,56.0,117.0
203,70.35707250000002,71.67314261250002,40.0,85.0
204,71.64278550000002,71.7713568,47.0,74.0
205,72.07135650000001,72.76599866250001,64.0,82.0
206,72.07135650000001,72.83028431250001,61.0,99.0
207,72.07135650000001,72.9481413375,57.0,93.0
208,72.07135650000001,73.05171266250001,33.0,72.0
209,72.07135650000001,73.05171266250001,45.0,72.0
210,72.49992750000001,73.08564120000001,52.0,42.0
211,72.9284985,73.389212325,64.0,69.0
212,73.35706950000001,73.58564070000001,57.0,81.0
213,73.78564050000001,74.30171141250001,66.0,102.0
214,73.78564050000001,74.32135425000001,63.0,112.0
215,73.78564050000001,74.339211375,59.0,77.0
216,74.2142115,74.71242528750001,54.0,41.0
217,73.78564050000001,74.7302824125,35.0,69.0
218,73.78564050000001,74.7302824125,47.0,69.0
219,74.85706800000001,74.98385358750001,54.0,62.0
220,74.85706800000001,75.01063927500002,47.0,58.0
221,74.64278250000001,75.09635347500002,66.0,127.0
222,74.64278250000001,75.12313916250001,63.0,127.0
223,75.07135350000001,75.29635327500002,59.0,93.0
224,75.4999245,76.04992395000001,63.0,95.0
225,75.4999245,76.15885241250001,59.0,85.0
226,75.92849550000001,76.48742351250002,56.0,61.0
227,76.35706650000002,76.72849470000001,63.0,127.0
228,76.35706650000002,76.7767089375,59.0,92.0
229,75.4999245,76.96778017500002,32.0,95.0
230,75.4999245,76.96778017500002,44.0,95.0
231,76.7856375,76.996351575,56.0,63.0
232,77.21420850000001,77.717779425,68.0,100.0
233,77.21420850000001,77.73027941250001,64.0,90.0
234,77.21420850000001,77.77492222500001,61.0,102.0
235,77.21420850000001,78.067779075,37.0,63.0
236,77.21420850000001,78.067779075,49.0,63.0
237,78.07135050000001,78.35885021250002,64.0,100.0
238,78.07135050000001,78.382064475,68.0,112.0
239,78.07135050000001,78.39099303750001,61.0,97.0
240,78.28563600000001,78.44099298750001,49.0,95.0
241,78.49992150000001,78.97134960000001,47.0,82.0
242,78.9284925,79.48563480000001,61.0,97.0
243,78.9284925,79.59634897500001,64.0,83.0
244,78.9284925,79.62670608750001,57.0,90.0
245,78.9284925,80.20349122500001,33.0,78.0
246,78.9284925,80.20349122500001,45.0,78.0
247,79.78563450000001,80.49099093750002,64.0,96.0
248,79.78563450000001,80.50349092500001,57.0,95.0
249,79.78563450000001,80.51241948750001,61.0,127.0
250,80.42849100000001,80.54634802500001,45.0,20.0
251,80.64277650000001,81.310632975,64.0,82.0
252,80.64277650000001,81.33384723750001,57.0,79.0
253,80.64277650000001,81.35884721250001,61.0,99.0
254,80.64277650000001,81.76241823750001,33.0,69.0
255,80.64277650000001,81.76241823750001,45.0,69.0
256,81.4999185,81.88920382500001,61.0,127.0
257,81.4999185,81.88920382500001,64.0,96.0
258,81.4999185,82.0659893625,57.0,99.0
259,81.92848950000001,82.31956053750001,45.0,81.0
260,82.35706050000002,83.0517026625,66.0,102.0
261,82.35706050000002,83.05527408750001,59.0,93.0
262,82.35706050000002,83.08384548750001,63.0,117.0
263,83.21420250000001,83.61420210000001,51.0,25.0
264,83.21420250000001,83.68563060000001,63.0,127.0
265,83.21420250000001,83.70705915,66.0,127.0
266,83.21420250000001,83.75884481250002,59.0,96.0
267,83.6427735,83.91598751250001,54.0,82.0
268,83.857059,83.967773175,51.0,39.0
269,82.35706050000002,84.02491597500001,35.0,93.0
270,82.35706050000002,84.02491597500001,47.0,93.0
271,84.07134450000001,84.10527303750001,51.0,59.0
272,84.07134450000001,84.18920152500002,59.0,117.0
273,84.07134450000001,84.19634437500001,71.0,93.0
274,84.49991550000001,84.567772575,73.0,99.0
275,84.07134450000001,84.58741541250001,54.0,117.0
276,84.49991550000001,84.603486825,61.0,122.0
277,84.49991550000001,85.05527208750001,51.0,54.0
278,84.9284865,85.12491487500002,75.0,93.0
279,84.9284865,85.21598621250001,63.0,127.0
280,84.9284865,85.2838432875,54.0,95.0
281,85.35705750000001,85.49634307500001,54.0,42.0
282,85.35705750000001,85.5838429875,51.0,75.0
283,84.07134450000001,85.61777152500001,35.0,62.0
284,84.07134450000001,85.61777152500001,47.0,62.0
285,85.78562850000002,86.34098508750002,64.0,92.0
286,85.78562850000002,86.40884216250001,61.0,117.0
287,85.78562850000002,86.49634207500002,57.0,107.0
288,86.2141995,86.86955598750001,52.0,41.0
289,86.64277050000001,87.00348442500001,61.0,127.0
290,86.64277050000001,87.02848440000001,64.0,96.0
291,86.64277050000001,87.1999128,57.0,102.0
292,85.78562850000002,87.37669833750002,33.0,70.0
293,85.78562850000002,87.37669833750002,45.0,70.0
294,87.07134150000002,87.46241253750001,52.0,41.0
295,87.49991250000001,87.97848345000001,66.0,107.0
296,87.49991250000001,87.99812628750001,63.0,127.0
297,87.49991250000001,88.04812623750001,59.0,92.0
298,87.92848350000001,88.42312586250002,54.0,53.0
299,87.49991250000001,88.61598281250001,35.0,70.0
300,87.49991250000001,88.61598281250001,47.0,70.0
301,88.57134,88.66062562500001,54.0,100.0
302,88.35705450000002,88.79991120000001,66.0,122.0
303,88.35705450000002,88.83562545000001,63.0,127.0
304,88.78562550000001,89.05348237500002,59.0,88.0
305,89.21419650000001,89.63383893750002,63.0,112.0
306,89.21419650000001,89.917767225,59.0,97.0
307,89.6427675,90.18026696250001,56.0,77.0
308,90.07133850000001,90.49098093750001,63.0,112.0
309,89.21419650000001,90.53740946250001,32.0,96.0
310,89.21419650000001,90.53740946250001,44.0,96.0
311,90.07133850000001,90.55169516250001,59.0,95.0
312,90.49990950000002,90.753480675,56.0,66.0
313,90.9284805,91.36955148750002,68.0,100.0
314,90.9284805,91.45526568750002,64.0,93.0
315,90.9284805,91.60169411250001,61.0,107.0
316,90.9284805,91.66240833750001,49.0,73.0
317,91.78562250000002,92.09097933750002,64.0,102.0
318,91.78562250000002,92.10347932500001,68.0,117.0
319,91.78562250000002,92.13026501250002,61.0,100.0
320,92.21419350000001,92.65347877500001,49.0,99.0
321,92.64276450000001,93.30526383750001,64.0,97.0
322,92.64276450000001,93.33383523750001,61.0,117.0
323,92.64276450000001,93.34276380000001,57.0,107.0
324,92.64276450000001,93.75883481250001,33.0,74.0
325,92.64276450000001,93.75883481250001,45.0,74.0
326,93.49990650000001,93.8909775375,61.0,127.0
327,93.49990650000001,93.89812038750001,64.0,100.0
328,93.49990650000001,94.07847735000001,57.0,102.0
329,93.92847750000001,94.346334225,33.0,74.0
330,93.92847750000001,94.346334225,45.0,74.0
331,94.35704850000002,94.99811928750002,66.0,99.0
332,94.35704850000002,95.02133355000001,63.0,117.0
333,94.35704850000002,95.02847640000002,59.0,92.0
334,95.21419050000002,95.6124043875,66.0,122.0
335,95.21419050000002,95.617761525,63.0,127.0
336,95.6427615,95.69811858750002,59.0,77.0
337,94.35704850000002,96.0427611,35.0,88.0
338,94.35704850000002,96.0427611,47.0,88.0
339,96.07133250000001,96.55883201250002,56.0,100.0
340,96.07133250000001,96.56418915000002,52.0,102.0
341,96.07133250000001,96.74811753750001,59.0,95.0
342,96.49990350000002,97.02847440000001,47.0,46.0
343,96.92847450000001,97.24097418750002,56.0,112.0
344,96.92847450000001,97.32847410000001,59.0,96.0
345,96.92847450000001,97.36418835,52.0,90.0
346,97.57133100000001,97.63025951250002,52.0,38.0
347,96.07133250000001,97.70704515000001,40.0,72.0
348,97.35704550000001,97.81597361250002,47.0,68.0
349,97.78561650000002,98.36775877500001,56.0,107.0
350,97.78561650000002,98.45347297500001,62.0,89.0
351,97.78561650000002,98.47847295000001,52.0,99.0
352,97.78561650000002,98.4802586625,59.0,88.0
353,98.21418750000001,98.86775827500001,47.0,66.0
354,98.64275850000001,98.96954388750001,52.0,97.0
355,98.64275850000001,98.99632957500002,56.0,127.0
356,98.64275850000001,99.00882956250001,59.0,97.0
357,97.78561650000002,99.06775807500001,40.0,81.0
358,98.64275850000001,99.06775807500001,62.0,96.0
359,99.07132950000002,99.15347227500001,47.0,59.0
360,99.49990050000001,99.98025716250001,64.0,93.0
361,99.49990050000001,100.16954268750001,57.0,96.0
362,99.49990050000001,100.19632837500001,61.0,112.0
363,99.92847150000001,100.56775657500002,52.0,33.0
364,100.35704250000002,100.71061357500001,61.0,117.0
365,100.35704250000002,100.73025641250001,64.0,95.0
366,99.49990050000001,100.83739916250002,33.0,68.0
367,99.49990050000001,100.83739916250002,45.0,68.0
368,100.35704250000002,100.93204192500001,57.0,95.0
369,100.78561350000001,101.22311306250002,52.0,64.0
370,101.21418450000002,101.70704115000001,66.0,102.0
371,101.21418450000002,101.73204112500001,63.0,117.0
372,101.21418450000002,101.77489822500002,59.0,90.0
373,101.6427555,102.12846930000002,54.0,42.0
374,101.21418450000002,102.28025486250002,35.0,64.0
375,101.21418450000002,102.28025486250002,47.0,64.0
376,102.07132650000001,102.48204037500001,66.0,122.0
377,102.07132650000001,102.51239748750001,63.0,127.0
378,102.49989750000002,102.61954023750002,59.0,95.0
379,102.92846850000001,103.40346802500001,63.0,99.0
380,102.92846850000001,103.56596786250002,56.0,100.0
381,102.92846850000001,103.5695392875,59.0,95.0
382,103.78561050000002,104.04275310000001,59.0,102.0
383,102.92846850000001,104.04811023750001,32.0,76.0
384,102.92846850000001,104.04811023750001,44.0,76.0
385,103.78561050000002,104.05346737500001,56.0,107.0
386,103.78561050000002,104.08561020000002,63.0,107.0
387,104.21418150000001,104.57668113750002,32.0,100.0
388,104.21418150000001,104.57668113750002,44.0,100.0
389,104.64275250000001,105.05168066250002,68.0,96.0
390,104.64275250000001,105.08203777500002,64.0,90.0
391,104.64275250000001,105.09275205000002,61.0,107.0
392,105.49989450000001,105.78382278750001,68.0,112.0
393,105.49989450000001,105.79810848750002,64.0,107.0
394,104.64275250000001,105.81060847500001,37.0,72.0
395,104.64275250000001,105.81060847500001,49.0,72.0
396,105.49989450000001,105.84453701250001,61.0,112.0
397,105.92846550000002,106.41239358750002,35.0,93.0
398,105.92846550000002,106.41239358750002,47.0,93.0
399,106.35703650000002,107.00346442500002,64.0,90.0
400,106.35703650000002,107.02310726250002,61.0,112.0
401,106.35703650000002,107.03739296250001,57.0,97.0
402,106.35703650000002,107.37667833750001,33.0,69.0
403,106.35703650000002,107.37667833750001,45.0,69.0
404,107.21417850000002,107.66239233750001,61.0,127.0
405,107.21417850000002,107.67489232500002,64.0,96.0
406,107.64274950000001,107.90167781250001,57.0,86.0
407,108.07132050000001,108.62667708750001,66.0,97.0
408,108.07132050000001,108.66774847500001,63.0,112.0
409,108.07132050000001,108.74453411250002,59.0,96.0
410,108.49989150000002,108.93381963750001,54.0,47.0
411,108.07132050000001,109.06596236250002,35.0,71.0
412,108.07132050000001,109.06596236250002,47.0,71.0
413,108.92846250000001,109.41060487500002,66.0,127.0
414,108.92846250000001,109.41239058750001,63.0,127.0
415,109.35703350000001,109.64631892500002,59.0,83.0
416,109.78560450000002,110.18024696250002,64.0,100.0
417,109.78560450000002,110.19096123750002,68.0,100.0
418,109.78560450000002,110.31060397500002,59.0,97.0
419,111.07131750000002,112.57131600000001,52.0,53.0
420,110.21417550000001,113.18738681250001,47.0,56.0
421,109.78560450000002,113.27131530000001,40.0,81.0
422,112.78560150000001,113.55345787500002,59.0,62.0
423,112.35703050000002,113.57667213750001,64.0,86.0
424,112.35703050000002,113.58381498750002,68.0,82.0
425,113.21417250000002,114.39274275000001,45.0,72.0
426,113.64274350000001,114.56952828750002,52.0,66.0
427,114.07131450000001,114.86774227500001,64.0,64.0
428,114.49988550000002,115.03917067500001,57.0,55.0
429,114.07131450000001,115.26774187500001,61.0,69.0
430,115.35702750000002,115.84631272500002,54.0,42.0
431,114.92845650000001,115.93916977500001,47.0,72.0
432,115.78559850000002,116.44095498750002,66.0,89.0
433,115.78559850000002,116.47309781250001,63.0,97.0
434,116.21416950000001,116.59452626250001,59.0,48.0
435,117.07131150000002,117.54988245000001,56.0,67.0
436,116.64274050000002,117.59095383750001,44.0,82.0
437,117.49988250000001,118.23916747500002,63.0,73.0
438,117.49988250000001,118.37845305000002,59.0,68.0
439,117.92845350000002,118.51952433750002,56.0,53.0
440,118.78559550000001,119.37488062500002,56.0,52.0
441,118.35702450000001,119.47488052500002,49.0,69.0
442,119.21416650000002,119.62666608750001,64.0,69.0
443,119.21416650000002,119.93916577500002,61.0,59.0
444,120.07130850000001,121.06952178750002,45.0,73.0
445,120.49987950000002,121.29095013750002,52.0,36.0
446,120.92845050000001,121.54987845000002,64.0,76.0
447,121.35702150000002,121.87130670000002,57.0,53.0
448,120.92845050000001,122.00702085000002,61.0,90.0
449,122.21416350000001,122.69452016250001,54.0,51.0
450,121.78559250000002,122.73737726250002,47.0,72.0
451,122.64273450000002,123.03380553750002,66.0,100.0
452,122.64273450000002,123.04987695000001,63.0,127.0
453,123.07130550000002,123.15523398750001,59.0,73.0
454,123.49987650000001,123.86237613750002,56.0,97.0
455,123.49987650000001,123.87130470000001,52.0,79.0
456,123.49987650000001,123.87487612500001,59.0,83.0
457,124.14273300000002,124.20701865000002,56.0,33.0
458,124.35701850000001,124.43201842500001,68.0,100.0
459,124.35701850000001,124.45701840000001,56.0,127.0
460,123.92844750000002,124.46237553750002,47.0,42.0
461,124.35701850000001,124.87308941250002,52.0,38.0
462,124.78558950000001,125.24987475000002,47.0,44.0
463,125.21416050000002,125.33201752500001,59.0,102.0
464,125.21416050000002,125.35166036250001,71.0,97.0
465,125.21416050000002,125.72844570000002,52.0,82.0
466,126.07130250000002,126.13558815000002,73.0,90.0
467,126.07130250000002,126.16415955000002,61.0,117.0
468,126.28558800000002,126.32308796250001,75.0,42.0
469,126.28558800000002,126.33558795000002,63.0,72.0
470,123.49987650000001,126.48023066250002,40.0,82.0
471,125.64273150000001,126.50880206250001,47.0,41.0
472,126.49987350000002,126.57844485000001,63.0,127.0
473,126.07130250000002,126.83737316250001,52.0,81.0
474,126.92844450000001,127.49987250000002,61.0,117.0
475,126.92844450000001,127.63558665000002,57.0,122.0
476,126.92844450000001,127.64094378750002,64.0,95.0
477,127.35701550000002,127.93201492500002,52.0,49.0
478,127.78558650000002,128.1766575375,64.0,96.0
479,127.78558650000002,128.41237158750002,57.0,100.0
480,127.78558650000002,128.45701440000002,61.0,127.0
481,126.92844450000001,128.52487147500003,45.0,79.0
482,128.21415750000003,128.62844280000002,52.0,64.0
483,128.6427285,129.3052278375,66.0,122.0
484,128.6427285,129.31772782500002,59.0,92.0
485,128.6427285,129.32308496250002,63.0,122.0
486,129.49987050000001,129.71772742500002,59.0,96.0
487,128.6427285,129.7587988125,47.0,86.0
488,129.49987050000001,129.89987010000002,66.0,127.0
489,129.49987050000001,129.91772722500002,63.0,127.0
490,129.92844150000002,130.32308396250002,47.0,86.0
491,130.35701250000002,130.6980835875,59.0,95.0
492,130.35701250000002,130.9766547375,56.0,100.0
493,130.35701250000002,130.98558330000003,63.0,100.0
494,130.35701250000002,131.09629747500003,44.0,76.0
495,131.2141545,131.28915442500002,63.0,96.0
496,131.2141545,131.2980829875,59.0,93.0
497,131.2141545,131.3141544,56.0,100.0
498,131.2141545,131.33915437500002,44.0,68.0
499,131.6427255,132.73558155,64.0,79.0
500,131.6427255,132.74986725000002,56.0,99.0
501,131.6427255,132.7587958125,61.0,97.0
502,131.6427255,133.12129545000002,49.0,81.0
503,132.92843850000003,133.3587952125,56.0,107.0
504,132.92843850000003,133.37308091250003,61.0,112.0
505,132.92843850000003,133.374866625,64.0,85.0
506,133.3570095,133.74808053750002,49.0,90.0
507,133.7855805,134.50522263750003,64.0,95.0
508,133.7855805,134.5230797625,57.0,99.0
509,133.7855805,134.5302226125,61.0,107.0
510,134.64272250000002,134.74450811250003,61.0,112.0
511,134.64272250000002,134.74986525000003,57.0,90.0
512,134.64272250000002,134.75343667500002,64.0,77.0
513,133.7855805,134.82129375000002,45.0,69.0
514,135.07129350000002,136.139149575,66.0,107.0
515,135.07129350000002,136.167720975,63.0,122.0
516,135.07129350000002,136.1730781125,59.0,97.0
517,135.07129350000002,136.54093488750001,47.0,95.0
518,136.3570065,136.78022036250002,66.0,117.0
519,136.3570065,136.8123631875,63.0,127.0
520,136.78557750000002,137.13200572500003,59.0,96.0
521,137.21414850000002,137.51414820000002,64.0,95.0
522,137.21414850000002,137.51950533750002,68.0,102.0
523,137.21414850000002,137.5837909875,59.0,74.0
524,138.07129050000003,138.1230761625,56.0,93.0
525,138.07129050000003,138.17129040000003,59.0,93.0
526,138.4998615,140.5998594,52.0,57.0
527,138.9284325,140.610573675,68.0,90.0
528,137.64271950000003,140.632002225,47.0,66.0
529,138.9284325,140.632002225,64.0,77.0
530,138.9284325,140.632002225,71.0,78.0
531,137.21414850000002,140.660573625,40.0,75.0
532,140.6427165,140.660573625,40.0,66.0
533,140.6427165,141.06771607500002,52.0,38.0
534,140.6427165,141.29628727500003,59.0,67.0
535,140.6427165,141.34093008750003,56.0,64.0
536,141.49985850000002,143.04449981250002,59.0,62.0
537,141.49985850000002,143.0694997875,56.0,63.0
538,141.0712875,143.32307096250003,47.0,37.0
539,143.2141425,143.6141421,56.0,72.0
540,142.35700050000003,143.6302135125,52.0,41.0
541,143.2141425,143.63199922500002,59.0,75.0
542,144.49985550000002,145.11056917500002,49.0,46.0
543,145.3569975,145.98199687500002,49.0,47.0
544,144.92842650000003,146.16413955000002,56.0,70.0
545,145.7855685,146.4516392625,61.0,82.0
546,144.07128450000002,146.80521033750003,37.0,93.0
547,146.21413950000002,146.90878166250002,49.0,58.0
548,147.07128150000003,147.639138075,56.0,46.0
549,146.64271050000002,147.68735231250002,61.0,95.0
550,147.9284235,149.57485042500002,52.0,52.0
551,149.64270750000003,149.82127875000003,52.0,33.0
552,148.3569945,149.87127870000003,64.0,88.0
553,149.21413650000002,149.88556440000002,61.0,52.0
554,147.49985250000003,150.02663568750003,45.0,72.0
555,150.4998495,150.91413480000003,61.0,31.0
556,150.07127850000003,150.9766347375,64.0,72.0
557,148.78556550000002,151.0159204125,57.0,58.0
558,151.35699150000002,151.98913372500002,47.0,59.0
559,151.78556250000003,152.69091873750003,52.0,66.0
560,152.6427045,152.71949013750003,59.0,86.0
561,150.92842050000002,153.8427033,40.0,68.0
562,152.21413350000003,153.97306031250002,47.0,52.0
563,153.0712755,154.06413165,52.0,31.0
564,153.92841750000002,154.39091703750003,59.0,67.0
565,153.714132,154.41055987500002,64.0,63.0
566,153.49984650000002,154.49627407500003,68.0,122.0
567,155.2141305,155.753415675,64.0,85.0
568,155.64270150000002,156.42662928750002,52.0,53.0
569,154.78555950000003,156.7194861375,47.0,58.0
570,154.35698850000003,156.7516289625,40.0,66.0
571,156.07127250000002,156.76591466250002,64.0,83.0
572,156.07127250000002,156.83555745,68.0,97.0
573,156.49984350000003,156.85520028750003,52.0,53.0
574,156.92841450000003,157.53198532500002,68.0,92.0
575,156.92841450000003,157.5801995625,64.0,88.0
576,157.3569855,157.83734216250002,51.0,82.0
577,158.21412750000002,158.71412700000002,61.0,47.0
578,157.7855565,159.01591241250003,49.0,82.0
579,158.64269850000002,159.1569837,64.0,69.0
580,159.07126950000003,159.567697575,61.0,61.0
581,159.49984050000003,160.1944826625,68.0,64.0
582,159.49984050000003,160.21412550000002,64.0,74.0
583,160.35698250000002,160.47662523750003,64.0,73.0
584,160.57126800000003,160.69091073750002,64.0,26.0
585,160.35698250000002,160.73555355000002,68.0,88.0
586,160.78555350000002,161.23733876250003,47.0,65.0
587,161.64269550000003,162.25698060000002,52.0,48.0
588,162.4998375,163.1159083125,52.0,38.0
589,162.0712665,163.3551937875,61.0,79.0
590,162.92840850000002,163.69805058750003,57.0,73.0
591,163.35697950000002,163.75697910000002,52.0,39.0
592,161.21412450000003,163.85876471250003,45.0,66.0
593,162.0712665,164.6426925,64.0,74.0
594,163.78555050000003,164.66233533750002,61.0,112.0
595,164.21412150000003,164.68019246250003,57.0,49.0
596,165.49983450000002,166.27840515000003,59.0,88.0
597,165.92840550000003,166.29090513750003,56.0,81.0
598,165.07126350000001,166.43554785000003,47.0,56.0
599,166.35697650000003,167.05697580000003,62.0,70.0
600,166.35697650000003,167.07661863750002,56.0,72.0
601,166.35697650000003,167.1087614625,59.0,67.0
602,166.35697650000003,167.13733286250002,52.0,93.0
603,164.6426925,167.30697555000003,40.0,76.0
604,167.2141185,167.67840375000003,56.0,96.0
605,167.2141185,167.69626087500004,62.0,89.0
606,167.2141185,167.69804658750002,59.0,85.0
607,167.64268950000002,167.71233228750003,52.0,85.0
608,168.07126050000002,168.54983145000003,64.0,82.0
609,168.07126050000002,168.58911712500003,61.0,88.0
610,168.07126050000002,168.97125960000002,45.0,76.0
611,168.49983150000003,168.97661673750002,52.0,47.0
612,168.92840250000003,169.13554515,61.0,102.0
613,168.92840250000003,169.16590226250003,64.0,90.0
614,168.07126050000002,169.30697355,57.0,82.0
615,169.78554450000001,170.32482967500002,66.0,97.0
616,169.78554450000001,170.3623296375,63.0,100.0
617,169.78554450000001,170.37125820000003,59.0,82.0
618,170.21411550000002,170.79090063750002,54.0,58.0
619,169.78554450000001,170.93554335000002,47.0,65.0
620,170.64268650000002,170.99090043750002,66.0,122.0
621,170.64268650000002,171.01947183750002,63.0,112.0
622,171.49982850000004,172.2283992,63.0,92.0
623,171.49982850000004,172.29804198750003,59.0,77.0
624,172.35697050000002,172.77125580000003,63.0,100.0
625,171.49982850000004,172.8337557375,44.0,77.0
626,172.78554150000002,173.189112525,56.0,66.0
627,173.21411250000003,173.73018341250003,61.0,72.0
628,173.21411250000003,173.88375468750002,64.0,89.0
629,173.21411250000003,173.93375463750002,56.0,36.0
630,173.21411250000003,174.36232563750002,49.0,66.0
631,174.0712545,174.53018261250003,61.0,117.0
632,174.0712545,174.54982545000001,64.0,89.0
633,174.49982550000001,174.92125365,47.0,64.0
634,174.92839650000002,175.66053862500002,61.0,96.0
635,175.35696750000002,175.79625277500003,52.0,35.0
636,174.92839650000002,175.84446701250002,57.0,92.0
637,174.92839650000002,175.84625272500003,64.0,82.0
638,174.92839650000002,175.89446696250002,45.0,69.0
639,175.78553850000003,176.23375233750002,61.0,68.0
640,176.21410950000003,176.43553785000003,57.0,69.0
641,176.6426805,177.29267985,59.0,82.0
642,176.6426805,177.31946553750004,66.0,100.0
643,176.6426805,177.36767977500003,63.0,117.0
644,176.6426805,177.63910807500002,47.0,64.0
645,177.49982250000002,177.95696490000003,66.0,102.0
646,177.49982250000002,177.98017916250004,63.0,122.0
647,177.92839350000003,178.00517913750002,59.0,89.0
648,178.35696450000003,179.20339222500002,56.0,92.0
649,178.35696450000003,179.20696365000003,59.0,88.0
650,179.64267750000002,179.96946288750001,56.0,68.0
651,178.35696450000003,179.97303431250003,40.0,73.0
652,178.78553550000004,179.98196287500002,47.0,56.0
653,180.07124850000002,180.66410505000002,56.0,96.0
654,180.07124850000002,180.68017646250001,59.0,90.0
655,180.07124850000002,180.68910502500003,62.0,95.0
656,179.2141065,180.72839070000003,52.0,88.0
657,180.49981950000003,181.07660463750003,47.0,58.0
658,180.92839050000003,181.34803293750002,59.0,97.0
659,180.92839050000003,181.35339007500002,56.0,117.0
660,180.07124850000002,181.38731861250002,40.0,85.0
661,181.3569615,181.48553280000002,47.0,74.0
662,181.78553250000002,182.48017466250002,64.0,82.0
663,181.78553250000002,182.54446031250004,61.0,99.0
664,181.78553250000002,182.6623173375,57.0,93.0
665,181.78553250000002,182.76588866250003,45.0,72.0
666,182.21410350000002,182.79981720000004,52.0,42.0
667,182.64267450000003,183.10338832500003,64.0,69.0
668,183.07124550000003,183.29981670000004,57.0,81.0
669,183.49981650000004,184.01588741250004,66.0,102.0
670,183.49981650000004,184.03553025000002,63.0,112.0
671,183.49981650000004,184.05338737500003,59.0,77.0
672,183.9283875,184.42660128750003,54.0,41.0
673,183.49981650000004,184.4444584125,47.0,69.0
674,184.57124400000004,184.69802958750003,54.0,62.0
675,184.57124400000004,184.72481527500003,47.0,58.0
676,184.35695850000002,184.81052947500004,66.0,127.0
677,184.35695850000002,184.83731516250003,63.0,127.0
678,184.78552950000002,185.010529275,59.0,93.0
679,185.21410050000003,185.76409995000003,63.0,95.0
680,185.21410050000003,185.87302841250002,59.0,85.0
681,185.64267150000003,186.20159951250002,56.0,61.0
682,186.0712425,186.44267070000004,63.0,127.0
683,186.0712425,186.49088493750003,59.0,92.0
684,185.21410050000003,186.681956175,44.0,95.0
685,186.49981350000002,186.71052757500001,56.0,63.0
686,186.92838450000002,187.431955425,68.0,100.0
687,186.92838450000002,187.44445541250002,64.0,90.0
688,186.92838450000002,187.48909822500002,61.0,102.0
689,186.92838450000002,187.781955075,49.0,63.0
690,187.78552650000003,188.07302621250003,64.0,100.0
691,187.78552650000003,188.09624047500003,68.0,112.0
692,187.78552650000003,188.10516903750002,61.0,97.0
693,187.99981200000002,188.15516898750002,49.0,95.0
694,188.21409750000004,188.68552560000003,47.0,82.0
695,188.6426685,189.19981080000002,61.0,97.0
696,188.6426685,189.31052497500002,64.0,83.0
697,188.6426685,189.34088208750003,57.0,90.0
698,188.6426685,189.91766722500003,45.0,78.0
699,189.49981050000002,190.20516693750002,64.0,96.0
700,189.49981050000002,190.21766692500003,57.0,95.0
701,189.49981050000002,190.22659548750002,61.0,127.0
702,190.14266700000002,190.26052402500002,45.0,20.0
703,190.35695250000003,191.024808975,64.0,82.0
704,190.35695250000003,191.04802323750002,57.0,79.0
705,190.35695250000003,191.07302321250003,61.0,99.0
706,190.35695250000003,191.47659423750002,45.0,69.0
707,191.21409450000002,191.60337982500002,61.0,127.0
708,191.21409450000002,191.60337982500002,64.0,96.0
709,191.21409450000002,191.78016536250001,57.0,99.0
710,191.64266550000002,192.03373653750003,45.0,81.0
711,192.07123650000003,192.76587866250003,66.0,102.0
712,192.07123650000003,192.76945008750002,59.0,93.0
713,192.07123650000003,192.79802148750002,63.0,117.0
714,192.92837850000004,193.32837810000004,51.0,25.0
715,192.92837850000004,193.39980660000003,63.0,127.0
716,192.92837850000004,193.42123515000003,66.0,127.0
717,192.92837850000004,193.47302081250004,59.0,96.0
718,193.3569495,193.63016351250002,54.0,82.0
719,193.57123500000003,193.68194917500003,51.0,39.0
720,192.07123650000003,193.73909197500004,47.0,93.0
721,193.78552050000002,193.81944903750002,51.0,59.0
722,193.78552050000002,193.90337752500002,59.0,117.0
723,193.78552050000002,193.91052037500003,71.0,93.0
724,194.21409150000002,194.28194857500003,73.0,99.0
725,193.78552050000002,194.30159141250002,54.0,117.0
726,194.21409150000002,194.317662825,61.0,122.0
727,194.21409150000002,194.76944808750002,51.0,54.0
728,194.64266250000003,194.83909087500004,75.0,93.0
729,194.64266250000003,194.93016221250002,63.0,127.0
730,194.64266250000003,194.99801928750003,54.0,95.0
731,195.07123350000003,195.21051907500004,54.0,42.0
732,195.07123350000003,195.29801898750003,51.0,75.0
733,193.78552050000002,195.33194752500003,47.0,62.0
734,195.49980450000004,196.05516108750004,64.0,92.0
735,195.49980450000004,196.12301816250002,61.0,117.0
736,195.49980450000004,196.21051807500004,57.0,107.0
737,195.92837550000002,196.58373198750002,52.0,41.0
738,196.35694650000002,196.71766042500002,61.0,127.0
739,196.35694650000002,196.74266040000003,64.0,96.0
740,196.35694650000002,196.91408880000003,57.0,102.0
741,195.49980450000004,197.09087433750003,45.0,70.0
742,196.78551750000003,197.17658853750004,52.0,41.0
743,197.21408850000003,197.69265945000004,66.0,107.0
744,197.21408850000003,197.71230228750002,63.0,127.0
745,197.21408850000003,197.76230223750002,59.0,92.0
746,197.64265950000004,198.13730186250004,54.0,53.0
747,197.21408850000003,198.33015881250003,47.0,70.0
748,198.28551600000003,198.37480162500003,54.0,100.0
749,198.0712305,198.51408720000003,66.0,122.0
750,198.0712305,198.54980145000002,63.0,127.0
751,198.49980150000002,198.76765837500002,59.0,88.0
752,198.92837250000002,199.34801493750004,63.0,112.0
753,198.92837250000002,199.63194322500001,59.0,97.0
754,199.35694350000003,199.89444296250002,56.0,77.0
755,199.78551450000003,200.20515693750002,63.0,112.0
756,198.92837250000002,200.25158546250003,44.0,96.0
757,199.78551450000003,200.26587116250002,59.0,95.0
758,200.21408550000004,200.46765667500003,56.0,66.0
759,200.64265650000002,201.08372748750003,68.0,100.0
760,200.64265650000002,201.16944168750004,64.0,93.0
761,200.64265650000002,201.31587011250002,61.0,107.0
762,200.64265650000002,201.37658433750002,49.0,73.0
763,201.49979850000003,201.80515533750003,64.0,102.0
764,201.49979850000003,201.81765532500003,68.0,117.0
765,201.49979850000003,201.84444101250003,61.0,100.0
766,201.92836950000003,202.36765477500003,49.0,99.0
767,202.35694050000004,203.01943983750002,64.0,97.0
768,202.35694050000004,203.04801123750002,61.0,117.0
769,202.35694050000004,203.05693980000004,57.0,107.0
770,202.35694050000004,203.47301081250004,45.0,74.0
771,203.21408250000002,203.60515353750003,61.0,127.0
772,203.21408250000002,203.61229638750004,64.0,100.0
773,203.21408250000002,203.79265335000002,57.0,102.0
774,203.64265350000002,204.06051022500003,45.0,74.0
775,204.07122450000003,204.71229528750004,66.0,99.0
776,204.07122450000003,204.73550955000002,63.0,117.0
777,204.07122450000003,204.74265240000003,59.0,92.0
778,204.92836650000004,205.32658038750003,66.0,122.0
779,204.92836650000004,205.33193752500003,63.0,127.0
780,205.35693750000002,205.4122945875,59.0,77.0
781,204.07122450000003,205.75693710000002,47.0,88.0
782,205.78550850000002,206.27300801250001,56.0,100.0
783,205.78550850000002,206.27836515,52.0,102.0
784,205.78550850000002,206.46229353750002,59.0,95.0
785,206.21407950000003,206.74265040000003,47.0,46.0
786,206.64265050000003,206.95515018750004,56.0,112.0
787,206.64265050000003,207.04265010000003,59.0,96.0
788,206.64265050000003,207.07836435000002,52.0,90.0
789,207.28550700000002,207.3444355125,52.0,38.0
790,205.78550850000002,207.42122115000004,40.0,72.0
791,207.07122150000004,207.53014961250003,47.0,68.0
792,207.49979250000004,208.08193477500004,56.0,107.0
793,207.49979250000004,208.16764897500002,62.0,89.0
794,207.49979250000004,208.19264895000003,52.0,99.0
795,207.49979250000004,208.19443466250002,59.0,88.0
796,207.92836350000002,208.58193427500004,47.0,66.0
797,208.35693450000002,208.68371988750002,52.0,97.0
798,208.35693450000002,208.710505575,56.0,127.0
799,208.35693450000002,208.72300556250002,59.0,97.0
800,207.49979250000004,208.78193407500004,40.0,81.0
801,208.35693450000002,208.78193407500004,62.0,96.0
802,208.78550550000003,208.86764827500002,47.0,59.0
803,209.21407650000003,209.69443316250002,64.0,93.0
804,209.21407650000003,209.88371868750002,57.0,96.0
805,209.21407650000003,209.91050437500002,61.0,112.0
806,209.64264750000004,210.28193257500004,52.0,33.0
807,210.07121850000001,210.42478957500003,61.0,117.0
808,210.07121850000001,210.44443241250002,64.0,95.0
809,209.21407650000003,210.55157516250003,33.0,68.0
810,209.21407650000003,210.55157516250003,45.0,68.0
811,210.07121850000001,210.64621792500003,57.0,95.0
812,210.49978950000002,210.9372890625,52.0,64.0
813,210.92836050000003,211.42121715000002,66.0,102.0
814,210.92836050000003,211.44621712500003,63.0,117.0
815,210.92836050000003,211.48907422500002,59.0,90.0
816,211.35693150000003,211.84264530000002,54.0,42.0
817,210.92836050000003,211.99443086250002,35.0,64.0
818,210.92836050000003,211.99443086250002,47.0,64.0
819,211.78550250000004,212.19621637500003,66.0,122.0
820,211.78550250000004,212.22657348750002,63.0,127.0
821,212.21407350000004,212.33371623750003,59.0,95.0
822,212.64264450000002,213.11764402500003,63.0,99.0
823,212.64264450000002,213.28014386250004,56.0,100.0
824,212.64264450000002,213.28371528750003,59.0,95.0
825,213.49978650000003,213.75692910000004,59.0,102.0
826,212.64264450000002,213.76228623750004,32.0,76.0
827,212.64264450000002,213.76228623750004,44.0,76.0
828,213.49978650000003,213.76764337500003,56.0,107.0
829,213.49978650000003,213.79978620000003,63.0,107.0
830,213.92835750000003,214.29085713750004,32.0,100.0
831,213.92835750000003,214.29085713750004,44.0,100.0
832,214.35692850000004,214.76585666250003,68.0,96.0
833,214.35692850000004,214.79621377500004,64.0,90.0
834,214.35692850000004,214.80692805000004,61.0,107.0
835,215.21407050000002,215.49799878750002,68.0,112.0
836,215.21407050000002,215.51228448750004,64.0,107.0
837,214.35692850000004,215.52478447500002,37.0,72.0
838,214.35692850000004,215.52478447500002,49.0,72.0
839,215.21407050000002,215.55871301250002,61.0,112.0
840,215.64264150000002,216.12656958750003,35.0,93.0
841,215.64264150000002,216.12656958750003,47.0,93.0
842,216.07121250000003,216.71764042500004,64.0,90.0
843,216.07121250000003,216.73728326250003,61.0,112.0
844,216.07121250000003,216.75156896250002,57.0,97.0
845,216.07121250000003,217.09085433750002,33.0,69.0
846,216.07121250000003,217.09085433750002,45.0,69.0
847,216.92835450000004,217.37656833750003,61.0,127.0
848,216.92835450000004,217.38906832500004,64.0,96.0
849,217.35692550000002,217.61585381250003,57.0,86.0
850,217.78549650000002,218.34085308750002,66.0,97.0
851,217.78549650000002,218.38192447500003,63.0,112.0
852,217.78549650000002,218.45871011250003,59.0,96.0
853,218.21406750000003,218.64799563750003,54.0,47.0
854,217.78549650000002,218.78013836250003,35.0,71.0
855,217.78549650000002,218.78013836250003,47.0,71.0
856,218.64263850000003,219.12478087500003,66.0,127.0
857,218.64263850000003,219.12656658750004,63.0,127.0
858,219.07120950000004,219.36049492500004,59.0,83.0
859,219.49978050000004,220.03727996250004,68.0,96.0
860,219.49978050000004,220.04799423750003,59.0,90.0
861,219.49978050000004,220.05692280000002,52.0,107.0
862,219.49978050000004,220.05870851250003,64.0,97.0
863,220.14263700000004,220.39799388750004,68.0,99.0
864,220.14263700000004,220.40513673750002,52.0,81.0
865,220.14263700000004,220.41049387500004,59.0,92.0
866,220.14263700000004,220.42120815000004,64.0,93.0
867,220.78549350000003,222.37477762500004,52.0,97.0
868,220.78549350000003,222.45692040000003,64.0,100.0
869,220.78549350000003,222.45870611250004,68.0,100.0
870,220.78549350000003,222.55692030000003,59.0,96.0
871,222.92834850000003,223.68549060000004,64.0,74.0
872,222.92834850000003,223.71763342500003,61.0,89.0
873,222.92834850000003,223.71941913750004,57.0,81.0
874,222.92834850000003,224.00334742500002,33.0,66.0
875,222.92834850000003,224.00334742500002,45.0,66.0
876,223.35691950000003,224.04799023750002,52.0,32.0
877,223.78549050000004,224.10156161250003,64.0,58.0
878,223.78549050000004,224.10691875000003,61.0,59.0
879,223.78549050000004,224.26941858750004,57.0,54.0
880,224.64263250000002,225.19798908750002,66.0,86.0
881,224.64263250000002,225.21763192500003,59.0,79.0
882,224.64263250000002,225.22656048750002,63.0,89.0
883,225.07120350000002,225.56048872500003,54.0,36.0
884,224.64263250000002,225.63906007500003,35.0,66.0
885,224.64263250000002,225.63906007500003,47.0,66.0
886,225.49977450000003,225.99798828750002,66.0,97.0
887,225.49977450000003,226.04620252500004,63.0,96.0
888,225.92834550000003,226.22477377500002,59.0,59.0
889,226.35691650000004,226.85870171250002,59.0,76.0
890,226.35691650000004,226.88905882500003,63.0,85.0
891,226.35691650000004,227.60870096250002,32.0,77.0
892,226.35691650000004,227.60870096250002,44.0,77.0
893,226.78548750000002,227.65512948750003,56.0,73.0
894,227.21405850000002,227.67477232500002,63.0,127.0
895,227.64262950000003,227.74262940000003,59.0,73.0
896,228.07120050000003,228.39977160000004,61.0,83.0
897,228.07120050000003,228.52120005000003,64.0,76.0
898,228.07120050000003,228.74084268750002,68.0,93.0
899,228.49977150000004,228.76941408750002,61.0,49.0
900,228.07120050000003,229.16227083750002,37.0,66.0
901,228.07120050000003,229.16227083750002,49.0,66.0
902,228.92834250000004,229.24977075000004,64.0,83.0
903,228.92834250000004,229.27655643750003,68.0,100.0
904,228.92834250000004,229.34977065000004,61.0,95.0
905,229.78548450000002,230.26405545000003,64.0,82.0
906,229.78548450000002,230.28548400000003,57.0,95.0
907,229.78548450000002,230.32655538750004,61.0,96.0
908,230.21405550000003,230.84441201250004,52.0,59.0
909,230.64262650000003,230.97119760000004,64.0,82.0
910,230.64262650000003,231.15334027500003,57.0,83.0
911,229.78548450000002,231.27834015000002,33.0,77.0
912,229.78548450000002,231.27834015000002,45.0,77.0
913,230.64262650000003,231.30691155000002,61.0,97.0
914,231.07119750000004,231.46226853750002,52.0,35.0
915,231.49976850000004,232.18012496250003,66.0,96.0
916,231.49976850000004,232.18191067500004,59.0,85.0
917,231.49976850000004,232.21583921250004,63.0,100.0
918,232.35691050000003,232.88369568750002,66.0,100.0
919,232.35691050000003,232.91048137500002,63.0,107.0
920,231.49976850000004,233.01583841250002,35.0,69.0
921,231.49976850000004,233.01583841250002,47.0,69.0
922,232.35691050000003,233.06405265000004,59.0,88.0
923,233.21405250000004,233.70155201250003,68.0,102.0
924,233.21405250000004,233.71226628750003,59.0,102.0
925,233.21405250000004,233.71405200000004,64.0,102.0
926,233.21405250000004,233.72655198750002,40.0,97.0
927,233.21405250000004,233.72655198750002,52.0,97.0
928,233.85690900000003,234.26583716250002,68.0,117.0
929,233.85690900000003,234.27655143750002,59.0,107.0
930,233.85690900000003,234.28190857500002,64.0,102.0
931,233.85690900000003,234.29262285000004,40.0,95.0
932,233.85690900000003,234.29262285000004,52.0,95.0
933,234.49976550000002,235.60333582500004,59.0,112.0
934,234.49976550000002,235.64262150000002,68.0,107.0
935,234.49976550000002,235.65512148750003,64.0,107.0
936,234.49976550000002,235.82476417500004,40.0,122.0
937,234.49976550000002,235.82476417500004,52.0,122.0
938,235.78547850000004,236.27476372500004,62.0,117.0
939,235.78547850000004,236.28369228750003,64.0,102.0
940,235.78547850000004,236.28547800000004,68.0,122.0
941,236.21404950000004,236.49976350000003,59.0,75.0
942,236.64262050000002,237.32476267500004,57.0,102.0
943,236.64262050000002,237.33011981250004,64.0,90.0
944,236.64262050000002,237.35511978750003,61.0,112.0
945,237.07119150000003,237.69976230000003,52.0,34.0
946,237.49976250000003,237.92119065000003,64.0,95.0
947,237.49976250000003,237.92654778750003,61.0,122.0
948,236.64262050000002,237.98726201250003,33.0,74.0
949,236.64262050000002,237.98726201250003,45.0,74.0
950,237.49976250000003,238.10690475000004,57.0,89.0
951,237.92833350000004,238.37297591250004,52.0,60.0
952,238.35690450000004,238.82476117500002,66.0,112.0
953,238.35690450000004,238.89440396250004,59.0,95.0
954,238.35690450000004,238.94976105000003,63.0,117.0
955,238.78547550000002,239.32297496250004,53.0,53.0
956,238.35690450000004,239.51583191250003,35.0,76.0
957,238.35690450000004,239.51583191250003,47.0,76.0
958,239.42833200000004,239.51583191250003,53.0,56.0
959,239.21404650000002,239.68726031250003,66.0,122.0
960,239.21404650000002,239.72476027500002,63.0,127.0
961,239.64261750000003,239.91047437500004,59.0,81.0
962,240.07118850000003,240.56940228750003,59.0,95.0
963,240.07118850000003,240.62118795000004,63.0,112.0
964,240.49975950000004,241.07654463750004,56.0,59.0
965,240.92833050000004,241.29083013750002,63.0,127.0
966,240.92833050000004,241.31404440000003,59.0,97.0
967,240.07118850000003,241.42475857500003,32.0,107.0
968,240.07118850000003,241.42475857500003,44.0,107.0
969,241.35690150000002,241.69618687500002,56.0,72.0
970,241.78547250000003,242.43725756250004,68.0,95.0
971,241.78547250000003,242.44618612500003,61.0,102.0
972,241.78547250000003,242.45154326250002,64.0,90.0
973,241.78547250000003,242.79618577500003,37.0,67.0
974,241.78547250000003,242.79618577500003,49.0,67.0
975,242.64261450000004,242.99618557500003,64.0,99.0
976,242.64261450000004,242.99797128750004,68.0,112.0
977,242.64261450000004,243.08189977500004,61.0,107.0
978,243.07118550000004,243.47832795000002,37.0,62.0
979,243.07118550000004,243.47832795000002,49.0,62.0
980,243.49975650000002,244.18904152500002,57.0,97.0
981,243.49975650000002,244.18904152500002,64.0,86.0
982,243.49975650000002,244.21047007500005,61.0,100.0
983,243.92832750000002,244.48725551250004,52.0,35.0
984,244.35689850000003,244.69082673750003,64.0,90.0
985,244.35689850000003,244.89261225000004,57.0,93.0
986,243.49975650000002,244.96582646250002,33.0,64.0
987,243.49975650000002,244.96582646250002,45.0,64.0
988,244.35689850000003,245.01582641250002,61.0,117.0
989,244.78546950000003,245.18011196250004,52.0,64.0
990,245.21404050000004,245.89261125000004,59.0,89.0
991,245.21404050000004,245.89618267500003,66.0,107.0
992,245.21404050000004,245.93368263750003,63.0,122.0
993,245.21404050000004,246.35153936250003,35.0,74.0
994,245.21404050000004,246.35153936250003,47.0,74.0
995,246.07118250000002,246.53903917500003,63.0,127.0
996,246.07118250000002,246.55511058750002,66.0,112.0
997,246.07118250000002,246.68546760000004,59.0,86.0
998,246.49975350000003,246.82475317500004,35.0,79.0
999,246.49975350000003,246.82475317500004,47.0,79.0
1000,246.92832450000003,247.60689525000004,59.0,93.0
1001,246.92832450000003,247.61403810000004,68.0,100.0
1002,246.92832450000003,247.62296666250003,64.0,93.0
1003,246.92832450000003,248.01046627500003,40.0,79.0
1004,246.92832450000003,248.01046627500003,52.0,79.0
1005,248.21403750000005,248.49439436250003,40.0,42.0
1006,248.21403750000005,248.49439436250003,52.0,42.0
1007,247.78546650000004,248.52296576250004,59.0,95.0
1008,247.78546650000004,248.53546575000004,68.0,102.0
1009,247.78546650000004,248.54796573750002,64.0,99.0
1010,248.64260850000002,249.34975065000003,59.0,83.0
1011,248.64260850000002,249.35867921250002,68.0,83.0
1012,248.64260850000002,249.36939348750002,64.0,81.0
1013,248.64260850000002,249.75332167500002,40.0,63.0
1014,248.64260850000002,249.75332167500002,52.0,63.0
1015,249.49975050000003,249.89260725000003,64.0,86.0
1016,249.49975050000003,249.89617867500004,68.0,88.0
1017,250.35689250000004,251.09617747500002,64.0,70.0
1018,250.35689250000004,251.09796318750003,61.0,88.0
1019,250.35689250000004,251.32296296250004,33.0,62.0
1020,250.35689250000004,251.32296296250004,45.0,62.0
1021,250.78546350000002,251.38724861250003,52.0,38.0
1022,251.21403450000003,251.39260575000003,64.0,83.0
1023,250.35689250000004,251.40332002500003,57.0,73.0
1024,252.07117650000004,252.54081888750002,63.0,92.0
1025,252.07117650000004,252.57653313750004,66.0,83.0
1026,252.92831850000005,253.24438961250004,59.0,36.0
1027,252.49974750000004,253.40153231250002,54.0,40.0
1028,252.07117650000004,253.42831800000005,35.0,72.0
1029,252.07117650000004,253.42831800000005,47.0,72.0
1030,252.92831850000005,253.49438936250004,66.0,81.0
1031,252.92831850000005,253.69081773750003,63.0,75.0
1032,253.78546050000003,254.13367443750002,64.0,66.0
1033,253.78546050000003,254.20331722500003,59.0,59.0
1034,254.64260250000004,255.34795893750004,52.0,65.0
1035,253.78546050000003,256.6551004875,40.0,66.0
1036,255.49974450000002,256.6658147625,56.0,58.0
1037,255.07117350000004,256.69438616250005,59.0,58.0
1038,254.21403150000003,256.73724326250004,47.0,51.0
1039,257.21402850000004,257.81581361250005,64.0,68.0
1040,257.21402850000004,257.83545645000004,57.0,73.0
1041,257.21402850000004,257.93724206250005,61.0,78.0
1042,257.21402850000004,258.16759897500003,33.0,75.0
1043,257.21402850000004,258.16759897500003,45.0,75.0
1044,257.6425995,258.22831320000006,52.0,52.0
1045,258.07117050000005,258.27295601250006,64.0,56.0
1046,258.07117050000005,258.28188457500005,61.0,73.0
1047,258.92831250000006,259.053312375,63.0,67.0
1048,258.92831250000006,259.08188377500005,66.0,57.0
1049,259.7854545,259.996168575,78.0,44.0
1050,259.7854545,260.01581141250006,59.0,34.0
1051,259.7854545,260.02473997500005,75.0,57.0
1052,259.35688350000004,260.07116850000006,54.0,40.0
1053,258.92831250000006,260.11402560000005,35.0,61.0
1054,258.92831250000006,260.11402560000005,47.0,61.0
1055,260.6425965,261.817595325,32.0,90.0
1056,260.6425965,261.817595325,44.0,90.0
1057,261.07116750000006,262.07652363750003,56.0,47.0
1058,261.49973850000003,262.30152341250005,63.0,56.0
1059,261.9283095,262.33366623750004,59.0,58.0
1060,261.49973850000003,262.34259480000003,68.0,66.0
1061,262.7854515,263.25330817500003,61.0,81.0
1062,262.35688050000005,263.38902232500004,37.0,95.0
1063,262.35688050000005,263.38902232500004,49.0,95.0
1064,263.21402250000006,263.64259350000003,64.0,65.0
1065,263.21402250000006,263.674736325,68.0,83.0
1066,264.0711645,264.76937808750006,64.0,69.0
1067,264.0711645,264.80152091250005,61.0,70.0
1068,264.0711645,264.95687790000005,33.0,69.0
1069,264.0711645,264.95687790000005,45.0,69.0
1070,264.49973550000004,265.01223498750005,52.0,39.0
1071,264.9283065,265.0854492,61.0,69.0
1072,264.9283065,265.09080633750006,64.0,64.0
1073,265.78544850000003,266.35687650000006,59.0,67.0
1074,265.78544850000003,266.37473362500003,63.0,66.0
1075,265.78544850000003,266.38009076250006,66.0,67.0
1076,266.21401950000006,266.717590425,54.0,40.0
1077,265.78544850000003,266.83009031250003,35.0,63.0
1078,265.78544850000003,266.83009031250003,47.0,63.0
1079,266.64259050000004,267.54258960000004,63.0,88.0
1080,267.0711615,267.55330387500004,59.0,46.0
1081,266.64259050000004,267.5586610125,66.0,83.0
1082,268.78544550000004,269.22830220000003,56.0,66.0
1083,269.2140165,269.2693735875,59.0,63.0
1084,270.92830050000003,273.6479406375,76.0,37.0
1085,267.9283035,273.6550834875,47.0,55.0
1086,270.49972950000006,273.66044062500004,71.0,55.0
1087,270.0711585,273.66579776250006,68.0,55.0
1088,268.35687450000006,273.71044057500006,52.0,58.0
1089,269.64258750000005,273.74258340000006,64.0,46.0
1090,267.49973250000005,273.76044052500004,40.0,66.0
