,start,end,pitch,velocity
0,29.1231307,29.516512633333335,64.0,83.0
1,29.564306700000003,30.016512100000003,65.0,92.0
2,30.0054827,30.740776033333336,67.0,86.0
3,30.887834700000003,31.172760866666668,67.0,85.0
4,31.3290107,31.540407533333337,67.0,89.0
5,31.770186700000004,32.1341569,67.0,112.0
6,32.6525387,32.99812656666667,69.0,95.0
7,33.0937147,33.4356261,71.0,97.0
8,33.534890700000005,34.13415476666667,72.0,102.0
9,35.740770700000006,36.16907906666667,72.0,122.0
10,36.181946700000005,36.52201986666667,71.0,95.0
11,36.6231227,37.080842800000006,74.0,102.0
12,37.0642987,37.3234896,67.0,86.0
13,37.2848867,37.79591556666667,69.0,93.0
14,37.946650700000006,38.257312133333336,67.0,97.0
15,38.387826700000005,38.830840933333334,67.0,92.0
16,38.829002700000004,39.46503143333334,74.0,112.0
17,39.7113547,40.01650143333334,72.0,100.0
18,40.1525307,40.61944196666667,76.0,122.0
19,40.814294700000005,42.47605763333333,76.0,117.0
20,42.799586700000006,43.115762833333335,72.0,117.0
21,43.240762700000005,43.57532116666667,74.0,112.0
22,43.6819387,43.95951193333334,76.0,127.0
23,44.1231147,44.73156993333334,76.0,127.0
24,45.00546670000001,45.233407633333336,76.0,112.0
25,45.446642700000005,45.63781896666667,77.0,117.0
26,45.887818700000004,46.42458283333334,76.0,122.0
27,46.7701707,46.89333233333333,74.0,97.0
28,47.21134670000001,47.8069343,76.0,117.0
29,47.873110700000005,49.18377106666667,72.0,100.0
30,49.858402700000006,50.15435826666667,69.0,96.0
31,50.299578700000005,50.57347546666667,71.0,102.0
32,50.740754700000004,51.038548500000005,72.0,107.0
33,51.1819307,51.7940624,74.0,122.0
34,52.06428270000001,52.36759120000001,72.0,100.0
35,52.505458700000005,52.78487016666667,72.0,93.0
36,52.946634700000004,53.409869500000006,69.0,99.0
37,53.8289867,54.05508940000001,76.0,112.0
38,54.27016270000001,54.52567713333334,76.0,112.0
39,54.711338700000006,56.5091309,74.0,117.0
40,57.358394700000005,57.751776633333336,64.0,83.0
41,57.799570700000004,58.25177610000001,65.0,92.0
42,58.2407467,58.97604003333334,67.0,86.0
43,59.12309870000001,59.40802486666667,67.0,85.0
44,59.564274700000006,59.77567153333334,67.0,89.0
45,60.005450700000004,60.3694209,67.0,112.0
46,60.8878027,61.23339056666667,69.0,95.0
47,61.32897870000001,61.6708901,71.0,97.0
48,61.770154700000006,61.8418458,67.0,92.0
49,61.990742700000006,62.40066873333334,74.0,112.0
50,62.431918700000004,63.51647636666667,72.0,117.0
51,63.97603470000001,64.40434306666667,72.0,122.0
52,64.4172107,64.75728386666667,71.0,95.0
53,64.85838670000001,65.3161068,74.0,102.0
54,65.29956270000001,65.5587536,67.0,86.0
55,65.5201507,66.03117956666667,69.0,93.0
56,66.18191470000001,66.49257613333334,67.0,97.0
57,66.6230907,67.06610493333334,67.0,92.0
58,67.0642667,67.70029543333334,74.0,112.0
59,67.9466187,68.25176543333333,72.0,100.0
60,68.3877947,68.85470596666667,76.0,122.0
61,69.0495587,70.71132163333334,76.0,117.0
62,71.0348507,71.35102683333334,72.0,117.0
63,71.4760267,71.81058516666667,74.0,112.0
64,71.9172027,72.19477593333333,76.0,127.0
65,72.3583787,72.96683393333333,76.0,127.0
66,73.2407307,73.46867163333334,76.0,112.0
67,73.6819067,73.87308296666667,77.0,117.0
68,74.12308270000001,74.65984683333333,76.0,122.0
69,75.00543470000001,75.12859633333333,74.0,97.0
70,75.44661070000001,76.04219830000001,76.0,117.0
71,76.1083747,77.41903506666667,72.0,100.0
72,78.0936667,78.38962226666668,69.0,96.0
73,78.53484270000001,78.80873946666668,71.0,102.0
74,78.97601870000001,79.2738125,72.0,107.0
75,79.41719470000001,80.0293264,74.0,122.0
76,80.29954670000001,80.60285520000001,72.0,100.0
77,80.7407227,81.02013416666668,72.0,93.0
78,81.1818987,81.6451335,69.0,99.0
79,82.0642507,82.2903534,76.0,112.0
80,82.5054267,82.76094113333333,76.0,112.0
81,82.9466027,84.7443949,74.0,117.0
82,85.15248270000001,85.48704116666667,64.0,122.0
83,85.5936587,85.9686583,67.0,122.0
84,86.0348347,86.45946660000001,72.0,127.0
85,86.4760107,86.8068927,76.0,127.0
86,86.9171867,87.75909756666667,76.0,127.0
87,88.24071470000001,88.44843506666668,77.0,117.0
88,88.4613027,88.67086130000001,76.0,90.0
89,88.68189070000001,89.46865456666667,74.0,112.0
90,90.4465947,90.93924123333333,74.0,122.0
91,91.3289467,91.61754933333334,79.0,127.0
92,91.7701227,92.1285782,71.0,117.0
93,92.2112987,92.88041563333334,72.0,127.0
94,93.97600270000001,94.2517377,76.0,127.0
95,94.41717870000001,94.742546,77.0,127.0
96,94.8583547,95.15982496666668,79.0,112.0
97,95.2995307,95.56791276666668,72.0,102.0
98,95.7407067,96.34180900000001,72.0,117.0
99,96.6230587,96.87122020000001,74.0,127.0
100,96.84364670000001,97.1304111,76.0,112.0
101,97.50541070000001,99.04217376666668,76.0,127.0
102,99.27011470000001,99.71680540000001,64.0,117.0
103,99.7112907,100.11937850000001,67.0,100.0
104,100.1524667,100.60099563333334,72.0,107.0
105,100.5936427,100.8859218,76.0,112.0
106,101.0348187,102.1598175,76.0,127.0
107,102.35834670000001,102.56974353333334,77.0,127.0
108,102.5789347,102.79033153333334,76.0,93.0
109,102.79952270000001,103.72047760000001,74.0,122.0
110,104.5642267,105.33444646666668,74.0,112.0
111,105.4465787,105.87488706666667,79.0,127.0
112,105.8877547,106.38959240000001,71.0,112.0
113,106.32893070000002,107.09179753333333,72.0,122.0
114,108.09363470000001,108.42267846666668,76.0,122.0
115,108.53481070000001,108.91716323333334,77.0,112.0
116,108.9759867,109.34914806666667,79.0,127.0
117,109.4171627,109.68370653333334,72.0,112.0
118,109.8583387,110.24804416666667,72.0,127.0
119,110.7406907,111.61568976666668,74.0,127.0
120,111.62304270000001,113.04583530000001,72.0,127.0
121,142.06418670000002,142.45756863333335,64.0,83.0
122,142.5053627,142.9575681,65.0,92.0
123,142.94653870000002,143.68183203333334,67.0,86.0
124,143.82889070000002,144.11381686666667,67.0,85.0
125,144.2700667,144.48146353333334,67.0,89.0
126,144.7112427,145.0752129,67.0,112.0
127,145.5935947,145.9391825666667,69.0,95.0
128,146.03477070000002,146.3766821,71.0,97.0
129,146.4759467,146.54763780000002,67.0,92.0
130,146.6965347,147.10646073333334,74.0,112.0
131,147.1377107,148.22226836666667,72.0,117.0
132,148.68182670000002,149.1101350666667,72.0,122.0
133,149.1230027,149.46307586666668,71.0,95.0
134,149.5641787,150.0218988,74.0,102.0
135,150.0053547,150.26454560000002,67.0,86.0
136,150.22594270000002,150.73697156666668,69.0,93.0
137,150.88770670000002,151.19836813333333,67.0,97.0
138,151.3288827,151.77189693333335,67.0,92.0
139,151.77005870000002,152.40608743333334,74.0,112.0
140,152.65241070000002,152.95755743333333,72.0,100.0
141,153.0935867,153.56049796666667,76.0,122.0
142,153.7553507,155.41711363333334,76.0,117.0
143,155.74064270000002,156.05681883333335,72.0,117.0
144,156.1818187,156.51637716666667,74.0,112.0
145,156.62299470000002,156.90056793333335,76.0,127.0
146,157.0641707,157.67262593333334,76.0,127.0
147,157.9465227,158.17446363333335,76.0,112.0
148,158.38769870000002,158.5788749666667,77.0,117.0
149,158.8288747,159.36563883333335,76.0,122.0
150,159.71122670000003,159.83438833333335,74.0,97.0
151,160.1524027,160.74799030000003,76.0,117.0
152,160.81416670000002,162.12482706666668,72.0,100.0
153,162.7994587,163.09541426666667,69.0,96.0
154,163.24063470000002,163.51453146666668,71.0,102.0
155,163.6818107,163.97960450000002,72.0,107.0
156,164.1229867,164.7351184,74.0,122.0
157,165.0053387,165.30864720000002,72.0,100.0
158,165.44651470000002,165.72592616666668,72.0,93.0
159,165.8876907,166.35092550000002,69.0,99.0
160,166.7700427,166.99614540000002,76.0,112.0
161,167.21121870000002,167.46673313333335,76.0,112.0
162,167.6523947,169.4501869,74.0,117.0
163,169.8582747,170.19283316666667,64.0,122.0
164,170.29945070000002,170.67445030000002,67.0,122.0
165,170.7406267,171.16525860000002,72.0,127.0
166,171.18180270000002,171.51268470000002,76.0,127.0
167,171.6229787,172.46488956666667,76.0,127.0
168,172.94650670000001,173.1542270666667,77.0,117.0
169,173.1670947,173.37665330000002,76.0,90.0
170,173.3876827,174.1744465666667,74.0,112.0
171,175.15238670000002,175.64503323333335,74.0,122.0
172,176.03473870000002,176.32334133333336,79.0,127.0
173,176.4759147,176.83437020000002,71.0,117.0
174,176.91709070000002,177.58620763333334,72.0,127.0
175,178.6817947,178.9575297,76.0,127.0
176,179.12297070000002,179.448338,77.0,127.0
177,179.5641467,179.8656169666667,79.0,112.0
178,180.00532270000002,180.27370476666667,72.0,102.0
179,180.4464987,181.04760100000001,72.0,117.0
180,181.3288507,181.5770122,74.0,127.0
181,181.54943870000002,181.8362031,76.0,112.0
182,182.2112027,183.74796576666668,76.0,127.0
183,183.97590670000002,184.4225974,64.0,117.0
184,184.4170827,184.8251705,67.0,100.0
185,184.85825870000002,185.30678763333336,72.0,107.0
186,185.2994347,185.5917138,76.0,112.0
187,185.74061070000002,186.8656095,76.0,127.0
188,187.0641387,187.27553553333334,77.0,127.0
189,187.28472670000002,187.49612353333336,76.0,93.0
190,187.5053147,188.4262696,74.0,122.0
191,189.2700187,190.0402384666667,74.0,112.0
192,190.1523707,190.58067906666668,79.0,127.0
193,190.59354670000002,191.0953844,71.0,112.0
194,191.0347227,191.79758953333334,72.0,122.0
195,192.79942670000003,193.12847046666667,76.0,122.0
196,193.2406027,193.62295523333336,77.0,112.0
197,193.68177870000002,194.0549400666667,79.0,127.0
198,194.1229547,194.38949853333335,72.0,112.0
199,194.56413070000002,194.9538361666667,72.0,127.0
200,195.44648270000002,196.3214817666667,74.0,127.0
201,196.32883470000002,197.75162730000002,72.0,127.0
202,198.0935387,198.46670006666668,81.0,127.0
203,198.53471470000002,198.82331733333334,79.0,127.0
204,198.9758907,199.2553021666667,76.0,127.0
205,199.41706670000002,199.62478706666667,74.0,127.0
206,199.6376547,199.8619191666667,72.0,102.0
207,199.8582427,200.87478573333334,76.0,127.0
208,201.18177070000002,201.3894910666667,77.0,117.0
209,201.4023587,201.61191730000002,76.0,90.0
210,201.62294670000003,202.4097105666667,74.0,112.0
211,203.38765070000002,203.7461062,81.0,127.0
212,203.8288267,204.17625280000001,79.0,127.0
213,204.7111787,205.06963420000002,71.0,117.0
214,205.15235470000002,205.82147163333335,72.0,127.0
215,206.9170587,207.1927937,76.0,127.0
216,207.35823470000003,207.683602,77.0,127.0
217,207.7994107,208.1008809666667,79.0,112.0
218,208.24058670000002,208.50896876666667,72.0,102.0
219,208.6817627,209.28286500000002,72.0,117.0
220,209.5641147,209.8122762,74.0,127.0
221,210.00529070000002,210.16337876666668,76.0,112.0
222,210.2258787,211.7626417666667,76.0,127.0
223,212.21117070000003,212.65786140000003,64.0,117.0
224,212.6523467,213.0604345,67.0,100.0
225,213.09352270000002,213.54205163333336,72.0,107.0
226,213.5346987,213.8269778,76.0,112.0
227,213.97587470000002,215.1008735,76.0,127.0
228,215.29940270000003,215.58432886666668,74.0,127.0
229,215.74057870000001,216.6615336,74.0,122.0
230,217.5052827,218.2755024666667,74.0,112.0
231,218.3876347,218.81594306666668,79.0,127.0
232,218.82881070000002,219.33064840000003,71.0,112.0
233,219.2699867,219.71483916666668,74.0,122.0
234,219.71116270000002,220.59351470000001,72.0,127.0
235,221.03469070000003,221.36373446666667,76.0,122.0
236,221.4758667,221.85821923333336,77.0,112.0
237,221.91704270000002,222.2902040666667,79.0,127.0
238,222.3582187,222.62476253333335,72.0,112.0
239,222.79939470000002,223.1891001666667,72.0,127.0
240,223.68174670000002,224.5567457666667,74.0,127.0
241,224.56409870000002,225.98689130000002,72.0,127.0
