,start,end,pitch,velocity
0,23.427550570833333,23.515618729166665,78.0,87.0
1,23.59800507083333,23.677550504166664,78.0,87.0
2,23.768459570833333,23.8508459125,78.0,84.0
3,23.93891407083333,24.086641304166665,78.0,84.0
4,24.109368570833333,24.225845812499998,76.0,99.0
5,24.450277570833332,24.67186842083333,73.0,91.0
6,25.132095570833332,25.749993133333334,74.0,89.0
7,25.813913570833332,25.978686254166664,73.0,89.0
8,26.154822570833332,26.340902066666665,71.0,84.0
9,26.495731570833332,27.44601540833333,74.0,89.0
10,28.88209457083333,28.960219549999998,78.0,88.0
11,29.052549070833333,29.129253595833333,78.0,87.0
12,29.22300357083333,29.292605825,78.0,88.0
13,29.393458070833333,29.470162595833333,78.0,90.0
14,29.56391257083333,29.708798895833333,76.0,82.0
15,29.90482157083333,30.374991899999998,81.0,81.0
16,30.58663957083333,30.924707662499998,73.0,88.0
17,31.26845757083333,31.606525662499998,74.0,92.0
18,31.60936657083333,31.947434662499997,69.0,77.0
19,31.95027557083333,32.642036749999995,73.0,77.0
20,32.632093570833334,32.98294575,74.0,90.0
21,32.897718499999996,33.323854749999995,69.0,90.0
22,33.31391157083333,34.11362726666667,71.0,90.0
23,34.33663857083333,34.51135443333333,78.0,95.0
24,34.507093070833335,34.62499076666666,76.0,90.0
25,34.67754757083333,34.812490716666666,74.0,89.0
26,34.84800207083333,34.965899766666666,76.0,90.0
27,35.01845657083333,35.230104241666666,76.0,91.0
28,35.49857007916667,35.83663817083333,69.0,88.0
29,36.04118357083333,36.684649308333334,69.0,88.0
30,37.06391057083333,37.2485696125,78.0,92.0
31,37.234365070833334,37.335217316666665,76.0,95.0
32,37.40481957083333,37.64345587083333,74.0,91.0
33,37.74572857083333,38.2542511625,76.0,88.0
34,38.25709207083333,38.801126016666664,73.0,88.0
35,38.76845557083333,39.843739375,71.0,82.0
36,39.7627734875,39.886353,78.0,82.0
37,40.81390957083333,41.0667504125,69.0,89.0
38,41.154818570833335,41.38067078333333,78.0,89.0
39,41.49572757083333,42.025556975,76.0,88.0
40,42.17754557083333,43.00282944166666,81.0,89.0
41,43.200272570833334,43.44885205,81.0,90.0
42,43.54118157083333,43.75709060416666,78.0,90.0
43,43.882090570833334,44.13351095833333,74.0,88.0
44,44.22299957083333,45.01845390416666,71.0,90.0
45,45.245726570833334,45.502828775,81.0,88.0
46,45.58663557083333,46.100839979166665,76.0,89.0
47,46.26845357083333,46.518453504166665,73.0,92.0
48,46.60936257083333,46.80112388333333,69.0,89.0
49,46.95027157083333,47.52129414583333,73.0,84.0
50,47.63208957083333,48.21589623333333,74.0,93.0
51,48.65481657083333,48.910498320833334,81.0,88.0
52,48.99572557083333,49.25424822916666,78.0,89.0
53,49.33663457083333,49.60510040833333,74.0,92.0
54,49.67754357083333,50.454532,83.0,88.0
55,50.35936157083333,50.61362286666667,81.0,93.0
56,50.70027057083333,50.95453186666666,81.0,93.0
57,51.04117957083333,51.89629297916667,83.0,89.0
58,51.72299757083333,51.977258866666666,81.0,93.0
59,52.06390657083333,52.31248605,81.0,86.0
60,52.40481557083333,52.96021315,78.0,90.0
61,52.923281341666666,53.095156295833334,76.0,85.0
62,53.08663357083333,53.443167566666666,74.0,89.0
63,53.76845157083333,53.9104969875,74.0,99.0
64,54.10936057083333,54.3792468625,81.0,89.0
65,54.45026957083333,54.7201558625,78.0,88.0
66,54.79117857083333,54.997144424999995,74.0,89.0
67,55.132087570833335,55.88918964166666,74.0,92.0
68,56.15481457083333,56.374984966666666,81.0,88.0
69,56.495723570833334,57.31816653333333,76.0,88.0
70,57.51845057083333,57.7116323375,73.0,83.0
71,57.859359570833334,58.40339351666666,73.0,88.0
72,58.541177570833334,59.16759785833333,74.0,90.0
73,59.39345007083333,59.50424549583333,74.0,90.0
74,59.56390457083333,59.821006775,81.0,88.0
75,59.90481357083333,60.0639044375,78.0,91.0
76,60.127824874999995,60.32242709583333,78.0,90.0
77,60.48293841666666,60.85509740833333,76.0,89.0
78,60.92754057083333,62.81248325,74.0,90.0
79,62.97299457083333,63.332369475,78.0,88.0
80,63.33521038333333,64.00282384166667,76.0,90.0
81,63.977255666666665,64.08236927499999,78.0,84.0
82,64.67753957083333,64.92327814166667,69.0,87.0
83,65.01844857083333,65.26702805,73.0,83.0
84,65.35935757083332,65.64060749583334,74.0,92.0
85,65.70026657083334,65.98293695,69.0,90.0
86,66.04117557083333,66.35935730416666,73.0,84.0
87,66.38208457083333,67.9644705125,71.0,84.0
88,77.97299057083333,78.06105872916666,78.0,87.0
89,78.14344507083334,78.22299050416666,78.0,87.0
90,78.31389957083333,78.39628591249999,78.0,84.0
91,78.48435407083333,78.63208130416666,78.0,84.0
92,78.65480857083332,78.7712858125,76.0,99.0
93,78.99571757083334,79.48861516666666,73.0,91.0
94,79.67753557083333,80.29543313333333,74.0,89.0
95,80.35935357083333,80.52412625416666,73.0,89.0
96,80.70026257083333,80.88634206666666,71.0,84.0
97,81.04117157083333,81.99145540833334,74.0,89.0
98,83.42753457083333,83.50565954999999,78.0,88.0
99,83.59798907083334,83.67469359583333,78.0,87.0
100,83.76844357083333,83.838045825,78.0,88.0
101,83.93889807083333,84.01560259583333,78.0,90.0
102,84.10935257083332,84.25423889583332,76.0,82.0
103,84.45026157083333,84.9204319,81.0,81.0
104,85.13207957083333,85.4701476625,73.0,88.0
105,85.81389757083333,86.15196566249999,74.0,92.0
106,86.15480657083333,86.4928746625,69.0,77.0
107,86.49571557083333,86.8337836625,73.0,77.0
108,87.17753357083333,87.48293121666666,74.0,90.0
109,87.54259029166667,88.65906726666667,71.0,90.0
110,88.88207857083333,89.05679443333332,78.0,95.0
111,89.05253307083333,89.17043076666667,76.0,90.0
112,89.22298757083333,89.35793071666666,74.0,89.0
113,89.39344207083333,89.51133976666667,76.0,90.0
114,89.56389657083334,89.77554424166667,76.0,91.0
115,89.90480557083333,90.38207817083332,69.0,88.0
116,90.58662357083332,91.23008930833333,69.0,88.0
117,91.60935057083333,91.79400961249999,78.0,92.0
118,91.77980507083333,91.88065731666666,76.0,95.0
119,91.95025957083332,92.18889587083333,74.0,91.0
120,92.29116857083334,92.7996911625,76.0,88.0
121,92.80253207083332,93.34656601666666,73.0,88.0
122,93.31389557083332,95.11361099999999,74.0,82.0
123,95.35934957083333,95.6121904125,71.0,89.0
124,95.70025857083333,95.92611078333333,78.0,89.0
125,96.04116757083332,96.818156,76.0,88.0
126,96.72298557083333,97.54826944166666,81.0,89.0
127,97.74571257083333,97.99429205,81.0,90.0
128,98.08662157083333,98.30253060416666,78.0,90.0
129,98.42753057083333,98.67895095833333,74.0,88.0
130,98.76843957083332,99.56389390416666,71.0,90.0
131,99.79116657083333,100.048268775,81.0,88.0
132,100.13207557083332,100.64627997916666,76.0,89.0
133,100.81389357083333,101.06389350416666,73.0,92.0
134,101.15480257083333,101.34656388333333,69.0,89.0
135,101.49571157083334,102.06673414583332,73.0,84.0
136,102.17752957083333,102.76133623333332,74.0,93.0
137,103.20025657083333,103.45593832083333,81.0,88.0
138,103.54116557083333,103.79968822916666,78.0,89.0
139,103.88207457083332,104.15054040833333,74.0,92.0
140,104.22298357083334,105.10366515416666,83.0,88.0
141,105.24571057083332,105.49997186666667,81.0,73.0
142,105.58661957083334,106.44173297916666,83.0,89.0
143,106.60934657083332,106.85792604999999,81.0,86.0
144,106.95025557083333,107.58093722083333,78.0,90.0
145,107.46161907083332,107.61360766666667,76.0,90.0
146,107.63207357083333,107.98860756666666,74.0,89.0
147,108.31389157083333,108.4559369875,74.0,99.0
148,108.65480057083333,108.9246868625,81.0,89.0
149,108.99570957083333,109.26559586249999,78.0,88.0
150,109.33661857083332,109.542584425,74.0,89.0
151,109.67752757083333,110.43462964166666,74.0,92.0
152,110.70025457083332,110.92042496666666,81.0,88.0
153,111.04116357083333,111.60508387499999,76.0,88.0
154,111.54400434583333,111.70451566666667,78.0,103.0
155,112.06389057083332,112.25707233749999,73.0,83.0
156,112.40479957083333,112.94883351666667,73.0,88.0
157,113.08661757083333,113.71303785833332,74.0,90.0
158,113.93889007083332,114.04968549583333,74.0,90.0
159,114.10934457083333,114.366446775,81.0,88.0
160,114.45025357083333,114.6093444375,78.0,91.0
161,114.673264875,114.86786709583333,78.0,90.0
162,115.07525340416666,115.24286699583332,76.0,89.0
163,115.22866245416667,115.3337760625,74.0,82.0
164,115.34798060416666,115.457355575,76.0,59.0
165,115.4658783,117.42610504999999,74.0,90.0
166,117.51843457083334,117.95451399999999,78.0,88.0
167,117.84087766666666,118.55110475,76.0,90.0
168,118.5127524875,118.678945625,78.0,90.0
169,119.22297957083333,119.46871814166666,69.0,87.0
170,119.56388857083333,119.81246804999999,73.0,83.0
171,119.90479757083332,120.18604749583334,74.0,92.0
172,120.24570657083333,120.52837695,69.0,90.0
173,120.58661557083333,121.51559259583333,73.0,84.0
174,121.60934257083333,121.84655841666667,74.0,89.0
175,121.95025157083333,122.54684232083333,74.0,97.0
176,122.63206957083332,122.88491041249999,74.0,95.0
177,122.97297857083333,123.20167169166666,76.0,92.0
178,123.31388757083333,123.74286472916666,77.0,88.0
179,123.65479657083333,123.96019421666666,76.0,88.0
180,123.99570557083332,125.5780915125,77.0,89.0
181,125.6462733125,126.0042277625,77.0,90.0
182,125.97155731666666,126.67894349166666,76.0,89.0
183,128.41473848333334,128.73576112499998,76.0,87.0
184,128.72013612916666,129.4303632125,74.0,89.0
185,131.12780594166665,131.42610131666666,79.0,100.0
186,131.4204195,132.29257835833332,78.0,83.0
187,132.15905566666666,133.89200975,81.0,83.0
188,133.85791885,134.19172557916667,79.0,92.0
189,134.17183922083333,134.37496416666667,78.0,101.0
190,135.58661157083333,135.92467966249998,74.0,89.0
191,135.92752057083334,136.17610005,81.0,90.0
192,136.26842957083332,136.48433860416665,79.0,90.0
193,136.60933857083333,136.86075895833332,81.0,88.0
194,136.91899757916667,137.08519071666666,78.0,89.0
195,137.0411566375,137.23007704166668,76.0,94.0
196,137.20592932083332,137.93746321666666,74.0,82.0
197,137.97297457083332,138.230076775,81.0,88.0
198,138.31388357083333,138.82808797916667,76.0,89.0
199,138.99570157083332,139.24570150416668,73.0,92.0
200,139.33661057083333,139.52837188333334,69.0,89.0
201,139.67751957083334,140.24854214583334,73.0,84.0
202,140.35933757083333,140.94314423333333,74.0,93.0
203,141.38206457083334,141.63774632083332,81.0,88.0
204,141.72297357083332,141.98149622916665,78.0,89.0
205,142.06388257083333,142.33234840833333,74.0,92.0
206,142.40479157083334,143.09655275,83.0,88.0
207,143.04399594583333,143.29825724166665,81.0,93.0
208,143.4275185708333,143.68177986666666,81.0,93.0
209,143.76842757083332,144.46018875,83.0,89.0
210,144.4218364875,144.67041596666667,81.0,86.0
211,144.79115457083333,145.22723399999998,81.0,86.0
212,145.13206357083334,145.76274522083332,78.0,90.0
213,145.63490434583332,145.7939952125,76.0,79.0
214,145.7854724875,146.18888147083334,74.0,79.0
215,146.49569957083332,146.63774498749999,74.0,99.0
216,146.83660857083333,147.1064948625,81.0,89.0
217,147.17751757083332,147.44740386249998,78.0,88.0
218,147.51842657083333,147.724392425,74.0,89.0
219,147.85933557083334,148.61643764166666,74.0,92.0
220,148.88206257083334,149.10223296666666,81.0,88.0
221,149.22581247916665,149.77552824166665,76.0,88.0
222,149.73433507083334,149.82950549999998,78.0,83.0
223,150.24569857083333,150.4388803375,73.0,83.0
224,150.58660757083334,151.13064151666666,73.0,88.0
225,151.26842557083333,151.89484585833333,74.0,90.0
226,152.12069807083333,152.23149349583332,74.0,90.0
227,152.29115257083333,152.548254775,81.0,88.0
228,152.63206157083332,152.7911524375,78.0,91.0
229,152.97297057083333,153.16899324583332,78.0,90.0
230,153.13774325416665,153.31245911666667,76.0,89.0
231,153.298254575,153.468709075,74.0,82.0
232,153.45024317083332,153.63348175833332,76.0,80.0
233,153.62922039583333,155.04683365416665,74.0,106.0
234,155.70024257083332,155.82808344583333,78.0,88.0
235,155.85791298333334,155.94171977916665,74.0,59.0
236,156.0553561125,156.71586729999999,76.0,90.0
237,156.73007184166667,156.85791271666665,81.0,59.0
238,157.40478757083332,157.65052614166666,81.0,87.0
239,157.74569657083333,157.99427605,78.0,83.0
240,158.0866055708333,158.36785549583334,78.0,92.0
241,158.42751457083332,158.71018494999998,74.0,90.0
242,158.735753125,158.81813946666665,74.0,59.0
243,158.83234400833334,159.4474006625,71.0,84.0
244,159.79115057083334,160.02836641666667,81.0,89.0
245,160.06671867916666,160.1206959375,78.0,59.0
246,160.13205957083332,160.8110366625,76.0,97.0
247,160.8138775708333,161.0667184125,73.0,95.0
248,161.15478657083332,161.38347969166665,69.0,92.0
249,161.49569557083333,161.92467272916667,73.0,88.0
250,162.17751357083333,162.8564906625,74.0,88.0
251,163.20024057083333,163.47296777083332,81.0,89.0
252,163.54114957083334,163.81671767916666,78.0,92.0
253,163.88205857083332,164.11501305416667,74.0,95.0
254,164.22296757083333,165.18461504166666,83.0,90.0
255,165.24569457083334,165.50137632083332,81.0,92.0
256,165.58660357083332,166.24995566666666,83.0,94.0
257,166.18319432083334,167.04541,86.0,89.0
258,166.95023957083333,167.4672848875,78.0,91.0
259,167.46586443333334,167.5567735,76.0,83.0
260,167.60790985,167.88773932083333,74.0,83.0
261,168.31387557083332,168.57381868333331,74.0,104.0
262,168.65478457083333,168.86643224166667,81.0,89.0
263,168.99569357083334,169.2428525958333,78.0,89.0
264,169.33660257083332,169.54967069583333,74.0,92.0
265,169.67751157083333,170.58092042083334,74.0,95.0
266,170.70023857083333,170.93319305416665,81.0,86.0
267,171.04114757083332,171.72012466249998,76.0,92.0
268,171.72296557083334,171.9914314083333,73.0,88.0
269,172.06387457083332,172.33234040833332,73.0,88.0
270,172.40478357083333,172.97154478333331,73.0,89.0
271,173.08660157083332,173.4204083,74.0,94.0
272,173.428931025,173.4999537333333,76.0,59.0
273,174.62069207083331,174.72154431666667,71.0,90.0
274,174.79114657083332,174.89768063333332,74.0,97.0
275,174.96160107083332,175.099385125,76.0,88.0
276,175.13205557083333,175.35364642083331,78.0,94.0
277,175.4729645708333,175.70165769166667,78.0,89.0
278,175.81387357083332,176.05250987083332,76.0,90.0
279,176.15478257083333,176.38063478333333,71.0,92.0
280,176.49569157083332,177.70023670416666,74.0,94.0
281,177.69171397916665,177.75137305416666,76.0,91.0
282,177.8564866625,178.55108875,76.0,91.0
283,178.51557739583333,178.57523647083332,78.0,91.0
284,179.22296357083331,179.47864532083332,69.0,88.0
285,179.56387257083333,179.83233840833333,73.0,84.0
286,179.90478157083334,180.23148602916666,74.0,92.0
287,180.24569057083332,180.5454064,69.0,90.0
288,180.58659957083333,180.95307674583333,73.0,90.0
289,180.92750857083334,182.53262177916665,71.0,89.0
