,start,end,pitch,velocity
0,0.9275565708333333,1.1434656041666666,43.0,88.0
1,1.2684655708333332,1.3906246291666666,43.0,84.0
2,0.9275565708333333,1.4048291708333334,59.0,78.0
3,0.9275565708333333,1.4076700791666665,62.0,85.0
4,1.6093745708333334,1.7244313583333333,43.0,84.0
5,1.6093745708333334,1.7315336291666665,50.0,85.0
6,1.6093745708333334,1.951704025,55.0,79.0
7,1.6093745708333334,1.9957381041666666,62.0,85.0
8,1.6093745708333334,2.0056812833333333,59.0,80.0
9,1.9502835708333333,2.1150562541666664,43.0,78.0
10,2.291192570833333,2.4730107041666667,45.0,87.0
11,2.291192570833333,2.6917606458333334,61.0,83.0
12,2.291192570833333,2.7031242791666665,57.0,78.0
13,2.632101570833333,2.772726533333333,52.0,79.0
14,2.632101570833333,2.7812492583333333,45.0,78.0
15,2.9730105708333334,3.0909082666666667,52.0,88.0
16,2.9730105708333334,3.0994309916666665,45.0,86.0
17,2.9730105708333334,3.164771883333333,57.0,80.0
18,2.9730105708333334,3.1860786958333334,61.0,82.0
19,3.3139195708333333,3.451703625,45.0,88.0
20,3.6548285708333332,3.923294408333333,62.0,84.0
21,3.6548285708333332,3.9545443999999996,59.0,76.0
22,3.6548285708333332,4.1548284375,47.0,88.0
23,3.995737570833333,4.1690329791666665,54.0,71.0
24,4.3366465708333335,4.485794258333333,54.0,83.0
25,4.3366465708333335,4.488635166666667,47.0,88.0
26,4.3366465708333335,4.752839641666666,66.0,73.0
27,4.3366465708333335,4.7940328125,59.0,83.0
28,4.3366465708333335,4.8167600791666665,62.0,82.0
29,4.677555570833333,4.8622146125,47.0,83.0
30,5.018464570833333,5.208805429166667,47.0,77.0
31,5.018464570833333,5.372157658333333,62.0,81.0
32,5.018464570833333,5.387782654166666,59.0,76.0
33,5.359373570833333,5.494316716666667,54.0,74.0
34,5.359373570833333,5.538350795833333,47.0,77.0
35,5.700282570833333,5.8437484416666665,54.0,73.0
36,5.700282570833333,5.855112075,47.0,79.0
37,5.700282570833333,6.032668845833333,61.0,84.0
38,6.041191570833333,6.174714262499999,47.0,87.0
39,6.041191570833333,6.198861983333333,62.0,84.0
40,6.382100570833333,6.5497141625,43.0,84.0
41,6.723009570833333,6.842327720833333,50.0,70.0
42,6.723009570833333,6.863634533333333,43.0,75.0
43,6.382100570833333,6.910509520833333,55.0,66.0
44,6.382100570833333,6.9161913375,59.0,72.0
45,7.063918570833333,7.187498083333333,50.0,83.0
46,7.063918570833333,7.198861716666666,43.0,84.0
47,7.063918570833333,7.481532095833333,55.0,83.0
48,7.063918570833333,7.497157091666667,59.0,83.0
49,7.404827570833333,7.573861616666666,43.0,83.0
50,7.063918570833333,7.588066158333333,62.0,84.0
51,7.7457365708333334,7.987213779166666,45.0,88.0
52,8.086645570833333,8.184656908333332,45.0,58.0
53,8.086645570833333,8.1946000875,52.0,79.0
54,7.7457365708333334,8.213065991666666,61.0,83.0
55,7.7457365708333334,8.230111441666667,57.0,77.0
56,8.427554570833333,8.529827270833334,52.0,82.0
57,8.427554570833333,8.562497716666666,45.0,85.0
58,8.427554570833333,8.774145387499999,57.0,77.0
59,8.427554570833333,8.889202175,64.0,87.0
60,8.768463570833333,8.916190804166666,45.0,87.0
61,9.109372570833333,9.5667588125,59.0,77.0
62,9.450281570833333,9.585224716666666,54.0,69.0
63,9.109372570833333,9.606531529166666,47.0,88.0
64,9.109372570833333,9.607951983333333,62.0,79.0
65,9.791190570833333,9.923292808333333,54.0,78.0
66,9.791190570833333,9.926133716666666,47.0,81.0
67,9.791190570833333,10.187497283333332,62.0,81.0
68,9.791190570833333,10.191758645833334,66.0,74.0
69,9.791190570833333,10.221588183333333,59.0,81.0
70,10.132099570833333,10.259940445833333,54.0,68.0
71,10.132099570833333,10.269883625,47.0,77.0
72,10.473008570833333,10.599428991666667,54.0,71.0
73,10.473008570833333,10.627838075,47.0,83.0
74,10.473008570833333,10.637781254166667,61.0,88.0
75,10.813917570833333,10.947440262499999,54.0,66.0
76,10.813917570833333,10.958803895833332,47.0,79.0
77,10.813917570833333,11.103690220833332,62.0,82.0
78,11.154826570833333,11.319599254166667,54.0,76.0
79,11.154826570833333,11.33522425,47.0,85.0
80,11.154826570833333,11.507099204166666,61.0,89.0
81,11.495735570833332,11.7954514,54.0,75.0
82,11.495735570833332,11.8167582125,57.0,87.0
83,11.495735570833332,11.826701391666667,47.0,81.0
84,11.836644570833332,12.173292208333333,62.0,89.0
85,11.836644570833332,12.1832353875,55.0,85.0
86,11.836644570833332,12.288348995833333,43.0,88.0
87,12.177553570833332,12.309655808333332,50.0,84.0
88,12.518462570833332,12.629257995833333,43.0,88.0
89,12.518462570833332,12.629257995833333,50.0,89.0
90,12.518462570833332,12.794030679166665,55.0,85.0
91,12.518462570833332,12.855110208333333,62.0,86.0
92,12.859371570833332,12.940337458333333,50.0,79.0
93,12.859371570833332,12.985791991666666,43.0,87.0
94,13.200280570833332,13.399144154166667,45.0,88.0
95,13.541189570833334,13.626416820833333,45.0,81.0
96,13.541189570833334,13.627837275,52.0,83.0
97,13.200280570833332,13.670450899999999,57.0,84.0
98,13.200280570833332,13.697439529166665,61.0,88.0
99,13.882098570833334,13.984371270833332,52.0,88.0
100,13.882098570833334,14.001416720833333,45.0,88.0
101,13.882098570833334,14.265621195833333,57.0,88.0
102,13.882098570833334,14.265621195833333,61.0,87.0
103,14.223007570833333,14.359371170833333,45.0,82.0
104,14.563916570833333,14.767041516666666,62.0,83.0
105,14.563916570833333,14.873575579166666,59.0,84.0
106,14.563916570833333,15.036927808333333,47.0,88.0
107,14.904825570833333,15.0468709875,54.0,73.0
108,15.245734570833333,15.390620895833333,47.0,81.0
109,15.245734570833333,15.394882258333332,54.0,81.0
110,15.245734570833333,15.66476855,59.0,88.0
111,15.245734570833333,15.705961720833333,62.0,87.0
112,15.245734570833333,15.752836708333332,66.0,83.0
113,15.586643570833333,15.802552604166666,47.0,84.0
114,15.927552570833333,16.072438895833333,62.0,84.0
115,15.927552570833333,16.153404783333333,54.0,84.0
116,15.927552570833333,16.156245691666665,59.0,74.0
117,15.927552570833333,16.164768416666664,47.0,81.0
118,16.26846157083333,16.443177433333332,47.0,83.0
119,16.26846157083333,16.457381975,61.0,89.0
120,16.60937057083333,16.774143254166667,54.0,76.0
121,16.60937057083333,16.801131883333333,47.0,82.0
122,16.95027957083333,17.088063625,47.0,84.0
123,16.60937057083333,17.153404516666665,62.0,90.0
124,17.291188570833334,17.43749535,43.0,87.0
125,17.632097570833334,17.7741429875,43.0,83.0
126,17.291188570833334,17.805392979166665,59.0,85.0
127,17.291188570833334,17.806813433333332,55.0,84.0
128,17.973006570833334,18.0639156375,50.0,83.0
129,17.973006570833334,18.105108808333334,43.0,85.0
130,17.973006570833334,18.292608758333333,55.0,85.0
131,17.973006570833334,18.3536882875,59.0,88.0
132,17.973006570833334,18.359370104166665,62.0,90.0
133,18.313915570833334,18.451699625,43.0,84.0
134,18.654824570833334,18.805392712499998,45.0,88.0
135,18.995733570833334,19.113631266666665,52.0,76.0
136,18.995733570833334,19.136358533333333,45.0,84.0
137,18.654824570833334,19.164767616666666,57.0,84.0
138,18.654824570833334,19.203119879166668,61.0,85.0
139,19.336642570833334,19.450278904166666,52.0,88.0
140,19.336642570833334,19.468744808333334,45.0,88.0
141,19.336642570833334,19.651983395833334,61.0,84.0
142,19.336642570833334,19.688915204166666,57.0,84.0
143,19.677551570833334,19.805392445833334,45.0,87.0
144,19.336642570833334,19.833801529166667,64.0,92.0
145,20.018460570833334,20.42755137083333,59.0,81.0
146,20.018460570833334,20.4758468125,62.0,83.0
147,20.018460570833334,20.491471808333333,47.0,89.0
148,20.359369570833334,20.509937712499998,54.0,75.0
149,20.700278570833333,20.838062625,47.0,80.0
150,20.700278570833333,20.855108075,54.0,76.0
151,20.700278570833333,20.9190285125,59.0,86.0
152,20.700278570833333,20.941755779166666,62.0,86.0
153,20.700278570833333,21.00283530833333,66.0,87.0
154,21.041187570833333,21.19033525833333,54.0,70.0
155,21.041187570833333,21.21164207083333,47.0,77.0
156,21.382096570833333,21.52698289583333,54.0,83.0
157,21.382096570833333,21.536926075,47.0,88.0
158,21.723005570833333,21.931812333333333,47.0,88.0
159,22.063914570833333,22.2230054375,47.0,88.0
160,22.063914570833333,22.23863043333333,54.0,90.0
161,22.063914570833333,22.390619029166665,62.0,89.0
162,22.063914570833333,22.424709929166667,59.0,88.0
163,22.404823570833333,22.542607625,47.0,85.0
164,23.086641570833333,23.174709729166665,50.0,82.0
165,22.745732570833333,23.193175633333333,43.0,89.0
166,22.745732570833333,23.27840288333333,55.0,81.0
167,22.745732570833333,23.295448333333333,59.0,81.0
168,23.427550570833333,23.528402816666667,50.0,79.0
169,23.427550570833333,23.5568119,43.0,76.0
170,23.427550570833333,23.829539099999998,55.0,80.0
171,23.768459570833333,23.926129983333333,43.0,83.0
172,23.427550570833333,23.936073162499998,59.0,82.0
173,24.109368570833333,24.321016241666666,45.0,84.0
174,24.450277570833332,24.521300279166667,45.0,72.0
175,24.450277570833332,24.53550482083333,52.0,81.0
176,24.791186570833332,24.909084266666667,45.0,87.0
177,24.791186570833332,24.909084266666667,52.0,88.0
178,24.109368570833333,24.9758456125,57.0,78.0
179,24.109368570833333,25.004254695833332,61.0,78.0
180,25.132095570833332,25.269879624999998,45.0,85.0
181,25.473004570833332,25.982947616666667,47.0,88.0
182,25.473004570833332,25.9900498875,62.0,80.0
183,25.473004570833332,25.992890795833333,59.0,78.0
184,25.813913570833332,25.995731704166666,54.0,72.0
185,26.154822570833332,26.319595254166664,47.0,84.0
186,26.154822570833332,26.373572512499997,54.0,87.0
187,26.154822570833332,26.528402016666664,59.0,88.0
188,26.154822570833332,26.572436095833332,66.0,81.0
189,26.154822570833332,26.585220183333334,62.0,88.0
190,26.83664057083333,27.011356433333333,54.0,74.0
191,26.495731570833332,27.01703825,47.0,81.0
192,26.83664057083333,27.2940268125,59.0,82.0
193,26.83664057083333,27.312492716666664,62.0,87.0
194,27.17754957083333,27.389197241666665,47.0,77.0
195,27.51845857083333,27.667606258333333,47.0,76.0
196,27.51845857083333,27.703117612499998,54.0,83.0
197,27.51845857083333,27.704538066666665,62.0,88.0
198,27.51845857083333,27.718742608333333,66.0,82.0
199,27.51845857083333,27.732947149999998,59.0,89.0
200,27.85936757083333,27.992890262499998,47.0,84.0
201,28.20027657083333,28.670446899999998,43.0,82.0
202,28.20027657083333,28.674708262499998,55.0,81.0
203,28.54118557083333,28.678969625,50.0,79.0
204,28.20027657083333,28.68749235,59.0,79.0
205,28.88209457083333,29.048287708333334,43.0,88.0
206,28.88209457083333,29.06249225,50.0,84.0
207,28.88209457083333,29.169026312499998,55.0,83.0
208,28.88209457083333,29.178969491666667,59.0,81.0
209,28.88209457083333,29.242889929166665,62.0,86.0
210,29.22300357083333,29.382094437499997,43.0,86.0
211,29.56391257083333,29.987207912499997,57.0,78.0
212,29.90482157083333,30.012776087499997,52.0,80.0
213,29.56391257083333,30.014196541666667,45.0,88.0
214,29.56391257083333,30.024139720833332,61.0,79.0
215,30.24573057083333,30.420446433333332,45.0,88.0
216,30.24573057083333,30.436071429166667,52.0,85.0
217,30.24573057083333,30.5667532125,57.0,84.0
218,30.24573057083333,30.588060024999997,61.0,88.0
219,30.58663957083333,30.731525895833332,45.0,88.0
220,30.92754857083333,31.41476435,47.0,89.0
221,31.26845757083333,31.416184804166665,54.0,76.0
222,30.92754857083333,31.424707529166664,62.0,83.0
223,30.92754857083333,31.4275484375,59.0,79.0
224,31.60936657083333,31.769877891666667,47.0,81.0
225,31.60936657083333,31.78408243333333,54.0,81.0
226,31.95027557083333,32.15766187916667,47.0,77.0
227,31.60936657083333,32.17186642083333,62.0,87.0
228,31.60936657083333,32.174707329166665,59.0,86.0
229,31.60936657083333,32.21732095416667,66.0,80.0
230,32.29118457083333,32.775559441666665,59.0,84.0
231,32.29118457083333,32.78124125833333,62.0,84.0
232,32.632093570833334,33.00283210833333,54.0,66.0
233,32.29118457083333,33.07385481666667,47.0,84.0
234,32.97300257083333,33.3409002,62.0,93.0
235,32.97300257083333,33.355104741666665,66.0,93.0
236,32.97300257083333,33.384934279166664,59.0,90.0
237,33.31391157083333,33.468741075,47.0,84.0
238,33.65482057083333,34.098002270833334,59.0,84.0
239,33.99572957083333,34.12357044583333,50.0,84.0
240,33.65482057083333,34.13209317083333,43.0,88.0
241,33.65482057083333,34.13493407916666,55.0,85.0
242,34.33663857083333,34.50283170833333,55.0,89.0
243,34.33663857083333,34.56959305416667,43.0,88.0
244,34.33663857083333,34.5894794125,50.0,89.0
245,34.33663857083333,34.78834299583333,59.0,90.0
246,34.33663857083333,34.8068089,62.0,91.0
247,34.67754757083333,34.8366384375,55.0,90.0
248,34.67754757083333,34.85794525,43.0,76.0
249,35.01845657083333,35.224422425,57.0,82.0
250,35.01845657083333,35.392036016666665,61.0,84.0
251,35.35936557083333,35.524138254166665,57.0,82.0
252,35.35936557083333,35.55112688333333,52.0,83.0
253,35.01845657083333,35.57243369583333,45.0,88.0
254,35.70027457083333,35.869308616666665,45.0,89.0
255,35.70027457083333,35.9658995,57.0,84.0
256,35.70027457083333,36.002831308333334,61.0,83.0
257,35.70027457083333,36.156240358333335,64.0,89.0
258,36.04118357083333,36.225842612499996,52.0,81.0
259,36.04118357083333,36.2428880625,45.0,78.0
260,36.38209257083333,36.541183437499996,57.0,82.0
261,36.38209257083333,36.806808366666665,62.0,88.0
262,36.38209257083333,36.8522629,50.0,83.0
263,36.72300157083333,36.90197879583333,57.0,87.0
264,37.06391057083333,37.218740075,57.0,84.0
265,37.06391057083333,37.22868325416667,50.0,92.0
266,37.06391057083333,37.52413772083333,66.0,84.0
267,37.06391057083333,37.5340809,62.0,88.0
268,37.40481957083333,37.6022627,57.0,88.0
269,37.74572857083333,37.95311487916666,47.0,88.0
270,38.08663757083333,38.251410254166665,47.0,73.0
271,37.74572857083333,38.32527387083333,62.0,83.0
272,37.74572857083333,38.333796595833334,59.0,85.0
273,37.74572857083333,38.34942159166666,66.0,81.0
274,38.42754657083333,38.5951601625,47.0,82.0
275,38.42754657083333,38.639194241666665,54.0,76.0
276,38.42754657083333,38.853682820833335,62.0,88.0
277,38.42754657083333,38.8593646375,66.0,85.0
278,38.76845557083333,38.90766007916667,47.0,90.0
279,38.42754657083333,38.90766007916667,59.0,88.0
280,39.10936457083333,39.315330425,43.0,89.0
281,39.10936457083333,39.55964854166667,62.0,84.0
282,39.45027357083333,39.57243262916666,50.0,74.0
283,39.10936457083333,39.59942125833333,55.0,86.0
284,39.79118257083333,39.90339845,50.0,89.0
285,39.79118257083333,39.9076598125,43.0,89.0
286,40.13209157083333,40.28550062083333,43.0,85.0
287,39.79118257083333,40.3337960625,55.0,84.0
288,39.79118257083333,40.33663697083333,59.0,82.0
289,39.79118257083333,40.35652332916666,62.0,84.0
290,40.473000570833335,40.678966425,43.0,88.0
291,40.81390957083333,40.90197772916667,43.0,77.0
292,40.81390957083333,40.910500454166666,50.0,84.0
293,40.473000570833335,40.96589816666666,59.0,83.0
294,40.473000570833335,40.99288679583333,62.0,85.0
295,40.473000570833335,40.99572770416667,55.0,83.0
296,41.154818570833335,41.30396625833333,43.0,89.0
297,41.154818570833335,41.460216216666666,55.0,93.0
298,41.154818570833335,41.50709120416666,62.0,91.0
299,41.49572757083333,41.59657981666666,50.0,88.0
300,41.49572757083333,41.622147991666665,43.0,89.0
301,41.836636570833335,42.01135243333333,45.0,89.0
302,41.836636570833335,42.09231832083333,57.0,89.0
303,41.836636570833335,42.09231832083333,61.0,88.0
304,42.17754557083333,42.25567055,61.0,75.0
305,42.17754557083333,42.332375075,64.0,89.0
306,42.518454570833335,42.63351135833333,52.0,90.0
307,42.518454570833335,42.640613629166666,45.0,89.0
308,42.518454570833335,42.7798181375,57.0,82.0
309,42.518454570833335,42.84942039166666,69.0,88.0
310,42.518454570833335,42.86788629583333,64.0,90.0
311,42.518454570833335,42.88777265416667,61.0,77.0
312,42.85936357083333,43.01987489166667,45.0,84.0
313,42.85936357083333,43.038340795833335,57.0,75.0
314,43.200272570833334,43.362204345833334,45.0,89.0
315,43.200272570833334,43.36930661666666,52.0,89.0
316,43.200272570833334,43.586636104166665,61.0,85.0
317,43.200272570833334,43.588056558333335,57.0,88.0
318,43.54118157083333,43.730101975,45.0,76.0
319,43.882090570833334,44.014192808333334,57.0,86.0
320,43.882090570833334,44.04686325416667,52.0,91.0
321,43.882090570833334,44.05112461666666,45.0,88.0
322,43.882090570833334,44.09799960416667,61.0,89.0
323,43.882090570833334,44.218738208333335,64.0,90.0
324,44.22299957083333,44.37214725833333,57.0,91.0
325,44.22299957083333,44.377829075,45.0,88.0
326,44.563908570833334,44.78976078333333,43.0,85.0
327,44.563908570833334,44.940328924999996,59.0,81.0
328,44.563908570833334,44.950272104166665,55.0,88.0
329,44.90481757083333,45.00566981666667,50.0,82.0
330,44.90481757083333,45.011351633333334,43.0,80.0
331,45.245726570833334,45.44601060833333,43.0,88.0
332,45.245726570833334,45.602260566666665,55.0,84.0
333,45.245726570833334,45.6860673625,62.0,85.0
334,45.58663557083333,45.70027190416666,43.0,71.0
335,45.58663557083333,45.73010144166666,50.0,82.0
336,45.927544570833334,46.10652179583333,45.0,88.0
337,46.26845357083333,46.3593626375,45.0,84.0
338,46.26845357083333,46.37072627083333,52.0,82.0
339,45.927544570833334,46.38351035833333,57.0,82.0
340,45.927544570833334,46.42612398333333,61.0,82.0
341,46.60936257083333,46.7343625375,52.0,89.0
342,46.60936257083333,46.744305716666666,45.0,88.0
343,46.60936257083333,46.751407987499995,57.0,88.0
344,46.60936257083333,46.85652159583333,61.0,93.0
345,46.60936257083333,47.046862454166664,64.0,92.0
346,46.95027157083333,47.07243062916667,57.0,89.0
347,46.95027157083333,47.105101075,45.0,86.0
348,47.29118057083333,47.50424869583333,47.0,87.0
349,47.29118057083333,47.7613509,59.0,87.0
350,47.63208957083333,47.791180437499996,47.0,80.0
351,47.29118057083333,47.8295327,62.0,87.0
352,47.97299857083333,48.12214625833333,47.0,83.0
353,47.97299857083333,48.18464624166666,54.0,86.0
354,47.97299857083333,48.463055258333334,59.0,88.0
355,48.31390757083333,48.472998437499996,47.0,83.0
356,47.97299857083333,48.48010070833333,66.0,85.0
357,47.97299857083333,48.502827974999995,62.0,88.0
358,48.65481657083333,49.13919144166667,47.0,88.0
359,48.65481657083333,49.14203235,59.0,85.0
360,48.99572557083333,49.14771416666667,54.0,72.0
361,48.65481657083333,49.16191870833333,62.0,85.0
362,48.65481657083333,49.201691425,66.0,84.0
363,49.33663457083333,49.5127708875,54.0,76.0
364,49.33663457083333,49.5340777,62.0,89.0
365,49.33663457083333,49.53975951666666,47.0,80.0
366,49.33663457083333,49.542600424999996,66.0,86.0
367,49.33663457083333,49.5639072375,59.0,89.0
368,49.67754357083333,49.846577616666664,47.0,80.0
369,50.01845257083333,50.1093616375,64.0,89.0
370,50.01845257083333,50.460213816666666,43.0,87.0
371,50.35936157083333,50.4758388125,50.0,83.0
372,50.01845257083333,50.48152062916667,62.0,82.0
373,50.01845257083333,50.518452437499995,55.0,85.0
374,50.70027057083333,50.98152049583333,55.0,84.0
375,50.70027057083333,50.98436140416666,59.0,85.0
376,50.70027057083333,51.049702295833335,62.0,90.0
377,50.70027057083333,51.12640682083333,43.0,88.0
378,51.04117957083333,51.19032725833333,50.0,79.0
379,51.38208857083333,51.6434521375,45.0,88.0
380,51.38208857083333,51.7883384625,57.0,88.0
381,51.38208857083333,51.830952087499995,61.0,88.0
382,51.72299757083333,51.87214525833333,45.0,73.0
383,51.72299757083333,51.877827075,52.0,78.0
384,52.06390657083333,52.21731562083333,45.0,88.0
385,52.06390657083333,52.23862243333333,52.0,86.0
386,52.06390657083333,52.26845197083333,57.0,86.0
387,52.06390657083333,52.2826565125,61.0,86.0
388,52.06390657083333,52.330951954166665,64.0,89.0
389,52.40481557083333,52.57953143333333,45.0,88.0
390,52.74572457083333,53.20026990416667,66.0,81.0
391,52.74572457083333,53.2031108125,59.0,84.0
392,52.74572457083333,53.208792629166666,62.0,84.0
393,52.74572457083333,53.217315354166665,47.0,87.0
394,53.08663357083333,53.26561079583333,54.0,80.0
395,53.42754257083333,53.562485716666664,47.0,83.0
396,53.42754257083333,53.60651979583333,54.0,79.0
397,53.42754257083333,53.77839475,59.0,89.0
398,53.42754257083333,53.8337924625,62.0,88.0
399,53.42754257083333,53.869303816666665,66.0,88.0
400,53.76845157083333,53.970156062499996,47.0,81.0
401,54.10936057083333,54.30538324583333,59.0,87.0
402,54.10936057083333,54.326690058333334,62.0,84.0
403,54.10936057083333,54.4815195625,66.0,88.0
404,54.10936057083333,54.579530899999995,47.0,84.0
405,54.45026957083333,54.61504225416667,59.0,83.0
406,54.45026957083333,54.63634906666667,64.0,87.0
407,54.45026957083333,54.6434513375,54.0,70.0
408,54.79117857083333,54.9928830625,47.0,79.0
409,54.79117857083333,55.06390577083333,54.0,85.0
410,54.79117857083333,55.19884891666666,59.0,88.0
411,55.132087570833335,55.28123525833333,47.0,89.0
412,54.79117857083333,55.338053425,62.0,89.0
413,55.47299657083333,55.906235091666666,43.0,88.0
414,55.47299657083333,55.924700995833334,62.0,86.0
415,55.813905570833334,55.93180326666666,50.0,80.0
416,55.47299657083333,55.95453053333333,55.0,82.0
417,56.15481457083333,56.3181668,50.0,83.0
418,56.15481457083333,56.326689525,43.0,88.0
419,56.15481457083333,56.41049632083333,55.0,87.0
420,56.15481457083333,56.44742812916667,59.0,87.0
421,56.15481457083333,56.5610644625,62.0,89.0
422,56.495723570833334,56.7144735125,43.0,84.0
423,56.83663257083333,57.24146200833333,57.0,80.0
424,56.83663257083333,57.28407563333333,61.0,82.0
425,56.83663257083333,57.3068029,45.0,88.0
426,57.177541570833334,57.33095062083333,52.0,80.0
427,57.51845057083333,57.66759825833333,45.0,88.0
428,57.51845057083333,57.68464370833333,52.0,88.0
429,57.51845057083333,57.78123459166667,61.0,84.0
430,57.51845057083333,57.85509820833333,57.0,83.0
431,57.51845057083333,57.951689091666665,64.0,90.0
432,57.859359570833334,58.062484516666665,45.0,87.0
433,58.20026857083333,58.54401847916667,66.0,81.0
434,58.20026857083333,58.56674574583333,59.0,81.0
435,58.20026857083333,58.6406093625,62.0,83.0
436,58.20026857083333,58.95026837083333,47.0,89.0
437,58.541177570833334,58.96731382083333,54.0,66.0
438,58.88208657083333,59.294018279166664,59.0,90.0
439,58.88208657083333,59.336631904166666,66.0,90.0
440,58.88208657083333,59.34231372083333,62.0,90.0
441,59.22299557083333,59.416177337499995,54.0,82.0
442,59.56390457083333,59.965893099999995,59.0,89.0
443,59.56390457083333,60.005665816666664,62.0,89.0
444,59.56390457083333,60.02413172083333,66.0,89.0
445,59.56390457083333,60.09231352083333,47.0,90.0
446,59.90481357083333,60.13776805416666,54.0,68.0
447,60.24572257083333,60.424699795833334,66.0,92.0
448,60.24572257083333,60.43322252083333,62.0,90.0
449,60.24572257083333,60.44174524583333,54.0,82.0
450,60.24572257083333,60.464472512499995,59.0,92.0
451,60.24572257083333,60.50992704583333,47.0,82.0
452,60.58663157083333,60.823847416666666,64.0,89.0
453,60.92754057083333,61.373563179166666,43.0,86.0
454,61.26844957083333,61.3764040875,50.0,85.0
455,60.92754057083333,61.40055180833333,55.0,80.0
456,60.92754057083333,61.463051791666665,62.0,83.0
457,61.60935857083333,61.740040354166666,50.0,89.0
458,61.60935857083333,61.75424489583333,43.0,88.0
459,61.95026757083333,62.093733441666664,43.0,87.0
460,61.60935857083333,62.450267437499996,59.0,88.0
461,61.60935857083333,62.458790162499994,55.0,89.0
462,61.60935857083333,62.4758356125,62.0,89.0
463,62.29117657083333,62.501403787499996,43.0,85.0
464,62.63208557083333,62.718733275,55.0,71.0
465,62.63208557083333,62.735778724999996,43.0,77.0
466,62.63208557083333,62.7613469,50.0,84.0
467,62.97299457083333,63.10793771666666,50.0,89.0
468,62.97299457083333,63.122142258333334,43.0,89.0
469,62.97299457083333,63.242880862499995,55.0,89.0
470,62.97299457083333,63.24856267916667,59.0,89.0
471,62.97299457083333,63.29259675833333,62.0,90.0
472,63.31390357083333,63.48719897916666,43.0,88.0
473,63.65481257083333,63.762767087499995,62.0,76.0
474,63.65481257083333,63.772710266666664,61.0,56.0
475,63.65481257083333,64.1121988125,45.0,90.0
476,63.99572157083333,64.14913062083333,52.0,84.0
477,63.65481257083333,64.16617607083333,57.0,81.0
478,64.33663057083334,64.44884644999999,52.0,90.0
479,64.33663057083334,64.47015326249999,45.0,89.0
480,64.33663057083334,64.8025395375,57.0,89.0
481,64.33663057083334,64.80964180833332,61.0,91.0
482,64.67753957083333,64.81674407916667,45.0,87.0
483,64.33663057083334,64.8451531625,64.0,91.0
484,65.01844857083333,66.15623235833333,61.0,89.0
485,65.01844857083333,66.1576528125,57.0,89.0
486,65.01844857083333,66.19316416666666,64.0,91.0
487,65.01844857083333,66.2087891625,69.0,85.0
488,66.38208457083333,66.71873220833334,62.0,89.0
489,66.38208457083333,66.72867538749999,55.0,85.0
490,66.38208457083333,66.83378899583333,43.0,88.0
491,66.72299357083332,66.85509580833333,50.0,84.0
492,67.06390257083333,67.17469799583333,43.0,88.0
493,67.06390257083333,67.17469799583333,50.0,89.0
494,67.06390257083333,67.33947067916667,55.0,85.0
495,67.06390257083333,67.40055020833333,62.0,86.0
496,67.40481157083333,67.48577745833333,50.0,79.0
497,67.40481157083333,67.53123199166666,43.0,87.0
498,67.74572057083333,67.94458415416666,45.0,88.0
499,68.08662957083332,68.17185682083333,45.0,81.0
500,68.08662957083332,68.173277275,52.0,83.0
501,67.74572057083333,68.21589089999999,57.0,84.0
502,67.74572057083333,68.24287952916666,61.0,88.0
503,68.42753857083333,68.52981127083333,52.0,88.0
504,68.42753857083333,68.54685672083333,45.0,88.0
505,68.42753857083333,68.81106119583333,57.0,88.0
506,68.42753857083333,68.81106119583333,61.0,87.0
507,68.76844757083333,68.90481117083333,45.0,82.0
508,69.10935657083333,69.31248151666667,62.0,83.0
509,69.10935657083333,69.41901557916667,59.0,84.0
510,69.10935657083333,69.58236780833333,47.0,88.0
511,69.45026557083332,69.5923109875,54.0,73.0
512,69.79117457083333,69.93606089583334,47.0,81.0
513,69.79117457083333,69.94032225833332,54.0,81.0
514,69.79117457083333,70.21020854999999,59.0,88.0
515,69.79117457083333,70.25140172083333,62.0,87.0
516,69.79117457083333,70.29827670833333,66.0,83.0
517,70.13208357083333,70.34799260416666,47.0,84.0
518,70.47299257083333,70.61787889583333,62.0,84.0
519,70.47299257083333,70.69884478333333,54.0,84.0
520,70.47299257083333,70.70168569166667,59.0,74.0
521,70.47299257083333,70.71020841666666,47.0,81.0
522,70.81390157083334,70.98861743333333,47.0,83.0
523,70.81390157083334,71.002821975,61.0,89.0
524,71.15481057083333,71.31958325416666,54.0,76.0
525,71.15481057083333,71.34657188333333,47.0,82.0
526,71.49571957083333,71.633503625,47.0,84.0
527,71.15481057083333,71.69884451666667,62.0,90.0
528,71.83662857083333,71.98293534999999,43.0,87.0
529,72.17753757083334,72.3195829875,43.0,83.0
530,71.83662857083333,72.35083297916667,59.0,85.0
531,71.83662857083333,72.35225343333333,55.0,84.0
532,72.51844657083333,72.6093556375,50.0,83.0
533,72.51844657083333,72.65054880833333,43.0,85.0
534,72.51844657083333,72.83804875833333,55.0,85.0
535,72.51844657083333,72.89912828749999,59.0,88.0
536,72.51844657083333,72.90481010416666,62.0,90.0
537,72.85935557083333,72.997139625,43.0,84.0
538,73.20026457083333,73.3508327125,45.0,88.0
539,73.54117357083334,73.65907126666666,52.0,76.0
540,73.54117357083334,73.68179853333334,45.0,84.0
541,73.20026457083333,73.71020761666666,57.0,84.0
542,73.20026457083333,73.74855987916666,61.0,85.0
543,73.88208257083333,73.99571890416667,52.0,88.0
544,73.88208257083333,74.01418480833333,45.0,88.0
545,73.88208257083333,74.19742339583333,61.0,84.0
546,73.88208257083333,74.23435520416666,57.0,84.0
547,74.22299157083333,74.35083244583333,45.0,87.0
548,73.88208257083333,74.37924152916666,64.0,92.0
549,74.56390057083333,74.97299137083333,59.0,81.0
550,74.56390057083333,75.0212868125,62.0,83.0
551,74.56390057083333,75.03691180833333,47.0,89.0
552,74.90480957083334,75.0553777125,54.0,75.0
553,75.24571857083333,75.38350262499999,47.0,80.0
554,75.24571857083333,75.400548075,54.0,76.0
555,75.24571857083333,75.46446851249999,59.0,86.0
556,75.24571857083333,75.48719577916667,62.0,86.0
557,75.24571857083333,75.54827530833333,66.0,87.0
558,75.58662757083333,75.73577525833333,54.0,70.0
559,75.58662757083333,75.75708207083333,47.0,77.0
560,75.92753657083333,76.07242289583333,54.0,83.0
561,75.92753657083333,76.082366075,47.0,88.0
562,76.26844557083334,76.47725233333333,47.0,88.0
563,76.60935457083333,76.76844543749999,47.0,88.0
564,76.60935457083333,76.78407043333333,54.0,90.0
565,76.60935457083333,76.93605902916666,62.0,89.0
566,76.60935457083333,76.97014992916667,59.0,88.0
567,76.95026357083333,77.088047625,47.0,85.0
568,77.63208157083334,77.72014972916666,50.0,82.0
569,77.29117257083333,77.73861563333332,43.0,89.0
570,77.29117257083333,77.82384288333333,55.0,81.0
571,77.29117257083333,77.84088833333333,59.0,81.0
572,77.97299057083333,78.07384281666667,50.0,79.0
573,77.97299057083333,78.1022519,43.0,76.0
574,77.97299057083333,78.37497909999999,55.0,80.0
575,78.31389957083333,78.47156998333332,43.0,83.0
576,77.97299057083333,78.4815131625,59.0,82.0
577,78.65480857083332,78.86645624166667,45.0,84.0
578,78.99571757083334,79.06674027916667,45.0,72.0
579,78.99571757083334,79.08094482083332,52.0,81.0
580,79.33662657083333,79.45452426666667,45.0,87.0
581,79.33662657083333,79.45452426666667,52.0,88.0
582,78.65480857083332,79.5212856125,57.0,78.0
583,78.65480857083332,79.54969469583332,61.0,78.0
584,79.67753557083333,79.815319625,45.0,85.0
585,80.01844457083332,80.52838761666666,47.0,88.0
586,80.01844457083332,80.53548988749999,62.0,80.0
587,80.01844457083332,80.53833079583333,59.0,78.0
588,80.35935357083333,80.54117170416666,54.0,72.0
589,80.70026257083333,80.86503525416666,47.0,84.0
590,80.70026257083333,80.9190125125,54.0,87.0
591,80.70026257083333,81.07384201666666,59.0,88.0
592,80.70026257083333,81.11787609583332,66.0,81.0
593,80.70026257083333,81.13066018333333,62.0,88.0
594,81.38208057083332,81.55679643333333,54.0,74.0
595,81.04117157083333,81.56247825,47.0,81.0
596,81.38208057083332,81.83946681249999,59.0,82.0
597,81.38208057083332,81.85793271666667,62.0,87.0
598,81.72298957083333,81.93463724166666,47.0,77.0
599,82.06389857083333,82.21304625833334,47.0,76.0
600,82.06389857083333,82.2485576125,54.0,83.0
601,82.06389857083333,82.24997806666666,62.0,88.0
602,82.06389857083333,82.26418260833333,66.0,82.0
603,82.06389857083333,82.27838715,59.0,89.0
604,82.40480757083333,82.5383302625,47.0,84.0
605,82.74571657083332,83.2158869,43.0,82.0
606,82.74571657083332,83.22014826249999,55.0,81.0
607,83.08662557083333,83.22440962499999,50.0,79.0
608,82.74571657083332,83.23293235,59.0,79.0
609,83.42753457083333,83.59372770833333,43.0,88.0
610,83.42753457083333,83.60793224999999,50.0,84.0
611,83.42753457083333,83.7144663125,55.0,83.0
612,83.42753457083333,83.72440949166666,59.0,81.0
613,83.42753457083333,83.78832992916666,62.0,86.0
614,83.76844357083333,83.9275344375,43.0,86.0
615,84.10935257083332,84.5326479125,57.0,78.0
616,84.45026157083333,84.5582160875,52.0,80.0
617,84.10935257083332,84.55963654166666,45.0,88.0
618,84.10935257083332,84.56957972083333,61.0,79.0
619,84.79117057083333,84.96588643333332,45.0,88.0
620,84.79117057083333,84.98151142916666,52.0,85.0
621,84.79117057083333,85.1121932125,57.0,84.0
622,84.79117057083333,85.133500025,61.0,88.0
623,85.13207957083333,85.27696589583333,45.0,88.0
624,85.47298857083334,85.96020435,47.0,89.0
625,85.81389757083333,85.96162480416666,54.0,76.0
626,85.47298857083334,85.97014752916667,62.0,83.0
627,85.47298857083334,85.97298843749999,59.0,79.0
628,86.15480657083333,86.31531789166667,47.0,81.0
629,86.15480657083333,86.32952243333332,54.0,81.0
630,86.49571557083333,86.70310187916667,47.0,77.0
631,86.15480657083333,86.71730642083332,62.0,87.0
632,86.15480657083333,86.72014732916666,59.0,86.0
633,86.15480657083333,86.76276095416667,66.0,80.0
634,86.83662457083334,87.32099944166666,59.0,84.0
635,86.83662457083334,87.32668125833332,62.0,84.0
636,87.17753357083333,87.54827210833334,54.0,66.0
637,86.83662457083334,87.61929481666667,47.0,84.0
638,87.51844257083333,87.88634019999999,62.0,93.0
639,87.51844257083333,87.90054474166666,66.0,93.0
640,87.51844257083333,87.93037427916666,59.0,90.0
641,87.85935157083333,88.014181075,47.0,84.0
642,88.20026057083334,88.64344227083333,59.0,84.0
643,88.54116957083333,88.66901044583334,50.0,84.0
644,88.20026057083334,88.67753317083333,43.0,88.0
645,88.20026057083334,88.68037407916667,55.0,85.0
646,88.88207857083333,89.04827170833333,55.0,89.0
647,88.88207857083333,89.11503305416666,43.0,88.0
648,88.88207857083333,89.1349194125,50.0,89.0
649,88.88207857083333,89.33378299583333,59.0,90.0
650,88.88207857083333,89.35224889999999,62.0,91.0
651,89.22298757083333,89.3820784375,55.0,90.0
652,89.22298757083333,89.40338525,43.0,76.0
653,89.56389657083334,89.769862425,57.0,82.0
654,89.56389657083334,89.93747601666666,61.0,84.0
655,89.90480557083333,90.06957825416666,57.0,82.0
656,89.90480557083333,90.09656688333332,52.0,83.0
657,89.56389657083334,90.11787369583332,45.0,88.0
658,90.24571457083333,90.41474861666666,45.0,89.0
659,90.24571457083333,90.51133949999999,57.0,84.0
660,90.24571457083333,90.54827130833333,61.0,83.0
661,90.24571457083333,90.70168035833333,64.0,89.0
662,90.58662357083332,90.7712826125,52.0,81.0
663,90.58662357083332,90.7883280625,45.0,78.0
664,90.92753257083334,91.0866234375,57.0,82.0
665,90.92753257083334,91.35224836666666,62.0,88.0
666,90.92753257083334,91.3977029,50.0,83.0
667,91.26844157083333,91.44741879583333,57.0,87.0
668,91.60935057083333,91.764180075,57.0,84.0
669,91.60935057083333,91.77412325416667,50.0,92.0
670,91.60935057083333,92.06957772083332,66.0,84.0
671,91.60935057083333,92.07952089999999,62.0,88.0
672,91.95025957083332,92.1477027,57.0,88.0
673,92.29116857083334,92.49855487916666,47.0,88.0
674,92.63207757083333,92.79685025416666,47.0,73.0
675,92.29116857083334,92.87071387083333,62.0,83.0
676,92.29116857083334,92.87923659583333,59.0,85.0
677,92.29116857083334,92.89486159166667,66.0,81.0
678,92.97298657083333,93.1406001625,47.0,82.0
679,92.97298657083333,93.18463424166666,54.0,76.0
680,92.97298657083333,93.39912282083333,62.0,88.0
681,92.97298657083333,93.40480463749999,66.0,85.0
682,93.31389557083332,93.45310007916666,47.0,90.0
683,92.97298657083333,93.45310007916666,59.0,88.0
684,93.65480457083333,93.860770425,43.0,89.0
685,93.65480457083333,94.10508854166666,62.0,84.0
686,93.99571357083333,94.11787262916667,50.0,74.0
687,93.65480457083333,94.14486125833334,55.0,86.0
688,94.33662257083333,94.44883845,50.0,89.0
689,94.33662257083333,94.4530998125,43.0,89.0
690,94.67753157083332,94.83094062083333,43.0,85.0
691,94.33662257083333,94.8792360625,55.0,84.0
692,94.33662257083333,94.88207697083332,59.0,82.0
693,94.33662257083333,94.90196332916666,62.0,84.0
694,95.01844057083333,95.224406425,43.0,88.0
695,95.35934957083333,95.44741772916666,43.0,77.0
696,95.35934957083333,95.45594045416667,50.0,84.0
697,95.01844057083333,95.51133816666666,59.0,83.0
698,95.01844057083333,95.53832679583333,62.0,85.0
699,95.01844057083333,95.54116770416667,55.0,83.0
700,95.70025857083333,95.84940625833333,43.0,89.0
701,95.70025857083333,96.00565621666667,55.0,93.0
702,95.70025857083333,96.05253120416667,62.0,91.0
703,96.04116757083332,96.14201981666666,50.0,88.0
704,96.04116757083332,96.16758799166666,43.0,89.0
705,96.38207657083333,96.55679243333333,45.0,89.0
706,96.38207657083333,96.63775832083333,57.0,89.0
707,96.38207657083333,96.63775832083333,61.0,88.0
708,96.72298557083333,96.80111054999999,61.0,75.0
709,96.72298557083333,96.877815075,64.0,89.0
710,97.06389457083333,97.17895135833334,52.0,90.0
711,97.06389457083333,97.18605362916666,45.0,89.0
712,97.06389457083333,97.3252581375,57.0,82.0
713,97.06389457083333,97.39486039166667,69.0,88.0
714,97.06389457083333,97.41332629583333,64.0,90.0
715,97.06389457083333,97.43321265416667,61.0,77.0
716,97.40480357083332,97.56531489166666,45.0,84.0
717,97.40480357083332,97.58378079583333,57.0,75.0
718,97.74571257083333,97.90764434583333,45.0,89.0
719,97.74571257083333,97.91474661666666,52.0,89.0
720,97.74571257083333,98.13207610416666,61.0,85.0
721,97.74571257083333,98.13349655833333,57.0,88.0
722,98.08662157083333,98.275541975,45.0,76.0
723,98.42753057083333,98.55963280833333,57.0,86.0
724,98.42753057083333,98.59230325416667,52.0,91.0
725,98.42753057083333,98.59656461666667,45.0,88.0
726,98.42753057083333,98.64343960416666,61.0,89.0
727,98.42753057083333,98.76417820833333,64.0,90.0
728,98.76843957083332,98.91758725833333,57.0,91.0
729,98.76843957083332,98.923269075,45.0,88.0
730,99.10934857083333,99.33520078333333,43.0,85.0
731,99.10934857083333,99.485768925,59.0,81.0
732,99.10934857083333,99.49571210416666,55.0,88.0
733,99.45025757083333,99.55110981666667,50.0,82.0
734,99.45025757083333,99.55679163333333,43.0,80.0
735,99.79116657083333,99.99145060833332,43.0,88.0
736,99.79116657083333,100.14770056666666,55.0,84.0
737,99.79116657083333,100.2315073625,62.0,85.0
738,100.13207557083332,100.24571190416667,43.0,71.0
739,100.13207557083332,100.27554144166666,50.0,82.0
740,100.47298457083333,100.65196179583333,45.0,88.0
741,100.81389357083333,100.9048026375,45.0,84.0
742,100.81389357083333,100.91616627083333,52.0,82.0
743,100.47298457083333,100.92895035833332,57.0,82.0
744,100.47298457083333,100.97156398333333,61.0,82.0
745,101.15480257083333,101.27980253749999,52.0,89.0
746,101.15480257083333,101.28974571666666,45.0,88.0
747,101.15480257083333,101.2968479875,57.0,88.0
748,101.15480257083333,101.40196159583333,61.0,93.0
749,101.15480257083333,101.59230245416666,64.0,92.0
750,101.49571157083334,101.61787062916666,57.0,89.0
751,101.49571157083334,101.65054107499999,45.0,86.0
752,101.83662057083333,102.04968869583332,47.0,87.0
753,101.83662057083333,102.3067909,59.0,87.0
754,102.17752957083333,102.3366204375,47.0,80.0
755,101.83662057083333,102.3749727,62.0,87.0
756,102.51843857083333,102.66758625833333,47.0,83.0
757,102.51843857083333,102.73008624166667,54.0,86.0
758,102.51843857083333,103.00849525833333,59.0,88.0
759,102.85934757083334,103.0184384375,47.0,83.0
760,102.51843857083333,103.02554070833332,66.0,85.0
761,102.51843857083333,103.048267975,62.0,88.0
762,103.20025657083333,103.68463144166667,47.0,88.0
763,103.20025657083333,103.68747235,59.0,85.0
764,103.54116557083333,103.69315416666666,54.0,72.0
765,103.20025657083333,103.70735870833333,62.0,85.0
766,103.20025657083333,103.74713142499999,66.0,84.0
767,103.88207457083332,104.0582108875,54.0,76.0
768,103.88207457083332,104.0795177,62.0,89.0
769,103.88207457083332,104.08519951666666,47.0,80.0
770,103.88207457083332,104.088040425,66.0,86.0
771,103.88207457083332,104.10934723749999,59.0,89.0
772,104.22298357083334,104.39201761666666,47.0,80.0
773,104.56389257083333,104.6548016375,64.0,89.0
774,104.56389257083333,105.00565381666667,43.0,87.0
775,104.90480157083333,105.0212788125,50.0,83.0
776,104.56389257083333,105.02696062916667,62.0,82.0
777,104.56389257083333,105.0638924375,55.0,85.0
778,105.24571057083332,105.52696049583334,55.0,84.0
779,105.24571057083332,105.52980140416666,59.0,85.0
780,105.24571057083332,105.59514229583333,62.0,90.0
781,105.24571057083332,105.67184682083332,43.0,88.0
782,105.58661957083334,105.73576725833333,50.0,79.0
783,105.92752857083333,106.18889213749999,45.0,88.0
784,105.92752857083333,106.33377846249999,57.0,88.0
785,105.92752857083333,106.3763920875,61.0,88.0
786,106.26843757083333,106.41758525833333,45.0,73.0
787,106.26843757083333,106.423267075,52.0,78.0
788,106.60934657083332,106.76275562083333,45.0,88.0
789,106.60934657083332,106.78406243333333,52.0,86.0
790,106.60934657083332,106.81389197083332,57.0,86.0
791,106.60934657083332,106.8280965125,61.0,86.0
792,106.60934657083332,106.87639195416666,64.0,89.0
793,106.95025557083333,107.12497143333333,45.0,88.0
794,107.29116457083333,107.74570990416666,66.0,81.0
795,107.29116457083333,107.7485508125,59.0,84.0
796,107.29116457083333,107.75423262916667,62.0,84.0
797,107.29116457083333,107.76275535416666,47.0,87.0
798,107.63207357083333,107.81105079583332,54.0,80.0
799,107.97298257083332,108.10792571666666,47.0,83.0
800,107.97298257083332,108.15195979583333,54.0,79.0
801,107.97298257083332,108.32383474999999,59.0,89.0
802,107.97298257083332,108.3792324625,62.0,88.0
803,107.97298257083332,108.41474381666666,66.0,88.0
804,108.31389157083333,108.5155960625,47.0,81.0
805,108.65480057083333,108.85082324583333,59.0,87.0
806,108.65480057083333,108.87213005833333,62.0,84.0
807,108.65480057083333,109.0269595625,66.0,88.0
808,108.65480057083333,109.1249709,47.0,84.0
809,108.99570957083333,109.16048225416667,59.0,83.0
810,108.99570957083333,109.18178906666667,64.0,87.0
811,108.99570957083333,109.1888913375,54.0,70.0
812,109.33661857083332,109.5383230625,47.0,79.0
813,109.33661857083332,109.60934577083333,54.0,85.0
814,109.33661857083332,109.74428891666666,59.0,88.0
815,109.67752757083333,109.82667525833332,47.0,89.0
816,109.33661857083332,109.883493425,62.0,89.0
817,110.01843657083333,110.45167509166666,43.0,88.0
818,110.01843657083333,110.47014099583333,62.0,86.0
819,110.35934557083333,110.47724326666666,50.0,80.0
820,110.01843657083333,110.49997053333333,55.0,82.0
821,110.70025457083332,110.8636068,50.0,83.0
822,110.70025457083332,110.87212952499999,43.0,88.0
823,110.70025457083332,110.95593632083333,55.0,87.0
824,110.70025457083332,110.99286812916667,59.0,87.0
825,110.70025457083332,111.1065044625,62.0,89.0
826,111.04116357083333,111.25991351249999,43.0,84.0
827,111.38207257083333,111.78690200833333,57.0,80.0
828,111.38207257083333,111.82951563333333,61.0,82.0
829,111.38207257083333,111.8522429,45.0,88.0
830,111.72298157083333,111.87639062083333,52.0,80.0
831,112.06389057083332,112.21303825833333,45.0,88.0
832,112.06389057083332,112.23008370833332,52.0,88.0
833,112.06389057083332,112.32667459166666,61.0,84.0
834,112.06389057083332,112.40053820833333,57.0,83.0
835,112.06389057083332,112.49712909166666,64.0,90.0
836,112.40479957083333,112.60792451666666,45.0,87.0
837,112.74570857083333,113.08945847916667,66.0,81.0
838,112.74570857083333,113.11218574583333,59.0,81.0
839,112.74570857083333,113.1860493625,62.0,83.0
840,112.74570857083333,113.49570837083333,47.0,89.0
841,113.08661757083333,113.51275382083332,54.0,66.0
842,113.42752657083332,113.83945827916666,59.0,90.0
843,113.42752657083332,113.88207190416666,66.0,90.0
844,113.42752657083332,113.88775372083333,62.0,90.0
845,113.76843557083333,113.9616173375,54.0,82.0
846,114.10934457083333,114.5113331,59.0,89.0
847,114.10934457083333,114.55110581666666,62.0,89.0
848,114.10934457083333,114.56957172083332,66.0,89.0
849,114.10934457083333,114.63775352083333,47.0,90.0
850,114.45025357083333,114.68320805416666,54.0,68.0
851,114.79116257083332,114.97013979583333,66.0,92.0
852,114.79116257083332,114.97866252083332,62.0,90.0
853,114.79116257083332,114.98718524583333,54.0,82.0
854,114.79116257083332,115.0099125125,59.0,92.0
855,114.79116257083332,115.05536704583334,47.0,82.0
856,115.13207157083333,115.36928741666667,64.0,89.0
857,115.47298057083333,115.91900317916667,43.0,86.0
858,115.81388957083333,115.92184408749999,50.0,85.0
859,115.47298057083333,115.94599180833333,55.0,80.0
860,115.47298057083333,116.00849179166666,62.0,83.0
861,116.15479857083334,116.28548035416667,50.0,89.0
862,116.15479857083334,116.29968489583332,43.0,88.0
863,116.49570757083333,116.63917344166666,43.0,87.0
864,116.15479857083334,116.9957074375,59.0,88.0
865,116.15479857083334,117.0042301625,55.0,89.0
866,116.15479857083334,117.02127561249999,62.0,89.0
867,116.83661657083333,117.0468437875,43.0,85.0
868,117.17752557083332,117.26417327499999,55.0,71.0
869,117.17752557083332,117.281218725,43.0,77.0
870,117.17752557083332,117.30678689999999,50.0,84.0
871,117.51843457083334,117.65337771666667,50.0,89.0
872,117.51843457083334,117.66758225833333,43.0,89.0
873,117.51843457083334,117.7883208625,55.0,89.0
874,117.51843457083334,117.79400267916667,59.0,89.0
875,117.51843457083334,117.83803675833333,62.0,90.0
876,117.85934357083333,118.03263897916666,43.0,88.0
877,118.20025257083333,118.3082070875,62.0,76.0
878,118.20025257083333,118.31815026666666,61.0,56.0
879,118.20025257083333,118.6576388125,45.0,90.0
880,118.54116157083332,118.69457062083333,52.0,84.0
881,118.20025257083333,118.71161607083333,57.0,81.0
882,118.88207057083333,118.99428644999999,52.0,90.0
883,118.88207057083333,119.01559326249999,45.0,89.0
884,118.88207057083333,119.3479795375,57.0,89.0
885,118.88207057083333,119.35508180833332,61.0,91.0
886,119.22297957083333,119.36218407916667,45.0,87.0
887,118.88207057083333,119.3905931625,64.0,91.0
888,119.56388857083333,119.75849079166666,45.0,89.0
889,119.90479757083332,120.03689980833333,45.0,87.0
890,119.90479757083332,120.04826344166666,52.0,82.0
891,119.56388857083333,120.06672934583332,69.0,89.0
892,119.56388857083333,120.0681498,64.0,89.0
893,119.56388857083333,120.07667252499999,61.0,77.0
894,119.56388857083333,120.10082024583333,57.0,85.0
895,120.24570657083333,120.3707065375,52.0,89.0
896,120.24570657083333,120.37780880833333,45.0,89.0
897,120.24570657083333,120.588036025,57.0,88.0
898,120.24570657083333,120.59087693333333,61.0,86.0
899,120.58661557083333,120.70025190416666,45.0,90.0
900,120.92752457083333,121.17752450416666,40.0,93.0
901,121.26843357083332,121.34371764166666,40.0,77.0
902,121.26843357083332,121.35366082083333,47.0,89.0
903,120.92752457083333,121.3849108125,64.0,82.0
904,120.92752457083333,121.39911535416667,59.0,86.0
905,121.60934257083333,121.70167209166667,47.0,94.0
906,121.60934257083333,121.70451299999999,40.0,89.0
907,121.60934257083333,122.05962654166666,59.0,88.0
908,121.95025157083333,122.07241062916667,40.0,85.0
909,121.60934257083333,122.08945607916667,64.0,90.0
910,122.29116057083333,122.48576279166666,40.0,90.0
911,122.29116057083333,122.49996733333333,59.0,88.0
912,122.63206957083332,122.76275135416667,40.0,88.0
913,122.29116057083333,122.76843317083333,64.0,89.0
914,122.29116057083333,122.77553544166666,68.0,87.0
915,122.63206957083332,122.8167286125,59.0,88.0
916,122.97297857083333,123.10081944583332,40.0,89.0
917,122.97297857083333,123.10792171666667,59.0,90.0
918,122.97297857083333,123.18036487916666,64.0,93.0
919,122.97297857083333,123.32951256666666,68.0,92.0
920,123.31388757083333,123.36786482916666,64.0,52.0
921,123.31388757083333,123.41189890833333,40.0,89.0
922,123.31388757083333,123.44172844583333,59.0,89.0
923,123.65479657083333,123.81530789166666,43.0,89.0
924,123.65479657083333,123.94598967499999,58.0,84.0
925,123.65479657083333,123.96019421666666,55.0,81.0
926,123.99570557083332,124.09371690833333,50.0,88.0
927,123.99570557083332,124.11786462916666,43.0,84.0
928,124.33661457083333,124.43462590833333,50.0,89.0
929,124.33661457083333,124.45167135833333,43.0,88.0
930,124.33661457083333,124.49286452916667,55.0,87.0
931,124.33661457083333,124.76275082083333,58.0,86.0
932,124.67752357083333,124.81246671666666,43.0,86.0
933,124.33661457083333,124.85508034166666,62.0,88.0
934,124.67752357083333,124.9133189625,55.0,89.0
935,125.01843257083333,126.14627317916666,43.0,89.0
936,125.01843257083333,126.247125425,55.0,81.0
937,125.01843257083333,126.26701178333333,58.0,90.0
938,125.01843257083333,126.29968222916666,67.0,85.0
939,125.01843257083333,126.30962540833333,62.0,92.0
940,126.38206857083333,126.76132983333333,57.0,81.0
941,126.38206857083333,126.82525027083332,62.0,81.0
942,126.38206857083333,126.87212525833333,66.0,77.0
943,127.06388657083333,127.21303425833332,57.0,88.0
944,127.06388657083333,127.45167055833333,62.0,88.0
945,127.40479557083333,127.46871600833333,57.0,60.0
946,126.72297757083332,127.87496589999999,45.0,71.0
947,127.74570457083333,127.8877499875,57.0,84.0
948,127.74570457083333,127.91473861666667,62.0,89.0
949,126.38206857083333,127.92610225,38.0,89.0
950,127.74570457083333,128.15763627916667,66.0,89.0
951,128.08661357083332,128.21871580833331,57.0,82.0
952,128.08661357083332,128.25138625416668,38.0,88.0
953,128.42752257083333,128.522693,38.0,91.0
954,128.42752257083333,128.54542026666667,57.0,84.0
955,128.42752257083333,128.5780907125,62.0,87.0
956,128.42752257083333,128.6888861375,66.0,82.0
957,128.76843157083331,128.8678633625,57.0,68.0
958,129.10934057083333,129.25564735,43.0,88.0
959,129.45024957083334,129.53121545833332,43.0,70.0
960,129.10934057083333,129.724397225,58.0,74.0
961,129.10934057083333,129.74286312916666,62.0,78.0
962,129.10934057083333,129.74428358333333,55.0,78.0
963,129.79115857083332,129.90337445,50.0,86.0
964,129.79115857083332,129.90621535833333,43.0,88.0
965,129.79115857083332,130.0099085125,55.0,85.0
966,129.79115857083332,130.12212439166666,58.0,82.0
967,129.79115857083332,130.20166982499998,62.0,85.0
968,130.13206757083333,130.21019255,43.0,62.0
969,130.47297657083334,130.678942425,67.0,81.0
970,130.47297657083334,130.68604469583332,43.0,86.0
971,130.47297657083334,130.70877196249998,55.0,87.0
972,130.81388557083332,130.968715075,43.0,54.0
973,130.81388557083332,130.968715075,50.0,75.0
974,131.15479457083333,131.2457036375,50.0,84.0
975,131.15479457083333,131.27695362916666,43.0,80.0
976,131.15479457083333,131.33377179583331,55.0,85.0
977,131.15479457083333,131.33803315833333,58.0,77.0
978,131.15479457083333,131.39201041666666,62.0,87.0
979,131.83661257083332,132.10081704583334,38.0,89.0
980,131.83661257083332,132.2769533625,66.0,83.0
981,131.83661257083332,132.3749647,62.0,82.0
982,132.17752157083333,132.41615787083333,57.0,77.0
983,132.51843057083332,132.59371464166665,38.0,83.0
984,132.51843057083332,132.62638508749998,45.0,79.0
985,132.51843057083332,132.71019188333332,57.0,79.0
986,132.51843057083332,132.89769183333334,62.0,83.0
987,132.85933957083333,132.92894182499998,38.0,65.0
988,133.20024857083334,133.42041896666666,38.0,89.0
989,133.20024857083334,133.47581667916666,57.0,74.0
990,133.54115757083332,133.64769163333332,38.0,76.0
991,133.20024857083334,133.67752117083333,66.0,76.0
992,133.20024857083334,133.70166889166666,62.0,83.0
993,133.88206657083333,134.00564608333332,38.0,89.0
994,133.88206657083333,134.05678243333332,57.0,82.0
995,133.88206657083333,134.20877102916666,62.0,87.0
996,133.88206657083333,134.23860056666666,66.0,82.0
997,134.22297557083334,134.29399827916666,57.0,80.0
998,134.22297557083334,134.31104372916667,38.0,85.0
999,134.56388457083332,134.73291861666667,43.0,87.0
1000,134.90479357083333,134.98007764166667,50.0,74.0
1001,134.56388457083332,135.07950943333333,62.0,71.0
1002,134.56388457083332,135.1320662375,55.0,78.0
1003,135.24570257083332,135.3366116375,50.0,82.0
1004,135.24570257083332,135.35791845,43.0,83.0
1005,135.24570257083332,135.47155478333332,58.0,75.0
1006,135.24570257083332,135.71445244583333,62.0,84.0
1007,135.58661157083333,136.01132736666665,55.0,79.0
1008,135.92752057083334,136.07950916666667,43.0,87.0
1009,135.92752057083334,136.320986375,67.0,85.0
1010,135.92752057083334,136.32808864583333,58.0,75.0
1011,136.26842957083332,136.3593386375,50.0,78.0
1012,136.26842957083332,136.37354317916666,43.0,78.0
1013,135.92752057083334,136.38206590416667,62.0,84.0
1014,136.60933857083333,136.7513839875,50.0,90.0
1015,136.60933857083333,136.7684294375,43.0,88.0
1016,136.60933857083333,137.22723613333332,58.0,91.0
1017,136.95024757083334,137.26558839583333,43.0,89.0
1018,136.60933857083333,137.27695202916667,62.0,90.0
1019,137.29115657083332,137.51700878333332,43.0,85.0
1020,137.29115657083332,137.667576925,59.0,81.0
1021,137.29115657083332,137.67752010416666,55.0,88.0
1022,137.63206557083333,137.73291781666666,50.0,82.0
1023,137.63206557083333,137.73859963333334,43.0,80.0
1024,137.97297457083332,138.17325860833333,43.0,88.0
1025,137.97297457083332,138.32950856666668,55.0,84.0
1026,137.97297457083332,138.4133153625,62.0,85.0
1027,138.31388357083333,138.42751990416667,43.0,71.0
1028,138.31388357083333,138.45734944166665,50.0,82.0
1029,138.65479257083334,138.83376979583332,45.0,88.0
1030,138.99570157083332,139.0866106375,45.0,84.0
1031,138.99570157083332,139.09797427083333,52.0,82.0
1032,138.65479257083334,139.11075835833333,57.0,82.0
1033,138.65479257083334,139.15337198333333,61.0,82.0
1034,139.33661057083333,139.4616105375,52.0,89.0
1035,139.33661057083333,139.47155371666665,45.0,88.0
1036,139.33661057083333,139.4786559875,57.0,88.0
1037,139.33661057083333,139.58376959583333,61.0,93.0
1038,139.33661057083333,139.77411045416667,64.0,92.0
1039,139.67751957083334,139.79967862916666,57.0,89.0
1040,139.67751957083334,139.832349075,45.0,86.0
1041,140.01842857083332,140.23149669583333,47.0,87.0
1042,140.01842857083332,140.4885989,59.0,87.0
1043,140.35933757083333,140.5184284375,47.0,80.0
1044,140.01842857083332,140.5567807,62.0,87.0
1045,140.70024657083331,140.84939425833332,47.0,83.0
1046,140.70024657083331,140.91189424166666,54.0,86.0
1047,140.70024657083331,141.19030325833333,59.0,88.0
1048,141.04115557083333,141.2002464375,47.0,83.0
1049,140.70024657083331,141.20734870833334,66.0,85.0
1050,140.70024657083331,141.230075975,62.0,88.0
1051,141.38206457083334,141.86643944166667,47.0,88.0
1052,141.38206457083334,141.86928035,59.0,85.0
1053,141.72297357083332,141.87496216666665,54.0,72.0
1054,141.38206457083334,141.88916670833333,62.0,85.0
1055,141.38206457083334,141.92893942499998,66.0,84.0
1056,142.06388257083333,142.24001888749999,54.0,76.0
1057,142.06388257083333,142.2613257,62.0,89.0
1058,142.06388257083333,142.26700751666667,47.0,80.0
1059,142.06388257083333,142.269848425,66.0,86.0
1060,142.06388257083333,142.2911552375,59.0,89.0
1061,142.40479157083334,142.57382561666665,47.0,80.0
1062,142.74570057083332,142.8366096375,64.0,89.0
1063,142.74570057083332,143.18746181666666,43.0,87.0
1064,143.08660957083333,143.2030868125,50.0,83.0
1065,142.74570057083332,143.20876862916666,62.0,82.0
1066,142.74570057083332,143.2457004375,55.0,85.0
1067,143.4275185708333,143.70876849583334,55.0,84.0
1068,143.4275185708333,143.71160940416667,59.0,85.0
1069,143.4275185708333,143.77695029583333,62.0,90.0
1070,143.4275185708333,143.85365482083333,43.0,88.0
1071,143.76842757083332,143.91757525833333,50.0,79.0
1072,144.10933657083334,144.3707001375,45.0,88.0
1073,144.10933657083334,144.51558646249998,57.0,88.0
1074,144.10933657083334,144.55820008749998,61.0,88.0
1075,144.45024557083332,144.59939325833332,45.0,73.0
1076,144.45024557083332,144.605075075,52.0,78.0
1077,144.79115457083333,144.94456362083332,45.0,88.0
1078,144.79115457083333,144.96587043333332,52.0,86.0
1079,144.79115457083333,144.99569997083333,57.0,86.0
1080,144.79115457083333,145.0099045125,61.0,86.0
1081,144.79115457083333,145.05819995416667,64.0,89.0
1082,145.13206357083334,145.30677943333333,45.0,88.0
1083,145.47297257083332,145.92751790416665,66.0,81.0
1084,145.47297257083332,145.9303588125,59.0,84.0
1085,145.47297257083332,145.93604062916665,62.0,84.0
1086,145.47297257083332,145.94456335416666,47.0,87.0
1087,145.81388157083333,145.9928587958333,54.0,80.0
1088,146.15479057083334,146.28973371666666,47.0,83.0
1089,146.15479057083334,146.33376779583332,54.0,79.0
1090,146.15479057083334,146.50564275,59.0,89.0
1091,146.15479057083334,146.5610404625,62.0,88.0
1092,146.15479057083334,146.59655181666665,66.0,88.0
1093,146.49569957083332,146.6974040625,47.0,81.0
1094,146.83660857083333,147.03263124583333,59.0,87.0
1095,146.83660857083333,147.05393805833333,62.0,84.0
1096,146.83660857083333,147.2087675625,66.0,88.0
1097,146.83660857083333,147.30677889999998,47.0,84.0
1098,147.17751757083332,147.34229025416667,59.0,83.0
1099,147.17751757083332,147.36359706666667,64.0,87.0
1100,147.17751757083332,147.37069933749999,54.0,70.0
1101,147.51842657083333,147.7201310625,47.0,79.0
1102,147.51842657083333,147.79115377083332,54.0,85.0
1103,147.51842657083333,147.92609691666667,59.0,88.0
1104,147.85933557083334,148.0084832583333,47.0,89.0
1105,147.51842657083333,148.065301425,62.0,89.0
1106,148.20024457083332,148.63348309166665,43.0,88.0
1107,148.20024457083332,148.65194899583332,62.0,86.0
1108,148.54115357083333,148.65905126666667,50.0,80.0
1109,148.20024457083332,148.68177853333333,55.0,82.0
1110,148.88206257083334,149.0454148,50.0,83.0
1111,148.88206257083334,149.05393752499998,43.0,88.0
1112,148.88206257083334,149.13774432083332,55.0,87.0
1113,148.88206257083334,149.17467612916667,59.0,87.0
1114,148.88206257083334,149.2883124625,62.0,89.0
1115,149.22297157083332,149.44172151249998,43.0,84.0
1116,149.56388057083333,149.96871000833332,57.0,80.0
1117,149.56388057083333,150.01132363333332,61.0,82.0
1118,149.56388057083333,150.03405089999998,45.0,88.0
1119,149.90478957083332,150.05819862083334,52.0,80.0
1120,150.24569857083333,150.39484625833333,45.0,88.0
1121,150.24569857083333,150.41189170833331,52.0,88.0
1122,150.24569857083333,150.50848259166665,61.0,84.0
1123,150.24569857083333,150.58234620833332,57.0,83.0
1124,150.24569857083333,150.67893709166665,64.0,90.0
1125,150.58660757083334,150.78973251666667,45.0,87.0
1126,150.92751657083332,151.27126647916666,66.0,81.0
1127,150.92751657083332,151.29399374583332,59.0,81.0
1128,150.92751657083332,151.3678573625,62.0,83.0
1129,150.92751657083332,151.67751637083333,47.0,89.0
1130,151.26842557083333,151.69456182083331,54.0,66.0
1131,151.60933457083334,152.02126627916667,59.0,90.0
1132,151.60933457083334,152.06387990416667,66.0,90.0
1133,151.60933457083334,152.06956172083332,62.0,90.0
1134,151.95024357083332,152.1434253375,54.0,82.0
1135,152.29115257083333,152.6931411,59.0,89.0
1136,152.29115257083333,152.73291381666667,62.0,89.0
1137,152.29115257083333,152.7513797208333,66.0,89.0
1138,152.29115257083333,152.81956152083333,47.0,90.0
1139,152.63206157083332,152.86501605416666,54.0,68.0
1140,152.97297057083333,153.15194779583334,66.0,92.0
1141,152.97297057083333,153.16047052083331,62.0,90.0
1142,152.97297057083333,153.16899324583332,54.0,82.0
1143,152.97297057083333,153.19172051249998,59.0,92.0
1144,152.97297057083333,153.23717504583334,47.0,82.0
1145,153.31387957083334,153.55109541666667,64.0,89.0
1146,153.65478857083332,154.10081117916667,43.0,86.0
1147,153.99569757083333,154.1036520875,50.0,85.0
1148,153.65478857083332,154.12779980833332,55.0,80.0
1149,153.65478857083332,154.19029979166666,62.0,83.0
1150,154.33660657083334,154.46728835416667,50.0,89.0
1151,154.33660657083334,154.48149289583333,43.0,88.0
1152,154.67751557083332,154.82098144166667,43.0,87.0
1153,154.33660657083334,155.1775154375,59.0,88.0
1154,154.33660657083334,155.18603816249998,55.0,89.0
1155,154.33660657083334,155.2030836125,62.0,89.0
1156,155.01842457083333,155.22865178749998,43.0,85.0
1157,155.35933357083331,155.44598127499998,55.0,71.0
1158,155.35933357083331,155.463026725,43.0,77.0
1159,155.35933357083331,155.48859489999998,50.0,84.0
1160,155.70024257083332,155.83518571666667,50.0,89.0
1161,155.70024257083332,155.84939025833333,43.0,89.0
1162,155.70024257083332,155.9701288625,55.0,89.0
1163,155.70024257083332,155.97581067916667,59.0,89.0
1164,155.70024257083332,156.01984475833333,62.0,90.0
1165,156.04115157083334,156.21444697916667,43.0,88.0
1166,156.38206057083332,156.49001508749998,62.0,76.0
1167,156.38206057083332,156.49995826666665,61.0,56.0
1168,156.38206057083332,156.8394468125,45.0,90.0
1169,156.72296957083333,156.87637862083332,52.0,84.0
1170,156.38206057083332,156.89342407083333,57.0,81.0
1171,157.06387857083334,157.17609445,52.0,90.0
1172,157.06387857083334,157.1974012625,45.0,89.0
1173,157.06387857083334,157.5297875375,57.0,89.0
1174,157.06387857083334,157.5368898083333,61.0,91.0
1175,157.40478757083332,157.54399207916666,45.0,87.0
1176,157.06387857083334,157.5724011625,64.0,91.0
1177,157.74569657083333,157.94029879166666,45.0,89.0
1178,158.0866055708333,158.21870780833333,45.0,87.0
1179,158.0866055708333,158.23007144166667,52.0,82.0
1180,157.74569657083333,158.2485373458333,69.0,89.0
1181,157.74569657083333,158.2499578,64.0,89.0
1182,157.74569657083333,158.25848052499998,61.0,77.0
1183,157.74569657083333,158.28262824583334,57.0,85.0
1184,158.42751457083332,158.5525145375,52.0,89.0
1185,158.42751457083332,158.55961680833332,45.0,89.0
1186,158.42751457083332,158.769844025,57.0,88.0
1187,158.42751457083332,158.77268493333332,61.0,86.0
1188,158.76842357083333,158.88205990416665,45.0,90.0
1189,159.10933257083332,159.33518478333332,43.0,85.0
1190,159.10933257083332,159.48575292499999,59.0,81.0
1191,159.10933257083332,159.49569610416665,55.0,88.0
1192,159.45024157083333,159.55109381666665,50.0,82.0
1193,159.45024157083333,159.55677563333333,43.0,80.0
1194,159.79115057083334,159.99143460833332,43.0,88.0
1195,159.79115057083334,160.14768456666667,55.0,84.0
1196,159.79115057083334,160.23149136249998,62.0,85.0
1197,160.13205957083332,160.24569590416667,43.0,71.0
1198,160.13205957083332,160.27552544166667,50.0,82.0
1199,160.47296857083333,160.6519457958333,45.0,88.0
1200,160.8138775708333,160.9047866375,45.0,84.0
1201,160.8138775708333,160.91615027083333,52.0,82.0
1202,160.47296857083333,160.92893435833332,57.0,82.0
1203,160.47296857083333,160.97154798333332,61.0,82.0
1204,161.15478657083332,161.2797865375,52.0,89.0
1205,161.15478657083332,161.28972971666667,45.0,88.0
1206,161.15478657083332,161.29683198749998,57.0,88.0
1207,161.15478657083332,161.40194559583333,61.0,93.0
1208,161.15478657083332,161.59228645416667,64.0,92.0
1209,161.49569557083333,161.61785462916666,57.0,89.0
1210,161.49569557083333,161.650525075,45.0,86.0
1211,161.83660457083332,162.04967269583332,47.0,87.0
1212,161.83660457083332,162.3067749,59.0,87.0
1213,162.17751357083333,162.3366044375,47.0,80.0
1214,161.83660457083332,162.37495669999998,62.0,87.0
1215,162.51842257083334,162.6675702583333,47.0,83.0
1216,162.51842257083334,162.73007024166665,54.0,86.0
1217,162.51842257083334,163.00847925833332,59.0,88.0
1218,162.85933157083332,163.0184224375,47.0,83.0
1219,162.51842257083334,163.02552470833334,66.0,85.0
1220,162.51842257083334,163.048251975,62.0,88.0
1221,163.20024057083333,163.68461544166666,47.0,88.0
1222,163.20024057083333,163.68745635,59.0,85.0
1223,163.54114957083334,163.69313816666667,54.0,72.0
1224,163.20024057083333,163.70734270833333,62.0,85.0
1225,163.20024057083333,163.747115425,66.0,84.0
1226,163.88205857083332,164.05819488749998,54.0,76.0
1227,163.88205857083332,164.07950169999998,62.0,89.0
1228,163.88205857083332,164.08518351666666,47.0,80.0
1229,163.88205857083332,164.088024425,66.0,86.0
1230,163.88205857083332,164.1093312375,59.0,89.0
1231,164.22296757083333,164.39200161666665,47.0,80.0
1232,164.56387657083332,164.6547856375,64.0,89.0
1233,164.56387657083332,165.00563781666665,43.0,87.0
1234,164.90478557083333,165.0212628125,50.0,83.0
1235,164.56387657083332,165.02694462916665,62.0,82.0
1236,164.56387657083332,165.0638764375,55.0,85.0
1237,165.24569457083334,165.52694449583333,55.0,84.0
1238,165.24569457083334,165.52978540416666,59.0,85.0
1239,165.24569457083334,165.59512629583332,62.0,90.0
1240,165.24569457083334,165.67183082083332,43.0,88.0
1241,165.58660357083332,165.73575125833332,50.0,79.0
1242,165.92751257083333,166.1888761375,45.0,88.0
1243,165.92751257083333,166.3337624625,57.0,88.0
1244,165.92751257083333,166.3763760875,61.0,88.0
1245,166.26842157083334,166.41756925833332,45.0,73.0
1246,166.26842157083334,166.423251075,52.0,78.0
1247,166.60933057083332,166.76273962083332,45.0,88.0
1248,166.60933057083332,166.78404643333332,52.0,86.0
1249,166.60933057083332,166.81387597083332,57.0,86.0
1250,166.60933057083332,166.82808051249998,61.0,86.0
1251,166.60933057083332,166.87637595416666,64.0,89.0
1252,166.95023957083333,167.12495543333333,45.0,88.0
1253,167.29114857083331,167.74569390416667,66.0,81.0
1254,167.29114857083331,167.7485348125,59.0,84.0
1255,167.29114857083331,167.75421662916665,62.0,84.0
1256,167.29114857083331,167.76273935416665,47.0,87.0
1257,167.63205757083333,167.81103479583334,54.0,80.0
1258,167.97296657083334,168.10790971666665,47.0,83.0
1259,167.97296657083334,168.15194379583332,54.0,79.0
1260,167.97296657083334,168.32381875,59.0,89.0
1261,167.97296657083334,168.37921646249998,62.0,88.0
1262,167.97296657083334,168.41472781666667,66.0,88.0
1263,168.31387557083332,168.5155800625,47.0,81.0
1264,168.65478457083333,168.85080724583332,59.0,87.0
1265,168.65478457083333,168.87211405833332,62.0,84.0
1266,168.65478457083333,169.02694356249998,66.0,88.0
1267,168.65478457083333,169.1249549,47.0,84.0
1268,168.99569357083334,169.16046625416666,59.0,83.0
1269,168.99569357083334,169.18177306666666,64.0,87.0
1270,168.99569357083334,169.18887533749998,54.0,70.0
1271,169.33660257083332,169.5383070625,47.0,79.0
1272,169.33660257083332,169.6093297708333,54.0,85.0
1273,169.33660257083332,169.74427291666666,59.0,88.0
1274,169.67751157083333,169.82665925833334,47.0,89.0
1275,169.33660257083332,169.883477425,62.0,89.0
1276,170.0184205708333,170.45165909166667,43.0,88.0
1277,170.0184205708333,170.47012499583332,62.0,86.0
1278,170.35932957083332,170.47722726666666,50.0,80.0
1279,170.0184205708333,170.49995453333332,55.0,82.0
1280,170.70023857083333,170.8635908,50.0,83.0
1281,170.70023857083333,170.872113525,43.0,88.0
1282,170.70023857083333,170.95592032083331,55.0,87.0
1283,170.70023857083333,170.99285212916666,59.0,87.0
1284,170.70023857083333,171.10648846249998,62.0,89.0
1285,171.04114757083332,171.2598975125,43.0,84.0
1286,171.38205657083333,171.78688600833334,57.0,80.0
1287,171.38205657083333,171.8294996333333,61.0,82.0
1288,171.38205657083333,171.8522269,45.0,88.0
1289,171.72296557083334,171.87637462083333,52.0,80.0
1290,172.06387457083332,172.21302225833332,45.0,88.0
1291,172.06387457083332,172.23006770833334,52.0,88.0
1292,172.06387457083332,172.32665859166667,61.0,84.0
1293,172.06387457083332,172.4005222083333,57.0,83.0
1294,172.06387457083332,172.49711309166665,64.0,90.0
1295,172.40478357083333,172.60790851666667,45.0,87.0
1296,172.7456925708333,173.08944247916665,66.0,81.0
1297,172.7456925708333,173.1121697458333,59.0,81.0
1298,172.7456925708333,173.18603336249998,62.0,83.0
1299,172.7456925708333,173.49569237083332,47.0,89.0
1300,173.08660157083332,173.51273782083334,54.0,66.0
1301,173.42751057083333,173.83944227916666,59.0,90.0
1302,173.42751057083333,173.88205590416666,66.0,90.0
1303,173.42751057083333,173.88773772083331,62.0,90.0
1304,173.76841957083332,173.96160133749999,54.0,82.0
1305,174.10932857083333,174.51131709999999,59.0,89.0
1306,174.10932857083333,174.55108981666666,62.0,89.0
1307,174.10932857083333,174.56955572083334,66.0,89.0
1308,174.10932857083333,174.63773752083333,47.0,90.0
1309,174.45023757083334,174.68319205416665,54.0,68.0
1310,174.79114657083332,174.97012379583333,66.0,92.0
1311,174.79114657083332,174.97864652083334,62.0,90.0
1312,174.79114657083332,174.98716924583331,54.0,82.0
1313,174.79114657083332,175.0098965125,59.0,92.0
1314,174.79114657083332,175.05535104583333,47.0,82.0
1315,175.13205557083333,175.36927141666666,64.0,89.0
1316,175.4729645708333,175.91898717916666,43.0,86.0
1317,175.81387357083332,175.9218280875,50.0,85.0
1318,175.4729645708333,175.94597580833332,55.0,80.0
1319,175.4729645708333,176.00847579166665,62.0,83.0
1320,176.15478257083333,176.28546435416666,50.0,89.0
1321,176.15478257083333,176.29966889583332,43.0,88.0
1322,176.49569157083332,176.63915744166667,43.0,87.0
1323,176.15478257083333,176.9956914375,59.0,88.0
1324,176.15478257083333,177.0042141625,55.0,89.0
1325,176.15478257083333,177.0212596125,62.0,89.0
1326,176.83660057083333,177.0468277875,43.0,85.0
1327,177.17750957083334,177.264157275,55.0,71.0
1328,177.17750957083334,177.28120272499999,43.0,77.0
1329,177.17750957083334,177.3067709,50.0,84.0
1330,177.51841857083332,177.65336171666667,50.0,89.0
1331,177.51841857083332,177.66756625833332,43.0,89.0
1332,177.51841857083332,177.78830486249998,55.0,89.0
1333,177.51841857083332,177.79398667916666,59.0,89.0
1334,177.51841857083332,177.83802075833333,62.0,90.0
1335,177.85932757083333,178.03262297916666,43.0,88.0
1336,178.20023657083334,178.3081910875,62.0,76.0
1337,178.20023657083334,178.31813426666665,61.0,56.0
1338,178.20023657083334,178.6576228125,45.0,90.0
1339,178.54114557083332,178.69455462083332,52.0,84.0
1340,178.20023657083334,178.71160007083333,57.0,81.0
1341,178.88205457083333,178.99427045,52.0,90.0
1342,178.88205457083333,179.0155772625,45.0,89.0
1343,178.88205457083333,179.3479635375,57.0,89.0
1344,178.88205457083333,179.35506580833334,61.0,91.0
1345,179.22296357083331,179.36216807916665,45.0,87.0
1346,178.88205457083333,179.3905771625,64.0,91.0
1347,179.56387257083333,179.75847479166666,45.0,89.0
1348,179.90478157083334,180.03688380833333,45.0,87.0
1349,179.90478157083334,180.04824744166666,52.0,82.0
1350,179.56387257083333,180.06671334583334,69.0,89.0
1351,179.56387257083333,180.0681338,64.0,89.0
1352,179.56387257083333,180.076656525,61.0,77.0
1353,179.56387257083333,180.10080424583333,57.0,85.0
1354,180.24569057083332,180.3706905375,52.0,89.0
1355,180.24569057083332,180.37779280833334,45.0,89.0
1356,180.24569057083332,180.588020025,57.0,88.0
1357,180.24569057083332,180.59086093333332,61.0,86.0
1358,180.58659957083333,180.70023590416665,45.0,90.0
1359,180.92750857083334,181.14341760416667,43.0,88.0
1360,181.26841757083332,181.39057662916665,43.0,84.0
1361,180.92750857083334,181.40478117083333,59.0,78.0
1362,180.92750857083334,181.40762207916666,62.0,85.0
1363,181.60932657083333,181.7243833583333,43.0,84.0
1364,181.60932657083333,181.73148562916666,50.0,85.0
1365,181.60932657083333,181.951656025,55.0,79.0
1366,181.60932657083333,181.99569010416667,62.0,85.0
1367,181.60932657083333,182.00563328333334,59.0,80.0
1368,181.9502355708333,182.11500825416667,43.0,78.0
1369,182.29114457083332,182.47296270416666,45.0,87.0
1370,182.29114457083332,182.69171264583332,61.0,83.0
1371,182.29114457083332,182.70307627916665,57.0,78.0
1372,182.63205357083334,182.77267853333333,52.0,79.0
1373,182.63205357083334,182.78120125833334,45.0,78.0
1374,182.97296257083332,183.09086026666665,52.0,88.0
1375,182.97296257083332,183.09938299166666,45.0,86.0
1376,182.97296257083332,183.16472388333332,57.0,80.0
1377,182.97296257083332,183.18603069583332,61.0,82.0
1378,183.31387157083333,183.451655625,45.0,88.0
1379,183.65478057083334,183.9232464083333,62.0,84.0
1380,183.65478057083334,183.95449639999998,59.0,76.0
1381,183.65478057083334,184.1547804375,47.0,88.0
1382,183.99568957083332,184.16898497916665,54.0,71.0
1383,184.33659857083333,184.48574625833334,54.0,83.0
1384,184.33659857083333,184.48858716666666,47.0,88.0
1385,184.33659857083333,184.75279164166665,66.0,73.0
1386,184.33659857083333,184.79398481249999,59.0,83.0
1387,184.33659857083333,184.81671207916665,62.0,82.0
1388,184.6775075708333,184.8621666125,47.0,83.0
1389,185.01841657083332,185.20875742916667,47.0,77.0
1390,185.01841657083332,185.37210965833333,62.0,81.0
1391,185.01841657083332,185.38773465416665,59.0,76.0
1392,185.35932557083333,185.49426871666665,54.0,74.0
1393,185.35932557083333,185.53830279583332,47.0,77.0
1394,185.70023457083332,185.84370044166667,54.0,73.0
1395,185.70023457083332,185.855064075,47.0,79.0
1396,185.70023457083332,186.03262084583332,61.0,84.0
1397,186.04114357083333,186.17466626249998,47.0,87.0
1398,186.04114357083333,186.19881398333334,62.0,84.0
1399,186.38205257083334,186.5496661625,43.0,84.0
1400,186.72296157083332,186.84227972083332,50.0,70.0
1401,186.72296157083332,186.86358653333332,43.0,75.0
1402,186.38205257083334,186.91046152083334,55.0,66.0
1403,186.38205257083334,186.9161433375,59.0,72.0
1404,187.06387057083333,187.18745008333332,50.0,83.0
1405,187.06387057083333,187.19881371666665,43.0,84.0
1406,187.06387057083333,187.48148409583334,55.0,83.0
1407,187.06387057083333,187.49710909166666,59.0,83.0
1408,187.4047795708333,187.57381361666665,43.0,83.0
1409,187.06387057083333,187.5880181583333,62.0,84.0
1410,187.74568857083332,187.98716577916665,45.0,88.0
1411,188.08659757083333,188.18460890833333,45.0,58.0
1412,188.08659757083333,188.1945520875,52.0,79.0
1413,187.74568857083332,188.21301799166665,61.0,83.0
1414,187.74568857083332,188.23006344166666,57.0,77.0
1415,188.42750657083332,188.52977927083333,52.0,82.0
1416,188.42750657083332,188.56244971666666,45.0,85.0
1417,188.42750657083332,188.7740973875,57.0,77.0
1418,188.42750657083332,188.889154175,64.0,87.0
1419,188.76841557083333,188.91614280416667,45.0,87.0
1420,189.10932457083334,189.5667108125,59.0,77.0
1421,189.45023357083332,189.58517671666667,54.0,69.0
1422,189.10932457083334,189.60648352916667,47.0,88.0
1423,189.10932457083334,189.60790398333333,62.0,79.0
1424,189.79114257083333,189.92324480833332,54.0,78.0
1425,189.79114257083333,189.92608571666665,47.0,81.0
1426,189.79114257083333,190.18744928333334,62.0,81.0
1427,189.79114257083333,190.19171064583333,66.0,74.0
1428,189.79114257083333,190.22154018333333,59.0,81.0
1429,190.1320515708333,190.25989244583332,54.0,68.0
1430,190.1320515708333,190.26983562499998,47.0,77.0
1431,190.47296057083332,190.59938099166666,54.0,71.0
1432,190.47296057083332,190.62779007499998,47.0,83.0
1433,190.47296057083332,190.63773325416665,61.0,88.0
1434,190.81386957083333,190.9473922625,54.0,66.0
1435,190.81386957083333,190.95875589583332,47.0,79.0
1436,190.81386957083333,191.10364222083334,62.0,82.0
1437,191.15477857083332,191.31955125416667,54.0,76.0
1438,191.15477857083332,191.33517625,47.0,85.0
1439,191.15477857083332,191.50705120416666,61.0,89.0
1440,191.49568757083333,191.7954034,54.0,75.0
1441,191.49568757083333,191.8167102125,57.0,87.0
1442,191.49568757083333,191.82665339166667,47.0,81.0
1443,191.83659657083334,192.17324420833333,62.0,89.0
1444,191.83659657083334,192.1831873875,55.0,85.0
1445,191.83659657083334,192.28830099583334,43.0,88.0
1446,192.17750557083332,192.30960780833334,50.0,84.0
1447,192.51841457083333,192.62920999583332,43.0,88.0
1448,192.51841457083333,192.62920999583332,50.0,89.0
1449,192.51841457083333,192.79398267916665,55.0,85.0
1450,192.51841457083333,192.85506220833332,62.0,86.0
1451,192.85932357083334,192.94028945833333,50.0,79.0
1452,192.85932357083334,192.98574399166665,43.0,87.0
1453,193.20023257083332,193.39909615416667,45.0,88.0
1454,193.54114157083333,193.62636882083333,45.0,81.0
1455,193.54114157083333,193.627789275,52.0,83.0
1456,193.20023257083332,193.6704029,57.0,84.0
1457,193.20023257083332,193.69739152916665,61.0,88.0
1458,193.88205057083331,193.98432327083333,52.0,88.0
1459,193.88205057083331,194.0013687208333,45.0,88.0
1460,193.88205057083331,194.26557319583333,57.0,88.0
1461,193.88205057083331,194.26557319583333,61.0,87.0
1462,194.22295957083332,194.35932317083333,45.0,82.0
1463,194.56386857083334,194.76699351666664,62.0,83.0
1464,194.56386857083334,194.87352757916665,59.0,84.0
1465,194.56386857083334,195.03687980833334,47.0,88.0
1466,194.90477757083332,195.04682298749998,54.0,73.0
1467,195.24568657083333,195.39057289583332,47.0,81.0
1468,195.24568657083333,195.39483425833333,54.0,81.0
1469,195.24568657083333,195.66472055,59.0,88.0
1470,195.24568657083333,195.70591372083334,62.0,87.0
1471,195.24568657083333,195.75278870833333,66.0,83.0
1472,195.58659557083334,195.80250460416667,47.0,84.0
1473,195.92750457083332,196.07239089583334,62.0,84.0
1474,195.92750457083332,196.15335678333332,54.0,84.0
1475,195.92750457083332,196.15619769166665,59.0,74.0
1476,195.92750457083332,196.16472041666665,47.0,81.0
1477,196.26841357083333,196.44312943333333,47.0,83.0
1478,196.26841357083333,196.45733397499998,61.0,89.0
1479,196.6093225708333,196.77409525416667,54.0,76.0
1480,196.6093225708333,196.80108388333332,47.0,82.0
1481,196.95023157083332,197.088015625,47.0,84.0
1482,196.6093225708333,197.15335651666666,62.0,90.0
1483,197.29114057083333,197.43744734999999,43.0,87.0
1484,197.63204957083332,197.77409498749998,43.0,83.0
1485,197.29114057083333,197.80534497916665,59.0,85.0
1486,197.29114057083333,197.80676543333334,55.0,84.0
1487,197.97295857083333,198.06386763749998,50.0,83.0
1488,197.97295857083333,198.10506080833332,43.0,85.0
1489,197.97295857083333,198.29256075833334,55.0,85.0
1490,197.97295857083333,198.35364028749999,59.0,88.0
1491,197.97295857083333,198.35932210416667,62.0,90.0
1492,198.31386757083334,198.45165162499998,43.0,84.0
1493,198.65477657083332,198.8053447125,45.0,88.0
1494,198.99568557083333,199.11358326666667,52.0,76.0
1495,198.99568557083333,199.13631053333333,45.0,84.0
1496,198.65477657083332,199.16471961666664,57.0,84.0
1497,198.65477657083332,199.20307187916666,61.0,85.0
1498,199.3365945708333,199.45023090416666,52.0,88.0
1499,199.3365945708333,199.46869680833333,45.0,88.0
1500,199.3365945708333,199.65193539583333,61.0,84.0
1501,199.3365945708333,199.68886720416666,57.0,84.0
1502,199.67750357083332,199.80534444583333,45.0,87.0
1503,199.3365945708333,199.83375352916667,64.0,92.0
1504,200.00988984583333,203.35790031666667,47.0,88.0
1505,199.91613987083332,203.38488894583332,59.0,75.0
1506,200.0113103,203.4104571208333,62.0,82.0
1507,200.04398074583332,203.4104571208333,66.0,76.0
