,start,end,pitch,velocity
0,17.7420277125,18.2829362625,65.0,90.0
1,18.2874817125,18.8283902625,74.0,83.0
2,18.832935712500003,19.1011172625,74.0,76.0
3,19.105662712500003,19.3738442625,74.0,82.0
4,19.378389712500002,19.6465712625,74.0,86.0
5,19.651116712500002,19.9192982625,72.0,63.0
6,19.923843712500002,20.192025262500003,70.0,54.0
7,20.1965707125,21.282933262500002,72.0,73.0
8,21.2874787125,21.555660262500002,72.0,84.0
9,21.5602057125,22.1011142625,74.0,67.0
10,22.105659712500003,22.3738412625,72.0,63.0
11,22.378386712500003,22.9192952625,70.0,64.0
12,22.923840712500002,23.1920222625,70.0,66.0
13,23.196567712500002,23.464749262500003,70.0,69.0
14,23.4692947125,23.737476262500003,70.0,76.0
15,23.7420217125,24.010203262500003,70.0,65.0
16,24.0147487125,24.282930262500003,69.0,62.0
17,24.2874757125,24.555657262500002,67.0,61.0
18,24.5602027125,25.6465652625,65.0,60.0
19,25.651110712500003,25.9192922625,65.0,82.0
20,25.923837712500003,26.1920192625,67.0,65.0
21,26.196564712500003,26.464746262500004,65.0,68.0
22,26.469291712500002,26.737473262500004,67.0,66.0
23,26.742018712500002,27.828381262500002,70.0,94.0
24,27.8329267125,28.101108262500002,65.0,64.0
25,28.1056537125,28.373835262500002,65.0,85.0
26,28.378380712500004,28.6465622625,65.0,71.0
27,28.651107712500004,28.9192892625,72.0,91.0
28,28.923834712500003,30.010197262500004,70.0,77.0
29,30.014742712500002,30.282924262500003,65.0,76.0
30,30.287469712500002,30.555651262500003,75.0,82.0
31,30.5601967125,30.828378262500003,74.0,66.0
32,30.8329237125,31.101105262500003,75.0,66.0
33,31.1056507125,31.373832262500002,74.0,77.0
34,31.3783777125,31.646559262500002,70.0,67.0
35,31.651104712500004,32.192013262500005,65.0,74.0
36,32.1965587125,32.737467262500004,74.0,87.0
37,32.7420127125,33.0101942625,77.0,90.0
38,33.0147397125,33.282921262500004,70.0,85.0
39,33.287466712500006,35.192010262500006,72.0,84.0
40,35.1965557125,35.737464262500005,65.0,87.0
41,35.7420097125,36.282918262500004,74.0,90.0
42,36.287463712500006,36.5556452625,74.0,91.0
43,36.5601907125,36.828372262500004,74.0,86.0
44,36.832917712500006,37.1010992625,74.0,87.0
45,37.1056447125,37.3738262625,72.0,77.0
46,37.378371712500005,37.6465532625,72.0,68.0
47,37.6510987125,37.9192802625,70.0,61.0
48,37.923825712500005,38.737461262500005,72.0,90.0
49,38.7420067125,39.0101882625,72.0,92.0
50,39.0147337125,39.5556422625,74.0,93.0
51,39.5601877125,39.828369262500004,72.0,87.0
52,39.832914712500006,40.373823262500004,72.0,93.0
53,40.378368712500006,40.6465502625,70.0,83.0
54,40.6510957125,40.9192772625,70.0,91.0
55,40.923822712500005,41.19200426250001,70.0,87.0
56,41.1965497125,41.4647312625,70.0,97.0
57,41.469276712500005,41.737458262500006,69.0,79.0
58,41.7420037125,42.0101852625,67.0,79.0
59,42.014730712500004,42.5556392625,67.0,84.0
60,42.5601847125,43.1010932625,65.0,68.0
61,43.1056387125,43.373820262500004,65.0,74.0
62,43.378365712500006,43.6465472625,67.0,90.0
63,43.6510927125,43.919274262500004,65.0,84.0
64,43.923819712500006,44.19200126250001,67.0,89.0
65,44.1965467125,45.282909262500006,70.0,99.0
66,45.2874547125,45.5556362625,65.0,84.0
67,45.560181712500004,45.828363262500005,65.0,89.0
68,45.8329087125,46.1010902625,65.0,73.0
69,46.1056357125,46.373817262500005,72.0,94.0
70,46.37836271250001,47.464725262500004,70.0,93.0
71,47.469270712500006,47.73745226250001,65.0,72.0
72,47.7419977125,48.0101792625,75.0,69.0
73,48.014724712500005,48.282906262500006,74.0,75.0
74,48.2874517125,48.5556332625,75.0,82.0
75,48.560178712500004,48.828360262500006,74.0,82.0
76,48.8329057125,49.1010872625,70.0,90.0
77,49.105632712500004,49.6465412625,65.0,77.0
78,49.6510867125,49.919268262500005,65.0,69.0
79,49.92381371250001,50.1919952625,75.0,85.0
80,50.1965407125,50.464722262500004,74.0,84.0
81,50.469267712500006,50.73744926250001,75.0,75.0
82,50.7419947125,51.0101762625,74.0,87.0
83,51.014721712500005,51.5556302625,70.0,91.0
84,51.560175712500005,51.828357262500006,72.0,91.0
85,51.8329027125,53.1919922625,72.0,93.0
86,53.1965377125,56.1919892625,70.0,87.0
87,56.196534712500004,56.464716262500005,77.0,89.0
88,56.46926171250001,57.010170262500004,77.0,94.0
89,57.014715712500006,57.555624262500004,70.0,93.0
90,57.560169712500006,58.1010782625,77.0,98.0
91,58.105623712500005,58.37380526250001,77.0,92.0
92,58.3783507125,58.6465322625,77.0,90.0
93,58.651077712500005,58.919259262500006,77.0,92.0
94,58.92380471250001,59.1919862625,79.0,93.0
95,59.196531712500004,59.464713262500005,74.0,79.0
96,59.46925871250001,60.555621262500004,72.0,101.0
97,60.560166712500006,60.82834826250001,65.0,94.0
98,60.8328937125,61.37380226250001,74.0,94.0
99,61.3783477125,61.6465292625,72.0,85.0
100,61.651074712500005,62.1919832625,72.0,87.0
101,62.196528712500005,62.464710262500006,70.0,73.0
102,62.46925571250001,62.7374372625,70.0,68.0
103,62.741982712500004,63.010164262500005,67.0,61.0
104,63.01470971250001,63.2828912625,70.0,75.0
105,63.2874367125,63.555618262500005,72.0,63.0
106,63.56016371250001,63.82834526250001,74.0,80.0
107,63.8328907125,64.3737992625,75.0,75.0
108,64.37834471250001,65.32834376250001,74.0,85.0
109,65.1965257125,65.32834376250001,74.0,94.0
110,65.46925271250001,65.7374342625,72.0,79.0
111,65.74197971250001,66.0101612625,72.0,83.0
112,66.0147067125,66.28288826250001,70.0,79.0
113,66.2874337125,67.37379626250001,67.0,87.0
114,67.3783417125,67.64652326250001,74.0,98.0
115,67.6510687125,67.9192502625,72.0,83.0
116,67.92379571250001,68.1919772625,72.0,81.0
117,68.1965227125,68.4647042625,70.0,72.0
118,68.4692497125,69.5556122625,72.0,90.0
119,69.5601577125,69.82833926250001,74.0,97.0
120,69.8328847125,70.10106626250001,72.0,87.0
121,70.10561171250001,70.3737932625,72.0,87.0
122,70.37833871250001,70.6465202625,70.0,72.0
123,70.6510657125,71.19197426250001,72.0,87.0
124,71.1965197125,71.4647012625,72.0,83.0
125,71.46924671250001,71.7374282625,74.0,82.0
126,71.74197371250001,72.0101552625,75.0,77.0
127,72.0147007125,72.28288226250001,74.0,77.0
128,72.2874277125,72.5556092625,75.0,84.0
129,72.56015471250001,73.1010632625,77.0,74.0
130,73.1056087125,73.64651726250001,72.0,82.0
131,73.6510627125,73.9192442625,77.0,89.0
132,73.92378971250001,74.46469826250001,77.0,95.0
133,74.4692437125,75.0101522625,75.0,97.0
134,75.01469771250001,75.5556062625,74.0,90.0
135,75.5601517125,75.82833326250001,74.0,86.0
136,75.8328787125,76.1010602625,74.0,87.0
137,76.10560571250001,76.3737872625,74.0,87.0
138,76.37833271250001,76.6465142625,75.0,68.0
139,76.6510597125,76.91924126250001,77.0,86.0
140,76.9237867125,77.4646952625,77.0,87.0
141,77.46924071250001,77.7374222625,79.0,64.0
142,77.7419677125,78.01014926250001,77.0,72.0
143,78.0146947125,78.28287626250001,70.0,98.0
144,78.2874217125,78.8283302625,70.0,97.0
145,78.83287571250001,79.37378426250001,72.0,99.0
146,79.3783297125,80.1919652625,74.0,105.0
147,80.1965107125,80.46469226250001,72.0,87.0
148,80.4692377125,80.73741926250001,74.0,86.0
149,80.7419647125,81.0101462625,72.0,82.0
150,81.01469171250001,81.2828732625,74.0,84.0
151,81.28741871250001,81.82832726250001,75.0,90.0
152,81.8328727125,82.6465082625,74.0,90.0
153,82.6510537125,83.19196226250001,74.0,97.0
154,83.19650771250001,83.4646892625,72.0,94.0
155,83.46923471250001,83.7374162625,70.0,89.0
156,83.7419617125,84.5555972625,67.0,90.0
157,84.56014271250001,84.8283242625,74.0,101.0
158,84.83286971250001,85.37377826250001,74.0,97.0
159,85.3783237125,85.6465052625,72.0,97.0
160,85.65105071250001,85.9192322625,70.0,90.0
161,85.92377771250001,87.0101402625,72.0,97.0
162,87.01468571250001,87.55559426250001,74.0,105.0
163,87.5601397125,87.82832126250001,72.0,105.0
164,87.8328667125,88.1010482625,70.0,95.0
165,88.10559371250001,88.64650226250001,72.0,98.0
166,88.6510477125,88.91922926250001,72.0,99.0
167,88.9237747125,89.19195626250001,74.0,97.0
168,89.19650171250001,89.4646832625,75.0,101.0
169,89.46922871250001,89.7374102625,74.0,93.0
170,89.7419557125,90.01013726250001,75.0,100.0
171,90.0146827125,90.5555912625,77.0,91.0
172,90.56013671250001,93.2828612625,72.0,100.0
173,93.2874067125,93.55558826250001,65.0,87.0
174,93.5601337125,93.82831526250001,67.0,86.0
175,93.83286071250001,94.1010422625,70.0,97.0
176,94.10558771250001,94.64649626250001,72.0,85.0
177,94.6510417125,98.73740126250001,70.0,91.0
178,98.74194671250001,99.0101282625,65.0,66.0
179,99.01467371250001,99.82830926250001,74.0,83.0
180,99.83285471250001,100.1010362625,74.0,90.0
181,100.10558171250001,100.3737632625,74.0,90.0
182,100.3783087125,100.64649026250001,72.0,77.0
183,100.6510357125,100.91921726250001,70.0,87.0
184,100.92376271250001,102.01012526250001,72.0,97.0
185,102.0146707125,102.28285226250001,72.0,97.0
186,102.28739771250001,102.8283062625,74.0,97.0
187,102.8328517125,103.10103326250001,72.0,95.0
188,103.1055787125,103.6464872625,72.0,97.0
189,103.65103271250001,103.9192142625,70.0,91.0
190,103.92375971250001,104.19194126250001,70.0,87.0
191,104.1964867125,104.46466826250001,70.0,93.0
192,104.46921371250001,104.7373952625,70.0,96.0
193,104.74194071250001,105.0101222625,69.0,90.0
194,105.01466771250001,105.28284926250001,67.0,87.0
195,105.2873947125,105.82830326250001,67.0,90.0
196,105.83284871250001,106.3737572625,65.0,94.0
197,106.3783027125,106.64648426250001,65.0,84.0
198,106.6510297125,106.91921126250001,67.0,94.0
199,106.92375671250001,107.1919382625,65.0,91.0
200,107.19648371250001,107.4646652625,67.0,96.0
201,107.46921071250001,108.82830026250001,70.0,101.0
202,108.8328457125,109.37375426250001,70.0,94.0
203,109.37829971250001,109.6464812625,67.0,97.0
204,109.65102671250001,110.7373892625,65.0,87.0
205,110.74193471250001,111.0101162625,65.0,87.0
206,111.01466171250001,111.28284326250001,67.0,90.0
207,111.2873887125,111.55557026250001,65.0,80.0
208,111.56011571250001,111.82829726250002,67.0,90.0
209,111.83284271250001,112.37375126250001,74.0,87.0
210,112.3782967125,112.64647826250001,70.0,86.0
211,112.6510237125,112.91920526250001,70.0,72.0
212,112.92375071250001,113.1919322625,67.0,72.0
213,113.19647771250001,113.4646592625,74.0,90.0
214,113.46920471250002,113.73738626250001,72.0,84.0
215,113.7419317125,114.01011326250001,70.0,81.0
216,114.01465871250001,115.91920226250001,72.0,95.0
217,115.9237477125,116.46465626250001,65.0,92.0
218,116.46920171250001,117.0101102625,74.0,90.0
219,117.01465571250002,117.28283726250001,74.0,93.0
220,117.2873827125,117.55556426250001,74.0,90.0
221,117.56010971250001,117.8282912625,74.0,87.0
222,117.83283671250001,118.1010182625,72.0,85.0
223,118.10556371250001,118.37374526250001,70.0,77.0
224,118.3782907125,119.46465326250001,72.0,93.0
225,119.4691987125,119.73738026250001,72.0,97.0
226,119.7419257125,120.2828342625,74.0,98.0
227,120.28737971250001,120.5555612625,72.0,93.0
228,120.56010671250002,121.10101526250001,70.0,93.0
229,121.10556071250001,121.37374226250002,70.0,91.0
230,121.37828771250001,121.6464692625,70.0,91.0
231,121.65101471250001,121.91919626250001,70.0,90.0
232,121.9237417125,122.19192326250001,70.0,97.0
233,122.1964687125,122.46465026250002,69.0,91.0
234,122.46919571250001,122.7373772625,67.0,90.0
235,122.74192271250001,123.8282852625,65.0,79.0
236,123.83283071250001,124.1010122625,65.0,85.0
237,124.10555771250002,124.37373926250001,67.0,93.0
238,124.3782847125,124.64646626250001,65.0,84.0
239,124.65101171250001,124.91919326250002,67.0,93.0
240,124.92373871250001,126.2828282625,70.0,103.0
241,126.28737371250001,126.82828226250001,65.0,95.0
242,126.8328277125,127.10100926250001,72.0,101.0
243,127.10555471250001,128.1919172625,70.0,92.0
244,128.19646271250002,128.4646442625,65.0,64.0
245,128.4691897125,128.7373712625,74.0,93.0
246,128.7419167125,129.0100982625,74.0,93.0
247,129.0146437125,129.2828252625,75.0,85.0
248,129.2873707125,129.55555226250002,74.0,89.0
249,129.5600977125,129.82827926250002,70.0,96.0
250,129.8328247125,130.3737332625,65.0,91.0
251,130.37827871250002,130.6464602625,65.0,77.0
252,130.65100571250002,130.9191872625,74.0,93.0
253,130.9237327125,131.1919142625,74.0,95.0
254,131.1964597125,131.4646412625,75.0,90.0
255,131.4691867125,131.7373682625,74.0,87.0
256,131.7419137125,132.28282226250002,70.0,97.0
257,132.28736771250001,132.55554926250002,72.0,90.0
258,132.56009471250002,133.6464572625,72.0,90.0
259,133.6510027125,133.78282076250002,74.0,52.0
260,133.78736621250002,133.9191842625,72.0,42.0
261,133.9237297125,134.73736526250002,70.0,61.0
262,134.74191071250002,135.01009226250002,77.0,105.0
263,135.01463771250002,135.5555462625,77.0,97.0
264,135.5600917125,136.1010002625,70.0,97.0
265,136.1055457125,136.64645426250001,77.0,99.0
266,136.6509997125,136.91918126250002,77.0,91.0
267,136.9237267125,137.19190826250002,77.0,90.0
268,137.19645371250002,137.46463526250002,77.0,92.0
269,137.46918071250002,137.7373622625,79.0,91.0
270,137.74190771250002,138.0100892625,74.0,91.0
271,138.0146347125,139.10099726250002,72.0,87.0
272,139.1055427125,139.37372426250002,65.0,87.0
273,139.3782697125,139.9191782625,74.0,96.0
274,139.92372371250002,140.1919052625,72.0,86.0
275,140.19645071250002,140.7373592625,72.0,87.0
276,140.7419047125,141.0100862625,70.0,89.0
277,141.0146317125,141.2828132625,70.0,91.0
278,141.2873587125,141.55554026250002,67.0,59.0
279,141.5600857125,141.82826726250002,70.0,87.0
280,141.83281271250002,142.10099426250002,72.0,87.0
281,142.10553971250002,142.3737212625,74.0,93.0
282,142.37826671250002,142.9191752625,74.0,42.0
283,142.37826671250002,142.9191752625,75.0,93.0
284,142.9237207125,143.73735626250001,74.0,96.0
285,143.7419017125,144.01008326250002,74.0,99.0
286,144.0146287125,144.28281026250002,72.0,90.0
287,144.28735571250002,144.55553726250002,72.0,87.0
288,144.56008271250002,144.8282642625,70.0,87.0
289,144.83280971250002,145.9191722625,67.0,90.0
290,145.9237177125,146.19189926250002,74.0,101.0
291,146.1964447125,146.46462626250002,72.0,91.0
292,146.4691717125,146.73735326250002,72.0,90.0
293,146.74189871250002,147.01008026250003,70.0,90.0
294,147.01462571250002,148.09076100000001,72.0,103.0
295,148.09076100000001,148.36348800000002,74.0,108.0
296,148.3782607125,148.64644226250002,72.0,95.0
297,148.6509877125,148.91916926250002,72.0,94.0
298,148.92371471250001,149.19189626250002,70.0,89.0
299,149.19644171250002,149.7373502625,72.0,92.0
300,149.74189571250002,150.0100772625,72.0,97.0
301,150.0146227125,150.2828042625,74.0,91.0
302,150.2873497125,150.5555312625,75.0,94.0
303,150.5600767125,150.82825826250001,74.0,90.0
304,150.8328037125,151.10098526250002,75.0,91.0
305,151.1055307125,151.64643926250002,77.0,86.0
306,151.65098471250002,152.1918932625,72.0,93.0
307,152.19643871250003,152.4646202625,77.0,97.0
308,152.4691657125,153.0100742625,77.0,97.0
309,153.0146197125,153.55552826250002,75.0,99.0
310,153.5600737125,154.3737092625,74.0,97.0
311,154.37825471250002,154.6464362625,74.0,91.0
312,154.6509817125,154.9191632625,74.0,90.0
313,154.9237087125,155.1918902625,75.0,77.0
314,155.1964357125,155.4646172625,77.0,86.0
315,155.4691627125,156.01007126250002,77.0,87.0
316,156.01461671250001,156.28279826250002,79.0,75.0
317,156.28734371250002,156.55552526250003,77.0,74.0
318,156.56007071250002,156.8282522625,70.0,64.0
319,156.83279771250002,157.3737062625,70.0,93.0
320,157.3782517125,157.91916026250001,72.0,105.0
321,157.9237057125,158.46461426250002,74.0,98.0
322,158.46915971250002,158.73734126250002,74.0,99.0
323,158.74188671250002,159.0100682625,72.0,87.0
324,159.01461371250002,159.2827952625,74.0,98.0
325,159.28734071250003,159.5555222625,72.0,77.0
326,159.5600677125,159.8282492625,74.0,93.0
327,159.8327947125,160.37370326250002,75.0,91.0
328,160.3782487125,161.19188426250003,74.0,92.0
329,161.19642971250002,161.4646112625,72.0,101.0
330,161.46915671250002,161.7373382625,74.0,93.0
331,161.74188371250003,162.0100652625,72.0,91.0
332,162.0146107125,162.2827922625,70.0,84.0
333,162.2873377125,163.10097326250002,67.0,90.0
334,163.10551871250001,163.37370026250002,74.0,91.0
335,163.37824571250002,163.9191542625,74.0,99.0
336,163.92369971250002,164.1918812625,72.0,90.0
337,164.1964267125,164.4646082625,70.0,87.0
338,164.4691537125,165.55551626250002,72.0,100.0
339,165.56006171250002,166.10097026250003,74.0,98.0
340,166.10551571250002,166.3736972625,72.0,97.0
341,166.37824271250003,166.6464242625,70.0,86.0
342,166.6509697125,167.1918782625,72.0,92.0
343,167.1964237125,167.46460526250002,72.0,90.0
344,167.4691507125,167.73733226250002,74.0,90.0
345,167.7418777125,168.01005926250002,75.0,91.0
346,168.01460471250002,168.28278626250003,74.0,90.0
347,168.28733171250002,168.5555132625,75.0,77.0
348,168.56005871250002,169.1009672625,77.0,77.0
349,169.1055127125,171.8282372625,72.0,81.0
350,171.8327827125,172.1009642625,65.0,83.0
351,172.1055097125,172.37369126250002,67.0,89.0
352,172.3782367125,172.64641826250002,70.0,96.0
353,172.65096371250002,173.19187226250003,72.0,85.0
354,173.19641771250002,176.4645962625,70.0,97.0
355,176.4691417125,177.01005026250002,77.0,101.0
356,177.0145957125,177.55550426250002,70.0,86.0
357,177.56004971250002,178.1009582625,77.0,95.0
358,178.10550371250002,178.3736852625,77.0,91.0
359,178.37823071250003,178.6464122625,77.0,91.0
360,178.6509577125,178.9191392625,77.0,95.0
361,178.9236847125,179.1918662625,79.0,81.0
362,179.1964117125,179.46459326250002,74.0,77.0
363,179.4691387125,180.5555012625,72.0,90.0
364,180.56004671250003,180.8282282625,65.0,66.0
365,180.83277371250003,181.3736822625,74.0,89.0
366,181.3782277125,181.64640926250001,72.0,82.0
367,181.6509547125,182.19186326250002,72.0,84.0
368,182.19640871250002,182.46459026250002,70.0,71.0
369,182.46913571250002,182.73731726250003,70.0,76.0
370,182.74186271250002,183.0100442625,67.0,53.0
371,183.01458971250003,183.2827712625,70.0,71.0
372,183.2873167125,183.5554982625,72.0,71.0
373,183.5600437125,183.8282252625,74.0,74.0
374,183.8327707125,184.37367926250002,75.0,72.0
375,184.3782247125,185.1918602625,74.0,72.0
376,185.19640571250002,185.4645872625,74.0,99.0
377,185.46913271250003,185.7373142625,72.0,90.0
378,185.7418597125,186.0100412625,72.0,87.0
379,186.0145867125,186.2827682625,70.0,89.0
380,186.2873137125,187.37367626250003,67.0,91.0
381,187.37822171250002,187.6464032625,74.0,101.0
382,187.65094871250002,187.9191302625,72.0,87.0
383,187.92367571250003,188.1918572625,72.0,87.0
384,188.1964027125,188.4645842625,70.0,87.0
385,188.4691297125,189.55549226250002,72.0,93.0
386,189.56003771250002,189.82821926250003,74.0,99.0
387,189.83276471250002,190.1009462625,72.0,89.0
388,190.10549171250003,190.3736732625,72.0,91.0
389,190.37821871250003,190.6464002625,70.0,82.0
390,190.6509457125,191.19185426250002,72.0,90.0
391,191.1963997125,191.46458126250002,72.0,90.0
392,191.4691267125,191.73730826250002,74.0,85.0
393,191.74185371250002,192.01003526250003,75.0,87.0
394,192.01458071250002,192.28276226250003,74.0,74.0
395,192.28730771250002,192.5554892625,75.0,89.0
396,192.56003471250003,193.1009432625,77.0,72.0
397,193.1054887125,193.64639726250002,72.0,75.0
398,193.6509427125,193.91912426250002,77.0,91.0
399,193.92366971250001,194.46457826250003,77.0,98.0
400,194.46912371250002,195.0100322625,75.0,103.0
401,195.01457771250003,195.5554862625,74.0,97.0
402,195.5600317125,195.82821326250001,74.0,96.0
403,195.8327587125,196.10094026250002,74.0,91.0
404,196.1054857125,196.37366726250002,74.0,91.0
405,196.37821271250002,196.64639426250002,75.0,86.0
406,196.65093971250002,196.91912126250003,77.0,85.0
407,196.92366671250002,197.4645752625,77.0,90.0
408,197.46912071250003,197.7373022625,79.0,82.0
409,197.7418477125,198.0100292625,77.0,73.0
410,198.0145747125,198.28275626250002,70.0,64.0
411,198.2873017125,198.82821026250002,70.0,91.0
412,198.83275571250002,199.37366426250003,72.0,92.0
413,199.37820971250002,199.9191182625,74.0,90.0
414,199.9236637125,200.1918452625,74.0,87.0
415,200.1963907125,200.4645722625,72.0,84.0
416,200.4691177125,200.73729926250002,74.0,85.0
417,200.7418447125,201.01002626250002,72.0,75.0
418,201.01457171250001,201.28275326250002,74.0,81.0
419,201.28729871250002,201.82820726250003,75.0,92.0
420,201.83275271250002,202.6463882625,74.0,90.0
421,202.6509337125,202.91911526250001,72.0,103.0
422,202.9236607125,203.19184226250002,74.0,93.0
423,203.1963877125,203.46456926250002,72.0,90.0
424,203.46911471250002,203.73729626250002,70.0,84.0
425,203.74184171250002,204.5554772625,67.0,90.0
426,204.56002271250003,204.8282042625,74.0,103.0
427,204.8327497125,205.37365826250002,74.0,100.0
428,205.3782037125,205.64638526250002,72.0,91.0
429,205.6509307125,205.91911226250002,70.0,91.0
430,205.92365771250002,207.0100202625,72.0,99.0
431,207.01456571250003,207.5554742625,74.0,100.0
432,207.5600197125,207.82820126250002,72.0,100.0
433,207.8327467125,208.10092826250002,70.0,95.0
434,208.10547371250001,208.64638226250003,72.0,94.0
435,208.65092771250002,208.91910926250003,72.0,94.0
436,208.92365471250002,209.1918362625,74.0,87.0
437,209.19638171250003,209.4645632625,75.0,92.0
438,209.4691087125,209.7372902625,74.0,87.0
439,209.7418357125,210.0100172625,75.0,90.0
440,210.0145627125,210.55547126250002,77.0,79.0
441,210.56001671250002,213.28274126250002,72.0,83.0
442,213.28728671250002,213.55546826250003,65.0,90.0
443,213.56001371250002,213.8281952625,67.0,91.0
444,213.83274071250003,214.1009222625,70.0,95.0
445,214.10546771250003,214.6463762625,72.0,90.0
446,214.6509217125,217.91910026250002,70.0,98.0
447,217.92364571250002,218.19182726250003,74.0,97.0
448,218.19637271250002,218.46455426250003,72.0,90.0
449,218.46909971250003,218.7372812625,70.0,91.0
450,218.74182671250003,219.55546226250001,72.0,93.0
451,219.5600077125,219.82818926250002,72.0,99.0
452,219.8327347125,220.10091626250002,74.0,86.0
453,220.10546171250002,220.37364326250002,75.0,91.0
454,220.37818871250002,220.64637026250003,74.0,87.0
455,220.65091571250002,220.91909726250003,75.0,89.0
456,220.92364271250003,221.4645512625,77.0,77.0
457,221.4690967125,224.1918212625,72.0,90.0
458,224.1963667125,224.46454826250002,67.0,84.0
459,224.4690937125,224.73727526250002,67.0,80.0
460,224.74182071250002,225.01000226250002,70.0,66.0
461,225.01454771250002,225.55545626250003,72.0,90.0
462,225.56000171250002,227.73613590000002,70.0,90.0
