,start,end,pitch,velocity
0,0.7034083875,1.1409079500000001,70.0,47.0
1,0.7715901375,1.2659078250000002,75.0,62.0
2,0.8397718875000001,1.54090755,51.0,73.0
3,1.3852258875,1.5920438625000002,63.0,64.0
4,1.1124988875000001,1.6954528500000001,58.0,52.0
5,0.8397718875000001,1.7147710125000002,82.0,69.0
6,1.3852258875,1.7965891125000002,77.0,73.0
7,1.9306798875000002,2.279543175,74.0,76.0
8,2.2034068875000004,2.35908855,77.0,73.0
9,1.9306798875000002,2.7011336625,53.0,66.0
10,2.4761338875,2.7079518375,65.0,62.0
11,2.2034068875000004,2.7420427125000004,60.0,58.0
12,2.4761338875,2.9147698125000003,77.0,76.0
13,3.0215878875000004,3.247724025,74.0,69.0
14,3.2943148875,3.5374964625000005,77.0,63.0
15,3.0215878875000004,3.6056782125000004,50.0,67.0
16,3.2943148875,3.7420417125000003,57.0,56.0
17,3.5670418875000003,3.7579507875000004,79.0,60.0
18,3.5670418875000003,4.1056777125,62.0,66.0
19,3.8397688875000004,4.111359525,77.0,58.0
20,4.112495887500001,4.7829497625,82.0,70.0
21,4.112495887500001,4.7874952125000005,74.0,69.0
22,4.6579498875,4.856813325,67.0,62.0
23,4.3852228875,4.911358725,62.0,60.0
24,4.112495887500001,4.9238587125,55.0,66.0
25,5.2034038875,5.3363583000000006,74.0,58.0
26,5.2034038875,5.556812625,82.0,70.0
27,5.4761308875,5.697721575,77.0,64.0
28,5.2034038875,5.7772669500000005,51.0,72.0
29,5.748857887500001,5.9545395,63.0,69.0
30,5.748857887500001,5.961357675,74.0,75.0
31,5.4761308875,6.0874939125,58.0,63.0
32,6.0215848875,6.25908465,77.0,85.0
33,6.2943118875,6.5306752875,74.0,76.0
34,6.567038887500001,6.8329477125,72.0,70.0
35,6.8397658875000005,6.9579475875000005,65.0,70.0
36,6.2943118875,6.962493037500001,53.0,72.0
37,6.567038887500001,6.9909021000000005,60.0,61.0
38,6.8397658875000005,7.080674737500001,70.0,73.0
39,7.1124928875,7.382947162500001,72.0,67.0
40,7.385219887500001,7.6579468875000005,74.0,72.0
41,8.2034008875,8.4874915125,60.0,72.0
42,7.9306738875,8.543173275000001,58.0,75.0
43,8.4761278875,8.6909004,62.0,91.0
44,8.7488548875,9.032945512500001,58.0,50.0
45,7.6579468875000005,9.069309112500001,53.0,61.0
46,7.385219887500001,9.093172725,46.0,73.0
47,9.0215818875,9.1420363125,65.0,93.0
48,9.567035887500001,9.839762887500001,58.0,66.0
49,9.567035887500001,9.857944687500002,63.0,65.0
50,9.567035887500001,9.86817195,39.0,53.0
51,9.567035887500001,9.881808300000001,70.0,55.0
52,9.567035887500001,9.914762812500001,51.0,58.0
53,9.567035887500001,9.9181719,67.0,40.0
54,10.3852168875,10.684080225,53.0,65.0
55,10.3852168875,10.8363528,65.0,56.0
56,10.3852168875,10.8443073375,60.0,61.0
57,10.3852168875,10.8999891,69.0,67.0
58,10.3852168875,11.0102162625,41.0,60.0
59,10.930670887500002,11.161352475000001,53.0,58.0
60,11.203397887500001,11.281806900000001,60.0,77.0
61,11.203397887500001,11.31362505,65.0,74.0
62,11.203397887500001,11.369306812500001,69.0,82.0
63,11.7488518875,12.0874879125,66.0,73.0
64,11.7488518875,12.093169725000001,60.0,77.0
65,11.7488518875,12.1215787875,69.0,67.0
66,12.0215788875,12.151124212500001,57.0,92.0
67,11.7488518875,12.177260550000002,50.0,79.0
68,12.2943058875,12.492032962500002,67.0,75.0
69,12.567032887500002,12.969305212500002,65.0,79.0
70,12.567032887500002,12.9738506625,62.0,71.0
71,12.567032887500002,13.0693051125,70.0,71.0
72,13.112486887500001,13.397713875,55.0,63.0
73,13.3852138875,13.540895550000002,58.0,61.0
74,13.3852138875,13.605668212500001,62.0,81.0
75,12.567032887500002,13.627259100000002,43.0,86.0
76,13.3852138875,13.659077250000001,65.0,85.0
77,13.9306678875,14.211349425000002,70.0,54.0
78,13.9306678875,14.230667587500001,58.0,81.0
79,13.9306678875,14.2465766625,67.0,76.0
80,13.9306678875,14.2624857375,63.0,77.0
81,14.203394887500002,14.985212287500001,55.0,60.0
82,14.748848887500001,15.348848287500001,70.0,57.0
83,14.476121887500002,15.361348275000001,58.0,63.0
84,14.748848887500001,15.361348275000001,63.0,84.0
85,14.748848887500001,15.371575537500002,67.0,80.0
86,15.295439250000001,15.490893600000001,55.0,76.0
87,13.9306678875,15.538620825,48.0,81.0
88,15.5670298875,15.794302387500002,58.0,54.0
89,15.839756887500002,15.899984100000001,63.0,39.0
90,15.839756887500002,15.904529550000001,67.0,50.0
91,16.1124838875,16.2852109875,53.0,72.0
92,16.1124838875,16.39543815,58.0,68.0
93,16.1124838875,16.396574512500003,70.0,63.0
94,16.1124838875,16.4397562875,67.0,65.0
95,16.1124838875,16.444301737500002,63.0,57.0
96,16.3852108875,16.672710600000002,53.0,56.0
97,16.6579378875,16.763619600000002,58.0,61.0
98,16.6579378875,16.8715740375,67.0,52.0
99,16.6579378875,16.8806649375,63.0,49.0
100,16.9306648875,17.4908916,60.0,68.0
101,16.9306648875,17.496573412500002,69.0,70.0
102,16.9306648875,17.552255175000003,65.0,66.0
103,16.9306648875,17.8920275625,53.0,72.0
104,17.7488458875,17.9238457125,60.0,40.0
105,16.1124838875,17.969300212500002,41.0,76.0
106,17.7488458875,18.009072900000003,65.0,39.0
107,18.294299887500003,18.7124812875,62.0,54.0
108,18.294299887500003,18.7511176125,65.0,54.0
109,18.294299887500003,19.50452595,58.0,62.0
110,19.112480887500002,19.652253075,60.0,43.0
111,19.112480887500002,19.674980325,65.0,55.0
112,18.294299887500003,19.7363439,70.0,50.0
113,19.6579348875,20.0283890625,58.0,48.0
114,18.294299887500003,20.1283889625,46.0,56.0
115,19.9306618875,20.2624797375,60.0,51.0
116,19.9306618875,20.430661387500002,65.0,66.0
117,20.4761158875,20.9545245,65.0,48.0
118,20.4761158875,21.126115237500002,60.0,54.0
119,20.4761158875,21.688614675,57.0,47.0
120,21.294296887500003,21.939750787500003,65.0,58.0
121,21.294296887500003,21.949978050000002,60.0,49.0
122,22.112477887500003,22.393159425,57.0,37.0
123,20.4761158875,22.4090685,45.0,53.0
124,22.385204887500002,22.835204437500003,65.0,53.0
125,22.657931887500002,23.045431500000003,62.0,63.0
126,22.657931887500002,23.0533860375,58.0,59.0
127,23.2033858875,23.4454311,57.0,27.0
128,22.9306588875,23.8170216375,55.0,44.0
129,23.4761128875,24.069294112500003,58.0,63.0
130,23.4761128875,24.085203187500003,62.0,64.0
131,24.0215668875,24.392021062500003,55.0,41.0
132,22.657931887500002,24.4442937375,43.0,70.0
133,24.2942938875,24.571566337500002,57.0,50.0
134,24.2942938875,24.5999754,60.0,57.0
135,24.567020887500004,25.212474787500003,62.0,55.0
136,24.839747887500003,25.2272475,58.0,58.0
137,25.385201887500003,25.689747037500002,57.0,44.0
138,25.657928887500002,26.338610025,62.0,61.0
139,25.657928887500002,26.361337275,58.0,63.0
140,25.112474887500003,26.5170189375,53.0,47.0
141,24.839747887500003,26.587473412500003,41.0,61.0
142,26.4761098875,26.735200537500003,60.0,50.0
143,26.7488368875,26.9874730125,62.0,55.0
144,27.0215638875,27.382927162500003,55.0,56.0
145,27.0215638875,27.436336200000003,58.0,59.0
146,27.839744887500004,28.213608150000002,58.0,49.0
147,27.2942908875,28.217017237500002,51.0,48.0
148,27.5670178875,28.242017212500002,55.0,45.0
149,27.839744887500004,28.379517075000003,63.0,67.0
150,27.0215638875,28.6874713125,39.0,61.0
151,28.385198887500003,28.738607625000004,51.0,32.0
152,28.657925887500003,28.964743762500003,55.0,49.0
153,28.930652887500003,29.237470762500003,63.0,58.0
154,29.203379887500002,29.569288612500003,53.0,54.0
155,29.203379887500002,29.604515850000002,62.0,62.0
156,29.748833887500002,30.311333325000003,53.0,48.0
157,29.476106887500002,30.406787775,50.0,48.0
158,29.203379887500002,30.668151150000003,38.0,66.0
159,30.0215608875,30.684060225000003,58.0,72.0
160,30.5670148875,30.822696450000002,50.0,40.0
161,30.8397418875,31.15905975,60.0,57.0
162,31.112468887500004,31.317014137500003,62.0,57.0
163,31.385195887500004,31.6351956375,36.0,60.0
164,31.657922887500003,31.987468012500003,48.0,50.0
165,31.385195887500004,31.9920134625,55.0,56.0
166,31.385195887500004,32.2817859,63.0,72.0
167,31.385195887500004,32.3033767875,58.0,62.0
168,31.930649887500003,32.329513125000005,50.0,63.0
169,32.2033768875,32.8601944125,51.0,73.0
170,32.748830887500006,33.011330625,55.0,57.0
171,33.0215578875,33.2090577,58.0,49.0
172,33.294284887500005,33.7988298375,63.0,54.0
173,33.294284887500005,33.8420116125,58.0,37.0
174,33.4306483875,33.843147975,55.0,22.0
175,34.1124658875,34.3624656375,55.0,53.0
176,34.385192887500004,34.542010912500004,58.0,61.0
177,34.930646887500004,35.148828487500005,63.0,49.0
178,35.2033738875,35.467009987500006,65.0,49.0
179,33.5670118875,35.473828162500006,41.0,63.0
180,33.839738887500005,35.506782675000004,53.0,49.0
181,35.4761008875,35.7454188,70.0,51.0
182,35.748827887500006,36.1601911125,46.0,34.0
183,36.0215548875,36.284054625,53.0,52.0
184,36.294281887500006,36.6192815625,58.0,50.0
185,35.748827887500006,36.946553962500005,72.0,53.0
186,36.839735887500005,37.409053500000006,62.0,64.0
187,36.5670088875,37.410189862500005,60.0,66.0
188,37.1124628875,37.4454171,65.0,50.0
189,37.385189887500005,37.635189637500005,70.0,56.0
190,37.6579168875,38.002234725,74.0,62.0
191,37.930643887500004,38.2079163375,72.0,63.0
192,37.930643887500004,38.2465526625,65.0,56.0
193,38.2033708875,39.019279162500005,57.0,54.0
194,38.4760978875,39.334051575000004,60.0,50.0
195,38.7488248875,39.4033696875,65.0,64.0
196,39.294278887500006,39.5851876875,57.0,57.0
197,39.5670058875,39.871551037500005,67.0,61.0
198,37.930643887500004,40.01359635,45.0,63.0
199,39.839732887500006,40.059050850000006,69.0,57.0
200,40.1124598875,40.6215502875,70.0,73.0
201,40.1124598875,40.6272321,62.0,52.0
202,40.1124598875,40.674959325,65.0,55.0
203,40.6579138875,41.1726861,55.0,49.0
204,40.930640887500005,41.4579130875,62.0,50.0
205,40.930640887500005,41.499958500000005,65.0,53.0
206,40.930640887500005,41.51132212500001,70.0,54.0
207,40.385186887500005,41.636322,50.0,55.0
208,40.1124598875,41.6851855875,43.0,62.0
209,41.476094887500004,41.8283672625,55.0,44.0
210,41.7488218875,41.929503525,62.0,55.0
211,41.7488218875,41.976094387500005,65.0,55.0
212,41.7488218875,42.24086685,70.0,67.0
213,42.29427588750001,42.602230125000006,60.0,52.0
214,42.29427588750001,42.6124573875,69.0,53.0
215,42.29427588750001,42.6181392,65.0,59.0
216,42.5670028875,43.3760929875,57.0,51.0
217,42.839729887500006,43.535183737500006,60.0,49.0
218,43.1124568875,43.634047275,65.0,61.0
219,43.1124568875,43.6442745375,69.0,57.0
220,43.6579108875,44.087455912500005,57.0,64.0
221,43.930637887500005,44.1647285625,60.0,47.0
222,43.930637887500005,44.205637612500006,65.0,63.0
223,44.2033648875,44.431773750000005,70.0,51.0
224,42.29427588750001,44.493137325000006,50.0,55.0
225,44.476091887500004,44.814727912500004,63.0,61.0
226,44.476091887500004,44.857909687500005,67.0,63.0
227,44.476091887500004,45.1420003125,58.0,61.0
228,45.021545887500004,45.253363837500004,63.0,60.0
229,45.2942728875,45.703363387500005,58.0,61.0
230,45.2942728875,45.86813595,65.0,66.0
231,45.83972688750001,46.021544887500006,58.0,54.0
232,44.476091887500004,46.265862825000006,51.0,62.0
233,46.1124538875,46.329499125000005,63.0,64.0
234,46.385180887500006,46.68518058750001,67.0,63.0
235,46.6579078875,47.1147256125,58.0,61.0
236,46.6579078875,47.17381646250001,65.0,69.0
237,47.2033618875,47.4601798125,58.0,46.0
238,47.476088887500005,47.92495207500001,58.0,44.0
239,47.476088887500005,48.064724662500005,62.0,73.0
240,46.6579078875,48.334042575000005,50.0,48.0
241,48.021542887500004,48.40449705,65.0,70.0
242,48.2942698875,48.61472411250001,67.0,59.0
243,48.566996887500004,48.893132925,70.0,63.0
244,48.83972388750001,49.185178087500006,58.0,57.0
245,48.83972388750001,49.229496225000005,63.0,61.0
246,48.83972388750001,49.2329053125,67.0,59.0
247,49.1124508875,49.8851773875,55.0,50.0
248,49.6579048875,50.145404400000004,67.0,63.0
249,49.6579048875,50.184040725,63.0,62.0
250,49.38517788750001,50.206767975000005,58.0,54.0
251,48.83972388750001,50.4283586625,48.0,61.0
252,50.2033588875,50.438585925000005,55.0,53.0
253,50.476085887500005,50.7056311125,58.0,58.0
254,50.476085887500005,50.746540162500004,63.0,60.0
255,50.476085887500005,50.843130975,67.0,55.0
256,51.021539887500005,51.371539537500006,70.0,54.0
257,51.021539887500005,51.379494075000004,67.0,56.0
258,51.021539887500005,51.3942667875,63.0,60.0
259,51.021539887500005,51.41358495,58.0,55.0
260,51.83972088750001,52.35903855,58.0,69.0
261,51.566993887500004,52.423811212500006,53.0,47.0
262,52.38517488750001,52.768129050000006,60.0,69.0
263,51.021539887500005,52.8090381,41.0,55.0
264,51.2942668875,52.82267445,48.0,64.0
265,52.6579018875,52.863583500000004,53.0,44.0
266,52.930628887500006,53.057901487500004,63.0,67.0
267,53.20449225,53.51244648750001,65.0,45.0
268,53.20449225,53.5238101125,46.0,59.0
269,53.20449225,53.543128275,58.0,69.0
270,53.20449225,53.543128275,62.0,63.0
271,53.20449225,53.5488100875,53.0,57.0
272,53.20449225,53.5533555375,34.0,59.0
273,53.61244638750001,53.715855375000004,58.0,66.0
274,53.61244638750001,53.72608263750001,53.0,64.0
275,53.61244638750001,53.7363099,62.0,62.0
276,53.61244638750001,53.75676442500001,34.0,63.0
277,53.61244638750001,53.7738098625,46.0,67.0
278,54.021536887500005,54.32721840000001,46.0,61.0
279,54.021536887500005,54.585172687500005,65.0,50.0
280,54.021536887500005,54.598809037500004,62.0,66.0
281,54.021536887500005,54.6192635625,58.0,70.0
282,54.021536887500005,54.63403627500001,53.0,62.0
283,54.566990887500005,54.90335418750001,46.0,39.0
284,54.8397178875,55.08517218750001,58.0,67.0
285,54.8397178875,55.086308550000005,53.0,60.0
286,54.8397178875,55.1510812125,62.0,64.0
287,54.021536887500005,55.2510811125,34.0,69.0
288,55.112444887500004,55.3397173875,46.0,49.0
289,55.38517188750001,56.68176150000001,65.0,49.0
290,55.38517188750001,56.6874433125,60.0,62.0
291,55.38517188750001,56.693125125,57.0,67.0
292,55.38517188750001,56.796534112500005,41.0,73.0
293,57.566987887500005,57.866987587500006,62.0,54.0
294,57.566987887500005,58.0760782875,70.0,67.0
295,58.112441887500005,58.248805387500006,60.0,40.0
296,58.112441887500005,58.4078961375,69.0,56.0
297,58.38516888750001,58.8851683875,62.0,62.0
298,57.8397148875,58.9465319625,53.0,58.0
299,58.38516888750001,58.9851682875,58.0,62.0
300,58.38516888750001,59.00562281250001,70.0,66.0
301,58.93062288750001,59.096531812500004,65.0,67.0
302,57.566987887500005,59.21925896250001,46.0,69.0
303,59.2033498875,59.4181224,53.0,57.0
304,59.47607688750001,59.603349487500004,69.0,38.0
305,59.47607688750001,60.15903075000001,60.0,44.0
306,59.7488038875,60.186303450000004,45.0,53.0
307,59.47607688750001,60.20789433750001,65.0,57.0
308,60.2942578875,60.755621062500005,57.0,57.0
309,60.566984887500006,60.884030025,60.0,61.0
310,59.47607688750001,60.90903,72.0,72.0
311,60.8397118875,61.143120675000006,65.0,67.0
312,61.112438887500005,61.33516593750001,67.0,63.0
313,60.021530887500006,61.4351658375,53.0,56.0
314,61.38516588750001,61.524938475000006,57.0,52.0
315,61.38516588750001,61.62948382500001,69.0,66.0
316,61.657892887500005,61.769256412500006,72.0,61.0
317,61.794256387500006,61.89993810000001,69.0,34.0
318,61.93061988750001,62.245392300000006,62.0,62.0
319,61.93061988750001,62.314710412500006,65.0,70.0
320,61.93061988750001,62.43743756250001,70.0,62.0
321,62.47607388750001,62.591982862500004,60.0,46.0
322,62.47607388750001,62.711300925,69.0,61.0
323,62.203346887500004,62.836300800000004,50.0,51.0
324,62.7488008875,62.846528062500006,65.0,59.0
325,62.7488008875,62.9181189,70.0,72.0
326,61.93061988750001,63.42152748750001,43.0,70.0
327,63.2942548875,63.4510729125,50.0,75.0
328,62.7488008875,63.4760728875,55.0,60.0
329,63.566981887500006,63.7760725875,65.0,72.0
330,63.70334538750001,63.956754225000005,70.0,62.0
331,63.8397088875,64.0737995625,72.0,58.0
332,64.1124358875,64.1965267125,74.0,29.0
333,64.1124358875,64.729480725,65.0,48.0
334,64.1124358875,64.74993525000001,77.0,53.0
335,64.93061688750001,65.20902570000001,72.0,64.0
336,64.93061688750001,65.3078892375,65.0,50.0
337,64.6578898875,65.52266175000001,62.0,69.0
338,64.3851628875,65.54084355,57.0,57.0
339,65.4760708875,65.78288876250001,70.0,70.0
340,64.1124358875,65.87720685000001,50.0,64.0
341,65.7487978875,65.87720685000001,69.0,61.0
342,65.7487978875,65.8874341125,57.0,57.0
343,66.02152488750001,66.22720650000001,65.0,61.0
344,66.29425188750001,66.66016061250001,67.0,69.0
345,66.29425188750001,66.66584242500001,58.0,60.0
346,66.29425188750001,66.69084240000001,63.0,63.0
347,66.8397058875,67.06584202500001,58.0,63.0
348,66.5669788875,67.39311442500001,55.0,70.0
349,67.1124328875,67.7442504375,58.0,61.0
350,67.1124328875,67.7647049625,63.0,78.0
351,67.6578868875,67.9578865875,55.0,69.0
352,66.29425188750001,68.0897046375,51.0,50.0
353,67.9306138875,68.1715227375,65.0,72.0
354,68.2033408875,68.38629525,70.0,54.0
355,68.47606788750001,68.7999312,62.0,62.0
356,68.47606788750001,68.85674932500001,70.0,52.0
357,68.47606788750001,68.87606748750001,65.0,69.0
358,69.0215218875,69.5487940875,62.0,61.0
359,69.2942488875,69.63743036250001,65.0,72.0
360,69.5669758875,69.86129377500001,70.0,66.0
361,69.83970288750001,70.07833901250001,74.0,56.0
362,70.1124298875,70.229475225,62.0,56.0
363,68.74879488750001,70.293111525,58.0,56.0
364,68.47606788750001,70.3124296875,50.0,69.0
365,70.1124298875,70.40333868750001,77.0,62.0
366,70.3851568875,70.5601567125,75.0,70.0
367,70.6578838875,71.14765612500001,48.0,67.0
368,70.93061088750001,71.20333788750001,55.0,56.0
369,70.6578838875,71.220383325,75.0,63.0
370,71.20333788750001,71.34083775,67.0,52.0
371,71.20333788750001,71.456746725,74.0,56.0
372,71.20333788750001,71.565837525,60.0,54.0
373,71.4760648875,71.83629180000001,67.0,61.0
374,71.4760648875,71.91583717500001,75.0,62.0
375,72.02151888750001,72.0919733625,75.0,45.0
376,71.7487918875,72.1124278875,63.0,70.0
377,71.4760648875,72.1237915125,62.0,66.0
378,72.02151888750001,72.1533369375,67.0,51.0
379,72.02151888750001,72.27151863750001,74.0,66.0
380,72.29424588750001,72.56015471250001,70.0,60.0
381,72.8396998875,73.12265415,72.0,67.0
382,72.5669728875,73.1669722875,65.0,64.0
383,73.6578808875,73.78515348750001,58.0,59.0
384,73.7942443875,73.874926125,60.0,61.0
385,73.9306078875,74.10447135000001,63.0,85.0
386,74.0669713875,74.1999258,65.0,69.0
387,74.2033348875,74.2828802625,67.0,66.0
388,74.33969838750001,74.57037997500001,70.0,82.0
389,72.8396998875,74.5908345,41.0,69.0
390,73.1124268875,74.6328799125,48.0,69.0
391,74.47606188750001,74.702198025,72.0,66.0
392,73.38515388750001,74.84992515,53.0,64.0
393,74.61242538750001,74.9328796125,74.0,61.0
394,74.8851523875,74.965834125,77.0,56.0
395,74.74878888750001,75.02606133750001,75.0,63.0
396,75.0215158875,75.3465155625,77.0,75.0
397,75.83969688750001,76.0101512625,62.0,69.0
398,75.83969688750001,76.01356035,65.0,67.0
399,75.83969688750001,76.20333288750001,70.0,76.0
400,76.1124238875,76.302196425,60.0,61.0
401,76.1124238875,76.43969628750001,69.0,64.0
402,75.56696988750001,76.4635599,58.0,66.0
403,76.3851508875,76.6828778625,65.0,69.0
404,75.0215158875,76.856741325,46.0,70.0
405,76.6578778875,76.856741325,58.0,59.0
406,75.2942428875,76.99537755,53.0,64.0
407,76.6578778875,77.1090138,70.0,60.0
408,76.93174125,77.5987860375,60.0,59.0
409,76.93174125,77.65560416250001,65.0,66.0
410,78.02151288750001,78.18855817500001,60.0,63.0
411,77.7487858875,78.39083070000001,57.0,63.0
412,78.29423988750001,78.5806032375,65.0,59.0
413,78.5669668875,78.83287571250001,67.0,69.0
414,78.8396938875,78.9817392,57.0,57.0
415,77.2033318875,79.00219372500001,45.0,72.0
416,77.4760588875,79.0090119,53.0,67.0
417,78.8396938875,79.097648175,69.0,76.0
418,79.11242088750001,79.36810245000001,72.0,62.0
419,79.38514788750001,79.76810205000001,70.0,70.0
420,79.93173825000001,80.2828742625,55.0,58.0
421,80.20446525000001,80.37832871250001,62.0,60.0
422,80.47605588750001,80.60673757500001,60.0,46.0
423,80.20446525000001,80.63401027500001,70.0,75.0
424,80.47605588750001,80.715828375,69.0,54.0
425,80.74878288750001,81.088555275,60.0,61.0
426,80.74878288750001,81.1181007,65.0,66.0
427,81.0215098875,81.15673702500001,55.0,63.0
428,79.38514788750001,81.16696428750001,43.0,69.0
429,79.65901125,81.1999188,50.0,67.0
430,81.2942368875,81.4624185375,60.0,60.0
431,81.56696388750001,81.8101454625,38.0,70.0
432,81.83969088750001,82.18059963750001,50.0,59.0
433,81.56696388750001,82.2828722625,69.0,52.0
434,81.56696388750001,82.3908267,65.0,66.0
435,81.56696388750001,82.4215084875,60.0,63.0
436,82.3851448875,82.80332628750001,57.0,80.0
437,82.65787188750001,82.9851442875,60.0,58.0
438,82.65787188750001,82.98855337500001,65.0,66.0
439,82.93059888750001,83.120371425,57.0,55.0
440,82.1124178875,83.2510531125,53.0,61.0
441,83.2033258875,83.506734675,60.0,67.0
442,83.4760528875,83.6817345,65.0,59.0
443,83.7487798875,84.2533248375,55.0,66.0
444,83.7487798875,84.306733875,58.0,72.0
445,83.7487798875,84.34991565,62.0,64.0
446,84.29423388750001,84.797642475,51.0,63.0
447,84.5669608875,85.1533239375,58.0,72.0
448,84.5669608875,85.16241483750001,63.0,72.0
449,84.5669608875,85.170369375,55.0,64.0
450,84.02150688750001,85.3396873875,46.0,67.0
451,85.11241488750001,85.46241453750001,51.0,49.0
452,85.38514188750001,85.58627805,63.0,78.0
453,85.38514188750001,85.62036892500001,55.0,67.0
454,85.38514188750001,85.624914375,58.0,72.0
455,83.7487798875,85.64536890000001,39.0,70.0
456,85.6578688875,85.9283231625,46.0,41.0
457,85.9305958875,86.30445915000001,62.0,70.0
458,85.9305958875,86.34877728750001,58.0,72.0
459,85.9305958875,86.61241338750001,65.0,66.0
460,86.20332288750001,87.04536750000001,50.0,62.0
461,86.7487768875,87.338549025,65.0,35.0
462,86.47604988750001,87.37491262500001,53.0,69.0
463,85.9305958875,87.3828671625,38.0,66.0
464,86.7487768875,87.40559441250001,58.0,75.0
465,87.2942308875,87.56695788750001,50.0,61.0
466,87.56695788750001,87.879457575,60.0,72.0
467,87.84082125,88.10786643750001,62.0,63.0
468,88.1124118875,88.40445705,58.0,72.0
469,88.1124118875,88.50332058750001,63.0,64.0
470,88.93059288750001,89.2374107625,63.0,69.0
471,88.65786588750001,89.28059253750001,58.0,63.0
472,89.2033198875,89.4760468875,67.0,59.0
473,89.4760468875,89.8010465625,70.0,63.0
474,89.74877388750001,89.897637375,60.0,56.0
475,88.3851388875,89.90218282500001,55.0,52.0
476,88.1124118875,89.96809185000001,48.0,67.0
477,89.74877388750001,90.04422813750001,69.0,75.0
478,90.02150088750001,90.3305914875,63.0,63.0
479,90.29422788750001,90.6442275375,65.0,67.0
480,91.11240888750001,91.424908575,58.0,69.0
481,91.38513588750001,91.561272075,60.0,56.0
482,91.6578628875,91.7908173,65.0,63.0
483,91.6578628875,91.83513543750001,63.0,61.0
484,90.8396818875,92.15899875000001,53.0,78.0
485,91.9305898875,92.1999078,65.0,59.0
486,92.20331688750001,92.5328620125,70.0,64.0
487,92.47604388750001,93.09763417500001,53.0,53.0
488,92.47604388750001,93.15558866250001,60.0,62.0
489,92.47604388750001,93.21695223750001,69.0,57.0
490,93.29422488750001,93.65558816250001,60.0,64.0
491,93.29422488750001,93.6817245,65.0,66.0
492,93.56695188750001,93.91354245000001,53.0,50.0
493,90.5669548875,93.93626970000001,48.0,67.0
494,90.29422788750001,93.970360575,41.0,66.0
495,93.83967888750001,94.00217872500001,60.0,49.0
496,94.1124058875,94.2760420875,65.0,51.0
497,94.65785988750001,94.96581412500001,67.0,45.0
498,94.65785988750001,94.9726323,58.0,56.0
499,94.65785988750001,95.00445045000001,63.0,58.0
500,95.2033138875,95.37149553750001,58.0,52.0
501,94.93058688750001,95.6783134125,53.0,54.0
502,95.4760408875,95.9169495375,58.0,59.0
503,95.4760408875,95.95217677500001,62.0,60.0
504,95.4760408875,96.0453585,65.0,63.0
505,96.02149488750001,96.3783127125,53.0,63.0
506,96.2942218875,96.49081260000001,58.0,50.0
507,96.2942218875,96.5283125625,63.0,53.0
508,94.65785988750001,96.633994275,46.0,69.0
509,96.2942218875,96.6646760625,67.0,61.0
510,96.5669488875,96.6828578625,53.0,54.0
511,96.83967588750001,96.95899395,62.0,72.0
512,96.83967588750001,96.9669484875,65.0,73.0
513,96.83967588750001,96.9692212125,58.0,62.0
514,96.83967588750001,96.98967573750001,46.0,66.0
515,99.0214918875,99.3714915375,62.0,69.0
516,99.0214918875,99.44194601250001,65.0,72.0
517,99.0214918875,99.5010368625,70.0,73.0
518,99.8396728875,100.24762702500001,60.0,56.0
519,99.8396728875,100.39535415,65.0,58.0
520,99.8396728875,100.4010359625,69.0,58.0
521,99.0214918875,100.61921756250001,58.0,57.0
522,99.0214918875,100.66126297500001,46.0,62.0
523,100.65785388750001,100.78626285000001,62.0,59.0
524,100.65785388750001,100.793081025,65.0,69.0
525,100.65785388750001,100.820353725,70.0,75.0
526,101.2033078875,101.58626205,60.0,61.0
527,101.2033078875,101.6089893,65.0,64.0
528,101.2033078875,101.64989835000002,72.0,52.0
529,101.2033078875,101.6533074375,69.0,67.0
530,101.2033078875,102.62148828750001,57.0,49.0
531,102.02148888750001,102.6783064125,65.0,63.0
532,102.5669428875,102.77944267500001,72.0,69.0
533,101.2033078875,102.97376066250001,45.0,54.0
534,102.83966988750001,102.98626065,57.0,40.0
535,103.38512388750001,103.8351234375,65.0,53.0
536,103.38512388750001,103.8555779625,58.0,55.0
537,103.38512388750001,103.8851233875,62.0,55.0
538,103.93057788750001,104.12262315000001,58.0,55.0
539,103.38512388750001,104.37716835,55.0,55.0
540,104.20330488750001,104.702168025,65.0,70.0
541,104.20330488750001,104.74534980000001,58.0,56.0
542,104.20330488750001,104.74534980000001,62.0,72.0
543,104.7487588875,105.06125857500001,55.0,52.0
544,105.0214858875,105.143076675,65.0,70.0
545,105.0214858875,105.1510312125,58.0,72.0
546,103.38512388750001,105.16353120000001,43.0,62.0
547,105.56693988750001,105.8544396,38.0,66.0
548,105.56693988750001,106.04080305000001,60.0,50.0
549,105.8396668875,106.16125747500001,50.0,62.0
550,105.56693988750001,106.1646665625,57.0,63.0
551,105.56693988750001,106.4533026375,65.0,67.0
552,106.38512088750001,106.9453476,57.0,64.0
553,106.1123938875,107.25671092500001,53.0,55.0
554,106.93057488750001,107.2760290875,65.0,70.0
555,107.2033018875,107.28171090000001,57.0,67.0
556,106.93057488750001,107.33739266250001,60.0,67.0
557,107.47602888750001,107.69875593750001,62.0,64.0
558,107.74875588750001,108.347618925,55.0,62.0
559,107.74875588750001,108.347618925,63.0,72.0
560,107.74875588750001,108.37375526250001,58.0,61.0
561,108.5669368875,109.0214818875,55.0,59.0
562,108.2942098875,109.14079995,51.0,69.0
563,109.11239088750001,109.4692087125,63.0,75.0
564,109.11239088750001,109.47716325,58.0,75.0
565,108.02148288750001,109.488526875,46.0,63.0
566,109.3851178875,109.515799575,51.0,59.0
567,107.74875588750001,109.53966318750001,39.0,66.0
568,109.93057188750001,110.30102606250001,53.0,66.0
569,109.93057188750001,110.32829876250001,62.0,62.0
570,109.93057188750001,110.33852602500001,58.0,73.0
571,109.93057188750001,110.34534420000001,65.0,60.0
572,110.47602588750001,110.615798475,65.0,29.0
573,110.47602588750001,110.81693463750001,53.0,49.0
574,110.20329888750001,111.029434425,50.0,53.0
575,110.7487528875,111.2987523375,58.0,80.0
576,111.29420688750001,111.60784293750001,50.0,48.0
577,109.93057188750001,111.69079740000001,38.0,69.0
578,111.56693388750001,111.86125177500001,62.0,63.0
579,111.8396608875,111.9782971125,63.0,48.0
580,112.1123878875,112.44647846250001,63.0,69.0
581,112.1123878875,112.49647841250001,55.0,63.0
582,112.1123878875,112.497614775,58.0,66.0
583,112.65784188750001,112.861250775,55.0,58.0
584,112.38511488750001,113.0169324375,48.0,49.0
585,112.93056888750002,113.39647751250001,63.0,73.0
586,112.93056888750002,113.40670477500001,55.0,61.0
587,112.93056888750002,113.5055683125,58.0,67.0
588,112.1123878875,113.53170465000001,36.0,72.0
589,113.47602288750001,113.6192045625,48.0,61.0
590,113.74874988750001,113.91806790000001,55.0,56.0
591,114.02147688750001,114.12829496250001,58.0,82.0
592,114.5669308875,114.674885325,63.0,73.0
593,114.5669308875,114.67943077500001,55.0,63.0
594,114.5669308875,114.68170350000001,58.0,72.0
595,114.5669308875,114.7055671125,41.0,69.0
596,114.5669308875,114.7055671125,53.0,75.0
597,115.11238488750001,115.46692998750001,53.0,70.0
598,115.11238488750001,115.70442975,63.0,75.0
599,115.11238488750001,115.74192971250001,55.0,70.0
600,115.11238488750001,115.76692968750001,58.0,75.0
601,115.6578388875,115.99192946250001,53.0,62.0
602,115.11238488750001,116.06692938750001,41.0,72.0
603,115.93056588750001,116.1714747375,57.0,67.0
604,115.93056588750001,116.21920196250001,60.0,66.0
605,115.93056588750001,116.27488372500001,65.0,66.0
606,116.47601988750002,116.82488317500001,53.0,59.0
607,116.47601988750002,116.83397407500001,58.0,70.0
608,116.47601988750002,116.83624680000001,62.0,67.0
609,116.47601988750002,117.070337475,46.0,67.0
610,116.47601988750002,117.0737465625,34.0,69.0
611,117.02147388750001,117.49533705,62.0,67.0
612,117.02147388750001,117.53510973750001,58.0,67.0
613,117.02147388750001,117.5373824625,53.0,64.0
614,117.29420088750001,118.0873819125,34.0,51.0
615,117.8396548875,118.09079100000001,60.0,73.0
616,117.8396548875,118.133972775,53.0,69.0
617,117.29420088750001,118.1873818125,46.0,47.0
618,118.1123818875,118.41919976250001,62.0,67.0
619,118.38510888750001,118.57942687500001,65.0,59.0
620,118.65783588750001,118.8919265625,46.0,47.0
621,118.65783588750001,119.00442645000001,57.0,61.0
622,118.65783588750001,119.0362446,60.0,67.0
623,118.65783588750001,119.0396536875,65.0,51.0
624,119.2032898875,119.3532897375,57.0,56.0
625,118.9305628875,119.65783488750002,53.0,49.0
626,119.47601688750001,119.99874363750001,65.0,73.0
627,119.47601688750001,120.03510723750001,60.0,69.0
628,119.47601688750001,120.0998799,57.0,64.0
629,120.02147088750002,120.37147053750002,53.0,58.0
630,118.65783588750001,120.46237953750001,45.0,46.0
631,120.2941978875,120.50101586250001,65.0,66.0
632,120.2941978875,120.52374311250001,60.0,64.0
633,120.2941978875,120.53510673750002,57.0,73.0
634,120.56692488750001,120.97601538750001,65.0,57.0
635,120.83965188750001,121.15669702500001,62.0,75.0
636,120.83965188750001,121.17260610000001,58.0,70.0
637,121.3851058875,121.61237838750002,57.0,47.0
638,121.11237888750001,121.8851053875,55.0,55.0
639,121.6578328875,122.143059675,62.0,76.0
640,121.6578328875,122.20101416250002,58.0,73.0
641,122.20328688750001,122.62146828750001,55.0,50.0
642,120.83965188750001,122.71351365000001,43.0,66.0
643,122.47601388750002,122.7351045375,57.0,64.0
644,122.47601388750002,122.86351350000001,65.0,72.0
645,122.7487408875,122.9623770375,62.0,64.0
646,123.02146788750001,123.34192211250001,62.0,55.0
647,123.02146788750001,123.37146753750001,57.0,62.0
648,123.56692188750002,123.7510126125,57.0,63.0
649,123.8396488875,123.9646487625,57.0,70.0
650,123.8396488875,123.983966925,62.0,76.0
651,123.29419488750001,124.04305777500001,50.0,67.0
652,123.02146788750001,124.70442075000001,38.0,53.0
653,124.65782988750001,124.82942062500001,62.0,70.0
654,124.38510288750001,124.8726024,50.0,54.0
655,124.9305568875,125.27714745000002,70.0,50.0
656,125.2032838875,125.55214717500002,58.0,72.0
657,125.2032838875,125.55441990000001,63.0,72.0
658,125.2032838875,125.63282891250002,67.0,73.0
659,125.74873788750001,125.88396502500001,58.0,58.0
660,125.74873788750001,126.01578307500002,65.0,63.0
661,125.47601088750001,126.16010111250002,51.0,54.0
662,126.02146488750002,126.56123707500001,67.0,72.0
663,126.02146488750002,126.5714643375,58.0,72.0
664,126.02146488750002,126.58396432500001,63.0,67.0
665,126.56691888750001,126.865782225,51.0,58.0
666,125.2032838875,126.91805490000002,39.0,66.0
667,126.83964588750001,127.04987295000001,58.0,59.0
668,127.11237288750002,127.33055448750001,67.0,52.0
669,127.3850998875,127.75782678750001,62.0,64.0
670,127.3850998875,127.76464496250001,58.0,73.0
671,127.3850998875,127.7737358625,65.0,63.0
672,127.93055388750001,128.0760082875,58.0,51.0
673,127.65782688750001,128.3600989125,50.0,54.0
674,128.2032808875,128.7805530375,65.0,62.0
675,128.2032808875,128.8055530125,62.0,63.0
676,128.2032808875,128.80668937500002,58.0,72.0
677,128.7487348875,129.11350725,50.0,56.0
678,127.3850998875,129.16691628750002,38.0,70.0
679,129.0214618875,129.22827986250002,58.0,72.0
680,129.2941888875,129.50555231250001,65.0,64.0
681,129.56691588750002,129.908961,67.0,75.0
682,129.56691588750002,129.91350645,58.0,69.0
683,129.56691588750002,129.92373371250002,63.0,60.0
684,130.11236988750002,130.2964606125,58.0,61.0
685,130.3850968875,130.543051275,63.0,59.0
686,129.83964288750002,130.98964173750002,48.0,50.0
687,130.9305508875,131.1191870625,58.0,80.0
688,130.9305508875,131.2032778875,63.0,93.0
689,130.9305508875,131.206686975,67.0,76.0
690,129.56691588750002,131.2487323875,36.0,72.0
691,131.2032778875,131.33964138750002,48.0,64.0
692,131.7487318875,132.04418613750002,41.0,70.0
693,131.7487318875,132.0578224875,53.0,76.0
694,131.7487318875,132.0623679375,58.0,76.0
695,131.7487318875,132.0646406625,63.0,73.0
696,131.7487318875,132.07145883750002,55.0,69.0
697,132.15895875,132.23850412500002,58.0,70.0
698,132.15895875,132.25554956250002,55.0,73.0
699,132.15895875,132.26804955,41.0,64.0
700,132.15895875,132.26804955,53.0,67.0
701,132.15895875,132.2737313625,63.0,76.0
702,132.56691288750002,132.8964580125,53.0,63.0
703,132.56691288750002,133.15895775,65.0,73.0
704,132.56691288750002,133.22600313750002,60.0,73.0
705,132.56691288750002,133.24077585,57.0,72.0
706,133.1123668875,133.49304832500002,53.0,53.0
707,133.3850938875,133.5032755875,57.0,70.0
708,133.3850938875,133.51463921250001,60.0,75.0
709,133.3850938875,133.5623664375,65.0,72.0
710,132.56691288750002,133.67713905000002,41.0,66.0
711,133.6578208875,133.99532055,48.0,66.0
712,133.9305478875,134.17600218750002,58.0,49.0
713,133.9305478875,134.1850930875,46.0,52.0
714,133.9305478875,134.1941839875,65.0,73.0
715,133.9305478875,134.2010021625,62.0,64.0
716,133.9305478875,134.2191839625,70.0,66.0
717,135.0214558875,135.76350060000001,53.0,58.0
718,135.0214558875,135.783955125,41.0,50.0
719,135.0214558875,135.87486412500002,60.0,62.0
720,135.0214558875,135.99190946250002,65.0,67.0
721,135.0214558875,136.0055458125,69.0,69.0
722,136.1123638875,136.4998635,65.0,50.0
723,136.1123638875,136.50327258750002,70.0,70.0
724,136.1123638875,136.50440895,62.0,57.0
725,136.65781788750002,136.8055450125,60.0,61.0
726,136.65781788750002,136.961226675,69.0,63.0
727,136.3850908875,137.133953775,53.0,66.0
728,136.93054488750002,137.506680675,62.0,69.0
729,136.93054488750002,137.50895340000002,70.0,69.0
730,136.93054488750002,137.70895320000002,58.0,58.0
731,136.1123638875,137.75895315000002,46.0,45.0
732,137.7487258875,137.9646347625,65.0,66.0
733,137.4759988875,137.9782711125,53.0,59.0
734,138.0214528875,138.8169066375,72.0,63.0
735,138.2941798875,138.870315675,65.0,66.0
736,138.2941798875,138.88054293750002,60.0,57.0
737,139.11236088750002,139.41917876250002,60.0,64.0
738,138.8396338875,139.65781488750002,57.0,59.0
739,139.38508788750002,139.69531485000002,65.0,57.0
740,139.65781488750002,139.8816783,67.0,64.0
741,139.9305418875,140.0646326625,57.0,52.0
742,138.5669068875,140.0805417375,53.0,52.0
743,138.2941798875,140.13395077500002,45.0,62.0
744,140.2032688875,140.31690513750002,72.0,56.0
745,139.9305418875,140.42940502500002,69.0,59.0
746,140.4759958875,140.7987228375,62.0,63.0
747,140.4759958875,140.92940452500002,65.0,63.0
748,140.4759958875,141.0759952875,70.0,70.0
749,141.0214498875,141.12372251250002,60.0,49.0
750,141.0214498875,141.2873587125,69.0,61.0
751,140.7487228875,141.3987222375,50.0,38.0
752,141.29417688750002,141.7373582625,62.0,61.0
753,141.56690388750002,141.7987218375,65.0,17.0
754,141.29417688750002,141.8100854625,70.0,61.0
755,141.29417688750002,141.8919035625,55.0,57.0
756,140.4759958875,141.89985810000002,43.0,63.0
757,141.83963088750002,142.01235798750002,50.0,58.0
758,142.11235788750002,142.343039475,62.0,58.0
759,142.3850848875,142.5907665,70.0,60.0
760,142.6578118875,143.2373567625,69.0,62.0
761,142.9305388875,143.68735631250001,57.0,62.0
762,143.2032658875,143.908947,62.0,62.0
763,143.4759928875,144.1919012625,65.0,63.0
764,144.02144688750002,144.28167390000002,57.0,62.0
765,142.6578118875,144.30440115000002,50.0,61.0
766,144.29417388750002,144.552128175,60.0,55.0
767,144.5669008875,144.7634916,65.0,60.0
768,144.8396278875,144.97599138750002,62.0,50.0
769,145.3850818875,145.911217725,51.0,60.0
770,145.1123548875,146.024853975,46.0,72.0
771,145.6578088875,146.18167200000002,63.0,75.0
772,145.6578088875,146.22258105,55.0,64.0
773,144.8396278875,146.2237174125,58.0,69.0
774,146.20326288750002,146.438489925,46.0,33.0
775,146.20326288750002,146.6509897125,51.0,57.0
776,146.47598988750002,146.77030777500002,55.0,62.0
777,144.8396278875,146.7725805,39.0,72.0
778,146.74871688750002,147.04303477500002,46.0,69.0
779,146.74871688750002,147.05439840000003,63.0,72.0
780,147.0214438875,147.55212517500001,62.0,72.0
781,147.0214438875,147.63167055000002,58.0,66.0
782,147.0214438875,147.65780688750002,53.0,64.0
783,147.8396248875,148.0237156125,53.0,70.0
784,148.1123518875,148.44076065000002,58.0,56.0
785,147.0214438875,148.50212422500002,38.0,69.0
786,147.2941708875,148.56348780000002,46.0,61.0
787,148.38507888750001,148.59644231250002,60.0,59.0
788,147.5668978875,148.6441695375,50.0,67.0
789,148.65780588750002,148.92030562500003,62.0,61.0
790,148.93053288750002,149.2543962,65.0,59.0
791,149.20325988750002,149.76348660000002,63.0,57.0
792,149.4759868875,150.3725769,55.0,54.0
793,150.0214408875,150.38621325000003,62.0,69.0
794,149.7487138875,150.63962208750002,60.0,63.0
795,149.20325988750002,150.9646217625,48.0,69.0
796,150.83962188750002,150.96916721250003,55.0,70.0
797,150.5668948875,150.98962173750002,70.0,72.0
798,150.2941678875,151.038485325,63.0,72.0
799,151.11234888750002,151.31348505000003,58.0,67.0
800,151.65780288750003,151.74075735000002,63.0,49.0
801,151.65780288750003,151.7487118875,67.0,46.0
802,151.65780288750003,151.75666642500002,58.0,48.0
803,151.65780288750003,151.770302775,53.0,57.0
804,151.65780288750003,151.77939367500002,41.0,70.0
805,151.9305298875,152.1078024375,53.0,62.0
806,151.9305298875,152.12825696250002,58.0,58.0
807,151.9305298875,152.152120575,63.0,46.0
808,151.9305298875,152.16121147500002,67.0,49.0
809,151.9305298875,152.270302275,41.0,67.0
810,151.9305298875,152.34984765000002,70.0,44.0
811,152.2032568875,152.3816658,53.0,59.0
812,152.4759838875,152.7646199625,65.0,61.0
813,152.4759838875,152.77371086250002,69.0,62.0
814,152.4759838875,152.7918926625,60.0,61.0
815,152.7487108875,153.0646196625,53.0,53.0
816,153.0214378875,153.2418922125,58.0,66.0
817,152.4759838875,153.26802855000003,41.0,70.0
818,153.0214378875,153.302119425,63.0,67.0
819,153.0214378875,153.48280106250002,67.0,64.0
820,153.29416488750002,153.57143733750002,53.0,73.0
821,153.56689188750002,153.84075525,58.0,62.0
822,153.56689188750002,154.1759821875,65.0,63.0
823,153.56689188750002,154.17711855000002,62.0,69.0
824,154.1123458875,154.5089364,58.0,66.0
825,154.3850728875,154.7146180125,60.0,61.0
826,154.3850728875,154.7305270875,65.0,67.0
827,154.6577998875,155.0737085625,62.0,60.0
828,153.83961888750002,155.23848112500002,53.0,66.0
829,154.9305268875,155.306662875,58.0,59.0
830,153.56689188750002,155.47143543750002,46.0,78.0
831,155.2032538875,155.529389925,60.0,66.0
832,155.2032538875,155.56688988750003,65.0,73.0
833,155.47598088750001,155.79302602500002,53.0,63.0
834,155.74870788750002,156.15552566250003,65.0,70.0
835,155.74870788750002,156.1725711,60.0,60.0
836,156.29416188750002,156.7396159875,57.0,64.0
837,156.5668888875,156.88279766250002,60.0,62.0
838,156.5668888875,156.89529765,65.0,70.0
839,156.8396158875,157.1805246375,67.0,59.0
840,156.02143488750002,157.2055246125,53.0,66.0
841,157.1123428875,157.3737062625,69.0,53.0
842,157.3850698875,157.50893340000002,53.0,40.0
843,157.3850698875,157.5737060625,57.0,70.0
844,157.3850698875,157.661205975,72.0,62.0
845,157.6577968875,157.9077966375,69.0,66.0
846,155.74870788750002,157.9123420875,45.0,64.0
847,157.93052388750002,158.2055236125,62.0,67.0
848,157.93052388750002,158.406659775,43.0,72.0
849,158.20325088750002,158.45893245000002,50.0,54.0
850,157.93052388750002,158.46347790000002,70.0,58.0
851,158.47597788750002,158.55893235000002,60.0,46.0
852,158.47597788750002,158.74870488750003,69.0,63.0
853,158.47597788750002,158.83052298750002,55.0,61.0
854,158.74870488750003,159.10438635,62.0,59.0
855,158.74870488750003,159.14870448750003,70.0,62.0
856,159.0214318875,159.45324963750002,58.0,69.0
857,158.74870488750003,159.4737041625,57.0,69.0
858,159.2941588875,159.48620415000002,62.0,60.0
859,159.5668858875,159.7998402,67.0,59.0
860,159.8396128875,160.06461266250002,70.0,63.0
861,160.1123398875,160.40324868750002,60.0,63.0
862,160.1123398875,160.6487029875,65.0,69.0
863,160.1123398875,160.6487029875,69.0,73.0
864,160.65779388750002,160.965748125,60.0,48.0
865,160.65779388750002,160.9714299375,62.0,52.0
866,160.93052088750002,161.6055202125,65.0,73.0
867,161.4759748875,161.73392917500001,60.0,59.0
868,160.38620325000002,161.765747325,57.0,53.0
869,160.1123398875,161.815747275,50.0,69.0
870,162.0214288875,162.1532469375,65.0,61.0
871,161.7487018875,162.30438315,62.0,61.0
872,162.2941558875,162.6805191375,55.0,53.0
873,162.2941558875,162.78506448750002,58.0,69.0
874,162.2941558875,162.87824621250002,63.0,64.0
875,162.83960988750002,162.96347340000003,53.0,53.0
876,162.83960988750002,163.13506413750002,62.0,66.0
877,162.56688288750001,163.2271095,46.0,66.0
878,163.11233688750002,163.62824546250002,63.0,64.0
879,163.11233688750002,163.6873363125,55.0,62.0
880,163.11233688750002,163.70665447500002,58.0,59.0
881,163.11233688750002,163.72938172500002,51.0,56.0
882,163.9305178875,164.21347215,55.0,61.0
883,162.2941558875,164.27369936250003,39.0,67.0
884,163.6577908875,164.3873356125,46.0,56.0
885,164.2032448875,164.4418810125,63.0,64.0
886,164.4759718875,165.01119862500002,62.0,67.0
887,164.4759718875,165.07256220000002,58.0,63.0
888,164.4759718875,165.074834925,53.0,58.0
889,165.29415288750002,165.6032434875,53.0,56.0
890,165.02142588750002,165.85437960000002,50.0,62.0
891,165.56687988750002,165.91119772500002,58.0,70.0
892,165.83960688750003,166.1032429875,60.0,56.0
893,166.1123338875,166.29415188750002,50.0,62.0
894,164.7486988875,166.29983370000002,46.0,61.0
895,164.4759718875,166.30551551250002,38.0,54.0
896,166.3850608875,166.48165170000001,65.0,61.0
897,166.1123338875,166.6805151375,62.0,62.0
898,166.6577878875,166.974833025,55.0,59.0
899,166.6577878875,167.106651075,58.0,60.0
900,166.6577878875,167.2123327875,63.0,69.0
901,167.2032418875,167.31005996250002,53.0,48.0
902,167.2032418875,167.4532416375,62.0,63.0
903,166.9305148875,167.7509686125,48.0,50.0
904,167.47596888750002,168.006650175,55.0,59.0
905,167.47596888750002,168.08846827500003,63.0,72.0
906,166.6577878875,168.10551371250003,36.0,73.0
907,167.47596888750002,168.1236955125,58.0,63.0
908,168.02142288750002,168.1964227125,48.0,66.0
909,168.29414988750003,168.51346785,55.0,57.0
910,168.29414988750003,168.5634678,62.0,72.0
911,168.5668768875,168.7236949125,63.0,57.0
912,168.5668768875,168.80437665000002,58.0,59.0
913,168.8396038875,168.98278556250003,55.0,44.0
914,169.1123308875,169.33164885000002,53.0,56.0
915,169.1123308875,169.52028502500002,63.0,63.0
916,169.1123308875,169.6907394,55.0,58.0
917,169.1123308875,169.7055121125,58.0,63.0
918,169.65778488750001,170.0282390625,53.0,50.0
919,169.93051188750002,170.19869343750003,55.0,58.0
920,169.93051188750002,170.34073875,63.0,64.0
921,169.93051188750002,170.388465975,58.0,66.0
922,170.20323888750002,170.50437495000003,53.0,58.0
923,169.1123308875,170.70323838750002,41.0,62.0
924,170.47596588750002,170.95323813750002,48.0,64.0
925,171.0214198875,171.8600554125,72.0,56.0
926,171.0214198875,171.9600553125,65.0,50.0
927,171.0214198875,171.9782371125,69.0,58.0
928,171.0214198875,171.99528255,53.0,50.0
929,171.0214198875,172.25778228750002,77.0,62.0
930,171.0214198875,172.40437305,41.0,57.0
931,172.11232788750002,172.45096391250001,65.0,56.0
932,172.38505488750002,172.67482732500002,53.0,50.0
933,172.65778188750002,172.84641806250002,70.0,58.0
934,172.93050888750003,173.23619040000003,74.0,57.0
935,173.2032358875,173.6032354875,72.0,62.0
936,173.2032358875,173.638462725,65.0,49.0
937,174.0214168875,174.4816437,60.0,72.0
938,173.7486898875,174.5305072875,58.0,50.0
939,173.4759628875,174.58505268750002,53.0,60.0
940,173.2032358875,174.92937052500002,46.0,66.0
941,174.83959788750002,174.95664322500002,53.0,20.0
942,174.56687088750002,174.97709775,62.0,58.0
943,174.83959788750002,175.047552225,58.0,59.0
944,175.11232488750002,175.3361883,63.0,49.0
945,175.38505188750003,176.3850508875,58.0,53.0
946,175.38505188750003,176.497550775,39.0,43.0
947,175.38505188750003,176.524823475,63.0,59.0
948,175.38505188750003,176.58959613750002,51.0,47.0
949,175.38505188750003,176.61686883750002,67.0,55.0
950,176.4759598875,177.1145956125,41.0,60.0
951,176.4759598875,177.124822875,60.0,59.0
952,176.4759598875,177.21005006250002,65.0,66.0
953,176.7486868875,177.274822725,69.0,26.0
954,177.56686788750002,177.9805038375,46.0,48.0
955,177.83959488750003,178.08277646250002,53.0,53.0
956,178.1123218875,178.45436700000002,58.0,54.0
957,177.56686788750002,178.62709410000002,74.0,51.0
958,178.3850488875,178.7964121125,60.0,60.0
959,178.6577758875,179.0736845625,62.0,61.0
960,178.9305028875,179.106639075,65.0,52.0
961,179.20322988750002,179.41004786250002,70.0,57.0
962,179.47595688750002,179.76459296250002,74.0,61.0
963,179.74868388750002,180.1464107625,72.0,63.0
964,180.29413788750003,180.82709190000003,69.0,61.0
965,180.5668648875,180.91004636250003,72.0,46.0
966,180.8395918875,181.11572797500003,77.0,64.0
967,181.1123188875,181.3452732,79.0,54.0
968,179.74868388750002,181.5055003125,57.0,48.0
969,180.02141088750002,181.511182125,65.0,56.0
970,181.3850458875,181.64754562500002,81.0,50.0
971,181.65777288750002,181.783909125,84.0,61.0
972,181.93049988750002,182.24072685000002,82.0,63.0
973,181.93049988750002,182.27936317500001,77.0,49.0
974,181.93049988750002,182.3123176875,74.0,59.0
975,182.20322688750002,183.02936242500002,62.0,56.0
976,182.47595388750003,183.106635075,67.0,56.0
977,182.7486808875,183.32368031250002,70.0,55.0
978,182.7486808875,183.3270894,74.0,45.0
979,183.2941348875,183.454362,69.0,48.0
980,183.2941348875,183.49072560000002,72.0,64.0
981,183.5668618875,183.75777078750002,70.0,64.0
982,181.93049988750002,183.765725325,55.0,63.0
983,183.5668618875,183.7782253125,74.0,63.0
984,183.5668618875,183.8543616,62.0,59.0
985,183.8395888875,184.01458871250003,77.0,53.0
986,184.11231588750002,184.64072445000002,74.0,62.0
987,184.11231588750002,184.6600426125,69.0,52.0
988,184.38504288750002,185.22936022500002,62.0,53.0
989,184.65776988750002,185.23504203750002,65.0,57.0
990,184.93049688750003,185.33504193750002,69.0,70.0
991,184.11231588750002,185.57822351250002,53.0,56.0
992,185.4759508875,185.61799620000002,62.0,61.0
993,185.7486778875,185.992995825,65.0,60.0
994,186.0214048875,186.2600410125,70.0,57.0
995,186.29413188750001,186.715722375,39.0,59.0
996,186.56685888750002,186.82254045000002,46.0,47.0
997,186.29413188750001,186.95208577500003,58.0,58.0
998,186.83958588750002,187.1691310125,51.0,53.0
999,186.29413188750001,187.2816309,63.0,60.0
1000,186.29413188750001,187.35890355,67.0,63.0
1001,187.38503988750003,187.71003956250001,58.0,61.0
1002,187.11231288750002,187.7191304625,55.0,48.0
1003,187.6577668875,187.82140308750002,63.0,59.0
1004,187.9304938875,188.16572092500002,65.0,51.0
1005,188.4759478875,188.68844767500002,38.0,64.0
1006,188.4759478875,189.05549276250002,58.0,60.0
1007,188.74867488750002,189.079356375,50.0,45.0
1008,188.2032208875,189.27708345000002,70.0,50.0
1009,188.4759478875,189.28276526250002,65.0,53.0
1010,189.56685588750003,189.75549206250002,62.0,72.0
1011,189.29412888750002,189.91003736250002,58.0,78.0
1012,189.02140188750002,190.04071905,53.0,64.0
1013,189.83958288750003,190.22026432500002,65.0,62.0
1014,190.1123098875,190.4782186125,67.0,70.0
1015,190.3850368875,191.002081725,70.0,60.0
1016,190.6577638875,191.0395816875,58.0,67.0
1017,190.6577638875,191.0850361875,63.0,72.0
1018,190.6577638875,191.11117252500003,67.0,73.0
1019,191.20321788750002,191.36458136250002,58.0,64.0
1020,191.20321788750002,191.433899475,65.0,54.0
1021,190.9304908875,191.62708110000003,48.0,61.0
1022,191.47594488750002,191.9054899125,67.0,66.0
1023,191.47594488750002,191.90889900000002,58.0,73.0
1024,191.47594488750002,191.98730801250002,63.0,75.0
1025,191.74867188750002,192.202080525,48.0,64.0
1026,192.02139888750003,192.3623076375,58.0,67.0
1027,190.6577638875,192.39753487500002,36.0,66.0
1028,192.2941258875,192.4907166,48.0,72.0
1029,192.2941258875,192.6236710125,63.0,70.0
1030,192.5668528875,192.6236710125,63.0,78.0
1031,192.5668528875,192.85321623750002,67.0,67.0
1032,192.5668528875,192.9270798,41.0,72.0
1033,192.5668528875,192.93730706250003,55.0,80.0
1034,192.5668528875,192.9395797875,58.0,82.0
1035,192.5668528875,192.94071615000001,53.0,82.0
1036,193.1123068875,193.683897225,53.0,91.0
1037,193.1123068875,193.69071540000002,65.0,72.0
1038,193.1123068875,193.715715375,41.0,64.0
1039,193.1123068875,193.715715375,60.0,78.0
1040,193.1123068875,193.72026082500003,57.0,76.0
1041,193.93048788750002,194.161169475,63.0,80.0
1042,193.93048788750002,194.1668512875,55.0,67.0
1043,193.93048788750002,194.1725331,39.0,66.0
1044,193.93048788750002,194.22366941250002,51.0,62.0
1045,193.93048788750002,194.3213965875,58.0,76.0
1046,194.47594188750003,194.59071450000002,53.0,69.0
1047,194.47594188750003,194.633896275,41.0,75.0
1048,194.47594188750003,194.742987075,57.0,78.0
1049,194.47594188750003,194.933895975,60.0,72.0
1050,194.47594188750003,195.0213958875,65.0,72.0
1051,195.0213958875,195.361168275,62.0,75.0
1052,195.0213958875,195.4100318625,53.0,73.0
1053,195.0213958875,195.41344095000002,58.0,76.0
1054,195.0213958875,195.638440725,46.0,73.0
1055,195.5668498875,195.83616780000003,65.0,37.0
1056,195.5668498875,195.8600314125,62.0,45.0
1057,195.5668498875,195.88048593750003,60.0,52.0
1058,195.5668498875,195.89184956250003,53.0,75.0
1059,195.5668498875,195.89184956250003,58.0,69.0
1060,195.0213958875,195.89753137500003,34.0,63.0
1061,195.83957688750002,195.94525860000002,46.0,39.0
1062,195.9759403875,196.0327585125,60.0,57.0
1063,195.9759403875,196.08048573750003,53.0,66.0
1064,196.38503088750002,196.66798515000002,65.0,54.0
1065,196.38503088750002,196.70775783750003,60.0,72.0
1066,196.38503088750002,196.7100305625,62.0,72.0
1067,196.38503088750002,196.72366691250002,53.0,73.0
1068,196.38503088750002,196.7259396375,58.0,73.0
1069,196.11230388750002,196.792985025,34.0,55.0
1070,196.11230388750002,196.83048498750003,46.0,44.0
1071,196.93048488750003,197.26230273750002,53.0,66.0
1072,196.93048488750003,197.2645754625,58.0,61.0
1073,196.93048488750003,197.29639361250003,62.0,69.0
1074,197.2032118875,197.29639361250003,62.0,31.0
1075,197.2032118875,197.4759388875,65.0,57.0
1076,197.2032118875,197.55093881250002,60.0,62.0
1077,197.2032118875,197.5759387875,69.0,69.0
1078,197.2032118875,197.83843852500002,38.0,59.0
1079,197.2032118875,197.85889305,50.0,59.0
1080,197.7486658875,198.2213926875,65.0,82.0
1081,197.7486658875,198.22366541250003,60.0,80.0
1082,197.7486658875,198.23389267500002,69.0,72.0
1083,198.15775638750003,198.5691196125,50.0,74.0
1084,198.15775638750003,198.77139213750002,38.0,69.0
1085,198.83957388750002,198.97252830000002,50.0,73.0
1086,198.56684688750002,198.9816192,69.0,77.0
1087,198.56684688750002,199.01798280000003,60.0,86.0
1088,198.56684688750002,199.03843732500002,65.0,87.0
1089,199.11230088750003,199.4145733125,41.0,76.0
1090,199.38502788750003,199.69411848750002,62.0,79.0
1091,199.38502788750003,199.69866393750002,58.0,75.0
1092,199.38502788750003,199.73389117500002,65.0,85.0
1093,199.9304818875,199.96570912500002,62.0,64.0
1094,199.9304818875,199.9918454625,58.0,76.0
1095,199.9304818875,200.00093636250003,65.0,69.0
1096,200.2032088875,200.25661792500003,65.0,22.0
1097,200.33957238750003,200.379345075,58.0,52.0
1098,200.33957238750003,200.38957233750003,57.0,64.0
1099,200.33957238750003,200.4032086875,62.0,69.0
1100,200.33957238750003,200.48275406250002,65.0,44.0
1101,200.2032088875,200.6736629625,55.0,39.0
1102,200.74866288750002,201.079344375,65.0,57.0
1103,200.74866288750002,201.09979890000002,57.0,77.0
1104,200.74866288750002,201.11457161250001,58.0,81.0
1105,200.74866288750002,201.11570797500002,62.0,84.0
1106,201.02138988750002,201.16570792500002,55.0,90.0
1107,199.38502788750003,201.23388967500003,43.0,90.0
1108,201.29411688750002,201.35888955000001,65.0,46.0
1109,201.29411688750002,201.36457136250002,57.0,54.0
1110,201.56684388750003,201.74298007500002,53.0,34.0
1111,201.56684388750003,201.7804800375,65.0,40.0
1112,201.70320738750002,201.79979820000003,55.0,20.0
1113,201.56684388750003,201.8304799875,57.0,47.0
1114,201.56684388750003,201.85547996250003,60.0,66.0
1115,201.56684388750003,201.96570712500002,50.0,67.0
1116,201.97593438750002,202.0179798,57.0,49.0
1117,201.97593438750002,202.02138888750002,53.0,68.0
1118,201.97593438750002,202.0304797875,60.0,59.0
1119,202.3850248875,202.41684303750003,57.0,71.0
1120,202.3850248875,202.4191157625,53.0,41.0
1121,202.3850248875,202.4236612125,60.0,50.0
1122,202.3850248875,202.4782066125,65.0,79.0
1123,202.52138838750002,202.55547926250003,62.0,21.0
1124,202.79411538750003,202.906615275,60.0,69.0
1125,202.93047888750002,203.06911511250001,65.0,71.0
1126,203.0668423875,203.09979690000003,67.0,76.0
1127,201.56684388750003,203.24411493750003,38.0,64.0
1128,203.20320588750002,203.2463876625,70.0,36.0
1129,203.20320588750002,203.3236603125,69.0,40.0
1130,202.24866138750002,203.38616025000002,50.0,37.0
1131,203.3395693875,203.50888740000002,70.0,46.0
1132,203.47593288750002,203.633887275,72.0,70.0
1133,203.6122963875,203.80888710000002,74.0,74.0
1134,203.74865988750003,203.9554778625,70.0,86.0
1135,203.74865988750003,203.96343240000002,67.0,60.0
1136,204.15775038750002,204.19638671250001,58.0,57.0
1137,204.15775038750002,204.19865943750003,63.0,74.0
1138,204.15775038750002,204.211159425,67.0,75.0
1139,204.5668408875,204.69865893750003,55.0,87.0
1140,204.5668408875,204.69865893750003,63.0,71.0
1141,204.5668408875,204.95206777500002,51.0,59.0
1142,204.97593138750003,205.0213858875,53.0,73.0
1143,204.97593138750003,205.0327495125,58.0,78.0
1144,205.24865838750003,205.45774908750002,51.0,49.0
1145,205.38502188750002,205.54183991250002,63.0,80.0
1146,205.38502188750002,205.68615795000002,53.0,90.0
1147,205.65774888750002,205.69865793750003,51.0,57.0
1148,205.38502188750002,205.7213851875,58.0,87.0
1149,203.74865988750003,205.7600215125,39.0,75.0
1150,205.93047588750002,206.1282029625,34.0,66.0
1151,205.93047588750002,206.14979385,65.0,48.0
1152,205.93047588750002,206.192975625,53.0,80.0
1153,205.93047588750002,206.20888470000003,46.0,75.0
1154,205.93047588750002,206.21456651250003,58.0,75.0
1155,205.93047588750002,206.22024832500003,62.0,77.0
1156,206.3395663875,206.3872936125,58.0,73.0
1157,206.3395663875,206.40661177500002,62.0,72.0
1158,206.7486568875,206.78502048750002,60.0,60.0
1159,206.7486568875,206.78502048750002,62.0,54.0
1160,207.15774738750002,207.19638371250002,65.0,60.0
1161,206.7486568875,207.21456551250003,58.0,54.0
1162,207.15774738750002,207.21797460000002,60.0,62.0
1163,206.7486568875,207.2600200125,46.0,54.0
1164,207.15774738750002,207.40661077500002,70.0,88.0
1165,207.43047438750003,207.5372924625,58.0,72.0
1166,207.43047438750003,207.61683783750001,46.0,74.0
1167,207.56683788750001,207.7816104,60.0,84.0
1168,207.56683788750001,207.84183761250003,65.0,86.0
1169,208.11229188750002,208.2827462625,70.0,18.0
1170,208.11229188750002,208.38615525000003,58.0,79.0
1171,208.11229188750002,208.39979160000001,67.0,66.0
1172,208.11229188750002,208.40774613750003,63.0,77.0
1173,208.5213823875,208.5645641625,58.0,52.0
1174,208.11229188750002,208.59979140000002,48.0,64.0
1175,208.5213823875,208.62933682500002,63.0,67.0
1176,208.5213823875,208.68388222500002,67.0,74.0
1177,208.9304728875,209.1804726375,58.0,79.0
1178,208.9304728875,209.29410888750002,65.0,81.0
1179,208.79410938750001,209.36683608750002,48.0,39.0
1180,209.33956338750002,209.44069965000003,63.0,79.0
1181,209.33956338750002,209.4531996375,58.0,67.0
1182,209.33956338750002,209.53388137500002,67.0,73.0
1183,208.11229188750002,209.72138118750001,36.0,74.0
1184,209.61229038750002,209.824790175,48.0,56.0
1185,209.7486538875,210.00547181250002,58.0,87.0
1186,209.7486538875,210.0088809,63.0,83.0
1187,209.7486538875,210.3918350625,67.0,81.0
1188,210.29410788750002,210.574789425,58.0,85.0
1189,210.29410788750002,210.61228938750003,63.0,86.0
1190,210.83956188750003,210.8691073125,63.0,16.0
1191,210.7031983875,210.9645617625,58.0,65.0
1192,211.11228888750003,211.1634252,63.0,77.0
1193,211.11228888750003,211.529333925,53.0,73.0
1194,211.52137938750002,211.6145611125,67.0,71.0
1195,211.79410638750002,212.0145607125,53.0,42.0
1196,210.29410788750002,212.174787825,41.0,81.0
1197,211.9304698875,212.18956053750003,70.0,86.0
1198,212.2031968875,212.28728771250002,75.0,81.0
1199,212.47592388750002,212.9350143375,53.0,67.0
1200,212.47592388750002,213.44865018750002,57.0,67.0
1201,212.47592388750002,213.48615015000001,60.0,63.0
1202,212.47592388750002,213.5577409875,65.0,63.0
1203,213.8395588875,214.0452405,58.0,76.0
1204,213.56683188750003,214.10887680000002,53.0,51.0
1205,212.47592388750002,214.20319488750002,41.0,69.0
1206,214.1122858875,214.3622856375,60.0,57.0
1207,214.3850128875,214.6668307875,65.0,60.0
1208,214.65773988750001,215.03842132500003,53.0,69.0
1209,214.65773988750001,215.16455756250002,58.0,69.0
1210,214.65773988750001,215.26569382500003,62.0,70.0
1211,214.65773988750001,215.33046648750002,46.0,52.0
1212,215.20319388750002,215.3668300875,55.0,52.0
1213,215.20319388750002,215.38728461250003,58.0,47.0
1214,215.47592088750002,215.5168299375,58.0,33.0
1215,215.20319388750002,215.583875325,63.0,67.0
1216,215.47592088750002,215.65773888750002,55.0,53.0
1217,215.47592088750002,215.7009206625,53.0,56.0
1218,215.47592088750002,215.73728426250003,46.0,47.0
1219,215.47592088750002,215.8997841,62.0,76.0
1220,216.2941018875,216.52251075,58.0,60.0
1221,216.02137488750003,216.5781925125,46.0,43.0
1222,216.5668288875,216.80432865000003,65.0,59.0
1223,216.8395558875,217.2395554875,46.0,39.0
1224,216.8395558875,217.53614610000002,58.0,59.0
1225,214.65773988750001,217.7327368125,34.0,66.0
1226,216.8395558875,217.73500953750002,70.0,67.0
1227,217.65773688750002,217.82250945,46.0,46.0
1228,217.93046388750003,218.11341825000002,58.0,52.0
1229,217.93046388750003,218.29069080000002,65.0,54.0
1230,219.0213718875,219.2554625625,39.0,62.0
1231,219.2940988875,219.60205312500003,51.0,42.0
1232,218.88500838750002,219.6815985,58.0,41.0
1233,218.9645537625,219.7600075125,63.0,50.0
1234,219.0213718875,219.83500743750002,67.0,63.0
1235,219.56682588750002,220.25205247500003,53.0,46.0
1236,219.83955288750002,220.25546156250002,55.0,44.0
1237,220.11227988750002,220.25546156250002,58.0,55.0
1238,220.38500688750003,220.54637036250003,63.0,66.0
1239,220.65773388750003,220.88841547500002,65.0,44.0
1240,220.9304608875,221.28841507500002,70.0,58.0
1241,221.2031878875,221.547505725,58.0,60.0
1242,221.2031878875,221.56682388750002,67.0,55.0
1243,221.2031878875,221.5690966125,63.0,56.0
1244,221.7486418875,221.89636901250003,58.0,52.0
1245,222.02136888750002,222.21568687500002,63.0,57.0
1246,222.29409588750002,222.39409578750002,65.0,53.0
1247,222.56682288750002,222.79295902500002,70.0,52.0
1248,222.79409538750002,222.8918225625,72.0,55.0
1249,222.97591338750001,223.08159510000002,75.0,34.0
1250,223.24864038750002,223.51568557500002,77.0,49.0
1251,223.52136738750002,223.77023077500002,82.0,53.0
1252,223.79409438750002,224.01682143750003,84.0,43.0
1253,221.4759148875,224.2463666625,53.0,46.0
1254,221.2031878875,224.2736393625,41.0,49.0
1255,224.20318488750002,224.29750297500001,89.0,26.0
1256,225.56681988750003,226.18272836250003,51.0,57.0
1257,226.1122738875,226.23272831250003,63.0,61.0
1258,225.8395468875,226.24977375000003,58.0,48.0
1259,227.20318188750002,227.306590875,65.0,58.0
1260,226.65772788750002,227.31909086250002,53.0,35.0
1261,226.93045488750002,227.34636356250002,60.0,54.0
1262,227.74863588750003,228.10318098750002,50.0,57.0
1263,228.0213628875,228.31795350000002,57.0,45.0
1264,228.2940898875,228.74977125,62.0,53.0
1265,229.38499788750002,229.49067960000002,67.0,60.0
1266,229.11340725000002,229.54181591250003,62.0,48.0
1267,228.8395438875,229.55090681250002,55.0,47.0
1268,229.99181546250003,230.44749682500003,51.0,60.0
1269,230.6099966625,230.7327238125,63.0,59.0
1270,230.29067880000002,230.74636016250003,58.0,51.0
1271,231.3372686625,232.27363136250003,53.0,57.0
1272,232.16340420000003,232.392949425,65.0,54.0
1273,231.70431375,232.63840372500002,60.0,47.0
1274,233.447493825,233.66681178750002,65.0,36.0
1275,234.30544751250002,234.37362926250003,60.0,46.0
1276,234.50999276250002,234.66567442500002,62.0,47.0
1277,234.71112892500003,234.752037975,65.0,51.0
1278,234.097493175,236.82021772500002,58.0,45.0
1279,233.47703925000002,236.89408128750003,46.0,49.0
1280,233.84862978750002,236.89408128750003,53.0,41.0
1281,237.779307675,237.96339840000002,34.0,44.0
