,start,end,pitch,velocity
0,17.415544052083334,17.66006122916667,66.0,86.0
1,17.678701552083336,17.95063096875,63.0,84.0
2,17.941859052083334,18.93198259375,66.0,83.0
3,18.993251727083337,19.43854703541667,68.0,90.0
4,19.518415727083337,19.762398168750003,63.0,89.0
5,19.780997727083335,20.040297452083337,66.0,77.0
6,20.043579727083333,20.33023174375,63.0,85.0
7,20.306161727083335,20.566555543750002,61.0,81.0
8,20.568743727083334,21.093907727083334,59.0,84.0
9,21.093907727083334,21.378371560416667,56.0,88.0
10,21.619071727083334,22.015132910416668,66.0,84.0
11,22.144235727083334,22.38493589375,63.0,87.0
12,22.406817727083336,22.600471952083335,66.0,81.0
13,22.669399727083334,22.92651126875,68.0,84.0
14,22.931981727083336,23.121259585416666,73.0,85.0
15,23.194563727083334,23.450581177083336,70.0,83.0
16,23.457145727083336,23.719727727083335,68.0,84.0
17,23.719727727083335,24.52935556041667,66.0,83.0
18,25.820383727083335,26.077495268750003,71.0,83.0
19,26.082965727083334,26.369617743750002,68.0,82.0
20,26.345547727083336,27.475744418750004,71.0,83.0
21,27.395875727083336,27.75583188541667,73.0,85.0
22,27.921039727083333,28.121258502083336,68.0,84.0
23,28.183621727083334,28.340076835416667,71.0,84.0
24,28.446203727083336,28.649704777083336,68.0,83.0
25,28.708785727083335,28.876181752083333,66.0,78.0
26,28.971367727083333,29.489967177083336,66.0,82.0
27,29.496531727083337,29.949485677083334,63.0,85.0
28,30.021695727083333,30.496531510416666,61.0,84.0
29,30.546859727083337,30.766772152083334,59.0,84.0
30,30.809441727083335,31.04138916041667,61.0,85.0
31,31.072023727083334,31.31710026041667,63.0,87.0
32,31.334605727083336,31.600470002083334,66.0,80.0
33,31.597187727083337,31.88165156041667,63.0,85.0
34,31.859769727083336,32.12563400208334,61.0,84.0
35,32.122351727083334,34.112504468750004,59.0,83.0
36,34.223007727083335,34.45386106875,63.0,82.0
37,34.48558972708334,34.76800925208334,61.0,83.0
38,34.74827243958334,35.78445509583334,63.0,87.0
39,35.80090243958334,36.22414741875001,66.0,84.0
40,36.327217439583336,36.55748025208334,61.0,79.0
41,36.590374939583334,36.87655872083334,63.0,83.0
42,36.85353243958334,37.115593450000006,61.0,85.0
43,37.11668993958334,37.394101804166674,59.0,85.0
44,37.37984743958334,37.82940816875001,56.0,79.0
45,37.90616243958334,38.281161877083335,54.0,84.0
46,38.43247743958334,39.260327075000006,59.0,85.0
47,39.22194993958334,39.437958387500004,61.0,84.0
48,39.48510743958334,39.866685814583334,66.0,82.0
49,40.011422439583335,40.266904512500005,68.0,84.0
50,40.27457993958334,40.515807647916674,66.0,76.0
51,40.53773743958334,40.78883355416667,63.0,87.0
52,40.80089493958334,41.05308754375,66.0,75.0
53,41.064052439583335,42.559664231250004,63.0,85.0
54,42.64299743958334,43.118873918750005,66.0,83.0
55,43.16931243958334,43.46536462708334,63.0,78.0
56,43.43246993958334,43.70878531458334,66.0,82.0
57,43.69562743958334,43.97303930416667,68.0,82.0
58,43.95878493958334,44.230714356250004,71.0,84.0
59,44.22194243958334,44.515801647916675,66.0,77.0
60,44.485099939583336,44.774573189583336,68.0,83.0
61,44.74825743958334,45.54869483541667,71.0,80.0
62,46.32720243958334,46.694526450000005,73.0,89.0
63,46.85351743958334,47.02566630416667,68.0,85.0
64,47.11667493958334,47.30417465833334,63.0,84.0
65,47.37983243958334,47.522376085416674,66.0,84.0
66,47.64298993958334,47.7800511375,68.0,85.0
67,47.906147439583336,48.05746300208334,70.0,84.0
68,48.16930493958334,48.36448008541667,73.0,87.0
69,48.43246243958334,48.59145342916667,70.0,77.0
70,48.69561993958334,48.90066349166667,68.0,84.0
71,48.958777439583336,50.4379418875,66.0,83.0
72,50.53772243958334,50.92039730416667,68.0,85.0
73,51.06403743958334,51.58158052291667,59.0,85.0
74,51.85350993958334,52.015790397916675,61.0,87.0
75,52.11666743958334,52.258114595833334,63.0,84.0
76,52.379824939583344,52.553070293750004,66.0,85.0
77,52.642982439583335,53.01030645,61.0,85.0
78,53.16929743958334,55.072803356250006,59.0,83.0
79,55.27455743958334,55.96315289791667,59.0,83.0
80,56.064029939583335,56.258108595833335,61.0,84.0
81,56.32718743958334,56.562932700000005,58.0,81.0
82,56.59034493958334,56.77894114791667,56.0,83.0
83,56.85350243958334,57.31073859583334,54.0,84.0
84,57.379817439583334,58.697797918750005,59.0,84.0
85,58.95876243958334,59.34034081458334,61.0,87.0
86,59.485077439583335,59.86775230416667,63.0,83.0
87,60.01139243958334,60.30525164791668,61.0,83.0
88,60.27454993958334,60.48946189791667,59.0,84.0
89,60.53770743958334,60.8195052625,58.0,83.0
90,60.800864939583334,61.042092647916675,61.0,80.0
91,61.06402243958334,61.53880242916667,56.0,84.0
92,61.59033743958334,62.85887580625001,54.0,84.0
93,63.68856938958334,64.11324150000002,66.0,83.0
94,64.21258638958334,65.121974225,66.0,84.0
95,65.26062038958334,65.51171186875001,63.0,87.0
96,65.52262888958334,65.70603483958334,66.0,83.0
97,65.78463738958334,66.18092524583334,68.0,83.0
98,66.30865438958334,66.54227863541668,70.0,84.0
99,66.57066288958335,66.81192905,73.0,85.0
100,66.83267138958334,67.43856604583334,68.0,87.0
101,67.88070538958334,68.09140389166667,68.0,83.0
102,68.14271388958335,68.35341239166668,63.0,85.0
103,68.40472238958334,68.57284451041667,66.0,85.0
104,68.66673088958335,68.83485301041668,68.0,85.0
105,68.92873938958334,69.09140300000001,70.0,84.0
106,69.19074788958335,69.36323681875001,73.0,89.0
107,69.45275638958334,69.62633702083335,70.0,83.0
108,69.71476488958334,69.96585636875001,68.0,88.0
109,69.97677338958334,71.84576735625001,66.0,79.0
110,72.07284138958335,72.46476243750001,71.0,87.0
111,72.59685838958335,72.98332092708334,71.0,85.0
112,73.12087538958335,73.35013282708334,66.0,83.0
113,73.38288388958334,73.57611515833334,63.0,87.0
114,73.64489238958335,73.81519791458334,66.0,84.0
115,73.90690088958334,74.10449896666668,68.0,84.0
116,74.16890938958335,75.85449740625,71.0,85.0
117,75.74096038958334,76.1328814375,73.0,90.0
118,76.26497738958335,76.84357949375001,59.0,89.0
119,77.05100288958334,77.24095905208334,61.0,84.0
120,77.31301138958334,77.73331669166667,66.0,83.0
121,77.83702838958334,78.03135136041668,66.0,79.0
122,78.09903688958335,78.39816326041668,68.0,83.0
123,78.36104538958334,78.89161260208334,66.0,83.0
124,78.88506238958334,80.01279064166667,63.0,85.0
125,80.45711338958334,80.84903443750001,66.0,84.0
126,80.98113038958334,81.46693781666667,66.0,85.0
127,81.50514738958334,82.02043077291668,63.0,90.0
128,82.02916438958334,82.56913068125002,66.0,81.0
129,82.55377982708335,83.12834036875002,68.0,86.0
130,83.08009482708334,83.36518211875001,70.0,87.0
131,83.34325232708335,83.63272557708335,73.0,89.0
132,83.60640982708335,84.41123318125001,68.0,83.0
133,84.65903982708335,84.88930263958335,68.0,84.0
134,84.92219732708335,85.22263547291668,63.0,86.0
135,85.18535482708334,85.47373158750001,66.0,83.0
136,85.44851232708335,85.78074867083335,68.0,84.0
137,85.71166982708334,85.99456413958335,70.0,83.0
138,85.97482732708335,86.25004621250001,73.0,90.0
139,86.23798482708335,86.55158084791668,70.0,84.0
140,86.50114232708334,86.77307174375001,68.0,80.0
141,86.76429982708335,88.59543743125002,66.0,83.0
142,88.34324482708335,88.72482320208334,68.0,79.0
143,88.86955982708335,89.39697131666668,59.0,87.0
144,89.65903232708335,89.84653204583334,61.0,84.0
145,89.92218982708334,90.15354912916668,63.0,87.0
146,90.18534732708335,90.38381194166668,66.0,81.0
147,90.44850482708335,90.95617950416668,61.0,85.0
148,90.97481982708335,93.07459737916668,59.0,85.0
149,109.92215982708335,110.16667700416669,66.0,86.0
150,110.18531732708335,110.45724674375002,63.0,84.0
151,110.44847482708334,111.43970141041669,66.0,83.0
152,111.50110482708335,111.94737608750002,68.0,90.0
153,112.02741982708335,112.27193700416669,63.0,89.0
154,112.29057732708335,112.55044535833335,66.0,77.0
155,112.55373482708335,112.84101509791668,63.0,85.0
156,112.81689232708335,113.07785684791668,61.0,81.0
157,113.08004982708334,113.60636482708335,59.0,84.0
158,113.60636482708335,113.89145211875001,56.0,88.0
159,114.13267982708335,114.52960905625002,66.0,84.0
160,114.65899482708335,114.90022253541667,63.0,87.0
161,114.92215232708335,115.11623098333335,66.0,81.0
162,115.18530982708336,115.44298487916669,68.0,84.0
163,115.44846732708335,115.63816002500002,73.0,85.0
164,115.71162482708334,115.96820338958335,70.0,83.0
165,115.97478232708335,116.23793982708335,68.0,84.0
166,116.23793982708335,117.04934211875002,66.0,83.0
167,118.34319982708335,118.60087487916668,71.0,83.0
168,118.60635732708334,118.8936375979167,68.0,82.0
169,118.86951482708335,120.00218856666669,71.0,83.0
170,119.92214482708334,120.28288990000001,73.0,85.0
171,120.44845982708335,120.64911742083335,68.0,84.0
172,120.71161732708336,120.86841533750001,71.0,84.0
173,120.97477482708335,121.17872188958336,68.0,83.0
174,121.23793232708334,121.40569523333335,66.0,78.0
175,121.50108982708335,122.02082588958335,66.0,82.0
176,122.02740482708336,122.48135151458335,63.0,85.0
177,122.55371982708334,123.02959630625003,61.0,84.0
178,123.08003482708335,123.30042923333335,59.0,84.0
179,123.34319232708336,123.57564811875002,61.0,85.0
180,123.60634982708335,123.85196349375002,63.0,87.0
181,123.86950732708335,124.13595429583336,66.0,80.0
182,124.13266482708335,124.41775211875002,63.0,85.0
183,124.39582232708335,124.66226929583335,61.0,84.0
184,124.65897982708336,126.65349437916669,59.0,83.0
185,126.76423982708334,126.99559912916669,63.0,82.0
186,127.02739732708335,127.31029163958335,61.0,83.0
187,127.29055482708335,128.32673748333335,63.0,87.0
188,128.34318482708335,128.76642980625002,66.0,84.0
189,128.86949982708336,129.09976263958336,61.0,79.0
190,129.13265732708334,129.41884110833337,63.0,83.0
191,129.39581482708334,129.6578758375,61.0,85.0
192,129.65897232708335,129.9363841916667,59.0,85.0
193,129.92212982708335,130.37169055625003,56.0,79.0
194,130.44844482708334,130.82344426458334,54.0,84.0
195,130.97475982708335,131.80260946250002,59.0,85.0
196,131.76423232708333,131.98024077500003,61.0,84.0
197,132.02738982708337,132.40896820208334,66.0,82.0
198,132.55370482708335,132.80918690000001,68.0,84.0
199,132.81686232708336,133.05809003541668,66.0,76.0
200,133.08001982708336,133.3311159416667,63.0,87.0
201,133.34317732708337,133.59536993125002,66.0,75.0
202,133.60633482708334,135.10194661875002,63.0,85.0
203,135.18527982708335,135.66115630625,66.0,83.0
204,135.71159482708336,136.00764701458337,63.0,78.0
205,135.97475232708337,136.25106770208336,66.0,82.0
206,136.23790982708334,136.51532169166668,68.0,82.0
207,136.50106732708335,136.77299674375,71.0,84.0
208,136.76422482708335,137.0580840354167,66.0,77.0
209,137.02738232708336,137.31685557708334,68.0,83.0
210,137.29053982708336,138.09097722291668,71.0,80.0
211,138.86948482708334,139.2368088375,73.0,89.0
212,139.39579982708335,139.5679486916667,68.0,85.0
213,139.65895732708336,139.84645704583335,63.0,84.0
214,139.92211482708336,140.06465847291668,66.0,84.0
215,140.18527232708334,140.32233352500003,68.0,85.0
216,140.44842982708334,140.59974538958335,70.0,84.0
217,140.71158732708335,140.90676247291668,73.0,87.0
218,140.97474482708336,141.13373581666667,70.0,77.0
219,141.23790232708336,141.4429458791667,68.0,84.0
220,141.50105982708334,142.980224275,66.0,83.0
221,143.08000482708334,143.4626796916667,68.0,85.0
222,143.60631982708335,144.12386291041668,59.0,85.0
223,144.39579232708337,144.5580727854167,61.0,87.0
224,144.65894982708335,144.80039698333334,63.0,84.0
225,144.92210732708335,145.09535268125,66.0,85.0
226,145.18526482708336,145.55258883750002,61.0,85.0
227,145.71157982708337,147.61508574375,59.0,83.0
228,147.81683982708336,148.5054352854167,59.0,83.0
229,148.60631232708334,148.80039098333336,61.0,84.0
230,148.86946982708335,149.10521508750003,58.0,81.0
231,149.13262732708336,149.3212235354167,56.0,83.0
232,149.39578482708333,149.85302098333335,54.0,84.0
233,149.92209982708334,151.24008030625004,59.0,84.0
234,151.50104482708335,151.88262320208335,61.0,87.0
235,152.02735982708336,152.41003469166668,63.0,83.0
236,152.55367482708334,152.8475340354167,61.0,83.0
237,152.81683232708335,153.0317442854167,59.0,84.0
238,153.07998982708335,153.36178765000002,58.0,83.0
239,153.34314732708336,153.58437503541668,61.0,80.0
240,153.60630482708336,154.0810848166667,56.0,84.0
241,154.13261982708337,155.40454774375002,54.0,84.0
242,156.23787982708336,156.664414275,66.0,83.0
243,156.76419482708337,157.67757065,66.0,84.0
244,157.81682482708334,158.06901743125002,63.0,87.0
245,158.07998232708337,158.26419257708335,66.0,83.0
246,158.34313982708335,158.74116554583335,68.0,83.0
247,158.86945482708336,159.1041035979167,70.0,84.0
248,159.13261232708334,159.374936525,73.0,85.0
249,159.39576982708337,160.00432154583336,68.0,87.0
250,160.44839982708334,160.6600223166667,68.0,83.0
251,160.71155732708337,160.92317981666667,63.0,85.0
252,160.97471482708335,161.1435742229167,66.0,85.0
253,161.23787232708335,161.40673172291667,68.0,85.0
254,161.50102982708336,161.66440677500003,70.0,84.0
255,161.76418732708333,161.93743268125002,73.0,89.0
256,162.02734482708337,162.20168667083334,70.0,83.0
257,162.29050232708335,162.54269493125003,68.0,88.0
258,162.55365982708335,164.43084999375003,66.0,79.0
259,164.65891982708337,165.0525595875,71.0,87.0
260,165.18523482708335,165.57339213958335,71.0,85.0
261,165.71154982708336,165.94181263958336,66.0,83.0
262,165.97470732708337,166.16878598333335,63.0,87.0
263,166.23786482708334,166.40891720208336,66.0,84.0
264,166.50102232708338,166.6994869416667,68.0,84.0
265,166.76417982708335,168.45715974375003,71.0,85.0
266,168.34312482708336,168.73676458750003,73.0,90.0
267,168.86943982708334,169.45057930625,59.0,89.0
268,169.65891232708336,169.84970151458336,61.0,84.0
269,169.92206982708336,170.34421831666668,66.0,83.0
270,170.44838482708337,170.6435599729167,66.0,79.0
271,170.71154232708335,171.0119804729167,68.0,83.0
272,170.97469982708336,171.50759376458336,66.0,83.0
273,171.50101482708334,172.6336885666667,63.0,85.0
274,173.07995982708337,173.47359958750002,66.0,84.0
275,173.60627482708335,174.09421269166668,66.0,85.0
276,174.13258982708334,174.6501329104167,63.0,90.0
277,174.65890482708335,175.20057068125004,66.0,81.0
278,175.18521982708336,175.75978036875003,68.0,86.0
279,175.71153482708337,175.99662211875003,70.0,87.0
280,175.97469232708335,176.26416557708336,73.0,89.0
281,176.23784982708335,177.04267318125002,68.0,83.0
282,177.29047982708335,177.52074263958337,68.0,84.0
283,177.55363732708335,177.8540754729167,63.0,86.0
284,177.81679482708336,178.10517158750002,66.0,83.0
285,178.07995232708336,178.41218867083336,68.0,84.0
286,178.34310982708337,178.62600413958336,70.0,83.0
287,178.60626732708334,178.88148621250002,73.0,90.0
288,178.86942482708335,179.18302084791668,70.0,84.0
289,179.13258232708336,179.40451174375002,68.0,80.0
290,179.39573982708336,181.22687743125002,66.0,83.0
291,180.97468482708337,181.35626320208337,68.0,79.0
292,181.50099982708338,182.02841131666668,59.0,87.0
293,182.9099889416667,183.4593302229167,61.0,84.0
294,183.42862851458335,183.96042596250004,63.0,87.0
295,183.92972425416667,184.43191648333334,66.0,80.0
296,184.44617084791668,185.51853766041668,61.0,83.0
297,185.48673946250003,187.76085885833334,59.0,84.0
