,start,end,pitch,velocity
0,0.5734640520833334,1.6282870312500002,47.0,92.0
1,1.3629365520833334,1.7412254583333335,54.0,83.0
2,1.0997790520833335,1.9320146458333336,59.0,89.0
3,1.0997790520833335,1.9725847604166669,63.0,88.0
4,1.8892515520833335,2.2083300208333334,54.0,75.0
5,2.1524090520833337,2.4407858125,59.0,85.0
6,1.6260940520833336,2.485741885416667,42.0,84.0
7,2.4155665520833334,2.495610291666667,54.0,69.0
8,2.1524090520833337,2.518636572916667,63.0,87.0
9,2.6787240520833335,3.0537234895833336,61.0,78.0
10,2.6787240520833335,3.278503854166667,56.0,79.0
11,2.6787240520833335,3.600871791666667,49.0,90.0
12,3.4681965520833336,3.8190732187500003,56.0,71.0
13,3.205039052083334,3.8563538645833337,64.0,78.0
14,3.205039052083334,3.867318760416667,61.0,85.0
15,3.994511552083334,4.187493718750001,56.0,79.0
16,3.7313540520833337,4.437493343750001,49.0,83.0
17,4.257669052083334,4.4879318645833335,61.0,89.0
18,4.257669052083334,4.558107197916667,64.0,84.0
19,4.783984052083333,5.811394791666667,47.0,90.0
20,5.573456552083334,5.92433321875,54.0,85.0
21,5.310299052083334,6.1469206041666675,59.0,84.0
22,5.310299052083334,6.167753906250001,63.0,88.0
23,6.099771552083334,6.434200875,54.0,83.0
24,5.836614052083334,6.728060083333334,42.0,83.0
25,6.3629290520833335,6.832226593750001,59.0,83.0
26,6.3629290520833335,6.902401927083334,63.0,89.0
27,6.889244052083334,7.904593406250001,47.0,94.0
28,7.678716552083334,8.015338854166668,54.0,85.0
29,7.415559052083334,8.041654604166668,59.0,85.0
30,7.415559052083334,8.130470260416667,63.0,89.0
31,8.205031552083334,8.501083739583335,54.0,83.0
32,7.941874052083334,8.79932890625,42.0,84.0
33,8.468189052083334,8.876083177083334,59.0,84.0
34,8.468189052083334,8.89801296875,63.0,85.0
35,8.731346552083334,8.987925114583334,54.0,76.0
36,8.846477958333335,8.987925114583334,54.0,72.0
37,8.976960218750001,10.899106458333334,66.0,82.0
38,8.956126916666667,10.930904656250002,61.0,76.0
39,8.903495416666667,10.951737958333334,58.0,74.0
40,8.924328718750001,10.978053708333334,42.0,84.0
41,11.084413197916668,12.972568260416669,54.0,82.0
42,11.076737770833335,12.97695421875,58.0,83.0
43,11.0855096875,12.983533156250001,61.0,82.0
44,11.078930750000001,12.991208583333334,42.0,84.0
45,13.205024052083335,13.604146260416668,54.0,81.0
46,13.205024052083335,13.66774265625,61.0,78.0
47,13.731339052083335,13.851952906250002,54.0,79.0
48,13.468181552083335,14.106338489583335,49.0,80.0
49,13.731339052083335,14.317960979166667,58.0,87.0
50,13.994496552083335,14.336601302083334,54.0,82.0
51,14.520811552083334,14.782872562500001,54.0,81.0
52,13.205024052083335,15.087696666666668,42.0,83.0
53,14.257654052083335,15.110722947916669,49.0,84.0
54,14.783969052083334,15.260942020833335,58.0,76.0
55,15.047126552083334,15.321248947916668,54.0,83.0
56,14.783969052083334,15.336599802083335,61.0,85.0
57,15.310284052083334,16.343177239583333,47.0,89.0
58,16.099756552083335,16.410063104166667,54.0,85.0
59,15.836599052083335,16.435282364583333,59.0,84.0
60,15.836599052083335,16.698439864583335,63.0,75.0
61,16.626071552083335,16.74558891666667,54.0,84.0
62,16.362914052083333,17.31137754166667,42.0,84.0
63,16.889229052083333,17.369491489583336,54.0,74.0
64,16.889229052083333,17.412254583333336,59.0,83.0
65,16.889229052083333,17.412254583333336,63.0,85.0
66,17.415544052083334,17.995587041666667,54.0,78.0
67,17.415544052083334,17.996683531250003,59.0,78.0
68,17.415544052083334,18.475746368750002,47.0,84.0
69,18.205016552083336,18.71644653541667,63.0,83.0
70,18.205016552083336,18.73614018541667,59.0,78.0
71,18.205016552083336,18.760210202083336,54.0,80.0
72,18.468087727083336,19.383842452083336,42.0,82.0
73,18.993251727083337,19.574214402083335,63.0,85.0
74,18.993251727083337,19.58624941041667,59.0,84.0
75,18.993251727083337,19.60484896875,54.0,83.0
76,19.518415727083337,20.519509602083335,47.0,84.0
77,20.306161727083335,20.70112881875,63.0,82.0
78,20.306161727083335,20.732857477083336,59.0,77.0
79,20.306161727083335,20.751457035416667,54.0,75.0
80,21.093907727083334,21.271150577083336,59.0,83.0
81,21.093907727083334,21.273338760416667,54.0,83.0
82,21.093907727083334,21.284279677083333,63.0,84.0
83,20.568743727083334,21.33570198541667,42.0,84.0
84,21.619071727083334,22.365242243750004,59.0,74.0
85,21.619071727083334,22.38165361875,63.0,83.0
86,21.619071727083334,22.48121596041667,47.0,89.0
87,22.406817727083336,22.57640193541667,59.0,73.0
88,22.406817727083336,22.669399727083334,63.0,80.0
89,22.669399727083334,23.070931368750003,56.0,78.0
90,22.669399727083334,23.070931368750003,61.0,79.0
91,22.669399727083334,23.381653402083337,49.0,86.0
92,23.194563727083334,23.447298902083336,56.0,78.0
93,23.194563727083334,23.487780293750003,61.0,79.0
94,23.194563727083334,23.76130321041667,64.0,82.0
95,23.719727727083335,24.219727618750003,58.0,74.0
96,23.719727727083335,24.35430089375,54.0,72.0
97,23.719727727083335,24.648611552083334,42.0,79.0
98,24.507473727083337,25.006379527083336,58.0,84.0
99,24.507473727083337,25.04795501041667,54.0,83.0
100,24.507473727083337,25.052331377083334,61.0,83.0
101,25.295219727083335,25.433075277083336,54.0,83.0
102,24.770055727083335,25.436357552083336,49.0,84.0
103,25.295219727083335,25.646423152083337,58.0,84.0
104,25.557801727083337,25.72082138541667,54.0,79.0
105,25.295219727083335,25.740515035416667,61.0,84.0
106,25.820383727083335,26.323665893750004,59.0,82.0
107,25.820383727083335,26.33023044375,56.0,77.0
108,25.820383727083335,26.690186602083337,44.0,84.0
109,26.608129727083337,27.021696377083337,56.0,83.0
110,26.608129727083337,27.12235281041667,63.0,84.0
111,26.608129727083337,27.152987377083335,59.0,83.0
112,27.395875727083336,27.49653216041667,56.0,77.0
113,26.870711727083336,27.640952260416668,51.0,83.0
114,27.395875727083336,27.756925977083334,63.0,84.0
115,27.395875727083336,27.796313277083335,59.0,82.0
116,27.658457727083338,27.805066010416667,56.0,73.0
117,27.921039727083333,28.466991468750003,54.0,78.0
118,27.921039727083333,28.48340284375,59.0,77.0
119,27.921039727083333,28.941827252083336,47.0,70.0
120,28.708785727083335,29.04467186875,54.0,85.0
121,28.708785727083335,29.27224293541667,63.0,84.0
122,28.708785727083335,29.273337027083336,59.0,84.0
123,29.233949727083335,29.370711185416667,54.0,79.0
124,29.496531727083337,29.554518585416666,54.0,66.0
125,29.496531727083337,29.828041502083337,59.0,82.0
126,28.971367727083333,29.83022968541667,42.0,84.0
127,29.759113727083335,29.89149881875,54.0,74.0
128,29.496531727083337,29.89587518541667,63.0,84.0
129,30.021695727083333,30.542483360416668,61.0,81.0
130,30.021695727083333,30.57530611041667,58.0,84.0
131,30.021695727083333,30.591717485416666,54.0,78.0
132,30.021695727083333,30.88383996041667,42.0,83.0
133,30.809441727083335,31.144233777083336,54.0,83.0
134,30.809441727083335,31.169397885416668,58.0,84.0
135,30.809441727083335,31.369616660416668,61.0,84.0
136,31.334605727083336,31.570929527083337,54.0,83.0
137,31.072023727083334,31.708785077083334,49.0,85.0
138,31.597187727083337,31.75364283541667,58.0,78.0
139,31.597187727083337,31.794124227083337,61.0,83.0
140,32.122351727083334,32.63548071875,59.0,78.0
141,32.122351727083334,32.674868018750004,54.0,77.0
142,32.122351727083334,33.015130527083336,47.0,83.0
143,32.91009772708334,33.18033836875,54.0,82.0
144,32.91009772708334,33.23066658541667,59.0,85.0
145,32.91009772708334,33.250360235416665,63.0,85.0
146,33.435261727083336,33.57092909375,54.0,78.0
147,33.69784372708334,33.776618327083334,54.0,83.0
148,33.172679727083334,34.06108216041667,51.0,83.0
149,33.96042572708333,34.17049132708333,54.0,83.0
150,33.69784372708334,34.24160728541667,59.0,84.0
151,33.69784372708334,34.28646504375,63.0,85.0
152,34.74827243958334,34.83818458541667,56.0,75.0
153,34.74827243958334,34.88752661666667,59.0,85.0
154,34.74827243958334,34.90287747083334,63.0,86.0
155,34.223007727083335,35.09805261666667,44.0,85.0
156,35.01142993958334,35.323929470833335,56.0,78.0
157,35.01142993958334,35.39410480416667,59.0,79.0
158,35.80090243958334,35.912744377083335,56.0,75.0
159,35.274587439583335,36.076121325,51.0,82.0
160,35.80090243958334,36.11888441875001,59.0,84.0
161,35.80090243958334,36.162744002083336,63.0,84.0
162,36.06405993958334,36.18028783541667,56.0,77.0
163,36.327217439583336,36.65068186666667,61.0,73.0
164,36.327217439583336,36.6682257,56.0,74.0
165,36.85353243958334,36.951120012500006,56.0,74.0
166,36.85353243958334,37.0037515125,64.0,78.0
167,36.85353243958334,37.00813747083334,61.0,80.0
168,36.327217439583336,37.21975996041667,49.0,84.0
169,37.11668993958334,37.34804924166667,64.0,77.0
170,37.11668993958334,37.363400095833335,61.0,79.0
171,37.11668993958334,37.405066700000006,56.0,75.0
172,37.90616243958334,37.99936405416667,54.0,78.0
173,37.37984743958334,38.192346220833336,42.0,84.0
174,37.90616243958334,38.291030283333335,58.0,85.0
175,37.90616243958334,38.320635502083334,61.0,84.0
176,38.16931993958334,38.75265239791667,54.0,82.0
177,38.43247743958334,38.76252080416667,59.0,85.0
178,38.958792439583334,39.05528352291667,54.0,78.0
179,38.958792439583334,39.11668693958334,63.0,84.0
180,38.958792439583334,39.1221693875,59.0,84.0
181,38.43247743958334,39.46098466875,47.0,85.0
182,39.22194993958334,39.737300043750004,59.0,83.0
183,39.22194993958334,39.748264939583336,54.0,83.0
184,40.011422439583335,40.09804511666667,54.0,83.0
185,39.48510743958334,40.221948439583336,42.0,83.0
186,40.011422439583335,40.266904512500005,63.0,83.0
187,40.011422439583335,40.27238696041667,59.0,84.0
188,40.27457993958334,40.369974533333334,54.0,78.0
189,40.53773743958334,40.88642112708334,54.0,77.0
190,40.53773743958334,40.8984825125,51.0,74.0
191,41.064052439583335,41.17808735625,54.0,83.0
192,41.064052439583335,41.19563118958334,58.0,83.0
193,40.53773743958334,41.46207815833334,39.0,84.0
194,41.32720993958334,41.83378812708334,54.0,78.0
195,41.32720993958334,41.83598110625,58.0,80.0
196,41.59036743958334,42.15396308541667,46.0,76.0
197,42.116682439583336,42.271287470833336,54.0,89.0
198,42.116682439583336,42.29212077291667,58.0,87.0
199,42.116682439583336,42.34146280416667,63.0,87.0
200,42.64299743958334,42.98290921041667,54.0,74.0
201,42.64299743958334,42.99497059583334,59.0,80.0
202,42.64299743958334,43.577206564583335,47.0,84.0
203,43.43246993958334,43.75922383541667,54.0,82.0
204,43.43246993958334,43.80089043958334,59.0,85.0
205,43.43246993958334,43.810758845833334,63.0,85.0
206,43.95878493958334,44.06514442916667,54.0,83.0
207,43.69562743958334,44.266898512500006,47.0,84.0
208,44.22194243958334,44.26909149166667,54.0,74.0
209,44.22194243958334,44.494968345833335,63.0,87.0
210,44.22194243958334,44.50812622083334,59.0,86.0
211,44.485099939583336,44.615582200000006,54.0,78.0
212,44.74825743958334,45.227423387500004,56.0,75.0
213,44.74825743958334,45.44123885625,52.0,76.0
214,44.74825743958334,45.60351931458334,40.0,80.0
215,45.537729939583336,45.84913298125001,64.0,79.0
216,45.537729939583336,45.85022947083334,52.0,78.0
217,45.537729939583336,45.867773304166676,56.0,84.0
218,45.537729939583336,45.88970309583334,59.0,84.0
219,46.06404493958334,46.230711356250005,52.0,77.0
220,46.32720243958334,46.36448308541667,52.0,68.0
221,46.32720243958334,46.64299143958334,56.0,82.0
222,46.59035993958334,46.65724580416667,52.0,72.0
223,45.800887439583335,46.6682107,47.0,79.0
224,46.32720243958334,46.67588612708334,59.0,83.0
225,46.85351743958334,47.77566517916667,56.0,77.0
226,46.85351743958334,47.81404231458334,59.0,79.0
227,46.85351743958334,47.83268263750001,44.0,78.0
228,47.906147439583336,48.32062050208334,56.0,83.0
229,47.906147439583336,48.55197980416667,61.0,84.0
230,47.906147439583336,48.59145342916667,49.0,86.0
231,48.958777439583336,49.397373272916674,58.0,77.0
232,48.958777439583336,49.407241679166674,61.0,82.0
233,48.958777439583336,49.435750408333334,54.0,77.0
234,49.48509243958334,49.84693400208334,49.0,78.0
235,49.74824993958334,50.05855649166667,54.0,84.0
236,49.74824993958334,50.16272300208334,58.0,85.0
237,49.74824993958334,50.216450991666676,66.0,80.0
238,49.74824993958334,50.33267888750001,61.0,88.0
239,50.27456493958334,50.52127509583334,54.0,79.0
240,50.53772243958334,50.65943278333334,58.0,79.0
241,50.53772243958334,50.68684502291667,61.0,77.0
242,50.53772243958334,50.69671342916667,66.0,80.0
243,48.958777439583336,50.85022197083334,42.0,84.0
244,50.01140743958334,50.88202016875,49.0,83.0
245,50.80087993958334,50.91601134583334,54.0,72.0
246,51.06403743958334,51.33158089791667,61.0,83.0
247,51.06403743958334,51.332677387500006,58.0,80.0
248,51.06403743958334,51.33596685625001,54.0,79.0
249,51.06403743958334,51.615571700000004,42.0,85.0
250,52.642982439583335,52.873245252083336,58.0,84.0
251,52.642982439583335,52.94999952291667,54.0,80.0
252,52.642982439583335,52.967543356250005,61.0,83.0
253,52.642982439583335,52.96973633541667,42.0,84.0
254,53.16929743958334,53.83486661666667,59.0,76.0
255,53.16929743958334,53.83815608541667,54.0,72.0
256,53.16929743958334,54.21863797083334,47.0,87.0
257,53.958769939583334,54.51140068958334,54.0,85.0
258,53.958769939583334,54.58157602291667,59.0,84.0
259,53.958769939583334,54.61008475208334,63.0,86.0
260,54.748242439583336,54.87653172083334,54.0,83.0
261,54.22192743958334,55.13311028333334,42.0,84.0
262,55.01139993958334,55.215347002083334,54.0,72.0
263,54.748242439583336,55.23069785625,59.0,87.0
264,54.748242439583336,55.24056626250001,63.0,86.0
265,55.27455743958334,55.861179366666676,52.0,80.0
266,55.27455743958334,55.87104777291667,59.0,79.0
267,55.27455743958334,56.130915804166676,40.0,85.0
268,55.800872439583344,56.164906981250006,47.0,78.0
269,56.064029939583335,56.284424345833344,52.0,79.0
270,56.064029939583335,56.440125866666676,56.0,78.0
271,56.85350243958334,57.04758109583334,54.0,80.0
272,56.85350243958334,57.15942303333334,58.0,85.0
273,56.59034493958334,57.24275624166667,49.0,78.0
274,56.32718743958334,57.25043166875001,42.0,86.0
275,57.379817439583334,57.96205340833334,59.0,83.0
276,57.379817439583334,57.98069373125001,54.0,83.0
277,57.379817439583334,58.41051764791668,47.0,87.0
278,58.16928993958334,58.51139468958334,54.0,84.0
279,58.16928993958334,58.74604346041667,59.0,85.0
280,58.16928993958334,58.75481537708334,63.0,85.0
281,58.69560493958334,58.81183283541667,54.0,82.0
282,58.95876243958334,59.00481500208334,54.0,74.0
283,58.43244743958334,59.29538474166667,42.0,85.0
284,58.95876243958334,59.34363028333334,59.0,86.0
285,59.221919939583344,59.34911273125,54.0,83.0
286,58.95876243958334,59.38858635625,63.0,85.0
287,59.485077439583335,60.11226948125001,56.0,79.0
288,59.485077439583335,60.11994490833334,59.0,82.0
289,60.01139243958334,60.35349718958334,51.0,80.0
290,59.485077439583335,60.37981293958334,44.0,85.0
291,60.27454993958334,60.44231284583334,56.0,83.0
292,60.27454993958334,60.473014554166674,59.0,84.0
293,60.53770743958334,60.84472452291667,61.0,79.0
294,60.53770743958334,60.991654127083336,56.0,81.0
295,61.06402243958334,61.23288183541668,56.0,75.0
296,61.06402243958334,61.38748686666668,65.0,88.0
297,60.53770743958334,61.39187282500001,49.0,79.0
298,61.32717993958334,61.64735489791667,56.0,78.0
299,62.11651838958334,62.41346135625001,49.0,71.0
300,61.59033743958334,62.568483052083344,42.0,79.0
301,62.37852688958334,62.68638687708334,54.0,83.0
302,62.37852688958334,62.71040432291667,58.0,83.0
303,62.37852688958334,62.72459645000001,61.0,84.0
304,62.90254388958334,63.234421322916674,54.0,84.0
305,63.16455238958334,63.43856961250001,58.0,84.0
306,63.16455238958334,63.44730322916668,66.0,82.0
307,63.16455238958334,63.48660450416668,61.0,86.0
308,62.64053538958334,63.50188833333334,49.0,77.0
309,63.42656088958334,63.57939918125001,54.0,79.0
310,63.68856938958334,64.30319766250001,59.0,81.0
311,63.68856938958334,64.32394000208335,54.0,83.0
312,63.68856938958334,64.71149424166667,47.0,85.0
313,64.47459488958334,64.8534155125,54.0,84.0
314,64.47459488958334,65.06302231250001,59.0,84.0
315,64.47459488958334,65.07175592916667,63.0,84.0
316,64.99861188958334,65.19293486041667,54.0,83.0
317,64.73660338958334,65.53572931458334,42.0,84.0
318,65.52262888958334,65.64817462916668,54.0,83.0
319,65.26062038958334,65.66455016041668,59.0,83.0
320,65.26062038958334,65.68420079791667,63.0,84.0
321,65.78463738958334,66.39271545000001,59.0,82.0
322,65.78463738958334,66.4123660875,56.0,77.0
323,66.57066288958335,66.94511670416668,56.0,85.0
324,66.57066288958335,67.13616456875,63.0,85.0
325,67.09467988958335,67.24751818125002,56.0,85.0
326,67.35668838958334,67.48332583125001,56.0,78.0
327,67.35668838958334,67.66782348333334,59.0,83.0
328,66.83267138958334,67.73005050208334,51.0,83.0
329,67.61869688958335,67.74424262916668,56.0,79.0
330,65.78463738958334,67.77590198958335,44.0,84.0
331,67.88070538958334,68.46149089791668,61.0,79.0
332,67.88070538958334,68.46585770625,56.0,78.0
333,67.88070538958334,68.93092279375001,49.0,84.0
334,68.66673088958335,68.99205811041668,56.0,78.0
335,68.66673088958335,69.04773491666667,61.0,84.0
336,68.66673088958335,69.18419767708335,65.0,79.0
337,69.19074788958335,69.33157745833334,56.0,84.0
338,69.45275638958334,69.55865149166668,56.0,83.0
339,69.45275638958334,69.70384786875,61.0,84.0
340,68.92873938958334,69.72349850625001,44.0,85.0
341,69.71476488958334,69.83048531041668,56.0,79.0
342,69.97677338958334,70.60231868333334,58.0,76.0
343,69.97677338958334,70.61214400208334,54.0,75.0
344,70.50079038958334,70.85777697083334,49.0,76.0
345,69.97677338958334,70.98659781666667,42.0,82.0
346,70.76279888958334,71.09904313125001,54.0,82.0
347,70.76279888958334,71.14380291666667,58.0,76.0
348,70.76279888958334,71.34358439791667,61.0,83.0
349,71.28681588958334,71.60995970625001,54.0,83.0
350,71.54882438958334,71.7966407625,58.0,83.0
351,71.81083288958334,71.96803798958334,54.0,77.0
352,71.54882438958334,71.97131309583334,61.0,85.0
353,71.54882438958334,71.97349650000001,66.0,82.0
354,71.02480738958334,71.97677160625001,49.0,79.0
355,72.07284138958335,72.66126881250001,59.0,83.0
356,72.07284138958335,72.70602859791667,54.0,71.0
357,72.07284138958335,73.05537326458334,47.0,84.0
358,72.85886688958334,73.18091900416668,54.0,83.0
359,72.85886688958334,73.37851708125001,63.0,85.0
360,72.85886688958334,73.39489261250002,59.0,85.0
361,73.38288388958334,73.50515452291668,54.0,70.0
362,73.64489238958335,73.8796083375,54.0,83.0
363,73.12087538958335,73.98877854583334,42.0,75.0
364,73.64489238958335,74.26825427916668,59.0,84.0
365,73.64489238958335,74.31083066041668,63.0,84.0
366,74.16890938958335,75.19838445416667,47.0,87.0
367,74.95493488958334,75.27917040833334,54.0,83.0
368,74.95493488958334,75.39379912708334,59.0,85.0
369,74.95493488958334,75.42655018958334,63.0,85.0
370,75.47895188958334,75.60013082083334,54.0,78.0
371,75.21694338958335,76.06192080208334,42.0,83.0
372,76.00296888958334,76.30209526041668,54.0,84.0
373,75.74096038958334,76.31847079166667,59.0,83.0
374,75.74096038958334,76.32283760000001,63.0,85.0
375,76.26497738958335,77.27043500833335,47.0,89.0
376,77.05100288958334,77.4232733,54.0,83.0
377,77.05100288958334,77.62742158958335,59.0,83.0
378,77.05100288958334,77.66453946041668,63.0,85.0
379,77.57501988958334,77.67873158750001,54.0,80.0
380,77.31301138958334,77.95711561875001,42.0,84.0
381,77.83702838958334,77.96257412916668,54.0,85.0
382,77.83702838958334,78.07938625208334,59.0,84.0
383,78.09903688958335,78.15689710000001,54.0,69.0
384,78.36104538958334,78.96694004583334,54.0,84.0
385,78.36104538958334,78.98659068333335,51.0,83.0
386,78.36104538958334,79.26279131041667,39.0,84.0
387,79.14707088958335,79.46257279166667,51.0,84.0
388,79.14707088958335,79.46584789791667,58.0,84.0
389,79.14707088958335,79.50078236458334,54.0,84.0
390,79.67108788958335,80.25078169583334,51.0,83.0
391,79.93309638958334,80.26715722708335,58.0,75.0
392,79.40907938958334,80.27152403541668,46.0,84.0
393,79.93309638958334,80.28899126875001,54.0,83.0
394,80.45711338958334,80.82938380000002,51.0,80.0
395,80.45711338958334,80.86540996875001,54.0,83.0
396,81.24313888958335,81.41344441458335,58.0,84.0
397,81.24313888958335,81.51388100625002,63.0,85.0
398,81.76715588958334,81.88833482083334,58.0,81.0
399,81.50514738958334,82.03025609166667,46.0,78.0
400,80.45711338958334,82.03898970833335,39.0,85.0
401,82.02916438958334,82.16016863958335,58.0,86.0
402,82.02916438958334,82.20056161666668,63.0,84.0
403,82.55377982708335,83.16233154583335,59.0,76.0
404,82.55377982708335,83.16671750416668,56.0,71.0
405,82.55377982708335,83.44193638958335,44.0,84.0
406,83.34325232708335,83.64697994166669,56.0,81.0
407,83.34325232708335,83.69632197291668,63.0,84.0
408,83.34325232708335,83.70728686875002,59.0,84.0
409,83.86956732708335,83.99456713958335,56.0,84.0
410,83.60640982708335,84.03404076458335,51.0,84.0
411,84.13272482708335,84.29281230625001,56.0,85.0
412,84.13272482708335,84.33009295208335,59.0,88.0
413,84.65903982708335,85.22921441041669,61.0,79.0
414,84.65903982708335,85.23140738958335,56.0,79.0
415,84.65903982708335,85.59873140000002,37.0,85.0
416,85.44851232708335,85.72044174375002,56.0,78.0
417,85.44851232708335,85.83447666041668,61.0,84.0
418,85.44851232708335,85.96715190000002,65.0,83.0
419,85.97482732708335,86.09215171250001,56.0,85.0
420,85.71166982708334,86.10640607708335,44.0,83.0
421,86.23798482708335,86.35092325416669,56.0,85.0
422,86.23798482708335,86.55706329583334,61.0,85.0
423,86.50114232708334,86.64258948333335,56.0,74.0
424,86.76429982708335,87.36956207708334,58.0,71.0
425,86.76429982708335,87.39149186875001,54.0,73.0
426,87.29061482708335,87.65903532708334,49.0,79.0
427,86.76429982708335,87.68535107708335,42.0,83.0
428,87.55377232708335,87.87942973333335,54.0,84.0
429,87.55377232708335,87.93535070208335,61.0,89.0
430,87.55377232708335,87.94083315000002,58.0,90.0
431,88.08008732708335,88.26539406666669,54.0,83.0
432,87.81692982708334,88.62723562916668,49.0,77.0
433,88.34324482708335,88.64916542083334,58.0,86.0
434,88.34324482708335,88.66890223333334,61.0,85.0
435,88.60640232708334,88.77526172291668,54.0,78.0
436,88.86955982708335,89.08666476458335,54.0,77.0
437,88.86955982708335,89.08776125416668,61.0,85.0
438,88.86955982708335,89.08885774375001,58.0,84.0
439,88.86955982708335,89.09434019166667,66.0,75.0
440,88.86955982708335,89.12942785833334,42.0,86.0
441,90.44850482708335,90.89148661875001,54.0,86.0
442,90.44850482708335,90.89916204583335,58.0,86.0
443,90.44850482708335,90.90793396250001,42.0,83.0
444,90.97481982708335,91.61188027500002,59.0,85.0
445,90.97481982708335,91.62174868125001,54.0,84.0
446,90.97481982708335,91.97591481666669,47.0,84.0
447,91.76429232708335,92.11187952500002,54.0,84.0
448,91.76429232708335,92.24894072291669,59.0,83.0
449,91.76429232708335,92.24894072291669,63.0,85.0
450,92.29060732708335,92.44630884791668,54.0,81.0
451,92.55376482708334,92.98797470208335,59.0,88.0
452,92.81692232708335,93.00222906666669,54.0,78.0
453,92.55376482708334,93.00551853541668,63.0,85.0
454,92.02744982708334,93.03731673333334,51.0,79.0
455,93.08007982708335,94.13490280625001,47.0,92.0
456,93.86955232708335,94.24784123333335,54.0,83.0
457,93.60639482708335,94.43863042083335,59.0,89.0
458,93.60639482708335,94.47920053541668,63.0,88.0
459,94.39586732708335,94.71494579583334,54.0,75.0
460,94.65902482708334,94.94740158750001,59.0,85.0
461,94.13270982708335,94.99235766041669,42.0,84.0
462,94.92218232708335,95.00222606666668,54.0,69.0
463,94.65902482708334,95.02525234791668,63.0,87.0
464,95.18533982708335,95.56033926458335,61.0,78.0
465,95.18533982708335,95.78511962916669,56.0,79.0
466,95.18533982708335,96.10748756666668,49.0,90.0
467,95.97481232708336,96.32568899375002,56.0,71.0
468,95.71165482708335,96.36296963958335,64.0,78.0
469,95.71165482708335,96.37393453541668,61.0,85.0
470,96.50112732708335,96.69410949375002,56.0,79.0
471,96.23796982708335,96.94410911875002,49.0,83.0
472,96.76428482708334,96.99454763958335,61.0,89.0
473,96.76428482708334,97.06472297291668,64.0,84.0
474,97.29059982708335,98.31801056666669,47.0,90.0
475,98.08007232708334,98.43094899375001,54.0,85.0
476,97.81691482708335,98.65353637916668,59.0,84.0
477,97.81691482708335,98.67436968125001,63.0,88.0
478,98.60638732708335,98.94081665000002,54.0,83.0
479,98.34322982708335,99.23467585833335,42.0,83.0
480,98.86954482708335,99.33884236875002,59.0,83.0
481,98.86954482708335,99.40901770208335,63.0,89.0
482,99.39585982708334,100.41120918125002,47.0,94.0
483,100.18533232708334,100.52195462916669,54.0,85.0
484,99.92217482708335,100.54827037916668,59.0,85.0
485,99.92217482708335,100.63708603541669,63.0,89.0
486,100.71164732708334,101.00769951458335,54.0,83.0
487,100.44848982708335,101.30594468125001,42.0,84.0
488,100.97480482708335,101.38269895208335,59.0,84.0
489,100.97480482708335,101.40462874375001,63.0,85.0
490,101.23796232708335,101.49454088958335,54.0,76.0
491,101.35309373333335,101.49454088958335,54.0,72.0
492,101.48357599375001,103.40572223333335,66.0,82.0
493,101.46274269166668,103.43752043125002,61.0,76.0
494,101.41011119166669,103.45835373333335,58.0,74.0
495,101.43094449375002,103.48466948333335,42.0,84.0
496,103.59102897291669,105.47918403541668,54.0,82.0
497,103.58335354583335,105.48356999375002,58.0,83.0
498,103.59212546250001,105.49014893125002,61.0,82.0
499,103.58554652500001,105.49782435833335,42.0,84.0
500,105.71163982708335,106.11076203541668,54.0,81.0
501,105.71163982708335,106.17435843125001,61.0,78.0
502,106.23795482708334,106.35856868125002,54.0,79.0
503,105.97479732708335,106.61295426458335,49.0,80.0
504,106.23795482708334,106.82457675416669,58.0,87.0
505,106.50111232708335,106.84321707708335,54.0,82.0
506,107.02742732708334,107.28948833750002,54.0,81.0
507,105.71163982708335,107.59431244166669,42.0,83.0
508,106.76426982708335,107.61733872291668,49.0,84.0
509,107.29058482708335,107.76755779583335,58.0,76.0
510,107.55374232708334,107.82786472291669,54.0,83.0
511,107.29058482708335,107.84321557708336,61.0,85.0
512,107.81689982708335,108.84979301458335,47.0,89.0
513,108.60637232708335,108.91667887916668,54.0,85.0
514,108.34321482708336,108.94189813958334,59.0,84.0
515,108.34321482708336,109.20505563958335,63.0,75.0
516,109.13268732708335,109.25220469166669,54.0,84.0
517,108.86952982708335,109.81799331666669,42.0,84.0
518,109.39584482708335,109.87610726458335,54.0,74.0
519,109.39584482708335,109.91887035833335,59.0,83.0
520,109.39584482708335,109.91887035833335,63.0,85.0
521,109.92215982708335,110.50220281666668,54.0,78.0
522,109.92215982708335,110.50329930625001,59.0,78.0
523,109.92215982708335,110.98246525416668,47.0,84.0
524,110.71163232708335,111.22369296250002,63.0,83.0
525,110.71163232708335,111.24342977500001,59.0,78.0
526,110.71163232708335,111.26755254583335,54.0,80.0
527,110.97478982708336,111.89255160833335,42.0,82.0
528,111.50110482708335,112.08334079583335,63.0,85.0
529,111.50110482708335,112.09540218125002,59.0,84.0
530,111.50110482708335,112.11404250416669,54.0,83.0
531,112.02741982708335,113.03070779583335,47.0,84.0
532,112.81689232708335,113.21272506666668,63.0,82.0
533,112.81689232708335,113.24452326458335,59.0,77.0
534,112.81689232708335,113.26316358750002,54.0,75.0
535,113.60636482708335,113.78399613958335,59.0,83.0
536,113.60636482708335,113.78618911875002,54.0,83.0
537,113.60636482708335,113.79715401458336,63.0,84.0
538,113.08004982708334,113.84868902500001,42.0,84.0
539,114.13267982708335,114.88048572291669,59.0,74.0
540,114.13267982708335,114.89693306666669,63.0,83.0
541,114.13267982708335,114.99671361875002,47.0,89.0
542,114.92215232708335,115.09210821250002,59.0,73.0
543,114.92215232708335,115.18530982708336,63.0,80.0
544,115.18530982708336,115.5877215041667,56.0,78.0
545,115.18530982708336,115.5877215041667,61.0,79.0
546,115.18530982708336,115.89912454583336,49.0,86.0
547,115.71162482708334,115.96491392083335,56.0,78.0
548,115.71162482708334,116.00548403541669,61.0,79.0
549,115.71162482708334,116.27960643125002,64.0,82.0
550,116.23793982708335,116.73903556666669,58.0,74.0
551,116.23793982708335,116.87390378541669,54.0,72.0
552,116.23793982708335,117.16885948333335,42.0,79.0
553,117.02741232708335,117.52741157708334,58.0,84.0
554,117.02741232708335,117.56907818125002,54.0,83.0
555,117.02741232708335,117.57346413958335,61.0,83.0
556,117.81688482708336,117.95504251458334,54.0,83.0
557,117.29056982708335,117.95833198333335,49.0,84.0
558,117.81688482708336,118.16885798333335,58.0,84.0
559,118.08004232708335,118.24341927500001,54.0,79.0
560,117.81688482708336,118.26315608750002,61.0,84.0
561,118.34319982708335,118.84758503541669,59.0,82.0
562,118.34319982708335,118.8541639729167,56.0,77.0
563,118.34319982708335,119.21490904583335,44.0,84.0
564,119.13267232708336,119.54714538958335,56.0,83.0
565,119.13267232708336,119.64802243125001,63.0,84.0
566,119.13267232708336,119.67872413958335,59.0,83.0
567,119.92214482708334,120.02302186875002,56.0,77.0
568,119.39582982708336,120.16775849375001,51.0,83.0
569,119.92214482708334,120.28398638958335,63.0,84.0
570,119.92214482708334,120.32346001458336,59.0,82.0
571,120.18530232708335,120.33223193125002,56.0,73.0
572,120.44845982708335,120.99560812916668,54.0,78.0
573,120.44845982708335,121.01205547291669,59.0,77.0
574,120.44845982708335,121.47148460833336,47.0,70.0
575,121.23793232708334,121.57455462916668,54.0,85.0
576,121.23793232708334,121.80262446250002,63.0,84.0
577,121.23793232708334,121.80372095208335,59.0,84.0
578,121.76424732708335,121.90130852500002,54.0,79.0
579,122.02740482708336,122.08551877500003,54.0,66.0
580,122.02740482708336,122.35964117083336,59.0,82.0
581,121.50108982708335,122.36183415000002,42.0,84.0
582,122.29056232708335,122.42323756666669,54.0,74.0
583,122.02740482708336,122.42762352500002,63.0,84.0
584,122.55371982708334,123.07564886875002,61.0,81.0
585,122.55371982708334,123.10854355625003,58.0,84.0
586,122.55371982708334,123.12499090000001,54.0,78.0
587,122.55371982708334,123.41775361875003,42.0,83.0
588,123.34319232708336,123.67871813958335,54.0,83.0
589,123.34319232708336,123.70393740000002,58.0,84.0
590,123.34319232708336,123.90459499375001,61.0,84.0
591,123.86950732708335,124.10634907708335,54.0,83.0
592,123.60634982708335,124.24450676458335,49.0,85.0
593,124.13266482708335,124.28946283750003,58.0,78.0
594,124.13266482708335,124.33003295208334,61.0,83.0
595,124.65897982708336,125.17323344166668,59.0,78.0
596,124.65897982708336,125.2127070666667,54.0,77.0
597,124.65897982708336,125.55371532708335,47.0,83.0
598,125.44845232708334,125.71928525416669,54.0,82.0
599,125.44845232708334,125.76972377500002,59.0,85.0
600,125.44845232708334,125.78946058750002,63.0,85.0
601,125.97476732708336,126.11073203541667,54.0,78.0
602,126.23792482708336,126.31687207708336,54.0,83.0
603,125.71160982708335,126.60195936875002,51.0,83.0
604,126.50108232708335,126.71160832708335,54.0,83.0
605,126.23792482708336,126.78288015000001,59.0,84.0
606,126.23792482708336,126.82783622291669,63.0,85.0
607,127.29055482708335,127.38046697291668,56.0,75.0
608,127.29055482708335,127.42980900416669,59.0,85.0
609,127.29055482708335,127.44515985833335,63.0,86.0
610,126.76423982708334,127.64033500416669,44.0,85.0
611,127.55371232708336,127.86621185833334,56.0,78.0
612,127.55371232708336,127.93638719166668,59.0,79.0
613,128.34318482708335,128.45502676458335,56.0,75.0
614,127.81686982708335,128.61840371250003,51.0,82.0
615,128.34318482708335,128.66116680625,59.0,84.0
616,128.34318482708335,128.70502638958334,63.0,84.0
617,128.60634232708335,128.7225702229167,56.0,77.0
618,128.86949982708336,129.19296425416667,61.0,73.0
619,128.86949982708336,129.21050808750002,56.0,74.0
620,129.39581482708334,129.4934024,56.0,74.0
621,129.39581482708334,129.54603390000003,64.0,78.0
622,129.39581482708334,129.55041985833336,61.0,80.0
623,128.86949982708336,129.7620423479167,49.0,84.0
624,129.65897232708335,129.8903316291667,64.0,77.0
625,129.65897232708335,129.90568248333335,61.0,79.0
626,129.65897232708335,129.94734908750002,56.0,75.0
627,130.44844482708334,130.54164644166667,54.0,78.0
628,129.92212982708335,130.73462860833337,42.0,84.0
629,130.44844482708334,130.83331267083335,58.0,85.0
630,130.44844482708334,130.86291788958334,61.0,84.0
631,130.71160232708337,131.29493478541667,54.0,82.0
632,130.97475982708335,131.30480319166668,59.0,85.0
633,131.50107482708336,131.59756591041668,54.0,78.0
634,131.50107482708336,131.65896932708335,63.0,84.0
635,131.50107482708336,131.66445177500003,59.0,84.0
636,130.97475982708335,132.00326705625002,47.0,85.0
637,131.76423232708333,132.27958243125002,59.0,83.0
638,131.76423232708333,132.29054732708335,54.0,83.0
639,132.55370482708335,132.6403275041667,54.0,83.0
640,132.02738982708337,132.76423082708334,42.0,83.0
641,132.55370482708335,132.80918690000001,63.0,83.0
642,132.55370482708335,132.8146693479167,59.0,84.0
643,132.81686232708336,132.91225692083336,54.0,78.0
644,133.08001982708336,133.42870351458336,54.0,77.0
645,133.08001982708336,133.44076490000003,51.0,74.0
646,133.60633482708334,133.72036974375,54.0,83.0
647,133.60633482708334,133.73791357708336,58.0,83.0
648,133.08001982708336,134.00436054583335,39.0,84.0
649,133.86949232708335,134.37607051458335,54.0,78.0
650,133.86949232708335,134.37826349375,58.0,80.0
651,134.13264982708336,134.6962454729167,46.0,76.0
652,134.65896482708337,134.81356985833335,54.0,89.0
653,134.65896482708337,134.83440316041668,58.0,87.0
654,134.65896482708337,134.8837451916667,63.0,87.0
655,135.18527982708335,135.5251915979167,54.0,74.0
656,135.18527982708335,135.53725298333336,59.0,80.0
657,135.18527982708335,136.11948895208334,47.0,84.0
658,135.97475232708337,136.3015062229167,54.0,82.0
659,135.97475232708337,136.34317282708335,59.0,85.0
660,135.97475232708337,136.35304123333336,63.0,85.0
661,136.50106732708335,136.6074268166667,54.0,83.0
662,136.23790982708334,136.80918090000003,47.0,84.0
663,136.76422482708335,136.8113738791667,54.0,74.0
664,136.76422482708335,137.03725073333334,63.0,87.0
665,136.76422482708335,137.05040860833336,59.0,86.0
666,137.02738232708336,137.15786458750003,54.0,78.0
667,137.29053982708336,137.76970577500003,56.0,75.0
668,137.29053982708336,137.98352124375003,52.0,76.0
669,137.29053982708336,138.14580170208336,40.0,80.0
670,138.08001232708335,138.39141536875002,64.0,79.0
671,138.08001232708335,138.39251185833336,52.0,78.0
672,138.08001232708335,138.41005569166668,56.0,84.0
673,138.08001232708335,138.43198548333334,59.0,84.0
674,138.60632732708336,138.77299374375002,52.0,77.0
675,138.86948482708334,138.90676547291667,52.0,68.0
676,138.86948482708334,139.18527382708334,56.0,82.0
677,139.13264232708335,139.19952819166667,52.0,72.0
678,138.34316982708336,139.21049308750003,47.0,79.0
679,138.86948482708334,139.21816851458334,59.0,83.0
680,139.39579982708335,140.3179475666667,56.0,77.0
681,139.39579982708335,140.35632470208336,59.0,79.0
682,139.39579982708335,140.37496502500002,44.0,78.0
683,140.44842982708334,140.86290288958335,56.0,83.0
684,140.44842982708334,141.0942621916667,61.0,84.0
685,140.44842982708334,141.13373581666667,49.0,86.0
686,141.50105982708334,141.9396556604167,58.0,77.0
687,141.50105982708334,141.9495240666667,61.0,82.0
688,141.50105982708334,141.97803279583334,54.0,77.0
689,142.02737482708335,142.38921638958334,49.0,78.0
690,142.29053232708335,142.6008388791667,54.0,84.0
691,142.29053232708335,142.70500538958336,58.0,85.0
692,142.29053232708335,142.7587333791667,66.0,80.0
693,142.29053232708335,142.87496127500003,61.0,88.0
694,142.81684732708334,143.06355748333334,54.0,79.0
695,143.08000482708334,143.20171517083335,58.0,79.0
696,143.08000482708334,143.22912741041668,61.0,77.0
697,143.08000482708334,143.2389958166667,66.0,80.0
698,141.50105982708334,143.39250435833335,42.0,84.0
699,142.55368982708336,143.42430255625,49.0,83.0
700,143.34316232708335,143.45829373333336,54.0,72.0
701,143.60631982708335,143.8738632854167,61.0,83.0
702,143.60631982708335,143.87495977500004,58.0,80.0
703,143.60631982708335,143.87824924375002,54.0,79.0
704,143.60631982708335,144.15785408750003,42.0,85.0
705,145.18526482708336,145.41552763958336,58.0,84.0
706,145.18526482708336,145.4922819104167,54.0,80.0
707,145.18526482708336,145.50982574375,61.0,83.0
708,145.18526482708336,145.51201872291668,42.0,84.0
709,145.71157982708337,146.37714900416668,59.0,76.0
710,145.71157982708337,146.3804384729167,54.0,72.0
711,145.71157982708337,146.76092035833335,47.0,87.0
712,146.50105232708336,147.05368307708335,54.0,85.0
713,146.50105232708336,147.1238584104167,59.0,84.0
714,146.50105232708336,147.15236713958336,63.0,86.0
715,147.29052482708335,147.41881410833335,54.0,83.0
716,146.76420982708333,147.67539267083333,42.0,84.0
717,147.55368232708335,147.75762938958337,54.0,72.0
718,147.29052482708335,147.77298024375003,59.0,87.0
719,147.29052482708335,147.78284865,63.0,86.0
720,147.81683982708336,148.4034617541667,52.0,80.0
721,147.81683982708336,148.4133301604167,59.0,79.0
722,147.81683982708336,148.6731981916667,40.0,85.0
723,148.34315482708337,148.70718936875002,47.0,78.0
724,148.60631232708334,148.82670673333337,52.0,79.0
725,148.60631232708334,148.98240825416667,56.0,78.0
726,149.39578482708333,149.58986348333337,54.0,80.0
727,149.39578482708333,149.70170542083335,58.0,85.0
728,149.13262732708336,149.7850386291667,49.0,78.0
729,148.86946982708335,149.79271405625002,42.0,86.0
730,149.92209982708334,150.50433579583336,59.0,83.0
731,149.92209982708334,150.52297611875002,54.0,83.0
732,149.92209982708334,150.9528000354167,47.0,87.0
733,150.71157232708336,151.05367707708336,54.0,84.0
734,150.71157232708336,151.28832584791667,59.0,85.0
735,150.71157232708336,151.29709776458336,63.0,85.0
736,151.23788732708334,151.35411522291668,54.0,82.0
737,151.50104482708335,151.54709738958337,54.0,74.0
738,150.97472982708337,151.83766712916668,42.0,85.0
739,151.50104482708335,151.88591267083336,59.0,86.0
740,151.76420232708335,151.89139511875004,54.0,83.0
741,151.50104482708335,151.93086874375,63.0,85.0
742,152.02735982708336,152.65455186875002,56.0,79.0
743,152.02735982708336,152.66222729583336,59.0,82.0
744,152.55367482708334,152.89577957708337,51.0,80.0
745,152.02735982708336,152.92209532708335,44.0,85.0
746,152.81683232708335,152.98459523333335,56.0,83.0
747,152.81683232708335,153.0152969416667,59.0,84.0
748,153.07998982708335,153.3870069104167,61.0,79.0
749,153.07998982708335,153.53393651458336,56.0,81.0
750,153.60630482708336,153.7751642229167,56.0,75.0
751,153.60630482708336,153.92976925416667,65.0,88.0
752,153.07998982708335,153.9341552125,49.0,79.0
753,153.86946232708334,154.1896372854167,56.0,78.0
754,154.65893482708336,154.95717999375,49.0,71.0
755,154.13261982708337,155.11288151458336,42.0,79.0
756,154.92209232708336,155.23130238958333,54.0,83.0
757,154.92209232708336,155.25542516041668,58.0,83.0
758,154.92209232708336,155.26967952500002,61.0,84.0
759,155.44840732708337,155.7817401604167,54.0,84.0
760,155.71156482708335,155.98678371250003,58.0,84.0
761,155.71156482708335,155.9955556291667,66.0,82.0
762,155.71156482708335,156.0350292541667,61.0,86.0
763,155.18524982708334,156.05038010833334,49.0,77.0
764,155.97472232708336,156.12823086875002,54.0,79.0
765,156.23787982708336,156.85520346250001,59.0,81.0
766,156.23787982708336,156.87603676458338,54.0,83.0
767,156.23787982708336,157.2652905666667,47.0,85.0
768,157.02735232708335,157.4078342125,54.0,84.0
769,157.02735232708335,157.61836021250002,59.0,84.0
770,157.02735232708335,157.62713212916668,63.0,84.0
771,157.55366732708336,157.7488424729167,54.0,83.0
772,157.29050982708335,158.09314020208336,42.0,84.0
773,158.07998232708337,158.20607862916668,54.0,83.0
774,157.81682482708334,158.22252597291669,59.0,83.0
775,157.81682482708334,158.2422627854167,63.0,84.0
776,158.34313982708335,158.95388452500003,59.0,82.0
777,158.34313982708335,158.97362133750002,56.0,77.0
778,159.13261232708334,159.5087082541667,56.0,85.0
779,159.13261232708334,159.70059393125,63.0,85.0
780,159.65892732708335,159.81243586875001,56.0,85.0
781,159.92208482708335,160.04927761875,56.0,78.0
782,159.92208482708335,160.23458435833334,59.0,83.0
783,159.39576982708337,160.29708426458336,51.0,83.0
784,160.18524232708336,160.3113386291667,56.0,79.0
785,158.34313982708335,160.34313682708336,44.0,84.0
786,160.44839982708334,161.0317322854167,61.0,79.0
787,160.44839982708334,161.03611824375002,56.0,78.0
788,160.44839982708334,161.50322280625002,49.0,84.0
789,161.23787232708335,161.56462622291667,56.0,78.0
790,161.23787232708335,161.62054719166667,61.0,84.0
791,161.23787232708335,161.75760838958337,65.0,79.0
792,161.76418732708333,161.90563448333336,56.0,84.0
793,162.02734482708337,162.1337043166667,56.0,83.0
794,162.02734482708337,162.27953743125002,61.0,84.0
795,161.50102982708336,162.29927424375,44.0,85.0
796,162.29050232708335,162.40673022291668,56.0,79.0
797,162.55365982708335,163.18194835833336,58.0,76.0
798,162.55365982708335,163.19181676458334,54.0,75.0
799,163.07997482708336,163.43852692083334,49.0,76.0
800,162.55365982708335,163.5679126916667,42.0,82.0
801,163.34313232708337,163.68085111875,54.0,82.0
802,163.34313232708337,163.7258071916667,58.0,76.0
803,163.34313232708337,163.92646478541667,61.0,83.0
804,163.86944732708335,164.19400824375003,54.0,83.0
805,164.13260482708336,164.38150796250002,58.0,83.0
806,164.39576232708336,164.55365682708336,54.0,77.0
807,164.13260482708336,164.55694629583337,61.0,85.0
808,164.13260482708336,164.559139275,66.0,82.0
809,163.60628982708334,164.56242874375002,49.0,79.0
810,164.65891982708337,165.24992771250004,59.0,83.0
811,164.65891982708337,165.2948837854167,54.0,71.0
812,164.65891982708337,165.64576045208335,47.0,84.0
813,165.44839232708335,165.7718567541667,54.0,83.0
814,165.44839232708335,165.97032136875004,63.0,85.0
815,165.44839232708335,165.9867687125,59.0,85.0
816,165.97470732708337,166.0975141604167,54.0,70.0
817,166.23786482708334,166.47361008750002,54.0,83.0
818,165.71154982708336,166.58325904583336,42.0,75.0
819,166.23786482708334,166.86396037916668,59.0,84.0
820,166.23786482708334,166.90672347291667,63.0,84.0
821,166.76417982708335,167.7981695041667,47.0,87.0
822,167.55365232708334,167.87930973333334,54.0,83.0
823,167.55365232708334,167.99444113958336,59.0,85.0
824,167.55365232708334,168.02733582708333,63.0,85.0
825,168.07996732708335,168.20167767083336,54.0,78.0
826,167.81680982708338,168.66549276458335,42.0,83.0
827,168.60628232708336,168.90672047291667,54.0,84.0
828,168.34312482708336,168.9231678166667,59.0,83.0
829,168.34312482708336,168.92755377500004,63.0,85.0
830,168.86943982708334,169.87930673333335,47.0,89.0
831,169.65891232708336,170.03281527500002,54.0,83.0
832,169.65891232708336,170.23785882708336,59.0,83.0
833,169.65891232708336,170.2751394729167,63.0,85.0
834,170.18522732708334,170.28939383750003,54.0,80.0
835,169.92206982708336,170.56899868125004,42.0,84.0
836,170.44838482708337,170.57448112916668,54.0,85.0
837,170.44838482708337,170.69180551458334,59.0,84.0
838,170.71154232708335,170.76965627500002,54.0,69.0
839,170.97469982708336,171.58325154583335,54.0,84.0
840,170.97469982708336,171.60298835833333,51.0,83.0
841,170.97469982708336,171.8804002229167,39.0,84.0
842,171.76417232708337,172.08105781666669,51.0,84.0
843,171.76417232708337,172.0843472854167,58.0,84.0
844,171.76417232708337,172.11943495208334,54.0,84.0
845,172.29048732708335,172.87272329583334,51.0,83.0
846,172.55364482708336,172.88917063958337,58.0,75.0
847,172.02732982708335,172.8935565979167,46.0,84.0
848,172.55364482708336,172.91110043125002,54.0,83.0
849,173.07995982708337,173.453862775,51.0,80.0
850,173.07995982708337,173.49004693125002,54.0,83.0
851,173.86943232708336,174.04048470208335,58.0,84.0
852,173.86943232708336,174.14136174375002,63.0,85.0
853,174.39574732708337,174.51745767083335,58.0,81.0
854,174.13258982708334,174.6600013166667,46.0,78.0
855,173.07995982708337,174.66877323333335,39.0,85.0
856,174.65890482708335,174.79048357708336,58.0,86.0
857,174.65890482708335,174.83105369166668,63.0,84.0
858,175.18521982708336,175.79377154583335,59.0,76.0
859,175.18521982708336,175.79815750416668,56.0,71.0
860,175.18521982708336,176.07337638958336,44.0,84.0
861,175.97469232708335,176.2784199416667,56.0,81.0
862,175.97469232708335,176.32776197291668,63.0,84.0
863,175.97469232708335,176.33872686875003,59.0,84.0
864,176.50100732708336,176.62600713958335,56.0,84.0
865,176.23784982708335,176.66548076458335,51.0,84.0
866,176.76416482708336,176.92425230625003,56.0,85.0
867,176.76416482708336,176.96153295208336,59.0,88.0
868,177.29047982708335,177.86065441041669,61.0,79.0
869,177.29047982708335,177.86284738958335,56.0,79.0
870,177.29047982708335,178.23017140000002,37.0,85.0
871,178.07995232708336,178.35188174375003,56.0,78.0
872,178.07995232708336,178.4659166604167,61.0,84.0
873,178.07995232708336,178.59859190000003,65.0,83.0
874,178.60626732708334,178.72359171250002,56.0,85.0
875,178.34310982708337,178.73784607708336,44.0,83.0
876,178.86942482708335,178.98236325416667,56.0,85.0
877,178.86942482708335,179.18850329583336,61.0,85.0
878,179.13258232708336,179.27402948333335,56.0,74.0
879,179.39573982708336,180.00100207708334,58.0,71.0
880,179.39573982708336,180.02293186875002,54.0,73.0
881,179.92205482708334,180.29047532708336,49.0,79.0
882,179.39573982708336,180.31679107708334,42.0,83.0
883,180.18521232708338,180.51086973333335,54.0,84.0
884,180.18521232708338,180.56679070208335,61.0,89.0
885,180.18521232708338,180.57227315000003,58.0,90.0
886,180.71152732708336,180.89683406666668,54.0,83.0
887,180.44836982708335,181.2586756291667,49.0,77.0
888,180.97468482708337,181.28060542083335,58.0,86.0
889,180.97468482708337,181.30034223333337,61.0,85.0
890,181.23784232708334,181.4067017229167,54.0,78.0
891,181.50099982708338,181.71810476458336,54.0,77.0
892,181.50099982708338,181.7192012541667,61.0,85.0
893,181.50099982708338,181.72029774375002,58.0,84.0
894,181.50099982708338,181.72578019166667,66.0,75.0
895,181.50099982708338,181.76086785833337,42.0,86.0
896,184.29046932708337,185.1709504625,42.0,83.0
897,184.3178815666667,185.21700302500003,58.0,83.0
898,184.23235537916668,185.23783632708336,54.0,71.0
899,184.4757760666667,185.24770473333336,66.0,77.0
900,184.42204807708336,185.3156870875,61.0,76.0
901,185.62160768125003,185.74660749375002,35.0,83.0
902,185.49660786875,186.00757201458336,54.0,70.0
903,185.5909059729167,186.14463321250003,59.0,76.0
904,185.6632742854167,186.28388738958336,63.0,83.0
905,186.59309745208336,188.55691029583335,59.0,65.0
906,188.0262093375,188.61831371250003,66.0,69.0
907,188.92423430625,189.36283013958337,71.0,73.0
908,188.90230451458336,189.37598801458336,66.0,69.0
909,188.84857652500003,189.38147046250003,59.0,67.0
910,186.35296623333335,189.4659001604167,54.0,72.0
911,186.0711684104167,189.50756676458337,47.0,84.0
