,start,end,pitch,velocity
0,27.297063233333336,27.69199021666667,57.0,72.0
1,27.73184523333334,28.12677221666667,64.0,79.0
2,28.166627233333337,28.307931383333337,66.0,97.0
3,28.38401823333334,28.91662618333334,66.0,96.0
4,29.036191233333337,29.324234308333338,64.0,92.0
5,29.253582233333336,29.711914925000006,66.0,112.0
6,29.68836423333334,29.969160941666672,64.0,83.0
7,30.123146233333337,30.755391725000006,57.0,92.0
8,30.992710233333337,31.18111576666667,54.0,79.0
9,31.210101233333337,31.639448458333337,61.0,81.0
10,31.64488323333334,31.79524534166667,62.0,69.0
11,31.862274233333338,32.41843287500001,62.0,82.0
12,32.514447233333335,32.800678716666674,61.0,95.0
13,32.73183823333334,33.287996875000005,62.0,93.0
14,33.16662023333334,33.574228358333336,61.0,107.0
15,33.60140223333334,34.19560430000001,54.0,83.0
16,34.470966233333336,34.67024131666667,54.0,92.0
17,34.68835723333334,35.05429875000001,66.0,96.0
18,35.12313923333334,35.23726950833334,67.0,90.0
19,35.34053023333334,35.95828299166667,67.0,95.0
20,35.99270323333334,36.086906000000006,66.0,95.0
21,36.210094233333336,36.63038350000001,67.0,88.0
22,36.86226723333334,37.14125235000001,66.0,93.0
23,37.29704923333334,37.65393279166667,59.0,89.0
24,37.73183123333334,37.95646860000001,62.0,95.0
25,38.16661323333334,38.342337625000006,62.0,99.0
26,38.60139523333334,38.690163225000006,62.0,89.0
27,38.81878623333334,38.93472810000001,62.0,90.0
28,39.25356823333334,39.336901450000006,64.0,90.0
29,39.47095923333334,39.90574123333334,66.0,100.0
30,39.90574123333334,40.82421820833334,64.0,92.0
31,41.42747823333334,41.57965193333334,57.0,86.0
32,41.64486923333334,42.00718756666667,64.0,93.0
33,42.07965123333334,42.452839116666674,66.0,92.0
34,42.29704223333334,42.452839116666674,66.0,100.0
35,42.94921523333334,43.06515710000001,64.0,93.0
36,43.16660623333334,43.483634775000006,66.0,99.0
37,43.60138823333334,43.885808125000004,64.0,89.0
38,44.03617023333334,44.38580742500001,57.0,86.0
39,44.90573423333334,45.06877748333334,54.0,83.0
40,45.12312523333334,45.485443566666675,61.0,96.0
41,45.55790723333334,45.82964598333334,62.0,89.0
42,45.99268923333334,46.25718161666667,62.0,95.0
43,46.42747123333334,46.60863040000001,61.0,97.0
44,46.64486223333334,47.03073125833334,62.0,92.0
45,47.07964423333334,47.315151150000005,64.0,99.0
46,47.51442623333334,48.043411000000006,66.0,102.0
47,48.38399023333334,48.48906255000001,59.0,92.0
48,48.60138123333334,48.947395241666676,66.0,107.0
49,49.03616323333334,49.14667032500001,67.0,92.0
50,49.25355423333334,49.63761166666667,67.0,100.0
51,49.905727233333344,50.02348069166668,66.0,102.0
52,50.123118233333344,50.523479991666676,67.0,97.0
53,50.77529123333334,51.170218216666676,66.0,97.0
54,51.21007323333334,51.556087241666674,59.0,95.0
55,51.64485523333334,51.95101422500001,62.0,107.0
56,52.079637233333344,52.41297010000001,62.0,100.0
57,52.51441923333334,52.574201758333345,62.0,89.0
58,52.73181023333334,52.94014327500001,62.0,97.0
59,53.16659223333334,53.24086749166668,64.0,89.0
60,53.38398323333334,53.96188097500001,66.0,117.0
61,53.818765233333345,54.47637300833334,64.0,97.0
62,54.68832923333334,54.99086504166667,66.0,102.0
63,55.12311123333334,55.42202385833334,67.0,96.0
64,55.557893233333346,56.19919668333334,69.0,107.0
65,56.21006623333334,56.61767435833334,69.0,102.0
66,56.86223923333334,56.94557245000001,69.0,117.0
67,57.07963023333334,57.46006448333334,69.0,117.0
68,57.731803233333345,57.81151326666667,67.0,95.0
69,57.949194233333344,58.345932808333345,67.0,100.0
70,58.38397623333334,58.865859616666675,66.0,97.0
71,59.03614923333334,60.224553366666676,66.0,107.0
72,61.644841233333345,61.936507491666674,64.0,93.0
73,62.07962323333334,62.35860835000001,66.0,100.0
74,62.51440523333334,62.85317287500001,67.0,112.0
75,63.16657823333334,63.58324431666668,67.0,112.0
76,63.818751233333344,63.88578012500001,67.0,100.0
77,64.03614223333334,64.47454741666668,67.0,107.0
78,64.68831523333334,65.06874948333335,66.0,99.0
79,65.12309723333334,65.55606764166667,59.0,96.0
80,65.55787923333334,65.90027005833335,62.0,99.0
81,65.99266123333334,66.55244305833334,62.0,95.0
82,66.64483423333334,67.15932626666668,64.0,102.0
83,67.29700723333335,67.76983265833334,66.0,96.0
84,67.73178923333334,68.23360012500001,64.0,92.0
85,68.60135323333334,68.89120790000001,66.0,127.0
86,69.03613523333334,69.28613488333335,67.0,93.0
87,69.47091723333334,69.82961238333334,69.0,117.0
88,70.12309023333334,70.56330700833334,69.0,102.0
89,70.77526323333335,70.86765440833335,69.0,102.0
90,70.99265423333334,71.31149436666668,69.0,112.0
91,71.64482723333334,71.72816045,67.0,93.0
92,71.86221823333335,72.15931926666667,67.0,100.0
93,72.29700023333335,72.51801441666667,66.0,102.0
94,72.73178223333335,72.81692704166667,66.0,102.0
95,72.94917323333334,73.24627426666667,66.0,117.0
96,73.38395523333334,73.51982460833335,66.0,102.0
97,73.60134623333335,73.98540366666668,66.0,112.0
98,74.03612823333334,74.57054777500001,67.0,97.0
99,74.68830123333335,75.07960503333335,66.0,102.0
100,75.55786523333335,75.84409671666668,64.0,99.0
101,75.99264723333334,76.06148771666668,66.0,95.0
102,76.21003823333335,76.81148666666668,67.0,86.0
103,77.29699323333334,77.66474634166669,59.0,95.0
104,77.73177523333335,78.00894875833335,62.0,92.0
105,78.16655723333335,78.81329545833334,62.0,100.0
106,79.03612123333335,79.82597520000002,61.0,96.0
107,79.90568523333334,81.18829213333335,62.0,96.0
108,86.42741523333335,86.82234221666668,57.0,72.0
109,86.86219723333335,87.25712421666668,64.0,79.0
110,87.29697923333335,87.43828338333334,66.0,97.0
111,87.51437023333335,88.04697818333335,66.0,96.0
112,88.16654323333334,88.45458630833335,64.0,92.0
113,88.38393423333335,88.84226692500002,66.0,112.0
114,88.81871623333335,89.09951294166667,64.0,83.0
115,89.25349823333335,89.88574372500001,57.0,92.0
116,90.12306223333334,90.31146776666668,54.0,79.0
117,90.34045323333335,90.76980045833335,61.0,81.0
118,90.77523523333335,90.92559734166669,62.0,69.0
119,90.99262623333335,91.54878487500001,62.0,82.0
120,91.64479923333334,91.93103071666668,61.0,95.0
121,91.86219023333335,92.41834887500002,62.0,93.0
122,92.29697223333335,92.70458035833335,61.0,107.0
123,92.73175423333335,93.32595630000002,54.0,83.0
124,93.60131823333334,93.80059331666668,54.0,92.0
125,93.81870923333335,94.18465075000002,66.0,96.0
126,94.25349123333335,94.36762150833334,67.0,90.0
127,94.47088223333334,95.08863499166668,67.0,95.0
128,95.12305523333335,95.21725800000002,66.0,95.0
129,95.34044623333335,95.76073550000001,67.0,88.0
130,95.99261923333334,96.27160435000002,66.0,93.0
131,96.42740123333334,96.78428479166668,59.0,89.0
132,96.86218323333335,97.08682060000001,62.0,95.0
133,97.29696523333335,97.47268962500002,62.0,99.0
134,97.73174723333335,97.82051522500001,62.0,89.0
135,97.94913823333334,98.06508010000002,62.0,90.0
136,98.38392023333334,98.46725345000002,64.0,90.0
137,98.60131123333335,99.03609323333335,66.0,100.0
138,99.03609323333335,99.95457020833335,64.0,92.0
139,100.55783023333335,100.71000393333335,57.0,86.0
140,100.77522123333335,101.13753956666669,64.0,93.0
141,101.21000323333335,101.58319111666668,66.0,92.0
142,101.42739423333335,101.58319111666668,66.0,100.0
143,102.07956723333335,102.19550910000001,64.0,93.0
144,102.29695823333336,102.61398677500001,66.0,99.0
145,102.73174023333335,103.01616012500001,64.0,89.0
146,103.16652223333335,103.51615942500001,57.0,86.0
147,104.03608623333335,104.19912948333335,54.0,83.0
148,104.25347723333336,104.61579556666668,61.0,96.0
149,104.68825923333335,104.95999798333335,62.0,89.0
150,105.12304123333335,105.38753361666669,62.0,95.0
151,105.55782323333335,105.73898240000001,61.0,97.0
152,105.77521423333334,106.16108325833335,62.0,92.0
153,106.20999623333336,106.44550315000002,64.0,99.0
154,106.64477823333335,107.17376300000002,66.0,102.0
155,107.51434223333335,107.61941455000002,59.0,92.0
156,107.73173323333334,108.07774724166669,66.0,107.0
157,108.16651523333336,108.27702232500002,67.0,92.0
158,108.38390623333335,108.76796366666669,67.0,100.0
159,109.03607923333335,109.15383269166668,66.0,102.0
160,109.25347023333335,109.65383199166668,67.0,97.0
161,109.90564323333335,110.30057021666669,66.0,97.0
162,110.34042523333335,110.68643924166669,59.0,95.0
163,110.77520723333335,111.08136622500001,62.0,107.0
164,111.20998923333335,111.54332210000001,62.0,100.0
165,111.64477123333334,111.70455375833335,62.0,89.0
166,111.86216223333335,112.07049527500001,62.0,97.0
167,112.29694423333335,112.37121949166668,64.0,89.0
168,112.51433523333336,113.09223297500002,66.0,117.0
169,112.94911723333335,113.60672500833336,64.0,97.0
170,113.81868123333335,114.12121704166668,66.0,102.0
171,114.25346323333335,114.55237585833335,67.0,96.0
172,114.68824523333335,115.32954868333336,69.0,107.0
173,115.34041823333335,115.74802635833335,69.0,102.0
174,115.99259123333336,116.07592445000002,69.0,117.0
175,116.20998223333335,116.59041648333336,69.0,117.0
176,116.86215523333335,116.94186526666668,67.0,95.0
177,117.07954623333335,117.47628480833335,67.0,100.0
178,117.51432823333334,117.99621161666668,66.0,97.0
179,118.16650123333335,119.35490536666669,66.0,107.0
180,120.77519323333335,121.06685949166669,64.0,93.0
181,121.20997523333335,121.48896035000001,66.0,100.0
182,121.64475723333335,121.98352487500001,67.0,112.0
183,122.29693023333336,122.71359631666668,67.0,112.0
184,122.94910323333335,123.01613212500001,67.0,100.0
185,123.16649423333335,123.60489941666668,67.0,107.0
186,123.81866723333336,124.19910148333335,66.0,99.0
187,124.25344923333336,124.68641964166669,59.0,96.0
188,124.68823123333335,125.03062205833335,62.0,99.0
189,125.12301323333335,125.68279505833335,62.0,95.0
190,125.77518623333336,126.28967826666668,64.0,102.0
191,126.42735923333335,126.90018465833336,66.0,96.0
192,126.86214123333335,127.36395212500003,64.0,92.0
193,127.73170523333336,128.02155990000003,66.0,127.0
194,128.16648723333336,128.41648688333336,67.0,93.0
195,128.60126923333334,128.95996438333336,69.0,117.0
196,129.25344223333335,129.69365900833336,69.0,102.0
197,129.90561523333335,129.99800640833337,69.0,102.0
198,130.12300623333334,130.44184636666668,69.0,112.0
199,130.77517923333335,130.85851245,67.0,93.0
200,130.99257023333337,131.2896712666667,67.0,100.0
201,131.42735223333335,131.64836641666668,66.0,102.0
202,131.86213423333336,131.9472790416667,66.0,102.0
203,132.07952523333336,132.37662626666668,66.0,117.0
204,132.51430723333334,132.65017660833337,66.0,102.0
205,132.73169823333336,133.1157556666667,66.0,112.0
206,133.16648023333335,133.700899775,67.0,97.0
207,133.81865323333335,134.20995703333335,66.0,102.0
208,134.68821723333335,134.9744487166667,64.0,99.0
209,135.12299923333336,135.1918397166667,66.0,95.0
210,135.34039023333335,135.94183866666668,67.0,86.0
211,136.42734523333334,136.7950983416667,59.0,95.0
212,136.86212723333335,137.13930075833335,62.0,92.0
213,137.29690923333337,137.94364745833334,62.0,100.0
214,138.16647323333336,138.95632720000003,61.0,96.0
215,139.03603723333336,140.31864413333335,62.0,96.0
216,172.51425123333337,172.79142475833336,57.0,97.0
217,172.94903323333335,173.28417769166668,66.0,97.0
218,173.38381523333337,173.73164083333336,67.0,112.0
219,173.81859723333335,174.55953822500004,69.0,100.0
220,174.47077023333335,174.55953822500004,69.0,107.0
221,175.12294323333336,175.24250828333336,69.0,117.0
222,175.34033423333335,175.80410170000002,69.0,117.0
223,175.99250723333336,176.09576795833337,67.0,100.0
224,176.20989823333335,176.70083957500003,67.0,107.0
225,176.86207123333335,177.1700418166667,66.0,99.0
226,177.29685323333337,177.65192520000002,66.0,112.0
227,179.90554523333336,180.24431287500002,64.0,112.0
228,180.34032723333337,180.6428630416667,66.0,117.0
229,180.77510923333335,181.13018120000004,67.0,122.0
230,181.42728223333336,181.9852524666667,67.0,107.0
231,182.07945523333336,182.16641163333335,67.0,96.0
232,182.29684623333335,182.7135123166667,67.0,102.0
233,182.94901923333336,183.35662735833336,66.0,100.0
234,183.38380123333337,183.79684413333337,59.0,97.0
235,183.81858323333336,184.1754667916667,62.0,107.0
236,184.25336523333337,184.8711179916667,62.0,122.0
237,184.68814723333335,184.97256712500004,64.0,102.0
238,185.12292923333337,185.51604462500003,66.0,107.0
239,185.77510223333337,186.2080726416667,64.0,100.0
240,186.64466623333337,186.82582540000004,57.0,93.0
241,186.86205723333336,187.1645930416667,66.0,102.0
242,187.29683923333337,187.59575185833336,67.0,96.0
243,187.73162123333336,188.37292468333337,69.0,107.0
244,188.38379423333336,188.79140235833336,69.0,102.0
245,189.03596723333337,189.11930045000003,69.0,117.0
246,189.25335823333336,189.63379248333337,69.0,117.0
247,189.90553123333336,189.9852412666667,67.0,95.0
248,190.12292223333336,190.51966080833336,67.0,100.0
249,190.55770423333337,190.8276313916667,66.0,99.0
250,190.99248623333335,191.09574695833336,66.0,102.0
251,191.20987723333337,191.5613260166667,66.0,117.0
252,191.64465923333336,191.7461083666667,66.0,97.0
253,191.86205023333335,192.18270195833335,66.0,90.0
254,191.20987723333337,192.18994832500002,60.0,97.0
255,192.29683223333336,192.74973015000003,67.0,95.0
256,192.94900523333337,193.63559847500002,66.0,95.0
257,193.81856923333336,194.11023549166669,64.0,93.0
258,194.25335123333338,194.53233635000004,66.0,100.0
259,194.47074223333337,195.34755260000003,67.0,89.0
260,195.34030623333337,195.45443650833337,59.0,86.0
261,195.55769723333336,195.95081262500003,59.0,90.0
262,195.99247923333337,196.32037732500004,62.0,82.0
263,196.42726123333335,196.87291278333336,62.0,97.0
264,197.29682523333335,197.48885395000002,65.0,112.0
265,197.51421623333337,198.05407055000003,64.0,89.0
266,198.16638923333338,200.50334248333337,62.0,90.0
267,200.77508123333337,201.06493590000002,66.0,127.0
268,201.20986323333335,201.45986288333336,67.0,93.0
269,201.64464523333336,202.00334038333335,69.0,117.0
270,202.29681823333337,202.73703500833338,69.0,102.0
271,202.94899123333337,203.04138240833336,69.0,102.0
272,203.16638223333337,203.4852223666667,69.0,112.0
273,203.81855523333337,203.90188845000003,67.0,93.0
274,204.03594623333336,204.3330472666667,67.0,100.0
275,204.47072823333338,204.84210452500002,66.0,102.0
276,205.12290123333335,205.4200022666667,66.0,117.0
277,205.55768323333336,205.69355260833336,66.0,102.0
278,205.77507423333336,206.1591316666667,66.0,112.0
279,206.20985623333337,206.74427577500003,67.0,97.0
280,206.86202923333337,207.25333303333338,66.0,102.0
281,207.73159323333337,208.0178247166667,64.0,99.0
282,208.16637523333335,208.2352157166667,66.0,95.0
283,208.38376623333338,208.9852146666667,67.0,86.0
284,209.25333023333337,209.47615600833336,59.0,95.0
285,209.47072123333336,209.47615600833336,59.0,95.0
286,209.90550323333338,210.18267675833337,62.0,92.0
287,210.34028523333336,210.98702345833337,62.0,100.0
288,211.20984923333336,211.99970320000003,61.0,96.0
289,212.07941323333336,212.71709350000003,69.0,117.0
290,212.94897723333338,213.2841216916667,64.0,100.0
291,213.38375923333336,213.68810663333338,69.0,102.0
292,213.81854123333338,214.42180125833337,67.0,117.0
293,214.68810523333337,215.11382927500003,66.0,122.0
294,215.55766923333337,215.89100210000004,67.0,99.0
295,215.99245123333336,216.2895522666667,66.0,107.0
296,216.42723323333337,216.75331973333337,59.0,100.0
297,216.86201523333338,217.1102032916667,62.0,122.0
298,217.29679723333336,217.95078182500004,62.0,107.0
299,218.16636123333336,218.48701295833337,66.0,112.0
300,218.38375223333335,218.6645489416667,64.0,88.0
301,219.03592523333336,220.2895466666667,62.0,96.0
