,start,end,pitch,velocity
0,6.389106727083333,6.64717099375,59.0,58.0
1,6.631041977083333,6.9072513875,61.0,62.0
2,6.872977227083333,7.110880222916666,64.0,65.0
3,7.114912477083333,7.377008997916667,71.0,69.0
4,7.356847727083333,7.592734595833333,69.0,70.0
5,7.598782977083333,7.8024118125,64.0,71.0
6,7.840718227083333,8.092734112499999,66.0,71.0
7,8.082653477083333,8.374991904166667,61.0,71.0
8,8.324588727083333,8.6007981375,59.0,69.0
9,8.566523977083333,8.810475354166666,61.0,68.0
10,8.808459227083333,9.058458985416665,64.0,67.0
11,9.050394477083334,9.29636198125,71.0,65.0
12,9.292329727083333,9.552410120833333,69.0,64.0
13,9.534264977083334,9.782248608333333,64.0,63.0
14,9.776200227083333,10.020151604166665,66.0,62.0
15,10.018135477083332,10.256038472916666,61.0,63.0
16,10.247973964583332,10.506038231249999,59.0,65.0
17,10.489909214583333,10.766118624999999,61.0,68.0
18,10.731844464583332,10.969747460416666,64.0,69.0
19,10.973779714583333,11.235876235416667,71.0,70.0
20,11.215714964583333,11.451601833333333,69.0,70.0
21,11.457650214583333,11.66127905,64.0,70.0
22,11.699585464583333,11.951601349999999,66.0,70.0
23,11.941520714583334,12.233859141666667,61.0,69.0
24,12.183455964583333,12.459665375,59.0,68.0
25,12.425391214583332,12.669342591666666,61.0,67.0
26,12.667326464583333,12.917326222916666,64.0,67.0
27,12.909261714583332,13.15522921875,71.0,69.0
28,13.151196964583333,13.40926123125,69.0,71.0
29,13.393132214583332,13.641115845833333,64.0,74.0
30,13.635067464583333,13.879018841666666,66.0,78.0
31,13.877002714583332,14.114905710416666,61.0,80.0
32,14.118937964583333,14.37700223125,59.0,81.0
33,14.360873214583332,14.637082625,61.0,81.0
34,14.602808464583333,14.840711460416665,64.0,81.0
35,14.844743714583332,15.106840235416666,71.0,80.0
36,15.086678964583333,15.322565833333332,69.0,78.0
37,15.328614214583332,15.53224305,64.0,78.0
38,15.570549464583333,15.82256535,66.0,78.0
39,15.812484714583332,16.104823141666667,61.0,79.0
40,16.05441996458333,16.330629375,59.0,82.0
41,16.296355214583333,16.540306591666667,61.0,85.0
42,16.538290464583334,16.788290222916665,64.0,89.0
43,16.78022571458333,17.02619321875,59.0,94.0
44,17.022160964583332,17.501999210416667,61.0,99.0
45,17.989901964583332,18.348772585416665,76.0,118.0
46,18.473772464583334,18.87699788125,76.0,115.0
47,18.957642964583332,19.29635231458333,73.0,115.0
48,19.441513464583334,19.78425506875,73.0,115.0
49,19.925383964583332,20.320544872916667,71.0,112.0
50,20.40925446458333,20.889092710416666,69.0,118.0
51,20.893124964583333,21.372963210416664,71.0,99.0
52,21.37699546458333,21.697559670833332,78.0,112.0
53,21.860865964583333,23.417316072916666,76.0,118.0
54,23.796347964583333,24.197557254166664,69.0,120.0
55,24.28021846458333,24.6652987375,71.0,115.0
56,24.764088964583333,25.126991839583333,73.0,115.0
57,25.24795946458333,25.6330397375,76.0,115.0
58,25.731829964583333,26.872957893749998,78.0,112.0
59,27.183441464583332,27.542312085416665,81.0,120.0
60,27.66731196458333,28.286262979166665,80.0,115.0
61,28.393117714583333,28.550375627083334,81.0,117.0
62,28.63505296458333,28.969730060416666,80.0,118.0
63,29.118923464583332,29.483842466666665,78.0,115.0
64,29.60279396458333,31.050373210416666,76.0,118.0
65,31.054405464583333,31.417308339583332,73.0,115.0
66,31.53827596458333,33.36488710208333,71.0,112.0
67,33.473757964583335,33.832628585416664,76.0,118.0
68,33.95762846458333,34.36085388125,76.0,115.0
69,34.44149896458333,34.780208314583334,73.0,115.0
70,34.92536946458333,35.268111068749995,73.0,115.0
71,35.40923996458333,35.804400872916666,71.0,112.0
72,35.89311046458333,36.372948710416665,69.0,118.0
73,36.37698096458333,36.85681921041667,71.0,99.0
74,36.860851464583334,37.18141567083333,78.0,112.0
75,37.34472196458333,38.901172072916665,76.0,118.0
76,39.28020396458333,39.681413254166664,69.0,120.0
77,39.76407446458333,40.1491547375,71.0,115.0
78,40.24794496458333,40.61084783958333,73.0,115.0
79,40.731815464583335,41.116895737499995,76.0,115.0
80,41.21568596458333,42.35681389375,78.0,112.0
81,42.66729746458333,43.026168085416664,81.0,120.0
82,43.15116796458333,43.77011897916667,80.0,115.0
83,43.87697371458333,44.03423162708333,81.0,117.0
84,44.11890896458333,44.45358606041666,83.0,118.0
85,44.60277946458333,44.96769846666666,80.0,115.0
86,45.08664996458333,48.953581710416664,81.0,118.0
87,111.13497321458333,111.31844077916666,76.0,109.0
88,111.37690846458332,111.63497273124999,80.0,115.0
89,111.61884371458332,111.92731115833332,81.0,120.0
90,112.10271421458333,112.34061721041667,76.0,99.0
91,112.34464946458333,112.55835893541666,71.0,104.0
92,112.58658471458332,112.84666510833333,76.0,104.0
93,112.82851996458332,114.18537349166667,69.0,117.0
94,114.28013146458332,114.48779255416666,68.0,99.0
95,114.52206671458333,114.70755040625,69.0,96.0
96,117.90916021458332,118.17528898958332,69.0,117.0
97,118.15109546458332,118.37085331666665,71.0,91.0
98,118.39303071458333,118.56440151666666,73.0,104.0
99,118.63496596458333,120.35472236666666,71.0,109.0
100,122.02205946458332,122.2861721125,69.0,104.0
101,122.26399471458333,122.50794609166665,68.0,104.0
102,122.50592996458333,124.09060585208333,66.0,106.0
103,129.28011696458333,129.66116498333332,71.0,109.0
104,129.28011696458333,129.69947139791665,64.0,109.0
105,129.76398746458332,130.00390658749998,69.0,120.0
106,130.00592271458333,130.14301935625,71.0,91.0
107,130.24785796458332,131.30430855625,73.0,109.0
108,136.78010971458332,137.01801271041666,76.0,104.0
109,137.02204496458333,137.2619640875,73.0,115.0
110,137.2639802145833,137.46156066875,76.0,106.0
111,137.50591546458332,137.75793134999998,71.0,112.0
112,137.74785071458334,137.89704411875,76.0,104.0
113,137.98978596458332,138.95349471041666,71.0,91.0
114,142.5865557145833,142.77203940625,64.0,94.0
115,142.82849096458332,143.3244582270833,71.0,109.0
116,142.82849096458332,143.4313129625,64.0,109.0
117,143.31236146458332,143.59461925624998,69.0,101.0
118,143.55429671458333,143.69139335625,71.0,80.0
119,143.7962319645833,144.64905372083334,69.0,99.0
120,143.7962319645833,144.71760204166665,64.0,94.0
121,144.76397296458333,145.11881133125,69.0,110.0
122,144.76397296458333,145.28010149791666,73.0,112.0
123,145.24784346458333,145.45348842708333,64.0,94.0
124,145.24784346458333,145.49985934999998,71.0,101.0
125,145.48977871458334,145.6954236770833,69.0,91.0
126,151.78009521458333,152.01194982916667,81.0,120.0
127,152.02203046458334,152.16114323333332,80.0,109.0
128,152.26396571458332,152.50186871041666,81.0,113.0
129,152.50590096458333,152.75791685,76.0,118.0
130,152.74783621458332,152.97565857499998,81.0,123.0
131,152.98977146458333,153.2054970625,74.0,120.0
132,153.23170671458334,153.41315815208333,73.0,115.0
133,153.47364196458332,154.48372163333332,74.0,120.0
134,159.7639584645833,160.01395822291667,76.0,118.0
135,160.00589371458332,160.18734515208334,78.0,112.0
136,160.24782896458333,160.40508687708333,80.0,115.0
137,160.48976421458332,160.61678022083333,81.0,123.0
138,160.73169946458333,160.87282836041666,83.0,112.0
139,160.9736347145833,161.09863459374998,80.0,115.0
140,161.21556996458332,162.21960125208332,81.0,120.0
141,167.98975696458334,168.18733741875,71.0,101.0
142,167.98975696458334,168.23169221458332,74.0,123.0
143,168.23169221458332,168.46153070208334,73.0,112.0
144,168.47362746458333,168.65104664791664,71.0,106.0
145,168.7155627145833,168.83451421249998,69.0,113.0
146,168.95749796458333,169.89701318541665,66.0,104.0
147,168.95749796458333,169.9716098875,71.0,94.0
148,173.07039721458332,173.25386477916666,76.0,109.0
149,173.31233246458333,173.57039673124999,80.0,115.0
150,173.55426771458332,173.86273515833332,81.0,120.0
151,174.0381382145833,174.27604121041665,76.0,99.0
152,174.28007346458332,174.49378293541665,71.0,104.0
153,174.52200871458334,174.78208910833334,76.0,104.0
154,174.76394396458332,176.12079749166665,69.0,117.0
155,176.21555546458333,176.42321655416666,68.0,99.0
156,176.45749071458332,176.64297440624998,69.0,96.0
157,176.69942596458333,177.05829658541666,76.0,118.0
158,177.18329646458332,177.58652188124998,76.0,115.0
159,177.66716696458332,178.00587631458333,73.0,115.0
160,178.1510374645833,178.49377906875,73.0,115.0
161,178.63490796458333,179.03006887291664,71.0,112.0
162,179.11877846458333,179.59861671041665,69.0,118.0
163,179.60264896458332,180.08248721041664,71.0,99.0
164,180.08651946458332,180.40708367083332,78.0,112.0
165,180.5703899645833,182.12684007291665,76.0,118.0
166,182.50587196458332,182.90708125416666,69.0,120.0
167,182.98974246458332,183.37482273749998,71.0,115.0
168,183.4736129645833,183.8365158395833,73.0,115.0
169,183.95748346458333,184.3425637375,76.0,115.0
170,184.44135396458333,185.58248189374999,78.0,112.0
171,185.8929654645833,186.25183608541667,81.0,120.0
172,186.37683596458334,186.99578697916667,80.0,115.0
173,187.1026417145833,187.2598996270833,81.0,117.0
174,187.34457696458333,187.67925406041667,80.0,118.0
175,187.82844746458332,188.19336646666665,78.0,115.0
176,188.31231796458331,189.75989721041665,76.0,118.0
177,189.76392946458333,190.12683233958333,73.0,115.0
178,190.24779996458332,192.07441110208333,71.0,112.0
179,192.18328196458333,192.54215258541666,76.0,118.0
180,192.18328196458333,192.54215258541666,88.0,118.0
181,192.66715246458332,193.07037788124998,76.0,115.0
182,192.66715246458332,193.07037788124998,88.0,115.0
183,193.15102296458332,193.48973231458334,73.0,115.0
184,193.15102296458332,193.48973231458334,85.0,115.0
185,193.6348934645833,193.97763506874998,73.0,115.0
186,193.6348934645833,193.97763506874998,85.0,115.0
187,194.11876396458334,194.51392487291665,71.0,112.0
188,194.11876396458334,194.51392487291665,83.0,112.0
189,194.60263446458333,195.08247271041665,69.0,118.0
190,194.60263446458333,195.08247271041665,81.0,118.0
191,195.08650496458333,195.56634321041665,71.0,99.0
192,195.08650496458333,195.56634321041665,83.0,99.0
193,195.57037546458332,195.89093967083332,78.0,112.0
194,195.57037546458332,195.89093967083332,90.0,112.0
195,196.05424596458332,197.61069607291665,76.0,118.0
196,196.05424596458332,197.61069607291665,88.0,118.0
197,197.98972796458332,198.39093725416666,69.0,120.0
198,197.98972796458332,198.39093725416666,81.0,120.0
199,198.47359846458332,198.8586787375,71.0,115.0
200,198.47359846458332,198.8586787375,83.0,115.0
201,198.9574689645833,199.32037183958332,73.0,115.0
202,198.9574689645833,199.32037183958332,85.0,115.0
203,199.44133946458334,199.82641973749998,76.0,115.0
204,199.44133946458334,199.82641973749998,88.0,115.0
205,199.92520996458333,201.06633789375,78.0,112.0
206,199.92520996458333,201.06633789375,90.0,112.0
207,201.37682146458332,201.73569208541664,81.0,120.0
208,201.37682146458332,201.73569208541664,93.0,120.0
209,201.8606919645833,202.47964297916667,80.0,115.0
210,201.8606919645833,202.47964297916667,92.0,115.0
211,202.58649771458332,202.74375562708332,81.0,117.0
212,202.58649771458332,202.74375562708332,93.0,117.0
213,202.82843296458333,203.16311006041664,83.0,118.0
214,202.82843296458333,203.16311006041664,95.0,118.0
215,203.31230346458332,203.67722246666665,80.0,115.0
216,203.31230346458332,203.67722246666665,92.0,115.0
217,203.79617396458332,207.66310571041666,81.0,118.0
218,203.79617396458332,207.66310571041666,93.0,118.0
219,213.7155192145833,213.94737382916665,81.0,120.0
220,213.95745446458332,214.09656723333333,80.0,109.0
221,214.19938971458333,214.43729271041664,81.0,113.0
222,214.44132496458332,214.69334085,76.0,118.0
223,214.68326021458333,214.911082575,81.0,123.0
224,214.9251954645833,215.14092106249998,74.0,120.0
225,215.16713071458332,215.3485821520833,73.0,115.0
226,215.40906596458333,216.41914563333333,74.0,120.0
227,221.69938246458332,221.94938222291665,76.0,118.0
228,221.94131771458333,222.12276915208332,78.0,112.0
229,222.18325296458332,222.34051087708332,80.0,115.0
230,222.42518821458333,222.55220422083332,81.0,123.0
231,222.6671234645833,222.80825236041665,83.0,112.0
232,222.90905871458332,223.03405859375,80.0,115.0
233,223.15099396458334,224.15502525208333,81.0,120.0
234,229.92518096458332,230.12276141874997,71.0,101.0
235,229.92518096458332,230.16711621458333,74.0,123.0
236,230.16711621458333,230.39695470208332,73.0,112.0
237,230.4090514645833,230.58647064791666,71.0,106.0
238,230.65098671458333,230.7699382125,69.0,113.0
239,230.8929219645833,231.83243718541667,66.0,104.0
240,230.8929219645833,231.90703388749998,71.0,94.0
241,235.0058212145833,235.18928877916665,76.0,109.0
242,235.24775646458332,235.50582073125,80.0,115.0
243,235.48969171458333,235.79815915833333,81.0,120.0
244,235.97356221458332,236.21146521041666,76.0,99.0
245,236.2154974645833,236.42920693541666,71.0,104.0
246,236.45743271458332,236.71751310833332,76.0,104.0
247,236.69936796458333,238.05622149166666,69.0,117.0
248,238.15097946458332,238.35864055416664,68.0,99.0
249,238.39291471458333,238.57839840625,69.0,96.0
250,244.68323121458332,244.91508582916666,81.0,120.0
251,244.92516646458333,245.0642792333333,80.0,109.0
252,245.1671017145833,245.40500471041665,81.0,113.0
253,245.40903696458332,245.66105284999998,76.0,118.0
254,245.65097221458333,245.878794575,81.0,123.0
255,245.89290746458332,246.1086330625,74.0,120.0
256,246.13484271458333,246.31629415208332,73.0,115.0
257,246.3767779645833,247.3868576333333,74.0,120.0
258,252.66709446458333,252.91709422291666,76.0,118.0
259,252.9090297145833,253.09048115208333,78.0,112.0
260,253.15096496458332,253.30822287708332,80.0,115.0
261,253.3929002145833,253.51991622083332,81.0,123.0
262,253.63483546458332,253.77596436041665,83.0,112.0
263,253.87677071458333,254.00177059375,80.0,115.0
264,254.1187059645833,255.1227372520833,81.0,120.0
265,260.8928929645833,261.09047341875,71.0,101.0
266,260.8928929645833,261.1348282145833,74.0,123.0
267,261.1348282145833,261.3646667020833,73.0,112.0
268,261.3767634645833,261.55418264791666,71.0,106.0
269,261.61869871458333,261.7376502125,69.0,113.0
270,261.8606339645833,262.80014918541667,66.0,104.0
271,261.8606339645833,262.8747458875,71.0,94.0
272,269.60256196458334,269.9614325854167,76.0,118.0
273,270.0864324645833,270.48965788124997,76.0,115.0
274,270.57030296458333,270.9090123145833,73.0,115.0
275,271.0541734645833,271.39691506875,73.0,115.0
276,271.5380439645833,271.93320487291663,71.0,112.0
277,272.02191446458335,272.50175271041667,69.0,118.0
278,272.5057849645833,272.98562321041663,71.0,99.0
279,272.98965546458334,273.3102196708333,78.0,112.0
280,273.4735259645833,275.02997607291667,76.0,118.0
281,275.40900796458334,275.8102172541667,69.0,120.0
282,275.8928784645833,276.2779587375,71.0,115.0
283,276.3767489645833,276.7396518395833,73.0,115.0
284,276.8606194645833,277.2456997375,76.0,115.0
285,277.3444899645833,278.48561789375,78.0,112.0
286,278.79610146458333,279.15497208541666,81.0,120.0
287,279.2799719645833,279.8989229791666,80.0,115.0
288,280.0057777145833,280.16303562708333,81.0,117.0
289,280.24771296458334,280.5823900604166,80.0,118.0
290,280.7315834645833,281.09650246666666,78.0,115.0
291,281.21545396458333,282.66303321041664,76.0,118.0
292,282.66706546458335,283.0299683395833,73.0,115.0
293,283.1509359645833,284.9775471020833,71.0,112.0
294,285.0864179645833,285.4452885854167,76.0,118.0
295,285.0864179645833,285.4452885854167,88.0,118.0
296,285.5702884645833,285.97351388124997,76.0,115.0
297,285.5702884645833,285.97351388124997,88.0,115.0
298,286.05415896458334,286.3928683145833,73.0,115.0
299,286.05415896458334,286.3928683145833,85.0,115.0
300,286.5380294645833,286.88077106875,73.0,115.0
301,286.5380294645833,286.88077106875,85.0,115.0
302,287.0218999645833,287.41706087291664,71.0,112.0
303,287.0218999645833,287.41706087291664,83.0,112.0
304,287.5057704645833,287.98560871041667,69.0,118.0
305,287.5057704645833,287.98560871041667,81.0,118.0
306,287.9896409645833,288.46947921041664,71.0,99.0
307,287.9896409645833,288.46947921041664,83.0,99.0
308,288.47351146458334,288.7940756708333,78.0,112.0
309,288.47351146458334,288.7940756708333,90.0,112.0
310,288.9573819645833,290.51383207291667,76.0,118.0
311,288.9573819645833,290.51383207291667,88.0,118.0
312,290.89286396458334,291.2940732541667,69.0,120.0
313,290.89286396458334,291.2940732541667,81.0,120.0
314,291.3767344645833,291.7618147375,71.0,115.0
315,291.3767344645833,291.7618147375,83.0,115.0
316,291.86060496458333,292.2235078395833,73.0,115.0
317,291.86060496458333,292.2235078395833,85.0,115.0
318,292.3444754645833,292.7295557375,76.0,115.0
319,292.3444754645833,292.7295557375,88.0,115.0
320,292.8283459645833,293.96947389375,78.0,112.0
321,292.8283459645833,293.96947389375,90.0,112.0
322,294.27995746458333,294.63882808541666,81.0,120.0
323,294.27995746458333,294.63882808541666,93.0,120.0
324,294.7638279645833,295.38277897916663,80.0,115.0
325,294.7638279645833,295.38277897916663,92.0,115.0
326,295.4896337145833,295.64689162708333,81.0,117.0
327,295.4896337145833,295.64689162708333,93.0,117.0
328,295.73156896458335,296.06624606041663,83.0,118.0
329,295.73156896458335,296.06624606041663,95.0,118.0
330,296.2154394645833,296.58035846666667,80.0,115.0
331,296.2154394645833,296.58035846666667,92.0,115.0
332,296.69930996458334,300.56575809583336,81.0,118.0
333,296.69930996458334,300.56575809583336,93.0,118.0
334,300.5697580958333,300.9257580958334,79.0,118.0
335,300.5697580958333,300.9257580958334,91.0,118.0
336,301.04975809583334,301.4497580958334,79.0,115.0
337,301.04975809583334,301.4497580958334,91.0,115.0
338,301.52975809583336,301.86575809583337,76.0,115.0
339,301.52975809583336,301.86575809583337,88.0,115.0
340,302.0097580958333,302.34975809583335,76.0,115.0
341,302.0097580958333,302.34975809583335,88.0,115.0
342,302.48975809583334,302.88175809583333,74.0,112.0
343,302.48975809583334,302.88175809583333,86.0,112.0
344,302.96975809583336,303.44575809583336,72.0,118.0
345,302.96975809583336,303.44575809583336,84.0,118.0
346,303.4497580958334,303.9257580958334,74.0,99.0
347,303.4497580958334,303.9257580958334,86.0,99.0
348,303.92975809583334,304.2477580958334,81.0,112.0
349,303.92975809583334,304.2477580958334,93.0,112.0
350,304.40975809583335,305.95375809583334,79.0,118.0
351,304.40975809583335,305.95375809583334,91.0,118.0
352,306.32975809583337,306.72775809583334,72.0,120.0
353,306.80975809583333,307.19175809583334,74.0,115.0
354,307.28975809583335,307.64975809583336,76.0,115.0
355,307.76975809583337,308.1517580958334,79.0,115.0
356,308.24975809583333,309.38175809583333,81.0,112.0
357,309.5457580958333,309.9017580958334,84.0,120.0
358,310.02575809583334,310.6397580958334,83.0,115.0
359,310.74575809583337,310.9017580958334,84.0,117.0
360,310.9857580958334,311.31775809583337,83.0,118.0
361,311.59175809583337,311.95375809583334,81.0,115.0
362,312.08975809583336,315.9372437895833,79.0,118.0
363,315.94127604375,316.30014666458334,79.0,118.0
364,315.94127604375,316.30014666458334,91.0,118.0
365,316.42514654375,316.82837196041663,79.0,115.0
366,316.42514654375,316.82837196041663,91.0,115.0
367,316.90901704375,317.24772639375,76.0,115.0
368,316.90901704375,317.24772639375,88.0,115.0
369,317.39288754374996,317.73562914791665,76.0,115.0
370,317.39288754374996,317.73562914791665,88.0,115.0
371,317.87675804375,318.2719189520833,74.0,112.0
372,317.87675804375,318.2719189520833,86.0,112.0
373,318.36062854375,318.84046678958333,72.0,118.0
374,318.36062854375,318.84046678958333,84.0,118.0
375,318.84449904375,319.3243372895833,74.0,99.0
376,318.84449904375,319.3243372895833,86.0,99.0
377,319.3666759583333,319.68724016458333,81.0,112.0
378,319.3666759583333,319.68724016458333,93.0,112.0
379,319.8505464583333,321.40699656666663,79.0,118.0
380,319.8505464583333,321.40699656666663,91.0,118.0
381,321.7860284583333,322.18723774791664,72.0,120.0
382,322.26989895833333,322.65497923124997,74.0,115.0
383,322.7537694583333,323.1166723333333,76.0,115.0
384,323.2376399583333,323.62272023125,79.0,115.0
385,323.72151045833334,324.8626383875,81.0,112.0
386,325.6569924583333,326.27594347291665,83.0,115.0
387,326.3827982083333,326.5400561208333,84.0,117.0
388,326.6247334583333,326.95941055416665,86.0,118.0
389,327.10860395833333,327.47352296041663,83.0,115.0
390,327.5924744583333,331.45940620416667,84.0,118.0
391,331.4634384583333,331.82230907916664,79.0,118.0
392,331.4634384583333,331.82230907916664,91.0,118.0
393,331.94730895833334,332.350534375,79.0,115.0
394,331.94730895833334,332.350534375,91.0,115.0
395,332.4311794583333,332.76988880833335,76.0,115.0
396,332.4311794583333,332.76988880833335,88.0,115.0
397,332.9150499583333,333.25779156249996,76.0,115.0
398,332.9150499583333,333.25779156249996,88.0,115.0
399,333.39892045833335,333.79408136666666,74.0,112.0
400,333.39892045833335,333.79408136666666,86.0,112.0
401,333.8827909583333,334.36262920416664,72.0,118.0
402,333.8827909583333,334.36262920416664,84.0,118.0
403,334.36666145833334,334.84649970416666,74.0,99.0
404,334.36666145833334,334.84649970416666,86.0,99.0
405,334.8505319583333,335.17109616458333,81.0,112.0
406,334.8505319583333,335.17109616458333,93.0,112.0
407,335.33440245833333,336.89085256666664,79.0,118.0
408,335.33440245833333,336.89085256666664,91.0,118.0
409,337.2698844583333,337.67109374791664,72.0,120.0
410,337.75375495833333,338.13883523124997,74.0,115.0
411,338.2376254583333,338.60052833333333,76.0,115.0
412,338.7214959583333,339.10657623124996,79.0,115.0
413,339.20536645833334,340.3464943875,81.0,112.0
414,340.6569779583333,341.01584857916663,84.0,120.0
415,341.1408484583333,341.75979947291665,83.0,115.0
416,341.8081865229167,341.96544443541666,84.0,117.0
417,342.06826691666663,342.4029440125,83.0,118.0
418,342.59245995833334,342.95737896041663,81.0,115.0
419,343.0763304583333,346.7819720375,79.0,118.0
420,346.8888267729167,347.24769739375,79.0,85.0
421,346.8888267729167,347.24769739375,91.0,85.0
422,347.37269727291664,347.77592268958335,79.0,82.0
423,347.37269727291664,347.77592268958335,91.0,82.0
424,347.85656777291666,348.19527712291665,76.0,79.0
425,347.85656777291666,348.19527712291665,88.0,79.0
426,348.3404382729167,348.6831798770833,76.0,77.0
427,348.3404382729167,348.6831798770833,88.0,77.0
428,348.82430877291665,349.21946968124996,74.0,75.0
429,348.82430877291665,349.21946968124996,86.0,75.0
430,349.3081792729167,349.78801751875,72.0,70.0
431,349.3081792729167,349.78801751875,84.0,70.0
432,349.79204977291664,350.27188801875,74.0,69.0
433,349.79204977291664,350.27188801875,86.0,69.0
434,350.27592027291666,350.59648447916663,81.0,68.0
435,350.27592027291666,350.59648447916663,93.0,68.0
436,350.75979077291663,352.31624088125,79.0,62.0
437,350.75979077291663,352.31624088125,91.0,62.0
438,352.69527277291667,353.0964820625,72.0,44.0
439,352.69527277291667,353.0964820625,84.0,44.0
440,353.17914327291663,353.56422354583333,74.0,41.0
441,353.17914327291663,353.56422354583333,86.0,41.0
442,353.66301377291666,354.02591664791663,76.0,38.0
443,353.66301377291666,354.02591664791663,88.0,38.0
444,354.1468842729167,354.5319645458333,79.0,32.0
445,354.1468842729167,354.5319645458333,91.0,32.0
