,start,end,pitch,velocity
0,52.82857796458333,53.18744858541666,73.0,106.0
1,53.31244846458333,53.66123845,71.0,109.0
2,53.79631896458333,54.15317345833333,69.0,117.0
3,54.28018946458333,54.63099557708333,66.0,115.0
4,54.76405996458333,55.13502734791666,69.0,117.0
5,55.247930464583334,55.36889808958333,71.0,109.0
6,55.48986571458333,56.50800989166667,73.0,109.0
7,56.69954196458333,57.30639621666666,71.0,109.0
8,57.42534771458333,57.566476610416665,73.0,106.0
9,57.66728296458333,57.95155688333333,71.0,109.0
10,58.15115346458333,58.499943449999996,69.0,120.0
11,58.63502396458333,60.19550632708333,68.0,109.0
12,60.57050596458333,60.87494115416666,73.0,115.0
13,61.05437646458333,61.383005179166666,66.0,115.0
14,61.53824696458333,61.86687567916666,69.0,117.0
15,62.02211746458333,62.35074617916666,71.0,109.0
16,62.50598796458333,62.84066506041666,73.0,112.0
17,62.98985846458333,63.10679383541666,71.0,101.0
18,63.23179371458333,63.753970629166666,73.0,109.0
19,63.95759946458333,64.31647008541667,78.0,99.0
20,64.44146996458333,65.64711396041666,76.0,114.0
21,65.65114621458333,66.26001659375,73.0,115.0
22,66.37695196458333,67.4152574125,71.0,109.0
23,67.82856346458333,67.959611725,69.0,120.0
24,68.07049871458332,68.18138570416666,71.0,104.0
25,68.31243396458333,68.61283689999999,73.0,115.0
26,68.79630446458333,69.07654612916666,78.0,106.0
27,69.28017496458332,69.65517460208333,73.0,115.0
28,69.76404546458333,70.09267417916666,71.0,112.0
29,70.24791596458333,71.39912452916666,73.0,112.0
30,71.69952746458333,71.83460797916666,69.0,113.0
31,71.94146271458332,72.08863999166667,71.0,106.0
32,72.18339796458334,72.56646211041667,73.0,112.0
33,72.66726846458333,72.96968752708332,76.0,118.0
34,73.15113896458332,73.53017085625,80.0,118.0
35,73.63500946458333,73.98783170416667,78.0,112.0
36,74.11887996458333,75.4958947625,76.0,115.0
37,76.05436196458334,76.82250638333333,74.0,123.0
38,77.02210296458333,77.32452202708333,71.0,109.0
39,77.50597346458333,77.82855379791667,69.0,120.0
40,77.98984396458333,78.58460145416666,68.0,115.0
41,78.71564971458334,78.85476248333333,68.0,104.0
42,78.95758496458333,79.31242333125,69.0,117.0
43,79.44145546458333,79.82048735625,71.0,112.0
44,79.92532596458332,83.38903229374999,69.0,120.0
45,83.79628996458332,84.14104769583332,78.0,115.0
46,84.28016046458333,84.57048276458333,78.0,106.0
47,84.76403096458333,85.07451453541667,78.0,118.0
48,85.24790146458332,85.58661081458332,74.0,120.0
49,85.73177196458333,85.84870733541666,76.0,115.0
50,85.97370721458333,86.30233592916666,76.0,115.0
51,86.45757771458332,86.59870661041666,78.0,112.0
52,86.69951296458333,87.03015780624999,80.0,115.0
53,87.18338346458333,87.4837864,78.0,115.0
54,87.66725396458332,88.35878555416666,76.0,121.0
55,88.63499496458333,89.03822038125,76.0,115.0
56,89.11886546458332,89.56846180416666,73.0,115.0
57,89.60273596458333,89.85273572291666,71.0,112.0
58,89.84467121458333,91.33660525625,73.0,104.0
59,91.53821796458332,91.87491118749999,74.0,120.0
60,92.02208846458333,92.32450752708333,74.0,123.0
61,92.50595896458333,92.82249091666667,74.0,120.0
62,92.98982946458332,93.35273233958333,66.0,115.0
63,93.47369996458333,93.604748225,68.0,115.0
64,93.71563521458333,94.040231675,68.0,112.0
65,94.19950571458332,94.32248946666667,69.0,120.0
66,94.44144096458332,94.75595678958332,78.0,118.0
67,94.92531146458333,95.2620046875,76.0,112.0
68,95.40918196458333,96.14910060416666,73.0,112.0
69,96.37692296458333,96.74385809374999,71.0,112.0
70,96.86079346458332,97.20756732291666,69.0,120.0
71,97.34466396458333,99.06643649374999,71.0,109.0
72,99.28014596458333,99.846677675,78.0,115.0
73,100.00595171458333,100.13901610208333,78.0,112.0
74,100.24788696458333,100.37691909791666,78.0,112.0
75,100.48982221458333,100.61885434791667,80.0,109.0
76,100.73175746458332,101.10675710208332,81.0,117.0
77,101.21562796458333,102.83457801249999,80.0,118.0
78,103.15110996458333,103.62893208333332,80.0,115.0
79,103.87691571458333,104.01199622916666,81.0,117.0
80,104.11885096458333,104.48780222083333,83.0,115.0
81,104.60272146458333,104.95755983125,80.0,112.0
82,105.08659196458333,105.51401090625,78.0,106.0
83,105.57046246458333,106.74384842708332,76.0,118.0
84,107.02207396458333,107.5281218625,71.0,115.0
85,107.74787971458333,107.86884733958333,71.0,112.0
86,107.98981496458333,108.1087664625,71.0,112.0
87,108.23175021458333,108.78618516249999,78.0,115.0
88,108.95755596458332,109.5361844375,76.0,115.0
89,109.68336171458333,109.82449061041666,76.0,112.0
90,109.92529696458332,110.25795793333333,68.0,115.0
91,110.40916746458333,110.73376392499999,71.0,112.0
92,110.89303796458333,114.32045400624999,69.0,117.0
93,114.76400196458333,115.12287258541666,73.0,106.0
94,115.24787246458332,115.59666245,71.0,109.0
95,115.73174296458333,116.08859745833333,69.0,117.0
96,116.21561346458333,116.56641957708332,66.0,115.0
97,116.69948396458332,117.07045134791666,69.0,117.0
98,117.18335446458333,117.30432208958332,71.0,109.0
99,117.42528971458333,118.44343389166666,73.0,109.0
100,118.63496596458333,119.84060996041666,71.0,109.0
101,120.08657746458333,120.43536744999999,69.0,120.0
102,120.57044796458332,122.13093032708332,68.0,109.0
103,122.50592996458333,122.81036515416666,73.0,115.0
104,122.98980046458333,123.31842917916666,66.0,115.0
105,123.47367096458332,123.80229967916667,69.0,117.0
106,123.95754146458333,124.28617017916666,71.0,109.0
107,124.44141196458332,124.77608906041667,73.0,112.0
108,124.92528246458333,125.04221783541666,71.0,101.0
109,125.16721771458333,125.68939462916666,73.0,109.0
110,125.89302346458332,126.25189408541667,78.0,99.0
111,126.37689396458333,127.58253796041666,76.0,114.0
112,127.58657021458333,128.19544059375,73.0,115.0
113,128.31237596458334,129.3506814125,71.0,109.0
114,129.76398746458332,129.89503572499999,69.0,120.0
115,130.00592271458333,130.11680970416666,71.0,104.0
116,130.24785796458332,130.5482609,73.0,115.0
117,130.7317284645833,131.01197012916666,78.0,106.0
118,131.21559896458334,131.59059860208333,73.0,115.0
119,131.69946946458333,132.02809817916665,71.0,112.0
120,132.18333996458333,133.33454852916665,73.0,112.0
121,133.63495146458334,133.77003197916665,69.0,113.0
122,133.87688671458332,134.02406399166665,71.0,106.0
123,134.11882196458333,134.50188611041665,73.0,112.0
124,134.60269246458333,134.90511152708333,76.0,118.0
125,135.08656296458332,135.46559485625,80.0,118.0
126,135.57043346458332,135.92325570416665,78.0,112.0
127,136.0543039645833,137.43131876249998,76.0,115.0
128,137.98978596458332,138.71155946041665,74.0,123.0
129,138.71559171458333,138.83051095833332,74.0,117.0
130,138.95752696458334,139.30631695,74.0,107.0
131,139.44139746458333,139.765993925,73.0,112.0
132,139.92526796458333,140.3184127458333,71.0,115.0
133,140.40913846458332,140.75591232291666,68.0,115.0
134,140.89300896458332,141.24583120416665,69.0,113.0
135,141.37687946458334,141.73978233958331,71.0,106.0
136,141.86074996458333,145.34864981875,69.0,117.0
137,145.73171396458332,146.07647169583333,78.0,115.0
138,146.21558446458332,146.50590676458333,78.0,106.0
139,146.69945496458334,147.00993853541667,78.0,118.0
140,147.18332546458333,147.52203481458332,74.0,120.0
141,147.66719596458333,147.78413133541665,76.0,115.0
142,147.9091312145833,148.23775992916666,76.0,115.0
143,148.39300171458333,148.53413061041667,78.0,112.0
144,148.63493696458332,148.96558180625,80.0,115.0
145,149.1188074645833,149.4192104,78.0,115.0
146,149.60267796458334,150.29420955416666,76.0,121.0
147,150.57041896458333,150.97364438124998,76.0,115.0
148,151.05428946458332,151.50388580416666,73.0,115.0
149,151.53815996458331,151.78815972291665,71.0,112.0
150,151.78009521458333,153.27202925625,73.0,104.0
151,153.47364196458332,153.8103351875,74.0,120.0
152,153.95751246458332,154.25993152708332,74.0,123.0
153,154.4413829645833,154.75791491666666,74.0,120.0
154,154.92525346458334,155.28815633958334,66.0,115.0
155,155.40912396458333,155.540172225,68.0,115.0
156,155.6510592145833,155.97565567499998,68.0,112.0
157,156.13492971458334,156.25791346666665,69.0,120.0
158,156.37686496458332,156.69138078958332,78.0,118.0
159,156.8607354645833,157.19742868749998,76.0,112.0
160,157.34460596458334,158.08452460416666,73.0,112.0
161,158.31234696458333,158.67928209375,71.0,112.0
162,158.79621746458332,159.14299132291666,69.0,120.0
163,159.28008796458332,161.00186049375,71.0,109.0
164,161.21556996458332,161.78210167499998,78.0,115.0
165,161.94137571458333,162.07444010208332,78.0,112.0
166,162.1833109645833,162.31234309791665,78.0,112.0
167,162.42524621458332,162.55427834791666,80.0,109.0
168,162.66718146458334,163.04218110208333,81.0,117.0
169,163.15105196458333,164.7700020125,80.0,118.0
170,165.08653396458334,165.56435608333334,80.0,115.0
171,165.81233971458332,165.94742022916665,81.0,117.0
172,166.05427496458333,166.42322622083333,83.0,115.0
173,166.53814546458332,166.89298383124998,80.0,112.0
174,167.02201596458332,167.44943490625,78.0,106.0
175,167.5058864645833,168.67927242708333,76.0,118.0
176,168.95749796458333,169.46354586249998,71.0,115.0
177,169.68330371458333,169.80427133958332,71.0,112.0
178,169.92523896458331,170.04419046249998,71.0,112.0
179,170.16717421458333,170.7216091625,78.0,115.0
180,170.89297996458333,171.47160843749998,76.0,115.0
181,171.6187857145833,171.75991461041664,76.0,112.0
182,171.86072096458332,172.1933819333333,68.0,115.0
183,172.34459146458332,172.669187925,71.0,112.0
184,172.8284619645833,176.25587800625,69.0,117.0
185,207.66713796458333,208.01189569583332,78.0,115.0
186,208.15100846458333,208.4413307645833,78.0,106.0
187,208.63487896458332,208.94536253541665,78.0,118.0
188,209.11874946458332,209.45745881458333,74.0,120.0
189,209.6026199645833,209.71955533541666,76.0,115.0
190,209.84455521458332,210.17318392916667,76.0,115.0
191,210.32842571458332,210.46955461041665,78.0,112.0
192,210.57036096458333,210.90100580625,80.0,115.0
193,211.05423146458332,211.35463439999998,78.0,115.0
194,211.53810196458332,212.22963355416667,76.0,121.0
195,212.5058429645833,212.90906838125,76.0,115.0
196,212.98971346458333,213.43930980416667,73.0,115.0
197,213.47358396458333,213.72358372291666,71.0,112.0
198,213.7155192145833,215.20745325624998,73.0,104.0
199,215.40906596458333,215.7457591875,74.0,120.0
200,215.89293646458333,216.1953555270833,74.0,123.0
201,216.37680696458332,216.69333891666665,74.0,120.0
202,216.86067746458332,217.22358033958332,66.0,115.0
203,217.3445479645833,217.47559622499998,68.0,115.0
204,217.58648321458332,217.911079675,68.0,112.0
205,218.07035371458332,218.19333746666666,69.0,120.0
206,218.31228896458333,218.62680478958333,78.0,118.0
207,218.79615946458333,219.1328526875,76.0,112.0
208,219.28002996458332,220.01994860416664,73.0,112.0
209,220.2477709645833,220.61470609375,71.0,112.0
210,220.73164146458333,221.07841532291667,69.0,120.0
211,221.21551196458333,222.93728449374998,71.0,109.0
212,223.15099396458334,223.717525675,78.0,115.0
213,223.8767997145833,224.00986410208333,78.0,112.0
214,224.11873496458333,224.24776709791666,78.0,112.0
215,224.3606702145833,224.48970234791665,80.0,109.0
216,224.60260546458332,224.97760510208332,81.0,117.0
217,225.08647596458331,226.7054260125,80.0,118.0
218,227.02195796458332,227.49978008333332,80.0,115.0
219,227.74776371458333,227.88284422916666,81.0,117.0
220,227.9896989645833,228.3586502208333,83.0,115.0
221,228.47356946458333,228.82840783125,80.0,112.0
222,228.95743996458333,229.38485890624997,78.0,106.0
223,229.44131046458332,230.61469642708332,76.0,118.0
224,230.8929219645833,231.3989698625,71.0,115.0
225,231.61872771458331,231.73969533958333,71.0,112.0
226,231.86066296458333,231.9796144625,71.0,112.0
227,232.1025982145833,232.6570331625,78.0,115.0
228,232.82840396458332,233.4070324375,76.0,115.0
229,233.55420971458332,233.69533861041666,76.0,112.0
230,233.79614496458333,234.12880593333333,68.0,115.0
231,234.28001546458333,234.604611925,71.0,112.0
232,234.76388596458332,238.19130200625,69.0,117.0
233,238.6348499645833,238.97960769583332,78.0,115.0
234,239.11872046458333,239.40904276458332,78.0,106.0
235,239.60259096458333,239.91307453541665,78.0,118.0
236,240.08646146458332,240.4251708145833,74.0,120.0
237,240.57033196458332,240.68726733541666,76.0,115.0
238,240.81226721458333,241.14089592916665,76.0,115.0
239,241.29613771458332,241.43726661041666,78.0,112.0
240,241.5380729645833,241.86871780624998,80.0,115.0
241,242.02194346458333,242.3223464,78.0,115.0
242,242.50581396458333,243.19734555416665,76.0,121.0
243,243.47355496458331,243.87678038125,76.0,115.0
244,243.9574254645833,244.40702180416665,73.0,115.0
245,244.44129596458333,244.69129572291666,71.0,112.0
246,244.68323121458332,246.17516525624998,73.0,104.0
247,246.3767779645833,246.71347118749998,74.0,120.0
248,246.8606484645833,247.1630675270833,74.0,123.0
249,247.34451896458333,247.66105091666665,74.0,120.0
250,247.82838946458332,248.19129233958333,66.0,115.0
251,248.31225996458332,248.44330822499998,68.0,115.0
252,248.55419521458333,248.87879167499997,68.0,112.0
253,249.03806571458333,249.16104946666664,69.0,120.0
254,249.2800009645833,249.5945167895833,78.0,118.0
255,249.76387146458333,250.1005646875,76.0,112.0
256,250.24774196458333,250.98766060416665,73.0,112.0
257,251.21548296458332,251.58241809375,71.0,112.0
258,251.6993534645833,252.04612732291665,69.0,120.0
259,252.18322396458333,253.90499649375,71.0,109.0
260,254.1187059645833,254.685237675,78.0,115.0
261,254.84451171458332,254.97757610208333,78.0,112.0
262,255.08644696458333,255.21547909791664,78.0,112.0
263,255.3283822145833,255.45741434791665,80.0,109.0
264,255.57031746458333,255.94531710208332,81.0,117.0
265,256.0541879645833,257.6731380125,80.0,118.0
266,257.9896699645833,258.4674920833333,80.0,115.0
267,258.7154757145833,258.85055622916667,81.0,117.0
268,258.95741096458335,259.32636222083335,83.0,115.0
269,259.4412814645833,259.79611983125,80.0,112.0
270,259.92515196458334,260.35257090625,78.0,106.0
271,260.4090224645833,261.5824084270833,76.0,118.0
272,261.8606339645833,262.3666818625,71.0,115.0
273,262.5864397145833,262.7074073395833,71.0,112.0
274,262.8283749645833,262.9473264625,71.0,112.0
275,263.07031021458334,263.6247451625,78.0,115.0
276,263.7961159645833,265.7275657104166,76.0,115.0
277,265.73159796458333,266.3182909458333,78.0,118.0
278,266.45740371458334,266.5743390854166,78.0,112.0
279,266.6993389645833,266.81425820833334,78.0,115.0
280,266.9412742145833,267.5199026875,81.0,120.0
281,267.6670799645833,268.25982132708333,80.0,118.0
282,268.3928857145833,268.50377270416664,80.0,115.0
283,268.6348209645833,268.75982084375,80.0,115.0
284,268.87675621458334,268.97151418749996,81.0,123.0
285,269.1186914645833,269.47352983125,83.0,115.0
286,269.42111052708333,270.01183576249997,81.0,120.0
287,290.88479945625,291.2860087458333,69.0,120.0
288,291.36866995624996,291.75173410208333,71.0,115.0
289,291.85254045625,292.21544333124996,73.0,115.0
290,292.32431419375,292.70737833958333,81.0,115.0
291,292.82028145625,293.96140938541663,78.0,112.0
292,294.27189295625,294.6307635770833,81.0,120.0
293,294.75576345625,295.37471447083334,80.0,115.0
294,295.48156920624996,295.63882711875,81.0,117.0
295,295.73560121875,296.07027831458333,83.0,118.0
296,296.20737495624996,296.5722939583333,80.0,115.0
297,296.67914869375,298.1267279395833,81.0,118.0
298,305.88775809583336,305.97175809583337,84.0,124.0
299,306.08775809583335,306.28775809583334,84.0,116.0
300,306.32775809583336,306.56775809583337,96.0,127.0
301,306.7597580958334,306.94775809583336,96.0,127.0
302,307.0217580958333,307.37175809583334,95.0,124.0
303,307.51975809583337,307.67175809583335,95.0,127.0
304,307.78975809583335,308.10975809583334,91.0,127.0
305,308.2357580958334,308.95375809583334,93.0,127.0
306,309.67375809583336,310.11375809583336,96.0,127.0
307,310.13775809583336,310.62575809583336,95.0,127.0
308,310.6297580958333,310.9037580958333,96.0,127.0
309,310.8917580958333,311.1637580958334,98.0,127.0
310,311.37775809583337,311.64975809583336,98.0,127.0
311,311.6057580958333,311.87575809583336,93.0,127.0
312,312.09175809583337,312.86975809583333,93.0,127.0
313,312.86975809583333,314.31461743958334,91.0,127.0
314,321.7457059166667,322.02393145416664,96.0,127.0
315,322.20538289166666,322.61868894375,96.0,127.0
316,322.68320501041666,323.15094649375,95.0,127.0
317,323.15094649375,323.640865375,91.0,127.0
318,323.640865375,324.74570301666665,93.0,127.0
319,325.6368311875,326.09449203541664,95.0,127.0
320,326.2013467708333,326.4594110375,96.0,127.0
321,326.4372336395833,326.65900761874997,98.0,127.0
322,326.80820102291665,327.0743297979167,96.0,127.0
323,327.08239430624997,327.72553884583334,98.0,127.0
324,327.76586138749997,331.40497077291667,96.0,127.0
325,337.25577156875,337.44931976875,84.0,127.0
326,337.4916584375,337.68520663749996,84.0,127.0
327,337.75173883125,338.11060945208334,86.0,127.0
328,338.22956095,338.32431892291663,88.0,114.0
329,338.60052833333333,338.9190764125,96.0,109.0
330,339.0904472145833,340.11463977291663,93.0,127.0
331,340.51786518958335,341.04205823125,96.0,127.0
332,341.04205823125,341.55415451041665,95.0,127.0
333,341.5319771125,341.7981058875,96.0,127.0
334,341.78802525208334,342.2839925145833,98.0,127.0
335,342.25375060833335,342.5077826208333,96.0,117.0
336,342.48762135,342.82633069999997,93.0,127.0
337,342.97552410416665,345.06624788958334,91.0,127.0
