,start,end,pitch,velocity
0,10.247973964583332,12.784261835416666,61.0,99.0
1,10.247973964583332,12.81651986875,57.0,68.0
2,13.151196964583333,13.431438629166665,57.0,86.0
3,12.667326464583333,13.473777297916666,52.0,54.0
4,10.247973964583332,13.544341745833332,45.0,59.0
5,13.151196964583333,13.727809310416665,64.0,94.0
6,13.151196964583333,13.74797058125,61.0,106.0
7,13.635067464583333,13.967728433333333,57.0,88.0
8,14.118937964583333,15.832645985416665,61.0,104.0
9,14.118937964583333,15.840710493749999,57.0,88.0
10,15.570549464583333,17.229822054166664,52.0,55.0
11,16.05441996458333,17.868934339583333,64.0,99.0
12,16.05441996458333,17.90925688125,61.0,99.0
13,16.05441996458333,17.913289135416665,57.0,86.0
14,17.506031464583334,17.943531041666667,52.0,76.0
15,14.118937964583333,17.955627804166667,45.0,81.0
16,17.989901964583332,18.751998002083333,61.0,101.0
17,17.989901964583332,19.026191285416665,57.0,88.0
18,18.473772464583334,19.344739364583333,52.0,50.0
19,17.989901964583332,19.435465083333334,45.0,77.0
20,18.957642964583332,19.5120779125,61.0,101.0
21,19.441513464583334,19.764093797916665,57.0,99.0
22,18.957642964583332,19.945545235416667,64.0,104.0
23,20.40925446458333,21.09272154583333,49.0,82.0
24,19.925383964583332,21.1814311375,42.0,96.0
25,20.893124964583333,21.24796333125,57.0,99.0
26,20.893124964583333,21.318527779166665,61.0,99.0
27,21.860865964583333,22.11489797708333,56.0,94.0
28,22.34473646458333,22.88102626875,56.0,76.0
29,21.860865964583333,23.191509839583333,49.0,99.0
30,21.860865964583333,23.30038070208333,61.0,101.0
31,23.31247746458333,23.443525724999997,56.0,96.0
32,22.828606964583333,23.57054173125,64.0,99.0
33,24.28021846458333,25.11287895,49.0,76.0
34,23.796347964583333,25.120943458333333,42.0,99.0
35,23.796347964583333,25.207636922916667,61.0,96.0
36,23.796347964583333,25.231830447916664,57.0,79.0
37,24.764088964583333,25.231830447916664,66.0,106.0
38,25.24795946458333,25.568523670833333,54.0,104.0
39,25.731829964583333,26.707635472916664,54.0,85.0
40,25.731829964583333,26.997957772916664,38.0,86.0
41,26.215700464583332,27.022151297916665,45.0,70.0
42,25.731829964583333,27.179409210416665,57.0,88.0
43,26.699570964583334,27.223764006249997,62.0,117.0
44,27.183441464583332,27.348763885416666,54.0,104.0
45,27.66731196458333,28.455617654166666,56.0,99.0
46,27.66731196458333,28.679407760416666,52.0,99.0
47,27.66731196458333,28.939488154166664,40.0,99.0
48,28.151182464583332,28.953601043749998,47.0,78.0
49,28.63505296458333,29.024165491666665,56.0,106.0
50,28.63505296458333,29.17335889583333,59.0,96.0
51,29.118923464583332,29.572552058333333,52.0,71.0
52,29.60279396458333,30.645131666666664,57.0,99.0
53,30.086664464583333,31.13101829375,52.0,55.0
54,31.054405464583333,31.34876001875,57.0,110.0
55,29.60279396458333,31.397147068749998,45.0,72.0
56,30.57053496458333,31.580614633333333,61.0,112.0
57,31.53827596458333,32.59674268333333,52.0,94.0
58,31.53827596458333,32.83666180625,56.0,99.0
59,32.74795221458333,33.03222613333333,52.0,104.0
60,31.53827596458333,33.42537091458333,40.0,106.0
61,32.02214646458333,33.42738704166666,47.0,94.0
62,32.50601696458333,33.46770958333333,64.0,112.0
63,33.23182271458333,33.477790218749995,52.0,94.0
64,32.98988746458333,33.49391923541666,59.0,91.0
65,33.473757964583335,34.23585400208333,61.0,101.0
66,33.473757964583335,34.51004728541667,57.0,88.0
67,33.95762846458333,34.82859536458333,52.0,50.0
68,33.473757964583335,34.91932108333333,45.0,77.0
69,34.44149896458333,34.9959339125,61.0,101.0
70,34.92536946458333,35.24794979791667,57.0,99.0
71,34.44149896458333,35.42940123541666,64.0,104.0
72,35.89311046458333,36.57657754583333,49.0,82.0
73,35.40923996458333,36.665287137499995,42.0,96.0
74,36.37698096458333,36.73181933125,57.0,99.0
75,36.37698096458333,36.80238377916667,61.0,99.0
76,37.34472196458333,37.598753977083334,56.0,94.0
77,37.82859246458333,38.364882268749994,56.0,76.0
78,37.34472196458333,38.67536583958333,49.0,99.0
79,37.34472196458333,38.784236702083334,61.0,101.0
80,38.796333464583334,38.927381725,56.0,96.0
81,38.31246296458333,39.05439773125,64.0,99.0
82,39.76407446458333,40.59673495,49.0,76.0
83,39.28020396458333,40.60479945833333,42.0,99.0
84,39.28020396458333,40.691492922916666,61.0,96.0
85,39.28020396458333,40.71568644791667,57.0,79.0
86,40.24794496458333,40.71568644791667,66.0,106.0
87,40.731815464583335,41.05237967083333,54.0,104.0
88,41.21568596458333,42.19149147291667,54.0,85.0
89,41.21568596458333,42.48181377291667,38.0,86.0
90,41.69955646458333,42.50600729791667,45.0,70.0
91,41.21568596458333,42.66326521041666,57.0,88.0
92,42.18342696458333,42.707620006249996,62.0,117.0
93,42.66729746458333,42.83261988541666,54.0,104.0
94,43.15116796458333,43.93947365416666,56.0,99.0
95,43.15116796458333,44.16326376041666,52.0,99.0
96,43.15116796458333,44.423344154166664,40.0,99.0
97,43.63503846458333,44.43745704375,47.0,78.0
98,44.11890896458333,44.50802149166667,56.0,106.0
99,44.11890896458333,44.657214895833334,59.0,96.0
100,44.60277946458333,45.05640805833333,52.0,71.0
101,45.57052046458333,45.830600858333334,54.0,89.0
102,45.32858521458333,45.92737495833333,49.0,67.0
103,45.81245571458333,46.32051973958333,56.0,106.0
104,46.054390964583334,46.40116482291666,49.0,87.0
105,46.29632621458333,46.407213204166666,57.0,113.0
106,46.53826146458333,46.74390642708333,49.0,62.0
107,45.08664996458333,46.88100306875,42.0,106.0
108,46.78019671458333,46.88301919583333,61.0,96.0
109,47.02213196458333,47.477776685416664,61.0,91.0
110,47.02213196458333,47.7701151125,66.0,101.0
111,47.74793771458333,47.90116337291666,61.0,85.0
112,47.989872964583334,48.23382434166666,69.0,117.0
113,48.23180821458333,48.40721127083333,61.0,101.0
114,47.50600246458333,48.45761444791666,49.0,42.0
115,47.02213196458333,48.77213027291666,42.0,104.0
116,48.47374346458333,48.80438830625,68.0,101.0
117,48.71567871458333,48.85075922916666,61.0,87.0
118,48.95761396458333,49.179387943749994,66.0,99.0
119,48.95761396458333,49.19350083333333,61.0,99.0
120,49.44148446458333,49.649145554166665,54.0,94.0
121,49.19954921458333,49.8265647375,49.0,87.0
122,49.68341971458333,50.03624195416666,56.0,109.0
123,49.92535496458333,50.231806281249995,49.0,89.0
124,50.16729021458333,50.33059650833333,57.0,120.0
125,50.40922546458333,50.60478979166666,49.0,58.0
126,48.95761396458333,50.665273604166664,42.0,106.0
127,50.651160714583334,51.139063468749995,54.0,101.0
128,50.651160714583334,51.16124086666667,61.0,109.0
129,51.37696646458333,51.876965981249995,54.0,85.0
130,51.13503121458333,51.93946592083333,49.0,80.0
131,51.61890171458333,52.74994900833333,57.0,113.0
132,50.89309596458333,52.76204577083333,42.0,99.0
133,52.10277221458333,52.77414253333333,49.0,87.0
134,52.34470746458333,52.80035218541666,54.0,82.0
135,51.86083696458333,52.80438443958333,66.0,112.0
136,52.82857796458333,53.405190310416664,57.0,88.0
137,52.82857796458333,53.44551285208333,61.0,101.0
138,52.82857796458333,53.46164186875,54.0,66.0
139,53.31244846458333,53.921318843749994,49.0,52.0
140,52.82857796458333,53.99188329166667,42.0,104.0
141,53.79631896458333,54.2539798125,57.0,113.0
142,53.79631896458333,54.34873778541667,61.0,104.0
143,54.76405996458333,55.26002722708333,57.0,99.0
144,54.76405996458333,55.264059481249994,61.0,96.0
145,55.247930464583334,55.824542810416666,52.0,67.0
146,54.76405996458333,55.88301049583333,45.0,74.0
147,55.73180096458333,55.98180072291667,57.0,113.0
148,55.73180096458333,56.16325216041666,61.0,104.0
149,56.69954196458333,57.15921893958333,56.0,99.0
150,56.69954196458333,57.568492737499994,52.0,91.0
151,57.18341246458333,58.13905670208333,47.0,64.0
152,57.66728296458333,58.20760502291667,56.0,106.0
153,56.69954196458333,58.27212108958333,40.0,104.0
154,57.66728296458333,58.31042750416666,59.0,99.0
155,58.63502396458333,59.31647491875,56.0,96.0
156,58.63502396458333,59.370910349999996,59.0,91.0
157,58.15115346458333,59.649135887499995,52.0,94.0
158,59.11889446458333,59.97171622083333,47.0,38.0
159,58.63502396458333,60.01405488958333,40.0,80.0
160,59.60276496458333,60.11082898958333,56.0,109.0
161,59.60276496458333,60.15316765833333,59.0,104.0
162,60.08663546458333,60.20961921666667,52.0,99.0
163,59.60276496458333,60.26203852083333,64.0,106.0
164,60.57050596458333,61.358811654166665,57.0,91.0
165,60.57050596458333,61.378972925,61.0,99.0
166,61.05437646458333,61.784214468749994,49.0,59.0
167,60.57050596458333,61.79026285,42.0,104.0
168,61.53824696458333,62.06445613333333,57.0,113.0
169,61.53824696458333,62.074536768749994,61.0,109.0
170,62.02211746458333,62.51808472708333,54.0,89.0
171,62.50598796458333,63.048326149999994,61.0,104.0
172,62.50598796458333,63.08058418333333,57.0,99.0
173,62.98985846458333,63.56647081041666,52.0,87.0
174,63.47372896458333,63.99792200624999,57.0,120.0
175,62.50598796458333,64.03622842083333,45.0,81.0
176,63.47372896458333,64.22372823958332,61.0,106.0
177,63.95759946458333,64.2700991625,52.0,104.0
178,64.44146996458333,65.03219519999999,56.0,101.0
179,64.44146996458333,65.17534022291666,59.0,96.0
180,65.40921096458332,65.88501695625,56.0,101.0
181,65.40921096458332,65.95558140416667,59.0,94.0
182,65.89308146458333,66.42735514166667,52.0,64.0
183,66.37695196458333,67.05437066458333,56.0,109.0
184,66.37695196458333,67.07453193541666,64.0,106.0
185,66.37695196458333,67.10477384166666,59.0,104.0
186,66.86082246458334,67.40719290416666,52.0,82.0
187,64.92534046458333,67.55840243541667,47.0,62.0
188,64.44146996458333,67.620902375,40.0,101.0
189,67.34469296458333,67.77614416041666,56.0,112.0
190,67.34469296458333,67.83259571875,59.0,104.0
191,67.82856346458333,67.98380525,52.0,82.0
192,68.31243396458333,68.93340110625,57.0,99.0
193,68.31243396458333,69.00396555416667,62.0,91.0
194,69.28017496458332,69.78017448125,57.0,117.0
195,69.28017496458332,69.84065829375,62.0,110.0
196,70.24791596458333,70.82049605625,57.0,113.0
197,70.24791596458333,70.85073796249999,62.0,110.0
198,70.73178646458332,71.27614077708333,54.0,80.0
199,68.79630446458333,71.45154383333333,45.0,56.0
200,68.31243396458333,71.5160599,38.0,113.0
201,71.21565696458333,71.67735006666666,57.0,113.0
202,71.21565696458333,71.71364035416666,62.0,113.0
203,71.69952746458333,71.79226931041666,54.0,96.0
204,72.18339796458334,72.46162350208333,56.0,99.0
205,72.18339796458334,72.78823608958334,61.0,106.0
206,72.18339796458334,72.82855863124999,64.0,101.0
207,72.66726846458333,72.83863926666666,56.0,76.0
208,73.15113896458332,73.3668645625,56.0,99.0
209,73.15113896458332,73.572509525,61.0,104.0
210,73.15113896458332,73.61484819374999,64.0,104.0
211,74.11887996458333,74.85879860416667,61.0,104.0
212,74.11887996458333,74.87492762083333,64.0,104.0
213,74.60275046458332,75.16726604791667,56.0,87.0
214,72.18339796458334,75.24186275,49.0,101.0
215,75.08662096458333,75.56645921041667,61.0,106.0
216,75.08662096458333,75.64508816666667,64.0,106.0
217,75.57049146458333,75.69347521666666,56.0,91.0
218,76.05436196458334,76.68742586875,59.0,101.0
219,76.05436196458334,76.69952263124999,62.0,104.0
220,76.53823246458333,77.07653839583332,54.0,82.0
221,76.05436196458334,77.20153827499999,47.0,101.0
222,77.02210296458333,77.52008635416666,59.0,106.0
223,77.02210296458333,77.53016698958334,62.0,117.0
224,77.50597346458333,77.66927975833333,54.0,91.0
225,77.98984396458333,78.24387597708333,56.0,96.0
226,77.98984396458333,78.53621440416666,64.0,87.0
227,77.98984396458333,78.6168594875,59.0,96.0
228,78.47371446458332,78.84468184791666,56.0,85.0
229,77.98984396458333,79.13097189375,40.0,104.0
230,78.95758496458333,79.13097189375,56.0,104.0
231,78.95758496458333,79.41726193958333,59.0,106.0
232,78.95758496458333,79.53822956458333,64.0,99.0
233,79.44145546458333,79.82451961041666,56.0,91.0
234,79.92532596458332,80.48782542083333,61.0,101.0
235,79.92532596458332,80.61887368125,57.0,104.0
236,80.40919646458333,81.00193782708332,52.0,85.0
237,80.89306696458333,81.49185670833333,61.0,104.0
238,80.89306696458333,81.51403410625,57.0,110.0
239,81.37693746458334,81.95354981041666,52.0,87.0
240,81.86080796458333,82.49185574166667,61.0,104.0
241,81.86080796458333,82.51000088541666,57.0,113.0
242,82.82854896458333,82.93137144583334,62.0,113.0
243,82.34467846458332,82.99185525833333,52.0,91.0
244,83.07048421458333,83.34266137083333,61.0,104.0
245,79.92532596458332,83.55032246041667,45.0,74.0
246,83.31241946458333,83.59467725625,59.0,96.0
247,83.55435471458333,83.79225771041666,57.0,91.0
248,83.79628996458332,84.09266064583333,54.0,96.0
249,83.79628996458332,84.46564415625,59.0,104.0
250,83.79628996458332,84.52814409583333,62.0,101.0
251,84.28016046458333,84.84064379374999,54.0,91.0
252,83.79628996458332,84.85475668333333,47.0,96.0
253,84.76403096458333,85.25798209999999,59.0,101.0
254,84.76403096458333,85.30032076875,62.0,117.0
255,85.24790146458332,85.43741741041666,54.0,104.0
256,85.73177196458333,86.32652945416666,59.0,99.0
257,85.73177196458333,86.33257783541666,64.0,89.0
258,85.73177196458333,86.36080361458333,56.0,101.0
259,86.21564246458333,86.74790001458332,47.0,62.0
260,85.73177196458333,86.81039995416666,40.0,106.0
261,86.69951296458333,86.86080313125,56.0,104.0
262,86.69951296458333,87.16322219375,59.0,106.0
263,86.69951296458333,87.28620594583333,64.0,104.0
264,87.18338346458333,87.53217345,56.0,101.0
265,87.66725396458332,88.16322122708333,57.0,107.0
266,87.66725396458332,88.18741475208333,61.0,99.0
267,88.15112446458333,88.59265629583332,52.0,85.0
268,87.66725396458332,88.79426900416667,45.0,86.0
269,88.63499496458333,89.15515575208333,57.0,117.0
270,88.63499496458333,89.20354280208333,61.0,104.0
271,89.11886546458332,89.27007499583333,52.0,106.0
272,89.60273596458333,90.19950958125,57.0,104.0
273,89.60273596458333,90.26402564791667,61.0,104.0
274,90.08660646458333,90.58055759999999,49.0,66.0
275,90.57047696458334,90.78217030833333,57.0,120.0
276,90.57047696458334,90.88902504375,61.0,106.0
277,90.81241221458333,91.15313769166666,49.0,89.0
278,89.60273596458333,91.22370213958332,42.0,106.0
279,91.05434746458333,91.30636335,56.0,106.0
280,91.29628271458333,91.38297617916666,57.0,120.0
281,91.53821796458332,91.83055639166666,54.0,104.0
282,91.53821796458332,91.97571754166667,59.0,94.0
283,92.02208846458333,92.37692683124999,54.0,91.0
284,91.53821796458332,92.59265242916666,47.0,94.0
285,92.50595896458333,92.9878133375,62.0,113.0
286,92.50595896458333,93.01603911666666,59.0,109.0
287,92.98982946458332,93.12490997916666,54.0,109.0
288,93.47369996458333,93.92934468541667,56.0,101.0
289,93.47369996458333,94.45353772708333,52.0,99.0
290,93.95757046458333,94.80232771249999,47.0,56.0
291,93.47369996458333,94.84668250833333,40.0,104.0
292,94.44144096458332,94.9353921,64.0,99.0
293,94.44144096458332,94.94950498958333,56.0,106.0
294,94.44144096458332,94.96765013333332,59.0,99.0
295,94.92531146458333,95.27410144999999,52.0,109.0
296,95.40918196458333,95.53821409791666,52.0,80.0
297,95.40918196458333,96.02006847083332,57.0,110.0
298,95.89305246458333,96.45353579374999,52.0,104.0
299,96.37692296458333,96.85071282916667,57.0,120.0
300,96.86079346458332,96.94950305625,52.0,109.0
301,96.37692296458333,96.97168045416666,61.0,109.0
302,95.89305246458333,97.05635779166666,49.0,40.0
303,95.40918196458333,97.24788986458333,45.0,107.0
304,97.34466396458333,97.55434118125,56.0,104.0
305,97.34466396458333,97.95555047083333,64.0,99.0
306,97.34466396458333,97.97571174166666,59.0,99.0
307,98.07046971458333,98.19950184791666,56.0,96.0
308,97.82853446458333,98.37288877708333,47.0,73.0
309,98.31240496458332,98.53619507083333,59.0,112.0
310,98.31240496458332,98.55434021458333,56.0,109.0
311,98.31240496458332,98.61079177291666,64.0,106.0
312,97.34466396458333,98.63498529791666,40.0,106.0
313,98.55434021458333,98.76200130416666,47.0,94.0
314,98.79627546458333,98.98579141041667,40.0,99.0
315,99.28014596458333,99.82450027708333,57.0,107.0
316,99.28014596458333,99.84869380208333,62.0,107.0
317,99.76401646458332,100.07853228958332,54.0,76.0
318,99.28014596458333,100.35474169999999,38.0,113.0
319,100.24788696458333,100.78014451458333,57.0,117.0
320,100.24788696458333,100.80433803958333,62.0,113.0
321,100.73175746458332,100.90514439374999,54.0,101.0
322,101.21562796458333,101.48175673958333,56.0,101.0
323,101.21562796458333,101.75393389583333,64.0,101.0
324,101.21562796458333,101.89909504583333,59.0,101.0
325,101.69949846458333,101.98982076458333,56.0,91.0
326,102.18336896458332,102.40111068958333,56.0,109.0
327,101.21562796458333,102.84062639375,40.0,106.0
328,102.18336896458332,102.97167465416666,59.0,112.0
329,102.18336896458332,102.97167465416666,64.0,104.0
330,102.66723946458333,103.06240037291666,56.0,99.0
331,103.15110996458333,103.3668355625,56.0,106.0
332,103.15110996458333,103.5603837625,40.0,106.0
333,103.15110996458333,103.59264179583333,59.0,106.0
334,103.15110996458333,103.669254625,64.0,104.0
335,103.63498046458332,103.77409323333333,56.0,99.0
336,104.11885096458333,104.56844730416667,38.0,107.0
337,104.11885096458333,104.62691498958333,57.0,113.0
338,104.11885096458333,104.93135017916666,62.0,117.0
339,104.60272146458333,105.02005977083333,54.0,109.0
340,105.08659196458333,105.32247883333332,56.0,99.0
341,105.08659196458333,105.67126881875,59.0,94.0
342,105.08659196458333,105.72368812291666,64.0,99.0
343,105.57046246458333,105.87288152708332,56.0,85.0
344,106.05433296458332,106.21965538541666,56.0,109.0
345,105.08659196458333,106.24384891041666,37.0,104.0
346,106.05433296458332,106.41723583958333,59.0,109.0
347,106.05433296458332,106.60070340416667,64.0,104.0
348,106.53820346458333,106.68134848749999,56.0,106.0
349,107.02207396458333,107.31441239166666,54.0,109.0
350,107.02207396458333,107.65513786874999,59.0,109.0
351,107.50594446458332,108.07650842916667,54.0,87.0
352,107.02207396458333,108.47570159166666,47.0,106.0
353,107.98981496458333,108.51400800625,59.0,106.0
354,107.98981496458333,108.51602413333333,62.0,117.0
355,108.47368546458333,108.63497563125,54.0,106.0
356,108.95755596458332,109.4394103375,56.0,101.0
357,108.95755596458332,109.94747436249999,52.0,104.0
358,109.44142646458333,110.06642586041666,47.0,74.0
359,108.95755596458332,110.13497418124999,40.0,104.0
360,109.92529696458332,110.36682879583333,64.0,104.0
361,109.92529696458332,110.42126422708333,56.0,104.0
362,109.92529696458332,110.51803832708333,59.0,99.0
363,110.40916746458333,110.90110247291666,52.0,112.0
364,110.89303796458333,111.57448891874999,61.0,104.0
365,110.89303796458333,111.59666631666666,57.0,107.0
366,111.37690846458332,111.92126277708333,52.0,91.0
367,111.86077896458333,112.44142356458333,61.0,106.0
368,111.86077896458333,112.45553645416666,57.0,117.0
369,110.89303796458333,112.67731043333333,45.0,113.0
370,112.34464946458333,112.93739082708333,52.0,101.0
371,112.82851996458332,113.42327745416667,57.0,107.0
372,112.82851996458332,113.46158386875,61.0,101.0
373,113.31239046458333,113.62690628958333,52.0,76.0
374,112.82851996458332,113.91118020833332,45.0,113.0
375,113.79626096458333,114.04424459583333,52.0,112.0
376,113.79626096458333,114.04424459583333,57.0,120.0
377,113.79626096458333,114.13698644166666,61.0,109.0
378,114.52206671458333,114.68738913541667,52.0,87.0
379,114.28013146458332,114.701502025,57.0,110.0
380,114.03819621458332,114.77206647291666,45.0,110.0
381,114.76400196458333,115.34061431041665,57.0,88.0
382,114.76400196458333,115.38093685208332,61.0,101.0
383,114.76400196458333,115.39706586874999,54.0,66.0
384,115.24787246458332,115.85674284375,49.0,52.0
385,114.76400196458333,115.92730729166666,42.0,104.0
386,115.73174296458333,116.18940381249999,57.0,113.0
387,115.73174296458333,116.28416178541666,61.0,104.0
388,116.69948396458332,117.19545122708332,57.0,99.0
389,116.69948396458332,117.19948348125,61.0,96.0
390,117.18335446458333,117.75996681041666,52.0,67.0
391,116.69948396458332,117.81843449583333,45.0,74.0
392,117.66722496458333,117.91722472291666,57.0,113.0
393,117.66722496458333,118.09867616041666,61.0,104.0
394,118.63496596458333,119.09464293958332,56.0,99.0
395,118.63496596458333,119.50391673749999,52.0,91.0
396,119.11883646458332,120.07448070208332,47.0,64.0
397,119.60270696458333,120.14302902291666,56.0,106.0
398,118.63496596458333,120.20754508958332,40.0,104.0
399,119.60270696458333,120.24585150416667,59.0,99.0
400,120.57044796458332,121.25189891874999,56.0,96.0
401,120.57044796458332,121.30633435,59.0,91.0
402,120.08657746458333,121.58455988749999,52.0,94.0
403,121.05431846458333,121.90714022083333,47.0,38.0
404,120.57044796458332,121.94947888958333,40.0,80.0
405,121.53818896458333,122.04625298958332,56.0,109.0
406,121.53818896458333,122.08859165833333,59.0,104.0
407,122.02205946458332,122.14504321666666,52.0,99.0
408,121.53818896458333,122.19746252083333,64.0,106.0
409,122.50592996458333,123.29423565416666,57.0,91.0
410,122.50592996458333,123.314396925,61.0,99.0
411,122.98980046458333,123.71963846874999,49.0,59.0
412,122.50592996458333,123.72568684999999,42.0,104.0
413,123.47367096458332,123.99988013333332,57.0,113.0
414,123.47367096458332,124.00996076874999,61.0,109.0
415,123.95754146458333,124.45350872708333,54.0,89.0
416,124.44141196458332,124.98375014999999,61.0,104.0
417,124.44141196458332,125.01600818333333,57.0,99.0
418,124.92528246458333,125.50189481041666,52.0,87.0
419,125.40915296458333,125.93334600624999,57.0,120.0
420,124.44141196458332,125.97165242083332,45.0,81.0
421,125.40915296458333,126.15915223958332,61.0,106.0
422,125.89302346458332,126.20552316249999,52.0,104.0
423,126.37689396458333,126.96761919999999,56.0,101.0
424,126.37689396458333,127.11076422291666,59.0,96.0
425,127.34463496458332,127.82044095625,56.0,101.0
426,127.34463496458332,127.89100540416666,59.0,94.0
427,127.82850546458333,128.36277914166666,52.0,64.0
428,128.31237596458334,128.98979466458331,56.0,109.0
429,128.31237596458334,129.00995593541666,64.0,106.0
430,128.31237596458334,129.04019784166667,59.0,104.0
431,128.79624646458333,129.34261690416665,52.0,82.0
432,126.86076446458333,129.49382643541665,47.0,62.0
433,126.37689396458333,129.556326375,40.0,101.0
434,129.28011696458333,129.71156816041665,56.0,112.0
435,129.28011696458333,129.76801971875,59.0,104.0
436,129.76398746458332,129.91922925,52.0,82.0
437,130.24785796458332,130.86882510625,57.0,99.0
438,130.24785796458332,130.93938955416667,62.0,91.0
439,131.21559896458334,131.71559848125,57.0,117.0
440,131.21559896458334,131.77608229375,62.0,110.0
441,132.18333996458333,132.75592005625,57.0,113.0
442,132.18333996458333,132.7861619625,62.0,110.0
443,132.66721046458332,133.21156477708334,54.0,80.0
444,130.7317284645833,133.38696783333333,45.0,56.0
445,130.24785796458332,133.4514839,38.0,113.0
446,133.15108096458331,133.61277406666665,57.0,113.0
447,133.15108096458331,133.64906435416665,62.0,113.0
448,133.63495146458334,133.72769331041667,54.0,96.0
449,134.11882196458333,134.39704750208332,56.0,99.0
450,134.11882196458333,134.72366008958332,61.0,106.0
451,134.11882196458333,134.76398263125,64.0,101.0
452,134.60269246458333,134.77406326666667,56.0,76.0
453,135.08656296458332,135.3022885625,56.0,99.0
454,135.08656296458332,135.507933525,61.0,104.0
455,135.08656296458332,135.55027219375,64.0,104.0
456,136.0543039645833,136.79422260416666,61.0,104.0
457,136.0543039645833,136.81035162083333,64.0,104.0
458,136.53817446458334,137.10269004791667,56.0,87.0
459,134.11882196458333,137.17728674999998,49.0,101.0
460,137.02204496458333,137.50188321041665,61.0,106.0
461,137.02204496458333,137.58051216666667,64.0,106.0
462,137.50591546458332,137.62889921666667,56.0,91.0
463,137.98978596458332,138.62284986875,59.0,101.0
464,137.98978596458332,138.63494663125,62.0,104.0
465,138.4736564645833,139.01196239583334,54.0,82.0
466,137.98978596458332,139.136962275,47.0,101.0
467,138.95752696458334,139.45551035416665,59.0,106.0
468,138.95752696458334,139.46559098958332,62.0,117.0
469,139.44139746458333,139.60470375833333,54.0,91.0
470,139.92526796458333,140.17929997708333,56.0,96.0
471,139.92526796458333,140.47163840416667,64.0,87.0
472,139.92526796458333,140.5522834875,59.0,96.0
473,140.40913846458332,140.78010584791667,56.0,85.0
474,139.92526796458333,141.06639589374998,40.0,104.0
475,140.89300896458332,141.06639589374998,56.0,104.0
476,140.89300896458332,141.35268593958332,59.0,106.0
477,140.89300896458332,141.47365356458332,64.0,99.0
478,141.37687946458334,141.75994361041666,56.0,91.0
479,141.86074996458333,142.42324942083332,61.0,101.0
480,141.86074996458333,142.55429768125,57.0,104.0
481,142.34462046458333,142.93736182708332,52.0,85.0
482,142.82849096458332,143.4272807083333,61.0,104.0
483,142.82849096458332,143.44945810625,57.0,110.0
484,143.31236146458332,143.88897381041667,52.0,87.0
485,143.7962319645833,144.42727974166667,61.0,104.0
486,143.7962319645833,144.44542488541666,57.0,113.0
487,144.76397296458333,144.86679544583333,62.0,113.0
488,144.28010246458334,144.92727925833333,52.0,91.0
489,145.00590821458331,145.27808537083334,61.0,104.0
490,141.86074996458333,145.48574646041666,45.0,74.0
491,145.24784346458333,145.53010125625,59.0,96.0
492,145.48977871458334,145.72768171041665,57.0,91.0
493,145.73171396458332,146.02808464583333,54.0,96.0
494,145.73171396458332,146.40106815625,59.0,104.0
495,145.73171396458332,146.46356809583332,62.0,101.0
496,146.21558446458332,146.77606779375,54.0,91.0
497,145.73171396458332,146.79018068333332,47.0,96.0
498,146.69945496458334,147.1934061,59.0,101.0
499,146.69945496458334,147.23574476874998,62.0,117.0
500,147.18332546458333,147.37284141041667,54.0,104.0
501,147.66719596458333,148.26195345416667,59.0,99.0
502,147.66719596458333,148.26800183541667,64.0,89.0
503,147.66719596458333,148.29622761458333,56.0,101.0
504,148.15106646458332,148.68332401458332,47.0,62.0
505,147.66719596458333,148.74582395416667,40.0,106.0
506,148.63493696458332,148.79622713125,56.0,104.0
507,148.63493696458332,149.09864619375,59.0,106.0
508,148.63493696458332,149.2216299458333,64.0,104.0
509,149.1188074645833,149.46759745,56.0,101.0
510,149.60267796458334,150.09864522708332,57.0,107.0
511,149.60267796458334,150.12283875208334,61.0,99.0
512,150.08654846458333,150.52808029583332,52.0,85.0
513,149.60267796458334,150.72969300416665,45.0,86.0
514,150.57041896458333,151.09057975208333,57.0,117.0
515,150.57041896458333,151.13896680208333,61.0,104.0
516,151.05428946458332,151.20549899583332,52.0,106.0
517,151.53815996458331,152.13493358124998,57.0,104.0
518,151.53815996458331,152.19944964791665,61.0,104.0
519,152.02203046458334,152.5159816,49.0,66.0
520,152.50590096458333,152.71759430833333,57.0,120.0
521,152.50590096458333,152.82444904374998,61.0,106.0
522,152.74783621458332,153.08856169166665,49.0,89.0
523,151.53815996458331,153.15912613958332,42.0,106.0
524,152.98977146458333,153.24178734999998,56.0,106.0
525,153.23170671458334,153.31840017916664,57.0,120.0
526,153.47364196458332,153.76598039166666,54.0,104.0
527,153.47364196458332,153.91114154166667,59.0,94.0
528,153.95751246458332,154.31235083125,54.0,91.0
529,153.47364196458332,154.52807642916665,47.0,94.0
530,154.4413829645833,154.92323733749998,62.0,113.0
531,154.4413829645833,154.95146311666664,59.0,109.0
532,154.92525346458334,155.06033397916667,54.0,109.0
533,155.40912396458333,155.86476868541666,56.0,101.0
534,155.40912396458333,156.3889617270833,52.0,99.0
535,155.89299446458332,156.7377517125,47.0,56.0
536,155.40912396458333,156.78210650833333,40.0,104.0
537,156.37686496458332,156.87081609999998,64.0,99.0
538,156.37686496458332,156.88492898958333,56.0,106.0
539,156.37686496458332,156.90307413333332,59.0,99.0
540,156.8607354645833,157.20952545,52.0,109.0
541,157.34460596458334,157.47363809791665,52.0,80.0
542,157.34460596458334,157.95549247083332,57.0,110.0
543,157.82847646458333,158.38895979375,52.0,104.0
544,158.31234696458333,158.78613682916665,57.0,120.0
545,158.79621746458332,158.88492705624998,52.0,109.0
546,158.31234696458333,158.90710445416667,61.0,109.0
547,157.82847646458333,158.99178179166665,49.0,40.0
548,157.34460596458334,159.1833138645833,45.0,107.0
549,159.28008796458332,159.48976518125,56.0,104.0
550,159.28008796458332,159.89097447083333,64.0,99.0
551,159.28008796458332,159.91113574166667,59.0,99.0
552,160.00589371458332,160.13492584791666,56.0,96.0
553,159.7639584645833,160.30831277708333,47.0,73.0
554,160.24782896458333,160.47161907083333,59.0,112.0
555,160.24782896458333,160.48976421458332,56.0,109.0
556,160.24782896458333,160.54621577291667,64.0,106.0
557,159.28008796458332,160.57040929791665,40.0,106.0
558,160.48976421458332,160.69742530416667,47.0,94.0
559,160.73169946458333,160.92121541041666,40.0,99.0
560,161.21556996458332,161.75992427708331,57.0,107.0
561,161.21556996458332,161.78411780208333,62.0,107.0
562,161.69944046458332,162.01395628958332,54.0,76.0
563,161.21556996458332,162.2901657,38.0,113.0
564,162.1833109645833,162.71556851458334,57.0,117.0
565,162.1833109645833,162.73976203958333,62.0,113.0
566,162.66718146458334,162.84056839375,54.0,101.0
567,163.15105196458333,163.41718073958333,56.0,101.0
568,163.15105196458333,163.68935789583333,64.0,101.0
569,163.15105196458333,163.83451904583333,59.0,101.0
570,163.63492246458333,163.9252447645833,56.0,91.0
571,164.11879296458332,164.33653468958332,56.0,109.0
572,163.15105196458333,164.77605039374998,40.0,106.0
573,164.11879296458332,164.90709865416665,59.0,112.0
574,164.11879296458332,164.90709865416665,64.0,104.0
575,164.60266346458332,164.99782437291665,56.0,99.0
576,165.08653396458334,165.30225956249998,56.0,106.0
577,165.08653396458334,165.4958077625,40.0,106.0
578,165.08653396458334,165.52806579583333,59.0,106.0
579,165.08653396458334,165.604678625,64.0,104.0
580,165.57040446458333,165.70951723333332,56.0,99.0
581,166.05427496458333,166.50387130416667,38.0,107.0
582,166.05427496458333,166.56233898958334,57.0,113.0
583,166.05427496458333,166.86677417916667,62.0,117.0
584,166.53814546458332,166.95548377083333,54.0,109.0
585,167.02201596458332,167.25790283333333,56.0,99.0
586,167.02201596458332,167.60669281875,59.0,94.0
587,167.02201596458332,167.65911212291667,64.0,99.0
588,167.5058864645833,167.80830552708332,56.0,85.0
589,167.98975696458334,168.15507938541666,56.0,109.0
590,167.02201596458332,168.17927291041667,37.0,104.0
591,167.98975696458334,168.3526598395833,59.0,109.0
592,167.98975696458334,168.53612740416665,64.0,104.0
593,168.47362746458333,168.6167724875,56.0,106.0
594,168.95749796458333,169.24983639166666,54.0,109.0
595,168.95749796458333,169.59056186875,59.0,109.0
596,169.44136846458332,170.01193242916665,54.0,87.0
597,168.95749796458333,170.41112559166666,47.0,106.0
598,169.92523896458331,170.44943200625,59.0,106.0
599,169.92523896458331,170.45144813333332,62.0,117.0
600,170.40910946458334,170.57039963124998,54.0,106.0
601,170.89297996458333,171.3748343375,56.0,101.0
602,170.89297996458333,171.8828983625,52.0,104.0
603,171.37685046458333,172.00184986041666,47.0,74.0
604,170.89297996458333,172.07039818125,40.0,104.0
605,171.86072096458332,172.3022527958333,64.0,104.0
606,171.86072096458332,172.3566882270833,56.0,104.0
607,171.86072096458332,172.45346232708332,59.0,99.0
608,172.34459146458332,172.83652647291666,52.0,112.0
609,172.8284619645833,173.50991291875,61.0,104.0
610,172.8284619645833,173.53209031666665,57.0,107.0
611,173.31233246458333,173.85668677708333,52.0,91.0
612,173.79620296458333,174.37684756458333,61.0,106.0
613,173.79620296458333,174.39096045416665,57.0,117.0
614,172.8284619645833,174.61273443333332,45.0,113.0
615,174.28007346458332,174.87281482708332,52.0,101.0
616,174.76394396458332,175.35870145416666,57.0,107.0
617,174.76394396458332,175.39700786875,61.0,101.0
618,175.2478144645833,175.56233028958331,52.0,76.0
619,174.76394396458332,175.84660420833333,45.0,113.0
620,175.73168496458334,175.97966859583332,52.0,112.0
621,175.73168496458334,175.97966859583332,57.0,120.0
622,175.73168496458334,176.07241044166665,61.0,109.0
623,176.45749071458332,176.62281313541666,52.0,87.0
624,176.21555546458333,176.63692602499998,57.0,110.0
625,175.97362021458332,176.70749047291665,45.0,110.0
626,176.69942596458333,176.70749047291665,45.0,77.0
627,176.69942596458333,177.4615220020833,61.0,101.0
628,176.69942596458333,177.73571528541666,57.0,88.0
629,177.18329646458332,178.05426336458333,52.0,50.0
630,177.66716696458332,178.22160191249998,61.0,101.0
631,178.1510374645833,178.47361779791666,57.0,99.0
632,177.66716696458332,178.65506923541665,64.0,104.0
633,179.11877846458333,179.80224554583333,49.0,82.0
634,178.63490796458333,179.8909551375,42.0,96.0
635,179.60264896458332,179.95748733124998,57.0,99.0
636,179.60264896458332,180.02805177916665,61.0,99.0
637,180.5703899645833,180.82442197708332,56.0,94.0
638,181.05426046458334,181.59055026874998,56.0,76.0
639,180.5703899645833,181.90103383958333,49.0,99.0
640,180.5703899645833,182.00990470208333,61.0,101.0
641,182.02200146458333,182.153049725,56.0,96.0
642,181.53813096458333,182.28006573124998,64.0,99.0
643,182.98974246458332,183.82240295,49.0,76.0
644,182.50587196458332,183.83046745833332,42.0,99.0
645,182.50587196458332,183.91716092291665,61.0,96.0
646,182.50587196458332,183.94135444791667,57.0,79.0
647,183.4736129645833,183.94135444791667,66.0,106.0
648,183.95748346458333,184.27804767083333,54.0,104.0
649,184.44135396458333,185.41715947291667,54.0,85.0
650,184.44135396458333,185.70748177291665,38.0,86.0
651,184.92522446458332,185.73167529791667,45.0,70.0
652,184.44135396458333,185.88893321041667,57.0,88.0
653,185.40909496458332,185.93328800625,62.0,117.0
654,185.8929654645833,186.05828788541666,54.0,104.0
655,186.37683596458334,187.16514165416666,56.0,99.0
656,186.37683596458334,187.38893176041665,52.0,99.0
657,186.37683596458334,187.64901215416666,40.0,99.0
658,186.86070646458333,187.66312504375,47.0,78.0
659,187.34457696458333,187.73368949166667,56.0,106.0
660,187.34457696458333,187.88288289583332,59.0,96.0
661,187.82844746458332,188.28207605833333,52.0,71.0
662,188.31231796458331,189.35465566666664,57.0,99.0
663,188.7961884645833,189.84054229375,52.0,55.0
664,189.76392946458333,190.05828401875,57.0,110.0
665,188.31231796458331,190.10667106875,45.0,72.0
666,189.28005896458333,190.29013863333333,61.0,112.0
667,190.24779996458332,191.30626668333332,52.0,94.0
668,190.24779996458332,191.54618580624998,56.0,99.0
669,191.45747621458332,191.7417501333333,52.0,104.0
670,190.24779996458332,192.13489491458333,40.0,106.0
671,190.73167046458332,192.13691104166665,47.0,94.0
672,191.2155409645833,192.17723358333333,64.0,112.0
673,191.94134671458332,192.18731421875,52.0,94.0
674,191.69941146458333,192.20344323541664,59.0,91.0
675,192.18328196458333,192.94537800208332,61.0,101.0
676,192.18328196458333,193.21957128541666,57.0,88.0
677,192.66715246458332,193.5381193645833,52.0,50.0
678,192.18328196458333,193.62884508333332,45.0,77.0
679,193.15102296458332,193.70545791249998,61.0,101.0
680,193.6348934645833,193.95747379791666,57.0,99.0
681,193.15102296458332,194.13892523541665,64.0,104.0
682,194.60263446458333,195.28610154583333,49.0,82.0
683,194.11876396458334,195.3748111375,42.0,96.0
684,195.08650496458333,195.44134333124998,57.0,99.0
685,195.08650496458333,195.51190777916665,61.0,99.0
686,196.05424596458332,196.30827797708332,56.0,94.0
687,196.5381164645833,197.07440626874998,56.0,76.0
688,196.05424596458332,197.3848898395833,49.0,99.0
689,196.05424596458332,197.49376070208334,61.0,101.0
690,197.50585746458333,197.636905725,56.0,96.0
691,197.02198696458333,197.76392173124998,64.0,99.0
692,198.47359846458332,199.30625895,49.0,76.0
693,197.98972796458332,199.31432345833332,42.0,99.0
694,197.98972796458332,199.40101692291665,61.0,96.0
695,197.98972796458332,199.42521044791667,57.0,79.0
696,198.9574689645833,199.42521044791667,66.0,106.0
697,199.44133946458334,199.76190367083333,54.0,104.0
698,199.92520996458333,200.90101547291667,54.0,85.0
699,199.92520996458333,201.19133777291665,38.0,86.0
700,200.40908046458333,201.21553129791667,45.0,70.0
701,199.92520996458333,201.37278921041667,57.0,88.0
702,200.89295096458332,201.41714400625,62.0,117.0
703,201.37682146458332,201.54214388541666,54.0,104.0
704,201.8606919645833,202.64899765416666,56.0,99.0
705,201.8606919645833,202.87278776041666,52.0,99.0
706,201.8606919645833,203.13286815416666,40.0,99.0
707,202.34456246458333,203.14698104375,47.0,78.0
708,202.82843296458333,203.21754549166667,56.0,106.0
709,202.82843296458333,203.36673889583332,59.0,96.0
710,203.31230346458332,203.76593205833333,52.0,71.0
711,203.79617396458332,204.35060891249998,57.0,99.0
712,203.79617396458332,204.55423774791666,61.0,109.0
713,204.52197971458332,204.65101184791666,57.0,110.0
714,204.2800444645833,204.9090761145833,52.0,62.0
715,203.79617396458332,205.09657593333333,45.0,117.0
716,204.76391496458334,205.17117263541667,57.0,117.0
717,204.76391496458334,205.18931777916666,61.0,115.0
718,204.76391496458334,205.19939841458333,64.0,112.0
719,205.4897207145833,205.62883348333332,57.0,110.0
720,205.73165596458333,206.22963935416666,61.0,112.0
721,205.73165596458333,206.28407478541666,57.0,117.0
722,206.45746171458333,206.57036483124998,57.0,110.0
723,206.45746171458333,206.57439708541665,64.0,104.0
724,206.45746171458333,206.57842933958332,61.0,109.0
725,206.21552646458332,206.73165499791665,52.0,80.0
726,206.69939696458331,206.92318707083334,61.0,118.0
727,206.69939696458331,206.93125157916666,57.0,120.0
728,206.69939696458331,207.03609018749998,64.0,115.0
729,207.1832674645833,207.42117046041665,62.0,114.0
730,205.73165596458333,207.59052513541667,45.0,120.0
731,206.94133221458333,207.61875091458333,52.0,106.0
732,207.42520271458332,207.63286380416665,61.0,112.0
733,207.66713796458333,207.96350864583331,54.0,96.0
734,207.66713796458333,208.33649215625,59.0,104.0
735,207.66713796458333,208.39899209583334,62.0,101.0
736,208.15100846458333,208.71149179374999,54.0,91.0
737,207.66713796458333,208.72560468333333,47.0,96.0
738,208.63487896458332,209.1288301,59.0,101.0
739,208.63487896458332,209.17116876875,62.0,117.0
740,209.11874946458332,209.30826541041665,54.0,104.0
741,209.6026199645833,210.19737745416666,59.0,99.0
742,209.6026199645833,210.20342583541665,64.0,89.0
743,209.6026199645833,210.2316516145833,56.0,101.0
744,210.08649046458333,210.61874801458333,47.0,62.0
745,209.6026199645833,210.68124795416665,40.0,106.0
746,210.57036096458333,210.73165113124998,56.0,104.0
747,210.57036096458333,211.03407019374998,59.0,106.0
748,210.57036096458333,211.15705394583333,64.0,104.0
749,211.05423146458332,211.40302144999998,56.0,101.0
750,211.53810196458332,212.03406922708334,57.0,107.0
751,211.53810196458332,212.05826275208332,61.0,99.0
752,212.0219724645833,212.46350429583333,52.0,85.0
753,211.53810196458332,212.66511700416666,45.0,86.0
754,212.5058429645833,213.0260037520833,57.0,117.0
755,212.5058429645833,213.07439080208331,61.0,104.0
756,212.98971346458333,213.14092299583334,52.0,106.0
757,213.47358396458333,214.07035758125,57.0,104.0
758,213.47358396458333,214.13487364791666,61.0,104.0
759,213.95745446458332,214.4514056,49.0,66.0
760,214.44132496458332,214.65301830833332,57.0,120.0
761,214.44132496458332,214.75987304375,61.0,106.0
762,214.68326021458333,215.02398569166667,49.0,89.0
763,213.47358396458333,215.09455013958333,42.0,106.0
764,214.9251954645833,215.17721135,56.0,106.0
765,215.16713071458332,215.25382417916666,57.0,120.0
766,215.40906596458333,215.70140439166664,54.0,104.0
767,215.40906596458333,215.84656554166665,59.0,94.0
768,215.89293646458333,216.24777483124998,54.0,91.0
769,215.40906596458333,216.46350042916666,47.0,94.0
770,216.37680696458332,216.8586613375,62.0,113.0
771,216.37680696458332,216.88688711666666,59.0,109.0
772,216.86067746458332,216.99575797916665,54.0,109.0
773,217.3445479645833,217.80019268541665,56.0,101.0
774,217.3445479645833,218.32438572708332,52.0,99.0
775,217.8284184645833,218.67317571249998,47.0,56.0
776,217.3445479645833,218.7175305083333,40.0,104.0
777,218.31228896458333,218.8062401,64.0,99.0
778,218.31228896458333,218.8203529895833,56.0,106.0
779,218.31228896458333,218.83849813333333,59.0,99.0
780,218.79615946458333,219.14494944999998,52.0,109.0
781,219.28002996458332,219.40906209791666,52.0,80.0
782,219.28002996458332,219.89091647083333,57.0,110.0
783,219.76390046458332,220.32438379375,52.0,104.0
784,220.2477709645833,220.72156082916666,57.0,120.0
785,220.73164146458333,220.82035105625,52.0,109.0
786,220.2477709645833,220.84252845416665,61.0,109.0
787,219.76390046458332,220.92720579166667,49.0,40.0
788,219.28002996458332,221.11873786458332,45.0,107.0
789,221.21551196458333,221.42518918124998,56.0,104.0
790,221.21551196458333,221.8263984708333,64.0,99.0
791,221.21551196458333,221.84655974166665,59.0,99.0
792,221.94131771458333,222.07034984791665,56.0,96.0
793,221.69938246458332,222.2437367770833,47.0,73.0
794,222.18325296458332,222.4070430708333,59.0,112.0
795,222.18325296458332,222.42518821458333,56.0,109.0
796,222.18325296458332,222.48163977291665,64.0,106.0
797,221.21551196458333,222.50583329791667,40.0,106.0
798,222.42518821458333,222.63284930416665,47.0,94.0
799,222.6671234645833,222.85663941041665,40.0,99.0
800,223.15099396458334,223.69534827708333,57.0,107.0
801,223.15099396458334,223.7195418020833,62.0,107.0
802,223.63486446458333,223.94938028958333,54.0,76.0
803,223.15099396458334,224.2255897,38.0,113.0
804,224.11873496458333,224.65099251458332,57.0,117.0
805,224.11873496458333,224.6751860395833,62.0,113.0
806,224.60260546458332,224.77599239375,54.0,101.0
807,225.08647596458331,225.3526047395833,56.0,101.0
808,225.08647596458331,225.6247818958333,64.0,101.0
809,225.08647596458331,225.76994304583332,59.0,101.0
810,225.5703464645833,225.86066876458332,56.0,91.0
811,226.05421696458333,226.27195868958333,56.0,109.0
812,225.08647596458331,226.71147439375,40.0,106.0
813,226.05421696458333,226.84252265416666,59.0,112.0
814,226.05421696458333,226.84252265416666,64.0,104.0
815,226.53808746458333,226.93324837291667,56.0,99.0
816,227.02195796458332,227.2376835625,56.0,106.0
817,227.02195796458332,227.43123176249998,40.0,106.0
818,227.02195796458332,227.4634897958333,59.0,106.0
819,227.02195796458332,227.54010262499997,64.0,104.0
820,227.50582846458332,227.64494123333333,56.0,99.0
821,227.9896989645833,228.43929530416665,38.0,107.0
822,227.9896989645833,228.49776298958332,57.0,113.0
823,227.9896989645833,228.80219817916665,62.0,117.0
824,228.47356946458333,228.8909077708333,54.0,109.0
825,228.95743996458333,229.19332683333332,56.0,99.0
826,228.95743996458333,229.54211681874997,59.0,94.0
827,228.95743996458333,229.59453612291665,64.0,99.0
828,229.44131046458332,229.74372952708333,56.0,85.0
829,229.92518096458332,230.09050338541667,56.0,109.0
830,228.95743996458333,230.11469691041665,37.0,104.0
831,229.92518096458332,230.28808383958332,59.0,109.0
832,229.92518096458332,230.47155140416666,64.0,104.0
833,230.4090514645833,230.5521964875,56.0,106.0
834,230.8929219645833,231.18526039166665,54.0,109.0
835,230.8929219645833,231.52598586874998,59.0,109.0
836,231.37679246458333,231.94735642916666,54.0,87.0
837,230.8929219645833,232.34654959166664,47.0,106.0
838,231.86066296458333,232.38485600624998,59.0,106.0
839,231.86066296458333,232.38687213333333,62.0,117.0
840,232.34453346458332,232.50582363125,54.0,106.0
841,232.82840396458332,233.3102583375,56.0,101.0
842,232.82840396458332,233.8183223625,52.0,104.0
843,233.3122744645833,233.93727386041667,47.0,74.0
844,232.82840396458332,234.00582218124998,40.0,104.0
845,233.79614496458333,234.23767679583332,64.0,104.0
846,233.79614496458333,234.29211222708332,56.0,104.0
847,233.79614496458333,234.38888632708333,59.0,99.0
848,234.28001546458333,234.77195047291664,52.0,112.0
849,234.76388596458332,235.44533691875,61.0,104.0
850,234.76388596458332,235.46751431666667,57.0,107.0
851,235.24775646458332,235.7921107770833,52.0,91.0
852,235.7316269645833,236.3122715645833,61.0,106.0
853,235.7316269645833,236.32638445416666,57.0,117.0
854,234.76388596458332,236.54815843333333,45.0,113.0
855,236.2154974645833,236.80823882708333,52.0,101.0
856,236.69936796458333,237.29412545416665,57.0,107.0
857,236.69936796458333,237.33243186874998,61.0,101.0
858,237.18323846458333,237.49775428958333,52.0,76.0
859,236.69936796458333,237.78202820833332,45.0,113.0
860,237.66710896458332,237.91509259583333,52.0,112.0
861,237.66710896458332,237.91509259583333,57.0,120.0
862,237.66710896458332,238.00783444166666,61.0,109.0
863,238.39291471458333,238.55823713541665,52.0,87.0
864,238.15097946458332,238.572350025,57.0,110.0
865,237.90904421458333,238.64291447291666,45.0,110.0
866,238.6348499645833,238.93122064583332,54.0,96.0
867,238.6348499645833,239.30420415625,59.0,104.0
868,238.6348499645833,239.3667040958333,62.0,101.0
869,239.11872046458333,239.67920379375,54.0,91.0
870,238.6348499645833,239.6933166833333,47.0,96.0
871,239.60259096458333,240.0965421,59.0,101.0
872,239.60259096458333,240.13888076875,62.0,117.0
873,240.08646146458332,240.27597741041666,54.0,104.0
874,240.57033196458332,241.16508945416666,59.0,99.0
875,240.57033196458332,241.17113783541666,64.0,89.0
876,240.57033196458332,241.19936361458332,56.0,101.0
877,241.0542024645833,241.5864600145833,47.0,62.0
878,240.57033196458332,241.64895995416666,40.0,106.0
879,241.5380729645833,241.69936313124998,56.0,104.0
880,241.5380729645833,242.00178219375,59.0,106.0
881,241.5380729645833,242.12476594583333,64.0,104.0
882,242.02194346458333,242.37073345,56.0,101.0
883,242.50581396458333,243.0017812270833,57.0,107.0
884,242.50581396458333,243.02597475208333,61.0,99.0
885,242.98968446458332,243.4312162958333,52.0,85.0
886,242.50581396458333,243.63282900416667,45.0,86.0
887,243.47355496458331,243.99371575208332,57.0,117.0
888,243.47355496458331,244.04210280208332,61.0,104.0
889,243.9574254645833,244.1086349958333,52.0,106.0
890,244.44129596458333,245.03806958125,57.0,104.0
891,244.44129596458333,245.10258564791664,61.0,104.0
892,244.92516646458333,245.4191176,49.0,66.0
893,245.40903696458332,245.62073030833332,57.0,120.0
894,245.40903696458332,245.72758504375,61.0,106.0
895,245.65097221458333,245.99169769166664,49.0,89.0
896,244.44129596458333,246.0622621395833,42.0,106.0
897,245.89290746458332,246.14492335,56.0,106.0
898,246.13484271458333,246.22153617916666,57.0,120.0
899,246.3767779645833,246.66911639166665,54.0,104.0
900,246.3767779645833,246.81427754166666,59.0,94.0
901,246.8606484645833,247.21548683125,54.0,91.0
902,246.3767779645833,247.43121242916666,47.0,94.0
903,247.34451896458333,247.82637333749997,62.0,113.0
904,247.34451896458333,247.85459911666666,59.0,109.0
905,247.82838946458332,247.96346997916666,54.0,109.0
906,248.31225996458332,248.76790468541665,56.0,101.0
907,248.31225996458332,249.29209772708333,52.0,99.0
908,248.7961304645833,249.6408877125,47.0,56.0
909,248.31225996458332,249.68524250833332,40.0,104.0
910,249.2800009645833,249.77395209999997,64.0,99.0
911,249.2800009645833,249.78806498958332,56.0,106.0
912,249.2800009645833,249.8062101333333,59.0,99.0
913,249.76387146458333,250.11266145,52.0,109.0
914,250.24774196458333,250.37677409791667,52.0,80.0
915,250.24774196458333,250.8586284708333,57.0,110.0
916,250.73161246458332,251.29209579374998,52.0,104.0
917,251.21548296458332,251.68927282916664,57.0,120.0
918,251.6993534645833,251.78806305625,52.0,109.0
919,251.21548296458332,251.81024045416666,61.0,109.0
920,250.73161246458332,251.89491779166664,49.0,40.0
921,250.24774196458333,252.08644986458333,45.0,107.0
922,252.18322396458333,252.39290118124998,56.0,104.0
923,252.18322396458333,252.79411047083332,64.0,99.0
924,252.18322396458333,252.81427174166666,59.0,99.0
925,252.9090297145833,253.03806184791665,56.0,96.0
926,252.66709446458333,253.21144877708332,47.0,73.0
927,253.15096496458332,253.37475507083332,59.0,112.0
928,253.15096496458332,253.3929002145833,56.0,109.0
929,253.15096496458332,253.44935177291666,64.0,106.0
930,252.18322396458333,253.47354529791664,40.0,106.0
931,253.3929002145833,253.60056130416666,47.0,94.0
932,253.63483546458332,253.82435141041665,40.0,99.0
933,254.1187059645833,254.66306027708333,57.0,107.0
934,254.1187059645833,254.68725380208332,62.0,107.0
935,254.6025764645833,254.9170922895833,54.0,76.0
936,254.1187059645833,255.19330169999998,38.0,113.0
937,255.08644696458333,255.61870451458333,57.0,117.0
938,255.08644696458333,255.64289803958332,62.0,113.0
939,255.57031746458333,255.74370439375,54.0,101.0
940,256.0541879645833,256.32031673958335,56.0,101.0
941,256.0541879645833,256.59249389583334,64.0,101.0
942,256.0541879645833,256.7376550458333,59.0,101.0
943,256.53805846458334,256.8283807645833,56.0,91.0
944,257.0219289645833,257.2396706895833,56.0,109.0
945,256.0541879645833,257.67918639375,40.0,106.0
946,257.0219289645833,257.81023465416666,59.0,112.0
947,257.0219289645833,257.81023465416666,64.0,104.0
948,257.50579946458333,257.90096037291664,56.0,99.0
949,257.9896699645833,258.2053955625,56.0,106.0
950,257.9896699645833,258.3989437625,40.0,106.0
951,257.9896699645833,258.4312017958333,59.0,106.0
952,257.9896699645833,258.507814625,64.0,104.0
953,258.4735404645833,258.61265323333333,56.0,99.0
954,258.95741096458335,259.40700730416665,38.0,107.0
955,258.95741096458335,259.4654749895833,57.0,113.0
956,258.95741096458335,259.76991017916663,62.0,117.0
957,259.4412814645833,259.85861977083334,54.0,109.0
958,259.92515196458334,260.1610388333333,56.0,99.0
959,259.92515196458334,260.50982881875,59.0,94.0
960,259.92515196458334,260.5622481229166,64.0,99.0
961,260.4090224645833,260.7114415270833,56.0,85.0
962,260.8928929645833,261.05821538541664,56.0,109.0
963,259.92515196458334,261.08240891041663,37.0,104.0
964,260.8928929645833,261.2557958395833,59.0,109.0
965,260.8928929645833,261.43926340416664,64.0,104.0
966,261.3767634645833,261.5199084875,56.0,106.0
967,261.8606339645833,262.15297239166665,54.0,109.0
968,261.8606339645833,262.49369786874996,59.0,109.0
969,262.34450446458334,262.91506842916664,54.0,87.0
970,261.8606339645833,263.31426159166665,47.0,106.0
971,262.8283749645833,263.35256800625,59.0,106.0
972,262.8283749645833,263.35458413333333,62.0,117.0
973,263.3122454645833,263.47353563125,54.0,106.0
974,263.7961159645833,264.02192219791664,52.0,109.0
975,263.7961159645833,264.16103496666665,56.0,112.0
976,264.2799864645833,264.6207119416666,52.0,115.0
977,264.5219217145833,264.6610344833333,59.0,106.0
978,264.03805121458333,264.82837303125,47.0,85.0
979,264.76385696458334,265.07635666249996,52.0,112.0
980,264.76385696458334,265.08240504375,56.0,118.0
981,264.76385696458334,265.11667920416664,64.0,115.0
982,264.76385696458334,265.11869533124997,59.0,112.0
983,265.0057922145833,265.3545822,47.0,106.0
984,263.7961159645833,265.3686950895833,40.0,109.0
985,265.2477274645833,265.3868402333333,52.0,99.0
986,265.2477274645833,265.75982374374996,56.0,106.0
987,265.48966271458335,265.76990437916663,52.0,112.0
988,265.2477274645833,265.80216241249997,59.0,99.0
989,265.73159796458333,265.8102269208333,38.0,107.0
990,265.73159796458333,266.4211134270833,57.0,113.0
991,265.73159796458333,266.4936940020833,62.0,110.0
992,266.45740371458334,266.7779679208333,54.0,94.0
993,266.2154684645833,266.92312907083334,50.0,50.0
994,266.6993389645833,266.9876451375,57.0,117.0
995,266.9412742145833,267.3505480125,62.0,120.0
996,267.18320946458334,267.41506407916665,54.0,106.0
997,267.6670799645833,267.7477250479167,40.0,109.0
998,267.6670799645833,267.8727249270833,52.0,106.0
999,267.6670799645833,267.91707972291664,56.0,112.0
1000,268.15095046458333,268.5924822958333,52.0,2.0
1001,268.3928857145833,268.7739337333333,59.0,91.0
1002,268.6348209645833,268.8989336125,64.0,115.0
1003,268.87675621458334,269.1186914645833,68.0,106.0
1004,269.1186914645833,269.23562683541667,64.0,112.0
1005,269.60256196458334,270.36465800208333,61.0,101.0
1006,269.60256196458334,270.63885128541665,57.0,88.0
1007,270.0864324645833,270.9573993645833,52.0,50.0
1008,269.60256196458334,271.04812508333333,45.0,77.0
1009,270.57030296458333,271.1247379125,61.0,101.0
1010,271.0541734645833,271.37675379791665,57.0,99.0
1011,270.57030296458333,271.55820523541666,64.0,104.0
1012,272.02191446458335,272.7053815458333,49.0,82.0
1013,271.5380439645833,272.7940911375,42.0,96.0
1014,272.5057849645833,272.86062333125,57.0,99.0
1015,272.5057849645833,272.93118777916663,61.0,99.0
1016,273.4735259645833,273.72755797708334,56.0,94.0
1017,273.9573964645833,274.49368626874997,56.0,76.0
1018,273.4735259645833,274.8041698395833,49.0,99.0
1019,273.4735259645833,274.9130407020833,61.0,101.0
1020,274.9251374645833,275.056185725,56.0,96.0
1021,274.4412669645833,275.18320173125,64.0,99.0
1022,275.8928784645833,276.72553895,49.0,76.0
1023,275.40900796458334,276.73360345833333,42.0,99.0
1024,275.40900796458334,276.82029692291667,61.0,96.0
1025,275.40900796458334,276.84449044791666,57.0,79.0
1026,276.3767489645833,276.84449044791666,66.0,106.0
1027,276.8606194645833,277.1811836708333,54.0,104.0
1028,277.3444899645833,278.32029547291665,54.0,85.0
1029,277.3444899645833,278.61061777291667,38.0,86.0
1030,277.82836046458334,278.63481129791666,45.0,70.0
1031,277.3444899645833,278.7920692104166,57.0,88.0
1032,278.3122309645833,278.83642400625,62.0,117.0
1033,278.79610146458333,278.96142388541665,54.0,104.0
1034,279.2799719645833,280.06827765416665,56.0,99.0
1035,279.2799719645833,280.29206776041667,52.0,99.0
1036,279.2799719645833,280.5521481541667,40.0,99.0
1037,279.7638424645833,280.56626104375,47.0,78.0
1038,280.24771296458334,280.6368254916666,56.0,106.0
1039,280.24771296458334,280.7860188958333,59.0,96.0
1040,280.7315834645833,281.1852120583333,52.0,71.0
1041,281.21545396458333,282.25779166666666,57.0,99.0
1042,281.6993244645833,282.74367829375,52.0,55.0
1043,282.66706546458335,282.96142001875,57.0,110.0
1044,281.21545396458333,283.00980706875,45.0,72.0
1045,282.1831949645833,283.1932746333333,61.0,112.0
1046,283.1509359645833,284.20940268333334,52.0,94.0
1047,283.1509359645833,284.44932180625,56.0,99.0
1048,284.36061221458334,284.64488613333333,52.0,104.0
1049,283.1509359645833,285.0380309145833,40.0,106.0
1050,283.63480646458333,285.04004704166664,47.0,94.0
1051,284.1186769645833,285.0803695833333,64.0,112.0
1052,284.8444827145833,285.09045021875,52.0,94.0
1053,284.6025474645833,285.10657923541663,59.0,91.0
1054,285.0864179645833,285.84851400208333,61.0,101.0
1055,285.0864179645833,286.12270728541665,57.0,88.0
1056,285.5702884645833,286.4412553645833,52.0,50.0
1057,285.0864179645833,286.53198108333333,45.0,77.0
1058,286.05415896458334,286.6085939125,61.0,101.0
1059,286.5380294645833,286.86060979791665,57.0,99.0
1060,286.05415896458334,287.04206123541667,64.0,104.0
1061,287.5057704645833,288.1892375458333,49.0,82.0
1062,287.0218999645833,288.2779471375,42.0,96.0
1063,287.9896409645833,288.34447933125,57.0,99.0
1064,287.9896409645833,288.41504377916664,61.0,99.0
1065,288.9573819645833,289.21141397708334,56.0,94.0
1066,289.44125246458333,289.97754226874997,56.0,76.0
1067,288.9573819645833,290.2880258395833,49.0,99.0
1068,288.9573819645833,290.3968967020833,61.0,101.0
1069,290.4089934645833,290.540041725,56.0,96.0
1070,289.9251229645833,290.66705773125,64.0,99.0
1071,291.3767344645833,292.20939495,49.0,76.0
1072,290.89286396458334,292.21745945833334,42.0,99.0
1073,290.89286396458334,292.30415292291667,61.0,96.0
1074,290.89286396458334,292.32834644791666,57.0,79.0
1075,291.86060496458333,292.32834644791666,66.0,106.0
1076,292.3444754645833,292.6650396708333,54.0,104.0
1077,292.8283459645833,293.80415147291666,54.0,85.0
1078,292.8283459645833,294.0944737729167,38.0,86.0
1079,293.31221646458334,294.11866729791666,45.0,70.0
1080,292.8283459645833,294.27592521041663,57.0,88.0
1081,293.7960869645833,294.32028000624996,62.0,117.0
1082,294.27995746458333,294.44527988541665,54.0,104.0
1083,294.7638279645833,295.55213365416665,56.0,99.0
1084,294.7638279645833,295.7759237604167,52.0,99.0
1085,294.7638279645833,296.0360041541667,40.0,99.0
1086,295.2476984645833,296.05011704375,47.0,78.0
1087,295.73156896458335,296.12068149166663,56.0,106.0
1088,295.73156896458335,296.2698748958333,59.0,96.0
1089,296.2154394645833,296.6690680583333,52.0,71.0
1090,296.69930996458334,297.2537449125,57.0,99.0
1091,296.69930996458334,297.4573737479167,61.0,109.0
1092,297.42511571458334,297.5541478479166,57.0,110.0
1093,297.1831804645833,297.8122121145833,52.0,62.0
1094,296.69930996458334,297.99971193333334,45.0,117.0
1095,297.6670509645833,298.0743086354166,57.0,117.0
1096,297.6670509645833,298.09245377916665,61.0,115.0
1097,297.6670509645833,298.1025344145833,64.0,112.0
1098,298.39285671458333,298.53196948333334,57.0,110.0
1099,298.6347919645833,299.0702754145833,59.0,106.0
1100,298.6347919645833,299.1368076083333,62.0,117.0
1101,298.6347919645833,299.1670495145833,55.0,117.0
1102,299.3605977145833,299.47350083124996,55.0,101.0
1103,299.3605977145833,299.4815653395833,62.0,99.0
1104,299.3605977145833,299.5037427375,67.0,99.0
1105,299.11866246458334,299.68922642916664,50.0,93.0
1106,298.6347919645833,299.7214844625,43.0,117.0
1107,299.6025329645833,299.89487139166664,55.0,120.0
1108,299.6025329645833,299.9150326625,59.0,112.0
1109,299.6025329645833,300.0017261270833,62.0,117.0
1110,299.6025329645833,300.1368066416666,67.0,117.0
1111,299.84446821458334,300.459386975,50.0,120.0
1112,300.3283387145833,300.58575809583334,62.0,72.0
1113,300.0864034645833,300.60175809583336,55.0,120.0
1114,300.3283387145833,300.60775809583333,59.0,94.0
1115,300.5697580958333,301.32575809583335,64.0,101.0
1116,300.5697580958333,301.59775809583334,60.0,88.0
1117,301.04975809583334,301.9137580958334,55.0,50.0
1118,300.5697580958333,302.00375809583335,48.0,77.0
1119,301.52975809583336,302.07975809583337,64.0,101.0
1120,302.0097580958333,302.32975809583337,60.0,99.0
1121,301.52975809583336,302.5097580958334,67.0,104.0
1122,302.96975809583336,303.64775809583335,52.0,82.0
1123,302.48975809583334,303.7357580958334,45.0,96.0
1124,303.4497580958334,303.80175809583335,60.0,99.0
1125,303.4497580958334,303.87175809583334,64.0,99.0
1126,304.40975809583335,304.66175809583336,59.0,94.0
1127,304.8897580958334,305.42175809583335,59.0,76.0
1128,304.40975809583335,305.72975809583335,52.0,99.0
1129,304.40975809583335,305.83775809583335,64.0,101.0
1130,305.84975809583335,305.97975809583335,59.0,96.0
1131,305.36975809583333,306.1057580958333,67.0,99.0
1132,306.80975809583333,307.63575809583335,52.0,76.0
1133,306.32975809583337,307.64375809583333,45.0,99.0
1134,306.32975809583337,307.72975809583335,64.0,96.0
1135,306.32975809583337,307.75375809583335,60.0,79.0
1136,307.28975809583335,307.75375809583335,69.0,106.0
1137,307.76975809583337,308.08775809583335,57.0,104.0
1138,308.24975809583333,309.21775809583335,57.0,85.0
1139,308.24975809583333,309.50575809583336,41.0,86.0
1140,308.72975809583335,309.52975809583336,48.0,70.0
1141,308.24975809583333,309.68575809583336,60.0,88.0
1142,309.20975809583337,309.72975809583335,65.0,117.0
1143,309.6897580958333,309.85375809583337,57.0,104.0
1144,310.16975809583334,310.9517580958333,59.0,99.0
1145,310.16975809583334,311.17375809583336,55.0,99.0
1146,310.16975809583334,311.43175809583335,43.0,99.0
1147,310.64975809583336,311.44575809583336,50.0,78.0
1148,311.1297580958333,311.51575809583335,59.0,106.0
1149,311.1297580958333,311.6637580958334,62.0,96.0
1150,311.60975809583334,312.05975809583333,55.0,71.0
1151,312.08975809583336,312.6397580958334,60.0,99.0
1152,312.08975809583336,312.84175809583337,64.0,109.0
1153,312.80975809583333,312.9377580958334,60.0,110.0
1154,312.5697580958333,313.19375809583335,55.0,62.0
1155,312.08975809583336,313.3797580958333,48.0,117.0
1156,313.04975809583334,313.45375809583334,60.0,117.0
1157,313.04975809583334,313.47175809583337,64.0,115.0
1158,313.04975809583334,313.48175809583336,67.0,112.0
1159,313.76975809583337,313.90775809583334,60.0,110.0
1160,314.0097580958334,314.50538040833334,64.0,112.0
1161,314.0097580958334,314.55959725208334,60.0,117.0
1162,314.73228793958333,314.8447376895833,60.0,110.0
1163,314.73228793958333,314.8487537520833,67.0,104.0
1164,314.73228793958333,314.8527698145833,64.0,109.0
1165,314.49132418958334,315.0057930770833,55.0,80.0
1166,314.97353504375,315.19732515,64.0,118.0
1167,314.97353504375,315.20538965833333,60.0,120.0
1168,314.97353504375,315.3102282666667,67.0,115.0
1169,315.45740554375,315.6953085395833,65.0,114.0
1170,314.0097580958334,315.86466321458335,48.0,120.0
1171,315.21547029375,315.89288899375,55.0,106.0
1172,315.69934079374997,315.90700188333335,64.0,112.0
1173,315.94127604375,316.70337208125,64.0,101.0
1174,315.94127604375,316.9775653645833,60.0,88.0
1175,316.42514654375,317.29611344375,55.0,50.0
1176,315.94127604375,317.3868391625,48.0,77.0
1177,316.90901704375,317.46345199166666,64.0,101.0
1178,317.39288754374996,317.7154678770833,60.0,99.0
1179,316.90901704375,317.89691931458333,67.0,104.0
1180,318.36062854375,319.044095625,52.0,82.0
1181,317.87675804375,319.13280521666667,45.0,96.0
1182,318.84449904375,319.19933741041666,60.0,99.0
1183,318.84449904375,319.2699018583333,64.0,99.0
1184,319.81224004374997,320.06627205625,59.0,94.0
1185,320.29611054375,320.83240034791663,59.0,76.0
1186,319.81224004374997,321.14288391875,52.0,99.0
1187,319.81224004374997,321.25175478125,64.0,101.0
1188,321.26385154375,321.39489980416664,59.0,96.0
1189,320.77998104375,321.52191581041666,67.0,99.0
1190,322.23159254374997,323.06425302916665,52.0,76.0
1191,321.74772204375,323.0723175375,45.0,99.0
1192,321.74772204375,323.15901100208333,64.0,96.0
1193,321.74772204375,323.1832045270833,60.0,79.0
1194,322.71546304375,323.1832045270833,69.0,106.0
1195,323.19933354375,323.51989775,57.0,104.0
1196,323.68320404375,324.6590095520833,57.0,85.0
1197,323.68320404375,324.94933185208333,41.0,86.0
1198,324.16707454375,324.9735253770833,48.0,70.0
1199,323.68320404375,325.13078328958335,60.0,88.0
1200,324.65094504374997,325.1751380854167,65.0,117.0
1201,325.13481554375,325.3001379645833,57.0,104.0
1202,325.61868604375,326.4069917333333,59.0,99.0
1203,325.61868604375,326.63078183958334,55.0,99.0
1204,325.61868604375,326.89086223333334,43.0,99.0
1205,326.10255654375,326.90497512291665,50.0,78.0
1206,326.58642704375,326.97553957083335,59.0,106.0
1207,326.58642704375,327.124732975,62.0,96.0
1208,327.07029754375,327.5239261375,55.0,71.0
1209,327.55416804375,328.10860299166666,60.0,99.0
1210,327.55416804375,328.31223182708334,64.0,109.0
1211,328.27997379375,328.40900592708334,60.0,110.0
1212,328.03803854374996,328.66707019374996,55.0,62.0
1213,327.55416804375,328.8545700125,48.0,117.0
1214,328.52190904375,328.92916671458335,60.0,117.0
1215,328.52190904375,328.9473118583333,64.0,115.0
1216,328.52190904375,328.95739249375,67.0,112.0
1217,329.24771479375,329.3868275625,60.0,110.0
1218,329.48965004375,329.9876334333333,64.0,112.0
1219,329.48965004375,330.0420688645833,60.0,117.0
1220,330.21545579375,330.3283589104167,60.0,110.0
1221,330.21545579375,330.3323911645833,67.0,104.0
1222,330.21545579375,330.33642341875,64.0,109.0
1223,329.97352054375,330.4896490770833,55.0,80.0
1224,330.45739104374996,330.68118115,64.0,118.0
1225,330.45739104374996,330.68924565833333,60.0,120.0
1226,330.45739104374996,330.79408426666663,67.0,115.0
1227,330.94126154375,331.1791645395833,65.0,114.0
1228,329.48965004375,331.34851921458335,48.0,120.0
1229,330.69932629375,331.37674499375,55.0,106.0
1230,331.18319679374997,331.3908578833333,64.0,112.0
1231,331.42513204375,332.18722808125,64.0,101.0
1232,331.42513204375,332.4614213645833,60.0,88.0
1233,331.90900254375,332.77996944375,55.0,50.0
1234,331.42513204375,332.8706951625,48.0,77.0
1235,332.39287304375,332.94730799166666,64.0,101.0
1236,332.87674354374997,333.1993238770833,60.0,99.0
1237,332.39287304375,333.38077531458333,67.0,104.0
1238,333.84448454375,334.527951625,52.0,82.0
1239,333.36061404375,334.61666121666667,45.0,96.0
1240,334.32835504375,334.68319341041666,60.0,99.0
1241,334.32835504375,334.7537578583333,64.0,99.0
1242,335.29609604374997,335.55012805625,59.0,94.0
1243,335.77996654375,336.31625634791664,59.0,76.0
1244,335.29609604374997,336.62673991875,52.0,99.0
1245,335.29609604374997,336.73561078125,64.0,101.0
1246,336.74770754375,336.87875580416664,59.0,96.0
1247,336.26383704375,337.00577181041666,67.0,99.0
1248,337.71544854374997,338.54810902916665,52.0,76.0
1249,337.23157804375,338.5561735375,45.0,99.0
1250,337.23157804375,338.64286700208334,64.0,96.0
1251,337.23157804375,338.6670605270833,60.0,79.0
1252,338.19931904375,338.6670605270833,69.0,106.0
1253,338.68318954375,339.00375375,57.0,104.0
1254,339.16706004375,340.1428655520833,57.0,85.0
1255,339.16706004375,340.43318785208334,41.0,86.0
1256,339.65093054375,340.4573813770833,48.0,70.0
1257,339.16706004375,340.61463928958335,60.0,88.0
1258,340.13480104375,340.6589940854167,65.0,117.0
1259,340.61867154375,340.7839939645833,57.0,104.0
1260,341.10254204374996,341.8908477333333,59.0,99.0
1261,341.10254204374996,342.11463783958334,55.0,99.0
1262,341.10254204374996,342.37471823333334,43.0,99.0
1263,341.58641254375,342.38883112291666,50.0,78.0
1264,342.07028304375,342.4593955708333,59.0,106.0
1265,342.07028304375,342.608588975,62.0,96.0
1266,342.55415354375,343.0077821375,55.0,71.0
1267,342.995685375,343.10052398333335,36.0,96.0
1268,343.27995929375,343.55012032291665,48.0,93.0
1269,343.7235072520833,344.5037484333333,60.0,113.0
1270,343.5017332729167,344.79407073333334,55.0,96.0
1271,344.22149064166666,344.91100610416663,64.0,101.0
1272,343.9654425020833,344.94124801041664,67.0,101.0
1273,344.73761917499996,344.979554425,60.0,99.0
1274,344.4856032895833,345.27995736041663,72.0,65.0
1275,345.0481027458333,347.67108408125,48.0,49.0
1276,345.19729615,347.7396324020833,55.0,63.0
1277,345.1831832604166,348.55414774375,60.0,91.0
1278,345.3061670125,348.55414774375,64.0,91.0
1279,345.35253793541665,348.56422837916665,67.0,88.0
1280,345.44527978125,348.57632514166664,72.0,70.0
