,start,end,pitch,velocity
0,31.46503996666667,31.748127900000004,71.0,122.0
1,31.906215966666668,32.04959816666667,69.0,99.0
2,32.12680396666667,32.590038766666666,71.0,107.0
3,32.78856796666667,32.933788400000005,69.0,107.0
4,33.00915596666667,34.30327223333334,71.0,117.0
5,34.55327196666667,34.72238943333333,67.0,93.0
6,34.77385996666667,34.880477500000005,66.0,92.0
7,34.99444796666667,35.321653500000004,66.0,99.0
8,35.43562396666667,35.73709423333334,74.0,112.0
9,35.87679996666667,36.227902533333335,74.0,112.0
10,36.31797596666667,36.5514316,71.0,107.0
11,36.53856396666667,37.2959161,74.0,96.0
12,38.08267996666667,38.220547466666666,71.0,107.0
13,38.30326796666667,38.433782533333336,69.0,90.0
14,38.52385596666667,38.7903998,67.0,97.0
15,38.96503196666667,39.06981126666667,67.0,96.0
16,39.18561996666667,39.57164896666667,67.0,99.0
17,39.62679596666667,40.1028984,71.0,117.0
18,40.28855996666667,40.69113306666667,69.0,117.0
19,40.72973596666667,40.87863286666667,71.0,95.0
20,40.95032396666667,41.6470144,62.0,95.0
21,41.83267596666667,41.97605816666667,62.0,86.0
22,42.05326396666667,42.43194003333333,71.0,99.0
23,42.49443996666667,42.61024866666667,69.0,79.0
24,42.71502796666667,44.22973223333334,69.0,100.0
25,45.58267196666667,45.851054033333334,71.0,122.0
26,46.02384796666667,46.319803533333335,69.0,93.0
27,46.46502396666667,46.72237663333334,71.0,117.0
28,46.90619996666667,47.009141033333336,69.0,95.0
29,47.12678796666667,47.72789026666667,71.0,127.0
30,48.67090396666667,48.884139033333334,67.0,99.0
31,48.89149196666667,49.03303593333334,66.0,96.0
32,49.11207996666667,49.4613443,66.0,102.0
33,49.55325596666667,49.871270333333335,74.0,112.0
34,49.99443196666667,50.299578700000005,74.0,122.0
35,50.43560796666667,50.54590196666667,76.0,112.0
36,50.65619596666667,51.082666100000004,76.0,99.0
37,51.09737196666667,51.79773886666667,74.0,102.0
38,52.20031196666667,52.40803233333334,71.0,100.0
39,52.420899966666674,52.62310563333334,74.0,102.0
40,52.64148796666667,52.935605300000006,76.0,122.0
41,53.08266396666667,53.459501800000005,76.0,122.0
42,53.96501596666667,54.115751100000004,76.0,107.0
43,54.18560396666667,54.30692736666667,71.0,86.0
44,54.40619196666667,54.6561917,74.0,112.0
45,54.847367966666674,55.014647200000006,76.0,102.0
46,55.06795596666667,55.501779033333335,74.0,112.0
47,55.72971996666667,55.887808033333336,74.0,107.0
48,55.95030796666667,56.09920486666667,71.0,95.0
49,56.17089596666667,56.415381000000004,69.0,95.0
50,56.61207196666667,56.69846893333334,69.0,99.0
51,56.83265996666667,57.1984684,69.0,99.0
52,57.93559996666667,58.40986416666667,74.0,107.0
53,58.59736396666667,60.3639062,76.0,127.0
54,62.78853596666667,63.01280043333334,71.0,112.0
55,63.00912396666667,63.14882970000001,74.0,99.0
56,63.22971196666667,63.48890286666667,79.0,117.0
57,63.67088796666667,63.7885349,79.0,122.0
58,63.89147596666667,64.16353450000001,78.0,100.0
59,64.33265196666667,64.60287226666667,76.0,112.0
60,64.99441596666666,65.25360686666667,78.0,127.0
61,65.43559196666668,65.59551826666667,78.0,122.0
62,65.65617996666667,65.91537086666668,76.0,112.0
63,66.09735596666667,66.38412036666668,74.0,107.0
64,66.75911996666667,67.03301673333334,64.0,117.0
65,67.20029596666667,67.32345760000001,64.0,100.0
66,67.42088396666666,67.7094866,76.0,117.0
67,68.08264796666667,68.38044176666668,74.0,127.0
68,68.52382396666667,68.99257346666667,71.0,127.0
69,69.84735196666668,69.94477833333333,71.0,122.0
70,70.06793996666667,70.15433693333334,71.0,96.0
71,70.28852796666668,70.55139533333333,69.0,127.0
72,70.72970396666668,70.86573323333334,69.0,122.0
73,70.95029196666667,71.27565926666668,71.0,127.0
74,71.39146796666667,71.68190883333334,72.0,127.0
75,72.05323196666667,72.28301113333333,71.0,117.0
76,72.49440796666667,72.63595193333335,71.0,112.0
77,72.71499596666668,72.93006926666668,79.0,112.0
78,73.15617196666668,73.42087756666668,76.0,117.0
79,73.81793596666667,74.062421,72.0,102.0
80,74.25911196666667,74.3822736,72.0,100.0
81,74.47969996666667,74.73889086666668,74.0,112.0
82,74.92087596666667,75.3528608,76.0,127.0
83,75.58263996666668,75.84550733333334,74.0,127.0
84,76.02381596666667,76.14513936666667,74.0,100.0
85,76.24440396666667,76.48153606666668,76.0,100.0
86,76.68557996666667,77.04955016666668,78.0,122.0
87,77.34734396666667,77.62491720000001,79.0,127.0
88,77.78851996666667,77.93190216666667,79.0,96.0
89,78.00910796666668,78.26646063333334,78.0,127.0
90,78.45028396666667,78.73704836666667,76.0,127.0
91,79.11204796666668,79.34366536666667,78.0,127.0
92,79.55322396666668,79.6488121,78.0,122.0
93,79.77381196666667,80.018297,76.0,102.0
94,80.21498796666667,80.48520826666667,74.0,107.0
95,80.87675196666667,81.07344293333334,64.0,102.0
96,81.31792796666667,81.42822196666667,64.0,107.0
97,81.53851596666668,81.82528036666668,76.0,127.0
98,82.20027996666667,82.45763263333333,74.0,117.0
99,82.64145596666667,83.13226426666667,71.0,117.0
100,83.96498396666668,84.05321916666668,71.0,117.0
101,84.18557196666667,84.29770420000001,71.0,112.0
102,84.40615996666668,84.705792,69.0,112.0
103,84.84733596666668,84.97968876666667,69.0,102.0
104,85.06792396666667,85.3399825,71.0,102.0
105,85.50909996666667,85.79034966666667,72.0,117.0
106,86.17086396666667,86.4263784,71.0,112.0
107,86.61203996666667,86.76277510000001,71.0,97.0
108,86.83262796666668,87.1488041,79.0,112.0
109,87.27380396666668,87.57711246666668,76.0,117.0
110,87.93556796666667,88.180053,72.0,117.0
111,88.37674396666668,88.51644970000001,72.0,100.0
112,88.59733196666667,88.841817,74.0,122.0
113,89.03850796666667,89.45027223333334,76.0,127.0
114,89.70027196666668,89.93372760000001,74.0,127.0
115,90.14144796666668,90.25725666666668,74.0,112.0
116,90.36203596666667,90.61755040000001,76.0,117.0
117,90.80321196666668,91.49071123333334,78.0,127.0
118,92.34732796666667,92.80137160000001,79.0,127.0
119,92.78850396666667,93.24438583333334,78.0,85.0
120,93.22967996666668,95.11570736666667,76.0,99.0
121,96.75908796666667,97.62857233333334,64.0,97.0
122,97.64143996666668,98.04952776666667,67.0,122.0
123,98.08261596666668,98.57158603333335,69.0,99.0
124,98.52379196666668,99.99989333333335,71.0,122.0
125,100.28849596666667,101.47967116666668,72.0,117.0
126,101.61202396666667,101.89143543333334,74.0,112.0
127,101.83261196666668,102.00540590000001,76.0,100.0
128,102.05319996666667,103.37856620000001,71.0,102.0
129,103.81790396666668,104.64694720000001,67.0,100.0
130,104.70025596666667,105.13591726666668,69.0,107.0
131,105.14143196666667,105.6009903,71.0,117.0
132,105.58260796666667,107.35282666666667,66.0,112.0
133,110.87671996666667,111.18921963333334,71.0,112.0
134,111.31789596666667,111.54583690000001,69.0,93.0
135,111.75907196666668,111.98701290000001,71.0,112.0
136,112.20024796666668,112.30135080000001,69.0,93.0
137,112.42083596666667,113.51826126666667,71.0,127.0
138,113.96495196666667,114.13406943333334,67.0,93.0
139,114.18553996666668,114.2921575,66.0,92.0
140,114.40612796666667,114.73333350000001,66.0,99.0
141,114.84730396666667,115.14877423333334,74.0,112.0
142,115.28847996666667,115.63958253333334,74.0,112.0
143,115.72965596666667,115.9631116,71.0,107.0
144,115.95024396666668,116.7075961,74.0,96.0
145,117.49435996666668,117.63222746666668,71.0,107.0
146,117.71494796666667,117.84546253333335,69.0,90.0
147,117.93553596666668,118.2020798,67.0,97.0
148,118.37671196666668,118.48149126666668,67.0,96.0
149,118.59729996666668,118.98332896666668,67.0,99.0
150,119.03847596666668,119.5145784,71.0,117.0
151,119.70023996666667,120.10281306666667,69.0,117.0
152,120.14141596666667,120.29031286666668,71.0,95.0
153,120.36200396666668,121.05869440000001,62.0,95.0
154,121.24435596666667,121.38773816666668,62.0,86.0
155,121.46494396666668,121.84362003333334,71.0,99.0
156,121.90611996666668,122.02192866666668,69.0,79.0
157,122.12670796666667,123.64141223333334,69.0,100.0
158,124.99435196666667,125.26273403333334,71.0,122.0
159,125.43552796666668,125.73148353333335,69.0,93.0
160,125.87670396666668,126.13405663333334,71.0,117.0
161,126.31787996666668,126.42082103333334,69.0,95.0
162,126.53846796666667,127.13957026666668,71.0,127.0
163,128.08258396666668,128.29581903333334,67.0,99.0
164,128.30317196666667,128.44471593333336,66.0,96.0
165,128.5237599666667,128.8730243,66.0,102.0
166,128.96493596666667,129.28295033333333,74.0,112.0
167,129.40611196666669,129.7112587,74.0,122.0
168,129.84728796666667,129.95758196666668,76.0,112.0
169,130.0678759666667,130.4943461,76.0,99.0
170,130.50905196666668,131.20941886666668,74.0,102.0
171,131.61199196666666,131.81971233333334,71.0,100.0
172,131.83257996666669,132.03478563333334,74.0,102.0
173,132.05316796666668,132.3472853,76.0,122.0
174,132.4943439666667,132.87118180000002,76.0,122.0
175,133.3766959666667,133.5274311,76.0,107.0
176,133.59728396666668,133.71860736666667,71.0,86.0
177,133.81787196666667,134.0678717,74.0,112.0
178,134.25904796666669,134.4263272,76.0,102.0
179,134.47963596666668,134.91345903333334,74.0,112.0
180,135.14139996666668,135.29948803333335,74.0,107.0
181,135.36198796666667,135.5108848666667,71.0,95.0
182,135.58257596666667,135.82706100000001,69.0,95.0
183,136.02375196666668,136.11014893333333,69.0,99.0
184,136.24433996666667,136.6101484,69.0,99.0
185,137.3472799666667,137.82154416666668,74.0,107.0
186,138.00904396666667,139.77558620000002,76.0,127.0
187,140.43551196666667,140.65977643333335,71.0,112.0
188,140.6560999666667,140.79580570000002,74.0,99.0
189,140.87668796666668,141.13587886666667,79.0,117.0
190,141.31786396666666,141.4355109,79.0,122.0
191,141.53845196666668,141.81051050000002,78.0,100.0
192,141.97962796666667,142.24984826666667,76.0,112.0
193,142.64139196666667,142.90058286666667,78.0,127.0
194,143.0825679666667,143.24249426666668,78.0,122.0
195,143.30315596666668,143.56234686666667,76.0,112.0
196,143.74433196666666,144.03109636666667,74.0,107.0
197,144.40609596666667,144.67999273333334,64.0,117.0
198,144.84727196666668,144.9704336,64.0,100.0
199,145.06785996666667,145.35646260000001,76.0,117.0
200,145.72962396666668,146.02741776666667,74.0,127.0
201,146.17079996666666,146.63954946666667,71.0,127.0
202,147.49432796666667,147.59175433333334,71.0,122.0
203,147.71491596666667,147.80131293333335,71.0,96.0
204,147.9355039666667,148.19837133333334,69.0,127.0
205,148.37667996666667,148.51270923333334,69.0,122.0
206,148.5972679666667,148.92263526666667,71.0,127.0
207,149.03844396666668,149.32888483333335,72.0,127.0
208,149.70020796666668,149.92998713333336,71.0,117.0
209,150.14138396666667,150.28292793333335,71.0,112.0
210,150.3619719666667,150.5770452666667,79.0,112.0
211,150.80314796666667,151.06785356666668,76.0,117.0
212,151.46491196666668,151.70939700000002,72.0,102.0
213,151.9060879666667,152.0292496,72.0,100.0
214,152.12667596666668,152.38586686666667,74.0,112.0
215,152.56785196666667,152.99983680000003,76.0,127.0
216,153.22961596666667,153.49248333333335,74.0,127.0
217,153.67079196666668,153.79211536666668,74.0,100.0
218,153.89137996666668,154.12851206666667,76.0,100.0
219,154.3325559666667,154.69652616666667,78.0,122.0
220,154.99431996666667,155.27189320000002,79.0,127.0
221,155.43549596666668,155.57887816666667,79.0,96.0
222,155.65608396666667,155.91343663333333,78.0,127.0
223,156.09725996666668,156.38402436666667,76.0,127.0
224,156.7590239666667,156.99064136666667,78.0,127.0
225,157.20019996666667,157.2957881,78.0,122.0
226,157.42078796666667,157.665273,76.0,102.0
227,157.86196396666668,158.13218426666668,74.0,107.0
228,158.52372796666668,158.72041893333335,64.0,102.0
229,158.96490396666667,159.07519796666668,64.0,107.0
230,159.1854919666667,159.47225636666667,76.0,127.0
231,159.84725596666667,160.10460863333336,74.0,117.0
232,160.28843196666668,160.77924026666668,71.0,117.0
233,161.6119599666667,161.70019516666667,71.0,117.0
234,161.83254796666668,161.94468020000002,71.0,112.0
235,162.05313596666667,162.35276800000003,69.0,112.0
236,162.4943119666667,162.6266647666667,69.0,102.0
237,162.71489996666668,162.98695850000001,71.0,102.0
238,163.1560759666667,163.43732566666668,72.0,117.0
239,163.81783996666667,164.0733544,71.0,112.0
240,164.25901596666668,164.40975110000002,71.0,97.0
241,164.47960396666667,164.7957801,79.0,112.0
242,164.9207799666667,165.22408846666667,76.0,117.0
243,165.5825439666667,165.827029,72.0,117.0
244,166.02371996666668,166.1634257,72.0,100.0
245,166.24430796666667,166.48879300000002,74.0,122.0
246,166.68548396666668,167.09724823333335,76.0,127.0
247,167.34724796666669,167.58070360000002,74.0,127.0
248,167.78842396666667,167.90423266666667,74.0,112.0
249,168.0090119666667,168.26452640000002,76.0,117.0
250,168.45018796666668,169.13768723333334,78.0,127.0
251,169.99430396666668,170.4483476,79.0,127.0
252,170.4354799666667,170.89136183333335,78.0,85.0
253,170.87665596666668,172.7626833666667,76.0,99.0
254,174.4060639666667,175.56598920000002,76.0,102.0
255,175.72959196666667,175.93547410000002,74.0,127.0
256,175.95017996666667,176.1009151,71.0,68.0
257,176.1707679666667,177.44834013333335,71.0,83.0
258,177.93547196666668,178.1413541,64.0,102.0
259,178.37664796666667,178.53473603333336,64.0,90.0
260,178.5972359666667,179.21488236666667,76.0,122.0
261,179.2589999666667,179.66708776666667,74.0,102.0
262,179.70017596666668,180.9207629,71.0,102.0
263,181.0237039666667,181.12480680000002,71.0,127.0
264,181.24429196666668,181.3895124,71.0,112.0
265,181.46487996666667,181.7626737666667,69.0,127.0
266,181.90605596666668,182.06414403333335,69.0,122.0
267,182.12664396666668,182.4042172,71.0,122.0
268,182.5678199666667,182.90421666666668,72.0,127.0
269,183.22958396666667,183.50348073333333,71.0,122.0
270,183.67075996666668,183.82517156666668,71.0,97.0
271,183.89134796666667,184.18730353333333,79.0,122.0
272,184.33252396666668,184.78840583333334,76.0,127.0
273,184.9942879666667,185.23509653333335,72.0,107.0
274,185.43546396666667,185.59906673333336,72.0,97.0
275,185.6560519666667,185.95016930000003,74.0,127.0
276,186.09722796666668,186.40237470000002,76.0,127.0
277,186.75899196666668,187.00163876666667,74.0,122.0
278,187.20016796666667,187.34722663333335,74.0,107.0
279,187.4207559666667,187.70200566666668,76.0,127.0
280,187.86193196666667,188.1725934,78.0,127.0
281,188.52369596666668,188.8012692,79.0,127.0
282,188.9648719666667,189.10825416666668,79.0,96.0
283,189.18545996666668,189.44281263333335,78.0,127.0
284,189.62663596666667,189.91340036666668,76.0,127.0
285,190.28839996666667,190.52001736666668,78.0,127.0
286,190.7295759666667,190.82516410000002,78.0,122.0
287,190.95016396666668,191.19464900000003,76.0,102.0
288,191.3913399666667,191.66156026666667,74.0,107.0
289,192.05310396666667,192.24979493333333,64.0,102.0
290,192.49427996666668,192.6045739666667,64.0,107.0
291,192.71486796666667,193.00163236666668,76.0,127.0
292,193.37663196666668,193.63398463333334,74.0,117.0
293,193.8178079666667,194.3086162666667,71.0,117.0
294,195.14133596666667,195.2295711666667,71.0,117.0
295,195.3619239666667,195.4740562,71.0,112.0
296,195.5825119666667,195.882144,69.0,112.0
297,196.02368796666667,196.15604076666668,69.0,102.0
298,196.2442759666667,196.51633450000003,71.0,102.0
299,196.68545196666668,196.9667016666667,72.0,117.0
300,197.34721596666668,197.6027304,71.0,112.0
301,197.7883919666667,197.9391271,71.0,97.0
302,198.0089799666667,198.32515610000002,79.0,112.0
303,198.45015596666667,198.75346446666668,76.0,117.0
304,199.11191996666668,199.35640500000002,72.0,117.0
305,199.5530959666667,199.69280170000002,72.0,100.0
306,199.77368396666668,200.01816900000003,74.0,122.0
307,200.2148599666667,200.62662423333336,76.0,127.0
308,200.87662396666667,201.1100796,74.0,127.0
309,201.31779996666668,201.4336086666667,74.0,112.0
310,201.53838796666668,201.7939024,76.0,117.0
311,201.9795639666667,202.66706323333335,78.0,127.0
312,203.5236799666667,203.97772360000002,79.0,127.0
313,203.96485596666668,204.42073783333336,78.0,85.0
314,204.4060319666667,206.29205936666668,76.0,99.0
