,start,end,pitch,velocity
0,38.266005299999996,38.5412343,65.0,110.0
1,38.5412343,38.754536775,67.0,96.0
2,38.8164633,39.0653161875,69.0,114.0
3,39.0916923,39.3313708875,67.0,107.0
4,39.3669213,39.552700875,69.0,108.0
5,39.6421503,40.002241575,72.0,113.0
6,40.192608299999996,40.602011437499996,69.0,116.0
7,42.119211299999996,42.3909999375,69.0,116.0
8,42.3944403,42.6203574375,72.0,108.0
9,42.9448983,43.185723675,77.0,110.0
10,43.2201273,43.479301275,74.0,108.0
11,43.4953563,43.7579706375,72.0,100.0
12,43.7705853,44.0274657,69.0,104.0
13,44.045814299999996,44.311869,72.0,102.0
14,44.5962723,44.9357214,69.0,107.0
15,46.5228753,46.80269145,72.0,107.0
16,46.7981043,47.0653057875,69.0,104.0
17,47.0733333,47.2189753125,67.0,96.0
18,47.3485623,47.5194336375,67.0,98.0
19,47.6237913,47.869203825,67.0,107.0
20,47.8990203,48.149019975,65.0,107.0
21,48.1742493,48.3864049875,67.0,113.0
22,48.7247073,48.855441075,69.0,104.0
23,48.9999363,49.194890175,69.0,102.0
24,49.2751653,49.56415575,62.0,89.0
25,50.9265393,51.0538327125,67.0,104.0
26,51.2017683,51.4368597375,69.0,98.0
27,51.4769973,51.6157585875,67.0,93.0
28,51.7522263,51.993051675,69.0,102.0
29,52.0274553,52.1925927,67.0,104.0
30,52.302684299999996,52.423096987499996,69.0,96.0
31,52.5779133,52.800390074999996,72.0,114.0
32,53.1283713,53.27974725,69.0,113.0
33,53.4036003,53.7258475875,72.0,107.0
34,55.3302033,55.6054323,65.0,110.0
35,55.6054323,55.818734774999996,67.0,96.0
36,55.8806613,56.1295141875,69.0,114.0
37,56.155890299999996,56.3955688875,67.0,107.0
38,56.4311193,56.616898875,69.0,108.0
39,56.7063483,56.9529076125,67.0,87.0
40,56.9815773,57.181118325,69.0,108.0
41,57.2568063,57.598548975,72.0,110.0
42,57.8072643,58.1776766625,69.0,113.0
43,60.009096299999996,60.18799515,72.0,114.0
44,60.2843253,60.5010681375,77.0,113.0
45,60.5595543,60.8175814875,76.0,110.0
46,60.8347833,61.0859297625,74.0,110.0
47,61.1100123,61.317580837499996,72.0,107.0
48,61.3852413,61.616892375,74.0,110.0
49,61.935699299999996,62.1134513625,72.0,107.0
50,62.2109283,62.5240012875,74.0,110.0
51,64.13753129999999,64.4001456375,72.0,113.0
52,64.4127603,64.7006039625,69.0,107.0
53,64.6879893,64.97697975,67.0,104.0
54,65.2384473,65.5056487875,67.0,104.0
55,65.5136763,65.7441805875,65.0,113.0
56,65.7889053,66.0457857,67.0,116.0
57,66.06413429999999,66.3359229375,69.0,108.0
58,66.6145923,66.9448671,67.0,113.0
59,68.5411953,68.8496811375,67.0,108.0
60,68.8164243,69.0515157375,69.0,98.0
61,69.0916533,69.3473869125,72.0,108.0
62,69.3668823,69.5136711,72.0,108.0
63,69.6421113,69.873762375,72.0,110.0
64,69.91734029999999,70.1558721,69.0,107.0
65,70.1925693,70.3760553,67.0,108.0
66,70.4677983,70.6788072,65.0,108.0
67,70.7430273,70.855412475,67.0,107.0
68,71.0182563,71.32559535,69.0,108.0
69,71.5687143,71.8680258375,65.0,113.0
70,74.5962333,75.158159175,72.0,116.0
71,75.1466913,75.5377458375,74.0,113.0
72,75.69714929999999,76.14210285,79.0,117.0
73,76.5228363,76.85769825,81.0,117.0
74,76.7980653,77.0629732125,79.0,108.0
75,77.0732943,77.3519636625,77.0,110.0
76,77.3485233,77.6180183625,74.0,114.0
77,77.62375229999999,78.04118294999999,72.0,114.0
78,78.9998973,79.387511475,69.0,119.0
79,79.55035529999999,79.88407046249999,72.0,116.0
80,80.1008133,80.2510424625,74.0,114.0
81,80.3760423,80.630629125,74.0,117.0
82,80.9265003,81.192555,77.0,110.0
83,81.2017293,81.4941601125,74.0,108.0
84,81.47695829999999,81.7533340875,72.0,107.0
85,81.7521873,82.0732878,69.0,107.0
86,82.0274163,82.37145255,67.0,108.0
87,82.3026453,82.72007595,69.0,113.0
88,83.40356129999999,83.88177168749999,72.0,117.0
89,83.9540193,84.3358995375,77.0,91.0
90,84.5044773,84.87718323749999,79.0,117.0
91,84.7797063,84.87718323749999,79.0,116.0
92,85.33016429999999,85.676494125,81.0,117.0
93,85.6053933,85.8840626625,79.0,114.0
94,85.8806223,86.1180073125,77.0,113.0
95,86.1558513,86.428786725,74.0,102.0
96,86.4310803,86.6776396125,79.0,117.0
97,88.3576833,88.6042426125,77.0,107.0
98,88.6329123,88.8932330625,79.0,113.0
99,88.9081413,89.0881869375,81.0,113.0
100,89.18337029999999,89.44483785,84.0,116.0
101,89.7338283,89.9689197375,81.0,113.0
102,90.0090573,90.2567634,84.0,113.0
103,90.2842863,90.5595153,81.0,113.0
104,90.5595153,90.8037810375,81.0,116.0
105,90.8347443,91.0721293125,79.0,114.0
106,91.1099733,91.4001105375,81.0,117.0
107,92.2108893,92.566393425,74.0,117.0
108,92.7613473,93.08130101249999,77.0,117.0
109,93.3118053,93.6524011875,79.0,116.0
110,94.13749229999999,94.4666203125,81.0,119.0
111,94.4127213,94.65584025,79.0,113.0
112,94.6879503,94.9780875375,77.0,110.0
113,94.9631793,95.27739907499999,74.0,108.0
114,95.2384083,95.832444225,72.0,108.0
115,97.1650113,97.4413870875,77.0,114.0
116,97.4402403,97.75331328749999,79.0,110.0
117,97.7154693,97.8794599125,81.0,110.0
118,97.99069829999999,98.26134015,84.0,117.0
119,98.5411563,98.7888624,81.0,114.0
120,98.8163853,99.075559275,84.0,116.0
121,99.0916143,99.341613975,81.0,114.0
122,99.3668433,99.66500805,84.0,114.0
123,99.6420723,100.0124846625,86.0,119.0
124,101.0182173,101.405831475,74.0,116.0
125,101.5686753,101.9367940875,77.0,114.0
126,102.1191333,102.2211973875,79.0,117.0
127,102.3943623,102.479224575,79.0,113.0
128,102.6695913,102.8163801,79.0,110.0
129,102.9448203,103.0812880125,81.0,108.0
130,103.2200493,103.3955077875,79.0,119.0
131,103.4952783,103.75789263749999,77.0,114.0
132,103.77050729999999,103.9941308625,74.0,114.0
133,104.0457363,104.30376348749999,79.0,117.0
134,105.9723393,106.2395407875,79.0,113.0
135,106.2475683,106.4023846125,81.0,107.0
136,106.5227973,106.76018231249999,84.0,119.0
137,106.7980263,107.0996314125,81.0,114.0
138,107.3484843,107.58242895,79.0,110.0
139,107.62371329999999,108.01247426249999,81.0,117.0
140,110.9264613,111.14205735,79.0,117.0
141,111.2016903,111.5136165,81.0,117.0
142,111.47691929999999,111.7441207875,79.0,110.0
143,111.7521483,112.01017548749999,77.0,113.0
144,112.0273773,112.208569725,74.0,116.0
145,112.3026063,112.60421141249999,79.0,119.0
146,112.8530643,113.34388935,77.0,114.0
147,152.7612693,153.0364983,65.0,110.0
148,153.0364983,153.24980077499998,67.0,96.0
149,153.3117273,153.5605801875,69.0,114.0
150,153.5869563,153.8266348875,67.0,107.0
151,153.8621853,154.047964875,69.0,108.0
152,154.1374143,154.497505575,72.0,113.0
153,154.6878723,155.0972754375,69.0,116.0
154,156.6144753,156.8862639375,69.0,116.0
155,156.8897043,157.1156214375,72.0,108.0
156,157.4401623,157.68098767499998,77.0,110.0
157,157.7153913,157.974565275,74.0,108.0
158,157.9906203,158.2532346375,72.0,100.0
159,158.26584929999999,158.52272969999999,69.0,104.0
160,158.5410783,158.807133,72.0,102.0
161,159.0915363,159.4309854,69.0,107.0
162,161.0181393,161.29795545,72.0,107.0
163,161.2933683,161.5605697875,69.0,104.0
164,161.5685973,161.71423931249998,67.0,96.0
165,161.8438263,162.0146976375,67.0,98.0
166,162.11905529999999,162.364467825,67.0,107.0
167,162.3942843,162.644283975,65.0,107.0
168,162.6695133,162.8816689875,67.0,113.0
169,163.2199713,163.350705075,69.0,104.0
170,163.4952003,163.690154175,69.0,102.0
171,163.7704293,164.05941975,62.0,89.0
172,165.4218033,165.5490967125,67.0,104.0
173,165.6970323,165.9321237375,69.0,98.0
174,165.97226129999999,166.1110225875,67.0,93.0
175,166.2474903,166.488315675,69.0,102.0
176,166.5227193,166.6878567,67.0,104.0
177,166.7979483,166.9183609875,69.0,96.0
178,167.0731773,167.295654075,72.0,114.0
179,167.6236353,167.77501125,69.0,113.0
180,167.89886429999999,168.2211115875,72.0,107.0
181,169.82546729999999,170.1006963,65.0,110.0
182,170.1006963,170.313998775,67.0,96.0
183,170.3759253,170.6247781875,69.0,114.0
184,170.6511543,170.89083288749998,67.0,107.0
185,170.9263833,171.112162875,69.0,108.0
186,171.2016123,171.4481716125,67.0,87.0
187,171.4768413,171.676382325,69.0,108.0
188,171.75207029999999,172.093812975,72.0,110.0
189,172.3025283,172.6729406625,69.0,113.0
190,174.5043603,174.68325915,72.0,114.0
191,174.7795893,174.9963321375,77.0,113.0
192,175.0548183,175.3128454875,76.0,110.0
193,175.3300473,175.5811937625,74.0,110.0
194,175.60527629999999,175.8128448375,72.0,107.0
195,175.8805053,176.11215637499998,74.0,110.0
196,176.4309633,176.6087153625,72.0,107.0
197,176.7061923,177.0192652875,74.0,110.0
198,178.6327953,178.8954096375,72.0,113.0
199,178.9080243,179.1958679625,69.0,107.0
200,179.1832533,179.47224375,67.0,104.0
201,179.7337113,180.0009127875,67.0,104.0
202,180.0089403,180.2394445875,65.0,113.0
203,180.2841693,180.5410497,67.0,116.0
204,180.5593983,180.8311869375,69.0,108.0
205,181.1098563,181.4401311,67.0,113.0
206,183.0364593,183.3449451375,67.0,108.0
207,183.3116883,183.5467797375,69.0,98.0
208,183.5869173,183.8426509125,72.0,108.0
209,183.8621463,184.0089351,72.0,108.0
210,184.1373753,184.369026375,72.0,110.0
211,184.4126043,184.6511361,69.0,107.0
212,184.6878333,184.8713193,67.0,108.0
213,184.9630623,185.1740712,65.0,108.0
214,185.2382913,185.350676475,67.0,107.0
215,185.5135203,185.82085935,69.0,108.0
216,186.0639783,186.3632898375,65.0,113.0
217,189.0914973,189.653423175,72.0,116.0
218,189.6419553,190.0330098375,74.0,113.0
219,190.1924133,190.63736685,79.0,117.0
220,191.0181003,191.35296225,81.0,117.0
221,191.29332929999998,191.5582372125,79.0,108.0
222,191.5685583,191.8472276625,77.0,110.0
223,191.8437873,192.1132823625,74.0,114.0
224,192.1190163,192.53644695,72.0,114.0
225,193.4951613,193.882775475,69.0,119.0
226,194.0456193,194.3793344625,72.0,116.0
227,194.5960773,194.7463064625,74.0,114.0
228,194.8713063,195.125893125,74.0,117.0
229,195.4217643,195.687819,77.0,110.0
230,195.6969933,195.9894241125,74.0,108.0
231,195.9722223,196.2485980875,72.0,107.0
232,196.2474513,196.5685518,69.0,107.0
233,196.5226803,196.86671655,67.0,108.0
234,196.7979093,197.21533995,69.0,113.0
235,197.8988253,198.37703568749998,72.0,117.0
236,198.4492833,198.8311635375,77.0,91.0
237,198.99974129999998,199.37244723749998,79.0,117.0
238,199.2749703,199.37244723749998,79.0,116.0
239,199.8254283,200.171758125,81.0,117.0
240,200.1006573,200.3793266625,79.0,114.0
241,200.3758863,200.6132713125,77.0,113.0
242,200.6511153,200.924050725,74.0,102.0
243,200.92634429999998,201.1729036125,79.0,117.0
244,202.85294729999998,203.0995066125,77.0,107.0
245,203.1281763,203.3884970625,79.0,113.0
246,203.4034053,203.5834509375,81.0,113.0
247,203.6786343,203.94010185,84.0,116.0
248,204.2290923,204.4641837375,81.0,113.0
249,204.5043213,204.7520274,84.0,113.0
250,204.77955029999998,205.0547793,81.0,113.0
251,205.0547793,205.2990450375,81.0,116.0
252,205.3300083,205.5673933125,79.0,114.0
253,205.6052373,205.8953745375,81.0,117.0
254,206.70615329999998,207.061657425,74.0,117.0
255,207.2566113,207.5765650125,77.0,117.0
256,207.8070693,208.1476651875,79.0,116.0
257,208.63275629999998,208.9618843125,81.0,119.0
258,208.9079853,209.15110425,79.0,113.0
259,209.1832143,209.4733515375,77.0,110.0
260,209.4584433,209.772663075,74.0,108.0
261,209.7336723,210.327708225,72.0,108.0
262,211.6602753,211.9366510875,77.0,114.0
263,211.9355043,212.24857728749998,79.0,110.0
264,212.2107333,212.3747239125,81.0,110.0
265,212.48596229999998,212.75660415,84.0,117.0
266,213.0364203,213.2841264,81.0,114.0
267,213.3116493,213.570823275,84.0,116.0
268,213.5868783,213.836877975,81.0,114.0
269,213.8621073,214.16027205,84.0,114.0
270,214.1373363,214.5077486625,86.0,119.0
271,215.5134813,215.901095475,74.0,116.0
272,216.0639393,216.4320580875,77.0,114.0
273,216.6143973,216.7164613875,79.0,117.0
274,216.8896263,216.974488575,79.0,113.0
275,217.1648553,217.3116441,79.0,110.0
276,217.4400843,217.5765520125,81.0,108.0
277,217.7153133,217.8907717875,79.0,119.0
278,217.9905423,218.25315663749998,77.0,114.0
279,218.26577129999998,218.4893948625,74.0,114.0
280,218.5410003,218.79902748749998,79.0,117.0
281,220.4676033,220.7348047875,79.0,113.0
282,220.7428323,220.8976486125,81.0,107.0
283,221.0180613,221.2554463125,84.0,119.0
284,221.2932903,221.5948954125,81.0,114.0
285,221.8437483,222.07769295,79.0,110.0
286,222.11897729999998,222.5077382625,81.0,117.0
287,225.4217253,225.63732135,79.0,117.0
288,225.6969543,226.0088805,81.0,117.0
289,225.97218329999998,226.2393847875,79.0,110.0
290,226.2474123,226.50543948749998,77.0,113.0
291,226.5226413,226.70383372499998,74.0,116.0
292,226.7978703,227.0994754125,79.0,119.0
293,227.3483283,227.83915335,77.0,114.0
294,230.9263053,231.48823117499998,72.0,116.0
295,231.4767633,231.86781783749998,74.0,113.0
296,232.0272213,232.47217485,79.0,117.0
297,232.8529083,233.18777025,81.0,117.0
298,233.1281373,233.3930452125,79.0,108.0
299,233.4033663,233.6820356625,77.0,110.0
300,233.67859529999998,233.94809036249998,74.0,114.0
301,233.9538243,234.37125495,72.0,114.0
302,235.3299693,235.717583475,69.0,119.0
303,235.8804273,236.2141424625,72.0,116.0
304,236.4308853,236.58111446249998,74.0,114.0
305,236.7061143,236.96070112499999,74.0,117.0
306,237.2565723,237.522627,77.0,110.0
307,237.53180129999998,237.8242321125,74.0,108.0
308,237.8070303,238.0834060875,72.0,107.0
309,238.0822593,238.4033598,69.0,107.0
310,238.3574883,238.70152455,67.0,108.0
311,238.6327173,239.05014795,69.0,113.0
312,239.7336333,240.2118436875,72.0,117.0
313,240.42170579999998,240.8035860375,77.0,91.0
314,240.8345493,241.2072552375,79.0,117.0
315,241.1097783,241.2072552375,79.0,116.0
316,241.6602363,242.006566125,81.0,117.0
317,241.9354653,242.2141346625,79.0,114.0
318,242.2106943,242.4480793125,77.0,113.0
319,242.4859233,242.75885872499998,74.0,102.0
320,242.7611523,243.0077116125,79.0,117.0
321,244.6877553,244.9343146125,77.0,107.0
322,244.9629843,245.2233050625,79.0,113.0
323,245.23821329999998,245.41825893749998,81.0,113.0
324,245.5134423,245.77490985,84.0,116.0
325,246.0639003,246.2989917375,81.0,113.0
326,246.3391293,246.58683539999998,84.0,113.0
327,246.6143583,246.8895873,81.0,113.0
328,246.8895873,247.1338530375,81.0,116.0
329,247.16481629999998,247.40220131249998,79.0,114.0
330,247.4400453,247.73018253749999,81.0,117.0
331,248.5409613,248.896465425,74.0,117.0
332,249.09141929999998,249.4113730125,77.0,117.0
333,249.6418773,249.9824731875,79.0,116.0
334,250.4675643,250.7966923125,81.0,119.0
335,250.7427933,250.98591224999998,79.0,113.0
336,251.01802229999998,251.3081595375,77.0,110.0
337,251.2932513,251.607471075,74.0,108.0
338,251.5684803,252.162516225,72.0,108.0
339,253.4950833,253.7714590875,77.0,114.0
340,253.7703123,254.0833852875,79.0,110.0
341,254.0455413,254.20953191249998,81.0,110.0
342,254.3207703,254.59141215,84.0,117.0
343,254.87122829999998,255.1189344,81.0,114.0
344,255.1464573,255.405631275,84.0,116.0
345,255.4216863,255.671685975,81.0,114.0
346,255.6969153,255.99508004999998,84.0,114.0
347,255.9721443,256.3425566625,86.0,119.0
348,257.3482893,257.735903475,74.0,116.0
349,257.89874729999997,258.2668660875,77.0,114.0
350,258.4492053,258.5512693875,79.0,117.0
351,258.7244343,258.809296575,79.0,113.0
352,258.9996633,259.1464521,79.0,110.0
353,259.2748923,259.4113600125,81.0,108.0
354,259.5501213,259.7255797875,79.0,119.0
355,259.82535029999997,260.0879646375,77.0,114.0
356,260.1005793,260.3242028625,74.0,114.0
357,260.3758083,260.6338354875,79.0,117.0
358,262.3024113,262.5696127875,79.0,113.0
359,262.5776403,262.7324566125,81.0,107.0
360,262.8528693,263.0902543125,84.0,119.0
361,263.1280983,263.4297034125,81.0,114.0
362,263.67855629999997,263.91250095,79.0,110.0
363,263.9537853,264.3425462625,81.0,117.0
364,267.2565333,267.47212935,79.0,117.0
365,267.53176229999997,267.8436885,81.0,117.0
366,267.8069913,268.0741927875,79.0,110.0
367,268.0822203,268.3402474875,77.0,113.0
368,268.3574493,268.538641725,74.0,116.0
369,268.6326783,268.9342834125,79.0,119.0
370,269.1831363,269.67396135,77.0,114.0
371,271.6601973,271.9136373375,79.0,117.0
372,271.9354263,272.1957470625,81.0,108.0
373,272.2106553,272.46294855,79.0,107.0
374,272.4858843,272.77258117499997,77.0,108.0
375,272.7611133,273.0466633875,74.0,114.0
376,273.0363423,275.2324403625,79.0,108.0
377,276.0638613,276.813860325,77.0,117.0
