,start,end,pitch,velocity
0,3.0366933,3.502289025,67.0,81.0
1,3.0366933,3.65595855,58.0,81.0
2,3.8623803,4.7798103,58.0,75.0
3,3.8623803,4.79357175,62.0,81.0
4,3.3119223,4.8795808124999995,50.0,65.0
5,3.5871513,4.905956925,55.0,73.0
6,3.0366933,4.9139844375,43.0,85.0
7,5.7889833,6.9529726125,55.0,78.0
8,5.5137542999999996,7.0034312624999995,50.0,74.0
9,6.0642122999999994,7.025220225,67.0,74.0
10,5.2385253,7.052743125,43.0,79.0
11,6.0642122999999994,7.1100825,58.0,81.0
12,7.4403573,9.4529693625,41.0,81.0
13,7.9908152999999995,9.4713179625,53.0,77.0
14,7.7155863,9.520629825,48.0,78.0
15,8.266044299999999,9.6937947375,65.0,87.0
16,9.0917313,10.3979222625,60.0,80.0
17,9.6421893,11.3314072875,41.0,84.0
18,10.192647299999999,11.41741635,53.0,81.0
19,9.9174183,11.4369117375,48.0,75.0
20,11.0183343,11.871544199999999,60.0,82.0
21,10.4678763,11.883012075,65.0,87.0
22,11.2935633,11.887599224999999,57.0,78.0
23,11.8440213,13.7889729,43.0,86.0
24,12.1192503,13.8359911875,50.0,82.0
25,12.3944793,13.850899425,55.0,80.0
26,12.6697083,14.318788725,67.0,80.0
27,12.6697083,14.419706025,58.0,79.0
28,14.3210823,15.7625941875,50.0,74.0
29,14.0458533,15.7671813375,43.0,86.0
30,14.5963113,15.8038785375,55.0,82.0
31,14.8715403,16.094015775,58.0,81.0
32,15.6972273,16.2052541625,67.0,79.0
33,15.146769299999999,16.238511,62.0,84.0
34,16.7981433,18.1387378875,60.0,81.0
35,16.5229143,18.18804975,55.0,76.0
36,16.2476853,18.194930475,48.0,89.0
37,17.0733723,18.4942420125,62.0,84.0
38,18.4495173,19.763735775,64.0,84.0
39,19.550433299999998,19.924286025,60.0,85.0
40,19.2752043,20.00456115,55.0,78.0
41,18.4495173,20.0836894875,48.0,85.0
42,19.8256623,20.1559371,62.0,86.0
43,20.1008913,20.329102012499998,64.0,88.0
44,21.477036299999998,22.3027233,58.0,86.0
45,20.6513493,22.4403378,43.0,87.0
46,20.9265783,22.4850625125,50.0,81.0
47,21.2018073,22.543548675,55.0,82.0
48,22.0274943,22.6616677875,62.0,86.0
49,22.3027233,22.85776845,67.0,84.0
50,22.5779523,22.8715299,58.0,88.0
51,23.4036393,24.0446935125,60.0,91.0
52,23.9540973,24.4770324,67.0,88.0
53,24.2293263,24.5836836375,60.0,87.0
54,23.1284103,24.642169799999998,55.0,82.0
55,22.8531813,24.7167109875,48.0,88.0
56,23.678868299999998,25.0882701375,72.0,102.0
57,24.5045553,25.1226737625,64.0,87.0
58,24.7797843,25.123820549999998,67.0,87.0
59,25.605471299999998,26.2373512125,58.0,79.0
60,25.8807003,26.753405587499998,65.0,100.0
61,26.4311583,26.915102625,58.0,85.0
62,25.3302423,26.979322725,53.0,81.0
63,25.0550133,26.983909875,46.0,90.0
64,26.7063873,27.227028824999998,62.0,86.0
65,26.9816163,27.3107443125,65.0,85.0
66,27.532074299999998,28.3474402125,53.0,88.0
67,27.8073033,28.938035775,57.0,83.0
68,27.2568453,29.097439237499998,41.0,94.0
69,28.6329903,29.2476684,53.0,84.0
70,28.0825323,29.4735855375,65.0,94.0
71,29.1834483,29.502255225,57.0,88.0
72,28.9082193,29.5217506125,60.0,89.0
73,30.0091353,30.5400979125,55.0,82.0
74,30.2843643,30.965556075,67.0,91.0
75,30.2843643,31.249959375,58.0,93.0
76,29.458677299999998,31.277482275,43.0,88.0
77,29.7339063,31.31647305,50.0,84.0
78,30.8348223,31.417390349999998,55.0,84.0
79,31.385280299999998,31.4861976,58.0,84.0
80,31.385280299999998,31.525188375,67.0,76.0
81,31.1100513,31.56417915,62.0,88.0
82,32.2109673,32.839406849999996,55.0,86.0
83,32.486196299999996,33.1983513375,67.0,88.0
84,32.486196299999996,33.470139975,58.0,91.0
85,31.6605093,33.545827949999996,43.0,85.0
86,31.9357383,33.5836719375,50.0,87.0
87,33.0366543,33.644451675,55.0,85.0
88,33.5871123,33.727020375,58.0,70.0
89,33.5871123,33.8726623875,67.0,87.0
90,33.3118833,33.915093524999996,62.0,87.0
91,34.412799299999996,34.9644040875,53.0,85.0
92,34.6880283,35.6272472625,57.0,100.0
93,33.8623413,35.855457975,41.0,107.0
94,34.6880283,35.8634854875,65.0,91.0
95,35.2384863,35.865779062499996,53.0,88.0
96,34.1375703,35.88527445,48.0,84.0
97,35.5137153,36.07793475,60.0,88.0
98,36.0641733,37.8015563625,57.0,87.0
99,36.0641733,37.8267856875,65.0,92.0
100,36.0641733,37.8348132,41.0,87.0
101,36.0641733,37.841693925,53.0,86.0
102,38.266005299999996,38.598573675,65.0,86.0
103,38.266005299999996,38.6066011875,69.0,90.0
104,38.266005299999996,39.11462805,60.0,86.0
105,38.266005299999996,40.300406325,41.0,89.0
106,38.5412343,40.3176081375,48.0,71.0
107,38.8164633,40.3359567375,53.0,78.0
108,39.0916923,40.98618525,65.0,90.0
109,39.0916923,41.0458182,57.0,87.0
110,40.4678373,42.239623987499996,41.0,86.0
111,40.7430663,42.2763211875,48.0,77.0
112,41.0182953,42.4391650125,53.0,85.0
113,41.2935243,42.5217337125,57.0,88.0
114,41.2935243,42.7247151,65.0,94.0
115,43.2201273,44.5698961875,62.0,86.0
116,42.6696693,44.587098,50.0,92.0
117,42.9448983,44.896730625,57.0,87.0
118,43.4953563,44.9081985,64.0,87.0
119,43.4953563,45.0217304625,69.0,89.0
120,45.4219593,45.6065920875,72.0,84.0
121,45.4219593,45.644436075,74.0,87.0
122,46.2476463,46.52746245,62.0,87.0
123,45.1467303,46.5721871625,57.0,83.0
124,44.8715013,46.6868659125,50.0,84.0
125,46.5228753,47.1226451625,65.0,88.0
126,45.6971883,47.1524616375,69.0,92.0
127,47.6237913,49.0171381125,55.0,82.0
128,47.0733333,49.05039495,43.0,88.0
129,47.3485623,49.332504674999996,50.0,83.0
130,47.8990203,49.4804402625,58.0,84.0
131,47.8990203,49.864614075,67.0,88.0
132,49.2751653,51.158190375,43.0,85.0
133,49.8256233,51.185713275,55.0,83.0
134,49.5503943,51.202915087499996,50.0,81.0
135,50.1008523,51.5033734125,62.0,91.0
136,50.6513103,51.5744742375,67.0,88.0
137,52.0274553,52.76598645,60.0,83.0
138,51.4769973,53.394425999999996,48.0,87.0
139,53.1283713,53.447178225,60.0,76.0
140,51.7522263,53.6730953625,55.0,77.0
141,52.302684299999996,53.7579576375,62.0,87.0
142,52.302684299999996,53.82103095,67.0,87.0
143,53.4036003,54.2843331,64.0,73.0
144,54.229287299999996,54.83020395,60.0,81.0
145,54.5045163,54.8531397,62.0,93.0
146,54.5045163,55.057267875,67.0,104.0
147,54.7797453,55.1157540375,64.0,94.0
148,55.0549743,55.3428179625,60.0,98.0
149,53.9540583,55.38983625,55.0,78.0
150,53.6788293,55.449469199999996,48.0,86.0
151,55.3302033,55.89442275,67.0,114.0
152,55.8806613,56.059560149999996,69.0,86.0
153,55.8806613,56.6547428625,60.0,83.0
154,56.7063483,57.440292299999996,65.0,87.0
155,56.155890299999996,57.8359339875,48.0,74.0
156,55.8806613,57.8531358,41.0,84.0
157,56.4311193,57.8634568875,53.0,81.0
158,57.8072643,58.658180625,65.0,89.0
159,56.7063483,58.6696485,57.0,88.0
160,58.6329513,59.294647687499996,53.0,80.0
161,58.9081803,59.776298437499996,65.0,90.0
162,58.082493299999996,59.792353462499996,41.0,81.0
163,58.3577223,59.8129956375,48.0,78.0
164,59.4586383,59.9827201875,53.0,84.0
165,58.9081803,60.17882085,57.0,88.0
166,59.7338673,60.2923528125,60.0,86.0
167,60.009096299999996,60.402444412499996,65.0,88.0
168,60.8347833,61.4035899,62.0,87.0
169,61.1100123,61.69258035,64.0,100.0
170,61.1100123,61.745332575,69.0,98.0
171,61.6604703,62.2418915625,62.0,86.0
172,60.2843253,62.32560705,50.0,88.0
173,60.5595543,62.5308820125,57.0,79.0
174,62.2109283,62.585927812499996,74.0,98.0
175,62.2109283,62.818725674999996,65.0,94.0
176,63.0366153,63.1925784,62.0,84.0
177,62.7613863,63.4574863125,57.0,86.0
178,63.3118443,64.00450395,62.0,89.0
179,63.3118443,64.2109257,69.0,107.0
180,63.862302299999996,64.2304210875,57.0,81.0
181,62.4861573,64.2625311375,50.0,84.0
182,64.13753129999999,64.5767509125,65.0,104.0
183,64.4127603,64.97697975,62.0,89.0
184,65.2384473,65.8439511,55.0,81.0
185,65.5136763,66.3290422125,67.0,89.0
186,65.5136763,66.4322530875,58.0,91.0
187,66.06413429999999,66.6272069625,55.0,83.0
188,64.6879893,66.6501427125,43.0,87.0
189,66.3393633,66.89440845,62.0,88.0
190,64.9632183,66.9173442,50.0,85.0
191,66.8898213,67.57330664999999,67.0,91.0
192,66.8898213,67.7739944625,58.0,86.0
193,67.4402793,68.0366088,55.0,77.0
194,66.8898213,68.671929075,43.0,83.0
195,68.5411953,68.85770864999999,58.0,86.0
196,68.5411953,68.882937975,67.0,89.0
197,67.7155083,68.928809475,62.0,94.0
198,68.2659663,68.9299562625,55.0,84.0
199,69.0916533,69.3772033875,60.0,87.0
200,69.0916533,69.6432580875,64.0,88.0
201,69.0916533,69.667340625,67.0,88.0
202,69.6421113,70.1340831375,60.0,83.0
203,69.91734029999999,70.4001378375,62.0,91.0
204,69.91734029999999,70.5148165875,67.0,93.0
205,70.4677983,70.8978436125,60.0,84.0
206,69.3668823,70.97697194999999,55.0,80.0
207,69.0916533,71.0102287875,48.0,87.0
208,70.7430273,71.359998975,72.0,83.0
209,70.7430273,71.4024301125,64.0,84.0
210,71.84394329999999,72.3083922375,53.0,89.0
211,72.1191723,72.752199,65.0,91.0
212,72.1191723,72.795776925,57.0,91.0
213,72.6696303,73.185684675,53.0,85.0
214,71.2934853,73.2005929125,41.0,89.0
215,71.5687143,73.2854551875,48.0,83.0
216,73.2200883,73.3817853375,57.0,78.0
217,72.9448593,73.470087975,60.0,89.0
218,73.4953173,74.520545325,53.0,91.0
219,73.4953173,74.8611412125,57.0,86.0
220,73.4953173,74.92192095,65.0,88.0
221,73.4953173,74.993021775,60.0,81.0
222,73.4953173,75.245315025,41.0,88.0
223,74.8714623,75.3015076125,53.0,100.0
224,75.1466913,75.48155325,57.0,98.0
225,76.2476073,76.7808634875,55.0,94.0
226,76.5228363,77.18797305,67.0,88.0
227,76.5228363,77.419624125,58.0,106.0
228,77.0732943,77.6226055125,55.0,96.0
229,77.3485233,77.62375229999999,62.0,88.0
230,75.69714929999999,77.653568775,43.0,104.0
231,75.9723783,77.67421095,50.0,87.0
232,77.62375229999999,77.97696284999999,58.0,90.0
233,77.62375229999999,78.0331554375,67.0,82.0
234,78.4494393,79.015952325,60.0,87.0
235,78.7246683,79.4093004375,67.0,108.0
236,78.7246683,79.5870525,62.0,104.0
237,79.2751263,79.67420835,60.0,98.0
238,78.1742103,79.7923274625,55.0,81.0
239,77.8989813,79.83934574999999,48.0,98.0
240,79.55035529999999,80.0698500375,64.0,88.0
241,79.8255843,80.1363637125,67.0,88.0
242,80.6512713,81.1432431375,57.0,80.0
243,80.9265003,81.4437014625,69.0,87.0
244,80.9265003,81.5044812,62.0,88.0
245,80.9265003,81.5331508875,65.0,91.0
246,81.47695829999999,81.855398175,57.0,84.0
247,80.1008133,81.970076925,50.0,108.0
248,81.7521873,82.3152599625,69.0,102.0
249,82.0274163,82.34048928749999,65.0,87.0
250,81.7521873,82.35654431249999,62.0,102.0
251,82.5778743,83.3244329625,53.0,88.0
252,82.8531033,83.6340655875,65.0,87.0
253,82.8531033,83.671909575,57.0,89.0
254,83.1283323,83.70860677499999,60.0,108.0
255,82.3026453,84.1776428625,41.0,100.0
256,83.6787903,84.2441565375,53.0,96.0
257,83.9540193,84.323284875,57.0,102.0
258,83.9540193,84.5262662625,65.0,98.0
259,84.2292483,84.561816675,60.0,88.0
260,85.0549353,85.5492007125,55.0,96.0
261,85.33016429999999,85.9264938,67.0,94.0
262,85.33016429999999,86.0400257625,58.0,95.0
263,86.1558513,86.2625025375,58.0,79.0
264,84.7797063,86.40585097499999,50.0,86.0
265,84.5044773,86.4115849125,43.0,104.0
266,86.4310803,86.47236465,58.0,67.0
267,85.8806223,86.525116875,55.0,90.0
268,86.1558513,86.5354379625,67.0,87.0
269,86.1558513,86.570988375,62.0,100.0
270,86.7063093,87.34965708749999,67.0,98.0
271,86.7063093,87.46548262499999,58.0,90.0
272,87.5319963,87.584748525,58.0,81.0
273,87.25676729999999,87.71892266249999,55.0,83.0
274,87.5319963,88.08704145,67.0,104.0
275,87.5319963,88.1386468875,62.0,110.0
276,86.7063093,88.59162795,43.0,87.0
277,86.9815383,88.63405908749999,50.0,77.0
278,88.0824543,88.690251675,55.0,87.0
279,88.3576833,88.8840587625,58.0,103.0
280,88.3576833,88.919609175,67.0,107.0
281,89.4585993,89.96777295,57.0,100.0
282,89.7338283,90.29804775,60.0,107.0
283,89.7338283,90.3152495625,69.0,110.0
284,89.7338283,90.35309355,64.0,114.0
285,90.2842863,90.7441480875,57.0,93.0
286,88.9081413,90.8152489125,45.0,107.0
287,89.18337029999999,90.84965253749999,52.0,84.0
288,90.5595153,90.8863497375,60.0,108.0
289,90.5595153,90.9815331,69.0,104.0
290,90.8347443,91.0652485875,64.0,93.0
291,91.1099733,91.39552338749999,62.0,96.0
292,91.1099733,91.5835965375,65.0,104.0
293,91.1099733,91.603091925,69.0,93.0
294,91.6604313,92.0916234,62.0,89.0
295,91.9356603,92.57327415,65.0,113.0
296,91.9356603,92.607677775,74.0,107.0
297,92.4861183,92.7579069375,62.0,100.0
298,91.3852023,92.7854298375,57.0,86.0
299,92.6237328,92.8335949125,74.0,86.0
300,91.1099733,92.8427692125,50.0,96.0
301,92.7613473,93.043457025,69.0,113.0
302,92.8989618,93.0824478,65.0,86.0
303,93.3118053,93.5136399,70.0,103.0
304,93.3118053,93.8267128875,62.0,107.0
305,93.8622633,94.34391405,55.0,86.0
306,94.13749229999999,94.7556107625,58.0,100.0
307,94.13749229999999,94.7601979125,67.0,104.0
308,94.6879503,95.0583626625,55.0,86.0
309,93.3118053,95.2659312,43.0,90.0
310,94.9631793,95.2659312,67.0,98.0
311,93.5870343,95.3221237875,50.0,82.0
312,94.9631793,95.4505639875,62.0,108.0
313,95.2384083,95.4643254375,55.0,86.0
314,95.5136373,95.82097635,60.0,91.0
315,95.5136373,96.0491870625,64.0,104.0
316,95.5136373,96.07785675,67.0,98.0
317,96.06409529999999,96.456296625,60.0,91.0
318,96.3393243,96.8404704375,64.0,102.0
319,96.3393243,96.8656997625,72.0,102.0
320,96.3393243,96.89436945,67.0,113.0
321,96.8897823,97.222350675,60.0,92.0
322,95.7888663,97.281983625,55.0,81.0
323,95.5136373,97.3312954875,48.0,88.0
324,97.4402403,97.75675365,67.0,94.0
325,97.1650113,97.7624875875,72.0,93.0
326,97.1650113,97.777395825,64.0,104.0
327,97.7154693,97.777395825,64.0,104.0
328,97.7154693,98.26363372499999,60.0,98.0
329,97.7154693,98.2968905625,69.0,104.0
330,98.2659273,98.74757805,57.0,84.0
331,98.5411563,99.0812932125,60.0,113.0
332,98.5411563,99.139779375,69.0,113.0
333,99.3668433,99.447118425,60.0,107.0
334,97.7154693,99.5216596125,45.0,93.0
335,97.99069829999999,99.5400082125,52.0,80.0
336,99.0916143,99.5858797125,57.0,107.0
337,99.3668433,99.76019141249999,69.0,102.0
338,99.3668433,99.78427395,64.0,110.0
339,99.91730129999999,100.4803739625,69.0,104.0
340,99.91730129999999,100.4941354125,65.0,114.0
341,99.91730129999999,100.502162925,62.0,108.0
342,100.4677593,101.029685175,57.0,87.0
343,100.7429883,101.39436359999999,62.0,114.0
344,100.7429883,101.4161525625,69.0,113.0
345,101.2934463,101.6179871625,57.0,86.0
346,99.91730129999999,101.62830825,50.0,98.0
347,101.5686753,101.6500972125,62.0,83.0
348,101.5686753,101.777390625,65.0,113.0
349,101.7062898,101.983812375,62.0,81.0
350,102.1191333,102.67417845,67.0,108.0
351,102.1191333,102.8473433625,58.0,106.0
352,102.6695913,103.05147153749999,55.0,82.0
353,102.9448203,103.3289941125,67.0,108.0
354,102.9448203,103.4711957625,62.0,110.0
355,102.1191333,104.0182134,43.0,88.0
356,102.3943623,104.04688308749999,50.0,82.0
357,103.77050729999999,104.0721124125,58.0,100.0
358,103.4952783,104.0732592,55.0,87.0
359,103.77050729999999,104.217754425,67.0,104.0
360,104.3209653,104.7945885375,67.0,94.0
361,104.3209653,104.8771572375,58.0,90.0
362,104.3209653,104.91385443749999,62.0,104.0
363,104.8714233,105.355367625,55.0,85.0
364,105.1466523,105.6615598875,67.0,108.0
365,105.1466523,105.8805963,58.0,93.0
366,104.3209653,106.1248620375,43.0,92.0
367,104.5961943,106.21545825,50.0,83.0
368,105.9723393,106.238394,58.0,81.0
369,105.9723393,106.263623325,67.0,92.0
370,105.69711029999999,106.2991737375,55.0,88.0
371,105.9723393,106.3129351875,62.0,89.0
372,106.5227973,107.09619105,69.0,104.0
373,106.5227973,107.1065121375,64.0,110.0
374,106.5227973,107.10995249999999,60.0,98.0
375,107.0732553,107.59160324999999,57.0,83.0
376,107.3484843,107.92187805,60.0,89.0
377,107.3484843,107.93105235,69.0,91.0
378,107.3484843,107.951694525,64.0,102.0
379,107.8989423,108.447106725,57.0,84.0
380,106.5227973,108.4769232,45.0,89.0
381,108.1741713,108.5147671875,69.0,87.0
382,106.7980263,108.5193543375,52.0,75.0
383,108.1741713,108.55834511249999,60.0,91.0
384,108.1741713,108.6019230375,64.0,96.0
385,108.7246293,110.428755525,69.0,90.0
386,108.7246293,110.437929825,64.0,94.0
387,108.7246293,110.45398485,57.0,87.0
388,108.7246293,110.4597187875,52.0,82.0
389,108.7246293,110.49756277499999,45.0,88.0
390,108.7246293,110.5227921,60.0,91.0
391,110.9264613,111.7326529125,58.0,89.0
392,110.9264613,111.795726225,67.0,102.0
393,110.9264613,111.9436618125,43.0,87.0
394,110.9264613,111.9551296875,55.0,88.0
395,110.9264613,111.983799375,62.0,93.0
396,112.0273773,112.7991652875,48.0,89.0
397,112.0273773,112.82554139999999,67.0,92.0
398,112.0273773,112.84389,64.0,98.0
399,112.0273773,113.6546687625,60.0,88.0
400,113.1282933,113.66384306249999,65.0,93.0
401,113.1282933,113.681044875,57.0,88.0
402,113.9539803,114.281961525,55.0,91.0
403,113.6787513,114.3037504875,53.0,86.0
404,114.2292093,114.5503098,57.0,88.0
405,113.9539803,114.55489695,60.0,89.0
406,114.7796673,114.846180975,57.0,96.0
407,114.5044383,115.08929992499999,53.0,89.0
408,113.1282933,115.171868625,41.0,87.0
409,114.7796673,115.1776025625,65.0,92.0
410,113.40352229999999,115.2108594,48.0,73.0
411,115.33012529999999,116.8312701375,41.0,87.0
412,115.33012529999999,116.8381508625,48.0,84.0
413,115.33012529999999,116.846178375,57.0,89.0
414,115.33012529999999,116.84847195,53.0,89.0
415,115.33012529999999,116.86682055,65.0,88.0
416,115.0548963,116.9253067125,60.0,87.0
417,117.5319573,118.0009933875,67.0,92.0
418,117.5319573,118.07209421249999,58.0,89.0
419,117.5319573,118.1317271625,62.0,87.0
420,118.0824153,118.598469675,55.0,86.0
421,118.3576443,118.8863133375,58.0,91.0
422,118.3576443,118.9115426625,67.0,102.0
423,118.3576443,118.97805633749999,62.0,107.0
424,118.9081023,119.3209458,55.0,87.0
425,117.5319573,119.4321841875,43.0,89.0
426,117.8071863,119.48149605,50.0,85.0
427,119.18333129999999,119.4860832,58.0,90.0
428,119.18333129999999,119.580119775,67.0,87.0
429,119.18333129999999,119.68333065,62.0,91.0
430,120.0090183,120.690210075,55.0,79.0
431,120.2842473,121.0881453375,60.0,90.0
432,120.2842473,121.10649393749999,67.0,94.0
433,120.2842473,121.135163625,64.0,102.0
434,121.10993429999999,121.5445667625,55.0,87.0
435,119.7337893,121.55488785,48.0,98.0
436,121.3851633,121.983786375,67.0,96.0
437,121.3851633,122.00901569999999,60.0,100.0
438,121.3851633,122.03768538749999,64.0,104.0
439,121.9356213,122.6569506375,65.0,100.0
440,121.9356213,122.6684185125,58.0,87.0
441,121.9356213,122.7028221375,62.0,98.0
442,121.9356213,123.0904363125,46.0,87.0
443,122.7613083,123.3289681125,58.0,93.0
444,122.7613083,123.3312616875,65.0,107.0
445,122.7613083,123.4046560875,62.0,98.0
446,123.3117663,123.658096125,46.0,86.0
447,123.5869953,123.859930725,58.0,93.0
448,123.5869953,123.8897472,65.0,92.0
449,123.5869953,124.02850848749999,62.0,107.0
450,124.1374533,124.81864507499999,65.0,96.0
451,124.1374533,124.8519019125,57.0,91.0
452,124.1374533,124.8587826375,60.0,94.0
453,124.6879113,125.2108464,53.0,85.0
454,124.96314029999999,125.49295612499999,57.0,89.0
455,124.96314029999999,125.5353872625,60.0,94.0
456,124.96314029999999,125.53768083749999,65.0,89.0
457,124.1374533,126.06864345,41.0,94.0
458,125.7888273,126.1202488875,57.0,100.0
459,125.5135983,126.1913497125,53.0,86.0
460,125.7888273,126.217725825,65.0,89.0
461,126.3392853,126.5778171,55.0,91.0
462,126.3392853,126.625982175,58.0,91.0
463,126.3392853,126.6684133125,62.0,91.0
464,126.88974329999999,127.46772419999999,55.0,83.0
465,127.1649723,127.706256,67.0,100.0
466,127.1649723,127.7395128375,58.0,91.0
467,127.1649723,127.7613018,62.0,100.0
468,126.3392853,128.2188700125,43.0,91.0
469,126.6145143,128.2291911,50.0,85.0
470,127.9906593,128.29455798749999,58.0,89.0
471,127.7154303,128.428732125,55.0,86.0
472,127.9906593,128.44478715,67.0,92.0
473,128.2658883,128.4757504125,62.0,84.0
474,128.5411173,129.0674927625,67.0,86.0
475,128.5411173,129.16152933749999,62.0,87.0
476,128.5411173,129.190199025,58.0,86.0
477,129.0915753,129.4872169875,55.0,72.0
478,129.36680429999998,129.8450146875,67.0,91.0
479,129.36680429999998,129.89432655,62.0,89.0
480,129.36680429999998,129.93102375,58.0,83.0
481,128.5411173,130.2165738375,43.0,85.0
482,130.0548768,130.3106104125,58.0,85.0
483,129.9172623,130.4161148625,55.0,78.0
484,130.1924913,130.46313315,67.0,81.0
485,130.1924913,130.635151275,62.0,87.0
486,130.7429493,131.3748292125,69.0,91.0
487,130.7429493,131.4138199875,60.0,88.0
488,130.7429493,131.42184749999998,64.0,102.0
489,131.5686363,132.125975025,60.0,87.0
490,131.5686363,132.1649658,64.0,91.0
491,131.5686363,132.1741401,69.0,91.0
492,132.3943233,132.5055616875,60.0,86.0
493,132.1190943,132.6340018875,57.0,83.0
494,131.29340729999998,132.6454697625,52.0,65.0
495,130.7429493,132.667258725,45.0,90.0
496,132.3943233,132.7005155625,64.0,87.0
497,132.3943233,132.7142770125,69.0,87.0
498,132.9447813,133.658083125,69.0,90.0
499,132.9447813,133.6752849375,62.0,88.0
500,132.9447813,133.7051014125,65.0,89.0
501,133.6328538,133.8840002625,57.0,76.0
502,133.7704683,134.3266602375,62.0,92.0
503,133.7704683,134.3587702875,65.0,92.0
504,133.7704683,134.359917075,69.0,89.0
505,134.3209263,134.6156506875,57.0,79.0
506,132.9447813,134.658081825,50.0,87.0
507,134.5961553,134.6615221875,69.0,85.0
508,134.5961553,134.72000835,65.0,88.0
509,134.5961553,135.01817309999998,62.0,89.0
510,135.14661329999998,135.8220711375,67.0,88.0
511,135.14661329999998,135.8346858,58.0,88.0
512,135.14661329999998,135.88514444999998,62.0,92.0
513,135.6970713,136.1523459375,55.0,79.0
514,135.9723003,136.5101436375,67.0,94.0
515,135.9723003,136.529639025,58.0,87.0
516,135.9723003,136.53651975,62.0,89.0
517,135.14661329999998,136.9115192625,43.0,86.0
518,136.5227583,136.9711522125,55.0,82.0
519,136.7979873,137.02161086249998,58.0,86.0
520,136.7979873,137.213124375,67.0,90.0
521,136.7979873,137.222298675,62.0,91.0
522,137.3484453,137.6225275125,60.0,90.0
523,137.3484453,137.8289492625,67.0,93.0
524,137.3484453,137.846151075,64.0,100.0
525,137.8989033,138.3794072625,60.0,81.0
526,138.1741323,138.7739021625,64.0,104.0
527,138.1741323,138.8174800875,72.0,104.0
528,138.7245903,139.0261954125,60.0,86.0
529,137.6236743,139.0720669125,55.0,84.0
530,137.3484453,139.1179384125,48.0,87.0
531,138.99981929999998,139.144314525,64.0,89.0
532,138.99981929999998,139.295690475,72.0,90.0
533,138.99981929999998,139.419543525,67.0,94.0
534,139.5502773,140.11105638749999,69.0,93.0
535,139.5502773,140.13628571249998,60.0,88.0
536,139.5502773,140.176423275,64.0,96.0
537,140.3759643,140.9505048375,60.0,88.0
538,140.3759643,140.98605525,64.0,89.0
539,140.3759643,140.99522955,69.0,90.0
540,139.5502773,141.4092198375,45.0,90.0
541,140.1007353,141.465412425,52.0,75.0
542,141.2016513,141.5651829375,69.0,100.0
543,140.92642229999998,141.6339901875,57.0,78.0
544,141.2016513,141.648898425,64.0,108.0
545,141.7521093,142.392016725,62.0,88.0
546,141.7521093,142.3954570875,69.0,90.0
547,141.7521093,142.424126775,65.0,91.0
548,142.3025673,142.8587592375,57.0,78.0
549,142.5777963,143.291098125,69.0,92.0
550,143.1282543,143.4413272875,57.0,88.0
551,141.7521093,143.4711437625,50.0,86.0
552,143.4034833,143.5032538125,69.0,73.0
553,143.4034833,143.5961436,65.0,102.0
554,142.5777963,143.896601925,62.0,104.0
555,143.9539413,144.5147203875,58.0,95.0
556,143.9539413,144.534215775,67.0,94.0
557,143.9539413,144.676417425,62.0,94.0
558,144.5043993,144.89545383749999,55.0,80.0
559,144.77962829999998,145.1913250125,67.0,110.0
560,144.77962829999998,145.3105909125,62.0,104.0
561,143.9539413,145.7165536875,43.0,88.0
562,145.1924718,145.7647187625,55.0,86.0
563,145.6053153,145.9000396875,58.0,109.0
564,145.6053153,146.05944315,67.0,98.0
565,145.8805443,146.0628835125,62.0,68.0
566,146.1557733,146.6523322875,67.0,80.0
567,146.1557733,146.685589125,62.0,81.0
568,146.1557733,146.717699175,58.0,84.0
569,146.9814603,147.359900175,62.0,81.0
570,146.9814603,147.433294575,67.0,88.0
571,146.9814603,147.4711385625,58.0,86.0
572,146.70623129999998,147.7555418625,50.0,70.0
573,146.1557733,147.791092275,43.0,85.0
574,147.8071473,148.18329359999998,48.0,80.0
575,147.8071473,148.27044945,67.0,86.0
576,147.8071473,148.291091625,64.0,92.0
577,147.8071473,148.4218254,60.0,87.0
578,148.63283429999998,149.40806265,53.0,84.0
579,149.1832923,150.0995755125,65.0,108.0
580,148.9080633,150.1156305375,57.0,88.0
581,148.3576053,150.2624193375,41.0,87.0
582,149.7337503,150.2670064875,53.0,85.0
583,150.0089793,150.4665475125,60.0,86.0
584,150.55943729999998,151.74062842499998,57.0,84.0
585,150.55943729999998,151.7670045375,53.0,84.0
586,150.55943729999998,151.800261375,41.0,87.0
587,150.55943729999998,151.814022825,60.0,76.0
588,150.55943729999998,151.8358117875,65.0,86.0
589,152.7612693,153.093837675,65.0,86.0
590,152.7612693,153.1018651875,69.0,90.0
591,152.7612693,153.60989204999998,60.0,86.0
592,152.7612693,154.795670325,41.0,89.0
593,153.0364983,154.8128721375,48.0,71.0
594,153.3117273,154.8312207375,53.0,78.0
595,153.5869563,155.48144925,65.0,90.0
596,153.5869563,155.5410822,57.0,87.0
597,154.9631013,156.7348879875,41.0,86.0
598,155.2383303,156.7715851875,48.0,77.0
599,155.5135593,156.9344290125,53.0,85.0
600,155.7887883,157.0169977125,57.0,88.0
601,155.7887883,157.2199791,65.0,94.0
602,157.7153913,159.0651601875,62.0,86.0
603,157.1649333,159.082362,50.0,92.0
604,157.4401623,159.391994625,57.0,87.0
605,157.9906203,159.4034625,64.0,87.0
606,157.9906203,159.5169944625,69.0,89.0
607,159.9172233,160.1018560875,72.0,84.0
608,159.9172233,160.139700075,74.0,87.0
609,160.7429103,161.02272645,62.0,87.0
610,159.6419943,161.0674511625,57.0,83.0
611,159.3667653,161.1821299125,50.0,84.0
612,161.0181393,161.61790916249998,65.0,88.0
613,160.19245229999999,161.6477256375,69.0,92.0
614,162.11905529999999,163.51240211249998,55.0,82.0
615,161.5685973,163.54565895,43.0,88.0
616,161.8438263,163.827768675,50.0,83.0
617,162.3942843,163.9757042625,58.0,84.0
618,162.3942843,164.35987807499998,67.0,88.0
619,163.7704293,165.653454375,43.0,85.0
620,164.3208873,165.680977275,55.0,83.0
621,164.04565829999999,165.6981790875,50.0,81.0
622,164.5961163,165.9986374125,62.0,91.0
623,165.1465743,166.0697382375,67.0,88.0
624,166.5227193,167.26125045,60.0,83.0
625,165.97226129999999,167.88969,48.0,87.0
626,167.6236353,167.942442225,60.0,76.0
627,166.2474903,168.16835936249998,55.0,77.0
628,166.7979483,168.2532216375,62.0,87.0
629,166.7979483,168.31629494999999,67.0,87.0
630,167.89886429999999,168.7795971,64.0,73.0
631,168.7245513,169.32546795,60.0,81.0
632,168.9997803,169.3484037,62.0,93.0
633,168.9997803,169.552531875,67.0,104.0
634,169.2750093,169.6110180375,64.0,94.0
635,169.5502383,169.83808196249998,60.0,98.0
636,168.4493223,169.88510025,55.0,78.0
637,168.1740933,169.9447332,48.0,86.0
638,169.82546729999999,170.38968675,67.0,114.0
639,170.3759253,170.55482415,69.0,86.0
640,170.3759253,171.1500068625,60.0,83.0
641,171.2016123,171.9355563,65.0,87.0
642,170.6511543,172.3311979875,48.0,74.0
643,170.3759253,172.3483998,41.0,84.0
644,170.9263833,172.3587208875,53.0,81.0
645,172.3025283,173.153444625,65.0,89.0
646,171.2016123,173.16491249999999,57.0,88.0
647,173.1282153,173.7899116875,53.0,80.0
648,173.4034443,174.2715624375,65.0,90.0
649,172.5777573,174.2876174625,41.0,81.0
650,172.8529863,174.3082596375,48.0,78.0
651,173.9539023,174.4779841875,53.0,84.0
652,173.4034443,174.67408484999999,57.0,88.0
653,174.2291313,174.7876168125,60.0,86.0
654,174.5043603,174.8977084125,65.0,88.0
655,175.3300473,175.8988539,62.0,87.0
656,175.60527629999999,176.18784435,64.0,100.0
657,175.60527629999999,176.24059657499998,69.0,98.0
658,176.1557343,176.7371555625,62.0,86.0
659,174.7795893,176.82087105,50.0,88.0
660,175.0548183,177.0261460125,57.0,79.0
661,176.7061923,177.0811918125,74.0,98.0
662,176.7061923,177.313989675,65.0,94.0
663,177.53187929999999,177.6878424,62.0,84.0
664,177.2566503,177.9527503125,57.0,86.0
665,177.8071083,178.49976795,62.0,89.0
666,177.8071083,178.7061897,69.0,107.0
667,178.3575663,178.72568508749998,57.0,81.0
668,176.9814213,178.75779513749998,50.0,84.0
669,178.6327953,179.0720149125,65.0,104.0
670,178.9080243,179.47224375,62.0,89.0
671,179.7337113,180.3392151,55.0,81.0
672,180.0089403,180.8243062125,67.0,89.0
673,180.0089403,180.9275170875,58.0,91.0
674,180.5593983,181.1224709625,55.0,83.0
675,179.1832533,181.1454067125,43.0,87.0
676,180.8346273,181.38967245,62.0,88.0
677,179.4584823,181.4126082,50.0,85.0
678,181.3850853,182.06857065,67.0,91.0
679,181.3850853,182.2692584625,58.0,86.0
680,181.9355433,182.5318728,55.0,77.0
681,181.3850853,183.167193075,43.0,83.0
682,183.0364593,183.35297265,58.0,86.0
683,183.0364593,183.378201975,67.0,89.0
684,182.2107723,183.424073475,62.0,94.0
685,182.7612303,183.4252202625,55.0,84.0
686,183.5869173,183.8724673875,60.0,87.0
687,183.5869173,184.1385220875,64.0,88.0
688,183.5869173,184.162604625,67.0,88.0
689,184.1373753,184.6293471375,60.0,83.0
690,184.4126043,184.8954018375,62.0,91.0
691,184.4126043,185.0100805875,67.0,93.0
692,184.9630623,185.3931076125,60.0,84.0
693,183.8621463,185.47223595,55.0,80.0
694,183.5869173,185.5054927875,48.0,87.0
695,185.2382913,185.855262975,72.0,83.0
696,185.2382913,185.8976941125,64.0,84.0
697,186.3392073,186.8036562375,53.0,89.0
698,186.6144363,187.247463,65.0,91.0
699,186.6144363,187.291040925,57.0,91.0
700,187.1648943,187.680948675,53.0,85.0
701,185.7887493,187.6958569125,41.0,89.0
702,186.0639783,187.78071918749998,48.0,83.0
703,187.7153523,187.87704933749998,57.0,78.0
704,187.4401233,187.965351975,60.0,89.0
705,187.9905813,189.015809325,53.0,91.0
706,187.9905813,189.3564052125,57.0,86.0
707,187.9905813,189.41718495,65.0,88.0
708,187.9905813,189.488285775,60.0,81.0
709,187.9905813,189.740579025,41.0,88.0
710,189.36672629999998,189.7967716125,53.0,100.0
711,189.6419553,189.97681724999998,57.0,98.0
712,190.7428713,191.2761274875,55.0,94.0
713,191.0181003,191.68323705,67.0,88.0
714,191.0181003,191.914888125,58.0,106.0
715,191.5685583,192.1178695125,55.0,96.0
716,191.8437873,192.1190163,62.0,88.0
717,190.1924133,192.148832775,43.0,104.0
718,190.4676423,192.16947495,50.0,87.0
719,192.1190163,192.47222685,58.0,90.0
720,192.1190163,192.5284194375,67.0,82.0
721,192.9447033,193.511216325,60.0,87.0
722,193.21993229999998,193.9045644375,67.0,108.0
723,193.21993229999998,194.0823165,62.0,104.0
724,193.7703903,194.16947235,60.0,98.0
725,192.6694743,194.2875914625,55.0,81.0
726,192.3942453,194.33460975,48.0,98.0
727,194.0456193,194.5651140375,64.0,88.0
728,194.3208483,194.6316277125,67.0,88.0
729,195.14653529999998,195.6385071375,57.0,80.0
730,195.4217643,195.9389654625,69.0,87.0
731,195.4217643,195.9997452,62.0,88.0
732,195.4217643,196.0284148875,65.0,91.0
733,195.9722223,196.350662175,57.0,84.0
734,194.5960773,196.465340925,50.0,108.0
735,196.2474513,196.81052396249999,69.0,102.0
736,196.5226803,196.83575328749998,65.0,87.0
737,196.2474513,196.8518083125,62.0,102.0
738,197.07313829999998,197.8196969625,53.0,88.0
739,197.3483673,198.1293295875,65.0,87.0
740,197.3483673,198.167173575,57.0,89.0
741,197.6235963,198.20387077499998,60.0,108.0
742,196.7979093,198.67290686249999,41.0,100.0
743,198.1740543,198.7394205375,53.0,96.0
744,198.4492833,198.818548875,57.0,102.0
745,198.4492833,199.0215302625,65.0,98.0
746,198.7245123,199.057080675,60.0,88.0
747,199.5501993,200.0444647125,55.0,96.0
748,199.8254283,200.4217578,67.0,94.0
749,199.8254283,200.53528976249999,58.0,95.0
750,200.6511153,200.7577665375,58.0,79.0
751,199.2749703,200.90111497499998,50.0,86.0
752,198.99974129999998,200.9068489125,43.0,104.0
753,200.92634429999998,200.96762865,58.0,67.0
754,200.3758863,201.020380875,55.0,90.0
755,200.6511153,201.0307019625,67.0,87.0
756,200.6511153,201.066252375,62.0,100.0
757,201.2015733,201.84492108749998,67.0,98.0
758,201.2015733,201.96074662499998,58.0,90.0
759,202.0272603,202.080012525,58.0,81.0
760,201.7520313,202.2141866625,55.0,83.0
761,202.0272603,202.58230545,67.0,104.0
762,202.0272603,202.6339108875,62.0,110.0
763,201.2015733,203.08689195,43.0,87.0
764,201.4768023,203.12932308749998,50.0,77.0
765,202.5777183,203.185515675,55.0,87.0
766,202.85294729999998,203.3793227625,58.0,103.0
767,202.85294729999998,203.414873175,67.0,107.0
768,203.9538633,204.46303695,57.0,100.0
769,204.2290923,204.79331175,60.0,107.0
770,204.2290923,204.8105135625,69.0,110.0
771,204.2290923,204.84835755,64.0,114.0
772,204.77955029999998,205.2394120875,57.0,93.0
773,203.4034053,205.3105129125,45.0,107.0
774,203.6786343,205.34491653749998,52.0,84.0
775,205.0547793,205.3816137375,60.0,108.0
776,205.0547793,205.4767971,69.0,104.0
777,205.3300083,205.5605125875,64.0,93.0
778,205.6052373,205.89078738749998,62.0,96.0
779,205.6052373,206.0788605375,65.0,104.0
780,205.6052373,206.098355925,69.0,93.0
781,206.1556953,206.5868874,62.0,89.0
782,206.4309243,207.06853815,65.0,113.0
783,206.4309243,207.102941775,74.0,107.0
784,206.9813823,207.2531709375,62.0,100.0
785,205.8804663,207.2806938375,57.0,86.0
786,207.1189968,207.32885891249998,74.0,86.0
787,205.6052373,207.3380332125,50.0,96.0
788,207.2566113,207.538721025,69.0,113.0
789,207.3942258,207.5777118,65.0,86.0
790,207.8070693,208.0089039,70.0,103.0
791,207.8070693,208.3219768875,62.0,107.0
792,208.3575273,208.83917805,55.0,86.0
793,208.63275629999998,209.2508747625,58.0,100.0
794,208.63275629999998,209.25546191249998,67.0,104.0
795,209.1832143,209.5536266625,55.0,86.0
796,207.8070693,209.7611952,43.0,90.0
797,209.4584433,209.7611952,67.0,98.0
798,208.0822983,209.8173877875,50.0,82.0
799,209.4584433,209.9458279875,62.0,108.0
800,209.7336723,209.9595894375,55.0,86.0
801,210.0089013,210.31624035,60.0,91.0
802,210.0089013,210.5444510625,64.0,104.0
803,210.0089013,210.57312075,67.0,98.0
804,210.55935929999998,210.95156062499998,60.0,91.0
805,210.8345883,211.3357344375,64.0,102.0
806,210.8345883,211.3609637625,72.0,102.0
807,210.8345883,211.38963345,67.0,113.0
808,211.3850463,211.717614675,60.0,92.0
809,210.2841303,211.777247625,55.0,81.0
810,210.0089013,211.8265594875,48.0,88.0
811,211.9355043,212.25201765,67.0,94.0
812,211.6602753,212.2577515875,72.0,93.0
813,211.6602753,212.272659825,64.0,104.0
814,212.2107333,212.272659825,64.0,104.0
815,212.2107333,212.758897725,60.0,98.0
816,212.2107333,212.7921545625,69.0,104.0
817,212.7611913,213.24284205,57.0,84.0
818,213.0364203,213.5765572125,60.0,113.0
819,213.0364203,213.635043375,69.0,113.0
820,213.8621073,213.942382425,60.0,107.0
821,212.2107333,214.0169236125,45.0,93.0
822,212.48596229999998,214.0352722125,52.0,80.0
823,213.5868783,214.0811437125,57.0,107.0
824,213.8621073,214.2554554125,69.0,102.0
825,213.8621073,214.27953795,64.0,110.0
826,214.41256529999998,214.9756379625,69.0,104.0
827,214.41256529999998,214.9893994125,65.0,114.0
828,214.41256529999998,214.99742692499998,62.0,108.0
829,214.9630233,215.524949175,57.0,87.0
830,215.2382523,215.88962759999998,62.0,114.0
831,215.2382523,215.9114165625,69.0,113.0
832,215.7887103,216.1132511625,57.0,86.0
833,214.41256529999998,216.12357225,50.0,98.0
834,216.0639393,216.1453612125,62.0,83.0
835,216.0639393,216.272654625,65.0,113.0
836,216.2015538,216.479076375,62.0,81.0
837,216.6143973,217.16944245,67.0,108.0
838,216.6143973,217.3426073625,58.0,106.0
839,217.1648553,217.54673553749998,55.0,82.0
840,217.4400843,217.8242581125,67.0,108.0
841,217.4400843,217.9664597625,62.0,110.0
842,216.6143973,218.5134774,43.0,88.0
843,216.8896263,218.54214708749998,50.0,82.0
844,218.26577129999998,218.56737641249998,58.0,100.0
845,217.9905423,218.5685232,55.0,87.0
846,218.26577129999998,218.713018425,67.0,104.0
847,218.8162293,219.2898525375,67.0,94.0
848,218.8162293,219.3724212375,58.0,90.0
849,218.8162293,219.40911843749998,62.0,104.0
850,219.3666873,219.850631625,55.0,85.0
851,219.6419163,220.1568238875,67.0,108.0
852,219.6419163,220.3758603,58.0,93.0
853,218.8162293,220.6201260375,43.0,92.0
854,219.0914583,220.71072225,50.0,83.0
855,220.4676033,220.733658,58.0,81.0
856,220.4676033,220.758887325,67.0,92.0
857,220.19237429999998,220.7944377375,55.0,88.0
858,220.4676033,220.8081991875,62.0,89.0
859,221.0180613,221.59145505,69.0,104.0
860,221.0180613,221.6017761375,64.0,110.0
861,221.0180613,221.60521649999998,60.0,98.0
862,221.5685193,222.08686724999998,57.0,83.0
863,221.8437483,222.41714205,60.0,89.0
864,221.8437483,222.42631635,69.0,91.0
865,221.8437483,222.44695852499999,64.0,102.0
866,222.3942063,222.942370725,57.0,84.0
867,221.0180613,222.9721872,45.0,89.0
868,222.6694353,223.0100311875,69.0,87.0
869,221.2932903,223.0146183375,52.0,75.0
870,222.6694353,223.0536091125,60.0,91.0
871,222.6694353,223.0971870375,64.0,96.0
872,223.2198933,224.924019525,69.0,90.0
873,223.2198933,224.933193825,64.0,94.0
874,223.2198933,224.94924885,57.0,87.0
875,223.2198933,224.9549827875,52.0,82.0
876,223.2198933,224.992826775,45.0,88.0
877,223.2198933,225.0180561,60.0,91.0
878,225.4217253,226.2279169125,58.0,89.0
879,225.4217253,226.290990225,67.0,102.0
880,225.4217253,226.4389258125,43.0,87.0
881,225.4217253,226.4503936875,55.0,88.0
882,225.4217253,226.47906337499998,62.0,93.0
883,226.5226413,227.2944292875,48.0,89.0
884,226.5226413,227.32080539999998,67.0,92.0
885,226.5226413,227.339154,64.0,98.0
886,226.5226413,228.1499327625,60.0,88.0
887,227.6235573,228.1591070625,65.0,93.0
888,227.6235573,228.176308875,57.0,88.0
889,228.4492443,228.777225525,55.0,91.0
890,228.1740153,228.7990144875,53.0,86.0
891,228.7244733,229.0455738,57.0,88.0
892,228.4492443,229.05016095,60.0,89.0
893,229.2749313,229.341444975,57.0,96.0
894,228.9997023,229.584563925,53.0,89.0
895,227.6235573,229.667132625,41.0,87.0
896,229.2749313,229.6728665625,65.0,92.0
897,227.89878629999998,229.7061234,48.0,73.0
898,229.82538929999998,231.3265341375,41.0,87.0
899,229.82538929999998,231.3334148625,48.0,84.0
900,229.82538929999998,231.34144237499999,57.0,89.0
901,229.82538929999998,231.34373595,53.0,89.0
902,229.82538929999998,231.36208455,65.0,88.0
903,229.5501603,231.4205707125,60.0,87.0
904,232.0272213,232.4274501375,70.0,103.0
905,232.0272213,232.437771225,62.0,102.0
906,232.0272213,232.437771225,67.0,110.0
907,232.0272213,232.4480923125,43.0,94.0
908,233.4033663,233.6453384625,67.0,110.0
909,233.4033663,233.6499256125,43.0,93.0
910,233.4033663,233.65909991249998,70.0,106.0
911,233.4033663,233.6705677875,62.0,104.0
912,233.4033663,233.6728613625,55.0,96.0
913,233.9538243,234.84143782499999,48.0,93.0
914,233.9538243,235.0558870875,60.0,92.0
915,233.9538243,235.12354754999998,64.0,104.0
916,233.9538243,235.12354754999998,67.0,102.0
917,235.0547403,235.5054277875,48.0,93.0
918,235.8804273,235.97790423749998,48.0,104.0
919,235.3299693,236.0444179125,67.0,110.0
920,235.3299693,236.0730876,60.0,107.0
921,235.3299693,236.07996832499998,64.0,116.0
922,236.4308853,236.78638942499998,58.0,93.0
923,236.4308853,237.06276521249998,70.0,103.0
924,236.4308853,237.0765266625,65.0,100.0
925,236.4308853,237.07767345,62.0,96.0
926,236.9813433,237.4859298,58.0,87.0
927,236.4308853,237.488223375,46.0,86.0
928,237.2565723,237.8437275,62.0,107.0
929,237.2565723,237.855195375,65.0,114.0
930,237.2565723,237.855195375,70.0,106.0
931,237.8070303,238.1843233875,46.0,106.0
932,238.0822593,238.3586350875,70.0,106.0
933,238.0822593,238.3941855,62.0,108.0
934,238.0822593,238.49051565,65.0,114.0
935,238.6327173,239.0696433375,65.0,108.0
936,238.6327173,239.2439550375,69.0,108.0
937,238.6327173,239.249688975,60.0,92.0
938,239.1831753,239.667119625,53.0,100.0
939,239.45840429999998,240.01344945,60.0,107.0
940,239.45840429999998,240.02377053749998,65.0,113.0
941,239.45840429999998,240.0260641125,69.0,100.0
942,240.0088623,240.2840913,53.0,114.0
943,240.2840913,240.4526690625,65.0,104.0
944,240.2840913,240.49854056249998,69.0,88.0
945,240.2840913,240.5398249125,60.0,102.0
946,238.6327173,240.5467056375,41.0,96.0
947,240.5593203,240.73821915,53.0,88.0
948,240.8345493,241.3609247625,67.0,113.0
949,240.8345493,241.373539425,62.0,108.0
950,240.8345493,241.451520975,58.0,106.0
951,241.6602363,242.1178045125,58.0,95.0
952,241.6602363,242.162529225,67.0,110.0
953,241.6602363,242.1739971,62.0,108.0
954,242.2106943,242.5191801375,55.0,88.0
955,240.8345493,242.7485376375,43.0,100.0
956,242.4859233,242.7554183625,58.0,97.0
957,241.38500729999998,242.777207325,50.0,83.0
958,242.4859233,242.79326235,67.0,104.0
959,242.4859233,242.937757575,62.0,113.0
960,242.7611523,243.0214730625,55.0,91.0
961,243.0363813,243.5444081625,67.0,94.0
962,243.0363813,243.598307175,62.0,102.0
963,243.0363813,243.6063346875,58.0,93.0
964,243.5868393,244.0512882375,55.0,83.0
965,243.8620683,244.313902575,67.0,108.0
966,243.8620683,244.3574805,62.0,104.0
967,243.8620683,244.38041625,58.0,103.0
968,244.4125263,244.74394788749998,55.0,110.0
969,244.6877553,244.9354614,58.0,103.0
970,244.6877553,244.96757145,67.0,108.0
971,243.0363813,244.98592005,43.0,88.0
972,244.9629843,245.1831675,55.0,88.0
973,245.23821329999998,245.8104602625,69.0,108.0
974,245.23821329999998,245.8494510375,60.0,110.0
975,245.23821329999998,245.85747855,64.0,117.0
976,245.7886713,246.2187166125,57.0,90.0
977,246.0639003,246.6499087125,69.0,110.0
978,246.0639003,246.65564265,64.0,117.0
979,246.0639003,246.6602298,60.0,113.0
980,246.6143583,246.89532123749999,57.0,114.0
981,245.23821329999998,246.923990925,45.0,98.0
982,246.8895873,247.2049538625,60.0,113.0
983,246.8895873,247.23477033749998,69.0,113.0
984,246.8895873,247.28064183749999,64.0,117.0
985,247.16481629999998,247.33110048749998,45.0,104.0
986,247.4400453,248.3632092375,65.0,114.0
987,247.4400453,248.3700899625,69.0,107.0
988,247.4400453,248.391878925,62.0,110.0
989,248.2657323,248.6143557,57.0,89.0
990,248.5409613,248.855181075,69.0,113.0
991,248.5409613,248.8712361,62.0,113.0
992,248.5409613,248.8746764625,65.0,116.0
993,248.8161903,249.09141929999998,57.0,113.0
994,247.4400453,249.1246761375,50.0,110.0
995,249.09141929999998,249.21527235,69.0,98.0
996,249.09141929999998,249.23362095,65.0,110.0
997,249.09141929999998,249.4710059625,62.0,102.0
998,249.6418773,250.22444535,62.0,102.0
999,249.6418773,250.226738925,67.0,108.0
1000,249.6418773,250.2462343125,58.0,103.0
1001,250.1923353,250.67054568749998,55.0,94.0
1002,250.4675643,250.9996737,67.0,114.0
1003,250.4675643,251.098297425,58.0,113.0
1004,250.8804078,251.2210036875,55.0,110.0
1005,251.2932513,251.52719595,58.0,88.0
1006,249.6418773,251.5684803,43.0,92.0
1007,251.2932513,251.60173713749998,67.0,110.0
1008,251.2932513,251.7072415875,62.0,110.0
1009,251.5684803,251.7645809625,55.0,94.0
1010,251.8437093,252.318479325,67.0,92.0
1011,251.8437093,252.384993,64.0,104.0
1012,251.8437093,252.387286575,60.0,91.0
1013,252.3941673,252.81618509999998,55.0,75.0
1014,252.6693963,253.208386425,67.0,92.0
1015,252.6693963,253.2439368375,64.0,98.0
1016,252.6693963,253.263432225,60.0,91.0
1017,251.8437093,253.56045018749998,48.0,92.0
1018,253.2198543,253.5856795125,55.0,86.0
1019,253.4950833,253.722147225,67.0,100.0
1020,253.4950833,253.8253581,60.0,94.0
1021,253.4950833,253.8333856125,64.0,102.0
1022,254.0455413,254.6292561375,69.0,108.0
1023,254.0455413,254.648751525,60.0,96.0
1024,254.0455413,254.6774212125,64.0,107.0
1025,254.5959993,255.0719161125,57.0,88.0
1026,254.0455413,255.1453105125,45.0,98.0
1027,254.87122829999998,255.437741325,69.0,110.0
1028,254.87122829999998,255.456089925,60.0,102.0
1029,254.87122829999998,255.46182386249998,64.0,113.0
1030,255.4216863,255.75769503749999,45.0,102.0
1031,255.6969153,256.054713,69.0,108.0
1032,255.6969153,256.05930015,60.0,107.0
1033,255.6969153,256.0765019625,64.0,113.0
1034,255.9721443,256.1361349125,45.0,98.0
1035,256.2473733,256.73705156249997,50.0,107.0
1036,256.2473733,257.107463925,69.0,107.0
1037,256.2473733,257.1154914375,65.0,110.0
1038,256.2473733,257.12810609999997,62.0,110.0
1039,257.0730603,257.4320047875,50.0,113.0
1040,257.3482893,257.65562835,69.0,113.0
1041,257.3482893,257.6590687125,65.0,117.0
1042,257.3482893,257.6693898,62.0,117.0
1043,257.6235183,257.9664077625,50.0,116.0
1044,257.89874729999997,258.0053985375,69.0,107.0
1045,257.89874729999997,258.0696186375,65.0,114.0
1046,257.89874729999997,258.3058568625,62.0,116.0
1047,258.4492053,258.8907184875,55.0,100.0
1048,258.4492053,259.07420448749997,62.0,100.0
1049,258.4492053,259.07420448749997,67.0,107.0
1050,258.4492053,259.0902595125,58.0,87.0
1051,258.9996633,259.3150298625,55.0,92.0
1052,258.4492053,259.3207638,43.0,100.0
1053,259.2748923,259.749662325,67.0,114.0
1054,259.2748923,259.8035613375,58.0,106.0
1055,259.2748923,259.836818175,62.0,114.0
1056,259.82535029999997,260.167092975,43.0,110.0
1057,260.1005793,260.3482854,58.0,103.0
1058,260.1005793,260.373514725,67.0,107.0
1059,260.1005793,260.54553285,62.0,107.0
1060,260.3758083,260.5868172,43.0,100.0
1061,260.6510373,261.1269541125,67.0,113.0
1062,260.6510373,261.23819249999997,62.0,113.0
1063,260.6510373,261.27030255,58.0,106.0
1064,261.2014953,261.653329575,55.0,85.0
1065,261.4767243,261.9996594,67.0,110.0
1066,261.4767243,262.03176945,62.0,113.0
1067,261.4767243,262.0696134375,58.0,95.0
1068,262.0271823,262.3654846125,55.0,113.0
1069,262.3024113,262.4664019125,62.0,98.0
1070,262.3024113,262.4847505125,58.0,93.0
1071,262.3024113,262.511126625,67.0,102.0
1072,260.6510373,262.644153975,43.0,94.0
1073,262.8528693,263.442318075,69.0,102.0
1074,262.8528693,263.46640061249997,60.0,100.0
1075,262.8528693,263.48130885,64.0,114.0
1076,263.4033273,263.8402533375,57.0,88.0
1077,263.67855629999997,264.29552797499997,60.0,108.0
1078,263.67855629999997,264.2989683375,69.0,107.0
1079,263.67855629999997,264.3196105125,64.0,116.0
1080,264.2290143,264.5466744375,57.0,102.0
1081,264.5042433,264.781765875,69.0,94.0
1082,264.5042433,264.8104355625,60.0,104.0
1083,264.5042433,264.8264905875,64.0,113.0
1084,262.8528693,264.83451809999997,45.0,96.0
1085,264.7794723,264.914793225,57.0,91.0
1086,265.0547013,266.54896541249997,69.0,107.0
1087,265.0547013,266.5592865,64.0,116.0
1088,265.0547013,266.56387365,60.0,104.0
1089,265.0547013,266.7301578375,57.0,98.0
1090,265.0547013,266.80584581249997,45.0,94.0
1091,267.2565333,268.2599723625,67.0,102.0
1092,267.2565333,268.31616495,43.0,91.0
1093,267.2565333,268.3402474875,58.0,91.0
1094,268.6326783,268.71065985,67.0,113.0
1095,268.6326783,268.722127725,58.0,103.0
1096,268.6326783,268.7439166875,43.0,108.0
1097,269.1831363,270.020291175,53.0,93.0
1098,269.1831363,270.419373225,69.0,98.0
1099,269.1831363,270.4296943125,65.0,113.0
1100,269.1831363,270.4308411,60.0,104.0
1101,270.2840523,270.648730725,53.0,94.0
1102,270.5592813,271.0489595625,60.0,98.0
1103,269.1831363,271.258821675,41.0,93.0
1104,271.1097393,271.2622620375,65.0,113.0
1105,270.8345103,271.2714363375,53.0,110.0
1106,271.625793675,272.1544627125,67.0,88.0
1107,271.62808725,272.19460027499997,62.0,87.0
1108,271.6154725875,272.2072149375,58.0,85.0
1109,272.483590725,273.210654,67.0,90.0
1110,272.474416425,273.382672125,58.0,90.0
1111,272.208361725,273.4870297875,55.0,82.0
1112,271.91249055,273.52716735,50.0,72.0
1113,271.6384083375,273.616616775,43.0,88.0
1114,273.0329019375,274.4434505625,62.0,80.0
1115,275.9262468,276.2530812375,65.0,65.0
1116,276.0638613,276.3654664125,69.0,92.0
1117,275.7886323,276.45376905,60.0,42.0
1118,276.6143193,277.1544562125,53.0,84.0
1119,276.8895483,277.4434466625,65.0,91.0
1120,276.8895483,277.5191346375,60.0,91.0
1121,277.4400063,278.0650054875,53.0,87.0
1122,276.0638613,278.107436625,41.0,88.0
1123,276.3390903,278.14757418749997,48.0,82.0
1124,278.2656933,279.1189032,53.0,88.0
1125,278.2656933,279.1223435625,60.0,84.0
1126,278.2656933,279.1613343375,65.0,86.0
1127,278.2656933,279.162481125,69.0,86.0
1128,278.2656933,279.185416875,41.0,87.0
