,start,end,pitch,velocity
0,32.45480918333333,32.75168370833333,62.0,115.0
1,32.87147518333333,33.182238575,67.0,104.0
2,33.28814118333333,33.59369625,66.0,117.0
3,33.70480718333333,34.359320024999995,64.0,109.0
4,34.53813918333333,34.671819525,62.0,109.0
5,34.74647218333333,34.867999766666664,60.0,101.0
6,34.954805183333335,35.569387533333334,62.0,104.0
7,36.20480318333333,36.41487229166667,57.0,104.0
8,36.41313618333333,36.598899775,60.0,89.0
9,36.62146918333333,37.932230974999996,59.0,99.0
10,39.121465183333335,39.473895174999996,55.0,106.0
11,39.538131183333334,39.84368625,64.0,109.0
12,39.95479718333333,40.26208835833333,64.0,106.0
13,40.37146318333333,41.06417040833333,62.0,104.0
14,41.20479518333333,41.36798936666666,55.0,104.0
15,41.413128183333335,41.532919658333334,57.0,104.0
16,41.62146118333333,44.1457627,59.0,104.0
17,45.78812118333333,46.12839841666666,59.0,106.0
18,46.20478718333333,46.50687003333333,66.0,110.0
19,46.62145318333333,47.23777164166666,66.0,113.0
20,47.45478518333333,47.742979166666665,59.0,109.0
21,47.87145118333333,48.166589599999995,59.0,109.0
22,48.288117183333334,48.584991708333334,66.0,107.0
23,48.70478318333333,50.07283655,67.0,99.0
24,50.78811318333333,51.081515491666664,64.0,112.0
25,51.20477918333333,51.45477878333333,66.0,113.0
26,51.62144518333333,51.902694733333334,67.0,109.0
27,52.03811118333333,52.31588851666666,64.0,101.0
28,52.454777183333334,52.779429441666665,64.0,99.0
29,52.871443183333334,53.2082482,62.0,106.0
30,53.28810918333333,54.300260341666664,64.0,101.0
31,54.12144118333333,54.951300966666665,62.0,101.0
32,54.95477318333333,55.35581420833333,55.0,104.0
33,55.37143918333333,55.78463296666666,59.0,94.0
34,55.78810518333333,57.171783524999995,57.0,101.0
35,59.12143318333333,59.41830770833333,62.0,115.0
36,59.53809918333333,59.848862575,67.0,104.0
37,59.95476518333333,60.26032025,66.0,117.0
38,60.37143118333333,61.025944024999994,64.0,109.0
39,61.20476318333333,61.338443524999995,62.0,109.0
40,61.41309618333333,61.53462376666666,60.0,101.0
41,61.62142918333333,62.23601153333333,62.0,104.0
42,62.87142718333333,63.08149629166667,57.0,104.0
43,63.07976018333333,63.265523775,60.0,89.0
44,63.28809318333333,64.598854975,59.0,99.0
45,65.78808918333333,66.140519175,55.0,106.0
46,66.20475518333333,66.51031025,64.0,109.0
47,66.62142118333333,66.92871235833333,64.0,106.0
48,67.03808718333333,67.73079440833332,62.0,104.0
49,67.87141918333333,68.03461336666666,55.0,104.0
50,68.07975218333333,68.19954365833333,57.0,104.0
51,68.28808518333334,70.81238669999999,59.0,104.0
52,72.45474518333333,72.79502241666667,59.0,106.0
53,72.87141118333334,73.17349403333333,66.0,110.0
54,73.28807718333333,73.90439564166667,66.0,113.0
55,74.12140918333333,74.40960316666666,59.0,109.0
56,74.53807518333333,74.8332136,59.0,109.0
57,74.95474118333333,75.25161570833333,66.0,107.0
58,75.37140718333333,76.73946054999999,67.0,99.0
59,77.45473718333334,77.74813949166666,64.0,112.0
60,77.87140318333333,78.12140278333332,66.0,113.0
61,78.28806918333333,78.56931873333333,67.0,109.0
62,78.70473518333333,78.98251251666666,64.0,101.0
63,79.12140118333333,79.44605344166666,64.0,99.0
64,79.53806718333333,79.8748722,62.0,106.0
65,79.95473318333333,80.78459296666666,64.0,101.0
66,81.16132847499999,81.92348003333333,64.0,115.0
67,81.89396619166666,82.18042406666666,67.0,112.0
68,82.16479909166667,82.57104844166666,64.0,104.0
69,82.567576225,86.68284734583332,62.0,106.0
70,87.09246187708332,87.44438422083333,62.0,115.0
71,87.55399937708333,87.91553708541666,69.0,112.0
72,88.01553687708332,88.27707479374999,72.0,106.0
73,88.47707437708333,88.78997448958332,72.0,109.0
74,88.89934931458332,89.17018221458332,71.0,106.0
75,89.31601531458332,89.59379264791666,71.0,109.0
76,89.73268131458332,89.99309756458332,69.0,112.0
77,90.14934731458332,90.81254069791666,71.0,112.0
78,90.98267931458332,91.23441502291665,67.0,115.0
79,91.39934531458331,91.96184441458333,71.0,109.0
80,92.23267731458333,93.28302285624999,69.0,109.0
81,93.48267531458332,93.76392486458332,69.0,115.0
82,93.89934131458332,94.15107702291665,71.0,106.0
83,94.31600731458332,94.55732637291665,71.0,106.0
84,94.73267331458332,94.98267291458332,66.0,110.0
85,95.14933931458332,95.79690772291666,67.0,109.0
86,95.98267131458331,96.26565697291666,64.0,109.0
87,96.39933731458332,96.64760080624998,66.0,120.0
88,96.81600331458333,97.09725286458333,67.0,109.0
89,97.23266931458332,97.50697443124999,71.0,104.0
90,97.64933531458333,97.90627934791665,69.0,106.0
91,98.06600131458332,98.31773702291666,67.0,106.0
92,98.48266731458332,99.08336079791665,66.0,117.0
93,100.14933131458332,100.41321978124999,67.0,104.0
94,100.56599731458331,100.89585789791666,66.0,117.0
95,100.98266331458332,101.26044064791665,62.0,112.0
96,101.39932931458333,101.68925940624999,66.0,117.0
97,101.81599531458332,102.71703553958332,64.0,106.0
98,103.06599331458332,103.32814567291666,64.0,109.0
99,103.48265931458332,103.77258940624999,64.0,115.0
100,103.89932531458332,104.15800545624998,74.0,112.0
101,104.31599131458333,104.56946313124999,72.0,112.0
102,104.73265731458332,104.98960134791665,71.0,115.0
103,105.14932331458331,105.98786363958332,72.0,112.0
104,106.38369633958332,106.62675150624999,67.0,109.0
105,106.79341790624999,107.26043104791665,69.0,112.0
106,107.40800025624999,107.54168059791665,62.0,115.0
107,107.66494428958332,107.92536053958332,69.0,115.0
108,108.05383255624999,108.38195703124998,72.0,106.0
109,108.48265131458332,108.78994248958332,72.0,109.0
110,108.89931731458333,109.17015021458332,71.0,106.0
111,109.31598331458332,109.59376064791665,71.0,109.0
112,109.73264931458331,109.99306556458332,69.0,112.0
113,110.14931531458332,110.81250869791666,71.0,112.0
114,110.98264731458332,111.23438302291666,67.0,115.0
115,111.39931331458332,111.96181241458332,71.0,109.0
116,112.23264531458332,113.28299085625,69.0,109.0
117,113.48264331458333,113.76389286458331,69.0,115.0
118,113.89930931458332,114.15104502291666,71.0,106.0
119,114.31597531458331,114.55729437291666,71.0,106.0
120,114.73264131458332,114.98264091458333,66.0,110.0
121,115.14930731458333,115.79687572291665,67.0,109.0
122,115.98263931458332,116.26562497291665,64.0,109.0
123,116.39930531458332,116.64756880624998,66.0,120.0
124,116.81597131458332,117.09722086458332,67.0,109.0
125,117.23263731458331,117.50694243124998,71.0,104.0
126,117.64930331458332,117.90624734791666,69.0,106.0
127,118.06596931458333,118.31770502291666,67.0,106.0
128,118.48263531458332,119.08332879791665,66.0,117.0
129,120.14929931458332,120.41318778124999,67.0,104.0
130,120.56596531458332,120.89582589791665,66.0,117.0
131,120.98263131458333,121.26040864791665,62.0,112.0
132,121.39929731458332,121.68922740624998,66.0,117.0
133,121.81596331458331,122.71700353958332,64.0,106.0
134,123.06596131458332,123.32811367291666,64.0,109.0
135,123.48262731458331,123.77255740624999,64.0,115.0
136,123.89929331458332,124.15797345624998,74.0,112.0
137,124.31595931458332,124.56943113124998,72.0,112.0
138,124.73262531458332,124.98956934791666,71.0,115.0
139,125.14929131458332,126.81248309791665,69.0,112.0
140,127.59199573958333,127.91838410624999,67.0,112.0
141,128.02602282291664,128.53817478124998,66.0,117.0
142,128.52949423958333,131.06247906041662,67.0,106.0
143,142.6121435458333,142.9074009458333,62.0,115.0
144,143.0271924208333,143.33795581249996,67.0,104.0
145,143.4438584208333,143.74941348749996,66.0,117.0
146,143.8605244208333,144.51503726249996,64.0,109.0
147,144.6938564208333,144.82753676249996,62.0,109.0
148,144.9021894208333,145.02371700416663,60.0,101.0
149,145.1105224208333,145.7251047708333,62.0,104.0
150,146.3605204208333,146.57058952916663,57.0,104.0
151,146.5688534208333,146.75461701249995,60.0,89.0
152,146.7771864208333,148.08794821249995,59.0,99.0
153,149.2771824208333,149.62961241249997,55.0,106.0
154,149.6938484208333,149.99940348749996,64.0,109.0
155,150.11051442083328,150.4178055958333,64.0,106.0
156,150.5271804208333,151.2198876458333,62.0,104.0
157,151.3605124208333,151.52370660416662,55.0,104.0
158,151.5688454208333,151.6886368958333,57.0,104.0
159,151.7771784208333,154.30147993749995,59.0,104.0
160,155.9438384208333,156.28411565416664,59.0,106.0
161,156.3605044208333,156.66258727083328,66.0,110.0
162,156.7771704208333,157.39348887916663,66.0,113.0
163,157.61050242083328,157.89869640416663,59.0,109.0
164,158.0271684208333,158.32230683749995,59.0,109.0
165,158.4438344208333,158.7407089458333,66.0,107.0
166,158.8605004208333,160.22855378749995,67.0,99.0
167,160.9438304208333,161.23723272916664,64.0,112.0
168,161.3604964208333,161.6104960208333,66.0,113.0
169,161.7771624208333,162.0584119708333,67.0,109.0
170,162.19382842083328,162.47160575416663,64.0,101.0
171,162.6104944208333,162.93514667916662,64.0,99.0
172,163.0271604208333,163.36396543749996,62.0,106.0
173,163.4438264208333,164.45597757916664,64.0,101.0
174,164.2771584208333,165.10701820416662,62.0,101.0
175,165.1104904208333,165.5115314458333,55.0,104.0
176,165.5271564208333,165.94035020416663,59.0,94.0
177,165.9438224208333,167.32750076249997,57.0,101.0
178,169.2771504208333,169.5740249458333,62.0,115.0
179,169.6938164208333,170.00457981249997,67.0,104.0
180,170.1104824208333,170.41603748749995,66.0,117.0
181,170.5271484208333,171.18166126249997,64.0,109.0
182,171.36048042083328,171.49416076249997,62.0,109.0
183,171.5688134208333,171.6903410041666,60.0,101.0
184,171.7771464208333,172.39172877083328,62.0,104.0
185,173.02714442083328,173.23721352916664,57.0,104.0
186,173.2354774208333,173.42124101249996,60.0,89.0
187,173.4438104208333,174.75457221249997,59.0,99.0
188,175.9438064208333,176.29623641249995,55.0,106.0
189,176.3604724208333,176.66602748749995,64.0,109.0
190,176.7771384208333,177.08442959583329,64.0,106.0
191,177.1938044208333,177.8865116458333,62.0,104.0
192,178.0271364208333,178.19033060416663,55.0,104.0
193,178.23546942083328,178.35526089583328,57.0,104.0
194,178.4438024208333,180.96810393749996,59.0,104.0
195,182.6104624208333,182.95073965416663,59.0,106.0
196,183.0271284208333,183.3292112708333,66.0,110.0
197,183.44379442083329,184.06011287916664,66.0,113.0
198,184.2771264208333,184.56532040416664,59.0,109.0
199,184.6937924208333,184.98893083749996,59.0,109.0
200,185.1104584208333,185.4073329458333,66.0,107.0
201,185.5271244208333,186.89517778749996,67.0,99.0
202,187.6104544208333,187.90385672916662,64.0,112.0
203,188.02712042083328,188.2771200208333,66.0,113.0
204,188.4437864208333,188.7250359708333,67.0,109.0
205,188.8604524208333,189.13822975416662,64.0,101.0
206,189.2771184208333,189.60177067916663,64.0,99.0
207,189.6937844208333,190.03058943749997,62.0,106.0
208,190.1104504208333,190.94031020416662,64.0,101.0
209,190.9437824208333,191.35697620416664,64.0,115.0
210,191.36044842083328,191.77364220416663,67.0,114.0
211,191.7771144208333,192.19030820416663,64.0,114.0
212,192.1937804208333,193.42423007916662,62.0,106.0
213,193.8386132333333,194.1519690895833,62.0,115.0
214,194.24957173333328,194.57148922499997,69.0,112.0
215,194.6605302333333,194.89340671666662,72.0,106.0
216,195.0714887333333,195.3745706270833,72.0,109.0
217,195.4824472333333,195.7517343520833,71.0,106.0
218,195.89756745208328,196.17534478541663,71.0,109.0
219,196.3142334520833,196.5746497020833,69.0,112.0
220,196.7308994520833,197.39409283541661,71.0,112.0
221,197.56423145208328,197.81596716041662,67.0,115.0
222,197.9808974520833,198.5433965520833,71.0,109.0
223,198.81422945208328,199.86457499374995,69.0,109.0
224,200.0642274520833,200.3454770020833,69.0,115.0
225,200.48089345208328,200.73262916041662,71.0,106.0
226,200.8975594520833,201.13887851041662,71.0,106.0
227,201.3142254520833,201.5642250520833,66.0,110.0
228,201.73089145208328,202.37845986041663,67.0,109.0
229,202.5642234520833,202.84720911041663,64.0,109.0
230,202.9808894520833,203.22915294374997,66.0,120.0
231,203.39755545208328,203.6788050020833,67.0,109.0
232,203.8142214520833,204.08852656874996,71.0,104.0
233,204.2308874520833,204.48783148541662,69.0,106.0
234,204.6475534520833,204.89928916041663,67.0,106.0
235,205.06421945208328,205.66491293541662,66.0,117.0
236,206.73088345208328,206.99477191874996,67.0,104.0
237,207.1475494520833,207.47741003541663,66.0,117.0
238,207.5642154520833,207.8419927854166,62.0,112.0
239,207.98088145208328,208.27081154374994,66.0,117.0
240,208.3975474520833,209.29858767708328,64.0,106.0
241,209.64754545208328,209.90969781041662,64.0,109.0
242,210.0642114520833,210.35414154374996,64.0,115.0
243,210.4808774520833,210.73955759374996,74.0,112.0
244,210.89754345208328,211.15101526874994,72.0,112.0
245,211.31420945208328,211.57115348541663,71.0,115.0
246,211.7308754520833,212.5694157770833,72.0,112.0
247,212.9652484770833,213.20830364374996,67.0,109.0
248,213.37497004374995,213.8419831854166,69.0,112.0
249,213.98955239374996,214.12323273541662,62.0,115.0
250,214.2464964270833,214.50691267708328,69.0,115.0
251,214.63538469374996,214.96350916874997,72.0,106.0
252,215.0642034520833,215.37149462708328,72.0,109.0
253,215.48086945208328,215.7517023520833,71.0,106.0
254,215.89753545208328,216.17531278541662,71.0,109.0
255,216.3142014520833,216.5746177020833,69.0,112.0
256,216.7308674520833,217.3940608354166,71.0,112.0
257,217.5641994520833,217.81593516041661,67.0,115.0
258,217.9808654520833,218.5433645520833,71.0,109.0
259,218.81419745208328,219.86454299374995,69.0,109.0
260,220.06419545208328,220.3454450020833,69.0,115.0
261,220.48086145208327,220.73259716041662,71.0,106.0
262,220.8975274520833,221.1388465104166,71.0,106.0
263,221.3141934520833,221.56419305208328,66.0,110.0
264,221.73085945208328,222.37842786041662,67.0,109.0
265,222.5641914520833,222.84717711041662,64.0,109.0
266,222.98085745208328,223.22912094374996,66.0,120.0
267,223.39752345208328,223.6787730020833,67.0,109.0
268,223.8141894520833,224.08849456874995,71.0,104.0
269,224.2308554520833,224.48779948541662,69.0,106.0
270,224.64752145208328,224.89925716041662,67.0,106.0
271,225.06418745208327,225.66488093541662,66.0,117.0
272,226.7308514520833,226.99473991874996,67.0,104.0
273,227.1475174520833,227.47737803541662,66.0,117.0
274,227.56418345208328,227.84196078541663,62.0,112.0
275,227.9808494520833,228.27077954374994,66.0,117.0
276,228.3975154520833,229.2985556770833,64.0,106.0
277,229.64751345208327,229.9096658104166,64.0,109.0
278,230.0641794520833,230.35410954374996,64.0,115.0
279,230.4808454520833,230.73952559374996,74.0,112.0
280,230.89751145208328,231.15098326874994,72.0,112.0
281,231.3141774520833,231.57112148541663,71.0,115.0
282,231.7308434520833,233.39403523541662,69.0,112.0
283,234.17354787708328,234.49993624374997,67.0,112.0
284,234.60757496041663,235.11972691874996,66.0,117.0
285,235.11104637708328,237.64402843541663,67.0,106.0
286,240.5241078104166,240.75487656041662,64.0,113.0
287,240.98564531041663,241.2164140604166,71.0,100.0
288,241.44718281041662,241.67795156041663,74.0,100.0
289,241.90308850624996,242.21915961874996,74.0,109.0
290,242.33165950624996,242.61023065624997,73.0,106.0
291,242.76023050624997,243.04594450624998,73.0,109.0
292,243.18880150624997,243.45665838124998,71.0,112.0
293,243.61737250624998,244.29951468124997,73.0,112.0
294,244.47451450624996,244.72470995416663,69.0,115.0
295,244.8873810270833,245.4421750020833,73.0,109.0
296,245.7092980270833,246.74525591249997,71.0,109.0
297,246.9421735270833,247.22613053125,71.0,115.0
298,247.36345440624999,247.61873596874997,73.0,106.0
299,247.78598940625,248.03070759374998,73.0,106.0
300,248.20852440624998,248.46204540624998,68.0,110.0
301,248.63105940625,249.28774921874998,69.0,109.0
302,249.47612940624998,249.76310109374998,66.0,109.0
303,249.89866440625,250.15042484375,68.0,120.0
304,250.32119940624997,250.60641053125,69.0,109.0
305,250.74373440624998,251.02190328125,73.0,104.0
306,251.16626940625,251.42683265624999,71.0,106.0
307,251.58880440624998,251.84408596875,69.0,106.0
308,252.01133940625,252.62049403125,68.0,117.0
309,253.68604407291664,253.9463177895833,69.0,104.0
310,254.09700257291664,254.42234471874997,68.0,117.0
311,254.50796107291666,254.78193340624998,64.0,112.0
312,254.91891957291665,255.20487819583332,68.0,117.0
313,255.32987807291664,256.21857582916664,66.0,106.0
314,256.5627535729166,256.82131496249997,66.0,109.0
315,256.97371207291667,257.25967069583334,66.0,115.0
316,257.38467057291666,257.63980730833333,76.0,112.0
317,257.79562907291665,258.0456288270833,74.0,112.0
318,258.20658757291665,258.46001198125,73.0,115.0
319,258.61754607291664,259.44460005416664,74.0,112.0
320,259.8350106291666,260.0747364208333,69.0,109.0
321,260.2391198208333,260.69973580625,71.0,112.0
322,260.85122782708333,260.98872768958336,64.0,115.0
323,261.1155132770833,261.38337015208333,71.0,115.0
324,261.5155128770833,261.85301253958335,74.0,106.0
325,261.9565838645833,262.27265497708333,74.0,109.0
326,262.38515486458334,262.6585673979166,73.0,106.0
327,262.80440067291664,263.0821783395833,73.0,109.0
328,263.22106717291666,263.48148373541665,71.0,112.0
329,263.6377336729166,264.3009278520833,73.0,112.0
330,264.47106667291666,264.7228026833333,69.0,115.0
331,264.8877331729166,265.4502329479166,73.0,109.0
332,265.72106617291666,266.771412975,71.0,109.0
333,266.97106567291667,267.25231556041666,71.0,115.0
334,267.3877321729166,267.6394681833333,73.0,106.0
335,267.80439867291665,268.0457180208333,73.0,106.0
336,268.2210651729166,268.47106507291664,68.0,110.0
337,268.63773167291663,269.2853008583333,69.0,109.0
338,269.4710646729166,269.7540506708333,66.0,109.0
339,269.88773117291663,270.1359949625,68.0,120.0
340,270.30439767291665,270.58564756041665,69.0,109.0
341,270.7210641729166,270.99536961875,73.0,104.0
342,271.13773067291663,271.3946750145833,71.0,106.0
343,271.55439717291665,271.8061331833333,69.0,106.0
344,271.9710636729166,272.5717578770833,68.0,117.0
345,273.63772967291663,273.90161845625,69.0,104.0
346,274.05439617291665,274.3842571520833,68.0,117.0
347,274.4710626729166,274.7488403395833,64.0,112.0
348,274.88772917291664,275.17765961249995,68.0,117.0
349,275.30439567291666,276.2054369791666,66.0,106.0
350,276.55439517291666,276.8165478458333,66.0,109.0
351,276.9710616729166,277.2609921125,66.0,115.0
352,277.38772817291664,277.646408625,76.0,112.0
353,277.80439467291666,278.05786679374995,74.0,112.0
354,278.2210611729166,278.4780055145833,73.0,115.0
355,278.63772767291664,280.3009214520833,71.0,112.0
356,281.08043502916667,281.40682378749995,69.0,112.0
357,281.5144626333333,282.02661520624997,68.0,117.0
358,282.01793465416665,284.5509197520833,69.0,106.0
359,288.0613350145833,288.3877237729166,69.0,112.0
360,288.52314038541664,289.00751519166664,68.0,117.0
361,289.09952904374995,289.82869541875,71.0,106.0
362,289.9345981541666,291.88598626249996,69.0,106.0
