,start,end,pitch,velocity
0,5.371519183333333,5.8958239,62.0,96.0
1,5.788185183333333,6.65623935,66.0,93.0
2,6.204851183333333,6.692697625,62.0,66.0
3,6.621517183333333,7.482626916666666,67.0,99.0
4,7.038183183333333,7.642348883333333,62.0,47.0
5,4.954853183333333,8.184014683333332,55.0,101.0
6,7.454849183333333,8.38540325,66.0,88.0
7,8.704847183333333,9.211790816666666,55.0,56.0
8,9.538179183333332,10.043386708333333,55.0,56.0
9,9.121513183333333,10.850677083333332,63.0,88.0
10,9.954845183333333,10.8749826,67.0,96.0
11,10.371511183333332,11.296856925,55.0,52.0
12,8.288181183333332,11.326370766666667,48.0,99.0
13,11.204843183333333,11.6874813,60.0,73.0
14,12.038175183333333,12.496507783333334,54.0,72.0
15,10.788177183333334,12.628452016666666,69.0,101.0
16,12.871507183333332,13.348936974999999,54.0,49.0
17,12.454841183333333,13.477408991666666,62.0,104.0
18,13.704839183333332,14.128449616666666,54.0,31.0
19,11.621509183333332,14.519073991666666,47.0,96.0
20,14.538171183333333,14.956573291666666,59.0,89.0
21,14.121505183333333,14.972198266666666,62.0,104.0
22,13.288173183333333,14.999976,66.0,104.0
23,15.371503183333333,15.913168983333332,59.0,73.0
24,16.204835183333334,16.71872325,59.0,59.0
25,15.788169183333332,17.097194866666666,67.0,96.0
26,17.038167183333332,17.744763275,59.0,58.0
27,16.621501183333333,17.758652141666666,71.0,99.0
28,14.954837183333332,17.807263175,52.0,104.0
29,17.45483318333333,18.01733228333333,67.0,99.0
30,17.87149918333333,18.128443216666668,64.0,91.0
31,18.704831183333333,19.307260775,52.0,73.0
32,19.53816318333333,20.088509525,52.0,43.0
33,19.121497183333332,20.50691163333333,60.0,96.0
34,19.95482918333333,20.833299999999998,64.0,96.0
35,18.288165183333334,21.328090874999997,45.0,87.0
36,20.371495183333334,21.359340825,52.0,46.0
37,20.788161183333333,21.517326683333334,57.0,99.0
38,20.788161183333333,21.5624655,60.0,94.0
39,22.03815918333333,22.586769416666666,57.0,69.0
40,22.871491183333333,23.362809841666664,57.0,54.0
41,22.454825183333334,24.21871125,64.0,89.0
42,23.704823183333332,24.652738333333332,57.0,59.0
43,21.62149318333333,24.7291271,50.0,104.0
44,23.288157183333333,24.972182266666664,66.0,74.0
45,24.12148918333333,25.022529408333334,69.0,101.0
46,24.53815518333333,25.041626599999997,62.0,80.0
47,25.371487183333333,25.96002790833333,50.0,59.0
48,26.20481918333333,26.711762816666667,50.0,50.0
49,25.788153183333332,26.984331824999998,57.0,74.0
50,27.454817183333333,27.673566833333332,55.0,82.0
51,27.038151183333333,28.006899633333333,50.0,48.0
52,24.954821183333333,28.13537165,43.0,89.0
53,26.62148518333333,28.34023243333333,59.0,89.0
54,27.454817183333333,28.690926316666665,62.0,104.0
55,27.871483183333332,28.82460665833333,55.0,80.0
56,28.70481518333333,29.394050191666665,50.0,62.0
57,29.121481183333334,29.659674766666665,57.0,91.0
58,29.538147183333333,30.0207853,50.0,74.0
59,29.954813183333332,30.374951399999997,59.0,96.0
60,29.954813183333332,30.430506866666665,55.0,96.0
61,30.37147918333333,30.88710335833333,50.0,71.0
62,28.28814918333333,31.288144383333332,43.0,99.0
63,31.20481118333333,31.545088416666665,50.0,99.0
64,30.78814518333333,31.590227233333334,55.0,101.0
65,30.78814518333333,31.611060533333333,62.0,109.0
66,31.621477183333333,32.20480958333333,59.0,96.0
67,31.621477183333333,32.505156325,55.0,91.0
68,32.03814318333333,32.682239375,50.0,74.0
69,31.621477183333333,32.89751680833333,43.0,101.0
70,32.45480918333333,33.404460441666664,59.0,85.0
71,32.45480918333333,33.864529149999996,62.0,104.0
72,33.28814118333333,34.473903175,48.0,85.0
73,33.70480718333333,34.51383366666666,52.0,82.0
74,34.12147318333333,34.59543075833333,62.0,104.0
75,34.954805183333335,35.57112364166667,59.0,74.0
76,34.954805183333335,35.789873291666666,62.0,80.0
77,35.371471183333334,36.161400475,54.0,66.0
78,34.954805183333335,36.42355283333333,47.0,87.0
79,35.78813718333333,36.42702505,59.0,99.0
80,36.62146918333333,37.182232174999996,64.0,85.0
81,36.62146918333333,37.77424511666666,59.0,82.0
82,36.62146918333333,37.93570319166666,52.0,78.0
83,38.28813318333333,38.852368391666666,60.0,73.0
84,38.28813318333333,39.091951341666665,64.0,87.0
85,38.28813318333333,39.460006308333334,48.0,96.0
86,38.70479918333333,39.5207701,55.0,69.0
87,39.121465183333335,39.67007541666666,60.0,106.0
88,39.95479718333333,40.453060275,62.0,99.0
89,40.37146318333333,40.840212433333335,57.0,89.0
90,39.95479718333333,40.852365191666664,50.0,106.0
91,40.78812918333333,40.984309425,66.0,96.0
92,40.78812918333333,41.03292045833333,62.0,101.0
93,41.62146118333333,42.071113241666666,55.0,66.0
94,41.62146118333333,42.13882146666666,62.0,96.0
95,42.03812718333333,42.59194574166666,50.0,54.0
96,42.45479318333333,42.989514549999996,55.0,76.0
97,42.45479318333333,43.152708733333334,60.0,58.0
98,42.87145918333333,43.385347249999995,50.0,78.0
99,43.28812518333333,43.670069016666666,55.0,61.0
100,43.28812518333333,44.149234916666664,59.0,104.0
101,43.704791183333334,44.32284575,50.0,82.0
102,41.62146118333333,44.362776241666666,43.0,91.0
103,44.121457183333334,44.54853983333333,55.0,104.0
104,44.53812318333333,45.00687243333333,57.0,101.0
105,44.95478918333333,45.723885175,59.0,96.0
106,45.37145518333333,45.87145438333333,54.0,63.0
107,45.78812118333333,46.095412358333334,64.0,104.0
108,44.95478918333333,46.38707855833333,47.0,96.0
109,46.20478718333333,46.567633824999994,54.0,70.0
110,46.62145318333333,47.503396216666665,59.0,94.0
111,46.62145318333333,47.531173949999996,63.0,96.0
112,47.03811918333333,47.76902079166666,54.0,28.0
113,46.62145318333333,48.10235359166666,47.0,89.0
114,47.45478518333333,48.24297836666666,66.0,113.0
115,48.288117183333334,49.22040735833333,64.0,99.0
116,49.53811518333333,49.87144798333333,59.0,64.0
117,49.74644818333333,50.255127925,64.0,1.0
118,49.12144918333333,50.26380846666667,67.0,106.0
119,49.95478118333333,50.68394668333333,71.0,89.0
120,50.37144718333333,50.84714086666666,59.0,87.0
121,48.70478318333333,50.942626825,55.0,64.0
122,48.288117183333334,51.02943224166666,52.0,99.0
123,50.78811318333333,51.216931941666665,64.0,104.0
124,50.78811318333333,51.249918,67.0,106.0
125,51.20477918333333,51.42352883333333,59.0,101.0
126,52.03811118333333,52.50859654166666,52.0,67.0
127,51.62144518333333,52.69088791666666,60.0,94.0
128,52.871443183333334,53.44783115,52.0,62.0
129,52.454777183333334,53.859288825,57.0,106.0
130,53.28810918333333,54.20651049166666,64.0,99.0
131,54.12144118333333,54.52248220833333,60.0,106.0
132,53.70477518333333,54.539843291666664,52.0,76.0
133,51.62144518333333,54.597134866666664,45.0,101.0
134,54.12144118333333,54.609287625,57.0,109.0
135,54.95477318333333,55.150953425,57.0,91.0
136,55.37143918333333,55.81935513333333,57.0,87.0
137,54.95477318333333,55.82629956666666,62.0,99.0
138,55.78810518333333,56.25164610833333,64.0,101.0
139,56.20477118333333,56.66831210833333,62.0,99.0
140,56.62143718333333,57.09018643333333,66.0,110.0
141,57.038103183333334,57.52942184166666,57.0,89.0
142,54.95477318333333,57.64400499166666,50.0,96.0
143,57.45476918333333,58.1874069,62.0,109.0
144,58.28810118333333,58.82455865833333,59.0,89.0
145,58.28810118333333,59.05198885,55.0,78.0
146,59.12143318333333,59.275946825,59.0,96.0
147,59.12143318333333,59.35580780833333,62.0,104.0
148,58.70476718333333,59.39747440833333,50.0,69.0
149,58.28810118333333,59.536363075,43.0,94.0
150,59.95476518333333,60.43566719166667,55.0,71.0
151,59.95476518333333,60.850597083333334,60.0,85.0
152,59.95476518333333,60.942610824999996,48.0,94.0
153,60.37143118333333,60.9790691,52.0,76.0
154,60.78809718333333,61.098860574999996,55.0,109.0
155,61.62142918333333,62.28115035,57.0,94.0
156,61.62142918333333,62.518997191666664,62.0,101.0
157,61.62142918333333,62.567608224999994,50.0,96.0
158,62.45476118333333,62.893996591666664,66.0,113.0
159,62.87142718333333,63.01031585,57.0,99.0
160,63.28809318333333,63.87663390833333,59.0,76.0
161,63.28809318333333,64.07975858333333,55.0,76.0
162,63.70475918333333,64.48079960833333,50.0,42.0
163,64.12142518333333,64.53809118333334,62.0,106.0
164,63.28809318333333,64.58323,43.0,82.0
165,64.53809118333334,64.96690994166666,55.0,109.0
166,64.95475718333333,65.81933913333333,60.0,94.0
167,64.95475718333333,66.14399139166666,48.0,89.0
168,65.37142318333333,66.14572749999999,52.0,64.0
169,66.20475518333333,66.51899079166667,55.0,89.0
170,65.78808918333333,66.70301827499999,64.0,96.0
171,66.62142118333333,67.005101125,62.0,104.0
172,67.03808718333333,67.52766973333333,57.0,96.0
173,66.62142118333333,67.71516943333333,50.0,101.0
174,67.45475318333332,67.900933025,66.0,113.0
175,67.87141918333333,68.01204395833334,57.0,112.0
176,68.28808518333334,69.0832228,59.0,87.0
177,68.70475118333333,69.1457227,50.0,74.0
178,69.12141718333334,69.68912460833333,55.0,96.0
179,69.53808318333333,70.078012875,50.0,82.0
180,69.95474918333333,70.838428325,59.0,99.0
181,70.37141518333333,70.96516423333333,50.0,71.0
182,70.78808118333333,71.12835841666666,55.0,106.0
183,68.28808518333334,71.14919171666666,43.0,94.0
184,71.20474718333332,71.619677075,57.0,112.0
185,71.62141318333333,72.51203675833332,59.0,94.0
186,72.03807918333332,72.53460616666666,54.0,70.0
187,72.45474518333333,72.80891128333333,64.0,101.0
188,72.87141118333334,73.29675772499999,54.0,81.0
189,73.28807718333333,73.88529845,59.0,101.0
190,73.28807718333333,73.93043726666666,63.0,104.0
191,74.12140918333333,74.37140878333334,59.0,104.0
192,73.28807718333333,74.48078360833333,51.0,79.0
193,73.70474318333333,74.51897799166666,54.0,81.0
194,71.62141318333333,74.82279695,47.0,101.0
195,74.53807518333333,74.84189414166666,59.0,82.0
196,74.12140918333333,74.932171775,66.0,107.0
197,74.95474118333333,75.83668421666667,64.0,96.0
198,75.78807318333332,76.31932233333333,67.0,101.0
199,76.20473918333333,76.73598833333332,59.0,96.0
200,77.03807118333333,77.35577900833333,59.0,76.0
201,74.95474118333333,77.39918171666666,52.0,91.0
202,75.37140718333333,77.40612614999999,55.0,56.0
203,76.62140518333332,77.46168161666667,67.0,104.0
204,77.45473718333334,77.65438964166667,59.0,96.0
205,77.45473718333334,77.91480589166666,64.0,99.0
206,77.87140318333333,78.07105564166666,59.0,96.0
207,78.28806918333333,79.202998275,60.0,78.0
208,78.70473518333333,79.26723428333332,52.0,69.0
209,79.12140118333333,80.01202475833333,57.0,112.0
210,79.53806718333333,80.04327470833333,52.0,78.0
211,79.95473318333333,80.53285725833332,60.0,91.0
212,80.37139918333332,80.99813429166666,52.0,56.0
213,78.28806918333333,81.04153699999999,45.0,96.0
214,80.78806518333333,81.04500921666666,57.0,109.0
215,80.78806518333333,81.12834241666667,60.0,109.0
216,80.78806518333333,81.16480069166666,64.0,104.0
217,81.62139718333333,81.848827375,57.0,99.0
218,82.03806318333334,82.54674292499999,57.0,89.0
219,81.62139718333333,82.54674292499999,62.0,101.0
220,82.45472918333333,82.92695065,66.0,110.0
221,82.87139518333333,83.32799167499999,57.0,87.0
222,83.28806118333333,83.76375486666666,64.0,91.0
223,83.70472718333333,84.11792096666666,57.0,67.0
224,84.12139318333332,84.59535075833332,62.0,104.0
225,81.62139718333333,84.661322875,50.0,104.0
226,84.53805918333333,84.75333661666666,57.0,112.0
227,84.95472518333332,85.44777995,50.0,99.0
228,84.95472518333332,85.59534915833333,54.0,91.0
229,85.37139118333333,85.98597353333334,45.0,106.0
230,84.95472518333332,86.00333461666666,38.0,109.0
231,85.78805718333334,86.17868155833332,57.0,104.0
232,85.99639018333333,86.26722308333333,50.0,99.0
233,86.20472318333333,86.51722268333333,54.0,104.0
234,86.41305618333332,86.64053974166666,57.0,109.0
235,86.63092437708332,87.55015323125,62.0,115.0
236,87.55399937708333,88.41553604375,66.0,113.0
237,87.55399937708333,88.47322823124999,62.0,101.0
238,87.55399937708333,88.50784354374998,69.0,106.0
239,88.47707437708333,88.96705753958332,59.0,96.0
240,88.47707437708333,89.28650147291665,55.0,94.0
241,88.89934931458332,89.44969565624999,50.0,69.0
242,89.31601531458332,89.75004239791666,62.0,101.0
243,89.31601531458332,89.78650067291666,59.0,89.0
244,89.73268131458332,90.23788883958332,50.0,44.0
245,90.14934731458332,90.75698523124998,55.0,91.0
246,90.14934731458332,90.79691572291665,59.0,99.0
247,90.98267931458332,91.15802625624998,59.0,109.0
248,88.47707437708333,91.17365123124999,43.0,101.0
249,90.98267931458332,91.18059566458332,55.0,106.0
250,90.56601331458332,91.55733117291666,50.0,40.0
251,91.81601131458332,92.36809376458332,57.0,112.0
252,91.81601131458332,92.42017701458332,64.0,104.0
253,91.81601131458332,92.77607922291665,42.0,101.0
254,92.64934331458332,93.07121763958332,57.0,101.0
255,93.06600931458333,93.21184241458332,54.0,113.0
256,92.64934331458332,93.40628654791665,64.0,101.0
257,93.48267531458332,93.87850801458332,63.0,96.0
258,93.48267531458332,94.05038273958333,59.0,99.0
259,93.89934131458332,94.37677110624999,54.0,96.0
260,93.48267531458332,94.53475696458332,47.0,104.0
261,94.31600731458332,94.74829828958332,66.0,120.0
262,94.73267331458332,95.02781173124998,59.0,109.0
263,95.14933931458332,95.62850521458333,64.0,94.0
264,95.56600531458332,96.06774062291666,59.0,94.0
265,95.98267131458331,96.48787883958332,64.0,112.0
266,95.98267131458331,96.52433711458332,67.0,106.0
267,96.39933731458332,96.85766991458333,59.0,91.0
268,96.81600331458333,97.39933571458332,64.0,101.0
269,96.81600331458333,97.40454403958333,67.0,101.0
270,97.23266931458332,97.56773822291666,59.0,58.0
271,95.14933931458332,97.81079338958332,40.0,101.0
272,97.64933531458333,98.00523752291666,64.0,106.0
273,97.64933531458333,98.23266771458333,67.0,109.0
274,98.06600131458332,98.28301485624999,59.0,76.0
275,98.48266731458332,98.80558346458332,57.0,101.0
276,98.48266731458332,99.08509690624999,62.0,106.0
277,98.48266731458332,99.13718015624998,66.0,96.0
278,99.31599931458332,99.52954063958332,57.0,109.0
279,99.31599931458332,99.99308156458332,62.0,112.0
280,99.73266531458333,100.18926180624999,57.0,73.0
281,100.14933131458332,100.74481647291665,62.0,96.0
282,99.31599931458332,100.81426080624999,66.0,113.0
283,100.56599731458331,100.98613553124999,57.0,44.0
284,98.48266731458332,101.08509370624999,47.0,85.0
285,100.98266331458332,101.37155158124999,66.0,117.0
286,100.98266331458332,101.40280153124999,62.0,106.0
287,101.39932931458333,101.54689852291665,57.0,96.0
288,101.81599531458332,102.01043944791665,55.0,96.0
289,101.81599531458332,102.38023052291666,60.0,94.0
290,102.64932731458332,103.03300725624999,60.0,26.0
291,102.64932731458332,103.15627094791665,64.0,99.0
292,103.48265931458332,103.67189512291665,55.0,94.0
293,103.48265931458332,103.96008910625,60.0,99.0
294,103.89932531458332,104.07814447291665,55.0,74.0
295,101.81599531458332,104.74828228958333,48.0,94.0
296,104.31599131458333,104.78474056458332,62.0,106.0
297,104.31599131458333,104.91147647291666,57.0,106.0
298,104.31599131458333,104.93057366458332,47.0,99.0
299,105.14932331458331,105.71355852291666,60.0,96.0
300,105.14932331458331,105.73960014791666,57.0,99.0
301,105.56598931458332,106.42536293958332,52.0,61.0
302,105.98265531458333,106.44619623958332,57.0,115.0
303,105.14932331458331,106.62501539791666,45.0,106.0
304,106.39932131458332,106.71355692291665,60.0,112.0
305,106.81598731458332,107.13022292291666,62.0,109.0
306,106.81598731458332,107.15800065624998,57.0,106.0
307,107.64931931458332,107.81772182291665,57.0,112.0
308,106.81598731458332,107.86633285624998,50.0,104.0
309,107.23265331458332,107.97397157291665,54.0,107.0
310,107.64931931458332,108.15626294791666,66.0,117.0
311,108.06598531458332,108.28647107291665,57.0,115.0
312,108.48265131458332,108.91841450624999,59.0,99.0
313,108.48265131458332,109.32987218124998,55.0,104.0
314,108.89931731458333,109.43577478958332,50.0,55.0
315,109.31598331458332,109.65973276458332,59.0,99.0
316,109.31598331458332,109.69271882291665,62.0,106.0
317,109.73264931458331,110.25348181458332,50.0,62.0
318,110.14931531458332,110.61632845624999,59.0,106.0
319,110.14931531458332,110.69792554791665,62.0,106.0
320,108.48265131458332,111.11285543958331,43.0,104.0
321,110.98264731458332,111.12327208958332,59.0,112.0
322,110.56598131458333,111.13716095624999,50.0,61.0
323,110.98264731458332,111.13716095624999,55.0,106.0
324,110.98264731458332,111.15973036458333,62.0,109.0
325,111.81597931458332,112.04514561458332,54.0,83.0
326,111.81597931458332,112.35243678958332,64.0,94.0
327,111.81597931458332,112.39583949791665,57.0,104.0
328,112.23264531458332,112.47743658958332,54.0,74.0
329,112.64931131458331,112.77604722291665,54.0,101.0
330,111.81597931458332,112.90625534791666,42.0,107.0
331,112.64931131458331,113.04340790625,57.0,106.0
332,113.06597731458332,113.22743538958332,54.0,120.0
333,112.64931131458331,113.43056006458332,64.0,106.0
334,113.48264331458333,113.92535093958332,63.0,117.0
335,113.48264331458333,114.46007230624998,47.0,104.0
336,113.89930931458332,114.52083609791666,54.0,91.0
337,114.31597531458331,114.54340550624998,59.0,104.0
338,114.31597531458331,114.62326648958332,63.0,113.0
339,114.73264131458332,115.09375184791665,59.0,82.0
340,115.14930731458333,115.34375144791665,59.0,99.0
341,115.14930731458333,115.59895937291665,64.0,101.0
342,115.56597331458332,115.85069508125,59.0,91.0
343,115.98263931458332,116.57986058124999,64.0,112.0
344,115.98263931458332,116.59374944791665,67.0,109.0
345,116.39930531458332,116.92361003124998,59.0,101.0
346,116.81597131458332,117.36631765624999,67.0,101.0
347,116.81597131458332,117.36978987291666,64.0,101.0
348,117.23263731458331,117.44270642291666,59.0,85.0
349,115.14930731458333,117.73610873124998,40.0,99.0
350,117.64930331458332,117.81770582291665,59.0,106.0
351,117.64930331458332,118.07812207291666,64.0,112.0
352,117.64930331458332,118.16666359791665,67.0,104.0
353,118.06596931458333,118.21527463124998,59.0,94.0
354,118.48263531458332,118.67881555624999,59.0,74.0
355,118.48263531458332,119.15277313124999,62.0,99.0
356,118.89930131458331,119.43228657291665,57.0,101.0
357,119.31596731458332,119.88020252291665,62.0,104.0
358,119.31596731458332,119.94964685624998,66.0,113.0
359,119.73263331458332,120.26388246458332,54.0,38.0
360,120.14929931458332,120.54339590624998,62.0,99.0
361,120.14929931458332,120.58332639791665,66.0,99.0
362,120.56596531458332,121.01040904791665,54.0,30.0
363,120.98263131458333,121.13193663124999,57.0,109.0
364,118.48263531458332,121.16145047291666,47.0,99.0
365,120.98263131458333,121.44096391458332,66.0,113.0
366,120.98263131458333,121.45658888958332,62.0,109.0
367,121.39929731458332,121.58332479791665,57.0,101.0
368,121.81596331458331,122.01735188125,55.0,96.0
369,121.81596331458331,122.31075418958332,60.0,96.0
370,122.23262931458332,122.72047575624998,55.0,89.0
371,122.64929531458333,123.13540564791666,60.0,109.0
372,123.06596131458332,123.53991888958332,55.0,96.0
373,123.48262731458331,124.01734868124998,62.0,112.0
374,123.89929331458332,124.15970956458332,55.0,62.0
375,124.31595931458332,124.75866693958332,55.0,106.0
376,121.81596331458331,124.76387526458332,48.0,99.0
377,124.31595931458332,124.77776413125,60.0,104.0
378,124.73262531458332,125.05901368124998,59.0,109.0
379,125.14929131458332,125.53817958124998,57.0,101.0
380,125.14929131458332,125.99477607291665,60.0,91.0
381,125.56595731458333,126.42359483124999,52.0,96.0
382,125.14929131458332,126.42880315624998,45.0,96.0
383,125.98262331458332,126.44616423958331,55.0,112.0
384,126.39928931458331,126.86109413124998,60.0,109.0
385,126.81595531458332,128.47914709791667,50.0,94.0
386,126.81595531458332,128.47914709791667,57.0,101.0
387,126.81595531458332,128.47914709791667,62.0,99.0
388,128.4826193145833,128.69963285625,55.0,99.0
389,128.4826193145833,128.97567438541662,60.0,96.0
390,128.8992855270833,129.55379915416663,55.0,96.0
391,128.4826193145833,129.56247970624997,48.0,94.0
392,129.3159520270833,130.01734063541664,60.0,94.0
393,130.1492850270833,130.74477089999996,59.0,87.0
394,130.1492850270833,130.95831248124998,62.0,94.0
395,130.5659515270833,131.1753261020833,54.0,44.0
396,130.1492850270833,131.30727033541663,47.0,76.0
397,130.9826180270833,131.32463141874996,59.0,66.0
398,131.8159500770833,132.28990765208331,57.0,82.0
399,131.8159500770833,132.63539321041662,60.0,87.0
400,132.6492820770833,133.00692039374997,57.0,71.0
401,131.8159500770833,133.07983694374997,45.0,89.0
402,132.2326160770833,133.08157305208331,52.0,29.0
403,133.4826140770833,134.02948820208331,55.0,76.0
404,133.4826140770833,134.05205761041663,59.0,87.0
405,134.3159460770833,134.78122311041665,55.0,104.0
406,133.8992800770833,134.85587576874997,50.0,59.0
407,133.4826140770833,134.8940701520833,43.0,85.0
408,134.7326120770833,135.06420876874998,59.0,101.0
409,135.1492780770833,135.98087396874996,55.0,91.0
410,135.1492780770833,136.1753181020833,48.0,87.0
411,135.1492780770833,136.35934558541663,60.0,89.0
412,135.9826100770833,136.6649006520833,64.0,66.0
413,136.8159420770833,137.29858019374996,59.0,89.0
414,136.8159420770833,137.40621891041664,62.0,101.0
415,137.2326080770833,138.07982894374996,54.0,79.0
416,137.6492740770833,138.15621771041663,59.0,96.0
417,136.8159420770833,138.2846897270833,47.0,78.0
418,138.0659400770833,138.50691159374998,62.0,76.0
419,138.4826060770833,139.3992712770833,60.0,96.0
420,139.3159380770833,139.78642343541662,55.0,89.0
421,138.8992720770833,139.79857619374997,52.0,76.0
422,138.4826060770833,139.8836455020833,45.0,74.0
423,139.7326040770833,139.95289958541662,60.0,80.0
424,140.1463925458333,140.63783041874996,59.0,80.0
425,140.1463925458333,140.82276174374996,55.0,78.0
426,140.96830954583328,141.39639131666664,57.0,112.0
427,140.5573510458333,141.5282405020833,50.0,64.0
428,140.1463925458333,141.59673358541662,43.0,89.0
429,141.3792680458333,141.75598000416662,59.0,112.0
430,141.7902265458333,142.3655684458333,59.0,96.0
431,141.7902265458333,142.66180103124995,55.0,91.0
432,142.20118504583328,142.83795661249997,50.0,74.0
433,141.7902265458333,143.0532340458333,43.0,101.0
434,142.6121435458333,143.56017767916663,59.0,85.0
435,142.6121435458333,144.02024638749995,62.0,104.0
436,143.4438584208333,144.62962041249997,48.0,85.0
437,143.8605244208333,144.66955090416664,52.0,82.0
438,144.2771904208333,144.7511479958333,62.0,104.0
439,144.6938564208333,144.87267557916664,60.0,96.0
440,145.1105224208333,145.72684087916662,59.0,74.0
441,145.1105224208333,145.94559052916662,62.0,80.0
442,145.52718842083328,146.31711771249996,54.0,66.0
443,145.1105224208333,146.5792700708333,47.0,87.0
444,145.9438544208333,146.58274228749997,59.0,99.0
445,146.7771864208333,147.33794941249997,64.0,85.0
446,146.7771864208333,147.92996235416663,59.0,82.0
447,146.7771864208333,148.09142042916662,52.0,78.0
448,148.4438504208333,149.00808562916663,60.0,73.0
449,148.4438504208333,149.24766857916663,64.0,87.0
450,148.4438504208333,149.6157235458333,48.0,96.0
451,148.8605164208333,149.67648733749996,55.0,69.0
452,149.2771824208333,149.82579265416663,60.0,106.0
453,150.11051442083328,150.60877751249996,62.0,99.0
454,150.5271804208333,150.9959296708333,57.0,89.0
455,150.11051442083328,151.00808242916662,50.0,106.0
456,150.9438464208333,151.14002666249996,66.0,96.0
457,150.9438464208333,151.1886376958333,62.0,101.0
458,151.7771784208333,152.22683047916664,55.0,66.0
459,151.7771784208333,152.29453870416663,62.0,96.0
460,152.1938444208333,152.74766297916662,50.0,54.0
461,152.6105104208333,153.14523178749997,55.0,76.0
462,152.6105104208333,153.3084259708333,60.0,58.0
463,153.02717642083329,153.54106448749997,50.0,78.0
464,153.4438424208333,153.82578625416662,55.0,61.0
465,153.4438424208333,154.30495215416664,59.0,104.0
466,153.8605084208333,154.47856298749997,50.0,82.0
467,151.7771784208333,154.51849347916664,43.0,91.0
468,154.2771744208333,154.7042570708333,55.0,104.0
469,154.69384042083328,155.16258967083328,57.0,101.0
470,155.1105064208333,155.87960241249996,59.0,96.0
471,155.5271724208333,156.0271716208333,54.0,63.0
472,155.9438384208333,156.2511295958333,64.0,104.0
473,155.1105064208333,156.54279579583329,47.0,96.0
474,156.3605044208333,156.72335106249997,54.0,70.0
475,156.7771704208333,157.65911345416663,59.0,94.0
476,156.7771704208333,157.68689118749995,63.0,96.0
477,157.1938364208333,157.92473802916663,54.0,28.0
478,156.7771704208333,158.25807082916663,47.0,89.0
479,157.61050242083328,158.39869560416662,66.0,113.0
480,158.4438344208333,159.3761245958333,64.0,99.0
481,159.6938324208333,160.0271652208333,59.0,64.0
482,159.90216542083328,160.41084516249995,64.0,1.0
483,159.27716642083328,160.41952570416663,67.0,106.0
484,160.1104984208333,160.8396639208333,71.0,89.0
485,160.5271644208333,161.00285810416662,59.0,87.0
486,158.8605004208333,161.09834406249996,55.0,64.0
487,158.4438344208333,161.18514947916663,52.0,99.0
488,160.9438304208333,161.37264917916661,64.0,104.0
489,160.9438304208333,161.40563523749995,67.0,106.0
490,161.3604964208333,161.5792460708333,59.0,101.0
491,162.19382842083328,162.66431377916663,52.0,67.0
492,161.7771624208333,162.84660515416664,60.0,94.0
493,163.0271604208333,163.60354838749996,52.0,62.0
494,162.6104944208333,164.01500606249996,57.0,106.0
495,163.4438264208333,164.36222772916662,64.0,99.0
496,164.2771584208333,164.6781994458333,60.0,106.0
497,163.86049242083328,164.69556052916664,52.0,76.0
498,161.7771624208333,164.75285210416664,45.0,101.0
499,164.2771584208333,164.76500486249995,57.0,109.0
500,165.1104904208333,165.30667066249995,57.0,91.0
501,165.5271564208333,165.9750723708333,57.0,87.0
502,165.1104904208333,165.98201680416662,62.0,99.0
503,165.9438224208333,166.4073633458333,64.0,101.0
504,166.3604884208333,166.8240293458333,62.0,99.0
505,166.77715442083328,167.2459036708333,66.0,110.0
506,167.1938204208333,167.68513907916662,57.0,89.0
507,165.1104904208333,167.79972222916663,50.0,96.0
508,167.6104864208333,168.34312413749996,62.0,109.0
509,168.44381842083328,168.9802758958333,59.0,89.0
510,168.44381842083328,169.20770608749996,55.0,78.0
511,169.2771504208333,169.43166406249998,59.0,96.0
512,169.2771504208333,169.5115250458333,62.0,104.0
513,168.8604844208333,169.5531916458333,50.0,69.0
514,168.44381842083328,169.69208031249997,43.0,94.0
515,170.1104824208333,170.59138442916662,55.0,71.0
516,170.1104824208333,171.0063143208333,60.0,85.0
517,170.1104824208333,171.09832806249995,48.0,94.0
518,170.5271484208333,171.13478633749997,52.0,76.0
519,170.9438144208333,171.25457781249997,55.0,109.0
520,171.7771464208333,172.43686758749996,57.0,94.0
521,171.7771464208333,172.6747144291666,62.0,101.0
522,171.7771464208333,172.72332546249996,50.0,96.0
523,172.6104784208333,173.04971382916662,66.0,113.0
524,173.02714442083328,173.16603308749995,57.0,99.0
525,173.4438104208333,174.0323511458333,59.0,76.0
526,173.4438104208333,174.2354758208333,55.0,76.0
527,173.8604764208333,174.63651684583328,50.0,42.0
528,174.2771424208333,174.6938084208333,62.0,106.0
529,173.4438104208333,174.73894723749996,43.0,82.0
530,174.6938084208333,175.1226271791666,55.0,109.0
531,175.1104744208333,175.9750563708333,60.0,94.0
532,175.1104744208333,176.29970862916662,48.0,89.0
533,175.5271404208333,176.30144473749996,52.0,64.0
534,176.3604724208333,176.67470802916662,55.0,89.0
535,175.9438064208333,176.85873551249995,64.0,96.0
536,176.7771384208333,177.16081836249995,62.0,104.0
537,177.1938044208333,177.68338697083328,57.0,96.0
538,176.7771384208333,177.8708866708333,50.0,101.0
539,177.61047042083328,178.05665026249994,66.0,113.0
540,178.0271364208333,178.1677611958333,57.0,112.0
541,178.4438024208333,179.23894003749996,59.0,87.0
542,178.86046842083329,179.30143993749996,50.0,74.0
543,179.2771344208333,179.8448418458333,55.0,96.0
544,179.6938004208333,180.23373011249996,50.0,82.0
545,180.1104664208333,180.99414556249997,59.0,99.0
546,180.5271324208333,181.1208814708333,50.0,71.0
547,180.9437984208333,181.28407565416663,55.0,106.0
548,178.4438024208333,181.30490895416662,43.0,94.0
549,181.3604644208333,181.77539431249997,57.0,112.0
550,181.7771304208333,182.6677539958333,59.0,94.0
551,182.19379642083328,182.69032340416663,54.0,70.0
552,182.6104624208333,182.9646285208333,64.0,101.0
553,183.0271284208333,183.45247496249996,54.0,81.0
554,183.44379442083329,184.04101568749996,59.0,101.0
555,183.44379442083329,184.08615450416664,63.0,104.0
556,184.2771264208333,184.5271260208333,59.0,104.0
557,183.44379442083329,184.6365008458333,51.0,79.0
558,183.8604604208333,184.67469522916662,54.0,81.0
559,181.7771304208333,184.97851418749997,47.0,101.0
560,184.6937924208333,184.99761137916664,59.0,82.0
561,184.2771264208333,185.08788901249994,66.0,107.0
562,185.1104584208333,185.9924014541666,64.0,96.0
563,185.9437904208333,186.4750395708333,67.0,101.0
564,186.3604564208333,186.8917055708333,59.0,96.0
565,187.1937884208333,187.51149624583329,59.0,76.0
566,185.1104584208333,187.55489895416662,52.0,91.0
567,185.5271244208333,187.56184338749995,55.0,56.0
568,186.77712242083328,187.61739885416662,67.0,104.0
569,187.6104544208333,187.81010687916663,59.0,96.0
570,187.6104544208333,188.07052312916662,64.0,99.0
571,188.02712042083328,188.22677287916662,59.0,96.0
572,188.4437864208333,189.35871551249997,60.0,78.0
573,188.8604524208333,189.4229515208333,52.0,69.0
574,189.2771184208333,190.1677419958333,57.0,112.0
575,189.6937844208333,190.19899194583328,52.0,78.0
576,190.1104504208333,190.68857449583328,60.0,91.0
577,190.5271164208333,191.15385152916662,52.0,56.0
578,188.4437864208333,191.19725423749998,45.0,96.0
579,190.9437824208333,191.2007264541666,57.0,109.0
580,190.9437824208333,191.28405965416664,60.0,109.0
581,190.9437824208333,191.3205179291666,64.0,104.0
582,191.7771144208333,192.00454461249996,57.0,99.0
583,192.1937804208333,192.69649106874996,57.0,89.0
584,191.7771144208333,192.69649106874996,62.0,101.0
585,192.60573773333329,193.07149069999997,66.0,110.0
586,193.0166962333333,193.46703825624996,57.0,87.0
587,193.4276547333333,193.89683235416663,64.0,91.0
588,193.8386132333333,194.24614707916663,57.0,67.0
589,194.24957173333328,194.7170370270833,62.0,104.0
590,191.7771144208333,194.78210545624995,50.0,104.0
591,194.6605302333333,194.87285879166663,57.0,112.0
592,195.0714887333333,195.5492279895833,59.0,96.0
593,195.0714887333333,195.8680536104166,55.0,94.0
594,195.4824472333333,196.03124779374997,50.0,69.0
595,195.89756745208328,196.33159453541663,62.0,101.0
596,195.89756745208328,196.36805281041663,59.0,89.0
597,196.3142334520833,196.8194409770833,50.0,44.0
598,196.7308994520833,197.33853736874997,55.0,91.0
599,196.7308994520833,197.37846786041663,59.0,99.0
600,197.56423145208328,197.73957839374995,59.0,109.0
601,195.0714887333333,197.75520336874996,43.0,101.0
602,197.56423145208328,197.7621478020833,55.0,106.0
603,197.14756545208328,198.13888331041662,50.0,40.0
604,198.3975634520833,198.9496459020833,57.0,112.0
605,198.3975634520833,199.0017291520833,64.0,104.0
606,198.3975634520833,199.35763136041663,42.0,101.0
607,199.2308954520833,199.65276977708328,57.0,101.0
608,199.6475614520833,199.7933945520833,54.0,113.0
609,199.2308954520833,199.98783868541662,64.0,101.0
610,200.0642274520833,200.4600601520833,63.0,96.0
611,200.0642274520833,200.6319348770833,59.0,99.0
612,200.48089345208328,200.95832324374996,54.0,96.0
613,200.0642274520833,201.11630910208328,47.0,104.0
614,200.8975594520833,201.3298504270833,66.0,120.0
615,201.3142254520833,201.60936386874997,59.0,109.0
616,201.73089145208328,202.21005735208328,64.0,94.0
617,202.14755745208328,202.6492927604166,59.0,94.0
618,202.5642234520833,203.0694309770833,64.0,112.0
619,202.5642234520833,203.1058892520833,67.0,106.0
620,202.9808894520833,203.4392220520833,59.0,91.0
621,203.39755545208328,203.9808878520833,64.0,101.0
622,203.39755545208328,203.98609617708328,67.0,101.0
623,203.8142214520833,204.14929036041661,59.0,58.0
624,201.73089145208328,204.39234552708328,40.0,101.0
625,204.2308874520833,204.58678966041663,64.0,106.0
626,204.2308874520833,204.81421985208328,67.0,109.0
627,204.6475534520833,204.86456699374995,59.0,76.0
628,205.06421945208328,205.38713560208328,57.0,101.0
629,205.06421945208328,205.66664904374994,62.0,106.0
630,205.06421945208328,205.71873229374995,66.0,96.0
631,205.8975514520833,206.1110927770833,57.0,109.0
632,205.8975514520833,206.5746337020833,62.0,112.0
633,206.31421745208328,206.77081394374994,57.0,73.0
634,206.73088345208328,207.32636861041664,62.0,96.0
635,205.8975514520833,207.39581294374995,66.0,113.0
636,207.1475494520833,207.56768766874995,57.0,44.0
637,205.06421945208328,207.66664584374996,47.0,85.0
638,207.5642154520833,207.95310371874996,66.0,117.0
639,207.5642154520833,207.98435366874995,62.0,106.0
640,207.98088145208328,208.12845066041663,57.0,96.0
641,208.3975474520833,208.59199158541662,55.0,96.0
642,208.3975474520833,208.96178266041662,60.0,94.0
643,209.2308794520833,209.61455939374994,60.0,26.0
644,209.2308794520833,209.7378230854166,64.0,99.0
645,210.0642114520833,210.25344726041664,55.0,94.0
646,210.0642114520833,210.54164124374995,60.0,99.0
647,210.4808774520833,210.65969661041663,55.0,74.0
648,208.3975474520833,211.32983442708328,48.0,94.0
649,210.89754345208328,211.36629270208329,62.0,106.0
650,210.89754345208328,211.49302861041662,57.0,106.0
651,210.89754345208328,211.5121258020833,47.0,99.0
652,211.7308754520833,212.2951106604166,60.0,96.0
653,211.7308754520833,212.32115228541662,57.0,99.0
654,212.1475414520833,213.00691507708328,52.0,61.0
655,212.56420745208328,213.0277483770833,57.0,115.0
656,211.7308754520833,213.2065675354166,45.0,106.0
657,212.9808734520833,213.29510906041662,60.0,112.0
658,213.3975394520833,213.7117750604166,62.0,109.0
659,213.3975394520833,213.73955279374997,57.0,106.0
660,214.23087145208328,214.39927396041662,57.0,112.0
661,213.3975394520833,214.44788499374997,50.0,104.0
662,213.81420545208329,214.55552371041662,54.0,107.0
663,214.23087145208328,214.73781508541663,66.0,117.0
664,214.6475374520833,214.86802321041662,57.0,115.0
665,215.0642034520833,215.49996664374996,59.0,99.0
666,215.0642034520833,215.91142431874997,55.0,104.0
667,215.48086945208328,216.01732692708327,50.0,55.0
668,215.89753545208328,216.2412849020833,59.0,99.0
669,215.89753545208328,216.27427096041663,62.0,106.0
670,216.3142014520833,216.83503395208328,50.0,62.0
671,216.7308674520833,217.19788059374994,59.0,106.0
672,216.7308674520833,217.27947768541662,62.0,106.0
673,215.0642034520833,217.6944075770833,43.0,104.0
674,217.5641994520833,217.7048242270833,59.0,112.0
675,217.14753345208328,217.71871309374995,50.0,61.0
676,217.5641994520833,217.71871309374995,55.0,106.0
677,217.5641994520833,217.7412825020833,62.0,109.0
678,218.39753145208329,218.6266977520833,54.0,83.0
679,218.39753145208329,218.93398892708328,64.0,94.0
680,218.39753145208329,218.9773916354166,57.0,104.0
681,218.81419745208328,219.0589887270833,54.0,74.0
682,219.2308634520833,219.35759936041663,54.0,101.0
683,218.39753145208329,219.48780748541662,42.0,107.0
684,219.2308634520833,219.62496004374995,57.0,106.0
685,219.6475294520833,219.80898752708327,54.0,120.0
686,219.2308634520833,220.0121122020833,64.0,106.0
687,220.06419545208328,220.50690307708328,63.0,117.0
688,220.06419545208328,221.04162444374995,47.0,104.0
689,220.48086145208327,221.1023882354166,54.0,91.0
690,220.8975274520833,221.12495764374995,59.0,104.0
691,220.8975274520833,221.20481862708328,63.0,113.0
692,221.3141934520833,221.67530398541663,59.0,82.0
693,221.73085945208328,221.92530358541663,59.0,99.0
694,221.73085945208328,222.18051151041664,64.0,101.0
695,222.1475254520833,222.43224721874995,59.0,91.0
696,222.5641914520833,223.16141271874994,64.0,112.0
697,222.5641914520833,223.17530158541663,67.0,109.0
698,222.98085745208328,223.50516216874996,59.0,101.0
699,223.39752345208328,223.94786979374996,67.0,101.0
700,223.39752345208328,223.95134201041662,64.0,101.0
701,223.8141894520833,224.02425856041663,59.0,85.0
702,221.73085945208328,224.31766086874995,40.0,99.0
703,224.2308554520833,224.39925796041663,59.0,106.0
704,224.2308554520833,224.65967421041663,64.0,112.0
705,224.2308554520833,224.74821573541664,67.0,104.0
706,224.64752145208328,224.79682676874995,59.0,94.0
707,225.06418745208327,225.26036769374997,59.0,74.0
708,225.06418745208327,225.73432526874996,62.0,99.0
709,225.4808534520833,226.01383871041662,57.0,101.0
710,225.8975194520833,226.46175466041663,62.0,104.0
711,225.8975194520833,226.53119899374997,66.0,113.0
712,226.31418545208328,226.8454346020833,54.0,38.0
713,226.7308514520833,227.12494804374995,62.0,99.0
714,226.7308514520833,227.16487853541662,66.0,99.0
715,227.1475174520833,227.5919611854166,54.0,30.0
716,227.56418345208328,227.71348876874995,57.0,109.0
717,225.06418745208327,227.74300261041662,47.0,99.0
718,227.56418345208328,228.0225160520833,66.0,113.0
719,227.56418345208328,228.03814102708327,62.0,109.0
720,227.9808494520833,228.16487693541663,57.0,101.0
721,228.3975154520833,228.59890401874995,55.0,96.0
722,228.3975154520833,228.8923063270833,60.0,96.0
723,228.8141814520833,229.30202789374994,55.0,89.0
724,229.23084745208328,229.7169577854166,60.0,109.0
725,229.64751345208327,230.1214710270833,55.0,96.0
726,230.0641794520833,230.59890081874994,62.0,112.0
727,230.4808454520833,230.74126170208328,55.0,62.0
728,230.89751145208328,231.3402190770833,55.0,106.0
729,228.3975154520833,231.3454274020833,48.0,99.0
730,230.89751145208328,231.35931626874995,60.0,104.0
731,231.3141774520833,231.64056581874996,59.0,109.0
732,231.7308434520833,232.11973171874996,57.0,101.0
733,231.7308434520833,232.57632821041662,60.0,91.0
734,232.14750945208328,233.00514696874995,52.0,96.0
735,231.7308434520833,233.01035529374997,45.0,96.0
736,232.5641754520833,233.0277163770833,55.0,112.0
737,232.9808414520833,233.44264626874997,60.0,109.0
738,233.3975074520833,235.06069923541662,50.0,94.0
739,233.3975074520833,235.06069923541662,57.0,101.0
740,233.3975074520833,235.06069923541662,62.0,99.0
741,235.0641714520833,235.50167075208327,55.0,104.0
742,235.0641714520833,235.59194838541663,60.0,101.0
743,235.8975034520833,236.09889201874995,55.0,109.0
744,235.8975034520833,236.18743354374996,60.0,112.0
745,235.8975034520833,236.41486373541662,64.0,112.0
746,235.48083745208328,236.45305811874996,52.0,67.0
747,235.0641714520833,236.50166915208328,48.0,99.0
748,236.3141694520833,236.55028018541663,55.0,104.0
749,236.3141694520833,236.6631272270833,60.0,99.0
750,236.73083545208328,236.96868229374996,59.0,96.0
751,236.73083545208328,236.98430726874994,62.0,106.0
752,237.1475014520833,237.36798721041663,59.0,85.0
753,237.1475014520833,237.40270937708328,62.0,99.0
754,237.5641674520833,237.80027818541663,62.0,118.0
755,237.5641674520833,237.8037504020833,59.0,115.0
756,236.73083545208328,238.0589583270833,47.0,104.0
757,237.9808334520833,238.10930546874994,62.0,94.0
758,237.9808334520833,238.18222201874994,59.0,87.0
759,238.39749945208328,238.64576294374996,57.0,104.0
760,238.39749945208328,238.6579157020833,60.0,106.0
761,239.2308314520833,239.41833115208328,57.0,112.0
762,239.2308314520833,239.4339561270833,60.0,112.0
763,239.6474974520833,239.8315249354166,57.0,99.0
764,238.39749945208328,239.83326104374996,45.0,109.0
765,239.6474974520833,239.8766637520833,60.0,101.0
766,240.06487256249994,240.36833890416662,57.0,115.0
767,240.06487256249994,240.3818004145833,62.0,115.0
768,240.52218473749994,240.8087226020833,57.0,109.0
769,240.52218473749994,240.82218411249997,62.0,109.0
770,240.06487256249994,240.8760301541666,50.0,118.0
771,240.98372223749996,241.68756692499994,59.0,106.0
772,240.98372223749996,241.68756692499994,64.0,104.0
773,240.98372223749996,241.89951708124997,40.0,106.0
774,241.44525973749995,241.89951708124997,47.0,99.0
775,241.90308850624996,242.40130229374998,61.0,96.0
776,241.90308850624996,242.72987339374995,57.0,94.0
777,242.33165950624996,242.89773036874996,52.0,69.0
778,242.76023050624997,243.20665863124998,64.0,101.0
779,242.76023050624997,243.24415859374997,61.0,89.0
780,243.18880150624997,243.70844384374996,52.0,44.0
781,243.61737250624998,244.24237188124997,57.0,91.0
782,243.61737250624998,244.28344326874998,61.0,99.0
783,244.47451450624996,244.64936756249998,61.0,109.0
784,241.90308850624996,244.66477850624997,45.0,101.0
785,244.47451450624996,244.6716278145833,57.0,106.0
786,244.04594350624996,245.04320279166663,52.0,40.0
787,245.2983395270833,245.84285953958332,59.0,112.0
788,245.2983395270833,245.8942293520833,66.0,104.0
789,245.2983395270833,246.24525640416664,44.0,101.0
790,246.1202565270833,246.5363520083333,59.0,101.0
791,246.5312150270833,246.6750505020833,56.0,113.0
792,246.1202565270833,246.86683113541665,66.0,101.0
793,246.9421735270833,247.34232765624998,65.0,96.0
794,246.9421735270833,247.51662334374998,61.0,99.0
795,247.36345440624999,247.84760909374998,56.0,96.0
796,246.9421735270833,248.00782028125,49.0,104.0
797,247.78598940625,248.22436946874998,68.0,120.0
798,248.20852440624998,248.50782003125,61.0,109.0
799,248.63105940625,249.11697465625,66.0,94.0
800,249.05359440624997,249.56239696875,61.0,94.0
801,249.47612940624998,249.98845309375,66.0,112.0
802,249.47612940624998,250.02542490624998,69.0,106.0
803,249.89866440625,250.36345290625,61.0,91.0
804,250.32119940624997,250.91274840625,66.0,101.0
805,250.32119940624997,250.91803009375,69.0,101.0
806,250.74373440624998,251.08352296874997,61.0,58.0
807,248.63105940625,251.33000171874997,42.0,101.0
808,251.16626940625,251.52718471875,66.0,106.0
809,251.16626940625,251.75781840624998,69.0,109.0
810,251.58880440624998,251.80887471875,61.0,76.0
811,252.01133940625,252.33880403125,59.0,101.0
812,252.01133940625,252.62225459374997,64.0,106.0
813,252.01133940625,252.67507146875,68.0,96.0
814,252.85640940624998,253.07295859374997,59.0,109.0
815,252.85640940624998,253.53193463541663,64.0,112.0
816,253.27508557291665,253.7254275958333,59.0,73.0
817,253.68604407291664,254.27337226249998,64.0,96.0
818,252.85640940624998,254.3418653458333,68.0,113.0
819,254.09700257291664,254.5113857270833,59.0,44.0
820,252.01133940625,254.60898837083332,49.0,85.0
821,254.50796107291666,254.8915223395833,68.0,117.0
822,254.50796107291666,254.9223442270833,64.0,106.0
823,254.91891957291665,255.06446737499996,59.0,96.0
824,255.32987807291664,255.52165870624998,57.0,96.0
825,255.32987807291664,255.88638437499998,62.0,94.0
826,256.1517950729166,256.5302193583333,62.0,26.0
827,256.1517950729166,256.65179458125,66.0,99.0
828,256.97371207291667,257.160355725,57.0,94.0
829,256.97371207291667,257.4446020208333,62.0,99.0
830,257.38467057291666,257.5610402625,57.0,74.0
831,255.32987807291664,258.22199851666664,50.0,94.0
832,257.79562907291665,258.25795738541666,64.0,106.0
833,257.79562907291665,258.3829572625,59.0,106.0
834,257.79562907291665,258.40179286041666,49.0,99.0
835,258.61754607291664,259.174052375,62.0,96.0
836,258.61754607291664,259.19973728124995,59.0,99.0
837,259.02850457291663,259.87610647916665,54.0,61.0
838,259.4394630729166,259.89665440416667,59.0,115.0
839,258.61754607291664,260.07302409374995,47.0,106.0
840,259.8504215729166,260.160352775,62.0,112.0
841,260.26138007291667,260.57131127499997,64.0,109.0
842,260.26138007291667,260.5987085083333,59.0,106.0
843,261.09944186458335,261.27265597708333,59.0,112.0
844,260.26138007291667,261.32265592708336,52.0,104.0
845,260.67233857291666,261.43337010208336,56.0,107.0
846,261.09944186458335,261.62086991458335,68.0,117.0
847,261.52801286458333,261.75479835208336,59.0,115.0
848,261.9565838645833,262.40479770208333,61.0,99.0
849,261.9565838645833,262.81828955624997,57.0,104.0
850,262.38515486458334,262.92419229166666,52.0,55.0
851,262.80440067291664,263.1481505354166,61.0,99.0
852,262.80440067291664,263.1811366333333,64.0,106.0
853,263.22106717291666,263.74190029791663,52.0,62.0
854,263.6377336729166,264.104747375,61.0,106.0
855,263.6377336729166,264.1863445645833,64.0,106.0
856,261.9565838645833,264.6012749541666,45.0,104.0
857,264.47106667291666,264.61169161666663,61.0,112.0
858,264.05440017291664,264.62558049999996,52.0,61.0
859,264.47106667291666,264.62558049999996,57.0,106.0
860,264.47106667291666,264.64814993541665,64.0,109.0
861,265.30439967291665,265.5335662479166,56.0,83.0
862,265.30439967291665,265.8408577916666,66.0,94.0
863,265.30439967291665,265.88426055208333,59.0,104.0
864,265.72106617291666,265.96585774166664,56.0,74.0
865,266.1377326729166,266.26446873333333,56.0,101.0
866,265.30439967291665,266.3946770145833,44.0,107.0
867,266.1377326729166,266.53182973749995,59.0,106.0
868,266.55439917291665,266.7158574416666,56.0,120.0
869,266.1377326729166,266.91898236041663,66.0,106.0
870,266.97106567291667,267.41377382916664,65.0,117.0
871,266.97106567291667,267.9484958375,49.0,104.0
872,267.3877321729166,268.0092597020833,56.0,91.0
873,267.80439867291665,268.0318291375,61.0,104.0
874,267.80439867291665,268.11169021666666,65.0,113.0
875,268.2210651729166,268.5821761395833,61.0,82.0
876,268.63773167291663,268.8321760395833,61.0,99.0
877,268.63773167291663,269.0873842708333,66.0,101.0
878,269.05439817291665,269.33912028124996,61.0,91.0
879,269.4710646729166,270.06828665625,66.0,112.0
880,269.4710646729166,270.0821755395833,69.0,109.0
881,269.88773117291663,270.41203651874997,61.0,101.0
882,270.30439767291665,270.85474467499995,69.0,101.0
883,270.30439767291665,270.8582168958333,66.0,101.0
884,270.7210641729166,270.9311335333333,61.0,85.0
885,268.63773167291663,271.22453619375,42.0,99.0
886,271.13773067291663,271.3061333833333,61.0,106.0
887,271.13773067291663,271.5665499458333,66.0,112.0
888,271.13773067291663,271.6550915770833,69.0,104.0
889,271.55439717291665,271.70370266875,61.0,94.0
890,271.9710636729166,272.16724415,61.0,74.0
891,271.9710636729166,272.64120229375,64.0,99.0
892,272.38773017291663,272.9207160708333,59.0,101.0
893,272.80439667291665,273.36863255833333,64.0,104.0
894,272.80439667291665,273.43807697499994,68.0,113.0
895,273.2210631729166,273.75231296041665,56.0,38.0
896,273.63772967291663,274.03182673749996,64.0,99.0
897,273.63772967291663,274.0717572770833,68.0,99.0
898,274.05439617291665,274.4988404395833,56.0,30.0
899,274.4710626729166,274.62036816874996,59.0,109.0
900,271.9710636729166,274.6498820458333,49.0,99.0
901,274.4710626729166,274.92939582291666,68.0,113.0
902,274.4710626729166,274.9450208166666,64.0,109.0
903,274.88772917291664,275.0717568770833,59.0,101.0
904,275.30439567291666,275.50578448125,57.0,96.0
905,275.30439567291666,275.79918714166666,62.0,96.0
906,275.7210621729166,276.2089092,57.0,89.0
907,276.13772867291664,276.6238395895833,62.0,109.0
908,276.55439517291666,277.02835331666665,57.0,96.0
909,276.9710616729166,277.50578368124997,64.0,112.0
910,277.38772817291664,277.6481447354166,57.0,62.0
911,277.80439467291666,278.24710282916664,57.0,106.0
912,275.30439567291666,278.25231116041664,50.0,99.0
913,277.80439467291666,278.26620004374996,62.0,104.0
914,278.2210611729166,278.54744993124996,61.0,109.0
915,278.63772767291664,279.02661640624996,59.0,101.0
916,278.63772767291664,279.4832134458333,62.0,91.0
917,279.05439417291666,279.91203271874997,54.0,96.0
918,278.63772767291664,279.91724105,47.0,96.0
919,279.4710606729166,279.9346021541666,57.0,112.0
920,279.88772717291664,280.34953254374994,62.0,109.0
921,280.30439367291666,281.9675874520833,52.0,94.0
922,280.30439367291666,281.9675874520833,59.0,101.0
923,280.30439367291666,281.9675874520833,64.0,99.0
924,282.38772617291664,282.9241842916666,57.0,91.0
925,282.80439267291666,283.2696702645833,59.0,106.0
926,283.2210591729166,283.7054339791666,61.0,101.0
927,282.80439267291666,283.72973952499996,52.0,28.0
928,284.05439217291666,284.9311279333333,52.0,31.0
929,281.9710596729166,285.0196695645833,45.0,99.0
930,284.88772517291665,285.35473887499995,57.0,91.0
931,284.4710586729166,285.4276555125,61.0,65.0
932,285.7210581729166,286.1811274333333,57.0,96.0
933,283.63772567291664,286.29918294166663,64.0,101.0
934,286.13772467291665,286.5405022895833,62.0,101.0
935,286.55439117291667,287.07522429791663,57.0,85.0
936,285.3043916729166,288.08390445,41.0,96.0
937,287.38772417291665,288.1151544375,57.0,94.0
938,286.97105767291663,288.36689044791666,69.0,104.0
939,287.8043906729166,288.41723764999995,65.0,87.0
940,288.63772367291665,289.5144594333333,61.0,68.0
941,289.0543901729166,290.29744523125,57.0,87.0
942,289.88772317291665,290.8773061104166,61.0,72.0
943,289.0543901729166,291.0856393604166,52.0,89.0
944,288.63772367291665,291.2175837520833,45.0,87.0
945,290.72105617291663,291.28702816875,57.0,74.0
946,289.47105667291663,291.3651531375,64.0,91.0
947,290.3043896729166,291.3859864625,69.0,89.0
948,291.13772267291665,291.4623753208333,61.0,79.0
949,291.97105567291663,292.896402525,57.0,104.0
950,291.97105567291663,293.0665413458333,42.0,49.0
951,292.38772217291665,293.1845968541666,49.0,83.0
952,292.8043886729166,293.2852912583333,54.0,110.0
953,293.22105517291664,294.5335546479166,61.0,93.0
954,294.0543881729166,294.66723514999995,56.0,72.0
955,293.63772167291665,294.8217489770833,40.0,74.0
956,294.47105467291664,294.9137628291666,52.0,99.0
957,294.88772117291666,295.05785999374996,59.0,91.0
958,295.25056824999996,296.1550817770833,62.0,104.0
959,295.69848473749994,296.2540400708333,54.0,70.0
960,295.25577658124996,296.3755678,47.0,78.0
961,296.09431791249995,296.97626200416664,59.0,96.0
962,296.51619274374997,297.0231369854166,62.0,82.0
963,297.35473407499995,297.95369216874997,47.0,54.0
964,296.9571647895833,298.09952544374994,40.0,78.0
965,296.97105367291664,298.2436226083333,64.0,89.0
966,297.7592478020833,298.6238307895833,52.0,96.0
967,298.18285874375,298.6654974395833,56.0,113.0
968,298.61515023749996,298.729733525,40.0,73.0
969,298.5561224833333,298.78702516874995,59.0,89.0
970,298.71931686249997,299.14119169375,64.0,104.0
971,299.3946638145833,299.8113303145833,56.0,41.0
972,299.6151498375,301.1290379458333,59.0,78.0
973,299.1654972395833,301.2644543958333,52.0,19.0
974,300.1915384958333,302.0173216208333,76.0,51.0
975,299.8686219583333,302.1640605458333,64.0,64.0
976,303.31046900416663,303.62296869166664,59.0,85.0
977,303.49607487916666,303.72902919166665,61.0,99.0
978,303.10592375416667,303.97713500416666,52.0,74.0
979,303.71766556666665,304.01122587916666,64.0,101.0
980,303.91652900416665,304.25554381666666,57.0,71.0
981,304.42659012916664,304.53010575416664,57.0,85.0
982,305.22932450416664,305.35237137916664,69.0,38.0
983,305.33088700416664,305.43049637916664,71.0,37.0
984,305.46955887916664,305.61604325416664,76.0,87.0
985,305.60432450416664,305.71369950416664,73.0,49.0
986,305.65315262916664,305.78401200416664,71.0,87.0
987,305.06135575416664,305.87580887916664,49.0,26.0
988,305.87776200416664,306.3237255458333,69.0,48.0
989,304.1589530041667,308.09455887916664,52.0,59.0
990,302.89001487916664,308.1487255458333,45.0,76.0
991,306.17463700416664,308.43830852916665,81.0,80.0
