,start,end,pitch,velocity
0,0.2625760416666667,0.588723125,60.0,107.0
1,0.5942510416666668,0.7504146875000001,62.0,93.0
2,0.7600885416666667,0.9010504166666667,60.0,86.0
3,0.9259260416666667,1.2741847916666669,57.0,95.0
4,1.2576010416666668,1.5063572916666668,60.0,97.0
5,1.9209510416666669,2.240188229166667,67.0,93.0
6,2.252626041666667,2.820619479166667,62.0,93.0
7,2.9159760416666667,3.1661142708333334,65.0,100.0
8,3.247651041666667,3.3872309375,67.0,81.0
9,3.4134885416666667,3.5516864583333336,65.0,69.0
10,3.579326041666667,3.9123830208333334,62.0,93.0
11,3.911001041666667,4.237148125,65.0,96.0
12,4.242676041666667,4.538419583333334,69.0,99.0
13,4.574351041666667,4.8548928125,72.0,100.0
14,4.906026041666667,5.438088020833334,67.0,100.0
15,5.569376041666667,5.7573252083333335,72.0,112.0
16,5.901051041666667,5.978441875000001,72.0,102.0
17,6.066888541666667,6.144279375000001,72.0,89.0
18,6.232726041666667,6.440022916666667,72.0,97.0
19,6.564401041666668,6.822831145833334,74.0,97.0
20,6.896076041666667,7.1019909375,69.0,99.0
21,7.227751041666667,7.414318229166668,72.0,100.0
22,7.559426041666668,7.817856145833334,67.0,92.0
23,7.891101041666667,8.120509583333334,69.0,92.0
24,8.554451041666667,8.638751770833334,62.0,122.0
25,8.720288541666667,8.844666666666667,62.0,85.0
26,8.886126041666667,9.0547275,60.0,96.0
27,8.222776041666668,9.2330028125,65.0,99.0
28,9.217801041666668,9.360144895833335,62.0,95.0
29,9.549476041666667,9.9461040625,60.0,96.0
30,14.524601041666667,14.606137812500002,74.0,99.0
31,14.690438541666667,14.812052708333335,74.0,81.0
32,14.856276041666668,15.008293750000002,72.0,97.0
33,15.187951041666668,15.309565208333334,74.0,95.0
34,15.519626041666667,15.749034583333335,69.0,100.0
35,19.83140104166667,19.899118020833335,72.0,93.0
36,19.99723854166667,20.125762604166667,72.0,73.0
37,20.163076041666667,20.297128020833334,69.0,95.0
38,20.494751041666667,20.595635520833333,72.0,95.0
39,20.826426041666668,21.022667083333335,67.0,93.0
40,25.80155104166667,25.931457083333335,60.0,107.0
41,26.133226041666667,26.275569895833335,69.0,99.0
42,26.464901041666668,26.592043125000004,67.0,95.0
43,26.79657604166667,26.947211770833334,65.0,88.0
44,30.445001041666668,30.519627916666668,74.0,112.0
45,30.61083854166667,30.721396875000003,74.0,81.0
46,30.77667604166667,30.877560520833335,72.0,97.0
47,31.10835104166667,31.218909375000003,74.0,99.0
48,31.44002604166667,31.55611229166667,69.0,85.0
49,31.77170104166667,31.873967500000003,67.0,90.0
50,32.10337604166667,32.2678315625,69.0,102.0
51,36.41515104166667,36.542293125,74.0,112.0
52,36.74682604166667,36.880878020833336,74.0,122.0
53,40.06357604166667,40.26396302083334,67.0,99.0
54,41.05860104166667,41.1318459375,69.0,97.0
55,41.22443854166667,41.34052479166667,69.0,81.0
56,41.39027604166667,41.5049803125,67.0,102.0
57,41.72195104166667,41.8242175,69.0,100.0
58,42.05362604166667,42.164184375000005,67.0,112.0
59,47.02875104166667,47.309292812500004,72.0,97.0
60,47.36042604166667,47.682427187500004,81.0,100.0
61,47.69210104166667,48.02515802083334,79.0,97.0
62,48.02377604166667,49.087900000000005,77.0,95.0
63,51.008851041666674,51.30459458333334,72.0,99.0
64,51.34052604166667,51.604484062500006,74.0,100.0
65,51.67220104166667,51.98314635416667,72.0,96.0
66,52.00387604166667,53.04588833333334,77.0,112.0
67,53.33057604166667,53.991162083333336,62.0,107.0
68,53.99392604166667,54.32283708333334,69.0,102.0
69,54.32560104166667,54.552245625000005,67.0,107.0
70,54.65727604166667,55.25981895833334,67.0,102.0
71,55.32062604166667,55.606695729166674,62.0,117.0
72,55.65230104166667,56.000559791666674,60.0,86.0
73,55.98397604166667,56.91543000000001,65.0,90.0
74,56.97900104166667,57.05777385416667,62.0,127.0
75,57.14483854166667,57.285800416666675,62.0,90.0
76,57.310676041666675,57.559432291666674,60.0,97.0
77,57.64235104166667,57.80404260416667,62.0,95.0
78,57.97402604166667,58.55860322916667,60.0,112.0
79,62.26375154166667,62.34479553958334,74.0,99.0
80,62.42858679166667,62.549465975000004,74.0,81.0
81,62.59342204166667,62.74452102083333,72.0,97.0
82,62.92309254166667,63.043971725000006,74.0,95.0
83,63.25276304166667,63.4807851375,69.0,100.0
84,67.53847954166667,67.60578726875,72.0,93.0
85,67.70331479166667,67.83106211041667,72.0,73.0
86,67.86815004166667,68.00139186875,69.0,95.0
87,68.19782054166667,68.29809531875,72.0,95.0
88,68.52749104166666,68.7225460875,67.0,93.0
89,73.47254854166667,73.6016694875,60.0,107.0
90,73.80221904166666,73.94370263125,69.0,99.0
91,74.13188954166667,74.25826323333334,67.0,95.0
92,74.46156004166667,74.61128539375,65.0,88.0
93,78.09339854166666,78.16798412916667,74.0,112.0
94,78.25914429166666,78.36964145833333,74.0,81.0
95,78.42489004166666,78.52571870624999,72.0,97.0
96,78.75638154166667,78.86687870833333,74.0,99.0
97,79.08787304166667,79.20389506666666,69.0,85.0
98,79.41936454166667,79.52157442083333,67.0,90.0
99,79.75085604166667,79.91522057708333,69.0,102.0
100,84.06024554166666,84.18731728333333,74.0,112.0
101,84.39173704166666,84.52571485624999,74.0,122.0
102,87.70665204166667,87.90692815624999,67.0,99.0
103,88.70112654166667,88.77433091458333,69.0,97.0
104,88.86687229166667,88.98289431666666,69.0,81.0
105,89.03261804166667,89.14725885208333,67.0,102.0
106,89.36410954166666,89.46631942083333,69.0,100.0
107,89.69560104166666,89.80609820833334,67.0,112.0
108,94.66797354166667,94.94836010208333,72.0,97.0
109,94.99946504166667,95.32128803958332,81.0,100.0
110,95.33095654166667,95.66382925625,79.0,97.0
111,95.66244804166666,96.72598327083332,77.0,95.0
112,98.64587154166666,98.92211445833334,72.0,100.0
113,98.97736304166666,99.26603688958333,74.0,96.0
114,99.30885454166666,99.59476596041667,72.0,99.0
115,99.64034604166666,100.75573123333332,77.0,117.0
116,100.95902804166666,101.28320403333333,60.0,107.0
117,101.28869854166666,101.44391840208333,62.0,93.0
118,101.45353379166666,101.59364375416666,60.0,86.0
119,101.61836904166665,101.96452306666666,57.0,95.0
120,101.94803954166666,102.19529241666666,60.0,97.0
121,102.27771004166667,102.54282006874999,65.0,99.0
122,102.60738054166666,102.92468839791665,67.0,93.0
123,102.93705104166666,103.50161177291666,62.0,93.0
124,103.59639204166666,103.84501854374999,65.0,100.0
125,103.92606254166665,104.06479887708332,67.0,81.0
126,104.09089779166666,104.22826049999999,65.0,69.0
127,104.25573304166666,104.58677716874999,62.0,93.0
128,104.58540354166666,104.90957953333333,65.0,96.0
129,104.91507404166666,105.20903023749999,69.0,99.0
130,105.24474454166666,105.52359083958332,72.0,100.0
131,105.57441504166665,106.10326146874999,67.0,100.0
132,106.23375604166667,106.42056932499999,72.0,112.0
133,106.56342654166666,106.64034965833332,72.0,102.0
134,106.72826179166665,106.80518490833333,72.0,89.0
135,106.89309704166666,107.09914110416666,72.0,97.0
136,107.22276754166666,107.47963580624999,74.0,97.0
137,107.55243804166666,107.75710847708332,69.0,99.0
138,107.88210854166665,108.06754819791666,72.0,100.0
139,108.21177904166666,108.46864730624999,67.0,92.0
140,108.54144954166667,108.76947163749999,69.0,92.0
141,109.20079054166666,109.28458179375,62.0,122.0
142,109.36562579166666,109.48925222916665,62.0,85.0
143,109.53046104166665,109.69804354583333,60.0,96.0
144,108.87112004166666,109.87524143958332,65.0,99.0
145,109.86013154166666,110.00161513124999,62.0,95.0
146,110.18980204166667,110.58403301458333,60.0,96.0
147,115.13485954166666,115.21590353958332,74.0,99.0
148,115.29969479166665,115.420573975,74.0,81.0
149,115.46453004166666,115.61562902083332,72.0,97.0
150,115.79420054166665,115.915079725,74.0,95.0
151,116.12387104166666,116.35189313749999,69.0,100.0
152,120.41505054166666,120.48273005624999,72.0,93.0
153,120.58079629166666,120.70924924791666,72.0,73.0
154,120.74654204166666,120.88051985625,69.0,95.0
155,121.07803354166667,121.17886220625,72.0,95.0
156,121.40952504166667,121.6056575125,67.0,93.0
157,126.38189754166666,126.5117317125,60.0,107.0
158,126.71338904166666,126.85565414375,69.0,99.0
159,127.04488054166666,127.17195228333333,67.0,95.0
160,127.37637204166667,127.52642711875001,65.0,88.0
161,131.01073354166667,131.08507275416667,74.0,112.0
162,131.17593179166667,131.28606395833333,74.0,81.0
163,131.34113004166667,131.44162564375,72.0,97.0
164,131.67152654166668,131.78165870833334,74.0,99.0
165,132.00192304166666,132.11756181666667,69.0,85.0
166,132.33231954166666,132.43419179583333,67.0,90.0
167,132.66271604166667,132.82653763958334,69.0,102.0
168,136.95424054166665,137.08061423333334,74.0,112.0
169,137.28391104166667,137.41715286875,74.0,122.0
170,140.58061604166667,140.77979196875,67.0,99.0
171,141.56962754166665,141.64242977708332,69.0,97.0
172,141.73446279166666,141.84984746666666,69.0,81.0
173,141.89929804166667,142.01330908958332,67.0,102.0
174,142.22896854166666,142.33061694583333,69.0,100.0
175,142.55863904166665,142.66852920833333,67.0,112.0
176,147.50369654166667,147.78254283958333,72.0,97.0
177,147.83336704166666,148.15342215208332,81.0,100.0
178,148.16303754166665,148.49408166875,79.0,97.0
179,148.49270804166667,149.55040089583332,77.0,95.0
180,151.45974254166666,151.7536987375,72.0,99.0
181,151.78941304166665,152.05177581458332,74.0,100.0
182,152.11908354166667,152.42814963541667,72.0,96.0
183,152.44875404166666,153.4844688625,77.0,112.0
184,156.73447054166667,157.06414104166666,72.0,90.0
185,157.06414104166666,157.37870164375,74.0,83.0
186,157.39381154166665,157.75782271875,72.0,82.0
187,157.72348204166667,158.52155937708332,77.0,72.0
