,start,end,pitch,velocity
0,10.876176041666668,11.688779791666667,60.0,97.0
1,11.871201041666668,12.173854479166668,57.0,100.0
2,12.202876041666668,12.616087812500002,60.0,112.0
3,12.534551041666667,12.813710833333335,62.0,95.0
4,12.866226041666668,13.15091375,65.0,99.0
5,13.197901041666668,13.443893333333335,67.0,93.0
6,13.529576041666667,14.210891770833335,69.0,102.0
7,16.182976041666667,16.592041875,72.0,117.0
8,16.846326041666668,17.137923645833336,72.0,112.0
9,17.17800104166667,17.426757291666668,74.0,89.0
10,17.50967604166667,17.855170833333336,69.0,95.0
11,17.84135104166667,18.10254510416667,67.0,89.0
12,18.173026041666667,18.381704895833334,65.0,89.0
13,18.504701041666667,18.647044895833336,65.0,89.0
14,18.67053854166667,18.875071458333334,69.0,83.0
15,18.836376041666668,19.932285520833336,67.0,92.0
16,21.48977604166667,22.469599270833335,67.0,99.0
17,22.484801041666667,22.78745447916667,69.0,95.0
18,22.816476041666668,23.354065937500003,72.0,102.0
19,23.47982604166667,24.118300416666667,69.0,122.0
20,24.143176041666667,24.469323125000003,67.0,117.0
21,24.474851041666668,24.791324270833336,65.0,102.0
22,24.806526041666668,25.1202353125,62.0,93.0
23,25.13820104166667,25.508571458333336,60.0,93.0
24,25.46987604166667,26.453845208333334,62.0,99.0
25,26.79657604166667,27.21531572916667,65.0,97.0
26,27.45992604166667,27.790219062500004,62.0,95.0
27,27.79160104166667,28.018245625000002,60.0,89.0
28,28.123276041666667,28.445277187500004,57.0,95.0
29,28.454951041666668,28.78248010416667,60.0,89.0
30,28.78662604166667,29.069931770833335,62.0,96.0
31,29.11830104166667,29.415426562500002,65.0,88.0
32,29.44997604166667,30.707577083333337,60.0,90.0
33,32.10337604166667,32.610562395833334,60.0,100.0
34,32.76672604166667,33.04450385416667,57.0,89.0
35,33.09840104166667,33.391380625000004,60.0,89.0
36,33.430076041666666,34.022945104166666,62.0,93.0
37,34.09342604166667,34.285521145833336,65.0,107.0
38,34.75677604166667,35.09397895833334,67.0,107.0
39,35.08845104166667,35.38419458333333,69.0,85.0
40,35.42012604166667,35.72692541666667,65.0,89.0
41,35.75180104166667,36.02128697916667,67.0,95.0
42,36.08347604166667,36.844946562500006,69.0,122.0
43,37.410176041666666,37.747378958333336,67.0,97.0
44,37.74185104166667,38.07767197916667,69.0,97.0
45,38.07352604166667,38.52128729166667,74.0,90.0
46,38.73687604166667,39.096190625000006,72.0,117.0
47,39.06855104166667,39.306251458333335,69.0,107.0
48,39.40022604166667,39.66556604166667,67.0,95.0
49,39.73190104166667,40.033172500000006,65.0,96.0
50,40.06357604166667,40.471259895833334,67.0,107.0
51,42.71697604166667,43.07767260416667,65.0,97.0
52,43.04865104166667,43.56827520833334,67.0,99.0
53,43.71200104166667,43.99807072916667,69.0,107.0
54,44.04367604166667,44.43892208333334,72.0,122.0
55,44.70702604166667,45.00553354166667,72.0,112.0
56,45.03870104166667,45.34826437500001,69.0,97.0
57,45.37037604166667,45.6923771875,67.0,97.0
58,45.70205104166667,45.999176562500004,65.0,102.0
59,46.03372604166667,46.33223354166667,62.0,99.0
60,46.36540104166667,46.71918770833334,60.0,100.0
61,46.69707604166667,47.34660625,62.0,97.0
62,48.02377604166667,48.36927083333334,65.0,99.0
63,48.35545104166667,48.623555,67.0,96.0
64,48.68712604166667,48.953848020833334,69.0,102.0
65,49.01880104166667,49.34633010416667,72.0,97.0
66,49.35047604166667,49.687678958333336,67.0,102.0
67,49.68215104166667,49.93090729166667,60.0,99.0
68,50.01382604166667,50.34550104166667,72.0,117.0
69,50.34550104166667,50.62742479166667,67.0,96.0
70,50.67717604166667,52.1351640625,65.0,93.0
71,58.63737604166667,59.44506876666667,60.0,97.0
72,59.626387541666666,59.92721187291667,57.0,100.0
73,59.95605804166667,60.36677253958334,60.0,112.0
74,60.28572854166667,60.563201212500005,62.0,95.0
75,60.61539904166667,60.89836622083334,65.0,99.0
76,60.94506954166667,61.189575162500006,67.0,93.0
77,61.27474004166667,61.95193819375,69.0,102.0
78,63.912104041666666,64.31869765833333,72.0,117.0
79,64.57144504166666,64.86128035625,72.0,112.0
80,64.90111554166667,65.14836841666667,74.0,89.0
81,65.23078604166668,65.5741928125,69.0,95.0
82,65.56045654166667,65.82007206041666,67.0,89.0
83,65.89012704166667,66.09754473125,65.0,89.0
84,66.21979754166667,66.36128113125,65.0,89.0
85,66.38463279166668,66.5879296,69.0,83.0
86,66.54946804166667,67.63875431875,67.0,92.0
87,69.18683204166666,70.16073364375,67.0,99.0
88,70.17584354166667,70.47666787291666,69.0,95.0
89,70.50551404166667,71.03985497708334,72.0,102.0
90,71.16485504166667,71.79947075416666,69.0,122.0
91,71.82419604166667,72.14837203333333,67.0,117.0
92,72.15386654166667,72.46842714375,65.0,102.0
93,72.48353704166666,72.79535038958333,62.0,93.0
94,72.81320754166667,73.1813396,60.0,93.0
95,73.14287804166666,74.120900525,62.0,99.0
96,74.46156004166667,74.87776904791667,65.0,97.0
97,75.12090104166667,75.44919791458334,62.0,95.0
98,75.45057154166668,75.67584638333334,60.0,89.0
99,75.78024204166667,76.10029715208333,57.0,95.0
100,76.10991254166666,76.43546216041666,60.0,89.0
101,76.43958304166667,76.72117659375,62.0,96.0
102,76.76925354166667,77.06458336458334,65.0,88.0
103,77.09892404166666,78.35582931249999,60.0,90.0
104,79.75085604166667,80.25776179374999,60.0,100.0
105,80.41383904166666,80.69146317291667,57.0,89.0
106,80.74533054166666,81.03814803333333,60.0,89.0
107,81.07682204166666,81.66936309791666,62.0,93.0
108,81.73980504166667,81.93179386874999,65.0,107.0
109,82.40278804166667,82.7398044,67.0,107.0
110,82.73427954166667,83.0298594625,69.0,85.0
111,83.06577104166666,83.37240067916666,65.0,89.0
112,83.39726254166666,83.66659938541666,67.0,95.0
113,83.72875404166666,84.48980327708333,69.0,122.0
114,85.05472004166667,85.3917364,67.0,97.0
115,85.38621154166667,85.72184668541666,69.0,97.0
116,85.71770304166667,86.16521656666666,74.0,90.0
117,86.38068604166666,86.73980183333333,72.0,117.0
118,86.71217754166666,86.94974644999999,69.0,107.0
119,87.04366904166666,87.30886224166666,67.0,95.0
120,87.37516054166666,87.67626532083332,65.0,96.0
121,87.70665204166667,88.11411034375,67.0,107.0
122,90.35858404166666,90.71908104791666,65.0,97.0
123,90.69007554166666,91.209412225,67.0,99.0
124,91.35305854166667,91.63896996041666,69.0,107.0
125,91.68455004166667,92.0795774125,72.0,122.0
126,92.34753304166667,92.64587539166666,72.0,112.0
127,92.67902454166666,92.98841660833332,69.0,97.0
128,93.01051604166666,93.33233903958333,67.0,97.0
129,93.34200754166666,93.63896867708333,65.0,102.0
130,93.67349904166666,93.97184139166666,62.0,99.0
131,94.00499054166667,94.358581475,60.0,100.0
132,94.33648204166667,94.98565289583334,62.0,97.0
133,95.66244804166666,96.00775168749999,65.0,99.0
134,95.99393954166666,96.26189517083333,67.0,96.0
135,96.32543104166666,96.59200545624999,69.0,102.0
136,96.65692254166666,96.98427039791666,72.0,97.0
137,96.98841404166666,97.3254304,67.0,102.0
138,97.31990554166666,97.56852416666666,60.0,99.0
139,97.65139704166667,97.98288854166667,72.0,117.0
140,97.98288854166667,98.26465631666666,67.0,96.0
141,98.31438004166667,99.77084061458332,65.0,93.0
142,111.50848404166666,112.31617676666666,60.0,97.0
143,112.49749554166667,112.79831987291666,57.0,100.0
144,112.82716604166666,113.23788053958333,60.0,112.0
145,113.15683654166666,113.4343092125,62.0,95.0
146,113.48650704166666,113.76947422083333,65.0,99.0
147,113.81617754166666,114.0606831625,67.0,93.0
148,114.14584804166665,114.82304619374999,69.0,102.0
149,116.78321204166666,117.18980565833333,72.0,117.0
150,117.44255304166666,117.73238835625,72.0,112.0
151,117.77222354166666,118.01947641666666,74.0,89.0
152,118.10189404166665,118.4453008125,69.0,95.0
153,118.43156454166666,118.69118006041666,67.0,89.0
154,118.76123504166665,118.96865273124999,65.0,89.0
155,119.09090554166666,119.23238913124999,65.0,89.0
156,119.25574079166665,119.45925005,69.0,83.0
157,119.42057604166666,120.51587920624999,67.0,92.0
158,122.07250804166667,123.05178918125,67.0,99.0
159,123.06698254166666,123.36946853541666,69.0,95.0
160,123.39847404166666,123.93576651458334,72.0,102.0
161,124.06145704166667,124.69957817916666,69.0,122.0
162,124.72444004166667,125.05040668333334,67.0,117.0
163,125.05593154166667,125.37222968124999,65.0,102.0
164,125.38742304166666,125.70095875208332,62.0,93.0
165,125.71891454166666,126.08908004999999,60.0,93.0
166,126.05040604166666,127.033830825,62.0,99.0
167,127.37637204166667,127.79349762291668,65.0,97.0
168,128.03716504166667,128.36618488958334,62.0,95.0
169,128.36756154166667,128.59333248333334,60.0,89.0
170,128.69795804166668,129.01871797708333,57.0,95.0
171,129.02835454166666,129.35462108541668,60.0,89.0
172,129.35875104166666,129.64096471875,62.0,96.0
173,129.68914754166667,129.98512773958333,65.0,88.0
174,130.01954404166668,131.27229743750001,60.0,90.0
175,132.66271604166667,133.16794735625,60.0,100.0
176,133.32350904166668,133.60021611041668,57.0,89.0
177,133.65390554166666,133.94575578333334,60.0,89.0
178,133.98430204166667,134.57488578541668,62.0,93.0
179,134.64509504166668,134.83644968125,65.0,107.0
180,135.30588804166666,135.64105304999998,67.0,107.0
181,135.63555854166665,135.9295147375,69.0,85.0
182,135.96522904166667,136.27017425416668,65.0,89.0
183,136.29489954166667,136.56275682291667,67.0,95.0
184,136.62457004166666,137.38143856458333,69.0,122.0
185,137.94325204166665,138.27841705,67.0,97.0
186,138.27292254166667,138.60671392291667,69.0,97.0
187,138.60259304166667,139.04764821666666,74.0,90.0
188,139.26193404166665,139.61907708333334,72.0,117.0
189,139.59160454166667,139.8278684,69.0,107.0
190,139.92127504166666,140.18501144166666,67.0,95.0
191,140.25094554166665,140.55039624583333,65.0,96.0
192,140.58061604166667,140.98583603125,67.0,107.0
193,143.21798004166666,143.57649671041665,65.0,97.0
194,143.54765054166666,144.064134325,67.0,99.0
195,144.20699154166667,144.49133234791665,69.0,107.0
196,144.53666204166666,144.9295193875,72.0,122.0
197,145.19600304166667,145.49270649166667,72.0,112.0
198,145.52567354166666,145.83336600833331,69.0,97.0
199,145.85534404166665,146.17539915208332,67.0,97.0
200,146.18501454166665,146.48034436458332,65.0,102.0
201,146.51468504166667,146.81138849166666,62.0,99.0
202,146.84435554166666,147.196004075,60.0,100.0
203,147.17402604166665,147.81963077083333,62.0,97.0
204,148.49270804166667,148.8361148125,65.0,99.0
205,148.82237854166667,149.08886219583331,67.0,96.0
206,149.15204904166666,149.41715906874998,69.0,102.0
207,149.48171954166665,149.80726916041667,72.0,97.0
208,149.81139004166667,150.14655505,67.0,102.0
209,150.14106054166666,150.38831341666665,60.0,99.0
210,150.47073104166665,150.80040154166667,72.0,117.0
211,150.80040154166667,151.08062146666666,67.0,96.0
212,151.13007204166666,152.57924861458332,65.0,93.0
