,start,end,pitch,velocity
0,0.5942510416666668,1.1636264583333333,48.0,79.0
1,0.2625760416666667,1.2147596875000002,41.0,85.0
2,0.9259260416666667,1.6100057291666667,60.0,79.0
3,1.2576010416666668,1.6210615625000002,53.0,81.0
4,1.5892760416666667,2.4502490625,38.0,83.0
5,1.9209510416666669,2.613322604166667,45.0,66.0
6,2.252626041666667,3.0555559375000003,62.0,78.0
7,2.9159760416666667,3.724433854166667,38.0,83.0
8,3.247651041666667,3.790768854166667,45.0,48.0
9,3.579326041666667,4.1998346875,62.0,86.0
10,3.911001041666667,4.358762291666667,57.0,74.0
11,4.242676041666667,5.4850753125,43.0,81.0
12,4.574351041666667,5.5306806250000005,50.0,59.0
13,5.237701041666667,5.590105729166667,55.0,75.0
14,4.906026041666667,5.608071458333334,62.0,88.0
15,6.232726041666667,6.2866232291666675,55.0,52.0
16,5.569376041666667,6.7896636458333335,36.0,86.0
17,6.232726041666667,6.916805729166668,48.0,71.0
18,5.901051041666667,6.9416813541666675,43.0,67.0
19,6.232726041666667,7.433665937500001,60.0,78.0
20,6.564401041666668,7.447485729166667,55.0,81.0
21,6.896076041666667,7.755667083333334,36.0,70.0
22,7.227751041666667,7.779160729166668,43.0,40.0
23,7.559426041666668,8.1882265625,48.0,72.0
24,7.891101041666667,8.220012083333334,55.0,64.0
25,7.559426041666668,8.232449895833334,60.0,93.0
26,8.554451041666667,8.970426770833335,48.0,53.0
27,8.222776041666668,9.426479895833333,41.0,70.0
28,8.886126041666667,9.539802187500001,53.0,74.0
29,9.217801041666668,9.549476041666667,48.0,47.0
30,8.886126041666667,10.247375520833334,57.0,88.0
31,10.212826041666668,10.425650833333334,53.0,74.0
32,9.549476041666667,10.699282708333334,41.0,72.0
33,10.212826041666668,10.843008541666668,60.0,68.0
34,9.881151041666667,10.849918437500001,48.0,50.0
35,10.544501041666667,10.888613854166667,57.0,67.0
36,10.876176041666668,11.871201041666668,41.0,81.0
37,11.871201041666668,12.202876041666668,36.0,70.0
38,11.207851041666668,12.233279583333335,48.0,53.0
39,12.202876041666668,12.534551041666667,41.0,69.0
40,11.539526041666667,12.605031979166668,53.0,66.0
41,11.539526041666667,12.605031979166668,57.0,69.0
42,11.539526041666667,12.888337708333335,60.0,58.0
43,12.866226041666668,13.193755104166668,53.0,66.0
44,12.534551041666667,13.3623565625,41.0,58.0
45,12.534551041666667,13.550305729166668,48.0,58.0
46,13.197901041666668,13.911002291666668,60.0,64.0
47,14.192926041666668,14.470703854166668,53.0,76.0
48,13.529576041666667,14.524601041666667,41.0,67.0
49,13.861251041666668,14.8466021875,48.0,52.0
50,14.524601041666667,14.856276041666668,36.0,75.0
51,14.856276041666668,15.187951041666668,41.0,75.0
52,14.192926041666668,15.210062708333334,57.0,78.0
53,14.192926041666668,15.2777796875,60.0,73.0
54,15.519626041666667,15.728304895833334,53.0,75.0
55,15.519626041666667,15.851301041666668,57.0,74.0
56,15.187951041666668,15.995026875,41.0,60.0
57,15.187951041666668,16.159482395833333,48.0,39.0
58,15.519626041666667,16.182976041666667,60.0,81.0
59,12.866226041666668,16.182976041666667,65.0,67.0
60,16.182976041666667,17.17800104166667,41.0,82.0
61,16.514651041666667,17.476508541666668,48.0,43.0
62,17.17800104166667,17.50967604166667,36.0,71.0
63,16.846326041666668,17.757050312500002,53.0,72.0
64,17.50967604166667,17.84135104166667,41.0,65.0
65,16.846326041666668,17.987840833333333,57.0,71.0
66,17.84135104166667,18.305696041666668,48.0,65.0
67,18.173026041666667,18.4784434375,53.0,78.0
68,17.84135104166667,18.504701041666667,41.0,65.0
69,18.173026041666667,18.815646354166667,60.0,65.0
70,19.16805104166667,19.49972604166667,43.0,35.0
71,18.836376041666668,19.83140104166667,36.0,71.0
72,19.83140104166667,20.163076041666667,43.0,70.0
73,20.163076041666667,20.494751041666667,36.0,71.0
74,19.49972604166667,20.678554270833335,55.0,70.0
75,19.49972604166667,20.684082187500003,60.0,70.0
76,19.49972604166667,20.804314375,48.0,56.0
77,20.494751041666667,21.376453750000003,36.0,73.0
78,20.826426041666668,21.405475312500002,60.0,81.0
79,20.494751041666667,21.536763333333337,43.0,39.0
80,20.826426041666668,22.07020729166667,64.0,90.0
81,21.48977604166667,22.316199583333336,36.0,68.0
82,21.82145104166667,22.323109479166668,43.0,39.0
83,22.153126041666667,22.766724791666668,48.0,63.0
84,22.153126041666667,22.777780625000002,64.0,55.0
85,22.153126041666667,22.798510312500003,60.0,88.0
86,22.484801041666667,22.882811041666667,55.0,59.0
87,22.816476041666668,23.14815104166667,41.0,73.0
88,23.47982604166667,23.76589572916667,53.0,76.0
89,23.14815104166667,23.81150104166667,41.0,78.0
90,23.47982604166667,23.956608854166667,48.0,78.0
91,23.47982604166667,24.083750937500003,60.0,88.0
92,24.806526041666668,25.10917947916667,50.0,72.0
93,24.143176041666667,25.319240312500003,38.0,86.0
94,24.474851041666668,25.38695729166667,45.0,56.0
95,24.806526041666668,25.485077812500002,65.0,67.0
96,25.46987604166667,26.347432812500003,38.0,66.0
97,25.80155104166667,26.395802083333336,45.0,41.0
98,26.133226041666667,26.777228333333337,50.0,71.0
99,26.464901041666668,26.795194062500002,62.0,75.0
100,26.133226041666667,26.806249895833336,65.0,82.0
101,26.79657604166667,27.79160104166667,41.0,76.0
102,27.45992604166667,27.80818479166667,53.0,79.0
103,27.12825104166667,28.083198645833335,48.0,51.0
104,27.79160104166667,28.123276041666667,36.0,78.0
105,28.123276041666667,28.454951041666668,41.0,78.0
106,28.123276041666667,29.092043437500003,48.0,78.0
107,28.454951041666668,29.30072229166667,41.0,67.0
108,29.11830104166667,29.724989895833335,53.0,65.0
109,27.45992604166667,29.93505072916667,60.0,78.0
110,28.78662604166667,29.941960625000004,57.0,75.0
111,29.44997604166667,30.445001041666668,41.0,63.0
112,30.445001041666668,30.77667604166667,36.0,81.0
113,30.113326041666667,30.77667604166667,53.0,71.0
114,30.113326041666667,30.787731875000002,48.0,50.0
115,30.77667604166667,31.10835104166667,41.0,83.0
116,30.113326041666667,31.271424583333335,60.0,71.0
117,31.44002604166667,31.739915520833335,53.0,88.0
118,31.44002604166667,31.77170104166667,48.0,76.0
119,31.10835104166667,32.02460322916667,41.0,85.0
120,31.44002604166667,32.14068947916667,60.0,73.0
121,32.76672604166667,32.9353275,53.0,88.0
122,32.43505104166667,32.97402291666667,48.0,55.0
123,32.10337604166667,33.050031770833336,41.0,86.0
124,32.76672604166667,33.38585270833334,65.0,89.0
125,32.76672604166667,33.39276260416667,69.0,92.0
126,33.09840104166667,33.430076041666666,36.0,81.0
127,33.09840104166667,33.48120927083333,60.0,80.0
128,33.430076041666666,33.76175104166667,38.0,75.0
129,33.76175104166667,34.32283458333334,38.0,78.0
130,33.76175104166667,34.38087770833334,45.0,63.0
131,34.09342604166667,34.54118729166667,57.0,95.0
132,34.09342604166667,34.613050208333334,50.0,86.0
133,34.09342604166667,34.784415625,62.0,88.0
134,34.09342604166667,34.8134371875,65.0,85.0
135,35.08845104166667,35.497516875,50.0,72.0
136,34.75677604166667,35.5223925,43.0,74.0
137,35.42012604166667,35.7918784375,55.0,95.0
138,35.42012604166667,36.057218437500005,58.0,78.0
139,35.42012604166667,36.068274270833335,62.0,78.0
140,35.75180104166667,36.08347604166667,43.0,73.0
141,36.41515104166667,36.66805322916667,65.0,71.0
142,36.41515104166667,36.67358114583334,62.0,81.0
143,36.41515104166667,36.686018958333335,57.0,78.0
144,36.41515104166667,36.74682604166667,45.0,84.0
145,36.74682604166667,36.994200312500006,50.0,80.0
146,36.08347604166667,37.07850104166667,38.0,74.0
147,37.07850104166667,37.410176041666666,45.0,74.0
148,36.74682604166667,37.92841822916667,62.0,80.0
149,36.74682604166667,37.931182187500006,65.0,80.0
150,37.07850104166667,37.95882177083334,57.0,74.0
151,37.410176041666666,38.224161770833334,38.0,73.0
152,37.74185104166667,38.26838510416667,45.0,81.0
153,38.07352604166667,38.4204028125,50.0,77.0
154,38.07352604166667,38.72029229166667,65.0,89.0
155,38.07352604166667,38.723056250000006,62.0,92.0
156,38.40520104166667,38.85710822916667,57.0,92.0
157,39.06855104166667,39.47485291666667,50.0,74.0
158,38.73687604166667,39.53842395833334,43.0,77.0
159,39.40022604166667,40.077395833333334,58.0,99.0
160,39.40022604166667,40.10918135416667,62.0,88.0
161,39.73190104166667,40.116091250000004,55.0,90.0
162,40.39525104166667,40.89276354166667,43.0,62.0
163,40.06357604166667,41.05860104166667,36.0,83.0
164,40.72692604166667,41.31150322916667,48.0,85.0
165,41.05860104166667,41.39027604166667,43.0,80.0
166,40.72692604166667,41.564405416666666,55.0,76.0
167,41.39027604166667,41.72195104166667,36.0,76.0
168,40.72692604166667,41.79795989583334,60.0,85.0
169,40.72692604166667,41.86014895833333,64.0,85.0
170,42.05362604166667,42.33140385416667,48.0,86.0
171,41.72195104166667,42.537318750000004,36.0,86.0
172,42.38530104166667,42.75843541666667,55.0,95.0
173,42.05362604166667,42.78331104166667,60.0,99.0
174,42.05362604166667,42.7902209375,64.0,92.0
175,42.71697604166667,43.594532812500006,36.0,85.0
176,43.04865104166667,43.64566604166667,43.0,58.0
177,43.38032604166667,43.97319510416667,48.0,86.0
178,43.71200104166667,44.01327250000001,55.0,93.0
179,43.38032604166667,44.028474270833335,60.0,93.0
180,43.38032604166667,44.046440000000004,64.0,92.0
181,44.37535104166667,44.8756275,48.0,61.0
182,44.70702604166667,45.058048750000005,53.0,90.0
183,44.04367604166667,45.243233958333334,41.0,79.0
184,45.03870104166667,45.25567177083334,48.0,59.0
185,44.70702604166667,45.36623010416667,69.0,93.0
186,44.70702604166667,45.38004989583334,65.0,96.0
187,45.03870104166667,45.39663364583334,60.0,92.0
188,45.37037604166667,46.5215646875,38.0,81.0
189,46.03372604166667,46.623831145833336,50.0,76.0
190,45.70205104166667,46.6956940625,45.0,54.0
191,46.03372604166667,47.15727510416667,62.0,92.0
192,46.36540104166667,47.166948958333336,57.0,93.0
193,46.03372604166667,47.166948958333336,65.0,85.0
194,46.69707604166667,47.60227239583334,38.0,72.0
195,47.02875104166667,47.632675937500004,45.0,58.0
196,47.36042604166667,48.01824812500001,50.0,93.0
197,47.36042604166667,48.07767322916667,62.0,99.0
198,47.36042604166667,48.09840291666667,65.0,96.0
199,47.69210104166667,48.171647812500005,57.0,75.0
200,48.35545104166667,48.76589885416667,48.0,93.0
201,48.02377604166667,48.839143750000005,41.0,78.0
202,48.68712604166667,49.3242184375,60.0,97.0
203,49.01880104166667,49.397463333333334,53.0,88.0
204,48.68712604166667,49.43754072916667,57.0,96.0
205,49.68215104166667,50.15478791666667,43.0,66.0
206,49.35047604166667,50.164461770833334,36.0,89.0
207,50.01382604166667,50.5265403125,48.0,92.0
208,50.01382604166667,50.628806770833336,60.0,93.0
209,50.01382604166667,50.66197427083334,64.0,88.0
210,50.34550104166667,50.68546791666667,55.0,83.0
211,50.67717604166667,51.67220104166667,41.0,79.0
212,51.34052604166667,51.82974666666667,53.0,83.0
213,51.67220104166667,52.00387604166667,36.0,78.0
214,51.008851041666674,52.03427958333334,48.0,46.0
215,52.00387604166667,52.33555104166667,41.0,77.0
216,51.67220104166667,52.48480479166667,57.0,76.0
217,51.34052604166667,52.48895072916667,60.0,83.0
218,51.34052604166667,52.49171468750001,65.0,83.0
219,52.66722604166667,52.83997343750001,53.0,89.0
220,52.33555104166667,52.89939854166667,48.0,74.0
221,52.33555104166667,52.939475937500006,41.0,72.0
222,52.66722604166667,53.34715979166667,65.0,92.0
223,52.66722604166667,53.39000114583334,60.0,95.0
224,52.99890104166667,53.41073083333334,57.0,97.0
225,53.99392604166667,54.33112895833334,50.0,86.0
226,53.33057604166667,54.5563915625,38.0,90.0
227,53.66225104166667,54.59370500000001,45.0,35.0
228,53.99392604166667,54.66971385416667,65.0,86.0
229,54.32560104166667,54.6890615625,57.0,97.0
230,53.99392604166667,54.69873541666667,62.0,86.0
231,54.65727604166667,54.988951041666674,36.0,83.0
232,54.988951041666674,55.43809427083334,36.0,85.0
233,54.988951041666674,55.52101302083334,43.0,53.0
234,55.32062604166667,55.674412708333335,48.0,78.0
235,55.65230104166667,55.97153822916667,55.0,93.0
236,55.32062604166667,56.0240534375,60.0,96.0
237,55.32062604166667,56.0240534375,64.0,96.0
238,55.98397604166667,56.97900104166667,41.0,90.0
239,56.64732604166667,57.18767989583334,53.0,79.0
240,56.31565104166667,57.251250937500004,48.0,54.0
241,56.97900104166667,57.310676041666675,36.0,87.0
242,56.64732604166667,57.45578385416667,65.0,99.0
243,56.64732604166667,57.459929791666674,69.0,96.0
244,56.97900104166667,57.55528635416667,60.0,88.0
245,57.310676041666675,57.64235104166667,41.0,87.0
246,57.64235104166667,57.88419739583334,69.0,97.0
247,57.64235104166667,57.90907302083334,65.0,99.0
248,57.310676041666675,57.935330625000006,53.0,88.0
249,57.64235104166667,57.935330625000006,60.0,63.0
250,57.97402604166667,58.39000177083334,53.0,82.0
251,57.64235104166667,58.57518697916667,48.0,38.0
252,57.97402604166667,58.627702187500006,69.0,107.0
253,57.97402604166667,58.62908416666667,65.0,100.0
254,58.30570104166667,58.663474956250006,60.0,83.0
255,57.64235104166667,58.671716718750005,41.0,67.0
256,58.63737604166667,58.671716718750005,41.0,81.0
257,59.626387541666666,59.95605804166667,36.0,70.0
258,58.96704654166667,59.986277837500005,48.0,53.0
259,59.95605804166667,60.28572854166667,41.0,69.0
260,59.29671704166667,60.35578352291667,53.0,66.0
261,59.29671704166667,60.35578352291667,57.0,69.0
262,59.29671704166667,60.637377075,60.0,58.0
263,60.61539904166667,60.940948660416666,53.0,66.0
264,60.28572854166667,61.10853116458333,41.0,58.0
265,60.28572854166667,61.29534444791667,48.0,58.0
266,60.94506954166667,61.65386111666667,60.0,64.0
267,61.93408104166667,62.21018008541667,53.0,76.0
268,61.27474004166667,62.26375154166667,41.0,67.0
269,61.60441054166667,62.58380665208334,48.0,52.0
270,62.26375154166667,62.59342204166667,36.0,75.0
271,62.59342204166667,62.92309254166667,41.0,60.0
272,62.59342204166667,62.92309254166667,41.0,75.0
273,61.93408104166667,62.945070575,57.0,78.0
274,61.93408104166667,63.012378302083334,60.0,73.0
275,63.25276304166667,63.460180731250006,53.0,75.0
276,63.25276304166667,63.460180731250006,53.0,75.0
277,63.25276304166667,63.58243354166667,57.0,74.0
278,62.92309254166667,63.72529075833334,41.0,60.0
279,62.92309254166667,63.88875238125,48.0,39.0
280,62.92309254166667,63.88875238125,48.0,39.0
281,63.58243354166667,63.912104041666666,57.0,74.0
282,63.25276304166667,63.912104041666666,60.0,81.0
283,63.25276304166667,63.912104041666666,60.0,81.0
284,60.61539904166667,63.912104041666666,65.0,67.0
285,63.912104041666666,64.90111554166667,41.0,82.0
286,63.912104041666666,64.90111554166667,41.0,82.0
287,64.24177454166667,65.19781899166667,48.0,43.0
288,64.24177454166667,65.19781899166667,48.0,43.0
289,64.90111554166667,65.23078604166668,36.0,71.0
290,64.57144504166666,65.47666528958334,53.0,72.0
291,64.90111554166667,65.47666528958334,53.0,68.0
292,65.23078604166668,65.56045654166667,41.0,65.0
293,65.23078604166668,65.56045654166667,41.0,67.0
294,64.57144504166666,65.7060610125,57.0,71.0
295,64.57144504166666,65.7060610125,57.0,89.0
296,65.56045654166667,66.02199524166667,48.0,56.0
297,65.56045654166667,66.02199524166667,48.0,65.0
298,65.56045654166667,66.07007218958333,41.0,65.0
299,65.89012704166667,66.19369862708334,53.0,78.0
300,66.21979754166667,66.52336912708334,53.0,78.0
301,65.89012704166667,66.52886363541667,60.0,65.0
302,65.89012704166667,66.52886363541667,60.0,96.0
303,66.87913854166666,67.20880904166667,43.0,35.0
304,66.87913854166666,67.20880904166667,43.0,35.0
305,66.54946804166667,67.53847954166667,36.0,71.0
306,66.54946804166667,67.53847954166667,36.0,71.0
307,67.53847954166667,67.8406775,43.0,70.0
308,67.86815004166667,68.19782054166667,36.0,71.0
309,67.86815004166667,68.19782054166667,36.0,73.0
310,67.20880904166667,68.38051294375,55.0,70.0
311,67.53847954166667,68.38051294375,55.0,66.0
312,67.20880904166667,68.38600745208333,60.0,70.0
313,67.20880904166667,68.38600745208333,60.0,70.0
314,67.20880904166667,68.50551300833334,48.0,56.0
315,67.20880904166667,68.50551300833334,48.0,56.0
316,68.19782054166667,69.07419462083334,36.0,73.0
317,68.52749104166666,69.10304078958333,60.0,81.0
318,68.85716154166667,69.10304078958333,60.0,81.0
319,68.19782054166667,69.2335353625,43.0,39.0
320,68.19782054166667,69.2335353625,43.0,39.0
321,68.52749104166666,69.76375541666667,64.0,90.0
322,68.52749104166666,69.76375541666667,64.0,90.0
323,69.18683204166666,70.0082610375,36.0,68.0
324,69.18683204166666,70.0082610375,36.0,68.0
325,69.51650254166667,70.01512917291667,43.0,39.0
326,69.51650254166667,70.01512917291667,43.0,39.0
327,69.84617304166667,70.45606346666666,48.0,63.0
328,69.84617304166667,70.45606346666666,48.0,63.0
329,69.84617304166667,70.46705248333333,64.0,55.0
330,69.84617304166667,70.46705248333333,64.0,55.0
331,69.84617304166667,70.48765688958333,60.0,88.0
332,69.84617304166667,70.48765688958333,60.0,88.0
333,70.17584354166667,70.57144814166666,55.0,59.0
334,70.17584354166667,70.57144814166666,55.0,59.0
335,70.50551404166667,70.83518454166666,41.0,73.0
336,70.50551404166667,70.83518454166666,41.0,73.0
337,70.83518454166666,71.30908588541666,48.0,54.0
338,71.16485504166667,71.30908588541666,48.0,78.0
339,70.83518454166666,71.36815185,41.0,78.0
340,71.16485504166667,71.44919584791667,53.0,76.0
341,71.16485504166667,71.76513007708334,60.0,88.0
342,71.16485504166667,71.76513007708334,60.0,88.0
343,71.49452554166666,71.77886634791668,53.0,76.0
344,72.48353704166666,72.78436137291666,50.0,72.0
345,72.48353704166666,72.78436137291666,50.0,72.0
346,71.82419604166667,72.99315268958334,38.0,86.0
347,71.82419604166667,72.99315268958334,38.0,86.0
348,72.15386654166667,73.06046041666667,45.0,56.0
349,72.15386654166667,73.06046041666667,45.0,56.0
350,72.48353704166666,73.15798793958334,65.0,67.0
351,72.48353704166666,73.15798793958334,65.0,67.0
352,73.14287804166666,74.01513123958334,38.0,66.0
353,73.14287804166666,74.01513123958334,38.0,66.0
354,73.47254854166667,74.0632081875,45.0,41.0
355,73.47254854166667,74.0632081875,45.0,41.0
356,73.80221904166666,74.4423292625,50.0,71.0
357,73.80221904166666,74.4423292625,50.0,71.0
358,74.13188954166667,74.46018641458333,62.0,75.0
359,74.13188954166667,74.46018641458333,62.0,75.0
360,73.80221904166666,74.47117543125,65.0,82.0
361,73.80221904166666,74.47117543125,65.0,82.0
362,74.46156004166667,75.45057154166668,41.0,76.0
363,74.46156004166667,75.45057154166668,41.0,76.0
364,75.12090104166667,75.46705506666666,53.0,79.0
365,75.45057154166668,75.46705506666666,53.0,79.0
366,74.79123054166666,75.74040685625,48.0,51.0
367,74.79123054166666,75.74040685625,48.0,51.0
368,75.45057154166668,75.78024204166667,36.0,78.0
369,75.78024204166667,76.10991254166666,41.0,67.0
370,75.78024204166667,76.10991254166666,41.0,78.0
371,75.78024204166667,76.74315462708333,48.0,78.0
372,76.10991254166666,76.74315462708333,48.0,45.0
373,76.10991254166666,76.95057231666667,41.0,67.0
374,76.76925354166667,77.37378574374999,53.0,65.0
375,76.76925354166667,77.37378574374999,53.0,65.0
376,75.12090104166667,77.58373036041667,60.0,78.0
377,75.12090104166667,77.58373036041667,60.0,97.0
378,76.43958304166667,77.59063643333333,57.0,75.0
379,76.43958304166667,77.59063643333333,57.0,75.0
380,77.09892404166666,78.09339854166666,41.0,63.0
381,77.09892404166666,78.09339854166666,41.0,63.0
382,77.43041554166666,78.27019400833333,48.0,50.0
383,77.76190704166666,78.27019400833333,48.0,50.0
384,78.09339854166666,78.42489004166666,36.0,81.0
385,77.76190704166666,78.42489004166666,53.0,71.0
386,78.09339854166666,78.42489004166666,53.0,81.0
387,78.42489004166666,78.75638154166667,41.0,83.0
388,78.42489004166666,78.75638154166667,41.0,83.0
389,77.76190704166666,78.9193648625,60.0,71.0
390,77.76190704166666,78.9193648625,60.0,93.0
391,79.08787304166667,79.38759660625,53.0,88.0
392,78.75638154166667,79.41936454166667,48.0,85.0
393,79.08787304166667,79.41936454166667,48.0,76.0
394,78.75638154166667,79.63621523124999,41.0,85.0
395,79.41936454166667,79.71908810625,53.0,88.0
396,79.08787304166667,79.78814883541666,60.0,73.0
397,79.08787304166667,79.78814883541666,60.0,93.0
398,80.08234754166666,80.15278948541666,60.0,30.0
399,80.41383904166666,80.58234722083333,53.0,88.0
400,80.41383904166666,80.58234722083333,53.0,88.0
401,80.08234754166666,80.62102122916666,48.0,55.0
402,80.08234754166666,80.62102122916666,48.0,55.0
403,79.75085604166667,80.69698803125,41.0,86.0
404,79.75085604166667,80.69698803125,41.0,86.0
405,80.41383904166666,81.032623175,65.0,89.0
406,80.41383904166666,81.032623175,65.0,89.0
407,80.41383904166666,81.03952924791666,69.0,92.0
408,80.41383904166666,81.03952924791666,69.0,92.0
409,80.74533054166666,81.07682204166666,36.0,81.0
410,80.74533054166666,81.12792698125,60.0,80.0
411,80.74533054166666,81.12792698125,60.0,93.0
412,81.07682204166666,81.40831354166666,38.0,75.0
413,81.07682204166666,81.40831354166666,38.0,78.0
414,81.40831354166666,81.80472212708332,57.0,85.0
415,81.73980504166667,81.80472212708332,57.0,95.0
416,81.40831354166666,81.96908666249999,38.0,78.0
417,81.40831354166666,82.027097675,45.0,63.0
418,81.40831354166666,82.027097675,45.0,63.0
419,82.07129654166667,82.18731856666666,57.0,95.0
420,81.73980504166667,82.25914172499999,50.0,86.0
421,81.73980504166667,82.25914172499999,50.0,86.0
422,81.73980504166667,82.43041233333334,62.0,88.0
423,81.73980504166667,82.43041233333334,62.0,88.0
424,81.73980504166667,82.45941783958332,65.0,85.0
425,81.73980504166667,82.45941783958332,65.0,85.0
426,82.73427954166667,83.14311905833333,50.0,72.0
427,82.73427954166667,83.14311905833333,50.0,72.0
428,82.40278804166667,83.16798092083333,43.0,74.0
429,82.40278804166667,83.16798092083333,43.0,74.0
430,83.06577104166666,83.43731776458333,55.0,95.0
431,83.39726254166666,83.43731776458333,55.0,95.0
432,83.06577104166666,83.70251096458333,58.0,78.0
433,83.06577104166666,83.70251096458333,58.0,100.0
434,83.06577104166666,83.71356068125,62.0,78.0
435,83.06577104166666,83.71356068125,62.0,93.0
436,83.39726254166666,83.72875404166666,43.0,73.0
437,84.06024554166666,84.31300781041666,65.0,71.0
438,84.06024554166666,84.31300781041666,65.0,71.0
439,84.06024554166666,84.31853266875,62.0,81.0
440,84.06024554166666,84.31853266875,62.0,81.0
441,84.06024554166666,84.33096359999999,57.0,78.0
442,84.06024554166666,84.33096359999999,57.0,78.0
443,84.06024554166666,84.39173704166666,45.0,67.0
444,84.06024554166666,84.39173704166666,45.0,84.0
445,84.39173704166666,84.63897445208333,50.0,80.0
446,84.39173704166666,84.63897445208333,50.0,95.0
447,83.72875404166666,84.72322854166666,38.0,74.0
448,83.72875404166666,84.72322854166666,38.0,74.0
449,84.72322854166666,85.05472004166667,45.0,74.0
450,84.39173704166666,85.57267551041666,62.0,80.0
451,84.39173704166666,85.57267551041666,62.0,96.0
452,84.39173704166666,85.57543793958334,65.0,80.0
453,84.39173704166666,85.57543793958334,65.0,88.0
454,84.72322854166666,85.60306223125,57.0,74.0
455,84.72322854166666,85.60306223125,57.0,97.0
456,85.05472004166667,85.86825543124999,38.0,73.0
457,85.05472004166667,85.86825543124999,38.0,73.0
458,85.38621154166667,85.91245429791667,45.0,81.0
459,85.38621154166667,85.91245429791667,45.0,81.0
460,85.71770304166667,86.06438790208333,50.0,77.0
461,85.71770304166667,86.06438790208333,50.0,77.0
462,85.71770304166667,86.36411146666666,65.0,89.0
463,85.71770304166667,86.36411146666666,65.0,89.0
464,85.71770304166667,86.36687389583334,62.0,92.0
465,85.71770304166667,86.36687389583334,62.0,92.0
466,86.04919454166667,86.50085171041667,57.0,92.0
467,86.04919454166667,86.50085171041667,57.0,92.0
468,86.71217754166666,87.11825462916667,50.0,74.0
469,86.71217754166666,87.11825462916667,50.0,74.0
470,86.38068604166666,87.18179049999999,43.0,77.0
471,86.38068604166666,87.18179049999999,43.0,77.0
472,87.04366904166666,87.7204641875,58.0,99.0
473,87.04366904166666,87.7204641875,58.0,99.0
474,87.04366904166666,87.75223212291667,62.0,88.0
475,87.04366904166666,87.75223212291667,62.0,88.0
476,87.37516054166666,87.75913819583333,55.0,90.0
477,87.37516054166666,87.75913819583333,55.0,90.0
478,88.03814354166667,88.53538079166667,43.0,62.0
479,88.03814354166667,88.53538079166667,43.0,62.0
480,87.70665204166667,88.70112654166667,36.0,83.0
481,87.70665204166667,88.70112654166667,36.0,83.0
482,88.36963504166667,88.95388881041666,48.0,79.0
483,88.36963504166667,88.95388881041666,48.0,85.0
484,88.70112654166667,89.02433075416667,43.0,80.0
485,88.36963504166667,89.20665107916666,55.0,76.0
486,88.70112654166667,89.20665107916666,55.0,93.0
487,89.03261804166667,89.36410954166666,36.0,76.0
488,89.03261804166667,89.36410954166666,36.0,86.0
489,88.36963504166667,89.44007634375,60.0,85.0
490,88.36963504166667,89.44007634375,60.0,89.0
491,88.36963504166667,89.502231,64.0,85.0
492,88.36963504166667,89.502231,64.0,86.0
493,89.69560104166666,89.97322517291667,48.0,86.0
494,89.69560104166666,89.97322517291667,48.0,86.0
495,89.36410954166666,90.17902614583333,36.0,86.0
496,89.36410954166666,90.26466144999999,43.0,81.0
497,90.02709254166666,90.40002047916667,55.0,95.0
498,90.02709254166666,90.40002047916667,55.0,95.0
499,89.69560104166666,90.42488234166666,60.0,99.0
500,89.69560104166666,90.42488234166666,60.0,99.0
501,89.69560104166666,90.43178841458334,64.0,92.0
502,89.69560104166666,90.43178841458334,64.0,92.0
503,90.35858404166666,91.23565530208333,36.0,85.0
504,90.35858404166666,91.23565530208333,36.0,85.0
505,90.69007554166666,91.28676024166667,43.0,58.0
506,90.69007554166666,91.28676024166667,43.0,58.0
507,91.02156704166666,91.61410809791667,48.0,86.0
508,91.02156704166666,91.61410809791667,48.0,86.0
509,91.35305854166667,91.65416332083333,55.0,93.0
510,91.35305854166667,91.65416332083333,55.0,93.0
511,91.02156704166666,91.66935668125,60.0,93.0
512,91.02156704166666,91.66935668125,60.0,93.0
513,91.02156704166666,91.68731247083333,64.0,92.0
514,91.02156704166666,91.68731247083333,64.0,92.0
515,92.01604154166667,92.51604122083333,48.0,61.0
516,92.01604154166667,92.51604122083333,48.0,61.0
517,92.34753304166667,92.69836154583334,53.0,90.0
518,92.34753304166667,92.69836154583334,53.0,90.0
519,91.68455004166667,92.8834443,41.0,79.0
520,91.68455004166667,92.8834443,41.0,79.0
521,92.67902454166666,92.89587523125,48.0,59.0
522,92.67902454166666,92.89587523125,48.0,59.0
523,92.34753304166667,93.00637239791666,69.0,93.0
524,92.34753304166667,93.00637239791666,69.0,93.0
525,92.34753304166667,93.02018454374999,65.0,96.0
526,92.34753304166667,93.02018454374999,65.0,96.0
527,92.67902454166666,93.03675911875,60.0,92.0
528,92.67902454166666,93.03675911875,60.0,92.0
529,93.01051604166666,94.16106778958333,38.0,81.0
530,93.01051604166666,94.16106778958333,38.0,81.0
531,93.67349904166666,94.26327766874999,50.0,76.0
532,93.67349904166666,94.26327766874999,50.0,76.0
533,93.34200754166666,94.33510082708332,45.0,54.0
534,93.34200754166666,94.33510082708332,45.0,54.0
535,93.67349904166666,94.79642649791666,62.0,92.0
536,93.67349904166666,94.79642649791666,62.0,92.0
537,94.00499054166667,94.806095,57.0,93.0
538,94.00499054166667,94.806095,57.0,93.0
539,93.67349904166666,94.806095,65.0,85.0
540,93.67349904166666,94.806095,65.0,85.0
541,94.33648204166667,95.24117759375,38.0,72.0
542,94.33648204166667,95.24117759375,38.0,72.0
543,94.66797354166667,95.27156431458333,45.0,58.0
544,94.66797354166667,95.27156431458333,45.0,58.0
545,94.99946504166667,95.65692318333333,50.0,93.0
546,94.99946504166667,95.65692318333333,50.0,93.0
547,94.99946504166667,95.71631541041667,62.0,99.0
548,94.99946504166667,95.71631541041667,62.0,99.0
549,94.99946504166667,95.73703362916666,65.0,96.0
550,94.99946504166667,95.73703362916666,65.0,96.0
551,95.33095654166667,95.81023800208334,57.0,75.0
552,95.33095654166667,95.81023800208334,57.0,75.0
553,95.99393954166666,96.40416027291667,48.0,93.0
554,95.99393954166666,96.40416027291667,48.0,93.0
555,95.66244804166666,96.47736464583333,41.0,78.0
556,95.66244804166666,96.47736464583333,41.0,78.0
557,96.32543104166666,96.96217096458334,60.0,97.0
558,96.32543104166666,96.96217096458334,60.0,97.0
559,96.65692254166666,97.0353753375,53.0,88.0
560,96.65692254166666,97.0353753375,53.0,88.0
561,96.32543104166666,97.07543056041666,57.0,96.0
562,96.32543104166666,97.07543056041666,57.0,96.0
563,97.31990554166666,97.79228092916667,43.0,66.0
564,97.31990554166666,97.79228092916667,43.0,66.0
565,96.98841404166666,97.80194943125,36.0,89.0
566,96.98841404166666,97.80194943125,36.0,89.0
567,97.65139704166667,98.16382765208333,48.0,92.0
568,97.65139704166667,98.16382765208333,48.0,92.0
569,97.65139704166667,98.26603753124999,60.0,93.0
570,97.65139704166667,98.26603753124999,60.0,93.0
571,97.65139704166667,98.29918668125,64.0,88.0
572,97.65139704166667,98.29918668125,64.0,88.0
573,97.98288854166667,98.32266732916666,55.0,83.0
574,97.98288854166667,98.32266732916666,55.0,83.0
575,98.97736304166666,99.46631300416666,53.0,83.0
576,98.31438004166667,99.54366102083333,41.0,79.0
577,98.64587154166666,99.67056583749999,48.0,46.0
578,99.30885454166666,100.11836826666666,57.0,100.0
579,98.97736304166666,100.12248914791667,60.0,83.0
580,98.97736304166666,100.12523640208333,65.0,83.0
581,100.29968704166666,100.47139042708332,53.0,89.0
582,99.97001654166667,100.53045639166666,48.0,74.0
583,99.64034604166666,100.57029157708332,41.0,72.0
584,100.62935754166666,100.92606099166666,57.0,97.0
585,100.29968704166666,100.92606099166666,60.0,95.0
586,100.29968704166666,100.92606099166666,65.0,92.0
587,101.28869854166666,101.8546329,48.0,79.0
588,100.95902804166666,101.90545710208333,41.0,85.0
589,101.94803954166666,102.27771004166667,45.0,79.0
590,101.61836904166665,102.29831444791667,60.0,79.0
591,101.94803954166666,102.30930346458332,53.0,78.0
592,102.27771004166667,102.60738054166666,38.0,79.0
593,102.60738054166666,103.13347971458333,38.0,83.0
594,102.93705104166666,103.73512837708333,62.0,78.0
595,103.59639204166666,104.39996388541665,38.0,83.0
596,103.92606254166665,104.46589798541666,45.0,48.0
597,104.25573304166666,104.87249160208333,62.0,86.0
598,104.58540354166666,104.91507404166666,38.0,88.0
599,104.58540354166666,105.03045871666666,57.0,88.0
600,104.91507404166666,105.24474454166666,43.0,81.0
601,105.24474454166666,106.14996478958332,43.0,81.0
602,105.24474454166666,106.19529448333333,50.0,59.0
603,105.90408554166666,106.25436044791665,55.0,75.0
604,105.57441504166665,106.27221759999999,62.0,88.0
605,106.89309704166666,106.94666849791666,55.0,52.0
606,106.23375604166667,107.22276754166666,36.0,86.0
607,106.56342654166666,107.22276754166666,43.0,67.0
608,107.22276754166666,107.55243804166666,43.0,79.0
609,106.89309704166666,107.57304244791666,48.0,71.0
610,107.55243804166666,107.88210854166665,36.0,74.0
611,106.89309704166666,108.08677897708333,60.0,78.0
612,107.22276754166666,108.10051524791666,55.0,79.0
613,107.88210854166665,108.40683408749999,36.0,70.0
614,108.21177904166666,108.83677936458332,48.0,72.0
615,108.54144954166667,108.8683727875,55.0,64.0
616,108.21177904166666,108.88073543124999,60.0,93.0
617,109.20079054166666,109.61425229374998,48.0,53.0
618,108.87112004166666,109.86013154166666,41.0,70.0
619,109.53046104166665,110.18018665208332,53.0,74.0
620,109.86013154166666,110.18980204166667,36.0,79.0
621,109.86013154166666,110.18980204166667,48.0,79.0
622,110.18980204166667,110.51947254166666,41.0,100.0
623,109.53046104166665,110.88348371875,57.0,74.0
624,110.84914304166666,111.06068161249999,53.0,74.0
625,110.51947254166666,111.332659775,41.0,72.0
626,110.84914304166666,111.47551699166667,60.0,68.0
627,110.51947254166666,111.48238512708332,48.0,50.0
628,111.17881354166666,111.52084668541666,57.0,67.0
629,111.50848404166666,112.49749554166667,41.0,81.0
630,112.49749554166667,112.82716604166666,36.0,70.0
631,111.83815454166665,112.85738583749999,48.0,53.0
632,112.82716604166666,113.15683654166666,41.0,69.0
633,112.16782504166666,113.22689152291666,53.0,66.0
634,112.16782504166666,113.22689152291666,57.0,69.0
635,112.16782504166666,113.508485075,60.0,58.0
636,113.48650704166666,113.81205666041666,53.0,66.0
637,113.15683654166666,113.97963916458332,41.0,58.0
638,113.15683654166666,114.16645244791665,48.0,58.0
639,113.81617754166666,114.52496911666665,60.0,64.0
640,114.80518904166667,115.08128808541666,53.0,76.0
641,114.14584804166665,115.13485954166666,41.0,67.0
642,114.47551854166666,115.45491465208332,48.0,52.0
643,115.13485954166666,115.46453004166666,36.0,75.0
644,115.46453004166666,115.79420054166665,41.0,75.0
645,114.80518904166667,115.816178575,57.0,78.0
646,114.80518904166667,115.88348630208333,60.0,73.0
647,116.12387104166666,116.33128873125,53.0,75.0
648,116.12387104166666,116.45354154166665,57.0,74.0
649,115.79420054166665,116.59639875833332,41.0,60.0
650,115.79420054166665,116.75986038125,48.0,39.0
651,116.12387104166666,116.78321204166666,60.0,81.0
652,113.48650704166666,116.78321204166666,65.0,67.0
653,116.78321204166666,117.77222354166666,41.0,82.0
654,117.11288254166666,118.06892699166666,48.0,43.0
655,117.77222354166666,118.10189404166665,36.0,71.0
656,117.44255304166666,118.34777328958333,53.0,72.0
657,118.10189404166665,118.43156454166666,41.0,65.0
658,117.44255304166666,118.5771690125,57.0,71.0
659,118.43156454166666,118.89310324166667,48.0,65.0
660,118.76123504166665,119.06480662708333,53.0,78.0
661,118.43156454166666,119.09090554166666,41.0,65.0
662,118.76123504166665,119.39997163541666,60.0,65.0
663,119.75206754166666,120.08355904166666,43.0,35.0
664,119.42057604166666,120.41505054166666,36.0,71.0
665,120.41505054166666,120.74654204166666,43.0,70.0
666,120.74654204166666,121.07803354166667,36.0,71.0
667,120.08355904166666,121.26173508125,55.0,70.0
668,120.08355904166666,121.26725993958333,60.0,70.0
669,120.08355904166666,121.38742560833333,48.0,56.0
670,121.07803354166667,121.95924844583332,36.0,73.0
671,121.40952504166667,121.98825395208333,60.0,81.0
672,121.07803354166667,122.11946933749999,43.0,39.0
673,121.40952504166667,122.65261816666667,64.0,90.0
674,122.07250804166667,122.8984743625,36.0,68.0
675,122.40399954166666,122.90538043541666,43.0,39.0
676,122.73549104166666,123.34875031666667,48.0,63.0
677,122.73549104166666,123.35980003333333,64.0,55.0
678,122.73549104166666,123.38051825208333,60.0,88.0
679,123.06698254166666,123.46477234166666,55.0,59.0
680,123.39847404166666,123.72996554166666,41.0,73.0
681,124.06145704166667,124.34736846041666,53.0,76.0
682,123.72996554166666,124.39294854166667,41.0,78.0
683,124.06145704166667,124.53797607291666,48.0,78.0
684,124.06145704166667,124.66504781458333,60.0,88.0
685,125.38742304166666,125.68990903541666,50.0,72.0
686,124.72444004166667,125.89985365208334,38.0,86.0
687,125.05593154166667,125.96753316666667,45.0,56.0
688,125.38742304166666,126.06559940208334,65.0,67.0
689,126.05040604166666,126.92747730208333,38.0,66.0
690,126.38189754166666,126.97581981249999,45.0,41.0
691,126.71338904166666,127.3570350375,50.0,71.0
692,127.04488054166666,127.37499082708334,62.0,75.0
693,126.71338904166666,127.38600860625,65.0,82.0
694,127.37637204166667,128.36756154166667,41.0,76.0
695,128.03716504166667,128.38408136666666,53.0,79.0
696,127.70676854166668,128.65803513125002,48.0,51.0
697,128.36756154166667,128.69795804166668,36.0,78.0
698,128.69795804166668,129.02835454166666,41.0,78.0
699,128.69795804166668,129.66299115208335,48.0,78.0
700,129.02835454166666,129.87086561666666,41.0,67.0
701,129.68914754166667,130.29349780625,53.0,65.0
702,128.03716504166667,130.50274892291668,60.0,78.0
703,129.35875104166666,130.50963218333334,57.0,75.0
704,130.01954404166668,131.01073354166667,41.0,63.0
705,131.01073354166667,131.34113004166667,36.0,81.0
706,130.68033704166666,131.34113004166667,53.0,71.0
707,130.68033704166666,131.35214325833334,48.0,50.0
708,131.34113004166667,131.67152654166668,41.0,83.0
709,130.68033704166666,131.8339714875,60.0,71.0
710,132.00192304166666,132.30065654375,53.0,88.0
711,132.00192304166666,132.33231954166666,48.0,76.0
712,131.67152654166668,132.58424687291668,41.0,85.0
713,132.00192304166666,132.69988564791666,60.0,73.0
714,133.32350904166668,133.49146059583333,53.0,88.0
715,132.99311254166668,133.53000685416666,48.0,55.0
716,132.66271604166667,133.60572271875,41.0,86.0
717,133.32350904166668,133.940249175,65.0,89.0
718,133.32350904166668,133.94713243541668,69.0,92.0
719,133.65390554166666,133.98430204166667,36.0,81.0
720,133.65390554166666,134.03523816875,60.0,80.0
721,133.98430204166667,134.31469854166667,38.0,75.0
722,134.31469854166667,134.8736192875,38.0,78.0
723,134.31469854166667,134.931438675,45.0,63.0
724,134.64509504166668,135.09113031666666,57.0,95.0
725,134.64509504166668,135.162716225,50.0,86.0
726,134.64509504166668,135.33336058333333,62.0,88.0
727,134.64509504166668,135.36220675208332,65.0,85.0
728,135.63555854166665,136.04215215833332,50.0,72.0
729,135.30588804166666,136.06687744583334,43.0,74.0
730,135.96522904166667,136.33473472708332,55.0,95.0
731,135.96522904166667,136.59847112708334,58.0,78.0
732,135.96522904166667,136.60946014375,62.0,78.0
733,136.29489954166667,136.62457004166666,43.0,73.0
734,136.95424054166665,137.20561429791667,65.0,71.0
735,136.95424054166665,137.21110880625,62.0,81.0
736,136.95424054166665,137.22347145,57.0,78.0
737,136.95424054166665,137.28391104166667,45.0,84.0
738,137.28391104166667,137.52979028958333,50.0,80.0
739,136.62457004166666,137.61358154166666,38.0,74.0
740,137.61358154166666,137.94325204166665,45.0,74.0
741,137.28391104166667,138.45836219791667,62.0,80.0
742,137.28391104166667,138.46110945208332,65.0,80.0
743,137.61358154166666,138.48858199375,57.0,74.0
744,137.94325204166665,138.75231839375,38.0,73.0
745,138.27292254166667,138.79627446041667,45.0,81.0
746,138.60259304166667,138.94737343958332,50.0,77.0
747,138.60259304166667,139.24545051666666,65.0,89.0
748,138.60259304166667,139.24819777083331,62.0,92.0
749,138.93226354166666,139.38143959791665,57.0,92.0
750,139.59160454166667,139.99545090416666,50.0,74.0
751,139.26193404166665,140.05863775,43.0,77.0
752,139.92127504166666,140.5943523125,58.0,99.0
753,139.92127504166666,140.62594573541665,62.0,88.0
754,140.25094554166665,140.63281387083333,55.0,90.0
755,140.91028654166666,141.40479229166667,43.0,62.0
756,140.58061604166667,141.56962754166665,36.0,83.0
757,141.23995704166666,141.82100129791667,48.0,85.0
758,141.56962754166665,141.89929804166667,43.0,80.0
759,141.23995704166666,142.07237505416666,55.0,76.0
760,141.89929804166667,142.22896854166666,36.0,76.0
761,141.23995704166666,142.30451803124998,60.0,85.0
762,141.23995704166666,142.36633125,64.0,85.0
763,142.55863904166665,142.83473808541666,48.0,86.0
764,142.22896854166666,143.03940852083332,36.0,86.0
765,142.88830954166667,143.25918885416667,55.0,95.0
766,142.55863904166665,143.28391414166666,60.0,99.0
767,142.55863904166665,143.29078227708334,64.0,92.0
768,143.21798004166666,144.09023323958334,36.0,85.0
769,143.54765054166666,144.14105744166665,43.0,58.0
770,143.87732104166668,144.46660706041666,48.0,86.0
771,144.20699154166667,144.50644224583334,55.0,93.0
772,143.87732104166668,144.52155214375,60.0,93.0
773,143.87732104166668,144.53940929583334,64.0,92.0
774,144.86633254166665,145.36358554583333,48.0,61.0
775,145.19600304166667,145.54490432083333,53.0,90.0
776,144.53666204166666,145.72897035,41.0,79.0
777,145.52567354166666,145.74133299375,48.0,59.0
778,145.19600304166667,145.85122316041665,69.0,93.0
779,145.19600304166667,145.86495943124999,65.0,96.0
780,145.52567354166666,145.88144295625,60.0,92.0
781,145.85534404166665,146.99957540208334,38.0,81.0
782,146.51468504166667,147.10122380625,50.0,76.0
783,146.18501454166665,147.17265241458333,45.0,54.0
784,146.51468504166667,147.63144386041665,62.0,92.0
785,146.84435554166666,147.64105924999998,57.0,93.0
786,146.51468504166667,147.64105924999998,65.0,85.0
787,147.17402604166665,148.07375178125,38.0,72.0
788,147.50369654166667,148.1039715770833,45.0,58.0
789,147.83336704166666,148.48721353333332,50.0,93.0
790,147.83336704166666,148.54627949791666,62.0,99.0
791,147.83336704166666,148.56688390416667,65.0,96.0
792,148.16303754166665,148.63968613958332,57.0,75.0
793,148.82237854166667,149.23034578541666,48.0,93.0
794,148.49270804166667,149.30314802083333,41.0,78.0
795,149.15204904166666,149.78529112708333,60.0,97.0
796,149.48171954166665,149.8580933625,53.0,88.0
797,149.15204904166666,149.89792854791665,57.0,96.0
798,150.14106054166666,150.61084100416667,43.0,66.0
799,149.81139004166667,150.62045639375,36.0,89.0
800,150.47073104166665,150.9803466895833,48.0,92.0
801,150.47073104166665,151.08199509374998,60.0,93.0
802,150.47073104166665,151.11496214375,64.0,88.0
803,150.80040154166667,151.13831380416667,55.0,83.0
804,151.13007204166666,152.11908354166667,41.0,79.0
805,151.78941304166665,152.27567702916667,53.0,83.0
806,151.45974254166666,152.4789738375,48.0,46.0
807,152.11908354166667,152.92677626666665,57.0,100.0
808,151.78941304166665,152.93089714791665,60.0,83.0
809,151.78941304166665,152.93364440208333,65.0,83.0
810,153.10809504166667,153.27979842708334,53.0,89.0
811,152.77842454166665,153.33886439166668,48.0,74.0
812,152.44875404166666,153.37869957708332,41.0,72.0
813,153.43776554166666,153.73446899166666,57.0,97.0
814,153.10809504166667,153.73446899166666,60.0,95.0
815,153.10809504166667,153.73446899166666,65.0,92.0
816,154.09710654166668,154.50507378541667,48.0,93.0
817,153.76743604166666,154.57787602083332,41.0,78.0
818,154.42677704166667,155.06001912708334,60.0,97.0
819,154.75644754166666,155.13282136249998,53.0,88.0
820,154.42677704166667,155.17265654791666,57.0,96.0
821,155.41578854166667,155.88556900416665,43.0,66.0
822,155.08611804166665,155.89518439375,36.0,89.0
823,155.74545904166666,156.25507468958332,48.0,92.0
824,155.74545904166666,156.35672309375,60.0,93.0
825,155.74545904166666,156.38969014375,64.0,88.0
826,156.07512954166666,156.41304180416665,55.0,83.0
827,157.06414104166666,157.55040502916665,53.0,83.0
828,156.40480004166665,157.62732814583333,41.0,79.0
829,156.73447054166667,157.7537018375,48.0,46.0
830,157.39381154166665,158.20150426666666,57.0,100.0
831,157.06414104166666,158.20562514791666,60.0,83.0
832,157.06414104166666,158.20837240208334,65.0,83.0
833,158.38282304166665,158.55452642708332,53.0,89.0
834,158.05315254166666,158.61359239166666,48.0,74.0
835,157.72348204166667,158.65342757708333,41.0,72.0
836,158.71249354166667,159.00919699166667,57.0,97.0
837,158.38282304166665,159.00919699166667,60.0,95.0
838,158.38282304166665,159.00919699166667,65.0,92.0
