,start,end,pitch,velocity
0,10.540298341666666,10.87958423125,73.0,82.0
1,10.869968841666667,11.184529443750002,75.0,84.0
2,11.199639341666668,11.817771529166667,71.0,75.0
3,11.858980341666667,12.576013679166667,68.0,64.0
4,12.518321341666667,13.019695227083334,75.0,66.0
5,13.012827091666667,13.1749150875,73.0,100.0
6,13.177662341666668,13.4570580875,73.0,100.0
7,13.509835891666667,13.8403916125,75.0,77.0
8,13.843169391666667,14.11955841875,68.0,72.0
9,14.176502891666665,14.475114152083332,68.0,64.0
10,14.509836391666665,14.839003222916666,71.0,66.0
11,14.843169891666665,15.020947758333332,73.0,62.0
12,15.009836641666666,15.458447977083333,75.0,77.0
13,15.843170391666666,16.176503891666666,73.0,98.0
14,16.176503891666666,16.508448502083333,75.0,80.0
15,16.509837391666665,17.10428213333333,70.0,93.0
16,17.176504391666665,17.672337972916665,66.0,82.0
17,17.676504641666668,18.265393825,73.0,95.0
18,18.509838391666666,18.79456075625,71.0,91.0
19,18.843171891666664,19.120949808333332,73.0,76.0
20,19.176505391666666,19.3737277125,75.0,92.0
21,19.509838891666668,19.662616745833333,75.0,96.0
22,19.843172391666666,20.030672485416666,73.0,86.0
23,20.176505891666665,20.301505954166664,71.0,72.0
24,20.343172641666666,20.601506104166667,73.0,87.0
25,21.009839641666666,21.166784164583333,68.0,60.0
26,21.176506391666667,21.439006522916664,73.0,57.0
27,21.509839891666665,21.82789560625,75.0,84.0
28,21.843173391666667,22.468173704166666,71.0,75.0
29,22.509840391666664,23.080600495833334,68.0,64.0
30,23.010962579166666,23.8187624125,75.0,66.0
31,23.846617579166665,24.236589912499998,80.0,97.0
32,24.180879579166664,24.456645729166667,78.0,90.0
33,24.515141579166666,24.726840845833333,73.0,75.0
34,24.849403579166665,25.006785270833333,73.0,91.0
35,25.183665579166664,25.48310862083333,73.0,90.0
36,25.517927579166667,25.710128229166667,71.0,82.0
37,25.685058579166665,26.221270537499997,73.0,87.0
38,26.520713579166667,26.842440754166667,73.0,92.0
39,26.854975579166666,27.1321344875,83.0,90.0
40,27.189237579166665,27.8466195125,82.0,96.0
41,27.857761579166667,28.250519429166665,85.0,91.0
42,28.526285579166665,28.821550345833334,78.0,97.0
43,28.860547579166667,29.148848554166666,76.0,79.0
44,29.194809579166666,29.82433634583333,76.0,72.0
45,29.863333579166664,31.081997120833332,75.0,62.0
46,31.200381579166667,31.838264895833333,81.0,104.0
47,31.868905579166665,32.3048389375,80.0,106.0
48,32.53742957916667,32.870298820833334,76.0,100.0
49,32.871691579166665,33.03742982083333,75.0,83.0
50,33.20595357916667,33.45247180416666,76.0,93.0
51,33.54021557916667,33.70595382083333,75.0,85.0
52,33.874477579166665,34.1140320125,76.0,93.0
53,34.20873957916667,34.3772633375,75.0,85.0
54,34.375870579166666,34.756093604166665,76.0,94.0
55,35.044394579166664,35.2129183375,66.0,67.0
56,35.21152557916667,35.524896204166666,76.0,67.0
57,35.545787579166664,35.875871304166665,75.0,76.0
58,35.880049579166666,36.21431157916666,76.0,64.0
59,36.21431157916666,36.57225047083333,75.0,80.0
60,36.548573579166664,36.8967631625,76.0,62.0
61,36.88283557916667,37.04578830416666,75.0,76.0
62,37.049966579166664,37.4524737375,73.0,66.0
63,37.551359579166665,37.83966055416667,73.0,69.0
64,37.88562157916667,38.74913174583333,75.0,90.0
65,39.22266957916666,39.820162904166665,73.0,93.0
66,39.89119357916667,40.5443972375,70.0,97.0
67,40.559717579166666,41.99286590416666,75.0,109.0
68,41.89676557916667,42.5625040625,76.0,105.0
69,42.56528957916667,42.8591615875,75.0,99.0
70,43.233813579166664,43.49286662916667,76.0,101.0
71,43.56807557916667,43.732421062499995,75.0,98.0
72,43.90233757916667,44.14467752916667,76.0,99.0
73,44.236599579166665,44.39955230416666,75.0,99.0
74,44.57086157916667,44.80902325416667,76.0,105.0
75,44.90512357916667,45.0611125125,75.0,97.0
76,45.07225457916667,45.49981741249999,76.0,100.0
77,45.740637254166664,45.920093458333334,66.0,62.0
78,45.90757464583333,46.170319712499996,76.0,84.0
79,46.24117911249999,46.585665072916655,75.0,91.0
80,46.57455395624999,46.930109689583325,76.0,72.0
81,46.90788745624999,47.25233207291666,75.0,89.0
82,47.24122095624999,47.56899889791666,76.0,66.0
83,47.57455445624999,47.759276770833324,75.0,83.0
84,47.74122120624999,48.23149922916666,76.0,79.0
85,48.24122145624999,48.63149942916666,73.0,79.0
86,49.90788895624999,50.53150037916666,73.0,101.0
87,48.57455495624999,50.752333822916654,75.0,95.0
88,50.57455595624999,51.24122295624999,70.0,99.0
89,51.24122295624999,52.792612620833324,75.0,109.0
90,52.57455695624999,53.205112827083326,76.0,105.0
91,53.24122395624999,53.58427968333332,75.0,92.0
92,53.90789095624999,54.17039108749999,76.0,98.0
93,54.24122445624999,54.53705793749999,78.0,93.0
94,54.57455795624999,54.91622479374999,80.0,95.0
95,54.90789145624999,55.09678043958333,76.0,83.0
96,55.07455820624999,55.970391987499994,73.0,87.0
97,56.40789220624999,56.59400341041666,66.0,55.0
98,56.57455895624999,56.881503554166656,75.0,90.0
99,56.90789245624999,57.23567039791666,76.0,62.0
100,57.24122595624999,57.575948345833325,75.0,82.0
101,57.574559456249986,57.905115177083324,71.0,66.0
102,57.90789295624999,58.38289319374999,68.0,77.0
103,59.24122695624999,59.545393774999994,75.0,95.0
104,59.57456045624999,59.87039393749999,71.0,91.0
105,59.90789395624999,60.252338572916656,68.0,87.0
106,60.24122745624999,60.41622754374999,71.0,76.0
107,60.40789420624999,61.29539464999999,68.0,82.0
108,61.90789495624999,62.109283945833326,75.0,95.0
109,62.24122845624999,62.369006297916656,71.0,87.0
110,62.574561956249994,62.77039538749999,73.0,91.0
111,62.90789545624999,63.06067331041666,71.0,92.0
112,63.24122895624999,63.43289571874999,75.0,94.0
113,63.57456245624999,63.906507066666656,71.0,77.0
114,63.90789595624999,64.23567389791666,73.0,81.0
115,64.24122945624998,64.52872959999999,71.0,63.0
116,64.57456295624999,65.44123005624999,68.0,73.0
117,74.57456795625,74.91762368333332,73.0,82.0
118,74.90790145624999,75.22595717083333,75.0,84.0
119,75.24123495625,75.86623526874999,71.0,75.0
120,75.90790195624999,76.63290231874998,68.0,64.0
121,76.57456895624999,77.08151365416666,75.0,66.0
122,77.07456920624999,77.23845817708332,73.0,100.0
123,77.24123595625,77.52179165208332,73.0,100.0
124,77.57456945624999,77.90512517708332,75.0,77.0
125,77.90790295624998,78.18429198333332,68.0,72.0
126,78.24123645625,78.53984771666666,68.0,64.0
127,78.57456995624999,78.9037367875,71.0,66.0
128,78.90790345624998,79.08568132291666,73.0,62.0
129,79.07457020625,79.52318154166666,75.0,77.0
130,79.90790395624998,80.24123745624999,73.0,98.0
131,80.24123745624999,80.57318206666666,75.0,80.0
132,80.57457095625,81.16901569791665,70.0,93.0
133,81.24123795624999,81.73707153749999,66.0,82.0
134,81.74123820624999,82.33012738958332,73.0,95.0
135,82.57457195625,82.85929432083333,71.0,91.0
136,82.90790545624999,83.18707226249998,73.0,76.0
137,83.24123895624999,83.43846127708332,75.0,92.0
138,83.57457245625,83.72735031041665,75.0,96.0
139,83.90790595624999,84.09540605,73.0,86.0
140,84.24123945624999,84.47457290624999,71.0,72.0
141,84.40790620624999,84.91623979375,73.0,87.0
142,85.24123995624998,85.50096230833333,73.0,57.0
143,85.57457345625,86.01346256458334,75.0,84.0
144,85.90790695624999,86.56762950833333,71.0,75.0
145,86.57457395624999,87.03846307708332,68.0,64.0
146,87.07457420624999,87.85513015208332,75.0,66.0
147,87.90790795625,88.23151922916665,80.0,97.0
148,88.24124145625,88.48568602291667,78.0,90.0
149,88.57457495624999,88.76485282916666,73.0,75.0
150,88.90790845625,89.14401968541665,73.0,91.0
151,89.24124195625,89.49818652916666,73.0,90.0
152,89.57457545624999,89.76624221875,71.0,82.0
153,89.74124220624999,90.27596469583332,73.0,87.0
154,90.57457595624999,90.89540944999999,73.0,92.0
155,90.90790945625,91.18429848333332,83.0,90.0
156,91.24124295624999,91.89679883958333,82.0,96.0
157,91.90790995625,92.29957681874998,85.0,91.0
158,92.57457695624998,92.86902154791666,78.0,97.0
159,92.90791045625,93.19679948958333,76.0,79.0
160,93.24124395624999,93.86902204791666,76.0,72.0
161,93.90791095624999,95.12318934166666,75.0,62.0
162,95.24124495625,95.87735638541666,81.0,104.0
163,95.90791195624999,96.34263439583333,80.0,106.0
164,96.57457895625,96.90652356666666,76.0,100.0
165,96.90791245624999,97.02596807083333,75.0,83.0
166,97.24124595625,97.4870794125,76.0,93.0
167,97.57457945624999,97.73985731666666,75.0,85.0
168,97.90791295624999,98.14819085416666,76.0,93.0
169,98.24124645625,98.40930209583333,75.0,85.0
170,98.40791320624999,98.7870800625,76.0,94.0
171,99.07458020624999,99.24263584583332,66.0,67.0
172,99.24124695625,99.55374711249999,76.0,67.0
173,99.57458045624999,99.90374728749998,75.0,76.0
174,99.90791395624998,100.24124745625,76.0,64.0
175,100.24124745625,100.59819207916667,75.0,80.0
176,100.57458095624999,100.92180335208332,76.0,62.0
177,100.90791445624998,101.0704145375,75.0,76.0
178,101.07458120625,101.47597029583332,73.0,66.0
179,101.57458145625,101.86208159999998,73.0,69.0
180,101.90791495624998,102.76902649791666,75.0,90.0
181,103.24124895624999,103.83708258749999,73.0,93.0
182,103.90791595625,104.55930517083333,70.0,97.0
183,104.57458295625,105.90236139791665,75.0,109.0
184,105.90791695624999,106.5287506,76.0,105.0
185,106.57458395625,106.86763965833333,75.0,99.0
186,107.24125095624998,107.60097335833333,76.0,101.0
187,107.57458445625,107.83014013958334,75.0,98.0
188,107.90791795624999,108.11764028333332,76.0,99.0
189,108.24125145624998,108.4037515375,75.0,99.0
190,108.57458495624999,108.812085075,76.0,105.0
191,108.90791845625,109.06347408958332,75.0,97.0
192,109.07458520624999,109.50097430833333,76.0,100.0
193,109.74125220624998,109.9204189625,66.0,62.0
194,109.90791895625,110.1704190875,76.0,84.0
195,110.24125245625,110.58569707291666,75.0,91.0
196,110.57458595624999,110.93014168958332,76.0,72.0
197,110.90791945625,111.25236407291666,75.0,89.0
198,111.24125295625,111.56903089791666,76.0,66.0
199,111.57458645624999,111.75930877083333,75.0,83.0
200,111.74125320625,112.23153122916666,76.0,79.0
201,112.24125345624999,112.63153142916666,73.0,79.0
202,113.90792095625,114.53153237916666,73.0,101.0
203,112.57458695624999,114.75236582291666,75.0,95.0
204,114.57458795625,115.24125495624999,70.0,99.0
205,115.24125495624999,116.73570014791666,75.0,109.0
206,116.57458895625,117.20514482708333,76.0,105.0
207,117.24125595624999,117.58431168333333,75.0,92.0
208,117.90792295624999,118.16903419791666,76.0,98.0
209,118.24125645625,118.5370899375,78.0,93.0
210,118.57458995625,118.91625679375,80.0,95.0
211,118.90792345624999,119.09681243958333,76.0,83.0
212,119.07459020625,119.9704239875,73.0,87.0
213,120.40792420624999,120.59403541041667,66.0,55.0
214,120.57459095624999,120.88153555416666,75.0,90.0
215,120.90792445624999,121.23570239791665,76.0,62.0
216,121.24125795625,121.57598034583333,75.0,82.0
217,121.57459145624999,121.90514717708332,71.0,66.0
218,121.90792495625,122.38292519375,68.0,77.0
219,123.24125895625,123.545425775,75.0,95.0
220,123.57459245624999,123.87042593749999,71.0,91.0
221,123.90792595625,124.25237057291666,68.0,87.0
222,124.24125945624999,124.41625954374999,71.0,76.0
223,124.40792620625,125.29542665,68.0,82.0
224,125.90792695625,126.10931594583333,75.0,95.0
225,126.24126045624999,126.36903829791666,71.0,87.0
226,126.57459395625,126.77042738749999,73.0,91.0
227,126.90792745625,127.06070531041667,71.0,92.0
228,127.24126095624999,127.43153882916666,75.0,94.0
229,127.57459445625,127.90653906666665,71.0,77.0
230,127.90792795624999,128.23570589791666,73.0,81.0
231,128.24126145625,128.5287616,71.0,63.0
232,128.57459495625,129.44126205625,68.0,73.0
233,149.90793895625,150.26766135833333,76.0,101.0
234,150.24127245625,150.49682813958333,75.0,98.0
235,150.57460595625,150.78293939374998,76.0,99.0
236,150.90793945625,151.07182842708335,75.0,99.0
237,151.24127295625,151.478773075,76.0,105.0
238,151.57460645625,151.73016208958333,75.0,97.0
239,151.74127320625,152.16905119791664,76.0,100.0
240,152.40794020624998,152.5871069625,66.0,62.0
241,152.57460695625,152.83571819791666,76.0,84.0
242,152.90794045625,153.2537739625,75.0,91.0
243,153.24127395624998,153.59682968958333,76.0,72.0
244,153.57460745625,153.91905207291666,75.0,89.0
245,153.90794095625,154.2371077875,76.0,66.0
246,154.24127445624998,154.52183015208334,75.0,83.0
247,154.40794120624997,154.85099698333335,73.0,79.0
248,154.90794145625,155.29821942916666,73.0,79.0
249,155.24127495624998,156.59127563125,75.0,95.0
250,156.57460895625,157.14960924374998,73.0,101.0
251,157.24127595624998,157.90794295625,70.0,99.0
252,157.90794295625,159.24405473541665,75.0,109.0
253,159.24127695624998,159.86766615833332,76.0,105.0
254,159.90794395625,160.25099968333333,75.0,92.0
255,160.57461095625,160.93433335833333,76.0,101.0
256,160.90794445625,161.16350013958333,75.0,98.0
257,161.24127795624997,161.44961139375,76.0,99.0
258,161.57461145625,161.73850042708332,75.0,99.0
259,161.90794495625,162.14405618541667,76.0,105.0
260,162.24127845625,162.3968340895833,75.0,97.0
261,162.40794520625,162.83433430833333,76.0,100.0
262,163.07461220624998,163.25239007291665,66.0,62.0
263,163.24127895625,163.50239019791667,76.0,84.0
264,163.57461245625,163.9204459625,75.0,91.0
265,163.90794595625,164.26350168958334,76.0,72.0
266,164.24127945625,164.58572407291666,75.0,89.0
267,164.57461295625,164.9037797875,76.0,66.0
268,164.90794645625,165.09127988125,75.0,83.0
269,165.07461320624998,165.56489122916668,76.0,79.0
270,165.57461345625,165.96489142916664,73.0,79.0
271,165.90794695625,167.26905874791666,75.0,95.0
272,167.24128095625,167.81628124374998,73.0,101.0
273,167.90794795624998,168.57461495625,70.0,99.0
274,168.57461495625,170.0704490375,75.0,109.0
275,169.90794895624998,170.53850482708333,76.0,105.0
276,170.57461595625,170.9176716833333,75.0,92.0
277,171.24128295625,171.50239419791666,76.0,98.0
278,171.57461645625,171.87044993749998,78.0,93.0
279,171.90794995624998,172.24961679375,80.0,95.0
280,172.24128345625,172.42878355,76.0,83.0
281,172.40795020625,173.3037839875,73.0,87.0
282,173.74128420625,173.92739541041666,66.0,55.0
283,173.90795095624998,174.21350666458335,75.0,90.0
284,174.24128445625,174.56906239791667,76.0,62.0
285,174.57461795625,174.90934034583333,75.0,82.0
286,174.90795145625,175.23850717708333,71.0,66.0
287,175.24128495624998,175.71489630416667,68.0,77.0
288,176.57461895625,176.87878577499998,75.0,95.0
289,176.90795245625,177.2037859375,71.0,91.0
290,177.24128595624998,177.58434168333332,68.0,87.0
291,177.57461945625,177.74961954375,71.0,76.0
292,177.74128620624998,178.63017553958332,68.0,82.0
293,179.24128695625,179.44267594583332,75.0,95.0
294,179.57462045625,179.70239829791666,71.0,87.0
295,179.90795395625,180.10239849791665,73.0,91.0
296,180.24128745625,180.39406531041666,71.0,92.0
297,180.57462095625,180.76489882916667,75.0,94.0
298,180.90795445625,181.23989906666665,71.0,77.0
299,181.24128795625,181.57045478749998,73.0,81.0
300,181.57462145625,181.8621216,71.0,63.0
301,181.90795495625,182.77601094583332,68.0,73.0
302,184.57462295624998,184.93434535833333,76.0,101.0
303,184.90795645625,185.16490102916666,75.0,98.0
304,185.24128995625,185.44962339375,76.0,99.0
305,185.57462345624998,185.7371235375,75.0,99.0
306,185.90795695625,186.145457075,76.0,105.0
307,186.24129045625,186.39823497916666,75.0,97.0
308,186.40795720625,186.83573519791665,76.0,100.0
309,187.07462420625,187.2537909625,66.0,62.0
310,187.24129095625,187.50240219791667,76.0,84.0
311,187.57462445625,187.9204579625,75.0,91.0
312,187.90795795625,188.26212479999998,76.0,72.0
313,188.24129145625,188.58573607291666,75.0,89.0
314,188.57462495625,188.90240289791666,76.0,66.0
315,188.90795845625,189.18851415208331,75.0,83.0
316,189.07462520625,189.51768098333332,73.0,79.0
317,189.57462545625,189.96490342916667,73.0,79.0
318,189.90795895624998,191.25795963125,75.0,95.0
319,191.24129295625,191.81629324374998,73.0,101.0
320,191.90795995624998,192.57462695625,70.0,99.0
321,192.57462695625,193.91073873541666,75.0,109.0
322,193.90796095625,194.50240569791666,80.0,105.0
323,194.57462795625,194.91768368333334,78.0,92.0
324,195.24129495625,195.60101735833334,76.0,101.0
325,195.57462845625,195.83018413958334,75.0,98.0
326,195.90796195625,196.11629539375,76.0,99.0
327,196.24129545625,196.40518442708333,75.0,99.0
328,196.57462895625,196.812129075,76.0,105.0
329,196.90796245625,197.06351808958334,75.0,97.0
330,197.07462920625,197.50101830833333,76.0,100.0
331,197.74129620624998,197.92046296249998,66.0,62.0
332,197.90796295625,198.16907419791667,76.0,84.0
333,198.24129645624998,198.5871299625,75.0,91.0
334,198.57462995625,198.93018568958334,76.0,72.0
335,198.90796345625,199.25240807291667,75.0,89.0
336,199.24129695624998,199.5704637875,76.0,66.0
337,199.57463045625,199.85518615208332,75.0,83.0
338,199.74129720624998,200.18574187291665,76.0,79.0
339,200.24129745625,200.63157542916667,73.0,79.0
340,200.57463095625,201.92463163125,75.0,95.0
341,201.90796495625,202.48296524375,73.0,101.0
342,202.57463195625,203.24129895625,70.0,99.0
343,203.24129895625,204.55796628125,75.0,109.0
344,204.57463295624999,205.21074438541666,76.0,105.0
345,205.24129995625,205.612133475,75.0,92.0
346,205.74130020625,205.86630026875,68.0,100.0
347,205.90796695625,206.1704670875,76.0,98.0
348,206.24130045625,206.5371339375,78.0,93.0
349,206.57463395624998,206.91768968333332,80.0,95.0
350,206.90796745625,207.09546755,76.0,83.0
351,207.07463420624998,207.9704679875,73.0,87.0
352,208.40796820625,208.59407941041667,66.0,55.0
353,208.57463495625,208.88157955416665,75.0,90.0
354,208.90796845625,209.23574639791667,76.0,62.0
355,209.24130195625,209.57741323541666,75.0,82.0
356,209.57463545625,209.90519117708334,71.0,66.0
357,209.90796895625,210.38296919375,68.0,77.0
358,211.24130295625,211.545469775,75.0,95.0
359,211.57463645625,211.87185882708332,71.0,91.0
360,211.90796995624999,212.25241457291665,68.0,87.0
361,212.24130345625,212.41630354375,71.0,76.0
362,212.40797020624998,213.29685953958332,68.0,82.0
363,213.90797095624998,214.10935994583332,75.0,95.0
364,214.24130445625,214.36769340833334,71.0,87.0
365,214.57463795625,214.7704713875,73.0,91.0
366,214.90797145625,215.06074931041667,71.0,92.0
367,215.24130495625,215.43158282916667,75.0,94.0
368,215.57463845625,215.90519417708333,71.0,77.0
369,215.90797195625,216.2371387875,73.0,81.0
370,216.24130545625,216.53019448958332,71.0,63.0
371,216.57463895625,217.44130605625,68.0,73.0
372,218.57463995625,218.8038067375,75.0,97.0
373,218.90797345625,219.25519585208332,71.0,91.0
374,219.24130695624999,220.07325181666667,68.0,83.0
375,221.24130795624998,221.61630814375,80.0,103.0
376,221.57464145625,221.83853047708334,78.0,91.0
377,221.90797495625,222.75936427083332,78.0,99.0
378,223.24130895625,224.03992046666667,76.0,94.0
379,224.24130945625,224.58575407291667,76.0,97.0
380,224.57464295625,225.57186567708334,75.0,98.0
381,225.90797695625,226.22881045,75.0,98.0
382,226.24131045625,226.53853282708332,71.0,87.0
383,226.57464395625,226.88853300208334,73.0,91.0
384,226.90797745625,227.21631094375,71.0,87.0
385,227.24131095625,228.10103360833332,68.0,94.0
386,229.24131195625,229.47325651666665,75.0,103.0
387,229.57464545625,229.91492340416667,71.0,91.0
388,229.90797895625,230.53436815833334,68.0,90.0
389,231.90797995625,232.2371467875,80.0,99.0
390,232.24131345625,232.49825802916666,78.0,93.0
391,232.57464695625,233.85103648333333,78.0,93.0
392,233.90798095625,234.63020353958333,76.0,96.0
393,234.90798145624998,235.25242607291668,76.0,97.0
394,235.24131495625,236.23159322916666,75.0,95.0
395,236.40798220624998,236.57187117708332,68.0,45.0
396,236.57464895625,236.87742688541667,75.0,73.0
397,236.90798245625,237.27742708541666,71.0,54.0
398,237.24131595625,237.60798280625,73.0,54.0
399,237.57464945625,238.07326081666668,71.0,66.0
400,238.07464970625,241.6871515125,68.0,61.0
