,start,end,pitch,velocity
0,0.5611113916666667,0.8986115604166667,44.0,67.0
1,0.8944448916666667,0.9930560520833334,63.0,70.0
2,0.8944448916666667,1.0013893895833335,59.0,72.0
3,0.8944448916666667,1.0388894083333333,68.0,76.0
4,1.2277783916666667,1.6236119229166668,51.0,66.0
5,1.5611118916666666,1.64583415625,59.0,70.0
6,1.5611118916666666,1.6472230458333335,63.0,75.0
7,1.5611118916666666,1.67916750625,68.0,73.0
8,1.8944453916666668,2.290278922916667,44.0,67.0
9,2.2277788916666665,2.3138900458333334,63.0,72.0
10,2.2277788916666665,2.32083449375,59.0,66.0
11,2.2277788916666665,2.3652789604166666,68.0,80.0
12,2.5611123916666667,2.8888903333333333,51.0,67.0
13,2.894445891666667,2.9722237083333334,59.0,67.0
14,2.894445891666667,2.977779266666667,63.0,73.0
15,2.894445891666667,3.0277792916666666,68.0,78.0
16,3.561112891666667,3.64583515625,64.0,70.0
17,3.561112891666667,3.650001825,61.0,69.0
18,3.2277793916666666,3.6555573833333335,49.0,69.0
19,3.561112891666667,3.6680573895833333,68.0,66.0
20,3.894446391666667,4.305557708333334,56.0,78.0
21,4.227779891666667,4.316668825,64.0,72.0
22,4.227779891666667,4.318057714583333,61.0,69.0
23,4.227779891666667,4.34583550625,68.0,64.0
24,4.561113391666667,4.911113566666667,49.0,64.0
25,4.894446891666667,4.984724714583334,61.0,69.0
26,4.894446891666667,4.988891383333334,64.0,70.0
27,4.894446891666667,5.00416916875,68.0,72.0
28,5.227780391666667,5.476391627083333,56.0,69.0
29,5.5611138916666665,5.6750028375,64.0,80.0
30,5.5611138916666665,5.676391727083334,61.0,76.0
31,5.5611138916666665,5.686113954166667,68.0,72.0
32,5.894447391666667,6.2583364625,42.0,70.0
33,6.227780891666667,6.323614272916667,58.0,78.0
34,6.227780891666667,6.327780941666667,61.0,82.0
35,6.227780891666667,6.338892058333333,64.0,75.0
36,6.561114391666667,6.977781266666667,49.0,69.0
37,6.894447891666667,6.983336825,61.0,64.0
38,6.894447891666667,6.984725714583334,58.0,64.0
39,6.894447891666667,7.001392389583334,64.0,70.0
40,7.227781391666667,7.638892708333334,42.0,64.0
41,7.561114891666667,7.645837156250001,58.0,76.0
42,7.561114891666667,7.645837156250001,61.0,78.0
43,7.561114891666667,7.677781616666667,64.0,73.0
44,7.894448391666667,8.268059689583334,49.0,72.0
45,8.227781891666666,8.311115266666667,58.0,67.0
46,8.227781891666666,8.3250041625,61.0,66.0
47,8.227781891666666,8.356948622916667,64.0,69.0
48,8.561115391666666,8.966121704166667,47.0,75.0
49,8.891945841666667,8.978484347916668,59.0,76.0
50,8.891945841666667,8.989473364583334,63.0,82.0
51,8.891945841666667,9.00870414375,66.0,78.0
52,9.221616341666667,9.400187862500001,47.0,72.0
53,9.551286841666668,9.694144058333334,49.0,93.0
54,9.880957341666667,10.228484993750001,51.0,91.0
55,10.210627841666668,10.301287229166668,70.0,69.0
56,10.210627841666668,10.305408110416668,61.0,72.0
57,10.210627841666668,10.3067817375,67.0,97.0
58,10.540298341666666,10.786177589583334,51.0,67.0
59,10.869968841666667,10.934529314583333,61.0,70.0
60,10.869968841666667,10.948265585416667,70.0,76.0
61,10.869968841666667,10.951012839583335,67.0,95.0
62,11.529309841666667,11.621342856250001,59.0,76.0
63,11.529309841666667,11.6254637375,63.0,82.0
64,11.199639341666668,11.665298922916667,44.0,73.0
65,11.529309841666667,11.6749143125,68.0,82.0
66,11.858980341666667,12.232606908333334,51.0,75.0
67,12.188650841666668,12.26420033125,63.0,73.0
68,12.188650841666668,12.269694839583334,59.0,73.0
69,12.188650841666668,12.320519041666667,68.0,76.0
70,12.847991841666667,12.933156720833335,63.0,82.0
71,12.847991841666667,12.934530347916667,59.0,76.0
72,12.847991841666667,12.968871025,68.0,78.0
73,12.518321341666667,12.98123366875,44.0,69.0
74,13.177662341666668,13.555669247916667,51.0,76.0
75,13.509835891666667,13.608447052083333,59.0,78.0
76,13.509835891666667,13.626502616666667,63.0,82.0
77,13.509835891666667,13.65289151875,68.0,80.0
78,14.176502891666665,14.264002935416666,61.0,75.0
79,14.176502891666665,14.272336272916666,64.0,80.0
80,14.176502891666665,14.287614058333332,68.0,75.0
81,13.843169391666667,14.301502954166667,49.0,73.0
82,14.843169891666665,14.929281045833333,61.0,66.0
83,14.509836391666665,14.939003272916667,56.0,75.0
84,14.843169891666665,14.941781052083332,64.0,70.0
85,14.843169891666665,14.955669947916666,68.0,69.0
86,14.843169891666665,14.955669947916666,71.0,72.0
87,15.176503391666666,15.58205915,49.0,70.0
88,15.509836891666666,15.61955916875,61.0,76.0
89,15.509836891666666,15.626503616666666,64.0,88.0
90,15.509836891666666,15.6570591875,68.0,78.0
91,15.843170391666666,16.15289276875,56.0,63.0
92,16.176503891666666,16.273726162499997,64.0,73.0
93,16.176503891666666,16.279281720833332,61.0,73.0
94,16.176503891666666,16.297337285416667,68.0,73.0
95,16.509837391666665,16.908448702083334,42.0,78.0
96,16.843170891666666,16.943170941666665,58.0,73.0
97,16.843170891666666,16.945948720833332,61.0,75.0
98,16.843170891666666,16.969559843749998,64.0,78.0
99,17.509837891666667,17.58761570833333,66.0,75.0
100,17.176504391666665,17.594560156249997,49.0,76.0
101,17.509837891666667,17.597337935416668,58.0,76.0
102,17.509837891666667,17.600115714583332,61.0,78.0
103,17.509837891666667,17.6237268375,64.0,80.0
104,18.176504891666667,18.265393825,66.0,75.0
105,18.176504891666667,18.2737271625,61.0,67.0
106,18.176504891666667,18.275116052083334,58.0,70.0
107,18.176504891666667,18.28622716875,64.0,80.0
108,17.843171391666665,18.291782727083334,42.0,70.0
109,18.509838391666666,18.918171929166668,44.0,80.0
110,18.843171891666664,19.07789423125,46.0,58.0
111,19.176505391666666,19.518172229166666,47.0,91.0
112,19.509838891666668,19.595950045833334,59.0,72.0
113,19.509838891666668,19.597338935416666,63.0,76.0
114,19.509838891666668,19.616783389583333,66.0,80.0
115,19.843172391666666,20.2237281375,47.0,82.0
116,20.176505891666665,20.272339272916668,59.0,70.0
117,20.176505891666665,20.28622816875,63.0,85.0
118,20.176505891666665,20.309839291666666,66.0,88.0
119,20.509839391666667,21.644562181250002,39.0,82.0
120,20.843172891666665,21.839006722916665,70.0,80.0
121,20.843172891666665,21.90289564375,61.0,85.0
122,20.843172891666665,21.909840091666666,67.0,101.0
123,21.843173391666667,22.258451377083333,44.0,72.0
124,22.176506891666666,22.276506941666668,63.0,101.0
125,22.176506891666666,22.27928472083333,59.0,85.0
126,22.176506891666666,22.30289584375,68.0,85.0
127,22.843831579166665,22.9371463875,59.0,70.0
128,22.509840391666664,22.952466729166666,51.0,53.0
129,22.843831579166665,22.9622160375,63.0,78.0
130,22.843831579166665,22.970572587499998,68.0,73.0
131,23.512355579166666,23.607063145833333,59.0,72.0
132,23.178093579166667,23.618205212499998,44.0,75.0
133,23.512355579166666,23.618205212499998,63.0,82.0
134,23.512355579166666,23.62795452083333,68.0,75.0
135,23.846617579166665,24.172523029166666,51.0,73.0
136,24.180879579166664,24.27558714583333,59.0,80.0
137,24.180879579166664,24.281158179166667,63.0,80.0
138,24.180879579166664,24.3034423125,68.0,76.0
139,24.849403579166665,24.942718387499998,64.0,80.0
140,24.849403579166665,24.944111145833332,61.0,75.0
141,24.515141579166666,24.95246769583333,49.0,57.0
142,24.849403579166665,24.9636097625,68.0,76.0
143,24.515141579166666,25.012356304166666,37.0,66.0
144,25.183665579166664,25.622384454166664,44.0,75.0
145,25.517927579166667,25.6237772125,61.0,73.0
146,25.517927579166667,25.62934824583333,64.0,73.0
147,25.517927579166667,25.655810654166665,68.0,76.0
148,26.186451579166665,26.286730179166668,64.0,80.0
149,26.186451579166665,26.2964794875,61.0,80.0
150,26.186451579166665,26.318763620833334,68.0,82.0
151,25.852189579166666,26.361939129166664,37.0,82.0
152,26.520713579166667,26.92879177083333,44.0,66.0
153,26.854975579166666,26.9984296875,61.0,75.0
154,26.854975579166666,27.004000720833332,64.0,72.0
155,26.854975579166666,27.0360341625,68.0,70.0
156,27.523499579166668,27.63492024583333,61.0,85.0
157,27.523499579166668,27.63492024583333,66.0,99.0
158,27.523499579166668,27.63492024583333,68.0,82.0
159,27.523499579166668,27.640491279166667,64.0,99.0
160,27.189237579166665,27.696201612499998,42.0,70.0
161,27.857761579166667,28.2895166625,49.0,72.0
162,28.192023579166666,28.2978732125,61.0,67.0
163,28.192023579166666,28.315979070833333,64.0,64.0
164,28.192023579166666,28.315979070833333,66.0,64.0
165,28.192023579166666,28.320157345833334,68.0,70.0
166,28.860547579166667,28.967789970833334,61.0,70.0
167,28.860547579166667,28.980324795833333,64.0,72.0
168,28.860547579166667,28.9872885875,68.0,69.0
169,28.860547579166667,28.98868134583333,66.0,72.0
170,28.526285579166665,28.992859620833332,42.0,85.0
171,29.194809579166666,29.5847819125,44.0,88.0
172,29.529071579166665,29.671132929166667,61.0,78.0
173,29.529071579166665,29.67809672083333,64.0,82.0
174,29.529071579166665,29.719879470833334,68.0,78.0
175,29.863333579166664,30.257484187499998,47.0,95.0
176,30.197595579166666,30.3410496875,63.0,97.0
177,30.197595579166666,30.34244244583333,59.0,88.0
178,30.197595579166666,30.35915554583333,66.0,99.0
179,30.531857579166665,30.85219199583333,51.0,93.0
180,30.866119579166664,31.052749195833332,59.0,82.0
181,30.866119579166664,31.0764260875,66.0,93.0
182,30.866119579166664,31.083389879166667,63.0,93.0
183,31.200381579166667,31.8619417875,60.0,88.0
184,31.200381579166667,31.97336245416667,63.0,85.0
185,31.200381579166667,31.984504520833333,68.0,78.0
186,31.868905579166665,31.9872900375,60.0,35.0
187,31.200381579166667,31.998432104166668,44.0,70.0
188,31.200381579166667,32.015145204166664,56.0,59.0
189,31.868905579166665,32.41486684583333,66.0,73.0
190,32.53742957916667,32.930187429166665,49.0,85.0
191,32.871691579166665,32.9733629375,61.0,70.0
192,32.871691579166665,32.9775412125,64.0,75.0
193,32.871691579166665,33.00121810416667,68.0,75.0
194,33.20595357916667,33.5666779875,56.0,53.0
195,33.54021557916667,33.63074487083333,61.0,73.0
196,33.54021557916667,33.64885072916667,64.0,76.0
197,33.54021557916667,33.669742104166666,68.0,75.0
198,33.874477579166665,34.29230507916667,49.0,63.0
199,34.20873957916667,34.29648335416667,61.0,72.0
200,34.20873957916667,34.31180369583333,64.0,78.0
201,34.20873957916667,34.33687334583333,68.0,75.0
202,34.54300157916666,34.8870128875,56.0,69.0
203,34.877263579166666,34.971971145833336,61.0,75.0
204,34.877263579166666,34.98172045416666,64.0,75.0
205,34.877263579166666,34.99704079583333,68.0,76.0
206,35.21152557916667,35.62935307916666,42.0,70.0
207,35.545787579166664,35.6516372125,58.0,80.0
208,35.545787579166664,35.66556479583333,61.0,75.0
209,35.545787579166664,35.671135829166666,64.0,67.0
210,35.880049579166666,36.30066259583333,49.0,75.0
211,36.21431157916666,36.3118046625,58.0,75.0
212,36.21431157916666,36.321553970833335,61.0,76.0
213,36.21431157916666,36.350801895833335,64.0,78.0
214,36.88283557916667,36.9803286625,58.0,76.0
215,36.88283557916667,36.998434520833335,61.0,78.0
216,36.88283557916667,37.01096934583333,64.0,76.0
217,36.548573579166664,37.027682445833335,42.0,67.0
218,37.21709757916666,37.522111654166665,49.0,85.0
219,37.551359579166665,37.6530309375,58.0,73.0
220,37.551359579166665,37.6530309375,61.0,75.0
221,37.551359579166665,37.68924265416666,64.0,78.0
222,37.551359579166665,37.7658443625,44.0,70.0
223,37.71849057916667,37.875872270833334,46.0,56.0
224,37.88562157916667,38.198992204166665,47.0,76.0
225,38.21988357916666,38.322947695833335,54.0,85.0
226,38.21988357916666,38.324340454166666,59.0,80.0
227,38.21988357916666,38.349410104166665,63.0,82.0
228,38.554145579166665,38.9691875625,51.0,95.0
229,38.88840757916667,38.998435487500004,54.0,82.0
230,38.88840757916667,38.998435487500004,59.0,80.0
231,38.88840757916667,39.026290654166665,63.0,85.0
232,39.556931579166665,39.66417397083333,54.0,76.0
233,39.556931579166665,39.666959487499994,59.0,76.0
234,39.556931579166665,39.69063637916666,63.0,78.0
235,39.22266957916666,39.729633612499995,47.0,93.0
236,39.89119357916667,40.204564204166665,51.0,85.0
237,40.22545557916666,40.349411070833334,59.0,73.0
238,40.22545557916666,40.350803829166665,54.0,78.0
239,40.22545557916666,40.380051754166665,63.0,80.0
240,40.89397957916667,41.02211334583333,54.0,67.0
241,40.559717579166666,41.059717820833335,51.0,69.0
242,40.559717579166666,41.06389609583333,39.0,70.0
243,40.89397957916667,41.08060919583333,63.0,78.0
244,40.89397957916667,41.111249879166664,57.0,85.0
245,41.228241579166664,41.72824182083333,46.0,72.0
246,41.562503579166666,41.763060779166665,63.0,80.0
247,41.562503579166666,41.765846295833335,54.0,70.0
248,41.562503579166666,41.792308704166665,61.0,78.0
249,41.562503579166666,41.8020580125,57.0,76.0
250,41.89676557916667,42.357768587500004,51.0,67.0
251,42.231027579166664,42.37308892916667,63.0,80.0
252,41.89676557916667,42.388409270833336,39.0,73.0
253,42.231027579166664,42.414871679166666,54.0,75.0
254,42.231027579166664,42.53604165416667,57.0,80.0
255,42.231027579166664,42.54857647916667,61.0,80.0
256,42.56528957916667,42.8633398625,46.0,70.0
257,42.89955157916667,43.01515052083333,54.0,76.0
258,42.89955157916667,43.04857672083333,63.0,82.0
259,42.89955157916667,43.07921740416667,61.0,78.0
260,42.89955157916667,43.14606980416667,57.0,82.0
261,43.56807557916667,43.65999762916667,56.0,78.0
262,43.56807557916667,43.66835417916667,59.0,88.0
263,43.56807557916667,43.680889004166666,64.0,80.0
264,43.233813579166664,43.71292244583333,49.0,70.0
265,43.233813579166664,43.73102830416667,37.0,72.0
266,44.236599579166665,44.32295059583333,56.0,78.0
267,44.236599579166665,44.327128870833334,59.0,88.0
268,43.90233757916667,44.3340926625,44.0,73.0
269,44.236599579166665,44.3549840375,64.0,85.0
270,44.57086157916667,45.004009420833334,49.0,75.0
271,44.57086157916667,45.0151514875,37.0,70.0
272,44.90512357916667,45.04718492916666,64.0,61.0
273,44.90512357916667,45.0569342375,56.0,75.0
274,44.90512357916667,45.069469062500005,59.0,78.0
275,45.239385579166665,45.36891210416667,37.0,67.0
276,45.239385579166665,45.410694854166664,49.0,80.0
277,45.573614612499995,45.75733752916666,40.0,75.0
278,45.740637254166664,45.84776254166666,41.0,64.0
279,46.24117911249999,46.34538411249999,56.0,78.0
280,45.90757464583333,46.348162912499994,42.0,80.0
281,46.24117911249999,46.36205384999999,59.0,88.0
282,46.24117911249999,46.37594274583332,64.0,85.0
283,46.57455395624999,46.781498504166656,47.0,80.0
284,46.90788745624999,47.021776402083326,56.0,80.0
285,46.90788745624999,47.02594307083332,64.0,88.0
286,46.90788745624999,47.03566529791666,61.0,78.0
287,47.24122095624999,47.64816560416666,42.0,76.0
288,47.57455445624999,47.68705451249999,58.0,85.0
289,47.57455445624999,47.69538784999999,61.0,85.0
290,47.57455445624999,47.702332297916655,66.0,82.0
291,47.90788795624999,48.281499254166654,44.0,85.0
292,48.24122145624999,48.41066598541666,46.0,95.0
293,48.57455495624999,48.92872179999999,47.0,93.0
294,48.90788845624999,49.03705518749999,54.0,75.0
295,48.90788845624999,49.04122185624999,59.0,73.0
296,48.90788845624999,49.056499641666655,63.0,80.0
297,49.24122195624999,49.50927764583332,51.0,72.0
298,49.57455545624999,49.706499966666655,54.0,85.0
299,49.57455545624999,49.71622219374999,59.0,78.0
300,49.57455545624999,49.72872219999999,63.0,80.0
301,49.90788895624999,50.255111352083325,42.0,80.0
302,50.24122245624999,50.38288919374999,54.0,80.0
303,50.24122245624999,50.38705586249999,59.0,78.0
304,50.24122245624999,50.42038921249999,63.0,82.0
305,50.57455595624999,50.94538947499999,35.0,72.0
306,50.90788945624999,51.063445089583325,59.0,75.0
307,50.90788945624999,51.06483397916666,54.0,76.0
308,50.90788945624999,51.07177842708332,63.0,80.0
309,51.24122295624999,51.667612058333326,39.0,67.0
310,51.574556456249994,51.667612058333326,63.0,78.0
311,51.574556456249994,51.68705651249999,54.0,73.0
312,51.24122295624999,51.69261207083332,51.0,64.0
313,51.574556456249994,51.699556518749986,61.0,78.0
314,51.574556456249994,51.721778752083324,57.0,80.0
315,51.90788995624999,52.350945733333326,46.0,60.0
316,52.24122345624999,52.369001297916654,54.0,72.0
317,52.24122345624999,52.41205687499999,57.0,78.0
318,52.24122345624999,52.41205687499999,61.0,78.0
319,52.57455695624999,52.99955716874999,44.0,80.0
320,52.90789045624999,53.125946120833326,60.0,78.0
321,52.90789045624999,53.13150167916666,56.0,80.0
322,52.90789045624999,53.144001685416654,63.0,85.0
323,53.24122395624999,53.544001885416655,48.0,93.0
324,53.57455745624999,53.68566862291666,56.0,78.0
325,53.57455745624999,53.70650196666666,63.0,85.0
326,53.57455745624999,53.714835304166655,60.0,85.0
327,54.24122445624999,54.33289116874999,56.0,69.0
328,54.24122445624999,54.341224506249986,59.0,85.0
329,54.24122445624999,54.363446739583324,64.0,80.0
330,53.90789095624999,54.38011341458332,49.0,72.0
331,53.90789095624999,54.38705786249999,37.0,72.0
332,54.57455795624999,54.959280370833326,44.0,73.0
333,54.90789145624999,55.00789150624999,56.0,78.0
334,54.90789145624999,55.01622484374999,59.0,82.0
335,54.90789145624999,55.037058187499994,64.0,78.0
336,55.241224956249994,55.673169616666655,42.0,72.0
337,55.57455845624999,55.69955851874999,58.0,85.0
338,55.57455845624999,55.709280745833325,66.0,76.0
339,55.57455845624999,55.720391862499994,61.0,97.0
340,55.90789195624999,56.16761430833333,49.0,75.0
341,56.24122545624999,56.448170004166656,58.0,95.0
342,56.24122545624999,56.53428115833332,61.0,85.0
343,56.24122545624999,56.54261449583332,66.0,80.0
344,56.90789245624999,57.02455918124999,54.0,78.0
345,56.57455895624999,57.03567029791665,35.0,73.0
346,56.90789245624999,57.03844807708332,59.0,82.0
347,56.57455895624999,57.04955919374999,47.0,75.0
348,56.90789245624999,57.060670310416654,63.0,80.0
349,57.24122595624999,57.60789280624999,42.0,70.0
350,57.574559456249986,57.68428173333332,58.0,73.0
351,57.574559456249986,57.70233729791666,54.0,80.0
352,57.574559456249986,57.70511507708332,63.0,82.0
353,57.574559456249986,57.71205952499999,59.0,88.0
354,58.24122645624999,58.31900427291666,56.0,67.0
355,58.24122645624999,58.31900427291666,66.0,67.0
356,58.24122645624999,58.325948720833324,59.0,88.0
357,58.24122645624999,58.335670947916654,63.0,78.0
358,57.90789295624999,58.42178210208333,44.0,73.0
359,58.57455995624999,58.94678236458333,51.0,69.0
360,58.907893456249994,59.01344906458333,56.0,82.0
361,58.907893456249994,59.05372686249999,60.0,101.0
362,58.907893456249994,59.05789353124999,63.0,80.0
363,59.07456020624999,59.295393649999994,64.0,13.0
364,59.57456045624999,59.67594939583333,56.0,70.0
365,59.57456045624999,59.68706051249999,61.0,73.0
366,59.57456045624999,59.68844940208332,59.0,75.0
367,59.57456045624999,59.71900497291666,64.0,75.0
368,59.24122695624999,59.730116089583326,37.0,78.0
369,59.24122695624999,59.74956054374999,49.0,82.0
370,59.90789395624999,60.28011636458332,44.0,67.0
371,60.24122745624999,60.39122753124999,61.0,75.0
372,60.24122745624999,60.39539419999999,56.0,73.0
373,60.24122745624999,60.398171979166655,59.0,75.0
374,60.24122745624999,60.41483865416666,64.0,75.0
375,60.57456095624999,60.87872777499999,44.0,72.0
376,60.90789445624999,61.048172304166656,56.0,73.0
377,60.90789445624999,61.06622786874999,59.0,78.0
378,60.90789445624999,61.081505654166655,63.0,76.0
379,61.241227956249986,61.61345036458332,37.0,80.0
380,61.57456145624999,61.72595042083333,56.0,75.0
381,61.57456145624999,61.72872819999999,59.0,76.0
382,61.57456145624999,61.755117102083325,64.0,82.0
383,62.24122845624999,62.35650629166666,58.0,76.0
384,62.24122845624999,62.36622851874999,61.0,80.0
385,62.24122845624999,62.37317296666666,64.0,78.0
386,61.90789495624999,62.44400633541666,46.0,76.0
387,62.574561956249994,62.87456210624999,52.0,76.0
388,62.90789545624999,63.03706218749999,58.0,75.0
389,62.90789545624999,63.03983996666666,61.0,80.0
390,62.90789545624999,63.053728862499995,64.0,76.0
391,63.57456245624999,63.65789583124999,58.0,80.0
392,63.57456245624999,63.66206249999999,55.0,97.0
393,63.57456245624999,63.688451402083324,61.0,82.0
394,63.24122895624999,63.691229181249994,51.0,78.0
395,63.24122895624999,63.710673635416654,39.0,73.0
396,63.90789595624999,63.998173779166656,46.0,64.0
397,63.90789595624999,64.46900734791666,39.0,73.0
398,63.90789595624999,64.51622959374998,51.0,80.0
399,63.90789595624999,64.56345183958332,61.0,76.0
400,63.90789595624999,64.56484072916666,58.0,76.0
401,63.90789595624999,64.57456295624999,55.0,78.0
402,63.90789595624999,64.62872965,63.0,72.0
403,64.90789645624999,65.00650761666665,59.0,76.0
404,64.90789645624999,65.00928539583333,63.0,80.0
405,64.57456295624999,65.01484095416666,44.0,73.0
406,64.90789645624999,65.0370631875,68.0,78.0
407,65.57456345624999,65.67456350625,59.0,78.0
408,65.57456345624999,65.67734128541666,63.0,82.0
409,65.24122995625,65.70095240833332,51.0,59.0
410,65.57456345624999,65.70373018749999,68.0,78.0
411,66.24123045625,66.33428605833332,59.0,76.0
412,66.24123045625,66.33845272708332,63.0,82.0
413,66.24123045625,66.37595274583333,68.0,80.0
414,65.90789695625,66.38289719374998,44.0,63.0
415,66.57456395624999,66.94123080624999,51.0,70.0
416,66.90789745625,67.03845307708332,59.0,75.0
417,66.90789745625,67.05789753124999,63.0,78.0
418,66.90789745625,67.07873087499999,68.0,80.0
419,67.57456445624999,67.67456450625,61.0,75.0
420,67.57456445624999,67.67734228541666,64.0,82.0
421,67.57456445624999,67.70373118749998,68.0,75.0
422,67.24123095624999,67.71623119374999,49.0,70.0
423,68.24123145624999,68.33150927916665,61.0,73.0
424,68.24123145624999,68.34262039583332,64.0,78.0
425,67.90789795625,68.36484262916666,56.0,56.0
426,68.24123145624999,68.36484262916666,68.0,75.0
427,68.90789845625,68.99817627916666,61.0,76.0
428,68.90789845625,69.00512072708332,64.0,80.0
429,68.90789845625,69.0203985125,68.0,80.0
430,68.57456495624999,69.02456518124998,49.0,64.0
431,69.24123195624999,69.52456543124998,56.0,64.0
432,69.57456545624999,69.67734328541665,61.0,75.0
433,69.57456545624999,69.68428773333332,64.0,82.0
434,69.57456545624999,69.68845440208332,68.0,80.0
435,69.90789895625,70.32456583125,42.0,76.0
436,70.24123245624999,70.33845472708333,58.0,76.0
437,70.24123245624999,70.34262139583332,64.0,73.0
438,70.24123245624999,70.34401028541666,61.0,76.0
439,70.90789945625,71.00234394791666,58.0,70.0
440,70.90789945625,71.01345506458333,61.0,76.0
441,70.57456595624998,71.02456618125,49.0,63.0
442,70.90789945625,71.02873284999998,64.0,75.0
443,71.57456645624998,71.67456650624999,58.0,69.0
444,71.57456645624998,71.69123318125,64.0,76.0
445,71.24123295624999,71.69401096041666,42.0,69.0
446,71.57456645624998,71.69678873958333,61.0,66.0
447,71.90789995624999,72.43151132916665,42.0,64.0
448,72.57456695625,72.98428938333332,47.0,66.0
449,72.90790045624999,73.0037338375,59.0,91.0
450,72.90790045624999,73.00790050625,54.0,80.0
451,72.90790045624999,73.02178940208333,63.0,82.0
452,73.24123395625,73.64401193541666,47.0,72.0
453,73.57456745625,73.65651194166665,59.0,82.0
454,73.57456745625,73.66762305833332,54.0,76.0
455,73.57456745625,73.68012306458333,63.0,72.0
456,73.90790095624999,75.06067931041666,39.0,80.0
457,74.57456795625,75.09123488124999,58.0,78.0
458,74.57456795625,75.12734601041666,61.0,78.0
459,74.57456795625,75.13151267916666,55.0,75.0
460,74.57456795625,75.22179050208332,63.0,66.0
461,75.57456845624999,75.66762405833333,59.0,76.0
462,75.57456845624999,75.67179072708332,63.0,82.0
463,75.24123495625,75.71206852499999,44.0,73.0
464,75.57456845624999,75.72179075208332,68.0,82.0
465,75.90790195624999,76.28567992291666,51.0,75.0
466,76.24123545625,76.31762438333332,63.0,73.0
467,76.24123545625,76.32317994166667,59.0,73.0
468,76.24123545625,76.37456885625,68.0,76.0
469,76.90790245624999,76.99401361041666,63.0,82.0
470,76.90790245624999,76.99540249999998,59.0,76.0
471,76.90790245624999,77.03012473958333,68.0,78.0
472,76.57456895624999,77.04262474583332,44.0,69.0
473,77.24123595625,77.62040281249999,51.0,76.0
474,77.57456945624999,77.67318061666666,59.0,78.0
475,77.57456945624999,77.69123618124999,63.0,82.0
476,77.57456945624999,77.71762508333333,68.0,80.0
477,78.24123645625,78.32873649999999,61.0,75.0
478,78.24123645625,78.3370698375,64.0,80.0
479,78.24123645625,78.35234762291665,68.0,75.0
480,77.90790295624998,78.36623651874999,49.0,73.0
481,78.90790345624998,78.99401461041666,61.0,66.0
482,78.57456995624999,79.00373683749999,56.0,75.0
483,78.90790345624998,79.00651461666666,64.0,70.0
484,78.90790345624998,79.0204035125,68.0,69.0
485,78.90790345624998,79.0204035125,71.0,72.0
486,79.24123695624999,79.64679271458333,49.0,70.0
487,79.57457045625,79.68429273333332,61.0,76.0
488,79.57457045625,79.69123718124999,64.0,88.0
489,79.57457045625,79.72179275208333,68.0,78.0
490,79.90790395624998,80.21762633333333,56.0,63.0
491,80.24123745624999,80.33845972708332,64.0,73.0
492,80.24123745624999,80.34401528541666,61.0,73.0
493,80.24123745624999,80.36207084999998,68.0,73.0
494,80.57457095625,80.97318226666665,42.0,78.0
495,80.90790445625,81.00790450624999,58.0,73.0
496,80.90790445625,81.01068228541666,61.0,75.0
497,80.90790445625,81.03429340833333,64.0,78.0
498,81.57457145625,81.65234927291667,66.0,75.0
499,81.24123795624999,81.65929372083332,49.0,76.0
500,81.57457145625,81.6620715,58.0,76.0
501,81.57457145625,81.66484927916666,61.0,78.0
502,81.57457145625,81.68846040208332,64.0,80.0
503,82.24123845624999,82.33012738958332,66.0,75.0
504,82.24123845624999,82.33846072708332,61.0,67.0
505,82.24123845624999,82.33984961666665,58.0,70.0
506,82.24123845624999,82.35096073333332,64.0,80.0
507,81.90790495625,82.35651629166665,42.0,70.0
508,82.57457195625,82.98290549375,44.0,80.0
509,82.90790545624999,83.14262779583333,46.0,58.0
510,83.24123895624999,83.58290579375,47.0,91.0
511,83.57457245625,83.66068361041665,59.0,72.0
512,83.57457245625,83.6620725,63.0,76.0
513,83.57457245625,83.68151695416665,66.0,80.0
514,83.90790595624999,84.28846170208332,47.0,82.0
515,84.24123945624999,84.33707283749999,59.0,70.0
516,84.24123945624999,84.35096173333332,63.0,85.0
517,84.24123945624999,84.37457285624998,66.0,88.0
518,84.57457295625,85.70929574583332,39.0,82.0
519,84.90790645624999,85.9037402875,70.0,80.0
520,84.90790645624999,85.96762920833334,61.0,85.0
521,84.90790645624999,85.97457365624999,67.0,101.0
522,85.90790695624999,86.32318494166665,44.0,72.0
523,86.24124045624998,86.34124050624999,63.0,101.0
524,86.24124045624998,86.34401828541667,59.0,85.0
525,86.24124045624998,86.36762940833333,68.0,85.0
526,86.90790745625,87.00096305833333,59.0,70.0
527,86.57457395624999,87.01624084374998,51.0,53.0
528,86.90790745625,87.02596307083333,63.0,78.0
529,86.90790745625,87.03429640833332,68.0,73.0
530,87.57457445624999,87.66901894791665,59.0,72.0
531,87.24124095624998,87.68013006458332,44.0,75.0
532,87.57457445624999,87.68013006458332,63.0,82.0
533,87.57457445624999,87.68985229166665,68.0,75.0
534,87.90790795625,88.23290811874999,51.0,73.0
535,88.24124145625,88.33568594791666,59.0,80.0
536,88.24124145625,88.34124150624999,63.0,80.0
537,88.24124145625,88.36346373958332,68.0,76.0
538,88.90790845625,89.00096405833332,64.0,80.0
539,88.90790845625,89.00235294791665,61.0,75.0
540,88.57457495624999,89.01068628541665,49.0,57.0
541,88.90790845625,89.02179740208332,68.0,76.0
542,88.57457495624999,89.07040853749999,37.0,66.0
543,89.24124195625,89.678742175,44.0,75.0
544,89.57457545624999,89.68013106458332,61.0,73.0
545,89.57457545624999,89.68568662291665,64.0,73.0
546,89.57457545624999,89.71207552499999,68.0,76.0
547,90.24124245624999,90.34124250624998,64.0,80.0
548,90.24124245624999,90.35096473333333,61.0,80.0
549,90.24124245624999,90.37318696666665,68.0,82.0
550,89.90790895625,90.41624254375,37.0,82.0
551,90.57457595624999,90.98152060416666,44.0,66.0
552,90.90790945625,91.05096508333332,61.0,75.0
553,90.90790945625,91.05652064166665,64.0,72.0
554,90.90790945625,91.08846510208332,68.0,70.0
555,91.57457645624999,91.68568762291666,61.0,85.0
556,91.57457645624999,91.68568762291666,66.0,99.0
557,91.57457645624999,91.68568762291666,68.0,82.0
558,91.57457645624999,91.69124318125,64.0,99.0
559,91.24124295624999,91.74679876458333,42.0,70.0
560,91.90790995625,92.33846572708333,49.0,72.0
561,92.24124345624999,92.34679906458332,61.0,67.0
562,92.24124345624999,92.36485462916666,64.0,64.0
563,92.24124345624999,92.36485462916666,66.0,64.0
564,92.24124345624999,92.36902129791666,68.0,70.0
565,92.90791045625,93.01485495416665,61.0,70.0
566,92.90791045625,93.02735496041666,64.0,72.0
567,92.90791045625,93.03429940833333,68.0,69.0
568,92.90791045625,93.03568829791666,66.0,72.0
569,92.57457695624998,93.03985496666667,42.0,85.0
570,93.24124395624999,93.63013303958333,44.0,88.0
571,93.57457745624998,93.71624419374999,61.0,78.0
572,93.57457745624998,93.72318864166667,64.0,82.0
573,93.57457745624998,93.76485532916666,68.0,78.0
574,93.90791095624999,94.30096670833333,47.0,95.0
575,94.24124445625,94.38430008333333,63.0,97.0
576,94.24124445625,94.38568897291665,59.0,88.0
577,94.24124445625,94.40235564791666,66.0,99.0
578,94.57457795624998,94.89402256041666,51.0,93.0
579,94.90791145624999,95.09402266041666,59.0,82.0
580,94.90791145624999,95.11763378333333,66.0,93.0
581,94.90791145624999,95.12457823124998,63.0,93.0
582,95.24124495625,95.90096750833332,60.0,88.0
583,95.24124495625,96.012078675,63.0,85.0
584,95.24124495625,96.02318979166665,68.0,78.0
585,95.90791195624999,96.02596757083333,60.0,35.0
586,95.24124495625,96.03707868749999,44.0,70.0
587,95.24124495625,96.0537453625,56.0,59.0
588,95.90791195624999,96.45235667291666,66.0,73.0
589,96.57457895625,96.96624581875,49.0,85.0
590,96.90791245624999,97.00930139583332,61.0,70.0
591,96.90791245624999,97.01346806458332,64.0,75.0
592,96.90791245624999,97.03707918749998,68.0,75.0
593,97.24124595625,97.60096835833332,56.0,53.0
594,97.57457945624999,97.66485727916665,61.0,73.0
595,97.57457945624999,97.68291284374999,64.0,76.0
596,97.57457945624999,97.7037461875,68.0,75.0
597,97.90791295624999,98.32457983124999,49.0,63.0
598,98.24124645625,98.3287465,61.0,72.0
599,98.24124645625,98.34402428541665,64.0,78.0
600,98.24124645625,98.36902429791667,68.0,75.0
601,98.57457995624999,98.91763568333332,56.0,69.0
602,98.90791345624999,99.00235794791666,61.0,75.0
603,98.90791345624999,99.012080175,64.0,75.0
604,98.90791345624999,99.02735796041665,68.0,76.0
605,99.24124695625,99.65791383125,42.0,70.0
606,99.57458045624999,99.68013606458332,58.0,80.0
607,99.57458045624999,99.69402496041666,61.0,75.0
608,99.57458045624999,99.69958051875,64.0,67.0
609,99.90791395624998,100.32735861041667,49.0,75.0
610,100.24124745625,100.33846972708332,58.0,75.0
611,100.24124745625,100.34819195416665,61.0,76.0
612,100.24124745625,100.37735863541666,64.0,78.0
613,100.90791445624998,101.00513672708333,58.0,76.0
614,100.90791445624998,101.02319229166666,61.0,78.0
615,100.90791445624998,101.03569229791665,64.0,76.0
616,100.57458095624999,101.05235897291666,42.0,67.0
617,101.24124795624999,101.54541477499998,49.0,85.0
618,101.57458145625,101.67597039583333,58.0,73.0
619,101.57458145625,101.67597039583333,61.0,75.0
620,101.57458145625,101.712081525,64.0,78.0
621,101.57458145625,101.78847045208332,44.0,70.0
622,101.74124820624999,101.89819272916665,46.0,56.0
623,101.90791495624998,102.22041511249999,47.0,76.0
624,102.24124845624999,102.34402628541666,54.0,85.0
625,102.24124845624999,102.345415175,59.0,80.0
626,102.24124845624999,102.37041518749999,63.0,82.0
627,102.57458195625,102.98847105208333,51.0,95.0
628,102.90791545625,103.01763773333332,54.0,82.0
629,102.90791545625,103.01763773333332,59.0,80.0
630,102.90791545625,103.04541552499998,63.0,85.0
631,103.57458245625,103.68152695416666,54.0,76.0
632,103.57458245625,103.68430473333333,59.0,76.0
633,103.57458245625,103.70791585625,63.0,78.0
634,103.24124895624999,103.74680476458332,47.0,93.0
635,103.90791595625,104.22041611249999,51.0,85.0
636,104.24124945624999,104.36486062916666,59.0,73.0
637,104.24124945624999,104.36624951874998,54.0,78.0
638,104.24124945624999,104.3954162,63.0,80.0
639,104.90791645624999,105.03569429791665,54.0,67.0
640,104.57458295625,105.07319431666666,51.0,69.0
641,104.57458295625,105.07736098541666,39.0,70.0
642,104.90791645624999,105.09402766041666,63.0,78.0
643,104.90791645624999,105.12458323125,57.0,85.0
644,105.24124995624999,105.73986131666666,46.0,72.0
645,105.57458345625,105.77458355625,63.0,80.0
646,105.57458345625,105.77736133541666,54.0,70.0
647,105.57458345625,105.8037502375,61.0,78.0
648,105.57458345625,105.81347246458333,57.0,76.0
649,105.90791695624999,106.36763940833333,51.0,67.0
650,106.24125045624999,106.38291719374999,63.0,80.0
651,105.90791695624999,106.39819497916666,39.0,73.0
652,106.24125045624999,106.42458388124999,54.0,75.0
653,106.24125045624999,106.54541727499999,57.0,80.0
654,106.24125045624999,106.55791728124998,61.0,80.0
655,106.57458395625,106.87180632708333,46.0,70.0
656,106.90791745624999,107.02319529166667,54.0,76.0
657,106.90791745624999,107.05652864166666,63.0,82.0
658,106.90791745624999,107.0870842125,61.0,78.0
659,106.90791745624999,107.15375091249999,57.0,82.0
660,107.57458445625,107.66625116875,56.0,78.0
661,107.57458445625,107.67458450625,59.0,88.0
662,107.57458445625,107.6870845125,64.0,80.0
663,107.24125095624998,107.71902897291666,49.0,70.0
664,107.24125095624998,107.73708453749998,37.0,72.0
665,108.24125145624998,108.32736261041666,56.0,78.0
666,108.24125145624998,108.33152927916666,59.0,88.0
667,107.90791795624999,108.33847372708333,44.0,73.0
668,108.24125145624998,108.35930707083332,64.0,85.0
669,108.57458495624999,109.00652961666665,49.0,75.0
670,108.57458495624999,109.01764073333332,37.0,70.0
671,108.90791845625,109.04958519374999,64.0,61.0
672,108.90791845625,109.05930742083333,56.0,75.0
673,108.90791845625,109.07180742708333,59.0,78.0
674,109.24125195624998,109.37041868749999,37.0,67.0
675,109.24125195624998,109.41208537499999,49.0,80.0
676,109.57458545624999,109.75791888124999,40.0,75.0
677,109.74125220624998,109.84819670416667,41.0,64.0
678,110.24125245625,110.34541917499999,56.0,78.0
679,109.90791895625,110.34819695416667,42.0,80.0
680,110.24125245625,110.36208584999999,59.0,88.0
681,110.24125245625,110.37597474583333,64.0,85.0
682,110.57458595624999,110.78153050416665,47.0,80.0
683,110.90791945625,111.02180840208332,56.0,80.0
684,110.90791945625,111.02597507083333,64.0,88.0
685,110.90791945625,111.03569729791666,61.0,78.0
686,111.24125295625,111.64819760416665,42.0,76.0
687,111.57458645624999,111.68708651249999,58.0,85.0
688,111.57458645624999,111.69541985,61.0,85.0
689,111.57458645624999,111.70236429791666,66.0,82.0
690,111.90791995625,112.28153125416667,44.0,85.0
691,112.24125345624999,112.41069798541666,46.0,95.0
692,112.57458695624999,112.9287538,47.0,93.0
693,112.90792045625,113.03708718749999,54.0,75.0
694,112.90792045625,113.04125385625,59.0,73.0
695,112.90792045625,113.05653164166667,63.0,80.0
696,113.24125395624999,113.50930964583333,51.0,72.0
697,113.57458745624999,113.70653196666666,54.0,85.0
698,113.57458745624999,113.71625419374999,59.0,78.0
699,113.57458745624999,113.7287542,63.0,80.0
700,113.90792095625,114.25514335208332,42.0,80.0
701,114.24125445624999,114.38292119375,54.0,80.0
702,114.24125445624999,114.3870878625,59.0,78.0
703,114.24125445624999,114.42042121249999,63.0,82.0
704,114.57458795625,114.94542147499999,35.0,72.0
705,114.90792145625,115.06347708958333,59.0,75.0
706,114.90792145625,115.06486597916665,54.0,76.0
707,114.90792145625,115.07181042708332,63.0,80.0
708,115.24125495624999,115.66764405833332,39.0,67.0
709,115.57458845625,115.66764405833332,63.0,78.0
710,115.57458845625,115.6870885125,54.0,73.0
711,115.24125495624999,115.69264407083332,51.0,64.0
712,115.57458845625,115.69958851874999,61.0,78.0
713,115.57458845625,115.72181075208333,57.0,80.0
714,115.90792195625,116.35097773333332,46.0,60.0
715,116.24125545624999,116.36903329791666,54.0,72.0
716,116.24125545624999,116.412088875,57.0,78.0
717,116.24125545624999,116.412088875,61.0,78.0
718,116.57458895625,116.99958916874999,44.0,80.0
719,116.90792245624999,117.12597812083332,60.0,78.0
720,116.90792245624999,117.13153367916667,56.0,80.0
721,116.90792245624999,117.14403368541666,63.0,85.0
722,117.24125595624999,117.54403388541665,48.0,93.0
723,117.57458945625,117.68570062291666,56.0,78.0
724,117.57458945625,117.70653396666665,63.0,85.0
725,117.57458945625,117.71486730416666,60.0,85.0
726,118.24125645625,118.33292316874999,56.0,69.0
727,118.24125645625,118.34125650624999,59.0,85.0
728,118.24125645625,118.36347873958333,64.0,80.0
729,117.90792295624999,118.38014541458332,49.0,72.0
730,117.90792295624999,118.38708986249999,37.0,72.0
731,118.57458995625,118.95931237083333,44.0,73.0
732,118.90792345624999,119.00792350625,56.0,78.0
733,118.90792345624999,119.01625684374999,59.0,82.0
734,118.90792345624999,119.0370901875,64.0,78.0
735,119.24125695625,119.67320161666666,42.0,72.0
736,119.57459045625,119.69959051874999,58.0,85.0
737,119.57459045625,119.70931274583333,66.0,76.0
738,119.57459045625,119.7204238625,61.0,97.0
739,119.90792395624999,120.16764630833333,49.0,75.0
740,120.24125745625,120.44820200416666,58.0,95.0
741,120.24125745625,120.53431315833332,61.0,85.0
742,120.24125745625,120.54264649583332,66.0,80.0
743,120.90792445624999,121.02459118124999,54.0,78.0
744,120.57459095624999,121.03570229791666,35.0,73.0
745,120.90792445624999,121.03848007708332,59.0,82.0
746,120.57459095624999,121.04959119374999,47.0,75.0
747,120.90792445624999,121.06070231041666,63.0,80.0
748,121.24125795625,121.60792480625,42.0,70.0
749,121.57459145624999,121.68431373333333,58.0,73.0
750,121.57459145624999,121.70236929791666,54.0,80.0
751,121.57459145624999,121.70514707708332,63.0,82.0
752,121.57459145624999,121.71209152499999,59.0,88.0
753,122.24125845625,122.31903627291666,56.0,67.0
754,122.24125845625,122.31903627291666,66.0,67.0
755,122.24125845625,122.32598072083333,59.0,88.0
756,122.24125845625,122.33570294791666,63.0,78.0
757,121.90792495625,122.42181410208333,44.0,73.0
758,122.57459195624999,122.94681436458333,51.0,69.0
759,122.90792545625,123.01348106458333,56.0,82.0
760,122.90792545625,123.05375886249999,60.0,101.0
761,122.90792545625,123.05792553124999,63.0,80.0
762,123.07459220624999,123.29542565,64.0,13.0
763,123.57459245624999,123.67598139583333,56.0,70.0
764,123.57459245624999,123.68709251249999,61.0,73.0
765,123.57459245624999,123.68848140208333,59.0,75.0
766,123.57459245624999,123.71903697291665,64.0,75.0
767,123.24125895625,123.73014808958332,37.0,78.0
768,123.24125895625,123.74959254375,49.0,82.0
769,123.90792595625,124.28014836458333,44.0,67.0
770,124.24125945624999,124.39125953124999,61.0,75.0
771,124.24125945624999,124.39542619999999,56.0,73.0
772,124.24125945624999,124.39820397916667,59.0,75.0
773,124.24125945624999,124.41487065416666,64.0,75.0
774,124.57459295624999,124.87875977499999,44.0,72.0
775,124.90792645625,125.04820430416666,56.0,73.0
776,124.90792645625,125.06625986875,59.0,78.0
777,124.90792645625,125.08153765416665,63.0,76.0
778,125.24125995624999,125.61348236458332,37.0,80.0
779,125.57459345625,125.72598242083333,56.0,75.0
780,125.57459345625,125.7287602,59.0,76.0
781,125.57459345625,125.75514910208332,64.0,82.0
782,126.24126045624999,126.35653829166667,58.0,76.0
783,126.24126045624999,126.36626051875,61.0,80.0
784,126.24126045624999,126.37320496666666,64.0,78.0
785,125.90792695625,126.44403833541666,46.0,76.0
786,126.57459395625,126.87459410624999,52.0,76.0
787,126.90792745625,127.03709418749999,58.0,75.0
788,126.90792745625,127.03987196666667,61.0,80.0
789,126.90792745625,127.0537608625,64.0,76.0
790,127.57459445625,127.65792783124999,58.0,80.0
791,127.57459445625,127.6620945,55.0,97.0
792,127.57459445625,127.68848340208332,61.0,82.0
793,127.24126095624999,127.69126118125,51.0,78.0
794,127.24126095624999,127.71070563541666,39.0,73.0
795,127.90792795624999,127.99820577916665,46.0,64.0
796,127.90792795624999,128.46903934791666,39.0,73.0
797,127.90792795624999,128.51626159375,51.0,80.0
798,127.90792795624999,128.56348383958334,61.0,76.0
799,127.90792795624999,128.56487272916667,58.0,76.0
800,127.90792795624999,128.57598384583332,55.0,78.0
801,127.90792795624999,128.62876165,63.0,72.0
802,128.86070621041665,128.93848402708332,63.0,85.0
803,128.47459490625,128.94265069583332,44.0,70.0
804,128.86070621041665,128.94820625416668,59.0,82.0
805,128.478761575,128.96765070833334,56.0,85.0
806,128.85931732083333,128.98431738333332,68.0,82.0
807,129.19403971041666,129.32598422083333,52.0,66.0
808,129.53987321666665,129.63153992916665,59.0,82.0
809,129.53987321666665,129.6370954875,63.0,88.0
810,129.53987321666665,129.65792883125,68.0,85.0
811,129.18292859374998,129.68292884375,51.0,57.0
812,129.84681781458335,130.29126248125,44.0,75.0
813,129.85931782083333,130.3037624875,56.0,75.0
814,130.1954291,130.33154027916666,59.0,88.0
815,130.1954291,130.34820695416664,63.0,85.0
816,130.18987354166666,130.36348473958333,68.0,85.0
817,130.52598482083334,130.68848490208333,56.0,99.0
818,130.49820702916668,130.78570717291666,44.0,72.0
819,130.74959604375,130.98292949375,47.0,80.0
820,130.91765168333333,131.19959626874999,48.0,82.0
821,131.17737403541668,131.58431868333332,49.0,63.0
822,131.57459645625,131.59542979999998,66.0,57.0
823,131.54681866458333,131.62598537083332,64.0,85.0
824,131.54404088541668,131.62876315,61.0,85.0
825,131.54404088541668,131.6509853833333,68.0,88.0
826,131.86487437916668,132.28154125416665,56.0,85.0
827,132.21487455416667,132.30237459791664,64.0,76.0
828,132.21765233333332,132.3037634875,61.0,76.0
829,132.21487455416667,132.32737461041665,68.0,78.0
830,132.85931932083332,132.96348603958333,64.0,85.0
831,132.8620971,132.97320826666666,61.0,78.0
832,132.86348598958332,132.98987494166664,68.0,80.0
833,132.52043026249999,132.99265272083332,49.0,67.0
834,133.17459725625,133.53987521666664,56.0,75.0
835,133.52459743125,133.59681968958333,61.0,72.0
836,133.5218196520833,133.59681968958333,64.0,72.0
837,133.52598632083334,133.61626414375,68.0,78.0
838,134.24126445625,134.2870978125,70.0,66.0
839,134.24126445625,134.33293116875,61.0,73.0
840,133.90793095625,134.33432005833333,46.0,70.0
841,134.24126445625,134.345431175,64.0,80.0
842,134.24126445625,134.36070896041667,68.0,72.0
843,134.90793145625,134.95793148125,70.0,63.0
844,134.57459795625,135.00793150624997,58.0,85.0
845,134.90793145625,135.02182040208334,61.0,73.0
846,134.90793145625,135.05237597291665,64.0,73.0
847,134.90793145625,135.078764875,68.0,73.0
848,135.57459845625,135.7287652,61.0,66.0
849,135.57459845625,135.7370985375,64.0,70.0
850,135.57459845625,135.78154300416668,68.0,75.0
851,135.90793195625,135.9537653125,44.0,48.0
852,135.90793195625,136.14404318541665,56.0,56.0
853,136.24126545625,136.3468210645833,64.0,78.0
854,136.24126545625,136.35654329166664,61.0,78.0
855,136.24126545625,136.378765525,68.0,78.0
856,136.57459895625,137.00098805833332,39.0,67.0
857,136.57459895625,137.0204325125,51.0,82.0
858,136.90793245625,137.05654364166668,55.0,91.0
859,136.90793245625,137.08571032291667,58.0,73.0
860,136.90793245625,137.09126588125,63.0,88.0
861,137.24126595625,137.70237729791666,46.0,67.0
862,137.57459945624998,137.70237729791666,58.0,70.0
863,137.57459945624998,137.72182175208332,55.0,80.0
864,137.57459945624998,137.78015511458332,61.0,75.0
865,137.90793295625,138.278766475,51.0,88.0
866,137.90793295625,138.30654426666666,39.0,72.0
867,138.24126645625,138.37598874583333,58.0,72.0
868,138.24126645625,138.38987764166666,55.0,78.0
869,138.24126645625,138.48571102291666,61.0,80.0
870,138.57459995624998,138.93848902708334,42.0,82.0
871,138.90793345625,139.06348908958333,43.0,70.0
872,139.24126695625,139.62737826041666,44.0,85.0
873,139.57460045624998,139.64682271458332,66.0,63.0
874,139.57460045624998,139.66071161041666,56.0,66.0
875,139.57460045624998,139.67460050625,59.0,70.0
876,139.57460045624998,139.68571162291664,63.0,64.0
877,139.90793395625,140.27737858541667,51.0,85.0
878,140.24126745625,140.31071193541666,66.0,64.0
879,140.24126745625,140.33293416875,56.0,69.0
880,140.24126745625,140.33710083749997,59.0,75.0
881,140.24126745625,140.34960084375,63.0,63.0
882,140.57460095624998,140.97599004583333,44.0,69.0
883,140.90793445625,140.99821227916667,56.0,70.0
884,140.90793445625,141.012101175,59.0,78.0
885,140.90793445625,141.03987896666666,63.0,73.0
886,141.24126795625,141.54682366458331,51.0,64.0
887,141.57460145624998,141.68849040208335,56.0,69.0
888,141.57460145624998,141.69821262916668,59.0,76.0
889,141.57460145624998,141.73987931666665,63.0,76.0
890,141.90793495625,142.3634907395833,37.0,72.0
891,142.24126845625,142.37460185625,64.0,80.0
892,142.24126845625,142.37599074583332,61.0,66.0
893,142.24126845625,142.3871018625,56.0,70.0
894,141.90793495625,142.4093240958333,49.0,66.0
895,142.90793545625,142.99265772083334,64.0,64.0
896,142.90793545625,143.00793550625,56.0,67.0
897,142.90793545625,143.02876885,61.0,80.0
898,142.57460195624998,143.05793553125,44.0,73.0
899,143.57460245624998,143.67460250624998,64.0,70.0
900,143.24126895625,143.68293584375,49.0,64.0
901,143.57460245624998,143.6843247333333,56.0,73.0
902,143.57460245624998,143.69960251875,61.0,76.0
903,143.24126895625,143.72043586249998,37.0,66.0
904,143.90793595625001,144.04821380416666,37.0,57.0
905,143.90793595625001,144.3204361625,49.0,82.0
906,144.24126945625,144.3204361625,64.0,67.0
907,144.24126945625,144.35932507083334,56.0,72.0
908,144.24126945625,144.37182507708332,61.0,76.0
909,144.90793645625,144.99960316875,61.0,69.0
910,144.90793645625,145.00238094791666,71.0,66.0
911,144.57460295624998,145.01349206458332,58.0,75.0
912,144.90793645625,145.0204365125,64.0,78.0
913,144.57460295624998,145.03015873958333,46.0,72.0
914,144.90793645625,145.03849207708333,68.0,73.0
915,145.57460345624997,145.67182572708333,61.0,72.0
916,145.24126995625,145.68015906458334,52.0,70.0
917,145.57460345624997,145.70932574583333,64.0,76.0
918,145.57460345624997,145.7301590895833,68.0,73.0
919,145.90793695625,146.31904827291666,58.0,78.0
920,146.24127045625,146.31904827291666,71.0,66.0
921,146.24127045625,146.33849272708332,61.0,69.0
922,146.24127045625,146.35932607083333,64.0,78.0
923,146.24127045625,146.378770525,68.0,73.0
924,145.90793695625,146.44821500416666,46.0,62.0
925,146.57460395624997,146.83988186666664,52.0,78.0
926,146.90793745625,147.03571529791668,61.0,75.0
927,146.90793745625,147.03571529791668,64.0,78.0
928,146.90793745625,147.04960419374999,68.0,78.0
929,147.24127095625,147.678771175,39.0,69.0
930,147.24127095625,147.6843267333333,51.0,78.0
931,147.57460445625,147.70654896666667,55.0,93.0
932,147.57460445625,147.70654896666667,58.0,80.0
933,147.57460445625,147.75099343333332,63.0,85.0
934,147.90793795625,148.35793818125,46.0,66.0
935,148.24127145625,148.40932709583333,55.0,72.0
936,148.24127145625,148.46904934791667,61.0,82.0
937,148.57460495625,148.9218273520833,39.0,69.0
938,148.57460495625,148.94960514374998,51.0,88.0
939,148.90793845625,149.07460520625,55.0,78.0
940,148.90793845625,149.07460520625,58.0,76.0
941,148.90793845625,149.37460535625,63.0,82.0
942,149.24127195625,149.59404991041666,42.0,76.0
943,149.57460545625,149.68571662291666,43.0,54.0
944,149.90793895625,150.29960581875,49.0,85.0
945,150.24127245625,150.34266139583332,61.0,70.0
946,150.24127245625,150.34682806458332,64.0,75.0
947,150.24127245625,150.37043918749998,68.0,75.0
948,150.57460595625,150.93432835833335,56.0,53.0
949,150.90793945625,150.99821727916668,61.0,73.0
950,150.90793945625,151.01627284375,64.0,76.0
951,150.90793945625,151.0371061875,68.0,75.0
952,151.24127295625,151.65793983125,49.0,63.0
953,151.57460645625,151.6621065,61.0,72.0
954,151.57460645625,151.67738428541668,64.0,78.0
955,151.57460645625,151.70238429791667,68.0,75.0
956,151.90793995625,152.25099568333331,56.0,69.0
957,152.24127345624998,152.33571794791666,61.0,75.0
958,152.24127345624998,152.345440175,64.0,75.0
959,152.24127345624998,152.36071796041665,68.0,76.0
960,152.57460695625,152.99127383125,42.0,70.0
961,152.90794045625,153.0134960645833,58.0,80.0
962,152.90794045625,153.02738496041667,61.0,75.0
963,152.90794045625,153.03294051875,64.0,67.0
964,153.24127395624998,153.66071861041667,49.0,75.0
965,153.57460745625,153.67182972708332,58.0,75.0
966,153.57460745625,153.68155195416665,61.0,76.0
967,153.57460745625,153.71071863541664,64.0,78.0
968,154.24127445624998,154.33849672708334,58.0,76.0
969,154.24127445624998,154.35655229166667,61.0,78.0
970,154.24127445624998,154.36905229791665,64.0,76.0
971,153.90794095625,154.38571897291666,42.0,67.0
972,154.57460795625,154.878774775,49.0,85.0
973,154.90794145625,155.00933039583333,58.0,73.0
974,154.90794145625,155.00933039583333,61.0,75.0
975,154.90794145625,155.045441525,64.0,78.0
976,154.90794145625,155.12183045208332,44.0,70.0
977,155.07460820625,155.23155272916665,46.0,56.0
978,155.24127495624998,155.55377511249998,47.0,76.0
979,155.57460845625,155.67738628541667,54.0,85.0
980,155.57460845625,155.678775175,59.0,80.0
981,155.57460845625,155.7037751875,63.0,82.0
982,155.90794195625,156.32183105208333,51.0,95.0
983,156.24127545624998,156.35099773333332,54.0,82.0
984,156.24127545624998,156.35099773333332,59.0,80.0
985,156.24127545624998,156.37877552499998,63.0,85.0
986,156.90794245625,157.01488695416666,54.0,76.0
987,156.90794245625,157.01766473333333,59.0,76.0
988,156.90794245625,157.04127585625,63.0,78.0
989,156.57460895625,157.08016476458334,47.0,93.0
990,157.24127595624998,157.55377611249997,51.0,85.0
991,157.57460945625,157.69822062916666,59.0,73.0
992,157.57460945625,157.69960951874998,54.0,78.0
993,157.57460945625,157.7287762,63.0,80.0
994,158.24127645624998,158.36905429791665,54.0,67.0
995,157.90794295625,158.40655431666664,51.0,69.0
996,157.90794295625,158.41072098541667,39.0,70.0
997,158.24127645624998,158.42738766041666,63.0,78.0
998,158.24127645624998,158.45794323125,57.0,85.0
999,158.57460995625001,159.07322131666666,46.0,72.0
1000,158.90794345625,159.10794355625,63.0,80.0
1001,158.90794345625,159.11072133541666,54.0,70.0
1002,158.90794345625,159.1371102375,61.0,78.0
1003,158.90794345625,159.14683246458333,57.0,76.0
1004,159.24127695624998,159.70099940833333,51.0,67.0
1005,159.57461045625,159.71627719375,63.0,80.0
1006,159.24127695624998,159.73155497916667,39.0,73.0
1007,159.57461045625,159.75794388125001,54.0,75.0
1008,159.57461045625,159.878777275,57.0,80.0
1009,159.57461045625,159.89127728124998,61.0,80.0
1010,159.90794395625,160.20516632708333,46.0,70.0
1011,160.24127745624997,160.35655529166667,54.0,76.0
1012,160.24127745624997,160.38988864166666,63.0,82.0
1013,160.24127745624997,160.4204442125,61.0,78.0
1014,160.24127745624997,160.4871109125,57.0,82.0
1015,160.90794445625,160.99961116875,56.0,78.0
1016,160.90794445625,161.00794450625,59.0,88.0
1017,160.90794445625,161.02044451249998,64.0,80.0
1018,160.57461095625,161.05238897291667,49.0,70.0
1019,160.57461095625,161.0704445375,37.0,72.0
1020,161.57461145625,161.66072261041666,56.0,78.0
1021,161.57461145625,161.66488927916666,59.0,88.0
1022,161.24127795624997,161.6718337270833,44.0,73.0
1023,161.57461145625,161.69266707083332,64.0,85.0
1024,161.90794495625,162.33988961666665,49.0,75.0
1025,161.90794495625,162.3510007333333,37.0,70.0
1026,162.24127845625,162.38294519375,64.0,61.0
1027,162.24127845625,162.39266742083333,56.0,75.0
1028,162.24127845625,162.4051674270833,59.0,78.0
1029,162.57461195625,162.7037786875,37.0,67.0
1030,162.57461195625,162.74544537499997,49.0,80.0
1031,162.90794545625,163.09127888125,40.0,75.0
1032,163.07461220624998,163.18155670416667,41.0,64.0
1033,163.57461245625,163.678779175,56.0,78.0
1034,163.24127895625,163.68155695416667,42.0,80.0
1035,163.57461245625,163.69544585,59.0,88.0
1036,163.57461245625,163.70933474583333,64.0,85.0
1037,163.90794595625,164.11489050416668,47.0,80.0
1038,164.24127945625,164.35516840208334,56.0,80.0
1039,164.24127945625,164.3593350708333,64.0,88.0
1040,164.24127945625,164.36905729791664,61.0,78.0
1041,164.57461295625,164.98155760416665,42.0,76.0
1042,164.90794645625,165.0204465125,58.0,85.0
1043,164.90794645625,165.02877984999998,61.0,85.0
1044,164.90794645625,165.03572429791666,66.0,82.0
1045,165.24127995625,165.61489125416665,44.0,85.0
1046,165.57461345625,165.74405798541665,46.0,95.0
1047,165.90794695625,166.2621138,47.0,93.0
1048,166.24128045625,166.3704471875,54.0,75.0
1049,166.24128045625,166.37461385625,59.0,73.0
1050,166.24128045625,166.38989164166668,63.0,80.0
1051,166.57461395625,166.84266964583333,51.0,72.0
1052,166.90794745624999,167.03989196666666,54.0,85.0
1053,166.90794745624999,167.04961419375,59.0,78.0
1054,166.90794745624999,167.0621142,63.0,80.0
1055,167.24128095625,167.5885033520833,42.0,80.0
1056,167.57461445625,167.71628119374998,54.0,80.0
1057,167.57461445625,167.7204478625,59.0,78.0
1058,167.57461445625,167.75378121249997,63.0,82.0
1059,167.90794795624998,168.278781475,35.0,72.0
1060,168.24128145625,168.39683708958333,59.0,75.0
1061,168.24128145625,168.39822597916668,54.0,76.0
1062,168.24128145625,168.40517042708333,63.0,80.0
1063,168.57461495625,169.0010040583333,39.0,67.0
1064,168.90794845624998,169.0010040583333,63.0,78.0
1065,168.90794845624998,169.0204485125,54.0,73.0
1066,168.57461495625,169.02600407083332,51.0,64.0
1067,168.90794845624998,169.03294851875,61.0,78.0
1068,168.90794845624998,169.0551707520833,57.0,80.0
1069,169.24128195625,169.68433773333334,46.0,60.0
1070,169.57461545625,169.70239329791667,54.0,72.0
1071,169.57461545625,169.745448875,57.0,78.0
1072,169.57461545625,169.745448875,61.0,78.0
1073,169.90794895624998,170.33294916875,44.0,80.0
1074,170.24128245625,170.4593381208333,60.0,78.0
1075,170.24128245625,170.46489367916666,56.0,80.0
1076,170.24128245625,170.47739368541664,63.0,85.0
1077,170.57461595625,170.87739388541667,48.0,93.0
1078,170.90794945624998,171.01906062291664,56.0,78.0
1079,170.90794945624998,171.03989396666668,63.0,85.0
1080,170.90794945624998,171.04822730416666,60.0,85.0
1081,171.57461645625,171.66628316875,56.0,69.0
1082,171.57461645625,171.67461650625,59.0,85.0
1083,171.57461645625,171.6968387395833,64.0,80.0
1084,171.24128295625,171.71350541458332,49.0,72.0
1085,171.24128295625,171.7204498625,37.0,72.0
1086,171.90794995624998,172.29267237083332,44.0,73.0
1087,172.24128345625,172.34128350625,56.0,78.0
1088,172.24128345625,172.34961684375,59.0,82.0
1089,172.24128345625,172.3704501875,64.0,78.0
1090,172.57461695625,173.00656161666666,42.0,72.0
1091,172.90795045624998,173.03295051875,58.0,85.0
1092,172.90795045624998,173.04267274583333,66.0,76.0
1093,172.90795045624998,173.05378386249998,61.0,97.0
1094,173.24128395625002,173.50100630833333,49.0,75.0
1095,173.57461745625,173.78156200416666,58.0,95.0
1096,173.57461745625,173.86767315833333,61.0,85.0
1097,173.57461745625,173.87600649583334,66.0,80.0
1098,174.24128445625,174.35795118125,54.0,78.0
1099,173.90795095624998,174.36906229791666,35.0,73.0
1100,174.24128445625,174.37184007708333,59.0,82.0
1101,173.90795095624998,174.38295119375,47.0,75.0
1102,174.24128445625,174.39406231041667,63.0,80.0
1103,174.57461795625,174.94128480625,42.0,70.0
1104,174.90795145625,175.01767373333334,58.0,73.0
1105,174.90795145625,175.03572929791667,54.0,80.0
1106,174.90795145625,175.03850707708332,63.0,82.0
1107,174.90795145625,175.045451525,59.0,88.0
1108,175.57461845625,175.65239627291666,56.0,67.0
1109,175.57461845625,175.65239627291666,66.0,67.0
1110,175.57461845625,175.65934072083334,59.0,88.0
1111,175.57461845625,175.66906294791667,63.0,78.0
1112,175.24128495624998,175.75517410208332,44.0,73.0
1113,175.90795195625,176.28017436458333,51.0,69.0
1114,176.24128545624998,176.34684106458332,56.0,82.0
1115,176.24128545624998,176.3871188625,60.0,101.0
1116,176.24128545624998,176.39128553125,63.0,80.0
1117,176.40795220625,176.62878565,64.0,13.0
1118,176.90795245625,177.00934139583333,56.0,70.0
1119,176.90795245625,177.0204525125,61.0,73.0
1120,176.90795245625,177.02184140208334,59.0,75.0
1121,176.90795245625,177.05239697291665,64.0,75.0
1122,176.57461895625,177.06350808958334,37.0,78.0
1123,176.57461895625,177.08295254375,49.0,82.0
1124,177.24128595624998,177.61350836458334,44.0,67.0
1125,177.57461945625,177.72461953125,61.0,75.0
1126,177.57461945625,177.7287862,56.0,73.0
1127,177.57461945625,177.73156397916665,59.0,75.0
1128,177.57461945625,177.74823065416666,64.0,75.0
1129,177.90795295625,178.212119775,44.0,72.0
1130,178.24128645624998,178.38156430416666,56.0,73.0
1131,178.24128645624998,178.39961986875,59.0,78.0
1132,178.24128645624998,178.41489765416665,63.0,76.0
1133,178.57461995625,178.94684236458332,37.0,80.0
1134,178.90795345625,179.05934242083333,56.0,75.0
1135,178.90795345625,179.06212019999998,59.0,76.0
1136,178.90795345625,179.08850910208332,64.0,82.0
1137,179.57462045625,179.68989829166665,58.0,76.0
1138,179.57462045625,179.69962051874998,61.0,80.0
1139,179.57462045625,179.70656496666666,64.0,78.0
1140,179.24128695625,179.77739833541665,46.0,76.0
1141,179.90795395625,180.20795410624999,52.0,76.0
1142,180.24128745625,180.3704541875,58.0,75.0
1143,180.24128745625,180.37323196666665,61.0,80.0
1144,180.24128745625,180.38712086249998,64.0,76.0
1145,180.90795445625,180.99128783125,58.0,80.0
1146,180.90795445625,180.9954545,55.0,97.0
1147,180.90795445625,181.02184340208333,61.0,82.0
1148,180.57462095625,181.02462118124998,51.0,78.0
1149,180.57462095625,181.04406563541667,39.0,73.0
1150,181.24128795625,181.33156577916665,46.0,64.0
1151,181.24128795625,181.80239934791666,39.0,73.0
1152,181.24128795625,181.84962159375,51.0,80.0
1153,181.24128795625,181.89684383958334,61.0,76.0
1154,181.24128795625,181.89823272916666,58.0,76.0
1155,181.24128795625,181.90934384583332,55.0,78.0
1156,181.24128795625,181.96212165,63.0,72.0
1157,182.19406621041665,182.27184402708332,63.0,85.0
1158,181.80795490625,182.27601069583332,44.0,70.0
1159,182.19406621041665,182.28156625416665,59.0,82.0
1160,181.812121575,182.30101070833334,56.0,85.0
1161,182.19267732083333,182.31767738333332,68.0,82.0
1162,182.52739971041666,182.65934422083333,52.0,66.0
1163,182.87323321666665,182.96489992916665,59.0,82.0
1164,182.87323321666665,182.9704554875,63.0,88.0
1165,182.87323321666665,182.99128883125,68.0,85.0
1166,182.51628859375,183.01628884375,51.0,57.0
1167,183.18017781458332,183.62462248125,44.0,75.0
1168,183.19267782083332,183.6371224875,56.0,75.0
1169,183.52878909999998,183.66490027916666,59.0,88.0
1170,183.52878909999998,183.68156695416667,63.0,85.0
1171,183.52323354166666,183.69684473958333,68.0,85.0
1172,183.85934482083331,184.02184490208333,56.0,99.0
1173,183.83156702916665,184.11906717291666,44.0,72.0
1174,184.08295604375,184.31628949375,47.0,80.0
1175,184.25101168333333,184.53295626874998,48.0,82.0
1176,184.51073403541668,184.57462295624998,49.0,63.0
1177,184.57462295624998,184.96628981875,49.0,85.0
1178,184.90795645625,185.00934539583332,61.0,70.0
1179,184.90795645625,185.01351206458332,64.0,75.0
1180,184.90795645625,185.0371231875,68.0,75.0
1181,185.24128995625,185.60101235833332,56.0,53.0
1182,185.57462345624998,185.66490127916666,61.0,73.0
1183,185.57462345624998,185.68295684375,64.0,76.0
1184,185.57462345624998,185.7037901875,68.0,75.0
1185,185.90795695625,186.32462383125,49.0,63.0
1186,186.24129045625,186.3287905,61.0,72.0
1187,186.24129045625,186.34406828541665,64.0,78.0
1188,186.24129045625,186.36906829791667,68.0,75.0
1189,186.57462395625,186.91767968333332,56.0,69.0
1190,186.90795745625,187.00240194791667,61.0,75.0
1191,186.90795745625,187.012124175,64.0,75.0
1192,186.90795745625,187.02740196041665,68.0,76.0
1193,187.24129095625,187.65795783125,42.0,70.0
1194,187.57462445625,187.68018006458334,58.0,80.0
1195,187.57462445625,187.69406896041667,61.0,75.0
1196,187.57462445625,187.69962451875,64.0,67.0
1197,187.90795795625,188.32740261041667,49.0,75.0
1198,188.24129145625,188.33851372708332,58.0,75.0
1199,188.24129145625,188.34823595416665,61.0,76.0
1200,188.24129145625,188.37740263541667,64.0,78.0
1201,188.90795845625,189.00518072708334,58.0,76.0
1202,188.90795845625,189.02323629166665,61.0,78.0
1203,188.90795845625,189.03573629791666,64.0,76.0
1204,188.57462495625,189.05240297291667,42.0,67.0
1205,189.24129195625,189.545458775,49.0,85.0
1206,189.57462545625,189.67601439583333,58.0,73.0
1207,189.57462545625,189.67601439583333,61.0,75.0
1208,189.57462545625,189.712125525,64.0,78.0
1209,189.57462545625,189.78851445208332,44.0,70.0
1210,189.74129220625,189.89823672916665,46.0,56.0
1211,189.90795895624998,190.2204591125,47.0,76.0
1212,190.24129245625,190.34407028541665,54.0,85.0
1213,190.24129245625,190.345459175,59.0,80.0
1214,190.24129245625,190.3704591875,63.0,82.0
1215,190.57462595625,190.98851505208333,51.0,95.0
1216,190.90795945624998,191.01768173333332,54.0,82.0
1217,190.90795945624998,191.01768173333332,59.0,80.0
1218,190.90795945624998,191.04545952499998,63.0,85.0
1219,191.57462645625,191.68157095416666,54.0,76.0
1220,191.57462645625,191.68434873333334,59.0,76.0
1221,191.57462645625,191.70795985625,63.0,78.0
1222,191.24129295625,191.74684876458332,47.0,93.0
1223,191.90795995624998,192.2204601125,51.0,85.0
1224,192.24129345625,192.36490462916666,59.0,73.0
1225,192.24129345625,192.36629351874998,54.0,78.0
1226,192.24129345625,192.3954602,63.0,80.0
1227,192.90796045624998,193.03573829791665,54.0,67.0
1228,192.57462695625,193.07323831666668,51.0,69.0
1229,192.57462695625,193.07740498541665,39.0,70.0
1230,192.90796045624998,193.09407166041666,63.0,78.0
1231,192.90796045624998,193.12462723125,57.0,85.0
1232,193.24129395625,193.73990531666666,46.0,72.0
1233,193.57462745625,193.77462755624998,63.0,80.0
1234,193.57462745625,193.77740533541666,54.0,70.0
1235,193.57462745625,193.8037942375,61.0,78.0
1236,193.57462745625,193.81351646458333,57.0,76.0
1237,193.90796095625,194.36768340833333,51.0,67.0
1238,194.24129445625,194.38296119375,63.0,80.0
1239,193.90796095625,194.39823897916665,39.0,73.0
1240,194.24129445625,194.42462788125,54.0,75.0
1241,194.24129445625,194.545461275,57.0,80.0
1242,194.24129445625,194.55796128125,61.0,80.0
1243,194.57462795625,194.87185032708334,46.0,70.0
1244,194.90796145625,195.02323929166667,54.0,76.0
1245,194.90796145625,195.05657264166666,63.0,82.0
1246,194.90796145625,195.0871282125,61.0,78.0
1247,194.90796145625,195.1537949125,57.0,82.0
1248,195.57462845625,195.66629516875,56.0,78.0
1249,195.57462845625,195.67462850625,59.0,88.0
1250,195.57462845625,195.68712851249998,64.0,80.0
1251,195.24129495625,195.71907297291665,49.0,70.0
1252,195.24129495625,195.73712853749998,37.0,72.0
1253,196.24129545625,196.32740661041666,56.0,78.0
1254,196.24129545625,196.33157327916666,59.0,88.0
1255,195.90796195625,196.33851772708334,44.0,73.0
1256,196.24129545625,196.35935107083333,64.0,85.0
1257,196.57462895625,197.00657361666666,49.0,75.0
1258,196.57462895625,197.01768473333334,37.0,70.0
1259,196.90796245625,197.04962919375,64.0,61.0
1260,196.90796245625,197.05935142083334,56.0,75.0
1261,196.90796245625,197.07185142708332,59.0,78.0
1262,197.24129595624999,197.3704626875,37.0,67.0
1263,197.24129595624999,197.412129375,49.0,80.0
1264,197.57462945625,197.75796288125,40.0,75.0
1265,197.74129620624998,197.84824070416667,41.0,64.0
1266,198.24129645624998,198.345463175,56.0,78.0
1267,197.90796295625,198.34824095416667,42.0,80.0
1268,198.24129645624998,198.36212985,59.0,88.0
1269,198.24129645624998,198.37601874583333,64.0,85.0
1270,198.57462995625,198.78157450416666,47.0,80.0
1271,198.90796345625,199.02185240208334,56.0,80.0
1272,198.90796345625,199.02601907083334,64.0,88.0
1273,198.90796345625,199.03574129791667,61.0,78.0
1274,199.24129695624998,199.64824160416666,42.0,76.0
1275,199.57463045625,199.6871305125,58.0,85.0
1276,199.57463045625,199.69546384999998,61.0,85.0
1277,199.57463045625,199.70240829791666,66.0,82.0
1278,199.90796395625,200.28157525416665,44.0,85.0
1279,200.24129745625,200.41074198541665,46.0,95.0
1280,200.57463095625,200.92879779999998,47.0,93.0
1281,200.90796445625,201.0371311875,54.0,75.0
1282,200.90796445625,201.04129785625,59.0,73.0
1283,200.90796445625,201.05657564166665,63.0,80.0
1284,201.24129795625,201.50935364583333,51.0,72.0
1285,201.57463145625,201.70657596666666,54.0,85.0
1286,201.57463145625,201.71629819375,59.0,78.0
1287,201.57463145625,201.7287982,63.0,80.0
1288,201.90796495625,202.25518735208334,42.0,80.0
1289,202.24129845625,202.38296519374998,54.0,80.0
1290,202.24129845625,202.38713186249998,59.0,78.0
1291,202.24129845625,202.4204652125,63.0,82.0
1292,202.57463195625,202.945465475,35.0,72.0
1293,202.90796545625,203.06352108958333,59.0,75.0
1294,202.90796545625,203.06490997916666,54.0,76.0
1295,202.90796545625,203.07185442708334,63.0,80.0
1296,203.24129895625,203.66768805833334,39.0,67.0
1297,203.57463245625,203.66768805833334,63.0,78.0
1298,203.57463245625,203.6871325125,54.0,73.0
1299,203.24129895625,203.69268807083333,51.0,64.0
1300,203.57463245625,203.69963251875,61.0,78.0
1301,203.57463245625,203.72185475208332,57.0,80.0
1302,203.90796595625,204.35102173333334,46.0,60.0
1303,204.24129945625,204.36907729791668,54.0,72.0
1304,204.24129945625,204.412132875,57.0,78.0
1305,204.24129945625,204.412132875,61.0,78.0
1306,204.57463295624999,204.99963316875,44.0,80.0
1307,204.90796645625,205.12602212083334,60.0,78.0
1308,204.90796645625,205.13157767916667,56.0,80.0
1309,204.90796645625,205.14407768541668,63.0,85.0
1310,205.24129995625,205.54407788541667,48.0,93.0
1311,205.57463345624998,205.68574462291667,56.0,78.0
1312,205.57463345624998,205.70657796666666,63.0,85.0
1313,205.57463345624998,205.71491130416666,60.0,85.0
1314,206.24130045625,206.33296716875,56.0,69.0
1315,206.24130045625,206.34130050625,59.0,85.0
1316,206.24130045625,206.36352273958332,64.0,80.0
1317,205.90796695625,206.38018941458333,49.0,72.0
1318,205.90796695625,206.3871338625,37.0,72.0
1319,206.57463395624998,206.95935637083332,44.0,73.0
1320,206.90796745625,207.00796750625,56.0,78.0
1321,206.90796745625,207.01630084375,59.0,82.0
1322,206.90796745625,207.0371341875,64.0,78.0
1323,207.24130095625,207.67324561666666,42.0,72.0
1324,207.57463445625,207.69963451875,58.0,85.0
1325,207.57463445625,207.70935674583333,66.0,76.0
1326,207.57463445625,207.7204678625,61.0,97.0
1327,207.90796795625,208.16769030833333,49.0,75.0
1328,208.24130145625,208.44824600416666,58.0,95.0
1329,208.24130145625,208.53435715833334,61.0,85.0
1330,208.24130145625,208.54269049583334,66.0,80.0
1331,208.90796845625,209.02463518125,54.0,78.0
1332,208.57463495625,209.03574629791666,35.0,73.0
1333,208.90796845625,209.03852407708334,59.0,82.0
1334,208.57463495625,209.04963519375,47.0,75.0
1335,208.90796845625,209.06074631041668,63.0,80.0
1336,209.24130195625,209.60796880625,42.0,70.0
1337,209.57463545625,209.68435773333334,58.0,73.0
1338,209.57463545625,209.70241329791665,54.0,80.0
1339,209.57463545625,209.70519107708333,63.0,82.0
1340,209.57463545625,209.712135525,59.0,88.0
1341,210.24130245625,210.31908027291666,56.0,67.0
1342,210.24130245625,210.31908027291666,66.0,67.0
1343,210.24130245625,210.32602472083332,59.0,88.0
1344,210.24130245625,210.33574694791668,63.0,78.0
1345,209.90796895625,210.42185810208332,44.0,73.0
1346,210.57463595625,210.94685836458333,51.0,69.0
1347,210.90796945625,211.01352506458332,56.0,82.0
1348,210.90796945625,211.0538028625,60.0,101.0
1349,210.90796945625,211.05796953125,63.0,80.0
1350,211.07463620625,211.29546965,64.0,13.0
1351,211.57463645625,211.67602539583334,56.0,70.0
1352,211.57463645625,211.6871365125,61.0,73.0
1353,211.57463645625,211.68852540208334,59.0,75.0
1354,211.57463645625,211.71908097291666,64.0,75.0
1355,211.24130295625,211.73019208958334,37.0,78.0
1356,211.24130295625,211.74963654375,49.0,82.0
1357,211.90796995624999,212.28019236458334,44.0,67.0
1358,212.24130345625,212.39130353125,61.0,75.0
1359,212.24130345625,212.3954702,56.0,73.0
1360,212.24130345625,212.39824797916665,59.0,75.0
1361,212.24130345625,212.41491465416667,64.0,75.0
1362,212.57463695625,212.878803775,44.0,72.0
1363,212.90797045624998,213.04824830416666,56.0,73.0
1364,212.90797045624998,213.06630386875,59.0,78.0
1365,212.90797045624998,213.08158165416665,63.0,76.0
1366,213.24130395625,213.61352636458332,37.0,80.0
1367,213.57463745625,213.72602642083334,56.0,75.0
1368,213.57463745625,213.72880419999998,59.0,76.0
1369,213.57463745625,213.75519310208333,64.0,82.0
1370,214.24130445625,214.35658229166665,58.0,76.0
1371,214.24130445625,214.36630451874998,61.0,80.0
1372,214.24130445625,214.37324896666667,64.0,78.0
1373,213.90797095624998,214.44408233541665,46.0,76.0
1374,214.57463795625,214.87463810625,52.0,76.0
1375,214.90797145625,215.0371381875,58.0,75.0
1376,214.90797145625,215.03991596666665,61.0,80.0
1377,214.90797145625,215.0538048625,64.0,76.0
1378,215.57463845625,215.65797183125,58.0,80.0
1379,215.57463845625,215.6621385,55.0,97.0
1380,215.57463845625,215.68852740208334,61.0,82.0
1381,215.24130495625,215.69130518125,51.0,78.0
1382,215.24130495625,215.71074963541668,39.0,73.0
1383,215.90797195625,215.99824977916666,46.0,64.0
1384,215.90797195625,216.46908334791667,39.0,73.0
1385,215.90797195625,216.51630559375,51.0,80.0
1386,215.90797195625,216.56352783958332,61.0,76.0
1387,215.90797195625,216.56491672916667,58.0,76.0
1388,215.90797195625,216.57602784583332,55.0,78.0
1389,215.90797195625,216.62880565,63.0,72.0
1390,216.86075021041665,216.93852802708332,63.0,85.0
1391,216.47463890625,216.94269469583332,44.0,70.0
1392,216.86075021041665,216.94825025416665,59.0,82.0
1393,216.478805575,216.96769470833334,56.0,85.0
1394,216.85936132083333,216.98436138333332,68.0,82.0
1395,217.19408371041666,217.32602822083334,52.0,66.0
1396,217.53991721666665,217.63158392916665,59.0,82.0
1397,217.53991721666665,217.6371394875,63.0,88.0
1398,217.53991721666665,217.65797283125,68.0,85.0
1399,217.18297259375,217.68297284375,51.0,57.0
1400,217.84686181458332,218.29130648125,44.0,75.0
1401,217.85936182083333,218.3038064875,56.0,75.0
1402,218.1954731,218.33158427916666,59.0,88.0
1403,218.1954731,218.34825095416667,63.0,85.0
1404,218.18991754166666,218.36352873958333,68.0,85.0
1405,218.52602882083332,218.68852890208333,56.0,99.0
1406,218.49825102916665,218.78575117291666,44.0,72.0
1407,218.74964004375,218.98297349375,47.0,80.0
1408,218.91769568333333,219.19964026875,48.0,82.0
1409,219.17741803541665,219.24130695624999,49.0,63.0
1410,219.57464045625,219.68158495416665,56.0,72.0
1411,219.57464045625,219.69408496041666,61.0,80.0
1412,219.57464045625,219.69408496041666,64.0,78.0
1413,219.24130695624999,219.69686273958334,37.0,75.0
1414,219.24130695624999,219.72741831041665,49.0,67.0
1415,220.24130745624998,220.34408528541667,56.0,75.0
1416,220.24130745624998,220.35241862291667,64.0,78.0
1417,220.24130745624998,220.36075196041665,61.0,82.0
1418,219.90797395625,220.41908532291666,44.0,73.0
1419,220.57464095625,221.00103005833333,49.0,80.0
1420,220.90797445625,221.01769673333334,56.0,70.0
1421,220.57464095625,221.02464118125,37.0,72.0
1422,220.90797445625,221.03853007708332,64.0,73.0
1423,220.90797445625,221.05103008333333,61.0,80.0
1424,221.24130795624998,221.60519702708334,44.0,72.0
1425,221.57464145625,221.67464150625,64.0,73.0
1426,221.57464145625,221.69964151874998,56.0,72.0
1427,221.57464145625,221.71075263541667,61.0,78.0
1428,221.90797495625,222.02325279166666,40.0,73.0
1429,221.90797495625,222.27741958541665,42.0,75.0
1430,222.24130845625,222.35103073333332,64.0,78.0
1431,222.24130845625,222.35936407083332,58.0,75.0
1432,222.24130845625,222.36491962916665,61.0,80.0
1433,222.90797545625,223.00658661666665,58.0,76.0
1434,222.90797545625,223.01908662291666,61.0,80.0
1435,222.90797545625,223.03158662916667,64.0,80.0
1436,222.57464195625,223.03436440833332,49.0,69.0
1437,223.57464245625,223.70103140833334,58.0,75.0
1438,223.24130895625,223.71630919375,42.0,72.0
1439,223.57464245625,223.71908697291667,61.0,73.0
1440,223.57464245625,223.73158697916665,64.0,78.0
1441,223.90797595625,224.31908727291668,44.0,85.0
1442,224.24130945625,224.5288096,46.0,93.0
1443,224.90797645625,225.0038098375,59.0,88.0
1444,224.90797645625,225.00658761666665,54.0,85.0
1445,224.90797645625,225.02047651249998,63.0,82.0
1446,224.57464295625,225.07464320625,47.0,93.0
1447,225.24130995625,225.55519900208333,51.0,76.0
1448,225.57464345625,225.66353238958334,59.0,97.0
1449,225.57464345625,225.6704768375,54.0,93.0
1450,225.57464345625,225.68297684375,63.0,93.0
1451,225.90797695625,226.33992161666666,39.0,70.0
1452,225.90797695625,226.34686606458334,51.0,91.0
1453,226.24131045625,226.37603274583333,55.0,99.0
1454,226.24131045625,226.3954772,58.0,95.0
1455,226.24131045625,226.60658841666665,63.0,85.0
1456,226.57464395625,226.93575524791666,43.0,93.0
1457,226.90797745625,227.02881084999999,58.0,99.0
1458,226.90797745625,227.03853307708334,55.0,99.0
1459,226.90797745625,227.06353308958333,61.0,80.0
1460,227.57464445624998,227.66075561041666,56.0,76.0
1461,227.57464445624998,227.66631116874998,59.0,85.0
1462,227.24131095625,227.66770005833334,44.0,62.0
1463,227.57464445624998,227.69270007083333,63.0,76.0
1464,228.24131145625,228.28436703333333,44.0,40.0
1465,227.90797795625,228.3204781625,51.0,73.0
1466,228.24131145625,228.33297816875,59.0,85.0
1467,228.24131145625,228.33436705833333,56.0,78.0
1468,228.24131145625,228.35936707083334,63.0,82.0
1469,228.90797845625,229.01908962291665,56.0,80.0
1470,228.90797845625,229.02881184999998,59.0,88.0
1471,228.90797845625,229.05658964166668,63.0,75.0
1472,228.57464495624998,229.06631186875,44.0,73.0
1473,229.24131195625,229.45520095208332,51.0,91.0
1474,229.57464545625,229.69270107083332,59.0,88.0
1475,229.57464545625,229.69547885,56.0,82.0
1476,229.57464545625,229.98853455208334,63.0,91.0
1477,230.24131245625,230.34964584374998,56.0,91.0
1478,230.24131245625,230.35659029166666,64.0,82.0
1479,230.24131245625,230.35797918125,61.0,95.0
1480,229.90797895625,230.36214585,49.0,85.0
1481,229.90797895625,230.36492362916667,37.0,73.0
1482,230.57464595625,231.03159062916666,44.0,67.0
1483,230.90797945625,231.05797953125,64.0,76.0
1484,230.90797945625,231.06353508958333,56.0,70.0
1485,230.90797945625,231.06492397916665,61.0,72.0
1486,231.24131295625,231.63575759791667,49.0,73.0
1487,231.24131295625,231.71492430416666,37.0,66.0
1488,231.57464645625,231.71631319374998,56.0,82.0
1489,231.57464645625,231.71770208333334,61.0,95.0
1490,231.57464645625,231.7538132125,64.0,75.0
1491,231.90797995625,232.26770235833334,44.0,70.0
1492,232.24131345625,232.38020241458332,56.0,75.0
1493,232.24131345625,232.3871468625,61.0,70.0
1494,232.24131345625,232.40103575833334,64.0,78.0
1495,232.61075808541668,232.65798033125,54.0,46.0
1496,232.57186917708333,232.99409161041666,42.0,82.0
1497,232.89270267083333,233.00659161666667,58.0,85.0
1498,232.89409156041665,233.01353606458332,61.0,85.0
1499,232.89409156041665,233.03575829791666,66.0,85.0
1500,233.56909189791665,233.68298084375,58.0,76.0
1501,233.56492522916668,233.69409196041667,66.0,80.0
1502,233.21492505416666,233.69548085,49.0,64.0
1503,233.57186967708333,233.70103640833332,61.0,78.0
1504,233.86770315833334,234.31353671458334,54.0,80.0
1505,233.85103648333333,234.34270339583333,42.0,70.0
1506,234.21353666458333,234.38853675208333,58.0,85.0
1507,234.21075888541665,234.41075898541666,64.0,80.0
1508,234.20798110625,234.42187010208332,61.0,91.0
1509,234.53992571666666,234.78298139375,49.0,70.0
1510,234.88020366458332,235.0038148375,58.0,76.0
1511,234.878814775,235.00937039583334,61.0,78.0
1512,234.87187032708334,235.01770373333332,64.0,85.0
1513,235.1871482625,235.62742626041666,35.0,75.0
1514,235.1871482625,235.63575959791666,47.0,78.0
1515,235.52464843125,235.67603739583333,54.0,88.0
1516,235.51909287291667,235.67742628541666,59.0,88.0
1517,235.51909287291667,235.71492630416665,63.0,75.0
1518,235.85798193125,236.08298204375,42.0,76.0
1519,236.21075988541665,236.30103770833333,59.0,70.0
1520,236.20520432708332,236.31770438333334,54.0,78.0
1521,236.20520432708332,236.33853772708332,63.0,75.0
1522,236.85798243125,236.89131578125,63.0,52.0
1523,236.52326004166667,236.9871491625,39.0,70.0
1524,236.52464893125,236.9871491625,51.0,91.0
1525,236.82464908125,237.00520472708334,55.0,69.0
1526,236.86353798958334,237.02187140208332,61.0,58.0
1527,236.83437130833332,237.0871492125,58.0,78.0
1528,237.51353831458334,237.58992724166666,58.0,73.0
1529,237.50520497708334,237.60520502708334,55.0,78.0
1530,237.52187165208332,237.60520502708334,63.0,69.0
1531,237.178815925,237.612149475,43.0,101.0
1532,237.90798295625,238.95103903333333,56.0,75.0
1533,237.90242739791665,239.05937242083334,59.0,88.0
1534,237.90242739791665,239.10798355625,63.0,75.0
1535,239.4871504125,239.65798383125,68.0,70.0
1536,239.678817175,239.86909504791666,70.0,53.0
1537,239.84270614583332,239.91909507291666,71.0,80.0
1538,240.00798400624998,240.1371507375,75.0,88.0
1539,240.18853965208334,240.40242864791665,80.0,48.0
1540,240.36770640833333,240.49131758125,82.0,61.0
1541,240.5871509625,240.87742888541666,83.0,75.0
1542,240.82465108125,240.9954845,87.0,57.0
1543,241.10104010833334,241.42465138125,94.0,61.0
1544,241.40242914791668,241.87465160624998,92.0,51.0
1545,237.90103850833333,242.01215167499998,44.0,93.0
