,start,end,pitch,velocity
0,33.004116108333335,33.144741108333335,65.0,94.0
1,33.238491108333335,34.291225483333335,65.0,96.0
2,34.410366108333335,34.799037983333335,67.0,95.0
3,34.879116108333335,35.318569233333335,69.0,95.0
4,35.347866108333335,36.082241108333335,72.0,93.0
5,36.519741108333335,36.715053608333335,69.0,93.0
6,36.754116108333335,38.015834858333335,77.0,93.0
7,38.160366108333335,38.482631733333335,76.0,94.0
8,38.629116108333335,39.058803608333335,74.0,94.0
9,39.097866108333335,40.154506733333335,72.0,93.0
10,40.972866108333335,41.300991108333335,74.0,98.0
11,41.441616108333335,41.759975483333335,74.0,99.0
12,41.910366108333335,42.218959858333335,72.0,94.0
13,42.379116108333335,43.066616108333335,72.0,94.0
14,43.316616108333335,43.677944233333335,65.0,98.0
15,43.785366108333335,43.955287983333335,67.0,94.0
16,44.019741108333335,44.675991108333335,69.0,94.0
17,44.722866108333335,44.867397358333335,67.0,90.0
18,44.957241108333335,46.597866108333335,67.0,92.0
19,47.769741108333335,47.898647358333335,65.0,92.0
20,48.004116108333335,49.429897358333335,65.0,96.0
21,49.410366108333335,49.838100483333335,67.0,94.0
22,49.879116108333335,50.359584858333335,69.0,92.0
23,50.347866108333335,51.400600483333335,72.0,98.0
24,51.519741108333335,51.736537983333335,69.0,92.0
25,51.754116108333335,53.050991108333335,77.0,93.0
26,53.160366108333335,53.543178608333335,79.0,96.0
27,53.629116108333335,54.060756733333335,77.0,93.0
28,54.097866108333335,54.965053608333335,72.0,98.0
29,55.269741108333335,55.509975483333335,70.0,88.0
30,55.504116108333335,56.640834858333335,67.0,94.0
31,56.910366108333335,57.082241108333335,67.0,94.0
32,57.144741108333335,57.306850483333335,74.0,98.0
33,57.379116108333335,58.291225483333335,72.0,93.0
34,58.785366108333335,58.980678608333335,67.0,93.0
35,59.019741108333335,59.697475483333335,69.0,93.0
36,59.722866108333335,62.406459858333335,65.0,96.0
37,63.004116108333335,63.312709858333335,67.0,93.0
38,63.472866108333335,64.35958485833333,67.0,96.0
39,64.41036610833333,64.80294423333333,65.0,93.0
40,64.87911610833333,65.94161610833333,67.0,94.0
41,66.28536610833333,66.42208485833333,65.0,94.0
42,66.51974110833333,66.64669423333333,67.0,93.0
43,66.75411610833333,68.04708485833333,69.0,94.0
44,68.16036610833333,68.29317860833333,69.0,96.0
45,68.39474110833333,68.52560048333333,67.0,92.0
46,68.62911610833333,69.78731923333333,69.0,94.0
47,70.26974110833333,70.42403798333333,65.0,94.0
48,70.50411610833333,70.75020985833333,67.0,99.0
49,70.97286610833333,71.27755360833333,67.0,92.0
50,71.44161610833333,71.88692860833333,67.0,94.0
51,71.91036610833333,72.06270985833333,65.0,94.0
52,72.14474110833333,72.83614735833333,67.0,94.0
53,73.31661610833333,74.08224110833333,74.0,97.0
54,74.25411610833333,74.53341298333333,72.0,98.0
55,74.72286610833333,75.17013173333333,72.0,93.0
56,75.19161610833333,77.56270985833333,69.0,93.0
57,78.00411610833333,78.15645985833333,69.0,97.0
58,78.23849110833333,78.61739735833333,72.0,96.0
59,78.70724110833333,78.81661610833333,72.0,94.0
60,78.94161610833333,79.33419423333333,72.0,96.0
61,79.41036610833333,79.57833485833333,69.0,95.0
62,79.64474110833333,80.89474110833333,72.0,96.0
63,81.75411610833333,81.91622548333333,69.0,94.0
64,81.98849110833333,82.32247548333333,77.0,98.0
65,82.45724110833333,82.57442860833333,77.0,95.0
66,82.69161610833333,82.96895985833333,77.0,98.0
67,83.16036610833333,83.29122548333333,69.0,95.0
68,83.39474110833333,84.89669423333333,74.0,97.0
69,85.50411610833333,85.77169423333333,74.0,96.0
70,85.97286610833333,86.25020985833333,74.0,98.0
71,86.44161610833333,86.77560048333333,74.0,101.0
72,86.91036610833333,87.05294423333333,72.0,95.0
73,87.14474110833333,88.14864735833333,74.0,97.0
74,88.31661610833333,88.44356923333333,74.0,101.0
75,88.55099110833333,88.92599110833333,77.0,96.0
76,89.01974110833333,89.14669423333333,74.0,99.0
77,89.25411610833333,92.12911610833333,79.0,96.0
78,93.00411610833333,93.36935048333333,72.0,98.0
79,93.47286610833333,94.31270985833333,81.0,97.0
80,94.41036610833333,94.53145985833333,79.0,93.0
81,94.64474110833333,96.38106923333333,81.0,93.0
82,96.75411610833333,97.10372548333333,69.0,97.0
83,97.22286610833333,97.99435048333333,77.0,93.0
84,98.16036610833333,98.28341298333333,76.0,95.0
85,98.39474110833333,100.0570893375,74.0,98.0
86,100.48593459791667,100.84939537916667,74.0,109.0
87,100.94747209791667,101.74747043125001,79.0,96.0
88,101.87054709791667,101.99170069166667,77.0,93.0
89,102.10131584791667,103.33015944166667,79.0,96.0
90,103.71669709791666,103.84361991041666,74.0,103.0
91,103.94746584791667,104.06861944166667,77.0,94.0
92,104.17823459791667,104.3032343375,79.0,94.0
93,104.40900334791667,104.74938725416666,79.0,94.0
94,104.87054084791667,104.97630985833334,79.0,93.0
95,105.10130959791667,105.43592428541666,79.0,95.0
96,105.56284709791667,105.6878468375,77.0,96.0
97,105.79361584791667,106.2878455875,81.0,89.0
98,106.25515334791667,107.30899730625,79.0,96.0
99,107.87053459791667,108.23207230625,72.0,96.0
100,108.33207209791667,109.1493780875,81.0,99.0
101,109.25514709791666,109.3801468375,79.0,93.0
102,109.48591584791667,111.13591241041667,81.0,94.0
103,111.56283459791666,111.93398767083333,69.0,96.0
104,112.02437209791667,112.899370275,77.0,96.0
105,112.94744709791667,113.07821605625,76.0,93.0
106,113.17821584791668,114.28975199375,74.0,93.0
107,115.02436584791667,115.18205782708334,72.0,99.0
108,115.25513459791667,115.60898001458334,74.0,106.0
109,115.71667209791667,115.84744105625,77.0,96.0
110,115.94744084791667,116.68013162916667,77.0,96.0
111,116.87051584791666,117.007054025,79.0,96.0
112,117.10128459791667,117.51089912916666,81.0,96.0
113,117.56282209791667,118.25512834791667,79.0,98.0
114,118.71666584791667,118.98781912916667,77.0,88.0
115,118.94743459791667,119.45127970208334,76.0,96.0
116,119.40897209791666,122.26665845208333,77.0,98.0
117,145.53900837291667,146.78702632500003,65.0,96.0
118,146.9043337729167,147.28702528333335,67.0,95.0
119,147.36587127291668,147.79856267916668,69.0,95.0
120,147.82740877291667,148.55048418958336,72.0,93.0
121,148.9812525229167,149.17355981458334,69.0,93.0
122,149.21202127291667,150.45432637708336,77.0,93.0
123,150.59663377291668,150.91394080416669,76.0,94.0
124,151.0581712729167,151.48124731458336,74.0,94.0
125,151.5197087729167,152.56009122083336,72.0,93.0
126,153.36585877291668,153.6889350229167,74.0,98.0
127,153.82739627291667,154.14085715833335,74.0,99.0
128,154.2889337729167,154.59277929375003,72.0,94.0
129,154.75047127291668,155.42739293958334,72.0,94.0
130,155.6735462729167,156.0293147625,65.0,98.0
131,156.1350837729167,156.30239111666668,67.0,94.0
132,156.36585252291667,157.0120050229167,69.0,94.0
133,157.05815877291667,157.20046616875,67.0,90.0
134,157.28892752291668,158.9043087729167,67.0,92.0
135,160.05815252291669,160.18507533541668,65.0,92.0
136,160.2889212729167,161.69276450208335,65.0,96.0
137,161.67353377291667,162.0946867416667,67.0,94.0
138,162.1350712729167,162.6081472104167,69.0,92.0
139,162.59660877291668,163.63314507500002,72.0,98.0
140,163.75045252291667,163.96391361666667,69.0,92.0
141,163.98122127291668,165.25814168958334,77.0,93.0
142,165.3658337729167,165.74275606458335,79.0,96.0
143,165.82737127291668,166.2523703875,77.0,93.0
144,166.28890877291667,167.1427531479167,72.0,98.0
145,167.4427525229167,167.67929049166668,70.0,88.0
146,167.67352127291667,168.79274971041667,67.0,94.0
147,169.05813377291668,169.22736418958334,67.0,94.0
148,169.2889025229167,169.448517575,74.0,98.0
149,169.5196712729167,170.41774632500002,72.0,93.0
150,170.9042837729167,171.09659106458335,67.0,93.0
151,171.13505252291668,171.80235882500003,69.0,93.0
152,171.82735877291668,174.4696609604167,65.0,96.0
153,175.05812127291668,175.36196679375,67.0,93.0
154,175.51965877291667,176.39273387708334,67.0,96.0
155,176.44273377291668,176.82927142916668,65.0,93.0
156,176.90427127291667,177.95042293958335,67.0,94.0
157,178.28888377291668,178.42349887708335,65.0,94.0
158,178.5196525229167,178.64465226250002,67.0,93.0
159,178.7504212729167,180.02349554375002,69.0,94.0
160,180.1350337729167,180.26580273125,69.0,96.0
161,180.36580252291668,180.49464840833335,67.0,92.0
162,180.5965712729167,181.7369535125,69.0,94.0
163,182.21128240833335,182.36090347083334,65.0,94.0
164,182.43855490833334,182.67719103333334,67.0,99.0
165,182.89309990833334,183.18855415833335,67.0,92.0
166,183.34764490833334,183.77946265833333,67.0,94.0
167,183.80218990833333,183.94991703333335,65.0,94.0
168,184.02946240833333,184.69991628333335,67.0,94.0
169,185.16582490833335,185.90824840833335,74.0,97.0
170,186.07491490833334,186.34574797083334,72.0,98.0
171,186.52945990833334,186.96317159583333,72.0,93.0
172,186.98400490833333,189.29527796041668,69.0,93.0
173,189.72989243958335,189.87989212708334,69.0,97.0
174,189.96066118958333,190.33373733541669,72.0,96.0
175,190.42219868958333,190.52989077291667,72.0,94.0
176,190.65296743958334,191.03950509583333,72.0,96.0
177,191.11450493958333,191.27988921041668,69.0,95.0
178,191.34527368958334,192.58202072083333,72.0,96.0
179,193.44139572083333,193.60350509583333,69.0,94.0
180,193.67577072083333,194.00975509583333,77.0,98.0
181,194.14452072083333,194.26170822083333,77.0,95.0
182,194.37889572083333,194.65623947083333,77.0,98.0
183,194.84764572083333,194.97850509583333,69.0,95.0
184,195.08202072083333,196.58397384583333,74.0,97.0
185,197.19139572083333,197.45897384583333,74.0,96.0
186,197.66014572083333,197.93748947083333,74.0,98.0
187,198.12889572083333,198.46288009583333,74.0,101.0
188,198.59764572083333,198.74022384583333,72.0,95.0
189,198.83202072083333,199.83592697083333,74.0,97.0
190,200.00389572083333,200.13084884583333,74.0,101.0
191,200.23827072083333,200.61327072083333,77.0,96.0
192,200.70702072083333,200.83397384583333,74.0,99.0
193,200.94139572083333,203.81639572083333,79.0,96.0
194,204.69139572083333,205.05663009583333,72.0,98.0
195,205.16014572083333,205.99998947083333,81.0,97.0
196,206.09764572083333,206.21873947083333,79.0,93.0
197,206.33202072083333,208.06834884583333,81.0,93.0
198,208.44139572083333,208.79100509583333,69.0,97.0
199,208.91014572083333,209.68163009583333,77.0,93.0
200,209.84764572083333,209.97069259583333,76.0,95.0
201,210.08202072083333,211.74340728333334,74.0,98.0
202,212.17225254375,212.535713325,74.0,109.0
203,212.63379004375,213.43378837708332,79.0,96.0
204,213.55686504375,213.6780186375,77.0,93.0
205,213.78763379375,215.0164773875,79.0,96.0
206,215.40301504375,215.52993785625,74.0,103.0
207,215.63378379374998,215.7549373875,77.0,94.0
208,215.86455254375,215.98955228333332,79.0,94.0
209,216.09532129375,216.4357052,79.0,94.0
210,216.55685879375,216.66262780416668,79.0,93.0
211,216.78762754375,217.12224223125,79.0,95.0
212,217.24916504375,217.37416478333333,77.0,96.0
213,217.47993379375,217.97416353333332,81.0,89.0
214,217.94147129375,218.99531525208332,79.0,96.0
215,219.55685254374998,219.91839025208333,72.0,96.0
216,220.01839004375,220.83569603333333,81.0,99.0
217,220.94146504375,221.06646478333332,79.0,93.0
218,221.17223379375,222.82223035625,81.0,94.0
219,223.24915254375,223.62030561666666,69.0,96.0
220,223.71069004375,224.58568822083333,77.0,96.0
221,224.63376504375,224.76453400208334,76.0,93.0
222,224.86453379374998,225.97606993958334,74.0,93.0
223,226.71068379374998,226.86837577291666,72.0,99.0
224,226.94145254375,227.29529796041666,74.0,106.0
225,227.40299004374998,227.53375900208334,77.0,96.0
226,227.63375879375,228.366449575,77.0,96.0
227,228.55683379375,228.6933719708333,79.0,96.0
228,228.78760254374998,229.197217075,81.0,96.0
229,229.24914004375,229.94144629375,79.0,98.0
230,230.40298379375,230.674137075,77.0,88.0
231,230.63375254375,231.13759764791666,76.0,96.0
232,231.09529004375,233.9950192625,77.0,98.0
233,234.3739255125,234.7391598875,72.0,98.0
234,234.8426755125,235.67245181458333,81.0,97.0
235,235.76860546041667,235.88783598125,79.0,93.0
236,235.99937421041665,237.70898603333333,81.0,93.0
237,238.07629296041665,238.42052301249998,69.0,97.0
238,238.53783046041667,239.2974442625,77.0,93.0
239,239.46090546041665,239.58205905416665,76.0,95.0
240,239.69167421041666,241.3397477,74.0,98.0
241,241.76859296041667,242.13205374166665,74.0,109.0
242,242.23013046041666,243.03012879375,79.0,96.0
243,243.15320546041667,243.27435905416667,77.0,93.0
244,243.38397421041665,244.61281780416667,79.0,96.0
245,244.99935546041667,245.12627827291666,74.0,103.0
246,245.23012421041665,245.35127780416667,77.0,94.0
247,245.46089296041666,245.5858927,79.0,94.0
248,245.69166171041667,246.03204561666666,79.0,94.0
249,246.15319921041666,246.25896822083334,79.0,93.0
250,246.38396796041667,246.71858264791666,79.0,95.0
251,246.84550546041666,246.9705052,77.0,96.0
252,247.07627421041667,247.57050395,81.0,89.0
253,247.53781171041666,248.59165566875,79.0,96.0
254,249.15319296041667,249.51473066875,72.0,96.0
255,249.61473046041667,250.43203645,81.0,99.0
256,250.53780546041665,250.66280519999998,79.0,93.0
257,250.76857421041666,252.41857077291667,81.0,94.0
258,252.84549296041666,253.21664603333332,69.0,96.0
259,253.30703046041666,254.1820286375,77.0,96.0
260,254.23010546041667,254.36087441875,76.0,93.0
261,254.46087421041665,255.57241035625,74.0,93.0
262,256.30702421041667,256.4647161895833,72.0,99.0
263,256.53779296041665,256.8916383770833,74.0,106.0
264,256.9993304604167,257.13009941875,77.0,96.0
265,257.23009921041665,257.9627899916667,77.0,96.0
266,258.15317421041664,258.2897123875,79.0,96.0
267,258.3839429604167,258.79355749166666,81.0,96.0
268,258.84548046041664,259.53778671041664,79.0,98.0
269,259.99932421041666,260.27047749166667,77.0,88.0
270,260.23009296041664,260.7339380645833,76.0,96.0
271,260.69163046041666,263.54931681458334,77.0,98.0
272,263.69162421041665,263.8493161895833,72.0,99.0
273,263.9223929604167,264.2762383770833,74.0,106.0
274,264.38393046041665,264.51469941875,77.0,96.0
275,264.6146992104167,265.34738999166666,77.0,96.0
276,265.53777421041667,265.6743123875,79.0,96.0
277,265.76854296041665,266.17815749166664,81.0,96.0
278,266.2300804604167,266.9223867104167,79.0,98.0
279,267.38392421041664,267.65507749166665,77.0,88.0
280,267.6146929604167,268.11853806458333,76.0,96.0
281,268.07623046041664,270.9339168145833,77.0,98.0
