,start,end,pitch,velocity
0,1.5937483000000001,2.115806566666667,65.0,84.0
1,1.1525723,2.4209533000000003,53.0,85.0
2,2.0349243,3.797790066666667,69.0,94.0
3,3.3584523,3.9062458333333336,57.0,79.0
4,2.9172763,3.908084066666667,50.0,92.0
5,3.7996283,4.2738925000000005,65.0,93.0
6,4.240804300000001,4.707715566666667,62.0,84.0
7,5.123156300000001,5.647052800000001,50.0,73.0
8,4.6819803,5.716905666666667,67.0,86.0
9,5.5643323,5.727935066666667,55.0,88.0
10,5.5643323,5.7573468000000005,62.0,89.0
11,4.6819803,5.775729133333334,43.0,87.0
12,6.005508300000001,6.6562429000000005,55.0,92.0
13,6.005508300000001,7.1452129666666675,60.0,92.0
14,6.887860300000001,7.3749921333333335,55.0,88.0
15,6.005508300000001,7.551462533333334,48.0,89.0
16,7.3290363,8.086388433333333,64.0,93.0
17,8.211388300000001,8.908078733333333,60.0,86.0
18,8.211388300000001,8.948519866666667,57.0,83.0
19,9.0937403,9.3419018,57.0,89.0
20,9.0937403,9.582710366666667,60.0,92.0
21,8.6525643,9.648886766666667,52.0,75.0
22,8.211388300000001,9.696680833333334,45.0,88.0
23,9.976092300000001,10.658076866666667,57.0,87.0
24,9.976092300000001,10.731606200000002,62.0,90.0
25,9.976092300000001,11.345576133333335,50.0,92.0
26,10.8584443,11.369473166666667,65.0,93.0
27,11.2996203,11.481605400000001,57.0,87.0
28,11.740796300000001,12.099251800000001,55.0,86.0
29,11.740796300000001,12.334545666666667,62.0,89.0
30,12.181972300000002,12.3970456,55.0,80.0
31,12.6231483,12.729765833333333,62.0,92.0
32,12.6231483,12.7334423,55.0,94.0
33,11.740796300000001,12.7720452,43.0,93.0
34,13.064324300000001,14.3106465,60.0,93.0
35,13.064324300000001,14.512852166666669,55.0,92.0
36,14.3878523,14.784910700000001,60.0,92.0
37,13.064324300000001,14.797778333333335,48.0,86.0
38,14.3878523,14.799616566666668,64.0,95.0
39,15.931968300000001,16.205865066666668,60.0,87.0
40,15.711380300000002,16.242629733333334,53.0,91.0
41,15.4907923,16.259173833333335,48.0,86.0
42,15.270204300000001,16.314320833333333,41.0,91.0
43,16.1525563,16.487114766666668,65.0,92.0
44,16.3731443,16.6764528,60.0,92.0
45,16.593732300000003,16.9135849,53.0,93.0
46,16.814320300000002,17.06615826666667,60.0,86.0
47,17.2554963,17.533069533333336,55.0,94.0
48,17.4760843,17.744466366666668,60.0,87.0
49,17.696672300000003,17.97056906666667,55.0,88.0
50,17.0349083,18.327186333333334,48.0,94.0
51,17.917260300000002,18.354759833333336,64.0,98.0
52,18.1378483,18.413583300000003,55.0,92.0
53,18.3584363,18.7885829,60.0,92.0
54,18.5790243,18.8106417,55.0,87.0
55,19.020200300000003,19.29409706666667,57.0,87.0
56,19.4613763,19.711376033333334,57.0,81.0
57,19.240788300000002,19.72424366666667,62.0,86.0
58,18.7996123,19.895199366666667,50.0,92.0
59,19.9025523,20.1562285,57.0,86.0
60,19.6819643,20.169096133333333,65.0,92.0
61,20.123140300000003,20.435639966666667,62.0,87.0
62,20.343728300000002,20.626816233333336,57.0,89.0
63,20.7849043,21.0054923,55.0,93.0
64,20.5643163,21.21872736666667,48.0,98.0
65,21.0054923,21.261006733333335,60.0,92.0
66,21.226080300000003,21.465050633333334,55.0,89.0
67,21.667256300000002,22.034902966666667,48.0,89.0
68,21.446668300000002,22.082697033333336,41.0,88.0
69,21.8878443,22.198505733333334,53.0,93.0
70,22.1084323,22.330858533333334,57.0,75.0
71,22.770196300000002,23.185637033333336,53.0,94.0
72,22.9907843,23.2334311,58.0,87.0
73,22.329020300000003,23.4650485,46.0,93.0
74,22.549608300000003,23.499974933333334,50.0,82.0
75,23.4319603,23.705857066666667,58.0,93.0
76,23.2113723,23.9062245,62.0,95.0
77,23.652548300000003,23.97056266666667,53.0,93.0
78,23.873136300000002,24.079018433333335,58.0,98.0
79,24.5349003,25.00732626666667,57.0,85.0
80,24.755488300000003,25.023870366666667,60.0,93.0
81,24.3143123,25.093723233333336,52.0,81.0
82,24.976076300000003,25.455855200000002,64.0,99.0
83,25.196664300000002,25.520193366666668,52.0,87.0
84,24.0937243,25.55328156666667,45.0,93.0
85,25.4172523,25.72423726666667,57.0,93.0
86,25.6378403,25.9797517,64.0,94.0
87,26.299604300000002,26.602912800000002,55.0,96.0
88,26.7407803,26.974235933333336,58.0,101.0
89,26.5201923,27.055118200000003,62.0,93.0
90,26.961368300000004,27.23526506666667,67.0,93.0
91,27.181956300000003,27.485264800000003,62.0,92.0
92,26.079016300000003,27.511000066666668,50.0,82.0
93,25.858428300000003,27.5624706,43.0,92.0
94,27.402544300000002,27.72055866666667,55.0,93.0
95,27.6231323,28.281219833333335,62.0,93.0
96,28.0643083,28.369455033333335,55.0,94.0
97,28.284896300000003,28.4062197,58.0,95.0
98,27.8437203,28.544087200000003,50.0,88.0
99,28.505484300000003,28.759160500000004,55.0,93.0
100,28.505484300000003,28.777542833333335,58.0,98.0
101,28.726072300000002,29.113939533333337,50.0,92.0
102,27.6231323,29.115777766666668,43.0,90.0
103,28.9466603,29.235262933333335,55.0,90.0
104,28.505484300000003,29.27018936666667,62.0,98.0
105,29.387836300000004,29.86577696666667,55.0,93.0
106,29.387836300000004,30.064306166666668,60.0,95.0
107,30.0496003,30.525702733333336,55.0,86.0
108,30.2701883,30.542246833333337,60.0,85.0
109,29.829012300000002,30.69849666666667,52.0,76.0
110,29.387836300000004,30.716879000000002,48.0,95.0
111,30.490776300000004,31.175089300000003,64.0,89.0
112,31.1528671,32.097866108333335,60.0,88.0
113,31.1528671,32.125209858333335,55.0,84.0
114,31.1528671,32.306850483333335,48.0,87.0
115,33.004116108333335,33.480678608333335,57.0,86.0
116,33.004116108333335,33.857631733333335,53.0,86.0
117,33.941616108333335,34.168178608333335,53.0,92.0
118,33.472866108333335,34.314662983333335,48.0,83.0
119,33.004116108333335,34.340053608333335,41.0,92.0
120,33.941616108333335,34.574428608333335,60.0,88.0
121,34.410366108333335,34.615444233333335,53.0,92.0
122,34.879116108333335,35.425991108333335,60.0,87.0
123,34.879116108333335,35.660366108333335,57.0,84.0
124,35.816616108333335,36.164272358333335,57.0,92.0
125,34.879116108333335,36.220912983333335,45.0,92.0
126,35.347866108333335,36.228725483333335,52.0,82.0
127,35.816616108333335,36.318569233333335,64.0,94.0
128,36.285366108333335,36.777553608333335,60.0,84.0
129,36.754116108333335,37.783412983333335,62.0,86.0
130,37.222866108333335,37.986537983333335,53.0,79.0
131,36.754116108333335,38.060756733333335,46.0,81.0
132,38.160366108333335,38.287319233333335,62.0,36.0
133,38.160366108333335,38.318569233333335,58.0,91.0
134,37.691616108333335,38.658412983333335,65.0,94.0
135,38.629116108333335,39.312709858333335,60.0,83.0
136,39.566616108333335,39.642787983333335,60.0,56.0
137,39.097866108333335,39.683803608333335,57.0,80.0
138,38.629116108333335,39.931850483333335,41.0,81.0
139,39.566616108333335,40.560756733333335,65.0,93.0
140,40.972866108333335,41.449428608333335,58.0,80.0
141,40.504116108333335,41.992397358333335,62.0,91.0
142,41.910366108333335,42.109584858333335,58.0,94.0
143,40.504116108333335,42.248256733333335,46.0,87.0
144,41.441616108333335,42.320522358333335,53.0,77.0
145,41.441616108333335,42.414272358333335,65.0,93.0
146,42.379116108333335,43.375209858333335,60.0,92.0
147,42.847866108333335,43.392787983333335,57.0,83.0
148,42.379116108333335,43.675991108333335,45.0,83.0
149,43.316616108333335,44.263881733333335,65.0,94.0
150,43.785366108333335,44.297084858333335,57.0,88.0
151,44.722866108333335,45.252162983333335,55.0,89.0
152,44.254116108333335,45.308803608333335,62.0,86.0
153,45.191616108333335,45.775600483333335,67.0,92.0
154,44.254116108333335,45.814662983333335,43.0,85.0
155,45.425991108333335,45.845912983333335,62.0,46.0
156,45.660366108333335,46.056850483333335,55.0,94.0
157,46.129116108333335,46.383022358333335,55.0,89.0
158,46.129116108333335,46.935756733333335,60.0,92.0
159,47.066616108333335,47.121303608333335,60.0,74.0
160,46.597866108333335,47.152553608333335,55.0,87.0
161,46.129116108333335,47.545131733333335,48.0,91.0
162,47.066616108333335,47.580287983333335,64.0,103.0
163,47.535366108333335,47.640834858333335,60.0,83.0
164,48.004116108333335,48.215053608333335,53.0,80.0
165,48.004116108333335,48.994350483333335,57.0,82.0
166,48.472866108333335,49.117397358333335,53.0,81.0
167,48.004116108333335,49.295131733333335,41.0,92.0
168,48.941616108333335,49.535366108333335,60.0,92.0
169,49.410366108333335,49.629116108333335,53.0,93.0
170,49.879116108333335,50.322475483333335,60.0,90.0
171,50.347866108333335,50.912319233333335,57.0,87.0
172,49.879116108333335,51.209194233333335,45.0,76.0
173,50.816616108333335,51.351772358333335,64.0,95.0
174,51.285366108333335,51.808803608333335,57.0,92.0
175,52.222866108333335,52.740444233333335,58.0,81.0
176,51.754116108333335,52.752162983333335,62.0,90.0
177,52.691616108333335,53.037319233333335,53.0,81.0
178,51.754116108333335,53.043178608333335,46.0,87.0
179,53.160366108333335,53.326381733333335,58.0,89.0
180,52.691616108333335,53.355678608333335,65.0,88.0
181,52.925991108333335,53.500209858333335,62.0,36.0
182,53.629116108333335,54.300991108333335,60.0,87.0
183,54.097866108333335,54.677944233333335,57.0,82.0
184,53.629116108333335,54.935756733333335,41.0,81.0
185,54.566616108333335,55.078334858333335,60.0,92.0
186,55.035366108333335,55.484584858333335,57.0,92.0
187,54.566616108333335,55.615444233333335,65.0,93.0
188,55.504116108333335,56.047084858333335,62.0,86.0
189,55.972866108333335,56.549037983333335,55.0,92.0
190,56.441616108333335,56.937709858333335,58.0,94.0
191,55.504116108333335,57.162319233333335,43.0,90.0
192,56.910366108333335,57.201381733333335,55.0,94.0
193,57.379116108333335,58.345912983333335,60.0,92.0
194,57.847866108333335,58.349819233333335,55.0,93.0
195,57.379116108333335,58.666225483333335,48.0,90.0
196,58.316616108333335,58.904506733333335,64.0,96.0
197,58.785366108333335,59.015834858333335,55.0,86.0
198,59.254116108333335,59.527553608333335,53.0,79.0
199,59.254116108333335,59.791225483333335,57.0,82.0
200,60.191616108333335,60.787319233333335,60.0,93.0
201,59.722866108333335,60.791225483333335,53.0,93.0
202,60.660366108333335,60.863491108333335,57.0,87.0
203,59.254116108333335,60.892787983333335,41.0,89.0
204,61.129116108333335,61.660366108333335,65.0,89.0
205,61.129116108333335,61.865444233333335,53.0,92.0
206,61.597866108333335,62.232631733333335,48.0,78.0
207,62.066616108333335,62.422084858333335,53.0,93.0
208,61.129116108333335,62.472866108333335,41.0,91.0
209,62.066616108333335,62.502162983333335,60.0,92.0
210,63.004116108333335,63.566616108333335,70.0,86.0
211,63.472866108333335,63.806850483333335,62.0,87.0
212,63.941616108333335,64.17013173333333,62.0,97.0
213,63.472866108333335,64.31270985833333,50.0,74.0
214,63.004116108333335,64.42794423333333,43.0,92.0
215,63.941616108333335,64.48263173333333,70.0,96.0
216,64.41036610833333,64.96114735833333,62.0,85.0
217,64.87911610833333,65.56661610833333,43.0,85.0
218,64.87911610833333,65.59395985833333,70.0,87.0
219,65.34786610833333,65.67599110833333,62.0,90.0
220,65.81661610833333,66.50997548333333,67.0,96.0
221,66.28536610833333,66.57247548333333,62.0,86.0
222,66.75411610833333,67.28341298333333,69.0,89.0
223,67.22286610833333,67.54708485833333,64.0,87.0
224,67.69161610833333,67.87520985833333,64.0,96.0
225,67.69161610833333,68.28536610833333,69.0,93.0
226,67.69161610833333,68.32442860833333,52.0,84.0
227,66.75411610833333,68.40645985833333,45.0,92.0
228,68.16036610833333,68.70333485833333,64.0,86.0
229,68.62911610833333,69.07638173333333,72.0,92.0
230,68.62911610833333,69.21114735833333,69.0,87.0
231,69.09786610833333,69.32052235833333,64.0,86.0
232,69.56661610833333,69.73458485833333,64.0,98.0
233,68.62911610833333,69.91427235833333,45.0,88.0
234,69.56661610833333,69.94942860833333,69.0,93.0
235,70.50411610833333,70.95919423333333,70.0,93.0
236,70.97286610833333,71.28341298333333,62.0,93.0
237,71.44161610833333,71.61349110833333,62.0,90.0
238,71.44161610833333,71.96310048333333,70.0,93.0
239,71.44161610833333,72.05099110833333,50.0,80.0
240,70.50411610833333,72.19552235833333,43.0,92.0
241,71.91036610833333,72.43966298333333,62.0,93.0
242,72.37911610833333,72.86544423333333,67.0,89.0
243,72.84786610833333,72.97091298333333,62.0,74.0
244,72.37911610833333,72.97677235833333,70.0,93.0
245,73.31661610833333,73.51388173333333,62.0,92.0
246,73.31661610833333,73.71114735833333,67.0,94.0
247,73.31661610833333,73.73067860833333,70.0,95.0
248,72.37911610833333,73.77560048333333,43.0,84.0
249,74.25411610833333,74.45138173333333,60.0,86.0
250,74.25411610833333,74.80099110833333,69.0,90.0
251,74.72286610833333,74.95528798333333,60.0,80.0
252,75.19161610833333,75.71505360833333,65.0,92.0
253,75.19161610833333,75.73849110833333,69.0,92.0
254,74.25411610833333,75.91231923333333,41.0,91.0
255,75.66036610833333,76.16231923333333,60.0,86.0
256,76.12911610833333,76.70528798333333,65.0,86.0
257,76.12911610833333,76.70528798333333,69.0,90.0
258,76.59786610833333,76.78731923333333,60.0,87.0
259,76.12911610833333,77.18966298333333,41.0,78.0
260,77.06661610833333,77.25020985833333,60.0,94.0
261,77.06661610833333,77.34981923333333,65.0,93.0
262,77.06661610833333,77.58224110833333,69.0,94.0
263,77.53536610833333,77.83028798333333,67.0,92.0
264,78.00411610833333,78.59981923333333,69.0,92.0
265,78.47286610833333,78.62130360833333,57.0,61.0
266,78.94161610833333,79.18380360833333,57.0,93.0
267,78.47286610833333,79.28341298333333,52.0,81.0
268,78.94161610833333,79.45138173333333,60.0,97.0
269,78.00411610833333,79.47481923333333,45.0,92.0
270,79.41036610833333,80.18575673333333,57.0,92.0
271,79.87911610833333,80.29903798333333,60.0,81.0
272,79.87911610833333,80.36544423333333,64.0,92.0
273,80.34786610833333,80.99435048333333,52.0,70.0
274,80.81661610833333,81.02560048333333,57.0,95.0
275,79.87911610833333,81.14669423333333,45.0,80.0
276,80.81661610833333,81.25411610833333,60.0,99.0
277,81.28536610833333,81.82638173333333,57.0,95.0
278,81.75411610833333,82.33810048333333,65.0,95.0
279,82.22286610833333,82.75997548333333,57.0,82.0
280,81.75411610833333,82.95528798333333,50.0,92.0
281,82.69161610833333,83.00020985833333,62.0,94.0
282,82.69161610833333,83.25997548333333,65.0,96.0
283,83.16036610833333,83.69356923333333,57.0,84.0
284,83.62911610833333,84.03731923333333,50.0,87.0
285,83.62911610833333,84.10372548333333,62.0,92.0
286,84.09786610833333,84.50020985833333,57.0,90.0
287,83.62911610833333,84.55685048333333,65.0,92.0
288,84.56661610833333,84.79903798333333,48.0,93.0
289,84.56661610833333,84.85177235833333,60.0,92.0
290,84.56661610833333,85.11349110833333,64.0,94.0
291,85.50411610833333,85.94161610833333,58.0,89.0
292,85.50411610833333,86.24044423333333,62.0,92.0
293,85.50411610833333,86.58810048333333,46.0,92.0
294,86.44161610833333,86.60177235833333,58.0,92.0
295,85.97286610833333,86.60763173333333,53.0,81.0
296,86.44161610833333,86.91817860833333,65.0,92.0
297,86.44161610833333,86.97286610833333,62.0,93.0
298,86.91036610833333,87.30685048333333,58.0,92.0
299,87.37911610833333,88.12520985833333,58.0,84.0
300,87.37911610833333,88.17013173333333,62.0,92.0
301,87.37911610833333,88.49435048333333,46.0,83.0
302,88.31661610833333,88.59200673333333,58.0,94.0
303,87.84786610833333,88.60372548333333,53.0,78.0
304,88.31661610833333,88.62911610833333,62.0,94.0
305,88.31661610833333,88.73458485833333,65.0,93.0
306,88.78536610833333,88.90060048333333,46.0,86.0
307,89.25411610833333,89.36544423333333,36.0,92.0
308,89.25411610833333,90.11349110833333,64.0,94.0
309,89.25411610833333,90.15841298333333,60.0,88.0
310,90.42599110833333,90.72091298333333,60.0,103.0
311,90.66036610833333,90.96310048333333,62.0,97.0
312,90.19161610833333,90.99239735833333,55.0,96.0
313,89.72286610833333,91.01778798333333,48.0,90.0
314,90.89474110833333,91.03341298333333,64.0,95.0
315,91.12911610833333,91.52950673333333,64.0,97.0
316,91.12911610833333,91.56075673333333,60.0,91.0
317,91.12911610833333,91.59005360833333,67.0,95.0
318,91.83224110833333,91.96310048333333,60.0,89.0
319,91.59786610833333,92.16622548333333,55.0,85.0
320,91.12911610833333,92.36544423333333,48.0,98.0
321,92.06661610833333,92.36739735833333,60.0,95.0
322,92.06661610833333,92.39474110833333,64.0,118.0
323,92.30099110833333,92.41231923333333,55.0,88.0
324,92.06661610833333,92.43966298333333,72.0,96.0
325,92.06661610833333,92.45333485833333,67.0,99.0
326,92.53536610833333,92.87716298333333,60.0,99.0
327,93.00411610833333,93.45138173333333,65.0,92.0
328,93.00411610833333,93.56270985833333,69.0,92.0
329,93.47286610833333,93.80685048333333,60.0,94.0
330,93.70724110833333,93.83419423333333,65.0,93.0
331,93.23849110833333,94.01388173333333,48.0,82.0
332,93.94161610833333,94.20333485833333,60.0,101.0
333,93.00411610833333,94.24435048333333,41.0,93.0
334,94.17599110833333,94.27560048333333,48.0,91.0
335,93.94161610833333,94.41427235833333,65.0,101.0
336,93.94161610833333,94.59786610833333,69.0,106.0
337,94.41036610833333,94.73458485833333,60.0,93.0
338,94.64474110833333,94.74044423333333,65.0,86.0
339,94.87911610833333,95.10372548333333,57.0,95.0
340,94.87911610833333,95.17013173333333,64.0,101.0
341,95.34786610833333,95.68770985833333,57.0,93.0
342,95.58224110833333,95.69942860833333,61.0,94.0
343,95.11349110833333,95.85763173333333,52.0,92.0
344,95.81661610833333,96.04708485833333,57.0,94.0
345,95.81661610833333,96.06661610833333,61.0,99.0
346,95.81661610833333,96.40841298333333,69.0,93.0
347,96.28536610833333,96.50411610833333,57.0,91.0
348,96.05099110833333,96.50997548333333,52.0,90.0
349,94.87911610833333,96.54122548333333,45.0,93.0
350,96.75411610833333,97.27169423333333,65.0,86.0
351,97.22286610833333,97.56075673333333,57.0,96.0
352,97.45724110833333,97.57052235833333,62.0,91.0
353,96.98849110833333,97.81661610833333,53.0,74.0
354,97.69161610833333,97.89278798333333,57.0,97.0
355,97.69161610833333,98.01388173333333,62.0,95.0
356,97.69161610833333,98.02169423333333,65.0,98.0
357,98.16036610833333,98.21505360833333,62.0,58.0
358,98.16036610833333,98.23067860833333,65.0,50.0
359,96.75411610833333,98.30489735833333,50.0,93.0
360,97.92599110833333,98.44552235833333,53.0,85.0
361,98.16036610833333,98.48263173333333,57.0,95.0
362,98.39474110833333,98.51583485833333,62.0,90.0
363,98.62911610833333,98.80685048333333,57.0,92.0
364,98.62911610833333,98.91817860833333,62.0,97.0
365,98.62911610833333,99.16427235833333,65.0,94.0
366,98.62911610833333,99.17013173333333,50.0,99.0
367,99.09786610833333,99.18966298333333,62.0,61.0
368,98.86349110833333,99.31856923333333,53.0,75.0
369,99.09786610833333,99.3647830875,57.0,95.0
370,99.33209084791667,99.48401360833334,65.0,92.0
371,99.56285959791667,99.84555131666667,60.0,90.0
372,99.56285959791667,99.9532434,48.0,96.0
373,99.79362834791667,99.98401256666666,55.0,87.0
374,99.56285959791667,99.99747407708334,64.0,93.0
375,100.02439709791666,100.15516605625,60.0,98.0
376,100.48593459791667,100.70708798333334,58.0,89.0
377,100.48593459791667,100.9686259,62.0,93.0
378,100.94747209791667,101.23977918125,58.0,92.0
379,101.17824084791667,101.32054824375,62.0,84.0
380,100.71670334791666,101.51093246250001,53.0,86.0
381,101.40900959791666,101.59554767083334,58.0,92.0
382,100.48593459791667,101.67823980625,46.0,93.0
383,101.40900959791666,101.68593209791666,62.0,93.0
384,101.63977834791667,101.81477798333333,53.0,85.0
385,101.87054709791667,101.90900855625,62.0,62.0
386,101.87054709791667,102.15516188958334,58.0,97.0
387,101.40900959791666,102.18400798333333,65.0,96.0
388,102.10131584791667,102.23208480625,62.0,85.0
389,102.33208459791666,102.63977626458333,55.0,82.0
390,102.33208459791666,102.86285272291667,62.0,92.0
391,102.79362209791667,103.12631371250001,55.0,92.0
392,103.02439084791666,103.17631360833333,62.0,91.0
393,102.56285334791667,103.34939017083333,50.0,88.0
394,103.25515959791667,103.49938985833333,62.0,93.0
395,103.25515959791667,103.52823595208334,55.0,97.0
396,103.48592834791667,103.8416968375,50.0,93.0
397,102.33208459791666,103.90900438958333,43.0,93.0
398,103.25515959791667,104.01092725416667,67.0,91.0
399,103.71669709791666,104.04361949375,55.0,93.0
400,103.94746584791667,104.11092704583334,62.0,87.0
401,104.17823459791667,104.43015715,55.0,93.0
402,104.17823459791667,104.69169506666667,60.0,94.0
403,104.63977209791666,104.95323298333334,55.0,93.0
404,104.87054084791667,105.007079025,60.0,92.0
405,105.10130959791667,105.37823209791667,55.0,94.0
406,105.10130959791667,105.38977053541667,62.0,101.0
407,104.17823459791667,105.39553975416666,48.0,98.0
408,104.40900334791667,105.40707819166667,52.0,79.0
409,105.33207834791666,105.5840009,60.0,93.0
410,105.56284709791667,105.89361563958333,55.0,94.0
411,105.79361584791667,105.9186155875,60.0,92.0
412,106.02438459791667,106.19169194166668,55.0,94.0
413,106.02438459791667,106.48207595208333,64.0,96.0
414,106.25515334791667,106.54938350416667,55.0,90.0
415,106.48592209791667,106.56669116041667,60.0,91.0
416,106.71669084791667,106.85707517083334,55.0,95.0
417,106.71669084791667,106.86669053541667,60.0,95.0
418,106.02438459791667,107.03976709791667,48.0,103.0
419,106.94745959791666,107.13207459791667,60.0,103.0
420,106.94745959791666,107.15707454583334,55.0,106.0
421,107.17822834791667,107.29553579583333,48.0,93.0
422,107.40899709791667,107.591689025,55.0,93.0
423,107.40899709791667,107.59938131666667,58.0,97.0
424,107.87053459791667,108.38976428541667,57.0,92.0
425,107.87053459791667,108.43784110833333,53.0,93.0
426,108.56284084791668,108.61668688958333,57.0,70.0
427,108.33207209791667,108.81668647291667,60.0,92.0
428,108.10130334791667,109.39360834791667,48.0,93.0
429,107.87053459791667,109.437839025,41.0,93.0
430,109.25514709791666,109.57437720208334,57.0,92.0
431,109.02437834791667,109.66476162916666,60.0,93.0
432,109.48591584791667,109.68591543125001,53.0,93.0
433,108.79360959791667,109.80322287916667,65.0,97.0
434,110.17822209791667,110.48206761875,57.0,96.0
435,110.40899084791667,110.50899063958333,61.0,96.0
436,110.63975959791667,110.70899022291667,61.0,93.0
437,109.94745334791666,110.730144025,52.0,88.0
438,110.63975959791667,110.90514366041667,57.0,99.0
439,110.63975959791667,111.13206626458333,64.0,106.0
440,110.87052834791666,111.18398923333334,52.0,92.0
441,109.71668459791667,111.18975845208334,45.0,88.0
442,110.63975959791667,111.30321975416666,69.0,93.0
443,111.10129709791667,111.36860423333333,61.0,93.0
444,111.33206584791667,111.44937329583334,57.0,93.0
445,111.56283459791666,111.75898803541666,57.0,94.0
446,111.56283459791666,112.03591053541666,62.0,94.0
447,112.02437209791667,112.34167912916666,57.0,93.0
448,112.25514084791666,112.37244829583334,62.0,86.0
449,112.48590959791667,112.78783204583334,65.0,99.0
450,112.71667834791667,112.99552392083334,62.0,91.0
451,112.94744709791667,113.26667720208333,57.0,88.0
452,111.56283459791666,113.27052334791667,50.0,95.0
453,111.79360334791667,113.28398485833334,53.0,77.0
454,113.17821584791668,113.29552329583333,62.0,86.0
455,113.40898459791667,113.65513793125,57.0,93.0
456,113.40898459791667,113.914752775,65.0,93.0
457,113.63975334791667,114.13206001458333,53.0,87.0
458,113.87052209791666,114.17052147291668,57.0,94.0
459,113.40898459791667,114.20513678541667,50.0,96.0
460,114.10129084791667,114.20705985833334,65.0,95.0
461,114.33205959791667,114.8262893375,48.0,94.0
462,114.33205959791667,115.07821188958333,64.0,95.0
463,115.25513459791667,115.43590345208334,58.0,92.0
464,115.25513459791667,115.77821043125,62.0,93.0
465,115.71667209791667,116.0724405875,58.0,85.0
466,115.94744084791667,116.10128668125,62.0,86.0
467,115.48590334791666,116.28974782708333,53.0,79.0
468,115.25513459791667,116.6262855875,46.0,97.0
469,116.40897834791667,116.9032080875,53.0,92.0
470,116.17820959791666,116.90705423333333,65.0,94.0
471,116.63974709791667,116.95320798333333,58.0,91.0
472,116.87051584791666,117.11859225416667,62.0,85.0
473,117.33205334791667,117.48397610833334,57.0,87.0
474,117.33205334791667,117.59166819166667,55.0,89.0
475,117.56282209791667,117.85512918125,60.0,94.0
476,117.79359084791668,118.02051345208334,55.0,95.0
477,118.02435959791667,118.40705110833333,64.0,106.0
478,117.10128459791667,118.50128168125,48.0,91.0
479,118.25512834791667,118.5070509,55.0,94.0
480,118.48589709791668,118.74551194166666,60.0,90.0
481,118.71666584791667,118.83781944166667,55.0,87.0
482,118.94743459791667,119.18012642083333,53.0,87.0
483,118.94743459791667,119.27435699375,57.0,92.0
484,119.40897209791666,119.7878174625,53.0,88.0
485,119.63974084791667,119.90127876458334,60.0,87.0
486,120.10127834791666,120.47820063958333,60.0,92.0
487,119.17820334791666,120.55704662916666,48.0,85.0
488,118.94743459791667,120.60320037916667,41.0,93.0
489,120.33204709791667,120.62435418125,57.0,75.0
490,119.87050959791667,120.6301234,65.0,96.0
491,120.79358459791666,121.44166017083333,57.0,87.0
492,120.79358459791666,121.46666011875,60.0,87.0
493,120.56281584791667,121.59358293125,53.0,83.0
494,121.71665959791667,122.00512053541667,60.0,94.0
495,122.17819709791667,122.43282951458333,60.0,65.0
496,122.17819709791667,122.47828401458334,53.0,88.0
497,121.94742834791667,122.50669307708334,48.0,91.0
498,121.71665959791667,122.51616276458334,65.0,93.0
499,120.79358459791666,122.54646576458333,41.0,89.0
500,122.40820832708334,122.55214757708333,57.0,81.0
501,123.09002582708334,123.45818477708335,53.0,101.0
502,122.63548082708334,123.84064729791668,41.0,93.0
503,123.54027429375002,123.89661742291668,53.0,80.0
504,123.54027429375002,123.92833382708335,57.0,82.0
505,123.54027429375002,124.02908005208334,60.0,92.0
506,124.43579629375002,125.00669156875001,58.0,87.0
507,124.43579629375002,125.10370645208334,55.0,89.0
508,124.43579629375002,125.73243752291668,43.0,92.0
509,125.33131829375002,125.76042258541668,55.0,94.0
510,124.88355729375002,125.78094496458334,50.0,77.0
511,125.33131829375002,125.87422850625,67.0,92.0
512,126.22684029375002,126.77534751875001,60.0,87.0
513,126.22684029375002,126.81079526458335,57.0,86.0
514,126.67460129375002,127.16527272291668,52.0,86.0
515,127.12236229375002,127.37795919791668,57.0,94.0
516,126.22684029375002,127.59437701458334,45.0,92.0
517,127.12236229375002,127.67086951875001,64.0,96.0
518,127.34624279375001,127.67833220208334,52.0,90.0
519,127.57012329375002,127.84810824791667,57.0,85.0
520,128.01788429375,128.67833176875,58.0,83.0
521,128.01788429375,128.70445116041668,62.0,83.0
522,128.01788429375,129.71377908125,46.0,94.0
523,129.36116729375001,129.7175104229167,58.0,88.0
524,128.91340629375,129.7175104229167,65.0,94.0
525,128.46564529375001,129.73243578958335,53.0,81.0
526,129.80892829375,131.47575546875,58.0,88.0
527,129.80892829375,131.48662501875,62.0,92.0
528,131.56633505208333,131.82539266041667,61.0,87.0
529,131.56633505208333,131.89785632708333,65.0,88.0
530,132.00111705208334,132.50292794375,61.0,95.0
531,132.21850805208334,132.51742067708332,65.0,88.0
532,132.65329005208332,132.90510129375,65.0,88.0
533,132.43589905208333,132.99205769374998,68.0,93.0
534,131.78372605208332,133.01923156875,44.0,88.0
535,131.56633505208333,133.04459385208332,37.0,93.0
536,133.08807205208333,133.13336184375,68.0,46.0
537,132.87068105208334,133.16053571875,61.0,97.0
538,133.08807205208333,133.30727464375,65.0,92.0
539,133.74024505208334,134.13154885208334,51.0,98.0
540,133.95763605208333,134.22575161875,55.0,89.0
541,134.17502705208332,134.44676580208332,58.0,90.0
542,133.30546305208333,134.51560628541665,39.0,94.0
543,133.52285405208335,134.65872202708334,46.0,89.0
544,134.60980905208334,134.90872167708332,58.0,94.0
545,134.82720005208333,135.03190991041666,51.0,98.0
546,134.39241805208334,135.06995333541667,63.0,103.0
547,135.69676405208332,135.87067685208334,51.0,101.0
548,135.47937305208333,135.92140141875,48.0,106.0
549,135.26198205208334,136.14060401041667,43.0,85.0
550,135.04459105208332,136.17321266041665,36.0,93.0
551,136.13154605208334,136.41415435208333,55.0,94.0
552,135.91415505208334,136.51198030208334,60.0,108.0
553,136.34893705208333,136.64422649375,51.0,92.0
554,136.56632805208332,136.74205244375,48.0,98.0
555,136.78371905208334,136.96668981041665,65.0,81.0
556,137.00111005208333,137.23118219375,48.0,82.0
557,136.78371905208334,137.24205174375,68.0,94.0
558,136.78371905208334,137.25292129375,41.0,94.0
559,136.78371905208334,137.31995018541667,77.0,93.0
560,137.21850105208333,137.49929776041665,65.0,95.0
561,137.43589205208332,137.54639914375,68.0,96.0
562,137.65328305208334,137.87429723541666,63.0,106.0
563,137.65328305208334,138.08444186875,75.0,97.0
564,137.65328305208334,138.25291989375,39.0,97.0
565,137.87067405208333,138.35436902708332,46.0,93.0
566,138.08806505208332,138.36161539375,63.0,96.0
567,138.30545605208334,138.48299203541666,67.0,92.0
568,138.52284705208334,138.75291919375,62.0,96.0
569,138.52284705208334,138.88154220208332,65.0,93.0
570,139.17502005208334,139.50472973541667,65.0,94.0
571,138.95762905208332,139.63154115208334,62.0,96.0
572,139.39241105208333,139.81813509375,74.0,106.0
573,139.60980205208332,139.91233786041667,69.0,95.0
574,139.82719305208335,140.11885931041667,65.0,95.0
575,138.74023805208333,140.23480117708334,45.0,86.0
576,138.52284705208334,140.23842436041667,38.0,95.0
577,140.04458405208334,140.30001847708334,62.0,98.0
578,140.26197505208333,140.30001847708334,62.0,94.0
579,140.26197505208333,140.73117729375,71.0,93.0
580,140.69675705208334,141.01740877708335,62.0,94.0
581,140.91414805208333,141.04458265208334,67.0,94.0
582,140.47936605208332,141.32900254375,50.0,91.0
583,141.13153905208333,141.44132122708334,71.0,108.0
584,140.26197505208333,141.49748056875,43.0,92.0
585,141.34893005208335,141.60074129375,67.0,93.0
586,141.56632105208334,141.70219042708334,62.0,93.0
587,142.00110305208332,142.27465339375,60.0,92.0
588,142.00110305208332,142.33805910208332,65.0,93.0
589,142.43588505208334,142.56631965208334,60.0,101.0
590,142.21849405208334,142.69494266041667,55.0,82.0
591,142.00110305208332,142.71305857708333,48.0,96.0
592,142.65327605208333,143.09711601041667,60.0,95.0
593,142.65327605208333,143.23660856875,65.0,103.0
594,143.70132260208334,144.20318805625,64.0,90.0
595,143.65841217291668,144.28154623125002,60.0,87.0
596,144.46251630208334,144.60990429791667,60.0,83.0
597,144.57259088125002,144.60990429791667,64.0,79.0
598,144.5931132604167,144.66774009375,67.0,82.0
599,144.63042667708334,144.74982961041667,72.0,93.0
600,144.16027762708333,144.95505340208334,55.0,71.0
601,143.69945693125,144.99609816041666,48.0,94.0
602,145.53900837291667,145.99423205625,57.0,86.0
603,145.53900837291667,146.3601041375,53.0,86.0
604,146.4427962729167,146.66587273125,53.0,92.0
605,145.98676937291668,146.81010320000001,48.0,83.0
606,145.53900837291667,146.83510314791667,41.0,92.0
607,146.4427962729167,147.06587189791668,60.0,88.0
608,146.9043337729167,147.10625642916668,53.0,92.0
609,147.36587127291668,147.90433168958336,60.0,87.0
610,147.36587127291668,148.13510043958334,57.0,84.0
611,148.2889462729167,148.63125325208335,57.0,92.0
612,147.36587127291668,148.6870223666667,45.0,92.0
613,147.82740877291667,148.69471465833334,52.0,82.0
614,148.2889462729167,148.7831760125,64.0,94.0
615,148.75048377291668,149.2350981479167,60.0,84.0
616,149.21202127291667,150.22548070000002,62.0,86.0
617,149.6735587729167,150.42548028333334,53.0,79.0
618,149.21202127291667,150.4985570541667,46.0,81.0
619,150.59663377291668,150.7216335125,62.0,36.0
620,150.59663377291668,150.7524026791667,58.0,91.0
621,150.13509627291668,151.0870173666667,65.0,94.0
622,151.0581712729167,151.73124679375002,60.0,83.0
623,151.98124627291668,152.05624611666667,60.0,56.0
624,151.5197087729167,152.0966306479167,57.0,80.0
625,151.0581712729167,152.34086090833335,41.0,81.0
626,151.98124627291668,152.9600903875,65.0,93.0
627,153.36585877291668,153.83508856458334,58.0,80.0
628,152.9043212729167,154.3697028354167,62.0,91.0
629,154.2889337729167,154.48508721041668,58.0,94.0
630,152.9043212729167,154.62162538750002,46.0,87.0
631,153.82739627291667,154.69277908541667,53.0,77.0
632,153.82739627291667,154.78508658541668,65.0,93.0
633,154.75047127291668,155.73123846041668,60.0,92.0
634,155.21200877291668,155.7485461166667,57.0,83.0
635,154.75047127291668,156.02739168958334,45.0,83.0
636,155.6735462729167,156.60623663750002,65.0,94.0
637,156.1350837729167,156.63892887708334,57.0,88.0
638,157.05815877291667,157.57931153333334,55.0,89.0
639,156.59662127291668,157.63508064791668,62.0,86.0
640,157.5196962729167,158.094695075,67.0,92.0
641,156.59662127291668,158.13315653333336,43.0,85.0
642,157.75046502291667,158.16392570000002,62.0,46.0
643,157.98123377291668,158.37161757500002,55.0,94.0
644,158.44277127291667,158.69277075208336,55.0,89.0
645,158.44277127291667,159.23700038750002,60.0,92.0
646,159.36584627291668,159.41969231458336,60.0,74.0
647,158.9043087729167,159.45046148125002,55.0,87.0
648,158.44277127291667,159.83699913750002,48.0,91.0
649,159.36584627291668,159.87161445,64.0,103.0
650,159.82738377291668,159.9312297104167,60.0,83.0
651,160.2889212729167,160.4966131479167,53.0,80.0
652,160.2889212729167,161.26391924166668,57.0,82.0
653,160.7504587729167,161.38507283541668,53.0,81.0
654,160.2889212729167,161.56007247083335,41.0,92.0
655,161.21199627291668,161.79661043958336,60.0,92.0
656,161.67353377291667,161.88891793958334,53.0,93.0
657,162.1350712729167,162.57160882500003,60.0,90.0
658,162.59660877291668,163.15237684583334,57.0,87.0
659,162.1350712729167,163.44468392916667,45.0,76.0
660,163.05814627291667,163.58506825208335,64.0,95.0
661,163.5196837729167,164.03506731458336,57.0,92.0
662,164.44275877291668,164.95237309583337,58.0,81.0
663,163.98122127291668,164.96391153333335,62.0,90.0
664,164.90429627291667,165.2446801791667,53.0,81.0
665,163.98122127291668,165.25044939791667,46.0,87.0
666,165.3658337729167,165.52929497083335,58.0,89.0
667,164.90429627291667,165.55814106458334,65.0,88.0
668,165.13506502291668,165.70044846041668,62.0,36.0
669,165.82737127291668,166.48890835625002,60.0,87.0
670,166.28890877291667,166.86006142916668,57.0,82.0
671,165.82737127291668,167.11390705416667,41.0,81.0
672,166.7504462729167,167.25429137708335,60.0,92.0
673,167.21198377291668,167.65429054375002,57.0,92.0
674,166.7504462729167,167.7831364291667,65.0,93.0
675,167.67352127291667,168.20813554375002,62.0,86.0
676,168.1350587729167,168.70236528333334,55.0,92.0
677,168.59659627291668,169.08505679375003,58.0,94.0
678,167.67352127291667,169.30621017916667,43.0,90.0
679,169.05813377291668,169.34467163750003,55.0,94.0
680,169.5196712729167,170.4715923666667,60.0,92.0
681,169.9812087729167,170.4754385125,55.0,93.0
682,169.5196712729167,170.786976325,48.0,90.0
683,170.44274627291668,171.02159122083336,64.0,96.0
684,170.9042837729167,171.13120637708334,55.0,86.0
685,171.3658212729167,171.63505148125,53.0,79.0
686,171.3658212729167,171.894666325,57.0,82.0
687,172.28889627291667,172.87543351250002,60.0,93.0
688,171.82735877291668,172.87927965833336,53.0,93.0
689,172.7504337729167,172.95043335625002,57.0,87.0
690,171.3658212729167,172.97927945,41.0,89.0
691,173.21197127291668,173.73504710625002,65.0,89.0
692,173.21197127291668,173.9369697625,53.0,92.0
693,173.67350877291668,174.29850747083336,48.0,78.0
694,174.13504627291667,174.48504554375,53.0,93.0
695,173.21197127291668,174.53504543958334,41.0,91.0
696,174.13504627291667,174.56389153333336,60.0,92.0
697,175.05812127291668,175.61196627291667,70.0,86.0
698,175.51965877291667,175.8485042416667,62.0,87.0
699,175.9811962729167,176.20619580416667,62.0,97.0
700,175.51965877291667,176.34658012708334,50.0,74.0
701,175.05812127291668,176.4600414291667,43.0,92.0
702,175.9811962729167,176.51388747083334,70.0,96.0
703,176.44273377291668,176.98504033541667,62.0,85.0
704,176.90427127291667,177.58119293958336,43.0,85.0
705,176.90427127291667,177.60811596041668,70.0,87.0
706,177.3658087729167,177.68888502291668,62.0,90.0
707,177.82734627291669,178.51003715833335,67.0,96.0
708,178.28888377291668,178.5715754916667,62.0,86.0
709,178.7504212729167,179.27157403333337,69.0,89.0
710,179.2119587729167,179.53118887708337,64.0,87.0
711,179.67349627291668,179.85426512708335,64.0,96.0
712,179.67349627291668,180.25811043958333,69.0,93.0
713,179.67349627291668,180.2965718979167,52.0,84.0
714,178.7504212729167,180.3773409604167,45.0,92.0
715,180.1350337729167,180.66964804375002,64.0,86.0
716,180.5965712729167,181.03695497083334,72.0,92.0
717,180.5965712729167,181.16964700208337,69.0,87.0
718,181.05810877291668,181.27733908541668,64.0,86.0
719,181.51964627291667,181.68503054375003,64.0,98.0
720,180.5965712729167,181.86195325208337,45.0,88.0
721,181.51964627291667,181.89656856458333,69.0,93.0
722,182.43855490833334,182.87984234583334,70.0,93.0
723,182.89309990833334,183.19423597083335,62.0,93.0
724,183.34764490833334,183.51431140833333,62.0,90.0
725,183.34764490833334,183.85332622083334,70.0,93.0
726,183.34764490833334,183.93855340833335,50.0,80.0
727,182.43855490833334,184.07870478333334,43.0,92.0
728,183.80218990833333,184.31544697083334,62.0,93.0
729,184.25673490833333,184.72832534583335,67.0,89.0
730,184.71127990833335,184.83059797083334,62.0,74.0
731,184.25673490833333,184.83627978333334,70.0,93.0
732,185.16582490833335,185.35711259583334,62.0,92.0
733,185.16582490833335,185.54840028333334,67.0,94.0
734,185.16582490833335,185.56733965833334,70.0,95.0
735,184.25673490833333,185.61090022083334,43.0,84.0
736,186.07491490833334,186.26620259583333,60.0,86.0
737,186.07491490833334,186.60521740833335,69.0,90.0
738,186.52945990833334,186.75483847083333,60.0,80.0
739,186.98400490833333,187.49158015833333,65.0,92.0
740,186.98400490833333,187.51430740833334,69.0,92.0
741,186.07491490833334,187.68286784583333,41.0,91.0
742,187.43854990833333,187.92529184583333,60.0,86.0
743,187.89309490833335,188.45180647083333,65.0,86.0
744,187.89309490833335,188.45180647083333,69.0,90.0
745,188.34763990833335,188.5318180125,60.0,87.0
746,187.89309490833335,188.92797103333334,41.0,78.0
747,188.80681743958334,188.98758629375,60.0,94.0
748,188.80681743958334,189.0856630125,65.0,93.0
749,188.80681743958334,189.31450868958333,69.0,94.0
750,189.26835493958333,189.55873895,67.0,92.0
751,189.72989243958335,190.31642967916667,69.0,92.0
752,190.19142993958334,190.33758348125,57.0,61.0
753,190.65296743958334,190.89142848125002,57.0,93.0
754,190.19142993958334,190.9895052,52.0,81.0
755,190.65296743958334,191.15488947083333,60.0,97.0
756,189.72989243958335,191.17796634583334,45.0,92.0
757,191.11450493958333,191.8779648875,57.0,92.0
758,191.57604243958335,191.98950311666667,60.0,81.0
759,191.57604243958335,192.05488759583335,64.0,92.0
760,192.03757993958334,192.68163009583333,52.0,70.0
761,192.50389572083333,192.71288009583333,57.0,95.0
762,191.57604243958335,192.83397384583333,45.0,80.0
763,192.50389572083333,192.94139572083333,60.0,99.0
764,192.97264572083333,193.51366134583333,57.0,95.0
765,193.44139572083333,194.02538009583333,65.0,95.0
766,193.91014572083333,194.44725509583333,57.0,82.0
767,193.44139572083333,194.64256759583333,50.0,92.0
768,194.37889572083333,194.68748947083333,62.0,94.0
769,194.37889572083333,194.94725509583333,65.0,96.0
770,194.84764572083333,195.38084884583333,57.0,84.0
771,195.31639572083333,195.72459884583333,50.0,87.0
772,195.31639572083333,195.79100509583333,62.0,92.0
773,195.78514572083333,196.18748947083333,57.0,90.0
774,195.31639572083333,196.24413009583333,65.0,92.0
775,196.25389572083333,196.48631759583333,48.0,93.0
776,196.25389572083333,196.53905197083333,60.0,92.0
777,196.25389572083333,196.80077072083333,64.0,94.0
778,197.19139572083333,197.62889572083333,58.0,89.0
779,197.19139572083333,197.92772384583333,62.0,92.0
780,197.19139572083333,198.27538009583333,46.0,92.0
781,198.12889572083333,198.28905197083333,58.0,92.0
782,197.66014572083333,198.29491134583333,53.0,81.0
783,198.12889572083333,198.60545822083333,65.0,92.0
784,198.12889572083333,198.66014572083333,62.0,93.0
785,198.59764572083333,198.99413009583333,58.0,92.0
786,199.06639572083333,199.81248947083333,58.0,84.0
787,199.06639572083333,199.85741134583333,62.0,92.0
788,199.06639572083333,200.18163009583333,46.0,83.0
789,200.00389572083333,200.27928634583333,58.0,94.0
790,199.53514572083333,200.29100509583333,53.0,78.0
791,200.00389572083333,200.31639572083333,62.0,94.0
792,200.00389572083333,200.42186447083333,65.0,93.0
793,200.47264572083333,200.58788009583333,46.0,86.0
794,200.94139572083333,201.05272384583333,36.0,92.0
795,200.94139572083333,201.80077072083333,64.0,94.0
796,200.94139572083333,201.84569259583333,60.0,88.0
797,202.11327072083333,202.40819259583333,60.0,103.0
798,202.34764572083333,202.65038009583333,62.0,97.0
799,201.87889572083333,202.67967697083333,55.0,96.0
800,201.41014572083333,202.70506759583333,48.0,90.0
801,202.58202072083333,202.72069259583333,64.0,95.0
802,202.81639572083333,203.21678634583333,64.0,97.0
803,202.81639572083333,203.24803634583333,60.0,91.0
804,202.81639572083333,203.27733322083333,67.0,95.0
805,203.51952072083333,203.65038009583333,60.0,89.0
806,203.28514572083333,203.85350509583333,55.0,85.0
807,202.81639572083333,204.05272384583333,48.0,98.0
808,203.75389572083333,204.05467697083333,60.0,95.0
809,203.75389572083333,204.08202072083333,64.0,118.0
810,203.98827072083333,204.09959884583333,55.0,88.0
811,203.75389572083333,204.12694259583333,72.0,96.0
812,203.75389572083333,204.14061447083333,67.0,99.0
813,204.22264572083333,204.56444259583333,60.0,99.0
814,204.69139572083333,205.13866134583333,65.0,92.0
815,204.69139572083333,205.24998947083333,69.0,92.0
816,205.16014572083333,205.49413009583333,60.0,94.0
817,205.39452072083333,205.52147384583333,65.0,93.0
818,204.92577072083333,205.70116134583333,48.0,82.0
819,205.62889572083333,205.89061447083333,60.0,101.0
820,204.69139572083333,205.93163009583333,41.0,93.0
821,205.86327072083333,205.96288009583333,48.0,91.0
822,205.62889572083333,206.10155197083333,65.0,101.0
823,205.62889572083333,206.28514572083333,69.0,106.0
824,206.09764572083333,206.42186447083333,60.0,93.0
825,206.33202072083333,206.42772384583333,65.0,86.0
826,206.56639572083333,206.79100509583333,57.0,95.0
827,206.56639572083333,206.85741134583333,64.0,101.0
828,207.03514572083333,207.37498947083333,57.0,93.0
829,207.26952072083333,207.38670822083333,61.0,94.0
830,206.80077072083333,207.54491134583333,52.0,92.0
831,207.50389572083333,207.73436447083333,57.0,94.0
832,207.50389572083333,207.75389572083333,61.0,99.0
833,207.50389572083333,208.09569259583333,69.0,93.0
834,207.97264572083333,208.19139572083333,57.0,91.0
835,207.73827072083333,208.19725509583333,52.0,90.0
836,206.56639572083333,208.22850509583333,45.0,93.0
837,208.44139572083333,208.95897384583333,65.0,86.0
838,208.91014572083333,209.24803634583333,57.0,96.0
839,209.14452072083333,209.25780197083333,62.0,91.0
840,208.67577072083333,209.50389572083333,53.0,74.0
841,209.37889572083333,209.58006759583333,57.0,97.0
842,209.37889572083333,209.70116134583333,62.0,95.0
843,209.37889572083333,209.70897384583333,65.0,98.0
844,209.84764572083333,209.90233322083333,62.0,58.0
845,209.84764572083333,209.91795822083333,65.0,50.0
846,208.44139572083333,209.99217697083333,50.0,93.0
847,209.61327072083333,210.13280197083333,53.0,85.0
848,209.84764572083333,210.16991134583333,57.0,95.0
849,210.08202072083333,210.20311447083333,62.0,90.0
850,210.31639572083333,210.49413009583333,57.0,92.0
851,210.31639572083333,210.60545822083333,62.0,97.0
852,210.31639572083333,210.85155197083333,65.0,94.0
853,210.31639572083333,210.85741134583333,50.0,99.0
854,210.78514572083333,210.87694259583333,62.0,61.0
855,210.55077072083333,211.00494728333334,53.0,75.0
856,210.78514572083333,211.05110103333334,57.0,95.0
857,211.01840879374998,211.17033155416667,65.0,92.0
858,211.24917754375,211.53186926249998,60.0,90.0
859,211.24917754375,211.63956134583333,48.0,96.0
860,211.47994629375,211.6703305125,55.0,87.0
861,211.24917754375,211.68379202291666,64.0,93.0
862,211.71071504374999,211.84148400208332,60.0,98.0
863,212.17225254375,212.39340592916665,58.0,89.0
864,212.17225254375,212.65494384583332,62.0,93.0
865,212.63379004375,212.92609712708332,58.0,92.0
866,212.86455879375,213.00686618958332,62.0,84.0
867,212.40302129375,213.19725040833333,53.0,86.0
868,213.09532754375,213.28186561666666,58.0,92.0
869,212.17225254375,213.36455775208333,46.0,93.0
870,213.09532754375,213.37225004375,62.0,93.0
871,213.32609629375,213.50109592916667,53.0,85.0
872,213.55686504375,213.59532650208334,62.0,62.0
873,213.55686504375,213.84147983541666,58.0,97.0
874,213.09532754375,213.87032592916665,65.0,96.0
875,213.78763379375,213.91840275208332,62.0,85.0
876,214.01840254375,214.32609421041667,55.0,82.0
877,214.01840254375,214.54917066874998,62.0,92.0
878,214.47994004375,214.81263165833332,55.0,92.0
879,214.71070879375,214.86263155416665,62.0,91.0
880,214.24917129374998,215.03570811666665,50.0,88.0
881,214.94147754374998,215.18570780416667,62.0,93.0
882,214.94147754374998,215.21455389791666,55.0,97.0
883,215.17224629375,215.52801478333333,50.0,93.0
884,214.01840254375,215.59532233541665,43.0,93.0
885,214.94147754374998,215.6972452,67.0,91.0
886,215.40301504375,215.72993743958332,55.0,93.0
887,215.63378379374998,215.79724499166667,62.0,87.0
888,215.86455254375,216.11647509583332,55.0,93.0
889,215.86455254375,216.3780130125,60.0,94.0
890,216.32609004374999,216.63955092916666,55.0,93.0
891,216.55685879375,216.69339697083333,60.0,92.0
892,216.78762754375,217.06455004375,55.0,94.0
893,216.78762754375,217.07608848125,62.0,101.0
894,215.86455254375,217.0818577,48.0,98.0
895,216.09532129375,217.0933961375,52.0,79.0
896,217.01839629375,217.27031884583332,60.0,93.0
897,217.24916504375,217.57993358541665,55.0,94.0
898,217.47993379375,217.60493353333334,60.0,92.0
899,217.71070254375,217.87800988749999,55.0,94.0
900,217.71070254375,218.16839389791667,64.0,96.0
901,217.94147129375,218.23570145,55.0,90.0
902,218.17224004374998,218.25300910625,60.0,91.0
903,218.40300879375,218.54339311666666,55.0,95.0
904,218.40300879375,218.55300848125,60.0,95.0
905,217.71070254375,218.72608504375,48.0,103.0
906,218.63377754375,218.81839254375,60.0,103.0
907,218.63377754375,218.84339249166666,55.0,106.0
908,218.86454629374998,218.98185374166667,48.0,93.0
909,219.09531504375,219.27800697083333,55.0,93.0
910,219.09531504375,219.2856992625,58.0,97.0
911,219.55685254374998,220.07608223124998,57.0,92.0
912,219.55685254374998,220.12415905416665,53.0,93.0
913,220.24915879374998,220.30300483541666,57.0,70.0
914,220.01839004375,220.50300441874998,60.0,92.0
915,219.78762129375,221.07992629375,48.0,93.0
916,219.55685254374998,221.12415697083333,41.0,93.0
917,220.94146504375,221.26069514791666,57.0,92.0
918,220.71069629375,221.351079575,60.0,93.0
919,221.17223379375,221.37223337708332,53.0,93.0
920,220.47992754375,221.489540825,65.0,97.0
921,221.86454004375,222.16838556458333,57.0,96.0
922,222.09530879375,222.19530858541665,61.0,96.0
923,222.32607754375,222.39530816875,61.0,93.0
924,221.63377129375,222.41646197083332,52.0,88.0
925,222.32607754375,222.59146160625,57.0,99.0
926,222.32607754375,222.81838421041667,64.0,106.0
927,222.55684629375,222.87030717916667,52.0,92.0
928,221.40300254375,222.87607639791665,45.0,88.0
929,222.32607754375,222.9895377,69.0,93.0
930,222.78761504375,223.05492217916665,61.0,93.0
931,223.01838379375,223.13569124166665,57.0,93.0
932,223.24915254375,223.44530598125,57.0,94.0
933,223.24915254375,223.72222848125,62.0,94.0
934,223.71069004375,224.027997075,57.0,93.0
935,223.94145879375,224.05876624166666,62.0,86.0
936,224.17222754374998,224.47414999166665,65.0,99.0
937,224.40299629375,224.68184186666667,62.0,91.0
938,224.63376504375,224.95299514791665,57.0,88.0
939,223.24915254375,224.95684129375,50.0,95.0
940,223.47992129374998,224.97030280416666,53.0,77.0
941,224.86453379374998,224.98184124166667,62.0,86.0
942,225.09530254375,225.34145587708332,57.0,93.0
943,225.09530254375,225.60107072083332,65.0,93.0
944,225.32607129375,225.81837796041665,53.0,87.0
945,225.55684004375,225.85683941874998,57.0,94.0
946,225.09530254375,225.89145473125,50.0,96.0
947,225.78760879375,225.89337780416668,65.0,95.0
948,226.01837754375,226.51260728333332,48.0,94.0
949,226.01837754375,226.76452983541665,64.0,95.0
950,226.94145254375,227.12222139791666,58.0,92.0
951,226.94145254375,227.46452837708333,62.0,93.0
952,227.40299004374998,227.75875853333332,58.0,85.0
953,227.63375879375,227.78760462708334,62.0,86.0
954,227.17222129375,227.97606577291666,53.0,79.0
955,226.94145254375,228.31260353333332,46.0,97.0
956,228.09529629374998,228.58952603333333,53.0,92.0
957,227.86452754375,228.59337217916666,65.0,94.0
958,228.32606504375,228.63952592916667,58.0,91.0
959,228.55683379375,228.8049102,62.0,85.0
960,229.01837129375,229.17029405416667,57.0,87.0
961,229.01837129375,229.2779861375,55.0,89.0
962,229.24914004375,229.54144712708333,60.0,94.0
963,229.47990879374998,229.70683139791666,55.0,95.0
964,229.71067754375,230.09336905416666,64.0,106.0
965,228.78760254374998,230.18759962708333,48.0,91.0
966,229.94144629375,230.19336884583333,55.0,94.0
967,230.17221504375,230.4318298875,60.0,90.0
968,230.40298379375,230.5241373875,55.0,87.0
969,230.63375254375,230.86644436666666,53.0,87.0
970,230.63375254375,230.96067493958333,57.0,92.0
971,231.09529004375,231.4774411375,53.0,88.0
972,231.3270505125,231.5926755125,60.0,87.0
973,231.7958005125,232.1786130125,60.0,92.0
974,230.86452129375,232.2586911375,48.0,85.0
975,230.63375254375,232.3055661375,41.0,93.0
976,232.0301755125,232.3270505125,57.0,75.0
977,231.5614255125,232.3329098875,65.0,96.0
978,232.4989255125,233.1571286375,57.0,87.0
979,232.4989255125,233.1825192625,60.0,87.0
980,232.2645505125,233.3114255125,53.0,83.0
981,233.4364255125,233.7293942625,60.0,94.0
982,233.9051755125,234.1649411375,60.0,65.0
983,233.9051755125,234.2118161375,53.0,88.0
984,233.6708005125,234.2411130125,48.0,91.0
985,233.4364255125,234.2508786375,65.0,93.0
986,232.4989255125,234.2821286375,41.0,89.0
987,234.1395505125,234.2879880125,57.0,81.0
988,234.3739255125,234.8211911375,65.0,92.0
989,234.3739255125,234.9325192625,69.0,92.0
990,234.8426755125,235.17437592916667,60.0,94.0
991,235.07629921041666,235.20129895,65.0,93.0
992,234.6083005125,235.37822165833333,48.0,82.0
993,235.30706796041667,235.56475973125,60.0,101.0
994,234.3739255125,235.6051442625,41.0,93.0
995,235.53783671041666,235.63591342916666,48.0,91.0
996,235.30706796041667,235.77245160625,65.0,101.0
997,235.30706796041667,235.95322046041667,69.0,106.0
998,235.76860546041667,236.08783556458332,60.0,93.0
999,235.99937421041665,236.09360478333332,65.0,86.0
1000,236.23014296041666,236.45129634583333,57.0,95.0
1001,236.23014296041666,236.51668082499998,64.0,101.0
1002,236.69168046041665,237.02629514791667,57.0,93.0
1003,236.92244921041666,237.03783358541665,61.0,94.0
1004,236.46091171041667,237.19360249166667,52.0,92.0
1005,237.15321796041667,237.38014056458331,57.0,94.0
1006,237.15321796041667,237.39937129375,61.0,99.0
1007,237.15321796041667,237.73590905416665,69.0,93.0
1008,237.61475546041666,237.83013962708333,57.0,91.0
1009,237.38398671041665,237.83590884583333,52.0,90.0
1010,236.23014296041666,237.8666780125,45.0,93.0
1011,238.07629296041665,238.58590728333334,65.0,86.0
1012,238.53783046041667,238.870522075,57.0,96.0
1013,238.76859921041665,238.88013743958334,62.0,91.0
1014,238.30706171041666,239.12244462708333,53.0,74.0
1015,238.99936796041666,239.19744447083332,57.0,97.0
1016,238.99936796041666,239.31667499166667,62.0,95.0
1017,238.99936796041666,239.32436728333332,65.0,98.0
1018,239.46090546041665,239.51475150208333,62.0,58.0
1019,239.46090546041665,239.53013608541667,65.0,50.0
1020,238.07629296041665,239.60321285625,50.0,93.0
1021,239.23013671041667,239.74167410625,53.0,85.0
1022,239.46090546041665,239.77821249166666,57.0,95.0
1023,239.69167421041666,239.81090473125,62.0,90.0
1024,239.92244296041667,240.09744259583331,57.0,92.0
1025,239.92244296041667,240.20705775208333,62.0,97.0
1026,239.92244296041667,240.44936493958332,65.0,94.0
1027,239.92244296041667,240.45513415833332,50.0,99.0
1028,240.38398046041667,240.4743648875,62.0,61.0
1029,240.15321171041666,240.6012877,53.0,75.0
1030,240.38398046041667,240.64744145,57.0,95.0
1031,240.61474921041665,240.76667197083333,65.0,92.0
1032,240.84551796041666,241.12820967916667,60.0,90.0
1033,240.84551796041666,241.2359017625,48.0,96.0
1034,241.07628671041667,241.26667092916665,55.0,87.0
1035,240.84551796041666,241.28013243958333,64.0,93.0
1036,241.30705546041665,241.43782441874998,60.0,98.0
1037,241.76859296041667,241.98974634583334,58.0,89.0
1038,241.76859296041667,242.2512842625,62.0,93.0
1039,242.23013046041666,242.52243754375,58.0,92.0
1040,242.46089921041667,242.60320660624998,62.0,84.0
1041,241.99936171041665,242.793590825,53.0,86.0
1042,242.69166796041665,242.87820603333333,58.0,92.0
1043,241.76859296041667,242.96089816875,46.0,93.0
1044,242.69166796041665,242.96859046041666,62.0,93.0
1045,242.92243671041666,243.09743634583333,53.0,85.0
1046,243.15320546041667,243.19166691875,62.0,62.0
1047,243.15320546041667,243.43782025208333,58.0,97.0
1048,242.69166796041665,243.46666634583332,65.0,96.0
1049,243.38397421041665,243.51474316875,62.0,85.0
1050,243.61474296041666,243.92243462708333,55.0,82.0
1051,243.61474296041666,244.14551108541667,62.0,92.0
1052,244.07628046041665,244.408972075,55.0,92.0
1053,244.30704921041666,244.45897197083332,62.0,91.0
1054,243.84551171041667,244.63204853333332,50.0,88.0
1055,244.53781796041665,244.78204822083333,62.0,93.0
1056,244.53781796041665,244.81089431458332,55.0,97.0
1057,244.76858671041666,245.1243552,50.0,93.0
1058,243.61474296041666,245.19166275208332,43.0,93.0
1059,244.53781796041665,245.29358561666666,67.0,91.0
1060,244.99935546041667,245.32627785625,55.0,93.0
1061,245.23012421041665,245.39358540833334,62.0,87.0
1062,245.46089296041666,245.7128155125,55.0,93.0
1063,245.46089296041666,245.97435342916665,60.0,94.0
1064,245.92243046041665,246.23589134583332,55.0,93.0
1065,246.15319921041666,246.2897373875,60.0,92.0
1066,246.38396796041667,246.66089046041665,55.0,94.0
1067,246.38396796041667,246.67242889791666,62.0,101.0
1068,245.46089296041666,246.67819811666666,48.0,98.0
1069,245.69166171041667,246.68973655416667,52.0,79.0
1070,246.61473671041665,246.86665926249998,60.0,93.0
1071,246.84550546041666,247.17627400208332,55.0,94.0
1072,247.07627421041667,247.20127395,60.0,92.0
1073,247.30704296041665,247.47435030416665,55.0,94.0
1074,247.30704296041665,247.76473431458334,64.0,96.0
1075,247.53781171041666,247.83204186666666,55.0,90.0
1076,247.76858046041667,247.84934952291667,60.0,91.0
1077,247.99934921041665,248.13973353333333,55.0,95.0
1078,247.99934921041665,248.14934889791667,60.0,95.0
1079,247.30704296041665,248.32242546041667,48.0,103.0
1080,248.23011796041666,248.41473296041667,60.0,103.0
1081,248.23011796041666,248.43973290833333,55.0,106.0
1082,248.46088671041667,248.57819415833333,48.0,93.0
1083,248.69165546041665,248.8743473875,55.0,93.0
1084,248.69165546041665,248.88203967916667,58.0,97.0
1085,249.15319296041667,249.67242264791668,57.0,92.0
1086,249.15319296041667,249.72049947083332,53.0,93.0
1087,249.84549921041665,249.89934525208332,57.0,70.0
1088,249.61473046041667,250.09934483541667,60.0,92.0
1089,249.38396171041666,250.67626671041666,48.0,93.0
1090,249.15319296041667,250.7204973875,41.0,93.0
1091,250.53780546041665,250.85703556458333,57.0,92.0
1092,250.30703671041667,250.94741999166666,60.0,93.0
1093,250.76857421041666,250.96857379374998,53.0,93.0
1094,250.07626796041666,251.08588124166667,65.0,97.0
1095,251.46088046041666,251.76472598125,57.0,96.0
1096,251.69164921041667,251.79164900208332,61.0,96.0
1097,251.92241796041665,251.99164858541667,61.0,93.0
1098,251.23011171041665,252.0128023875,52.0,88.0
1099,251.92241796041665,252.18780202291666,57.0,99.0
1100,251.92241796041665,252.41472462708333,64.0,106.0
1101,252.15318671041666,252.46664759583334,52.0,92.0
1102,250.99934296041667,252.4724168145833,45.0,88.0
1103,251.92241796041665,252.58587811666666,69.0,93.0
1104,252.38395546041667,252.65126259583332,61.0,93.0
1105,252.61472421041665,252.7320316583333,57.0,93.0
1106,252.84549296041666,253.04164639791665,57.0,94.0
1107,252.84549296041666,253.31856889791666,62.0,94.0
1108,253.30703046041666,253.62433749166667,57.0,93.0
1109,253.53779921041667,253.65510665833332,62.0,86.0
1110,253.76856796041665,254.07049040833334,65.0,99.0
1111,253.99933671041666,254.27818228333334,62.0,91.0
1112,254.23010546041667,254.54933556458332,57.0,88.0
1113,252.84549296041666,254.55318171041665,50.0,95.0
1114,253.07626171041665,254.56664322083333,53.0,77.0
1115,254.46087421041665,254.57818165833334,62.0,86.0
1116,254.69164296041666,254.93779629374998,57.0,93.0
1117,254.69164296041666,255.19741113749998,65.0,93.0
1118,254.92241171041667,255.41471837708332,53.0,87.0
1119,255.15318046041665,255.45317983541668,57.0,94.0
1120,254.69164296041666,255.48779514791667,50.0,96.0
1121,255.38394921041666,255.48971822083334,65.0,95.0
1122,255.61471796041667,256.1089477,48.0,94.0
1123,255.61471796041667,256.3608702520833,64.0,95.0
1124,256.53779296041665,256.7185618145833,58.0,92.0
1125,256.53779296041665,257.06086879375,62.0,93.0
1126,256.9993304604167,257.35509895,58.0,85.0
1127,257.23009921041665,257.38394504375,62.0,86.0
1128,256.76856171041663,257.5724061895833,53.0,79.0
1129,256.53779296041665,257.90894395,46.0,97.0
1130,257.6916367104167,258.18586645,53.0,92.0
1131,257.46086796041664,258.1897125958333,65.0,94.0
1132,257.92240546041666,258.2358663458333,58.0,91.0
1133,258.15317421041664,258.4012506166667,62.0,85.0
1134,258.61471171041666,258.7666344708333,57.0,87.0
1135,258.61471171041666,258.87432655416666,55.0,89.0
1136,258.84548046041664,259.13778754375,60.0,94.0
1137,259.0762492104167,259.3031718145833,55.0,95.0
1138,259.30701796041666,259.68970947083335,64.0,106.0
1139,258.3839429604167,259.78394004375,48.0,91.0
1140,259.53778671041664,259.78970926249997,55.0,94.0
1141,259.7685554604167,260.0281703041667,60.0,90.0
1142,259.99932421041666,260.1204778041667,55.0,87.0
1143,260.23009296041664,260.46278478333335,53.0,87.0
1144,260.23009296041664,260.55701535625,57.0,92.0
1145,260.69163046041666,261.070475825,53.0,88.0
1146,260.92239921041664,261.1839371270833,60.0,87.0
1147,261.38393671041666,261.76085900208335,60.0,92.0
1148,260.4608617104167,261.8397049916667,48.0,85.0
1149,260.23009296041664,261.88585874166665,41.0,93.0
1150,261.61470546041664,261.90701254375,57.0,75.0
1151,261.1531679604167,261.9127817625,65.0,96.0
1152,262.07624296041666,262.7243185333333,57.0,87.0
1153,262.07624296041666,262.74931848125,60.0,87.0
1154,261.8454742104167,262.87624129375,53.0,83.0
1155,262.99931796041665,263.28777889791667,60.0,94.0
1156,263.46085546041667,263.71662415833333,60.0,65.0
1157,263.46085546041667,263.7627779083333,53.0,88.0
1158,263.2300867104167,263.7916240020833,48.0,91.0
1159,262.99931796041665,263.80123936666666,65.0,93.0
1160,262.07624296041666,263.83200853333335,41.0,89.0
1161,263.69162421041665,263.8377777520833,57.0,81.0
1162,263.9223929604167,264.44546879375,65.0,94.0
1163,264.38393046041665,265.085852075,58.0,88.0
1164,264.6146992104167,265.1358519708333,62.0,92.0
1165,263.9223929604167,265.28777473125,46.0,88.0
1166,264.15316171041667,265.29931316875,53.0,86.0
1167,265.3070054604167,265.49162046041664,58.0,93.0
1168,265.07623671041665,265.6531585854167,65.0,95.0
1169,265.76854296041665,266.04931160625,60.0,85.0
1170,265.76854296041665,266.1916190020833,64.0,92.0
1171,266.2300804604167,266.53392598125,60.0,93.0
1172,265.9993117104167,266.59931046041663,55.0,86.0
1173,266.69161796041664,267.162770825,55.0,84.0
1174,266.46084921041665,267.17623233541667,67.0,93.0
1175,265.76854296041665,267.1877707729167,48.0,94.0
1176,267.15315546041666,267.36853962708335,72.0,98.0
1177,268.07623046041664,268.33969145,53.0,83.0
1178,268.3069992104167,268.46469118958333,55.0,91.0
1179,268.53776796041666,268.86661342916665,57.0,88.0
1180,268.76853671041664,269.03776691875,60.0,93.0
1181,267.84546171041666,269.31084327291666,48.0,83.0
1182,268.9993054604167,269.31468941875,65.0,92.0
1183,267.6146929604167,269.32815092916667,41.0,92.0
1184,269.23007421041666,269.8262268145833,57.0,86.0
1185,269.46084296041664,269.95891884583335,65.0,88.0
1186,269.46084296041664,269.9896880125,60.0,82.0
1187,269.92238046041666,270.5646868145833,48.0,74.0
1188,269.46084296041664,270.87622462708333,41.0,87.0
1189,270.3839179604167,271.2435315541667,57.0,93.0
1190,270.3839179604167,271.29545452291666,60.0,99.0
1191,270.3839179604167,271.31276217916667,65.0,94.0
1192,270.84545546041664,271.33391598125,48.0,92.0
1193,271.7685304604167,272.303834175,65.0,84.0
1194,271.30699296041666,272.61353553333333,53.0,85.0
1195,272.22174465833336,274.0068622375,69.0,94.0
1196,273.56502765833335,274.1153180041667,57.0,79.0
1197,273.11726665833334,274.1171562375,50.0,92.0
1198,274.00870047083333,274.4829646708333,65.0,93.0
1199,274.4498764708333,274.9167877375,62.0,84.0
1200,275.33222847083334,275.8561249708333,50.0,73.0
1201,274.89105247083336,275.9259778375,67.0,86.0
1202,275.7734044708333,275.9370072375,55.0,88.0
1203,275.7734044708333,275.96641897083333,62.0,89.0
1204,274.89105247083336,275.9848013041667,43.0,87.0
1205,276.2145804708333,276.86531507083333,55.0,92.0
1206,276.2145804708333,277.35428513749997,60.0,92.0
1207,277.09693247083334,277.58406430416665,55.0,88.0
1208,276.2145804708333,277.7605347041667,48.0,89.0
1209,277.5381084708333,278.2954606041667,64.0,93.0
1210,278.42046047083335,279.1171509041667,60.0,86.0
1211,278.42046047083335,279.1575920375,57.0,83.0
1212,279.3028124708333,279.55097397083335,57.0,89.0
1213,279.3028124708333,279.7917825375,60.0,92.0
1214,278.86163647083333,279.8579589375,52.0,75.0
1215,278.42046047083335,279.9057530041667,45.0,88.0
1216,280.18516447083334,280.8671490375,57.0,87.0
1217,280.18516447083334,280.9406783708333,62.0,90.0
1218,280.18516447083334,281.5546483041667,50.0,92.0
1219,281.0675164708333,281.5785453375,65.0,93.0
1220,281.50869247083335,281.6906775708333,57.0,87.0
1221,281.94986847083334,282.3083239708333,55.0,86.0
1222,281.94986847083334,282.5436178375,62.0,89.0
1223,282.3910444708333,282.60611777083335,55.0,80.0
1224,282.8322204708333,282.93883800416666,62.0,92.0
1225,282.8322204708333,282.9425144708333,55.0,94.0
1226,281.94986847083334,282.9811173708333,43.0,93.0
1227,283.27339647083335,284.51971867083336,60.0,93.0
1228,283.27339647083335,284.7219243375,55.0,92.0
1229,284.59692447083336,284.99398287083335,60.0,92.0
1230,283.27339647083335,285.00685050416666,48.0,86.0
1231,284.59692447083336,285.0086887375,64.0,95.0
1232,285.6814821375,285.97559947083334,48.0,87.0
1233,285.4774382375,286.0509670375,41.0,91.0
1234,285.8634672375,286.1189816708333,53.0,82.0
1235,285.9664083041667,286.22008450416666,57.0,83.0
1236,286.07118760416665,286.2439815375,60.0,79.0
1237,286.2219227375,286.3689814041667,65.0,91.0
1238,287.1097894375,287.2145687375,77.0,51.0
1239,287.1925099375,287.2917745375,81.0,69.0
1240,287.27706867083333,287.38184797083335,89.0,93.0
