,start,end,pitch,velocity
0,14.737238858333333,14.829205835416667,65.0,60.0
1,14.956833477083334,15.0563079625,65.0,51.0
2,15.16328995625,15.274025704166666,66.0,51.0
3,15.38851520625,15.6644161375,65.0,60.0
4,15.868995739583333,16.099851620833334,65.0,55.0
5,16.07545221875,16.201202983333335,66.0,43.0
6,16.2950468375,16.60848531041667,65.0,60.0
7,16.73986670625,16.9707225875,65.0,55.0
8,16.955707570833333,17.141518402083335,66.0,55.0
9,17.19031720625,17.533785712500002,65.0,55.0
10,17.66704398541667,17.896022989583333,63.0,75.0
11,17.873500464583334,18.134386379166667,61.0,51.0
12,18.109986977083334,18.485362393750002,63.0,41.0
13,18.641143191666668,19.939942133333332,68.0,39.0
14,21.54842579375,21.668545927083333,61.0,51.0
15,21.73986725625,21.865618020833335,61.0,26.0
16,21.98573815416667,22.073951377083333,73.0,70.0
17,22.175302739583334,22.26914659375,73.0,80.0
18,22.400527989583335,22.524401877083335,75.0,80.0
19,22.6126151,22.873501014583333,73.0,75.0
20,23.05555809166667,23.186939487500002,73.0,80.0
21,23.275152710416666,23.47410168125,75.0,60.0
22,23.509762345833334,23.748125735416668,73.0,75.0
23,23.928305935416667,24.085963610416666,73.0,80.0
24,24.166669325,24.39564832916667,75.0,80.0
25,24.421924608333335,24.934312052083335,77.0,92.0
26,25.461714512500002,25.6869397625,68.0,33.0
27,25.701954779166666,26.015393252083335,70.0,25.0
28,26.09797584375,27.82094900625,68.0,32.0
29,29.00338156875,29.166669875,65.0,55.0
30,29.22109931041667,29.390018247916668,70.0,51.0
31,29.59459785,29.714717983333333,70.0,33.0
32,29.817946222916667,30.268396722916666,72.0,60.0
33,30.330333666666668,30.747000379166668,73.0,75.0
34,30.81644483125,31.251880314583335,75.0,55.0
35,31.285664102083334,31.7004539375,72.0,51.0
36,31.689192675,32.278532079166666,70.0,45.0
37,32.370499056250004,32.58446304375,73.0,60.0
38,32.565694272916666,32.704583177083336,75.0,55.0
39,32.79842703125,33.02365228125,77.0,65.0
40,33.19632497291667,33.301430089583334,77.0,60.0
41,33.427180854166664,33.808186902083335,77.0,80.0
42,33.92643015833333,34.35248125625,68.0,51.0
43,34.359988764583335,34.84797680625,70.0,60.0
44,34.83671554375,35.68131023125,73.0,43.0
45,36.16554451875,36.343847841666665,70.0,48.0
46,36.37950850625,36.493998008333335,73.0,80.0
47,36.60661063333333,36.7454995375,73.0,80.0
48,36.81869774375,36.97635541875,75.0,92.0
49,37.03078485416667,37.436190304166665,73.0,92.0
50,37.454959075,37.9166708375,75.0,70.0
51,37.94670087083333,38.30706127083334,73.0,75.0
52,38.42155077291667,38.656160408333335,73.0,80.0
53,38.64677602291667,38.89452379791667,75.0,80.0
54,38.90203130625,39.47447881666667,77.0,60.0
55,39.39940373333334,40.163292706250004,75.0,80.0
56,40.23086028125,40.74700147916667,73.0,92.0
57,40.7545089875,41.84122081875,75.0,104.0
58,43.643022818750005,43.7837886,65.0,80.0
59,43.86824806875,43.958338168750004,65.0,60.0
60,44.09347331875,44.20233218958334,66.0,75.0
61,44.31869856875,44.694073985416665,65.0,80.0
62,44.76914906875,44.924929866666666,65.0,65.0
63,44.994374318750005,45.18018515,66.0,60.0
64,45.21959956875,45.504884885416665,65.0,65.0
65,45.67005006875,45.88776781041667,65.0,55.0
66,45.89527531875,46.03791797708333,66.0,55.0
67,46.12050056875,46.51652163333333,65.0,70.0
68,46.57095106875,46.98761778125,63.0,35.0
69,47.02140156875,47.28979499166667,61.0,48.0
70,47.24662681875,47.674554793750005,63.0,55.0
71,47.697077318750004,49.50450995,68.0,39.0
72,50.399780318750004,50.5067623125,61.0,55.0
73,50.625005568750005,50.7545100875,61.0,43.0
74,50.85023081875,50.91592151666667,73.0,55.0
75,51.07545606875,51.16929992291667,73.0,80.0
76,51.30068131875,51.51276842916667,75.0,75.0
77,51.52590656875,51.803684377083336,73.0,80.0
78,51.976357068750005,52.068324045833336,73.0,75.0
79,52.20158231875,52.30668743541667,75.0,104.0
80,52.42680756875,52.63326404791667,73.0,80.0
81,52.87725806875,53.00113195625,73.0,70.0
82,53.102483318750004,53.31832418333334,75.0,92.0
83,53.327708568750005,54.301807775,77.0,65.0
84,54.45383481875,54.87050153125,68.0,60.0
85,54.90428531875,55.36036645,70.0,43.0
86,55.35473581875,57.353609912500005,68.0,43.0
87,57.83221356875,58.03867004791667,68.0,55.0
88,58.05743881875,58.307063470833334,70.0,70.0
89,58.50788931875,58.66179323958333,70.0,70.0
90,58.733114568750004,58.97147795833334,72.0,92.0
91,59.18356506875,59.6058624125,72.0,98.0
92,59.63401556875,59.87425583541667,73.0,92.0
93,59.85924081875,60.26089251458333,75.0,104.0
94,60.309691318750005,60.52553218333333,70.0,75.0
95,60.53491656875,61.24437610625,68.0,51.0
96,61.21059231875,61.430186937500004,73.0,104.0
97,61.435817568750004,61.6328896625,75.0,92.0
98,61.661042818750005,62.0608176375,77.0,92.0
99,62.11149331875,62.3423492,77.0,86.0
100,62.33671856875,62.63889577916667,75.0,104.0
101,62.78716906875,63.15691385416667,68.0,55.0
102,63.23761956875,63.70308508541667,70.0,92.0
103,63.68807006875,64.69407618541666,73.0,104.0
104,65.03942156875,65.22898615416666,73.0,80.0
105,65.26464681875001,65.61562283333333,77.0,86.0
106,65.71509731875,66.06044270208334,75.0,70.0
107,65.94032256875,66.24062290208333,73.0,70.0
108,66.16554781875,66.87125360208333,77.0,70.0
109,66.84122356875,66.87125360208333,77.0,80.0
110,67.06644881875,67.34985725833333,77.0,86.0
111,67.29167406875,67.63138882083334,75.0,92.0
112,67.74212456875,68.01802550000001,73.0,75.0
113,67.96734981875001,68.3671246375,77.0,98.0
114,68.41780031875,68.80819075208333,78.0,92.0
115,68.86825081875,69.3355932125,77.0,92.0
116,69.31870131875,70.563070825,75.0,80.0
117,72.47185481875,72.57132930416667,77.0,80.0
118,72.69708006875,72.77966266041666,77.0,55.0
119,72.92230531875,73.01051854166667,77.0,70.0
120,73.14753056875,73.23011316041666,77.0,70.0
121,73.37275581875001,73.6937018,77.0,70.0
122,73.82320631875,73.97898711666667,68.0,43.0
123,74.04843156875,74.77102924583333,70.0,92.0
124,74.72410731875,74.8986568875,73.0,110.0
125,74.94933256875001,75.5743326375,78.0,92.0
126,75.62500831875,75.84272606041667,77.0,80.0
127,75.85023356875,76.4527111125,75.0,92.0
128,76.52590931875,76.96885231041666,73.0,104.0
129,76.97635981875,77.3986571625,75.0,92.0
130,77.42681031875,77.59760613333333,73.0,104.0
131,77.65203556875001,78.59985849583333,77.0,80.0
132,78.77816181875001,79.16855225208333,75.0,104.0
133,79.22861231875001,79.4256844125,77.0,55.0
134,79.45383756875,80.12012893333333,73.0,92.0
135,80.35473856875001,80.5968557125,73.0,80.0
136,80.57996381875,80.788297175,80.0,110.0
137,81.03041431875,81.12425817291667,80.0,104.0
138,81.25563956875,81.74175073333333,80.0,104.0
139,81.70609006875,82.13589492083334,72.0,92.0
140,82.15654056875,82.61074482291667,73.0,104.0
141,82.60699106875,83.02178090416668,75.0,92.0
142,83.05744156875001,83.92455878125,73.0,104.0
143,83.95834256875,84.19482908125,70.0,51.0
144,84.18356781875,84.49137566041667,78.0,104.0
145,84.63401831875001,84.81232164166667,77.0,70.0
146,84.85924356875,85.4617211125,75.0,110.0
147,85.53491931875,85.85211154583334,75.0,127.0
148,85.98536981875,86.21247194583334,73.0,110.0
149,86.21059506875001,86.83184138333334,75.0,104.0
150,86.88627081875,86.98574530416667,77.0,80.0
151,87.11149606875,87.19407866041666,77.0,55.0
152,87.33672131875001,87.42493454166667,77.0,70.0
153,87.56194656875,87.64452916041667,77.0,70.0
154,87.78717181875,88.1081178,77.0,70.0
155,88.23762231875,88.39340311666668,68.0,43.0
156,88.46284756875,89.18544524583334,70.0,92.0
157,89.13852331875,89.3130728875,73.0,110.0
158,89.36374856875,89.98874863750001,78.0,92.0
159,90.03942431875001,90.25714206041667,77.0,80.0
160,90.26464956875,90.8671271125,75.0,92.0
161,90.94032531875,91.38326831041667,73.0,104.0
162,91.39077581875,91.8130731625,75.0,92.0
163,91.84122631875,92.01202213333333,73.0,104.0
164,92.06645156875,93.01427449583333,77.0,80.0
165,93.19257781875001,93.45909436458334,75.0,104.0
166,93.49287815208334,93.72936466458333,73.0,80.0
167,93.79317848541668,94.06907941666667,72.0,83.0
168,94.09347881875,95.00001045,73.0,104.0
169,94.99437981875,95.35286334166668,85.0,110.0
170,95.29468015208333,95.6193798875,84.0,92.0
171,95.59498048541667,95.88965018750001,82.0,65.0
172,95.89528081875001,96.47335896041668,80.0,104.0
173,96.49588148541667,96.91630195208333,75.0,92.0
174,97.09648215208334,97.38927497708333,73.0,75.0
175,97.39678248541667,98.59423006458334,82.0,110.0
176,99.49888481875,99.87989086666667,78.0,104.0
177,99.94933531875,100.04505605,73.0,92.0
178,100.17456056875,100.58184289583333,73.0,104.0
179,100.62501106875,101.16367479166666,75.0,110.0
180,101.30068681875001,102.88101732291668,73.0,104.0
181,119.54393206875001,119.63402216875001,65.0,60.0
182,118.86825631875,119.66405220208334,72.0,86.0
183,119.76915731875,119.87801618958333,66.0,75.0
184,119.99438256875,120.36975798541667,65.0,80.0
185,120.44483306875,120.60061386666668,65.0,65.0
186,120.67005831875001,120.85586915,66.0,60.0
187,120.89528356875,121.18056888541668,65.0,65.0
188,121.34573406875,121.56345181041667,65.0,55.0
189,121.57095931875,121.71360197708334,66.0,55.0
190,121.79618456875001,122.19220563333333,65.0,70.0
191,122.47186031875,122.91887696666667,63.0,75.0
192,122.92840439375,123.33998924375,61.0,70.0
193,123.38572089375,123.81636059791667,63.0,75.0
194,123.84303739375,125.59608397708334,68.0,43.0
195,126.12961989375,126.2382325625,61.0,55.0
196,126.35827814375,126.48975663750001,61.0,43.0
197,126.58693639375001,126.65362838333334,73.0,55.0
198,126.81559464375,126.91086891458333,73.0,80.0
199,127.04425289375,127.25957274583334,75.0,75.0
200,127.27291114375001,127.55492298541667,73.0,80.0
201,127.73022764375,127.82359642916667,73.0,75.0
202,127.95888589375001,128.06559307708335,75.0,104.0
203,128.18754414375,128.39714753958333,73.0,80.0
204,128.64486064375,128.77062268125,73.0,70.0
205,128.87351889375,129.09264971666667,75.0,92.0
206,129.10217714375,130.091124075,77.0,65.0
207,130.24546839375,130.66848615625,68.0,60.0
208,130.70278489375,131.16581785,70.0,43.0
209,131.16010139375,133.18944336250001,68.0,43.0
210,133.6708659375,133.87517489583334,68.0,55.0
211,133.8937484375,134.14077654166667,70.0,70.0
212,134.3395134375,134.49181647916666,70.0,70.0
213,134.56239593749999,134.79827991666667,72.0,92.0
214,135.0081609375,135.426065625,72.0,98.0
215,135.4539259375,135.69166727083334,73.0,92.0
216,135.6768084375,136.07428222916667,75.0,104.0
217,136.1225734375,136.33616916666665,70.0,75.0
218,136.3454559375,137.0475358125,68.0,51.0
219,137.0141034375,137.231413875,73.0,104.0
220,137.2369859375,137.432008125,75.0,92.0
221,137.4598684375,137.855484875,77.0,92.0
222,137.9056334375,138.134088,77.0,86.0
223,138.1285159375,138.42754995833334,75.0,104.0
224,138.5742809375,138.94017970833332,77.0,87.0
225,139.0200459375,139.48066977083334,80.0,92.0
226,139.4658109375,140.46135277083334,73.0,104.0
227,140.8031059375,140.99069870833333,73.0,80.0
228,141.0259884375,141.37331366666666,77.0,86.0
229,141.47175343749998,141.81350660416666,75.0,70.0
230,141.6946359375,141.99181260416665,73.0,70.0
231,141.9175184375,142.61588360416667,77.0,70.0
232,142.5861659375,142.61588360416667,77.0,80.0
233,142.8090484375,143.08950891666666,77.0,86.0
234,143.0319309375,143.36811204166668,75.0,92.0
235,143.4776959375,143.75072699999998,73.0,75.0
236,143.70057843749998,144.096194875,77.0,98.0
237,144.1463434375,144.53267310416666,78.0,92.0
238,144.5921084375,145.054589625,80.0,92.0
239,145.0378734375,145.478066375,77.0,80.0
240,145.48178108333332,146.26929925,75.0,80.0
241,146.15228593749998,146.43460377083332,73.0,92.0
242,146.3751684375,146.5869068125,80.0,104.0
243,146.5980509375,146.81907608333333,82.0,92.0
244,146.8209334375,147.7458958125,80.0,127.0
245,148.1582284375,148.25666820833334,77.0,80.0
246,148.3811109375,148.46283452083333,77.0,55.0
247,148.6039934375,148.69128908333332,77.0,70.0
248,148.8268759375,148.90859952083332,77.0,70.0
249,149.0497584375,149.367366,77.0,70.0
250,149.4955234375,149.65369658333333,68.0,43.0
251,149.72506996875,150.46773897916665,70.0,92.0
252,150.41951371874998,150.5989116875,73.0,110.0
253,150.65099496874998,151.2933554375,78.0,92.0
254,151.34543871875,151.56920392708332,77.0,80.0
255,151.57691996875,152.1961323125,75.0,92.0
256,152.27136371875,152.72661017708333,73.0,104.0
257,152.73432621875,153.1683535625,75.0,92.0
258,153.19728871875,153.37282866666666,73.0,104.0
259,153.42876996875,154.40292022916665,77.0,80.0
260,154.58617621874998,154.98741038541667,75.0,104.0
261,155.04913871875,155.2516848125,77.0,55.0
262,155.28061996875,155.96541866666666,73.0,92.0
263,156.20654496875,156.4553873125,73.0,80.0
264,156.43802621875,156.652146375,80.0,110.0
265,156.90098871875,156.99637017083333,80.0,104.0
266,157.12814721249998,157.61572226666667,80.0,104.0
267,157.57995421249998,158.01105339166665,72.0,92.0
268,158.0317612125,158.48733327083332,73.0,104.0
269,158.4835682125,158.89774420833334,75.0,92.0
270,158.9330339375,159.7911315625,73.0,104.0
271,160.0474464375,160.35205252083333,78.0,104.0
272,160.4932114375,160.66966008333333,77.0,70.0
273,160.7160939375,161.312304625,75.0,110.0
274,161.3847414375,161.69863429166668,75.0,127.0
275,161.8305064375,162.05524629166666,73.0,110.0
276,162.0533889375,162.66817316666666,75.0,104.0
277,162.7220364375,162.82047620833333,77.0,80.0
278,162.9449189375,163.02664252083332,77.0,55.0
279,163.1678014375,163.25509708333334,77.0,70.0
280,163.3906839375,163.47240752083334,77.0,70.0
281,163.6135664375,163.931174,77.0,70.0
282,164.0593314375,164.21349183333334,68.0,43.0
283,164.2822139375,164.99729529166666,70.0,92.0
284,164.9508614375,165.123595375,73.0,110.0
285,165.1737439375,165.792242875,78.0,92.0
286,165.8423914375,166.05784452083333,77.0,80.0
287,166.0652739375,166.661484625,75.0,92.0
288,166.7339214375,167.17225702083334,73.0,104.0
289,167.1796864375,167.597591125,75.0,92.0
290,167.6254514375,167.79447066666665,73.0,104.0
291,167.8483339375,168.78629779166667,77.0,80.0
292,168.9627464375,169.22649072916667,75.0,104.0
293,169.25992310416666,169.49394972916667,73.0,80.0
294,169.55709977083333,169.83013083333333,72.0,83.0
295,169.8542764375,170.7513785,73.0,104.0
296,170.7458064375,171.10056108333333,85.0,110.0
297,171.04298310416667,171.364305375,84.0,92.0
298,171.34015977083334,171.631764375,82.0,65.0
299,171.6373364375,172.20940152083332,80.0,104.0
300,172.23168977083333,172.64773710416665,75.0,92.0
301,172.82604310416667,173.117442675,73.0,75.0
302,173.125006975,174.331512825,82.0,110.0
303,175.243010975,175.6268992,78.0,104.0
304,175.696868975,175.7933138,73.0,92.0
305,175.92379797499999,176.33416125,73.0,104.0
306,176.37765597499998,176.9203945,75.0,110.0
307,177.058442975,178.650728125,73.0,104.0
308,180.689306975,180.78953395,77.0,80.0
309,180.916235975,180.999443275,77.0,55.0
310,181.143164975,181.2320455,77.0,70.0
311,181.370093975,181.453301275,77.0,70.0
312,181.597022975,181.9203968,77.0,70.0
313,182.05088097499998,182.2078402,68.0,43.0
314,182.277809975,183.00587385,70.0,92.0
315,182.958596975,183.13446695,73.0,110.0
316,183.185525975,183.81525395,78.0,92.0
317,184.09324197499998,184.31260667499998,77.0,80.0
318,184.320170975,184.770246825,75.0,92.0
319,184.774028975,185.220322675,73.0,104.0
320,185.227886975,185.65337885,75.0,92.0
321,185.681744975,186.131820825,73.0,104.0
322,186.13560297499998,187.039536825,77.0,80.0
323,187.043318975,187.43666257499999,75.0,104.0
324,187.497176975,187.69573985,77.0,55.0
325,187.724105975,188.39543759999998,73.0,92.0
326,188.63182197499998,188.87577065,73.0,80.0
327,188.858750975,189.0686603,80.0,110.0
328,189.312608975,189.40716272499998,80.0,104.0
329,189.539537975,190.0293264,80.0,104.0
330,189.993395975,190.42645215,72.0,92.0
331,190.447253975,190.904894125,73.0,104.0
332,190.901111975,191.31903954999999,75.0,92.0
333,191.354969975,192.22864662499998,73.0,104.0
334,192.26268597499998,192.43288272499998,70.0,104.0
335,192.489614975,192.799751275,78.0,104.0
336,192.943472975,193.12312509999998,77.0,70.0
337,193.170401975,193.77743705,75.0,110.0
338,193.85118897499999,194.17078064999998,75.0,127.0
339,194.30504697499998,194.53386705,73.0,110.0
340,194.531975975,195.1579218,75.0,104.0
341,195.212762975,195.31298995,77.0,80.0
342,195.439691975,195.522899275,77.0,55.0
343,195.666620975,195.75550149999998,77.0,70.0
344,195.89354997499998,195.97675727499998,77.0,70.0
345,196.120478975,196.4438528,77.0,70.0
346,196.574336975,196.7312962,68.0,43.0
347,196.80126597499998,197.52932984999998,70.0,92.0
348,197.482052975,197.65792295,73.0,110.0
349,197.708981975,198.33870995,78.0,92.0
350,198.38976897499998,198.609133675,77.0,80.0
351,198.616697975,199.22373305,75.0,92.0
352,199.297484975,199.743778675,73.0,104.0
353,199.751342975,200.17683485,75.0,92.0
354,200.205200975,200.3760204,73.0,104.0
355,200.43028683125,201.3752712375,77.0,80.0
356,201.55304058125,201.81875896875,75.0,104.0
357,201.85244158125,202.08821986875,73.0,80.0
358,202.15184258125,202.42691725,72.0,83.0
359,202.45124358125,203.35506035,73.0,104.0
360,203.34944658125,203.706856525,85.0,110.0
361,203.64884758125,203.9725749125,84.0,92.0
362,203.94824858125,204.2420358125,82.0,65.0
363,204.24764958125,204.82399650625,80.0,104.0
364,204.84645158125,205.26561298125,75.0,92.0
365,205.44525358125,205.73716955625,73.0,75.0
366,205.74465458125,206.93851606875,82.0,110.0
367,207.84046158125,208.2203266,78.0,104.0
368,208.28956308125,208.38499715,73.0,92.0
369,208.51411383125,208.9201764375,73.0,104.0
370,208.96321533125,209.500265875,75.0,110.0
371,209.63686758125,211.21246534375,73.0,104.0
372,211.88237508125,212.23417125625,77.0,98.0
373,212.33147658125,212.81613195,75.0,92.0
374,212.78057808124998,213.2090957625,72.0,90.0
375,213.22967958125,214.028706,73.0,104.0
376,214.12788258125,214.59195413125,85.0,104.0
377,214.57698408125,215.0167293,84.0,55.0
378,215.02608558125,215.45086075,82.0,43.0
379,215.47518708125,215.92054606874999,80.0,35.0
380,215.92428858125,216.371518825,75.0,80.0
381,216.37339008125,216.82997660625,73.0,51.0
382,216.82249158125,218.4935234125,82.0,75.0
383,218.871517175,219.49464550625,78.0,75.0
384,219.49090299375,219.8034027875,73.0,80.0
385,219.93251946875,221.94599119375,73.0,75.0
386,222.5429219375,223.32323579375,75.0,75.0
387,223.32510704999999,226.2742069,73.0,60.0
