,start,end,pitch,velocity
0,0.7732733583333333,1.4376878458333333,56.0,88.0
1,1.2068319645833334,2.0232734958333336,61.0,88.0
2,1.644144325,2.1865618020833333,56.0,88.0
3,2.0964717020833334,2.693318614583333,65.0,88.0
4,2.5544297104166667,3.0217721041666668,56.0,88.0
5,3.0198952270833335,3.3821325041666666,68.0,88.0
6,0.35472976875,3.421546922916667,49.0,88.0
7,3.2075829354166667,3.55855895,56.0,88.0
8,3.4234238,3.7124628708333334,61.0,88.0
9,3.658033435416667,3.905781210416667,65.0,88.0
10,4.3130635375,5.1370125770833335,56.0,88.0
11,5.1914420125000005,6.060436102083334,56.0,88.0
12,4.756006529166667,6.59346919375,60.0,88.0
13,6.129880554166667,6.600976702083334,56.0,88.0
14,5.677553177083333,6.634760489583334,63.0,88.0
15,3.8813818083333333,7.000751520833334,48.0,88.0
16,6.597222947916667,7.008259029166667,68.0,88.0
17,6.777403147916667,7.404280093750001,56.0,88.0
18,7.01013590625,7.4099107250000005,60.0,88.0
19,7.2409917875000005,7.52815398125,63.0,88.0
20,7.946697570833334,8.706832789583334,53.0,88.0
21,8.385886808333334,9.356232260416666,58.0,88.0
22,8.8400910625,9.3581091375,53.0,88.0
23,9.299925947916668,9.836712793750001,65.0,88.0
24,9.765391464583333,10.255256383333334,53.0,88.0
25,7.496247070833333,10.5743254875,46.0,88.0
26,10.238364489583333,10.579956118750001,65.0,88.0
27,10.427929075,10.767643827083333,53.0,88.0
28,10.647523693750001,10.983484691666668,58.0,88.0
29,10.840842033333333,11.128004227083334,65.0,88.0
30,11.57657785,12.261637985416668,56.0,88.0
31,11.987613931250001,12.453079447916666,61.0,88.0
32,12.924175595833333,14.618995602083334,68.0,88.0
33,12.935436858333334,14.62274935625,65.0,88.0
34,11.111112333333333,14.624626233333334,49.0,88.0
35,12.464340710416668,14.637764372916667,56.0,88.0
36,12.920421841666666,14.649025635416667,61.0,88.0
37,15.268395072916666,15.9346864375,56.0,88.0
38,15.683184908333335,16.557809629166666,61.0,88.0
39,16.094220989583334,16.595347170833335,56.0,88.0
40,16.546548366666666,17.316067970833334,65.0,88.0
41,16.985737604166665,17.451203120833334,56.0,88.0
42,17.4211730875,17.88288485,68.0,88.0
43,14.832959589583334,17.952329302083335,49.0,88.0
44,17.60698391875,18.1869389375,56.0,88.0
45,17.84347043125,18.250752758333334,61.0,88.0
46,18.08371069791667,18.363365383333335,65.0,88.0
47,18.757509570833335,20.5067590125,56.0,88.0
48,20.131383595833334,21.032284595833335,63.0,88.0
49,19.144146250000002,21.03416147291667,60.0,88.0
50,20.57995721875,21.09797529375,56.0,88.0
51,18.32770471875,21.595347720833335,48.0,88.0
52,21.463966325,21.901278685416667,56.0,88.0
53,21.01726957916667,22.0157681875,68.0,88.0
54,22.830332841666667,23.785663277083334,58.0,88.0
55,23.753756366666668,24.547675372916668,65.0,88.0
56,21.92004745625,25.240243016666668,46.0,88.0
57,22.389266727083335,25.401654445833334,53.0,88.0
58,24.688441154166668,25.474852652083335,65.0,88.0
59,26.073576441666667,26.766144085416666,58.0,88.0
60,26.95758554791667,27.723351397916666,58.0,88.0
61,27.379882891666668,27.813441497916667,66.0,88.0
62,27.366744752083335,27.847225285416666,70.0,88.0
63,26.50338129375,27.912915983333335,63.0,88.0
64,25.67004786875,27.927931,51.0,88.0
65,28.335213327083334,28.701204358333335,68.0,88.0
66,28.301429539583335,28.742495654166667,48.0,88.0
67,28.3220751875,28.74437253125,63.0,88.0
68,28.310813925,28.748126285416667,60.0,88.0
69,29.39752575625,29.748501770833336,70.0,88.0
70,29.2680212375,29.832961239583334,66.0,88.0
71,29.247375589583335,29.8536068875,63.0,88.0
72,29.418171404166667,30.157660975000002,58.0,88.0
73,30.097600908333334,30.504883235416667,66.0,88.0
74,30.086339645833334,30.563066425000002,70.0,88.0
75,30.0900934,30.574327687500002,63.0,88.0
76,29.234237450000002,30.632510877083334,51.0,88.0
77,30.497375727083334,30.715093468750002,58.0,88.0
78,30.979733137500002,31.649778256250002,68.0,88.0
79,30.968471875000002,31.689192675,63.0,88.0
80,30.96096436666667,31.71734583125,60.0,88.0
81,31.40203048125,32.07395247708333,56.0,88.0
82,31.843096595833334,32.3423459,63.0,88.0
83,31.848727227083334,32.346099654166665,60.0,88.0
84,31.839342841666667,32.376129687500004,68.0,88.0
85,30.957210612500003,32.38551407291667,48.0,88.0
86,32.29167021875,32.55255613333333,56.0,88.0
87,32.77590450625,33.089342979166666,65.0,88.0
88,32.76464324375,33.16629493958333,56.0,88.0
89,32.77965826041667,33.17380244791667,68.0,88.0
90,32.760889489583334,33.181309956250004,49.0,88.0
91,32.76839699791667,33.2094631125,61.0,88.0
92,33.686189891666665,33.950829560416665,68.0,88.0
93,33.6936974,33.98273647083334,48.0,88.0
94,33.6824361375,33.986490225000004,56.0,88.0
95,33.67868238333333,33.98836710208334,63.0,88.0
96,33.674928629166665,34.009012750000004,60.0,88.0
97,34.61149029375,35.349102987500004,65.0,88.0
98,34.60398278541667,35.354733618750004,58.0,88.0
99,34.607736539583335,35.390394283333336,61.0,88.0
100,35.52552943333333,36.3063103,58.0,88.0
101,34.58709089166667,36.31194093125,46.0,88.0
102,35.521775679166666,36.31381780833333,61.0,88.0
103,35.53116006458333,36.32320219375,65.0,88.0
104,34.579583383333336,36.343847841666665,53.0,88.0
105,37.27290199791667,37.976730904166665,66.0,88.0
106,36.80555960416667,38.01051469166667,63.0,88.0
107,36.39827727708334,38.18131050625,51.0,88.0
108,39.093472768750004,39.55706140833333,66.0,88.0
109,39.08596526041667,39.70533469791667,63.0,88.0
110,39.08971901458334,39.76914851875,70.0,88.0
111,38.15315735,39.85923861875,54.0,88.0
112,40.89527476875,43.5135183,68.0,88.0
113,40.887767260416666,43.51914893125,63.0,88.0
114,40.02628067916667,43.53416394791667,56.0,88.0
115,40.43543988333334,43.543548333333334,60.0,88.0
116,44.30743730625,44.42755743958333,61.0,88.0
117,44.10098082708333,44.62650641041667,56.0,88.0
118,44.54204694166667,45.24399897083333,65.0,88.0
119,45.00188182708334,45.4054104,56.0,88.0
120,45.21959956875,45.919674720833335,68.0,88.0
121,45.694449470833334,46.38138648333334,56.0,88.0
122,43.654284081250005,46.769900039583334,49.0,88.0
123,46.5427979125,46.903158312500004,56.0,88.0
124,46.33821831041667,47.06832349583333,61.0,88.0
125,46.77740754791667,47.134014193750005,65.0,88.0
126,46.97635651875,47.220350539583336,68.0,88.0
127,47.655786022916665,48.237617918750004,56.0,88.0
128,48.09122150625,48.58671705625,60.0,88.0
129,48.10623652291667,48.60736270416667,63.0,88.0
130,48.10060589166667,48.62988522916667,68.0,88.0
131,48.54354888333334,48.90203240625,56.0,88.0
132,48.772527887500004,49.37312855416667,63.0,88.0
133,48.78191227291667,49.58146191041667,68.0,88.0
134,49.25113154375,49.89677726041667,56.0,88.0
135,49.68281327291667,49.94182231041667,60.0,88.0
136,47.19970489166667,50.204585102083335,48.0,88.0
137,50.08634184583333,50.39790344166667,56.0,88.0
138,50.330335866666665,50.61374430625,68.0,88.0
139,49.88551599791667,50.617498060416665,63.0,88.0
140,50.54617673125,50.89339899166667,60.0,88.0
141,51.246251883333336,51.92755826458333,53.0,88.0
142,52.14527600625,52.42680756875,53.0,88.0
143,51.70420989166667,52.42868444583333,58.0,88.0
144,52.355486239583335,53.286417272916665,61.0,88.0
145,52.82845926458334,53.38026112708334,53.0,88.0
146,53.29017102708333,53.545426310416666,65.0,88.0
147,50.78641699791667,53.92267860416667,46.0,88.0
148,53.701207108333335,54.010891827083334,53.0,88.0
149,53.49662750625,54.0202762125,58.0,88.0
150,54.161041993750004,54.37125222708333,65.0,88.0
151,53.94707800625,54.41254352291667,61.0,88.0
152,54.83671774375,55.45796405833333,51.0,88.0
153,55.272153227083336,55.98161276458333,56.0,88.0
154,55.73574186666667,56.07357974166667,51.0,88.0
155,55.949705854166666,56.17680798125,60.0,88.0
156,56.15240857916667,56.518399610416665,63.0,88.0
157,56.599105325000004,56.90128253541667,56.0,88.0
158,56.40578698541667,56.959465725,51.0,88.0
159,56.85060685416667,57.05518645625,60.0,88.0
160,57.08709336666667,57.387393700000004,63.0,88.0
161,54.391897875000005,57.451207520833336,44.0,88.0
162,57.3085648625,57.800306658333334,51.0,88.0
163,57.52628260416667,57.800306658333334,56.0,88.0
164,57.749630977083335,58.036793170833334,60.0,88.0
165,58.70683828958334,58.81569716041667,58.0,88.0
166,58.457213637500004,59.04842991875,53.0,88.0
167,58.911417891666666,59.21734885625,58.0,88.0
168,58.9189254,59.35623776041667,61.0,88.0
169,57.991748120833336,59.39752905625,46.0,88.0
170,59.17981131458333,59.49137291041667,53.0,88.0
171,59.3806371625,59.66029184791667,58.0,88.0
172,59.56832487083334,59.75976633333334,61.0,88.0
173,60.320952581250005,60.97222892916667,58.0,88.0
174,59.81044201458334,61.315697435416666,51.0,88.0
175,60.750757433333334,61.45646321666667,63.0,88.0
176,61.17305477708334,61.4752319875,58.0,88.0
177,61.40015690416667,61.599105875,66.0,88.0
178,61.661042818750005,62.23349032916667,49.0,88.0
179,61.88626806875,62.29542727291667,56.0,88.0
180,62.11149331875,62.38551737291667,65.0,88.0
181,62.11149331875,62.42680866875,61.0,88.0
182,62.11149331875,62.430562422916665,68.0,88.0
183,62.56194381875,63.093100033333336,48.0,88.0
184,62.78716906875,63.104361295833336,56.0,88.0
185,63.012394318750005,63.346478439583336,68.0,88.0
186,63.012394318750005,63.355862825,63.0,88.0
187,63.012394318750005,63.37275471875,60.0,88.0
188,63.46284481875,64.81044256458334,46.0,88.0
189,63.68807006875,64.81044256458334,53.0,88.0
190,63.91329531875,64.81044256458334,58.0,88.0
191,63.91329531875,64.81044256458334,61.0,88.0
192,63.91329531875,64.81044256458334,65.0,88.0
193,65.71509731875,66.04918143958334,61.0,88.0
194,65.94032256875,66.0698270875,65.0,88.0
195,65.48987206875,66.19182409791667,56.0,88.0
196,66.16554781875,66.689196525,68.0,88.0
197,65.26464681875001,66.72485718958333,49.0,88.0
198,66.39077306875001,66.90879114375001,56.0,88.0
199,66.61599831875,66.91066802083334,61.0,88.0
200,66.84122356875,67.09647885208334,65.0,88.0
201,67.29167406875,67.75150895416667,61.0,88.0
202,67.51689931875,67.79092337291667,65.0,88.0
203,67.96734981875001,68.15503752708334,65.0,88.0
204,67.74212456875,68.23949699583333,68.0,88.0
205,67.06644881875,68.51539792708334,53.0,88.0
206,68.41780031875,68.71059314375,61.0,88.0
207,68.41780031875,68.76877633333334,65.0,88.0
208,68.64302556875,68.84948204791667,68.0,88.0
209,69.54392656875,69.86674942708333,60.0,88.0
210,69.31870131875,69.88551819791667,56.0,88.0
211,69.76915181875,70.3040617875,63.0,88.0
212,68.86825081875,70.48987261875,44.0,88.0
213,70.21960231875,70.53491766875,68.0,88.0
214,69.99437706875,70.5518095625,56.0,88.0
215,70.44482756875,70.92718497916667,60.0,88.0
216,71.12050331875,71.43394179166667,60.0,88.0
217,70.89527806875,71.60661448333333,56.0,88.0
218,71.34572856875,72.08146438541667,63.0,88.0
219,72.02140431875,72.28979774166667,68.0,88.0
220,70.67005281875001,72.35548843958334,44.0,88.0
221,71.79617906875,72.36862657916667,56.0,88.0
222,72.24662956875001,72.41367162916667,60.0,88.0
223,72.69708006875,73.30143448958333,56.0,88.0
224,72.92230531875,73.37650957291667,61.0,88.0
225,73.14753056875,73.4121702375,65.0,88.0
226,73.37275581875001,73.78191502291666,68.0,88.0
227,72.47185481875,73.93206518958334,49.0,88.0
228,73.59798106875,74.08409223333334,56.0,88.0
229,73.82320631875,74.13101416041667,61.0,88.0
230,74.04843156875,74.32996313125,65.0,88.0
231,74.72410731875,75.07508333333334,56.0,88.0
232,74.94933256875001,75.2139722375,61.0,88.0
233,75.17455781875,75.63814645833334,65.0,88.0
234,74.27365681875,75.65128459791667,53.0,88.0
235,75.39978306875,75.72635968125,56.0,88.0
236,75.62500831875,75.92906240625,68.0,88.0
237,75.85023356875,76.06232067916667,61.0,88.0
238,76.52590931875,77.0157742375,60.0,88.0
239,76.75113456875,77.04392739375,63.0,88.0
240,76.30068406875,77.07583430416666,56.0,88.0
241,76.97635981875,77.48687038541667,68.0,88.0
242,76.07545881875001,77.62575928958334,44.0,88.0
243,77.42681031875,77.74587942291667,60.0,88.0
244,77.20158506875,77.79655510416667,56.0,88.0
245,77.65203556875001,77.85473829375,63.0,88.0
246,77.87726081875,78.38589450833334,49.0,88.0
247,78.10248606875,78.59610474166666,56.0,88.0
248,78.32771131875,78.68056421041666,61.0,88.0
249,78.55293656875,78.78191557291667,65.0,88.0
250,78.77816181875001,79.32620992708334,48.0,88.0
251,79.00338706875,79.45008381458334,56.0,88.0
252,79.22861231875001,79.61900275208333,60.0,88.0
253,79.45383756875,79.68281657291666,63.0,88.0
254,80.12951331875,80.68506893541667,58.0,88.0
255,79.90428806875,80.7207296,53.0,88.0
256,80.35473856875001,80.91404793958334,61.0,88.0
257,80.57996381875,80.96284674375,65.0,88.0
258,79.67906281875,81.32320714375,46.0,88.0
259,80.80518906875,81.34760654583333,53.0,88.0
260,81.03041431875,81.35323717708333,58.0,88.0
261,81.25563956875,81.509017975,61.0,88.0
262,81.93131531875001,82.274783825,56.0,88.0
263,82.15654056875,82.39115020416666,60.0,88.0
264,81.70609006875,82.42493399166666,53.0,88.0
265,82.38176581875,82.76277186666667,65.0,88.0
266,81.48086481875,82.84723133541667,41.0,88.0
267,82.60699106875,82.9842433625,53.0,88.0
268,82.83221631875,83.10060974166667,56.0,88.0
269,83.05744156875001,83.31269685208333,60.0,88.0
270,83.50789206875,84.18169094166667,53.0,88.0
271,83.95834256875,84.19858283541667,61.0,88.0
272,83.73311731875,84.23799725416667,58.0,88.0
273,84.40879306875,84.75038469791667,65.0,88.0
274,84.63401831875001,84.7747841,58.0,88.0
275,83.28266681875,84.79355287083334,46.0,88.0
276,84.40879306875,84.86675107708334,53.0,88.0
277,84.85924356875,85.0112706125,61.0,88.0
278,85.53491931875,85.60061001666666,65.0,88.0
279,85.08446881875,85.69257699375001,49.0,88.0
280,85.53491931875,85.70571513333334,61.0,88.0
281,85.30969406875,85.70946888750001,56.0,88.0
282,85.98536981875,86.03041486875,65.0,88.0
283,85.98536981875,86.04355300833333,56.0,88.0
284,85.98536981875,86.04542988541667,61.0,88.0
285,85.98536981875,86.05481427083333,49.0,88.0
286,85.98536981875,86.06232177916667,68.0,88.0
287,86.21059506875001,86.27628576666667,65.0,88.0
288,86.21059506875001,86.28191639791667,56.0,88.0
289,86.21059506875001,86.29130078333334,49.0,88.0
290,86.21059506875001,86.30068516875001,61.0,88.0
291,86.21059506875001,86.30256204583334,68.0,88.0
292,87.11149606875,87.71585048958333,56.0,88.0
293,87.33672131875001,87.79092557291666,61.0,88.0
294,87.56194656875,87.82658623750001,65.0,88.0
295,87.78717181875,88.19633102291667,68.0,88.0
296,86.88627081875,88.34648118958333,49.0,88.0
297,88.01239706875,88.49850823333334,56.0,88.0
298,88.23762231875,88.54543016041667,61.0,88.0
299,88.46284756875,88.74437913125,65.0,88.0
300,89.13852331875,89.48949933333334,56.0,88.0
301,89.36374856875,89.6283882375,61.0,88.0
302,89.58897381875,90.05256245833334,65.0,88.0
303,88.68807281875,90.06570059791667,53.0,88.0
304,89.81419906875,90.14077568125,56.0,88.0
305,90.03942431875001,90.34347840625,68.0,88.0
306,90.26464956875,90.47673667916666,61.0,88.0
307,90.94032531875,91.4301902375,60.0,88.0
308,91.16555056875,91.45834339375,63.0,88.0
309,90.71510006875,91.49025030416666,56.0,88.0
310,91.39077581875,91.90128638541667,68.0,88.0
311,90.48987481875,92.04017528958333,44.0,88.0
312,91.84122631875,92.16029542291668,60.0,88.0
313,91.61600106875001,92.21097110416667,56.0,88.0
314,92.06645156875,92.26915429375,63.0,88.0
315,92.29167681875,92.80031050833334,49.0,88.0
316,92.51690206875,93.01052074166667,56.0,88.0
317,92.74212731875001,93.09498021041667,61.0,88.0
318,92.96735256875,93.19633157291668,65.0,88.0
319,93.19257781875001,93.74062592708334,48.0,88.0
320,93.41780306875,93.86449981458334,56.0,88.0
321,93.64302831875,94.03341875208334,60.0,88.0
322,93.86825356875,94.09723257291667,63.0,88.0
323,94.54392931875,95.09948493541667,58.0,88.0
324,94.31870406875001,95.1351456,53.0,88.0
325,94.76915456875,95.32846393958333,61.0,88.0
326,94.99437981875,95.37726274375001,65.0,88.0
327,94.09347881875,95.73762314375,46.0,88.0
328,95.21960506875,95.76202254583333,53.0,88.0
329,95.44483031875001,95.76765317708333,58.0,88.0
330,95.67005556875,95.92343397500001,61.0,88.0
331,96.34573131875,96.689199825,56.0,88.0
332,96.57095656875,96.80556620416667,60.0,88.0
333,96.12050606875,96.83934999166667,53.0,88.0
334,96.79618181875,97.17718786666667,65.0,88.0
335,95.89528081875001,97.26164733541667,41.0,88.0
336,97.02140706875001,97.3986593625,53.0,88.0
337,97.24663231875,97.51502574166668,56.0,88.0
338,97.47185756875,97.72711285208334,60.0,88.0
339,97.92230806875,98.59610694166668,53.0,88.0
340,98.37275856875,98.61299883541668,61.0,88.0
341,98.14753331875,98.65241325416667,58.0,88.0
342,98.82320906875,99.16480069791668,65.0,88.0
343,99.04843431875,99.18920010000001,58.0,89.0
344,97.69708281875,99.20796887083334,46.0,88.0
345,98.82320906875,99.28116707708334,53.0,88.0
346,99.27365956875,99.4256866125,61.0,89.0
347,99.49888481875,100.23649751250001,44.0,89.0
348,99.94933531875,100.25338940625001,60.0,89.0
349,100.17456056875,100.27591193125001,63.0,89.0
350,99.72411006875001,100.28905007083334,56.0,89.0
351,100.62501106875,100.72260867708334,56.0,89.0
352,100.62501106875,100.72448555416668,60.0,89.0
353,100.62501106875,100.73011618541668,63.0,89.0
354,100.62501106875,100.73950057083334,68.0,89.0
355,100.62501106875,100.75451558750001,44.0,89.0
356,101.75113731875,102.03642263541667,61.0,89.0
357,101.52591206875,102.28417041041666,56.0,89.0
358,101.97636256875,102.54130257083334,65.0,89.0
359,102.65203831875,102.84347978125,68.0,89.0
360,101.30068681875001,102.95421552916667,49.0,89.0
361,102.42681306875001,102.95421552916667,56.0,89.0
362,102.87726356875001,103.06119752291667,61.0,89.0
363,103.55293931875,103.71059699375,61.0,89.0
364,103.32771406875,104.03154297500001,56.0,89.0
365,103.77816456875,104.3581195875,65.0,89.0
366,104.45384031875,104.49325473750001,65.0,89.0
367,104.45384031875,104.64715865833334,68.0,89.0
368,104.22861506875,104.80293945625,56.0,89.0
369,103.10248881875,104.81795447291667,49.0,89.0
370,104.67906556875,104.8310926125,61.0,89.0
371,105.35474131875,105.91029693541667,56.0,89.0
372,105.80519181875,106.283795475,65.0,89.0
373,105.80519181875,106.35887055833334,61.0,89.0
374,105.80519181875,106.36450118958334,68.0,89.0
375,104.90429081875,106.36637806666667,49.0,89.0
376,106.25564231875,106.48086756875,56.0,89.0
377,107.15654331875,107.64077760625,58.0,89.0
378,107.60699381875,108.08372059791667,66.0,89.0
379,106.70609281875001,108.09498186041667,54.0,89.0
380,107.60699381875,108.0968587375,61.0,89.0
381,107.60699381875,108.12313501666667,70.0,89.0
382,108.05744431875,108.21322511666666,58.0,89.0
383,108.95834531875,109.5495616,56.0,89.0
384,108.50789481875,109.90429136875001,53.0,89.0
385,109.40879581875001,109.94933641875001,68.0,89.0
386,109.40879581875001,109.9887508375,60.0,89.0
387,109.40879581875001,110.02628837916667,65.0,89.0
388,109.85924631875001,110.03567276458334,56.0,89.0
389,110.76014731875,111.79993722291667,56.0,89.0
390,111.21059781875,111.869381675,65.0,89.0
391,111.21059781875,111.87313542916667,68.0,89.0
392,111.21059781875,111.87688918333333,61.0,89.0
393,110.30969681875,111.91254984791667,49.0,89.0
394,112.56194931875001,112.97110852291667,59.0,89.0
395,112.33672406875,113.05744486875,54.0,89.0
396,112.78717456875,113.07809051666668,63.0,89.0
397,113.01239981875,113.4234359,66.0,89.0
398,112.11149881875001,113.46472719583333,47.0,89.0
399,113.23762506875,113.63176925625001,54.0,89.0
400,113.46285031875,113.78755005416667,59.0,89.0
401,113.68807556875001,113.88327078541667,63.0,89.0
402,114.58897656875,114.80106367916667,66.0,89.0
403,114.13852606875,114.80857118750001,58.0,89.0
404,114.36375131875,114.81420181875,63.0,89.0
405,114.81420181875,115.22148414583334,70.0,89.0
406,113.91330081875,115.23462228541668,51.0,89.0
407,115.03942706875,115.29280547500001,58.0,89.0
408,115.26465231875001,115.60436707083333,63.0,89.0
409,115.48987756875,115.70384155625,66.0,89.0
410,116.16555331875,116.66104886875,60.0,89.0
411,116.39077856875001,116.69858641041667,63.0,89.0
412,115.94032806875,116.76240023125,56.0,89.0
413,116.61600381875,117.03267053125,68.0,89.0
414,115.71510281875,117.41555345625001,44.0,89.0
415,116.84122906875001,117.42681471875001,56.0,89.0
416,117.51690481875,118.91517824583333,44.0,89.0
417,117.29167956875,118.95646954166666,63.0,89.0
418,117.06645431875,118.98462269791668,60.0,89.0
419,117.74213006875,119.09160469166667,56.0,89.0
420,119.98312130625,120.10324143958334,61.0,89.0
421,119.77666482708334,120.30219041041667,56.0,89.0
422,120.21773094166667,120.91968297083334,65.0,89.0
423,120.67756582708334,121.0810944,56.0,89.0
424,120.89528356875,121.59535872083333,68.0,89.0
425,121.37013347083334,122.05707048333333,56.0,89.0
426,119.32996808125,122.44558403958334,49.0,89.0
427,122.21848191250001,122.57970056250001,56.0,89.0
428,122.01390231041667,122.74738327916667,61.0,89.0
429,122.45309154791667,122.81407526875,65.0,89.0
430,122.65401449375,122.90172759791668,68.0,89.0
431,123.34380021458334,123.93450069375,56.0,89.0
432,123.78587283125,124.28892098125,60.0,89.0
433,123.80111671458333,124.30988132083334,63.0,89.0
434,123.79540025833333,124.33274714583334,68.0,89.0
435,124.24509481666666,124.60904253125,56.0,89.0
436,124.4775640375,125.08731937083334,63.0,89.0
437,124.48709146458333,125.29882825208334,68.0,89.0
438,124.96346281875,125.61894980208334,56.0,89.0
439,125.40172446458334,125.66468145208333,60.0,89.0
440,122.88076725833334,125.93144941041668,48.0,89.0
441,125.81140382916666,126.12771440833333,56.0,89.0
442,126.05911693333334,126.34684523125,68.0,89.0
443,125.60751688958334,126.35065620208334,63.0,89.0
444,126.27824775625,126.63076255833333,60.0,89.0
445,126.98899381666666,127.68068502291666,53.0,89.0
446,127.90172133125,128.18754414375,53.0,89.0
447,127.45393225833334,128.18944962916666,58.0,89.0
448,128.11513569791666,129.06025646458335,61.0,89.0
449,128.59531802291667,129.15553073541668,53.0,89.0
450,129.06406743541666,129.32321345208334,65.0,89.0
451,126.52214988958333,129.70621602083332,46.0,89.0
452,129.48136874166667,129.79577383541667,53.0,89.0
453,129.27367083125,129.8053012625,58.0,89.0
454,129.94821266875,130.16162703541667,65.0,89.0
455,129.73098733125,130.20354771458332,61.0,89.0
456,130.63418741875,131.26490309166667,51.0,89.0
457,131.07626003541668,131.79653352291666,56.0,89.0
458,131.54691493333334,131.88990230833335,51.0,89.0
459,131.76414027083334,131.99470400625,60.0,89.0
460,131.96993269583334,132.34150235208332,63.0,89.0
461,132.423438225,132.73022137708332,56.0,89.0
462,132.22717322708334,132.789291425,51.0,89.0
463,132.67877327083335,132.88647118125,60.0,89.0
464,132.91886443333334,133.2237421,63.0,89.0
465,130.182587375,133.28852860416666,44.0,89.0
466,133.1437117125,133.63929091666665,51.0,89.0
467,133.36474802083333,133.63929091666665,56.0,89.0
468,133.58914235416665,133.87331754166667,60.0,89.0
469,134.53639297916666,134.64411952083333,58.0,89.0
470,134.289364875,134.8744314375,53.0,89.0
471,134.73884458333333,135.0415933125,58.0,89.0
472,134.746274,135.17903752083333,61.0,89.0
473,133.82874104166666,135.2198993125,46.0,89.0
474,135.00444622916666,135.31276702083332,53.0,89.0
475,135.203183125,135.47992889583332,58.0,89.0
476,135.38891854166667,135.57836866666668,61.0,89.0
477,136.1337175625,136.77821945833333,58.0,89.0
478,135.62851722916668,137.11811527083333,51.0,89.0
479,136.55905166666668,137.25741683333334,63.0,89.0
480,136.97695635416667,137.275990375,58.0,89.0
481,137.20169620833332,137.39857575,66.0,89.0
482,137.4598684375,138.02636145833333,49.0,89.0
483,137.6827509375,138.08765414583334,56.0,89.0
484,137.9056334375,138.17680714583332,65.0,89.0
485,137.9056334375,138.2176689375,61.0,89.0
486,137.9056334375,138.22138364583333,68.0,89.0
487,138.3513984375,138.87702966666666,48.0,89.0
488,138.5742809375,138.88817379166667,56.0,89.0
489,138.7971634375,139.12777247916665,68.0,89.0
490,138.7971634375,139.13705925,63.0,89.0
491,138.7971634375,139.1537754375,60.0,89.0
492,139.24292843749998,140.57650872916668,46.0,89.0
493,139.4658109375,140.57650872916668,53.0,89.0
494,139.6886934375,140.57650872916668,58.0,89.0
495,139.6886934375,140.57650872916668,61.0,89.0
496,139.6886934375,140.57650872916668,65.0,89.0
497,141.47175343749998,141.80236247916667,61.0,89.0
498,141.6946359375,141.822793375,65.0,89.0
499,141.2488709375,141.94352139583333,56.0,89.0
500,141.9175184375,142.43572025,68.0,89.0
501,141.0259884375,142.47100997916667,49.0,89.0
502,142.1404009375,142.6530306875,56.0,89.0
503,142.3632834375,142.65488804166665,61.0,89.0
504,142.5861659375,142.83876610416667,65.0,89.0
505,143.0319309375,143.48698270833333,61.0,89.0
506,143.2548134375,143.52598714583334,65.0,89.0
507,143.70057843749998,143.88631385416667,65.0,89.0
508,143.4776959375,143.96989479166666,68.0,89.0
509,142.8090484375,144.24292585416666,53.0,89.0
510,144.1463434375,144.43609068749998,61.0,89.0
511,144.1463434375,144.49366866666665,65.0,89.0
512,144.3692259375,144.57353489583332,68.0,89.0
513,145.2607559375,145.58022085416667,60.0,89.0
514,145.0378734375,145.59879439583332,56.0,89.0
515,145.4836384375,146.012984375,63.0,89.0
516,144.5921084375,146.1968624375,44.0,89.0
517,145.92940343749999,146.2414389375,68.0,89.0
518,145.7065209375,146.258155125,56.0,89.0
519,146.15228593749998,146.62962595833332,60.0,89.0
520,146.8209334375,147.13111158333334,60.0,89.0
521,146.5980509375,147.30198816666666,56.0,89.0
522,147.0438159375,147.77189877083333,63.0,89.0
523,147.7124634375,147.97806508333332,68.0,89.0
524,146.3751684375,148.04307247916665,44.0,89.0
525,147.4895809375,148.05607395833334,56.0,89.0
526,147.9353459375,148.10065045833332,60.0,89.0
527,148.3811109375,148.97917897916668,56.0,89.0
528,148.6039934375,149.05347314583332,61.0,89.0
529,148.8268759375,149.088762875,65.0,89.0
530,149.0497584375,149.45466164583334,68.0,89.0
531,148.1582284375,149.60547132291666,49.0,89.0
532,149.2726409375,149.76172116666666,56.0,89.0
533,149.4955234375,149.80994642708333,61.0,89.0
534,149.72506996875,150.01442153125,65.0,89.0
535,150.41951371874998,150.78023866666666,56.0,89.0
536,150.65099496874998,150.9229854375,61.0,89.0
537,150.88247621874999,151.35894179166667,65.0,89.0
538,149.95655121875,151.37244486458334,53.0,89.0
539,151.11395746875,151.44960528125,56.0,89.0
540,151.34543871875,151.65793840625,68.0,89.0
541,151.57691996875,151.79489814583332,61.0,89.0
542,152.27136371875,152.7748354375,60.0,89.0
543,152.50284496875,152.80377059375,63.0,89.0
544,152.03988246875,152.83656377083332,56.0,89.0
545,152.73432621875,153.25901705208332,68.0,89.0
546,151.80840121875,153.40176382291665,44.0,89.0
547,153.19728871875,153.52522048958332,60.0,89.0
548,152.96580746875,153.57730377083334,56.0,89.0
549,153.42876996875,153.63710309375,63.0,89.0
550,153.66025121875,154.18301304166667,49.0,89.0
551,153.89173246875,154.39906220833333,56.0,89.0
552,154.12321371875,154.48586767708332,61.0,89.0
553,154.35469496874998,154.59003423958333,65.0,89.0
554,154.58617621874998,155.14944726041665,48.0,89.0
555,154.81765746874999,155.27676194791667,56.0,89.0
556,155.04913871875,155.45037288541667,60.0,89.0
557,155.28061996875,155.51595923958334,63.0,89.0
558,155.97506371875,156.54605080208333,58.0,89.0
559,155.74358246875,156.58270199999998,53.0,89.0
560,156.20654496875,156.78139007291665,61.0,89.0
561,156.43802621875,156.83154434374998,65.0,89.0
562,155.51210121875,157.1959182625,46.0,89.0
563,156.66950746875,157.22039114166665,53.0,89.0
564,156.90098871875,157.22603872916665,58.0,89.0
565,157.12814721249998,157.38228865,61.0,89.0
566,157.8058577125,158.15036055,56.0,89.0
567,158.0317612125,158.26707735833332,60.0,89.0
568,157.57995421249998,158.3009628833333,53.0,89.0
569,158.2576647125,158.63981813333334,65.0,89.0
570,157.3540507125,158.72453194583332,41.0,89.0
571,158.4835682125,158.860597125,53.0,89.0
572,158.7094717125,158.97575308333333,56.0,89.0
573,158.9330339375,159.18563410416667,60.0,89.0
574,159.3787989375,160.04558908333334,53.0,89.0
575,159.8245639375,160.06230527083332,61.0,89.0
576,159.6016814375,160.10130970833333,58.0,89.0
577,160.2703289375,160.60836739583334,65.0,89.0
578,160.4932114375,160.632513,58.0,89.0
579,159.1559164375,160.65108654166667,46.0,89.0
580,160.2703289375,160.72352335416667,53.0,89.0
581,160.7160939375,160.866539625,61.0,89.0
582,161.3847414375,161.44974883333333,65.0,89.0
583,160.9389764375,161.5407591875,49.0,89.0
584,161.3847414375,161.55376066666668,61.0,89.0
585,161.1618589375,161.557475375,56.0,89.0
586,161.8305064375,161.8750829375,65.0,89.0
587,161.8305064375,161.88808441666666,56.0,89.0
588,161.8305064375,161.88994177083333,61.0,89.0
589,161.8305064375,161.89922854166667,49.0,89.0
590,161.8305064375,161.90665795833334,68.0,89.0
591,162.0533889375,162.11839633333332,65.0,89.0
592,162.0533889375,162.12396839583334,56.0,89.0
593,162.0533889375,162.13325516666666,49.0,89.0
594,162.0533889375,162.1425419375,61.0,89.0
595,162.0533889375,162.14439929166667,68.0,89.0
596,162.9449189375,163.54298697916667,56.0,89.0
597,163.1678014375,163.61728114583335,61.0,89.0
598,163.3906839375,163.652570875,65.0,89.0
599,163.6135664375,164.01846964583333,68.0,89.0
600,162.7220364375,164.16705797916666,49.0,89.0
601,163.8364489375,164.31750366666665,56.0,89.0
602,164.0593314375,164.36393752083333,61.0,89.0
603,164.2822139375,164.5608170625,65.0,89.0
604,164.9508614375,165.29818666666668,56.0,89.0
605,165.1737439375,165.435630875,61.0,89.0
606,165.3966264375,165.85539291666666,65.0,89.0
607,164.5050964375,165.86839439583332,53.0,89.0
608,165.6195089375,165.9426885625,56.0,89.0
609,165.8423914375,166.1432828125,68.0,89.0
610,166.0652739375,166.27515495833333,61.0,89.0
611,166.7339214375,167.218690875,60.0,89.0
612,166.9568039375,167.2465511875,63.0,89.0
613,166.5110389375,167.27812620833333,56.0,89.0
614,167.1796864375,167.68488677083334,68.0,89.0
615,166.2881564375,167.82233097916668,44.0,89.0
616,167.6254514375,167.94120164583333,60.0,89.0
617,167.4025689375,167.99135020833333,56.0,89.0
618,167.8483339375,168.0489281875,63.0,89.0
619,168.0712164375,168.57455941666666,49.0,89.0
620,168.2940989375,168.78258308333332,56.0,89.0
621,168.5169814375,168.86616402083334,61.0,89.0
622,168.7398639375,168.96646114583334,65.0,89.0
623,168.9627464375,169.50509385416666,48.0,89.0
624,169.18562893749998,169.62767922916666,56.0,89.0
625,169.4085114375,169.79484110416666,60.0,89.0
626,169.6313939375,169.85799114583332,63.0,89.0
627,170.3000414375,170.84981827083334,58.0,89.0
628,170.0771589375,170.885108,53.0,89.0
629,170.5229239375,171.07641547916666,61.0,89.0
630,170.7458064375,171.1247066875,65.0,89.0
631,169.8542764375,171.4813186875,46.0,89.0
632,170.9686889375,171.50546429166667,53.0,89.0
633,171.1915714375,171.51103635416666,58.0,89.0
634,171.4144539375,171.66519675,61.0,89.0
635,172.0831014375,172.42299725,56.0,89.0
636,172.3059839375,172.53815320833334,60.0,89.0
637,171.8602189375,172.57158558333333,53.0,89.0
638,172.5288664375,172.90590933333334,65.0,89.0
639,171.6373364375,172.98949027083333,41.0,89.0
640,172.7517489375,173.12689805,53.0,89.0
641,172.9746314375,173.2441447,56.0,89.0
642,173.200649975,173.45783617499998,60.0,89.0
643,173.654507975,174.33340389999998,53.0,89.0
644,174.108365975,174.35042357499998,61.0,89.0
645,173.88143697499999,174.39013615,58.0,89.0
646,174.562223975,174.906399625,65.0,89.0
647,174.78915297499998,174.9309836,58.0,89.0
648,173.427578975,174.94989435,46.0,89.0
649,174.562223975,175.023646275,53.0,89.0
650,175.016081975,175.16925905,61.0,89.0
651,175.243010975,175.98620345,44.0,89.0
652,175.696868975,176.003223125,60.0,89.0
653,175.92379797499999,176.025916025,63.0,89.0
654,175.469939975,176.03915354999998,56.0,89.0
655,176.37765597499998,176.475991875,56.0,89.0
656,176.37765597499998,176.47788294999998,60.0,89.0
657,176.37765597499998,176.483556175,63.0,89.0
658,176.37765597499998,176.49301155,68.0,89.0
659,176.37765597499998,176.50814015,44.0,89.0
660,177.512300975,177.799744375,61.0,89.0
661,177.285371975,178.04936627499998,56.0,89.0
662,177.739229975,178.30844355,65.0,89.0
663,178.42001697499998,178.612906625,68.0,89.0
664,177.058442975,178.72448004999998,49.0,89.0
665,178.193087975,178.72448004999998,56.0,89.0
666,178.646945975,178.832271325,61.0,89.0
667,179.327732975,179.486583275,61.0,89.0
668,179.100803975,179.8099571,56.0,89.0
669,179.554661975,180.13900415,65.0,89.0
670,180.235448975,180.27516155,65.0,89.0
671,180.235448975,180.43022969999998,68.0,89.0
672,180.00851997499998,180.587188925,56.0,89.0
673,178.87387497499998,180.602317525,49.0,89.0
674,180.46237797499998,180.61555504999998,61.0,89.0
675,180.916235975,181.767219725,56.0,89.0
676,181.597022975,182.35534404999999,68.0,89.0
677,181.370093975,182.43666027499998,65.0,89.0
678,181.143164975,182.44611565,61.0,89.0
679,182.05088097499998,184.29180485,56.0,89.0
680,180.689306975,184.66812877499999,49.0,89.0
681,182.50473897499998,186.42115529999998,65.0,89.0
682,182.50473897499998,186.47788755,61.0,89.0
683,182.50473897499998,186.6632129,68.0,89.0
684,186.13560297499998,190.94082455,49.0,89.0
685,186.362531975,190.999447875,56.0,89.0
686,186.816389975,190.999447875,65.0,89.0
687,186.58946097499998,191.09778377499998,61.0,89.0
688,187.270247975,191.275544825,68.0,89.0
689,192.035756975,192.493397125,60.0,89.0
690,191.80882797499999,192.5255454,56.0,89.0
691,192.26268597499998,192.531218625,63.0,89.0
692,192.489614975,192.822444175,68.0,89.0
693,191.581898975,192.928344375,44.0,89.0
694,192.71654397499998,193.20822347499998,56.0,89.0
695,192.943472975,193.35761839999998,60.0,89.0
696,193.170401975,193.374638075,63.0,89.0
697,193.397330975,193.99869282499998,51.0,89.0
698,193.624259975,194.059207225,60.0,89.0
699,193.85118897499999,194.08757334999999,63.0,89.0
700,194.078117975,194.180236025,68.0,89.0
701,194.30504697499998,194.4846991,51.0,90.0
702,194.531975975,195.1730504,68.0,90.0
703,194.531975975,195.188179,63.0,90.0
704,194.531975975,195.220327275,60.0,90.0
705,195.439691975,196.048618125,56.0,90.0
706,195.666620975,196.124261125,61.0,90.0
707,195.89354997499998,196.16019154999998,65.0,90.0
708,196.120478975,196.53273332499998,68.0,90.0
709,195.212762975,196.684019325,49.0,90.0
710,196.34740797499998,196.83719639999998,56.0,90.0
711,196.574336975,196.884473275,61.0,90.0
712,196.80126597499998,197.084927225,65.0,90.0
713,197.482052975,197.835684,56.0,90.0
714,197.708981975,197.97562355,61.0,90.0
715,197.93591097499998,198.4030065,65.0,90.0
716,197.028194975,198.416244025,53.0,90.0
717,198.162839975,198.49188702499998,56.0,90.0
718,198.38976897499998,198.69612312499999,68.0,90.0
719,198.616697975,198.83038944999998,61.0,90.0
720,199.297484975,199.79105554999998,60.0,90.0
721,199.524413975,199.819421675,63.0,90.0
722,199.070555975,199.85156995,56.0,90.0
723,199.751342975,200.26561628125,68.0,90.0
724,198.843626975,200.40408924375,44.0,90.0
725,200.205200975,200.52384964375,60.0,90.0
726,199.97827197499998,200.5743735625,56.0,90.0
727,200.43028683125,200.63238250625,63.0,90.0
728,200.65483758125,201.161948025,49.0,90.0
729,200.87938833125,201.371528725,56.0,90.0
730,201.10393908125,201.45573525625,61.0,90.0
731,201.32848983125,201.55678309375,65.0,91.0
732,201.55304058125,202.09944740625,48.0,91.0
733,201.77759133125,202.22295031875,56.0,91.0
734,202.00214208124999,202.39136338125,60.0,91.0
735,202.22669283125,202.45498609375,63.0,91.0
736,202.90034508125,203.45423693125,58.0,91.0
737,202.67579433125,203.4897908,53.0,91.0
738,203.12489583125,203.68253019375,61.0,91.0
739,203.34944658125,203.73118285625,65.0,91.0
740,202.45124358125,204.09046405625,46.0,91.0
741,203.57399733124998,204.1147903875,53.0,91.0
742,203.79854808125,204.12040415625,58.0,91.0
743,204.02309883125,204.275718425,61.0,91.0
744,204.69675108125,205.039190975,56.0,91.0
745,204.92130183125,205.1552088625,60.0,91.0
746,204.47220033125,205.188891475,53.0,91.0
747,205.14585258125,205.5257176,65.0,91.0
748,204.24764958125,205.60992413125,41.0,91.0
749,205.37040333125,205.7465258375,53.0,91.0
750,205.59495408125,205.862543725,56.0,91.0
751,205.81950483125,206.07399568125,60.0,91.0
752,206.26860633125,206.940387325,53.0,91.0
753,206.71770783125,206.95722863125,61.0,91.0
754,206.49315708125,206.9965250125,58.0,91.0
755,207.16680933125,207.50737796875,65.0,91.0
756,207.39136008124999,207.5317043,58.0,91.0
757,206.04405558125,207.5504168625,46.0,91.0
758,207.16680933125,207.62339585625,53.0,91.0
759,207.61591083125,207.76748258749998,61.0,91.0
760,207.84046158125,208.5758652875,44.0,91.0
761,208.28956308125,208.59270659375,60.0,91.0
762,208.51411383125,208.61516166875,63.0,91.0
763,208.06501233125,208.6282604625,56.0,91.0
764,208.96321533125,209.06052065625,56.0,91.0
765,208.96321533125,209.0623919125,60.0,91.0
766,208.96321533125,209.06800568124999,63.0,91.0
767,208.96321533125,209.0773619625,68.0,91.0
768,208.96321533125,209.0923320125,44.0,91.0
769,210.08596908125,210.37040003125,61.0,91.0
770,209.86141833125,210.61740585625,56.0,91.0
771,210.31051983125,210.87376796249998,65.0,91.0
772,210.98417208125,211.17504021874998,68.0,91.0
773,209.63686758125,211.2854443375,49.0,91.0
774,210.75962133125,211.2854443375,56.0,91.0
775,211.20872283125,211.39210594375,61.0,91.0
776,211.88237508125,212.03956060625,61.0,91.0
777,211.65782433125,212.359545425,56.0,91.0
778,212.10692583125,212.6851440125,65.0,91.0
779,212.78057808124998,212.8198744625,65.0,91.0
780,212.78057808124998,212.973317475,68.0,91.0
781,212.55602733125,213.12863174375,56.0,91.0
782,211.43327358125,213.14360179375,49.0,91.0
783,213.00512883125,213.15670058749998,61.0,91.0
784,213.9351431875,214.19150529375,65.0,91.0
785,213.46171535625,214.80527734375,56.0,91.0
786,213.25213465625,214.82024739375,49.0,91.0
787,214.1596939375,214.829603675,68.0,91.0
788,213.6993649,214.92878025625,61.0,91.0
789,215.11777713749998,215.2450225625,68.0,91.0
790,215.1252621625,215.26186386875,61.0,91.0
791,215.14584598125,215.2749626625,49.0,91.0
792,215.1402322125,215.29180396875,56.0,91.0
793,215.9710699875,216.10954295,63.0,91.0
794,215.97668375625,216.12264174375,68.0,91.0
795,215.97294124375,216.12638425625,60.0,91.0
796,215.95984245,216.13012676875,56.0,91.0
797,215.95422868125,216.13948305,48.0,91.0
798,216.85617419375,217.72630835,65.0,91.0
799,216.8617879625,217.73940714375,68.0,91.0
800,216.84868916875,217.75063468125,61.0,91.0
801,217.808643625,218.83596330625,65.0,91.0
802,216.8430754,218.86403214999999,49.0,91.0
803,216.8393328875,218.8977147625,56.0,91.0
804,217.80302985625,218.9688225,68.0,91.0
805,217.793673575,218.98379255,61.0,91.0
806,219.8557979625,223.68251699375,56.0,91.0
807,219.500259275,223.6881307625,44.0,91.0
808,220.5668753375,223.69374453125,68.0,91.0
809,220.316127,223.7031008125,63.0,91.0
810,220.11403132499998,223.7405259375,60.0,91.0
811,224.92503114375,224.97181255,65.0,91.0
812,224.4441182875,225.0504053125,56.0,91.0
813,225.10467174375,225.34793505625,65.0,91.0
814,224.90631858125,225.35167756875,61.0,91.0
815,225.3872314375,225.8513029875,56.0,91.0
816,225.817620375,226.371512225,68.0,91.0
817,225.8662730375,226.3752547375,65.0,91.0
818,226.27982066875,226.81125744375,56.0,91.0
819,224.0099868375,227.2622302,49.0,91.0
820,226.75324849999998,227.3033978375,65.0,91.0
821,226.7495059875,227.479295925,68.0,91.0
822,226.7420209625,227.5054935125,61.0,91.0
823,227.194864975,227.6027988375,56.0,91.0
824,228.093067975,228.63011851875,56.0,91.0
825,228.5496545,229.0698637375,60.0,91.0
826,228.54404073125,229.09419006875,68.0,91.0
827,228.542169475,229.10916011875,63.0,91.0
828,228.98191469375,229.425402425,56.0,91.0
829,229.4216599125,229.86514764375,68.0,91.0
830,229.43288745,229.88760271875,60.0,91.0
831,229.42727368125,229.9081865375,63.0,91.0
832,229.85204885,230.36664431875,56.0,91.0
833,230.31424914375,230.817617075,68.0,91.0
834,230.31799165625,230.84194340625,60.0,91.0
835,230.31050663125,230.84568591875,63.0,91.0
836,227.66642155,230.862527225,44.0,91.0
837,230.75212310625,231.1057905375,56.0,91.0
838,231.64845485,232.17802036875,56.0,91.0
839,232.06948750625,232.5616279,65.0,91.0
840,232.05451745624998,232.5616279,68.0,91.0
841,232.05825996875,232.591568,61.0,91.0
842,232.5616279,233.04241960208333,56.0,91.0
843,233.01339482083333,233.53401153958333,65.0,91.0
844,232.99791493749998,233.53986177083334,61.0,91.0
845,233.00371989375,233.5710630041667,68.0,91.0
846,233.52816130833335,234.05663219791668,56.0,91.0
847,233.95912834375,234.456398,65.0,91.0
848,231.19373958125,234.54220139166668,49.0,91.0
849,233.95327811250002,234.55390185416667,61.0,91.0
850,233.94937795833334,234.57925285625,68.0,91.0
851,234.432997075,234.69430740416666,56.0,91.0
852,235.6147437875,236.1061632125,60.0,91.0
853,235.87410403958333,236.22901806875,63.0,91.0
854,236.14321467708334,236.40647508333333,68.0,91.0
855,236.54688063333333,237.31131085,72.0,91.0
856,236.93689605,237.63502364583334,75.0,91.0
857,235.32613237916667,237.66232472500002,56.0,91.0
858,234.89906549791667,237.70327634375002,44.0,91.0
859,237.3464122375,237.81053058333333,80.0,91.0
860,238.4228547875,239.37644248125,63.0,91.0
861,239.65530350416668,239.8737121375,61.0,91.0
862,239.75670751250001,239.89126283125,63.0,91.0
863,239.86396175208336,240.6927445125,65.0,91.0
864,241.28361786875,241.90764253541667,61.0,91.0
865,241.62683143541668,241.95444438541668,65.0,91.0
866,241.91739292083335,242.10655039791666,68.0,91.0
867,242.58236920625,243.04648755208333,75.0,91.0
868,243.06208816875,245.74734431250002,73.0,91.0
869,243.64906137083335,245.8506983979167,80.0,87.0
870,240.41388348958336,245.99110394791668,49.0,91.0
871,240.82924990833334,245.99110394791668,56.0,91.0
