,start,end,pitch,velocity
0,56.57109021666666,56.882565449999994,68.0,90.0
1,56.939942466666665,57.25039311041667,68.0,85.0
2,57.30879471666666,57.56289293333333,68.0,80.0
3,57.55469621666666,57.85285178541666,71.0,96.0
4,57.92354846666667,58.91883215,71.0,97.0
5,58.80378821666667,59.23962773333333,66.0,84.0
6,59.334760216666666,59.6024586,66.0,83.0
7,59.60024621666666,59.94095325,71.0,86.0
8,59.99847521666666,60.738789243750006,71.0,93.0
9,60.68167721666667,61.14611653125,64.0,92.0
10,61.19891821666667,61.43059908125,64.0,86.0
11,61.45753871666667,61.729930414583336,61.0,64.0
12,61.71615921666667,61.968278070833335,64.0,72.0
13,61.97039671666667,62.475693747916665,71.0,85.0
14,62.47887171666667,64.50147778125,68.0,95.0
15,64.50046971666667,64.75337011250001,59.0,68.0
16,64.74240521666667,64.99240484166667,61.0,65.0
17,65.00556271666667,65.48143919583333,61.0,61.0
18,65.53187771666667,66.0428418625,64.0,66.0
19,66.05819271666667,66.273104675,64.0,74.0
20,66.32135021666667,66.61740240416667,64.0,69.0
21,66.58450771666666,66.87946341458334,61.0,51.0
22,66.84766521666667,67.07902451875,59.0,54.0
23,67.11082271666668,67.58998866458333,59.0,66.0
24,67.63713771666667,67.90797064375,59.0,66.0
25,67.90029521666666,68.18428601875,68.0,75.0
26,68.16345271666667,68.88165339375,64.0,84.0
27,68.95292521666667,69.81805549791667,66.0,95.0
28,69.74239771666667,70.01103766458334,64.0,69.0
29,70.00555521666666,70.536256175,61.0,84.0
30,70.53187021666668,70.80051016458333,68.0,90.0
31,70.79502771666667,73.61519018333334,66.0,85.0
32,73.63320821666667,73.88105286250001,68.0,48.0
33,73.89182871666668,74.17738885208334,68.0,57.0
34,74.15044921666667,74.42631108333335,71.0,66.0
35,74.40906971666668,74.90152625208334,73.0,66.0
36,74.92631071666668,75.22306684166666,68.0,47.0
37,75.18493121666667,75.37560934166667,66.0,47.0
38,75.43916871666667,75.67539772708334,66.0,66.0
39,75.69340621666667,75.91904199791666,66.0,65.0
40,75.94764371666668,76.21247444583334,66.0,63.0
41,76.20188121666666,76.4328136125,71.0,58.0
42,76.45611871666667,76.71353418541666,71.0,60.0
43,76.71035621666667,76.71353418541666,71.0,64.0
44,76.96459371666667,77.2845092375,71.0,62.0
45,77.21883121666667,77.91056908125,64.0,57.0
46,77.98154371666666,78.47942548750001,64.0,87.0
47,78.49001871666667,78.73895960208334,61.0,64.0
48,78.74425621666667,79.01650220625001,71.0,74.0
49,78.99849371666667,81.14647736666667,68.0,84.0
50,81.13984021666667,81.40311383333334,59.0,58.0
51,81.40532621666668,81.63413996666668,61.0,69.0
52,81.65956371666668,82.07587762291668,61.0,66.0
53,82.16803871666669,82.45511522708334,61.0,66.0
54,82.42227621666667,82.68498830000001,64.0,79.0
55,82.67651371666668,83.15956496666668,66.0,64.0
56,83.18498871666668,83.45107965625002,61.0,72.0
57,83.43922621666668,83.79913974583334,59.0,56.0
58,83.82715696666668,84.16551878750002,59.0,64.0
59,84.21508771666669,84.49525992500001,59.0,64.0
60,84.47370821666668,84.78836315833335,68.0,62.0
61,84.73232871666669,85.22909559375002,64.0,68.0
62,85.24956971666668,85.54327788333335,59.0,57.0
63,85.50819021666668,85.99722457083334,66.0,84.0
64,86.03450521666667,86.80533739375001,66.0,87.0
65,86.82397771666668,87.31520505,66.0,85.0
66,87.35029271666667,87.91717783125002,63.0,77.0
67,87.87660771666668,91.74530082291668,64.0,97.0
68,91.73551821666668,92.09312682291667,68.0,48.0
69,92.12682246666668,92.46921368541668,68.0,65.0
70,92.51812671666667,92.81260968333333,68.0,63.0
71,92.77899621666667,93.1109292,71.0,80.0
72,93.03109721666667,93.47962691250001,73.0,59.0
73,93.53529921666667,94.07942586458333,71.0,55.0
74,94.04602071666667,94.50938244583334,66.0,64.0
75,94.56326171666667,94.83723307083334,66.0,68.0
76,94.82188221666667,95.0696888625,71.0,77.0
77,95.08503971666667,95.80104741458334,71.0,72.0
78,95.87451221666666,96.4105296125,64.0,87.0
79,96.38298721666666,96.4105296125,64.0,81.0
80,96.63722471666667,96.92641987291665,61.0,66.0
81,96.89146221666665,97.1541743,64.0,63.0
82,97.14569971666666,97.63616622708332,71.0,77.0
83,97.65417471666666,99.77070190416666,68.0,69.0
84,99.81519346666666,100.0716979875,59.0,55.0
85,99.94231221666666,100.27016260208333,61.0,61.0
86,100.33704846666666,100.68244268541666,61.0,69.0
87,100.73178471666667,100.98836327916666,61.0,66.0
88,100.99494221666666,101.33653679374999,64.0,65.0
89,101.25356271666666,101.82576057291666,66.0,74.0
90,101.77080371666666,102.04774316874999,61.0,62.0
91,102.02942421666665,102.37101879375,59.0,61.0
92,102.41735496666666,102.76757022708333,59.0,56.0
93,102.80528571666666,103.12640617083332,59.0,64.0
94,103.06390621666665,103.39256976875,68.0,64.0
95,103.45183696666666,103.85054357083332,68.0,66.0
96,103.83976771666666,104.11886233958333,64.0,72.0
97,104.09838821666666,104.45183623333332,66.0,83.0
98,104.48631896666666,104.90765486458332,66.0,71.0
99,104.87424971666665,105.15011158333333,64.0,59.0
100,105.13287021666666,105.35593039791665,61.0,59.0
101,105.39149071666665,105.91842998541665,68.0,62.0
102,105.90873171666667,108.75894514375,66.0,65.0
103,108.75355721666666,108.98954842291666,68.0,66.0
104,109.01217771666666,109.2858844125,68.0,77.0
105,109.27079821666666,109.52618596041665,71.0,92.0
106,109.52941871666665,110.04234937499999,71.0,93.0
107,110.04665971666665,110.28803884999999,68.0,75.0
108,110.30528021666666,110.56390071666667,66.0,66.0
109,110.56390071666667,110.79234882499999,66.0,64.0
110,110.82252121666666,111.0703658625,66.0,66.0
111,111.08114171666666,111.34083980208332,66.0,63.0
112,111.33976221666666,111.5876068625,71.0,87.0
113,111.85700321666666,112.08760649583333,71.0,90.0
114,112.11562371666666,112.36239077708332,71.0,82.0
115,112.37424421666665,112.62316644791666,64.0,79.0
116,112.63286471666666,112.85808006874998,64.0,84.0
117,112.89148521666667,113.13717469166666,64.0,85.0
118,113.15010571666666,113.42488999791667,61.0,76.0
119,113.40872621666665,113.65549327708332,64.0,87.0
120,113.66734671666666,114.21260493749999,71.0,87.0
121,114.18458771666666,116.49169809374999,68.0,83.0
122,116.51217221666666,116.87100816041666,61.0,91.0
123,116.90010296666665,117.25355098333333,61.0,90.0
124,117.28803371666666,117.55958524166667,61.0,84.0
125,117.54665421666667,117.87531776875,64.0,79.0
126,117.93458496666666,118.65764478124999,64.0,76.0
127,118.58113621666666,118.93566181874999,59.0,89.0
128,118.96906696666666,119.29449776249999,59.0,86.0
129,119.35699771666665,119.6177733875,59.0,75.0
130,119.61561821666666,119.98307484374999,64.0,75.0
131,120.00354896666666,120.64794504583332,64.0,78.0
132,120.65010021666666,121.17272914374999,68.0,75.0
133,121.16734121666666,122.0035475,66.0,72.0
134,121.94320271666666,122.17703875208332,61.0,82.0
135,122.20182321666665,122.55096089166666,64.0,77.0
136,122.58975396666666,126.89686287708332,64.0,89.0
137,126.85699221666665,127.88285353333333,61.0,74.0
138,127.89147421666667,128.43242209583332,64.0,89.0
139,128.40871521666665,128.65763744791667,71.0,90.0
140,128.66733571666666,130.71582559375,68.0,97.0
141,130.73629971666665,131.01754951041667,59.0,60.0
142,130.99492021666666,131.2686269125,61.0,66.0
143,131.25354071666666,131.49491985,64.0,65.0
144,131.51216121666667,131.75138517916665,64.0,71.0
145,131.77078171666665,131.98522121458333,64.0,66.0
146,132.02940221666665,132.30095374166666,64.0,71.0
147,132.28802271666666,132.55634148541665,61.0,58.0
148,132.54664321666667,132.80203096041666,59.0,57.0
149,132.80526371666667,133.34975371041665,71.0,61.0
150,133.32475371666666,135.14323152291666,68.0,82.0
151,135.15084021666664,136.10342572499997,61.0,85.0
152,136.18532221666663,136.74027870624997,64.0,91.0
153,136.70256321666665,136.96657164374997,71.0,85.0
154,136.96118371666662,139.01937186249998,68.0,95.0
155,139.03014771666665,139.3124750958333,59.0,72.0
156,139.28876821666663,139.53445769166663,61.0,79.0
157,139.54738871666663,139.7973885333333,64.0,66.0
158,139.80600921666664,140.0107504458333,64.0,85.0
159,140.06462971666664,140.25428474999998,64.0,90.0
160,140.32325021666665,142.10342132499997,64.0,97.0
161,142.13359371666664,142.36635216666664,64.0,79.0
162,142.39221421666664,142.64005886249998,64.0,96.0
163,142.65083471666665,142.91807589999996,61.0,84.0
164,142.90945521666663,143.15729986249997,68.0,87.0
165,143.16807571666664,147.5980293645833,66.0,93.0
166,147.56462421666663,148.33402020416665,76.0,103.0
167,148.34048571666665,148.80276986041665,71.0,98.0
168,148.85772671666663,149.34479532499998,71.0,98.0
169,149.37496771666665,149.65945026666662,71.0,97.0
170,149.63358821666662,150.3911307645833,73.0,103.0
171,150.40944971666664,151.16160433749997,71.0,98.0
172,151.18531121666663,151.39113003125,71.0,98.0
173,151.44393171666664,151.72518151041663,71.0,97.0
174,151.70255221666665,152.2047070208333,64.0,94.0
175,152.21979321666663,152.45901717916664,64.0,87.0
176,152.47841371666664,152.74026697291663,61.0,90.0
177,152.73703421666664,152.99457713124997,64.0,84.0
178,152.99565471666665,153.51828364374998,71.0,89.0
179,153.51289571666663,156.5980227645833,68.0,97.0
180,156.61634171666662,156.8792725583333,59.0,98.0
181,156.87496221666663,157.1314275458333,76.0,97.0
182,157.13358271666664,157.65944439999998,71.0,87.0
183,157.65082371666665,158.1723750583333,73.0,86.0
184,158.16806471666663,158.63358161666665,71.0,97.0
185,158.68530571666665,159.4008224333333,71.0,97.0
186,159.46116721666664,159.68099464166664,71.0,81.0
187,159.71978771666664,160.00965819374997,71.0,90.0
188,159.97840821666665,160.46655441041665,61.0,84.0
189,160.49564921666664,161.00211436249998,64.0,77.0
190,161.01289021666665,161.31245896249996,64.0,81.0
191,161.27151071666663,161.79737239999997,66.0,97.0
192,161.78875171666664,164.12172414375,64.0,94.0
193,164.11633621666664,165.11741306874998,61.0,83.0
194,165.15081821666664,165.67667989999998,64.0,90.0
195,165.66805921666665,165.9245245458333,71.0,90.0
196,165.92667971666663,167.73594563124996,68.0,99.0
197,167.73702321666664,167.94068686041663,59.0,64.0
198,167.99564371666665,168.24995387499996,59.0,66.0
199,168.25426421666663,168.50857437499997,61.0,65.0
200,168.51288471666663,168.7564190208333,64.0,62.0
201,168.77150521666664,169.01072917916665,64.0,73.0
202,169.03012571666665,169.30814275416662,61.0,63.0
203,169.28874621666665,169.54413396041664,59.0,64.0
204,169.54736671666663,170.04521117916664,71.0,77.0
205,170.06460771666664,172.45361458541663,68.0,90.0
206,172.39219221666664,173.37495011666664,61.0,90.0
207,173.42667421666664,173.96977726666665,64.0,93.0
208,173.94391521666665,174.39326833541662,71.0,91.0
209,174.46115621666664,176.32214623124997,68.0,84.0
210,176.27149971666665,176.52365470416663,59.0,90.0
211,176.53012021666663,176.7736545208333,61.0,87.0
212,176.78874071666664,177.03011984999998,64.0,81.0
213,177.04736121666664,177.26611105624997,64.0,93.0
214,177.30598171666662,177.5301194833333,64.0,92.0
215,177.56460221666663,177.8081365208333,64.0,90.0
216,177.82322271666663,178.04412772708332,64.0,90.0
217,178.08184321666664,179.60770416666662,64.0,99.0
218,179.63356621666662,179.8609367395833,64.0,87.0
219,179.89218671666663,180.17990202291662,61.0,64.0
220,180.15080721666664,180.41804839999998,68.0,90.0
221,180.40942771666664,186.79412131041664,66.0,97.0
222,217.93741743749996,218.24776203749997,68.0,77.0
223,218.29733096666664,218.7477616708333,68.0,87.0
224,218.81457196666662,219.21435615624998,71.0,99.0
225,219.33181296666663,219.69064891041666,71.0,96.0
226,219.71974371666664,219.9891400708333,68.0,83.0
227,219.97836421666665,220.33935533124998,66.0,92.0
228,220.36629496666666,220.78332052291665,66.0,84.0
229,220.75422571666664,221.25422534999996,71.0,93.0
230,221.27146671666662,222.00745755624996,71.0,95.0
231,222.04732821666664,222.5236209708333,64.0,93.0
232,222.56456921666665,222.82534488749997,64.0,91.0
233,222.82318971666666,223.10982743749997,61.0,71.0
234,223.08181021666664,223.3382755458333,64.0,81.0
235,223.34043071666665,223.8727579125,71.0,90.0
236,223.85767171666663,226.15292865416666,68.0,99.0
237,226.18525621666663,226.5128421833333,61.0,79.0
238,226.57318696666664,226.92771256874997,61.0,82.0
239,226.96111771666665,227.24991060833332,61.0,81.0
240,227.21973821666666,227.54624659791665,64.0,90.0
241,227.47835871666666,227.93848768958333,66.0,96.0
242,227.99559971666665,228.2552978020833,61.0,65.0
243,228.25422021666662,228.46758212916666,59.0,74.0
244,228.51284071666663,229.02577137499998,59.0,66.0
245,229.03008171666664,229.48266759166665,68.0,90.0
246,229.54732271666666,229.80809838749997,68.0,89.0
247,229.80594321666663,230.08072749791666,66.0,93.0
248,230.06456371666664,230.37167556041663,64.0,82.0
249,230.32318421666665,230.80163214166663,66.0,98.0
250,230.84042521666663,231.17555428124996,66.0,91.0
251,231.09904571666664,231.35443346041666,64.0,52.0
252,231.35766621666664,231.66154530416662,61.0,64.0
253,231.61628671666665,232.15938976666664,68.0,84.0
254,232.13352771666663,234.51930182916664,66.0,99.0
255,234.46111221666663,234.76822406041663,68.0,97.0
256,234.84904296666664,235.1669306645833,68.0,91.0
257,235.23697371666663,235.52037868124998,68.0,93.0
258,235.49559421666663,235.8167146708333,71.0,99.0
259,235.88352496666664,236.57102446249996,71.0,99.0
260,236.53007621666666,237.00205862916664,66.0,98.0
261,237.04731721666664,237.32964459583332,66.0,97.0
262,237.30593771666665,237.79623908124998,71.0,101.0
263,237.82317871666663,238.57748850833332,71.0,108.0
264,238.59904021666665,239.06778987291665,64.0,100.0
265,239.11628121666664,239.34903966666664,64.0,98.0
266,239.37490171666664,239.67016012083332,61.0,77.0
267,239.63352221666665,239.86628066666663,64.0,90.0
268,239.89214271666663,240.40615096041665,71.0,87.0
269,240.40938371666664,242.48696839999997,68.0,106.0
270,242.47834771666663,242.7542095833333,59.0,64.0
271,242.73696821666664,243.06563176875,61.0,77.0
272,243.12489896666665,243.45248493333332,61.0,76.0
273,243.51282971666666,243.78653641249997,61.0,71.0
274,243.77145021666664,244.09795859791666,64.0,94.0
275,244.15938096666665,244.55916515624997,64.0,90.0
276,244.54731171666663,244.81455289999997,61.0,85.0
277,244.80593221666663,245.2919232395833,59.0,67.0
278,245.32317321666665,245.6281298895833,59.0,64.0
279,245.58179371666665,246.08502610624998,68.0,84.0
280,246.09903471666664,246.83287038541664,64.0,89.0
281,246.87489621666663,247.34041311666664,66.0,103.0
282,247.39213721666664,247.67015425416665,66.0,96.0
283,247.65075771666665,247.92230924166665,64.0,85.0
284,247.90937821666665,248.1917055958333,61.0,80.0
285,248.16799871666666,248.56778290625,64.0,87.0
286,248.68523971666664,251.04191902291666,64.0,92.0
287,251.01282421666664,252.0289872645833,61.0,97.0
288,252.04730621666664,252.53545241041664,64.0,101.0
289,252.56454721666665,253.06131409374996,71.0,97.0
290,253.08178821666664,254.93415754791664,68.0,109.0
291,254.89213171666665,255.1593729,59.0,62.0
292,255.15075221666666,255.4072175458333,61.0,65.0
293,255.40937271666664,255.6011829208333,64.0,67.0
294,255.66799321666664,255.9470878395833,64.0,63.0
295,255.92661371666662,256.2143290229167,61.0,59.0
296,256.18523421666663,256.42661334999997,59.0,58.0
297,256.44385471666664,256.95355261875,71.0,61.0
298,256.96109571666665,259.31130951041666,68.0,91.0
299,259.28868021666665,260.2983777520833,61.0,95.0
300,260.3231622166667,260.85010148541664,64.0,97.0
301,260.84040321666663,261.36303214375,71.0,97.0
302,261.35764421666664,262.89535860624994,68.0,105.0
303,262.9093672166666,263.1076429333333,59.0,72.0
304,263.16798771666663,263.4147547770833,59.0,76.0
305,263.42660821666664,263.67229769166664,61.0,86.0
306,263.68522871666664,263.90828889791663,64.0,93.0
307,263.94384921666665,264.18846110625,64.0,94.0
308,264.20246971666666,264.43415058125,64.0,95.0
309,264.46109021666666,265.98479599583334,64.0,98.0
310,266.01281321666664,266.2391061541666,64.0,96.0
311,266.27143371666665,266.5246662895833,64.0,90.0
312,266.53005421666666,266.7768212770833,64.0,84.0
313,266.7886747166666,267.0645365833333,61.0,73.0
314,267.0472952166666,267.31022605833334,68.0,93.0
315,267.3059157166666,271.6992314604166,66.0,93.0
316,271.7024642166666,272.4826360583333,76.0,95.0
317,272.47832571666663,272.9869460333333,71.0,99.0
318,272.99556671666664,273.50310944791664,71.0,81.0
319,273.51280771666666,273.80375577916664,71.0,79.0
320,273.77142821666666,274.5375914479166,73.0,92.0
321,274.5472897166667,275.0526772770833,71.0,84.0
322,275.06453071666664,275.318840875,71.0,89.0
323,275.32315121666664,275.56560793541666,71.0,87.0
324,275.58177171666665,275.8447025583333,71.0,93.0
325,275.8403922166666,276.2746591395833,64.0,87.0
326,276.3576332166666,276.586081325,64.0,79.0
327,276.6162537166666,276.8727190458333,61.0,76.0
328,276.8748742166666,277.14211539999997,64.0,79.0
329,277.13349471666663,277.67336501041666,71.0,75.0
330,277.65073571666665,280.74663861875,68.0,97.0
331,280.7541817166666,281.0666814875,59.0,54.0
332,281.0128022166666,281.26818996041663,76.0,90.0
333,281.2714227166666,281.7735775208333,71.0,79.0
334,281.78866371666663,282.3263788395833,73.0,84.0
335,282.30590471666665,282.7918957395833,71.0,72.0
336,282.82314571666666,283.07422311874996,71.0,94.0
337,283.08176621666667,283.3188350083333,71.0,90.0
338,283.34038671666667,283.5515934583333,71.0,87.0
339,283.5990072166667,283.8468518625,71.0,90.0
340,283.8576277166667,284.1464206083333,71.0,90.0
341,284.11624821666663,284.59792889791663,61.0,87.0
342,284.63348921666665,285.08823026249996,64.0,84.0
343,285.1507302166666,285.43629035208335,64.0,85.0
344,285.4093507166666,285.9212037895833,66.0,90.0
345,285.9265917166666,288.3705554416666,64.0,90.0
346,288.3834864666667,289.31559785208333,61.0,77.0
347,289.28865821666665,289.8199078270833,64.0,86.0
348,289.8058992166666,290.0817610833333,71.0,87.0
349,290.0645197166666,292.38456111874996,68.0,91.0
350,292.39210421666667,293.4341293145833,61.0,84.0
351,293.42658621666664,293.9373617041666,64.0,96.0
352,293.94382721666665,294.35007691875,71.0,95.0
353,294.33175796666666,295.67658456666663,68.0,90.0
354,295.62486046666663,295.87701545416667,66.0,94.0
355,295.75417071666664,296.05373946249995,68.0,74.0
356,296.01279121666664,296.25093759375,66.0,77.0
357,296.27141171666665,296.55481668125,64.0,67.0
358,296.53003221666665,297.5515831916666,61.0,81.0
359,297.5645142166667,297.87378123124995,64.0,97.0
360,297.82313471666663,298.31666883749995,71.0,84.0
361,298.34037571666664,300.69058951041666,68.0,90.0
362,300.66796021666664,301.67550258125,61.0,91.0
363,301.70244221666667,302.23907975416665,64.0,98.0
364,302.2196832166667,302.50416576666663,71.0,87.0
365,302.47830371666663,303.72830279999994,68.0,86.0
366,303.7714062166666,304.04295774166667,66.0,79.0
367,304.0300267166666,304.3425264875,68.0,75.0
368,304.2886472166666,304.5160177395833,66.0,65.0
369,304.5472677166666,304.8328278520833,64.0,66.0
370,304.80588821666663,305.82851677708334,61.0,73.0
371,305.84037021666666,306.34575777708335,64.0,68.0
372,306.35761121666667,306.6291627416666,71.0,83.0
373,306.6162317166667,308.92657484999995,68.0,66.0
374,308.9438162166666,309.9923068270833,61.0,66.0
375,309.97829821666664,310.5407978041667,64.0,64.0
376,310.49553921666666,310.79510796249997,71.0,64.0
377,310.75415971666666,312.04618463124996,68.0,61.0
378,312.04726221666664,312.29295169166664,66.0,56.0
379,312.30588271666664,312.6237704145833,68.0,55.0
380,312.56450321666665,312.80264959374995,66.0,51.0
381,312.82312371666666,313.0914424854167,64.0,50.0
382,313.0817442166666,314.13777792499997,61.0,61.0
383,314.11622621666663,314.66040685208327,64.0,52.0
384,314.63346721666665,314.8834670333333,71.0,61.0
385,314.89208771666665,317.22074980208333,68.0,43.0
