,start,end,pitch,velocity
0,6.90516735,7.259692952083333,64.0,59.0
1,7.16378785,7.4471928145833335,68.0,69.0
2,7.42240835,7.751071902083334,71.0,71.0
3,7.681028850000001,7.931028666666667,68.0,69.0
4,7.939649350000001,8.406243835416667,64.0,52.0
5,8.19826985,8.509692035416666,68.0,62.0
6,8.715510850000001,8.98382961875,68.0,62.0
7,8.45689035,9.099131258333333,71.0,69.0
8,8.97413135,9.33296729375,64.0,46.0
9,9.23275185,9.508613716666668,68.0,58.0
10,9.49137235,9.796329022916668,71.0,71.0
11,9.74999285,9.995682325,68.0,68.0
12,10.008613350000001,10.411630295833334,64.0,51.0
13,10.26723385,10.53555261875,68.0,68.0
14,6.90516735,10.673483552083333,52.0,70.0
15,10.525854350000001,10.780164508333334,71.0,73.0
16,10.78447485,11.029086739583335,68.0,68.0
17,11.30171585,11.591586327083334,66.0,57.0
18,11.04309535,11.664862135416667,63.0,52.0
19,11.56033635,12.049560129166666,71.0,71.0
20,11.818956850000001,12.062491154166667,66.0,55.0
21,12.336197850000001,12.674559670833334,66.0,58.0
22,12.07757735,12.70149930625,63.0,47.0
23,12.85343885,13.10882659375,66.0,60.0
24,12.59481835,13.31895575,71.0,75.0
25,13.112059350000001,13.721972695833333,63.0,54.0
26,13.37067985,13.738136477083334,66.0,55.0
27,13.88792085,14.142231008333335,66.0,63.0
28,13.629300350000001,14.296325722916666,71.0,60.0
29,14.14654135,14.45365319375,63.0,46.0
30,11.04309535,14.59589446875,51.0,72.0
31,14.40516185,14.637920300000001,66.0,61.0
32,14.66378235,15.0193855375,71.0,78.0
33,14.922402850000001,15.165937154166667,66.0,62.0
34,15.439643850000001,15.788781525000001,68.0,69.0
35,15.18102335,15.796324622916668,61.0,54.0
36,15.95688485,16.292013914583332,68.0,62.0
37,15.69826435,16.433177604166666,73.0,75.0
38,16.47412585,16.815720427083335,68.0,60.0
39,16.21550535,17.038780608333333,61.0,49.0
40,16.991366850000002,17.235978739583334,68.0,69.0
41,16.73274635,17.476483291666668,73.0,74.0
42,17.24998735,17.853620402083333,61.0,53.0
43,17.506397850000003,17.858962287500002,68.0,59.0
44,17.76280835,18.083321475,73.0,72.0
45,18.01921885,18.25319343125,68.0,61.0
46,18.275629350000003,18.645287820833335,61.0,56.0
47,18.53203985,18.784176841666667,68.0,58.0
48,18.78845035,19.044860850000003,73.0,71.0
49,19.044860850000003,19.313023497916667,68.0,63.0
50,15.18102335,19.330117531250004,49.0,77.0
51,19.55768185,19.848280416666668,66.0,55.0
52,19.30127135,20.129263589583335,59.0,45.0
53,19.814092350000003,20.160246525,71.0,63.0
54,20.07050285,20.316229579166666,66.0,59.0
55,20.583323850000003,20.928409647916666,66.0,39.0
56,20.32691335,20.956187452083334,59.0,52.0
57,20.83973435,21.20725606666667,71.0,58.0
58,21.09614485,21.317298906250002,66.0,57.0
59,21.61342485,21.915598687500005,66.0,53.0
60,21.352555350000003,21.940598681250002,59.0,49.0
61,21.874294350000003,22.249294256250003,71.0,57.0
62,22.13516385,22.338424668750005,66.0,54.0
63,22.396033350000003,22.702555012500003,59.0,51.0
64,22.65690285,22.913424525000003,66.0,59.0
65,22.917772350000003,23.202554887500003,71.0,74.0
66,23.17864185,23.289511387500003,66.0,63.0
67,19.30127135,23.291685300000005,47.0,75.0
68,23.439511350000004,23.79403695208334,64.0,59.0
69,23.698131850000003,23.981536814583336,68.0,69.0
70,23.956752350000002,24.285415902083336,71.0,71.0
71,24.215372850000005,24.46537266666667,68.0,69.0
72,24.473993350000004,24.94058783541667,64.0,52.0
73,24.732613850000003,25.04403603541667,68.0,62.0
74,25.249854850000006,25.518173618750005,68.0,62.0
75,24.991234350000003,25.633475258333338,71.0,69.0
76,25.508475350000005,25.867311293750003,64.0,46.0
77,25.767095850000004,26.043260183333338,68.0,58.0
78,26.025716350000003,26.336022902083336,71.0,71.0
79,26.28887385,26.538873475000003,68.0,68.0
80,26.552031350000004,26.96211845416667,64.0,51.0
81,26.815188850000002,27.088390987500002,68.0,68.0
82,23.439511350000004,27.23124805416667,52.0,70.0
83,27.078346350000004,27.34173906666667,71.0,73.0
84,27.346203350000003,27.59955142916667,68.0,68.0
85,27.879546350000002,28.16344554791667,66.0,57.0
86,27.614060350000003,28.238006839583335,63.0,52.0
87,28.13164735,28.629453620833335,71.0,71.0
88,28.39480485,28.642611495833336,66.0,55.0
89,28.91006335,29.23989549166667,66.0,58.0
90,28.657962350000002,29.2661560125,63.0,47.0
91,29.41426535,29.663215087500003,66.0,60.0
92,29.16216435,29.868047150000002,71.0,75.0
93,29.66636635,30.26090454166667,63.0,54.0
94,29.91846735,30.276660854166668,66.0,55.0
95,30.422669350000003,30.670568666666668,66.0,63.0
96,30.170568350000003,30.82201623541667,71.0,60.0
97,30.674770350000003,30.976677381250003,63.0,46.0
98,27.614060350000003,31.116508006250005,51.0,72.0
99,30.92900785,31.157821600000002,66.0,61.0
100,31.183245350000004,31.554867287500002,71.0,78.0
101,31.453515850000002,31.708020570833337,66.0,62.0
102,31.984655850000003,32.335269025,68.0,69.0
103,31.723786350000005,32.342747664583335,61.0,54.0
104,32.50193585,32.83420112291667,68.0,62.0
105,32.24552535,32.974158520833335,73.0,75.0
106,33.01475685,33.35343238541667,68.0,60.0
107,32.758346350000004,33.57458644166667,61.0,49.0
108,33.52757785,33.77009944791667,68.0,69.0
109,33.27116735,34.01048429166667,73.0,74.0
110,33.78398835,34.39083564166667,61.0,53.0
111,34.04039885,34.3963666,68.0,59.0
112,34.296809350000004,34.62866685,73.0,72.0
113,34.56229535000001,34.804551325000006,68.0,61.0
114,34.82778135,35.21052366666667,61.0,56.0
115,35.093267350000005,35.354328583333334,68.0,58.0
116,35.35875335,35.62423935,73.0,71.0
117,35.62423935,35.90157878958334,68.0,63.0
118,31.723786350000005,35.91882015625001,49.0,77.0
119,36.148345850000005,36.44144908333334,66.0,55.0
120,35.889725350000006,36.72485404791667,59.0,45.0
121,36.406966350000005,36.756104025000006,71.0,63.0
122,36.665586850000004,36.913431495833336,66.0,59.0
123,37.18282785000001,37.52790668333334,66.0,39.0
124,36.92420735,37.55499001666668,59.0,52.0
125,37.44144835000001,37.79978168333334,71.0,58.0
126,37.69144835000001,37.90707335000001,66.0,57.0
127,38.185350850000006,38.46950762083334,66.0,53.0
128,37.94144835000001,38.493872047916675,59.0,49.0
129,38.42925335000001,38.79471975625001,71.0,57.0
130,38.68349085000001,38.881584235416675,66.0,54.0
131,38.93772835000001,39.23645741250001,59.0,51.0
132,39.19196585000001,39.44196605833334,66.0,59.0
133,39.44620335000001,39.73861390833334,71.0,74.0
134,39.71406035000001,39.82789957500001,66.0,63.0
135,35.889725350000006,39.83013171666668,47.0,75.0
136,39.98191735000001,40.34910465416668,64.0,59.0
137,40.24977435000001,40.54285061041668,68.0,69.0
138,40.51763135000001,40.85206067291668,71.0,71.0
139,40.78078885000001,41.035174433333346,68.0,69.0
140,41.043946350000006,41.518726339583345,64.0,52.0
141,41.30710385000001,41.620881208333344,68.0,62.0
142,41.81819535000001,42.07542687500001,68.0,62.0
143,41.57026135000001,42.185964116666675,71.0,69.0
144,42.06612935000001,42.41013777500001,64.0,46.0
145,42.31406335000001,42.57954118333335,68.0,58.0
146,42.56199735000001,42.872303902083345,71.0,71.0
147,42.82515485000001,43.07515447500001,68.0,68.0
148,43.08831235000001,43.51331192500001,64.0,51.0
149,43.36103935000001,43.64381098750001,68.0,68.0
150,39.98191735000001,43.786668054166675,52.0,70.0
151,43.63376635000001,43.897159066666674,71.0,73.0
152,43.90162335000001,44.15497142916668,68.0,68.0
153,44.42158135000001,44.704144554166675,66.0,57.0
154,44.16948035000001,44.77557317083334,63.0,52.0
155,44.67368235000001,45.150573408333344,71.0,71.0
156,44.92578335000001,45.16317845833334,66.0,55.0
157,45.42998535000001,45.76182767083334,66.0,58.0
158,45.17788435000001,45.78876730625001,63.0,47.0
159,45.940706850000005,46.196094593750004,66.0,60.0
160,45.682086350000006,46.40622375000001,71.0,75.0
161,46.199327350000004,46.80924069583334,63.0,54.0
162,46.457947850000004,46.82540447708334,66.0,55.0
163,46.97518885000001,47.22949900833334,66.0,63.0
164,46.71656835,47.38622140208334,71.0,60.0
165,47.23380935000001,47.546308881250006,63.0,46.0
166,44.16948035000001,47.691045506250006,51.0,72.0
167,47.49696685000001,47.73380860000001,66.0,61.0
168,47.760124350000005,48.12196591250001,71.0,78.0
169,48.02328185000001,48.27108849583334,66.0,62.0
170,48.54959685000001,48.90485947500001,68.0,69.0
171,48.28643935000001,48.912534902083344,61.0,54.0
172,49.07591185000001,49.41364922916668,68.0,62.0
173,48.812754350000006,49.551254358333345,73.0,75.0
174,49.59117035000001,49.924153754166674,68.0,60.0
175,49.33906935000001,50.141590866666675,61.0,49.0
176,50.09537235000001,50.33381787916667,68.0,69.0
177,49.84327135000001,50.56830668333334,73.0,74.0
178,50.34747335000001,50.944064162500005,61.0,53.0
179,50.59747335000001,50.949745975000006,68.0,59.0
180,50.84747335000001,51.188382100000005,73.0,72.0
181,51.12020035000001,51.36906373750001,68.0,61.0
182,51.39292735000001,51.76901421250001,61.0,56.0
183,51.653796850000006,51.91031852500001,68.0,58.0
184,51.914666350000005,52.18015235000001,73.0,71.0
185,52.18015235000001,52.45780645833334,68.0,63.0
186,48.28643935000001,52.475505525,49.0,77.0
187,52.711124350000006,53.01200848333334,66.0,55.0
188,52.44563835,53.30293689166667,59.0,45.0
189,52.97661035,53.335016450000005,71.0,63.0
190,53.242096350000004,53.49652043333334,66.0,59.0
191,53.75654021666667,54.090218058333335,66.0,39.0
192,53.50758235000001,54.117077575,59.0,52.0
193,54.00447421666667,54.35984628333333,71.0,58.0
194,54.252408216666666,54.466251291666666,66.0,57.0
195,52.44563835,54.50034221666667,47.0,75.0
196,54.63192096666667,55.35670058125,35.0,6.0
197,54.50034221666667,56.06283987291667,59.0,58.0
198,54.50034221666667,56.38051655416666,66.0,68.0
199,54.50034221666667,56.38563950208333,63.0,61.0
200,54.50034221666667,56.426623085416665,71.0,55.0
201,56.816991716666664,57.10490138958333,59.0,59.0
202,56.57109021666666,57.36924550208333,40.0,75.0
203,57.062893216666666,57.59977815833333,64.0,72.0
204,57.30879471666666,57.63358961458333,59.0,61.0
205,57.062893216666666,57.65920435416666,68.0,72.0
206,57.800597716666665,58.123343435416665,59.0,58.0
207,57.55469621666666,58.2350237,40.0,73.0
208,58.04649921666667,58.551576516666664,64.0,74.0
209,58.04649921666667,58.551576516666664,68.0,69.0
210,58.29240071666666,58.60246133333333,59.0,68.0
211,58.80378821666667,59.11794665,59.0,59.0
212,58.538302216666665,59.320379724999995,39.0,75.0
213,59.06927421666666,59.610201941666666,63.0,69.0
214,59.06927421666666,59.63121958333333,66.0,61.0
215,59.334760216666666,59.686529166666666,59.0,48.0
216,59.865732216666665,60.19543843333334,59.0,62.0
217,59.60024621666666,60.28259444166667,39.0,78.0
218,60.13121821666667,60.683832387500004,66.0,63.0
219,60.13121821666667,60.703228925000005,63.0,73.0
220,60.40644771666667,60.70753926666667,59.0,67.0
221,60.94029771666667,61.26141817083334,61.0,57.0
222,60.68167721666667,61.32284053958334,49.0,77.0
223,61.19891821666667,61.51465074375,64.0,63.0
224,61.19891821666667,61.779718591666665,68.0,58.0
225,61.45753871666667,61.79984572708334,61.0,57.0
226,61.97039671666667,62.28501562291667,61.0,58.0
227,61.71615921666667,62.304083435416665,49.0,76.0
228,62.224634216666665,62.601753175,68.0,62.0
229,62.224634216666665,62.71192275833334,64.0,75.0
230,62.47887171666667,62.81573640416667,61.0,63.0
231,62.98734671666667,63.30408426875,59.0,61.0
232,62.73310921666667,63.4026013,47.0,80.0
233,63.241584216666666,63.50535562291667,63.0,71.0
234,63.241584216666666,63.54984718541667,66.0,59.0
235,63.49582171666667,63.75641515416667,59.0,63.0
236,64.00429671666667,64.32305035,59.0,52.0
237,63.75005921666667,64.36236486875,47.0,46.0
238,64.25853421666667,64.52466326666668,63.0,73.0
239,64.25853421666667,64.59926004583335,66.0,67.0
240,64.50046971666667,64.84657172708333,59.0,69.0
241,65.00556271666667,65.31696575833334,61.0,71.0
242,64.74240521666667,65.56806187291667,45.0,74.0
243,65.26872021666667,65.74240371666667,69.0,76.0
244,65.26872021666667,65.82135096666667,64.0,78.0
245,65.53187771666667,65.8915263,61.0,68.0
246,66.05819271666667,66.38933257083333,61.0,71.0
247,65.79503521666666,66.49788503958334,45.0,74.0
248,66.32135021666667,66.61082346666667,69.0,72.0
249,66.32135021666667,66.62069187291667,64.0,73.0
250,66.58450771666666,66.89042831041667,61.0,75.0
251,66.84766521666667,67.31696275833333,40.0,71.0
252,67.11082271666668,67.40358543541667,59.0,57.0
253,67.37398021666667,67.89700574791667,68.0,67.0
254,67.37398021666667,67.92880394583334,64.0,74.0
255,67.63713771666667,68.01981258125001,59.0,71.0
256,67.90029521666666,68.50665395625,40.0,76.0
257,68.16345271666667,68.52090832083334,59.0,68.0
258,68.42661021666667,68.7796798625,64.0,68.0
259,68.42661021666667,68.7796798625,68.0,62.0
260,68.68976771666667,68.9770479875,59.0,71.0
261,68.95292521666667,69.52200331041666,42.0,73.0
262,69.21608271666666,69.5230998,61.0,63.0
263,69.47924021666667,69.92222200833334,69.0,69.0
264,69.47924021666667,70.07573055,64.0,75.0
265,69.74239771666667,70.10094981041667,61.0,73.0
266,70.00555521666666,70.60314203958333,42.0,69.0
267,70.26871271666667,70.60643150833333,61.0,63.0
268,70.53187021666668,70.90686965416667,69.0,74.0
269,70.53187021666668,71.04612383125,64.0,76.0
270,70.79502771666667,71.12930585416667,61.0,69.0
271,71.31680571666668,71.66271063541667,59.0,68.0
272,71.05818521666667,71.76723642083334,47.0,72.0
273,71.57542621666667,71.91163286666668,63.0,67.0
274,71.57542621666667,71.92671906250001,66.0,61.0
275,71.83404671666668,72.16141721666666,59.0,60.0
276,72.34266721666667,72.65516721666667,59.0,69.0
277,72.59266721666667,72.83641721666667,63.0,60.0
278,72.09266721666667,72.90308388333334,47.0,72.0
279,72.59266721666667,73.14221680833333,66.0,49.0
280,72.84266721666667,73.17262223958333,59.0,71.0
281,73.36293771666666,73.70756161041668,59.0,67.0
282,73.09266721666667,73.99312174583334,40.0,76.0
283,73.63320821666667,74.15475955833334,64.0,75.0
284,73.63320821666667,74.18708712083334,68.0,63.0
285,73.89182871666668,74.24850948958334,59.0,63.0
286,74.40906971666668,74.766828075,59.0,69.0
287,74.15044921666667,74.81316424791667,40.0,74.0
288,74.66769021666667,75.14721572708333,64.0,79.0
289,74.66769021666667,75.20717699791668,68.0,72.0
290,74.92631071666668,75.23471939375,59.0,68.0
291,75.43916871666667,75.79298257083333,59.0,71.0
292,75.18493121666667,75.943406425,51.0,69.0
293,75.69340621666667,76.03874548750001,63.0,74.0
294,75.69340621666667,76.08111840416667,66.0,63.0
295,75.94764371666668,76.19764392500001,59.0,63.0
296,76.45611871666667,76.79404272708334,59.0,68.0
297,76.20188121666666,76.87349194583334,51.0,73.0
298,76.71035621666667,76.96777168541666,63.0,75.0
299,76.71035621666667,77.09912772708334,66.0,72.0
300,76.96459371666667,77.22942444583333,59.0,73.0
301,77.47306871666667,77.83323850833334,59.0,69.0
302,77.21883121666667,78.03027257083333,49.0,71.0
303,77.72730621666668,78.16056928958334,64.0,78.0
304,77.98154371666666,78.33429824791666,59.0,69.0
305,77.72730621666668,78.38090845625,68.0,73.0
306,78.49001871666667,78.81840882083334,59.0,68.0
307,78.23578121666667,79.019680175,49.0,78.0
308,78.74425621666667,79.31579433333334,64.0,78.0
309,78.99849371666667,79.33043398541668,59.0,61.0
310,78.74425621666667,79.52863235208333,68.0,79.0
311,79.52300171666667,79.85520920625001,59.0,69.0
312,79.79327221666668,80.05115531875,63.0,74.0
313,79.25273121666667,80.08156075000001,44.0,71.0
314,79.79327221666668,80.35070512291668,66.0,71.0
315,80.06354271666667,80.38899344375001,59.0,69.0
316,80.60408371666668,80.93851333333335,59.0,62.0
317,80.87435421666667,81.16307024166667,63.0,77.0
318,80.87435421666667,81.19514980000001,66.0,73.0
319,80.33381321666667,81.20731790833334,44.0,79.0
320,81.13984021666667,81.49007205000001,59.0,75.0
321,81.65956371666668,81.97206397708335,61.0,60.0
322,81.40532621666668,82.22524215416668,45.0,84.0
323,81.91380121666668,82.38731856041667,69.0,75.0
324,81.91380121666668,82.44664064375002,64.0,74.0
325,82.16803871666669,82.49431017500001,61.0,69.0
326,82.67651371666668,83.00384449791667,61.0,63.0
327,82.42227621666667,83.10342085208335,45.0,67.0
328,82.93075121666668,83.18498871666668,64.0,68.0
329,82.93075121666668,83.23583621666668,69.0,72.0
330,83.18498871666668,83.46077792500002,61.0,71.0
331,83.69784671666669,84.02758785416668,59.0,71.0
332,83.43922621666668,84.15151017708335,40.0,78.0
333,83.95646721666668,84.31745833125001,68.0,60.0
334,83.95646721666668,84.38211345625001,64.0,73.0
335,84.21508771666669,84.56314780625002,59.0,56.0
336,84.73232871666669,84.98771646041668,59.0,55.0
337,84.47370821666668,85.13426807708335,40.0,79.0
338,84.99094921666668,85.43275923750002,68.0,63.0
339,85.24956971666668,85.52025160208335,59.0,56.0
340,84.99094921666668,85.5520498,64.0,72.0
341,85.77134771666668,86.10468055000001,61.0,55.0
342,85.50819021666668,86.27134696666667,42.0,73.0
343,86.03450521666667,86.3875748625,64.0,77.0
344,86.03450521666667,86.44568881041668,69.0,77.0
345,86.29766271666668,86.62003065416668,61.0,76.0
346,86.82397771666668,87.17046842500001,59.0,75.0
347,86.56082021666667,87.30643313333334,35.0,69.0
348,87.08713521666668,87.57507308125001,63.0,70.0
349,87.08713521666668,87.62331862291667,66.0,74.0
350,87.35029271666667,87.69787991458334,59.0,62.0
351,87.87660771666668,88.21871246666667,59.0,71.0
352,87.61345021666668,88.36893153958334,40.0,75.0
353,88.13976521666667,88.87222025833334,68.0,63.0
354,88.13976521666667,88.88976409166668,64.0,71.0
355,88.40292271666668,88.89853600833334,59.0,61.0
356,88.92923771666668,89.21213202916668,59.0,57.0
357,88.66608021666667,89.49941230000002,40.0,75.0
358,89.19239521666668,90.40988712500001,68.0,72.0
359,89.19239521666668,90.41513922916668,64.0,75.0
360,90.60106371666667,91.21240864166668,64.0,54.0
361,89.71871021666668,91.23131621666668,40.0,69.0
362,89.45555271666667,91.23341705833334,59.0,55.0
363,90.72711421666668,91.35106419166668,71.0,73.0
364,91.73551821666668,92.18877897291668,71.0,67.0
365,91.73551821666668,92.20290940416668,75.0,74.0
366,91.73551821666668,92.21595287916668,66.0,59.0
367,91.73551821666668,92.22573548541668,68.0,52.0
368,92.25725721666667,92.67464841666667,64.0,52.0
369,92.51812671666667,92.953366075,66.0,70.0
370,92.51812671666667,93.01429048333334,71.0,77.0
371,93.03109721666667,93.23277801666667,64.0,60.0
372,91.99638771666667,93.30420663333334,59.0,59.0
373,91.73551821666668,93.3787865125,52.0,79.0
374,93.28319821666668,93.5111395375,66.0,63.0
375,93.28319821666668,93.51954290416667,71.0,73.0
376,93.53529921666667,93.75273632916667,75.0,76.0
377,93.78740021666667,94.14946891666666,66.0,68.0
378,93.78740021666667,94.15701201458333,71.0,79.0
379,93.78740021666667,94.25399470208333,51.0,80.0
380,94.30464121666667,94.52231347083334,63.0,57.0
381,94.56326171666667,94.85806637291667,78.0,67.0
382,94.56326171666667,94.98087320625,66.0,59.0
383,95.08503971666667,95.247320175,63.0,63.0
384,94.04602071666667,95.25280262291666,59.0,55.0
385,95.34819721666666,95.64973185208333,71.0,69.0
386,95.87451221666666,96.14463956041666,76.0,80.0
387,95.87451221666666,96.19654638333333,68.0,63.0
388,96.12874971666666,96.71561461249999,56.0,56.0
389,96.38298721666666,96.78976721666666,61.0,49.0
390,96.63722471666667,96.90099612291665,64.0,71.0
391,96.63722471666667,96.92218258125,71.0,72.0
392,95.87451221666666,97.36074226874999,49.0,71.0
393,97.14569971666666,97.5418864875,56.0,60.0
394,97.39993721666666,97.62981028958333,64.0,71.0
395,97.39993721666666,97.67747982083333,71.0,71.0
396,97.65417471666666,97.83531893541667,66.0,18.0
397,97.90841221666666,98.35014987291666,64.0,56.0
398,97.90841221666666,98.35332784166665,68.0,30.0
399,98.67112471666665,98.80459940416667,64.0,68.0
400,98.41688721666667,98.86074351875,59.0,61.0
401,98.67112471666665,98.870277425,71.0,75.0
402,98.92536221666666,99.02176060208333,66.0,58.0
403,98.16264971666666,99.08743862291666,56.0,59.0
404,99.05248096666666,99.38510836249999,68.0,49.0
405,97.90841221666666,99.50693049791666,47.0,57.0
406,99.30671846666667,99.57366784166666,56.0,50.0
407,99.43383721666666,99.61498143541667,59.0,69.0
408,99.43383721666666,99.67218487291666,64.0,80.0
409,99.94231221666666,100.3085397375,59.0,55.0
410,99.94231221666666,100.4598553,64.0,80.0
411,100.46862721666666,100.82937228958333,57.0,69.0
412,100.73178471666667,101.11670936875,68.0,78.0
413,100.73178471666667,101.17274381041666,61.0,63.0
414,100.73178471666667,101.2298558375,64.0,73.0
415,100.20546971666667,101.47339014166666,52.0,75.0
416,101.25356271666666,101.60701073333333,57.0,55.0
417,99.94231221666666,101.6759762,45.0,80.0
418,101.51218321666666,101.76757096041666,66.0,84.0
419,101.51218321666666,101.7729588875,61.0,73.0
420,101.77080371666666,102.01433802083332,64.0,79.0
421,101.77080371666666,102.08976899999999,52.0,78.0
422,102.02942421666665,102.43998426041665,59.0,67.0
423,102.02942421666665,102.46476872499998,68.0,75.0
424,102.02942421666665,102.53481177708332,44.0,77.0
425,102.28804471666666,102.59838931666665,52.0,72.0
426,102.54666521666665,103.15442339166665,56.0,80.0
427,102.80528571666666,103.29558708124999,64.0,84.0
428,102.80528571666666,103.31498361874999,71.0,79.0
429,102.80528571666666,103.36131979166666,59.0,75.0
430,103.32252671666666,103.54666448333333,56.0,76.0
431,103.58114721666666,103.75248329791665,59.0,72.0
432,103.58114721666666,103.75679363958332,71.0,77.0
433,103.83976771666666,104.042353775,66.0,80.0
434,104.09838821666666,104.30528461666665,42.0,80.0
435,104.09838821666666,104.62101714375,61.0,72.0
436,104.09838821666666,104.63825851041666,64.0,80.0
437,104.35700871666666,104.6436464375,54.0,63.0
438,104.09838821666666,104.76541358958332,69.0,76.0
439,105.13287021666666,105.33653386041667,64.0,75.0
440,104.87424971666665,105.50679235624999,61.0,75.0
441,104.61562921666666,105.54881818749999,57.0,78.0
442,105.39149071666665,105.68890429166666,69.0,76.0
443,105.65011121666666,105.88610242291666,73.0,60.0
444,105.90873171666667,106.16304187499999,76.0,73.0
445,106.16735221666666,106.54989503958332,47.0,74.0
446,106.16735221666666,106.66088633749999,66.0,55.0
447,106.42597271666666,106.68351563124999,54.0,73.0
448,106.68459321666666,106.99493781666666,59.0,61.0
449,106.16735221666666,107.25248073124999,75.0,80.0
450,107.20183421666665,107.58222186875,63.0,79.0
451,107.46045471666666,107.65980801875,71.0,76.0
452,106.94321371666666,107.78049758541665,61.0,62.0
453,107.71907521666665,107.97015261874999,69.0,73.0
454,107.97769571666666,108.29881617083332,68.0,68.0
455,108.23631621666667,108.80959165833332,66.0,76.0
456,108.75355721666666,109.23092755625,64.0,69.0
457,109.01217771666666,109.47553944583332,66.0,61.0
458,109.01217771666666,109.48739288541665,71.0,77.0
459,109.52941871666665,109.75355648333333,64.0,39.0
460,108.49493671666666,109.82144436458333,59.0,72.0
461,108.23631621666667,109.86239261041666,52.0,78.0
462,109.78803921666666,110.07144418124999,66.0,59.0
463,109.78803921666666,110.11347001249999,75.0,78.0
464,109.78803921666666,110.13178896458332,68.0,68.0
465,110.04665971666665,110.33006468125,59.0,71.0
466,110.30528021666666,110.80204709374999,71.0,75.0
467,110.30528021666666,110.83114189999999,66.0,69.0
468,110.56390071666667,111.06066759375,59.0,62.0
469,110.82252121666666,111.08976239999998,63.0,69.0
470,110.30528021666666,111.35700358333332,51.0,79.0
471,111.08114171666666,111.4712276375,71.0,83.0
472,111.59838271666666,111.73846882083333,51.0,86.0
473,111.85700321666666,111.97553761249999,71.0,55.0
474,111.85700321666666,112.12208922916666,59.0,72.0
475,112.11562371666666,112.8160542375,71.0,62.0
476,112.37424421666665,112.83868353124998,56.0,78.0
477,112.37424421666665,112.84407145833333,59.0,69.0
478,112.37424421666665,112.99385583124999,64.0,81.0
479,113.15010571666666,113.66734671666666,59.0,63.0
480,113.15010571666666,113.74816562291666,66.0,78.0
481,113.66734671666666,114.03480334374999,56.0,79.0
482,112.37424421666665,114.07790676041665,49.0,74.0
483,113.92596721666666,114.16626876458332,64.0,83.0
484,113.92596721666666,114.19213081458332,59.0,73.0
485,114.18458771666666,114.413035825,66.0,69.0
486,114.44320821666666,114.78264762291666,59.0,69.0
487,114.44320821666666,114.79126830624999,64.0,82.0
488,114.96044921666666,115.13501805416666,59.0,53.0
489,114.70182871666665,115.44320748333332,56.0,62.0
490,114.44320821666666,115.48200055833333,47.0,72.0
491,115.21906971666665,115.55958670833333,59.0,75.0
492,115.21906971666665,115.66411249375,64.0,86.0
493,115.73631071666665,115.88286233333332,56.0,76.0
494,115.99493121666666,116.14471558958333,66.0,71.0
495,116.12424146666666,116.51217221666666,68.0,55.0
496,116.51217221666666,116.99385289791665,59.0,68.0
497,116.51217221666666,117.06174077916666,64.0,79.0
498,117.02941321666665,117.48199909166667,57.0,60.0
499,117.28803371666666,117.79342127708333,61.0,76.0
500,117.28803371666666,117.86023157291666,64.0,84.0
501,116.77079271666666,117.97337804166666,52.0,63.0
502,116.51217221666666,118.18997271041665,45.0,72.0
503,118.06389521666665,118.25031749374999,57.0,72.0
504,118.06389521666665,118.38070532916666,52.0,29.0
505,118.32251571666666,118.5897569,66.0,76.0
506,118.58113621666666,118.97229972291666,44.0,72.0
507,118.58113621666666,119.03803243333333,68.0,81.0
508,118.58113621666666,119.05635138541666,59.0,63.0
509,119.09837721666666,119.51540277291666,56.0,73.0
510,119.35699771666665,119.74816122291665,59.0,76.0
511,119.35699771666665,119.7794112,64.0,86.0
512,118.83975671666666,119.96798864791666,52.0,59.0
513,119.87423871666667,120.02186791874999,56.0,71.0
514,120.13285921666666,120.2772556625,71.0,76.0
515,120.65010021666666,121.06497060208332,64.0,78.0
516,120.65010021666666,121.07466887083332,61.0,69.0
517,120.65010021666666,121.12639297083332,69.0,76.0
518,120.65010021666666,121.15117743541666,42.0,80.0
519,120.90872071666666,121.22445324374999,54.0,43.0
520,121.16734121666666,121.35160832291666,66.0,76.0
521,121.42596171666666,121.58436677291667,68.0,78.0
522,121.68458221666666,122.171650825,47.0,63.0
523,121.68458221666666,122.17488358124999,64.0,72.0
524,121.68458221666666,122.27186626874999,54.0,78.0
525,121.68458221666666,122.28910763541666,59.0,67.0
526,121.68458221666666,122.32790071041666,69.0,70.0
527,122.71906421666665,122.92596061666666,64.0,71.0
528,122.71906421666665,122.94966749583332,66.0,77.0
529,122.71906421666665,122.99277091249999,68.0,76.0
530,123.23630521666666,123.61130494166666,64.0,56.0
531,123.49492571666666,124.02186498541666,66.0,71.0
532,123.49492571666666,124.07143391458332,69.0,78.0
533,124.01216671666666,124.21906311666666,64.0,59.0
534,122.97768471666666,124.26539928958333,59.0,68.0
535,122.71906421666665,124.266476875,52.0,78.0
536,124.27078721666666,124.68026967499999,68.0,71.0
537,124.27078721666666,124.74276962916666,71.0,75.0
538,124.78802821666666,125.07682110833332,68.0,78.0
539,124.78802821666666,125.16949345416666,76.0,90.0
540,125.04664871666665,125.35376056041666,59.0,59.0
541,125.30526921666666,125.42703636875,66.0,80.0
542,125.30526921666666,125.43134671041666,75.0,79.0
543,125.56388971666667,125.74815682291666,59.0,60.0
544,125.82251021666666,126.0897514,71.0,86.0
545,125.82251021666666,126.10807035208333,64.0,83.0
546,124.78802821666666,126.19427718541667,52.0,79.0
547,126.33975121666666,126.58975103333333,66.0,83.0
548,126.59837171666666,126.83544050833332,68.0,78.0
549,126.85699221666665,126.98414729583332,68.0,58.0
550,126.85699221666665,127.31281084791667,61.0,76.0
551,126.85699221666665,127.41625904791665,45.0,83.0
552,126.85699221666665,127.42703490208332,64.0,82.0
553,127.11561271666666,127.44212109791665,52.0,71.0
554,127.37423321666665,127.55742273749999,57.0,71.0
555,127.63285371666666,127.8548363125,68.0,73.0
556,127.89147421666667,128.21690501249998,59.0,82.0
557,127.89147421666667,128.3095773583333,66.0,77.0
558,127.89147421666667,128.43996519375,47.0,84.0
559,128.15009471666667,128.53802546666665,54.0,62.0
560,128.40871521666665,128.59729266458334,64.0,83.0
561,128.66733571666666,128.97768031666666,64.0,61.0
562,128.66733571666666,128.99815443958332,59.0,80.0
563,128.66733571666666,129.14470605625,68.0,79.0
564,129.70181771666665,129.82789521041667,68.0,67.0
565,129.70181771666665,129.86022277291667,76.0,82.0
566,129.18457671666667,129.9938433645833,59.0,73.0
567,129.44319721666665,130.07358468541665,64.0,59.0
568,129.96043821666666,130.11022258958332,75.0,71.0
569,129.96043821666666,130.22660181458332,66.0,78.0
570,130.08974846666666,130.46151543541666,59.0,73.0
571,128.92595621666666,130.54772226875,52.0,76.0
572,130.47767921666667,130.61668773541666,64.0,80.0
573,130.47767921666667,130.66086873749998,71.0,84.0
574,130.99492021666666,131.42164404166667,64.0,78.0
575,130.99492021666666,131.43457506666667,69.0,79.0
576,130.99492021666666,131.43888540833333,61.0,76.0
577,131.25354071666666,131.55203187708332,52.0,78.0
578,130.99492021666666,131.5660404875,45.0,83.0
579,131.51216121666667,131.6694886875,57.0,76.0
580,131.77078171666665,131.92164367499998,66.0,72.0
581,131.90009196666665,132.11345387916666,68.0,69.0
582,132.02940221666665,132.39470367291665,59.0,76.0
583,132.02940221666665,132.43780708958332,66.0,79.0
584,132.28802271666666,132.51539323958332,54.0,73.0
585,132.02940221666665,132.53263460624999,47.0,80.0
586,132.54664321666667,132.75677237291666,64.0,76.0
587,133.06388421666665,133.54975366041666,40.0,80.0
588,133.32475371666666,133.58671017291664,47.0,76.0
589,133.58562321666665,133.89757966041665,52.0,73.0
590,132.80526371666667,134.02366658541666,64.0,72.0
591,132.80526371666667,134.09975352291664,68.0,75.0
592,132.80526371666667,134.12910134166665,59.0,78.0
593,133.84649271666666,134.41605779166665,54.0,76.0
594,134.10736221666664,134.44540561041666,56.0,80.0
595,134.36823171666666,134.54540558541666,59.0,73.0
596,134.62910121666664,134.92801418541666,64.0,83.0
597,134.88997071666665,135.14975326041665,66.0,76.0
598,135.15084021666664,135.60558126249998,69.0,83.0
599,135.15084021666664,135.64114158124997,64.0,84.0
600,135.15084021666664,135.69717602291664,61.0,79.0
601,135.15084021666664,135.70256394999998,45.0,82.0
602,135.66808121666665,135.7984690520833,57.0,79.0
603,136.18532221666663,136.49889957291663,63.0,79.0
604,136.18532221666663,136.56355469791663,59.0,74.0
605,136.18532221666663,136.5840288208333,66.0,79.0
606,136.18532221666663,136.74135629166665,47.0,78.0
607,136.18532221666663,136.78014936666665,54.0,76.0
608,136.70256321666665,136.87605446874997,64.0,77.0
609,136.96118371666662,137.45795059374996,68.0,79.0
610,136.96118371666662,137.5667867208333,59.0,68.0
611,136.96118371666662,137.57756257499997,64.0,81.0
612,137.73704521666664,137.8868295895833,59.0,63.0
613,137.73704521666664,137.91161405416665,66.0,69.0
614,137.47842471666664,138.21764831249996,56.0,69.0
615,137.99566571666665,138.59588079374998,59.0,78.0
616,137.99566571666665,138.61096698958332,64.0,82.0
617,138.51290671666663,138.84264785416664,56.0,78.0
618,137.21980421666663,138.91915641874996,52.0,78.0
619,138.77152721666664,139.0376908145833,66.0,79.0
620,138.77152721666664,139.04523391249998,59.0,80.0
621,139.03014771666665,139.26829409374997,68.0,78.0
622,139.28876821666663,139.54307837499996,57.0,60.0
623,139.28876821666663,139.62820762291665,69.0,84.0
624,139.28876821666663,139.66592311249997,64.0,83.0
625,139.28876821666663,139.70579377291665,61.0,81.0
626,139.80600921666664,139.99027632291663,61.0,78.0
627,139.80600921666664,140.07648315624996,68.0,80.0
628,140.06462971666664,140.5861810583333,61.0,59.0
629,140.06462971666664,140.60773276666663,64.0,84.0
630,139.28876821666663,140.76829299374998,45.0,84.0
631,140.84049121666663,141.02368073749997,61.0,79.0
632,140.84049121666663,141.05277554374996,68.0,79.0
633,140.58187071666663,141.25967194374996,57.0,76.0
634,141.09911171666664,141.3491115333333,71.0,45.0
635,141.09911171666664,141.3846718520833,61.0,39.0
636,141.09911171666664,141.41592182916665,64.0,80.0
637,141.61635271666663,141.9019128520833,57.0,79.0
638,141.87497321666663,141.96764556249997,73.0,73.0
639,141.87497321666663,141.99674036874998,85.0,79.0
640,142.13359371666664,142.2381195020833,75.0,78.0
641,142.13359371666664,142.2639815520833,87.0,91.0
642,142.39221421666664,142.46872278124997,57.0,59.0
643,142.39221421666664,142.4805762208333,76.0,72.0
644,142.39221421666664,142.52152446666665,88.0,91.0
645,142.65083471666665,142.7165674270833,57.0,48.0
646,142.78014496666663,142.86958455624998,78.0,75.0
647,142.78014496666663,142.89221384999996,90.0,81.0
648,141.35773221666665,143.01182583124998,45.0,84.0
649,142.90945521666663,143.06354993124998,57.0,79.0
650,143.16807571666664,143.26829116041665,92.0,84.0
651,143.16807571666664,143.28337735624996,80.0,72.0
652,143.42669621666664,143.69393739999998,90.0,82.0
653,143.42669621666664,143.7769114770833,78.0,68.0
654,144.20255771666663,144.49027302291663,64.0,82.0
655,144.46117821666664,144.5624712458333,66.0,75.0
656,144.71979871666665,144.93854855624997,71.0,57.0
657,143.42669621666664,145.08833292916663,47.0,83.0
658,143.94393721666663,145.1120398083333,59.0,71.0
659,144.97841921666662,145.13359151666663,76.0,79.0
660,143.68531671666665,145.3447982583333,54.0,76.0
661,145.23703971666663,145.73165142291663,75.0,79.0
662,145.75428071666664,145.94716850624997,71.0,83.0
663,146.01290121666665,146.12065975833332,66.0,52.0
664,145.75428071666664,146.16376317499999,54.0,72.0
665,146.01290121666665,146.2758320583333,59.0,52.0
666,146.27152171666663,146.41053023541664,64.0,81.0
667,146.53014221666663,146.69285761458332,63.0,81.0
668,146.78876271666664,146.9159177958333,54.0,77.0
669,145.49566021666664,146.9838056770833,47.0,78.0
670,146.78876271666664,147.00859014166664,59.0,80.0
671,147.04738321666665,147.20471068749998,56.0,44.0
672,147.43531396666663,147.93639118541662,71.0,83.0
673,147.43531396666663,148.03337387291663,68.0,40.0
674,147.56462421666663,148.23595993124997,76.0,83.0
675,147.82324471666664,148.46871838124997,59.0,76.0
676,148.08186521666664,148.6131148270833,64.0,76.0
677,148.34048571666665,148.8329422520833,66.0,78.0
678,148.34048571666665,149.01613177291665,71.0,90.0
679,147.43531396666663,149.23164885624996,52.0,78.0
680,148.85772671666663,149.35449359374996,59.0,76.0
681,149.11634721666664,149.40298493749998,64.0,83.0
682,149.63358821666662,150.06569996874998,63.0,80.0
683,149.63358821666662,150.1163464833333,66.0,82.0
684,149.37496771666665,150.24673431874996,71.0,84.0
685,149.89220871666663,150.68746675416665,59.0,69.0
686,150.15082921666664,150.69716502291664,63.0,75.0
687,150.40944971666664,150.7402684395833,64.0,83.0
688,149.63358821666662,150.96117344999996,51.0,79.0
689,150.66807021666665,150.97841481666663,66.0,80.0
690,150.92669071666663,151.21979394999997,68.0,72.0
691,151.18531121666663,151.51720752499998,71.0,84.0
692,151.44393171666664,151.73380219374997,68.0,73.0
693,151.70255221666665,152.3243190020833,45.0,78.0
694,151.96117271666662,152.34263795416663,52.0,79.0
695,152.21979321666663,152.38789654166663,57.0,70.0
696,151.70255221666665,152.41591376249997,64.0,79.0
697,151.70255221666665,152.47518096041665,59.0,62.0
698,152.47841371666664,152.81354278124996,68.0,71.0
699,152.73703421666664,153.12927530833332,59.0,75.0
700,152.73703421666664,153.20578387291664,66.0,79.0
701,152.99565471666665,153.35341307499996,54.0,72.0
702,152.73703421666664,153.37927512499996,47.0,83.0
703,153.25427521666663,153.44824059166663,64.0,79.0
704,153.51289571666663,153.75858519166664,66.0,77.0
705,153.77151621666664,154.2154814083333,40.0,72.0
706,154.03013671666665,154.2769037770833,47.0,78.0
707,154.28875721666662,154.65082591666663,52.0,60.0
708,153.77151621666664,154.85341197499997,59.0,75.0
709,153.77151621666664,154.8555671458333,68.0,80.0
710,154.54737771666663,154.99242049374996,54.0,73.0
711,154.80599821666664,155.03552391041663,56.0,78.0
712,155.06461871666664,155.26397201874997,59.0,82.0
713,155.32323921666665,155.6281958895833,64.0,73.0
714,155.58185971666663,155.7736699208333,71.0,80.0
715,155.84048021666663,156.45793666041664,68.0,74.0
716,155.84048021666663,156.59371242291664,76.0,90.0
717,156.09910071666664,156.6788416708333,59.0,72.0
718,156.35772121666665,156.7337985270833,64.0,71.0
719,156.61634171666662,156.97841041666663,71.0,84.0
720,156.61634171666662,157.0894017145833,66.0,80.0
721,157.13358271666664,157.2962981145833,59.0,83.0
722,155.84048021666663,157.3641859958333,52.0,76.0
723,157.39220321666664,157.64435820416665,64.0,80.0
724,157.90944421666663,158.24565086666664,58.0,54.0
725,157.65082371666665,158.30707323541662,66.0,69.0
726,157.90944421666663,158.4859524145833,63.0,80.0
727,158.68530571666665,159.0225899520833,59.0,86.0
728,158.94392621666663,159.27366735416663,63.0,82.0
729,158.42668521666664,159.37280521249997,56.0,79.0
730,157.90944421666663,159.43207241041665,44.0,82.0
731,159.20254671666663,159.50534821875,66.0,80.0
732,158.16806471666663,159.5075033895833,51.0,80.0
733,159.46116721666664,159.68961532499998,68.0,75.0
734,159.71978771666664,159.86526174791663,71.0,72.0
735,159.97840821666665,160.5904767333333,61.0,72.0
736,159.97840821666665,160.6228042958333,64.0,82.0
737,159.97840821666665,160.63465773541662,69.0,77.0
738,159.97840821666665,160.76612315624996,45.0,84.0
739,160.23702871666663,160.8329334520833,52.0,77.0
740,160.49564921666664,160.84155413541663,57.0,68.0
741,160.75426971666664,160.88250238124996,61.0,79.0
742,161.01289021666665,161.0786229270833,61.0,53.0
743,161.01289021666665,161.1174160020833,59.0,67.0
744,161.01289021666665,161.48163987291665,66.0,86.0
745,161.01289021666665,161.57862256041665,47.0,84.0
746,161.27151071666663,161.71224315208332,54.0,79.0
747,161.53013121666663,161.8383206458333,59.0,79.0
748,161.78875171666664,162.03336360624996,66.0,78.0
749,162.04737221666664,162.41267367291664,64.0,81.0
750,162.04737221666664,162.51288911666663,68.0,76.0
751,162.82323371666664,163.19715585624996,68.0,68.0
752,162.56461321666663,163.3868108895833,63.0,60.0
753,163.34047471666665,163.67883653749996,66.0,77.0
754,163.34047471666665,163.71116409999996,76.0,86.0
755,163.59909521666663,163.91051740208331,63.0,60.0
756,162.04737221666664,163.91698291458331,52.0,75.0
757,162.30599271666665,164.09047416666664,59.0,71.0
758,164.11633621666664,164.6411203145833,64.0,78.0
759,164.11633621666664,164.6960771708333,61.0,74.0
760,164.11633621666664,164.81353398124998,68.0,72.0
761,164.63357721666665,164.96978386666663,57.0,75.0
762,164.37495671666665,165.2327147083333,52.0,69.0
763,164.89219771666663,165.24349056249997,59.0,82.0
764,165.15081821666664,165.26180951458332,57.0,76.0
765,164.11633621666664,165.27581812499997,45.0,82.0
766,164.89219771666663,165.28874914999997,66.0,75.0
767,165.40943871666664,165.64758509374997,47.0,84.0
768,165.40943871666664,165.71870573124997,64.0,81.0
769,165.40943871666664,165.76935224583332,59.0,78.0
770,165.66805921666665,166.00749862291664,66.0,80.0
771,165.92667971666663,166.46547242499997,68.0,79.0
772,166.44392071666664,166.9557737895833,59.0,73.0
773,166.70254121666665,167.07323059999996,64.0,68.0
774,166.96116171666665,167.1465064083333,68.0,71.0
775,166.96116171666665,167.3016787083333,76.0,84.0
776,167.21978221666663,167.4503854958333,59.0,56.0
777,167.47840271666664,167.6475836270833,71.0,83.0
778,167.47840271666664,167.67991118958332,66.0,77.0
779,166.18530021666663,167.7995231708333,52.0,79.0
780,167.73702321666664,167.82107487916664,59.0,63.0
781,167.99564371666665,168.21870389791664,64.0,76.0
782,168.25426421666663,168.78766899791663,68.0,80.0
783,168.25426421666663,168.85771204999998,45.0,83.0
784,168.25426421666663,168.8695654895833,61.0,76.0
785,168.51288471666663,168.88788444166664,52.0,69.0
786,168.77150521666664,168.9600826645833,57.0,75.0
787,169.03012571666665,169.23378936041664,68.0,68.0
788,169.28874621666665,169.32107377916662,68.0,40.0
789,169.28874621666665,169.64758216041665,59.0,77.0
790,169.28874621666665,169.68529764999997,66.0,81.0
791,169.28874621666665,169.84801304791665,47.0,84.0
792,169.54736671666663,169.94176297916664,54.0,75.0
793,169.80598721666664,169.99564224999997,64.0,80.0
794,170.06460771666664,170.30383167916665,66.0,80.0
795,170.32322821666662,170.59477974166663,64.0,82.0
796,170.32322821666662,170.66913313541664,68.0,80.0
797,170.58184871666663,170.98917600416664,59.0,73.0
798,170.84046921666663,171.12818452291663,64.0,63.0
799,171.09908971666664,171.22839996666664,68.0,68.0
800,171.09908971666664,171.2359430645833,76.0,82.0
801,171.35771021666665,171.58939108124997,66.0,76.0
802,171.35771021666665,171.59046866666665,71.0,80.0
803,170.32322821666662,171.93637358541665,52.0,78.0
804,171.61633071666665,171.96762356249997,59.0,78.0
805,171.74564096666666,171.99240802708331,64.0,82.0
806,171.74564096666666,172.02689076041665,68.0,79.0
807,172.13357171666664,172.34693362916664,66.0,77.0
808,172.39219221666664,172.96977799999996,59.0,78.0
809,172.39219221666664,172.99887280624998,64.0,82.0
810,172.39219221666664,173.05059690624998,45.0,83.0
811,172.65081271666662,173.05059690624998,52.0,73.0
812,172.90943321666663,173.14111408124998,57.0,75.0
813,173.16805371666663,173.3340018708333,59.0,78.0
814,173.42667421666664,173.75857052499998,59.0,80.0
815,173.42667421666664,173.77365672083332,66.0,81.0
816,173.42667421666664,173.85339804166665,47.0,83.0
817,173.68529471666665,173.9191307520833,54.0,73.0
818,173.94391521666665,174.1357254208333,64.0,80.0
819,174.20253571666663,174.44068209374996,66.0,76.0
820,174.46115621666664,174.9471472395833,68.0,75.0
821,174.46115621666664,175.0247333895833,59.0,73.0
822,175.23701771666663,175.52150026666664,59.0,78.0
823,175.49563821666663,175.67343981041665,61.0,78.0
824,175.75425871666664,175.94499133541663,64.0,82.0
825,174.46115621666664,175.96007753124996,40.0,75.0
826,174.97839721666662,175.96762062916665,52.0,76.0
827,174.71977671666664,175.97624131249998,47.0,77.0
828,176.01287921666665,176.22408595833332,66.0,79.0
829,176.27149971666665,176.61309429374998,68.0,71.0
830,176.53012021666663,177.11740426874997,61.0,74.0
831,176.53012021666663,177.12171461041663,64.0,80.0
832,177.30598171666662,177.4816281395833,61.0,78.0
833,177.04736121666664,177.60339529166663,57.0,71.0
834,177.56460221666663,177.8339985708333,61.0,60.0
835,177.56460221666663,177.90942954999997,64.0,80.0
836,176.53012021666663,178.11740353541666,45.0,82.0
837,176.78874071666664,178.15511902499998,52.0,76.0
838,177.82322271666663,178.17128280624996,57.0,76.0
839,178.08184321666664,178.28550686041663,61.0,75.0
840,178.34046371666665,178.4967136020833,66.0,78.0
841,178.59908421666665,178.8523167895833,66.0,80.0
842,178.59908421666665,178.93098052499997,59.0,77.0
843,178.85770471666663,179.0430494083333,64.0,83.0
844,179.11632521666664,179.2596440770833,64.0,82.0
845,179.11632521666664,179.28335095625,59.0,75.0
846,179.37494571666664,179.51503182083331,59.0,63.0
847,179.37494571666664,179.58723004374997,66.0,75.0
848,179.63356621666662,180.1939106333333,59.0,74.0
849,179.63356621666662,180.21653992708332,68.0,81.0
850,180.40942771666664,180.62925514166665,59.0,42.0
851,180.53873796666664,180.85878083541664,64.0,62.0
852,180.66804821666665,181.06244447916663,71.0,75.0
853,180.92666871666665,181.44929764374996,52.0,75.0
854,181.44390971666664,181.7520991458333,59.0,82.0
855,181.70253021666664,181.87063354166665,76.0,79.0
856,181.96115071666662,182.1443402375,78.0,71.0
857,182.47839171666664,182.67882260416664,81.0,76.0
858,182.73701221666664,182.83615007499998,83.0,78.0
859,183.77149421666664,184.03334747291663,59.0,21.0
860,181.18528921666663,184.12601981874997,54.0,71.0
861,180.66804821666665,184.19067494374997,47.0,81.0
862,184.28873521666662,184.49455403124998,64.0,59.0
863,184.54735571666663,184.81459689999997,66.0,51.0
864,185.06459671666664,185.2564069208333,59.0,56.0
865,184.80597621666664,185.64649284166666,52.0,78.0
866,185.58183771666666,185.88787197499997,68.0,71.0
867,185.58183771666666,185.89541507291665,59.0,43.0
868,185.32321721666665,185.94282883124998,64.0,76.0
869,186.09907871666664,186.42558709791663,59.0,48.0
870,185.84045821666663,186.69390586666663,52.0,72.0
871,186.35769921666665,186.87062987499996,64.0,72.0
872,186.61631971666662,186.8986470958333,59.0,63.0
873,187.13356071666664,187.33399160416664,59.0,53.0
874,186.87494021666663,187.62278449583332,52.0,63.0
875,187.39218121666664,187.74778440416662,64.0,75.0
876,187.65080171666665,187.94174977916663,59.0,59.0
877,188.16804271666663,188.3663184333333,59.0,60.0
878,187.90942221666666,188.81351638124997,52.0,73.0
879,188.42666321666664,188.8932577020833,66.0,73.0
880,188.42666321666664,188.9449818020833,63.0,69.0
881,188.68528371666665,189.05597309999996,59.0,53.0
882,189.20252471666663,189.5204124145833,59.0,57.0
883,188.94390421666662,189.81674840416665,51.0,69.0
884,189.46114521666664,190.00748102291664,66.0,62.0
885,189.46114521666664,190.05597236666665,63.0,63.0
886,189.71976571666664,190.0829120020833,59.0,60.0
887,190.23700671666666,190.48485136249997,59.0,51.0
888,189.97838621666665,190.67881673749997,51.0,72.0
889,190.49562721666663,191.02148889999998,66.0,58.0
890,190.49562721666663,191.03226475416665,63.0,67.0
891,190.75424771666664,191.06890265833331,59.0,55.0
892,191.27148871666662,191.60769536666663,59.0,50.0
893,191.01286821666665,191.8835572333333,51.0,62.0
894,191.53010921666663,192.00532438541666,63.0,71.0
895,191.53010921666663,192.11092775624996,66.0,62.0
896,191.78872971666664,192.13355704999998,59.0,59.0
897,192.04735021666664,192.53549641041664,51.0,78.0
898,192.30597071666665,192.5398067520833,59.0,69.0
899,192.82321171666663,193.14540975625,59.0,60.0
900,192.56459121666666,193.17773731874996,66.0,68.0
901,192.56459121666666,193.18204766041663,63.0,62.0
902,193.34045271666665,193.67665936666663,61.0,53.0
903,193.08183221666664,193.9589867458333,45.0,71.0
904,193.59907321666662,194.06566770208332,68.0,59.0
905,193.85769371666663,194.17989175624996,61.0,57.0
906,193.59907321666662,194.18312451249997,64.0,71.0
907,194.37493471666664,194.71329653749996,61.0,62.0
908,194.11631421666664,194.92342569374998,45.0,73.0
909,194.63355521666665,195.16264965624998,69.0,74.0
910,194.63355521666665,195.1874341208333,64.0,75.0
911,194.89217571666666,195.22191685416664,61.0,61.0
912,195.40941671666664,195.64217516666665,61.0,62.0
913,195.15079621666663,195.94928701041664,45.0,71.0
914,195.66803721666665,196.0085542083333,64.0,68.0
915,195.66803721666665,196.22730404791665,69.0,72.0
916,195.92665771666663,196.2607091958333,61.0,60.0
917,196.44389871666664,196.65187270208332,61.0,59.0
918,196.18527821666663,196.69928646041663,45.0,70.0
919,196.70251921666664,197.01717415833332,69.0,69.0
920,196.70251921666664,197.03872586666665,64.0,73.0
921,196.96113971666665,197.29626878124998,61.0,60.0
922,197.47838071666663,197.7865701458333,59.0,54.0
923,197.21976021666666,198.05273374374997,47.0,80.0
924,197.73700121666664,198.08290613541664,63.0,61.0
925,197.73700121666664,198.11200094166662,66.0,56.0
926,197.99562171666665,198.3135094145833,59.0,54.0
927,198.51286271666663,198.84152626875,59.0,60.0
928,198.25424221666663,199.06458644999998,47.0,76.0
929,198.77148321666664,199.1378622583333,63.0,73.0
930,198.77148321666664,199.27794836249996,66.0,70.0
931,199.03010371666664,199.37816380624997,59.0,58.0
932,199.54734471666666,199.74346526249997,59.0,71.0
933,199.80596521666664,199.9654478583333,66.0,68.0
934,199.80596521666664,199.97730129791665,63.0,76.0
935,199.28872421666665,200.14432703749998,47.0,75.0
936,200.06458571666664,200.46113714999996,59.0,71.0
937,200.32320621666662,200.95036092916664,47.0,82.0
938,200.58182671666663,200.9611367833333,59.0,69.0
939,200.84044721666663,201.16480042708332,51.0,73.0
940,201.09906771666664,201.44497263541663,64.0,77.0
941,201.61630871666665,201.9374291708333,59.0,68.0
942,201.87492921666666,202.12600661874995,64.0,78.0
943,201.35768821666665,202.26178238125,52.0,80.0
944,201.87492921666666,202.51609253958333,68.0,73.0
945,202.13354971666664,202.52471322291666,59.0,69.0
946,202.65079071666662,202.8598422875,59.0,71.0
947,202.39217021666664,203.19389376666663,52.0,79.0
948,203.16803171666663,203.52902283124996,59.0,46.0
949,202.90941121666663,203.6313934458333,64.0,73.0
950,202.90941121666663,203.68742788749998,68.0,76.0
951,203.68527271666665,203.97622077916662,59.0,61.0
952,203.42665221666664,204.31781535624998,52.0,75.0
953,203.94389321666665,204.54734104999997,68.0,72.0
954,204.20251371666666,204.55380656249997,59.0,63.0
955,203.94389321666665,204.65725476249997,64.0,75.0
956,204.71975471666664,204.94173731249998,59.0,62.0
957,204.46113421666664,205.40402145624998,52.0,80.0
958,204.97837521666662,205.41371972499996,64.0,76.0
959,204.97837521666662,205.55703858541665,68.0,59.0
960,205.23699571666663,205.56996961041665,59.0,56.0
961,205.75423671666664,206.0430296083333,59.0,62.0
962,205.49561621666663,206.35229662291664,51.0,76.0
963,206.01285721666665,206.5570378520833,66.0,59.0
964,206.01285721666665,206.6281584895833,63.0,72.0
965,206.27147771666665,206.6346240020833,59.0,60.0
966,206.78871871666664,207.09798573125,59.0,69.0
967,206.53009821666666,207.39216654999996,51.0,80.0
968,207.04733921666664,207.60229570624998,63.0,81.0
969,207.30595971666662,207.64539912291664,59.0,60.0
970,207.04733921666664,207.64863187916666,66.0,76.0
971,207.82320071666663,208.12923497499997,59.0,72.0
972,207.56458021666663,208.3997089145833,51.0,76.0
973,208.08182121666664,208.44712267291663,63.0,78.0
974,208.34044171666665,208.6874242208333,59.0,69.0
975,208.08182121666664,208.69281214791664,66.0,72.0
976,208.85768271666666,209.15725146249997,59.0,71.0
977,208.59906221666665,209.17126007291665,51.0,79.0
978,209.11630321666664,209.4535874520833,63.0,76.0
979,209.11630321666664,209.49130294166665,66.0,63.0
980,209.37492371666664,209.71113036666662,59.0,69.0
981,209.89216471666663,210.19604380416664,57.0,72.0
982,209.63354421666662,210.48375911041666,45.0,78.0
983,210.15078521666663,210.6885003395833,61.0,75.0
984,210.15078521666663,210.75423304999998,64.0,80.0
985,210.40940571666664,210.82212093124997,57.0,71.0
986,210.92664671666665,211.2348361458333,57.0,75.0
987,210.66802621666665,211.46436183958332,45.0,73.0
988,211.18526721666666,211.76069782916665,64.0,72.0
989,211.44388771666664,211.82643053958333,57.0,72.0
990,211.18526721666666,211.8490598333333,61.0,79.0
991,211.96112871666662,212.26177504791664,57.0,75.0
992,211.70250821666664,212.5861282583333,45.0,75.0
993,212.47836971666663,212.84151600208332,57.0,73.0
994,212.21974921666663,212.8479815145833,64.0,69.0
995,212.21974921666663,212.85875736875,61.0,80.0
996,212.73699021666664,213.28979153541664,45.0,83.0
997,212.99561071666665,213.29948980416663,57.0,75.0
998,213.51285171666666,213.65724816249997,57.0,52.0
999,213.25423121666665,213.88030834374996,61.0,79.0
1000,213.51285171666666,213.9244893458333,64.0,74.0
1001,214.03009271666664,214.40832519791664,54.0,59.0
1002,213.77147221666664,214.6400060625,47.0,79.0
1003,214.28871321666662,214.87923002499997,59.0,80.0
1004,214.54733371666663,214.8943162208333,54.0,35.0
1005,214.54733371666663,214.93849722291662,63.0,79.0
1006,215.06457471666664,215.44280719791664,54.0,44.0
1007,215.32319521666665,215.53655712916662,59.0,75.0
1008,214.80595421666663,215.68957425833332,47.0,73.0
1009,215.58181571666665,215.90832409791665,59.0,48.0
1010,215.58181571666665,216.0387119333333,63.0,80.0
1011,215.58181571666665,216.12707393749997,66.0,74.0
1012,216.09905671666664,216.40940131666665,59.0,76.0
1013,216.35767721666664,216.62707357083332,63.0,75.0
1014,215.84043621666666,216.75638382083332,47.0,79.0
1015,216.61629771666662,217.00207329583333,59.0,82.0
1016,216.61629771666662,217.21974554999997,66.0,78.0
1017,217.13353871666664,217.30271962708332,59.0,75.0
1018,217.39215921666664,217.57965907916665,61.0,71.0
1019,216.87491821666663,217.879227825,47.0,79.0
1020,217.65077971666665,217.96327948749996,66.0,68.0
1021,217.90940021666665,218.09582249374998,68.0,11.0
1022,217.90940021666665,218.45896877916664,76.0,83.0
1023,218.16802071666666,218.74452891458333,59.0,62.0
1024,218.42664121666664,218.8479771145833,64.0,67.0
1025,218.68526171666664,219.08935624791664,66.0,78.0
1026,218.68526171666664,219.29086472083333,71.0,84.0
1027,219.20250271666663,219.59151105208332,59.0,72.0
1028,217.90940021666665,219.5947438083333,52.0,59.0
1029,219.46112321666664,219.68957132499997,64.0,78.0
1030,219.71974371666664,220.13569168749996,71.0,78.0
1031,219.97836421666665,220.3479760145833,63.0,74.0
1032,219.97836421666665,220.4029328708333,66.0,79.0
1033,220.23698471666665,220.92556179791666,59.0,58.0
1034,220.49560521666666,221.14862197916665,63.0,71.0
1035,220.75422571666664,221.39862179583332,64.0,83.0
1036,221.27146671666662,221.5958199270833,59.0,62.0
1037,219.97836421666665,221.64323368541665,51.0,79.0
1038,221.53008721666663,221.7574577395833,66.0,79.0
1039,221.78870771666664,222.01715582499997,68.0,74.0
1040,222.04732821666664,222.39000037916662,59.0,68.0
1041,222.04732821666664,222.51284511666665,64.0,76.0
1042,222.56456921666665,222.75745700624998,59.0,60.0
1043,222.82318971666666,222.89646552499997,59.0,30.0
1044,222.30594871666665,222.92663791666664,56.0,56.0
1045,222.82318971666666,223.11306019374996,63.0,78.0
1046,223.34043071666665,223.59258570416665,64.0,83.0
1047,223.08181021666664,223.6162925833333,56.0,60.0
1048,223.34043071666665,223.62383568124997,59.0,82.0
1049,222.04732821666664,223.6324563645833,49.0,76.0
1050,223.85767171666663,224.0559474333333,54.0,63.0
1051,224.11629221666664,224.24236971041665,54.0,19.0
1052,224.11629221666664,224.60982633749995,59.0,83.0
1053,224.11629221666664,224.74344692916662,66.0,78.0
1054,224.63353321666665,225.11198114166666,56.0,57.0
1055,224.89215371666666,225.42232574166664,59.0,79.0
1056,224.89215371666666,225.48159293958332,63.0,73.0
1057,224.11629221666664,225.6012049208333,44.0,77.0
1058,224.37491271666664,225.67663589999998,51.0,72.0
1059,225.66801521666665,225.92986847291664,64.0,78.0
1060,225.40939471666664,226.0893511145833,56.0,56.0
1061,225.92663571666662,226.24775617083333,66.0,73.0
1062,226.18525621666663,226.72081616875,64.0,80.0
1063,226.18525621666663,226.73482477916664,61.0,79.0
1064,226.70249721666664,227.22297097291664,57.0,70.0
1065,226.96111771666665,227.48374664374995,59.0,77.0
1066,226.96111771666665,227.5311604020833,64.0,54.0
1067,227.47835871666666,227.74344472916664,57.0,58.0
1068,226.44387671666664,227.74667748541663,52.0,71.0
1069,226.18525621666663,227.76930677916664,45.0,78.0
1070,227.73697921666664,227.98482386249998,59.0,76.0
1071,227.99559971666665,228.21542714166662,66.0,79.0
1072,228.25422021666662,228.60120272083333,59.0,73.0
1073,228.25422021666662,228.61521133124998,64.0,73.0
1074,228.25422021666662,228.65723716249997,68.0,76.0
1075,228.51284071666663,229.38784007499999,56.0,62.0
1076,229.03008171666664,229.63352955,71.0,84.0
1077,228.77146121666664,229.70249501666666,59.0,61.0
1078,229.54732271666666,229.79840011874995,56.0,60.0
1079,228.25422021666662,229.88245178124998,52.0,62.0
1080,229.80594321666663,230.2305118708333,68.0,74.0
1081,230.32318421666665,230.82749419166663,42.0,77.0
1082,230.58180471666662,230.87706312083333,49.0,63.0
1083,230.84042521666663,231.1356836208333,52.0,67.0
1084,230.32318421666665,231.38245068124996,64.0,63.0
1085,230.32318421666665,231.4137006583333,61.0,72.0
1086,230.32318421666665,231.46757992916665,69.0,81.0
1087,231.09904571666664,231.82749345833332,54.0,73.0
1088,231.48697646666665,231.88783824166666,57.0,77.0
1089,231.61628671666665,231.90507960833332,61.0,75.0
1090,231.87490721666666,232.11736393541662,66.0,74.0
1091,232.13352771666663,232.3932258020833,68.0,75.0
1092,232.39214821666664,232.74775140416665,59.0,71.0
1093,232.39214821666664,233.0074494895833,64.0,79.0
1094,232.90938921666663,233.48158707291662,54.0,73.0
1095,233.42663021666664,233.6443024708333,66.0,79.0
1096,233.16800971666663,233.70356966875,59.0,75.0
1097,233.68525071666664,233.90184538541664,64.0,77.0
1098,232.39214821666664,233.98589704791664,47.0,80.0
1099,232.65076871666665,234.01068151249996,52.0,72.0
1100,233.94387121666665,234.17986242291664,63.0,63.0
1101,234.20249171666666,234.44494843541662,59.0,56.0
1102,234.46111221666663,234.92231877499998,40.0,79.0
1103,234.71973271666664,234.97404287499998,47.0,69.0
1104,234.46111221666663,234.97404287499998,56.0,71.0
1105,234.46111221666663,235.08395658749998,64.0,82.0
1106,234.97835321666665,235.35119777083332,52.0,69.0
1107,235.23697371666663,235.76068022916664,54.0,73.0
1108,235.49559421666663,235.81240432916664,56.0,71.0
1109,235.75421471666664,235.96003353124996,59.0,79.0
1110,236.01283521666664,236.25098159374997,66.0,78.0
1111,236.27145571666665,237.00313621458332,71.0,80.0
1112,236.53007621666666,237.03438619166664,66.0,78.0
1113,237.30593771666665,237.51606687291664,66.0,75.0
1114,237.04731721666664,237.61412714583332,63.0,69.0
1115,237.56455821666663,237.78007529999996,71.0,79.0
1116,236.78869671666664,237.93632518541665,59.0,53.0
1117,237.82317871666663,238.01714409166664,73.0,75.0
1118,238.08179921666664,238.21649739375,59.0,71.0
1119,236.53007621666666,238.24882495624996,51.0,71.0
1120,238.08179921666664,238.57317816666665,75.0,68.0
1121,238.59904021666665,238.99559165,76.0,77.0
1122,238.59904021666665,239.13567775416664,68.0,71.0
1123,238.85766071666666,239.37059137499998,56.0,57.0
1124,239.11628121666664,239.48158267291666,61.0,59.0
1125,239.37490171666664,239.88783237499996,71.0,84.0
1126,239.37490171666664,239.93955647499996,64.0,62.0
1127,239.89214271666663,240.20140973124998,56.0,55.0
1128,238.59904021666665,240.22080626874998,49.0,72.0
1129,240.15076321666663,240.37166822708332,63.0,60.0
1130,240.15076321666663,240.3910647645833,66.0,77.0
1131,240.40938371666664,240.6399869958333,68.0,63.0
1132,240.66800421666665,241.15615041041664,59.0,62.0
1133,240.66800421666665,241.17770211874998,66.0,73.0
1134,240.66800421666665,241.17877970416663,63.0,60.0
1135,241.44386571666664,241.82533095416665,59.0,72.0
1136,241.18524521666666,242.00636530416665,54.0,58.0
1137,240.66800421666665,242.18416689791664,44.0,75.0
1138,240.92662471666665,242.2725289020833,51.0,57.0
1139,241.96110671666662,242.2919254395833,66.0,77.0
1140,241.96110671666662,242.30270129374998,59.0,76.0
1141,242.47834771666663,242.68632170208332,64.0,71.0
1142,242.21972721666663,242.68739928749997,54.0,60.0
1143,242.73696821666664,243.2003299458333,64.0,55.0
1144,242.73696821666664,243.2908471208333,61.0,75.0
1145,243.25420921666665,243.85550187916664,57.0,58.0
1146,243.51282971666666,244.08718274374996,64.0,81.0
1147,243.51282971666666,244.1119672083333,59.0,79.0
1148,244.03007071666664,244.29515672916665,57.0,62.0
1149,242.99558871666665,244.33718256041664,52.0,72.0
1150,242.73696821666664,244.45463937083332,45.0,79.0
1151,244.28869121666662,244.53222552083332,59.0,81.0
1152,244.28869121666662,244.75097536041665,63.0,75.0
1153,244.80593221666663,245.02575964166664,56.0,68.0
1154,244.80593221666663,245.21864743124996,64.0,74.0
1155,244.80593221666663,245.3016215083333,59.0,78.0
1156,245.32317321666665,245.65183676874997,56.0,68.0
1157,244.80593221666663,245.90506934166666,52.0,75.0
1158,245.58179371666665,246.0386899333333,66.0,79.0
1159,245.58179371666665,246.15830191458332,59.0,79.0
1160,246.09903471666664,246.37597416874996,52.0,71.0
1161,246.35765521666664,246.45571548958333,68.0,78.0
1162,246.35765521666664,246.49450856458333,59.0,80.0
1163,246.87489621666663,247.34687862916664,64.0,75.0
1164,246.87489621666663,247.37489584999997,61.0,59.0
1165,246.87489621666663,247.39752514375,57.0,77.0
1166,246.87489621666663,247.75097316041663,42.0,78.0
1167,247.13351671666663,247.77252486874997,49.0,68.0
1168,247.39213721666664,247.77683521041664,54.0,57.0
1169,247.65075771666665,247.78222313749995,57.0,72.0
1170,247.90937821666665,248.2401969395833,59.0,86.0
1171,247.90937821666665,248.26498140416663,63.0,82.0
1172,248.16799871666666,248.53976568541663,51.0,76.0
1173,247.90937821666665,248.57640358958332,47.0,81.0
1174,248.42661921666664,248.6345932020833,61.0,82.0
1175,248.68523971666664,248.91368782499995,63.0,75.0
1176,248.94386021666662,249.39213574999997,59.0,75.0
1177,248.94386021666662,249.47295465624998,64.0,81.0
1178,248.94386021666662,249.49989429166664,56.0,63.0
1179,249.46110121666663,249.81347164791663,52.0,63.0
1180,249.71972171666664,250.3220919645833,56.0,69.0
1181,249.71972171666664,250.32316955,63.0,82.0
1182,248.94386021666662,250.56670385416663,40.0,78.0
1183,250.23696271666665,250.72403132499997,52.0,61.0
1184,250.49558321666666,250.78006576666664,59.0,60.0
1185,250.75420371666664,250.98157423958332,63.0,74.0
1186,249.20248071666663,251.1044189770833,47.0,73.0
1187,251.01282421666664,251.1399792958333,68.0,58.0
1188,251.01282421666664,251.46864284791664,61.0,76.0
1189,251.01282421666664,251.57209104791664,45.0,83.0
1190,251.01282421666664,251.5828669020833,64.0,82.0
1191,251.27144471666662,251.59795309791664,52.0,71.0
1192,251.53006521666663,251.7132547375,57.0,71.0
1193,251.78868571666663,252.01066831249997,68.0,73.0
1194,252.04730621666664,252.37273701249995,59.0,82.0
1195,252.04730621666664,252.46540935833332,66.0,77.0
1196,252.04730621666664,252.59579719374997,47.0,84.0
1197,252.30592671666665,252.69385746666666,54.0,62.0
1198,252.56454721666665,252.7531246645833,64.0,83.0
1199,252.82316771666666,253.13351231666664,64.0,61.0
1200,252.82316771666666,253.15398643958332,59.0,80.0
1201,252.82316771666666,253.30053805625,68.0,79.0
1202,253.85764971666663,253.98372721041665,68.0,67.0
1203,253.85764971666663,254.01605477291665,76.0,82.0
1204,253.34040871666664,254.1496753645833,59.0,73.0
1205,253.59902921666662,254.22941668541665,64.0,59.0
1206,254.11627021666663,254.2660545895833,75.0,71.0
1207,254.11627021666663,254.3824338145833,66.0,78.0
1208,254.24558046666664,254.61734743541666,59.0,73.0
1209,253.08178821666664,254.70355426874997,52.0,76.0
1210,254.63351121666665,254.77251973541664,64.0,80.0
1211,254.63351121666665,254.81670073749996,71.0,84.0
1212,255.15075221666666,255.57747604166664,64.0,78.0
1213,255.15075221666666,255.59040706666664,69.0,79.0
1214,255.15075221666666,255.5947174083333,61.0,76.0
1215,255.40937271666664,255.7078638770833,52.0,78.0
1216,255.15075221666666,255.72187248749998,45.0,83.0
1217,255.66799321666664,255.82532068749998,57.0,76.0
1218,255.92661371666662,256.07747567499996,66.0,72.0
1219,256.0559239666666,256.26928587916666,68.0,69.0
1220,256.18523421666663,256.5505356729166,59.0,76.0
1221,256.18523421666663,256.5936390895833,66.0,79.0
1222,256.44385471666664,256.6712252395833,54.0,73.0
1223,256.18523421666663,256.68846660624996,47.0,80.0
1224,256.70247521666664,256.91260437291663,64.0,76.0
1225,257.21971621666665,257.70139689791665,40.0,80.0
1226,257.47833671666666,257.7380348020833,47.0,76.0
1227,257.7369572166666,258.04622423125,52.0,73.0
1228,256.96109571666665,258.1712241395833,64.0,72.0
1229,256.96109571666665,258.24665511874997,68.0,75.0
1230,256.96109571666665,258.27574992499996,59.0,78.0
1231,257.9955777166666,258.56023247499996,54.0,76.0
1232,258.2541982166666,258.58932728125,56.0,80.0
1233,258.51281871666663,258.6884651395833,59.0,73.0
1234,258.77143921666664,259.06777520624996,64.0,83.0
1235,259.03005971666664,259.28760263124997,66.0,76.0
1236,259.28868021666665,259.74342126249996,69.0,83.0
1237,259.28868021666665,259.77898158125,64.0,84.0
1238,259.28868021666665,259.83501602291665,61.0,79.0
1239,259.28868021666665,259.84040395,45.0,82.0
1240,259.80592121666666,259.9363090520833,57.0,79.0
1241,260.3231622166667,260.63673957291667,63.0,79.0
1242,260.3231622166667,260.7013946979166,59.0,74.0
1243,260.3231622166667,260.7218688208333,66.0,79.0
1244,260.3231622166667,260.87919629166663,47.0,78.0
1245,260.3231622166667,260.91798936666663,54.0,76.0
1246,260.84040321666663,261.01389446875,64.0,77.0
1247,261.09902371666664,261.59579059375,68.0,79.0
1248,261.09902371666664,261.7046267208333,59.0,68.0
1249,261.09902371666664,261.715402575,64.0,81.0
1250,261.87488521666666,262.0246695895833,59.0,63.0
1251,261.87488521666666,262.04945405416663,66.0,69.0
1252,261.61626471666665,262.3554883125,56.0,69.0
1253,262.13350571666666,262.73372079374997,59.0,78.0
1254,262.13350571666666,262.74880698958333,64.0,82.0
1255,262.6507467166666,262.98048785416665,56.0,78.0
1256,261.35764421666664,263.05699641875,52.0,78.0
1257,262.9093672166666,263.17553081458334,66.0,79.0
1258,262.9093672166666,263.18307391249994,59.0,80.0
1259,263.16798771666663,263.40613409375,68.0,78.0
1260,263.42660821666664,263.680918375,57.0,60.0
1261,263.42660821666664,263.76604762291663,69.0,84.0
1262,263.42660821666664,263.80376311249995,64.0,83.0
1263,263.42660821666664,263.84363377291663,61.0,81.0
1264,263.94384921666665,264.12811632291664,61.0,78.0
1265,263.94384921666665,264.21432315625,68.0,80.0
1266,264.20246971666666,264.7240210583333,61.0,59.0
1267,264.20246971666666,264.74557276666667,64.0,84.0
1268,263.42660821666664,264.90613299374996,45.0,84.0
1269,264.9783312166667,265.1615207375,61.0,79.0
1270,264.9783312166667,265.19061554374997,68.0,79.0
1271,264.71971071666667,265.39751194375,57.0,76.0
1272,265.2369517166667,265.5225118520833,61.0,39.0
1273,265.2369517166667,265.55376182916666,64.0,80.0
1274,265.3662619666667,265.6162617833333,71.0,45.0
1275,265.75419271666664,266.0397528520833,57.0,79.0
1276,266.01281321666664,266.1054855625,73.0,73.0
1277,266.01281321666664,266.13458036875,85.0,79.0
1278,266.27143371666665,266.37595950208333,75.0,78.0
1279,266.27143371666665,266.40182155208333,87.0,91.0
1280,266.53005421666666,266.60656278125,57.0,59.0
1281,266.53005421666666,266.6184162208333,76.0,72.0
1282,266.53005421666666,266.6593644666666,88.0,91.0
1283,266.7886747166666,266.8544074270833,57.0,48.0
1284,266.9179849666666,267.00742455625,78.0,75.0
1285,266.9179849666666,267.03005384999994,90.0,81.0
1286,265.49557221666663,267.14966583125,45.0,84.0
1287,267.0472952166666,267.20138993125,57.0,79.0
1288,267.3059157166666,267.40613116041663,92.0,84.0
1289,267.3059157166666,267.42121735624994,80.0,72.0
1290,267.5645362166666,267.83177739999996,90.0,82.0
1291,267.5645362166666,267.9147514770833,78.0,68.0
1292,268.34039771666664,268.62811302291664,64.0,82.0
1293,268.59901821666665,268.7003112458333,66.0,75.0
1294,268.85763871666666,269.07638855625,71.0,57.0
1295,267.5645362166666,269.22617292916664,47.0,83.0
1296,268.08177721666664,269.2498798083333,59.0,71.0
1297,269.11625921666666,269.27143151666667,76.0,79.0
1298,267.82315671666663,269.4826382583333,54.0,76.0
1299,269.37487971666667,269.86949142291667,75.0,79.0
1300,269.8921207166667,270.08500850625,71.0,83.0
1301,270.15074121666663,270.2584997583333,66.0,52.0
1302,269.8921207166667,270.30160317499997,54.0,72.0
1303,270.15074121666663,270.4136720583333,59.0,52.0
1304,270.40936171666664,270.54837023541666,64.0,81.0
1305,270.66798221666664,270.8306976145833,63.0,81.0
1306,270.92660271666665,271.05375779583335,54.0,77.0
1307,269.6335002166667,271.1216456770833,47.0,78.0
1308,270.92660271666665,271.14643014166666,59.0,80.0
1309,271.1852232166666,271.34255068749997,56.0,44.0
1310,271.5731539666666,272.07423118541664,71.0,83.0
1311,271.5731539666666,272.1712138729166,68.0,40.0
1312,271.7024642166666,272.37379993125,76.0,83.0
1313,271.9610847166666,272.60655838125,59.0,76.0
1314,272.2197052166666,272.7509548270833,64.0,76.0
1315,272.47832571666663,272.97078225208327,66.0,78.0
1316,272.47832571666663,273.15397177291663,71.0,90.0
1317,271.5731539666666,273.36948885625,52.0,78.0
1318,272.99556671666664,273.49233359375,59.0,76.0
1319,273.25418721666665,273.54082493749996,64.0,83.0
1320,273.77142821666666,274.20353996874996,63.0,80.0
1321,273.77142821666666,274.25418648333334,66.0,82.0
1322,273.51280771666666,274.38457431874997,71.0,84.0
1323,274.03004871666667,274.8253067541666,59.0,69.0
1324,274.2886692166667,274.8350050229167,63.0,75.0
1325,274.5472897166667,274.87810843958334,64.0,83.0
1326,273.77142821666666,275.09901345,51.0,79.0
1327,274.80591021666663,275.11625481666664,66.0,80.0
1328,275.06453071666664,275.35763395,68.0,72.0
1329,275.32315121666664,275.655047525,71.0,84.0
1330,275.58177171666665,275.87164219374995,68.0,73.0
1331,275.8403922166666,276.4621590020833,45.0,78.0
1332,276.0990127166666,276.48047795416664,52.0,79.0
1333,276.3576332166666,276.5257365416667,57.0,70.0
1334,275.8403922166666,276.5537537625,64.0,79.0
1335,275.8403922166666,276.61302096041663,59.0,62.0
1336,276.6162537166666,276.95138278125,68.0,71.0
1337,276.8748742166666,277.2671153083333,59.0,75.0
1338,276.8748742166666,277.3436238729166,66.0,79.0
1339,277.13349471666663,277.491253075,54.0,72.0
1340,276.8748742166666,277.517115125,47.0,83.0
1341,277.39211521666664,277.58608059166664,64.0,79.0
1342,277.65073571666665,277.89642519166665,66.0,77.0
1343,277.90935621666665,278.3533214083333,40.0,72.0
1344,278.16797671666666,278.41474377708334,47.0,78.0
1345,278.42659721666666,278.7886659166667,52.0,60.0
1346,277.90935621666665,278.99125197499995,59.0,75.0
1347,277.90935621666665,278.9934071458333,68.0,80.0
1348,278.68521771666667,279.13026049375,54.0,73.0
1349,278.9438382166667,279.17336391041664,56.0,78.0
1350,279.2024587166667,279.40181201875,59.0,82.0
1351,279.46107921666663,279.76603588958335,64.0,73.0
1352,279.71969971666664,279.9115099208333,71.0,80.0
1353,279.97832021666665,280.5957766604166,68.0,74.0
1354,279.97832021666665,280.73155242291665,76.0,90.0
1355,280.23694071666665,280.8166816708333,59.0,72.0
1356,280.4955612166666,280.8716385270833,64.0,71.0
1357,280.7541817166666,281.1162504166666,71.0,84.0
1358,280.7541817166666,281.22724171458333,66.0,80.0
1359,281.2714227166666,281.43413811458333,59.0,83.0
1360,279.97832021666665,281.5020259958333,52.0,76.0
1361,281.5300432166666,281.78219820416666,64.0,80.0
1362,282.04728421666664,282.38349086666665,58.0,54.0
1363,281.78866371666663,282.4449132354166,66.0,69.0
1364,282.04728421666664,282.6237924145833,63.0,80.0
1365,282.82314571666666,283.1604299520833,59.0,86.0
1366,283.08176621666667,283.41150735416664,63.0,82.0
1367,282.56452521666665,283.5106452125,56.0,79.0
1368,282.04728421666664,283.56991241041663,44.0,82.0
1369,283.34038671666667,283.64318821874997,66.0,80.0
1370,282.30590471666665,283.64534338958333,51.0,80.0
1371,283.5990072166667,283.82745532499996,68.0,75.0
1372,283.8576277166667,284.0031017479166,71.0,72.0
1373,284.11624821666663,284.7283167333333,61.0,72.0
1374,284.11624821666663,284.76064429583334,64.0,82.0
1375,284.11624821666663,284.77249773541666,69.0,77.0
1376,284.11624821666663,284.90396315625,45.0,84.0
1377,284.37486871666664,284.97077345208334,52.0,77.0
1378,284.63348921666665,284.97939413541667,57.0,68.0
1379,284.89210971666665,285.02034238125,61.0,79.0
1380,285.1507302166666,285.2164629270833,61.0,53.0
1381,285.1507302166666,285.25525600208334,59.0,67.0
1382,285.1507302166666,285.61947987291666,66.0,86.0
1383,285.1507302166666,285.71646256041663,47.0,84.0
1384,285.4093507166666,285.8500831520833,54.0,79.0
1385,285.6679712166666,285.9761606458333,59.0,79.0
1386,285.9265917166666,286.17120360624995,66.0,78.0
1387,286.1852122166666,286.5505136729166,64.0,81.0
1388,286.1852122166666,286.65072911666664,68.0,76.0
1389,286.96107371666665,287.33499585625,68.0,68.0
1390,286.70245321666664,287.5246508895833,63.0,60.0
1391,287.47831471666666,287.8166765375,66.0,77.0
1392,287.47831471666666,287.8490041,76.0,86.0
1393,287.73693521666667,288.0483574020833,63.0,60.0
1394,286.1852122166666,288.05482291458327,52.0,75.0
1395,286.44383271666663,288.2283141666667,59.0,71.0
1396,288.2541762166667,288.7789603145833,64.0,78.0
1397,288.2541762166667,288.8339171708333,61.0,74.0
1398,288.2541762166667,288.95137398124996,68.0,72.0
1399,288.77141721666663,289.10762386666664,57.0,75.0
1400,288.5127967166667,289.3705547083333,52.0,69.0
1401,289.03003771666664,289.3813305625,59.0,82.0
1402,289.28865821666665,289.3996495145833,57.0,76.0
1403,288.2541762166667,289.413658125,45.0,82.0
1404,289.03003771666664,289.42658915,66.0,75.0
1405,289.54727871666665,289.78542509374995,47.0,84.0
1406,289.54727871666665,289.85654573125,64.0,81.0
1407,289.54727871666665,289.9071922458333,59.0,78.0
1408,289.8058992166666,290.14533862291665,66.0,80.0
1409,290.0645197166666,290.603312425,68.0,79.0
1410,290.5817607166666,291.0936137895833,59.0,73.0
1411,290.84038121666663,291.21107059999997,64.0,68.0
1412,291.09900171666663,291.2843464083333,68.0,71.0
1413,291.09900171666663,291.4395187083333,76.0,84.0
1414,291.35762221666664,291.5882254958333,59.0,56.0
1415,291.61624271666665,291.78542362708333,71.0,83.0
1416,291.61624271666665,291.8177511895833,66.0,77.0
1417,290.3231402166666,291.93736317083335,52.0,79.0
1418,291.87486321666665,291.9589148791666,59.0,63.0
1419,292.13348371666666,292.35654389791665,64.0,76.0
1420,292.39210421666667,292.9255089979166,68.0,80.0
1421,292.39210421666667,292.99555205,45.0,83.0
1422,292.39210421666667,293.00740548958333,61.0,76.0
1423,292.6507247166667,293.0257244416666,52.0,69.0
1424,292.9093452166667,293.0979226645833,57.0,75.0
1425,293.1679657166667,293.37162936041665,68.0,68.0
1426,293.42658621666664,293.45891377916666,68.0,40.0
1427,293.42658621666664,293.7854221604166,59.0,77.0
1428,293.42658621666664,293.82313765,66.0,81.0
1429,293.42658621666664,293.98585304791663,47.0,84.0
1430,293.68520671666664,294.0796029791667,54.0,75.0
1431,293.94382721666665,294.13348225,64.0,80.0
1432,294.20244771666665,294.44167167916663,66.0,80.0
1433,294.4610682166666,294.73261974166667,64.0,82.0
1434,294.4610682166666,294.8069731354167,68.0,80.0
1435,294.7196887166666,295.12701600416665,59.0,73.0
1436,294.9783092166666,295.2660245229166,64.0,63.0
1437,295.2369297166666,295.3662399666666,68.0,68.0
1438,295.2369297166666,295.37378306458334,76.0,82.0
1439,295.49555021666663,295.72723108125,66.0,76.0
1440,295.49555021666663,295.72830866666663,71.0,80.0
1441,294.4610682166666,296.0742135854166,52.0,78.0
1442,295.75417071666664,296.10546356249995,59.0,78.0
1443,295.88348096666664,296.1302480270833,64.0,82.0
1444,295.88348096666664,296.16473076041666,68.0,79.0
1445,296.27141171666665,296.4847736291666,66.0,77.0
1446,296.53003221666665,297.107618,59.0,78.0
1447,296.53003221666665,297.13671280625,64.0,82.0
1448,296.53003221666665,297.18843690625,45.0,83.0
1449,296.78865271666666,297.18843690625,52.0,73.0
1450,297.04727321666667,297.27895408124994,57.0,75.0
1451,297.3058937166667,297.4718418708333,59.0,78.0
1452,297.5645142166667,297.89641052499996,59.0,80.0
1453,297.5645142166667,297.91149672083327,66.0,81.0
1454,297.5645142166667,297.99123804166663,47.0,83.0
1455,297.82313471666663,298.0569707520833,54.0,73.0
1456,298.08175521666664,298.2735654208333,64.0,80.0
1457,298.34037571666664,298.57852209374994,66.0,76.0
1458,298.59899621666665,299.0849872395833,68.0,75.0
1459,298.59899621666665,299.1625733895833,59.0,73.0
1460,299.3748577166666,299.6593402666666,59.0,78.0
1461,299.6334782166666,299.81127981041664,61.0,78.0
1462,299.8920987166666,300.08283133541664,64.0,82.0
1463,298.59899621666665,300.09791753125,40.0,75.0
1464,299.1162372166666,300.10546062916666,52.0,76.0
1465,298.85761671666666,300.1140813125,47.0,77.0
1466,300.15071921666663,300.3619259583333,66.0,79.0
1467,300.40933971666664,300.75093429375,68.0,71.0
1468,300.66796021666664,301.2606321958333,69.0,79.0
1469,300.66796021666664,301.2724856354166,45.0,83.0
1470,300.92658071666665,301.2897270020833,52.0,54.0
1471,300.66796021666664,301.34037351666666,64.0,77.0
1472,301.18520121666666,301.36946832291665,57.0,39.0
1473,300.66796021666664,301.3996407145833,61.0,70.0
1474,301.44382171666666,301.7380025354166,71.0,60.0
1475,301.70244221666667,302.2584762916666,47.0,79.0
1476,301.70244221666667,302.27464007291667,68.0,78.0
1477,301.9610627166667,302.3209762458333,54.0,75.0
1478,302.2196832166667,302.47507096041664,66.0,75.0
1479,302.2196832166667,302.6636484083333,59.0,70.0
1480,302.47830371666663,303.00739815625,64.0,79.0
1481,302.99554471666664,303.64532872291664,59.0,76.0
1482,303.51278571666666,303.6916648958333,71.0,73.0
1483,303.25416521666665,303.9890784708333,64.0,71.0
1484,303.7714062166666,304.0138629354167,75.0,73.0
1485,304.0300267166666,304.15825938125,76.0,79.0
1486,302.73692421666664,304.36515578125,52.0,72.0
1487,304.2886472166666,304.39963851458333,59.0,72.0
1488,304.2886472166666,304.59144871875,75.0,63.0
1489,304.5472677166666,304.78541409375,71.0,60.0
1490,304.80588821666663,305.10222420624996,73.0,76.0
1491,304.80588821666663,305.5386463,45.0,79.0
1492,305.06450871666664,305.5472669833333,52.0,71.0
1493,305.32312921666664,305.67442206249996,57.0,61.0
1494,305.58174971666665,305.74015477291664,61.0,60.0
1495,305.84037021666666,306.1992061604167,59.0,75.0
1496,305.84037021666666,306.24769750416664,66.0,73.0
1497,306.09899071666666,306.44058529375,54.0,61.0
1498,305.84037021666666,306.45459390416664,47.0,77.0
1499,306.35761121666667,306.5429559083333,64.0,69.0
1500,306.6162317166667,307.1787313041666,59.0,73.0
1501,306.6162317166667,307.23907608749994,68.0,76.0
1502,307.39209321666664,307.57204998124996,59.0,57.0
1503,307.13347271666663,307.81881704166665,56.0,60.0
1504,307.65071371666664,308.19273918125,66.0,71.0
1505,307.65071371666664,308.2013598645833,59.0,48.0
1506,308.16795471666666,308.292954625,56.0,63.0
1507,306.8748522166667,308.32528218749997,52.0,72.0
1508,308.4265752166666,308.5504975395833,59.0,61.0
1509,308.9438162166666,309.1787298375,57.0,57.0
1510,308.9438162166666,309.48368651041665,64.0,71.0
1511,308.9438162166666,309.4976951208333,52.0,58.0
1512,308.9438162166666,309.5332554395833,45.0,75.0
1513,309.46105721666663,309.57528127083333,57.0,69.0
1514,308.9438162166666,309.5882122958333,61.0,68.0
1515,309.97829821666664,310.2175221791666,63.0,62.0
1516,309.97829821666664,310.361918625,59.0,60.0
1517,309.97829821666664,310.4459702875,66.0,63.0
1518,309.97829821666664,310.4535133854166,54.0,75.0
1519,309.97829821666664,310.45997889791664,47.0,73.0
1520,310.49553921666666,310.68519425,64.0,73.0
1521,310.75415971666666,311.30049552291666,59.0,38.0
1522,310.75415971666666,311.3048058645833,66.0,75.0
1523,311.5300212166667,311.6830383458333,59.0,58.0
1524,311.2714007166667,311.8996330145833,52.0,57.0
1525,311.78864171666663,312.10437424375,59.0,70.0
1526,312.04726221666664,312.31773615624996,52.0,40.0
1527,311.78864171666663,312.33174476666665,68.0,71.0
1528,311.01278021666667,312.58821009583335,40.0,79.0
1529,312.30588271666664,312.61838248749996,59.0,55.0
1530,312.30588271666664,312.6560979770833,66.0,73.0
1531,312.56450321666665,312.792951325,52.0,49.0
1532,313.0817442166666,313.62376968125,45.0,59.0
1533,313.0817442166666,313.6270024375,64.0,69.0
1534,313.0817442166666,313.6614851708333,61.0,56.0
1535,314.11622621666663,314.41902771875,66.0,63.0
1536,314.11622621666663,314.4211828895833,63.0,58.0
1537,314.11622621666663,314.46320872083334,59.0,56.0
1538,314.11622621666663,314.5537258958333,47.0,68.0
1539,315.15070821666666,316.78001736666664,52.0,53.0
1540,315.15070821666666,316.85652593124996,40.0,59.0
1541,315.15070821666666,316.8770000541666,56.0,47.0
1542,315.15070821666666,316.9136379583333,59.0,68.0
1543,315.15070821666666,316.94057759374994,64.0,57.0
