,start,end,pitch,velocity
0,38.46721662916667,39.159942891666674,57.0,92.0
1,39.33994262916667,39.71812389583334,57.0,92.0
2,39.77630562916667,40.28721397500001,55.0,61.0
3,40.21266862916667,41.48175768750001,57.0,77.0
4,41.95812062916667,42.35448368750001,57.0,89.0
5,42.39448362916667,42.80175576250001,60.0,99.0
6,42.83084662916667,43.25811873333334,57.0,83.0
7,43.26720962916667,43.736299854166674,55.0,75.0
8,43.70357262916667,44.95811625416667,57.0,73.0
9,45.44902462916667,46.20356898333334,53.0,85.0
10,46.32175062916667,46.73084094166667,53.0,86.0
11,46.75811362916667,47.17265847916667,55.0,76.0
12,47.19447662916667,47.64174870416667,57.0,70.0
13,47.63083962916667,48.04720265833334,60.0,79.0
14,48.06720262916667,48.739928920833336,57.0,78.0
15,48.93992862916667,49.5762913375,55.0,71.0
16,49.81265462916667,50.20901768750001,55.0,79.0
17,50.24901762916667,50.71992603333334,53.0,70.0
18,50.68538062916667,52.130833066666675,55.0,72.0
19,52.43083262916667,53.59083093750001,57.0,93.0
20,53.73992162916667,54.059921162500004,60.0,99.0
21,53.95810312916667,54.17083009166667,57.0,62.0
22,54.17628462916667,54.58719312083334,62.0,100.0
23,54.61264762916667,55.63082796250001,60.0,73.0
24,55.92173662916667,56.35991780833334,62.0,97.0
25,56.358099629166674,56.712644566666675,60.0,81.0
26,56.794462629166674,57.223552912500004,60.0,86.0
27,57.230825629166674,57.654461375000004,57.0,86.0
28,57.667188629166674,58.50536922500001,60.0,83.0
29,59.412640629166674,60.23991215000001,57.0,96.0
30,60.285366629166674,60.70536601666667,55.0,93.0
31,60.721729629166674,61.172638062500006,57.0,72.0
32,61.158092629166674,61.96718235833334,60.0,85.0
33,62.030818629166674,62.456272554166674,57.0,79.0
34,62.467181629166674,62.84172653750001,55.0,73.0
35,62.903544629166674,64.17081550833333,55.0,74.0
36,63.776270629166675,64.17081550833333,55.0,85.0
37,64.21263362916667,64.6853602125,53.0,69.0
38,64.64899662916667,66.05263094583334,55.0,70.0
39,66.39444862916667,67.08717489166668,57.0,92.0
40,67.26717462916668,67.64535589583335,57.0,92.0
41,67.70353762916668,68.2150675375,55.0,61.0
42,68.14019547291667,69.41484671875001,57.0,77.0
43,69.89329747291667,70.29139771875,57.0,89.0
44,70.33157297291667,70.74063010625001,60.0,99.0
45,70.76984847291668,71.19899323333334,57.0,83.0
46,71.20812397291668,71.67927013541667,55.0,75.0
47,71.64639947291667,72.90644153541668,57.0,73.0
48,73.39950147291668,74.15735285833334,53.0,85.0
49,74.27605247291667,74.68693575416668,53.0,86.0
50,74.71432797291668,75.13068969791668,55.0,76.0
51,75.15260347291668,75.60183586041667,57.0,70.0
52,75.59087897291667,76.00906684583335,60.0,79.0
53,76.02915447291667,76.70482920208335,57.0,78.0
54,76.90570547291668,77.54485724375002,55.0,71.0
55,77.78225647291667,78.18035671875,55.0,79.0
56,78.22053197291667,78.69350428333334,53.0,70.0
57,78.65880747291668,80.11059506666668,55.0,72.0
58,80.41190947291668,81.57699184375001,57.0,93.0
59,81.72673597291667,82.04813800625001,60.0,99.0
60,81.94587372291667,82.15930714166667,57.0,62.0
61,82.16476565416667,82.57597359583335,62.0,100.0
62,82.60144665416668,83.62036898750002,60.0,73.0
63,83.91148965416667,84.34999015833334,62.0,97.0
64,84.34817065416668,84.70297396666668,60.0,81.0
65,84.78485165416667,85.2142546375,60.0,86.0
66,85.22153265416668,85.64547712500001,57.0,86.0
67,85.65821365416667,86.497005075,60.0,83.0
68,87.40493765416667,88.23281205,57.0,96.0
69,88.27829965416667,88.69860511666667,55.0,93.0
70,88.71498065416668,89.16621768750001,57.0,72.0
71,89.15166165416667,89.96134100833335,60.0,85.0
72,90.02502365416667,90.45078762916668,57.0,79.0
73,90.46170465416668,90.83652251250001,55.0,73.0
74,90.89838565416667,91.31687161250001,55.0,86.0
75,91.33506665416668,93.498792975,53.0,81.0
76,96.99516489166668,97.40820779166667,53.0,96.0
77,97.42994689166667,97.83393183333334,55.0,95.0
78,97.86472889166667,98.60748147500001,57.0,99.0
79,98.73429289166667,99.14733579166668,57.0,100.0
80,99.16907489166667,99.55675550833334,60.0,99.0
81,99.60385689166668,100.39914563333335,62.0,102.0
82,100.47342089166668,100.74153645833334,62.0,107.0
83,100.90820289166668,101.21436188333334,69.0,102.0
84,101.34298489166667,101.72885391666668,67.0,117.0
85,101.77776689166667,102.04950564166667,65.0,78.0
86,102.21254889166667,102.49878037500001,65.0,100.0
87,102.64733089166667,102.94262033333334,62.0,95.0
88,103.08211289166667,103.81761910833335,60.0,112.0
89,104.82124089166668,105.17268967500002,62.0,99.0
90,105.25602289166667,105.57848620833335,60.0,99.0
91,105.69032265833334,106.12737233333334,57.0,95.0
92,106.12197665833334,106.5302494,55.0,70.0
93,106.55363065833333,107.39175884166667,53.0,81.0
94,107.41693865833334,107.809024375,50.0,90.0
95,107.84859265833335,108.154347575,53.0,89.0
96,108.28024665833334,108.693915075,53.0,96.0
97,108.65434679166667,109.14355465833334,55.0,100.0
98,109.14355465833334,109.51225911666667,55.0,92.0
99,109.57520865833334,109.99607130833334,53.0,92.0
100,110.00686265833335,110.78563841666667,55.0,97.0
101,110.87017065833334,111.28024195833333,53.0,96.0
102,111.30182465833335,111.70290316666667,55.0,95.0
103,111.73347865833334,112.470887575,57.0,99.0
104,112.59726889166667,113.01031179166667,57.0,100.0
105,113.03205089166667,113.41973150833334,60.0,99.0
106,113.46683289166667,114.26212163333334,62.0,102.0
107,114.33639689166667,114.60451245833335,62.0,107.0
108,114.77117889166668,115.07733788333334,69.0,102.0
109,115.20596089166668,115.59182991666667,67.0,117.0
110,115.64074289166668,115.91248164166667,65.0,78.0
111,116.07552489166667,116.36175637500001,65.0,100.0
112,116.51030689166667,116.80559633333334,67.0,95.0
113,116.94508889166667,117.21682764166667,67.0,112.0
114,117.39617521666668,117.81465289166667,65.0,112.0
115,118.68421689166668,119.372621725,60.0,100.0
116,119.55329865833335,119.891427625,60.0,107.0
117,119.98495265833334,120.31049171666668,57.0,99.0
118,120.41660665833334,120.862649125,64.0,100.0
119,120.84826065833334,121.15221701666668,65.0,100.0
120,121.27991465833334,121.58566957500001,53.0,95.0
121,121.71156865833335,122.04610050833334,55.0,90.0
122,122.14370489166667,122.76870401666667,57.0,95.0
123,123.88283289166667,125.6541966,55.0,78.0
124,125.62294663333334,127.83066486666668,53.0,76.0
125,153.5631008916667,154.25331731666668,57.0,92.0
126,154.4326648916667,154.80947595833334,57.0,92.0
127,154.86744689166667,155.37650415000002,55.0,61.0
128,155.3022288916667,156.56671987500002,57.0,77.0
129,157.04135689166668,157.43628387500002,57.0,89.0
130,157.4761388916667,157.88193542500002,60.0,99.0
131,157.91092089166668,158.33664493333336,57.0,83.0
132,158.3457028916667,158.8130935416667,55.0,75.0
133,158.78048489166667,160.03048314166668,57.0,73.0
134,160.51961289166667,161.27142343333335,53.0,85.0
135,161.3891768916667,161.7967850166667,53.0,86.0
136,161.82395889166668,162.23700179166667,55.0,76.0
137,162.2587408916667,162.7043924416667,57.0,70.0
138,162.69352289166667,163.10837738333336,60.0,79.0
139,163.1283048916667,163.79859380833335,57.0,78.0
140,163.99786889166668,164.63192597500003,55.0,71.0
141,164.86743289166668,165.26235987500002,55.0,79.0
142,165.3022148916667,165.77068726666667,53.0,70.0
143,165.73651465833333,167.16636853333335,55.0,72.0
144,167.46313065833334,168.61061087500002,57.0,93.0
145,168.75809265833334,169.07463892500002,60.0,99.0
146,168.97391965833336,169.18435098333333,57.0,62.0
147,169.18974665833335,169.59622084166668,62.0,100.0
148,169.62140065833336,170.628593325,60.0,73.0
149,170.91636265833336,171.34981521666668,62.0,97.0
150,171.34801665833334,171.69873553333335,60.0,81.0
151,171.77967065833334,172.20413042500002,60.0,86.0
152,172.21132465833335,172.63038875,57.0,86.0
153,172.64297865833333,173.47211405000002,60.0,83.0
154,174.15376765833335,174.405565825,48.0,88.0
155,174.36959465833334,175.18793870000002,57.0,96.0
156,175.23290265833333,175.64836963333335,55.0,93.0
157,175.66455665833334,176.11059912500002,57.0,72.0
158,176.09621065833335,176.89659518333335,60.0,85.0
159,176.96000089166668,177.38391334166667,57.0,79.0
160,177.3947828916667,177.767970775,55.0,73.0
161,177.82956489166668,179.09901126666668,55.0,74.0
162,178.70011463333333,179.09901126666668,55.0,85.0
163,179.14129063333334,179.6192313,53.0,69.0
164,179.58246663333335,181.00158276666667,55.0,70.0
165,181.34717063333335,182.04753753333335,57.0,92.0
166,182.22952263333335,182.61187516666666,57.0,92.0
167,182.67069863333333,183.1862995375,55.0,61.0
168,183.11142747291666,184.38607871874999,57.0,77.0
169,184.86452947291667,185.26262971875,57.0,89.0
170,185.30280497291668,185.71186210625,60.0,99.0
171,185.74108047291665,186.17022523333333,57.0,83.0
172,186.17935597291665,186.65050213541667,55.0,75.0
173,186.61763147291666,187.87767353541665,57.0,73.0
174,188.37073347291667,189.12858485833334,53.0,85.0
175,189.24728447291668,189.65816775416667,53.0,86.0
176,189.68555997291665,190.10192169791665,55.0,76.0
177,190.12383547291665,190.57306786041667,57.0,70.0
178,190.56211097291666,190.98029884583332,60.0,79.0
179,191.00038647291666,191.67606120208333,57.0,78.0
180,191.87693747291667,192.51608924375,55.0,71.0
181,192.75348847291667,193.15158871875,55.0,79.0
182,193.19176397291668,193.66473628333333,53.0,70.0
183,193.63003947291665,195.08182706666668,55.0,72.0
184,195.38314147291666,196.54822384375,57.0,93.0
185,196.69796797291667,197.01937000625,60.0,99.0
186,196.91710572291666,197.13053914166665,57.0,62.0
187,197.13599765416666,197.5472055958333,62.0,100.0
188,197.57267865416665,198.5916009875,60.0,73.0
189,198.88272165416666,199.3212221583333,62.0,97.0
190,199.31940265416665,199.67420596666665,60.0,81.0
191,199.75608365416664,200.1854866375,60.0,86.0
192,200.19276465416664,200.61670912499997,57.0,86.0
193,200.62944565416666,201.468237075,60.0,83.0
194,202.78167342499998,203.11862947499998,57.0,96.0
195,203.24544089166665,203.66391856666664,55.0,93.0
196,203.68022289166666,204.12949762499997,57.0,72.0
197,204.11500489166664,204.9211631833333,60.0,85.0
198,204.98456889166664,205.40848134166666,57.0,79.0
199,205.41935089166665,205.792538775,55.0,73.0
200,205.85413289166664,206.270798975,55.0,86.0
201,206.28891489166665,208.447236975,53.0,81.0
202,211.94360889166666,212.35665179166668,53.0,96.0
203,212.37839089166667,212.78237583333333,55.0,95.0
204,212.81317289166668,213.555925475,57.0,99.0
205,213.68273689166668,214.09577979166667,57.0,100.0
206,214.11751889166666,214.50519950833333,60.0,99.0
207,214.55230089166668,215.34758963333334,62.0,102.0
208,215.42186489166667,215.68998045833334,62.0,107.0
209,215.85664689166666,216.16280588333333,69.0,102.0
210,216.29142889166667,216.67729791666667,67.0,117.0
211,216.72621089166668,216.99794964166668,65.0,78.0
212,217.16099289166667,217.447224375,65.0,100.0
213,217.59577489166668,217.89106433333333,62.0,95.0
214,218.03055689166666,218.76606310833333,60.0,112.0
215,219.76968489166666,220.121133675,62.0,99.0
216,220.20446689166667,220.52693020833334,60.0,99.0
217,220.63876665833334,221.07581633333334,57.0,95.0
218,221.07042065833335,221.47869340000003,55.0,70.0
219,221.50207465833336,222.3402028416667,53.0,81.0
220,222.36538265833335,222.757468375,50.0,90.0
221,222.79703665833335,223.10279157500003,53.0,89.0
222,223.22869065833333,223.642359075,53.0,96.0
223,223.60279079166668,224.09199865833335,55.0,100.0
224,224.09199865833335,224.46070311666668,55.0,92.0
225,224.52365265833336,224.94451530833334,53.0,92.0
226,224.95530665833334,225.7340824166667,55.0,97.0
227,225.81861465833336,226.22868595833336,53.0,96.0
228,226.25026865833334,226.65134716666668,55.0,95.0
229,226.68192265833335,227.419331575,57.0,99.0
230,227.54571289166668,227.95875579166668,57.0,100.0
231,227.9804948916667,228.36817550833334,60.0,99.0
232,228.41527689166668,229.21056563333335,62.0,102.0
233,229.28484089166668,229.55295645833334,62.0,107.0
234,229.7196228916667,230.02578188333334,69.0,102.0
235,230.15440489166667,230.54027391666668,67.0,117.0
236,230.58918689166669,230.86092564166668,65.0,78.0
237,231.02396889166667,231.31020037500002,65.0,100.0
238,231.45875089166668,231.75404033333334,67.0,95.0
239,231.8935328916667,232.1652716416667,67.0,112.0
240,232.34461921666667,232.7630968916667,65.0,112.0
241,233.6326608916667,234.321065725,60.0,100.0
242,234.50174265833334,234.83987162500003,60.0,107.0
243,234.93339665833335,235.25893571666668,57.0,99.0
244,235.36505065833336,235.811093125,64.0,100.0
245,235.79670465833334,236.1006610166667,65.0,100.0
246,236.22835865833335,236.53411357500002,53.0,95.0
247,236.66001265833336,236.99454450833335,55.0,90.0
248,237.09214889166668,237.71714801666667,57.0,95.0
249,238.83127689166668,240.6026406,55.0,78.0
250,240.57139063333332,242.77910886666666,53.0,76.0
251,243.21844663333334,243.63756383333333,55.0,96.0
252,243.65962263333333,244.06954866666666,57.0,95.0
253,244.10079863333334,244.8544743,59.0,99.0
254,244.98216489166666,245.39520779166665,59.0,100.0
255,245.41694689166667,245.8046275083333,62.0,99.0
256,245.85172889166665,246.64701763333332,64.0,102.0
257,246.72129289166665,246.98940845833332,64.0,107.0
258,247.15607489166666,247.4622338833333,71.0,102.0
259,247.59085689166665,247.97672591666665,69.0,117.0
260,248.02563889166666,248.29737764166666,67.0,78.0
261,248.46042089166664,248.746652375,67.0,100.0
262,248.89520289166666,249.1904923333333,64.0,95.0
263,249.32998489166667,250.06549110833333,62.0,112.0
264,251.06911289166666,251.420561675,64.0,99.0
265,251.50389489166665,251.82635820833332,62.0,99.0
266,251.93819465833332,252.3752443333333,59.0,95.0
267,252.36984865833332,252.7781214,57.0,70.0
268,252.80150265833333,253.63963084166667,55.0,81.0
269,253.66481065833332,254.05689637499998,52.0,90.0
270,254.09646465833333,254.402219575,55.0,89.0
271,254.5281186583333,254.94178707499998,55.0,96.0
272,254.90221879166666,255.39142665833333,57.0,100.0
273,255.39142665833333,255.76013111666666,57.0,92.0
274,255.82308065833334,256.2439433083333,55.0,92.0
275,256.25473465833335,257.0335104166667,57.0,97.0
276,257.1180426583333,257.52811395833334,55.0,96.0
277,257.54969665833335,257.95077516666663,57.0,95.0
278,257.9813506583333,258.718759575,59.0,99.0
279,258.84514089166663,259.2581837916666,59.0,100.0
280,259.2799228916666,259.6676035083333,62.0,99.0
281,259.71470489166666,260.5099936333333,64.0,102.0
282,260.5842688916666,260.8523844583333,64.0,107.0
283,261.0190508916666,261.3252098833333,71.0,102.0
284,261.45383289166665,261.8397019166666,69.0,117.0
285,261.88861489166663,262.16035364166663,67.0,78.0
286,262.3233968916666,262.60962837499994,67.0,100.0
287,262.75817889166666,263.0534683333333,69.0,95.0
288,263.19296089166664,263.46469964166664,69.0,112.0
289,263.64404721666665,264.0625248916666,67.0,112.0
290,266.6644786583333,267.34793082499993,62.0,100.0
291,267.5277866583333,267.86591562499996,62.0,107.0
292,267.9594406583333,268.2849797166666,59.0,99.0
293,268.3915768916666,268.8408516249999,66.0,100.0
294,268.8263588916666,269.13251788333326,67.0,100.0
295,269.2611408916666,269.56911147499994,55.0,95.0
296,269.6959228916666,270.0328789416666,57.0,90.0
297,270.1307048916666,270.7557040166666,59.0,95.0
298,271.8708186333333,273.66677259999994,57.0,78.0
299,273.63552263333327,275.8432408666666,55.0,76.0
