,start,end,pitch,velocity
0,3.558176629166667,5.085447129166667,41.0,82.0
1,3.9945396291666673,5.152719758333334,48.0,61.0
2,4.430902629166667,5.314537704166667,60.0,93.0
3,4.867265629166667,5.3254467791666675,57.0,66.0
4,5.303628629166667,6.2363545416666675,47.0,95.0
5,5.739991629166667,7.0308988375000006,59.0,89.0
6,6.176354629166667,7.17817135,65.0,102.0
7,6.612717629166667,7.179989529166668,62.0,86.0
8,7.485443629166667,8.045442812500001,58.0,77.0
9,7.049080629166667,8.223624370833335,46.0,96.0
10,7.921806629166667,8.812714420833334,65.0,99.0
11,8.358169629166667,8.8527143625,62.0,90.0
12,9.230895629166668,9.919985533333334,52.0,63.0
13,8.794532629166667,10.001803595833334,45.0,74.0
14,10.103621629166668,10.607257258333334,60.0,69.0
15,9.667258629166668,10.616348154166667,64.0,97.0
16,10.539984629166668,11.9290735125,43.0,83.0
17,10.976347629166668,12.049073337500001,50.0,63.0
18,12.285436629166668,13.761798112500001,45.0,86.0
19,13.594525629166668,14.090888541666668,60.0,97.0
20,13.158162629166668,14.119979408333334,64.0,95.0
21,14.467251629166668,15.336341270833335,53.0,57.0
22,14.030888629166668,15.350886704166669,47.0,81.0
23,15.339977629166668,15.776340629166668,62.0,97.0
24,14.903614629166668,15.830886004166668,59.0,100.0
25,16.21270362916667,16.77452099166667,48.0,92.0
26,16.43088512916667,16.850884516666667,55.0,99.0
27,15.776340629166668,17.087247808333334,36.0,82.0
28,15.994522129166668,17.125429570833337,43.0,56.0
29,16.86724812916667,17.187247662500003,48.0,88.0
30,17.08542962916667,17.552701675,60.0,78.0
31,17.30361112916667,17.563610750000002,55.0,77.0
32,17.52179262916667,18.685427295833335,41.0,93.0
33,17.95815562916667,18.7472453875,48.0,64.0
34,18.83088162916667,19.22906286666667,57.0,99.0
35,18.39451862916667,19.23451740416667,60.0,122.0
36,19.70360762916667,20.29815221666667,53.0,76.0
37,19.26724462916667,20.316334008333335,47.0,83.0
38,20.13997062916667,21.025423883333335,65.0,112.0
39,20.57633362916667,21.0326966,62.0,96.0
40,21.44905962916667,21.979967945833337,55.0,85.0
41,21.01269662916667,21.99996791666667,48.0,77.0
42,21.88542262916667,22.734512300000002,67.0,112.0
43,22.32178562916667,22.783603137500002,60.0,96.0
44,23.63087462916667,24.016328612500004,58.0,36.0
45,22.75814862916667,24.02178315,46.0,90.0
46,23.19451162916667,24.02360132916667,53.0,59.0
47,23.63087462916667,24.456327970833335,61.0,86.0
48,23.63087462916667,24.483600658333337,65.0,71.0
49,25.37632662916667,26.30359800416667,64.0,67.0
50,25.37632662916667,26.30359800416667,67.0,67.0
51,24.50360062916667,26.327234333333337,48.0,72.0
52,24.93996362916667,26.34723430416667,55.0,65.0
53,26.24905262916667,27.39996004166667,38.0,77.0
54,26.68541562916667,27.412687295833337,45.0,63.0
55,27.12177862916667,27.51450532916667,50.0,45.0
56,27.12177862916667,27.954504687500002,65.0,95.0
57,27.55814162916667,28.00541370416667,57.0,88.0
58,28.43086762916667,28.99268499166667,50.0,74.0
59,27.99450462916667,29.072684875000004,43.0,82.0
60,29.30359362916667,29.752683883333336,58.0,86.0
61,28.86723062916667,29.776320212500003,62.0,95.0
62,29.73995662916667,30.981773000000004,36.0,79.0
63,30.17631962916667,30.992682075000005,43.0,56.0
64,30.61268262916667,31.08722739166667,48.0,58.0
65,31.04904562916667,31.541772183333336,60.0,63.0
66,30.61268262916667,31.55086307916667,64.0,92.0
67,32.35813462916667,33.505405683333336,53.0,83.0
68,33.23086062916667,34.1072229875,57.0,67.0
69,33.66722362916667,34.11631388333333,53.0,43.0
70,32.79449762916667,34.263586395833336,55.0,69.0
71,31.48540862916667,34.569040495833335,41.0,92.0
72,31.92177162916667,35.032676183333336,48.0,57.0
73,34.53994962916667,35.92540215416667,57.0,37.0
74,35.41267562916667,38.01994455416667,48.0,52.0
75,34.97631262916667,38.0235809125,41.0,69.0
76,36.72176462916667,38.510852929166674,57.0,63.0
77,36.28540162916667,38.54176197500001,55.0,58.0
78,35.84903862916667,38.54721651250001,53.0,65.0
79,34.10358662916667,38.60903460416667,60.0,85.0
80,38.90357962916667,39.6708512375,48.0,53.0
81,38.46721662916667,39.714487537500005,41.0,56.0
82,39.77630562916667,40.33812299166667,53.0,50.0
83,39.33994262916667,40.681758854166674,57.0,67.0
84,40.21266862916667,41.321757920833335,40.0,66.0
85,40.64903162916667,41.987211495833336,52.0,52.0
86,41.52175762916667,41.999938750000005,57.0,35.0
87,41.08539462916667,41.999938750000005,60.0,71.0
88,42.39448362916667,43.078118995833336,45.0,56.0
89,41.95812062916667,43.26720962916667,38.0,70.0
90,43.26720962916667,43.739936212500005,62.0,58.0
91,42.83084662916667,43.75266346666667,65.0,78.0
92,44.13993562916667,44.6890257375,43.0,39.0
93,43.70357262916667,44.716298425000005,36.0,65.0
94,45.01266162916667,45.458115525000004,60.0,65.0
95,44.57629862916667,45.49266092916667,64.0,82.0
96,45.88538762916667,46.68902282083334,53.0,40.0
97,46.32175062916667,46.71084097083334,58.0,43.0
98,45.44902462916667,46.74356819583334,46.0,75.0
99,46.75811362916667,47.198112987500004,62.0,49.0
100,46.32175062916667,47.21084024166667,65.0,63.0
101,47.63083962916667,48.23629329166667,52.0,49.0
102,47.19447662916667,48.27629323333334,45.0,68.0
103,48.50356562916667,48.98356492916667,60.0,56.0
104,48.06720262916667,49.00538307916667,64.0,75.0
105,49.37629162916667,50.07265425000001,50.0,56.0
106,48.93992862916667,50.20174497083334,43.0,61.0
107,50.24901762916667,50.701744241666674,58.0,48.0
108,49.81265462916667,50.72538057083334,62.0,77.0
109,51.12174362916667,52.27083286250001,43.0,47.0
110,51.77628812916667,52.41992355416667,48.0,52.0
111,50.68538062916667,52.443559883333336,36.0,69.0
112,51.99446962916667,52.49992343750001,60.0,47.0
113,51.55810662916667,52.51265069166667,64.0,90.0
114,52.21265112916667,52.567196066666675,55.0,40.0
115,52.43083262916667,53.67083082083334,38.0,75.0
116,52.86719562916667,53.69628532916667,45.0,65.0
117,53.30355862916667,53.79992154166667,50.0,53.0
118,53.30355862916667,54.201739137500006,65.0,78.0
119,53.73992162916667,54.21992092916667,62.0,67.0
120,54.17628462916667,55.254464875000004,45.0,69.0
121,54.61264762916667,55.278101204166674,52.0,59.0
122,55.04901062916667,55.919918450000004,64.0,89.0
123,55.48537362916667,55.93991842083334,60.0,72.0
124,55.92173662916667,57.138098491666675,46.0,75.0
125,56.358099629166674,57.665370450000005,58.0,85.0
126,56.794462629166674,57.72355218333334,62.0,70.0
127,57.230825629166674,57.77809755833334,65.0,68.0
128,58.103551629166674,58.62900540833334,52.0,58.0
129,57.667188629166674,58.756277950000005,45.0,69.0
130,58.976277629166674,59.48718597500001,60.0,45.0
131,58.539914629166674,59.49991322916667,64.0,97.0
132,59.849003629166674,60.409002812500006,50.0,58.0
133,59.412640629166674,60.507184487500005,43.0,70.0
134,60.721729629166674,61.12536540416667,58.0,88.0
135,60.285366629166674,61.1290017625,62.0,99.0
136,61.594455629166674,62.85809015000001,50.0,51.0
137,61.158092629166674,62.903544629166674,43.0,75.0
138,62.467181629166674,62.92899913750001,58.0,60.0
139,62.030818629166674,62.97263543750001,62.0,83.0
140,62.903544629166674,63.65263444583334,36.0,63.0
141,63.339907629166674,64.64899662916667,43.0,45.0
142,63.776270629166675,64.69081475,48.0,30.0
143,64.21263362916667,65.28899569583334,60.0,56.0
144,63.776270629166675,65.29808659166667,64.0,89.0
145,64.64899662916667,65.69626782916667,36.0,60.0
146,65.08535962916667,66.24353975833334,48.0,61.0
147,65.73990412916667,66.45444854166668,60.0,58.0
148,65.52172262916667,66.49444848333334,64.0,90.0
149,65.95808562916667,66.50535755833334,55.0,69.0
150,66.83081162916667,67.3689926625,48.0,49.0
151,66.39444862916667,68.06899164166667,41.0,79.0
152,67.70353762916668,68.17671843125001,57.0,72.0
153,67.26717462916668,68.17854457916667,60.0,93.0
154,68.14019547291667,69.35823613333334,40.0,72.0
155,68.57847097291668,69.50432796666668,52.0,59.0
156,69.45502197291668,69.80564237291668,57.0,64.0
157,69.01674647291668,69.80564237291668,60.0,90.0
158,70.33157297291667,70.91228801041667,45.0,46.0
159,69.89329747291667,70.95063711666667,38.0,82.0
160,71.20812397291668,71.67196554375,62.0,71.0
161,70.76984847291668,71.68109628333335,65.0,93.0
162,71.64639947291667,72.63251934791667,36.0,86.0
163,72.08467497291667,72.63434549583334,43.0,59.0
164,72.52295047291668,73.37393540208335,64.0,81.0
165,72.96122597291668,73.43419828333334,60.0,69.0
166,73.83777697291667,74.49336407500002,53.0,66.0
167,73.39950147291668,74.51162555416667,46.0,61.0
168,74.71432797291668,75.19643102291667,58.0,85.0
169,74.27605247291667,75.22747553750001,65.0,79.0
170,75.59087897291667,76.35968724583334,52.0,72.0
171,75.15260347291668,76.42542857083335,45.0,72.0
172,76.46742997291668,76.94405457916668,60.0,79.0
173,76.02915447291667,76.94770687500001,64.0,93.0
174,77.34398097291668,78.01965570208334,50.0,56.0
175,76.90570547291668,78.06165710416667,43.0,73.0
176,78.22053197291667,78.66245976875001,58.0,51.0
177,77.78225647291667,78.71541805833334,62.0,96.0
178,79.09708297291668,79.57553372708334,48.0,75.0
179,78.65880747291668,79.83849902708334,36.0,70.0
180,78.87794522291668,79.92615412708335,43.0,58.0
181,79.31622072291668,80.41738791666668,55.0,74.0
182,79.97363397291667,80.4429539875,60.0,79.0
183,79.53535847291667,80.453910875,64.0,92.0
184,80.41190947291668,81.42359541875001,38.0,76.0
185,80.85018497291668,81.4290738625,45.0,58.0
186,81.94587372291667,82.03535497083334,57.0,32.0
187,81.28846047291668,82.17386317500001,65.0,97.0
188,81.72673597291667,82.21753127500001,62.0,63.0
189,82.38310615416668,83.24555112916667,52.0,78.0
190,82.16476565416667,83.28012170833334,45.0,74.0
191,83.03812765416667,83.83870948750001,64.0,92.0
192,83.47480865416668,83.85326552083335,60.0,62.0
193,82.60144665416668,83.97699180416667,57.0,56.0
194,84.34817065416668,84.881285375,58.0,85.0
195,83.91148965416667,85.05413827083335,46.0,78.0
196,85.22153265416668,85.689145225,62.0,70.0
197,84.78485165416667,85.71461828333334,65.0,70.0
198,85.65821365416667,86.7644721875,45.0,71.0
199,86.53157565416667,87.41767418333335,64.0,95.0
200,86.09489465416668,87.435869225,57.0,75.0
201,86.96825665416668,87.44314724166668,60.0,75.0
202,87.84161865416668,88.43295750833335,50.0,56.0
203,87.40493765416667,88.46570858333334,43.0,77.0
204,88.71498065416668,89.10435454583335,58.0,52.0
205,88.27829965416667,89.12436909166668,62.0,93.0
206,89.15166165416667,90.10508183750001,36.0,77.0
207,89.58834265416668,90.121457375,43.0,59.0
208,90.02502365416667,90.93841474583334,64.0,89.0
209,90.46170465416668,90.95297077916668,60.0,59.0
210,90.89838565416667,92.51774436250001,41.0,75.0
211,91.33506665416668,92.66136348333335,48.0,66.0
212,92.20842865416668,92.68134892500001,55.0,72.0
213,91.77174765416667,92.74312210833335,57.0,97.0
214,93.08105775833334,93.585749375,48.0,74.0
215,92.64501175833334,94.26147306666667,41.0,89.0
216,94.16908189166668,94.35929901666667,53.0,93.0
217,93.73429989166668,94.36292220000001,48.0,85.0
218,93.95169089166667,94.379226525,57.0,107.0
219,93.51690889166667,94.379226525,60.0,117.0
220,94.38647289166667,95.99878947500001,41.0,90.0
221,95.25603689166667,96.0150938,60.0,90.0
222,95.25603689166667,96.02415175833335,57.0,95.0
223,95.69081889166668,96.03320971666668,53.0,68.0
224,94.82125489166667,96.08574587500001,48.0,34.0
225,96.12560089166668,96.944440325,64.0,76.0
226,96.12560089166668,96.95349828333335,60.0,82.0
227,96.56038289166668,97.09480243333334,48.0,47.0
228,96.12560089166668,97.10929516666667,55.0,81.0
229,96.12560089166668,97.36110640833334,36.0,72.0
230,97.21255589166668,97.43900485,48.0,63.0
231,97.42994689166667,97.81943910000001,55.0,97.0
232,96.99516489166668,97.86110570833334,60.0,97.0
233,96.99516489166668,97.87016366666667,64.0,92.0
234,98.29951089166667,98.77777109166668,53.0,89.0
235,98.51690189166668,98.88284340833334,57.0,89.0
236,98.08211989166668,99.06037939166667,48.0,86.0
237,97.86472889166667,99.08393008333334,41.0,85.0
238,98.95168389166668,99.30313267500001,53.0,92.0
239,98.73429289166667,99.531393225,64.0,112.0
240,99.16907489166667,99.56943665000001,60.0,95.0
241,99.38646589166667,99.60385689166668,57.0,88.0
242,100.03863889166668,100.34660947500001,59.0,85.0
243,100.25602989166667,100.51146431666668,62.0,92.0
244,99.82124789166667,100.57124684166668,53.0,56.0
245,100.69081189166667,100.82124649166667,53.0,34.0
246,99.60385689166668,100.91363766666667,47.0,71.0
247,100.47342089166668,101.21798506666667,65.0,107.0
248,100.90820289166668,101.23428939166668,62.0,92.0
249,101.12559389166668,101.36472399166668,59.0,82.0
250,101.77776689166667,102.30494006666667,53.0,75.0
251,101.34298489166667,102.96617102500001,46.0,96.0
252,102.42993989166668,103.04588105833334,53.0,69.0
253,101.99515789166668,103.06218538333334,58.0,82.0
254,101.56037589166668,103.06399697500001,50.0,65.0
255,102.21254889166667,103.16182292500001,65.0,83.0
256,103.51689489166668,103.89914073333334,57.0,59.0
257,103.73428589166667,103.97703917500002,60.0,76.0
258,103.29950389166667,104.03501010833334,52.0,53.0
259,104.16906789166667,104.42269072500001,52.0,59.0
260,103.08211289166667,104.49696598333334,45.0,63.0
261,104.38645889166668,104.80674815833333,60.0,86.0
262,104.60384989166667,104.835733625,57.0,96.0
263,103.95167689166668,104.85022635833334,64.0,93.0
264,105.47341389166668,105.66154572500001,58.0,79.0
265,105.25602289166667,105.66694140000001,55.0,67.0
266,105.03863189166668,105.69931545,50.0,66.0
267,104.82124089166668,106.319818075,43.0,77.0
268,106.12197665833334,106.535645075,58.0,96.0
269,105.90614965833333,106.55363065833333,50.0,69.0
270,105.69032265833334,106.56442200833334,62.0,96.0
271,106.33780365833334,106.56622056666667,55.0,86.0
272,107.20111165833335,107.42413289166667,60.0,89.0
273,106.98528465833334,107.45470838333334,57.0,72.0
274,106.76945765833334,107.49607522500001,52.0,73.0
275,106.55363065833333,107.79463590833333,45.0,81.0
276,107.63276565833334,107.80003158333334,52.0,67.0
277,107.84859265833335,108.12017496666667,60.0,100.0
278,107.41693865833334,108.1273692,64.0,112.0
279,108.06441965833334,108.22988702500001,57.0,96.0
280,108.49607365833334,108.81621704166668,58.0,88.0
281,108.92772765833334,109.19211573333334,58.0,71.0
282,108.71190065833333,109.19211573333334,61.0,65.0
283,108.28024665833334,109.36657589166667,46.0,81.0
284,109.35938165833333,109.62556829166667,58.0,92.0
285,109.57520865833334,109.859380875,61.0,73.0
286,109.14355465833334,109.92053185833333,65.0,74.0
287,109.79103565833334,109.96909293333334,58.0,97.0
288,110.43851665833334,110.97808415833335,48.0,89.0
289,110.65434365833335,111.04463081666667,55.0,99.0
290,110.00686265833335,111.21549385833333,36.0,77.0
291,110.22268965833334,111.21729241666667,43.0,71.0
292,111.08599765833334,111.34139294166667,48.0,100.0
293,111.30182465833335,111.71189595833334,60.0,122.0
294,110.87017065833334,111.71549307500001,64.0,122.0
295,111.51765165833334,111.75506135833334,55.0,112.0
296,112.38095965833334,112.56284865,57.0,107.0
297,112.16513265833333,112.69690643333334,53.0,93.0
298,111.94930565833334,112.87987719166668,48.0,78.0
299,111.73347865833334,112.92516698333334,41.0,81.0
300,112.81465989166668,113.05922476666667,53.0,99.0
301,112.59726889166667,113.0737175,60.0,117.0
302,113.03205089166667,113.361760575,57.0,117.0
303,113.24944189166668,113.47226766666667,60.0,102.0
304,113.90161489166667,114.28567232500001,59.0,78.0
305,114.11900589166667,114.34002007500001,62.0,89.0
306,113.68422389166668,114.40523737500001,53.0,81.0
307,114.55378789166667,114.71139636666668,53.0,72.0
308,113.46683289166667,114.753062975,47.0,74.0
309,114.33639689166667,115.14798995833334,65.0,112.0
310,114.77117889166668,115.15342473333334,62.0,99.0
311,114.98856989166667,115.22226521666667,59.0,81.0
312,115.85813389166667,116.111756725,58.0,90.0
313,115.64074289166668,116.12624945833333,53.0,75.0
314,115.42335189166667,116.40523457500001,50.0,58.0
315,115.20596089166668,116.62806035000001,46.0,88.0
316,116.51030689166667,116.76755290833334,58.0,93.0
317,116.72769789166668,116.90704546666667,62.0,82.0
318,116.29291589166667,116.93059615833334,53.0,81.0
319,116.07552489166667,117.12443646666668,65.0,92.0
320,117.59726189166668,117.89073974166668,58.0,88.0
321,117.37987089166667,117.92515998333334,53.0,81.0
322,117.81465289166667,118.32914492500001,61.0,102.0
323,116.94508889166667,118.59363730833334,46.0,82.0
324,118.24943489166668,118.65885460833334,58.0,88.0
325,118.03204389166667,118.66247779166667,53.0,79.0
326,117.16247989166668,118.67878211666667,49.0,70.0
327,118.46682589166667,118.709579175,61.0,100.0
328,119.33638989166667,119.54430586666668,60.0,82.0
329,119.11899889166668,119.59286694166667,57.0,70.0
330,118.90160789166667,119.654017925,52.0,71.0
331,119.76912565833334,119.90042041666668,52.0,71.0
332,118.68421689166668,119.93279446666668,45.0,77.0
333,119.55329865833335,120.29070757500001,64.0,99.0
334,119.98495265833334,120.301498925,60.0,122.0
335,120.20077965833335,120.49934034166668,57.0,96.0
336,120.84826065833334,121.36804401666667,50.0,89.0
337,121.06408765833335,121.37883536666668,57.0,88.0
338,120.41660665833334,121.60365515833334,38.0,85.0
339,120.63243365833334,121.628834975,45.0,62.0
340,121.49574165833334,121.77092108333335,50.0,88.0
341,121.27991465833334,122.04969762500001,65.0,112.0
342,121.71156865833335,122.05689185833334,62.0,93.0
343,121.92739565833334,122.16363240000001,57.0,88.0
344,122.79587789166668,122.97522546666667,58.0,89.0
345,122.57848689166667,123.06218186666668,55.0,70.0
346,122.36109589166668,123.07305141666667,50.0,78.0
347,123.23065989166668,123.37196404166667,50.0,81.0
348,122.14370489166667,123.39913791666667,43.0,82.0
349,123.44805089166667,123.81399240833333,58.0,85.0
350,123.01326889166667,123.842977875,62.0,99.0
351,123.66544189166667,123.88464448333335,55.0,52.0
352,123.88283289166667,124.92630969166667,36.0,85.0
353,124.10022389166667,124.93899083333334,43.0,48.0
354,124.31761489166668,125.18174411666668,48.0,74.0
355,125.18717889166668,125.66338776666667,60.0,66.0
356,124.75239689166668,125.69096126666668,64.0,92.0
357,124.53500589166667,125.71669653333335,55.0,69.0
358,125.62294663333334,127.31044483333334,41.0,77.0
359,126.06412263333334,127.485077,48.0,49.0
360,126.50529863333334,128.09169400000002,60.0,95.0
361,126.94647463333334,128.18360566666667,57.0,62.0
362,127.38765063333334,128.5769876,41.0,63.0
363,127.82882663333334,128.64684046666667,48.0,52.0
364,128.71117863333333,129.18176636666666,57.0,70.0
365,128.27000263333335,129.20382516666666,60.0,88.0
366,129.15235463333335,130.48323556666668,47.0,72.0
367,130.47588263333336,130.88580866666666,62.0,50.0
368,130.03470663333334,130.91154393333335,65.0,89.0
369,129.59353063333333,130.91705863333334,59.0,62.0
370,131.35823463333335,131.92073403333333,53.0,58.0
371,130.91705863333334,131.94279283333333,47.0,78.0
372,131.79941063333334,132.49242460000002,65.0,96.0
373,132.24058663333335,132.65602736666668,59.0,66.0
374,133.12293863333335,133.65008529166667,58.0,81.0
375,132.68176263333334,134.28414237500002,46.0,76.0
376,133.9979108916667,134.46711313333336,58.0,96.0
377,133.56312889166668,134.6265332,65.0,82.0
378,134.8674748916667,135.44174945,50.0,40.0
379,134.43269289166668,135.51058993333334,46.0,78.0
380,135.73703889166669,136.21529909166668,65.0,82.0
381,135.30225689166667,136.23703819166667,58.0,99.0
382,137.04138489166667,137.23884838333333,53.0,53.0
383,136.17182089166667,137.68812311666667,41.0,92.0
384,136.60660289166668,137.95442709166667,48.0,52.0
385,137.04138489166667,138.63739715000003,60.0,107.0
386,137.47616689166668,138.65551306666669,57.0,67.0
387,138.34573089166668,138.86384610833335,48.0,53.0
388,138.99790389166668,139.13739645,48.0,69.0
389,137.9109488916667,139.15551236666667,41.0,70.0
390,138.7805128916667,139.63558415833336,60.0,117.0
391,139.21529489166667,139.6446421166667,57.0,93.0
392,139.4326858916667,139.66638121666668,53.0,85.0
393,140.08485889166667,140.58304660000002,50.0,89.0
394,140.3022498916667,140.6935536916667,57.0,86.0
395,140.73703189166667,141.04500247500002,50.0,89.0
396,139.65007689166669,141.2569587,38.0,88.0
397,139.86746789166668,141.4218135416667,45.0,71.0
398,141.1718138916667,141.84934917500001,57.0,83.0
399,140.51964089166668,141.881957825,65.0,107.0
400,140.95442289166667,141.91637806666668,62.0,86.0
401,141.8239868916667,142.34572529166667,50.0,90.0
402,141.60659589166667,142.42543532500002,45.0,76.0
403,142.04137789166668,142.4326816916667,57.0,79.0
404,141.38920489166668,142.51058013333335,38.0,70.0
405,142.47615989166667,142.6174640416667,50.0,64.0
406,142.6935508916667,143.12289811666668,62.0,89.0
407,142.25876889166668,143.1265213,65.0,112.0
408,142.91094189166668,143.14644880833336,57.0,93.0
409,143.5631148916667,144.03050554166668,53.0,92.0
410,143.78050589166668,144.11383875833334,59.0,89.0
411,143.12833289166667,144.76420016666668,47.0,96.0
412,143.3457238916667,144.86202611666667,50.0,85.0
413,143.99789689166667,145.653691675,65.0,112.0
414,144.43267889166668,145.68086555000002,62.0,78.0
415,145.7370248916667,145.77687990833334,62.0,59.0
416,144.2152878916667,145.914560875,53.0,93.0
417,145.30224289166668,146.104778,50.0,43.0
418,144.86746089166667,146.11745914166667,47.0,74.0
419,144.65006989166667,146.12289391666667,59.0,93.0
420,145.7370248916667,146.60477730000002,65.0,95.0
421,146.17180689166668,146.65187868333334,59.0,78.0
422,147.04137089166667,147.5250658666667,53.0,88.0
423,147.2587618916667,147.54861655833335,58.0,89.0
424,146.6065888916667,148.175427275,46.0,96.0
425,146.82397989166668,148.32578938333336,50.0,49.0
426,147.69354389166668,148.33847052500002,53.0,85.0
427,148.1283258916667,148.34934007500001,57.0,73.0
428,147.91093489166667,149.034121725,58.0,92.0
429,148.9978898916667,149.34390390000002,57.0,66.0
430,148.7804988916667,149.49970078333334,53.0,86.0
431,148.56310789166668,149.5304978416667,50.0,52.0
432,148.34571689166668,149.57216445,46.0,86.0
433,149.21528089166668,150.09752603333334,62.0,69.0
434,147.4761528916667,150.1174535416667,65.0,96.0
435,150.5196268916667,150.93085820000002,53.0,86.0
436,150.73701789166668,150.9815827666667,57.0,85.0
437,150.30223589166667,151.04498847500003,48.0,59.0
438,150.08484489166668,151.7207121666667,41.0,85.0
439,151.1717998916667,151.86382790833335,48.0,52.0
440,150.95440889166667,153.60657909166667,60.0,92.0
441,151.3891908916667,153.61744864166667,57.0,86.0
442,151.82397289166667,153.63194137500003,53.0,75.0
443,151.82397289166667,153.65186888333335,41.0,64.0
444,153.5631008916667,153.65186888333335,41.0,56.0
445,153.99788289166668,154.76237457500002,48.0,53.0
446,154.86744689166667,155.4272287166667,53.0,50.0
447,154.4326648916667,155.76961954166669,57.0,67.0
448,155.3022288916667,156.40729980833333,40.0,66.0
449,155.73701089166667,157.07034235833333,52.0,52.0
450,156.6065748916667,157.08302350000002,57.0,35.0
451,156.17179289166668,157.08302350000002,60.0,71.0
452,157.4761388916667,158.15729735833335,45.0,56.0
453,157.04135689166668,158.3457028916667,38.0,70.0
454,158.3457028916667,158.81671672500002,62.0,58.0
455,157.91092089166668,158.82939786666668,65.0,78.0
456,159.2152668916667,159.762367575,43.0,39.0
457,158.78048489166667,159.78954145,36.0,65.0
458,160.08483089166668,160.52867085000003,60.0,65.0
459,159.65004889166667,160.56309109166668,64.0,82.0
460,160.95439489166668,161.75511840833335,53.0,40.0
461,161.3891768916667,161.77685750833336,58.0,43.0
462,160.51961289166667,161.80946615833335,46.0,75.0
463,161.82395889166668,162.26236407500002,62.0,49.0
464,161.3891768916667,162.27504521666668,65.0,63.0
465,162.69352289166667,163.29678291666667,52.0,49.0
466,162.2587408916667,163.33663793333335,45.0,68.0
467,163.56308689166667,164.0413470916667,60.0,56.0
468,163.1283048916667,164.06308619166668,64.0,75.0
469,164.4326508916667,165.12649050000002,50.0,56.0
470,163.99786889166668,165.25511350833335,43.0,61.0
471,165.3022148916667,165.75270168333336,58.0,48.0
472,164.86743289166668,165.7760829416667,62.0,77.0
473,166.16816865833334,167.30485752500002,43.0,47.0
474,166.81564965833334,167.45233930833334,48.0,52.0
475,165.73651465833333,167.47572056666667,36.0,69.0
476,167.03147665833333,167.531475875,60.0,47.0
477,166.59982265833335,167.54406578333334,64.0,90.0
478,167.24730365833335,167.59802253333334,55.0,40.0
479,167.46313065833334,168.68974744166667,38.0,75.0
480,167.89478465833335,168.71492725833335,45.0,65.0
481,168.32643865833336,168.81744508333335,50.0,53.0
482,168.32643865833336,169.214926475,65.0,78.0
483,168.75809265833334,169.23291205833334,62.0,67.0
484,169.18974665833335,170.25629175,45.0,69.0
485,169.62140065833336,170.27967300833333,52.0,59.0
486,170.05305465833334,170.9145641,64.0,89.0
487,170.48470865833335,170.93434824166667,60.0,72.0
488,170.91636265833336,172.11959818333335,46.0,75.0
489,171.34801665833334,172.6411801,58.0,85.0
490,171.77967065833334,172.69873396666668,62.0,70.0
491,172.21132465833335,172.75269071666668,65.0,68.0
492,173.07463265833334,173.59441601666668,52.0,58.0
493,172.64297865833333,173.72031510000002,45.0,69.0
494,173.93794065833333,174.44333555,60.0,45.0
495,173.50628665833335,174.45592545833335,64.0,97.0
496,174.80124865833335,175.355204625,50.0,58.0
497,174.36959465833334,175.45232677500002,43.0,70.0
498,175.66455665833334,176.06383660833333,58.0,88.0
499,175.23290265833333,176.067433725,62.0,99.0
500,176.52786465833336,177.7842751,50.0,51.0
501,176.09621065833335,177.82956489166668,43.0,75.0
502,177.3947828916667,177.85492717500003,58.0,60.0
503,176.96000089166668,177.898405375,62.0,83.0
504,177.82956489166668,178.57594065833334,36.0,63.0
505,178.2643468916667,179.58246663333335,43.0,45.0
506,178.70011463333333,179.62474600000002,48.0,30.0
507,179.14129063333334,180.22952476666669,60.0,56.0
508,178.70011463333333,180.23871593333334,64.0,89.0
509,179.58246663333335,180.64128903333335,36.0,60.0
510,180.02364263333334,181.19459726666668,48.0,61.0
511,180.68540663333334,181.40783233333335,60.0,58.0
512,180.46481863333335,181.44827346666668,64.0,90.0
513,180.90599463333334,181.4593028666667,55.0,69.0
514,181.78834663333333,182.3324637,48.0,49.0
515,181.34717063333335,183.04018353333333,41.0,79.0
516,182.67069863333333,183.14795043125,57.0,72.0
517,182.22952263333335,183.14977657916666,60.0,93.0
518,183.11142747291666,184.32946813333334,40.0,72.0
519,183.54970297291666,184.47555996666665,52.0,59.0
520,184.42625397291667,184.77687437291667,57.0,64.0
521,183.98797847291667,184.77687437291667,60.0,90.0
522,185.30280497291668,185.88352001041667,45.0,46.0
523,184.86452947291667,185.92186911666667,38.0,82.0
524,186.17935597291665,186.64319754375,62.0,71.0
525,185.74108047291665,186.65232828333333,65.0,93.0
526,186.61763147291666,187.60375134791667,36.0,86.0
527,187.05590697291666,187.60557749583333,43.0,59.0
528,187.49418247291666,188.34516740208332,64.0,81.0
529,187.93245797291667,188.40543028333332,60.0,69.0
530,188.80900897291667,189.464596075,53.0,66.0
531,188.37073347291667,189.48285755416666,46.0,61.0
532,189.68555997291665,190.16766302291666,58.0,85.0
533,189.24728447291668,190.19870753749998,65.0,79.0
534,190.56211097291666,191.33091924583334,52.0,72.0
535,190.12383547291665,191.39666057083332,45.0,72.0
536,191.43866197291666,191.91528657916666,60.0,79.0
537,191.00038647291666,191.91893887499998,64.0,93.0
538,192.31521297291667,192.99088770208334,50.0,56.0
539,191.87693747291667,193.03288910416666,43.0,73.0
540,193.19176397291668,193.63369176875,58.0,51.0
541,192.75348847291667,193.68665005833333,62.0,96.0
542,194.06831497291665,194.54676572708334,48.0,75.0
543,193.63003947291665,194.80973102708333,36.0,70.0
544,193.84917722291667,194.89738612708334,43.0,58.0
545,194.28745272291667,195.38861991666667,55.0,74.0
546,194.94486597291666,195.4141859875,60.0,79.0
547,194.50659047291666,195.425142875,64.0,92.0
548,195.38314147291666,196.39482741875,38.0,76.0
549,195.82141697291667,196.4003058625,45.0,58.0
550,196.91710572291666,197.00658697083333,57.0,32.0
551,196.25969247291667,197.145095175,65.0,97.0
552,196.69796797291667,197.18876327499999,62.0,63.0
553,197.35433815416664,198.21678312916666,52.0,78.0
554,197.13599765416666,198.2513537083333,45.0,74.0
555,198.00935965416664,198.80994148749997,64.0,92.0
556,198.44604065416664,198.82449752083332,60.0,62.0
557,197.57267865416665,198.94822380416664,57.0,56.0
558,199.31940265416665,199.852517375,58.0,85.0
559,198.88272165416666,200.02537027083332,46.0,78.0
560,200.19276465416664,200.660377225,62.0,70.0
561,199.75608365416664,200.6858502833333,65.0,70.0
562,200.62944565416666,201.73570418749998,45.0,71.0
563,201.50280765416665,202.3885580333333,64.0,95.0
564,201.06612665416665,202.40667394999997,57.0,75.0
565,201.93948865416664,202.41392031666666,60.0,75.0
566,202.81065889166666,203.3994261833333,50.0,56.0
567,202.37587689166665,203.43203483333332,43.0,77.0
568,203.68022289166666,204.06790350833333,58.0,52.0
569,203.24544089166665,204.08783101666666,62.0,93.0
570,204.11500489166664,205.064278925,36.0,77.0
571,204.54978689166666,205.08058325,43.0,59.0
572,204.98456889166664,205.89398790833332,64.0,89.0
573,205.41935089166665,205.90848064166664,60.0,59.0
574,205.85413289166664,207.466449475,41.0,75.0
575,206.28891489166665,207.60980748333333,48.0,66.0
576,207.15847889166665,207.629792925,55.0,72.0
577,206.72369689166666,207.69156610833332,57.0,97.0
578,208.02950175833334,208.534193375,48.0,74.0
579,207.59345575833333,209.20991706666666,41.0,89.0
580,209.11752589166667,209.30774301666668,53.0,93.0
581,208.68274389166666,209.3113662,48.0,85.0
582,208.90013489166668,209.327670525,57.0,107.0
583,208.46535289166667,209.327670525,60.0,117.0
584,209.33491689166667,210.947233475,41.0,90.0
585,210.20448089166666,210.9635378,60.0,90.0
586,210.20448089166666,210.97259575833334,57.0,95.0
587,210.63926289166668,210.98165371666667,53.0,68.0
588,209.76969889166668,211.034189875,48.0,34.0
589,211.07404489166666,211.892884325,64.0,76.0
590,211.07404489166666,211.90194228333334,60.0,82.0
591,211.50882689166667,212.04324643333334,48.0,47.0
592,211.07404489166666,212.05773916666666,55.0,81.0
593,211.07404489166666,212.30955040833334,36.0,72.0
594,212.16099989166668,212.38744885,48.0,63.0
595,212.37839089166667,212.7678831,55.0,97.0
596,211.94360889166666,212.80954970833335,60.0,97.0
597,211.94360889166666,212.81860766666668,64.0,92.0
598,213.24795489166667,213.72621509166666,53.0,89.0
599,213.46534589166666,213.83128740833334,57.0,89.0
600,213.03056389166667,214.00882339166668,48.0,86.0
601,212.81317289166668,214.03237408333334,41.0,85.0
602,213.90012789166667,214.251576675,53.0,92.0
603,213.68273689166668,214.479837225,64.0,112.0
604,214.11751889166666,214.51788065,60.0,95.0
605,214.33490989166668,214.55230089166668,57.0,88.0
606,214.98708289166666,215.295053475,59.0,85.0
607,215.20447389166668,215.45990831666666,62.0,92.0
608,214.76969189166667,215.51969084166666,53.0,56.0
609,215.63925589166666,215.76969049166667,53.0,34.0
610,214.55230089166668,215.86208166666668,47.0,71.0
611,215.42186489166667,216.16642906666667,65.0,107.0
612,215.85664689166666,216.18273339166666,62.0,92.0
613,216.07403789166668,216.31316799166666,59.0,82.0
614,216.72621089166668,217.25338406666668,53.0,75.0
615,216.29142889166667,217.914615025,46.0,96.0
616,217.37838389166666,217.99432505833335,53.0,69.0
617,216.94360189166667,218.01062938333334,58.0,82.0
618,216.50881989166666,218.012440975,50.0,65.0
619,217.16099289166667,218.110266925,65.0,83.0
620,218.46533889166668,218.84758473333335,57.0,59.0
621,218.68272989166667,218.925483175,60.0,76.0
622,218.24794789166668,218.98345410833335,52.0,53.0
623,219.11751189166668,219.371134725,52.0,59.0
624,218.03055689166666,219.44540998333335,45.0,63.0
625,219.33490289166667,219.75519215833333,60.0,86.0
626,219.55229389166666,219.784177625,57.0,96.0
627,218.90012089166666,219.79867035833334,64.0,93.0
628,220.42185789166666,220.60998972500002,58.0,79.0
629,220.20446689166667,220.6153854,55.0,67.0
630,219.98707589166668,220.64775945000002,50.0,66.0
631,219.76968489166666,221.26826207500002,43.0,77.0
632,221.07042065833335,221.484089075,58.0,96.0
633,220.85459365833336,221.50207465833336,50.0,69.0
634,220.63876665833334,221.51286600833336,62.0,96.0
635,221.28624765833334,221.51466456666668,55.0,86.0
636,222.14955565833336,222.37257689166668,60.0,89.0
637,221.93372865833334,222.40315238333335,57.0,72.0
638,221.71790165833335,222.44451922500002,52.0,73.0
639,221.50207465833336,222.74307990833336,45.0,81.0
640,222.58120965833334,222.74847558333335,52.0,67.0
641,222.79703665833335,223.0686189666667,60.0,100.0
642,222.36538265833335,223.07581320000003,64.0,112.0
643,223.01286365833334,223.178331025,57.0,96.0
644,223.44451765833335,223.76466104166667,58.0,88.0
645,223.87617165833336,224.14055973333336,58.0,71.0
646,223.66034465833334,224.14055973333336,61.0,65.0
647,223.22869065833333,224.31501989166668,46.0,81.0
648,224.30782565833334,224.5740122916667,58.0,92.0
649,224.52365265833336,224.80782487500002,61.0,73.0
650,224.09199865833335,224.86897585833336,65.0,74.0
651,224.73947965833335,224.91753693333334,58.0,97.0
652,225.38696065833335,225.92652815833335,48.0,89.0
653,225.60278765833334,225.99307481666668,55.0,99.0
654,224.95530665833334,226.16393785833336,36.0,77.0
655,225.17113365833336,226.16573641666668,43.0,71.0
656,226.03444165833335,226.2898369416667,48.0,100.0
657,226.25026865833334,226.66033995833334,60.0,122.0
658,225.81861465833336,226.663937075,64.0,122.0
659,226.46609565833336,226.70350535833336,55.0,112.0
660,227.32940365833335,227.51129265,57.0,107.0
661,227.11357665833336,227.64535043333336,53.0,93.0
662,226.89774965833334,227.82832119166667,48.0,78.0
663,226.68192265833335,227.87361098333335,41.0,81.0
664,227.76310389166667,228.00766876666668,53.0,99.0
665,227.54571289166668,228.0221615,60.0,117.0
666,227.9804948916667,228.31020457500003,57.0,117.0
667,228.1978858916667,228.42071166666668,60.0,102.0
668,228.8500588916667,229.234116325,59.0,78.0
669,229.06744989166668,229.288464075,62.0,89.0
670,228.63266789166667,229.353681375,53.0,81.0
671,229.5022318916667,229.65984036666669,53.0,72.0
672,228.41527689166668,229.70150697500003,47.0,74.0
673,229.28484089166668,230.09643395833334,65.0,112.0
674,229.7196228916667,230.10186873333336,62.0,99.0
675,229.93701389166668,230.1707092166667,59.0,81.0
676,230.80657789166668,231.06020072500002,58.0,90.0
677,230.58918689166669,231.07469345833334,53.0,75.0
678,230.3717958916667,231.353678575,50.0,58.0
679,230.15440489166667,231.57650435000002,46.0,88.0
680,231.45875089166668,231.71599690833335,58.0,93.0
681,231.67614189166667,231.85548946666668,62.0,82.0
682,231.2413598916667,231.87904015833334,53.0,81.0
683,231.02396889166667,232.07288046666667,65.0,92.0
684,232.54570589166667,232.8391837416667,58.0,88.0
685,232.32831489166668,232.87360398333334,53.0,81.0
686,232.7630968916667,233.277588925,61.0,102.0
687,231.8935328916667,233.54208130833334,46.0,82.0
688,233.19787889166668,233.60729860833334,58.0,88.0
689,232.98048789166668,233.61092179166667,53.0,79.0
690,232.1109238916667,233.6272261166667,49.0,70.0
691,233.4152698916667,233.658023175,61.0,100.0
692,234.2848338916667,234.49274986666668,60.0,82.0
693,234.06744289166667,234.5413109416667,57.0,70.0
694,233.85005189166668,234.60246192500003,52.0,71.0
695,234.71756965833336,234.8488644166667,52.0,71.0
696,233.6326608916667,234.88123846666667,45.0,77.0
697,234.50174265833334,235.23915157500002,64.0,99.0
698,234.93339665833335,235.24994292500003,60.0,122.0
699,235.14922365833334,235.44778434166668,57.0,96.0
700,235.79670465833334,236.31648801666668,50.0,89.0
701,236.01253165833336,236.3272793666667,57.0,88.0
702,235.36505065833336,236.55209915833336,38.0,85.0
703,235.58087765833335,236.577278975,45.0,62.0
704,236.44418565833334,236.71936508333334,50.0,88.0
705,236.22835865833335,236.99814162500002,65.0,112.0
706,236.66001265833336,237.00533585833335,62.0,93.0
707,236.87583965833335,237.1120764,57.0,88.0
708,237.7443218916667,237.9236694666667,58.0,89.0
709,237.5269308916667,238.0106258666667,55.0,70.0
710,237.30953989166667,238.02149541666668,50.0,78.0
711,238.17910389166667,238.3204080416667,50.0,81.0
712,237.09214889166668,238.34758191666668,43.0,82.0
713,238.3964948916667,238.76243640833334,58.0,85.0
714,237.96171289166668,238.79142187500003,62.0,99.0
715,238.61388589166668,238.83308848333334,55.0,52.0
716,238.83127689166668,239.87475369166668,36.0,85.0
717,239.0486678916667,239.88743483333334,43.0,48.0
718,239.2660588916667,240.1301881166667,48.0,74.0
719,239.48344989166668,240.57139063333332,55.0,69.0
720,240.13562289166669,240.57139063333332,60.0,66.0
721,239.70084089166667,240.57139063333332,64.0,92.0
722,241.01256663333334,241.52175726666667,48.0,77.0
723,240.57139063333332,241.5566837,41.0,89.0
724,241.45374263333335,241.88940393333334,65.0,93.0
725,241.89491863333333,242.02359496666668,69.0,73.0
726,242.33609463333335,243.00888803333333,57.0,93.0
727,242.33609463333335,243.06403503333334,67.0,117.0
728,242.33609463333335,243.07138796666666,62.0,112.0
729,243.21844663333334,243.53829923333333,50.0,85.0
730,242.77727063333333,243.76991663333334,45.0,56.0
731,242.33609463333335,243.83793126666666,38.0,97.0
732,243.21844663333334,244.0658722,62.0,117.0
733,243.65962263333333,244.06771043333333,57.0,90.0
734,243.21844663333334,244.09160746666666,66.0,127.0
735,244.54197463333333,245.02564309166667,55.0,89.0
736,244.76256263333335,245.13071540833332,59.0,89.0
737,244.32138663333333,245.30825139166666,50.0,86.0
738,244.10079863333334,245.33180208333332,43.0,85.0
739,245.19955589166665,245.551004675,55.0,92.0
740,244.98216489166666,245.779265225,66.0,112.0
741,245.41694689166667,245.81730865,62.0,95.0
742,245.63433789166666,245.85172889166665,59.0,88.0
743,246.28651089166667,246.59448147499998,61.0,85.0
744,246.50390189166666,246.75933631666666,64.0,92.0
745,246.06911989166665,246.81911884166666,55.0,56.0
746,246.93868389166667,247.06911849166664,55.0,34.0
747,245.85172889166665,247.16150966666666,49.0,71.0
748,246.72129289166665,247.46585706666664,67.0,107.0
749,247.15607489166666,247.48216139166666,64.0,92.0
750,247.37346589166665,247.61259599166667,61.0,82.0
751,248.02563889166666,248.55281206666666,55.0,75.0
752,247.59085689166665,249.214043025,48.0,96.0
753,248.67781189166666,249.29375305833332,55.0,69.0
754,248.24302989166665,249.31005738333332,60.0,82.0
755,247.80824789166667,249.31186897499998,52.0,65.0
756,248.46042089166664,249.409694925,67.0,83.0
757,249.76476689166665,250.14701273333333,59.0,59.0
758,249.98215789166665,250.224911175,62.0,76.0
759,249.54737589166666,250.28288210833333,54.0,53.0
760,250.41693989166666,250.670562725,54.0,59.0
761,249.32998489166667,250.74483798333333,47.0,63.0
762,250.63433089166665,251.05462015833334,62.0,86.0
763,250.85172189166667,251.083605625,59.0,96.0
764,250.19954889166667,251.09809835833332,66.0,93.0
765,251.72128589166667,251.909417725,60.0,79.0
766,251.50389489166665,251.91481339999999,57.0,67.0
767,251.28650389166665,251.94718745,52.0,66.0
768,251.06911289166666,252.567690075,45.0,77.0
769,252.36984865833332,252.783517075,60.0,96.0
770,252.15402165833333,252.80150265833333,52.0,69.0
771,251.93819465833332,252.81229400833334,64.0,96.0
772,252.58567565833332,252.81409256666666,57.0,86.0
773,253.44898365833333,253.67200489166666,62.0,89.0
774,253.23315665833331,253.70258038333333,59.0,72.0
775,253.01732965833332,253.743947225,54.0,73.0
776,252.80150265833333,254.04250790833333,47.0,81.0
777,253.8806376583333,254.04790358333332,54.0,67.0
778,254.09646465833333,254.36804696666667,62.0,100.0
779,253.66481065833332,254.3752412,66.0,112.0
780,254.31229165833332,254.47775902499998,59.0,96.0
781,254.74394565833333,255.06408904166665,60.0,88.0
782,255.17559965833334,255.43998773333334,60.0,71.0
783,254.95977265833332,255.43998773333334,63.0,65.0
784,254.5281186583333,255.61444789166666,48.0,81.0
785,255.60725365833332,255.87344029166667,60.0,92.0
786,255.82308065833334,256.107252875,63.0,73.0
787,255.39142665833333,256.1684038583333,67.0,74.0
788,256.0389076583333,256.2169649333333,60.0,97.0
789,256.6863886583333,257.2259561583333,50.0,89.0
790,256.9022156583333,257.2925028166667,57.0,99.0
791,256.25473465833335,257.4633658583333,38.0,77.0
792,256.47056165833334,257.46516441666665,45.0,71.0
793,257.3338696583333,257.58926494166667,50.0,100.0
794,257.54969665833335,257.9597679583333,62.0,122.0
795,257.1180426583333,257.963365075,66.0,122.0
796,257.76552365833334,258.00293335833334,57.0,112.0
797,258.62883165833335,258.81072064999995,59.0,107.0
798,258.4130046583333,258.9447784333333,55.0,93.0
799,258.1971776583333,259.1277491916666,50.0,78.0
800,257.9813506583333,259.1730389833333,43.0,81.0
801,259.06253189166665,259.30709676666663,55.0,99.0
802,258.84514089166663,259.32158949999996,62.0,117.0
803,259.2799228916666,259.609632575,59.0,117.0
804,259.49731389166664,259.7201396666666,62.0,102.0
805,260.14948689166664,260.533544325,61.0,78.0
806,260.3668778916666,260.58789207499996,64.0,89.0
807,259.9320958916666,260.653109375,55.0,81.0
808,260.80165989166665,260.9592683666666,55.0,72.0
809,259.71470489166666,261.00093497499995,49.0,74.0
810,260.5842688916666,261.3958619583333,67.0,112.0
811,261.0190508916666,261.4012967333333,64.0,99.0
812,261.23644189166663,261.4701372166666,61.0,81.0
813,262.10600589166665,262.359628725,60.0,90.0
814,261.88861489166663,262.3741214583333,55.0,75.0
815,261.6712238916666,262.653106575,52.0,58.0
816,261.45383289166665,262.87593234999997,48.0,88.0
817,262.75817889166666,263.0154249083333,60.0,93.0
818,262.9755698916666,263.15491746666663,64.0,82.0
819,262.54078789166664,263.1784681583333,55.0,81.0
820,262.3233968916666,263.19296089166664,67.0,92.0
821,263.19296089166664,264.28535066666666,55.0,63.0
822,263.19296089166664,264.70745152499995,60.0,71.0
823,263.19296089166664,264.7110747083333,63.0,74.0
824,263.6277428916666,266.5367810166666,43.0,51.0
825,264.0625248916666,266.5691550666666,48.0,70.0
826,263.19296089166664,266.5925363249999,36.0,83.0
827,264.49730689166665,266.59973055833325,55.0,46.0
828,264.93208889166664,266.61232046666663,60.0,69.0
829,264.93208889166664,266.6177161416666,63.0,67.0
830,267.09613265833326,267.62850592499996,54.0,66.0
831,266.6644786583333,267.6806641166666,47.0,76.0
832,267.5277866583333,268.20224603333327,66.0,112.0
833,267.9594406583333,268.8553443583333,62.0,82.0
834,268.3915768916666,269.4078798166666,40.0,76.0
835,268.8263588916666,269.53106804999993,47.0,49.0
836,269.2611408916666,270.1470092166666,67.0,97.0
837,269.6959228916666,270.1524439916666,64.0,66.0
838,270.5654868916666,271.33541334999995,52.0,59.0
839,270.1307048916666,271.34447130833325,45.0,77.0
840,271.4350508916666,271.93883326666656,60.0,70.0
841,271.0002688916666,271.96456853333325,64.0,93.0
842,272.31199463333326,273.58956679999994,45.0,53.0
843,272.75317063333324,273.62816969999994,50.0,63.0
844,273.1943466333333,273.63368439999994,62.0,62.0
845,272.75317063333324,273.64103733333326,66.0,97.0
846,271.8708186333333,273.64655203333325,38.0,75.0
847,273.6539049666666,275.23294739999994,43.0,90.0
848,274.08772803333324,275.39838839999993,50.0,62.0
849,274.5233893333333,276.00684363333323,62.0,97.0
850,274.95721239999995,276.09324059999994,59.0,72.0
851,275.84140263333325,276.5711812666666,50.0,52.0
852,275.35427079999994,276.60610769999994,43.0,78.0
853,276.66860763333324,277.19066589999994,55.0,72.0
854,276.26603453333325,277.1998570666666,62.0,97.0
855,277.9755915333333,278.96088459999993,52.0,96.0
856,279.2605166333333,279.69985439999994,52.0,72.0
857,278.4204439999999,279.73294259999994,55.0,82.0
858,277.0914012999999,279.86161893333326,40.0,86.0
859,277.5270625999999,279.88000126666657,47.0,53.0
860,279.7366190666666,280.6851474666666,59.0,96.0
861,280.2108832666666,280.7127209666666,55.0,76.0
862,278.82853179999995,280.7807355999999,64.0,92.0
863,281.4700730999999,281.9186020333333,48.0,69.0
864,281.1263234666666,282.22926346666657,43.0,33.0
865,280.68330923333326,282.23110169999995,36.0,85.0
866,281.9167637999999,282.25499873333325,55.0,81.0
867,281.4627201666666,282.2568369666666,64.0,86.0
868,282.3303662999999,283.2219094666666,35.0,90.0
869,282.8156598999999,283.26418883333326,59.0,89.0
870,283.2163947666666,283.9902909999999,40.0,78.0
871,283.6502178333333,284.21271723333325,52.0,70.0
872,284.1152908666666,285.49580409999993,33.0,85.0
873,284.6465402999999,285.53440699999993,40.0,57.0
874,285.0049957999999,285.83036256666657,45.0,77.0
875,285.47558353333324,286.0895534666666,60.0,97.0
876,286.42962663333327,287.90205153333324,45.0,66.0
877,285.9553624333333,287.9866102666666,38.0,77.0
878,287.4296255666666,288.58403609999993,54.0,45.0
879,286.92043493333324,288.62999193333326,50.0,56.0
880,289.1594031333333,289.7255789999999,50.0,54.0
881,289.6594025999999,290.19616673333326,55.0,60.0
882,290.13918149999995,290.26601959999994,59.0,66.0
883,290.6667544666666,291.88917963333324,62.0,82.0
884,291.2844008666666,291.89653256666656,67.0,67.0
885,291.8413855666666,291.98844423333327,71.0,63.0
886,293.21270763333325,295.99211643333325,79.0,49.0
887,288.66308013333327,295.9957928999999,43.0,54.0
888,293.9038833666666,295.99763113333324,83.0,43.0
889,294.5380738666666,296.00314583333324,86.0,69.0
890,292.48844369999995,296.00498406666657,74.0,88.0
891,287.7384487666666,296.01785169999994,31.0,62.0
