,start,end,pitch,velocity
0,32.55645378333333,32.70161508333334,66.0,100.0
1,32.798389283333336,32.939518325,66.0,96.0
2,33.04032478333333,33.471776425,66.0,102.0
3,33.52419578333333,33.69959902083333,64.0,86.0
4,33.76613128333334,33.90524419583333,66.0,86.0
5,34.008066783333334,34.33064745,66.0,117.0
6,34.491937783333334,34.667341020833334,64.0,93.0
7,34.73387328333334,34.95766362083334,66.0,99.0
8,35.21774428333333,35.88105077916667,71.0,95.0
9,36.42742178333334,36.653228250000005,62.0,97.0
10,36.66935728333333,36.826615358333335,64.0,69.0
11,36.91129278333334,37.22379280416667,64.0,99.0
12,37.39516378333334,37.57459927916667,62.0,86.0
13,37.637099283333335,37.78629284166667,64.0,74.0
14,37.87903478333334,38.34274449166667,64.0,89.0
15,38.36290578333333,38.5645187,62.0,93.0
16,38.604841283333336,38.97580905,64.0,96.0
17,39.08871228333334,40.15927687083334,69.0,96.0
18,40.298389783333334,40.752018845833334,62.0,93.0
19,40.782260783333335,41.1350833875,67.0,83.0
20,41.266131783333336,41.391131791666666,67.0,92.0
21,41.50806728333333,42.048389900000004,67.0,92.0
22,42.23387378333334,42.44959960416667,66.0,88.0
23,42.475809283333334,42.89113189166667,67.0,85.0
24,43.20161578333334,43.3366964375,66.0,89.0
25,43.443551283333335,43.91129325,66.0,88.0
26,44.16935778333333,44.407261025000004,64.0,82.0
27,44.411293283333336,44.69355136666667,67.0,79.0
28,44.65322878333333,46.366938575,66.0,56.0
29,48.04032578333334,48.23790644166667,64.0,96.0
30,48.282261283333334,48.43145484166667,66.0,90.0
31,48.52419678333334,48.8649226125,66.0,102.0
32,49.00806778333334,49.19355166666667,64.0,86.0
33,49.250003283333335,49.366938775,66.0,93.0
34,49.49193878333334,49.806454933333335,66.0,99.0
35,49.97580978333333,50.18548721666667,64.0,81.0
36,50.217745283333336,50.50605175416667,66.0,97.0
37,50.70161628333334,51.40726149166667,71.0,99.0
38,51.911293783333335,52.10887444166667,71.0,97.0
39,52.15322928333334,52.241938966666666,73.0,102.0
40,52.395164783333335,52.675406737500005,73.0,122.0
41,52.879035783333336,53.0141164375,71.0,92.0
42,53.12097128333333,53.21774548333334,73.0,107.0
43,53.36290678333334,53.641132608333336,73.0,117.0
44,53.84677778333334,54.223793937500005,76.0,112.0
45,54.33064878333334,55.149197225,74.0,107.0
46,55.29839078333334,55.49597144166667,74.0,107.0
47,55.540326283333336,55.661294033333334,76.0,97.0
48,55.78226178333333,56.01008437916667,78.0,122.0
49,56.26613278333333,56.578632804166666,78.0,127.0
50,56.750003783333334,56.84677798333334,76.0,96.0
51,56.99193928333334,57.282261883333334,76.0,117.0
52,57.717745783333335,57.834681275,74.0,100.0
53,57.95968128333334,58.33266517916667,74.0,127.0
54,59.16935878333334,59.42742331666667,74.0,96.0
55,59.41129428333333,59.62903623333334,76.0,93.0
56,59.65322978333334,59.93145560833334,78.0,112.0
57,60.13710078333334,60.50000403333333,78.0,127.0
58,60.62097178333334,60.7258105,76.0,85.0
59,60.862907283333335,61.24193956666667,76.0,112.0
60,61.58871378333334,61.7358912125,74.0,107.0
61,61.83064928333334,62.19758479166667,76.0,107.0
62,62.556455783333334,62.84476225416667,69.0,93.0
63,63.040326783333335,63.296375187500004,74.0,102.0
64,63.524197783333335,63.68145585833334,73.0,122.0
65,63.76613328333334,64.17137524583333,74.0,117.0
66,64.49193978333334,64.57863333750001,73.0,117.0
67,64.73387528333333,65.27218177083334,74.0,102.0
68,65.45968178333334,65.552423725,74.0,96.0
69,65.70161728333333,66.40323023333333,73.0,100.0
70,66.42742378333334,66.49193991666667,74.0,102.0
71,66.66935928333334,67.0947625375,76.0,99.0
72,67.39516578333334,67.51411740416667,71.0,97.0
73,67.63710128333334,68.28226261666667,71.0,96.0
74,68.36290778333334,68.97782717916667,69.0,86.0
75,70.29839178333334,70.61492406250001,69.0,96.0
76,70.78226278333334,71.04234344583334,74.0,102.0
77,71.26613378333333,71.48992412083334,76.0,122.0
78,71.50806928333334,71.77218220416667,74.0,83.0
79,71.75000478333334,72.1270209375,78.0,112.0
80,72.23387578333333,72.33266611250001,78.0,127.0
81,72.47581128333334,72.8891177625,78.0,122.0
82,73.20161778333333,73.29032746666667,78.0,127.0
83,73.44355328333333,73.7842791125,78.0,127.0
84,74.16935978333333,74.26613398333333,76.0,102.0
85,74.41129528333333,74.94153725416668,73.0,122.0
86,75.13710178333334,75.42540825416667,74.0,99.0
87,75.62097278333334,77.55645678333333,78.0,122.0
88,78.04032778333334,78.33065038333334,74.0,100.0
89,78.52419878333333,78.83065041666667,78.0,112.0
90,79.00806978333334,79.3004085125,74.0,102.0
91,79.49194078333333,80.2197634125,83.0,112.0
92,80.45968278333334,80.73186022083334,78.0,117.0
93,80.94355378333334,81.39718284583334,78.0,107.0
94,81.42742478333334,82.58468292500001,76.0,95.0
95,83.12097328333334,83.23387651666667,74.0,90.0
96,83.36290878333334,83.73589267916667,73.0,112.0
97,83.84677978333333,83.97379592083334,74.0,89.0
98,84.08871528333334,84.60686047916667,76.0,112.0
99,84.81452178333333,84.91532824166667,69.0,100.0
100,85.05645728333334,85.43750569583334,74.0,107.0
101,86.99194128333333,87.12500580833334,69.0,95.0
102,87.23387678333334,87.53629615833334,69.0,102.0
103,87.71774778333334,87.82661875833334,67.0,88.0
104,87.95968328333333,88.21573168750001,67.0,92.0
105,88.44355428333334,88.850812375,74.0,117.0
106,89.16936078333333,89.4193608,74.0,117.0
107,89.65323178333334,89.794360825,73.0,100.0
108,89.89516728333334,90.35484473333334,74.0,107.0
109,90.62097378333334,90.95968348333334,76.0,112.0
110,91.10484478333333,92.56049004166667,76.0,127.0
111,93.52419978333334,93.81250625416668,69.0,93.0
112,94.00807078333334,94.2641191875,74.0,102.0
113,94.49194178333333,94.64919985833333,73.0,122.0
114,94.73387728333334,95.13911924583334,74.0,117.0
115,95.45968378333333,95.5463773375,73.0,117.0
116,95.70161928333334,96.23992577083334,74.0,102.0
117,96.42742578333333,96.52016772500001,74.0,96.0
118,96.66936128333334,97.37097423333334,73.0,100.0
119,97.39516778333333,97.45968391666668,74.0,102.0
120,97.63710328333333,98.0625065375,76.0,99.0
121,98.36290978333334,98.48186140416666,71.0,97.0
122,98.60484528333333,99.25000661666667,71.0,96.0
123,99.33065178333334,99.94557117916668,69.0,86.0
124,101.26613578333334,101.5826680625,69.0,96.0
125,101.75000678333333,102.01008744583334,74.0,102.0
126,102.23387778333334,102.45766812083333,76.0,122.0
127,102.47581328333334,102.73992620416666,74.0,83.0
128,102.71774878333333,103.0947649375,78.0,112.0
129,103.20161978333334,103.3004101125,78.0,127.0
130,103.44355528333334,103.8568617625,78.0,122.0
131,104.16936178333334,104.25807146666668,78.0,127.0
132,104.41129728333334,104.7520231125,78.0,127.0
133,105.13710378333334,105.23387798333334,76.0,102.0
134,105.37903928333334,105.87500705833334,78.0,112.0
135,106.10484578333333,106.197587725,79.0,117.0
136,106.34678128333334,106.94355551666668,79.0,127.0
137,106.87097486666667,108.52420078333334,78.0,122.0
138,109.00807178333334,109.29839438333335,74.0,100.0
139,109.49194278333334,109.79839441666667,78.0,112.0
140,109.97581378333334,110.26815251250001,74.0,102.0
141,110.45968478333334,111.18750741250001,83.0,112.0
142,111.42742678333335,111.69960422083334,78.0,117.0
143,111.91129778333334,112.36492684583334,78.0,107.0
144,112.39516878333333,113.552426925,76.0,95.0
145,114.08871728333334,114.20162051666667,74.0,90.0
146,114.33065278333333,114.70363667916668,73.0,112.0
147,114.81452378333334,114.94153992083334,74.0,89.0
148,115.05645928333334,115.57460447916667,76.0,112.0
149,115.78226578333334,115.88307224166667,69.0,100.0
150,116.02420128333334,116.40524969583333,74.0,107.0
151,117.95968528333334,118.09274980833334,69.0,95.0
152,118.20162078333334,118.50404015833334,69.0,102.0
153,118.68549178333333,118.79436275833334,67.0,88.0
154,118.92742728333334,119.1834756875,67.0,92.0
155,119.65323378333333,119.77218540416668,78.0,96.0
156,119.89516928333335,120.3447660875,78.0,122.0
157,120.62097578333334,120.76815321250001,74.0,99.0
158,120.86291128333333,121.35686292916667,73.0,112.0
159,121.58871778333334,121.6935565,74.0,100.0
160,121.83065328333333,122.33468557500001,76.0,117.0
161,122.55645978333334,124.13529406458333,74.0,107.0
162,140.97091028333332,141.11630603333333,66.0,100.0
163,141.21323653333334,141.3545935125,66.0,96.0
164,141.45556278333333,141.8877112625,66.0,102.0
165,141.94021528333334,142.11590181458334,64.0,86.0
166,142.18254153333334,142.32187912708332,66.0,86.0
167,142.42486778333333,142.74796945,66.0,117.0
168,142.90952028333334,143.08520681458333,64.0,93.0
169,143.15184653333333,143.37599831458334,66.0,99.0
170,143.63649903333334,144.30087683541666,71.0,95.0
171,144.84813028333332,145.07430145,62.0,97.0
172,145.09045653333334,145.24796859583333,64.0,69.0
173,145.33278278333333,145.64578752291666,64.0,99.0
174,145.81743528333334,145.99716058541668,62.0,86.0
175,146.05976153333333,146.20919605416668,64.0,74.0
176,146.30208778333332,146.76654642916668,64.0,89.0
177,146.78674028333333,146.988678825,62.0,93.0
178,147.02906653333332,147.40063345,64.0,96.0
179,147.51371903333333,148.58601268958333,69.0,96.0
180,148.72535028333334,149.17971200208333,62.0,93.0
181,149.21000278333332,149.56339523125,67.0,83.0
182,149.69465528333333,149.81985717916666,67.0,92.0
183,149.93698153333332,150.478176825,67.0,92.0
184,150.66396028333332,150.88003452291667,66.0,88.0
185,150.90628653333334,151.32227992916665,67.0,85.0
186,151.63326528333334,151.76856410625,66.0,89.0
187,151.87559153333333,152.34408895,66.0,88.0
188,152.60257028333334,152.8408577625,64.0,82.0
189,152.84489653333333,153.12761049166667,67.0,79.0
190,153.08722278333335,154.8037003875,66.0,56.0
191,156.47979028333333,156.67769005416667,64.0,96.0
192,156.72211653333335,156.87155105416667,66.0,90.0
193,156.96444278333334,157.30571891875002,66.0,102.0
194,157.44909528333335,157.63487874166668,64.0,86.0
195,157.69142153333334,157.8085458875,66.0,93.0
196,157.93374778333333,158.24877190833334,66.0,99.0
197,158.41840028333334,158.62841636666667,64.0,81.0
198,158.66072653333333,158.94949864791667,66.0,97.0
199,159.14537903333334,159.85216392916666,71.0,99.0
200,160.35701028333332,160.55491005416667,71.0,97.0
201,160.59933653333334,160.68818949166666,73.0,102.0
202,160.84166278333333,161.12235735625,73.0,122.0
203,161.32631528333334,161.46161410625,71.0,92.0
204,161.56864153333333,161.66557203333332,73.0,107.0
205,161.81096778333333,162.08964297083332,73.0,117.0
206,162.29562028333334,162.67324535625,76.0,112.0
207,162.78027278333332,163.6001432625,74.0,107.0
208,163.74957778333334,163.94747755416665,74.0,107.0
209,163.99190403333333,164.11306715833334,76.0,97.0
210,164.23423028333332,164.46242083541665,78.0,122.0
211,164.71888278333333,165.03188752291666,78.0,127.0
212,165.20353528333334,165.30046578333332,76.0,96.0
213,165.44586153333333,165.73665303333334,76.0,117.0
214,166.17284028333333,166.2899646375,74.0,100.0
215,166.41516653333332,166.78875283541666,74.0,127.0
216,167.62679778333333,167.88527911666665,74.0,96.0
217,167.86912403333332,168.08721765833334,76.0,93.0
218,168.11145028333334,168.39012547083334,78.0,112.0
219,168.59610278333332,168.95959215833335,78.0,127.0
220,169.08075528333333,169.185763325,76.0,85.0
221,169.32308153333332,169.70272599166668,76.0,112.0
222,170.05006028333332,170.19747541875,74.0,107.0
223,170.29238653333334,170.65991467916666,76.0,107.0
224,171.01936528333334,171.30813739791665,69.0,93.0
225,171.50401778333332,171.76047973125,74.0,102.0
226,171.98867028333333,172.14618234583332,73.0,122.0
227,172.23099653333333,172.63689300208333,74.0,117.0
228,172.95797528333333,173.04480885625,73.0,117.0
229,173.20030153333335,173.73947743958334,74.0,102.0
230,173.92728028333335,174.02017201249998,74.0,96.0
231,174.16960653333334,174.87235265833334,73.0,100.0
232,174.89658528333334,174.96120561666666,74.0,102.0
233,175.13891153333333,175.56500185625,76.0,99.0
234,175.86589028333333,175.98503402291666,71.0,97.0
235,176.10821653333335,176.75441986666667,71.0,96.0
236,176.83519528333335,177.45110783541668,69.0,86.0
237,178.77380528333333,179.09084879375,69.0,96.0
238,179.25845778333334,179.51895850208334,74.0,102.0
239,179.74311028333335,179.96726206458334,76.0,122.0
240,179.98543653333334,180.24997602291666,74.0,83.0
241,180.22776278333333,180.60538785625,78.0,112.0
242,180.71241528333334,180.81136516875,78.0,127.0
243,180.95474153333333,181.36871554375,78.0,122.0
244,181.68172028333333,181.77057324166668,78.0,127.0
245,181.92404653333332,182.26532266875,78.0,127.0
246,182.65102528333333,182.74795578333334,76.0,102.0
247,182.89335153333334,183.42444989791667,73.0,122.0
248,183.62033028333332,183.90910239791668,74.0,99.0
249,184.10498278333333,186.04359278333334,78.0,122.0
250,186.52746378333333,186.81778638333333,74.0,100.0
251,187.01133478333333,187.31778641666668,78.0,112.0
252,187.49520578333335,187.7875445125,74.0,102.0
253,187.97907678333334,188.7068994125,83.0,112.0
254,188.94681878333333,189.21899622083333,78.0,117.0
255,189.43068978333335,189.88431884583335,78.0,107.0
256,189.91456078333334,191.071818925,76.0,95.0
257,191.60810928333333,191.72101251666666,74.0,90.0
258,191.85004478333335,192.22302867916667,73.0,112.0
259,192.33391578333334,192.46093192083333,74.0,89.0
260,192.57585128333335,193.09399647916666,76.0,112.0
261,193.30165778333333,193.4851255375,78.0,127.0
262,193.54359328333334,194.75327078333333,74.0,107.0
263,195.47907728333334,195.61214180833335,69.0,95.0
264,195.72101278333335,196.02343215833335,69.0,102.0
265,196.20488378333334,196.31375475833335,67.0,88.0
266,196.44681928333333,196.7028676875,67.0,92.0
267,196.93069028333335,197.337948375,74.0,117.0
268,197.65649678333335,197.9064968,74.0,117.0
269,198.14036778333335,198.281496825,73.0,100.0
270,198.38230328333333,198.93875493333334,71.0,90.0
271,198.86617428333335,199.3762549625,73.0,107.0
272,199.59198078333333,200.57181955833335,74.0,112.0
273,204.43069078333335,204.60407789166666,74.0,107.0
274,204.67262628333333,204.7714166125,76.0,95.0
275,204.91456178333334,205.52948117916668,78.0,127.0
276,206.36617478333335,206.51738447083335,74.0,112.0
277,206.60811028333333,206.69480383750002,76.0,117.0
278,206.85004578333334,207.29964258750002,78.0,127.0
279,208.30165878333332,208.43472330833333,74.0,102.0
280,208.54359428333333,208.63028783750002,76.0,100.0
281,208.78552978333335,209.31778788333332,78.0,127.0
282,209.99520728333334,210.07585245,74.0,112.0
283,210.23714278333335,210.36819117916667,74.0,117.0
284,210.47907828333334,210.56173957916667,76.0,117.0
285,210.72101378333335,211.14238477916666,78.0,127.0
286,212.17262678333333,212.33593324583333,74.0,102.0
287,212.41456228333334,212.51536874166666,76.0,76.0
288,212.65649778333335,213.07585265,78.0,100.0
289,213.86617528333335,213.94883657916668,74.0,99.0
290,214.10811078333333,214.23512692083335,74.0,100.0
291,214.35004628333334,214.4367398375,76.0,107.0
292,214.59198178333332,214.86214309166667,78.0,127.0
293,215.07585278333335,215.5395624916667,76.0,127.0
294,215.80165928333335,215.9609334875,74.0,100.0
295,216.04359478333333,216.41456255,71.0,107.0
296,216.52746578333335,217.01133678333335,76.0,127.0
297,217.49520778333334,218.35811106666668,74.0,107.0
298,218.94682078333335,219.3359337125,78.0,127.0
299,219.43069178333334,219.5839176,76.0,127.0
300,219.67262728333333,220.0496434375,76.0,127.0
301,220.39843378333333,220.49924024166668,74.0,112.0
302,220.64036928333334,220.98109511250001,74.0,117.0
303,221.36617578333335,221.46093385416668,73.0,127.0
304,221.60811128333333,221.93472420833334,74.0,127.0
305,222.09198228333332,222.41859520833333,76.0,127.0
306,222.81778878333336,223.128272675,78.0,127.0
307,223.30165978333335,223.39440172500002,76.0,95.0
308,223.54359528333333,223.98512757083336,76.0,117.0
309,224.26940178333334,224.34399856250002,74.0,122.0
310,224.51133728333335,224.82383730416666,74.0,117.0
311,226.68875678333333,227.01335357916668,78.0,127.0
312,227.17262778333333,227.26133746666667,76.0,107.0
313,227.41456328333334,227.7552891125,76.0,117.0
314,228.14036978333334,228.23311172500001,74.0,117.0
315,228.38230528333332,228.6504504625,74.0,112.0
316,229.10811178333336,229.18472469166667,73.0,127.0
317,229.35004728333334,229.67061182083336,74.0,127.0
318,229.83391828333333,230.25528927916667,76.0,127.0
319,230.31778928333335,231.92666035833335,76.0,127.0
320,232.49520878333334,233.07383785416667,77.0,122.0
321,233.46295078333333,233.81375725833334,75.0,122.0
322,233.94682178333335,234.09601534166666,74.0,97.0
323,234.18875728333333,234.74117667500002,75.0,122.0
324,234.91456378333334,234.98714443333336,75.0,117.0
325,235.15649928333335,235.63835415416668,75.0,127.0
326,235.88230578333335,235.97504772500002,75.0,122.0
327,236.12424128333333,236.5859348625,74.0,127.0
328,236.85004778333334,236.92867682083335,75.0,122.0
329,237.09198328333335,237.63028977083334,77.0,122.0
330,237.81778978333335,237.90045107916666,72.0,112.0
331,238.05972528333334,238.43069305,72.0,127.0
332,238.54359628333333,239.26335439583335,70.0,112.0
333,240.72101578333334,240.98714483333333,70.0,107.0
334,241.20488678333334,241.48109647916667,75.0,122.0
335,241.68875778333336,241.9105319916667,77.0,127.0
336,241.93069328333334,242.0657739375,75.0,107.0
337,242.17262878333332,242.50529009583335,79.0,127.0
338,242.65649978333335,242.76133850000002,79.0,127.0
339,242.89843528333336,243.42262886666668,79.0,112.0
340,243.62424178333333,243.70488695,79.0,112.0
341,243.86617728333334,244.15649988333334,79.0,127.0
342,244.59198378333335,244.71295153333335,77.0,107.0
343,244.83391928333333,245.29762899166667,79.0,127.0
344,245.55972578333333,245.64037095,80.0,127.0
345,245.80166128333335,246.15650001666668,80.0,127.0
346,246.28553228333334,247.13633879166667,79.0,107.0
347,248.46295178333332,248.7129518,75.0,127.0
348,248.94682278333335,249.23714538333334,79.0,127.0
349,249.43069378333334,249.69480670416667,75.0,127.0
350,249.91456478333333,250.7270648375,84.0,127.0
351,250.88230678333335,251.20287132083334,79.0,127.0
352,251.36617778333334,251.87424233333334,79.0,112.0
353,251.85004878333334,252.88835530416668,77.0,112.0
354,253.54359728333333,253.63230696666668,75.0,122.0
355,253.78553278333334,254.071823125,74.0,102.0
356,254.26940378333336,254.35206507916666,75.0,112.0
357,254.51133928333334,254.87424253333336,77.0,95.0
358,255.23714578333335,255.33996837083333,70.0,112.0
359,255.47908128333336,255.886339375,77.0,117.0
360,255.96295228333332,256.87625879583334,75.0,117.0
361,257.41456528333333,257.52343625833333,70.0,102.0
362,257.65650078333334,258.0597266166667,70.0,122.0
363,258.1403717833333,258.2532750166667,68.0,85.0
364,258.3823072833334,258.7472266625,68.0,122.0
365,259.10811378333335,259.19480733750004,79.0,112.0
366,259.35004928333336,259.6867428541667,79.0,117.0
367,260.07585578333334,260.192791275,75.0,127.0
368,260.31779128333335,260.725049375,74.0,117.0
369,261.0435977833333,261.2633558625,75.0,112.0
370,261.28553328333334,261.83190428750004,77.0,97.0
371,261.76940428333336,265.08795289166665,75.0,107.0
