,start,end,pitch,velocity
0,3.0302421375,4.2278228625,55.0,67.0
1,4.495968041666667,4.8568551625000005,55.0,63.0
2,3.5504034625000003,5.022177754166667,59.0,62.0
3,2.036290458333333,5.0564519500000005,43.0,72.0
4,2.4919356500000003,5.0604842083333335,50.0,59.0
5,4.024193816666667,5.941532654166667,67.0,73.0
6,4.9919358166666665,5.955645558333334,62.0,88.0
7,5.4495971375000005,5.9939520125,59.0,65.0
8,5.9213713625,7.1048391833333335,42.0,68.0
9,6.4052423625,7.155242412500001,49.0,37.0
10,6.854839166666667,7.282258550000001,54.0,50.0
11,6.885081104166667,7.812500520833334,61.0,85.0
12,7.350806941666667,7.848790845833333,57.0,63.0
13,8.3165328125,8.955645758333334,54.0,56.0
14,9.080645766666667,9.250000616666668,54.0,58.0
15,7.8326618125000005,9.296371587500001,47.0,72.0
16,8.840726395833334,9.840726462500001,66.0,100.0
17,9.322581266666667,9.842742591666667,62.0,63.0
18,9.7923393625,11.181452358333335,40.0,69.0
19,10.766129750000001,11.268145912500001,52.0,40.0
20,10.260081329166667,11.3225814,47.0,47.0
21,10.756049104166667,11.584678191666667,67.0,69.0
22,11.229839458333334,11.679436262500001,59.0,59.0
23,12.205645975000001,12.5745976125,54.0,95.0
24,11.707662070833335,12.618952454166667,42.0,79.0
25,12.459678250000001,12.810484725,61.0,72.0
26,12.681452458333334,13.260081529166667,46.0,75.0
27,13.183468620833334,13.673388008333333,58.0,72.0
28,14.403226766666668,14.681452591666668,62.0,57.0
29,13.891129958333334,14.760081629166667,54.0,66.0
30,14.149194491666668,14.7762106625,59.0,63.0
31,13.671371879166667,15.493952645833334,47.0,73.0
32,15.6108881375,15.620968783333334,47.0,63.0
33,14.881049379166667,15.620968783333334,54.0,44.0
34,15.358871991666668,15.620968783333334,59.0,59.0
35,15.133065525000001,15.620968783333334,62.0,71.0
36,14.6431461375,15.620968783333334,66.0,102.0
37,16.08467849166667,16.653226916666668,52.0,59.0
38,15.578630070833334,16.713710791666667,45.0,77.0
39,16.538307554166668,17.413307612500002,64.0,96.0
40,17.0625011375,17.55443665416667,57.0,58.0
41,17.997985070833334,18.544356075,56.0,62.0
42,17.54233987916667,19.11492062916667,44.0,82.0
43,18.997985137500002,19.487904525,56.0,79.0
44,18.489920587500002,19.518146462500003,62.0,77.0
45,19.467743233333334,20.54032395,43.0,76.0
46,19.967743266666666,20.578630404166667,55.0,78.0
47,20.45766265416667,21.352824004166667,62.0,83.0
48,20.937501395833333,21.415324008333336,55.0,59.0
49,21.391130458333333,21.427420783333336,42.0,89.0
50,21.41129175,21.427420783333336,42.0,82.0
51,21.86693694166667,22.625001508333334,49.0,47.0
52,22.36290471666667,22.814517650000003,54.0,56.0
53,22.377017620833335,23.193549933333333,61.0,93.0
54,22.8568563625,23.453630595833335,57.0,88.0
55,23.846775783333335,24.60685647916667,54.0,63.0
56,23.34879187916667,24.792340362500003,47.0,71.0
57,24.326614525,25.308469429166667,66.0,93.0
58,24.800404879166667,25.328630720833335,62.0,69.0
59,25.294356525,26.592743708333334,40.0,85.0
60,25.758066233333334,26.641130808333333,47.0,46.0
61,26.225808200000003,26.643146937500003,52.0,46.0
62,26.235888845833333,27.252017945833334,67.0,82.0
63,26.717743716666668,27.254034075,64.0,67.0
64,27.679437329166667,28.534276095833334,52.0,55.0
65,27.197582458333336,28.57258255,45.0,74.0
66,29.1229858125,29.169356783333335,38.0,69.0
67,29.1592761375,29.169356783333335,38.0,75.0
68,28.62298577916667,29.169356783333335,61.0,43.0
69,28.153227683333334,29.169356783333335,64.0,93.0
70,29.629034233333336,30.19556652916667,45.0,58.0
71,30.129034266666668,30.618953654166667,50.0,45.0
72,30.137098783333336,30.697582691666668,67.0,83.0
73,31.131050462500003,32.487905391666665,50.0,32.0
74,30.596776233333333,33.00403445833334,45.0,48.0
75,31.125002075,33.012098975,62.0,67.0
76,31.13306659166667,33.022179620833334,57.0,44.0
77,31.116937558333333,33.028228008333336,66.0,59.0
78,33.987905491666666,34.35887325833333,55.0,46.0
79,34.008066783333334,34.35887325833333,55.0,51.0
80,33.52217965416667,34.47177649166667,50.0,59.0
81,33.52419578333333,34.47177649166667,50.0,53.0
82,33.04032478333333,34.52822810833334,43.0,75.0
83,33.0423409125,34.52822810833334,43.0,85.0
84,33.985889362500004,34.89516361666667,62.0,85.0
85,34.008066783333334,34.89516361666667,62.0,73.0
86,34.487905525,34.923389425,59.0,69.0
87,34.491937783333334,34.923389425,59.0,69.0
88,34.975808783333335,36.41532500833333,43.0,63.0
89,35.459679783333335,36.544357275,50.0,56.0
90,35.943550783333336,37.155244412500004,67.0,78.0
91,36.42742178333334,38.5161316,59.0,69.0
92,36.91129278333334,38.6189541875,42.0,71.0
93,37.39516378333334,38.73387355,54.0,62.0
94,38.36290578333333,39.32258326666667,62.0,56.0
95,37.87903478333334,39.32863165416667,66.0,81.0
96,39.33064778333333,39.98387363333334,54.0,58.0
97,38.84677678333333,40.10282525416667,47.0,74.0
98,39.814518783333334,40.79435755833334,66.0,79.0
99,40.298389783333334,40.7963736875,62.0,63.0
100,40.782260783333335,42.17137377916667,40.0,81.0
101,41.266131783333336,42.18548668333334,47.0,64.0
102,41.750002783333336,42.38306734166667,52.0,37.0
103,42.23387378333334,42.82056737083334,55.0,55.0
104,41.750002783333336,43.2580674,64.0,71.0
105,43.20161578333334,44.006051320833336,52.0,49.0
106,42.71774478333334,44.07056745416667,45.0,73.0
107,43.68548678333334,44.78024492083333,64.0,90.0
108,44.16935778333333,44.788309437500004,61.0,44.0
109,45.620970783333334,46.80443860416667,50.0,72.0
110,46.588712783333335,47.1834708875,62.0,65.0
111,46.588712783333335,47.453632195833336,57.0,47.0
112,46.104841783333335,47.5342773625,54.0,68.0
113,47.072583783333336,47.63911607916667,50.0,37.0
114,44.65322878333333,47.94153545416667,38.0,75.0
115,45.13709978333333,48.02218062083334,45.0,56.0
116,47.79839028333333,48.14314837083334,50.0,64.0
117,47.556454783333336,48.516132266666666,57.0,73.0
118,48.04032578333334,48.5322613,54.0,71.0
119,47.556454783333336,48.5504064625,62.0,65.0
120,48.52419678333334,50.3044388375,43.0,82.0
121,49.00806778333334,50.56048724166667,50.0,59.0
122,49.49193878333334,51.0423421125,55.0,47.0
123,49.49193878333334,51.32258406666667,62.0,64.0
124,49.97580978333333,51.683471187500004,59.0,51.0
125,51.427422783333334,51.889116362500005,55.0,50.0
126,50.45968078333333,51.907261525,43.0,66.0
127,50.943551783333334,51.907261525,50.0,50.0
128,51.427422783333334,52.91935836666667,67.0,78.0
129,51.911293783333335,53.10080999166667,59.0,53.0
130,52.879035783333336,53.891132625000004,50.0,66.0
131,53.36290678333334,53.92742295,54.0,51.0
132,52.395164783333335,53.9576648875,42.0,82.0
133,53.84677778333334,54.39516491666667,59.0,58.0
134,53.36290678333334,54.500003633333336,62.0,69.0
135,53.36290678333334,54.55242299166667,66.0,76.0
136,54.81451978333334,55.45968111666667,54.0,59.0
137,55.540326283333336,55.73185855416667,54.0,64.0
138,54.33064878333334,55.76210049166667,47.0,70.0
139,55.29839078333334,56.24193923333333,66.0,99.0
140,55.78226178333333,56.35685859583334,62.0,81.0
141,56.024197283333336,57.29435865833334,59.0,68.0
142,56.26613278333333,57.645165133333336,40.0,95.0
143,56.750003783333334,57.6592780375,47.0,56.0
144,57.233874783333334,57.9375038625,52.0,47.0
145,57.233874783333334,58.31048775833334,64.0,72.0
146,57.233874783333334,58.3366974375,67.0,77.0
147,57.717745783333335,58.41129421666667,59.0,72.0
148,58.201616783333336,59.76210075833334,45.0,82.0
149,58.685487783333336,59.80847172916667,52.0,53.0
150,59.16935878333334,60.03427819583334,61.0,96.0
151,59.65322978333334,60.03831045416667,57.0,89.0
152,59.16935878333334,60.05645561666667,64.0,85.0
153,60.13710078333334,60.64314920416667,61.0,67.0
154,60.13710078333334,60.659278237500004,57.0,76.0
155,60.13710078333334,60.665326625000006,64.0,73.0
156,61.10484278333334,61.929439612500005,57.0,78.0
157,61.58871378333334,62.562504170833336,55.0,65.0
158,62.07258478333333,62.673391275,67.0,59.0
159,60.62097178333334,62.864923545833335,52.0,57.0
160,62.07258478333333,62.939520325000004,57.0,62.0
161,62.07258478333333,62.97782677916667,61.0,69.0
162,62.07258478333333,62.99798807083334,64.0,70.0
163,60.13710078333334,63.040326783333335,45.0,74.0
164,63.040326783333335,63.9496010375,64.0,48.0
165,63.040326783333335,63.95161716666667,46.0,64.0
166,63.040326783333335,63.959681683333336,58.0,92.0
167,63.040326783333335,63.9737945875,61.0,67.0
168,64.49193978333334,65.04637530416667,50.0,66.0
169,64.00806878333334,65.721778575,43.0,79.0
170,65.21774628333334,65.84879471250001,50.0,64.0
171,65.70161728333333,66.11693989166668,55.0,66.0
172,64.97581078333333,66.27621409583334,62.0,97.0
173,65.45968178333334,66.34879474583333,59.0,74.0
174,66.18548828333334,66.9496012375,50.0,85.0
175,66.66935928333334,66.95968188333333,59.0,72.0
176,66.42742378333334,66.99193995,55.0,72.0
177,67.15323028333334,67.28226255,50.0,61.0
178,65.94355278333333,67.32258513333333,43.0,68.0
179,67.39516578333334,67.85484323333334,55.0,75.0
180,66.91129478333333,67.88911742916667,62.0,99.0
181,67.63710128333334,67.91532710833334,59.0,66.0
182,68.36290778333334,68.91935943333334,54.0,59.0
183,68.60484328333334,69.05040782916667,59.0,67.0
184,68.12097228333333,69.35282720416667,50.0,56.0
185,69.08871428333333,69.36089172083334,54.0,78.0
186,67.87903678333333,69.45564979166667,42.0,68.0
187,69.33064978333334,69.77218207083334,62.0,79.0
188,68.84677878333333,69.786294975,66.0,100.0
189,69.57258528333334,69.81452078333334,59.0,79.0
190,70.54032728333334,70.826617625,62.0,59.0
191,70.05645628333333,70.89516601666666,54.0,92.0
192,70.29839178333334,70.92540795416667,59.0,69.0
193,71.02419828333333,71.213714425,54.0,72.0
194,69.81452078333334,71.2802466875,47.0,75.0
195,70.78226278333334,71.64516606666668,66.0,107.0
196,71.26613378333333,71.67944026250001,62.0,90.0
197,71.50806928333334,71.88105317916667,59.0,85.0
198,72.23387578333333,72.74597259166667,52.0,81.0
199,72.47581128333334,72.98387583333334,59.0,92.0
200,71.75000478333334,72.98992422083333,40.0,77.0
201,71.99194028333334,73.06653712916668,47.0,59.0
202,72.95968228333334,73.21371455833334,52.0,89.0
203,73.20161778333333,73.5423436125,64.0,96.0
204,72.71774678333334,73.5967791,67.0,107.0
205,73.44355328333333,73.73992427083334,59.0,92.0
206,73.92742428333334,74.237908175,57.0,81.0
207,74.41129528333333,74.58871465,57.0,90.0
208,73.68548878333334,74.62097271666667,42.0,93.0
209,74.16935978333333,74.68347272083334,66.0,117.0
210,74.65323078333334,75.21371469166667,46.0,88.0
211,74.89516628333334,75.26815017916667,58.0,86.0
212,75.37903728333333,75.60484375,58.0,77.0
213,75.13710178333334,75.65121472083334,66.0,100.0
214,76.34677928333333,76.64315027083333,62.0,59.0
215,75.86290828333334,76.70363414583333,54.0,67.0
216,76.10484378333334,76.74395672916667,59.0,64.0
217,75.62097278333334,77.39113419166667,47.0,73.0
218,76.83065028333334,77.55645678333333,54.0,75.0
219,77.31452128333333,77.55645678333333,59.0,79.0
220,77.07258578333334,77.55645678333333,62.0,82.0
221,76.58871478333333,77.55645678333333,66.0,107.0
222,77.55645678333333,78.07258585000001,47.0,72.0
223,77.55645678333333,78.07460197916667,62.0,73.0
224,77.55645678333333,78.0907310125,59.0,72.0
225,77.55645678333333,78.11492456250001,66.0,69.0
226,78.52419878333333,79.04436010833334,45.0,69.0
227,78.52419878333333,79.67339240833334,57.0,96.0
228,79.97581178333334,80.286295675,59.0,69.0
229,80.21774728333334,80.35686019583333,62.0,76.0
230,79.73387628333333,80.55847311250001,56.0,73.0
231,80.70161828333333,80.90726345833333,56.0,63.0
232,80.45968278333334,80.9455699125,62.0,107.0
233,79.49194078333333,80.98387636666666,44.0,88.0
234,80.94355378333334,81.39113445833334,59.0,81.0
235,81.18548928333334,81.5806506,62.0,83.0
236,82.15323128333334,82.439521625,59.0,67.0
237,81.66936028333333,82.46573130416667,50.0,72.0
238,81.91129578333334,82.52218292083333,55.0,69.0
239,81.42742478333334,82.77016680833334,43.0,68.0
240,82.63710228333333,82.8084732625,50.0,71.0
241,83.12097328333334,83.407263625,55.0,54.0
242,82.87903778333333,83.4133120125,59.0,64.0
243,82.39516678333334,83.45766685416667,62.0,92.0
244,83.84677978333333,84.43347337083334,54.0,78.0
245,84.08871528333334,84.59476370416667,57.0,64.0
246,83.60484428333334,84.72379597083334,49.0,66.0
247,83.36290878333334,84.72782822916668,42.0,71.0
248,84.57258628333334,84.85887662500001,54.0,76.0
249,84.81452178333333,85.25000568333334,61.0,93.0
250,84.33065078333334,85.2883121375,66.0,100.0
251,85.05645728333334,85.31653794583333,57.0,78.0
252,86.02419928333333,86.28629607500001,62.0,72.0
253,85.78226378333333,86.3709735,59.0,66.0
254,85.54032828333334,86.42137672916667,54.0,69.0
255,86.50807028333334,86.65927997083334,54.0,70.0
256,85.29839278333334,86.71371545833334,47.0,75.0
257,86.26613478333334,87.14919935833333,66.0,107.0
258,86.99194128333333,87.22782839583334,59.0,88.0
259,86.75000578333334,87.23387678333334,62.0,89.0
260,87.71774778333334,88.27419943333334,52.0,76.0
261,87.95968328333333,88.4939575125,55.0,79.0
262,87.23387678333334,89.02016722500001,40.0,90.0
263,87.47581228333334,89.22581240000001,47.0,60.0
264,88.44355428333334,89.22782852916667,52.0,78.0
265,88.92742528333333,89.73387695000001,55.0,88.0
266,88.68548978333334,89.818554375,59.0,76.0
267,88.20161878333333,89.91129631666666,64.0,96.0
268,89.65323178333334,90.21976407916667,52.0,81.0
269,89.89516728333334,90.41532860833334,55.0,72.0
270,89.16936078333333,90.54436087500001,40.0,74.0
271,89.41129628333334,90.57661894166667,47.0,60.0
272,90.37903828333334,90.7560544375,52.0,79.0
273,90.62097378333334,91.04032865,59.0,85.0
274,90.86290928333334,91.05847381250001,55.0,83.0
275,90.13710278333333,91.16532865833334,64.0,96.0
276,91.58871578333334,91.94960290416667,57.0,88.0
277,91.83065128333334,92.02419968333334,61.0,107.0
278,91.34678028333333,92.16936098333333,52.0,52.0
279,91.10484478333333,92.88911909583334,45.0,77.0
280,92.55645778333334,93.03024813750001,61.0,95.0
281,92.79839328333334,93.0423449125,59.0,77.0
282,92.31452228333333,93.05040942916668,52.0,77.0
283,92.07258678333334,93.13508685416667,64.0,100.0
284,93.04032878333334,94.00807078333334,45.0,88.0
285,93.52419978333334,94.00807078333334,52.0,57.0
286,94.00807078333334,94.85081277500001,44.0,100.0
287,94.00807078333334,94.90524826250001,56.0,93.0
288,94.00807078333334,94.90524826250001,59.0,75.0
289,94.00807078333334,94.92742568333334,62.0,55.0
290,95.45968378333333,96.060490275,55.0,79.0
291,95.70161928333334,96.4899257875,59.0,75.0
292,94.97581278333334,96.78226451666667,43.0,79.0
293,95.21774828333334,96.96976452916667,50.0,79.0
294,96.18549028333334,96.98387743333333,55.0,83.0
295,95.94355478333334,97.38105487916667,67.0,97.0
296,96.66936128333334,97.52218392083334,59.0,76.0
297,97.39516778333333,97.97581298333334,55.0,82.0
298,97.63710328333333,98.09678073333333,59.0,79.0
299,96.42742578333333,98.11492589583334,62.0,83.0
300,98.12097428333334,98.286296875,55.0,86.0
301,97.15323228333334,98.32661945833334,50.0,51.0
302,96.91129678333334,98.33670010416667,43.0,62.0
303,98.60484528333333,98.9516195,59.0,78.0
304,97.87903878333334,98.98589369583334,66.0,96.0
305,98.36290978333334,98.98992595416667,62.0,78.0
306,99.08871628333334,99.39113565833334,59.0,75.0
307,99.33065178333334,99.69355503333334,62.0,69.0
308,99.57258728333333,99.92540988750001,59.0,65.0
309,98.84678078333334,100.17540990416667,42.0,88.0
310,100.05645828333334,100.3548454,59.0,57.0
311,100.29839378333334,100.73992607083333,62.0,66.0
312,99.81452278333335,100.7600873625,66.0,112.0
313,100.54032928333334,100.77621639583334,59.0,76.0
314,101.26613578333334,101.6189583875,59.0,62.0
315,101.50807128333334,101.8246035625,62.0,82.0
316,101.02420028333334,101.915329375,54.0,82.0
317,101.99194228333334,102.16734552083334,54.0,67.0
318,100.78226478333333,102.30444230416667,47.0,81.0
319,101.75000678333333,102.64516813333334,66.0,72.0
320,102.23387778333334,102.6774262,62.0,75.0
321,102.47581328333334,102.75807136666667,59.0,69.0
322,103.20161978333334,103.7479907875,52.0,71.0
323,103.44355528333334,103.83670047083334,55.0,75.0
324,102.71774878333333,104.0625069375,40.0,72.0
325,102.95968428333333,104.08468435833333,47.0,52.0
326,103.92742628333333,104.17742630000001,52.0,88.0
327,104.16936178333334,104.52420051666667,59.0,77.0
328,103.68549078333334,104.5645231,64.0,97.0
329,104.41129728333334,104.67742633333334,55.0,89.0
330,104.89516828333333,105.3871038,54.0,78.0
331,104.65323278333334,105.49194251666667,42.0,79.0
332,105.13710378333334,105.5322651,57.0,70.0
333,105.37903928333334,105.7802489875,66.0,107.0
334,105.62097478333334,106.15726514166667,46.0,77.0
335,105.86291028333333,106.25807160000001,58.0,76.0
336,106.34678128333334,106.56049097500001,61.0,63.0
337,106.10484578333333,106.62097485000001,66.0,96.0
338,107.31452328333334,107.62500717500001,62.0,76.0
339,106.83065228333334,107.68145879166667,54.0,93.0
340,107.07258778333333,107.7580717,59.0,73.0
341,108.04032978333333,108.3689588375,62.0,99.0
342,107.55645878333334,108.38307174166667,66.0,117.0
343,106.58871678333334,108.43145884166667,47.0,72.0
344,108.28226528333334,108.48992658750001,59.0,69.0
345,107.79839428333334,108.55041046250001,54.0,74.0
346,108.52420078333334,108.95565242500001,59.0,82.0
347,108.52420078333334,108.99799113750001,62.0,89.0
348,108.52420078333334,109.03831372083334,66.0,89.0
349,108.52420078333334,109.04436210833335,47.0,81.0
350,109.49194278333334,110.0987976625,45.0,95.0
351,109.49194278333334,110.48992672083334,57.0,96.0
352,109.49194278333334,110.5584751125,64.0,88.0
353,110.94355578333334,111.1935558,59.0,64.0
354,111.18549128333333,111.33871710000001,64.0,70.0
355,110.70162028333334,111.54436227500001,56.0,82.0
356,111.66936228333334,111.90323326666667,56.0,76.0
357,110.45968478333334,112.00807198333334,44.0,99.0
358,111.91129778333334,112.43549136666667,59.0,78.0
359,111.42742678333335,112.43549136666667,64.0,89.0
360,113.12097528333334,113.33266884583334,59.0,57.0
361,112.63710428333334,113.44557207916667,50.0,65.0
362,113.60484628333334,113.73791080833334,50.0,58.0
363,112.87903978333334,113.76815274583333,55.0,56.0
364,112.39516878333333,113.78428177916668,43.0,73.0
365,113.36291078333333,114.30041084583334,62.0,99.0
366,114.08871728333334,114.32057213750001,55.0,52.0
367,113.84678178333334,114.32057213750001,59.0,90.0
368,114.81452378333334,115.366943175,54.0,74.0
369,114.57258828333335,115.58468512500001,49.0,64.0
370,114.33065278333333,115.66533029166668,42.0,86.0
371,115.05645928333334,115.8084754625,57.0,76.0
372,115.54033028333333,115.81049159166668,54.0,85.0
373,115.78226578333334,116.20162065000001,61.0,93.0
374,115.29839478333334,116.27218517083334,66.0,102.0
375,116.02420128333334,116.29436259166667,57.0,83.0
376,116.99194328333334,117.18347555416668,62.0,88.0
377,116.50807228333333,117.37702395416667,54.0,96.0
378,116.75000778333334,117.42137879583333,59.0,69.0
379,117.47581428333334,117.72379817083333,54.0,75.0
380,116.26613678333334,117.83468527500001,47.0,75.0
381,117.23387878333334,118.16533045833334,66.0,122.0
382,117.71774978333333,118.18952400833334,62.0,100.0
383,117.95968528333334,118.22783046250001,59.0,88.0
384,118.68549178333333,119.21573375416668,52.0,79.0
385,118.92742728333334,119.29033053333333,55.0,52.0
386,118.20162078333334,119.54234667916667,40.0,89.0
387,118.44355628333334,119.59073377916667,47.0,67.0
388,119.41129828333334,119.842749925,52.0,79.0
389,119.65323378333333,120.05242735833333,59.0,71.0
390,119.89516928333335,120.06654026250001,55.0,77.0
391,119.16936278333334,120.12299187916668,64.0,95.0
392,120.62097578333334,120.98791129166668,57.0,81.0
393,120.86291128333333,121.09879839583334,61.0,89.0
394,120.37904028333334,121.34476615416668,52.0,69.0
395,120.13710478333334,121.43145970833334,45.0,86.0
396,121.58871778333334,122.0625081375,61.0,83.0
397,121.10484678333334,122.15121782083334,64.0,96.0
398,122.55645978333334,123.06250820416668,50.0,69.0
399,122.07258878333334,123.86089535416667,38.0,72.0
400,122.31452428333334,124.01009216875,45.0,62.0
401,124.00807278333333,125.35702224166667,38.0,52.0
402,123.28226628333334,125.51049553333333,50.0,69.0
403,123.52420178333334,125.76897686666666,64.0,62.0
404,124.00807278333333,125.77907379375,62.0,65.0
405,123.04033078333335,125.81946150208333,66.0,88.0
406,122.79839528333333,125.87600429375,57.0,71.0
407,126.18900903333333,126.9119490125,52.0,24.0
408,126.43133528333334,127.05532537708334,57.0,69.0
409,127.15831403333333,127.37842704375,52.0,55.0
410,125.94668278333333,127.40467905416666,45.0,89.0
411,126.91598778333334,127.4814157,64.0,77.0
412,127.40064028333333,127.88731216875,57.0,66.0
413,127.64296653333334,128.04482423125,64.0,55.0
414,128.12761903333333,128.49716656458332,56.0,69.0
415,128.36994528333332,128.81017130416666,64.0,66.0
416,128.61227153333334,128.96768336666668,56.0,64.0
417,128.85459778333333,129.23424224166666,64.0,75.0
418,129.09692403333332,129.32713397083333,56.0,63.0
419,127.88529278333333,129.45435525208333,44.0,67.0
420,129.33925028333334,129.51291742916666,64.0,90.0
421,129.58157653333333,129.82996093958334,64.0,82.0
422,130.06622903333334,130.43173779375,50.0,34.0
423,130.30855528333333,130.70637421041667,62.0,78.0
424,130.55088153333332,130.90023521041667,50.0,61.0
425,130.79320778333334,131.14861961666668,62.0,81.0
426,129.82390278333332,131.285937825,43.0,67.0
427,131.03553403333333,131.42325603333333,50.0,59.0
428,131.27786028333333,131.65952412708333,62.0,85.0
429,131.52018653333334,131.71606691875,55.0,72.0
430,132.00483903333333,132.35823148125,58.0,71.0
431,132.24716528333335,132.58036387708333,61.0,79.0
432,132.48949153333334,132.73181778333333,58.0,63.0
433,131.76251278333334,132.90548492916668,46.0,71.0
434,132.73181778333333,133.27907123125,64.0,92.0
435,132.97414403333335,133.46283530416667,46.0,70.0
436,133.21647028333334,133.66881261666666,58.0,78.0
437,133.45879653333333,133.83642160624998,64.0,70.0
438,133.94344903333334,134.32511287708334,52.0,38.0
439,134.42810153333335,134.77139705416667,52.0,56.0
440,134.18577528333333,134.88246325208334,57.0,71.0
441,134.91275403333333,135.114692575,52.0,79.0
442,133.70112278333335,135.14296397083334,45.0,75.0
443,134.67042778333334,135.2358557,64.0,93.0
444,135.15508028333335,135.49231764791668,57.0,88.0
445,135.39740653333334,136.17688930416668,64.0,82.0
446,135.88205903333332,136.21929639791668,56.0,71.0
447,136.12438528333334,136.62115409583333,59.0,58.0
448,136.36671153333333,136.69991012708334,56.0,69.0
449,136.85136403333334,137.150233075,56.0,78.0
450,136.60903778333332,137.18254324166668,64.0,81.0
451,135.63973278333333,137.31986145,44.0,93.0
452,137.33601653333332,137.47939289791665,64.0,81.0
453,137.09369028333333,137.50968367916667,59.0,73.0
454,137.57834278333334,137.92971584583333,59.0,50.0
455,137.57834278333334,137.93375461666668,62.0,51.0
456,137.57834278333334,137.9377933875,55.0,58.0
457,138.06299528333332,138.44263974166665,62.0,59.0
458,138.06299528333332,138.44869789791667,59.0,59.0
459,137.57834278333334,138.45071728333335,43.0,67.0
460,138.06299528333332,138.45273666875,55.0,54.0
461,138.06299528333332,138.47494990833334,50.0,53.0
462,138.54764778333333,138.67688845,62.0,56.0
463,138.54764778333333,138.81420665833332,55.0,63.0
464,138.54764778333333,138.91113715833333,59.0,62.0
465,139.03230028333334,139.75322087708332,57.0,63.0
466,139.03230028333334,139.76533718958333,64.0,66.0
467,139.03230028333334,139.77139534583333,61.0,55.0
468,139.03230028333334,139.85015137708334,45.0,63.0
469,140.48625778333334,141.29805072083334,44.0,57.0
470,140.48625778333334,141.37276798125,56.0,92.0
471,140.48625778333334,141.38286490833332,59.0,69.0
472,140.48625778333334,141.39498122083333,62.0,63.0
473,142.40467392916668,142.77624084583334,55.0,46.0
474,142.42486778333333,142.77624084583334,55.0,51.0
475,141.93819589791667,142.88932642916666,50.0,59.0
476,141.94021528333334,142.88932642916666,50.0,53.0
477,141.45556278333333,142.94586922083334,43.0,75.0
478,141.45758216875,142.94586922083334,43.0,85.0
479,142.40265454375,143.31339736666666,62.0,85.0
480,142.42486778333333,143.31339736666666,62.0,73.0
481,142.9054815125,143.3416687625,59.0,69.0
482,142.90952028333334,143.3416687625,59.0,69.0
483,143.39417278333332,144.83601397083333,43.0,63.0
484,143.87882528333333,144.9652546375,50.0,56.0
485,144.36347778333334,145.57712841875,67.0,78.0
486,144.84813028333332,146.940213575,59.0,69.0
487,145.33278278333333,147.04320223125,42.0,71.0
488,145.81743528333334,147.1583072,54.0,62.0
489,146.78674028333333,147.74796774166666,62.0,56.0
490,146.30208778333332,147.75402589791668,66.0,81.0
491,147.75604528333332,148.41032615833333,54.0,58.0
492,147.27139278333334,148.52946989791667,47.0,74.0
493,148.24069778333333,149.22211909583334,66.0,79.0
494,148.72535028333334,149.22413848125,62.0,63.0
495,149.21000278333332,150.60135933541667,40.0,81.0
496,149.69465528333333,150.61549503333333,47.0,64.0
497,150.17930778333334,150.81339480416668,52.0,37.0
498,150.66396028333332,151.25160143958334,55.0,55.0
499,150.17930778333334,151.689808075,64.0,71.0
500,151.63326528333334,152.43900006458333,52.0,49.0
501,151.14861278333333,152.50362039791668,45.0,73.0
502,152.11791778333333,153.21444406458335,64.0,90.0
503,152.60257028333334,153.22252160625,61.0,44.0
504,154.05652778333334,155.24190702291668,50.0,72.0
505,155.02583278333333,155.62155148125,62.0,65.0
506,155.02583278333333,155.89214912708334,57.0,47.0
507,154.54118028333335,155.97292454375,54.0,68.0
508,155.51048528333334,156.07793258541668,50.0,37.0
509,153.08722278333335,156.38084039791667,38.0,75.0
510,153.57187528333333,156.46161581458333,45.0,56.0
511,156.23746403333334,156.58277893958333,50.0,64.0
512,155.99513778333335,156.95636524166667,57.0,73.0
513,156.47979028333333,156.972520325,54.0,71.0
514,155.99513778333335,156.99069479375,62.0,65.0
515,156.96444278333334,158.74756010625,43.0,82.0
516,157.44909528333335,159.00402205416668,50.0,59.0
517,157.93374778333333,159.48665516875,55.0,47.0
518,157.93374778333333,159.76734974166666,62.0,64.0
519,158.41840028333334,160.12881973125,59.0,51.0
520,159.87235778333334,160.33479704375,55.0,50.0
521,158.90305278333335,160.3529715125,43.0,66.0
522,159.38770528333333,160.3529715125,50.0,50.0
523,159.87235778333334,161.36670299166667,67.0,78.0
524,160.35701028333332,161.54844767916666,59.0,53.0
525,161.32631528333334,162.3400467625,50.0,66.0
526,161.81096778333333,162.3763957,54.0,51.0
527,160.84166278333333,162.40668648125,42.0,82.0
528,162.29562028333334,162.84489311666667,59.0,58.0
529,161.81096778333333,162.94990115833332,62.0,69.0
530,161.81096778333333,163.00240517916666,66.0,76.0
531,163.26492528333333,163.91112861666667,54.0,59.0
532,163.99190403333333,164.18374564791668,54.0,64.0
533,162.78027278333332,164.21403642916667,47.0,70.0
534,163.74957778333334,164.69465015833333,66.0,99.0
535,164.23423028333332,164.80975512708335,62.0,81.0
536,164.47655653333334,165.74876934583332,59.0,68.0
537,164.71888278333333,166.10014240833334,40.0,95.0
538,165.20353528333334,166.11427810625,47.0,56.0
539,165.68818778333332,166.39295329375,52.0,47.0
540,165.68818778333332,166.76653959583334,64.0,72.0
541,165.68818778333332,166.79279160625,67.0,77.0
542,166.17284028333333,166.86750886666667,59.0,72.0
543,166.65749278333334,168.22049709583334,45.0,82.0
544,167.14214528333332,168.26694296041666,52.0,53.0
545,167.62679778333333,168.49311412708335,61.0,96.0
546,168.11145028333334,168.49715289791666,57.0,89.0
547,167.62679778333333,168.51532736666667,64.0,85.0
548,168.59610278333332,169.10296852291668,61.0,67.0
549,168.59610278333332,169.11912360625,57.0,76.0
550,168.59610278333332,169.1251817625,64.0,73.0
551,169.56540778333334,170.39133641875,57.0,78.0
552,170.05006028333332,171.02542343958334,55.0,65.0
553,170.53471278333333,171.1364896375,67.0,59.0
554,169.08075528333333,171.32833125208333,52.0,57.0
555,170.53471278333333,171.4030485125,57.0,62.0
556,170.53471278333333,171.44141683541667,61.0,69.0
557,170.53471278333333,171.46161068958332,64.0,70.0
558,168.59610278333332,171.50401778333332,45.0,74.0
559,171.50401778333332,172.41476060625,64.0,48.0
560,171.50401778333332,172.41677999166666,46.0,64.0
561,171.50401778333332,172.42485753333332,58.0,92.0
562,171.50401778333332,172.43899323125,61.0,67.0
563,172.95797528333333,173.51330627291668,50.0,66.0
564,172.47332278333334,174.1898003875,43.0,79.0
565,173.68495403333333,174.31702166875,50.0,64.0
566,174.16960653333334,174.58559992916668,55.0,66.0
567,173.44262778333334,174.74513137708334,62.0,97.0
568,173.92728028333335,174.81782925208333,59.0,74.0
569,174.65425903333335,175.41960610625,50.0,85.0
570,175.13891153333333,175.42970303333334,59.0,72.0
571,174.89658528333334,175.4620132,55.0,72.0
572,175.62356403333334,175.7528047,50.0,61.0
573,174.41193278333333,175.79319240833334,43.0,68.0
574,175.86589028333333,176.32631015833334,55.0,75.0
575,175.38123778333335,176.36063971041668,62.0,99.0
576,176.10821653333335,176.38689172083332,59.0,66.0
577,176.83519528333335,177.39254565833335,54.0,59.0
578,177.07752153333334,177.52380571041667,59.0,67.0
579,176.59286903333333,177.82671352291666,50.0,56.0
580,177.56217403333335,177.83479106458333,54.0,78.0
581,176.35054278333334,177.92970217916667,42.0,68.0
582,177.80450028333334,178.24674568958335,62.0,79.0
583,177.31984778333333,178.2608813875,66.0,100.0
584,178.04682653333333,178.28915278333335,59.0,79.0
585,179.01613153333335,179.30288426250002,62.0,59.0
586,178.53147903333334,179.37154336666666,54.0,92.0
587,178.77380528333333,179.40183414791667,59.0,69.0
588,179.50078403333333,179.6906062625,54.0,72.0
589,178.28915278333335,179.75724598125,47.0,75.0
590,179.25845778333334,180.12275474166665,66.0,107.0
591,179.74311028333335,180.15708429375002,62.0,90.0
592,179.98543653333334,180.35902283541668,59.0,85.0
593,180.71241528333334,181.22533917916667,52.0,81.0
594,180.95474153333333,181.46362665833334,59.0,92.0
595,180.22776278333333,181.46968481458333,40.0,77.0
596,180.47008903333335,181.54642146041667,47.0,59.0
597,181.43939403333334,181.69383659583332,52.0,89.0
598,181.68172028333333,182.02299641875,64.0,96.0
599,181.19706778333332,182.077519825,67.0,107.0
600,181.92404653333332,182.22089618958333,59.0,92.0
601,182.40869903333333,182.7196843875,57.0,81.0
602,182.89335153333334,183.07105745,57.0,90.0
603,182.16637278333334,183.10336761666667,42.0,93.0
604,182.65102528333333,183.16596856458335,66.0,117.0
605,183.13567778333334,183.69706692916668,46.0,88.0
606,183.37800403333333,183.75159033541667,58.0,86.0
607,183.86265653333334,184.0888277,58.0,77.0
608,183.62033028333332,184.13527356458334,66.0,100.0
609,184.83196153333333,185.12881118958333,62.0,59.0
610,184.34730903333332,185.18939275208334,54.0,67.0
611,184.58963528333334,185.22978046041666,59.0,64.0
612,184.10498278333333,185.87800317916668,47.0,73.0
613,185.31661403333334,186.04359278333334,54.0,75.0
614,185.80126653333332,186.04359278333334,59.0,79.0
615,185.55894028333333,186.04359278333334,62.0,82.0
616,185.07428778333332,186.04359278333334,66.0,107.0
617,186.04359278333334,186.55972185000002,47.0,72.0
618,186.04359278333334,186.56173797916668,62.0,73.0
619,186.04359278333334,186.5778670125,59.0,72.0
620,186.04359278333334,186.60206056250001,66.0,69.0
621,187.01133478333333,187.53149610833333,45.0,69.0
622,187.01133478333333,188.16052840833333,57.0,96.0
623,188.46294778333333,188.773431675,59.0,69.0
624,188.70488328333334,188.84399619583334,62.0,76.0
625,188.22101228333335,189.04560911250002,56.0,73.0
626,189.18875428333334,189.39439945833334,56.0,63.0
627,188.94681878333333,189.4327059125,62.0,107.0
628,187.97907678333334,189.47101236666668,44.0,88.0
629,189.43068978333335,189.87827045833333,59.0,81.0
630,189.67262528333333,190.0677866,62.0,83.0
631,190.64036728333335,190.92665762500002,59.0,67.0
632,190.15649628333333,190.95286730416666,50.0,72.0
633,190.39843178333334,191.00931892083335,55.0,69.0
634,189.91456078333334,191.25730280833335,43.0,68.0
635,191.12423828333334,191.2956092625,50.0,71.0
636,191.60810928333333,191.894399625,55.0,54.0
637,191.36617378333335,191.9004480125,59.0,64.0
638,190.88230278333333,191.94480285416668,62.0,92.0
639,192.33391578333334,192.92060937083335,54.0,78.0
640,192.57585128333335,193.08189970416666,57.0,64.0
641,192.09198028333333,193.21093197083334,49.0,66.0
642,191.85004478333335,193.21496422916667,42.0,71.0
643,193.05972228333334,193.34601262500001,54.0,76.0
644,193.30165778333333,193.73714168333333,61.0,93.0
645,192.81778678333333,193.7754481375,66.0,100.0
646,193.54359328333334,193.80367394583334,57.0,78.0
647,194.51133528333332,194.77343207500002,62.0,72.0
648,194.26939978333334,194.8581095,59.0,66.0
649,194.02746428333333,194.90851272916666,54.0,69.0
650,194.99520628333335,195.14641597083335,54.0,70.0
651,193.78552878333335,195.20085145833335,47.0,75.0
652,194.75327078333333,195.63633535833333,66.0,107.0
653,195.47907728333334,195.71496439583333,59.0,88.0
654,195.23714178333333,195.72101278333335,62.0,89.0
655,196.20488378333334,196.77343220833333,52.0,73.0
656,195.72101278333335,197.06778706666668,40.0,97.0
657,195.96294828333333,197.08593222916667,47.0,47.0
658,196.44681928333333,197.12222255416668,55.0,67.0
659,196.93069028333335,197.15851287916666,52.0,62.0
660,197.17262578333333,197.60609355416668,59.0,74.0
661,196.68875478333334,197.6464161375,64.0,92.0
662,198.38230328333333,198.63431942916668,61.0,72.0
663,197.89843228333334,199.04359365,52.0,76.0
664,198.14036778333335,199.12423881666666,57.0,51.0
665,197.65649678333335,199.15044849583333,45.0,85.0
666,199.10810978333333,199.52948077916668,61.0,90.0
667,199.35004528333334,199.54964207083333,57.0,54.0
668,198.62423878333334,199.55569045833334,64.0,97.0
669,200.07585178333335,200.60004536666668,50.0,85.0
670,200.31778728333333,200.81778731666668,57.0,61.0
671,199.83391628333334,201.41657767916666,45.0,58.0
672,200.80165828333332,201.47907768333334,50.0,86.0
673,201.04359378333334,201.4931905875,57.0,85.0
674,201.28552928333335,201.5052873625,62.0,95.0
675,199.59198078333333,201.52544865416667,38.0,79.0
676,200.55972278333334,201.5415776875,66.0,102.0
677,201.52746478333333,202.22907773333333,38.0,67.0
678,201.76940028333334,202.30569064166667,45.0,100.0
679,202.25327128333333,202.3520616125,57.0,95.0
680,202.01133578333335,202.4064971,50.0,79.0
681,202.49520678333334,202.51133581666667,58.0,92.0
682,202.49520678333334,203.0899648875,42.0,96.0
683,202.49520678333334,203.39641652083333,54.0,112.0
684,202.49520678333334,203.43270684583334,61.0,93.0
685,202.73714228333333,203.45085200833333,58.0,24.0
686,203.70488428333334,204.1060939875,54.0,93.0
687,204.18875528333334,204.499239175,54.0,93.0
688,203.94681978333335,204.68472305833333,59.0,82.0
689,203.46294878333333,205.27141664583334,47.0,92.0
690,204.67262628333333,205.3399650375,54.0,82.0
691,205.15649728333335,205.67061022083334,59.0,72.0
692,204.91456178333334,205.83190055416668,62.0,77.0
693,204.43069078333335,206.0052876625,66.0,112.0
694,205.64036828333334,206.02544895416668,54.0,85.0
695,206.12423928333334,206.47302962916666,54.0,81.0
696,205.88230378333333,206.66254577083333,59.0,68.0
697,205.39843278333333,206.88633610833335,47.0,69.0
698,206.60811028333333,206.88835223750002,54.0,95.0
699,206.36617478333335,206.94278772500002,66.0,122.0
700,206.85004578333334,207.3722232375,59.0,93.0
701,207.33391678333334,207.45085227500002,46.0,99.0
702,207.09198128333333,207.47302969583333,66.0,99.0
703,207.57585228333335,208.05367489583335,46.0,85.0
704,208.05972328333334,208.41657814583334,46.0,70.0
705,207.81778778333333,208.53149750833333,58.0,74.0
706,208.30165878333332,208.878271725,66.0,92.0
707,208.54359428333333,209.1383523875,46.0,69.0
708,208.78552978333335,209.21294916666668,58.0,89.0
709,209.02746528333333,209.54561047916667,66.0,93.0
710,209.51133628333335,209.91456211666667,58.0,65.0
711,209.26940078333334,209.92867502083334,46.0,100.0
712,209.75327178333333,210.09802987083333,66.0,99.0
713,209.99520728333334,210.39440085833334,46.0,67.0
714,210.23714278333335,210.80569120833334,66.0,102.0
715,210.47907828333334,210.85811056666668,46.0,76.0
716,210.96294928333333,211.17867510416667,66.0,90.0
717,210.72101378333335,211.23714285,58.0,93.0
718,211.44682028333335,211.79762675833334,52.0,76.0
719,211.93069128333335,212.1988364625,52.0,73.0
720,211.68875578333333,212.39843325,57.0,96.0
721,211.20488478333334,213.02343329166666,45.0,86.0
722,212.41456228333334,213.08996555416667,52.0,88.0
723,212.89843328333333,213.47101396666667,57.0,74.0
724,212.65649778333335,213.5415784875,61.0,93.0
725,212.17262678333333,213.77948172916666,64.0,99.0
726,213.38230428333333,213.78754624583334,52.0,83.0
727,213.86617528333335,214.14843336666667,52.0,63.0
728,213.62423978333334,214.34198176666666,57.0,72.0
729,213.14036878333334,214.47907855,45.0,95.0
730,214.35004628333334,214.49319145416666,52.0,82.0
731,214.59198178333332,215.03149794166666,61.0,102.0
732,214.10811078333333,215.0778689125,64.0,93.0
733,214.83391728333334,215.26133666666666,57.0,83.0
734,215.31778828333333,215.64440120833333,56.0,95.0
735,215.55972378333334,216.039562525,59.0,76.0
736,215.80165928333335,216.10407865833335,56.0,93.0
737,216.04359478333333,216.60004643333335,62.0,96.0
738,216.52746578333335,216.79964322083333,59.0,90.0
739,215.07585278333335,216.89843355,44.0,83.0
740,216.28553028333334,216.90246580833335,56.0,83.0
741,216.76940128333334,217.59198198333334,62.0,97.0
742,217.49520778333334,217.94077232916666,59.0,72.0
743,217.73714328333335,218.05972395,56.0,79.0
744,218.22101428333335,218.42061107083333,56.0,86.0
745,217.97907878333334,218.52948204583333,62.0,97.0
746,217.01133678333335,218.531498175,44.0,88.0
747,218.46294978333333,218.7915788375,59.0,99.0
748,218.70488528333334,219.0939982125,62.0,95.0
749,219.18875628333333,219.5355305,50.0,85.0
750,219.67262728333333,219.9649660125,50.0,81.0
751,219.43069178333334,220.00528859583335,55.0,86.0
752,218.94682078333335,220.72303057916668,43.0,88.0
753,220.15649828333335,220.8238370375,50.0,48.0
754,220.64036928333334,220.878272525,55.0,93.0
755,220.39843378333333,220.88432091250002,59.0,92.0
756,219.91456278333334,220.92464349583332,62.0,107.0
757,221.60811128333333,221.66456290000002,62.0,41.0
758,221.60811128333333,221.95690162916668,59.0,99.0
759,221.36617578333335,221.96295001666667,55.0,93.0
760,222.09198228333332,222.22706293750002,55.0,95.0
761,221.12424028333334,222.24319197083332,50.0,85.0
762,220.88230478333332,222.26738552083333,43.0,86.0
763,221.85004678333334,222.81174039583334,67.0,102.0
764,222.33391778333333,222.82182104166668,62.0,99.0
765,222.57585328333334,222.8560952375,59.0,96.0
766,223.30165978333335,223.81778885,54.0,96.0
767,223.54359528333333,224.10811145000002,57.0,83.0
768,223.05972428333334,224.1141598375,49.0,72.0
769,222.81778878333336,224.14036951666668,42.0,90.0
770,224.02746628333335,224.33190178750002,54.0,92.0
771,224.26940178333334,224.6706114875,61.0,122.0
772,223.78553078333334,224.76335342916667,66.0,122.0
773,224.51133728333335,224.7673856875,57.0,96.0
774,225.47907928333333,225.6746438125,62.0,100.0
775,224.99520828333334,225.84601479166668,54.0,97.0
776,225.23714378333335,225.93069221666667,59.0,86.0
777,225.96295028333333,226.10811158333334,54.0,112.0
778,224.75327278333333,226.176659975,47.0,81.0
779,225.72101478333335,226.42867612083333,66.0,127.0
780,226.20488578333334,226.6000471,62.0,122.0
781,226.44682128333335,226.79561162916667,59.0,93.0
782,227.17262778333333,227.72504717500001,52.0,93.0
783,227.41456328333334,228.14843430000002,59.0,69.0
784,226.68875678333333,228.4689988375,40.0,90.0
785,226.93069228333334,228.66657949583333,47.0,64.0
786,227.89843428333333,228.9165795125,52.0,85.0
787,228.38230528333332,229.19278920833335,59.0,92.0
788,227.65649878333335,229.39036986666667,67.0,112.0
789,228.14036978333334,229.41657954583334,64.0,95.0
790,229.10811178333336,229.6786763375,52.0,88.0
791,229.35004728333334,229.87625699583333,59.0,82.0
792,228.62424078333333,230.26940218333334,40.0,79.0
793,230.07585378333334,230.4044828375,64.0,99.0
794,228.86617628333335,230.41657961250002,47.0,61.0
795,229.59198278333335,230.434724775,67.0,117.0
796,229.83391828333333,230.531498975,52.0,93.0
797,230.31778928333335,230.58996672083333,59.0,102.0
798,231.28553128333334,231.50327323333335,57.0,79.0
799,231.04359578333333,231.55972485,52.0,96.0
800,231.52746678333335,231.85811196666668,57.0,63.0
801,231.52746678333335,232.00528939583333,64.0,102.0
802,231.52746678333335,232.03956359166668,61.0,117.0
803,230.80166028333335,232.06375714166666,49.0,100.0
804,232.01133778333335,232.37222490416667,57.0,117.0
805,231.76940228333333,232.3782732916667,52.0,102.0
806,230.55972478333334,232.39440232500002,45.0,112.0
807,232.49520878333334,232.86214429166668,58.0,90.0
808,232.49520878333334,232.86214429166668,62.0,71.0
809,232.97907978333333,233.289563675,53.0,88.0
810,232.97907978333333,233.30569270833334,50.0,61.0
811,232.97907978333333,233.32787012916668,65.0,93.0
812,232.97907978333333,233.32988625833335,58.0,107.0
813,232.97907978333333,233.3319023875,62.0,107.0
814,232.49520878333334,233.362144325,46.0,122.0
815,233.46295078333333,234.31577342083335,45.0,79.0
816,233.46295078333333,234.31577342083335,61.0,95.0
817,233.46295078333333,234.32585406666666,64.0,86.0
818,233.46295078333333,234.33391858333334,57.0,92.0
819,234.91456378333334,235.4689993041667,51.0,66.0
820,234.43069278333334,236.14440257500002,44.0,79.0
821,235.64037028333334,236.2714187125,51.0,64.0
822,236.12424128333333,236.53956389166666,56.0,66.0
823,235.39843478333336,236.69883809583334,63.0,97.0
824,235.88230578333335,236.77141874583333,60.0,74.0
825,236.60811228333336,237.3722252375,51.0,85.0
826,237.09198328333335,237.38230588333334,60.0,72.0
827,236.85004778333334,237.41456395,56.0,72.0
828,237.57585428333334,237.70488655,51.0,61.0
829,236.36617678333334,237.74520913333333,44.0,68.0
830,237.81778978333335,238.27746723333334,56.0,75.0
831,237.33391878333333,238.31174142916666,63.0,99.0
832,238.05972528333334,238.33795110833336,60.0,66.0
833,238.78553178333334,239.34198343333333,55.0,59.0
834,239.02746728333335,239.47303182916667,60.0,67.0
835,238.54359628333333,239.77545120416667,51.0,56.0
836,239.51133828333334,239.78351572083335,55.0,78.0
837,238.30166078333335,239.8782737916667,43.0,68.0
838,239.75327378333333,240.19480607083335,63.0,79.0
839,239.26940278333333,240.20891897500002,67.0,100.0
840,239.99520928333334,240.23714478333335,60.0,79.0
841,240.96295128333333,241.24924162500002,63.0,59.0
842,240.47908028333333,241.31779001666666,55.0,92.0
843,240.72101578333334,241.3480319541667,60.0,69.0
844,241.44682228333335,241.63633842500002,55.0,72.0
845,240.23714478333335,241.70287068750002,48.0,75.0
846,241.20488678333334,242.06779006666667,67.0,107.0
847,241.68875778333336,242.1020642625,63.0,90.0
848,241.93069328333334,242.30367717916667,60.0,85.0
849,242.65649978333335,243.16859659166667,53.0,81.0
850,242.89843528333336,243.40649983333333,60.0,92.0
851,242.17262878333332,243.41254822083334,41.0,77.0
852,242.41456428333333,243.4891611291667,48.0,59.0
853,243.38230628333335,243.63633855833334,53.0,89.0
854,243.62424178333333,243.9649676125,65.0,96.0
855,243.14037078333334,244.0194031,68.0,107.0
856,243.86617728333334,244.16254827083333,60.0,92.0
857,244.35004828333334,244.66053217500001,58.0,81.0
858,244.83391928333333,245.01133865,58.0,90.0
859,244.10811278333335,245.04359671666668,43.0,93.0
860,244.59198378333335,245.10609672083334,67.0,117.0
861,245.07585478333334,245.63633869166668,47.0,88.0
862,245.31779028333335,245.69077417916668,59.0,86.0
863,245.80166128333335,246.02746775,59.0,77.0
864,245.55972578333333,246.07383872083335,67.0,100.0
865,246.76940328333333,247.06577427083334,63.0,59.0
866,246.28553228333334,247.12625814583333,55.0,67.0
867,246.52746778333335,247.16658072916667,60.0,64.0
868,246.04359678333333,247.81375819166666,48.0,73.0
869,247.25327428333333,247.97908078333336,55.0,75.0
870,247.73714528333335,247.97908078333336,60.0,79.0
871,247.49520978333334,247.97908078333336,63.0,82.0
872,247.01133878333334,247.97908078333336,67.0,107.0
873,247.97908078333336,248.49520985,48.0,72.0
874,247.97908078333336,248.49722597916667,63.0,73.0
875,247.97908078333336,248.5133550125,60.0,72.0
876,247.97908078333336,248.5375485625,67.0,69.0
877,248.94682278333335,249.46698410833335,46.0,69.0
878,248.94682278333335,250.09601640833336,58.0,96.0
879,250.39843578333335,250.708919675,60.0,69.0
880,250.64037128333334,250.77948419583333,63.0,76.0
881,250.15650028333334,250.9810971125,57.0,73.0
882,251.12424228333333,251.32988745833336,57.0,63.0
883,250.88230678333335,251.3681939125,63.0,107.0
884,249.91456478333333,251.40650036666668,45.0,88.0
885,251.36617778333334,251.81375845833333,60.0,81.0
886,251.60811328333335,252.0032746,63.0,83.0
887,252.57585528333334,252.862145625,60.0,67.0
888,252.09198428333335,252.88835530416668,51.0,72.0
889,252.33391978333333,252.94480692083334,56.0,69.0
890,251.85004878333334,253.19279080833334,44.0,68.0
891,253.05972628333336,253.23109726250001,51.0,71.0
892,253.54359728333333,253.82988762500003,56.0,54.0
893,253.30166178333334,253.8359360125,60.0,64.0
894,252.81779078333335,253.88029085416667,63.0,92.0
895,254.26940378333336,254.85609737083334,55.0,78.0
896,254.51133928333334,255.01738770416668,58.0,64.0
897,254.02746828333335,255.14641997083334,50.0,66.0
898,253.78553278333334,255.15045222916666,43.0,71.0
899,254.99521028333334,255.281500625,55.0,76.0
900,255.23714578333335,255.67262968333335,62.0,93.0
901,254.75327478333332,255.71093613750003,67.0,100.0
902,255.47908128333336,255.73916194583336,58.0,78.0
903,256.44682328333334,256.70892007500004,63.0,72.0
904,256.20488778333333,256.79359750000003,60.0,66.0
905,255.96295228333332,256.8440007291667,55.0,69.0
906,256.9306942833333,257.0819039708333,55.0,70.0
907,255.72101678333334,257.13633945833334,48.0,75.0
908,256.68875878333336,257.57182335833335,67.0,107.0
909,257.41456528333333,257.6504523958333,60.0,88.0
910,257.1726297833333,257.65650078333334,63.0,89.0
911,257.65650078333334,258.499242775,65.0,89.0
912,257.65650078333334,258.71496859583334,60.0,85.0
913,258.1403717833333,259.02343635833336,48.0,66.0
914,257.65650078333334,259.0335170041667,41.0,72.0
915,258.62424278333333,259.2310976625,65.0,82.0
916,257.65650078333334,259.2512589541667,68.0,95.0
917,259.10811378333335,259.36214605833334,60.0,81.0
918,258.62424278333333,259.51133961666665,53.0,51.0
919,259.5919847833334,260.8298880916667,58.0,88.0
920,259.5919847833334,260.86013002916667,62.0,72.0
921,259.5919847833334,260.87827519166666,46.0,99.0
922,259.5919847833334,260.9085171291667,65.0,66.0
923,262.01133978333337,262.6403720833333,56.0,45.0
924,262.97908178333336,263.14843663333335,56.0,44.0
925,261.52746878333335,263.23714631666667,44.0,99.0
926,262.49521078333333,263.507307625,60.0,82.0
927,262.49521078333333,263.5133560125,63.0,93.0
928,263.94682378333334,264.95085610833337,50.0,53.0
929,263.4629527833333,265.13230773333333,43.0,68.0
930,264.91456578333333,265.3601303291667,55.0,72.0
931,264.43069478333337,265.37424323333335,58.0,72.0
932,264.43069478333337,265.39238839583334,62.0,68.0
933,266.36819491250003,266.91053365833335,53.0,57.0
934,265.8903723,267.0073078583333,48.0,59.0
935,265.4085174291667,267.01335624583334,41.0,76.0
936,266.8722272041667,267.17263045000004,56.0,62.0
937,267.48916272916665,269.9044854708333,46.0,41.0
938,267.620211125,270.24319517083336,53.0,41.0
939,267.789565975,270.2915822708334,62.0,72.0
940,267.668598225,270.305695175,58.0,59.0
941,267.90246920833334,270.32585646666666,65.0,53.0
942,272.1887598166667,272.6907759791667,55.0,53.0
943,272.4165824125,272.7210179166667,58.0,58.0
944,272.66255017083336,272.7573082416667,63.0,60.0
945,273.00730825833335,273.3440018291667,67.0,46.0
946,273.30166311666665,273.4085179625,70.0,54.0
947,271.70892107500003,275.27343744166666,46.0,65.0
948,274.3298889916667,275.2774697,79.0,24.0
949,274.27948576250003,275.30166325,82.0,33.0
950,271.9528727041667,275.31174389583333,51.0,89.0
951,274.15448575416667,275.31779228333335,75.0,35.0
952,274.5536793291667,275.3440019625,87.0,33.0
953,271.3742436333333,275.40246970833334,39.0,72.0
