,start,end,pitch,velocity
0,23.707383699999998,23.83886505,62.0,77.0
1,23.9296057,24.06437263125,62.0,83.0
2,24.15653853125,24.30054775,62.0,82.0
3,24.38695328125,24.521361885416667,62.0,84.0
4,24.61736803125,25.00907310625,62.0,82.0
5,25.078197531249998,25.312452527083334,64.0,82.0
6,25.30861228125,26.741023977083334,67.0,76.0
7,26.921515531249998,27.086646102083332,67.0,84.0
8,27.15193028125,27.332421835416667,69.0,80.0
9,27.38234503125,27.726047033333334,71.0,83.0
10,27.84317453125,28.13119296875,71.0,84.0
11,28.30400403125,28.739871933333333,71.0,85.0
12,28.764833531249998,29.0470916,69.0,79.0
13,28.99524828125,30.67671620625,71.0,83.0
14,31.04792795625,31.220276268750002,64.0,88.0
15,31.27520045625,31.53277595625,67.0,72.0
16,31.72974545625,32.29724830625,67.0,85.0
17,32.40918855625,32.56590490625,64.0,85.0
18,32.63306905625,32.795382418749995,62.0,84.0
19,32.85694955625,33.28418817708333,64.0,90.0
20,33.30471055625,33.51926270208333,67.0,82.0
21,33.52859105625,34.04538187708333,64.0,88.0
22,34.20023255625,34.319635489583334,64.0,86.0
23,34.42411305625,34.55471001458333,67.0,82.0
24,34.64799355625,34.87187405625,69.0,86.0
25,34.87187405625,35.09575455625,69.0,86.0
26,35.09575455625,35.31963505625,69.0,86.0
27,35.31963505625,35.99127655625,69.0,86.0
28,35.99127655625,36.41291816458333,71.0,86.0
29,36.43903755625,37.88120111041666,62.0,87.0
30,38.23008155625,38.36254418541667,62.0,77.0
31,38.45396205625,38.58829035625,62.0,83.0
32,38.67784255625,38.817767868749996,62.0,82.0
33,38.90172305625,39.032320014583334,62.0,84.0
34,39.12560355625,39.5050577375,62.0,82.0
35,39.5716257125,39.79721718333333,64.0,82.0
36,39.7935189625,41.172955333333334,67.0,76.0
37,41.3467717125,41.50579520833333,67.0,84.0
38,41.5686649625,41.74248134166667,69.0,80.0
39,41.7905582125,42.121548977083336,71.0,83.0
40,42.2343447125,42.511711274999996,71.0,84.0
41,42.6781312125,43.09787927708334,71.0,85.0
42,43.1219177125,43.39373694375,69.0,79.0
43,43.3438109625,44.97842457083333,71.0,83.0
44,45.3408502125,45.50911926041667,64.0,88.0
45,45.5627434625,45.814222479166666,67.0,72.0
46,46.0065299625,46.5612630875,67.0,85.0
47,46.6722097125,46.8275349875,64.0,85.0
48,46.8941029625,47.05497556875,62.0,84.0
49,47.1159962125,47.53944249791667,64.0,90.0
50,47.559782712499995,47.77243041041667,67.0,82.0
51,47.7816759625,48.29387954791667,64.0,88.0
52,48.4473557125,48.56569877916667,64.0,86.0
53,48.6692489625,48.79868669166667,67.0,82.0
54,48.8911422125,49.1130354625,69.0,86.0
55,49.1130354625,49.3349287125,69.0,86.0
56,49.3349287125,49.556821962499995,69.0,86.0
57,49.556821962499995,49.7787152125,69.0,86.0
58,49.7787152125,50.2225017125,69.0,86.0
59,50.2225017125,50.640400666666665,71.0,86.0
60,50.6662882125,52.10591802291667,67.0,87.0
61,54.69360346875,55.193603252083335,67.0,80.0
62,55.14136446875,55.56300607708333,69.0,81.0
63,55.58912546875,56.12830433958333,71.0,85.0
64,56.03688646875,56.178677452083335,74.0,87.0
65,56.26076696875,56.59016807291667,74.0,88.0
66,56.70735516041667,56.843143372916664,74.0,89.0
67,56.93056866041667,57.98153222291667,74.0,95.0
68,58.26984966041667,58.654892947916665,71.0,84.0
69,58.71627666041667,59.138522197916664,69.0,86.0
70,59.16270366041667,59.38405704791667,67.0,84.0
71,59.38591716041667,60.04253687291667,69.0,85.0
72,60.05555766041667,62.36209716041667,64.0,86.0
73,63.18104953541667,63.34433766041667,69.0,82.0
74,63.40627453541667,63.72534328541667,69.0,85.0
75,63.85672453541667,64.00687453541667,69.0,84.0
76,64.08194953541667,65.25875016041667,69.0,84.0
77,65.43329953541667,65.89313391041667,69.0,85.0
78,65.88374953541667,66.31543078541667,71.0,77.0
79,66.33419953541667,66.84283266041668,67.0,85.0
80,66.78464953541668,68.24673516041668,76.0,85.0
81,68.36122453541667,68.58644953541668,71.0,84.0
82,68.58644953541668,70.16865516041668,74.0,88.0
83,70.38824953541668,70.52901516041668,74.0,86.0
84,70.61347453541667,70.96632703541667,74.0,86.0
85,71.06392453541667,71.19530578541668,74.0,85.0
86,71.28914953541667,72.56354766041667,74.0,86.0
87,72.64049953541667,72.98959828541668,71.0,85.0
88,73.09094953541667,73.44943266041668,71.0,85.0
89,73.54139953541667,73.90175953541667,74.0,86.0
90,73.99184953541668,75.34293063541668,76.0,86.0
91,75.34293063541668,75.56307979375,71.0,87.0
92,75.56681113541667,75.78696029375,69.0,82.0
93,75.79069163541668,76.68621363541668,67.0,84.0
94,76.68621363541668,76.82800461875,67.0,84.0
95,76.91009413541667,77.25897458125,67.0,83.0
96,77.35785513541667,77.60598935625,71.0,88.0
97,77.58173563541668,78.00151157291667,69.0,85.0
98,78.02949663541668,78.24964579375,67.0,76.0
99,78.25337713541667,79.41382439375,64.0,87.0
100,80.26830163541668,80.38770456875001,67.0,85.0
101,80.49218213541667,80.65262982708333,67.0,85.0
102,80.71606263541668,80.96606252708334,69.0,84.0
103,80.93994313541667,81.19554003958334,71.0,83.0
104,81.16382363541668,83.30934509375001,69.0,83.0
105,83.85038963541668,83.98098659375,71.0,85.0
106,84.07427013541667,84.23471782708334,71.0,83.0
107,84.29815063541668,84.73285193958334,69.0,80.0
108,84.74591163541668,87.56867160625,67.0,77.0
109,117.07213337708333,117.20361472708333,62.0,77.0
110,117.29435537708333,117.42826905208335,62.0,83.0
111,117.51782125208335,117.65774656458335,62.0,82.0
112,117.74170175208334,117.87229871041669,62.0,84.0
113,117.96558225208335,118.34617910208334,62.0,82.0
114,118.41334325208335,118.64095509375001,64.0,82.0
115,118.63722375208334,120.02901419375002,67.0,76.0
116,120.20438725208335,120.36483494375001,67.0,84.0
117,120.42826775208334,120.60364081041668,69.0,80.0
118,120.65214825208335,120.98610333125,71.0,83.0
119,121.09990925208335,121.37975987708334,71.0,84.0
120,121.54767025208335,121.97117753125,71.0,85.0
121,121.99543125208335,122.26968486458334,69.0,79.0
122,122.21931175208334,123.86856476875002,71.0,83.0
123,124.23423625208335,124.40401229791668,64.0,88.0
124,124.45811675208334,124.71184798541668,67.0,72.0
125,124.90587775208334,125.46557900208335,67.0,85.0
126,125.57751925208335,125.73423560208334,64.0,85.0
127,125.80139975208334,125.96371311458334,62.0,84.0
128,126.02528025208335,126.45251887291668,64.0,90.0
129,126.47304125208335,126.68759339791669,67.0,82.0
130,126.69692175208334,127.21371257291668,64.0,88.0
131,127.36856325208335,127.48796618541668,64.0,86.0
132,127.59244375208334,127.72304071041668,67.0,82.0
133,127.81632425208335,128.04020475208335,69.0,86.0
134,128.04020475208335,128.26408525208333,69.0,86.0
135,128.26408525208333,128.48796575208334,69.0,86.0
136,128.48796575208334,129.15960725208333,69.0,86.0
137,129.15960725208333,129.58124886041668,71.0,86.0
138,129.60736825208335,131.04953180625,62.0,87.0
139,131.39841225208335,131.53087488125,62.0,77.0
140,131.62229275208335,131.75662105208335,62.0,83.0
141,131.84617325208336,131.98609856458336,62.0,82.0
142,132.07005375208334,132.20065071041668,62.0,84.0
143,132.29393425208335,132.67453110208334,62.0,82.0
144,132.74169525208333,132.96930709375002,64.0,82.0
145,132.96557575208334,134.35736619375,67.0,76.0
146,134.53273925208333,134.69318694375002,67.0,84.0
147,134.75661975208334,134.9319928104167,69.0,80.0
148,134.98050025208335,135.31555333958335,71.0,83.0
149,135.43004271458335,135.71157396458335,71.0,84.0
150,135.88049271458334,136.30654333958336,71.0,85.0
151,136.33094271458336,136.60684333958335,69.0,79.0
152,136.55616771458335,138.21675006458335,71.0,83.0
153,138.58572578125,138.75703593541667,64.0,88.0
154,138.81162928125002,139.06765324791667,67.0,72.0
155,139.26343628125002,139.82819503125,67.0,85.0
156,139.94114678125,140.09927923125002,64.0,85.0
157,140.16705028125003,140.33083031875,62.0,84.0
158,140.39295378125001,140.82405296041668,64.0,90.0
159,140.84476078125002,141.06125163541668,67.0,82.0
160,141.07066428125,141.59212486041667,64.0,88.0
161,141.74837478125002,141.8688566479167,64.0,86.0
162,141.97427828125,142.1060553229167,67.0,82.0
163,142.20018178125002,142.42608528125,69.0,86.0
164,142.42608528125,142.65198878125003,69.0,86.0
165,142.65198878125003,142.87789228125,69.0,86.0
166,142.87789228125,143.10379578125003,69.0,86.0
167,143.10379578125003,143.55560278125,69.0,86.0
168,143.55560278125,143.98105437291667,71.0,86.0
169,144.00740978125,145.45607161875003,67.0,87.0
170,148.04375706458336,148.5437568479167,67.0,80.0
171,148.49151806458337,148.9131596729167,69.0,81.0
172,148.93927906458336,149.4784579354167,71.0,85.0
173,149.38704006458337,149.5288310479167,74.0,87.0
174,149.61092056458338,149.94114430208336,74.0,88.0
175,150.05868156458337,150.1948755354167,74.0,89.0
176,150.28256206458337,151.3366660854167,74.0,95.0
177,151.62584506458336,152.01203892708338,71.0,84.0
178,152.07360606458337,152.49711334375004,69.0,86.0
179,152.52136706458336,152.74338189375004,67.0,84.0
180,152.74524756458337,153.40382936875002,69.0,85.0
181,153.41688906458336,155.72392857708337,64.0,86.0
182,156.53753716041672,156.6984097666667,69.0,82.0
183,156.7594304104167,157.07377918125005,69.0,85.0
184,157.20321691041673,157.35114574375004,69.0,84.0
185,157.42511016041672,158.59123700625005,69.0,84.0
186,158.76578638125005,159.22562075625007,69.0,85.0
187,159.21623638125007,159.64791763125007,71.0,77.0
188,159.66668638125006,160.17531950625008,67.0,85.0
189,160.11713638125008,161.57922200625006,76.0,85.0
190,161.69371138125007,161.91893638125006,71.0,84.0
191,161.91893638125006,163.50114200625006,74.0,88.0
192,163.72073638125008,163.86150200625008,74.0,86.0
193,163.94596138125007,164.29881388125006,74.0,86.0
194,164.39641138125006,164.52779263125007,74.0,85.0
195,164.62163638125006,165.89603450625006,74.0,86.0
196,165.97298638125005,166.32208513125008,71.0,85.0
197,166.42343638125007,166.78191950625006,71.0,85.0
198,166.87388638125006,167.23424638125007,74.0,86.0
199,167.32433638125008,168.67568638125007,76.0,86.0
200,168.67568638125007,168.89715763125005,71.0,87.0
201,168.90091138125007,169.12238263125008,69.0,82.0
202,169.12613638125006,170.02703638125007,67.0,84.0
203,170.02703638125007,170.16967888125006,67.0,84.0
204,170.25226138125007,170.60323700625005,67.0,83.0
205,170.70271138125005,170.95233575625008,71.0,88.0
206,170.92793638125008,171.35023325625008,69.0,85.0
207,171.37838638125007,171.59985763125007,67.0,76.0
208,171.60361138125006,172.77102763125006,64.0,87.0
209,173.63063638125007,173.75075638125006,67.0,85.0
210,173.85586138125007,174.01727263125008,67.0,85.0
211,174.08108638125006,174.33258763125008,69.0,84.0
212,174.30631138125005,174.56344325625008,71.0,83.0
213,174.53153638125008,176.68994263125006,69.0,83.0
214,177.23423638125007,177.36561763125007,71.0,85.0
215,177.45946138125007,177.62087263125005,71.0,83.0
216,177.68468638125006,178.12179658125007,69.0,80.0
217,178.1348562770834,180.87366106041674,67.0,77.0
218,180.37366127708341,180.87366106041674,67.0,80.0
219,180.8214222770834,181.24306388541675,69.0,81.0
220,181.2691832770834,181.80836214791674,71.0,85.0
221,181.7169442770834,181.85873526041672,74.0,87.0
222,181.9408247770834,182.2726619145834,74.0,88.0
223,182.3909050395834,182.5279169145834,74.0,89.0
224,182.6161300395834,183.6765644145834,74.0,95.0
225,183.9674800395834,184.3559931645834,71.0,84.0
226,184.4179300395834,184.8439806645834,69.0,86.0
227,184.8683800395834,185.0917281645834,67.0,84.0
228,185.0936050395834,185.7561419145834,69.0,85.0
229,185.7692800395834,188.0966050395834,64.0,86.0
230,188.9224300395834,189.0857181645834,69.0,82.0
231,189.1476550395834,189.4667237895834,69.0,85.0
232,189.5981050395834,189.7482550395834,69.0,84.0
233,189.8233300395834,191.0001306645834,69.0,84.0
234,191.1746800395834,191.6345144145834,69.0,85.0
235,191.6251300395834,192.0568112895834,71.0,77.0
236,192.0755800395834,192.5842131645834,67.0,85.0
237,192.5260300395834,193.98389206875007,76.0,85.0
238,194.0975283333334,194.3210750833334,71.0,84.0
239,194.3210750833334,195.8914910020834,74.0,88.0
240,196.10944908333337,196.24916580208338,74.0,86.0
241,196.3329958333334,196.68321907500007,74.0,86.0
242,196.7800893333334,196.9104916041667,74.0,85.0
243,197.0036360833334,198.26853811041673,74.0,86.0
244,198.3449165833334,198.6914140458334,71.0,85.0
245,198.7920100833334,199.14782199375006,71.0,85.0
246,199.2391035833334,199.5967783833334,74.0,86.0
247,199.68619708333338,201.0274775833334,76.0,86.0
248,201.0274775833334,201.24729855416672,71.0,87.0
249,201.2510243333334,201.47084530416672,69.0,82.0
250,201.4745710833334,202.36875808333338,67.0,84.0
251,202.36875808333338,202.51033769166673,67.0,84.0
252,202.5923048333334,202.94066518541672,67.0,83.0
253,203.0393983333334,203.28716264791672,71.0,88.0
254,203.2629450833334,203.6820952395834,69.0,85.0
255,203.7100385833334,203.9298595541667,67.0,76.0
256,203.93358533333338,205.09230265416673,64.0,87.0
257,205.94550608333338,206.0647310166667,67.0,85.0
258,206.16905283333338,206.32926133750004,67.0,85.0
259,206.39259958333338,206.64222678750005,69.0,84.0
260,206.61614633333338,206.87136220625007,71.0,83.0
261,206.8396930833334,208.98201610416672,69.0,83.0
262,209.5222540833334,209.6526563541667,71.0,85.0
263,209.7458008333334,209.90600933750005,71.0,83.0
264,209.9693475833334,210.40340085625004,69.0,80.0
265,210.41644108333338,213.2349930229167,67.0,77.0
266,213.16979188750005,213.2349930229167,67.0,76.0
267,213.4454995458334,213.6019822708334,67.0,80.0
268,213.6541431791667,213.8925930458334,69.0,78.0
269,213.87582703958338,214.17016359375006,71.0,78.0
270,214.1552604770834,214.64520043750005,69.0,83.0
271,214.60421686666672,214.90786786875006,67.0,70.0
272,214.87992452500006,216.36651041250005,64.0,66.0
273,216.76889456250007,216.92910306666673,67.0,75.0
274,217.0110702083334,217.28305208750007,67.0,82.0
275,217.23834273750006,217.48796994166673,69.0,80.0
276,217.45071215000004,217.64072688750005,71.0,81.0
277,217.73573425625005,218.22753710625005,71.0,84.0
278,218.18841642500007,219.96747597708338,69.0,78.0
279,220.25436097291671,220.41084369791673,71.0,79.0
280,220.48908506041673,220.6940029145834,71.0,83.0
281,220.7443009333334,221.26218423750007,69.0,84.0
282,221.2305151145834,224.48498321666673,67.0,78.0
