,start,end,pitch,velocity
0,10.374063699999999,10.8555447,59.0,77.0
1,10.8185077,11.1222111,55.0,75.0
2,11.2629517,11.318507199999999,55.0,61.0
3,11.2629517,11.4148034,59.0,72.0
4,11.2629517,11.4370256,62.0,77.0
5,9.9296197,12.272209949999999,50.0,71.0
6,9.4851757,12.2851729,43.0,80.0
7,12.1518397,12.2851729,55.0,84.0
8,12.1518397,12.29443215,59.0,80.0
9,12.1518397,12.3259136,62.0,82.0
10,13.0407277,14.033319299999999,62.0,76.0
11,13.4851717,14.0703563,54.0,59.0
12,13.9296157,14.46850405,59.0,86.0
13,14.3740597,14.9888739,54.0,62.0
14,13.0407277,15.0407257,47.0,80.0
15,14.818503699999999,15.32776245,59.0,80.0
16,14.818503699999999,15.512947449999999,66.0,73.0
17,15.707391699999999,15.807391599999999,62.0,84.0
18,15.707391699999999,15.8185027,59.0,85.0
19,15.2629477,16.1925764,47.0,71.0
20,17.485167699999998,17.97961165,59.0,81.0
21,17.9296117,18.431463049999998,55.0,84.0
22,18.3740557,19.1036846,62.0,83.0
23,18.8184997,19.362943599999998,55.0,79.0
24,17.0407237,19.62405445,50.0,62.0
25,16.5962797,19.64627665,43.0,80.0
26,19.2629437,19.6814618,59.0,85.0
27,19.2629437,19.772202449999998,62.0,85.0
28,19.707387699999998,19.8370172,55.0,79.0
29,20.1518317,20.424053649999998,57.0,73.0
30,20.1518317,20.96849755,62.0,74.0
31,20.5962757,21.11294185,57.0,73.0
32,21.0407197,21.490719249999998,64.0,83.0
33,21.485163699999998,21.759237499999998,57.0,74.0
34,20.1518317,21.7925708,50.0,84.0
35,21.9296077,22.12775565,57.0,79.0
36,22.3740517,22.457384949999998,57.0,55.0
37,21.9296077,22.55738485,66.0,71.0
38,22.8184957,22.91294005,62.0,75.0
39,21.9296077,22.98701405,50.0,82.0
40,24.61736803125,25.12236035833333,59.0,77.0
41,25.078197531249998,25.327813510416668,55.0,72.0
42,25.53902703125,25.68111612708333,55.0,75.0
43,25.53902703125,25.76944178125,62.0,75.0
44,25.99985653125,26.349318902083333,55.0,71.0
45,26.46068603125,26.57589340625,62.0,85.0
46,26.46068603125,26.583573897916665,59.0,86.0
47,23.707383699999998,26.885033195833334,43.0,84.0
48,24.15653853125,26.93303626875,50.0,73.0
49,27.38234503125,27.87773674375,59.0,77.0
50,27.38234503125,28.000624610416665,62.0,78.0
51,28.30400403125,28.686108491666666,62.0,82.0
52,28.30400403125,28.737951810416668,66.0,81.0
53,27.84317453125,29.406154585416665,54.0,65.0
54,29.22566303125,29.68239901875,59.0,84.0
55,29.22566303125,29.74868683125,66.0,74.0
56,29.68429295625,30.21459545625,54.0,68.0
57,30.13883795625,30.49111033125,59.0,77.0
58,30.13883795625,30.53656483125,62.0,81.0
59,27.38234503125,30.58959508125,47.0,84.0
60,30.13883795625,30.60095870625,66.0,79.0
61,31.04792795625,31.57633651875,64.0,77.0
62,31.95701795625,32.17103289375,60.0,80.0
63,31.04792795625,32.64799442291667,48.0,84.0
64,31.50247295625,32.698367535416665,55.0,71.0
65,31.95701795625,32.76180034375,67.0,77.0
66,32.40918855625,33.13120316875,60.0,81.0
67,32.85694955625,33.343889643749996,64.0,78.0
68,33.75247155625,33.86627747708333,60.0,70.0
69,33.30471055625,33.873740160416666,55.0,65.0
70,33.75247155625,33.89239686875,64.0,84.0
71,32.85694955625,33.91105357708333,48.0,77.0
72,33.75247155625,33.92971028541666,67.0,70.0
73,34.64799355625,35.24500822291667,62.0,77.0
74,34.64799355625,35.29351566458333,57.0,70.0
75,35.54351555625,36.07709741458333,66.0,84.0
76,35.99127655625,36.31590328125,57.0,85.0
77,35.09575455625,36.49127633958333,45.0,60.0
78,34.64799355625,36.54538079375,38.0,85.0
79,36.43903755625,36.90358959375,62.0,85.0
80,36.88679855625,37.29538046875,57.0,72.0
81,37.33455955625,37.731947443749995,62.0,80.0
82,37.78232055625,37.95023093125,45.0,81.0
83,38.23008155625,38.77672311041667,59.0,78.0
84,38.23008155625,38.84575293125,55.0,76.0
85,39.12560355625,39.263663197916664,55.0,84.0
86,39.12560355625,39.34388704375,62.0,80.0
87,39.5716257125,39.76393319583333,55.0,78.0
88,40.0154122125,40.1707374875,59.0,68.0
89,40.0154122125,40.17813392916667,62.0,74.0
90,40.4591987125,40.59048555208334,55.0,73.0
91,38.67784255625,40.9695531875,50.0,68.0
92,40.9029852125,41.123029352083336,55.0,89.0
93,40.9029852125,41.178502664583334,62.0,86.0
94,38.23008155625,41.24322152916667,43.0,84.0
95,41.1248784625,41.298694841666666,50.0,84.0
96,41.3467717125,41.603798060416665,55.0,86.0
97,41.5686649625,41.77761443958333,57.0,84.0
98,41.7905582125,42.2676287,59.0,80.0
99,42.6781312125,42.82051271458333,59.0,85.0
100,42.6781312125,42.8778351375,66.0,77.0
101,42.2343447125,43.33826363125,54.0,73.0
102,41.7905582125,43.41777537916666,47.0,84.0
103,43.5657042125,44.00764160208333,59.0,74.0
104,43.5657042125,44.02428359583333,62.0,77.0
105,44.2313839625,44.33493414583333,59.0,84.0
106,44.009490712499996,44.49580675208333,54.0,67.0
107,44.4532772125,44.72324733333333,59.0,89.0
108,43.5657042125,44.73619110625,47.0,72.0
109,44.4532772125,44.815702854166666,66.0,84.0
110,44.6751704625,44.82494840625,54.0,83.0
111,44.8970637125,45.155939170833335,64.0,82.0
112,45.1189569625,45.353793985416665,62.0,76.0
113,45.3408502125,45.80497692708333,64.0,84.0
114,45.3408502125,45.80867514791667,60.0,82.0
115,46.2284232125,46.31533140208333,64.0,84.0
116,46.2284232125,46.3393698375,60.0,79.0
117,46.2284232125,46.363408272916665,67.0,80.0
118,45.3408502125,46.89965029375,48.0,86.0
119,45.7846367125,46.95512360625,55.0,61.0
120,47.1159962125,47.452534308333334,60.0,72.0
121,47.1159962125,47.5930667,67.0,75.0
122,47.7816759625,47.89632080833333,60.0,84.0
123,47.559782712499995,48.08493007083333,55.0,72.0
124,48.0035692125,48.24395356666667,60.0,86.0
125,48.0035692125,48.29018132708333,64.0,90.0
126,47.1159962125,48.29572865833333,48.0,84.0
127,48.2254624625,48.360447522916665,55.0,80.0
128,48.4473557125,48.55090589583333,60.0,85.0
129,48.8911422125,49.063109481249995,57.0,75.0
130,48.8911422125,49.38300558333333,62.0,78.0
131,49.3349287125,49.53833085833333,57.0,74.0
132,49.7787152125,49.90630383125,57.0,84.0
133,48.8911422125,49.959928033333334,50.0,84.0
134,49.7787152125,50.028345118749996,62.0,85.0
135,49.7787152125,50.09306398333333,66.0,85.0
136,50.2225017125,50.29646612916667,57.0,60.0
137,50.6662882125,51.05181400208333,62.0,77.0
138,50.6662882125,51.079799064583334,55.0,75.0
139,51.55927646875,51.715992818749996,55.0,74.0
140,51.55927646875,51.73091818541666,59.0,75.0
141,52.00703746875,52.48091786041667,55.0,67.0
142,52.45479846875,52.59099243958333,59.0,69.0
143,52.45479846875,52.61711183125,62.0,78.0
144,52.90255946875,53.085395210416664,55.0,66.0
145,51.11151546875,53.419350289583335,50.0,66.0
146,53.35032046875,53.56300694375,55.0,85.0
147,53.35032046875,53.57420096875,59.0,89.0
148,50.6662882125,53.577932310416664,43.0,82.0
149,53.35032046875,53.589126335416665,62.0,85.0
150,53.57420096875,53.71039493958333,50.0,86.0
151,53.79808146875,54.09658880208333,55.0,87.0
152,54.02196196875,54.58912590208333,62.0,81.0
153,55.14136446875,55.27942411041666,55.0,80.0
154,55.14136446875,55.28875246458333,59.0,76.0
155,55.14136446875,55.31114051458333,62.0,81.0
156,54.69360346875,55.87643877708333,50.0,72.0
157,54.24584246875,55.87830444791666,43.0,87.0
158,55.58912546875,56.14509537708333,55.0,85.0
159,56.03688646875,56.35021356041667,59.0,75.0
160,56.03688646875,56.41345738541667,62.0,80.0
161,56.93056866041667,57.11657991041667,59.0,84.0
162,56.93056866041667,57.12774058541667,62.0,80.0
163,56.03688646875,57.741577710416664,43.0,84.0
164,56.48414166041667,57.756458610416665,50.0,70.0
165,57.60020916041667,57.90154738541667,55.0,80.0
166,57.82342266041667,58.070817622916664,62.0,78.0
167,57.82342266041667,58.07267773541667,59.0,79.0
168,57.82342266041667,58.09871931041667,67.0,79.0
169,58.26984966041667,58.40563787291667,55.0,84.0
170,58.49306316041667,58.56560754791667,55.0,74.0
171,58.04663616041667,58.57304799791667,50.0,75.0
172,57.82342266041667,58.83160363541667,43.0,80.0
173,58.49306316041667,58.98599297291667,59.0,89.0
174,58.49306316041667,59.021335110416665,62.0,85.0
175,58.71627666041667,59.03063567291667,50.0,84.0
176,58.93949016041667,59.21664692291667,55.0,86.0
177,59.16270366041667,59.287331197916664,59.0,84.0
178,59.60913066041667,59.62401156041667,62.0,66.0
179,59.60913066041667,60.23040823541667,64.0,74.0
180,59.60913066041667,60.306672847916666,59.0,78.0
181,60.50198466041667,60.73635883541667,59.0,85.0
182,60.05555766041667,60.80332288541667,47.0,72.0
183,59.60913066041667,61.15860437291667,40.0,86.0
184,60.94841166041667,61.305553260416666,47.0,75.0
185,60.50198466041667,61.374377422916666,67.0,81.0
186,61.39483866041667,61.651534185416665,64.0,76.0
187,61.39483866041667,61.703617335416666,59.0,71.0
188,61.84126566041667,62.32489491041667,47.0,70.0
189,62.28769266041667,62.50904604791667,52.0,88.0
190,61.39483866041667,62.54066796041667,40.0,82.0
191,62.28769266041667,62.56298931041667,55.0,91.0
192,62.51090616041667,62.61693257291667,47.0,88.0
193,62.73411966041667,63.02429721041667,52.0,88.0
194,62.95733316041667,63.20732578541667,55.0,89.0
195,63.18104953541667,63.66152953541667,57.0,79.0
196,64.08194953541667,64.19831578541667,60.0,85.0
197,64.08194953541667,64.20770016041666,57.0,80.0
198,64.08194953541667,64.21520766041667,64.0,86.0
199,63.18104953541667,64.85709891041667,45.0,85.0
200,63.63149953541667,64.86085266041667,52.0,72.0
201,64.75762453541667,65.07106266041667,57.0,78.0
202,64.98284953541668,65.48397516041668,64.0,84.0
203,65.43329953541667,65.75236828541667,57.0,81.0
204,65.65852453541667,65.80304391041668,60.0,85.0
205,65.88374953541667,65.93254828541667,60.0,65.0
206,65.20807453541667,66.12962016041666,52.0,77.0
207,65.88374953541667,66.13712766041667,69.0,89.0
208,64.98284953541668,66.19718766041667,45.0,81.0
209,66.10897453541666,66.39050578541666,64.0,85.0
210,66.33419953541667,66.55754766041667,60.0,85.0
211,66.55942453541667,66.73772766041667,57.0,81.0
212,66.78464953541668,66.89726203541667,57.0,61.0
213,66.78464953541668,67.30266703541668,62.0,79.0
214,67.68554953541667,67.90702078541668,57.0,86.0
215,67.68554953541667,68.23735078541667,66.0,86.0
216,67.23509953541667,68.29365703541667,45.0,71.0
217,66.78464953541668,68.35559391041667,38.0,88.0
218,68.13599953541667,68.68029328541667,57.0,86.0
219,68.58644953541668,69.08006766041667,62.0,85.0
220,69.26212453541667,69.36722953541667,57.0,85.0
221,69.03689953541667,69.56617828541667,45.0,72.0
222,69.48734953541667,69.69192891041666,66.0,91.0
223,69.48734953541667,69.69568266041667,62.0,93.0
224,69.48734953541667,69.72195891041667,57.0,85.0
225,68.58644953541668,69.80078766041667,38.0,87.0
226,69.71257453541668,69.85897078541667,45.0,84.0
227,69.93779953541667,70.13487141041666,62.0,86.0
228,70.16302453541667,70.40889516041668,60.0,86.0
229,70.38824953541668,70.87623703541666,59.0,85.0
230,71.28914953541667,71.53502016041668,55.0,83.0
231,71.28914953541667,72.03802266041667,62.0,82.0
232,70.83869953541667,72.03989953541667,50.0,62.0
233,70.38824953541668,72.05116078541667,43.0,84.0
234,71.96482453541667,72.13186641041668,55.0,78.0
235,72.19004953541668,72.41715141041666,55.0,70.0
236,72.19004953541668,72.69117516041668,59.0,84.0
237,72.86572453541667,72.97082953541667,55.0,78.0
238,72.64049953541667,73.17916266041667,50.0,72.0
239,73.09094953541667,73.32180516041667,55.0,86.0
240,73.09094953541667,73.39124953541668,59.0,91.0
241,72.19004953541668,73.43629453541666,43.0,85.0
242,73.31617453541668,73.46632453541667,50.0,82.0
243,73.09094953541667,73.47758578541666,62.0,86.0
244,73.54139953541667,73.70844141041667,55.0,86.0
245,73.99184953541668,74.42165391041667,55.0,74.0
246,73.99184953541668,74.51549766041667,52.0,79.0
247,74.89274953541667,74.99034703541668,55.0,84.0
248,74.89274953541667,75.03726891041667,59.0,84.0
249,74.44229953541667,75.55375143958334,47.0,62.0
250,73.99184953541668,75.57800516041667,40.0,86.0
251,75.34293063541668,75.86718413958334,52.0,85.0
252,75.79069163541668,76.26830336875001,55.0,78.0
253,75.79069163541668,76.27763172291667,64.0,84.0
254,76.23845263541668,76.41569136458334,52.0,68.0
255,76.23845263541668,76.73472107708334,47.0,65.0
256,76.68621363541668,76.88024340208334,52.0,91.0
257,76.68621363541668,76.89516876875001,55.0,90.0
258,75.79069163541668,76.94927322291667,40.0,86.0
259,76.91009413541667,77.05375078958333,47.0,83.0
260,77.13397463541668,77.28509397291667,40.0,86.0
261,77.58173563541668,77.77949674375,55.0,81.0
262,77.58173563541668,78.03322797708334,60.0,78.0
263,78.02949663541668,78.21792938958333,55.0,79.0
264,77.58173563541668,78.62277996041666,48.0,87.0
265,78.47725763541668,78.64703368125001,55.0,84.0
266,78.47725763541668,78.75524258958333,60.0,87.0
267,78.47725763541668,79.00524248125001,64.0,89.0
268,78.92501863541668,79.42688408958334,55.0,85.0
269,79.37277963541668,79.83733167291668,60.0,77.0
270,79.82054063541668,79.95673460625001,55.0,69.0
271,79.37277963541668,80.36345084791667,48.0,80.0
272,80.26830163541668,80.47165975625,55.0,89.0
273,80.49218213541667,80.59292836041666,48.0,86.0
274,80.26830163541668,80.71979397708334,64.0,91.0
275,80.71606263541668,80.96606252708334,62.0,85.0
276,80.93994313541667,81.18621168541667,60.0,84.0
277,81.16382363541668,81.57427121875,62.0,79.0
278,82.05934563541668,82.23471869375001,57.0,84.0
279,81.61158463541668,82.70113640208334,45.0,68.0
280,81.16382363541668,82.70859908541667,38.0,88.0
281,82.05934563541668,83.02949446875,66.0,85.0
282,82.50710663541668,83.11158398541667,57.0,84.0
283,82.95486763541668,83.44740473541667,62.0,78.0
284,83.40262863541668,83.85598664791667,45.0,56.0
285,82.95486763541668,83.91009110208334,38.0,86.0
286,83.85038963541668,83.98098659375,57.0,80.0
287,83.85038963541668,84.25897154791667,66.0,76.0
288,83.85038963541668,84.27576258541667,62.0,83.0
289,84.29815063541668,84.41382222708334,57.0,84.0
290,84.74591163541668,85.23844873541667,59.0,73.0
291,84.74591163541668,85.26083678541667,55.0,75.0
292,85.64143363541667,86.00337377708334,62.0,77.0
293,85.64143363541667,86.24964232708334,59.0,77.0
294,86.08919463541667,86.47911983958333,55.0,64.0
295,85.19367263541668,86.73285107291667,50.0,60.0
296,84.74591163541668,88.06120870625,43.0,80.0
297,86.53695563541667,88.22352206875,59.0,68.0
298,86.53695563541667,88.27762652291668,62.0,71.0
299,88.77576063541667,89.15262614375001,52.0,78.0
300,88.99964113541667,89.30747682291667,55.0,74.0
301,89.22352163541667,89.54255134791667,64.0,88.0
302,88.32799963541667,89.95113326041667,40.0,87.0
303,88.55188013541667,89.98284966458334,47.0,70.0
304,89.44740213541667,89.98284966458334,59.0,82.0
305,89.67128263541667,90.11344662291667,55.0,82.0
306,89.89516313541667,90.29441669375001,52.0,86.0
307,90.79068513541667,91.04814771041667,55.0,80.0
308,90.56680463541667,91.05747606458334,52.0,79.0
309,90.34292413541667,91.28322223541667,47.0,68.0
310,90.11904363541667,91.33546101875001,40.0,86.0
311,91.01456563541667,91.41755053541667,59.0,82.0
312,91.23844613541667,91.52949078541667,55.0,80.0
313,91.46232663541667,91.76643098125001,52.0,85.0
314,91.68620713541668,91.84852049791667,55.0,84.0
315,92.13396813541667,92.38396802708334,55.0,72.0
316,92.35784863541667,92.64889328541668,60.0,75.0
317,92.58172913541668,92.76643054791667,55.0,68.0
318,91.91008763541667,93.18620648541668,48.0,83.0
319,92.80560963541667,93.21792288958333,64.0,85.0
320,93.02949013541667,93.30001240625,55.0,79.0
321,93.25337063541667,93.56680333541667,60.0,80.0
322,93.47725113541668,93.78135548125,55.0,85.0
323,93.92501213541667,94.16754934375001,55.0,80.0
324,94.14889263541667,94.45299698125001,60.0,79.0
325,94.37277313541668,94.61157900208335,55.0,78.0
326,94.59665363541667,94.68060882291667,60.0,48.0
327,93.70113163541667,94.94366841041668,48.0,84.0
328,94.82053413541666,95.10598177291666,55.0,79.0
329,94.59665363541667,95.30374288125,67.0,75.0
330,95.04441463541667,95.31680257708334,60.0,84.0
331,95.26829513541668,95.50710100208335,55.0,84.0
332,95.71605613541666,95.96232468541668,52.0,84.0
333,95.93993663541667,96.14889176875,55.0,73.0
334,96.16381713541668,96.34478720625,52.0,70.0
335,96.61157813541666,96.87090638125001,52.0,81.0
336,96.38769763541667,96.93993620208335,59.0,79.0
337,95.49217563541667,97.12836895625,40.0,84.0
338,97.05933913541668,97.30933902708334,52.0,84.0
339,96.83545863541667,97.35784646875001,55.0,79.0
340,97.28321963541667,97.75896569791666,64.0,85.0
341,97.50710013541666,97.76642838125001,52.0,82.0
342,97.73098063541667,98.00523424791668,55.0,80.0
343,97.95486113541668,98.21418938125001,52.0,80.0
344,97.28321963541667,98.52948775208334,40.0,85.0
345,98.17874163541667,98.65821903958334,59.0,85.0
346,98.40262213541666,98.68993544375,52.0,84.0
347,98.62650263541667,98.97724875208334,55.0,85.0
348,98.85038313541668,99.07426363541667,52.0,84.0
349,99.29814413541666,99.57239774791667,55.0,85.0
350,99.52202463541667,99.77762153958334,60.0,80.0
351,99.74590513541668,100.01269606458334,55.0,79.0
352,99.07426363541667,100.15448704791667,48.0,88.0
353,99.96978563541667,100.39702425625,64.0,86.0
354,100.19366613541666,100.48471078541667,55.0,84.0
355,100.41754663541667,100.64142713541668,60.0,70.0
356,100.64142713541668,100.91031832291667,55.0,73.0
357,100.86540817291667,101.10305771666667,62.0,77.0
358,101.53906042291668,101.75799740416667,62.0,80.0
359,101.31450967291667,101.82536262916668,57.0,81.0
360,101.08995892291667,102.05552714791668,45.0,72.0
361,101.76361117291667,102.06488342916667,66.0,95.0
362,100.86540817291667,102.10605106666667,38.0,85.0
363,101.98816192291667,102.25200905416668,62.0,85.0
364,102.21271267291667,102.37738322291668,57.0,80.0
365,102.66294146458334,102.88319737708333,55.0,78.0
366,102.66294146458334,103.07521535208333,59.0,74.0
367,103.34065196458334,103.58349822708334,59.0,68.0
368,103.11474846458334,103.70962768125,55.0,83.0
369,103.56655546458333,103.82257943125,67.0,73.0
370,103.79245896458333,104.06730822291667,62.0,79.0
371,104.01836246458333,104.27438643125001,59.0,83.0
372,102.66294146458334,104.27815148958334,43.0,85.0
373,102.88884496458334,104.28944666458334,50.0,74.0
374,104.24426596458333,105.03116315625,62.0,80.0
375,104.92197646458334,105.22506366041667,55.0,85.0
376,105.14787996458334,105.46602739375001,59.0,83.0
377,105.59968696458334,105.90842174791668,62.0,85.0
378,105.37378346458334,105.91783439375,67.0,85.0
379,104.69607296458334,105.91971692291668,50.0,71.0
380,104.47016946458334,106.00443073541668,43.0,84.0
381,105.82559046458334,106.14185536458334,59.0,85.0
382,106.05149396458334,106.16632824375,62.0,46.0
383,106.05149396458334,106.27739746458334,55.0,83.0
384,106.72920446458333,106.98899348958334,60.0,76.0
385,106.95510796458333,107.32031862291667,57.0,74.0
386,107.18101146458334,107.45962578125,69.0,86.0
387,106.27739746458334,107.88507737291667,45.0,84.0
388,106.50330096458333,107.89825507708333,52.0,74.0
389,107.40691496458334,108.19569468541667,64.0,81.0
390,107.63281846458334,108.20134227291668,60.0,84.0
391,107.85872196458334,108.24087538541667,57.0,84.0
392,108.53643246458334,109.02589004791668,57.0,80.0
393,108.76233596458334,109.02589004791668,60.0,80.0
394,108.98823946458334,109.26497125208334,64.0,84.0
395,108.31052896458334,109.41933864375001,52.0,74.0
396,108.08462546458334,109.46828440208334,45.0,81.0
397,109.21414296458333,109.47957957708334,60.0,83.0
398,109.44004646458333,109.82596494375001,57.0,83.0
399,109.66594996458333,110.12340455208334,60.0,78.0
400,110.11775696458334,110.36248575625001,55.0,77.0
401,110.56956396458334,110.82747046041668,55.0,77.0
402,110.34366046458334,110.84441322291667,60.0,77.0
403,109.89185346458333,111.17573835625001,48.0,84.0
404,110.79546746458334,111.20209376458334,64.0,86.0
405,111.02137096458334,111.29810275208334,55.0,83.0
406,111.24727446458334,111.56353936458333,60.0,84.0
407,111.47317796458334,111.74990975208334,55.0,84.0
408,112.15088846458333,112.58763523125,52.0,84.0
409,112.37679196458333,112.73258997708334,55.0,84.0
410,111.92498496458333,113.02174746458334,47.0,71.0
411,111.69908146458334,113.03863933958334,40.0,87.0
412,112.82842933958335,113.15688246458335,59.0,78.0
413,112.60269546458333,113.37459996458334,64.0,89.0
414,113.05365433958335,113.42152183958335,55.0,84.0
415,113.27887933958334,113.52474996458335,52.0,81.0
416,113.95373643541667,114.21866169375001,54.0,81.0
417,114.17761693541668,114.73705205208334,50.0,86.0
418,114.62537793541668,114.86892419791667,54.0,86.0
419,114.40149743541667,114.89864186458334,57.0,79.0
420,114.84849330208334,115.02679930208333,62.0,85.0
421,115.07137580208334,115.19210382291666,57.0,78.0
422,115.29425830208334,115.94620857708334,66.0,85.0
423,115.73880137708333,116.09806027708333,57.0,70.0
424,113.72932933958334,116.49805987708334,45.0,72.0
425,113.50410433958335,116.53139317708334,38.0,86.0
426,116.18324537708334,116.94991127708334,62.0,79.0
427,116.18324537708334,116.94991127708334,66.0,76.0
428,117.96558225208335,118.45625368125002,59.0,77.0
429,118.41334325208335,118.65588046041668,55.0,72.0
430,118.86110425208335,118.99916389375001,55.0,75.0
431,118.86110425208335,119.08498475208334,62.0,75.0
432,119.30886525208335,119.64841734375001,55.0,71.0
433,119.75662625208335,119.86856650208334,62.0,85.0
434,119.75662625208335,119.87602918541668,59.0,86.0
435,117.07213337708333,120.16893950625001,43.0,84.0
436,117.51782125208335,120.21558127708334,50.0,73.0
437,120.65214825208335,121.13349132708335,59.0,77.0
438,120.65214825208335,121.25289426041668,62.0,78.0
439,121.54767025208335,121.91893874791668,62.0,82.0
440,121.54767025208335,121.96931186041668,66.0,81.0
441,121.09990925208335,122.61856531041668,54.0,65.0
442,122.44319225208335,122.88908758125001,59.0,84.0
443,122.44319225208335,122.95438606041668,66.0,74.0
444,122.89095325208335,123.41334108541668,54.0,68.0
445,123.33871425208335,123.68572902708334,59.0,77.0
446,123.33871425208335,123.73050512708335,62.0,81.0
447,120.65214825208335,123.78274391041668,47.0,84.0
448,123.33871425208335,123.79393793541668,66.0,79.0
449,124.23423625208335,124.75475841458335,64.0,77.0
450,125.12975825208335,125.34057905625001,60.0,80.0
451,124.23423625208335,125.81632511875002,48.0,84.0
452,124.68199725208335,125.86669823125001,55.0,71.0
453,125.12975825208335,125.93013103958334,67.0,77.0
454,125.57751925208335,126.29953386458334,60.0,81.0
455,126.02528025208335,126.51222033958335,64.0,78.0
456,126.92080225208335,127.03460817291668,60.0,70.0
457,126.47304125208335,127.04207085625,55.0,65.0
458,126.92080225208335,127.06072756458335,64.0,84.0
459,126.02528025208335,127.07938427291668,48.0,77.0
460,126.92080225208335,127.09804098125001,67.0,70.0
461,127.81632425208335,128.41333891875001,62.0,77.0
462,127.81632425208335,128.46184636041667,57.0,70.0
463,128.71184625208335,129.24542811041667,66.0,84.0
464,129.15960725208333,129.48423397708333,57.0,85.0
465,128.26408525208333,129.65960703541668,45.0,60.0
466,127.81632425208335,129.71371148958335,38.0,85.0
467,129.60736825208335,130.07192028958335,62.0,85.0
468,130.05512925208333,130.46371116458334,57.0,72.0
469,130.50289025208335,130.90027813958335,62.0,80.0
470,130.95065125208333,131.11856162708335,45.0,81.0
471,131.39841225208335,131.94505380625,59.0,78.0
472,131.39841225208335,132.01408362708335,55.0,76.0
473,132.29393425208335,132.43199389375002,55.0,84.0
474,132.29393425208335,132.51221773958335,62.0,80.0
475,132.74169525208333,132.93572501875002,55.0,78.0
476,133.18945625208335,133.34617260208336,59.0,68.0
477,133.18945625208335,133.3536352854167,62.0,74.0
478,133.63721725208336,133.76967988125,55.0,73.0
479,131.84617325208336,134.15214240208334,50.0,68.0
480,134.08497825208335,134.30699308125003,55.0,89.0
481,134.08497825208335,134.36296320625001,62.0,86.0
482,131.39841225208335,134.4282616854167,43.0,84.0
483,134.30885875208335,134.48423181041667,50.0,84.0
484,134.53273925208333,134.7920674979167,55.0,86.0
485,134.75661975208334,134.96744055625,57.0,84.0
486,134.98050025208335,135.46382646458335,59.0,80.0
487,135.88049271458334,136.02501208958336,59.0,85.0
488,135.88049271458334,136.08319521458336,66.0,77.0
489,135.43004271458335,136.55053708958334,54.0,73.0
490,134.98050025208335,136.63124271458335,47.0,84.0
491,136.78139271458335,137.22996583958334,59.0,74.0
492,136.78139271458335,137.24685771458334,62.0,77.0
493,137.45706771458336,137.56217271458334,59.0,84.0
494,137.23184271458337,137.72546083958335,54.0,67.0
495,137.68229271458335,137.95696103958335,59.0,89.0
496,136.78139271458335,137.97013874375003,47.0,72.0
497,137.68229271458335,138.05108749791668,66.0,84.0
498,137.90801528125002,138.06050014375,54.0,83.0
499,138.13391878125,138.39747286458334,64.0,82.0
500,138.35982228125002,138.59890348541668,62.0,76.0
501,138.58572578125,139.05824060208334,64.0,84.0
502,138.58572578125,139.06200566041667,60.0,82.0
503,139.48933978125,139.57781865208335,64.0,84.0
504,139.48933978125,139.60229153125002,60.0,79.0
505,139.48933978125,139.62676441041668,67.0,80.0
506,138.58572578125,140.17269786875002,48.0,86.0
507,139.03753278125,140.22917374375,55.0,61.0
508,140.39295378125001,140.73557408958334,60.0,72.0
509,140.39295378125001,140.87864630625,67.0,75.0
510,141.07066428125,141.18738108958334,60.0,84.0
511,140.84476078125002,141.37939906458334,55.0,72.0
512,141.29656778125002,141.54129657291668,60.0,86.0
513,141.29656778125002,141.58835980208335,64.0,90.0
514,140.39295378125001,141.59400738958334,48.0,84.0
515,141.52247128125,141.65989591041668,55.0,80.0
516,141.74837478125002,141.85379641458334,60.0,85.0
517,142.20018178125002,142.37525699375,57.0,75.0
518,142.20018178125002,142.70093453958336,62.0,78.0
519,142.65198878125003,142.85906698958334,57.0,74.0
520,143.10379578125003,143.23369029375002,57.0,84.0
521,142.20018178125002,143.28828363958334,50.0,84.0
522,143.10379578125003,143.35793721875,62.0,85.0
523,143.10379578125003,143.42382573958335,66.0,85.0
524,143.55560278125,143.6309039479167,57.0,60.0
525,144.00740978125,144.39839346875002,62.0,77.0
526,144.00740978125,144.42654659375003,55.0,75.0
527,144.45845346875004,145.0400270229167,50.0,66.0
528,144.90890346875003,145.06614641458336,55.0,74.0
529,144.90890346875003,145.08107178125005,59.0,75.0
530,145.55308650208337,145.71539986458336,59.0,65.0
531,145.54748948958337,145.71539986458336,62.0,65.0
532,144.00740978125,145.74898193958336,43.0,82.0
533,145.35719106458336,145.83107145625004,55.0,67.0
534,145.80495206458338,145.9411460354167,59.0,74.0
535,145.80495206458338,145.96726542708336,62.0,74.0
536,145.79935505208337,146.15010116875004,43.0,71.0
537,146.25271306458336,146.43554880625004,55.0,68.0
538,146.2489817229167,146.43554880625004,59.0,68.0
539,146.24151903958338,146.56614576458338,62.0,68.0
540,146.2601757479167,146.67622034375003,43.0,68.0
541,146.91689188125002,147.00830975208336,43.0,75.0
542,146.92248889375003,147.08480225625004,67.0,100.0
543,147.14823506458336,147.37211556458337,59.0,78.0
544,147.14823506458336,147.38704093125003,62.0,78.0
545,147.13704103958338,147.41689166458337,43.0,75.0
546,147.14823506458336,147.4467423979167,55.0,75.0
547,148.49151806458337,148.62957770625005,55.0,80.0
548,148.49151806458337,148.6389060604167,59.0,76.0
549,148.49151806458337,148.6612941104167,62.0,81.0
550,148.04375706458336,149.2265923729167,50.0,72.0
551,147.59599606458337,149.22845804375004,43.0,87.0
552,148.93927906458336,149.4952489729167,55.0,85.0
553,149.38704006458337,149.70047276458337,59.0,75.0
554,149.38704006458337,149.7639055729167,62.0,80.0
555,150.28256206458337,150.4691291479167,59.0,84.0
556,150.28256206458337,150.4803231729167,62.0,80.0
557,149.38704006458337,151.0959945479167,43.0,84.0
558,149.83480106458336,151.11091991458338,50.0,70.0
559,150.95420356458337,151.25644223958338,55.0,80.0
560,151.17808406458337,151.4262182854167,62.0,78.0
561,151.17808406458337,151.42808395625005,59.0,79.0
562,151.17808406458337,151.4542033479167,67.0,79.0
563,151.62584506458336,151.7620390354167,55.0,84.0
564,151.84972556458337,151.92248672708337,55.0,74.0
565,151.40196456458338,151.9299494104167,50.0,75.0
566,151.17808406458337,152.18927765625003,43.0,80.0
567,151.84972556458337,152.3441283354167,59.0,89.0
568,151.84972556458337,152.37957608125004,62.0,85.0
569,152.07360606458337,152.3889044354167,50.0,84.0
570,152.29748656458338,152.57547151875005,55.0,86.0
571,152.52136706458336,152.6463670104167,59.0,84.0
572,152.96912806458337,152.98405343125003,62.0,66.0
573,152.96912806458337,153.5922621229167,64.0,74.0
574,152.96912806458337,153.66875462708336,59.0,78.0
575,153.86465006458337,154.09972458958336,59.0,85.0
576,153.41688906458336,154.16688873958336,47.0,72.0
577,152.96912806458337,154.52323186875003,40.0,86.0
578,154.31241106458336,154.67061986458336,47.0,75.0
579,153.86465006458337,154.7396496854167,67.0,81.0
580,154.76017206458337,155.0175683979167,64.0,76.0
581,154.76017206458337,155.0693434895834,59.0,71.0
582,155.20617766041673,155.68694636875006,47.0,70.0
583,155.64996416041672,155.87000830000005,52.0,88.0
584,154.76017206458337,155.9014431770834,40.0,82.0
585,155.64996416041672,155.9236325020834,55.0,91.0
586,155.8718574104167,155.9772567041667,47.0,88.0
587,156.0937506604167,156.38221188541672,52.0,88.0
588,156.31564391041672,156.56342470625006,55.0,89.0
589,156.53753716041672,157.0109094270834,57.0,79.0
590,157.42511016041672,157.53975500625006,60.0,85.0
591,157.42511016041672,157.54900055833338,57.0,80.0
592,157.42511016041672,157.55639700000006,64.0,86.0
593,156.53753716041672,158.19166430625006,45.0,85.0
594,156.9813236604167,158.19538453125006,52.0,72.0
595,158.09307834375005,158.40371713125006,57.0,78.0
596,158.31629184375007,158.81646200625008,64.0,84.0
597,158.76578638125005,159.08485513125007,57.0,81.0
598,158.99101138125008,159.13553075625006,60.0,85.0
599,159.21623638125007,159.26503513125007,60.0,65.0
600,158.54056138125006,159.46210700625008,52.0,77.0
601,159.21623638125007,159.46961450625005,69.0,89.0
602,158.31629184375007,159.52967450625007,45.0,81.0
603,159.44146138125006,159.72299263125007,64.0,85.0
604,159.66668638125006,159.89003450625006,60.0,85.0
605,159.89191138125005,160.07021450625007,57.0,81.0
606,160.11713638125008,160.22974888125006,57.0,61.0
607,160.11713638125008,160.63515388125006,62.0,79.0
608,161.01803638125006,161.23950763125006,57.0,86.0
609,161.01803638125006,161.56983763125007,66.0,86.0
610,160.56758638125007,161.62614388125007,45.0,71.0
611,160.11713638125008,161.68808075625006,38.0,88.0
612,161.46848638125007,162.01278013125005,57.0,86.0
613,161.91893638125006,162.41255450625007,62.0,85.0
614,162.59461138125008,162.69971638125006,57.0,85.0
615,162.36938638125005,162.89866513125006,45.0,72.0
616,162.81983638125007,163.02441575625008,66.0,91.0
617,162.81983638125007,163.02816950625007,62.0,93.0
618,162.81983638125007,163.05444575625006,57.0,85.0
619,161.91893638125006,163.13327450625007,38.0,87.0
620,163.04506138125006,163.19145763125007,45.0,84.0
621,163.27028638125006,163.46735825625007,62.0,86.0
622,163.49551138125005,163.74138200625006,60.0,86.0
623,163.72073638125008,164.20872388125008,59.0,85.0
624,164.62163638125006,164.86750700625007,55.0,83.0
625,164.62163638125006,165.37050950625007,62.0,82.0
626,164.17118638125007,165.37238638125007,50.0,62.0
627,163.72073638125008,165.38364763125006,43.0,84.0
628,165.29731138125007,165.46435325625006,55.0,78.0
629,165.52253638125006,165.74963825625008,55.0,70.0
630,165.52253638125006,166.02366200625008,59.0,84.0
631,166.19821138125008,166.30331638125006,55.0,78.0
632,165.97298638125005,166.51164950625008,50.0,72.0
633,166.42343638125007,166.65429200625007,55.0,86.0
634,166.42343638125007,166.72373638125006,59.0,91.0
635,165.52253638125006,166.76878138125005,43.0,85.0
636,166.64866138125007,166.79881138125006,50.0,82.0
637,166.42343638125007,166.81007263125008,62.0,86.0
638,166.87388638125006,167.04092825625006,55.0,86.0
639,167.32433638125008,167.75414075625008,55.0,74.0
640,167.32433638125008,167.84798450625007,52.0,79.0
641,168.22523638125006,168.32283388125006,55.0,84.0
642,168.22523638125006,168.36975575625007,59.0,84.0
643,167.77478638125007,168.88777325625006,47.0,62.0
644,167.32433638125008,168.91217263125006,40.0,86.0
645,168.67568638125007,169.20308825625006,52.0,85.0
646,169.12613638125006,169.60661638125006,55.0,78.0
647,169.12613638125006,169.61600075625006,64.0,84.0
648,169.57658638125005,169.75488950625007,52.0,68.0
649,169.57658638125005,170.07583513125007,47.0,65.0
650,170.02703638125007,170.22223138125005,52.0,91.0
651,170.02703638125007,170.23724638125006,55.0,90.0
652,169.12613638125006,170.29167575625007,40.0,86.0
653,170.25226138125007,170.39678075625005,47.0,83.0
654,170.47748638125006,170.62951325625008,40.0,86.0
655,170.92793638125008,171.12688513125008,55.0,81.0
656,170.92793638125008,171.38214013125005,60.0,78.0
657,171.37838638125007,171.56795075625007,55.0,79.0
658,170.92793638125008,171.97523263125007,48.0,87.0
659,171.82883638125006,171.99963200625007,55.0,84.0
660,171.82883638125006,172.10849075625006,60.0,87.0
661,171.82883638125006,172.35999200625005,64.0,89.0
662,172.27928638125007,172.78416575625008,55.0,85.0
663,172.72973638125006,173.19707825625005,60.0,77.0
664,173.18018638125005,173.31719825625007,55.0,69.0
665,172.72973638125006,173.72635700625005,48.0,80.0
666,173.63063638125007,173.83521575625008,55.0,89.0
667,173.85586138125007,173.95721263125006,48.0,86.0
668,173.63063638125007,174.08484013125008,64.0,91.0
669,174.08108638125006,174.33258763125008,62.0,85.0
670,174.30631138125005,174.55405888125006,60.0,84.0
671,174.53153638125008,174.94444888125005,62.0,79.0
672,175.43243638125006,175.60886263125008,57.0,84.0
673,174.98198638125007,176.07808138125006,45.0,68.0
674,174.53153638125008,176.08558888125006,38.0,88.0
675,175.43243638125006,176.40841138125006,66.0,85.0
676,175.88288638125007,176.49099388125006,57.0,84.0
677,176.33333638125006,176.82883138125007,62.0,78.0
678,176.78378638125008,177.23986700625005,45.0,56.0
679,176.33333638125006,177.29429638125006,38.0,86.0
680,177.23423638125007,177.36561763125007,57.0,80.0
681,177.23423638125007,177.64527200625008,66.0,76.0
682,177.23423638125007,177.66216388125008,62.0,83.0
683,177.68468638125006,177.80105263125006,57.0,84.0
684,178.1348562770834,178.6273933770834,59.0,73.0
685,178.1348562770834,178.6497814270834,55.0,75.0
686,179.0303782770834,179.39231841875008,62.0,77.0
687,179.0303782770834,179.63858696875008,59.0,77.0
688,179.47813927708341,179.86806448125006,55.0,64.0
689,178.58261727708341,180.1217957145834,50.0,60.0
690,178.1348562770834,181.45015334791674,43.0,80.0
691,179.9259002770834,181.61246671041673,59.0,68.0
692,179.9259002770834,181.6665711645834,62.0,71.0
693,181.7169442770834,182.0305450395834,59.0,75.0
694,181.7169442770834,182.0943587895834,62.0,80.0
695,182.6161300395834,182.8038175395834,59.0,84.0
696,182.6161300395834,182.8150787895834,62.0,80.0
697,181.7169442770834,183.4344475395834,43.0,84.0
698,182.1656800395834,183.4494625395834,50.0,70.0
699,183.2918050395834,183.5958587895834,55.0,80.0
700,183.5170300395834,183.7666544145834,62.0,78.0
701,183.5170300395834,183.7685312895834,59.0,79.0
702,183.5170300395834,183.7948075395834,67.0,79.0
703,183.9674800395834,184.1044919145834,55.0,84.0
704,184.1927050395834,184.2659031645834,55.0,74.0
705,183.7422550395834,184.2734106645834,50.0,75.0
706,183.5170300395834,184.5342962895834,43.0,80.0
707,184.1927050395834,184.6900769145834,59.0,89.0
708,184.1927050395834,184.7257375395834,62.0,85.0
709,184.4179300395834,184.7351219145834,50.0,84.0
710,184.6431550395834,184.9228094145834,55.0,86.0
711,184.8683800395834,184.9941306645834,59.0,84.0
712,185.3188300395834,185.3338450395834,62.0,66.0
713,185.3188300395834,185.9457062895834,64.0,74.0
714,185.3188300395834,186.0226581645834,59.0,78.0
715,186.2197300395834,186.4562162895834,59.0,85.0
716,185.7692800395834,186.5237837895834,47.0,72.0
717,185.3188300395834,186.8822669145834,40.0,86.0
718,186.67018003958339,187.0305400395834,47.0,75.0
719,186.2197300395834,187.0999844145834,67.0,81.0
720,187.1206300395834,187.3796387895834,64.0,76.0
721,187.1206300395834,187.4321912895834,59.0,71.0
722,187.5710800395834,188.0590675395834,47.0,70.0
723,188.0215300395834,188.2448781645834,52.0,88.0
724,187.1206300395834,188.2767850395834,40.0,82.0
725,188.0215300395834,188.2993075395834,55.0,91.0
726,188.2467550395834,188.3537369145834,47.0,88.0
727,188.4719800395834,188.7647725395834,52.0,88.0
728,188.6972050395834,188.9487062895834,55.0,89.0
729,188.9224300395834,189.4029100395834,57.0,79.0
730,189.8233300395834,189.9396962895834,60.0,85.0
731,189.8233300395834,189.9490806645834,57.0,80.0
732,189.8233300395834,189.9565881645834,64.0,86.0
733,188.9224300395834,190.5984794145834,45.0,85.0
734,189.3728800395834,190.6022331645834,52.0,72.0
735,190.4990050395834,190.81244316458339,57.0,78.0
736,190.7242300395834,191.2253556645834,64.0,84.0
737,191.1746800395834,191.4937487895834,57.0,81.0
738,191.3999050395834,191.5444244145834,60.0,85.0
739,191.6251300395834,191.67392878958339,60.0,65.0
740,190.9494550395834,191.8710006645834,52.0,77.0
741,191.6251300395834,191.8785081645834,69.0,89.0
742,190.7242300395834,191.9385681645834,45.0,81.0
743,191.8503550395834,192.1318862895834,64.0,85.0
744,192.0755800395834,192.2989281645834,60.0,85.0
745,192.3008050395834,192.4791081645834,57.0,81.0
746,192.5260300395834,192.6386425395834,57.0,61.0
747,192.5260300395834,193.0440475395834,62.0,79.0
748,193.42688808333338,193.64670905416673,57.0,86.0
749,193.42688808333338,193.9745776208334,66.0,86.0
750,192.9764800395834,194.0304643083334,45.0,71.0
751,192.5260300395834,194.09193966458338,38.0,88.0
752,193.87398158333338,194.41421956250005,57.0,86.0
753,194.3210750833334,194.81101504375005,62.0,85.0
754,194.9917153333334,195.09603715000006,57.0,85.0
755,194.7681685833334,195.29350344583338,45.0,72.0
756,195.21526208333339,195.41831704791673,66.0,91.0
757,195.21526208333339,195.42204282708337,62.0,93.0
758,195.21526208333339,195.44812328125005,57.0,85.0
759,194.3210750833334,195.52636464375004,38.0,87.0
760,195.43880883333338,195.58411422083338,45.0,84.0
761,195.66235558333338,195.85795898958338,62.0,86.0
762,195.88590233333338,196.12994086875005,60.0,86.0
763,196.10944908333337,196.59380037500006,59.0,85.0
764,197.0036360833334,197.24767461875007,55.0,83.0
765,197.0036360833334,197.74692902708338,62.0,82.0
766,196.5565425833334,197.74879191666673,50.0,62.0
767,196.10944908333337,197.75996925416672,43.0,84.0
768,197.67427633333338,197.84007350625006,55.0,78.0
769,197.89782308333338,198.12323272291673,55.0,70.0
770,197.89782308333338,198.3952146020834,59.0,84.0
771,198.5684633333334,198.67278515000007,55.0,78.0
772,198.3449165833334,198.87956589375005,50.0,72.0
773,198.7920100833334,199.02114550208339,55.0,86.0
774,198.7920100833334,199.09007241666671,59.0,91.0
775,197.89782308333338,199.13478176666672,43.0,85.0
776,199.0155568333334,199.16458800000007,50.0,82.0
777,198.7920100833334,199.17576533750005,62.0,86.0
778,199.2391035833334,199.40490075625004,55.0,86.0
779,199.68619708333338,200.11279879791672,55.0,74.0
780,199.68619708333338,200.20594327708338,52.0,79.0
781,200.5803840833334,200.67725434166672,55.0,84.0
782,200.5803840833334,200.72382658125005,59.0,84.0
783,200.13329058333338,201.23798410625005,47.0,62.0
784,199.68619708333338,201.26220167083338,40.0,86.0
785,201.0274775833334,201.55094955625006,52.0,85.0
786,201.4745710833334,201.95147081666673,55.0,78.0
787,201.4745710833334,201.9607852645834,64.0,84.0
788,201.92166458333338,202.09863909375005,52.0,68.0
789,201.92166458333338,202.41719321250005,47.0,65.0
790,202.36875808333338,202.56249860000005,52.0,91.0
791,202.36875808333338,202.5774017166667,55.0,90.0
792,201.4745710833334,202.63142551458338,40.0,86.0
793,202.5923048333334,202.73574733125005,47.0,83.0
794,202.8158515833334,202.9667456395834,40.0,86.0
795,203.2629450833334,203.46041137916671,55.0,81.0
796,203.2629450833334,203.71376436250006,60.0,78.0
797,203.7100385833334,203.89819043125004,55.0,79.0
798,203.2629450833334,204.30243747083338,48.0,87.0
799,204.15713208333338,204.3266550354167,55.0,84.0
800,204.15713208333338,204.43470263125005,60.0,87.0
801,204.15713208333338,204.68432983541672,64.0,89.0
802,204.6042255833334,205.10534288125007,55.0,85.0
803,205.0513190833334,205.5151785895834,60.0,77.0
804,205.4984125833334,205.63440352291673,55.0,69.0
805,205.0513190833334,206.0405134520834,48.0,80.0
806,205.94550608333338,206.14856104791673,55.0,89.0
807,206.16905283333338,206.26964887083338,48.0,86.0
808,205.94550608333338,206.39632536250005,64.0,91.0
809,206.39259958333338,206.64222678750005,62.0,85.0
810,206.61614633333338,206.86204775833338,60.0,84.0
811,206.8396930833334,207.24952879166673,62.0,79.0
812,207.7338800833334,207.9089917041667,57.0,84.0
813,207.2867865833334,208.37471410000006,45.0,68.0
814,206.8396930833334,208.38216565833338,38.0,88.0
815,207.7338800833334,208.70258266666673,66.0,85.0
816,208.18097358333338,208.7845498083334,57.0,84.0
817,208.62806708333338,209.11986993333338,62.0,78.0
818,209.0751605833334,209.5278427520834,45.0,56.0
819,208.62806708333338,209.58186655000006,38.0,86.0
820,209.5222540833334,209.6526563541667,57.0,80.0
821,209.5222540833334,209.93022690208338,66.0,76.0
822,209.5222540833334,209.94699290833339,62.0,83.0
823,209.9693475833334,210.08484673750004,57.0,84.0
824,210.8411799083334,211.47269947708338,50.0,77.0
825,210.39967507708337,212.0259776833334,43.0,87.0
826,211.27895896041673,212.10980771458338,62.0,81.0
827,211.74468135625006,212.14147683750005,50.0,69.0
828,212.05764680625006,212.84751198958338,55.0,73.0
829,212.6910292645834,213.3579437354167,50.0,61.0
830,212.12471083125007,213.3784355208334,59.0,75.0
831,213.15302588125004,213.41941909166673,55.0,71.0
832,212.18432329791673,213.50511201250006,43.0,77.0
833,212.21040375208338,213.53678113541673,62.0,72.0
834,212.27374199791672,213.5460955833334,67.0,71.0
835,213.87396415000006,214.1235913541667,55.0,68.0
836,214.0378984333334,214.17947804166673,36.0,81.0
837,213.97456018750006,214.52411261458337,60.0,78.0
838,214.0602531083334,214.76256248125006,64.0,84.0
839,214.47567748541672,215.52448432083338,48.0,80.0
840,214.96189166666673,215.54683899583338,55.0,76.0
841,215.4350656208334,217.74504870416672,60.0,88.0
842,215.97157782083337,218.02634503125006,64.0,85.0
843,218.64109859375006,219.27261816250007,50.0,84.0
844,219.22977170208338,219.34527085625007,57.0,85.0
845,218.1846906458334,219.40302043333338,45.0,72.0
846,217.69102490625005,219.48312468541673,38.0,85.0
847,219.94325841250006,220.73498648541673,57.0,69.0
848,219.9134521791667,220.92872700208338,45.0,70.0
849,219.7271632208334,220.97529924166673,38.0,76.0
850,220.02522555416672,221.39258650833338,62.0,71.0
851,221.29012758125006,221.39258650833338,62.0,76.0
852,220.09601535833337,221.40748962500007,66.0,71.0
853,220.22269185000005,221.4335700791667,69.0,66.0
854,221.2361037833334,221.90488114375006,55.0,69.0
855,221.28453891250007,222.25324149583338,59.0,71.0
856,222.18804036041672,223.09899336666672,55.0,81.0
857,222.64072252916674,223.17350895000004,62.0,79.0
858,223.08967891875005,223.7062953708334,67.0,83.0
859,221.69623751041672,224.17760643541672,50.0,65.0
860,223.97827725000005,224.20182400000004,59.0,78.0
861,221.28267602291672,224.20741266875007,43.0,84.0
862,223.98386591875004,224.27447669375005,62.0,77.0
863,224.74206197916672,224.97678606666673,59.0,73.0
864,224.7681424333334,225.76292547083338,62.0,80.0
865,224.8035373354167,225.77782858750004,66.0,72.0
866,225.20592148541672,225.8914648520834,54.0,67.0
867,225.68282121875006,226.2882603333334,59.0,84.0
868,226.47268640208338,226.60308867291673,59.0,64.0
869,226.53602464791672,226.65524958125005,62.0,73.0
870,226.58259688750005,226.70368471041672,66.0,67.0
871,226.66642691875006,227.02410171875005,71.0,85.0
872,224.77745688125006,228.09898900833338,47.0,85.0
873,228.44734936041672,229.27260944583338,64.0,84.0
874,228.42685757500004,229.40301171666673,60.0,69.0
875,228.91866042500004,229.61165535000006,55.0,71.0
876,228.46225247708338,229.6526389208334,48.0,78.0
877,229.40301171666673,229.8985403458334,67.0,85.0
878,229.93393524791674,230.12394998541671,60.0,89.0
879,230.33073072916673,230.59526105000006,60.0,71.0
880,230.41083498125005,231.29943331250007,63.0,76.0
881,230.50584235000005,231.37581178541672,67.0,77.0
882,231.37022311666672,231.66828545000004,60.0,56.0
883,231.51739139375005,231.69995457291674,63.0,74.0
884,230.42760098750006,231.95144466666673,36.0,80.0
885,231.58072963958338,232.22528943541673,67.0,75.0
886,231.67946278750006,232.9071070229167,72.0,82.0
887,233.00211439166674,234.08817901875005,74.0,85.0
888,234.0565098958334,234.2241699583334,71.0,70.0
889,234.3247659958334,234.52782096041673,66.0,76.0
890,234.5315467395834,234.70665836041672,69.0,74.0
891,234.72528725625006,234.92461644166673,64.0,77.0
892,234.89853598750005,235.12580851666672,66.0,71.0
893,235.12208273750005,235.32141192291672,62.0,68.0
894,235.63437737291673,235.93802837500004,59.0,66.0
895,233.67834331041672,236.45777456875004,50.0,55.0
896,232.96485660000005,236.55091904791672,43.0,80.0
897,237.21597062916672,239.63772708750005,55.0,59.0
898,237.32588111458338,239.68616221666673,62.0,49.0
899,237.0464476770834,239.7532262416667,43.0,48.0
900,237.15076949375006,239.75695202083338,50.0,51.0
