,start,end,pitch,velocity
0,33.274966725000006,33.69996630000001,77.0,103.0
1,33.703537725000004,34.128537300000005,75.0,91.0
2,34.132108725,34.5571083,73.0,87.0
3,34.56067972500001,34.9856793,77.0,93.0
4,34.989250725000005,35.942821200000004,75.0,90.0
5,36.274963725000006,36.523177762500005,73.0,96.0
6,36.489249225,36.68746331250001,72.0,85.0
7,36.703534725000004,37.1624628375,70.0,87.0
8,37.132105725,37.59281955,72.0,91.0
9,37.56067672500001,38.03567625,73.0,100.0
10,37.989247725000006,38.43389013750001,75.0,98.0
11,38.417818725000004,39.723174562500006,77.0,96.0
12,40.132102725,40.51603091250001,70.0,93.0
13,40.56067372500001,41.007101850000005,72.0,90.0
14,40.989244725000006,41.444601412500006,73.0,74.0
15,41.417815725000004,41.837458162500006,75.0,90.0
16,41.846386725,42.66245733750001,68.0,84.0
17,42.703528725000005,43.21781392500001,77.0,90.0
18,43.346385225000006,43.619599237500005,77.0,86.0
19,43.56067072500001,44.0231702625,75.0,92.0
20,43.98924172500001,44.40888416250001,73.0,84.0
21,44.417812725000005,44.86424085000001,70.0,75.0
22,44.846383725,45.31959753750001,73.0,98.0
23,45.27495472500001,46.7553103875,75.0,101.0
24,46.98923872500001,47.37138120000001,77.0,92.0
25,47.417809725000005,47.83209502500001,75.0,93.0
26,47.846380725,48.271380300000004,73.0,87.0
27,48.27495172500001,48.728522700000006,77.0,91.0
28,48.703522725000006,49.92137865000001,75.0,95.0
29,49.98923572500001,50.224949775000006,73.0,89.0
30,50.20352122500001,50.41423530000001,72.0,89.0
31,50.417806725000005,50.8338777375,70.0,81.0
32,50.846377725,51.31244868750001,72.0,72.0
33,51.27494872500001,51.74280540000001,73.0,89.0
34,51.70351972500001,52.176733537500006,75.0,90.0
35,52.132090725000005,53.50173221250001,77.0,90.0
36,53.846374725000004,54.24816003750001,70.0,91.0
37,54.27494572500001,54.71780242500001,72.0,87.0
38,54.70351672500001,55.069587787500005,73.0,87.0
39,55.132087725000005,55.57673013750001,82.0,90.0
40,55.56065872500001,56.42137215000001,80.0,98.0
41,56.417800725000006,56.92494307500001,73.0,98.0
42,57.06065722500001,57.301728412500005,73.0,87.0
43,57.27494272500001,57.69815658750001,78.0,87.0
44,57.70351372500001,58.11065617500001,77.0,77.0
45,58.132084725000006,58.53565575000001,78.0,96.0
46,58.56065572500001,59.00886956250001,82.0,93.0
47,58.98922672500001,59.59458326250001,80.0,98.0
48,59.846368725000005,60.30351112500001,77.0,109.0
49,60.27493972500001,60.67493932500001,75.0,98.0
50,60.70351072500001,61.53208132500001,73.0,90.0
51,61.56065272500001,61.967795175000006,77.0,100.0
52,61.98922372500001,62.41779472500001,82.0,93.0
53,62.41779472500001,62.99993700000001,80.0,100.0
54,63.27493672500001,63.63386493750001,77.0,100.0
55,63.70350772500001,64.1445787125,75.0,101.0
56,64.13207872500001,64.55886401250001,73.0,97.0
57,64.560649725,64.9856493,70.0,91.0
58,64.98922072500001,65.41957743750001,73.0,99.0
59,65.41779172500001,65.88029126250001,75.0,97.0
60,65.846362725,66.37136220000001,77.0,103.0
61,66.703504725,67.02136155000001,77.0,100.0
62,67.132075725,67.51600391250001,77.0,96.0
63,67.56064672500001,67.8481464375,84.0,103.0
64,67.989217725,68.28207457500001,84.0,96.0
65,68.41778872500001,68.83564545000002,84.0,93.0
66,68.84635972500001,69.260645025,80.0,99.0
67,69.274930725,69.74993025,73.0,99.0
68,70.13207272500001,70.596357975,73.0,109.0
69,70.560643725,70.97850045000001,72.0,103.0
70,70.98921472500001,71.432071425,70.0,93.0
71,71.41778572500002,71.857071,72.0,97.0
72,71.846356725,72.28385628750002,73.0,96.0
73,72.27492772500001,72.69992730000001,77.0,90.0
74,72.703498725,73.142784,75.0,94.0
75,73.56064072500001,74.02492597500002,77.0,101.0
76,73.989211725,74.4195684375,75.0,99.0
77,74.41778272500001,75.25171046250001,73.0,89.0
78,75.274924725,75.69278145000001,77.0,99.0
79,75.70349572500001,76.14813813750001,82.0,93.0
80,76.13206672500002,76.65349477500001,80.0,100.0
81,76.98920872500001,77.47492252500001,77.0,97.0
82,77.41777972500002,77.857065,80.0,98.0
83,77.84635072500001,78.1481361375,82.0,103.0
84,78.27492172500001,78.68206417500001,82.0,103.0
85,78.703492725,79.117778025,80.0,95.0
86,79.13206372500001,79.553491875,82.0,100.0
87,79.56063472500001,80.03206282500001,77.0,96.0
88,80.41777672500001,80.72134785000002,77.0,96.0
89,80.84634772500002,81.17849025000001,77.0,87.0
90,81.274918725,81.52134705000002,84.0,105.0
91,81.70348972500001,81.96777517500001,84.0,97.0
92,82.13206072500002,82.36956048750001,84.0,99.0
93,82.56063172500001,82.80884576250001,80.0,95.0
94,82.98920272500001,83.41598801250001,73.0,97.0
95,83.84634472500001,84.28205857500001,73.0,109.0
96,84.27491572500001,84.6981295875,72.0,100.0
97,84.703486725,85.11241488750001,70.0,87.0
98,85.13205772500001,85.51062877500001,72.0,96.0
99,85.56062872500002,85.95348547500001,73.0,95.0
100,85.989199725,86.40169931250001,77.0,93.0
101,86.41777072500001,86.86241313750001,75.0,99.0
102,87.27491272500001,88.04991195000001,77.0,106.0
103,88.13205472500002,90.69990930000002,73.0,114.0
104,115.56059872500002,115.98559830000002,77.0,103.0
105,115.98916972500001,116.41416930000001,75.0,91.0
106,116.41774072500002,116.84274030000002,73.0,87.0
107,116.84631172500002,117.27131130000002,77.0,93.0
108,117.27488272500001,118.22845320000002,75.0,90.0
109,118.56059572500001,118.80702405000001,73.0,96.0
110,118.77488122500002,118.97309531250002,72.0,85.0
111,118.98916672500002,119.44809483750002,70.0,87.0
112,119.41773772500001,119.87845155000002,72.0,91.0
113,119.84630872500001,120.32130825000002,73.0,100.0
114,120.27487972500002,120.71952213750002,75.0,98.0
115,120.70345072500001,122.00880656250001,77.0,96.0
116,122.41773472500002,122.80166291250002,70.0,93.0
117,122.84630572500002,123.29273385000002,72.0,90.0
118,123.27487672500001,123.73023341250001,73.0,74.0
119,123.70344772500002,124.12487587500001,75.0,90.0
120,124.13201872500002,124.94808933750002,68.0,84.0
121,124.98916072500002,125.50344592500002,77.0,90.0
122,125.63201722500001,125.90701695000001,77.0,86.0
123,125.84630272500002,126.30880226250002,75.0,92.0
124,126.27487372500002,126.69630187500002,73.0,84.0
125,126.70344472500001,127.14987285000002,70.0,75.0
126,127.13201572500002,127.60344382500001,73.0,98.0
127,127.56058672500002,129.04094238750002,75.0,101.0
128,129.27487072500003,129.6587989125,77.0,92.0
129,129.703441725,130.11772702500002,75.0,93.0
130,130.132012725,130.55701230000003,73.0,87.0
131,130.56058372500001,131.0141547,77.0,91.0
132,130.98915472500002,132.20701065000003,75.0,95.0
133,132.274867725,132.51058177500002,73.0,89.0
134,132.48915322500002,132.70165301250003,72.0,89.0
135,132.703438725,133.1195097375,70.0,81.0
136,133.13200972500002,133.59808068750002,72.0,72.0
137,133.56058072500002,134.02843740000003,73.0,89.0
138,133.98915172500003,134.4623655375,75.0,90.0
139,134.417722725,135.78736421250002,77.0,90.0
140,136.13200672500002,136.5337920375,70.0,91.0
141,136.56057772500003,137.00343442500002,72.0,87.0
142,136.989148725,137.3570055,73.0,87.0
143,137.417719725,137.8623621375,82.0,90.0
144,137.84629072500002,138.7052184375,80.0,98.0
145,138.70343272500003,139.210575075,73.0,98.0
146,139.34628922500002,139.5873604125,73.0,87.0
147,139.560574725,139.98378858750002,78.0,87.0
148,139.98914572500001,140.39628817500002,77.0,77.0
149,140.41771672500002,140.82128775,78.0,96.0
150,140.84628772500002,141.29450156250002,82.0,93.0
151,141.27485872500003,141.87842955000002,80.0,98.0
152,142.132000725,142.58914312500002,77.0,109.0
153,142.56057172500002,142.96057132500002,75.0,98.0
154,142.98914272500002,143.81771332500003,73.0,90.0
155,143.84628472500003,144.253427175,77.0,100.0
156,144.274855725,144.70521243750002,82.0,93.0
157,144.703426725,145.285569,80.0,100.0
158,145.56056872500002,145.94271120000002,77.0,100.0
159,145.98913972500003,146.4302107125,75.0,101.0
160,146.417710725,146.84449601250003,73.0,97.0
161,146.846281725,147.27128130000003,70.0,91.0
162,147.27485272500002,147.70520943750003,73.0,99.0
163,147.70342372500002,148.16592326250003,75.0,97.0
164,148.13199472500003,148.6569942,77.0,103.0
165,148.989136725,149.30699355000002,77.0,100.0
166,149.417707725,149.80163591250002,77.0,96.0
167,149.84627872500002,150.1337784375,84.0,103.0
168,150.27484972500002,150.56770657500002,84.0,96.0
169,150.70342072500003,151.12127745,84.0,93.0
170,151.131991725,151.54627702500002,80.0,99.0
171,151.560562725,152.03377653750002,73.0,99.0
172,152.41770472500002,152.881989975,73.0,109.0
173,152.84627572500003,153.26413245000003,72.0,103.0
174,153.27484672500003,153.71591771250002,70.0,93.0
175,153.703417725,154.142703,72.0,97.0
176,154.131988725,154.5694882875,73.0,96.0
177,154.56055972500002,154.98555930000003,77.0,90.0
178,154.98913072500002,155.4302017125,75.0,94.0
179,155.84627272500003,156.31055797500002,77.0,101.0
180,156.274843725,156.70698615000003,75.0,99.0
181,156.70341472500002,157.53912817500003,73.0,89.0
182,157.56055672500003,157.97662773750002,77.0,99.0
183,157.98912772500003,158.43377013750003,82.0,93.0
184,158.417698725,158.94091248750001,80.0,100.0
185,159.27484072500002,159.75876881250002,77.0,97.0
186,159.70341172500002,160.14269700000003,80.0,98.0
187,160.13198272500003,160.4337681375,82.0,103.0
188,160.56055372500003,160.96769617500001,82.0,103.0
189,160.989124725,161.40341002500003,80.0,95.0
190,161.41769572500002,161.839123875,82.0,100.0
191,161.84626672500002,162.31769482500002,77.0,96.0
192,162.70340872500003,163.00697985000002,77.0,96.0
193,163.131979725,163.46233653750002,77.0,87.0
194,163.560550725,163.80697905000002,84.0,105.0
195,163.98912172500002,164.25162146250003,84.0,97.0
196,164.41769272500002,164.65519248750002,84.0,99.0
197,164.84626372500003,165.09447776250002,80.0,95.0
198,165.27483472500003,165.69983430000002,73.0,97.0
199,166.13197672500002,166.56769057500003,73.0,109.0
200,166.56054772500002,166.98197587500002,72.0,100.0
201,166.98911872500003,167.39804688750002,70.0,87.0
202,167.41768972500003,167.79626077500004,72.0,96.0
203,167.84626072500004,168.2409031875,73.0,95.0
204,168.274831725,168.68733131250002,77.0,93.0
205,168.70340272500002,169.14804513750002,75.0,99.0
206,169.56054472500003,169.98911572500003,77.0,100.0
207,169.56054472500003,169.98911572500003,77.0,106.0
208,169.56054472500003,169.98911572500003,77.0,109.0
209,169.98911572500003,170.38911532500003,75.0,98.0
210,170.417686725,171.28197157500003,73.0,90.0
211,170.417686725,171.28197157500003,73.0,100.0
212,170.417686725,171.28197157500003,73.0,114.0
213,171.27482872500002,171.68197117500003,77.0,100.0
214,171.70339972500003,172.1337564375,82.0,93.0
215,172.13197072500003,172.71411300000003,80.0,100.0
216,172.989112725,173.40161231250002,77.0,100.0
217,173.41768372500002,173.83375473750002,75.0,101.0
218,173.84625472500002,174.27482572500003,73.0,97.0
219,174.27482572500003,174.68911102500002,70.0,91.0
220,174.70339672500003,175.13018201250003,73.0,99.0
221,175.131967725,175.61946723750003,75.0,97.0
222,175.56053872500001,176.11232388750003,77.0,103.0
223,176.41768072500003,176.7373232625,77.0,100.0
224,176.84625172500003,177.27125130000002,77.0,96.0
225,177.27482272500004,177.60517953750002,84.0,103.0
226,177.703393725,178.02482197500004,84.0,96.0
227,178.13196472500002,178.5801785625,84.0,93.0
228,178.56053572500002,179.01053527500002,80.0,99.0
229,178.98910672500003,179.48910622500003,73.0,99.0
230,179.846248725,180.31053397500003,73.0,109.0
231,180.27481972500001,180.69267645000002,72.0,103.0
232,180.70339072500002,181.14446171250003,70.0,93.0
233,181.13196172500002,181.57124700000003,72.0,97.0
234,181.56053272500003,181.99803228750002,73.0,96.0
235,181.98910372500004,182.44981755000003,77.0,90.0
236,182.417674725,182.85874571250002,75.0,94.0
237,183.27481672500002,183.739101975,77.0,101.0
238,183.70338772500003,184.13553015000002,75.0,99.0
239,184.13195872500003,184.96767217500002,73.0,89.0
240,184.98910072500001,185.4051717375,77.0,99.0
241,185.41767172500002,185.86231413750002,82.0,93.0
242,185.84624272500002,186.36945648750003,80.0,100.0
243,186.70338472500003,187.1873128125,77.0,97.0
244,187.131955725,187.57124100000001,80.0,98.0
245,187.56052672500002,187.86231213750003,82.0,103.0
246,187.98909772500002,188.39624017500003,82.0,103.0
247,188.41766872500003,188.83195402500002,80.0,95.0
248,188.84623972500003,189.26766787500003,82.0,100.0
249,189.27481072500004,189.74623882500003,77.0,96.0
250,190.13195272500002,190.43552385000004,77.0,96.0
251,190.56052372500002,190.89088053750004,77.0,87.0
252,190.98909472500003,191.23552305,84.0,105.0
253,191.41766572500003,191.6801654625,84.0,97.0
254,191.846236725,192.08373648750003,84.0,99.0
255,192.27480772500002,192.52302176250004,80.0,95.0
256,192.70337872500002,193.12837830000004,73.0,97.0
257,193.56052072500003,193.99623457500002,73.0,109.0
258,193.98909172500004,194.41051987500003,72.0,100.0
259,194.417662725,194.82659088750003,70.0,87.0
260,194.84623372500002,195.22480477500002,72.0,96.0
261,195.27480472500002,195.66944718750003,73.0,95.0
262,195.70337572500003,196.11587531250004,77.0,93.0
263,196.13194672500003,196.57658913750004,75.0,99.0
264,196.98908872500002,197.43908827500002,77.0,105.0
265,197.41765972500002,197.85515928750002,75.0,94.0
266,197.84623072500003,198.69087273750003,73.0,92.0
267,198.70337272500004,199.10515803750002,77.0,98.0
268,199.131943725,199.57301471250003,82.0,90.0
269,199.56051472500002,200.10515703750002,80.0,96.0
270,200.41765672500003,200.86765627500003,77.0,99.0
271,200.84622772500003,201.28729871250002,75.0,91.0
272,201.27479872500004,201.64265550000002,73.0,94.0
273,201.70336972500002,202.16765497500003,70.0,91.0
274,202.13194072500002,202.57301171250003,73.0,103.0
275,202.56051172500003,203.04443981250003,75.0,98.0
276,202.98908272500003,203.50872506250002,77.0,101.0
277,203.846224725,204.16051012500003,77.0,97.0
278,204.27479572500002,204.6569382,77.0,92.0
279,204.70336672500002,204.98193787500003,84.0,101.0
280,205.13193772500003,205.42479457500002,84.0,96.0
281,205.56050872500003,205.99979400000004,84.0,97.0
282,205.98907972500004,206.42300786250001,80.0,96.0
283,206.41765072500002,206.91586451250004,73.0,95.0
284,207.27479272500003,207.7444351125,73.0,101.0
285,207.70336372500003,208.09622047500002,72.0,98.0
286,208.13193472500004,208.60157711250002,70.0,91.0
287,208.56050572500004,209.02121955000004,72.0,94.0
288,208.98907672500002,209.39979060000002,73.0,97.0
289,209.41764772500002,209.90336152500004,77.0,91.0
290,209.84621872500003,210.49621807500003,75.0,100.0
291,210.70336072500004,211.15514598750002,77.0,105.0
292,211.13193172500002,211.56943128750004,75.0,94.0
293,211.56050272500002,212.40514473750002,73.0,92.0
294,212.41764472500003,212.81764432500003,77.0,98.0
295,212.84621572500004,213.28728671250002,82.0,90.0
296,213.27478672500004,213.81764332500003,80.0,96.0
297,214.13192872500002,214.58014256250001,77.0,99.0
298,214.56049972500003,215.00157071250004,75.0,91.0
299,214.98907072500003,215.35514178750003,73.0,94.0
300,215.41764172500004,215.88192697500003,70.0,91.0
301,215.84621272500002,216.28906942500004,73.0,103.0
302,216.27478372500002,216.76049752500003,75.0,98.0
303,216.70335472500003,217.22299706250004,77.0,101.0
304,217.56049672500004,217.87478212500002,77.0,97.0
305,217.98906772500004,218.37121020000004,77.0,92.0
306,218.41763872500002,218.69442416250004,84.0,101.0
307,218.84620972500002,219.13728086250003,84.0,96.0
308,219.27478072500003,219.71406600000003,84.0,97.0
309,219.70335172500003,220.13727986250004,80.0,96.0
310,220.13192272500004,220.63013651250003,73.0,95.0
311,220.98906472500002,221.45870711250004,73.0,101.0
312,221.41763572500003,221.81049247500002,72.0,98.0
313,221.84620672500003,222.31406340000004,70.0,91.0
314,222.27477772500004,222.73549155000003,72.0,94.0
315,222.70334872500004,223.11584831250002,73.0,97.0
316,223.13191972500002,223.61941923750004,77.0,91.0
317,223.56049072500002,224.51227548750003,75.0,100.0
318,224.41763272500003,225.23906047500003,77.0,111.0
319,225.27477472500004,228.01227198750004,73.0,100.0
