,start,end,pitch,velocity
0,5.846422725000001,7.037492962500001,61.0,49.0
1,6.703564725000001,7.101778612500001,73.0,44.0
2,6.274993725000001,7.121421450000001,68.0,38.0
3,6.703564725000001,7.157135700000001,80.0,49.0
4,7.560706725000001,8.412491587500002,60.0,44.0
5,7.989277725000001,8.507134350000001,68.0,41.0
6,8.417848725,8.926776787500001,72.0,49.0
7,10.132132725000002,10.3339182375,78.0,55.0
8,9.703561725000002,10.366061062500002,73.0,41.0
9,9.274990725000002,10.373203912500001,66.0,49.0
10,10.989274725000001,11.592845550000002,80.0,49.0
11,10.989274725000001,11.982130875000001,61.0,49.0
12,11.846416725000001,12.032130825000001,73.0,54.0
13,11.417845725000001,12.053559375,68.0,39.0
14,11.846416725000001,12.069630787500001,80.0,48.0
15,12.703558725000002,13.841057587500002,53.0,48.0
16,13.132129725000002,13.855343287500002,60.0,29.0
17,13.560700725000002,13.944628912500002,65.0,49.0
18,15.274984725000001,15.410698875000001,70.0,53.0
19,14.846413725000001,15.455341687500002,65.0,46.0
20,14.417842725000002,15.514270200000002,58.0,61.0
21,16.132126725000003,17.251768462500003,54.0,51.0
22,16.989268725000002,17.294625562500002,66.0,55.0
23,16.560697725,17.3374826625,61.0,51.0
24,18.489267225000003,18.757124100000002,70.0,72.0
25,18.274981725000004,18.882123975000003,68.0,66.0
26,18.703552725,18.9089096625,72.0,66.0
27,18.060696225,19.076766637500004,63.0,59.0
28,18.917838225000004,19.110695175000004,73.0,82.0
29,17.846410725000002,19.126766587500004,56.0,70.0
30,19.132123725000003,19.346409225000002,75.0,66.0
31,19.346409225000002,19.608908962500003,78.0,64.0
32,19.560694725,19.889265825000003,73.0,75.0
33,19.560694725,19.951765762500003,68.0,66.0
34,19.989265725000003,20.353551075000002,65.0,63.0
35,19.989265725000003,20.378551050000002,72.0,64.0
36,19.989265725000003,20.455336687500004,56.0,56.0
37,20.417836725000004,20.807122050000004,61.0,56.0
38,20.417836725000004,20.807122050000004,73.0,78.0
39,19.560694725,20.844622012500004,49.0,61.0
40,20.417836725000004,20.844622012500004,68.0,62.0
41,20.846407725000002,20.982121875000004,56.0,66.0
42,21.274978725000004,21.607121250000002,72.0,28.0
43,21.274978725000004,21.676764037500003,75.0,72.0
44,21.274978725000004,21.6874783125,41.0,60.0
45,21.274978725000004,21.708906862500005,68.0,69.0
46,21.703549725000002,22.142835,63.0,47.0
47,21.703549725000002,22.151763562500005,53.0,60.0
48,22.132120725000004,22.512477487500004,68.0,72.0
49,22.132120725000004,22.5481917375,72.0,69.0
50,22.132120725000004,22.6571202,56.0,60.0
51,22.560691725,22.662477337500004,60.0,59.0
52,22.560691725,22.962477037500005,63.0,62.0
53,22.989262725000003,23.332119525000003,70.0,60.0
54,22.989262725000003,23.366048062500003,66.0,63.0
55,22.989262725000003,23.428548000000003,42.0,70.0
56,23.417833725000005,23.683904887500002,61.0,64.0
57,23.417833725000005,23.846404725000003,49.0,56.0
58,23.846404725000003,24.276761437500003,72.0,70.0
59,23.846404725000003,24.299975700000005,68.0,70.0
60,23.846404725000003,24.330332812500004,44.0,67.0
61,24.274975725000004,24.380332762500004,51.0,62.0
62,24.703546725000002,25.067832075000002,63.0,62.0
63,24.703546725000002,25.085689200000004,65.0,66.0
64,24.703546725000002,25.091046337500003,68.0,70.0
65,25.132117725000004,25.621402950000004,56.0,55.0
66,25.560688725000002,25.933902637500005,73.0,73.0
67,25.560688725000002,25.960688325000003,61.0,51.0
68,25.560688725000002,25.962474037500005,68.0,69.0
69,24.703546725000002,26.049973950000002,49.0,69.0
70,25.989259725000004,26.117831025000005,56.0,57.0
71,25.989259725000004,26.191045237500003,63.0,63.0
72,25.989259725000004,26.283902287500002,72.0,70.0
73,26.417830725,26.755330387500003,72.0,66.0
74,26.417830725,26.857116000000005,68.0,66.0
75,26.846401725000003,27.228544200000005,65.0,59.0
76,27.274972725000005,27.653543775000003,72.0,70.0
77,27.274972725000005,27.683900887500002,68.0,73.0
78,26.417830725,27.692829450000005,41.0,64.0
79,26.417830725,27.739257975000005,53.0,56.0
80,27.703543725000003,27.887472112500003,65.0,60.0
81,28.132114725000005,28.499971500000004,70.0,73.0
82,28.132114725000005,28.596399975000004,65.0,63.0
83,28.560685725000003,28.905328237500004,61.0,51.0
84,28.560685725000003,29.241042187500003,58.0,48.0
85,28.132114725000005,29.353542075000004,46.0,62.0
86,28.989256725000004,29.385684900000005,70.0,75.0
87,28.989256725000004,29.394613462500004,65.0,78.0
88,29.417827725000002,29.735684550000006,61.0,70.0
89,29.846398725000004,30.212469787500005,66.0,75.0
90,29.846398725000004,30.217826925000004,70.0,70.0
91,29.846398725000004,30.246398325000005,42.0,67.0
92,29.846398725000004,30.267826875000004,54.0,58.0
93,30.703540725000003,31.028540400000004,44.0,67.0
94,30.703540725000003,31.037468962500004,60.0,60.0
95,30.703540725000003,31.062468937500004,63.0,66.0
96,30.703540725000003,31.083897487500003,68.0,66.0
97,30.703540725000003,31.094611762500005,56.0,66.0
98,31.560682725000003,31.948182337500004,73.0,66.0
99,31.560682725000003,32.019610837500004,68.0,67.0
100,31.989253725000005,32.460681825,65.0,51.0
101,32.417824725,32.782110075000006,73.0,70.0
102,32.417824725,32.84639572500001,68.0,62.0
103,31.560682725000003,33.274966725000006,49.0,58.0
104,31.989253725000005,33.274966725000006,56.0,37.0
105,32.417824725,33.274966725000006,61.0,44.0
106,32.84639572500001,33.274966725000006,65.0,54.0
107,33.274966725000006,33.71246628750001,73.0,58.0
108,33.274966725000006,33.728537700000004,68.0,53.0
109,33.703537725000004,34.191037237500005,65.0,40.0
110,33.274966725000006,34.3267513875,49.0,43.0
111,33.274966725000006,34.34996565,61.0,46.0
112,34.132108725,34.476751237500004,73.0,66.0
113,34.132108725,34.5374654625,68.0,59.0
114,34.56067972500001,34.896393675000006,65.0,52.0
115,34.989250725000005,35.39103603750001,72.0,64.0
116,34.989250725000005,35.4553216875,68.0,63.0
117,35.417821725,35.760678525,63.0,42.0
118,35.846392725,36.23210662500001,72.0,55.0
119,35.846392725,36.255320887500005,68.0,53.0
120,36.274963725000006,36.6517490625,63.0,40.0
121,34.989250725000005,36.753534675000004,56.0,57.0
122,36.703534725000004,37.1571057,73.0,61.0
123,36.703534725000004,37.16781997500001,70.0,60.0
124,37.132105725,37.6428195,65.0,47.0
125,36.703534725000004,37.789247925000005,58.0,59.0
126,37.56067672500001,37.94639062500001,70.0,58.0
127,37.56067672500001,38.362461637500004,73.0,56.0
128,37.989247725000006,38.42674728750001,65.0,58.0
129,38.417818725000004,38.849961150000006,72.0,59.0
130,38.417818725000004,38.887461112500006,68.0,49.0
131,38.846389725,39.289246425,65.0,44.0
132,38.417818725000004,39.64996035000001,53.0,44.0
133,39.27496072500001,39.678531750000005,72.0,58.0
134,38.417818725000004,39.696388875000004,60.0,51.0
135,39.27496072500001,39.7017460125,68.0,51.0
136,39.703531725000005,40.10710275,65.0,48.0
137,40.132102725,40.59281655,70.0,59.0
138,40.132102725,40.66603076250001,66.0,56.0
139,40.56067372500001,41.039244675000006,61.0,49.0
140,40.132102725,41.32674438750001,54.0,55.0
141,40.989244725000006,41.355315787500004,70.0,59.0
142,40.989244725000006,41.40888716250001,66.0,67.0
143,41.417815725000004,41.80174391250001,61.0,54.0
144,41.846386725,42.210672075000005,73.0,46.0
145,41.846386725,42.2838862875,68.0,53.0
146,42.27495772500001,42.7767429375,65.0,49.0
147,41.846386725,43.046385525000005,49.0,45.0
148,42.703528725000005,43.053528375000006,73.0,50.0
149,42.703528725000005,43.133885437500005,68.0,56.0
150,43.132099725,43.467813675,73.0,27.0
151,43.132099725,43.533885037500006,65.0,58.0
152,43.56067072500001,43.9481703375,70.0,56.0
153,43.56067072500001,43.994598862500006,66.0,58.0
154,43.98924172500001,44.467812675000005,61.0,49.0
155,43.56067072500001,44.735669550000004,42.0,56.0
156,44.417812725000005,44.796383775,70.0,60.0
157,44.417812725000005,44.83745516250001,66.0,59.0
158,44.846383725,45.1767405375,61.0,54.0
159,45.27495472500001,45.6570972,68.0,60.0
160,45.27495472500001,45.703525725000006,72.0,58.0
161,46.132096725000004,46.42316786250001,61.0,55.0
162,45.27495472500001,46.47852495000001,44.0,54.0
163,45.703525725000006,46.489239225000006,51.0,43.0
164,46.132096725000004,46.524953475000004,66.0,63.0
165,46.132096725000004,46.587453412500004,56.0,49.0
166,46.56066772500001,46.85352457500001,68.0,58.0
167,46.98923872500001,47.38388118750001,65.0,63.0
168,46.98923872500001,47.40709545000001,68.0,57.0
169,46.98923872500001,47.492809650000005,73.0,58.0
170,47.417809725000005,48.01245198750001,56.0,39.0
171,47.846380725,48.26959458750001,63.0,49.0
172,47.846380725,48.271380300000004,65.0,53.0
173,47.846380725,48.28030886250001,61.0,43.0
174,47.846380725,48.28209457500001,68.0,61.0
175,46.98923872500001,48.296380275000004,49.0,60.0
176,48.27495172500001,48.508880062500005,56.0,48.0
177,48.703522725000006,48.96245103750001,63.0,47.0
178,48.703522725000006,49.064236650000005,72.0,52.0
179,48.703522725000006,49.13030801250001,68.0,50.0
180,49.132093725000004,49.524950475000004,63.0,45.0
181,48.703522725000006,49.87852155000001,44.0,39.0
182,49.56066472500001,49.96602146250001,68.0,66.0
183,48.703522725000006,49.97137860000001,56.0,44.0
184,49.98923572500001,50.38923532500001,72.0,51.0
185,50.417806725000005,50.84280630000001,73.0,70.0
186,50.417806725000005,50.84994915000001,68.0,64.0
187,50.417806725000005,51.191020237500005,65.0,56.0
188,50.417806725000005,51.52494847500001,46.0,57.0
189,50.846377725,51.5945912625,53.0,37.0
190,51.27494872500001,51.5945912625,73.0,60.0
191,51.27494872500001,51.65530548750001,58.0,46.0
192,51.27494872500001,51.683876887500006,68.0,66.0
193,51.70351972500001,52.09637647500001,65.0,57.0
194,52.132090725000005,52.51066177500001,72.0,61.0
195,52.132090725000005,52.537447462500005,68.0,62.0
196,52.56066172500001,53.074946925000006,63.0,56.0
197,52.56066172500001,53.33744666250001,60.0,47.0
198,52.132090725000005,53.34994665000001,53.0,62.0
199,52.98923272500001,53.405303737500006,68.0,67.0
200,53.417803725000006,53.530303612500006,72.0,61.0
201,53.846374725000004,54.191017237500006,66.0,49.0
202,53.846374725000004,54.241017187500006,70.0,64.0
203,53.846374725000004,54.24994575000001,61.0,61.0
204,54.27494572500001,54.84101658750001,49.0,47.0
205,54.70351672500001,55.06780207500001,66.0,66.0
206,54.70351672500001,55.12137345000001,61.0,66.0
207,54.70351672500001,55.13030201250001,58.0,58.0
208,54.70351672500001,55.19280195000001,54.0,50.0
209,53.846374725000004,55.24815903750001,42.0,57.0
210,55.132087725000005,55.499944500000005,49.0,41.0
211,55.56065872500001,55.92672978750001,63.0,56.0
212,55.56065872500001,55.95351547500001,72.0,64.0
213,55.56065872500001,55.95887261250001,68.0,66.0
214,55.56065872500001,56.060658225000005,53.0,62.0
215,55.98922972500001,56.06601536250001,60.0,57.0
216,56.417800725000006,56.79458606250001,46.0,40.0
217,56.417800725000006,56.808871762500004,68.0,62.0
218,56.417800725000006,56.81780032500001,73.0,62.0
219,56.417800725000006,56.83208602500001,65.0,58.0
220,56.417800725000006,56.83565745000001,58.0,39.0
221,57.27494272500001,57.67137090000001,70.0,66.0
222,57.27494272500001,57.676728037500006,61.0,62.0
223,57.27494272500001,57.689228025000006,66.0,69.0
224,57.70351372500001,58.17851325000001,61.0,56.0
225,57.27494272500001,58.467798675000004,51.0,64.0
226,57.70351372500001,58.530298612500005,58.0,41.0
227,58.132084725000006,58.562441437500006,66.0,73.0
228,58.56065572500001,58.93922677500001,70.0,66.0
229,58.98922672500001,59.17672653750001,73.0,73.0
230,59.63208322500001,59.89279725000001,61.0,62.0
231,59.846368725000005,59.958868612500005,63.0,56.0
232,58.98922672500001,60.18029696250001,44.0,69.0
233,59.203512225000004,60.21779692500001,51.0,70.0
234,60.06065422500001,60.25708260000001,66.0,63.0
235,59.41779772500001,60.34993965000001,56.0,67.0
236,60.27493972500001,60.526725187500006,73.0,54.0
237,60.489225225000006,60.682082175000005,75.0,64.0
238,60.70351072500001,61.02672468750001,77.0,69.0
239,60.70351072500001,61.03029611250001,68.0,58.0
240,61.132081725000006,61.61065267500001,61.0,56.0
241,61.34636722500001,61.780295362500006,65.0,48.0
242,61.56065272500001,61.86243813750001,73.0,75.0
243,61.56065272500001,61.905295237500006,68.0,75.0
244,60.70351072500001,61.930295212500006,49.0,66.0
245,60.91779622500001,61.985652300000005,56.0,60.0
246,61.77493822500001,62.07850935000001,61.0,55.0
247,61.98922372500001,62.21422350000001,65.0,57.0
248,62.203509225000005,62.56065172500001,75.0,61.0
249,62.41779472500001,62.70172301250001,63.0,63.0
250,62.41779472500001,62.73922297500001,68.0,63.0
251,62.41779472500001,62.783865787500005,72.0,64.0
252,62.846365725000005,63.19815108750001,63.0,52.0
253,62.63208022500001,63.26600816250001,60.0,62.0
254,63.06065122500001,63.36600806250001,68.0,62.0
255,63.27493672500001,63.632079225000005,72.0,69.0
256,63.489222225000006,63.72136485000001,60.0,63.0
257,62.41779472500001,63.73029341250001,53.0,69.0
258,63.70350772500001,63.90350752500001,63.0,57.0
259,63.91779322500001,64.0999359,68.0,47.0
260,64.13207872500001,64.39457846250001,61.0,60.0
261,64.13207872500001,64.43922127500001,66.0,60.0
262,64.13207872500001,64.4517212625,70.0,61.0
263,64.13207872500001,64.65350677500001,42.0,69.0
264,64.560649725,64.76422095000001,61.0,61.0
265,64.346364225,64.91422080000001,54.0,55.0
266,64.98922072500001,65.2713633,61.0,60.0
267,64.98922072500001,65.33922037500001,44.0,67.0
268,64.98922072500001,65.33922037500001,70.0,63.0
269,64.77493522500001,65.34279180000001,66.0,64.0
270,65.41779172500001,65.61957723750001,61.0,60.0
271,65.20350622500001,65.7160057125,56.0,59.0
272,65.846362725,66.23029091250001,73.0,64.0
273,65.632077225,66.24993375000001,68.0,58.0
274,65.846362725,66.30707655,65.0,63.0
275,66.48921922500001,66.68029046250001,63.0,55.0
276,66.703504725,66.953504475,65.0,64.0
277,66.27493372500001,67.10171861250001,61.0,70.0
278,65.846362725,67.12493287500001,49.0,67.0
279,66.06064822500001,67.132075725,56.0,66.0
280,66.917790225,67.14279,66.0,58.0
281,67.132075725,67.3374326625,68.0,63.0
282,67.34636122500001,67.62671808750001,70.0,62.0
283,67.56064672500001,67.82493217500001,63.0,69.0
284,67.56064672500001,67.8945749625,68.0,67.0
285,67.989217725,68.23564605000001,63.0,56.0
286,68.203503225,68.44814583750001,68.0,55.0
287,67.77493222500001,68.46778867500001,60.0,64.0
288,68.41778872500001,68.6999313,63.0,62.0
289,68.63207422500001,68.78564550000002,60.0,62.0
290,67.56064672500001,68.79278835000001,53.0,70.0
291,68.41778872500001,68.8142169,72.0,73.0
292,68.84635972500001,69.11064517500002,70.0,59.0
293,69.06064522500002,69.260645025,72.0,63.0
294,69.274930725,69.63743036250001,73.0,66.0
295,69.274930725,69.6410017875,68.0,64.0
296,69.274930725,69.65350177500001,65.0,61.0
297,69.91778722500001,70.16421555000001,61.0,51.0
298,69.70350172500001,70.21957263750001,58.0,69.0
299,70.13207272500001,70.33207252500002,65.0,64.0
300,69.489216225,70.44278670000001,53.0,62.0
301,69.274930725,70.59278655000001,46.0,70.0
302,70.346358225,70.63921507500001,68.0,62.0
303,70.560643725,70.81957203750001,70.0,62.0
304,70.77492922500001,71.03028611250001,73.0,67.0
305,70.98921472500001,71.22492877500001,42.0,66.0
306,70.98921472500001,71.44457141250001,61.0,66.0
307,70.98921472500001,71.49278565000002,66.0,73.0
308,71.20350022500001,71.52314276250002,54.0,59.0
309,70.98921472500001,71.62849980000001,70.0,70.0
310,71.41778572500002,71.846356725,56.0,57.0
311,71.632071225,71.86421385000001,58.0,64.0
312,71.846356725,71.99099943750001,61.0,64.0
313,72.06064222500001,72.217784925,66.0,62.0
314,72.27492772500001,72.4624275375,68.0,63.0
315,72.48921322500001,72.76421295000002,73.0,67.0
316,72.703498725,73.02135555000001,44.0,63.0
317,72.917784225,73.142784,51.0,69.0
318,73.13206972500001,73.4142123,56.0,51.0
319,72.703498725,73.46421225,72.0,72.0
320,73.34635522500001,73.74278340000001,58.0,49.0
321,73.56064072500001,73.74635482500001,60.0,56.0
322,73.77492622500002,73.97671173750001,61.0,59.0
323,73.989211725,74.24814003750001,66.0,64.0
324,74.203497225,74.37849705000001,68.0,67.0
325,74.41778272500001,74.80885376250001,65.0,70.0
326,74.41778272500001,74.86599656250002,68.0,62.0
327,74.41778272500001,75.07313921250001,73.0,66.0
328,75.060639225,75.19813908750001,63.0,69.0
329,75.060639225,75.24278190000001,72.0,69.0
330,74.84635372500001,75.38921032500001,61.0,59.0
331,75.274924725,75.52671018750002,65.0,72.0
332,75.274924725,75.60706725000001,73.0,73.0
333,75.274924725,75.6159958125,68.0,64.0
334,75.48921022500001,75.7302814125,61.0,75.0
335,74.41778272500001,75.80349562500001,49.0,72.0
336,74.63206822500001,75.82135275000002,56.0,63.0
337,75.70349572500001,75.92313836250001,65.0,67.0
338,75.91778122500001,76.23206662500002,75.0,67.0
339,76.13206672500002,76.32849510000001,41.0,69.0
340,76.346352225,76.59278055000001,53.0,47.0
341,76.13206672500002,76.77492322500001,72.0,75.0
342,76.13206672500002,76.79813748750001,68.0,67.0
343,76.13206672500002,76.80349462500001,63.0,62.0
344,76.98920872500001,77.15527998750001,63.0,62.0
345,76.77492322500001,77.26777987500002,60.0,55.0
346,76.560637725,77.28920842500001,56.0,60.0
347,77.20349422500001,77.35527978750001,68.0,61.0
348,77.41777972500002,77.59277955000002,70.0,54.0
349,77.632065225,77.8874221125,73.0,61.0
350,77.84635072500001,78.29992170000001,70.0,69.0
351,77.84635072500001,78.30349312500002,66.0,60.0
352,77.84635072500001,78.51956433750001,42.0,72.0
353,78.48920722500002,78.64992135000001,61.0,56.0
354,78.27492172500001,78.76599266250001,54.0,66.0
355,78.06063622500001,78.82134975000001,49.0,70.0
356,78.703492725,79.00170671250001,61.0,66.0
357,78.703492725,79.15527798750001,44.0,73.0
358,78.703492725,79.17134940000001,66.0,72.0
359,78.703492725,79.17134940000001,70.0,72.0
360,79.13206372500001,79.25170646250001,51.0,66.0
361,79.56063472500001,79.80706305000001,65.0,70.0
362,79.56063472500001,79.8142059,68.0,70.0
363,79.56063472500001,79.8588487125,73.0,70.0
364,79.989205725,80.589205125,56.0,63.0
365,80.41777672500001,80.67849075000001,68.0,59.0
366,80.41777672500001,80.68384788750001,61.0,57.0
367,79.56063472500001,80.69634787500001,49.0,75.0
368,80.41777672500001,80.71777642500001,73.0,59.0
369,80.41777672500001,80.71777642500001,80.0,70.0
370,80.84634772500002,81.07670463750001,68.0,57.0
371,80.84634772500002,81.07849035000001,48.0,72.0
372,80.84634772500002,81.19099023750002,77.0,66.0
373,81.274918725,81.57313271250001,75.0,63.0
374,81.274918725,81.6302755125,68.0,64.0
375,81.70348972500001,82.29277485000001,53.0,49.0
376,81.274918725,82.47848895000001,41.0,73.0
377,82.13206072500002,82.47848895000001,65.0,76.0
378,82.13206072500002,82.48206037500002,56.0,69.0
379,82.13206072500002,82.49277465000002,60.0,73.0
380,82.56063172500001,82.946345625,53.0,72.0
381,82.98920272500001,83.24098818750001,61.0,75.0
382,82.98920272500001,83.27848815000002,65.0,73.0
383,83.41777372500002,83.63920207500001,73.0,28.0
384,83.41777372500002,83.6427735,65.0,53.0
385,82.98920272500001,84.14634442500001,46.0,67.0
386,83.84634472500001,84.1731301125,63.0,57.0
387,83.84634472500001,84.18563010000001,72.0,59.0
388,83.41777372500002,84.20705865000001,53.0,49.0
389,83.84634472500001,84.23920147500002,58.0,50.0
390,84.27491572500001,84.63384393750002,68.0,58.0
391,84.703486725,85.11062917500001,70.0,63.0
392,84.703486725,85.1481291375,66.0,63.0
393,84.703486725,85.15705770000001,61.0,70.0
394,84.703486725,85.83205702500001,51.0,63.0
395,85.56062872500002,85.96598546250002,61.0,67.0
396,85.56062872500002,85.97491402500002,66.0,73.0
397,85.56062872500002,85.97491402500002,70.0,73.0
398,85.989199725,86.0695567875,51.0,57.0
399,86.41777072500001,86.76777037500001,56.0,59.0
400,86.41777072500001,86.81062747500002,70.0,72.0
401,86.41777072500001,86.86062742500002,61.0,66.0
402,86.41777072500001,86.86062742500002,66.0,66.0
403,86.84634172500002,87.45884111250001,56.0,52.0
404,87.27491272500001,87.65169806250002,61.0,72.0
405,87.27491272500001,87.68919802500001,66.0,76.0
406,87.27491272500001,87.70169801250002,70.0,73.0
407,86.41777072500001,87.71776942500001,44.0,69.0
408,87.70348372500001,87.82848360000001,56.0,63.0
409,88.13205472500002,88.36419735000001,65.0,62.0
410,88.13205472500002,88.4766972375,68.0,64.0
411,88.13205472500002,88.48384008750001,73.0,69.0
412,88.56062572500001,88.71955413750001,63.0,67.0
413,88.56062572500001,88.91955393750001,72.0,69.0
414,88.98919672500001,89.1624108375,65.0,59.0
415,88.98919672500001,89.18026796250001,73.0,72.0
416,88.98919672500001,89.232053625,68.0,69.0
417,88.98919672500001,89.3374106625,61.0,51.0
418,88.13205472500002,89.34455351250001,49.0,70.0
419,89.41776772500002,89.54991045000001,75.0,55.0
420,89.84633872500001,90.29098113750001,72.0,62.0
421,89.84633872500001,90.31419540000002,68.0,59.0
422,89.84633872500001,90.3231239625,63.0,54.0
423,89.84633872500001,90.79276635000001,60.0,52.0
424,89.84633872500001,90.853480575,53.0,48.0
425,91.56062272500002,92.0695507875,61.0,61.0
426,91.56062272500002,92.07133650000002,70.0,63.0
427,91.56062272500002,92.26240773750001,66.0,59.0
428,91.56062272500002,92.36062192500002,42.0,72.0
429,92.41776472500001,92.474907525,61.0,64.0
430,92.41776472500001,92.59276455000001,68.0,64.0
431,92.41776472500001,92.88740711250001,44.0,56.0
432,92.41776472500001,92.90883566250001,70.0,58.0
433,92.84633572500002,93.41240658750002,72.0,73.0
434,93.27490672500001,93.58383498750001,65.0,56.0
435,93.27490672500001,93.63919207500001,68.0,62.0
436,93.70347772500001,93.77847765000001,73.0,36.0
437,94.13204872500002,94.3016914125,77.0,59.0
438,94.13204872500002,94.42490557500001,85.0,72.0
439,93.27490672500001,94.53561975000001,49.0,64.0
440,94.13204872500002,94.54633402500001,61.0,44.0
441,93.70347772500001,94.56597686250001,56.0,45.0
442,94.56061972500001,94.74633382500001,75.0,53.0
443,94.56061972500001,94.99811928750002,84.0,52.0
444,94.98919072500001,95.29454756250001,80.0,64.0
445,94.98919072500001,95.34454751250001,75.0,61.0
446,95.84633272500001,96.13026101250001,68.0,52.0
447,95.63204722500001,96.26776087500001,65.0,66.0
448,95.417761725,96.28740371250001,60.0,43.0
449,94.98919072500001,96.32668938750001,53.0,67.0
450,96.06061822500001,96.33561795000001,72.0,59.0
451,96.27490372500002,96.52133205000001,73.0,60.0
452,96.703474725,97.29454556250002,73.0,64.0
453,96.703474725,97.31954553750002,65.0,55.0
454,96.703474725,97.33025981250002,68.0,57.0
455,96.703474725,97.81597361250002,58.0,61.0
456,97.56061672500002,97.81775932500001,68.0,67.0
457,97.56061672500002,97.83740216250001,65.0,66.0
458,97.56061672500002,97.84275930000001,73.0,66.0
459,97.98918772500001,98.19811608750001,70.0,36.0
460,98.41775872500001,98.69454416250001,61.0,57.0
461,98.41775872500001,98.79097263750002,66.0,57.0
462,98.41775872500001,98.79990120000001,70.0,62.0
463,98.84632972500002,99.08382948750001,61.0,57.0
464,98.41775872500001,99.10525803750001,58.0,56.0
465,98.84632972500002,99.24454361250001,68.0,62.0
466,99.27490072500001,99.61240038750002,58.0,63.0
467,98.41775872500001,99.63025751250001,51.0,48.0
468,99.27490072500001,99.68918602500001,70.0,72.0
469,99.27490072500001,99.70347172500001,61.0,60.0
470,99.70347172500001,100.06954278750001,73.0,72.0
471,100.13204272500002,100.41418530000001,68.0,61.0
472,100.13204272500002,100.4266852875,72.0,64.0
473,100.13204272500002,100.45704240000002,63.0,58.0
474,100.77489922500001,100.95525618750001,61.0,64.0
475,100.98918472500002,101.24454161250002,63.0,59.0
476,100.56061372500001,101.27489872500001,56.0,59.0
477,100.34632822500001,101.3427558,51.0,67.0
478,100.13204272500002,101.40704145000001,44.0,64.0
479,101.20347022500002,101.43382713750002,65.0,61.0
480,101.417755725,101.66954118750002,66.0,70.0
481,101.84632672500001,102.32311196250001,56.0,60.0
482,101.84632672500001,102.33025481250002,61.0,62.0
483,101.84632672500001,102.35704050000001,68.0,59.0
484,101.63204122500001,102.37132620000001,65.0,63.0
485,102.27489772500002,102.94632562500001,49.0,39.0
486,102.70346872500001,103.19453966250002,68.0,44.0
487,102.70346872500001,103.20168251250001,61.0,76.0
488,101.84632672500001,103.20703965000001,37.0,72.0
489,102.70346872500001,103.21061107500002,56.0,67.0
490,102.70346872500001,103.22668248750001,65.0,76.0
491,103.13203972500001,103.4695393875,49.0,66.0
492,103.56061072500002,104.26775287500001,68.0,61.0
493,103.56061072500002,104.26953858750001,56.0,63.0
494,103.56061072500002,104.28025286250002,60.0,67.0
495,103.56061072500002,104.28025286250002,63.0,70.0
496,103.56061072500002,104.58025256250001,48.0,69.0
497,104.41775272500001,104.88382368750001,60.0,67.0
498,104.41775272500001,104.89989510000001,68.0,61.0
499,104.41775272500001,104.91596651250002,56.0,66.0
500,104.41775272500001,104.96775217500002,63.0,70.0
501,104.84632372500002,105.28025186250001,48.0,59.0
502,105.27489472500001,105.73203712500002,66.0,69.0
503,105.27489472500001,105.75167996250002,58.0,66.0
504,105.27489472500001,105.75167996250002,61.0,69.0
505,105.27489472500001,105.81775132500002,42.0,67.0
506,105.27489472500001,105.90703695000002,54.0,62.0
507,105.70346572500002,105.98739401250002,63.0,58.0
508,106.13203672500002,106.56596486250001,65.0,72.0
509,106.13203672500002,106.58739341250002,61.0,64.0
510,106.13203672500002,106.60525053750001,51.0,67.0
511,106.13203672500002,106.62846480000002,44.0,69.0
512,106.13203672500002,106.67132190000001,56.0,55.0
513,106.56060772500001,106.86417885000002,63.0,66.0
514,106.98917872500002,107.44810683750002,65.0,69.0
515,106.98917872500002,107.47667823750001,61.0,64.0
516,106.98917872500002,107.48024966250001,56.0,59.0
517,107.41774972500001,108.06774907500001,53.0,44.0
518,106.98917872500002,108.09274905000001,49.0,67.0
519,107.84632072500001,108.28024886250002,61.0,67.0
520,107.84632072500001,108.33203452500001,56.0,61.0
521,107.84632072500001,108.34989165000002,65.0,70.0
522,108.27489172500002,108.37846305000001,49.0,67.0
523,108.70346272500001,109.22310506250001,56.0,62.0
524,108.70346272500001,109.22667648750001,63.0,66.0
525,108.70346272500001,109.23024791250002,60.0,63.0
526,108.70346272500001,109.24631932500002,68.0,61.0
527,108.70346272500001,109.68917602500001,53.0,55.0
528,109.56060472500002,109.97310431250001,68.0,55.0
529,108.70346272500001,109.97667573750002,41.0,58.0
530,109.56060472500002,109.98024716250002,56.0,61.0
531,109.56060472500002,109.98024716250002,60.0,64.0
532,109.56060472500002,109.99989000000001,63.0,70.0
533,109.98917572500001,110.09453276250001,53.0,61.0
534,110.41774672500001,110.97310331250002,65.0,66.0
535,110.41774672500001,111.00703185000002,58.0,62.0
536,110.41774672500001,111.04453181250001,61.0,72.0
537,110.41774672500001,111.43381713750001,53.0,61.0
538,110.41774672500001,111.47131710000002,46.0,47.0
539,111.27488872500001,111.70345972500002,61.0,70.0
540,111.70345972500002,111.75345967500002,53.0,54.0
541,111.27488872500001,111.76417395000001,65.0,72.0
542,111.70345972500002,111.78024536250001,46.0,48.0
543,111.27488872500001,111.80703105000002,58.0,64.0
544,112.13203072500002,112.56060172500001,66.0,70.0
545,112.13203072500002,112.65345877500002,61.0,73.0
546,112.13203072500002,112.68738731250002,58.0,62.0
547,112.13203072500002,113.09452976250002,42.0,62.0
548,112.13203072500002,113.10167261250001,54.0,50.0
549,112.98917272500002,113.36952948750002,44.0,61.0
550,112.98917272500002,113.43917227500002,58.0,70.0
551,112.98917272500002,113.47131510000001,61.0,78.0
552,112.98917272500002,113.47131510000001,66.0,76.0
553,113.41774372500001,113.69810058750001,65.0,66.0
554,113.84631472500001,114.27667143750001,65.0,69.0
555,113.84631472500001,114.29274285000001,56.0,61.0
556,113.84631472500001,114.30524283750002,61.0,64.0
557,113.84631472500001,114.76059952500002,49.0,62.0
558,114.70345672500001,115.02131355000002,66.0,67.0
559,114.70345672500001,115.08917062500001,58.0,56.0
560,114.70345672500001,115.09452776250002,61.0,70.0
561,113.84631472500001,115.13738486250001,37.0,66.0
562,115.13202772500001,115.56059872500002,49.0,58.0
563,115.56059872500002,115.99809828750001,73.0,58.0
564,115.56059872500002,116.01416970000001,68.0,53.0
565,115.98916972500001,116.47666923750002,65.0,40.0
566,115.56059872500002,116.61238338750002,49.0,43.0
567,115.56059872500002,116.63559765000001,61.0,46.0
568,116.41774072500002,116.76238323750002,73.0,66.0
569,116.41774072500002,116.82309746250002,68.0,59.0
570,116.84631172500002,117.18202567500002,65.0,52.0
571,117.27488272500001,117.67666803750002,72.0,64.0
572,117.27488272500001,117.74095368750001,68.0,63.0
573,117.70345372500002,118.04631052500001,63.0,42.0
574,118.13202472500002,118.51773862500002,72.0,55.0
575,118.13202472500002,118.54095288750001,68.0,53.0
576,118.56059572500001,118.93738106250001,63.0,40.0
577,117.27488272500001,119.03916667500002,56.0,57.0
578,118.98916672500002,119.44273770000001,73.0,61.0
579,118.98916672500002,119.45345197500002,70.0,60.0
580,119.41773772500001,119.92845150000002,65.0,47.0
581,118.98916672500002,120.07487992500002,58.0,59.0
582,119.84630872500001,120.23202262500001,70.0,58.0
583,119.84630872500001,120.64809363750001,73.0,56.0
584,120.27487972500002,120.71237928750001,65.0,58.0
585,120.70345072500001,121.13559315000002,72.0,59.0
586,120.70345072500001,121.17309311250001,68.0,49.0
587,121.13202172500002,121.57487842500002,65.0,44.0
588,120.70345072500001,121.93559235000002,53.0,44.0
589,121.56059272500002,121.96416375000001,72.0,58.0
590,120.70345072500001,121.98202087500002,60.0,51.0
591,121.56059272500002,121.98737801250002,68.0,51.0
592,121.98916372500001,122.39273475000002,65.0,48.0
593,122.41773472500002,122.87844855000002,70.0,59.0
594,122.41773472500002,122.95166276250002,66.0,56.0
595,122.84630572500002,123.32487667500001,61.0,49.0
596,122.41773472500002,123.61237638750002,54.0,55.0
597,123.27487672500001,123.64094778750001,70.0,59.0
598,123.27487672500001,123.69451916250001,66.0,67.0
599,123.70344772500002,124.08737591250002,61.0,54.0
600,124.13201872500002,124.49630407500001,73.0,46.0
601,124.13201872500002,124.56951828750002,68.0,53.0
602,124.56058972500001,125.06237493750001,65.0,49.0
603,124.13201872500002,125.33201752500001,49.0,45.0
604,124.98916072500002,125.33916037500002,73.0,50.0
605,124.98916072500002,125.41951743750002,68.0,56.0
606,125.41773172500001,125.75344567500002,73.0,27.0
607,125.41773172500001,125.81951703750002,65.0,58.0
608,125.84630272500002,126.23380233750002,70.0,56.0
609,125.84630272500002,126.28023086250002,66.0,58.0
610,126.27487372500002,126.75344467500001,61.0,49.0
611,125.84630272500002,127.02130155000002,42.0,56.0
612,126.70344472500001,127.08201577500002,70.0,60.0
613,126.70344472500001,127.12308716250001,66.0,59.0
614,127.13201572500002,127.46237253750002,61.0,54.0
615,127.56058672500002,127.94272920000002,68.0,60.0
616,127.56058672500002,127.98915772500001,72.0,58.0
617,128.41772872500002,128.70879986250003,61.0,55.0
618,127.56058672500002,128.76415695000003,44.0,54.0
619,127.98915772500001,128.77487122500003,51.0,43.0
620,128.41772872500002,128.810585475,66.0,63.0
621,128.41772872500002,128.87308541250002,56.0,49.0
622,128.84629972500002,129.13915657500002,68.0,58.0
623,129.27487072500003,129.66951318750003,65.0,63.0
624,129.27487072500003,129.69272745,68.0,57.0
625,129.27487072500003,129.77844165000002,73.0,58.0
626,129.703441725,130.2980839875,56.0,39.0
627,130.132012725,130.55522658750002,63.0,49.0
628,130.132012725,130.55701230000003,65.0,53.0
629,130.132012725,130.5659408625,61.0,43.0
630,130.132012725,130.56772657500002,68.0,61.0
631,129.27487072500003,130.582012275,49.0,60.0
632,130.56058372500001,130.79451206250002,56.0,48.0
633,130.98915472500002,131.2480830375,63.0,47.0
634,130.98915472500002,131.34986865000002,72.0,52.0
635,130.98915472500002,131.41594001250002,68.0,50.0
636,131.41772572500003,131.81058247500002,63.0,45.0
637,130.98915472500002,132.16415355,44.0,39.0
638,131.84629672500003,132.25165346250003,68.0,66.0
639,130.98915472500002,132.25701060000003,56.0,44.0
640,132.274867725,132.674867325,72.0,51.0
641,132.703438725,133.12843830000003,73.0,70.0
642,132.703438725,133.13558115,68.0,64.0
643,132.703438725,133.47665223750002,65.0,56.0
644,132.703438725,133.81058047500002,46.0,57.0
645,133.13200972500002,133.8802232625,53.0,37.0
646,133.56058072500002,133.8802232625,73.0,60.0
647,133.56058072500002,133.9409374875,58.0,46.0
648,133.56058072500002,133.9695088875,68.0,66.0
649,133.98915172500003,134.38200847500002,65.0,57.0
650,134.417722725,134.796293775,72.0,61.0
651,134.417722725,134.8230794625,68.0,62.0
652,134.846293725,135.36057892500003,63.0,56.0
653,134.846293725,135.6230786625,60.0,47.0
654,134.417722725,135.63557865,53.0,62.0
655,135.27486472500001,135.6909357375,68.0,67.0
656,135.70343572500002,135.81593561250003,72.0,61.0
657,136.13200672500002,136.47664923750003,66.0,49.0
658,136.13200672500002,136.52664918750003,70.0,64.0
659,136.13200672500002,136.53557775000002,61.0,61.0
660,136.56057772500003,137.12664858750003,49.0,47.0
661,136.989148725,137.35343407500002,66.0,66.0
662,136.989148725,137.40700545,61.0,66.0
663,136.989148725,137.41593401250003,58.0,58.0
664,136.989148725,137.47843395,54.0,50.0
665,136.13200672500002,137.5337910375,42.0,57.0
666,137.417719725,137.78557650000002,49.0,41.0
667,137.84629072500002,138.21236178750001,63.0,56.0
668,137.84629072500002,138.239147475,72.0,64.0
669,137.84629072500002,138.2445046125,68.0,66.0
670,137.84629072500002,138.34629022500002,53.0,62.0
671,138.27486172500002,138.35164736250002,60.0,57.0
672,138.70343272500003,139.08021806250002,46.0,40.0
673,138.70343272500003,139.0945037625,68.0,62.0
674,138.70343272500003,139.10343232500003,73.0,62.0
675,138.70343272500003,139.11771802500002,65.0,58.0
676,138.70343272500003,139.12128945,58.0,39.0
677,139.560574725,139.95700290000002,70.0,66.0
678,139.560574725,139.96236003750002,61.0,62.0
679,139.560574725,139.97486002500003,66.0,69.0
680,139.98914572500001,140.46414525000003,61.0,56.0
681,139.560574725,140.75343067500003,51.0,64.0
682,139.98914572500001,140.8159306125,58.0,41.0
683,140.41771672500002,140.8480734375,66.0,73.0
684,140.84628772500002,141.22485877500003,70.0,66.0
685,141.27485872500003,141.46235853750002,73.0,73.0
686,141.91771522500002,142.17842925000002,61.0,62.0
687,142.132000725,142.24450061250002,63.0,56.0
688,141.27485872500003,142.46592896250002,44.0,69.0
689,141.48914422500002,142.503428925,51.0,70.0
690,142.34628622500003,142.5427146,66.0,63.0
691,141.703429725,142.63557165000003,56.0,67.0
692,142.56057172500002,142.81235718750003,73.0,54.0
693,142.774857225,142.96771417500003,75.0,64.0
694,142.98914272500002,143.31235668750003,77.0,69.0
695,142.98914272500002,143.31592811250002,68.0,58.0
696,143.41771372500003,143.89628467500003,61.0,56.0
697,143.63199922500002,144.06592736250002,65.0,48.0
698,143.84628472500003,144.1480701375,73.0,75.0
699,143.84628472500003,144.1909272375,68.0,75.0
700,142.98914272500002,144.21592721250002,49.0,66.0
701,143.203428225,144.27128430000002,56.0,60.0
702,144.06057022500002,144.36414135,61.0,55.0
703,144.274855725,144.49985550000002,65.0,57.0
704,144.48914122500003,144.846283725,75.0,61.0
705,144.703426725,144.98735501250002,63.0,63.0
706,144.703426725,145.024854975,68.0,63.0
707,144.703426725,145.0694977875,72.0,64.0
708,145.13199772500002,145.48378308750003,63.0,52.0
709,144.91771222500003,145.5516401625,60.0,62.0
710,145.346283225,145.6516400625,68.0,62.0
711,145.56056872500002,145.917711225,72.0,69.0
712,145.774854225,146.00699685,60.0,63.0
713,144.703426725,146.01592541250002,53.0,69.0
714,145.98913972500003,146.18913952500003,63.0,57.0
715,146.20342522500002,146.3855679,68.0,47.0
716,146.417710725,146.6802104625,61.0,60.0
717,146.417710725,146.72485327500002,66.0,60.0
718,146.417710725,146.73735326250002,70.0,61.0
719,146.417710725,146.93913877500003,42.0,69.0
720,146.846281725,147.04985295000003,61.0,61.0
721,146.63199622500002,147.19985280000003,54.0,55.0
722,147.27485272500002,147.5569953,61.0,60.0
723,147.27485272500002,147.62485237500002,44.0,67.0
724,147.27485272500002,147.62485237500002,70.0,63.0
725,147.06056722500003,147.6284238,66.0,64.0
726,147.70342372500002,147.90520923750003,61.0,60.0
727,147.48913822500003,148.0016377125,56.0,59.0
728,148.13199472500003,148.51592291250003,73.0,64.0
729,147.917709225,148.53556575000002,68.0,58.0
730,148.13199472500003,148.59270855000003,65.0,63.0
731,148.77485122500002,148.96592246250003,63.0,55.0
732,148.989136725,149.239136475,65.0,64.0
733,148.56056572500003,149.38735061250003,61.0,70.0
734,148.13199472500003,149.410564875,49.0,67.0
735,148.34628022500002,149.417707725,56.0,66.0
736,149.20342222500003,149.428422,66.0,58.0
737,149.417707725,149.6230646625,68.0,63.0
738,149.63199322500003,149.91235008750002,70.0,62.0
739,149.84627872500002,150.110564175,63.0,69.0
740,149.84627872500002,150.18020696250002,68.0,67.0
741,150.27484972500002,150.52127805,63.0,56.0
742,150.489135225,150.7337778375,68.0,55.0
743,150.060564225,150.75342067500003,60.0,64.0
744,150.70342072500003,150.98556330000002,63.0,62.0
745,150.91770622500002,151.0712775,60.0,62.0
746,149.84627872500002,151.07842035000002,53.0,70.0
747,150.70342072500003,151.0998489,72.0,73.0
748,151.131991725,151.39627717500002,70.0,59.0
749,151.34627722500002,151.54627702500002,72.0,63.0
750,151.560562725,151.92306236250002,73.0,66.0
751,151.560562725,151.9266337875,68.0,64.0
752,151.560562725,151.93913377500002,65.0,61.0
753,152.20341922500003,152.44984755000002,61.0,51.0
754,151.98913372500002,152.50520463750001,58.0,69.0
755,152.41770472500002,152.61770452500002,65.0,64.0
756,151.77484822500003,152.72841870000002,53.0,62.0
757,151.560562725,152.87841855000002,46.0,70.0
758,152.631990225,152.92484707500003,68.0,62.0
759,152.84627572500003,153.10520403750002,70.0,62.0
760,153.06056122500001,153.31591811250001,73.0,67.0
761,153.27484672500003,153.51056077500002,42.0,66.0
762,153.27484672500003,153.73020341250003,61.0,66.0
763,153.27484672500003,153.77841765000002,66.0,73.0
764,153.48913222500002,153.8087747625,54.0,59.0
765,153.27484672500003,153.9141318,70.0,70.0
766,153.703417725,154.131988725,56.0,57.0
767,153.91770322500003,154.14984585000002,58.0,64.0
768,154.131988725,154.27663143750001,61.0,64.0
769,154.34627422500003,154.503416925,66.0,62.0
770,154.56055972500002,154.7480595375,68.0,63.0
771,154.774845225,155.04984495000002,73.0,67.0
772,154.98913072500002,155.30698755000003,44.0,63.0
773,155.203416225,155.42841600000003,51.0,69.0
774,155.41770172500003,155.69984430000002,56.0,51.0
775,154.98913072500002,155.74984425000002,72.0,72.0
776,155.63198722500002,156.02841540000003,58.0,49.0
777,155.84627272500003,156.03198682500002,60.0,56.0
778,156.06055822500002,156.26234373750003,61.0,59.0
779,156.274843725,156.53377203750003,66.0,64.0
780,156.48912922500003,156.66412905,68.0,67.0
781,156.70341472500002,157.09448576250003,65.0,70.0
782,156.70341472500002,157.1516285625,68.0,62.0
783,156.70341472500002,157.35877121250002,73.0,66.0
784,157.346271225,157.48377108750003,63.0,69.0
785,157.346271225,157.52841390000003,72.0,69.0
786,157.13198572500002,157.67484232500001,61.0,59.0
787,157.56055672500003,157.8123421875,65.0,72.0
788,157.56055672500003,157.89269925000002,73.0,73.0
789,157.56055672500003,157.9016278125,68.0,64.0
790,157.77484222500001,158.01591341250003,61.0,75.0
791,156.70341472500002,158.08912762500003,49.0,72.0
792,156.91770022500003,158.10698475,56.0,63.0
793,157.98912772500003,158.20877036250002,65.0,67.0
794,158.20341322500002,158.517698625,75.0,67.0
795,158.417698725,158.61412710000002,41.0,69.0
796,158.63198422500002,158.87841255,53.0,47.0
797,158.417698725,159.06055522500003,72.0,75.0
798,158.417698725,159.0837694875,68.0,67.0
799,158.417698725,159.08912662500003,63.0,62.0
800,159.27484072500002,159.44091198750002,63.0,62.0
801,159.06055522500003,159.55341187500002,60.0,55.0
802,158.846269725,159.57484042500002,56.0,60.0
803,159.489126225,159.64091178750002,68.0,61.0
804,159.70341172500002,159.87841155,70.0,54.0
805,159.917697225,160.1730541125,73.0,61.0
806,160.13198272500003,160.58555370000002,70.0,69.0
807,160.13198272500003,160.589125125,66.0,60.0
808,160.13198272500003,160.8051963375,42.0,72.0
809,160.77483922500002,160.93555335000002,61.0,56.0
810,160.56055372500003,161.05162466250002,54.0,66.0
811,160.34626822500002,161.10698175000002,49.0,70.0
812,160.989124725,161.28733871250003,61.0,66.0
813,160.989124725,161.44090998750002,44.0,73.0
814,160.989124725,161.45698140000002,66.0,72.0
815,160.989124725,161.45698140000002,70.0,72.0
816,161.41769572500002,161.53733846250003,51.0,66.0
817,161.84626672500002,162.09269505000003,65.0,70.0
818,161.84626672500002,162.0998379,68.0,70.0
819,161.84626672500002,162.1444807125,73.0,70.0
820,162.27483772500003,162.87483712500003,56.0,63.0
821,162.70340872500003,162.96412275000003,68.0,59.0
822,162.70340872500003,162.96947988750003,61.0,57.0
823,161.84626672500002,162.981979875,49.0,75.0
824,162.70340872500003,163.00340842500003,73.0,59.0
825,162.70340872500003,163.00340842500003,80.0,70.0
826,163.131979725,163.36233663750002,68.0,57.0
827,163.131979725,163.36412235000003,48.0,72.0
828,163.131979725,163.4766222375,77.0,66.0
829,163.560550725,163.85876471250003,75.0,63.0
830,163.560550725,163.9159075125,68.0,64.0
831,163.98912172500002,164.57840685000002,53.0,49.0
832,163.560550725,164.76412095000003,41.0,73.0
833,164.41769272500002,164.76412095000003,65.0,76.0
834,164.41769272500002,164.76769237500002,56.0,69.0
835,164.41769272500002,164.77840665000002,60.0,73.0
836,164.84626372500003,165.231977625,53.0,72.0
837,165.27483472500003,165.52662018750001,61.0,75.0
838,165.27483472500003,165.56412015,65.0,73.0
839,165.703405725,165.92483407500004,73.0,28.0
840,165.703405725,165.92840550000003,65.0,53.0
841,165.27483472500003,166.43197642500002,46.0,67.0
842,166.13197672500002,166.4587621125,63.0,57.0
843,166.13197672500002,166.47126210000002,72.0,59.0
844,165.703405725,166.49269065000001,53.0,49.0
845,166.13197672500002,166.524833475,58.0,50.0
846,166.56054772500002,166.9194759375,68.0,58.0
847,166.98911872500003,167.39626117500003,70.0,63.0
848,166.98911872500003,167.43376113750003,66.0,63.0
849,166.98911872500003,167.44268970000002,61.0,70.0
850,166.98911872500003,168.11768902500003,51.0,63.0
851,167.84626072500004,168.25161746250004,61.0,67.0
852,167.84626072500004,168.26054602500002,66.0,73.0
853,167.84626072500004,168.26054602500002,70.0,73.0
854,168.274831725,168.35518878750003,51.0,57.0
855,168.70340272500002,169.05340237500002,56.0,59.0
856,168.70340272500002,169.096259475,70.0,72.0
857,168.70340272500002,169.146259425,61.0,66.0
858,168.70340272500002,169.146259425,66.0,66.0
859,169.13197372500002,169.74447311250003,56.0,52.0
860,169.56054472500003,169.93733006250002,61.0,72.0
861,169.56054472500003,169.97483002500002,66.0,76.0
862,169.56054472500003,169.98733001250002,70.0,73.0
863,168.70340272500002,170.00340142500002,44.0,69.0
864,169.98911572500003,170.11411560000002,56.0,63.0
865,170.417686725,170.64982935000003,65.0,62.0
866,170.417686725,170.7623292375,68.0,64.0
867,170.417686725,170.76947208750002,73.0,69.0
868,170.84625772500002,171.00518613750003,63.0,67.0
869,170.84625772500002,171.20518593750003,72.0,69.0
870,171.27482872500002,171.44804283750003,65.0,59.0
871,171.27482872500002,171.46589996250003,73.0,72.0
872,171.27482872500002,171.517685625,68.0,69.0
873,171.27482872500002,171.6230426625,61.0,51.0
874,170.417686725,171.63018551250002,49.0,70.0
875,171.70339972500003,171.83554245000002,75.0,55.0
876,172.13197072500003,172.57661313750003,72.0,62.0
877,172.13197072500003,172.5998274,68.0,59.0
878,172.13197072500003,172.60875596250003,63.0,54.0
879,172.13197072500003,173.07839835000001,60.0,52.0
880,172.13197072500003,173.139112575,53.0,48.0
881,173.84625472500002,174.3551827875,61.0,61.0
882,173.84625472500002,174.35696850000002,70.0,63.0
883,173.84625472500002,174.54803973750003,66.0,59.0
884,173.84625472500002,174.64625392500002,42.0,72.0
885,174.70339672500003,174.760539525,61.0,64.0
886,174.70339672500003,174.87839655000002,68.0,64.0
887,174.70339672500003,175.17303911250002,44.0,56.0
888,174.70339672500003,175.19446766250002,70.0,58.0
889,175.131967725,175.69803858750004,72.0,73.0
890,175.56053872500001,175.86946698750003,65.0,56.0
891,175.56053872500001,175.92482407500003,68.0,62.0
892,175.98910972500002,176.06410965000003,73.0,36.0
893,176.41768072500003,176.5873234125,77.0,59.0
894,176.41768072500003,176.71053757500002,85.0,72.0
895,175.56053872500001,176.82125175000002,49.0,64.0
896,176.41768072500003,176.831966025,61.0,44.0
897,175.98910972500002,176.85160886250003,56.0,45.0
898,176.84625172500003,177.03196582500001,75.0,53.0
899,176.84625172500003,177.28375128750002,84.0,52.0
900,177.27482272500004,177.58017956250004,80.0,64.0
901,177.27482272500004,177.63017951250004,75.0,61.0
902,178.13196472500002,178.41589301250002,68.0,52.0
903,177.91767922500003,178.55339287500001,65.0,66.0
904,177.703393725,178.57303571250003,60.0,43.0
905,177.27482272500004,178.61232138750003,53.0,67.0
906,178.34625022500003,178.62124995000002,72.0,59.0
907,178.56053572500002,178.80696405000003,73.0,60.0
908,178.98910672500003,179.5801775625,73.0,64.0
909,178.98910672500003,179.60517753750003,65.0,55.0
910,178.98910672500003,179.61589181250002,68.0,57.0
911,178.98910672500003,180.10160561250004,58.0,61.0
912,179.846248725,180.10339132500002,68.0,67.0
913,179.846248725,180.12303416250003,65.0,66.0
914,179.846248725,180.12839130000003,73.0,66.0
915,180.27481972500001,180.48374808750003,70.0,36.0
916,180.70339072500002,180.98017616250002,61.0,57.0
917,180.70339072500002,181.07660463750003,66.0,57.0
918,180.70339072500002,181.08553320000001,70.0,62.0
919,181.13196172500002,181.36946148750002,61.0,57.0
920,180.70339072500002,181.39089003750001,58.0,56.0
921,181.13196172500002,181.53017561250002,68.0,62.0
922,181.56053272500003,181.89803238750002,58.0,63.0
923,180.70339072500002,181.91588951250003,51.0,48.0
924,181.56053272500003,181.97481802500002,70.0,72.0
925,181.56053272500003,181.98910372500004,61.0,60.0
926,181.98910372500004,182.35517478750003,73.0,72.0
927,182.417674725,182.69981730000003,68.0,61.0
928,182.417674725,182.7123172875,72.0,64.0
929,182.417674725,182.74267440000003,63.0,58.0
930,183.06053122500003,183.24088818750002,61.0,64.0
931,183.27481672500002,183.53017361250002,63.0,59.0
932,182.84624572500002,183.56053072500004,56.0,59.0
933,182.63196022500003,183.6283878,51.0,67.0
934,182.417674725,183.69267345000003,44.0,64.0
935,183.489102225,183.71945913750002,65.0,61.0
936,183.70338772500003,183.95517318750004,66.0,70.0
937,184.13195872500003,184.60874396250003,56.0,60.0
938,184.13195872500003,184.61588681250004,61.0,62.0
939,184.13195872500003,184.64267250000003,68.0,59.0
940,183.91767322500002,184.65695820000002,65.0,63.0
941,184.56052972500004,185.23195762500004,49.0,39.0
942,184.98910072500001,185.48017166250003,68.0,44.0
943,184.98910072500001,185.48731451250003,61.0,76.0
944,184.13195872500003,185.49267165000003,37.0,72.0
945,184.98910072500001,185.49624307500002,56.0,67.0
946,184.98910072500001,185.51231448750002,65.0,76.0
947,185.41767172500002,185.7551713875,49.0,66.0
948,185.84624272500002,186.55338487500003,68.0,61.0
949,185.84624272500002,186.55517058750002,56.0,63.0
950,185.84624272500002,186.5658848625,60.0,67.0
951,185.84624272500002,186.5658848625,63.0,70.0
952,185.84624272500002,186.8658845625,48.0,69.0
953,186.70338472500003,187.16945568750003,60.0,67.0
954,186.70338472500003,187.18552710000003,68.0,61.0
955,186.70338472500003,187.20159851250003,56.0,66.0
956,186.70338472500003,187.25338417500004,63.0,70.0
957,187.131955725,187.56588386250002,48.0,59.0
958,187.56052672500002,188.01766912500003,66.0,69.0
959,187.56052672500002,188.0373119625,58.0,66.0
960,187.56052672500002,188.0373119625,61.0,69.0
961,187.56052672500002,188.10338332500004,42.0,67.0
962,187.56052672500002,188.19266895,54.0,62.0
963,187.98909772500002,188.27302601250003,63.0,58.0
964,188.41766872500003,188.85159686250003,65.0,72.0
965,188.41766872500003,188.87302541250003,61.0,64.0
966,188.41766872500003,188.89088253750003,51.0,67.0
967,188.41766872500003,188.91409680000004,44.0,69.0
968,188.41766872500003,188.95695390000003,56.0,55.0
969,188.84623972500003,189.14981085000002,63.0,66.0
970,189.27481072500004,189.73373883750003,65.0,69.0
971,189.27481072500004,189.76231023750003,61.0,64.0
972,189.27481072500004,189.76588166250002,56.0,59.0
973,189.703381725,190.35338107500002,53.0,44.0
974,189.27481072500004,190.37838105000003,49.0,67.0
975,190.13195272500002,190.56588086250002,61.0,67.0
976,190.13195272500002,190.61766652500003,56.0,61.0
977,190.13195272500002,190.63552365000004,65.0,70.0
978,190.56052372500002,190.66409505000001,49.0,67.0
979,190.98909472500003,191.50873706250002,56.0,62.0
980,190.98909472500003,191.51230848750004,63.0,66.0
981,190.98909472500003,191.51587991250003,60.0,63.0
982,190.98909472500003,191.53195132500002,68.0,61.0
983,190.98909472500003,191.97480802500002,53.0,55.0
984,191.846236725,192.25873631250002,68.0,55.0
985,190.98909472500003,192.26230773750004,41.0,58.0
986,191.846236725,192.26587916250003,56.0,61.0
987,191.846236725,192.26587916250003,60.0,64.0
988,191.846236725,192.28552200000001,63.0,70.0
989,192.27480772500002,192.38016476250002,53.0,61.0
990,192.70337872500002,192.96944988750002,61.0,59.0
991,192.70337872500002,193.08016406250002,70.0,59.0
992,192.70337872500002,193.11052117500003,65.0,64.0
993,193.13194972500003,193.467663675,61.0,52.0
994,193.13194972500003,193.52480647500002,68.0,64.0
995,193.56052072500003,193.85337757500002,61.0,45.0
996,193.56052072500003,193.90337752500002,58.0,60.0
997,193.56052072500003,193.917663225,70.0,59.0
998,193.56052072500003,193.95694890000001,65.0,63.0
999,192.70337872500002,193.97123460000003,46.0,63.0
1000,193.13194972500003,193.98909172500004,53.0,49.0
1001,193.98909172500004,194.13194872500003,58.0,40.0
1002,193.98909172500004,194.27659143750003,61.0,69.0
1003,194.417662725,194.79444806250004,70.0,64.0
1004,194.417662725,194.82480517500002,61.0,63.0
1005,194.417662725,194.83730516250003,66.0,64.0
1006,194.417662725,194.86230513750002,54.0,69.0
1007,194.84623372500002,194.92480507500002,58.0,58.0
1008,195.27480472500002,195.59623297500002,61.0,64.0
1009,195.27480472500002,195.6837328875,66.0,66.0
1010,195.27480472500002,195.70337572500003,70.0,64.0
1011,195.70337572500003,196.08194677500003,73.0,66.0
1012,196.13194672500003,196.54087488750002,44.0,62.0
1013,196.13194672500003,196.58194627500004,68.0,69.0
1014,196.13194672500003,196.61408910000003,72.0,66.0
1015,196.56051772500004,196.83373173750002,56.0,51.0
1016,196.77480322500003,197.12480287500003,58.0,54.0
1017,196.98908872500002,197.14623142500002,60.0,56.0
1018,197.20337422500003,197.38551690000003,68.0,63.0
1019,197.41765972500002,197.6712309,73.0,57.0
1020,197.63194522500004,197.83373073750002,75.0,59.0
1021,197.84623072500003,198.2265874875,77.0,69.0
1022,197.84623072500003,198.24980175000002,68.0,61.0
1023,198.27480172500003,198.75872981250004,56.0,46.0
1024,198.70337272500004,198.9265867875,65.0,60.0
1025,198.70337272500004,198.95337247500004,68.0,62.0
1026,198.70337272500004,198.95337247500004,73.0,66.0
1027,198.70337272500004,198.97122960000002,61.0,55.0
1028,197.84623072500003,199.03015811250003,49.0,72.0
1029,198.91765822500003,199.15158656250003,56.0,57.0
1030,199.131943725,199.30337212500004,65.0,59.0
1031,199.34622922500003,199.65337177500004,73.0,66.0
1032,199.56051472500002,199.9980142875,41.0,70.0
1033,199.56051472500002,200.03908567500002,68.0,62.0
1034,199.56051472500002,200.05694280000003,63.0,61.0
1035,199.56051472500002,200.08551420000003,72.0,72.0
1036,199.98908572500002,200.45694240000003,53.0,56.0
1037,200.41765672500003,200.69265645000002,63.0,64.0
1038,200.41765672500003,200.70158501250003,68.0,73.0
1039,200.41765672500003,200.8587277125,56.0,59.0
1040,200.84622772500003,201.03015611250004,63.0,57.0
1041,201.27479872500004,201.71765542500003,66.0,72.0
1042,201.27479872500004,201.73015541250004,61.0,57.0
1043,201.27479872500004,201.74622682500004,42.0,67.0
1044,201.27479872500004,201.74801253750002,58.0,62.0
1045,201.70336972500002,201.86051242500002,54.0,47.0
1046,202.13194072500002,202.43551185000004,68.0,54.0
1047,202.13194072500002,202.4801546625,63.0,63.0
1048,202.13194072500002,202.52836890000003,44.0,66.0
1049,202.13194072500002,202.56765457500003,60.0,62.0
1050,202.56051172500003,202.76051152500003,61.0,41.0
1051,202.13194072500002,202.91229708750004,56.0,60.0
1052,202.98908272500003,203.30515383750003,61.0,67.0
1053,202.98908272500003,203.34801093750002,65.0,70.0
1054,203.41765372500004,203.91765322500004,56.0,51.0
1055,203.846224725,204.00693885000004,63.0,56.0
1056,203.846224725,204.18729581250003,68.0,61.0
1057,203.846224725,204.22479577500002,61.0,58.0
1058,202.98908272500003,204.32300996250004,49.0,64.0
1059,204.27479572500002,204.36050992500003,56.0,67.0
1060,204.27479572500002,204.37658133750003,65.0,52.0
1061,204.27479572500002,204.53193832500003,70.0,62.0
1062,204.70336672500002,205.08908062500004,41.0,70.0
1063,205.13193772500003,205.45158026250002,53.0,58.0
1064,204.70336672500002,205.567651575,72.0,64.0
1065,204.70336672500002,205.57479442500002,63.0,58.0
1066,204.70336672500002,205.58550870000002,68.0,63.0
1067,205.56050872500003,205.75515138750004,60.0,61.0
1068,205.34622322500002,205.78372278750004,56.0,53.0
1069,205.77479422500002,205.89800838750003,63.0,56.0
1070,205.98907972500004,206.13729386250003,68.0,57.0
1071,206.20336522500003,206.40515073750004,72.0,60.0
1072,206.41765072500002,206.79979320000004,65.0,60.0
1073,206.41765072500002,206.80693605000002,68.0,56.0
1074,206.41765072500002,206.90157881250002,73.0,69.0
1075,206.84622172500002,207.05515008750004,65.0,41.0
1076,206.84622172500002,207.33550695000002,72.0,58.0
1077,206.84622172500002,207.41050687500004,53.0,33.0
1078,207.27479272500003,207.50514963750004,68.0,62.0
1079,207.27479272500003,207.56943528750003,65.0,63.0
1080,207.27479272500003,207.73550655000003,58.0,52.0
1081,206.41765072500002,207.79264935000003,46.0,69.0
1082,207.70336372500003,207.80514933750004,53.0,75.0
1083,208.13193472500004,208.39800588750003,66.0,64.0
1084,208.13193472500004,208.42657728750004,61.0,66.0
1085,208.13193472500004,208.43193442500004,58.0,58.0
1086,208.56050572500004,208.71943413750003,58.0,59.0
1087,208.77479122500003,208.99443386250002,61.0,62.0
1088,208.98907672500002,209.13729086250004,66.0,69.0
1089,209.20336222500003,209.36407635000003,61.0,59.0
1090,208.13193472500004,209.44800483750004,42.0,72.0
1091,209.41764772500002,209.65871891250004,66.0,67.0
1092,208.34622022500002,209.69443316250002,54.0,48.0
1093,209.63193322500004,209.88550440000003,70.0,63.0
1094,209.84621872500003,210.17300411250002,68.0,61.0
1095,210.48907522500002,210.72121785000002,61.0,80.0
1096,210.70336072500004,210.80336062500004,63.0,64.0
1097,209.84621872500003,211.02836040000003,44.0,67.0
1098,210.06050422500002,211.08193177500002,51.0,70.0
1099,210.91764622500003,211.12657458750002,68.0,78.0
1100,210.27478972500003,211.21050307500002,56.0,72.0
1101,211.13193172500002,211.27836015000003,73.0,56.0
1102,211.34621722500003,211.56050272500002,75.0,64.0
1103,211.56050272500002,211.79085963750003,77.0,72.0
1104,211.56050272500002,211.8480024375,49.0,72.0
1105,211.77478822500004,211.98907372500003,56.0,50.0
1106,211.77478822500004,212.08014506250004,68.0,54.0
1107,211.98907372500003,212.24800203750002,73.0,60.0
1108,211.98907372500003,212.24978775000002,61.0,52.0
1109,212.203359225,212.42121615000002,75.0,57.0
1110,212.41764472500003,212.58371598750003,77.0,64.0
1111,212.41764472500003,212.63728736250002,65.0,53.0
1112,212.203359225,212.67478732500004,63.0,49.0
1113,212.63193022500002,212.78371578750003,68.0,54.0
1114,212.84621572500004,213.03192982500002,73.0,60.0
1115,213.06050122500002,213.24800103750002,75.0,55.0
1116,213.27478672500004,213.44264370000002,41.0,73.0
1117,213.48907222500003,213.74800053750002,53.0,66.0
1118,213.27478672500004,213.84085758750004,80.0,69.0
1119,214.13192872500002,214.39085703750004,65.0,64.0
1120,213.91764322500003,214.51942833750002,60.0,56.0
1121,213.70335772500002,214.56049972500003,56.0,59.0
1122,214.34621422500004,214.58014256250001,68.0,56.0
1123,214.56049972500003,214.72299956250004,70.0,53.0
1124,214.77478522500002,214.96049932500003,72.0,62.0
1125,214.98907072500003,215.55692730000004,42.0,72.0
1126,214.98907072500003,215.60871296250002,73.0,78.0
1127,215.20335622500002,215.73192712500003,49.0,63.0
1128,215.41764172500004,215.78014136250002,54.0,76.0
1129,215.63192722500003,215.80692705000004,61.0,54.0
1130,215.84621272500002,216.32656938750003,44.0,69.0
1131,216.06049822500003,216.38192647500003,51.0,69.0
1132,215.84621272500002,216.50514063750003,73.0,73.0
1133,216.27478372500002,216.64799763750003,56.0,64.0
1134,216.48906922500004,216.68371188750004,72.0,70.0
1135,216.70335472500003,217.13371143750004,65.0,62.0
1136,216.70335472500003,217.20156851250002,73.0,59.0
1137,217.34621122500002,217.51228248750002,63.0,58.0
1138,217.56049672500004,217.79263935000003,65.0,66.0
1139,217.13192572500003,217.83906787500004,61.0,67.0
1140,217.77478222500002,217.97656773750003,68.0,56.0
1141,216.70335472500003,218.01585341250004,49.0,73.0
1142,216.91764022500004,218.06585336250004,56.0,55.0
1143,217.98906772500004,218.27835315000002,70.0,64.0
1144,217.98906772500004,218.28728171250003,61.0,61.0
1145,218.20335322500003,218.41228158750002,68.0,63.0
1146,218.41763872500002,218.66406705000003,68.0,53.0
1147,218.41763872500002,218.69799558750003,63.0,61.0
1148,218.84620972500002,219.06585236250004,63.0,55.0
1149,219.06049522500004,219.30870926250003,68.0,72.0
1150,218.63192422500003,219.32835210000002,60.0,62.0
1151,219.27478072500003,219.55870901250003,70.0,63.0
1152,219.48906622500002,219.69620887500002,72.0,63.0
1153,218.41763872500002,219.79442306250002,53.0,67.0
1154,219.70335172500003,219.80335162500003,60.0,72.0
1155,219.70335172500003,219.83906587500002,75.0,57.0
1156,219.91763722500002,220.12299416250002,72.0,51.0
1157,220.13192272500004,220.52477947500003,46.0,72.0
1158,220.34620822500003,220.58727941250004,53.0,70.0
1159,220.56049372500001,220.87477912500003,58.0,69.0
1160,220.13192272500004,220.95335047500004,65.0,60.0
1161,220.13192272500004,221.09977890000002,73.0,73.0
1162,220.98906472500002,221.20335022500004,61.0,72.0
1163,220.77477922500003,221.21942163750003,60.0,56.0
1164,221.20335022500004,221.36942148750003,65.0,52.0
1165,221.41763572500003,221.60513553750002,68.0,52.0
1166,221.63192122500004,221.84620672500003,73.0,64.0
1167,221.84620672500003,222.24620632500003,61.0,63.0
1168,221.84620672500003,222.29442056250002,66.0,67.0
1169,221.84620672500003,222.30156341250003,70.0,76.0
1170,222.27477772500004,222.69799158750004,68.0,72.0
1171,222.70334872500004,222.92299136250003,61.0,66.0
1172,222.27477772500004,223.02656268750002,54.0,56.0
1173,222.70334872500004,223.10870546250004,70.0,78.0
1174,221.84620672500003,223.15691970000003,42.0,75.0
1175,223.13191972500002,223.20513393750002,66.0,55.0
1176,223.13191972500002,223.48549080000004,54.0,61.0
1177,223.13191972500002,223.48727651250002,73.0,73.0
1178,223.56049072500002,223.99441886250003,63.0,66.0
1179,223.56049072500002,224.01584741250002,72.0,73.0
1180,223.56049072500002,224.02120455000002,68.0,64.0
1181,223.98906172500003,224.49977550000003,51.0,57.0
1182,224.41763272500003,224.86227513750003,63.0,63.0
1183,223.56049072500002,224.87834655000003,44.0,73.0
1184,224.41763272500003,224.88906082500003,68.0,66.0
1185,224.41763272500003,225.19263195000002,72.0,70.0
1186,224.84620372500004,225.26406045000002,51.0,55.0
1187,224.41763272500003,225.26763187500003,56.0,53.0
1188,225.27477472500004,225.53727446250002,68.0,67.0
1189,225.27477472500004,225.88548840000004,73.0,62.0
1190,225.70334572500002,226.11763102500004,66.0,60.0
1191,225.70334572500002,226.20513093750003,56.0,56.0
1192,226.13191672500002,226.46763067500004,68.0,69.0
1193,226.13191672500002,226.59798768750002,61.0,51.0
1194,226.56048772500003,226.90691595000004,70.0,52.0
1195,226.98905872500004,227.21762992500004,65.0,54.0
1196,226.98905872500004,227.44084398750002,68.0,58.0
1197,226.98905872500004,227.48548680000002,73.0,55.0
1198,225.27477472500004,227.97477202500002,49.0,61.0
1199,226.56048772500003,227.98370058750004,56.0,45.0
1200,227.84620072500002,228.03191482500003,68.0,61.0
1201,226.98905872500004,228.08191477500003,61.0,52.0
1202,228.06048622500003,228.21405750000002,73.0,60.0
1203,228.27477172500002,228.46584296250003,75.0,55.0
1204,228.48905722500004,228.77477122500002,77.0,61.0
1205,228.70334272500003,229.16584226250004,75.0,69.0
1206,228.70334272500003,229.18548510000002,68.0,47.0
1207,229.13191372500003,229.52298476250002,73.0,63.0
1208,229.56048472500004,229.84262730000003,66.0,51.0
1209,228.70334272500003,229.89262725000003,54.0,62.0
1210,229.56048472500004,229.94619862500002,70.0,64.0
1211,229.13191372500003,229.98727001250003,61.0,44.0
1212,229.98905572500004,230.17298411250002,56.0,60.0
1213,229.98905572500004,230.34976965000004,68.0,57.0
1214,230.41762672500002,230.86941198750003,68.0,64.0
1215,230.41762672500002,231.06405465000003,65.0,54.0
1216,231.27476872500003,231.54798273750004,63.0,58.0
1217,231.27476872500003,231.57476842500003,68.0,63.0
1218,230.41762672500002,231.64441121250002,49.0,69.0
1219,230.84619772500002,231.68012546250003,56.0,40.0
1220,231.27476872500003,231.70691115000002,61.0,50.0
1221,231.70333972500003,231.79441106250002,65.0,78.0
1222,232.13191072500004,232.42298186250002,63.0,53.0
1223,232.13191072500004,232.45333897500004,68.0,57.0
1224,232.13191072500004,232.55512458750002,72.0,60.0
1225,232.56048172500002,232.94798133750004,70.0,57.0
1226,232.98905272500002,233.09083833750003,72.0,66.0
1227,232.98905272500002,233.11583831250002,68.0,59.0
1228,232.98905272500002,233.23369533750002,65.0,49.0
1229,232.56048172500002,233.31226668750003,60.0,44.0
1230,232.13191072500004,233.31762382500003,53.0,63.0
1231,233.41762372500003,233.55155216250003,75.0,60.0
1232,233.84619472500003,234.12476587500004,65.0,56.0
1233,233.84619472500003,234.21048007500002,68.0,57.0
1234,233.84619472500003,234.40690845000003,73.0,61.0
1235,234.27476572500004,234.40869416250004,65.0,48.0
1236,234.27476572500004,234.59976540000002,72.0,55.0
1237,234.70333672500004,234.80869376250004,65.0,53.0
1238,234.70333672500004,234.92655078750002,58.0,55.0
1239,234.70333672500004,234.95333647500004,68.0,63.0
1240,234.27476572500004,234.98905072500003,53.0,44.0
1241,233.84619472500003,234.99262215000002,46.0,58.0
1242,235.13190772500002,235.27476472500004,65.0,58.0
1243,235.56047872500002,235.94083548750004,66.0,57.0
1244,235.56047872500002,235.97297831250003,70.0,62.0
1245,235.56047872500002,235.98190687500002,61.0,60.0
1246,235.98904972500003,236.26047802500003,68.0,52.0
1247,236.41762072500003,236.59619197500004,61.0,59.0
1248,236.41762072500003,236.79262035000002,70.0,70.0
1249,235.56047872500002,236.82833460000003,42.0,69.0
1250,235.98904972500003,236.84976315000003,54.0,38.0
1251,236.84619172500004,237.25511988750003,73.0,69.0
1252,237.27476272500004,237.64083378750004,68.0,49.0
1253,237.27476272500004,237.77654793750003,63.0,52.0
1254,237.27476272500004,237.82654788750003,72.0,57.0
1255,237.27476272500004,238.33904737500004,44.0,59.0
1256,238.13190472500003,238.35869021250002,75.0,57.0
1257,238.13190472500003,238.39440446250003,68.0,58.0
1258,237.27476272500004,238.41761872500004,56.0,45.0
1259,238.98904672500004,239.84976015000004,65.0,48.0
1260,238.98904672500004,240.08725991250003,73.0,62.0
1261,240.67118790000004,240.82833060000004,85.0,33.0
1262,240.68904502500004,241.26404445000003,89.0,45.0
1263,240.81940203750003,241.26940158750003,92.0,24.0
1264,240.86940198750003,241.33368723750004,97.0,53.0
1265,238.98904672500004,241.39797288750003,49.0,70.0
