,start,end,pitch,velocity
0,16.751999935416666,17.0201448375,68.0,108.0
1,16.993935185416667,17.23385430833333,70.0,93.0
2,17.235870435416665,17.477805685416666,70.0,98.0
3,17.477805685416666,17.719740935416667,68.0,98.0
4,17.719740935416667,18.20159530833333,70.0,107.0
5,18.203611435416665,18.445546685416666,70.0,94.0
6,18.445546685416666,18.685465808333333,68.0,102.0
7,18.687481935416667,18.929417185416664,68.0,87.0
8,18.929417185416664,19.16933630833333,70.0,89.0
9,19.171352435416665,19.413287685416666,70.0,100.0
10,19.413287685416666,19.897158185416664,68.0,98.0
11,19.897158185416664,24.493927935416664,70.0,110.0
12,24.493927935416664,24.7378793125,68.0,93.0
13,24.735863185416665,24.975782308333333,70.0,89.0
14,24.977798435416666,25.219733685416664,70.0,91.0
15,25.219733685416664,25.45965280833333,68.0,85.0
16,25.461668935416665,25.703604185416665,68.0,89.0
17,25.703604185416665,25.943523308333333,70.0,89.0
18,25.945539435416666,26.187474685416664,70.0,92.0
19,26.187474685416664,26.42739380833333,68.0,88.0
20,26.429409935416665,26.681425820833333,68.0,100.0
21,26.671345185416666,26.911264308333333,70.0,93.0
22,26.913280435416667,27.155215685416664,70.0,91.0
23,27.155215685416664,27.639086185416666,68.0,91.0
24,27.639086185416666,31.026179685416665,70.0,96.0
25,31.026179685416665,31.268114935416666,66.0,92.0
26,31.268114935416666,31.74996930833333,73.0,110.0
27,31.751985435416664,31.99190455833333,73.0,108.0
28,31.993920685416665,32.71972643541667,73.0,110.0
29,32.71972643541667,32.99190359166666,66.0,107.0
30,32.961661685416665,33.687467435416664,70.0,113.0
31,33.687467435416664,33.92940268541666,68.0,104.0
32,33.92940268541666,34.413273185416664,70.0,113.0
33,34.413273185416664,35.13907893541666,71.0,116.0
34,35.13907893541666,35.620933308333335,73.0,116.0
35,35.622949435416665,35.86286855833333,73.0,110.0
36,35.86488468541666,36.59069043541666,73.0,116.0
37,36.59069043541666,36.83060955833333,70.0,110.0
38,36.832625685416666,37.558431435416665,70.0,110.0
39,37.558431435416665,37.80036668541666,68.0,104.0
40,37.80036668541666,38.284237185416664,70.0,113.0
41,38.284237185416664,39.010042935416664,73.0,114.0
42,39.010042935416664,39.49189730833333,75.0,117.0
43,39.493913435416665,39.73383255833333,75.0,114.0
44,39.73584868541666,40.46165443541666,75.0,119.0
45,40.46165443541666,40.70358968541667,71.0,116.0
46,40.70358968541667,41.429395435416666,70.0,113.0
47,41.429395435416666,41.67133068541666,68.0,110.0
48,41.67133068541666,42.155201185416665,70.0,114.0
49,42.155201185416665,42.881006935416664,71.0,123.0
50,42.881006935416664,43.36286130833333,75.0,117.0
51,43.364877435416666,43.604796558333334,75.0,113.0
52,43.606812685416664,44.33261843541666,75.0,113.0
53,44.33261843541666,44.57253755833333,73.0,110.0
54,44.57455368541667,48.687452935416665,73.0,116.0
55,48.687452935416665,49.17132343541667,70.0,114.0
56,49.17132343541667,49.65519393541666,73.0,113.0
57,49.65519393541666,50.139064435416664,70.0,119.0
58,50.139064435416664,50.622934935416666,73.0,114.0
59,50.622934935416666,52.558416935416666,80.0,117.0
60,52.558416935416666,53.04228743541666,77.0,117.0
61,53.04228743541666,53.52615793541666,78.0,114.0
62,53.52615793541666,54.010028435416665,77.0,119.0
63,54.010028435416665,54.49389893541667,78.0,116.0
64,54.49389893541667,56.42736480833333,73.0,117.0
65,56.42938093541667,56.70155809166666,73.0,114.0
66,56.671316185416664,56.91123530833333,71.0,106.0
67,56.91325143541666,57.155186685416666,71.0,116.0
68,57.155186685416666,57.39712193541666,70.0,108.0
69,57.39712193541666,57.68139585416667,71.0,119.0
70,57.63905718541666,58.12091155833333,73.0,114.0
71,58.12292768541666,58.606798185416665,73.0,116.0
72,58.606798185416665,58.84671730833333,71.0,113.0
73,58.84873343541666,59.09066868541667,71.0,113.0
74,59.09066868541667,59.332603935416664,70.0,113.0
75,59.332603935416664,59.57453918541666,71.0,119.0
76,59.57453918541666,61.268085935416664,73.0,113.0
77,61.268085935416664,61.584617887499995,75.0,116.0
78,61.51002118541666,61.99389168541666,73.0,114.0
79,61.99389168541666,62.477762185416665,66.0,114.0
80,62.477762185416665,64.17130893541666,68.0,116.0
81,64.17130893541666,64.65517943541667,70.0,114.0
82,64.65517943541667,65.13904993541666,73.0,113.0
83,65.13904993541666,65.62292043541666,70.0,119.0
84,65.62292043541666,66.10679093541667,73.0,114.0
85,66.10679093541667,68.04227293541666,80.0,117.0
86,68.04227293541666,68.52614343541666,77.0,117.0
87,68.52614343541666,69.01001393541667,78.0,114.0
88,69.01001393541667,69.49388443541666,77.0,119.0
89,69.49388443541666,69.97775493541667,78.0,116.0
90,69.97775493541667,70.94549593541666,80.0,117.0
91,70.94549593541666,71.91323693541666,78.0,117.0
92,71.91323693541666,73.84871893541666,82.0,120.0
93,73.84871893541666,74.36887972291666,78.0,119.0
94,74.33258943541666,74.63500849791666,75.0,113.0
95,74.57452468541666,75.30033043541667,73.0,117.0
96,75.30033043541667,75.78420093541666,70.0,110.0
97,75.78420093541666,77.71968293541666,68.0,114.0
98,77.71968293541666,78.20355343541667,70.0,116.0
99,78.20355343541667,78.68742393541666,68.0,114.0
100,78.68742393541666,79.65516493541666,66.0,114.0
101,79.65516493541666,80.13903543541666,65.0,113.0
102,80.13903543541666,90.30031593541666,66.0,114.0
103,90.30031593541666,90.5684608375,68.0,108.0
104,90.54225118541666,90.78217030833333,70.0,93.0
105,90.78418643541666,91.02612168541665,70.0,98.0
106,91.02612168541665,91.26604080833333,68.0,98.0
107,91.26805693541667,91.52007282083333,68.0,107.0
108,91.50999218541666,91.76200807083333,70.0,107.0
109,91.75192743541666,91.76200807083333,70.0,94.0
110,91.99386268541666,92.23378180833333,68.0,102.0
111,92.23579793541666,92.47773318541667,68.0,87.0
112,92.47773318541667,92.71765230833333,70.0,89.0
113,92.71966843541666,92.96160368541666,70.0,100.0
114,92.96160368541666,93.20353893541666,68.0,98.0
115,93.20353893541666,98.04224393541666,70.0,110.0
116,98.04224393541666,98.2861953125,68.0,93.0
117,98.28417918541666,98.52409830833332,70.0,89.0
118,98.52611443541666,98.76804968541666,70.0,91.0
119,98.76804968541666,99.00796880833333,68.0,85.0
120,99.00998493541667,99.25192018541667,68.0,89.0
121,99.25192018541667,99.49183930833333,70.0,89.0
122,99.49385543541666,99.73579068541666,70.0,92.0
123,99.73579068541666,99.97772593541666,73.0,88.0
124,99.97772593541666,100.22974182083333,78.0,100.0
125,100.21966118541665,100.46159643541667,77.0,93.0
126,100.46159643541667,100.70353168541666,75.0,91.0
127,100.70353168541666,100.97974109583333,73.0,91.0
128,100.94546693541666,104.57449568541666,75.0,96.0
129,104.57449568541666,104.81643093541666,66.0,92.0
130,104.81643093541666,105.29828530833333,73.0,110.0
131,105.30030143541666,105.54022055833333,73.0,108.0
132,105.54223668541665,106.26804243541666,73.0,110.0
133,106.26804243541666,106.54021959166666,66.0,107.0
134,106.50997768541666,107.23578343541666,70.0,113.0
135,107.23578343541666,107.47771868541666,68.0,104.0
136,107.47771868541666,107.96158918541666,70.0,113.0
137,107.96158918541666,108.68739493541666,71.0,116.0
138,108.68739493541666,109.16924930833333,73.0,116.0
139,109.17126543541666,109.41118455833333,73.0,110.0
140,109.41320068541665,110.13900643541666,73.0,116.0
141,110.13900643541666,110.37892555833332,70.0,110.0
142,110.38094168541666,111.10674743541666,70.0,110.0
143,111.10674743541666,111.34868268541666,68.0,104.0
144,111.34868268541666,111.83255318541666,70.0,113.0
145,111.83255318541666,112.55835893541666,73.0,114.0
146,112.55835893541666,113.04021330833332,75.0,117.0
147,113.04222943541666,113.28214855833333,75.0,114.0
148,113.28416468541666,114.00997043541666,75.0,119.0
149,114.00997043541666,114.25190568541666,71.0,116.0
150,114.25190568541666,114.97771143541667,70.0,113.0
151,114.97771143541667,115.21964668541666,68.0,110.0
152,115.21964668541666,115.70351718541666,70.0,114.0
153,115.70351718541666,116.42932293541666,71.0,123.0
154,116.42932293541666,116.91117730833332,78.0,117.0
155,116.91319343541666,117.15512868541666,78.0,113.0
156,117.15512868541666,117.63899918541667,80.0,113.0
157,117.63899918541667,117.88093443541666,77.0,102.0
158,117.88093443541666,118.36480493541666,75.0,100.0
159,118.36480493541666,120.30028693541666,73.0,113.0
160,120.30028693541666,120.78415743541666,70.0,114.0
161,120.78415743541666,121.26802793541665,73.0,113.0
162,121.26802793541665,121.75189843541666,70.0,119.0
163,121.75189843541666,122.23576893541666,73.0,114.0
164,122.23576893541666,124.17125093541667,80.0,117.0
165,124.17125093541667,124.65512143541666,77.0,117.0
166,124.65512143541666,125.13899193541666,78.0,114.0
167,125.13899193541666,125.62286243541666,77.0,119.0
168,125.62286243541666,126.10673293541666,78.0,116.0
169,126.10673293541666,128.04019880833332,73.0,117.0
170,128.04221493541667,128.31439209166666,73.0,114.0
171,128.28415018541665,128.52406930833334,71.0,106.0
172,128.52608543541666,128.76802068541667,71.0,116.0
173,128.76802068541667,129.00995593541666,70.0,108.0
174,129.00995593541666,129.29422985416667,71.0,119.0
175,129.25189118541667,129.73374555833334,73.0,114.0
176,129.73576168541666,130.21963218541666,73.0,116.0
177,130.21963218541666,130.45955130833332,71.0,113.0
178,130.46156743541667,130.70350268541665,71.0,113.0
179,130.70350268541665,130.94543793541666,70.0,113.0
180,130.94543793541666,131.18737318541665,71.0,119.0
181,131.18737318541665,132.88091993541667,73.0,113.0
182,132.88091993541667,133.1974518875,75.0,116.0
183,133.12285518541665,133.60672568541665,73.0,114.0
184,133.60672568541665,134.09059618541667,66.0,114.0
185,134.09059618541667,135.78414293541667,68.0,116.0
186,135.78414293541667,136.26801343541666,70.0,114.0
187,136.26801343541666,136.75188393541666,73.0,113.0
188,136.75188393541666,137.23575443541665,70.0,119.0
189,137.23575443541665,137.71962493541665,73.0,114.0
190,137.71962493541665,139.65510693541665,80.0,117.0
191,139.65510693541665,140.13897743541665,77.0,117.0
192,140.13897743541665,140.62284793541667,78.0,114.0
193,140.62284793541667,141.10671843541667,77.0,119.0
194,141.10671843541667,141.59058893541666,78.0,116.0
195,141.59058893541666,143.04018430833332,80.0,117.0
196,143.04220043541665,143.52607093541667,80.0,114.0
197,143.52607093541667,144.49381193541666,78.0,116.0
198,144.49381193541666,145.46155293541665,85.0,116.0
199,145.46155293541665,147.39703493541666,78.0,117.0
200,147.39703493541666,147.88090543541665,82.0,116.0
201,147.88090543541665,148.12082455833334,80.0,108.0
202,148.12284068541666,148.84864643541667,80.0,114.0
203,148.84864643541667,149.09058168541665,78.0,113.0
204,149.09058168541665,149.81638743541666,75.0,113.0
205,149.81638743541666,151.74985330833331,73.0,104.0
206,151.75186943541667,152.23573993541666,73.0,107.0
207,152.23573993541666,155.62283343541665,78.0,117.0
208,155.62283343541665,155.86476868541666,75.0,114.0
209,155.86476868541666,156.34863918541666,77.0,116.0
210,156.34863918541666,156.83049355833333,78.0,116.0
211,156.83250968541665,157.55831543541666,78.0,114.0
212,157.55831543541666,157.80025068541667,77.0,114.0
213,157.80025068541667,158.28412118541667,78.0,114.0
214,158.28412118541667,159.49379743541667,80.0,117.0
215,159.49379743541667,159.73573268541665,70.0,96.0
216,159.73573268541665,160.21758705833332,73.0,110.0
217,160.21960318541664,160.70347368541667,73.0,107.0
218,160.70347368541667,161.42927943541665,77.0,117.0
219,161.42927943541665,161.68734370208333,78.0,120.0
220,161.67121468541666,162.15508518541665,77.0,108.0
221,162.15508518541665,163.36476143541665,73.0,114.0
222,163.36476143541665,163.60669668541667,75.0,113.0
223,163.60669668541667,164.09056718541666,77.0,114.0
224,164.09056718541666,165.30024343541666,78.0,117.0
225,165.30024343541666,165.54217868541664,75.0,108.0
226,165.54217868541664,166.02604918541667,77.0,113.0
227,166.02604918541667,166.50991968541666,78.0,114.0
228,166.50991968541666,166.75185493541665,73.0,94.0
229,166.75185493541665,167.96153118541665,82.0,116.0
230,167.96153118541665,168.20346643541666,83.0,116.0
231,168.20346643541666,168.68733693541665,82.0,110.0
232,168.68733693541665,175.46152393541666,80.0,116.0
233,175.46152393541666,175.94539443541666,72.0,114.0
234,175.94539443541666,176.42926493541665,75.0,113.0
235,176.42926493541665,176.91313543541665,72.0,119.0
236,176.91313543541665,177.39700593541664,75.0,114.0
237,177.39700593541664,179.33248793541665,82.0,117.0
238,179.33248793541665,179.81635843541665,79.0,117.0
239,179.81635843541665,180.30022893541667,80.0,114.0
240,180.30022893541667,180.78409943541666,79.0,119.0
241,180.78409943541666,181.26796993541666,80.0,116.0
242,181.26796993541666,183.20143580833331,75.0,117.0
243,183.20345193541667,183.47562909166666,75.0,114.0
244,183.44538718541665,183.6853063083333,73.0,106.0
245,183.68732243541666,183.92925768541664,73.0,116.0
246,183.92925768541664,184.17119293541666,72.0,108.0
247,184.17119293541666,184.45546685416664,73.0,119.0
248,184.41312818541667,184.8949825583333,75.0,114.0
249,184.89699868541666,185.38086918541666,75.0,116.0
250,185.38086918541666,185.62078830833332,73.0,113.0
251,185.62280443541667,185.86473968541665,73.0,113.0
252,185.86473968541665,186.10667493541666,72.0,113.0
253,186.10667493541666,186.34861018541665,73.0,119.0
254,186.34861018541665,188.04215693541667,75.0,113.0
255,188.04215693541667,188.3586888875,77.0,116.0
256,188.28409218541665,188.76796268541665,75.0,114.0
257,188.76796268541665,189.25183318541664,68.0,114.0
258,189.25183318541664,190.94537993541667,70.0,116.0
259,190.94537993541667,191.42925043541666,72.0,114.0
260,191.42925043541666,191.91312093541666,75.0,113.0
261,191.91312093541666,192.39699143541665,72.0,119.0
262,192.39699143541665,192.88086193541665,75.0,114.0
263,192.88086193541665,194.81634393541665,82.0,117.0
264,194.81634393541665,195.30021443541665,79.0,117.0
265,195.30021443541665,195.78408493541664,80.0,114.0
266,195.78408493541664,196.26795543541667,79.0,119.0
267,196.26795543541667,196.75182593541666,80.0,116.0
268,196.75182593541666,198.20142130833332,82.0,117.0
269,198.20343743541665,198.68730793541667,82.0,114.0
270,198.68730793541667,199.65504893541666,80.0,116.0
271,199.65504893541666,200.62278993541665,87.0,116.0
272,200.62278993541665,202.55827193541666,80.0,117.0
273,202.55827193541666,203.04214243541665,84.0,116.0
274,203.04214243541665,203.2820615583333,82.0,108.0
275,203.28407768541666,204.00988343541667,82.0,114.0
276,204.00988343541667,204.25181868541665,80.0,113.0
277,204.25181868541665,204.97762443541666,77.0,113.0
278,204.97762443541666,210.30019993541666,75.0,104.0
279,210.30019993541666,210.78407043541665,84.0,114.0
280,210.78407043541665,211.0239895583333,87.0,110.0
281,211.02600568541666,211.26592480833332,87.0,85.0
282,211.26794093541665,211.50987618541666,87.0,110.0
283,211.50987618541666,211.75181143541664,85.0,102.0
284,211.75181143541664,212.90302,84.0,93.0
