,start,end,pitch,velocity
0,0.3004029354166666,1.7036273854166666,47.0,85.0
1,1.2681439354166666,1.8709659333333333,59.0,76.0
2,0.7842734354166666,2.1431430895833334,54.0,71.0
3,1.7520144354166667,2.28023973125,63.0,74.0
4,2.2358849354166663,3.8346737125,49.0,83.0
5,3.2036259354166665,3.9677380999999996,61.0,82.0
6,3.6874964354166666,4.157254045833333,65.0,72.0
7,2.7197554354166664,4.199592714583333,56.0,73.0
8,5.139107935416666,7.290315533333333,63.0,80.0
9,4.655237435416667,7.401202522916666,58.0,78.0
10,4.171366935416667,7.508057258333333,51.0,87.0
11,5.622978435416666,7.691524822916667,66.0,80.0
12,8.042330935416667,9.55039399375,47.0,80.0
13,9.010071935416667,9.578619772916666,59.0,76.0
14,8.526201435416667,9.715716414583333,54.0,70.0
15,9.493942435416667,10.080635416666667,63.0,71.0
16,9.977812935416667,11.604827491666667,49.0,76.0
17,10.945553935416665,11.614908127083332,61.0,80.0
18,10.461683435416665,11.895149791666666,56.0,64.0
19,11.429424435416665,11.935472333333333,65.0,79.0
20,13.364906435416666,13.814502775,70.0,74.0
21,12.881035935416666,15.072566075,63.0,72.0
22,13.848776935416666,15.120953125,66.0,78.0
23,12.397165435416666,15.173372429166665,58.0,71.0
24,11.913294935416666,15.1935337,51.0,81.0
25,16.268129435416665,16.810467620833332,59.0,83.0
26,16.510064685416665,16.8265966375,63.0,83.0
27,16.751999935416666,17.419338,71.0,90.0
28,16.993935185416667,17.459660541666665,59.0,82.0
29,17.235870435416665,17.495950829166667,63.0,79.0
30,15.784258935416666,17.52417660833333,47.0,85.0
31,16.026194185416667,17.737886079166667,54.0,76.0
32,17.477805685416666,18.423369287499998,66.0,88.0
33,18.203611435416665,18.68344968125,61.0,79.0
34,18.929417185416664,19.243933010416665,61.0,77.0
35,17.719740935416667,19.3185297125,49.0,84.0
36,18.445546685416666,19.33667485625,68.0,92.0
37,19.171352435416665,19.71167449375,65.0,86.0
38,17.961676185416664,19.731835764583334,56.0,76.0
39,20.139093435416665,20.590705902083332,63.0,83.0
40,20.381028685416666,21.129011833333333,70.0,93.0
41,20.864899185416665,21.312479397916665,63.0,79.0
42,21.106834435416665,21.330624541666666,68.0,86.0
43,19.655222935416667,21.453608293749998,51.0,84.0
44,19.897158185416664,21.60683395208333,58.0,50.0
45,21.348769685416666,22.05844641875,66.0,87.0
46,22.074575435416666,22.26005912708333,63.0,81.0
47,22.316510685416667,22.522155647916666,70.0,107.0
48,21.832640185416665,22.633042637499997,58.0,78.0
49,22.558445935416664,23.042316435416666,68.0,93.0
50,22.800381185416665,23.070542214583334,58.0,87.0
51,21.590704935416664,23.14917117083333,51.0,84.0
52,23.042316435416666,23.560461095833332,66.0,88.0
53,23.284251685416667,23.566509477083333,63.0,72.0
54,24.251992685416667,24.43142799583333,63.0,80.0
55,24.010057435416666,24.55844400208333,59.0,83.0
56,23.526186935416664,25.1733627625,47.0,87.0
57,24.493927935416664,25.17537888958333,70.0,104.0
58,24.977798435416666,25.27618524375,59.0,77.0
59,23.768122185416665,25.413281885416666,54.0,81.0
60,25.219733685416664,25.747958981249997,66.0,84.0
61,25.945539435416666,26.260055260416664,61.0,73.0
62,25.703604185416665,26.3104584375,56.0,81.0
63,25.461668935416665,27.088683491666664,49.0,87.0
64,26.187474685416664,27.18747371875,68.0,113.0
65,26.913280435416667,27.191505972916666,61.0,80.0
66,26.671345185416666,27.425376714583333,56.0,80.0
67,27.155215685416664,27.520134687499997,65.0,86.0
68,27.881021435416667,28.026182585416667,63.0,75.0
69,27.639086185416666,28.268117835416664,58.0,81.0
70,28.122956685416664,28.87698821458333,66.0,114.0
71,28.848762435416663,29.064488033333333,65.0,86.0
72,27.397150935416665,29.151181497916664,51.0,86.0
73,28.606827185416666,29.354810333333333,58.0,82.0
74,29.090697685416664,29.7701325125,66.0,108.0
75,29.816503435416664,30.004003254166665,63.0,87.0
76,29.574568185416666,30.167309547916666,58.0,85.0
77,30.058438685416665,30.427389941666664,65.0,116.0
78,30.300373935416665,30.751986402083332,58.0,94.0
79,30.542309185416666,30.82255085,66.0,116.0
80,29.332632935416665,30.8346476125,51.0,88.0
81,30.784244435416664,30.967712,65.0,109.0
82,31.026179685416665,31.262066554166665,66.0,93.0
83,31.751985435416664,32.28424298541667,59.0,88.0
84,31.993920685416665,32.2862591125,63.0,100.0
85,31.268114935416666,32.909242381249996,47.0,88.0
86,32.47779118541666,32.927387525,59.0,86.0
87,32.71972643541667,33.0362583875,63.0,85.0
88,32.235855935416666,33.13908086875,71.0,107.0
89,31.510050185416667,33.185451791666665,54.0,79.0
90,32.961661685416665,33.24795173125,66.0,88.0
91,33.687467435416664,33.86287049166666,61.0,83.0
92,33.92940268541666,33.98182198958333,61.0,86.0
93,33.44553218541667,34.13907990208333,56.0,85.0
94,34.413273185416664,34.766095424999996,56.0,81.0
95,33.20359693541666,34.81649860208333,49.0,87.0
96,33.92940268541666,34.90319206666666,68.0,116.0
97,34.65520843541667,35.135046681249996,61.0,88.0
98,34.897143685416665,35.687465502083334,65.0,103.0
99,35.622949435416665,36.056416758333334,58.0,87.0
100,35.13907893541666,36.6169000875,46.0,94.0
101,35.86488468541666,36.62899685,68.0,110.0
102,35.38101418541667,36.69754517083333,53.0,81.0
103,36.59069043541666,36.79230314375,63.0,89.0
104,36.348755185416664,37.044319029166665,58.0,87.0
105,36.832625685416666,37.12093185833333,66.0,107.0
106,37.07456093541666,37.389076760416664,65.0,91.0
107,37.558431435416665,38.03423742708333,63.0,89.0
108,37.31649618541667,38.163269560416666,58.0,83.0
109,38.284237185416664,38.59068850208333,58.0,87.0
110,37.80036668541666,38.610849772916666,66.0,116.0
111,37.07456093541666,38.6975432375,51.0,88.0
112,38.52617243541666,38.79230121041667,63.0,91.0
113,38.768107685416666,39.008026808333334,66.0,90.0
114,39.493913435416665,39.71165516041666,63.0,80.0
115,39.25197818541667,39.826574404166664,58.0,84.0
116,39.010042935416664,40.469718943749996,51.0,91.0
117,40.219719185416665,40.47979957916667,58.0,76.0
118,39.73584868541666,40.64713812708333,70.0,93.0
119,40.46165443541666,40.99189585833333,66.0,83.0
120,40.70358968541667,41.193508566666665,63.0,76.0
121,41.67133068541666,42.2539914125,59.0,83.0
122,40.945524935416664,42.48786215416666,44.0,86.0
123,41.18746018541666,42.58866850833333,51.0,80.0
124,41.429395435416666,42.67536197291666,56.0,83.0
125,42.63907168541667,42.74189416666666,68.0,75.0
126,42.155201185416665,42.89108757083333,63.0,86.0
127,43.364877435416666,43.53423211041667,61.0,79.0
128,43.12294218541666,43.721731929166666,56.0,83.0
129,43.606812685416664,44.27213462291667,68.0,108.0
130,44.33261843541666,44.58261819375,66.0,94.0
131,42.881006935416664,44.657214895833334,49.0,91.0
132,44.090683185416665,44.66326327708333,56.0,84.0
133,44.816488935416665,45.38100451875,56.0,87.0
134,44.816488935416665,46.64310007291667,61.0,87.0
135,44.816488935416665,46.64310007291667,65.0,91.0
136,44.57455368541667,46.659229089583334,68.0,92.0
137,44.816488935416665,46.67737423333333,49.0,88.0
138,49.17132343541667,49.739871272916666,54.0,87.0
139,49.413258685416665,49.951564616666666,58.0,82.0
140,49.89712918541667,50.16930634166666,54.0,86.0
141,48.687452935416665,50.2136611375,42.0,86.0
142,49.65519393541666,50.38099968541666,66.0,100.0
143,50.139064435416664,50.4193061,58.0,84.0
144,48.92938818541666,50.65720909583333,49.0,84.0
145,50.622934935416666,51.469708310416664,56.0,91.0
146,50.38099968541666,51.518095360416666,65.0,82.0
147,51.348740685416665,51.65720812916666,53.0,85.0
148,51.83261118541667,52.008014241666665,53.0,95.0
149,51.10680543541666,52.0281755125,49.0,73.0
150,50.622934935416666,52.110836722916666,41.0,81.0
151,51.59067593541666,52.270110762499996,65.0,119.0
152,52.074546435416664,52.330594575,56.0,88.0
153,52.558416935416666,53.201561475,56.0,85.0
154,52.31648168541666,53.310432337499996,66.0,93.0
155,52.558416935416666,53.3346258625,63.0,96.0
156,53.284222685416665,53.576561112499995,51.0,85.0
157,53.04228743541666,54.048334849999996,46.0,70.0
158,52.558416935416666,54.06849612083333,39.0,88.0
159,54.010028435416665,54.26406044791666,51.0,87.0
160,53.52615793541666,54.39712483541666,66.0,100.0
161,53.52615793541666,54.403173216666666,63.0,108.0
162,54.49389893541667,54.973737181249994,61.0,87.0
163,54.49389893541667,55.2580111,65.0,86.0
164,55.219704685416666,55.510026985416665,61.0,91.0
165,55.46163993541666,55.81042992083333,65.0,119.0
166,55.70357518541666,55.905187893749996,61.0,92.0
167,54.49389893541667,56.064461933333334,49.0,84.0
168,55.945510435416665,56.17736505,66.0,100.0
169,56.18744568541666,56.419300299999996,68.0,94.0
170,54.97776943541666,56.48986474791666,56.0,81.0
171,56.42938093541667,57.217686625,66.0,91.0
172,57.155186685416666,57.38905742708333,54.0,73.0
173,57.39712193541666,57.68139585416667,63.0,81.0
174,56.42938093541667,57.98381491666667,47.0,84.0
175,57.39712193541666,58.16728248125,66.0,104.0
176,58.12292768541666,58.251959818749995,68.0,76.0
177,57.880992435416665,58.29833074166666,63.0,82.0
178,58.36486293541666,58.911233374999995,68.0,92.0
179,58.36486293541666,58.923330137499995,61.0,89.0
180,58.84873343541666,59.346716824999994,58.0,89.0
181,59.57453918541666,59.780184147916664,58.0,86.0
182,58.606798185416665,59.8668776125,53.0,79.0
183,58.36486293541666,59.8910711375,46.0,85.0
184,59.09066868541667,59.93542593333333,68.0,104.0
185,60.05840968541666,60.489860881249996,61.0,91.0
186,59.816474435416666,60.792279943749996,65.0,90.0
187,60.78421543541666,61.31042460416666,56.0,87.0
188,61.02615068541667,61.346714891666664,59.0,83.0
189,61.268085935416664,61.751956435416666,68.0,108.0
190,60.30034493541666,61.80437573958333,44.0,87.0
191,60.542280185416665,61.808407993749995,51.0,74.0
192,61.51002118541666,61.9475207625,56.0,88.0
193,61.751956435416666,62.189456012499996,63.0,89.0
194,61.99389168541666,62.26002046041666,68.0,92.0
195,62.96163268541666,63.17332602916667,64.0,83.0
196,62.71969743541666,63.21969695208333,61.0,87.0
197,63.44550318541666,63.66122878333333,61.0,91.0
198,63.203567935416665,63.71163196041666,73.0,110.0
199,62.477762185416665,63.7378416125,56.0,79.0
200,62.23582693541666,63.822518949999996,49.0,84.0
201,63.68743843541667,64.15719604583333,71.0,107.0
202,64.17130893541666,64.59469562291666,70.0,100.0
203,64.17130893541666,64.88098566875,61.0,90.0
204,64.65517943541667,65.05034034375,54.0,87.0
205,64.89711468541667,65.42533998124999,66.0,100.0
206,64.89711468541667,65.55437211458333,58.0,91.0
207,65.38098518541666,65.60275916458333,54.0,82.0
208,64.17130893541666,65.63501719791667,42.0,88.0
209,65.62292043541666,65.9031621,61.0,87.0
210,64.41324418541666,65.96767816666666,49.0,80.0
211,65.86485568541666,66.19146827291667,66.0,89.0
212,66.10679093541667,66.69953229791666,65.0,89.0
213,66.10679093541667,66.75396772916666,56.0,88.0
214,66.59066143541666,66.87896760833333,53.0,80.0
215,66.83259668541666,66.99791910625,56.0,91.0
216,66.34872618541667,67.48985411458332,49.0,69.0
217,67.31646718541667,67.54428954583334,53.0,84.0
218,66.10679093541667,67.63098301041666,41.0,80.0
219,66.83259668541666,67.67533780625,65.0,116.0
220,67.55840243541667,67.9475149625,56.0,94.0
221,68.04227293541666,68.40517581041667,56.0,85.0
222,67.80033768541666,68.76001417708333,66.0,100.0
223,68.04227293541666,68.81041735416666,63.0,107.0
224,68.76807868541667,69.04428809583332,51.0,87.0
225,68.04227293541666,69.46565865625,39.0,87.0
226,68.52614343541666,69.51404570625,46.0,73.0
227,69.49388443541666,69.79630349791667,51.0,88.0
228,69.01001393541667,69.81646476875,66.0,113.0
229,69.01001393541667,69.89912597916667,63.0,114.0
230,69.97775493541667,70.27815787083333,61.0,75.0
231,69.97775493541667,70.35880295416666,65.0,83.0
232,69.97775493541667,70.36485133541666,68.0,91.0
233,70.46162543541666,70.77210900624999,61.0,93.0
234,70.70356068541666,71.23581823541666,65.0,106.0
235,70.94549593541666,71.24993112499999,61.0,98.0
236,70.21969018541667,71.42331805416666,56.0,78.0
237,69.97775493541667,71.48783412083333,49.0,85.0
238,71.18743118541666,71.70154359166666,68.0,85.0
239,71.42936643541667,71.97170462083334,73.0,91.0
240,71.67130168541667,72.01404328958333,65.0,89.0
241,72.63904268541667,72.88299406249999,63.0,80.0
242,72.39710743541666,72.92734885833333,59.0,88.0
243,73.12291318541666,73.42533224791666,59.0,86.0
244,72.15517218541666,73.56242888958333,54.0,81.0
245,71.91323693541666,73.59267079583333,47.0,90.0
246,73.36484843541666,73.84871893541666,63.0,87.0
247,73.60678368541666,73.862831825,66.0,83.0
248,72.88097793541667,73.88904147708332,71.0,107.0
249,74.33258943541666,74.79831479166667,58.0,87.0
250,74.57452468541666,74.86887923958334,61.0,93.0
251,75.05839518541666,75.34065297708332,58.0,96.0
252,74.81645993541666,75.34065297708332,68.0,113.0
253,73.84871893541666,75.39307228125,46.0,87.0
254,74.09065418541667,75.39307228125,53.0,79.0
255,75.54226568541667,75.9676685,61.0,88.0
256,75.30033043541667,76.14508768333333,65.0,109.0
257,76.51000668541666,76.70960326666666,59.0,87.0
258,76.26807143541666,76.77210320625,56.0,84.0
259,76.75194193541667,77.24589307083333,66.0,114.0
260,76.02613618541666,77.30234462916667,51.0,77.0
261,75.78420093541666,77.32452202708333,44.0,86.0
262,77.23581243541666,77.4797638125,63.0,90.0
263,76.99387718541666,77.76806998541666,56.0,88.0
264,77.47774768541666,77.78016674791667,66.0,87.0
265,77.71968293541666,78.22371470625,65.0,90.0
266,78.68742393541666,79.11282675,61.0,86.0
267,78.20355343541667,79.20556859583333,56.0,78.0
268,78.68742393541666,79.23782662916666,65.0,87.0
269,77.71968293541666,79.354762,49.0,85.0
270,78.68742393541666,79.42935870208333,73.0,89.0
271,79.17129443541667,79.5362134375,68.0,83.0
272,79.65516493541666,81.11484094375,59.0,71.0
273,79.65516493541666,81.11887319791666,63.0,77.0
274,79.65516493541666,81.12290545208333,66.0,76.0
275,79.65516493541666,81.24992145833333,47.0,79.0
276,81.59064693541666,82.93943595416667,61.0,75.0
277,81.59064693541666,82.9475004625,68.0,76.0
278,81.59064693541666,82.96967786041667,49.0,78.0
279,81.59064693541666,83.02612941874999,65.0,78.0
280,83.52612893541666,84.94145014791667,70.0,78.0
281,83.52612893541666,84.94548240208333,51.0,73.0
282,83.52612893541666,84.96564367291666,63.0,71.0
283,83.52612893541666,84.96564367291666,66.0,67.0
284,85.46161093541666,87.45556062083332,68.0,79.0
285,85.46161093541666,87.45757674791666,61.0,78.0
286,85.46161093541666,87.46362512916666,65.0,78.0
287,85.46161093541666,87.48781865416666,49.0,84.0
288,89.81644543541667,90.35878362083332,59.0,83.0
289,90.05838068541667,90.37491263749999,63.0,83.0
290,90.30031593541666,90.967654,71.0,90.0
291,90.54225118541666,91.00797654166666,59.0,82.0
292,90.78418643541666,91.04426682916666,63.0,79.0
293,89.33257493541666,91.07249260833333,47.0,85.0
294,89.57451018541666,91.28620207916666,54.0,76.0
295,91.02612168541665,91.9716852875,66.0,88.0
296,91.75192743541666,92.23176568125,61.0,79.0
297,92.47773318541667,92.79224901041667,61.0,77.0
298,91.26805693541667,92.8668457125,49.0,84.0
299,91.99386268541666,92.88499085625,68.0,92.0
300,92.71966843541666,93.25999049375,65.0,86.0
301,91.50999218541666,93.28015176458332,56.0,76.0
302,93.68740943541667,94.13902190208333,63.0,83.0
303,93.92934468541667,94.67732783333332,70.0,93.0
304,94.41321518541666,94.86079539791666,63.0,79.0
305,94.65515043541666,94.87894054166667,68.0,86.0
306,93.20353893541666,95.00192429375,51.0,84.0
307,93.44547418541666,95.15514995208333,58.0,50.0
308,94.89708568541666,95.60676241875,66.0,87.0
309,95.62289143541666,95.80837512708332,63.0,81.0
310,95.86482668541666,96.07047164791666,70.0,107.0
311,95.38095618541666,96.1813586375,58.0,78.0
312,96.10676193541666,96.59063243541667,68.0,93.0
313,96.34869718541667,96.61885821458333,58.0,87.0
314,95.13902093541667,96.69748717083333,51.0,84.0
315,96.59063243541667,97.10877709583333,66.0,88.0
316,96.83256768541666,97.11482547708333,63.0,72.0
317,97.80030868541667,97.97974399583333,63.0,80.0
318,97.55837343541666,98.10676000208333,59.0,83.0
319,97.07450293541666,98.72167876249999,47.0,87.0
320,98.04224393541666,98.72369488958333,70.0,104.0
321,98.52611443541666,98.82450124374999,59.0,77.0
322,97.31643818541666,98.96159788541667,54.0,81.0
323,98.76804968541666,99.29627498125,66.0,84.0
324,99.49385543541666,99.80837126041666,61.0,73.0
325,99.25192018541667,99.85877443749999,56.0,81.0
326,99.00998493541667,100.63699949166666,49.0,87.0
327,99.73579068541666,100.73578971875,68.0,113.0
328,100.46159643541667,100.73982197291666,61.0,80.0
329,100.21966118541665,100.97369271458332,56.0,80.0
330,100.70353168541666,101.06845068749999,65.0,86.0
331,101.42933743541666,101.57449858541666,63.0,75.0
332,101.18740218541666,101.81643383541666,58.0,81.0
333,101.67127268541667,102.42530421458333,66.0,114.0
334,102.39707843541666,102.61280403333333,65.0,86.0
335,100.94546693541666,102.69949749791667,51.0,86.0
336,102.15514318541666,102.90312633333333,58.0,82.0
337,102.63901368541666,103.3184485125,66.0,108.0
338,103.36481943541666,103.55231925416666,63.0,87.0
339,103.12288418541667,103.71562554791666,58.0,85.0
340,103.60675468541666,103.97570594166666,65.0,116.0
341,103.84868993541666,104.30030240208333,58.0,94.0
342,104.09062518541666,104.37086685,66.0,116.0
343,102.88094893541665,104.38296361249999,51.0,88.0
344,104.33256043541667,104.51602799999999,65.0,109.0
345,104.57449568541666,104.81038255416667,66.0,93.0
346,105.30030143541666,105.83255898541667,59.0,88.0
347,105.54223668541665,105.83457511249999,63.0,100.0
348,104.81643093541666,106.45755838125,47.0,88.0
349,106.02610718541666,106.475703525,59.0,86.0
350,106.26804243541666,106.5845743875,63.0,85.0
351,105.78417193541667,106.68739686875,71.0,107.0
352,105.05836618541666,106.73376779166666,54.0,79.0
353,106.50997768541666,106.79626773125,66.0,88.0
354,107.23578343541666,107.41118649166665,61.0,83.0
355,107.47771868541666,107.53013798958332,61.0,86.0
356,106.99384818541667,107.68739590208332,56.0,85.0
357,107.96158918541666,108.31441142499999,56.0,81.0
358,106.75191293541666,108.36481460208333,49.0,87.0
359,107.47771868541666,108.45150806666666,68.0,116.0
360,108.20352443541667,108.68336268124999,61.0,88.0
361,108.44545968541667,109.23578150208333,65.0,103.0
362,109.17126543541666,109.60473275833333,58.0,87.0
363,108.68739493541666,110.1652160875,46.0,94.0
364,109.41320068541665,110.17731284999999,68.0,110.0
365,108.92933018541666,110.24586117083332,53.0,81.0
366,110.13900643541666,110.34061914374999,63.0,89.0
367,109.89707118541666,110.59263502916666,58.0,87.0
368,110.38094168541666,110.66924785833332,66.0,107.0
369,110.62287693541666,110.93739276041666,65.0,91.0
370,111.10674743541666,111.58255342708333,63.0,89.0
371,110.86481218541667,111.71158556041667,58.0,83.0
372,111.83255318541666,112.13900450208332,58.0,87.0
373,111.34868268541666,112.15916577291667,66.0,116.0
374,110.62287693541666,112.2458592375,51.0,88.0
375,112.07448843541665,112.34061721041667,63.0,91.0
376,112.31642368541667,112.55634280833333,66.0,90.0
377,113.04222943541666,113.25997116041665,63.0,80.0
378,112.80029418541666,113.37489040416666,58.0,84.0
379,112.55835893541666,114.01803494375,51.0,91.0
380,113.76803518541666,114.02811557916667,58.0,76.0
381,113.28416468541666,114.19545412708332,70.0,93.0
382,114.00997043541666,114.54021185833332,66.0,83.0
383,114.25190568541666,114.74182456666666,63.0,76.0
384,115.21964668541666,115.8023074125,59.0,83.0
385,114.49384093541666,116.03617815416666,44.0,86.0
386,114.73577618541665,116.13698450833333,51.0,80.0
387,114.97771143541667,116.22367797291666,56.0,83.0
388,116.18738768541667,116.29021016666665,68.0,75.0
389,115.70351718541666,116.43940357083332,63.0,86.0
390,116.91319343541666,117.08254811041667,61.0,79.0
391,116.67125818541666,117.27004792916667,56.0,83.0
392,117.15512868541666,117.82045062291667,68.0,108.0
393,117.88093443541666,118.13093419375,66.0,94.0
394,116.42932293541666,118.20553089583332,49.0,91.0
395,117.63899918541667,118.21157927708333,56.0,84.0
396,118.36480493541666,118.92932051874999,56.0,87.0
397,118.36480493541666,120.19141607291667,61.0,87.0
398,118.36480493541666,120.19141607291667,65.0,91.0
399,118.12286968541666,120.20754508958332,68.0,92.0
400,118.36480493541666,120.22569023333332,49.0,88.0
401,120.78415743541666,121.35270527291667,54.0,87.0
402,121.02609268541666,121.56439861666667,58.0,82.0
403,121.50996318541667,121.78214034166666,54.0,86.0
404,120.30028693541666,121.82649513749999,42.0,86.0
405,121.26802793541665,121.99383368541666,66.0,100.0
406,121.75189843541666,122.03214009999999,58.0,84.0
407,120.54222218541666,122.27004309583333,49.0,84.0
408,122.23576893541666,123.08254231041666,56.0,91.0
409,121.99383368541666,123.13092936041666,65.0,82.0
410,122.96157468541666,123.27004212916665,53.0,85.0
411,123.44544518541666,123.62084824166666,53.0,95.0
412,122.71963943541667,123.64100951249999,49.0,73.0
413,122.23576893541666,123.72367072291667,41.0,81.0
414,123.20350993541666,123.88294476249999,65.0,119.0
415,123.68738043541666,123.943428575,56.0,88.0
416,124.17125093541667,124.814395475,56.0,85.0
417,123.92931568541665,124.9232663375,66.0,93.0
418,124.17125093541667,124.9474598625,63.0,96.0
419,124.89705668541666,125.1893951125,51.0,85.0
420,124.65512143541666,125.66116885,46.0,70.0
421,124.17125093541667,125.68133012083332,39.0,88.0
422,125.62286243541666,125.87689444791665,51.0,87.0
423,125.13899193541666,126.00995883541665,66.0,100.0
424,125.13899193541666,126.01600721666667,63.0,108.0
425,126.10673293541666,126.58657118125,61.0,87.0
426,126.10673293541666,126.8708451,65.0,86.0
427,126.83253868541667,127.12286098541666,61.0,91.0
428,127.07447393541666,127.42326392083332,65.0,119.0
429,127.31640918541666,127.51802189374999,61.0,92.0
430,126.10673293541666,127.67729593333333,49.0,84.0
431,127.55834443541666,127.79019905,66.0,100.0
432,127.80027968541665,128.0321343,68.0,94.0
433,126.59060343541665,128.10269874791666,56.0,81.0
434,128.04221493541667,128.830520625,66.0,91.0
435,128.76802068541667,129.00189142708334,54.0,73.0
436,129.00995593541666,129.29422985416667,63.0,81.0
437,128.04221493541667,129.59664891666665,47.0,84.0
438,129.00995593541666,129.78011648125,66.0,104.0
439,129.73576168541666,129.86479381875,68.0,76.0
440,129.49382643541665,129.91116474166665,63.0,82.0
441,129.97769693541667,130.524067375,68.0,92.0
442,129.97769693541667,130.53616413749998,61.0,89.0
443,130.46156743541667,130.95955082499998,58.0,89.0
444,131.18737318541665,131.39301814791665,58.0,86.0
445,130.21963218541666,131.47971161249998,53.0,79.0
446,129.97769693541667,131.5039051375,46.0,85.0
447,130.70350268541665,131.54825993333333,68.0,104.0
448,131.67124368541667,132.10269488125,61.0,91.0
449,131.42930843541666,132.40511394375,65.0,90.0
450,132.39704943541665,132.92325860416665,56.0,87.0
451,132.63898468541666,132.95954889166666,59.0,83.0
452,132.88091993541667,133.36479043541667,68.0,108.0
453,131.91317893541665,133.4172097395833,44.0,87.0
454,132.15511418541666,133.42124199375,51.0,74.0
455,133.12285518541665,133.5603547625,56.0,88.0
456,133.36479043541667,133.80229001249998,63.0,89.0
457,133.60672568541665,133.87285446041665,68.0,92.0
458,134.57446668541667,134.78616002916667,64.0,83.0
459,134.33253143541666,134.83253095208332,61.0,87.0
460,135.05833718541666,135.27406278333333,61.0,91.0
461,134.81640193541665,135.32446596041666,73.0,110.0
462,134.09059618541667,135.3506756125,56.0,79.0
463,133.84866093541666,135.43535294999998,49.0,84.0
464,135.30027243541667,135.77003004583332,71.0,107.0
465,135.78414293541667,136.20752962291667,70.0,100.0
466,135.78414293541667,136.49381966875,61.0,90.0
467,136.26801343541666,136.66317434375,54.0,87.0
468,136.50994868541665,137.03817398125,66.0,100.0
469,136.50994868541665,137.16720611458334,58.0,91.0
470,136.99381918541667,137.21559316458334,54.0,82.0
471,135.78414293541667,137.24785119791665,42.0,88.0
472,137.23575443541665,137.5159961,61.0,87.0
473,136.02607818541665,137.58051216666667,49.0,80.0
474,137.47768968541666,137.80430227291666,66.0,89.0
475,137.71962493541665,138.31236629791667,65.0,89.0
476,137.71962493541665,138.36680172916667,56.0,88.0
477,138.20349543541667,138.49180160833333,53.0,80.0
478,138.44543068541665,138.61075310625,56.0,91.0
479,137.96156018541666,139.10268811458332,49.0,69.0
480,138.92930118541665,139.15712354583331,53.0,84.0
481,137.71962493541665,139.24381701041665,41.0,80.0
482,138.44543068541665,139.28817180625,65.0,116.0
483,139.17123643541666,139.5603489625,56.0,94.0
484,139.65510693541665,140.01800981041666,56.0,85.0
485,139.41317168541667,140.3728481770833,66.0,100.0
486,139.65510693541665,140.42325135416667,63.0,107.0
487,140.38091268541666,140.65712209583333,51.0,87.0
488,139.65510693541665,141.07849265625,39.0,87.0
489,140.13897743541665,141.12687970624998,46.0,73.0
490,141.10671843541667,141.40913749791665,51.0,88.0
491,140.62284793541667,141.42929876875,66.0,113.0
492,140.62284793541667,141.51195997916665,63.0,114.0
493,141.59058893541666,141.89099187083332,61.0,75.0
494,141.59058893541666,141.97163695416666,65.0,83.0
495,141.59058893541666,141.97768533541665,68.0,91.0
496,142.07445943541666,142.38494300624998,61.0,93.0
497,142.31639468541667,142.84865223541667,65.0,106.0
498,142.55832993541665,142.86276512499998,61.0,98.0
499,141.83252418541664,143.03615205416665,56.0,78.0
500,141.59058893541666,143.10066812083332,49.0,85.0
501,142.80026518541666,143.31437759166667,68.0,85.0
502,143.04220043541665,143.5845386208333,73.0,91.0
503,143.28413568541666,143.62687728958332,65.0,89.0
504,144.25187668541665,144.49582806249998,63.0,80.0
505,144.00994143541666,144.54018285833334,59.0,88.0
506,144.73574718541667,145.03816624791665,59.0,86.0
507,143.76800618541665,145.17526288958334,54.0,81.0
508,143.52607093541667,145.20550479583332,47.0,90.0
509,144.97768243541665,145.46155293541665,63.0,87.0
510,145.21961768541667,145.475665825,66.0,83.0
511,144.49381193541666,145.50187547708333,71.0,107.0
512,145.94542343541667,146.41114879166665,58.0,87.0
513,146.18735868541665,146.4817132395833,61.0,93.0
514,146.67122918541665,146.95348697708332,58.0,96.0
515,146.42929393541667,146.95348697708332,68.0,113.0
516,145.46155293541665,147.00590628125,46.0,87.0
517,145.70348818541666,147.00590628125,53.0,79.0
518,147.15509968541667,147.5805025,61.0,88.0
519,146.91316443541666,147.75792168333334,65.0,109.0
520,148.12284068541666,148.32243726666667,59.0,87.0
521,147.88090543541665,148.38493720625,56.0,84.0
522,148.36477593541665,148.85872707083334,66.0,114.0
523,147.63897018541667,148.91517862916666,51.0,77.0
524,147.39703493541666,148.93735602708333,44.0,86.0
525,148.84864643541667,149.0925978125,63.0,90.0
526,148.60671118541666,149.38090398541667,56.0,88.0
527,149.09058168541665,149.39300074791666,66.0,87.0
528,149.33251693541666,149.83654870625,65.0,90.0
529,150.30025793541665,150.72566075,61.0,86.0
530,149.81638743541666,150.81840259583333,56.0,78.0
531,150.30025793541665,150.85066062916667,65.0,87.0
532,149.33251693541666,150.967596,49.0,85.0
533,150.30025793541665,151.04219270208333,73.0,89.0
534,150.78412843541665,151.1490474375,68.0,83.0
535,151.26799893541667,152.01396595625,70.0,87.0
536,151.26799893541667,152.0684013875,42.0,86.0
537,151.26799893541667,152.11477231041667,54.0,84.0
538,151.26799893541667,152.12082069166667,61.0,86.0
539,151.26799893541667,152.12082069166667,66.0,88.0
540,152.23573993541666,152.5421912520833,42.0,87.0
541,152.23573993541666,152.5421912520833,70.0,88.0
542,152.23573993541666,152.58452992083332,54.0,92.0
543,152.23573993541666,152.58654604791667,61.0,86.0
544,152.23573993541666,152.588562175,66.0,88.0
545,152.71961043541666,153.03614238749998,42.0,91.0
546,152.71961043541666,153.06638429375,54.0,90.0
547,152.71961043541666,153.072432675,70.0,88.0
548,152.71961043541666,153.08654556458333,61.0,87.0
549,152.71961043541666,153.10670683541665,66.0,88.0
550,153.20348093541665,153.48573872708332,42.0,92.0
551,153.20348093541665,153.49783548958334,70.0,87.0
552,153.20348093541665,153.52606126875,66.0,89.0
553,153.20348093541665,153.53210965,54.0,96.0
554,153.20348093541665,153.5442064125,61.0,87.0
555,153.68735143541664,153.99380275208333,42.0,94.0
556,153.68735143541664,154.00993176875,70.0,87.0
557,153.68735143541664,154.02807691249998,54.0,91.0
558,153.68735143541664,154.03815754791665,61.0,87.0
559,153.68735143541664,154.03815754791665,66.0,89.0
560,154.17122193541667,154.50993128541666,54.0,108.0
561,154.17122193541667,154.72565688333333,61.0,98.0
562,154.17122193541667,154.74985040833332,42.0,102.0
563,154.17122193541667,154.76194717083334,66.0,108.0
564,154.17122193541667,154.77001167916666,70.0,96.0
565,154.65509243541666,154.82847936458333,54.0,89.0
566,154.89702768541665,155.007914675,54.0,68.0
567,155.13896293541666,155.42122072708332,59.0,93.0
568,155.13896293541666,155.81033325416666,63.0,107.0
569,155.13896293541666,155.82847839791665,66.0,102.0
570,155.86476868541666,156.19742965416665,59.0,88.0
571,155.13896293541666,156.8345258125,47.0,100.0
572,156.59057443541667,156.87081609999998,59.0,88.0
573,156.10670393541665,156.91315476875,66.0,116.0
574,156.10670393541665,156.97767083541666,63.0,108.0
575,155.62283343541665,157.02605788541666,54.0,78.0
576,157.07444493541666,157.70347658541667,49.0,102.0
577,157.07444493541666,157.88291189583333,68.0,107.0
578,157.07444493541666,157.90105703958332,61.0,91.0
579,157.07444493541666,157.95750859791667,65.0,109.0
580,157.80025068541667,158.30025020208333,49.0,98.0
581,158.04218593541665,158.74783041458332,61.0,104.0
582,158.04218593541665,158.84057226041665,65.0,113.0
583,158.04218593541665,158.85065289583332,68.0,102.0
584,158.52605643541665,158.88089480208333,49.0,91.0
585,159.00992693541667,159.57041026458333,61.0,90.0
586,159.00992693541667,159.57847477291665,68.0,92.0
587,159.00992693541667,159.62686182291665,65.0,91.0
588,159.49379743541667,159.96557117291667,58.0,89.0
589,159.73573268541665,160.27807087083332,68.0,108.0
590,159.73573268541665,160.28815150625,65.0,109.0
591,159.73573268541665,160.2901676333333,61.0,100.0
592,160.21960318541664,160.48976421458332,58.0,88.0
593,159.00992693541667,160.70952206666666,46.0,90.0
594,160.46153843541666,160.77000587916666,61.0,107.0
595,159.25186218541666,160.79823165833332,53.0,83.0
596,160.46153843541666,160.82040905624999,68.0,110.0
597,160.46153843541666,160.87484448749998,65.0,113.0
598,160.70347368541667,160.93331217291666,58.0,91.0
599,160.94540893541665,161.48774712083332,70.0,110.0
600,160.94540893541665,161.53008578958332,66.0,114.0
601,160.94540893541665,161.53815029791664,63.0,104.0
602,161.42927943541665,161.89298866458333,58.0,88.0
603,161.67121468541666,162.1812948375,70.0,110.0
604,161.67121468541666,162.20347223541665,66.0,117.0
605,161.67121468541666,162.21153674375,63.0,108.0
606,162.15508518541665,162.43734297708332,58.0,88.0
607,162.39702043541666,162.61476216041666,70.0,100.0
608,162.39702043541666,162.64500406666664,63.0,102.0
609,162.39702043541666,162.64500406666664,66.0,108.0
610,160.94540893541665,162.6611330833333,51.0,96.0
611,162.88089093541666,163.11677780416665,59.0,104.0
612,162.88089093541666,163.30226149583333,63.0,114.0
613,162.88089093541666,163.32847114791664,66.0,114.0
614,163.36476143541665,163.78209974166666,59.0,87.0
615,163.84863193541665,164.44742167916667,63.0,116.0
616,163.84863193541665,164.48572809375,66.0,119.0
617,163.84863193541665,164.540163525,71.0,113.0
618,162.88089093541666,164.58250219375,47.0,100.0
619,164.33250243541667,164.62685698958333,59.0,78.0
620,163.12282618541667,164.63290537083333,54.0,81.0
621,164.81637293541667,165.56233995624999,65.0,119.0
622,164.81637293541667,165.59056573541665,61.0,110.0
623,164.81637293541667,165.604678625,68.0,114.0
624,165.54217868541664,165.8708074,56.0,87.0
625,164.81637293541667,166.36677466249998,49.0,96.0
626,166.26798443541665,166.40911333124998,56.0,88.0
627,165.78411393541666,166.45548425416666,61.0,107.0
628,165.78411393541666,166.5361293375,65.0,119.0
629,165.78411393541666,166.59459702291664,68.0,117.0
630,166.75185493541665,167.298225375,68.0,113.0
631,166.75185493541665,167.33048340833332,65.0,123.0
632,166.75185493541665,167.34056404375,61.0,113.0
633,167.47766068541665,167.84257968749998,56.0,96.0
634,167.71959593541666,168.265966375,68.0,113.0
635,167.71959593541666,168.2982244083333,65.0,123.0
636,167.71959593541666,168.30830504374998,61.0,113.0
637,168.44540168541667,168.5038693708333,65.0,113.0
638,168.44540168541667,168.51193387916666,61.0,104.0
639,168.44540168541667,168.52201451458333,68.0,104.0
640,166.75185493541665,168.89701415208333,49.0,113.0
641,168.20346643541666,168.95951409166665,56.0,86.0
642,168.92927218541666,169.74378752708333,68.0,113.0
643,168.92927218541666,169.7538681625,61.0,110.0
644,168.92927218541666,169.75991654375,65.0,119.0
645,169.89701318541665,170.07443236875,61.0,102.0
646,170.13894843541667,170.19741612083334,61.0,76.0
647,169.65507793541667,170.3345127625,56.0,116.0
648,170.13894843541667,170.33854501666667,65.0,116.0
649,170.38088368541665,170.42725460833333,68.0,79.0
650,169.41314268541666,170.47362553124998,49.0,96.0
651,170.38088368541665,170.49781905625,61.0,89.0
652,170.62281893541666,172.65507503541664,61.0,113.0
653,170.62281893541666,172.6570911625,68.0,114.0
654,170.62281893541666,172.68330081458333,65.0,119.0
655,170.62281893541666,172.69942983125,49.0,104.0
656,170.62281893541666,172.70951046666667,56.0,104.0
657,175.46152393541666,176.07644269583332,68.0,108.0
658,175.46152393541666,176.15708777916666,60.0,108.0
659,175.46152393541666,176.15910390624998,63.0,116.0
660,176.18732968541667,176.49378100208332,56.0,107.0
661,175.46152393541666,176.95749023124998,44.0,108.0
662,176.91313543541665,177.11273201666665,56.0,88.0
663,176.42926493541665,177.12281265208333,60.0,113.0
664,176.42926493541665,177.16716744791665,68.0,110.0
665,176.42926493541665,177.22361900625,63.0,117.0
666,175.94539443541666,177.26192542083334,51.0,81.0
667,177.39700593541664,177.63894118541666,58.0,113.0
668,177.39700593541664,177.85063452916665,63.0,117.0
669,177.39700593541664,177.89297319791666,67.0,113.0
670,177.88087643541667,178.15506971874998,55.0,90.0
671,178.12281168541665,178.62885958333334,70.0,113.0
672,178.12281168541665,178.63490796458333,63.0,107.0
673,178.12281168541665,178.64498859999998,67.0,119.0
674,177.63894118541666,178.76394009791665,51.0,68.0
675,177.39700593541664,178.85063356249998,43.0,100.0
676,178.60668218541664,178.862730325,55.0,95.0
677,178.84861743541666,179.13893973541667,63.0,104.0
678,179.09055268541667,179.18732678541664,43.0,97.0
679,178.84861743541666,179.1893429125,67.0,116.0
680,178.84861743541666,179.22160094583333,70.0,114.0
681,179.33248793541665,179.41716527291666,41.0,110.0
682,179.33248793541665,180.06030981249998,72.0,100.0
683,179.33248793541665,180.07039044791665,68.0,113.0
684,179.33248793541665,180.072406575,65.0,98.0
685,180.05829368541666,180.44337395833332,60.0,85.0
686,180.78409943541666,180.89498642499998,60.0,87.0
687,180.30022893541667,180.93329283958332,65.0,116.0
688,179.81635843541665,180.95143798333334,53.0,91.0
689,180.30022893541667,181.03006693958332,72.0,104.0
690,180.30022893541667,181.07442173541665,68.0,120.0
691,181.26796993541666,181.57038899791667,63.0,100.0
692,181.26796993541666,181.66111471666665,67.0,113.0
693,181.26796993541666,181.73369529166666,70.0,110.0
694,181.75184043541665,182.06635626041665,63.0,98.0
695,181.99377568541667,182.39095272083333,75.0,116.0
696,181.99377568541667,182.4554687875,67.0,119.0
697,182.23571093541665,182.48974294791665,63.0,114.0
698,182.47764618541666,182.49780745625,67.0,81.0
699,181.50990518541667,182.60264606458333,58.0,84.0
700,181.26796993541666,182.60667831875,51.0,102.0
701,182.47764618541666,182.76595235833332,70.0,119.0
702,182.71958143541664,183.04216176875,75.0,108.0
703,182.71958143541664,183.12079072499998,51.0,98.0
704,183.20345193541667,183.90909641458333,73.0,108.0
705,183.20345193541667,183.91312866874998,65.0,100.0
706,183.20345193541667,183.93732219375,68.0,116.0
707,183.92925768541664,184.28207992499998,61.0,107.0
708,183.20345193541667,184.37078951666666,49.0,91.0
709,183.68732243541666,184.43328945624998,56.0,79.0
710,184.17119293541666,184.66716019791664,65.0,114.0
711,184.17119293541666,184.70949886666665,73.0,110.0
712,184.17119293541666,185.01796631041665,68.0,117.0
713,184.65506343541665,185.05425659791666,49.0,98.0
714,185.13893393541665,185.88086870208332,70.0,113.0
715,185.13893393541665,185.89498159166666,63.0,98.0
716,185.13893393541665,185.91111060833333,67.0,113.0
717,185.86473968541665,186.17925551041665,60.0,110.0
718,185.13893393541665,186.19135227291665,48.0,94.0
719,185.62280443541667,186.21554579791666,55.0,81.0
720,186.10667493541666,186.37481983749998,67.0,116.0
721,186.10667493541666,186.39699723541665,70.0,120.0
722,186.10667493541666,186.40304561666665,63.0,117.0
723,186.34861018541665,186.49780358958333,48.0,110.0
724,186.59054543541666,186.72965820416667,67.0,116.0
725,186.59054543541666,186.7397388395833,70.0,108.0
726,186.59054543541666,186.75788398333333,63.0,96.0
727,187.07441593541665,187.8264313375,68.0,108.0
728,187.07441593541665,187.87885064166665,65.0,116.0
729,187.07441593541665,187.88893127708332,61.0,104.0
730,187.80022168541666,188.18530195833333,56.0,85.0
731,187.07441593541665,188.59860801041665,49.0,107.0
732,188.04215693541667,188.685301475,61.0,107.0
733,188.04215693541667,188.8183658625,68.0,108.0
734,188.04215693541667,188.83449487916667,65.0,116.0
735,188.52602743541667,188.87481742083332,56.0,82.0
736,189.00989793541666,189.43328462291666,63.0,104.0
737,189.00989793541666,189.52602646875,70.0,110.0
738,189.00989793541666,189.5340909770833,67.0,116.0
739,189.73570368541667,190.03409049375,63.0,113.0
740,189.00989793541666,190.0542517645833,51.0,104.0
741,189.49376843541665,190.0603001458333,58.0,87.0
742,189.97763893541665,190.25183221875,75.0,107.0
743,189.97763893541665,190.2941708875,67.0,109.0
744,189.97763893541665,190.30223539583332,70.0,116.0
745,190.21957418541666,190.47159007083332,51.0,110.0
746,190.46150943541664,190.67118665208332,67.0,116.0
747,190.46150943541664,190.71352532083333,75.0,113.0
748,190.46150943541664,190.7780413875,70.0,119.0
749,191.91312093541666,191.927233825,71.0,106.0
750,191.67118568541665,192.01594341666666,56.0,110.0
751,190.94537993541667,192.11674977083334,44.0,116.0
752,191.42925043541666,192.12884653333333,51.0,84.0
753,192.39699143541665,192.5199751875,44.0,96.0
754,191.91312093541666,192.6913459895833,72.0,116.0
755,191.91312093541666,192.76997494583333,63.0,119.0
756,191.91312093541666,192.77803945416665,68.0,120.0
757,192.88086193541665,193.60465155833333,67.0,116.0
758,192.88086193541665,193.62682895625,70.0,113.0
759,192.88086193541665,193.6348934645833,63.0,104.0
760,192.88086193541665,193.88086096875,43.0,100.0
761,193.60666768541665,193.8990061125,55.0,109.0
762,193.84860293541666,194.11876396458334,70.0,114.0
763,193.84860293541666,194.13892523541665,67.0,123.0
764,193.84860293541666,194.1409413625,63.0,114.0
765,194.09053818541665,194.25989286041667,43.0,113.0
766,194.33247343541666,194.56836030416665,67.0,116.0
767,194.33247343541666,194.6389247520833,63.0,104.0
768,194.33247343541666,194.66311827708333,70.0,107.0
769,194.81634393541665,195.53610130416666,72.0,110.0
770,194.81634393541665,195.55626257499998,65.0,108.0
771,194.81634393541665,195.55827870208333,68.0,114.0
772,195.54214968541666,195.86674614583333,53.0,114.0
773,194.81634393541665,196.25989092708332,41.0,108.0
774,195.78408493541664,196.30626185,65.0,108.0
775,196.26795543541667,196.40908433125,53.0,91.0
776,195.78408493541664,196.5119068125,72.0,108.0
777,195.78408493541664,196.54214871874998,68.0,116.0
778,196.75182593541666,196.99980956666667,63.0,94.0
779,196.75182593541666,197.1651319875,67.0,109.0
780,196.75182593541666,197.26392221458332,70.0,107.0
781,197.47763168541667,197.74174433333332,63.0,102.0
782,197.23569643541666,197.76997011249998,58.0,82.0
783,196.75182593541666,197.77400236666665,51.0,93.0
784,197.71956693541665,198.02198599791666,75.0,108.0
785,197.71956693541665,198.2538406125,67.0,116.0
786,198.20343743541665,198.39295338124998,70.0,110.0
787,198.68730793541667,199.39698466874998,73.0,100.0
788,198.68730793541667,199.44133946458334,68.0,113.0
789,198.68730793541667,199.44940397291666,65.0,104.0
790,199.41311368541665,199.72561338333333,61.0,87.0
791,199.17117843541666,199.79819395833331,56.0,75.0
792,198.68730793541667,199.83045199166665,49.0,100.0
793,199.65504893541666,200.18327423124998,65.0,108.0
794,199.65504893541666,200.25988706041664,73.0,107.0
795,199.65504893541666,200.44940300624998,68.0,116.0
796,200.13891943541665,200.55625774166666,49.0,87.0
797,200.62278993541665,201.3344827958333,70.0,107.0
798,200.62278993541665,201.35666019375,67.0,106.0
799,200.62278993541665,201.37883759166667,63.0,94.0
800,201.34859568541665,201.69536954375,60.0,94.0
801,201.10666043541664,201.76996624583333,55.0,75.0
802,200.62278993541665,201.77399849999998,48.0,87.0
803,201.59053093541667,202.11472397708332,67.0,116.0
804,201.59053093541667,202.21149807708332,63.0,107.0
805,201.59053093541667,202.21149807708332,70.0,113.0
806,202.07440143541666,202.48569136041667,48.0,87.0
807,202.55827193541666,203.2276261270833,70.0,91.0
808,202.55827193541666,203.29415832083333,65.0,94.0
809,202.55827193541666,203.29819057499998,61.0,90.0
810,203.28407768541666,203.6026257645833,58.0,91.0
811,202.55827193541666,204.02399632499998,46.0,93.0
812,203.04214243541665,204.05222210416665,53.0,78.0
813,203.52601293541665,204.10665753541664,61.0,102.0
814,203.52601293541665,204.12681880625,70.0,100.0
815,203.52601293541665,204.3889153270833,65.0,114.0
816,204.00988343541667,204.47359266458332,58.0,91.0
817,204.49375393541666,204.92722125833333,63.0,90.0
818,204.49375393541666,205.02802761249998,70.0,100.0
819,204.49375393541666,205.06633402708331,67.0,100.0
820,205.46149493541665,205.5441561458333,67.0,90.0
821,205.70343018541666,206.3344779625,70.0,87.0
822,206.42923593541664,207.28810607291666,82.0,90.0
823,206.4453649520833,207.29415445416666,94.0,97.0
824,205.21955968541667,207.36875115625,63.0,94.0
825,206.18730068541666,207.37278341041664,79.0,71.0
826,205.94536543541665,207.39092855416666,75.0,84.0
827,204.97762443541666,207.40705757083333,58.0,81.0
828,204.49375393541666,207.43729947708331,51.0,86.0
829,206.42923593541664,207.4433478583333,70.0,72.0
830,209.33245893541667,209.61068447291666,84.0,65.0
831,209.57439418541665,209.85261972291664,80.0,65.0
832,209.81632943541666,210.05826468541665,77.0,65.0
833,210.05826468541665,210.3465708583333,84.0,65.0
834,210.30019993541666,210.57640934583333,80.0,65.0
835,210.54213518541667,210.78407043541665,77.0,65.0
836,209.33245893541667,210.894957425,65.0,65.0
837,209.33245893541667,210.94536060208333,68.0,65.0
838,209.33245893541667,210.967538,72.0,65.0
839,210.78407043541665,211.03810244791666,84.0,65.0
840,211.02600568541666,211.28003769791667,80.0,65.0
841,211.26794093541665,211.54415034583332,84.0,65.0
842,211.50987618541666,211.765924325,80.0,65.0
843,211.75181143541664,211.99374668541665,79.0,65.0
844,211.26794093541665,212.55826226874998,63.0,65.0
845,211.99374668541665,212.55826226874998,63.0,65.0
846,212.47761718541665,212.75584272291667,80.0,65.0
847,211.26794093541665,212.76995561249998,67.0,65.0
848,211.26794093541665,212.82237491666666,70.0,65.0
849,212.71955243541666,213.09455207291666,79.0,65.0
850,212.96148768541664,213.20342293541665,75.0,65.0
851,213.20342293541665,213.45140656666666,68.0,65.0
852,213.20342293541665,213.798180425,67.0,65.0
853,213.44535818541667,213.798180425,67.0,63.0
854,213.20342293541665,213.97358348125,63.0,65.0
855,213.68729343541665,213.97358348125,63.0,63.0
856,213.20342293541665,214.41309918541666,60.0,65.0
857,213.92922868541666,214.41309918541666,60.0,63.0
858,214.41309918541666,214.78608269583333,63.0,63.0
859,214.65503443541667,215.10866302916665,65.0,63.0
860,214.89696968541665,215.24777579791666,68.0,63.0
861,215.13890493541666,216.28608124583332,70.0,63.0
862,215.86471068541667,216.34858118541666,67.0,63.0
863,216.34858118541666,216.604629325,70.0,63.0
864,216.54011325833332,216.81229041458332,75.0,61.0
865,216.81229041458332,217.17519328958332,79.0,65.0
866,217.17519328958332,217.88285389583334,82.0,73.0
867,215.62277543541666,218.00382152083333,63.0,63.0
868,217.53003165624997,218.04011180833334,87.0,74.0
869,215.38084018541664,218.33043410833332,58.0,63.0
870,215.16713071458332,218.47357913124998,51.0,63.0
871,218.04212793541666,218.68930472916665,87.0,69.0
872,218.21551486458333,219.33043314166665,94.0,73.0
873,219.33043314166665,221.31026993749998,99.0,57.0
874,219.46954591041666,221.34252797083332,103.0,55.0
875,219.556239375,221.34252797083332,106.0,39.0
