,start,end,pitch,velocity
0,17.0875,17.335416666666667,63.0,88.0
1,17.3375,17.585416666666667,63.0,87.0
2,17.5875,17.835416666666667,63.0,87.0
3,17.8375,18.085416666666667,63.0,85.0
4,18.0875,18.3375,63.0,87.0
5,18.3375,18.6,65.0,91.0
6,18.5875,19.0875,63.0,89.0
7,19.0875,19.335416666666667,62.0,87.0
8,19.3375,21.085416666666667,62.0,88.0
9,21.0875,21.335416666666667,62.0,88.0
10,21.3375,21.835416666666667,62.0,93.0
11,21.8375,22.085416666666667,62.0,88.0
12,22.0875,22.3375,62.0,88.0
13,22.3375,22.5875,63.0,88.0
14,22.5875,22.8375,62.0,89.0
15,22.8375,23.335416666666667,60.0,86.0
16,23.3375,25.085416666666667,60.0,92.0
17,25.0875,25.335416666666667,60.0,93.0
18,25.3375,25.585416666666667,60.0,88.0
19,25.5875,25.835416666666667,60.0,93.0
20,25.8375,26.3375,60.0,100.0
21,26.3375,27.0875,59.0,100.0
22,27.0875,27.3375,60.0,104.0
23,27.3375,27.5875,59.0,90.0
24,27.5875,27.8375,60.0,94.0
25,27.8375,28.335416666666667,55.0,96.0
26,28.3375,33.0875,55.0,102.0
27,33.0875,33.33541666666667,63.0,87.0
28,33.3375,33.58541666666667,63.0,86.0
29,33.5875,33.83541666666667,63.0,91.0
30,33.8375,34.3375,63.0,92.0
31,34.3375,34.5875,65.0,100.0
32,34.5875,34.8375,63.0,88.0
33,34.8375,35.08541666666667,62.0,88.0
34,35.0875,35.33541666666667,62.0,89.0
35,35.3375,37.08541666666667,62.0,98.0
36,37.0875,37.33541666666667,62.0,90.0
37,37.3375,37.58541666666667,62.0,88.0
38,37.5875,37.83541666666667,62.0,87.0
39,37.8375,38.3375,62.0,89.0
40,38.3375,38.59166666666667,63.0,88.0
41,38.5875,38.8375,67.0,86.0
42,38.8375,39.08541666666667,60.0,91.0
43,39.0875,39.33541666666667,60.0,88.0
44,39.3375,41.08541666666667,60.0,98.0
45,41.0875,41.33541666666667,60.0,104.0
46,41.3375,41.58541666666667,60.0,96.0
47,41.5875,41.83541666666667,60.0,96.0
48,41.8375,42.33541666666667,60.0,110.0
49,42.3375,42.62083333333333,60.0,88.0
50,42.5875,43.33541666666667,59.0,91.0
51,43.3375,43.58541666666667,59.0,93.0
52,43.5875,43.8375,59.0,95.0
53,43.8375,44.33541666666667,60.0,104.0
54,44.3375,47.5875,60.0,110.0
55,47.5875,47.8375,70.0,119.0
56,47.8375,48.0875,68.0,106.0
57,48.0875,48.3375,67.0,104.0
58,48.3375,48.5875,65.0,102.0
59,48.5875,49.0875,67.0,114.0
60,49.0875,49.5875,60.0,93.0
61,49.5875,50.0875,67.0,114.0
62,50.0875,50.3375,68.0,109.0
63,50.3375,50.8375,67.0,113.0
64,50.8375,51.5875,65.0,108.0
65,51.5875,51.87916666666666,70.0,113.0
66,51.8375,52.106249999999996,68.0,109.0
67,52.0875,52.3375,67.0,107.0
68,52.3375,52.60208333333333,65.0,107.0
69,52.5875,53.0875,67.0,113.0
70,53.0875,53.5875,58.0,107.0
71,53.5875,54.0875,65.0,117.0
72,54.0875,54.3375,67.0,110.0
73,54.3375,54.8375,65.0,114.0
74,54.8375,55.83541666666667,63.0,119.0
75,55.8375,56.08541666666667,63.0,90.0
76,56.0875,56.3375,63.0,94.0
77,56.3375,57.0875,65.0,114.0
78,57.0875,57.33541666666667,63.0,104.0
79,57.3375,58.0875,63.0,116.0
80,58.0875,58.3375,62.0,114.0
81,58.3375,58.8375,60.0,104.0
82,58.8375,59.3375,59.0,113.0
83,59.3375,59.8375,60.0,83.0
84,59.8375,60.3375,62.0,110.0
85,60.3375,60.83541666666667,63.0,94.0
86,60.8375,61.08541666666667,63.0,91.0
87,61.0875,61.33541666666667,63.0,98.0
88,61.3375,61.58541666666667,63.0,104.0
89,61.5875,61.8375,63.0,102.0
90,61.8375,62.3375,65.0,114.0
91,62.3375,63.5875,67.0,117.0
92,63.5875,63.8375,70.0,117.0
93,63.8375,64.0875,68.0,113.0
94,64.0875,64.3375,67.0,114.0
95,64.3375,64.5875,65.0,104.0
96,64.5875,65.0875,67.0,119.0
97,65.0875,65.5875,60.0,119.0
98,65.5875,66.0875,67.0,117.0
99,66.0875,66.3375,68.0,113.0
100,66.3375,66.8375,67.0,110.0
101,66.8375,67.5875,65.0,108.0
102,67.5875,67.8375,70.0,116.0
103,67.8375,68.12916666666666,68.0,113.0
104,68.0875,68.3375,67.0,110.0
105,68.3375,68.59375,65.0,98.0
106,68.5875,69.0875,67.0,108.0
107,69.0875,69.5875,58.0,114.0
108,69.5875,70.0875,65.0,117.0
109,70.0875,70.3375,67.0,114.0
110,70.3375,70.8375,65.0,114.0
111,70.8375,72.08541666666666,63.0,113.0
112,72.0875,72.33541666666666,63.0,110.0
113,72.3375,72.5875,63.0,100.0
114,72.5875,73.0875,65.0,114.0
115,73.0875,73.33541666666666,63.0,96.0
116,73.3375,74.0875,63.0,100.0
117,74.0875,74.33958333333334,62.0,110.0
118,74.3375,74.8375,60.0,107.0
119,74.8375,75.08541666666666,59.0,113.0
120,75.0875,75.3375,59.0,113.0
121,75.3375,75.8375,60.0,108.0
122,75.8375,76.58541666666666,62.0,110.0
123,76.5875,78.70625,62.0,119.0
124,78.5875,80.5875,60.0,114.0
125,97.0875,97.18333333333334,63.0,87.0
126,97.3375,97.42916666666666,63.0,86.0
127,97.5875,97.70625,63.0,91.0
128,97.8375,97.9375,63.0,92.0
129,98.3375,98.56458333333333,65.0,100.0
130,98.5875,98.79583333333333,63.0,88.0
131,98.8375,98.99791666666667,62.0,88.0
132,99.0875,99.18958333333333,62.0,89.0
133,99.3375,99.63333333333333,62.0,98.0
134,101.0875,101.23125,62.0,90.0
135,101.3375,101.48125,62.0,88.0
136,101.5875,101.71666666666667,62.0,87.0
137,101.8375,102.09166666666667,62.0,89.0
138,102.3375,102.59166666666667,63.0,88.0
139,102.58749999999999,102.78958333333333,67.0,86.0
140,102.83749999999999,102.96875,60.0,91.0
141,103.08749999999999,103.19583333333333,60.0,88.0
142,103.33749999999999,103.58541666666666,60.0,98.0
143,105.08749999999999,105.18958333333333,60.0,104.0
144,105.33749999999999,105.44791666666667,60.0,96.0
145,105.58749999999999,105.6875,60.0,96.0
146,105.83749999999999,106.05833333333334,60.0,110.0
147,106.33749999999999,106.62083333333334,60.0,88.0
148,106.58749999999999,106.87916666666666,59.0,91.0
149,107.33749999999999,107.45208333333333,59.0,93.0
150,107.58749999999999,107.75,59.0,95.0
151,107.83749999999999,108.10208333333333,60.0,104.0
152,108.33749999999999,108.65833333333333,60.0,110.0
153,111.58749999999999,111.77708333333334,70.0,119.0
154,111.83749999999999,112.05416666666666,68.0,106.0
155,112.08749999999999,112.32083333333333,67.0,104.0
156,112.33749999999999,112.57291666666667,65.0,102.0
157,112.58749999999999,112.85208333333333,67.0,114.0
158,113.08749999999999,113.39791666666666,60.0,93.0
159,113.58749999999999,113.91875,67.0,114.0
160,114.08749999999999,114.26458333333333,68.0,109.0
161,114.33749999999999,114.60833333333333,67.0,113.0
162,114.83749999999999,115.08958333333334,65.0,108.0
163,115.58749999999999,115.87916666666666,70.0,113.0
164,115.83749999999999,116.10625,68.0,109.0
165,116.08749999999999,116.33541666666666,67.0,107.0
166,116.33749999999999,116.60208333333333,65.0,107.0
167,116.58749999999999,116.825,67.0,113.0
168,117.08749999999999,117.40416666666667,58.0,107.0
169,117.58749999999999,117.89166666666667,65.0,117.0
170,118.08749999999999,118.27291666666666,67.0,110.0
171,118.33749999999999,118.65208333333334,65.0,114.0
172,118.83749999999999,119.12708333333333,63.0,119.0
173,119.83749999999999,119.97916666666667,63.0,90.0
174,120.08749999999999,120.20833333333333,63.0,94.0
175,120.33749999999999,120.65208333333334,65.0,114.0
176,121.08749999999999,121.2,63.0,104.0
177,121.33749999999999,121.59166666666667,63.0,116.0
178,122.08749999999999,122.31666666666666,62.0,114.0
179,122.33749999999999,122.71249999999999,60.0,104.0
180,122.83749999999999,123.10416666666667,59.0,113.0
181,123.33749999999999,123.77708333333334,60.0,83.0
182,123.83749999999999,124.09375,62.0,110.0
183,124.33749999999999,124.68541666666667,63.0,94.0
184,124.83749999999999,124.95416666666667,63.0,91.0
185,125.08749999999999,125.19583333333333,63.0,98.0
186,125.33749999999999,125.44166666666666,63.0,104.0
187,125.58749999999999,125.69791666666667,63.0,102.0
188,125.83749999999999,126.17708333333333,65.0,114.0
189,126.33749999999999,126.63958333333333,67.0,117.0
190,127.58749999999999,127.83541666666666,70.0,117.0
191,127.83749999999999,128.08333333333334,68.0,113.0
192,128.0875,128.30625,67.0,114.0
193,128.3375,128.54791666666665,65.0,104.0
194,128.5875,128.875,67.0,119.0
195,129.0875,129.40416666666667,60.0,119.0
196,129.5875,130.01041666666666,67.0,117.0
197,130.0875,130.33541666666667,68.0,113.0
198,130.3375,130.825,67.0,110.0
199,130.8375,131.20833333333334,65.0,108.0
200,131.5875,131.81666666666666,70.0,116.0
201,131.8375,132.12916666666666,68.0,113.0
202,132.0875,132.31458333333333,67.0,110.0
203,132.3375,132.59375,65.0,98.0
204,132.5875,132.85208333333333,67.0,108.0
205,133.0875,133.42708333333334,58.0,114.0
206,133.5875,134.0,65.0,117.0
207,134.0875,134.32291666666666,67.0,114.0
208,134.3375,134.82291666666666,65.0,114.0
209,134.8375,135.17291666666665,63.0,113.0
210,136.0875,136.17083333333332,63.0,110.0
211,136.3375,136.42708333333334,63.0,100.0
212,136.5875,136.89375,65.0,114.0
213,137.0875,137.16666666666666,63.0,96.0
214,137.3375,137.50625,63.0,100.0
215,138.0875,138.33958333333334,62.0,110.0
216,138.3375,138.8125,60.0,107.0
217,138.8375,138.9625,59.0,113.0
218,139.0875,139.2125,59.0,113.0
219,139.3375,139.82083333333333,60.0,108.0
220,139.8375,140.0625,62.0,110.0
221,140.5875,142.70625,62.0,119.0
222,142.5875,142.96875,60.0,114.0
223,143.5875,143.77708333333334,70.0,119.0
224,143.8375,144.05416666666667,68.0,106.0
225,144.0875,144.32083333333333,67.0,104.0
226,144.3375,144.57291666666666,65.0,102.0
227,144.5875,144.85208333333333,67.0,114.0
228,145.0875,145.39791666666667,60.0,93.0
229,145.5875,145.91875,67.0,114.0
230,146.0875,146.26458333333332,68.0,109.0
231,146.3375,146.60833333333332,67.0,113.0
232,146.8375,147.08958333333334,65.0,108.0
233,147.5875,147.87916666666666,70.0,113.0
234,147.8375,148.10625,68.0,109.0
235,148.0875,148.33541666666667,67.0,107.0
236,148.3375,148.60208333333333,65.0,107.0
237,148.5875,148.825,67.0,113.0
238,149.0875,149.40416666666667,58.0,107.0
239,149.5875,149.89166666666665,65.0,117.0
240,150.0875,150.27291666666667,67.0,110.0
241,150.3375,150.65208333333334,65.0,114.0
242,150.8375,151.12708333333333,63.0,119.0
243,151.8375,151.97916666666666,63.0,90.0
244,152.0875,152.20833333333334,63.0,94.0
245,152.3375,152.65208333333334,65.0,114.0
246,153.0875,153.2,63.0,104.0
247,153.3375,153.59166666666667,63.0,116.0
248,154.0875,154.31666666666666,62.0,114.0
249,154.3375,154.7125,60.0,104.0
250,154.8375,155.10416666666666,59.0,113.0
251,155.3375,155.77708333333334,60.0,83.0
252,155.8375,156.09375,62.0,110.0
253,156.5875,156.7125,63.0,94.0
254,156.92083333333332,157.14375,63.0,102.0
255,157.25416666666666,157.42083333333332,63.0,104.0
256,157.5875,157.80625,63.0,113.0
257,157.92083333333332,158.15625,65.0,113.0
258,158.25416666666666,158.41666666666666,63.0,108.0
259,158.5875,158.91875,67.0,117.0
260,159.5875,159.83541666666667,70.0,117.0
261,159.8375,160.08333333333334,68.0,113.0
262,160.0875,160.30625,67.0,114.0
263,160.3375,160.54791666666665,65.0,104.0
264,160.5875,160.875,67.0,119.0
265,161.0875,161.40416666666667,60.0,119.0
266,161.5875,162.01041666666666,67.0,117.0
267,162.0875,162.33541666666667,68.0,113.0
268,162.3375,162.825,67.0,110.0
269,162.8375,163.20833333333334,65.0,108.0
270,163.5875,163.81666666666666,70.0,116.0
271,163.8375,164.12916666666666,68.0,113.0
272,164.0875,164.31458333333333,67.0,110.0
273,164.3375,164.59375,65.0,98.0
274,164.5875,164.85208333333333,67.0,108.0
275,165.0875,165.42708333333334,58.0,114.0
276,165.5875,166.0,65.0,117.0
277,166.0875,166.32291666666666,67.0,114.0
278,166.3375,166.82291666666666,65.0,114.0
279,166.8375,167.17291666666665,63.0,113.0
280,168.0875,168.17083333333332,63.0,110.0
281,168.3375,168.42708333333334,63.0,100.0
282,168.5875,168.89375,65.0,114.0
283,169.0875,169.16666666666666,63.0,96.0
284,169.3375,169.50625,63.0,100.0
285,170.0875,170.33958333333334,62.0,110.0
286,170.3375,170.8125,60.0,107.0
287,170.8375,170.9625,59.0,113.0
288,171.0875,171.2125,59.0,113.0
289,171.3375,171.82083333333333,60.0,108.0
290,171.8375,172.0625,62.0,110.0
291,172.5875,174.70625,62.0,119.0
292,174.5875,174.96875,60.0,114.0
