,start,end,pitch,velocity
0,0.5875,1.9166666666666667,48.0,58.0
1,0.5875,2.35625,67.0,65.0
2,0.5875,2.3895833333333334,60.0,66.0
3,2.5875,3.9916666666666667,44.0,53.0
4,2.5875,4.033333333333333,56.0,60.0
5,2.5875,4.195833333333333,68.0,65.0
6,2.5875,4.30625,60.0,61.0
7,0.5875,4.489583333333333,63.0,62.0
8,4.5875,6.09375,60.0,62.0
9,4.5875,6.15,67.0,68.0
10,4.5875,6.195833333333333,63.0,57.0
11,4.5875,6.439583333333333,48.0,58.0
12,6.5874999999999995,7.283333333333333,67.0,67.0
13,6.5874999999999995,7.289583333333333,59.0,63.0
14,6.5874999999999995,7.372916666666667,62.0,65.0
15,6.5874999999999995,7.4125,55.0,62.0
16,6.5874999999999995,7.435416666666667,43.0,48.0
17,7.5874999999999995,8.297916666666666,68.0,65.0
18,7.5874999999999995,8.3625,61.0,63.0
19,7.5874999999999995,8.5875,47.0,64.0
20,7.5874999999999995,8.5875,65.0,66.0
21,8.5875,10.297916666666666,48.0,63.0
22,8.5875,10.3875,67.0,66.0
23,8.5875,10.402083333333334,60.0,64.0
24,8.5875,10.420833333333333,63.0,63.0
25,10.5875,12.379166666666666,67.0,67.0
26,10.5875,12.41875,60.0,65.0
27,10.5875,12.447916666666666,63.0,60.0
28,10.5875,12.477083333333333,56.0,62.0
29,10.5875,12.5125,44.0,59.0
30,12.5875,14.145833333333334,63.0,65.0
31,12.5875,14.1875,60.0,63.0
32,12.5875,14.258333333333333,67.0,68.0
33,12.5875,14.564583333333333,48.0,66.0
34,14.5875,15.270833333333334,67.0,68.0
35,14.5875,15.29375,59.0,65.0
36,14.5875,15.43125,62.0,63.0
37,14.5875,15.560416666666667,55.0,56.0
38,14.5875,15.622916666666667,43.0,51.0
39,15.5875,16.38125,68.0,66.0
40,15.5875,16.395833333333332,61.0,65.0
41,15.5875,16.4,65.0,65.0
42,15.5875,16.541666666666668,47.0,66.0
43,16.591666666666665,17.310416666666665,63.0,72.0
44,16.591666666666665,17.55625,72.0,77.0
45,16.591666666666665,17.570833333333333,67.0,76.0
46,16.591666666666665,17.633333333333333,48.0,72.0
47,16.591666666666665,17.704166666666666,55.0,58.0
48,17.841666666666665,18.141666666666666,67.0,70.0
49,18.091666666666665,18.316666666666666,72.0,83.0
50,18.341666666666665,18.625,75.0,84.0
51,19.591666666666665,19.90625,59.0,73.0
52,18.591666666666665,19.966666666666665,74.0,84.0
53,19.091666666666665,20.004166666666666,55.0,67.0
54,18.591666666666665,20.03125,47.0,79.0
55,18.591666666666665,20.191666666666666,67.0,83.0
56,20.591666666666665,21.716666666666665,65.0,83.0
57,21.591666666666665,21.758333333333333,58.0,42.0
58,20.591666666666665,21.758333333333333,74.0,86.0
59,21.091666666666665,22.020833333333332,55.0,38.0
60,20.591666666666665,22.0375,46.0,81.0
61,21.841666666666665,22.039583333333333,65.0,80.0
62,22.091666666666665,22.520833333333332,74.0,88.0
63,22.591666666666665,23.2625,72.0,76.0
64,22.591666666666665,23.297916666666666,65.0,83.0
65,22.591666666666665,23.81875,45.0,79.0
66,23.591666666666665,23.985416666666666,72.0,83.0
67,23.591666666666665,24.045833333333334,65.0,81.0
68,24.591666666666665,25.185416666666665,68.0,71.0
69,24.591666666666665,25.245833333333334,63.0,78.0
70,24.591666666666665,25.25,60.0,71.0
71,25.591666666666665,25.78125,68.0,67.0
72,25.591666666666665,25.808333333333334,63.0,72.0
73,24.591666666666665,25.839583333333334,56.0,72.0
74,24.591666666666665,25.891666666666666,44.0,66.0
75,25.591666666666665,25.9375,60.0,75.0
76,26.591666666666665,27.085416666666667,67.0,80.0
77,26.591666666666665,27.120833333333334,62.0,78.0
78,26.591666666666665,27.224999999999998,59.0,74.0
79,27.591666666666665,27.947916666666668,59.0,74.0
80,26.591666666666665,27.995833333333334,43.0,69.0
81,27.591666666666665,28.0125,62.0,77.0
82,27.591666666666665,28.016666666666666,67.0,80.0
83,26.591666666666665,28.452083333333334,55.0,73.0
84,28.591666666666665,29.16875,67.0,71.0
85,28.591666666666665,29.18125,60.0,65.0
86,28.591666666666665,29.18125,63.0,66.0
87,29.591666666666665,29.702083333333334,63.0,77.0
88,29.591666666666665,29.71875,67.0,73.0
89,29.591666666666665,29.733333333333334,60.0,77.0
90,28.591666666666665,29.747916666666665,48.0,71.0
91,30.841666666666665,31.366666666666667,59.0,75.0
92,30.841666666666665,31.385416666666668,55.0,68.0
93,30.841666666666665,31.39375,63.0,79.0
94,30.841666666666665,31.410416666666666,43.0,67.0
95,31.591666666666665,32.014583333333334,65.0,87.0
96,32.09166666666667,32.48125,70.0,85.0
97,32.59166666666667,33.204166666666666,72.0,83.0
98,32.59166666666667,33.225,67.0,84.0
99,32.59166666666667,33.2625,63.0,81.0
100,32.59166666666667,33.80416666666667,48.0,87.0
101,33.59166666666667,33.99583333333333,63.0,83.0
102,33.59166666666667,34.291666666666664,67.0,81.0
103,33.59166666666667,34.46458333333333,72.0,86.0
104,34.59166666666667,35.125,74.0,83.0
105,34.59166666666667,35.18125,71.0,83.0
106,34.59166666666667,35.260416666666664,67.0,84.0
107,34.59166666666667,35.60625,59.0,80.0
108,35.84166666666667,36.077083333333334,59.0,83.0
109,35.59166666666667,36.10208333333333,74.0,88.0
110,34.59166666666667,36.12916666666666,47.0,78.0
111,36.09166666666667,36.329166666666666,67.0,81.0
112,36.59166666666667,37.197916666666664,70.0,88.0
113,36.34166666666667,37.21041666666667,74.0,86.0
114,36.59166666666667,37.260416666666664,65.0,86.0
115,37.59166666666667,37.725,74.0,78.0
116,37.59166666666667,37.8375,70.0,82.0
117,37.59166666666667,37.99166666666667,65.0,87.0
118,36.59166666666667,38.05625,46.0,84.0
119,38.34166666666667,39.041666666666664,63.0,76.0
120,38.34166666666667,39.172916666666666,60.0,65.0
121,38.59166666666667,39.175,69.0,91.0
122,38.59166666666667,39.875,45.0,77.0
123,39.59166666666667,40.06041666666667,69.0,90.0
124,39.84166666666667,40.21041666666667,60.0,83.0
125,40.09166666666667,40.37291666666667,63.0,81.0
126,40.34166666666667,40.59166666666667,69.0,86.0
127,40.59166666666667,41.1875,63.0,78.0
128,40.59166666666667,41.197916666666664,67.0,83.0
129,40.59166666666667,41.25833333333333,60.0,82.0
130,41.59166666666667,41.825,63.0,88.0
131,40.59166666666667,41.916666666666664,56.0,81.0
132,40.59166666666667,41.927083333333336,44.0,76.0
133,41.59166666666667,42.06458333333333,60.0,88.0
134,41.59166666666667,42.16875,67.0,87.0
135,42.59166666666667,43.170833333333334,67.0,86.0
136,42.59166666666667,43.17916666666667,59.0,83.0
137,42.59166666666667,43.18541666666667,62.0,87.0
138,42.59166666666667,43.97708333333333,43.0,75.0
139,43.59166666666667,44.072916666666664,59.0,86.0
140,43.59166666666667,44.23125,67.0,87.0
141,43.59166666666667,44.43541666666667,62.0,86.0
142,44.59166666666667,44.889583333333334,60.0,84.0
143,44.59166666666667,45.233333333333334,63.0,87.0
144,44.59166666666667,45.4,67.0,87.0
145,45.59166666666667,45.791666666666664,62.0,94.0
146,45.34166666666667,45.891666666666666,60.0,83.0
147,45.09166666666667,46.079166666666666,55.0,65.0
148,44.59166666666667,46.25625,48.0,83.0
149,45.84166666666667,46.28541666666666,63.0,110.0
150,46.34166666666667,46.6125,62.0,83.0
151,46.59166666666667,46.895833333333336,60.0,87.0
152,46.59166666666667,46.983333333333334,63.0,87.0
153,46.59166666666667,47.02708333333333,67.0,89.0
154,46.59166666666667,47.71666666666667,48.0,86.0
155,47.59166666666667,47.87083333333333,67.0,98.0
156,47.59166666666667,47.91041666666666,60.0,102.0
157,47.84166666666667,48.12916666666666,62.0,89.0
158,48.09166666666667,48.34375,63.0,86.0
159,48.34166666666667,48.610416666666666,62.0,86.0
160,48.59166666666667,49.3,63.0,104.0
161,48.59166666666667,49.302083333333336,67.0,98.0
162,48.59166666666667,49.34583333333333,60.0,96.0
163,48.59166666666667,49.7875,48.0,91.0
164,49.59166666666667,50.075,67.0,100.0
165,49.59166666666667,50.114583333333336,63.0,107.0
166,49.59166666666667,50.12291666666667,60.0,93.0
167,50.34166666666667,50.41458333333333,63.0,92.0
168,50.34166666666667,50.416666666666664,60.0,88.0
169,50.34166666666667,50.416666666666664,67.0,89.0
170,50.34166666666667,50.44166666666666,48.0,91.0
171,50.59166666666667,51.05625,46.0,90.0
172,50.84166666666667,51.43541666666667,65.0,100.0
173,50.84166666666667,51.44375,62.0,100.0
174,50.84166666666667,51.449999999999996,58.0,89.0
175,51.293749999999996,51.729166666666664,46.0,92.0
176,51.59166666666667,52.172916666666666,58.0,110.0
177,51.59166666666667,52.175,65.0,108.0
178,51.59166666666667,52.364583333333336,62.0,114.0
179,52.09166666666667,52.49583333333333,46.0,89.0
180,52.59166666666667,53.3375,67.0,90.0
181,52.59166666666667,53.33958333333333,62.0,108.0
182,52.59166666666667,53.34166666666667,58.0,102.0
183,53.34166666666667,53.59166666666667,55.0,81.0
184,52.59166666666667,53.793749999999996,43.0,89.0
185,53.59166666666667,54.139583333333334,67.0,110.0
186,53.59166666666667,54.1625,58.0,107.0
187,53.59166666666667,54.17916666666667,62.0,117.0
188,54.09166666666667,54.229166666666664,43.0,91.0
189,54.34166666666667,54.40416666666667,60.0,104.0
190,54.34166666666667,54.40416666666667,63.0,108.0
191,54.34166666666667,54.4125,67.0,94.0
192,54.34166666666667,54.418749999999996,48.0,104.0
193,54.84166666666667,55.302083333333336,48.0,100.0
194,54.84166666666667,55.4,67.0,108.0
195,54.84166666666667,55.416666666666664,63.0,114.0
196,54.84166666666667,55.425,60.0,108.0
197,55.34166666666667,55.610416666666666,48.0,92.0
198,55.59166666666667,56.135416666666664,67.0,108.0
199,55.59166666666667,56.14791666666667,63.0,117.0
200,55.59166666666667,56.22708333333333,60.0,116.0
201,56.09166666666667,56.520833333333336,48.0,91.0
202,56.59166666666667,57.01875,53.0,96.0
203,56.59166666666667,57.204166666666666,60.0,107.0
204,56.59166666666667,57.231249999999996,65.0,104.0
205,56.59166666666667,57.4375,56.0,97.0
206,57.34166666666667,57.64791666666667,53.0,86.0
207,57.59166666666667,58.045833333333334,60.0,119.0
208,57.59166666666667,58.05,56.0,109.0
209,57.59166666666667,58.05625,65.0,110.0
210,58.09166666666667,58.204166666666666,53.0,81.0
211,56.59166666666667,58.25416666666666,41.0,87.0
212,58.34166666666667,58.41458333333333,59.0,90.0
213,58.34166666666667,58.41458333333333,62.0,87.0
214,58.34166666666667,58.42916666666667,55.0,90.0
215,58.34166666666667,58.43333333333333,43.0,91.0
216,58.59166666666667,58.96666666666667,43.0,89.0
217,58.84166666666667,59.42916666666667,62.0,110.0
218,58.84166666666667,59.46458333333333,55.0,104.0
219,58.84166666666667,59.46666666666667,59.0,109.0
220,59.34166666666667,59.62708333333333,43.0,89.0
221,59.59166666666667,60.141666666666666,55.0,108.0
222,59.59166666666667,60.168749999999996,62.0,116.0
223,59.59166666666667,60.21041666666667,59.0,119.0
224,60.09166666666667,60.416666666666664,43.0,108.0
225,60.59166666666667,61.34583333333333,67.0,94.0
226,60.59166666666667,61.358333333333334,63.0,100.0
227,60.59166666666667,61.37083333333333,60.0,91.0
228,61.34166666666667,61.735416666666666,55.0,83.0
229,61.59166666666667,62.16458333333333,67.0,100.0
230,60.59166666666667,62.25625,48.0,91.0
231,61.59166666666667,62.28125,62.0,107.0
232,62.09166666666667,62.62916666666666,55.0,74.0
233,62.34166666666667,62.895833333333336,67.0,108.0
234,62.34166666666667,62.93333333333333,60.0,104.0
235,62.34166666666667,62.94166666666666,63.0,113.0
236,63.09166666666667,63.22708333333333,62.0,104.0
237,63.09166666666667,63.239583333333336,67.0,100.0
238,62.84166666666667,63.427083333333336,55.0,83.0
239,63.34166666666667,63.795833333333334,62.0,114.0
240,63.34166666666667,63.824999999999996,67.0,104.0
241,63.84166666666667,64.14791666666666,60.0,94.0
242,62.59166666666667,64.175,48.0,92.0
243,63.59166666666667,64.17916666666666,55.0,108.0
244,64.09166666666667,64.52708333333334,62.0,102.0
245,64.34166666666667,64.7375,63.0,89.0
246,64.59166666666667,64.91666666666667,60.0,98.0
247,64.59166666666667,64.97916666666667,67.0,108.0
248,65.34166666666667,65.69583333333333,55.0,87.0
249,65.59166666666667,66.09375,72.0,113.0
250,65.59166666666667,66.14583333333333,63.0,117.0
251,64.59166666666667,66.18541666666667,48.0,91.0
252,66.09166666666667,66.21458333333334,67.0,77.0
253,66.09166666666667,66.61458333333333,55.0,70.0
254,66.34166666666667,66.82083333333333,65.0,98.0
255,66.34166666666667,66.90833333333333,70.0,93.0
256,66.34166666666667,67.08125,62.0,91.0
257,67.09166666666667,67.2625,58.0,83.0
258,67.34166666666667,67.81875,62.0,104.0
259,67.34166666666667,67.825,65.0,108.0
260,66.84166666666667,67.85625,55.0,81.0
261,66.59166666666667,67.93541666666667,46.0,88.0
262,67.84166666666667,68.15416666666667,62.0,89.0
263,67.34166666666667,68.19583333333333,70.0,104.0
264,68.34166666666667,68.49791666666667,67.0,80.0
265,68.09166666666667,68.54583333333333,65.0,87.0
266,68.59166666666667,69.05208333333333,51.0,89.0
267,68.59166666666667,69.3375,67.0,91.0
268,68.59166666666667,69.34791666666666,58.0,94.0
269,68.59166666666667,69.36458333333333,63.0,104.0
270,69.34166666666667,69.72708333333333,51.0,91.0
271,68.59166666666667,70.075,39.0,89.0
272,69.59166666666667,70.23125,58.0,116.0
273,69.59166666666667,70.48958333333333,67.0,108.0
274,70.09166666666667,70.49791666666667,62.0,86.0
275,70.09166666666667,70.58541666666666,51.0,88.0
276,70.59166666666667,71.31875,67.0,93.0
277,70.59166666666667,71.35833333333333,63.0,107.0
278,70.59166666666667,71.40208333333334,60.0,96.0
279,71.34166666666667,71.72083333333333,56.0,86.0
280,70.59166666666667,71.7625,44.0,86.0
281,71.09166666666667,71.925,51.0,68.0
282,71.59166666666667,72.02708333333334,67.0,108.0
283,71.59166666666667,72.03333333333333,63.0,116.0
284,72.09166666666667,72.17916666666666,45.0,76.0
285,71.59166666666667,72.2125,60.0,114.0
286,72.59166666666667,73.15833333333333,56.0,95.0
287,72.59166666666667,73.35,65.0,107.0
288,72.59166666666667,73.38958333333333,60.0,107.0
289,73.34166666666667,73.70208333333333,53.0,100.0
290,73.59166666666667,73.96875,56.0,97.0
291,73.59166666666667,74.01875,60.0,102.0
292,72.59166666666667,74.14166666666667,41.0,93.0
293,73.59166666666667,74.22708333333333,65.0,104.0
294,74.09166666666667,74.41458333333333,53.0,83.0
295,74.59166666666667,75.03125,43.0,88.0
296,74.59166666666667,75.18125,62.0,96.0
297,74.59166666666667,75.2,65.0,96.0
298,74.59166666666667,75.22291666666666,59.0,97.0
299,74.59166666666667,75.23125,55.0,90.0
300,75.34166666666667,75.84375,62.0,91.0
301,75.34166666666667,75.88958333333333,59.0,97.0
302,75.34166666666667,75.89375,65.0,93.0
303,75.34166666666667,75.90833333333333,55.0,91.0
304,75.84166666666667,76.18125,43.0,83.0
305,76.09166666666667,76.24791666666667,65.0,91.0
306,76.09166666666667,76.32083333333333,62.0,93.0
307,76.09166666666667,76.34166666666667,55.0,88.0
308,76.09166666666667,76.35,59.0,103.0
309,76.59166666666667,76.76041666666667,55.0,88.0
310,76.59166666666667,76.90416666666667,60.0,98.0
311,76.59166666666667,76.92916666666666,63.0,94.0
312,77.34166666666667,77.73958333333333,60.0,91.0
313,77.59166666666667,78.14583333333333,67.0,113.0
314,78.09166666666667,78.24375,60.0,82.0
315,77.09166666666667,78.42916666666666,55.0,76.0
316,76.59166666666667,78.475,48.0,90.0
317,78.09166666666667,78.62083333333334,65.0,84.0
318,78.59166666666667,79.65,60.0,90.0
319,78.59166666666667,79.68333333333334,63.0,98.0
320,78.59166666666667,79.71458333333334,67.0,88.0
321,78.59166666666667,79.74583333333334,48.0,80.0
322,78.59166666666667,79.75,55.0,82.0
323,80.59166666666667,81.98125,63.0,80.0
324,80.59166666666667,82.03125,58.0,78.0
325,80.59166666666667,82.12916666666666,60.0,79.0
326,80.59166666666667,82.15625,55.0,80.0
327,80.59166666666667,82.47916666666667,48.0,79.0
328,82.59166666666667,84.04791666666667,53.0,77.0
329,82.59166666666667,84.07708333333333,58.0,72.0
330,82.59166666666667,84.07916666666667,62.0,76.0
331,82.59166666666667,84.0875,56.0,73.0
332,82.59166666666667,84.50833333333333,46.0,77.0
333,84.59166666666667,85.89583333333333,58.0,78.0
334,84.59166666666667,86.05833333333334,63.0,81.0
335,84.59166666666667,86.09791666666666,55.0,75.0
336,84.59166666666667,86.12291666666667,51.0,76.0
337,84.59166666666667,86.14791666666666,39.0,74.0
338,86.59166666666667,88.05208333333333,55.0,80.0
339,86.59166666666667,88.05416666666666,56.0,81.0
340,86.59166666666667,88.0625,60.0,83.0
341,86.59166666666667,88.07708333333333,63.0,81.0
342,86.59166666666667,88.28333333333333,44.0,73.0
343,88.59166666666667,90.21458333333334,53.0,74.0
344,88.59166666666667,90.25,56.0,78.0
345,88.59166666666667,90.26875,60.0,82.0
346,88.59166666666667,90.38333333333333,41.0,79.0
347,90.59166666666667,91.96666666666667,60.0,30.0
348,90.59166666666667,92.05833333333334,62.0,82.0
349,90.59166666666667,92.11458333333333,59.0,83.0
350,90.59166666666667,92.15208333333334,55.0,77.0
351,90.59166666666667,92.4375,43.0,78.0
352,92.59166666666667,94.43125,68.0,84.0
353,92.59166666666667,94.44166666666666,65.0,71.0
354,92.59166666666667,94.45833333333333,49.0,79.0
355,92.59166666666667,94.56458333333333,61.0,69.0
356,94.86458333333333,94.97083333333333,67.0,88.0
357,94.86458333333333,94.97916666666667,72.0,87.0
358,94.86458333333333,94.98333333333333,48.0,91.0
359,94.86458333333333,94.98333333333333,64.0,86.0
360,95.11458333333333,95.22083333333333,48.0,98.0
361,95.11458333333333,95.22083333333333,67.0,92.0
362,95.11458333333333,95.22708333333333,72.0,93.0
363,95.11458333333333,95.23125,64.0,88.0
364,95.36458333333333,95.46875,67.0,100.0
365,95.36458333333333,95.47291666666666,64.0,89.0
366,95.36458333333333,95.47291666666666,72.0,92.0
367,95.36458333333333,95.475,48.0,100.0
368,95.61458333333333,95.80208333333333,64.0,103.0
369,95.61458333333333,95.81041666666667,72.0,104.0
370,95.61458333333333,95.83333333333333,67.0,114.0
371,95.61458333333333,95.84791666666666,48.0,107.0
372,96.5875,97.2,72.0,83.0
373,96.5875,97.22083333333333,67.0,84.0
374,96.5875,97.25833333333333,63.0,81.0
375,96.5875,97.8,48.0,87.0
376,97.5875,97.99166666666666,63.0,83.0
377,97.5875,98.2875,67.0,81.0
378,97.5875,98.46041666666666,72.0,86.0
379,98.5875,99.12083333333334,74.0,83.0
380,98.5875,99.17708333333333,71.0,83.0
381,98.5875,99.25625,67.0,84.0
382,98.5875,99.60208333333333,59.0,80.0
383,99.8375,100.07291666666667,59.0,83.0
384,99.5875,100.09791666666666,74.0,88.0
385,98.5875,100.125,47.0,78.0
386,100.0875,100.325,67.0,81.0
387,100.5875,101.19375,70.0,88.0
388,100.3375,101.20625,74.0,86.0
389,100.5875,101.25625,65.0,86.0
390,101.5875,101.72083333333333,74.0,78.0
391,101.5875,101.83333333333333,70.0,82.0
392,101.5875,101.9875,65.0,87.0
393,100.5875,102.05208333333333,46.0,84.0
394,102.3375,103.0375,63.0,76.0
395,102.3375,103.16875,60.0,65.0
396,102.58749999999999,103.17083333333333,69.0,91.0
397,102.58749999999999,103.87083333333334,45.0,77.0
398,103.58749999999999,104.05624999999999,69.0,90.0
399,103.83749999999999,104.20625,60.0,83.0
400,104.08749999999999,104.36874999999999,63.0,81.0
401,104.33749999999999,104.58749999999999,69.0,86.0
402,104.58749999999999,105.18333333333334,63.0,78.0
403,104.58749999999999,105.19375,67.0,83.0
404,104.58749999999999,105.25416666666666,60.0,82.0
405,105.58749999999999,105.82083333333333,63.0,88.0
406,104.58749999999999,105.9125,56.0,81.0
407,104.58749999999999,105.92291666666667,44.0,76.0
408,105.58749999999999,106.06041666666667,60.0,88.0
409,105.58749999999999,106.16458333333333,67.0,87.0
410,106.58749999999999,107.16666666666667,67.0,86.0
411,106.58749999999999,107.175,59.0,83.0
412,106.58749999999999,107.18124999999999,62.0,87.0
413,106.58749999999999,107.97291666666666,43.0,75.0
414,107.58749999999999,108.06875,59.0,86.0
415,107.58749999999999,108.22708333333333,67.0,87.0
416,107.58749999999999,108.43124999999999,62.0,86.0
417,108.58749999999999,108.88541666666667,60.0,84.0
418,108.58749999999999,109.22916666666667,63.0,87.0
419,108.58749999999999,109.39583333333333,67.0,87.0
420,109.58749999999999,109.7875,62.0,94.0
421,109.33749999999999,109.8875,60.0,83.0
422,109.08749999999999,110.075,55.0,65.0
423,108.58749999999999,110.25208333333333,48.0,83.0
424,109.83749999999999,110.28125,63.0,110.0
425,110.33749999999999,110.60833333333333,62.0,83.0
426,110.58749999999999,110.89166666666667,60.0,87.0
427,110.58749999999999,110.97916666666667,63.0,87.0
428,110.58749999999999,111.02291666666666,67.0,89.0
429,110.58749999999999,111.71249999999999,48.0,86.0
430,111.58749999999999,111.86666666666666,67.0,98.0
431,111.58749999999999,111.90625,60.0,102.0
432,111.83749999999999,112.125,62.0,89.0
433,112.08749999999999,112.33958333333334,63.0,86.0
434,112.33749999999999,112.60625,62.0,86.0
435,112.58749999999999,113.28541666666666,67.0,90.0
436,112.58749999999999,113.31458333333333,60.0,89.0
437,112.58749999999999,113.33541666666666,63.0,92.0
438,112.58749999999999,113.99374999999999,48.0,89.0
439,113.58749999999999,114.31458333333333,60.0,98.0
440,113.58749999999999,114.38125,67.0,98.0
441,113.58749999999999,114.50833333333333,63.0,96.0
442,114.33749999999999,114.60833333333333,48.0,86.0
443,114.58749999999999,115.11041666666667,46.0,81.0
444,114.58749999999999,115.45416666666667,65.0,88.0
445,114.58749999999999,115.45625,58.0,88.0
446,114.58749999999999,115.46458333333334,62.0,91.0
447,115.33749999999999,115.84166666666667,46.0,87.0
448,115.58749999999999,116.30624999999999,58.0,91.0
449,116.08749999999999,116.45625,46.0,80.0
450,115.58749999999999,116.47083333333333,65.0,96.0
451,115.58749999999999,116.49374999999999,62.0,102.0
452,116.58749999999999,117.30833333333334,67.0,94.0
453,116.58749999999999,117.32291666666667,58.0,98.0
454,116.58749999999999,117.33749999999999,63.0,100.0
455,117.33749999999999,117.72083333333333,51.0,82.0
456,116.58749999999999,117.96875,39.0,100.0
457,117.58749999999999,118.17291666666667,58.0,94.0
458,117.58749999999999,118.42291666666667,67.0,98.0
459,117.58749999999999,118.45833333333333,63.0,98.0
460,118.08749999999999,118.58541666666666,51.0,82.0
461,118.58749999999999,119.35208333333333,67.0,90.0
462,118.58749999999999,119.37708333333333,63.0,96.0
463,118.58749999999999,119.38333333333333,60.0,88.0
464,119.33749999999999,119.70416666666667,56.0,82.0
465,118.58749999999999,119.79375,44.0,80.0
466,119.58749999999999,120.00625,63.0,104.0
467,119.58749999999999,120.02499999999999,67.0,93.0
468,119.58749999999999,120.24791666666667,60.0,107.0
469,120.58749999999999,121.05416666666666,53.0,84.0
470,120.58749999999999,121.30833333333334,56.0,87.0
471,120.58749999999999,121.33749999999999,65.0,100.0
472,120.58749999999999,121.35,60.0,96.0
473,121.33749999999999,121.71458333333334,53.0,86.0
474,121.58749999999999,121.97291666666666,56.0,93.0
475,121.58749999999999,122.01875,60.0,100.0
476,120.58749999999999,122.15208333333334,41.0,87.0
477,121.58749999999999,122.18541666666667,65.0,102.0
478,122.08749999999999,122.40625,53.0,87.0
479,122.58749999999999,122.95833333333333,55.0,89.0
480,122.58749999999999,122.9875,59.0,93.0
481,122.58749999999999,123.02708333333334,62.0,90.0
482,122.58749999999999,123.07708333333333,65.0,92.0
483,123.58749999999999,123.92291666666667,59.0,88.0
484,123.83749999999999,124.10416666666667,62.0,98.0
485,122.58749999999999,124.15625,43.0,87.0
486,123.08749999999999,124.17083333333333,50.0,81.0
487,124.08749999999999,124.45,67.0,96.0
488,124.33749999999999,124.50416666666666,62.0,38.0
489,123.33749999999999,124.56458333333333,55.0,93.0
490,124.58749999999999,125.34166666666667,67.0,94.0
491,124.58749999999999,125.35416666666667,63.0,100.0
492,124.58749999999999,125.36666666666666,60.0,91.0
493,125.33749999999999,125.73125,55.0,83.0
494,125.58749999999999,126.16041666666666,67.0,100.0
495,124.58749999999999,126.25208333333333,48.0,91.0
496,125.58749999999999,126.27708333333334,62.0,107.0
497,126.08749999999999,126.625,55.0,74.0
498,126.33749999999999,126.89166666666667,67.0,108.0
499,126.33749999999999,126.92916666666666,60.0,104.0
500,126.33749999999999,126.9375,63.0,113.0
501,127.08749999999999,127.22291666666666,62.0,104.0
502,127.08749999999999,127.23333333333333,67.0,100.0
503,126.83749999999999,127.42291666666667,55.0,83.0
504,127.33749999999999,127.79166666666667,62.0,114.0
505,127.33749999999999,127.82083333333333,67.0,104.0
506,127.83749999999999,128.14375,60.0,94.0
507,126.58749999999999,128.17083333333332,48.0,92.0
508,127.58749999999999,128.175,55.0,108.0
509,128.0875,128.52291666666667,62.0,102.0
510,128.3375,128.73333333333332,63.0,89.0
511,128.5875,128.9125,60.0,98.0
512,128.5875,128.975,67.0,108.0
513,129.3375,129.69166666666666,55.0,87.0
514,129.5875,130.08958333333334,72.0,113.0
515,129.5875,130.14166666666665,63.0,117.0
516,128.5875,130.18125,48.0,91.0
517,130.0875,130.21041666666667,67.0,77.0
518,130.0875,130.61041666666665,55.0,70.0
519,130.3375,130.81666666666666,65.0,98.0
520,130.3375,130.90416666666667,70.0,93.0
521,130.3375,131.07708333333332,62.0,91.0
522,131.0875,131.25833333333333,58.0,83.0
523,131.3375,131.81458333333333,62.0,104.0
524,131.3375,131.82083333333333,65.0,108.0
525,130.8375,131.85208333333333,55.0,81.0
526,130.5875,131.93125,46.0,88.0
527,131.8375,132.15,62.0,89.0
528,131.3375,132.19166666666666,70.0,104.0
529,132.3375,132.49375,67.0,80.0
530,132.0875,132.54166666666666,65.0,87.0
531,132.5875,133.04791666666665,51.0,89.0
532,132.5875,133.33333333333334,67.0,91.0
533,132.5875,133.34375,58.0,94.0
534,132.5875,133.36041666666665,63.0,104.0
535,133.3375,133.72291666666666,51.0,91.0
536,132.5875,134.07083333333333,39.0,89.0
537,133.5875,134.22708333333333,58.0,116.0
538,133.5875,134.48541666666665,67.0,108.0
539,134.0875,134.49375,62.0,86.0
540,134.0875,134.58125,51.0,88.0
541,134.5875,135.31458333333333,67.0,93.0
542,134.5875,135.35416666666666,63.0,107.0
543,134.5875,135.39791666666667,60.0,96.0
544,135.3375,135.71666666666667,56.0,86.0
545,134.5875,135.75833333333333,44.0,86.0
546,135.0875,135.92083333333332,51.0,68.0
547,135.5875,136.02291666666667,67.0,108.0
548,135.5875,136.02916666666667,63.0,116.0
549,136.0875,136.175,45.0,76.0
550,135.5875,136.20833333333334,60.0,114.0
551,136.5875,137.15416666666667,56.0,95.0
552,136.5875,137.34583333333333,65.0,107.0
553,136.5875,137.38541666666666,60.0,107.0
554,137.3375,137.69791666666666,53.0,100.0
555,137.5875,137.96458333333334,56.0,97.0
556,137.5875,138.01458333333332,60.0,102.0
557,136.5875,138.1375,41.0,93.0
558,137.5875,138.22291666666666,65.0,104.0
559,138.0875,138.41041666666666,53.0,83.0
560,138.5875,139.02708333333334,43.0,88.0
561,138.5875,139.17708333333334,62.0,96.0
562,138.5875,139.19583333333333,65.0,96.0
563,138.5875,139.21875,59.0,97.0
564,138.5875,139.225,55.0,90.0
565,139.3375,139.83958333333334,62.0,91.0
566,139.3375,139.88541666666666,59.0,97.0
567,139.3375,139.88958333333332,65.0,93.0
568,139.3375,139.90416666666667,55.0,91.0
569,139.8375,140.17708333333334,43.0,83.0
570,140.0875,140.24166666666667,65.0,91.0
571,140.0875,140.31666666666666,62.0,93.0
572,140.0875,140.3375,55.0,88.0
573,140.0875,140.34583333333333,59.0,103.0
574,140.5875,140.75625,55.0,88.0
575,140.5875,140.9,60.0,98.0
576,140.5875,140.925,63.0,94.0
577,141.3375,141.73541666666665,60.0,91.0
578,141.5875,142.14166666666665,67.0,113.0
579,142.0875,142.23958333333334,60.0,82.0
580,141.0875,142.425,55.0,76.0
581,140.5875,142.47083333333333,48.0,90.0
582,142.0875,142.61666666666667,65.0,84.0
583,142.5875,143.64583333333334,60.0,90.0
584,142.5875,143.67916666666667,63.0,98.0
585,142.5875,143.71041666666667,67.0,88.0
586,142.5875,143.74166666666667,48.0,80.0
587,142.5875,143.74375,55.0,82.0
588,144.3375,145.9875,60.0,70.0
589,144.4625,146.08541666666667,63.0,71.0
590,144.5875,146.14166666666665,48.0,70.0
591,144.5875,146.14583333333334,67.0,74.0
592,146.5875,147.73958333333334,46.0,71.0
593,146.3375,147.99791666666667,58.0,69.0
594,146.4625,148.075,62.0,66.0
595,146.5875,148.12291666666667,65.0,79.0
596,148.5875,149.82708333333332,39.0,63.0
597,148.5875,149.88333333333333,51.0,62.0
598,148.3375,149.96041666666667,58.0,65.0
599,148.4625,150.01875,63.0,74.0
600,148.5875,150.02916666666667,67.0,69.0
601,150.5875,151.76875,56.0,65.0
602,150.5875,151.78958333333333,44.0,56.0
603,150.5875,151.83125,67.0,75.0
604,150.4625,151.84375,60.0,70.0
605,152.57708333333332,153.17916666666667,65.0,84.0
606,152.5875,153.18125,60.0,82.0
607,152.5875,153.23333333333332,56.0,77.0
608,153.5875,154.0,56.0,76.0
609,153.5875,154.01666666666665,60.0,81.0
610,152.5875,154.11666666666667,53.0,68.0
611,152.5875,154.17083333333332,41.0,67.0
612,153.62708333333333,154.20833333333334,65.0,80.0
613,154.5875,155.18125,62.0,73.0
614,154.5875,155.27291666666667,55.0,77.0
615,154.5875,155.28958333333333,59.0,78.0
616,154.61875,155.29791666666665,65.0,78.0
617,155.5875,155.9125,62.0,70.0
618,155.5875,155.92708333333334,55.0,73.0
619,154.5875,155.93125,43.0,77.0
620,155.5875,155.97083333333333,59.0,70.0
621,155.5875,155.97708333333333,65.0,72.0
622,156.5875,156.79375,60.0,84.0
623,156.5875,156.79583333333332,48.0,87.0
624,156.5875,156.8,63.0,86.0
625,156.5875,156.80416666666667,67.0,86.0
626,156.92083333333332,157.08541666666667,48.0,84.0
627,156.92083333333332,157.11041666666665,60.0,81.0
628,156.92083333333332,157.11041666666665,67.0,83.0
629,156.92083333333332,157.1125,63.0,83.0
630,157.25416666666666,157.37083333333334,67.0,80.0
631,157.25416666666666,157.37916666666666,60.0,77.0
632,157.25416666666666,157.38541666666666,48.0,85.0
633,157.25416666666666,157.39166666666665,63.0,79.0
634,157.5875,157.79583333333332,60.0,83.0
635,157.5875,157.79583333333332,67.0,84.0
636,157.5875,157.825,48.0,87.0
637,157.5875,157.83333333333334,63.0,82.0
638,157.92083333333332,158.05,48.0,88.0
639,157.92083333333332,158.06875,67.0,80.0
640,157.92083333333332,158.09583333333333,60.0,83.0
641,157.92083333333332,158.10208333333333,63.0,83.0
642,158.25416666666666,158.3375,60.0,83.0
643,158.25416666666666,158.33958333333334,67.0,82.0
644,158.25416666666666,158.34166666666667,48.0,88.0
645,158.25416666666666,158.37083333333334,63.0,85.0
646,158.5875,159.2125,60.0,84.0
647,158.5875,159.22083333333333,63.0,88.0
648,158.5875,159.23958333333334,48.0,88.0
649,158.5875,159.24583333333334,67.0,87.0
650,160.5875,161.0375,48.0,93.0
651,161.3375,161.44791666666666,55.0,96.0
652,161.0875,161.65208333333334,58.0,88.0
653,161.0875,161.65208333333334,63.0,92.0
654,161.0875,161.65416666666667,60.0,91.0
655,161.0875,161.66041666666666,67.0,89.0
656,161.5875,161.87083333333334,55.0,107.0
657,161.8375,162.13958333333332,63.0,96.0
658,161.8375,162.14583333333334,58.0,89.0
659,161.8375,162.15,60.0,96.0
660,161.8375,162.16041666666666,67.0,88.0
661,162.3375,162.45208333333332,58.0,87.0
662,162.0875,162.46458333333334,48.0,102.0
663,162.3375,162.47083333333333,60.0,91.0
664,162.3375,162.47291666666666,67.0,87.0
665,162.3375,162.4875,63.0,91.0
666,162.5875,163.11041666666665,46.0,89.0
667,163.3375,163.43541666666667,53.0,93.0
668,163.0875,163.575,68.0,85.0
669,163.0875,163.63333333333333,62.0,91.0
670,163.0875,163.6375,58.0,86.0
671,163.0875,163.65,65.0,90.0
672,163.5875,163.87708333333333,53.0,92.0
673,163.8375,164.13125,68.0,88.0
674,163.8375,164.15625,58.0,92.0
675,163.8375,164.16666666666666,65.0,96.0
676,163.8375,164.175,62.0,102.0
677,164.0875,164.20416666666665,46.0,87.0
678,164.3375,164.49166666666667,68.0,81.0
679,164.3375,164.55833333333334,65.0,83.0
680,164.3375,164.56458333333333,62.0,88.0
681,164.3375,164.58333333333334,58.0,86.0
682,164.5875,165.11666666666667,39.0,100.0
683,165.3375,165.42708333333334,46.0,96.0
684,165.0875,165.61041666666665,67.0,87.0
685,165.0875,165.62083333333334,58.0,85.0
686,165.0875,165.62291666666667,62.0,90.0
687,165.0875,165.63125,63.0,90.0
688,165.5875,165.89375,46.0,89.0
689,165.8375,166.13333333333333,67.0,87.0
690,165.8375,166.16458333333333,58.0,87.0
691,165.8375,166.1875,62.0,89.0
692,165.8375,166.18958333333333,63.0,90.0
693,166.0875,166.21875,39.0,91.0
694,166.3375,166.575,58.0,81.0
695,166.3375,166.62708333333333,63.0,87.0
696,166.3375,166.63541666666666,62.0,87.0
697,166.3375,166.63958333333332,67.0,87.0
698,166.5875,167.07291666666666,44.0,89.0
699,167.3375,167.425,56.0,87.0
700,167.0875,167.65208333333334,67.0,90.0
701,167.0875,167.66458333333333,60.0,88.0
702,167.0875,167.67708333333334,63.0,93.0
703,167.5875,167.99791666666667,56.0,95.0
704,167.8375,168.13125,67.0,89.0
705,167.8375,168.19166666666666,60.0,92.0
706,167.8375,168.20208333333332,63.0,94.0
707,168.0875,168.51875,44.0,87.0
708,168.3375,168.55625,67.0,88.0
709,168.3375,168.58333333333334,60.0,91.0
710,168.3375,168.5875,63.0,93.0
711,168.5875,169.17083333333332,41.0,96.0
712,169.3375,169.44375,48.0,87.0
713,169.0875,169.62291666666667,63.0,89.0
714,169.0875,169.625,60.0,91.0
715,169.0875,169.65416666666667,56.0,85.0
716,169.5875,169.90833333333333,48.0,89.0
717,169.8375,170.30416666666667,56.0,88.0
718,169.8375,170.33125,60.0,100.0
719,170.0875,170.34375,41.0,91.0
720,169.8375,170.35,63.0,92.0
721,170.5875,171.10625,43.0,88.0
722,171.3375,171.43125,50.0,93.0
723,171.0875,171.61875,62.0,87.0
724,171.0875,171.625,59.0,86.0
725,171.0875,171.63333333333333,55.0,86.0
726,171.0875,171.64583333333334,65.0,87.0
727,171.5875,171.90625,50.0,100.0
728,171.8375,172.15833333333333,62.0,89.0
729,171.8375,172.2,65.0,91.0
730,171.8375,172.22291666666666,55.0,91.0
731,171.8375,172.23125,59.0,100.0
732,172.0875,172.47291666666666,43.0,88.0
733,172.3375,172.50833333333333,62.0,87.0
734,172.3375,172.51041666666666,55.0,86.0
735,172.3375,172.52916666666667,59.0,87.0
736,172.3375,172.56041666666667,65.0,87.0
737,172.5875,173.07708333333332,48.0,110.0
738,173.3375,173.41875,55.0,88.0
739,173.0875,173.6375,67.0,88.0
740,173.0875,173.67916666666667,60.0,88.0
741,173.0875,173.68958333333333,63.0,94.0
742,173.5875,173.85,55.0,96.0
743,174.3375,174.55625,55.0,90.0
744,173.8375,174.58125,60.0,100.0
745,173.8375,174.59583333333333,63.0,108.0
746,174.5875,174.59583333333333,63.0,93.0
747,173.8375,174.59583333333333,67.0,98.0
748,174.5875,174.59583333333333,67.0,91.0
749,174.5875,174.76875,60.0,89.0
750,174.5875,174.78958333333333,48.0,93.0
751,175.0875,175.36458333333334,67.0,96.0
752,175.0875,175.37291666666667,60.0,96.0
753,175.0875,175.40833333333333,63.0,102.0
754,175.0875,175.44791666666666,48.0,102.0
755,176.5875,177.0375,48.0,93.0
756,177.3375,177.44791666666666,55.0,96.0
757,177.0875,177.65208333333334,58.0,88.0
758,177.0875,177.65208333333334,63.0,92.0
759,177.0875,177.65416666666667,60.0,91.0
760,177.0875,177.66041666666666,67.0,89.0
761,177.5875,177.87083333333334,55.0,107.0
762,177.8375,178.13958333333332,63.0,96.0
763,177.8375,178.14583333333334,58.0,89.0
764,177.8375,178.15,60.0,96.0
765,177.8375,178.16041666666666,67.0,88.0
766,178.3375,178.45208333333332,58.0,87.0
767,178.0875,178.46458333333334,48.0,102.0
768,178.3375,178.47083333333333,60.0,91.0
769,178.3375,178.47291666666666,67.0,87.0
770,178.3375,178.4875,63.0,91.0
771,178.5875,179.11041666666665,46.0,89.0
772,179.3375,179.43541666666667,53.0,93.0
773,179.0875,179.575,68.0,85.0
774,179.0875,179.63333333333333,62.0,91.0
775,179.0875,179.6375,58.0,86.0
776,179.0875,179.65,65.0,90.0
777,179.5875,179.87708333333333,53.0,92.0
778,179.8375,180.13125,68.0,88.0
779,179.8375,180.15625,58.0,92.0
780,179.8375,180.16666666666666,65.0,96.0
781,179.8375,180.175,62.0,102.0
782,180.0875,180.20416666666665,46.0,87.0
783,180.3375,180.49166666666667,68.0,81.0
784,180.3375,180.55833333333334,65.0,83.0
785,180.3375,180.56458333333333,62.0,88.0
786,180.3375,180.58333333333334,58.0,86.0
787,180.5875,181.11666666666667,39.0,100.0
788,181.3375,181.42708333333334,46.0,96.0
789,181.0875,181.61041666666665,67.0,87.0
790,181.0875,181.62083333333334,58.0,85.0
791,181.0875,181.62291666666667,62.0,90.0
792,181.0875,181.63125,63.0,90.0
793,181.5875,181.89375,46.0,89.0
794,181.8375,182.13333333333333,67.0,87.0
795,181.8375,182.16458333333333,58.0,87.0
796,181.8375,182.1875,62.0,89.0
797,181.8375,182.18958333333333,63.0,90.0
798,182.0875,182.21875,39.0,91.0
799,182.3375,182.575,58.0,81.0
800,182.3375,182.62708333333333,63.0,87.0
801,182.3375,182.63541666666666,62.0,87.0
802,182.3375,182.63958333333332,67.0,87.0
803,182.5875,183.07291666666666,44.0,89.0
804,183.3375,183.425,56.0,87.0
805,183.0875,183.65208333333334,67.0,90.0
806,183.0875,183.66458333333333,60.0,88.0
807,183.0875,183.67708333333334,63.0,93.0
808,183.5875,183.99791666666667,56.0,95.0
809,183.8375,184.13125,67.0,89.0
810,183.8375,184.19166666666666,60.0,92.0
811,183.8375,184.20208333333332,63.0,94.0
812,184.0875,184.51875,44.0,87.0
813,184.3375,184.55625,67.0,88.0
814,184.3375,184.58333333333334,60.0,91.0
815,184.3375,184.5875,63.0,93.0
816,184.5875,185.17083333333332,41.0,96.0
817,185.3375,185.44375,48.0,87.0
818,185.0875,185.62291666666667,63.0,89.0
819,185.0875,185.625,60.0,91.0
820,185.0875,185.65416666666667,56.0,85.0
821,185.5875,185.90833333333333,48.0,89.0
822,185.8375,186.30416666666667,56.0,88.0
823,185.8375,186.33125,60.0,100.0
824,186.0875,186.34375,41.0,91.0
825,185.8375,186.35,63.0,92.0
826,186.5875,187.10625,43.0,88.0
827,187.3375,187.43125,50.0,93.0
828,187.0875,187.61875,62.0,87.0
829,187.0875,187.625,59.0,86.0
830,187.0875,187.63333333333333,55.0,86.0
831,187.0875,187.64583333333334,65.0,87.0
832,187.5875,187.90625,50.0,100.0
833,187.8375,188.15833333333333,62.0,89.0
834,187.8375,188.2,65.0,91.0
835,187.8375,188.22291666666666,55.0,91.0
836,187.8375,188.23125,59.0,100.0
837,188.0875,188.47291666666666,43.0,88.0
838,188.3375,188.50833333333333,62.0,87.0
839,188.3375,188.51041666666666,55.0,86.0
840,188.3375,188.52916666666667,59.0,87.0
841,188.3375,188.56041666666667,65.0,87.0
842,188.5875,189.07708333333332,48.0,110.0
843,189.3375,189.41875,55.0,88.0
844,189.0875,189.6375,67.0,88.0
845,189.0875,189.67916666666667,60.0,88.0
846,189.0875,189.68958333333333,63.0,94.0
847,189.5875,189.85,55.0,96.0
848,190.3375,190.55625,55.0,90.0
849,189.8375,190.58125,60.0,100.0
850,189.8375,190.59583333333333,63.0,108.0
851,189.8375,190.59583333333333,67.0,98.0
852,190.5875,191.11875,48.0,91.0
853,191.3375,191.46458333333334,48.0,88.0
854,191.5875,191.68958333333333,48.0,88.0
855,191.0875,191.85208333333333,67.0,91.0
856,191.0875,191.875,63.0,93.0
857,191.0875,191.88333333333333,60.0,90.0
858,191.8375,192.13333333333333,48.0,98.0
859,192.0875,192.425,60.0,89.0
860,192.0875,192.56041666666667,67.0,91.0
861,192.0875,192.575,63.0,92.0
862,192.3375,192.62083333333334,48.0,102.0
863,192.5875,192.62083333333334,48.0,93.0
864,193.3375,193.44791666666666,55.0,96.0
865,193.0875,193.65208333333334,58.0,88.0
866,193.0875,193.65208333333334,63.0,92.0
867,193.0875,193.65416666666667,60.0,91.0
868,193.0875,193.66041666666666,67.0,89.0
869,193.5875,193.87083333333334,55.0,107.0
870,193.8375,194.13958333333332,63.0,96.0
871,193.8375,194.14583333333334,58.0,89.0
872,193.8375,194.15,60.0,96.0
873,193.8375,194.16041666666666,67.0,88.0
874,194.3375,194.45208333333332,58.0,87.0
875,194.0875,194.46458333333334,48.0,102.0
876,194.3375,194.47083333333333,60.0,91.0
877,194.3375,194.47291666666666,67.0,87.0
878,194.3375,194.4875,63.0,91.0
879,194.5875,195.11041666666665,46.0,89.0
880,195.3375,195.43541666666667,53.0,93.0
881,195.0875,195.575,68.0,85.0
882,195.0875,195.63333333333333,62.0,91.0
883,195.0875,195.6375,58.0,86.0
884,195.0875,195.65,65.0,90.0
885,195.5875,195.87708333333333,53.0,92.0
886,195.8375,196.13125,68.0,88.0
887,195.8375,196.15625,58.0,92.0
888,195.8375,196.16666666666666,65.0,96.0
889,195.8375,196.175,62.0,102.0
890,196.0875,196.20416666666665,46.0,87.0
891,196.3375,196.49166666666667,68.0,81.0
892,196.3375,196.55833333333334,65.0,83.0
893,196.3375,196.56458333333333,62.0,88.0
894,196.3375,196.58333333333334,58.0,86.0
895,196.5875,197.11666666666667,39.0,100.0
896,197.3375,197.42708333333334,46.0,96.0
897,197.0875,197.61041666666665,67.0,87.0
898,197.0875,197.62083333333334,58.0,85.0
899,197.0875,197.62291666666667,62.0,90.0
900,197.0875,197.63125,63.0,90.0
901,197.5875,197.89375,46.0,89.0
902,197.8375,198.13333333333333,67.0,87.0
903,197.8375,198.16458333333333,58.0,87.0
904,197.8375,198.1875,62.0,89.0
905,197.8375,198.18958333333333,63.0,90.0
906,198.0875,198.21875,39.0,91.0
907,198.3375,198.575,58.0,81.0
908,198.3375,198.62708333333333,63.0,87.0
909,198.3375,198.63541666666666,62.0,87.0
910,198.3375,198.63958333333332,67.0,87.0
911,198.5875,199.07291666666666,44.0,89.0
912,199.3375,199.425,56.0,87.0
913,199.0875,199.65208333333334,67.0,90.0
914,199.0875,199.66458333333333,60.0,88.0
915,199.0875,199.67708333333334,63.0,93.0
916,199.5875,199.99791666666667,56.0,95.0
917,199.8375,200.13125,67.0,89.0
918,199.8375,200.19166666666666,60.0,92.0
919,199.8375,200.20208333333332,63.0,94.0
920,200.0875,200.51875,44.0,87.0
921,200.3375,200.55625,67.0,88.0
922,200.3375,200.58333333333334,60.0,91.0
923,200.3375,200.5875,63.0,93.0
924,200.5875,201.17083333333332,41.0,96.0
925,201.3375,201.44375,48.0,87.0
926,201.0875,201.62291666666667,63.0,89.0
927,201.0875,201.625,60.0,91.0
928,201.0875,201.65416666666667,56.0,85.0
929,201.5875,201.90833333333333,48.0,89.0
930,201.8375,202.30416666666667,56.0,88.0
931,201.8375,202.33125,60.0,100.0
932,202.0875,202.34375,41.0,91.0
933,201.8375,202.35,63.0,92.0
934,202.5875,202.77916666666667,63.0,96.0
935,202.5875,202.78958333333333,43.0,96.0
936,202.5875,202.79166666666666,59.0,90.0
937,202.5875,202.79375,55.0,88.0
938,203.0875,204.06041666666667,59.0,106.0
939,203.0875,204.07291666666666,55.0,98.0
940,203.0875,204.08333333333334,63.0,108.0
941,203.0875,204.13958333333332,43.0,108.0
942,204.5875,205.07708333333332,48.0,110.0
943,205.3375,205.41875,55.0,88.0
944,205.0875,205.6375,67.0,88.0
945,205.0875,205.67916666666667,60.0,88.0
946,205.0875,205.68958333333333,63.0,94.0
947,205.5875,205.85,55.0,96.0
948,206.3375,206.55625,55.0,90.0
949,205.8375,206.58124999999998,60.0,100.0
950,205.8375,206.59583333333333,63.0,108.0
951,205.8375,206.59583333333333,67.0,98.0
952,206.5875,207.11875,48.0,91.0
953,207.3375,207.46458333333334,48.0,88.0
954,207.5875,207.68958333333333,48.0,88.0
955,207.0875,207.85208333333333,67.0,91.0
956,207.0875,207.875,63.0,93.0
957,207.0875,207.88333333333333,60.0,90.0
958,207.8375,208.13333333333333,48.0,98.0
959,208.0875,208.42499999999998,60.0,89.0
960,208.0875,208.56041666666667,67.0,91.0
961,208.0875,208.575,63.0,92.0
962,208.3375,208.62083333333334,48.0,102.0
