,start,end,pitch,velocity
0,0.9553561874999998,1.7604149062499999,55.0,68.0
1,0.24107118749999998,2.3303548124999995,43.0,82.0
2,2.0267836874999996,2.4017833124999997,55.0,52.0
3,0.5982136874999999,2.4047595,50.0,60.0
4,2.7410686875,3.25743721875,59.0,52.0
5,2.3839261874999997,3.6130916249999996,62.0,90.0
6,1.3124986874999998,3.6428534999999997,67.0,77.0
7,3.4553536874999997,4.68005484375,54.0,45.0
8,4.883923687499999,5.28719709375,54.0,56.0
9,3.8124961874999994,5.3541613125,59.0,70.0
10,3.0982111874999996,5.434518375,42.0,79.0
11,5.2410661874999995,6.0238035,66.0,76.0
12,4.169638687499999,6.0758867812499995,62.0,83.0
13,5.5982086875,6.084815343749999,59.0,63.0
14,6.669636187499999,7.425587812499999,52.0,62.0
15,7.741063687499999,8.066956218749999,52.0,66.0
16,6.312493687499999,8.089277625,47.0,48.0
17,5.955351187499999,8.171122781249998,40.0,71.0
18,8.098206187499999,8.861598281249998,59.0,77.0
19,7.026778687499999,8.915169656249999,64.0,89.0
20,8.455348687499999,8.925586312499998,55.0,48.0
21,9.5267761875,10.321418249999999,50.0,82.0
22,10.598203687499998,10.991060437499998,50.0,65.0
23,9.1696336875,11.053560374999998,45.0,57.0
24,8.8124911875,11.06100084375,38.0,68.0
25,10.955346187499998,11.627964562499999,62.0,93.0
26,9.8839186875,11.632428843749999,66.0,97.0
27,11.312488687499998,11.755940625,57.0,75.0
28,12.383916187499999,13.206832031249998,48.0,92.0
29,13.4553436875,13.836295687499998,48.0,81.0
30,11.669631187499999,14.0446288125,36.0,90.0
31,12.026773687499999,14.188973906249998,43.0,69.0
32,13.812486187499998,14.624985374999998,60.0,102.0
33,14.169628687499998,14.639866312499999,55.0,79.0
34,12.741058687499999,14.681532937499998,64.0,100.0
35,15.241056187499998,16.00147209375,50.0,82.0
36,16.3124836875,16.67409046875,50.0,46.0
37,14.526771187499998,16.956828281249997,38.0,78.0
38,14.883913687499998,17.333315999999996,45.0,45.0
39,16.669626187499997,17.383911187499997,57.0,79.0
40,15.598198687499998,17.383911187499997,62.0,86.0
41,15.598198687499998,17.383911187499997,66.0,93.0
42,17.383911187499997,18.303553124999997,59.0,73.0
43,17.383911187499997,18.43004109375,68.0,88.0
44,17.383911187499997,18.602659968749997,64.0,89.0
45,18.098196187499997,18.644326593749998,52.0,56.0
46,17.383911187499997,18.65474325,40.0,59.0
47,17.7410536875,18.671112281249997,47.0,31.0
48,18.4553386875,18.770814562499996,59.0,63.0
49,18.812481187499998,20.01337284375,40.0,50.0
50,18.812481187499998,20.224682156249997,47.0,53.0
51,18.812481187499998,20.303551125,52.0,59.0
52,18.812481187499998,21.119026499999997,59.0,57.0
53,18.812481187499998,21.494026124999998,67.0,72.0
54,18.812481187499998,21.53569275,64.0,70.0
55,20.9553361875,21.852656718749998,52.0,82.0
56,21.312478687499997,22.46426325,59.0,56.0
57,20.2410511875,22.49848940625,40.0,66.0
58,20.598193687499997,22.505929874999996,47.0,55.0
59,22.026763687499997,22.678548749999997,52.0,63.0
60,22.3839061875,23.086286437499997,64.0,99.0
61,21.6696211875,23.114560218749997,67.0,107.0
62,22.741048687499998,23.211286312499997,59.0,68.0
63,23.812476187499996,24.212773406249998,55.0,83.0
64,23.455333687499998,24.745510968749997,50.0,41.0
65,24.169618687499998,24.967236937499997,59.0,72.0
66,24.8839036875,25.206820031249997,50.0,61.0
67,23.098191187499996,25.267831875,43.0,89.0
68,24.526761187499996,25.83181940625,67.0,122.0
69,25.5981886875,25.976164499999996,59.0,72.0
70,25.241046187499997,25.980628781249997,62.0,88.0
71,26.669616187499997,27.502948687499998,50.0,59.0
72,27.026758687499996,28.144317093749997,57.0,76.0
73,27.741043687499996,28.200864656249998,50.0,47.0
74,25.955331187499997,28.249971749999997,38.0,65.0
75,26.312473687499995,28.383900187499997,45.0,37.0
76,27.383901187499998,28.892828249999997,66.0,107.0
77,28.098186187499998,28.919613937499996,62.0,59.0
78,28.455328687499996,28.986578156249998,57.0,63.0
79,29.5267561875,30.382410093749996,52.0,72.0
80,28.812471187499998,30.928540499999997,40.0,70.0
81,29.169613687499997,30.93598096875,47.0,61.0
82,29.883898687499997,31.00145709375,55.0,75.0
83,30.598183687499997,31.052052281249996,52.0,66.0
84,30.955326187499995,31.674075468749997,59.0,83.0
85,31.312468687499997,31.681515937499995,55.0,63.0
86,30.241041187499995,31.717230187499997,64.0,96.0
87,32.3838961875,33.235085812499996,59.0,73.0
88,33.4553236875,33.761871,59.0,82.0
89,32.0267536875,33.80949,54.0,53.0
90,32.741038687499994,33.87050184375,62.0,75.0
91,31.669611187499996,33.901751812499995,47.0,78.0
92,33.098181187499996,34.49847740625,71.0,97.0
93,33.81246618749999,34.505917874999994,66.0,97.0
94,34.169608687499995,34.541632125,62.0,81.0
95,35.241036187499994,36.168118593749995,48.0,66.0
96,36.3124636875,36.66514190624999,48.0,55.0
97,35.598178687499995,36.748475156249995,55.0,81.0
98,34.5267511875,36.840736968749994,36.0,74.0
99,34.8838936875,37.0088915625,43.0,57.0
100,36.669606187499994,37.38240309374999,60.0,78.0
101,35.9553211875,37.419605437499996,64.0,96.0
102,37.026748687499996,37.47317681249999,55.0,77.0
103,38.098176187499995,38.98805624999999,50.0,90.0
104,39.16960368749999,39.49996049999999,50.0,67.0
105,38.4553186875,39.56246043749999,57.0,76.0
106,37.3838911875,39.81990065625,38.0,73.0
107,37.74103368749999,40.187459812499995,45.0,48.0
108,38.8124611875,40.199364562499994,66.0,100.0
109,39.526746187499995,40.260376406249996,62.0,79.0
110,39.8838886875,40.31990015624999,57.0,76.0
111,40.955316187499996,41.83477959374999,52.0,82.0
112,41.3124586875,42.453826593749994,55.0,76.0
113,42.026743687499994,42.4791241875,52.0,82.0
114,40.24103118749999,42.983587968749994,40.0,73.0
115,40.598173687499994,43.16215921875,47.0,58.0
116,42.7410286875,44.01483693749999,55.0,88.0
117,41.66960118749999,44.279717624999996,64.0,95.0
118,42.383886187499996,44.29013428125,59.0,86.0
119,43.8124561875,44.7172171875,52.0,92.0
120,44.16959868749999,45.33179990625,55.0,85.0
121,43.455313687499995,45.34965703125,47.0,50.0
122,43.09817118749999,45.351145124999995,40.0,75.0
123,44.883883687499996,45.42703790624999,52.0,92.0
124,45.2410261875,45.9076921875,59.0,97.0
125,45.59816868749999,45.92406121875,55.0,73.0
126,44.526741187499994,45.931501687499996,64.0,102.0
127,46.6695961875,47.560964343749994,55.0,88.0
128,47.7410236875,48.056499562499994,55.0,89.0
129,47.02673868749999,48.185963718749996,59.0,82.0
130,46.312453687499996,48.20679703125,50.0,51.0
131,45.955311187499994,48.238046999999995,43.0,82.0
132,47.383881187499995,48.800546437499996,67.0,99.0
133,48.09816618749999,48.84370115624999,62.0,92.0
134,48.45530868749999,48.86007018749999,59.0,79.0
135,49.883878687499994,50.39429484375,54.0,85.0
136,49.52673618749999,50.70977071874999,50.0,82.0
137,50.5981636875,51.00590137499999,57.0,67.0
138,48.812451187499995,51.10411556249999,38.0,78.0
139,50.95530618749999,51.43596046875,54.0,65.0
140,49.1695936875,51.58774603124999,45.0,52.0
141,50.241021187499996,51.677031656249994,62.0,70.0
142,51.312448687499995,51.715722093749996,57.0,66.0
143,52.38387618749999,53.28417290624999,52.0,77.0
144,52.02673368749999,53.812446187499994,47.0,58.0
145,51.6695911875,53.839231874999996,40.0,73.0
146,52.741018687499995,53.92107703124999,55.0,73.0
147,53.45530368749999,53.970184124999996,52.0,65.0
148,53.812446187499994,54.50738596874999,59.0,82.0
149,54.169588687499996,54.51333834374999,55.0,71.0
150,53.0981611875,54.563933531249994,64.0,97.0
151,55.241016187499994,56.17107478124999,59.0,86.0
152,55.598158687499996,56.46274115624999,62.0,79.0
153,56.31244368749999,56.738038499999995,59.0,66.0
154,54.88387368749999,56.800538437499995,54.0,62.0
155,54.52673118749999,56.863038374999995,47.0,68.0
156,56.669586187499995,57.45827587499999,66.0,95.0
157,55.95530118749999,57.48803775,71.0,95.0
158,57.0267286875,57.52077581249999,62.0,78.0
159,58.45529868749999,59.617499906249996,52.0,79.0
160,57.38387118749999,59.697856968749996,36.0,81.0
161,58.098156187499995,59.73505931249999,48.0,79.0
162,57.74101368749999,59.761844999999994,43.0,56.0
163,58.81244118749999,60.267796874999995,55.0,78.0
164,59.88386868749999,60.34517774999999,52.0,73.0
165,59.169583687499994,60.34964203124999,60.0,72.0
166,59.526726187499996,60.36749915624999,64.0,73.0
167,61.31243868749999,62.089223624999995,54.0,56.0
168,60.9552961875,62.111545031249996,50.0,73.0
169,62.026723687499995,62.429997093749996,57.0,64.0
170,60.24101118749999,62.72910393749999,38.0,74.0
171,60.598153687499995,63.01035365624999,45.0,56.0
172,62.38386618749999,63.11303212499999,54.0,73.0
173,62.74100868749999,63.15618684374999,57.0,62.0
174,61.66958118749999,63.17553206249999,62.0,69.0
175,64.16957868749999,64.8719589375,55.0,72.0
176,64.8838636875,65.33475609374999,59.0,77.0
177,63.098151187499994,65.761839,40.0,62.0
178,63.455293687499996,65.97314831249999,47.0,43.0
179,63.81243618749999,65.98951734375,52.0,81.0
180,64.52672118749999,66.88088549999999,64.0,82.0
181,65.24100618749999,66.91213546875,55.0,82.0
182,65.59814868749999,66.999933,59.0,56.0
183,66.6695761875,67.54457531249999,52.0,107.0
184,67.0267186875,68.05201528125,55.0,90.0
185,67.7410036875,68.10112237499999,52.0,100.0
186,66.31243368749999,68.16064612499999,47.0,64.0
187,65.9552911875,68.17850324999999,40.0,79.0
188,68.09814618749999,68.74844315624999,59.0,107.0
189,68.45528868749999,68.76183599999999,55.0,93.0
190,67.38386118749999,68.77076456249999,64.0,107.0
191,69.16957368749999,69.59963278125,55.0,82.0
192,69.3481449375,69.64725178124999,59.0,63.0
193,69.70528743749999,69.98653715625,55.0,67.0
194,68.8124311875,70.06689421875,43.0,90.0
195,68.99100243749999,70.22760834374999,50.0,61.0
196,70.0624299375,70.374929625,59.0,79.0
197,69.8838586875,70.42552481249999,62.0,75.0
198,69.52671618749999,70.48653665625,67.0,92.0
199,70.5981436875,70.97314331249999,55.0,73.0
200,70.4195724375,71.05945274999999,50.0,44.0
201,70.77671493749999,71.07433368749999,59.0,66.0
202,71.1338574375,71.25141684375,50.0,58.0
203,70.24100118749999,71.3302858125,43.0,66.0
204,70.9552861875,71.62195218749999,67.0,100.0
205,71.31242868749999,71.63236884374999,62.0,73.0
206,71.49099993749999,71.68891640624999,59.0,81.0
207,72.02671368749999,72.46867753125,50.0,78.0
208,72.2052849375,72.52076081249999,54.0,67.0
209,72.38385618749999,72.76332009375,62.0,67.0
210,72.56242743749999,72.79010578124999,50.0,71.0
211,71.6695711875,72.970165125,38.0,56.0
212,71.84814243749999,73.1040935625,45.0,68.0
213,72.91956993749999,73.15022446875,54.0,48.0
214,72.7409986875,73.15022446875,57.0,63.0
215,73.63385493749999,73.8898070625,54.0,65.0
216,73.45528368749999,73.958259375,50.0,75.0
217,73.99099743749998,74.19040199999999,50.0,72.0
218,73.09814118749999,74.220163875,38.0,64.0
219,74.16956868749999,74.47462790624999,57.0,68.0
220,73.8124261875,74.48355646875,62.0,71.0
221,73.2767124375,74.49843740624999,45.0,56.0
222,74.3481399375,74.50438978125,54.0,77.0
223,74.8838536875,75.315400875,52.0,78.0
224,75.0624249375,75.38534128124999,55.0,70.0
225,75.41956743749999,75.68593621874999,52.0,74.0
226,74.5267111875,75.79903134374999,40.0,67.0
227,74.70528243749999,75.9284955,47.0,69.0
228,75.77670993749999,75.98801925,55.0,77.0
229,75.24099618749999,76.0088525625,64.0,93.0
230,75.5981386875,76.01926921875,59.0,75.0
231,76.31242368749999,76.7171851875,52.0,88.0
232,76.49099493749999,76.77968512499999,55.0,72.0
233,76.1338524375,76.94635162499999,47.0,51.0
234,75.95528118749999,76.95974446874999,40.0,59.0
235,76.84813743749999,77.04754199999999,52.0,95.0
236,77.02670868749999,77.32581553124999,59.0,74.0
237,77.2052799375,77.34664884374999,55.0,85.0
238,76.6695661875,77.3540893125,64.0,95.0
239,77.7409936875,78.01777912499999,59.0,79.0
240,77.91956493749998,78.11450521875,62.0,67.0
241,77.56242243749999,78.2052789375,54.0,70.0
242,77.38385118749999,78.66956418749999,47.0,64.0
243,78.2767074375,78.71123081249999,54.0,69.0
244,78.63384993749999,78.76331409375,59.0,83.0
245,78.4552786875,78.76926646874999,62.0,82.0
246,78.09813618749999,78.77968312499999,66.0,112.0
247,79.16956368749999,79.40914678124999,59.0,73.0
248,79.34813493749999,79.55349187499999,62.0,77.0
249,78.9909924375,79.62492037499999,54.0,73.0
250,78.8124211875,79.79605115624999,47.0,66.0
251,79.70527743749999,79.86450346874999,62.0,66.0
252,79.88384868749999,80.15468175,59.0,72.0
253,80.0624199375,80.21866978124999,62.0,75.0
254,79.5267061875,80.25438403125,66.0,112.0
255,80.5981336875,81.0088475625,48.0,75.0
256,80.77670493749999,81.03116896875,52.0,76.0
257,81.1338474375,81.37789481249999,48.0,72.0
258,80.95527618749999,81.38533528125,55.0,79.0
259,80.24099118749999,81.50438278124999,36.0,50.0
260,80.41956243749999,81.65616834375,43.0,56.0
261,81.31241868749999,81.83473959374999,52.0,70.0
262,81.49098993749999,81.91212046874999,60.0,89.0
263,82.02670368749999,82.43741756249999,48.0,77.0
264,82.2052749375,82.52223890625,52.0,66.0
265,82.56241743749999,82.76926246874999,48.0,82.0
266,81.6695611875,82.886821875,36.0,68.0
267,81.84813243749998,83.00884556249999,43.0,64.0
268,82.74098868749999,83.07432168749999,55.0,73.0
269,82.9195599375,83.0921788125,52.0,57.0
270,82.38384618749998,83.1040835625,60.0,90.0
271,83.4552736875,83.85259471874998,50.0,67.0
272,83.63384493749999,84.08027306249998,57.0,82.0
273,83.09813118749999,84.38533228124999,38.0,63.0
274,83.9909874375,84.49247503125,50.0,65.0
275,83.27670243749999,84.5386059375,45.0,64.0
276,84.34812993749999,84.98503406249999,57.0,74.0
277,83.81241618749999,84.99842690624999,66.0,97.0
278,84.16955868749999,85.15616484374999,62.0,71.0
279,85.0624149375,85.28116471874999,57.0,79.0
280,84.88384368749999,85.3005099375,50.0,88.0
281,85.41955743749999,85.58473584375,50.0,90.0
282,85.24098618749998,85.60408106249999,62.0,102.0
283,84.5267011875,85.84664034375,38.0,69.0
284,84.70527243749999,85.92699740625,45.0,70.0
285,85.5981286875,85.9374140625,57.0,96.0
286,85.77669993749998,85.94634262499999,62.0,89.0
287,85.24098618749998,85.94634262499999,66.0,122.0
288,86.31241368749998,86.67699665625,52.0,88.0
289,86.49098493749999,86.815389375,59.0,76.0
290,86.8481274375,87.12640096874999,52.0,81.0
291,85.95527118749999,87.25586512499999,40.0,90.0
292,86.1338424375,87.37640071874999,47.0,66.0
293,87.20526993749999,87.50288868749999,66.0,92.0
294,86.66955618749999,87.50735296874998,67.0,99.0
295,87.02669868749999,87.83770978124998,59.0,83.0
296,87.74098368749999,88.08324524999999,52.0,78.0
297,88.27669743749999,88.44782821874999,52.0,79.0
298,87.3838411875,88.64425659374999,40.0,83.0
299,88.09812618749999,88.64425659374999,67.0,90.0
300,87.56241243749999,88.7528874375,47.0,72.0
301,88.4552686875,88.82729212499999,66.0,81.0
302,87.9195549375,88.88532778124998,59.0,77.0
303,89.16955368749998,89.59663659374999,52.0,82.0
304,89.34812493749999,89.71270790624999,59.0,73.0
305,89.70526743749998,89.9016958125,52.0,90.0
306,88.81241118749999,90.12490987499999,40.0,90.0
307,89.88383868749999,90.20377884374999,64.0,85.0
308,89.5266961875,90.21419549999999,67.0,107.0
309,88.9909824375,90.24246928125,47.0,72.0
310,90.0624099375,90.25139784374998,59.0,89.0
311,90.59812368749999,90.89723053124999,52.0,85.0
312,90.7766949375,90.97609949999999,55.0,86.0
313,90.41955243749999,91.08324224999998,47.0,81.0
314,91.13383743749999,91.56984890624999,47.0,86.0
315,90.24098118749998,91.64871787499999,40.0,81.0
316,90.95526618749999,91.65764643749999,59.0,99.0
317,91.3124086875,91.65913453124999,55.0,85.0
318,91.49097993749999,91.66955118749999,52.0,70.0
319,92.02669368749999,92.45675278124999,55.0,82.0
320,92.20526493749999,92.50437178124999,59.0,63.0
321,92.56240743749999,92.84365715624999,55.0,67.0
322,91.66955118749999,92.92401421874999,43.0,90.0
323,91.8481224375,93.08472834374999,50.0,61.0
324,92.9195499375,93.23204962499999,59.0,79.0
325,92.74097868749999,93.2826448125,62.0,75.0
326,92.3838361875,93.34365665624999,67.0,92.0
327,93.4552636875,93.8302633125,55.0,73.0
328,93.27669243749999,93.91657274999999,50.0,44.0
329,93.63383493749998,93.9314536875,59.0,66.0
330,93.99097743749999,94.10853684374999,50.0,58.0
331,93.09812118749998,94.18740581249999,43.0,66.0
332,93.81240618749999,94.4790721875,67.0,100.0
333,94.16954868749998,94.48948884375,62.0,73.0
334,94.34811993749999,94.54603640625,59.0,81.0
335,94.88383368749999,95.32579753124999,50.0,78.0
336,95.06240493749999,95.3778808125,54.0,67.0
337,95.2409761875,95.62044009374999,62.0,67.0
338,95.41954743749999,95.64722578124999,50.0,71.0
339,94.52669118749999,95.82728512499999,38.0,56.0
340,94.70526243749998,95.96121356249999,45.0,68.0
341,95.7766899375,96.00734446874999,54.0,48.0
342,95.59811868749999,96.00734446874999,57.0,63.0
343,96.49097493749998,96.74692706249999,54.0,65.0
344,96.3124036875,96.81537937499999,50.0,75.0
345,96.8481174375,97.04752199999999,50.0,72.0
346,95.95526118749999,97.07728387499999,38.0,64.0
347,97.02668868749998,97.33174790624999,57.0,68.0
348,96.66954618749999,97.34067646874999,62.0,71.0
349,96.13383243749999,97.35555740624999,45.0,56.0
350,97.20525993749999,97.36150978124999,54.0,77.0
351,97.74097368749999,98.17252087499999,52.0,78.0
352,97.91954493749999,98.24246128124999,55.0,70.0
353,98.27668743749999,98.54305621875,52.0,74.0
354,97.3838311875,98.65615134374998,40.0,67.0
355,97.56240243749998,98.78561549999999,47.0,69.0
356,98.63382993749998,98.84513924999999,55.0,77.0
357,98.09811618749998,98.86597256249999,64.0,93.0
358,98.45525868749999,98.87638921874999,59.0,75.0
359,99.1695436875,99.57430518749999,52.0,88.0
360,99.34811493749999,99.636805125,55.0,72.0
361,98.99097243749999,99.80347162499999,47.0,51.0
362,98.81240118749999,99.81686446874998,40.0,59.0
363,99.7052574375,99.90466199999999,52.0,95.0
364,99.88382868749999,100.18293553125,59.0,74.0
365,100.06239993749999,100.20376884374998,55.0,85.0
366,99.52668618749999,100.21120931249999,64.0,95.0
367,100.59811368749999,100.87489912499998,59.0,79.0
368,100.7766849375,100.97162521874999,62.0,67.0
369,100.41954243749998,101.06239893749999,54.0,70.0
370,100.2409711875,101.5266841875,47.0,64.0
371,101.13382743749999,101.56835081249999,54.0,69.0
372,101.49096993749998,101.62043409374999,59.0,83.0
373,101.31239868749999,101.62638646874998,62.0,82.0
374,100.95525618749998,101.63680312499999,66.0,112.0
375,102.02668368749998,102.26626678124998,59.0,73.0
376,102.20525493749999,102.41061187499999,62.0,77.0
377,101.84811243749999,102.48204037499998,54.0,73.0
378,101.66954118749999,102.65317115624998,47.0,66.0
379,102.56239743749998,102.72162346874998,62.0,66.0
380,102.74096868749999,103.01180174999999,59.0,72.0
381,102.91953993749999,103.07578978125,62.0,75.0
382,102.38382618749999,103.11150403124999,66.0,112.0
383,103.45525368749999,103.86596756249999,48.0,75.0
384,103.6338249375,103.88828896874999,52.0,76.0
385,103.99096743749999,104.23501481249998,48.0,72.0
386,103.81239618749998,104.24245528124999,55.0,79.0
387,103.0981111875,104.36150278124998,36.0,50.0
388,103.27668243749999,104.51328834374999,43.0,56.0
389,104.1695386875,104.69185959374998,52.0,70.0
390,104.34810993749998,104.76924046874998,60.0,89.0
391,104.88382368749998,105.29453756249998,48.0,77.0
392,105.06239493749999,105.37935890624999,52.0,66.0
393,105.41953743749998,105.62638246875,48.0,82.0
394,104.52668118749999,105.74394187499999,36.0,68.0
395,104.7052524375,105.8659655625,43.0,64.0
396,105.59810868749999,105.93144168749998,55.0,73.0
397,105.77667993749999,105.94929881249999,52.0,57.0
398,105.24096618749999,105.96120356249999,60.0,90.0
399,106.31239368749999,106.70971471874999,50.0,67.0
400,106.49096493749998,106.93739306249999,57.0,82.0
401,105.95525118749998,107.24245228124998,38.0,63.0
402,106.84810743749999,107.34959503124999,50.0,65.0
403,106.13382243749999,107.39572593749999,45.0,64.0
404,107.20524993749999,107.84215406249999,57.0,74.0
405,106.66953618749999,107.85554690624998,66.0,97.0
406,107.02667868749998,108.01328484374999,62.0,71.0
407,107.91953493749999,108.13828471874999,57.0,79.0
408,107.74096368749998,108.15762993749999,50.0,88.0
409,108.27667743749998,108.44185584374999,50.0,90.0
410,108.0981061875,108.46120106249998,62.0,102.0
411,107.38382118749999,108.70376034374999,38.0,69.0
412,107.5623924375,108.78411740624999,45.0,70.0
413,108.45524868749999,108.79453406249999,57.0,96.0
414,108.6338199375,108.803462625,62.0,89.0
415,108.0981061875,108.803462625,66.0,122.0
416,109.16953368749999,109.53411665624999,52.0,88.0
417,109.34810493749998,109.67250937499999,59.0,76.0
418,109.70524743749999,109.98352096874999,52.0,81.0
419,108.81239118749998,110.112985125,40.0,90.0
420,108.99096243749999,110.23352071874999,47.0,66.0
421,110.06238993749999,110.36000868749998,66.0,92.0
422,109.52667618749999,110.36447296875,67.0,99.0
423,109.88381868749998,110.69482978125,59.0,83.0
424,110.59810368749999,110.94036524999999,52.0,78.0
425,111.13381743749999,111.30494821874998,52.0,79.0
426,110.24096118749999,111.50137659374998,40.0,83.0
427,110.95524618749998,111.50137659374998,67.0,90.0
428,110.41953243749998,111.61000743749999,47.0,72.0
429,110.77667493749999,111.66953118749998,59.0,77.0
430,111.31238868749999,111.66953118749998,66.0,81.0
431,112.38381618749999,112.64274449999999,48.0,96.0
432,111.66953118749998,112.84512524999998,36.0,83.0
433,112.74095868749998,113.08322024999998,52.0,86.0
434,112.74095868749998,113.08322024999998,55.0,85.0
435,112.0266736875,113.09363690624998,43.0,69.0
436,113.45524368749999,114.23649290624999,45.0,75.0
437,113.09810118749999,114.31684996874999,38.0,95.0
438,113.81238618749998,114.40613559375,54.0,102.0
439,114.16952868749999,114.43440937499999,50.0,70.0
440,113.81238618749998,114.43887365624998,57.0,96.0
441,115.59809868749998,116.06387203124999,55.0,83.0
442,115.24095618749999,116.07577678124998,48.0,92.0
443,116.31238368749999,116.67547856249999,48.0,86.0
444,114.88381368749998,116.72607374999998,43.0,52.0
445,114.52667118749999,116.73500231249999,36.0,85.0
446,115.9552411875,116.83470459374999,60.0,89.0
447,116.66952618749998,117.37041834374999,55.0,97.0
448,117.02666868749999,117.39422784374999,60.0,82.0
449,115.9552411875,117.40910878124998,64.0,96.0
450,118.09809618749999,118.99095243749998,52.0,86.0
451,118.45523868749999,119.18589271874998,59.0,73.0
452,119.16952368749999,119.44184484374999,52.0,81.0
453,117.74095368749998,119.58767803125,47.0,52.0
454,118.81238118749998,119.61148753124999,64.0,93.0
455,117.38381118749999,119.63380893749999,40.0,78.0
456,118.81238118749998,120.24095118749999,67.0,93.0
457,119.8838086875,120.25434403124999,64.0,93.0
458,119.52666618749998,120.2707130625,59.0,95.0
459,120.95523618749999,121.24987875,48.0,107.0
460,121.31237868749999,121.54600940625,64.0,96.0
461,120.24095118749999,121.57130699999999,36.0,73.0
462,120.59809368749998,121.61446171875,43.0,72.0
463,121.66952118749998,122.27517534374999,66.0,117.0
464,121.66952118749998,122.27963962499999,62.0,102.0
465,121.66952118749998,122.32577053124999,57.0,78.0
466,122.02666368749999,122.78410340624998,45.0,81.0
467,122.38380618749999,122.79898434374999,50.0,88.0
468,121.66952118749998,122.82428193749999,38.0,97.0
469,122.38380618749999,123.06088884374999,62.0,112.0
470,122.74094868749998,123.08172215624998,57.0,93.0
471,122.38380618749999,123.08321024999998,66.0,117.0
472,123.81237618749999,124.70374434374999,55.0,88.0
473,124.88380368749999,125.19927956249998,55.0,89.0
474,124.16951868749999,125.32874371874999,59.0,82.0
475,123.45523368749998,125.34957703124999,50.0,51.0
476,123.09809118749999,125.38082699999998,43.0,82.0
477,124.52666118749998,125.94332643749999,67.0,99.0
478,125.24094618749999,125.98648115624998,62.0,92.0
479,125.59808868749998,126.00285018749999,59.0,79.0
480,127.02665868749999,127.53707484374999,54.0,85.0
481,126.66951618749998,127.85255071874998,50.0,82.0
482,127.74094368749999,128.148681375,57.0,67.0
483,125.95523118749999,128.2468955625,38.0,78.0
484,128.09808618749997,128.57874046875,54.0,65.0
485,126.31237368749998,128.73052603124998,45.0,52.0
486,127.38380118749998,128.81981165624998,62.0,70.0
487,128.45522868749998,128.85850209375,57.0,66.0
488,129.52665618749998,130.42695290625,52.0,77.0
489,129.16951368749997,130.9552261875,47.0,58.0
490,128.8123711875,130.98201187499998,40.0,73.0
491,129.8837986875,131.06385703125,55.0,73.0
492,130.59808368749998,131.112964125,52.0,65.0
493,130.9552261875,131.65016596874997,59.0,82.0
494,131.3123686875,131.65611834375,55.0,71.0
495,130.2409411875,131.70671353125,64.0,97.0
496,132.3837961875,133.31385478124997,59.0,86.0
497,132.74093868749998,133.60552115624998,62.0,79.0
498,133.4552236875,133.88081849999998,59.0,66.0
499,132.0266536875,133.94331843749998,54.0,62.0
500,131.66951118749998,134.005818375,47.0,68.0
501,133.81236618749998,134.601055875,66.0,95.0
502,133.0980811875,134.63081774999998,71.0,95.0
503,134.16950868749998,134.6635558125,62.0,78.0
504,135.5980786875,136.76027990625,52.0,79.0
505,134.5266511875,136.84063696874998,36.0,81.0
506,135.24093618749998,136.8778393125,48.0,79.0
507,134.88379368749997,136.90462499999998,43.0,56.0
508,135.95522118749997,137.41057687499998,55.0,78.0
509,137.02664868749997,137.48795775,52.0,73.0
510,136.31236368749998,137.49242203125,60.0,72.0
511,136.6695061875,137.51027915625,64.0,73.0
512,138.45521868749998,139.23200362499998,54.0,56.0
513,138.0980761875,139.25432503124998,50.0,73.0
514,139.1695036875,139.57277709374998,57.0,64.0
515,137.38379118749998,139.87188393749997,38.0,74.0
516,137.7409336875,140.15313365625,45.0,56.0
517,139.52664618749998,140.25581212499998,54.0,73.0
518,139.8837886875,140.29896684374998,57.0,62.0
519,138.8123611875,140.31831206249998,62.0,69.0
520,141.3123586875,142.01473893749997,55.0,72.0
521,142.02664368749998,142.47753609375,59.0,77.0
522,140.2409311875,142.904619,40.0,62.0
523,140.59807368749998,143.1159283125,47.0,43.0
524,140.95521618749999,143.13229734375,52.0,81.0
525,141.66950118749998,144.0236655,64.0,82.0
526,142.3837861875,144.05491546874998,55.0,82.0
527,142.74092868749997,144.142713,59.0,56.0
528,143.81235618749997,144.6873553125,52.0,107.0
529,144.16949868749998,145.19479528124998,55.0,90.0
530,144.88378368749997,145.24390237499998,52.0,100.0
531,143.4552136875,145.303426125,47.0,64.0
532,143.09807118749998,145.32128325,40.0,79.0
533,145.24092618749998,145.89122315625,59.0,107.0
534,145.5980686875,145.90461599999998,55.0,93.0
535,144.5266411875,145.9135445625,64.0,107.0
536,146.31235368749998,146.74241278124998,55.0,82.0
537,146.49092493749998,146.79003178124998,59.0,63.0
538,146.8480674375,147.12931715624998,55.0,67.0
539,145.95521118749997,147.20967421875,43.0,90.0
540,146.13378243749997,147.37038834375,50.0,61.0
541,147.20520993749997,147.51770962499998,59.0,79.0
542,147.0266386875,147.56830481249997,62.0,75.0
543,146.6694961875,147.62931665624998,67.0,92.0
544,147.7409236875,148.11592331249997,55.0,73.0
545,147.56235243749998,148.20223274999998,50.0,44.0
546,147.9194949375,148.2171136875,59.0,66.0
547,148.27663743749997,148.39419684375,50.0,58.0
548,147.38378118749998,148.47306581249998,43.0,66.0
549,148.0980661875,148.7647321875,67.0,100.0
550,148.45520868749998,148.77514884374997,62.0,73.0
551,148.63377993749998,148.83169640625,59.0,81.0
552,149.1694936875,149.61145753124998,50.0,78.0
553,149.34806493749997,149.66354081249997,54.0,67.0
554,149.52663618749997,149.90610009374998,62.0,67.0
555,149.70520743749998,149.93288578124998,50.0,71.0
556,148.81235118749998,150.11294512499998,38.0,56.0
557,148.9909224375,150.24687356249999,45.0,68.0
558,150.0623499375,150.29300446874998,54.0,48.0
559,149.88377868749998,150.29300446874998,57.0,63.0
560,150.77663493749998,151.03258706249997,54.0,65.0
561,150.59806368749997,151.10103937499997,50.0,75.0
562,151.1337774375,151.333182,50.0,72.0
563,150.2409211875,151.36294387499998,38.0,64.0
564,151.3123486875,151.61740790624998,57.0,68.0
565,150.95520618749998,151.62633646874997,62.0,71.0
566,150.4194924375,151.64121740624998,45.0,56.0
567,151.4909199375,151.64716978124997,54.0,77.0
568,152.02663368749998,152.45818087499998,52.0,78.0
569,152.20520493749999,152.52812128124998,55.0,70.0
570,152.5623474375,152.82871621874997,52.0,74.0
571,151.66949118749997,152.94181134374998,40.0,67.0
572,151.84806243749998,153.07127549999998,47.0,69.0
573,152.91948993749997,153.13079925,55.0,77.0
574,152.3837761875,153.15163256249997,64.0,93.0
575,152.74091868749997,153.16204921874998,59.0,75.0
576,153.4552036875,153.8599651875,52.0,88.0
577,153.6337749375,153.92246512499997,55.0,72.0
578,153.27663243749998,154.089131625,47.0,51.0
579,153.09806118749998,154.10252446874998,40.0,59.0
580,153.99091743749997,154.19032199999998,52.0,95.0
581,154.16948868749998,154.46859553124997,59.0,74.0
582,154.34805993749998,154.48942884374998,55.0,85.0
583,153.81234618749997,154.4968693125,64.0,95.0
584,154.8837736875,155.160559125,59.0,79.0
585,155.06234493749997,155.25728521874998,62.0,67.0
586,154.7052024375,155.34805893749999,54.0,70.0
587,154.5266311875,155.81234418749997,47.0,64.0
588,155.41948743749998,155.85401081249998,54.0,69.0
589,155.7766299375,155.90609409374997,59.0,83.0
590,155.5980586875,155.91204646875,62.0,82.0
591,155.24091618749998,155.92246312499998,66.0,112.0
592,156.31234368749998,156.55192678125,59.0,73.0
593,156.49091493749998,156.69627187499998,62.0,77.0
594,156.13377243749997,156.76770037499998,54.0,73.0
595,155.9552011875,156.93883115625,47.0,66.0
596,156.8480574375,157.00728346875,62.0,66.0
597,157.0266286875,157.29746175,59.0,72.0
598,157.20519993749997,157.36144978124997,62.0,75.0
599,156.66948618749998,157.39716403124999,66.0,112.0
600,157.74091368749998,158.15162756249998,48.0,75.0
601,157.9194849375,158.17394896874998,52.0,76.0
602,158.27662743749997,158.52067481249998,48.0,72.0
603,158.0980561875,158.52811528125,55.0,79.0
604,157.38377118749997,158.64716278125,36.0,50.0
605,157.56234243749998,158.79894834374997,43.0,56.0
606,158.45519868749997,158.97751959374997,52.0,70.0
607,158.63376993749998,159.05490046875,60.0,89.0
608,159.1694836875,159.5801975625,48.0,77.0
609,159.3480549375,159.66501890624997,52.0,66.0
610,159.70519743749998,159.91204246874997,48.0,82.0
611,158.81234118749998,160.02960187499997,36.0,68.0
612,158.9909124375,160.1516255625,43.0,64.0
613,159.88376868749998,160.2171016875,55.0,73.0
614,160.06233993749998,160.23495881249997,52.0,57.0
615,159.52662618749997,160.24686356249998,60.0,90.0
616,160.59805368749997,160.99537471874999,50.0,67.0
617,160.77662493749997,161.2230530625,57.0,82.0
618,160.2409111875,161.52811228124997,38.0,63.0
619,161.13376743749998,161.63525503124998,50.0,65.0
620,160.4194824375,161.68138593749998,45.0,64.0
621,161.4909099375,162.1278140625,57.0,74.0
622,160.95519618749998,162.14120690624998,66.0,97.0
623,161.3123386875,162.29894484374998,62.0,71.0
624,162.20519493749998,162.42394471875,57.0,79.0
625,162.02662368749998,162.44328993749997,50.0,88.0
626,162.5623374375,162.72751584374998,50.0,90.0
627,162.3837661875,162.7468610625,62.0,102.0
628,161.66948118749997,162.98942034374997,38.0,69.0
629,161.84805243749997,163.06977740624998,45.0,70.0
630,162.7409086875,163.08019406249997,57.0,96.0
631,162.91947993749997,163.089122625,62.0,89.0
632,162.3837661875,163.089122625,66.0,122.0
633,163.45519368749999,163.81977665624999,52.0,88.0
634,163.6337649375,163.95816937499998,59.0,76.0
635,163.99090743749997,164.26918096875,52.0,81.0
636,163.09805118749998,164.39864512499997,40.0,90.0
637,163.27662243749998,164.51918071875,47.0,66.0
638,164.34804993749998,164.64566868749998,66.0,92.0
639,163.8123361875,164.65013296874997,67.0,99.0
640,164.16947868749997,164.98048978125,59.0,83.0
641,164.8837636875,165.22602525,52.0,78.0
642,165.41947743749998,165.59060821875,52.0,79.0
643,164.52662118749998,165.78703659374997,40.0,83.0
644,165.24090618749997,165.78703659374997,67.0,90.0
645,164.7051924375,165.89566743749998,47.0,72.0
646,165.59804868749998,165.97007212499997,66.0,81.0
647,165.06233493749997,166.02810778125,59.0,77.0
648,166.31233368749997,166.73941659374998,52.0,82.0
649,166.49090493749998,166.85548790624998,59.0,73.0
650,166.8480474375,167.04447581249997,52.0,90.0
651,165.9551911875,167.26768987499997,40.0,90.0
652,167.0266186875,167.34655884375,64.0,85.0
653,166.66947618749998,167.35697549999998,67.0,107.0
654,166.13376243749997,167.38524928124997,47.0,72.0
655,167.2051899375,167.39417784375,59.0,89.0
656,167.74090368749998,168.04001053124998,52.0,85.0
657,167.91947493749998,168.1188795,55.0,86.0
658,167.56233243749998,168.22602224999997,47.0,81.0
659,168.2766174375,168.71262890625,47.0,86.0
660,167.38376118749997,168.79149787499998,40.0,81.0
661,168.0980461875,168.8004264375,59.0,99.0
662,168.45518868749997,168.80191453125,55.0,85.0
663,168.63375993749997,168.81233118749998,52.0,70.0
664,169.1694736875,169.59953278125,55.0,82.0
665,169.3480449375,169.64715178125,59.0,63.0
666,169.70518743749997,169.98643715625,55.0,67.0
667,168.81233118749998,170.06679421874998,43.0,90.0
668,168.99090243749998,170.22750834374997,50.0,61.0
669,170.06232993749998,170.374829625,59.0,79.0
670,169.88375868749998,170.42542481249998,62.0,75.0
671,169.52661618749997,170.48643665625,67.0,92.0
672,170.59804368749997,170.97304331249998,55.0,73.0
673,170.4194724375,171.05935275,50.0,44.0
674,170.77661493749997,171.07423368749997,59.0,66.0
675,171.13375743749998,171.25131684374998,50.0,58.0
676,170.2409011875,171.3301858125,43.0,66.0
677,170.95518618749998,171.62185218749997,67.0,100.0
678,171.31232868749998,171.63226884374998,62.0,73.0
679,171.4908999375,171.68881640624997,59.0,81.0
680,172.02661368749997,172.46857753125,50.0,78.0
681,172.20518493749998,172.52066081249998,54.0,67.0
682,172.38375618749998,172.76322009375,62.0,67.0
683,172.5623274375,172.79000578125,50.0,71.0
684,171.6694711875,172.970065125,38.0,56.0
685,171.84804243749997,173.1039935625,45.0,68.0
686,172.91946993749997,173.15012446875,54.0,48.0
687,172.7408986875,173.15012446875,57.0,63.0
688,173.6337549375,173.88970706249998,54.0,65.0
689,173.45518368749998,173.95815937499998,50.0,75.0
690,173.99089743749997,174.19030199999997,50.0,72.0
691,173.09804118749997,174.220063875,38.0,64.0
692,174.16946868749997,174.47452790625,57.0,68.0
693,173.8123261875,174.48345646874998,62.0,71.0
694,173.27661243749998,174.49833740625,45.0,56.0
695,174.34803993749998,174.50428978124998,54.0,77.0
696,174.8837536875,175.315300875,52.0,78.0
697,175.0623249375,175.38524128125,55.0,70.0
698,175.41946743749997,175.68583621874998,52.0,74.0
699,174.52661118749998,175.79893134374998,40.0,67.0
700,174.70518243749999,175.9283955,47.0,69.0
701,175.77660993749998,175.98791924999998,55.0,77.0
702,175.24089618749997,176.00875256249998,64.0,93.0
703,175.59803868749998,176.01916921875,59.0,75.0
704,176.31232368749997,176.71708518749998,52.0,88.0
705,176.49089493749997,176.77958512499998,55.0,72.0
706,176.1337524375,176.94625162499997,47.0,51.0
707,175.9551811875,176.95964446874999,40.0,59.0
708,176.84803743749998,177.047442,52.0,95.0
709,177.0266086875,177.32571553124998,59.0,74.0
710,177.2051799375,177.34654884374999,55.0,85.0
711,176.66946618749998,177.35398931249998,64.0,95.0
712,177.74089368749998,178.01767912499997,59.0,79.0
713,177.91946493749998,178.11440521875,62.0,67.0
714,177.56232243749997,178.2051789375,54.0,70.0
715,177.38375118749997,178.66946418749998,47.0,64.0
716,178.2766074375,178.7111308125,54.0,69.0
717,178.63374993749997,178.76321409374998,59.0,83.0
718,178.45517868749997,178.76916646874997,62.0,82.0
719,178.09803618749999,178.779583125,66.0,112.0
720,179.16946368749998,179.40904678124997,59.0,73.0
721,179.3480349375,179.553391875,62.0,77.0
722,178.99089243749998,179.62482037499998,54.0,73.0
723,178.81232118749998,179.79595115624997,47.0,66.0
724,179.70517743749997,179.86440346874997,62.0,66.0
725,179.88374868749997,180.15458174999998,59.0,72.0
726,180.06231993749998,180.21856978124998,62.0,75.0
727,179.5266061875,180.25428403124997,66.0,112.0
728,180.5980336875,181.0087475625,48.0,75.0
729,180.77660493749997,181.03106896875,52.0,76.0
730,181.13374743749998,181.37779481249999,48.0,72.0
731,180.95517618749997,181.38523528124998,55.0,79.0
732,180.24089118749998,181.50428278124997,36.0,50.0
733,180.4194624375,181.65606834374998,43.0,56.0
734,181.31231868749998,181.83463959374998,52.0,70.0
735,181.4908899375,181.91202046874997,60.0,89.0
736,182.02660368749997,182.43731756249997,48.0,77.0
737,182.20517493749998,182.52213890624998,52.0,66.0
738,182.56231743749998,182.76916246874998,48.0,82.0
739,181.6694611875,182.88672187499998,36.0,68.0
740,181.84803243749997,183.00874556249997,43.0,64.0
741,182.7408886875,183.07422168749997,55.0,73.0
742,182.91945993749997,183.09207881249998,52.0,57.0
743,182.38374618749998,183.1039835625,60.0,90.0
744,183.45517368749998,183.85249471874997,50.0,67.0
745,183.63374493749998,184.08017306249997,57.0,82.0
746,183.09803118749997,184.38523228124998,38.0,63.0
747,183.9908874375,184.49237503125,50.0,65.0
748,183.27660243749997,184.5385059375,45.0,64.0
749,184.34802993749997,184.98493406249997,57.0,74.0
750,183.8123161875,184.99832690624999,66.0,97.0
751,184.16945868749997,185.15606484375,62.0,71.0
752,185.0623149375,185.28106471874997,57.0,79.0
753,184.8837436875,185.30040993749998,50.0,88.0
754,185.41945743749997,185.58463584375,50.0,90.0
755,185.24088618749997,185.60398106249997,62.0,102.0
756,184.52660118749998,185.84654034374998,38.0,69.0
757,184.70517243749998,185.92689740625,45.0,70.0
758,185.59802868749998,185.93731406249998,57.0,96.0
759,185.77659993749998,185.94624262499997,62.0,89.0
760,185.24088618749997,185.94624262499997,66.0,122.0
761,186.31231368749997,186.67689665624997,52.0,88.0
762,186.49088493749997,186.815289375,59.0,76.0
763,186.84802743749998,187.12630096874997,52.0,81.0
764,185.95517118749999,187.25576512499998,40.0,90.0
765,186.1337424375,187.37630071874997,47.0,66.0
766,187.2051699375,187.5027886875,66.0,92.0
767,186.66945618749997,187.50725296874998,67.0,99.0
768,187.02659868749998,187.83760978124997,59.0,83.0
769,187.74088368749997,188.08314524999997,52.0,78.0
770,188.2765974375,188.44772821874997,52.0,79.0
771,187.3837411875,188.64415659374998,40.0,83.0
772,188.09802618749998,188.64415659374998,67.0,90.0
773,187.56231243749997,188.7527874375,47.0,72.0
774,187.91945493749998,188.81231118749997,59.0,77.0
775,188.4551686875,188.81231118749997,66.0,81.0
776,188.81231118749997,189.09058471874997,64.0,95.0
777,188.81231118749997,189.095049,60.0,93.0
778,188.81231118749997,189.095049,67.0,88.0
779,189.16945368749998,189.39117965625,64.0,53.0
780,189.16945368749998,189.39713203124998,60.0,49.0
781,189.16945368749998,189.41498915625,67.0,60.0
782,188.81231118749997,189.41647724999999,48.0,90.0
783,188.81231118749997,189.44772721874998,36.0,63.0
784,189.5265961875,189.72302456249997,64.0,97.0
785,189.5265961875,189.7349293125,60.0,95.0
786,189.5265961875,189.73641740624998,67.0,92.0
787,189.5265961875,189.84951253124999,36.0,58.0
788,189.5265961875,189.9849290625,48.0,89.0
789,189.88373868749997,190.09653609375,67.0,68.0
790,189.88373868749997,190.11439321874997,60.0,90.0
791,189.88373868749997,190.14415509375,64.0,90.0
792,190.24088118749998,190.47153571874998,62.0,96.0
793,190.24088118749998,190.4849285625,69.0,97.0
794,190.24088118749998,190.49832140624997,66.0,107.0
795,190.5980236875,190.85397581249998,62.0,89.0
796,190.5980236875,190.86439246874997,69.0,86.0
797,190.5980236875,190.8718329375,66.0,95.0
798,190.95516618749997,191.17986834374997,62.0,86.0
799,190.95516618749997,191.19177309375,69.0,95.0
800,190.95516618749997,191.20516593749997,66.0,102.0
801,190.24088118749998,191.39713003125,38.0,66.0
802,190.24088118749998,191.48790375,50.0,86.0
803,191.31230868749998,191.60695124999998,62.0,83.0
804,191.31230868749998,191.60843934374998,66.0,99.0
805,191.31230868749998,191.63671312499997,69.0,90.0
806,192.02659368749997,192.45665278124997,55.0,82.0
807,192.20516493749997,192.50427178124997,59.0,63.0
808,192.56230743749998,192.84355715624997,55.0,67.0
809,191.6694511875,192.92391421874999,43.0,90.0
810,191.8480224375,193.08462834374998,50.0,61.0
811,192.9194499375,193.23194962499997,59.0,79.0
812,192.7408786875,193.2825448125,62.0,75.0
813,192.38373618749998,193.34355665624997,67.0,92.0
814,193.45516368749998,193.8301633125,55.0,73.0
815,193.27659243749997,193.91647274999997,50.0,44.0
816,193.63373493749998,193.93135368749998,59.0,66.0
817,193.9908774375,194.10843684374998,50.0,58.0
818,193.09802118749997,194.18730581249997,43.0,66.0
819,193.81230618749998,194.47897218749998,67.0,100.0
820,194.16944868749997,194.48938884374996,62.0,73.0
821,194.34801993749997,194.54593640624998,59.0,81.0
822,194.88373368749998,195.32569753124997,50.0,78.0
823,195.0623049375,195.3777808125,54.0,67.0
824,195.24087618749996,195.62034009374997,62.0,67.0
825,195.41944743749997,195.64712578124997,50.0,71.0
826,194.52659118749997,195.82718512499997,38.0,56.0
827,194.70516243749998,195.96111356249997,45.0,68.0
828,195.77658993749998,196.00724446874997,54.0,48.0
829,195.59801868749997,196.00724446874997,57.0,63.0
830,196.49087493749997,196.7468270625,54.0,65.0
831,196.3123036875,196.815279375,50.0,75.0
832,196.84801743749998,197.04742199999998,50.0,72.0
833,195.95516118749998,197.07718387499997,38.0,64.0
834,197.02658868749998,197.33164790624997,57.0,68.0
835,196.66944618749997,197.34057646875,62.0,71.0
836,196.1337324375,197.35545740624997,45.0,56.0
837,197.20515993749999,197.36140978125,54.0,77.0
838,197.74087368749997,198.17242087499997,52.0,78.0
839,197.91944493749997,198.24236128124997,55.0,70.0
840,198.27658743749998,198.54295621874996,52.0,74.0
841,197.3837311875,198.65605134374997,40.0,67.0
842,197.56230243749997,198.78551549999997,47.0,69.0
843,198.63372993749996,198.84503924999999,55.0,77.0
844,198.09801618749998,198.8658725625,64.0,93.0
845,198.4551586875,198.87628921874997,59.0,75.0
846,199.16944368749998,199.57420518749998,52.0,88.0
847,199.34801493749998,199.636705125,55.0,72.0
848,198.99087243749997,199.80337162499998,47.0,51.0
849,198.81230118749997,199.81676446874997,40.0,59.0
850,199.7051574375,199.90456199999997,52.0,95.0
851,199.88372868749997,200.18283553124996,59.0,74.0
852,200.06229993749997,200.20366884374997,55.0,85.0
853,199.5265861875,200.21110931249999,64.0,95.0
854,200.59801368749999,200.87479912499998,59.0,79.0
855,200.7765849375,200.97152521874997,62.0,67.0
856,200.41944243749998,201.06229893749997,54.0,70.0
857,200.24087118749998,201.52658418749996,47.0,64.0
858,201.13372743749997,201.56825081249997,54.0,69.0
859,201.49086993749998,201.62033409375,59.0,83.0
860,201.31229868749998,201.62628646874998,62.0,82.0
861,200.95515618749997,201.63670312499997,66.0,112.0
862,202.02658368749996,202.26616678124998,59.0,73.0
863,202.20515493749997,202.41051187499997,62.0,77.0
864,201.8480124375,202.48194037499997,54.0,73.0
865,201.66944118749998,202.65307115624998,47.0,66.0
866,202.56229743749998,202.72152346874998,62.0,66.0
867,202.74086868749998,203.01170175,59.0,72.0
868,202.9194399375,203.07568978124996,62.0,75.0
869,202.38372618749997,203.11140403124998,66.0,112.0
870,203.45515368749997,203.86586756249997,48.0,75.0
871,203.63372493749998,203.88818896874997,52.0,76.0
872,203.9908674375,204.23491481249997,48.0,72.0
873,203.81229618749998,204.24235528124998,55.0,79.0
874,203.09801118749996,204.36140278124998,36.0,50.0
875,203.27658243749997,204.51318834375,43.0,56.0
876,204.1694386875,204.69175959374996,52.0,70.0
877,204.34800993749997,204.76914046874998,60.0,89.0
878,204.88372368749998,205.29443756249998,48.0,77.0
879,205.06229493749998,205.37925890625,52.0,66.0
880,205.41943743749997,205.62628246874996,48.0,82.0
881,204.52658118749997,205.743841875,36.0,68.0
882,204.70515243749998,205.86586556249998,43.0,64.0
883,205.59800868749997,205.93134168749998,55.0,73.0
884,205.77657993749997,205.9491988125,52.0,57.0
885,205.2408661875,205.96110356249997,60.0,90.0
886,206.3122936875,206.70961471874998,50.0,67.0
887,206.49086493749996,206.93729306249998,57.0,82.0
888,205.95515118749998,207.24235228124996,38.0,63.0
889,206.84800743749997,207.34949503124997,50.0,65.0
890,206.13372243749998,207.39562593749997,45.0,64.0
891,207.20514993749998,207.84205406249998,57.0,74.0
892,206.66943618749997,207.85544690624997,66.0,97.0
893,207.02657868749998,208.01318484374997,62.0,71.0
894,207.91943493749997,208.13818471874998,57.0,79.0
895,207.74086368749997,208.1575299375,50.0,88.0
896,208.27657743749998,208.44175584374997,50.0,90.0
897,208.09800618749998,208.46110106249998,62.0,102.0
898,207.3837211875,208.70366034375,38.0,69.0
899,207.56229243749996,208.78401740624997,45.0,70.0
900,208.45514868749999,208.7944340625,57.0,96.0
901,208.6337199375,208.80336262499998,62.0,89.0
902,208.09800618749998,208.80336262499998,66.0,122.0
903,209.16943368749997,209.53401665624997,52.0,88.0
904,209.34800493749998,209.67240937499997,59.0,76.0
905,209.7051474375,209.98342096874998,52.0,81.0
906,208.81229118749997,210.11288512499996,40.0,90.0
907,208.99086243749997,210.23342071874998,47.0,66.0
908,210.06228993749997,210.35990868749997,66.0,92.0
909,209.52657618749998,210.36437296875,67.0,99.0
910,209.88371868749996,210.69472978124998,59.0,83.0
911,210.59800368749998,210.94026524999998,52.0,78.0
912,211.13371743749997,211.30484821874998,52.0,79.0
913,210.24086118749997,211.50127659374996,40.0,83.0
914,210.95514618749996,211.50127659374996,67.0,90.0
915,210.41943243749998,211.60990743749997,47.0,72.0
916,210.7765749375,211.66943118749998,59.0,77.0
917,211.31228868749997,211.66943118749998,66.0,81.0
918,212.20514493749997,212.43431137499996,55.0,73.0
919,212.0265736875,212.44472803124998,48.0,96.0
920,212.56228743749998,212.74978724999997,48.0,81.0
921,211.66943118749998,212.96407274999999,36.0,95.0
922,211.84800243749999,213.02657268749996,43.0,90.0
923,212.38371618749997,213.04294171874997,64.0,96.0
924,212.74085868749998,213.04889409374996,60.0,96.0
925,212.91942993749998,213.13073924999998,55.0,89.0
926,213.45514368749997,213.87776231249998,50.0,85.0
927,213.63371493749997,214.02805978124996,57.0,88.0
928,213.27657243749996,214.36288087499997,45.0,93.0
929,213.99085743749998,214.38817846874997,50.0,82.0
930,213.0980011875,214.4194284375,38.0,85.0
931,214.1694286875,214.51169025,62.0,90.0
932,213.81228618749998,214.51317834374998,66.0,122.0
933,214.34799993749996,214.52210690624997,57.0,93.0
934,214.88371368749998,215.31377278124998,55.0,82.0
935,215.06228493749998,215.36139178124998,59.0,63.0
936,215.41942743749996,215.70067715624998,55.0,67.0
937,214.52657118749997,215.78103421874997,43.0,90.0
938,214.70514243749997,215.94174834374996,50.0,61.0
939,215.77656993749997,216.08906962499998,59.0,79.0
940,215.59799868749997,216.13966481249997,62.0,75.0
941,215.2408561875,216.20067665624998,67.0,92.0
942,216.31228368749998,216.68728331249997,55.0,73.0
943,216.13371243749998,216.77359274999998,50.0,44.0
944,216.4908549375,216.7884736875,59.0,66.0
945,216.84799743749997,216.96555684374997,50.0,58.0
946,215.95514118749998,217.04442581249998,43.0,66.0
947,216.66942618749997,217.3360921875,67.0,100.0
948,217.02656868749997,217.34650884374997,62.0,73.0
949,217.20513993749998,217.40305640625,59.0,81.0
950,217.74085368749996,218.18281753124998,50.0,78.0
951,217.91942493749997,218.23490081249997,54.0,67.0
952,218.09799618749997,218.47746009374998,62.0,67.0
953,218.27656743749998,218.50424578124998,50.0,71.0
954,217.38371118749998,218.68430512499998,38.0,56.0
955,217.5622824375,218.81823356249998,45.0,68.0
956,218.6337099375,218.86436446874998,54.0,48.0
957,218.45513868749998,218.86436446874998,57.0,63.0
958,219.34799493749998,219.60394706249997,54.0,65.0
959,219.16942368749997,219.67239937499997,50.0,75.0
960,219.70513743749999,219.90454199999996,50.0,72.0
961,218.81228118749996,219.93430387499998,38.0,64.0
962,219.88370868749996,220.18876790624998,57.0,68.0
963,219.52656618749998,220.19769646874997,62.0,71.0
964,218.99085243749997,220.21257740624998,45.0,56.0
965,220.06227993749997,220.21852978124997,54.0,77.0
966,220.59799368749998,221.02954087499998,52.0,78.0
967,220.77656493749998,221.09948128124998,55.0,70.0
968,221.13370743749996,221.40007621874997,52.0,74.0
969,220.24085118749997,221.51317134374997,40.0,67.0
970,220.41942243749997,221.64263549999998,47.0,69.0
971,221.49084993749997,221.70215924999997,55.0,77.0
972,220.9551361875,221.72299256249997,64.0,93.0
973,221.31227868749997,221.73340921874998,59.0,75.0
974,222.0265636875,222.43132518749997,52.0,88.0
975,222.20513493749996,222.49382512499997,55.0,72.0
976,221.84799243749998,222.66049162499996,47.0,51.0
977,221.66942118749998,222.67388446874997,40.0,59.0
978,222.56227743749997,222.76168199999998,52.0,95.0
979,222.74084868749998,223.03995553124997,59.0,74.0
980,222.91941993749998,223.06078884374998,55.0,85.0
981,222.38370618749997,223.06822931249997,64.0,95.0
982,223.45513368749997,223.73191912499996,59.0,79.0
983,223.63370493749997,223.82864521874998,62.0,67.0
984,223.27656243749996,223.91941893749998,54.0,70.0
985,223.09799118749999,224.38370418749997,47.0,64.0
986,223.99084743749998,224.42537081249998,54.0,69.0
987,224.3479899375,224.47745409374997,59.0,83.0
988,224.16941868749998,224.48340646874996,62.0,82.0
989,223.81227618749998,224.49382312499998,66.0,112.0
990,224.88370368749997,225.12328678125,59.0,73.0
991,225.06227493749998,225.26763187499998,62.0,77.0
992,224.70513243749997,225.33906037499997,54.0,73.0
993,224.52656118749996,225.51019115625,47.0,66.0
994,225.4194174375,225.57864346875,62.0,66.0
995,225.59798868749996,225.86882174999997,59.0,72.0
996,225.77655993749997,225.93280978124997,62.0,75.0
997,225.24084618749998,225.96852403124998,66.0,112.0
998,226.31227368749998,226.72298756249998,48.0,75.0
999,226.4908449375,226.74530896874998,52.0,76.0
1000,226.84798743749997,227.09203481249997,48.0,72.0
1001,226.66941618749996,227.09947528124997,55.0,79.0
1002,225.95513118749997,227.21852278125,36.0,50.0
1003,226.13370243749998,227.37030834374997,43.0,56.0
1004,227.02655868749997,227.54887959374997,52.0,70.0
1005,227.20512993749998,227.62626046874996,60.0,89.0
1006,227.74084368749996,228.1515575625,48.0,77.0
1007,227.91941493749997,228.23637890624997,52.0,66.0
1008,228.27655743749997,228.48340246874997,48.0,82.0
1009,227.38370118749998,228.60096187499997,36.0,68.0
1010,227.56227243749998,228.72298556249999,43.0,64.0
1011,228.45512868749998,228.78846168749996,55.0,73.0
1012,228.63369993749998,228.80631881249997,52.0,57.0
1013,228.09798618749997,228.81822356249998,60.0,90.0
1014,229.16941368749997,229.56673471874998,50.0,67.0
1015,229.34798493749997,229.79441306249998,57.0,82.0
1016,228.8122711875,230.09947228124997,38.0,63.0
1017,229.70512743749998,230.20661503124998,50.0,65.0
1018,228.99084243749996,230.25274593749998,45.0,64.0
1019,230.06226993749996,230.69917406249996,57.0,74.0
1020,229.52655618749998,230.71256690624998,66.0,97.0
1021,229.8836986875,230.87030484374998,62.0,71.0
1022,230.77655493749998,230.99530471874996,57.0,79.0
1023,230.59798368749998,231.01464993749997,50.0,88.0
1024,231.13369743749996,231.29887584374998,50.0,90.0
1025,230.95512618749999,231.3182210625,62.0,102.0
1026,230.24084118749997,231.56078034374997,38.0,69.0
1027,230.41941243749997,231.64113740624998,45.0,70.0
1028,231.31226868749997,231.65155406249997,57.0,96.0
1029,231.49083993749997,231.660482625,62.0,89.0
1030,230.95512618749999,231.660482625,66.0,122.0
1031,232.02655368749998,232.39113665624998,52.0,88.0
1032,232.20512493749996,232.52952937499998,59.0,76.0
1033,232.56226743749997,232.84054096874996,52.0,81.0
1034,231.66941118749997,232.97000512499997,40.0,90.0
1035,231.84798243749998,233.09054071874996,47.0,66.0
1036,232.91940993749998,233.21702868749998,66.0,92.0
1037,232.38369618749996,233.22149296874997,67.0,99.0
1038,232.74083868749997,233.55184978124998,59.0,83.0
1039,233.45512368749996,233.79738524999996,52.0,78.0
1040,233.99083743749998,234.16196821874996,52.0,79.0
1041,233.09798118749998,234.35839659374997,40.0,83.0
1042,233.81226618749997,234.35839659374997,67.0,90.0
1043,233.2765524375,234.46702743749998,47.0,72.0
1044,233.63369493749997,234.52655118749996,59.0,77.0
1045,234.16940868749998,234.52655118749996,66.0,81.0
1046,234.88369368749997,235.26910996874997,48.0,90.0
1047,235.06226493749998,235.34053846874997,55.0,67.0
1048,235.41940743749998,235.63220484374997,48.0,78.0
1049,234.52655118749996,235.76613328124998,36.0,86.0
1050,234.70512243749997,235.89410934374996,43.0,85.0
1051,235.59797868749996,235.93875215624996,60.0,88.0
1052,235.24083618749998,235.98637115625,64.0,100.0
1053,235.77654993749996,235.99827590624997,55.0,83.0
1054,236.31226368749998,236.73041803124997,50.0,86.0
1055,236.49083493749998,236.77357274999997,57.0,92.0
1056,236.84797743749996,237.06672721874997,50.0,88.0
1057,235.95512118749997,237.06970340624997,38.0,88.0
1058,236.13369243749997,237.08458434374998,45.0,89.0
1059,237.02654868749997,237.124762875,62.0,92.0
1060,236.6694061875,237.12773906249998,66.0,127.0
1061,237.38369118749998,237.44172684374996,40.0,29.0
1062,237.38369118749998,237.44172684374996,40.0,56.0
1063,237.38369118749998,242.06374603124996,59.0,71.0
1064,237.38369118749998,242.09946028124997,47.0,72.0
1065,237.38369118749998,242.11136503124996,64.0,72.0
1066,237.38369118749998,242.13963881249998,56.0,93.0
1067,237.38369118749998,242.14707928124997,52.0,86.0
