,start,end,pitch,velocity
0,27.554800949999997,27.775691412499995,65.0,61.0
1,27.760280449999996,28.02569147083333,68.0,56.0
2,27.965759949999995,28.37500662083333,70.0,64.0
3,28.376718949999997,28.78596562083333,70.0,65.0
4,28.787677949999996,28.993157449999995,70.0,64.0
5,28.993157449999995,29.609595949999996,68.0,62.0
6,29.609595949999996,30.84076062083333,70.0,72.0
7,30.842472949999994,31.053089437499995,70.0,64.0
8,31.047952449999997,31.251719620833327,73.0,66.0
9,31.253431949999996,31.664390949999994,73.0,75.0
10,31.664390949999994,32.075349949999996,70.0,82.0
11,32.075349949999996,32.486308949999994,65.0,81.0
12,32.486308949999994,32.902404937499995,63.0,66.0
13,32.89726794999999,34.12843262083333,65.0,74.0
14,34.130144949999995,34.33562445,65.0,89.0
15,34.33562445,34.56336422916666,68.0,90.0
16,34.54110394999999,34.950350620833326,63.0,86.0
17,34.95206295,35.36130962083333,63.0,91.0
18,35.36302195,35.59589871666666,63.0,87.0
19,35.56850144999999,36.18493994999999,61.0,67.0
20,36.18493994999999,37.41610462083333,65.0,91.0
21,37.417816949999995,37.6592553625,65.0,67.0
22,37.62329645,37.8544608875,68.0,83.0
23,37.828775949999994,38.23973494999999,70.0,87.0
24,38.23973494999999,38.65069395,73.0,90.0
25,38.65069395,39.061652949999996,70.0,91.0
26,39.061652949999996,39.517132508333326,68.0,87.0
27,39.472611949999994,41.116447949999994,70.0,99.0
28,41.116447949999994,41.52569462083333,75.0,98.0
29,41.52740694999999,41.936653620833326,75.0,93.0
30,41.93836594999999,42.154119425,75.0,90.0
31,42.14384544999999,42.7654209375,73.0,77.0
32,42.760283949999994,43.991448620833324,77.0,105.0
33,43.99316095,44.25001032499999,77.0,97.0
34,44.19864044999999,44.404119949999995,75.0,91.0
35,44.404119949999995,44.81336662083333,73.0,93.0
36,44.81507894999999,45.224325620833326,73.0,95.0
37,45.22603794999999,45.472613349999996,73.0,90.0
38,45.431517449999994,46.047955949999995,75.0,93.0
39,46.047955949999995,46.34418889583333,73.0,100.0
40,46.25343544999999,47.28083294999999,70.0,74.0
41,47.28083294999999,47.69007962083332,77.0,96.0
42,47.691791949999995,47.91268241249999,77.0,95.0
43,47.89727144999999,48.92466894999999,75.0,90.0
44,48.92466894999999,49.335627949999996,73.0,98.0
45,49.335627949999996,50.15754594999999,70.0,90.0
46,50.15754594999999,50.56850494999999,68.0,91.0
47,50.56850494999999,51.390422949999994,73.0,93.0
48,51.390422949999994,53.85617694999999,70.0,94.0
49,53.85617694999999,54.07706741249999,73.0,93.0
50,54.061656449999994,54.26713594999999,75.0,84.0
51,54.26713594999999,54.67638262083332,77.0,96.0
52,54.678094949999995,55.08734162083333,77.0,93.0
53,55.08905394999999,55.292821120833324,77.0,95.0
54,55.29453344999999,55.933232229166656,77.0,95.0
55,55.91097194999999,57.14213662083333,75.0,99.0
56,57.14384894999999,57.349328449999994,75.0,68.0
57,57.349328449999994,57.63186276249999,77.0,48.0
58,57.55480794999999,57.96576694999999,73.0,64.0
59,57.96576694999999,58.169534120833326,70.0,66.0
60,58.17124644999999,58.37501362083332,70.0,57.0
61,58.376725949999994,58.580493120833324,70.0,56.0
62,58.58220544999999,58.78768494999999,70.0,56.0
63,58.78768494999999,58.993164449999995,68.0,58.0
64,58.993164449999995,60.43152094999999,70.0,63.0
65,60.43152094999999,60.65412374166666,73.0,92.0
66,60.63700044999999,60.84247994999999,75.0,86.0
67,60.84247994999999,61.251726620833324,77.0,91.0
68,61.25343894999999,61.45720612083333,77.0,90.0
69,61.45891844999999,61.66268562083332,77.0,91.0
70,61.664397949999994,61.868165120833325,77.0,86.0
71,61.86987744999999,62.28083644999999,77.0,92.0
72,62.28083644999999,63.71748062083332,75.0,84.0
73,63.71919294999999,63.92467244999999,75.0,93.0
74,63.92467244999999,64.13015194999998,77.0,81.0
75,64.13015194999998,64.54111094999999,73.0,91.0
76,64.54111094999999,64.95206995,70.0,87.0
77,64.95206995,65.15754944999999,73.0,95.0
78,65.15754944999999,65.77398794999999,75.0,96.0
79,65.77398794999999,67.00686495,77.0,96.0
80,67.00686495,67.21234444999999,73.0,99.0
81,67.21234444999999,67.41782394999998,75.0,90.0
82,67.41782394999998,68.03426244999999,77.0,97.0
83,68.03426244999999,68.65070094999999,80.0,91.0
84,68.65070094999999,69.26713944999999,77.0,101.0
85,69.26713944999999,70.29282462083333,75.0,101.0
86,70.29453695,70.50001644999999,75.0,103.0
87,70.50001644999999,70.76371514166665,77.0,90.0
88,70.70549594999999,71.11645494999999,73.0,97.0
89,71.11645494999999,71.52570162083332,70.0,93.0
90,71.52741395,71.93666062083332,70.0,97.0
91,71.93837294999999,72.14385244999998,70.0,84.0
92,72.14385244999998,72.55481144999999,68.0,95.0
93,72.55481144999999,72.76029094999998,70.0,95.0
94,72.76029094999998,72.96577045,68.0,100.0
95,72.96577045,73.99316794999999,65.0,81.0
96,73.99316794999999,74.40241462083333,63.0,91.0
97,74.40412694999999,74.81337362083332,63.0,90.0
98,74.81508594999998,75.22604494999999,63.0,93.0
99,75.22604494999999,75.43152444999998,61.0,68.0
100,75.43152444999998,75.89899031249999,63.0,82.0
101,75.84248344999999,76.86816862083332,65.0,90.0
102,76.86988095,77.07536044999999,65.0,90.0
103,77.07536044999999,77.28083994999999,68.0,86.0
104,77.28083994999999,77.89727844999999,70.0,91.0
105,77.89727844999999,79.54111445,73.0,90.0
106,79.54111445,80.56851194999999,72.0,85.0
107,80.56851194999999,81.33734774583333,68.0,94.0
108,81.18495044999999,83.85618394999999,70.0,71.0
109,113.03427294999999,113.25516341249998,65.0,61.0
110,113.23975244999998,113.50516347083332,68.0,56.0
111,113.44523194999998,113.85447862083332,70.0,64.0
112,113.85619094999998,114.26543762083331,70.0,65.0
113,114.26714994999999,114.47262944999999,70.0,64.0
114,114.47262944999999,115.08906794999999,68.0,62.0
115,115.08906794999999,116.32023262083332,70.0,72.0
116,116.32194494999999,116.53256143749998,70.0,64.0
117,116.52742444999998,116.73119162083331,73.0,66.0
118,116.73290394999998,117.14386294999998,73.0,75.0
119,117.14386294999998,117.55482194999999,70.0,82.0
120,117.55482194999999,117.96578094999998,65.0,81.0
121,117.96578094999998,118.38187693749998,63.0,66.0
122,118.37673994999999,119.60790462083331,65.0,74.0
123,119.60961694999999,119.81509644999998,65.0,89.0
124,119.81509644999998,120.04283622916665,68.0,90.0
125,120.02057594999998,120.42982262083332,63.0,86.0
126,120.43153494999999,120.84078162083331,63.0,91.0
127,120.84249394999998,121.07537071666665,63.0,87.0
128,121.04797344999999,121.66441194999999,61.0,67.0
129,121.66441194999999,122.89557662083331,65.0,91.0
130,122.89728894999999,123.13872736249998,65.0,67.0
131,123.10276844999999,123.33393288749998,68.0,83.0
132,123.30824794999998,123.71920694999999,70.0,87.0
133,123.71920694999999,124.13016594999998,73.0,90.0
134,124.13016594999998,124.54112494999998,70.0,91.0
135,124.54112494999998,124.99660450833332,68.0,87.0
136,124.95208394999999,126.59591994999998,70.0,99.0
137,126.59591994999998,127.00516662083332,75.0,98.0
138,127.00687894999999,127.41612562083331,75.0,93.0
139,127.41783794999998,127.63359142499998,75.0,90.0
140,127.62331744999999,128.24489293749997,73.0,77.0
141,128.23975595,129.4709206208333,77.0,105.0
142,129.47263295,129.729482325,77.0,97.0
143,129.67811245,129.88359194999998,75.0,91.0
144,129.88359194999998,130.29283862083332,73.0,93.0
145,130.29455094999997,130.7037976208333,73.0,95.0
146,130.70550995,130.95208534999998,73.0,90.0
147,130.91098945,131.52742794999997,75.0,93.0
148,131.52742794999997,131.8236608958333,73.0,100.0
149,131.73290744999997,132.76030494999998,70.0,74.0
150,132.76030494999998,133.16955162083332,77.0,96.0
151,133.17126394999997,133.3921544125,77.0,95.0
152,133.37674345,134.40414094999997,75.0,90.0
153,134.40414094999997,134.81509995,73.0,98.0
154,134.81509995,135.63701794999997,70.0,90.0
155,135.63701794999997,136.04797695,68.0,91.0
156,136.04797695,136.86989494999997,73.0,93.0
157,136.86989494999997,139.33564894999998,70.0,94.0
158,139.33564894999998,139.55653941249997,73.0,93.0
159,139.54112844999997,139.74660794999997,75.0,84.0
160,139.74660794999997,140.1558546208333,77.0,96.0
161,140.15756695,140.5668136208333,77.0,93.0
162,140.56852594999998,140.77229312083333,77.0,95.0
163,140.77400544999998,141.41270422916665,77.0,95.0
164,141.39044395,142.6216086208333,75.0,99.0
165,142.62332095,142.82880045,75.0,68.0
166,142.82880045,143.11133476249998,77.0,48.0
167,143.03427994999998,143.44523894999998,73.0,64.0
168,143.44523894999998,143.64900612083332,70.0,66.0
169,143.65071844999997,143.85448562083332,70.0,57.0
170,143.85619794999997,144.0599651208333,70.0,56.0
171,144.06167745,144.26715695,70.0,56.0
172,144.26715695,144.47263644999998,68.0,58.0
173,144.47263644999998,145.91099294999998,70.0,63.0
174,145.91099294999998,146.13359574166665,73.0,92.0
175,146.11647244999997,146.32195194999997,75.0,86.0
176,146.32195194999997,146.7311986208333,77.0,91.0
177,146.73291095,146.9366781208333,77.0,90.0
178,146.93839044999999,147.1421576208333,77.0,91.0
179,147.14386994999998,147.34763712083333,77.0,86.0
180,147.34934944999998,147.76030844999997,77.0,92.0
181,147.76030844999997,149.19695262083331,75.0,84.0
182,149.19866494999997,149.40414445,75.0,93.0
183,149.40414445,149.60962394999999,77.0,81.0
184,149.60962394999999,150.02058294999998,73.0,91.0
185,150.02058294999998,150.43154194999997,70.0,87.0
186,150.43154194999997,150.63702145,73.0,95.0
187,150.63702145,151.25345994999998,75.0,96.0
188,151.25345994999998,152.48633694999998,77.0,96.0
189,152.48633694999998,152.69181644999998,73.0,99.0
190,152.69181644999998,152.89729594999997,75.0,90.0
191,152.89729594999997,153.51373445,77.0,97.0
192,153.51373445,154.13017294999997,80.0,91.0
193,154.13017294999997,154.74661145,77.0,101.0
194,154.74661145,155.77229662083332,75.0,101.0
195,155.77400894999997,155.97948845,75.0,103.0
196,155.97948845,156.24318714166665,77.0,90.0
197,156.18496795,156.59592694999998,73.0,97.0
198,156.59592694999998,157.00517362083332,70.0,93.0
199,157.00688594999997,157.4161326208333,70.0,97.0
200,157.41784495,157.62332444999998,70.0,84.0
201,157.62332444999998,158.03428344999998,68.0,95.0
202,158.03428344999998,158.23976294999997,70.0,95.0
203,158.23976294999997,158.44524244999997,68.0,100.0
204,158.44524244999997,159.47263994999997,65.0,81.0
205,159.47263994999997,159.8818866208333,63.0,91.0
206,159.88359894999996,160.2928456208333,63.0,90.0
207,160.29455794999998,160.70551694999997,63.0,93.0
208,160.70551694999997,160.91099644999997,61.0,68.0
209,160.91099644999997,161.37846231249998,63.0,82.0
210,161.32195545,162.34764062083332,65.0,90.0
211,162.34935294999997,162.55483244999996,65.0,90.0
212,162.55483244999996,162.76031195,68.0,86.0
213,162.76031195,163.37675044999997,70.0,91.0
214,163.37675044999997,165.22606594999996,73.0,90.0
215,165.22606594999996,166.04798394999997,72.0,85.0
216,166.04798394999997,166.66442245,68.0,94.0
217,166.66442245,172.21236894999998,70.0,71.0
218,172.21236894999998,172.43325941249998,73.0,93.0
219,172.41784844999998,172.62332794999998,75.0,84.0
220,172.62332794999998,173.03257462083332,77.0,96.0
221,173.03428694999997,173.4435336208333,77.0,93.0
222,173.44524595,173.6490131208333,77.0,95.0
223,173.65072544999998,174.28942422916666,77.0,95.0
224,174.26716394999997,175.49832862083332,75.0,99.0
225,175.50004094999997,175.70552044999997,75.0,68.0
226,175.70552044999997,175.98805476249998,77.0,48.0
227,175.91099994999996,176.32195894999998,73.0,64.0
228,176.32195894999998,176.5257261208333,70.0,66.0
229,176.52743844999998,176.73120562083332,70.0,57.0
230,176.73291794999997,176.93668512083332,70.0,56.0
231,176.93839744999997,177.14387694999996,70.0,56.0
232,177.14387694999996,177.34935645,68.0,58.0
233,177.34935645,178.78771294999999,70.0,63.0
234,178.78771294999999,179.01031574166663,73.0,92.0
235,178.99319244999998,179.19867194999998,75.0,86.0
236,179.19867194999998,179.60791862083332,77.0,91.0
237,179.60963094999997,179.8133981208333,77.0,90.0
238,179.81511044999996,180.0188776208333,77.0,91.0
239,180.02058995,180.2243571208333,77.0,86.0
240,180.22606944999998,180.63702844999997,77.0,92.0
241,180.63702844999997,182.07367262083332,75.0,84.0
242,182.07538494999997,182.28086444999997,75.0,93.0
243,182.28086444999997,182.48634394999996,77.0,81.0
244,182.48634394999996,182.89730294999998,73.0,91.0
245,182.89730294999998,183.30826194999997,70.0,87.0
246,183.30826194999997,183.51374144999997,73.0,95.0
247,183.51374144999997,184.13017994999998,75.0,96.0
248,184.13017994999998,185.36305695,77.0,96.0
249,185.36305695,185.56853644999998,73.0,99.0
250,185.56853644999998,185.77401594999998,75.0,90.0
251,185.77401594999998,186.39045444999996,77.0,97.0
252,186.39045444999996,187.00689294999998,80.0,91.0
253,187.00689294999998,187.62333144999997,77.0,101.0
254,187.62333144999997,188.6490166208333,75.0,101.0
255,188.65072894999997,188.85620844999997,75.0,103.0
256,188.85620844999997,189.11990714166663,77.0,90.0
257,189.06168794999996,189.47264694999998,73.0,97.0
258,189.47264694999998,189.8818936208333,70.0,93.0
259,189.88360594999997,190.29285262083332,70.0,97.0
260,190.29456494999997,190.50004444999996,70.0,84.0
261,190.50004444999996,190.91100344999998,68.0,95.0
262,190.91100344999998,191.11648294999998,70.0,95.0
263,191.11648294999998,191.32196244999997,68.0,100.0
264,191.32196244999997,192.34935994999998,65.0,81.0
265,192.34935994999998,192.75860662083332,63.0,91.0
266,192.76031894999997,193.1695656208333,63.0,90.0
267,193.17127794999996,193.58223694999998,63.0,93.0
268,193.58223694999998,193.78771644999998,61.0,68.0
269,193.78771644999998,194.25518231249998,63.0,82.0
270,194.19867544999997,195.2243606208333,65.0,90.0
271,195.22607294999997,195.43155244999997,65.0,90.0
272,195.43155244999997,195.63703194999997,68.0,86.0
273,195.63703194999997,196.25347044999998,70.0,91.0
274,196.25347044999998,198.10278594999997,73.0,90.0
275,198.10278594999997,198.92470394999998,72.0,85.0
276,198.92470394999998,199.54114244999997,65.0,94.0
277,199.54114244999997,202.21237594999997,70.0,71.0
