,start,end,pitch,velocity
0,1.6643839499999997,2.32191835,58.0,33.0
1,2.0753429499999996,2.4058224791666665,65.0,39.0
2,2.4863019499999996,3.2260281499999994,82.0,42.0
3,2.4863019499999996,3.402398054166666,70.0,37.0
4,3.3082199499999994,4.099316024999999,73.0,42.0
5,3.3082199499999994,4.1267132916666664,84.0,48.0
6,2.8972609499999997,4.202055775,72.0,37.0
7,4.130137949999999,4.731165487499999,85.0,52.0
8,4.952055949999999,5.1489738041666655,75.0,25.0
9,4.952055949999999,5.287672466666666,80.0,44.0
10,4.952055949999999,5.426371129166666,84.0,42.0
11,4.952055949999999,5.710617770833332,56.0,36.0
12,5.773973949999999,6.123289099999999,68.0,33.0
13,5.363014949999999,6.267124749999999,63.0,31.0
14,6.184932949999999,7.465755166666666,82.0,41.0
15,6.184932949999999,7.488015445833332,73.0,37.0
16,6.184932949999999,7.690070287499999,58.0,37.0
17,8.239727949999999,8.967467845833331,46.0,40.0
18,8.650686949999999,8.996577441666666,53.0,37.0
19,9.061645949999999,9.633563891666665,58.0,39.0
20,9.061645949999999,9.825344758333332,65.0,46.0
21,9.061645949999999,9.825344758333332,70.0,52.0
22,9.88356395,10.638701112499998,68.0,40.0
23,9.88356395,10.672947695833331,72.0,44.0
24,9.88356395,10.765413470833332,61.0,50.0
25,9.47260495,10.823632662499998,60.0,41.0
26,10.70548195,10.969180641666664,65.0,38.0
27,10.70548195,10.991440920833332,73.0,49.0
28,11.527399949999998,11.803084945833332,63.0,46.0
29,11.527399949999998,11.832194541666665,68.0,47.0
30,11.527399949999998,11.905824695833331,72.0,50.0
31,11.527399949999998,12.215756274999999,44.0,46.0
32,11.938358949999998,12.26541382083333,63.0,44.0
33,12.349317949999998,12.429797420833332,68.0,32.0
34,12.760276949999998,13.952058049999998,65.0,47.0
35,12.760276949999998,13.981167645833331,61.0,40.0
36,12.760276949999998,14.145551245833332,58.0,36.0
37,12.760276949999998,14.148975904166665,70.0,39.0
38,12.760276949999998,14.176373170833331,46.0,36.0
39,13.993153949999998,14.203770437499998,77.0,45.0
40,14.198633449999997,14.397263633333331,75.0,60.0
41,14.404112949999998,14.587332170833331,73.0,45.0
42,14.609592449999997,14.827058254166664,72.0,39.0
43,14.815071949999998,15.636989949999998,70.0,78.0
44,15.636989949999998,15.964044820833331,65.0,44.0
45,15.636989949999998,15.98972975833333,58.0,44.0
46,15.226030949999998,15.998291404166665,53.0,39.0
47,14.815071949999998,16.095894166666664,46.0,55.0
48,15.636989949999998,16.398976429166666,60.0,45.0
49,16.04794895,16.458907949999997,48.0,44.0
50,16.04794895,16.48288055833333,63.0,61.0
51,16.458907949999997,16.8236340625,65.0,52.0
52,16.458907949999997,16.87842859583333,61.0,50.0
53,16.86986695,17.354456104166665,53.0,38.0
54,17.280825949999997,17.657538366666664,61.0,53.0
55,17.280825949999997,17.684935633333332,56.0,49.0
56,17.280825949999997,17.770552091666666,65.0,55.0
57,17.69178495,18.066785037499997,53.0,31.0
58,16.458907949999997,18.101031620833332,49.0,43.0
59,18.102743949999997,18.525689254166664,68.0,56.0
60,18.102743949999997,18.556511179166662,60.0,54.0
61,18.102743949999997,18.559935837499996,63.0,54.0
62,18.102743949999997,19.417812749999996,44.0,61.0
63,18.924661949999997,19.44692234583333,63.0,51.0
64,18.924661949999997,19.472607283333332,60.0,51.0
65,18.51370295,19.48801824583333,51.0,37.0
66,18.924661949999997,19.510278524999997,68.0,57.0
67,18.924661949999997,19.520552499999997,56.0,38.0
68,19.746579949999997,20.17123758333333,61.0,48.0
69,19.746579949999997,20.205484166666665,65.0,48.0
70,20.157538949999996,20.532539037499998,63.0,57.0
71,20.157538949999996,20.539388354166665,60.0,44.0
72,20.568497949999998,20.962333658333332,61.0,60.0
73,20.568497949999998,20.97260763333333,65.0,52.0
74,20.157538949999996,20.996580241666663,53.0,40.0
75,20.568497949999998,21.006854216666664,58.0,47.0
76,19.746579949999997,21.03938847083333,46.0,46.0
77,20.979456949999996,21.390415949999998,48.0,47.0
78,21.390415949999998,21.792813304166664,63.0,56.0
79,21.390415949999998,21.820210570833332,58.0,55.0
80,21.595895449999997,21.847607837499996,66.0,26.0
81,21.801374949999996,22.368155904166663,54.0,40.0
82,22.212333949999998,22.659251862499996,66.0,49.0
83,22.212333949999998,22.717471054166662,63.0,57.0
84,22.212333949999998,22.74658065,58.0,45.0
85,21.390415949999998,22.758566954166664,51.0,58.0
86,22.623292949999996,23.02226564583333,53.0,48.0
87,23.034251949999998,23.368156137499998,61.0,53.0
88,23.034251949999998,23.405827379166663,66.0,49.0
89,23.034251949999998,23.631854829166663,58.0,48.0
90,23.034251949999998,23.719183616666662,54.0,60.0
91,23.856169949999998,24.184937149999996,58.0,55.0
92,23.856169949999998,24.20377277083333,66.0,58.0
93,23.856169949999998,24.26027963333333,61.0,63.0
94,24.267128949999996,24.770553724999996,41.0,48.0
95,24.678087949999995,24.94349897083333,58.0,45.0
96,24.267128949999996,25.051375708333328,65.0,41.0
97,24.678087949999995,25.099320924999997,61.0,53.0
98,25.089046949999997,25.527403216666663,63.0,61.0
99,25.500005949999995,25.60103337083333,65.0,56.0
100,25.910964949999997,26.25343078333333,68.0,47.0
101,26.321923949999995,26.898978879166663,70.0,63.0
102,27.143841949999995,27.236307724999996,77.0,54.0
103,25.910964949999997,27.381855704166664,58.0,43.0
104,25.500005949999995,27.39897899583333,53.0,49.0
105,24.678087949999995,27.42808859166666,46.0,59.0
106,27.965759949999995,28.443499787499995,73.0,57.0
107,27.965759949999995,28.453773762499996,65.0,51.0
108,28.787677949999996,29.69350007916666,58.0,53.0
109,29.198636949999997,29.708911041666664,60.0,57.0
110,29.609595949999996,29.924664516666663,61.0,76.0
111,30.020554949999998,30.75856882083333,58.0,35.0
112,27.965759949999995,30.785966087499997,46.0,53.0
113,28.376718949999997,30.792815404166664,53.0,58.0
114,30.431513949999996,30.82363732916666,65.0,63.0
115,30.842472949999994,31.250007291666662,70.0,45.0
116,31.253431949999996,31.746582749999995,68.0,66.0
117,31.253431949999996,32.42980208749999,44.0,66.0
118,31.664390949999994,32.482884291666664,51.0,40.0
119,32.075349949999996,32.95206248333333,56.0,50.0
120,32.486308949999994,32.95206248333333,63.0,54.0
121,32.89726794999999,34.001720262499994,49.0,61.0
122,32.89726794999999,34.054802466666665,65.0,70.0
123,33.719185949999996,34.05651479583333,61.0,47.0
124,33.30822695,34.0839120625,56.0,38.0
125,34.130144949999995,34.55993957083333,70.0,56.0
126,34.54110394999999,35.450350737499996,66.0,67.0
127,35.773980949999995,36.23630982499999,70.0,48.0
128,35.36302195,36.32535094166666,63.0,50.0
129,36.18493994999999,36.32535094166666,63.0,44.0
130,36.18493994999999,36.67295376249999,68.0,60.0
131,34.95206295,36.933227795833325,58.0,44.0
132,34.54110394999999,37.037679874999995,51.0,51.0
133,36.18493994999999,37.11131002916666,77.0,66.0
134,36.59589894999999,37.38357036666666,60.0,59.0
135,36.18493994999999,37.41267996249999,53.0,69.0
136,37.00685795,37.41267996249999,63.0,59.0
137,37.417816949999995,37.765419770833326,68.0,63.0
138,37.828775949999994,38.23973494999999,61.0,55.0
139,37.828775949999994,38.23973494999999,70.0,62.0
140,37.828775949999994,38.26370755833333,66.0,63.0
141,37.828775949999994,38.304803458333325,54.0,55.0
142,38.23973494999999,38.31850209166666,58.0,69.0
143,38.65069395,39.053091304166664,68.0,59.0
144,38.65069395,39.05822829166666,63.0,61.0
145,38.65069395,39.065077608333326,72.0,60.0
146,38.65069395,39.15925571249999,44.0,72.0
147,39.061652949999996,39.445214683333326,70.0,57.0
148,39.472611949999994,39.993160016666664,73.0,62.0
149,39.472611949999994,40.01199563749999,65.0,52.0
150,39.88357094999999,40.38870805416666,53.0,46.0
151,40.29452995,40.601036870833326,65.0,36.0
152,40.29452995,40.654119075,61.0,70.0
153,40.29452995,40.71576292499999,58.0,46.0
154,39.472611949999994,40.83048897916666,46.0,59.0
155,40.705488949999996,41.065078074999995,60.0,46.0
156,40.705488949999996,41.0702150625,53.0,39.0
157,40.705488949999996,41.13185891249999,63.0,49.0
158,41.116447949999994,41.52740694999999,75.0,66.0
159,41.52740694999999,41.892133062499994,75.0,59.0
160,41.93836594999999,42.10617420833333,70.0,72.0
161,41.93836594999999,42.18322902083333,63.0,54.0
162,41.116447949999994,42.31850302499999,51.0,60.0
163,41.52740694999999,42.40240715416666,58.0,51.0
164,42.349324949999996,42.69692777083333,68.0,63.0
165,42.724325037499995,43.104462112499995,73.0,72.0
166,42.736311341666664,43.248297762499995,65.0,58.0
167,43.152407329166664,43.54281837916666,72.0,63.0
168,43.56336632916666,43.83562666666666,58.0,50.0
169,43.57877729166666,43.988023962499994,65.0,53.0
170,42.712338733333326,44.011996570833325,46.0,73.0
171,43.160968974999996,44.01713355833333,53.0,55.0
172,43.56850331666666,44.07535274999999,73.0,63.0
173,43.96747601249999,44.09761302916666,58.0,45.0
174,44.404119949999995,44.655832337499994,68.0,63.0
175,44.404119949999995,44.69007892083333,73.0,64.0
176,44.81507894999999,45.200353012499995,73.0,67.0
177,44.404119949999995,45.50514760416666,49.0,70.0
178,45.22603794999999,45.5291202125,61.0,57.0
179,45.22603794999999,45.542818845833324,73.0,73.0
180,44.81507894999999,45.55138049166666,56.0,50.0
181,45.63699695,45.84932576666666,80.0,63.0
182,46.047955949999995,46.43323001249999,73.0,67.0
183,46.86987394999999,47.12843565416666,73.0,67.0
184,46.45891494999999,47.147271274999994,53.0,45.0
185,46.86987394999999,47.17295621249999,58.0,55.0
186,47.075353449999994,47.27227130416666,72.0,53.0
187,46.047955949999995,47.30823021666666,46.0,61.0
188,47.28083294999999,47.443504220833326,70.0,61.0
189,47.48631244999999,47.69864126666666,68.0,64.0
190,47.691791949999995,48.051381074999995,75.0,60.0
191,48.102750949999994,48.414394858333324,73.0,62.0
192,48.51370994999999,48.635285320833326,70.0,62.0
193,48.51370994999999,48.72603876666666,63.0,57.0
194,47.691791949999995,48.78597028749999,51.0,67.0
195,48.102750949999994,48.80994289583332,58.0,56.0
196,48.92466894999999,49.28425807499999,68.0,64.0
197,49.335627949999996,49.68494309999999,61.0,67.0
198,49.335627949999996,49.70891570833333,66.0,73.0
199,49.335627949999996,49.72261434166666,70.0,66.0
200,49.335627949999996,49.74487462083333,42.0,64.0
201,49.335627949999996,49.76371024166666,54.0,52.0
202,50.15754594999999,50.50343644166666,72.0,66.0
203,50.15754594999999,50.542820012499995,44.0,61.0
204,50.15754594999999,50.54966932916666,68.0,69.0
205,50.15754594999999,50.561655633333324,63.0,62.0
206,50.15754594999999,50.58562824166666,56.0,53.0
207,50.979463949999996,51.501724345833324,65.0,66.0
208,50.979463949999996,51.69350521249999,61.0,69.0
209,51.80138194999999,52.14042312499999,58.0,55.0
210,52.006861449999995,52.22090259583332,60.0,56.0
211,50.979463949999996,52.30823138333333,46.0,69.0
212,51.390422949999994,52.45035470416666,53.0,49.0
213,52.21234094999999,52.47946429999999,61.0,54.0
214,52.417820449999994,52.57364240416666,63.0,53.0
215,52.62329994999999,52.70891640833332,46.0,67.0
216,52.62329994999999,52.70891640833332,53.0,80.0
217,52.62329994999999,52.714053395833325,58.0,78.0
218,52.62329994999999,52.71747805416666,61.0,78.0
219,52.62329994999999,52.72432737083333,65.0,75.0
220,52.82877944999999,52.90412193333333,53.0,95.0
221,52.82877944999999,52.92124522499999,61.0,91.0
222,52.82877944999999,52.926382212499995,58.0,80.0
223,52.82877944999999,52.93151919999999,65.0,78.0
224,52.82877944999999,52.93323152916666,46.0,88.0
225,53.44521794999999,53.59932757499999,58.0,66.0
226,53.44521794999999,53.705491983333324,61.0,73.0
227,53.44521794999999,53.722615274999995,65.0,73.0
228,53.650697449999996,53.79110844166666,53.0,67.0
229,53.44521794999999,53.86302626666666,46.0,73.0
230,53.85617694999999,54.301382533333324,48.0,64.0
231,53.85617694999999,54.309944179166656,63.0,75.0
232,53.85617694999999,54.32021815416666,60.0,67.0
233,54.26713594999999,54.81679361249999,61.0,78.0
234,54.26713594999999,54.82364292916666,65.0,73.0
235,54.88357444999999,55.220903295833324,53.0,40.0
236,55.08905394999999,55.32706770416666,65.0,80.0
237,55.08905394999999,55.33220469166666,56.0,70.0
238,55.08905394999999,55.33905400833333,61.0,82.0
239,55.29453344999999,55.45891704999999,53.0,75.0
240,54.26713594999999,55.48631431666666,49.0,80.0
241,55.50001294999999,55.66439654999999,56.0,64.0
242,55.705492449999994,55.88015002499999,65.0,69.0
243,55.91097194999999,56.217478870833325,60.0,78.0
244,55.91097194999999,56.24658846666666,63.0,75.0
245,56.73288994999999,56.85446532083333,65.0,63.0
246,56.73288994999999,56.881862587499995,73.0,76.0
247,56.52741044999999,57.03425988333333,56.0,61.0
248,56.93836944999999,57.03768454166666,65.0,51.0
249,56.93836944999999,57.16439689999999,72.0,57.0
250,55.91097194999999,57.19864348333333,44.0,72.0
251,56.321930949999995,57.22775307916666,51.0,49.0
252,57.14384894999999,57.27569829583332,56.0,55.0
253,57.14384894999999,57.33049282916666,70.0,58.0
254,57.349328449999994,57.43836956666666,65.0,64.0
255,57.55480794999999,57.784260058333324,61.0,76.0
256,57.55480794999999,57.81850664166666,70.0,75.0
257,57.55480794999999,57.825355958333326,66.0,80.0
258,57.76028744999999,57.912684745833324,58.0,56.0
259,57.55480794999999,57.91439707499999,54.0,72.0
260,57.96576694999999,58.13528753749999,61.0,73.0
261,58.17124644999999,58.33734237916666,66.0,66.0
262,58.376725949999994,58.72775342916666,72.0,67.0
263,58.376725949999994,58.73117808749999,63.0,67.0
264,58.376725949999994,58.77056165833333,68.0,72.0
265,58.376725949999994,58.957205537499995,44.0,69.0
266,58.78768494999999,59.07193159166666,56.0,64.0
267,58.58220544999999,59.092479541666656,51.0,66.0
268,58.993164449999995,59.10960283333333,63.0,44.0
269,59.19864394999999,59.63528788749999,70.0,69.0
270,59.19864394999999,59.65069884999999,65.0,67.0
271,59.19864394999999,59.65412350833333,73.0,72.0
272,59.81508244999999,59.93494549166666,65.0,73.0
273,59.81508244999999,59.93494549166666,72.0,66.0
274,59.60960294999999,60.275698995833324,53.0,51.0
275,59.81508244999999,60.36131545416666,58.0,49.0
276,60.22604144999999,60.368164770833324,68.0,55.0
277,60.22604144999999,60.37330175833333,61.0,69.0
278,59.19864394999999,60.50172644583333,46.0,66.0
279,60.43152094999999,60.55138399166666,53.0,70.0
280,60.84247994999999,61.24487730416666,65.0,66.0
281,60.84247994999999,61.272274570833325,73.0,73.0
282,60.84247994999999,61.30309649583332,68.0,70.0
283,61.45891844999999,61.73460344583332,73.0,73.0
284,61.45891844999999,61.79282263749999,65.0,80.0
285,61.25343894999999,61.92638431249999,61.0,62.0
286,61.04795944999999,62.07878160833332,56.0,59.0
287,60.84247994999999,62.099329558333324,49.0,78.0
288,61.86987744999999,62.31850769166666,68.0,76.0
289,62.28083644999999,62.45378169583333,70.0,70.0
290,62.48631594999999,62.88871330416666,63.0,63.0
291,62.48631594999999,62.89898727916666,68.0,66.0
292,62.48631594999999,62.916110570833325,72.0,70.0
293,63.10275444999999,63.24487777083333,70.0,80.0
294,63.10275444999999,63.255151745833324,63.0,72.0
295,62.691795449999994,63.51371344999999,51.0,55.0
296,62.89727494999999,63.55309702083333,56.0,55.0
297,63.51371344999999,63.73289158333333,68.0,76.0
298,63.51371344999999,63.73631624166666,63.0,75.0
299,63.71919294999999,63.84590530833332,51.0,72.0
300,62.48631594999999,63.851042295833324,44.0,73.0
301,63.92467244999999,64.02741219999999,68.0,63.0
302,63.92467244999999,64.0736450875,66.0,51.0
303,64.13015194999998,64.47261778333332,42.0,72.0
304,64.33563145,64.50343970833332,49.0,67.0
305,64.54111094999999,64.79453566666666,54.0,48.0
306,64.13015194999998,64.84248088333332,70.0,59.0
307,64.13015194999998,64.95206995,61.0,75.0
308,64.13015194999998,64.95891926666665,66.0,67.0
309,64.74659044999999,65.02741243333332,56.0,66.0
310,64.95206995,65.04796038333332,58.0,70.0
311,65.15754944999999,65.30994674583333,61.0,69.0
312,65.36302894999999,65.66439888333332,66.0,67.0
313,65.56850845,65.72946739166666,70.0,66.0
314,65.77398794999999,65.90926195416665,41.0,69.0
315,65.77398794999999,65.928097575,69.0,101.0
316,65.97946744999999,66.25857710416666,53.0,63.0
317,65.77398794999999,66.36302918333332,65.0,80.0
318,66.59590594999999,66.75172790416666,65.0,82.0
319,66.39042644999999,66.97261836666665,60.0,75.0
320,66.18494695,66.97946768333333,58.0,44.0
321,66.80138544999998,67.04111153333332,70.0,61.0
322,67.00686495,67.09761839583332,73.0,78.0
323,67.21234444999999,67.51542671249999,75.0,73.0
324,67.41782394999998,67.85960487499999,68.0,76.0
325,67.41782394999998,67.8647418625,65.0,70.0
326,67.41782394999998,67.87330350833332,73.0,75.0
327,68.03426244999999,68.3270707375,65.0,80.0
328,68.23974195,68.496591325,68.0,53.0
329,67.82878294999999,68.63871464583332,61.0,66.0
330,67.62330345,68.73460507916666,56.0,63.0
331,67.41782394999998,68.79453659999999,49.0,73.0
332,68.44522144999999,68.83220784166666,70.0,70.0
333,68.65070094999999,68.86302976666666,72.0,70.0
334,68.85618045,69.15070106666666,73.0,61.0
335,69.06165994999999,69.39556413749999,44.0,67.0
336,69.26713944999999,69.45207099999999,51.0,63.0
337,69.06165994999999,69.75172860416666,68.0,73.0
338,69.47261894999998,69.77741354166666,56.0,48.0
339,69.06165994999999,69.83734506249999,63.0,66.0
340,69.06165994999999,69.85960534166665,72.0,73.0
341,69.67809845,70.07535881666665,58.0,72.0
342,69.88357794999999,70.09248210833333,60.0,66.0
343,70.08905744999998,70.23289309999998,63.0,70.0
344,70.29453695,70.51542741249999,68.0,62.0
345,70.70549594999999,71.00172889583332,42.0,66.0
346,70.91097545,71.10104398749999,49.0,55.0
347,70.50001644999999,71.270564575,73.0,66.0
348,71.11645494999999,71.43152351666666,54.0,54.0
349,70.70549594999999,71.51200298749998,70.0,70.0
350,70.70549594999999,71.54967422916665,66.0,70.0
351,70.70549594999999,71.59419478749999,61.0,61.0
352,71.52741395,71.80309894583333,58.0,61.0
353,71.32193444999999,71.81850990833333,56.0,61.0
354,71.73289344999999,71.92809897499998,61.0,75.0
355,71.93837294999999,72.13186614583333,70.0,54.0
356,72.14385244999998,72.42124977499999,68.0,75.0
357,72.34933194999999,72.42124977499999,68.0,76.0
358,72.34933194999999,72.66611284583333,63.0,69.0
359,72.76029094999998,72.92296222083333,63.0,61.0
360,72.55481144999999,73.40755137499998,60.0,63.0
361,72.96577045,73.41097603333333,68.0,70.0
362,72.34933194999999,73.68494869999999,53.0,69.0
363,73.58220895,73.74659254999999,60.0,62.0
364,73.37672944999998,73.80481174166665,72.0,72.0
365,73.78768844999999,73.92467478333332,68.0,43.0
366,73.99316794999999,74.19179813333332,61.0,62.0
367,73.99316794999999,74.44179819166665,66.0,70.0
368,73.99316794999999,74.46405847083332,70.0,70.0
369,74.19864745,74.80309964583333,58.0,58.0
370,74.40412694999999,75.02570243749999,63.0,66.0
371,74.60960644999999,75.0462503875,68.0,75.0
372,75.02056544999999,75.16268877083333,70.0,72.0
373,75.02056544999999,75.16440109999999,66.0,70.0
374,73.99316794999999,75.25344221666666,51.0,64.0
375,75.22604494999999,75.35275730833332,58.0,73.0
376,75.63700395,75.88700400833332,63.0,63.0
377,75.63700395,76.04453829166665,68.0,70.0
378,76.25344245,76.53426443333332,68.0,63.0
379,75.84248344999999,76.55481238333333,60.0,58.0
380,76.04796294999998,76.61474390416666,65.0,73.0
381,76.45892194999999,76.62501787916666,72.0,67.0
382,75.63700395,76.78940147916666,53.0,60.0
383,76.66440144999999,76.82364806249998,75.0,67.0
384,76.86988095,77.09933305833333,77.0,67.0
385,77.07536044999999,77.42638792916665,78.0,59.0
386,77.28083994999999,77.44179889166665,73.0,67.0
387,77.28083994999999,77.4606345125,70.0,57.0
388,77.89727844999999,78.19179906666666,58.0,66.0
389,78.10275794999998,78.23289496666665,61.0,57.0
390,77.69179894999999,78.28940182916665,54.0,63.0
391,78.30823745,78.52056626666666,63.0,70.0
392,77.28083994999999,78.58905943333332,42.0,70.0
393,77.48631944999998,78.61645669999999,49.0,67.0
394,78.51371694999999,78.80138824999999,54.0,70.0
395,78.51371694999999,78.90412799999999,65.0,56.0
396,78.92467595,79.72433367083332,63.0,78.0
397,78.92467595,79.72775832916666,56.0,88.0
398,78.92467595,79.72775832916666,60.0,80.0
399,78.92467595,79.72775832916666,68.0,76.0
400,78.92467595,79.74659394999999,44.0,73.0
401,80.56851194999999,81.07193672499999,65.0,69.0
402,80.56851194999999,81.08563535833332,61.0,78.0
403,81.18495044999999,81.5085806625,60.0,72.0
404,81.18495044999999,81.63015603333332,63.0,75.0
405,81.80138894999999,82.17981369583332,65.0,66.0
406,81.80138894999999,82.22604658333333,61.0,69.0
407,82.41782744999999,82.60960831666665,60.0,69.0
408,82.62330694999999,82.73974533333332,61.0,64.0
409,82.82878644999998,83.04282759583332,65.0,52.0
410,83.03426594999999,83.28426600833332,70.0,63.0
411,80.56851194999999,83.39385507499999,46.0,78.0
412,82.21234795,83.43666330416666,58.0,51.0
413,83.23974544999999,83.48460852083332,72.0,51.0
414,83.44522494999998,83.62330718333332,73.0,59.0
415,80.97947094999999,83.77056749166665,53.0,49.0
416,83.65070444999999,83.81851270833332,75.0,60.0
417,83.85618394999999,84.48289642499999,63.0,78.0
418,83.85618394999999,84.50173204583332,60.0,75.0
419,83.85618394999999,84.50858136249998,68.0,76.0
420,83.85618394999999,84.53597862916665,44.0,72.0
421,83.85618394999999,84.55138959166665,56.0,67.0
422,85.08906094999999,85.91440360833332,58.0,73.0
423,85.08906094999999,85.95378717916665,65.0,88.0
424,85.08906094999999,85.99145842083333,61.0,82.0
425,85.08906094999999,86.00686938333332,70.0,78.0
426,86.11645844999998,86.37673248333333,58.0,47.0
427,86.32193794999999,86.71748598749998,65.0,78.0
428,86.32193794999999,86.72947229166665,61.0,73.0
429,86.32193794999999,86.75686955833332,70.0,75.0
430,86.73289694999998,86.78940381249998,58.0,44.0
431,85.08906094999999,86.82022573749998,46.0,75.0
432,87.14385594999999,87.67981497916665,68.0,72.0
433,87.14385594999999,87.70892457499998,65.0,64.0
434,87.14385594999999,87.70892457499998,73.0,69.0
435,87.55481495,88.05481506666665,56.0,52.0
436,87.96577394999998,88.32193841666665,73.0,64.0
437,87.96577394999998,88.32536307499998,61.0,49.0
438,87.96577394999998,88.33906170833332,68.0,69.0
439,87.96577394999998,88.39899322916665,65.0,63.0
440,87.14385594999999,88.42810282499998,49.0,69.0
441,88.37673294999999,88.82365086249999,56.0,58.0
442,88.78769194999998,89.63187022916665,68.0,69.0
443,88.78769194999998,89.64214420416666,72.0,66.0
444,88.78769194999998,89.64728119166665,63.0,62.0
445,89.60960994999999,89.99830867083332,60.0,57.0
446,88.78769194999998,90.07022649583332,48.0,67.0
447,90.02056894999998,90.19865118333333,63.0,54.0
448,90.43152794999999,90.98289794166665,70.0,72.0
449,90.43152794999999,91.00002123333331,66.0,75.0
450,90.43152794999999,91.058240425,61.0,69.0
451,91.25344594999999,91.57022684583332,73.0,51.0
452,91.25344594999999,91.58050082083332,61.0,62.0
453,90.43152794999999,91.79454196666666,54.0,63.0
454,90.84248695,91.83221320833331,58.0,66.0
455,91.66440494999999,91.93837761666666,68.0,64.0
456,92.07536394999998,92.51029555833333,63.0,67.0
457,92.07536394999998,92.56680242083333,68.0,72.0
458,92.48632294999999,93.25344641666665,60.0,55.0
459,92.07536394999998,93.26885737916665,53.0,75.0
460,92.89728194999999,93.28940532916666,65.0,70.0
461,93.30824094999998,93.67810404999999,70.0,63.0
462,93.71919994999999,93.79283010416665,63.0,45.0
463,93.71919994999999,94.16783019166665,66.0,64.0
464,93.71919994999999,94.18837814166665,70.0,62.0
465,94.13015894999998,94.76029608333332,58.0,44.0
466,94.54111794999999,94.90584406249998,63.0,54.0
467,94.54111794999999,94.93324132916665,66.0,66.0
468,94.54111794999999,94.94180297499999,70.0,58.0
469,94.95207694999999,95.05824135833332,58.0,52.0
470,93.71919994999999,95.09762492916666,51.0,64.0
471,95.36303594999998,95.6969401375,68.0,70.0
472,95.36303594999998,95.73803603749998,63.0,60.0
473,96.18495395,96.47262525,56.0,56.0
474,95.36303594999998,96.53769375833332,44.0,62.0
475,96.18495395,96.56851568333332,60.0,72.0
476,95.77399494999999,96.57878965833332,51.0,43.0
477,96.18495395,96.60104993749998,63.0,72.0
478,97.00687194999999,97.39043368333331,66.0,69.0
479,97.00687194999999,97.42639259583332,61.0,70.0
480,97.00687194999999,97.48289945833332,58.0,66.0
481,97.82878994999999,98.16098180833332,66.0,70.0
482,97.82878994999999,98.21748867083332,61.0,73.0
483,97.82878994999999,98.25173525416665,58.0,69.0
484,97.00687194999999,98.31680376249999,42.0,72.0
485,98.23974894999999,98.34420102916665,54.0,76.0
486,97.41783094999998,98.35789966249999,49.0,50.0
487,99.26714644999998,99.46063964583333,58.0,76.0
488,99.47262594999998,99.54968076249999,60.0,70.0
489,99.67810544999999,99.82194109999999,65.0,85.0
490,98.65070794999998,99.84248904999998,41.0,76.0
491,98.85618745,99.88872193749998,48.0,70.0
492,99.06166694999999,99.91611920416665,53.0,85.0
493,99.88358494999999,100.04796854999998,70.0,88.0
494,100.08906444999998,100.20379050416665,72.0,76.0
495,100.29454394999999,100.58563990833332,65.0,85.0
496,100.29454394999999,100.62844813749999,73.0,76.0
497,100.29454394999999,100.64214677083332,46.0,66.0
498,100.50002344999999,100.70379062083332,53.0,54.0
499,100.70550294999998,100.86646189166665,65.0,73.0
500,100.70550294999998,100.92981807083332,72.0,72.0
501,100.70550294999998,101.01372219999999,58.0,57.0
502,100.91098244999999,101.17468114166665,65.0,76.0
503,100.91098244999999,101.21064005416665,73.0,66.0
504,100.91098244999999,101.28598253749999,60.0,62.0
505,101.11646194999999,101.43153051666665,61.0,57.0
506,101.32194144999998,101.49831135416665,65.0,75.0
507,101.32194144999998,101.55139355833332,72.0,62.0
508,101.52742094999999,101.67125659999999,60.0,48.0
509,101.73290044999999,101.92296898749998,58.0,45.0
510,101.73290044999999,102.01201010416665,70.0,69.0
511,101.73290044999999,102.05653066249998,65.0,76.0
512,102.55481844999998,102.77228425416665,60.0,82.0
513,102.76029794999998,102.86817468749999,61.0,66.0
514,102.34933894999999,102.90755825833332,58.0,88.0
515,101.93837994999998,102.95892813333332,46.0,76.0
516,102.76029794999998,103.00173636249998,70.0,97.0
517,102.14385944999998,103.13529803749998,53.0,72.0
518,102.96577744999999,103.14385968333332,65.0,70.0
519,103.17125694999999,103.38187343749999,68.0,80.0
520,103.17125694999999,103.38701042499999,44.0,72.0
521,103.37673644999998,103.50344880833332,70.0,82.0
522,103.78769544999999,104.30139419999999,58.0,49.0
523,104.19865444999999,104.59591481666665,63.0,49.0
524,103.58221594999999,104.83221624166666,51.0,73.0
525,104.81509294999998,105.06509300833332,65.0,69.0
526,104.60961344999998,105.08392862916665,58.0,58.0
527,105.02057244999999,105.56851778333332,66.0,73.0
528,105.84249044999999,106.01201103749999,65.0,76.0
529,105.43153144999998,106.09249050833331,58.0,49.0
530,105.63701094999999,106.29112069166665,63.0,56.0
531,106.25344944999999,106.49317553333331,68.0,70.0
532,106.45892894999999,106.55995637083332,58.0,62.0
533,105.22605194999998,106.57023034583332,51.0,73.0
534,106.66440844999998,106.82536739166665,73.0,55.0
535,106.66440844999998,106.82536739166665,73.0,70.0
536,106.86988794999999,107.22947707499999,44.0,75.0
537,107.07536744999999,107.28598393749998,51.0,69.0
538,107.28084694999998,107.59591551666665,56.0,62.0
539,106.86988794999999,107.73632650833332,63.0,52.0
540,106.86988794999999,107.75858678749998,68.0,73.0
541,107.48632644999998,107.78084706666665,58.0,51.0
542,107.69180594999999,107.80824433333332,60.0,75.0
543,107.89728544999998,108.04625808749998,63.0,60.0
544,108.10276494999998,108.32708007083332,68.0,64.0
545,108.51372394999999,108.96406652083331,65.0,85.0
546,108.92468294999999,109.55824474166666,53.0,51.0
547,109.33564194999998,109.67297079583332,63.0,70.0
548,108.51372394999999,109.79454616666665,41.0,72.0
549,109.74660094999999,109.84934069999998,53.0,82.0
550,110.15755994999998,110.60105320416665,65.0,88.0
551,110.77399844999998,111.14214922083332,65.0,72.0
552,111.18495744999998,111.25516294583332,65.0,55.0
553,111.18495744999998,111.79968362083332,70.0,80.0
554,111.59591644999999,111.79968362083332,70.0,56.0
555,111.39043694999998,112.25516317916666,58.0,51.0
556,111.80139594999999,112.36817690416665,82.0,80.0
557,110.56851894999998,112.66954683749998,53.0,61.0
558,110.15755994999998,112.72434137083332,46.0,76.0
559,112.62331394999998,112.74831397916665,80.0,69.0
560,113.44523194999998,113.92297178749999,73.0,57.0
561,113.44523194999998,113.93324576249998,65.0,51.0
562,114.26714994999999,115.17297207916666,58.0,53.0
563,114.67810894999998,115.18838304166665,60.0,57.0
564,115.08906794999999,115.40413651666665,61.0,76.0
565,115.50002694999998,116.23804082083332,58.0,35.0
566,113.44523194999998,116.26543808749999,46.0,53.0
567,113.85619094999998,116.27228740416665,53.0,58.0
568,115.91098594999998,116.30310932916665,65.0,63.0
569,116.32194494999999,116.72947929166665,70.0,45.0
570,116.73290394999998,117.22605474999999,68.0,66.0
571,116.73290394999998,117.90927408749998,44.0,66.0
572,117.14386294999998,117.96235629166665,51.0,40.0
573,117.55482194999999,118.43153448333332,56.0,50.0
574,117.96578094999998,118.43153448333332,63.0,54.0
575,118.37673994999999,119.48119226249999,49.0,61.0
576,118.37673994999999,119.53427446666664,65.0,70.0
577,119.19865794999998,119.53598679583331,61.0,47.0
578,118.78769894999998,119.56338406249998,56.0,38.0
579,119.60961694999999,120.03941157083332,70.0,56.0
580,120.02057594999998,120.92982273749999,66.0,67.0
581,121.25345294999998,121.71578182499998,70.0,48.0
582,120.84249394999998,121.80482294166664,63.0,50.0
583,121.66441194999999,122.13016548333331,65.0,44.0
584,121.66441194999999,122.15242576249999,68.0,60.0
585,120.43153494999999,122.41269979583332,58.0,44.0
586,120.02057594999998,122.51715187499998,51.0,51.0
587,121.66441194999999,122.59078202916665,77.0,66.0
588,122.07537094999998,122.86304236666665,60.0,59.0
589,121.66441194999999,122.89215196249998,53.0,69.0
590,122.48632994999998,122.89215196249998,63.0,59.0
591,122.89728894999999,123.24489177083332,68.0,63.0
592,123.30824794999998,123.71920694999999,61.0,55.0
593,123.30824794999998,123.71920694999999,70.0,62.0
594,123.30824794999998,123.74317955833331,66.0,63.0
595,123.30824794999998,123.78427545833331,54.0,55.0
596,123.71920694999999,123.79797409166665,58.0,69.0
597,124.13016594999998,124.53256330416664,68.0,59.0
598,124.13016594999998,124.53770029166665,63.0,61.0
599,124.13016594999998,124.54454960833331,72.0,60.0
600,124.13016594999998,124.63872771249999,44.0,72.0
601,124.54112494999998,124.92468668333332,70.0,57.0
602,124.95208394999999,125.47263201666665,73.0,62.0
603,124.95208394999999,125.49146763749998,65.0,52.0
604,125.36304294999998,125.86818005416664,53.0,46.0
605,125.77400194999998,126.08050887083331,65.0,36.0
606,125.77400194999998,126.13359107499998,61.0,70.0
607,125.77400194999998,126.19523492499998,58.0,46.0
608,124.95208394999999,126.30996097916665,46.0,59.0
609,126.18496094999998,126.54455007499998,60.0,46.0
610,126.18496094999998,126.54968706249998,53.0,39.0
611,126.18496094999998,126.61133091249998,63.0,49.0
612,126.59591994999998,127.00687894999999,75.0,66.0
613,127.00687894999999,127.37160506249998,75.0,59.0
614,127.41783794999998,127.58564620833332,70.0,72.0
615,127.41783794999998,127.66270102083331,63.0,54.0
616,126.59591994999998,127.79797502499999,51.0,60.0
617,127.00687894999999,127.88187915416665,58.0,51.0
618,127.82879694999998,128.1763997708333,68.0,63.0
619,128.20379703749998,128.58393411249997,73.0,72.0
620,128.21578334166665,128.72776976249997,65.0,58.0
621,128.63187932916665,129.02229037916666,72.0,63.0
622,129.04283832916664,129.31509866666664,58.0,50.0
623,129.05824929166664,129.46749596249998,65.0,53.0
624,128.1918107333333,129.49146857083332,46.0,73.0
625,128.640440975,129.49660555833333,53.0,55.0
626,129.04797531666665,129.55482475,73.0,63.0
627,129.44694801249997,129.57708502916665,58.0,45.0
628,129.88359194999998,130.13530433749997,68.0,63.0
629,129.88359194999998,130.1695509208333,73.0,64.0
630,130.29455094999997,130.67982501249998,73.0,67.0
631,129.88359194999998,130.98461960416665,49.0,70.0
632,130.70550995,131.0085922125,61.0,57.0
633,130.70550995,131.0222908458333,77.0,73.0
634,130.29455094999997,131.03085249166665,56.0,50.0
635,131.11646894999998,131.32879776666664,80.0,63.0
636,131.52742794999997,131.91270201249998,73.0,67.0
637,132.34934595,132.60790765416664,73.0,67.0
638,131.93838695,132.626743275,53.0,45.0
639,132.34934595,132.65242821249998,58.0,55.0
640,132.55482544999998,132.75174330416664,72.0,53.0
641,131.52742794999997,132.78770221666664,46.0,61.0
642,132.76030494999998,132.9229762208333,70.0,61.0
643,132.96578444999997,133.17811326666666,68.0,64.0
644,133.17126394999997,133.53085307499998,75.0,60.0
645,133.58222295,133.89386685833333,73.0,62.0
646,133.99318194999998,134.11475732083332,70.0,62.0
647,133.99318194999998,134.20551076666663,63.0,57.0
648,133.17126394999997,134.26544228749998,51.0,67.0
649,133.58222295,134.28941489583332,58.0,56.0
650,134.40414094999997,134.76373007499998,68.0,64.0
651,134.81509995,135.16441509999999,61.0,67.0
652,134.81509995,135.18838770833332,66.0,73.0
653,134.81509995,135.20208634166664,70.0,66.0
654,134.81509995,135.2243466208333,42.0,64.0
655,134.81509995,135.24318224166666,54.0,52.0
656,135.63701794999997,135.98290844166664,72.0,66.0
657,135.63701794999997,136.02229201249997,44.0,61.0
658,135.63701794999997,136.02914132916663,68.0,69.0
659,135.63701794999997,136.0411276333333,63.0,62.0
660,135.63701794999997,136.06510024166664,56.0,53.0
661,136.45893594999998,136.98119634583333,65.0,66.0
662,136.45893594999998,137.17297721249997,61.0,69.0
663,137.28085395,137.61989512499997,58.0,55.0
664,137.48633345,137.70037459583332,60.0,56.0
665,136.45893594999998,137.7877033833333,46.0,69.0
666,136.86989494999997,137.92982670416666,53.0,49.0
667,137.69181294999998,137.95893629999998,61.0,54.0
668,137.89729244999998,138.05311440416665,63.0,53.0
669,138.10277194999998,138.1883884083333,46.0,67.0
670,138.10277194999998,138.1883884083333,53.0,80.0
671,138.10277194999998,138.19352539583332,58.0,78.0
672,138.10277194999998,138.19695005416665,61.0,78.0
673,138.10277194999998,138.2037993708333,65.0,75.0
674,138.30825144999997,138.38359393333332,53.0,95.0
675,138.30825144999997,138.400717225,61.0,91.0
676,138.30825144999997,138.40585421249997,58.0,80.0
677,138.30825144999997,138.41099119999998,65.0,78.0
678,138.30825144999997,138.41270352916663,46.0,88.0
679,138.92468995,139.07879957499998,58.0,66.0
680,138.92468995,139.18496398333332,61.0,73.0
681,138.92468995,139.20208727499997,65.0,73.0
682,139.13016944999998,139.27058044166665,53.0,67.0
683,138.92468995,139.34249826666664,46.0,73.0
684,139.33564894999998,139.78085453333333,48.0,64.0
685,139.33564894999998,139.78941617916664,63.0,75.0
686,139.33564894999998,139.79969015416665,60.0,67.0
687,139.74660794999997,140.29626561249998,61.0,78.0
688,139.74660794999997,140.30311492916664,65.0,73.0
689,140.36304644999998,140.7003752958333,53.0,40.0
690,140.56852594999998,140.80653970416665,65.0,80.0
691,140.56852594999998,140.81167669166663,56.0,70.0
692,140.56852594999998,140.81852600833332,61.0,82.0
693,140.77400544999998,140.93838904999998,53.0,75.0
694,139.74660794999997,140.96578631666665,49.0,80.0
695,140.97948494999997,141.14386854999998,56.0,64.0
696,141.18496444999997,141.359622025,65.0,69.0
697,141.39044395,141.69695087083332,60.0,78.0
698,141.39044395,141.72606046666664,63.0,75.0
699,142.21236194999997,142.33393732083331,65.0,63.0
700,142.21236194999997,142.36133458749998,73.0,76.0
701,142.00688244999998,142.51373188333332,56.0,61.0
702,142.41784144999997,142.51715654166665,65.0,51.0
703,142.41784144999997,142.64386889999997,72.0,57.0
704,141.39044395,142.6781154833333,44.0,72.0
705,141.80140294999998,142.70722507916665,51.0,49.0
706,142.62332095,142.75517029583332,56.0,55.0
707,142.62332095,142.80996482916666,70.0,58.0
708,142.82880045,142.91784156666665,65.0,64.0
709,143.03427994999998,143.26373205833332,61.0,76.0
710,143.03427994999998,143.29797864166665,70.0,75.0
711,143.03427994999998,143.3048279583333,66.0,80.0
712,143.23975944999998,143.39215674583332,58.0,56.0
713,143.03427994999998,143.39386907499997,54.0,72.0
714,143.44523894999998,143.6147595375,61.0,73.0
715,143.65071844999997,143.81681437916666,66.0,66.0
716,143.85619794999997,144.20722542916664,72.0,67.0
717,143.85619794999997,144.21065008749997,63.0,67.0
718,143.85619794999997,144.2500336583333,68.0,72.0
719,143.85619794999997,144.43667753749997,44.0,69.0
720,144.26715695,144.55140359166666,56.0,64.0
721,144.06167745,144.57195154166664,51.0,66.0
722,144.47263644999998,144.5890748333333,63.0,44.0
723,144.67811594999998,145.11475988749999,70.0,69.0
724,144.67811594999998,145.13017084999998,65.0,67.0
725,144.67811594999998,145.13359550833331,73.0,72.0
726,145.29455445,145.41441749166665,65.0,73.0
727,145.29455445,145.41441749166665,72.0,66.0
728,145.08907494999997,145.7551709958333,53.0,51.0
729,145.29455445,145.84078745416664,58.0,49.0
730,145.70551344999998,145.8476367708333,68.0,55.0
731,145.70551344999998,145.8527737583333,61.0,69.0
732,144.67811594999998,145.98119844583331,46.0,66.0
733,145.91099294999998,146.03085599166664,53.0,70.0
734,146.32195194999997,146.72434930416665,65.0,66.0
735,146.32195194999997,146.75174657083332,73.0,73.0
736,146.32195194999997,146.78256849583332,68.0,70.0
737,146.93839044999999,147.21407544583332,73.0,73.0
738,146.93839044999999,147.27229463749998,65.0,80.0
739,146.73291095,147.4058563125,61.0,62.0
740,146.52743144999997,147.5582536083333,56.0,59.0
741,146.32195194999997,147.5788015583333,49.0,78.0
742,147.34934944999998,147.79797969166665,68.0,76.0
743,147.76030844999997,147.93325369583332,70.0,70.0
744,147.96578795,148.36818530416664,63.0,63.0
745,147.96578795,148.37845927916663,68.0,66.0
746,147.96578795,148.3955825708333,72.0,70.0
747,148.58222644999998,148.7243497708333,70.0,80.0
748,148.58222644999998,148.73462374583332,63.0,72.0
749,148.17126745,148.99318544999997,51.0,55.0
750,148.37674694999998,149.0325690208333,56.0,55.0
751,148.99318544999997,149.2123635833333,68.0,76.0
752,148.99318544999997,149.21578824166664,63.0,75.0
753,149.19866494999997,149.32537730833332,51.0,72.0
754,147.96578795,149.33051429583332,44.0,73.0
755,149.40414445,149.50688419999997,68.0,63.0
756,149.60962394999999,149.95208978333332,42.0,72.0
757,149.81510344999998,149.98291170833332,49.0,67.0
758,150.02058294999998,150.27400766666665,54.0,48.0
759,149.60962394999999,150.32195288333332,70.0,59.0
760,149.60962394999999,150.43154194999997,61.0,75.0
761,149.60962394999999,150.43839126666666,66.0,67.0
762,150.22606244999997,150.5068844333333,56.0,66.0
763,150.43154194999997,150.52743238333332,58.0,70.0
764,150.63702145,150.7894187458333,61.0,69.0
765,150.84250095,151.1438708833333,66.0,67.0
766,151.04798044999998,151.20893939166663,70.0,66.0
767,151.25345994999998,151.38873395416664,41.0,69.0
768,151.25345994999998,151.40756957499997,69.0,101.0
769,151.45893944999997,151.73804910416663,53.0,63.0
770,151.25345994999998,151.84250118333333,65.0,80.0
771,152.07537795,152.23119990416666,65.0,82.0
772,151.86989844999997,152.45209036666665,60.0,75.0
773,151.66441894999997,152.4589396833333,58.0,44.0
774,152.28085744999998,152.5205835333333,70.0,61.0
775,152.48633694999998,152.57709039583332,73.0,78.0
776,152.69181644999998,152.99489871249997,75.0,73.0
777,152.89729594999997,153.339076875,68.0,76.0
778,152.89729594999997,153.34421386249997,65.0,70.0
779,152.89729594999997,153.3527755083333,73.0,75.0
780,153.51373445,153.80654273749997,65.0,80.0
781,153.71921394999998,153.97606332499998,68.0,53.0
782,153.30825495,154.1181866458333,61.0,66.0
783,153.10277544999997,154.21407707916666,56.0,63.0
784,152.89729594999997,154.27400859999997,49.0,73.0
785,153.92469344999998,154.31167984166663,70.0,70.0
786,154.13017294999997,154.34250176666666,72.0,70.0
787,154.33565244999997,154.63017306666666,73.0,61.0
788,154.54113194999996,154.8750361375,44.0,67.0
789,154.74661145,154.93154299999998,51.0,63.0
790,154.54113194999996,155.23120060416665,68.0,73.0
791,154.95209094999998,155.25688554166663,56.0,48.0
792,154.54113194999996,155.31681706249998,63.0,66.0
793,154.54113194999996,155.33907734166664,72.0,73.0
794,155.15757044999998,155.55483081666665,58.0,72.0
795,155.36304994999998,155.5719541083333,60.0,66.0
796,155.56852944999997,155.71236509999997,63.0,70.0
797,155.77400894999997,155.9948994125,68.0,62.0
798,156.18496795,156.48120089583333,42.0,66.0
799,156.39044744999998,156.58051598749998,49.0,55.0
800,155.97948845,156.75003657499997,73.0,66.0
801,156.59592694999998,156.91099551666665,54.0,54.0
802,156.18496795,156.99147498749997,70.0,70.0
803,156.18496795,157.02914622916666,66.0,70.0
804,156.18496795,157.07366678749997,61.0,61.0
805,157.00688594999997,157.2825709458333,58.0,61.0
806,156.80140644999997,157.2979819083333,56.0,61.0
807,157.21236544999996,157.40757097499997,61.0,75.0
808,157.41784495,157.61133814583332,68.0,54.0
809,157.62332444999998,157.90072177499997,72.0,75.0
810,157.82880394999998,158.1455848458333,63.0,69.0
811,157.82880394999998,158.15757114999997,68.0,76.0
812,158.23976294999997,158.4024342208333,63.0,61.0
813,158.03428344999998,158.88702337499998,60.0,63.0
814,158.44524244999997,158.8904480333333,68.0,70.0
815,157.82880394999998,159.16442069999997,53.0,69.0
816,159.06168094999998,159.22606455,60.0,62.0
817,158.85620145,159.28428374166666,72.0,72.0
818,159.26716044999998,159.40414678333332,68.0,43.0
819,159.47263994999997,159.6712701333333,61.0,62.0
820,159.47263994999997,159.92127019166665,66.0,70.0
821,159.47263994999997,159.9435304708333,70.0,70.0
822,159.67811944999997,160.28257164583331,58.0,58.0
823,159.88359894999996,160.5051744375,63.0,66.0
824,160.08907845,160.52572238749997,68.0,75.0
825,160.50003744999998,160.6421607708333,70.0,72.0
826,160.50003744999998,160.64387309999998,66.0,70.0
827,159.47263994999997,160.73291421666664,51.0,64.0
828,160.70551694999997,160.83222930833332,58.0,73.0
829,161.11647594999997,161.3664760083333,63.0,63.0
830,161.11647594999997,161.52401029166666,68.0,70.0
831,161.73291444999998,162.01373643333332,68.0,63.0
832,161.32195545,162.0342843833333,60.0,58.0
833,161.52743494999999,162.09421590416665,65.0,73.0
834,161.93839394999998,162.10448987916664,72.0,67.0
835,161.11647594999997,162.26887347916664,53.0,60.0
836,162.14387344999997,162.30312006249997,75.0,67.0
837,162.34935294999997,162.5788050583333,77.0,67.0
838,162.55483244999996,162.90585992916664,78.0,59.0
839,162.76031195,162.92127089166664,73.0,67.0
840,162.76031195,162.94010651249997,70.0,57.0
841,163.37675044999997,163.67127106666663,58.0,66.0
842,163.58222994999997,163.71236696666665,61.0,57.0
843,163.17127094999998,163.76887382916664,54.0,63.0
844,163.78770944999997,164.00003826666665,63.0,70.0
845,162.76031195,164.0685314333333,42.0,70.0
846,162.96579144999998,164.09592869999997,49.0,67.0
847,163.99318895,164.28086025,54.0,70.0
848,163.99318895,164.28086025,65.0,70.0
849,164.40414794999998,164.5668192208333,63.0,78.0
850,164.40414794999998,164.57024387916664,56.0,88.0
851,164.40414794999998,164.57024387916664,60.0,80.0
852,164.40414794999998,164.57024387916664,68.0,76.0
853,164.40414794999998,164.58907949999997,44.0,73.0
854,166.04798394999997,166.2003812458333,53.0,62.0
855,166.04798394999997,166.47092925416663,65.0,75.0
856,166.04798394999997,166.5291484458333,61.0,82.0
857,166.45894294999997,166.92640881249997,53.0,60.0
858,166.66442245,167.05654582916665,58.0,60.0
859,166.04798394999997,167.11476502083332,46.0,69.0
860,166.86990194999998,167.12161433749998,65.0,91.0
861,166.86990194999998,167.15757324999998,61.0,99.0
862,167.07538144999998,167.1712718833333,53.0,67.0
863,167.28086094999998,167.61134047916664,51.0,82.0
864,167.28086094999998,167.94010767916663,63.0,78.0
865,167.28086094999998,167.96921727499998,58.0,91.0
866,167.28086094999998,168.05140907499998,67.0,67.0
867,168.10277895,168.6455872958333,51.0,48.0
868,168.51373794999998,168.76545033749997,58.0,82.0
869,168.51373794999998,168.7842859583333,67.0,99.0
870,168.51373794999998,168.80140924999998,63.0,106.0
871,167.28086094999998,168.96750517916664,39.0,99.0
872,168.71921744999997,169.0308613583333,51.0,93.0
873,168.92469694999997,169.2072312625,58.0,95.0
874,169.33565595,169.366477875,60.0,101.0
875,169.33565595,169.42298473749997,57.0,103.0
876,169.33565595,169.42812172499998,41.0,72.0
877,169.33565595,169.42812172499998,53.0,93.0
878,169.33565595,169.42812172499998,65.0,85.0
879,169.54113544999998,169.62675190833332,60.0,82.0
880,169.54113544999998,169.63017656666665,65.0,76.0
881,169.54113544999998,169.63531355416663,57.0,80.0
882,169.54113544999998,169.6387382125,53.0,80.0
883,169.54113544999998,169.65586150416664,41.0,72.0
884,169.74661494999998,169.83736839583332,57.0,78.0
885,169.74661494999998,169.83736839583332,60.0,95.0
886,169.74661494999998,169.8476423708333,65.0,80.0
887,169.74661494999998,169.86990264999997,53.0,85.0
888,169.74661494999998,169.89216292916663,41.0,72.0
889,169.95209444999998,169.98805336249998,60.0,70.0
890,169.95209444999998,170.02743693333332,53.0,93.0
891,169.95209444999998,170.0479848833333,41.0,73.0
892,170.36305344999997,170.41099866666664,60.0,99.0
893,170.36305344999997,170.41956031249998,65.0,93.0
894,170.36305344999997,170.4229849708333,57.0,103.0
895,170.36305344999997,170.42983428749997,53.0,93.0
896,170.36305344999997,170.4538068958333,41.0,80.0
897,170.56853294999996,170.7825740958333,63.0,99.0
898,170.56853294999996,170.80140971666665,58.0,109.0
899,170.56853294999996,170.8031220458333,55.0,106.0
900,170.56853294999996,170.82538232499996,39.0,93.0
901,170.56853294999996,170.8390809583333,51.0,75.0
902,170.97949194999998,171.95038258749997,57.0,101.0
903,170.97949194999998,171.95551957499998,60.0,99.0
904,170.97949194999998,171.96236889166664,53.0,101.0
905,170.97949194999998,171.97093053749998,65.0,82.0
906,170.97949194999998,171.99490314583332,41.0,76.0
907,172.62332794999998,173.17298561249999,61.0,78.0
908,172.62332794999998,173.17983492916665,65.0,73.0
909,173.23976644999996,173.57709529583332,53.0,40.0
910,173.44524595,173.68325970416663,65.0,80.0
911,173.44524595,173.68839669166664,56.0,70.0
912,173.44524595,173.6952460083333,61.0,82.0
913,173.65072544999998,173.81510905,53.0,75.0
914,172.62332794999998,173.84250631666663,49.0,80.0
915,173.85620494999998,174.02058854999999,56.0,64.0
916,174.06168444999997,174.23634202499997,65.0,69.0
917,174.26716394999997,174.5736708708333,60.0,78.0
918,174.26716394999997,174.60278046666664,63.0,75.0
919,175.08908194999998,175.21065732083332,65.0,63.0
920,175.08908194999998,175.2380545875,73.0,76.0
921,174.88360244999998,175.3904518833333,56.0,61.0
922,175.29456144999997,175.39387654166663,65.0,51.0
923,175.29456144999997,175.52058889999998,72.0,57.0
924,174.26716394999997,175.5548354833333,44.0,72.0
925,174.67812295,175.58394507916665,51.0,49.0
926,175.50004094999997,175.6318902958333,56.0,55.0
927,175.50004094999997,175.68668482916664,70.0,58.0
928,175.70552044999997,175.79456156666663,65.0,64.0
929,175.91099994999996,176.1404520583333,61.0,76.0
930,175.91099994999996,176.17469864166665,70.0,75.0
931,175.91099994999996,176.1815479583333,66.0,80.0
932,176.11647944999999,176.2688767458333,58.0,56.0
933,175.91099994999996,176.27058907499998,54.0,72.0
934,176.32195894999998,176.49147953749997,61.0,73.0
935,176.52743844999998,176.69353437916664,66.0,66.0
936,176.73291794999997,177.08394542916665,72.0,67.0
937,176.73291794999997,177.08737008749998,63.0,67.0
938,176.73291794999997,177.1267536583333,68.0,72.0
939,176.73291794999997,177.31339753749998,44.0,69.0
940,177.14387694999996,177.42812359166663,56.0,64.0
941,176.93839744999997,177.44867154166664,51.0,66.0
942,177.34935645,177.46579483333332,63.0,44.0
943,177.55483594999998,177.99147988749996,70.0,69.0
944,177.55483594999998,178.00689084999996,65.0,67.0
945,177.55483594999998,178.01031550833332,73.0,72.0
946,178.17127444999997,178.29113749166663,65.0,73.0
947,178.17127444999997,178.29113749166663,72.0,66.0
948,177.96579494999997,178.63189099583332,53.0,51.0
949,178.17127444999997,178.71750745416665,58.0,49.0
950,178.58223344999996,178.7243567708333,68.0,55.0
951,178.58223344999996,178.72949375833332,61.0,69.0
952,177.55483594999998,178.85791844583332,46.0,66.0
953,178.78771294999999,178.90757599166665,53.0,70.0
954,179.19867194999998,179.60106930416663,65.0,66.0
955,179.19867194999998,179.6284665708333,73.0,73.0
956,179.19867194999998,179.6592884958333,68.0,70.0
957,179.81511044999996,180.09079544583332,73.0,73.0
958,179.81511044999996,180.1490146375,65.0,80.0
959,179.60963094999997,180.28257631249997,61.0,62.0
960,179.40415144999997,180.4349736083333,56.0,59.0
961,179.19867194999998,180.45552155833332,49.0,78.0
962,180.22606944999998,180.67469969166663,68.0,76.0
963,180.63702844999997,180.80997369583332,70.0,70.0
964,180.84250794999997,181.24490530416665,63.0,63.0
965,180.84250794999997,181.25517927916664,68.0,66.0
966,180.84250794999997,181.27230257083332,72.0,70.0
967,181.45894644999998,181.6010697708333,70.0,80.0
968,181.45894644999998,181.6113437458333,63.0,72.0
969,181.04798744999997,181.86990544999998,51.0,55.0
970,181.25346694999996,181.9092890208333,56.0,55.0
971,181.86990544999998,182.08908358333332,68.0,76.0
972,181.86990544999998,182.09250824166665,63.0,75.0
973,182.07538494999997,182.20209730833332,51.0,72.0
974,180.84250794999997,182.2072342958333,44.0,73.0
975,182.28086444999997,182.38360419999998,68.0,63.0
976,182.48634394999996,182.8288097833333,42.0,72.0
977,182.69182345,182.8596317083333,49.0,67.0
978,182.89730294999998,183.15072766666665,54.0,48.0
979,182.48634394999996,183.1986728833333,70.0,59.0
980,182.48634394999996,183.30826194999997,61.0,75.0
981,182.48634394999996,183.31511126666663,66.0,67.0
982,183.10278244999998,183.38360443333332,56.0,66.0
983,183.30826194999997,183.4041523833333,58.0,70.0
984,183.51374144999997,183.6661387458333,61.0,69.0
985,183.71922094999996,184.0205908833333,66.0,67.0
986,183.92470044999996,184.08565939166664,70.0,66.0
987,184.13017994999998,184.26545395416665,41.0,69.0
988,184.13017994999998,184.28428957499997,69.0,101.0
989,184.33565944999998,184.61476910416664,53.0,63.0
990,184.13017994999998,184.7192211833333,65.0,80.0
991,184.95209794999997,185.10791990416664,65.0,82.0
992,184.74661844999997,185.32881036666663,60.0,75.0
993,184.54113894999998,185.33565968333332,58.0,44.0
994,185.15757744999996,185.39730353333331,70.0,61.0
995,185.36305695,185.4538103958333,73.0,78.0
996,185.56853644999998,185.87161871249998,75.0,73.0
997,185.77401594999998,186.21579687499997,68.0,76.0
998,185.77401594999998,186.22093386249998,65.0,70.0
999,185.77401594999998,186.22949550833332,73.0,75.0
1000,186.39045444999996,186.68326273749997,65.0,80.0
1001,186.59593394999996,186.85278332499996,68.0,53.0
1002,186.18497494999997,186.9949066458333,61.0,66.0
1003,185.97949544999997,187.09079707916663,56.0,63.0
1004,185.77401594999998,187.15072859999998,49.0,73.0
1005,186.80141344999998,187.18839984166664,70.0,70.0
1006,187.00689294999998,187.21922176666664,72.0,70.0
1007,187.21237244999998,187.50689306666663,73.0,61.0
1008,187.41785194999997,187.75175613749997,44.0,67.0
1009,187.62333144999997,187.80826299999998,51.0,63.0
1010,187.41785194999997,188.10792060416665,68.0,73.0
1011,187.82881094999996,188.13360554166664,56.0,48.0
1012,187.41785194999997,188.19353706249998,63.0,66.0
1013,187.41785194999997,188.21579734166664,72.0,73.0
1014,188.03429045,188.43155081666663,58.0,72.0
1015,188.23976994999998,188.4486741083333,60.0,66.0
1016,188.44524944999998,188.58908509999998,63.0,70.0
1017,188.65072894999997,188.87161941249997,68.0,62.0
1018,189.06168794999996,189.3579208958333,42.0,66.0
1019,189.26716744999996,189.45723598749998,49.0,55.0
1020,188.85620844999997,189.62675657499997,73.0,66.0
1021,189.47264694999998,189.78771551666665,54.0,54.0
1022,189.06168794999996,189.86819498749998,70.0,70.0
1023,189.06168794999996,189.90586622916663,66.0,70.0
1024,189.06168794999996,189.95038678749998,61.0,61.0
1025,189.88360594999997,190.1592909458333,58.0,61.0
1026,189.67812644999998,190.1747019083333,56.0,61.0
1027,190.08908544999997,190.28429097499998,61.0,75.0
1028,190.29456494999997,190.4880581458333,68.0,54.0
1029,190.50004444999996,190.77744177499997,72.0,75.0
1030,190.70552394999999,191.0223048458333,63.0,69.0
1031,190.70552394999999,191.03429114999997,68.0,76.0
1032,191.11648294999998,191.2791542208333,63.0,61.0
1033,190.91100344999998,191.76374337499996,60.0,63.0
1034,191.32196244999997,191.76716803333332,68.0,70.0
1035,190.70552394999999,192.04114069999997,53.0,69.0
1036,191.93840094999996,192.10278454999997,60.0,62.0
1037,191.73292144999996,192.16100374166663,72.0,72.0
1038,192.14388044999998,192.2808667833333,68.0,43.0
1039,192.34935994999998,192.54799013333331,61.0,62.0
1040,192.34935994999998,192.79799019166663,66.0,70.0
1041,192.34935994999998,192.82025047083332,70.0,70.0
1042,192.55483944999997,193.1592916458333,58.0,58.0
1043,192.76031894999997,193.38189443749997,63.0,66.0
1044,192.96579844999997,193.40244238749997,68.0,75.0
1045,193.37675744999999,193.5188807708333,70.0,72.0
1046,193.37675744999999,193.52059309999999,66.0,70.0
1047,192.34935994999998,193.60963421666665,51.0,64.0
1048,193.58223694999998,193.7089493083333,58.0,73.0
1049,193.99319594999997,194.2431960083333,63.0,63.0
1050,193.99319594999997,194.40073029166663,68.0,70.0
1051,194.60963444999996,194.8904564333333,68.0,63.0
1052,194.19867544999997,194.9110043833333,60.0,58.0
1053,194.40415494999996,194.97093590416665,65.0,73.0
1054,194.81511394999998,194.98120987916664,72.0,67.0
1055,193.99319594999997,195.14559347916665,53.0,60.0
1056,195.02059344999998,195.17984006249998,75.0,67.0
1057,195.22607294999997,195.4555250583333,77.0,67.0
1058,195.43155244999997,195.78257992916664,80.0,59.0
1059,195.63703194999997,195.79799089166664,73.0,67.0
1060,195.63703194999997,195.81682651249997,70.0,57.0
1061,196.25347044999998,196.54799106666664,58.0,66.0
1062,196.45894994999998,196.58908696666663,61.0,57.0
1063,196.04799094999998,196.64559382916664,54.0,63.0
1064,196.66442944999997,196.87675826666663,63.0,70.0
1065,195.63703194999997,196.9452514333333,42.0,70.0
1066,195.84251144999996,196.97264869999998,49.0,67.0
1067,196.86990894999997,196.9914843208333,54.0,70.0
1068,196.86990894999997,197.05484049999998,65.0,36.0
1069,197.28086794999996,197.37333372499998,63.0,78.0
1070,197.28086794999996,197.3767583833333,56.0,88.0
1071,197.28086794999996,197.3767583833333,60.0,80.0
1072,197.28086794999996,197.3767583833333,68.0,76.0
1073,197.28086794999996,197.39559400416664,44.0,73.0
1074,198.10278594999997,198.31340243749997,77.0,45.0
1075,198.30826544999996,198.5068956333333,75.0,60.0
1076,198.51374494999996,198.6969641708333,73.0,45.0
1077,198.71922444999998,198.93669025416665,72.0,39.0
1078,198.92470394999998,199.78943017916663,70.0,40.0
1079,199.74662194999996,200.0736768208333,65.0,44.0
1080,199.74662194999996,200.09080011249998,61.0,43.0
1081,199.74662194999996,200.09936175833332,58.0,44.0
1082,199.33566294999997,200.10792340416663,53.0,39.0
1083,198.92470394999998,200.20552616666663,46.0,55.0
1084,200.15758094999998,200.54799199999997,48.0,44.0
1085,200.15758094999998,200.5925125583333,63.0,61.0
1086,200.56853994999997,200.93326606249997,65.0,52.0
1087,200.56853994999997,200.9880605958333,61.0,50.0
1088,200.97949894999996,201.46408810416665,53.0,38.0
1089,201.39045794999998,201.76717036666665,61.0,53.0
1090,201.39045794999998,201.79456763333332,56.0,49.0
1091,201.39045794999998,201.88018409166665,65.0,55.0
1092,201.80141694999998,202.17641703749996,53.0,31.0
1093,200.56853994999997,202.21066362083332,49.0,43.0
1094,202.21237594999997,202.63532125416663,68.0,56.0
1095,202.21237594999997,202.66614317916662,60.0,54.0
1096,202.21237594999997,202.66956783749998,63.0,54.0
1097,202.21237594999997,203.52744474999997,44.0,61.0
1098,203.03429394999998,203.5565543458333,63.0,51.0
1099,203.03429394999998,203.5822392833333,60.0,51.0
1100,202.62333494999996,203.5976502458333,51.0,37.0
1101,203.03429394999998,203.61991052499997,68.0,57.0
1102,203.03429394999998,203.63018449999998,56.0,38.0
1103,203.85621194999996,204.2808695833333,61.0,48.0
1104,203.85621194999996,204.31511616666663,65.0,48.0
1105,204.26717094999998,204.64217103749996,63.0,57.0
1106,204.26717094999998,204.64902035416665,60.0,44.0
1107,204.67812994999997,205.0719656583333,61.0,60.0
1108,204.67812994999997,205.0822396333333,65.0,52.0
1109,204.26717094999998,205.10621224166664,53.0,40.0
1110,204.67812994999997,205.11648621666663,58.0,47.0
1111,203.85621194999996,205.1490204708333,46.0,46.0
1112,205.08908894999996,205.50004794999998,48.0,47.0
1113,205.50004794999998,205.90244530416663,63.0,56.0
1114,205.50004794999998,205.9298425708333,58.0,55.0
1115,205.47949999999997,205.95723983749997,66.0,26.0
1116,205.91100694999997,206.47778790416663,54.0,40.0
1117,206.32196594999996,206.76888386249996,66.0,49.0
1118,206.32196594999996,206.82710305416663,63.0,57.0
1119,206.32196594999996,206.85621264999997,58.0,45.0
1120,205.50004794999998,206.86819895416664,51.0,58.0
1121,206.73292494999998,207.1318976458333,53.0,48.0
1122,207.14388394999997,207.47778813749997,61.0,53.0
1123,207.14388394999997,207.51545937916663,66.0,49.0
1124,207.14388394999997,207.74148682916663,58.0,48.0
1125,207.14388394999997,207.82881561666665,54.0,60.0
1126,207.96580194999996,208.29456914999997,58.0,55.0
1127,207.96580194999996,208.3134047708333,66.0,58.0
1128,207.96580194999996,208.36991163333332,61.0,63.0
1129,208.37676094999998,208.88018572499996,41.0,48.0
1130,208.78771994999997,209.0531309708333,58.0,45.0
1131,208.37676094999998,209.1610077083333,65.0,41.0
1132,208.78771994999997,209.20895292499998,61.0,53.0
1133,209.19867894999996,209.63703521666665,63.0,61.0
1134,209.60963794999998,209.7106653708333,65.0,56.0
1135,210.02059694999997,210.3630627833333,68.0,47.0
1136,210.43155594999996,211.00861087916664,70.0,63.0
1137,211.25347394999997,211.34593972499997,77.0,54.0
1138,210.02059694999997,211.49148770416664,58.0,43.0
1139,209.60963794999998,211.5086109958333,53.0,49.0
1140,208.78771994999997,211.53772059166664,46.0,59.0
