,start,end,pitch,velocity
0,24.396178514583337,25.172464120833336,59.0,112.0
1,25.381938014583337,25.609210343750004,66.0,102.0
2,25.710524514583337,25.99256126041667,64.0,96.0
3,26.039111014583337,26.212988037500004,66.0,112.0
4,26.367697514583337,26.596338954166672,62.0,99.0
5,26.696284014583338,26.90849612916667,61.0,95.0
6,27.024870514583338,28.428208691666672,59.0,96.0
7,29.65356251458334,29.895895058333338,66.0,117.0
8,29.98214901458334,30.417526127083338,71.0,107.0
9,30.63932201458334,30.851534129166673,69.0,102.0
10,30.96790851458334,31.233515935416673,66.0,95.0
11,31.29649501458334,31.427929614583338,64.0,99.0
12,31.62508151458334,31.768838108333338,62.0,95.0
13,31.95366801458334,32.11385393333334,64.0,89.0
14,32.282254514583336,33.57195652708334,66.0,117.0
15,34.25377351458334,34.46872385,66.0,117.0
16,34.58236001458334,34.76171347916667,69.0,112.0
17,34.91094651458334,35.55032107916667,71.0,127.0
18,35.89670601458334,36.11302546041667,74.0,107.0
19,36.22529251458334,36.590844995833336,71.0,107.0
20,36.55387901458334,36.755138245833336,69.0,100.0
21,36.88246551458334,37.085093856250005,66.0,117.0
22,37.21105201458334,37.39588192083334,64.0,90.0
23,37.53963851458334,37.754588850000005,62.0,99.0
24,37.86822501458334,38.51444513125001,62.0,97.0
25,38.52539801458334,38.74171746041667,64.0,96.0
26,38.85398451458334,39.28662340625001,66.0,112.0
27,40.16833051458334,40.855623943750004,64.0,117.0
28,41.15409001458334,41.31701415416667,66.0,102.0
29,41.48267651458334,41.77566614375001,61.0,107.0
30,41.81126301458334,42.04538089583334,59.0,92.0
31,42.13984951458334,42.708030337500006,57.0,100.0
32,42.79702251458334,44.12369050833334,59.0,102.0
33,45.42571451458334,46.20200012083334,59.0,112.0
34,46.41147401458334,46.63874634375001,66.0,102.0
35,46.74006051458334,47.02209726041667,64.0,96.0
36,47.06864701458334,47.242524037500004,66.0,112.0
37,47.39723351458334,47.625874954166676,62.0,99.0
38,47.72582001458334,47.93803212916667,61.0,95.0
39,48.05440651458334,49.457744691666676,59.0,96.0
40,50.68309851458334,50.92543105833334,66.0,117.0
41,51.01168501458334,51.44706212708334,71.0,107.0
42,51.66885801458334,51.88107012916667,69.0,102.0
43,51.99744451458334,52.26305193541668,66.0,95.0
44,52.32603101458334,52.45746561458334,64.0,99.0
45,52.65461751458334,52.79837410833334,62.0,95.0
46,52.98320401458334,53.14338993333334,64.0,89.0
47,53.31179051458334,54.601492527083344,66.0,117.0
48,55.283309514583344,55.49825985000001,66.0,117.0
49,55.611896014583344,55.79124947916667,69.0,112.0
50,55.940482514583344,56.57985707916667,71.0,127.0
51,56.926242014583345,57.14256146041667,74.0,107.0
52,57.254828514583345,57.620380995833344,71.0,107.0
53,57.583415014583345,57.784674245833344,69.0,116.0
54,57.912001514583345,58.11462985625001,66.0,117.0
55,58.240588014583345,58.42541792083334,64.0,90.0
56,58.569174514583345,58.78412485000001,62.0,99.0
57,58.897761014583345,59.54398113125001,62.0,97.0
58,59.554934014583345,59.77125346041667,64.0,96.0
59,59.883520514583346,60.31615940625001,66.0,112.0
60,61.19786651458334,61.88515994375001,64.0,117.0
61,62.18362601458334,62.34655015416668,66.0,102.0
62,62.51221251458334,62.80520214375001,61.0,107.0
63,62.84079901458334,63.07491689583334,59.0,92.0
64,63.16938551458334,63.73756633750001,57.0,100.0
65,63.82655851458334,65.15322650833335,59.0,102.0
66,66.12666401458334,66.27863527083335,66.0,127.0
67,66.45525051458334,67.17814081458334,69.0,122.0
68,67.44101001458334,67.56286084166668,66.0,127.0
69,67.76959651458334,68.28438203125,66.0,127.0
70,68.75535601458334,68.90048171875002,66.0,112.0
71,69.08394251458334,69.57408404375,74.0,127.0
72,70.06970201458334,70.21208949791668,71.0,127.0
73,70.39828851458334,70.65294305208334,71.0,127.0
74,71.05546151458334,71.24576786250002,71.0,122.0
75,71.38404801458334,71.53328105000001,73.0,122.0
76,71.71263451458334,72.16170273125002,71.0,127.0
77,72.36980751458334,72.86816370625002,69.0,115.0
78,73.02698051458334,73.33503035833334,62.0,127.0
79,73.68415351458334,73.97029759166668,64.0,122.0
80,74.01274001458334,74.30436053333334,62.0,96.0
81,74.34132651458334,75.59953898750001,66.0,127.0
82,76.64143201458334,76.80572526458334,66.0,117.0
83,76.97001851458334,77.61623863125001,74.0,127.0
84,77.95577801458334,78.17072835,71.0,127.0
85,78.28436451458334,78.85939088958334,71.0,127.0
86,79.27012401458335,79.48644346041668,71.0,112.0
87,79.59871051458335,80.32707725625,74.0,127.0
88,80.58447001458335,80.78436013541668,76.0,127.0
89,80.91305651458335,82.54366702083334,78.0,127.0
90,82.88457551458335,83.13238450000001,78.0,127.0
91,83.21316201458335,83.39662281041667,76.0,93.0
92,83.54174851458335,84.19481418333335,73.0,112.0
93,84.52750801458335,84.74930390208334,69.0,107.0
94,84.85609451458335,86.23615781458335,71.0,117.0
95,87.48478651458335,88.26107212083335,59.0,112.0
96,88.47054601458335,88.69781834375001,66.0,102.0
97,88.79913251458335,89.08116926041669,64.0,96.0
98,89.12771901458335,89.30159603750002,66.0,112.0
99,89.45630551458335,89.68494695416668,62.0,99.0
100,89.78489201458335,89.99710412916669,61.0,95.0
101,90.11347851458335,91.51681669166668,59.0,96.0
102,92.74217051458335,92.98450305833335,66.0,117.0
103,93.07075701458335,93.50613412708334,71.0,107.0
104,93.72793001458335,93.94014212916667,69.0,102.0
105,94.05651651458335,94.32212393541668,66.0,95.0
106,94.38510301458335,94.51653761458334,64.0,99.0
107,94.71368951458335,94.85744610833335,62.0,95.0
108,95.04227601458335,95.20246193333335,64.0,89.0
109,95.37086251458335,96.66056452708335,66.0,117.0
110,97.34238151458335,97.55733185000001,66.0,117.0
111,97.67096801458335,97.85032147916668,69.0,112.0
112,97.99955451458335,98.63892907916669,71.0,127.0
113,98.98531401458335,99.20163346041669,74.0,107.0
114,99.31390051458335,99.67945299583334,71.0,107.0
115,99.64248701458335,99.84374624583334,69.0,100.0
116,99.97107351458335,100.17370185625002,66.0,117.0
117,100.29966001458335,100.48448992083335,64.0,90.0
118,100.62824651458335,100.84319685000001,62.0,99.0
119,100.95683301458335,101.60305313125002,62.0,97.0
120,101.61400601458335,101.83032546041669,64.0,96.0
121,101.94259251458335,102.37523140625001,66.0,112.0
122,103.25693851458335,103.94423194375001,64.0,117.0
123,104.24269801458335,104.40562215416668,66.0,102.0
124,104.57128451458335,104.86427414375001,61.0,107.0
125,104.89987101458335,105.13398889583335,59.0,92.0
126,105.22845751458335,105.79663833750001,57.0,100.0
127,105.88563051458335,107.21229850833335,59.0,102.0
128,129.21527201458335,129.36724327083334,66.0,127.0
129,129.54385851458335,130.26674881458337,69.0,122.0
130,130.52961801458335,130.65146884166668,66.0,127.0
131,130.85820451458335,131.37299003125003,66.0,127.0
132,131.84396401458335,131.98908971875002,66.0,112.0
133,132.17255051458335,132.66269204375,74.0,127.0
134,133.15831001458335,133.30069749791667,71.0,127.0
135,133.48689651458335,133.74155105208337,71.0,127.0
136,134.14406951458335,134.33437586250002,71.0,122.0
137,134.47265601458335,134.62188905000002,73.0,122.0
138,134.80124251458335,135.25031073125,71.0,127.0
139,135.45841551458335,135.95677170625,69.0,115.0
140,136.11558851458335,136.42363835833336,62.0,127.0
141,136.77276151458335,137.0589055916667,64.0,122.0
142,137.10134801458335,137.39296853333335,62.0,96.0
143,137.42993451458335,138.68814698750003,66.0,127.0
144,139.73004001458335,139.89433326458337,66.0,117.0
145,140.05862651458335,140.70484663125,74.0,127.0
146,141.04438601458335,141.25933635,71.0,127.0
147,141.37297251458335,141.94799888958335,71.0,127.0
148,142.35873201458335,142.5750514604167,71.0,112.0
149,142.68731851458335,143.41568525625001,74.0,127.0
150,143.67307801458335,143.8729681354167,76.0,127.0
151,144.00166451458335,145.63227502083336,78.0,127.0
152,145.97318351458335,146.22099250000002,78.0,127.0
153,146.30177001458335,146.48523081041668,76.0,93.0
154,146.63035651458335,147.28342218333336,73.0,112.0
155,147.61611601458335,147.83791190208336,69.0,107.0
156,147.94470251458335,149.32476581458334,71.0,117.0
157,150.57339451458336,151.34968012083337,59.0,112.0
158,151.55915401458336,151.78642634375,66.0,102.0
159,151.88774051458336,152.16977726041668,64.0,96.0
160,152.21632701458336,152.3902040375,66.0,112.0
161,152.54491351458336,152.77355495416668,62.0,99.0
162,152.87350001458336,153.0857121291667,61.0,95.0
163,153.20208651458336,154.60542469166668,59.0,96.0
164,155.83077851458336,156.07311105833335,66.0,117.0
165,156.15936501458336,156.59474212708335,71.0,107.0
166,156.81653801458336,157.0287501291667,69.0,102.0
167,157.14512451458336,157.4107319354167,66.0,95.0
168,157.47371101458336,157.60514561458336,64.0,99.0
169,157.80229751458336,157.94605410833336,62.0,95.0
170,158.13088401458336,158.29106993333335,64.0,89.0
171,158.45947051458336,159.74917252708335,66.0,117.0
172,160.43098951458336,160.64593985000002,66.0,117.0
173,160.75957601458336,160.9389294791667,69.0,112.0
174,161.08816251458336,161.7275370791667,71.0,127.0
175,162.07392201458336,162.2902414604167,74.0,107.0
176,162.40250851458336,162.76806099583337,71.0,107.0
177,162.73109501458336,162.93235424583335,69.0,100.0
178,163.05968151458336,163.26230985625003,66.0,117.0
179,163.38826801458336,163.57309792083336,64.0,90.0
180,163.71685451458336,163.93180485000002,62.0,99.0
181,164.04544101458336,164.69166113125002,62.0,97.0
182,164.70261401458336,164.9189334604167,64.0,96.0
183,165.03120051458336,165.46383940625003,66.0,112.0
184,166.34554651458336,167.03283994375002,64.0,117.0
185,167.33130601458336,167.4942301541667,66.0,102.0
186,167.65989251458336,167.95288214375003,73.0,107.0
187,167.98847901458336,168.22259689583336,71.0,92.0
188,168.31706551458336,168.88524633750004,69.0,100.0
189,168.97423851458336,170.30090650833336,71.0,102.0
