,start,end,pitch,velocity
0,3.366642514583334,7.301465852083334,47.0,67.0
1,3.366642514583334,8.428243725000002,59.0,72.0
2,3.366642514583334,8.44467305,62.0,74.0
3,3.366642514583334,8.4528877125,66.0,72.0
4,8.624026514583335,8.693851145833335,66.0,58.0
5,8.624026514583335,8.693851145833335,66.0,127.0
6,8.624026514583335,8.699327587500001,59.0,27.0
7,8.624026514583335,8.699327587500001,59.0,107.0
8,8.788319764583335,8.855406175,66.0,97.0
9,8.788319764583335,8.863620837500001,59.0,89.0
10,8.952613014583335,9.08130939375,66.0,117.0
11,8.952613014583335,9.085416725000002,59.0,100.0
12,9.609786014583335,9.680979756250002,66.0,127.0
13,9.609786014583335,9.689194418750002,59.0,107.0
14,9.774079264583335,9.842534785416667,66.0,117.0
15,9.774079264583335,9.854856779166669,59.0,97.0
16,9.938372514583335,10.087605550000001,59.0,107.0
17,9.938372514583335,10.087605550000001,66.0,117.0
18,11.252718514583336,11.325281366666669,59.0,117.0
19,11.252718514583336,11.325281366666669,66.0,122.0
20,11.417011764583336,11.485467285416668,66.0,107.0
21,11.417011764583336,11.495051058333335,59.0,107.0
22,11.581305014583336,11.699048510416668,59.0,99.0
23,11.581305014583336,11.703155841666668,66.0,107.0
24,12.238478014583334,12.312409977083336,66.0,127.0
25,12.238478014583334,12.315148197916669,59.0,112.0
26,12.402771264583334,12.469857675000002,66.0,102.0
27,12.402771264583334,12.480810558333335,59.0,95.0
28,12.567064514583334,12.708082887500002,66.0,127.0
29,12.567064514583334,12.712190218750003,59.0,99.0
30,8.624026514583335,13.388530764583335,47.0,51.0
31,8.624026514583335,13.582944443750002,62.0,58.0
32,13.881410514583335,18.52954037916667,42.0,63.0
33,13.881410514583335,18.571982802083337,61.0,73.0
34,13.881410514583335,18.588412127083338,66.0,76.0
35,13.881410514583335,18.604841452083335,58.0,72.0
36,13.881410514583335,18.60757967291667,54.0,66.0
37,19.138794514583335,19.209988256250004,59.0,63.0
38,19.138794514583335,19.209988256250004,59.0,112.0
39,19.138794514583335,19.212726477083336,66.0,62.0
40,19.138794514583335,19.212726477083336,66.0,127.0
41,19.303087764583335,19.374281506250004,66.0,93.0
42,19.303087764583335,19.37975794791667,59.0,90.0
43,19.467381014583335,19.555004081250004,66.0,127.0
44,19.467381014583335,19.561849633333335,59.0,107.0
45,20.124554014583335,20.19711686666667,66.0,122.0
46,20.124554014583335,20.202593308333338,59.0,107.0
47,20.288847264583335,20.360041006250004,59.0,95.0
48,20.288847264583335,20.36551744791667,66.0,107.0
49,20.453140514583335,20.55034735416667,59.0,96.0
50,20.453140514583335,20.564038458333336,66.0,117.0
51,21.767486514583336,21.82772737291667,59.0,99.0
52,21.767486514583336,21.842787587500002,66.0,112.0
53,21.931779764583336,22.001604395833336,66.0,97.0
54,21.931779764583336,22.007080837500002,59.0,97.0
55,22.096073014583336,22.18506519166667,59.0,100.0
56,22.096073014583336,22.186434302083338,66.0,117.0
57,22.753246014583336,22.820332425000004,59.0,100.0
58,22.753246014583336,22.831285308333335,66.0,127.0
59,22.917539264583336,22.980518343750003,59.0,89.0
60,22.917539264583336,22.983256564583336,66.0,112.0
61,23.081832514583336,23.188623127083336,59.0,112.0
62,23.081832514583336,23.214636225000003,66.0,127.0
63,19.138794514583335,24.282542350000003,62.0,69.0
64,19.138794514583335,24.29349523333334,47.0,65.0
65,24.724765014583337,25.761181600000004,54.0,46.0
66,25.053351514583337,25.958333500000006,59.0,47.0
67,26.367697514583337,26.855100822916672,62.0,96.0
68,24.396178514583337,26.91807990208334,47.0,74.0
69,25.381938014583337,27.019394072916672,66.0,95.0
70,26.039111014583337,27.083742262500003,54.0,56.0
71,26.696284014583338,27.10564802916667,61.0,64.0
72,27.353457014583338,28.357014950000003,54.0,56.0
73,27.682043514583338,28.565119733333336,59.0,47.0
74,27.024870514583338,29.22913828541667,47.0,64.0
75,28.66780301458334,29.65356251458334,54.0,52.0
76,29.32497601458334,29.65356251458334,61.0,60.0
77,28.99638951458334,29.65356251458334,62.0,96.0
78,28.010630014583338,29.65356251458334,66.0,96.0
79,30.31073551458334,31.107557777083336,50.0,69.0
80,30.63932201458334,31.384118081250005,57.0,63.0
81,29.65356251458334,32.119330375000004,38.0,82.0
82,29.98214901458334,32.295945618750004,45.0,65.0
83,31.29649501458334,32.398628900000006,50.0,54.0
84,30.96790851458334,32.70120230208334,66.0,112.0
85,31.95366801458334,32.78334892708334,57.0,76.0
86,31.62508151458334,33.128364752083336,62.0,61.0
87,32.939427514583336,33.78279953125001,50.0,55.0
88,33.268014014583336,33.83345661666667,57.0,53.0
89,32.282254514583336,34.16204311666667,38.0,56.0
90,32.610841014583336,34.20311642916667,45.0,52.0
91,33.92518701458334,34.290739495833336,50.0,60.0
92,33.596600514583336,34.77677369375,66.0,127.0
93,34.25377351458334,34.890409858333335,62.0,86.0
94,34.58236001458334,34.90683918333334,57.0,82.0
95,34.91094651458334,35.63109859375,43.0,85.0
96,35.23953301458334,35.674910127083336,55.0,72.0
97,35.56811951458334,36.17052809791667,62.0,112.0
98,35.89670601458334,36.17463542916667,59.0,72.0
99,36.22529251458334,37.026222108333336,40.0,85.0
100,36.55387901458334,37.12753627916667,47.0,45.0
101,36.88246551458334,37.532792962500004,59.0,82.0
102,37.21105201458334,37.58071182708334,67.0,92.0
103,38.19681151458334,38.61849752291667,59.0,67.0
104,38.52539801458334,38.90601071041667,66.0,102.0
105,37.86822501458334,39.04702908333334,54.0,55.0
106,38.85398451458334,39.394783129166676,62.0,86.0
107,39.18257101458334,39.61384079583334,54.0,67.0
108,37.53963851458334,39.643961225000005,47.0,77.0
109,39.51115751458334,39.8821864375,62.0,81.0
110,39.83974401458334,40.25732269166667,61.0,66.0
111,40.49691701458334,41.33207436875001,52.0,63.0
112,40.82550351458334,41.54428648333334,57.0,69.0
113,41.81126301458334,42.11794374791667,52.0,45.0
114,41.48267651458334,42.19324482083334,61.0,92.0
115,40.16833051458334,42.19872126250001,45.0,70.0
116,42.13984951458334,42.79702251458334,57.0,83.0
117,42.46843601458334,42.79702251458334,61.0,45.0
118,41.15409001458334,42.79702251458334,64.0,81.0
119,43.45419551458334,43.82796265833334,61.0,73.0
120,43.12560901458334,44.14696538541667,54.0,89.0
121,43.78278201458334,44.643952466666676,66.0,90.0
122,42.79702251458334,44.82467504166667,47.0,86.0
123,44.76854151458334,45.05331648125001,62.0,97.0
124,44.43995501458334,45.32303123333334,54.0,62.0
125,45.09712801458334,45.57084021875001,61.0,67.0
126,45.42571451458334,45.63381929791667,47.0,92.0
127,46.08288751458334,46.81125425625001,59.0,74.0
128,46.41147401458334,46.91804486875001,54.0,71.0
129,47.39723351458334,47.69433047500001,62.0,100.0
130,45.75430101458334,47.76415510625001,47.0,99.0
131,46.74006051458334,47.81618130208334,66.0,100.0
132,47.06864701458334,48.00101120833334,54.0,81.0
133,48.05440651458334,48.16393534791668,47.0,82.0
134,48.38299301458334,48.68967374791667,66.0,1.0
135,47.72582001458334,48.721163287500005,61.0,83.0
136,49.04016601458334,49.519354660416674,59.0,63.0
137,48.71157951458334,49.59602484375001,54.0,95.0
138,49.69733901458334,49.998543306250006,54.0,100.0
139,48.38299301458334,50.154621893750004,47.0,88.0
140,50.02592551458334,50.42707486666667,59.0,78.0
141,49.36875251458334,50.772090691666676,66.0,112.0
142,50.68309851458334,50.799472900000005,38.0,93.0
143,50.35451201458334,51.17871648541667,61.0,107.0
144,51.66885801458334,52.208287518750005,45.0,58.0
145,51.34027151458334,52.300017916666675,57.0,93.0
146,51.01168501458334,53.10368573125001,38.0,86.0
147,52.32603101458334,53.215952785416675,45.0,89.0
148,53.31179051458334,53.42131934791667,38.0,93.0
149,51.99744451458334,53.72663097083334,66.0,117.0
150,52.65461751458334,53.73210741250001,62.0,66.0
151,52.98320401458334,53.75264406875001,57.0,90.0
152,54.297550014583344,54.790429764583344,50.0,52.0
153,53.64037701458334,55.272356631250005,38.0,89.0
154,53.96896351458334,55.318906385416675,45.0,82.0
155,54.954723014583344,55.494152518750006,50.0,63.0
156,54.626136514583344,55.71457929583334,66.0,117.0
157,55.283309514583344,55.78440392708334,62.0,92.0
158,55.611896014583344,56.045904016666675,57.0,93.0
159,55.940482514583344,56.080131777083345,43.0,93.0
160,56.269069014583344,56.93445667708334,43.0,74.0
161,56.597655514583344,57.243875631250006,62.0,100.0
162,56.926242014583345,57.28494894375001,59.0,83.0
163,57.254828514583345,58.099569641666676,40.0,86.0
164,57.583415014583345,58.13105918125001,47.0,52.0
165,58.240588014583345,58.53768497500001,55.0,93.0
166,57.912001514583345,58.55274518958334,64.0,90.0
167,58.569174514583345,58.69102534166667,47.0,85.0
168,59.226347514583345,60.09436351875001,54.0,83.0
169,59.554934014583345,60.284669866666675,59.0,54.0
170,60.212107014583346,60.579028606250006,54.0,92.0
171,58.897761014583345,60.62010191875001,47.0,63.0
172,59.883520514583346,60.86928001458334,66.0,122.0
173,60.540693514583346,61.08012301875001,62.0,83.0
174,60.86928001458334,61.19786651458334,59.0,100.0
175,61.85503951458334,62.445126104166675,57.0,75.0
176,61.52645301458334,62.65186177708334,52.0,72.0
177,62.51221251458334,63.24879391875001,61.0,117.0
178,61.19786651458334,63.28165256875001,45.0,89.0
179,62.84079901458334,63.48701913125001,52.0,72.0
180,63.16938551458334,63.61571551041668,57.0,90.0
181,63.49797201458334,63.79506897500001,61.0,100.0
182,62.18362601458334,63.84435695000001,64.0,93.0
183,63.82655851458334,63.94430201041668,47.0,93.0
184,64.81231801458334,65.32162708958334,59.0,45.0
185,64.48373151458334,65.36543862291667,54.0,63.0
186,64.15514501458334,66.37447300000001,47.0,93.0
187,65.46949101458334,66.3826876625,54.0,93.0
188,65.79807751458334,66.42376097500001,62.0,62.0
189,65.14090451458334,66.42786830625,66.0,122.0
190,66.12666401458334,66.44429763125001,59.0,58.0
191,66.45525051458334,67.47660688541667,38.0,95.0
192,67.11242351458334,67.5327404125,66.0,112.0
193,66.78383701458334,67.59708860208335,45.0,69.0
194,67.44101001458334,67.69977188333334,62.0,65.0
195,67.76959651458334,67.87364890625001,62.0,93.0
196,67.76959651458334,67.88460178958334,57.0,81.0
197,67.76959651458334,67.88460178958334,66.0,99.0
198,67.76959651458334,67.90103111458335,38.0,78.0
199,68.09818301458334,68.18443697083335,57.0,68.0
200,68.09818301458334,68.18717519166668,66.0,73.0
201,68.09818301458334,68.19675896458334,62.0,75.0
202,68.09818301458334,68.20771184791667,38.0,63.0
203,68.42676951458334,68.66910205833334,38.0,93.0
204,68.42676951458334,68.81559687291667,62.0,99.0
205,68.42676951458334,68.83202619791668,57.0,93.0
206,68.42676951458334,68.88952883541668,66.0,122.0
207,69.74111551458334,70.18196906875,66.0,127.0
208,69.08394251458334,70.25042458958335,47.0,92.0
209,69.41252901458334,70.31477277916667,54.0,99.0
210,70.06970201458334,70.33257121458334,62.0,97.0
211,70.39828851458334,70.465374925,47.0,52.0
212,70.39828851458334,70.47222047708334,62.0,69.0
213,70.39828851458334,70.50644823750001,59.0,66.0
214,70.39828851458334,70.51055556875001,54.0,88.0
215,70.39828851458334,70.52424667291668,66.0,83.0
216,70.72687501458334,70.80080697708334,62.0,83.0
217,70.72687501458334,70.80354519791668,59.0,75.0
218,70.72687501458334,70.81312897083335,47.0,70.0
219,70.72687501458334,70.81586719166668,66.0,92.0
220,70.72687501458334,70.82271274375002,54.0,97.0
221,71.05546151458334,71.55244859583334,47.0,85.0
222,71.05546151458334,71.57161614166668,54.0,100.0
223,71.05546151458334,71.64691721458334,62.0,99.0
224,71.05546151458334,71.67293031250001,66.0,117.0
225,71.05546151458334,71.70578896250001,59.0,89.0
226,71.71263451458334,72.51904055000001,45.0,96.0
227,72.04122101458334,72.67648824791668,52.0,53.0
228,72.36980751458334,73.41033143125001,64.0,102.0
229,72.69839401458334,73.41854609375001,61.0,99.0
230,73.35556701458334,73.91142584375001,52.0,97.0
231,73.02698051458334,73.98809602708334,45.0,85.0
232,74.01274001458334,74.30846786458335,61.0,122.0
233,73.68415351458334,74.35912495000001,64.0,102.0
234,74.34132651458334,75.5173923625,38.0,89.0
235,74.66991301458334,75.55572745416667,45.0,88.0
236,75.65567251458334,75.76793956875001,38.0,86.0
237,75.98425901458334,76.09789517916668,38.0,82.0
238,74.99849951458334,76.11569361458335,66.0,117.0
239,75.32708601458334,76.14307582291667,57.0,93.0
240,76.31284551458334,76.39225391875001,57.0,69.0
241,76.31284551458334,76.64553934583334,38.0,100.0
242,76.31284551458334,77.00287716458334,62.0,102.0
243,76.31284551458334,77.10008400416667,66.0,127.0
244,76.97001851458334,78.13786970000001,47.0,92.0
245,77.29860501458334,78.21727810416668,54.0,97.0
246,78.28436451458334,78.39663156875001,54.0,96.0
247,78.28436451458334,78.41169178333334,47.0,79.0
248,78.61295101458334,78.68551386666668,47.0,78.0
249,78.61295101458334,78.72384895833335,54.0,107.0
250,77.95577801458334,79.04285168541668,62.0,100.0
251,77.62719151458334,79.06475745208334,66.0,127.0
252,78.94153751458335,79.4111423875,54.0,127.0
253,78.94153751458335,79.42209527083334,47.0,96.0
254,79.27012401458335,79.55352987083334,66.0,127.0
255,79.59871051458335,80.40374743958334,43.0,102.0
256,79.92729701458335,80.421545875,55.0,58.0
257,80.58447001458335,80.72548838750001,64.0,96.0
258,80.58447001458335,80.76793081041667,60.0,107.0
259,80.58447001458335,80.78983657708335,55.0,97.0
260,80.58447001458335,80.80352768125002,48.0,117.0
261,80.91305651458335,84.65072795208334,42.0,71.0
262,80.91305651458335,84.68769393333335,49.0,100.0
263,80.91305651458335,84.70959970000001,54.0,90.0
264,80.91305651458335,84.72465991458334,61.0,107.0
265,80.91305651458335,84.73150546666668,58.0,97.0
266,80.91305651458335,84.73150546666668,66.0,88.0
267,85.18468101458335,85.36129625833334,47.0,56.0
268,85.18468101458335,85.36814181041667,62.0,63.0
269,85.18468101458335,85.37088003125001,66.0,56.0
270,85.18468101458335,85.38594024583334,59.0,55.0
271,85.51326751458335,85.70357386250001,47.0,66.0
272,85.51326751458335,85.74327806458335,59.0,63.0
273,85.51326751458335,85.74464717500001,62.0,65.0
274,85.51326751458335,85.75149272708335,66.0,63.0
275,85.84185401458335,86.02394570000001,62.0,67.0
276,85.84185401458335,86.03216036250001,47.0,79.0
277,85.84185401458335,86.03352947291668,59.0,69.0
278,85.84185401458335,86.04311324583334,66.0,66.0
279,86.17044051458335,86.36896152500002,62.0,95.0
280,86.17044051458335,86.37033063541668,47.0,93.0
281,86.17044051458335,86.37854529791667,59.0,85.0
282,86.17044051458335,86.38402173958335,66.0,82.0
283,86.49902701458335,86.66332026458335,47.0,85.0
284,86.49902701458335,86.68933336250001,66.0,72.0
285,86.49902701458335,86.69070247291668,59.0,74.0
286,86.49902701458335,86.69344069375002,62.0,81.0
287,86.82761351458335,86.98779943333335,47.0,99.0
288,86.82761351458335,87.00149053750002,59.0,88.0
289,86.82761351458335,87.00285964791668,62.0,96.0
290,86.82761351458335,87.00833608958335,66.0,95.0
291,87.15620001458335,87.33281525833334,62.0,95.0
292,87.15620001458335,87.35198280416668,66.0,99.0
293,87.15620001458335,87.35745924583334,59.0,85.0
294,87.15620001458335,87.37525768125002,47.0,107.0
295,87.48478651458335,88.34595696666668,47.0,93.0
296,87.81337301458335,88.40893604583334,54.0,86.0
297,88.47054601458335,88.60471883541668,47.0,74.0
298,88.14195951458335,89.0880148125,66.0,122.0
299,88.79913251458335,89.99847323958335,47.0,99.0
300,89.12771901458335,90.14770627500002,59.0,72.0
301,89.45630551458335,90.20520891250001,66.0,112.0
302,89.78489201458335,90.20794713333335,62.0,93.0
303,90.11347851458335,90.94726675833334,47.0,90.0
304,91.09923801458335,91.22245795208335,47.0,81.0
305,90.44206501458335,91.50586380833334,59.0,57.0
306,90.77065151458335,91.54967534166668,66.0,112.0
307,91.42782451458335,91.98642156458335,47.0,93.0
308,91.75641101458335,92.41358401458335,59.0,96.0
309,92.08499751458335,92.70794275416668,54.0,86.0
310,92.41358401458335,92.83800824375001,66.0,112.0
311,92.74217051458335,93.56226765416667,50.0,96.0
312,93.72793001458335,93.84978084166669,50.0,89.0
313,93.39934351458335,94.14550869166668,66.0,112.0
314,93.07075701458335,94.15783068541668,57.0,76.0
315,94.05651651458335,94.85470788750001,50.0,97.0
316,94.71368951458335,95.17371061458334,66.0,117.0
317,95.04227601458335,95.38455361875002,62.0,97.0
318,94.38510301458335,95.48586778958335,57.0,79.0
319,95.37086251458335,96.18274499166668,38.0,81.0
320,96.35662201458335,96.49079483541668,38.0,83.0
321,96.68520851458335,97.03706989166668,38.0,77.0
322,95.69944901458335,97.07266676250002,57.0,69.0
323,96.02803551458335,97.08909608750001,66.0,127.0
324,97.01379501458335,97.54637896666668,45.0,95.0
325,97.34238151458335,97.95985031250001,66.0,122.0
326,97.67096801458335,97.97217230625002,62.0,93.0
327,98.32814101458335,98.84292653125001,50.0,57.0
328,97.99955451458335,98.84429564166668,43.0,83.0
329,98.65672751458335,99.27419631250001,62.0,117.0
330,98.98531401458335,99.43575134166669,55.0,99.0
331,99.31390051458335,100.11756832916669,40.0,86.0
332,99.64248701458335,100.23257360416669,47.0,65.0
333,99.97107351458335,100.56800565625001,64.0,100.0
334,100.29966001458335,100.60086430625002,55.0,99.0
335,100.62824651458335,101.45929653750001,47.0,82.0
336,100.95683301458335,101.50858451250002,54.0,90.0
337,101.61400601458335,101.75091705625002,47.0,97.0
338,101.28541951458335,102.42178116041669,66.0,117.0
339,101.94259251458335,102.85852738333335,47.0,72.0
340,102.27117901458335,102.86126560416668,54.0,66.0
341,102.59976551458335,103.23640185833335,66.0,117.0
342,102.92835201458335,103.28158250208335,62.0,88.0
343,103.25693851458335,104.44669546666668,45.0,76.0
344,103.58552501458335,104.48639966875001,52.0,70.0
345,103.91411151458335,104.64658558750001,64.0,96.0
346,104.24269801458335,104.69039712083335,61.0,100.0
347,104.57128451458335,105.36673766666668,45.0,92.0
348,104.89987101458335,105.66931106875002,57.0,88.0
349,105.55704401458335,105.84592631250001,61.0,96.0
350,105.22845751458335,105.88563051458335,64.0,107.0
351,105.88563051458335,108.40342457083335,47.0,69.0
352,105.88563051458335,108.45271254583335,54.0,92.0
353,105.88563051458335,108.50063141041669,66.0,99.0
354,105.88563051458335,108.51021518333334,59.0,90.0
355,105.88563051458335,108.51432251458336,62.0,107.0
356,108.51432251458336,108.60742202291668,62.0,88.0
357,108.51432251458336,108.61152935416668,66.0,86.0
358,108.51432251458336,108.61700579583335,59.0,78.0
359,108.51432251458336,108.61837490625001,47.0,61.0
360,108.51432251458336,108.65123355625002,54.0,73.0
361,108.84290901458336,110.55018970416668,66.0,95.0
362,110.48584151458336,110.55018970416668,66.0,122.0
363,108.84290901458336,110.55977347708335,59.0,81.0
364,110.48584151458336,110.55977347708335,59.0,112.0
365,110.65013476458336,110.71722117500002,66.0,97.0
366,110.65013476458336,110.72406672708335,59.0,76.0
367,110.81442801458336,110.87603798333335,66.0,99.0
368,110.81442801458336,110.88151442500002,59.0,85.0
369,108.84290901458336,110.97735215416668,47.0,71.0
370,110.97872126458336,110.98693592708335,59.0,89.0
371,108.84290901458336,111.00747258333335,54.0,95.0
372,108.84290901458336,111.01568724583335,62.0,97.0
373,110.97872126458336,111.02664012916668,66.0,117.0
374,111.14301451458336,111.22379202916669,59.0,71.0
375,111.14301451458336,111.23200669166668,62.0,85.0
376,111.14301451458336,111.23885224375002,47.0,55.0
377,111.14301451458336,111.24159046458335,66.0,86.0
378,111.14301451458336,111.26623445208335,54.0,69.0
379,111.47160101458336,113.03375600000001,54.0,99.0
380,111.47160101458336,113.10221152083335,47.0,75.0
381,111.47160101458336,113.19120369791668,66.0,96.0
382,113.11453351458336,113.19120369791668,66.0,122.0
383,111.47160101458336,113.19257280833335,59.0,83.0
384,113.11453351458336,113.19257280833335,59.0,107.0
385,113.27882676458336,113.35002050625002,66.0,82.0
386,113.27882676458336,113.36371161041669,59.0,79.0
387,113.44312001458336,113.50746820416668,66.0,96.0
388,113.44312001458336,113.51979019791668,59.0,81.0
389,111.47160101458336,113.61562792708335,62.0,96.0
390,113.60741326458336,113.67723789583334,66.0,100.0
391,113.60741326458336,113.68408344791668,59.0,99.0
392,113.77170651458336,113.87438979583335,67.0,76.0
393,113.77170651458336,113.88123534791669,59.0,76.0
394,113.77170651458336,113.88397356875002,40.0,72.0
395,113.77170651458336,113.88534267916668,64.0,79.0
396,113.77170651458336,113.89492645208335,47.0,86.0
397,114.10029301458334,115.81305014583334,64.0,90.0
398,115.74322551458334,115.81305014583334,64.0,102.0
399,115.74322551458334,115.81305014583334,71.0,97.0
400,115.90751876458334,115.98145072708336,71.0,78.0
401,115.90751876458334,115.98692716875001,64.0,78.0
402,116.07181201458334,116.14300575625002,71.0,92.0
403,116.07181201458334,116.14985130833335,64.0,82.0
404,114.10029301458334,116.20872305625002,40.0,66.0
405,114.10029301458334,116.20872305625002,47.0,78.0
406,114.10029301458334,116.28265501875002,67.0,89.0
407,114.10029301458334,116.28539323958336,59.0,88.0
408,116.23610526458334,116.28676235000002,64.0,95.0
409,116.23610526458334,116.31277544791668,71.0,97.0
410,116.40039851458334,116.48939069166669,40.0,62.0
411,116.40039851458334,116.49349802291668,47.0,67.0
412,116.40039851458334,116.49349802291668,67.0,79.0
413,116.40039851458334,116.49623624375002,64.0,82.0
414,116.40039851458334,116.50308179583335,52.0,77.0
415,116.40039851458334,116.50445090625001,59.0,81.0
416,116.72898501458334,117.98719748750001,52.0,76.0
417,116.72898501458334,118.35274996875002,40.0,66.0
418,116.72898501458334,118.38834683958335,47.0,76.0
419,116.72898501458334,118.43078926250001,64.0,86.0
420,118.37191751458334,118.43078926250001,64.0,99.0
421,118.37191751458334,118.43626570416669,71.0,100.0
422,118.53621076458334,118.60603539583335,71.0,85.0
423,118.53621076458334,118.61014272708336,64.0,83.0
424,116.72898501458334,118.64847781875002,67.0,83.0
425,116.72898501458334,118.68681291041669,59.0,85.0
426,118.70050401458334,118.76074487291669,71.0,92.0
427,118.70050401458334,118.76759042500002,64.0,89.0
428,118.86479726458334,118.92503812291669,71.0,97.0
429,118.86479726458334,118.93462189583335,64.0,95.0
430,119.02909051458334,119.14820312083336,61.0,92.0
431,119.02909051458334,119.14957223125002,57.0,76.0
432,119.02909051458334,119.15367956250002,45.0,95.0
433,119.02909051458334,119.15367956250002,64.0,82.0
434,119.35767701458334,120.45981090000002,57.0,76.0
435,119.35767701458334,120.78839740000002,64.0,82.0
436,119.35767701458334,120.79935028333335,61.0,93.0
437,121.00060951458335,121.05263571041668,61.0,117.0
438,120.67202301458335,121.05811215208335,57.0,46.0
439,121.00060951458335,121.05811215208335,57.0,95.0
440,121.00060951458335,121.05811215208335,64.0,96.0
441,121.00060951458335,121.05811215208335,64.0,96.0
442,121.16490276458335,121.22240540208335,61.0,90.0
443,121.16490276458335,121.22514362291669,64.0,75.0
444,121.16490276458335,121.24157294791668,57.0,79.0
445,121.32919601458335,121.37711487916668,61.0,33.0
446,121.32919601458335,121.37711487916668,61.0,95.0
447,121.32919601458335,121.39217509375001,64.0,83.0
448,121.32919601458335,121.39902064583335,57.0,88.0
449,119.35767701458334,121.46884527708335,45.0,86.0
450,121.49348926458335,121.52908613541669,64.0,90.0
451,121.49348926458335,121.54825368125002,61.0,107.0
452,120.34343651458335,121.55646834375001,52.0,64.0
453,121.49348926458335,121.56605211666668,57.0,96.0
454,121.65778251458335,121.75772757500002,45.0,60.0
455,121.65778251458335,121.76183490625002,57.0,77.0
456,121.65778251458335,121.76457312708335,52.0,63.0
457,121.65778251458335,121.77004956875003,64.0,67.0
458,121.65778251458335,121.77141867916669,61.0,69.0
459,121.98636901458335,123.50334335625001,64.0,79.0
460,121.98636901458335,123.54304755833336,61.0,99.0
461,121.98636901458335,123.56495332500002,57.0,82.0
462,123.62930151458335,123.67037482708335,61.0,122.0
463,123.62930151458335,123.68132771041668,57.0,34.0
464,123.62930151458335,123.68132771041668,57.0,100.0
465,121.98636901458335,123.68269682083336,45.0,73.0
466,123.62930151458335,123.68406593125002,64.0,96.0
467,123.62930151458335,123.68406593125002,64.0,99.0
468,121.98636901458335,123.80728586875001,52.0,85.0
469,123.79359476458335,123.85246651250002,61.0,92.0
470,123.79359476458335,123.85657384375001,64.0,73.0
471,123.79359476458335,123.86752672708336,57.0,81.0
472,123.95788801458335,123.99211577500002,64.0,78.0
473,123.95788801458335,124.01949798333335,61.0,82.0
474,123.95788801458335,124.01949798333335,61.0,88.0
475,123.95788801458335,124.03729641875002,57.0,78.0
476,124.12218126458335,124.17831479166668,61.0,107.0
477,124.12218126458335,124.19748233750002,64.0,90.0
478,124.12218126458335,124.20158966875002,57.0,93.0
479,124.28647451458335,124.35629914583335,47.0,47.0
480,124.28647451458335,124.36177558750002,62.0,88.0
481,124.28647451458335,124.36999025000001,59.0,78.0
482,124.28647451458335,124.38094313333335,66.0,96.0
483,124.28647451458335,124.38368135416668,54.0,92.0
484,124.61506101458335,126.08000916041668,66.0,97.0
485,124.61506101458335,126.08411649166669,62.0,97.0
486,126.25799351458335,126.32097259375001,66.0,95.0
487,126.25799351458335,126.32097259375001,66.0,112.0
488,124.61506101458335,126.33192547708335,59.0,82.0
489,126.25799351458335,126.33192547708335,59.0,102.0
490,126.42228676458335,126.48663495416669,66.0,78.0
491,126.42228676458335,126.50169516875002,59.0,82.0
492,126.58658001458335,126.65503553541669,66.0,93.0
493,126.58658001458335,126.66325019791668,59.0,82.0
494,124.61506101458335,126.72486016666669,47.0,61.0
495,124.61506101458335,126.75498059583335,54.0,89.0
496,126.75087326458335,126.82754344791668,66.0,112.0
497,126.75087326458335,126.83165077916668,59.0,93.0
498,126.58658001458335,126.84944921458336,62.0,78.0
499,126.91516651458335,127.01511157500002,47.0,67.0
500,126.91516651458335,127.01921890625002,59.0,78.0
501,126.91516651458335,127.02058801666668,54.0,96.0
502,126.91516651458335,127.02332623750002,62.0,68.0
503,126.91516651458335,127.02332623750002,66.0,76.0
504,127.24375301458335,129.29331130833336,47.0,82.0
505,127.24375301458335,129.29604952916668,59.0,92.0
506,127.24375301458335,129.30563330208335,62.0,99.0
507,127.24375301458335,129.31795529583334,54.0,107.0
508,127.24375301458335,129.31795529583334,66.0,100.0
509,129.54385851458335,129.5999920416667,66.0,102.0
510,129.54385851458335,129.60683759375002,69.0,90.0
511,129.54385851458335,129.61368314583336,62.0,96.0
512,129.70815176458336,129.77249995416668,66.0,72.0
513,129.70815176458336,129.78345283750002,69.0,71.0
514,129.70815176458336,129.78756016875002,62.0,75.0
515,129.87244501458335,129.9778665166667,69.0,95.0
516,129.87244501458335,129.97923562708334,66.0,122.0
517,129.87244501458335,129.9901885104167,62.0,95.0
518,129.54385851458335,130.5405708979167,38.0,92.0
519,129.87244501458335,130.56658399583335,45.0,78.0
520,130.20103151458335,130.61313375000003,66.0,127.0
521,130.52961801458335,130.82123853333334,57.0,93.0
522,130.85820451458335,130.90064693750003,38.0,38.0
523,130.85820451458335,130.95814957500002,45.0,69.0
524,130.85820451458335,130.95814957500002,50.0,72.0
525,130.85820451458335,130.96225690625002,62.0,89.0
526,130.85820451458335,130.96910245833334,57.0,58.0
527,130.85820451458335,130.9745789,66.0,96.0
528,131.18679101458335,131.23197165833335,38.0,40.0
529,131.18679101458335,131.28125963333335,62.0,92.0
530,131.18679101458335,131.29084340625002,66.0,83.0
531,131.18679101458335,131.2922125166667,50.0,82.0
532,131.18679101458335,131.29768895833334,57.0,83.0
533,131.18679101458335,131.3031654,45.0,81.0
534,131.51537751458335,131.66461055000002,38.0,59.0
535,131.51537751458335,131.70842208333335,45.0,96.0
536,131.51537751458335,131.79741426041667,50.0,95.0
537,131.51537751458335,131.91515775625,62.0,107.0
538,131.51537751458335,131.93980174375002,57.0,93.0
539,131.51537751458335,132.01921014791668,66.0,117.0
540,132.17255051458335,132.21225471666668,62.0,95.0
541,132.17255051458335,132.22046937916667,66.0,112.0
542,132.17255051458335,132.22731493125002,59.0,97.0
543,132.33684376458336,132.39297729166668,62.0,89.0
544,132.33684376458336,132.40529928541667,59.0,79.0
545,132.33684376458336,132.40529928541667,66.0,86.0
546,132.50113701458335,132.56274698333334,62.0,102.0
547,132.50113701458335,132.58054541875,59.0,86.0
548,132.50113701458335,132.58328363958336,66.0,107.0
549,132.82972351458335,133.21170532083335,66.0,99.0
550,132.82972351458335,133.21170532083335,66.0,127.0
551,132.17255051458335,133.23908752916668,47.0,93.0
552,132.82972351458335,133.24182575000003,62.0,97.0
553,133.15831001458335,133.24182575000003,62.0,112.0
554,132.82972351458335,133.27057706875001,59.0,97.0
555,132.50113701458335,133.3089121604167,54.0,95.0
556,133.48689651458335,133.57588869166668,62.0,75.0
557,133.48689651458335,133.58136513333335,47.0,67.0
558,133.48689651458335,133.59916356875001,54.0,99.0
559,133.48689651458335,133.59916356875001,59.0,85.0
560,133.48689651458335,133.6032709,66.0,88.0
561,133.81548301458335,133.89762963958336,62.0,86.0
562,133.81548301458335,133.90310608125003,47.0,68.0
563,133.81548301458335,133.9126898541667,59.0,86.0
564,133.81548301458335,133.91816629583334,66.0,88.0
565,133.81548301458335,133.9250118479167,54.0,102.0
566,134.14406951458335,134.59450684166669,47.0,77.0
567,134.14406951458335,134.60409061458336,54.0,112.0
568,134.14406951458335,134.76975297500002,66.0,122.0
569,134.14406951458335,134.7752294166667,62.0,122.0
570,134.14406951458335,134.78344407916669,59.0,93.0
571,134.80124251458335,134.84779226875003,61.0,107.0
572,134.80124251458335,134.86422159375002,57.0,99.0
573,134.80124251458335,134.86832892500001,64.0,92.0
574,134.96553576458336,135.02440751250003,61.0,85.0
575,134.96553576458336,135.03672950625003,64.0,73.0
576,134.96553576458336,135.0422059479167,57.0,81.0
577,135.12982901458335,135.19691542500001,61.0,117.0
578,135.12982901458335,135.1982845354167,64.0,96.0
579,135.12982901458335,135.20649919791668,57.0,107.0
580,135.12982901458335,135.61860143333337,52.0,82.0
581,134.80124251458335,135.64187631041668,45.0,93.0
582,135.78700201458335,135.86914863958336,45.0,57.0
583,135.78700201458335,135.91022195208336,52.0,90.0
584,135.62270876458336,136.2374393416667,61.0,61.0
585,135.45841551458335,136.4222692479167,64.0,96.0
586,136.11558851458335,136.81246571666668,52.0,86.0
587,136.11558851458335,136.84669347708336,45.0,75.0
588,137.10134801458335,137.3094527979167,61.0,107.0
589,136.77276151458335,137.33135856458335,64.0,102.0
590,137.42993451458335,137.4819607104167,66.0,122.0
591,137.42993451458335,137.48743715208334,62.0,102.0
592,137.42993451458335,137.4901753729167,69.0,99.0
593,136.44417501458335,137.5052355875,57.0,79.0
594,137.59422776458337,137.64762307083336,66.0,92.0
595,137.59422776458337,137.65583773333336,69.0,81.0
596,137.59422776458337,137.66268328541668,62.0,88.0
597,137.75852101458335,137.81602365208335,66.0,107.0
598,137.75852101458335,137.82834564583337,62.0,96.0
599,137.75852101458335,137.83245297708336,69.0,99.0
600,137.92281426458337,138.25961542708336,66.0,90.0
601,137.26564126458337,138.42117045625002,38.0,90.0
602,137.92281426458337,138.42117045625002,50.0,86.0
603,137.59422776458337,138.44718355416668,45.0,54.0
604,138.25140076458337,138.50057886041668,57.0,95.0
605,138.74428051458335,138.80315226250002,38.0,51.0
606,138.74428051458335,138.8455946854167,62.0,93.0
607,138.74428051458335,138.85107112708334,50.0,85.0
608,138.74428051458335,138.8579166791667,66.0,99.0
609,138.74428051458335,138.85928578958337,57.0,85.0
610,138.74428051458335,138.8620240104167,45.0,83.0
611,139.07286701458335,139.1495371979167,38.0,56.0
612,139.07286701458335,139.16870474375003,62.0,96.0
613,139.07286701458335,139.1823958479167,45.0,83.0
614,139.07286701458335,139.1823958479167,50.0,86.0
615,139.07286701458335,139.1823958479167,66.0,90.0
616,139.07286701458335,139.18376495833334,57.0,86.0
617,139.40145351458335,139.5068750166667,38.0,42.0
618,139.40145351458335,139.5725923166667,45.0,90.0
619,139.40145351458335,139.63967872708335,50.0,96.0
620,139.40145351458335,139.98469455208334,62.0,112.0
621,139.40145351458335,140.00112387708336,57.0,99.0
622,139.40145351458335,140.07094850833334,66.0,107.0
623,140.05862651458335,140.07094850833334,66.0,117.0
624,140.05862651458335,140.10517626875003,59.0,97.0
625,140.05862651458335,140.10517626875003,62.0,112.0
626,140.22291976458337,140.27905329166668,62.0,83.0
627,140.22291976458337,140.29411350625003,59.0,78.0
628,140.22291976458337,140.29822083750003,66.0,83.0
629,140.38721301458335,140.4515612041667,66.0,112.0
630,140.38721301458335,140.45703764583337,62.0,112.0
631,140.38721301458335,140.4638831979167,59.0,97.0
632,140.05862651458335,140.88420009583336,47.0,97.0
633,140.38721301458335,140.89926031041668,54.0,86.0
634,141.04438601458335,141.1087342041667,47.0,57.0
635,141.04438601458335,141.14159285416667,54.0,96.0
636,140.71579951458335,141.1662368416667,66.0,127.0
637,141.04438601458335,141.17171328333336,59.0,82.0
638,141.37297251458335,141.45101180833336,62.0,63.0
639,141.37297251458335,141.46744113333335,59.0,66.0
640,141.37297251458335,141.47291757500003,66.0,69.0
641,141.37297251458335,141.4742866854167,47.0,79.0
642,141.37297251458335,141.4742866854167,54.0,102.0
643,141.70155901458335,141.7768600875,62.0,96.0
644,141.70155901458335,141.79602763333335,59.0,83.0
645,141.70155901458335,141.80013496458335,47.0,72.0
646,141.70155901458335,141.80013496458335,66.0,95.0
647,141.70155901458335,141.80834962708335,54.0,97.0
648,142.03014551458335,142.26152517500003,54.0,122.0
649,142.03014551458335,142.27384716875002,62.0,112.0
650,142.03014551458335,142.28206183125002,47.0,82.0
651,142.03014551458335,142.28480005208334,66.0,122.0
652,142.35873201458335,142.40117443750003,62.0,38.0
653,142.03014551458335,142.40254354791668,59.0,92.0
654,142.52302526458337,143.19115114791668,43.0,92.0
655,142.68731851458335,143.38282660625003,62.0,97.0
656,143.34449151458335,143.5115229854167,43.0,72.0
657,142.68731851458335,143.5676565125,59.0,99.0
658,142.68731851458335,143.58271672708335,55.0,99.0
659,143.67307801458335,143.6990911125,64.0,72.0
660,143.67307801458335,143.74427175625001,60.0,112.0
661,143.67307801458335,143.75796286041668,55.0,99.0
662,143.67307801458335,143.7976670625,48.0,117.0
663,144.00166451458335,147.62159245625003,42.0,127.0
664,144.00166451458335,147.64897466458336,54.0,97.0
665,144.00166451458335,147.67909509375002,58.0,112.0
666,144.00166451458335,147.68320242500002,61.0,122.0
667,148.27328901458336,148.39650895208337,62.0,71.0
668,148.27328901458336,148.40061628333336,59.0,67.0
669,148.27328901458336,148.40472361458336,66.0,61.0
670,148.27328901458336,148.41567649791668,47.0,66.0
671,148.60187551458336,148.74152477708336,62.0,54.0
672,148.60187551458336,148.7647996541667,59.0,41.0
673,148.60187551458336,148.7689069854167,66.0,44.0
674,148.60187551458336,148.77849075833336,47.0,62.0
675,148.93046201458336,149.07148038750003,62.0,73.0
676,148.93046201458336,149.09064793333334,59.0,72.0
677,148.93046201458336,149.0974934854167,66.0,67.0
678,148.93046201458336,149.10707725833336,47.0,82.0
679,149.25904851458336,149.40280510833335,62.0,88.0
680,149.25904851458336,149.41101977083335,47.0,93.0
681,149.25904851458336,149.4260799854167,59.0,79.0
682,149.25904851458336,149.43155642708336,66.0,96.0
683,149.58763501458336,149.73412982916668,47.0,100.0
684,149.58763501458336,149.74097538125002,62.0,86.0
685,149.58763501458336,149.7587738166667,59.0,83.0
686,149.58763501458336,149.76014292708336,66.0,96.0
687,149.91622151458336,150.04491789375,62.0,93.0
688,149.91622151458336,150.05176344583336,47.0,112.0
689,149.91622151458336,150.05860899791668,59.0,88.0
690,149.91622151458336,150.06271632916668,66.0,102.0
691,150.24480801458336,150.3543368479167,47.0,117.0
692,150.24480801458336,150.36118240000002,62.0,96.0
693,150.24480801458336,150.37213528333336,59.0,83.0
694,150.24480801458336,150.38308816666668,66.0,107.0
695,150.57339451458336,151.4345649666667,47.0,93.0
696,150.90198101458336,151.49754404583337,54.0,86.0
697,151.55915401458336,151.69332683541668,47.0,74.0
698,151.23056751458336,152.17662281250003,66.0,122.0
699,151.88774051458336,153.08708123958337,47.0,99.0
700,152.21632701458336,153.236314275,59.0,72.0
701,152.54491351458336,153.29381691250003,66.0,112.0
702,152.87350001458336,153.29655513333336,62.0,93.0
703,153.20208651458336,154.03587475833336,47.0,90.0
704,154.18784601458336,154.31106595208337,47.0,81.0
705,153.53067301458336,154.59447180833337,59.0,57.0
706,153.85925951458336,154.6382833416667,66.0,112.0
707,154.51643251458336,155.07502956458336,47.0,93.0
708,154.84501901458336,155.50219201458336,59.0,96.0
709,155.17360551458336,155.7965507541667,54.0,86.0
710,155.50219201458336,155.92661624375003,66.0,112.0
711,155.83077851458336,156.6508756541667,50.0,96.0
712,156.81653801458336,156.9383888416667,50.0,89.0
713,156.48795151458336,157.23411669166669,66.0,112.0
714,156.15936501458336,157.24643868541668,57.0,76.0
715,157.14512451458336,157.94331588750003,50.0,97.0
716,157.80229751458336,158.26231861458336,66.0,117.0
717,158.13088401458336,158.47316161875003,62.0,97.0
718,157.47371101458336,158.57447578958335,57.0,79.0
719,158.45947051458336,159.2713529916667,38.0,81.0
720,159.44523001458336,159.5794028354167,38.0,83.0
721,159.77381651458336,160.1256778916667,38.0,77.0
722,158.78805701458336,160.16127476250003,57.0,69.0
723,159.11664351458336,160.17770408750002,66.0,127.0
724,160.10240301458336,160.6349869666667,45.0,95.0
725,160.43098951458336,161.04845831250003,66.0,122.0
726,160.75957601458336,161.06078030625002,62.0,93.0
727,161.41674901458336,161.93153453125004,50.0,57.0
728,161.08816251458336,161.93290364166668,43.0,83.0
729,161.74533551458336,162.36280431250003,62.0,117.0
730,162.07392201458336,162.5243593416667,55.0,99.0
731,162.40250851458336,163.20617632916668,40.0,86.0
732,162.73109501458336,163.3211816041667,47.0,65.0
733,163.05968151458336,163.65661365625002,64.0,100.0
734,163.38826801458336,163.68947230625002,55.0,99.0
735,163.71685451458336,164.54790453750002,47.0,82.0
736,164.04544101458336,164.59719251250002,54.0,90.0
737,164.70261401458336,164.83952505625,47.0,97.0
738,164.37402751458336,165.51038916041668,66.0,117.0
739,165.03120051458336,165.94713538333335,47.0,72.0
740,165.35978701458336,165.9498736041667,54.0,66.0
741,165.68837351458336,166.32500985833335,66.0,117.0
742,166.01696001458336,166.37019050208335,62.0,88.0
743,166.34554651458336,167.5353034666667,45.0,76.0
744,166.67413301458336,167.57500766875003,52.0,70.0
745,167.00271951458336,167.73519358750002,64.0,96.0
746,167.33130601458336,167.77900512083335,61.0,100.0
747,167.65989251458336,168.4553456666667,45.0,92.0
748,167.98847901458336,168.75791906875003,57.0,88.0
749,168.64565201458336,168.93453431250003,61.0,96.0
750,168.31706551458336,168.97423851458336,64.0,107.0
751,168.97423851458336,171.49203257083335,47.0,69.0
752,168.97423851458336,171.54132054583337,54.0,92.0
753,168.97423851458336,171.5892394104167,66.0,99.0
754,168.97423851458336,171.59882318333337,59.0,90.0
755,168.97423851458336,171.60293051458336,62.0,107.0
756,171.60293051458336,175.24202600208335,66.0,117.0
757,171.60293051458336,175.30363597083337,62.0,112.0
758,171.60293051458336,175.31185063333336,59.0,100.0
759,171.60293051458336,175.33649462083335,47.0,75.0
760,175.54596851458336,175.67466489375002,47.0,99.0
761,175.54596851458336,175.6842486666667,59.0,97.0
762,175.87455501458336,176.00188228333337,49.0,112.0
763,175.87455501458336,176.04295559583335,61.0,127.0
764,176.20314151458336,176.35785099166668,62.0,100.0
765,176.20314151458336,176.3619583229167,50.0,100.0
766,176.53172801458336,176.75489301250002,47.0,117.0
767,176.53172801458336,176.76721500625,59.0,112.0
768,176.86031451458337,180.46244402083337,54.0,100.0
769,176.86031451458337,180.4692895729167,66.0,102.0
770,176.86031451458337,180.4733969041667,61.0,107.0
771,176.86031451458337,180.48434978750004,42.0,97.0
772,176.86031451458337,180.48434978750004,70.0,100.0
773,180.80335251458337,180.9293106729167,66.0,127.0
774,180.80335251458337,180.9416326666667,42.0,117.0
775,181.13193901458337,181.3195071416667,67.0,100.0
776,181.13193901458337,181.33319824583336,43.0,100.0
777,181.46052551458337,181.57142345833336,45.0,127.0
778,181.46052551458337,181.58511456250002,69.0,112.0
779,181.78911201458337,181.9191775041667,42.0,112.0
780,181.78911201458337,181.93013038750001,66.0,122.0
781,182.11769851458337,187.35865318958335,47.0,69.0
782,182.11769851458337,187.37645162500002,54.0,107.0
783,182.11769851458337,187.37918984583337,59.0,102.0
784,182.11769851458337,187.3819280666667,63.0,127.0
785,182.11769851458337,187.40109561250003,66.0,107.0
