,start,end,pitch,velocity
0,21.328356229166662,21.626967310416664,55.0,95.0
1,21.606133979166664,22.15937466458333,62.0,106.0
2,22.161689479166665,22.638871560416664,62.0,99.0
3,22.640855685416664,23.117045685416663,62.0,104.0
4,23.117045685416663,23.355140685416664,60.0,97.0
5,23.355140685416664,23.831330685416663,62.0,101.0
6,23.831330685416663,25.259900685416664,64.0,101.0
7,25.259900685416664,25.497995685416665,55.0,98.0
8,25.497995685416665,25.972201560416664,59.0,98.0
9,25.974185685416664,26.448391560416663,59.0,98.0
10,26.450375685416667,26.926565685416666,59.0,101.0
11,26.926565685416666,27.164660685416663,57.0,97.0
12,27.164660685416663,27.640850685416666,59.0,99.0
13,27.640850685416666,29.047595310416664,60.0,95.0
14,29.047595310416664,29.301563310416665,55.0,98.0
15,29.301563310416665,29.771800935416664,67.0,99.0
16,29.771800935416664,30.216244935416665,65.0,98.0
17,30.216244935416665,30.688466685416664,64.0,97.0
18,30.688466685416664,30.940450560416664,65.0,98.0
19,30.940450560416664,33.146797560416665,67.0,98.0
20,33.146797560416665,33.61108281041666,60.0,102.0
21,33.61108281041666,33.85314606041666,62.0,99.0
22,33.85314606041666,34.50790731041667,64.0,99.0
23,34.50790731041667,36.64480993541667,62.0,101.0
24,36.64480993541667,36.91068268541667,55.0,97.0
25,36.91068268541667,37.39084093541666,62.0,106.0
26,37.39282506041667,37.622983560416664,62.0,98.0
27,37.624967685416664,38.32337968541667,62.0,104.0
28,38.32337968541667,38.57337943541667,60.0,97.0
29,38.57337943541667,39.053537685416664,62.0,106.0
30,39.053537685416664,40.464250560416666,64.0,98.0
31,40.464250560416666,40.720202685416666,55.0,95.0
32,40.720202685416666,41.20631331041666,59.0,98.0
33,41.20829743541667,41.69639218541667,59.0,98.0
34,41.69837631041666,42.14083618541667,59.0,99.0
35,42.14083618541667,42.37099468541666,57.0,93.0
36,42.37099468541666,42.87297831041667,59.0,98.0
37,42.87297831041667,44.281707060416664,60.0,98.0
38,44.281707060416664,44.55750043541667,55.0,96.0
39,44.55750043541667,44.99599206041667,67.0,98.0
40,44.99599206041667,45.26781718541667,65.0,97.0
41,45.26781718541667,45.956308560416666,64.0,101.0
42,45.956308560416666,46.208292435416666,65.0,98.0
43,46.208292435416666,46.69241893541667,67.0,98.0
44,46.69241893541667,47.916624060416666,65.0,97.0
45,47.90075106041667,48.11900481041667,60.0,100.0
46,48.12098893541666,48.37098868541666,60.0,98.0
47,48.37297281041667,48.82336918541667,60.0,99.0
48,48.82336918541667,49.31344806041667,62.0,102.0
49,49.31344806041667,49.77971743541667,64.0,98.0
50,49.77971743541667,53.831300685416664,62.0,102.0
51,53.831300685416664,54.08725281041667,55.0,95.0
52,54.069395685416666,54.54360156041667,62.0,106.0
53,54.54558568541667,55.01979156041667,62.0,99.0
54,55.02177568541667,55.497965685416666,62.0,104.0
55,55.497965685416666,55.73606068541667,60.0,97.0
56,55.73606068541667,56.21225068541667,62.0,101.0
57,56.21225068541667,57.64082068541667,64.0,101.0
58,57.64082068541667,57.878915685416665,55.0,98.0
59,57.878915685416665,58.35312156041667,59.0,98.0
60,58.35510568541667,58.82931156041667,59.0,98.0
61,58.83129568541667,59.307485685416665,59.0,101.0
62,59.307485685416665,59.54558068541667,57.0,97.0
63,59.54558068541667,60.02177068541667,59.0,99.0
64,60.02177068541667,61.42851531041667,60.0,95.0
65,61.42851531041667,61.68248331041667,55.0,98.0
66,61.68248331041667,62.15272093541667,67.0,99.0
67,62.15272093541667,62.59716493541667,65.0,98.0
68,62.59716493541667,63.06938668541667,64.0,97.0
69,63.06938668541667,63.32137056041667,65.0,98.0
70,63.32137056041667,65.52771756041668,67.0,98.0
71,65.52771756041668,65.99200281041666,60.0,102.0
72,65.99200281041666,66.23406606041667,62.0,99.0
73,66.23406606041667,66.88882731041667,64.0,99.0
74,66.88882731041667,69.02572993541668,62.0,101.0
75,69.02572993541668,69.29160268541668,55.0,97.0
76,69.29160268541668,69.77176093541667,62.0,106.0
77,69.77374506041667,70.00390356041666,62.0,98.0
78,70.00588768541667,70.70429968541667,62.0,104.0
79,70.70429968541667,70.95429943541667,60.0,97.0
80,70.95429943541667,71.43445768541667,62.0,106.0
81,71.43445768541667,72.84517056041668,64.0,98.0
82,72.84517056041668,73.10112268541667,55.0,95.0
83,73.10112268541667,73.58723331041668,59.0,98.0
84,73.58921743541667,74.07731218541667,59.0,98.0
85,74.07929631041668,74.52175618541668,59.0,99.0
86,74.52175618541668,74.75191468541666,57.0,93.0
87,74.75191468541666,75.25389831041667,59.0,98.0
88,75.25389831041667,76.66262706041667,60.0,98.0
89,76.66262706041667,76.93842043541667,55.0,96.0
90,76.93842043541667,77.37691206041667,67.0,98.0
91,77.37691206041667,77.64873718541668,65.0,97.0
92,77.64873718541668,78.33722856041666,64.0,101.0
93,78.33722856041666,78.58921243541667,65.0,98.0
94,78.58921243541667,79.07333893541667,67.0,98.0
95,79.07333893541667,80.29754406041667,65.0,97.0
96,80.28167106041667,80.49992481041667,60.0,100.0
97,80.50190893541668,80.75190868541668,60.0,98.0
98,80.75389281041667,81.20428918541667,60.0,99.0
99,81.20428918541667,81.69436806041668,62.0,102.0
100,81.69436806041668,82.16063743541667,64.0,98.0
101,82.16063743541667,83.67254068541666,62.0,102.0
102,83.59317568541667,83.83127068541667,64.0,111.0
103,83.83127068541667,84.54555568541667,65.0,102.0
104,84.54555568541667,86.21023656041666,67.0,101.0
105,86.21222068541667,86.44833156041668,67.0,99.0
106,86.45031568541668,86.92650568541666,67.0,103.0
107,86.92650568541666,87.16460068541667,72.0,103.0
108,87.16460068541667,87.64079068541668,71.0,103.0
109,87.64079068541668,88.35507568541667,67.0,101.0
110,88.35507568541667,91.21221568541668,64.0,104.0
111,91.21221568541668,91.45031068541667,62.0,104.0
112,91.45031068541667,91.92650068541667,64.0,104.0
113,91.92650068541667,93.83126068541668,65.0,101.0
114,93.83126068541668,94.06935568541667,64.0,98.0
115,94.06935568541667,94.54554568541667,65.0,99.0
116,94.54554568541667,94.78364068541669,64.0,101.0
117,94.78364068541669,95.25983068541666,60.0,99.0
118,95.25983068541666,95.73602068541666,64.0,101.0
119,95.73602068541666,98.83125568541666,62.0,103.0
120,98.83125568541666,99.30744568541667,64.0,101.0
121,99.30744568541667,99.78363568541667,65.0,101.0
122,99.78363568541667,101.44831656041669,67.0,103.0
123,101.45030068541666,101.68641156041667,67.0,98.0
124,101.68839568541668,102.16458568541668,67.0,101.0
125,102.16458568541668,102.40268068541667,72.0,100.0
126,102.40268068541667,103.11696568541666,71.0,101.0
127,103.11696568541666,103.59315568541666,67.0,97.0
128,103.59315568541666,106.45029568541668,64.0,101.0
129,106.45029568541668,106.92648568541668,62.0,104.0
130,106.92648568541668,107.87886568541668,64.0,99.0
131,107.87886568541668,109.06934068541668,57.0,98.0
132,109.06934068541668,109.30545156041669,60.0,101.0
133,109.30743568541666,109.78362568541667,60.0,101.0
134,109.78362568541667,110.25981568541667,59.0,99.0
135,110.25981568541667,110.73600568541667,57.0,99.0
136,110.73600568541667,111.21417981041668,62.0,108.0
137,111.21219568541667,113.78362168541668,60.0,99.0
138,150.97406068541667,151.23001281041667,55.0,95.0
139,151.21215568541666,151.68636156041666,62.0,106.0
140,151.68834568541666,152.16255156041666,62.0,99.0
141,152.16453568541667,152.64072568541667,62.0,104.0
142,152.64072568541667,152.87882068541668,60.0,97.0
143,152.87882068541668,153.35501068541666,62.0,101.0
144,153.35501068541666,154.78358068541667,64.0,101.0
145,154.78358068541667,155.02167568541668,55.0,98.0
146,155.02167568541668,155.49588156041668,59.0,98.0
147,155.49786568541668,155.97207156041668,59.0,98.0
148,155.97405568541666,156.45024568541666,59.0,101.0
149,156.45024568541666,156.68834068541668,57.0,97.0
150,156.68834068541668,157.16453068541668,59.0,99.0
151,157.16453068541668,158.57127531041667,60.0,95.0
152,158.57127531041667,158.82524331041668,55.0,98.0
153,158.82524331041668,159.29548093541666,67.0,99.0
154,159.29548093541666,159.73992493541667,65.0,98.0
155,159.73992493541667,160.21214668541668,64.0,97.0
156,160.21214668541668,160.46413056041666,65.0,98.0
157,160.46413056041666,162.67047756041669,67.0,98.0
158,162.67047756041669,163.13476281041667,60.0,102.0
159,163.13476281041667,163.37682606041668,62.0,99.0
160,163.37682606041668,164.03158731041668,64.0,99.0
161,164.03158731041668,166.16848993541666,62.0,101.0
162,166.16848993541666,166.43436268541666,55.0,97.0
163,166.43436268541666,166.91452093541668,62.0,106.0
164,166.91650506041668,167.14666356041667,62.0,98.0
165,167.14864768541668,167.84705968541667,62.0,104.0
166,167.84705968541667,168.09705943541667,60.0,97.0
167,168.09705943541667,168.57721768541668,62.0,106.0
168,168.57721768541668,169.9879305604167,64.0,98.0
169,169.9879305604167,170.24388268541668,55.0,95.0
170,170.24388268541668,170.72999331041666,59.0,98.0
171,170.73197743541667,171.22007218541668,59.0,98.0
172,171.22205631041666,171.66451618541666,59.0,99.0
173,171.66451618541666,171.89467468541667,57.0,93.0
174,171.89467468541667,172.39665831041668,59.0,98.0
175,172.39665831041668,173.80538706041668,60.0,98.0
176,173.80538706041668,174.08118043541668,55.0,96.0
177,174.08118043541668,174.51967206041667,67.0,98.0
178,174.51967206041667,174.79149718541666,65.0,97.0
179,174.79149718541666,175.47998856041667,64.0,101.0
180,175.47998856041667,175.73197243541668,65.0,98.0
181,175.73197243541668,176.21609893541668,67.0,98.0
182,176.21609893541668,177.44030406041668,65.0,97.0
183,177.42443106041668,177.64268481041668,60.0,100.0
184,177.64466893541666,177.89466868541666,60.0,98.0
185,177.89665281041667,178.34704918541667,60.0,99.0
186,178.34704918541667,178.83712806041666,62.0,102.0
187,178.83712806041666,179.30339743541668,64.0,98.0
188,179.30339743541668,180.81530068541667,62.0,102.0
189,180.73593568541668,180.97403068541666,64.0,111.0
190,180.97403068541666,181.68831568541668,65.0,102.0
191,181.68831568541668,183.35299656041667,67.0,101.0
192,183.35498068541668,183.5910915604167,67.0,99.0
193,183.59307568541666,184.06926568541667,67.0,103.0
194,184.06926568541667,184.30736068541668,72.0,103.0
195,184.30736068541668,184.78355068541669,71.0,103.0
196,184.78355068541669,185.49783568541667,67.0,101.0
197,185.49783568541667,188.35497568541666,64.0,104.0
198,188.35497568541666,188.59307068541668,62.0,104.0
199,188.59307068541668,189.06926068541668,64.0,104.0
200,189.06926068541668,190.97402068541666,65.0,101.0
201,190.97402068541666,191.21211568541668,64.0,98.0
202,191.21211568541668,191.68830568541668,65.0,99.0
203,191.68830568541668,191.92640068541667,64.0,101.0
204,191.92640068541667,192.40259068541667,60.0,99.0
205,192.40259068541667,192.87878068541667,64.0,101.0
206,192.87878068541667,195.97401568541667,62.0,103.0
207,195.97401568541667,196.45020568541668,64.0,101.0
208,196.45020568541668,196.92639568541668,65.0,101.0
209,196.92639568541668,198.59107656041667,67.0,103.0
210,198.59306068541667,198.82917156041668,67.0,98.0
211,198.8311556854167,199.30734568541666,67.0,101.0
212,199.30734568541666,199.54544068541668,72.0,100.0
213,199.54544068541668,200.25972568541667,71.0,101.0
214,200.25972568541667,200.73591568541667,67.0,97.0
215,200.73591568541667,203.5930556854167,64.0,101.0
216,203.5930556854167,204.0692456854167,62.0,104.0
217,204.0692456854167,205.02162568541667,64.0,99.0
218,205.02162568541667,206.2121006854167,57.0,98.0
219,206.2121006854167,206.44821156041667,60.0,101.0
220,206.45019568541667,206.92638568541668,60.0,101.0
221,206.92638568541668,207.40257568541668,59.0,99.0
222,207.40257568541668,207.87876568541668,57.0,99.0
223,207.87876568541668,208.3569398104167,62.0,108.0
224,208.35495568541668,219.54542068541667,60.0,99.0
225,219.54542068541667,219.80137281041667,55.0,95.0
226,219.7835156854167,220.25772156041668,62.0,106.0
227,220.2597056854167,220.7339115604167,62.0,99.0
228,220.73589568541666,221.21208568541667,62.0,104.0
229,221.21208568541667,221.45018068541668,60.0,97.0
230,221.45018068541668,221.92637068541669,62.0,101.0
231,221.92637068541669,223.35494068541666,64.0,101.0
232,223.35494068541666,223.59303568541668,55.0,98.0
233,223.59303568541668,224.06724156041668,59.0,98.0
234,224.06922568541668,224.54343156041668,59.0,98.0
235,224.54541568541669,225.0216056854167,59.0,101.0
236,225.0216056854167,225.25970068541668,57.0,97.0
237,225.25970068541668,225.73589068541668,59.0,99.0
238,225.73589068541668,227.14263531041667,60.0,95.0
239,227.14263531041667,227.39660331041668,55.0,98.0
240,227.39660331041668,227.8668409354167,67.0,99.0
241,227.8668409354167,228.31128493541667,65.0,98.0
242,228.31128493541667,228.78350668541668,64.0,97.0
243,228.78350668541668,229.0354905604167,65.0,98.0
244,229.0354905604167,230.2596956854167,67.0,98.0
245,230.2596956854167,231.24183756041668,64.0,98.0
246,231.24183756041668,233.4204068104167,60.0,102.0
247,233.4204068104167,234.53350093541667,64.0,100.0
248,234.53548506041668,235.51167456041668,64.0,103.0
249,235.49183331041667,235.8529440604167,62.0,96.0
250,235.83111868541667,238.5454016854167,60.0,92.0
