,start,end,pitch,velocity
0,22.548342,23.042964666666666,77.0,103.0
1,23.193502000000002,23.37495325,77.0,93.0
2,23.516082,23.670651583333335,77.0,90.0
3,23.838662000000003,24.037586333333333,77.0,93.0
4,24.161242,24.313123416666667,76.0,102.0
5,24.483822,24.661241,74.0,87.0
6,24.806402000000002,25.821184916666667,74.0,93.0
7,27.064462000000002,27.2983325,72.0,93.0
8,27.387042,27.618224333333334,74.0,87.0
9,27.709622000000003,27.916610833333333,76.0,85.0
10,28.032202,28.174674833333334,77.0,93.0
11,28.354782,28.499943000000002,77.0,103.0
12,28.677362000000002,28.951555000000003,77.0,105.0
13,28.999942,29.21365125,77.0,95.0
14,29.322522000000003,29.481123833333335,76.0,93.0
15,29.645102,30.057735583333336,74.0,87.0
16,30.290262000000002,31.243217083333334,72.0,87.0
17,32.870902,33.30100866666667,81.0,87.0
18,33.516062000000005,33.71229816666667,79.0,87.0
19,33.838642,34.370899,77.0,95.0
20,34.483802000000004,35.00396225,76.0,102.0
21,35.451542,35.85073475,79.0,83.0
22,36.096702,36.249927500000005,77.0,103.0
23,36.419282,36.97976475,76.0,103.0
24,37.064442,37.64374191666667,74.0,95.0
25,38.032182,38.37492325,77.0,93.0
26,38.677342,38.86685775,76.0,93.0
27,38.999922000000005,39.55368433333334,74.0,95.0
28,39.645082,39.92330725,72.0,87.0
29,39.967662000000004,40.15986591666667,74.0,72.0
30,40.290242,41.362820500000005,74.0,95.0
31,43.193462000000004,43.68808466666667,77.0,103.0
32,43.838622,44.02007325,77.0,93.0
33,44.161202,44.31577158333334,77.0,90.0
34,44.483782000000005,44.682706333333336,77.0,93.0
35,44.806362,44.95824341666667,76.0,102.0
36,45.128942,45.306361,74.0,87.0
37,45.451522000000004,46.46630491666667,74.0,93.0
38,47.709582000000005,47.9434525,72.0,93.0
39,48.032162,48.263344333333336,74.0,87.0
40,48.354742,48.561730833333336,76.0,85.0
41,48.677322000000004,48.81979483333333,77.0,93.0
42,48.999902000000006,49.145063,77.0,103.0
43,49.322482,49.596675000000005,77.0,105.0
44,49.645062,49.858771250000004,79.0,95.0
45,49.967642000000005,50.126243833333334,77.0,93.0
46,50.290222,50.70285558333334,74.0,87.0
47,50.935382000000004,51.88833708333333,72.0,87.0
48,53.51602200000001,53.94612866666667,81.0,87.0
49,54.161182000000004,54.35741816666667,79.0,87.0
50,54.483762000000006,55.016019,77.0,95.0
51,55.128922,55.649082250000006,76.0,102.0
52,56.096662,56.49585475000001,79.0,83.0
53,56.741822000000006,56.89510561666667,77.0,103.0
54,57.06537545416667,57.628887535416666,76.0,103.0
55,57.71402245416667,58.29645340625,74.0,95.0
56,58.68699295416667,59.03158667291667,77.0,93.0
57,59.335639954166666,59.52618001041667,76.0,93.0
58,59.65996345416667,60.21671879583334,74.0,95.0
59,60.30861045416667,60.588339472916665,72.0,87.0
60,60.63293395416667,60.82617670625,74.0,72.0
61,60.957257454166665,62.03563309166667,74.0,95.0
62,62.254551454166666,62.47482116458333,72.0,93.0
63,62.578874954166665,62.75319883541667,74.0,102.0
64,62.90319845416667,63.34644057083334,81.0,93.0
65,63.55184545416667,66.51264873958334,79.0,93.0
66,67.11809632916666,67.33852599583334,77.0,102.0
67,67.44067632916666,67.9541161625,79.0,93.0
68,68.08583632916667,68.60599657916666,77.0,102.0
69,68.73099632916666,69.42857557916666,72.0,93.0
70,69.69873632916666,69.92051007916666,77.0,105.0
71,70.02131632916667,70.52265941249999,79.0,80.0
72,70.66647632916667,71.13287324583334,77.0,102.0
73,71.31163632916666,71.89631257916666,74.0,87.0
74,72.60195632916667,72.74174099583333,72.0,93.0
75,72.92453632916667,73.1032994125,74.0,87.0
76,73.24711632916666,73.6718466625,81.0,87.0
77,73.89227632916666,76.57641074583333,79.0,95.0
78,77.44065632916667,77.63420432916666,81.0,93.0
79,77.76323632916666,78.19334299583333,79.0,93.0
80,78.40839632916666,78.9178039125,77.0,102.0
81,79.05355632916667,79.64495299583334,72.0,95.0
82,80.02129632916666,80.23500557916667,81.0,93.0
83,80.34387632916666,80.82371407916666,79.0,83.0
84,80.98903632916667,81.4339279125,81.0,87.0
85,81.63419632916667,82.22693707916666,74.0,93.0
86,82.92451632916666,83.05220424583334,72.0,93.0
87,83.24709632916667,83.35865524583333,77.0,95.0
88,83.56967632916667,83.7040846625,79.0,87.0
89,83.89225632916666,84.0669871625,81.0,87.0
90,84.21483632916667,84.61806132916666,81.0,93.0
91,85.18257632916666,85.28338257916667,79.0,83.0
92,85.50515632916667,86.7403689125,77.0,93.0
93,88.40837632916666,88.92047207916667,72.0,105.0
94,89.05353632916666,89.5589116625,84.0,93.0
95,89.69869632916667,90.5105226625,77.0,105.0
96,90.66643632916666,93.32772132916666,79.0,95.0
97,93.56965632916666,94.02126832916667,74.0,110.0
98,94.21481632916667,94.68121324583333,86.0,102.0
99,94.85997632916667,95.70674882916666,79.0,103.0
100,95.82771632916666,98.3855069125,81.0,93.0
101,98.73093632916667,99.24303207916667,72.0,105.0
102,99.37609632916667,99.88147166249999,84.0,93.0
103,100.02125632916668,100.8330826625,77.0,105.0
104,100.98899632916667,103.65028132916666,79.0,95.0
105,103.89221632916667,104.34382832916666,74.0,110.0
106,104.53737632916668,105.00377324583333,86.0,102.0
107,105.18253632916667,109.0508081625,81.0,103.0
108,110.34381632916666,110.83843899583334,77.0,103.0
109,110.98897632916666,111.17042757916667,77.0,93.0
110,111.31155632916666,111.46612591249999,77.0,90.0
111,111.63413632916667,111.8330606625,77.0,93.0
112,111.95671632916667,112.10859774583334,76.0,102.0
113,112.27929632916667,112.45671532916666,74.0,87.0
114,112.60187632916666,113.61665924583333,74.0,93.0
115,114.85993632916666,115.09380682916667,72.0,93.0
116,115.18251632916667,115.4136986625,74.0,87.0
117,115.50509632916666,115.7120851625,76.0,85.0
118,115.82767632916666,115.97014916250001,77.0,93.0
119,116.15025632916667,116.29541732916667,77.0,103.0
120,116.47283632916667,116.74702932916666,77.0,105.0
121,116.79541632916667,117.00912557916666,77.0,95.0
122,117.11799632916666,117.2765981625,76.0,93.0
123,117.44057632916667,117.8532099125,74.0,87.0
124,118.08573632916666,119.0386914125,72.0,87.0
125,120.66637632916667,121.09648299583333,81.0,87.0
126,121.31153632916667,121.50777249583334,79.0,87.0
127,121.63411632916666,122.16637332916667,77.0,95.0
128,122.27927632916666,122.79943657916667,76.0,102.0
129,123.24701632916667,123.64620907916667,79.0,83.0
130,123.89217632916666,124.04540182916666,77.0,103.0
131,124.21475632916668,124.77523907916667,76.0,103.0
132,124.85991632916667,125.43921624583334,74.0,95.0
133,125.82765632916667,126.17039757916666,77.0,93.0
134,126.47281632916668,126.66233207916667,76.0,93.0
135,126.79539632916666,127.3491586625,74.0,95.0
136,127.44055632916667,127.71878157916666,72.0,87.0
137,127.76313632916667,127.95534024583333,74.0,72.0
138,128.08571632916667,129.15829482916666,74.0,95.0
139,130.98893632916668,131.48355899583333,77.0,103.0
140,131.63409632916665,131.81554757916666,77.0,93.0
141,131.95667632916667,132.1112459125,77.0,90.0
142,132.27925632916669,132.4781806625,77.0,93.0
143,132.60183632916667,132.75371774583334,76.0,102.0
144,132.92441632916666,133.10183532916665,74.0,87.0
145,133.24699632916668,134.26177924583334,74.0,93.0
146,135.50505632916668,135.73892682916667,72.0,93.0
147,135.82763632916667,136.05881866250002,74.0,87.0
148,136.15021632916665,136.3572051625,76.0,85.0
149,136.47279632916667,136.6152691625,77.0,93.0
150,136.7953763291667,136.94053732916666,77.0,103.0
151,137.11795632916667,137.39214932916667,77.0,105.0
152,137.44053632916666,137.65424557916668,79.0,95.0
153,137.76311632916668,137.92171816249999,77.0,93.0
154,138.08569632916667,138.4983299125,74.0,87.0
155,138.73085632916667,139.6838114125,72.0,87.0
156,141.3114963291667,141.74160299583332,81.0,87.0
157,141.95665632916666,142.15289249583333,79.0,87.0
158,142.27923632916668,142.81149332916667,77.0,95.0
159,142.92439632916665,143.44455657916666,76.0,102.0
160,143.89213632916668,144.29132907916667,79.0,83.0
161,144.53729632916668,144.69052182916667,77.0,103.0
162,144.85987632916667,145.42035907916667,76.0,103.0
163,145.50503632916667,146.08433624583336,74.0,95.0
164,146.47277632916666,146.81551757916668,77.0,93.0
165,147.11793632916667,147.30745207916667,76.0,93.0
166,147.44051632916666,147.9942786625,74.0,95.0
167,148.0856763291667,148.36390157916668,72.0,87.0
168,148.40825632916665,148.60046024583335,74.0,72.0
169,148.73083632916666,149.80341482916668,74.0,95.0
170,150.02115632916667,150.24024191249998,72.0,93.0
171,150.3437363291667,150.51712307916665,74.0,102.0
172,150.66631632916665,151.1071756625,81.0,93.0
173,151.31147632916668,154.2563629125,79.0,93.0
174,154.8598563291667,155.08028599583332,77.0,102.0
175,155.18243632916665,155.69587616249999,79.0,93.0
176,155.82759632916668,156.34775657916668,77.0,102.0
177,156.47275632916666,157.17033557916668,72.0,93.0
178,157.44049632916665,157.66227007916666,77.0,105.0
179,157.76307632916667,158.2644194125,79.0,80.0
180,158.40823632916667,158.87463324583334,77.0,102.0
181,159.05339632916667,159.63807257916667,74.0,87.0
182,160.34371632916668,160.48350099583334,72.0,93.0
183,160.66629632916667,160.8450594125,74.0,87.0
184,160.98887632916666,161.4136066625,81.0,87.0
185,161.6340363291667,164.31817074583336,79.0,95.0
186,165.18241632916667,165.37596432916666,81.0,93.0
187,165.50499632916666,165.93510299583335,79.0,93.0
188,166.15015632916666,166.6595639125,77.0,102.0
189,166.79531632916667,167.38671299583334,72.0,95.0
190,167.76305632916666,167.97676557916668,81.0,93.0
191,168.08563632916668,168.56547407916668,79.0,83.0
192,168.73079632916665,169.1756879125,81.0,87.0
193,169.37595632916668,169.96869707916667,74.0,93.0
194,170.66627632916666,170.79396424583334,72.0,93.0
195,170.98885632916665,171.1009964125,77.0,95.0
196,171.31315803541668,171.44829282708335,79.0,87.0
197,171.63748153541667,171.81315676458334,81.0,87.0
198,171.9618050354167,172.36720941041668,81.0,93.0
199,172.93477553541666,173.0361266291667,79.0,83.0
200,173.25909903541668,174.49905151250002,77.0,93.0
201,178.11071692916667,178.3015767625,82.0,103.0
202,178.43329692916666,178.99781192916666,82.0,93.0
203,179.07845692916666,179.27066084583333,81.0,93.0
204,179.40103692916668,179.59861717916667,79.0,103.0
205,179.72361692916667,180.4668950125,82.0,103.0
206,180.69135692916666,180.88759309583332,82.0,102.0
207,181.01393692916668,181.5636670125,82.0,93.0
208,181.65909692916668,181.8459245125,81.0,102.0
209,181.98167692916667,182.1765690125,79.0,103.0
210,182.30425692916668,182.71017009583335,81.0,93.0
211,183.27199692916668,183.4991470125,81.0,93.0
212,183.59457692916666,184.1120490125,79.0,102.0
213,184.23973692916667,184.4547902625,79.0,102.0
214,184.56231692916668,184.8136605125,81.0,93.0
215,184.88489692916667,185.19000384583333,77.0,103.0
216,185.20747692916666,185.63086317916668,74.0,74.0
217,185.85263692916666,186.03677634583335,74.0,103.0
218,186.17521692916668,187.00317226250002,77.0,102.0
219,187.14295692916667,187.3418812625,84.0,87.0
220,187.46553692916666,188.20209459583333,82.0,95.0
221,188.43327692916668,188.64160984583333,82.0,95.0
222,188.75585692916667,189.39160834583333,81.0,95.0
223,189.40101692916667,189.54483384583335,79.0,90.0
224,189.72359692916666,189.9830050125,79.0,105.0
225,190.04617692916668,190.7773582625,82.0,103.0
226,191.01391692916667,191.25585192916668,84.0,93.0
227,191.33649692916669,191.91176459583335,82.0,93.0
228,191.98165692916666,192.2209037625,81.0,93.0
229,192.30423692916668,192.54079559583334,79.0,105.0
230,192.62681692916667,193.22627809583335,81.0,93.0
231,193.59455692916669,193.78272859583333,81.0,93.0
232,193.91713692916667,194.4184800125,79.0,93.0
233,194.56229692916668,194.77869434583334,79.0,87.0
234,194.88487692916667,195.11605926250002,81.0,85.0
235,195.20745692916668,195.4950907625,77.0,93.0
236,195.53003692916667,195.9668640125,74.0,95.0
237,196.49777692916666,196.7168625125,72.0,93.0
238,196.82035692916668,196.99374367916667,74.0,102.0
239,197.14293692916667,197.58379626250002,81.0,93.0
240,197.78809692916667,200.7329835125,79.0,93.0
241,201.33647692916668,201.55690659583334,77.0,102.0
242,201.65905692916667,202.1724967625,79.0,93.0
243,202.30421692916667,202.82437717916667,77.0,102.0
244,202.94937692916668,203.64695617916666,72.0,93.0
245,203.91711692916667,204.13889067916668,77.0,105.0
246,204.23969692916668,204.7410400125,79.0,80.0
247,204.8848569291667,205.35125384583333,77.0,102.0
248,205.53001692916666,206.11469317916666,74.0,87.0
249,206.82033692916667,206.96012159583333,72.0,93.0
250,207.1429169291667,207.3216800125,74.0,87.0
251,207.46549692916668,207.8902272625,81.0,87.0
252,208.11065692916668,210.79479134583335,79.0,95.0
253,211.6590369291667,211.85258492916668,81.0,93.0
254,211.98161692916668,212.41172359583334,79.0,93.0
255,212.62677692916668,213.1361845125,77.0,102.0
256,213.27193692916666,213.86333359583335,72.0,95.0
257,214.23967692916668,214.45338617916667,81.0,93.0
258,214.56225692916667,215.04209467916667,79.0,83.0
259,215.20741692916667,215.6523085125,81.0,87.0
260,215.85257692916667,216.44531767916666,74.0,93.0
261,217.14289692916668,217.27058484583335,72.0,93.0
262,217.46547692916667,217.57703584583334,77.0,95.0
263,217.78805692916666,217.9224652625,79.0,87.0
264,218.11063692916667,218.28536776250002,81.0,87.0
265,218.4332169291667,218.83644192916668,81.0,93.0
266,219.40095692916668,219.5017631791667,79.0,83.0
267,219.72353692916667,220.9587495125,77.0,93.0
268,222.62675692916667,223.1388526791667,72.0,105.0
269,223.27191692916668,223.7772922625,84.0,93.0
270,223.91707692916668,224.7289032625,77.0,105.0
271,224.88481692916667,227.54610192916667,79.0,95.0
272,227.78803692916668,228.23964892916666,74.0,110.0
273,228.43319692916668,228.89959384583335,86.0,102.0
274,229.07835692916666,229.92512942916667,79.0,103.0
275,230.04609692916668,232.60388751250002,81.0,93.0
276,232.94931692916668,233.46141267916667,72.0,105.0
277,233.59447692916666,234.0998522625,84.0,93.0
278,234.23963692916666,235.05146326250002,77.0,105.0
279,235.20737692916668,237.86866192916668,79.0,95.0
280,238.11059692916666,238.56220892916667,74.0,110.0
281,238.75575692916667,239.22215384583333,86.0,102.0
282,239.40091692916667,243.2691887625,81.0,103.0
283,243.2718769291667,243.78397267916668,72.0,105.0
284,243.91703692916667,244.42241226250002,84.0,93.0
285,244.56219692916667,245.3740232625,77.0,105.0
286,245.5299369291667,248.19122192916666,79.0,95.0
287,248.43315692916667,248.88476892916668,74.0,110.0
288,249.07831692916668,249.54471384583334,86.0,102.0
289,249.72347692916668,250.57024942916667,79.0,103.0
290,250.69121692916667,253.24900751250001,81.0,93.0
291,253.59443692916668,254.10653267916666,72.0,105.0
292,254.23959692916668,254.74497226250003,84.0,93.0
293,254.88475692916666,255.6965832625,77.0,80.0
294,255.85249692916668,258.51378192916667,79.0,69.0
295,258.7557169291667,259.2073289291667,74.0,33.0
296,259.40087692916666,259.8672738458333,86.0,27.0
297,260.0460369291667,263.9143087625,81.0,19.0
