,start,end,pitch,velocity
0,1.9032220000000002,2.3561780833333335,57.0,74.0
1,1.9032220000000002,2.3628985,62.0,87.0
2,2.548382,2.6465000833333336,57.0,93.0
3,2.548382,2.6639731666666666,65.0,87.0
4,3.032252,3.1209615000000004,57.0,80.0
5,3.032252,3.1626280833333333,65.0,83.0
6,3.1935420000000003,3.3225740000000004,62.0,87.0
7,3.354832,3.5134338333333335,57.0,87.0
8,3.838702,4.053755333333333,57.0,90.0
9,3.838702,4.10079825,62.0,102.0
10,4.161282,4.275529083333334,57.0,63.0
11,1.9032220000000002,4.309131166666667,50.0,87.0
12,4.483862,4.869613916666667,62.0,74.0
13,4.483862,4.8723020833333335,57.0,72.0
14,5.129022,5.23789275,57.0,95.0
15,5.129022,5.256709916666667,65.0,87.0
16,5.612892,5.719074583333334,57.0,80.0
17,5.612892,5.728483166666667,62.0,80.0
18,5.935472000000001,6.112891,57.0,87.0
19,6.096762,6.21369725,62.0,80.0
20,6.419342,6.60885775,62.0,93.0
21,6.419342,6.626330833333334,57.0,93.0
22,4.483862,6.837351916666667,50.0,70.0
23,7.064502,7.489232333333334,62.0,72.0
24,7.064502,7.493264583333334,57.0,71.0
25,7.709662000000001,7.81853275,57.0,87.0
26,7.709662000000001,7.829285416666667,65.0,85.0
27,8.193532000000001,8.329284416666667,57.0,80.0
28,8.193532000000001,8.334660750000001,65.0,74.0
29,8.516112,8.623638666666666,62.0,68.0
30,8.677402,8.819874833333333,57.0,69.0
31,7.064502,8.946218666666667,50.0,80.0
32,8.999982000000001,9.2499815,57.0,74.0
33,8.999982000000001,9.370949000000001,62.0,80.0
34,8.999982000000001,9.422024166666667,50.0,80.0
35,9.322562000000001,9.450249916666667,57.0,80.0
36,9.645142,10.16127,57.0,80.0
37,9.645142,10.169334500000001,62.0,83.0
38,10.290302,10.497290833333334,65.0,87.0
39,10.290302,10.6209465,57.0,90.0
40,10.774172,11.37497725,65.0,87.0
41,10.774172,11.417987916666668,57.0,93.0
42,11.580622,11.712342166666668,62.0,103.0
43,11.741912000000001,11.916642833333334,57.0,90.0
44,11.903202,12.028201750000001,62.0,68.0
45,9.645142,12.064492000000001,50.0,87.0
46,12.064492000000001,12.163954166666667,57.0,70.0
47,12.225782,12.678738083333334,57.0,74.0
48,12.225782,12.685458500000001,62.0,87.0
49,12.870942000000001,12.969060083333334,57.0,93.0
50,12.870942000000001,12.986533166666668,65.0,87.0
51,13.354812,13.443521500000001,57.0,80.0
52,13.354812,13.485188083333334,65.0,83.0
53,13.516102,13.645134,62.0,87.0
54,13.677392000000001,13.835993833333335,57.0,87.0
55,14.161262,14.376315333333334,57.0,90.0
56,14.161262,14.423358250000001,62.0,102.0
57,14.483842000000001,14.598089083333335,57.0,63.0
58,12.225782,14.631691166666668,50.0,87.0
59,14.806422000000001,15.192173916666668,62.0,74.0
60,14.806422000000001,15.194862083333334,57.0,72.0
61,15.451582,15.560452750000001,57.0,95.0
62,15.451582,15.579269916666668,65.0,87.0
63,15.935452000000002,16.041634583333334,57.0,80.0
64,15.935452000000002,16.051043166666666,62.0,80.0
65,16.258032,16.435451,57.0,87.0
66,16.419322,16.536257250000002,62.0,80.0
67,16.741902,16.93141775,62.0,93.0
68,16.741902,16.948890833333333,57.0,93.0
69,14.806422000000001,17.15991191666667,50.0,70.0
70,17.387062,17.811792333333333,62.0,72.0
71,17.387062,17.815824583333335,57.0,71.0
72,18.032222,18.141092750000002,57.0,87.0
73,18.032222,18.151845416666667,65.0,85.0
74,18.516092,18.651844416666666,57.0,80.0
75,18.516092,18.65722075,65.0,74.0
76,18.838672000000003,18.946198666666668,62.0,68.0
77,18.999962,19.142434833333333,57.0,69.0
78,17.387062,19.26877866666667,50.0,80.0
79,19.322542000000002,19.5725415,57.0,74.0
80,19.322542000000002,19.693509000000002,62.0,80.0
81,19.322542000000002,19.74458416666667,50.0,80.0
82,19.645122,19.772809916666667,57.0,80.0
83,19.939476250000002,20.356142083333335,62.0,87.0
84,19.942164416666667,20.370927000000002,57.0,83.0
85,20.603453416666667,20.72979725,57.0,95.0
86,20.600765250000002,20.80103366666667,65.0,103.0
87,20.24592725,21.14377491666667,45.0,56.0
88,19.934099916666668,21.151839416666668,38.0,87.0
89,21.104796500000003,21.176032916666667,57.0,93.0
90,21.258022,22.048343000000003,38.0,102.0
91,21.258022,22.403181,57.0,87.0
92,21.2660865,22.416621833333334,62.0,93.0
93,22.548342,22.7660835,57.0,68.0
94,22.548342,22.795653333333334,50.0,85.0
95,22.548342,22.912588583333335,62.0,71.0
96,23.193502000000002,23.38570591666667,62.0,87.0
97,22.870922,23.408555333333336,50.0,78.0
98,23.193502000000002,23.56312491666667,57.0,80.0
99,23.838662000000003,23.999952,50.0,78.0
100,23.838662000000003,24.22441391666667,65.0,102.0
101,24.483822,24.665273250000002,57.0,80.0
102,24.483822,24.827907333333336,62.0,103.0
103,24.161242,24.919305,50.0,78.0
104,25.128982,25.313121416666668,57.0,74.0
105,25.128982,25.451562000000003,50.0,80.0
106,25.128982,25.627636916666667,65.0,80.0
107,25.451562000000003,25.735163583333335,50.0,74.0
108,25.774142,26.096722000000003,57.0,78.0
109,25.774142,26.123603666666668,62.0,95.0
110,26.419302000000002,26.580592000000003,50.0,78.0
111,26.258012,26.667957416666667,57.0,93.0
112,26.419302000000002,26.919301,65.0,103.0
113,26.741882,26.926021416666668,57.0,93.0
114,26.741882,27.064462000000002,50.0,78.0
115,27.064462000000002,27.171988666666667,57.0,93.0
116,27.064462000000002,27.181397250000003,50.0,85.0
117,27.064462000000002,27.36150441666667,62.0,87.0
118,27.387042,27.521450333333334,57.0,83.0
119,27.709622000000003,27.893761416666667,58.0,64.0
120,27.709622000000003,28.032202,46.0,68.0
121,27.709622000000003,28.073868583333336,62.0,80.0
122,28.032202,28.354782,46.0,78.0
123,28.354782,28.628975,58.0,72.0
124,28.354782,28.904512083333334,62.0,72.0
125,28.838652000000003,29.07117841666667,58.0,93.0
126,28.999942,29.322522000000003,46.0,78.0
127,28.999942,29.387038,62.0,83.0
128,28.999942,29.388382083333337,65.0,90.0
129,29.322522000000003,29.645102,46.0,78.0
130,29.645102,29.822521000000002,58.0,95.0
131,29.645102,29.975746500000003,62.0,93.0
132,29.967682000000003,30.112843,58.0,61.0
133,30.290262000000002,30.451552000000003,41.0,83.0
134,30.290262000000002,30.70423966666667,53.0,66.0
135,30.290262000000002,30.731121333333334,57.0,80.0
136,30.612842,30.935422000000003,41.0,78.0
137,30.612842,31.13569041666667,48.0,68.0
138,30.935422000000003,31.146443083333335,53.0,93.0
139,30.935422000000003,31.2499375,60.0,80.0
140,31.419292000000002,31.580582000000003,53.0,78.0
141,31.580582000000003,31.903162000000002,48.0,70.0
142,31.580582000000003,32.001280083333334,65.0,95.0
143,31.903162000000002,32.07117241666667,53.0,102.0
144,32.225742000000004,32.30101066666667,53.0,87.0
145,31.903162000000002,32.387032000000005,48.0,78.0
146,32.225742000000004,32.54160158333333,57.0,102.0
147,32.225742000000004,32.57520366666667,60.0,87.0
148,32.548322,32.69751525,53.0,105.0
149,32.870902,33.193482,43.0,90.0
150,32.870902,33.33461075,55.0,80.0
151,33.193482,33.516062000000005,43.0,78.0
152,33.516062000000005,33.99858791666667,50.0,80.0
153,33.516062000000005,34.01202875,62.0,87.0
154,33.999932,34.310415250000005,50.0,71.0
155,34.161222,34.322512,43.0,78.0
156,34.161222,34.47036116666667,55.0,85.0
157,34.161222,34.79428525,62.0,93.0
158,34.483802000000004,34.806382,43.0,78.0
159,34.483802000000004,34.959607500000004,50.0,74.0
160,34.806382,35.13971466666667,55.0,105.0
161,35.128962,35.25664991666667,62.0,87.0
162,35.451542,35.612832000000004,45.0,87.0
163,35.451542,35.86820783333334,57.0,83.0
164,35.774122000000006,36.096702,45.0,78.0
165,35.451542,36.1531535,64.0,87.0
166,36.096702,36.339981083333335,52.0,71.0
167,36.096702,36.403153,57.0,105.0
168,36.580572000000004,36.88567891666667,52.0,74.0
169,36.741862000000005,36.903152000000006,45.0,78.0
170,36.741862000000005,37.08594733333334,60.0,93.0
171,37.064442,37.26471041666667,57.0,69.0
172,37.064442,37.387022,45.0,78.0
173,37.387022,37.51874216666667,57.0,102.0
174,37.387022,37.7176665,64.0,102.0
175,37.709602000000004,37.88836508333333,57.0,93.0
176,38.032182,38.354762,46.0,71.0
177,38.032182,38.362826500000004,58.0,70.0
178,38.354762,38.677342,46.0,78.0
179,38.032182,38.708255916666666,62.0,87.0
180,38.677342,39.126265833333335,53.0,70.0
181,38.677342,39.376265333333336,58.0,93.0
182,39.322502,39.645082,46.0,78.0
183,39.322502,39.74588825,65.0,102.0
184,39.645082,39.84535041666667,58.0,87.0
185,39.645082,39.967662000000004,46.0,78.0
186,39.967662000000004,40.02142533333333,58.0,60.0
187,39.161212,40.064436,53.0,87.0
188,39.967662000000004,40.26873666666667,62.0,87.0
189,40.290242,40.448843833333335,58.0,69.0
190,40.612822,40.935402,38.0,90.0
191,40.612822,41.098036083333334,57.0,70.0
192,40.612822,41.22034766666667,62.0,74.0
193,40.935402,41.419272,38.0,78.0
194,41.257982000000005,41.619540416666666,62.0,80.0
195,41.257982000000005,41.741852,45.0,93.0
196,41.741852,41.948840833333335,57.0,93.0
197,41.903142,42.064432000000004,38.0,78.0
198,41.903142,42.25798,65.0,95.0
199,42.225722000000005,42.403141000000005,57.0,93.0
200,42.548302,42.9757205,57.0,80.0
201,42.548302,42.9918495,62.0,83.0
202,42.225722000000005,43.032172,38.0,78.0
203,43.193462000000004,43.4112035,57.0,68.0
204,43.193462000000004,43.44077333333333,50.0,85.0
205,43.193462000000004,43.55770858333334,62.0,71.0
206,43.838622,44.03082591666667,62.0,87.0
207,43.516042000000006,44.05367533333334,50.0,78.0
208,43.838622,44.20824491666667,57.0,80.0
209,44.483782000000005,44.645072000000006,50.0,78.0
210,44.483782000000005,44.86953391666667,65.0,102.0
211,45.128942,45.310393250000004,57.0,80.0
212,45.128942,45.473027333333334,62.0,103.0
213,44.806362,45.564425,50.0,78.0
214,45.774102000000006,45.95824141666667,57.0,74.0
215,45.774102000000006,46.096682,50.0,80.0
216,45.774102000000006,46.27275691666667,65.0,80.0
217,46.096682,46.38028358333334,50.0,74.0
218,46.419262,46.741842000000005,57.0,78.0
219,46.419262,46.768723666666666,62.0,95.0
220,47.064422,47.225712,50.0,78.0
221,46.903132,47.31307741666667,57.0,93.0
222,47.064422,47.564421,65.0,103.0
223,47.387002,47.57114141666667,57.0,93.0
224,47.387002,47.709582000000005,50.0,78.0
225,47.709582000000005,47.81710866666667,57.0,93.0
226,47.709582000000005,47.82651725,50.0,85.0
227,47.709582000000005,48.00662441666667,62.0,87.0
228,48.032162,48.16657033333334,57.0,83.0
229,48.354742,48.53888141666667,58.0,64.0
230,48.354742,48.677322000000004,46.0,68.0
231,48.354742,48.718988583333335,62.0,80.0
232,48.677322000000004,48.999902000000006,46.0,78.0
233,48.999902000000006,49.274095,58.0,72.0
234,48.999902000000006,49.549632083333336,62.0,72.0
235,49.483772,49.71629841666667,58.0,93.0
236,49.645062,49.967642000000005,46.0,78.0
237,49.645062,50.032158,62.0,83.0
238,49.645062,50.03350208333334,65.0,90.0
239,49.967642000000005,50.290222,46.0,78.0
240,50.290222,50.467641,58.0,95.0
241,50.290222,50.620866500000005,62.0,93.0
242,50.612802,50.757963000000004,58.0,61.0
243,50.935382000000004,51.096672000000005,41.0,83.0
244,50.935382000000004,51.34935966666667,53.0,66.0
245,50.935382000000004,51.37624133333334,57.0,80.0
246,51.257962000000006,51.580542,41.0,78.0
247,51.257962000000006,51.78081041666667,48.0,68.0
248,51.580542,51.79156308333334,53.0,93.0
249,51.580542,51.8950575,60.0,80.0
250,52.064412000000004,52.225702000000005,53.0,78.0
251,52.225702000000005,52.548282,48.0,70.0
252,52.225702000000005,52.64640008333333,65.0,95.0
253,52.548282,52.71629241666667,53.0,102.0
254,52.870862,52.94613066666667,53.0,87.0
255,52.548282,53.032152,48.0,78.0
256,52.870862,53.18672158333334,57.0,102.0
257,52.870862,53.22032366666667,60.0,87.0
258,53.193442000000005,53.34263525,53.0,105.0
259,53.51602200000001,53.838602,43.0,90.0
260,53.51602200000001,53.97973075,55.0,80.0
261,53.838602,54.161182000000004,43.0,78.0
262,54.161182000000004,54.64370791666667,50.0,80.0
263,54.161182000000004,54.657148750000005,62.0,87.0
264,54.64505200000001,54.955535250000004,50.0,71.0
265,54.806342,54.967632,43.0,78.0
266,54.806342,55.11548116666667,55.0,85.0
267,54.806342,55.43940525,62.0,93.0
268,55.128922,55.451502000000005,43.0,78.0
269,55.128922,55.6047275,50.0,74.0
270,55.451502000000005,55.78483466666667,55.0,105.0
271,55.774082,55.90176991666667,62.0,87.0
272,56.096662,56.257952,45.0,87.0
273,56.096662,56.513327833333335,57.0,83.0
274,56.419242000000004,56.741822000000006,45.0,78.0
275,56.096662,56.7982735,64.0,87.0
276,56.741822000000006,56.98564592708333,52.0,71.0
277,56.741822000000006,57.049159279166666,57.0,105.0
278,57.227537204166666,57.53429318125,52.0,74.0
279,57.38969895416667,57.55186070416667,45.0,78.0
280,57.38969895416667,57.735644020833334,60.0,93.0
281,57.71402245416667,57.91537329375,57.0,69.0
282,57.71402245416667,58.038345954166665,45.0,78.0
283,58.038345954166665,58.17077805,57.0,102.0
284,58.038345954166665,58.37077754166667,64.0,102.0
285,58.36266945416667,58.54239872708334,57.0,93.0
286,58.68699295416667,59.01131645416667,46.0,71.0
287,58.68699295416667,59.019424541666666,58.0,70.0
288,59.01131645416667,59.335639954166666,46.0,78.0
289,58.68699295416667,59.36672095625,62.0,87.0
290,59.335639954166666,59.78699015833334,53.0,70.0
291,59.335639954166666,60.03834087083334,58.0,93.0
292,59.98428695416667,60.30861045416667,46.0,78.0
293,59.98428695416667,60.409961547916666,65.0,102.0
294,60.30861045416667,60.50996129375,58.0,87.0
295,60.30861045416667,60.63293395416667,46.0,78.0
296,60.63293395416667,60.686987870833335,58.0,60.0
297,59.82212520416667,60.73023100416667,53.0,87.0
298,60.63293395416667,60.9356358875,62.0,87.0
299,60.957257454166665,61.11671650833333,58.0,69.0
300,61.28158095416667,61.60590445416667,38.0,90.0
301,61.28158095416667,61.76941755208333,57.0,70.0
302,61.28158095416667,61.892390212500004,62.0,74.0
303,61.60590445416667,62.09238970416667,38.0,78.0
304,61.93022795416667,62.293740543750005,62.0,80.0
305,61.93022795416667,62.41671320416667,45.0,93.0
306,62.41671320416667,62.624820783333334,57.0,93.0
307,62.578874954166665,62.74103670416667,38.0,78.0
308,62.578874954166665,62.93563080416667,65.0,95.0
309,62.90319845416667,63.08157637916667,57.0,93.0
310,63.22752195416667,63.65725059166667,57.0,80.0
311,63.22752195416667,63.67346676666667,62.0,83.0
312,62.90319845416667,63.71400720416667,38.0,78.0
313,63.876168954166666,64.03833070416667,48.0,93.0
314,63.876168954166666,64.284276025,60.0,80.0
315,63.876168954166666,64.32751915833333,67.0,80.0
316,64.20049245416666,64.36265420416667,48.0,78.0
317,64.52481595416667,64.70049118333334,55.0,68.0
318,64.52481595416667,64.90724741458334,60.0,87.0
319,64.52481595416667,64.9248149375,64.0,93.0
320,65.01130120416667,65.31535448541666,55.0,65.0
321,65.17346295416667,65.33562470416666,48.0,78.0
322,65.17346295416667,65.63292124583333,60.0,93.0
323,65.17346295416667,65.65319146458333,67.0,83.0
324,65.49778645416667,65.82210995416666,48.0,78.0
325,65.49778645416667,65.91535296041667,55.0,60.0
326,65.82210995416666,65.93292048333333,60.0,87.0
327,65.82210995416666,66.0923795375,64.0,102.0
328,66.14643345416667,66.2545412875,60.0,87.0
329,66.47075695416666,66.79508045416667,46.0,85.0
330,66.47075695416666,66.90573116249999,58.0,59.0
331,66.79508045416667,67.11809632916666,46.0,78.0
332,66.47075695416666,67.19067682916666,62.0,67.0
333,67.11809632916666,67.31030024583333,53.0,69.0
334,67.11809632916666,67.58852549583332,58.0,95.0
335,67.60196632916666,67.89632057916667,53.0,71.0
336,67.76325632916667,68.08583632916667,46.0,78.0
337,67.76325632916667,68.20545974583332,58.0,72.0
338,67.76325632916667,68.24712632916666,65.0,93.0
339,68.08583632916667,68.45949149583333,53.0,64.0
340,68.40841632916667,68.50519032916667,58.0,87.0
341,68.40841632916667,68.59255574583332,65.0,93.0
342,68.08583632916667,68.73099632916666,46.0,78.0
343,69.05357632916666,69.21486632916667,41.0,83.0
344,69.05357632916666,69.2484684125,57.0,80.0
345,69.05357632916666,69.54147857916666,60.0,80.0
346,69.37615632916666,69.69873632916666,41.0,78.0
347,69.37615632916666,69.76325232916666,57.0,71.0
348,69.69873632916666,70.01593999583334,65.0,87.0
349,69.69873632916666,70.0589506625,60.0,93.0
350,70.18260632916666,70.3533049125,57.0,64.0
351,70.34389632916667,70.3533049125,57.0,90.0
352,70.34389632916667,70.50518632916666,41.0,78.0
353,70.34389632916667,70.70007841249999,60.0,93.0
354,70.66647632916667,70.93932524583333,57.0,72.0
355,70.98905632916666,71.31432449583333,60.0,80.0
356,70.66647632916667,71.47292632916667,41.0,78.0
357,71.31163632916666,71.49174349583333,57.0,90.0
358,71.63421632916666,71.95679632916666,43.0,87.0
359,71.95679632916666,72.27937632916667,43.0,78.0
360,71.63421632916666,72.31163432916667,58.0,90.0
361,72.27937632916667,72.69738624583333,55.0,93.0
362,72.76324632916666,72.88286974583333,58.0,83.0
363,72.92453632916667,73.09657899583333,55.0,103.0
364,72.92453632916667,73.24711632916666,43.0,78.0
365,72.92453632916667,73.31835274583332,62.0,87.0
366,73.24711632916666,73.4137826625,55.0,93.0
367,73.24711632916666,73.56969632916666,43.0,78.0
368,73.56969632916666,73.65302949583334,55.0,80.0
369,73.56969632916666,73.74577124583332,58.0,93.0
370,71.95679632916666,73.9581364125,50.0,69.0
371,73.56969632916666,74.06835124583333,62.0,93.0
372,73.89227632916666,74.07775982916667,55.0,102.0
373,74.21485632916666,74.3573291625,55.0,102.0
374,74.21485632916666,74.53743632916667,48.0,74.0
375,74.21485632916666,74.60464049583334,60.0,93.0
376,74.53743632916667,74.67856507916666,55.0,83.0
377,74.53743632916667,74.86001632916667,48.0,78.0
378,74.86001632916667,74.96082257916666,55.0,93.0
379,74.86001632916667,75.32103691249999,64.0,102.0
380,75.34388632916666,75.51324082916666,55.0,74.0
381,75.50517632916666,75.51324082916666,55.0,102.0
382,75.50517632916666,75.66646632916667,48.0,78.0
383,75.50517632916666,75.9742614125,60.0,102.0
384,75.82775632916666,76.06297091249999,55.0,71.0
385,75.82775632916666,76.15033632916666,48.0,78.0
386,76.15033632916666,76.56969032916666,64.0,105.0
387,76.47291632916667,76.74307707916667,55.0,103.0
388,76.79549632916667,76.95678632916666,46.0,74.0
389,77.11807632916667,77.44065632916667,46.0,78.0
390,76.79549632916667,77.44872082916666,62.0,87.0
391,77.11807632916667,77.6153871625,53.0,72.0
392,77.44065632916667,77.92721449583333,58.0,87.0
393,78.08581632916666,78.2282891625,58.0,90.0
394,78.08581632916666,78.40839632916666,46.0,60.0
395,78.08581632916666,78.52936382916667,65.0,93.0
396,78.40839632916666,78.55758957916666,58.0,87.0
397,78.40839632916666,78.73097632916667,46.0,78.0
398,77.92452632916667,78.77398699583333,53.0,70.0
399,78.73097632916667,78.88420182916667,58.0,93.0
400,78.73097632916667,78.99307257916666,62.0,93.0
401,79.37613632916667,79.69871632916667,41.0,83.0
402,79.37613632916667,79.83984507916666,57.0,80.0
403,79.37613632916667,80.11269399583333,60.0,72.0
404,79.69871632916667,80.34387632916666,41.0,78.0
405,80.02129632916666,80.38285474583333,57.0,102.0
406,80.34387632916666,80.53339207916666,60.0,102.0
407,80.66645632916666,80.8250581625,57.0,87.0
408,80.66645632916666,80.82774632916667,41.0,78.0
409,80.98903632916667,81.22290682916666,57.0,72.0
410,80.66645632916666,81.23500357916666,65.0,87.0
411,80.50516632916667,81.45677732916667,48.0,59.0
412,81.31161632916667,81.56161582916667,60.0,105.0
413,80.98903632916667,81.63419632916667,41.0,78.0
414,81.63419632916667,81.73500257916666,57.0,95.0
415,81.95677632916667,82.11806632916667,43.0,90.0
416,81.95677632916667,82.52532357916667,55.0,80.0
417,81.95677632916667,82.61672124583333,62.0,80.0
418,82.27935632916666,82.76322632916667,43.0,78.0
419,82.60193632916666,82.9137636625,58.0,85.0
420,82.92451632916666,83.05623649583333,55.0,102.0
421,83.24709632916667,83.37075199583333,55.0,95.0
422,83.24709632916667,83.56967632916667,43.0,78.0
423,83.24709632916667,83.6234396625,62.0,93.0
424,83.56967632916667,83.77935332916667,55.0,74.0
425,83.89225632916666,84.19736324583333,58.0,85.0
426,83.08580632916667,84.22693307916666,50.0,72.0
427,83.89225632916666,84.2282771625,62.0,93.0
428,84.21483632916667,84.36537366249999,55.0,93.0
429,83.56967632916667,84.37612632916667,43.0,78.0
430,84.53741632916666,84.85999632916666,41.0,87.0
431,84.85999632916666,85.02128632916666,41.0,78.0
432,84.53741632916666,85.17047957916667,57.0,83.0
433,85.18257632916666,85.3008556625,60.0,93.0
434,85.18257632916666,85.58848949583333,53.0,87.0
435,85.50515632916667,85.72424191249999,57.0,103.0
436,85.82773632916667,85.86671474583333,57.0,49.0
437,85.82773632916667,86.15031632916666,41.0,78.0
438,85.82773632916667,86.20139149583333,65.0,95.0
439,86.15031632916666,86.29413324583334,57.0,87.0
440,86.47289632916667,86.6113369125,57.0,93.0
441,86.47289632916667,86.85192782916667,60.0,102.0
442,86.15031632916666,86.95676632916667,41.0,78.0
443,85.66644632916666,86.97289532916666,48.0,66.0
444,86.79547632916666,87.04413174583334,57.0,85.0
445,87.11805632916666,87.44063632916667,41.0,87.0
446,87.11805632916666,87.57370057916667,65.0,80.0
447,87.11805632916666,87.58579732916667,57.0,80.0
448,87.11805632916666,87.61805532916667,60.0,83.0
449,87.76321632916667,87.8935924125,57.0,93.0
450,87.44063632916667,88.08579632916667,41.0,78.0
451,87.76321632916667,88.1677854125,60.0,93.0
452,88.08579632916667,88.22289282916667,57.0,74.0
453,88.40837632916666,88.5145589125,57.0,87.0
454,88.40837632916666,88.5790749125,65.0,87.0
455,88.40837632916666,88.73095632916667,41.0,78.0
456,88.73095632916667,88.8976226625,57.0,85.0
457,89.05353632916666,89.16240707916667,57.0,90.0
458,89.05353632916666,89.3169766625,60.0,93.0
459,87.44063632916667,89.3693959125,48.0,59.0
460,89.37611632916666,89.47961074583333,57.0,80.0
461,88.73095632916667,89.53740632916666,41.0,78.0
462,89.69869632916667,90.02127632916667,43.0,90.0
463,89.69869632916667,90.12073849583334,62.0,85.0
464,89.69869632916667,90.13821157916666,55.0,83.0
465,90.02127632916667,90.34385632916667,43.0,78.0
466,90.02127632916667,90.52530757916666,50.0,69.0
467,90.34385632916667,90.68928574583333,55.0,93.0
468,90.34385632916667,90.73767274583334,58.0,93.0
469,90.82772632916667,91.1314891625,50.0,72.0
470,90.98901632916666,91.31159632916666,43.0,78.0
471,90.98901632916666,91.32772532916667,62.0,93.0
472,90.98901632916666,91.4056821625,55.0,90.0
473,91.63417632916666,91.78202549583332,55.0,85.0
474,91.63417632916666,91.93525099583333,58.0,93.0
475,91.31159632916666,92.11804632916666,43.0,78.0
476,91.31159632916666,92.13686349583332,50.0,67.0
477,91.95675632916667,92.1516484125,55.0,93.0
478,92.27933632916667,92.43121774583334,55.0,93.0
479,92.27933632916667,92.60191632916667,48.0,68.0
480,92.27933632916667,92.6556796625,60.0,87.0
481,92.60191632916667,92.93524899583333,55.0,80.0
482,92.60191632916667,93.24707632916666,48.0,78.0
483,92.92449632916666,93.33040949583334,64.0,105.0
484,93.40836632916667,93.63686049583333,55.0,103.0
485,93.56965632916666,93.73094632916667,48.0,66.0
486,93.56965632916666,93.94868782916666,60.0,93.0
487,93.89223632916666,94.1153541625,55.0,103.0
488,94.21481632916667,94.25513882916667,55.0,64.0
489,93.89223632916666,94.37610632916666,48.0,78.0
490,94.21481632916667,94.51320282916666,60.0,103.0
491,94.21481632916667,94.55755757916667,64.0,105.0
492,94.53739632916667,94.6556756625,55.0,95.0
493,94.85997632916667,95.06830924583333,57.0,87.0
494,94.85997632916667,95.18255632916666,41.0,87.0
495,94.85997632916667,95.2484164125,60.0,93.0
496,95.18255632916666,95.5548674125,57.0,83.0
497,95.18255632916666,95.82771632916666,41.0,78.0
498,95.82771632916666,96.19330699583332,57.0,93.0
499,95.50513632916666,96.22959724583333,60.0,93.0
500,96.15029632916666,96.47287632916667,41.0,78.0
501,96.15029632916666,96.52395149583333,65.0,95.0
502,96.47287632916667,96.66239207916666,57.0,85.0
503,96.47287632916667,96.79545632916667,41.0,78.0
504,96.79545632916667,96.90298299583333,57.0,70.0
505,95.98900632916667,96.9218001625,48.0,59.0
506,96.79545632916667,97.19061682916666,60.0,103.0
507,97.11803632916667,97.34249824583333,57.0,90.0
508,97.44061632916666,97.76319632916666,41.0,74.0
509,97.44061632916666,97.8209919125,57.0,87.0
510,98.08577632916666,98.4903454125,65.0,87.0
511,97.76319632916666,98.56964632916666,41.0,78.0
512,98.40835632916666,98.60190432916667,57.0,95.0
513,98.08577632916666,98.61803332916666,60.0,80.0
514,98.73093632916667,98.8532479125,57.0,74.0
515,98.73093632916667,99.05351632916665,41.0,74.0
516,98.73093632916667,99.08443024583333,60.0,102.0
517,99.05351632916665,99.24168799583333,57.0,80.0
518,99.37609632916667,99.51588099583333,57.0,83.0
519,98.56964632916666,99.5951819125,48.0,56.0
520,99.37609632916667,99.70136449583333,60.0,87.0
521,99.37609632916667,99.82636424583333,65.0,87.0
522,99.69867632916666,99.8451814125,57.0,80.0
523,99.05351632916665,99.85996632916667,41.0,78.0
524,100.02125632916668,100.34383632916666,43.0,87.0
525,100.02125632916668,100.76991074583333,62.0,74.0
526,100.34383632916666,100.98899632916667,43.0,78.0
527,100.66641632916667,100.99034041249999,58.0,74.0
528,100.98899632916667,101.1516304125,55.0,93.0
529,101.31157632916666,101.42313524583332,55.0,103.0
530,101.2967914125,101.6193714125,43.0,87.0
531,101.31157632916666,101.73765074583334,62.0,87.0
532,101.63415632916667,102.0104996625,55.0,83.0
533,101.95673632916666,102.0306609125,62.0,74.0
534,101.6193714125,102.26453141249999,43.0,78.0
535,101.95673632916666,102.32904741249999,58.0,71.0
536,102.27931632916668,102.44329449583333,55.0,102.0
537,101.15028632916668,102.4500149125,50.0,74.0
538,102.60189632916666,102.75780999583333,55.0,93.0
539,102.60189632916666,102.76318632916667,48.0,80.0
540,102.60189632916666,103.01587399583333,60.0,87.0
541,102.92447632916667,103.2604971625,55.0,80.0
542,102.92447632916667,103.56963632916666,48.0,78.0
543,103.24705632916667,103.66506624583333,64.0,110.0
544,103.73092632916666,103.96479682916666,55.0,95.0
545,103.89221632916667,104.05350632916667,48.0,78.0
546,103.89221632916667,104.23898982916666,60.0,102.0
547,104.21479632916666,104.37608632916667,48.0,78.0
548,104.21479632916666,104.59382782916666,55.0,87.0
549,104.53737632916668,104.64893524583334,48.0,83.0
550,104.53737632916668,104.86802082916667,64.0,93.0
551,104.53737632916668,104.88011757916667,60.0,93.0
552,104.85995632916666,104.99033241250001,55.0,103.0
553,105.18253632916667,105.34382632916666,41.0,83.0
554,105.18253632916667,105.76990074583333,53.0,80.0
555,105.18253632916667,105.86264249583334,57.0,83.0
556,105.82769632916666,106.2443621625,60.0,87.0
557,105.50511632916667,106.31156632916667,41.0,78.0
558,106.47285632916666,106.48898532916667,60.0,34.0
559,106.15027632916667,106.49167349583334,53.0,95.0
560,106.47285632916666,106.63414632916667,41.0,78.0
561,106.47285632916666,106.9217801625,65.0,102.0
562,106.79543632916666,107.14893024583333,53.0,102.0
563,106.79543632916666,107.44059632916667,41.0,78.0
564,107.11801632916666,107.4782306625,57.0,93.0
565,106.31156632916667,107.62473574583333,48.0,69.0
566,107.44059632916667,107.8451654125,53.0,90.0
567,107.76317632916667,107.92446632916666,41.0,78.0
568,107.76317632916667,108.3411321625,57.0,93.0
569,107.76317632916667,108.43656207916666,60.0,90.0
570,108.08575632916666,108.56962632916667,41.0,78.0
571,108.40833632916667,108.90430307916667,53.0,95.0
572,108.73091632916666,108.91102349583333,57.0,87.0
573,109.05349632916666,109.21478632916666,41.0,78.0
574,109.05349632916666,109.62607582916667,65.0,95.0
575,109.69865632916667,109.87069899583332,53.0,95.0
576,109.69865632916667,110.1758059125,60.0,72.0
577,110.02123632916667,110.20940799583333,53.0,93.0
578,108.89220632916667,110.3209669125,48.0,64.0
579,109.37607632916666,110.34381632916666,41.0,78.0
580,110.34381632916666,110.56155782916667,57.0,68.0
581,110.34381632916666,110.5911276625,50.0,85.0
582,110.34381632916666,110.7080629125,62.0,71.0
583,110.98897632916666,111.18118024583333,62.0,87.0
584,110.66639632916667,111.2040296625,50.0,78.0
585,110.98897632916666,111.35859924583333,57.0,80.0
586,111.63413632916667,111.79542632916667,50.0,78.0
587,111.63413632916667,112.01988824583333,65.0,102.0
588,112.27929632916667,112.46074757916666,57.0,80.0
589,112.27929632916667,112.62338166250001,62.0,103.0
590,111.95671632916667,112.71477932916667,50.0,78.0
591,112.92445632916667,113.10859574583333,57.0,74.0
592,112.92445632916667,113.24703632916666,50.0,80.0
593,112.92445632916667,113.42311124583333,65.0,80.0
594,113.24703632916666,113.5306379125,50.0,74.0
595,113.56961632916666,113.89219632916667,57.0,78.0
596,113.56961632916666,113.91907799583333,62.0,95.0
597,114.21477632916667,114.37606632916666,50.0,78.0
598,114.05348632916667,114.46343174583333,57.0,93.0
599,114.21477632916667,114.71477532916666,65.0,103.0
600,114.53735632916667,114.72149574583332,57.0,93.0
601,114.53735632916667,114.85993632916666,50.0,78.0
602,114.85993632916666,114.96746299583333,57.0,93.0
603,114.85993632916666,114.97687157916667,50.0,85.0
604,114.85993632916666,115.15697874583333,62.0,87.0
605,115.18251632916667,115.3169246625,57.0,83.0
606,115.50509632916666,115.68923574583334,58.0,64.0
607,115.50509632916666,115.82767632916666,46.0,68.0
608,115.50509632916666,115.8693429125,62.0,80.0
609,115.82767632916666,116.15025632916667,46.0,78.0
610,116.15025632916667,116.42444932916666,58.0,72.0
611,116.15025632916667,116.69998641250001,62.0,72.0
612,116.63412632916666,116.86665274583333,58.0,93.0
613,116.79541632916667,117.11799632916666,46.0,78.0
614,116.79541632916667,117.18251232916667,62.0,83.0
615,116.79541632916667,117.1838564125,65.0,90.0
616,117.11799632916666,117.44057632916667,46.0,78.0
617,117.44057632916667,117.61799532916666,58.0,95.0
618,117.44057632916667,117.77122082916667,62.0,93.0
619,117.76315632916666,117.90831732916666,58.0,61.0
620,118.08573632916666,118.24702632916666,41.0,83.0
621,118.08573632916666,118.49971399583333,53.0,66.0
622,118.08573632916666,118.5265956625,57.0,80.0
623,118.40831632916667,118.73089632916667,41.0,78.0
624,118.40831632916667,118.93116474583334,48.0,68.0
625,118.73089632916667,118.9419174125,53.0,93.0
626,118.73089632916667,119.04541182916667,60.0,80.0
627,119.21476632916666,119.37605632916666,53.0,78.0
628,119.37605632916666,119.69863632916667,48.0,70.0
629,119.37605632916666,119.79675441250001,65.0,95.0
630,119.69863632916667,119.86664674583334,53.0,102.0
631,120.02121632916666,120.09648499583334,53.0,87.0
632,119.69863632916667,120.18250632916667,48.0,78.0
633,120.02121632916666,120.3370759125,57.0,102.0
634,120.02121632916666,120.37067799583333,60.0,87.0
635,120.34379632916666,120.49298957916668,53.0,105.0
636,120.66637632916667,120.98895632916667,43.0,90.0
637,120.66637632916667,121.13008507916666,55.0,80.0
638,120.98895632916667,121.31153632916667,43.0,78.0
639,121.31153632916667,121.79406224583333,50.0,80.0
640,121.31153632916667,121.80750307916666,62.0,87.0
641,121.79540632916667,122.10588957916667,50.0,71.0
642,121.95669632916668,122.11798632916667,43.0,78.0
643,121.95669632916668,122.26583549583333,55.0,85.0
644,121.95669632916668,122.58975957916667,62.0,93.0
645,122.27927632916666,122.60185632916667,43.0,78.0
646,122.27927632916666,122.75508182916667,50.0,74.0
647,122.60185632916667,122.93518899583333,55.0,105.0
648,122.92443632916667,123.05212424583334,62.0,87.0
649,123.24701632916667,123.40830632916666,45.0,87.0
650,123.24701632916667,123.66368216250001,57.0,83.0
651,123.56959632916667,123.89217632916666,45.0,78.0
652,123.24701632916667,123.94862782916667,64.0,87.0
653,123.89217632916666,124.1354554125,52.0,71.0
654,123.89217632916666,124.19862732916667,57.0,105.0
655,124.37604632916667,124.68115324583334,52.0,74.0
656,124.53733632916666,124.69862632916667,45.0,78.0
657,124.53733632916666,124.8814216625,60.0,93.0
658,124.85991632916667,125.06018474583334,57.0,69.0
659,124.85991632916667,125.18249632916667,45.0,78.0
660,125.18249632916667,125.31421649583334,57.0,102.0
661,125.18249632916667,125.51314082916667,64.0,102.0
662,125.50507632916667,125.68383941249999,57.0,93.0
663,125.82765632916667,126.15023632916666,46.0,71.0
664,125.82765632916667,126.15830082916668,58.0,70.0
665,126.15023632916666,126.47281632916668,46.0,78.0
666,125.82765632916667,126.50373024583334,62.0,87.0
667,126.47281632916668,126.9217401625,53.0,70.0
668,126.47281632916668,127.1717396625,58.0,93.0
669,127.11797632916667,127.44055632916667,46.0,78.0
670,127.11797632916667,127.54136257916667,65.0,102.0
671,127.44055632916667,127.64082474583333,58.0,87.0
672,127.44055632916667,127.76313632916667,46.0,78.0
673,127.76313632916667,127.81689966249999,58.0,60.0
674,126.95668632916667,127.85991032916667,53.0,87.0
675,127.76313632916667,128.06421099583332,62.0,87.0
676,128.08571632916667,128.2443181625,58.0,69.0
677,128.40829632916666,128.73087632916668,38.0,90.0
678,128.40829632916666,128.8935104125,57.0,70.0
679,128.40829632916666,129.01582199583333,62.0,74.0
680,128.73087632916668,129.21474632916667,38.0,78.0
681,129.05345632916666,129.41501474583333,62.0,80.0
682,129.05345632916666,129.53732632916666,45.0,93.0
683,129.53732632916666,129.74431516250002,57.0,93.0
684,129.69861632916667,129.85990632916668,38.0,78.0
685,129.69861632916667,130.05345432916667,65.0,95.0
686,130.02119632916668,130.19861532916667,57.0,93.0
687,130.34377632916667,130.77119482916666,57.0,80.0
688,130.34377632916667,130.78732382916667,62.0,83.0
689,130.02119632916668,130.82764632916667,38.0,78.0
690,130.98893632916668,131.20667782916667,57.0,68.0
691,130.98893632916668,131.2362476625,50.0,85.0
692,130.98893632916668,131.35318291250002,62.0,71.0
693,131.63409632916665,131.82630024583335,62.0,87.0
694,131.31151632916666,131.8491496625,50.0,78.0
695,131.63409632916665,132.00371924583334,57.0,80.0
696,132.27925632916669,132.44054632916666,50.0,78.0
697,132.27925632916669,132.66500824583335,65.0,102.0
698,132.92441632916666,133.10586757916667,57.0,80.0
699,132.92441632916666,133.2685016625,62.0,103.0
700,132.60183632916667,133.35989932916667,50.0,78.0
701,133.56957632916667,133.75371574583335,57.0,74.0
702,133.56957632916667,133.89215632916665,50.0,80.0
703,133.56957632916667,134.06823124583332,65.0,80.0
704,133.89215632916665,134.1757579125,50.0,74.0
705,134.21473632916667,134.53731632916669,57.0,78.0
706,134.21473632916667,134.56419799583335,62.0,95.0
707,134.85989632916667,135.02118632916665,50.0,78.0
708,134.69860632916667,135.10855174583332,57.0,93.0
709,134.85989632916667,135.35989532916665,65.0,103.0
710,135.18247632916666,135.36661574583331,57.0,93.0
711,135.18247632916666,135.50505632916668,50.0,78.0
712,135.50505632916668,135.61258299583335,57.0,93.0
713,135.50505632916668,135.62199157916666,50.0,85.0
714,135.50505632916668,135.80209874583335,62.0,87.0
715,135.82763632916667,135.9620446625,57.0,83.0
716,136.15021632916665,136.33435574583334,58.0,64.0
717,136.15021632916665,136.47279632916667,46.0,68.0
718,136.15021632916665,136.5144629125,62.0,80.0
719,136.47279632916667,136.7953763291667,46.0,78.0
720,136.7953763291667,137.06956932916665,58.0,72.0
721,136.7953763291667,137.3451064125,62.0,72.0
722,137.27924632916665,137.51177274583335,58.0,93.0
723,137.44053632916666,137.76311632916668,46.0,78.0
724,137.44053632916666,137.82763232916665,62.0,83.0
725,137.44053632916666,137.8289764125,65.0,90.0
726,137.76311632916668,138.08569632916667,46.0,78.0
727,138.08569632916667,138.26311532916668,58.0,95.0
728,138.08569632916667,138.41634082916667,62.0,93.0
729,138.40827632916665,138.55343732916668,58.0,61.0
730,138.73085632916667,138.89214632916668,41.0,83.0
731,138.73085632916667,139.14483399583332,53.0,66.0
732,138.73085632916667,139.1717156625,57.0,80.0
733,139.0534363291667,139.37601632916667,41.0,78.0
734,139.0534363291667,139.57628474583333,48.0,68.0
735,139.37601632916667,139.5870374125,53.0,93.0
736,139.37601632916667,139.69053182916667,60.0,80.0
737,139.85988632916667,140.02117632916668,53.0,78.0
738,140.02117632916668,140.34375632916667,48.0,70.0
739,140.02117632916668,140.4418744125,65.0,95.0
740,140.34375632916667,140.51176674583334,53.0,102.0
741,140.66633632916665,140.7416049958333,53.0,87.0
742,140.34375632916667,140.82762632916666,48.0,78.0
743,140.66633632916665,140.9821959125,57.0,102.0
744,140.66633632916665,141.01579799583334,60.0,87.0
745,140.98891632916667,141.13810957916667,53.0,105.0
746,141.3114963291667,141.63407632916667,43.0,90.0
747,141.3114963291667,141.77520507916665,55.0,80.0
748,141.63407632916667,141.95665632916666,43.0,78.0
749,141.95665632916666,142.43918224583334,50.0,80.0
750,141.95665632916666,142.45262307916667,62.0,87.0
751,142.4405263291667,142.75100957916666,50.0,71.0
752,142.60181632916667,142.76310632916667,43.0,78.0
753,142.60181632916667,142.91095549583332,55.0,85.0
754,142.60181632916667,143.23487957916666,62.0,93.0
755,142.92439632916665,143.24697632916667,43.0,78.0
756,142.92439632916665,143.40020182916666,50.0,74.0
757,143.24697632916667,143.58030899583332,55.0,105.0
758,143.5695563291667,143.69724424583333,62.0,87.0
759,143.89213632916668,144.05342632916665,45.0,87.0
760,143.89213632916668,144.3088021625,57.0,83.0
761,144.21471632916666,144.53729632916668,45.0,78.0
762,143.89213632916668,144.59374782916666,64.0,87.0
763,144.53729632916668,144.7805754125,52.0,71.0
764,144.53729632916668,144.84374732916666,57.0,105.0
765,145.02116632916668,145.32627324583333,52.0,74.0
766,145.18245632916665,145.34374632916666,45.0,78.0
767,145.18245632916665,145.5265416625,60.0,93.0
768,145.50503632916667,145.70530474583333,57.0,69.0
769,145.50503632916667,145.8276163291667,45.0,78.0
770,145.8276163291667,145.95933649583333,57.0,102.0
771,145.8276163291667,146.15826082916666,64.0,102.0
772,146.15019632916665,146.3289594125,57.0,93.0
773,146.47277632916666,146.79535632916668,46.0,71.0
774,146.47277632916666,146.80342082916667,58.0,70.0
775,146.79535632916668,147.11793632916667,46.0,78.0
776,146.47277632916666,147.14885024583333,62.0,87.0
777,147.11793632916667,147.5668601625,53.0,70.0
778,147.11793632916667,147.8168596625,58.0,93.0
779,147.76309632916667,148.0856763291667,46.0,78.0
780,147.76309632916667,148.18648257916666,65.0,102.0
781,148.0856763291667,148.28594474583332,58.0,87.0
782,148.0856763291667,148.40825632916665,46.0,78.0
783,148.40825632916665,148.46201966249998,58.0,60.0
784,147.60180632916666,148.5050303291667,53.0,87.0
785,148.40825632916665,148.70933099583334,62.0,87.0
786,148.73083632916666,148.8894381625,58.0,69.0
787,149.05341632916668,149.37599632916667,38.0,90.0
788,149.05341632916668,149.5386304125,57.0,70.0
789,149.05341632916668,149.66094199583335,62.0,74.0
790,149.37599632916667,149.85986632916666,38.0,78.0
791,149.69857632916666,150.06013474583335,62.0,80.0
792,149.69857632916666,150.18244632916668,45.0,93.0
793,150.18244632916668,150.3894351625,57.0,93.0
794,150.3437363291667,150.50502632916667,38.0,78.0
795,150.3437363291667,150.69857432916666,65.0,95.0
796,150.66631632916665,150.84373532916666,57.0,93.0
797,150.98889632916666,151.41631482916665,57.0,80.0
798,150.98889632916666,151.4324438291667,62.0,83.0
799,150.66631632916665,151.4727663291667,38.0,78.0
800,151.63405632916667,151.79534632916665,48.0,93.0
801,151.63405632916667,152.03996949583333,60.0,80.0
802,151.63405632916667,152.0829801625,67.0,80.0
803,151.95663632916666,152.11792632916666,48.0,78.0
804,152.27921632916667,152.45394716250001,55.0,68.0
805,152.27921632916667,152.6595919125,60.0,87.0
806,152.27921632916667,152.67706499583335,64.0,93.0
807,152.76308632916667,153.06550507916666,55.0,65.0
808,152.92437632916665,153.08566632916666,48.0,78.0
809,152.92437632916665,153.3813646625,60.0,93.0
810,152.92437632916665,153.4015259125,67.0,83.0
811,153.24695632916666,153.56953632916668,48.0,78.0
812,153.24695632916666,153.66227807916667,55.0,60.0
813,153.56953632916668,153.6797511625,60.0,87.0
814,153.56953632916668,153.83835299583333,64.0,102.0
815,153.89211632916667,153.99964299583334,60.0,87.0
816,154.21469632916666,154.53727632916667,46.0,85.0
817,154.21469632916666,154.6474911625,58.0,59.0
818,154.53727632916667,154.8598563291667,46.0,78.0
819,154.21469632916666,154.93243682916668,62.0,67.0
820,154.8598563291667,155.05206024583333,53.0,69.0
821,154.8598563291667,155.33028549583332,58.0,95.0
822,155.34372632916666,155.63808057916668,53.0,71.0
823,155.50501632916666,155.82759632916668,46.0,78.0
824,155.50501632916666,155.94721974583334,58.0,72.0
825,155.50501632916666,155.9888863291667,65.0,93.0
826,155.82759632916668,156.20125149583333,53.0,64.0
827,156.15017632916667,156.24695032916668,58.0,87.0
828,156.15017632916667,156.33431574583335,65.0,93.0
829,155.82759632916668,156.47275632916666,46.0,78.0
830,156.79533632916667,156.95662632916668,41.0,83.0
831,156.79533632916667,156.99022841250002,57.0,80.0
832,156.79533632916667,157.28323857916666,60.0,80.0
833,157.1179163291667,157.44049632916665,41.0,78.0
834,157.1179163291667,157.50501232916668,57.0,71.0
835,157.44049632916665,157.75769999583332,65.0,87.0
836,157.44049632916665,157.80071066250002,60.0,93.0
837,157.92436632916667,158.0950649125,57.0,64.0
838,158.08565632916668,158.0950649125,57.0,90.0
839,158.08565632916668,158.2469463291667,41.0,78.0
840,158.08565632916668,158.4418384125,60.0,93.0
841,158.40823632916667,158.68108524583334,57.0,72.0
842,158.73081632916666,159.05608449583332,60.0,80.0
843,158.40823632916667,159.21468632916668,41.0,78.0
844,159.05339632916667,159.23350349583333,57.0,90.0
845,159.3759763291667,159.69855632916665,43.0,87.0
846,159.69855632916665,160.02113632916667,43.0,78.0
847,159.3759763291667,160.05339432916668,58.0,90.0
848,160.02113632916667,160.43914624583334,55.0,93.0
849,160.5050063291667,160.62462974583332,58.0,83.0
850,160.66629632916667,160.83833899583334,55.0,103.0
851,160.66629632916667,160.98887632916666,43.0,78.0
852,160.66629632916667,161.06011274583335,62.0,87.0
853,160.98887632916666,161.1555426625,55.0,93.0
854,160.98887632916666,161.31145632916667,43.0,78.0
855,161.31145632916667,161.39478949583332,55.0,80.0
856,161.31145632916667,161.48753124583334,58.0,93.0
857,159.69855632916665,161.69989641249998,50.0,69.0
858,161.31145632916667,161.81011124583335,62.0,93.0
859,161.6340363291667,161.81951982916667,55.0,102.0
860,161.95661632916665,162.0990891625,55.0,102.0
861,161.95661632916665,162.27919632916667,48.0,74.0
862,161.95661632916665,162.34640049583334,60.0,93.0
863,162.27919632916667,162.42032507916667,55.0,83.0
864,162.27919632916667,162.60177632916668,48.0,78.0
865,162.60177632916668,162.7025825791667,55.0,93.0
866,162.60177632916668,163.0627969125,64.0,102.0
867,163.08564632916665,163.25500082916668,55.0,74.0
868,163.24693632916666,163.25500082916668,55.0,102.0
869,163.24693632916666,163.40822632916667,48.0,78.0
870,163.24693632916666,163.7160214125,60.0,102.0
871,163.56951632916667,163.80473091250002,55.0,71.0
872,163.56951632916667,163.89209632916666,48.0,78.0
873,163.89209632916666,164.3114503291667,64.0,105.0
874,164.21467632916665,164.48483707916665,55.0,103.0
875,164.53725632916667,164.69854632916667,46.0,74.0
876,164.85983632916668,165.18241632916667,46.0,78.0
877,164.53725632916667,165.1904808291667,62.0,87.0
878,164.85983632916668,165.35714716249998,53.0,72.0
879,165.18241632916667,165.66897449583334,58.0,87.0
880,165.82757632916667,165.9700491625,58.0,90.0
881,165.82757632916667,166.15015632916666,46.0,60.0
882,165.82757632916667,166.27112382916667,65.0,93.0
883,166.15015632916666,166.2993495791667,58.0,87.0
884,166.15015632916666,166.47273632916665,46.0,78.0
885,165.66628632916667,166.51574699583335,53.0,70.0
886,166.47273632916665,166.62596182916667,58.0,93.0
887,166.47273632916665,166.73483257916666,62.0,93.0
888,167.11789632916668,167.44047632916667,41.0,83.0
889,167.11789632916668,167.58160507916665,57.0,80.0
890,167.11789632916668,167.85445399583335,60.0,72.0
891,167.44047632916667,168.08563632916668,41.0,78.0
892,167.76305632916666,168.12461474583336,57.0,102.0
893,168.08563632916668,168.27515207916667,60.0,102.0
894,168.40821632916666,168.5668181625,57.0,87.0
895,168.40821632916666,168.56950632916667,41.0,78.0
896,168.73079632916665,168.96466682916667,57.0,72.0
897,168.40821632916666,168.9767635791667,65.0,87.0
898,168.24692632916668,169.19853732916667,48.0,59.0
899,169.05337632916667,169.30337582916667,60.0,105.0
900,168.73079632916665,169.37595632916668,41.0,78.0
901,169.37595632916668,169.4767625791667,57.0,95.0
902,169.69853632916667,169.85982632916665,43.0,90.0
903,169.69853632916667,170.26708357916667,55.0,80.0
904,169.69853632916667,170.35848124583333,62.0,80.0
905,170.02111632916666,170.50498632916668,43.0,78.0
906,170.34369632916668,170.6555236625,58.0,85.0
907,170.66627632916666,170.79799649583333,55.0,102.0
908,170.98885632916665,171.11315854375002,55.0,95.0
909,170.98885632916665,171.31315803541668,43.0,78.0
910,170.98885632916665,171.36721195208335,62.0,93.0
911,171.31315803541668,171.52396831041668,55.0,74.0
912,171.63748153541667,171.9442375125,58.0,85.0
913,170.82756632916667,171.97396716666668,50.0,72.0
914,171.63748153541667,171.97531851458334,62.0,93.0
915,171.9618050354167,172.11315600208334,55.0,93.0
916,171.31315803541668,172.12396678541668,43.0,78.0
917,172.28612853541668,172.61045203541667,41.0,87.0
918,172.61045203541667,172.77261378541667,41.0,78.0
919,172.28612853541668,172.92261340416667,57.0,83.0
920,172.93477553541666,173.05369415208335,60.0,93.0
921,172.93477553541666,173.34288260625001,53.0,87.0
922,173.25909903541668,173.47936874583334,57.0,103.0
923,173.58342253541667,173.62261162500002,57.0,49.0
924,173.58342253541667,173.90740755416667,41.0,78.0
925,173.58342253541667,173.95862047083335,65.0,95.0
926,173.90740755416667,174.05161234583335,57.0,87.0
927,174.23085755416668,174.36967151250002,57.0,93.0
928,174.23085755416668,174.61091130416668,60.0,102.0
929,173.90740755416667,174.71603255416667,41.0,78.0
930,173.42126078541668,174.73220505416668,48.0,66.0
931,174.55430755416668,174.80363359583333,57.0,85.0
932,174.8777575541667,175.20120755416667,41.0,87.0
933,174.8777575541667,175.33463067916668,65.0,80.0
934,174.8777575541667,175.34676005416668,57.0,80.0
935,174.8777575541667,175.37910505416667,60.0,83.0
936,175.52465755416668,175.6553852625,57.0,93.0
937,175.20120755416667,175.8481075541667,41.0,78.0
938,175.52465755416668,175.9303177625,60.0,93.0
939,175.8481075541667,175.98557380416668,57.0,74.0
940,176.17155755416667,176.27802651250002,57.0,87.0
941,176.17155755416667,176.3427165125,65.0,87.0
942,176.17155755416667,176.49500755416668,41.0,78.0
943,176.49500755416668,176.6621233875,57.0,85.0
944,176.81845755416668,176.9276219291667,57.0,90.0
945,176.81845755416668,177.08260838750002,60.0,93.0
946,175.20120755416667,177.1351690125,48.0,59.0
947,177.1419075541667,177.24568109583333,57.0,80.0
948,176.49500755416668,177.30363255416668,41.0,78.0
949,177.46535755416667,177.71152417916667,63.0,71.0
950,177.46535755416667,177.90776034583334,70.0,80.0
951,178.11071692916667,178.18732967916668,63.0,102.0
952,178.11071692916667,178.21017909583333,70.0,95.0
953,178.43329692916666,178.54082359583333,63.0,90.0
954,178.75587692916667,178.8741562625,67.0,102.0
955,178.75587692916667,178.8781885125,70.0,95.0
956,179.07845692916666,179.1806072625,63.0,69.0
957,179.40103692916668,179.47496151250002,63.0,87.0
958,179.40103692916668,179.49377867916667,70.0,87.0
959,179.72361692916667,179.84458442916667,63.0,102.0
960,177.46535755416667,179.87281017916666,39.0,102.0
961,177.78813692916668,179.90775634583335,46.0,58.0
962,180.04619692916668,180.3620565125,67.0,87.0
963,180.04619692916668,180.39162634583334,70.0,74.0
964,180.69135692916666,180.80829217916667,63.0,93.0
965,180.69135692916666,181.07710884583335,70.0,74.0
966,181.01393692916668,181.15909792916668,63.0,85.0
967,180.04619692916668,181.35667817916666,39.0,87.0
968,180.36877692916667,181.36071042916666,46.0,59.0
969,181.33651692916666,181.50855959583333,67.0,93.0
970,181.33651692916666,181.56904334583334,70.0,83.0
971,181.65909692916668,181.81769876250002,63.0,102.0
972,181.98167692916667,182.0515692625,67.0,102.0
973,181.98167692916667,182.0596337625,63.0,90.0
974,181.98167692916667,182.0918917625,70.0,80.0
975,182.62683692916667,182.7088260125,60.0,58.0
976,182.62683692916667,183.07307259583334,65.0,80.0
977,182.62683692916667,183.11877142916666,69.0,65.0
978,182.94941692916666,183.3338247625,60.0,83.0
979,183.27199692916668,183.3781795125,65.0,87.0
980,183.27199692916668,183.41715792916668,69.0,102.0
981,183.59457692916666,183.71554442916667,60.0,93.0
982,183.91715692916668,184.01796317916666,60.0,93.0
983,183.91715692916668,184.12548984583333,69.0,93.0
984,184.23973692916667,184.37548934583333,60.0,72.0
985,182.62683692916667,184.6523705125,41.0,83.0
986,184.56231692916668,184.6564027625,60.0,93.0
987,182.94941692916666,184.6725317625,48.0,61.0
988,184.56231692916668,184.7572090125,65.0,93.0
989,184.56231692916668,184.9588215125,69.0,93.0
990,184.88489692916667,185.03409017916667,60.0,93.0
991,185.20747692916666,185.5797880125,65.0,93.0
992,185.20747692916666,185.6080137625,69.0,93.0
993,185.85263692916666,185.9668840125,62.0,87.0
994,185.85263692916666,186.05290534583332,65.0,102.0
995,185.85263692916666,186.22360392916667,69.0,95.0
996,186.17521692916668,186.29618442916666,62.0,80.0
997,186.49779692916667,186.60532359583334,62.0,80.0
998,185.53005692916668,186.65102242916666,57.0,83.0
999,186.49779692916667,186.67521592916668,65.0,93.0
1000,186.49779692916667,186.7128502625,69.0,93.0
1001,185.20747692916666,186.9668820125,50.0,80.0
1002,186.82037692916668,187.03811842916667,57.0,83.0
1003,187.14295692916667,187.22629009583335,62.0,74.0
1004,187.14295692916667,187.34725759583333,65.0,87.0
1005,187.14295692916667,187.4467197625,69.0,87.0
1006,187.46553692916666,187.52602067916666,62.0,83.0
1007,187.78811692916668,188.27870734583334,63.0,68.0
1008,187.78811692916668,188.3176857625,70.0,68.0
1009,188.43327692916668,188.5838142625,63.0,80.0
1010,188.43327692916668,188.77870634583334,70.0,95.0
1011,188.75585692916667,188.89295342916668,63.0,95.0
1012,189.07843692916668,189.2330065125,67.0,87.0
1013,189.07843692916668,189.25047959583333,70.0,87.0
1014,189.40101692916667,189.5192962625,63.0,93.0
1015,189.72359692916666,189.82440317916667,67.0,93.0
1016,189.72359692916666,189.84053217916667,70.0,93.0
1017,187.78811692916668,189.94133842916668,39.0,72.0
1018,188.11069692916666,189.9668760125,46.0,63.0
1019,190.04617692916668,190.19402609583335,63.0,87.0
1020,190.36875692916666,190.8942935125,70.0,74.0
1021,190.36875692916666,190.89563759583334,63.0,90.0
1022,191.01391692916667,191.2168735125,67.0,87.0
1023,191.01391692916667,191.2491315125,70.0,87.0
1024,191.33649692916669,191.46418484583333,63.0,102.0
1025,190.69133692916668,191.78810892916667,46.0,61.0
1026,190.36875692916666,191.79482934583334,39.0,90.0
1027,191.65907692916667,191.8217110125,67.0,80.0
1028,191.98165692916666,192.04886109583333,67.0,37.0
1029,191.65907692916667,192.06095784583334,70.0,80.0
1030,191.98165692916666,192.13085017916666,63.0,87.0
1031,192.30423692916668,192.39697867916666,67.0,95.0
1032,192.30423692916668,192.4225162625,70.0,87.0
1033,192.94939692916668,193.30289084583333,65.0,80.0
1034,192.94939692916668,193.32305209583333,69.0,87.0
1035,193.27197692916667,193.6281590125,60.0,80.0
1036,193.59455692916669,193.68595459583332,65.0,87.0
1037,193.59455692916669,193.7209007625,69.0,102.0
1038,192.94939692916668,193.96686801250002,41.0,87.0
1039,193.91713692916667,194.12546984583332,60.0,87.0
1040,194.23971692916666,194.3499317625,65.0,87.0
1041,194.23971692916666,194.41175959583333,69.0,93.0
1042,194.56229692916668,194.77869434583334,60.0,80.0
1043,194.88487692916667,195.00450034583335,41.0,85.0
1044,194.88487692916667,195.0152530125,65.0,93.0
1045,194.88487692916667,195.24777942916666,69.0,95.0
1046,195.20745692916668,195.3297685125,60.0,87.0
1047,195.53003692916667,195.90503617916667,65.0,93.0
1048,195.53003692916667,195.92788559583335,69.0,93.0
1049,195.8526169291667,196.20342267916666,62.0,80.0
1050,196.17519692916667,196.26659459583334,65.0,87.0
1051,196.17519692916667,196.28675584583334,69.0,93.0
1052,196.49777692916666,196.62277667916666,62.0,83.0
1053,196.82035692916668,196.93594809583334,65.0,87.0
1054,196.82035692916668,196.9507330125,69.0,87.0
1055,197.14293692916667,197.29213017916666,62.0,90.0
1056,197.46551692916668,197.4991190125,62.0,51.0
1057,197.46551692916668,197.8216990125,65.0,105.0
1058,197.46551692916668,197.82841942916667,69.0,103.0
1059,197.78809692916667,197.90503217916668,62.0,102.0
1060,195.53003692916667,198.05288134583333,38.0,95.0
1061,198.1106769291667,198.51659009583335,60.0,80.0
1062,198.1106769291667,198.5596007625,67.0,80.0
1063,198.43325692916667,198.9305677625,55.0,68.0
1064,198.75583692916666,199.1362125125,60.0,87.0
1065,198.75583692916666,199.15368559583334,64.0,93.0
1066,199.07841692916668,199.54212567916667,55.0,65.0
1067,199.40099692916667,199.8579852625,60.0,93.0
1068,199.40099692916667,199.8781465125,67.0,83.0
1069,199.72357692916668,200.1388986791667,55.0,60.0
1070,200.04615692916667,200.15637176250002,60.0,87.0
1071,198.1106769291667,200.17787709583334,48.0,93.0
1072,200.04615692916667,200.31497359583335,64.0,102.0
1073,200.3687369291667,200.47626359583333,60.0,87.0
1074,200.69131692916667,201.1241117625,58.0,59.0
1075,200.69131692916667,201.40905742916667,62.0,67.0
1076,201.01389692916666,201.52868084583335,53.0,69.0
1077,201.33647692916668,201.80690609583334,58.0,95.0
1078,201.65905692916667,202.11470117916667,53.0,71.0
1079,201.98163692916668,202.42384034583333,58.0,72.0
1080,201.98163692916668,202.46550692916668,65.0,93.0
1081,200.69131692916667,202.67115167916668,46.0,85.0
1082,202.30421692916667,202.67787209583335,53.0,64.0
1083,202.6267969291667,202.72357092916667,58.0,87.0
1084,202.6267969291667,202.81093634583334,65.0,93.0
1085,203.27195692916666,203.4668490125,57.0,80.0
1086,203.27195692916666,203.75985917916668,60.0,80.0
1087,203.59453692916668,203.98163292916666,57.0,71.0
1088,203.91711692916667,204.23432059583334,65.0,87.0
1089,203.91711692916667,204.2773312625,60.0,93.0
1090,204.23969692916668,204.4103955125,57.0,64.0
1091,204.56227692916667,204.72222284583333,57.0,90.0
1092,204.56227692916667,204.9184590125,60.0,93.0
1093,204.8848569291667,205.15770584583333,57.0,72.0
1094,203.27195692916666,205.26254434583333,41.0,83.0
1095,205.20743692916668,205.53270509583334,60.0,80.0
1096,205.53001692916666,205.71012409583335,57.0,90.0
1097,205.85259692916668,206.53001492916667,58.0,90.0
1098,206.49775692916668,206.91576684583333,55.0,93.0
1099,206.82033692916667,206.93996034583333,58.0,83.0
1100,207.1429169291667,207.31495959583333,55.0,103.0
1101,207.1429169291667,207.53673334583334,62.0,87.0
1102,207.46549692916668,207.6321632625,55.0,93.0
1103,207.78807692916666,207.87141009583334,55.0,80.0
1104,207.78807692916666,207.96415184583333,58.0,93.0
1105,206.17517692916667,208.1765170125,50.0,69.0
1106,205.85259692916668,208.1805492625,43.0,87.0
1107,207.78807692916666,208.28673184583334,62.0,93.0
1108,208.11065692916668,208.29614042916668,55.0,102.0
1109,208.43323692916667,208.5757097625,55.0,102.0
1110,208.43323692916667,208.82302109583333,60.0,93.0
1111,208.75581692916668,208.89694567916666,55.0,83.0
1112,209.07839692916667,209.17920317916668,55.0,93.0
1113,209.07839692916667,209.5394175125,64.0,102.0
1114,209.40097692916666,209.57033142916669,55.0,74.0
1115,209.72355692916668,209.86468567916666,55.0,102.0
1116,209.72355692916668,210.19264201250002,60.0,102.0
1117,210.04613692916666,210.2813515125,55.0,71.0
1118,208.43323692916667,210.5152220125,48.0,74.0
1119,210.36871692916668,210.78807092916668,64.0,105.0
1120,210.69129692916667,210.96145767916667,55.0,103.0
1121,211.01387692916666,211.66710142916668,62.0,87.0
1122,211.33645692916667,211.8337677625,53.0,72.0
1123,211.01387692916666,211.84183226250002,46.0,74.0
1124,211.6590369291667,212.14559509583333,58.0,87.0
1125,212.30419692916666,212.4466697625,58.0,90.0
1126,212.30419692916666,212.7477444291667,65.0,93.0
1127,212.62677692916668,212.77597017916668,58.0,87.0
1128,211.98161692916668,212.99236759583334,53.0,70.0
1129,211.98161692916668,213.00984067916667,46.0,60.0
1130,212.94935692916667,213.10258242916666,58.0,93.0
1131,212.94935692916667,213.21145317916668,62.0,93.0
1132,213.59451692916667,214.05822567916667,57.0,80.0
1133,213.59451692916667,214.33107459583334,60.0,72.0
1134,214.23967692916668,214.60123534583335,57.0,102.0
1135,214.56225692916667,214.75177267916666,60.0,102.0
1136,214.88483692916668,215.0434387625,57.0,87.0
1137,215.20741692916667,215.44128742916666,57.0,72.0
1138,214.88483692916668,215.45338417916668,65.0,87.0
1139,213.59451692916667,215.60660967916667,41.0,83.0
1140,213.9170969291667,215.6751579291667,48.0,59.0
1141,215.52999692916666,215.77999642916666,60.0,105.0
1142,215.85257692916667,215.95338317916668,57.0,95.0
1143,216.1751569291667,216.74370417916668,55.0,80.0
1144,216.1751569291667,216.83510184583335,62.0,80.0
1145,216.82031692916667,217.1321442625,58.0,85.0
1146,217.14289692916668,217.27461709583335,55.0,102.0
1147,217.46547692916667,217.58913259583335,55.0,95.0
1148,217.46547692916667,217.8418202625,62.0,93.0
1149,217.78805692916666,217.99773392916666,55.0,74.0
1150,218.11063692916667,218.41574384583333,58.0,85.0
1151,216.49773692916668,218.44531367916667,50.0,72.0
1152,218.11063692916667,218.4466577625,62.0,93.0
1153,216.1751569291667,218.4627867625,43.0,90.0
1154,218.4332169291667,218.5837542625,55.0,93.0
1155,218.75579692916668,219.16171009583334,53.0,87.0
1156,218.75579692916668,219.38886017916667,57.0,83.0
1157,219.40095692916668,219.51923626250002,60.0,93.0
1158,219.72353692916667,219.9426225125,57.0,103.0
1159,220.04611692916666,220.08509534583334,57.0,49.0
1160,220.04611692916666,220.41977209583334,65.0,95.0
1161,220.36869692916667,220.51251384583333,57.0,87.0
1162,220.6912769291667,220.8297175125,57.0,93.0
1163,220.6912769291667,221.0703084291667,60.0,102.0
1164,218.75579692916668,221.16170609583332,41.0,87.0
1165,219.07837692916667,221.19127592916666,48.0,66.0
1166,221.01385692916668,221.26251234583333,57.0,85.0
1167,221.33643692916667,221.79208117916667,65.0,80.0
1168,221.33643692916667,221.80417792916666,57.0,80.0
1169,221.33643692916667,221.83643592916667,60.0,83.0
1170,221.98159692916667,222.11197301250002,57.0,93.0
1171,221.98159692916667,222.3861660125,60.0,93.0
1172,222.30417692916666,222.44127342916667,57.0,74.0
1173,222.62675692916667,222.7329395125,57.0,87.0
1174,222.62675692916667,222.7974555125,65.0,87.0
1175,222.94933692916666,223.11600326250002,57.0,85.0
1176,223.27191692916668,223.38078767916667,57.0,90.0
1177,221.33643692916667,223.5030992625,41.0,87.0
1178,223.27191692916668,223.5353572625,60.0,93.0
1179,221.65901692916668,223.5877765125,48.0,59.0
1180,223.59449692916667,223.69799134583334,57.0,80.0
1181,223.91707692916668,224.33911909583333,62.0,85.0
1182,223.91707692916668,224.35659217916668,55.0,83.0
1183,224.23965692916667,224.74368817916667,50.0,69.0
1184,224.56223692916666,224.90766634583335,55.0,93.0
1185,224.56223692916666,224.95605334583334,58.0,93.0
1186,224.88481692916667,225.34986976250002,50.0,72.0
1187,225.20739692916666,225.54610592916669,62.0,93.0
1188,225.20739692916666,225.6240627625,55.0,90.0
1189,225.85255692916667,226.00040609583334,55.0,85.0
1190,225.85255692916667,226.15363159583333,58.0,93.0
1191,225.52997692916668,226.35524409583334,50.0,67.0
1192,226.17513692916668,226.3700290125,55.0,93.0
1193,223.91707692916668,226.38750209583333,43.0,90.0
1194,226.49771692916667,226.64959834583334,55.0,93.0
1195,226.49771692916667,226.8740602625,60.0,87.0
1196,226.82029692916666,227.15362959583334,55.0,80.0
1197,227.14287692916668,227.54879009583334,64.0,105.0
1198,226.49771692916667,227.6563167625,48.0,68.0
1199,227.46545692916666,227.85524109583335,55.0,103.0
1200,227.78803692916668,228.16706842916668,60.0,93.0
1201,228.11061692916667,228.3337347625,55.0,103.0
1202,228.43319692916668,228.47351942916669,55.0,64.0
1203,228.43319692916668,228.73158342916668,60.0,103.0
1204,227.78803692916668,228.7436801791667,48.0,66.0
1205,228.43319692916668,228.77593817916667,64.0,105.0
1206,228.75577692916667,228.8740562625,55.0,95.0
1207,229.07835692916666,229.28668984583334,57.0,87.0
1208,229.07835692916666,229.46679701250002,60.0,93.0
1209,229.40093692916668,229.7732480125,57.0,83.0
1210,230.04609692916668,230.41168759583334,57.0,93.0
1211,229.72351692916666,230.44797784583335,60.0,93.0
1212,230.36867692916667,230.74233209583335,65.0,95.0
1213,230.69125692916668,230.88077267916668,57.0,85.0
1214,231.01383692916667,231.12136359583334,57.0,70.0
1215,229.40093692916668,231.1401807625,48.0,59.0
1216,229.07835692916666,231.1764710125,41.0,87.0
1217,231.01383692916667,231.40899742916667,60.0,103.0
1218,231.33641692916666,231.56087884583334,57.0,90.0
1219,231.65899692916668,231.77458809583334,40.0,69.0
1220,231.65899692916668,232.0393725125,57.0,87.0
1221,231.65899692916668,232.19125392916666,60.0,80.0
1222,232.30415692916668,232.7087260125,65.0,87.0
1223,232.62673692916667,232.8202849291667,57.0,95.0
1224,232.94931692916668,233.0716285125,57.0,74.0
1225,232.94931692916668,233.30281084583333,60.0,102.0
1226,233.27189692916667,233.46006859583335,57.0,80.0
1227,233.59447692916666,233.73426159583335,57.0,83.0
1228,231.65899692916668,233.74770242916668,41.0,74.0
1229,231.98157692916666,233.8135625125,48.0,56.0
1230,233.59447692916666,233.91974509583335,60.0,87.0
1231,233.59447692916666,234.04474484583335,65.0,87.0
1232,233.91705692916668,234.0635620125,57.0,80.0
1233,234.23963692916666,234.98829134583335,62.0,74.0
1234,234.88479692916667,235.2087210125,58.0,74.0
1235,235.20737692916668,235.37001101250002,55.0,93.0
1236,235.52995692916667,235.64151584583334,55.0,103.0
1237,235.52995692916667,235.95603134583334,62.0,87.0
1238,235.85253692916666,236.2288802625,55.0,83.0
1239,236.17511692916668,236.2490415125,62.0,74.0
1240,236.17511692916668,236.5474280125,58.0,71.0
1241,234.23963692916666,236.64554609583334,43.0,87.0
1242,236.49769692916666,236.66167509583335,55.0,102.0
1243,234.56221692916668,236.6683955125,50.0,74.0
1244,236.82027692916668,236.97619059583334,55.0,93.0
1245,236.82027692916668,237.23425459583333,60.0,87.0
1246,237.14285692916667,237.47887776250002,55.0,80.0
1247,237.46543692916669,237.88344684583333,64.0,110.0
1248,237.78801692916667,238.02188742916667,55.0,95.0
1249,238.11059692916666,238.45737042916667,60.0,102.0
1250,236.82027692916668,238.46274676250002,48.0,80.0
1251,238.43317692916668,238.81220842916667,55.0,87.0
1252,238.75575692916667,238.86731584583333,48.0,83.0
1253,238.75575692916667,239.08640142916667,64.0,93.0
1254,238.75575692916667,239.09849817916668,60.0,93.0
1255,239.07833692916668,239.2087130125,55.0,103.0
1256,239.40091692916667,239.98828134583334,53.0,80.0
1257,239.40091692916667,240.08102309583333,57.0,83.0
1258,240.04607692916667,240.4627427625,60.0,87.0
1259,240.69123692916668,240.70736592916668,60.0,34.0
1260,240.36865692916666,240.71005409583336,53.0,95.0
1261,240.69123692916668,241.14016076250002,65.0,102.0
1262,241.01381692916667,241.36731084583334,53.0,102.0
1263,241.33639692916668,241.69661126250003,57.0,93.0
1264,239.40091692916667,241.7920411791667,41.0,83.0
1265,239.72349692916669,241.84311634583332,48.0,69.0
1266,241.65897692916667,242.0635460125,53.0,90.0
1267,241.9815569291667,242.5595127625,57.0,93.0
1268,241.9815569291667,242.65494267916668,60.0,90.0
1269,242.62671692916666,243.12268367916667,53.0,95.0
1270,242.94929692916668,243.12940409583334,57.0,87.0
1271,243.2718769291667,243.33101659583335,57.0,49.0
1272,243.2718769291667,243.84445642916666,65.0,95.0
1273,243.91703692916667,244.08907959583334,53.0,95.0
1274,243.91703692916667,244.39418651250003,60.0,72.0
1275,244.2396169291667,244.42778859583333,53.0,93.0
1276,241.9815569291667,244.53397117916666,41.0,93.0
1277,242.30413692916667,244.5393475125,48.0,64.0
1278,244.56219692916667,244.98423909583335,62.0,85.0
1279,244.56219692916667,245.00171217916667,55.0,83.0
1280,244.88477692916666,245.3888081791667,50.0,69.0
1281,245.20735692916668,245.55278634583334,55.0,93.0
1282,245.20735692916668,245.60117334583333,58.0,93.0
1283,245.5299369291667,245.9949897625,50.0,72.0
1284,245.85251692916665,246.19122592916668,62.0,93.0
1285,245.85251692916665,246.2691827625,55.0,90.0
1286,246.4976769291667,246.64552609583336,55.0,85.0
1287,246.4976769291667,246.79875159583332,58.0,93.0
1288,246.17509692916667,247.00036409583333,50.0,67.0
1289,246.82025692916667,247.0151490125,55.0,93.0
1290,244.56219692916667,247.03262209583335,43.0,90.0
1291,247.14283692916666,247.29471834583336,55.0,93.0
1292,247.14283692916666,247.51918026250002,60.0,87.0
1293,247.46541692916668,247.79874959583333,55.0,80.0
1294,247.7879969291667,248.19391009583336,64.0,105.0
1295,247.14283692916666,248.3014367625,48.0,68.0
1296,248.11057692916665,248.50036109583334,55.0,103.0
1297,248.43315692916667,248.81218842916667,60.0,93.0
1298,248.7557369291667,248.97885476250002,55.0,103.0
1299,249.07831692916668,249.11863942916668,55.0,64.0
1300,249.07831692916668,249.3767034291667,60.0,103.0
1301,248.43315692916667,249.38880017916668,48.0,66.0
1302,249.07831692916668,249.42105817916666,64.0,105.0
1303,249.40089692916666,249.51917626250003,55.0,95.0
1304,249.72347692916668,249.93180984583336,57.0,87.0
1305,249.72347692916668,250.1119170125,60.0,93.0
1306,250.0460569291667,250.41836801250003,57.0,83.0
1307,250.69121692916667,251.05680759583333,57.0,93.0
1308,250.36863692916666,251.09309784583334,60.0,93.0
1309,251.0137969291667,251.38745209583334,65.0,95.0
1310,251.33637692916668,251.52589267916667,57.0,85.0
1311,251.65895692916666,251.76648359583334,57.0,70.0
1312,250.0460569291667,251.78530076250001,48.0,59.0
1313,249.72347692916668,251.8215910125,41.0,87.0
1314,251.65895692916666,252.0541174291667,60.0,103.0
1315,251.98153692916668,252.20599884583334,57.0,90.0
1316,252.3041169291667,252.41970809583336,40.0,69.0
1317,252.3041169291667,252.68449251250001,57.0,87.0
1318,252.3041169291667,252.83637392916665,60.0,80.0
1319,252.94927692916667,253.35384601250001,65.0,87.0
1320,253.2718569291667,253.46540492916668,57.0,95.0
1321,253.59443692916668,253.7167485125,57.0,74.0
1322,253.59443692916668,253.94793084583335,60.0,102.0
1323,253.91701692916666,254.10518859583334,57.0,80.0
1324,254.23959692916668,254.37938159583334,57.0,83.0
1325,252.3041169291667,254.39282242916667,41.0,74.0
1326,252.62669692916666,254.4586825125,48.0,56.0
1327,254.23959692916668,254.56486509583334,60.0,87.0
1328,254.23959692916668,254.68986484583334,65.0,87.0
1329,254.56217692916667,254.7086820125,57.0,80.0
1330,254.88475692916666,255.63341134583334,62.0,88.0
1331,255.5299169291667,255.85384101250003,58.0,82.0
1332,255.85249692916668,256.0151310125,55.0,80.0
1333,256.17507692916666,256.28663584583336,55.0,77.0
1334,256.17507692916666,256.60115134583333,62.0,77.0
1335,256.4976569291667,256.8740002625,55.0,74.0
1336,256.82023692916664,256.8941615125,62.0,71.0
1337,256.82023692916664,257.1925480125,58.0,71.0
1338,254.88475692916666,257.29066609583333,43.0,88.0
1339,257.14281692916666,257.3067950958333,55.0,69.0
1340,255.20733692916667,257.3135155125,50.0,85.0
1341,257.4653969291667,257.62131059583334,55.0,66.0
1342,257.4653969291667,257.8793745958333,60.0,66.0
1343,257.7879769291667,258.12399776250004,55.0,63.0
1344,258.1105569291667,258.5285668458333,64.0,57.0
1345,258.43313692916666,258.6670074291667,55.0,55.0
1346,258.7557169291667,259.10249042916666,60.0,52.0
1347,257.4653969291667,259.1078667625,48.0,66.0
1348,259.07829692916664,259.4573284291667,55.0,49.0
1349,259.40087692916666,259.51243584583335,48.0,46.0
1350,259.40087692916666,259.73152142916666,64.0,46.0
1351,259.40087692916666,259.7436181791667,60.0,46.0
1352,259.7234569291667,259.8538330125,55.0,44.0
1353,260.0460369291667,260.63340134583336,53.0,41.0
1354,260.0460369291667,260.7261430958333,57.0,41.0
1355,260.69119692916667,261.1078627625,60.0,35.0
1356,261.33635692916664,261.3524859291667,60.0,30.0
1357,261.0137769291667,261.3551740958334,53.0,33.0
1358,261.33635692916664,261.7852807625,65.0,30.0
1359,261.65893692916666,262.01243084583336,53.0,24.0
1360,261.9815169291667,262.3417312625,57.0,22.0
1361,260.0460369291667,262.43716117916665,41.0,41.0
1362,260.3686169291667,262.48823634583334,48.0,38.0
1363,262.3040969291667,262.7086660125,53.0,19.0
1364,262.6266769291667,263.2046327625,57.0,16.0
1365,262.6266769291667,263.3000626791667,60.0,16.0
1366,263.2718369291667,263.76780367916666,53.0,11.0
1367,263.59441692916664,263.7745240958333,57.0,8.0
1368,263.91699692916666,263.97613659583334,57.0,5.0
1369,263.91699692916666,264.4895764291667,65.0,5.0
1370,264.5621569291667,264.73419959583333,53.0,1.0
1371,264.5621569291667,265.0393065125,60.0,1.0
1372,264.8847369291667,265.0729085958333,53.0,2.0
1373,262.6266769291667,265.1790911791667,41.0,16.0
1374,262.94925692916667,265.1844675125,48.0,13.0
