,start,end,pitch,velocity
0,20.258615625000004,20.603443125000005,65.0,110.0
1,20.603443125000005,20.948270625000006,67.0,100.0
2,20.948270625000006,21.464075093750004,70.0,116.0
3,21.465511875000004,21.981316343750006,70.0,100.0
4,21.982753125000006,22.326143843750007,70.0,106.0
5,22.327580625000007,23.017235625000005,70.0,113.0
6,23.017235625000005,23.362063125000006,67.0,110.0
7,23.362063125000006,23.706890625000007,65.0,98.0
8,23.706890625000007,24.222695093750005,70.0,113.0
9,24.224131875000005,24.741373125000006,70.0,113.0
10,24.741373125000006,25.160913250000007,72.0,110.0
11,25.086200625000007,25.775855625000005,70.0,119.0
12,25.775855625000005,26.120683125000006,67.0,102.0
13,26.120683125000006,26.465510625000007,70.0,100.0
14,26.465510625000007,26.981315093750005,72.0,102.0
15,26.982751875000005,27.498556343750007,72.0,107.0
16,27.499993125000007,27.843383843750008,72.0,104.0
17,27.844820625000008,28.534475625000006,72.0,107.0
18,28.534475625000006,28.887923812500006,70.0,113.0
19,28.879303125000007,29.224130625000008,67.0,98.0
20,29.224130625000008,29.739935093750006,72.0,108.0
21,29.741371875000006,30.258613125000007,72.0,107.0
22,30.258613125000007,30.603440625000008,74.0,110.0
23,30.603440625000008,31.293095625000007,72.0,110.0
24,31.293095625000007,31.637923125000007,74.0,104.0
25,31.637923125000007,31.98275062500001,77.0,108.0
26,31.98275062500001,32.49855509375001,79.0,116.0
27,32.499991875000006,33.01723312500001,79.0,114.0
28,33.01723312500001,33.368145750000004,77.0,113.0
29,33.368145750000004,34.074027750000006,79.0,116.0
30,34.074027750000006,34.42696875000001,77.0,110.0
31,34.42696875000001,34.77990975000001,74.0,98.0
32,34.77990975000001,35.13285075,72.0,107.0
33,35.13285075,35.485791750000004,74.0,110.0
34,35.485791750000004,35.86226215000001,72.0,107.0
35,35.838732750000005,36.19167375000001,70.0,103.0
36,36.19167375000001,36.89755575000001,67.0,91.0
37,36.89755575000001,37.25049675,65.0,110.0
38,37.25049675,37.603437750000005,67.0,102.0
39,37.603437750000005,38.131378662500005,70.0,113.0
40,38.13284925000001,38.66079016250001,70.0,113.0
41,38.66226075000001,39.01373116250001,70.0,113.0
42,39.01520175,39.721083750000005,70.0,116.0
43,39.721083750000005,40.42696575000001,67.0,110.0
44,40.42696575000001,42.54461175,70.0,116.0
45,42.54461175,42.89755275,65.0,110.0
46,42.89755275,43.244273400000004,67.0,100.0
47,43.244273400000004,43.76007786875001,70.0,116.0
48,43.76151465000001,44.27731911875001,70.0,100.0
49,44.27875590000001,44.62214661875001,70.0,106.0
50,44.62358340000001,45.31323840000001,70.0,113.0
51,45.31323840000001,45.658065900000004,67.0,110.0
52,45.658065900000004,46.002893400000005,65.0,98.0
53,46.002893400000005,46.51869786875001,70.0,113.0
54,46.52013465000001,47.03737590000001,70.0,113.0
55,47.03737590000001,47.456916025000005,72.0,110.0
56,47.38220340000001,48.07185840000001,70.0,119.0
57,48.07185840000001,48.416685900000004,67.0,102.0
58,48.416685900000004,48.761513400000005,70.0,100.0
59,48.761513400000005,49.27731786875001,72.0,102.0
60,49.27875465000001,49.79455911875001,72.0,107.0
61,49.79599590000001,50.13938661875001,72.0,104.0
62,50.14082340000001,50.83047840000001,72.0,107.0
63,50.83047840000001,51.18392658750001,70.0,113.0
64,51.17530590000001,51.520133400000006,67.0,98.0
65,51.520133400000006,52.03593786875001,72.0,108.0
66,52.03737465000001,52.55461590000001,72.0,107.0
67,52.55461590000001,52.89944340000001,74.0,110.0
68,52.89944340000001,53.58909840000001,72.0,110.0
69,53.58909840000001,53.933925900000006,74.0,104.0
70,53.933925900000006,54.27875340000001,77.0,108.0
71,54.27875340000001,54.79455786875001,79.0,116.0
72,54.79599465000001,55.31323590000001,79.0,114.0
73,55.31323590000001,55.664351362500014,77.0,113.0
74,55.664351362500014,56.37023336250001,79.0,116.0
75,56.37023336250001,56.72317436250001,82.0,116.0
76,56.72317436250001,57.07611536250001,79.0,114.0
77,57.07611536250001,57.42905636250001,77.0,110.0
78,57.42905636250001,57.781997362500015,74.0,110.0
79,57.781997362500015,58.15846776250001,72.0,107.0
80,58.13493836250001,58.48787936250001,70.0,103.0
81,58.48787936250001,59.19376136250001,67.0,91.0
82,59.19376136250001,59.546702362500014,65.0,110.0
83,59.546702362500014,59.899643362500015,67.0,102.0
84,59.899643362500015,60.427584275000015,70.0,113.0
85,60.42905486250001,60.95699577500001,70.0,113.0
86,60.95846636250001,61.30993677500001,70.0,113.0
87,61.31140736250001,62.01728936250001,70.0,116.0
88,62.01728936250001,62.72317136250001,72.0,110.0
89,62.72317136250001,64.84081736250002,70.0,116.0
90,64.84081736250002,65.1937583625,74.0,116.0
91,65.1937583625,65.54669936250001,77.0,108.0
92,65.54669936250001,66.07464027500001,79.0,114.0
93,66.07611086250002,66.60405177500002,79.0,114.0
94,66.60552236250001,66.95094145625,79.0,116.0
95,66.95237823750001,67.6420332375,79.0,116.0
96,67.6420332375,67.98686073750001,82.0,108.0
97,67.98686073750001,68.3316882375,79.0,104.0
98,68.3316882375,68.67507895625,77.0,114.0
99,68.67651573750001,69.36617073750001,77.0,104.0
100,69.36617073750001,69.71099823750001,79.0,104.0
101,69.71099823750001,70.40065323750001,77.0,114.0
102,70.40065323750001,70.7454807375,74.0,113.0
103,70.7454807375,71.09030823750001,72.0,108.0
104,71.09030823750001,71.60611270625,70.0,113.0
105,71.60754948750001,72.12335395625001,70.0,123.0
106,72.1247907375,72.46818145625001,70.0,116.0
107,72.46961823750001,73.1592732375,70.0,119.0
108,73.1592732375,73.8489282375,72.0,114.0
109,73.8489282375,75.927465875,74.0,117.0
110,75.9289193625,76.2777563625,74.0,114.0
111,76.2777563625,76.6265933625,72.0,104.0
112,76.6265933625,77.148395375,70.0,113.0
113,77.14984886250001,77.671650875,70.0,116.0
114,77.6731043625,78.020487875,70.0,116.0
115,78.0219413625,78.71961536250001,70.0,119.0
116,78.71961536250001,79.0684523625,82.0,119.0
117,79.0684523625,79.4172893625,79.0,110.0
118,79.4172893625,79.939091375,77.0,117.0
119,79.9405448625,80.4638003625,77.0,113.0
120,80.4638003625,80.8126373625,79.0,113.0
121,80.8126373625,81.5103113625,77.0,117.0
122,81.5103113625,81.85914836250001,74.0,117.0
123,81.85914836250001,82.2079853625,77.0,114.0
124,82.2079853625,83.2544963625,79.0,116.0
125,83.2544963625,83.60187987500001,82.0,119.0
126,83.6033333625,84.3010073625,82.0,119.0
127,84.3010073625,84.99868136250001,79.0,119.0
128,84.99868136250001,87.0917033625,77.0,120.0
129,87.0917033625,87.4405403625,74.0,116.0
130,87.4405403625,87.7893773625,77.0,108.0
131,87.7893773625,88.311179375,79.0,114.0
132,88.31263286250001,88.834434875,79.0,114.0
133,88.8358883625,89.183271875,79.0,116.0
134,89.1847253625,89.8823993625,79.0,116.0
135,89.8823993625,90.2312363625,82.0,108.0
136,90.2312363625,90.5800733625,79.0,104.0
137,90.5800733625,90.927456875,77.0,114.0
138,90.9289103625,91.6265843625,77.0,104.0
139,91.6265843625,91.9754213625,79.0,104.0
140,91.9754213625,92.6730953625,77.0,114.0
141,92.6730953625,93.0219323625,74.0,113.0
142,93.0219323625,93.3707693625,72.0,108.0
143,93.3707693625,93.892571375,70.0,113.0
144,93.8940248625,94.41582687500001,70.0,123.0
145,94.41728036250001,94.764663875,70.0,116.0
146,94.7661173625,95.4637913625,70.0,119.0
147,95.4637913625,96.1614653625,77.0,114.0
148,96.1614653625,98.253033875,74.0,117.0
149,98.2544873625,98.6033243625,74.0,114.0
150,98.6033243625,98.95216136250001,72.0,104.0
151,98.95216136250001,99.47396337500001,70.0,113.0
152,99.4754168625,99.997218875,70.0,116.0
153,99.9986723625,100.346055875,70.0,116.0
154,100.3475093625,101.043729875,70.0,119.0
155,101.0451833625,101.3940203625,70.0,119.0
156,101.3940203625,101.7428573625,74.0,110.0
157,101.7428573625,102.26465937500001,77.0,117.0
158,102.2661128625,102.7893683625,77.0,113.0
159,102.7893683625,103.1382053625,74.0,113.0
160,103.1382053625,103.83587936250001,77.0,117.0
161,103.83587936250001,104.1847163625,74.0,117.0
162,104.1847163625,104.5335533625,77.0,114.0
163,104.5335533625,108.3707603625,79.0,116.0
164,108.3707603625,108.7195973625,65.0,100.0
165,108.7195973625,109.2428528625,74.0,110.0
166,109.2428528625,109.7661083625,72.0,94.0
167,109.7661083625,110.113491875,70.0,113.0
168,110.11494536250001,112.7661065625,70.0,119.0
169,137.3242313625,137.6730683625,65.0,110.0
170,137.6730683625,138.0219053625,67.0,100.0
171,138.0219053625,138.543707375,70.0,116.0
172,138.5451608625,139.066962875,70.0,100.0
173,139.0684163625,139.41289298750002,70.0,106.0
174,139.41432976875,140.10398476875,70.0,113.0
175,140.10398476875,140.44881226875,67.0,110.0
176,140.44881226875,140.79363976875,65.0,98.0
177,140.79363976875,141.3094442375,70.0,113.0
178,141.31088101875,141.82812226875,70.0,113.0
179,141.82812226875,142.24766239375,72.0,110.0
180,142.17294976875002,142.86260476875,70.0,119.0
181,142.86260476875,143.20743226875,67.0,102.0
182,143.20743226875,143.55225976875002,70.0,100.0
183,143.55225976875002,144.0680642375,72.0,102.0
184,144.06950101875,144.58530548750002,72.0,107.0
185,144.58674226875002,144.9301329875,72.0,104.0
186,144.93156976875002,145.62122476875,72.0,107.0
187,145.62122476875,145.97467295625,70.0,113.0
188,145.96605226875002,146.31087976875,67.0,98.0
189,146.31087976875,146.82668423750002,72.0,108.0
190,146.82812101875,147.34536226875002,72.0,107.0
191,147.34536226875002,147.69341407500002,74.0,110.0
192,147.69341407500002,148.39108807500003,72.0,110.0
193,148.39108807500003,148.73992507500003,74.0,104.0
194,148.73992507500003,149.08876207500003,77.0,108.0
195,149.08876207500003,149.61056408750002,79.0,116.0
196,149.612017575,150.13527307500001,79.0,114.0
197,150.13527307500001,150.48411007500002,77.0,113.0
198,150.48411007500002,151.18178407500002,79.0,116.0
199,151.18178407500002,151.53062107500003,82.0,116.0
200,151.53062107500003,151.87945807500003,79.0,114.0
201,151.87945807500003,152.22829507500003,77.0,110.0
202,152.22829507500003,152.577132075,74.0,110.0
203,152.577132075,152.94922487500003,72.0,107.0
204,152.925969075,153.27480607500001,70.0,103.0
205,153.27480607500001,153.97248007500002,67.0,91.0
206,153.97248007500002,154.32131707500002,65.0,110.0
207,154.32131707500002,154.67015407500003,67.0,102.0
208,154.67015407500003,155.19195608750002,70.0,113.0
209,155.19340957500003,155.71521158750002,70.0,113.0
210,155.716665075,156.06404858750003,70.0,113.0
211,156.065502075,156.76317607500002,70.0,116.0
212,156.76317607500002,157.46085007500002,72.0,110.0
213,157.46085007500002,158.856198075,70.0,116.0
214,159.55387207500002,159.90270907500002,74.0,116.0
215,159.90270907500002,160.25154607500002,77.0,108.0
216,160.25154607500002,160.7733480875,79.0,114.0
217,160.77480157500003,161.29660358750002,79.0,114.0
218,161.29805707500003,161.64544058750002,79.0,116.0
219,161.64689407500003,162.344568075,79.0,116.0
220,162.344568075,162.69340507500002,82.0,108.0
221,162.69340507500002,163.04224207500002,79.0,104.0
222,163.04224207500002,163.3896255875,77.0,114.0
223,163.39107907500002,164.08875307500003,77.0,104.0
224,164.08875307500003,164.43759007500003,79.0,104.0
225,164.43759007500003,165.135264075,77.0,114.0
226,165.135264075,165.484101075,74.0,113.0
227,165.484101075,165.83293807500002,72.0,108.0
228,165.83293807500002,166.35474008750003,70.0,113.0
229,166.35619357500002,166.8779955875,70.0,123.0
230,166.87944907500003,167.2268325875,70.0,116.0
231,167.22828607500003,167.92596007500003,70.0,119.0
232,167.92596007500003,168.623634075,72.0,114.0
233,168.623634075,170.71520258750002,74.0,117.0
234,170.71665607500003,171.065493075,74.0,114.0
235,171.065493075,171.414330075,72.0,104.0
236,171.414330075,171.93613208750003,70.0,113.0
237,171.937585575,172.45938758750003,70.0,116.0
238,172.46084107500002,172.80822458750004,70.0,116.0
239,172.80967807500002,173.50735207500003,70.0,119.0
240,173.50735207500003,173.85618907500003,82.0,119.0
241,173.85618907500003,174.20502607500003,79.0,110.0
242,174.20502607500003,174.72682808750002,77.0,117.0
243,174.728281575,175.25153707500002,77.0,113.0
244,175.25153707500002,175.60037407500002,79.0,113.0
245,175.60037407500002,176.29804807500003,77.0,117.0
246,176.29804807500003,176.64688507500003,74.0,117.0
247,176.64688507500003,176.99572207500003,77.0,114.0
248,176.99572207500003,178.042233075,79.0,116.0
249,178.042233075,178.38961658750003,82.0,119.0
250,178.39107007500002,179.08874407500002,82.0,119.0
251,179.08874407500002,179.78641807500003,79.0,119.0
252,179.78641807500003,181.87944007500002,77.0,120.0
253,181.87944007500002,182.22827707500002,74.0,116.0
254,182.22827707500002,182.57711407500003,77.0,108.0
255,182.57711407500003,183.09891608750002,79.0,114.0
256,183.10036957500003,183.62217158750002,79.0,114.0
257,183.623625075,183.97100858750002,79.0,116.0
258,183.972462075,184.67013607500002,79.0,116.0
259,184.67013607500002,185.01897307500002,82.0,108.0
260,185.01897307500002,185.36781007500002,79.0,104.0
261,185.36781007500002,185.7151935875,77.0,114.0
262,185.71664707500003,186.41432107500003,77.0,104.0
263,186.41432107500003,186.76315807500004,79.0,104.0
264,186.76315807500004,187.460832075,77.0,114.0
265,187.460832075,187.80966907500002,74.0,113.0
266,187.80966907500002,188.15850607500002,72.0,108.0
267,188.15850607500002,188.6803080875,70.0,113.0
268,188.68176157500002,189.2035635875,70.0,123.0
269,189.20501707500003,189.55240058750002,70.0,116.0
270,189.553854075,190.251528075,70.0,119.0
271,190.94920207500002,193.04077058750002,74.0,117.0
272,193.04222407500004,193.391061075,74.0,114.0
273,193.391061075,193.739898075,72.0,104.0
274,193.739898075,194.2617000875,70.0,113.0
275,194.26315357500002,194.7849555875,70.0,116.0
276,194.78640907500002,195.1337925875,70.0,116.0
277,195.13524607500003,195.83146658750002,70.0,119.0
278,195.832920075,196.181757075,70.0,119.0
279,196.181757075,196.530594075,74.0,110.0
280,196.530594075,197.05239608750003,77.0,117.0
281,197.05384957500002,197.57710507500002,77.0,113.0
282,197.57710507500002,197.92594207500002,74.0,113.0
283,197.92594207500002,198.62361607500003,77.0,117.0
284,198.62361607500003,198.97245307500003,74.0,117.0
285,198.97245307500003,199.32129007500004,77.0,114.0
286,199.32129007500004,203.158497075,79.0,116.0
287,203.158497075,203.50733407500002,65.0,100.0
288,203.50733407500002,204.03058957500002,74.0,110.0
289,204.03058957500002,204.55384507500003,72.0,94.0
290,204.55384507500003,204.90122858750001,70.0,113.0
291,206.9506459625,207.2994829625,74.0,116.0
292,204.90268207500003,207.55384327500002,70.0,119.0
293,207.2994829625,207.6483199625,77.0,108.0
294,207.6483199625,208.17012197500003,79.0,114.0
295,208.17157546250002,208.69337747500003,79.0,114.0
296,208.69483096250002,209.04221447500004,79.0,116.0
297,209.04366796250002,209.74134196250003,79.0,116.0
298,209.74134196250003,210.09017896250003,82.0,108.0
299,210.09017896250003,210.43901596250004,79.0,104.0
300,210.43901596250004,210.78639947500002,77.0,114.0
301,210.7878529625,211.48552696250002,77.0,104.0
302,211.48552696250002,211.83436396250002,79.0,104.0
303,211.83436396250002,212.53203796250003,77.0,114.0
304,212.53203796250003,212.8808749625,74.0,113.0
305,212.8808749625,213.2297119625,72.0,108.0
306,213.2297119625,213.75151397500002,70.0,113.0
307,213.7529674625,214.27476947500003,70.0,123.0
308,214.27622296250001,214.62360647500003,70.0,116.0
309,214.62505996250002,215.32273396250002,70.0,119.0
310,215.32273396250002,216.02040796250003,72.0,114.0
311,216.02040796250003,218.111976475,74.0,117.0
312,218.11342996250002,218.46226696250002,74.0,114.0
313,218.46226696250002,218.81110396250003,72.0,104.0
314,218.81110396250003,219.33290597500002,70.0,113.0
315,219.3343594625,219.85616147500002,70.0,116.0
316,219.8576149625,220.20499847500002,70.0,116.0
317,220.2064519625,220.90412596250002,70.0,119.0
318,220.90412596250002,221.25296296250002,82.0,119.0
319,221.25296296250002,221.60179996250002,79.0,110.0
320,221.60179996250002,222.123601975,77.0,117.0
321,222.12505546250003,222.64831096250003,77.0,113.0
322,222.64831096250003,222.99714796250004,79.0,113.0
323,222.99714796250004,223.69482196250001,77.0,117.0
324,223.69482196250001,224.04365896250002,74.0,117.0
325,224.04365896250002,224.39249596250002,77.0,114.0
326,224.39249596250002,225.4390069625,79.0,116.0
327,225.4390069625,225.78639047500002,82.0,119.0
328,225.7878439625,226.4855179625,82.0,119.0
329,226.4855179625,227.18319196250002,79.0,119.0
330,227.18319196250002,229.27621396250004,77.0,120.0
331,229.27621396250004,229.62505096250004,74.0,116.0
332,229.62505096250004,229.97388796250002,77.0,108.0
333,229.97388796250002,230.495689975,79.0,114.0
334,230.49714346250002,231.018945475,79.0,114.0
335,231.02039896250002,231.367782475,79.0,116.0
336,231.3692359625,232.0669099625,79.0,116.0
337,232.0669099625,232.4157469625,82.0,108.0
338,232.4157469625,232.7645839625,79.0,104.0
339,232.7645839625,233.11196747500003,77.0,114.0
340,233.11342096250002,233.81109496250002,77.0,104.0
341,233.81109496250002,234.15993196250002,79.0,104.0
342,234.15993196250002,234.85760596250003,77.0,114.0
343,234.85760596250003,235.20644296250003,74.0,113.0
344,235.20644296250003,235.55527996250004,72.0,108.0
345,235.55527996250004,236.07708197500003,70.0,113.0
346,236.0785354625,236.600337475,70.0,123.0
347,236.60179096250002,236.949174475,70.0,116.0
348,236.95062796250002,237.6483019625,70.0,119.0
349,237.6483019625,238.3459759625,77.0,114.0
350,238.3459759625,240.43754447500004,74.0,117.0
351,240.43899796250003,240.78783496250003,74.0,114.0
352,240.78783496250003,241.13667196250003,72.0,104.0
353,241.13667196250003,241.65847397500002,70.0,113.0
354,241.65992746250004,242.18172947500003,70.0,116.0
355,242.18318296250004,242.530566475,70.0,116.0
356,242.53201996250002,243.228240475,70.0,119.0
357,243.22969396250002,243.57853096250003,70.0,119.0
358,243.57853096250003,243.9273679625,74.0,110.0
359,243.9273679625,244.44916997500002,77.0,117.0
360,244.4506234625,244.9738789625,77.0,113.0
361,244.9738789625,245.3227159625,74.0,113.0
362,245.3227159625,246.02038996250002,77.0,117.0
363,246.02038996250002,246.36922696250002,74.0,117.0
364,246.36922696250002,246.71806396250003,77.0,114.0
365,246.71806396250003,249.21806246250003,79.0,116.0
366,250.94916607500002,251.34887513750002,65.0,100.0
367,251.47242157500003,252.14829326250003,74.0,113.0
368,252.170095575,252.75294406250003,72.0,117.0
369,252.867769575,254.06689676250002,74.0,117.0
370,254.08869907500002,254.84741955000004,72.0,100.0
371,254.96079157500003,257.19770883750004,70.0,104.0
