,start,end,pitch,velocity
0,1.2068962500000002,1.7758616250000003,65.0,83.0
1,1.2068962500000002,1.7988501250000004,70.0,82.0
2,1.2068962500000002,1.8175282812500004,62.0,82.0
3,2.1551718750000006,2.6005740625000007,70.0,82.0
4,2.1551718750000006,2.6163786562500007,65.0,83.0
5,2.1551718750000006,2.6192522187500007,62.0,83.0
6,1.2068962500000002,2.7945395312500008,46.0,83.0
7,3.017240625000001,3.547412906250001,70.0,79.0
8,3.017240625000001,3.606320937500001,67.0,81.0
9,3.017240625000001,3.627872656250001,60.0,78.0
10,3.017240625000001,3.669539312500001,63.0,82.0
11,3.886493281250001,4.485631062500001,60.0,82.0
12,3.886493281250001,4.508619562500001,70.0,84.0
13,3.886493281250001,4.556033343750001,67.0,83.0
14,3.017240625000001,4.599136781250001,46.0,84.0
15,3.886493281250001,4.645113781250001,63.0,81.0
16,4.771550531250001,5.412354968750002,65.0,85.0
17,4.771550531250001,5.431033125000002,70.0,83.0
18,4.771550531250001,5.461205531250001,62.0,84.0
19,5.603446875000001,6.146550187500002,70.0,82.0
20,5.603446875000001,6.211205343750001,62.0,82.0
21,5.603446875000001,6.2801708437500015,65.0,86.0
22,4.771550531250001,6.333331750000002,46.0,84.0
23,6.551722500000001,7.011492500000002,69.0,84.0
24,6.551722500000001,7.054595937500002,65.0,80.0
25,6.551722500000001,7.068963750000002,60.0,78.0
26,6.551722500000001,7.994250875000002,41.0,84.0
27,7.413791250000002,8.010055468750002,60.0,82.0
28,7.413791250000002,8.083331312500002,69.0,86.0
29,7.413791250000002,8.173848531250002,65.0,81.0
30,8.362066875000002,8.902296625000002,70.0,83.0
31,8.362066875000002,8.995687406250003,62.0,79.0
32,8.362066875000002,9.027296593750002,65.0,83.0
33,9.224135625000002,9.757181468750002,70.0,83.0
34,9.224135625000002,9.785917093750003,62.0,80.0
35,8.362066875000002,9.912353843750003,46.0,81.0
36,9.224135625000002,9.975572218750003,65.0,80.0
37,10.043100937500002,10.614939875000003,67.0,81.0
38,10.043100937500002,10.655169750000002,63.0,76.0
39,10.043100937500002,10.676721468750003,72.0,82.0
40,10.948273125000002,11.349135093750002,72.0,79.0
41,10.948273125000002,11.380744281250003,63.0,81.0
42,10.043100937500002,11.497123562500002,46.0,83.0
43,10.948273125000002,11.558905156250002,67.0,82.0
44,11.764364875000004,12.320399218750003,70.0,80.0
45,11.764364875000004,12.376433687500002,65.0,81.0
46,11.764364875000004,12.406606093750003,62.0,78.0
47,11.764364875000004,13.047410531250003,46.0,82.0
48,12.672410625000003,13.267238062500002,62.0,74.0
49,12.672410625000003,13.297410468750003,70.0,78.0
50,12.672410625000003,13.402295500000003,65.0,79.0
51,13.537352937500003,13.643674750000002,67.0,119.0
52,13.573272468750003,14.005743625000003,69.0,119.0
53,13.556031093750002,14.080456250000003,60.0,127.0
54,13.558904656250004,14.087640156250004,53.0,127.0
55,13.560341437500004,14.129306812500003,41.0,121.0
56,13.975571218750003,14.185341281250004,67.0,109.0
57,14.170973468750004,14.248559656250004,65.0,117.0
58,14.426720531250004,14.570398656250003,70.0,96.0
59,14.425283750000004,14.603444625000003,62.0,109.0
60,14.418099843750003,14.616375656250003,65.0,98.0
61,14.431030875000003,14.627869906250003,46.0,122.0
62,14.431030875000003,14.635053812500004,34.0,120.0
63,14.857754906250003,14.902295125000004,29.0,116.0
64,14.854881343750003,14.939651437500004,60.0,104.0
65,14.854881343750003,14.943961781250003,41.0,111.0
66,14.847697437500004,14.969823843750003,65.0,98.0
67,17.999995500000004,18.116374781250006,79.0,55.0
68,18.093386281250005,18.202581656250004,77.0,70.0
69,18.140800062500006,18.323271281250005,74.0,60.0
70,15.071835312500003,19.051719375000005,34.0,124.0
71,15.076145656250004,19.056029718750004,62.0,117.0
72,15.071835312500003,19.068960750000006,46.0,127.0
73,15.071835312500003,19.083328562500004,70.0,116.0
74,15.066088187500004,19.089075687500003,65.0,84.0
75,18.229880500000004,20.137926000000004,72.0,68.0
76,19.902293875000005,20.137926000000004,72.0,75.0
77,20.291661593750003,20.808902843750005,70.0,71.0
78,20.948270625000006,21.410914187500005,65.0,88.0
79,20.948270625000006,21.416661312500004,70.0,83.0
80,20.948270625000006,21.456891187500005,62.0,83.0
81,21.637925625000005,22.100569187500007,65.0,86.0
82,21.637925625000005,22.113500218750005,70.0,78.0
83,21.637925625000005,22.135051937500005,62.0,83.0
84,22.327580625000007,22.780166718750007,65.0,80.0
85,22.327580625000007,22.780166718750007,70.0,72.0
86,22.327580625000007,22.783040281250006,62.0,78.0
87,23.017235625000005,23.415224031250006,70.0,71.0
88,23.017235625000005,23.505741250000007,62.0,78.0
89,23.017235625000005,23.581890656250007,65.0,80.0
90,20.948270625000006,23.688212468750006,46.0,81.0
91,23.706890625000007,24.126430750000004,70.0,85.0
92,23.706890625000007,24.189649125000006,62.0,84.0
93,23.706890625000007,24.206890500000007,67.0,86.0
94,24.396545625000005,24.783039781250007,70.0,80.0
95,24.396545625000005,24.840511031250006,67.0,86.0
96,24.396545625000005,24.847694937500005,62.0,81.0
97,25.086200625000007,25.517235000000007,70.0,75.0
98,25.086200625000007,25.521545343750006,62.0,81.0
99,25.086200625000007,25.544533843750006,67.0,85.0
100,25.775855625000005,26.060338312500008,67.0,82.0
101,25.775855625000005,26.114936000000007,62.0,86.0
102,23.706890625000007,26.418096843750007,43.0,83.0
103,26.465510625000007,26.928154187500006,67.0,86.0
104,26.465510625000007,26.982751875000005,60.0,82.0
105,26.465510625000007,26.985625437500005,63.0,87.0
106,27.155165625000006,27.600567812500007,67.0,81.0
107,27.155165625000006,27.643671250000008,60.0,78.0
108,27.155165625000006,27.662349406250005,63.0,85.0
109,27.844820625000008,28.264360750000005,67.0,84.0
110,27.844820625000008,28.29165959375001,60.0,81.0
111,27.844820625000008,28.308900968750006,63.0,85.0
112,28.534475625000006,29.060337562500006,60.0,80.0
113,28.534475625000006,29.100567437500008,67.0,81.0
114,28.534475625000006,29.147981218750008,63.0,85.0
115,26.465510625000007,29.22125706250001,48.0,81.0
116,29.224130625000008,29.630739718750007,69.0,89.0
117,29.224130625000008,29.714073031250006,60.0,84.0
118,29.224130625000008,29.737061531250006,65.0,86.0
119,29.913785625000006,30.308900468750007,69.0,83.0
120,29.913785625000006,30.379302750000008,60.0,81.0
121,29.913785625000006,30.379302750000008,65.0,84.0
122,30.603440625000008,30.997118687500006,69.0,88.0
123,30.603440625000008,31.033038218750008,60.0,82.0
124,30.603440625000008,31.040222125000007,65.0,85.0
125,31.293095625000007,31.50142890625001,69.0,87.0
126,29.224130625000008,31.507176031250008,41.0,84.0
127,31.293095625000007,31.518670281250007,60.0,80.0
128,31.293095625000007,31.537348437500007,65.0,87.0
129,31.98275062500001,32.43821028125001,70.0,82.0
130,31.98275062500001,32.44252062500001,67.0,86.0
131,31.98275062500001,32.458325218750005,62.0,87.0
132,32.67240562500001,33.09338253125001,70.0,81.0
133,32.67240562500001,33.113734112500005,62.0,83.0
134,32.67240562500001,33.113734112500005,67.0,86.0
135,33.368145750000004,33.79755730000001,70.0,81.0
136,33.368145750000004,33.80343965000001,67.0,88.0
137,33.368145750000004,33.8049102375,62.0,85.0
138,31.98275062500001,34.397557000000006,43.0,84.0
139,34.074027750000006,34.40932170000001,70.0,80.0
140,34.074027750000006,34.43285110000001,62.0,84.0
141,34.074027750000006,34.46226285000001,67.0,88.0
142,34.77990975000001,35.27255656250001,63.0,86.0
143,34.77990975000001,35.276968325000006,67.0,88.0
144,34.77990975000001,35.29755655,60.0,86.0
145,34.77990975000001,35.6490269625,48.0,84.0
146,35.485791750000004,35.86373273750001,60.0,86.0
147,35.485791750000004,35.96520327500001,67.0,85.0
148,35.485791750000004,36.00490913750001,63.0,85.0
149,36.19167375000001,36.67402645000001,67.0,87.0
150,36.19167375000001,36.69902643750001,63.0,84.0
151,36.19167375000001,36.729908775000006,58.0,84.0
152,36.19167375000001,36.9666733625,51.0,80.0
153,36.19167375000001,37.03284980000001,39.0,81.0
154,36.89755575000001,37.172555612500005,58.0,87.0
155,36.89755575000001,37.26667321250001,67.0,89.0
156,36.89755575000001,37.33873200000001,63.0,83.0
157,37.603437750000005,38.046084587500005,67.0,88.0
158,37.603437750000005,38.118143375,63.0,86.0
159,37.603437750000005,38.129908075,60.0,87.0
160,37.603437750000005,38.37255501250001,36.0,83.0
161,37.603437750000005,38.438731450000006,48.0,82.0
162,38.30931975000001,38.71814307500001,67.0,89.0
163,38.30931975000001,38.835790075000006,63.0,86.0
164,38.30931975000001,38.875495937500006,60.0,87.0
165,39.01520175,39.5034368,65.0,91.0
166,39.01520175,39.5431426625,57.0,86.0
167,39.01520175,39.5549073625,60.0,84.0
168,39.01520175,39.77990725000001,41.0,79.0
169,39.01520175,39.840201337500005,53.0,84.0
170,39.721083750000005,40.197554100000005,65.0,88.0
171,39.721083750000005,40.213730562500004,57.0,84.0
172,39.721083750000005,40.332848150000004,60.0,86.0
173,40.42696575000001,40.9049066875,65.0,87.0
174,40.42696575000001,40.940200787500004,62.0,88.0
175,41.13284775,41.67696512500001,65.0,84.0
176,41.13284775,41.707847462500006,62.0,84.0
177,40.42696575000001,42.156376650000006,46.0,82.0
178,41.838729750000006,42.337258912500005,62.0,86.0
179,41.838729750000006,42.35196478750001,65.0,84.0
180,43.244273400000004,43.7069169625,65.0,88.0
181,43.244273400000004,43.71266408750001,70.0,83.0
182,43.244273400000004,43.7528939625,62.0,83.0
183,43.933928400000006,44.396571962500005,65.0,86.0
184,43.933928400000006,44.40950299375001,70.0,78.0
185,43.933928400000006,44.43105471250001,62.0,83.0
186,44.62358340000001,45.07616949375001,65.0,80.0
187,44.62358340000001,45.07616949375001,70.0,72.0
188,44.62358340000001,45.07904305625001,62.0,78.0
189,45.31323840000001,45.71122680625001,70.0,71.0
190,45.31323840000001,45.801744025000005,62.0,78.0
191,45.31323840000001,45.87789343125001,65.0,80.0
192,43.244273400000004,45.98421524375001,46.0,81.0
193,46.002893400000005,46.42243352500001,70.0,85.0
194,46.002893400000005,46.48565190000001,62.0,84.0
195,46.002893400000005,46.502893275000005,67.0,86.0
196,46.69254840000001,47.07904255625001,70.0,80.0
197,46.69254840000001,47.13651380625001,67.0,86.0
198,46.69254840000001,47.14369771250001,62.0,81.0
199,47.38220340000001,47.813237775000005,70.0,75.0
200,47.38220340000001,47.81754811875001,62.0,81.0
201,47.38220340000001,47.84053661875001,67.0,85.0
202,48.07185840000001,48.356341087500006,67.0,82.0
203,48.07185840000001,48.410938775000005,62.0,86.0
204,46.002893400000005,48.714099618750005,43.0,83.0
205,48.761513400000005,49.224156962500004,67.0,86.0
206,48.761513400000005,49.27875465000001,60.0,82.0
207,48.761513400000005,49.28162821250001,63.0,87.0
208,49.45116840000001,49.89657058750001,67.0,81.0
209,49.45116840000001,49.93967402500001,60.0,78.0
210,49.45116840000001,49.95835218125001,63.0,85.0
211,50.14082340000001,50.56036352500001,67.0,84.0
212,50.14082340000001,50.58766236875001,60.0,81.0
213,50.14082340000001,50.60490374375001,63.0,85.0
214,50.83047840000001,51.35634033750001,60.0,80.0
215,50.83047840000001,51.39657021250001,67.0,81.0
216,50.83047840000001,51.44398399375001,63.0,85.0
217,48.761513400000005,51.517259837500006,48.0,81.0
218,51.520133400000006,51.92674249375001,69.0,89.0
219,51.520133400000006,52.01007580625001,60.0,84.0
220,51.520133400000006,52.03306430625001,65.0,86.0
221,52.20978840000001,52.60490324375001,69.0,83.0
222,52.20978840000001,52.675305525000006,60.0,81.0
223,52.20978840000001,52.675305525000006,65.0,84.0
224,52.89944340000001,53.29312146250001,69.0,88.0
225,52.89944340000001,53.32904099375001,60.0,82.0
226,52.89944340000001,53.336224900000005,65.0,85.0
227,53.58909840000001,53.79743168125001,69.0,87.0
228,51.520133400000006,53.80317880625001,41.0,84.0
229,53.58909840000001,53.81467305625001,60.0,80.0
230,53.58909840000001,53.833351212500006,65.0,87.0
231,54.27875340000001,54.73421305625001,70.0,82.0
232,54.27875340000001,54.738523400000005,67.0,86.0
233,54.27875340000001,54.75432799375001,62.0,87.0
234,54.96840840000001,55.389385306250006,70.0,81.0
235,54.96840840000001,55.409939725000015,62.0,83.0
236,54.96840840000001,55.409939725000015,67.0,86.0
237,55.664351362500014,56.09376291250001,70.0,81.0
238,55.664351362500014,56.09964526250001,67.0,88.0
239,55.664351362500014,56.10111585000001,62.0,85.0
240,54.27875340000001,56.69376261250001,43.0,84.0
241,56.37023336250001,56.70552731250001,70.0,80.0
242,56.37023336250001,56.72905671250001,62.0,84.0
243,56.37023336250001,56.75846846250001,67.0,88.0
244,57.07611536250001,57.589350400000015,65.0,93.0
245,57.07611536250001,57.589350400000015,69.0,91.0
246,57.07611536250001,57.59817392500001,62.0,87.0
247,57.07611536250001,57.890820837500016,50.0,86.0
248,57.781997362500015,58.10258543750001,69.0,86.0
249,57.781997362500015,58.129056012500016,65.0,86.0
250,57.781997362500015,58.14964423750001,62.0,86.0
251,58.48787936250001,58.96582030000001,70.0,84.0
252,58.48787936250001,59.018761450000014,62.0,86.0
253,58.48787936250001,59.026114387500016,67.0,88.0
254,58.48787936250001,59.326114237500015,43.0,87.0
255,59.19376136250001,59.626114087500014,70.0,78.0
256,59.19376136250001,59.673172887500016,62.0,86.0
257,59.19376136250001,59.67464347500001,67.0,85.0
258,59.899643362500015,60.38934900000001,67.0,93.0
259,59.899643362500015,60.42317251250001,63.0,86.0
260,59.899643362500015,60.43640780000001,58.0,86.0
261,59.899643362500015,60.79817232500001,39.0,87.0
262,60.60552536250001,60.92905461250001,58.0,85.0
263,60.60552536250001,61.06140748750001,63.0,82.0
264,60.60552536250001,61.11581922500001,67.0,88.0
265,61.31140736250001,61.85993650000001,65.0,87.0
266,61.31140736250001,61.86728943750001,69.0,89.0
267,61.31140736250001,61.87905413750001,60.0,86.0
268,61.31140736250001,62.04670111250001,41.0,82.0
269,61.31140736250001,62.073171687500015,53.0,81.0
270,62.01728936250001,62.454053850000015,69.0,87.0
271,62.01728936250001,62.56287732500001,65.0,88.0
272,62.01728936250001,62.65111257500001,60.0,87.0
273,62.01728936250001,62.72317136250001,43.0,97.0
274,62.72317136250001,63.26728873750001,65.0,89.0
275,62.72317136250001,63.277582850000016,62.0,93.0
276,62.72317136250001,63.61875915000001,58.0,84.0
277,63.429053362500014,63.952582512500015,65.0,84.0
278,63.429053362500014,63.974641325000015,62.0,88.0
279,63.781994362500015,64.30552351250002,58.0,68.0
280,64.13493536250002,64.53346457500001,65.0,84.0
281,62.72317136250001,64.54375868750002,46.0,83.0
282,64.13493536250002,64.54964103750001,62.0,90.0
283,65.54669936250001,66.02905206250001,67.0,96.0
284,65.54669936250001,66.08052262500001,62.0,102.0
285,65.54669936250001,66.12905201250001,58.0,91.0
286,66.25258136250001,66.67463997500002,67.0,88.0
287,66.25258136250001,66.719619675,62.0,88.0
288,66.25258136250001,66.73255070625001,58.0,84.0
289,66.60552236250001,66.74835530000001,55.0,70.0
290,66.95237823750001,67.26990689375,58.0,83.0
291,66.95237823750001,67.340309175,67.0,88.0
292,66.95237823750001,67.4064011125,62.0,91.0
293,67.6420332375,67.8144469875,58.0,86.0
294,65.54669936250001,67.88484926875,43.0,85.0
295,67.6420332375,68.110423925,67.0,88.0
296,67.6420332375,68.20812505,62.0,89.0
297,68.3316882375,68.78714789375,65.0,91.0
298,68.3316882375,68.84174558125001,62.0,89.0
299,68.3316882375,68.87622833125,69.0,89.0
300,69.0213432375,69.56732011250001,65.0,82.0
301,69.0213432375,69.58456148750001,62.0,78.0
302,69.0213432375,69.60323964375002,69.0,76.0
303,69.71099823750001,70.248354425,62.0,83.0
304,69.71099823750001,70.26272223750001,65.0,88.0
305,69.71099823750001,70.26559580000001,69.0,81.0
306,68.3316882375,70.4495038,38.0,83.0
307,68.3316882375,70.455250925,50.0,86.0
308,70.40065323750001,70.64490605,69.0,85.0
309,70.40065323750001,70.69806695625,65.0,88.0
310,70.40065323750001,70.71818189375001,62.0,87.0
311,71.09030823750001,71.49835411250001,67.0,93.0
312,71.09030823750001,71.55151501875001,63.0,90.0
313,71.09030823750001,71.58887133125,58.0,86.0
314,71.09030823750001,71.86473333125001,39.0,85.0
315,71.09030823750001,71.88341148750001,51.0,83.0
316,71.77996323750001,72.08456086250001,58.0,85.0
317,71.77996323750001,72.14921601875001,67.0,89.0
318,71.77996323750001,72.26559530000002,63.0,85.0
319,72.46961823750001,72.95381351875001,65.0,86.0
320,72.46961823750001,72.99116983125,69.0,88.0
321,72.46961823750001,72.99260661250001,60.0,87.0
322,72.46961823750001,73.21674448750001,41.0,86.0
323,72.46961823750001,73.22680195625001,53.0,83.0
324,73.1592732375,73.64059495625001,69.0,87.0
325,73.1592732375,73.76990526875001,65.0,88.0
326,73.1592732375,73.81588226875002,60.0,87.0
327,73.8489282375,74.38053730000001,65.0,88.0
328,73.8489282375,74.38915798750001,62.0,90.0
329,74.5385832375,75.08735010000001,65.0,85.0
330,74.5385832375,75.09316405,62.0,88.0
331,75.2312453625,75.694907875,65.0,84.0
332,75.2312453625,75.7341520375,62.0,88.0
333,73.8489282375,75.985605375,58.0,85.0
334,73.8489282375,76.0873495,46.0,81.0
335,75.9289193625,76.113512275,65.0,87.0
336,75.9289193625,76.2951982125,62.0,91.0
337,76.6265933625,77.02194196250001,67.0,91.0
338,76.6265933625,77.0771744875,62.0,92.0
339,76.6265933625,77.1556628125,58.0,86.0
340,77.3242673625,77.6934531875,67.0,85.0
341,77.3242673625,77.7864763875,62.0,84.0
342,77.3242673625,77.8213600875,58.0,79.0
343,78.0219413625,78.4013016,67.0,88.0
344,78.0219413625,78.46234807500001,62.0,88.0
345,78.0219413625,78.4783364375,58.0,83.0
346,76.6265933625,78.7050804875,55.0,82.0
347,76.6265933625,78.8388013375,43.0,81.0
348,78.71961536250001,78.9478129,58.0,83.0
349,78.71961536250001,79.0597314375,67.0,91.0
350,78.71961536250001,79.2951964125,62.0,91.0
351,79.4172893625,79.8998472125,65.0,88.0
352,79.4172893625,79.95362625,62.0,91.0
353,79.4172893625,79.956533225,57.0,88.0
354,80.1149633625,80.65420722500001,65.0,82.0
355,80.1149633625,80.68037,62.0,87.0
356,80.1149633625,80.6876374375,57.0,82.0
357,80.8126373625,81.3620556375,65.0,82.0
358,80.8126373625,81.3794974875,62.0,87.0
359,80.8126373625,81.3824044625,57.0,84.0
360,79.4172893625,81.5655438875,50.0,86.0
361,79.4172893625,81.5946136375,38.0,87.0
362,81.5103113625,81.846066975,57.0,86.0
363,81.5103113625,81.851880925,65.0,87.0
364,81.5103113625,81.9129274,62.0,94.0
365,82.2079853625,82.6701943875,67.0,91.0
366,82.2079853625,82.712345525,63.0,87.0
367,82.2079853625,82.723973425,58.0,85.0
368,82.9056593625,83.354787,67.0,87.0
369,82.9056593625,83.4143799875,63.0,83.0
370,82.9056593625,83.415833475,58.0,84.0
371,83.6033333625,84.0074028875,67.0,88.0
372,83.6033333625,84.055367975,63.0,85.0
373,83.6033333625,84.0597284375,58.0,84.0
374,82.2079853625,84.5015886375,39.0,85.0
375,82.2079853625,84.526297925,51.0,86.0
376,84.3010073625,84.5422862875,67.0,88.0
377,84.3010073625,84.543739775,58.0,85.0
378,84.3010073625,84.5873444,63.0,85.0
379,84.99868136250001,85.5190298875,57.0,83.0
380,84.99868136250001,85.5524601,65.0,94.0
381,84.99868136250001,85.5539135875,60.0,86.0
382,85.6963553625,86.0858900125,55.0,91.0
383,86.0451923625,86.334436375,57.0,98.0
384,85.5219368625,86.52629672500001,53.0,84.0
385,86.3940293625,86.7661221625,57.0,88.0
386,86.3940293625,86.805366325,65.0,89.0
387,86.3940293625,86.8417035125,60.0,98.0
388,86.7428663625,87.3736799375,53.0,90.0
389,85.3475183625,87.456528725,48.0,78.0
390,87.0917033625,87.456528725,57.0,90.0
391,87.0917033625,87.4608891875,65.0,92.0
392,84.99868136250001,87.49141242500001,41.0,87.0
393,87.0917033625,87.497226375,60.0,100.0
394,87.7893773625,88.19780735,67.0,98.0
395,87.7893773625,88.2733887,62.0,98.0
396,87.7893773625,88.3504235375,58.0,86.0
397,88.4870513625,88.7733884,67.0,87.0
398,88.4870513625,88.84606277500001,62.0,108.0
399,88.4870513625,88.93617900000001,58.0,86.0
400,89.1847253625,89.5292019,67.0,91.0
401,89.1847253625,89.5393763125,62.0,94.0
402,89.1847253625,89.60042278750001,58.0,86.0
403,89.5335623625,89.927457475,55.0,84.0
404,87.7893773625,89.9928644125,43.0,89.0
405,89.8823993625,90.2254224125,58.0,91.0
406,90.2312363625,90.37222465,43.0,85.0
407,89.8823993625,90.4245502,67.0,98.0
408,89.8823993625,90.4347246125,62.0,96.0
409,90.5800733625,90.9289103625,57.0,93.0
410,90.5800733625,90.9521661625,62.0,89.0
411,90.5800733625,90.97832893750001,65.0,83.0
412,90.5800733625,91.39547985,50.0,86.0
413,91.27774736250001,91.75158428750001,65.0,88.0
414,91.27774736250001,91.7632121875,57.0,87.0
415,91.27774736250001,91.7748400875,62.0,91.0
416,91.9754213625,92.35332811250001,62.0,94.0
417,91.9754213625,92.3911187875,57.0,88.0
418,91.9754213625,92.44053736250001,65.0,88.0
419,92.3242583625,92.69780465,50.0,87.0
420,90.5800733625,92.712339525,38.0,90.0
421,92.6730953625,92.9056533625,57.0,104.0
422,92.6730953625,93.0568160625,62.0,113.0
423,92.6730953625,93.06117652500001,65.0,104.0
424,93.0219323625,93.119316025,38.0,93.0
425,93.3707693625,93.7515830875,67.0,92.0
426,93.3707693625,93.75303657500001,63.0,90.0
427,93.3707693625,93.89547835,58.0,86.0
428,93.7196063625,94.1556526125,51.0,80.0
429,93.3707693625,94.1847223625,39.0,91.0
430,94.0684433625,94.3853036375,67.0,100.0
431,94.0684433625,94.4027454875,58.0,89.0
432,94.0684433625,94.433268725,63.0,87.0
433,94.41728036250001,94.514664025,51.0,97.0
434,94.7661173625,95.1353031875,65.0,94.0
435,94.7661173625,95.1876287375,57.0,89.0
436,94.7661173625,95.2166984875,60.0,98.0
437,95.1149543625,95.497221575,53.0,88.0
438,95.4637913625,95.6760005375,57.0,100.0
439,94.7661173625,95.79082605,41.0,87.0
440,95.4637913625,95.82570975,65.0,96.0
441,95.4637913625,95.90710505,60.0,94.0
442,95.8126283625,95.979779425,53.0,90.0
443,96.1614653625,96.52774421250001,62.0,94.0
444,96.1614653625,96.561174425,65.0,93.0
445,96.8591393625,97.10477875000001,70.0,86.0
446,96.8591393625,97.21379031250001,65.0,88.0
447,96.8591393625,97.2166972875,62.0,87.0
448,97.2079763625,97.6338482,58.0,82.0
449,97.55681336250001,97.991406125,70.0,91.0
450,97.55681336250001,97.9928596125,62.0,88.0
451,97.55681336250001,97.9928596125,65.0,91.0
452,97.9056503625,98.2733827,58.0,81.0
453,96.5103023625,98.2835571125,53.0,73.0
454,96.1614653625,98.40710355,46.0,86.0
455,98.2544873625,98.4594291,70.0,87.0
456,98.2544873625,98.520475575,65.0,98.0
457,98.2544873625,98.5742546125,62.0,91.0
458,98.95216136250001,99.2864634875,67.0,93.0
459,98.95216136250001,99.34896345,62.0,93.0
460,98.95216136250001,99.4870447625,58.0,84.0
461,99.6498353625,99.98559097500001,67.0,90.0
462,99.6498353625,100.0190211875,62.0,91.0
463,99.6498353625,100.0248351375,58.0,87.0
464,99.9986723625,100.421637225,55.0,81.0
465,100.3475093625,100.72105565000001,67.0,88.0
466,100.3475093625,100.7384975,62.0,93.0
467,100.3475093625,100.78064863750001,58.0,87.0
468,100.69634636250001,101.0568112625,55.0,80.0
469,98.95216136250001,101.11640425,43.0,85.0
470,101.0451833625,101.34896225,58.0,95.0
471,101.0451833625,101.3707645625,62.0,102.0
472,101.0451833625,101.386752925,67.0,96.0
473,101.3940203625,101.4826831,43.0,87.0
474,101.7428573625,102.0175665,65.0,85.0
475,101.7428573625,102.212333825,57.0,87.0
476,101.7428573625,102.25593845,62.0,92.0
477,102.09169436250001,102.497217375,50.0,83.0
478,102.4405313625,102.8504148375,65.0,88.0
479,102.4405313625,102.880938075,57.0,85.0
480,102.4405313625,102.88384505,62.0,89.0
481,102.7893683625,103.206519275,50.0,74.0
482,103.1382053625,103.5451818625,57.0,86.0
483,103.1382053625,103.5451818625,65.0,89.0
484,103.1382053625,103.60186787500001,62.0,89.0
485,101.7428573625,103.9579723125,38.0,86.0
486,103.4870423625,104.00739088750001,50.0,83.0
487,103.83587936250001,104.0829722375,57.0,89.0
488,103.83587936250001,104.1222164,62.0,88.0
489,103.83587936250001,104.1323908125,65.0,86.0
490,105.23122736250001,105.7457619375,63.0,86.0
491,105.23122736250001,105.77192471250001,67.0,89.0
492,105.23122736250001,105.7835526125,58.0,86.0
493,105.9289013625,106.4201801375,67.0,89.0
494,105.9289013625,106.4318080375,63.0,86.0
495,105.9289013625,106.45651732500001,58.0,84.0
496,106.6265753625,107.1004122875,67.0,88.0
497,106.6265753625,107.15273783750001,58.0,85.0
498,106.6265753625,107.165819225,63.0,83.0
499,104.5335533625,108.235586025,39.0,97.0
500,107.32424936250001,108.2457604375,67.0,96.0
501,107.32424936250001,108.25593485,58.0,88.0
502,107.32424936250001,108.2602953125,63.0,89.0
503,104.8823903625,108.26320228750001,51.0,81.0
504,108.7195973625,109.5640736,41.0,81.0
505,108.7195973625,109.6788991125,53.0,86.0
506,108.7195973625,109.68616655,60.0,94.0
507,108.7195973625,109.689073525,57.0,89.0
508,108.7195973625,109.70215491249999,65.0,93.0
509,110.11494536250001,110.58587531250001,62.0,89.0
510,110.11494536250001,110.5989567,65.0,87.0
511,110.11494536250001,110.6236659875,58.0,82.0
512,110.8126193625,111.2690144375,65.0,81.0
513,110.8126193625,111.27773536250001,62.0,86.0
514,110.8126193625,111.3315144,58.0,78.0
515,111.5102933625,111.9245373,65.0,82.0
516,111.5102933625,111.9710489,62.0,84.0
517,111.5102933625,112.00302562499999,58.0,77.0
518,112.2079673625,112.6033159625,65.0,81.0
519,110.11494536250001,112.613490375,46.0,85.0
520,112.2079673625,112.625118275,62.0,81.0
521,112.2079673625,112.6672694125,58.0,79.0
522,112.9056413625,113.33732715,65.0,92.0
523,112.9056413625,113.386745725,56.0,91.0
524,112.9056413625,113.3940131625,61.0,102.0
525,112.9056413625,113.822791975,49.0,88.0
526,113.60331536250001,113.88093147500001,65.0,90.0
527,112.9056413625,113.88383845,37.0,89.0
528,113.60331536250001,113.886745425,61.0,93.0
529,113.60331536250001,113.89691983750001,56.0,90.0
530,114.3009893625,114.73848910000001,63.0,93.0
531,114.3009893625,114.7864541875,55.0,91.0
532,114.3009893625,114.793721625,60.0,107.0
533,114.3009893625,115.0829656375,48.0,87.0
534,114.3009893625,115.1178493375,36.0,89.0
535,114.9986633625,115.2893608625,55.0,88.0
536,114.9986633625,115.29662830000001,63.0,88.0
537,114.9986633625,115.3009887625,60.0,88.0
538,115.6963373625,116.15418592500001,61.0,92.0
539,115.6963373625,116.2428486625,58.0,104.0
540,115.6963373625,116.2515695875,53.0,90.0
541,115.6963373625,116.5291857,46.0,88.0
542,116.39401136250001,116.962324975,61.0,88.0
543,116.39401136250001,116.97685985000001,58.0,91.0
544,116.39401136250001,116.9812203125,53.0,88.0
545,116.74284836250001,117.1178481375,46.0,73.0
546,117.0916853625,117.5393595125,61.0,88.0
547,117.0916853625,117.5829641375,58.0,93.0
548,117.0916853625,117.60476645,53.0,88.0
549,117.4405223625,117.8329639875,46.0,86.0
550,115.6963373625,117.9012779,34.0,90.0
551,117.7893593625,118.02482433750001,53.0,102.0
552,117.7893593625,118.09023127500001,58.0,113.0
553,117.7893593625,118.09604522500001,61.0,96.0
554,118.1381963625,118.2515683875,34.0,94.0
555,118.4870333625,118.968137725,65.0,102.0
556,118.4870333625,118.99720747500001,61.0,113.0
557,118.4870333625,119.0059284,56.0,93.0
558,118.4870333625,119.3445909875,37.0,88.0
559,119.1847073625,119.5277304125,65.0,94.0
560,119.1847073625,119.532090875,61.0,104.0
561,119.1847073625,119.5538931875,56.0,96.0
562,119.35912586250001,119.6323815125,37.0,88.0
563,119.88238136250001,120.3445903875,63.0,96.0
564,119.88238136250001,120.3765671125,60.0,108.0
565,119.88238136250001,120.404183375,55.0,104.0
566,119.88238136250001,120.65272973750001,48.0,88.0
567,119.88238136250001,120.6687181,36.0,91.0
568,120.5800553625,120.9288923625,63.0,89.0
569,120.5800553625,120.9376132875,60.0,107.0
570,120.5800553625,120.96959001249999,55.0,98.0
571,120.9288923625,120.9942993,48.0,88.0
572,120.9288923625,121.01174115,36.0,84.0
573,121.2777293625,121.73267095,61.0,94.0
574,121.2777293625,121.81406625,58.0,108.0
575,121.2777293625,121.822787175,53.0,91.0
576,121.9754033625,122.4521472625,61.0,90.0
577,121.9754033625,122.5306355875,58.0,93.0
578,121.9754033625,122.532089075,53.0,88.0
579,122.67307736250001,123.1817979875,61.0,91.0
580,122.67307736250001,123.24865841249999,58.0,98.0
581,122.67307736250001,123.26755375,53.0,88.0
582,123.3707513625,123.840227825,53.0,88.0
583,123.3707513625,123.87220454999999,61.0,96.0
584,123.3707513625,123.88383245,58.0,104.0
585,121.2777293625,123.92307661250001,46.0,89.0
586,121.2777293625,123.933251025,34.0,92.0
587,124.0684253625,124.5945878375,65.0,104.0
588,124.0684253625,124.63383200000001,56.0,102.0
589,124.0684253625,124.636738975,61.0,114.0
590,124.0684253625,124.9463318125,49.0,98.0
591,124.0684253625,124.95214576250001,37.0,104.0
592,124.7660993625,125.2966223,56.0,93.0
593,124.7660993625,125.3474943625,65.0,98.0
594,124.7660993625,125.3620292375,61.0,107.0
595,125.4637733625,126.02481953750001,65.0,107.0
596,125.4637733625,126.078598575,62.0,116.0
597,125.4637733625,126.0887729875,58.0,100.0
598,125.4637733625,126.2690054375,38.0,93.0
599,125.4637733625,126.28935426250001,50.0,95.0
600,126.16144736250001,126.5059239,62.0,106.0
601,126.16144736250001,126.6352842875,65.0,98.0
602,126.16144736250001,126.7108656375,58.0,94.0
603,126.8591213625,127.3504001375,67.0,100.0
604,126.8591213625,127.3896443,63.0,114.0
605,126.8591213625,127.404179175,58.0,100.0
606,126.8591213625,127.93034165,51.0,88.0
607,126.8591213625,127.9783067375,39.0,91.0
608,127.5567953625,128.032085775,58.0,90.0
609,127.5567953625,128.032085775,67.0,91.0
610,127.5567953625,128.0451671625,63.0,98.0
611,128.2544693625,129.1498176625,40.0,86.0
612,128.2544693625,129.168713,52.0,93.0
613,128.2544693625,129.2021432125,67.0,113.0
614,128.2544693625,129.26318968750002,64.0,116.0
615,128.2544693625,129.3082478,60.0,107.0
616,129.64981736250002,134.049524025,60.0,114.0
617,129.64981736250002,134.0509775125,57.0,100.0
618,129.64981736250002,134.0858612125,65.0,116.0
619,129.64981736250002,134.12074491250002,53.0,93.0
620,129.64981736250002,134.136733275,41.0,102.0
621,135.0567908625,136.561150425,62.0,97.0
622,135.0567908625,136.6352782875,65.0,107.0
623,135.0567908625,136.6570806,70.0,102.0
624,135.0567908625,137.6905102125,46.0,94.0
625,138.0219053625,138.7166723875,70.0,86.0
626,138.0219053625,138.9056257625,62.0,91.0
627,138.71957936249999,139.30082405000002,58.0,77.0
628,139.0684163625,139.87409976875,70.0,116.0
629,139.0684163625,139.89708826875,62.0,102.0
630,139.75915726875002,140.08818017500002,58.0,80.0
631,138.3707423625,140.1255364875,53.0,64.0
632,138.0219053625,140.22180083125002,46.0,84.0
633,140.27639851875,140.65570876875,45.0,80.0
634,140.10398476875,140.6887547375,62.0,110.0
635,140.10398476875,140.77927195625,70.0,109.0
636,140.79363976875,141.00340983125,67.0,100.0
637,140.79363976875,141.50197292500002,62.0,93.0
638,141.48329476875,142.26203020625002,55.0,83.0
639,141.82812226875,142.56950139375002,67.0,102.0
640,141.82812226875,142.58817955,58.0,103.0
641,142.51777726875,142.90570820625,55.0,88.0
642,140.79363976875,143.24191501875,43.0,88.0
643,141.13846726875002,143.26490351875,50.0,68.0
644,142.86260476875,143.4703632375,67.0,108.0
645,142.86260476875,143.51202989375,62.0,96.0
646,143.20743226875,143.5738114875,55.0,86.0
647,143.55225976875002,143.823811425,60.0,88.0
648,143.55225976875002,143.91001830000002,63.0,90.0
649,143.55225976875002,143.94881139375002,67.0,91.0
650,144.58674226875002,145.10973064375,75.0,109.0
651,144.58674226875002,145.12266167500002,67.0,96.0
652,144.24191476875,145.37122483125,60.0,74.0
653,145.62122476875,145.835305175,60.0,84.0
654,143.89708726875,145.89996033125,55.0,74.0
655,145.27639726875,145.91145458125,74.0,89.0
656,143.55225976875002,145.9358798625,48.0,85.0
657,145.27639726875,146.04363845625002,67.0,87.0
658,146.31087976875,146.64708658125002,69.0,90.0
659,145.96605226875002,146.6657647375,72.0,94.0
660,146.31087976875,146.68156933125002,65.0,86.0
661,147.34536226875002,147.57858856250002,65.0,91.0
662,147.00053476875001,147.635274575,53.0,79.0
663,147.34536226875002,147.681786175,57.0,84.0
664,147.34536226875002,147.85184421250003,60.0,89.0
665,147.69341407500002,148.03353015000002,65.0,89.0
666,148.04225107500002,148.4274252625,53.0,88.0
667,148.39108807500003,148.76899482500002,65.0,108.0
668,146.31087976875,148.79661108750003,41.0,85.0
669,148.39108807500003,148.93905286250003,74.0,96.0
670,148.73992507500003,148.98411097500002,53.0,85.0
671,146.65570726875,149.03352955000003,48.0,74.0
672,149.08876207500003,149.39544793750002,74.0,93.0
673,149.08876207500003,149.45213395000002,70.0,100.0
674,149.08876207500003,149.4564944125,67.0,90.0
675,150.13527307500001,150.17306375,62.0,87.0
676,150.13527307500001,150.37073805000003,67.0,98.0
677,150.13527307500001,150.41579616250002,58.0,88.0
678,149.786436075,150.49283100000002,55.0,81.0
679,150.48411007500002,150.7937029125,58.0,73.0
680,150.48411007500002,150.81405173750002,67.0,80.0
681,150.65852857500002,150.94486561250002,62.0,36.0
682,150.83294707500002,151.2021329,55.0,91.0
683,151.18178407500002,151.56114431250003,58.0,103.0
684,151.53062107500003,151.6105628875,55.0,88.0
685,149.08876207500003,151.61201637500002,43.0,86.0
686,149.437599075,151.61928381250002,50.0,81.0
687,151.18178407500002,151.7413767625,67.0,108.0
688,151.18178407500002,151.86783017500002,62.0,102.0
689,151.87945807500003,152.24428343750003,62.0,108.0
690,151.87945807500003,152.489922825,69.0,113.0
691,152.577132075,152.8111435625,62.0,89.0
692,152.22829507500003,152.85910865000002,57.0,78.0
693,151.87945807500003,152.91288768750002,50.0,92.0
694,152.925969075,153.17306195000003,65.0,104.0
695,152.925969075,153.4812013,74.0,100.0
696,153.27480607500001,153.5742245,70.0,97.0
697,153.27480607500001,153.58439891250003,67.0,96.0
698,153.27480607500001,154.33294497500003,43.0,84.0
699,153.62364307500002,154.35329380000002,50.0,82.0
700,153.97248007500002,154.39689842500002,55.0,84.0
701,154.32131707500002,154.60184016250003,58.0,91.0
702,154.32131707500002,154.68323546250002,67.0,94.0
703,154.32131707500002,154.687595925,62.0,88.0
704,155.01899107500003,155.5698628375,58.0,54.0
705,155.36782807500003,155.57131632500003,63.0,87.0
706,154.67015407500003,155.6948627625,51.0,106.0
707,155.716665075,156.24573452500002,70.0,116.0
708,155.716665075,156.2995135625,67.0,98.0
709,156.065502075,157.09311773750002,41.0,88.0
710,156.41433907500002,157.141082825,48.0,84.0
711,156.58875757500002,157.19340837500002,53.0,88.0
712,156.76317607500002,157.20939673750001,57.0,108.0
713,157.11201307500002,157.4811989,60.0,89.0
714,156.76317607500002,157.49864075000002,65.0,102.0
715,158.15852407500003,158.78933765000002,70.0,116.0
716,158.15852407500003,158.80823298750002,62.0,110.0
717,158.507361075,158.91143060000002,58.0,89.0
718,158.856198075,159.39108147500002,62.0,90.0
719,158.856198075,159.3925349625,70.0,100.0
720,158.856198075,159.41724425,65.0,113.0
721,157.80968707500003,159.83003470000003,53.0,83.0
722,159.55387207500002,159.84747655,70.0,116.0
723,159.55387207500002,159.85183701250003,62.0,113.0
724,157.46085007500002,159.8663718875,46.0,97.0
725,159.379453575,159.90706953750004,58.0,100.0
726,160.25154607500002,160.577127275,70.0,116.0
727,160.25154607500002,160.86927826250002,62.0,107.0
728,160.94922007500003,161.53788251250003,55.0,81.0
729,161.29805707500003,161.955033425,58.0,106.0
730,161.29805707500003,161.96956830000002,67.0,107.0
731,161.29805707500003,162.01607990000002,62.0,113.0
732,161.995731075,162.42014942500003,55.0,96.0
733,160.25154607500002,162.43759127500002,43.0,91.0
734,160.60038307500002,162.45648661250002,50.0,79.0
735,162.344568075,162.728288775,58.0,113.0
736,162.69340507500002,162.78642827500002,43.0,92.0
737,162.344568075,163.02916068750002,62.0,110.0
738,162.344568075,163.13817225000003,67.0,114.0
739,163.73991607500002,164.1745088375,62.0,108.0
740,164.08875307500003,164.72538060000002,74.0,107.0
741,164.08875307500003,164.77479917500003,69.0,114.0
742,164.08875307500003,164.786427075,65.0,104.0
743,164.786427075,164.94049675000002,62.0,110.0
744,163.04224207500002,165.20503147500003,50.0,110.0
745,163.39107907500002,165.2064849625,57.0,82.0
746,165.484101075,165.5843917125,50.0,102.0
747,165.135264075,165.80386832500002,69.0,113.0
748,165.135264075,165.84747295000003,62.0,110.0
749,165.135264075,165.84747295000003,65.0,114.0
750,165.83293807500002,166.3416587,70.0,116.0
751,165.83293807500002,166.40851912500003,67.0,114.0
752,166.18177507500002,166.52334463750003,51.0,77.0
753,166.53061207500002,166.83875142500003,70.0,109.0
754,166.53061207500002,166.85764676250002,67.0,113.0
755,165.83293807500002,166.87944907500003,39.0,100.0
756,166.87944907500003,166.984100175,51.0,86.0
757,167.22828607500003,167.74863460000003,69.0,102.0
758,167.22828607500003,167.7820648125,65.0,114.0
759,167.22828607500003,167.79659968750002,60.0,100.0
760,167.75154157500003,168.00444840000003,53.0,96.0
761,167.22828607500003,168.26898312500003,41.0,88.0
762,167.92596007500003,168.280611025,60.0,107.0
763,167.57712307500003,168.3343900625,48.0,75.0
764,167.92596007500003,168.41433187500002,69.0,107.0
765,167.92596007500003,168.50154112500002,65.0,114.0
766,168.274797075,168.55968062500003,53.0,91.0
767,168.623634075,169.3779940875,62.0,98.0
768,168.623634075,169.3881685,65.0,108.0
769,168.623634075,169.518982375,69.0,102.0
770,169.32130807500002,169.88526122500002,58.0,87.0
771,169.67014507500002,170.4419469375,65.0,114.0
772,169.67014507500002,170.45938878750002,62.0,102.0
773,169.67014507500002,170.4695632,69.0,107.0
774,170.36781907500003,170.7413653625,58.0,106.0
775,168.97247107500002,170.7500862875,53.0,75.0
776,168.623634075,170.80531881250002,46.0,86.0
777,170.71665607500003,171.0843884125,69.0,113.0
778,170.71665607500003,171.1367139625,62.0,108.0
779,170.71665607500003,171.1367139625,65.0,116.0
780,171.065493075,171.16869068750003,46.0,86.0
781,171.414330075,171.71084152500003,67.0,116.0
782,171.414330075,171.716655475,70.0,113.0
783,171.414330075,171.86200422500002,62.0,107.0
784,172.11200407500002,172.73555021250002,55.0,89.0
785,172.46084107500002,173.05822443750003,67.0,110.0
786,172.46084107500002,173.21956155,62.0,108.0
787,172.46084107500002,173.2471778125,58.0,97.0
788,173.15851507500003,173.55822413750002,55.0,104.0
789,173.50735207500003,173.68758452500003,58.0,113.0
790,171.414330075,173.867816975,43.0,91.0
791,171.763167075,173.89397975000003,50.0,82.0
792,173.50735207500003,174.01607270000002,67.0,114.0
793,173.50735207500003,174.05967732500002,62.0,114.0
794,173.85618907500003,174.19630515000003,55.0,96.0
795,174.20502607500003,174.52188635000002,62.0,94.0
796,174.20502607500003,175.12072320000001,69.0,113.0
797,174.20502607500003,175.15415341250002,65.0,110.0
798,174.902700075,175.70211820000003,57.0,89.0
799,175.25153707500002,176.0378738125,69.0,108.0
800,175.25153707500002,176.06403658750003,65.0,116.0
801,175.25153707500002,176.07421100000002,62.0,108.0
802,174.20502607500003,176.449210775,50.0,93.0
803,175.94921107500002,176.45793170000002,57.0,93.0
804,176.64688507500003,176.7021176,57.0,67.0
805,176.64688507500003,176.75880361250003,50.0,93.0
806,176.29804807500003,176.88235005,62.0,110.0
807,176.29804807500003,177.004443,69.0,107.0
808,176.29804807500003,177.0262453125,65.0,113.0
809,177.344559075,177.67886120000003,58.0,75.0
810,177.693396075,178.27188410000002,67.0,119.0
811,177.693396075,178.29659338750002,70.0,119.0
812,178.042233075,178.4913607125,58.0,84.0
813,178.39107007500002,178.98699995,67.0,117.0
814,178.39107007500002,178.99281390000002,70.0,119.0
815,178.91432557500002,179.19775563750002,58.0,95.0
816,176.99572207500003,179.20356958750003,51.0,113.0
817,179.08874407500002,179.35327880000003,70.0,123.0
818,179.08874407500002,179.35763926250002,67.0,120.0
819,179.43758107500003,179.51316242500002,51.0,109.0
820,179.78641807500003,180.05822023750002,69.0,102.0
821,179.78641807500003,180.0698481375,65.0,116.0
822,179.78641807500003,180.17013877500003,60.0,104.0
823,180.48409207500004,180.61345246250002,57.0,93.0
824,180.65851057500004,180.879440675,60.0,79.0
825,180.30967357500003,180.88525462500002,53.0,102.0
826,180.83292907500004,180.88525462500002,53.0,100.0
827,180.83292907500004,180.96955690000001,65.0,107.0
828,181.007347575,181.13816145,69.0,110.0
829,181.181766075,181.3169404125,72.0,102.0
830,181.35618457500001,181.44630080000002,77.0,104.0
831,181.53060307500002,181.69484716250003,81.0,102.0
832,181.70502157500002,181.8925214625,84.0,108.0
833,181.70502157500002,181.98118420000003,53.0,110.0
834,181.87944007500002,182.01316092500002,89.0,100.0
835,181.87944007500002,182.05385857500002,81.0,90.0
836,179.78641807500003,182.1454282875,41.0,90.0
837,180.13525507500003,182.24135846250002,48.0,86.0
838,182.22827707500002,182.28060262500003,81.0,79.0
839,182.22827707500002,182.34746305000002,53.0,91.0
840,182.22827707500002,182.3518235125,89.0,96.0
841,182.22827707500002,182.38089326250002,84.0,94.0
842,182.40269557500002,182.4579281,89.0,71.0
843,182.57711407500003,182.7093814375,89.0,102.0
844,182.57711407500003,182.75153257500003,86.0,108.0
845,182.57711407500003,182.77042791250003,82.0,97.0
846,183.274788075,183.57420650000003,58.0,84.0
847,183.274788075,183.588741375,62.0,96.0
848,183.274788075,183.59310183750003,67.0,91.0
849,183.798043575,184.04222947500003,67.0,108.0
850,183.798043575,184.05240388750002,62.0,107.0
851,183.798043575,184.06112481250003,58.0,106.0
852,183.623625075,184.19920612500002,55.0,91.0
853,184.146880575,184.45647341250003,67.0,102.0
854,184.146880575,184.48554316250002,62.0,98.0
855,184.146880575,184.51897337500003,58.0,88.0
856,184.49571757500001,184.77914763750002,55.0,104.0
857,184.67013607500002,185.02333353750004,58.0,109.0
858,182.57711407500003,185.03786841250002,43.0,108.0
859,182.92595107500003,185.06112421250003,50.0,83.0
860,185.01897307500002,185.19920552500002,55.0,96.0
861,184.67013607500002,185.29368221250002,62.0,116.0
862,184.67013607500002,185.3256589375,67.0,116.0
863,185.36781007500002,185.88815860000003,69.0,108.0
864,185.36781007500002,185.92158881250003,65.0,114.0
865,185.36781007500002,185.94775158750002,62.0,110.0
866,185.89106557500003,186.37216993750002,57.0,79.0
867,186.06548407500003,186.5291465875,69.0,102.0
868,186.06548407500003,186.56548377500002,62.0,104.0
869,186.06548407500003,186.56548377500002,65.0,113.0
870,186.58873957500003,186.64978605000002,65.0,94.0
871,186.58873957500003,186.66868138750002,69.0,91.0
872,186.58873957500003,186.67304185,62.0,91.0
873,186.41432107500003,187.02042536250002,57.0,82.0
874,186.93757657500004,187.28496008750002,69.0,91.0
875,186.93757657500004,187.3053089125,62.0,89.0
876,186.93757657500004,187.3053089125,65.0,93.0
877,187.286413575,187.56548317500003,57.0,88.0
878,185.36781007500002,187.6454249875,50.0,100.0
879,187.460832075,187.832924875,65.0,114.0
880,187.460832075,187.84164580000004,69.0,110.0
881,187.460832075,187.84309928750002,62.0,108.0
882,187.80966907500002,187.87943647500003,50.0,84.0
883,188.15850607500002,188.99426138750002,51.0,113.0
884,188.85618007500003,189.1977496375,67.0,117.0
885,188.85618007500003,189.19920312500003,70.0,119.0
886,189.20501707500003,189.27623796250003,51.0,109.0
887,189.553854075,190.123621175,65.0,114.0
888,189.553854075,190.12652815,60.0,88.0
889,190.077109575,190.33146988750002,53.0,89.0
890,189.553854075,190.59019066250002,41.0,93.0
891,190.251528075,190.6439697,60.0,102.0
892,190.251528075,190.66722550000003,69.0,92.0
893,190.251528075,190.80239983750002,65.0,114.0
894,190.600365075,190.8532719,53.0,87.0
895,190.94920207500002,191.48699245000003,69.0,102.0
896,190.94920207500002,191.53786451250002,65.0,110.0
897,190.94920207500002,191.55094590000002,62.0,91.0
898,191.64687607500002,192.04367816250002,69.0,98.0
899,191.64687607500002,192.06693396250003,62.0,91.0
900,191.64687607500002,192.28059662500002,65.0,102.0
901,191.99571307500003,192.39542213750002,58.0,86.0
902,192.34455007500003,192.8023986375,70.0,106.0
903,192.34455007500003,192.88670091250003,62.0,91.0
904,192.34455007500003,192.914317175,65.0,102.0
905,192.69338707500003,193.01751478750003,58.0,90.0
906,191.29803907500002,193.0291426875,53.0,81.0
907,190.94920207500002,193.11489845000003,46.0,90.0
908,193.04222407500004,193.33728203750002,70.0,103.0
909,193.04222407500004,193.39251456250003,65.0,113.0
910,193.04222407500004,193.42303780000003,62.0,96.0
911,193.21664257500004,193.56838655,45.0,84.0
912,193.739898075,194.10908390000003,67.0,107.0
913,193.739898075,194.21228151250003,62.0,102.0
914,193.739898075,194.3111186625,58.0,100.0
915,194.43757207500002,194.81111836250003,62.0,100.0
916,194.43757207500002,194.81402533750003,58.0,91.0
917,194.43757207500002,194.89251366250002,67.0,96.0
918,194.78640907500002,195.22536230000003,55.0,80.0
919,195.13524607500003,195.57419930000003,58.0,95.0
920,195.13524607500003,195.60617602500002,67.0,108.0
921,195.13524607500003,195.6832108625,62.0,104.0
922,195.48408307500003,195.78059452500003,55.0,88.0
923,195.65850157500003,196.0160595,58.0,106.0
924,194.08873507500002,196.13960593750002,50.0,38.0
925,193.739898075,196.2093733375,43.0,96.0
926,196.181757075,196.49861735000002,55.0,88.0
927,195.832920075,196.5625708,67.0,114.0
928,195.832920075,196.56983823750002,62.0,116.0
929,196.879431075,197.39977960000002,57.0,81.0
930,197.22826807500002,197.77332588750002,69.0,107.0
931,197.22826807500002,197.83001190000002,65.0,113.0
932,197.22826807500002,197.83291887500002,62.0,104.0
933,197.57710507500002,197.97972111250002,57.0,83.0
934,197.92594207500002,198.4884417375,69.0,96.0
935,197.92594207500002,198.50297661250002,62.0,96.0
936,197.92594207500002,198.51169753750003,65.0,107.0
937,198.44919757500003,198.675941625,57.0,94.0
938,196.530594075,198.76751133750003,50.0,98.0
939,198.62361607500003,198.984080975,65.0,116.0
940,198.62361607500003,198.99716236250003,62.0,113.0
941,198.62361607500003,199.02913908750003,69.0,104.0
942,199.32129007500004,200.08291752500003,51.0,103.0
943,199.32129007500004,200.141057025,39.0,100.0
944,200.018964075,200.75442875000002,63.0,106.0
945,200.018964075,200.79076593750003,67.0,117.0
946,200.018964075,200.827103125,70.0,109.0
947,200.71663807500002,201.03785881250002,39.0,95.0
948,200.71663807500002,201.06838205000003,51.0,93.0
949,201.23989357500002,201.437567875,39.0,106.0
950,201.23989357500002,201.44192833750003,51.0,103.0
951,201.41431207500003,201.7180909625,67.0,119.0
952,201.41431207500003,201.71954445000003,63.0,106.0
953,201.41431207500003,201.72390491250002,70.0,119.0
954,201.76314907500003,201.83873042500002,39.0,88.0
955,201.76314907500003,201.83873042500002,51.0,109.0
956,201.93756757500003,201.9928001,66.0,70.0
957,202.111986075,202.49425328750002,53.0,87.0
958,202.111986075,202.67303225,69.0,107.0
959,202.111986075,202.68756712500002,65.0,116.0
960,202.111986075,202.70064851250004,60.0,107.0
961,202.635241575,202.93175302500003,53.0,78.0
962,202.809660075,203.35471788750002,69.0,96.0
963,202.809660075,203.40995041250002,65.0,110.0
964,202.809660075,203.42884575000002,60.0,94.0
965,203.158497075,203.60326425000002,53.0,84.0
966,203.50733407500002,204.06401978750003,69.0,98.0
967,203.50733407500002,204.08582210000003,60.0,100.0
968,203.50733407500002,204.09599651250002,65.0,108.0
969,204.03058957500002,204.30093825000003,53.0,98.0
970,204.20500807500002,204.47099628750001,60.0,113.0
971,202.111986075,204.53785671250003,41.0,89.0
972,204.20500807500002,204.60326365000003,65.0,114.0
973,204.20500807500002,204.61634503750003,69.0,102.0
974,204.55384507500003,204.68465895000003,53.0,88.0
975,204.90268207500003,205.39541433750003,65.0,113.0
976,204.90268207500003,205.44337942500002,62.0,96.0
977,204.90268207500003,205.46082127500003,70.0,97.0
978,205.60035607500004,206.17593712500002,62.0,100.0
979,205.60035607500004,206.18756502500003,70.0,103.0
980,205.60035607500004,206.19628595,65.0,113.0
981,206.123611575,206.34308818750003,53.0,83.0
982,206.298030075,206.856169275,62.0,94.0
983,206.298030075,206.88087856250002,70.0,100.0
984,206.298030075,206.89541343750003,65.0,108.0
985,206.82128557500002,207.01605290000003,53.0,85.0
986,206.95209945000002,207.35471548750002,62.0,107.0
987,206.95209945000002,207.37215733750003,70.0,113.0
988,206.95209945000002,207.38378523750004,65.0,116.0
989,207.30093645000002,207.64541298750004,53.0,81.0
990,204.90268207500003,207.67448273750003,46.0,91.0
991,207.64977345000003,207.931750025,70.0,106.0
992,207.64977345000003,207.96808721250002,67.0,108.0
993,207.64977345000003,208.0044244,62.0,102.0
994,208.34744745,208.67302865000002,67.0,92.0
995,208.34744745,208.74861,58.0,87.0
996,208.34744745,208.80965647500003,62.0,93.0
997,208.69628445,209.04221447500004,55.0,70.0
998,208.87070295,209.25878411250002,67.0,98.0
999,209.04512145,209.6904699,58.0,109.0
1000,209.39395845,209.75733032500003,55.0,96.0
1001,209.74279545000002,209.8023884375,58.0,85.0
1002,209.56837695000002,209.98552786250002,67.0,110.0
1003,207.64977345000003,210.00296971250003,43.0,102.0
1004,207.99861045000003,210.07128362500004,50.0,77.0
1005,209.74279545000002,210.1308766125,62.0,116.0
1006,210.09163245000002,210.44046945000002,55.0,91.0
1007,210.44046945000002,210.97099238750002,69.0,107.0
1008,210.44046945000002,210.97680633750002,62.0,102.0
1009,210.44046945000002,210.97971331250002,65.0,114.0
1010,210.96372495000003,211.32855031250003,57.0,70.0
1011,211.13814345000003,211.6076199125,69.0,100.0
1012,211.13814345000003,211.63087571250003,62.0,96.0
1013,211.13814345000003,211.6454105875,65.0,108.0
1014,211.66139895000003,211.72971286250004,65.0,91.0
1015,211.66139895000003,211.7326198375,69.0,87.0
1016,211.66139895000003,211.73552681250004,62.0,87.0
1017,211.48698045000003,212.05238708750002,57.0,86.0
1018,212.01023595000004,212.350352025,69.0,91.0
1019,212.01023595000004,212.37215433750004,62.0,91.0
1020,212.01023595000004,212.3750613125,65.0,96.0
1021,210.44046945000002,212.69046810000003,50.0,93.0
1022,212.35907295000004,212.72971226250002,57.0,87.0
1023,212.53349145,212.91285168750002,69.0,110.0
1024,212.53349145,212.92157261250003,65.0,117.0
1025,212.53349145,212.92884005000002,62.0,110.0
1026,212.88232845000002,212.9738981625,50.0,91.0
1027,213.23116545000002,214.00587428750003,39.0,95.0
1028,213.23116545000002,214.03785101250003,51.0,86.0
1029,214.10325795,214.18029278750004,39.0,90.0
1030,214.10325795,214.19773463750002,51.0,95.0
1031,213.92883945000003,214.2965717875,63.0,90.0
1032,213.92883945000003,214.29947876250003,67.0,110.0
1033,213.92883945000003,214.30529271250003,70.0,91.0
1034,214.62651345,215.00151322500002,53.0,88.0
1035,214.62651345,215.1570363875,69.0,93.0
1036,215.14976895,215.1570363875,69.0,104.0
1037,214.62651345,215.18610613750002,65.0,104.0
1038,214.62651345,215.19482706250002,60.0,91.0
1039,215.14976895,215.3866874125,53.0,98.0
1040,214.62651345,215.64686167500003,41.0,91.0
1041,215.32418745,215.6483151625,60.0,108.0
1042,215.32418745,215.70790815000004,65.0,116.0
1043,215.67302445,215.79511740000004,53.0,91.0
1044,216.02186145000002,216.50005883750003,65.0,108.0
1045,216.02186145000002,216.54366346250004,62.0,93.0
1046,216.02186145000002,216.57564018750003,70.0,97.0
1047,216.71953545000002,217.23116305000002,62.0,98.0
1048,216.71953545000002,217.23552351250004,65.0,114.0
1049,216.71953545000002,217.25877931250002,70.0,103.0
1050,217.06837245000003,217.40412806250004,58.0,80.0
1051,217.41720945000003,217.90558125,70.0,116.0
1052,217.41720945000003,217.9244765875,65.0,114.0
1053,217.41720945000003,217.943371925,62.0,104.0
1054,216.37069845000002,218.10761601250002,53.0,70.0
1055,217.76604645000003,218.1366857625,58.0,90.0
1056,216.02186145000002,218.21662757500002,46.0,97.0
1057,218.46372045000004,218.55965062500002,46.0,89.0
1058,218.11488345000004,218.75151097500003,70.0,116.0
1059,218.11488345000004,218.77622026250003,65.0,117.0
1060,218.11488345000004,218.78203421250004,62.0,107.0
1061,219.51023145000002,219.7704057125,55.0,86.0
1062,219.51023145000002,219.82999870000003,67.0,107.0
1063,219.51023145000002,219.87505681250002,58.0,106.0
1064,219.51023145000002,219.91720795000003,62.0,113.0
1065,220.20790545000003,220.50732387500003,55.0,79.0
1066,220.20790545000003,220.55674245,58.0,103.0
1067,220.20790545000003,220.55674245,67.0,93.0
1068,220.55674245,221.11633513750002,55.0,108.0
1069,218.81255745,221.25296296250002,43.0,113.0
1070,220.90557945,221.2791257375,62.0,116.0
1071,219.16139445000002,221.32709082500003,50.0,81.0
1072,221.25441645,221.50732327500003,67.0,92.0
1073,221.25441645,221.57418370000002,55.0,91.0
1074,221.60325345,222.02621831250002,62.0,96.0
1075,221.60325345,222.20354378750002,65.0,107.0
1076,221.60325345,222.2093577375,69.0,113.0
1077,221.95209045000001,222.34743905000002,57.0,73.0
1078,222.30092745000002,222.57854356250002,62.0,104.0
1079,222.30092745000002,222.63377608750002,65.0,113.0
1080,222.30092745000002,222.664299325,69.0,110.0
1081,222.64976445000002,223.03639212500002,57.0,84.0
1082,222.99860145000002,223.58144993750003,74.0,110.0
1083,222.99860145000002,223.59162435000002,69.0,92.0
1084,222.99860145000002,223.61051968750002,65.0,84.0
1085,223.52185695000003,223.75877541250003,57.0,89.0
1086,221.60325345,223.86342651250004,50.0,96.0
1087,223.69627545000003,224.10325195000001,65.0,110.0
1088,223.69627545000003,224.27330998750003,74.0,100.0
1089,224.04511245000003,224.31255415000004,69.0,107.0
1090,224.39394945000004,224.99714676250002,70.0,119.0
1091,224.39394945000004,225.0204025625,67.0,108.0
1092,224.39394945000004,225.25441405000004,51.0,93.0
1093,225.09162345000001,225.6192394125,70.0,119.0
1094,225.09162345000001,225.65412311250003,67.0,102.0
1095,225.44046045000002,225.82854161250003,51.0,84.0
1096,225.78929745000002,226.30819248750004,70.0,119.0
1097,225.78929745000002,226.32563433750002,67.0,116.0
1098,226.13813445000002,226.4419133375,51.0,86.0
1099,226.48697145000003,226.86342471250003,70.0,119.0
1100,224.39394945000004,226.87795958750002,39.0,103.0
1101,226.83580845,226.9186572375,51.0,106.0
1102,226.48697145000003,227.14540128750002,67.0,114.0
1103,227.18464545,227.4709824875,72.0,100.0
1104,227.18464545,227.50731967500002,69.0,116.0
1105,227.18464545,227.52476152500003,65.0,107.0
1106,227.70790095,227.87941247500004,57.0,102.0
1107,227.88231945,228.00295891250002,60.0,108.0
1108,228.05673795,228.18464485000004,65.0,110.0
1109,227.70790095,228.24278435000002,53.0,108.0
1110,228.23115645000001,228.24278435000002,53.0,108.0
1111,228.40557495000002,228.62214458750003,69.0,113.0
1112,228.57999345000002,228.687551525,72.0,102.0
1113,228.75441195000002,228.90557465,77.0,116.0
1114,228.92883045000002,229.30964417500002,53.0,114.0
1115,229.10324895000002,229.32417905000003,81.0,116.0
1116,229.27766745000002,229.48406267500002,84.0,108.0
1117,227.18464545,229.58726028750002,41.0,96.0
1118,227.53348245,229.65557420000002,48.0,83.0
1119,229.45208595000003,229.78057412500002,89.0,116.0
1120,229.97534145000003,230.07272511250002,89.0,86.0
1121,229.97534145000003,230.10615532500003,86.0,116.0
1122,229.97534145000003,230.1206902,79.0,108.0
1123,230.49859695000004,230.79074793750002,55.0,89.0
1124,230.67301545000004,231.04946871250002,67.0,110.0
1125,230.67301545000004,231.24568952500002,58.0,109.0
1126,231.02185245000004,231.39830571250002,55.0,89.0
1127,231.37068945000001,231.72534040000002,67.0,92.0
1128,231.37068945000001,231.7297008625,62.0,104.0
1129,229.97534145000003,232.30528191250002,43.0,107.0
1130,230.32417845000003,232.34307258750002,50.0,83.0
1131,232.06836345000002,232.36778187500002,67.0,85.0
1132,232.06836345000002,232.4535376375,58.0,116.0
1133,231.71952645000002,232.63813055000003,55.0,102.0
1134,232.41720045000002,232.69772353750002,62.0,92.0
1135,232.76603745000003,232.99423498750002,62.0,91.0
1136,232.76603745000003,233.08144423750002,65.0,113.0
1137,232.76603745000003,233.12504886250002,69.0,110.0
1138,233.46371145,233.66138575000002,65.0,107.0
1139,233.28929295,233.78493218750003,62.0,108.0
1140,233.81254845,234.06109481250002,74.0,113.0
1141,233.63812995,234.06690876250002,69.0,100.0
1142,233.98696695,234.2616760875,62.0,104.0
1143,234.16138545,234.58289682500003,65.0,107.0
1144,234.16138545,234.70789675000003,74.0,93.0
1145,234.16138545,234.74423393750004,69.0,113.0
1146,234.68464095000002,234.97679193750002,62.0,113.0
1147,233.11487445,235.03202446250003,57.0,78.0
1148,232.76603745000003,235.03929190000002,50.0,94.0
1149,234.85905945000002,235.0843500125,74.0,100.0
1150,234.85905945000002,235.12359417500002,65.0,116.0
1151,235.03347795000002,235.55527996250004,69.0,91.0
1152,235.20789645000002,235.56836135000003,74.0,102.0
1153,235.55673345000002,236.41138410000002,39.0,103.0
1154,235.55673345000002,236.42446548750002,51.0,109.0
1155,236.25440745000003,236.60179096250002,63.0,106.0
1156,236.25440745000003,236.6439421,70.0,106.0
1157,236.60324445000003,236.66719790000002,39.0,95.0
1158,236.60324445000003,236.68900021250002,51.0,109.0
1159,236.42882595000003,236.7238839125,67.0,73.0
1160,236.95208145000004,237.50731367500003,69.0,108.0
1161,236.95208145000004,237.5407438875,60.0,108.0
1162,236.95208145000004,237.54946481250002,65.0,116.0
1163,237.47533695000004,237.72388331250002,53.0,116.0
1164,237.64975545000001,237.93609248750002,60.0,114.0
1165,236.95208145000004,237.96225526250004,41.0,94.0
1166,237.64975545000001,237.98260408750002,65.0,116.0
1167,237.30091845000004,237.984057575,48.0,83.0
1168,237.64975545000001,237.98551106250002,69.0,113.0
1169,237.99859245000002,238.12504586250003,53.0,102.0
1170,238.34742945000002,238.832894275,70.0,113.0
1171,238.34742945000002,238.844522175,62.0,93.0
1172,238.34742945000002,238.8576035625,65.0,113.0
1173,239.04510345000003,239.20789405000002,60.0,107.0
1174,239.21952195,239.27766145000004,62.0,108.0
1175,239.39394045,239.50149852500002,62.0,93.0
1176,239.56835895,239.68173097500002,65.0,114.0
1177,238.87068495000003,239.77039371250004,58.0,109.0
1178,239.74277745,240.2035329875,62.0,114.0
1179,239.74277745,240.28056782500002,70.0,126.0
1180,240.26603295,240.3721375375,65.0,94.0
1181,240.09161445,240.45789330000002,58.0,97.0
1182,238.69626645000002,240.47388166250002,53.0,81.0
1183,238.34742945000002,240.53928860000002,46.0,91.0
1184,240.44045145,240.77766055,70.0,123.0
1185,240.44045145,240.821265175,62.0,116.0
1186,240.78928845000002,241.15266032500003,45.0,93.0
1187,241.13812545000002,241.37068345,67.0,116.0
1188,241.13812545000002,241.37068345,70.0,119.0
1189,241.13812545000002,241.48550896250003,62.0,107.0
1190,241.66138095000002,241.99277610000001,55.0,91.0
1191,241.83579945000002,242.18463645000003,58.0,116.0
1192,241.83579945000002,242.27329918750002,67.0,110.0
1193,242.18463645000003,242.59161295,55.0,91.0
1194,242.53347345000003,243.01457781250002,67.0,98.0
1195,242.53347345000003,243.04364756250004,58.0,89.0
1196,242.53347345000003,243.048008025,62.0,102.0
1197,243.05672895000004,243.31835670000004,55.0,104.0
1198,243.23114745000004,243.40120548750002,67.0,92.0
1199,243.23114745000004,243.45207755,58.0,116.0
1200,241.13812545000002,243.59306583750003,43.0,107.0
1201,241.48696245000002,243.61196117500003,50.0,83.0
1202,243.57998445000004,243.78492618750002,62.0,91.0
1203,243.57998445000004,243.82562383750002,67.0,100.0
1204,243.57998445000004,243.89393775000002,55.0,94.0
1205,243.92882145000002,244.38957698750002,62.0,102.0
1206,243.92882145000002,244.53056527500001,65.0,110.0
1207,243.92882145000002,244.54219317500002,69.0,110.0
1208,244.45207695000002,244.7878325625,57.0,77.0
1209,244.62649545000002,244.97678593750004,62.0,96.0
1210,244.62649545000002,244.97823942500003,65.0,110.0
1211,244.62649545000002,245.0058556875,69.0,110.0
1212,244.97533245000002,245.37649500000003,57.0,84.0
1213,245.32416945000003,245.80236683750002,74.0,107.0
1214,243.92882145000002,245.84742495,50.0,108.0
1215,245.32416945000003,245.87068075000002,65.0,104.0
1216,245.32416945000003,245.87940167500003,69.0,116.0
1217,245.67300645,245.99568067500002,57.0,83.0
1218,246.02184345,246.332889775,74.0,102.0
1219,246.02184345,246.3764944,69.0,119.0
1220,246.02184345,246.3837618375,65.0,114.0
1221,246.71951745,247.10178466250002,51.0,89.0
1222,246.71951745,247.27911013750003,67.0,114.0
1223,246.71951745,247.28637757500002,70.0,97.0
1224,246.71951745,247.30527291250002,63.0,106.0
1225,247.41719145000002,247.75876101250003,51.0,86.0
1226,247.41719145000002,247.93753997500002,67.0,117.0
1227,247.41719145000002,247.9477143875,63.0,103.0
1228,247.41719145000002,247.96224926250002,70.0,113.0
1229,248.11486545000002,248.39538853750003,51.0,95.0
1230,248.11486545000002,248.6163186375,63.0,113.0
1231,248.11486545000002,248.63812095000003,70.0,119.0
1232,248.11486545000002,248.64538838750002,67.0,119.0
1233,246.71951745,248.8459696625,39.0,103.0
1234,248.81253945000003,249.06835325000003,63.0,113.0
1235,248.81253945000003,249.07998115000004,51.0,113.0
1236,248.81253945000003,249.158469475,70.0,123.0
1237,249.16137645000003,249.33579495000004,39.0,116.0
1238,248.81253945000003,249.41864373750002,67.0,119.0
1239,249.51021345000004,249.74713191250004,72.0,107.0
1240,249.51021345000004,249.79655048750004,69.0,116.0
1241,249.51021345000004,249.80527141250002,65.0,107.0
1242,249.51021345000004,251.14538688750002,53.0,96.0
1243,249.51021345000004,251.27038681250002,48.0,86.0
1244,249.51021345000004,251.571258725,41.0,113.0
1245,254.96079157500003,255.59741910000002,70.0,79.0
1246,254.96079157500003,255.82852361250002,62.0,80.0
1247,254.96079157500003,255.83869802500004,65.0,84.0
1248,255.92009332500004,256.44334882500004,70.0,87.0
1249,255.92009332500004,256.48840693750003,62.0,84.0
1250,254.96079157500003,256.5552673625,46.0,84.0
1251,255.92009332500004,256.5901510625,65.0,88.0
1252,256.70497657500005,257.408464525,67.0,86.0
1253,256.70497657500005,257.41718545000003,63.0,83.0
1254,256.70497657500005,257.420092425,72.0,87.0
1255,257.57706907500005,258.1439292,72.0,84.0
1256,257.57706907500005,258.20933613750003,63.0,83.0
1257,256.70497657500005,258.24421983750005,46.0,84.0
1258,257.57706907500005,258.35177791250004,67.0,88.0
1259,258.449161575,259.065440275,70.0,86.0
1260,258.449161575,259.158463475,62.0,86.0
1261,258.449161575,259.1599169625,65.0,88.0
1262,259.321254075,259.827067725,62.0,81.0
1263,259.321254075,259.90555605000003,70.0,82.0
1264,258.449161575,259.95206765,46.0,84.0
1265,259.321254075,260.007300175,65.0,83.0
1266,260.193346575,260.367765075,69.0,84.0
1267,260.193346575,260.91718335,60.0,81.0
1268,260.193346575,260.92881125,65.0,85.0
1269,261.06543907500003,261.63811315000004,60.0,86.0
1270,261.06543907500003,261.774740975,69.0,87.0
1271,261.06543907500003,261.861950225,65.0,87.0
1272,261.85032232500004,261.861950225,65.0,78.0
1273,260.193346575,261.9593338875,53.0,83.0
1274,261.93753157500004,262.59305443750003,70.0,86.0
1275,261.93753157500004,262.74276365000003,62.0,85.0
1276,262.809624075,263.32706562500005,70.0,87.0
1277,262.809624075,263.37067025,62.0,86.0
1278,261.93753157500004,263.495670175,46.0,83.0
1279,262.809624075,263.61485615000004,65.0,86.0
1280,263.681716575,264.446251,67.0,87.0
1281,263.681716575,264.46369285000003,63.0,81.0
1282,263.681716575,264.46805331250005,72.0,86.0
1283,264.553809075,265.0349134375,72.0,83.0
1284,264.553809075,265.053808775,63.0,84.0
1285,263.681716575,265.19625055,46.0,84.0
1286,264.553809075,265.3081690875,67.0,87.0
1287,265.425901575,266.01456401250005,70.0,83.0
1288,265.425901575,266.08287792500005,63.0,83.0
1289,265.425901575,266.11340116250005,67.0,87.0
1290,266.297994075,266.879389075,63.0,83.0
1291,266.297994075,266.9099123125,70.0,84.0
1292,266.297994075,266.9346216,67.0,86.0
1293,265.425901575,267.0581680375,51.0,84.0
1294,267.34450507500003,269.9011895875,60.0,81.0
1295,267.34450507500003,269.9215384125,69.0,82.0
1296,267.34450507500003,269.9738639625,65.0,84.0
1297,267.34450507500003,270.0988638875,53.0,85.0
1298,269.9854918625,272.13956033750003,62.0,64.0
1299,270.1599103625,272.158455675,46.0,42.0
1300,270.2471196125,272.2020603,70.0,75.0
1301,270.1599103625,272.23258353750003,65.0,74.0
