,start,end,pitch,velocity
0,27.00770135,27.176515591666668,69.0,87.0
1,27.31697935,27.505123466666667,69.0,87.0
2,27.626257350000003,27.819556100000003,72.0,90.0
3,27.935535350000002,28.144298000000003,72.0,90.0
4,28.24481335,28.462596608333335,69.0,93.0
5,28.55409135,29.158472108333335,72.0,93.0
6,29.48192535,29.650739591666667,67.0,87.0
7,29.791203350000004,29.979347466666667,69.0,87.0
8,30.100481350000003,30.293780100000003,72.0,90.0
9,30.40975935,30.618522000000002,72.0,90.0
10,30.71903735,30.936820608333335,69.0,93.0
11,31.028315350000003,31.632696108333334,72.0,93.0
12,31.95614935,32.177798583333335,69.0,88.0
13,32.26542735,32.46516939166667,69.0,90.0
14,32.57470535,32.762849466666665,72.0,87.0
15,32.88398335,33.100477950000005,72.0,88.0
16,33.19326135,33.41491058333334,69.0,88.0
17,33.50253935,33.6958381,72.0,92.0
18,33.811817350000005,33.92135330833334,67.0,87.0
19,33.96645635,34.06568304166667,69.0,90.0
20,34.121095350000004,34.2834663,72.0,90.0
21,34.43037335,34.581146375,69.0,90.0
22,34.73965135,34.91619754166667,72.0,90.0
23,35.04892935,35.242228100000005,74.0,93.0
24,35.35820735,35.841454225,74.0,90.0
25,35.97676335,36.56696886666667,72.0,93.0
26,36.90459735,37.07341159166667,69.0,87.0
27,37.21387535,37.402019466666665,69.0,87.0
28,37.52315335,37.716452100000005,72.0,90.0
29,37.83243135,38.041194000000004,72.0,90.0
30,38.14170935,38.35949260833333,69.0,93.0
31,38.450987350000005,39.05536810833333,72.0,93.0
32,39.37882135,39.54763559166667,67.0,87.0
33,39.68809935,39.87624346666667,69.0,87.0
34,39.99737735,40.190676100000005,72.0,90.0
35,40.30665535,40.515418000000004,72.0,90.0
36,40.615933350000006,40.83371660833333,69.0,93.0
37,40.925211350000005,41.52959210833333,72.0,93.0
38,41.85304535,42.07469458333333,69.0,88.0
39,42.16232335,42.36206539166667,69.0,90.0
40,42.47160135,42.65974546666667,72.0,87.0
41,42.78087935,42.997373950000004,72.0,88.0
42,43.090157350000005,43.311806583333336,69.0,88.0
43,43.399435350000005,43.5927341,72.0,92.0
44,43.708713350000004,43.818249308333336,67.0,87.0
45,43.86335235,43.96257904166667,69.0,90.0
46,44.01799135,44.180362300000006,72.0,90.0
47,44.32726935,44.478042375,69.0,90.0
48,44.63654735,44.81309354166667,72.0,90.0
49,44.94582535,45.139124100000004,74.0,93.0
50,45.255103350000006,45.738350225000005,74.0,90.0
51,45.873659350000004,46.46386486666667,72.0,93.0
52,46.80149335,46.95484369166667,72.0,90.0
53,47.11077135,47.56953371666667,72.0,95.0
54,47.729327350000005,47.864636475000005,72.0,86.0
55,48.038605350000005,48.45484199166667,72.0,91.0
56,48.65716135,48.820820958333336,72.0,92.0
57,48.96643935,49.199686508333336,71.0,93.0
58,49.2679854,49.426490375,69.0,91.0
59,49.58499535,49.74865495833333,71.0,86.0
60,49.894273350000006,50.51927264166667,72.0,89.0
61,50.82210735,51.10303486666667,67.0,88.0
62,51.13138535,51.523137483333336,72.0,88.0
63,51.74994135,51.855611333333336,72.0,88.0
64,52.059219350000006,52.56437341666667,72.0,90.0
65,52.677775350000005,52.90844519166667,71.0,87.0
66,52.987053350000004,53.362052925,72.0,89.0
67,53.60560935,53.84014516666667,72.0,87.0
68,53.91488735,54.139113900000005,71.0,88.0
69,54.22416535,54.426484708333334,69.0,86.0
70,54.533443350000006,54.70998954166667,67.0,84.0
71,54.842721350000005,55.488339175,67.0,88.0
72,55.46127735,55.68679255833334,64.0,88.0
73,55.77055535,56.014111775,65.0,86.0
74,56.07983335,56.40457525,67.0,85.0
75,56.69838935000001,56.818234575000005,67.0,89.0
76,57.007667350000006,57.49735751666667,72.0,89.0
77,57.626223350000004,57.886532333333335,72.0,88.0
78,57.93550135,58.11204754166667,72.0,82.0
79,58.24477935,58.34787201666667,67.0,95.0
80,58.55405735,58.762820000000005,72.0,81.0
81,58.86333535000001,59.087561900000004,71.0,88.0
82,59.172613350000006,59.354314175000006,69.0,84.0
83,59.481891350000005,59.66230351666667,71.0,88.0
84,59.791169350000004,60.26024098333334,72.0,90.0
85,60.41230266666667,60.61719934166667,74.0,93.0
86,60.71900335,61.18807498333334,76.0,93.0
87,61.33755935000001,61.52570346666667,77.0,88.0
88,61.646837350000006,61.81565159166667,77.0,87.0
89,61.956115350000005,62.199671775000006,77.0,92.0
90,62.265393350000004,62.51152709166667,76.0,93.0
91,62.57467135,62.926475075000006,76.0,102.0
92,63.19322735,63.43807243333334,74.0,92.0
93,63.50250535000001,63.76281433333334,79.0,87.0
94,63.811783350000006,63.99992746666667,77.0,87.0
95,64.12106135,64.30791680833333,77.0,86.0
96,64.43033935,64.63008139166666,77.0,89.0
97,64.73961735,64.93678207500001,76.0,92.0
98,65.04889535000001,65.50765771666667,74.0,93.0
99,65.66745135000001,66.16745078333334,72.0,93.0
100,66.59528535,66.80147068333333,67.0,90.0
101,66.90456335,67.13136721666667,72.0,93.0
102,67.21384135000001,67.422604,74.0,97.0
103,67.52311935,67.7628098,76.0,90.0
104,67.83239735000001,68.04373731666666,74.0,91.0
105,68.14167535,68.31435556666668,76.0,93.0
106,68.45095335,68.63909746666667,77.0,90.0
107,68.76023135,68.99347850833334,79.0,93.0
108,69.06950935,69.26538541666667,79.0,86.0
109,69.37878735000001,69.59785926666667,79.0,93.0
110,69.68806535,69.89167336666667,77.0,88.0
111,69.99734335000001,70.58368289166667,76.0,92.0
112,70.61589935,71.137805975,74.0,93.0
113,71.54373335000001,71.75249600000001,67.0,87.0
114,71.85301135,72.10172240833334,72.0,90.0
115,72.16228935000001,72.36589736666667,74.0,92.0
116,72.47156735,72.7112578,76.0,92.0
117,72.78084535,73.0205358,74.0,90.0
118,73.09012335,73.256360275,76.0,91.0
119,73.39940135,73.5927001,77.0,88.0
120,73.70867935000001,73.85429774166667,79.0,89.0
121,74.01795735,74.1803283,79.0,88.0
122,74.32723535000001,74.5050702,79.0,88.0
123,74.63651335,74.82336880833334,81.0,90.0
124,74.94579135000001,75.43032688333334,79.0,90.0
125,75.56434735,76.11460445833333,76.0,90.0
126,76.18290335,76.62104718333333,72.0,90.0
127,76.80145935,77.0720776,72.0,91.0
128,77.11073735000001,77.33625255833334,69.0,88.0
129,77.42001535,77.66099445833333,74.0,90.0
130,77.72929335,77.949653925,74.0,88.0
131,78.03857135,78.26924119166667,76.0,88.0
132,78.34784935,78.62877686666667,76.0,88.0
133,78.65712735000001,79.14295154166668,72.0,90.0
134,79.27568335000001,79.46769344166667,79.0,87.0
135,79.27568335000001,79.46769344166667,79.0,90.0
136,79.58496135,79.76279620000001,72.0,90.0
137,79.89423935,80.12619785000001,67.0,89.0
138,80.20351735,80.40325939166667,72.0,90.0
139,80.51279535,80.7060941,71.0,87.0
140,80.82207335000001,81.30403156666667,72.0,87.0
141,81.74990735,82.00377304166668,72.0,89.0
142,82.05918535,82.29372116666667,69.0,88.0
143,82.36846335,82.573360025,74.0,88.0
144,82.67774135,82.8555762,74.0,87.0
145,82.98701935000001,83.16614285833334,76.0,88.0
146,83.29629735,83.50506,76.0,87.0
147,83.60557535000001,83.83495653333334,77.0,86.0
148,83.91485335,84.08109027500001,77.0,82.0
149,84.22413135000001,84.41614144166667,77.0,92.0
150,84.53340935,84.69578030000001,76.0,87.0
151,84.84268735,85.225418875,74.0,91.0
152,85.46124335,86.09526325,72.0,88.0
153,86.38907735000001,86.59526268333335,67.0,90.0
154,86.69835535,86.92515921666667,72.0,93.0
155,87.00763335,87.216396,74.0,97.0
156,87.31691135,87.55660180000001,76.0,90.0
157,87.62618935,87.83752931666668,74.0,91.0
158,87.93546735000001,88.10814756666667,76.0,93.0
159,88.24474535,88.43288946666667,77.0,90.0
160,88.55402335000001,88.78727050833334,79.0,93.0
161,88.86330135,89.05917741666667,79.0,86.0
162,89.17257935,89.39165126666667,79.0,93.0
163,89.48185735,89.68546536666668,77.0,88.0
164,89.79113535,90.37747489166667,76.0,92.0
165,90.40969135,90.931597975,74.0,93.0
166,91.33752535,91.546288,67.0,87.0
167,91.64680335,91.89551440833334,72.0,90.0
168,91.95608135,92.15968936666667,74.0,92.0
169,92.26535935000001,92.50504980000001,76.0,92.0
170,92.57463735,92.8143278,74.0,90.0
171,92.88391535000001,93.050152275,76.0,91.0
172,93.19319335,93.38649210000001,77.0,88.0
173,93.50247135000001,93.64808974166667,79.0,89.0
174,93.81174935,93.97412030000001,79.0,88.0
175,94.12102735,94.2988622,79.0,88.0
176,94.43030535000001,94.61716080833334,81.0,90.0
177,94.73958335,95.22411888333333,79.0,90.0
178,95.35813935,95.90839645833334,76.0,90.0
179,95.97669535,96.41483918333334,72.0,90.0
180,96.59525135000001,96.86586960000001,72.0,91.0
181,96.90452935,97.13004455833334,69.0,88.0
182,97.21380735000001,97.45478645833334,74.0,90.0
183,97.52308535,97.743445925,74.0,88.0
184,97.83236335000001,98.06303319166668,76.0,88.0
185,98.14164135,98.42256886666667,76.0,88.0
186,98.45091935,98.93674354166667,72.0,90.0
187,99.06947535,99.26148544166668,79.0,87.0
188,99.06947535,99.26148544166668,79.0,90.0
189,99.37875335000001,99.55658820000001,72.0,90.0
190,99.68803135,99.91998985000001,67.0,89.0
191,99.99730935000001,100.19705139166668,72.0,90.0
192,100.30658735,100.49988610000001,71.0,87.0
193,100.61586535,101.09782356666668,72.0,87.0
194,101.54369935000001,101.79756504166667,72.0,89.0
195,101.85297735,102.08751316666667,69.0,88.0
196,102.16225535000001,102.36715202500001,74.0,88.0
197,102.47153335,102.64936820000001,74.0,87.0
198,102.78081135000001,102.95993485833334,76.0,88.0
199,103.09008935,103.29885200000001,76.0,87.0
200,103.39936735,103.62874853333334,77.0,86.0
201,103.70864535000001,103.874882275,77.0,82.0
202,104.01792335,104.46766510833334,76.0,92.0
203,104.63647935,104.85426260833334,74.0,95.0
204,104.94575735000001,105.16611792500001,72.0,86.0
205,105.25503535,105.71508637500001,72.0,85.0
206,105.87359135000001,108.21121756666668,72.0,87.0
207,108.34781535,108.823330275,72.0,92.0
208,108.96637135,109.55657686666667,71.0,92.0
209,109.58492735,109.87616413333333,69.0,88.0
210,109.89420535000001,110.1184319,67.0,85.0
211,110.20348335000001,110.439307825,69.0,88.0
212,110.51276135,110.74729716666667,71.0,88.0
213,110.82203935000001,112.83492366666667,72.0,87.0
214,115.77048735000001,118.10811356666667,72.0,87.0
215,118.24471135,118.720226275,72.0,92.0
216,118.86326735,119.45347286666667,71.0,92.0
217,119.48182335000001,119.77306013333335,69.0,88.0
218,119.79110135,120.0153279,67.0,85.0
219,120.10037935000001,120.33620382500001,69.0,88.0
220,120.40965735,120.64419316666667,71.0,88.0
221,120.71893535000001,122.73181966666668,72.0,87.0
222,125.97666135,126.14547559166667,69.0,87.0
223,126.28593935,126.47408346666667,69.0,87.0
224,126.59521735000001,126.78851610000001,72.0,90.0
225,126.90449535,127.113258,72.0,90.0
226,127.21377335000001,127.43155660833334,69.0,93.0
227,127.52305135,128.12743210833335,72.0,93.0
228,128.45088535000002,128.6196995916667,67.0,87.0
229,128.76016335,128.94830746666668,69.0,87.0
230,129.06944135,129.2627401,72.0,90.0
231,129.37871935,129.587482,72.0,90.0
232,129.68799735000002,129.90578060833334,69.0,93.0
233,129.99727535,130.60165610833334,72.0,93.0
234,130.92510935,131.14675858333334,69.0,88.0
235,131.23438735000002,131.4341293916667,69.0,90.0
236,131.54366535,131.73180946666668,72.0,87.0
237,131.85294335,132.06943795,72.0,88.0
238,132.16222135,132.38387058333333,69.0,88.0
239,132.47149935000002,132.6647981,72.0,92.0
240,132.78077735,132.89031330833333,67.0,87.0
241,132.93541635,133.03464304166667,69.0,90.0
242,133.09005535,133.2524263,72.0,90.0
243,133.39933335,133.550106375,69.0,90.0
244,133.70861135,133.88515754166667,72.0,90.0
245,134.01788935000002,134.21118810000002,74.0,93.0
246,134.32716735,134.81041422500002,74.0,90.0
247,134.94572335,135.53592886666667,72.0,93.0
248,135.87355735,136.02690769166668,72.0,90.0
249,136.18283535,136.64159771666667,72.0,95.0
250,136.80139135000002,136.936700475,72.0,86.0
251,137.11066935,137.52690599166667,72.0,91.0
252,137.72922535,137.89288495833335,72.0,92.0
253,138.03850335,138.27175050833335,71.0,93.0
254,138.3400494,138.498554375,69.0,91.0
255,138.65705935,138.82071895833334,71.0,86.0
256,138.96633735,139.5913366416667,72.0,89.0
257,139.89417135000002,140.17509886666667,67.0,88.0
258,140.20344935,140.59520148333334,72.0,88.0
259,140.82200535,140.92767533333335,72.0,88.0
260,141.13128335000002,141.63643741666667,72.0,90.0
261,141.74983935,141.98050919166667,71.0,87.0
262,142.05911735,142.434116925,72.0,89.0
263,142.67767335000002,142.91220916666668,72.0,87.0
264,142.98695135,143.2111779,71.0,88.0
265,143.29622935,143.49854870833335,69.0,86.0
266,143.60550735,143.78205354166667,67.0,84.0
267,143.91478535000002,144.560403175,67.0,88.0
268,144.53334135,144.75885655833335,64.0,88.0
269,144.84261935,145.08617577500002,65.0,86.0
270,145.15189735,145.47663925,67.0,85.0
271,145.77045335,145.890298575,67.0,89.0
272,146.07973135,146.56942151666667,72.0,89.0
273,146.69828735000002,146.95859633333333,72.0,88.0
274,147.00756535000002,147.18411154166668,72.0,82.0
275,147.31684335,147.41993601666667,67.0,95.0
276,147.62612135,147.83488400000002,72.0,81.0
277,147.93539935,148.1596259,71.0,88.0
278,148.24467735000002,148.426378175,69.0,84.0
279,148.55395535,148.73436751666668,71.0,88.0
280,148.86323335,149.33230498333333,72.0,90.0
281,149.4843666666667,149.68926334166667,74.0,93.0
282,149.79106735000002,150.26013898333335,76.0,93.0
283,150.40962335,150.59776746666668,77.0,88.0
284,150.71890135,150.88771559166668,77.0,87.0
285,151.02817935000002,151.271735775,77.0,92.0
286,151.33745735000002,151.58359109166668,76.0,93.0
287,151.64673535,151.998539075,76.0,102.0
288,152.26529135,152.51013643333334,74.0,92.0
289,152.57456935000002,152.83487833333334,79.0,87.0
290,152.88384735,153.07199146666667,77.0,87.0
291,153.19312535,153.37998080833333,77.0,86.0
292,153.50240335,153.70214539166668,77.0,89.0
293,153.81168135000001,154.008846075,76.0,92.0
294,154.12095935000002,154.57972171666668,74.0,93.0
295,154.73951535,155.23951478333333,72.0,93.0
296,155.66734935,155.87353468333333,67.0,90.0
297,155.97662735,156.20343121666667,72.0,93.0
298,156.28590535,156.49466800000002,74.0,97.0
299,156.59518335,156.8348738,76.0,90.0
300,156.90446135000002,157.11580131666668,74.0,91.0
301,157.21373935,157.3864195666667,76.0,93.0
302,157.52301735,157.71116146666668,77.0,90.0
303,157.83229535,158.06554250833335,79.0,93.0
304,158.14157335000002,158.3374494166667,79.0,86.0
305,158.45085135000002,158.66992326666667,79.0,93.0
306,158.76012935,158.96373736666666,77.0,88.0
307,159.06940735,159.65574689166667,76.0,92.0
308,159.68796335000002,160.209869975,74.0,93.0
309,160.61579735,160.82456000000002,67.0,87.0
310,160.92507535000001,161.17378640833334,72.0,90.0
311,161.23435335000002,161.43796136666668,74.0,92.0
312,161.54363135,161.7833218,76.0,92.0
313,161.85290935,162.09259980000002,74.0,90.0
314,162.16218735,162.328424275,76.0,91.0
315,162.47146535000002,162.6647641,77.0,88.0
316,162.78074335000002,162.92636174166668,79.0,89.0
317,163.09002135,163.2523923,79.0,88.0
318,163.39929935,163.57713420000002,79.0,88.0
319,163.70857735,163.89543280833334,81.0,90.0
320,164.01785535000002,164.50239088333333,79.0,90.0
321,164.63641135,165.18666845833334,76.0,90.0
322,165.25496735000002,165.69311118333334,72.0,90.0
323,165.87352335,166.1441416,72.0,91.0
324,166.18280135,166.40831655833335,69.0,88.0
325,166.49207935,166.73305845833335,74.0,90.0
326,166.80135735000002,167.02171792500002,74.0,88.0
327,167.11063535000002,167.34130519166666,76.0,88.0
328,167.41991335,167.70084086666668,76.0,88.0
329,167.72919135,168.21501554166667,72.0,90.0
330,168.34774735000002,168.53975744166667,79.0,87.0
331,168.34774735000002,168.53975744166667,79.0,90.0
332,168.65702535,168.8348602,72.0,90.0
333,168.96630335,169.19826185000002,67.0,89.0
334,169.27558135,169.47532339166668,72.0,90.0
335,169.58485935000002,169.7781581,71.0,87.0
336,169.89413735000002,170.37609556666666,72.0,87.0
337,170.82197135,171.0758370416667,72.0,89.0
338,171.13124935000002,171.36578516666668,69.0,88.0
339,171.44052735,171.645424025,74.0,88.0
340,171.74980535,171.9276402,74.0,87.0
341,172.05908335,172.23820685833334,76.0,88.0
342,172.36836135000001,172.577124,76.0,87.0
343,172.67763935000002,172.90702053333334,77.0,86.0
344,172.98691735,173.15315427500002,77.0,82.0
345,173.29619535,173.48820544166668,77.0,92.0
346,173.60547335,173.7678443,76.0,87.0
347,173.91475135000002,174.29748287500001,74.0,91.0
348,174.53330735,175.16732725,72.0,88.0
349,175.46114135000002,175.66732668333336,67.0,90.0
350,175.77041935,175.99722321666667,72.0,93.0
351,176.07969735,176.28846000000001,74.0,97.0
352,176.38897535,176.62866580000002,76.0,90.0
353,176.69825335000002,176.90959331666667,74.0,91.0
354,177.00753135000002,177.18021156666669,76.0,93.0
355,177.31680935,177.50495346666668,77.0,90.0
356,177.62608735,177.85933450833335,79.0,93.0
357,177.93536535,178.13124141666668,79.0,86.0
358,178.24464335000002,178.46371526666667,79.0,93.0
359,178.55392135000002,178.7575293666667,77.0,88.0
360,178.86319935,179.4495388916667,76.0,92.0
361,179.48175535000001,180.003661975,74.0,93.0
362,180.40958935,180.61835200000002,67.0,87.0
363,180.71886735,180.96757840833334,72.0,90.0
364,181.02814535000002,181.23175336666668,74.0,92.0
365,181.33742335000002,181.5771138,76.0,92.0
366,181.64670135,181.8863918,74.0,90.0
367,181.95597935,182.122216275,76.0,91.0
368,182.26525735,182.4585561,77.0,88.0
369,182.57453535000002,182.72015374166668,79.0,89.0
370,182.88381335,183.04618430000002,79.0,88.0
371,183.19309135,183.3709262,79.0,88.0
372,183.50236935,183.68922480833334,81.0,90.0
373,183.81164735000002,184.29618288333333,79.0,90.0
374,184.43020335,184.98046045833334,76.0,90.0
375,185.04875935,185.48690318333334,72.0,90.0
376,185.66731535000002,185.9379336,72.0,91.0
377,185.97659335,186.20210855833335,69.0,88.0
378,186.28587135,186.52685045833334,74.0,90.0
379,186.59514935,186.81550992500001,74.0,88.0
380,186.90442735000002,187.1350971916667,76.0,88.0
381,187.21370535,187.49463286666668,76.0,88.0
382,187.52298335,188.00880754166667,72.0,90.0
383,188.14153935000002,188.3335494416667,79.0,87.0
384,188.14153935000002,188.3335494416667,79.0,90.0
385,188.45081735000002,188.6286522,72.0,90.0
386,188.76009535,188.99205385000002,67.0,89.0
387,189.06937335,189.26911539166667,72.0,90.0
388,189.37865135,189.5719501,71.0,87.0
389,189.68792935000002,190.1698875666667,72.0,87.0
390,190.61576335,190.86962904166668,72.0,89.0
391,190.92504135000001,191.15957716666668,69.0,88.0
392,191.23431935000002,191.439216025,74.0,88.0
393,191.54359735,191.7214322,74.0,87.0
394,191.85287535,192.03199885833334,76.0,88.0
395,192.16215335,192.37091600000002,76.0,87.0
396,192.47143135000002,192.70081253333333,77.0,86.0
397,192.78070935000002,192.94694627500002,77.0,82.0
398,193.08998735,193.53972910833335,76.0,92.0
399,193.70854335,193.92632660833334,74.0,95.0
400,194.01782135000002,194.23818192500002,72.0,86.0
401,194.32709935,194.787150375,72.0,85.0
402,194.94565535,195.96498409166668,72.0,87.0
403,195.50622172500002,195.96498409166668,72.0,127.0
404,196.12091175,196.57709680000002,79.0,127.0
405,196.758797625,197.27812693333334,76.0,127.0
406,197.41730203333336,197.85415720833333,74.0,127.0
407,197.41987935,197.895394275,72.0,92.0
408,198.02168279166668,198.48946576666668,72.0,127.0
409,198.03843535000001,198.62864086666667,71.0,92.0
410,198.65699135,198.94822813333334,69.0,88.0
411,198.61704294166668,199.10673310833334,79.0,127.0
412,198.96626935,199.1904959,67.0,85.0
413,199.27554735,199.511371825,69.0,88.0
414,199.27812466666668,199.70338191666667,76.0,127.0
415,199.58482535000002,199.81936116666668,71.0,88.0
416,199.89410335000002,200.92374135833336,72.0,87.0
417,200.47142228333334,200.92374135833336,72.0,127.0
418,201.08482365,201.57193650000002,79.0,127.0
419,201.69951367500002,202.20853371666666,76.0,127.0
420,202.31549235833336,202.79229594166668,74.0,127.0
421,202.93147104166667,203.45080035,76.0,127.0
422,203.59899605833334,203.92760393333336,74.0,127.0
423,203.90440808333335,204.03198525833335,72.0,105.0
424,204.212397425,204.70853088333334,72.0,127.0
425,204.84255135,205.87605533333334,72.0,87.0
426,205.42760223333335,205.87605533333334,72.0,127.0
427,206.01523043333336,206.50492060000002,79.0,127.0
428,204.8335307416667,207.1453837916667,76.0,87.0
429,206.65569362500003,207.1453837916667,76.0,127.0
430,207.28455889166668,207.77811503333334,74.0,127.0
431,207.31677535,207.792290275,72.0,92.0
432,207.9379086666667,208.38636176666668,72.0,127.0
433,207.93533135,208.52553686666667,71.0,92.0
434,208.55388735000002,208.84512413333334,69.0,88.0
435,208.50105235833334,208.97656728333334,79.0,125.0
436,208.86316535,209.0873919,67.0,85.0
437,209.17244335,209.40826782500002,69.0,88.0
438,209.12605165000002,209.56419548333335,76.0,127.0
439,209.48172135000002,209.71625716666668,71.0,88.0
440,209.771669475,210.04357638333335,76.0,127.0
441,209.79099935000002,210.80517345833334,72.0,87.0
442,210.35543170000003,210.80517345833334,72.0,123.0
443,210.95336916666668,211.41084287500001,79.0,123.0
444,211.5719251666667,212.05130606666668,76.0,127.0
445,212.21238835833336,212.68919194166668,74.0,127.0
446,212.848985575,213.33609842500002,76.0,127.0
447,213.4971807166667,213.761355675,74.0,127.0
448,213.75104640833334,213.85800505,72.0,106.0
449,214.070633675,214.54872591666668,72.0,127.0
450,215.0435707166667,215.3296528666667,67.0,122.0
451,215.36186932500001,215.66212671666668,72.0,127.0
452,215.66212671666668,215.97140471666668,74.0,127.0
453,215.96109545000002,216.26908479166667,76.0,127.0
454,216.27939405833334,216.61186790833335,74.0,127.0
455,216.60026998333333,216.90825932500002,76.0,127.0
456,216.89795005833335,217.22913525,77.0,127.0
457,217.22913525,217.37217632500003,79.0,127.0
458,217.50490813333334,217.642794575,79.0,121.0
459,217.81418613333335,218.14279400833334,79.0,127.0
460,218.11186620833334,218.4610926166667,77.0,127.0
461,218.44047408333336,219.01650435833335,76.0,127.0
462,219.03712289166668,219.47268940833334,74.0,127.0
463,220.00490530000002,220.30387403333336,67.0,116.0
464,220.29227610833334,220.611863375,72.0,114.0
465,220.60026545000002,220.90954345,74.0,127.0
466,220.88763625833334,221.19820291666667,76.0,127.0
467,221.20851218333334,221.5358314,74.0,127.0
468,221.52552213333334,221.83222281666667,76.0,127.0
469,221.81160428333334,222.1698513,77.0,118.0
470,222.1389235,222.30773774166667,79.0,109.0
471,222.4469128416667,222.58608794166668,79.0,127.0
472,222.74588157500003,222.97912873333334,79.0,127.0
473,223.07191213333334,223.34768501666667,81.0,127.0
474,223.39923135,223.78067421666668,79.0,127.0
475,223.97139565,224.45979715833334,76.0,127.0
476,225.25489935000002,225.50489906666667,72.0,93.0
477,225.56417735000002,225.8038678,69.0,91.0
478,225.87345535,226.07964068333334,74.0,95.0
479,226.18273335,226.37087746666668,74.0,89.0
480,226.49201135,226.689176075,74.0,95.0
481,226.80128935000002,227.04226845833335,76.0,88.0
482,227.11056735000003,227.5925255666667,72.0,90.0
483,227.72912335,228.03066940000002,79.0,79.0
484,228.03840135000002,228.28968972500002,72.0,89.0
485,228.34767935000002,228.63505015833334,67.0,88.0
486,228.65695735000003,228.91468901666667,72.0,86.0
487,228.96623535,229.18917324166668,71.0,89.0
488,229.27551335,229.68272938333334,72.0,88.0
489,230.20334735,230.48298620833336,72.0,93.0
490,230.51262535,230.7677797,69.0,88.0
491,230.82190335,231.02551136666668,74.0,95.0
492,231.13118135000002,231.31288217500003,74.0,87.0
493,231.44045935000003,231.63891273333334,74.0,92.0
494,231.74973735,231.99844840833336,76.0,88.0
495,232.05901535,232.23169556666667,77.0,86.0
496,232.36829335000002,232.5293756416667,77.0,87.0
497,232.67757135000002,232.86571546666667,77.0,88.0
498,232.98684935,233.16983883333336,76.0,93.0
499,233.29612735,233.78066288333335,74.0,93.0
500,233.91468335000002,234.41081680833335,72.0,88.0
501,234.84251735,235.04870268333335,67.0,90.0
502,235.15179535000001,235.3785992166667,72.0,93.0
503,235.46107335000002,235.669836,74.0,97.0
504,235.77035135000003,236.0100418,76.0,90.0
505,236.07962935,236.2909693166667,74.0,91.0
506,236.38890735,236.56158756666667,76.0,93.0
507,236.69818535000002,236.8863294666667,77.0,90.0
508,237.00746335000002,237.24071050833334,79.0,93.0
509,237.31674135,237.51261741666667,79.0,86.0
510,237.62601935,237.84509126666669,79.0,93.0
511,237.93529735,238.13890536666668,77.0,88.0
512,238.24457535000002,238.83091489166668,76.0,92.0
513,238.86313135,239.38503797500002,74.0,93.0
514,239.79096535000002,239.999728,67.0,87.0
515,240.10024335000003,240.34895440833336,72.0,90.0
516,240.40952135,240.61312936666667,74.0,92.0
517,240.71879935,240.95848980000002,76.0,92.0
518,241.02807735000002,241.2677678,74.0,90.0
519,241.33735535000002,241.50359227500002,76.0,91.0
520,241.64663335,241.83993210000003,77.0,88.0
521,241.95591135,242.10152974166667,79.0,89.0
522,242.26518935,242.4275603,79.0,88.0
523,242.57446735000002,242.7523022,79.0,88.0
524,242.88374535000003,243.07060080833335,81.0,90.0
525,243.19302335,243.67755888333335,79.0,90.0
526,243.81157935000002,244.36183645833336,76.0,90.0
527,244.43013535,244.86827918333336,72.0,90.0
528,245.04869135,245.31930960000003,72.0,91.0
529,245.35796935000002,245.58348455833334,69.0,88.0
530,245.66724735000003,245.90822645833336,74.0,90.0
531,245.97652535,246.196885925,74.0,88.0
532,246.28580335,246.51647319166668,76.0,88.0
533,246.59508135000002,246.8760088666667,76.0,88.0
534,246.90435935000002,247.3901835416667,72.0,90.0
535,247.52291535,247.71492544166668,79.0,87.0
536,247.52291535,247.71492544166668,79.0,90.0
537,247.83219335,248.01002820000002,72.0,90.0
538,248.14147135000002,248.37342985,67.0,89.0
539,248.45074935000002,248.6504913916667,72.0,90.0
540,248.76002735,248.95332610000003,71.0,87.0
541,249.06930535,249.55126356666668,72.0,87.0
542,249.99713935000003,250.25100504166667,72.0,89.0
543,250.30641735,250.54095316666667,69.0,88.0
544,250.61569535,250.82059202500002,74.0,88.0
545,250.92497335000002,251.10280820000003,74.0,87.0
546,251.23425135000002,251.41337485833336,76.0,88.0
547,251.54352935000003,251.752292,76.0,87.0
548,251.85280735,252.08218853333335,77.0,86.0
549,252.16208535,252.328322275,77.0,82.0
550,252.47136335000002,252.92110510833334,76.0,92.0
551,253.08991935,253.30770260833336,74.0,95.0
552,253.39919735,253.619557925,72.0,86.0
553,253.70847535000001,254.16852637500003,72.0,85.0
