,start,end,pitch,velocity
0,7.213909350000001,7.55411515,55.0,86.0
1,7.523187350000001,7.904630216666667,60.0,81.0
2,7.8324653500000005,7.9213827750000005,55.0,74.0
3,8.14174335,8.247413333333334,55.0,79.0
4,8.14174335,8.408495625,60.0,82.0
5,8.14174335,8.422670866666667,64.0,87.0
6,8.76029935,8.854371408333334,55.0,77.0
7,6.904631350000001,8.898185791666668,48.0,100.0
8,8.76029935,9.061845400000001,60.0,81.0
9,9.069577350000001,9.503855208333334,55.0,85.0
10,9.688133350000001,10.043803050000001,55.0,77.0
11,9.99741135,10.289936791666667,62.0,86.0
12,10.306689350000001,10.719060016666667,50.0,81.0
13,10.61596735,10.851791825000001,55.0,78.0
14,10.61596735,10.872410358333333,59.0,79.0
15,10.92524535,11.269317125,50.0,65.0
16,9.37885535,11.344059308333334,43.0,87.0
17,11.23452335,11.353079916666667,55.0,86.0
18,11.23452335,11.371121133333334,59.0,87.0
19,11.23452335,11.413646858333333,62.0,86.0
20,11.853079350000002,12.284779891666668,57.0,73.0
21,11.853079350000002,12.311841716666667,60.0,82.0
22,12.16235735,12.564418750000002,52.0,76.0
23,12.471635350000001,12.770604083333334,57.0,84.0
24,12.78091335,13.144315,52.0,78.0
25,13.090191350000001,13.277046808333335,60.0,78.0
26,13.090191350000001,13.351788991666668,57.0,77.0
27,13.39946935,13.658489675,52.0,70.0
28,11.853079350000002,13.748695758333334,45.0,87.0
29,13.708747350000001,13.9484378,60.0,81.0
30,13.708747350000001,13.954881091666667,64.0,89.0
31,14.01802535,14.144313866666668,57.0,87.0
32,14.327303350000001,14.949725325000001,53.0,84.0
33,14.327303350000001,14.998694341666667,57.0,81.0
34,14.945859350000001,15.106941641666667,60.0,86.0
35,15.25513735,15.615961683333333,53.0,86.0
36,15.56441535,15.966476750000002,65.0,86.0
37,15.873693350000002,16.217765125,53.0,86.0
38,14.63658135,16.2680228,48.0,73.0
39,14.327303350000001,16.390445341666666,41.0,86.0
40,16.182971350000003,16.53348641666667,57.0,72.0
41,16.49224935,16.702300658333336,53.0,87.0
42,17.11080535,17.45101115,55.0,86.0
43,17.420083350000002,17.80152621666667,60.0,81.0
44,17.72936135,17.818278775,55.0,74.0
45,18.03863935,18.144309333333336,55.0,79.0
46,18.03863935,18.305391625000002,60.0,82.0
47,18.03863935,18.31956686666667,64.0,87.0
48,18.657195350000002,18.751267408333334,55.0,77.0
49,16.80152735,18.795081791666668,48.0,100.0
50,18.657195350000002,18.9587414,60.0,81.0
51,18.96647335,19.400751208333336,55.0,85.0
52,19.585029350000003,19.940699050000003,55.0,77.0
53,19.894307350000002,20.186832791666667,62.0,86.0
54,20.20358535,20.61595601666667,50.0,81.0
55,20.51286335,20.748687825,55.0,78.0
56,20.51286335,20.769306358333335,59.0,79.0
57,20.822141350000003,21.166213125000002,50.0,65.0
58,19.27575135,21.240955308333334,43.0,87.0
59,21.13141935,21.249975916666667,55.0,86.0
60,21.13141935,21.268017133333334,59.0,87.0
61,21.13141935,21.310542858333335,62.0,86.0
62,21.74997535,22.181675891666668,57.0,73.0
63,21.74997535,22.20873771666667,60.0,82.0
64,22.059253350000002,22.46131475,52.0,76.0
65,22.36853135,22.667500083333334,57.0,84.0
66,22.67780935,23.041211,52.0,78.0
67,22.987087350000003,23.173942808333333,60.0,78.0
68,22.987087350000003,23.248684991666668,57.0,77.0
69,23.296365350000002,23.555385675,52.0,70.0
70,21.74997535,23.645591758333335,45.0,87.0
71,23.60564335,23.845333800000002,60.0,81.0
72,23.60564335,23.85177709166667,64.0,89.0
73,23.91492135,24.04120986666667,57.0,87.0
74,24.224199350000003,24.846621325,53.0,84.0
75,24.224199350000003,24.89559034166667,57.0,81.0
76,24.84275535,25.003837641666667,60.0,86.0
77,25.15203335,25.512857683333333,53.0,86.0
78,25.461311350000003,25.86337275,65.0,86.0
79,25.77058935,26.114661125,53.0,86.0
80,24.533477350000002,26.164918800000002,48.0,73.0
81,24.224199350000003,26.287341341666668,41.0,86.0
82,26.07986735,26.430382416666667,57.0,72.0
83,26.389145350000003,26.599196658333334,53.0,87.0
84,27.00770135,27.34790715,55.0,86.0
85,27.31697935,27.698422216666668,60.0,81.0
86,27.626257350000003,27.715174775,55.0,74.0
87,27.935535350000002,28.041205333333334,55.0,79.0
88,27.935535350000002,28.202287625,60.0,82.0
89,27.935535350000002,28.216462866666667,64.0,87.0
90,28.55409135,28.648163408333335,55.0,77.0
91,26.698423350000002,28.69197779166667,48.0,100.0
92,28.55409135,28.855637400000003,60.0,81.0
93,28.863369350000003,29.297647208333334,55.0,85.0
94,29.48192535,29.83759505,55.0,77.0
95,29.791203350000004,30.08372879166667,62.0,86.0
96,30.100481350000003,30.512852016666667,50.0,81.0
97,30.40975935,30.645583825000003,55.0,78.0
98,30.40975935,30.666202358333337,59.0,79.0
99,30.71903735,31.063109125,50.0,65.0
100,29.172647350000002,31.137851308333335,43.0,87.0
101,31.028315350000003,31.14687191666667,55.0,86.0
102,31.028315350000003,31.164913133333336,59.0,87.0
103,31.028315350000003,31.207438858333337,62.0,86.0
104,31.64687135,32.07857189166667,57.0,73.0
105,31.64687135,32.10563371666667,60.0,82.0
106,31.95614935,32.358210750000005,52.0,76.0
107,32.26542735,32.564396083333335,57.0,84.0
108,32.57470535,32.938107,52.0,78.0
109,32.88398335,33.070838808333335,60.0,78.0
110,32.88398335,33.14558099166667,57.0,77.0
111,33.19326135,33.452281675,52.0,70.0
112,31.64687135,33.54248775833334,45.0,87.0
113,33.50253935,33.742229800000004,60.0,81.0
114,33.50253935,33.74867309166667,64.0,89.0
115,33.811817350000005,33.93810586666667,57.0,87.0
116,34.121095350000004,34.743517325,53.0,84.0
117,34.121095350000004,34.79248634166667,57.0,81.0
118,34.73965135,34.90073364166667,60.0,86.0
119,35.04892935,35.409753683333335,53.0,86.0
120,35.35820735,35.76026875,65.0,86.0
121,35.66748535,36.011557125,53.0,86.0
122,34.43037335,36.0618148,48.0,73.0
123,34.121095350000004,36.184237341666666,41.0,86.0
124,35.97676335,36.327278416666665,57.0,72.0
125,36.286041350000005,36.49609265833334,53.0,87.0
126,36.90459735,37.24480315,55.0,86.0
127,37.21387535,37.59531821666667,60.0,81.0
128,37.52315335,37.612070775,55.0,74.0
129,37.83243135,37.938101333333336,55.0,79.0
130,37.83243135,38.099183625,60.0,82.0
131,37.83243135,38.113358866666665,64.0,87.0
132,38.450987350000005,38.54505940833334,55.0,77.0
133,36.595319350000004,38.58887379166667,48.0,100.0
134,38.450987350000005,38.752533400000004,60.0,81.0
135,38.760265350000005,39.194543208333336,55.0,85.0
136,39.37882135,39.73449105,55.0,77.0
137,39.68809935,39.98062479166667,62.0,86.0
138,39.99737735,40.40974801666667,50.0,81.0
139,40.30665535,40.542479825,55.0,78.0
140,40.30665535,40.563098358333335,59.0,79.0
141,40.615933350000006,40.960005125,50.0,65.0
142,39.069543350000004,41.03474730833334,43.0,87.0
143,40.925211350000005,41.04376791666667,55.0,86.0
144,40.925211350000005,41.061809133333334,59.0,87.0
145,40.925211350000005,41.10433485833334,62.0,86.0
146,41.54376735,41.97546789166667,57.0,73.0
147,41.54376735,42.00252971666667,60.0,82.0
148,41.85304535,42.25510675,52.0,76.0
149,42.16232335,42.46129208333333,57.0,84.0
150,42.47160135,42.835003,52.0,78.0
151,42.78087935,42.96773480833333,60.0,78.0
152,42.78087935,43.04247699166667,57.0,77.0
153,43.090157350000005,43.349177675,52.0,70.0
154,41.54376735,43.439383758333335,45.0,87.0
155,43.399435350000005,43.6391258,60.0,81.0
156,43.399435350000005,43.64556909166667,64.0,89.0
157,43.708713350000004,43.83500186666667,57.0,87.0
158,44.01799135,44.640413325000004,53.0,84.0
159,44.01799135,44.68938234166667,57.0,81.0
160,44.63654735,44.79762964166667,60.0,86.0
161,44.94582535,45.30664968333333,53.0,86.0
162,45.255103350000006,45.65716475,65.0,86.0
163,45.564381350000005,45.908453125,53.0,86.0
164,44.32726935,45.958710800000006,48.0,73.0
165,44.01799135,46.08113334166667,41.0,86.0
166,45.873659350000004,46.22417441666667,57.0,72.0
167,46.18293735,46.39298865833334,53.0,87.0
168,46.49221535,46.93164784166667,60.0,82.0
169,46.49221535,46.97417356666667,57.0,76.0
170,47.11077135,47.46901836666667,64.0,87.0
171,46.80149335,47.50638945833334,52.0,81.0
172,47.11077135,47.52314201666667,60.0,84.0
173,46.49221535,47.636543950000004,45.0,86.0
174,47.42004935,47.78216234166667,57.0,86.0
175,47.729327350000005,48.135254725,62.0,87.0
176,48.038605350000005,48.36592456666667,57.0,86.0
177,47.729327350000005,48.371079200000004,50.0,90.0
178,48.347883350000004,48.45870796666667,62.0,85.0
179,48.347883350000004,48.53473880833334,65.0,83.0
180,48.96643935,49.3762327,59.0,81.0
181,48.96643935,49.42133574166667,55.0,81.0
182,49.58499535,49.84659299166667,59.0,82.0
183,49.58499535,49.878809450000006,62.0,81.0
184,49.27571735,49.935510416666666,50.0,78.0
185,49.894273350000006,50.060510275000006,55.0,87.0
186,48.96643935,50.142984408333334,43.0,86.0
187,50.203551350000005,50.323396575000004,55.0,85.0
188,50.203551350000005,50.559221050000005,60.0,83.0
189,50.512829350000004,50.694530175000004,55.0,87.0
190,50.203551350000005,50.82339600833333,48.0,87.0
191,50.82210735,51.003808175,55.0,86.0
192,50.82210735,51.136539983333336,59.0,85.0
193,50.82210735,51.23061204166667,43.0,79.0
194,51.44066335,51.85303401666667,60.0,87.0
195,51.44066335,51.929064858333334,57.0,85.0
196,52.059219350000006,52.28086858333334,60.0,87.0
197,52.059219350000006,52.41360039166667,64.0,87.0
198,51.74994135,52.542466225000005,52.0,77.0
199,51.44066335,52.566950733333336,45.0,83.0
200,52.368497350000005,52.69968254166667,57.0,86.0
201,52.677775350000005,53.09401199166667,65.0,87.0
202,52.987053350000004,53.199681975000004,57.0,88.0
203,52.677775350000005,53.34143439166667,50.0,86.0
204,53.29633135,53.416176575,57.0,82.0
205,53.29633135,53.548908383333334,62.0,87.0
206,53.60560935,53.761537008333335,57.0,80.0
207,53.91488735,54.313082775000005,59.0,77.0
208,53.91488735,54.42004141666667,55.0,78.0
209,54.533443350000006,54.684216375000005,59.0,83.0
210,54.533443350000006,54.6958143,62.0,86.0
211,54.22416535,54.84787598333334,50.0,78.0
212,53.91488735,54.94581401666667,43.0,82.0
213,54.842721350000005,55.008958275000005,55.0,87.0
214,55.151999350000004,55.573390625,60.0,87.0
215,55.46127735,55.65586475833334,55.0,88.0
216,55.151999350000004,55.798905833333336,48.0,86.0
217,55.77055535,55.929060325,55.0,88.0
218,55.77055535,56.137822975000006,59.0,86.0
219,56.07983335,56.226740400000004,55.0,86.0
220,56.38911135,56.765399583333334,60.0,86.0
221,56.38911135,56.77699750833334,57.0,80.0
222,57.007667350000006,57.081120875,57.0,78.0
223,57.007667350000006,57.33498656666667,64.0,87.0
224,57.007667350000006,57.35302778333334,60.0,87.0
225,56.69838935000001,57.42776996666667,52.0,79.0
226,56.38911135,57.46256374166667,45.0,86.0
227,57.316945350000005,57.60560481666667,57.0,82.0
228,57.626223350000004,58.047614625,65.0,88.0
229,57.93550135,58.13782070833334,57.0,87.0
230,57.626223350000004,58.249933983333335,50.0,86.0
231,58.24477935,58.50508833333334,62.0,87.0
232,58.55405735,58.67390257500001,57.0,81.0
233,58.86333535000001,59.204829808333336,59.0,79.0
234,58.86333535000001,59.26539675,55.0,81.0
235,59.481891350000005,59.543746950000006,55.0,76.0
236,59.172613350000006,59.80405593333334,50.0,75.0
237,58.86333535000001,59.80921056666667,43.0,84.0
238,59.481891350000005,59.854313608333335,59.0,86.0
239,59.791169350000004,59.94709700833334,55.0,82.0
240,59.481891350000005,60.005086633333335,62.0,83.0
241,60.10044735,60.47286960833334,60.0,86.0
242,60.10044735,60.51539533333334,57.0,81.0
243,60.71900335,60.82853930833334,57.0,82.0
244,60.40972535,60.944518558333336,52.0,80.0
245,60.10044735,60.94967319166667,45.0,86.0
246,60.71900335,60.98833294166667,60.0,86.0
247,60.71900335,61.024415375000004,64.0,87.0
248,61.02828135,61.16616779166667,57.0,79.0
249,61.33755935000001,61.719002216666674,58.0,75.0
250,61.33755935000001,61.83498146666667,62.0,82.0
251,61.646837350000006,62.12492959166667,53.0,75.0
252,61.956115350000005,62.430341616666674,58.0,90.0
253,62.265393350000004,62.65070219166667,53.0,78.0
254,61.33755935000001,62.721578400000006,46.0,88.0
255,62.57467135,62.920031783333336,65.0,83.0
256,62.57467135,62.95740287500001,62.0,83.0
257,62.57467135,62.95998019166667,58.0,85.0
258,62.88394935,63.3092066,53.0,76.0
259,63.19322735,63.35044366666667,58.0,84.0
260,63.50250535000001,63.6184846,58.0,79.0
261,63.19322735,63.6803402,62.0,86.0
262,63.811783350000006,63.9277626,59.0,88.0
263,63.811783350000006,63.940649183333335,55.0,87.0
264,63.811783350000006,63.970288325000006,43.0,86.0
265,64.12106135,64.264102425,43.0,86.0
266,64.12106135,64.28085498333334,55.0,87.0
267,64.12106135,64.295030225,59.0,87.0
268,64.73961735,64.88910171666667,59.0,79.0
269,64.73961735,64.898122325,55.0,80.0
270,64.73961735,64.90456561666667,43.0,84.0
271,64.73961735,64.91229756666667,62.0,81.0
272,65.04889535000001,65.44580211666667,67.0,87.0
273,65.04889535000001,65.447090775,59.0,91.0
274,65.04889535000001,65.46513199166667,62.0,87.0
275,65.04889535000001,65.53729685833333,55.0,87.0
276,65.35817335,65.76152340833333,50.0,87.0
277,65.04889535000001,65.80662645000001,43.0,88.0
278,65.66745135000001,65.86719339166667,55.0,86.0
279,65.66745135000001,66.15971883333334,59.0,87.0
280,65.66745135000001,66.24219296666666,62.0,87.0
281,65.97672935,66.243481625,50.0,87.0
282,66.28600735,66.63523375833334,60.0,82.0
283,66.28600735,66.66229558333333,64.0,88.0
284,66.59528535,66.846573725,55.0,81.0
285,66.90456335,67.1442538,60.0,81.0
286,66.28600735,67.3607484,48.0,92.0
287,67.21384135000001,67.36976900833334,55.0,88.0
288,67.52311935,67.70997480833334,60.0,89.0
289,67.52311935,67.905850875,64.0,90.0
290,67.83239735000001,67.95739720833333,55.0,84.0
291,68.14167535,68.24863399166667,48.0,95.0
292,68.14167535,68.25121130833334,55.0,86.0
293,68.14167535,68.35430397500001,60.0,87.0
294,68.45095335,68.60688100833333,55.0,86.0
295,68.76023135,68.93806620000001,55.0,86.0
296,68.76023135,69.12749897500001,59.0,86.0
297,69.06950935,69.1854886,55.0,86.0
298,69.37878735000001,69.5256944,55.0,86.0
299,69.37878735000001,69.61074585,62.0,81.0
300,69.68806535,69.84399300833334,55.0,80.0
301,69.99734335000001,70.23832245833334,67.0,88.0
302,70.30662135,70.44708510833334,55.0,88.0
303,68.76023135,70.60172410833334,43.0,82.0
304,70.61589935,70.7318786,55.0,89.0
305,70.61589935,70.82981663333334,59.0,92.0
306,70.92517735,71.06950708333333,55.0,87.0
307,71.23445535,71.57981578333333,57.0,85.0
308,71.23445535,71.58497041666666,60.0,85.0
309,71.85301135,71.965124625,57.0,82.0
310,71.85301135,71.96770194166668,64.0,88.0
311,71.54373335000001,71.97285657500001,52.0,73.0
312,71.23445535,72.44708284166667,45.0,86.0
313,72.16228935000001,72.48445393333334,52.0,78.0
314,72.47156735,72.66357744166667,57.0,82.0
315,72.47156735,72.707391825,60.0,86.0
316,72.78084535,72.89166996666667,57.0,74.0
317,73.09012335,73.18806138333333,57.0,87.0
318,73.09012335,73.20867991666667,52.0,88.0
319,73.09012335,73.28471075833333,60.0,95.0
320,73.09012335,73.36589623333333,64.0,91.0
321,73.39940135,73.50378267500001,57.0,87.0
322,73.70867935000001,74.14424586666667,55.0,85.0
323,73.70867935000001,74.18677159166667,52.0,88.0
324,74.32723535000001,74.46125581666666,52.0,87.0
325,74.32723535000001,74.68419370833334,55.0,85.0
326,74.63651335,74.77568845,52.0,84.0
327,74.01795735,75.09398705833334,47.0,73.0
328,74.94579135000001,75.29115178333333,59.0,86.0
329,74.94579135000001,75.30274970833334,55.0,87.0
330,73.70867935000001,75.67259465000001,40.0,89.0
331,75.25506935,75.70996574166666,47.0,81.0
332,75.56434735,75.87877998333333,55.0,90.0
333,75.56434735,75.92903765833334,59.0,88.0
334,75.87362535,76.02053240000001,40.0,93.0
335,76.18290335,76.45996489166667,53.0,83.0
336,76.18290335,76.53341841666668,57.0,82.0
337,76.49218135000001,76.93805713333334,48.0,75.0
338,76.80145935,76.95223237500001,53.0,87.0
339,76.80145935,77.010222,60.0,88.0
340,77.42001535,77.841406625,65.0,90.0
341,77.11073735000001,77.89295295833334,48.0,85.0
342,77.72929335,77.918726125,53.0,88.0
343,76.18290335,77.988313675,41.0,89.0
344,78.03857135,78.12233414166667,53.0,88.0
345,78.03857135,78.14424133333334,48.0,85.0
346,78.03857135,78.20609693333334,41.0,86.0
347,78.03857135,78.22542680833334,57.0,93.0
348,78.03857135,78.313055575,60.0,91.0
349,78.34784935,78.46769457500001,53.0,92.0
350,78.65712735000001,79.05016814166667,55.0,81.0
351,78.65712735000001,79.05661143333334,52.0,82.0
352,79.27568335000001,79.41743576666667,52.0,88.0
353,78.96640535,79.47542539166668,47.0,77.0
354,79.27568335000001,79.57722940000001,64.0,90.0
355,79.58496135,79.68032206666668,52.0,82.0
356,79.58496135,79.98960006666667,47.0,86.0
357,79.89423935,80.09784736666667,52.0,87.0
358,79.89423935,80.1648576,59.0,87.0
359,78.65712735000001,80.52439327500001,40.0,89.0
360,80.20351735,80.57207363333333,47.0,87.0
361,80.51279535,80.655836425,55.0,93.0
362,80.51279535,80.65841374166668,52.0,93.0
363,80.82207335000001,80.9535165,40.0,89.0
364,81.13135135,81.33882534166668,57.0,81.0
365,81.13135135,81.49346434166667,62.0,86.0
366,81.44062935000001,81.56305189166667,57.0,87.0
367,81.74990735,81.86588660000001,57.0,91.0
368,81.13135135,82.0359895,38.0,88.0
369,81.74990735,82.13006155833334,65.0,88.0
370,82.05918535,82.19320581666668,57.0,95.0
371,82.36846335,82.50119515833333,57.0,86.0
372,82.36846335,82.758926825,62.0,87.0
373,82.67774135,82.8246484,57.0,85.0
374,82.36846335,82.94578228333334,50.0,92.0
375,82.98701935000001,83.12490579166668,57.0,81.0
376,82.98701935000001,83.32078185833333,65.0,88.0
377,82.98701935000001,83.33882307500001,62.0,87.0
378,83.29629735,83.41098794166668,57.0,88.0
379,83.60557535000001,83.934183225,59.0,88.0
380,83.60557535000001,83.95222444166667,55.0,87.0
381,84.22413135000001,84.32335804166667,55.0,91.0
382,84.22413135000001,84.45866716666667,62.0,88.0
383,84.53340935,84.69062566666668,55.0,85.0
384,84.84268735,84.96253257500001,55.0,92.0
385,83.91485335,84.99474903333333,50.0,82.0
386,84.84268735,85.08495511666668,67.0,87.0
387,85.15196535000001,85.35299605,55.0,76.0
388,85.15196535000001,85.58495455,50.0,83.0
389,85.46124335,85.62232564166668,55.0,88.0
390,83.60557535000001,85.76794403333334,43.0,86.0
391,85.46124335,85.94320156666667,62.0,86.0
392,85.77052135000001,86.05402618333333,55.0,92.0
393,86.07979935,86.42902575833334,60.0,82.0
394,86.07979935,86.45608758333334,64.0,88.0
395,86.38907735000001,86.64036572500001,55.0,81.0
396,86.69835535,86.93804580000001,60.0,81.0
397,86.07979935,87.1545404,48.0,92.0
398,87.00763335,87.16356100833333,55.0,88.0
399,87.31691135,87.50376680833334,60.0,89.0
400,87.31691135,87.69964287500001,64.0,90.0
401,87.62618935,87.75118920833334,55.0,84.0
402,87.93546735000001,88.04242599166668,48.0,95.0
403,87.93546735000001,88.04500330833334,55.0,86.0
404,87.93546735000001,88.148095975,60.0,87.0
405,88.24474535,88.40067300833334,55.0,86.0
406,88.55402335000001,88.7318582,55.0,86.0
407,88.55402335000001,88.921290975,59.0,86.0
408,88.86330135,88.97928060000001,55.0,86.0
409,89.17257935,89.3194864,55.0,86.0
410,89.17257935,89.40453785000001,62.0,81.0
411,89.48185735,89.63778500833334,55.0,80.0
412,89.79113535,90.03211445833334,67.0,88.0
413,90.10041335000001,90.24087710833334,55.0,88.0
414,88.55402335000001,90.39551610833334,43.0,82.0
415,90.40969135,90.52567060000001,55.0,89.0
416,90.40969135,90.62360863333333,59.0,92.0
417,90.71896935000001,90.86329908333335,55.0,87.0
418,91.02824735,91.37360778333334,57.0,85.0
419,91.02824735,91.37876241666667,60.0,85.0
420,91.64680335,91.75891662500001,57.0,82.0
421,91.64680335,91.76149394166667,64.0,88.0
422,91.33752535,91.766648575,52.0,73.0
423,91.02824735,92.24087484166667,45.0,86.0
424,91.95608135,92.27824593333334,52.0,78.0
425,92.26535935000001,92.45736944166667,57.0,82.0
426,92.26535935000001,92.50118382500001,60.0,86.0
427,92.57463735,92.68546196666667,57.0,74.0
428,92.88391535000001,92.98185338333334,57.0,87.0
429,92.88391535000001,93.00247191666668,52.0,88.0
430,92.88391535000001,93.07850275833334,60.0,95.0
431,92.88391535000001,93.15968823333334,64.0,91.0
432,93.19319335,93.297574675,57.0,87.0
433,93.50247135000001,93.93803786666668,55.0,85.0
434,93.50247135000001,93.98056359166667,52.0,88.0
435,94.12102735,94.25504781666667,52.0,87.0
436,94.12102735,94.47798570833334,55.0,85.0
437,94.43030535000001,94.56948045,52.0,84.0
438,93.81174935,94.88777905833334,47.0,73.0
439,94.73958335,95.08494378333334,59.0,86.0
440,94.73958335,95.09654170833333,55.0,87.0
441,93.50247135000001,95.46638665,40.0,89.0
442,95.04886135000001,95.50375774166667,47.0,81.0
443,95.35813935,95.67257198333334,55.0,90.0
444,95.35813935,95.72282965833334,59.0,88.0
445,95.66741735000001,95.8143244,40.0,93.0
446,95.97669535,96.25375689166667,53.0,83.0
447,95.97669535,96.32721041666667,57.0,82.0
448,96.28597335,96.73184913333334,48.0,75.0
449,96.59525135000001,96.746024375,53.0,87.0
450,96.59525135000001,96.80401400000001,60.0,88.0
451,97.21380735000001,97.635198625,65.0,90.0
452,96.90452935,97.68674495833334,48.0,85.0
453,97.52308535,97.712518125,53.0,88.0
454,95.97669535,97.78210567500001,41.0,89.0
455,97.83236335000001,97.91612614166667,53.0,88.0
456,97.83236335000001,97.93803333333334,48.0,85.0
457,97.83236335000001,97.99988893333334,41.0,86.0
458,97.83236335000001,98.01921880833333,57.0,93.0
459,97.83236335000001,98.106847575,60.0,91.0
460,98.14164135,98.261486575,53.0,92.0
461,98.45091935,98.84396014166667,55.0,81.0
462,98.45091935,98.85040343333334,52.0,82.0
463,99.06947535,99.21122776666667,52.0,88.0
464,98.76019735000001,99.26921739166667,47.0,77.0
465,99.06947535,99.3710214,64.0,90.0
466,99.37875335000001,99.47411406666667,52.0,82.0
467,99.37875335000001,99.78339206666668,47.0,86.0
468,99.68803135,99.89163936666667,52.0,87.0
469,99.68803135,99.9586496,59.0,87.0
470,98.45091935,100.318185275,40.0,89.0
471,99.99730935000001,100.36586563333334,47.0,87.0
472,100.30658735,100.449628425,55.0,93.0
473,100.30658735,100.45220574166667,52.0,93.0
474,100.61586535,100.7473085,40.0,89.0
475,100.92514335,101.13261734166667,57.0,81.0
476,100.92514335,101.28725634166668,62.0,86.0
477,101.23442135,101.35684389166667,57.0,87.0
478,101.54369935000001,101.6596786,57.0,91.0
479,100.92514335,101.82978150000001,38.0,88.0
480,101.54369935000001,101.92385355833333,65.0,88.0
481,101.85297735,101.98699781666667,57.0,95.0
482,102.16225535000001,102.29498715833334,57.0,86.0
483,102.16225535000001,102.552718825,62.0,87.0
484,102.47153335,102.61844040000001,57.0,85.0
485,102.16225535000001,102.73957428333334,50.0,92.0
486,102.78081135000001,102.91869779166667,57.0,81.0
487,102.78081135000001,103.11457385833334,65.0,88.0
488,102.78081135000001,103.132615075,62.0,87.0
489,103.09008935,103.20477994166667,57.0,88.0
490,103.39936735,103.72797522500001,59.0,88.0
491,103.39936735,103.74601644166667,55.0,87.0
492,104.01792335,104.11715004166668,55.0,91.0
493,104.01792335,104.25245916666667,62.0,88.0
494,104.32720135000001,104.48441766666667,55.0,85.0
495,104.63647935,104.75632457500001,55.0,92.0
496,103.70864535000001,104.78854103333335,50.0,82.0
497,104.63647935,104.87874711666667,67.0,87.0
498,104.94575735000001,105.14678805000001,55.0,76.0
499,104.94575735000001,105.37874655,50.0,83.0
500,105.25503535,105.41611764166667,55.0,88.0
501,103.39936735,105.56173603333335,43.0,86.0
502,105.25503535,105.73699356666667,62.0,86.0
503,105.56431335,105.84781818333335,55.0,92.0
504,106.18286935,106.52307515000001,55.0,86.0
505,106.49214735000001,106.87359021666667,60.0,81.0
506,106.80142535,106.89034277500001,55.0,74.0
507,107.11070335000001,107.21637333333334,55.0,79.0
508,107.11070335000001,107.37745562500001,60.0,82.0
509,107.11070335000001,107.39163086666667,64.0,87.0
510,107.72925935,107.82333140833335,55.0,77.0
511,105.87359135000001,107.86714579166667,48.0,100.0
512,107.72925935,108.0308054,60.0,81.0
513,108.03853735000001,108.47281520833334,55.0,85.0
514,108.65709335000001,109.01276305,55.0,77.0
515,108.96637135,109.25889679166667,62.0,86.0
516,109.27564935000001,109.68802001666667,50.0,81.0
517,109.58492735,109.820751825,55.0,78.0
518,109.58492735,109.84137035833334,59.0,79.0
519,109.89420535000001,110.23827712500001,50.0,65.0
520,108.34781535,110.31301930833334,43.0,87.0
521,110.20348335000001,110.32203991666667,55.0,86.0
522,110.20348335000001,110.34008113333334,59.0,87.0
523,110.20348335000001,110.38260685833335,62.0,86.0
524,110.82203935000001,111.25373989166667,57.0,73.0
525,110.82203935000001,111.28080171666667,60.0,82.0
526,111.13131735,111.53337875000001,52.0,76.0
527,111.44059535000001,111.73956408333333,57.0,84.0
528,111.74987335,112.113275,52.0,78.0
529,112.05915135000001,112.24600680833333,60.0,78.0
530,112.05915135000001,112.32074899166668,57.0,77.0
531,112.36842935,112.62744967500001,52.0,70.0
532,110.82203935000001,112.71765575833334,45.0,87.0
533,112.67770735,112.9173978,60.0,81.0
534,112.67770735,112.92384109166667,64.0,89.0
535,112.98698535000001,113.11327386666667,57.0,87.0
536,113.29626335,113.91868532500001,53.0,84.0
537,113.29626335,113.96765434166667,57.0,81.0
538,113.91481935,114.07590164166668,60.0,86.0
539,114.22409735000001,114.58492168333333,53.0,86.0
540,114.53337535,114.93543675000001,65.0,86.0
541,114.84265335,115.18672512500001,53.0,86.0
542,113.60554135000001,115.2369828,48.0,73.0
543,113.29626335,115.35940534166667,41.0,86.0
544,115.15193135000001,115.50244641666667,57.0,72.0
545,115.46120935,115.67126065833334,53.0,87.0
546,116.07976535,116.41997115000001,55.0,86.0
547,116.38904335000001,116.77048621666667,60.0,81.0
548,116.69832135,116.787238775,55.0,74.0
549,117.00759935,117.11326933333333,55.0,79.0
550,117.00759935,117.27435162500001,60.0,82.0
551,117.00759935,117.28852686666667,64.0,87.0
552,117.62615535,117.72022740833334,55.0,77.0
553,115.77048735000001,117.76404179166667,48.0,100.0
554,117.62615535,117.9277014,60.0,81.0
555,117.93543335000001,118.36971120833334,55.0,85.0
556,118.55398935000001,118.90965905,55.0,77.0
557,118.86326735,119.15579279166667,62.0,86.0
558,119.17254535000001,119.58491601666667,50.0,81.0
559,119.48182335000001,119.717647825,55.0,78.0
560,119.48182335000001,119.73826635833333,59.0,79.0
561,119.79110135,120.13517312500001,50.0,65.0
562,118.24471135,120.20991530833334,43.0,87.0
563,120.10037935000001,120.21893591666668,55.0,86.0
564,120.10037935000001,120.23697713333334,59.0,87.0
565,120.10037935000001,120.27950285833334,62.0,86.0
566,120.71893535000001,121.15063589166667,57.0,73.0
567,120.71893535000001,121.17769771666667,60.0,82.0
568,121.02821335,121.43027475000001,52.0,76.0
569,121.33749135000001,121.63646008333335,57.0,84.0
570,121.64676935000001,122.01017100000001,52.0,78.0
571,121.95604735,122.14290280833335,60.0,78.0
572,121.95604735,122.21764499166667,57.0,77.0
573,122.26532535000001,122.524345675,52.0,70.0
574,120.71893535000001,122.61455175833333,45.0,87.0
575,122.57460335,122.8142938,60.0,81.0
576,122.57460335,122.82073709166667,64.0,89.0
577,122.88388135000001,123.01016986666667,57.0,87.0
578,123.19315935,123.81558132500001,53.0,84.0
579,123.19315935,123.86455034166667,57.0,81.0
580,123.81171535000001,123.97279764166667,60.0,86.0
581,124.12099335,124.48181768333335,53.0,86.0
582,124.43027135000001,124.83233275,65.0,86.0
583,124.73954935,125.08362112500001,53.0,86.0
584,123.50243735000001,125.1338788,48.0,73.0
585,123.19315935,125.25630134166667,41.0,86.0
586,125.04882735000001,125.39934241666667,57.0,72.0
587,125.35810535,125.56815665833334,53.0,87.0
588,125.97666135,126.31686715000001,55.0,86.0
589,126.28593935,126.66738221666668,60.0,81.0
590,126.59521735000001,126.684134775,55.0,74.0
591,126.90449535,127.01016533333335,55.0,79.0
592,126.90449535,127.171247625,60.0,82.0
593,126.90449535,127.18542286666667,64.0,87.0
594,127.52305135,127.61712340833334,55.0,77.0
595,125.66738335000001,127.66093779166667,48.0,100.0
596,127.52305135,127.8245974,60.0,81.0
597,127.83232935000001,128.26660720833334,55.0,85.0
598,128.45088535000002,128.80655505000001,55.0,77.0
599,128.76016335,129.05268879166667,62.0,86.0
600,129.06944135,129.48181201666668,50.0,81.0
601,129.37871935,129.614543825,55.0,78.0
602,129.37871935,129.63516235833333,59.0,79.0
603,129.68799735000002,130.03206912500002,50.0,65.0
604,128.14160735000002,130.10681130833333,43.0,87.0
605,129.99727535,130.11583191666668,55.0,86.0
606,129.99727535,130.13387313333334,59.0,87.0
607,129.99727535,130.17639885833333,62.0,86.0
608,130.61583135,131.04753189166667,57.0,73.0
609,130.61583135,131.07459371666667,60.0,82.0
610,130.92510935,131.32717075000002,52.0,76.0
611,131.23438735000002,131.53335608333333,57.0,84.0
612,131.54366535,131.907067,52.0,78.0
613,131.85294335,132.03979880833333,60.0,78.0
614,131.85294335,132.11454099166667,57.0,77.0
615,132.16222135,132.421241675,52.0,70.0
616,130.61583135,132.51144775833333,45.0,87.0
617,132.47149935000002,132.7111898,60.0,81.0
618,132.47149935000002,132.71763309166667,64.0,89.0
619,132.78077735,132.90706586666667,57.0,87.0
620,133.09005535,133.712477325,53.0,84.0
621,133.09005535,133.76144634166667,57.0,81.0
622,133.70861135,133.8696936416667,60.0,86.0
623,134.01788935000002,134.37871368333333,53.0,86.0
624,134.32716735,134.72922875,65.0,86.0
625,134.63644535,134.980517125,53.0,86.0
626,133.39933335,135.03077480000002,48.0,73.0
627,133.09005535,135.15319734166667,41.0,86.0
628,134.94572335,135.29623841666668,57.0,72.0
629,135.25500135000001,135.46505265833335,53.0,87.0
630,135.56427935000002,136.00371184166667,60.0,82.0
631,135.56427935000002,136.04623756666666,57.0,76.0
632,136.18283535,136.54108236666667,64.0,87.0
633,135.87355735,136.57845345833334,52.0,81.0
634,136.18283535,136.59520601666668,60.0,84.0
635,135.56427935000002,136.70860795000002,45.0,86.0
636,136.49211335,136.85422634166667,57.0,86.0
637,136.80139135000002,137.20731872500002,62.0,87.0
638,137.11066935,137.43798856666666,57.0,86.0
639,136.80139135000002,137.4431432,50.0,90.0
640,137.41994735,137.53077196666666,62.0,85.0
641,137.41994735,137.60680280833333,65.0,83.0
642,138.03850335,138.44829670000001,59.0,81.0
643,138.03850335,138.49339974166668,55.0,81.0
644,138.65705935,138.91865699166667,59.0,82.0
645,138.65705935,138.95087345000002,62.0,81.0
646,138.34778135000002,139.00757441666667,50.0,78.0
647,138.96633735,139.132574275,55.0,87.0
648,138.03850335,139.21504840833333,43.0,86.0
649,139.27561535,139.39546057500002,55.0,85.0
650,139.27561535,139.63128505,60.0,83.0
651,139.58489335000002,139.766594175,55.0,87.0
652,139.27561535,139.89546000833334,48.0,87.0
653,139.89417135000002,140.075872175,55.0,86.0
654,139.89417135000002,140.20860398333335,59.0,85.0
655,139.89417135000002,140.30267604166667,43.0,79.0
656,140.51272735,140.92509801666668,60.0,87.0
657,140.51272735,141.00112885833335,57.0,85.0
658,141.13128335000002,141.35293258333334,60.0,87.0
659,141.13128335000002,141.4856643916667,64.0,87.0
660,140.82200535,141.614530225,52.0,77.0
661,140.51272735,141.63901473333334,45.0,83.0
662,141.44056135,141.7717465416667,57.0,86.0
663,141.74983935,142.16607599166667,65.0,87.0
664,142.05911735,142.27174597500002,57.0,88.0
665,141.74983935,142.41349839166668,50.0,86.0
666,142.36839535000001,142.48824057500002,57.0,82.0
667,142.36839535000001,142.62097238333334,62.0,87.0
668,142.67767335000002,142.83360100833335,57.0,80.0
669,142.98695135,143.385146775,59.0,77.0
670,142.98695135,143.49210541666667,55.0,78.0
671,143.60550735,143.75628037500002,59.0,83.0
672,143.60550735,143.7678783,62.0,86.0
673,143.29622935,143.91993998333334,50.0,78.0
674,142.98695135,144.01787801666669,43.0,82.0
675,143.91478535000002,144.081022275,55.0,87.0
676,144.22406335,144.645454625,60.0,87.0
677,144.53334135,144.72792875833335,55.0,88.0
678,144.22406335,144.87096983333333,48.0,86.0
679,144.84261935,145.001124325,55.0,88.0
680,144.84261935,145.20988697500002,59.0,86.0
681,145.15189735,145.2988044,55.0,86.0
682,145.46117535000002,145.83746358333335,60.0,86.0
683,145.46117535000002,145.84906150833334,57.0,80.0
684,146.07973135,146.15318487500002,57.0,78.0
685,146.07973135,146.40705056666667,64.0,87.0
686,146.07973135,146.42509178333333,60.0,87.0
687,145.77045335,146.49983396666667,52.0,79.0
688,145.46117535000002,146.53462774166667,45.0,86.0
689,146.38900935,146.67766881666668,57.0,82.0
690,146.69828735000002,147.119678625,65.0,88.0
691,147.00756535000002,147.20988470833333,57.0,87.0
692,146.69828735000002,147.32199798333335,50.0,86.0
693,147.31684335,147.57715233333334,62.0,87.0
694,147.62612135,147.745966575,57.0,81.0
695,147.93539935,148.27689380833334,59.0,79.0
696,147.93539935,148.33746075000002,55.0,81.0
697,148.55395535,148.61581095,55.0,76.0
698,148.24467735000002,148.87611993333334,50.0,75.0
699,147.93539935,148.88127456666666,43.0,84.0
700,148.55395535,148.92637760833335,59.0,86.0
701,148.86323335,149.01916100833336,55.0,82.0
702,148.55395535,149.07715063333333,62.0,83.0
703,149.17251135,149.54493360833334,60.0,86.0
704,149.17251135,149.58745933333333,57.0,81.0
705,149.79106735000002,149.90060330833333,57.0,82.0
706,149.48178935,150.01658255833334,52.0,80.0
707,149.17251135,150.0217371916667,45.0,86.0
708,149.79106735000002,150.06039694166668,60.0,86.0
709,149.79106735000002,150.096479375,64.0,87.0
710,150.10034535,150.23823179166666,57.0,79.0
711,150.40962335,150.79106621666668,58.0,75.0
712,150.40962335,150.9070454666667,62.0,82.0
713,150.71890135,151.19699359166668,53.0,75.0
714,151.02817935000002,151.50240561666666,58.0,90.0
715,151.33745735000002,151.72276619166666,53.0,78.0
716,150.40962335,151.7936424,46.0,88.0
717,151.64673535,151.99209578333335,65.0,83.0
718,151.64673535,152.029466875,62.0,83.0
719,151.64673535,152.03204419166667,58.0,85.0
720,151.95601335,152.38127060000002,53.0,76.0
721,152.26529135,152.4225076666667,58.0,84.0
722,152.57456935000002,152.6905486,58.0,79.0
723,152.26529135,152.7524042,62.0,86.0
724,152.88384735,152.9998266,59.0,88.0
725,152.88384735,153.01271318333335,55.0,87.0
726,152.88384735,153.042352325,43.0,86.0
727,153.19312535,153.33616642500002,43.0,86.0
728,153.19312535,153.35291898333335,55.0,87.0
729,153.19312535,153.36709422500002,59.0,87.0
730,153.81168135000001,153.96116571666667,59.0,79.0
731,153.81168135000001,153.97018632500001,55.0,80.0
732,153.81168135000001,153.97662961666668,43.0,84.0
733,153.81168135000001,153.98436156666668,62.0,81.0
734,154.12095935000002,154.51786611666668,67.0,87.0
735,154.12095935000002,154.519154775,59.0,91.0
736,154.12095935000002,154.53719599166666,62.0,87.0
737,154.12095935000002,154.60936085833333,55.0,87.0
738,154.43023735,154.83358740833333,50.0,87.0
739,154.12095935000002,154.87869045000002,43.0,88.0
740,154.73951535,154.93925739166667,55.0,86.0
741,154.73951535,155.23178283333334,59.0,87.0
742,154.73951535,155.31425696666668,62.0,87.0
743,155.04879335,155.315545625,50.0,87.0
744,155.35807135000002,155.70729775833334,60.0,82.0
745,155.35807135000002,155.73435958333334,64.0,88.0
746,155.66734935,155.918637725,55.0,81.0
747,155.97662735,156.2163178,60.0,81.0
748,155.35807135000002,156.43281240000002,48.0,92.0
749,156.28590535,156.44183300833333,55.0,88.0
750,156.59518335,156.78203880833334,60.0,89.0
751,156.59518335,156.977914875,64.0,90.0
752,156.90446135000002,157.02946120833334,55.0,84.0
753,157.21373935,157.32069799166666,48.0,95.0
754,157.21373935,157.32327530833334,55.0,86.0
755,157.21373935,157.426367975,60.0,87.0
756,157.52301735,157.67894500833333,55.0,86.0
757,157.83229535,158.01013020000002,55.0,86.0
758,157.83229535,158.19956297500002,59.0,86.0
759,158.14157335000002,158.2575526,55.0,86.0
760,158.45085135000002,158.5977584,55.0,86.0
761,158.45085135000002,158.68280985,62.0,81.0
762,158.76012935,158.91605700833335,55.0,80.0
763,159.06940735,159.31038645833334,67.0,88.0
764,159.37868535,159.51914910833335,55.0,88.0
765,157.83229535,159.67378810833335,43.0,82.0
766,159.68796335000002,159.8039426,55.0,89.0
767,159.68796335000002,159.90188063333335,59.0,92.0
768,159.99724135,160.14157108333333,55.0,87.0
769,160.30651935,160.65187978333336,57.0,85.0
770,160.30651935,160.65703441666668,60.0,85.0
771,160.92507535000001,161.037188625,57.0,82.0
772,160.92507535000001,161.03976594166667,64.0,88.0
773,160.61579735,161.04492057500002,52.0,73.0
774,160.30651935,161.51914684166667,45.0,86.0
775,161.23435335000002,161.55651793333334,52.0,78.0
776,161.54363135,161.73564144166667,57.0,82.0
777,161.54363135,161.779455825,60.0,86.0
778,161.85290935,161.96373396666667,57.0,74.0
779,162.16218735,162.26012538333333,57.0,87.0
780,162.16218735,162.28074391666667,52.0,88.0
781,162.16218735,162.35677475833333,60.0,95.0
782,162.16218735,162.43796023333334,64.0,91.0
783,162.47146535000002,162.575846675,57.0,87.0
784,162.78074335000002,163.21630986666668,55.0,85.0
785,162.78074335000002,163.25883559166667,52.0,88.0
786,163.39929935,163.53331981666668,52.0,87.0
787,163.39929935,163.75625770833335,55.0,85.0
788,163.70857735,163.84775245,52.0,84.0
789,163.09002135,164.16605105833335,47.0,73.0
790,164.01785535000002,164.36321578333335,59.0,86.0
791,164.01785535000002,164.37481370833333,55.0,87.0
792,162.78074335000002,164.74465865000002,40.0,89.0
793,164.32713335,164.7820297416667,47.0,81.0
794,164.63641135,164.95084398333336,55.0,90.0
795,164.63641135,165.00110165833334,59.0,88.0
796,164.94568935,165.09259640000002,40.0,93.0
797,165.25496735000002,165.53202889166667,53.0,83.0
798,165.25496735000002,165.6054824166667,57.0,82.0
799,165.56424535000002,166.01012113333334,48.0,75.0
800,165.87352335,166.024296375,53.0,87.0
801,165.87352335,166.082286,60.0,88.0
802,166.49207935,166.913470625,65.0,90.0
803,166.18280135,166.96501695833334,48.0,85.0
804,166.80135735000002,166.99079012500002,53.0,88.0
805,165.25496735000002,167.060377675,41.0,89.0
806,167.11063535000002,167.19439814166668,53.0,88.0
807,167.11063535000002,167.21630533333334,48.0,85.0
808,167.11063535000002,167.27816093333334,41.0,86.0
809,167.11063535000002,167.29749080833335,57.0,93.0
810,167.11063535000002,167.385119575,60.0,91.0
811,167.41991335,167.539758575,53.0,92.0
812,167.72919135,168.12223214166667,55.0,81.0
813,167.72919135,168.12867543333334,52.0,82.0
814,168.34774735000002,168.48949976666668,52.0,88.0
815,168.03846935,168.5474893916667,47.0,77.0
816,168.34774735000002,168.6492934,64.0,90.0
817,168.65702535,168.75238606666667,52.0,82.0
818,168.65702535,169.06166406666668,47.0,86.0
819,168.96630335,169.16991136666667,52.0,87.0
820,168.96630335,169.23692160000002,59.0,87.0
821,167.72919135,169.596457275,40.0,89.0
822,169.27558135,169.64413763333334,47.0,87.0
823,169.58485935000002,169.727900425,55.0,93.0
824,169.58485935000002,169.73047774166668,52.0,93.0
825,169.89413735000002,170.02558050000002,40.0,89.0
826,170.20341535,170.4108893416667,57.0,81.0
827,170.20341535,170.56552834166666,62.0,86.0
828,170.51269335,170.6351158916667,57.0,87.0
829,170.82197135,170.93795060000002,57.0,91.0
830,170.20341535,171.1080535,38.0,88.0
831,170.82197135,171.20212555833334,65.0,88.0
832,171.13124935000002,171.2652698166667,57.0,95.0
833,171.44052735,171.57325915833334,57.0,86.0
834,171.44052735,171.83099082500001,62.0,87.0
835,171.74980535,171.8967124,57.0,85.0
836,171.44052735,172.01784628333334,50.0,92.0
837,172.05908335,172.19696979166667,57.0,81.0
838,172.05908335,172.39284585833335,65.0,88.0
839,172.05908335,172.410887075,62.0,87.0
840,172.36836135000001,172.48305194166667,57.0,88.0
841,172.67763935000002,173.006247225,59.0,88.0
842,172.67763935000002,173.02428844166667,55.0,87.0
843,173.29619535,173.39542204166668,55.0,91.0
844,173.29619535,173.53073116666667,62.0,88.0
845,173.60547335,173.7626896666667,55.0,85.0
846,173.91475135000002,174.03459657500002,55.0,92.0
847,172.98691735,174.06681303333335,50.0,82.0
848,173.91475135000002,174.15701911666667,67.0,87.0
849,174.22402935000002,174.42506005,55.0,76.0
850,174.22402935000002,174.65701855,50.0,83.0
851,174.53330735,174.69438964166667,55.0,88.0
852,172.67763935000002,174.84000803333333,43.0,86.0
853,174.53330735,175.01526556666667,62.0,86.0
854,174.84258535,175.12609018333333,55.0,92.0
855,175.15186335,175.50108975833334,60.0,82.0
856,175.15186335,175.52815158333334,64.0,88.0
857,175.46114135000002,175.71242972500002,55.0,81.0
858,175.77041935,176.0101098,60.0,81.0
859,175.15186335,176.2266044,48.0,92.0
860,176.07969735,176.23562500833336,55.0,88.0
861,176.38897535,176.57583080833334,60.0,89.0
862,176.38897535,176.771706875,64.0,90.0
863,176.69825335000002,176.82325320833334,55.0,84.0
864,177.00753135000002,177.1144899916667,48.0,95.0
865,177.00753135000002,177.11706730833333,55.0,86.0
866,177.00753135000002,177.220159975,60.0,87.0
867,177.31680935,177.47273700833335,55.0,86.0
868,177.62608735,177.80392220000002,55.0,86.0
869,177.62608735,177.99335497500002,59.0,86.0
870,177.93536535,178.05134460000002,55.0,86.0
871,178.24464335000002,178.3915504,55.0,86.0
872,178.24464335000002,178.47660185,62.0,81.0
873,178.55392135000002,178.70984900833335,55.0,80.0
874,178.86319935,179.10417845833334,67.0,88.0
875,179.17247735,179.31294110833335,55.0,88.0
876,177.62608735,179.46758010833335,43.0,82.0
877,179.48175535000001,179.59773460000002,55.0,89.0
878,179.48175535000001,179.69567263333334,59.0,92.0
879,179.79103335000002,179.93536308333336,55.0,87.0
880,180.10031135,180.44567178333335,57.0,85.0
881,180.10031135,180.45082641666667,60.0,85.0
882,180.71886735,180.83098062500002,57.0,82.0
883,180.71886735,180.83355794166667,64.0,88.0
884,180.40958935,180.83871257500002,52.0,73.0
885,180.10031135,181.31293884166666,45.0,86.0
886,181.02814535000002,181.35030993333334,52.0,78.0
887,181.33742335000002,181.52943344166667,57.0,82.0
888,181.33742335000002,181.573247825,60.0,86.0
889,181.64670135,181.7575259666667,57.0,74.0
890,181.95597935,182.05391738333336,57.0,87.0
891,181.95597935,182.0745359166667,52.0,88.0
892,181.95597935,182.15056675833335,60.0,95.0
893,181.95597935,182.23175223333334,64.0,91.0
894,182.26525735,182.369638675,57.0,87.0
895,182.57453535000002,183.01010186666667,55.0,85.0
896,182.57453535000002,183.05262759166666,52.0,88.0
897,183.19309135,183.32711181666667,52.0,87.0
898,183.19309135,183.55004970833335,55.0,85.0
899,183.50236935,183.64154445,52.0,84.0
900,182.88381335,183.95984305833335,47.0,73.0
901,183.81164735000002,184.15700778333334,59.0,86.0
902,183.81164735000002,184.16860570833333,55.0,87.0
903,182.57453535000002,184.53845065000002,40.0,89.0
904,184.12092535000002,184.5758217416667,47.0,81.0
905,184.43020335,184.74463598333335,55.0,90.0
906,184.43020335,184.79489365833334,59.0,88.0
907,184.73948135,184.88638840000002,40.0,93.0
908,185.04875935,185.32582089166667,53.0,83.0
909,185.04875935,185.39927441666669,57.0,82.0
910,185.35803735000002,185.80391313333334,48.0,75.0
911,185.66731535000002,185.818088375,53.0,87.0
912,185.66731535000002,185.876078,60.0,88.0
913,186.28587135,186.707262625,65.0,90.0
914,185.97659335,186.75880895833333,48.0,85.0
915,186.59514935,186.78458212500001,53.0,88.0
916,185.04875935,186.854169675,41.0,89.0
917,186.90442735000002,186.98819014166668,53.0,88.0
918,186.90442735000002,187.01009733333333,48.0,85.0
919,186.90442735000002,187.07195293333334,41.0,86.0
920,186.90442735000002,187.09128280833335,57.0,93.0
921,186.90442735000002,187.178911575,60.0,91.0
922,187.21370535,187.333550575,53.0,92.0
923,187.52298335,187.91602414166667,55.0,81.0
924,187.52298335,187.92246743333334,52.0,82.0
925,188.14153935000002,188.28329176666668,52.0,88.0
926,187.83226135,188.34128139166668,47.0,77.0
927,188.14153935000002,188.4430854,64.0,90.0
928,188.45081735000002,188.54617806666667,52.0,82.0
929,188.45081735000002,188.85545606666668,47.0,86.0
930,188.76009535,188.96370336666666,52.0,87.0
931,188.76009535,189.0307136,59.0,87.0
932,187.52298335,189.390249275,40.0,89.0
933,189.06937335,189.43792963333334,47.0,87.0
934,189.37865135,189.521692425,55.0,93.0
935,189.37865135,189.52426974166667,52.0,93.0
936,189.68792935000002,189.81937250000001,40.0,89.0
937,189.99720735000002,190.20468134166669,57.0,81.0
938,189.99720735000002,190.3593203416667,62.0,86.0
939,190.30648535,190.42890789166668,57.0,87.0
940,190.61576335,190.73174260000002,57.0,91.0
941,189.99720735000002,190.9018455,38.0,88.0
942,190.61576335,190.99591755833333,65.0,88.0
943,190.92504135000001,191.05906181666668,57.0,95.0
944,191.23431935000002,191.36705115833334,57.0,86.0
945,191.23431935000002,191.624782825,62.0,87.0
946,191.54359735,191.6905044,57.0,85.0
947,191.23431935000002,191.81163828333334,50.0,92.0
948,191.85287535,191.99076179166667,57.0,81.0
949,191.85287535,192.18663785833334,65.0,88.0
950,191.85287535,192.204679075,62.0,87.0
951,192.16215335,192.27684394166667,57.0,88.0
952,192.47143135000002,192.800039225,59.0,88.0
953,192.47143135000002,192.81808044166667,55.0,87.0
954,193.08998735,193.18921404166667,55.0,91.0
955,193.08998735,193.32452316666667,62.0,88.0
956,193.39926535,193.55648166666668,55.0,85.0
957,193.70854335,193.82838857500002,55.0,92.0
958,192.78070935000002,193.86060503333334,50.0,82.0
959,193.70854335,193.95081111666667,67.0,87.0
960,194.01782135000002,194.21885205,55.0,76.0
961,194.01782135000002,194.45081055,50.0,83.0
962,194.32709935,194.48818164166667,55.0,88.0
963,192.47143135000002,194.63380003333336,43.0,86.0
964,194.32709935,194.80905756666667,62.0,86.0
965,194.63637735,194.91988218333336,55.0,92.0
966,195.25493335000002,195.59513915000002,55.0,86.0
967,195.56421135000002,195.94565421666667,60.0,81.0
968,195.87348935,195.962406775,55.0,74.0
969,196.18276735,196.28843733333335,55.0,79.0
970,196.18276735,196.44951962500002,60.0,82.0
971,196.18276735,196.46369486666669,64.0,87.0
972,196.80132335000002,196.89539540833334,55.0,77.0
973,194.94565535,196.93920979166668,48.0,100.0
974,196.80132335000002,197.1028694,60.0,81.0
975,197.11060135000002,197.54487920833336,55.0,85.0
976,197.72915735,198.08482705,55.0,77.0
977,198.03843535000001,198.33096079166668,62.0,86.0
978,198.34771335000002,198.76008401666667,50.0,81.0
979,198.65699135,198.892815825,55.0,78.0
980,198.65699135,198.91343435833335,59.0,79.0
981,198.96626935,199.310341125,50.0,65.0
982,197.41987935,199.38508330833335,43.0,87.0
983,199.27554735,199.39410391666667,55.0,86.0
984,199.27554735,199.41214513333335,59.0,87.0
985,199.27554735,199.45467085833334,62.0,86.0
986,199.89410335000002,200.32580389166668,57.0,73.0
987,199.89410335000002,200.35286571666668,60.0,82.0
988,200.20338135,200.60544275,52.0,76.0
989,200.51265935,200.81162808333335,57.0,84.0
990,200.82193735,201.185339,52.0,78.0
991,201.13121535000002,201.31807080833335,60.0,78.0
992,201.13121535000002,201.3928129916667,57.0,77.0
993,201.44049335000003,201.69951367500002,52.0,70.0
994,199.89410335000002,201.78971975833335,45.0,87.0
995,201.74977135,201.98946180000002,60.0,81.0
996,201.74977135,201.99590509166669,64.0,89.0
997,202.05904935,202.18533786666669,57.0,87.0
998,202.36832735000002,202.99074932500002,53.0,84.0
999,202.36832735000002,203.03971834166668,57.0,81.0
1000,202.98688335,203.14796564166667,60.0,86.0
1001,203.29616135,203.65698568333335,53.0,86.0
1002,203.60543935,204.00750075000002,65.0,86.0
1003,203.91471735000002,204.25878912500002,53.0,86.0
1004,202.67760535000002,204.3090468,48.0,73.0
1005,202.36832735000002,204.43146934166668,41.0,86.0
1006,204.22399535000002,204.57451041666667,57.0,72.0
1007,204.53327335,204.74332465833334,53.0,87.0
1008,205.15182935,205.49203515000002,55.0,86.0
1009,205.46110735000002,205.84255021666667,60.0,81.0
1010,205.77038535,205.859302775,55.0,74.0
1011,206.07966335,206.18533333333335,55.0,79.0
1012,206.07966335,206.34641562500002,60.0,82.0
1013,206.07966335,206.36059086666668,64.0,87.0
1014,206.69821935000002,206.79229140833334,55.0,77.0
1015,204.84255135,206.83610579166668,48.0,100.0
1016,206.69821935000002,206.9997654,60.0,81.0
1017,207.00749735000002,207.44177520833335,55.0,85.0
1018,207.62605335,207.98172305,55.0,77.0
1019,207.93533135,208.22785679166668,62.0,86.0
1020,208.24460935000002,208.65698001666667,50.0,81.0
1021,208.55388735000002,208.789711825,55.0,78.0
1022,208.55388735000002,208.81033035833335,59.0,79.0
1023,208.86316535,209.207237125,50.0,65.0
1024,207.31677535,209.28197930833335,43.0,87.0
1025,209.17244335,209.2909999166667,55.0,86.0
1026,209.17244335,209.30904113333335,59.0,87.0
1027,209.17244335,209.35156685833334,62.0,86.0
1028,209.79099935000002,210.22269989166668,57.0,73.0
1029,209.79099935000002,210.24976171666668,60.0,82.0
1030,210.10027735,210.50233875,52.0,76.0
1031,210.40955535,210.70852408333334,57.0,84.0
1032,210.71883335,211.08223500000003,52.0,78.0
1033,211.02811135000002,211.21496680833334,60.0,78.0
1034,211.02811135000002,211.28970899166669,57.0,77.0
1035,211.33738935000002,211.59640967500002,52.0,70.0
1036,209.79099935000002,211.68661575833335,45.0,87.0
1037,211.64666735,211.8863578,60.0,81.0
1038,211.64666735,211.89280109166668,64.0,89.0
1039,211.95594535,212.08223386666668,57.0,87.0
1040,212.26522335,212.88764532500002,53.0,84.0
1041,212.26522335,212.93661434166668,57.0,81.0
1042,212.88377935000003,213.04486164166667,60.0,86.0
1043,213.19305735,213.55388168333334,53.0,86.0
1044,213.50233535,213.90439675000002,65.0,86.0
1045,213.81161335000002,214.15568512500002,53.0,86.0
1046,212.57450135000002,214.2059428,48.0,73.0
1047,212.26522335,214.32836534166668,41.0,86.0
1048,214.12089135000002,214.47140641666667,57.0,72.0
1049,214.43016935,214.64022065833333,53.0,87.0
1050,214.54872591666668,215.49460113333333,55.0,79.0
1051,214.63248870833334,215.72655963333335,60.0,79.0
1052,214.704653575,215.72655963333335,64.0,87.0
1053,215.65439476666668,215.80774510833334,55.0,71.0
1054,216.21109516666667,216.3734661166667,55.0,73.0
1055,215.93532228333333,216.38377538333336,64.0,86.0
1056,214.67888040833336,216.52037316666667,48.0,80.0
1057,216.55130096666667,216.65697095000002,60.0,77.0
1058,217.11186734166668,217.6067121416667,59.0,81.0
1059,217.05387771666668,217.70593883333333,55.0,74.0
1060,217.19176415833334,217.72140273333335,62.0,76.0
1061,218.408257625,218.49073175833334,59.0,51.0
1062,218.42114420833335,218.6505253916667,67.0,89.0
1063,218.69176245833336,218.83866950833334,55.0,82.0
1064,217.14923843333335,219.15181348333334,43.0,86.0
1065,219.02552496666667,219.18274128333334,55.0,86.0
1066,219.03196825833334,219.1878959166667,59.0,85.0
1067,219.02165899166667,219.19305055,62.0,83.0
1068,219.61830780000003,220.32062659166667,60.0,76.0
1069,219.67114279166668,220.32706988333334,64.0,81.0
1070,219.54227695833336,220.36959560833336,57.0,71.0
1071,220.66083239166667,221.10541951666667,52.0,74.0
1072,220.9275846666667,221.34768728333336,60.0,82.0
1073,221.222687425,221.54614066666667,52.0,78.0
1074,221.53454274166668,221.61315090000002,57.0,77.0
1075,219.64408096666668,221.624748825,45.0,86.0
1076,221.531965425,221.6904704,60.0,92.0
1077,221.531965425,221.72784149166668,64.0,88.0
1078,221.80129501666667,221.88505780833336,57.0,78.0
1079,222.0989750916667,222.583510625,53.0,72.0
1080,222.11057301666668,222.7291290166667,57.0,68.0
1081,223.03840701666667,223.1737161416667,57.0,74.0
1082,222.74974755000002,223.21495320833336,60.0,75.0
1083,223.24588100833336,223.35155099166667,53.0,74.0
1084,223.30773660833336,223.3940767166667,57.0,75.0
1085,223.372169525,223.44562305000002,60.0,71.0
1086,223.38892208333334,223.62990119166668,65.0,86.0
1087,223.98685955000002,224.129900625,53.0,88.0
1088,222.43402625833335,224.14020989166667,48.0,64.0
1089,222.1260369166667,224.18789025,41.0,85.0
1090,223.9945915,224.40180753333334,57.0,88.0
1091,223.9933028416667,224.53711665833336,60.0,88.0
1092,224.29742620833335,224.53840531666668,53.0,87.0
1093,224.63634335,225.17500253333336,57.0,82.0
1094,224.63634335,225.27294056666668,53.0,85.0
1095,225.25489935000002,225.69948647500001,57.0,78.0
1096,225.25489935000002,225.7110844,60.0,88.0
1097,225.56417735000002,225.993300575,53.0,76.0
1098,224.94562135,226.0190737416667,48.0,77.0
1099,225.87345535,226.18144469166668,60.0,80.0
1100,225.87345535,226.21881578333335,57.0,75.0
1101,226.18273335,226.64278437500002,48.0,74.0
1102,226.49201135,226.65180498333334,57.0,89.0
1103,226.49201135,226.65180498333334,60.0,88.0
1104,226.49201135,226.66082559166668,53.0,87.0
1105,224.63634335,226.68788741666668,41.0,87.0
1106,227.11056735000003,227.5358246,55.0,83.0
1107,227.11056735000003,227.77422639166667,52.0,86.0
1108,227.72912335,227.95463855833336,55.0,84.0
1109,227.72912335,227.99072099166668,59.0,82.0
1110,228.03840135000002,228.11700950833335,52.0,85.0
1111,228.34767935000002,228.5126276166667,52.0,87.0
1112,228.34767935000002,228.73556550833334,64.0,90.0
1113,228.65695735000003,228.82448293333334,52.0,79.0
1114,227.41984535,229.0358229,47.0,79.0
1115,227.11056735000003,229.07190533333335,40.0,91.0
1116,228.96623535,229.10025581666667,52.0,87.0
1117,228.96623535,229.15309080833336,59.0,83.0
1118,229.58479135000002,229.76520351666667,57.0,79.0
1119,229.58479135000002,230.0899454166667,62.0,83.0
1120,229.89406935000002,230.27680087500002,57.0,86.0
1121,230.20334735,230.29484209166668,62.0,87.0
1122,230.20334735,230.33736781666667,65.0,86.0
1123,230.51262535,230.70721275833336,57.0,86.0
1124,230.82190335,230.9443258916667,57.0,81.0
1125,230.82190335,231.03324331666667,62.0,83.0
1126,231.13118135000002,231.24071730833336,57.0,76.0
1127,229.58479135000002,231.5126242166667,50.0,87.0
1128,231.44045935000003,231.54097470000002,57.0,88.0
1129,231.44045935000003,231.65566529166668,65.0,86.0
1130,231.74973735,231.83994343333336,57.0,81.0
1131,232.05901535,232.35669542500003,59.0,82.0
1132,232.05901535,232.49200455000002,55.0,81.0
1133,232.67757135000002,233.0010245916667,62.0,86.0
1134,232.67757135000002,233.05772555833335,55.0,91.0
1135,232.98684935,233.08092140833335,59.0,89.0
1136,232.36829335000002,233.37860148333334,50.0,90.0
1137,233.29612735,233.51519926666668,55.0,92.0
1138,233.29612735,233.55901365000003,67.0,89.0
1139,233.60540535,234.5164867916667,50.0,91.0
1140,234.22396135000002,234.5242187416667,55.0,82.0
1141,233.91468335000002,234.53452800833335,59.0,92.0
1142,232.05901535,234.53581666666668,43.0,88.0
1143,233.91468335000002,234.55385788333334,62.0,88.0
1144,234.53323935,234.88246575833335,60.0,82.0
1145,234.53323935,234.90952758333336,64.0,88.0
1146,234.84251735,235.093805725,55.0,81.0
1147,235.15179535000001,235.39148580000003,60.0,81.0
1148,234.53323935,235.6079804,48.0,92.0
1149,235.46107335000002,235.61700100833335,55.0,88.0
1150,235.77035135000003,235.95720680833335,60.0,89.0
1151,235.77035135000003,236.15308287500002,64.0,90.0
1152,236.07962935,236.20462920833336,55.0,84.0
1153,236.38890735,236.49586599166668,48.0,95.0
1154,236.38890735,236.49844330833335,55.0,86.0
1155,236.38890735,236.60153597500002,60.0,87.0
1156,236.69818535000002,236.85411300833334,55.0,86.0
1157,237.00746335000002,237.1852982,55.0,86.0
1158,237.00746335000002,237.374730975,59.0,86.0
1159,237.31674135,237.4327206,55.0,86.0
1160,237.62601935,237.77292640000002,55.0,86.0
1161,237.62601935,237.85797785000003,62.0,81.0
1162,237.93529735,238.09122500833334,55.0,80.0
1163,238.24457535000002,238.48555445833335,67.0,88.0
1164,238.55385335000003,238.69431710833334,55.0,88.0
1165,237.00746335000002,238.84895610833334,43.0,82.0
1166,238.86313135,238.9791106,55.0,89.0
1167,238.86313135,239.07704863333333,59.0,92.0
1168,239.17240935,239.31673908333335,55.0,87.0
1169,239.48168735000002,239.82704778333334,57.0,85.0
1170,239.48168735000002,239.8322024166667,60.0,85.0
1171,240.10024335000003,240.212356625,57.0,82.0
1172,240.10024335000003,240.2149339416667,64.0,88.0
1173,239.79096535000002,240.220088575,52.0,73.0
1174,239.48168735000002,240.69431484166668,45.0,86.0
1175,240.40952135,240.73168593333335,52.0,78.0
1176,240.71879935,240.9108094416667,57.0,82.0
1177,240.71879935,240.95462382500003,60.0,86.0
1178,241.02807735000002,241.13890196666668,57.0,74.0
1179,241.33735535000002,241.43529338333335,57.0,87.0
1180,241.33735535000002,241.45591191666668,52.0,88.0
1181,241.33735535000002,241.53194275833334,60.0,95.0
1182,241.33735535000002,241.61312823333336,64.0,91.0
1183,241.64663335,241.75101467500002,57.0,87.0
1184,241.95591135,242.3914778666667,55.0,85.0
1185,241.95591135,242.43400359166668,52.0,88.0
1186,242.57446735000002,242.7084878166667,52.0,87.0
1187,242.57446735000002,242.93142570833334,55.0,85.0
1188,242.88374535000003,243.02292045000002,52.0,84.0
1189,242.26518935,243.34121905833334,47.0,73.0
1190,243.19302335,243.53838378333336,59.0,86.0
1191,243.19302335,243.54998170833335,55.0,87.0
1192,241.95591135,243.91982665,40.0,89.0
1193,243.50230135,243.95719774166668,47.0,81.0
1194,243.81157935000002,244.12601198333334,55.0,90.0
1195,243.81157935000002,244.17626965833335,59.0,88.0
1196,244.12085735000002,244.2677644,40.0,93.0
1197,244.43013535,244.70719689166668,53.0,83.0
1198,244.43013535,244.78065041666667,57.0,82.0
1199,244.73941335,245.18528913333336,48.0,75.0
1200,245.04869135,245.19946437500002,53.0,87.0
1201,245.04869135,245.25745400000002,60.0,88.0
1202,245.66724735000003,246.08863862500002,65.0,90.0
1203,245.35796935000002,246.14018495833335,48.0,85.0
1204,245.97652535,246.165958125,53.0,88.0
1205,244.43013535,246.23554567500003,41.0,89.0
1206,246.28580335,246.3695661416667,53.0,88.0
1207,246.28580335,246.39147333333335,48.0,85.0
1208,246.28580335,246.45332893333335,41.0,86.0
1209,246.28580335,246.47265880833334,57.0,93.0
1210,246.28580335,246.56028757500002,60.0,91.0
1211,246.59508135000002,246.71492657500002,53.0,92.0
1212,246.90435935000002,247.29740014166669,55.0,81.0
1213,246.90435935000002,247.30384343333336,52.0,82.0
1214,247.52291535,247.66466776666667,52.0,88.0
1215,247.21363735000003,247.72265739166667,47.0,77.0
1216,247.52291535,247.82446140000002,64.0,90.0
1217,247.83219335,247.9275540666667,52.0,82.0
1218,247.83219335,248.2368320666667,47.0,86.0
1219,248.14147135000002,248.34507936666668,52.0,87.0
1220,248.14147135000002,248.4120896,59.0,87.0
1221,246.90435935000002,248.77162527500002,40.0,89.0
1222,248.45074935000002,248.81930563333336,47.0,87.0
1223,248.76002735,248.90306842500001,55.0,93.0
1224,248.76002735,248.9056457416667,52.0,93.0
1225,249.06930535,249.2007485,40.0,89.0
1226,249.37858335,249.58605734166667,57.0,81.0
1227,249.37858335,249.74069634166668,62.0,86.0
1228,249.68786135000002,249.81028389166667,57.0,87.0
1229,249.99713935000003,250.1131186,57.0,91.0
1230,249.37858335,250.28322150000002,38.0,88.0
1231,249.99713935000003,250.37729355833335,65.0,88.0
1232,250.30641735,250.44043781666667,57.0,95.0
1233,250.61569535,250.74842715833336,57.0,86.0
1234,250.61569535,251.00615882500003,62.0,87.0
1235,250.92497335000002,251.07188040000003,57.0,85.0
1236,250.61569535,251.19301428333335,50.0,92.0
1237,251.23425135000002,251.3721377916667,57.0,81.0
1238,251.23425135000002,251.56801385833336,65.0,88.0
1239,251.23425135000002,251.58605507500002,62.0,87.0
1240,251.54352935000003,251.6582199416667,57.0,88.0
1241,251.85280735,252.18141522500002,59.0,88.0
1242,251.85280735,252.19945644166668,55.0,87.0
1243,252.47136335000002,252.5705900416667,55.0,91.0
1244,252.47136335000002,252.70589916666668,62.0,88.0
1245,252.78064135000002,252.93785766666667,55.0,85.0
1246,253.08991935,253.209764575,55.0,92.0
1247,252.16208535,253.24198103333336,50.0,82.0
1248,253.08991935,253.3321871166667,67.0,87.0
1249,253.39919735,253.60022805000003,55.0,76.0
1250,253.39919735,253.83218655000002,50.0,83.0
1251,253.70847535000001,253.8695576416667,55.0,88.0
1252,251.85280735,254.01517603333335,43.0,86.0
1253,253.70847535000001,254.19043356666668,62.0,86.0
1254,254.01775335000002,254.30125818333335,55.0,92.0
1255,254.32703135000003,254.66981446666668,60.0,81.0
1256,254.32703135000003,254.93398942500002,64.0,86.0
1257,254.32703135000003,255.14017475833336,48.0,88.0
1258,254.94558735,255.14017475833336,60.0,89.0
1259,254.63630935,255.1955870666667,55.0,77.0
1260,255.25486535000002,255.94558621666667,62.0,85.0
1261,255.25486535000002,256.06800875833335,65.0,87.0
1262,255.87342135,256.20331788333334,57.0,68.0
1263,255.25486535000002,256.20718385833334,50.0,87.0
1264,256.18269935,256.3296064,62.0,86.0
1265,256.80125535,257.20073943333335,64.0,85.0
1266,256.80125535,257.33218258333335,67.0,79.0
1267,257.41981135000003,257.56542974166666,64.0,87.0
1268,257.11053335,257.628574,47.0,74.0
1269,256.80125535,257.63759460833336,40.0,87.0
1270,257.72908935000004,258.3759958333333,65.0,84.0
1271,258.34764535,258.6968717583334,48.0,77.0
1272,257.72908935000004,258.71620163333336,41.0,86.0
1273,258.65692335,258.93913952500003,64.0,88.0
1274,258.96620135,259.209757775,62.0,83.0
1275,259.27547935,259.65949953333336,64.0,83.0
1276,259.89403535,260.0229011833334,60.0,86.0
1277,259.27547935,260.0628495916667,48.0,87.0
1278,259.58475735,260.102798,55.0,73.0
1279,260.20331335000003,260.8424878833334,62.0,81.0
1280,260.20331335000003,260.97521969166667,65.0,86.0
1281,261.13114735,261.4971263166667,62.0,88.0
1282,260.20331335000003,261.52934277500003,50.0,88.0
1283,260.82186935000004,261.64145605,57.0,79.0
1284,261.44042535,261.64918800000004,65.0,80.0
1285,262.05898135,262.27676460833334,59.0,72.0
1286,261.74970335,262.29738314166667,52.0,88.0
1287,261.74970335,262.37856861666666,67.0,81.0
1288,262.36825935,262.60150650833333,64.0,84.0
1289,262.67753735,263.40176333333335,65.0,85.0
1290,263.29609335000004,263.470062225,60.0,68.0
1291,262.67753735,263.771608275,41.0,77.0
1292,263.60537135000004,263.817999975,64.0,89.0
1293,263.91464935,264.390164275,62.0,84.0
1294,264.537071325,266.44041968333335,43.0,75.0
1295,264.22908198333334,266.4958319916667,36.0,86.0
1296,265.7574307666667,267.5705730416667,64.0,72.0
1297,264.91722553333335,267.57701633333335,60.0,83.0
1298,265.3089776666667,267.58088230833334,67.0,72.0
1299,265.9030491583334,267.59634620833333,72.0,73.0
