,start,end,pitch,velocity
0,24.774550937500003,25.020452187500002,72.0,116.0
1,25.020452187500002,25.5122546875,75.0,90.0
2,25.5122546875,25.774549354166666,72.0,100.0
3,25.7581559375,26.49381051041667,70.0,104.0
4,26.4958596875,26.7417609375,70.0,104.0
5,26.7417609375,27.002006427083334,72.0,107.0
6,26.9876621875,27.233563437500003,70.0,92.0
7,27.233563437500003,27.512251520833335,67.0,98.0
8,27.479464687500002,27.75405441666667,65.0,89.0
9,27.7253659375,28.708970937500002,63.0,92.0
10,28.708970937500002,29.4466746875,67.0,100.0
11,29.4466746875,29.692575937500003,70.0,108.0
12,29.692575937500003,30.1843784375,75.0,108.0
13,30.1843784375,30.6761809375,72.0,114.0
14,30.6761809375,32.6433909375,70.0,114.0
15,32.6433909375,32.889292187500004,75.0,108.0
16,32.889292187500004,33.03273458333334,77.0,86.0
17,33.0122428125,33.1351934375,75.0,84.0
18,33.1351934375,33.3810946875,72.0,102.0
19,33.3810946875,33.6269959375,70.0,89.0
20,33.6269959375,34.60855176041667,72.0,108.0
21,34.6106009375,35.1024034375,72.0,113.0
22,35.1024034375,35.368796458333335,70.0,91.0
23,35.348304687500004,35.61264853125,72.0,100.0
24,35.5942059375,35.8401071875,70.0,98.0
25,35.8401071875,36.577810937500004,67.0,89.0
26,36.577810937500004,37.06756426041667,70.0,108.0
27,37.0696134375,37.3155146875,70.0,104.0
28,37.3155146875,37.56346511458334,72.0,108.0
29,37.5614159375,38.0532184375,70.0,108.0
30,38.0532184375,38.2991196875,67.0,102.0
31,38.2991196875,38.54297176041667,65.0,89.0
32,38.5450209375,40.5122309375,65.0,93.0
33,40.5122309375,41.2499346875,67.0,114.0
34,41.2499346875,41.516327708333336,70.0,88.0
35,41.495835937500004,41.9876384375,72.0,110.0
36,41.9876384375,42.2335396875,70.0,94.0
37,42.2335396875,42.4794409375,67.0,93.0
38,42.4794409375,42.973292614583336,65.0,102.0
39,42.9712434375,43.95279926041667,63.0,102.0
40,43.954848437500004,44.21919228125,63.0,102.0
41,44.2007496875,44.45074929166667,65.0,98.0
42,44.4466509375,45.184354687500004,67.0,104.0
43,45.184354687500004,45.4302559375,70.0,93.0
44,45.4302559375,45.6761571875,75.0,110.0
45,45.6761571875,45.9220584375,77.0,102.0
46,45.9220584375,46.1679596875,75.0,96.0
47,46.1679596875,46.413860937500004,70.0,87.0
48,46.413860937500004,46.90361426041667,72.0,104.0
49,46.9056634375,47.15566304166667,72.0,104.0
50,47.1515646875,47.3974659375,70.0,102.0
51,47.3974659375,48.3810709375,67.0,113.0
52,48.3810709375,48.6269721875,75.0,120.0
53,48.6269721875,48.872873437500004,79.0,108.0
54,48.872873437500004,49.1187746875,72.0,90.0
55,49.1187746875,49.3646759375,70.0,104.0
56,49.3646759375,50.34623176041667,72.0,116.0
57,50.3482809375,50.87287027083334,72.0,114.0
58,50.8400834375,51.0859846875,70.0,102.0
59,51.0859846875,51.331885937500005,67.0,98.0
60,51.331885937500005,52.3154909375,65.0,108.0
61,52.3154909375,53.0531946875,70.0,113.0
62,53.0531946875,53.32573523958334,72.0,113.0
63,53.2990959375,53.790898437500005,70.0,114.0
64,53.790898437500005,54.05114392708334,67.0,108.0
65,54.0367996875,54.2827009375,65.0,91.0
66,54.2827009375,56.249910937500005,63.0,104.0
67,56.249910937500005,57.811383875000004,79.0,117.0
68,57.7253184375,57.9712196875,77.0,114.0
69,57.9712196875,58.2171209375,75.0,116.0
70,58.2171209375,59.690479260416666,77.0,117.0
71,59.6925284375,59.938429687500005,77.0,119.0
72,59.938429687500005,60.1843309375,79.0,110.0
73,60.1843309375,60.9220346875,67.0,116.0
74,60.9220346875,61.167935937500005,70.0,107.0
75,61.167935937500005,61.4138371875,75.0,113.0
76,61.4138371875,61.6597384375,77.0,100.0
77,61.6597384375,61.9056396875,75.0,100.0
78,61.9056396875,62.16793435416667,72.0,108.0
79,62.1515409375,64.1187509375,70.0,113.0
80,64.1187509375,64.3646521875,75.0,114.0
81,64.3646521875,64.50604540625,77.0,88.0
82,64.46506186458333,64.6105534375,75.0,86.0
83,64.6105534375,64.8564546875,72.0,110.0
84,64.8564546875,65.10235593750001,70.0,104.0
85,65.10235593750001,66.08391176041667,72.0,113.0
86,66.0859609375,66.5777634375,72.0,113.0
87,66.5777634375,66.8236646875,70.0,113.0
88,66.8236646875,67.08595935416668,72.0,113.0
89,67.0695659375,67.34210648958333,70.0,110.0
90,67.3154671875,68.0531709375,67.0,114.0
91,68.0531709375,68.79087468750001,70.0,107.0
92,68.79087468750001,69.0367759375,72.0,113.0
93,69.0367759375,69.5285784375,70.0,113.0
94,69.5285784375,69.79497145833334,67.0,108.0
95,69.7744796875,70.01833176041667,65.0,90.0
96,70.02038093750001,71.9875909375,65.0,104.0
97,71.9875909375,72.23144301041667,70.0,110.0
98,72.2334921875,72.7252946875,70.0,108.0
99,72.7252946875,72.9711959375,72.0,116.0
100,72.9711959375,73.4629984375,70.0,117.0
101,73.4629984375,73.72529310416667,67.0,113.0
102,73.70889968750001,73.97324353125,65.0,102.0
103,73.9548009375,75.9220109375,63.0,116.0
104,91.72116625000001,91.9670675,72.0,116.0
105,91.9670675,92.45887,75.0,90.0
106,92.45887,92.72116466666667,72.0,100.0
107,92.70477125000001,93.44042582291667,70.0,104.0
108,93.442475,93.68837625,70.0,104.0
109,93.68837625,93.94862173958333,72.0,107.0
110,93.93427750000001,94.18017875000001,70.0,92.0
111,94.18017875000001,94.45886683333333,67.0,98.0
112,94.42608,94.70066972916668,65.0,89.0
113,94.67198125,95.65558625,63.0,92.0
114,95.65558625,96.39329000000001,67.0,100.0
115,96.39329000000001,96.63919125000001,70.0,108.0
116,96.63919125000001,97.13099375,75.0,108.0
117,97.13099375,97.62279625000001,72.0,114.0
118,97.62279625000001,99.59000625,70.0,114.0
119,99.59000625,99.8359075,75.0,108.0
120,99.8359075,99.97934989583334,77.0,86.0
121,99.958858125,100.08180875000001,75.0,84.0
122,100.08180875000001,100.32771000000001,72.0,102.0
123,100.32771000000001,100.57361125,70.0,89.0
124,100.57361125,101.55516707291667,72.0,108.0
125,101.55721625000001,102.04901875,72.0,113.0
126,102.04901875,102.31541177083334,70.0,91.0
127,102.29492,102.55926384375,72.0,100.0
128,102.54082125000001,102.78672250000001,70.0,98.0
129,102.78672250000001,103.52442625,67.0,89.0
130,103.52442625,104.01417957291667,70.0,108.0
131,104.01622875000001,104.26213,70.0,104.0
132,104.26213,104.51008042708334,72.0,108.0
133,104.50803125,104.99983375000001,70.0,108.0
134,104.99983375000001,105.24573500000001,67.0,102.0
135,105.24573500000001,105.48958707291668,65.0,89.0
136,105.49163625,107.45884625000001,65.0,93.0
137,107.45884625000001,108.19655,67.0,114.0
138,108.19655,108.46294302083334,70.0,88.0
139,108.44245125,108.93425375000001,72.0,110.0
140,108.93425375000001,109.180155,70.0,94.0
141,109.180155,109.42605625,67.0,93.0
142,109.42605625,109.91990792708334,65.0,102.0
143,109.91785875000001,110.89941457291667,63.0,102.0
144,110.90146375,111.16580759375,63.0,102.0
145,111.14736500000001,111.39736460416667,65.0,98.0
146,111.39326625000001,112.13097,67.0,104.0
147,112.13097,112.37687125000001,70.0,93.0
148,112.37687125000001,112.62277250000001,75.0,110.0
149,112.62277250000001,112.86867375,77.0,102.0
150,112.86867375,113.114575,75.0,96.0
151,113.114575,113.36047625,70.0,87.0
152,113.36047625,113.85022957291667,72.0,104.0
153,113.85227875000001,114.10227835416667,72.0,104.0
154,114.09818,114.34408125,70.0,102.0
155,114.34408125,115.32768625,67.0,113.0
156,115.32768625,115.5735875,75.0,120.0
157,115.5735875,115.81948875,79.0,108.0
158,115.81948875,116.06539000000001,72.0,90.0
159,116.06539000000001,116.31129125000001,70.0,104.0
160,116.31129125000001,117.29284707291667,72.0,116.0
161,117.29489625000001,117.81948558333333,72.0,114.0
162,117.78669875,118.0326,70.0,102.0
163,118.0326,118.27850125,67.0,98.0
164,118.27850125,119.26210625,65.0,108.0
165,119.26210625,119.99981000000001,70.0,113.0
166,119.99981000000001,120.27235055208334,72.0,113.0
167,120.24571125,120.73751375,70.0,114.0
168,120.73751375,120.99775923958333,67.0,108.0
169,120.98341500000001,121.22931625000001,65.0,91.0
170,121.22931625000001,123.1350509375,63.0,104.0
171,123.19652625,124.7579991875,79.0,117.0
172,124.67193375000001,124.91783500000001,77.0,114.0
173,124.91783500000001,125.16373625,75.0,116.0
174,125.16373625,126.63709457291667,77.0,117.0
175,126.63914375,126.885045,77.0,119.0
176,126.885045,127.13094625000001,79.0,110.0
177,127.13094625000001,127.86865,67.0,116.0
178,127.86865,128.11455125,70.0,107.0
179,128.11455125,128.3604525,75.0,113.0
180,128.3604525,128.60635375,77.0,100.0
181,128.60635375,128.852255,75.0,100.0
182,128.852255,129.11454966666668,72.0,108.0
183,129.09815625000002,131.06536625,70.0,113.0
184,131.06536625,131.3112675,75.0,114.0
185,131.3112675,131.45266071875,77.0,88.0
186,131.434218125,131.55921792708332,75.0,86.0
187,131.55716875000002,131.80307,72.0,110.0
188,131.80307,132.04897125,70.0,104.0
189,132.04897125,133.03052707291667,72.0,113.0
190,133.03257625,133.52437875,72.0,113.0
191,133.52437875,133.77028,70.0,113.0
192,133.77028,134.03257466666668,72.0,113.0
193,134.01618125000002,134.28872180208333,70.0,110.0
194,134.2620825,134.99978625,67.0,114.0
195,134.99978625,135.73749,70.0,107.0
196,135.73749,135.98339125,72.0,113.0
197,135.98339125,136.47519375000002,70.0,113.0
198,136.47519375000002,136.74158677083335,67.0,108.0
199,136.721095,136.96494707291666,65.0,90.0
200,136.96699625,138.93420625000002,65.0,104.0
201,138.93420625000002,139.17805832291668,70.0,110.0
202,139.1801075,139.67191,70.0,108.0
203,139.67191,139.91781125,72.0,116.0
204,139.91781125,140.40961375,70.0,117.0
205,140.40961375,140.67190841666667,67.0,113.0
206,140.655515,140.91985884375,65.0,102.0
207,140.90141625,142.8071509375,63.0,116.0
208,142.86862625,144.43009918750002,79.0,117.0
209,144.34403375,144.589935,77.0,114.0
210,144.589935,144.83583625,75.0,116.0
211,144.83583625,146.30919457291668,77.0,117.0
212,146.31124375000002,146.557145,77.0,119.0
213,146.557145,146.80304625,79.0,110.0
214,146.80304625,147.54075,67.0,116.0
215,147.54075,147.78665125,70.0,107.0
216,147.78665125,148.0325525,75.0,113.0
217,148.0325525,148.27845375,77.0,100.0
218,148.27845375,148.524355,75.0,100.0
219,148.524355,148.78664966666668,72.0,108.0
220,148.77025625000002,150.73746625,70.0,113.0
221,150.73746625,150.9833675,75.0,114.0
222,150.9833675,151.12476071875,77.0,88.0
223,151.106318125,151.23131792708332,75.0,86.0
224,151.22926875000002,151.47517,72.0,110.0
225,151.47517,151.72107125,70.0,104.0
226,151.72107125,152.70262707291667,72.0,113.0
227,152.70467625,153.19647875,72.0,113.0
228,153.19647875,153.44238,70.0,113.0
229,153.44238,153.70467466666668,72.0,113.0
230,153.68828125000002,153.96082180208333,70.0,110.0
231,153.9341825,154.67188625,67.0,114.0
232,154.67188625,155.40959,70.0,107.0
233,155.40959,155.65549125,72.0,113.0
234,155.65549125,156.14729375000002,70.0,113.0
235,156.14729375000002,156.41368677083335,67.0,108.0
236,156.393195,156.63704707291666,65.0,90.0
237,156.63909625,158.729256875,65.0,104.0
238,158.729256875,160.1431890625,77.0,119.0
239,160.1431890625,160.7579421875,79.0,119.0
240,160.7579421875,161.7415471875,70.0,108.0
241,161.7415471875,162.1103990625,72.0,116.0
242,162.1103990625,162.41777562500002,75.0,116.0
243,162.41777562500002,162.7866275,77.0,100.0
244,162.7866275,164.7538375,72.0,117.0
245,164.7538375,167.69645579166666,75.0,117.0
