,start,end,pitch,velocity
0,35.30735704166667,35.415963537500005,70.0,117.0
1,35.55325854166667,35.64547160416667,70.0,114.0
2,35.799160041666674,35.98563534583334,70.0,110.0
3,36.04506154166667,36.20284833750001,68.0,116.0
4,36.29096304166667,36.54915961666667,70.0,119.0
5,36.78276604166667,37.00202821250001,72.0,119.0
6,37.02866754166667,37.24383135416667,73.0,110.0
7,37.27456904166667,37.39137225416667,65.0,108.0
8,37.76637204166667,38.0163719,68.0,117.0
9,38.258175041666675,38.51022407916667,68.0,119.0
10,39.24178104166667,39.33809246250001,63.0,119.0
11,39.48768254166667,39.5839939625,63.0,113.0
12,39.733584041666674,39.827846283333336,63.0,110.0
13,39.97948554166667,40.081944500000006,63.0,113.0
14,40.22538704166667,40.44669839166667,63.0,116.0
15,40.71719004166667,40.93440303333334,65.0,113.0
16,40.96309154166667,41.26637005833334,66.0,107.0
17,41.20899304166667,41.493828945833336,65.0,116.0
18,41.70079604166667,41.98358276666667,65.0,114.0
19,42.192599041666675,42.413910391666676,65.0,116.0
20,42.930303541666675,43.090139516666675,65.0,98.0
21,43.17620504166667,43.28686071666667,70.0,119.0
22,43.42210654166667,43.52046714166667,70.0,110.0
23,43.668008041666674,43.84218827083334,70.0,113.0
24,43.91390954166667,44.09218812916667,68.0,114.0
25,44.15981104166667,44.3790732125,70.0,119.0
26,44.651614041666676,44.81349919583334,72.0,116.0
27,44.89751554166667,45.01636793333334,73.0,114.0
28,45.14341704166667,45.39751525833334,65.0,108.0
29,45.63522004166667,45.91800676666667,68.0,113.0
30,46.127023041666675,46.40161305000001,68.0,117.0
31,47.11062904166667,47.245874866666675,63.0,110.0
32,47.35653054166667,47.46923539583334,63.0,107.0
33,47.602432041666674,47.82989092916667,63.0,110.0
34,47.848333541666676,48.06554653333334,61.0,107.0
35,48.09423504166667,48.34013654166667,63.0,113.0
36,48.586038041666676,48.82169364583334,65.0,116.0
37,48.83193954166667,49.08398857916667,68.0,110.0
38,49.323742541666675,49.62702105833334,63.0,110.0
39,50.799151541666674,50.96718423333334,65.0,104.0
40,51.04505304166668,51.15570871666667,70.0,119.0
41,51.29095454166667,51.38931514166667,70.0,108.0
42,51.536856041666674,51.73767560000001,70.0,113.0
43,51.782757541666676,51.99177381666667,68.0,114.0
44,52.02865904166667,52.272511362500005,70.0,116.0
45,52.520462041666676,52.717183241666675,72.0,116.0
46,52.76636354166667,52.96103556250001,73.0,110.0
47,53.01226504166667,53.28275669166668,70.0,117.0
48,53.50406804166668,53.76636297500001,73.0,117.0
49,53.995871041666675,54.27660858750001,73.0,119.0
50,54.97947704166668,55.247919512500005,72.0,119.0
51,55.22537854166667,55.465132504166675,73.0,116.0
52,55.471280041666674,55.73767333333334,72.0,116.0
53,55.717181541666676,55.89341095000001,73.0,110.0
54,55.96308304166667,56.28275499166667,75.0,119.0
55,56.20898454166667,56.43234507083334,73.0,94.0
56,56.454886041666676,56.66800067500001,72.0,107.0
57,56.70078754166668,56.89136120416667,70.0,96.0
58,56.94668904166667,57.31144293333334,68.0,114.0
59,57.43849204166668,57.71922958750001,70.0,116.0
60,57.930295041666675,58.254065350000005,68.0,117.0
61,58.913901041666676,59.18439269166667,63.0,116.0
62,59.15980254166667,59.39135978750001,65.0,116.0
63,59.405704041666674,59.67004815416667,63.0,110.0
64,59.651605541666676,59.86267099583334,65.0,116.0
65,59.89750704166668,60.20898227500001,63.0,117.0
66,60.88111304166667,61.14340797500001,63.0,114.0
67,61.127014541666675,61.319637383333344,65.0,110.0
68,61.37291604166668,61.53070283750001,68.0,116.0
69,61.61881754166667,61.797096129166675,70.0,116.0
70,61.864719041666675,62.153653304166674,68.0,119.0
71,62.848325041666676,63.06348885416668,73.0,117.0
72,63.09422654166668,63.331931325000006,72.0,114.0
73,63.340128041666674,63.53684924166667,70.0,113.0
74,63.586029541666676,63.807340891666676,68.0,108.0
75,63.83193104166668,64.10242269166667,70.0,119.0
76,64.56963554166667,64.76020920416667,70.0,114.0
77,64.81553704166667,65.028651675,73.0,117.0
78,65.06143854166667,65.28274989166667,72.0,114.0
79,65.30734004166668,65.53070057083335,70.0,116.0
80,65.55324154166668,65.77250371250001,68.0,114.0
81,65.79914304166668,66.04094618333335,70.0,117.0
82,66.04504454166667,66.2520116375,73.0,116.0
83,66.29094604166667,66.4425853,75.0,117.0
84,66.53684754166667,66.72127366666668,80.0,116.0
85,66.78274904166668,67.33602741666668,77.0,120.0
86,68.25815804166668,68.422092375,73.0,108.0
87,68.50405954166668,68.63725618750001,75.0,116.0
88,68.74996104166668,69.37905904583334,77.0,117.0
89,69.73356704166667,70.04504227500001,77.0,117.0
90,70.22537004166668,70.52045184166667,73.0,119.0
91,70.71717304166668,71.04914006666668,75.0,120.0
92,72.19258204166668,72.3995491375,75.0,117.0
93,72.43848354166667,72.60241787500001,73.0,117.0
94,72.68438504166667,73.10651595000002,75.0,120.0
95,73.66799104166668,73.96922037916667,75.0,117.0
96,74.15979404166667,74.41799061666667,70.0,120.0
97,74.40569554166667,74.66799047500001,73.0,119.0
98,76.12700604166668,76.37085836250002,73.0,110.0
99,76.37290754166668,76.64749755000001,72.0,113.0
100,76.61880904166668,76.95487442500001,70.0,116.0
101,77.11061204166668,77.39134958750002,73.0,116.0
102,77.60241504166667,77.89339848333334,75.0,119.0
103,77.84831654166668,78.06757871250001,73.0,116.0
104,78.09421804166668,78.34216872083334,72.0,113.0
105,78.34011954166668,78.61266037083334,70.0,113.0
106,78.58602104166668,78.90979135,68.0,116.0
107,79.07782404166667,79.35651240833334,70.0,117.0
108,79.56962704166668,79.87905309583334,70.0,119.0
109,80.55323304166667,80.81962633333335,75.0,117.0
110,80.79913454166667,80.97126559166668,73.0,110.0
111,81.04503604166668,81.23151134583334,75.0,114.0
112,81.29093754166668,81.44052762083335,73.0,116.0
113,81.53683904166668,81.75815039166667,75.0,119.0
114,82.02864204166667,82.34421563333335,80.0,117.0
115,82.52044504166668,82.99790378750001,77.0,120.0
116,83.99585404166668,84.159788375,73.0,108.0
117,84.24175554166668,84.37495218750001,75.0,116.0
118,84.48765704166668,85.11675504583334,77.0,117.0
119,85.22536154166667,85.32372214166668,77.0,108.0
120,85.47126304166667,85.74995140833335,77.0,114.0
121,85.96306604166668,86.18437739166667,75.0,116.0
122,86.20896754166668,86.3298691125,73.0,110.0
123,86.45486904166668,86.717163975,77.0,117.0
124,86.94667204166667,87.27249152916667,75.0,120.0
125,87.93027804166668,88.13724513750002,72.0,117.0
126,88.17617954166668,88.34011387500001,73.0,117.0
127,88.42208104166667,88.84421195000002,75.0,120.0
128,89.40568704166668,89.70691637916669,75.0,117.0
129,89.89749004166669,90.15568661666669,70.0,120.0
130,90.14339154166667,90.40568647500001,73.0,119.0
131,91.37289904166668,91.66183330416668,73.0,119.0
132,91.61880054166667,91.82781681666668,72.0,114.0
133,91.86470204166667,92.07576749583335,70.0,114.0
134,92.11060354166668,92.29707884583334,68.0,114.0
135,92.35650504166668,92.64134094583335,70.0,114.0
136,92.84830804166668,93.09420954166669,70.0,113.0
137,93.34011104166667,93.54707813750001,73.0,117.0
138,93.58601254166668,93.83806157916668,72.0,113.0
139,93.83191404166668,94.05527457083335,70.0,113.0
140,94.07781554166668,94.23355315833335,68.0,104.0
141,94.32371704166668,94.56142182500001,70.0,113.0
142,94.81552004166667,95.07576579583335,70.0,117.0
143,96.29092904166669,96.48969942083335,72.0,119.0
144,96.53683054166667,96.74994517500001,73.0,114.0
145,96.78273204166668,96.92412540416667,72.0,116.0
146,97.02863354166668,97.14338757500002,73.0,114.0
147,97.27453504166668,97.53887915416668,75.0,119.0
148,97.52043654166668,97.74789542916668,73.0,116.0
149,97.76633804166669,97.97535431666668,72.0,114.0
150,98.01223954166667,98.225354175,68.0,113.0
151,98.50404254166668,98.8032227,70.0,113.0
152,135.63516904166667,135.74377553750003,70.0,117.0
153,135.88107054166667,135.97328360416668,70.0,114.0
154,136.12697204166668,136.31344734583334,70.0,110.0
155,136.37287354166668,136.53066033750002,68.0,116.0
156,136.61877504166668,136.87697161666668,70.0,119.0
157,137.11057804166668,137.32984021250002,72.0,119.0
158,137.3564795416667,137.5716433541667,73.0,110.0
159,137.6023810416667,137.7191842541667,65.0,108.0
160,138.0941840416667,138.34418390000002,68.0,117.0
161,138.5859870416667,138.8380360791667,68.0,119.0
162,139.56959304166668,139.6659044625,63.0,119.0
163,139.81549454166668,139.9118059625,63.0,113.0
164,140.06139604166668,140.15565828333337,63.0,110.0
165,140.30729754166668,140.40975650000001,63.0,113.0
166,140.5531990416667,140.7745103916667,63.0,116.0
167,141.0450020416667,141.26221503333335,65.0,113.0
168,141.2909035416667,141.59418205833336,66.0,107.0
169,141.5368050416667,141.82164094583337,65.0,116.0
170,142.02860804166667,142.3113947666667,65.0,114.0
171,142.52041104166668,142.74172239166668,65.0,116.0
172,143.25811554166668,143.41795151666668,65.0,98.0
173,143.50401704166669,143.6146727166667,70.0,119.0
174,143.7499185416667,143.8482791416667,70.0,110.0
175,143.9958200416667,144.17000027083336,70.0,113.0
176,144.2417215416667,144.42000012916668,68.0,114.0
177,144.4876230416667,144.70688521250003,70.0,119.0
178,144.9794260416667,145.14131119583334,72.0,116.0
179,145.22532754166667,145.34417993333335,73.0,114.0
180,145.47122904166667,145.72532725833335,65.0,108.0
181,145.96303204166668,146.24581876666667,68.0,113.0
182,146.45483504166668,146.72942505000003,68.0,117.0
183,147.4384410416667,147.5736868666667,63.0,110.0
184,147.6843425416667,147.79704739583335,63.0,107.0
185,147.9302440416667,148.15770292916667,63.0,110.0
186,148.1761455416667,148.39335853333336,61.0,107.0
187,148.42204704166667,148.66794854166668,63.0,113.0
188,148.91385004166668,149.14950564583336,65.0,116.0
189,149.15975154166668,149.41180057916668,68.0,110.0
190,149.65155454166668,149.95483305833335,63.0,110.0
191,151.1269635416667,151.29499623333336,65.0,104.0
192,151.3728650416667,151.48352071666667,70.0,119.0
193,151.61876654166667,151.71712714166668,70.0,108.0
194,151.86466804166668,152.0654876,70.0,113.0
195,152.11056954166668,152.3195858166667,68.0,114.0
196,152.35647104166668,152.60032336250003,70.0,116.0
197,152.84827404166668,153.0449952416667,72.0,116.0
198,153.0941755416667,153.28884756250002,73.0,110.0
199,153.3400770416667,153.61056869166669,70.0,117.0
200,153.8318800416667,154.09417497500002,73.0,117.0
201,154.3236830416667,154.60442058750002,73.0,119.0
202,155.30728904166668,155.57573151250003,72.0,119.0
203,155.55319054166668,155.79294450416668,73.0,116.0
204,155.79909204166668,156.06548533333336,72.0,116.0
205,156.04499354166668,156.22122295000003,73.0,110.0
206,156.2908950416667,156.6105669916667,75.0,119.0
207,156.5367965416667,156.76015707083334,73.0,94.0
208,156.7826980416667,156.99581267500002,72.0,107.0
209,157.0285995416667,157.21917320416668,70.0,96.0
210,157.2745010416667,157.63925493333335,68.0,114.0
211,157.7663040416667,158.04704158750002,70.0,116.0
212,158.25810704166668,158.58187735,68.0,117.0
213,159.24171304166669,159.51220469166668,63.0,116.0
214,159.4876145416667,159.71917178750002,65.0,116.0
215,159.7335160416667,159.9978601541667,63.0,110.0
216,159.9794175416667,160.19048299583335,65.0,116.0
217,160.2253190416667,160.53679427500003,63.0,117.0
218,161.20892504166667,161.47121997500003,63.0,114.0
219,161.45482654166668,161.64744938333337,65.0,110.0
220,161.70072804166668,161.85851483750002,68.0,116.0
221,161.94662954166668,162.1249081291667,70.0,116.0
222,162.19253104166668,162.48146530416668,68.0,119.0
223,163.1761370416667,163.3913008541667,73.0,117.0
224,163.4220385416667,163.65974332500002,72.0,114.0
225,163.6679400416667,163.86466124166668,70.0,113.0
226,163.9138415416667,164.13515289166668,68.0,108.0
227,164.1597430416667,164.4302346916667,70.0,119.0
228,164.89744754166668,165.0880212041667,70.0,114.0
229,165.14334904166668,165.35646367500001,73.0,117.0
230,165.38925054166668,165.6105618916667,72.0,114.0
231,165.6351520416667,165.85851257083337,70.0,116.0
232,165.8810535416667,166.10031571250002,68.0,114.0
233,166.1269550416667,166.36875818333337,70.0,117.0
234,166.3728565416667,166.57982363750003,73.0,116.0
235,166.6187580416667,166.7703973,75.0,117.0
236,166.8646595416667,167.04908566666668,80.0,116.0
237,167.1105610416667,167.6638394166667,77.0,120.0
238,168.58597004166668,168.74990437500003,73.0,108.0
239,168.8318715416667,168.9650681875,75.0,116.0
240,169.0777730416667,169.70687104583337,77.0,117.0
241,170.0613790416667,170.37285427500004,77.0,117.0
242,170.5531820416667,170.8482638416667,73.0,119.0
243,171.04498504166668,171.3769520666667,75.0,120.0
244,172.5203940416667,172.72736113750003,75.0,117.0
245,172.7662955416667,172.93022987500004,73.0,117.0
246,173.0121970416667,173.43432795,75.0,120.0
247,173.9958030416667,174.2970323791667,75.0,117.0
248,174.48760604166668,174.74580261666668,70.0,120.0
249,174.73350754166668,174.99580247500003,73.0,119.0
250,176.4548180416667,176.69867036250002,73.0,110.0
251,176.7007195416667,176.97530955000002,72.0,113.0
252,176.9466210416667,177.28268642500004,70.0,116.0
253,177.43842404166668,177.71916158750003,73.0,116.0
254,177.93022704166668,178.22121048333335,75.0,119.0
255,178.17612854166669,178.39539071250002,73.0,116.0
256,178.4220300416667,178.66998072083337,72.0,113.0
257,178.6679315416667,178.94047237083336,70.0,113.0
258,178.9138330416667,179.23760335000003,68.0,116.0
259,179.4056360416667,179.68432440833337,70.0,117.0
260,179.8974390416667,180.20686509583336,70.0,119.0
261,180.88104504166668,181.14743833333335,75.0,117.0
262,181.12694654166668,181.2990775916667,73.0,110.0
263,181.37284804166669,181.55932334583335,75.0,114.0
264,181.6187495416667,181.76833962083336,73.0,116.0
265,181.8646510416667,182.0859623916667,75.0,119.0
266,182.3564540416667,182.67202763333336,80.0,117.0
267,182.8482570416667,183.32571578750003,77.0,120.0
268,184.32366604166668,184.48760037500003,73.0,108.0
269,184.5695675416667,184.70276418750004,75.0,116.0
270,184.8154690416667,185.44456704583337,77.0,117.0
271,185.5531735416667,185.6515341416667,77.0,108.0
272,185.7990750416667,186.07776340833337,77.0,114.0
273,186.2908780416667,186.51218939166668,75.0,116.0
274,186.5367795416667,186.65768111250003,73.0,110.0
275,186.7826810416667,187.04497597500003,77.0,117.0
276,187.27448404166668,187.6003035291667,75.0,120.0
277,188.2580900416667,188.46505713750003,72.0,117.0
278,188.5039915416667,188.66792587500004,73.0,117.0
279,188.7498930416667,189.17202395000004,75.0,120.0
280,189.7334990416667,190.0347283791667,75.0,117.0
281,190.22530204166668,190.48349861666668,70.0,120.0
282,190.47120354166668,190.73349847500003,73.0,119.0
283,191.7007110416667,191.9896453041667,73.0,119.0
284,191.9466125416667,192.1556288166667,72.0,114.0
285,192.1925140416667,192.40357949583336,70.0,114.0
286,192.4384155416667,192.62489084583336,68.0,114.0
287,192.6843170416667,192.96915294583337,70.0,114.0
288,193.1761200416667,193.42202154166668,70.0,113.0
289,193.66792304166668,193.87489013750002,73.0,117.0
290,193.91382454166668,194.16587357916669,72.0,113.0
291,194.1597260416667,194.38308657083337,70.0,113.0
292,194.4056275416667,194.56136515833336,68.0,104.0
293,194.6515290416667,194.88923382500002,70.0,113.0
294,195.1433320416667,195.40357779583337,70.0,117.0
295,196.61874104166668,196.81751142083337,72.0,119.0
296,196.86464254166668,197.07775717500002,73.0,114.0
297,197.11054404166669,197.25193740416668,72.0,116.0
298,197.3564455416667,197.471199575,73.0,114.0
299,197.6023470416667,197.8666911541667,75.0,119.0
300,197.8482485416667,198.0757074291667,73.0,116.0
301,198.0941500416667,198.3031663166667,72.0,114.0
302,198.3400515416667,198.55316617500003,68.0,113.0
303,198.8318545416667,199.13103470000001,70.0,113.0
304,202.0285740416667,202.19250837500002,73.0,108.0
305,202.2744755416667,202.40767218750003,75.0,116.0
306,202.5203770416667,203.14947504583336,77.0,117.0
307,203.5039830416667,203.81545827500003,77.0,117.0
308,203.9957860416667,204.29086784166668,73.0,119.0
309,204.4875890416667,204.8195560666667,75.0,120.0
310,205.9629980416667,206.16996513750001,75.0,117.0
311,206.20889954166668,206.37283387500003,73.0,117.0
312,206.45480104166668,206.87693195000003,75.0,120.0
313,207.4384070416667,207.73963637916668,75.0,117.0
314,207.9302100416667,208.1884066166667,70.0,120.0
315,208.1761115416667,208.43840647500002,73.0,119.0
316,209.8974220416667,210.14127436250004,73.0,110.0
317,210.1433235416667,210.41791355000004,72.0,113.0
318,210.3892250416667,210.72529042500003,70.0,116.0
319,210.8810280416667,211.16176558750004,73.0,116.0
320,211.3728310416667,211.66381448333337,75.0,119.0
321,211.6187325416667,211.83799471250003,73.0,116.0
322,211.8646340416667,212.11258472083335,72.0,113.0
323,212.1105355416667,212.38307637083335,70.0,113.0
324,212.3564370416667,212.68020735000002,68.0,116.0
325,212.84824004166668,213.12692840833336,70.0,117.0
326,213.3400430416667,213.64946909583335,70.0,119.0
327,214.3236490416667,214.59004233333337,75.0,117.0
328,214.5695505416667,214.7416815916667,73.0,110.0
329,214.8154520416667,215.00192734583337,75.0,114.0
330,215.0613535416667,215.21094362083338,73.0,116.0
331,215.3072550416667,215.5285663916667,75.0,119.0
332,215.79905804166668,216.11463163333337,80.0,117.0
333,216.2908610416667,216.76831978750002,77.0,120.0
334,217.7662700416667,217.93020437500002,73.0,108.0
335,218.0121715416667,218.14536818750003,75.0,116.0
336,218.2580730416667,218.88717104583336,77.0,117.0
337,218.99577754166668,219.0941381416667,77.0,108.0
338,219.24167904166669,219.52036740833336,77.0,114.0
339,219.7334820416667,219.9547933916667,75.0,116.0
340,219.9793835416667,220.10028511250002,73.0,110.0
341,220.2252850416667,220.48757997500002,77.0,117.0
342,220.7170880416667,221.04290752916668,75.0,120.0
343,221.7006940416667,221.90766113750004,72.0,117.0
344,221.9465955416667,222.11052987500003,73.0,117.0
345,222.19249704166668,222.61462795000003,75.0,120.0
346,223.1761030416667,223.4773323791667,75.0,117.0
347,223.6679060416667,223.9261026166667,70.0,120.0
348,223.9138075416667,224.17610247500002,73.0,119.0
349,225.1433150416667,225.4322493041667,73.0,119.0
350,225.38921654166668,225.5982328166667,72.0,114.0
351,225.6351180416667,225.84618349583337,70.0,114.0
352,225.8810195416667,226.06749484583335,68.0,114.0
353,226.1269210416667,226.41175694583336,70.0,114.0
354,226.6187240416667,226.8646255416667,70.0,113.0
355,227.1105270416667,227.31749413750003,73.0,117.0
356,227.3564285416667,227.6084775791667,72.0,113.0
357,227.6023300416667,227.82569057083336,70.0,113.0
358,227.8482315416667,228.00396915833338,68.0,104.0
359,228.0941330416667,228.33183782500004,70.0,113.0
360,228.58593604166668,228.84618179583336,70.0,117.0
361,230.0613450416667,230.26011542083336,72.0,119.0
362,230.3072465416667,230.52036117500003,73.0,114.0
363,230.5531480416667,230.6945414041667,72.0,116.0
364,230.7990495416667,230.91380357500003,73.0,114.0
365,231.0449510416667,231.3092951541667,75.0,119.0
366,231.2908525416667,231.5183114291667,73.0,116.0
367,231.5367540416667,231.7457703166667,72.0,114.0
368,231.78265554166668,231.99577017500002,68.0,113.0
369,232.2744585416667,232.57363870000003,70.0,113.0
