,start,end,pitch,velocity
0,1.8647530416666669,3.5409816000000003,65.0,87.0
1,2.356556041666667,3.5901619000000005,53.0,54.0
2,1.8647530416666669,3.6086045125000004,46.0,80.0
3,1.8647530416666669,3.7356536208333337,61.0,87.0
4,3.8319650416666673,3.938522358333334,63.0,75.0
5,3.8319650416666673,5.360652700000001,53.0,76.0
6,3.8319650416666673,5.372947775000001,68.0,80.0
7,3.8319650416666673,5.446718225000001,60.0,77.0
8,3.8319650416666673,5.450816583333334,65.0,82.0
9,5.799177041666668,6.393439000000001,51.0,83.0
10,5.799177041666668,6.446717658333334,66.0,80.0
11,5.799177041666668,6.493848779166668,58.0,72.0
12,5.799177041666668,6.774586325000001,61.0,76.0
13,6.782783041666668,7.397536791666668,44.0,82.0
14,5.799177041666668,7.682372695833334,63.0,78.0
15,6.782783041666668,7.762290683333334,60.0,76.0
16,6.782783041666668,8.493847645833334,68.0,78.0
17,7.766389041666668,8.499995183333334,49.0,61.0
18,7.766389041666668,8.653683620833334,65.0,76.0
19,7.766389041666668,8.747945862500002,61.0,70.0
20,8.749995041666669,9.389338941666669,68.0,77.0
21,8.749995041666669,9.481552004166668,60.0,77.0
22,8.749995041666669,9.577863425000002,48.0,76.0
23,9.733601041666669,10.239748295833335,70.0,74.0
24,8.749995041666669,10.475403900000002,65.0,80.0
25,9.733601041666669,10.483600616666669,61.0,77.0
26,9.733601041666669,11.211059220833334,46.0,80.0
27,10.225404041666668,11.223354295833335,53.0,64.0
28,10.963108541666669,11.311469,61.0,83.0
29,11.209010041666668,11.661878637500001,70.0,87.0
30,10.471305541666668,11.672124533333335,58.0,83.0
31,11.700813041666668,12.118845591666668,60.0,77.0
32,11.700813041666668,12.362697912500002,65.0,83.0
33,12.192616041666668,12.499992916666669,60.0,86.0
34,12.438517541666668,13.555320187500001,68.0,102.0
35,11.700813041666668,13.688516833333335,53.0,78.0
36,12.930320541666669,14.098352666666669,60.0,80.0
37,14.15982804166667,15.225401208333336,58.0,70.0
38,13.668025041666668,15.321712629166669,51.0,90.0
39,14.897532541666669,15.67826980416667,63.0,73.0
40,14.405729541666668,15.844253316666668,61.0,84.0
41,15.635237041666668,15.844253316666668,61.0,70.0
42,15.635237041666668,16.295072733333335,70.0,83.0
43,15.635237041666668,16.34220385416667,66.0,74.0
44,15.635237041666668,16.633187295833334,42.0,82.0
45,16.61884304166667,17.157777162500004,44.0,76.0
46,16.61884304166667,17.307367241666668,68.0,83.0
47,16.61884304166667,17.372940975000002,60.0,74.0
48,16.61884304166667,17.502039262500002,63.0,84.0
49,17.60244904166667,17.924170170833335,70.0,87.0
50,17.60244904166667,18.096301220833336,65.0,77.0
51,17.60244904166667,18.243842120833335,61.0,84.0
52,18.58605504166667,19.030726920833335,60.0,85.0
53,17.60244904166667,19.05941542916667,46.0,83.0
54,18.094252041666667,19.092202295833335,53.0,78.0
55,18.34015354166667,19.313513645833336,58.0,87.0
56,18.83195654166667,19.3770382,61.0,83.0
57,19.07785804166667,19.44671029166667,65.0,79.0
58,19.56966104166667,20.026627995833337,65.0,85.0
59,19.56966104166667,20.03072635416667,68.0,87.0
60,20.30736554166667,21.022529070833336,60.0,86.0
61,20.55326704166667,21.047119220833338,65.0,114.0
62,19.56966104166667,21.061463475000004,53.0,80.0
63,21.04507004166667,21.311463333333336,68.0,87.0
64,21.53687304166667,22.1741677625,58.0,81.0
65,21.53687304166667,22.288921795833335,66.0,86.0
66,21.53687304166667,22.842200170833337,63.0,84.0
67,21.53687304166667,22.854495245833338,61.0,76.0
68,21.53687304166667,23.403675262500002,51.0,83.0
69,23.50408504166667,24.188510883333336,61.0,82.0
70,23.50408504166667,24.293019020833338,68.0,87.0
71,23.50408504166667,24.38318290416667,65.0,84.0
72,23.50408504166667,24.551215595833337,49.0,86.0
73,24.487691041666668,24.97949404166667,65.0,87.0
74,24.487691041666668,25.17006770416667,68.0,86.0
75,24.487691041666668,25.17621524166667,60.0,86.0
76,24.487691041666668,25.358592187500005,48.0,77.0
77,25.47129704166667,25.90777220416667,58.0,86.0
78,25.47129704166667,26.038919670833337,65.0,88.0
79,25.47129704166667,26.04301802916667,61.0,88.0
80,25.47129704166667,26.95285357916667,46.0,84.0
81,25.96310004166667,26.954902758333336,53.0,71.0
82,26.45490304166667,26.963099475000003,60.0,90.0
83,26.70080454166667,27.104492837500004,61.0,84.0
84,26.20900154166667,27.13727970416667,58.0,87.0
85,26.94670604166667,27.38932874166667,65.0,86.0
86,27.43850904166667,27.848344875000002,65.0,78.0
87,27.43850904166667,27.858590770833338,68.0,88.0
88,27.93031204166667,28.88932789166667,60.0,84.0
89,28.42211504166667,28.961049162500004,65.0,91.0
90,28.42211504166667,29.120885137500004,73.0,93.0
91,28.91391804166667,29.133180212500005,68.0,87.0
92,27.43850904166667,29.422114475000004,53.0,87.0
93,29.40572104166667,29.90981911666667,66.0,88.0
94,29.89752404166667,29.90981911666667,66.0,66.0
95,29.40572104166667,30.225392708333338,63.0,83.0
96,30.38932704166667,31.170064304166672,66.0,88.0
97,30.38932704166667,31.22744132083334,63.0,89.0
98,29.40572104166667,31.247933112500004,51.0,85.0
99,31.37293304166667,32.24588336666667,66.0,83.0
100,31.37293304166667,32.26022762083334,58.0,80.0
101,31.37293304166667,32.26022762083334,61.0,83.0
102,32.35653904166667,33.07170257083334,66.0,86.0
103,32.35653904166667,33.10448943750001,58.0,82.0
104,32.35653904166667,33.2889155625,61.0,84.0
105,31.37293304166667,33.436456462500004,42.0,87.0
106,35.30735704166667,36.84424141666667,46.0,91.0
107,35.55325854166667,36.87497910416667,53.0,84.0
108,35.799160041666674,36.87907746250001,58.0,77.0
109,36.04506154166667,37.25407725,60.0,78.0
110,36.29096304166667,37.29301165416667,61.0,86.0
111,36.78276604166667,37.36268374583334,65.0,85.0
112,37.27456904166667,38.72743707083334,53.0,85.0
113,37.52047054166667,38.73973214583334,60.0,80.0
114,38.50407654166667,38.85448617916667,68.0,87.0
115,37.76637204166667,38.92005991250001,65.0,78.0
116,38.01227354166667,39.411862912500006,72.0,89.0
117,39.48768254166667,40.754075266666675,58.0,81.0
118,39.24178104166667,40.80530474583334,51.0,84.0
119,39.733584041666674,40.89751780833334,63.0,77.0
120,40.22538704166667,41.043009529166675,70.0,81.0
121,39.97948554166667,41.141370129166674,66.0,71.0
122,41.20899304166667,41.999976200000006,68.0,76.0
123,41.20899304166667,42.02866470833334,61.0,68.0
124,41.20899304166667,42.04095978333334,65.0,76.0
125,42.192599041666675,42.34628747916667,65.0,88.0
126,41.20899304166667,42.34833665833334,49.0,80.0
127,42.192599041666675,42.450795616666674,61.0,83.0
128,42.68440204166667,42.961041229166675,60.0,79.0
129,42.68440204166667,43.155713250000005,48.0,75.0
130,42.68440204166667,43.17210668333334,63.0,86.0
131,43.17620504166667,43.543008112500004,65.0,87.0
132,42.192599041666675,43.58194251666667,68.0,84.0
133,43.17620504166667,43.891368570833336,61.0,79.0
134,43.668008041666674,44.63317142916667,58.0,78.0
135,43.42210654166667,44.67620419166667,53.0,73.0
136,43.17620504166667,44.723335312500005,46.0,78.0
137,43.91390954166667,44.89751554166667,60.0,85.0
138,44.651614041666676,45.09423674166667,65.0,86.0
139,44.15981104166667,45.100384279166676,61.0,86.0
140,45.14341704166667,45.77251504583334,68.0,88.0
141,45.14341704166667,45.79710519583334,60.0,86.0
142,45.88112154166667,46.17620334166667,65.0,84.0
143,45.88112154166667,46.22128528333334,60.0,61.0
144,45.14341704166667,46.68644895416667,41.0,84.0
145,46.127023041666675,46.84833410833334,68.0,98.0
146,45.63522004166667,46.868825900000004,53.0,86.0
147,47.11062904166667,47.62087465416667,58.0,72.0
148,47.11062904166667,47.786858166666676,66.0,84.0
149,47.11062904166667,47.90775973750001,63.0,38.0
150,47.11062904166667,47.963087575,61.0,61.0
151,48.09423504166667,48.64136587916667,61.0,85.0
152,47.11062904166667,48.67825110416668,51.0,81.0
153,47.848333541666676,48.690546179166674,58.0,86.0
154,48.83193954166667,49.15980820833334,66.0,79.0
155,48.586038041666676,49.163906566666675,63.0,86.0
156,49.56964404166667,50.14956174583334,56.0,84.0
157,49.81554554166667,50.43029929166667,60.0,81.0
158,50.061447041666675,50.53070907083334,68.0,100.0
159,49.07784104166667,50.704889300000005,44.0,86.0
160,50.55325004166667,50.803249900000004,63.0,87.0
161,50.30734854166667,50.891364604166675,56.0,88.0
162,49.323742541666675,51.04915140000001,51.0,70.0
163,50.799151541666674,51.088085804166674,68.0,87.0
164,51.04505304166668,51.71103627083334,65.0,88.0
165,51.04505304166668,51.80324933333334,61.0,87.0
166,51.782757541666676,52.49792107083334,58.0,88.0
167,51.536856041666674,52.526609579166674,53.0,79.0
168,52.02865904166667,52.53890465416667,65.0,102.0
169,51.04505304166668,52.54710137083334,46.0,86.0
170,52.02865904166667,52.60447838750001,60.0,100.0
171,52.520462041666676,52.938494591666675,61.0,85.0
172,53.50406804166668,54.13316604583334,54.0,84.0
173,53.01226504166667,54.51431337083334,42.0,100.0
174,53.995871041666675,54.61472315000001,58.0,90.0
175,53.995871041666675,54.64955919583334,66.0,93.0
176,53.995871041666675,54.84628039583334,61.0,96.0
177,54.48767404166667,54.96718196666667,54.0,85.0
178,54.97947704166668,55.68439467500001,68.0,98.0
179,54.97947704166668,55.686443854166676,60.0,89.0
180,54.97947704166668,55.73972251250001,63.0,94.0
181,55.717181541666676,55.99586990833334,56.0,88.0
182,55.471280041666674,56.43849260833334,51.0,75.0
183,54.97947704166668,56.495869625000005,44.0,87.0
184,55.96308304166667,56.56349253750001,60.0,102.0
185,55.96308304166667,56.68849246666667,68.0,102.0
186,55.96308304166667,56.72127933333334,63.0,108.0
187,56.454886041666676,56.88521366666667,56.0,87.0
188,56.94668904166667,57.39750845833334,61.0,93.0
189,56.94668904166667,57.444639579166676,65.0,91.0
190,57.68439354166667,58.30939318750001,61.0,87.0
191,57.930295041666675,58.32988497916667,68.0,113.0
192,57.43849204166668,58.42209804166667,56.0,78.0
193,56.94668904166667,58.438491475000006,49.0,87.0
194,57.930295041666675,58.47947505833334,63.0,114.0
195,58.913901041666676,59.528654791666675,70.0,89.0
196,58.913901041666676,59.60242524166667,66.0,92.0
197,58.913901041666676,59.61267113750001,63.0,88.0
198,59.651605541666676,60.555293554166674,58.0,76.0
199,58.913901041666676,60.57578534583334,51.0,96.0
200,59.89750704166668,60.583982062500006,70.0,91.0
201,59.89750704166668,60.60242467500001,63.0,96.0
202,59.89750704166668,60.62291646666667,66.0,104.0
203,60.88111304166667,61.58807985416667,68.0,93.0
204,60.88111304166667,61.63111261666668,65.0,98.0
205,60.88111304166667,61.65980112500001,60.0,90.0
206,61.864719041666675,62.43234167083334,60.0,93.0
207,61.864719041666675,62.45078428333334,65.0,102.0
208,61.864719041666675,62.46103017916668,68.0,92.0
209,60.88111304166667,62.532751450000006,53.0,87.0
210,62.848325041666676,63.499964016666674,66.0,92.0
211,62.848325041666676,63.528652525000005,61.0,102.0
212,62.848325041666676,63.53684924166667,58.0,88.0
213,63.586029541666676,63.969226045833345,54.0,90.0
214,62.848325041666676,64.44463561250001,42.0,100.0
215,63.83193104166668,64.5245536,58.0,102.0
216,63.83193104166668,64.5245536,66.0,102.0
217,63.83193104166668,64.61676666250001,61.0,110.0
218,64.32373404166667,64.68848793333335,54.0,86.0
219,64.81553704166667,65.409799,66.0,104.0
220,64.81553704166667,65.56553661666668,60.0,94.0
221,64.81553704166667,65.57783169166667,63.0,110.0
222,64.81553704166667,66.04504454166667,48.0,96.0
223,65.79914304166668,66.26430671250002,66.0,102.0
224,65.79914304166668,66.307339475,63.0,114.0
225,65.79914304166668,66.64135567916668,60.0,107.0
226,66.29094604166667,66.78684740000001,48.0,87.0
227,66.78274904166668,67.42824047916667,57.0,97.0
228,66.78274904166668,67.50815846666667,65.0,110.0
229,66.78274904166668,67.62291250000001,60.0,107.0
230,67.52045354166668,67.9241418375,53.0,91.0
231,66.78274904166668,68.26840393750001,41.0,96.0
232,67.76635504166667,68.28069901250001,65.0,117.0
233,67.76635504166667,68.28684655,57.0,106.0
234,67.27455204166668,68.34422356666667,48.0,79.0
235,67.76635504166667,68.34627274583335,60.0,113.0
236,68.25815804166668,68.57782999166668,53.0,90.0
237,68.74996104166668,69.10037067916667,61.0,98.0
238,68.74996104166668,69.24176404166667,68.0,104.0
239,68.74996104166668,69.28684598333334,65.0,113.0
240,69.48766554166667,69.85037025416668,61.0,86.0
241,69.73356704166667,70.23766511666668,65.0,107.0
242,70.22537004166668,70.37496012083334,61.0,87.0
243,69.24176404166667,70.38725519583335,56.0,77.0
244,68.74996104166668,70.40364862916668,49.0,98.0
245,69.73356704166667,70.43438631666668,73.0,100.0
246,69.73356704166667,70.44873057083335,68.0,116.0
247,70.71717304166668,71.13110723333334,68.0,114.0
248,70.71717304166668,71.15569738333335,72.0,113.0
249,70.71717304166668,71.176189175,63.0,108.0
250,71.45487754166668,71.74995934166668,56.0,98.0
251,71.70077904166668,71.99381166250001,68.0,116.0
252,71.70077904166668,72.05118867916667,60.0,117.0
253,71.70077904166668,72.05323785833335,63.0,119.0
254,70.71717304166668,72.28889346250001,44.0,91.0
255,72.19258204166668,72.38930324166668,60.0,93.0
256,72.19258204166668,72.45077861666668,68.0,91.0
257,71.94668054166668,72.54504085833334,56.0,114.0
258,72.19258204166668,72.55118839583335,63.0,91.0
259,72.68438504166667,73.37086006250001,66.0,96.0
260,72.68438504166667,73.37495842083334,61.0,102.0
261,72.68438504166667,73.37495842083334,63.0,100.0
262,72.68438504166667,73.39340103333335,58.0,94.0
263,73.42208954166668,73.79299097083334,51.0,83.0
264,72.68438504166667,74.10036784583335,39.0,100.0
265,73.66799104166668,74.372908675,66.0,107.0
266,73.66799104166668,74.38110539166668,61.0,110.0
267,73.66799104166668,74.40159718333334,58.0,104.0
268,73.66799104166668,74.43643322916668,63.0,107.0
269,74.15979404166667,74.54503972500001,51.0,87.0
270,74.65159704166668,75.40569497500002,58.0,93.0
271,74.65159704166668,75.42413758750001,65.0,100.0
272,74.65159704166668,75.45077691666668,61.0,107.0
273,75.38930154166668,75.8360226,53.0,91.0
274,74.65159704166668,75.87290782500001,46.0,88.0
275,75.63520304166667,76.29298955416668,58.0,110.0
276,75.63520304166667,76.31757970416668,65.0,114.0
277,75.63520304166667,76.41798948333334,61.0,116.0
278,76.12700604166668,76.55323530833334,44.0,94.0
279,76.61880904166668,77.35241518333335,66.0,108.0
280,76.61880904166668,77.38520205,58.0,104.0
281,76.61880904166668,77.39339876666668,61.0,113.0
282,77.35651354166667,77.67618549166667,54.0,113.0
283,76.61880904166668,78.14544752083334,42.0,94.0
284,77.60241504166667,78.29913595833334,66.0,108.0
285,77.60241504166667,78.3380703625,58.0,104.0
286,77.60241504166667,78.38315230416667,61.0,116.0
287,78.09421804166668,78.45282439583335,54.0,102.0
288,78.58602104166668,79.19462725416668,58.0,84.0
289,78.58602104166668,79.19462725416668,65.0,82.0
290,78.58602104166668,79.24585673333334,61.0,88.0
291,78.58602104166668,79.80323346666668,46.0,87.0
292,79.32372554166668,79.85446294583335,53.0,69.0
293,79.56962704166668,80.09011855000001,65.0,94.0
294,79.56962704166668,80.09421690833335,58.0,98.0
295,79.56962704166668,80.11265952083335,61.0,108.0
296,80.06143004166668,80.36265937916667,46.0,82.0
297,80.55323304166667,81.19257694166667,66.0,90.0
298,80.55323304166667,81.22536380833334,63.0,89.0
299,80.55323304166667,81.23356052500002,61.0,89.0
300,80.55323304166667,81.25610149583335,58.0,88.0
301,80.55323304166667,81.9835601,51.0,88.0
302,81.53683904166668,82.09011741666667,61.0,89.0
303,81.53683904166668,82.09421577500001,63.0,89.0
304,81.53683904166668,82.10651085,66.0,89.0
305,81.53683904166668,82.15774032916667,58.0,88.0
306,82.52044504166668,83.14954304583334,65.0,90.0
307,82.52044504166668,83.17618237500001,57.0,88.0
308,82.52044504166668,83.28478887083334,60.0,96.0
309,83.25814954166668,83.60446082083334,53.0,84.0
310,83.50405104166668,83.97331307083334,57.0,100.0
311,83.50405104166668,83.97536225000002,65.0,110.0
312,82.52044504166668,83.99585404166668,41.0,87.0
313,83.50405104166668,84.02659172916668,60.0,102.0
314,83.99585404166668,84.31142763333334,53.0,88.0
315,84.48765704166668,85.30527952916668,65.0,92.0
316,84.48765704166668,85.34421393333335,56.0,102.0
317,84.48765704166668,85.37904997916668,61.0,96.0
318,85.47126304166667,85.52659087916668,59.0,100.0
319,84.48765704166668,85.70077110833334,49.0,92.0
320,85.47126304166667,85.94462342916668,56.0,108.0
321,85.47126304166667,86.02454141666668,65.0,100.0
322,85.47126304166667,86.05937746250001,61.0,107.0
323,85.96306604166668,86.40159038333334,49.0,98.0
324,86.45486904166668,87.19462272083335,68.0,94.0
325,86.45486904166668,87.20896697500001,60.0,96.0
326,86.45486904166668,87.21511451250001,63.0,108.0
327,87.19257354166668,87.54093400000001,56.0,96.0
328,86.45486904166668,87.99175341666668,44.0,90.0
329,87.43847504166668,88.01839274583334,68.0,113.0
330,87.43847504166668,88.04298289583335,63.0,119.0
331,87.43847504166668,88.05732715,60.0,110.0
332,87.93027804166668,88.18232707916668,56.0,91.0
333,88.42208104166667,89.07986755416668,66.0,88.0
334,88.42208104166667,89.10035934583334,63.0,89.0
335,88.42208104166667,89.10650688333334,58.0,86.0
336,88.42208104166667,89.10650688333334,61.0,88.0
337,89.40568704166668,90.00609653750001,58.0,91.0
338,89.40568704166668,90.02658832916669,66.0,91.0
339,89.40568704166668,90.14134236250001,63.0,94.0
340,89.40568704166668,90.24380132083334,61.0,92.0
341,88.42208104166667,90.28273572500001,51.0,91.0
342,90.38929304166668,91.10035821250001,65.0,96.0
343,90.38929304166668,91.10650575000001,68.0,93.0
344,90.38929304166668,91.18232537916668,61.0,98.0
345,91.37289904166668,91.64339069166668,68.0,93.0
346,91.12699754166668,91.79093159166668,58.0,96.0
347,91.37289904166668,91.82576763750001,60.0,108.0
348,90.38929304166668,91.89543972916668,46.0,88.0
349,90.88109604166668,91.89748890833334,53.0,82.0
350,91.86470204166667,92.13519369166669,65.0,98.0
351,91.61880054166667,92.14134122916668,61.0,91.0
352,92.11060354166668,92.27658705416668,68.0,96.0
353,92.35650504166668,93.11879969166668,66.0,91.0
354,92.35650504166668,93.18847178333334,58.0,93.0
355,92.35650504166668,93.20896357500001,61.0,94.0
356,92.35650504166668,93.53888142083335,54.0,86.0
357,93.34011104166667,93.90158613333334,58.0,102.0
358,93.34011104166667,93.91183202916667,66.0,102.0
359,92.35650504166668,93.91388120833335,42.0,86.0
360,93.34011104166667,94.16593024583335,61.0,108.0
361,93.83191404166668,94.18847121666668,54.0,82.0
362,94.32371704166668,94.94051997083335,70.0,91.0
363,94.32371704166668,94.98560191250002,61.0,89.0
364,94.32371704166668,94.99789698750001,65.0,100.0
365,95.06142154166668,95.83601126666667,58.0,87.0
366,94.81552004166667,95.90773253750001,53.0,63.0
367,95.30732304166668,95.92822432916668,70.0,96.0
368,94.32371704166668,95.94461776250002,46.0,93.0
369,95.30732304166668,95.95691283750001,61.0,100.0
370,95.30732304166668,95.96510955416667,65.0,113.0
371,96.29092904166669,96.96715816666668,68.0,91.0
372,96.29092904166669,97.00609257083335,63.0,110.0
373,96.29092904166669,97.00814175000001,60.0,96.0
374,97.02863354166668,97.40568250833334,56.0,75.0
375,96.29092904166669,97.89748550833335,44.0,88.0
376,97.27453504166668,97.93027237500002,68.0,102.0
377,97.27453504166668,97.94256745000001,60.0,102.0
378,97.27453504166668,98.02453461666668,63.0,114.0
379,97.76633804166669,98.09010835000001,56.0,79.0
380,98.25814104166668,98.81961613333334,70.0,98.0
381,98.25814104166668,98.82371449166668,65.0,104.0
382,98.25814104166668,98.98559964583335,61.0,92.0
383,99.24174704166668,99.55322227500001,60.0,100.0
384,99.48764854166669,99.64953369583334,61.0,87.0
385,98.50404254166668,99.67617302500001,53.0,82.0
386,98.25814104166668,99.87289422500001,46.0,90.0
387,98.99584554166668,99.87494340416669,58.0,93.0
388,99.73355004166667,99.87494340416669,65.0,86.0
389,100.22535304166668,100.26018908750001,66.0,86.0
390,100.22535304166668,100.84625432916668,70.0,88.0
391,100.22535304166668,100.87494283750002,65.0,88.0
392,100.22535304166668,100.87904119583335,61.0,89.0
393,101.20895904166667,101.80117182083335,70.0,86.0
394,100.22535304166668,101.81756525416668,46.0,88.0
395,101.20895904166667,101.84830294166667,61.0,84.0
396,101.20895904166667,101.89338488333335,65.0,86.0
397,102.19256504166668,102.79707289583335,60.0,88.0
398,102.19256504166668,102.87904006250001,68.0,87.0
399,102.19256504166668,102.91797446666668,65.0,88.0
400,102.19256504166668,103.67412157916668,41.0,87.0
401,102.93026954166668,103.73354777500002,53.0,83.0
402,103.17617104166668,103.79707232916668,68.0,100.0
403,103.17617104166668,103.81961330000001,60.0,107.0
404,104.15977704166669,104.81756355416668,66.0,87.0
405,104.15977704166669,104.85035042083335,58.0,83.0
406,104.15977704166669,104.95485855833334,63.0,85.0
407,104.15977704166669,105.00608803750002,61.0,83.0
408,104.15977704166669,105.09625192083335,39.0,85.0
409,105.14338304166668,105.85444821250002,60.0,84.0
410,105.14338304166668,105.88313672083335,63.0,88.0
411,105.14338304166668,105.90567769166668,68.0,88.0
412,105.14338304166668,106.09215299583335,44.0,86.0
413,106.12698904166668,106.81141488333334,68.0,86.0
414,106.12698904166668,106.81551324166668,65.0,87.0
415,106.12698904166668,106.96920167916669,61.0,89.0
416,106.12698904166668,107.05936556250002,49.0,84.0
417,107.11059504166668,107.79707006250001,60.0,88.0
418,107.11059504166668,107.82780775000002,68.0,89.0
419,107.11059504166668,107.94666014166668,65.0,91.0
420,107.11059504166668,108.11264365416667,48.0,87.0
421,108.09420104166668,108.73354494166668,65.0,88.0
422,108.09420104166668,108.76018427083335,61.0,91.0
423,108.09420104166668,108.81551210833335,58.0,86.0
424,109.07780704166669,109.67001982083335,58.0,91.0
425,109.07780704166669,109.84010169166667,65.0,89.0
426,109.07780704166669,109.90772460416669,61.0,96.0
427,108.09420104166668,109.93231475416668,46.0,85.0
428,110.06141304166668,110.89542896250002,68.0,91.0
429,110.06141304166668,110.90977321666668,60.0,88.0
430,110.06141304166668,110.93436336666669,65.0,91.0
431,110.06141304166668,111.61674002916668,41.0,83.0
432,111.04501904166668,111.65772361250002,68.0,90.0
433,111.04501904166668,111.72944488333334,60.0,89.0
434,111.04501904166668,111.82780548333335,65.0,91.0
435,110.06141304166668,111.92821526250002,53.0,85.0
436,112.02862504166669,112.71714924166668,66.0,86.0
437,112.02862504166669,112.76223118333336,63.0,87.0
438,112.02862504166669,112.76428036250002,61.0,86.0
439,112.02862504166669,112.79296887083335,58.0,83.0
440,113.01223104166668,113.61673889583335,66.0,86.0
441,113.01223104166668,113.63927986666668,61.0,88.0
442,113.01223104166668,113.64747658333334,63.0,87.0
443,113.01223104166668,113.65772247916668,58.0,87.0
444,112.02862504166669,113.76223061666668,51.0,87.0
445,113.99583704166668,114.54296787916668,66.0,85.0
446,113.99583704166668,114.73559072083334,61.0,85.0
447,113.99583704166668,114.73763990000002,58.0,78.0
448,114.97944304166668,115.76222948333334,66.0,84.0
449,114.97944304166668,115.81140978333335,58.0,80.0
450,114.97944304166668,115.83190157500002,61.0,83.0
451,115.96304904166668,117.32780236666669,66.0,73.0
452,115.96304904166668,117.33599908333335,58.0,71.0
453,113.99583704166668,117.37288430833335,42.0,84.0
454,115.96304904166668,117.38927774166669,61.0,68.0
455,117.93026104166668,118.57370330000002,65.0,96.0
456,117.93026104166668,118.64337539166668,58.0,88.0
457,117.93026104166668,118.64542457083336,61.0,100.0
458,117.93026104166668,119.10853906250001,46.0,93.0
459,118.66796554166669,119.13722757083335,53.0,86.0
460,118.91386704166668,119.47739131250002,58.0,100.0
461,118.91386704166668,119.50198146250001,65.0,107.0
462,119.40567004166668,119.62493221250001,46.0,86.0
463,118.91386704166668,119.67411251250002,61.0,113.0
464,119.89747304166669,120.56345627083336,68.0,100.0
465,119.89747304166669,120.60034149583335,65.0,107.0
466,119.89747304166669,120.61263657083335,60.0,102.0
467,120.63517754166668,120.91796426666669,53.0,102.0
468,120.88107904166668,121.16386576666669,68.0,113.0
469,119.89747304166669,121.18435755833335,41.0,94.0
470,120.88107904166668,121.19050509583334,65.0,114.0
471,121.12698054166668,121.38107875833335,53.0,110.0
472,120.88107904166668,121.48148853750001,60.0,116.0
473,121.37288204166668,121.59419339166668,68.0,100.0
474,121.37288204166668,121.64747205000002,65.0,91.0
475,121.86468504166669,122.50197976250001,66.0,100.0
476,121.86468504166669,122.50607812083335,58.0,93.0
477,121.86468504166669,122.69050424583335,63.0,107.0
478,121.86468504166669,122.69870096250001,51.0,88.0
479,121.86468504166669,122.74788126250002,61.0,102.0
480,122.84829104166668,123.33394650416669,44.0,92.0
481,122.84829104166668,123.39337270000001,68.0,100.0
482,122.84829104166668,123.41796285000002,60.0,91.0
483,123.09419254166669,123.42820874583335,51.0,88.0
484,122.84829104166668,123.50812673333336,63.0,107.0
485,123.34009404166669,123.81755278750002,56.0,110.0
486,123.83189704166668,124.07779854166668,61.0,93.0
487,123.83189704166668,124.13312637916668,65.0,96.0
488,123.58599554166668,124.15156899166668,68.0,96.0
489,124.32370004166668,124.72738833750002,61.0,104.0
490,124.81550304166669,125.09214222916668,61.0,100.0
491,124.56960154166669,125.09419140833334,68.0,104.0
492,124.07779854166668,125.20894544166669,56.0,87.0
493,123.83189704166668,125.22738805416668,49.0,91.0
494,124.56960154166669,125.52656821250002,63.0,98.0
495,125.30730604166668,125.55525672083336,68.0,98.0
496,125.06140454166669,125.56960097500001,65.0,91.0
497,125.55320754166668,125.76222381666669,70.0,96.0
498,125.79910904166668,126.20894487500001,70.0,91.0
499,125.79910904166668,126.24787927916668,65.0,108.0
500,125.79910904166668,126.29091204166669,61.0,91.0
501,126.29091204166669,126.85443631250001,58.0,91.0
502,127.02861654166668,127.20279677083334,58.0,91.0
503,126.04501054166668,127.22533774166668,53.0,83.0
504,126.78271504166668,127.26427214583335,65.0,113.0
505,125.79910904166668,127.29296065416668,46.0,93.0
506,126.78271504166668,127.49992775000001,60.0,107.0
507,127.27451804166668,127.58599327500002,61.0,87.0
508,127.52041954166668,127.65156700833334,68.0,87.0
509,127.76632104166669,128.28476337083336,68.0,102.0
510,127.76632104166669,128.35238628333335,65.0,104.0
511,127.76632104166669,128.35853382083334,60.0,100.0
512,128.2581240416667,128.70279592083335,53.0,88.0
513,128.5040255416667,129.0491072,68.0,108.0
514,128.5040255416667,129.061402275,65.0,110.0
515,128.5040255416667,129.0675498125,60.0,102.0
516,127.76632104166669,129.34213982083335,41.0,93.0
517,129.24173004166667,129.41795945,68.0,96.0
518,128.9958285416667,129.4261561666667,53.0,88.0
519,129.24173004166667,129.51632005000002,65.0,96.0
520,129.24173004166667,129.58599214166668,60.0,94.0
521,129.73353304166667,130.4445982125,66.0,94.0
522,129.73353304166667,130.463040825,63.0,104.0
523,129.73353304166667,130.48558179583335,61.0,104.0
524,129.73353304166667,130.51222112500002,58.0,94.0
525,130.71713904166668,131.3605813,58.0,98.0
526,130.71713904166668,131.40771242083335,66.0,102.0
527,130.71713904166668,131.4732861541667,61.0,104.0
528,130.71713904166668,131.4773845125,63.0,107.0
529,129.73353304166667,131.50402384166668,51.0,93.0
530,131.7007450416667,133.10443277083334,58.0,86.0
531,131.7007450416667,133.12287538333334,66.0,89.0
532,131.7007450416667,133.1269737416667,61.0,88.0
533,131.7007450416667,133.27656382083336,42.0,78.0
534,131.7007450416667,133.28066217916668,54.0,78.0
535,133.66795704166668,135.46918552916668,65.0,65.0
536,133.66795704166668,135.48557896250003,61.0,87.0
537,133.66795704166668,135.51631665000002,42.0,78.0
538,133.66795704166668,135.5183658291667,54.0,78.0
539,133.66795704166668,135.52861172500002,57.0,81.0
540,135.63516904166667,137.1720534166667,46.0,91.0
541,135.88107054166667,137.2027911041667,53.0,84.0
542,136.12697204166668,137.20688946250002,58.0,77.0
543,136.37287354166668,137.58188925000002,60.0,78.0
544,136.61877504166668,137.62082365416668,61.0,86.0
545,137.11057804166668,137.69049574583335,65.0,85.0
546,137.6023810416667,139.05524907083336,53.0,85.0
547,137.8482825416667,139.06754414583335,60.0,80.0
548,138.83188854166667,139.18229817916668,68.0,87.0
549,138.0941840416667,139.24787191250002,65.0,78.0
550,138.3400855416667,139.73967491250002,72.0,89.0
551,139.81549454166668,141.08188726666668,58.0,81.0
552,139.56959304166668,141.13311674583335,51.0,84.0
553,140.06139604166668,141.22532980833336,63.0,77.0
554,140.5531990416667,141.37082152916668,70.0,81.0
555,140.30729754166668,141.46918212916668,66.0,71.0
556,141.5368050416667,142.32778820000001,68.0,76.0
557,141.5368050416667,142.35647670833336,61.0,68.0
558,141.5368050416667,142.36877178333336,65.0,76.0
559,142.52041104166668,142.6740994791667,65.0,88.0
560,141.5368050416667,142.67614865833335,49.0,80.0
561,142.52041104166668,142.77860761666668,61.0,83.0
562,143.01221404166668,143.28885322916668,60.0,79.0
563,143.01221404166668,143.48352525,48.0,75.0
564,143.01221404166668,143.49991868333336,63.0,86.0
565,143.50401704166669,143.8708201125,65.0,87.0
566,142.52041104166668,143.90975451666668,68.0,84.0
567,143.50401704166669,144.21918057083334,61.0,79.0
568,143.9958200416667,144.96098342916667,58.0,78.0
569,143.7499185416667,145.0040161916667,53.0,73.0
570,143.50401704166669,145.0511473125,46.0,78.0
571,144.2417215416667,145.22532754166667,60.0,85.0
572,144.9794260416667,145.42204874166669,65.0,86.0
573,144.4876230416667,145.42819627916668,61.0,86.0
574,145.47122904166667,146.10032704583335,68.0,88.0
575,145.47122904166667,146.12491719583335,60.0,86.0
576,146.20893354166668,146.50401534166667,65.0,84.0
577,146.20893354166668,146.54909728333337,60.0,61.0
578,145.47122904166667,147.01426095416667,41.0,84.0
579,146.45483504166668,147.17614610833334,68.0,98.0
580,145.96303204166668,147.1966379,53.0,86.0
581,147.4384410416667,147.9486866541667,58.0,72.0
582,147.4384410416667,148.11467016666668,66.0,84.0
583,147.4384410416667,148.2355717375,63.0,38.0
584,147.4384410416667,148.29089957500003,61.0,61.0
585,148.42204704166667,148.9691778791667,61.0,85.0
586,147.4384410416667,149.00606310416669,51.0,81.0
587,148.1761455416667,149.01835817916668,58.0,86.0
588,149.15975154166668,149.48762020833334,66.0,79.0
589,148.91385004166668,149.4917185666667,63.0,86.0
590,149.8974560416667,150.47737374583335,56.0,84.0
591,150.1433575416667,150.7581112916667,60.0,81.0
592,150.3892590416667,150.85852107083335,68.0,100.0
593,149.40565304166668,151.0327013,44.0,86.0
594,150.8810620416667,151.13106190000002,63.0,87.0
595,150.6351605416667,151.21917660416668,56.0,88.0
596,149.65155454166668,151.37696340000002,51.0,70.0
597,151.1269635416667,151.4158978041667,68.0,87.0
598,151.3728650416667,152.03884827083334,65.0,88.0
599,151.3728650416667,152.13106133333335,61.0,87.0
600,152.11056954166668,152.82573307083337,58.0,88.0
601,151.86466804166668,152.85442157916668,53.0,79.0
602,152.35647104166668,152.86671665416668,65.0,102.0
603,151.3728650416667,152.87491337083335,46.0,86.0
604,152.35647104166668,152.93229038750002,60.0,100.0
605,152.84827404166668,153.26630659166668,61.0,85.0
606,153.8318800416667,154.46097804583334,54.0,84.0
607,153.3400770416667,154.84212537083334,42.0,100.0
608,154.3236830416667,154.94253515000003,58.0,90.0
609,154.3236830416667,154.97737119583334,66.0,93.0
610,154.3236830416667,155.17409239583336,61.0,96.0
611,154.81548604166667,155.29499396666668,54.0,85.0
612,155.30728904166668,156.01220667500002,68.0,98.0
613,155.30728904166668,156.0142558541667,60.0,89.0
614,155.30728904166668,156.06753451250003,63.0,94.0
615,156.04499354166668,156.32368190833336,56.0,88.0
616,155.79909204166668,156.76630460833334,51.0,75.0
617,155.30728904166668,156.82368162500003,44.0,87.0
618,156.2908950416667,156.89130453750002,60.0,102.0
619,156.2908950416667,157.0163044666667,68.0,102.0
620,156.2908950416667,157.04909133333337,63.0,108.0
621,156.7826980416667,157.21302566666668,56.0,87.0
622,157.2745010416667,157.72532045833336,61.0,93.0
623,157.2745010416667,157.7724515791667,65.0,91.0
624,158.01220554166667,158.63720518750003,61.0,87.0
625,158.25810704166668,158.6576969791667,68.0,113.0
626,157.7663040416667,158.74991004166668,56.0,78.0
627,157.2745010416667,158.76630347500003,49.0,87.0
628,158.25810704166668,158.80728705833334,63.0,114.0
629,159.24171304166669,159.8564667916667,70.0,89.0
630,159.24171304166669,159.93023724166667,66.0,92.0
631,159.24171304166669,159.94048313750002,63.0,88.0
632,159.9794175416667,160.8831055541667,58.0,76.0
633,159.24171304166669,160.90359734583336,51.0,96.0
634,160.2253190416667,160.91179406250004,70.0,91.0
635,160.2253190416667,160.93023667500003,63.0,96.0
636,160.2253190416667,160.95072846666667,66.0,104.0
637,161.20892504166667,161.9158918541667,68.0,93.0
638,161.20892504166667,161.95892461666668,65.0,98.0
639,161.20892504166667,161.98761312500002,60.0,90.0
640,162.19253104166668,162.76015367083335,60.0,93.0
641,162.19253104166668,162.77859628333334,65.0,102.0
642,162.19253104166668,162.7888421791667,68.0,92.0
643,161.20892504166667,162.86056345000003,53.0,87.0
644,163.1761370416667,163.8277760166667,66.0,92.0
645,163.1761370416667,163.85646452500004,61.0,102.0
646,163.1761370416667,163.86466124166668,58.0,88.0
647,163.9138415416667,164.29703804583335,54.0,90.0
648,163.1761370416667,164.77244761250003,42.0,100.0
649,164.1597430416667,164.8523656,58.0,102.0
650,164.1597430416667,164.8523656,66.0,102.0
651,164.1597430416667,164.94457866250002,61.0,110.0
652,164.65154604166668,165.01629993333336,54.0,86.0
653,165.14334904166668,165.73761100000002,66.0,104.0
654,165.14334904166668,165.89334861666669,60.0,94.0
655,165.14334904166668,165.90564369166668,63.0,110.0
656,165.14334904166668,166.3728565416667,48.0,96.0
657,166.1269550416667,166.59211871250002,66.0,102.0
658,166.1269550416667,166.63515147500001,63.0,114.0
659,166.1269550416667,166.9691676791667,60.0,107.0
660,166.6187580416667,167.11465940000002,48.0,87.0
661,167.1105610416667,167.7560524791667,57.0,97.0
662,167.1105610416667,167.83597046666668,65.0,110.0
663,167.1105610416667,167.95072450000004,60.0,107.0
664,167.84826554166668,168.25195383750003,53.0,91.0
665,167.1105610416667,168.59621593750003,41.0,96.0
666,168.09416704166668,168.60851101250003,65.0,117.0
667,168.09416704166668,168.61465855000003,57.0,106.0
668,167.60236404166668,168.6720355666667,48.0,79.0
669,168.09416704166668,168.67408474583337,60.0,113.0
670,168.58597004166668,168.9056419916667,53.0,90.0
671,169.0777730416667,169.4281826791667,61.0,98.0
672,169.0777730416667,169.5695760416667,68.0,104.0
673,169.0777730416667,169.61465798333336,65.0,113.0
674,169.8154775416667,170.1781822541667,61.0,86.0
675,170.0613790416667,170.5654771166667,65.0,107.0
676,170.5531820416667,170.70277212083334,61.0,87.0
677,169.5695760416667,170.71506719583337,56.0,77.0
678,169.0777730416667,170.7314606291667,49.0,98.0
679,170.0613790416667,170.76219831666668,73.0,100.0
680,170.0613790416667,170.77654257083336,68.0,116.0
681,171.04498504166668,171.45891923333335,68.0,114.0
682,171.04498504166668,171.48350938333337,72.0,113.0
683,171.04498504166668,171.504001175,63.0,108.0
684,171.78268954166668,172.0777713416667,56.0,98.0
685,172.0285910416667,172.32162366250003,68.0,116.0
686,172.0285910416667,172.3790006791667,60.0,117.0
687,172.0285910416667,172.38104985833337,63.0,119.0
688,171.04498504166668,172.61670546250002,44.0,91.0
689,172.5203940416667,172.7171152416667,60.0,93.0
690,172.5203940416667,172.7785906166667,68.0,91.0
691,172.2744925416667,172.87285285833335,56.0,114.0
692,172.5203940416667,172.87900039583334,63.0,91.0
693,173.0121970416667,173.69867206250004,66.0,96.0
694,173.0121970416667,173.70277042083336,61.0,102.0
695,173.0121970416667,173.70277042083336,63.0,100.0
696,173.0121970416667,173.72121303333336,58.0,94.0
697,173.7499015416667,174.12080297083335,51.0,83.0
698,173.0121970416667,174.42817984583337,39.0,100.0
699,173.9958030416667,174.700720675,66.0,107.0
700,173.9958030416667,174.7089173916667,61.0,110.0
701,173.9958030416667,174.72940918333336,58.0,104.0
702,173.9958030416667,174.7642452291667,63.0,107.0
703,174.48760604166668,174.87285172500003,51.0,87.0
704,174.97940904166668,175.733506975,58.0,93.0
705,174.97940904166668,175.75194958750004,65.0,100.0
706,174.97940904166668,175.77858891666668,61.0,107.0
707,175.7171135416667,176.16383460000003,53.0,91.0
708,174.97940904166668,176.20071982500002,46.0,88.0
709,175.9630150416667,176.6208015541667,58.0,110.0
710,175.9630150416667,176.64539170416668,65.0,114.0
711,175.9630150416667,176.74580148333337,61.0,116.0
712,176.4548180416667,176.88104730833336,44.0,94.0
713,176.9466210416667,177.68022718333336,66.0,108.0
714,176.9466210416667,177.71301405000003,58.0,104.0
715,176.9466210416667,177.7212107666667,61.0,113.0
716,177.68432554166668,178.0039974916667,54.0,113.0
717,176.9466210416667,178.47325952083335,42.0,94.0
718,177.93022704166668,178.62694795833335,66.0,108.0
719,177.93022704166668,178.6658823625,58.0,104.0
720,177.93022704166668,178.71096430416668,61.0,116.0
721,178.4220300416667,178.78063639583337,54.0,102.0
722,178.9138330416667,179.5224392541667,58.0,84.0
723,178.9138330416667,179.5224392541667,65.0,82.0
724,178.9138330416667,179.57366873333336,61.0,88.0
725,178.9138330416667,180.13104546666668,46.0,87.0
726,179.6515375416667,180.18227494583337,53.0,69.0
727,179.8974390416667,180.41793055000002,65.0,94.0
728,179.8974390416667,180.42202890833335,58.0,98.0
729,179.8974390416667,180.44047152083337,61.0,108.0
730,180.3892420416667,180.6904713791667,46.0,82.0
731,180.88104504166668,181.52038894166668,66.0,90.0
732,180.88104504166668,181.55317580833335,63.0,89.0
733,180.88104504166668,181.56137252500002,61.0,89.0
734,180.88104504166668,181.58391349583337,58.0,88.0
735,180.88104504166668,182.31137210000003,51.0,88.0
736,181.8646510416667,182.41792941666668,61.0,89.0
737,181.8646510416667,182.42202777500003,63.0,89.0
738,181.8646510416667,182.43432285000003,66.0,89.0
739,181.8646510416667,182.4855523291667,58.0,88.0
740,182.8482570416667,183.47735504583335,65.0,90.0
741,182.8482570416667,183.50399437500002,57.0,88.0
742,182.8482570416667,183.61260087083335,60.0,96.0
743,183.5859615416667,183.93227282083336,53.0,84.0
744,183.83186304166668,184.30112507083336,57.0,100.0
745,183.83186304166668,184.30317425,65.0,110.0
746,182.8482570416667,184.32366604166668,41.0,87.0
747,183.83186304166668,184.3544037291667,60.0,102.0
748,184.32366604166668,184.63923963333335,53.0,88.0
749,184.8154690416667,185.6330915291667,65.0,92.0
750,184.8154690416667,185.67202593333334,56.0,102.0
751,184.8154690416667,185.7068619791667,61.0,96.0
752,185.7990750416667,185.85440287916668,59.0,100.0
753,184.8154690416667,186.02858310833335,49.0,92.0
754,185.7990750416667,186.2724354291667,56.0,108.0
755,185.7990750416667,186.3523534166667,65.0,100.0
756,185.7990750416667,186.38718946250003,61.0,107.0
757,186.2908780416667,186.72940238333337,49.0,98.0
758,186.7826810416667,187.52243472083336,68.0,94.0
759,186.7826810416667,187.53677897500003,60.0,96.0
760,186.7826810416667,187.54292651250003,63.0,108.0
761,187.52038554166668,187.86874600000002,56.0,96.0
762,186.7826810416667,188.3195654166667,44.0,90.0
763,187.7662870416667,188.34620474583335,68.0,113.0
764,187.7662870416667,188.37079489583337,63.0,119.0
765,187.7662870416667,188.38513915000001,60.0,110.0
766,188.2580900416667,188.5101390791667,56.0,91.0
767,188.7498930416667,189.4076795541667,66.0,88.0
768,188.7498930416667,189.42817134583336,63.0,89.0
769,188.7498930416667,189.43431888333336,58.0,86.0
770,188.7498930416667,189.43431888333336,61.0,88.0
771,189.7334990416667,190.33390853750004,58.0,91.0
772,189.7334990416667,190.35440032916668,66.0,91.0
773,189.7334990416667,190.46915436250003,63.0,94.0
774,189.7334990416667,190.57161332083336,61.0,92.0
775,188.7498930416667,190.61054772500003,51.0,91.0
776,190.71710504166668,191.42817021250002,65.0,96.0
777,190.71710504166668,191.43431775000002,68.0,93.0
778,190.71710504166668,191.51013737916668,61.0,98.0
779,191.7007110416667,191.9712026916667,68.0,93.0
780,191.4548095416667,192.11874359166669,58.0,96.0
781,191.7007110416667,192.15357963750003,60.0,108.0
782,190.71710504166668,192.2232517291667,46.0,88.0
783,191.2089080416667,192.22530090833337,53.0,82.0
784,192.1925140416667,192.4630056916667,65.0,98.0
785,191.9466125416667,192.4691532291667,61.0,91.0
786,192.4384155416667,192.6043990541667,68.0,96.0
787,192.6843170416667,193.4466116916667,66.0,91.0
788,192.6843170416667,193.51628378333336,58.0,93.0
789,192.6843170416667,193.53677557500004,61.0,94.0
790,192.6843170416667,193.86669342083337,54.0,86.0
791,193.66792304166668,194.22939813333335,58.0,102.0
792,193.66792304166668,194.2396440291667,66.0,102.0
793,192.6843170416667,194.24169320833337,42.0,86.0
794,193.66792304166668,194.49374224583335,61.0,108.0
795,194.1597260416667,194.5162832166667,54.0,82.0
796,194.6515290416667,195.26833197083337,70.0,91.0
797,194.6515290416667,195.31341391250004,61.0,89.0
798,194.6515290416667,195.32570898750004,65.0,100.0
799,195.3892335416667,196.1638232666667,58.0,87.0
800,195.1433320416667,196.23554453750003,53.0,63.0
801,195.6351350416667,196.2560363291667,70.0,96.0
802,194.6515290416667,196.27242976250002,46.0,93.0
803,195.6351350416667,196.28472483750002,61.0,100.0
804,195.6351350416667,196.2929215541667,65.0,113.0
805,196.61874104166668,197.2949701666667,68.0,91.0
806,196.61874104166668,197.33390457083337,63.0,110.0
807,196.61874104166668,197.33595375000002,60.0,96.0
808,197.3564455416667,197.73349450833337,56.0,75.0
809,196.61874104166668,198.22529750833337,44.0,88.0
810,197.6023470416667,198.25808437500004,68.0,102.0
811,197.6023470416667,198.27037945000004,60.0,102.0
812,197.6023470416667,198.3523466166667,63.0,114.0
813,198.0941500416667,198.41792035000003,56.0,79.0
814,198.5859530416667,199.14742813333336,70.0,98.0
815,198.5859530416667,199.1515264916667,65.0,104.0
816,198.5859530416667,199.31341164583336,61.0,92.0
817,199.5695590416667,199.88103427500002,60.0,100.0
818,199.81546054166668,199.97734569583335,61.0,87.0
819,198.8318545416667,200.00398502500002,53.0,82.0
820,198.5859530416667,200.20070622500003,46.0,90.0
821,199.3236575416667,200.20275540416668,58.0,93.0
822,200.06136204166668,200.20275540416668,65.0,86.0
823,203.25808154166668,204.01627783333336,61.0,84.0
824,203.01218004166668,204.06135977500003,56.0,70.0
825,202.5203770416667,204.0757040291667,49.0,88.0
826,203.5039830416667,204.45275299583335,63.0,84.0
827,204.4875890416667,205.5511130291667,68.0,86.0
828,204.4875890416667,205.61053922500002,60.0,87.0
829,204.4875890416667,205.9814406541667,44.0,77.0
830,205.4711950416667,205.99578490833335,56.0,86.0
831,205.2252935416667,206.0244734166667,51.0,78.0
832,205.7170965416667,206.05930946250004,60.0,81.0
833,205.9629980416667,206.18226021250004,68.0,83.0
834,206.45480104166668,207.31340711250002,66.0,81.0
835,206.45480104166668,207.6658659291667,63.0,81.0
836,206.45480104166668,207.6966036166667,61.0,80.0
837,206.45480104166668,207.77857078333335,58.0,81.0
838,206.45480104166668,207.93840675833337,51.0,82.0
839,207.6843085416667,208.31545572500002,66.0,86.0
840,207.9302100416667,208.35643930833336,58.0,74.0
841,208.4220130416667,209.05725858333335,65.0,78.0
842,208.4220130416667,209.21914373750002,61.0,85.0
843,209.1597175416667,209.89947122083336,58.0,87.0
844,209.40561904166668,209.95684823750003,60.0,91.0
845,208.9138160416667,209.98143838750002,53.0,75.0
846,208.4220130416667,210.0142252541667,46.0,78.0
847,210.3892250416667,211.12283118333337,66.0,87.0
848,210.3892250416667,211.20479835000003,58.0,82.0
849,211.3728310416667,212.04701098750002,66.0,88.0
850,210.3892250416667,212.06340442083336,42.0,84.0
851,211.1269295416667,212.07979785416669,54.0,75.0
852,209.8974220416667,212.24783054583335,61.0,86.0
853,213.0941415416667,213.83389522083337,58.0,87.0
854,212.84824004166668,213.8379935791667,53.0,77.0
855,213.3400430416667,213.85438701250004,65.0,90.0
856,212.3564370416667,213.87078044583336,46.0,85.0
857,213.3400430416667,213.91586238750003,60.0,88.0
858,213.8318460416667,214.23963269583336,61.0,84.0
859,214.3236490416667,215.02446831666668,66.0,86.0
860,214.3236490416667,215.07774697500003,63.0,88.0
861,214.3236490416667,215.11463220000002,58.0,83.0
862,214.3236490416667,215.6392220666667,51.0,83.0
863,215.3072550416667,215.8974186416667,63.0,90.0
864,215.3072550416667,215.91381207500004,66.0,88.0
865,215.3072550416667,215.95069730000003,58.0,88.0
866,216.2908610416667,216.77856568333337,57.0,93.0
867,216.2908610416667,216.81340172916669,65.0,98.0
868,217.0285655416667,217.2929096541667,58.0,93.0
869,216.7826640416667,217.34413913333336,53.0,92.0
870,217.2744670416667,217.6064340666667,60.0,110.0
871,217.7662700416667,218.02036825833335,58.0,98.0
872,218.0121715416667,218.18020423333337,60.0,88.0
873,217.5203685416667,218.21299110000004,53.0,88.0
874,216.5367625416667,218.22733535416668,48.0,79.0
875,216.2908610416667,218.23143371250003,41.0,83.0
876,218.2580730416667,219.0756955291667,65.0,92.0
877,218.2580730416667,219.11462993333336,56.0,102.0
878,218.2580730416667,219.1494659791667,61.0,96.0
879,219.24167904166669,219.2970068791667,59.0,100.0
880,218.2580730416667,219.47118710833337,49.0,92.0
881,219.24167904166669,219.7150394291667,56.0,108.0
882,219.24167904166669,219.7949574166667,65.0,100.0
883,219.24167904166669,219.82979346250002,61.0,107.0
884,219.7334820416667,220.17200638333335,49.0,98.0
885,220.2252850416667,220.96503872083338,68.0,94.0
886,220.2252850416667,220.97938297500002,60.0,96.0
887,220.2252850416667,220.98553051250002,63.0,108.0
888,220.9629895416667,221.31135000000003,56.0,96.0
889,220.2252850416667,221.7621694166667,44.0,90.0
890,221.2088910416667,221.78880874583336,68.0,113.0
891,221.2088910416667,221.81339889583336,63.0,119.0
892,221.2088910416667,221.82774315000003,60.0,110.0
893,221.7006940416667,221.9527430791667,56.0,91.0
894,222.19249704166668,222.8502835541667,66.0,88.0
895,222.19249704166668,222.87077534583335,63.0,89.0
896,222.19249704166668,222.87692288333335,58.0,86.0
897,222.19249704166668,222.87692288333335,61.0,88.0
898,223.1761030416667,223.77651253750003,58.0,91.0
899,223.1761030416667,223.7970043291667,66.0,91.0
900,223.1761030416667,223.91175836250002,63.0,94.0
901,223.1761030416667,224.01421732083335,61.0,92.0
902,222.19249704166668,224.05315172500002,51.0,91.0
903,224.1597090416667,224.87077421250004,65.0,96.0
904,224.1597090416667,224.87692175000004,68.0,93.0
905,224.1597090416667,224.9527413791667,61.0,98.0
906,225.1433150416667,225.4138066916667,68.0,93.0
907,224.8974135416667,225.5613475916667,58.0,96.0
908,225.1433150416667,225.59618363750002,60.0,108.0
909,224.1597090416667,225.6658557291667,46.0,88.0
910,224.6515120416667,225.66790490833336,53.0,82.0
911,225.6351180416667,225.90560969166668,65.0,98.0
912,225.38921654166668,225.9117572291667,61.0,91.0
913,225.8810195416667,226.0470030541667,68.0,96.0
914,226.1269210416667,226.8892156916667,66.0,91.0
915,226.1269210416667,226.95888778333335,58.0,93.0
916,226.1269210416667,226.97937957500002,61.0,94.0
917,226.1269210416667,227.30929742083336,54.0,86.0
918,227.1105270416667,227.67200213333336,58.0,102.0
919,227.1105270416667,227.6822480291667,66.0,102.0
920,226.1269210416667,227.68429720833336,42.0,86.0
921,227.1105270416667,227.93634624583336,61.0,108.0
922,227.6023300416667,227.9588872166667,54.0,82.0
923,228.0941330416667,228.71093597083336,70.0,91.0
924,228.0941330416667,228.75601791250003,61.0,89.0
925,228.0941330416667,228.76831298750002,65.0,100.0
926,228.8318375416667,229.60642726666669,58.0,87.0
927,228.58593604166668,229.67814853750002,53.0,63.0
928,229.0777390416667,229.6986403291667,70.0,96.0
929,228.0941330416667,229.71503376250004,46.0,93.0
930,229.0777390416667,229.72732883750004,61.0,100.0
931,229.0777390416667,229.73552555416668,65.0,113.0
932,230.0613450416667,230.7375741666667,68.0,91.0
933,230.0613450416667,230.77650857083336,63.0,110.0
934,230.0613450416667,230.77855775000003,60.0,96.0
935,230.7990495416667,231.17609850833335,56.0,75.0
936,230.0613450416667,231.66790150833336,44.0,88.0
937,231.0449510416667,231.70068837500003,68.0,102.0
938,231.0449510416667,231.71298345000002,60.0,102.0
939,231.0449510416667,231.7949506166667,63.0,114.0
940,231.5367540416667,231.86052435000002,56.0,79.0
941,232.0285570416667,232.59003213333335,70.0,98.0
942,232.0285570416667,232.5941304916667,65.0,104.0
943,232.0285570416667,232.75601564583337,61.0,92.0
944,233.0121630416667,233.32363827500004,60.0,100.0
945,233.2580645416667,233.41994969583337,61.0,87.0
946,232.2744585416667,233.44658902500004,53.0,82.0
947,232.0285570416667,233.64331022500002,46.0,90.0
948,232.7662615416667,233.6453594041667,58.0,93.0
949,233.5039660416667,233.6453594041667,65.0,86.0
950,233.9957690416667,235.67199760000003,65.0,87.0
951,234.4875720416667,235.72117790000004,53.0,54.0
952,233.9957690416667,235.73962051250004,46.0,80.0
953,233.9957690416667,235.86666962083336,61.0,87.0
954,235.9629810416667,236.06953835833338,63.0,75.0
955,235.9629810416667,237.49166870000002,53.0,76.0
956,235.9629810416667,237.50396377500005,68.0,80.0
957,235.9629810416667,237.57773422500003,60.0,77.0
958,235.9629810416667,237.58183258333335,65.0,82.0
959,237.9301930416667,238.52445500000005,51.0,83.0
960,237.9301930416667,238.57773365833336,66.0,80.0
961,237.9301930416667,238.6248647791667,58.0,72.0
962,237.9301930416667,238.90560232500005,61.0,76.0
963,238.9137990416667,239.5285527916667,44.0,82.0
964,237.9301930416667,239.81338869583337,63.0,78.0
965,238.9137990416667,239.89330668333338,60.0,76.0
966,238.9137990416667,240.62486364583336,68.0,78.0
967,239.8974050416667,240.63101118333336,49.0,61.0
968,239.8974050416667,240.78469962083338,65.0,76.0
969,239.8974050416667,240.87896186250003,61.0,70.0
970,240.8810110416667,241.5203549416667,68.0,77.0
971,240.8810110416667,241.6125680041667,60.0,77.0
972,240.8810110416667,241.70887942500002,48.0,76.0
973,241.8646170416667,242.37076429583337,70.0,74.0
974,240.8810110416667,242.60641990000002,65.0,80.0
975,241.8646170416667,242.6146166166667,61.0,77.0
976,241.8646170416667,243.34207522083338,46.0,80.0
977,242.3564200416667,243.35437029583338,53.0,64.0
978,243.0941245416667,243.44248500000003,61.0,83.0
979,243.3400260416667,243.79289463750004,70.0,87.0
980,242.6023215416667,243.80314053333336,58.0,83.0
981,243.8318290416667,244.2498615916667,60.0,77.0
982,243.8318290416667,244.49371391250003,65.0,83.0
983,244.3236320416667,244.6310089166667,60.0,86.0
984,244.5695335416667,245.68633618750005,68.0,102.0
985,243.8318290416667,245.81953283333337,53.0,78.0
986,245.0613365416667,246.2293686666667,60.0,80.0
987,246.2908440416667,247.35641720833337,58.0,70.0
988,245.7990410416667,247.4527286291667,51.0,90.0
989,247.0285485416667,247.8092858041667,63.0,73.0
990,246.5367455416667,247.9752693166667,61.0,84.0
991,247.7662530416667,247.9752693166667,61.0,70.0
992,247.7662530416667,248.42608873333336,70.0,83.0
993,247.7662530416667,248.4732198541667,66.0,74.0
994,247.7662530416667,248.76420329583337,42.0,82.0
995,248.7498590416667,249.28879316250004,44.0,76.0
996,248.7498590416667,249.4383832416667,68.0,83.0
997,248.7498590416667,249.50395697500002,60.0,74.0
998,248.7498590416667,249.63305526250002,63.0,84.0
999,249.7334650416667,251.9342834666667,54.0,60.0
1000,249.7334650416667,251.96297197500004,61.0,52.0
1001,249.7334650416667,251.9650211541667,42.0,77.0
1002,249.7334650416667,252.03674242500003,66.0,83.0
1003,249.7334650416667,252.0449391416667,57.0,70.0
