,start,end,pitch,velocity
0,1.6883774395833333,1.9260530958333333,73.0,115.0
1,1.8996446895833332,2.040489522916667,76.0,118.0
2,2.110911939583333,4.417246085416666,78.0,118.0
3,4.646118939583333,4.860907310416667,81.0,123.0
4,4.857386189583333,5.04400559375,80.0,115.0
5,5.068653439583334,5.272878447916667,78.0,115.0
6,5.279920689583333,5.457737291666667,76.0,112.0
7,5.491187939583333,5.6513989375,73.0,115.0
8,5.7024551895833335,5.8239338583333335,76.0,115.0
9,5.913722439583333,8.205972102083333,73.0,121.0
10,8.448929439583333,8.586253152083334,66.0,112.0
11,8.660196689583334,8.781675358333333,69.0,120.0
12,8.871463939583334,11.1654741625,71.0,109.0
13,11.406670939583334,11.580966420833333,73.0,115.0
14,11.617938189583333,11.7358957375,71.0,109.0
15,11.829205439583333,12.035191008333333,69.0,120.0
16,12.040472689583334,12.209486489583334,71.0,106.0
17,12.251739939583333,12.468288870833334,69.0,123.0
18,12.463007189583333,12.67075331875,68.0,112.0
19,12.674274439583334,14.852087675,66.0,106.0
20,15.209481439583334,15.360889635416667,73.0,115.0
21,15.420748689583332,15.526382314583334,76.0,115.0
22,15.632015939583333,17.945392327083333,78.0,115.0
23,18.167222939583333,18.3063072125,81.0,123.0
24,18.37849018958333,18.498208297916666,80.0,112.0
25,18.589757439583334,18.720038910416665,78.0,115.0
26,18.801024689583333,18.97532017083333,76.0,112.0
27,19.012291939583335,19.149615652083334,73.0,112.0
28,19.223559189583334,19.348558979166665,76.0,115.0
29,19.434826439583333,21.746442266666666,73.0,115.0
30,21.970033439583332,22.105596591666668,66.0,112.0
31,22.181300689583335,22.290455435416668,69.0,120.0
32,22.392567939583333,24.705944327083333,71.0,106.0
33,24.927774939583333,25.08270425625,73.0,112.0
34,25.139042189583332,25.265802539583333,71.0,106.0
35,25.350309439583334,25.5210838,69.0,123.0
36,25.561576689583333,25.76932281875,71.0,112.0
37,25.772843939583332,25.90136485,69.0,109.0
38,25.984111189583334,26.119674341666666,68.0,117.0
39,26.195378439583333,28.90488092083333,66.0,109.0
40,61.10131811875,61.24920519375,69.0,120.0
41,61.31258536875001,61.41997955416667,71.0,106.0
42,61.523852618750006,61.84251405416667,73.0,109.0
43,61.94638711875,62.250964070833334,69.0,120.0
44,62.36892161875,62.652371845833336,71.0,112.0
45,62.791456118750006,63.134765400000006,68.0,112.0
46,63.21399061875,64.64708679791667,66.0,96.0
47,67.86187011875,68.02208111666667,73.0,106.0
48,68.07313736875,68.184052675,76.0,112.0
49,68.28440461875,68.6382772625,73.0,118.0
50,68.70693911875,69.06433288333334,71.0,106.0
51,69.12947361875,69.94637365208334,73.0,106.0
52,69.97454261875001,71.17172370208334,78.0,104.0
53,75.04495661875,75.41467430625,71.0,96.0
54,75.46749111875,75.79143423541667,69.0,117.0
55,75.89002561875,76.26326442708334,69.0,117.0
56,76.31256011875,76.65762996041667,66.0,104.0
57,76.73509461875,77.87769832916666,68.0,104.0
58,81.59424136875,81.87945215625001,66.0,104.0
59,81.80550861875,82.03614203333333,69.0,117.0
60,82.01677586875,82.28262049166668,71.0,101.0
61,82.22804311875001,82.47276101666667,69.0,123.0
62,82.43931036875,82.68578882708334,66.0,101.0
63,82.65057761875,82.85304206666667,69.0,120.0
64,82.86184486875001,83.14705565625,71.0,96.0
65,83.07311211875,83.28613992916667,73.0,112.0
66,83.28437936875,83.55198455208334,76.0,104.0
67,83.49564661875,84.34599730000001,78.0,112.0
68,108.5923177125,108.81062720416668,73.0,112.0
69,108.80358496250001,109.05358454166667,71.0,101.0
70,109.0148522125,109.236682825,73.0,115.0
71,109.22611946250001,109.4373867125,76.0,115.0
72,109.4373867125,110.27013178958333,73.0,115.0
73,110.28245571250001,110.54477921458334,76.0,112.0
74,110.4937229625,110.64337059791667,73.0,94.0
75,110.70499021250001,111.87752345000001,78.0,101.0
76,114.0852662125,114.98843370625,76.0,112.0
77,116.40920596250001,116.60638872916667,76.0,91.0
78,116.6204732125,116.76131804583333,73.0,94.0
79,116.83174046250001,116.96730361458334,71.0,106.0
80,117.0430077125,117.37751419166668,73.0,101.0
81,117.4655422125,118.82117373333334,69.0,110.0
82,117.4655422125,118.84758213958334,66.0,94.0
83,118.94441296250001,119.06941275208334,78.0,112.0
84,119.1556802125,119.42152483541668,81.0,117.0
85,119.36694746250001,119.59053863541666,78.0,112.0
86,119.5782147125,119.7894819625,76.0,109.0
87,119.7894819625,120.87046605833334,78.0,118.0
88,122.5359562125,122.72433617708333,73.0,118.0
89,122.7472234625,122.86342045,71.0,112.0
90,122.95849071250001,123.67503880208334,73.0,118.0
91,123.8035597125,123.90567221666667,73.0,112.0
92,124.2260942125,124.34581232083335,73.0,112.0
93,124.6486287125,125.74256587500001,73.0,112.0
94,130.6407752625,130.9407749625,66.0,115.0
95,131.0693462625,132.12648806250002,73.0,112.0
96,132.35505926250002,132.478273425,71.0,112.0
97,132.5693447625,132.68184465000002,69.0,120.0
98,132.7836302625,133.0693442625,68.0,109.0
99,133.2122012625,133.513986675,69.0,120.0
100,133.6407722625,134.10862893750001,68.0,115.0
101,134.0907718125,134.3175573,66.0,115.0
102,134.30862873750002,134.549699925,64.0,115.0
103,135.785412975,136.0318413,81.0,78.0
104,135.999698475,136.19612685,83.0,86.0
105,136.21398397500002,136.6461264,85.0,95.0
106,136.642554975,137.121125925,81.0,91.0
107,134.49791426250002,137.156840175,66.0,112.0
108,137.071125975,137.499696975,83.0,94.0
109,137.4979112625,137.7889824,66.0,92.0
110,137.499696975,137.928267975,80.0,78.0
111,137.928267975,138.58098357916668,78.0,78.0
112,137.9264822625,138.89084221250002,69.0,120.0
113,139.20246140625,139.32746119583334,66.0,112.0
114,139.41372865625002,139.51232003958333,69.0,117.0
115,139.62499590625,139.915488375,71.0,109.0
116,140.04753040625002,140.2852060625,71.0,109.0
117,140.47006490625,140.62851534375,73.0,112.0
118,140.68133215625,140.84154315416666,74.0,113.0
119,140.89259940625,141.07393712916667,73.0,109.0
120,141.10386665625,141.19717635833334,71.0,106.0
121,141.31513390625,142.45949817708333,73.0,115.0
122,142.58449796666667,142.85386371041668,73.0,112.0
123,143.00703246666666,143.3063277375,73.0,112.0
124,143.42956696666667,144.10914328750002,73.0,112.0
125,144.27287540625,144.40315687708335,73.0,109.0
126,144.48414265625001,144.5950579625,76.0,112.0
127,144.69540990625,145.76935176041667,78.0,112.0
128,145.96301340625,146.08977375625,76.0,118.0
129,146.17428065625,146.29751988541668,73.0,112.0
130,146.38554790625,147.50174321041666,71.0,101.0
131,147.65315140625,147.76582727291668,69.0,117.0
132,147.86441865625,147.95244667708334,71.0,106.0
133,148.07568590625002,149.07744478333333,73.0,112.0
134,149.34328940625,149.43659910833333,71.0,106.0
135,149.55455665625,149.66371140208335,73.0,106.0
136,149.76758446666668,150.13202047291668,81.0,103.0
137,150.19011896666666,150.47709031458334,80.0,103.0
138,150.61265346666667,150.93131490208333,80.0,103.0
139,149.76582390625,151.08624421875,66.0,109.0
140,151.03518796666668,151.33624379791667,78.0,103.0
141,151.45596190625,151.70948260625,68.0,109.0
142,151.87849640625,152.14962271041668,66.0,109.0
143,151.45772246666667,152.23060848958335,80.0,98.0
144,152.30103090625,152.5387065625,64.0,115.0
145,152.72356540625,153.35384603541667,68.0,112.0
146,153.56863440625,153.69715531666668,64.0,112.0
147,153.77990165625,153.8908169625,61.0,109.0
148,153.99116890625,154.30102753958334,69.0,117.0
149,154.41370340625,154.68835083125,68.0,106.0
150,154.83623790625,157.45982548333333,66.0,112.0
151,183.26859699791666,183.48690648958333,73.0,112.0
152,183.47986424791668,183.72986382708334,71.0,101.0
153,183.69113149791667,183.91296211041666,73.0,115.0
154,183.90239874791666,184.11366599791666,76.0,115.0
155,184.11366599791666,184.94641107500001,73.0,115.0
156,184.95873499791668,185.2210585,76.0,112.0
157,185.17000224791667,185.31964988333334,73.0,94.0
158,185.38126949791666,186.5589589125,78.0,101.0
159,188.7982423875,189.7143129,76.0,112.0
160,191.1553828875,191.35314415208333,76.0,91.0
161,191.36722863541667,191.50807346875,73.0,94.0
162,191.5784958854167,191.71405903750002,71.0,106.0
163,191.78976313541668,192.12426961458334,73.0,101.0
164,192.21229763541666,193.56792915625002,69.0,110.0
165,192.21229763541666,193.59433756250002,66.0,94.0
166,193.6911683854167,193.816168175,78.0,112.0
167,193.90243563541668,194.16828025833334,81.0,117.0
168,194.11370288541667,194.33729405833333,78.0,112.0
169,194.32497013541666,194.53623738541668,76.0,109.0
170,194.53623738541668,195.61722148125,78.0,118.0
171,197.2963189125,197.48739015,73.0,118.0
172,197.5106044125,197.6284614375,71.0,112.0
173,197.7248899125,198.4516749,73.0,118.0
174,198.58203191249999,198.6856032375,73.0,112.0
175,199.0106029125,199.1320313625,73.0,112.0
176,199.4391739125,200.540958525,73.0,112.0
177,202.4391709125,202.6820278125,66.0,118.0
178,202.8677419125,203.57128722916667,66.0,115.0
179,203.71741374375,204.08713143125001,69.0,120.0
180,204.13994824375,204.45860967916667,71.0,115.0
181,204.56248274375,204.9374821125,73.0,115.0
182,204.98501724375,205.39522782083333,69.0,120.0
183,205.40755174375,205.75966382708333,66.0,115.0
184,205.83008624375,206.46036687291667,69.0,123.0
185,206.46388799375,206.61353562916668,71.0,112.0
186,206.67515524375,206.84064792291667,73.0,115.0
187,206.88642249375002,206.97445051458334,71.0,109.0
188,207.09768974375,207.21564729166667,73.0,109.0
189,207.30895699375,207.44980182708335,76.0,112.0
