,start,end,pitch,velocity
0,13.48,13.8675,68.0,90.0
1,14.08,14.57,68.0,92.0
2,14.68,15.4125,61.0,83.0
3,15.88,16.34,64.0,83.0
4,16.48,16.72875,61.0,83.0
5,16.78,16.99625,59.0,85.0
6,17.080000000000002,17.99875,61.0,85.0
7,18.28,18.52375,61.0,86.0
8,18.580000000000002,18.785,64.0,88.0
9,18.88,19.04125,64.0,85.0
10,19.18,19.34375,64.0,85.0
11,19.48,19.900000000000002,64.0,95.0
12,20.080000000000002,20.305,64.0,88.0
13,20.38,20.59875,61.0,85.0
14,20.68,21.145,64.0,92.0
15,21.28,21.75625,68.0,83.0
16,21.88,22.80875,68.0,87.0
17,23.080000000000002,23.54,68.0,85.0
18,23.68,24.1,71.0,92.0
19,24.28,24.76125,61.0,92.0
20,24.88,25.37875,64.0,88.0
21,25.48,26.0025,61.0,88.0
22,26.080000000000002,26.33625,61.0,85.0
23,26.38,26.6025,59.0,85.0
24,26.68,27.3475,56.0,87.0
25,27.88,28.04125,66.0,75.0
26,28.18,28.35375,66.0,82.0
27,28.48,28.6625,66.0,82.0
28,28.78,28.97375,68.0,83.0
29,29.080000000000002,29.56125,59.0,90.0
30,29.68,30.17875,63.0,86.0
31,30.28,32.50625,61.0,83.0
32,32.68,32.8375,73.0,92.0
33,32.980000000000004,33.1275,73.0,90.0
34,33.28,33.4575,73.0,88.0
35,33.58,33.84625,73.0,92.0
36,33.88,34.37125,68.0,92.0
37,34.480000000000004,34.67625,71.0,83.0
38,34.78,35.24,71.0,88.0
39,35.38,35.5725,71.0,83.0
40,35.68,35.9125,71.0,86.0
41,35.980000000000004,36.1975,68.0,88.0
42,36.28,36.48375,73.0,95.0
43,36.58,37.2875,71.0,88.0
44,37.480000000000004,37.65875,69.0,85.0
45,37.78,37.9425,69.0,84.0
46,38.08,38.2275,69.0,86.0
47,38.38,38.53625,69.0,85.0
48,38.68,39.12375,69.0,87.0
49,39.28,39.50625,61.0,84.0
50,39.58,40.04125,64.0,87.0
51,40.18,40.35375,64.0,81.0
52,40.480000000000004,40.667500000000004,66.0,82.0
53,40.78,40.9425,64.0,83.0
54,41.08,41.268750000000004,66.0,82.0
55,41.38,42.07125,68.0,88.0
56,42.28,42.4375,73.0,92.0
57,42.58,42.7275,73.0,90.0
58,42.88,43.0575,73.0,88.0
59,43.18,43.44625,73.0,92.0
60,43.480000000000004,43.97125,68.0,92.0
61,44.08,44.27625,71.0,83.0
62,44.38,44.84,71.0,88.0
63,44.980000000000004,45.1725,71.0,83.0
64,45.28,45.5125,71.0,86.0
65,45.58,45.7975,68.0,88.0
66,45.88,46.08375,73.0,95.0
67,46.18,46.8875,71.0,88.0
68,47.08,47.29375,73.0,97.0
69,47.38,47.5675,73.0,92.0
70,47.68,47.82875,73.0,90.0
71,47.980000000000004,48.18385678125,73.0,92.0
72,48.2805904375,48.759233593750004,76.0,85.0
73,48.8836054375,49.08084159375,73.0,85.0
74,49.1851129375,49.642399312500004,71.0,87.0
75,49.7881279375,49.96149475,71.0,88.0
76,50.0896354375,50.293153000000004,71.0,90.0
77,50.3911429375,50.5921479375,71.0,88.0
78,50.6926504375,50.9137559375,68.0,88.0
79,50.9941579375,51.560740781250004,71.0,87.0
80,51.898680437500005,52.09214775,66.0,82.0
81,52.200187937500004,52.433856250000005,66.0,85.0
82,52.501695437500004,52.690137625,64.0,83.0
83,52.803202937500004,53.04064009375,66.0,82.0
84,53.1047104375,53.315765687500004,68.0,79.0
85,53.4062179375,53.654961625,66.0,78.0
86,53.7077254375,53.93511234375,64.0,85.0
87,54.0092329375,54.08837865625,66.0,81.0
88,54.1599866875,54.2504389375,66.0,81.0
89,54.3107404375,54.55320271875,68.0,87.0
90,54.6122479375,54.835866,66.0,83.0
91,54.9137554375,55.139886062500004,68.0,87.0
92,55.2152629375,55.74164478125,71.0,84.0
93,56.7228004375,56.94516221875,64.0,88.0
94,57.0243079375,57.21720365625001,66.0,82.0
95,57.32470365625,57.55720365625,68.0,85.0
96,57.624703656250006,57.80720365625,71.0,83.0
97,57.92470365625,58.367203656250005,71.0,92.0
98,58.524703656250004,58.98095365625,63.0,88.0
99,59.124703656250006,60.96345365625,61.0,87.0
100,61.524703656250004,61.911922968750005,68.0,90.0
101,62.12389278125,62.61267023125,68.0,92.0
102,62.72239578125,63.453068193750006,61.0,83.0
103,63.91940178125,64.37825408125,64.0,83.0
104,64.51790478125,64.76603415,61.0,83.0
105,64.81715628125,65.0328667375,59.0,85.0
106,65.11640778125,66.0328655,61.0,85.0
107,66.31341378125,66.556555625,61.0,86.0
108,66.61266528125,66.81715380625,64.0,88.0
109,66.91191678125,67.0727644625,64.0,85.0
110,67.21116828125,67.37450972500001,64.0,85.0
111,67.51041978125001,67.92937188125,64.0,95.0
112,68.10892278125,68.33336140625,64.0,88.0
113,68.40817428125,68.6263785,61.0,85.0
114,68.70742578125001,69.17126560625,64.0,92.0
115,69.30592878125,69.7809905375,68.0,83.0
116,69.90443178125,70.83086455,68.0,87.0
117,71.10143778125,71.56029008125,68.0,85.0
118,71.69994078125,72.11889288125,71.0,92.0
119,72.29844378125,72.7784930625,61.0,92.0
120,72.89694678125001,73.3944524,64.0,88.0
121,73.49544978125,74.01664614375001,61.0,88.0
122,74.09395278125001,74.34956343750001,61.0,85.0
123,74.39320428125001,74.61514914375,59.0,85.0
124,74.69245578125,75.35829036875,56.0,87.0
125,75.88946178125,76.05030946250001,66.0,75.0
126,76.18871328125,76.362029775,66.0,82.0
127,76.48796478125,76.67000944375,66.0,82.0
128,76.78721628125001,76.980482875,68.0,83.0
129,77.08646778125001,77.5665170625,59.0,90.0
130,77.68497078125,78.18247640000001,63.0,86.0
131,78.28347378125001,80.5041692875,61.0,83.0
132,80.67748578125,80.83459281875,73.0,92.0
133,80.97684020000001,81.1243402,73.0,90.0
134,81.27684020000001,81.4543402,73.0,88.0
135,81.5768402,81.8430902,73.0,92.0
136,81.8768402,82.36809020000001,68.0,92.0
137,82.47684020000001,82.6730902,71.0,83.0
138,82.77684020000001,83.2368402,71.0,88.0
139,83.3768402,83.56934020000001,71.0,83.0
140,83.6768402,83.9093402,71.0,86.0
141,83.97684020000001,84.19434020000001,68.0,88.0
142,84.27684020000001,84.48059020000001,73.0,95.0
143,84.5768402,85.2843402,71.0,88.0
144,85.47684020000001,85.6555902,69.0,85.0
145,85.77684020000001,85.9393402,69.0,84.0
146,86.0768402,86.2243402,69.0,86.0
147,86.3768402,86.5330902,69.0,85.0
148,86.6768402,87.12059020000001,69.0,87.0
149,87.27684020000001,87.5030902,61.0,84.0
150,87.5768402,88.03809020000001,64.0,87.0
151,88.1768402,88.35059020000001,64.0,81.0
152,88.47684020000001,88.66434020000001,66.0,82.0
153,88.77684020000001,88.9393402,64.0,83.0
154,89.0768402,89.2655902,66.0,82.0
155,89.3768402,90.0680902,68.0,88.0
156,90.27684020000001,90.43434020000001,73.0,92.0
157,90.5768402,90.7243402,73.0,90.0
158,90.8768402,91.05434020000001,73.0,88.0
159,91.17684020000002,91.4430902,73.0,92.0
160,91.47684020000001,91.9680902,68.0,92.0
161,92.0768402,92.27309020000001,71.0,83.0
162,92.3768402,92.83684020000001,71.0,88.0
163,92.97684020000001,93.16934020000001,71.0,83.0
164,93.27684020000001,93.50934020000001,71.0,86.0
165,93.5768402,93.79434020000001,68.0,88.0
166,93.8768402,94.0805902,73.0,95.0
167,94.17684020000002,94.88434020000001,71.0,88.0
168,95.0768402,95.29059020000001,73.0,97.0
169,95.3768402,95.5643402,73.0,92.0
170,95.67684020000002,95.82559020000001,73.0,90.0
171,95.97684020000001,96.18059020000001,73.0,92.0
172,96.27684020000001,96.7530902,76.0,85.0
173,96.8768402,97.07309020000001,73.0,85.0
174,97.17684020000002,97.6318402,71.0,87.0
175,97.77684020000001,97.94934020000001,71.0,88.0
176,98.0768402,98.27934020000001,71.0,90.0
177,98.3768402,98.5768402,71.0,88.0
178,98.67684020000002,98.89684020000001,68.0,88.0
179,98.97684020000001,99.54059020000001,71.0,87.0
180,99.8768402,100.0693402,66.0,82.0
181,100.17684020000002,100.4093402,66.0,85.0
182,100.47684020000001,100.66434020000001,64.0,83.0
183,100.77684020000001,101.01309020000001,66.0,82.0
184,101.0768402,101.2868402,68.0,79.0
185,101.3768402,101.6243402,66.0,78.0
186,101.67684020000002,101.90309020000001,64.0,85.0
187,101.97684020000001,102.05559020000001,66.0,81.0
188,102.1268402,102.21684020000001,66.0,81.0
189,102.27684020000001,102.5180902,68.0,87.0
190,102.5768402,102.7993402,66.0,83.0
191,102.8768402,103.10184020000001,68.0,87.0
192,103.17684020000002,103.70059020000001,71.0,84.0
193,104.67684020000002,104.89809020000001,64.0,88.0
194,104.97684020000001,105.16934020000001,66.0,82.0
195,105.27684020000001,105.50934020000001,68.0,85.0
196,105.5768402,105.75934020000001,71.0,83.0
197,105.8768402,106.3193402,71.0,92.0
198,106.47684020000001,106.77684020000001,68.0,88.0
199,106.77684020000001,108.61559020000001,73.0,87.0
