,start,end,pitch,velocity
0,1.48,1.74,64.0,79.0
1,1.48,1.74125,61.0,77.0
2,1.48,1.7525,56.0,73.0
3,1.48,1.78375,37.0,87.0
4,2.08,2.26625,61.0,78.0
5,2.08,2.2775,64.0,81.0
6,2.08,2.28125,56.0,73.0
7,2.08,2.3112500000000002,37.0,85.0
8,2.68,2.8525,37.0,85.0
9,2.68,2.8575,61.0,75.0
10,2.68,2.86875,56.0,73.0
11,2.68,2.88875,64.0,74.0
12,3.2800000000000002,3.4987500000000002,37.0,85.0
13,3.2800000000000002,3.5175,61.0,78.0
14,3.2800000000000002,3.5387500000000003,64.0,77.0
15,3.2800000000000002,3.5475,56.0,76.0
16,3.88,4.155,63.0,83.0
17,3.88,4.165,44.0,82.0
18,3.88,4.18,56.0,72.0
19,4.48,4.68625,63.0,83.0
20,4.48,4.69,56.0,75.0
21,4.48,4.7175,44.0,81.0
22,5.08,5.2775,63.0,81.0
23,5.08,5.2825,56.0,73.0
24,5.08,5.285,59.0,74.0
25,5.08,5.35375,44.0,82.0
26,5.68,6.05625,44.0,82.0
27,5.68,6.05625,56.0,73.0
28,5.68,6.0575,63.0,82.0
29,5.68,6.0687500000000005,59.0,76.0
30,6.28,6.445,45.0,81.0
31,6.28,6.5325,61.0,81.0
32,6.28,6.53625,57.0,80.0
33,6.88,7.01625,45.0,76.0
34,6.88,7.0600000000000005,61.0,75.0
35,6.88,7.065,57.0,71.0
36,6.88,7.0725,64.0,75.0
37,7.48,7.6137500000000005,45.0,83.0
38,7.48,7.65,57.0,76.0
39,7.48,7.65875,61.0,77.0
40,7.48,7.775,64.0,77.0
41,8.08,8.255,45.0,83.0
42,8.08,8.27,57.0,82.0
43,8.08,8.2875,61.0,80.0
44,8.08,8.32625,64.0,77.0
45,8.68,8.8825,44.0,82.0
46,8.68,8.883750000000001,63.0,81.0
47,8.68,8.8975,56.0,76.0
48,9.28,9.477500000000001,44.0,82.0
49,9.28,9.481250000000001,56.0,78.0
50,9.28,9.50375,63.0,77.0
51,9.88,10.085,63.0,81.0
52,9.88,10.08625,44.0,82.0
53,9.88,10.105,56.0,76.0
54,10.48,10.7225,56.0,80.0
55,10.48,10.870000000000001,60.0,85.0
56,10.48,10.99375,63.0,83.0
57,10.48,11.00625,44.0,83.0
58,10.78,11.02125,56.0,83.0
59,11.08,12.6975,56.0,74.0
60,11.08,12.71875,63.0,81.0
61,12.88,12.95875,56.0,78.0
62,12.58,13.445,51.0,67.0
63,12.88,13.4525,60.0,84.0
64,11.08,13.467500000000001,44.0,83.0
65,12.88,13.48,63.0,84.0
66,12.88,13.48,68.0,80.0
67,13.18,13.4875,56.0,76.0
68,13.48,13.4875,56.0,68.0
69,13.48,13.58125,49.0,81.0
70,13.48,13.61125,52.0,72.0
71,13.48,13.80625,37.0,88.0
72,13.780000000000001,13.8775,56.0,75.0
73,13.780000000000001,13.88,49.0,76.0
74,13.780000000000001,13.88625,52.0,81.0
75,14.08,14.17375,49.0,81.0
76,14.08,14.18375,52.0,83.0
77,14.08,14.2075,56.0,82.0
78,14.08,14.235,37.0,88.0
79,14.38,14.495000000000001,49.0,80.0
80,14.68,14.775,49.0,75.0
81,14.68,14.793750000000001,52.0,82.0
82,14.68,14.79625,37.0,88.0
83,14.68,14.81375,56.0,79.0
84,14.98,15.105,49.0,76.0
85,15.280000000000001,15.610000000000001,37.0,86.0
86,15.280000000000001,15.66625,52.0,87.0
87,15.280000000000001,15.67125,56.0,84.0
88,15.280000000000001,15.685,61.0,82.0
89,15.58,15.7675,49.0,81.0
90,15.88,15.94,49.0,70.0
91,15.88,15.99625,52.0,82.0
92,15.88,16.00625,56.0,82.0
93,15.88,16.017500000000002,61.0,82.0
94,15.88,16.03625,37.0,87.0
95,16.18,16.30625,49.0,76.0
96,16.48,16.56375,52.0,81.0
97,16.48,16.57875,56.0,81.0
98,16.48,16.583750000000002,37.0,85.0
99,16.48,16.6075,61.0,82.0
100,16.78,16.88125,49.0,85.0
101,17.080000000000002,17.18875,52.0,84.0
102,17.080000000000002,17.1925,56.0,82.0
103,17.080000000000002,17.21625,61.0,81.0
104,17.080000000000002,17.26375,37.0,86.0
105,17.38,17.50125,49.0,81.0
106,17.68,17.9225,37.0,81.0
107,17.68,18.1675,61.0,81.0
108,17.68,18.17875,56.0,82.0
109,17.68,18.19125,52.0,83.0
110,17.98,18.19375,44.0,92.0
111,18.28,18.41375,49.0,76.0
112,18.28,18.42125,61.0,76.0
113,18.28,18.423750000000002,52.0,79.0
114,18.28,18.42875,56.0,78.0
115,18.28,18.4925,37.0,95.0
116,18.580000000000002,18.673750000000002,49.0,72.0
117,18.88,18.927500000000002,49.0,70.0
118,18.88,18.99625,52.0,84.0
119,18.88,19.00375,56.0,82.0
120,18.88,19.03125,61.0,81.0
121,18.88,19.03875,37.0,88.0
122,19.18,19.29,49.0,82.0
123,19.48,19.59125,52.0,83.0
124,19.48,19.6,56.0,77.0
125,19.48,19.63,61.0,74.0
126,19.48,19.81375,37.0,84.0
127,19.78,19.89875,49.0,83.0
128,20.080000000000002,20.2525,37.0,92.0
129,20.080000000000002,20.32375,52.0,83.0
130,20.080000000000002,20.38125,56.0,83.0
131,20.080000000000002,20.40125,61.0,83.0
132,20.38,20.580000000000002,39.0,95.0
133,20.68,20.84375,52.0,82.0
134,20.68,20.868750000000002,56.0,72.0
135,20.68,20.9525,40.0,87.0
136,20.98,21.09625,52.0,79.0
137,21.28,21.32875,52.0,77.0
138,21.28,21.48,56.0,84.0
139,21.28,21.68,59.0,82.0
140,21.580000000000002,21.69125,56.0,42.0
141,21.28,21.71375,40.0,78.0
142,21.580000000000002,21.7475,52.0,84.0
143,21.88,22.0225,51.0,84.0
144,21.88,22.22625,56.0,79.0
145,22.18,22.306250000000002,51.0,82.0
146,21.88,22.31,44.0,81.0
147,22.48,22.58875,51.0,85.0
148,22.48,22.87,56.0,86.0
149,22.48,22.89,59.0,83.0
150,22.48,22.89125,44.0,84.0
151,22.78,22.9425,51.0,84.0
152,23.080000000000002,23.22125,56.0,80.0
153,23.080000000000002,23.2525,61.0,82.0
154,23.080000000000002,23.27,64.0,80.0
155,23.080000000000002,23.31,37.0,83.0
156,23.38,23.5275,56.0,81.0
157,23.68,23.8225,56.0,81.0
158,23.68,23.87875,61.0,83.0
159,23.68,23.9225,64.0,83.0
160,23.68,24.01875,37.0,87.0
161,23.98,24.13375,56.0,80.0
162,24.28,24.4025,56.0,79.0
163,24.28,24.45625,61.0,82.0
164,24.28,24.462500000000002,64.0,77.0
165,24.28,24.5125,37.0,71.0
166,24.580000000000002,24.70125,56.0,79.0
167,24.88,24.99875,56.0,76.0
168,24.88,25.07875,61.0,83.0
169,24.88,25.085,64.0,81.0
170,24.88,25.146250000000002,37.0,92.0
171,25.18,25.25875,61.0,68.0
172,25.18,25.27,64.0,63.0
173,25.18,25.30375,56.0,80.0
174,25.48,25.5825,56.0,77.0
175,25.48,25.618750000000002,61.0,82.0
176,25.48,25.6325,64.0,79.0
177,25.48,25.68625,37.0,97.0
178,25.78,25.91125,56.0,81.0
179,26.080000000000002,26.17875,56.0,76.0
180,26.080000000000002,26.2225,61.0,84.0
181,26.080000000000002,26.243750000000002,64.0,81.0
182,26.080000000000002,26.33625,37.0,82.0
183,26.38,26.5075,56.0,80.0
184,26.68,26.825,56.0,75.0
185,26.68,26.95625,37.0,90.0
186,26.68,27.0225,64.0,80.0
187,26.68,27.035,61.0,81.0
188,26.98,27.1475,56.0,81.0
189,27.28,27.56875,37.0,97.0
190,27.28,27.71125,56.0,81.0
191,27.28,27.75875,64.0,83.0
192,27.580000000000002,27.7775,44.0,90.0
193,27.28,27.7775,61.0,86.0
194,27.88,28.0225,54.0,77.0
195,27.88,28.04375,57.0,76.0
196,27.88,28.0475,61.0,82.0
197,27.88,28.08625,42.0,82.0
198,28.18,28.315,54.0,77.0
199,28.48,28.5775,54.0,81.0
200,28.48,28.6575,57.0,85.0
201,28.48,28.66875,61.0,82.0
202,28.48,28.77375,42.0,87.0
203,28.78,28.91375,54.0,81.0
204,29.080000000000002,29.20125,54.0,81.0
205,29.080000000000002,29.2375,63.0,85.0
206,29.080000000000002,29.265,59.0,86.0
207,29.080000000000002,29.2875,47.0,87.0
208,29.38,29.48375,54.0,80.0
209,29.68,29.78625,54.0,82.0
210,29.68,30.06375,47.0,95.0
211,29.68,30.08875,59.0,84.0
212,29.98,30.09875,54.0,81.0
213,29.68,30.11,63.0,83.0
214,30.28,30.385,56.0,81.0
215,30.28,30.41,37.0,97.0
216,30.28,30.43,61.0,83.0
217,30.28,30.431250000000002,64.0,74.0
218,30.580000000000002,30.69,56.0,79.0
219,30.88,30.97375,56.0,79.0
220,30.88,30.99125,37.0,81.0
221,30.88,30.997500000000002,61.0,85.0
222,30.88,31.00875,64.0,81.0
223,31.18,31.28,56.0,83.0
224,31.48,31.58125,56.0,82.0
225,31.48,31.60625,61.0,88.0
226,31.48,31.61625,64.0,82.0
227,31.48,31.740000000000002,37.0,92.0
228,31.78,31.927500000000002,56.0,83.0
229,32.08,32.230000000000004,56.0,81.0
230,32.08,32.3225,61.0,87.0
231,32.08,32.32625,64.0,81.0
232,32.08,32.35875,32.0,97.0
233,32.38,32.44375,64.0,74.0
234,32.38,32.49875,61.0,77.0
235,32.38,32.58125,56.0,87.0
236,32.38,32.62625,35.0,97.0
237,32.68,32.78,56.0,77.0
238,32.68,32.78,61.0,82.0
239,32.68,32.79875,64.0,80.0
240,32.68,32.82125,49.0,78.0
241,32.68,32.8675,37.0,82.0
242,32.980000000000004,33.06875,61.0,84.0
243,32.980000000000004,33.07,56.0,81.0
244,32.980000000000004,33.0925,64.0,81.0
245,33.28,33.38125,56.0,81.0
246,33.28,33.385,61.0,83.0
247,33.28,33.41375,64.0,81.0
248,33.28,33.44,49.0,83.0
249,33.28,33.50125,37.0,83.0
250,33.58,33.65875,56.0,78.0
251,33.58,33.660000000000004,61.0,83.0
252,33.58,33.67875,64.0,79.0
253,33.88,33.97375,56.0,79.0
254,33.88,33.9775,61.0,83.0
255,33.88,33.995,64.0,80.0
256,33.88,34.01375,49.0,82.0
257,33.88,34.08625,37.0,82.0
258,34.18,34.261250000000004,56.0,76.0
259,34.18,34.27375,61.0,83.0
260,34.18,34.28125,64.0,79.0
261,34.480000000000004,34.58625,56.0,82.0
262,34.480000000000004,34.59375,61.0,86.0
263,34.480000000000004,34.61875,64.0,82.0
264,34.480000000000004,34.71125,49.0,86.0
265,34.480000000000004,34.7425,37.0,85.0
266,34.78,34.88125,56.0,81.0
267,34.78,34.8825,61.0,85.0
268,34.78,34.9075,64.0,82.0
269,35.08,35.1625,61.0,84.0
270,35.08,35.16875,56.0,81.0
271,35.08,35.1825,64.0,82.0
272,35.08,35.24875,49.0,87.0
273,35.08,35.27375,37.0,85.0
274,35.38,35.47125,56.0,81.0
275,35.38,35.47125,61.0,86.0
276,35.38,35.48625,64.0,80.0
277,35.68,35.7775,61.0,86.0
278,35.68,35.78,56.0,81.0
279,35.68,35.80125,64.0,81.0
280,35.68,35.93625,49.0,84.0
281,35.68,35.95125,37.0,83.0
282,35.980000000000004,36.07,61.0,86.0
283,35.980000000000004,36.073750000000004,56.0,79.0
284,35.980000000000004,36.08875,64.0,82.0
285,36.28,36.36375,54.0,82.0
286,36.28,36.37125,59.0,82.0
287,36.28,36.3925,63.0,86.0
288,36.28,36.42125,47.0,79.0
289,36.28,36.43625,35.0,78.0
290,36.58,36.68375,54.0,82.0
291,36.58,36.6875,63.0,84.0
292,36.58,36.69375,59.0,82.0
293,36.88,37.0375,54.0,82.0
294,36.88,37.0525,59.0,83.0
295,36.88,37.065,63.0,83.0
296,37.18,37.28625,54.0,83.0
297,36.88,37.295,35.0,76.0
298,36.88,37.2975,47.0,82.0
299,37.18,37.3025,59.0,82.0
300,37.18,37.30375,63.0,84.0
301,37.480000000000004,37.5875,61.0,74.0
302,37.480000000000004,37.5875,69.0,74.0
303,37.480000000000004,37.59375,64.0,77.0
304,37.480000000000004,37.6225,33.0,81.0
305,37.480000000000004,37.6225,45.0,81.0
306,37.480000000000004,37.635,57.0,75.0
307,37.78,37.87125,61.0,75.0
308,37.78,37.89125,64.0,77.0
309,37.78,37.89125,69.0,77.0
310,38.08,38.18875,61.0,81.0
311,38.08,38.20375,64.0,83.0
312,38.08,38.21375,69.0,82.0
313,38.08,38.27375,33.0,82.0
314,38.08,38.27375,45.0,82.0
315,38.08,38.285000000000004,57.0,81.0
316,38.38,38.49125,61.0,73.0
317,38.38,38.5025,64.0,76.0
318,38.38,38.50625,69.0,74.0
319,38.68,38.77625,61.0,77.0
320,38.68,38.78875,64.0,81.0
321,38.68,38.8025,69.0,81.0
322,38.68,38.85375,33.0,82.0
323,38.68,38.85375,45.0,82.0
324,38.68,38.9,57.0,81.0
325,38.980000000000004,39.073750000000004,61.0,73.0
326,38.980000000000004,39.08,64.0,77.0
327,38.980000000000004,39.097500000000004,69.0,77.0
328,39.28,39.393750000000004,33.0,82.0
329,39.28,39.393750000000004,45.0,82.0
330,39.28,39.393750000000004,61.0,82.0
331,39.28,39.4,57.0,83.0
332,39.28,39.41125,64.0,83.0
333,39.28,39.43125,69.0,85.0
334,39.58,39.73375,69.0,82.0
335,39.58,39.737500000000004,64.0,82.0
336,39.58,39.7525,61.0,82.0
337,39.88,39.99625,56.0,72.0
338,39.88,39.99875,59.0,75.0
339,39.88,40.02375,52.0,80.0
340,39.88,40.03375,64.0,76.0
341,39.88,40.07,40.0,74.0
342,40.18,40.27625,56.0,75.0
343,40.18,40.27875,59.0,78.0
344,40.18,40.28375,64.0,79.0
345,40.480000000000004,40.58625,56.0,78.0
346,40.480000000000004,40.5925,59.0,82.0
347,40.480000000000004,40.6175,64.0,81.0
348,40.480000000000004,40.65375,52.0,82.0
349,40.480000000000004,40.660000000000004,40.0,81.0
350,40.78,40.895,56.0,80.0
351,40.78,40.91375,59.0,84.0
352,40.78,40.95375,64.0,81.0
353,41.08,41.253750000000004,54.0,80.0
354,41.08,41.2775,66.0,78.0
355,41.08,41.285000000000004,30.0,84.0
356,41.08,41.285000000000004,42.0,84.0
357,41.38,41.68,32.0,87.0
358,41.38,41.68,44.0,87.0
359,41.38,41.785000000000004,56.0,81.0
360,41.68,41.980000000000004,35.0,87.0
361,41.68,41.980000000000004,47.0,97.0
362,41.38,41.980000000000004,68.0,81.0
363,41.980000000000004,42.25875,56.0,82.0
364,41.980000000000004,42.28,32.0,87.0
365,41.980000000000004,42.28,44.0,72.0
366,41.980000000000004,42.29125,63.0,83.0
367,42.28,42.386250000000004,61.0,83.0
368,42.28,42.39,56.0,79.0
369,42.28,42.40375,64.0,83.0
370,42.28,42.42125,49.0,77.0
371,42.28,42.4475,37.0,82.0
372,42.58,42.68875,56.0,82.0
373,42.58,42.6975,61.0,85.0
374,42.58,42.698750000000004,64.0,82.0
375,42.88,43.00625,56.0,82.0
376,42.88,43.01625,61.0,83.0
377,42.88,43.02875,64.0,84.0
378,42.88,43.0475,37.0,83.0
379,42.88,43.05625,49.0,82.0
380,43.18,43.27125,61.0,82.0
381,43.18,43.27375,56.0,79.0
382,43.18,43.28875,64.0,83.0
383,43.480000000000004,43.58375,56.0,81.0
384,43.480000000000004,43.59,61.0,84.0
385,43.480000000000004,43.60875,64.0,82.0
386,43.480000000000004,43.63875,37.0,84.0
387,43.480000000000004,43.65125,49.0,79.0
388,43.78,43.878750000000004,56.0,76.0
389,43.78,43.89125,61.0,81.0
390,43.78,43.89625,64.0,77.0
391,44.08,44.2075,56.0,82.0
392,44.08,44.21125,61.0,82.0
393,44.08,44.22125,64.0,82.0
394,44.08,44.31875,37.0,83.0
395,44.08,44.33375,49.0,83.0
396,44.38,44.4225,63.0,81.0
397,44.38,44.54375,59.0,83.0
398,44.38,44.5475,54.0,87.0
399,44.68,44.78375,59.0,82.0
400,44.68,44.78625,54.0,83.0
401,44.68,44.7875,35.0,79.0
402,44.68,44.79875,63.0,82.0
403,44.980000000000004,45.08375,59.0,84.0
404,44.980000000000004,45.08875,54.0,83.0
405,44.980000000000004,45.10625,63.0,84.0
406,45.28,45.37,59.0,87.0
407,45.28,45.378750000000004,54.0,84.0
408,45.28,45.38375,47.0,85.0
409,45.28,45.385,63.0,87.0
410,45.28,45.425000000000004,35.0,79.0
411,45.58,45.7175,54.0,85.0
412,45.58,45.72625,59.0,88.0
413,45.58,45.73875,63.0,90.0
414,45.88,46.005,49.0,82.0
415,45.88,46.042500000000004,37.0,82.0
416,45.88,46.095,64.0,85.0
417,45.88,46.1025,61.0,82.0
418,46.18,46.66625,63.0,87.0
419,46.18,46.667500000000004,47.0,83.0
420,46.18,46.675000000000004,59.0,79.0
421,46.18,46.70375,35.0,81.0
422,46.78,47.0,47.0,81.0
423,46.78,47.00625,35.0,78.0
424,46.78,47.07125,63.0,83.0
425,46.78,47.0775,59.0,77.0
426,47.08,47.17875,57.0,82.0
427,47.08,47.1825,61.0,82.0
428,47.08,47.205,64.0,80.0
429,47.08,47.37625,33.0,85.0
430,47.08,47.37625,45.0,85.0
431,47.38,47.47625,57.0,77.0
432,47.38,47.480000000000004,61.0,76.0
433,47.38,47.48875,64.0,74.0
434,47.68,47.7725,61.0,82.0
435,47.68,47.775,57.0,84.0
436,47.68,47.79875,64.0,79.0
437,47.68,47.8325,33.0,95.0
438,47.68,47.8325,45.0,95.0
439,47.980000000000004,48.0875,61.0,81.0
440,47.980000000000004,48.09125,57.0,83.0
441,47.980000000000004,48.105000000000004,64.0,75.0
442,48.2805904375,48.36224871875,63.0,82.0
443,48.2805904375,48.36978640625,66.0,75.0
444,48.2805904375,48.37481153125,59.0,78.0
445,48.2805904375,48.37983665625,35.0,88.0
446,48.2805904375,48.37983665625,47.0,88.0
447,48.5820979375,48.67631903125,63.0,80.0
448,48.5820979375,48.68888184375,59.0,78.0
449,48.5820979375,48.69390696875,66.0,77.0
450,48.8836054375,48.9790828125,59.0,76.0
451,48.8836054375,48.9866205,66.0,74.0
452,48.8836054375,48.98787678125,63.0,81.0
453,48.8836054375,49.23410790625,35.0,88.0
454,48.8836054375,49.23410790625,47.0,88.0
455,49.1851129375,49.57832896875,59.0,83.0
456,49.1851129375,49.57832896875,63.0,85.0
457,49.1851129375,49.584610375000004,66.0,82.0
458,49.4866204375,49.631092781250004,35.0,82.0
459,49.4866204375,49.631092781250004,47.0,82.0
460,49.7881279375,49.88486159375,66.0,77.0
461,49.7881279375,49.8886304375,59.0,81.0
462,49.7881279375,49.8886304375,63.0,82.0
463,50.0896354375,50.187625375,63.0,82.0
464,50.0896354375,50.19139421875,59.0,77.0
465,50.0896354375,50.1951630625,66.0,75.0
466,50.0896354375,50.3308414375,35.0,88.0
467,50.0896354375,50.3308414375,47.0,88.0
468,50.3911429375,50.52305246875,63.0,83.0
469,50.3911429375,50.52807759375,59.0,82.0
470,50.3911429375,50.54064040625,66.0,81.0
471,50.6926504375,50.817022281250004,63.0,78.0
472,50.6926504375,50.82455996875,59.0,74.0
473,50.6926504375,50.82958509375,66.0,74.0
474,50.6926504375,50.932600156250004,35.0,83.0
475,50.6926504375,50.932600156250004,47.0,83.0
476,50.9941579375,51.47280109375,63.0,90.0
477,50.9941579375,51.4815950625,59.0,83.0
478,50.9941579375,51.484107625,66.0,82.0
479,51.2956654375,51.67883121875,35.0,102.0
480,51.2956654375,51.67883121875,47.0,102.0
481,51.597172937500005,51.76677090625,59.0,82.0
482,51.597172937500005,51.77179603125,63.0,88.0
483,51.597172937500005,51.783102562500005,66.0,82.0
484,51.898680437500005,51.996670375,66.0,73.0
485,51.898680437500005,52.00043921875,61.0,75.0
486,51.898680437500005,52.0293336875,54.0,71.0
487,51.898680437500005,52.0293336875,69.0,72.0
488,51.898680437500005,52.05822815625,42.0,77.0
489,52.200187937500004,52.2856150625,61.0,76.0
490,52.200187937500004,52.28687134375,66.0,80.0
491,52.200187937500004,52.31702209375,69.0,73.0
492,52.501695437500004,52.58084115625,66.0,83.0
493,52.501695437500004,52.594660250000004,61.0,82.0
494,52.501695437500004,52.61350446875,69.0,83.0
495,52.501695437500004,52.62355471875,42.0,82.0
496,52.501695437500004,52.63611753125,54.0,84.0
497,52.803202937500004,52.897424031250004,61.0,80.0
498,52.803202937500004,52.898680312500005,66.0,82.0
499,52.803202937500004,52.9187808125,69.0,76.0
500,53.1047104375,53.19641896875,61.0,77.0
501,53.1047104375,53.198931531250004,66.0,81.0
502,53.1047104375,53.21903203125,69.0,82.0
503,53.1047104375,53.2353636875,54.0,79.0
504,53.1047104375,53.2403888125,42.0,81.0
505,53.4062179375,53.49541390625,61.0,81.0
506,53.4062179375,53.4966701875,66.0,82.0
507,53.4062179375,53.5167706875,69.0,82.0
508,53.7077254375,53.79440884375,66.0,83.0
509,53.7077254375,53.79692140625,61.0,82.0
510,53.7077254375,53.814509343750004,69.0,83.0
511,53.7077254375,53.82958471875,54.0,83.0
512,53.7077254375,53.83209728125,42.0,81.0
513,54.0092329375,54.09089121875,66.0,82.0
514,54.0092329375,54.094660062500004,61.0,80.0
515,54.0092329375,54.118529406250005,69.0,82.0
516,54.3107404375,54.40244896875,61.0,81.0
517,54.3107404375,54.408730375000005,66.0,82.0
518,54.3107404375,54.4212931875,69.0,82.0
519,54.3107404375,54.43008715625,54.0,81.0
520,54.3107404375,54.431343437500004,42.0,80.0
521,54.6122479375,54.6926499375,61.0,81.0
522,54.6122479375,54.6926499375,66.0,83.0
523,54.6122479375,54.71400671875,69.0,82.0
524,54.9137554375,55.000438843750004,61.0,81.0
525,54.9137554375,55.00672025,66.0,82.0
526,54.9137554375,55.0293333125,69.0,82.0
527,54.9137554375,55.0393835625,42.0,81.0
528,54.9137554375,55.04315240625,54.0,82.0
529,55.2152629375,55.314509156250004,66.0,83.0
530,55.2152629375,55.315765437500005,61.0,80.0
531,55.2152629375,55.32832825,69.0,83.0
532,55.5167704375,55.61852921875,61.0,80.0
533,55.5167704375,55.62104178125,66.0,83.0
534,55.5167704375,55.64365484375,69.0,82.0
535,55.5167704375,55.6524488125,42.0,81.0
536,55.5167704375,55.6524488125,54.0,81.0
537,55.8182779375,55.907473906250004,61.0,81.0
538,55.8182779375,55.91501159375,66.0,83.0
539,55.8182779375,55.93511209375,69.0,82.0
540,56.1197854375,56.220287937500004,61.0,80.0
541,56.1197854375,56.22405678125,66.0,82.0
542,56.1197854375,56.242901,69.0,84.0
543,56.1197854375,56.2604889375,42.0,81.0
544,56.1197854375,56.2705391875,54.0,83.0
545,56.4212929375,56.51425775,66.0,81.0
546,56.4212929375,56.51802659375,69.0,79.0
547,56.4212929375,56.523051718750004,61.0,79.0
548,56.7228004375,56.840890875,59.0,81.0
549,56.7228004375,56.84465971875,64.0,81.0
550,56.7228004375,56.8584788125,68.0,81.0
551,56.7228004375,56.886117,52.0,81.0
552,56.7228004375,56.90244865625,40.0,80.0
553,57.0243079375,57.117203656250005,59.0,81.0
554,57.0243079375,57.117203656250005,64.0,81.0
555,57.0243079375,57.11970365625,68.0,81.0
556,57.32470365625,57.43345365625,59.0,82.0
557,57.32470365625,57.437203656250006,64.0,82.0
558,57.32470365625,57.43970365625,68.0,82.0
559,57.32470365625,57.547203656250005,40.0,81.0
560,57.32470365625,57.55220365625,52.0,82.0
561,57.624703656250006,57.74095365625001,59.0,85.0
562,57.624703656250006,57.75220365625,64.0,87.0
563,57.624703656250006,57.76345365625,68.0,86.0
564,57.92470365625,58.055953656250004,59.0,72.0
565,57.92470365625,58.07345365625,63.0,78.0
566,57.92470365625,58.09095365625,68.0,77.0
567,57.92470365625,58.233453656250006,44.0,81.0
568,57.92470365625,58.265953656250005,56.0,75.0
569,58.22470365625001,58.350953656250006,59.0,77.0
570,58.524703656250004,59.008453656250005,44.0,81.0
571,58.524703656250004,59.02595365625,56.0,80.0
572,58.524703656250004,59.063453656250005,63.0,83.0
573,58.524703656250004,59.06595365625,59.0,82.0
574,58.524703656250004,59.07470365625,68.0,81.0
575,59.124703656250006,59.86220365625,64.0,82.0
576,59.124703656250006,59.867203656250005,61.0,81.0
577,60.024703656250004,60.32345365625,61.0,83.0
578,60.624703656250006,60.80845365625,61.0,66.0
579,60.024703656250004,60.812203656250006,68.0,82.0
580,60.024703656250004,60.83470365625001,64.0,83.0
581,60.92470365625,61.25345365625,61.0,87.0
582,60.92470365625,61.267203656250004,64.0,87.0
583,59.124703656250006,61.358453656250006,37.0,82.0
584,59.124703656250006,61.374703656250006,49.0,70.0
585,61.22470365625,61.45095365625001,63.0,82.0
586,61.524703656250004,61.625953656250005,49.0,81.0
587,61.524703656250004,61.63595365625,56.0,68.0
588,61.524703656250004,61.655953656250006,52.0,72.0
589,61.524703656250004,61.8508257875,37.0,88.0
590,61.82464128125,61.92189801875,56.0,75.0
591,61.82464128125,61.92439178125,49.0,76.0
592,61.82464128125,61.9306261875,52.0,81.0
593,62.12389278125,62.217408875000004,49.0,81.0
594,62.12389278125,62.227383925000005,52.0,83.0
595,62.12389278125,62.25107466875,56.0,82.0
596,62.12389278125,62.27850605625,37.0,88.0
597,62.42314428125,62.53785735625,49.0,80.0
598,62.72239578125,62.81715875625,49.0,75.0
599,62.72239578125,62.835861975,52.0,82.0
600,62.72239578125,62.8383557375,37.0,88.0
601,62.72239578125,62.855812075,56.0,79.0
602,63.021647281250004,63.14633540625,49.0,76.0
603,63.32089878125,63.65007543125,37.0,86.0
604,63.32089878125,63.7061850875,52.0,87.0
605,63.32089878125,63.7111726125,56.0,84.0
606,63.32089878125,63.72488830625,61.0,82.0
607,63.620150281250005,63.80718246875,49.0,81.0
608,63.91940178125,63.97925208125,49.0,70.0
609,63.91940178125,64.0353617375,52.0,82.0
610,63.91940178125,64.0453367875,56.0,82.0
611,63.91940178125,64.05655871875,61.0,82.0
612,63.91940178125,64.0752619375,37.0,87.0
613,64.21865328125,64.3445882875,49.0,76.0
614,64.51790478125,64.601445825,52.0,81.0
615,64.51790478125,64.6164084,56.0,81.0
616,64.51790478125,64.621395925,37.0,85.0
617,64.51790478125,64.64508666875,61.0,82.0
618,64.81715628125,64.9181536625,49.0,85.0
619,65.11640778125,65.22488645,52.0,84.0
620,65.11640778125,65.22862709375,56.0,82.0
621,65.11640778125,65.2523178375,61.0,81.0
622,65.11640778125,65.299699325,37.0,86.0
623,65.41565928125,65.5366067625,49.0,81.0
624,65.71491078125,65.95680574375001,37.0,81.0
625,65.71491078125,66.20119446875,61.0,81.0
626,65.71491078125,66.21241640000001,56.0,82.0
627,65.71491078125,66.2248852125,52.0,83.0
628,66.01416228125001,66.22737897500001,44.0,92.0
629,66.31341378125,66.44683007500001,49.0,76.0
630,66.31341378125,66.45431136250001,61.0,76.0
631,66.31341378125,66.456805125,52.0,79.0
632,66.31341378125,66.46179265,56.0,78.0
633,66.31341378125,66.52538359375,37.0,95.0
634,66.61266528125,66.706181375,49.0,72.0
635,66.91191678125,66.95929826875,49.0,70.0
636,66.91191678125,67.02787673750001,52.0,84.0
637,66.91191678125,67.03535802500001,56.0,82.0
638,66.91191678125,67.06278941250001,61.0,81.0
639,66.91191678125,67.07027070000001,37.0,88.0
640,67.21116828125,67.32089383125,49.0,82.0
641,67.51041978125001,67.6213922125,52.0,83.0
642,67.51041978125001,67.63012038125001,56.0,77.0
643,67.51041978125001,67.66004553125,61.0,74.0
644,67.51041978125001,67.84333707500001,37.0,84.0
645,67.80967128125,67.92812500000001,49.0,83.0
646,68.10892278125,68.28099239375,37.0,92.0
647,68.10892278125,68.352064625,52.0,83.0
648,68.10892278125,68.40942116250001,56.0,83.0
649,68.10892278125,68.4293712625,61.0,83.0
650,68.40817428125,68.60767528125001,39.0,95.0
651,68.70742578125001,68.87076722500001,52.0,82.0
652,68.70742578125001,68.89570485,56.0,72.0
653,68.70742578125001,68.97924589375,40.0,87.0
654,69.00667728125,69.1226372375,52.0,79.0
655,69.30592878125,69.35455715,52.0,77.0
656,69.30592878125,69.50542978125,56.0,84.0
657,69.30592878125,69.70493078125,59.0,82.0
658,69.60518028125,69.7161527125,56.0,42.0
659,69.30592878125,69.738596575,40.0,78.0
660,69.60518028125,69.77226236875,52.0,84.0
661,69.90443178125,70.04657624375,51.0,84.0
662,69.90443178125,70.2498178875,56.0,79.0
663,70.20368328125001,70.32961828750001,51.0,82.0
664,69.90443178125,70.33335893125,44.0,81.0
665,70.50293478125,70.61141345,51.0,85.0
666,70.50293478125,70.89196173125,56.0,86.0
667,70.50293478125,70.91191183125001,59.0,83.0
668,70.50293478125,70.9131587125,44.0,84.0
669,70.80218628125,70.96428084375,51.0,84.0
670,71.10143778125,71.2423353625,56.0,80.0
671,71.10143778125,71.27350739375001,61.0,82.0
672,71.10143778125,71.29096373125,64.0,80.0
673,71.10143778125,71.33086393125001,37.0,83.0
674,71.40068928125001,71.54782126875,56.0,81.0
675,71.69994078125,71.84208524375,56.0,81.0
676,71.69994078125,71.89819490000001,61.0,83.0
677,71.69994078125,71.94183574375,64.0,83.0
678,71.69994078125,72.0378456,37.0,87.0
679,71.99919228125,72.15255867500001,56.0,80.0
680,72.29844378125,72.42063814375001,56.0,79.0
681,72.29844378125,72.4742540375,61.0,82.0
682,72.29844378125,72.48048844375,64.0,77.0
683,72.29844378125,72.53036369375,37.0,71.0
684,72.59769528125,72.7186427625,56.0,79.0
685,72.89694678125001,73.0154005,56.0,76.0
686,72.89694678125001,73.09520090000001,61.0,83.0
687,72.89694678125001,73.10143530625001,64.0,81.0
688,72.89694678125001,73.1625324875,37.0,92.0
689,73.19619828125,73.2747518,61.0,68.0
690,73.19619828125,73.28597373125001,64.0,63.0
691,73.19619828125,73.319639525,56.0,80.0
692,73.49544978125,73.59769404375001,56.0,77.0
693,73.49544978125,73.63385360000001,61.0,82.0
694,73.49544978125,73.64756929375001,64.0,79.0
695,73.49544978125,73.7011851875,37.0,97.0
696,73.79470128125,73.9256238125,56.0,81.0
697,74.09395278125001,74.1924564,56.0,76.0
698,74.09395278125001,74.23609724375001,61.0,84.0
699,74.09395278125001,74.25729422500001,64.0,81.0
700,74.09395278125001,74.34956343750001,37.0,82.0
701,74.39320428125001,74.52038616875001,56.0,80.0
702,74.69245578125,74.83709400625,56.0,75.0
703,74.69245578125,74.9680165375,37.0,90.0
704,74.69245578125,75.03410124375,64.0,80.0
705,74.69245578125,75.04657005625,61.0,81.0
706,74.99170728125,75.15878936875,56.0,81.0
707,75.29095878125,75.57898835,37.0,97.0
708,75.29095878125,75.7211328125,56.0,81.0
709,75.29095878125,75.7685143,64.0,83.0
710,75.59021028125001,75.78721751875,44.0,90.0
711,75.29095878125,75.78721751875,61.0,86.0
712,75.88946178125,76.03160624375,54.0,77.0
713,75.88946178125,76.052803225,57.0,76.0
714,75.88946178125,76.05654386875,61.0,82.0
715,75.88946178125,76.0951971875,42.0,82.0
716,76.18871328125,76.32337645625,54.0,77.0
717,76.48796478125,76.58522151875,54.0,81.0
718,76.48796478125,76.66502191875,57.0,85.0
719,76.48796478125,76.67624385,61.0,82.0
720,76.48796478125,76.78098187500001,42.0,87.0
721,76.78721628125001,76.920632575,54.0,81.0
722,77.08646778125001,77.2074152625,54.0,81.0
723,77.08646778125001,77.24357481875,63.0,85.0
724,77.08646778125001,77.27100620625001,59.0,86.0
725,77.08646778125001,77.29345006875,47.0,87.0
726,77.38571928125,77.48921042500001,54.0,80.0
727,77.68497078125,77.7909556875,54.0,82.0
728,77.68497078125,78.067763325,47.0,95.0
729,77.68497078125,78.09270095000001,59.0,84.0
730,77.98422228125,78.102676,54.0,81.0
731,77.68497078125,78.11389793125001,63.0,83.0
732,78.28347378125001,78.38821180625001,56.0,81.0
733,78.28347378125001,78.41314943125,37.0,97.0
734,78.28347378125001,78.43309953125001,61.0,83.0
735,78.28347378125001,78.4343464125,64.0,74.0
736,78.58272528125,78.69245083125,56.0,79.0
737,78.88197678125,78.975492875,56.0,79.0
738,78.88197678125,78.99294921250001,37.0,81.0
739,78.88197678125,78.99918361875001,61.0,85.0
740,78.88197678125,79.01040555,64.0,81.0
741,79.18122828125,79.28097878125001,56.0,83.0
742,79.48047978125001,79.58147716250001,56.0,82.0
743,79.48047978125001,79.6064147875,61.0,88.0
744,79.48047978125001,79.61638983750001,64.0,82.0
745,79.48047978125001,79.73983108125,37.0,92.0
746,79.77973128125001,79.92686326875,56.0,83.0
747,80.07898278125,80.22860853125,56.0,81.0
748,80.07898278125,80.32087774375,61.0,87.0
749,80.07898278125,80.32461838750001,64.0,81.0
750,80.07898278125,80.3570373,32.0,97.0
751,80.37823428125,80.441825225,64.0,74.0
752,80.37823428125,80.496688,61.0,77.0
753,80.37823428125,80.57898216250001,56.0,87.0
754,80.37823428125,80.6238698875,35.0,97.0
755,80.67748578125,80.77723628125,56.0,77.0
756,80.67748578125,80.77723628125,61.0,82.0
757,80.67748578125,80.7959395,64.0,80.0
758,80.67748578125,80.8183833625,49.0,78.0
759,80.67748578125,80.86451796875001,37.0,82.0
760,80.97684020000001,81.0655902,61.0,84.0
761,80.97684020000001,81.0668402,56.0,81.0
762,80.97684020000001,81.08934020000001,64.0,81.0
763,81.27684020000001,81.3780902,56.0,81.0
764,81.27684020000001,81.38184020000001,61.0,83.0
765,81.27684020000001,81.4105902,64.0,81.0
766,81.27684020000001,81.4368402,49.0,83.0
767,81.27684020000001,81.49809020000001,37.0,83.0
768,81.5768402,81.6555902,56.0,78.0
769,81.5768402,81.6568402,61.0,83.0
770,81.5768402,81.6755902,64.0,79.0
771,81.8768402,81.9705902,56.0,79.0
772,81.8768402,81.9743402,61.0,83.0
773,81.8768402,81.99184020000001,64.0,80.0
774,81.8768402,82.01059020000001,49.0,82.0
775,81.8768402,82.0830902,37.0,82.0
776,82.1768402,82.25809020000001,56.0,76.0
777,82.1768402,82.2705902,61.0,83.0
778,82.1768402,82.27809020000001,64.0,79.0
779,82.47684020000001,82.5830902,56.0,82.0
780,82.47684020000001,82.59059020000001,61.0,86.0
781,82.47684020000001,82.61559020000001,64.0,82.0
782,82.47684020000001,82.7080902,49.0,86.0
783,82.47684020000001,82.7393402,37.0,85.0
784,82.77684020000001,82.8780902,56.0,81.0
785,82.77684020000001,82.8793402,61.0,85.0
786,82.77684020000001,82.90434020000001,64.0,82.0
787,83.0768402,83.1593402,61.0,84.0
788,83.0768402,83.16559020000001,56.0,81.0
789,83.0768402,83.17934020000001,64.0,82.0
790,83.0768402,83.24559020000001,49.0,87.0
791,83.0768402,83.2705902,37.0,85.0
792,83.3768402,83.4680902,56.0,81.0
793,83.3768402,83.4680902,61.0,86.0
794,83.3768402,83.4830902,64.0,80.0
795,83.6768402,83.77434020000001,61.0,86.0
796,83.6768402,83.77684020000001,56.0,81.0
797,83.6768402,83.7980902,64.0,81.0
798,83.6768402,83.93309020000001,49.0,84.0
799,83.6768402,83.94809020000001,37.0,83.0
800,83.97684020000001,84.0668402,61.0,86.0
801,83.97684020000001,84.07059020000001,56.0,79.0
802,83.97684020000001,84.08559020000001,64.0,82.0
803,84.27684020000001,84.3605902,54.0,82.0
804,84.27684020000001,84.36809020000001,59.0,82.0
805,84.27684020000001,84.3893402,63.0,86.0
806,84.27684020000001,84.41809020000001,47.0,79.0
807,84.27684020000001,84.43309020000001,35.0,78.0
808,84.5768402,84.68059020000001,54.0,82.0
809,84.5768402,84.68434020000001,63.0,84.0
810,84.5768402,84.6905902,59.0,82.0
811,84.8768402,85.0343402,54.0,82.0
812,84.8768402,85.0493402,59.0,83.0
813,84.8768402,85.0618402,63.0,83.0
814,85.1768402,85.2830902,54.0,83.0
815,84.8768402,85.29184020000001,35.0,76.0
816,84.8768402,85.29434020000001,47.0,82.0
817,85.1768402,85.2993402,59.0,82.0
818,85.1768402,85.3005902,63.0,84.0
819,85.47684020000001,85.58434020000001,61.0,74.0
820,85.47684020000001,85.58434020000001,69.0,74.0
821,85.47684020000001,85.59059020000001,64.0,77.0
822,85.47684020000001,85.61934020000001,33.0,81.0
823,85.47684020000001,85.61934020000001,45.0,81.0
824,85.47684020000001,85.63184020000001,57.0,75.0
825,85.77684020000001,85.86809020000001,61.0,75.0
826,85.77684020000001,85.88809020000001,64.0,77.0
827,85.77684020000001,85.88809020000001,69.0,77.0
828,86.0768402,86.18559020000001,61.0,81.0
829,86.0768402,86.20059020000001,64.0,83.0
830,86.0768402,86.21059020000001,69.0,82.0
831,86.0768402,86.2705902,33.0,82.0
832,86.0768402,86.2705902,45.0,82.0
833,86.0768402,86.2818402,57.0,81.0
834,86.3768402,86.4880902,61.0,73.0
835,86.3768402,86.4993402,64.0,76.0
836,86.3768402,86.5030902,69.0,74.0
837,86.6768402,86.77309020000001,61.0,77.0
838,86.6768402,86.7855902,64.0,81.0
839,86.6768402,86.7993402,69.0,81.0
840,86.6768402,86.85059020000001,33.0,82.0
841,86.6768402,86.85059020000001,45.0,82.0
842,86.6768402,86.89684020000001,57.0,81.0
843,86.97684020000001,87.07059020000001,61.0,73.0
844,86.97684020000001,87.0768402,64.0,77.0
845,86.97684020000001,87.0943402,69.0,77.0
846,87.27684020000001,87.3905902,33.0,82.0
847,87.27684020000001,87.3905902,45.0,82.0
848,87.27684020000001,87.3905902,61.0,82.0
849,87.27684020000001,87.39684020000001,57.0,83.0
850,87.27684020000001,87.4080902,64.0,83.0
851,87.27684020000001,87.42809020000001,69.0,85.0
852,87.5768402,87.73059020000001,69.0,82.0
853,87.5768402,87.7343402,64.0,82.0
854,87.5768402,87.7493402,61.0,82.0
855,87.8768402,87.99309020000001,56.0,72.0
856,87.8768402,87.99559020000001,59.0,75.0
857,87.8768402,88.0205902,52.0,80.0
858,87.8768402,88.0305902,64.0,76.0
859,87.8768402,88.0668402,40.0,74.0
860,88.1768402,88.27309020000001,56.0,75.0
861,88.1768402,88.27559020000001,59.0,78.0
862,88.1768402,88.2805902,64.0,79.0
863,88.47684020000001,88.5830902,56.0,78.0
864,88.47684020000001,88.58934020000001,59.0,82.0
865,88.47684020000001,88.6143402,64.0,81.0
866,88.47684020000001,88.65059020000001,52.0,82.0
867,88.47684020000001,88.6568402,40.0,81.0
868,88.77684020000001,88.8918402,56.0,80.0
869,88.77684020000001,88.9105902,59.0,84.0
870,88.77684020000001,88.95059020000001,64.0,81.0
871,89.0768402,89.2505902,54.0,80.0
872,89.0768402,89.27434020000001,66.0,78.0
873,89.0768402,89.2818402,30.0,84.0
874,89.0768402,89.2818402,42.0,84.0
875,89.3768402,89.67684020000002,32.0,87.0
876,89.3768402,89.67684020000002,44.0,87.0
877,89.3768402,89.7818402,56.0,81.0
878,89.67684020000002,89.97684020000001,35.0,87.0
879,89.67684020000002,89.97684020000001,47.0,97.0
880,89.3768402,89.97684020000001,68.0,81.0
881,89.97684020000001,90.2555902,56.0,82.0
882,89.97684020000001,90.27684020000001,32.0,87.0
883,89.97684020000001,90.27684020000001,44.0,72.0
884,89.97684020000001,90.28809020000001,63.0,83.0
885,90.27684020000001,90.38309020000001,61.0,83.0
886,90.27684020000001,90.38684020000001,56.0,79.0
887,90.27684020000001,90.40059020000001,64.0,83.0
888,90.27684020000001,90.41809020000001,49.0,77.0
889,90.27684020000001,90.44434020000001,37.0,82.0
890,90.5768402,90.68559020000001,56.0,82.0
891,90.5768402,90.69434020000001,61.0,85.0
892,90.5768402,90.69559020000001,64.0,82.0
893,90.8768402,91.0030902,56.0,82.0
894,90.8768402,91.01309020000001,61.0,83.0
895,90.8768402,91.02559020000001,64.0,84.0
896,90.8768402,91.04434020000001,37.0,83.0
897,90.8768402,91.05309020000001,49.0,82.0
898,91.17684020000002,91.2680902,61.0,82.0
899,91.17684020000002,91.27059020000002,56.0,79.0
900,91.17684020000002,91.2855902,64.0,83.0
901,91.47684020000001,91.5805902,56.0,81.0
902,91.47684020000001,91.58684020000001,61.0,84.0
903,91.47684020000001,91.60559020000001,64.0,82.0
904,91.47684020000001,91.63559020000001,37.0,84.0
905,91.47684020000001,91.64809020000001,49.0,79.0
906,91.77684020000001,91.8755902,56.0,76.0
907,91.77684020000001,91.88809020000001,61.0,81.0
908,91.77684020000001,91.8930902,64.0,77.0
909,92.0768402,92.2043402,56.0,82.0
910,92.0768402,92.20809020000002,61.0,82.0
911,92.0768402,92.2180902,64.0,82.0
912,92.0768402,92.3155902,37.0,83.0
913,92.0768402,92.3305902,49.0,83.0
914,92.3768402,92.41934020000001,63.0,81.0
915,92.3768402,92.54059020000001,59.0,83.0
916,92.3768402,92.54434020000001,54.0,87.0
917,92.67684020000002,92.7805902,59.0,82.0
918,92.67684020000002,92.7830902,54.0,83.0
919,92.67684020000002,92.7843402,35.0,79.0
920,92.67684020000002,92.7955902,63.0,82.0
921,92.97684020000001,93.0805902,59.0,84.0
922,92.97684020000001,93.08559020000001,54.0,83.0
923,92.97684020000001,93.10309020000001,63.0,84.0
924,93.27684020000001,93.36684020000001,59.0,87.0
925,93.27684020000001,93.3755902,54.0,84.0
926,93.27684020000001,93.3805902,47.0,85.0
927,93.27684020000001,93.38184020000001,63.0,87.0
928,93.27684020000001,93.4218402,35.0,79.0
929,93.5768402,93.71434020000001,54.0,85.0
930,93.5768402,93.7230902,59.0,88.0
931,93.5768402,93.7355902,63.0,90.0
932,93.8768402,94.0018402,49.0,82.0
933,93.8768402,94.03934020000001,37.0,82.0
934,93.8768402,94.09184020000001,64.0,85.0
935,93.8768402,94.0993402,61.0,82.0
936,94.17684020000002,94.66309020000001,63.0,87.0
937,94.17684020000002,94.66434020000001,47.0,83.0
938,94.17684020000002,94.6718402,59.0,79.0
939,94.17684020000002,94.70059020000001,35.0,81.0
940,94.77684020000001,94.99684020000001,47.0,81.0
941,94.77684020000001,95.0030902,35.0,78.0
942,94.77684020000001,95.0680902,63.0,83.0
943,94.77684020000001,95.07434020000001,59.0,77.0
944,95.0768402,95.1755902,57.0,82.0
945,95.0768402,95.17934020000001,61.0,82.0
946,95.0768402,95.2018402,64.0,80.0
947,95.0768402,95.37309020000001,33.0,85.0
948,95.0768402,95.37309020000001,45.0,85.0
949,95.3768402,95.4730902,57.0,77.0
950,95.3768402,95.47684020000001,61.0,76.0
951,95.3768402,95.4855902,64.0,74.0
952,95.67684020000002,95.7693402,61.0,82.0
953,95.67684020000002,95.77184020000001,57.0,84.0
954,95.67684020000002,95.7955902,64.0,79.0
955,95.67684020000002,95.8293402,33.0,95.0
956,95.67684020000002,95.8293402,45.0,95.0
957,95.97684020000001,96.08434020000001,61.0,81.0
958,95.97684020000001,96.08809020000001,57.0,83.0
959,95.97684020000001,96.10184020000001,64.0,75.0
960,96.27684020000001,96.3580902,63.0,82.0
961,96.27684020000001,96.36559020000001,66.0,75.0
962,96.27684020000001,96.37059020000001,59.0,78.0
963,96.27684020000001,96.3755902,35.0,88.0
964,96.27684020000001,96.3755902,47.0,88.0
965,96.5768402,96.6705902,63.0,80.0
966,96.5768402,96.68309020000001,59.0,78.0
967,96.5768402,96.6880902,66.0,77.0
968,96.8768402,96.9718402,59.0,76.0
969,96.8768402,96.97934020000001,66.0,74.0
970,96.8768402,96.98059020000001,63.0,81.0
971,96.8768402,97.2255902,35.0,88.0
972,96.8768402,97.2255902,47.0,88.0
973,97.17684020000002,97.5680902,59.0,83.0
974,97.17684020000002,97.5680902,63.0,85.0
975,97.17684020000002,97.57434020000001,66.0,82.0
976,97.47684020000001,97.62059020000001,35.0,82.0
977,97.47684020000001,97.62059020000001,47.0,82.0
978,97.77684020000001,97.87309020000001,66.0,77.0
979,97.77684020000001,97.8768402,59.0,81.0
980,97.77684020000001,97.8768402,63.0,82.0
981,98.0768402,98.1743402,63.0,82.0
982,98.0768402,98.17809020000001,59.0,77.0
983,98.0768402,98.18184020000001,66.0,75.0
984,98.0768402,98.3168402,35.0,88.0
985,98.0768402,98.3168402,47.0,88.0
986,98.3768402,98.50809020000001,63.0,83.0
987,98.3768402,98.51309020000001,59.0,82.0
988,98.3768402,98.52559020000001,66.0,81.0
989,98.67684020000002,98.80059020000002,63.0,78.0
990,98.67684020000002,98.80809020000001,59.0,74.0
991,98.67684020000002,98.8130902,66.0,74.0
992,98.67684020000002,98.91559020000001,35.0,83.0
993,98.67684020000002,98.91559020000001,47.0,83.0
994,98.97684020000001,99.4530902,63.0,90.0
995,98.97684020000001,99.46184020000001,59.0,83.0
996,98.97684020000001,99.46434020000001,66.0,82.0
997,99.27684020000001,99.6580902,35.0,102.0
998,99.27684020000001,99.6580902,47.0,102.0
999,99.5768402,99.74559020000001,59.0,82.0
1000,99.5768402,99.7505902,63.0,88.0
1001,99.5768402,99.76184020000001,66.0,82.0
1002,99.8768402,99.9743402,66.0,73.0
1003,99.8768402,99.97809020000001,61.0,75.0
1004,99.8768402,100.0068402,54.0,71.0
1005,99.8768402,100.0068402,69.0,72.0
1006,99.8768402,100.0355902,42.0,77.0
1007,100.17684020000002,100.26184020000001,61.0,76.0
1008,100.17684020000002,100.26309020000001,66.0,80.0
1009,100.17684020000002,100.29309020000001,69.0,73.0
1010,100.47684020000001,100.55559020000001,66.0,83.0
1011,100.47684020000001,100.5693402,61.0,82.0
1012,100.47684020000001,100.58809020000001,69.0,83.0
1013,100.47684020000001,100.5980902,42.0,82.0
1014,100.47684020000001,100.6105902,54.0,84.0
1015,100.77684020000001,100.87059020000001,61.0,80.0
1016,100.77684020000001,100.87184020000001,66.0,82.0
1017,100.77684020000001,100.8918402,69.0,76.0
1018,101.0768402,101.16809020000001,61.0,77.0
1019,101.0768402,101.1705902,66.0,81.0
1020,101.0768402,101.1905902,69.0,82.0
1021,101.0768402,101.20684020000002,54.0,79.0
1022,101.0768402,101.21184020000001,42.0,81.0
1023,101.3768402,101.46559020000001,61.0,81.0
1024,101.3768402,101.46684020000001,66.0,82.0
1025,101.3768402,101.4868402,69.0,82.0
1026,101.67684020000002,101.76309020000001,66.0,83.0
1027,101.67684020000002,101.7655902,61.0,82.0
1028,101.67684020000002,101.7830902,69.0,83.0
1029,101.67684020000002,101.7980902,54.0,83.0
1030,101.67684020000002,101.80059020000002,42.0,81.0
1031,101.97684020000001,102.05809020000001,66.0,82.0
1032,101.97684020000001,102.0618402,61.0,80.0
1033,101.97684020000001,102.08559020000001,69.0,82.0
1034,102.27684020000001,102.36809020000001,61.0,81.0
1035,102.27684020000001,102.3743402,66.0,82.0
1036,102.27684020000001,102.38684020000001,69.0,82.0
1037,102.27684020000001,102.39559020000002,54.0,81.0
1038,102.27684020000001,102.39684020000001,42.0,80.0
1039,102.5768402,102.6568402,61.0,81.0
1040,102.5768402,102.6568402,66.0,83.0
1041,102.5768402,102.67809020000001,69.0,82.0
1042,102.8768402,102.96309020000001,61.0,81.0
1043,102.8768402,102.9693402,66.0,82.0
1044,102.8768402,102.99184020000001,69.0,82.0
1045,102.8768402,103.0018402,42.0,81.0
1046,102.8768402,103.0055902,54.0,82.0
1047,103.17684020000002,103.27559020000001,66.0,83.0
1048,103.17684020000002,103.27684020000001,61.0,80.0
1049,103.17684020000002,103.28934020000001,69.0,83.0
1050,103.47684020000001,103.5780902,61.0,80.0
1051,103.47684020000001,103.5805902,66.0,83.0
1052,103.47684020000001,103.60309020000001,69.0,82.0
1053,103.47684020000001,103.6118402,42.0,81.0
1054,103.47684020000001,103.6118402,54.0,81.0
1055,103.77684020000001,103.86559020000001,61.0,81.0
1056,103.77684020000001,103.87309020000001,66.0,83.0
1057,103.77684020000001,103.8930902,69.0,82.0
1058,104.0768402,104.17684020000002,61.0,80.0
1059,104.0768402,104.18059020000001,66.0,82.0
1060,104.0768402,104.19934020000001,69.0,84.0
1061,104.0768402,104.21684020000001,42.0,81.0
1062,104.0768402,104.22684020000001,54.0,83.0
1063,104.3768402,104.4693402,66.0,81.0
1064,104.3768402,104.4730902,69.0,79.0
1065,104.3768402,104.47809020000001,61.0,79.0
1066,104.67684020000002,104.79434020000001,59.0,81.0
1067,104.67684020000002,104.7980902,64.0,81.0
1068,104.67684020000002,104.8118402,68.0,81.0
1069,104.67684020000002,104.83934020000001,52.0,81.0
1070,104.67684020000002,104.85559020000001,40.0,80.0
1071,104.97684020000001,105.0693402,59.0,81.0
1072,104.97684020000001,105.0693402,64.0,81.0
1073,104.97684020000001,105.07184020000001,68.0,81.0
1074,105.27684020000001,105.38559020000001,59.0,82.0
1075,105.27684020000001,105.3893402,64.0,82.0
1076,105.27684020000001,105.3918402,68.0,82.0
1077,105.27684020000001,105.4993402,40.0,81.0
1078,105.27684020000001,105.5043402,52.0,82.0
1079,105.5768402,105.6930902,59.0,85.0
1080,105.5768402,105.7043402,64.0,87.0
1081,105.5768402,105.71559020000001,68.0,86.0
1082,105.8768402,106.00809020000001,59.0,72.0
1083,105.8768402,106.02559020000001,63.0,78.0
1084,105.8768402,106.04309020000001,68.0,77.0
1085,105.8768402,106.18559020000001,44.0,81.0
1086,105.8768402,106.2180902,56.0,75.0
1087,106.17684020000002,106.30309020000001,59.0,77.0
1088,106.47684020000001,106.6618402,59.0,79.0
1089,106.47684020000001,106.70934020000001,63.0,84.0
1090,106.47684020000001,106.7330902,32.0,88.0
1091,106.47684020000001,106.7330902,44.0,88.0
1092,106.47684020000001,106.77684020000001,66.0,82.0
1093,106.77684020000001,109.15059020000001,37.0,82.0
1094,106.77684020000001,109.15059020000001,49.0,82.0
1095,106.77684020000001,109.16559020000001,61.0,77.0
1096,106.77684020000001,109.1743402,64.0,80.0
1097,106.77684020000001,109.23934020000002,68.0,78.0
1098,109.47684020000001,109.7368402,64.0,79.0
1099,109.47684020000001,109.73809020000002,61.0,77.0
1100,109.47684020000001,109.7493402,56.0,73.0
1101,109.47684020000001,109.7805902,37.0,87.0
1102,110.0768402,110.26309020000001,61.0,78.0
1103,110.0768402,110.27434020000001,64.0,81.0
1104,110.0768402,110.27809020000001,56.0,73.0
1105,110.0768402,110.30809020000001,37.0,85.0
1106,110.67684020000002,110.8493402,37.0,85.0
1107,110.67684020000002,110.85434020000001,61.0,75.0
1108,110.67684020000002,110.86559020000001,56.0,73.0
1109,110.67684020000002,110.88559020000001,64.0,74.0
1110,111.27684020000001,111.49559020000001,37.0,85.0
1111,111.27684020000001,111.5143402,61.0,78.0
1112,111.27684020000001,111.5355902,64.0,77.0
1113,111.27684020000001,111.54434020000001,56.0,76.0
1114,111.8768402,112.15184020000001,63.0,83.0
1115,111.8768402,112.1618402,44.0,82.0
1116,111.8768402,112.17684020000002,56.0,72.0
1117,112.47684020000001,112.68309020000001,63.0,83.0
1118,112.47684020000001,112.6868402,56.0,75.0
1119,112.47684020000001,112.71434020000001,44.0,81.0
1120,113.0768402,113.27434020000001,63.0,81.0
1121,113.0768402,113.27934020000001,56.0,73.0
1122,113.0768402,113.2818402,59.0,74.0
1123,113.0768402,113.3505902,44.0,82.0
1124,113.67684020000002,114.05309020000001,44.0,82.0
1125,113.67684020000002,114.05309020000001,56.0,73.0
1126,113.67684020000002,114.05434020000001,63.0,82.0
1127,113.67684020000002,114.0655902,59.0,76.0
1128,114.27684020000001,114.4418402,45.0,81.0
1129,114.27684020000001,114.52934020000001,61.0,81.0
1130,114.27684020000001,114.5330902,57.0,80.0
1131,114.8768402,115.01309020000001,45.0,76.0
1132,114.8768402,115.05684020000001,61.0,75.0
1133,114.8768402,115.0618402,57.0,71.0
1134,114.8768402,115.0693402,64.0,75.0
1135,115.4768402,115.61059020000002,45.0,83.0
1136,115.4768402,115.64684020000001,57.0,76.0
1137,115.4768402,115.6555902,61.0,77.0
1138,115.4768402,115.77184020000001,64.0,77.0
1139,116.0768402,116.2518402,45.0,83.0
1140,116.0768402,116.26684020000002,57.0,82.0
1141,116.0768402,116.2843402,61.0,80.0
1142,116.0768402,116.32309020000001,64.0,77.0
1143,116.67684020000002,116.8793402,44.0,82.0
1144,116.67684020000002,116.8805902,63.0,81.0
1145,116.67684020000002,116.89434020000002,56.0,76.0
1146,117.27684020000001,117.4743402,44.0,82.0
1147,117.27684020000001,117.47809020000001,56.0,78.0
1148,117.27684020000001,117.5005902,63.0,77.0
1149,117.8768402,118.08184020000002,63.0,81.0
1150,117.8768402,118.08309020000002,44.0,82.0
1151,117.8768402,118.1018402,56.0,76.0
1152,118.4768402,118.7193402,56.0,80.0
1153,118.4768402,118.86684020000001,60.0,85.0
1154,118.4768402,118.99059020000001,63.0,83.0
1155,118.4768402,119.0030902,44.0,83.0
1156,118.77684020000001,119.01809020000002,56.0,83.0
1157,119.0143402,119.01809020000002,56.0,79.0
1158,119.0455902,123.15184020000001,37.0,86.0
1159,119.0955902,123.17309020000002,61.0,76.0
