,start,end,pitch,velocity
0,3.7747817145833333,4.0668073625000005,67.0,86.0
1,4.033402214583334,4.324350277083333,72.0,86.0
2,4.292022714583333,4.5959018020833335,74.0,90.0
3,4.550643214583333,5.118530729166667,75.0,82.0
4,5.067884214583334,5.34374608125,72.0,86.0
5,5.326504714583334,6.231676464583334,67.0,83.0
6,6.360986714583333,6.6206848,67.0,87.0
7,6.619607214583334,7.127149945833334,75.0,86.0
8,7.136848214583334,7.44503764375,72.0,82.0
9,7.395468714583334,8.688571214583334,68.0,71.0
10,8.688571214583334,9.001070985416668,65.0,82.0
11,8.947191714583333,9.209044970833334,67.0,77.0
12,9.205812214583334,9.508613716666668,71.0,86.0
13,9.464432714583333,9.764001460416667,72.0,84.0
14,9.723053214583334,10.21550975,74.0,86.0
15,10.240294214583333,10.556026741666667,71.0,83.0
16,10.498914714583334,11.995680858333333,72.0,86.0
17,12.050637714583333,12.31356855625,67.0,83.0
18,12.309258214583334,12.610982131250001,72.0,84.0
19,12.567878714583333,12.86960263125,74.0,95.0
20,12.826499214583334,13.385766045833334,75.0,84.0
21,13.343740214583335,13.632533106250001,72.0,81.0
22,13.602360714583334,14.635765129166668,79.0,84.0
23,14.895463214583334,15.188566447916667,74.0,88.0
24,15.154083714583335,15.331885308333334,75.0,81.0
25,15.283393964583334,15.39761801875,74.0,82.0
26,15.412704214583334,15.671324714583333,72.0,79.0
27,15.671324714583333,16.857746258333336,68.0,82.0
28,16.964427214583335,17.258608033333335,65.0,83.0
29,17.223047714583334,17.475202702083333,67.0,82.0
30,17.481668214583333,17.754297325,71.0,82.0
31,17.740288714583333,18.043090216666666,72.0,86.0
32,17.998909214583335,18.476279554166666,74.0,86.0
33,18.516150214583334,19.0797273875,71.0,85.0
34,19.033391214583332,23.300629464583334,72.0,84.0
35,27.567867714583336,27.873901972916666,67.0,58.0
36,27.826488214583335,28.151919010416666,72.0,75.0
37,28.085108714583335,28.763987527083334,79.0,76.0
38,29.636831714583334,30.2262709375,72.0,72.0
39,29.895452214583333,30.50105521875,67.0,68.0
40,30.154072714583336,31.170235762500003,79.0,76.0
41,30.671313714583334,31.29415808541667,72.0,74.0
42,32.22303671458334,32.42777794375,68.0,67.0
43,31.964416214583334,32.43855379791667,75.0,71.0
44,32.740277714583335,33.05277748541667,67.0,54.0
45,32.998898214583335,33.33726003541667,74.0,81.0
46,33.257518714583334,33.48165648125,67.0,65.0
47,33.77475971458333,34.28769037291667,67.0,58.0
48,34.03338021458333,34.48488850416667,72.0,71.0
49,34.80924171458334,35.27368102916667,72.0,69.0
50,34.29200071458334,35.300620664583334,79.0,74.0
51,35.843723714583334,36.14975797291667,67.0,58.0
52,36.10234421458333,36.42777501041667,72.0,75.0
53,36.36096471458333,37.039843527083335,79.0,76.0
54,37.912687714583335,38.5021269375,72.0,72.0
55,38.171308214583334,38.77691121875,67.0,68.0
56,38.42992871458333,39.446091762500004,79.0,76.0
57,38.94716971458333,39.570014085416666,72.0,74.0
58,40.498892714583334,40.70363394375,68.0,67.0
59,40.240272214583335,40.714409797916666,75.0,71.0
60,41.01613371458333,41.32863348541667,67.0,54.0
61,41.27475421458333,41.61311603541667,74.0,81.0
62,41.53337471458333,41.757512481250004,67.0,65.0
63,42.05061571458334,42.56354637291667,67.0,58.0
64,42.309236214583336,42.76074450416667,72.0,71.0
65,43.085097714583334,43.54953702916667,72.0,69.0
66,42.567856714583336,43.57647666458333,79.0,74.0
67,44.11957971458334,44.42561397291667,67.0,58.0
68,44.37820021458334,44.70363101041667,72.0,75.0
69,44.63682071458334,45.31569952708333,79.0,76.0
70,46.18854371458333,46.7779829375,72.0,72.0
71,46.44716421458334,47.05276721875,67.0,68.0
72,46.70578471458334,47.7219477625,79.0,76.0
73,47.223025714583336,47.84587008541667,72.0,74.0
74,48.77474871458333,48.97948994375,68.0,67.0
75,48.51612821458333,48.99026579791667,75.0,71.0
76,49.29198971458334,49.60448948541667,67.0,54.0
77,49.55061021458334,49.88897203541667,74.0,81.0
78,49.809230714583336,50.03336848125,67.0,65.0
79,50.326471714583334,50.839402372916666,67.0,58.0
80,50.585092214583334,51.03660050416667,72.0,71.0
81,51.36095371458334,51.82539302916667,72.0,69.0
82,50.84371271458333,51.85233266458334,79.0,74.0
83,52.395435714583336,52.70146997291667,67.0,58.0
84,52.654056214583335,52.97948701041667,72.0,75.0
85,52.912676714583334,53.59155552708334,79.0,76.0
86,54.46439971458334,55.050606181250004,72.0,77.0
87,54.723020214583336,55.08401132916667,68.0,63.0
88,54.981640714583335,55.50750239791667,80.0,80.0
89,55.498881714583334,55.893277977083336,72.0,78.0
90,55.75750221458333,56.00211410416667,68.0,71.0
91,56.27474321458334,56.619570547916666,68.0,73.0
92,56.53336371458334,56.87172553541667,65.0,75.0
93,56.79198421458334,57.315690727083336,72.0,76.0
94,57.309225214583336,57.685302525000004,71.0,71.0
95,57.567845714583335,57.86741446041667,67.0,71.0
96,57.826466214583334,58.17991423125,74.0,80.0
97,58.08508671458333,58.392198558333334,67.0,71.0
98,58.34370721458333,58.62603459375,72.0,74.0
99,58.60232771458334,59.149741106250005,67.0,75.0
100,58.86094821458334,59.17452557083334,72.0,73.0
101,59.11956871458334,59.999956000000005,75.0,77.0
102,59.636809714583336,60.20792998541667,72.0,71.0
103,59.895430214583335,60.22948169375,67.0,66.0
104,60.412671214583334,60.71547271666667,67.0,81.0
105,60.412671214583334,60.7564209625,72.0,81.0
106,60.92991221458333,61.37387740625,72.0,88.0
107,61.44715321458334,61.84370464791667,74.0,88.0
108,61.964394214583336,62.37064391666667,75.0,83.0
109,62.481635214583335,64.58831470416666,77.0,76.0
110,64.55059921458333,65.62926221666667,80.0,82.0
111,65.58508121458334,66.58508048125,77.0,78.0
112,66.61956321458334,68.22947582708333,79.0,81.0
113,68.17128621458333,68.46007910625,77.0,79.0
114,68.42990671458334,68.71762202083333,75.0,81.0
115,68.68852721458333,70.39218975833333,77.0,80.0
116,70.75749121458334,71.82753353333334,72.0,76.0
117,70.75749121458334,71.88141280416667,77.0,72.0
118,71.79197321458334,72.81891211666667,80.0,77.0
119,72.82645521458333,74.40942819166666,77.0,79.0
120,74.37817821458334,74.67559178958334,75.0,83.0
121,74.63679871458334,74.90296231250001,77.0,79.0
122,74.89541921458334,76.22515961875,79.0,77.0
123,76.18852171458333,76.46869392291667,80.0,83.0
124,76.44714221458334,76.69714203125001,79.0,82.0
125,76.70576271458333,77.96438248125,77.0,83.0
126,77.99886521458333,78.51610621458333,71.0,83.0
127,78.51610621458333,79.03334721458333,67.0,83.0
128,79.03334721458333,79.78011390833333,72.0,77.0
129,79.29196771458334,79.96976894166667,67.0,66.0
130,79.55058821458334,79.98054479583334,75.0,69.0
131,80.32644971458333,80.60985467916667,67.0,68.0
132,80.06782921458334,80.62278570416667,71.0,74.0
133,80.58507021458334,81.06998365208334,74.0,77.0
134,80.84369071458333,81.13679394791667,67.0,65.0
135,81.10231121458334,81.43205235208333,72.0,74.0
136,81.36093171458333,81.71006938958334,67.0,70.0
137,81.61955221458334,82.70360314375,75.0,73.0
138,81.87817271458334,82.71114624166667,67.0,66.0
139,83.17127521458333,83.8447661,72.0,77.0
140,83.68851621458333,84.07644696458334,75.0,70.0
141,83.42989571458334,84.08937798958334,67.0,70.0
142,84.46437771458334,84.73592923958334,67.0,65.0
143,84.20575721458334,84.82213607291666,71.0,77.0
144,84.72299821458334,85.22407543333334,74.0,81.0
145,84.98161871458333,85.30920468125001,67.0,67.0
146,85.24023921458334,85.93959215000001,72.0,73.0
147,85.49885971458333,86.04196276458333,67.0,70.0
148,86.01610071458333,86.60338476666666,75.0,82.0
149,86.53334171458334,86.99131551666667,72.0,69.0
150,86.79196221458334,87.03226376250001,67.0,66.0
151,87.30920321458333,87.96114239166667,72.0,75.0
152,87.82644421458333,88.19066808541668,75.0,69.0
153,87.56782371458334,88.25424562500001,67.0,69.0
154,88.60230571458334,88.87385723958333,67.0,68.0
155,88.34368521458333,88.89217619166666,71.0,75.0
156,88.86092621458333,89.185279425,74.0,77.0
157,89.11954671458334,89.67989113125,72.0,80.0
158,89.63678771458333,89.96114092500001,67.0,64.0
159,89.89540821458334,90.23808037708334,75.0,74.0
160,90.15402871458333,90.72622657083333,72.0,71.0
161,91.18851071458333,91.39325194375,67.0,70.0
162,91.44713121458334,92.01932907083334,72.0,74.0
163,91.70575171458334,92.03226009583334,67.0,69.0
164,91.96437221458334,92.27256164375001,75.0,73.0
165,92.74023371458334,92.987000775,67.0,65.0
166,92.48161321458333,93.02579385,71.0,77.0
167,92.99885421458333,93.45036250416668,74.0,81.0
168,93.25747471458334,93.555965875,67.0,68.0
169,93.51609521458333,94.43096523333334,72.0,72.0
170,94.80919771458333,95.10122336250001,67.0,86.0
171,95.06781821458334,95.35876627708333,72.0,86.0
172,95.32643871458333,95.63031780208334,74.0,90.0
173,95.58505921458334,96.15294672916667,75.0,82.0
174,96.10230021458334,96.37816208125001,72.0,86.0
175,96.36092071458334,97.26609246458334,67.0,83.0
176,97.39540271458334,97.6551008,67.0,87.0
177,97.65402321458333,98.16156594583333,75.0,86.0
178,98.17126421458333,98.47945364375,72.0,82.0
179,98.42988471458334,99.72298721458334,68.0,71.0
180,99.72298721458334,100.03548698541667,65.0,82.0
181,99.98160771458333,100.24346097083334,67.0,77.0
182,100.24022821458334,100.54302971666667,71.0,86.0
183,100.49884871458333,100.79841746041667,72.0,84.0
184,100.75746921458334,101.24992575,74.0,86.0
185,101.27471021458334,101.59044274166666,71.0,83.0
186,101.53333071458334,103.03009685833334,72.0,86.0
187,103.08505371458334,103.34798455625,67.0,83.0
188,103.34367421458333,103.64539813125,72.0,84.0
189,103.60229471458334,103.90401863125001,74.0,95.0
190,103.86091521458334,104.42018204583334,75.0,84.0
191,104.37815621458334,104.66694910625,72.0,81.0
192,104.63677671458333,105.67018112916666,79.0,84.0
193,105.92987921458334,106.22298244791666,74.0,88.0
194,106.18849971458334,106.36630130833333,75.0,81.0
195,106.31780996458333,106.43203401875,74.0,82.0
196,106.44712021458334,106.70574071458334,72.0,79.0
197,106.70574071458334,107.89216225833334,68.0,82.0
198,107.99884321458333,108.29302403333334,65.0,83.0
199,108.25746371458334,108.50961870208334,67.0,82.0
200,108.51608421458334,108.788713325,71.0,82.0
201,108.77470471458334,109.07750621666668,72.0,86.0
202,109.03332521458334,109.51069555416667,74.0,86.0
203,109.55056621458334,110.11414338750001,71.0,85.0
204,110.06780721458334,114.33504546458333,72.0,84.0
205,118.60228371458334,118.90831797291668,67.0,58.0
206,118.86090421458334,119.18633501041667,72.0,75.0
207,119.11952471458333,119.79840352708334,79.0,76.0
208,120.67124771458334,121.26068693750001,72.0,72.0
209,120.92986821458334,121.53547121875,67.0,68.0
210,121.18848871458334,122.2046517625,79.0,76.0
211,121.70572971458334,122.32857408541668,72.0,74.0
212,123.25745271458334,123.46219394375001,68.0,67.0
213,122.99883221458335,123.47296979791668,75.0,71.0
214,123.77469371458334,124.08719348541668,67.0,54.0
215,124.03331421458334,124.37167603541667,74.0,81.0
216,124.29193471458333,124.51607248125,67.0,65.0
217,124.80917571458333,125.32210637291668,67.0,58.0
218,125.06779621458334,125.51930450416667,72.0,71.0
219,125.84365771458334,126.30809702916667,72.0,69.0
220,125.32641671458333,126.33503666458334,79.0,74.0
221,126.87813971458334,127.18417397291667,67.0,58.0
222,127.13676021458333,127.46219101041667,72.0,75.0
223,127.39538071458334,128.07425952708334,79.0,76.0
224,128.94710371458333,129.53331018125002,72.0,77.0
225,129.20572421458334,129.56671532916667,68.0,63.0
226,129.46434471458335,129.99020639791667,80.0,80.0
227,129.98158571458333,130.37598197708334,72.0,78.0
228,130.24020621458334,130.48481810416666,68.0,71.0
229,130.75744721458335,131.10227454791666,68.0,73.0
230,131.01606771458333,131.35442953541667,65.0,75.0
231,131.27468821458334,131.79839472708335,72.0,76.0
232,131.79192921458335,132.168006525,71.0,71.0
233,132.05054971458333,132.35011846041667,67.0,71.0
234,132.30917021458333,132.66261823125,74.0,80.0
235,132.56779071458334,132.87490255833333,67.0,71.0
236,132.82641121458335,133.10873859375002,72.0,74.0
237,133.08503171458335,133.63244510625,67.0,75.0
238,133.34365221458333,133.65722957083335,72.0,73.0
239,133.60227271458334,134.48266,75.0,77.0
240,134.11951371458335,134.69063398541667,72.0,71.0
241,134.37813421458333,134.71218569375,67.0,66.0
242,134.89537521458334,135.19817671666667,67.0,81.0
243,134.89537521458334,135.2391249625,72.0,81.0
244,135.41261621458335,135.85658140625,72.0,88.0
245,135.92985721458334,136.32640864791668,74.0,88.0
246,136.44709821458335,136.85334791666668,75.0,83.0
247,136.96433921458333,139.07101870416668,77.0,76.0
248,139.03330321458333,140.11196621666667,80.0,82.0
249,140.06778521458335,141.06778448125002,77.0,78.0
250,141.10226721458335,142.71217982708333,79.0,81.0
251,142.65399021458333,142.94278310625,77.0,79.0
252,142.91261071458334,143.20032602083333,75.0,81.0
253,143.17123121458334,144.87489375833334,77.0,80.0
254,145.24019521458334,146.31023753333335,72.0,76.0
255,145.24019521458334,146.36411680416668,77.0,72.0
256,146.27467721458333,147.30161611666668,80.0,77.0
257,147.30915921458333,148.89213219166666,77.0,79.0
258,148.86088221458334,149.15829578958335,75.0,83.0
259,149.11950271458335,149.3856663125,77.0,79.0
260,149.37812321458333,150.70786361875,79.0,77.0
261,150.67122571458333,150.95139792291667,80.0,83.0
262,150.92984621458334,151.17984603125,79.0,82.0
263,151.18846671458334,152.44708648125,77.0,83.0
264,152.48156921458335,152.99881021458333,71.0,83.0
265,152.99881021458333,153.51605121458334,67.0,83.0
266,153.51605121458334,154.26281790833335,72.0,77.0
267,153.77467171458335,154.45247294166668,67.0,66.0
268,154.03329221458333,154.46324879583335,75.0,69.0
269,154.80915371458335,155.09255867916667,67.0,68.0
270,154.55053321458334,155.10548970416667,71.0,74.0
271,155.06777421458335,155.55268765208334,74.0,77.0
272,155.32639471458333,155.61949794791667,67.0,65.0
273,155.58501521458334,155.91475635208334,72.0,74.0
274,155.84363571458334,156.19277338958335,67.0,70.0
275,156.10225621458335,157.18630714375,75.0,73.0
276,156.36087671458333,157.19385024166667,67.0,66.0
277,157.65397921458333,158.3274701,72.0,77.0
278,158.17122021458334,158.55915096458335,75.0,70.0
279,157.91259971458334,158.57208198958335,67.0,70.0
280,158.94708171458333,159.21863323958334,67.0,65.0
281,158.68846121458333,159.30484007291668,71.0,77.0
282,159.20570221458334,159.70677943333334,74.0,81.0
283,159.46432271458335,159.79190868125,67.0,67.0
284,159.72294321458335,160.42229615,72.0,73.0
285,159.98156371458333,160.52466676458334,67.0,70.0
286,160.49880471458334,161.08608876666668,75.0,82.0
287,161.01604571458333,161.4740195166667,72.0,69.0
288,161.27466621458333,161.5149677625,67.0,66.0
289,161.79190721458335,162.44384639166668,72.0,75.0
290,162.30914821458333,162.67337208541667,75.0,69.0
291,162.05052771458335,162.736949625,67.0,69.0
292,163.08500971458335,163.35656123958333,67.0,68.0
293,162.82638921458334,163.37488019166668,71.0,75.0
294,163.34363021458333,163.66798342500002,74.0,77.0
295,163.60225071458333,164.16259513125001,72.0,80.0
296,164.11949171458335,164.443844925,67.0,64.0
297,164.37811221458335,164.72078437708333,75.0,74.0
298,164.63673271458333,165.20893057083333,72.0,71.0
299,165.67121471458333,165.87595594375,67.0,70.0
300,165.92983521458333,166.50203307083333,72.0,74.0
301,166.18845571458334,166.51496409583334,67.0,69.0
302,166.44707621458335,166.75526564375,75.0,73.0
303,167.22293771458334,167.469704775,67.0,65.0
304,166.96431721458333,167.50849785,71.0,77.0
305,167.48155821458334,167.93306650416667,74.0,81.0
306,167.74017871458335,168.038669875,67.0,68.0
307,167.99879921458333,168.91366923333334,72.0,72.0
308,185.06775221458335,185.52141567500001,60.0,97.0
309,185.58499321458333,186.13887211875002,62.0,92.0
310,186.10223421458335,186.64641485,63.0,92.0
311,186.61947521458333,187.13671621458334,65.0,82.0
312,187.13671621458334,187.46645735208335,65.0,86.0
313,187.39533671458335,187.71861233958333,67.0,82.0
314,187.65395721458333,187.92658632500002,68.0,92.0
315,187.91257771458334,188.17119821458334,72.0,82.0
316,188.17119821458334,188.49447383958335,77.0,82.0
317,188.42981871458335,188.72723228958333,79.0,82.0
318,188.68843921458335,189.20568021458334,80.0,88.0
319,189.20568021458334,189.4977058625,84.0,85.0
320,189.46430071458335,189.9761537875,79.0,83.0
321,189.98154171458333,190.24878289791667,80.0,83.0
322,190.24016221458334,190.48908444583333,75.0,80.0
323,190.49878271458334,190.79188594791668,77.0,74.0
324,190.75740321458335,191.52033368958334,79.0,83.0
325,191.53326471458334,192.18843664791666,82.0,85.0
326,192.30912621458333,192.56128120208334,77.0,79.0
327,192.56774671458334,192.814513775,75.0,82.0
328,192.82636721458334,193.10222908125002,77.0,83.0
329,193.08498771458335,194.37809021458335,70.0,88.0
330,195.41257221458335,195.74231335208333,65.0,86.0
331,195.67119271458333,195.99446833958334,67.0,82.0
332,195.92981321458333,196.20244232500002,68.0,92.0
333,196.18843371458334,196.44705421458335,72.0,82.0
334,196.44705421458335,196.77032983958335,77.0,82.0
335,196.70567471458335,197.00308828958333,79.0,82.0
336,196.96429521458333,197.48153621458334,80.0,88.0
337,197.48153621458334,197.7735618625,84.0,85.0
338,197.74015671458335,198.25200978750001,79.0,83.0
339,198.25739771458333,198.52463889791667,77.0,83.0
340,198.51601821458334,198.76494044583333,75.0,80.0
341,198.77463871458335,199.0677419479167,77.0,74.0
342,199.03325921458335,199.55050021458334,79.0,83.0
343,199.55050021458334,199.80912071458334,82.0,82.0
344,199.80912071458334,200.06774121458335,84.0,85.0
345,200.06774121458335,200.58498221458333,82.0,82.0
346,200.58498221458333,200.87269752083333,80.0,87.0
347,200.84360271458334,201.12808526458335,79.0,85.0
348,201.10222321458335,202.13670521458334,82.0,86.0
349,202.13670521458334,203.17118721458334,83.0,86.0
350,203.17118721458334,203.91795390833335,72.0,77.0
351,203.42980771458335,204.10760894166668,67.0,66.0
352,203.68842821458335,204.11838479583335,75.0,69.0
353,204.46428971458334,204.74769467916667,67.0,68.0
354,204.20566921458334,204.76062570416667,71.0,74.0
355,204.72291021458335,205.20782365208333,74.0,77.0
356,204.98153071458333,205.27463394791667,67.0,65.0
357,205.24015121458334,205.56989235208334,72.0,74.0
358,205.49877171458334,205.84790938958335,67.0,70.0
359,205.75739221458335,206.84144314375,75.0,73.0
360,206.01601271458335,206.84898624166667,67.0,66.0
361,207.30911521458333,207.9826061,72.0,77.0
362,207.82635621458334,208.21428696458335,75.0,70.0
363,207.56773571458334,208.22721798958335,67.0,70.0
364,208.60221771458333,208.87376923958334,67.0,65.0
365,208.34359721458335,208.95997607291667,71.0,77.0
366,208.86083821458334,209.36191543333334,74.0,81.0
367,209.11945871458335,209.44704468125002,67.0,67.0
368,209.37807921458335,210.07743215000002,72.0,73.0
369,209.63669971458333,210.17980276458334,67.0,70.0
370,210.15394071458334,210.74122476666668,75.0,82.0
371,210.67118171458335,211.12915551666669,72.0,69.0
372,210.92980221458333,211.17010376250002,67.0,66.0
373,211.44704321458335,212.09898239166668,72.0,75.0
374,211.96428421458333,212.32850808541667,75.0,69.0
375,211.70566371458335,212.39208562500002,67.0,69.0
376,212.74014571458335,213.01169723958336,67.0,68.0
377,212.48152521458334,213.03001619166668,71.0,75.0
378,212.99876621458336,213.32311942500002,74.0,77.0
379,213.25738671458333,213.81773113125,72.0,80.0
380,213.77462771458335,214.098980925,67.0,64.0
381,214.03324821458335,214.37592037708333,75.0,74.0
382,214.29186871458333,214.86406657083333,72.0,71.0
383,215.32635071458336,215.53109194375,67.0,70.0
384,215.58497121458333,216.15716907083333,72.0,74.0
385,215.84359171458334,216.17010009583333,67.0,69.0
386,216.10221221458335,216.41040164375002,75.0,73.0
387,216.87807371458334,217.124840775,67.0,65.0
388,216.61945321458333,217.16363385,71.0,77.0
389,217.13669421458334,217.58820250416667,74.0,81.0
390,217.39531471458335,217.693805875,67.0,68.0
391,217.65393521458333,218.56880523333334,72.0,72.0
392,219.72289921458335,220.46966590833335,72.0,77.0
393,219.98151971458333,220.65932094166666,67.0,66.0
394,220.24014021458333,220.67009679583333,75.0,69.0
395,221.01600171458335,221.29940667916668,67.0,68.0
396,220.75738121458335,221.31233770416668,71.0,74.0
397,221.27462221458333,221.75953565208334,74.0,77.0
398,221.53324271458334,221.82634594791668,67.0,65.0
399,221.79186321458334,222.12160435208335,72.0,74.0
400,222.05048371458335,222.39962138958333,67.0,70.0
401,222.30910421458333,223.39315514375002,75.0,73.0
402,222.56772471458333,223.40069824166667,67.0,66.0
403,223.86082721458334,224.5343181,72.0,77.0
404,224.37806821458335,224.76599896458333,75.0,70.0
405,224.11944771458334,224.77892998958333,67.0,70.0
406,225.15392971458334,225.42548123958335,67.0,65.0
407,224.89530921458334,225.51168807291668,71.0,77.0
408,225.41255021458335,225.91362743333335,74.0,81.0
409,225.67117071458335,225.99875668125,67.0,67.0
410,225.92979121458333,226.62914415,72.0,73.0
411,226.18841171458334,226.73151476458335,67.0,70.0
412,226.70565271458335,227.29293676666668,75.0,82.0
413,227.22289371458334,227.68086751666667,72.0,69.0
414,227.48151421458334,227.7218157625,67.0,66.0
415,227.99875521458335,228.65069439166666,72.0,75.0
416,228.51599621458334,228.88022008541668,75.0,69.0
417,228.25737571458333,228.943797625,67.0,69.0
418,229.29185771458333,229.56340923958334,67.0,68.0
419,229.03323721458335,229.58172819166668,71.0,75.0
420,229.55047821458334,229.874831425,74.0,77.0
421,229.80909871458334,230.36944313125002,72.0,80.0
422,230.32633971458336,230.65069292500002,67.0,64.0
423,230.58496021458333,230.92763237708334,75.0,74.0
424,230.84358071458334,231.41577857083334,72.0,71.0
425,231.87806271458334,232.08280394375,67.0,70.0
426,232.13668321458334,232.70888107083334,72.0,74.0
427,232.39530371458335,232.72181209583334,67.0,69.0
428,232.65392421458336,232.96211364375,75.0,73.0
429,233.42978571458335,233.676552775,67.0,65.0
430,233.17116521458334,233.71534585,71.0,77.0
431,233.68840621458335,234.13991450416668,74.0,81.0
432,233.94702671458333,234.24551787500002,67.0,68.0
433,234.20564721458334,235.12051723333335,72.0,72.0
434,235.49874971458334,235.7907753625,67.0,86.0
435,235.75737021458335,236.04831827708335,72.0,86.0
436,236.01599071458335,236.31986980208333,74.0,90.0
437,236.27461121458333,236.84249872916666,75.0,82.0
438,236.79185221458334,237.06771408125002,72.0,86.0
439,237.05047271458335,237.95564446458334,67.0,83.0
440,238.08495471458335,238.3446528,67.0,87.0
441,238.34357521458335,238.85111794583335,75.0,86.0
442,238.86081621458334,239.16900564375,72.0,82.0
443,239.11943671458334,240.41253921458335,68.0,71.0
444,240.41253921458335,240.7250389854167,65.0,82.0
445,240.67115971458335,240.93301297083335,67.0,77.0
446,240.92978021458333,241.2325817166667,71.0,86.0
447,241.18840071458334,241.48796946041668,72.0,84.0
448,241.44702121458334,241.93947775,74.0,86.0
449,241.96426221458333,242.27999474166668,71.0,83.0
450,242.22288271458333,243.71964885833333,72.0,86.0
451,243.77460571458334,244.03753655625002,67.0,83.0
452,244.03322621458335,244.33495013125,72.0,84.0
453,244.29184671458333,244.59357063125,74.0,95.0
454,244.55046721458334,245.10973404583333,75.0,84.0
455,245.06770821458335,245.35650110625002,72.0,81.0
456,245.32632871458335,246.35973312916667,79.0,84.0
457,246.61943121458333,246.91253444791667,74.0,88.0
458,246.87805171458334,247.05585330833335,75.0,81.0
459,247.00736196458334,247.12158601875,74.0,82.0
460,247.13667221458334,247.39529271458335,72.0,79.0
461,247.39529271458335,248.58171425833334,68.0,82.0
462,248.68839521458335,248.98257603333334,65.0,83.0
463,248.94701571458333,249.19917070208334,67.0,82.0
464,249.20563621458334,249.47826532500002,71.0,82.0
465,249.46425671458334,249.76705821666667,72.0,86.0
466,249.72287721458335,250.20024755416668,74.0,86.0
467,250.24011821458333,250.8036953875,71.0,85.0
468,250.75735921458335,251.79184121458334,72.0,84.0
469,252.05046171458335,252.3424873625,67.0,86.0
470,252.30908221458336,252.60003027708333,72.0,86.0
471,252.56770271458333,252.87158180208334,74.0,90.0
472,252.82632321458334,253.39421072916667,75.0,82.0
473,253.34356421458335,253.61942608125,72.0,86.0
474,253.60218471458333,254.50735646458335,67.0,83.0
475,254.63666671458336,254.89636480000001,67.0,87.0
476,254.89528721458333,255.40282994583333,75.0,86.0
477,255.41252821458335,255.72071764375002,72.0,82.0
478,255.67114871458335,256.9642512145833,68.0,71.0
479,256.9642512145833,257.2767509854167,65.0,82.0
480,257.22287171458333,257.4847249708333,67.0,77.0
481,257.48149221458334,257.7842937166667,71.0,86.0
482,257.74011271458335,258.03968146041666,72.0,84.0
483,257.99873321458335,258.49118975,74.0,86.0
484,258.51597421458337,258.83170674166666,71.0,83.0
485,258.7745947145833,260.27136085833337,72.0,86.0
486,260.32631771458335,260.58924855625,67.0,83.0
487,260.58493821458336,260.88666213125003,72.0,84.0
488,260.84355871458337,261.14528263125,74.0,95.0
489,261.1021792145833,261.6614460458333,75.0,84.0
490,261.61942021458333,261.90821310625,72.0,81.0
491,261.87804071458334,262.9114451291667,79.0,84.0
492,263.17114321458337,263.46424644791665,74.0,88.0
493,263.4297637145833,263.60756530833333,75.0,81.0
494,263.5590739645833,263.67329801875,74.0,82.0
495,263.6883842145833,263.94700471458333,72.0,79.0
496,263.94700471458333,265.1334262583333,68.0,82.0
497,265.24010721458336,265.5342880333333,65.0,83.0
498,265.49872771458337,265.75088270208335,67.0,82.0
499,265.7573482145833,266.029977325,71.0,82.0
500,266.0159687145833,266.3187702166667,72.0,86.0
501,266.27458921458333,266.75195955416666,74.0,86.0
502,266.79183021458334,267.3554073875,71.0,85.0
503,267.30907121458335,271.57630946458335,72.0,84.0
