,start,end,pitch,velocity
0,26.533385714583336,26.73166143125,67.0,83.0
1,26.792006214583335,27.063557739583334,72.0,82.0
2,27.050626714583334,27.308169629166667,74.0,90.0
3,27.309247214583333,27.637910766666668,75.0,78.0
4,27.567867714583336,27.866358875,74.0,81.0
5,27.826488214583335,28.10342766666667,72.0,86.0
6,28.085108714583335,28.388987802083335,74.0,88.0
7,28.343729214583334,28.721961695833336,75.0,83.0
8,28.602349714583333,28.888987435416666,74.0,83.0
9,28.860970214583336,29.15407344791667,72.0,82.0
10,29.119590714583335,29.44502151041667,74.0,88.0
11,29.378211214583335,29.728426475000003,75.0,83.0
12,29.636831714583334,29.92562460625,74.0,81.0
13,29.895452214583333,30.185322691666666,72.0,83.0
14,30.154072714583336,30.43747767916667,70.0,86.0
15,30.412693214583335,30.703641277083335,72.0,81.0
16,30.671313714583334,31.453640727083336,67.0,80.0
17,31.964416214583334,32.16053676041667,75.0,83.0
18,32.22303671458334,32.4310107,75.0,82.0
19,32.481657214583336,32.65514846666667,74.0,87.0
20,32.740277714583335,33.185320491666666,74.0,87.0
21,33.257518714583334,34.57001775208334,72.0,83.0
22,34.80924171458334,35.00751743125,67.0,83.0
23,35.067862214583336,35.339413739583335,72.0,82.0
24,35.326482714583335,35.58402562916667,74.0,90.0
25,35.585103214583334,35.91376676666667,75.0,78.0
26,35.843723714583334,36.142214875,74.0,81.0
27,36.10234421458333,36.379283666666666,72.0,86.0
28,36.36096471458333,36.66484380208333,74.0,88.0
29,36.61958521458333,36.997817695833334,75.0,83.0
30,36.87820571458334,37.16484343541667,74.0,83.0
31,37.13682621458334,37.42992944791667,72.0,82.0
32,37.395446714583336,37.72087751041667,74.0,88.0
33,37.654067214583335,38.004282475000004,75.0,83.0
34,37.912687714583335,38.20148060625,74.0,81.0
35,38.171308214583334,38.46117869166667,72.0,83.0
36,38.42992871458333,38.71333367916667,70.0,86.0
37,38.68854921458333,38.97949727708333,72.0,81.0
38,38.94716971458333,39.72949672708334,67.0,80.0
39,40.240272214583335,40.436392760416666,75.0,83.0
40,40.498892714583334,40.7068667,75.0,82.0
41,40.757513214583334,40.93100446666667,77.0,87.0
42,41.01613371458333,41.46117649166667,77.0,87.0
43,41.53337471458333,41.66376255,75.0,81.0
44,41.662684964583335,41.789840043750004,74.0,81.0
45,41.79199521458334,42.881434070833336,72.0,76.0
46,43.085097714583334,43.28337343125,67.0,83.0
47,43.34371821458333,43.61526973958333,72.0,82.0
48,43.60233871458333,43.859881629166665,74.0,90.0
49,43.86095921458333,44.189622766666666,75.0,78.0
50,44.11957971458334,44.418070875000005,74.0,81.0
51,44.37820021458334,44.65513966666667,72.0,86.0
52,44.63682071458334,44.94069980208334,74.0,88.0
53,44.895441214583336,45.27367369583334,75.0,83.0
54,45.154061714583335,45.44069943541667,74.0,83.0
55,45.412682214583334,45.70578544791667,72.0,82.0
56,45.671302714583334,45.99673351041667,74.0,88.0
57,45.92992321458333,46.280138475,75.0,83.0
58,46.18854371458333,46.47733660625,74.0,81.0
59,46.44716421458334,46.73703469166667,72.0,83.0
60,46.70578471458334,46.98918967916667,70.0,86.0
61,46.96440521458334,47.25535327708334,72.0,81.0
62,47.223025714583336,48.005352727083334,67.0,80.0
63,48.51612821458333,48.71224876041667,75.0,83.0
64,48.77474871458333,48.982722700000004,75.0,82.0
65,49.03336921458334,49.20686046666667,74.0,87.0
66,49.29198971458334,49.73703249166667,74.0,87.0
67,49.809230714583336,51.12172975208333,72.0,83.0
68,51.36095371458334,51.55922943125,67.0,83.0
69,51.61957421458334,51.89112573958334,72.0,82.0
70,51.87819471458334,52.13573762916667,74.0,90.0
71,52.136815214583336,52.46547876666667,75.0,78.0
72,52.395435714583336,52.693926875,74.0,81.0
73,52.654056214583335,52.93099566666667,72.0,86.0
74,52.912676714583334,53.216555802083334,74.0,88.0
75,53.17129721458333,53.549529695833336,75.0,83.0
76,53.42991771458333,53.716555435416666,74.0,83.0
77,53.68853821458334,53.981641447916665,72.0,82.0
78,53.94715871458334,54.272589510416665,74.0,88.0
79,54.20577921458334,54.555994475000006,75.0,83.0
80,54.46439971458334,54.75319260625,74.0,81.0
81,54.723020214583336,55.01289069166667,72.0,83.0
82,54.981640714583335,55.26504567916667,70.0,86.0
83,55.240261214583334,55.531209277083335,72.0,81.0
84,55.498881714583334,56.28120872708334,75.0,80.0
85,56.79198421458334,56.98810476041667,75.0,83.0
86,57.050604714583336,57.2585787,75.0,82.0
87,57.309225214583336,57.482716466666666,77.0,87.0
88,57.567845714583335,58.01288849166667,77.0,87.0
89,58.08508671458333,58.21547455,75.0,81.0
90,58.21439696458334,58.34155204375,74.0,81.0
91,58.34370721458333,59.43314607083334,72.0,76.0
92,62.99887621458333,63.20253985833334,77.0,84.0
93,63.25749671458333,63.44499657708334,79.0,83.0
94,63.51611721458334,63.80706527708334,80.0,90.0
95,63.77473771458334,64.00318582291666,79.0,87.0
96,64.03335821458333,64.26288390833334,77.0,82.0
97,64.29197871458334,64.48055616250001,79.0,84.0
98,64.55059921458333,64.8426248625,80.0,85.0
99,64.80921971458334,65.04952126250001,79.0,85.0
100,65.06784021458334,65.37064171666667,77.0,82.0
101,65.32646071458333,65.55275365208334,75.0,86.0
102,65.58508121458334,65.77904658958333,77.0,76.0
103,65.84370171458333,66.29844276041666,75.0,83.0
104,66.36094271458333,68.17128621458333,79.0,71.0
105,68.17128621458333,69.72300921458334,77.0,82.0
106,71.27473221458334,71.47839585833334,77.0,84.0
107,71.53335271458333,71.72085257708333,79.0,83.0
108,71.79197321458334,72.08292127708333,80.0,90.0
109,72.05059371458334,72.27904182291667,79.0,87.0
110,72.30921421458333,72.53873990833334,77.0,82.0
111,72.56783471458334,72.7564121625,79.0,84.0
112,72.82645521458333,73.11848086250001,80.0,85.0
113,73.08507571458334,73.3253772625,79.0,85.0
114,73.34369621458333,73.64649771666667,77.0,82.0
115,73.60231671458334,73.82860965208333,75.0,86.0
116,73.86093721458333,74.05490258958334,77.0,76.0
117,74.11955771458334,74.57429876041667,75.0,83.0
118,74.63679871458334,76.18852171458333,79.0,71.0
119,76.18852171458333,76.44714221458334,80.0,82.0
120,76.44714221458334,76.70576271458333,79.0,82.0
121,76.70576271458333,78.51610621458333,77.0,82.0
122,78.51610621458333,78.73593363958334,72.0,83.0
123,78.77472671458334,79.05597650833333,74.0,88.0
124,79.03334721458333,79.53873477500001,75.0,88.0
125,79.55058821458334,80.07321714166667,72.0,83.0
126,80.06782921458334,80.33830315416667,74.0,87.0
127,80.32644971458333,80.84261312916666,71.0,85.0
128,80.84369071458333,81.80812966250001,72.0,82.0
129,81.87817271458334,82.41373266666668,67.0,84.0
130,82.65403421458333,82.85662027291667,72.0,87.0
131,82.91265471458334,83.1012321625,74.0,90.0
132,83.17127521458333,83.62817143125001,75.0,82.0
133,83.68851621458333,84.14217967500001,72.0,87.0
134,84.20575721458334,84.46761047083334,74.0,87.0
135,84.46437771458334,84.95683425,71.0,83.0
136,84.98161871458333,86.36308321875,72.0,80.0
137,86.79196221458334,87.01178963958334,72.0,83.0
138,87.05058271458334,87.33183250833333,74.0,88.0
139,87.30920321458333,87.814590775,75.0,88.0
140,87.82644421458333,88.34907314166666,72.0,83.0
141,88.34368521458333,88.61415915416667,74.0,87.0
142,88.60230571458334,89.11846912916667,71.0,85.0
143,89.11954671458334,90.0839856625,72.0,82.0
144,90.15402871458333,90.68958866666667,74.0,84.0
145,90.92989021458334,91.13247627291668,72.0,87.0
146,91.18851071458333,91.3770881625,74.0,90.0
147,91.44713121458334,91.90402743125,75.0,82.0
148,92.35230296458333,92.418035675,75.0,87.0
149,92.48161321458333,92.74346647083334,74.0,87.0
150,92.74023371458334,93.23269025,71.0,83.0
151,93.25747471458334,94.63893921875001,72.0,80.0
152,117.56780171458334,117.76607743125001,67.0,83.0
153,117.82642221458333,118.09797373958334,72.0,82.0
154,118.08504271458334,118.34258562916668,74.0,90.0
155,118.34366321458334,118.67232676666667,75.0,78.0
156,118.60228371458334,118.90077487500001,74.0,81.0
157,118.86090421458334,119.13784366666667,72.0,86.0
158,119.11952471458333,119.42340380208334,74.0,88.0
159,119.37814521458334,119.75637769583334,75.0,83.0
160,119.63676571458333,119.92340343541667,74.0,83.0
161,119.89538621458334,120.18848944791667,72.0,82.0
162,120.15400671458333,120.47943751041667,74.0,88.0
163,120.41262721458334,120.762842475,75.0,83.0
164,120.67124771458334,120.96004060625,74.0,81.0
165,120.92986821458334,121.21973869166668,72.0,83.0
166,121.18848871458334,121.47189367916667,70.0,86.0
167,121.44710921458334,121.73805727708334,72.0,81.0
168,121.70572971458334,122.48805672708333,67.0,80.0
169,122.99883221458335,123.19495276041667,75.0,83.0
170,123.25745271458334,123.46542670000001,75.0,82.0
171,123.51607321458334,123.68956446666667,74.0,87.0
172,123.77469371458334,124.21973649166667,74.0,87.0
173,124.29193471458333,125.60443375208334,72.0,83.0
174,125.84365771458334,126.04193343125,67.0,83.0
175,126.10227821458334,126.37382973958334,72.0,82.0
176,126.36089871458334,126.61844162916667,74.0,90.0
177,126.61951921458333,126.94818276666668,75.0,78.0
178,126.87813971458334,127.176630875,74.0,81.0
179,127.13676021458333,127.41369966666667,72.0,86.0
180,127.39538071458334,127.69925980208333,74.0,88.0
181,127.65400121458333,128.03223369583333,75.0,83.0
182,127.91262171458334,128.19925943541668,74.0,83.0
183,128.17124221458334,128.46434544791668,72.0,82.0
184,128.42986271458335,128.75529351041666,74.0,88.0
185,128.68848321458333,129.03869847500002,75.0,83.0
186,128.94710371458333,129.23589660625,74.0,81.0
187,129.20572421458334,129.49559469166667,72.0,83.0
188,129.46434471458335,129.74774967916667,70.0,86.0
189,129.72296521458333,130.01391327708333,72.0,81.0
190,129.98158571458333,130.76391272708335,75.0,80.0
191,131.27468821458334,131.47080876041667,75.0,83.0
192,131.53330871458334,131.7412827,75.0,82.0
193,131.79192921458335,131.96542046666667,77.0,87.0
194,132.05054971458333,132.49559249166668,77.0,87.0
195,132.56779071458334,132.69817855,75.0,81.0
196,132.69710096458334,132.82425604375,74.0,81.0
197,132.82641121458335,133.91585007083333,72.0,76.0
198,137.48158021458335,137.68524385833334,77.0,84.0
199,137.74020071458335,137.92770057708333,79.0,83.0
200,137.99882121458333,138.28976927708334,80.0,90.0
201,138.25744171458334,138.48588982291668,79.0,87.0
202,138.51606221458334,138.74558790833333,77.0,82.0
203,138.77468271458335,138.9632601625,79.0,84.0
204,139.03330321458333,139.32532886250002,80.0,85.0
205,139.29192371458333,139.5322252625,79.0,85.0
206,139.55054421458334,139.85334571666667,77.0,82.0
207,139.80916471458335,140.03545765208335,75.0,86.0
208,140.06778521458335,140.26175058958333,77.0,76.0
209,140.32640571458333,140.78114676041668,75.0,83.0
210,140.84364671458334,142.65399021458333,79.0,71.0
211,142.65399021458333,144.20571321458334,77.0,82.0
212,145.75743621458335,145.96109985833334,77.0,84.0
213,146.01605671458333,146.20355657708333,79.0,83.0
214,146.27467721458333,146.56562527708334,80.0,90.0
215,146.53329771458334,146.76174582291668,79.0,87.0
216,146.79191821458335,147.02144390833334,77.0,82.0
217,147.05053871458333,147.2391161625,79.0,84.0
218,147.30915921458333,147.60118486250002,80.0,85.0
219,147.56777971458334,147.8080812625,79.0,85.0
220,147.82640021458334,148.12920171666667,77.0,82.0
221,148.08502071458335,148.31131365208333,75.0,86.0
222,148.34364121458333,148.53760658958333,77.0,76.0
223,148.60226171458334,149.05700276041668,75.0,83.0
224,149.11950271458335,150.67122571458333,79.0,71.0
225,150.67122571458333,150.92984621458334,80.0,82.0
226,150.92984621458334,151.18846671458334,79.0,82.0
227,151.18846671458334,152.99881021458333,77.0,82.0
228,152.99881021458333,153.21863763958333,72.0,83.0
229,153.25743071458334,153.53868050833333,74.0,88.0
230,153.51605121458334,154.021438775,75.0,88.0
231,154.03329221458333,154.55592114166666,72.0,83.0
232,154.55053321458334,154.82100715416667,74.0,87.0
233,154.80915371458335,155.32531712916668,71.0,85.0
234,155.32639471458333,156.2908336625,72.0,82.0
235,156.36087671458333,156.89643666666666,67.0,84.0
236,157.13673821458335,157.33932427291668,72.0,87.0
237,157.39535871458335,157.5839361625,74.0,90.0
238,157.65397921458333,158.11087543125,75.0,82.0
239,158.17122021458334,158.624883675,72.0,87.0
240,158.68846121458333,158.95031447083335,74.0,87.0
241,158.94708171458333,159.43953825,71.0,83.0
242,159.46432271458335,160.84578721875002,72.0,80.0
243,161.27466621458333,161.49449363958334,72.0,83.0
244,161.53328671458334,161.81453650833333,74.0,88.0
245,161.79190721458335,162.297294775,75.0,88.0
246,162.30914821458333,162.83177714166666,72.0,83.0
247,162.82638921458334,163.09686315416667,74.0,87.0
248,163.08500971458335,163.60117312916668,71.0,85.0
249,163.60225071458333,164.5666896625,72.0,82.0
250,164.63673271458333,165.17229266666666,74.0,84.0
251,165.41259421458335,165.61518027291666,72.0,87.0
252,165.67121471458333,165.8597921625,74.0,90.0
253,165.92983521458333,166.38673143125,75.0,82.0
254,166.83500696458333,166.900739675,75.0,87.0
255,166.96431721458333,167.22617047083335,74.0,87.0
256,167.22293771458334,167.71539425,71.0,83.0
257,167.74017871458335,169.12164321875,72.0,80.0
258,169.55052221458334,169.77034963958334,72.0,83.0
259,169.80914271458334,170.09039250833334,74.0,88.0
260,170.06776321458335,170.57315077500002,75.0,88.0
261,170.58500421458334,171.10763314166667,72.0,83.0
262,171.10224521458335,171.37271915416667,74.0,87.0
263,171.36086571458333,171.8770291291667,71.0,85.0
264,171.87810671458334,172.84254566250002,72.0,82.0
265,172.91258871458334,173.44814866666667,67.0,84.0
266,173.68845021458333,173.89103627291666,72.0,87.0
267,173.94707071458333,174.13564816250002,74.0,90.0
268,174.20569121458334,174.66258743125002,75.0,82.0
269,174.72293221458335,175.17659567500002,72.0,87.0
270,175.24017321458334,175.50202647083333,74.0,87.0
271,175.49879371458334,175.99125025,71.0,83.0
272,176.01603471458333,177.39749921875,72.0,80.0
273,177.82637821458334,178.04620563958335,72.0,83.0
274,178.08499871458335,178.36624850833334,74.0,88.0
275,178.34361921458333,178.84900677500002,75.0,88.0
276,178.86086021458334,179.38348914166667,72.0,83.0
277,179.37810121458335,179.64857515416668,74.0,87.0
278,179.63672171458333,180.15288512916666,71.0,85.0
279,180.15396271458334,181.11840166250002,72.0,82.0
280,181.18844471458334,181.72400466666667,74.0,84.0
281,181.96430621458333,182.16689227291667,72.0,87.0
282,182.22292671458334,182.4115041625,74.0,90.0
283,182.48154721458334,182.93844343125,75.0,82.0
284,183.38671896458334,183.45245167500002,75.0,87.0
285,183.51602921458334,183.77788247083333,74.0,87.0
286,183.77464971458335,184.26710625,71.0,83.0
287,184.29189071458333,185.67335521875,72.0,80.0
288,202.65394621458333,202.87377363958333,72.0,83.0
289,202.91256671458333,203.19381650833333,74.0,88.0
290,203.17118721458334,203.676574775,75.0,88.0
291,203.68842821458335,204.21105714166669,72.0,83.0
292,204.20566921458334,204.47614315416666,74.0,87.0
293,204.46428971458334,204.98045312916668,71.0,85.0
294,204.98153071458333,205.9459696625,72.0,82.0
295,206.01601271458335,206.5515726666667,67.0,84.0
296,206.79187421458334,206.99446027291668,72.0,87.0
297,207.05049471458335,207.2390721625,74.0,90.0
298,207.30911521458333,207.76601143125,75.0,82.0
299,207.82635621458334,208.280019675,72.0,87.0
300,208.34359721458335,208.60545047083335,74.0,87.0
301,208.60221771458333,209.09467425,71.0,83.0
302,209.11945871458335,210.50092321875002,72.0,80.0
303,210.92980221458333,211.14962963958334,72.0,83.0
304,211.18842271458334,211.46967250833333,74.0,88.0
305,211.44704321458335,211.952430775,75.0,88.0
306,211.96428421458333,212.48691314166666,72.0,83.0
307,212.48152521458334,212.75199915416667,74.0,87.0
308,212.74014571458335,213.25630912916668,71.0,85.0
309,213.25738671458333,214.2218256625,72.0,82.0
310,214.29186871458333,214.82742866666666,74.0,84.0
311,215.06773021458335,215.2703162729167,72.0,87.0
312,215.32635071458336,215.5149281625,74.0,90.0
313,215.58497121458333,216.04186743125,75.0,82.0
314,216.49014296458336,216.555875675,75.0,87.0
315,216.61945321458333,216.88130647083335,74.0,87.0
316,216.87807371458334,217.37053025,71.0,83.0
317,217.39531471458335,218.77677921875002,72.0,80.0
318,219.20565821458334,219.42548563958334,72.0,83.0
319,219.46427871458334,219.74552850833334,74.0,88.0
320,219.72289921458335,220.22828677500002,75.0,88.0
321,220.24014021458333,220.76276914166667,72.0,83.0
322,220.75738121458335,221.02785515416667,74.0,87.0
323,221.01600171458335,221.53216512916669,71.0,85.0
324,221.53324271458334,222.4976816625,72.0,82.0
325,222.56772471458333,223.10328466666667,67.0,84.0
326,223.34358621458335,223.54617227291666,72.0,87.0
327,223.60220671458333,223.79078416250002,74.0,90.0
328,223.86082721458334,224.31772343125002,75.0,82.0
329,224.37806821458335,224.83173167500001,72.0,87.0
330,224.89530921458334,225.15716247083336,74.0,87.0
331,225.15392971458334,225.64638625,71.0,83.0
332,225.67117071458335,227.05263521875,72.0,80.0
333,227.48151421458334,227.70134163958335,72.0,83.0
334,227.74013471458335,228.02138450833334,74.0,88.0
335,227.99875521458335,228.50414277500002,75.0,88.0
336,228.51599621458334,229.03862514166667,72.0,83.0
337,229.03323721458335,229.30371115416668,74.0,87.0
338,229.29185771458333,229.80802112916666,71.0,85.0
339,229.80909871458334,230.77353766250002,72.0,82.0
340,230.84358071458334,231.37914066666667,74.0,84.0
341,231.61944221458333,231.82202827291667,72.0,87.0
342,231.87806271458334,232.06664016250002,74.0,90.0
343,232.13668321458334,232.59357943125002,75.0,82.0
344,233.04185496458334,233.10758767500002,75.0,87.0
345,233.17116521458334,233.43301847083333,74.0,87.0
346,233.42978571458335,233.92224225,71.0,83.0
347,233.94702671458333,235.32849121875,72.0,80.0
