,start,end,pitch,velocity
0,4.550643214583333,4.843746447916667,60.0,75.0
1,4.550643214583333,4.860987814583334,63.0,79.0
2,4.550643214583333,5.15624621875,48.0,84.0
3,5.067884214583334,5.26615993125,67.0,77.0
4,5.067884214583334,5.297409908333334,60.0,76.0
5,5.067884214583334,5.3308150562500005,63.0,82.0
6,5.585125214583334,6.08081450625,48.0,81.0
7,5.843745714583333,6.13900411875,60.0,79.0
8,5.843745714583333,6.146547216666667,63.0,85.0
9,6.360986714583333,6.80171915,63.0,81.0
10,6.619607214583334,7.256460195833333,44.0,84.0
11,7.136848214583334,7.359908395833334,56.0,74.0
12,7.136848214583334,7.387925616666667,60.0,74.0
13,7.136848214583334,7.3900807875000005,63.0,75.0
14,7.395468714583334,7.526934135416667,51.0,39.0
15,7.654089214583333,8.0754251125,44.0,81.0
16,7.912709714583333,8.22089914375,56.0,74.0
17,7.912709714583333,8.221976729166666,60.0,79.0
18,7.912709714583333,8.221976729166666,63.0,74.0
19,8.429950714583333,8.653010895833333,60.0,81.0
20,8.429950714583333,8.6573212375,56.0,70.0
21,8.429950714583333,8.677795360416667,63.0,73.0
22,8.688571214583334,9.32650178125,43.0,81.0
23,9.464432714583333,9.61744984375,50.0,73.0
24,9.205812214583334,9.778010070833334,55.0,79.0
25,9.205812214583334,9.840510025,59.0,82.0
26,9.205812214583334,9.841587610416667,62.0,81.0
27,9.723053214583334,10.16701840625,43.0,82.0
28,9.981673714583334,10.311414852083333,55.0,79.0
29,9.981673714583334,10.323268291666666,62.0,81.0
30,9.981673714583334,10.345897585416667,59.0,80.0
31,10.498914714583334,10.701500772916667,43.0,81.0
32,11.274776214583333,11.389000268750001,55.0,81.0
33,10.757535214583333,11.753224139583335,48.0,83.0
34,11.533396714583334,11.869603364583334,55.0,77.0
35,11.274776214583333,11.901930927083335,60.0,85.0
36,11.274776214583333,11.914861952083333,63.0,85.0
37,12.050637714583333,12.2068876,55.0,81.0
38,12.050637714583333,12.2068876,60.0,82.0
39,12.050637714583333,12.219818625,63.0,81.0
40,11.792017214583334,12.702576891666666,43.0,81.0
41,12.567878714583333,12.929947414583333,63.0,87.0
42,12.567878714583333,12.949343952083334,60.0,88.0
43,12.567878714583333,12.965507733333334,55.0,86.0
44,13.343740214583335,13.42240395,55.0,80.0
45,12.826499214583334,13.866369141666667,48.0,90.0
46,13.602360714583334,13.956886316666667,55.0,79.0
47,13.343740214583335,13.982748366666668,60.0,82.0
48,13.343740214583335,13.991369050000001,63.0,83.0
49,13.860981214583333,14.313567089583334,43.0,81.0
50,14.119601714583334,14.407317020833334,55.0,82.0
51,14.119601714583334,14.45688595,60.0,82.0
52,14.119601714583334,14.480592829166667,63.0,81.0
53,14.636842714583334,14.8254201625,48.0,92.0
54,15.412704214583334,15.524773097916666,56.0,83.0
55,14.895463214583334,15.581885125000001,44.0,85.0
56,15.412704214583334,15.95688485,63.0,79.0
57,15.412704214583334,15.97304863125,60.0,79.0
58,15.671324714583333,16.001065852083332,56.0,73.0
59,15.929945214583334,16.340505258333334,44.0,95.0
60,16.188565714583333,16.362056966666668,63.0,80.0
61,16.188565714583333,16.366367308333334,56.0,77.0
62,16.188565714583333,16.376065577083335,60.0,83.0
63,16.705806714583336,16.848047989583335,60.0,72.0
64,16.705806714583336,16.876065210416666,56.0,73.0
65,16.705806714583336,16.885763479166666,44.0,77.0
66,16.705806714583336,16.928866895833334,63.0,74.0
67,17.481668214583333,17.596969854166666,55.0,76.0
68,16.964427214583335,17.630375002083333,43.0,82.0
69,17.481668214583333,17.678866345833335,59.0,81.0
70,17.481668214583333,17.69287495625,62.0,81.0
71,17.740288714583333,17.895461014583333,50.0,73.0
72,18.257529714583335,18.519382970833334,62.0,78.0
73,18.257529714583335,18.52692606875,67.0,77.0
74,18.257529714583335,18.55278811875,55.0,74.0
75,18.257529714583335,18.558176045833335,59.0,81.0
76,18.516150214583334,18.7564517625,50.0,74.0
77,17.998909214583335,18.812486204166667,43.0,81.0
78,18.774770714583333,19.048477410416666,59.0,75.0
79,18.774770714583333,19.067873947916667,62.0,71.0
80,18.774770714583333,19.0926584125,55.0,71.0
81,19.550632214583334,19.686407977083334,55.0,74.0
82,19.033391214583332,20.030157725000002,48.0,81.0
83,19.809252714583334,20.137916266666668,55.0,67.0
84,19.550632214583334,20.15731280416667,60.0,77.0
85,19.550632214583334,20.17670934166667,63.0,74.0
86,20.326493714583336,20.446105695833335,60.0,77.0
87,20.326493714583336,20.455803964583335,63.0,76.0
88,20.326493714583336,20.462269477083336,55.0,74.0
89,20.067873214583333,20.953648427083333,43.0,77.0
90,20.843734714583334,21.219812025,63.0,75.0
91,20.843734714583334,21.262915441666667,55.0,77.0
92,20.843734714583334,21.28446715,60.0,78.0
93,21.102355214583334,22.123906189583334,48.0,74.0
94,21.878216714583335,22.21873370625,55.0,75.0
95,21.619596214583336,22.228431975,63.0,79.0
96,21.619596214583336,22.233819902083333,60.0,82.0
97,22.395457714583333,22.517224866666666,55.0,75.0
98,22.395457714583333,22.526923135416666,60.0,78.0
99,22.395457714583333,22.528000720833333,63.0,76.0
100,22.136837214583334,22.790931562500003,43.0,81.0
101,22.912698714583335,23.109896845833333,43.0,84.0
102,23.171319214583335,23.51830171875,55.0,74.0
103,23.171319214583335,23.559249964583334,60.0,77.0
104,23.688560214583333,23.76830153541667,55.0,74.0
105,23.171319214583335,24.17131848125,48.0,82.0
106,23.688560214583333,24.312482170833334,63.0,78.0
107,23.688560214583333,24.31355975625,60.0,81.0
108,23.947180714583336,24.325413195833335,55.0,75.0
109,24.464421714583334,24.632525039583335,55.0,77.0
110,24.464421714583334,24.646533650000002,60.0,78.0
111,24.464421714583334,24.655154333333336,63.0,76.0
112,24.205801214583335,24.792007681250002,43.0,82.0
113,24.981662714583333,25.217653920833335,43.0,81.0
114,25.240283214583336,25.560326083333333,55.0,72.0
115,25.240283214583336,25.5969639875,60.0,77.0
116,25.757524214583334,25.82110175416667,55.0,69.0
117,25.240283214583336,26.256446262500003,48.0,82.0
118,26.016144714583334,26.382523756250002,55.0,76.0
119,25.757524214583334,26.395454781250002,63.0,77.0
120,25.757524214583334,26.398687537500003,60.0,81.0
121,26.533385714583336,26.868514779166667,55.0,78.0
122,26.533385714583336,26.88036821875,63.0,79.0
123,26.533385714583336,26.884678560416667,60.0,81.0
124,26.274765214583333,27.157307670833333,43.0,81.0
125,27.050626714583334,27.448255733333333,63.0,81.0
126,27.050626714583334,27.474117783333334,55.0,79.0
127,27.050626714583334,27.492436735416668,60.0,82.0
128,27.309247214583333,28.331875775,48.0,82.0
129,28.085108714583335,28.396530900000002,55.0,70.0
130,27.826488214583335,28.40407399791667,63.0,72.0
131,27.826488214583335,28.419160193750002,60.0,76.0
132,28.602349714583333,28.770453039583334,63.0,76.0
133,28.602349714583333,28.78446165,60.0,79.0
134,29.119590714583335,29.2176509875,55.0,69.0
135,28.343729214583334,29.234892354166668,43.0,79.0
136,29.119590714583335,29.529073172916668,63.0,77.0
137,29.119590714583335,29.557090393750002,60.0,81.0
138,29.378211214583335,30.3685122125,48.0,80.0
139,29.895452214583333,30.473037997916666,63.0,81.0
140,29.895452214583333,30.49458970625,60.0,82.0
141,30.154072714583336,30.521529341666668,55.0,80.0
142,30.671313714583334,30.812477404166668,55.0,80.0
143,30.412693214583335,30.85127047916667,43.0,81.0
144,30.671313714583334,30.86096874791667,60.0,83.0
145,30.671313714583334,30.896529066666666,63.0,81.0
146,31.188554714583333,31.266140864583335,60.0,62.0
147,31.188554714583333,31.28445981666667,63.0,27.0
148,31.188554714583333,31.37389940625,55.0,86.0
149,31.447175214583336,32.10234714791667,44.0,82.0
150,31.964416214583334,32.10450231875,56.0,80.0
151,31.964416214583334,32.28769183958333,60.0,75.0
152,31.964416214583334,32.387907283333334,63.0,75.0
153,32.22303671458334,32.410536577083334,56.0,78.0
154,32.481657214583336,32.874975891666665,43.0,82.0
155,32.740277714583335,32.97734650625,62.0,75.0
156,32.740277714583335,32.998898214583335,55.0,72.0
157,32.740277714583335,32.9999758,59.0,70.0
158,32.998898214583335,33.30169971666667,50.0,70.0
159,33.257518714583334,33.68747529583334,55.0,81.0
160,34.03338021458333,34.15838012291667,55.0,82.0
161,33.51613921458333,34.55600914166667,48.0,82.0
162,34.03338021458333,34.646526316666666,60.0,82.0
163,34.29200071458334,34.649759072916666,55.0,78.0
164,34.03338021458333,34.65406941458333,63.0,81.0
165,34.80924171458334,34.940707135416666,60.0,80.0
166,34.80924171458334,34.947172647916666,55.0,76.0
167,34.80924171458334,34.9654916,63.0,78.0
168,34.55062121458334,35.0236812125,43.0,81.0
169,35.326482714583335,35.55493082291667,48.0,82.0
170,35.326482714583335,35.60234458125,55.0,80.0
171,35.326482714583335,35.61958594791667,60.0,82.0
172,35.585103214583334,36.607731775000005,48.0,82.0
173,36.36096471458333,36.6723869,55.0,70.0
174,36.10234421458333,36.679929997916666,63.0,72.0
175,36.10234421458333,36.69501619375,60.0,76.0
176,36.87820571458334,37.046309039583335,63.0,76.0
177,36.87820571458334,37.06031765,60.0,79.0
178,37.395446714583336,37.4935069875,55.0,69.0
179,36.61958521458333,37.510748354166665,43.0,79.0
180,37.395446714583336,37.804929172916665,63.0,77.0
181,37.395446714583336,37.83294639375,60.0,81.0
182,37.654067214583335,38.6443682125,48.0,80.0
183,38.171308214583334,38.74889399791667,63.0,81.0
184,38.171308214583334,38.77044570625,60.0,82.0
185,38.42992871458333,38.79738534166667,55.0,80.0
186,38.94716971458333,39.08833340416667,55.0,80.0
187,38.68854921458333,39.12712647916667,43.0,81.0
188,38.94716971458333,39.13682474791667,60.0,83.0
189,38.94716971458333,39.17238506666667,63.0,81.0
190,39.46441071458334,39.54199686458333,60.0,62.0
191,39.46441071458334,39.560315816666666,63.0,27.0
192,39.46441071458334,39.64975540625,55.0,86.0
193,39.72303121458334,40.378203147916665,44.0,82.0
194,40.240272214583335,40.38035831875,56.0,80.0
195,40.240272214583335,40.563547839583336,60.0,75.0
196,40.240272214583335,40.66376328333334,63.0,75.0
197,40.498892714583334,40.68639257708333,56.0,78.0
198,40.757513214583334,41.15083189166667,43.0,82.0
199,41.01613371458333,41.25320250625,62.0,75.0
200,41.01613371458333,41.27475421458333,55.0,72.0
201,41.01613371458333,41.2758318,59.0,70.0
202,41.27475421458333,41.577555716666666,50.0,70.0
203,41.53337471458333,41.963331295833335,55.0,81.0
204,42.309236214583336,42.434236122916666,55.0,82.0
205,41.79199521458334,42.83186514166667,48.0,82.0
206,42.309236214583336,42.92238231666667,60.0,82.0
207,42.567856714583336,42.92561507291667,55.0,78.0
208,42.309236214583336,42.92992541458334,63.0,81.0
209,43.085097714583334,43.21656313541667,60.0,80.0
210,43.085097714583334,43.22302864791667,55.0,76.0
211,43.085097714583334,43.241347600000005,63.0,78.0
212,42.826477214583335,43.2995372125,43.0,81.0
213,43.60233871458333,43.83078682291667,48.0,82.0
214,43.60233871458333,43.87820058125,55.0,80.0
215,43.60233871458333,43.895441947916666,60.0,82.0
216,43.86095921458333,44.883587775,48.0,82.0
217,44.63682071458334,44.948242900000004,55.0,70.0
218,44.37820021458334,44.95578599791667,63.0,72.0
219,44.37820021458334,44.970872193750004,60.0,76.0
220,45.154061714583335,45.32216503958333,63.0,76.0
221,45.154061714583335,45.33617365,60.0,79.0
222,45.671302714583334,45.7693629875,55.0,69.0
223,44.895441214583336,45.78660435416667,43.0,79.0
224,45.671302714583334,46.08078517291667,63.0,77.0
225,45.671302714583334,46.108802393750004,60.0,81.0
226,45.92992321458333,46.9202242125,48.0,80.0
227,46.44716421458334,47.02474999791667,63.0,81.0
228,46.44716421458334,47.04630170625,60.0,82.0
229,46.70578471458334,47.073241341666666,55.0,80.0
230,47.223025714583336,47.364189404166666,55.0,80.0
231,46.96440521458334,47.40298247916667,43.0,81.0
232,47.223025714583336,47.41268074791667,60.0,83.0
233,47.223025714583336,47.44824106666667,63.0,81.0
234,47.740266714583335,47.81785286458334,60.0,62.0
235,47.740266714583335,47.83617181666667,63.0,27.0
236,47.740266714583335,47.92561140625,55.0,86.0
237,47.998887214583334,48.65405914791667,44.0,82.0
238,48.51612821458333,48.65621431875,56.0,80.0
239,48.51612821458333,48.83940383958333,60.0,75.0
240,48.51612821458333,48.939619283333336,63.0,75.0
241,48.77474871458333,48.962248577083336,56.0,78.0
242,49.03336921458334,49.42668789166667,43.0,82.0
243,49.29198971458334,49.52905850625,62.0,75.0
244,49.29198971458334,49.55061021458334,55.0,72.0
245,49.29198971458334,49.5516878,59.0,70.0
246,49.55061021458334,49.85341171666667,50.0,70.0
247,49.809230714583336,50.23918729583333,55.0,81.0
248,50.585092214583334,50.71009212291667,55.0,82.0
249,50.067851214583335,51.107721141666666,48.0,82.0
250,50.585092214583334,51.19823831666667,60.0,82.0
251,50.84371271458333,51.20147107291667,55.0,78.0
252,50.585092214583334,51.205781414583335,63.0,81.0
253,51.36095371458334,51.49241913541667,60.0,80.0
254,51.36095371458334,51.49888464791667,55.0,76.0
255,51.36095371458334,51.5172036,63.0,78.0
256,51.10233321458333,51.5753932125,43.0,81.0
257,51.87819471458334,52.10664282291667,48.0,82.0
258,51.87819471458334,52.15405658125,55.0,80.0
259,52.136815214583336,52.15405658125,55.0,77.0
260,51.87819471458334,52.17129794791667,60.0,82.0
261,52.136815214583336,52.17129794791667,60.0,79.0
262,52.136815214583336,53.03121111041667,48.0,83.0
263,52.654056214583335,53.30276263541667,63.0,83.0
264,52.654056214583335,53.30491780625,60.0,85.0
265,52.912676714583334,53.31677124583334,55.0,76.0
266,53.42991771458333,53.494572839583334,55.0,72.0
267,53.17129721458333,53.63896928541667,48.0,80.0
268,53.42991771458333,53.641124456250004,60.0,80.0
269,53.42991771458333,53.644357212500005,63.0,82.0
270,53.94715871458334,54.19608094583334,60.0,82.0
271,53.94715871458334,54.26289124166667,63.0,82.0
272,54.20577921458334,54.88142527083333,44.0,85.0
273,54.723020214583336,54.93422695625,56.0,71.0
274,54.981640714583335,55.148666454166666,51.0,75.0
275,54.723020214583336,55.16698540625,63.0,74.0
276,54.723020214583336,55.1896147,60.0,75.0
277,55.240261214583334,55.63789023333334,44.0,77.0
278,55.498881714583334,55.83616595,56.0,82.0
279,55.498881714583334,55.851252145833335,60.0,81.0
280,55.498881714583334,55.87172626875,63.0,81.0
281,56.01612271458333,56.1788381125,44.0,86.0
282,56.79198421458334,56.89327724375,53.0,80.0
283,56.53336371458334,56.90620826875,48.0,71.0
284,56.27474321458334,57.04629437291667,41.0,84.0
285,56.79198421458334,57.28120799375,56.0,92.0
286,57.050604714583336,57.286595920833335,53.0,78.0
287,56.79198421458334,57.39974238958334,60.0,83.0
288,57.567845714583335,57.78659555416667,62.0,80.0
289,57.567845714583335,57.840474825,59.0,78.0
290,57.567845714583335,57.84370758125,55.0,75.0
291,57.826466214583334,58.16051769375,50.0,65.0
292,57.309225214583336,58.172371133333336,43.0,82.0
293,58.08508671458333,58.318922750000006,59.0,82.0
294,58.08508671458333,58.35340548333333,62.0,82.0
295,58.08508671458333,58.36094858125,55.0,81.0
296,58.34370721458333,58.36094858125,55.0,65.0
297,58.34370721458333,58.70362074375,60.0,82.0
298,58.86094821458334,58.967629170833334,55.0,82.0
299,58.34370721458333,59.13896525208334,48.0,81.0
300,58.86094821458334,59.51396497708333,60.0,83.0
301,58.86094821458334,59.52043048958333,63.0,84.0
302,59.11956871458334,59.53012875833333,55.0,79.0
303,59.636809714583336,59.901895727083335,55.0,84.0
304,59.636809714583336,59.967628437500004,60.0,83.0
305,59.37818921458334,59.96870602291667,43.0,82.0
306,59.636809714583336,60.13680934791667,63.0,82.0
307,59.895430214583335,60.252110987500004,48.0,77.0
308,60.154050714583335,60.27905062291667,55.0,82.0
309,60.412671214583334,60.52689526875,48.0,95.0
310,60.412671214583334,60.562455587500004,60.0,88.0
311,60.412671214583334,60.58724005208334,55.0,84.0
312,60.92991221458333,61.357713625,36.0,83.0
313,60.92991221458333,61.359868795833336,48.0,82.0
314,61.44715321458334,61.9654718,38.0,90.0
315,61.44715321458334,61.99348902083334,50.0,90.0
316,61.964394214583336,62.26719571666667,51.0,88.0
317,61.964394214583336,62.31029913333334,39.0,84.0
318,62.481635214583335,62.80922118125,68.0,84.0
319,62.481635214583335,62.831850475,60.0,82.0
320,62.481635214583335,63.1098675125,41.0,81.0
321,62.99887621458333,63.34047079166667,60.0,83.0
322,63.25749671458333,63.42560003958334,48.0,76.0
323,62.99887621458333,63.51180687291667,65.0,83.0
324,62.99887621458333,63.59801370625,68.0,86.0
325,63.77473771458334,63.8857290125,65.0,82.0
326,63.51611721458334,63.89327211041667,41.0,82.0
327,63.77473771458334,63.89327211041667,60.0,82.0
328,63.77473771458334,63.90943589166667,68.0,83.0
329,64.29197871458334,64.82107315416667,65.0,82.0
330,64.29197871458334,64.82215073958334,68.0,85.0
331,64.29197871458334,64.82430591041667,60.0,82.0
332,65.06784021458334,65.17667634166666,60.0,81.0
333,64.55059921458333,65.24887456458333,41.0,82.0
334,65.32646071458333,65.73163283125,60.0,83.0
335,65.06784021458334,65.74025351458333,65.0,81.0
336,65.06784021458334,65.75641729583333,68.0,83.0
337,65.84370171458333,66.11094289791667,65.0,83.0
338,65.84370171458333,66.12171875208334,60.0,84.0
339,65.84370171458333,66.13896011875,68.0,85.0
340,65.58508121458334,66.17990836458334,41.0,81.0
341,66.36094271458333,66.49240813541667,41.0,81.0
342,66.61956321458334,66.99671811041667,63.0,68.0
343,66.61956321458334,67.00641637916667,55.0,75.0
344,66.61956321458334,67.02042498958333,58.0,74.0
345,66.61956321458334,67.30814029583334,39.0,86.0
346,67.13680421458334,67.75102790208334,63.0,86.0
347,67.13680421458334,67.758571,58.0,85.0
348,67.65404521458333,68.04413113541666,39.0,82.0
349,67.91266571458334,68.19068275208333,55.0,81.0
350,67.91266571458334,68.2693464875,58.0,84.0
351,68.17128621458333,68.28658785416667,46.0,65.0
352,67.91266571458334,68.3792602,63.0,84.0
353,68.42990671458334,68.58615660000001,55.0,85.0
354,68.68852721458333,69.08292347708334,58.0,76.0
355,68.68852721458333,69.32645778125,46.0,79.0
356,69.20576821458333,69.33615605,53.0,86.0
357,69.20576821458333,69.68313855416667,62.0,86.0
358,69.20576821458333,69.72408680000001,58.0,88.0
359,69.46438871458334,69.788741925,53.0,78.0
360,69.72300921458334,70.099086525,46.0,83.0
361,69.98162971458333,70.20468989583334,53.0,86.0
362,69.98162971458333,70.31675877916668,58.0,95.0
363,70.24025021458334,70.36201736666666,46.0,73.0
364,69.98162971458333,70.36201736666666,62.0,84.0
365,70.49887071458333,70.60447408541667,53.0,70.0
366,70.75749121458334,70.81029290000001,59.0,70.0
367,70.75749121458334,71.02042205625,53.0,74.0
368,70.75749121458334,71.04736169166667,60.0,72.0
369,71.27473221458334,71.31783563125,62.0,77.0
370,71.27473221458334,71.44606829583334,60.0,79.0
371,70.75749121458334,71.51072342083333,41.0,83.0
372,71.27473221458334,71.805981825,65.0,83.0
373,71.53335271458333,71.82753353333334,60.0,76.0
374,71.79197321458334,72.2262401375,41.0,81.0
375,72.05059371458334,72.2650332125,60.0,87.0
376,72.05059371458334,72.3102918,65.0,85.0
377,72.05059371458334,72.33723143541667,68.0,85.0
378,72.56783471458334,72.71438633125,60.0,86.0
379,72.82645521458333,73.15835152291667,60.0,79.0
380,72.82645521458333,73.16589462083334,65.0,79.0
381,72.82645521458333,73.57753225,41.0,82.0
382,73.60231671458334,73.67128218125,48.0,53.0
383,73.34369621458333,73.9719285125,60.0,85.0
384,73.34369621458333,73.98916987916667,65.0,88.0
385,73.34369621458333,73.99886814791667,68.0,86.0
386,74.11955771458334,74.22947142708334,65.0,88.0
387,74.11955771458334,74.23162659791667,68.0,88.0
388,74.11955771458334,74.26610933125001,60.0,87.0
389,73.86093721458333,74.44714368125,41.0,79.0
390,74.37817821458334,74.50533329375,48.0,76.0
391,74.63679871458334,74.74024691458334,41.0,82.0
392,74.89541921458334,75.219772425,63.0,77.0
393,74.89541921458334,75.22731552291667,58.0,70.0
394,74.89541921458334,75.23593620625,55.0,79.0
395,74.89541921458334,75.52688426875001,39.0,87.0
396,75.67128071458333,75.82429784375,46.0,62.0
397,75.41266021458334,76.02903907291667,55.0,82.0
398,75.41266021458334,76.05274595208334,58.0,85.0
399,75.41266021458334,76.05382353750001,63.0,88.0
400,75.92990121458334,76.29520267083333,39.0,75.0
401,76.18852171458333,76.41373706666667,55.0,82.0
402,76.44714221458334,76.61416795416667,46.0,73.0
403,76.18852171458333,76.73270235,63.0,86.0
404,76.18852171458333,76.75533164375,58.0,86.0
405,76.70576271458333,76.87171086875,55.0,78.0
406,76.96438321458334,77.32968467083333,53.0,80.0
407,76.96438321458334,77.33830535416666,62.0,72.0
408,76.96438321458334,77.37063291666666,58.0,77.0
409,77.48162421458333,77.57106380416667,53.0,80.0
410,76.96438321458334,77.74671022708334,46.0,84.0
411,77.48162421458333,77.79735674166668,58.0,82.0
412,77.48162421458333,77.79735674166668,62.0,81.0
413,77.74024471458334,77.86739979375,53.0,79.0
414,77.99886521458333,78.40295974583334,55.0,83.0
415,77.99886521458333,78.4589941875,47.0,88.0
416,77.99886521458333,78.56459755833333,59.0,85.0
417,78.51610621458333,78.95791623541668,55.0,85.0
418,78.51610621458333,78.97515760208334,43.0,85.0
419,79.03334721458333,79.38032971875,60.0,83.0
420,79.03334721458333,79.38248488958334,55.0,82.0
421,79.55058821458334,79.64326056041666,55.0,83.0
422,79.55058821458334,79.87386383958334,60.0,86.0
423,79.03334721458333,79.93205345208334,48.0,90.0
424,79.55058821458334,79.98162238125,63.0,85.0
425,79.80920871458333,80.10231194791668,55.0,81.0
426,80.32644971458333,80.55813057916667,59.0,83.0
427,80.32644971458333,80.55920816458334,62.0,81.0
428,80.32644971458333,80.57213918958334,55.0,82.0
429,80.58507021458334,80.92450962083333,50.0,65.0
430,80.06782921458334,80.95575959791667,43.0,82.0
431,80.84369071458333,80.96006993958333,59.0,82.0
432,80.84369071458333,80.97300096458333,55.0,81.0
433,80.84369071458333,80.98593198958334,62.0,82.0
434,81.10231121458334,81.45791440208333,55.0,81.0
435,81.10231121458334,81.46437991458333,60.0,82.0
436,81.61955221458334,81.69929353541667,55.0,81.0
437,81.10231121458334,82.09800013958333,48.0,82.0
438,81.61955221458334,82.13571562916667,60.0,86.0
439,81.61955221458334,82.14110355625,63.0,87.0
440,81.87817271458334,82.26718105,55.0,82.0
441,82.39541371458334,82.52256879375,59.0,82.0
442,82.39541371458334,82.54088774583333,55.0,82.0
443,82.39541371458334,82.54950842916666,62.0,82.0
444,82.13679321458334,82.56782738125,43.0,82.0
445,82.91265471458334,83.01394774375001,59.0,82.0
446,82.91265471458334,83.03226669583334,55.0,80.0
447,82.91265471458334,83.04088737916668,62.0,82.0
448,83.17127521458333,83.52041288958334,60.0,82.0
449,83.17127521458333,83.52149047500001,55.0,82.0
450,83.68851621458333,83.76610236458333,55.0,80.0
451,83.68851621458333,84.00101598541667,60.0,87.0
452,83.68851621458333,84.02580045,63.0,84.0
453,83.94713671458334,84.06243835416667,55.0,80.0
454,83.17127521458333,84.09368833125001,48.0,82.0
455,84.20575721458334,84.33291229375,55.0,75.0
456,84.20575721458334,84.33614505,59.0,79.0
457,84.20575721458334,84.62278277083334,43.0,82.0
458,84.46437771458334,84.76394646041668,62.0,85.0
459,84.46437771458334,84.77795507083334,55.0,82.0
460,84.46437771458334,84.78011024166668,59.0,83.0
461,84.72299821458334,85.04842901041667,50.0,73.0
462,84.98161871458333,85.06890313333334,59.0,71.0
463,84.98161871458333,85.08722208541667,62.0,81.0
464,84.98161871458333,85.09368759791667,55.0,81.0
465,85.24023921458334,85.5839889625,60.0,80.0
466,85.24023921458334,85.58614413333333,55.0,80.0
467,85.75748021458334,85.84045429166667,55.0,81.0
468,85.24023921458334,86.16049716041667,48.0,82.0
469,85.75748021458334,86.36739356041667,60.0,85.0
470,85.75748021458334,86.36739356041667,63.0,84.0
471,86.01610071458333,86.38894526875,55.0,79.0
472,86.53334171458334,86.64864335416667,55.0,83.0
473,86.53334171458334,86.65187611041667,60.0,85.0
474,86.53334171458334,86.66803989166667,63.0,88.0
475,86.27472121458334,86.70144503958333,43.0,82.0
476,87.05058271458334,87.21545328333333,60.0,78.0
477,87.05058271458334,87.22838430833333,55.0,77.0
478,87.05058271458334,87.24131533333333,63.0,77.0
479,87.05058271458334,87.27903082291667,43.0,83.0
480,87.30920321458333,87.65618571875001,60.0,83.0
481,87.30920321458333,87.65834088958334,55.0,82.0
482,87.82644421458333,87.91911656041667,55.0,83.0
483,87.82644421458333,88.14971983958334,60.0,86.0
484,87.30920321458333,88.20790945208334,48.0,90.0
485,87.82644421458333,88.25747838125001,63.0,85.0
486,88.08506471458334,88.37816794791667,55.0,81.0
487,88.60230571458334,88.83398657916668,59.0,83.0
488,88.60230571458334,88.83506416458334,62.0,81.0
489,88.60230571458334,88.84799518958334,55.0,82.0
490,88.86092621458333,89.20036562083334,50.0,65.0
491,88.34368521458333,89.23161559791667,43.0,82.0
492,89.11954671458334,89.23592593958334,59.0,82.0
493,89.11954671458334,89.24885696458334,55.0,81.0
494,89.11954671458334,89.26178798958334,62.0,82.0
495,89.37816721458334,89.73377040208334,55.0,81.0
496,89.37816721458334,89.74023591458334,60.0,82.0
497,89.89540821458334,89.97514953541668,55.0,81.0
498,89.37816721458334,90.37385613958334,48.0,82.0
499,89.89540821458334,90.41157162916667,60.0,86.0
500,89.89540821458334,90.41695955625,63.0,87.0
501,90.15402871458333,90.54303705000001,55.0,82.0
502,90.67126971458333,90.79842479375,59.0,82.0
503,90.67126971458333,90.81674374583334,55.0,82.0
504,90.67126971458333,90.82536442916667,62.0,82.0
505,90.41264921458334,90.84368338125,43.0,82.0
506,91.18851071458333,91.28980374375,59.0,82.0
507,91.18851071458333,91.30812269583333,55.0,80.0
508,91.18851071458333,91.31674337916667,62.0,82.0
509,91.44713121458334,91.79626888958333,60.0,82.0
510,91.44713121458334,91.797346475,55.0,82.0
511,91.96437221458334,92.04195836458334,55.0,80.0
512,91.96437221458334,92.27687198541668,60.0,87.0
513,91.96437221458334,92.30165645000001,63.0,84.0
514,92.22299271458334,92.33829435416666,55.0,80.0
515,91.44713121458334,92.36954433125,48.0,82.0
516,92.48161321458333,92.60876829375,55.0,75.0
517,92.48161321458333,92.61200105,59.0,79.0
518,92.48161321458333,92.89863877083334,43.0,82.0
519,92.74023371458334,93.03980246041667,62.0,85.0
520,92.74023371458334,93.05381107083333,55.0,82.0
521,92.74023371458334,93.05596624166667,59.0,83.0
522,92.99885421458333,93.32428501041667,50.0,73.0
523,93.25747471458334,93.34475913333334,59.0,71.0
524,93.25747471458334,93.36307808541667,62.0,81.0
525,93.25747471458334,93.36954359791667,55.0,81.0
526,93.51609521458333,93.8598449625,60.0,80.0
527,93.51609521458333,93.86200013333334,55.0,80.0
528,94.03333621458334,94.11631029166666,55.0,81.0
529,93.51609521458333,94.43635316041667,48.0,82.0
530,94.03333621458334,94.64324956041666,60.0,85.0
531,94.03333621458334,94.64324956041666,63.0,84.0
532,94.29195671458334,94.66480126875,55.0,79.0
533,94.80919771458333,94.92449935416667,55.0,83.0
534,94.80919771458333,94.92773211041667,60.0,85.0
535,94.80919771458333,94.94389589166667,63.0,88.0
536,94.55057721458334,94.97730103958334,43.0,82.0
537,95.32643871458333,95.49130928333334,60.0,78.0
538,95.32643871458333,95.50424030833334,55.0,77.0
539,95.32643871458333,95.51717133333334,63.0,77.0
540,95.32643871458333,95.55488682291667,43.0,83.0
541,95.58505921458334,95.87816244791667,60.0,75.0
542,95.58505921458334,95.89540381458333,63.0,79.0
543,95.58505921458334,96.19066221875,48.0,84.0
544,96.10230021458334,96.30057593125001,67.0,77.0
545,96.10230021458334,96.33182590833334,60.0,76.0
546,96.10230021458334,96.36523105625001,63.0,82.0
547,96.61954121458334,97.11523050625,48.0,81.0
548,96.87816171458334,97.17342011875,60.0,79.0
549,96.87816171458334,97.18096321666667,63.0,85.0
550,97.39540271458334,97.83613515,63.0,81.0
551,97.65402321458333,98.29087619583333,44.0,84.0
552,98.17126421458333,98.39432439583334,56.0,74.0
553,98.17126421458333,98.42234161666667,60.0,74.0
554,98.17126421458333,98.4244967875,63.0,75.0
555,98.42988471458334,98.56135013541667,51.0,39.0
556,98.68850521458334,99.1098411125,44.0,81.0
557,98.94712571458334,99.25531514375001,56.0,74.0
558,98.94712571458334,99.25639272916668,60.0,79.0
559,98.94712571458334,99.25639272916668,63.0,74.0
560,99.46436671458333,99.68742689583334,60.0,81.0
561,99.46436671458333,99.6917372375,56.0,70.0
562,99.46436671458333,99.71221136041667,63.0,73.0
563,99.72298721458334,100.36091778125001,43.0,81.0
564,100.49884871458333,100.65186584375,50.0,73.0
565,100.24022821458334,100.81242607083334,55.0,79.0
566,100.24022821458334,100.87492602500001,59.0,82.0
567,100.24022821458334,100.87600361041667,62.0,81.0
568,100.75746921458334,101.20143440625,43.0,82.0
569,101.01608971458333,101.34583085208334,55.0,79.0
570,101.01608971458333,101.35768429166667,62.0,81.0
571,101.01608971458333,101.38031358541667,59.0,80.0
572,101.53333071458334,101.73591677291667,43.0,81.0
573,102.30919221458333,102.42341626875,55.0,81.0
574,101.79195121458334,102.78764013958333,48.0,83.0
575,102.56781271458334,102.90401936458333,55.0,77.0
576,102.30919221458333,102.93634692708333,60.0,85.0
577,102.30919221458333,102.94927795208334,63.0,85.0
578,103.08505371458334,103.24130360000001,55.0,81.0
579,103.08505371458334,103.24130360000001,60.0,82.0
580,103.08505371458334,103.25423462500001,63.0,81.0
581,102.82643321458333,103.73699289166667,43.0,81.0
582,103.60229471458334,103.96436341458333,63.0,87.0
583,103.60229471458334,103.98375995208333,60.0,88.0
584,103.60229471458334,103.99992373333333,55.0,86.0
585,104.37815621458334,104.45681995000001,55.0,80.0
586,103.86091521458334,104.90078514166667,48.0,90.0
587,104.63677671458333,104.99130231666668,55.0,79.0
588,104.37815621458334,105.01716436666668,60.0,82.0
589,104.37815621458334,105.02578505000001,63.0,83.0
590,104.89539721458334,105.34798308958334,43.0,81.0
591,105.15401771458333,105.44173302083334,55.0,82.0
592,105.15401771458333,105.49130195000001,60.0,82.0
593,105.15401771458333,105.51500882916667,63.0,81.0
594,105.67125871458333,105.8598361625,48.0,92.0
595,106.44712021458334,106.55918909791667,56.0,83.0
596,105.92987921458334,106.616301125,44.0,85.0
597,106.44712021458334,106.99130085,63.0,79.0
598,106.44712021458334,107.00746463125,60.0,79.0
599,106.70574071458334,107.03548185208334,56.0,73.0
600,106.96436121458333,107.37492125833334,44.0,95.0
601,107.22298171458334,107.39647296666666,63.0,80.0
602,107.22298171458334,107.40078330833333,56.0,77.0
603,107.22298171458334,107.41048157708333,60.0,83.0
604,107.74022271458334,107.88246398958334,60.0,72.0
605,107.74022271458334,107.91048121041668,56.0,73.0
606,107.74022271458334,107.92017947916668,44.0,77.0
607,107.74022271458334,107.96328289583333,63.0,74.0
608,108.51608421458334,108.63138585416667,55.0,76.0
609,107.99884321458333,108.66479100208333,43.0,82.0
610,108.51608421458334,108.71328234583333,59.0,81.0
611,108.51608421458334,108.72729095625,62.0,81.0
612,108.77470471458334,108.92987701458334,50.0,73.0
613,109.29194571458333,109.55379897083334,62.0,78.0
614,109.29194571458333,109.56134206875001,67.0,77.0
615,109.29194571458333,109.58720411875001,55.0,74.0
616,109.29194571458333,109.59259204583334,59.0,81.0
617,109.55056621458334,109.7908677625,50.0,74.0
618,109.03332521458334,109.84690220416667,43.0,81.0
619,109.80918671458333,110.08289341041667,59.0,75.0
620,109.80918671458333,110.10228994791667,62.0,71.0
621,109.80918671458333,110.12707441250001,55.0,71.0
622,110.58504821458334,110.72082397708334,55.0,74.0
623,110.06780721458334,111.064573725,48.0,81.0
624,110.84366871458334,111.17233226666667,55.0,67.0
625,110.58504821458334,111.19172880416667,60.0,77.0
626,110.58504821458334,111.21112534166667,63.0,74.0
627,111.36090971458334,111.48052169583333,60.0,77.0
628,111.36090971458334,111.49021996458333,63.0,76.0
629,111.36090971458334,111.49668547708333,55.0,74.0
630,111.10228921458334,111.98806442708334,43.0,77.0
631,111.87815071458334,112.254228025,63.0,75.0
632,111.87815071458334,112.29733144166667,55.0,77.0
633,111.87815071458334,112.31888315,60.0,78.0
634,112.13677121458333,113.15832218958334,48.0,74.0
635,112.91263271458334,113.25314970625,55.0,75.0
636,112.65401221458333,113.262847975,63.0,79.0
637,112.65401221458333,113.26823590208333,60.0,82.0
638,113.42987371458334,113.55164086666667,55.0,75.0
639,113.42987371458334,113.56133913541667,60.0,78.0
640,113.42987371458334,113.56241672083334,63.0,76.0
641,113.17125321458333,113.8253475625,43.0,81.0
642,113.94711471458334,114.14431284583334,43.0,84.0
643,114.20573521458334,114.55271771875,55.0,74.0
644,114.20573521458334,114.59366596458334,60.0,77.0
645,114.72297621458334,114.80271753541668,55.0,74.0
646,114.20573521458334,115.20573448125,48.0,82.0
647,114.72297621458334,115.34689817083334,63.0,78.0
648,114.72297621458334,115.34797575625001,60.0,81.0
649,114.98159671458333,115.35982919583334,55.0,75.0
650,115.49883771458333,115.66694103958334,55.0,77.0
651,115.49883771458333,115.68094965,60.0,78.0
652,115.49883771458333,115.68957033333334,63.0,76.0
653,115.24021721458334,115.82642368125,43.0,82.0
654,116.01607871458334,116.25206992083334,43.0,81.0
655,116.27469921458334,116.59474208333334,55.0,72.0
656,116.27469921458334,116.63137998750001,60.0,77.0
657,116.79194021458333,116.85551775416667,55.0,69.0
658,116.27469921458334,117.2908622625,48.0,82.0
659,117.05056071458334,117.41693975625,55.0,76.0
660,116.79194021458333,117.42987078125,63.0,77.0
661,116.79194021458333,117.4331035375,60.0,81.0
662,117.56780171458334,117.90293077916667,55.0,78.0
663,117.56780171458334,117.91478421875,63.0,79.0
664,117.56780171458334,117.91909456041667,60.0,81.0
665,117.30918121458333,118.19172367083334,43.0,81.0
666,118.08504271458334,118.48267173333333,63.0,81.0
667,118.08504271458334,118.50853378333333,55.0,79.0
668,118.08504271458334,118.52685273541667,60.0,82.0
669,118.34366321458334,119.36629177500001,48.0,82.0
670,119.11952471458333,119.43094690000001,55.0,70.0
671,118.86090421458334,119.43848999791668,63.0,72.0
672,118.86090421458334,119.45357619375001,60.0,76.0
673,119.63676571458333,119.80486903958334,63.0,76.0
674,119.63676571458333,119.81887765,60.0,79.0
675,120.15400671458333,120.2520669875,55.0,69.0
676,119.37814521458334,120.26930835416667,43.0,79.0
677,120.15400671458333,120.56348917291668,63.0,77.0
678,120.15400671458333,120.59150639375001,60.0,81.0
679,120.41262721458334,121.4029282125,48.0,80.0
680,120.92986821458334,121.50745399791667,63.0,81.0
681,120.92986821458334,121.52900570625,60.0,82.0
682,121.18848871458334,121.55594534166667,55.0,80.0
683,121.70572971458334,121.84689340416668,55.0,80.0
684,121.44710921458334,121.88568647916667,43.0,81.0
685,121.70572971458334,121.89538474791667,60.0,83.0
686,121.70572971458334,121.93094506666667,63.0,81.0
687,122.22297071458334,122.30055686458334,60.0,62.0
688,122.22297071458334,122.31887581666668,63.0,27.0
689,122.22297071458334,122.40831540625001,55.0,86.0
690,122.48159121458333,123.13676314791667,44.0,82.0
691,122.99883221458335,123.13891831875,56.0,80.0
692,122.99883221458335,123.32210783958334,60.0,75.0
693,122.99883221458335,123.42232328333334,63.0,75.0
694,123.25745271458334,123.44495257708334,56.0,78.0
695,123.51607321458334,123.90939189166667,43.0,82.0
696,123.77469371458334,124.01176250625001,62.0,75.0
697,123.77469371458334,124.03331421458334,55.0,72.0
698,123.77469371458334,124.03439180000001,59.0,70.0
699,124.03331421458334,124.33611571666667,50.0,70.0
700,124.29193471458333,124.72189129583334,55.0,81.0
701,125.06779621458334,125.19279612291668,55.0,82.0
702,124.55055521458334,125.59042514166667,48.0,82.0
703,125.06779621458334,125.68094231666667,60.0,82.0
704,125.32641671458333,125.68417507291667,55.0,78.0
705,125.06779621458334,125.68848541458334,63.0,81.0
706,125.84365771458334,125.97512313541667,60.0,80.0
707,125.84365771458334,125.98158864791667,55.0,76.0
708,125.84365771458334,125.9999076,63.0,78.0
709,125.58503721458334,126.0580972125,43.0,81.0
710,126.36089871458334,126.58934682291667,48.0,82.0
711,126.36089871458334,126.63676058125,55.0,80.0
712,126.61951921458333,126.63676058125,55.0,77.0
713,126.36089871458334,126.65400194791667,60.0,82.0
714,126.61951921458333,126.65400194791667,60.0,79.0
715,126.61951921458333,127.51391511041668,48.0,83.0
716,127.13676021458333,127.78546663541667,63.0,83.0
717,127.13676021458333,127.78762180625,60.0,85.0
718,127.39538071458334,127.79947524583334,55.0,76.0
719,127.91262171458334,127.97727683958334,55.0,72.0
720,127.65400121458333,128.12167328541668,48.0,80.0
721,127.91262171458334,128.12382845625,60.0,80.0
722,127.91262171458334,128.1270612125,63.0,82.0
723,128.42986271458335,128.67878494583334,60.0,82.0
724,128.42986271458335,128.74559524166668,63.0,82.0
725,128.68848321458333,129.36412927083333,44.0,85.0
726,129.20572421458334,129.41693095625,56.0,71.0
727,129.46434471458335,129.63137045416667,51.0,75.0
728,129.20572421458334,129.64968940625002,63.0,74.0
729,129.20572421458334,129.6723187,60.0,75.0
730,129.72296521458333,130.12059423333335,44.0,77.0
731,129.98158571458333,130.31886995,56.0,82.0
732,129.98158571458333,130.33395614583333,60.0,81.0
733,129.98158571458333,130.35443026875,63.0,81.0
734,130.49882671458334,130.6615421125,44.0,86.0
735,131.27468821458334,131.37598124375,53.0,80.0
736,131.01606771458333,131.38891226875,48.0,71.0
737,130.75744721458335,131.52899837291667,41.0,84.0
738,131.27468821458334,131.76391199375,56.0,92.0
739,131.53330871458334,131.76929992083333,53.0,78.0
740,131.27468821458334,131.88244638958335,60.0,83.0
741,132.05054971458333,132.26929955416668,62.0,80.0
742,132.05054971458333,132.323178825,59.0,78.0
743,132.05054971458333,132.32641158125,55.0,75.0
744,132.30917021458333,132.64322169375,50.0,65.0
745,131.79192921458335,132.65507513333333,43.0,82.0
746,132.56779071458334,132.80162675,59.0,82.0
747,132.56779071458334,132.83610948333333,62.0,82.0
748,132.56779071458334,132.84365258125,55.0,81.0
749,132.82641121458335,132.84365258125,55.0,65.0
750,132.82641121458335,133.18632474375,60.0,82.0
751,133.34365221458333,133.45033317083335,55.0,82.0
752,132.82641121458335,133.62166925208334,48.0,81.0
753,133.34365221458333,133.99666897708335,60.0,83.0
754,133.34365221458333,134.00313448958335,63.0,84.0
755,133.60227271458334,134.01283275833333,55.0,79.0
756,134.11951371458335,134.38459972708333,55.0,84.0
757,134.11951371458335,134.4503324375,60.0,83.0
758,133.86089321458334,134.45141002291666,43.0,82.0
759,134.11951371458335,134.61951334791667,63.0,82.0
760,134.37813421458333,134.73481498750002,48.0,77.0
761,134.63675471458333,134.76175462291667,55.0,82.0
762,134.89537521458334,135.00959926875,48.0,95.0
763,134.89537521458334,135.0451595875,60.0,88.0
764,134.89537521458334,135.06994405208334,55.0,84.0
765,135.41261621458335,135.84041762500001,36.0,83.0
766,135.41261621458335,135.84257279583335,48.0,82.0
767,135.92985721458334,136.4481758,38.0,90.0
768,135.92985721458334,136.47619302083334,50.0,90.0
769,136.44709821458335,136.74989971666668,51.0,88.0
770,136.44709821458335,136.79300313333334,39.0,84.0
771,136.96433921458333,137.29192518125,68.0,84.0
772,136.96433921458333,137.314554475,60.0,82.0
773,136.96433921458333,137.5925715125,41.0,81.0
774,137.48158021458335,137.82317479166667,60.0,83.0
775,137.74020071458335,137.90830403958333,48.0,76.0
776,137.48158021458335,137.99451087291666,65.0,83.0
777,137.48158021458335,138.08071770625,68.0,86.0
778,138.25744171458334,138.3684330125,65.0,82.0
779,137.99882121458333,138.37597611041667,41.0,82.0
780,138.25744171458334,138.37597611041667,60.0,82.0
781,138.25744171458334,138.39213989166666,68.0,83.0
782,138.77468271458335,139.30377715416668,65.0,82.0
783,138.77468271458335,139.30485473958333,68.0,85.0
784,138.77468271458335,139.30700991041667,60.0,82.0
785,139.55054421458334,139.65938034166666,60.0,81.0
786,139.03330321458333,139.73157856458334,41.0,82.0
787,139.80916471458335,140.21433683125,60.0,83.0
788,139.55054421458334,140.22295751458333,65.0,81.0
789,139.55054421458334,140.23912129583334,68.0,83.0
790,140.32640571458333,140.59364689791667,65.0,83.0
791,140.32640571458333,140.60442275208334,60.0,84.0
792,140.32640571458333,140.62166411875,68.0,85.0
793,140.06778521458335,140.66261236458334,41.0,81.0
794,140.84364671458334,140.97511213541668,41.0,81.0
795,141.10226721458335,141.47942211041666,63.0,68.0
796,141.10226721458335,141.48912037916668,55.0,75.0
797,141.10226721458335,141.50312898958333,58.0,74.0
798,141.10226721458335,141.79084429583335,39.0,86.0
799,141.61950821458333,142.23373190208335,63.0,86.0
800,141.61950821458333,142.241275,58.0,85.0
801,142.13674921458335,142.52683513541666,39.0,82.0
802,142.39536971458335,142.67338675208333,55.0,81.0
803,142.39536971458335,142.75205048750001,58.0,84.0
804,142.65399021458333,142.76929185416668,46.0,65.0
805,142.39536971458335,142.86196420000002,63.0,84.0
806,142.91261071458334,143.0688606,55.0,85.0
807,143.17123121458334,143.56562747708332,58.0,76.0
808,143.17123121458334,143.80916178125,46.0,79.0
809,143.68847221458333,143.81886005,53.0,86.0
810,143.68847221458333,144.16584255416666,62.0,86.0
811,143.68847221458333,144.2067908,58.0,88.0
812,143.94709271458333,144.271445925,53.0,78.0
813,144.20571321458334,144.581790525,46.0,83.0
814,144.46433371458335,144.68739389583334,53.0,86.0
815,144.46433371458335,144.79946277916667,58.0,95.0
816,144.72295421458332,144.84472136666668,46.0,73.0
817,144.46433371458335,144.84472136666668,62.0,84.0
818,144.98157471458333,145.08717808541667,53.0,70.0
819,145.24019521458334,145.29299690000002,59.0,70.0
820,145.24019521458334,145.50312605625,53.0,74.0
821,145.24019521458334,145.53006569166666,60.0,72.0
822,145.75743621458335,145.80053963125002,62.0,77.0
823,145.75743621458335,145.92877229583334,60.0,79.0
824,145.24019521458334,145.99342742083334,41.0,83.0
825,145.75743621458335,146.28868582500002,65.0,83.0
826,146.01605671458333,146.31023753333335,60.0,76.0
827,146.27467721458333,146.7089441375,41.0,81.0
828,146.53329771458334,146.7477372125,60.0,87.0
829,146.53329771458334,146.7929958,65.0,85.0
830,146.53329771458334,146.81993543541668,68.0,85.0
831,147.05053871458333,147.19709033125,60.0,86.0
832,147.30915921458333,147.64105552291667,60.0,79.0
833,147.30915921458333,147.64859862083333,65.0,79.0
834,147.30915921458333,148.06023625,41.0,82.0
835,148.08502071458335,148.15398618125002,48.0,53.0
836,147.82640021458334,148.4546325125,60.0,85.0
837,147.82640021458334,148.47187387916668,65.0,88.0
838,147.82640021458334,148.48157214791667,68.0,86.0
839,148.60226171458334,148.71217542708334,65.0,88.0
840,148.60226171458334,148.71433059791667,68.0,88.0
841,148.60226171458334,148.74881333125,60.0,87.0
842,148.34364121458333,148.92984768125,41.0,79.0
843,148.86088221458334,148.98803729375,48.0,76.0
844,149.11950271458335,149.22295091458335,41.0,82.0
845,149.37812321458333,149.70247642500001,63.0,77.0
846,149.37812321458333,149.71001952291667,58.0,70.0
847,149.37812321458333,149.71864020625,55.0,79.0
848,149.37812321458333,150.00958826875,39.0,87.0
849,150.15398471458334,150.30700184375002,46.0,62.0
850,149.89536421458334,150.51174307291666,55.0,82.0
851,149.89536421458334,150.53544995208333,58.0,85.0
852,149.89536421458334,150.5365275375,63.0,88.0
853,150.41260521458335,150.77790667083335,39.0,75.0
854,150.67122571458333,150.89644106666668,55.0,82.0
855,150.92984621458334,151.09687195416666,46.0,73.0
856,150.67122571458333,151.21540635,63.0,86.0
857,150.67122571458333,151.23803564375,58.0,86.0
858,151.18846671458334,151.35441486875,55.0,78.0
859,151.44708721458335,151.81238867083334,53.0,80.0
860,151.44708721458335,151.82100935416668,62.0,72.0
861,151.44708721458335,151.85333691666668,58.0,77.0
862,151.96432821458333,152.05376780416668,53.0,80.0
863,151.44708721458335,152.22941422708334,46.0,84.0
864,151.96432821458333,152.28006074166666,58.0,82.0
865,151.96432821458333,152.28006074166666,62.0,81.0
866,152.22294871458334,152.35010379375,53.0,79.0
867,152.48156921458335,152.88566374583334,55.0,83.0
868,152.48156921458335,152.9416981875,47.0,88.0
869,152.48156921458335,153.04730155833334,59.0,85.0
870,152.99881021458333,153.44062023541667,55.0,85.0
871,152.99881021458333,153.45786160208334,43.0,85.0
872,153.51605121458334,153.86303371875002,60.0,83.0
873,153.51605121458334,153.86518888958335,55.0,82.0
874,154.03329221458333,154.12596456041666,55.0,83.0
875,154.03329221458333,154.35656783958333,60.0,86.0
876,153.51605121458334,154.41475745208334,48.0,90.0
877,154.03329221458333,154.46432638125,63.0,85.0
878,154.29191271458333,154.58501594791667,55.0,81.0
879,154.80915371458335,155.04083457916667,59.0,83.0
880,154.80915371458335,155.04191216458335,62.0,81.0
881,154.80915371458335,155.05484318958335,55.0,82.0
882,155.06777421458335,155.40721362083335,50.0,65.0
883,154.55053321458334,155.43846359791667,43.0,82.0
884,155.32639471458333,155.44277393958333,59.0,82.0
885,155.32639471458333,155.45570496458333,55.0,81.0
886,155.32639471458333,155.46863598958333,62.0,82.0
887,155.58501521458334,155.94061840208335,55.0,81.0
888,155.58501521458334,155.94708391458335,60.0,82.0
889,156.10225621458335,156.18199753541668,55.0,81.0
890,155.58501521458334,156.58070413958333,48.0,82.0
891,156.10225621458335,156.61841962916668,60.0,86.0
892,156.10225621458335,156.62380755625,63.0,87.0
893,156.36087671458333,156.74988505000002,55.0,82.0
894,156.87811771458334,157.00527279375,59.0,82.0
895,156.87811771458334,157.02359174583333,55.0,82.0
896,156.87811771458334,157.03221242916666,62.0,82.0
897,156.61949721458333,157.05053138125,43.0,82.0
898,157.39535871458335,157.49665174375,59.0,82.0
899,157.39535871458335,157.51497069583334,55.0,80.0
900,157.39535871458335,157.52359137916667,62.0,82.0
901,157.65397921458333,158.00311688958334,60.0,82.0
902,157.65397921458333,158.00419447500002,55.0,82.0
903,158.17122021458334,158.24880636458334,55.0,80.0
904,158.17122021458334,158.48371998541668,60.0,87.0
905,158.17122021458334,158.50850445,63.0,84.0
906,158.42984071458335,158.54514235416667,55.0,80.0
907,157.65397921458333,158.57639233125002,48.0,82.0
908,158.68846121458333,158.81561629375,55.0,75.0
909,158.68846121458333,158.81884905,59.0,79.0
910,158.68846121458333,159.10548677083335,43.0,82.0
911,158.94708171458333,159.24665046041667,62.0,85.0
912,158.94708171458333,159.26065907083333,55.0,82.0
913,158.94708171458333,159.26281424166666,59.0,83.0
914,159.20570221458334,159.53113301041668,50.0,73.0
915,159.46432271458335,159.55160713333333,59.0,71.0
916,159.46432271458335,159.56992608541668,62.0,81.0
917,159.46432271458335,159.57639159791668,55.0,81.0
918,159.72294321458335,160.0666929625,60.0,80.0
919,159.72294321458335,160.06884813333335,55.0,80.0
920,160.24018421458334,160.3231582916667,55.0,81.0
921,159.72294321458335,160.64320116041668,48.0,82.0
922,160.24018421458334,160.85009756041669,60.0,85.0
923,160.24018421458334,160.85009756041669,63.0,84.0
924,160.49880471458334,160.87164926875002,55.0,79.0
925,161.01604571458333,161.13134735416668,55.0,83.0
926,161.01604571458333,161.13458011041666,60.0,85.0
927,161.01604571458333,161.15074389166668,63.0,88.0
928,160.75742521458335,161.18414903958333,43.0,82.0
929,161.53328671458334,161.69815728333333,60.0,78.0
930,161.53328671458334,161.71108830833333,55.0,77.0
931,161.53328671458334,161.72401933333333,63.0,77.0
932,161.53328671458334,161.76173482291668,43.0,83.0
933,161.79190721458335,162.13888971875,60.0,83.0
934,161.79190721458335,162.14104488958333,55.0,82.0
935,162.30914821458333,162.40182056041667,55.0,83.0
936,162.30914821458333,162.63242383958334,60.0,86.0
937,161.79190721458335,162.69061345208334,48.0,90.0
938,162.30914821458333,162.74018238125,63.0,85.0
939,162.56776871458334,162.86087194791668,55.0,81.0
940,163.08500971458335,163.31669057916667,59.0,83.0
941,163.08500971458335,163.31776816458333,62.0,81.0
942,163.08500971458335,163.33069918958333,55.0,82.0
943,163.34363021458333,163.68306962083335,50.0,65.0
944,162.82638921458334,163.71431959791667,43.0,82.0
945,163.60225071458333,163.71862993958334,59.0,82.0
946,163.60225071458333,163.73156096458334,55.0,81.0
947,163.60225071458333,163.74449198958334,62.0,82.0
948,163.86087121458334,164.21647440208335,55.0,81.0
949,163.86087121458334,164.22293991458335,60.0,82.0
950,164.37811221458335,164.45785353541666,55.0,81.0
951,163.86087121458334,164.85656013958334,48.0,82.0
952,164.37811221458335,164.89427562916669,60.0,86.0
953,164.37811221458335,164.89966355625,63.0,87.0
954,164.63673271458333,165.02574105,55.0,82.0
955,165.15397371458334,165.28112879375,59.0,82.0
956,165.15397371458334,165.29944774583333,55.0,82.0
957,165.15397371458334,165.30806842916667,62.0,82.0
958,164.89535321458334,165.32638738125002,43.0,82.0
959,165.67121471458333,165.77250774375,59.0,82.0
960,165.67121471458333,165.79082669583335,55.0,80.0
961,165.67121471458333,165.79944737916668,62.0,82.0
962,165.92983521458333,166.27897288958334,60.0,82.0
963,165.92983521458333,166.280050475,55.0,82.0
964,166.44707621458335,166.52466236458335,55.0,80.0
965,166.44707621458335,166.75957598541666,60.0,87.0
966,166.44707621458335,166.78436045,63.0,84.0
967,166.70569671458335,166.82099835416668,55.0,80.0
968,165.92983521458333,166.85224833125,48.0,82.0
969,166.96431721458333,167.09147229375,55.0,75.0
970,166.96431721458333,167.09470505000002,59.0,79.0
971,166.96431721458333,167.38134277083333,43.0,82.0
972,167.22293771458334,167.52250646041668,62.0,85.0
973,167.22293771458334,167.53651507083333,55.0,82.0
974,167.22293771458334,167.53867024166667,59.0,83.0
975,167.48155821458334,167.8069890104167,50.0,73.0
976,167.74017871458335,167.82746313333334,59.0,71.0
977,167.74017871458335,167.8457820854167,62.0,81.0
978,167.74017871458335,167.8522475979167,55.0,81.0
979,167.99879921458333,168.34254896250002,60.0,80.0
980,167.99879921458333,168.34470413333335,55.0,80.0
981,168.51604021458334,168.59901429166666,55.0,81.0
982,167.99879921458333,168.91905716041668,48.0,82.0
983,168.51604021458334,169.12595356041666,60.0,85.0
984,168.51604021458334,169.12595356041666,63.0,84.0
985,168.77466071458335,169.14750526875,55.0,79.0
986,169.29190171458333,169.40720335416668,55.0,83.0
987,169.29190171458333,169.41043611041667,60.0,85.0
988,169.29190171458333,169.42659989166668,63.0,88.0
989,169.03328121458333,169.46000503958334,43.0,82.0
990,169.80914271458334,169.97401328333333,60.0,78.0
991,169.80914271458334,169.98694430833334,55.0,77.0
992,169.80914271458334,169.99987533333334,63.0,77.0
993,169.80914271458334,170.03759082291668,43.0,83.0
994,170.06776321458335,170.41474571875,60.0,83.0
995,170.06776321458335,170.41690088958333,55.0,82.0
996,170.58500421458334,170.67767656041667,55.0,83.0
997,170.58500421458334,170.90827983958334,60.0,86.0
998,170.06776321458335,170.96646945208335,48.0,90.0
999,170.58500421458334,171.01603838125,63.0,85.0
1000,170.84362471458334,171.13672794791668,55.0,81.0
1001,171.36086571458333,171.59254657916668,59.0,83.0
1002,171.36086571458333,171.59362416458333,62.0,81.0
1003,171.36086571458333,171.60655518958333,55.0,82.0
1004,171.61948621458333,171.95892562083333,50.0,65.0
1005,171.10224521458335,171.99017559791668,43.0,82.0
1006,171.87810671458334,171.99448593958334,59.0,82.0
1007,171.87810671458334,172.00741696458334,55.0,81.0
1008,171.87810671458334,172.02034798958334,62.0,82.0
1009,172.13672721458335,172.49233040208335,55.0,81.0
1010,172.13672721458335,172.49879591458335,60.0,82.0
1011,172.65396821458333,172.73370953541666,55.0,81.0
1012,172.13672721458335,173.13241613958334,48.0,82.0
1013,172.65396821458333,173.17013162916666,60.0,86.0
1014,172.65396821458333,173.17551955625,63.0,87.0
1015,172.91258871458334,173.30159705,55.0,82.0
1016,173.42982971458335,173.55698479375002,59.0,82.0
1017,173.42982971458335,173.57530374583334,55.0,82.0
1018,173.42982971458335,173.58392442916667,62.0,82.0
1019,173.17120921458334,173.60224338125002,43.0,82.0
1020,173.94707071458333,174.04836374375,59.0,82.0
1021,173.94707071458333,174.06668269583335,55.0,80.0
1022,173.94707071458333,174.07530337916668,62.0,82.0
1023,174.20569121458334,174.55482888958335,60.0,82.0
1024,174.20569121458334,174.555906475,55.0,82.0
1025,174.72293221458335,174.80051836458335,55.0,80.0
1026,174.72293221458335,175.03543198541666,60.0,87.0
1027,174.72293221458335,175.06021645,63.0,84.0
1028,174.98155271458333,175.09685435416668,55.0,80.0
1029,174.20569121458334,175.12810433125,48.0,82.0
1030,175.24017321458334,175.36732829375,55.0,75.0
1031,175.24017321458334,175.37056105000002,59.0,79.0
1032,175.24017321458334,175.65719877083333,43.0,82.0
1033,175.49879371458334,175.79836246041668,62.0,85.0
1034,175.49879371458334,175.81237107083334,55.0,82.0
1035,175.49879371458334,175.81452624166667,59.0,83.0
1036,175.75741421458335,176.08284501041666,50.0,73.0
1037,176.01603471458333,176.10331913333334,59.0,71.0
1038,176.01603471458333,176.12163808541666,62.0,81.0
1039,176.01603471458333,176.12810359791666,55.0,81.0
1040,176.27465521458333,176.6184049625,60.0,80.0
1041,176.27465521458333,176.62056013333333,55.0,80.0
1042,176.79189621458335,176.87487029166667,55.0,81.0
1043,176.27465521458333,177.19491316041666,48.0,82.0
1044,176.79189621458335,177.40180956041667,60.0,85.0
1045,176.79189621458335,177.40180956041667,63.0,84.0
1046,177.05051671458335,177.42336126875,55.0,79.0
1047,177.56775771458334,177.6830593541667,55.0,83.0
1048,177.56775771458334,177.68629211041667,60.0,85.0
1049,177.56775771458334,177.7024558916667,63.0,88.0
1050,177.30913721458333,177.73586103958334,43.0,82.0
1051,178.08499871458335,178.24986928333334,60.0,78.0
1052,178.08499871458335,178.26280030833334,55.0,77.0
1053,178.08499871458335,178.27573133333334,63.0,77.0
1054,178.08499871458335,178.31344682291666,43.0,83.0
1055,178.34361921458333,178.69060171875,60.0,83.0
1056,178.34361921458333,178.69275688958334,55.0,82.0
1057,178.86086021458334,178.95353256041668,55.0,83.0
1058,178.86086021458334,179.18413583958335,60.0,86.0
1059,178.34361921458333,179.24232545208335,48.0,90.0
1060,178.86086021458334,179.29189438125002,63.0,85.0
1061,179.11948071458335,179.4125839479167,55.0,81.0
1062,179.63672171458333,179.86840257916668,59.0,83.0
1063,179.63672171458333,179.86948016458334,62.0,81.0
1064,179.63672171458333,179.88241118958334,55.0,82.0
1065,179.89534221458334,180.23478162083333,50.0,65.0
1066,179.37810121458335,180.26603159791668,43.0,82.0
1067,180.15396271458334,180.27034193958335,59.0,82.0
1068,180.15396271458334,180.28327296458335,55.0,81.0
1069,180.15396271458334,180.29620398958335,62.0,82.0
1070,180.41258321458335,180.76818640208333,55.0,81.0
1071,180.41258321458335,180.77465191458333,60.0,82.0
1072,180.92982421458333,181.00956553541667,55.0,81.0
1073,180.41258321458335,181.40827213958335,48.0,82.0
1074,180.92982421458333,181.44598762916667,60.0,86.0
1075,180.92982421458333,181.45137555625,63.0,87.0
1076,181.18844471458334,181.57745305,55.0,82.0
1077,181.70568571458335,181.83284079375,59.0,82.0
1078,181.70568571458335,181.85115974583334,55.0,82.0
1079,181.70568571458335,181.85978042916668,62.0,82.0
1080,181.44706521458335,181.87809938125,43.0,82.0
1081,182.22292671458334,182.32421974375,59.0,82.0
1082,182.22292671458334,182.34253869583333,55.0,80.0
1083,182.22292671458334,182.35115937916666,62.0,82.0
1084,182.48154721458334,182.83068488958335,60.0,82.0
1085,182.48154721458334,182.831762475,55.0,82.0
1086,182.99878821458333,183.07637436458333,55.0,80.0
1087,182.99878821458333,183.31128798541667,60.0,87.0
1088,182.99878821458333,183.33607245000002,63.0,84.0
1089,183.25740871458333,183.37271035416668,55.0,80.0
1090,182.48154721458334,183.40396033125,48.0,82.0
1091,183.51602921458334,183.64318429375,55.0,75.0
1092,183.51602921458334,183.64641705,59.0,79.0
1093,183.51602921458334,183.93305477083334,43.0,82.0
1094,183.77464971458335,184.0742184604167,62.0,85.0
1095,183.77464971458335,184.08822707083334,55.0,82.0
1096,183.77464971458335,184.09038224166667,59.0,83.0
1097,184.03327021458335,184.35870101041667,50.0,73.0
1098,184.29189071458333,184.37917513333335,59.0,71.0
1099,184.29189071458333,184.39749408541667,62.0,81.0
1100,184.29189071458333,184.40395959791667,55.0,81.0
1101,184.55051121458334,184.66473526875,48.0,95.0
1102,184.55051121458334,184.7002955875,60.0,88.0
1103,184.55051121458334,184.72508005208334,55.0,84.0
1104,185.06775221458335,185.495553625,36.0,83.0
1105,185.06775221458335,185.49770879583335,48.0,82.0
1106,185.58499321458333,186.1033118,38.0,90.0
1107,185.58499321458333,186.13132902083333,50.0,90.0
1108,186.10223421458335,186.40503571666667,51.0,88.0
1109,186.10223421458335,186.44813913333334,39.0,84.0
1110,186.61947521458333,186.94706118125,68.0,84.0
1111,186.61947521458333,186.96969047500002,60.0,82.0
1112,186.61947521458333,187.2477075125,41.0,81.0
1113,187.13671621458334,187.47831079166667,60.0,83.0
1114,187.39533671458335,187.56344003958333,48.0,76.0
1115,187.13671621458334,187.64964687291666,65.0,83.0
1116,187.13671621458334,187.73585370625,68.0,86.0
1117,187.91257771458334,188.02356901250002,65.0,82.0
1118,187.65395721458333,188.03111211041667,41.0,82.0
1119,187.91257771458334,188.03111211041667,60.0,82.0
1120,187.91257771458334,188.0472758916667,68.0,83.0
1121,188.42981871458335,188.95891315416668,65.0,82.0
1122,188.42981871458335,188.95999073958333,68.0,85.0
1123,188.42981871458335,188.96214591041667,60.0,82.0
1124,189.20568021458334,189.31451634166666,60.0,81.0
1125,188.68843921458335,189.38671456458334,41.0,82.0
1126,189.46430071458335,189.86947283125,60.0,83.0
1127,189.20568021458334,189.87809351458333,65.0,81.0
1128,189.20568021458334,189.89425729583334,68.0,83.0
1129,189.98154171458333,190.24878289791667,65.0,83.0
1130,189.98154171458333,190.25955875208334,60.0,84.0
1131,189.98154171458333,190.27680011875,68.0,85.0
1132,189.72292121458335,190.31774836458334,41.0,81.0
1133,190.49878271458334,190.63024813541668,41.0,81.0
1134,190.75740321458335,191.13455811041666,63.0,68.0
1135,190.75740321458335,191.14425637916668,55.0,75.0
1136,190.75740321458335,191.15826498958333,58.0,74.0
1137,190.75740321458335,191.44598029583335,39.0,86.0
1138,191.27464421458333,191.88886790208335,63.0,86.0
1139,191.27464421458333,191.896411,58.0,85.0
1140,191.79188521458335,192.18197113541666,39.0,82.0
1141,192.05050571458335,192.32852275208333,55.0,81.0
1142,192.05050571458335,192.4071864875,58.0,84.0
1143,192.30912621458333,192.42442785416668,46.0,65.0
1144,192.05050571458335,192.51710020000002,63.0,84.0
1145,192.56774671458334,192.72399660000002,55.0,85.0
1146,192.82636721458334,193.22076347708335,58.0,76.0
1147,192.82636721458334,193.46429778125,46.0,79.0
1148,193.34360821458333,193.47399605,53.0,86.0
1149,193.34360821458333,193.8209785541667,62.0,86.0
1150,193.34360821458333,193.86192680000002,58.0,88.0
1151,193.60222871458333,193.926581925,53.0,78.0
1152,193.86084921458334,194.236926525,46.0,83.0
1153,194.11946971458335,194.34252989583334,53.0,86.0
1154,194.11946971458335,194.45459877916667,58.0,95.0
1155,194.37809021458335,194.49985736666667,46.0,73.0
1156,194.11946971458335,194.49985736666667,62.0,84.0
1157,194.63671071458333,194.74231408541667,53.0,70.0
1158,194.89533121458334,194.94813290000002,59.0,70.0
1159,194.89533121458334,195.15826205625,53.0,74.0
1160,194.89533121458334,195.18520169166666,60.0,72.0
1161,195.41257221458335,195.45567563125002,62.0,77.0
1162,195.41257221458335,195.58390829583334,60.0,79.0
1163,194.89533121458334,195.64856342083334,41.0,83.0
1164,195.41257221458335,195.94382182500001,65.0,83.0
1165,195.67119271458333,195.96537353333335,60.0,76.0
1166,195.92981321458333,196.3640801375,41.0,81.0
1167,196.18843371458334,196.4028732125,60.0,87.0
1168,196.18843371458334,196.4481318,65.0,85.0
1169,196.18843371458334,196.47507143541668,68.0,85.0
1170,196.70567471458335,196.85222633125,60.0,86.0
1171,196.96429521458333,197.29619152291667,60.0,79.0
1172,196.96429521458333,197.30373462083335,65.0,79.0
1173,196.96429521458333,197.71537225,41.0,82.0
1174,197.74015671458335,197.80912218125002,48.0,53.0
1175,197.48153621458334,198.1097685125,60.0,85.0
1176,197.48153621458334,198.12700987916668,65.0,88.0
1177,197.48153621458334,198.13670814791666,68.0,86.0
1178,198.25739771458333,198.36731142708334,65.0,88.0
1179,198.25739771458333,198.36946659791667,68.0,88.0
1180,198.25739771458333,198.40394933125,60.0,87.0
1181,197.99877721458333,198.58498368125,41.0,79.0
1182,198.51601821458334,198.64317329375,48.0,76.0
1183,198.77463871458335,198.87808691458335,41.0,82.0
1184,199.03325921458335,199.357612425,63.0,77.0
1185,199.03325921458335,199.36515552291667,58.0,70.0
1186,199.03325921458335,199.37377620625,55.0,79.0
1187,199.03325921458335,199.66472426875,39.0,87.0
1188,199.80912071458334,199.96213784375,46.0,62.0
1189,199.55050021458334,200.1668790729167,55.0,82.0
1190,199.55050021458334,200.19058595208335,58.0,85.0
1191,199.55050021458334,200.1916635375,63.0,88.0
1192,200.06774121458335,200.43304267083334,39.0,75.0
1193,200.32636171458333,200.55157706666668,55.0,82.0
1194,200.58498221458333,200.7520079541667,46.0,73.0
1195,200.32636171458333,200.87054235,63.0,86.0
1196,200.32636171458333,200.89317164375,58.0,86.0
1197,200.84360271458334,201.00955086875,55.0,78.0
1198,201.10222321458335,201.46752467083334,53.0,80.0
1199,201.10222321458335,201.47614535416668,62.0,72.0
1200,201.10222321458335,201.50847291666668,58.0,77.0
1201,201.61946421458333,201.70890380416668,53.0,80.0
1202,201.10222321458335,201.88455022708334,46.0,84.0
1203,201.61946421458333,201.9351967416667,58.0,82.0
1204,201.61946421458333,201.9351967416667,62.0,81.0
1205,201.87808471458334,202.00523979375,53.0,79.0
1206,202.13670521458334,202.54079974583334,55.0,83.0
1207,202.13670521458334,202.5968341875,47.0,88.0
1208,202.13670521458334,202.70243755833334,59.0,85.0
1209,202.65394621458333,203.09575623541667,55.0,85.0
1210,202.65394621458333,203.11299760208334,43.0,85.0
1211,203.17118721458334,203.51816971875002,60.0,83.0
1212,203.17118721458334,203.52032488958335,55.0,82.0
1213,203.68842821458335,203.78110056041666,55.0,83.0
1214,203.68842821458335,204.01170383958333,60.0,86.0
1215,203.17118721458334,204.06989345208333,48.0,90.0
1216,203.68842821458335,204.11946238125,63.0,85.0
1217,203.94704871458333,204.24015194791667,55.0,81.0
1218,204.46428971458334,204.69597057916667,59.0,83.0
1219,204.46428971458334,204.69704816458335,62.0,81.0
1220,204.46428971458334,204.70997918958335,55.0,82.0
1221,204.72291021458335,205.06234962083334,50.0,65.0
1222,204.20566921458334,205.09359959791666,43.0,82.0
1223,204.98153071458333,205.09790993958333,59.0,82.0
1224,204.98153071458333,205.11084096458333,55.0,81.0
1225,204.98153071458333,205.12377198958333,62.0,82.0
1226,205.24015121458334,205.59575440208334,55.0,81.0
1227,205.24015121458334,205.60221991458334,60.0,82.0
1228,205.75739221458335,205.83713353541668,55.0,81.0
1229,205.24015121458334,206.23584013958333,48.0,82.0
1230,205.75739221458335,206.27355562916668,60.0,86.0
1231,205.75739221458335,206.27894355625,63.0,87.0
1232,206.01601271458335,206.40502105000002,55.0,82.0
1233,206.53325371458334,206.66040879375,59.0,82.0
1234,206.53325371458334,206.67872774583333,55.0,82.0
1235,206.53325371458334,206.68734842916666,62.0,82.0
1236,206.27463321458333,206.70566738125,43.0,82.0
1237,207.05049471458335,207.15178774375002,59.0,82.0
1238,207.05049471458335,207.17010669583334,55.0,80.0
1239,207.05049471458335,207.17872737916667,62.0,82.0
1240,207.30911521458333,207.65825288958334,60.0,82.0
1241,207.30911521458333,207.65933047500002,55.0,82.0
1242,207.82635621458334,207.90394236458334,55.0,80.0
1243,207.82635621458334,208.13885598541668,60.0,87.0
1244,207.82635621458334,208.16364045,63.0,84.0
1245,208.08497671458335,208.20027835416667,55.0,80.0
1246,207.30911521458333,208.23152833125002,48.0,82.0
1247,208.34359721458335,208.47075229375,55.0,75.0
1248,208.34359721458335,208.47398505,59.0,79.0
1249,208.34359721458335,208.76062277083335,43.0,82.0
1250,208.60221771458333,208.90178646041667,62.0,85.0
1251,208.60221771458333,208.91579507083335,55.0,82.0
1252,208.60221771458333,208.9179502416667,59.0,83.0
1253,208.86083821458334,209.18626901041668,50.0,73.0
1254,209.11945871458335,209.20674313333333,59.0,71.0
1255,209.11945871458335,209.22506208541668,62.0,81.0
1256,209.11945871458335,209.23152759791668,55.0,81.0
1257,209.37807921458335,209.7218289625,60.0,80.0
1258,209.37807921458335,209.72398413333335,55.0,80.0
1259,209.89532021458334,209.97829429166669,55.0,81.0
1260,209.37807921458335,210.29833716041668,48.0,82.0
1261,209.89532021458334,210.50523356041668,60.0,85.0
1262,209.89532021458334,210.50523356041668,63.0,84.0
1263,210.15394071458334,210.52678526875002,55.0,79.0
1264,210.67118171458335,210.78648335416668,55.0,83.0
1265,210.67118171458335,210.78971611041666,60.0,85.0
1266,210.67118171458335,210.80587989166668,63.0,88.0
1267,210.41256121458335,210.83928503958333,43.0,82.0
1268,211.18842271458334,211.35329328333333,60.0,78.0
1269,211.18842271458334,211.36622430833333,55.0,77.0
1270,211.18842271458334,211.37915533333333,63.0,77.0
1271,211.18842271458334,211.41687082291668,43.0,83.0
1272,211.44704321458335,211.79402571875002,60.0,83.0
1273,211.44704321458335,211.79618088958335,55.0,82.0
1274,211.96428421458333,212.05695656041667,55.0,83.0
1275,211.96428421458333,212.28755983958334,60.0,86.0
1276,211.44704321458335,212.34574945208334,48.0,90.0
1277,211.96428421458333,212.39531838125,63.0,85.0
1278,212.22290471458334,212.51600794791668,55.0,81.0
1279,212.74014571458335,212.97182657916667,59.0,83.0
1280,212.74014571458335,212.97290416458335,62.0,81.0
1281,212.74014571458335,212.98583518958336,55.0,82.0
1282,212.99876621458336,213.33820562083335,50.0,65.0
1283,212.48152521458334,213.36945559791667,43.0,82.0
1284,213.25738671458333,213.37376593958334,59.0,82.0
1285,213.25738671458333,213.38669696458334,55.0,81.0
1286,213.25738671458333,213.39962798958334,62.0,82.0
1287,213.51600721458334,213.87161040208335,55.0,81.0
1288,213.51600721458334,213.87807591458335,60.0,82.0
1289,214.03324821458335,214.1129895354167,55.0,81.0
1290,213.51600721458334,214.51169613958334,48.0,82.0
1291,214.03324821458335,214.54941162916668,60.0,86.0
1292,214.03324821458335,214.55479955625,63.0,87.0
1293,214.29186871458333,214.68087705000002,55.0,82.0
1294,214.80910971458334,214.93626479375,59.0,82.0
1295,214.80910971458334,214.95458374583333,55.0,82.0
1296,214.80910971458334,214.96320442916667,62.0,82.0
1297,214.55048921458334,214.98152338125,43.0,82.0
1298,215.32635071458336,215.42764374375,59.0,82.0
1299,215.32635071458336,215.44596269583334,55.0,80.0
1300,215.32635071458336,215.45458337916668,62.0,82.0
1301,215.58497121458333,215.93410888958334,60.0,82.0
1302,215.58497121458333,215.935186475,55.0,82.0
1303,216.10221221458335,216.17979836458335,55.0,80.0
1304,216.10221221458335,216.4147119854167,60.0,87.0
1305,216.10221221458335,216.43949645,63.0,84.0
1306,216.36083271458335,216.47613435416667,55.0,80.0
1307,215.58497121458333,216.50738433125,48.0,82.0
1308,216.61945321458333,216.74660829375,55.0,75.0
1309,216.61945321458333,216.74984105000001,59.0,79.0
1310,216.61945321458333,217.03647877083336,43.0,82.0
1311,216.87807371458334,217.17764246041668,62.0,85.0
1312,216.87807371458334,217.19165107083333,55.0,82.0
1313,216.87807371458334,217.19380624166666,59.0,83.0
1314,217.13669421458334,217.46212501041668,50.0,73.0
1315,217.39531471458335,217.48259913333334,59.0,71.0
1316,217.39531471458335,217.50091808541669,62.0,81.0
1317,217.39531471458335,217.5073835979167,55.0,81.0
1318,217.65393521458333,217.99768496250002,60.0,80.0
1319,217.65393521458333,217.99984013333335,55.0,80.0
1320,218.17117621458334,218.25415029166666,55.0,81.0
1321,217.65393521458333,218.57419316041668,48.0,82.0
1322,218.17117621458334,218.7810895604167,60.0,85.0
1323,218.17117621458334,218.7810895604167,63.0,84.0
1324,218.42979671458335,218.80264126875002,55.0,79.0
1325,218.94703771458333,219.06233935416668,55.0,83.0
1326,218.94703771458333,219.06557211041667,60.0,85.0
1327,218.94703771458333,219.08173589166668,63.0,88.0
1328,218.68841721458335,219.11514103958334,43.0,82.0
1329,219.46427871458334,219.62914928333333,60.0,78.0
1330,219.46427871458334,219.64208030833333,55.0,77.0
1331,219.46427871458334,219.65501133333333,63.0,77.0
1332,219.46427871458334,219.69272682291668,43.0,83.0
1333,219.72289921458335,220.06988171875,60.0,83.0
1334,219.72289921458335,220.07203688958333,55.0,82.0
1335,220.24014021458333,220.33281256041667,55.0,83.0
1336,220.24014021458333,220.56341583958334,60.0,86.0
1337,219.72289921458335,220.62160545208334,48.0,90.0
1338,220.24014021458333,220.67117438125,63.0,85.0
1339,220.49876071458334,220.79186394791668,55.0,81.0
1340,221.01600171458335,221.24768257916668,59.0,83.0
1341,221.01600171458335,221.24876016458333,62.0,81.0
1342,221.01600171458335,221.26169118958333,55.0,82.0
1343,221.27462221458333,221.61406162083335,50.0,65.0
1344,220.75738121458335,221.64531159791667,43.0,82.0
1345,221.53324271458334,221.64962193958334,59.0,82.0
1346,221.53324271458334,221.66255296458334,55.0,81.0
1347,221.53324271458334,221.67548398958334,62.0,82.0
1348,221.79186321458334,222.14746640208335,55.0,81.0
1349,221.79186321458334,222.15393191458335,60.0,82.0
1350,222.30910421458333,222.38884553541666,55.0,81.0
1351,221.79186321458334,222.78755213958334,48.0,82.0
1352,222.30910421458333,222.8252676291667,60.0,86.0
1353,222.30910421458333,222.83065555625,63.0,87.0
1354,222.56772471458333,222.95673305,55.0,82.0
1355,223.08496571458335,223.21212079375002,59.0,82.0
1356,223.08496571458335,223.23043974583334,55.0,82.0
1357,223.08496571458335,223.23906042916667,62.0,82.0
1358,222.82634521458334,223.25737938125002,43.0,82.0
1359,223.60220671458333,223.70349974375,59.0,82.0
1360,223.60220671458333,223.72181869583335,55.0,80.0
1361,223.60220671458333,223.73043937916668,62.0,82.0
1362,223.86082721458334,224.20996488958335,60.0,82.0
1363,223.86082721458334,224.211042475,55.0,82.0
1364,224.37806821458335,224.45565436458335,55.0,80.0
1365,224.37806821458335,224.69056798541666,60.0,87.0
1366,224.37806821458335,224.71535245,63.0,84.0
1367,224.63668871458333,224.75199035416668,55.0,80.0
1368,223.86082721458334,224.78324033125,48.0,82.0
1369,224.89530921458334,225.02246429375,55.0,75.0
1370,224.89530921458334,225.02569705000002,59.0,79.0
1371,224.89530921458334,225.31233477083333,43.0,82.0
1372,225.15392971458334,225.45349846041668,62.0,85.0
1373,225.15392971458334,225.46750707083334,55.0,82.0
1374,225.15392971458334,225.46966224166667,59.0,83.0
1375,225.41255021458335,225.7379810104167,50.0,73.0
1376,225.67117071458335,225.75845513333334,59.0,71.0
1377,225.67117071458335,225.77677408541666,62.0,81.0
1378,225.67117071458335,225.78323959791666,55.0,81.0
1379,225.92979121458333,226.27354096250002,60.0,80.0
1380,225.92979121458333,226.27569613333335,55.0,80.0
1381,226.44703221458334,226.53000629166667,55.0,81.0
1382,225.92979121458333,226.8500491604167,48.0,82.0
1383,226.44703221458334,227.05694556041666,60.0,85.0
1384,226.44703221458334,227.05694556041666,63.0,84.0
1385,226.70565271458335,227.07849726875,55.0,79.0
1386,227.22289371458334,227.3381953541667,55.0,83.0
1387,227.22289371458334,227.34142811041667,60.0,85.0
1388,227.22289371458334,227.3575918916667,63.0,88.0
1389,226.96427321458333,227.39099703958334,43.0,82.0
1390,227.74013471458335,227.90500528333334,60.0,78.0
1391,227.74013471458335,227.91793630833334,55.0,77.0
1392,227.74013471458335,227.93086733333334,63.0,77.0
1393,227.74013471458335,227.9685828229167,43.0,83.0
1394,227.99875521458335,228.34573771875,60.0,83.0
1395,227.99875521458335,228.34789288958333,55.0,82.0
1396,228.51599621458334,228.60866856041667,55.0,83.0
1397,228.51599621458334,228.83927183958335,60.0,86.0
1398,227.99875521458335,228.89746145208335,48.0,90.0
1399,228.51599621458334,228.94703038125002,63.0,85.0
1400,228.77461671458335,229.0677199479167,55.0,81.0
1401,229.29185771458333,229.52353857916668,59.0,83.0
1402,229.29185771458333,229.52461616458334,62.0,81.0
1403,229.29185771458333,229.53754718958334,55.0,82.0
1404,229.55047821458334,229.88991762083333,50.0,65.0
1405,229.03323721458335,229.92116759791668,43.0,82.0
1406,229.80909871458334,229.92547793958335,59.0,82.0
1407,229.80909871458334,229.93840896458335,55.0,81.0
1408,229.80909871458334,229.95133998958335,62.0,82.0
1409,230.06771921458335,230.42332240208333,55.0,81.0
1410,230.06771921458335,230.42978791458333,60.0,82.0
1411,230.58496021458333,230.66470153541667,55.0,81.0
1412,230.06771921458335,231.06340813958334,48.0,82.0
1413,230.58496021458333,231.10112362916666,60.0,86.0
1414,230.58496021458333,231.10651155625,63.0,87.0
1415,230.84358071458334,231.23258905,55.0,82.0
1416,231.36082171458335,231.48797679375002,59.0,82.0
1417,231.36082171458335,231.50629574583334,55.0,82.0
1418,231.36082171458335,231.51491642916668,62.0,82.0
1419,231.10220121458335,231.53323538125002,43.0,82.0
1420,231.87806271458334,231.97935574375,59.0,82.0
1421,231.87806271458334,231.99767469583335,55.0,80.0
1422,231.87806271458334,232.0062953791667,62.0,82.0
1423,232.13668321458334,232.48582088958335,60.0,82.0
1424,232.13668321458334,232.486898475,55.0,82.0
1425,232.65392421458336,232.73151036458333,55.0,80.0
1426,232.65392421458336,232.96642398541667,60.0,87.0
1427,232.65392421458336,232.99120845000002,63.0,84.0
1428,232.91254471458333,233.02784635416668,55.0,80.0
1429,232.13668321458334,233.05909633125,48.0,82.0
1430,233.17116521458334,233.29832029375,55.0,75.0
1431,233.17116521458334,233.30155305,59.0,79.0
1432,233.17116521458334,233.58819077083334,43.0,82.0
1433,233.42978571458335,233.7293544604167,62.0,85.0
1434,233.42978571458335,233.74336307083334,55.0,82.0
1435,233.42978571458335,233.74551824166667,59.0,83.0
1436,233.68840621458335,234.01383701041667,50.0,73.0
1437,233.94702671458333,234.03431113333335,59.0,71.0
1438,233.94702671458333,234.05263008541667,62.0,81.0
1439,233.94702671458333,234.05909559791667,55.0,81.0
1440,234.20564721458334,234.5493969625,60.0,80.0
1441,234.20564721458334,234.55155213333333,55.0,80.0
1442,234.72288821458335,234.80586229166667,55.0,81.0
1443,234.20564721458334,235.12590516041666,48.0,82.0
1444,234.72288821458335,235.33280156041667,60.0,85.0
1445,234.72288821458335,235.33280156041667,63.0,84.0
1446,234.98150871458336,235.35435326875,55.0,79.0
1447,235.49874971458334,235.61405135416666,55.0,83.0
1448,235.49874971458334,235.61728411041668,60.0,85.0
1449,235.49874971458334,235.63344789166666,63.0,88.0
1450,235.24012921458333,235.66685303958334,43.0,82.0
1451,236.01599071458335,236.18086128333334,60.0,78.0
1452,236.01599071458335,236.19379230833334,55.0,77.0
1453,236.01599071458335,236.20672333333334,63.0,77.0
1454,236.01599071458335,236.24443882291666,43.0,83.0
1455,236.27461121458333,236.56771444791667,60.0,75.0
1456,236.27461121458333,236.58495581458334,63.0,79.0
1457,236.27461121458333,236.88021421875,48.0,84.0
1458,236.79185221458334,236.99012793125002,67.0,77.0
1459,236.79185221458334,237.02137790833333,60.0,76.0
1460,236.79185221458334,237.05478305625002,63.0,82.0
1461,237.30909321458336,237.80478250625,48.0,81.0
1462,237.56771371458333,237.86297211875,60.0,79.0
1463,237.56771371458333,237.8705152166667,63.0,85.0
1464,238.08495471458335,238.52568715,63.0,81.0
1465,238.34357521458335,238.98042819583335,44.0,84.0
1466,238.86081621458334,239.08387639583333,56.0,74.0
1467,238.86081621458334,239.11189361666666,60.0,74.0
1468,238.86081621458334,239.1140487875,63.0,75.0
1469,239.11943671458334,239.25090213541668,51.0,39.0
1470,239.37805721458335,239.7993931125,44.0,81.0
1471,239.63667771458336,239.94486714375,56.0,74.0
1472,239.63667771458336,239.94594472916668,60.0,79.0
1473,239.63667771458336,239.94594472916668,63.0,74.0
1474,240.15391871458334,240.37697889583333,60.0,81.0
1475,240.15391871458334,240.3812892375,56.0,70.0
1476,240.15391871458334,240.40176336041668,63.0,73.0
1477,240.41253921458335,241.05046978125,43.0,81.0
1478,241.18840071458334,241.34141784375,50.0,73.0
1479,240.92978021458333,241.50197807083333,55.0,79.0
1480,240.92978021458333,241.564478025,59.0,82.0
1481,240.92978021458333,241.56555561041668,62.0,81.0
1482,241.44702121458334,241.89098640625002,43.0,82.0
1483,241.70564171458335,242.03538285208333,55.0,79.0
1484,241.70564171458335,242.04723629166668,62.0,81.0
1485,241.70564171458335,242.06986558541666,59.0,80.0
1486,242.22288271458333,242.42546877291667,43.0,81.0
1487,242.99874421458335,243.11296826875002,55.0,81.0
1488,242.48150321458334,243.47719213958334,48.0,83.0
1489,243.25736471458333,243.59357136458334,55.0,77.0
1490,242.99874421458335,243.62589892708334,60.0,85.0
1491,242.99874421458335,243.63882995208334,63.0,85.0
1492,243.77460571458334,243.9308556,55.0,81.0
1493,243.77460571458334,243.9308556,60.0,82.0
1494,243.77460571458334,243.943786625,63.0,81.0
1495,243.51598521458334,244.42654489166668,43.0,81.0
1496,244.29184671458333,244.65391541458334,63.0,87.0
1497,244.29184671458333,244.67331195208334,60.0,88.0
1498,244.29184671458333,244.68947573333335,55.0,86.0
1499,245.06770821458335,245.14637195,55.0,80.0
1500,244.55046721458334,245.59033714166668,48.0,90.0
1501,245.32632871458335,245.68085431666668,55.0,79.0
1502,245.06770821458335,245.70671636666668,60.0,82.0
1503,245.06770821458335,245.71533705000002,63.0,83.0
1504,245.58494921458333,246.03753508958334,43.0,81.0
1505,245.84356971458334,246.13128502083333,55.0,82.0
1506,245.84356971458334,246.18085395,60.0,82.0
1507,245.84356971458334,246.20456082916667,63.0,81.0
1508,246.36081071458335,246.5493881625,48.0,92.0
1509,247.13667221458334,247.24874109791668,56.0,83.0
1510,246.61943121458333,247.305853125,44.0,85.0
1511,247.13667221458334,247.68085285,63.0,79.0
1512,247.13667221458334,247.69701663125002,60.0,79.0
1513,247.39529271458335,247.72503385208336,56.0,73.0
1514,247.65391321458335,248.06447325833335,44.0,95.0
1515,247.91253371458333,248.08602496666668,63.0,80.0
1516,247.91253371458333,248.09033530833335,56.0,77.0
1517,247.91253371458333,248.10003357708334,60.0,83.0
1518,248.42977471458335,248.57201598958335,60.0,72.0
1519,248.42977471458335,248.60003321041668,56.0,73.0
1520,248.42977471458335,248.60973147916667,44.0,77.0
1521,248.42977471458335,248.65283489583334,63.0,74.0
1522,249.20563621458334,249.3209378541667,55.0,76.0
1523,248.68839521458335,249.35434300208334,43.0,82.0
1524,249.20563621458334,249.40283434583336,59.0,81.0
1525,249.20563621458334,249.41684295625,62.0,81.0
1526,249.46425671458334,249.61942901458335,50.0,73.0
1527,249.98149771458336,250.24335097083335,62.0,78.0
1528,249.98149771458336,250.25089406875,67.0,77.0
1529,249.98149771458336,250.27675611875,55.0,74.0
1530,249.98149771458336,250.28214404583335,59.0,81.0
1531,250.24011821458333,250.48041976250002,50.0,74.0
1532,249.72287721458335,250.5364542041667,43.0,81.0
1533,250.49873871458334,250.77244541041668,59.0,75.0
1534,250.49873871458334,250.79184194791668,62.0,71.0
1535,250.49873871458334,250.8166264125,55.0,71.0
1536,251.27460021458333,251.41037597708333,55.0,74.0
1537,250.75735921458335,251.75412572500002,48.0,81.0
1538,251.53322071458334,251.86188426666666,55.0,67.0
1539,251.27460021458333,251.88128080416666,60.0,77.0
1540,251.27460021458333,251.90067734166666,63.0,74.0
1541,252.05046171458335,252.17007369583334,60.0,77.0
1542,252.05046171458335,252.17977196458335,63.0,76.0
1543,252.05046171458335,252.18623747708335,55.0,74.0
1544,251.79184121458334,252.67761642708334,43.0,77.0
1545,252.56770271458333,252.94378002500002,63.0,75.0
1546,252.82632321458334,252.94378002500002,63.0,79.0
1547,252.56770271458333,252.98688344166666,55.0,77.0
1548,252.56770271458333,253.00843515,60.0,78.0
1549,252.82632321458334,253.00843515,60.0,75.0
1550,252.82632321458334,253.43192621875002,48.0,84.0
1551,253.34356421458335,253.54183993125,67.0,77.0
1552,253.34356421458335,253.57308990833334,60.0,76.0
1553,253.34356421458335,253.60649505625,63.0,82.0
1554,253.86080521458334,254.35649450625002,48.0,81.0
1555,254.11942571458334,254.41468411875002,60.0,79.0
1556,254.11942571458334,254.42222721666667,63.0,85.0
1557,254.63666671458336,255.07739915000002,63.0,81.0
1558,254.89528721458333,255.53214019583334,44.0,84.0
1559,255.41252821458335,255.63558839583334,56.0,74.0
1560,255.41252821458335,255.66360561666667,60.0,74.0
1561,255.41252821458335,255.6657607875,63.0,75.0
1562,255.67114871458335,255.8026141354167,51.0,39.0
1563,255.92976921458333,256.3511051125,44.0,81.0
1564,256.18838971458337,256.49657914375,56.0,74.0
1565,256.18838971458337,256.4976567291667,60.0,79.0
1566,256.18838971458337,256.4976567291667,63.0,74.0
1567,256.7056307145833,256.92869089583337,60.0,81.0
1568,256.7056307145833,256.93300123750004,56.0,70.0
1569,256.7056307145833,256.9534753604167,63.0,73.0
1570,256.9642512145833,257.60218178125,43.0,81.0
1571,257.74011271458335,257.89312984375,50.0,73.0
1572,257.48149221458334,258.05369007083334,55.0,79.0
1573,257.48149221458334,258.11619002500004,59.0,82.0
1574,257.48149221458334,258.11726761041666,62.0,81.0
1575,257.99873321458335,258.44269840625003,43.0,82.0
1576,258.25735371458336,258.58709485208334,55.0,79.0
1577,258.25735371458336,258.59894829166666,62.0,81.0
1578,258.25735371458336,258.6215775854167,59.0,80.0
1579,258.7745947145833,258.97718077291665,43.0,81.0
1580,259.55045621458333,259.66468026875003,55.0,81.0
1581,259.0332152145833,260.02890413958335,48.0,83.0
1582,259.80907671458334,260.14528336458335,55.0,77.0
1583,259.55045621458333,260.1776109270833,60.0,85.0
1584,259.55045621458333,260.1905419520833,63.0,85.0
1585,260.32631771458335,260.48256760000004,55.0,81.0
1586,260.32631771458335,260.48256760000004,60.0,82.0
1587,260.32631771458335,260.495498625,63.0,81.0
1588,260.06769721458335,260.97825689166666,43.0,81.0
1589,260.84355871458337,261.2056274145833,63.0,87.0
1590,260.84355871458337,261.22502395208335,60.0,88.0
1591,260.84355871458337,261.24118773333333,55.0,86.0
1592,261.61942021458333,261.69808395,55.0,80.0
1593,261.1021792145833,262.1420491416667,48.0,90.0
1594,261.87804071458334,262.2325663166667,55.0,79.0
1595,261.61942021458333,262.2584283666667,60.0,82.0
1596,261.61942021458333,262.26704905,63.0,83.0
1597,262.13666121458334,262.58924708958335,43.0,81.0
1598,262.39528171458335,262.68299702083334,55.0,82.0
1599,262.39528171458335,262.73256595000004,60.0,82.0
1600,262.39528171458335,262.7562728291667,63.0,81.0
1601,262.91252271458336,263.1011001625,48.0,92.0
1602,263.6883842145833,263.80045309791666,56.0,83.0
1603,263.17114321458337,263.857565125,44.0,85.0
1604,263.6883842145833,264.23256485,63.0,79.0
1605,263.6883842145833,264.24872863125,60.0,79.0
1606,263.94700471458333,264.27674585208337,56.0,73.0
1607,264.20562521458334,264.61618525833336,44.0,95.0
1608,264.46424571458334,264.6377369666667,63.0,80.0
1609,264.46424571458334,264.64204730833336,56.0,77.0
1610,264.46424571458334,264.6517455770833,60.0,83.0
1611,264.98148671458335,265.12372798958336,60.0,72.0
1612,264.98148671458335,265.15174521041666,56.0,73.0
1613,264.98148671458335,265.1614434791667,44.0,77.0
1614,264.98148671458335,265.20454689583335,63.0,74.0
1615,265.7573482145833,265.8726498541667,55.0,76.0
1616,265.24010721458336,265.90605500208335,43.0,82.0
1617,265.7573482145833,265.95454634583336,59.0,81.0
1618,265.7573482145833,265.96855495625,62.0,81.0
1619,266.0159687145833,266.1711410145833,50.0,73.0
1620,266.53320971458334,266.7950629708333,62.0,78.0
1621,266.53320971458334,266.80260606875004,67.0,77.0
1622,266.53320971458334,266.82846811875004,55.0,74.0
1623,266.53320971458334,266.83385604583333,59.0,81.0
1624,266.79183021458334,267.0321317625,50.0,74.0
1625,266.27458921458333,267.08816620416667,43.0,81.0
1626,267.05045071458335,267.32415741041666,59.0,75.0
1627,267.05045071458335,267.3435539479167,62.0,71.0
1628,267.05045071458335,267.3683384125,55.0,71.0
1629,267.15174374375,267.3683384125,55.0,67.0
1630,267.22825230833337,269.76596596458336,60.0,66.0
1631,267.3166143125,269.76704355,63.0,61.0
1632,267.24441608958335,269.76812113541666,36.0,65.0
