,start,end,pitch,velocity
0,19.999992,20.376727960416666,59.0,86.0
1,20.4166585,20.78645001875,68.0,88.0
2,20.833325,21.199644297916667,66.0,83.0
3,21.2499915,21.5729080375,64.0,85.0
4,21.666657999999998,21.9687412125,64.0,85.0
5,22.0833245,23.050338002083333,64.0,86.0
6,23.333323999999998,23.682282193749998,59.0,85.0
7,23.7499905,24.09894869375,68.0,86.0
8,24.166656999999997,24.46353188125,66.0,85.0
9,24.5833235,24.88367060208333,64.0,85.0
10,24.99999,25.288184329166665,64.0,86.0
11,25.4166565,26.411447768749998,64.0,86.0
12,26.666656,27.043391960416667,59.0,86.0
13,27.083322499999998,27.45311401875,68.0,88.0
14,27.499989,27.866308297916664,66.0,83.0
15,27.916655499999997,28.239572037499997,64.0,85.0
16,28.333322,28.635405212499997,64.0,85.0
17,28.749988499999997,29.166655,64.0,86.0
18,29.166655,29.446168777083333,66.0,80.0
19,29.583321499999997,29.88019638125,66.0,76.0
20,29.999988,30.369779518749997,66.0,79.0
21,30.4166545,30.793390460416664,64.0,84.0
22,30.833320999999998,31.256931941666664,66.0,79.0
23,31.2499875,31.598945693749997,68.0,79.0
24,31.666653999999998,31.991306647916666,68.0,80.0
25,32.0833205,33.20832005,68.0,83.0
26,33.33332,33.730889285416666,64.0,85.0
27,33.7499865,34.0833197,73.0,86.0
28,34.166653,34.47220843333333,73.0,85.0
29,34.583319499999995,34.9166527,73.0,86.0
30,34.999986,35.30554143333333,73.0,85.0
31,35.4166525,35.746513479166666,73.0,85.0
32,35.833318999999996,36.44442986666667,73.0,87.0
33,36.666652,37.00519353125,73.0,84.0
34,37.0833185,37.437485025,68.0,79.0
35,37.499984999999995,37.82637375833333,71.0,79.0
36,37.9166515,38.22394304375,71.0,82.0
37,38.333318,38.637137322916665,71.0,82.0
38,38.7499845,39.036442718749996,73.0,81.0
39,39.166650999999995,39.78297019791666,71.0,79.0
40,39.999984,40.303803322916664,59.0,79.0
41,40.416650499999996,40.689219835416665,68.0,78.0
42,40.833317,41.43921953541666,69.0,84.0
43,41.66665,41.98435820625,69.0,80.0
44,42.083316499999995,42.37845527083333,68.0,80.0
45,42.499983,42.824635647916665,69.0,82.0
46,42.9166495,43.19963549791667,68.0,79.0
47,43.333315999999996,43.6978991875,66.0,79.0
48,43.749982499999994,44.098940693749995,64.0,82.0
49,44.166649,44.46352388125,64.0,85.0
50,44.5833155,44.90102370625,66.0,73.0
51,44.999981999999996,45.31074576458333,66.0,78.0
52,45.4166485,46.37324533958333,66.0,79.0
53,46.666647999999995,47.04338396041666,59.0,86.0
54,47.0833145,47.45310601875,68.0,88.0
55,47.499981,47.866300297916666,66.0,83.0
56,47.916647499999996,48.239564037499996,64.0,85.0
57,48.333313999999994,48.635397212499996,64.0,85.0
58,48.7499805,49.71699400208333,64.0,86.0
59,49.99998,50.348938193749994,59.0,85.0
60,50.4166465,50.76560469375,68.0,86.0
61,50.833313,51.130187881249995,66.0,85.0
62,51.249979499999995,51.55032660208333,64.0,85.0
63,51.666646,51.954840329166665,64.0,86.0
64,52.0833125,53.07810376875,64.0,86.0
65,53.333312,53.71004796041667,59.0,86.0
66,53.7499785,54.119770018749996,68.0,88.0
67,54.166644999999995,54.532964297916664,66.0,83.0
68,54.5833115,54.9062280375,64.0,85.0
69,54.999978,55.3020612125,64.0,85.0
70,55.4166445,55.833310999999995,64.0,86.0
71,55.833310999999995,56.11282477708333,66.0,80.0
72,56.2499775,56.54685238125,66.0,76.0
73,56.666644,57.03643551875,66.0,79.0
74,57.083310499999996,57.46004646041666,64.0,84.0
75,57.499976999999994,57.92358794166666,66.0,79.0
76,57.9166435,58.26560169375,68.0,79.0
77,58.33331,58.65796264791666,68.0,80.0
78,58.749976499999995,59.874976049999994,68.0,83.0
79,59.999976,60.39754528541666,64.0,85.0
80,60.416642499999995,60.7499757,73.0,86.0
81,60.833309,61.13886443333333,73.0,85.0
82,61.2499755,61.583308699999996,73.0,86.0
83,61.666641999999996,61.97219743333333,73.0,85.0
84,62.083308499999994,62.41316947916666,73.0,85.0
85,62.499975,63.11108586666666,73.0,87.0
86,63.333307999999995,63.67184953125,73.0,84.0
87,63.74997449999999,64.10414102499999,68.0,79.0
88,64.166641,64.49302975833334,71.0,79.0
89,64.5833075,64.89059904375,71.0,82.0
90,64.999974,65.30379332291666,71.0,82.0
91,65.4166405,65.70309871875,73.0,81.0
92,65.83330699999999,66.44962619791666,71.0,79.0
93,66.66664,66.97045932291667,59.0,79.0
94,67.08330649999999,67.35587583541667,68.0,78.0
95,67.499973,68.10587553541666,69.0,84.0
96,68.333306,68.65101420625,69.0,80.0
97,68.7499725,69.04511127083333,68.0,80.0
98,69.16663899999999,69.49129164791667,69.0,82.0
99,69.5833055,69.86629149791666,68.0,79.0
100,69.999972,70.3645551875,66.0,79.0
101,70.41663849999999,70.76559669375,64.0,82.0
102,70.833305,71.13017988125,64.0,85.0
103,71.2499715,74.166637,71.0,73.0
104,74.5833035,74.88017838124999,64.0,85.0
105,74.99996999999999,75.30031710208333,64.0,85.0
106,75.4166365,75.729136375,66.0,85.0
107,75.833303,76.58677492083334,68.0,86.0
108,76.666636,76.979135875,68.0,89.0
109,77.0833025,77.42184403124999,71.0,88.0
110,77.499969,78.02427434583333,73.0,88.0
111,78.12496875,78.28816312916666,75.0,85.0
112,78.33330199999999,78.6353852125,73.0,91.0
113,78.7499685,79.12496834999999,71.0,88.0
114,79.166635,79.79337086041666,68.0,86.0
115,81.2499675,81.54857849166666,64.0,81.0
116,81.666634,81.95830054999999,64.0,83.0
117,82.08330049999999,82.41663369999999,66.0,80.0
118,82.499967,83.26385558333332,68.0,84.0
119,83.3333,83.74823038958333,66.0,85.0
120,83.7499665,84.12496635,64.0,84.0
121,84.16663299999999,84.61975781874999,68.0,82.0
122,84.5832995,84.84545217291667,71.0,84.0
123,84.999966,85.31941031666666,71.0,85.0
124,85.41663249999999,85.77600735624999,73.0,90.0
125,85.833299,86.63364590208333,66.0,80.0
126,87.9166315,88.21524249166666,68.0,88.0
127,88.333298,88.65621453749999,68.0,85.0
128,88.74996449999999,89.06593659583334,70.0,85.0
129,89.166631,89.83156128958333,72.0,84.0
130,89.99996399999999,90.354130525,72.0,88.0
131,90.4166305,90.7603803625,68.0,85.0
132,90.833297,91.22044962291666,75.0,87.0
133,91.24996349999999,91.62149112916666,73.0,90.0
134,91.66663,92.08850483124999,75.0,89.0
135,92.08329649999999,92.53294909791666,76.0,85.0
136,92.499963,92.895796175,75.0,86.0
137,92.9166295,93.47218483333333,73.0,88.0
138,94.58329549999999,94.90100370625,73.0,90.0
139,94.999962,95.24996189999999,73.0,88.0
140,95.4166285,95.73607281666666,71.0,80.0
141,95.83329499999999,96.45829475,71.0,84.0
142,96.45829475,96.61975301874999,68.0,84.0
143,96.66662799999999,97.02600285624999,66.0,78.0
144,97.0832945,97.39058604374999,64.0,83.0
145,97.499961,97.82808586875,66.0,84.0
146,97.91662749999999,98.24301625833333,68.0,82.0
147,98.333294,98.68398830416666,66.0,79.0
148,98.7499605,99.09023814166666,64.0,84.0
149,99.16662699999999,99.47565465416666,66.0,76.0
150,99.5832935,99.895793375,68.0,80.0
151,99.99996,100.33502931041666,66.0,79.0
152,100.41662649999999,100.79683468124999,64.0,81.0
153,101.24995949999999,101.54683438125,64.0,85.0
154,101.666626,101.96697310208333,64.0,85.0
155,102.0832925,102.395792375,66.0,85.0
156,102.49995899999999,103.25343092083332,68.0,86.0
157,103.333292,103.645791875,68.0,89.0
158,103.74995849999999,104.08850003124999,71.0,88.0
159,104.166625,104.69093034583332,73.0,88.0
160,104.79162475,104.95481912916667,75.0,85.0
161,104.99995799999999,105.3020412125,73.0,91.0
162,105.4166245,105.79162434999999,71.0,88.0
163,105.83329099999999,106.46002686041666,68.0,86.0
164,107.9166235,108.21523449166666,64.0,81.0
165,108.33328999999999,108.62495655,64.0,83.0
166,108.7499565,109.0832897,66.0,80.0
167,109.166623,109.93051158333333,68.0,84.0
168,109.999956,110.41488638958333,66.0,85.0
169,110.41662249999999,110.79162235,64.0,84.0
170,110.833289,111.28641381874999,68.0,82.0
171,111.2499555,111.51210817291665,71.0,84.0
172,111.66662199999999,111.98606631666667,71.0,85.0
173,112.0832885,112.44266335625,73.0,90.0
174,112.499955,113.30030190208333,66.0,80.0
175,114.5832875,114.88189849166666,68.0,88.0
176,114.99995399999999,115.3228705375,68.0,85.0
177,115.4166205,115.73259259583332,70.0,85.0
178,115.833287,116.49821728958332,72.0,84.0
179,116.66662,117.02078652499999,72.0,88.0
180,117.0832865,117.42703636249999,68.0,85.0
181,117.49995299999999,117.88710562291666,75.0,87.0
182,117.9166195,118.28814712916666,73.0,90.0
183,118.33328599999999,118.75516083125,75.0,89.0
184,118.74995249999999,119.19960509791666,76.0,85.0
185,119.166619,119.56245217499999,75.0,86.0
186,119.58328549999999,120.13884083333333,73.0,88.0
187,121.2499515,121.56765970625,73.0,90.0
188,121.666618,121.91661789999999,73.0,88.0
189,122.08328449999999,122.40272881666667,71.0,80.0
190,122.499951,123.12495075,71.0,84.0
191,123.12495075,123.28640901874999,68.0,84.0
192,123.33328399999999,123.69265885624999,66.0,78.0
193,123.7499505,124.05724204375,64.0,83.0
194,124.16661699999999,124.49474186875,66.0,84.0
195,124.5832835,124.90967225833333,68.0,82.0
196,124.99995,125.35064430416666,66.0,79.0
197,125.41661649999999,126.2499495,64.0,84.0
198,126.2499495,126.562449375,68.0,80.0
199,126.66661599999999,127.00168531041666,66.0,79.0
200,127.0832825,127.46349068125,64.0,81.0
201,153.333272,153.71000796041665,59.0,86.0
202,153.74993849999998,154.11973001875,68.0,88.0
203,154.166605,154.53292429791665,66.0,83.0
204,154.5832715,154.9061880375,64.0,85.0
205,154.999938,155.3020212125,64.0,85.0
206,155.4166045,156.38361800208332,64.0,86.0
207,156.66660399999998,157.01556219375,59.0,85.0
208,157.0832705,157.43222869375,68.0,86.0
209,157.499937,157.79681188125,66.0,85.0
210,157.91660349999998,158.21695060208333,64.0,85.0
211,158.33327,158.62146432916666,64.0,86.0
212,158.7499365,159.74472776874998,64.0,86.0
213,159.999936,160.37667196041664,59.0,86.0
214,160.41660249999998,160.78639401875,68.0,88.0
215,160.833269,161.19958829791665,66.0,83.0
216,161.2499355,161.57285203749998,64.0,85.0
217,161.66660199999998,161.9686852125,64.0,85.0
218,162.0832685,162.499935,64.0,86.0
219,162.499935,162.77944877708333,66.0,80.0
220,162.91660149999998,163.21347638125,66.0,76.0
221,163.333268,163.70305951875,66.0,79.0
222,163.7499345,164.12667046041665,64.0,84.0
223,164.16660099999999,164.59021194166667,66.0,79.0
224,164.5832675,164.93222569374998,68.0,79.0
225,164.999934,165.32458664791665,68.0,80.0
226,165.4166005,166.54160005,68.0,83.0
227,166.6666,167.06416928541665,64.0,85.0
228,167.08326649999998,167.41659969999998,73.0,86.0
229,167.499933,167.80548843333332,73.0,85.0
230,167.9165995,168.2499327,73.0,86.0
231,168.33326599999998,168.63882143333333,73.0,85.0
232,168.7499325,169.07979347916665,73.0,85.0
233,169.166599,169.77770986666667,73.0,87.0
234,169.999932,170.33847353125,73.0,84.0
235,170.4165985,170.770765025,68.0,79.0
236,170.83326499999998,171.15965375833332,71.0,79.0
237,171.2499315,171.55722304374999,71.0,82.0
238,171.666598,171.97041732291666,71.0,82.0
239,172.08326449999998,172.36972271874998,73.0,81.0
240,172.499931,173.11625019791666,71.0,79.0
241,173.33326399999999,173.63708332291665,59.0,79.0
242,173.7499305,174.02249983541665,68.0,78.0
243,174.166597,174.77249953541667,69.0,84.0
244,174.99992999999998,175.31763820625,69.0,80.0
245,175.4165965,175.71173527083332,68.0,80.0
246,175.833263,176.15791564791667,69.0,82.0
247,176.24992949999998,176.53291549791666,68.0,79.0
248,176.666596,177.0311791875,66.0,79.0
249,177.0832625,177.43222069375,64.0,82.0
250,177.49992899999998,177.79680388124999,64.0,85.0
251,177.9165955,180.833261,71.0,73.0
252,181.24992749999998,181.54680238125,64.0,85.0
253,181.666594,181.96694110208333,64.0,85.0
254,182.0832605,182.39576037499998,66.0,85.0
255,182.49992699999999,183.25339892083332,68.0,86.0
256,183.33326,183.64575987499998,68.0,89.0
257,183.7499265,184.08846803125,71.0,88.0
258,184.16659299999998,184.69089834583332,73.0,88.0
259,184.79159274999998,184.95478712916665,75.0,85.0
260,184.999926,185.3020092125,73.0,91.0
261,185.41659249999998,185.79159235,71.0,88.0
262,185.833259,186.45999486041666,68.0,86.0
263,187.91659149999998,188.21520249166664,64.0,81.0
264,188.333258,188.62492455,64.0,83.0
265,188.7499245,189.0832577,66.0,80.0
266,189.16659099999998,189.93047958333332,68.0,84.0
267,189.999924,190.41485438958333,66.0,85.0
268,190.41659049999998,190.79159034999998,64.0,84.0
269,190.833257,191.28638181875,68.0,82.0
270,191.2499235,191.51207617291666,71.0,84.0
271,191.66658999999999,191.98603431666666,71.0,85.0
272,192.08325649999998,192.44263135625,73.0,90.0
273,192.499923,193.30026990208333,66.0,80.0
274,194.58325549999998,194.88186649166664,68.0,88.0
275,194.999922,195.3228385375,68.0,85.0
276,195.4165885,195.73256059583332,70.0,85.0
277,195.83325499999998,196.49818528958332,72.0,84.0
278,196.666588,197.020754525,72.0,88.0
279,197.08325449999998,197.42700436249999,68.0,85.0
280,197.499921,197.88707362291666,75.0,87.0
281,197.9165875,198.28811512916667,73.0,90.0
282,198.33325399999998,198.75512883124998,75.0,89.0
283,198.7499205,199.19957309791667,76.0,85.0
284,199.166587,199.562420175,75.0,86.0
285,199.58325349999998,200.13880883333331,73.0,88.0
286,201.24991949999998,201.56762770625,73.0,90.0
287,201.666586,201.9165859,73.0,88.0
288,202.0832525,202.40269681666666,71.0,80.0
289,202.49991899999998,203.12491874999998,71.0,84.0
290,203.12491874999998,203.28637701875,68.0,84.0
291,203.333252,203.69262685625,66.0,78.0
292,203.74991849999998,204.05721004375,64.0,83.0
293,204.166585,204.49470986875,66.0,84.0
294,204.5832515,204.90964025833333,68.0,82.0
295,204.99991799999998,205.35061230416665,66.0,79.0
296,205.4165845,205.75686214166666,64.0,84.0
297,205.833251,206.14227865416666,66.0,76.0
298,206.24991749999998,206.562417375,68.0,80.0
299,206.666584,207.00165331041666,66.0,79.0
300,207.0832505,207.46345868125,64.0,81.0
301,207.9165835,208.21345838124998,64.0,85.0
302,208.33325,208.63359710208331,64.0,85.0
303,208.74991649999998,209.062416375,66.0,85.0
304,209.166583,209.9200549208333,68.0,86.0
305,209.99991599999998,210.312415875,68.0,89.0
306,210.41658249999998,210.75512403124998,71.0,88.0
307,210.833249,211.35755434583334,73.0,88.0
308,211.45824875,211.62144312916666,75.0,85.0
309,211.66658199999998,211.96866521249999,73.0,91.0
310,212.0832485,212.45824835,71.0,88.0
311,212.499915,213.12665086041665,68.0,86.0
312,214.5832475,214.88185849166666,64.0,81.0
313,214.999914,215.29158055,64.0,83.0
314,215.41658049999998,215.74991369999998,66.0,80.0
315,215.833247,216.5971355833333,68.0,84.0
316,216.66657999999998,217.08151038958331,66.0,85.0
317,217.0832465,217.45824635,64.0,84.0
318,217.499913,217.95303781874998,68.0,82.0
319,217.91657949999998,218.17873217291665,71.0,84.0
320,218.333246,218.65269031666665,71.0,85.0
321,218.7499125,219.10928735624998,73.0,90.0
322,219.16657899999998,219.96692590208332,66.0,80.0
323,221.2499115,221.54852249166666,68.0,88.0
324,221.666578,221.98949453749998,68.0,85.0
325,222.08324449999998,222.3992165958333,70.0,85.0
326,222.499911,223.1648412895833,72.0,84.0
327,223.33324399999998,223.687410525,72.0,88.0
328,223.7499105,224.09366036249997,68.0,85.0
329,224.166577,224.55372962291665,75.0,87.0
330,224.58324349999998,224.95477112916666,73.0,90.0
331,224.99991,225.42178483125,75.0,89.0
332,225.4165765,225.86622909791666,76.0,85.0
333,225.83324299999998,226.229076175,75.0,86.0
334,226.2499095,226.80546483333333,73.0,88.0
335,227.9165755,228.23428370624998,73.0,90.0
336,228.33324199999998,228.5832419,73.0,88.0
337,228.74990849999998,229.06935281666665,71.0,80.0
338,229.166575,229.79157475,71.0,84.0
339,229.79157475,229.95303301874998,68.0,84.0
340,229.99990799999998,230.35928285625,66.0,78.0
341,230.4165745,230.72386604374998,64.0,83.0
342,230.833241,231.16136586874998,66.0,84.0
343,231.24990749999998,231.57629625833331,68.0,82.0
344,231.666574,232.01726830416666,66.0,79.0
345,232.0832405,232.9165735,64.0,84.0
346,232.9165735,233.22907337499998,68.0,80.0
347,233.33324,233.66830931041665,66.0,79.0
348,233.74990649999998,234.13011468124998,64.0,81.0
349,234.5832395,234.88011438125,65.0,85.0
350,234.99990599999998,235.30025310208333,65.0,85.0
351,235.4165725,235.729072375,67.0,85.0
352,235.833239,236.58671092083333,69.0,86.0
353,236.66657199999997,236.979071875,69.0,89.0
354,237.0832385,237.42178003125,72.0,88.0
355,237.49990499999998,238.02421034583332,74.0,88.0
356,238.12490474999998,238.28809912916665,76.0,85.0
357,238.333238,238.63532121249997,74.0,91.0
358,238.74990449999999,239.12490434999998,72.0,88.0
359,239.16657099999998,239.79330686041666,69.0,86.0
360,241.2499035,241.54851449166665,65.0,81.0
361,241.66656999999998,241.95823654999998,65.0,83.0
362,242.0832365,242.4165697,67.0,80.0
363,242.499903,243.26379158333333,69.0,84.0
364,243.333236,243.74816638958333,67.0,85.0
365,243.7499025,244.12490234999999,65.0,84.0
366,244.16656899999998,244.61969381875,69.0,82.0
367,244.5832355,244.84538817291664,72.0,84.0
368,244.999902,245.31934631666667,72.0,85.0
369,245.41656849999998,245.77594335625,74.0,90.0
370,245.83323499999997,246.6335819020833,67.0,80.0
371,247.91656749999999,248.21517849166665,69.0,88.0
372,248.33323399999998,248.6561505375,69.0,85.0
373,248.7499005,249.06587259583333,71.0,85.0
374,249.166567,249.83149728958333,73.0,84.0
375,249.9999,250.35406652499998,73.0,88.0
376,250.4165665,250.7603163625,69.0,85.0
377,250.83323299999998,251.22038562291667,76.0,87.0
378,251.2498995,251.62142712916665,74.0,90.0
379,251.666566,252.08844083124998,76.0,89.0
380,252.08323249999998,252.53288509791665,77.0,85.0
381,252.499899,252.89573217499998,76.0,86.0
382,252.9165655,253.47212083333332,74.0,88.0
383,254.58323149999998,254.90093970625,74.0,90.0
384,254.99989799999997,255.24989789999998,74.0,88.0
385,255.4165645,255.73600881666664,72.0,80.0
386,255.83323099999998,256.45823075,72.0,84.0
387,256.45823075,256.61968901874997,69.0,84.0
388,256.666564,257.02593885625,67.0,78.0
389,257.0832305,257.39052204374997,65.0,83.0
390,257.499897,257.82802186875,67.0,84.0
391,257.9165635,258.24295225833333,69.0,82.0
392,258.33323,258.6839243041667,67.0,79.0
393,258.7498965,259.09017414166664,65.0,84.0
394,259.166563,259.47559065416664,67.0,76.0
395,259.58322949999996,259.895729375,69.0,80.0
396,259.999896,260.33496531041664,67.0,79.0
397,260.4165625,260.79677068125,65.0,81.0
398,261.2498955,261.54677038125,65.0,85.0
399,261.666562,261.9669091020833,65.0,85.0
400,262.08322849999996,262.395728375,67.0,85.0
401,262.499895,263.25336692083334,69.0,86.0
402,263.33322799999996,263.645727875,69.0,89.0
403,263.7498945,264.08843603125,72.0,88.0
404,264.166561,264.69086634583334,74.0,88.0
405,264.79156075,264.95475512916664,76.0,85.0
406,264.999894,265.3019772125,74.0,91.0
407,265.4165605,265.79156035,72.0,88.0
408,265.83322699999997,266.4599628604166,69.0,86.0
409,267.9165595,268.21517049166664,65.0,81.0
410,268.33322599999997,268.62489254999997,65.0,83.0
411,268.7498925,269.0832257,67.0,80.0
412,269.166559,269.9304475833333,69.0,84.0
413,269.999892,270.4148223895833,67.0,85.0
414,270.4165585,270.79155835,65.0,84.0
415,270.83322499999997,271.28634981875,69.0,82.0
416,271.2498915,271.51204417291666,72.0,84.0
417,271.666558,271.98600231666666,72.0,85.0
418,272.0832245,272.44259935625,74.0,90.0
419,272.499891,273.3002379020833,67.0,80.0
420,274.5832235,274.88183449166667,69.0,88.0
421,274.99989,275.32280653749996,69.0,85.0
422,275.4165565,275.73252859583334,71.0,85.0
423,275.833223,276.49815328958334,73.0,84.0
424,276.66655599999996,277.020722525,73.0,88.0
425,277.0832225,277.4269723625,69.0,85.0
426,277.499889,277.8870416229166,76.0,87.0
427,277.91655549999996,278.28808312916664,74.0,90.0
428,278.333222,278.75509683125,76.0,89.0
429,278.7498885,279.19954109791666,77.0,85.0
430,279.16655499999996,279.56238817499997,76.0,86.0
431,279.5832215,280.13877683333334,74.0,88.0
432,281.2498875,281.56759570624996,74.0,90.0
433,281.66655399999996,281.9165539,74.0,88.0
434,282.0832205,282.40266481666663,72.0,80.0
435,282.499887,283.12488675,72.0,84.0
436,283.12488675,283.28634501875,69.0,84.0
437,283.33322,283.69259485624997,67.0,78.0
438,283.7498865,284.05717804374996,65.0,83.0
439,284.16655299999996,284.49467786875,67.0,84.0
440,284.5832195,284.9096082583333,69.0,82.0
441,284.999886,285.35058030416667,67.0,79.0
442,285.41655249999997,286.2498855,65.0,84.0
443,286.2498855,286.56238537499996,69.0,80.0
444,286.66655199999997,287.0016213104166,67.0,79.0
445,287.0832185,287.46342668125,65.0,81.0
