,start,end,pitch,velocity
0,0.833333,1.1579856479166666,59.0,76.0
1,0.833333,1.3767355604166667,64.0,75.0
2,1.666666,2.1562491374999997,64.0,81.0
3,2.0833325,2.3611101666666667,59.0,77.0
4,1.666666,2.430554583333333,68.0,78.0
5,0.833333,2.4670129020833333,52.0,79.0
6,2.499999,2.6979155875,59.0,72.0
7,2.499999,2.9809015854166665,63.0,79.0
8,2.9166654999999997,3.388887533333333,59.0,76.0
9,2.499999,3.461804170833333,51.0,79.0
10,3.333332,3.576387458333333,63.0,80.0
11,3.333332,3.690970745833333,66.0,73.0
12,4.166665,4.352428814583333,61.0,73.0
13,4.166665,4.732636995833333,64.0,78.0
14,4.5833315,5.055553533333333,61.0,73.0
15,4.166665,5.102428514583333,49.0,80.0
16,4.999998,5.279511777083333,68.0,78.0
17,4.999998,5.282983997916666,64.0,78.0
18,5.833330999999999,6.673608441666667,59.0,73.0
19,5.833330999999999,6.687497325,63.0,79.0
20,5.833330999999999,6.741316747916667,47.0,85.0
21,6.2499975,6.756941741666666,54.0,74.0
22,6.666664,7.095483272916666,66.0,84.0
23,7.0833305,7.439233135416666,59.0,80.0
24,7.499997,8.357635545833332,64.0,64.0
25,7.499997,8.8437464625,45.0,78.0
26,7.916663499999999,8.855899235416667,52.0,72.0
27,8.33333,8.904510327083333,57.0,75.0
28,8.7499965,9.145829675,64.0,84.0
29,9.166663,9.3645795875,54.0,77.0
30,9.5833295,9.826384958333334,54.0,76.0
31,9.166663,9.876732160416665,63.0,84.0
32,9.999996,10.1354126125,54.0,79.0
33,9.166663,10.159718158333332,47.0,79.0
34,9.999996,10.449648597916665,59.0,81.0
35,10.4166625,10.538190229166666,54.0,85.0
36,10.833328999999999,11.31770380625,59.0,77.0
37,10.833328999999999,11.6770786625,56.0,76.0
38,11.666661999999999,11.824648047916666,59.0,82.0
39,11.666661999999999,11.934023004166667,64.0,78.0
40,11.249995499999999,12.107634045833333,47.0,71.0
41,10.833328999999999,12.239578437499999,40.0,82.0
42,12.083328499999999,12.56770330625,56.0,72.0
43,12.499995,13.022564235416667,59.0,79.0
44,12.9166615,13.352425214583333,56.0,73.0
45,13.333328,13.862841677083333,59.0,80.0
46,13.333328,13.895827774999999,64.0,80.0
47,13.7499945,13.94270275625,56.0,67.0
48,14.166661,14.612841377083333,64.0,79.0
49,14.5833275,15.045132870833333,52.0,85.0
50,14.166661,15.204855029166666,45.0,77.0
51,14.999994,15.381938291666666,57.0,78.0
52,14.999994,15.5520771125,61.0,83.0
53,15.416660499999999,15.585063210416665,52.0,74.0
54,15.833326999999999,16.282979597916665,59.0,78.0
55,16.2499935,16.685757214583333,54.0,83.0
56,15.833326999999999,16.925340452083333,47.0,84.0
57,16.66666,17.053812622916666,63.0,85.0
58,16.66666,17.11978481875,59.0,83.0
59,17.0833265,17.2187431125,54.0,84.0
60,17.499993,18.12499275,59.0,82.0
61,17.916659499999998,18.460062060416664,51.0,76.0
62,17.499993,18.543395360416664,44.0,84.0
63,18.333326,18.56770090625,54.0,82.0
64,18.749992499999998,19.0104090625,54.0,84.0
65,18.333326,19.173603441666664,59.0,81.0
66,19.166659,19.689228235416664,61.0,79.0
67,19.583325499999997,20.059019754166666,44.0,67.0
68,19.166659,20.105894735416665,37.0,85.0
69,19.999992,20.14929749583333,56.0,77.0
70,19.999992,20.196172477083334,61.0,76.0
71,19.999992,20.22742246458333,64.0,79.0
72,20.833325,21.317699806249998,56.0,73.0
73,21.666657999999998,21.741310747916664,56.0,74.0
74,20.833325,21.767352404166665,52.0,75.0
75,21.666657999999998,22.147560585416667,59.0,83.0
76,21.2499915,22.326379958333334,47.0,70.0
77,20.833325,22.35242161458333,40.0,84.0
78,22.0833245,22.913185279166665,52.0,80.0
79,22.499990999999998,22.925338052083333,56.0,75.0
80,23.333323999999998,23.486101716666667,52.0,79.0
81,22.9166575,23.494782268749997,47.0,71.0
82,22.499990999999998,23.559018354166664,40.0,79.0
83,23.333323999999998,23.560754464583333,56.0,79.0
84,23.333323999999998,23.824643247916665,59.0,80.0
85,23.7499905,23.91144876875,52.0,86.0
86,24.166656999999997,24.762142872916666,58.0,77.0
87,24.166656999999997,25.065962195833333,54.0,74.0
88,24.99999,25.899295195833332,61.0,84.0
89,25.4166565,25.90971185833333,54.0,83.0
90,25.833323,26.07811456875,66.0,84.0
91,26.249989499999998,26.46700330208333,54.0,85.0
92,24.166656999999997,26.50519773125,42.0,85.0
93,24.5833235,26.512142172916665,49.0,71.0
94,26.666656,26.831586489583334,54.0,80.0
95,26.666656,26.979155875,42.0,83.0
96,26.666656,27.059016954166665,58.0,76.0
97,26.666656,27.145822475,61.0,76.0
98,27.083322499999998,27.25519743125,54.0,84.0
99,27.499989,27.687488925,52.0,79.0
100,27.499989,27.97221103333333,57.0,75.0
101,27.916655499999997,28.1666554,52.0,76.0
102,27.499989,28.47741916458333,45.0,84.0
103,28.333322,28.786446818749997,57.0,87.0
104,28.333322,28.87325233958333,61.0,85.0
105,28.749988499999997,28.92186343125,52.0,84.0
106,29.166655,29.368043808333333,54.0,77.0
107,29.166655,29.71179367083333,59.0,78.0
108,29.583321499999997,29.803807522916664,54.0,76.0
109,29.166655,30.131932391666666,47.0,81.0
110,29.999988,30.131932391666666,54.0,84.0
111,29.999988,30.39061284375,63.0,84.0
112,29.999988,30.46179337083333,59.0,86.0
113,30.4166545,30.58852943125,54.0,74.0
114,30.833320999999998,31.383668002083333,59.0,80.0
115,30.833320999999998,31.539917939583333,56.0,76.0
116,31.666653999999998,31.871515029166666,59.0,81.0
117,31.666653999999998,31.911445568749997,64.0,80.0
118,31.2499875,32.121514929166665,47.0,73.0
119,30.833320999999998,32.184014904166666,40.0,84.0
120,32.0833205,32.553806422916665,56.0,77.0
121,32.499987,33.01387568333333,64.0,85.0
122,32.916653499999995,33.229153374999996,56.0,84.0
123,33.33332,33.501722710416665,56.0,82.0
124,33.33332,33.767347604166666,59.0,84.0
125,33.33332,33.79338926041667,64.0,85.0
126,33.7499865,33.871514229166664,56.0,85.0
127,34.166653,34.682277793749996,57.0,86.0
128,34.583319499999995,35.012138772916664,52.0,85.0
129,34.166653,35.17880537291666,45.0,95.0
130,34.999986,35.4270691625,61.0,86.0
131,35.4166525,35.916652299999996,52.0,87.0
132,35.833318999999996,36.30380492291666,57.0,84.0
133,35.833318999999996,36.4062354375,45.0,74.0
134,36.2499855,36.46005486041666,52.0,84.0
135,36.666652,36.788179729166664,52.0,83.0
136,36.666652,37.17880457291666,57.0,84.0
137,37.0833185,37.23436010625,52.0,79.0
138,36.666652,37.395818375,61.0,83.0
139,37.499984999999995,37.90449872708333,59.0,85.0
140,38.333318,38.45831795,56.0,73.0
141,37.9166515,38.923595541666664,51.0,83.0
142,37.499984999999995,38.96526219166667,44.0,85.0
143,38.333318,38.99130384791666,63.0,85.0
144,38.7499845,39.029498277083334,56.0,85.0
145,39.166650999999995,39.72567855416666,63.0,84.0
146,39.166650999999995,39.76387298333333,56.0,77.0
147,39.999984,40.1354006125,56.0,85.0
148,39.5833175,40.18574781458333,51.0,77.0
149,39.166650999999995,40.213525581249996,44.0,85.0
150,39.999984,40.376719960416665,59.0,88.0
151,40.416650499999996,40.55380322291666,56.0,79.0
152,40.833317,41.38366400208333,61.0,80.0
153,40.833317,41.51213617291666,54.0,79.0
154,41.66665,42.07810816875,57.0,89.0
155,41.2499835,42.196163677083334,49.0,73.0
156,40.833317,42.232621995833334,42.0,84.0
157,42.083316499999995,42.76908011458333,54.0,86.0
158,42.499983,42.95137170833333,57.0,72.0
159,42.499983,43.01213557291666,61.0,80.0
160,42.9166495,43.51734370416666,49.0,70.0
161,43.333315999999996,43.79338526041666,57.0,86.0
162,43.333315999999996,43.852413014583334,61.0,85.0
163,42.499983,43.85762134583333,42.0,85.0
164,43.749982499999994,44.0103990625,49.0,84.0
165,44.166649,44.34546837291666,54.0,79.0
166,44.166649,44.64234325416666,59.0,83.0
167,44.5833155,45.062481975,54.0,85.0
168,44.166649,45.3853985125,47.0,85.0
169,44.999981999999996,45.395815174999996,61.0,86.0
170,45.4166485,45.67359284166666,54.0,91.0
171,45.833315,46.00171771041666,54.0,82.0
172,45.833315,46.32463424791666,63.0,85.0
173,45.833315,46.33505091041666,59.0,84.0
174,46.2499815,46.55380082291666,54.0,84.0
175,46.666647999999995,47.052064512499996,59.0,91.0
176,47.0833145,47.30727274375,54.0,87.0
177,45.833315,47.35935605625,47.0,89.0
178,47.291647749999996,47.470467122916666,56.0,83.0
179,47.499981,47.98435580625,56.0,73.0
180,48.333313999999994,48.40796674791667,56.0,74.0
181,47.499981,48.43400840416666,52.0,75.0
182,48.333313999999994,48.814216585416666,59.0,83.0
183,47.916647499999996,48.99303595833333,47.0,70.0
184,47.499981,49.01907761458333,40.0,84.0
185,48.7499805,49.579841279166665,52.0,80.0
186,49.166647,49.59199405208333,56.0,75.0
187,49.99998,50.15275771666666,52.0,79.0
188,49.583313499999996,50.16143826875,47.0,71.0
189,49.166647,50.225674354166664,40.0,79.0
190,49.99998,50.22741046458333,56.0,79.0
191,49.99998,50.491299247916665,59.0,80.0
192,50.4166465,50.578104768749995,52.0,86.0
193,50.833313,51.428798872916666,58.0,77.0
194,50.833313,51.73261819583333,54.0,74.0
195,51.666646,52.56595119583333,61.0,84.0
196,52.0833125,52.57636785833333,54.0,83.0
197,52.499978999999996,52.74477056875,66.0,84.0
198,52.916645499999994,53.13365930208333,54.0,85.0
199,50.833313,53.171853731249996,42.0,85.0
200,51.249979499999995,53.178798172916665,49.0,71.0
201,53.333312,53.49824248958333,54.0,80.0
202,53.333312,53.645811875,42.0,83.0
203,53.333312,53.72567295416666,58.0,76.0
204,53.333312,53.812478475,61.0,76.0
205,53.7499785,53.92185343125,54.0,84.0
206,54.166644999999995,54.354144925,52.0,79.0
207,54.166644999999995,54.638867033333334,57.0,75.0
208,54.5833115,54.8333114,52.0,76.0
209,54.166644999999995,55.14407516458333,45.0,84.0
210,54.999978,55.45310281875,57.0,87.0
211,54.999978,55.53990833958333,61.0,85.0
212,55.4166445,55.58851943125,52.0,84.0
213,55.833310999999995,56.03469980833333,54.0,77.0
214,55.833310999999995,56.378449670833334,59.0,78.0
215,56.2499775,56.47046352291667,54.0,76.0
216,55.833310999999995,56.79858839166666,47.0,81.0
217,56.666644,56.79858839166666,54.0,84.0
218,56.666644,57.057268843749995,63.0,84.0
219,56.666644,57.12844937083333,59.0,86.0
220,57.083310499999996,57.25518543125,54.0,74.0
221,57.499976999999994,58.05032400208333,59.0,80.0
222,57.499976999999994,58.20657393958333,56.0,76.0
223,58.33331,58.53817102916666,59.0,81.0
224,58.33331,58.57810156875,64.0,80.0
225,57.9166435,58.78817092916666,47.0,73.0
226,57.499976999999994,58.85067090416666,40.0,84.0
227,58.749976499999995,59.22046242291666,56.0,77.0
228,59.16664299999999,59.68053168333333,64.0,85.0
229,59.5833095,59.895809375,56.0,84.0
230,59.999976,60.16837871041666,56.0,82.0
231,59.999976,60.43400360416666,59.0,84.0
232,59.999976,60.46004526041666,64.0,85.0
233,60.416642499999995,60.53817022916666,56.0,85.0
234,60.833309,61.34893379375,57.0,86.0
235,61.2499755,61.67879477291666,52.0,85.0
236,60.833309,61.84546137291667,45.0,95.0
237,61.666641999999996,62.0937251625,61.0,86.0
238,62.083308499999994,62.5833083,52.0,87.0
239,62.499975,62.970460922916665,57.0,84.0
240,62.499975,63.0728914375,45.0,74.0
241,62.9166415,63.126710860416665,52.0,84.0
242,63.333307999999995,63.45483572916666,52.0,83.0
243,63.333307999999995,63.845460572916664,57.0,84.0
244,63.74997449999999,63.90101610625,52.0,79.0
245,63.333307999999995,64.062474375,61.0,83.0
246,64.166641,64.57115472708333,59.0,85.0
247,64.999974,65.12497395,56.0,73.0
248,64.5833075,65.59025154166666,51.0,83.0
249,64.166641,65.63191819166666,44.0,85.0
250,64.999974,65.65795984791666,63.0,85.0
251,65.4166405,65.69615427708332,56.0,85.0
252,65.83330699999999,66.39233455416667,63.0,84.0
253,65.83330699999999,66.43052898333333,56.0,77.0
254,66.66664,66.8020566125,56.0,85.0
255,66.2499735,66.85240381458333,51.0,77.0
256,65.83330699999999,66.88018158125,44.0,85.0
257,66.66664,67.04337596041667,59.0,88.0
258,67.08330649999999,67.22045922291666,56.0,79.0
259,67.499973,68.05032000208332,61.0,80.0
260,67.499973,68.17879217291666,54.0,79.0
261,68.333306,68.74476416875,57.0,89.0
262,67.9166395,68.86281967708332,49.0,73.0
263,67.499973,68.89927799583333,42.0,84.0
264,68.7499725,69.43573611458334,54.0,86.0
265,69.16663899999999,69.61802770833333,57.0,72.0
266,69.16663899999999,69.67879157291667,61.0,80.0
267,69.5833055,70.18399970416667,49.0,70.0
268,69.999972,70.46004126041666,57.0,86.0
269,69.999972,70.51906901458332,61.0,85.0
270,69.16663899999999,70.52427734583333,42.0,85.0
271,70.41663849999999,70.6770550625,49.0,84.0
272,70.833305,71.01212437291666,54.0,79.0
273,70.833305,71.30899925416666,59.0,83.0
274,71.2499715,71.729137975,54.0,85.0
275,70.833305,72.05205451249999,47.0,85.0
276,71.66663799999999,72.062471175,61.0,86.0
277,72.0833045,72.34024884166666,54.0,91.0
278,72.499971,72.66837371041666,54.0,82.0
279,72.499971,72.99129024791667,63.0,85.0
280,72.499971,73.00170691041666,59.0,84.0
281,72.9166375,73.22045682291666,54.0,84.0
282,73.333304,73.7187205125,59.0,91.0
283,73.74997049999999,73.97392874375,54.0,87.0
284,72.499971,74.02601205625,47.0,89.0
285,73.95830375,74.13712312291666,56.0,83.0
286,74.5833035,75.14059494375,47.0,84.0
287,74.99996999999999,75.24302545833334,52.0,82.0
288,74.166637,75.29337266041667,40.0,88.0
289,74.99996999999999,75.395803175,56.0,86.0
290,75.4166365,75.57462254791666,47.0,87.0
291,74.99996999999999,75.63017808125,59.0,85.0
292,75.62496974999999,75.77948357708333,52.0,85.0
293,76.24996949999999,76.85587203541667,51.0,84.0
294,75.833303,76.86628869791666,44.0,86.0
295,76.666636,76.89233035416666,56.0,84.0
296,76.666636,77.104135825,59.0,88.0
297,77.0833025,77.43920513541666,44.0,84.0
298,77.0833025,77.56073286458333,56.0,85.0
299,77.499969,78.0103854625,64.0,85.0
300,77.9166355,78.15274651666667,56.0,82.0
301,77.499969,78.47739916458333,49.0,78.0
302,78.33330199999999,78.78642681875,61.0,84.0
303,78.33330199999999,78.81420458541666,56.0,85.0
304,78.7499685,78.98607951666666,49.0,81.0
305,78.7499685,78.99476006875,59.0,87.0
306,78.95830174999999,79.12323223958333,61.0,84.0
307,79.166635,79.645801475,56.0,78.0
308,79.166635,79.67878757291666,59.0,85.0
309,79.999968,80.13017628125,56.0,84.0
310,79.58330149999999,80.14059294375,51.0,84.0
311,79.166635,80.20135680833333,44.0,80.0
312,79.999968,80.2499679,59.0,89.0
313,79.999968,80.46524559166666,63.0,87.0
314,80.4166345,80.52774556666667,56.0,75.0
315,80.83330099999999,81.27253693541667,61.0,83.0
316,80.83330099999999,81.29337026041667,57.0,84.0
317,81.2499675,81.48087018541666,52.0,84.0
318,80.83330099999999,81.78295339791666,45.0,89.0
319,81.666634,81.92878667291666,52.0,87.0
320,81.87496725,81.96350888125,45.0,81.0
321,81.666634,81.979133875,57.0,89.0
322,82.08330049999999,82.30899485416666,56.0,90.0
323,82.29163375,82.42878647291666,57.0,88.0
324,82.499967,82.95135570833332,56.0,83.0
325,82.499967,82.96871681249999,52.0,78.0
326,82.91663349999999,83.48607771666666,47.0,79.0
327,82.499967,83.52427214583332,40.0,85.0
328,83.3333,83.62149432916667,52.0,86.0
329,83.3333,83.74302205833332,59.0,86.0
330,83.7499665,84.0312163875,40.0,86.0
331,84.16663299999999,84.354132925,52.0,80.0
332,84.16663299999999,84.65968835833333,57.0,84.0
333,84.5832995,84.81941051666666,52.0,84.0
334,84.16663299999999,85.0728826375,45.0,89.0
335,84.999966,85.41316027916666,57.0,85.0
336,85.41663249999999,85.52253523541667,45.0,100.0
337,84.999966,85.52427134583333,61.0,84.0
338,85.833299,86.0103822625,54.0,84.0
339,85.833299,86.32635435833333,59.0,84.0
340,86.2499655,86.562465375,54.0,80.0
341,86.45829875,86.62496535,59.0,85.0
342,86.66663199999999,86.895798575,61.0,82.0
343,85.833299,87.12496515,47.0,91.0
344,86.87496525,87.14059014374999,59.0,98.0
345,87.0832985,87.32809006875,54.0,91.0
346,87.49996499999999,88.05204811249999,59.0,84.0
347,87.49996499999999,88.09197865208333,56.0,80.0
348,87.9166315,88.42531185208333,51.0,85.0
349,88.333298,88.56246457499999,56.0,84.0
350,87.49996499999999,88.61281177708332,44.0,84.0
351,88.333298,88.62496455,59.0,91.0
352,88.333298,88.65621453749999,63.0,90.0
353,88.54163125,88.75690894166667,51.0,84.0
354,88.74996449999999,88.96871441249999,56.0,87.0
355,89.166631,89.24475596875,56.0,78.0
356,89.166631,89.79336686041667,54.0,80.0
357,89.166631,89.84024184166667,60.0,84.0
358,89.5832975,90.04857509166666,51.0,86.0
359,89.166631,90.12496395,44.0,87.0
360,89.99996399999999,90.41315827916667,54.0,95.0
361,89.99996399999999,90.42878327291666,60.0,90.0
362,90.4166305,90.71871371249999,51.0,88.0
363,90.833297,91.05725524374999,56.0,84.0
364,90.833297,91.36975511874999,64.0,84.0
365,91.24996349999999,91.46003286041666,56.0,81.0
366,90.833297,91.83503271041666,49.0,85.0
367,91.66663,91.92183823124999,56.0,87.0
368,91.66663,92.00864375208333,64.0,85.0
369,92.08329649999999,92.32114362708333,63.0,91.0
370,92.29162975,92.52774076666667,64.0,88.0
371,92.499963,92.76211567291666,56.0,75.0
372,92.9166295,93.15274051666667,56.0,72.0
373,92.499963,93.24301825833332,63.0,93.0
374,92.499963,93.52600425624999,49.0,85.0
375,93.33329599999999,93.687462525,56.0,85.0
376,93.33329599999999,93.70135140833332,61.0,85.0
377,93.7499625,93.83850413124999,59.0,85.0
378,94.166629,94.39058724374999,52.0,80.0
379,94.166629,94.65273991666666,61.0,82.0
380,94.58329549999999,94.81593429583333,52.0,86.0
381,94.999962,95.14232305416667,52.0,86.0
382,94.166629,95.24128134791667,45.0,90.0
383,94.999962,95.4062118375,57.0,89.0
384,94.999962,95.50690624166666,61.0,85.0
385,95.4166285,95.70482282916666,52.0,91.0
386,95.83329499999999,96.229128175,56.0,80.0
387,95.83329499999999,96.58676692083333,52.0,84.0
388,96.2499615,96.77426684583332,47.0,76.0
389,95.83329499999999,96.92183623125,40.0,86.0
390,96.66662799999999,97.10586393541666,56.0,88.0
391,96.66662799999999,97.25516943125,59.0,87.0
392,96.66662799999999,97.29683608124999,64.0,82.0
393,97.0832945,97.31940551666666,40.0,85.0
394,97.29162774999999,97.42878047291666,52.0,89.0
395,97.499961,97.97739136458333,57.0,86.0
396,97.91662749999999,98.27947457708333,52.0,85.0
397,97.499961,98.49648837916666,45.0,83.0
398,98.333294,98.78641881875,57.0,86.0
399,98.333294,98.80204381249999,61.0,85.0
400,98.7499605,98.88364100208332,52.0,87.0
401,99.16662699999999,99.27773806666666,54.0,85.0
402,99.16662699999999,99.42357134166666,59.0,84.0
403,99.37496025,99.66662679999999,54.0,85.0
404,99.5832935,99.79683508125,59.0,84.0
405,99.79162674999999,100.02600165624999,61.0,86.0
406,99.16662699999999,100.16315437916666,47.0,86.0
407,99.99996,100.23259879583333,59.0,95.0
408,100.20829325,100.44961259791665,54.0,100.0
409,100.41662649999999,100.77426524583333,47.0,93.0
410,100.62495974999999,100.81593189583333,54.0,93.0
411,101.24995949999999,101.80725094374999,47.0,84.0
412,101.666626,101.90968145833332,52.0,82.0
413,100.833293,101.96002866041667,40.0,88.0
414,101.666626,102.062459175,56.0,86.0
415,102.0832925,102.24127854791666,47.0,87.0
416,101.666626,102.29683408125,59.0,85.0
417,102.29162575,102.44613957708333,52.0,85.0
418,102.9166255,103.52252803541666,51.0,84.0
419,102.49995899999999,103.53294469791666,44.0,86.0
420,103.333292,103.55898635416666,56.0,84.0
421,103.333292,103.77079182499999,59.0,88.0
422,103.74995849999999,104.10586113541666,44.0,84.0
423,103.74995849999999,104.22738886458333,56.0,85.0
424,104.166625,104.6770414625,64.0,85.0
425,104.5832915,104.81940251666666,56.0,82.0
426,104.166625,105.14405516458332,49.0,78.0
427,104.99995799999999,105.45308281874999,61.0,84.0
428,104.99995799999999,105.48086058541666,56.0,85.0
429,105.4166245,105.65273551666667,49.0,81.0
430,105.4166245,105.66141606875,59.0,87.0
431,105.62495775,105.78988823958333,61.0,84.0
432,105.83329099999999,106.31245747499999,56.0,78.0
433,105.83329099999999,106.34544357291666,59.0,85.0
434,106.666624,106.79683228124999,56.0,84.0
435,106.2499575,106.80724894375,51.0,84.0
436,105.83329099999999,106.86801280833333,44.0,80.0
437,106.666624,106.91662389999999,59.0,89.0
438,106.666624,107.13190159166666,63.0,87.0
439,107.08329049999999,107.19440156666666,56.0,75.0
440,107.499957,107.93919293541666,61.0,83.0
441,107.499957,107.96002626041665,57.0,84.0
442,107.9166235,108.14752618541667,52.0,84.0
443,107.499957,108.44960939791666,45.0,89.0
444,108.33328999999999,108.59544267291666,52.0,87.0
445,108.54162325,108.63016488125,45.0,81.0
446,108.33328999999999,108.64578987499999,57.0,89.0
447,108.7499565,108.97565085416666,56.0,90.0
448,108.95828974999999,109.09544247291666,57.0,88.0
449,109.166623,109.61801170833333,56.0,83.0
450,109.166623,109.6353728125,52.0,78.0
451,109.58328949999999,110.15273371666666,47.0,79.0
452,109.166623,110.19092814583333,40.0,85.0
453,109.999956,110.28815032916665,52.0,86.0
454,109.999956,110.40967805833333,59.0,86.0
455,110.41662249999999,110.6978723875,40.0,86.0
456,110.833289,111.02078892499999,52.0,80.0
457,110.833289,111.32634435833333,57.0,84.0
458,111.2499555,111.48606651666667,52.0,84.0
459,110.833289,111.73953863749999,45.0,89.0
460,111.66662199999999,112.07981627916666,57.0,85.0
461,112.0832885,112.18919123541666,45.0,100.0
462,111.66662199999999,112.19092734583333,61.0,84.0
463,112.499955,112.67703826249999,54.0,84.0
464,112.499955,112.99301035833332,59.0,84.0
465,112.91662149999999,113.22912137499999,54.0,80.0
466,113.12495475,113.29162135,59.0,85.0
467,113.333288,113.56245457499999,61.0,82.0
468,112.499955,113.79162115,47.0,91.0
469,113.54162124999999,113.80724614374999,59.0,98.0
470,113.74995449999999,113.99474606874999,54.0,91.0
471,114.16662099999999,114.71870411249999,59.0,84.0
472,114.16662099999999,114.75863465208333,56.0,80.0
473,114.5832875,115.09196785208333,51.0,85.0
474,114.99995399999999,115.229120575,56.0,84.0
475,114.16662099999999,115.27946777708333,44.0,84.0
476,114.99995399999999,115.29162054999999,59.0,91.0
477,114.99995399999999,115.3228705375,63.0,90.0
478,115.20828725,115.42356494166665,51.0,84.0
479,115.4166205,115.6353704125,56.0,87.0
480,115.833287,115.91141196874999,56.0,78.0
481,115.833287,116.46002286041666,54.0,80.0
482,115.833287,116.50689784166666,60.0,84.0
483,116.24995349999999,116.71523109166667,51.0,86.0
484,115.833287,116.79161995,44.0,87.0
485,116.66662,117.07981427916665,54.0,95.0
486,116.66662,117.09543927291666,60.0,90.0
487,117.0832865,117.3853697125,51.0,88.0
488,117.49995299999999,117.72391124375,56.0,84.0
489,117.49995299999999,118.03641111875,64.0,84.0
490,117.9166195,118.12668886041666,56.0,81.0
491,117.49995299999999,118.50168871041666,49.0,85.0
492,118.33328599999999,118.58849423125,56.0,87.0
493,118.33328599999999,118.67529975208333,64.0,85.0
494,118.74995249999999,118.98779962708333,63.0,91.0
495,118.95828574999999,119.19439676666666,64.0,88.0
496,119.166619,119.42877167291665,56.0,75.0
497,119.58328549999999,119.81939651666666,56.0,72.0
498,119.166619,119.90967425833333,63.0,93.0
499,119.166619,120.19266025625,49.0,85.0
500,119.999952,120.35411852499999,56.0,85.0
501,119.999952,120.36800740833333,61.0,85.0
502,120.4166185,120.50516013125,59.0,85.0
503,120.83328499999999,121.05724324375,52.0,80.0
504,120.83328499999999,121.31939591666666,61.0,82.0
505,121.2499515,121.48259029583333,52.0,86.0
506,121.666618,121.80897905416666,52.0,86.0
507,120.83328499999999,121.90793734791666,45.0,90.0
508,121.666618,122.0728678375,57.0,89.0
509,121.666618,122.17356224166666,61.0,85.0
510,122.08328449999999,122.37147882916666,52.0,91.0
511,122.499951,122.89578417499999,56.0,80.0
512,122.499951,123.25342292083333,52.0,84.0
513,122.91661749999999,123.44092284583333,47.0,76.0
514,122.499951,123.58849223124999,40.0,86.0
515,123.33328399999999,123.77251993541665,56.0,88.0
516,123.33328399999999,123.92182543125,59.0,87.0
517,123.33328399999999,123.96349208125,64.0,82.0
518,123.7499505,123.98606151666667,40.0,85.0
519,123.95828374999999,124.09543647291666,52.0,89.0
520,124.16661699999999,124.64404736458333,57.0,86.0
521,124.5832835,124.94613057708332,52.0,85.0
522,124.16661699999999,125.16314437916667,45.0,83.0
523,124.99995,125.45307481875,57.0,86.0
524,124.99995,125.46869981249999,61.0,85.0
525,125.41661649999999,125.55029700208333,52.0,87.0
526,125.833283,125.94439406666666,54.0,85.0
527,125.833283,126.09022734166666,59.0,84.0
528,126.04161624999999,126.33328279999999,54.0,85.0
529,126.2499495,126.46349108125,59.0,84.0
530,126.45828275,126.69265765624999,61.0,86.0
531,125.833283,126.82981037916666,47.0,86.0
532,126.66661599999999,126.89925479583333,59.0,95.0
533,126.87494925,127.11626859791666,54.0,100.0
534,127.0832825,127.44092124583332,47.0,93.0
535,127.29161574999999,127.48258789583333,54.0,93.0
536,127.49994899999999,127.82460164791667,59.0,76.0
537,127.49994899999999,128.04335156041665,64.0,75.0
538,128.333282,128.8228651375,64.0,81.0
539,128.7499485,129.02772616666667,59.0,77.0
540,128.333282,129.09717058333334,68.0,78.0
541,127.49994899999999,129.13362890208333,52.0,79.0
542,129.166615,129.36453158749998,59.0,72.0
543,129.166615,129.64751758541667,63.0,79.0
544,129.5832815,130.05550353333334,59.0,76.0
545,129.166615,130.12842017083332,51.0,79.0
546,129.999948,130.24300345833333,63.0,80.0
547,129.999948,130.35758674583332,66.0,73.0
548,130.833281,131.01904481458334,61.0,73.0
549,130.833281,131.39925299583334,64.0,78.0
550,131.2499475,131.72216953333333,61.0,73.0
551,130.833281,131.76904451458333,49.0,80.0
552,131.66661399999998,131.94612777708332,68.0,78.0
553,131.66661399999998,131.94959999791666,64.0,78.0
554,132.499947,133.34022444166666,59.0,73.0
555,132.499947,133.354113325,63.0,79.0
556,132.499947,133.40793274791665,47.0,85.0
557,132.91661349999998,133.42355774166666,54.0,74.0
558,133.33328,133.76209927291666,66.0,84.0
559,133.7499465,134.10584913541666,59.0,80.0
560,134.16661299999998,135.02425154583332,64.0,64.0
561,134.16661299999998,135.51036246249998,45.0,78.0
562,134.5832795,135.52251523541665,52.0,72.0
563,134.999946,135.57112632708333,57.0,75.0
564,135.41661249999999,135.812445675,64.0,84.0
565,135.833279,136.03119558749998,54.0,77.0
566,136.2499455,136.49300095833334,54.0,76.0
567,135.833279,136.54334816041666,63.0,84.0
568,136.666612,136.80202861249998,54.0,79.0
569,135.833279,136.82633415833334,47.0,79.0
570,136.666612,137.11626459791665,59.0,81.0
571,137.0832785,137.20480622916665,54.0,85.0
572,137.499945,137.98431980625,59.0,77.0
573,137.499945,138.34369466249998,56.0,76.0
574,138.33327799999998,138.49126404791667,59.0,82.0
575,138.33327799999998,138.60063900416665,64.0,78.0
576,137.9166115,138.77425004583333,47.0,71.0
577,137.499945,138.9061944375,40.0,82.0
578,138.7499445,139.23431930625,56.0,72.0
579,139.166611,139.68918023541667,59.0,79.0
580,139.58327749999998,140.01904121458332,56.0,73.0
581,139.999944,140.52945767708331,59.0,80.0
582,139.999944,140.562443775,64.0,80.0
583,140.4166105,140.60931875625,56.0,67.0
584,140.83327699999998,141.27945737708333,64.0,79.0
585,141.2499435,141.71174887083333,52.0,85.0
586,140.83327699999998,141.87147102916666,45.0,77.0
587,141.66661,142.04855429166665,57.0,78.0
588,141.66661,142.2186931125,61.0,83.0
589,142.08327649999998,142.25167921041665,52.0,74.0
590,142.499943,142.94959559791667,59.0,78.0
591,142.9166095,143.35237321458334,54.0,83.0
592,142.499943,143.59195645208334,47.0,84.0
593,143.33327599999998,143.72042862291667,63.0,85.0
594,143.33327599999998,143.78640081875,59.0,83.0
595,143.7499425,143.8853591125,54.0,84.0
596,144.166609,144.79160875,59.0,82.0
597,144.58327549999998,145.12667806041665,51.0,76.0
598,144.166609,145.21001136041667,44.0,84.0
599,144.999942,145.23431690625,54.0,82.0
600,145.4166085,145.67702506249998,54.0,84.0
601,144.999942,145.84021944166665,59.0,81.0
602,145.833275,146.35584423541667,61.0,79.0
603,146.2499415,146.72563575416666,44.0,67.0
604,145.833275,146.77251073541666,37.0,85.0
605,146.666608,146.8159134958333,56.0,77.0
606,146.666608,146.8627884770833,61.0,76.0
607,146.666608,146.89403846458333,64.0,79.0
608,147.49994099999998,147.729107575,52.0,78.0
609,147.49994099999998,148.13188519166667,57.0,74.0
610,147.9166075,148.29334346041665,52.0,73.0
611,148.333274,148.40271841666666,52.0,49.0
612,148.333274,148.7794543770833,57.0,84.0
613,147.49994099999998,148.79855159166667,45.0,83.0
614,148.74994049999998,148.89750988541667,52.0,87.0
615,148.333274,149.13882923333333,64.0,79.0
616,149.166607,149.39230135416665,54.0,78.0
617,149.166607,149.68917623541665,59.0,79.0
618,149.5832735,149.8332734,54.0,81.0
619,149.99993999999998,150.14403716458332,54.0,82.0
620,149.166607,150.48605091666667,47.0,84.0
621,150.4166065,150.5936897625,54.0,76.0
622,149.99993999999998,150.854106325,63.0,86.0
623,150.833273,151.49820328958333,56.0,76.0
624,150.833273,151.72042542291666,59.0,79.0
625,151.24993949999998,152.10063360416666,47.0,69.0
626,151.666606,152.14230025416666,64.0,88.0
627,150.833273,152.20653633958332,40.0,79.0
628,152.0832725,152.41139736875,56.0,81.0
629,152.49993899999998,152.96174437083332,56.0,75.0
630,152.49993899999998,152.98604991666667,59.0,79.0
631,152.9166055,153.63361910208332,47.0,67.0
632,152.49993899999998,153.68396630416666,40.0,84.0
633,153.333272,154.11278557708332,59.0,76.0
634,153.333272,154.12493834999998,64.0,82.0
635,153.74993849999998,154.13188279166667,56.0,77.0
636,154.166605,154.65097980624998,56.0,73.0
637,154.999938,155.07459074791666,56.0,74.0
638,154.166605,155.10063240416665,52.0,75.0
639,154.999938,155.48084058541667,59.0,83.0
640,154.5832715,155.65965995833332,47.0,70.0
641,154.166605,155.68570161458334,40.0,84.0
642,155.4166045,156.24646527916667,52.0,80.0
643,155.833271,156.25861805208334,56.0,75.0
644,156.66660399999998,156.81938171666667,52.0,79.0
645,156.2499375,156.82806226875,47.0,71.0
646,155.833271,156.89229835416666,40.0,79.0
647,156.66660399999998,156.8940344645833,56.0,79.0
648,156.66660399999998,157.15792324791667,59.0,80.0
649,157.0832705,157.24472876874998,52.0,86.0
650,157.499937,158.09542287291666,58.0,77.0
651,157.499937,158.39924219583332,54.0,74.0
652,158.33327,159.23257519583333,61.0,84.0
653,158.7499365,159.2429918583333,54.0,83.0
654,159.16660299999998,159.41139456874998,66.0,84.0
655,159.5832695,159.80028330208333,54.0,85.0
656,157.499937,159.83847773124998,42.0,85.0
657,157.91660349999998,159.84542217291667,49.0,71.0
658,159.999936,160.16486648958332,54.0,80.0
659,159.999936,160.312435875,42.0,83.0
660,159.999936,160.39229695416665,58.0,76.0
661,159.999936,160.479102475,61.0,76.0
662,160.41660249999998,160.58847743125,54.0,84.0
663,160.833269,161.020768925,52.0,79.0
664,160.833269,161.3054910333333,57.0,75.0
665,161.2499355,161.4999354,52.0,76.0
666,160.833269,161.81069916458333,45.0,84.0
667,161.66660199999998,162.11972681875,57.0,87.0
668,161.66660199999998,162.20653233958333,61.0,85.0
669,162.0832685,162.25514343125,52.0,84.0
670,162.499935,162.7013238083333,54.0,77.0
671,162.499935,163.04507367083332,59.0,78.0
672,162.91660149999998,163.13708752291666,54.0,76.0
673,162.499935,163.46521239166665,47.0,81.0
674,163.333268,163.46521239166665,54.0,84.0
675,163.333268,163.72389284374998,63.0,84.0
676,163.333268,163.79507337083334,59.0,86.0
677,163.7499345,163.92180943124998,54.0,74.0
678,164.16660099999999,164.7169480020833,59.0,80.0
679,164.16660099999999,164.87319793958332,56.0,76.0
680,164.999934,165.20479502916666,59.0,81.0
681,164.999934,165.24472556875,64.0,80.0
682,164.5832675,165.45479492916667,47.0,73.0
683,164.16660099999999,165.51729490416665,40.0,84.0
684,165.4166005,165.88708642291667,56.0,77.0
685,165.83326699999998,166.3471556833333,64.0,85.0
686,166.2499335,166.56243337499998,56.0,84.0
687,166.6666,166.83500271041666,56.0,82.0
688,166.6666,167.10062760416665,59.0,84.0
689,166.6666,167.12666926041666,64.0,85.0
690,167.08326649999998,167.20479422916665,56.0,85.0
691,167.499933,168.01555779375,57.0,86.0
692,167.9165995,168.34541877291664,52.0,85.0
693,167.499933,168.51208537291666,45.0,95.0
694,168.33326599999998,168.76034916249998,61.0,86.0
695,168.7499325,169.24993229999998,52.0,87.0
696,169.166599,169.63708492291667,57.0,84.0
697,169.166599,169.7395154375,45.0,74.0
698,169.58326549999998,169.79333486041665,52.0,84.0
699,169.999932,170.12145972916665,52.0,83.0
700,169.999932,170.51208457291665,57.0,84.0
701,170.4165985,170.56764010625,52.0,79.0
702,169.999932,170.72909837499998,61.0,83.0
703,170.83326499999998,171.23777872708334,59.0,85.0
704,171.666598,171.79159794999998,56.0,73.0
705,171.2499315,172.25687554166666,51.0,83.0
706,170.83326499999998,172.29854219166666,44.0,85.0
707,171.666598,172.32458384791667,63.0,85.0
708,172.08326449999998,172.36277827708332,56.0,85.0
709,172.499931,173.05895855416665,63.0,84.0
710,172.499931,173.09715298333333,56.0,77.0
711,173.33326399999999,173.46868061249998,56.0,85.0
712,172.9165975,173.51902781458332,51.0,77.0
713,172.499931,173.54680558125,44.0,85.0
714,173.33326399999999,173.70999996041667,59.0,88.0
715,173.7499305,173.88708322291666,56.0,79.0
716,174.166597,174.71694400208332,61.0,80.0
717,174.166597,174.84541617291666,54.0,79.0
718,174.99992999999998,175.41138816875,57.0,89.0
719,174.5832635,175.52944367708332,49.0,73.0
720,174.166597,175.56590199583331,42.0,84.0
721,175.4165965,176.10236011458332,54.0,86.0
722,175.833263,176.2846517083333,57.0,72.0
723,175.833263,176.34541557291666,61.0,80.0
724,176.24992949999998,176.85062370416665,49.0,70.0
725,176.666596,177.12666526041664,57.0,86.0
726,176.666596,177.18569301458334,61.0,85.0
727,175.833263,177.1909013458333,42.0,85.0
728,177.0832625,177.3436790625,49.0,84.0
729,177.49992899999998,177.67874837291666,54.0,79.0
730,177.49992899999998,177.97562325416666,59.0,83.0
731,177.9165955,178.395761975,54.0,85.0
732,177.49992899999998,178.7186785125,47.0,85.0
733,178.333262,178.729095175,61.0,86.0
734,178.74992849999998,179.00687284166665,54.0,91.0
735,179.166595,179.33499771041664,54.0,82.0
736,179.166595,179.65791424791666,63.0,85.0
737,179.166595,179.66833091041667,59.0,84.0
738,179.5832615,179.88708082291666,54.0,84.0
739,179.99992799999998,180.38534451249998,59.0,91.0
740,180.4165945,180.64055274375,54.0,87.0
741,179.166595,180.69263605625,47.0,89.0
742,180.62492774999998,180.80374712291666,56.0,83.0
743,181.24992749999998,181.80721894375,47.0,84.0
744,181.666594,181.90964945833332,52.0,82.0
745,180.833261,181.95999666041666,40.0,88.0
746,181.666594,182.06242717499998,56.0,86.0
747,182.0832605,182.24124654791666,47.0,87.0
748,181.666594,182.29680208124998,59.0,85.0
749,182.29159375,182.44610757708332,52.0,85.0
750,182.91659349999998,183.52249603541665,51.0,84.0
751,182.49992699999999,183.53291269791666,44.0,86.0
752,183.33326,183.55895435416664,56.0,84.0
753,183.33326,183.770759825,59.0,88.0
754,183.7499265,184.10582913541666,44.0,84.0
755,183.7499265,184.22735686458333,56.0,85.0
756,184.16659299999998,184.6770094625,64.0,85.0
757,184.5832595,184.81937051666665,56.0,82.0
758,184.16659299999998,185.14402316458333,49.0,78.0
759,184.999926,185.45305081875,61.0,84.0
760,184.999926,185.48082858541665,56.0,85.0
761,185.41659249999998,185.65270351666666,49.0,81.0
762,185.41659249999998,185.66138406874998,59.0,87.0
763,185.62492575,185.78985623958332,61.0,84.0
764,185.833259,186.312425475,56.0,78.0
765,185.833259,186.34541157291665,59.0,85.0
766,186.66659199999998,186.79680028125,56.0,84.0
767,186.2499255,186.80721694374998,51.0,84.0
768,185.833259,186.86798080833333,44.0,80.0
769,186.66659199999998,186.9165919,59.0,89.0
770,186.66659199999998,187.13186959166666,63.0,87.0
771,187.0832585,187.19436956666667,56.0,75.0
772,187.499925,187.93916093541665,61.0,83.0
773,187.499925,187.95999426041666,57.0,84.0
774,187.91659149999998,188.14749418541666,52.0,84.0
775,187.499925,188.44957739791667,45.0,89.0
776,188.333258,188.59541067291664,52.0,87.0
777,188.54159124999998,188.63013288124998,45.0,81.0
778,188.333258,188.645757875,57.0,89.0
779,188.7499245,188.97561885416667,56.0,90.0
780,188.95825775,189.09541047291665,57.0,88.0
781,189.16659099999998,189.61797970833334,56.0,83.0
782,189.16659099999998,189.63534081249998,52.0,78.0
783,189.5832575,190.15270171666666,47.0,79.0
784,189.16659099999998,190.19089614583334,40.0,85.0
785,189.999924,190.28811832916665,52.0,86.0
786,189.999924,190.40964605833332,59.0,86.0
787,190.41659049999998,190.69784038749998,40.0,86.0
788,190.833257,191.020756925,52.0,80.0
789,190.833257,191.32631235833333,57.0,84.0
790,191.2499235,191.48603451666665,52.0,84.0
791,190.833257,191.7395066375,45.0,89.0
792,191.66658999999999,192.07978427916666,57.0,85.0
793,192.08325649999998,192.18915923541667,45.0,100.0
794,191.66658999999999,192.19089534583333,61.0,84.0
795,192.499923,192.6770062625,54.0,84.0
796,192.499923,192.99297835833332,59.0,84.0
797,192.9165895,193.229089375,54.0,80.0
798,193.12492275,193.29158934999998,59.0,85.0
799,193.33325599999998,193.562422575,61.0,82.0
800,192.499923,193.79158915,47.0,91.0
801,193.54158925,193.80721414375,59.0,98.0
802,193.7499225,193.99471406875,54.0,91.0
803,194.166589,194.7186721125,59.0,84.0
804,194.166589,194.7586026520833,56.0,80.0
805,194.58325549999998,195.0919358520833,51.0,85.0
806,194.999922,195.229088575,56.0,84.0
807,194.166589,195.27943577708334,44.0,84.0
808,194.999922,195.29158855,59.0,91.0
809,194.999922,195.3228385375,63.0,90.0
810,195.20825524999998,195.42353294166665,51.0,84.0
811,195.4165885,195.63533841249998,56.0,87.0
812,195.83325499999998,195.91137996875,56.0,78.0
813,195.83325499999998,196.45999086041667,54.0,80.0
814,195.83325499999998,196.50686584166667,60.0,84.0
815,196.2499215,196.71519909166665,51.0,86.0
816,195.83325499999998,196.79158794999998,44.0,87.0
817,196.666588,197.07978227916666,54.0,95.0
818,196.666588,197.09540727291665,60.0,90.0
819,197.08325449999998,197.3853377125,51.0,88.0
820,197.499921,197.72387924375,56.0,84.0
821,197.499921,198.03637911874998,64.0,84.0
822,197.9165875,198.12665686041666,56.0,81.0
823,197.499921,198.50165671041665,49.0,85.0
824,198.33325399999998,198.58846223125,56.0,87.0
825,198.33325399999998,198.67526775208333,64.0,85.0
826,198.7499205,198.98776762708331,63.0,91.0
827,198.95825374999998,199.19436476666667,64.0,88.0
828,199.166587,199.42873967291666,56.0,75.0
829,199.58325349999998,199.81936451666667,56.0,72.0
830,199.166587,199.90964225833332,63.0,93.0
831,199.166587,200.19262825625,49.0,85.0
832,199.99992,200.35408652499999,56.0,85.0
833,199.99992,200.36797540833334,61.0,85.0
834,200.4165865,200.50512813125,59.0,85.0
835,200.83325299999998,201.05721124374998,52.0,80.0
836,200.83325299999998,201.31936391666665,61.0,82.0
837,201.24991949999998,201.48255829583331,52.0,86.0
838,201.666586,201.80894705416665,52.0,86.0
839,200.83325299999998,201.90790534791665,45.0,90.0
840,201.666586,202.07283583749998,57.0,89.0
841,201.666586,202.17353024166667,61.0,85.0
842,202.0832525,202.37144682916664,52.0,91.0
843,202.49991899999998,202.89575217499998,56.0,80.0
844,202.49991899999998,203.2533909208333,52.0,84.0
845,202.9165855,203.4408908458333,47.0,76.0
846,202.49991899999998,203.58846023125,40.0,86.0
847,203.333252,203.77248793541665,56.0,88.0
848,203.333252,203.92179343125,59.0,87.0
849,203.333252,203.96346008125,64.0,82.0
850,203.74991849999998,203.98602951666666,40.0,85.0
851,203.95825175,204.09540447291667,52.0,89.0
852,204.166585,204.6440153645833,57.0,86.0
853,204.5832515,204.94609857708332,52.0,85.0
854,204.166585,205.16311237916665,45.0,83.0
855,204.99991799999998,205.45304281875,57.0,86.0
856,204.99991799999998,205.4686678125,61.0,85.0
857,205.4165845,205.55026500208334,52.0,87.0
858,205.833251,205.94436206666666,54.0,85.0
859,205.833251,206.09019534166666,59.0,84.0
860,206.04158425,206.3332508,54.0,85.0
861,206.24991749999998,206.46345908125,59.0,84.0
862,206.45825075,206.69262565625,61.0,86.0
863,205.833251,206.82977837916667,47.0,86.0
864,206.666584,206.8992227958333,59.0,95.0
865,206.87491724999998,207.11623659791667,54.0,100.0
866,207.0832505,207.44088924583332,47.0,93.0
867,207.29158375,207.48255589583331,54.0,93.0
868,207.9165835,208.47387494375,47.0,84.0
869,208.33325,208.5763054583333,52.0,82.0
870,207.49991699999998,208.62665266041665,40.0,88.0
871,208.33325,208.729083175,56.0,86.0
872,208.74991649999998,208.90790254791665,47.0,87.0
873,208.33325,208.96345808125,59.0,85.0
874,208.95824975,209.1127635770833,52.0,85.0
875,209.5832495,210.18915203541667,51.0,84.0
876,209.166583,210.19956869791665,44.0,86.0
877,209.99991599999998,210.22561035416666,56.0,84.0
878,209.99991599999998,210.437415825,59.0,88.0
879,210.41658249999998,210.77248513541664,44.0,84.0
880,210.41658249999998,210.89401286458332,56.0,85.0
881,210.833249,211.34366546249998,64.0,85.0
882,211.2499155,211.48602651666667,56.0,82.0
883,210.833249,211.81067916458332,49.0,78.0
884,211.66658199999998,212.11970681875,61.0,84.0
885,211.66658199999998,212.14748458541666,56.0,85.0
886,212.0832485,212.31935951666665,49.0,81.0
887,212.0832485,212.32804006875,59.0,87.0
888,212.29158174999998,212.45651223958333,61.0,84.0
889,212.499915,212.979081475,56.0,78.0
890,212.499915,213.01206757291666,59.0,85.0
891,213.333248,213.46345628125,56.0,84.0
892,212.91658149999998,213.47387294375,51.0,84.0
893,212.499915,213.53463680833332,44.0,80.0
894,213.333248,213.58324789999998,59.0,89.0
895,213.333248,213.79852559166665,63.0,87.0
896,213.7499145,213.86102556666665,56.0,75.0
897,214.16658099999998,214.60581693541667,61.0,83.0
898,214.16658099999998,214.62665026041665,57.0,84.0
899,214.5832475,214.81415018541665,52.0,84.0
900,214.16658099999998,215.11623339791666,45.0,89.0
901,214.999914,215.26206667291666,52.0,87.0
902,215.20824725,215.29678888125,45.0,81.0
903,214.999914,215.31241387499998,57.0,89.0
904,215.41658049999998,215.64227485416666,56.0,90.0
905,215.62491375,215.76206647291664,57.0,88.0
906,215.833247,216.28463570833333,56.0,83.0
907,215.833247,216.3019968125,52.0,78.0
908,216.2499135,216.81935771666664,47.0,79.0
909,215.833247,216.85755214583332,40.0,85.0
910,216.66657999999998,216.95477432916667,52.0,86.0
911,216.66657999999998,217.0763020583333,59.0,86.0
912,217.0832465,217.3644963875,40.0,86.0
913,217.499913,217.687412925,52.0,80.0
914,217.499913,217.99296835833331,57.0,84.0
915,217.91657949999998,218.15269051666667,52.0,84.0
916,217.499913,218.4061626375,45.0,89.0
917,218.333246,218.74644027916665,57.0,85.0
918,218.7499125,218.85581523541666,45.0,100.0
919,218.333246,218.85755134583331,61.0,84.0
920,219.16657899999998,219.34366226249998,54.0,84.0
921,219.16657899999998,219.65963435833334,59.0,84.0
922,219.58324549999998,219.895745375,54.0,80.0
923,219.79157874999999,219.95824535,59.0,85.0
924,219.999912,220.229078575,61.0,82.0
925,219.16657899999998,220.45824514999998,47.0,91.0
926,220.20824524999998,220.47387014375,59.0,98.0
927,220.41657849999999,220.66137006875,54.0,91.0
928,220.83324499999998,221.3853281125,59.0,84.0
929,220.83324499999998,221.42525865208333,56.0,80.0
930,221.2499115,221.75859185208333,51.0,85.0
931,221.666578,221.89574457499998,56.0,84.0
932,220.83324499999998,221.94609177708332,44.0,84.0
933,221.666578,221.95824455,59.0,91.0
934,221.666578,221.98949453749998,63.0,90.0
935,221.87491125,222.09018894166667,51.0,84.0
936,222.08324449999998,222.3019944125,56.0,87.0
937,222.499911,222.57803596875,56.0,78.0
938,222.499911,223.12664686041666,54.0,80.0
939,222.499911,223.17352184166666,60.0,84.0
940,222.9165775,223.38185509166667,51.0,86.0
941,222.499911,223.45824395,44.0,87.0
942,223.33324399999998,223.74643827916665,54.0,95.0
943,223.33324399999998,223.76206327291666,60.0,90.0
944,223.7499105,224.05199371249998,51.0,88.0
945,224.166577,224.39053524374998,56.0,84.0
946,224.166577,224.70303511875,64.0,84.0
947,224.58324349999998,224.79331286041665,56.0,81.0
948,224.166577,225.16831271041664,49.0,85.0
949,224.99991,225.25511823124998,56.0,87.0
950,224.99991,225.34192375208332,64.0,85.0
951,225.4165765,225.65442362708333,63.0,91.0
952,225.62490975,225.86102076666666,64.0,88.0
953,225.83324299999998,226.09539567291665,56.0,75.0
954,226.2499095,226.48602051666666,56.0,72.0
955,225.83324299999998,226.5762982583333,63.0,93.0
956,225.83324299999998,226.85928425625,49.0,85.0
957,226.666576,227.02074252499997,56.0,85.0
958,226.666576,227.03463140833333,61.0,85.0
959,227.08324249999998,227.17178413124998,59.0,85.0
960,227.49990899999997,227.72386724375,52.0,80.0
961,227.49990899999997,227.98601991666666,61.0,82.0
962,227.9165755,228.14921429583333,52.0,86.0
963,228.33324199999998,228.47560305416664,52.0,86.0
964,227.49990899999997,228.57456134791664,45.0,90.0
965,228.33324199999998,228.7394918375,57.0,89.0
966,228.33324199999998,228.84018624166666,61.0,85.0
967,228.74990849999998,229.03810282916666,52.0,91.0
968,229.166575,229.562408175,56.0,80.0
969,229.166575,229.92004692083333,52.0,84.0
970,229.58324149999999,230.10754684583333,47.0,76.0
971,229.166575,230.25511623124999,40.0,86.0
972,229.99990799999998,230.43914393541667,56.0,88.0
973,229.99990799999998,230.58844943124998,59.0,87.0
974,229.99990799999998,230.63011608124998,64.0,82.0
975,230.4165745,230.65268551666665,40.0,85.0
976,230.62490774999998,230.76206047291666,52.0,89.0
977,230.833241,231.31067136458333,57.0,86.0
978,231.24990749999998,231.6127545770833,52.0,85.0
979,230.833241,231.82976837916667,45.0,83.0
980,231.666574,232.11969881874998,57.0,86.0
981,231.666574,232.1353238125,61.0,85.0
982,232.0832405,232.21692100208332,52.0,87.0
983,232.49990699999998,232.61101806666665,54.0,85.0
984,232.49990699999998,232.75685134166665,59.0,84.0
985,232.70824025,232.9999068,54.0,85.0
986,232.9165735,233.13011508124998,59.0,84.0
987,233.12490674999998,233.35928165624998,61.0,86.0
988,232.49990699999998,233.49643437916666,47.0,86.0
989,233.33324,233.56587879583333,59.0,95.0
990,233.54157325,233.78289259791666,54.0,100.0
991,233.74990649999998,234.1075452458333,47.0,93.0
992,233.95823975,234.14921189583333,54.0,93.0
993,234.5832395,235.14053094374998,48.0,84.0
994,234.99990599999998,235.24296145833333,53.0,82.0
995,234.166573,235.29330866041664,41.0,88.0
996,234.99990599999998,235.395739175,57.0,86.0
997,235.4165725,235.57455854791667,48.0,87.0
998,234.99990599999998,235.63011408124999,60.0,85.0
999,235.62490574999998,235.77941957708333,53.0,85.0
1000,236.24990549999998,236.85580803541666,52.0,84.0
1001,235.833239,236.86622469791666,45.0,86.0
1002,236.66657199999997,236.89226635416665,57.0,84.0
1003,236.66657199999997,237.10407182499998,60.0,88.0
1004,237.0832385,237.43914113541666,45.0,84.0
1005,237.0832385,237.56066886458333,57.0,85.0
1006,237.49990499999998,238.01032146249997,65.0,85.0
1007,237.91657149999998,238.15268251666666,57.0,82.0
1008,237.49990499999998,238.4773351645833,50.0,78.0
1009,238.333238,238.78636281874998,62.0,84.0
1010,238.333238,238.81414058541665,57.0,85.0
1011,238.74990449999999,238.98601551666664,50.0,81.0
1012,238.74990449999999,238.99469606875,60.0,87.0
1013,238.95823775,239.12316823958332,62.0,84.0
1014,239.16657099999998,239.64573747499998,57.0,78.0
1015,239.16657099999998,239.67872357291665,60.0,85.0
1016,239.999904,240.13011228124998,57.0,84.0
1017,239.5832375,240.14052894374998,52.0,84.0
1018,239.16657099999998,240.2012928083333,45.0,80.0
1019,239.999904,240.2499039,60.0,89.0
1020,239.999904,240.46518159166666,64.0,87.0
1021,240.41657049999998,240.52768156666664,57.0,75.0
1022,240.833237,241.27247293541666,62.0,83.0
1023,240.833237,241.29330626041664,58.0,84.0
1024,241.2499035,241.48080618541664,53.0,84.0
1025,240.833237,241.78288939791665,46.0,89.0
1026,241.66656999999998,241.92872267291665,53.0,87.0
1027,241.87490325,241.96344488124998,46.0,81.0
1028,241.66656999999998,241.979069875,58.0,89.0
1029,242.0832365,242.30893085416665,57.0,90.0
1030,242.29156974999998,242.42872247291666,58.0,88.0
1031,242.499903,242.95129170833332,57.0,83.0
1032,242.499903,242.96865281249998,53.0,78.0
1033,242.91656949999998,243.48601371666666,48.0,79.0
1034,242.499903,243.5242081458333,41.0,85.0
1035,243.333236,243.62143032916666,53.0,86.0
1036,243.333236,243.74295805833333,60.0,86.0
1037,243.7499025,244.0311523875,41.0,86.0
1038,244.16656899999998,244.35406892499998,53.0,80.0
1039,244.16656899999998,244.65962435833333,58.0,84.0
1040,244.5832355,244.81934651666666,53.0,84.0
1041,244.16656899999998,245.07281863749998,46.0,89.0
1042,244.999902,245.41309627916667,58.0,85.0
1043,245.41656849999998,245.52247123541665,46.0,100.0
1044,244.999902,245.52420734583333,62.0,84.0
1045,245.83323499999997,246.0103182625,55.0,84.0
1046,245.83323499999997,246.32629035833332,60.0,84.0
1047,246.2499015,246.56240137499998,55.0,80.0
1048,246.45823474999997,246.62490135,60.0,85.0
1049,246.66656799999998,246.89573457499998,62.0,82.0
1050,245.83323499999997,247.12490115,48.0,91.0
1051,246.87490125,247.14052614374998,60.0,98.0
1052,247.08323449999997,247.32802606874998,55.0,91.0
1053,247.499901,248.05198411249998,60.0,84.0
1054,247.499901,248.09191465208332,57.0,80.0
1055,247.91656749999999,248.42524785208332,52.0,85.0
1056,248.33323399999998,248.562400575,57.0,84.0
1057,247.499901,248.6127477770833,45.0,84.0
1058,248.33323399999998,248.62490054999998,60.0,91.0
1059,248.33323399999998,248.6561505375,64.0,90.0
1060,248.54156724999999,248.75684494166666,52.0,84.0
1061,248.7499005,248.96865041249998,57.0,87.0
1062,249.166567,249.24469196874998,57.0,78.0
1063,249.166567,249.79330286041665,55.0,80.0
1064,249.166567,249.84017784166664,61.0,84.0
1065,249.58323349999998,250.04851109166665,52.0,86.0
1066,249.166567,250.12489994999999,45.0,87.0
1067,249.9999,250.41309427916664,55.0,95.0
1068,249.9999,250.42871927291665,61.0,90.0
1069,250.4165665,250.7186497125,52.0,88.0
1070,250.83323299999998,251.05719124375,57.0,84.0
1071,250.83323299999998,251.36969111874998,65.0,84.0
1072,251.2498995,251.45996886041667,57.0,81.0
1073,250.83323299999998,251.83496871041666,50.0,85.0
1074,251.666566,251.92177423125,57.0,87.0
1075,251.666566,252.0085797520833,65.0,85.0
1076,252.08323249999998,252.32107962708332,64.0,91.0
1077,252.29156575,252.52767676666664,65.0,88.0
1078,252.499899,252.76205167291664,57.0,75.0
1079,252.9165655,253.15267651666665,57.0,72.0
1080,252.499899,253.24295425833333,64.0,93.0
1081,252.499899,253.52594025624998,50.0,85.0
1082,253.33323199999998,253.687398525,57.0,85.0
1083,253.33323199999998,253.70128740833331,62.0,85.0
1084,253.7498985,253.83844013125,60.0,85.0
1085,254.166565,254.39052324374998,53.0,80.0
1086,254.166565,254.65267591666665,62.0,82.0
1087,254.58323149999998,254.81587029583332,53.0,86.0
1088,254.99989799999997,255.14225905416666,53.0,86.0
1089,254.166565,255.24121734791666,46.0,90.0
1090,254.99989799999997,255.4061478375,58.0,89.0
1091,254.99989799999997,255.50684224166665,62.0,85.0
1092,255.4165645,255.70475882916665,53.0,91.0
1093,255.83323099999998,256.22906417499996,57.0,80.0
1094,255.83323099999998,256.5867029208333,53.0,84.0
1095,256.2498975,256.7742028458333,48.0,76.0
1096,255.83323099999998,256.92177223125,41.0,86.0
1097,256.666564,257.10579993541666,57.0,88.0
1098,256.666564,257.25510543125,60.0,87.0
1099,256.666564,257.29677208124997,65.0,82.0
1100,257.0832305,257.31934151666667,41.0,85.0
1101,257.29156374999997,257.4287164729167,53.0,89.0
1102,257.499897,257.97732736458335,58.0,86.0
1103,257.9165635,258.2794105770833,53.0,85.0
1104,257.499897,258.4964243791666,46.0,83.0
1105,258.33323,258.78635481875,58.0,86.0
1106,258.33323,258.8019798125,62.0,85.0
1107,258.7498965,258.8835770020833,53.0,87.0
1108,259.166563,259.27767406666663,55.0,85.0
1109,259.166563,259.42350734166666,60.0,84.0
1110,259.37489625,259.6665628,55.0,85.0
1111,259.58322949999996,259.79677108125,60.0,84.0
1112,259.79156274999997,260.02593765625,62.0,86.0
1113,259.166563,260.16309037916665,48.0,86.0
1114,259.999896,260.2325347958333,60.0,95.0
1115,260.20822925,260.44954859791665,55.0,100.0
1116,260.4165625,260.7742012458333,48.0,93.0
1117,260.62489575,260.8158678958333,55.0,93.0
1118,261.2498955,261.80718694374997,48.0,84.0
1119,261.666562,261.90961745833334,53.0,82.0
1120,260.83322899999996,261.95996466041663,41.0,88.0
1121,261.666562,262.062395175,57.0,86.0
1122,262.08322849999996,262.2412145479166,48.0,87.0
1123,261.666562,262.29677008125,60.0,85.0
1124,262.29156174999997,262.4460755770833,53.0,85.0
1125,262.9165615,263.52246403541665,52.0,84.0
1126,262.499895,263.53288069791665,45.0,86.0
1127,263.33322799999996,263.55892235416667,57.0,84.0
1128,263.33322799999996,263.770727825,60.0,88.0
1129,263.7498945,264.10579713541665,45.0,84.0
1130,263.7498945,264.2273248645833,57.0,85.0
1131,264.166561,264.67697746249996,65.0,85.0
1132,264.58322749999996,264.8193385166667,57.0,82.0
1133,264.166561,265.1439911645833,50.0,78.0
1134,264.999894,265.45301881874997,62.0,84.0
1135,264.999894,265.48079658541667,57.0,85.0
1136,265.4165605,265.65267151666666,50.0,81.0
1137,265.4165605,265.66135206875,60.0,87.0
1138,265.62489375,265.7898242395833,62.0,84.0
1139,265.83322699999997,266.31239347499996,57.0,78.0
1140,265.83322699999997,266.34537957291667,60.0,85.0
1141,266.66656,266.79676828124997,57.0,84.0
1142,266.2498935,266.80718494375,52.0,84.0
1143,265.83322699999997,266.8679488083333,45.0,80.0
1144,266.66656,266.9165599,60.0,89.0
1145,266.66656,267.1318375916666,64.0,87.0
1146,267.08322649999997,267.19433756666666,57.0,75.0
1147,267.499893,267.93912893541665,62.0,83.0
1148,267.499893,267.95996226041666,58.0,84.0
1149,267.9165595,268.14746218541666,53.0,84.0
1150,267.499893,268.44954539791667,46.0,89.0
1151,268.33322599999997,268.59537867291664,53.0,87.0
1152,268.54155925,268.63010088125,46.0,81.0
1153,268.33322599999997,268.645725875,58.0,89.0
1154,268.7498925,268.97558685416664,57.0,90.0
1155,268.95822575,269.09537847291665,58.0,88.0
1156,269.166559,269.6179477083333,57.0,83.0
1157,269.166559,269.6353088125,53.0,78.0
1158,269.58322549999997,270.15266971666665,48.0,79.0
1159,269.166559,270.1908641458333,41.0,85.0
1160,269.999892,270.2880863291667,53.0,86.0
1161,269.999892,270.4096140583333,60.0,86.0
1162,270.4165585,270.6978083875,41.0,86.0
1163,270.83322499999997,271.02072492499997,53.0,80.0
1164,270.83322499999997,271.3262803583333,58.0,84.0
1165,271.2498915,271.48600251666664,53.0,84.0
1166,270.83322499999997,271.7394746375,46.0,89.0
1167,271.666558,272.07975227916666,58.0,85.0
1168,272.0832245,272.18912723541666,46.0,100.0
1169,271.666558,272.1908633458333,62.0,84.0
1170,272.499891,272.6769742625,55.0,84.0
1171,272.499891,272.9929463583333,60.0,84.0
1172,272.9165575,273.22905737499997,55.0,80.0
1173,273.12489074999996,273.29155735,60.0,85.0
1174,273.333224,273.562390575,62.0,82.0
1175,272.499891,273.79155714999996,48.0,91.0
1176,273.54155725,273.80718214374997,60.0,98.0
1177,273.7498905,273.99468206874997,55.0,91.0
1178,274.166557,274.7186401125,60.0,84.0
1179,274.166557,274.75857065208334,57.0,80.0
1180,274.5832235,275.0919038520833,52.0,85.0
1181,274.99989,275.22905657499996,57.0,84.0
1182,274.166557,275.2794037770833,45.0,84.0
1183,274.99989,275.29155655,60.0,91.0
1184,274.99989,275.32280653749996,64.0,90.0
1185,275.20822325,275.42350094166665,52.0,84.0
1186,275.4165565,275.6353064125,57.0,87.0
1187,275.833223,275.91134796874996,57.0,78.0
1188,275.833223,276.45995886041663,55.0,80.0
1189,275.833223,276.50683384166666,61.0,84.0
1190,276.2498895,276.7151670916667,52.0,86.0
1191,275.833223,276.79155595,45.0,87.0
1192,276.66655599999996,277.07975027916666,55.0,95.0
1193,276.66655599999996,277.09537527291667,61.0,90.0
1194,277.0832225,277.3853057125,52.0,88.0
1195,277.499889,277.72384724374996,57.0,84.0
1196,277.499889,278.03634711875,65.0,84.0
1197,277.91655549999996,278.12662486041665,57.0,81.0
1198,277.499889,278.50162471041665,50.0,85.0
1199,278.333222,278.58843023124996,57.0,87.0
1200,278.333222,278.6752357520833,65.0,85.0
1201,278.7498885,278.98773562708334,64.0,91.0
1202,278.95822175,279.19433276666666,65.0,88.0
1203,279.16655499999996,279.42870767291663,57.0,75.0
1204,279.5832215,279.81933251666663,57.0,72.0
1205,279.16655499999996,279.9096102583333,64.0,93.0
1206,279.16655499999996,280.19259625625,50.0,85.0
1207,279.999888,280.354054525,57.0,85.0
1208,279.999888,280.3679434083333,62.0,85.0
1209,280.41655449999996,280.50509613125,60.0,85.0
1210,280.833221,281.05717924375,53.0,80.0
1211,280.833221,281.31933191666667,62.0,82.0
1212,281.2498875,281.48252629583334,53.0,86.0
1213,281.66655399999996,281.8089150541667,53.0,86.0
1214,280.833221,281.9078733479167,46.0,90.0
1215,281.66655399999996,282.0728038375,58.0,89.0
1216,281.66655399999996,282.17349824166666,62.0,85.0
1217,282.0832205,282.37141482916667,53.0,91.0
1218,282.499887,282.895720175,57.0,80.0
1219,282.499887,283.2533589208333,53.0,84.0
1220,282.91655349999996,283.4408588458333,48.0,76.0
1221,282.499887,283.58842823124996,41.0,86.0
1222,283.33322,283.77245593541664,57.0,88.0
1223,283.33322,283.92176143125,60.0,87.0
1224,283.33322,283.96342808124996,65.0,82.0
1225,283.7498865,283.98599751666666,41.0,85.0
1226,283.95821975,284.09537247291667,53.0,89.0
1227,284.16655299999996,284.64398336458333,58.0,86.0
1228,284.5832195,284.94606657708334,53.0,85.0
1229,284.16655299999996,285.1630803791667,46.0,83.0
1230,284.999886,285.45301081875,58.0,86.0
1231,284.999886,285.4686358125,62.0,85.0
1232,285.41655249999997,285.5502330020833,53.0,87.0
1233,285.833219,285.9443300666666,55.0,85.0
1234,285.833219,286.09016334166665,60.0,84.0
1235,286.04155225,286.3332188,55.0,85.0
1236,286.2498855,286.46342708124996,60.0,84.0
1237,286.45821874999996,286.69259365625,62.0,86.0
1238,285.833219,286.82974637916664,48.0,86.0
1239,286.66655199999997,286.8991907958333,60.0,95.0
1240,286.87488525,287.11620459791664,55.0,100.0
1241,287.0832185,287.44085724583334,48.0,93.0
1242,287.29155175,287.4825238958333,55.0,93.0
1243,287.499885,288.1387736333333,57.0,74.0
1244,288.333218,288.50162071041666,53.0,78.0
1245,287.91655149999997,288.8019678125,48.0,71.0
1246,287.499885,288.85752334583333,41.0,82.0
1247,288.333218,289.81932851666664,60.0,84.0
1248,289.5832175,290.0693284166667,50.0,76.0
1249,289.16655099999997,290.15266171666667,38.0,86.0
1250,289.999884,290.1578700479167,53.0,73.0
1251,289.999884,290.21863391249997,57.0,74.0
1252,291.2498835,291.75335552083334,53.0,82.0
1253,291.66655,292.12835537083333,58.0,71.0
1254,292.0832165,292.2741886458333,53.0,78.0
1255,290.833217,292.38703582291663,46.0,85.0
1256,291.66655,292.5450218708333,62.0,84.0
1257,292.499883,293.17349384166664,60.0,81.0
1258,292.9165495,293.4287020729167,55.0,77.0
1259,292.499883,294.0901601416667,48.0,84.0
1260,293.333216,294.0971045833333,60.0,80.0
1261,293.333216,294.1109934666666,64.0,83.0
1262,294.166549,294.8054376333333,57.0,74.0
1263,294.99988199999996,295.16828471041663,53.0,78.0
1264,294.5832155,295.4686318125,48.0,71.0
1265,294.166549,295.5241873458333,41.0,82.0
1266,294.99988199999996,296.48599251666667,60.0,84.0
1267,296.24988149999996,296.73599241666665,50.0,76.0
1268,295.833215,296.81932571666664,38.0,86.0
1269,296.666548,296.82453404791664,53.0,73.0
1270,296.666548,296.8852979125,57.0,74.0
1271,297.9165475,298.4200195208333,53.0,82.0
1272,298.333214,298.7950193708333,58.0,71.0
1273,298.74988049999996,298.94085264583333,53.0,78.0
1274,297.49988099999996,299.05369982291666,46.0,85.0
1275,298.333214,299.2116858708333,62.0,84.0
1276,299.166547,299.84015784166667,60.0,81.0
1277,299.5832135,300.09536607291665,55.0,77.0
1278,299.166547,300.75682414166664,48.0,84.0
1279,299.99987999999996,300.76376858333333,60.0,80.0
1280,299.99987999999996,300.77765746666665,64.0,83.0
1281,300.833213,303.42348974166663,57.0,69.0
1282,300.833213,303.43390640416663,53.0,64.0
1283,300.833213,303.44779528749996,41.0,68.0
