,start,end,pitch,velocity
0,27.190449000000005,27.595210500000004,64.0,93.0
1,27.666639000000004,27.809496000000003,64.0,85.0
2,27.904734,28.047591000000004,64.0,83.0
3,28.142829000000003,28.36108275,64.0,93.0
4,28.380924000000004,28.527749250000003,62.0,70.0
5,28.619019,28.803542625000002,60.0,90.0
6,28.857114000000003,29.593224375000002,64.0,95.0
7,30.285684000000003,30.428541000000003,64.0,102.0
8,30.523779000000005,30.672588375000004,67.0,87.0
9,30.761874000000002,30.938461125000003,69.0,93.0
10,30.999969000000004,31.325365500000004,67.0,87.0
11,31.476159000000003,31.613063625000002,67.0,87.0
12,31.714254000000004,32.045602875,67.0,90.0
13,32.19044400000001,32.597189625000006,64.0,87.0
14,32.666634,34.10710875,62.0,93.0
15,34.809489000000006,34.950361875000006,69.0,93.0
16,35.047584,35.17059975,69.0,93.0
17,35.285679,35.43250425,69.0,93.0
18,35.523774,35.6586945,67.0,72.0
19,35.761869000000004,36.351154125,69.0,90.0
20,36.476154,36.60710625,72.0,93.0
21,36.714249,37.36107375,67.0,90.0
22,37.66662900000001,37.79758125000001,64.0,70.0
23,37.904724,38.05154925,62.0,93.0
24,38.142819,38.279723625,60.0,87.0
25,38.380914000000004,38.499961500000005,62.0,74.0
26,38.619009000000005,38.999961000000006,64.0,90.0
27,39.095199,39.2301195,67.0,85.0
28,39.333294,39.7221825,62.0,83.0
29,39.809484000000005,40.198372500000005,67.0,102.0
30,40.28567400000001,41.73210112500001,60.0,93.0
31,41.71424400000001,41.807497875,69.0,95.0
32,41.952339,42.101148375,69.0,102.0
33,42.190434,42.313449750000004,71.0,90.0
34,42.428529000000005,42.6110685,72.0,83.0
35,42.666624000000006,42.77773500000001,71.0,80.0
36,42.90471900000001,43.04162362500001,69.0,87.0
37,43.142814,43.50392475,69.0,95.0
38,43.619004000000004,43.728130875000005,69.0,93.0
39,43.857099000000005,44.041622625,69.0,95.0
40,44.095194000000006,44.20233675000001,72.0,90.0
41,44.33328900000001,44.4523365,69.0,102.0
42,44.571384,44.672574375,67.0,80.0
43,44.809479,44.928526500000004,64.0,87.0
44,45.047574000000004,45.48011325,67.0,87.0
45,45.999954,46.13090625,67.0,87.0
46,46.238049000000004,46.533683625,72.0,93.0
47,46.714239000000006,47.0396355,72.0,83.0
48,47.190429,47.543603250000004,71.0,93.0
49,47.666619000000004,47.85114262500001,67.0,80.0
50,47.904714000000006,49.31939512500001,69.0,74.0
51,50.047569,50.20034662500001,72.0,87.0
52,50.285664000000004,50.416616250000004,71.0,68.0
53,50.523759000000005,50.63487000000001,69.0,93.0
54,50.76185400000001,51.593202375000004,72.0,93.0
55,51.952329000000006,52.124947875000004,71.0,93.0
56,52.19042400000001,52.668598125,67.0,87.0
57,52.904709000000004,53.22216900000001,72.0,83.0
58,53.38089900000001,53.51185125000001,71.0,93.0
59,53.61899400000001,56.057483625,69.0,102.0
60,57.66660900000001,58.07137050000001,64.0,93.0
61,58.142799000000004,58.285656,64.0,85.0
62,58.380894000000005,58.523751000000004,64.0,83.0
63,58.618989000000006,58.83724275000001,64.0,93.0
64,58.85708400000001,59.00390925000001,62.0,70.0
65,59.09517900000001,59.279702625000006,60.0,90.0
66,59.333274,60.069384375000006,64.0,95.0
67,60.761844,60.90470100000001,64.0,102.0
68,60.999939000000005,61.148748375000004,67.0,87.0
69,61.238034000000006,61.414621125000004,69.0,93.0
70,61.47612900000001,61.801525500000004,67.0,87.0
71,61.95231900000001,62.08922362500001,67.0,87.0
72,62.190414000000004,62.52176287500001,67.0,90.0
73,62.66660400000001,63.073349625000006,64.0,87.0
74,63.14279400000001,65.047554,62.0,93.0
75,65.285649,65.426521875,69.0,93.0
76,65.52374400000001,65.64675975,69.0,93.0
77,65.76183900000001,65.90866425,69.0,93.0
78,65.99993400000001,66.1348545,67.0,72.0
79,66.23802900000001,66.827314125,69.0,90.0
80,66.952314,67.08326625000001,72.0,93.0
81,67.190409,67.83723375000001,67.0,90.0
82,68.14278900000001,68.27374125,64.0,70.0
83,68.38088400000001,68.52770925,62.0,93.0
84,68.61897900000001,68.75588362500001,60.0,87.0
85,68.85707400000001,68.9761215,62.0,74.0
86,69.09516900000001,69.476121,64.0,90.0
87,69.571359,69.70627950000001,67.0,85.0
88,69.809454,70.19834250000001,62.0,83.0
89,70.285644,70.67453250000001,67.0,102.0
90,70.76183400000001,72.208261125,60.0,93.0
91,72.190404,72.283657875,69.0,95.0
92,72.428499,72.577308375,69.0,102.0
93,72.666594,72.78960975000001,71.0,90.0
94,72.904689,73.08722850000001,72.0,83.0
95,73.142784,73.25389500000001,71.0,80.0
96,73.38087900000001,73.517783625,69.0,87.0
97,73.61897400000001,73.98008475,69.0,95.0
98,74.09516400000001,74.20429087500001,69.0,93.0
99,74.33325900000001,74.51778262500001,69.0,95.0
100,74.57135400000001,74.67849675000001,72.0,90.0
101,74.80944900000001,74.92849650000001,69.0,102.0
102,75.047544,75.148734375,67.0,80.0
103,75.285639,75.40468650000001,64.0,87.0
104,75.523734,75.95627325000001,67.0,87.0
105,76.47611400000001,76.60706625,67.0,87.0
106,76.71420900000001,77.009843625,72.0,93.0
107,77.19039900000001,77.51579550000001,72.0,83.0
108,77.666589,78.01976325000001,71.0,93.0
109,78.142779,78.327302625,67.0,80.0
110,78.380874,79.795555125,69.0,74.0
111,80.523729,80.676506625,72.0,87.0
112,80.761824,80.89277625000001,71.0,68.0
113,80.999919,81.11103000000001,69.0,93.0
114,81.238014,82.06936237500001,72.0,93.0
115,82.42848900000001,82.60110787500001,71.0,93.0
116,82.66658400000001,83.14475812500001,67.0,87.0
117,83.142774,83.69832900000002,72.0,83.0
118,83.857059,83.98801125000001,71.0,93.0
119,84.09515400000001,86.53364362500001,69.0,102.0
120,87.42848400000001,87.55149975,67.0,87.0
121,87.66657900000001,87.77173762500001,67.0,102.0
122,87.90467400000001,88.03761037500001,67.0,102.0
123,88.14276900000002,88.26776887500002,76.0,102.0
124,88.380864,88.478086125,76.0,93.0
125,88.618959,88.73800650000001,76.0,93.0
126,88.857054,88.96419675000001,74.0,93.0
127,89.095149,89.42451375,76.0,103.0
128,89.57133900000001,89.71221187500001,72.0,80.0
129,89.80943400000001,90.96419475,74.0,93.0
130,91.238004,91.39474987500002,69.0,103.0
131,91.476099,91.613003625,74.0,93.0
132,91.714194,91.84911450000001,69.0,105.0
133,91.95228900000001,92.28760612500001,72.0,95.0
134,92.42847900000001,92.56339950000002,74.0,93.0
135,92.66657400000001,92.84514525000002,72.0,87.0
136,93.14276400000001,93.26181150000001,64.0,93.0
137,93.38085900000002,93.50585887500002,69.0,69.0
138,93.61895400000002,93.73006500000001,64.0,95.0
139,93.857049,94.23006450000001,67.0,95.0
140,94.333239,94.45625475000001,69.0,93.0
141,94.57133400000001,94.77371475000001,67.0,87.0
142,95.76180900000001,95.92252312500001,64.0,95.0
143,95.99990400000002,96.10506262500002,62.0,72.0
144,96.23799900000002,96.36696712500002,62.0,87.0
145,96.476094,96.601093875,60.0,95.0
146,96.714189,97.04950612500001,62.0,93.0
147,97.19037900000001,97.32133125000001,72.0,80.0
148,97.42847400000001,97.80148950000002,69.0,95.0
149,98.14275900000001,98.61894900000001,67.0,90.0
150,99.333234,99.49990050000001,67.0,93.0
151,99.571329,99.978074625,69.0,103.0
152,100.04751900000001,100.34712187500001,72.0,93.0
153,100.52370900000001,100.9125975,72.0,93.0
154,100.99989900000001,101.158629,74.0,90.0
155,101.23799400000001,101.36299387500002,72.0,87.0
156,101.47608900000002,102.54354825000001,74.0,102.0
157,102.66656400000001,102.78957975000002,67.0,87.0
158,102.90465900000001,103.00981762500001,67.0,102.0
159,103.14275400000001,103.27569037500001,67.0,102.0
160,103.38084900000001,103.50584887500001,76.0,102.0
161,103.61894400000001,103.71616612500002,76.0,93.0
162,103.85703900000001,103.97608650000001,76.0,93.0
163,104.09513400000002,104.20227675000001,74.0,93.0
164,104.33322900000002,104.66259375000001,76.0,103.0
165,104.809419,104.950291875,72.0,80.0
166,105.047514,106.20227475000002,74.0,93.0
167,106.47608400000001,106.63282987500001,69.0,103.0
168,106.71417900000002,106.85108362500002,74.0,93.0
169,106.95227400000002,107.08719450000001,69.0,105.0
170,107.19036900000002,107.428464,72.0,95.0
171,107.428464,107.666559,72.0,95.0
172,107.666559,107.80147950000001,74.0,93.0
173,107.90465400000001,108.08322525000001,72.0,87.0
174,108.38084400000001,108.49989150000002,64.0,93.0
175,108.61893900000001,108.74393887500001,69.0,69.0
176,108.85703400000001,108.968145,64.0,95.0
177,109.09512900000001,109.46814450000001,67.0,95.0
178,109.57131900000002,109.69433475000001,69.0,93.0
179,109.80941400000002,110.01179475,67.0,87.0
180,110.99988900000001,111.16060312500001,64.0,95.0
181,111.23798400000001,111.34314262500001,62.0,72.0
182,111.47607900000001,111.60504712500001,62.0,87.0
183,111.71417400000001,111.83917387500001,60.0,95.0
184,111.95226900000002,112.28758612500002,62.0,93.0
185,112.42845900000002,112.55941125000001,72.0,80.0
186,112.666554,113.03956950000001,69.0,95.0
187,113.38083900000001,113.85702900000001,67.0,90.0
188,114.57131400000002,114.7379805,67.0,93.0
189,114.80940900000002,115.21615462500002,69.0,103.0
190,115.28559900000002,115.58520187500001,72.0,93.0
191,115.76178900000001,116.15067750000001,72.0,93.0
192,116.23797900000001,116.39670900000002,74.0,90.0
193,116.47607400000001,116.60107387500001,72.0,87.0
194,116.71416900000001,117.66654900000002,74.0,102.0
195,117.66654900000002,118.005834375,69.0,105.0
196,118.142739,118.32726262500002,72.0,87.0
197,118.38083400000001,118.49392912500001,74.0,87.0
198,118.61892900000001,119.25384900000002,74.0,95.0
199,119.33321400000001,122.17448100000001,72.0,95.0
200,141.47604900000002,141.88081050000002,64.0,93.0
201,141.95223900000002,142.095096,64.0,85.0
202,142.190334,142.33319100000003,64.0,83.0
203,142.42842900000002,142.64668275000002,64.0,93.0
204,142.666524,142.81334925000002,62.0,70.0
205,142.90461900000003,143.08914262500002,60.0,90.0
206,143.142714,143.87882437500002,64.0,95.0
207,144.57128400000002,144.714141,64.0,102.0
208,144.809379,144.95818837500002,67.0,87.0
209,145.04747400000002,145.22406112500002,69.0,93.0
210,145.285569,145.61096550000002,67.0,87.0
211,145.761759,145.898663625,67.0,87.0
212,145.99985400000003,146.331202875,67.0,90.0
213,146.476044,146.88278962500002,64.0,87.0
214,146.952234,148.85699400000001,62.0,93.0
215,149.09508900000003,149.23596187500002,69.0,93.0
216,149.33318400000002,149.45619975000002,69.0,93.0
217,149.571279,149.71810425,69.0,93.0
218,149.80937400000002,149.9442945,67.0,72.0
219,150.047469,150.636754125,69.0,90.0
220,150.76175400000002,150.89270625,72.0,93.0
221,150.999849,151.64667375000002,67.0,90.0
222,151.95222900000002,152.08318125000002,64.0,70.0
223,152.190324,152.33714925,62.0,93.0
224,152.42841900000002,152.56532362500002,60.0,87.0
225,152.666514,152.78556150000003,62.0,74.0
226,152.90460900000002,153.28556100000003,64.0,90.0
227,153.38079900000002,153.51571950000002,67.0,85.0
228,153.618894,154.00778250000002,62.0,83.0
229,154.095084,154.48397250000002,67.0,102.0
230,154.57127400000002,156.01770112500003,60.0,93.0
231,155.99984400000002,156.093097875,69.0,95.0
232,156.237939,156.38674837500002,69.0,102.0
233,156.47603400000003,156.59904975,71.0,90.0
234,156.714129,156.8966685,72.0,83.0
235,156.95222400000003,157.06333500000002,71.0,80.0
236,157.19031900000002,157.32722362500002,69.0,87.0
237,157.428414,157.78952475000003,69.0,95.0
238,157.904604,158.01373087500002,69.0,93.0
239,158.14269900000002,158.32722262500002,69.0,95.0
240,158.380794,158.48793675000002,72.0,90.0
241,158.61888900000002,158.73793650000002,69.0,102.0
242,158.856984,158.95817437500003,67.0,80.0
243,159.09507900000003,159.21412650000002,64.0,87.0
244,159.333174,159.76571325,67.0,87.0
245,160.28555400000002,160.41650625000003,67.0,87.0
246,160.523649,160.81928362500003,72.0,93.0
247,160.999839,161.32523550000002,72.0,83.0
248,161.476029,161.82920325,71.0,93.0
249,161.952219,162.136742625,67.0,80.0
250,162.19031400000003,163.60499512500002,69.0,74.0
251,164.33316900000003,164.48594662500003,72.0,87.0
252,164.571264,164.70221625000002,71.0,68.0
253,164.80935900000003,164.92047000000002,69.0,93.0
254,165.04745400000002,165.87880237500002,72.0,93.0
255,166.237929,166.41054787500002,71.0,93.0
256,166.47602400000002,166.954198125,67.0,87.0
257,166.95221400000003,167.50776900000002,72.0,83.0
258,167.66649900000002,167.79745125000002,71.0,93.0
259,167.90459400000003,170.34308362500002,69.0,102.0
260,171.23792400000002,171.36093975000003,67.0,87.0
261,171.476019,171.581177625,67.0,102.0
262,171.71411400000002,171.847050375,67.0,102.0
263,171.952209,172.07720887500003,76.0,102.0
264,172.19030400000003,172.28752612500003,76.0,93.0
265,172.428399,172.5474465,76.0,93.0
266,172.66649400000003,172.77363675,74.0,93.0
267,172.90458900000002,173.23395375,76.0,103.0
268,173.38077900000002,173.52165187500003,72.0,80.0
269,173.618874,174.77363475,74.0,93.0
270,175.047444,175.20418987500003,69.0,103.0
271,175.28553900000003,175.42244362500003,74.0,93.0
272,175.52363400000002,175.6585545,69.0,105.0
273,175.76172900000003,176.09704612500002,72.0,95.0
274,176.237919,176.37283950000003,74.0,93.0
275,176.47601400000002,176.65458525000003,72.0,87.0
276,176.95220400000002,177.07125150000002,64.0,93.0
277,177.190299,177.31529887500002,69.0,69.0
278,177.42839400000003,177.53950500000002,64.0,95.0
279,177.666489,178.03949665833335,67.0,95.0
280,178.1422633916667,178.26479295833335,69.0,93.0
281,178.3794173916667,178.58099829166667,67.0,87.0
282,179.56518739166668,179.72526634166667,64.0,95.0
283,179.8023413916667,179.90708440833336,62.0,72.0
284,180.0394953916667,180.16795380833335,62.0,87.0
285,180.2766493916667,180.4011552416667,60.0,95.0
286,180.51380339166667,180.847795275,62.0,93.0
287,180.98811139166668,181.11854609166667,72.0,80.0
288,181.22526539166668,181.59680665833335,69.0,95.0
289,181.9367273916667,182.41103539166667,67.0,90.0
290,183.12249739166668,183.28850519166667,67.0,93.0
291,183.3596513916667,183.76478947500001,69.0,103.0
292,183.83395939166667,184.132378175,72.0,93.0
293,184.30826739166667,184.69561892500002,72.0,93.0
294,184.78257539166668,184.94067805833333,74.0,90.0
295,185.0197293916667,185.14423524166668,72.0,87.0
296,185.2568833916667,186.32012382500002,74.0,102.0
297,186.44265339166668,186.56518295833334,67.0,87.0
298,186.67980739166669,186.78455040833336,67.0,102.0
299,186.9169613916667,187.04937237500002,67.0,102.0
300,187.1541153916667,187.27862124166668,76.0,102.0
301,187.39126939166667,187.488107275,76.0,93.0
302,187.62842339166667,187.7470003916667,76.0,93.0
303,187.86557739166668,187.97229669166668,74.0,93.0
304,188.10273139166668,188.43079442500002,76.0,103.0
305,188.57712565,188.717998525,72.0,80.0
306,188.81522065000001,189.9699814,74.0,93.0
307,190.24379065,190.400536525,69.0,103.0
308,190.48188565,190.618790275,74.0,93.0
309,190.71998065,190.85490115000002,69.0,105.0
310,190.95807565,191.19617065,72.0,95.0
311,191.19617065,191.43426565000001,72.0,95.0
312,191.43426565000001,191.56918615,74.0,93.0
313,191.67236065,191.8509319,72.0,87.0
314,192.14855065,192.26759815,64.0,93.0
315,192.38664565000002,192.511645525,69.0,69.0
316,192.62474065,192.73585165,64.0,95.0
317,192.86283565000002,193.23585115,67.0,95.0
318,193.33902565,193.4620414,69.0,93.0
319,193.57712065,193.77950140000002,67.0,87.0
320,194.76759565,194.928309775,64.0,95.0
321,195.00569065000002,195.11084927500002,62.0,72.0
322,195.24378565,195.372753775,62.0,87.0
323,195.48188065,195.606880525,60.0,95.0
324,195.71997565,196.055292775,62.0,93.0
325,196.19616565,196.32711790000002,72.0,80.0
326,196.43426065,196.80727615,69.0,95.0
327,197.14854565000002,197.62473565000002,67.0,90.0
328,198.33902065,198.50568715,67.0,93.0
329,198.57711565,198.983861275,69.0,103.0
330,199.05330565,199.352908525,72.0,93.0
331,199.52949565,199.91838415,72.0,93.0
332,200.00568565,200.16441565000002,74.0,90.0
333,200.24378065000002,200.368780525,72.0,87.0
334,200.48187565,201.43425565,74.0,102.0
335,201.43425565,201.77354102500001,69.0,105.0
336,201.91044565,202.094969275,72.0,87.0
337,202.14854065,202.261635775,74.0,87.0
338,202.38663565000002,203.02155565,74.0,95.0
339,205.48187065000002,205.6048864,67.0,87.0
340,205.71996565,205.825124275,67.0,102.0
341,203.10092065,205.94218765,72.0,95.0
342,205.95806065000002,206.090997025,67.0,102.0
343,206.19615565,206.321155525,76.0,102.0
344,206.43425065000002,206.531472775,76.0,93.0
345,206.67234565,206.79139315,76.0,93.0
346,206.91044065,207.0175834,74.0,93.0
347,207.14853565,207.4779004,76.0,103.0
348,207.62472565000002,207.765598525,72.0,80.0
349,207.86282065,209.0175814,74.0,93.0
350,209.29139065,209.448136525,69.0,103.0
351,209.52948565,209.666390275,74.0,93.0
352,209.76758065,209.90250115,69.0,105.0
353,210.00567565,210.34099277500002,72.0,95.0
354,210.48186565,210.61678615,74.0,93.0
355,210.71996065000002,210.89853190000002,72.0,87.0
356,211.19615065000002,211.31519815000001,64.0,93.0
357,211.43424565,211.559245525,69.0,69.0
358,211.67234065000002,211.78345165000002,64.0,95.0
359,211.91043565,212.28345115000002,67.0,95.0
360,212.38662565,212.50964140000002,69.0,93.0
361,212.62472065,212.8271014,67.0,87.0
362,213.81519565000002,213.97590977500002,64.0,95.0
363,214.05329065,214.158449275,62.0,72.0
364,214.29138565,214.42035377500002,62.0,87.0
365,214.52948065,214.654480525,60.0,95.0
366,214.76757565000003,215.10289277500002,62.0,93.0
367,215.24376565,215.3747179,72.0,80.0
368,215.48186065000002,215.85487615,69.0,95.0
369,216.19614565,216.67233565,67.0,90.0
370,217.38662065,217.55328715000002,67.0,93.0
371,217.62471565,218.03146127500003,69.0,103.0
372,218.10090565000002,218.40050852500002,72.0,93.0
373,218.57709565000002,218.96598415,72.0,93.0
374,219.05328565000002,219.21201565,74.0,90.0
375,219.29138065,219.41638052500002,72.0,87.0
376,219.52947565000002,220.5969349,74.0,102.0
377,220.71995065000002,220.84296640000002,67.0,87.0
378,220.95804565,221.063204275,67.0,102.0
379,221.19614065000002,221.329077025,67.0,102.0
380,221.43423565,221.55923552500002,76.0,102.0
381,221.67233065000002,221.76955277500002,76.0,93.0
382,221.91042565,222.02947315,76.0,93.0
383,222.14852065000002,222.2556634,74.0,93.0
384,222.38661565,222.7159804,76.0,103.0
385,222.86280565,223.003678525,72.0,80.0
386,223.10090065000003,224.2556614,74.0,93.0
387,224.52947065,224.68621652500002,69.0,103.0
388,224.76756565,224.904470275,74.0,93.0
389,225.00566065,225.14058115,69.0,105.0
390,225.24375565000003,225.48185065,72.0,95.0
391,225.48185065,225.71994565,72.0,95.0
392,225.71994565,225.85486615000002,74.0,93.0
393,225.95804065000002,226.13661190000002,72.0,87.0
394,226.43423065000002,226.55327815,64.0,93.0
395,226.67232565,226.79732552500002,69.0,69.0
396,226.91042065000002,227.02153165000001,64.0,95.0
397,227.14851565,227.52153115000002,67.0,95.0
398,227.62470565,227.74772140000002,69.0,93.0
399,227.86280065,228.06518140000003,67.0,87.0
400,229.05327565000002,229.21398977500002,64.0,95.0
401,229.29137065,229.396529275,62.0,72.0
402,229.52946565000002,229.65843377500002,62.0,87.0
403,229.76756065,229.89256052500002,60.0,95.0
404,230.00565565,230.340972775,62.0,93.0
405,230.48184565000003,230.6127979,72.0,80.0
406,230.71994065,231.09295615000002,69.0,95.0
407,231.43422565,231.91041565,67.0,90.0
408,232.62470065000002,232.79136715,67.0,93.0
409,232.86279565,233.269541275,69.0,103.0
410,233.33898565,233.63858852500002,72.0,93.0
411,233.81517565000001,234.20406415000002,72.0,93.0
412,234.29136565000002,234.45009565,74.0,90.0
413,234.52946065,234.65446052500002,72.0,87.0
414,234.76755565000002,235.71993565000002,74.0,102.0
415,235.71993565000002,236.059221025,69.0,105.0
416,236.19612565,236.380649275,72.0,87.0
417,236.43422065000001,236.54731577500002,74.0,87.0
418,236.67231565000003,237.30723565,74.0,95.0
419,237.38660065000002,240.22786765,72.0,95.0
