,start,end,pitch,velocity
0,0.7202373750000001,1.331347875,57.0,60.0
1,0.7301580000000001,1.4920620000000002,45.0,65.0
2,0.71031675,1.52777625,60.0,60.0
3,1.1904750000000002,1.6190460000000002,52.0,31.0
4,1.7242046250000003,2.2499977500000004,43.0,39.0
5,1.6924586250000002,2.2757913750000003,55.0,43.0
6,1.6904745,2.67856875,59.0,51.0
7,2.7142830000000004,3.3869013750000003,53.0,56.0
8,2.720235375,3.4622981250000002,41.0,70.0
9,2.71031475,3.6567423750000003,57.0,65.0
10,3.2162666250000003,3.6686471250000006,48.0,37.0
11,3.7341232500000006,4.267852875000001,40.0,41.0
12,3.7222185000000003,4.315471875,52.0,65.0
13,3.7103137500000005,4.335313125000001,55.0,71.0
14,4.775788875000001,4.876979250000001,38.0,80.0
15,4.779757125000001,4.940471250000001,50.0,58.0
16,4.779757125000001,4.9444395000000005,53.0,70.0
17,5.263883625000001,5.515867500000001,50.0,36.0
18,5.809518000000001,6.424596750000001,60.0,59.0
19,5.79761325,6.575390250000001,48.0,68.0
20,5.803565625000001,6.783723375000001,64.0,71.0
21,6.32142225,6.801580500000001,55.0,41.0
22,6.82935825,7.341262500000001,47.0,59.0
23,6.82935825,7.575389250000001,59.0,58.0
24,6.82935825,7.787690625000001,62.0,69.0
25,9.323403375000002,9.867053625,56.0,69.0
26,8.823403875,9.884910750000001,52.0,95.0
27,9.823402875000001,10.601179875000001,59.0,74.0
28,10.771814625000001,11.815464375000001,56.0,61.0
29,10.242053250000001,11.821416750000001,52.0,66.0
30,10.767846375000001,11.837289750000002,59.0,55.0
31,10.777767,11.843242125000002,64.0,68.0
32,8.349198000000001,11.857131,47.0,59.0
33,7.831341375000001,11.874988125000002,40.0,74.0
34,12.428559000000002,13.1983995,57.0,80.0
35,13.142844000000002,13.418637375000001,60.0,83.0
36,12.666654000000001,13.484113500000001,64.0,93.0
37,11.952369000000001,13.617049875000001,45.0,83.0
38,12.190464000000002,13.624986375,52.0,64.0
39,13.380939000000001,13.827367125000002,57.0,70.0
40,13.619034000000001,14.613080625000002,64.0,102.0
41,14.333319000000001,14.674588500000002,53.0,93.0
42,14.571414,15.273794250000002,57.0,87.0
43,13.857129000000002,15.589270125000002,41.0,72.0
44,14.095224000000002,15.591254250000002,48.0,66.0
45,15.285699000000001,15.601174875000002,60.0,90.0
46,15.523794000000002,15.811492125000001,53.0,95.0
47,16.238079000000003,16.609110375,55.0,93.0
48,16.476174,16.999983,62.0,83.0
49,15.999984000000001,17.285697000000003,50.0,66.0
50,15.761889000000002,17.357125500000002,43.0,80.0
51,16.952364000000003,17.464268250000003,59.0,93.0
52,17.428554000000002,17.70236325,55.0,74.0
53,18.142839000000002,18.867044625000002,52.0,87.0
54,18.857124000000002,19.1349015,59.0,68.0
55,17.666649000000003,19.267837875,40.0,74.0
56,17.904744,19.283710875,47.0,56.0
57,18.380934000000003,19.3412505,64.0,103.0
58,19.095219000000004,19.376964750000003,52.0,93.0
59,19.333314,19.573393125000003,59.0,80.0
60,20.047599,20.339265375000004,57.0,102.0
61,20.285694000000003,20.746011000000003,64.0,105.0
62,20.761884000000002,20.984106,60.0,103.0
63,19.809504,21.045613875,52.0,68.0
64,19.571409000000003,21.119026500000004,45.0,80.0
65,20.999979000000003,21.257915250000003,57.0,85.0
66,21.238074,21.968232000000004,60.0,85.0
67,21.952359,22.253946000000003,53.0,74.0
68,22.190454000000003,22.80553275,60.0,87.0
69,21.476169000000002,22.982119875000002,41.0,87.0
70,21.714264000000004,23.037675375000003,48.0,60.0
71,22.666644,23.150770500000004,65.0,87.0
72,22.904739000000003,23.192437125,53.0,93.0
73,23.142834000000004,23.484103500000003,60.0,74.0
74,23.857119,24.168626625,55.0,83.0
75,24.095214000000002,24.613070625000002,62.0,83.0
76,24.571404,24.890848125,67.0,83.0
77,23.380929000000002,25.089260625,43.0,74.0
78,23.619024000000003,25.134895500000002,50.0,50.0
79,24.809499000000002,25.494022125000004,55.0,68.0
80,25.047594000000004,25.726164750000002,62.0,80.0
81,25.761879000000004,26.063466000000002,55.0,74.0
82,25.999974,26.740052625000004,59.0,87.0
83,25.523784000000003,27.124972875000005,50.0,66.0
84,26.714259000000002,27.126957000000004,62.0,74.0
85,26.952354000000003,27.128941125000004,55.0,65.0
86,25.285689,27.154734750000003,43.0,85.0
87,27.666639000000004,27.972194250000005,57.0,67.0
88,27.904734,28.692431625000005,64.0,95.0
89,27.190449000000005,28.920606000000003,45.0,83.0
90,27.428544000000002,28.922590125000003,52.0,54.0
91,28.857114000000003,29.650764000000002,64.0,93.0
92,29.571399000000003,29.912668500000002,57.0,68.0
93,29.809494000000004,29.922589125000002,64.0,49.0
94,29.809494000000004,30.204334875000004,69.0,103.0
95,29.333304000000002,30.267826875000004,52.0,63.0
96,29.095209000000004,30.343223625000004,45.0,85.0
97,30.285684000000003,30.529731375000004,64.0,95.0
98,30.523779000000005,30.789651750000004,57.0,87.0
99,30.761874000000002,31.069413375000003,64.0,87.0
100,30.999969000000004,32.589253125000006,40.0,80.0
101,31.238064000000005,32.609094375000005,47.0,53.0
102,31.476159000000003,32.680522875,52.0,80.0
103,31.714254000000004,32.757903750000004,59.0,83.0
104,32.666634,33.077347875,64.0,80.0
105,33.380919000000006,33.7063155,55.0,67.0
106,33.61901400000001,33.94837875,59.0,87.0
107,33.142824000000005,34.244013375,50.0,53.0
108,34.095204,34.337267250000004,55.0,87.0
109,32.904729,34.567425750000005,43.0,69.0
110,34.095204,34.63885425,62.0,87.0
111,34.333299000000004,34.740044625,50.0,69.0
112,34.571394000000005,34.825362000000005,55.0,93.0
113,35.285679,35.605123125000006,53.0,85.0
114,35.523774,36.031710000000004,60.0,93.0
115,35.047584,36.11305912500001,48.0,59.0
116,35.999964000000006,36.3253605,57.0,93.0
117,34.809489000000006,36.470201625,41.0,87.0
118,36.23805900000001,36.573376125,48.0,68.0
119,36.476154,36.698376,53.0,93.0
120,37.190439000000005,37.492026,55.0,85.0
121,37.428534000000006,37.863057375000004,62.0,102.0
122,37.904724,38.120993625000004,59.0,74.0
123,38.142819,38.291628375,55.0,87.0
124,36.952344000000004,38.347183875000006,50.0,52.0
125,36.714249,38.402739375,43.0,87.0
126,38.619009000000005,38.888850000000005,60.0,102.0
127,38.85710400000001,39.162659250000004,55.0,83.0
128,38.619009000000005,39.36702412500001,48.0,74.0
129,39.095199,39.37694475000001,60.0,80.0
130,39.333294,39.527738250000006,64.0,80.0
131,39.571389,39.696388875000004,59.0,66.0
132,39.571389,40.049563125000006,62.0,83.0
133,39.571389,40.188451875000005,47.0,85.0
134,39.809484000000005,40.198372500000005,53.0,74.0
135,40.047579000000006,40.315435875000006,59.0,74.0
136,40.28567400000001,40.464245250000005,62.0,71.0
137,40.523769,40.771784625,57.0,80.0
138,40.523769,40.988054250000005,60.0,71.0
139,40.999959000000004,41.240038125000005,57.0,74.0
140,41.238054000000005,41.73805350000001,64.0,102.0
141,40.761864,41.809482,52.0,68.0
142,40.523769,41.896783500000005,45.0,74.0
143,41.71424400000001,41.97813262500001,60.0,80.0
144,41.952339,42.3412275,57.0,87.0
145,42.90471900000001,43.43646450000001,53.0,87.0
146,43.142814,43.597178625000005,60.0,93.0
147,43.619004000000004,43.837257750000006,57.0,93.0
148,42.428529000000005,43.96424175000001,41.0,80.0
149,42.666624000000006,44.07535275000001,48.0,68.0
150,43.857099000000005,44.08130512500001,53.0,72.0
151,44.809479,45.093208875,55.0,83.0
152,45.047574000000004,45.50590687500001,59.0,87.0
153,45.52376400000001,45.745986,62.0,90.0
154,45.76185900000001,45.968208000000004,55.0,47.0
155,44.571384,46.02971587500001,50.0,60.0
156,44.33328900000001,46.065430125000006,43.0,87.0
157,46.238049000000004,46.355112375000004,55.0,74.0
158,46.238049000000004,46.56146137500001,64.0,93.0
159,46.476144000000005,46.775746875,55.0,83.0
160,46.714239000000006,47.07931800000001,60.0,80.0
161,46.238049000000004,47.150746500000004,48.0,83.0
162,47.428524,47.47812712500001,55.0,52.0
163,47.190429,47.684476125,59.0,80.0
164,47.190429,47.81344425,62.0,80.0
165,47.666619000000004,47.952333,55.0,105.0
166,47.190429,48.033682125000006,47.0,87.0
167,47.904714000000006,48.14479312500001,62.0,93.0
168,48.14280900000001,48.53764987500001,60.0,105.0
169,48.618999,48.78566550000001,57.0,80.0
170,48.857094000000004,49.365030000000004,60.0,93.0
171,48.38090400000001,49.470188625000006,52.0,74.0
172,48.14280900000001,49.54558537500001,45.0,80.0
173,49.333284000000006,49.615029750000005,64.0,93.0
174,49.57137900000001,49.857093000000006,57.0,66.0
175,49.80947400000001,50.450346375,60.0,61.0
176,50.523759000000005,50.85907612500001,53.0,64.0
177,50.76185400000001,51.105107625,57.0,95.0
178,51.238044,51.696376875000006,60.0,95.0
179,51.476139,51.7539165,53.0,80.0
180,50.285664000000004,51.817408500000006,48.0,55.0
181,50.047569,51.825345000000006,41.0,83.0
182,51.714234000000005,51.93248775000001,57.0,87.0
183,52.42851900000001,52.59320137500001,52.0,93.0
184,52.666614,53.09716912500001,59.0,93.0
185,52.19042400000001,53.23407375000001,47.0,64.0
186,51.952329000000006,53.251930875000006,40.0,87.0
187,53.142804000000005,53.34121650000001,55.0,87.0
188,53.38089900000001,53.458279875,52.0,64.0
189,53.85708900000001,54.341215500000004,57.0,74.0
190,53.85708900000001,54.374945625,60.0,80.0
191,54.333279000000005,54.720183375000005,52.0,60.0
192,54.571374000000006,54.823357875000006,57.0,93.0
193,54.571374000000006,54.855103875000005,64.0,85.0
194,54.80946900000001,55.111056000000005,52.0,56.0
195,55.04756400000001,55.33526212500001,60.0,87.0
196,55.04756400000001,55.34121450000001,57.0,80.0
197,53.85708900000001,55.57137300000001,45.0,87.0
198,55.285659,55.59716662500001,52.0,70.0
199,55.523754000000004,55.67851575,59.0,74.0
200,55.761849000000005,56.49795937500001,57.0,87.0
201,55.761849000000005,56.573356125000004,60.0,80.0
202,56.47613400000001,56.783673375000006,52.0,66.0
203,56.714229,57.02573662500001,57.0,80.0
204,56.714229,57.051530250000006,64.0,87.0
205,56.714229,57.13287937500001,60.0,87.0
206,56.952324000000004,57.30549825000001,52.0,72.0
207,55.761849000000005,57.335260125000005,45.0,83.0
208,57.190419000000006,57.355101375000004,57.0,102.0
209,58.142799000000004,58.44835425000001,57.0,67.0
210,58.380894000000005,59.168591625000005,64.0,95.0
211,57.66660900000001,59.39676600000001,45.0,83.0
212,57.90470400000001,59.39875012500001,52.0,54.0
213,59.333274,60.12692400000001,64.0,93.0
214,60.04755900000001,60.38882850000001,57.0,68.0
215,60.28565400000001,60.39874912500001,64.0,49.0
216,60.28565400000001,60.68049487500001,69.0,103.0
217,59.809464000000006,60.743986875000004,52.0,63.0
218,59.571369000000004,60.81938362500001,45.0,85.0
219,60.761844,61.005891375000004,64.0,95.0
220,60.999939000000005,61.265811750000005,57.0,87.0
221,61.238034000000006,61.545573375000004,64.0,87.0
222,61.47612900000001,63.065413125000006,40.0,80.0
223,61.71422400000001,63.085254375000005,47.0,53.0
224,61.95231900000001,63.15668287500001,52.0,80.0
225,62.190414000000004,63.234063750000004,59.0,83.0
226,63.14279400000001,63.55350787500001,64.0,80.0
227,63.857079000000006,64.18247550000001,55.0,67.0
228,64.095174,64.42453875000001,59.0,87.0
229,63.618984000000005,64.720173375,50.0,53.0
230,64.571364,64.81342725,55.0,87.0
231,63.380889,65.04358575,43.0,69.0
232,64.571364,65.11501425,62.0,87.0
233,64.809459,65.216204625,50.0,69.0
234,65.047554,65.301522,55.0,93.0
235,65.76183900000001,66.08128312500001,53.0,85.0
236,65.99993400000001,66.50787000000001,60.0,93.0
237,65.52374400000001,66.58921912500001,48.0,59.0
238,66.47612400000001,66.80152050000001,57.0,93.0
239,65.285649,66.94636162500001,41.0,87.0
240,66.71421900000001,67.049536125,48.0,68.0
241,66.952314,67.174536,53.0,93.0
242,67.666599,67.968186,55.0,85.0
243,67.904694,68.339217375,62.0,102.0
244,68.38088400000001,68.597153625,59.0,74.0
245,68.61897900000001,68.76778837500001,55.0,87.0
246,67.428504,68.823343875,50.0,52.0
247,67.190409,68.878899375,43.0,87.0
248,69.09516900000001,69.36501000000001,60.0,102.0
249,69.33326400000001,69.63881925000001,55.0,83.0
250,69.09516900000001,69.84318412500001,48.0,74.0
251,69.571359,69.85310475000001,60.0,80.0
252,69.809454,70.00389825,64.0,80.0
253,70.047549,70.172548875,59.0,66.0
254,70.047549,70.52572312500001,62.0,83.0
255,70.047549,70.664611875,47.0,85.0
256,70.285644,70.67453250000001,53.0,74.0
257,70.523739,70.79159587500001,59.0,74.0
258,70.76183400000001,70.94040525000001,62.0,71.0
259,70.99992900000001,71.247944625,57.0,80.0
260,70.99992900000001,71.46421425000001,60.0,71.0
261,71.47611900000001,71.716198125,57.0,74.0
262,71.71421400000001,72.21421350000001,64.0,102.0
263,71.23802400000001,72.28564200000001,52.0,68.0
264,70.99992900000001,72.3729435,45.0,74.0
265,72.190404,72.45429262500001,60.0,80.0
266,72.428499,72.81738750000001,57.0,87.0
267,73.38087900000001,73.9126245,53.0,87.0
268,73.61897400000001,74.073338625,60.0,93.0
269,74.09516400000001,74.31341775000001,57.0,93.0
270,72.904689,74.44040175,41.0,80.0
271,73.142784,74.55151275000001,48.0,68.0
272,74.33325900000001,74.55746512500001,53.0,72.0
273,75.285639,75.56936887500001,55.0,83.0
274,75.523734,75.982066875,59.0,87.0
275,75.99992400000001,76.22214600000001,62.0,90.0
276,76.23801900000001,76.44436800000001,55.0,47.0
277,75.047544,76.50587587500002,50.0,60.0
278,74.80944900000001,76.54159012500001,43.0,87.0
279,76.71420900000001,76.83127237500001,55.0,74.0
280,76.71420900000001,77.03762137500001,64.0,93.0
281,76.95230400000001,77.251906875,55.0,83.0
282,77.19039900000001,77.55547800000001,60.0,80.0
283,76.71420900000001,77.6269065,48.0,83.0
284,77.904684,77.95428712500001,55.0,52.0
285,77.666589,78.16063612500001,59.0,80.0
286,77.666589,78.28960425000001,62.0,80.0
287,78.142779,78.428493,55.0,105.0
288,77.666589,78.509842125,47.0,87.0
289,78.380874,78.62095312500001,62.0,93.0
290,78.618969,79.013809875,60.0,105.0
291,79.09515900000001,79.26182550000001,57.0,80.0
292,79.33325400000001,79.84119000000001,60.0,93.0
293,78.85706400000001,79.94634862500001,52.0,74.0
294,78.618969,80.02174537500001,45.0,80.0
295,79.80944400000001,80.09118975000001,64.0,93.0
296,80.04753900000001,80.33325300000001,57.0,66.0
297,80.285634,80.926506375,60.0,61.0
298,80.999919,81.33523612500001,53.0,64.0
299,81.238014,81.58126762500001,57.0,95.0
300,81.71420400000001,82.172536875,60.0,95.0
301,81.95229900000001,82.23007650000001,53.0,80.0
302,80.761824,82.2935685,48.0,55.0
303,80.523729,82.301505,41.0,83.0
304,82.19039400000001,82.40864775000001,57.0,87.0
305,82.90467900000002,83.06936137500001,52.0,93.0
306,83.142774,83.57332912500001,59.0,93.0
307,82.66658400000001,83.71023375000001,47.0,64.0
308,82.42848900000001,83.728090875,40.0,87.0
309,83.618964,83.81737650000001,55.0,87.0
310,83.857059,83.93443987500001,52.0,64.0
311,84.33324900000001,84.81737550000001,57.0,74.0
312,84.33324900000001,84.851105625,60.0,80.0
313,84.80943900000001,85.19634337500001,52.0,60.0
314,85.04753400000001,85.299517875,57.0,93.0
315,85.04753400000001,85.331263875,64.0,85.0
316,85.28562900000001,85.58721600000001,52.0,56.0
317,85.52372400000002,85.811422125,60.0,87.0
318,85.52372400000002,85.81737450000001,57.0,80.0
319,84.33324900000001,86.04753300000002,45.0,87.0
320,85.761819,86.073326625,52.0,70.0
321,85.999914,86.15467575000001,59.0,74.0
322,86.238009,86.97411937500001,57.0,87.0
323,86.238009,87.04951612500001,60.0,80.0
324,86.95229400000001,87.25983337500001,52.0,66.0
325,87.19038900000001,87.50189662500001,57.0,80.0
326,87.19038900000001,87.52769025,64.0,87.0
327,87.19038900000001,87.60903937500001,60.0,87.0
328,87.42848400000001,87.78165825,52.0,72.0
329,86.238009,87.81142012500001,45.0,83.0
330,87.66657900000001,87.83126137500001,57.0,102.0
331,88.14276900000002,88.27372125000001,55.0,87.0
332,88.14276900000002,88.40864175000002,60.0,80.0
333,88.380864,88.700308125,55.0,83.0
334,88.618959,88.771736625,60.0,70.0
335,88.857054,89.23006950000001,64.0,102.0
336,89.33324400000001,89.58125962500002,60.0,105.0
337,88.14276900000002,89.86300537500001,48.0,74.0
338,89.57133900000001,89.86697362500001,55.0,87.0
339,89.80943400000001,89.95625925000002,60.0,102.0
340,90.04752900000001,90.263798625,62.0,87.0
341,90.28562400000001,90.577290375,57.0,68.0
342,90.52371900000001,90.78165525000001,62.0,70.0
343,90.76181400000002,91.15665487500002,65.0,102.0
344,91.238004,91.42649587500001,62.0,95.0
345,91.476099,91.7538765,57.0,87.0
346,90.04752900000001,91.76578125,50.0,80.0
347,91.714194,91.851098625,62.0,80.0
348,91.95228900000001,92.422526625,60.0,95.0
349,92.42847900000001,92.54157412500001,57.0,80.0
350,92.66657400000001,92.97411337500002,57.0,95.0
351,92.66657400000001,93.01379587500001,64.0,93.0
352,92.19038400000001,93.08522437500001,52.0,66.0
353,91.95228900000001,93.14673225000001,45.0,74.0
354,93.14276400000001,93.25982737500001,57.0,93.0
355,93.14276400000001,93.31935112500001,60.0,102.0
356,93.857049,94.12292175,52.0,74.0
357,93.857049,94.33522312500001,55.0,85.0
358,94.333239,94.634826,52.0,87.0
359,94.095144,94.650699,47.0,59.0
360,94.57133400000001,95.06736525000001,59.0,105.0
361,93.857049,95.23006350000001,40.0,80.0
362,95.04752400000001,95.263793625,55.0,103.0
363,94.80942900000001,95.31736500000001,47.0,72.0
364,95.28561900000001,95.37887287500001,52.0,102.0
365,95.76180900000001,95.95823737500001,57.0,80.0
366,95.76180900000001,96.07926900000001,62.0,74.0
367,95.99990400000002,96.27569737500001,57.0,87.0
368,96.23799900000002,96.47212575,62.0,80.0
369,96.476094,96.82926825000001,65.0,103.0
370,95.76180900000001,97.05149025000001,50.0,87.0
371,96.952284,97.15863300000001,62.0,95.0
372,97.19037900000001,97.47410887500001,57.0,87.0
373,97.42847400000001,98.26577475,62.0,74.0
374,98.14275900000001,98.43640950000001,52.0,93.0
375,98.38085400000001,98.82331387500001,59.0,90.0
376,97.66656900000001,99.02569462500001,40.0,68.0
377,97.90466400000001,99.07529775,47.0,63.0
378,98.85704400000002,99.10505962500001,55.0,95.0
379,99.09513900000002,99.37093237500001,52.0,93.0
380,99.333234,99.47609100000001,55.0,103.0
381,99.571329,100.03759837500002,57.0,95.0
382,100.04751900000001,100.349106,53.0,87.0
383,100.28561400000001,100.62093112500001,57.0,103.0
384,100.76180400000001,101.05743862500002,60.0,93.0
385,99.571329,101.20823212500001,41.0,85.0
386,100.99989900000001,101.287597125,53.0,87.0
387,99.809424,101.33323200000001,48.0,45.0
388,101.23799400000001,101.37291450000001,57.0,93.0
389,101.47608900000002,101.71021575000002,55.0,72.0
390,101.47608900000002,101.75783475000001,59.0,85.0
391,101.952279,102.065374125,55.0,85.0
392,101.71418400000002,102.28362787500001,50.0,66.0
393,102.190374,102.42053250000001,59.0,102.0
394,102.190374,102.444342,55.0,93.0
395,102.428469,102.74592900000002,50.0,74.0
396,101.47608900000002,102.74791312500001,43.0,87.0
397,102.66656400000001,102.93838912500001,55.0,87.0
398,102.66656400000001,102.95426212500001,62.0,93.0
399,102.90465900000001,103.09116675000001,50.0,66.0
400,102.90465900000001,103.11100800000001,43.0,68.0
401,103.38084900000001,103.51775362500001,55.0,87.0
402,103.38084900000001,103.62688050000001,60.0,83.0
403,103.61894400000001,103.89672150000001,55.0,80.0
404,103.85703900000001,103.93441987500002,60.0,65.0
405,104.09513400000002,104.27172112500001,55.0,93.0
406,104.09513400000002,104.28957825,64.0,102.0
407,104.571324,104.676482625,55.0,93.0
408,104.571324,104.793546,60.0,93.0
409,103.38084900000001,105.10505362500001,48.0,74.0
410,104.809419,105.10902187500001,55.0,87.0
411,105.047514,105.20227575000001,60.0,72.0
412,105.28560900000001,105.50981512500002,62.0,87.0
413,105.52370400000001,105.80148150000001,57.0,74.0
414,105.76179900000001,105.87886237500001,62.0,74.0
415,105.99989400000001,106.15465575000002,65.0,93.0
416,105.99989400000001,106.16060812500001,57.0,95.0
417,106.47608400000001,106.58322675000001,57.0,87.0
418,106.47608400000001,106.65267112500001,62.0,93.0
419,106.71417900000002,106.88679787500001,57.0,93.0
420,105.28560900000001,106.97409937500001,50.0,93.0
421,107.19036900000002,107.42647987500001,57.0,72.0
422,107.19036900000002,107.54354325000001,60.0,74.0
423,107.666559,107.75584462500001,57.0,68.0
424,107.428464,107.96417775,52.0,69.0
425,107.90465400000001,108.13481250000001,57.0,95.0
426,107.90465400000001,108.19433625,64.0,93.0
427,108.14274900000001,108.460209,52.0,68.0
428,108.38084400000001,108.50584387500001,57.0,90.0
429,107.19036900000002,108.54949462500001,45.0,80.0
430,108.38084400000001,108.63282787500002,60.0,93.0
431,108.61893900000001,108.92251012500002,57.0,93.0
432,108.85703400000001,109.55941425000002,60.0,87.0
433,109.57131900000002,109.73600137500001,52.0,95.0
434,109.33322400000002,109.85901712500001,47.0,55.0
435,109.80941400000002,110.0554455,55.0,105.0
436,109.09512900000001,110.39076262500001,40.0,83.0
437,110.285604,110.45028637500002,59.0,74.0
438,110.047509,110.45227050000001,47.0,71.0
439,110.285604,110.50385775000001,52.0,87.0
440,110.99988900000001,111.43639650000001,69.0,87.0
441,111.47607900000001,111.67647562500001,62.0,93.0
442,111.23798400000001,111.84314212500001,57.0,67.0
443,110.99988900000001,112.39076062500001,50.0,80.0
444,112.19036400000002,112.40266537500001,57.0,87.0
445,111.71417400000001,112.42250662500001,65.0,93.0
446,112.42845900000002,112.98798225000002,62.0,93.0
447,112.904649,113.21814075000002,64.0,87.0
448,113.38083900000001,113.53956900000001,64.0,103.0
449,113.61893400000001,113.79552112500001,67.0,93.0
450,114.09512400000001,114.24988575000002,64.0,95.0
451,114.09512400000001,114.343139625,71.0,93.0
452,112.904649,114.36496500000001,40.0,80.0
453,113.14274400000001,114.42052050000001,47.0,65.0
454,114.33321900000001,114.59909175000001,67.0,74.0
455,114.57131400000002,114.67647262500002,64.0,87.0
456,114.80940900000002,115.04551987500001,65.0,66.0
457,114.80940900000002,115.18639275000001,69.0,93.0
458,115.28559900000002,115.45623375000001,60.0,95.0
459,115.523694,115.59512250000002,60.0,52.0
460,115.04750400000002,115.652662125,48.0,66.0
461,115.523694,115.74591600000001,65.0,102.0
462,115.99988400000001,116.184407625,60.0,85.0
463,114.80940900000002,116.19432825000001,41.0,83.0
464,115.99988400000001,116.25782025000001,69.0,93.0
465,115.76178900000001,116.26774087500002,48.0,68.0
466,116.23797900000001,116.50385175000001,65.0,64.0
467,116.47607400000001,116.61496275000002,60.0,74.0
468,116.71416900000001,116.97210525000001,62.0,68.0
469,116.71416900000001,117.22607325000001,67.0,65.0
470,117.19035900000002,117.29750175000001,62.0,87.0
471,116.95226400000001,117.49988250000001,50.0,68.0
472,117.42845400000002,117.743929875,62.0,93.0
473,117.42845400000002,117.83519962500002,71.0,90.0
474,117.90464400000002,118.18242150000002,67.0,93.0
475,116.71416900000001,118.52369100000001,43.0,80.0
476,118.142739,118.58519887500002,62.0,93.0
477,117.66654900000002,118.59115125000001,50.0,69.0
478,119.09511900000001,119.86495950000001,57.0,80.0
479,119.80940400000001,120.085197375,60.0,83.0
480,119.33321400000001,120.15067350000001,64.0,93.0
481,118.61892900000001,120.28360987500001,45.0,83.0
482,118.85702400000001,120.29154637500001,52.0,64.0
483,120.04749900000002,120.49392712500001,57.0,70.0
484,120.28559400000002,121.27964062500001,64.0,102.0
485,120.999879,121.34114850000002,53.0,93.0
486,121.23797400000001,121.94035425000001,57.0,87.0
487,120.52368900000002,122.25583012500002,41.0,72.0
488,120.761784,122.25781425000001,48.0,66.0
489,121.95225900000001,122.26773487500002,60.0,90.0
490,122.19035400000001,122.47805212500002,53.0,95.0
491,122.90463900000002,123.27567037500002,55.0,93.0
492,123.14273400000002,123.66654300000002,62.0,83.0
493,122.66654400000002,123.95225700000002,50.0,66.0
494,122.42844900000001,124.02368550000001,43.0,80.0
495,123.618924,124.13082825000001,59.0,93.0
496,124.09511400000001,124.36892325000001,55.0,74.0
497,124.80939900000001,125.53360462500001,52.0,87.0
498,125.52368400000002,125.80146150000002,59.0,68.0
499,124.33320900000001,125.93439787500002,40.0,74.0
500,124.57130400000001,125.95027087500002,47.0,56.0
501,125.04749400000001,126.00781050000002,64.0,103.0
502,125.76177900000002,126.04352475000002,52.0,93.0
503,125.99987400000002,126.23995312500001,59.0,80.0
504,126.71415900000001,127.00582537500001,57.0,102.0
505,126.95225400000001,127.41257100000001,64.0,105.0
506,127.42844400000001,127.65066600000002,60.0,103.0
507,126.47606400000001,127.71217387500002,52.0,68.0
508,126.237969,127.78558650000001,45.0,80.0
509,127.66653900000001,127.92447525000001,57.0,85.0
510,127.90463400000002,128.634792,60.0,85.0
511,128.618919,128.92050600000002,53.0,74.0
512,128.85701400000002,129.47209275,60.0,87.0
513,128.142729,129.64867987500003,41.0,87.0
514,128.38082400000002,129.70423537500002,48.0,60.0
515,129.33320400000002,129.81733050000003,65.0,87.0
516,129.571299,129.858997125,53.0,93.0
517,129.80939400000003,130.1506635,60.0,74.0
518,130.52367900000002,130.835186625,55.0,83.0
519,130.761774,131.279630625,62.0,83.0
520,131.237964,131.55740812500002,67.0,83.0
521,130.047489,131.755820625,43.0,74.0
522,130.285584,131.8014555,50.0,50.0
523,131.47605900000002,132.16058212500002,55.0,68.0
524,131.714154,132.39272475,62.0,80.0
525,132.42843900000003,132.730026,55.0,74.0
526,132.666534,133.406612625,59.0,87.0
527,132.190344,133.791532875,50.0,66.0
528,133.380819,133.793517,62.0,74.0
529,133.61891400000002,133.79550112500002,55.0,65.0
530,131.95224900000002,133.82129475000002,43.0,85.0
531,134.09510400000002,134.37089737500003,57.0,95.0
532,134.333199,134.42645287500002,62.0,95.0
533,133.857009,134.46415125000001,50.0,83.0
534,134.57129400000002,135.10700775,57.0,90.0
535,134.57129400000002,135.307404375,60.0,93.0
536,135.285579,135.38676937500003,55.0,56.0
537,135.285579,135.4046265,57.0,59.0
538,135.04748400000003,135.59510250000002,52.0,69.0
539,134.57129400000002,135.612959625,45.0,87.0
540,135.52367400000003,135.84510225000002,60.0,69.0
541,136.23795900000002,136.539546,55.0,80.0
542,136.476054,136.64272050000002,59.0,93.0
543,136.952244,137.200259625,62.0,87.0
544,136.952244,137.21216437500001,55.0,74.0
545,135.76176900000002,137.23994212500003,43.0,87.0
546,135.999864,137.27962462500003,50.0,61.0
547,137.19033900000002,137.29748175,59.0,52.0
548,137.66652900000003,137.823274875,57.0,74.0
549,137.66652900000003,137.93041762500002,62.0,83.0
550,137.904624,138.19827450000003,57.0,90.0
551,138.14271900000003,138.283591875,62.0,80.0
552,137.66652900000003,138.28954425,50.0,74.0
553,138.38081400000002,138.910575375,57.0,83.0
554,138.38081400000002,139.09906725000002,60.0,80.0
555,138.85700400000002,139.31732100000002,52.0,68.0
556,138.38081400000002,139.35898762500003,45.0,87.0
557,139.095099,139.38874950000002,57.0,80.0
558,139.33319400000002,139.434384375,60.0,85.0
559,139.571289,140.1347805,59.0,87.0
560,140.047479,140.37684375,55.0,83.0
561,140.28557400000003,140.52565312500002,62.0,87.0
562,140.523669,140.787557625,67.0,103.0
563,140.76176400000003,141.013747875,62.0,90.0
564,140.99985900000001,141.44033475,55.0,83.0
565,141.237954,141.47208075,62.0,74.0
566,139.80938400000002,141.52366800000001,50.0,54.0
567,139.571289,141.553429875,43.0,80.0
568,141.95223900000002,142.25779425000002,57.0,67.0
569,142.190334,142.97803162500003,64.0,95.0
570,141.47604900000002,143.206206,45.0,83.0
571,141.714144,143.20819012500002,52.0,54.0
572,143.142714,143.93636400000003,64.0,93.0
573,143.856999,144.1982685,57.0,68.0
574,144.09509400000002,144.20818912500002,64.0,49.0
575,144.09509400000002,144.48993487500002,69.0,103.0
576,143.61890400000001,144.553426875,52.0,63.0
577,143.38080900000003,144.62882362500002,45.0,85.0
578,144.57128400000002,144.81533137500003,64.0,95.0
579,144.809379,145.07525175,57.0,87.0
580,145.04747400000002,145.35501337500003,64.0,87.0
581,145.285569,146.87485312500002,40.0,80.0
582,145.52366400000002,146.89469437500003,47.0,53.0
583,145.761759,146.96612287500002,52.0,80.0
584,145.99985400000003,147.04350375,59.0,83.0
585,146.952234,147.362947875,64.0,80.0
586,147.66651900000002,147.9919155,55.0,67.0
587,147.904614,148.23397875,59.0,87.0
588,147.428424,148.52961337500003,50.0,53.0
589,148.380804,148.62286725,55.0,87.0
590,147.19032900000002,148.85302575000003,43.0,69.0
591,148.380804,148.92445425000003,62.0,87.0
592,148.61889900000003,149.025644625,50.0,69.0
593,148.85699400000001,149.11096200000003,55.0,93.0
594,149.571279,149.89072312500002,53.0,85.0
595,149.80937400000002,150.31731000000002,60.0,93.0
596,149.33318400000002,150.39865912500002,48.0,59.0
597,150.28556400000002,150.6109605,57.0,93.0
598,149.09508900000003,150.755801625,41.0,87.0
599,150.523659,150.85897612500003,48.0,68.0
600,150.76175400000002,150.983976,53.0,93.0
601,151.47603900000001,151.77762600000003,55.0,85.0
602,151.71413400000003,152.14865737500003,62.0,102.0
603,152.190324,152.40659362500003,59.0,74.0
604,152.42841900000002,152.577228375,55.0,87.0
605,151.23794400000003,152.63278387500003,50.0,52.0
606,150.999849,152.68833937500003,43.0,87.0
607,152.90460900000002,153.17445,60.0,102.0
608,153.142704,153.44825925,55.0,83.0
609,152.90460900000002,153.65262412500002,48.0,74.0
610,153.38079900000002,153.66254475000002,60.0,80.0
611,153.618894,153.81333825000002,64.0,80.0
612,153.85698900000003,153.981988875,59.0,66.0
613,153.85698900000003,154.335163125,62.0,83.0
614,153.85698900000003,154.47405187500001,47.0,85.0
615,154.095084,154.48397250000002,53.0,74.0
616,154.33317900000003,154.601035875,59.0,74.0
617,154.57127400000002,154.74984525000002,62.0,71.0
618,154.809369,155.05738462500003,57.0,80.0
619,154.809369,155.27365425000002,60.0,71.0
620,155.285559,155.52563812500003,57.0,74.0
621,155.52365400000002,156.02365350000002,64.0,102.0
622,155.04746400000002,156.09508200000002,52.0,68.0
623,154.809369,156.18238350000001,45.0,74.0
624,155.99984400000002,156.26373262500002,60.0,80.0
625,156.237939,156.62682750000002,57.0,87.0
626,157.19031900000002,157.72206450000002,53.0,87.0
627,157.428414,157.88277862500001,60.0,93.0
628,157.904604,158.12285775,57.0,93.0
629,156.714129,158.24984175000003,41.0,80.0
630,156.95222400000003,158.36095275000002,48.0,68.0
631,158.14269900000002,158.36690512500002,53.0,72.0
632,159.09507900000003,159.378808875,55.0,83.0
633,159.333174,159.791506875,59.0,87.0
634,159.80936400000002,160.031586,62.0,90.0
635,160.047459,160.25380800000002,55.0,47.0
636,158.856984,160.315315875,50.0,60.0
637,158.61888900000002,160.35103012500002,43.0,87.0
638,160.523649,160.64071237500002,55.0,74.0
639,160.523649,160.847061375,64.0,93.0
640,160.76174400000002,161.06134687500003,55.0,83.0
641,160.999839,161.36491800000002,60.0,80.0
642,160.523649,161.4363465,48.0,83.0
643,161.71412400000003,161.76372712500003,55.0,52.0
644,161.476029,161.97007612500002,59.0,80.0
645,161.476029,162.09904425000002,62.0,80.0
646,161.952219,162.23793300000003,55.0,105.0
647,161.476029,162.31928212500003,47.0,87.0
648,162.19031400000003,162.43039312500002,62.0,93.0
649,162.42840900000002,162.82324987500002,60.0,105.0
650,162.90459900000002,163.0712655,57.0,80.0
651,163.142694,163.65063,60.0,93.0
652,162.666504,163.755788625,52.0,74.0
653,162.42840900000002,163.83118537500002,45.0,80.0
654,163.618884,163.90062975,64.0,93.0
655,163.85697900000002,164.142693,57.0,66.0
656,164.095074,164.73594637500003,60.0,61.0
657,164.80935900000003,165.14467612500002,53.0,64.0
658,165.04745400000002,165.390707625,57.0,95.0
659,165.52364400000002,165.98197687500002,60.0,95.0
660,165.761739,166.03951650000002,53.0,80.0
661,164.571264,166.10300850000002,48.0,55.0
662,164.33316900000003,166.11094500000002,41.0,83.0
663,165.99983400000002,166.21808775000002,57.0,87.0
664,166.714119,166.87880137500002,52.0,93.0
665,166.95221400000003,167.382769125,59.0,93.0
666,166.47602400000002,167.51967375,47.0,64.0
667,166.237929,167.53753087500002,40.0,87.0
668,167.42840400000003,167.62681650000002,55.0,87.0
669,167.66649900000002,167.743879875,52.0,64.0
670,168.14268900000002,168.62681550000002,57.0,74.0
671,168.14268900000002,168.66054562500003,60.0,80.0
672,168.61887900000002,169.00578337500002,52.0,60.0
673,168.856974,169.10895787500002,57.0,93.0
674,168.856974,169.140703875,64.0,85.0
675,169.09506900000002,169.396656,52.0,56.0
676,169.333164,169.62086212500003,60.0,87.0
677,169.333164,169.62681450000002,57.0,80.0
678,168.14268900000002,169.856973,45.0,87.0
679,169.57125900000003,169.88276662500002,52.0,70.0
680,169.809354,169.96411575000002,59.0,74.0
681,170.04744900000003,170.783559375,57.0,87.0
682,170.04744900000003,170.85895612500002,60.0,80.0
683,170.76173400000002,171.06927337500002,52.0,66.0
684,170.999829,171.31133662500002,57.0,80.0
685,170.999829,171.33713025000003,64.0,87.0
686,170.999829,171.41847937500003,60.0,87.0
687,171.23792400000002,171.59109825000002,52.0,72.0
688,170.04744900000003,171.620860125,45.0,83.0
689,171.476019,171.64070137500002,57.0,102.0
690,171.952209,172.08316125000002,55.0,87.0
691,171.952209,172.21808175,60.0,80.0
692,172.19030400000003,172.50974812500002,55.0,83.0
693,172.428399,172.581176625,60.0,70.0
694,172.66649400000003,173.0395095,64.0,102.0
695,173.14268400000003,173.39069962500002,60.0,105.0
696,171.952209,173.67244537500002,48.0,74.0
697,173.38077900000002,173.676413625,55.0,87.0
698,173.618874,173.76569925,60.0,102.0
699,173.85696900000002,174.07323862500002,62.0,87.0
700,174.095064,174.386730375,57.0,68.0
701,174.33315900000002,174.59109525000002,62.0,70.0
702,174.571254,174.966094875,65.0,102.0
703,175.047444,175.23593587500002,62.0,95.0
704,175.28553900000003,175.5633165,57.0,87.0
705,173.85696900000002,175.57522125000003,50.0,80.0
706,175.52363400000002,175.66053862500002,62.0,80.0
707,175.76172900000003,176.231966625,60.0,95.0
708,176.237919,176.351014125,57.0,80.0
709,176.47601400000002,176.78355337500003,57.0,95.0
710,176.47601400000002,176.82323587500002,64.0,93.0
711,175.99982400000002,176.89466437500002,52.0,66.0
712,175.76172900000003,176.95617225,45.0,74.0
713,176.95220400000002,177.069267375,57.0,93.0
714,176.95220400000002,177.12879112500002,60.0,102.0
715,177.666489,177.93236175,52.0,74.0
716,177.666489,178.14423967500002,55.0,85.0
717,178.1422633916667,178.44265845833334,52.0,87.0
718,177.90458400000003,178.45846872500002,47.0,59.0
719,178.3794173916667,178.87348822500002,59.0,105.0
720,177.666489,179.03554345833334,40.0,80.0
721,178.85372539166667,179.06914027500002,55.0,103.0
722,178.61657139166667,179.122499925,47.0,72.0
723,179.09087939166668,179.18376470833334,52.0,102.0
724,179.56518739166668,179.7608394416667,57.0,80.0
725,179.56518739166668,179.881392725,62.0,74.0
726,179.8023413916667,180.07704477500002,57.0,87.0
727,180.0394953916667,180.27269682500003,62.0,80.0
728,180.2766493916667,180.62842782500002,65.0,103.0
729,179.56518739166668,180.84977155833334,50.0,87.0
730,180.75095739166667,180.95649085833335,62.0,95.0
731,180.98811139166668,181.27071990833335,57.0,87.0
732,181.22526539166668,182.05925695833335,62.0,74.0
733,181.9367273916667,182.229217325,52.0,93.0
734,182.17388139166667,182.61459257500002,59.0,90.0
735,181.46241939166669,182.81617347500003,40.0,68.0
736,181.6995733916667,182.86558055833333,47.0,63.0
737,182.64818939166668,182.89522480833335,55.0,95.0
738,182.88534339166668,183.160046775,52.0,93.0
739,183.12249739166668,183.2647897916667,55.0,103.0
740,183.3596513916667,183.82407797500002,57.0,95.0
741,183.83395939166667,184.13435445833335,53.0,87.0
742,184.07111339166667,184.405105275,57.0,103.0
743,184.54542139166668,184.83988760833336,60.0,93.0
744,183.3596513916667,184.99008514166667,41.0,85.0
745,184.78257539166668,185.06913647500002,53.0,87.0
746,183.5968053916667,185.1145909916667,48.0,45.0
747,185.0197293916667,185.15411665833335,57.0,93.0
748,185.2568833916667,185.49008482500003,55.0,72.0
749,185.2568833916667,185.53751562500003,59.0,85.0
750,185.73119139166667,185.84383954166668,55.0,85.0
751,185.49403739166667,186.06123070833334,50.0,66.0
752,185.96834539166667,186.19759425833334,59.0,102.0
753,185.96834539166667,186.22130965833335,55.0,93.0
754,186.20549939166668,186.521704725,50.0,74.0
755,185.2568833916667,186.52368100833334,43.0,87.0
756,186.44265339166668,186.71340420833334,55.0,87.0
757,186.44265339166668,186.72921447500002,62.0,93.0
758,186.67980739166669,186.86557802500002,50.0,66.0
759,186.67980739166669,186.88534085833334,43.0,68.0
760,187.1541153916667,187.2904789416667,55.0,87.0
761,187.1541153916667,187.399174525,60.0,83.0
762,187.39126939166667,187.66794905833333,55.0,80.0
763,187.62842339166667,187.7054984416667,60.0,65.0
764,187.86557739166668,188.04146660833334,55.0,93.0
765,187.86557739166668,188.05925315833335,64.0,102.0
766,188.33988539166668,188.44462840833336,55.0,93.0
767,188.33988539166668,188.56125265,60.0,93.0
768,187.1541153916667,188.87276027500002,48.0,74.0
769,188.57712565,188.876728525,55.0,87.0
770,188.81522065000001,188.96998240000002,60.0,72.0
771,189.05331565,189.277521775,62.0,87.0
772,189.29141065000002,189.56918815,57.0,74.0
773,189.52950565,189.64656902500002,62.0,74.0
774,189.76760065000002,189.9223624,65.0,93.0
775,189.76760065000002,189.92831477500002,57.0,95.0
776,190.24379065,190.3509334,57.0,87.0
777,190.24379065,190.42037777500002,62.0,93.0
778,190.48188565,190.65450452500002,57.0,93.0
779,189.05331565,190.74180602500002,50.0,93.0
780,190.95807565,191.19418652500002,57.0,72.0
781,190.95807565,191.3112499,60.0,74.0
782,191.43426565000001,191.52355127500002,57.0,68.0
783,191.19617065,191.7318844,52.0,69.0
784,191.67236065,191.90251915000002,57.0,95.0
785,191.67236065,191.9620429,64.0,93.0
786,191.91045565000002,192.22791565,52.0,68.0
787,192.14855065,192.27355052500002,57.0,90.0
788,190.95807565,192.317201275,45.0,80.0
789,192.14855065,192.400534525,60.0,93.0
790,192.38664565000002,192.690216775,57.0,93.0
791,192.62474065,193.3271209,60.0,87.0
792,193.33902565,193.503708025,52.0,95.0
793,193.10093065,193.62672377500002,47.0,55.0
794,193.57712065,193.82315215,55.0,105.0
795,192.86283565000002,194.15846927500002,40.0,83.0
796,194.05331065000001,194.217993025,59.0,74.0
797,193.81521565,194.21997715,47.0,71.0
798,194.05331065000001,194.27156440000002,52.0,87.0
799,194.76759565,195.20410315,69.0,87.0
800,195.24378565,195.444182275,62.0,93.0
801,195.00569065000002,195.61084877500002,57.0,67.0
802,194.76759565,196.15846727500002,50.0,80.0
803,195.95807065,196.170372025,57.0,87.0
804,195.48188065,196.19021327500002,65.0,93.0
805,196.19616565,196.7556889,62.0,93.0
806,196.67235565000001,196.9858474,64.0,87.0
807,197.14854565000002,197.30727565,64.0,103.0
808,197.38664065,197.563227775,67.0,93.0
809,197.86283065,198.0175924,64.0,95.0
810,197.86283065,198.110846275,71.0,93.0
811,196.67235565000001,198.13267165000002,40.0,80.0
812,196.91045065,198.18822715000002,47.0,65.0
813,198.10092565000002,198.36679840000002,67.0,74.0
814,198.33902065,198.444179275,64.0,87.0
815,198.57711565,198.813226525,65.0,66.0
816,198.57711565,198.95409940000002,69.0,93.0
817,199.05330565,199.2239404,60.0,95.0
818,199.29140065,199.36282915,60.0,52.0
819,198.81521065,199.42036877500001,48.0,66.0
820,199.29140065,199.51362265,65.0,102.0
821,199.76759065000002,199.952114275,60.0,85.0
822,198.57711565,199.96203490000002,41.0,83.0
823,199.76759065000002,200.02552690000002,69.0,93.0
824,199.52949565,200.035447525,48.0,68.0
825,200.00568565,200.2715584,65.0,64.0
826,200.24378065000002,200.3826694,60.0,74.0
827,200.48187565,200.7398119,62.0,68.0
828,200.48187565,200.99377990000002,67.0,65.0
829,200.95806565,201.06520840000002,62.0,87.0
830,200.71997065000002,201.26758915000002,50.0,68.0
831,201.19616065,201.511636525,62.0,93.0
832,201.19616065,201.602906275,71.0,90.0
833,201.67235065,201.95012815,67.0,93.0
834,200.48187565,202.29139765000002,43.0,80.0
835,201.91044565,202.352905525,62.0,93.0
836,201.43425565,202.3588579,50.0,69.0
837,202.86282565000002,203.15250790000002,60.0,87.0
838,203.10092065,203.4302854,64.0,103.0
839,202.62473065,203.63663440000002,55.0,65.0
840,202.38663565000002,203.710047025,48.0,90.0
841,203.57711065,203.73187240000001,60.0,83.0
842,203.57711065,203.86084052500001,67.0,93.0
843,203.81520565,204.10290377500002,64.0,71.0
844,204.05330065,204.20012590000002,60.0,87.0
845,204.29139565,204.809252275,62.0,80.0
846,204.29139565,204.999728275,65.0,80.0
847,204.29139565,205.09298215,38.0,93.0
848,205.00568065000002,205.122744025,62.0,83.0
849,204.76758565,205.12671227500002,45.0,71.0
850,205.24377565,205.53742615000002,64.0,93.0
851,205.24377565,205.67234665,67.0,93.0
852,205.71996565,206.0493304,64.0,110.0
853,205.95806065000002,206.1683779,67.0,102.0
854,205.48187065000002,206.2001239,47.0,74.0
855,205.24377565,206.20806040000002,40.0,74.0
856,206.19615565,206.32710790000002,55.0,87.0
857,206.19615565,206.4620284,60.0,80.0
858,206.43425065000002,206.753694775,55.0,83.0
859,206.67234565,206.825123275,60.0,70.0
860,206.91044065,207.28345615,64.0,102.0
861,207.38663065,207.63464627500002,60.0,105.0
862,206.19615565,207.91639202500002,48.0,74.0
863,207.62472565000002,207.920360275,55.0,87.0
864,207.86282065,208.0096459,60.0,102.0
865,208.10091565000002,208.317185275,62.0,87.0
866,208.33901065,208.630677025,57.0,68.0
867,208.57710565000002,208.83504190000002,62.0,70.0
868,208.81520065,209.210041525,65.0,102.0
869,209.29139065,209.47988252500002,62.0,95.0
870,209.52948565,209.80726315,57.0,87.0
871,208.10091565000002,209.81916790000002,50.0,80.0
872,209.76758065,209.904485275,62.0,80.0
873,210.00567565,210.475913275,60.0,95.0
874,210.48186565,210.594960775,57.0,80.0
875,210.71996065000002,211.027500025,57.0,95.0
876,210.71996065000002,211.06718252500002,64.0,93.0
877,210.24377065000002,211.13861102500002,52.0,66.0
878,210.00567565,211.2001189,45.0,74.0
879,211.19615065000002,211.313214025,57.0,93.0
880,211.19615065000002,211.37273777500002,60.0,102.0
881,211.91043565,212.1763084,52.0,74.0
882,211.91043565,212.38860977500002,55.0,85.0
883,212.38662565,212.68821265000003,52.0,87.0
884,212.14853065,212.70408565000002,47.0,59.0
885,212.62472065,213.12075190000002,59.0,105.0
886,211.91043565,213.28345015000002,40.0,80.0
887,213.10091065,213.317180275,55.0,103.0
888,212.86281565000002,213.37075165000002,47.0,72.0
889,213.33900565000002,213.432259525,52.0,102.0
890,213.81519565000002,214.011624025,57.0,80.0
891,213.81519565000002,214.13265565,62.0,74.0
892,214.05329065,214.32908402500001,57.0,87.0
893,214.29138565,214.52551240000003,62.0,80.0
894,214.52948065,214.8826549,65.0,103.0
895,213.81519565000002,215.10487690000002,50.0,87.0
896,215.00567065,215.21201965,62.0,95.0
897,215.24376565,215.527495525,57.0,87.0
898,215.48186065000002,216.3191614,62.0,74.0
899,216.19614565,216.48979615000002,52.0,93.0
900,216.43424065000002,216.87670052500002,59.0,90.0
901,215.71995565,217.07908127500002,40.0,68.0
902,215.95805065000002,217.1286844,47.0,63.0
903,216.91043065000002,217.15844627500002,55.0,95.0
904,217.14852565,217.42431902500002,52.0,93.0
905,217.38662065,217.52947765000002,55.0,103.0
906,217.62471565,218.090985025,57.0,95.0
907,218.10090565000002,218.40249265,53.0,87.0
908,218.33900065,218.67431777500002,57.0,103.0
909,218.81519065,219.11082527500002,60.0,93.0
910,217.62471565,219.26161877500002,41.0,85.0
911,219.05328565000002,219.340983775,53.0,87.0
912,217.86281065,219.38661865,48.0,45.0
913,219.29138065,219.42630115,57.0,93.0
914,219.52947565000002,219.76360240000002,55.0,72.0
915,219.52947565000002,219.81122140000002,59.0,85.0
916,220.00566565000003,220.118760775,55.0,85.0
917,219.76757065,220.337014525,50.0,66.0
918,220.24376065,220.47391915,59.0,102.0
919,220.24376065,220.49772865,55.0,93.0
920,220.48185565,220.79931565,50.0,74.0
921,219.52947565000002,220.80129977500002,43.0,87.0
922,220.71995065000002,220.991775775,55.0,87.0
923,220.71995065000002,221.007648775,62.0,93.0
924,220.95804565,221.1445534,50.0,66.0
925,220.95804565,221.16439465000002,43.0,68.0
926,221.43423565,221.571140275,55.0,87.0
927,221.43423565,221.68026715000002,60.0,83.0
928,221.67233065000002,221.95010815,55.0,80.0
929,221.91042565,221.987806525,60.0,65.0
930,222.14852065000002,222.32510777500002,55.0,93.0
931,222.14852065000002,222.34296490000003,64.0,102.0
932,222.62471065,222.729869275,55.0,93.0
933,222.62471065,222.84693265,60.0,93.0
934,221.43423565,223.158440275,48.0,74.0
935,222.86280565,223.16240852500002,55.0,87.0
936,223.10090065000003,223.2556624,60.0,72.0
937,223.33899565000002,223.563201775,62.0,87.0
938,223.57709065,223.85486815000002,57.0,74.0
939,223.81518565000002,223.932249025,62.0,74.0
940,224.05328065,224.2080424,65.0,93.0
941,224.05328065,224.213994775,57.0,95.0
942,224.52947065,224.63661340000002,57.0,87.0
943,224.52947065,224.706057775,62.0,93.0
944,224.76756565,224.940184525,57.0,93.0
945,223.33899565000002,225.027486025,50.0,93.0
946,225.24375565000003,225.479866525,57.0,72.0
947,225.24375565000003,225.59692990000002,60.0,74.0
948,225.71994565,225.809231275,57.0,68.0
949,225.48185065,226.01756440000003,52.0,69.0
950,225.95804065000002,226.18819915,57.0,95.0
951,225.95804065000002,226.2477229,64.0,93.0
952,226.19613565,226.51359565,52.0,68.0
953,226.43423065000002,226.559230525,57.0,90.0
954,225.24375565000003,226.60288127500002,45.0,80.0
955,226.43423065000002,226.68621452500003,60.0,93.0
956,226.67232565,226.97589677500002,57.0,93.0
957,226.91042065000002,227.61280090000002,60.0,87.0
958,227.62470565,227.78938802500002,52.0,95.0
959,227.38661065000002,227.912403775,47.0,55.0
960,227.86280065,228.10883215,55.0,105.0
961,227.14851565,228.44414927500003,40.0,83.0
962,228.33899065000003,228.503673025,59.0,74.0
963,228.10089565,228.50565715000002,47.0,71.0
964,228.33899065000003,228.5572444,52.0,87.0
965,229.05327565000002,229.48978315000002,69.0,87.0
966,229.52946565000002,229.72986227500002,62.0,93.0
967,229.29137065,229.896528775,57.0,67.0
968,229.05327565000002,230.444147275,50.0,80.0
969,230.24375065,230.45605202500002,57.0,87.0
970,229.76756065,230.475893275,65.0,93.0
971,230.48184565000003,231.0413689,62.0,93.0
972,230.95803565,231.27152740000002,64.0,87.0
973,231.43422565,231.59295565000002,64.0,103.0
974,231.67232065000002,231.84890777500001,67.0,93.0
975,232.14851065000002,232.30327240000003,64.0,95.0
976,232.14851065000002,232.396526275,71.0,93.0
977,230.95803565,232.41835165,40.0,80.0
978,231.19613065000001,232.47390715,47.0,65.0
979,232.38660565,232.6524784,67.0,74.0
980,232.62470065000002,232.72985927500002,64.0,87.0
981,232.86279565,233.09890652500002,65.0,66.0
982,232.86279565,233.2397794,69.0,93.0
983,233.33898565,233.50962040000002,60.0,95.0
984,233.57708065000003,233.64850915,60.0,52.0
985,233.10089065,233.706048775,48.0,66.0
986,233.57708065000003,233.79930265000002,65.0,102.0
987,234.05327065,234.237794275,60.0,85.0
988,232.86279565,234.2477149,41.0,83.0
989,234.05327065,234.3112069,69.0,93.0
990,233.81517565000001,234.321127525,48.0,68.0
991,234.29136565000002,234.55723840000002,65.0,64.0
992,234.52946065,234.6683494,60.0,74.0
993,234.76755565000002,235.02549190000002,62.0,68.0
994,234.76755565000002,235.2794599,67.0,65.0
995,235.24374565000002,235.3508884,62.0,87.0
996,235.00565065,235.55326915,50.0,68.0
997,235.48184065,235.797316525,62.0,93.0
998,235.48184065,235.88858627500002,71.0,90.0
999,235.95803065,236.23580815000003,67.0,93.0
1000,234.76755565000002,236.57707765,43.0,80.0
1001,236.19612565,236.638585525,62.0,93.0
1002,235.71993565000002,236.64453790000002,50.0,69.0
1003,237.14850565,237.91834615000002,57.0,80.0
1004,237.86279065000002,238.138584025,60.0,83.0
1005,237.38660065000002,238.20406015,64.0,93.0
1006,236.67231565000003,238.33699652500002,45.0,83.0
1007,236.91041065000002,238.34493302500002,52.0,64.0
1008,238.10088565,238.54731377500002,57.0,70.0
1009,238.33898065,239.333027275,64.0,102.0
1010,239.05326565000001,239.39453515000002,53.0,93.0
1011,239.29136065,239.9937409,57.0,87.0
1012,238.57707565,240.309216775,41.0,72.0
1013,238.81517065000003,240.31120090000002,48.0,66.0
1014,240.00564565000002,240.32112152500002,60.0,90.0
1015,240.24374065,240.53143877500003,53.0,95.0
1016,240.95802565000002,241.329057025,55.0,93.0
1017,241.19612065,241.71992965,62.0,83.0
1018,240.71993065,242.00564365000002,50.0,66.0
1019,240.48183565000002,242.07707215000002,43.0,80.0
1020,241.67231065000001,242.18421490000003,59.0,93.0
1021,242.14850065000002,242.42230990000002,55.0,74.0
1022,242.86278565,243.586991275,52.0,87.0
1023,243.57707065,243.85484815,59.0,68.0
1024,242.38659565,243.98778452500002,40.0,74.0
1025,242.62469065000002,244.00365752500002,47.0,56.0
1026,243.10088065000002,244.06119715,64.0,103.0
1027,243.81516565,244.0969114,52.0,93.0
1028,244.05326065000003,244.29333977500002,59.0,80.0
1029,244.76754565000002,245.05921202500002,57.0,102.0
1030,245.00564065,245.46595765,64.0,105.0
1031,245.48183065,245.70405265000002,60.0,103.0
1032,244.52945065,245.765560525,52.0,68.0
1033,244.29135565,245.83897315000002,45.0,80.0
1034,245.71992565000002,245.97786190000002,57.0,85.0
1035,245.95802065,246.68817865,60.0,85.0
1036,246.67230565,246.97389265,53.0,74.0
1037,246.91040065,247.52547940000002,60.0,87.0
1038,246.19611565000002,247.70206652500002,41.0,87.0
1039,246.43421065,247.75762202500002,48.0,60.0
1040,247.38659065000002,247.87071715000002,65.0,87.0
1041,247.62468565,247.91238377500002,53.0,93.0
1042,247.86278065000002,248.20405015,60.0,74.0
1043,248.57706565,248.888573275,55.0,83.0
1044,248.81516065000002,249.33301727500003,62.0,83.0
1045,249.29135065000003,249.61079477500002,67.0,83.0
1046,248.10087565,249.809207275,43.0,74.0
1047,248.33897065000002,249.85484215000002,50.0,50.0
1048,249.52944565,250.213968775,55.0,68.0
1049,249.76754065,250.4461114,62.0,80.0
1050,250.48182565000002,250.78341265,55.0,74.0
1051,250.71992065,251.45999927500003,59.0,87.0
1052,250.24373065000003,251.84491952500002,50.0,66.0
1053,251.43420565000002,251.84690365,62.0,74.0
1054,251.67230065,251.848887775,55.0,65.0
1055,250.00563565000002,251.87468140000001,43.0,85.0
1056,252.38658565000003,252.68222027500002,62.0,87.0
1057,252.14849065,253.106823025,57.0,60.0
1058,252.62468065000002,253.130632525,65.0,102.0
1059,251.91039565,253.14055315000002,50.0,72.0
1060,253.10087065000002,253.38261640000002,69.0,105.0
1061,253.33896565000003,253.63261615000002,62.0,72.0
1062,253.57706065000002,253.92626665,69.0,93.0
1063,254.52944065000003,255.01356715000003,53.0,87.0
1064,254.05325065,255.17229715000002,45.0,63.0
1065,253.81515565,255.206027275,38.0,87.0
1066,255.00563065,255.61872527500003,57.0,83.0
1067,255.48182065000003,255.670312525,50.0,80.0
1068,256.19610565000005,256.50166090000005,55.0,74.0
1069,256.43420065,256.948089025,62.0,90.0
1070,255.71991565000002,257.4381679,43.0,72.0
1071,255.95801065,257.44015202500003,50.0,55.0
1072,257.14848565,257.860786525,55.0,74.0
1073,256.91039065,257.88261190000003,67.0,74.0
1074,257.38658065000004,258.18023065,62.0,72.0
1075,258.10086565,258.483801775,55.0,68.0
1076,257.86277065,259.305229525,50.0,56.0
1077,257.62467565000003,259.3429279,43.0,70.0
1078,258.33896065,259.904435275,62.0,74.0
1079,260.00562565,260.71991065000003,53.0,68.0
1080,260.24372065,260.860783525,60.0,68.0
1081,259.52943565,263.102844775,41.0,80.0
1082,259.76753065,263.14054315,48.0,51.0
1083,260.95800565,263.82308215,53.0,64.0
1084,261.19610065,264.07308190000003,60.0,43.0
1085,260.71991065000003,264.249669025,64.0,83.0
1086,264.29133565,264.68022415,57.0,87.0
1087,264.05324065,264.71197015,53.0,67.0
1088,263.57705065000005,265.884588025,41.0,64.0
1089,263.81514565000003,265.967921275,48.0,54.0
1090,265.71990565,266.06911165,57.0,1.0
1091,264.52943065,266.1603814,60.0,87.0
1092,265.00562065,266.28934952500003,64.0,51.0
1093,265.95800065000003,267.8905384,41.0,44.0
1094,266.19609565,267.9143479,48.0,39.0
1095,266.43419065,268.440141025,60.0,58.0
1096,266.19609565,268.4460934,53.0,66.0
1097,266.43419065,268.53141077500004,57.0,59.0
