,start,end,pitch,velocity
0,19.077083333333334,19.958333333333332,61.0,88.0
1,20.077083333333334,20.464583333333334,68.0,84.0
2,20.577083333333334,21.452083333333334,68.0,88.0
3,21.577083333333334,21.972916666666666,66.0,83.0
4,22.077083333333334,24.141666666666666,68.0,85.0
5,25.077083333333334,25.967708333333334,66.0,81.0
6,26.077083333333334,26.432291666666668,68.0,84.0
7,26.577083333333334,26.943749999999998,64.0,83.0
8,27.077083333333334,27.532291666666666,61.0,85.0
9,27.577083333333334,27.978125,59.0,85.0
10,28.077083333333334,30.044791666666665,61.0,85.0
11,31.077083333333334,31.466666666666665,61.0,88.0
12,31.577083333333334,31.979166666666668,61.0,85.0
13,32.077083333333334,32.48645833333333,61.0,85.0
14,32.577083333333334,33.427083333333336,68.0,82.0
15,33.577083333333334,33.75208333333333,68.0,88.0
16,33.827083333333334,33.98854166666666,66.0,80.0
17,34.077083333333334,34.479166666666664,64.0,82.0
18,34.577083333333334,34.94166666666666,66.0,81.0
19,35.077083333333334,35.415625,68.0,84.0
20,35.577083333333334,36.66979166666667,66.0,82.0
21,37.077083333333334,37.380208333333336,56.0,85.0
22,37.577083333333334,37.901041666666664,56.0,84.0
23,38.077083333333334,38.528125,56.0,87.0
24,38.577083333333334,39.458333333333336,66.0,81.0
25,39.577083333333334,39.75833333333333,64.0,84.0
26,39.827083333333334,40.041666666666664,61.0,81.0
27,40.077083333333334,42.74791666666667,63.0,81.0
28,43.077083333333334,43.958333333333336,61.0,88.0
29,44.077083333333334,44.46458333333333,68.0,84.0
30,44.577083333333334,45.452083333333334,68.0,88.0
31,45.577083333333334,45.97291666666666,66.0,83.0
32,46.077083333333334,48.141666666666666,68.0,85.0
33,49.077083333333334,49.967708333333334,66.0,81.0
34,50.077083333333334,50.432291666666664,68.0,84.0
35,50.577083333333334,50.94375,64.0,83.0
36,51.077083333333334,51.532291666666666,61.0,85.0
37,51.577083333333334,51.978125,59.0,85.0
38,52.077083333333334,54.04479166666667,61.0,85.0
39,55.077083333333334,55.46666666666667,61.0,88.0
40,55.577083333333334,55.979166666666664,61.0,85.0
41,56.077083333333334,56.48645833333333,61.0,85.0
42,56.577083333333334,57.427083333333336,68.0,82.0
43,57.577083333333334,57.75208333333333,68.0,88.0
44,57.827083333333334,57.98854166666666,66.0,80.0
45,58.077083333333334,58.479166666666664,64.0,82.0
46,58.577083333333334,58.94166666666666,66.0,81.0
47,59.077083333333334,59.415625,68.0,84.0
48,59.577083333333334,60.66979166666667,66.0,82.0
49,61.077083333333334,61.380208333333336,56.0,85.0
50,61.577083333333334,61.901041666666664,56.0,84.0
51,62.077083333333334,62.528124999999996,56.0,87.0
52,62.577083333333334,63.458333333333336,66.0,81.0
53,63.577083333333334,63.75833333333333,64.0,84.0
54,63.827083333333334,64.04166666666667,61.0,81.0
55,64.07708333333333,66.74791666666667,61.0,81.0
56,67.07708333333333,67.915625,68.0,92.0
57,68.07708333333333,68.44270833333333,68.0,88.0
58,68.57708333333333,69.58125,68.0,85.0
59,69.57708333333333,69.790625,66.0,90.0
60,69.82708333333333,70.04270833333334,64.0,84.0
61,70.07708333333333,72.60729166666667,68.0,87.0
62,73.07708333333333,73.46354166666667,68.0,88.0
63,73.57708333333333,73.93229166666667,68.0,88.0
64,74.07708333333333,74.43645833333333,71.0,87.0
65,74.57708333333333,75.52395833333333,73.0,88.0
66,75.57708333333333,75.76979166666666,71.0,87.0
67,75.82708333333333,76.015625,66.0,82.0
68,76.07708333333333,78.66354166666666,68.0,87.0
69,79.07708333333333,79.40520833333333,71.0,85.0
70,79.57708333333333,79.96145833333333,71.0,95.0
71,80.07708333333333,80.415625,68.0,86.0
72,80.57708333333333,81.07708333333333,64.0,88.0
73,81.07708333333333,81.47916666666667,63.0,87.0
74,81.57708333333333,82.021875,61.0,85.0
75,82.07708333333333,83.075,59.0,88.0
76,83.07708333333333,83.53333333333333,56.0,85.0
77,83.57708333333333,84.82708333333333,61.0,87.0
78,85.07708333333333,85.45520833333333,64.0,88.0
79,85.57708333333333,86.01979166666666,64.0,87.0
80,86.07708333333333,86.50625,61.0,81.0
81,86.57708333333333,87.51354166666667,66.0,83.0
82,87.57708333333333,87.92708333333333,68.0,87.0
83,88.07708333333333,90.88854166666667,66.0,83.0
84,91.07708333333333,91.915625,68.0,92.0
85,92.07708333333333,92.44270833333333,68.0,88.0
86,92.57708333333333,93.58125,68.0,85.0
87,93.57708333333333,93.790625,66.0,90.0
88,93.82708333333333,94.04270833333334,64.0,84.0
89,94.07708333333333,96.60729166666667,68.0,87.0
90,97.07708333333333,97.46354166666667,68.0,88.0
91,97.57708333333333,97.93229166666667,68.0,88.0
92,98.07708333333333,98.43645833333333,71.0,87.0
93,98.57708333333333,99.52395833333333,73.0,88.0
94,99.57708333333333,99.76979166666666,71.0,87.0
95,99.82708333333333,100.015625,66.0,82.0
96,100.07708333333333,102.66354166666666,68.0,87.0
97,103.07708333333333,103.40520833333333,71.0,85.0
98,103.57708333333333,103.96145833333333,71.0,95.0
99,104.07708333333333,104.41562499999999,68.0,86.0
100,104.57708333333333,105.07708333333333,64.0,88.0
101,105.07708333333333,105.47916666666667,63.0,87.0
102,105.57708333333333,106.021875,61.0,85.0
103,106.07708333333333,107.075,59.0,88.0
104,107.07708333333333,107.53333333333333,56.0,85.0
105,107.57708333333333,108.82708333333333,61.0,87.0
106,109.07708333333333,109.45520833333333,63.0,88.0
107,109.57708333333333,110.01979166666666,63.0,87.0
108,110.07708333333333,110.50625,59.0,81.0
109,110.57708333333333,111.51354166666667,66.0,83.0
110,111.57708333333333,111.92708333333333,68.0,87.0
111,112.07708333333333,114.88854166666667,64.0,83.0
112,133.05829183333333,133.9378345,61.0,88.0
113,134.0565845,134.4440845,68.0,84.0
114,134.5565845,135.4315845,68.0,88.0
115,135.5565845,135.95241783333333,66.0,83.0
116,136.0565845,138.12116783333335,68.0,85.0
117,139.0565845,139.9472095,66.0,81.0
118,140.0565845,140.41179283333335,68.0,84.0
119,140.5565845,140.92325116666666,64.0,83.0
120,141.0565845,141.51179283333335,61.0,85.0
121,141.5565845,141.95762616666667,59.0,85.0
122,142.0565845,144.02429283333333,61.0,85.0
123,145.0565845,145.44616783333333,61.0,88.0
124,145.5565845,145.95866783333335,61.0,85.0
125,146.0565845,146.4659595,61.0,85.0
126,146.5565845,147.4065845,68.0,82.0
127,147.5565845,147.7315845,68.0,88.0
128,147.8065845,147.96804283333333,66.0,80.0
129,148.0565845,148.45866783333335,64.0,82.0
130,148.5565845,148.92116783333333,66.0,81.0
131,149.0565845,149.39512616666667,68.0,84.0
132,149.5565845,150.64929283333333,66.0,82.0
133,151.0565845,151.3597095,56.0,85.0
134,151.5565845,151.88054283333335,56.0,84.0
135,152.0565845,152.50762616666668,56.0,87.0
136,152.5565845,153.4378345,66.0,81.0
137,153.5565845,153.73783450000002,64.0,84.0
138,153.8065845,154.02116783333335,61.0,81.0
139,154.0565845,156.72741783333333,61.0,81.0
140,157.0565845,157.89512616666667,68.0,92.0
141,158.0565845,158.4222095,68.0,88.0
142,158.5565845,159.56075116666668,68.0,85.0
143,159.5565845,159.77012616666667,66.0,90.0
144,159.8065845,160.0222095,64.0,84.0
145,160.0565845,162.58679283333333,68.0,87.0
146,163.0565845,163.44304283333335,68.0,88.0
147,163.5565845,163.91179283333335,68.0,88.0
148,164.0565845,164.4159595,71.0,87.0
149,164.5565845,165.50345950000002,73.0,88.0
150,165.5565845,165.74929283333333,71.0,87.0
151,165.8065845,165.99512616666667,66.0,82.0
152,166.0565845,168.64304283333334,68.0,87.0
153,169.0565845,169.3847095,71.0,85.0
154,169.5565845,169.94095950000002,71.0,95.0
155,170.0565845,170.39512616666667,68.0,86.0
156,170.5565845,171.0565845,64.0,88.0
157,171.0565845,171.45866783333332,63.0,87.0
158,171.5565845,172.00137616666666,61.0,85.0
159,172.0565845,173.05450116666668,59.0,88.0
160,173.0565845,173.5128345,56.0,85.0
161,173.5565845,174.8065845,61.0,87.0
162,175.0565845,175.4347095,64.0,88.0
163,175.5565845,175.99929283333336,64.0,87.0
164,176.0565845,176.48575116666666,61.0,81.0
165,176.5565845,177.49304283333333,66.0,83.0
166,177.5565845,177.9065845,68.0,87.0
167,178.0565845,180.86804283333333,66.0,83.0
168,181.0565845,181.89512616666667,68.0,92.0
169,182.0565845,182.4222095,68.0,88.0
170,182.5565845,183.56075116666668,68.0,85.0
171,183.5565845,183.77012616666667,66.0,90.0
172,183.8065845,184.0222095,64.0,84.0
173,184.0565845,186.58679283333333,68.0,87.0
174,187.0565845,187.44304283333332,68.0,88.0
175,187.5565845,187.91179283333332,68.0,88.0
176,188.0565845,188.4159595,71.0,87.0
177,188.5565845,189.50345950000002,73.0,88.0
178,189.5565845,189.74929283333333,71.0,87.0
179,189.8065845,189.99512616666667,66.0,82.0
180,190.0565845,192.64304283333334,68.0,87.0
181,193.0565845,193.3847095,71.0,85.0
182,193.5565845,193.94095950000002,71.0,95.0
183,194.0565845,194.39512616666667,68.0,86.0
184,194.5565845,195.0565845,64.0,88.0
185,195.0565845,195.45866783333332,63.0,87.0
186,195.5565845,196.00137616666666,61.0,85.0
187,196.0565845,197.05450116666668,59.0,88.0
188,197.0565845,197.5128345,56.0,85.0
189,197.5565845,198.80658449999999,61.0,87.0
190,199.05658449999999,199.4347095,63.0,88.0
191,199.55658449999999,199.99929283333336,63.0,87.0
192,200.05658449999999,200.48575116666666,59.0,81.0
193,200.55658449999999,201.49304283333333,66.0,83.0
194,201.55658449999999,201.9065845,68.0,87.0
195,202.05658449999999,204.86804283333333,64.0,83.0
196,205.05658449999999,205.89512616666667,68.0,92.0
197,206.05658449999999,206.4222095,68.0,88.0
198,206.55658449999999,207.56075116666668,68.0,85.0
199,207.55658449999999,207.77012616666667,66.0,90.0
200,207.80658449999999,208.0222095,64.0,84.0
201,208.05658449999999,210.58679283333333,68.0,87.0
202,211.05658449999999,211.44304283333332,68.0,88.0
203,211.55658449999999,211.91179283333332,68.0,88.0
204,212.05658449999999,212.41595949999999,71.0,87.0
205,212.55658449999999,213.50345950000002,73.0,88.0
206,213.55658449999999,213.74929283333336,71.0,87.0
207,213.80658449999999,213.99512616666667,66.0,82.0
208,214.05658449999999,216.64304283333334,68.0,87.0
209,217.05658449999999,217.38470949999999,71.0,85.0
210,217.55658449999999,217.94095950000002,71.0,95.0
211,218.05658449999999,218.39512616666667,68.0,86.0
212,218.55658449999999,219.05658449999999,64.0,88.0
213,219.05658449999999,219.45866783333332,63.0,87.0
214,219.55658449999999,220.00137616666666,61.0,85.0
215,220.05658449999999,221.05450116666668,59.0,88.0
216,221.05658449999999,221.5128345,56.0,85.0
217,221.55658449999999,222.80658449999999,61.0,87.0
218,223.05658449999999,223.4347095,64.0,88.0
219,223.55658449999999,223.99929283333336,64.0,87.0
220,224.05658449999999,224.48575116666666,61.0,81.0
221,224.55658449999999,225.49304283333333,66.0,83.0
222,225.55658449999999,225.80658449999999,68.0,87.0
223,225.80658449999999,226.05658449999999,66.0,87.0
224,226.05658449999999,228.86804283333333,66.0,83.0
225,229.05658449999999,229.89512616666667,68.0,92.0
226,230.05658449999999,230.4222095,68.0,88.0
227,230.55658449999999,231.56075116666668,68.0,85.0
228,231.55658449999999,231.77012616666667,66.0,90.0
229,231.80658449999999,232.0222095,64.0,84.0
230,232.05658449999999,234.58679283333333,68.0,87.0
231,235.05658449999999,235.44304283333332,68.0,88.0
232,235.55658449999999,235.91179283333332,68.0,88.0
233,236.05658449999999,236.41595949999999,71.0,87.0
234,236.55658449999999,237.50345950000002,73.0,88.0
235,237.55658449999999,237.74929283333336,71.0,87.0
236,237.80658449999999,237.99512616666667,66.0,82.0
237,238.05658449999999,240.64304283333334,68.0,87.0
238,241.05658449999999,241.38470949999999,71.0,85.0
239,241.55658449999999,241.94095950000002,71.0,95.0
240,242.05658449999999,242.39512616666667,68.0,86.0
241,242.55658449999999,243.05658449999999,64.0,88.0
242,243.05658449999999,243.45866783333332,63.0,87.0
243,243.55658449999999,244.00137616666666,61.0,85.0
244,244.05658449999999,245.05450116666668,59.0,88.0
245,245.05658449999999,245.5128345,56.0,85.0
246,245.55658449999999,246.80658449999999,61.0,87.0
247,247.05658449999999,247.4347095,64.0,88.0
248,247.55658449999999,247.99929283333336,64.0,87.0
249,248.05658449999999,248.48575116666666,61.0,81.0
250,248.55658449999999,249.49304283333333,66.0,83.0
251,249.55658449999999,249.80658449999999,66.0,87.0
252,249.80658449999999,250.05658449999999,64.0,87.0
253,250.05658449999999,252.86804283333333,64.0,83.0
