,start,end,pitch,velocity
0,1.3270833333333334,1.5927083333333334,56.0,78.0
1,1.5770833333333334,1.8895833333333334,61.0,78.0
2,1.8270833333333334,1.9729166666666667,56.0,49.0
3,1.0770833333333334,2.4697916666666666,49.0,85.0
4,2.3270833333333334,2.653125,56.0,79.0
5,2.0770833333333334,2.8489583333333335,64.0,82.0
6,2.8270833333333334,3.103125,56.0,76.0
7,3.0770833333333334,3.36875,61.0,80.0
8,3.3270833333333334,3.5906249999999997,56.0,71.0
9,2.5770833333333334,3.6479166666666667,49.0,84.0
10,3.5770833333333334,3.9572916666666664,64.0,82.0
11,3.8270833333333334,4.115625,56.0,81.0
12,4.327083333333333,4.585416666666666,56.0,75.0
13,4.577083333333333,4.832291666666666,59.0,74.0
14,4.827083333333333,5.072916666666667,56.0,73.0
15,4.077083333333333,5.403125,44.0,82.0
16,5.327083333333333,5.697916666666667,56.0,73.0
17,5.077083333333333,5.760416666666667,63.0,82.0
18,5.827083333333333,6.071875,56.0,82.0
19,6.327083333333333,6.608333333333333,56.0,79.0
20,5.577083333333333,6.9375,44.0,83.0
21,6.077083333333333,6.983333333333333,63.0,77.0
22,6.577083333333333,7.048958333333333,68.0,81.0
23,6.827083333333333,7.06875,56.0,85.0
24,7.327083333333333,7.601041666666666,56.0,81.0
25,7.827083333333333,8.103125,56.0,81.0
26,7.577083333333333,8.113541666666666,61.0,79.0
27,7.077083333333333,8.414583333333333,49.0,85.0
28,8.327083333333333,8.702083333333333,56.0,83.0
29,8.077083333333333,8.7625,64.0,82.0
30,8.827083333333333,9.121875,56.0,83.0
31,9.077083333333333,9.395833333333334,61.0,82.0
32,9.327083333333333,9.594791666666666,56.0,84.0
33,8.577083333333333,9.657291666666666,49.0,90.0
34,9.577083333333333,9.96875,64.0,83.0
35,9.827083333333333,10.1125,56.0,83.0
36,10.327083333333333,10.607291666666667,54.0,81.0
37,10.827083333333333,11.09375,54.0,80.0
38,10.577083333333333,11.197916666666666,61.0,81.0
39,10.077083333333333,11.441666666666666,42.0,82.0
40,11.327083333333333,11.844791666666666,54.0,82.0
41,11.077083333333333,12.397916666666667,66.0,81.0
42,12.077083333333333,12.575,54.0,83.0
43,11.577083333333333,12.596875,42.0,82.0
44,11.827083333333333,12.602083333333333,49.0,63.0
45,12.327083333333333,12.645833333333334,61.0,80.0
46,12.577083333333333,12.947916666666666,66.0,83.0
47,13.077083333333333,13.390625,57.0,70.0
48,13.077083333333333,13.665625,61.0,79.0
49,13.577083333333333,14.109375,57.0,82.0
50,13.077083333333333,14.271875,45.0,85.0
51,13.327083333333333,14.30625,52.0,71.0
52,14.577083333333333,14.882291666666667,56.0,75.0
53,14.577083333333333,15.122916666666667,59.0,76.0
54,14.827083333333333,15.596874999999999,51.0,76.0
55,14.577083333333333,15.647916666666667,44.0,82.0
56,15.077083333333333,15.941666666666666,56.0,83.0
57,16.077083333333334,16.390625,61.0,81.0
58,16.327083333333334,16.59375,56.0,75.0
59,16.577083333333334,17.102083333333333,61.0,75.0
60,16.827083333333334,17.107291666666665,56.0,72.0
61,17.077083333333334,17.339583333333334,64.0,77.0
62,16.077083333333334,17.461458333333333,37.0,83.0
63,17.327083333333334,17.667708333333334,56.0,81.0
64,17.827083333333334,18.092708333333334,56.0,76.0
65,18.077083333333334,18.590625,64.0,73.0
66,17.577083333333334,18.59583333333333,68.0,80.0
67,17.577083333333334,18.635416666666668,37.0,84.0
68,18.327083333333334,18.639583333333334,56.0,76.0
69,18.577083333333334,18.75,61.0,70.0
70,19.077083333333334,19.396875,61.0,76.0
71,19.327083333333334,19.633333333333333,56.0,71.0
72,19.827083333333334,19.941666666666666,56.0,69.0
73,19.577083333333334,19.96875,61.0,76.0
74,20.077083333333334,20.354166666666668,64.0,72.0
75,20.327083333333334,20.630208333333332,56.0,71.0
76,20.827083333333334,21.065625,56.0,75.0
77,21.077083333333334,21.317708333333332,61.0,68.0
78,21.327083333333334,21.571875,56.0,68.0
79,20.577083333333334,21.605208333333334,68.0,81.0
80,21.577083333333334,21.84375,64.0,76.0
81,19.077083333333334,21.851041666666667,49.0,82.0
82,22.077083333333334,22.378125,61.0,79.0
83,22.327083333333334,22.615625,56.0,70.0
84,22.577083333333334,22.934375,61.0,74.0
85,22.827083333333334,23.105208333333334,56.0,69.0
86,23.077083333333334,23.322916666666668,64.0,76.0
87,23.327083333333334,23.6625,56.0,76.0
88,23.827083333333334,24.13125,56.0,82.0
89,23.577083333333334,24.247916666666665,68.0,81.0
90,24.077083333333334,24.610416666666666,64.0,77.0
91,24.327083333333334,24.645833333333332,56.0,80.0
92,24.577083333333334,24.748958333333334,61.0,74.0
93,22.077083333333334,24.797916666666666,49.0,82.0
94,25.577083333333334,26.042708333333334,54.0,84.0
95,25.827083333333334,26.371875,61.0,77.0
96,25.327083333333334,26.466666666666665,49.0,77.0
97,25.077083333333334,26.490624999999998,42.0,83.0
98,26.327083333333334,26.89270833333333,54.0,74.0
99,26.077083333333334,27.386458333333334,66.0,76.0
100,27.077083333333334,27.5875,54.0,81.0
101,27.327083333333334,27.645833333333332,61.0,81.0
102,26.827083333333334,27.664583333333333,49.0,70.0
103,26.577083333333334,27.722916666666666,42.0,82.0
104,27.577083333333334,27.733333333333334,66.0,81.0
105,28.077083333333334,28.391666666666666,61.0,80.0
106,28.327083333333334,28.609375,56.0,71.0
107,28.827083333333334,29.091666666666665,56.0,70.0
108,28.577083333333334,29.104166666666668,61.0,74.0
109,29.077083333333334,29.359375,64.0,75.0
110,28.077083333333334,29.460416666666667,49.0,81.0
111,29.327083333333334,29.633333333333333,56.0,70.0
112,29.827083333333334,30.104166666666668,56.0,76.0
113,29.577083333333334,30.242708333333333,68.0,83.0
114,30.077083333333334,30.370833333333334,61.0,74.0
115,30.327083333333334,30.65833333333333,56.0,75.0
116,29.577083333333334,30.753125,49.0,82.0
117,30.577083333333334,31.046875,64.0,81.0
118,31.077083333333334,31.386458333333334,61.0,75.0
119,31.327083333333334,31.59583333333333,56.0,73.0
120,31.577083333333334,32.15416666666667,61.0,75.0
121,31.827083333333334,32.16041666666666,56.0,73.0
122,32.077083333333334,32.40833333333333,64.0,73.0
123,32.327083333333334,32.64479166666666,56.0,81.0
124,32.827083333333334,33.10208333333333,56.0,81.0
125,33.077083333333334,33.44166666666666,61.0,74.0
126,32.577083333333334,33.59791666666666,68.0,81.0
127,33.327083333333334,33.61875,56.0,77.0
128,33.577083333333334,33.780208333333334,64.0,78.0
129,31.077083333333334,33.8,49.0,81.0
130,34.077083333333334,34.547916666666666,64.0,77.0
131,34.327083333333334,34.59166666666667,56.0,71.0
132,34.577083333333334,34.9125,61.0,74.0
133,34.827083333333334,35.125,56.0,71.0
134,34.077083333333334,35.22604166666667,49.0,80.0
135,35.327083333333334,35.598958333333336,56.0,77.0
136,35.077083333333334,36.084375,64.0,78.0
137,36.077083333333334,36.407291666666666,57.0,77.0
138,36.327083333333334,36.623958333333334,54.0,82.0
139,35.577083333333334,36.66979166666667,42.0,82.0
140,35.827083333333334,36.704166666666666,49.0,74.0
141,36.577083333333334,36.790625,61.0,82.0
142,37.077083333333334,37.33645833333333,56.0,73.0
143,37.077083333333334,37.634375,59.0,75.0
144,37.577083333333334,38.00729166666667,56.0,83.0
145,37.827083333333334,38.130208333333336,59.0,72.0
146,37.327083333333334,38.229166666666664,51.0,74.0
147,37.077083333333334,38.28333333333333,44.0,82.0
148,38.327083333333334,38.588541666666664,56.0,77.0
149,38.077083333333334,38.66875,63.0,77.0
150,38.827083333333334,39.416666666666664,51.0,82.0
151,38.577083333333334,39.45,39.0,83.0
152,39.077083333333334,39.510416666666664,54.0,81.0
153,39.327083333333334,39.577083333333334,61.0,86.0
154,39.327083333333334,39.60520833333333,57.0,87.0
155,40.077083333333334,40.286458333333336,56.0,75.0
156,40.077083333333334,40.80520833333333,60.0,74.0
157,40.577083333333334,41.125,56.0,81.0
158,40.827083333333334,41.13333333333333,63.0,81.0
159,41.077083333333334,41.39791666666667,60.0,87.0
160,41.327083333333334,41.626041666666666,63.0,81.0
161,41.577083333333334,42.62083333333333,68.0,85.0
162,42.577083333333334,42.83958333333333,63.0,83.0
163,40.327083333333334,42.922916666666666,51.0,81.0
164,40.077083333333334,42.93958333333333,44.0,81.0
165,42.827083333333334,43.020833333333336,64.0,78.0
166,43.077083333333334,43.563541666666666,56.0,73.0
167,43.077083333333334,43.598958333333336,61.0,77.0
168,43.577083333333334,43.87708333333333,64.0,79.0
169,43.827083333333334,44.1375,56.0,68.0
170,44.077083333333334,44.40208333333333,61.0,74.0
171,44.327083333333334,44.490625,56.0,73.0
172,43.077083333333334,44.75625,49.0,81.0
173,44.577083333333334,44.86354166666666,56.0,68.0
174,44.577083333333334,44.895833333333336,61.0,82.0
175,44.577083333333334,45.05416666666667,68.0,81.0
176,45.077083333333334,45.371875,56.0,80.0
177,45.327083333333334,45.59375,61.0,73.0
178,45.577083333333334,45.71875,64.0,81.0
179,46.077083333333334,46.4875,61.0,77.0
180,46.077083333333334,46.5,56.0,74.0
181,46.577083333333334,46.83645833333333,61.0,77.0
182,46.827083333333334,47.040625,56.0,76.0
183,47.077083333333334,47.37083333333333,61.0,71.0
184,47.327083333333334,47.44166666666666,56.0,66.0
185,47.577083333333334,47.786458333333336,56.0,82.0
186,47.577083333333334,47.797916666666666,64.0,82.0
187,48.077083333333334,48.307291666666664,61.0,81.0
188,46.077083333333334,48.42604166666666,49.0,82.0
189,48.327083333333334,48.53541666666666,56.0,79.0
190,48.577083333333334,48.69166666666666,61.0,77.0
191,49.077083333333334,49.40833333333333,57.0,69.0
192,49.077083333333334,49.436458333333334,54.0,78.0
193,49.577083333333334,49.821875,61.0,75.0
194,49.827083333333334,50.12916666666666,57.0,71.0
195,50.327083333333334,50.432291666666664,57.0,63.0
196,50.077083333333334,50.447916666666664,61.0,76.0
197,50.577083333333334,50.86875,57.0,75.0
198,50.577083333333334,50.90625,61.0,76.0
199,50.577083333333334,50.96458333333333,66.0,76.0
200,50.577083333333334,50.96875,54.0,81.0
201,51.077083333333334,51.4125,61.0,82.0
202,51.327083333333334,51.628125,54.0,75.0
203,51.577083333333334,51.64270833333333,61.0,28.0
204,51.577083333333334,51.686458333333334,57.0,76.0
205,49.077083333333334,51.72708333333333,42.0,81.0
206,52.077083333333334,52.50416666666666,61.0,80.0
207,52.077083333333334,52.530208333333334,56.0,75.0
208,52.577083333333334,52.88125,64.0,77.0
209,52.827083333333334,53.134375,56.0,71.0
210,53.077083333333334,53.38854166666667,61.0,77.0
211,53.327083333333334,53.4625,56.0,79.0
212,53.577083333333334,53.81979166666667,61.0,83.0
213,53.577083333333334,53.840624999999996,56.0,81.0
214,53.577083333333334,53.842708333333334,68.0,81.0
215,54.077083333333334,54.369791666666664,64.0,82.0
216,54.327083333333334,54.64895833333333,56.0,81.0
217,52.077083333333334,54.76770833333333,49.0,84.0
218,54.577083333333334,54.822916666666664,61.0,83.0
219,55.077083333333334,55.494791666666664,61.0,81.0
220,55.077083333333334,55.53541666666666,56.0,78.0
221,55.577083333333334,55.84375,61.0,66.0
222,55.827083333333334,56.08645833333333,56.0,86.0
223,56.077083333333334,56.37083333333333,61.0,81.0
224,56.327083333333334,56.45104166666667,56.0,82.0
225,56.577083333333334,56.8125,56.0,81.0
226,56.577083333333334,56.859375,64.0,82.0
227,57.077083333333334,57.29479166666667,61.0,80.0
228,57.327083333333334,57.520833333333336,56.0,77.0
229,57.577083333333334,57.702083333333334,61.0,80.0
230,55.077083333333334,57.817708333333336,49.0,84.0
231,58.077083333333334,58.33958333333333,56.0,76.0
232,58.077083333333334,58.60729166666667,61.0,81.0
233,58.077083333333334,58.909375,49.0,83.0
234,58.577083333333334,58.975,64.0,81.0
235,58.827083333333334,59.171875,56.0,81.0
236,59.077083333333334,59.18333333333333,61.0,83.0
237,59.577083333333334,59.967708333333334,57.0,68.0
238,59.577083333333334,60.01770833333333,61.0,81.0
239,59.577083333333334,60.047916666666666,54.0,74.0
240,60.577083333333334,60.692708333333336,57.0,85.0
241,60.327083333333334,60.709375,54.0,82.0
242,59.577083333333334,60.77395833333333,42.0,82.0
243,60.077083333333334,60.822916666666664,49.0,73.0
244,61.077083333333334,61.598958333333336,56.0,76.0
245,61.077083333333334,61.80104166666666,59.0,77.0
246,61.827083333333334,62.126041666666666,56.0,82.0
247,62.077083333333334,62.327083333333334,59.0,86.0
248,62.327083333333334,62.47291666666666,56.0,83.0
249,62.577083333333334,63.15416666666667,56.0,84.0
250,63.077083333333334,63.38125,59.0,88.0
251,62.577083333333334,63.59166666666667,63.0,83.0
252,63.327083333333334,63.657291666666666,56.0,76.0
253,63.577083333333334,63.74375,59.0,82.0
254,61.577083333333334,63.77291666666667,51.0,77.0
255,61.077083333333334,63.803125,44.0,77.0
256,64.07708333333333,64.38020833333333,56.0,75.0
257,64.07708333333333,64.64166666666667,61.0,76.0
258,64.57708333333333,64.93645833333333,64.0,81.0
259,64.82708333333333,65.08333333333333,56.0,81.0
260,65.07708333333333,65.39375,61.0,79.0
261,64.07708333333333,65.42708333333333,49.0,83.0
262,65.32708333333333,65.46875,56.0,75.0
263,65.57708333333333,65.91979166666667,61.0,79.0
264,65.57708333333333,65.95729166666666,64.0,81.0
265,65.57708333333333,65.965625,56.0,81.0
266,66.07708333333333,66.390625,61.0,85.0
267,66.32708333333333,66.653125,63.0,85.0
268,66.57708333333333,66.74479166666667,64.0,90.0
269,66.82708333333333,67.02083333333333,66.0,86.0
270,65.57708333333333,67.08541666666666,49.0,88.0
271,67.07708333333333,67.64166666666667,52.0,79.0
272,67.07708333333333,67.753125,56.0,81.0
273,67.82708333333333,68.09479166666667,52.0,83.0
274,68.07708333333333,68.425,59.0,81.0
275,68.32708333333333,68.459375,52.0,76.0
276,68.57708333333333,68.93541666666667,59.0,83.0
277,68.57708333333333,68.97083333333333,52.0,97.0
278,68.57708333333333,69.00416666666666,64.0,82.0
279,69.07708333333333,69.40520833333333,56.0,74.0
280,67.57708333333333,69.428125,47.0,77.0
281,69.07708333333333,69.45520833333333,59.0,75.0
282,67.07708333333333,69.51145833333334,40.0,86.0
283,69.32708333333333,69.54166666666667,52.0,77.0
284,69.57708333333333,69.67916666666666,47.0,83.0
285,70.07708333333333,70.51354166666667,59.0,81.0
286,70.07708333333333,70.60729166666667,56.0,77.0
287,70.82708333333333,71.02395833333333,56.0,76.0
288,71.07708333333333,71.34270833333333,63.0,79.0
289,71.32708333333333,71.478125,56.0,72.0
290,71.57708333333333,71.878125,59.0,86.0
291,71.57708333333333,71.87916666666666,68.0,81.0
292,71.57708333333333,71.884375,63.0,82.0
293,71.57708333333333,71.90416666666667,56.0,76.0
294,70.57708333333333,72.18854166666667,51.0,81.0
295,72.07708333333333,72.21875,56.0,84.0
296,72.07708333333333,72.296875,63.0,83.0
297,70.07708333333333,72.38854166666667,44.0,84.0
298,72.32708333333333,72.6,56.0,82.0
299,72.57708333333333,72.71770833333333,51.0,86.0
300,72.82708333333333,72.98958333333333,56.0,85.0
301,73.07708333333333,73.45,56.0,83.0
302,73.07708333333333,73.453125,61.0,83.0
303,73.07708333333333,73.88125,49.0,86.0
304,73.57708333333333,73.91666666666667,64.0,84.0
305,73.82708333333333,74.15625,56.0,81.0
306,74.07708333333333,74.19270833333333,61.0,81.0
307,74.57708333333333,74.746875,54.0,82.0
308,74.57708333333333,74.88958333333333,59.0,79.0
309,74.82708333333333,75.053125,54.0,78.0
310,75.07708333333333,75.521875,63.0,82.0
311,74.57708333333333,75.55104166666666,47.0,87.0
312,75.32708333333333,75.62604166666667,54.0,78.0
313,75.57708333333333,75.69791666666667,59.0,83.0
314,76.07708333333333,76.49479166666667,56.0,77.0
315,76.07708333333333,76.503125,64.0,80.0
316,76.57708333333333,76.83020833333333,59.0,82.0
317,76.82708333333333,77.05520833333333,56.0,82.0
318,77.07708333333333,77.22916666666667,59.0,79.0
319,76.57708333333333,77.28645833333333,47.0,77.0
320,76.07708333333333,77.4125,40.0,82.0
321,77.32708333333333,77.45833333333333,56.0,72.0
322,77.57708333333333,78.12916666666666,56.0,81.0
323,77.57708333333333,78.371875,59.0,86.0
324,77.57708333333333,78.40729166666667,64.0,71.0
325,78.07708333333333,78.471875,47.0,82.0
326,77.57708333333333,78.54375,40.0,84.0
327,78.32708333333333,78.553125,56.0,81.0
328,78.57708333333333,78.69166666666666,59.0,88.0
329,79.07708333333333,79.33229166666666,56.0,79.0
330,79.07708333333333,79.59791666666666,63.0,81.0
331,79.57708333333333,79.834375,56.0,81.0
332,79.82708333333333,80.0625,59.0,87.0
333,79.32708333333333,80.29583333333333,51.0,74.0
334,80.07708333333333,80.30208333333333,56.0,82.0
335,79.07708333333333,80.31875,44.0,82.0
336,80.57708333333333,80.74479166666667,56.0,81.0
337,80.82708333333333,81.10104166666666,56.0,81.0
338,80.57708333333333,81.10104166666666,64.0,81.0
339,81.07708333333333,81.33854166666667,61.0,81.0
340,81.32708333333333,81.6375,56.0,77.0
341,80.57708333333333,81.67604166666666,49.0,88.0
342,81.57708333333333,81.7125,64.0,81.0
343,82.07708333333333,82.62916666666666,63.0,81.0
344,82.57708333333333,83.01145833333334,56.0,83.0
345,82.82708333333333,83.115625,59.0,87.0
346,83.07708333333333,83.36458333333333,63.0,88.0
347,82.32708333333333,83.384375,51.0,76.0
348,82.07708333333333,83.43229166666667,44.0,83.0
349,83.32708333333333,83.51770833333333,56.0,82.0
350,83.82708333333333,84.11875,56.0,81.0
351,83.57708333333333,84.12083333333334,64.0,84.0
352,84.07708333333333,84.446875,61.0,77.0
353,83.57708333333333,84.790625,49.0,82.0
354,84.57708333333333,84.8,56.0,78.0
355,84.57708333333333,84.80416666666666,61.0,83.0
356,85.07708333333333,85.32291666666667,57.0,82.0
357,85.07708333333333,85.63020833333333,61.0,82.0
358,85.57708333333333,86.05833333333334,57.0,81.0
359,85.82708333333333,86.10104166666666,61.0,73.0
360,85.07708333333333,86.159375,45.0,86.0
361,85.32708333333333,86.18229166666667,52.0,74.0
362,86.07708333333333,86.34270833333333,64.0,87.0
363,86.57708333333333,87.03541666666666,54.0,81.0
364,86.57708333333333,87.115625,58.0,82.0
365,87.07708333333333,87.41770833333334,61.0,83.0
366,87.32708333333333,87.58854166666667,54.0,82.0
367,86.82708333333333,87.66145833333333,49.0,81.0
368,86.57708333333333,87.7125,42.0,83.0
369,87.57708333333333,87.78229166666667,66.0,84.0
370,88.07708333333333,88.22916666666667,54.0,82.0
371,88.07708333333333,88.39479166666666,59.0,80.0
372,88.32708333333333,88.57708333333333,54.0,83.0
373,88.57708333333333,88.88020833333333,61.0,82.0
374,88.82708333333333,89.115625,54.0,87.0
375,89.07708333333333,89.35416666666667,59.0,87.0
376,88.07708333333333,89.43541666666667,47.0,86.0
377,89.32708333333333,89.47708333333333,54.0,83.0
378,89.57708333333333,89.78020833333333,54.0,86.0
379,89.57708333333333,89.91770833333334,63.0,87.0
380,89.82708333333333,90.00520833333333,54.0,75.0
381,90.07708333333333,90.31458333333333,59.0,87.0
382,90.32708333333333,90.65208333333334,61.0,90.0
383,89.57708333333333,90.809375,47.0,97.0
384,90.57708333333333,90.99791666666667,63.0,86.0
385,91.07708333333333,91.41770833333334,64.0,83.0
386,91.57708333333333,91.90208333333334,59.0,87.0
387,91.82708333333333,92.10729166666667,64.0,83.0
388,92.07708333333333,92.36979166666667,68.0,88.0
389,91.32708333333333,92.43958333333333,47.0,75.0
390,91.07708333333333,92.44166666666666,40.0,83.0
391,92.32708333333333,92.490625,59.0,82.0
392,92.57708333333333,93.140625,59.0,83.0
393,92.57708333333333,93.31875,64.0,82.0
394,92.57708333333333,93.440625,68.0,83.0
395,93.32708333333333,93.65416666666667,59.0,81.0
396,92.57708333333333,93.77604166666667,40.0,82.0
397,93.07708333333333,93.784375,47.0,76.0
398,93.57708333333333,94.02604166666667,64.0,83.0
399,94.57708333333333,94.91979166666667,56.0,84.0
400,94.82708333333333,94.97916666666667,59.0,95.0
401,95.07708333333333,95.240625,63.0,90.0
402,94.07708333333333,95.44375,44.0,87.0
403,94.32708333333333,95.45833333333333,51.0,73.0
404,95.32708333333333,95.46770833333333,56.0,78.0
405,95.57708333333333,95.91354166666666,59.0,85.0
406,95.57708333333333,95.93645833333333,63.0,83.0
407,95.57708333333333,95.94791666666667,56.0,82.0
408,96.07708333333333,96.24895833333333,56.0,77.0
409,96.07708333333333,96.365625,63.0,88.0
410,96.07708333333333,96.39479166666666,59.0,83.0
411,96.57708333333333,96.78645833333333,56.0,77.0
412,96.57708333333333,96.86041666666667,64.0,83.0
413,95.57708333333333,96.9375,44.0,82.0
414,96.32708333333333,96.953125,51.0,81.0
415,97.07708333333333,97.29583333333333,56.0,81.0
416,97.07708333333333,97.54375,64.0,82.0
417,97.57708333333333,98.0875,56.0,70.0
418,97.32708333333333,98.37708333333333,52.0,70.0
419,97.07708333333333,98.384375,49.0,86.0
420,98.07708333333333,98.39583333333333,61.0,84.0
421,98.32708333333333,98.4875,56.0,76.0
422,98.57708333333333,98.9625,54.0,83.0
423,98.57708333333333,98.99270833333333,59.0,83.0
424,99.07708333333333,99.54375,63.0,87.0
425,98.57708333333333,99.56770833333333,47.0,87.0
426,99.32708333333333,99.63541666666667,54.0,81.0
427,99.57708333333333,99.71875,59.0,79.0
428,100.07708333333333,100.37395833333333,56.0,76.0
429,100.07708333333333,100.67916666666666,64.0,81.0
430,100.57708333333333,101.08854166666667,56.0,81.0
431,101.07708333333333,101.4,59.0,86.0
432,100.32708333333333,101.43854166666667,47.0,71.0
433,100.07708333333333,101.45625,40.0,83.0
434,101.32708333333333,101.49479166666667,64.0,81.0
435,101.57708333333333,102.15833333333333,56.0,82.0
436,101.57708333333333,102.39479166666666,64.0,84.0
437,102.07708333333333,102.46354166666667,47.0,82.0
438,101.57708333333333,102.56458333333333,40.0,82.0
439,102.57708333333333,102.73229166666667,47.0,81.0
440,102.32708333333333,102.81041666666667,59.0,97.0
441,102.82708333333333,102.97291666666666,56.0,83.0
442,103.07708333333333,103.63020833333333,56.0,84.0
443,103.07708333333333,103.67291666666667,59.0,83.0
444,103.82708333333333,104.15833333333333,63.0,86.0
445,103.07708333333333,104.30520833333333,44.0,82.0
446,103.57708333333333,104.31979166666666,51.0,81.0
447,104.07708333333333,104.4375,56.0,83.0
448,104.57708333333333,105.32395833333334,64.0,86.0
449,105.07708333333333,105.43541666666667,56.0,82.0
450,105.32708333333333,105.61458333333333,61.0,75.0
451,104.57708333333333,105.615625,49.0,88.0
452,104.82708333333333,105.62916666666666,52.0,78.0
453,105.57708333333333,105.959375,64.0,85.0
454,106.07708333333333,106.70833333333333,56.0,77.0
455,106.07708333333333,106.8625,63.0,81.0
456,106.57708333333333,107.01458333333333,51.0,83.0
457,106.07708333333333,107.01979166666666,44.0,82.0
458,106.82708333333333,107.06770833333333,59.0,83.0
459,107.07708333333333,107.20208333333333,56.0,84.0
460,107.57708333333333,108.109375,57.0,81.0
461,107.57708333333333,108.421875,61.0,81.0
462,108.32708333333333,108.64583333333333,57.0,81.0
463,108.57708333333333,108.67291666666667,61.0,51.0
464,107.57708333333333,108.71458333333334,45.0,81.0
465,108.07708333333333,108.78854166666666,52.0,80.0
466,108.57708333333333,108.90208333333334,64.0,82.0
467,109.07708333333333,109.54270833333334,63.0,81.0
468,109.07708333333333,109.578125,59.0,76.0
469,109.82708333333333,110.12083333333334,59.0,82.0
470,109.07708333333333,110.39999999999999,47.0,87.0
471,110.07708333333333,110.45416666666667,66.0,78.0
472,109.57708333333333,110.46249999999999,54.0,76.0
473,110.32708333333333,110.484375,59.0,81.0
474,110.57708333333333,111.31875,47.0,84.0
475,110.57708333333333,111.33125,71.0,77.0
476,110.57708333333333,111.39166666666667,66.0,76.0
477,110.57708333333333,111.41354166666666,59.0,84.0
478,112.07708333333333,112.57187499999999,52.0,69.0
479,112.07708333333333,112.75729166666666,56.0,74.0
480,112.82708333333333,113.12708333333333,52.0,72.0
481,113.07708333333333,113.35729166666667,54.0,81.0
482,112.07708333333333,113.425,40.0,82.0
483,112.57708333333333,113.44375,47.0,77.0
484,113.32708333333333,113.5,56.0,76.0
485,113.57708333333333,113.90729166666667,52.0,76.0
486,113.57708333333333,113.971875,59.0,83.0
487,114.07708333333333,114.38958333333333,56.0,81.0
488,114.07708333333333,114.41145833333333,52.0,81.0
489,114.57708333333333,114.74895833333333,52.0,82.0
490,113.57708333333333,115.01145833333334,40.0,81.0
491,114.57708333333333,115.0125,56.0,83.0
492,114.57708333333333,115.04583333333333,59.0,82.0
493,114.82708333333333,115.05104166666666,47.0,83.0
494,115.07708333333333,115.484375,56.0,81.0
495,115.07708333333333,115.53333333333333,64.0,81.0
496,115.07708333333333,115.55520833333333,37.0,82.0
497,115.57708333333333,115.80208333333333,61.0,85.0
498,115.82708333333333,116.13125,56.0,82.0
499,116.07708333333333,116.37291666666667,61.0,82.0
500,116.57708333333333,116.91770833333334,61.0,83.0
501,116.32708333333333,116.925,56.0,81.0
502,116.57708333333333,116.96249999999999,68.0,82.0
503,117.07708333333333,117.38541666666667,64.0,80.0
504,117.32708333333333,117.653125,56.0,82.0
505,117.57708333333333,117.73333333333333,61.0,85.0
506,116.57708333333333,117.90208333333334,49.0,77.0
507,118.07708333333333,118.63229166666666,56.0,75.0
508,118.07708333333333,118.825,59.0,77.0
509,118.82708333333333,118.99479166666667,56.0,83.0
510,119.07708333333333,119.29479166666667,59.0,87.0
511,119.32708333333333,119.43333333333334,56.0,69.0
512,119.57708333333333,119.74583333333334,63.0,84.0
513,119.57708333333333,119.753125,56.0,84.0
514,118.57708333333333,120.24270833333333,51.0,81.0
515,120.07708333333333,120.3,59.0,88.0
516,118.07708333333333,120.33541666666666,44.0,82.0
517,120.32708333333333,120.58958333333334,56.0,92.0
518,120.57708333333333,120.67083333333333,51.0,84.0
519,121.07708333333333,121.14895833333333,37.0,85.0
520,121.07708333333333,121.35520833333334,56.0,82.0
521,121.07708333333333,121.54895833333333,64.0,81.0
522,122.07708333333333,122.42083333333333,61.0,90.0
523,122.32708333333333,122.47812499999999,64.0,75.0
524,121.82708333333333,122.82083333333333,56.0,74.0
525,121.57708333333333,123.084375,49.0,79.0
526,122.57708333333333,123.10416666666667,61.0,82.0
527,123.07708333333333,123.19895833333334,56.0,84.0
528,122.57708333333333,123.21145833333333,64.0,84.0
529,122.57708333333333,123.296875,68.0,83.0
530,123.32708333333333,123.640625,61.0,83.0
531,123.57708333333333,124.00104166666667,64.0,85.0
532,124.07701183333333,124.27763533333334,61.0,77.0
533,124.07701183333333,124.36391383333334,66.0,75.0
534,124.57597183333334,124.88366383333334,54.0,83.0
535,124.82545183333333,125.11235383333334,61.0,87.0
536,125.07493183333334,125.38990033333334,57.0,86.0
537,125.32441183333334,125.47306033333334,61.0,81.0
538,124.32649183333334,125.62898533333333,49.0,74.0
539,124.07701183333333,125.64353833333334,42.0,81.0
540,125.57389183333333,126.16536733333334,54.0,83.0
541,125.57389183333333,126.18927583333334,57.0,85.0
542,125.57389183333333,126.21942133333334,61.0,81.0
543,125.57389183333333,126.22773733333334,66.0,77.0
544,126.88262233333333,127.67576083333334,57.0,71.0
545,126.98657233333334,127.69135333333334,61.0,78.0
546,127.02295483333334,127.75892083333333,45.0,79.0
547,127.06037683333334,127.78490833333333,64.0,83.0
548,128.54998033333334,128.98864933333334,44.0,82.0
549,128.57180983333333,129.58532233333335,63.0,83.0
550,128.47929433333334,129.61027033333335,59.0,79.0
551,128.40237133333335,129.61130983333334,56.0,68.0
552,130.06453183333335,130.63625683333333,56.0,72.0
553,130.06453183333335,130.80985333333334,61.0,75.0
554,130.81297183333334,131.03646433333333,56.0,72.0
555,131.06245183333334,131.38573633333334,61.0,71.0
556,131.31193183333335,131.42731633333335,56.0,57.0
557,131.56141183333335,131.75475883333334,56.0,77.0
558,131.56141183333335,131.83999783333334,64.0,79.0
559,130.06453183333335,132.45746083333333,37.0,82.0
560,132.06037183333333,133.01359333333335,61.0,74.0
561,132.55933183333335,133.02814633333332,56.0,67.0
562,133.05829183333333,133.54373833333335,56.0,73.0
563,133.05829183333333,133.57908133333333,61.0,77.0
564,133.55725183333334,133.85662783333333,64.0,79.0
565,133.80673183333334,134.11700116666668,56.0,68.0
566,134.0565845,134.3815845,61.0,74.0
567,134.3065845,134.47012616666666,56.0,73.0
568,133.05829183333333,134.73575116666666,49.0,81.0
569,134.5565845,134.84304283333333,56.0,68.0
570,134.5565845,134.8753345,61.0,82.0
571,134.5565845,135.03366783333334,68.0,81.0
572,135.0565845,135.35137616666668,56.0,80.0
573,135.3065845,135.57325116666667,61.0,73.0
574,135.5565845,135.69825116666667,64.0,81.0
575,136.0565845,136.46700116666668,61.0,77.0
576,136.0565845,136.47950116666667,56.0,74.0
577,136.5565845,136.81595950000002,61.0,77.0
578,136.8065845,137.02012616666667,56.0,76.0
579,137.0565845,137.3503345,61.0,71.0
580,137.3065845,137.42116783333333,56.0,66.0
581,137.5565845,137.7659595,56.0,82.0
582,137.5565845,137.77741783333335,64.0,82.0
583,138.0565845,138.28679283333335,61.0,81.0
584,136.0565845,138.40554283333333,49.0,82.0
585,138.3065845,138.51491783333333,56.0,79.0
586,138.5565845,138.67116783333333,61.0,77.0
587,139.0565845,139.3878345,57.0,69.0
588,139.0565845,139.4159595,54.0,78.0
589,139.5565845,139.80137616666667,61.0,75.0
590,139.8065845,140.10866783333333,57.0,71.0
591,140.3065845,140.41179283333335,57.0,63.0
592,140.0565845,140.42741783333335,61.0,76.0
593,140.5565845,140.84825116666667,57.0,75.0
594,140.5565845,140.88575116666667,61.0,76.0
595,140.5565845,140.9440845,66.0,76.0
596,140.5565845,140.94825116666667,54.0,81.0
597,141.0565845,141.39200116666666,61.0,82.0
598,141.3065845,141.60762616666668,54.0,75.0
599,141.5565845,141.6222095,61.0,28.0
600,141.5565845,141.6659595,57.0,76.0
601,139.0565845,141.70658450000002,42.0,81.0
602,142.0565845,142.48366783333333,61.0,80.0
603,142.0565845,142.5097095,56.0,75.0
604,142.5565845,142.86075116666666,64.0,77.0
605,142.8065845,143.11387616666667,56.0,71.0
606,143.0565845,143.36804283333333,61.0,77.0
607,143.3065845,143.44200116666667,56.0,79.0
608,143.5565845,143.79929283333334,61.0,83.0
609,143.5565845,143.82012616666668,56.0,81.0
610,143.5565845,143.8222095,68.0,81.0
611,144.0565845,144.34929283333335,64.0,82.0
612,144.3065845,144.62845950000002,56.0,81.0
613,142.0565845,144.7472095,49.0,84.0
614,144.5565845,144.80241783333335,61.0,83.0
615,145.0565845,145.47429283333335,61.0,81.0
616,145.0565845,145.51491783333333,56.0,78.0
617,145.5565845,145.82325116666667,61.0,66.0
618,145.8065845,146.06595950000002,56.0,86.0
619,146.0565845,146.3503345,61.0,81.0
620,146.3065845,146.43054283333333,56.0,82.0
621,146.5565845,146.79200116666667,56.0,81.0
622,146.5565845,146.83887616666667,64.0,82.0
623,147.0565845,147.27429283333333,61.0,80.0
624,147.3065845,147.5003345,56.0,77.0
625,147.5565845,147.6815845,61.0,80.0
626,145.0565845,147.7972095,49.0,84.0
627,148.0565845,148.3190845,56.0,76.0
628,148.0565845,148.58679283333333,61.0,81.0
629,148.0565845,148.88887616666668,49.0,83.0
630,148.5565845,148.95450116666666,64.0,81.0
631,148.8065845,149.15137616666667,56.0,81.0
632,149.0565845,149.1628345,61.0,83.0
633,149.5565845,149.9472095,57.0,68.0
634,149.5565845,149.9972095,61.0,81.0
635,149.5565845,150.02741783333335,54.0,74.0
636,150.5565845,150.6722095,57.0,85.0
637,150.3065845,150.68887616666666,54.0,82.0
638,149.5565845,150.75345950000002,42.0,82.0
639,150.0565845,150.80241783333335,49.0,73.0
640,151.0565845,151.5784595,56.0,76.0
641,151.0565845,151.78054283333333,59.0,77.0
642,151.8065845,152.10554283333335,56.0,82.0
643,152.0565845,152.3065845,59.0,86.0
644,152.3065845,152.45241783333333,56.0,83.0
645,152.5565845,153.13366783333333,56.0,84.0
646,153.0565845,153.36075116666666,59.0,88.0
647,152.5565845,153.57116783333333,63.0,83.0
648,153.3065845,153.63679283333335,56.0,76.0
649,153.5565845,153.72325116666667,59.0,82.0
650,151.5565845,153.75241783333334,51.0,77.0
651,151.0565845,153.78262616666666,44.0,77.0
652,154.0565845,154.3597095,56.0,75.0
653,154.0565845,154.62116783333335,61.0,76.0
654,154.5565845,154.9159595,64.0,81.0
655,154.8065845,155.0628345,56.0,81.0
656,155.0565845,155.37325116666668,61.0,79.0
657,154.0565845,155.4065845,49.0,83.0
658,155.3065845,155.44825116666667,56.0,75.0
659,155.5565845,155.89929283333333,61.0,79.0
660,155.5565845,155.93679283333333,64.0,81.0
661,155.5565845,155.94512616666668,56.0,81.0
662,156.0565845,156.37012616666667,61.0,85.0
663,156.3065845,156.63262616666668,63.0,85.0
664,156.5565845,156.72429283333335,64.0,90.0
665,156.8065845,157.0003345,66.0,86.0
666,155.5565845,157.06491783333334,49.0,88.0
667,157.0565845,157.62116783333335,52.0,79.0
668,157.0565845,157.73262616666668,56.0,81.0
669,157.8065845,158.07429283333335,52.0,83.0
670,158.0565845,158.40450116666668,59.0,81.0
671,158.3065845,158.43887616666666,52.0,76.0
672,158.5565845,158.91491783333333,59.0,83.0
673,158.5565845,158.9503345,52.0,97.0
674,158.5565845,158.98366783333333,64.0,82.0
675,159.0565845,159.3847095,56.0,74.0
676,157.5565845,159.40762616666666,47.0,77.0
677,159.0565845,159.4347095,59.0,75.0
678,157.0565845,159.4909595,40.0,86.0
679,159.3065845,159.52116783333335,52.0,77.0
680,159.5565845,159.65866783333334,47.0,83.0
681,160.0565845,160.49304283333333,59.0,81.0
682,160.0565845,160.58679283333333,56.0,77.0
683,160.8065845,161.00345950000002,56.0,76.0
684,161.0565845,161.3222095,63.0,79.0
685,161.3065845,161.45762616666667,56.0,72.0
686,161.5565845,161.85762616666668,59.0,86.0
687,161.5565845,161.85866783333333,68.0,81.0
688,161.5565845,161.86387616666667,63.0,82.0
689,161.5565845,161.88366783333333,56.0,76.0
690,160.5565845,162.16804283333335,51.0,81.0
691,162.0565845,162.19825116666667,56.0,84.0
692,162.0565845,162.27637616666667,63.0,83.0
693,160.0565845,162.36804283333333,44.0,84.0
694,162.3065845,162.57950116666666,56.0,82.0
695,162.5565845,162.6972095,51.0,86.0
696,162.8065845,162.9690845,56.0,85.0
697,163.0565845,163.42950116666668,56.0,83.0
698,163.0565845,163.43262616666667,61.0,83.0
699,163.0565845,163.86075116666666,49.0,86.0
700,163.5565845,163.89616783333335,64.0,84.0
701,163.8065845,164.13575116666667,56.0,81.0
702,164.0565845,164.1722095,61.0,81.0
703,164.5565845,164.72637616666668,54.0,82.0
704,164.5565845,164.8690845,59.0,79.0
705,164.8065845,165.03262616666666,54.0,78.0
706,165.0565845,165.50137616666666,63.0,82.0
707,164.5565845,165.53054283333333,47.0,87.0
708,165.3065845,165.60554283333335,54.0,78.0
709,165.5565845,165.67741783333335,59.0,83.0
710,166.0565845,166.47429283333332,56.0,77.0
711,166.0565845,166.48262616666668,64.0,80.0
712,166.5565845,166.8097095,59.0,82.0
713,166.8065845,167.03470950000002,56.0,82.0
714,167.0565845,167.20866783333332,59.0,79.0
715,166.5565845,167.2659595,47.0,77.0
716,166.0565845,167.39200116666666,40.0,82.0
717,167.3065845,167.4378345,56.0,72.0
718,167.5565845,168.10866783333336,56.0,81.0
719,167.5565845,168.35137616666668,59.0,86.0
720,167.5565845,168.38679283333335,64.0,71.0
721,168.0565845,168.45137616666668,47.0,82.0
722,167.5565845,168.52325116666668,40.0,84.0
723,168.3065845,168.53262616666666,56.0,81.0
724,168.5565845,168.67116783333336,59.0,88.0
725,169.0565845,169.31179283333336,56.0,79.0
726,169.0565845,169.57741783333336,63.0,81.0
727,169.5565845,169.81387616666666,56.0,81.0
728,169.8065845,170.04200116666667,59.0,87.0
729,169.3065845,170.2753345,51.0,74.0
730,170.0565845,170.2815845,56.0,82.0
731,169.0565845,170.29825116666666,44.0,82.0
732,170.5565845,170.72429283333332,56.0,81.0
733,170.8065845,171.08054283333334,56.0,81.0
734,170.5565845,171.08054283333334,64.0,81.0
735,171.0565845,171.31804283333332,61.0,81.0
736,171.3065845,171.61700116666668,56.0,77.0
737,170.5565845,171.65554283333336,49.0,88.0
738,171.5565845,171.69200116666667,64.0,81.0
739,172.0565845,172.60866783333336,63.0,81.0
740,172.5565845,172.9909595,56.0,83.0
741,172.8065845,173.09512616666666,59.0,87.0
742,173.0565845,173.3440845,63.0,88.0
743,172.3065845,173.36387616666667,51.0,76.0
744,172.0565845,173.41179283333332,44.0,83.0
745,173.3065845,173.4972095,56.0,82.0
746,173.8065845,174.09825116666667,56.0,81.0
747,173.5565845,174.1003345,64.0,84.0
748,174.0565845,174.42637616666667,61.0,77.0
749,173.5565845,174.77012616666667,49.0,82.0
750,174.5565845,174.77950116666668,56.0,78.0
751,174.5565845,174.78366783333334,61.0,83.0
752,175.0565845,175.30241783333332,57.0,82.0
753,175.0565845,175.6097095,61.0,82.0
754,175.5565845,176.0378345,57.0,81.0
755,175.8065845,176.08054283333334,61.0,73.0
756,175.0565845,176.13887616666668,45.0,86.0
757,175.3065845,176.16179283333332,52.0,74.0
758,176.0565845,176.3222095,64.0,87.0
759,176.5565845,177.01491783333336,54.0,81.0
760,176.5565845,177.09512616666666,58.0,82.0
761,177.0565845,177.3972095,61.0,83.0
762,177.3065845,177.56804283333332,54.0,82.0
763,176.8065845,177.6409595,49.0,81.0
764,176.5565845,177.69200116666667,42.0,83.0
765,177.5565845,177.76179283333335,66.0,84.0
766,178.0565845,178.20866783333332,54.0,82.0
767,178.0565845,178.37429283333336,59.0,80.0
768,178.3065845,178.5565845,54.0,83.0
769,178.5565845,178.8597095,61.0,82.0
770,178.8065845,179.09512616666666,54.0,87.0
771,179.0565845,179.33366783333332,59.0,87.0
772,178.0565845,179.41491783333333,47.0,86.0
773,179.3065845,179.45658450000002,54.0,83.0
774,179.5565845,179.7597095,54.0,86.0
775,179.5565845,179.8972095,63.0,87.0
776,179.8065845,179.9847095,54.0,75.0
777,180.0565845,180.2940845,59.0,87.0
778,180.3065845,180.6315845,61.0,90.0
779,179.5565845,180.78887616666668,47.0,97.0
780,180.5565845,180.97741783333333,63.0,86.0
781,181.0565845,181.3972095,64.0,83.0
782,181.5565845,181.8815845,59.0,87.0
783,181.8065845,182.08679283333333,64.0,83.0
784,182.0565845,182.34929283333332,68.0,88.0
785,181.3065845,182.4190845,47.0,75.0
786,181.0565845,182.42116783333336,40.0,83.0
787,182.3065845,182.47012616666666,59.0,82.0
788,182.5565845,183.12012616666667,59.0,83.0
789,182.5565845,183.29825116666666,64.0,82.0
790,182.5565845,183.42012616666668,68.0,83.0
791,183.3065845,183.63366783333333,59.0,81.0
792,182.5565845,183.75554283333332,40.0,82.0
793,183.0565845,183.76387616666668,47.0,76.0
794,183.5565845,184.00554283333332,64.0,83.0
795,184.5565845,184.89929283333333,56.0,84.0
796,184.8065845,184.95866783333332,59.0,95.0
797,185.0565845,185.22012616666666,63.0,90.0
798,184.0565845,185.42325116666666,44.0,87.0
799,184.3065845,185.4378345,51.0,73.0
800,185.3065845,185.4472095,56.0,78.0
801,185.5565845,185.89304283333334,59.0,85.0
802,185.5565845,185.9159595,63.0,83.0
803,185.5565845,185.92741783333332,56.0,82.0
804,186.0565845,186.2284595,56.0,77.0
805,186.0565845,186.34512616666666,63.0,88.0
806,186.0565845,186.37429283333333,59.0,83.0
807,186.5565845,186.7659595,56.0,77.0
808,186.5565845,186.83991783333335,64.0,83.0
809,185.5565845,186.91700116666667,44.0,82.0
810,186.3065845,186.93262616666667,51.0,81.0
811,187.0565845,187.2753345,56.0,81.0
812,187.0565845,187.52325116666668,64.0,82.0
813,187.5565845,188.06700116666667,56.0,70.0
814,187.3065845,188.3565845,52.0,70.0
815,187.0565845,188.36387616666667,49.0,86.0
816,188.0565845,188.3753345,61.0,84.0
817,188.3065845,188.46700116666668,56.0,76.0
818,188.5565845,188.94200116666667,54.0,83.0
819,188.5565845,188.97220950000002,59.0,83.0
820,189.0565845,189.52325116666668,63.0,87.0
821,188.5565845,189.5472095,47.0,87.0
822,189.3065845,189.61491783333332,54.0,81.0
823,189.5565845,189.69825116666667,59.0,79.0
824,190.0565845,190.3534595,56.0,76.0
825,190.0565845,190.65866783333334,64.0,81.0
826,190.5565845,191.06804283333332,56.0,81.0
827,191.0565845,191.37950116666667,59.0,86.0
828,190.3065845,191.41804283333335,47.0,71.0
829,190.0565845,191.43575116666668,40.0,83.0
830,191.3065845,191.47429283333332,64.0,81.0
831,191.5565845,192.1378345,56.0,82.0
832,191.5565845,192.37429283333333,64.0,84.0
833,192.0565845,192.44304283333332,47.0,82.0
834,191.5565845,192.5440845,40.0,82.0
835,192.5565845,192.71179283333333,47.0,81.0
836,192.3065845,192.78991783333333,59.0,97.0
837,192.8065845,192.95241783333333,56.0,83.0
838,193.0565845,193.6097095,56.0,84.0
839,193.0565845,193.65241783333335,59.0,83.0
840,193.8065845,194.1378345,63.0,86.0
841,193.0565845,194.28470950000002,44.0,82.0
842,193.5565845,194.29929283333334,51.0,81.0
843,194.0565845,194.41700116666667,56.0,83.0
844,194.5565845,195.3034595,64.0,86.0
845,195.0565845,195.41491783333333,56.0,82.0
846,195.3065845,195.5940845,61.0,75.0
847,194.5565845,195.59512616666666,49.0,88.0
848,194.8065845,195.60866783333333,52.0,78.0
849,195.5565845,195.93887616666666,64.0,85.0
850,196.0565845,196.6878345,56.0,77.0
851,196.0565845,196.84200116666668,63.0,81.0
852,196.5565845,196.9940845,51.0,83.0
853,196.0565845,196.99929283333333,44.0,82.0
854,196.8065845,197.0472095,59.0,83.0
855,197.0565845,197.1815845,56.0,84.0
856,197.5565845,198.08887616666667,57.0,81.0
857,197.5565845,198.40137616666667,61.0,81.0
858,198.30658449999999,198.6253345,57.0,81.0
859,198.55658449999999,198.65241783333335,61.0,51.0
860,197.5565845,198.6940845,45.0,81.0
861,198.05658449999999,198.76804283333334,52.0,80.0
862,198.55658449999999,198.8815845,64.0,82.0
863,199.05658449999999,199.5222095,63.0,81.0
864,199.05658449999999,199.55762616666667,59.0,76.0
865,199.80658449999999,200.1003345,59.0,82.0
866,199.05658449999999,200.37950116666667,47.0,87.0
867,200.05658449999999,200.43366783333335,66.0,78.0
868,199.55658449999999,200.44200116666667,54.0,76.0
869,200.30658449999999,200.46387616666667,59.0,81.0
870,200.55658449999999,201.29825116666666,47.0,84.0
871,200.55658449999999,201.31075116666668,71.0,77.0
872,200.55658449999999,201.37116783333335,66.0,76.0
873,200.55658449999999,201.39304283333334,59.0,84.0
874,202.05658449999999,202.55137616666667,52.0,69.0
875,202.05658449999999,202.73679283333334,56.0,74.0
876,202.80658449999999,203.1065845,52.0,72.0
877,203.05658449999999,203.33679283333333,54.0,81.0
878,202.05658449999999,203.40450116666668,40.0,82.0
879,202.55658449999999,203.42325116666666,47.0,77.0
880,203.30658449999999,203.47950116666667,56.0,76.0
881,203.55658449999999,203.88679283333335,52.0,76.0
882,203.55658449999999,203.95137616666668,59.0,83.0
883,204.05658449999999,204.36908449999999,56.0,81.0
884,204.05658449999999,204.3909595,52.0,81.0
885,204.55658449999999,204.72845949999999,52.0,82.0
886,203.55658449999999,204.9909595,40.0,81.0
887,204.55658449999999,204.99200116666668,56.0,83.0
888,204.55658449999999,205.02533449999999,59.0,82.0
889,204.80658449999999,205.03054283333336,47.0,83.0
890,205.05658449999999,205.62116783333335,52.0,79.0
891,205.05658449999999,205.73262616666668,56.0,81.0
892,205.80658449999999,206.07429283333335,52.0,83.0
893,206.05658449999999,206.40450116666668,59.0,81.0
894,206.30658449999999,206.43887616666666,52.0,76.0
895,206.55658449999999,206.91491783333333,59.0,83.0
896,206.55658449999999,206.9503345,52.0,97.0
897,206.55658449999999,206.98366783333336,64.0,82.0
898,207.05658449999999,207.38470949999999,56.0,74.0
899,205.55658449999999,207.40762616666666,47.0,77.0
900,207.05658449999999,207.4347095,59.0,75.0
901,205.05658449999999,207.4909595,40.0,86.0
902,207.30658449999999,207.52116783333332,52.0,77.0
903,207.55658449999999,207.65866783333334,47.0,83.0
904,208.05658449999999,208.49304283333333,59.0,81.0
905,208.05658449999999,208.58679283333333,56.0,77.0
906,208.80658449999999,209.00345950000002,56.0,76.0
907,209.05658449999999,209.32220949999999,63.0,79.0
908,209.30658449999999,209.45762616666667,56.0,72.0
909,209.55658449999999,209.85762616666668,59.0,86.0
910,209.55658449999999,209.85866783333336,68.0,81.0
911,209.55658449999999,209.86387616666667,63.0,82.0
912,209.55658449999999,209.88366783333333,56.0,76.0
913,208.55658449999999,210.16804283333335,51.0,81.0
914,210.05658449999999,210.19825116666667,56.0,84.0
915,210.05658449999999,210.27637616666667,63.0,83.0
916,208.05658449999999,210.36804283333333,44.0,84.0
917,210.30658449999999,210.57950116666666,56.0,82.0
918,210.55658449999999,210.69720949999999,51.0,86.0
919,210.80658449999999,210.9690845,56.0,85.0
920,211.05658449999999,211.42950116666668,56.0,83.0
921,211.05658449999999,211.43262616666667,61.0,83.0
922,211.05658449999999,211.86075116666666,49.0,86.0
923,211.55658449999999,211.89616783333332,64.0,84.0
924,211.80658449999999,212.13575116666667,56.0,81.0
925,212.05658449999999,212.1722095,61.0,81.0
926,212.55658449999999,212.72637616666668,54.0,82.0
927,212.55658449999999,212.86908449999999,59.0,79.0
928,212.80658449999999,213.03262616666666,54.0,78.0
929,213.05658449999999,213.50137616666666,63.0,82.0
930,212.55658449999999,213.53054283333336,47.0,87.0
931,213.30658449999999,213.60554283333335,54.0,78.0
932,213.55658449999999,213.67741783333332,59.0,83.0
933,214.05658449999999,214.47429283333332,56.0,77.0
934,214.05658449999999,214.48262616666668,64.0,80.0
935,214.55658449999999,214.8097095,59.0,82.0
936,214.80658449999999,215.03470950000002,56.0,82.0
937,215.05658449999999,215.20866783333332,59.0,79.0
938,214.55658449999999,215.2659595,47.0,77.0
939,214.05658449999999,215.39200116666666,40.0,82.0
940,215.30658449999999,215.4378345,56.0,72.0
941,215.55658449999999,216.10866783333336,56.0,81.0
942,215.55658449999999,216.35137616666668,59.0,86.0
943,215.55658449999999,216.38679283333335,64.0,71.0
944,216.05658449999999,216.45137616666668,47.0,82.0
945,215.55658449999999,216.52325116666668,40.0,84.0
946,216.30658449999999,216.53262616666666,56.0,81.0
947,216.55658449999999,216.67116783333336,59.0,88.0
948,217.05658449999999,217.31179283333336,56.0,79.0
949,217.05658449999999,217.57741783333336,63.0,81.0
950,217.55658449999999,217.81387616666666,56.0,81.0
951,217.80658449999999,218.04200116666667,59.0,87.0
952,217.30658449999999,218.27533449999999,51.0,74.0
953,218.05658449999999,218.2815845,56.0,82.0
954,217.05658449999999,218.29825116666666,44.0,82.0
955,218.55658449999999,218.72429283333332,56.0,81.0
956,218.80658449999999,219.08054283333334,56.0,81.0
957,218.55658449999999,219.08054283333334,64.0,81.0
958,219.05658449999999,219.31804283333332,61.0,81.0
959,219.30658449999999,219.61700116666668,56.0,77.0
960,218.55658449999999,219.65554283333336,49.0,88.0
961,219.55658449999999,219.69200116666667,64.0,81.0
962,220.05658449999999,220.60866783333336,63.0,81.0
963,220.55658449999999,220.9909595,56.0,83.0
964,220.80658449999999,221.09512616666666,59.0,87.0
965,221.05658449999999,221.3440845,63.0,88.0
966,220.30658449999999,221.36387616666667,51.0,76.0
967,220.05658449999999,221.41179283333332,44.0,83.0
968,221.30658449999999,221.4972095,56.0,82.0
969,221.80658449999999,222.09825116666667,56.0,81.0
970,221.55658449999999,222.1003345,64.0,84.0
971,222.05658449999999,222.42637616666667,61.0,77.0
972,221.55658449999999,222.77012616666667,49.0,82.0
973,222.55658449999999,222.77950116666668,56.0,78.0
974,222.55658449999999,222.78366783333334,61.0,83.0
975,223.05658449999999,223.30241783333332,57.0,82.0
976,223.05658449999999,223.6097095,61.0,82.0
977,223.55658449999999,224.0378345,57.0,81.0
978,223.80658449999999,224.08054283333334,61.0,73.0
979,223.05658449999999,224.13887616666668,45.0,86.0
980,223.30658449999999,224.16179283333332,52.0,74.0
981,224.05658449999999,224.32220949999999,64.0,87.0
982,224.55658449999999,225.01491783333336,54.0,81.0
983,224.55658449999999,225.09512616666666,58.0,82.0
984,225.05658449999999,225.3972095,61.0,83.0
985,225.30658449999999,225.56804283333332,54.0,82.0
986,224.80658449999999,225.6409595,49.0,81.0
987,224.55658449999999,225.69200116666667,42.0,83.0
988,225.55658449999999,225.76179283333335,66.0,84.0
989,226.05658449999999,226.20866783333332,54.0,82.0
990,226.05658449999999,226.37429283333336,59.0,80.0
991,226.30658449999999,226.55658449999999,54.0,83.0
992,226.55658449999999,226.8597095,61.0,82.0
993,226.80658449999999,227.09512616666666,54.0,87.0
994,227.05658449999999,227.33366783333332,59.0,87.0
995,226.05658449999999,227.41491783333333,47.0,86.0
996,227.30658449999999,227.45658450000002,54.0,83.0
997,227.55658449999999,227.75970949999999,54.0,86.0
998,227.55658449999999,227.8972095,63.0,87.0
999,227.80658449999999,227.9847095,54.0,75.0
1000,228.05658449999999,228.2940845,59.0,87.0
1001,228.30658449999999,228.6315845,61.0,90.0
1002,227.55658449999999,228.78887616666668,47.0,97.0
1003,228.55658449999999,228.97741783333333,63.0,86.0
1004,229.05658449999999,229.3972095,64.0,83.0
1005,229.55658449999999,229.8815845,59.0,87.0
1006,229.80658449999999,230.08679283333333,64.0,83.0
1007,230.05658449999999,230.34929283333332,68.0,88.0
1008,229.30658449999999,230.4190845,47.0,75.0
1009,229.05658449999999,230.42116783333336,40.0,83.0
1010,230.30658449999999,230.47012616666666,59.0,82.0
1011,230.55658449999999,231.12012616666667,59.0,83.0
1012,230.55658449999999,231.29825116666666,64.0,82.0
1013,230.55658449999999,231.42012616666668,68.0,83.0
1014,231.30658449999999,231.63366783333333,59.0,81.0
1015,230.55658449999999,231.75554283333332,40.0,82.0
1016,231.05658449999999,231.76387616666668,47.0,76.0
1017,231.55658449999999,232.00554283333332,64.0,83.0
1018,232.55658449999999,232.89929283333333,56.0,84.0
1019,232.80658449999999,232.95866783333332,59.0,95.0
1020,233.05658449999999,233.22012616666666,63.0,90.0
1021,232.05658449999999,233.42325116666666,44.0,87.0
1022,232.30658449999999,233.4378345,51.0,73.0
1023,233.30658449999999,233.44720949999999,56.0,78.0
1024,233.55658449999999,233.89304283333334,59.0,85.0
1025,233.55658449999999,233.91595949999999,63.0,83.0
1026,233.55658449999999,233.92741783333332,56.0,82.0
1027,234.05658449999999,234.22845949999999,56.0,77.0
1028,234.05658449999999,234.34512616666666,63.0,88.0
1029,234.05658449999999,234.37429283333336,59.0,83.0
1030,234.55658449999999,234.7659595,56.0,77.0
1031,234.55658449999999,234.83991783333335,64.0,83.0
1032,233.55658449999999,234.91700116666667,44.0,82.0
1033,234.30658449999999,234.93262616666667,51.0,81.0
1034,235.05658449999999,235.27533449999999,56.0,81.0
1035,235.05658449999999,235.52325116666668,64.0,82.0
1036,235.55658449999999,236.06700116666667,56.0,70.0
1037,235.30658449999999,236.3565845,52.0,70.0
1038,235.05658449999999,236.36387616666667,49.0,86.0
1039,236.05658449999999,236.3753345,61.0,84.0
1040,236.30658449999999,236.46700116666668,56.0,76.0
1041,236.55658449999999,236.94200116666667,54.0,83.0
1042,236.55658449999999,236.97220950000002,59.0,83.0
1043,237.05658449999999,237.52325116666668,63.0,87.0
1044,236.55658449999999,237.5472095,47.0,87.0
1045,237.30658449999999,237.61491783333332,54.0,81.0
1046,237.55658449999999,237.69825116666667,59.0,79.0
1047,238.05658449999999,238.35345949999999,56.0,76.0
1048,238.05658449999999,238.65866783333334,64.0,81.0
1049,238.55658449999999,239.06804283333332,56.0,81.0
1050,239.05658449999999,239.37950116666667,59.0,86.0
1051,238.30658449999999,239.41804283333335,47.0,71.0
1052,238.05658449999999,239.43575116666668,40.0,83.0
1053,239.30658449999999,239.47429283333332,64.0,81.0
1054,239.55658449999999,240.1378345,56.0,82.0
1055,239.55658449999999,240.37429283333336,64.0,84.0
1056,240.05658449999999,240.44304283333332,47.0,82.0
1057,239.55658449999999,240.5440845,40.0,82.0
1058,240.55658449999999,240.71179283333333,47.0,81.0
1059,240.30658449999999,240.78991783333333,59.0,97.0
1060,240.80658449999999,240.95241783333336,56.0,83.0
1061,241.05658449999999,241.6097095,56.0,84.0
1062,241.05658449999999,241.65241783333335,59.0,83.0
1063,241.80658449999999,242.1378345,63.0,86.0
1064,241.05658449999999,242.28470950000002,44.0,82.0
1065,241.55658449999999,242.29929283333334,51.0,81.0
1066,242.05658449999999,242.41700116666667,56.0,83.0
1067,242.55658449999999,243.3034595,64.0,86.0
1068,243.05658449999999,243.41491783333333,56.0,82.0
1069,243.30658449999999,243.5940845,61.0,75.0
1070,242.55658449999999,243.59512616666666,49.0,88.0
1071,242.80658449999999,243.60866783333336,52.0,78.0
1072,243.55658449999999,243.93887616666666,64.0,85.0
1073,244.05658449999999,244.6878345,56.0,77.0
1074,244.05658449999999,244.84200116666668,63.0,81.0
1075,244.55658449999999,244.99408449999999,51.0,83.0
1076,244.05658449999999,244.99929283333336,44.0,82.0
1077,244.80658449999999,245.0472095,59.0,83.0
1078,245.05658449999999,245.18158449999999,56.0,84.0
1079,245.55658449999999,246.08887616666667,57.0,81.0
1080,245.55658449999999,246.40137616666667,61.0,81.0
1081,246.30658449999999,246.6253345,57.0,81.0
1082,246.55658449999999,246.65241783333335,61.0,51.0
1083,245.55658449999999,246.6940845,45.0,81.0
1084,246.05658449999999,246.76804283333334,52.0,80.0
1085,246.55658449999999,246.8815845,64.0,82.0
1086,247.05658449999999,247.5222095,63.0,81.0
1087,247.05658449999999,247.55762616666667,59.0,76.0
1088,247.80658449999999,248.1003345,59.0,82.0
1089,247.05658449999999,248.37950116666667,47.0,87.0
1090,248.05658449999999,248.43366783333335,66.0,78.0
1091,247.55658449999999,248.44200116666667,54.0,76.0
1092,248.30658449999999,248.46387616666667,59.0,81.0
1093,248.55658449999999,249.29825116666666,47.0,84.0
1094,248.55658449999999,249.31075116666668,71.0,77.0
1095,248.55658449999999,249.37116783333335,66.0,76.0
1096,248.55658449999999,249.39304283333334,59.0,84.0
1097,250.05658449999999,250.55137616666667,52.0,69.0
1098,250.05658449999999,250.73679283333334,56.0,74.0
1099,250.80658449999999,251.1065845,52.0,72.0
1100,251.05658449999999,251.33679283333333,54.0,81.0
1101,250.05658449999999,251.40450116666668,40.0,82.0
1102,250.55658449999999,251.42325116666666,47.0,77.0
1103,251.30658449999999,251.47950116666667,56.0,76.0
1104,251.45554283333334,251.47950116666667,56.0,73.0
1105,251.38054283333332,254.00345950000002,52.0,68.0
1106,251.4534595,254.01804283333334,40.0,66.0
1107,251.54825116666666,254.03054283333336,59.0,62.0
1108,251.5784595,254.05137616666667,64.0,69.0
