,start,end,pitch,velocity
0,20.16749475,20.415510375,60.0,111.0
1,20.40558975,20.53257375,62.0,97.0
2,20.64368475,20.788525875,65.0,108.0
3,20.88177975,21.00876375,67.0,100.0
4,21.11987475,21.574239375,67.0,105.0
5,21.59606475,22.96805623125,69.0,97.0
6,23.72443783125,23.93323066875,60.0,94.0
7,23.96080708125,24.124295812499998,69.0,111.0
8,24.19717633125,24.30157275,67.0,114.0
9,24.433545581249998,24.56354866875,67.0,100.0
10,24.66991483125,24.8255245875,69.0,92.0
11,24.90628408125,25.29235385625,67.0,108.0
12,25.37902258125,26.4879883125,65.0,108.0
13,27.742715081249997,27.88059714375,65.0,114.0
14,27.97908433125,28.1031781875,67.0,108.0
15,28.21545358125,28.32575923125,69.0,108.0
16,28.45182283125,28.6074325875,72.0,108.0
17,28.68819208125,29.052594674999998,74.0,102.0
18,29.16093058125,29.296842899999998,74.0,102.0
19,29.39729983125,30.630359418749997,74.0,114.0
20,31.28825383125,31.479318974999998,74.0,97.0
21,31.52462308125,31.72947643125,72.0,111.0
22,31.76099233125,31.94614824375,70.0,105.0
23,31.997361581249997,32.1332739,69.0,111.0
24,32.23373083125,32.39131033125,70.0,109.0
25,32.470100081249996,34.23892996875,69.0,114.0
26,35.30653108125,35.66502444375,69.0,123.0
27,35.77926958125,36.09048909375,72.0,111.0
28,36.25200808125,36.5967132375,74.0,105.0
29,36.72474658125,36.8488404375,74.0,100.0
30,36.96111583125,38.375391843749995,74.0,108.0
31,39.08843908125,39.419356031250004,74.0,111.0
32,39.56117758125,39.71087810625,74.0,111.0
33,39.79754683125,39.92754991875,69.0,111.0
34,40.03391608125,40.7568120375,72.0,108.0
35,40.979393081249995,41.3713720875,72.0,108.0
36,41.45213158125,41.597892618749995,74.0,105.0
37,41.688500831249996,42.980652731250004,69.0,108.0
38,44.28856258125,44.621449275,65.0,87.0
39,44.76130108125,45.21040265625,65.0,111.0
40,45.23403958125,45.3896493375,62.0,105.0
41,45.47040883125,45.8308719375,62.0,105.0
42,45.94314733125,47.073780243749994,65.0,97.0
43,47.36136283125,47.5721254125,62.0,108.0
44,47.59773208125,49.86293739375,67.0,105.0
45,50.43416308125,50.680381049999994,60.0,111.0
46,50.67053233125,50.796595931249996,62.0,97.0
47,50.90690158125,51.050692874999996,65.0,108.0
48,51.14327083125,51.26933443125,67.0,100.0
49,51.37964008125,51.8307114,67.0,105.0
50,51.852378581249994,53.22332023125,69.0,97.0
51,53.97970183125,54.188494668749996,60.0,94.0
52,54.21607108124999,54.379559812500005,69.0,111.0
53,54.45244033125,54.55683675,67.0,114.0
54,54.68880958125,54.81881266875,67.0,100.0
55,54.925178831249994,55.080788587499995,69.0,92.0
56,55.161548081250004,55.54761785625,67.0,108.0
57,55.634286581249995,56.743252312500005,65.0,108.0
58,57.997979081249994,58.13586114374999,65.0,114.0
59,58.234348331250004,58.3584421875,67.0,108.0
60,58.47071758125,58.58102323125,69.0,108.0
61,58.707086831249995,58.8626965875,72.0,108.0
62,58.943456081250005,59.307858675000006,74.0,102.0
63,59.41619458125,59.5521069,74.0,102.0
64,59.65256383124999,60.88562341875,74.0,114.0
65,61.54351783125,61.734582974999995,74.0,97.0
66,61.779887081249996,61.98474043125,72.0,111.0
67,62.016256331250005,62.20141224375,70.0,105.0
68,62.25262558125,62.3885379,69.0,111.0
69,62.48899483125,62.646574331249994,70.0,109.0
70,62.72536408124999,64.49419396875,69.0,114.0
71,65.56179508125,65.92028844375,69.0,123.0
72,66.03453358125,66.34575309375,72.0,111.0
73,66.50727208125,66.8519772375,74.0,105.0
74,66.98001058125,67.1041044375,74.0,100.0
75,67.21637983125,68.63065584374999,74.0,108.0
76,69.34370308125,69.67462003125,74.0,111.0
77,69.81644158125,69.96614210625,74.0,111.0
78,70.05281083125,70.18281391875,69.0,111.0
79,70.28918008125,71.0120760375,72.0,108.0
80,71.23465708124999,71.6266360875,72.0,108.0
81,71.70739558125,71.85315661874999,74.0,105.0
82,71.94376483125,73.23591673125,69.0,108.0
83,74.54382658125,74.876713275,65.0,87.0
84,75.01656508125,75.46566665625,65.0,111.0
85,75.48930358125,75.6449133375,62.0,105.0
86,75.72567283125,76.0861359375,69.0,105.0
87,76.19841133125,77.32904424375,67.0,97.0
88,77.38025758124999,77.8273894125,69.0,108.0
89,77.85299608125,80.11820139375,65.0,105.0
90,82.10764258125,82.43265029999999,70.0,112.0
91,82.58038108125,82.91523751875,70.0,112.0
92,83.05311958125,83.2087293375,72.0,97.0
93,83.28948883125,85.1154412875,69.0,108.0
94,85.88955058124999,86.19092137499999,67.0,105.0
95,86.36228908125,86.71093372499999,67.0,111.0
96,86.83502758124999,86.97093989999999,65.0,100.0
97,87.07139683125,88.30445641875,65.0,114.0
98,88.72598158125,88.854014925,65.0,108.0
99,88.96235083124999,89.0706867375,64.0,105.0
100,89.19872008124999,89.500090875,62.0,105.0
101,89.67145858125,89.8270683375,62.0,94.0
102,89.90782783124999,90.08313502499999,60.0,102.0
103,90.14419708125,90.4495073625,62.0,102.0
104,90.61693558124999,90.74102943749999,62.0,114.0
105,90.85330483125,90.965580225,65.0,100.0
106,91.08967408125,91.18816126875,64.0,117.0
107,91.32604333124999,91.44816744375,64.0,97.0
108,91.56241258125,91.68453669374999,64.0,94.0
109,91.79878183125,92.18485160624999,64.0,105.0
110,92.50788958125,92.61819523125,62.0,111.0
111,92.74425883125,92.84865525,64.0,108.0
112,92.98062808124999,93.092903475,65.0,94.0
113,93.21699733125,93.329272725,65.0,89.0
114,93.45336658125,93.60306710625,65.0,94.0
115,93.68973583124999,94.11323073749999,65.0,100.0
116,94.16247433125,94.29641690624999,65.0,100.0
117,94.39884358124999,94.54460461875,65.0,100.0
118,94.63521283125,94.779004125,69.0,108.0
119,94.87158208125,95.04098004375,67.0,105.0
120,95.34432058124999,95.46053546249999,67.0,114.0
121,95.58068983125,95.692965225,67.0,100.0
122,95.81705908125,96.22085655,67.0,108.0
123,96.28979758125,96.465104775,65.0,105.0
124,96.52616683125,99.32911218749999,72.0,108.0
125,99.59896708125,99.73881888749999,74.0,111.0
126,99.83533633124999,100.6449010125,76.0,111.0
127,101.01718258125,101.76568520625,77.0,114.0
128,101.96265958125,102.25812114374999,69.0,114.0
129,102.43539808125,102.80177041875,72.0,114.0
130,102.90813658124999,103.04207915625,74.0,97.0
131,103.14450583125,103.60148638125,72.0,114.0
132,103.85361358124999,104.00922333749999,69.0,117.0
133,104.08998283125,104.19043976249999,67.0,105.0
134,104.32635208125,104.643480825,65.0,105.0
135,104.79909058125,105.10637060625,65.0,105.0
136,105.27182908124999,105.62441321249999,65.0,108.0
137,105.74456758125,106.11093991874999,69.0,111.0
138,106.21730608125,106.57973893124999,67.0,108.0
139,106.69004458124999,106.84171484999999,69.0,100.0
140,106.92641383124999,107.3893036125,67.0,111.0
141,108.09841136249999,108.346599075,74.0,108.0
142,108.425388825,108.68342525624999,74.0,97.0
143,108.76418475,108.90403655624999,72.0,105.0
144,109.03010015625,109.27040889374999,72.0,111.0
145,109.35707761875,109.6111745625,69.0,111.0
146,109.70966175,109.86921099374999,67.0,105.0
147,109.96769818125,110.20406743125,69.0,114.0
148,110.23558333125,110.94469108125,72.0,102.0
149,111.18106033125,111.35045829375,69.0,105.0
150,111.41742958124999,111.54152343749999,67.0,108.0
151,111.65379883125,111.82910602499999,65.0,111.0
152,111.89016808125,112.19153887499999,67.0,108.0
153,112.36290658124999,112.52048608125,67.0,105.0
154,112.59927583125,112.7312486625,65.0,105.0
155,112.83564508125,113.19413844374999,67.0,111.0
156,113.30838358125,113.45020513124999,65.0,108.0
157,113.54475283125,113.78112208124999,65.0,105.0
158,113.78112208124999,114.08840210625,72.0,117.0
159,114.25386058125,114.54932214374999,72.0,114.0
160,114.72659908125,114.85266268125,72.0,111.0
161,114.96296833125,115.09691090624999,74.0,102.0
162,115.19933758124999,115.71962376249999,76.0,114.0
163,116.14139060624998,116.77502172499999,77.0,108.0
164,117.08300960624999,117.40276772499999,69.0,108.0
165,117.55381910624999,117.88730916875,72.0,108.0
166,118.02462860624999,118.18548851874999,74.0,100.0
167,118.26003335624999,118.62294901249999,72.0,117.0
168,118.96624760625,119.12318410625,69.0,105.0
169,119.20165235624998,119.30954619999999,67.0,108.0
170,119.43705710624998,119.79212593749999,65.0,108.0
171,119.90786660624998,120.02949239374999,65.0,108.0
172,120.14327135624998,120.73570664374999,65.0,111.0
173,121.08489035624999,121.23005661874998,65.0,105.0
174,121.32029510624999,121.65378516874999,72.0,108.0
175,121.79110460624999,121.90880698124998,74.0,100.0
176,122.02650935624999,122.97989859375,72.0,108.0
177,123.20353310624999,123.38401008124998,69.0,108.0
178,123.43893785624999,123.58018070624999,67.0,97.0
179,123.67434260624998,124.49433581874999,65.0,111.0
180,124.61596160624998,124.79447687499999,67.0,102.0
181,124.85136635624998,125.01811138749999,65.0,105.0
182,125.08677110624998,125.39083557499998,67.0,105.0
183,125.55758060624999,125.65174250624999,69.0,108.0
184,125.79336311874998,126.26610161874999,60.0,105.0
185,126.26610161874999,127.09733348124999,67.0,108.0
186,127.44794786874998,128.21614793125,67.0,111.0
187,128.39342486874997,128.73616028125,65.0,117.0
188,128.86616336875,131.55289384374998,65.0,105.0
189,152.50308836874999,152.74930633749997,60.0,111.0
190,152.73945761874998,152.86552121875,62.0,97.0
191,152.97582686874998,153.1196181625,65.0,108.0
192,153.21219611874997,153.33825971874998,67.0,100.0
193,153.44856536875,153.8996366875,67.0,105.0
194,153.92130386875,155.29224551874998,69.0,97.0
195,156.04862711874998,156.25741995624998,60.0,94.0
196,156.28499636874997,156.44848509999997,69.0,111.0
197,156.52136561875,156.62576203749998,67.0,114.0
198,156.75773486875,156.88773795625,67.0,100.0
199,156.99410411875,157.14971387499997,69.0,92.0
200,157.23047336874998,157.61654314375,67.0,108.0
201,157.70321186874997,158.81217759999998,65.0,108.0
202,160.06690436875,160.20478643125,65.0,114.0
203,160.30327361874998,160.42736747499998,67.0,108.0
204,160.53964286874998,160.64994851874997,69.0,108.0
205,160.77601211874997,160.931621875,72.0,108.0
206,161.01238136874997,161.37678396249999,74.0,102.0
207,161.48511986875,161.6210321875,74.0,102.0
208,161.72148911875,162.95454870624997,74.0,114.0
209,163.61244311874998,163.80350826249997,74.0,97.0
210,163.84881236874998,164.05366571874998,72.0,111.0
211,164.08518161874997,164.27033753125,70.0,105.0
212,164.32155086874997,164.45746318749997,69.0,111.0
213,164.55792011875,164.71549961875,70.0,109.0
214,164.79428936875,166.56311925625,69.0,114.0
215,167.63072036875,167.98921373124998,69.0,123.0
216,168.10345886874998,168.41467838124998,72.0,111.0
217,168.57619736874997,168.92090252499997,74.0,105.0
218,169.04893586875,169.173029725,74.0,100.0
219,169.28530511875,170.69958113125,74.0,108.0
220,171.41262836874998,171.74354531874997,74.0,111.0
221,171.88536686875,172.03506739374998,74.0,111.0
222,172.12173611875,172.25173920624997,69.0,111.0
223,172.35810536875,173.081001325,72.0,108.0
224,173.30358236874997,173.69556137499998,72.0,108.0
225,173.77632086875,173.92208190624999,74.0,105.0
226,174.01269011875,175.30484201874998,69.0,108.0
227,176.61275186874997,176.9456385625,65.0,87.0
228,177.08549036875,177.53459194374997,65.0,111.0
229,177.55822886874998,177.713838625,62.0,105.0
230,177.79459811874997,178.155061225,69.0,105.0
231,178.26733661875,179.39796953125,67.0,97.0
232,179.44918286874997,179.89631469999998,69.0,108.0
233,179.92192136875,182.18712668125,65.0,105.0
234,184.1718859645833,184.49546574583331,70.0,112.0
235,184.64254746458332,184.97593269374997,70.0,112.0
236,185.11320896458332,185.26813504166665,72.0,97.0
237,185.34853971458332,187.1664697583333,69.0,108.0
238,187.93717796458333,188.2372246708333,67.0,105.0
239,188.4078394645833,188.75495232083333,67.0,111.0
240,188.8785009645833,189.01400757083331,65.0,100.0
241,189.1143380645833,190.34584569374996,65.0,114.0
242,190.7668403145833,190.89471251249998,65.0,108.0
243,191.0029120645833,191.11111161666665,64.0,105.0
244,191.2389838145833,191.5399752958333,62.0,105.0
245,191.7111273145833,191.86654121666663,62.0,94.0
246,191.94719906458332,192.12228561249998,60.0,102.0
247,192.1832708145833,192.48819682499996,62.0,102.0
248,192.6554143145833,192.7793519833333,62.0,114.0
249,192.8914860645833,193.0036201458333,65.0,100.0
250,193.1275578145833,193.22592104374996,64.0,117.0
251,193.3636295645833,193.48559996874997,64.0,97.0
252,193.5997013145833,193.72167171874997,64.0,94.0
253,193.8357730645833,194.22135692291664,64.0,105.0
254,194.54398831458332,194.65415513124998,62.0,111.0
255,194.7800600645833,194.88432508749997,64.0,108.0
256,195.0161318145833,195.1282658958333,65.0,94.0
257,195.2522035645833,195.3643376458333,65.0,89.0
258,195.4882753145833,195.63778742291663,65.0,94.0
259,195.7243470645833,196.14730894999997,65.0,100.0
260,196.1964905645833,196.33026455624997,65.0,100.0
261,196.4325623145833,196.57813989374998,65.0,100.0
262,196.6686340645833,196.81224437916663,69.0,108.0
263,196.9047058145833,197.07389056874996,67.0,105.0
264,197.3768493145833,197.49291792499997,67.0,114.0
265,197.6129210645833,197.7250551458333,67.0,100.0
266,197.8489928145833,198.25228205416664,67.0,108.0
267,198.3211363145833,198.49622286249996,65.0,105.0
268,198.5572080645833,201.35662556666665,72.0,108.0
269,201.6261408145833,201.76581659999997,74.0,111.0
270,201.8622125645833,202.6707583083333,76.0,111.0
271,203.0425713145833,203.79013185624996,77.0,114.0
272,203.98685831458332,204.2819480020833,69.0,114.0
273,204.4590018145833,204.8249130270833,72.0,114.0
274,204.9311453145833,205.06491930624998,74.0,97.0
275,205.1672170645833,205.62362244791663,72.0,114.0
276,205.8754323145833,206.03084621666665,69.0,117.0
277,206.1115040645833,206.2118345583333,67.0,105.0
278,206.3475758145833,206.66430541249997,65.0,105.0
279,206.8197193145833,207.12661258958332,65.0,105.0
280,207.2918628145833,207.64400317499997,65.0,108.0
281,207.7640063145833,208.1299175270833,69.0,111.0
282,208.2361498145833,208.59812649791664,67.0,108.0
283,208.7082933145833,208.85977268749997,69.0,100.0
284,208.9443650645833,209.40676814791664,67.0,111.0
285,210.11520614791664,210.36315944791662,74.0,108.0
286,210.44187478124996,210.69966749791664,74.0,97.0
287,210.7803507145833,210.92007043124997,72.0,105.0
288,211.0460149645833,211.28609673124996,72.0,111.0
289,211.37268359791662,211.62654054791662,69.0,111.0
290,211.7249347145833,211.8843332645833,67.0,105.0
291,211.98272743124997,212.21887343124996,69.0,114.0
292,212.2503595645833,212.9587975645833,72.0,102.0
293,213.1949435645833,213.36418153124995,69.0,105.0
294,213.4310895645833,213.5550662145833,67.0,108.0
295,213.6672355645833,213.84237718124996,65.0,111.0
296,213.9033815645833,214.2044677145833,67.0,108.0
297,214.37567356458328,214.53310423124995,67.0,105.0
298,214.6118195645833,214.74366774791662,65.0,105.0
299,214.8479655645833,215.20612033124996,67.0,111.0
300,215.3202575645833,215.46194516458328,65.0,108.0
301,215.5564035645833,215.79254956458328,65.0,105.0
302,215.79254956458328,216.0995393645833,72.0,117.0
303,216.2648415645833,216.5600240645833,72.0,114.0
304,216.7371335645833,216.86307809791663,72.0,111.0
305,216.9732795645833,217.10709563124996,74.0,102.0
306,217.20942556458328,217.73091464791662,76.0,114.0
307,218.1540095645833,218.78963588124995,77.0,108.0
308,219.0985935645833,219.41935854791663,69.0,108.0
309,219.5708855645833,219.90542573124995,72.0,108.0
310,220.0431775645833,220.20454399791663,74.0,100.0
311,220.2793235645833,220.64338198124997,72.0,117.0
312,220.9877615645833,221.14519223124995,69.0,105.0
313,221.2239075645833,221.33214114791662,67.0,108.0
314,221.4600535645833,221.81624044791664,65.0,108.0
315,221.9323455645833,222.05435433124995,65.0,108.0
316,222.1684915645833,222.76279233124995,65.0,111.0
317,223.11307556458328,223.25869893124997,65.0,105.0
318,223.3492215645833,223.68376173124997,72.0,108.0
319,223.82151356458328,223.9395865645833,74.0,100.0
320,224.0576595645833,225.01405086458328,72.0,108.0
321,225.2383895645833,225.41943483124996,69.0,108.0
322,225.4745355645833,225.6162231645833,67.0,97.0
323,225.7106815645833,226.53325679791664,65.0,111.0
324,226.6552655645833,226.83434294791664,67.0,102.0
325,226.89141156458328,227.05868164791661,65.0,105.0
326,227.1275575645833,227.43257948124997,67.0,105.0
327,227.59984956458328,227.6943079645833,69.0,108.0
328,227.8359955645833,228.30828756458328,60.0,105.0
329,228.30828756458328,229.13873433124996,67.0,108.0
330,229.4890175645833,230.25649206458328,67.0,111.0
331,230.43360156458328,230.7760132645833,65.0,117.0
332,230.9058935645833,233.59008643124997,65.0,105.0
