,start,end,pitch,velocity
0,2.2499977500000004,2.6646798750000005,58.0,96.0
1,2.2499977500000004,2.6746005000000004,62.0,92.0
2,2.2499977500000004,2.736108375,65.0,92.0
3,2.7261877500000002,3.380949,53.0,34.0
4,2.2499977500000004,3.4702346250000002,46.0,96.0
5,3.20237775,3.6765836250000006,62.0,102.0
6,3.20237775,3.8571390000000005,70.0,102.0
7,3.6785677500000005,3.9642817500000005,53.0,67.0
8,3.9166627500000004,4.043646750000001,62.0,94.0
9,4.154757750000001,4.644836625000001,69.0,100.0
10,4.86904275,4.9781696250000005,60.0,94.0
11,4.630947750000001,5.164677375,52.0,62.0
12,5.107137750000001,5.2718201250000005,60.0,108.0
13,5.107137750000001,5.438486625,69.0,100.0
14,5.345232750000001,5.575391250000001,52.0,71.0
15,4.154757750000001,5.587296,45.0,100.0
16,5.5833277500000005,5.839279875000001,67.0,105.0
17,5.821422750000001,5.966263875000001,65.0,80.0
18,6.05951775,6.156739875,43.0,94.0
19,6.05951775,6.4821363750000005,67.0,97.0
20,6.53570775,7.135627,50.0,80.0
21,7.00672075,7.3621895,58.0,46.0
22,7.47547075,7.588752,50.0,76.0
23,7.00672075,7.59265825,70.0,93.0
24,7.00672075,7.6278145,62.0,94.0
25,7.94422075,8.026252,41.0,100.0
26,8.17859575,8.229377,53.0,31.0
27,7.94422075,8.692267625,69.0,100.0
28,8.64734575,8.953986375,60.0,114.0
29,8.88172075,9.1590645,65.0,97.0
30,8.41297075,9.24109575,53.0,22.0
31,9.11609575,9.2528145,60.0,89.0
32,8.88172075,9.260627,69.0,94.0
33,9.35047075,9.821173875,67.0,105.0
34,9.81922075,10.633673875,65.0,78.0
35,10.28797075,10.840705125,53.0,82.0
36,9.81922075,10.979377,46.0,85.0
37,10.75672075,11.1278145,58.0,109.0
38,10.99109575,11.161017625,53.0,71.0
39,10.75672075,11.21765825,62.0,105.0
40,10.75672075,11.2528145,65.0,89.0
41,11.22547075,11.344611375,46.0,109.0
42,11.69422075,12.15515825,57.0,100.0
43,11.69422075,12.27234575,69.0,94.0
44,12.16297075,12.68640825,52.0,87.0
45,12.63172075,12.786017625,57.0,108.0
46,11.69422075,12.950080125,45.0,100.0
47,12.86609575,12.993048875,52.0,89.0
48,12.63172075,13.1434395,69.0,102.0
49,13.10047075,13.321173875,67.0,97.0
50,13.33484575,13.504767625,65.0,87.0
51,13.56922075,13.65515825,43.0,97.0
52,13.56922075,14.121955125,67.0,97.0
53,14.03797075,14.5965645,50.0,80.0
54,14.50672075,14.8465645,58.0,90.0
55,14.50672075,15.09265825,62.0,102.0
56,14.97547075,15.14734575,50.0,82.0
57,14.50672075,15.301642625,67.0,111.0
58,15.44422075,15.700080125,55.0,78.0
59,15.44422075,15.71765825,58.0,72.0
60,15.44422075,15.77234575,62.0,89.0
61,15.91297075,16.44422075,50.0,67.0
62,16.38172075,16.618048875,62.0,102.0
63,16.38172075,16.63172075,70.0,105.0
64,15.44422075,16.703986375,43.0,102.0
65,16.61609575,16.758673875,50.0,84.0
66,16.85047075,17.067267625,67.0,97.0
67,16.85047075,17.086798875,62.0,84.0
68,17.31922075,17.407111375,62.0,57.0
69,17.31922075,18.040512749999998,67.0,105.0
70,17.78797075,18.31829025,55.0,80.0
71,18.26273475,18.488925,60.0,100.0
72,18.26273475,18.5127345,64.0,102.0
73,17.31922075,18.82622625,48.0,108.0
74,18.50082975,18.895670625,55.0,82.0
75,18.73892475,19.0206705,60.0,92.0
76,18.97701975,19.1159085,64.0,82.0
77,19.215114749999998,20.85797025,67.0,84.0
78,19.215114749999998,20.86590675,64.0,87.0
79,19.215114749999998,20.869875,60.0,80.0
80,19.215114749999998,20.935351125,48.0,97.0
81,21.11987475,21.8275746,57.0,94.0
82,21.11987475,21.993033075,53.0,78.0
83,22.06985308125,22.16440078125,57.0,102.0
84,22.06985308125,22.18803770625,60.0,92.0
85,21.59606475,22.19197719375,48.0,42.0
86,23.01533008125,23.096089575,57.0,1.0
87,22.54259158125,23.29306395,48.0,64.0
88,23.01533008125,23.51170550625,65.0,89.0
89,23.01533008125,23.726407575,60.0,84.0
90,23.488068581249998,23.83474348125,57.0,42.0
91,23.488068581249998,24.00020195625,48.0,21.0
92,23.96080708125,24.181418381249998,57.0,100.0
93,23.96080708125,24.1873276125,60.0,108.0
94,23.96080708125,24.20505530625,65.0,94.0
95,21.11987475,24.2818753125,41.0,87.0
96,24.19717633125,24.31536095625,48.0,76.0
97,24.433545581249998,24.6324897,57.0,89.0
98,24.90628408125,25.1997759,57.0,87.0
99,24.90628408125,25.57599695625,62.0,80.0
100,25.37902258125,25.70600004375,57.0,64.0
101,25.85176108125,26.0310077625,57.0,108.0
102,25.85176108125,26.28510470625,65.0,94.0
103,26.32449958125,26.5549596,57.0,82.0
104,24.90628408125,26.98042425,50.0,67.0
105,26.79723808125,27.1261852875,57.0,94.0
106,26.79723808125,27.179368368749998,65.0,84.0
107,27.506345831249998,27.64028840625,57.0,92.0
108,27.26997658125,27.892415606249997,50.0,52.0
109,27.742715081249997,28.02044895,57.0,108.0
110,27.742715081249997,28.0480253625,65.0,102.0
111,27.97908433125,28.136663831249997,50.0,82.0
112,28.21545358125,28.6941013125,60.0,92.0
113,28.68819208125,29.3007823875,62.0,80.0
114,29.16093058125,29.8010973,53.0,41.0
115,29.633669081249998,30.06307321875,58.0,93.0
116,29.633669081249998,30.124135275,62.0,92.0
117,29.633669081249998,30.13004450625,65.0,84.0
118,28.68819208125,30.44520350625,46.0,93.0
119,30.34277683125,30.516114281249997,58.0,65.0
120,30.57914608125,31.144462537499997,65.0,80.0
121,30.57914608125,31.23507075,58.0,48.0
122,30.57914608125,31.23704049375,62.0,80.0
123,30.57914608125,31.7038697625,46.0,79.0
124,31.52462308125,31.731446175,58.0,109.0
125,30.106407581249996,31.73735540625,53.0,50.0
126,31.52462308125,31.810235925,62.0,100.0
127,31.52462308125,31.81614515625,65.0,97.0
128,31.997361581249997,32.11554620625,46.0,54.0
129,32.470100081249996,33.0354165375,57.0,89.0
130,32.470100081249996,33.11223654375,65.0,82.0
131,32.94283858125,33.56527760625,48.0,39.0
132,32.470100081249996,33.732705825,41.0,92.0
133,33.41557708125,33.93558943125,57.0,114.0
134,33.41557708125,33.98286328125,65.0,105.0
135,34.36105408125,34.9500074625,65.0,89.0
136,34.36105408125,34.9736443875,57.0,89.0
137,34.833792581249995,35.2848639,48.0,51.0
138,35.30653108125,35.55471879375,57.0,114.0
139,33.88831558125,35.601992643749995,41.0,66.0
140,35.542900331249996,35.6985100875,48.0,64.0
141,35.30653108125,35.86790805,65.0,102.0
142,35.77926958125,36.080640375,41.0,71.0
143,36.25200808125,36.968994806249995,62.0,97.0
144,36.25200808125,37.10687686875,58.0,65.0
145,36.72474658125,37.3373368875,53.0,46.0
146,37.19748508125,37.47521895,65.0,102.0
147,37.19748508125,37.49688613125,62.0,94.0
148,37.19748508125,37.528402031249996,58.0,74.0
149,37.906592831249995,38.062202587499996,58.0,45.0
150,36.25200808125,38.07993028125,46.0,70.0
151,37.67022358125,38.310390299999995,53.0,51.0
152,38.14296208125,38.584184681249994,62.0,92.0
153,38.14296208125,38.5940334,70.0,70.0
154,38.14296208125,38.9722242,58.0,99.0
155,38.615700581249996,39.200714475,53.0,37.0
156,38.14296208125,39.3307175625,46.0,55.0
157,39.08843908125,39.35632423125,62.0,78.0
158,39.08843908125,39.39571910625,58.0,68.0
159,39.08843908125,39.4764786,65.0,66.0
160,39.56117758125,39.941338125,46.0,72.0
161,40.03391608125,40.319528925,57.0,92.0
162,40.03391608125,40.56377715,60.0,94.0
163,40.03391608125,40.6386274125,41.0,94.0
164,40.506654581250004,40.705598699999996,57.0,100.0
165,40.03391608125,40.874996662499996,65.0,87.0
166,40.979393081249995,41.2295505375,55.0,94.0
167,40.979393081249995,41.41470645,48.0,100.0
168,40.979393081249995,41.4659197875,60.0,97.0
169,40.979393081249995,41.4659197875,64.0,89.0
170,41.45213158125,41.513193637499995,55.0,40.0
171,41.92487008125,42.1986644625,57.0,89.0
172,41.92487008125,42.45473115,62.0,87.0
173,41.92487008125,42.492156281250004,65.0,89.0
174,42.39760858125,42.53155115625,57.0,53.0
175,42.87034708125,43.02792658125,57.0,105.0
176,42.87034708125,43.14217171875,65.0,97.0
177,41.92487008125,43.171717875,50.0,84.0
178,43.10671633125,43.345055325000004,64.0,100.0
179,43.343085581249994,43.46323995,62.0,92.0
180,43.81582408125,44.25113745,58.0,70.0
181,43.81582408125,44.29644155625,55.0,76.0
182,43.81582408125,44.306290274999995,62.0,89.0
183,44.76130108125,44.88342519375,55.0,102.0
184,44.76130108125,44.889334425,62.0,92.0
185,44.28856258125,45.029186231249994,50.0,42.0
186,45.70677808125,46.0357252875,58.0,99.0
187,45.70677808125,46.0436042625,55.0,94.0
188,46.17951658125,46.7054381625,50.0,40.0
189,46.65225508125,46.83741099375,55.0,108.0
190,46.65225508125,46.86695715,62.0,100.0
191,46.88862433125,47.13681204375,50.0,87.0
192,43.81582408125,47.164388456249995,43.0,97.0
193,47.124993581249996,47.4145459125,55.0,105.0
194,47.59773208125,47.88137518125,55.0,94.0
195,47.59773208125,48.192594693749996,60.0,102.0
196,48.07047058125,48.401387531249995,55.0,69.0
197,48.54320908125,48.71260704375,55.0,97.0
198,48.54320908125,49.02382655625,64.0,102.0
199,48.54320908125,49.090797843749996,60.0,105.0
200,49.01594758125,49.2424681125,55.0,50.0
201,47.59773208125,49.28777221875,48.0,94.0
202,49.488686081249995,49.644295837499996,55.0,92.0
203,49.488686081249995,49.98506150625,64.0,92.0
204,49.488686081249995,50.0146076625,60.0,94.0
205,49.96142458125,50.17612665,55.0,69.0
206,50.43416308125,50.57992411875,55.0,105.0
207,50.43416308125,50.69022976875,64.0,108.0
208,50.67053233125,50.93053850625,62.0,89.0
209,50.90690158125,51.27327391875,60.0,100.0
210,49.488686081249995,51.28903186875,48.0,100.0
211,51.37964008125,52.0828386,57.0,94.0
212,51.37964008125,52.248297074999996,53.0,78.0
213,52.32511708125,52.41966478125,57.0,102.0
214,52.32511708125,52.44330170625,60.0,92.0
215,51.852378581249994,52.44724119375,48.0,42.0
216,53.270594081249996,53.351353575,57.0,1.0
217,52.79785558125,53.54832795,48.0,64.0
218,53.270594081249996,53.76696950624999,65.0,89.0
219,53.270594081249996,53.98167157499999,60.0,84.0
220,53.74333258125,54.09000748125,57.0,42.0
221,53.74333258125,54.25546595624999,48.0,21.0
222,54.21607108124999,54.436682381249994,57.0,100.0
223,54.21607108124999,54.442591612499996,60.0,108.0
224,54.21607108124999,54.46031930625,65.0,94.0
225,51.37964008125,54.5371393125,41.0,87.0
226,54.45244033125,54.57062495625,48.0,76.0
227,54.68880958125,54.887753700000005,57.0,89.0
228,55.161548081250004,55.4550399,57.0,87.0
229,55.161548081250004,55.831260956250006,62.0,80.0
230,55.634286581249995,55.96126404374999,57.0,64.0
231,56.10702508125,56.28627176249999,57.0,108.0
232,56.10702508125,56.54036870624999,65.0,94.0
233,56.57976358124999,56.8102236,57.0,82.0
234,55.161548081250004,57.235688249999995,50.0,67.0
235,57.05250208125,57.381449287500004,57.0,94.0
236,57.05250208125,57.43463236875,65.0,84.0
237,57.76160983125,57.895552406250005,57.0,92.0
238,57.52524058125,58.147679606249994,50.0,52.0
239,57.997979081249994,58.27571295,57.0,108.0
240,57.997979081249994,58.303289362499996,65.0,102.0
241,58.234348331250004,58.39192783125,50.0,82.0
242,58.47071758125,58.94936531249999,60.0,92.0
243,58.943456081250005,59.556046387500004,62.0,80.0
244,59.41619458125,60.05636129999999,53.0,41.0
245,59.88893308125,60.31833721875,58.0,93.0
246,59.88893308125,60.379399275,62.0,92.0
247,59.88893308125,60.38530850625,65.0,84.0
248,58.943456081250005,60.70046750624999,46.0,93.0
249,60.59804083125,60.771378281249994,58.0,65.0
250,60.83441008125,61.3997265375,65.0,80.0
251,60.83441008125,61.49033475,58.0,48.0
252,60.83441008125,61.49230449375,62.0,80.0
253,60.83441008125,61.9591337625,46.0,79.0
254,61.779887081249996,61.986710175,58.0,109.0
255,60.36167158124999,61.99261940625,53.0,50.0
256,61.779887081249996,62.065499925,62.0,100.0
257,61.779887081249996,62.07140915625,65.0,97.0
258,62.25262558125,62.37081020625,46.0,54.0
259,62.72536408124999,63.290680537499995,57.0,89.0
260,62.72536408124999,63.36750054375,65.0,82.0
261,63.19810258125,63.82054160625,48.0,39.0
262,62.72536408124999,63.98796982499999,41.0,92.0
263,63.67084108125,64.19085343125,57.0,114.0
264,63.67084108125,64.23812728125,65.0,105.0
265,64.61631808125,65.2052714625,65.0,89.0
266,64.61631808125,65.2289083875,57.0,89.0
267,65.08905658124999,65.5401279,48.0,51.0
268,65.56179508125,65.80998279375,57.0,114.0
269,64.14357958125,65.85725664374999,41.0,66.0
270,65.79816433124999,65.9537740875,48.0,64.0
271,65.56179508125,66.12317205,65.0,102.0
272,66.03453358125,66.335904375,41.0,71.0
273,66.50727208125,67.22425880624999,62.0,97.0
274,66.50727208125,67.36214086875,58.0,65.0
275,66.98001058125,67.5926008875,53.0,46.0
276,67.45274908125,67.73048295,65.0,102.0
277,67.45274908125,67.75215013125,62.0,94.0
278,67.45274908125,67.78366603125,58.0,74.0
279,68.16185683124999,68.3174665875,58.0,45.0
280,66.50727208125,68.33519428125,46.0,70.0
281,67.92548758125,68.56565429999999,53.0,51.0
282,68.39822608125,68.83944868125,62.0,92.0
283,68.39822608125,68.8492974,70.0,70.0
284,68.39822608125,69.2274882,58.0,99.0
285,68.87096458124999,69.455978475,53.0,37.0
286,68.39822608125,69.5859815625,46.0,55.0
287,69.34370308125,69.61158823125,62.0,78.0
288,69.34370308125,69.65098310625,58.0,68.0
289,69.34370308125,69.7317426,65.0,66.0
290,69.81644158125,70.196602125,46.0,72.0
291,70.28918008125,70.574792925,57.0,92.0
292,70.28918008125,70.81904115,60.0,94.0
293,70.28918008125,70.8938914125,41.0,94.0
294,70.76191858125,70.96086269999999,57.0,100.0
295,70.28918008125,71.13026066249999,65.0,87.0
296,71.23465708124999,71.4848145375,55.0,94.0
297,71.23465708124999,71.66997045,48.0,100.0
298,71.23465708124999,71.7211837875,60.0,97.0
299,71.23465708124999,71.7211837875,64.0,89.0
300,71.70739558125,71.76845763749999,55.0,40.0
301,72.18013408125,72.4539284625,57.0,89.0
302,72.18013408125,72.70999515,62.0,87.0
303,72.18013408125,72.74742028125,65.0,89.0
304,72.65287258125,72.78681515625,57.0,53.0
305,73.12561108125,73.28319058125,57.0,105.0
306,73.12561108125,73.39743571875,65.0,97.0
307,72.18013408125,73.426981875,50.0,84.0
308,73.36198033125,73.600319325,64.0,100.0
309,73.59834958125,73.71850395,62.0,92.0
310,74.07108808125,74.68958761875,58.0,55.0
311,74.07108808125,74.782165575,62.0,84.0
312,74.07108808125,74.81171173125,55.0,76.0
313,74.54382658125,75.1170220125,50.0,94.0
314,75.01656508125,75.45778768125,55.0,100.0
315,75.01656508125,75.51294050625,58.0,112.0
316,74.07108808125,75.7946138625,43.0,89.0
317,75.48930358125,75.80052309375,50.0,87.0
318,75.01656508125,75.85961540625,65.0,102.0
319,75.72567283125,75.8655246375,55.0,78.0
320,75.96204208125,76.43675032499999,55.0,89.0
321,75.96204208125,76.47811494375,60.0,97.0
322,75.96204208125,77.0394919125,48.0,108.0
323,76.90751908125,77.1104026875,55.0,102.0
324,76.90751908125,77.12813038125,64.0,100.0
325,76.43478058125,77.1891924375,52.0,44.0
326,77.38025758124999,77.54965554374999,55.0,92.0
327,77.38025758124999,77.62450580625,60.0,100.0
328,77.85299608125,78.66650025,60.0,92.0
329,77.85299608125,78.66846999375,57.0,69.0
330,77.85299608125,78.67240948125,67.0,55.0
331,78.32573458125,78.94817360625,48.0,42.0
332,78.79847308125,79.22787721875,67.0,100.0
333,78.79847308125,79.23969568125,57.0,105.0
334,78.79847308125,79.28303004375,60.0,114.0
335,79.27121158125,79.51939929375,48.0,58.0
336,77.85299608125,79.54894545,41.0,102.0
337,79.50758083125,79.6474326375,57.0,76.0
338,79.74395008124999,80.22456755625,57.0,92.0
339,79.74395008124999,80.27578089375,60.0,89.0
340,79.74395008124999,80.27972038125,65.0,100.0
341,80.45305783124999,80.5692727125,57.0,73.0
342,80.21668858125,80.70124554375,48.0,48.0
343,80.68942708125,80.96125171874999,57.0,105.0
344,80.68942708125,80.9947373625,60.0,111.0
345,81.16216558125,81.20943943125,60.0,46.0
346,80.68942708125,81.23307635625,65.0,100.0
347,81.16216558125,81.31186610625,57.0,108.0
348,79.74395008124999,81.52853791875,41.0,94.0
349,80.92579633125,81.53247740625,48.0,111.0
350,81.39853483125,81.6014184375,57.0,100.0
351,81.39853483125,81.6171763875,60.0,102.0
352,81.39853483125,81.6408133125,65.0,102.0
353,81.63490408125,82.00915539374999,58.0,72.0
354,81.63490408125,82.125370275,62.0,100.0
355,81.63490408125,82.125370275,70.0,63.0
356,81.63490408125,82.37355798749999,46.0,102.0
357,82.10764258125,82.3814369625,53.0,38.0
358,82.58038108125,82.8541754625,46.0,99.0
359,82.58038108125,83.11024215,62.0,97.0
360,82.58038108125,83.1220606125,58.0,93.0
361,82.58038108125,83.20478985,53.0,97.0
362,83.05311958125,83.401764225,46.0,70.0
363,83.52585808124999,84.07738633125,60.0,97.0
364,83.52585808124999,84.08723505,57.0,80.0
365,83.52585808124999,84.30981609375,45.0,105.0
366,83.99859658125,84.30981609375,52.0,78.0
367,84.47133508125,84.76285715624999,57.0,89.0
368,84.47133508125,84.96377101875,60.0,102.0
369,84.47133508125,85.09377410625,45.0,97.0
370,84.94407358125,85.15286641875,57.0,108.0
371,84.47133508125,85.28680899375,64.0,94.0
372,85.41681208125,85.92106648125,58.0,82.0
373,85.41681208125,85.9584916125,55.0,82.0
374,85.41681208125,85.97621930624999,62.0,92.0
375,85.41681208125,86.59865833125,43.0,102.0
376,85.88955058124999,86.62229525625,50.0,55.0
377,86.36228908125,86.7857839875,58.0,112.0
378,86.36228908125,86.83108809375,55.0,105.0
379,86.36228908125,86.836997325,62.0,105.0
380,86.83502758124999,87.16594453124999,43.0,100.0
381,87.30776608125,87.8218692,57.0,92.0
382,87.78050458125,88.0306620375,60.0,92.0
383,87.30776608125,88.0858148625,53.0,84.0
384,88.25324308124999,88.5034005375,60.0,108.0
385,88.25324308124999,88.52506771875,57.0,117.0
386,88.25324308124999,88.53097695,53.0,100.0
387,87.30776608125,88.58612977499999,41.0,97.0
388,88.25324308124999,88.66294978124999,48.0,87.0
389,88.25324308124999,88.77719491875,65.0,97.0
390,88.72598158125,89.14356725625,64.0,102.0
391,89.19872008124999,89.44296830625,57.0,97.0
392,89.19872008124999,89.86449346875,62.0,92.0
393,89.67145858125,89.94328321875,57.0,87.0
394,90.14419708125,90.40420325625,57.0,102.0
395,90.14419708125,90.81784944374999,65.0,102.0
396,90.14419708125,90.93603406874999,62.0,105.0
397,90.61693558124999,90.9773986875,57.0,84.0
398,89.19872008124999,91.0167935625,50.0,105.0
399,91.08967408125,91.564382325,60.0,89.0
400,91.08967408125,91.59392848124999,57.0,94.0
401,92.03515108124999,92.28333879374999,57.0,111.0
402,91.08967408125,92.31091520625,45.0,105.0
403,91.56241258125,92.352279825,52.0,76.0
404,92.03515108124999,92.35818905625,60.0,114.0
405,92.03515108124999,92.53743573749999,64.0,108.0
406,92.50788958125,92.63789266875,57.0,108.0
407,92.50788958125,92.78562344999999,45.0,102.0
408,92.98062808124999,93.29972656874999,62.0,105.0
409,92.98062808124999,93.30366605625,58.0,87.0
410,93.45336658125,93.7271609625,62.0,82.0
411,93.45336658125,93.73307019375,65.0,47.0
412,93.92610508125,94.23141536249999,58.0,96.0
413,92.98062808124999,94.25702203124999,46.0,102.0
414,93.92610508125,94.26096151875,62.0,108.0
415,93.92610508125,94.306265625,65.0,108.0
416,93.92610508125,94.37126716875,53.0,55.0
417,94.39884358124999,94.4756635875,62.0,97.0
418,94.39884358124999,94.50520974375,46.0,99.0
419,94.39884358124999,94.52293743749999,58.0,90.0
420,94.39884358124999,94.6174851375,65.0,80.0
421,94.87158208125,95.16310415625,64.0,97.0
422,94.87158208125,95.1768923625,55.0,92.0
423,94.87158208125,95.1768923625,60.0,94.0
424,95.34432058124999,95.48023289999999,60.0,84.0
425,95.34432058124999,95.48023289999999,64.0,80.0
426,95.34432058124999,95.49993033749999,55.0,69.0
427,95.81705908125,95.93918319375,55.0,117.0
428,95.81705908125,96.071156025,64.0,117.0
429,96.05342833124999,96.181461675,60.0,92.0
430,94.87158208125,96.50646939375,48.0,105.0
431,96.28979758125,96.54980375625,55.0,92.0
432,96.52616683125,96.63056325,60.0,82.0
433,96.76253608124999,97.04026995,60.0,108.0
434,96.76253608124999,97.04814892499999,48.0,117.0
435,96.76253608124999,97.05405815625,55.0,102.0
436,97.23527458125,97.363307925,60.0,80.0
437,97.23527458125,97.36921715624999,55.0,64.0
438,97.23527458125,97.36921715624999,64.0,80.0
439,97.23527458125,97.37512638749999,48.0,73.0
440,97.70801308124999,97.851804375,55.0,97.0
441,97.70801308124999,97.98574694999999,60.0,102.0
442,97.70801308124999,98.15317516875,64.0,89.0
443,97.94438233125,98.36393774999999,55.0,97.0
444,98.18075158125,98.45257621875,60.0,78.0
445,97.70801308124999,98.52151724999999,48.0,108.0
446,98.41712083124999,98.54712391874999,64.0,82.0
447,98.65349008125,98.7697049625,55.0,100.0
448,98.65349008125,98.8169788125,60.0,105.0
449,98.65349008125,98.99031626249999,48.0,111.0
450,98.88985933125,99.22471576874999,55.0,102.0
451,98.65349008125,99.26017115625,64.0,102.0
452,98.88985933125,99.28971731249999,60.0,52.0
453,99.36259783125,99.49851015,55.0,94.0
454,99.59896708125,99.93382351874999,55.0,114.0
455,99.59896708125,100.41247125,60.0,117.0
456,99.59896708125,100.44595689375,64.0,111.0
457,100.07170558125,100.45974509999999,55.0,108.0
458,99.12622858124999,100.5345953625,48.0,97.0
459,100.54444408124999,100.640961525,60.0,84.0
460,100.54444408124999,100.6449010125,41.0,105.0
461,100.54444408124999,100.6449010125,57.0,84.0
462,100.54444408124999,100.6803564,65.0,97.0
463,101.01718258125,101.78932213124999,57.0,102.0
464,101.01718258125,101.78932213124999,60.0,105.0
465,101.01718258125,101.88780931875,65.0,100.0
466,101.01718258125,102.00599394375,41.0,108.0
467,101.96265958125,102.18327088125,57.0,82.0
468,101.96265958125,102.23054473124999,64.0,89.0
469,102.43539808125,102.72101092499999,57.0,84.0
470,102.43539808125,103.099201725,62.0,89.0
471,102.90813658124999,103.1385966,57.0,82.0
472,103.38087508125,103.556182275,57.0,108.0
473,102.43539808125,103.745277675,50.0,97.0
474,103.38087508125,103.82012793749999,62.0,111.0
475,103.38087508125,104.00331410624999,65.0,100.0
476,103.85361358124999,104.02301154374999,57.0,66.0
477,104.32635208125,104.9625793125,58.0,96.0
478,104.32635208125,105.08667316875,62.0,89.0
479,104.32635208125,105.53774448749999,46.0,99.0
480,104.79909058125,105.68547526875,53.0,25.0
481,105.27182908124999,105.74062809374999,58.0,99.0
482,105.27182908124999,105.96320913749999,65.0,87.0
483,105.74456758125,106.030180425,46.0,54.0
484,105.27182908124999,106.08730299375,62.0,102.0
485,106.21730608125,106.46155430625,55.0,84.0
486,106.21730608125,106.7905015125,64.0,94.0
487,106.21730608125,106.83383587499999,60.0,94.0
488,106.69004458124999,106.928383575,55.0,55.0
489,106.21730608125,107.2789979625,48.0,66.0
490,107.16278308125,107.32430206875,55.0,111.0
491,107.16278308125,107.38339438125,60.0,114.0
492,107.16278308125,107.50551849374999,64.0,108.0
493,107.39915233125,107.5468831125,48.0,89.0
494,107.63552158124999,107.78522210624999,64.0,20.0
495,107.87189083125,107.91522519374999,61.0,11.0
496,107.87189083125,107.98219648125,60.0,62.0
497,107.63552158124999,107.984166225,55.0,108.0
498,108.10826008125,108.86464168124999,58.0,77.0
499,108.10826008125,108.88630886249999,62.0,97.0
500,108.10826008125,109.134496575,46.0,85.0
501,108.58099858125,109.21131658124999,53.0,58.0
502,109.05373708124999,109.36101710624999,62.0,108.0
503,109.05373708124999,109.40632121249999,70.0,74.0
504,109.05373708124999,109.42404890625,58.0,105.0
505,109.52647558125,109.65450892499999,46.0,112.0
506,109.99921408124999,110.536954125,60.0,102.0
507,109.99921408124999,110.67483618749999,57.0,97.0
508,110.47195258125,111.04317826875,52.0,66.0
509,110.94469108125,111.18106033125,60.0,114.0
510,110.94469108125,111.198788025,57.0,111.0
511,110.94469108125,111.20469725625,64.0,105.0
512,109.99921408124999,111.23424341249999,45.0,100.0
513,111.18106033125,111.32091213749999,52.0,97.0
514,111.41742958124999,111.55334189999999,57.0,102.0
515,111.89016808125,112.41018043125,58.0,96.0
516,111.89016808125,112.48503069374999,55.0,100.0
517,112.36290658124999,112.94201124374999,50.0,80.0
518,112.83564508125,113.06019586875,55.0,100.0
519,112.83564508125,113.07595381875,58.0,112.0
520,112.83564508125,113.10353023124999,62.0,100.0
521,113.30838358125,113.3694456375,62.0,64.0
522,113.07201433124999,113.40293128124999,50.0,89.0
523,111.89016808125,113.54081334374999,43.0,102.0
524,113.30838358125,113.6609677125,55.0,100.0
525,113.54475283125,113.67672566249999,58.0,105.0
526,113.78112208124999,114.043098,55.0,94.0
527,113.78112208124999,114.31492263749999,60.0,102.0
528,114.25386058125,114.34643853749999,55.0,53.0
529,114.49022983124999,114.59462624999999,55.0,94.0
530,114.49022983124999,114.618263175,64.0,100.0
531,114.72659908125,114.85463242499999,55.0,111.0
532,114.72659908125,115.04175808125,64.0,102.0
533,115.19933758124999,115.42929123749998,60.0,114.0
534,113.78112208124999,115.44106147499998,48.0,105.0
535,115.19933758124999,115.47441048124999,55.0,105.0
536,115.67058110624998,115.76670471249999,60.0,84.0
537,115.67058110624998,115.77062812499999,41.0,105.0
538,115.67058110624998,115.77062812499999,57.0,84.0
539,115.67058110624998,115.8059388375,65.0,97.0
540,116.14139060624998,116.91037945624998,57.0,102.0
541,116.14139060624998,116.91037945624998,60.0,105.0
542,116.14139060624998,117.00846476874999,65.0,100.0
543,116.14139060624998,117.12616714374998,41.0,108.0
544,117.08300960624999,117.30272070624999,57.0,82.0
545,117.08300960624999,117.34980165624998,64.0,89.0
546,117.55381910624999,117.83826651249998,57.0,84.0
547,117.55381910624999,118.21491411249998,62.0,89.0
548,118.02462860624999,118.25414823749999,57.0,82.0
549,118.49543810624999,118.67002996249998,57.0,108.0
550,117.55381910624999,118.85835376249999,50.0,97.0
551,118.49543810624999,118.93289859999999,62.0,111.0
552,118.49543810624999,119.11533728124999,65.0,100.0
553,118.96624760625,119.13495434374998,57.0,66.0
554,119.43705710624998,120.07068822499998,58.0,96.0
555,119.43705710624998,120.19427571874999,62.0,89.0
556,119.43705710624998,120.64350644999999,46.0,99.0
557,119.90786660624998,120.79063441874999,53.0,25.0
558,120.37867610624998,120.84556219374998,58.0,99.0
559,120.37867610624998,121.06723499999998,65.0,87.0
560,120.84948560624998,121.1339330125,46.0,54.0
561,120.37867610624998,121.19082249374999,62.0,102.0
562,121.32029510624999,121.56354668124999,55.0,84.0
563,121.32029510624999,121.89115162499999,64.0,94.0
564,121.32029510624999,121.93430916249999,60.0,94.0
565,121.79110460624999,122.02847106249999,55.0,55.0
566,121.32029510624999,122.37765477499998,48.0,66.0
567,122.26191410624999,122.42277401874999,55.0,111.0
568,122.26191410624999,122.48162520624999,60.0,114.0
569,122.26191410624999,122.60325099374998,64.0,108.0
570,122.49731885624999,122.64444682499999,48.0,89.0
571,122.73272360624999,122.88181328124999,64.0,20.0
572,122.96812835624999,123.01128589374999,61.0,11.0
573,122.96812835624999,123.07798390624998,60.0,62.0
574,122.73272360624999,123.07994561249998,55.0,108.0
575,123.20353310624999,123.95682830624999,58.0,77.0
576,123.20353310624999,123.97840707499999,62.0,97.0
577,123.20353310624999,124.22558206249998,46.0,85.0
578,123.67434260624998,124.30208860624998,53.0,58.0
579,124.14515210624998,124.45117828124998,62.0,108.0
580,124.14515210624998,124.49629752499999,70.0,74.0
581,124.14515210624998,124.51395288124999,58.0,105.0
582,124.61596160624998,124.74347251249999,46.0,112.0
583,125.08677110624998,125.5242316,57.0,102.0
584,125.08677110624998,125.5242316,60.0,108.0
585,125.55758060624999,125.90957799999998,52.0,84.0
586,125.08677110624998,125.91548723124998,45.0,97.0
587,126.02973236874999,126.26807136249998,57.0,94.0
588,126.02973236874999,126.51034984374998,62.0,97.0
589,126.02973236874999,126.51625907499998,50.0,105.0
590,126.02973236874999,126.53201702499999,65.0,94.0
591,126.50247086874998,126.63838318749998,57.0,92.0
592,126.97520936874999,127.46764530624998,55.0,89.0
593,126.97520936874999,127.47749402499998,58.0,105.0
594,126.97520936874999,127.47749402499998,62.0,89.0
595,127.44794786874998,127.71583301874998,50.0,55.0
596,126.97520936874999,127.85174533749998,43.0,100.0
597,127.92068636874998,128.1472069,55.0,92.0
598,127.92068636874998,128.39933409999998,48.0,97.0
599,127.92068636874998,128.46827513124998,60.0,94.0
600,127.92068636874998,128.4820633375,64.0,97.0
601,128.39342486874997,128.54312539375,55.0,94.0
602,128.86616336875,129.43935879999998,65.0,92.0
603,128.86616336875,129.58118034999998,57.0,87.0
604,128.86616336875,129.59890804375,60.0,89.0
605,129.33890186874999,129.93376448125,48.0,46.0
606,129.81164036874998,130.19180091249999,57.0,108.0
607,129.81164036874998,130.43013990625,60.0,105.0
608,128.86616336875,130.43998862499998,41.0,97.0
609,130.28437886875,130.723631725,48.0,55.0
610,130.75711736875,131.00136559375,57.0,82.0
611,130.75711736875,131.43864870624998,60.0,80.0
612,130.75711736875,131.46622511874997,65.0,92.0
613,131.22985586874998,131.79714206875,57.0,80.0
614,131.70259436874997,132.17730261249997,60.0,105.0
615,131.70259436874997,132.18912107499997,65.0,100.0
616,132.17533286875,132.4018534,57.0,67.0
617,132.64807136874998,132.8864103625,57.0,114.0
618,132.64807136874998,133.2252062875,65.0,100.0
619,133.59354836875,133.91067711249997,57.0,108.0
620,133.59354836875,134.46417510624997,60.0,114.0
621,134.06628686874998,134.50750946875,57.0,111.0
622,130.75711736875,134.57251101249997,41.0,92.0
623,134.53902536874998,134.95070181249997,58.0,96.0
624,134.53902536874998,134.96055053125,62.0,92.0
625,134.53902536874998,135.0216125875,65.0,92.0
626,135.01176386875,135.66177930624997,53.0,34.0
627,134.53902536874998,135.750417775,46.0,96.0
628,135.48450236875,135.955271125,62.0,102.0
629,135.48450236875,136.13451780625,70.0,102.0
630,135.95724086874998,136.24088396874998,53.0,67.0
631,136.19361011874997,136.31967371874998,62.0,94.0
632,136.42997936874997,136.91650607499997,69.0,100.0
633,137.13908711874998,137.247423025,60.0,94.0
634,136.90271786875,137.43257893749998,52.0,62.0
635,137.37545636874998,137.53894509999998,60.0,108.0
636,137.37545636874998,137.704403575,69.0,100.0
637,137.61182561874998,137.84031589375,52.0,71.0
638,136.42997936874997,137.85213435625,45.0,100.0
639,137.84819486874997,138.10229181249997,67.0,105.0
640,138.08456411875,138.22835541249998,65.0,80.0
641,138.32093336875,138.4174508125,43.0,94.0
642,138.32093336875,138.74048878749997,67.0,97.0
643,138.79367186874998,139.39641345624997,50.0,80.0
644,139.26641036874997,139.62490373125,58.0,46.0
645,139.73914886875,139.85339400624997,50.0,76.0
646,139.26641036874997,139.85733349375,70.0,93.0
647,139.26641036874997,139.89278888124997,62.0,94.0
648,140.21188736874998,140.29461660624997,41.0,100.0
649,140.44825661874998,140.49946995624998,53.0,31.0
650,140.21188736874998,140.96629922499997,69.0,100.0
651,140.92099511874997,141.2302448875,60.0,114.0
652,141.15736436875,141.43706798124998,65.0,97.0
653,140.68462586874998,141.51979721874997,53.0,22.0
654,141.39373361875,141.53161568124997,60.0,89.0
655,141.15736436875,141.53949465624999,69.0,94.0
656,141.63010286875,142.1048111125,67.0,105.0
657,142.10284136874998,142.9242245125,65.0,78.0
658,142.57557986874997,143.13301735,53.0,82.0
659,142.10284136874998,143.27286915624998,46.0,85.0
660,143.04831836875,143.42256968124997,58.0,109.0
661,143.28468761874998,143.456055325,53.0,71.0
662,143.04831836875,143.51317789374997,62.0,105.0
663,143.04831836875,143.54863328124998,65.0,89.0
664,143.52105686874998,143.6412112375,46.0,109.0
665,143.99379536874997,144.45865489374998,57.0,100.0
666,143.99379536874997,144.57683951874998,69.0,94.0
667,144.46653386875,144.99442519374998,52.0,87.0
668,144.93927236874998,145.09488212499997,57.0,108.0
669,143.99379536874997,145.26034059999998,45.0,100.0
670,145.17564161874998,145.3036749625,52.0,89.0
671,144.93927236874998,145.45534523125,69.0,102.0
672,145.41201086874997,145.63459191249999,67.0,97.0
673,145.64838011874997,145.81974782499998,65.0,87.0
674,145.88474936875,145.97141809374997,43.0,97.0
675,145.88474936875,146.44218684999998,67.0,97.0
676,146.35748786874998,146.92083458124998,50.0,80.0
677,146.83022636874998,147.17296178124997,58.0,90.0
678,146.83022636874998,147.42114949375,62.0,102.0
679,147.30296486875,147.47630231875,50.0,82.0
680,146.83022636874998,147.63191207499997,67.0,111.0
681,147.77570336875,148.03373979999998,55.0,78.0
682,147.77570336875,148.05146749374998,58.0,72.0
683,147.77570336875,148.10662031874998,62.0,89.0
684,148.24844186874998,148.78421216874997,50.0,67.0
685,148.72118036874997,148.95951936249998,62.0,102.0
686,148.72118036874997,148.97330756875,70.0,105.0
687,147.77570336875,149.04618808749998,43.0,102.0
688,148.95754961875,149.10134091249998,50.0,84.0
689,149.19391886875,149.41256042499998,67.0,97.0
690,149.19391886875,149.4322578625,62.0,84.0
691,149.66665736874998,149.75529583749997,62.0,57.0
692,149.66665736874998,150.39152306875,67.0,105.0
693,150.13939586874997,150.66728719374998,55.0,80.0
694,150.61213436875,150.83668515624998,60.0,100.0
695,150.61213436875,150.86032208125,64.0,102.0
696,149.66665736874998,151.17154159375,48.0,108.0
697,150.84850361875,151.24048262499997,55.0,82.0
698,151.08487286874998,151.36457648124997,60.0,92.0
699,151.32124211874998,151.45912418125,64.0,82.0
700,151.55761136874997,153.18855919375,67.0,84.0
701,151.55761136874997,153.19643816874998,64.0,87.0
702,151.55761136874997,153.20037765625,60.0,80.0
703,151.55761136874997,153.26537919999998,48.0,97.0
704,153.44856536875,154.15176388749998,57.0,94.0
705,153.44856536875,154.3172223625,53.0,78.0
706,154.39404236874998,154.48859006874997,57.0,102.0
707,154.39404236874998,154.51222699374998,60.0,92.0
708,153.92130386875,154.51616648124997,48.0,42.0
709,155.33951936875,155.42027886249997,57.0,1.0
710,154.86678086874997,155.6172532375,48.0,64.0
711,155.33951936875,155.83589479375,65.0,89.0
712,155.33951936875,156.0505968625,60.0,84.0
713,155.81225786874998,156.15893276875,57.0,42.0
714,155.81225786874998,156.32439124374997,48.0,21.0
715,156.28499636874997,156.50560766874997,57.0,100.0
716,156.28499636874997,156.51151689999998,60.0,108.0
717,156.28499636874997,156.52924459374998,65.0,94.0
718,153.44856536875,156.60606459999997,41.0,87.0
719,156.52136561875,156.63955024375,48.0,76.0
720,156.75773486875,156.95667898749997,57.0,89.0
721,157.23047336874998,157.52396518749998,57.0,87.0
722,157.23047336874998,157.90018624375,62.0,80.0
723,157.70321186874997,158.03018933124997,57.0,64.0
724,158.17595036874997,158.35519705,57.0,108.0
725,158.17595036874997,158.60929399375,65.0,94.0
726,158.64868886874999,158.87914888749998,57.0,82.0
727,157.23047336874998,159.3046135375,50.0,67.0
728,159.12142736874998,159.45037457499998,57.0,94.0
729,159.12142736874998,159.50355765625,65.0,84.0
730,159.83053511875,159.96447769374998,57.0,92.0
731,159.59416586875,160.21660489374997,50.0,52.0
732,160.06690436875,160.3446382375,57.0,108.0
733,160.06690436875,160.37221465,65.0,102.0
734,160.30327361874998,160.46085311874998,50.0,82.0
735,160.53964286874998,161.01829059999997,60.0,92.0
736,161.01238136874997,161.62497167499998,62.0,80.0
737,161.48511986875,162.1252865875,53.0,41.0
738,161.95785836874998,162.38726250624998,58.0,93.0
739,161.95785836874998,162.44832456249998,62.0,92.0
740,161.95785836874998,162.45423379374998,65.0,84.0
741,161.01238136874997,162.76939279374997,46.0,93.0
742,162.66696611875,162.84030356875,58.0,65.0
743,162.90333536875,163.468651825,65.0,80.0
744,162.90333536875,163.5592600375,58.0,48.0
745,162.90333536875,163.56122978124998,62.0,80.0
746,162.90333536875,164.02805904999997,46.0,79.0
747,163.84881236874998,164.0556354625,58.0,109.0
748,162.43059686874997,164.06154469374997,53.0,50.0
749,163.84881236874998,164.1344252125,62.0,100.0
750,163.84881236874998,164.14033444375,65.0,97.0
751,164.32155086874997,164.43973549375,46.0,54.0
752,164.79428936875,165.359605825,57.0,89.0
753,164.79428936875,165.43642583124998,65.0,82.0
754,165.26702786874998,165.88946689374998,48.0,39.0
755,164.79428936875,166.05689511249997,41.0,92.0
756,165.73976636875,166.25977871875,57.0,114.0
757,165.73976636875,166.30705256874998,65.0,105.0
758,166.68524336874998,167.27419675,65.0,89.0
759,166.68524336874998,167.297833675,57.0,89.0
760,167.15798186874997,167.60905318749997,48.0,51.0
761,167.63072036875,167.87890808125,57.0,114.0
762,166.21250486875,167.92618193124997,41.0,66.0
763,167.86708961875,168.02269937499997,48.0,64.0
764,167.63072036875,168.19209733749997,65.0,102.0
765,168.10345886874998,168.4048296625,41.0,71.0
766,168.57619736874997,169.29318409374997,62.0,97.0
767,168.57619736874997,169.43106615624998,58.0,65.0
768,169.04893586875,169.66152617499998,53.0,46.0
769,169.52167436874998,169.7994082375,65.0,102.0
770,169.52167436874998,169.82107541874998,62.0,94.0
771,169.52167436874998,169.85259131874997,58.0,74.0
772,170.23078211874997,170.386391875,58.0,45.0
773,168.57619736874997,170.40411956875,46.0,70.0
774,169.99441286874998,170.63457958749999,53.0,51.0
775,170.46715136874997,170.90837396874997,62.0,92.0
776,170.46715136874997,170.9182226875,70.0,70.0
777,170.46715136874997,171.2964134875,58.0,99.0
778,170.93988986875,171.52490376249997,53.0,37.0
779,170.46715136874997,171.65490684999997,46.0,55.0
780,171.41262836874998,171.68051351875,62.0,78.0
781,171.41262836874998,171.71990839375,58.0,68.0
782,171.41262836874998,171.80066788749997,65.0,66.0
783,171.88536686875,172.26552741249998,46.0,72.0
784,172.35810536875,172.64371821249998,57.0,92.0
785,172.35810536875,172.88796643749998,60.0,94.0
786,172.35810536875,172.9628167,41.0,94.0
787,172.83084386874998,173.0297879875,57.0,100.0
788,172.35810536875,173.19918595,65.0,87.0
789,173.30358236874997,173.55373982499998,55.0,94.0
790,173.30358236874997,173.73889573749997,48.0,100.0
791,173.30358236874997,173.79010907499998,60.0,97.0
792,173.30358236874997,173.79010907499998,64.0,89.0
793,173.77632086875,173.837382925,55.0,40.0
794,174.24905936874998,174.52285374999997,57.0,89.0
795,174.24905936874998,174.77892043749998,62.0,87.0
796,174.24905936874998,174.81634556874997,65.0,89.0
797,174.72179786874997,174.85574044375,57.0,53.0
798,175.19453636875,175.35211586875,57.0,105.0
799,175.19453636875,175.46636100625,65.0,97.0
800,174.24905936874998,175.49590716249998,50.0,84.0
801,175.43090561875,175.6692446125,64.0,100.0
802,175.66727486874998,175.7874292375,62.0,92.0
803,176.14001336874998,176.75851290625,58.0,55.0
804,176.14001336874998,176.85109086249997,62.0,84.0
805,176.14001336874998,176.88063701874998,55.0,76.0
806,176.61275186874997,177.18594729999998,50.0,94.0
807,177.08549036875,177.52671296875,55.0,100.0
808,177.08549036875,177.58186579374998,58.0,112.0
809,176.14001336874998,177.86353914999998,43.0,89.0
810,177.55822886874998,177.86944838124998,50.0,87.0
811,177.08549036875,177.92854069375,65.0,102.0
812,177.79459811874997,177.93444992499997,55.0,78.0
813,178.03096736875,178.5056756125,55.0,89.0
814,178.03096736875,178.54704023124998,60.0,97.0
815,178.03096736875,179.1084172,48.0,108.0
816,178.97644436874998,179.17932797499998,55.0,102.0
817,178.97644436874998,179.19705566874998,64.0,100.0
818,178.50370586875,179.25811772499998,52.0,44.0
819,179.44918286874997,179.61858083124997,55.0,92.0
820,179.44918286874997,179.69343109374998,60.0,100.0
821,179.92192136875,180.7354255375,60.0,92.0
822,179.92192136875,180.73739528124997,57.0,69.0
823,179.92192136875,180.74133476875,67.0,55.0
824,180.39465986874998,181.01709889375,48.0,42.0
825,180.86739836874997,181.29680250624997,67.0,100.0
826,180.86739836874997,181.30862096874998,57.0,105.0
827,180.86739836874997,181.35195533125,60.0,114.0
828,181.34013686875,181.58832458125,48.0,58.0
829,179.92192136875,181.61787073749997,41.0,102.0
830,181.57650611875,181.71635792499998,57.0,76.0
831,181.81287536874999,182.29349284375,57.0,92.0
832,181.81287536874999,182.34470618125,60.0,89.0
833,181.81287536874999,182.34864566874998,65.0,100.0
834,182.52198311874997,182.638198,57.0,73.0
835,182.28561386874998,182.77017083124997,48.0,48.0
836,182.75835236874997,183.03017700624997,57.0,105.0
837,182.75835236874997,183.06366264999997,60.0,111.0
838,183.2305629645833,183.2776291145833,60.0,46.0
839,182.75835236874997,183.30116218958332,65.0,100.0
840,183.2305629645833,183.37960577291665,57.0,108.0
841,181.81287536874999,183.59532562708333,41.0,94.0
842,182.99472161875,183.59924780625,48.0,111.0
843,183.4658937145833,183.66788594166664,57.0,100.0
844,183.4658937145833,183.6835746583333,60.0,102.0
845,183.4658937145833,183.70710773333332,65.0,102.0
846,183.7012244645833,184.07383148541663,58.0,72.0
847,183.7012244645833,184.18953577083332,62.0,100.0
848,183.7012244645833,184.18953577083332,70.0,63.0
849,183.7012244645833,184.4366330583333,46.0,102.0
850,184.1718859645833,184.44447741666664,53.0,38.0
851,184.64254746458332,184.91513891666665,46.0,99.0
852,184.64254746458332,185.17008056249998,62.0,97.0
853,184.64254746458332,185.18184709999997,58.0,93.0
854,184.64254746458332,185.2642128625,53.0,97.0
855,185.11320896458332,185.46032182083331,46.0,70.0
856,185.5838704645833,186.13297554791666,60.0,97.0
857,185.5838704645833,186.1427809958333,57.0,80.0
858,185.5838704645833,186.36438411874997,45.0,105.0
859,186.0545319645833,186.36438411874997,52.0,78.0
860,186.5251934645833,186.81543472291665,57.0,89.0
861,186.5251934645833,187.01546586041664,60.0,102.0
862,186.5251934645833,187.14489777291664,45.0,97.0
863,186.99585496458332,187.20373046041664,57.0,108.0
864,186.5251934645833,187.33708455208333,64.0,94.0
865,187.46651646458332,187.96855539791665,58.0,82.0
866,187.46651646458332,188.00581609999998,55.0,82.0
867,187.46651646458332,188.02346590624998,62.0,92.0
868,187.46651646458332,188.6431702145833,43.0,102.0
869,187.93717796458333,188.66670328958332,50.0,55.0
870,188.4078394645833,188.82947372499999,58.0,112.0
871,188.4078394645833,188.87457878541665,55.0,105.0
872,188.4078394645833,188.88046205416666,62.0,105.0
873,188.8785009645833,189.20876676458332,43.0,100.0
874,189.35040981458332,189.8638658708333,57.0,92.0
875,189.8225533145833,190.07239591666664,60.0,92.0
876,189.35040981458332,190.12747932499997,53.0,84.0
877,190.2946968145833,190.54453941666662,60.0,108.0
878,190.2946968145833,190.5661793270833,57.0,117.0
879,190.2946968145833,190.5720811208333,53.0,100.0
880,189.35040981458332,190.62716452916663,41.0,97.0
881,190.2946968145833,190.70388784791663,48.0,87.0
882,190.2946968145833,190.81798919374998,65.0,97.0
883,190.7668403145833,191.18390040624996,64.0,102.0
884,191.2389838145833,191.48292462291664,57.0,97.0
885,191.2389838145833,191.90391924374998,62.0,92.0
886,191.7111273145833,191.9826098270833,57.0,87.0
887,192.1832708145833,192.4429497395833,57.0,102.0
888,192.1832708145833,192.8560753020833,65.0,102.0
889,192.1832708145833,192.9741111770833,62.0,105.0
890,192.6554143145833,193.0154237333333,57.0,84.0
891,191.2389838145833,193.05476902499996,50.0,105.0
892,193.1275578145833,193.60166857916664,60.0,89.0
893,193.1275578145833,193.63117754791665,57.0,94.0
894,194.0718448145833,194.3197201520833,57.0,111.0
895,193.1275578145833,194.34726185624996,45.0,105.0
896,193.5997013145833,194.38857441249996,52.0,76.0
897,194.0718448145833,194.39447620624998,60.0,114.0
898,194.0718448145833,194.5734972833333,64.0,108.0
899,194.54398831458332,194.6738277770833,57.0,108.0
900,194.54398831458332,194.8213726208333,45.0,102.0
901,195.0161318145833,195.3348286770833,62.0,105.0
902,195.0161318145833,195.33876320624998,58.0,87.0
903,195.4882753145833,195.76172509166665,62.0,82.0
904,195.4882753145833,195.76762688541663,65.0,47.0
905,195.9604188145833,196.26534482499997,58.0,96.0
906,195.0161318145833,196.2909192645833,46.0,102.0
907,195.9604188145833,196.29485379374998,62.0,108.0
908,195.9604188145833,196.34010087916664,65.0,108.0
909,195.9604188145833,196.40502061041664,53.0,55.0
910,196.4325623145833,196.5092856333333,62.0,97.0
911,196.4325623145833,196.5387946020833,46.0,99.0
912,196.4325623145833,196.5564999833333,58.0,90.0
913,196.4325623145833,196.6509286833333,65.0,80.0
914,196.9047058145833,197.19586097291665,64.0,97.0
915,196.9047058145833,197.20963182499997,55.0,92.0
916,196.9047058145833,197.20963182499997,60.0,94.0
917,197.3768493145833,197.5125905708333,60.0,84.0
918,197.3768493145833,197.5125905708333,64.0,80.0
919,197.3768493145833,197.53226321666665,55.0,69.0
920,197.8489928145833,197.97096321874997,55.0,117.0
921,197.8489928145833,198.1027699458333,64.0,117.0
922,198.0850645645833,198.21293676249996,60.0,92.0
923,196.9047058145833,198.53753541874997,48.0,105.0
924,198.3211363145833,198.5808152395833,55.0,92.0
925,198.5572080645833,198.66147308749996,60.0,82.0
926,198.79327981458331,199.0706641208333,60.0,108.0
927,198.79327981458331,199.07853317916664,48.0,117.0
928,198.79327981458331,199.08443497291663,55.0,102.0
929,199.2654233145833,199.39329551249998,60.0,80.0
930,199.2654233145833,199.39919730624996,55.0,64.0
931,199.2654233145833,199.39919730624996,64.0,80.0
932,199.2654233145833,199.40509909999997,48.0,73.0
933,199.73756681458332,199.88117712916664,55.0,97.0
934,199.73756681458332,200.0149511208333,60.0,102.0
935,199.73756681458332,200.18216861041662,64.0,89.0
936,199.9736385645833,200.3926659208333,55.0,97.0
937,200.2097103145833,200.4811928270833,60.0,78.0
938,199.73756681458332,200.55004708749996,48.0,108.0
939,200.4457820645833,200.5756215270833,64.0,82.0
940,200.6818538145833,200.79792242499997,55.0,100.0
941,200.6818538145833,200.84513677499996,60.0,105.0
942,200.6818538145833,201.0182560583333,48.0,111.0
943,200.9179255645833,201.25236054374997,55.0,102.0
944,200.6818538145833,201.28777130624997,64.0,102.0
945,200.9179255645833,201.31728027499997,60.0,52.0
946,201.39006906458332,201.5258103208333,55.0,94.0
947,201.6261408145833,201.96057579374997,55.0,114.0
948,201.6261408145833,202.43862108749997,60.0,117.0
949,201.6261408145833,202.47206458541663,64.0,111.0
950,202.0982843145833,202.48583543749996,55.0,108.0
951,201.1539973145833,202.56059149166663,48.0,97.0
952,202.5704278145833,202.66682377916663,60.0,84.0
953,202.5704278145833,202.6707583083333,41.0,105.0
954,202.5704278145833,202.6707583083333,57.0,84.0
955,202.5704278145833,202.7061690708333,65.0,97.0
956,203.0425713145833,203.81373903124998,57.0,102.0
957,203.0425713145833,203.81373903124998,60.0,105.0
958,203.0425713145833,203.91210226041665,65.0,100.0
959,203.0425713145833,204.03013813541665,41.0,108.0
960,203.98685831458332,204.20719194791664,57.0,82.0
961,203.98685831458332,204.25440629791663,64.0,89.0
962,204.4590018145833,204.74425517916663,57.0,84.0
963,204.4590018145833,205.12196997916664,62.0,89.0
964,204.9311453145833,205.1613152708333,57.0,82.0
965,205.4032888145833,205.57837536249997,57.0,108.0
966,204.4590018145833,205.76723276249996,50.0,97.0
967,205.4032888145833,205.84198881666663,62.0,111.0
968,205.4032888145833,206.02494442291663,65.0,100.0
969,205.8754323145833,206.04461706874997,57.0,66.0
970,206.3475758145833,206.98300227499996,58.0,96.0
971,206.3475758145833,207.10693994374998,62.0,89.0
972,206.3475758145833,207.5574435333333,46.0,99.0
973,206.8197193145833,207.7049883770833,53.0,25.0
974,207.2918628145833,207.76007178541664,58.0,99.0
975,207.2918628145833,207.9823726833333,65.0,87.0
976,207.7640063145833,208.04925967916662,46.0,54.0
977,207.2918628145833,208.1063103520833,62.0,102.0
978,208.2361498145833,208.48009062291663,55.0,84.0
979,208.2361498145833,208.8086238083333,64.0,94.0
980,208.2361498145833,208.85190362916663,60.0,94.0
981,208.7082933145833,208.94633232916664,55.0,55.0
982,208.2361498145833,209.29656668124997,48.0,66.0
983,209.18046156458328,209.34182799791662,55.0,111.0
984,209.18046156458328,209.40086449791661,60.0,114.0
985,209.18046156458328,209.5228732645833,64.0,108.0
986,209.4166075645833,209.5641988145833,48.0,89.0
987,209.6527535645833,209.80231269791662,64.0,20.0
988,209.88889956458328,209.93219299791662,61.0,11.0
989,209.88889956458328,209.99910103124995,60.0,62.0
990,209.6527535645833,210.0010689145833,55.0,108.0
991,210.1250455645833,210.8807127645833,58.0,77.0
992,210.1250455645833,210.90235948124996,62.0,97.0
993,210.1250455645833,211.15031278124997,46.0,85.0
994,210.59733756458328,211.22706023124996,53.0,58.0
995,211.0696295645833,211.3766193645833,62.0,108.0
996,211.0696295645833,211.42188068124997,70.0,74.0
997,211.0696295645833,211.43959163124995,58.0,105.0
998,211.5419215645833,211.66983398124995,46.0,112.0
999,212.0142135645833,212.55144571458328,60.0,102.0
1000,212.0142135645833,212.68919754791662,57.0,97.0
1001,212.4865055645833,213.05719173124996,52.0,66.0
1002,212.9587975645833,213.1949435645833,60.0,114.0
1003,212.9587975645833,213.2126545145833,57.0,111.0
1004,212.9587975645833,213.2185581645833,64.0,105.0
1005,212.0142135645833,213.2480764145833,45.0,100.0
1006,213.1949435645833,213.33466328124996,52.0,97.0
1007,213.4310895645833,213.5668735145833,57.0,102.0
1008,213.9033815645833,214.42290276458328,58.0,96.0
1009,213.9033815645833,214.49768233124996,55.0,100.0
1010,214.37567356458328,214.95423126458329,50.0,80.0
1011,214.8479655645833,215.0723042645833,55.0,100.0
1012,214.8479655645833,215.08804733124995,58.0,112.0
1013,214.8479655645833,215.11559769791663,62.0,100.0
1014,215.3202575645833,215.38126194791664,62.0,64.0
1015,215.08411156458328,215.4147159645833,50.0,89.0
1016,213.9033815645833,215.55246779791662,43.0,102.0
1017,215.3202575645833,215.67250868124995,55.0,100.0
1018,215.5564035645833,215.68825174791664,58.0,105.0
1019,215.79254956458328,216.05427804791663,55.0,94.0
1020,215.79254956458328,216.32584594791663,60.0,102.0
1021,216.2648415645833,216.35733208124995,55.0,53.0
1022,216.50098756458328,216.60528538124996,55.0,94.0
1023,216.50098756458328,216.62889998124996,64.0,100.0
1024,216.7371335645833,216.86504598124995,55.0,111.0
1025,216.7371335645833,217.05199489791661,64.0,102.0
1026,217.20942556458328,217.43966791458328,60.0,114.0
1027,215.79254956458328,217.4514752145833,48.0,105.0
1028,217.20942556458328,217.48492923124996,55.0,105.0
1029,217.6817175645833,217.77814384791662,60.0,84.0
1030,217.6817175645833,217.7820796145833,41.0,105.0
1031,217.6817175645833,217.7820796145833,57.0,84.0
1032,217.6817175645833,217.81750151458328,65.0,97.0
1033,218.1540095645833,218.92541983124997,57.0,102.0
1034,218.1540095645833,218.92541983124997,60.0,105.0
1035,218.1540095645833,219.02381399791662,65.0,100.0
1036,218.1540095645833,219.14188699791663,41.0,108.0
1037,219.0985935645833,219.31899649791663,57.0,82.0
1038,219.0985935645833,219.36622569791663,64.0,89.0
1039,219.5708855645833,219.85622864791662,57.0,84.0
1040,219.5708855645833,220.23406224791663,62.0,89.0
1041,220.0431775645833,220.2734199145833,57.0,82.0
1042,220.5154695645833,220.69061118124995,57.0,108.0
1043,219.5708855645833,220.87952798124996,50.0,97.0
1044,220.5154695645833,220.95430754791664,62.0,111.0
1045,220.5154695645833,221.13732069791664,65.0,100.0
1046,220.9877615645833,221.15699953124997,57.0,66.0
1047,221.4600535645833,222.09567988124996,58.0,96.0
1048,221.4600535645833,222.21965653124997,62.0,89.0
1049,221.4600535645833,222.6703018145833,46.0,99.0
1050,221.9323455645833,222.8178930645833,53.0,25.0
1051,222.40463756458328,222.87299379791662,58.0,99.0
1052,222.40463756458328,223.0953646145833,65.0,87.0
1053,222.8769295645833,223.16227264791664,46.0,54.0
1054,222.40463756458328,223.2193412645833,62.0,102.0
1055,223.3492215645833,223.59323909791664,55.0,84.0
1056,223.3492215645833,223.92187561458329,64.0,94.0
1057,223.3492215645833,223.96516904791662,60.0,94.0
1058,223.82151356458328,224.05962744791663,55.0,55.0
1059,223.3492215645833,224.40991068124995,48.0,66.0
1060,224.2938055645833,224.45517199791664,55.0,111.0
1061,224.2938055645833,224.51420849791663,60.0,114.0
1062,224.2938055645833,224.6362172645833,64.0,108.0
1063,224.52995156458329,224.6775428145833,48.0,89.0
1064,224.7660975645833,224.91565669791663,64.0,20.0
1065,225.0022435645833,225.04553699791663,61.0,11.0
1066,225.0022435645833,225.11244503124996,60.0,62.0
1067,224.7660975645833,225.11441291458328,55.0,108.0
1068,225.2383895645833,225.9940567645833,58.0,77.0
1069,225.2383895645833,226.01570348124997,62.0,97.0
1070,225.2383895645833,226.26365678124995,46.0,85.0
1071,225.7106815645833,226.34040423124998,53.0,58.0
1072,226.1829735645833,226.4899633645833,62.0,108.0
1073,226.1829735645833,226.53522468124996,70.0,74.0
1074,226.1829735645833,226.55293563124997,58.0,105.0
1075,226.6552655645833,226.78317798124996,46.0,112.0
1076,227.1275575645833,227.5663955479166,57.0,102.0
1077,227.1275575645833,227.5663955479166,60.0,108.0
1078,227.59984956458328,227.95210068124996,52.0,84.0
1079,227.1275575645833,227.95800433124995,45.0,97.0
1080,228.0721415645833,228.31025544791663,57.0,94.0
1081,228.0721415645833,228.55230509791662,62.0,97.0
1082,228.0721415645833,228.55820874791664,50.0,105.0
1083,228.0721415645833,228.5739518145833,65.0,94.0
1084,228.5444335645833,228.6802175145833,57.0,92.0
1085,229.01672556458328,229.50869639791662,55.0,89.0
1086,229.01672556458328,229.5185358145833,58.0,105.0
1087,229.01672556458328,229.5185358145833,62.0,89.0
1088,229.4890175645833,229.75664969791663,50.0,55.0
1089,229.01672556458328,229.89243364791662,43.0,100.0
1090,229.9613095645833,230.18761614791663,55.0,92.0
1091,229.9613095645833,230.4395052145833,48.0,97.0
1092,229.9613095645833,230.50838113124996,60.0,94.0
1093,229.9613095645833,230.5221563145833,64.0,97.0
1094,230.43360156458328,230.58316069791664,55.0,94.0
1095,230.9058935645833,231.4785476145833,65.0,92.0
1096,230.9058935645833,231.6202352145833,57.0,87.0
1097,230.9058935645833,231.6379461645833,60.0,89.0
1098,231.3781855645833,231.97248633124997,48.0,46.0
1099,231.8504775645833,232.23027904791664,57.0,108.0
1100,231.8504775645833,232.46839293124995,60.0,105.0
1101,230.9058935645833,232.47823234791662,41.0,97.0
1102,232.3227695645833,232.76160754791664,48.0,55.0
1103,232.7950615645833,233.0390790979166,57.0,82.0
1104,232.7950615645833,233.47594919791663,60.0,80.0
1105,232.7950615645833,233.5034995645833,65.0,92.0
1106,233.2673535645833,233.8341039645833,57.0,80.0
1107,233.7396455645833,234.21390544791663,60.0,105.0
1108,233.7396455645833,234.22571274791662,65.0,100.0
1109,234.2119375645833,234.43824414791663,57.0,67.0
1110,234.6842295645833,234.92234344791663,57.0,114.0
1111,234.6842295645833,235.26081938124997,65.0,100.0
1112,235.62881356458328,235.94564278124997,57.0,108.0
1113,235.62881356458328,236.49861799791663,60.0,114.0
1114,236.1011055645833,236.54191143124996,57.0,111.0
1115,232.7950615645833,236.60685158124997,41.0,92.0
1116,236.5733975645833,236.98468518124997,58.0,96.0
1117,236.5733975645833,236.99452459791664,62.0,92.0
1118,236.5733975645833,237.05552898124995,65.0,92.0
1119,237.04568956458328,237.6950910645833,53.0,34.0
1120,236.5733975645833,237.78364581458328,46.0,96.0
1121,237.5179815645833,237.98830568124995,62.0,102.0
1122,237.5179815645833,238.1673830645833,70.0,102.0
1123,237.9902735645833,238.2736487645833,53.0,67.0
1124,238.2264195645833,238.35236409791662,62.0,94.0
1125,238.4625655645833,238.94863274791663,69.0,100.0
1126,239.1710035645833,239.27923714791663,60.0,94.0
1127,238.9348575645833,239.46421818124998,52.0,62.0
1128,239.4071495645833,239.57048388124997,60.0,108.0
1129,239.4071495645833,239.73578608124996,69.0,100.0
1130,239.6432955645833,239.87157003124997,52.0,71.0
1131,238.4625655645833,239.88337733124996,45.0,100.0
1132,239.8794415645833,240.1332985145833,67.0,105.0
1133,240.11558756458328,240.25924304791664,65.0,80.0
1134,240.3517335645833,240.44815984791663,43.0,94.0
1135,240.3517335645833,240.77089271458328,67.0,97.0
1136,240.82402556458328,241.4261978645833,50.0,80.0
1137,241.2963175645833,241.65447233124996,58.0,46.0
1138,241.7686095645833,241.88274679791664,50.0,76.0
1139,241.2963175645833,241.88668256458328,70.0,93.0
1140,241.2963175645833,241.9221044645833,62.0,94.0
1141,242.24090156458328,242.3235526645833,41.0,100.0
1142,242.4770475645833,242.52821253124995,53.0,31.0
1143,242.24090156458328,242.99460088124997,69.0,100.0
1144,242.94933956458328,243.25829724791663,60.0,114.0
1145,243.1854855645833,243.46492499791663,65.0,97.0
1146,242.7131935645833,243.54757609791662,53.0,22.0
1147,243.4216315645833,243.55938339791663,60.0,89.0
1148,243.1854855645833,243.56725493124998,69.0,94.0
1149,243.65777756458328,244.13203744791662,67.0,105.0
1150,244.1300695645833,244.9506769145833,65.0,78.0
1151,244.6023615645833,245.15927254791663,53.0,82.0
1152,244.1300695645833,245.2989922645833,46.0,85.0
1153,245.0746535645833,245.44855139791662,58.0,109.0
1154,245.3107995645833,245.48200541458328,53.0,71.0
1155,245.0746535645833,245.53907403124995,62.0,105.0
1156,245.0746535645833,245.57449593124997,65.0,89.0
1157,245.5469455645833,245.66698644791663,46.0,109.0
1158,246.0192375645833,246.48365803124994,57.0,100.0
1159,246.0192375645833,246.60173103124995,69.0,94.0
1160,246.4915295645833,247.01892229791662,52.0,87.0
1161,246.9638215645833,247.11928434791662,57.0,108.0
1162,246.0192375645833,247.28458654791663,45.0,100.0
1163,247.1999675645833,247.32787998124996,52.0,89.0
1164,246.9638215645833,247.4794069979166,69.0,102.0
1165,247.4361135645833,247.65848438124996,67.0,97.0
1166,247.6722595645833,247.8434654145833,65.0,87.0
1167,247.9084055645833,247.99499243124995,43.0,97.0
1168,247.9084055645833,248.46531654791664,67.0,97.0
1169,248.3806975645833,248.94351219791662,50.0,80.0
1170,248.8529895645833,249.1954012645833,58.0,90.0
1171,248.8529895645833,249.4433545645833,62.0,102.0
1172,249.3252815645833,249.49845529791662,50.0,82.0
1173,248.8529895645833,249.65391808124997,67.0,111.0
1174,249.7975735645833,250.05536628124997,55.0,78.0
1175,249.7975735645833,250.07307723124995,58.0,72.0
1176,249.7975735645833,250.1281779645833,62.0,89.0
1177,250.26986556458328,250.80512983124996,50.0,67.0
1178,250.7421575645833,250.98027144791664,62.0,102.0
1179,250.7421575645833,250.99404663124994,70.0,105.0
1180,249.7975735645833,251.0668583145833,43.0,102.0
1181,250.97830356458329,251.12195904791662,50.0,84.0
1182,251.2144495645833,251.4328846145833,67.0,97.0
1183,251.2144495645833,251.45256344791662,62.0,84.0
1184,251.6867415645833,252.09802918124996,58.0,96.0
1185,251.6867415645833,252.10786859791662,62.0,92.0
1186,251.6867415645833,252.16887298124996,65.0,92.0
1187,252.1590335645833,252.8084350645833,53.0,34.0
1188,251.6867415645833,252.8969898145833,46.0,96.0
1189,252.63132556458328,253.10164968124997,62.0,102.0
1190,252.63132556458328,253.2807270645833,70.0,102.0
1191,253.1036175645833,253.38699276458328,53.0,67.0
1192,253.33976356458328,253.46570809791663,62.0,94.0
1193,253.5759095645833,254.06197674791662,69.0,100.0
1194,254.2843475645833,254.39258114791664,60.0,94.0
1195,254.04820156458328,254.57756218124996,52.0,62.0
1196,254.5204935645833,254.68382788124995,60.0,108.0
1197,254.5204935645833,254.84913008124997,69.0,100.0
1198,254.75663956458328,254.98491403124996,52.0,71.0
1199,253.5759095645833,254.99672133124994,45.0,100.0
1200,254.9927855645833,255.2466425145833,67.0,105.0
1201,255.2289315645833,255.37258704791662,65.0,80.0
1202,255.46507756458328,255.56150384791664,43.0,94.0
1203,255.46507756458328,255.8842367145833,67.0,97.0
1204,255.9373695645833,256.53954186458327,50.0,80.0
1205,256.4096615645833,256.76781633124995,58.0,46.0
1206,256.8819535645833,256.9960907979166,50.0,76.0
1207,256.4096615645833,257.0000265645833,70.0,93.0
1208,256.4096615645833,257.0354484645833,62.0,94.0
1209,257.35424556458327,257.4368966645833,41.0,100.0
1210,257.5903915645833,257.64155653125,53.0,31.0
1211,257.35424556458327,258.10794488125,69.0,100.0
1212,258.06268356458327,258.3716412479166,60.0,114.0
1213,258.2988295645833,258.5782689979166,65.0,97.0
1214,257.8265375645833,258.66092009791663,53.0,22.0
1215,258.5349755645833,258.6727273979166,60.0,89.0
1216,258.2988295645833,258.68059893124996,69.0,94.0
1217,258.77112156458327,259.24538144791666,67.0,105.0
1218,259.2434135645833,260.0640209145833,65.0,78.0
1219,259.7157055645833,260.27261654791664,53.0,82.0
1220,259.2434135645833,260.4123362645833,46.0,85.0
1221,260.18799756458327,260.5618953979166,58.0,109.0
1222,260.4241435645833,260.5953494145833,53.0,71.0
1223,260.18799756458327,260.65241803124997,62.0,105.0
1224,260.18799756458327,260.68783993125,65.0,89.0
1225,260.6602895645833,260.78033044791664,46.0,109.0
1226,261.1325815645833,261.59700203125,57.0,100.0
1227,261.1325815645833,261.71507503124997,69.0,94.0
1228,261.6048735645833,262.13226629791666,52.0,87.0
1229,262.0771655645833,262.2326283479166,57.0,108.0
1230,261.1325815645833,262.39793054791664,45.0,100.0
1231,262.3133115645833,262.44122398124995,52.0,89.0
1232,262.0771655645833,262.5927509979166,69.0,102.0
1233,262.5494575645833,262.77182838125,67.0,97.0
1234,262.7856035645833,262.9568094145833,65.0,87.0
1235,263.0217495645833,263.10833643124994,43.0,97.0
1236,263.0217495645833,263.5786605479166,67.0,97.0
1237,263.4940415645833,264.05685619791666,50.0,80.0
1238,263.9663335645833,264.3087452645833,58.0,90.0
1239,263.9663335645833,264.5566985645833,62.0,102.0
1240,264.4386255645833,264.6117992979166,50.0,82.0
1241,263.9663335645833,264.76726208124995,67.0,111.0
1242,264.9109175645833,265.16871028124996,55.0,78.0
1243,264.9109175645833,265.18642123124994,58.0,72.0
1244,264.9109175645833,265.2415219645833,62.0,89.0
1245,265.3832095645833,265.91847383124997,50.0,67.0
1246,265.8555015645833,266.09361544791665,62.0,102.0
1247,265.8555015645833,266.10739063125,70.0,105.0
1248,264.9109175645833,266.1802023145833,43.0,102.0
1249,266.0916475645833,266.2353030479166,50.0,84.0
1250,266.3277935645833,266.5462286145833,67.0,97.0
1251,266.3277935645833,266.56590744791663,62.0,84.0
1252,266.8000855645833,266.8886403145833,62.0,57.0
1253,266.8000855645833,267.52426663124993,67.0,105.0
1254,267.2723775645833,267.7997702979166,55.0,80.0
1255,267.7446695645833,267.9690082645833,60.0,100.0
1256,267.7446695645833,267.99262286458327,64.0,102.0
1257,266.8000855645833,268.30354843124996,48.0,108.0
1258,267.9808155645833,268.37242434791665,55.0,82.0
1259,268.2169615645833,268.4964009979166,60.0,92.0
1260,268.4531075645833,268.59085939791663,64.0,82.0
1261,268.6892535645833,270.3186609645833,67.0,84.0
1262,268.6892535645833,270.3265324979166,64.0,87.0
1263,268.6892535645833,270.3304682645833,60.0,80.0
1264,268.6892535645833,270.3954084145833,48.0,97.0
1265,270.5803894479166,272.58959833124993,48.0,52.0
1266,270.3855689979166,272.6997997979166,41.0,92.0
1267,270.56858214791663,273.02056478124996,53.0,50.0
1268,270.75946683124994,273.03237208124995,60.0,44.0
1269,270.67878361458327,273.03827573124994,57.0,62.0
1270,270.80472814791665,273.07763339791666,65.0,66.0
