,start,end,pitch,velocity
0,31.666634999999996,31.965741843749996,74.0,85.0
1,32.023777499999994,32.29312246875,72.0,82.0
2,32.380919999999996,33.194907281249996,74.0,84.0
3,33.452347499999995,33.718716281249996,77.0,80.0
4,33.80949,34.0981801875,79.0,78.0
5,34.1666325,34.50145359374999,77.0,84.0
6,34.52377499999999,34.641334406249996,74.0,83.0
7,34.70234625,34.863060374999996,72.0,73.0
8,34.880917499999995,35.05948874999999,70.0,83.0
9,35.05948874999999,35.23806,72.0,83.0
10,35.23806,36.82436793749999,74.0,84.0
11,37.380914999999995,37.60561715625,72.0,77.0
12,37.55948625,37.99847390625,74.0,82.0
13,38.0952,39.00144909375,72.0,77.0
14,39.1666275,39.43299628125,74.0,84.0
15,39.52377,39.82436493749999,72.0,79.0
16,39.880912499999994,40.226150249999996,70.0,82.0
17,40.238054999999996,40.5951975,67.0,79.0
18,40.5951975,40.95233999999999,70.0,76.0
19,40.95233999999999,41.309482499999994,67.0,79.0
20,41.309482499999994,42.83626668749999,65.0,69.0
21,43.45233749999999,43.59370640624999,65.0,81.0
22,43.630908749999996,43.732099125,67.0,77.0
23,43.80947999999999,44.3124556875,70.0,83.0
24,44.34519374999999,44.76334809375,70.0,87.0
25,44.88090749999999,44.9910264375,72.0,84.0
26,45.05947875,45.181502437499994,74.0,83.0
27,45.238049999999994,45.66215671875,77.0,64.0
28,45.77376374999999,46.20233474999999,77.0,83.0
29,46.30947749999999,46.43447737499999,74.0,83.0
30,46.48804875,46.614536718749996,77.0,71.0
31,46.666619999999995,47.15322665624999,79.0,84.0
32,47.73804749999999,47.907690187499995,79.0,77.0
33,47.91661875,48.089237624999996,77.0,75.0
34,48.095189999999995,48.836260687499994,74.0,83.0
35,49.166617499999994,49.284176906249996,72.0,83.0
36,49.34518874999999,49.450843406249994,74.0,83.0
37,49.523759999999996,50.428520999999996,72.0,83.0
38,50.595187499999994,50.930008593749996,70.0,83.0
39,50.952329999999996,51.24548446874999,67.0,82.0
40,51.30947249999999,51.648757874999994,70.0,83.0
41,51.66661499999999,51.99101943749999,77.0,82.0
42,52.023757499999995,52.386852375,74.0,82.0
43,52.3809,54.275234489583326,72.0,78.0
44,54.52345041666666,54.82220132291666,74.0,85.0
45,54.88016791666666,55.14919236458333,72.0,82.0
46,55.23688541666666,56.04990405208333,74.0,84.0
47,56.30703791666666,56.57308971874999,77.0,80.0
48,56.66375541666666,56.952102062499996,79.0,78.0
49,57.02047291666666,57.35489557291666,77.0,84.0
50,57.37719041666666,57.494609927083324,74.0,83.0
51,57.55554916666666,57.71607204166666,72.0,73.0
52,57.73390791666666,57.91226666666666,70.0,83.0
53,57.91226666666666,58.09062541666666,72.0,83.0
54,58.09062541666666,59.67504564583333,74.0,84.0
55,60.23093041666666,60.45536517708333,72.0,77.0
56,60.58764791666666,60.94436541666666,74.0,82.0
57,60.94436541666666,61.848967877083325,72.0,77.0
58,62.013753852083326,62.279489793749995,74.0,84.0
59,62.370047852083324,62.66992863541666,72.0,79.0
60,62.72634185208333,63.07075938541666,70.0,82.0
61,63.08263585208333,63.43892985208333,67.0,79.0
62,63.43892985208333,63.795223852083325,70.0,76.0
63,63.795223852083325,64.15151785208333,67.0,79.0
64,64.15151785208333,65.67467470208332,65.0,69.0
65,66.28928185208332,66.43031489375,65.0,81.0
66,66.46742885208333,66.56837881874999,67.0,77.0
67,66.64557585208333,67.14735656875,70.0,83.0
68,67.18001685208333,67.59717774375,70.0,87.0
69,67.71445785208333,67.82431516874999,72.0,84.0
70,67.89260485208332,68.01433863541666,74.0,83.0
71,68.07075185208333,68.49385097708333,77.0,64.0
72,68.60519285208332,69.03274565208332,77.0,83.0
73,69.13963385208332,69.26433675208332,74.0,83.0
74,69.31778085208333,69.44396831041666,77.0,71.0
75,69.49592785208333,69.98137842708333,79.0,84.0
76,70.56480985208333,70.73404950208332,79.0,77.0
77,70.74295685208332,70.91516561875,77.0,75.0
78,70.92110385208332,71.66041390208332,74.0,83.0
79,71.98998585208332,72.10726596041665,72.0,83.0
80,72.16813285208333,72.27353649374999,74.0,83.0
81,72.34627985208333,73.24889131875,72.0,83.0
82,73.41516185208333,73.70465072708333,74.0,87.0
83,73.77145585208334,74.00898518541666,79.0,82.0
84,74.12774985208333,74.45880636041666,77.0,78.0
85,74.48404385208333,74.76165626041666,74.0,83.0
86,74.84033785208332,75.55222872708333,72.0,73.0
87,75.55222872708333,77.31167968541666,70.0,73.0
88,77.33251299791667,77.60483415416667,74.0,84.0
89,77.68965549791666,77.96197665416666,74.0,87.0
90,78.04679799791667,78.52894037291667,77.0,83.0
91,78.58251174791667,80.04530790416666,79.0,80.0
92,80.18965299791667,80.49917649791666,79.0,84.0
93,80.54679549791666,80.89649752916667,77.0,82.0
94,80.90393799791667,82.63012674791666,74.0,86.0
95,83.04679299791667,83.33994746666666,77.0,73.0
96,83.40393549791666,83.69708996666667,74.0,83.0
97,83.76107799791666,84.70899371666667,72.0,83.0
98,84.83250549791666,85.16881468541666,70.0,86.0
99,85.18964799791667,85.79827834166666,67.0,78.0
100,85.90393299791667,86.21345649791667,70.0,79.0
101,86.26107549791666,86.52744427916666,72.0,78.0
102,86.61821799791666,88.31613296666666,74.0,85.0
103,88.76107299791667,89.02446559166667,74.0,88.0
104,89.11821549791667,89.40541759166666,74.0,89.0
105,89.47535799791666,89.82357193541667,77.0,83.0
106,89.83250049791667,91.32208234166666,79.0,81.0
107,91.61821299791666,92.03041496666665,82.0,84.0
108,91.97535549791667,92.30720040416666,79.0,86.0
109,92.33249799791666,94.18517471666667,77.0,82.0
110,94.47535299791666,94.75065034166667,77.0,79.0
111,94.83249549791665,95.10481665416665,79.0,80.0
112,95.18963799791666,95.58398284166665,82.0,78.0
113,95.72535174791666,95.81910165416666,82.0,81.0
114,95.90392299791667,96.21939887291666,82.0,82.0
115,96.26106549791666,96.63160084166665,79.0,82.0
116,96.61820799791667,97.33249299791666,86.0,82.0
117,97.33249299791666,97.84439724791666,86.0,83.0
118,97.86820674791666,98.08695652916666,84.0,83.0
119,98.04677799791666,98.38606337291667,82.0,78.0
120,98.40392049791666,99.94260943541666,84.0,82.0
121,100.18963299791666,100.45600177916666,82.0,83.0
122,100.54677549791666,100.83248949791667,82.0,82.0
123,100.90391799791666,101.37861990416667,84.0,84.0
124,101.43963174791666,102.87266602916667,86.0,82.0
125,103.04677299791666,103.51998681041667,86.0,84.0
126,103.58248674791666,103.76552227916666,84.0,77.0
127,103.76105799791667,104.14498618541666,82.0,84.0
128,104.11820049791666,105.58992521666666,79.0,78.0
129,105.90391299791666,106.27742452916667,79.0,83.0
130,106.26105549791666,106.60034087291666,82.0,83.0
131,106.61819799791667,106.95748337291666,79.0,83.0
132,106.97534049791666,107.61373271666666,77.0,76.0
133,107.68962549791667,108.04676799791666,79.0,82.0
134,108.04676799791666,108.35033912291667,77.0,78.0
135,108.40391049791666,108.68069593541667,74.0,84.0
136,108.76105299791666,109.08992171666665,72.0,83.0
137,109.11819549791666,109.48129037291666,74.0,84.0
138,109.47533799791665,109.84587334166666,72.0,77.0
139,109.83248049791666,111.92493797708333,70.0,80.0
140,134.42045040208333,134.71884662708334,74.0,85.0
141,134.77674440208332,135.04544946041665,72.0,82.0
142,135.13303840208332,135.94509181041667,74.0,84.0
143,136.20192040208332,136.46765634374998,77.0,80.0
144,136.55821440208334,136.84621871874998,79.0,78.0
145,136.91450840208333,137.24853402708334,77.0,84.0
146,137.27080240208332,137.38808251041667,74.0,83.0
147,137.44894940208331,137.60928170208334,72.0,73.0
148,137.62709640208334,137.80524340208333,70.0,83.0
149,137.80524340208333,137.98339040208333,72.0,83.0
150,137.98339040208333,139.56592958541665,74.0,84.0
151,140.12115440208333,140.34532271041667,72.0,77.0
152,140.47751911041664,140.83466161041665,74.0,82.0
153,140.83466161041665,141.74091070416665,72.0,77.0
154,141.90608911041664,142.17245789166665,74.0,84.0
155,142.26323161041665,142.56382654791665,72.0,79.0
156,142.62037411041663,142.96561186041666,70.0,82.0
157,142.97751661041664,143.33465911041665,67.0,79.0
158,143.33465911041665,143.69180161041663,70.0,76.0
159,143.69180161041663,144.04894411041664,67.0,79.0
160,144.04894411041664,145.57572829791664,65.0,69.0
161,146.19179911041664,146.33316801666663,65.0,81.0
162,146.37037036041664,146.47156073541663,67.0,77.0
163,146.54894161041665,147.05191729791665,70.0,83.0
164,147.08465536041663,147.50280970416665,70.0,87.0
165,147.62036911041665,147.73048804791665,72.0,84.0
166,147.79894036041665,147.92096404791664,74.0,83.0
167,147.97751161041666,148.40161832916664,77.0,64.0
168,148.51322536041664,148.94179636041665,77.0,83.0
169,149.04893911041665,149.17393898541664,74.0,83.0
170,149.22751036041666,149.35399832916664,77.0,71.0
171,149.40608161041663,149.89268826666665,79.0,84.0
172,150.47750911041663,150.64715179791665,79.0,77.0
173,150.65608036041664,150.82869923541665,77.0,75.0
174,150.83465161041664,151.57572229791666,74.0,83.0
175,151.90607911041664,152.02363851666664,72.0,83.0
176,152.08465036041665,152.19030501666666,74.0,83.0
177,152.26322161041665,153.16798261041663,72.0,83.0
178,153.33464911041665,153.62482739166666,74.0,87.0
179,153.69179161041666,153.92988661041664,79.0,82.0
180,154.04893411041664,154.38077901666665,77.0,78.0
181,154.40607661041665,154.68435014166664,74.0,83.0
182,154.76321911041666,155.47750411041665,72.0,73.0
183,155.47750411041665,157.24238329791663,70.0,73.0
184,157.26321661041663,157.53553776666664,74.0,84.0
185,157.62035911041664,157.89268026666664,74.0,87.0
186,157.97750161041665,158.45964398541665,77.0,83.0
187,158.51321536041664,159.97601151666663,79.0,80.0
188,160.12035661041665,160.42988011041663,79.0,84.0
189,160.47749911041666,160.82720114166665,77.0,82.0
190,160.83464161041664,162.56083036041665,74.0,86.0
191,162.97749661041664,163.27065107916664,77.0,73.0
192,163.33463911041665,163.62779357916665,74.0,83.0
193,163.69178161041665,164.63969732916664,72.0,83.0
194,164.76320911041665,165.09951829791663,70.0,86.0
195,165.12035161041663,165.72898195416664,67.0,78.0
196,165.83463661041665,166.14416011041664,70.0,79.0
197,166.19177911041663,166.45814789166664,72.0,78.0
198,166.54892161041664,168.24683657916665,74.0,85.0
199,168.69177661041664,168.95516920416665,74.0,88.0
200,169.04891911041665,169.33612120416663,74.0,89.0
201,169.40606161041666,169.75427554791665,77.0,83.0
202,169.76320411041664,171.25278595416665,79.0,81.0
203,171.54891661041665,171.96111857916665,82.0,84.0
204,171.90605911041663,172.23790401666665,79.0,86.0
205,172.26320161041664,174.11587832916663,77.0,82.0
206,174.40605661041664,174.68135395416664,77.0,79.0
207,174.76319911041665,175.03552026666665,79.0,80.0
208,175.12034161041663,175.51468645416665,82.0,78.0
209,175.65605536041664,175.74980526666664,82.0,81.0
210,175.83462661041665,176.15010248541665,82.0,82.0
211,176.19176911041666,176.56230445416665,79.0,82.0
212,176.54891161041664,177.26319661041663,86.0,82.0
213,177.26319661041663,177.77510086041664,86.0,83.0
214,177.79891036041664,178.01766014166662,84.0,83.0
215,177.97748161041665,178.31676698541665,82.0,78.0
216,178.33462411041666,179.87331304791664,84.0,82.0
217,180.12033661041664,180.38670539166662,82.0,83.0
218,180.47747911041665,180.76319311041664,82.0,82.0
219,180.83462161041663,181.30932351666664,84.0,84.0
220,181.37033536041665,182.80336964166665,86.0,82.0
221,182.97716902916665,183.44925857916664,86.0,84.0
222,183.51161002916666,183.69421070416664,84.0,77.0
223,183.68975702916666,184.07277307916664,82.0,84.0
224,184.04605102916665,185.51427922083332,79.0,78.0
225,185.82752102916666,186.2001451708333,79.0,83.0
226,186.18381502916665,186.52229432916664,82.0,83.0
227,186.54010902916664,186.87858832916666,79.0,83.0
228,186.89640302916666,187.53327855416666,77.0,76.0
229,187.60899102916665,187.96528502916664,79.0,82.0
230,187.96528502916664,188.26813492916665,77.0,78.0
231,188.32157902916666,188.59770687916665,74.0,84.0
232,188.67787302916665,189.0059604208333,72.0,83.0
233,189.03416702916664,189.39639926249998,74.0,84.0
234,189.39046102916666,189.76011605416664,72.0,77.0
235,191.52822502916666,191.79989920416665,74.0,84.0
236,189.74675502916665,191.83552860416665,70.0,80.0
237,191.88451902916665,192.15619320416664,74.0,87.0
238,192.24081302916665,192.72180992916665,77.0,83.0
239,192.77525402916666,194.2345748708333,79.0,80.0
240,194.37857702916665,194.6873651625,79.0,84.0
241,194.73487102916664,195.0837422375,77.0,82.0
242,195.09116502916666,196.8132526958333,74.0,86.0
243,197.22892902916664,197.52138702083332,77.0,73.0
244,197.58522302916666,197.8776810208333,74.0,83.0
245,197.94151702916665,198.88718068749998,72.0,83.0
246,199.01039902916665,199.34590921249998,70.0,86.0
247,199.36669302916664,199.97387738749998,67.0,78.0
248,200.07928102916665,200.3880691625,70.0,79.0
249,200.43557502916664,200.70174229166665,72.0,78.0
250,200.79251601041665,202.49043097916666,74.0,85.0
251,202.93537101041665,203.19876360416666,74.0,88.0
252,203.29251351041665,203.57971560416664,74.0,89.0
253,203.64965601041663,203.99786994791666,77.0,83.0
254,204.00679851041664,205.49638035416666,79.0,81.0
255,205.79251101041666,206.20471297916666,82.0,84.0
256,206.14965351041664,206.48149841666665,79.0,86.0
257,206.50679601041665,208.35947272916664,77.0,82.0
258,208.64965101041665,208.92494835416665,77.0,79.0
259,209.00679351041666,209.27911466666666,79.0,80.0
260,209.36393601041664,209.75828085416666,82.0,78.0
261,209.89964976041665,209.99339966666665,82.0,81.0
262,210.07822101041666,210.39369688541666,82.0,82.0
263,210.43536351041664,210.80589885416666,79.0,82.0
264,210.79250601041664,211.50679101041663,86.0,82.0
265,211.50679101041663,212.01869526041665,86.0,83.0
266,212.04250476041665,212.26125454166663,84.0,83.0
267,212.22107601041665,212.56036138541666,82.0,78.0
268,212.57821851041663,214.11690744791665,84.0,82.0
269,214.36393101041665,214.63029979166666,82.0,83.0
270,214.72107351041666,215.00678751041664,82.0,82.0
271,215.07821601041664,215.55291791666664,84.0,84.0
272,215.61392976041665,217.04696404166666,86.0,82.0
273,217.22107101041664,217.69428482291664,86.0,84.0
274,217.75678476041665,217.93982029166665,84.0,77.0
275,217.93535601041665,218.31928419791666,82.0,84.0
276,218.29249851041664,219.76422322916665,79.0,78.0
277,220.07821101041665,220.45172254166664,79.0,83.0
278,220.43535351041663,220.77463888541664,82.0,83.0
279,220.79249601041664,221.13178138541664,79.0,83.0
280,221.14963851041665,221.78803072916665,77.0,76.0
281,221.86392351041664,222.22106601041665,79.0,82.0
282,222.22106601041665,222.52463713541664,77.0,78.0
283,222.57820851041663,222.85499394791665,74.0,84.0
284,222.93535101041664,223.26421972916665,72.0,83.0
285,223.29249351041665,223.65558838541665,74.0,84.0
286,223.64963601041666,224.02017135416665,72.0,77.0
287,224.00677851041664,226.10052641666664,70.0,80.0
