,start,end,pitch,velocity
0,0.8452372499999999,1.03571325,53.0,69.0
1,0.9613085624999999,1.363093875,62.0,77.0
2,0.9032729062499999,1.3690462499999998,58.0,67.0
3,1.28422490625,1.7113078124999999,53.0,66.0
4,1.66517690625,2.0892836249999998,58.0,77.0
5,2.0267836874999996,2.18600971875,53.0,68.0
6,0.9255943124999999,2.6621997187499997,46.0,77.0
7,2.3869023749999996,3.053568375,53.0,71.0
8,2.38095,3.1934491874999997,58.0,69.0
9,2.3854142812499997,3.2619014999999996,62.0,77.0
10,3.6517820624999997,3.8720199374999997,55.0,63.0
11,3.7068415312499994,4.251483843749999,58.0,67.0
12,3.7708295624999995,4.303567125,62.0,74.0
13,3.8124961874999994,4.312495687499999,67.0,76.0
14,4.543150218749999,4.955352187499999,58.0,76.0
15,4.9136855624999995,5.2053519375,55.0,82.0
16,5.232137624999999,5.866065562499999,62.0,78.0
17,4.1874958125,6.10713675,50.0,72.0
18,5.95981546875,6.200886656249999,58.0,72.0
19,3.8080319062499997,6.3005889375,43.0,79.0
20,6.586302937499999,6.74255278125,55.0,69.0
21,6.650290968749999,7.0074334687499995,60.0,77.0
22,6.714278999999999,7.379456906249999,63.0,70.0
23,7.352671218749999,7.508921062499999,60.0,77.0
24,7.001481093749999,7.566956718749999,55.0,72.0
25,6.67707665625,7.592254312499999,48.0,83.0
26,7.732135124999999,7.869039749999999,58.0,78.0
27,8.08183715625,8.84374115625,57.0,74.0
28,8.0803490625,8.857133999999999,53.0,72.0
29,8.430051093749999,9.03421715625,48.0,80.0
30,8.08481334375,9.0684433125,41.0,83.0
31,8.8005864375,9.17112178125,60.0,83.0
32,9.13540753125,9.284216906249998,65.0,77.0
33,9.508919062499999,9.940466249999998,53.0,69.0
34,9.52231190625,10.090763718749999,58.0,75.0
35,9.516359531249998,10.21873978125,46.0,91.0
36,9.894335343749999,10.239573093749998,50.0,70.0
37,10.223204062499999,10.34373965625,53.0,74.0
38,10.2172516875,10.364572968749998,58.0,76.0
39,10.229156437499999,10.416656249999999,62.0,82.0
40,10.815465374999999,10.96427475,57.0,54.0
41,10.87350103125,11.178560249999999,62.0,76.0
42,10.943441437499999,11.38838146875,65.0,78.0
43,10.915167656249999,11.438976656249999,50.0,84.0
44,11.266357781249999,11.706833531249998,57.0,76.0
45,11.611595531249998,11.711297812499998,62.0,82.0
46,12.188975906249999,12.363082874999998,55.0,68.0
47,12.269332968749998,12.650284968749999,60.0,77.0
48,12.348201937499999,13.023796499999998,63.0,76.0
49,12.650284968749999,13.1279630625,55.0,76.0
50,12.327368624999998,13.138379718749999,48.0,82.0
51,12.9970108125,13.16218921875,60.0,77.0
52,13.6160578125,13.828855218749998,55.0,67.0
53,13.672605374999998,13.873498031249998,58.0,77.0
54,13.778260031249998,14.092247812499998,62.0,77.0
55,14.130938249999998,14.903258906249999,50.0,82.0
56,14.520818812499998,14.9285565,67.0,81.0
57,13.779748124999998,14.949389812499998,43.0,82.0
58,14.855639906249998,15.086294437499998,55.0,81.0
59,15.147306281249998,15.294627562499999,55.0,57.0
60,15.209806218749998,15.430044093749999,60.0,77.0
61,15.575877281249998,15.982126874999999,55.0,70.0
62,15.919626937499999,16.028257781249998,60.0,72.0
63,15.278258531249998,16.0386744375,63.0,75.0
64,15.232127624999999,16.049091093749997,48.0,80.0
65,16.5029596875,16.66813809375,55.0,65.0
66,16.5565310625,16.720221374999998,58.0,75.0
67,17.005935374999996,17.495518218749996,50.0,82.0
68,16.672602374999997,17.52528009375,43.0,83.0
69,17.369030249999998,17.78123221875,55.0,86.0
70,16.65028096875,17.78123221875,62.0,80.0
71,17.7291489375,17.839267874999997,58.0,79.0
72,18.095219999999998,18.791647875,57.0,70.0
73,18.7856955,19.230635531249998,65.0,81.0
74,18.092243812499998,19.233611718749998,60.0,77.0
75,18.4523625,19.27825453125,48.0,80.0
76,18.098196187499997,19.319921156249997,41.0,82.0
77,19.142837999999998,19.373492531249997,57.0,81.0
78,19.507420968749997,20.050575187499998,57.0,76.0
79,19.504444781249997,20.056527562499998,60.0,78.0
80,19.886884874999996,20.282717812499996,48.0,80.0
81,19.505932875,20.284205906249998,41.0,83.0
82,20.245515468749996,20.343729656249998,57.0,72.0
83,20.238075,20.422598625,60.0,77.0
84,20.239563093749997,20.480634281249998,65.0,77.0
85,20.894324343749997,21.04015753125,53.0,66.0
86,20.937479062499996,21.324383437499996,58.0,70.0
87,21.034205156249996,21.680037843749997,62.0,75.0
88,21.334800093749998,22.013370843749996,53.0,77.0
89,21.668133093749997,22.060989843749997,58.0,83.0
90,22.001466093749997,22.767834374999996,62.0,83.0
91,21.007419468749998,22.794620062499998,46.0,96.0
92,22.35860859375,22.866048562499998,53.0,75.0
93,22.72616775,22.895810437499996,58.0,67.0
94,23.099679281249998,23.159203031249998,53.0,68.0
95,23.08777453125,23.21575059375,46.0,86.0
96,23.07586978125,23.36902425,58.0,81.0
97,23.086286437499997,23.566940718749997,62.0,79.0
98,23.435988468749997,23.571405,53.0,82.0
99,23.672595374999997,23.839261875,55.0,70.0
100,23.741047687499996,24.114559218749996,60.0,82.0
101,23.813964281249998,24.499975499999998,63.0,76.0
102,24.099678281249997,24.583308749999997,55.0,76.0
103,23.772297656249997,24.694915781249996,48.0,79.0
104,24.45979696875,24.857117999999996,60.0,79.0
105,24.819915656249997,24.970213124999997,63.0,82.0
106,25.20235575,25.639855312499996,57.0,71.0
107,25.200867656249997,25.754438531249995,53.0,74.0
108,25.943426437499998,26.089259624999997,53.0,74.0
109,25.941938343749996,26.346699843749995,57.0,80.0
110,25.947890718749996,26.366045062499996,65.0,77.0
111,25.212772406249996,26.407711687499997,41.0,83.0
112,25.946402624999997,26.438961656249997,60.0,80.0
113,25.592236312499995,26.4493783125,48.0,83.0
114,26.61455671875,26.882413593749998,55.0,72.0
115,26.67705665625,27.098187187499995,60.0,81.0
116,26.730628031249996,27.20681803125,63.0,73.0
117,26.660687624999998,27.538662937499996,48.0,83.0
118,26.994020624999997,27.715746093749996,55.0,79.0
119,27.371996437499998,27.746996062499996,60.0,82.0
120,27.690448499999995,27.863067374999996,63.0,83.0
121,28.093721906249996,28.303543124999997,55.0,81.0
122,28.093721906249996,28.620507093749996,58.0,80.0
123,28.440447749999997,28.693423687499997,55.0,80.0
124,28.084793343749997,28.748483156249996,39.0,82.0
125,28.813959281249996,28.967232937499997,55.0,74.0
126,28.816935468749996,29.160685124999997,63.0,78.0
127,28.802054531249997,29.165149406249995,58.0,83.0
128,28.808006906249997,29.507410968749998,41.0,84.0
129,29.525268093749997,29.665148906249996,53.0,66.0
130,29.552053781249995,29.980624781249997,58.0,73.0
131,29.5952085,30.126457968749996,62.0,78.0
132,29.873482031249996,30.303541124999995,53.0,69.0
133,30.236576906249997,30.711278812499998,58.0,83.0
134,30.553540874999996,30.830326312499995,53.0,69.0
135,30.93598096875,31.233599718749996,62.0,77.0
136,30.930028593749995,31.313956781249995,58.0,70.0
137,31.986575156249998,32.28717009375,53.0,73.0
138,29.566934718749998,32.30353912499999,46.0,77.0
139,31.626456468749996,32.312467687499996,58.0,80.0
140,32.380919999999996,33.138359718749996,58.0,78.0
141,32.7380625,33.1874668125,53.0,69.0
142,33.09520499999999,33.462764156249996,62.0,82.0
143,33.452347499999995,33.685978218749995,58.0,76.0
144,33.80949,34.00740646875,53.0,74.0
145,33.80949,34.22466815625,58.0,71.0
146,33.80949,34.38240609375,65.0,76.0
147,34.1666325,34.41812034375,53.0,66.0
148,32.380919999999996,34.696393875,46.0,80.0
149,34.52377499999999,34.744012874999996,62.0,78.0
150,35.23806,35.78270231249999,58.0,68.0
151,35.23806,35.87049984375,55.0,75.0
152,35.952344999999994,36.3541303125,62.0,81.0
153,36.309487499999996,36.45680878125,58.0,84.0
154,35.5952025,36.828832218749994,50.0,66.0
155,36.66663,36.845201249999995,55.0,83.0
156,36.66663,36.903236906249994,67.0,81.0
157,37.02377249999999,37.49252203125,50.0,61.0
158,37.380914999999995,37.577343375,58.0,76.0
159,37.380914999999995,37.641331406249996,62.0,81.0
160,35.23806,37.67853374999999,43.0,78.0
161,38.0952,38.3065093125,55.0,74.0
162,38.0952,38.57883046875,60.0,77.0
163,38.45234249999999,38.75144934375,55.0,69.0
164,38.809484999999995,39.10263946875,63.0,87.0
165,39.1666275,39.565436625,55.0,86.0
166,39.52377,39.839245874999996,67.0,81.0
167,38.0952,39.976150499999996,48.0,83.0
168,39.880912499999994,40.16216221875,55.0,83.0
169,40.238054999999996,40.45680478124999,48.0,85.0
170,40.238054999999996,40.58329275,63.0,81.0
171,40.238054999999996,40.584780843749996,60.0,83.0
172,40.5951975,40.72614975,55.0,83.0
173,40.95233999999999,41.666624999999996,57.0,76.0
174,40.95233999999999,41.668113093749994,53.0,74.0
175,41.666624999999996,42.09073171874999,60.0,82.0
176,42.0237675,42.333290999999996,53.0,83.0
177,42.38090999999999,42.72912393749999,57.0,70.0
178,42.38090999999999,42.79906434375,60.0,81.0
179,42.38090999999999,42.80501671875,65.0,82.0
180,42.738052499999995,43.1457901875,53.0,71.0
181,41.309482499999994,43.25739721874999,48.0,69.0
182,40.95233999999999,43.273766249999994,41.0,83.0
183,43.095195,43.30501621875,57.0,72.0
184,43.095195,43.427039906249995,60.0,76.0
185,43.45233749999999,43.70828962499999,41.0,82.0
186,43.80947999999999,44.24549146875,58.0,82.0
187,44.166622499999995,44.5862649375,53.0,75.0
188,44.523765,44.889836062499995,58.0,76.0
189,43.80947999999999,44.90025271875,46.0,84.0
190,44.523765,44.968705031249996,62.0,82.0
191,45.238049999999994,45.42108553124999,57.0,75.0
192,45.238049999999994,45.71721618749999,62.0,82.0
193,45.595192499999996,46.00441828125,57.0,82.0
194,45.238049999999994,46.06096584375,50.0,81.0
195,45.952335,46.32287034375,62.0,82.0
196,45.952335,46.339239375,65.0,83.0
197,46.666619999999995,47.160667124999996,58.0,74.0
198,46.666619999999995,47.28417890624999,55.0,74.0
199,47.38090499999999,47.821380749999996,58.0,72.0
200,47.73804749999999,47.8541188125,55.0,72.0
201,47.0237625,47.91661875,50.0,78.0
202,46.666619999999995,47.9285235,43.0,83.0
203,47.38090499999999,48.64429659374999,62.0,82.0
204,48.80947499999999,49.13387943749999,58.0,79.0
205,48.4523325,49.142807999999995,50.0,72.0
206,48.095189999999995,49.296081656249996,43.0,83.0
207,48.80947499999999,49.398760124999995,62.0,82.0
208,49.166617499999994,49.59518849999999,55.0,83.0
209,49.523759999999996,50.01185475,60.0,80.0
210,49.8809025,50.279711625,55.0,75.0
211,50.23804499999999,50.53566375,63.0,89.0
212,49.523759999999996,50.822865843749994,48.0,84.0
213,50.595187499999994,51.09221081249999,55.0,79.0
214,50.952329999999996,51.392805749999994,67.0,82.0
215,51.30947249999999,51.74250778124999,55.0,81.0
216,50.952329999999996,51.846674343749996,48.0,83.0
217,51.66661499999999,52.01036465625,63.0,80.0
218,51.66661499999999,52.01482893749999,60.0,78.0
219,52.023757499999995,52.1814954375,55.0,84.0
220,52.3809,52.79012578124999,53.0,75.0
221,52.3809,52.894292343749996,57.0,73.0
222,53.095184999999994,53.589232124999995,53.0,83.0
223,52.73804249999999,53.62048209374999,48.0,79.0
224,52.3809,53.66661299999999,41.0,83.0
225,53.452327499999996,53.95083890624999,60.0,83.0
226,53.80947,54.47142911458333,65.0,83.0
227,54.52345041666666,54.62303405208333,53.0,77.0
228,54.88016791666666,55.16405559374999,53.0,83.0
229,54.16661249999999,55.171487208333325,48.0,76.0
230,54.52345041666666,55.175946177083325,57.0,78.0
231,53.80947,55.19675469791666,41.0,84.0
232,54.52345041666666,55.20864528124999,60.0,84.0
233,55.23688541666666,55.993423781249994,58.0,78.0
234,55.59360291666666,56.042472437499995,53.0,69.0
235,55.95032041666666,56.31744217708333,62.0,82.0
236,56.30703791666666,56.54039061458333,58.0,76.0
237,56.66375541666666,56.86143636458333,53.0,74.0
238,56.66375541666666,57.07843951041666,58.0,71.0
239,56.66375541666666,57.235989739583324,65.0,76.0
240,57.02047291666666,57.27166148958333,53.0,66.0
241,55.23688541666666,57.549603874999995,46.0,80.0
242,57.37719041666666,57.59716620833333,62.0,78.0
243,58.09062541666666,58.63461960416666,58.0,68.0
244,58.09062541666666,58.72231265625,55.0,75.0
245,58.80406041666666,59.20536760416666,62.0,81.0
246,59.16077791666666,59.30792388541666,58.0,84.0
247,58.44734291666666,59.67950461458333,50.0,66.0
248,59.51749541666666,59.69585416666666,55.0,83.0
249,59.51749541666666,59.75382076041666,67.0,81.0
250,59.87421291666666,60.342404635416656,50.0,61.0
251,60.23093041666666,60.42712504166666,58.0,76.0
252,60.23093041666666,60.49103692708333,62.0,81.0
253,58.09062541666666,60.528195,43.0,78.0
254,60.94436541666666,61.155423270833325,55.0,74.0
255,60.94436541666666,61.42735331041666,60.0,77.0
256,61.30108291666666,61.59956207708333,55.0,69.0
257,61.65745985208333,61.94991784374999,63.0,87.0
258,62.013753852083326,62.41161548541666,55.0,86.0
259,62.370047852083324,62.68477421874999,67.0,81.0
260,60.94436541666666,62.82135358541666,48.0,83.0
261,62.72634185208333,63.006923377083325,55.0,83.0
262,63.08263585208333,63.30086592708333,48.0,85.0
263,63.08263585208333,63.42705338541666,63.0,81.0
264,63.08263585208333,63.428537943749994,60.0,83.0
265,63.43892985208333,63.56957098541666,55.0,83.0
266,63.795223852083325,64.50781185208332,57.0,76.0
267,63.795223852083325,64.50929641041667,53.0,74.0
268,64.50781185208332,64.93091097708333,60.0,82.0
269,64.86410585208333,65.17289398541666,53.0,83.0
270,65.22039985208333,65.56778650208332,57.0,70.0
271,65.22039985208333,65.63756074374999,60.0,81.0
272,65.22039985208333,65.64349897708333,65.0,82.0
273,65.57669385208332,65.98346283541666,53.0,71.0
274,64.15151785208333,66.09480471041667,48.0,69.0
275,63.795223852083325,66.11113485208332,41.0,83.0
276,65.93298785208333,66.14231057708332,57.0,72.0
277,65.93298785208333,66.26404436041666,60.0,76.0
278,66.28928185208332,66.54462588541666,41.0,82.0
279,66.64557585208333,67.08055144375,58.0,82.0
280,67.00186985208333,67.42051530208333,53.0,75.0
281,67.35816385208332,67.72336520208333,58.0,76.0
282,66.64557585208333,67.73375711041666,46.0,84.0
283,67.35816385208332,67.80204679375,62.0,82.0
284,68.07075185208333,68.25335252708332,57.0,75.0
285,68.07075185208333,68.54877963541666,62.0,82.0
286,68.42704585208332,68.83529939374999,57.0,82.0
287,68.07075185208333,68.89171261041666,50.0,81.0
288,68.78333985208333,69.15299487708333,62.0,82.0
289,68.78333985208333,69.16932501874999,65.0,83.0
290,69.49592785208333,69.98880121875,58.0,74.0
291,69.49592785208333,70.11201956041666,55.0,74.0
292,70.20851585208332,70.64794511874999,58.0,72.0
293,70.56480985208333,70.68060540208333,55.0,72.0
294,69.85222185208333,70.74295685208332,50.0,78.0
295,69.49592785208333,70.75483331874999,43.0,83.0
296,70.20851585208332,71.46890587708333,62.0,82.0
297,71.63369185208333,71.95732556875,58.0,79.0
298,71.27739785208333,71.96623291875,50.0,72.0
299,70.92110385208332,72.11914242708333,43.0,83.0
300,71.63369185208333,72.22157695208332,62.0,82.0
301,71.98998585208332,72.41753865208332,55.0,83.0
302,72.34627985208333,72.73968781041665,60.0,78.0
303,72.34627985208333,72.77680176874999,63.0,81.0
304,72.34627985208333,73.01581566041666,36.0,76.0
305,72.70257385208333,73.10043548541665,55.0,81.0
306,73.05886785208332,73.34538761041667,60.0,89.0
307,73.41516185208333,73.55916401041667,55.0,84.0
308,73.77145585208334,74.50482766875,53.0,79.0
309,73.77145585208334,74.51225046041667,57.0,77.0
310,74.12774985208333,74.78540919375,48.0,77.0
311,73.77145585208334,74.83143050208332,41.0,83.0
312,74.48404385208333,74.90268930208333,60.0,85.0
313,74.84033785208332,75.27642831458333,53.0,86.0
314,75.19635722708333,75.59374706874999,58.0,85.0
315,75.55222872708333,75.93775618541666,53.0,83.0
316,75.90810022708332,76.31142126041667,58.0,79.0
317,75.90810022708332,76.33811162291666,65.0,82.0
318,75.19635722708333,76.48046022291666,46.0,84.0
319,76.26397172708333,76.48046022291666,53.0,89.0
320,76.61984322708332,76.81260695625,53.0,83.0
321,76.61984322708332,77.04095783541666,58.0,76.0
322,76.61984322708332,77.08102515416667,62.0,79.0
323,76.97571472708333,77.25513212291666,53.0,83.0
324,77.33251299791667,77.43816765416666,53.0,82.0
325,76.61984322708332,77.47239381041666,46.0,93.0
326,77.33251299791667,77.67923884166666,58.0,87.0
327,77.51108424791667,77.68519121666667,46.0,83.0
328,77.68965549791666,77.91435765416666,53.0,93.0
329,77.86822674791667,78.02150040416666,58.0,88.0
330,78.04679799791667,78.26257159166667,58.0,68.0
331,78.04679799791667,78.27001206041666,62.0,80.0
332,78.04679799791667,78.27150015416666,55.0,76.0
333,78.04679799791667,78.49173802916667,43.0,83.0
334,78.40394049791666,78.52894037291667,55.0,78.0
335,78.40394049791666,78.79530915416666,67.0,81.0
336,78.40394049791666,78.86524956041666,62.0,85.0
337,78.40394049791666,78.88310668541666,58.0,82.0
338,79.11822549791667,79.18221352916666,55.0,80.0
339,78.76108299791666,79.27001106041666,50.0,82.0
340,79.11822549791667,79.56167743541667,58.0,83.0
341,79.29679674791666,79.56911790416666,55.0,87.0
342,79.11822549791667,79.57507027916667,62.0,84.0
343,79.47536799791666,79.96643893541666,43.0,83.0
344,79.83251049791666,80.19858156041667,58.0,87.0
345,79.83251049791666,80.20155774791667,55.0,84.0
346,79.83251049791666,80.25810531041667,62.0,84.0
347,80.18965299791667,80.59441449791666,50.0,82.0
348,80.54679549791666,80.84739043541667,58.0,85.0
349,80.72536674791667,80.88459277916667,53.0,85.0
350,80.54679549791666,80.94560462291666,62.0,84.0
351,80.90393799791667,81.52000881041667,46.0,98.0
352,81.26108049791667,81.68369912291666,62.0,87.0
353,81.26108049791667,81.71048481041666,58.0,87.0
354,81.97536549791667,82.03935352916666,53.0,79.0
355,81.61822299791666,82.05125827916666,41.0,84.0
356,81.97536549791667,82.26851996666666,58.0,91.0
357,81.97536549791667,82.28786518541666,62.0,83.0
358,82.15393674791666,82.30572231041667,53.0,91.0
359,82.68965049791666,82.78637659166667,53.0,83.0
360,82.33250799791666,82.93072168541667,46.0,79.0
361,82.68965049791666,82.94857881041666,58.0,89.0
362,82.86822174791666,83.04976918541666,53.0,86.0
363,82.68965049791666,83.10631674791667,62.0,85.0
364,83.04679299791667,83.46345924791666,41.0,84.0
365,83.40393549791666,83.51107824791666,53.0,86.0
366,83.40393549791666,83.51554252916667,58.0,96.0
367,83.40393549791666,83.63310193541666,62.0,83.0
368,84.11822049791667,84.22238706041666,55.0,83.0
369,83.76107799791666,84.44411302916666,48.0,84.0
370,84.29679174791666,84.61226762291666,55.0,85.0
371,84.11822049791667,84.61821999791667,60.0,87.0
372,84.11822049791667,84.62119618541666,63.0,85.0
373,84.47536299791666,84.86226737291666,43.0,82.0
374,84.83250549791666,84.93071968541666,60.0,83.0
375,84.83250549791666,85.21940987291666,63.0,82.0
376,84.83250549791666,85.33101690416666,55.0,84.0
377,85.54679049791666,85.58399284166666,55.0,71.0
378,85.18964799791667,85.63309993541667,39.0,81.0
379,85.54679049791666,85.81464737291667,58.0,83.0
380,85.54679049791666,85.90393299791667,63.0,82.0
381,85.72536174791666,85.98280196666667,55.0,89.0
382,85.90393299791667,86.24917074791666,46.0,83.0
383,86.26107549791666,86.58547993541666,58.0,88.0
384,86.26107549791666,86.59738468541667,55.0,85.0
385,86.26107549791666,86.60333706041666,63.0,83.0
386,86.97536049791667,87.06464612291666,53.0,83.0
387,86.61821799791666,87.25661021666666,46.0,96.0
388,86.97536049791667,87.39649102916667,58.0,91.0
389,86.97536049791667,87.42030052916667,62.0,83.0
390,87.15393174791666,87.46196715416666,53.0,86.0
391,87.68964549791666,87.84887152916666,53.0,83.0
392,87.33250299791666,87.86821674791666,41.0,84.0
393,87.68964549791666,87.90244290416666,62.0,83.0
394,87.68964549791666,87.91137146666667,58.0,86.0
395,88.04678799791667,88.32208534166666,58.0,73.0
396,88.04678799791667,88.33994246666666,53.0,76.0
397,88.40393049791666,88.47535899791666,53.0,78.0
398,88.40393049791666,88.52148990416666,58.0,83.0
399,88.40393049791666,88.54083512291666,62.0,82.0
400,88.04678799791667,88.64053740416666,46.0,89.0
401,88.58250174791667,88.85184671666666,58.0,75.0
402,88.58250174791667,88.85482290416667,53.0,84.0
403,88.58250174791667,88.86077527916666,62.0,81.0
404,88.76107299791667,89.17327496666667,41.0,86.0
405,89.11821549791667,89.20601302916666,53.0,83.0
406,89.11821549791667,89.22387015416666,58.0,88.0
407,89.11821549791667,89.25065584166666,62.0,85.0
408,89.47535799791666,89.65690543541666,62.0,81.0
409,89.47535799791666,89.70898871666667,58.0,74.0
410,89.47535799791666,89.71047681041667,55.0,76.0
411,89.83250049791667,89.92922659166666,62.0,86.0
412,89.83250049791667,89.93815515416667,58.0,82.0
413,89.83250049791667,89.94708371666667,55.0,82.0
414,89.47535799791666,89.99916699791666,43.0,83.0
415,89.83250049791667,90.06613121666666,67.0,84.0
416,90.01107174791666,90.27744052916667,62.0,83.0
417,90.01107174791666,90.28934527916667,58.0,78.0
418,90.01107174791666,90.29529765416666,55.0,82.0
419,90.18964299791666,90.78636859166666,50.0,81.0
420,90.54678549791666,90.89648752916666,58.0,81.0
421,90.54678549791666,90.90095181041666,55.0,79.0
422,90.54678549791666,90.91880893541666,62.0,83.0
423,91.26107049791666,91.34440374791666,55.0,78.0
424,91.26107049791666,91.36672515416666,58.0,86.0
425,90.90392799791667,91.44559412291666,43.0,84.0
426,91.43964174791667,91.69112959166667,58.0,73.0
427,91.43964174791667,91.71196290416667,55.0,82.0
428,91.26107049791666,91.71345099791667,62.0,83.0
429,91.61821299791666,92.12267677916667,50.0,82.0
430,91.97535549791667,92.12565296666666,55.0,83.0
431,91.97535549791667,92.20452193541666,58.0,93.0
432,91.97535549791667,92.28636709166666,62.0,84.0
433,92.68964049791666,92.77446184166666,53.0,82.0
434,92.68964049791666,92.79231896666667,58.0,89.0
435,92.33249799791666,92.81315227916666,46.0,89.0
436,92.68964049791666,92.83547368541666,62.0,83.0
437,92.86821174791666,92.91434265416666,58.0,62.0
438,92.86821174791666,93.07654487291666,62.0,70.0
439,92.86821174791666,93.13904481041666,53.0,81.0
440,93.40392549791666,93.51106824791665,58.0,86.0
441,93.40392549791666,93.51404443541666,53.0,82.0
442,93.40392549791666,93.53487774791667,62.0,84.0
443,93.04678299791667,93.60184196666665,41.0,82.0
444,94.11821049791666,94.21047231041666,53.0,81.0
445,94.11821049791666,94.24172227916667,58.0,84.0
446,94.11821049791666,94.25957940416666,62.0,83.0
447,94.29678174791667,94.43815065416666,53.0,83.0
448,93.76106799791665,94.45154349791666,46.0,89.0
449,94.29678174791667,94.49172202916667,58.0,78.0
450,94.29678174791667,94.57207909166667,62.0,82.0
451,94.47535299791666,94.93070968541666,41.0,83.0
452,94.83249549791665,95.17475706041667,55.0,79.0
453,94.83249549791665,95.20005465416666,58.0,76.0
454,95.54678049791666,95.65243515416665,55.0,83.0
455,95.18963799791666,95.71939937291666,39.0,87.0
456,95.54678049791666,95.81612546666666,58.0,91.0
457,95.54678049791666,95.83398259166665,63.0,86.0
458,95.72535174791666,96.03189906041666,55.0,83.0
459,95.90392299791667,96.28933927916665,46.0,76.0
460,96.26106549791666,96.50362477916666,58.0,85.0
461,96.26106549791666,96.50660096666667,63.0,83.0
462,96.26106549791666,96.52445809166666,55.0,83.0
463,96.97535049791666,97.05570756041666,55.0,77.0
464,96.97535049791666,97.07207659166666,58.0,89.0
465,96.61820799791667,97.21790977916666,43.0,82.0
466,97.15392174791666,97.41433815416666,58.0,76.0
467,96.97535049791666,97.41731434166667,62.0,82.0
468,97.15392174791666,97.42326671666666,55.0,82.0
469,97.33249299791666,97.80868299791666,50.0,83.0
470,97.68963549791667,97.86820674791666,58.0,91.0
471,97.68963549791667,97.88904006041666,55.0,84.0
472,98.04677799791666,98.29380156041665,53.0,83.0
473,98.04677799791666,98.29975393541666,57.0,83.0
474,98.40392049791666,98.46195615416666,53.0,72.0
475,98.40392049791666,98.50362277916666,57.0,79.0
476,98.04677799791666,98.56612271666665,41.0,83.0
477,98.58249174791666,98.67772974791666,57.0,73.0
478,98.40392049791666,98.89201524791666,60.0,83.0
479,98.58249174791666,98.93963424791666,53.0,87.0
480,99.11820549791666,99.14499118541666,53.0,58.0
481,99.11820549791666,99.32951481041667,57.0,84.0
482,99.11820549791666,99.34588384166666,60.0,83.0
483,99.11820549791666,99.34886002916666,65.0,78.0
484,98.76106299791667,99.40243140416666,48.0,82.0
485,99.47534799791666,99.72385965416666,57.0,82.0
486,99.47534799791666,99.73130012291666,53.0,81.0
487,99.47534799791666,99.73725249791666,60.0,82.0
488,99.83249049791667,99.93814515416666,57.0,72.0
489,99.83249049791667,99.96046656041666,65.0,68.0
490,99.47534799791666,100.05868074791667,41.0,83.0
491,100.01106174791666,100.19409727916667,57.0,65.0
492,99.83249049791667,100.19856156041666,60.0,75.0
493,100.01106174791666,100.27445434166665,53.0,81.0
494,100.18963299791666,100.64052540416667,48.0,87.0
495,100.54677549791666,100.66731109166666,57.0,83.0
496,100.54677549791666,100.73725149791666,53.0,83.0
497,100.54677549791666,100.78040621666666,60.0,83.0
498,101.26106049791666,101.33992946666666,53.0,73.0
499,100.90391799791666,101.39647702916666,46.0,93.0
500,101.26106049791666,101.54528640416666,58.0,79.0
501,101.26106049791666,101.68963149791666,62.0,81.0
502,101.43963174791666,101.74617906041667,53.0,82.0
503,101.61820299791665,102.14796437291666,41.0,83.0
504,101.97534549791666,102.15689293541666,58.0,82.0
505,101.97534549791666,102.15986912291666,53.0,82.0
506,101.97534549791666,102.17623815416667,62.0,80.0
507,102.68963049791665,102.78040421666665,53.0,82.0
508,102.33248799791666,102.92921359166667,46.0,86.0
509,102.68963049791665,102.95599927916666,58.0,89.0
510,102.68963049791665,103.12266577916665,62.0,83.0
511,102.86820174791666,103.13605862291666,53.0,87.0
512,103.04677299791666,103.51998681041667,41.0,83.0
513,103.40391549791666,103.62861765416666,53.0,87.0
514,103.40391549791666,103.69855806041666,58.0,91.0
515,103.40391549791666,103.76105799791667,62.0,83.0
516,104.11820049791666,104.20748612291666,55.0,78.0
517,104.11820049791666,104.22087896666666,58.0,86.0
518,104.11820049791666,104.23575990416666,62.0,83.0
519,103.76105799791667,104.26998606041666,43.0,83.0
520,104.29677174791667,104.48575965416666,62.0,81.0
521,104.29677174791667,104.50808106041666,55.0,82.0
522,104.29677174791667,104.52445009166667,58.0,75.0
523,104.83248549791666,104.91730684166666,55.0,84.0
524,104.47534299791667,105.03486624791665,50.0,83.0
525,104.83248549791666,105.23575890416666,58.0,85.0
526,105.01105674791665,105.27147315416666,55.0,83.0
527,104.83248549791666,105.28337790416666,62.0,83.0
528,105.54677049791667,105.63159184166666,55.0,82.0
529,105.18962799791666,105.70153224791666,43.0,85.0
530,105.54677049791667,105.78932977916666,58.0,96.0
531,105.54677049791667,105.91879393541666,62.0,83.0
532,105.72534174791666,105.96790102916665,55.0,83.0
533,105.90391299791666,106.39200774791667,50.0,83.0
534,106.26105549791666,106.40540059166666,58.0,88.0
535,106.26105549791666,106.43665056041667,55.0,84.0
536,106.26105549791666,106.65242415416665,62.0,84.0
537,106.97534049791666,107.05569756041666,53.0,82.0
538,106.97534049791666,107.08545943541665,57.0,82.0
539,106.97534049791666,107.12414987291666,60.0,82.0
540,106.61819799791667,107.16879268541666,41.0,83.0
541,107.15391174791665,107.22385215416666,60.0,63.0
542,107.15391174791665,107.54528040416666,53.0,88.0
543,107.33248299791666,107.88158959166665,48.0,83.0
544,107.68962549791667,107.97385140416665,57.0,84.0
545,107.68962549791667,108.07355368541667,65.0,82.0
546,107.68962549791667,108.08694652916665,60.0,84.0
547,107.86819674791666,108.10926793541665,53.0,91.0
548,108.04676799791666,108.54676749791666,41.0,83.0
549,108.40391049791666,108.65242215416666,57.0,83.0
550,108.40391049791666,108.66135071666666,60.0,83.0
551,108.58248174791666,108.76402918541666,53.0,85.0
552,108.76105299791666,109.25658821666667,48.0,82.0
553,109.11819549791666,109.35629049791666,57.0,87.0
554,109.29676674791666,109.46492134166667,53.0,85.0
555,109.11819549791666,109.50063559166665,60.0,83.0
556,109.83248049791666,110.07801596666667,58.0,89.0
557,109.47533799791665,110.11075402916666,46.0,84.0
558,109.83248049791666,110.11075402916666,62.0,82.0
559,110.01105174791667,110.18962299791666,53.0,84.0
560,110.18962299791666,110.70152724791666,41.0,83.0
561,110.54676549791665,110.80569381041667,58.0,86.0
562,110.54676549791665,110.87265802916666,62.0,82.0
563,110.72533674791666,110.99319362291666,53.0,85.0
564,110.90390799791666,111.49590061875,46.0,91.0
565,111.26105049791667,111.50480796875,58.0,85.0
566,111.26105049791667,111.56567486041666,62.0,77.0
567,111.43948740208333,111.59833514374999,53.0,83.0
568,111.61763440208333,112.05854822708332,41.0,83.0
569,112.33022240208332,112.61971127708333,58.0,82.0
570,112.33022240208332,112.74738329374999,62.0,83.0
571,112.68651640208333,113.12446111041666,53.0,66.0
572,112.33022240208332,113.29221620208332,46.0,78.0
573,113.04281040208333,113.62772638541666,58.0,86.0
574,113.75539840208333,114.17107473541667,65.0,82.0
575,113.75539840208333,114.18443576041666,58.0,82.0
576,113.39910440208332,114.54963711041665,53.0,64.0
577,114.46798640208333,114.64167972708333,58.0,82.0
578,114.11169240208332,114.74559881041667,46.0,65.0
579,114.46798640208333,114.81537305208333,62.0,82.0
580,115.18057440208332,115.60070441041665,58.0,75.0
581,115.18057440208332,115.96293664375,62.0,79.0
582,115.53686840208333,115.96590576041666,53.0,68.0
583,115.18057440208332,116.16632113541667,46.0,82.0
584,115.89316240208333,116.50183131874999,58.0,83.0
585,116.24945640208333,116.72748418541666,53.0,68.0
586,116.60575040208333,116.94126058541666,65.0,84.0
587,116.60575040208333,116.98282821875,58.0,73.0
588,116.96204440208332,117.43413395208333,46.0,78.0
589,117.31833840208333,117.46382511875,58.0,84.0
590,117.31833840208333,117.68057063541666,62.0,83.0
591,118.03092640208332,118.39018951874999,62.0,82.0
592,118.03092640208332,118.57575931041666,55.0,80.0
593,118.74351440208332,119.07160179374999,58.0,88.0
594,119.09980840208333,119.32843038541667,55.0,80.0
595,118.38722040208333,119.58674353541666,50.0,68.0
596,119.45610240208333,119.69214717708333,55.0,84.0
597,119.45610240208333,119.72777657708333,67.0,81.0
598,119.81239640208332,120.24737199375,50.0,65.0
599,120.16869040208333,120.32753814374999,58.0,83.0
600,120.16869040208333,120.39434326874999,62.0,83.0
601,118.03092640208332,120.61405790208333,43.0,82.0
602,120.52498440208333,120.82338062708332,50.0,79.0
603,120.88127840208332,121.38602823541666,57.0,75.0
604,120.88127840208332,121.41275028541666,60.0,79.0
605,121.59386640208332,121.75865237708332,57.0,78.0
606,121.23757240208333,121.80318912708333,48.0,70.0
607,121.59386640208332,122.01696552708333,65.0,82.0
608,120.88127840208332,122.07634786041666,41.0,82.0
609,121.95016040208333,122.18175150208333,57.0,73.0
610,122.30645440208333,122.67165575208332,60.0,82.0
611,122.30645440208333,122.68650133541666,57.0,78.0
612,122.30645440208333,123.13483795208333,41.0,83.0
613,122.66274840208332,123.13780706874999,48.0,73.0
614,123.01904240208333,123.14226074375,57.0,82.0
615,123.01904240208333,123.22836512708332,60.0,87.0
616,123.01904240208333,123.38721286875,65.0,83.0
617,123.73163040208333,123.98252076041666,58.0,81.0
618,123.73163040208333,124.23341111875,62.0,81.0
619,124.08792440208333,124.34326843541666,58.0,74.0
620,123.73163040208333,124.60158158541665,46.0,81.0
621,124.44421840208332,124.67580950208333,58.0,89.0
622,124.44421840208332,124.78715137708333,62.0,88.0
623,124.80051240208333,124.99944321874999,46.0,75.0
624,125.15680640208333,125.52349231041666,53.0,66.0
625,125.15680640208333,125.54279156874999,57.0,74.0
626,125.86939440208333,125.99558186041666,53.0,83.0
627,125.15680640208333,126.02081935208332,41.0,88.0
628,125.51310040208332,126.07723256874999,48.0,79.0
629,125.86939440208333,126.08020168541665,57.0,86.0
630,125.86939440208333,126.13216122708333,60.0,84.0
631,126.58198240208333,126.89819332708333,62.0,83.0
632,126.58198240208333,126.98429771041666,58.0,83.0
633,126.93827640208333,127.37028287708333,53.0,81.0
634,126.58198240208333,127.64492616874999,46.0,81.0
635,127.29457040208332,127.66570998541667,58.0,91.0
636,127.65086440208333,127.87057903541665,53.0,85.0
637,128.00715840208332,128.63661113541667,57.0,75.0
638,128.00715840208332,128.67224053541665,53.0,76.0
639,128.00715840208332,128.80436622708334,41.0,77.0
640,128.36345240208334,128.82960371874998,48.0,73.0
641,128.71974640208333,128.83554195208333,57.0,70.0
642,128.71974640208333,128.9557911770833,65.0,85.0
643,129.4323344020833,130.00537391875,60.0,82.0
644,129.4323344020833,130.20578929375,67.0,77.0
645,129.78862840208333,130.22657311041667,55.0,84.0
646,129.4323344020833,130.28150176875,48.0,84.0
647,130.14492240208332,130.4834017020833,63.0,98.0
648,130.50121640208332,131.31772348541665,60.0,89.0
649,130.85751040208334,131.49290136874998,69.0,82.0
650,131.57009840208332,131.75566819374998,60.0,84.0
651,131.21380440208333,131.84325713541665,48.0,78.0
652,130.85751040208334,131.90709314375,41.0,83.0
653,131.57009840208332,131.90709314375,65.0,88.0
654,132.28268640208333,132.96706779375,70.0,81.0
655,132.99527440208334,133.39165147708331,65.0,88.0
656,133.35156840208333,133.44658013541667,70.0,85.0
657,132.28268640208333,133.56682936041665,46.0,84.0
658,132.63898040208332,133.57573671041666,53.0,72.0
659,133.70786240208332,133.91421601041665,62.0,72.0
660,133.70786240208332,134.79455910208333,53.0,79.0
661,133.70786240208332,134.79752821875,46.0,76.0
662,135.13303840208332,135.88867859375,58.0,78.0
663,135.48933240208333,135.93766901875,53.0,69.0
664,135.84562640208333,136.21231231041665,62.0,82.0
665,136.20192040208332,136.43499606041667,58.0,76.0
666,136.55821440208334,136.75566066041665,53.0,74.0
667,136.55821440208334,136.97240617708331,58.0,71.0
668,136.55821440208334,137.12976936041667,65.0,76.0
669,136.91450840208333,137.16539876041665,53.0,66.0
670,135.13303840208332,137.44301116875,46.0,80.0
671,137.27080240208332,137.49051703541667,62.0,78.0
672,137.98339040208333,138.52673875208333,58.0,68.0
673,137.98339040208333,138.61432769375,55.0,75.0
674,138.6959784020833,139.09680915208332,62.0,81.0
675,139.05227240208333,139.19924367708333,58.0,84.0
676,138.33968440208332,139.57038326041666,50.0,66.0
677,139.40856640208332,139.58671340208332,55.0,83.0
678,139.40856640208332,139.64461117708333,67.0,81.0
679,139.76486040208334,140.23249627708333,50.0,61.0
680,140.12115440208333,140.31711610208333,58.0,76.0
681,140.12115440208333,140.38095211041667,62.0,81.0
682,137.98339040208333,140.41806606875,43.0,78.0
683,140.83466161041665,141.04597092291664,55.0,74.0
684,140.83466161041665,141.31829207916664,60.0,77.0
685,141.19180411041665,141.49091095416665,55.0,69.0
686,141.54894661041664,141.84210107916664,63.0,87.0
687,141.90608911041664,142.30489823541666,55.0,86.0
688,142.26323161041665,142.57870748541666,67.0,81.0
689,140.83466161041665,142.71561211041666,48.0,83.0
690,142.62037411041663,142.90162382916665,55.0,83.0
691,142.97751661041664,143.19626639166665,48.0,85.0
692,142.97751661041664,143.32275436041664,63.0,81.0
693,142.97751661041664,143.32424245416664,60.0,83.0
694,143.33465911041665,143.46561136041663,55.0,83.0
695,143.69180161041663,144.40608661041665,57.0,76.0
696,143.69180161041663,144.40757470416665,53.0,74.0
697,144.40608661041665,144.83019332916663,60.0,82.0
698,144.76322911041663,145.07275261041664,53.0,83.0
699,145.12037161041664,145.46858554791663,57.0,70.0
700,145.12037161041664,145.53852595416666,60.0,81.0
701,145.12037161041664,145.54447832916665,65.0,82.0
702,145.47751411041665,145.88525179791665,53.0,71.0
703,144.04894411041664,145.99685882916665,48.0,69.0
704,143.69180161041663,146.01322786041663,41.0,83.0
705,145.83465661041666,146.04447782916665,57.0,72.0
706,145.83465661041666,146.16650151666664,60.0,76.0
707,146.19179911041664,146.44775123541663,41.0,82.0
708,146.54894161041665,146.98495307916664,58.0,82.0
709,146.90608411041666,147.32572654791664,53.0,75.0
710,147.26322661041664,147.62929767291664,58.0,76.0
711,146.54894161041665,147.63971432916665,46.0,84.0
712,147.26322661041664,147.70816664166665,62.0,82.0
713,147.97751161041666,148.16054714166665,57.0,75.0
714,147.97751161041666,148.45667779791665,62.0,82.0
715,148.33465411041664,148.74387989166664,57.0,82.0
716,147.97751161041666,148.80042745416665,50.0,81.0
717,148.69179661041665,149.06233195416664,62.0,82.0
718,148.69179661041665,149.07870098541665,65.0,83.0
719,149.40608161041663,149.90012873541664,58.0,74.0
720,149.40608161041663,150.02364051666663,55.0,74.0
721,150.12036661041665,150.56084236041664,58.0,72.0
722,150.47750911041663,150.59358042291666,55.0,72.0
723,149.76322411041664,150.65608036041664,50.0,78.0
724,149.40608161041663,150.66798511041665,43.0,83.0
725,150.12036661041665,151.38375820416664,62.0,82.0
726,151.54893661041663,151.87334104791665,58.0,79.0
727,151.19179411041665,151.88226961041664,50.0,72.0
728,150.83465161041664,152.03554326666665,43.0,83.0
729,151.54893661041663,152.13822173541664,62.0,82.0
730,151.90607911041664,152.33465011041665,55.0,83.0
731,152.26322161041665,152.65756645416664,60.0,78.0
732,152.26322161041665,152.69476879791665,63.0,81.0
733,152.26322161041665,152.93435189166664,36.0,76.0
734,152.62036411041663,153.01917323541664,55.0,81.0
735,152.97750661041664,153.26470870416665,60.0,89.0
736,153.33464911041665,153.47899420416664,55.0,84.0
737,153.69179161041666,154.42690992291665,53.0,79.0
738,153.69179161041666,154.43435039166664,57.0,77.0
739,154.04893411041664,154.70815964166664,48.0,77.0
740,153.69179161041666,154.75429054791664,41.0,83.0
741,154.40607661041665,154.82571904791664,60.0,85.0
742,154.76321911041666,155.20071867291665,53.0,86.0
743,155.12036161041664,155.51917073541665,58.0,85.0
744,155.47750411041665,155.86440848541665,53.0,83.0
745,155.83464661041666,156.23940811041663,58.0,79.0
746,155.83464661041666,156.26619379791666,65.0,82.0
747,155.12036161041664,156.40905079791665,46.0,84.0
748,156.19178911041664,156.40905079791665,53.0,89.0
749,156.54893161041664,156.74238379791666,53.0,83.0
750,156.54893161041664,156.97155023541666,58.0,76.0
751,156.54893161041664,157.01172876666664,62.0,79.0
752,156.90607411041665,157.18583573541665,53.0,83.0
753,157.26321661041663,157.36887126666664,53.0,82.0
754,156.54893161041664,157.40309742291663,46.0,93.0
755,157.26321661041663,157.60994245416663,58.0,87.0
756,157.44178786041664,157.61589482916665,46.0,83.0
757,157.62035911041664,157.84506126666665,53.0,93.0
758,157.79893036041665,157.95220401666666,58.0,88.0
759,157.97750161041665,158.19327520416664,58.0,68.0
760,157.97750161041665,158.20071567291666,62.0,80.0
761,157.97750161041665,158.20220376666663,55.0,76.0
762,157.97750161041665,158.42244164166664,43.0,83.0
763,158.33464411041663,158.45964398541665,55.0,78.0
764,158.33464411041663,158.72601276666666,67.0,81.0
765,158.33464411041663,158.79595317291665,62.0,85.0
766,158.33464411041663,158.81381029791663,58.0,82.0
767,159.04892911041665,159.11291714166663,55.0,80.0
768,158.69178661041664,159.20071467291663,50.0,82.0
769,159.04892911041665,159.49238104791664,58.0,83.0
770,159.22750036041666,159.49982151666666,55.0,87.0
771,159.04892911041665,159.50577389166665,62.0,84.0
772,159.40607161041663,159.89714254791664,43.0,83.0
773,159.76321411041664,160.12928517291664,58.0,87.0
774,159.76321411041664,160.13226136041663,55.0,84.0
775,159.76321411041664,160.18880892291665,62.0,84.0
776,160.12035661041665,160.52511811041666,50.0,82.0
777,160.47749911041666,160.77809404791665,58.0,85.0
778,160.65607036041663,160.81529639166664,53.0,85.0
779,160.47749911041666,160.87630823541664,62.0,84.0
780,160.83464161041664,161.45071242291664,46.0,98.0
781,161.19178411041665,161.61440273541663,62.0,87.0
782,161.19178411041665,161.64118842291663,58.0,87.0
783,161.90606911041664,161.97005714166664,53.0,79.0
784,161.54892661041663,161.98196189166663,41.0,84.0
785,161.90606911041664,162.19922357916664,58.0,91.0
786,161.90606911041664,162.21856879791665,62.0,83.0
787,162.08464036041664,162.23642592291665,53.0,91.0
788,162.62035411041666,162.71708020416665,53.0,83.0
789,162.26321161041665,162.86142529791664,46.0,79.0
790,162.62035411041666,162.87928242291665,58.0,89.0
791,162.79892536041663,162.98047279791663,53.0,86.0
792,162.62035411041666,163.03702036041665,62.0,85.0
793,162.97749661041664,163.39416286041666,41.0,84.0
794,163.33463911041665,163.44178186041665,53.0,86.0
795,163.33463911041665,163.44624614166665,58.0,96.0
796,163.33463911041665,163.56380554791664,62.0,83.0
797,164.04892411041664,164.15309067291665,55.0,83.0
798,163.69178161041665,164.37481664166665,48.0,84.0
799,164.22749536041664,164.54297123541664,55.0,85.0
800,164.04892411041664,164.54892361041664,60.0,87.0
801,164.04892411041664,164.55189979791663,63.0,85.0
802,164.40606661041664,164.79297098541664,43.0,82.0
803,164.76320911041665,164.86142329791664,60.0,83.0
804,164.76320911041665,165.15011348541665,63.0,82.0
805,164.76320911041665,165.26172051666663,55.0,84.0
806,165.47749411041664,165.51469645416665,55.0,71.0
807,165.12035161041663,165.56380354791665,39.0,81.0
808,165.47749411041664,165.74535098541665,58.0,83.0
809,165.47749411041664,165.83463661041665,63.0,82.0
810,165.65606536041665,165.91350557916664,55.0,89.0
811,165.83463661041665,166.17987436041665,46.0,83.0
812,166.19177911041663,166.51618354791665,58.0,88.0
813,166.19177911041663,166.52808829791664,55.0,85.0
814,166.19177911041663,166.53404067291663,63.0,83.0
815,166.90606411041665,166.99534973541665,53.0,83.0
816,166.54892161041664,167.18731382916664,46.0,96.0
817,166.90606411041665,167.32719464166664,58.0,91.0
818,166.90606411041665,167.35100414166664,62.0,83.0
819,167.08463536041666,167.39267076666664,53.0,86.0
820,167.62034911041664,167.77957514166664,53.0,83.0
821,167.26320661041663,167.79892036041664,41.0,84.0
822,167.62034911041664,167.83314651666663,62.0,83.0
823,167.62034911041664,167.84207507916665,58.0,86.0
824,167.97749161041665,168.25278895416665,58.0,73.0
825,167.97749161041665,168.27064607916665,53.0,76.0
826,168.33463411041663,168.40606261041665,53.0,78.0
827,168.33463411041663,168.45219351666665,58.0,83.0
828,168.33463411041663,168.47153873541663,62.0,82.0
829,167.97749161041665,168.57124101666665,46.0,89.0
830,168.51320536041663,168.78255032916664,58.0,75.0
831,168.51320536041663,168.78552651666664,53.0,84.0
832,168.51320536041663,168.79147889166666,62.0,81.0
833,168.69177661041664,169.10397857916664,41.0,86.0
834,169.04891911041665,169.13671664166665,53.0,83.0
835,169.04891911041665,169.15457376666666,58.0,88.0
836,169.04891911041665,169.18135945416665,62.0,85.0
837,169.40606161041666,169.58760904791666,62.0,81.0
838,169.40606161041666,169.63969232916665,58.0,74.0
839,169.40606161041666,169.64118042291665,55.0,76.0
840,169.76320411041664,169.85993020416663,62.0,86.0
841,169.76320411041664,169.86885876666665,58.0,82.0
842,169.76320411041664,169.87778732916664,55.0,82.0
843,169.40606161041666,169.92987061041663,43.0,83.0
844,169.76320411041664,169.99683482916663,67.0,84.0
845,169.94177536041664,170.20814414166665,62.0,83.0
846,169.94177536041664,170.22004889166664,58.0,78.0
847,169.94177536041664,170.22600126666663,55.0,82.0
848,170.12034661041665,170.71707220416664,50.0,81.0
849,170.47748911041663,170.82719114166665,58.0,81.0
850,170.47748911041663,170.83165542291664,55.0,79.0
851,170.47748911041663,170.84951254791665,62.0,83.0
852,171.19177411041665,171.27510736041665,55.0,78.0
853,171.19177411041665,171.29742876666666,58.0,86.0
854,170.83463161041664,171.37629773541664,43.0,84.0
855,171.37034536041665,171.62183320416665,58.0,73.0
856,171.37034536041665,171.64266651666665,55.0,82.0
857,171.19177411041665,171.64415461041665,62.0,83.0
858,171.54891661041665,172.05338039166665,50.0,82.0
859,171.90605911041663,172.05635657916665,55.0,83.0
860,171.90605911041663,172.13522554791663,58.0,93.0
861,171.90605911041663,172.21707070416664,62.0,84.0
862,172.62034411041662,172.70516545416663,53.0,82.0
863,172.62034411041662,172.72302257916664,58.0,89.0
864,172.26320161041664,172.74385589166664,46.0,89.0
865,172.62034411041662,172.76617729791664,62.0,83.0
866,172.79891536041663,172.84504626666666,58.0,62.0
867,172.79891536041663,173.00724848541665,62.0,70.0
868,172.79891536041663,173.06974842291663,53.0,81.0
869,173.33462911041664,173.44177186041665,58.0,86.0
870,173.33462911041664,173.44474804791665,53.0,82.0
871,173.33462911041664,173.46558136041665,62.0,84.0
872,172.97748661041663,173.53254557916665,41.0,82.0
873,174.04891411041663,174.14117592291666,53.0,81.0
874,174.04891411041663,174.17242589166665,58.0,84.0
875,174.04891411041663,174.19028301666663,62.0,83.0
876,174.22748536041664,174.36885426666663,53.0,83.0
877,173.69177161041665,174.38224711041664,46.0,89.0
878,174.22748536041664,174.42242564166665,58.0,78.0
879,174.22748536041664,174.50278270416663,62.0,82.0
880,174.40605661041664,174.86141329791664,41.0,83.0
881,174.76319911041665,175.10546067291665,55.0,79.0
882,174.76319911041665,175.13075826666665,58.0,76.0
883,175.47748411041664,175.58313876666665,55.0,83.0
884,175.12034161041663,175.65010298541665,39.0,87.0
885,175.47748411041664,175.74682907916664,58.0,91.0
886,175.47748411041664,175.76468620416665,63.0,86.0
887,175.65605536041664,175.96260267291663,55.0,83.0
888,175.83462661041665,176.22004289166665,46.0,76.0
889,176.19176911041666,176.43432839166664,58.0,85.0
890,176.19176911041666,176.43730457916664,63.0,83.0
891,176.19176911041666,176.45516170416664,55.0,83.0
892,176.90605411041665,176.98641117291663,55.0,77.0
893,176.90605411041665,177.00278020416664,58.0,89.0
894,176.54891161041664,177.14861339166663,43.0,82.0
895,177.08462536041662,177.34504176666664,58.0,76.0
896,176.90605411041665,177.34801795416664,62.0,82.0
897,177.08462536041662,177.35397032916666,55.0,82.0
898,177.26319661041663,177.73938661041663,50.0,83.0
899,177.62033911041664,177.79891036041664,58.0,91.0
900,177.62033911041664,177.81974367291664,55.0,84.0
901,177.97748161041665,178.22450517291665,53.0,83.0
902,177.97748161041665,178.23045754791664,57.0,83.0
903,178.33462411041666,178.39265976666664,53.0,72.0
904,178.33462411041666,178.43432639166664,57.0,79.0
905,177.97748161041665,178.49682632916665,41.0,83.0
906,178.51319536041663,178.60843336041665,57.0,73.0
907,178.33462411041666,178.82271886041664,60.0,83.0
908,178.51319536041663,178.87033786041664,53.0,87.0
909,179.04890911041664,179.07569479791664,53.0,58.0
910,179.04890911041664,179.26021842291664,57.0,84.0
911,179.04890911041664,179.27658745416664,60.0,83.0
912,179.04890911041664,179.27956364166664,65.0,78.0
913,178.69176661041664,179.33313501666663,48.0,82.0
914,179.40605161041663,179.65456326666663,57.0,82.0
915,179.40605161041663,179.66200373541665,53.0,81.0
916,179.40605161041663,179.66795611041664,60.0,82.0
917,179.76319411041663,179.86884876666664,57.0,72.0
918,179.76319411041663,179.89117017291665,65.0,68.0
919,179.40605161041663,179.98938436041664,41.0,83.0
920,179.94176536041664,180.12480089166664,57.0,65.0
921,179.76319411041663,180.12926517291663,60.0,75.0
922,179.94176536041664,180.20515795416665,53.0,81.0
923,180.12033661041664,180.57122901666665,48.0,87.0
924,180.47747911041665,180.59801470416664,57.0,83.0
925,180.47747911041665,180.66795511041664,53.0,83.0
926,180.47747911041665,180.71110982916665,60.0,83.0
927,181.19176411041664,181.27063307916666,53.0,73.0
928,180.83462161041663,181.32718064166664,46.0,93.0
929,181.19176411041664,181.47599001666663,58.0,79.0
930,181.19176411041664,181.62033511041665,62.0,81.0
931,181.37033536041665,181.67688267291663,53.0,82.0
932,181.54890661041665,182.07866798541664,41.0,83.0
933,181.90604911041663,182.08759654791663,58.0,82.0
934,181.90604911041663,182.09057273541663,53.0,82.0
935,181.90604911041663,182.10694176666664,62.0,80.0
936,182.62033411041665,182.71110782916665,53.0,82.0
937,182.26319161041664,182.85988892083333,46.0,86.0
938,182.62033411041665,182.88661097083332,58.0,89.0
939,182.62033411041665,183.05288150416666,62.0,83.0
940,182.79890536041665,183.06624252916666,53.0,87.0
941,182.97716902916665,183.44925857916664,41.0,83.0
942,183.33346302916664,183.55763133749997,53.0,87.0
943,183.33346302916664,183.62740557916666,58.0,91.0
944,183.33346302916664,183.68975702916666,62.0,83.0
945,184.04605102916665,184.13512452916666,55.0,78.0
946,184.04605102916665,184.14848555416665,58.0,86.0
947,184.04605102916665,184.1633311375,62.0,83.0
948,183.68975702916666,184.19747597916665,43.0,83.0
949,184.22419802916664,184.41273693749997,62.0,81.0
950,184.22419802916664,184.43500531249998,55.0,82.0
951,184.22419802916664,184.45133545416664,58.0,75.0
952,184.75863902916666,184.84325885416666,55.0,84.0
953,184.40234502916664,184.96053896249998,50.0,83.0
954,184.75863902916666,185.1609543375,58.0,85.0
955,184.93678602916665,185.1965837375,55.0,83.0
956,184.75863902916666,185.20846020416664,62.0,83.0
957,185.47122702916664,185.55584685416665,55.0,82.0
958,185.11493302916665,185.6256210958333,43.0,85.0
959,185.47122702916664,185.71321003749998,58.0,96.0
960,185.47122702916664,185.84236661249997,62.0,83.0
961,185.64937402916664,185.89135703749997,55.0,83.0
962,185.82752102916666,186.3144561625,50.0,83.0
963,186.18381502916665,186.3278171875,58.0,88.0
964,186.18381502916665,186.35899291249999,55.0,84.0
965,186.18381502916665,186.5742538708333,62.0,84.0
966,186.89640302916666,186.97656917916666,53.0,82.0
967,186.89640302916666,187.0062603458333,57.0,82.0
968,186.89640302916666,187.04485886249998,60.0,82.0
969,186.54010902916664,187.08939561249997,41.0,83.0
970,187.07455002916666,187.14432427083332,60.0,63.0
971,187.07455002916666,187.4649888708333,53.0,88.0
972,187.25269702916665,187.80049905416666,48.0,83.0
973,187.60899102916665,187.8925416708333,57.0,84.0
974,187.60899102916665,187.99200707916665,65.0,82.0
975,187.60899102916665,188.00536810416665,60.0,84.0
976,187.78713802916664,188.02763647916666,53.0,91.0
977,187.96528502916664,188.46409662916665,41.0,83.0
978,188.32157902916666,188.56950027083332,57.0,83.0
979,188.32157902916666,188.5784076208333,60.0,83.0
980,188.49972602916665,188.6808421458333,53.0,85.0
981,188.67787302916665,189.17223095416665,48.0,82.0
982,189.03416702916664,189.2716963625,57.0,87.0
983,189.21231402916666,189.38006912083333,53.0,85.0
984,189.03416702916664,189.4156985208333,60.0,83.0
985,189.74675502916665,189.99170715416665,58.0,89.0
986,189.39046102916666,190.0243674375,46.0,84.0
987,189.74675502916665,190.0243674375,62.0,82.0
988,189.92490202916665,190.10304902916664,53.0,84.0
989,190.10304902916664,190.61373709583333,41.0,83.0
990,190.45934302916666,190.71765617916665,58.0,86.0
991,190.45934302916666,190.78446130416665,62.0,82.0
992,190.63749002916666,190.90471052916666,53.0,85.0
993,190.81563702916665,191.4064912458333,46.0,91.0
994,191.17193102916664,191.41539859583332,58.0,85.0
995,191.17193102916664,191.47626548749997,62.0,77.0
996,191.35007802916664,191.50892577083332,53.0,83.0
997,191.52822502916666,191.96913885416666,41.0,83.0
998,192.24081302916665,192.4560739875,58.0,68.0
999,192.24081302916665,192.46349677916666,62.0,80.0
1000,192.24081302916665,192.46498133749998,55.0,76.0
1001,192.24081302916665,192.68469597083333,43.0,83.0
1002,192.59710702916664,192.72180992916665,55.0,78.0
1003,192.59710702916664,192.98754587083332,67.0,81.0
1004,192.59710702916664,193.05732011249998,62.0,85.0
1005,192.59710702916664,193.07513481249998,58.0,82.0
1006,193.30969502916665,193.3735310375,55.0,80.0
1007,192.95340102916666,193.46111997916665,50.0,82.0
1008,193.30969502916665,193.7520934125,58.0,83.0
1009,193.48784202916664,193.75951620416666,55.0,87.0
1010,193.30969502916665,193.76545443749998,62.0,84.0
1011,193.66598902916664,194.15589327916666,43.0,83.0
1012,194.02228302916666,194.38748437916666,58.0,87.0
1013,194.02228302916666,194.39045349583333,55.0,84.0
1014,194.02228302916666,194.44686671249997,62.0,84.0
1015,194.37857702916665,194.78237689583332,50.0,82.0
1016,194.73487102916664,195.0347518125,58.0,85.0
1017,194.91301802916666,195.0718657708333,53.0,85.0
1018,194.73487102916664,195.1327326625,62.0,84.0
1019,195.09116502916666,195.70577217916664,46.0,98.0
1020,195.44745902916665,195.86907359583333,62.0,87.0
1021,195.44745902916665,195.89579564583332,58.0,87.0
1022,196.16004702916666,196.22388303749997,53.0,79.0
1023,195.80375302916664,196.23575950416665,41.0,84.0
1024,196.16004702916666,196.4525050208333,58.0,91.0
1025,196.16004702916666,196.47180427916666,62.0,83.0
1026,196.33819402916666,196.48961897916666,53.0,91.0
1027,196.87263502916664,196.96913132083333,53.0,83.0
1028,196.51634102916665,197.11313347916666,46.0,79.0
1029,196.87263502916664,197.13094817916664,58.0,89.0
1030,197.05078202916664,197.23189814583333,53.0,86.0
1031,196.87263502916664,197.2883113625,62.0,85.0
1032,197.22892902916664,197.6446053625,41.0,84.0
1033,197.58522302916666,197.69211122916664,53.0,86.0
1034,197.58522302916666,197.69656490416665,58.0,96.0
1035,197.58522302916666,197.8138450125,62.0,83.0
1036,198.29781102916664,198.4017301125,55.0,83.0
1037,197.94151702916665,198.62292930416666,48.0,84.0
1038,198.47595802916666,198.79068439583332,55.0,85.0
1039,198.29781102916664,198.79662262916665,60.0,87.0
1040,198.29781102916664,198.7995917458333,63.0,85.0
1041,198.65410502916666,199.04009019583333,43.0,82.0
1042,199.01039902916665,199.10837987916665,60.0,83.0
1043,199.01039902916665,199.39638419583332,63.0,82.0
1044,199.01039902916665,199.50772607083331,55.0,84.0
1045,199.72298702916666,199.76010098749998,55.0,71.0
1046,199.36669302916664,199.80909141249998,39.0,81.0
1047,199.72298702916666,199.99020752916664,58.0,83.0
1048,199.72298702916666,200.07928102916665,63.0,82.0
1049,199.90113402916666,200.1579626208333,55.0,89.0
1050,200.07928102916665,200.4236985625,46.0,83.0
1051,200.43557502916664,200.75977794791666,58.0,88.0
1052,200.43557502916664,200.77168269791665,55.0,85.0
1053,200.43557502916664,200.77763507291664,63.0,83.0
1054,201.14965851041666,201.23894413541666,53.0,83.0
1055,200.79251601041665,201.43090822916665,46.0,96.0
1056,201.14965851041666,201.57078904166664,58.0,91.0
1057,201.14965851041666,201.59459854166664,62.0,83.0
1058,201.32822976041663,201.63626516666665,53.0,86.0
1059,201.86394351041665,202.02316954166665,53.0,83.0
1060,201.50680101041664,202.04251476041665,41.0,84.0
1061,201.86394351041665,202.07674091666664,62.0,83.0
1062,201.86394351041665,202.08566947916665,58.0,86.0
1063,202.22108601041666,202.49638335416665,58.0,73.0
1064,202.22108601041666,202.51424047916666,53.0,76.0
1065,202.57822851041664,202.64965701041666,53.0,78.0
1066,202.57822851041664,202.69578791666666,58.0,83.0
1067,202.57822851041664,202.71513313541664,62.0,82.0
1068,202.22108601041666,202.81483541666665,46.0,89.0
1069,202.75679976041664,203.02614472916665,58.0,75.0
1070,202.75679976041664,203.02912091666664,53.0,84.0
1071,202.75679976041664,203.03507329166663,62.0,81.0
1072,202.93537101041665,203.34757297916664,41.0,86.0
1073,203.29251351041665,203.38031104166666,53.0,83.0
1074,203.29251351041665,203.39816816666664,58.0,88.0
1075,203.29251351041665,203.42495385416666,62.0,85.0
1076,203.64965601041663,203.83120344791664,62.0,81.0
1077,203.64965601041663,203.88328672916666,58.0,74.0
1078,203.64965601041663,203.88477482291665,55.0,76.0
1079,204.00679851041664,204.10352460416664,62.0,86.0
1080,204.00679851041664,204.11245316666665,58.0,82.0
1081,204.00679851041664,204.12138172916664,55.0,82.0
1082,203.64965601041663,204.17346501041663,43.0,83.0
1083,204.00679851041664,204.24042922916664,67.0,84.0
1084,204.18536976041665,204.45173854166666,62.0,83.0
1085,204.18536976041665,204.46364329166664,58.0,78.0
1086,204.18536976041665,204.46959566666663,55.0,82.0
1087,204.36394101041665,204.96066660416665,50.0,81.0
1088,204.72108351041663,205.07078554166665,58.0,81.0
1089,204.72108351041663,205.07524982291665,55.0,79.0
1090,204.72108351041663,205.09310694791665,62.0,83.0
1091,205.43536851041665,205.51870176041663,55.0,78.0
1092,205.43536851041665,205.54102316666663,58.0,86.0
1093,205.07822601041664,205.61989213541665,43.0,84.0
1094,205.61393976041666,205.86542760416665,58.0,73.0
1095,205.61393976041666,205.88626091666666,55.0,82.0
1096,205.43536851041665,205.88774901041666,62.0,83.0
1097,205.79251101041666,206.29697479166666,50.0,82.0
1098,206.14965351041664,206.29995097916665,55.0,83.0
1099,206.14965351041664,206.37881994791664,58.0,93.0
1100,206.14965351041664,206.46066510416665,62.0,84.0
1101,206.86393851041666,206.94875985416664,53.0,82.0
1102,206.86393851041666,206.96661697916664,58.0,89.0
1103,206.50679601041665,206.98745029166665,46.0,89.0
1104,206.86393851041666,207.00977169791665,62.0,83.0
1105,207.04250976041664,207.08864066666663,58.0,62.0
1106,207.04250976041664,207.25084288541666,62.0,70.0
1107,207.04250976041664,207.31334282291664,53.0,81.0
1108,207.57822351041665,207.68536626041666,58.0,86.0
1109,207.57822351041665,207.68834244791665,53.0,82.0
1110,207.57822351041665,207.70917576041666,62.0,84.0
1111,207.22108101041664,207.77613997916666,41.0,82.0
1112,208.29250851041664,208.38477032291664,53.0,81.0
1113,208.29250851041664,208.41602029166665,58.0,84.0
1114,208.29250851041664,208.43387741666663,62.0,83.0
1115,208.47107976041664,208.61244866666664,53.0,83.0
1116,207.93536601041666,208.62584151041665,46.0,89.0
1117,208.47107976041664,208.66602004166666,58.0,78.0
1118,208.47107976041664,208.74637710416664,62.0,82.0
1119,208.64965101041665,209.10500769791665,41.0,83.0
1120,209.00679351041666,209.34905507291666,55.0,79.0
1121,209.00679351041666,209.37435266666665,58.0,76.0
1122,209.72107851041665,209.82673316666666,55.0,83.0
1123,209.36393601041664,209.89369738541666,39.0,87.0
1124,209.72107851041665,209.99042347916665,58.0,91.0
1125,209.72107851041665,210.00828060416666,63.0,86.0
1126,209.89964976041665,210.20619707291664,55.0,83.0
1127,210.07822101041666,210.46363729166666,46.0,76.0
1128,210.43536351041664,210.67792279166665,58.0,85.0
1129,210.43536351041664,210.68089897916664,63.0,83.0
1130,210.43536351041664,210.69875610416665,55.0,83.0
1131,211.14964851041665,211.23000557291664,55.0,77.0
1132,211.14964851041665,211.24637460416665,58.0,89.0
1133,210.79250601041664,211.39220779166664,43.0,82.0
1134,211.32821976041666,211.58863616666665,58.0,76.0
1135,211.14964851041665,211.59161235416664,62.0,82.0
1136,211.32821976041666,211.59756472916663,55.0,82.0
1137,211.50679101041663,211.98298101041664,50.0,83.0
1138,211.86393351041664,212.04250476041665,58.0,91.0
1139,211.86393351041664,212.06333807291665,55.0,84.0
1140,212.22107601041665,212.46809957291666,53.0,83.0
1141,212.22107601041665,212.47405194791665,57.0,83.0
1142,212.57821851041663,212.63625416666665,53.0,72.0
1143,212.57821851041663,212.67792079166665,57.0,79.0
1144,212.22107601041665,212.74042072916666,41.0,83.0
1145,212.75678976041664,212.85202776041663,57.0,73.0
1146,212.57821851041663,213.06631326041665,60.0,83.0
1147,212.75678976041664,213.11393226041665,53.0,87.0
1148,213.29250351041665,213.31928919791665,53.0,58.0
1149,213.29250351041665,213.50381282291664,57.0,84.0
1150,213.29250351041665,213.52018185416665,60.0,83.0
1151,213.29250351041665,213.52315804166665,65.0,78.0
1152,212.93536101041664,213.57672941666664,48.0,82.0
1153,213.64964601041663,213.89815766666663,57.0,82.0
1154,213.64964601041663,213.90559813541665,53.0,81.0
1155,213.64964601041663,213.91155051041665,60.0,82.0
1156,214.00678851041664,214.11244316666665,57.0,72.0
1157,214.00678851041664,214.13476457291665,65.0,68.0
1158,213.64964601041663,214.23297876041664,41.0,83.0
1159,214.18535976041665,214.36839529166664,57.0,65.0
1160,214.00678851041664,214.37285957291664,60.0,75.0
1161,214.18535976041665,214.44875235416666,53.0,81.0
1162,214.36393101041665,214.81482341666666,48.0,87.0
1163,214.72107351041666,214.84160910416665,57.0,83.0
1164,214.72107351041666,214.91154951041665,53.0,83.0
1165,214.72107351041666,214.95470422916665,60.0,83.0
1166,215.43535851041665,215.51422747916664,53.0,73.0
1167,215.07821601041664,215.57077504166665,46.0,93.0
1168,215.43535851041665,215.71958441666663,58.0,79.0
1169,215.43535851041665,215.86392951041665,62.0,81.0
1170,215.61392976041665,215.92047707291664,53.0,82.0
1171,215.79250101041666,216.32226238541665,41.0,83.0
1172,216.14964351041664,216.33119094791664,58.0,82.0
1173,216.14964351041664,216.33416713541664,53.0,82.0
1174,216.14964351041664,216.35053616666664,62.0,80.0
1175,216.86392851041666,216.95470222916666,53.0,82.0
1176,216.50678601041665,217.10351160416664,46.0,86.0
1177,216.86392851041666,217.13029729166664,58.0,89.0
1178,216.86392851041666,217.29696379166666,62.0,83.0
1179,217.04249976041666,217.31035663541664,53.0,87.0
1180,217.22107101041664,217.69428482291664,41.0,83.0
1181,217.57821351041665,217.80291566666665,53.0,87.0
1182,217.57821351041665,217.87285607291665,58.0,91.0
1183,217.57821351041665,217.93535601041665,62.0,83.0
1184,218.29249851041664,218.38178413541664,55.0,78.0
1185,218.29249851041664,218.39517697916665,58.0,86.0
1186,218.29249851041664,218.41005791666663,62.0,83.0
1187,217.93535601041665,218.44428407291664,43.0,83.0
1188,218.47106976041664,218.66005766666666,62.0,81.0
1189,218.47106976041664,218.68237907291666,55.0,82.0
1190,218.47106976041664,218.69874810416664,58.0,75.0
1191,219.00678351041665,219.09160485416663,55.0,84.0
1192,218.64964101041664,219.20916426041666,50.0,83.0
1193,219.00678351041665,219.41005691666663,58.0,85.0
1194,219.18535476041666,219.44577116666665,55.0,83.0
1195,219.00678351041665,219.45767591666663,62.0,83.0
1196,219.72106851041664,219.80588985416665,55.0,82.0
1197,219.36392601041663,219.87583026041665,43.0,85.0
1198,219.72106851041664,219.96362779166665,58.0,96.0
1199,219.72106851041664,220.09309194791663,62.0,83.0
1200,219.89963976041665,220.14219904166663,55.0,83.0
1201,220.07821101041665,220.56630576041664,50.0,83.0
1202,220.43535351041663,220.57969860416665,58.0,88.0
1203,220.43535351041663,220.61094857291664,55.0,84.0
1204,220.43535351041663,220.82672216666666,62.0,84.0
1205,221.14963851041665,221.22999557291664,53.0,82.0
1206,221.14963851041665,221.25975744791666,57.0,82.0
1207,221.14963851041665,221.29844788541664,60.0,82.0
1208,220.79249601041664,221.34309069791664,41.0,83.0
1209,221.32820976041666,221.39815016666665,60.0,63.0
1210,221.32820976041666,221.71957841666665,53.0,88.0
1211,221.50678101041666,222.05588760416666,48.0,83.0
1212,221.86392351041664,222.14814941666666,57.0,84.0
1213,221.86392351041664,222.24785169791664,65.0,82.0
1214,221.86392351041664,222.26124454166666,60.0,84.0
1215,222.04249476041664,222.28356594791666,53.0,91.0
1216,222.22106601041665,222.72106551041665,41.0,83.0
1217,222.57820851041663,222.82672016666663,57.0,83.0
1218,222.57820851041663,222.83564872916665,60.0,83.0
1219,222.75677976041663,222.93832719791664,53.0,85.0
1220,222.93535101041664,223.43088622916665,48.0,82.0
1221,223.29249351041665,223.53058851041664,57.0,87.0
1222,223.47106476041665,223.63921935416664,53.0,85.0
1223,223.29249351041665,223.67493360416665,60.0,83.0
1224,224.00677851041664,224.25231397916664,58.0,89.0
1225,223.64963601041666,224.28505204166663,46.0,84.0
1226,224.00677851041664,224.28505204166663,62.0,82.0
1227,224.18534976041664,224.36392101041665,53.0,84.0
1228,224.36392101041665,224.87582526041663,41.0,83.0
1229,224.72106351041666,224.97999182291665,58.0,86.0
1230,224.72106351041666,225.04695604166665,62.0,82.0
1231,224.89963476041663,225.16749163541664,53.0,85.0
1232,225.07820601041664,225.67046732291664,46.0,91.0
1233,225.43534851041665,225.67939588541665,58.0,85.0
1234,225.43534851041665,225.74040772916663,62.0,77.0
1235,225.61391976041665,225.77314579166665,53.0,83.0
1236,225.79249101041665,226.23445485416664,41.0,83.0
1237,226.34754997916664,226.55141882291665,58.0,70.0
1238,226.49933554166665,227.20469197916665,65.0,83.0
1239,226.42641894791666,227.24635860416663,62.0,79.0
1240,226.46808557291664,227.29844188541665,46.0,93.0
1241,226.81332332291663,227.30439426041664,53.0,72.0
1242,227.19427532291664,227.35052516666664,58.0,84.0
1243,227.71510813541664,227.90707222916666,57.0,66.0
1244,227.79546519791666,228.24635760416663,62.0,75.0
1245,227.88028654166664,228.35201226041664,65.0,82.0
1246,227.90111985416664,228.55290491666665,50.0,88.0
1247,228.22552429166666,228.69725001041664,57.0,83.0
1248,228.60350010416664,228.72998807291665,62.0,87.0
1249,229.17492810416664,229.35349935416664,55.0,71.0
1250,229.27314229166666,229.41599929166665,60.0,81.0
1251,229.64070144791665,230.10945097916664,55.0,80.0
1252,230.02462963541666,230.18831994791665,60.0,78.0
1253,229.33713032291664,230.42343876041664,63.0,82.0
1254,229.32671366666665,230.48147441666663,48.0,84.0
1255,230.38177213541664,230.77016460416664,58.0,78.0
1256,231.11093807291664,231.52314004166664,62.0,82.0
1257,230.75974794791665,231.53504479166665,55.0,85.0
1258,230.75677176041665,231.67492560416665,43.0,83.0
1259,231.47552104166664,231.71212794791666,67.0,86.0
1260,232.03355619791665,232.19873460416665,53.0,69.0
1261,232.10944897916664,232.27165119791664,58.0,78.0
1262,232.17641319791665,232.68236507291664,62.0,84.0
1263,232.21361554166666,232.91748388541663,46.0,103.0
1264,232.58861516666664,233.15409079166665,53.0,88.0
1265,232.99486476041665,233.24040022916665,58.0,99.0
1266,233.59159035416664,233.75676876041663,57.0,72.0
1267,233.67492360416665,233.82670916666666,60.0,68.0
1268,233.74039972916665,234.31182772916665,65.0,83.0
1269,233.73444735416663,234.65408929166665,41.0,83.0
1270,234.12879219791665,234.95914851041664,57.0,86.0
1271,234.53504179166663,235.05289841666664,60.0,84.0
1272,234.95914851041664,235.27462438541664,65.0,80.0
1273,235.43980279166664,235.76420722916663,62.0,76.0
1274,235.44873135416663,236.29099241666665,65.0,76.0
1275,236.27015910416665,236.48742079166664,70.0,86.0
1276,236.70319438541665,236.80736094791664,72.0,88.0
1277,237.17789629166663,237.71361004166664,74.0,88.0
1278,237.66301485416665,238.17640719791666,77.0,84.0
1279,235.46658847916666,238.47997832291665,46.0,93.0
1280,235.81629051041665,238.51122829166664,53.0,70.0
1281,238.17194291666664,238.62581151041664,79.0,79.0
1282,239.02759682291665,239.37581076041664,77.0,62.0
1283,239.12878719791664,239.41301310416665,82.0,69.0
1284,239.18235857291666,239.46063210416665,86.0,71.0
1285,238.97104926041663,239.78354844791664,53.0,72.0
1286,238.81628751041666,239.79694129166666,46.0,64.0
