,start,end,pitch,velocity
0,0.503125,2.90625,62.0,46.0
1,0.43125,3.0,57.0,55.0
2,0.5203125000000001,3.465625,50.0,51.0
3,0.5875,3.5265625000000003,65.0,57.0
4,3.5703125,5.8609375,60.0,60.0
5,3.6046875000000003,6.3421875000000005,48.0,71.0
6,3.6546875,6.378125000000001,64.0,22.0
7,3.4921875,6.393750000000001,55.0,44.0
8,6.53125,6.815625000000001,55.0,57.0
9,6.5687500000000005,10.881250000000001,58.0,45.0
10,6.6953125,10.884375,65.0,34.0
11,6.6390625000000005,10.8921875,62.0,50.0
12,6.59375,10.8984375,46.0,68.0
13,11.128125,11.43350060625,55.0,87.0
14,11.128125,11.46800499375,62.0,89.0
15,11.128125,11.5040777625,43.0,102.0
16,11.8804892625,12.53450424375,45.0,105.0
17,11.8804892625,12.5392093875,57.0,92.0
18,11.8804892625,12.5392093875,64.0,97.0
19,11.8804892625,12.54705129375,60.0,87.0
20,12.6333122625,13.025407575,65.0,97.0
21,12.6333122625,13.04265976875,62.0,84.0
22,13.0097237625,13.55081529375,57.0,69.0
23,13.3861352625,13.72333723125,69.0,102.0
24,13.3861352625,13.74843133125,65.0,100.0
25,13.3861352625,13.77666219375,62.0,84.0
26,13.7625467625,14.033876718750001,57.0,40.0
27,13.9507525125,14.16562074375,62.0,89.0
28,13.9507525125,14.17816779375,65.0,89.0
29,14.138958262500001,14.339711062500001,57.0,55.0
30,14.327164012499999,14.6345667375,62.0,94.0
31,12.6333122625,15.090965681250001,38.0,100.0
32,12.6333122625,15.090965681250001,50.0,100.0
33,14.5153697625,15.0988075875,57.0,92.0
34,14.8917812625,15.21643618125,65.0,105.0
35,14.8917812625,15.25407733125,62.0,105.0
36,15.2681927625,15.62107854375,38.0,97.0
37,15.2681927625,15.62107854375,50.0,97.0
38,15.6446042625,16.07277234375,67.0,89.0
39,15.6446042625,16.083751012500002,62.0,78.0
40,15.6446042625,16.51819261875,43.0,92.0
41,15.6446042625,16.51819261875,55.0,92.0
42,16.3974272625,16.76913361875,67.0,105.0
43,16.3974272625,16.783249050000002,62.0,94.0
44,16.3974272625,16.789522575,70.0,102.0
45,16.9620445125,17.18632303125,62.0,84.0
46,16.9620445125,17.19887008125,67.0,94.0
47,17.3384560125,17.44040079375,62.0,94.0
48,17.150250262500002,17.7493719,43.0,49.0
49,17.150250262500002,17.7493719,55.0,49.0
50,17.526661762499998,18.06461653125,62.0,84.0
51,17.9030732625,18.07089005625,43.0,82.0
52,17.9030732625,18.07089005625,55.0,82.0
53,17.526661762499998,18.10539444375,67.0,105.0
54,18.2794847625,18.44730155625,65.0,97.0
55,18.4676905125,18.608844825,64.0,67.0
56,18.6558962625,19.25658628125,65.0,89.0
57,19.0323077625,19.51066404375,53.0,40.0
58,18.6558962625,19.59535663125,34.0,99.0
59,18.6558962625,19.59535663125,46.0,99.0
60,19.4087192625,19.82120353125,62.0,84.0
61,19.4087192625,19.83688734375,58.0,82.0
62,19.4087192625,19.851002774999998,65.0,97.0
63,19.7851307625,20.04548205,34.0,28.0
64,19.7851307625,20.04548205,46.0,28.0
65,19.973336512499998,20.227414275,58.0,85.0
66,19.7851307625,20.2336878,53.0,53.0
67,19.973336512499998,20.26976056875,62.0,89.0
68,19.973336512499998,20.37641049375,65.0,102.0
69,20.537953762500003,21.082182056249998,62.0,97.0
70,20.537953762500003,21.08531881875,58.0,99.0
71,20.537953762500003,21.118254825,65.0,102.0
72,20.9143652625,21.386448018750002,34.0,39.0
73,20.9143652625,21.386448018750002,46.0,39.0
74,21.1025710125,21.551128050000003,53.0,87.0
75,21.290776762500002,21.60131625,58.0,109.0
76,21.4789825125,21.6107265375,62.0,80.0
77,22.0435997625,22.51568251875,52.0,80.0
78,21.667188262499998,22.60037510625,33.0,105.0
79,21.667188262499998,22.60037510625,45.0,105.0
80,22.4200112625,22.755644850000003,61.0,102.0
81,22.4200112625,22.77289704375,57.0,102.0
82,22.4200112625,22.78858085625,64.0,94.0
83,22.984628512500002,23.138329875,62.0,97.0
84,22.984628512500002,23.160287212500002,57.0,100.0
85,23.1728342625,23.38142896875,33.0,51.0
86,23.1728342625,23.38142896875,45.0,51.0
87,23.3610400125,23.7311779875,57.0,94.0
88,23.3610400125,23.76411399375,61.0,105.0
89,23.7374515125,23.986824131250003,52.0,92.0
90,23.9256572625,24.14993578125,57.0,111.0
91,23.9256572625,24.170324737500003,61.0,102.0
92,23.9256572625,24.182871787499998,64.0,102.0
93,24.1138630125,24.3083422875,52.0,71.0
94,23.5492457625,24.3836245875,33.0,82.0
95,23.5492457625,24.3836245875,45.0,82.0
96,24.3020687625,24.52007375625,57.0,114.0
97,24.678480262500003,25.183499025000003,62.0,105.0
98,24.678480262500003,25.18977255,57.0,105.0
99,24.678480262500003,25.5787311,38.0,94.0
100,24.678480262500003,25.5787311,50.0,94.0
101,25.431303262500002,25.79046256875,62.0,111.0
102,25.431303262500002,25.810851525,57.0,111.0
103,25.431303262500002,25.84378753125,65.0,111.0
104,25.9959205125,26.180989500000003,64.0,102.0
105,25.9959205125,26.187263025,57.0,105.0
106,26.372332012500003,26.638956825,57.0,105.0
107,26.372332012500003,26.71894426875,62.0,105.0
108,26.372332012500003,26.811478762500002,65.0,102.0
109,26.7487435125,26.85696181875,57.0,89.0
110,25.807714762499998,27.19259540625,38.0,78.0
111,25.807714762499998,27.19259540625,50.0,78.0
112,26.9369492625,27.325907812500002,57.0,108.0
113,26.9369492625,27.3855063,62.0,108.0
114,27.3133607625,27.501566512500002,38.0,94.0
115,27.3133607625,27.501566512500002,50.0,94.0
116,27.501566512500002,27.58469071875,57.0,108.0
117,27.6897722625,28.07088890625,58.0,72.0
118,27.6897722625,28.14303444375,55.0,82.0
119,28.0661837625,28.52728785,38.0,62.0
120,28.0661837625,28.52728785,50.0,62.0
121,28.4425952625,28.6998097875,62.0,97.0
122,28.4425952625,28.73588255625,58.0,109.0
123,28.4425952625,28.8315538125,55.0,100.0
124,28.8190067625,29.11229405625,38.0,43.0
125,28.8190067625,29.11229405625,50.0,43.0
126,29.0072125125,29.24403808125,55.0,97.0
127,29.0072125125,29.2769740875,67.0,94.0
128,29.195418262500002,29.422833543750002,38.0,62.0
129,29.195418262500002,29.422833543750002,50.0,62.0
130,29.3836240125,29.6220179625,62.0,102.0
131,29.3836240125,29.625154725,55.0,108.0
132,29.571829762500002,30.09410071875,38.0,82.0
133,29.571829762500002,30.09410071875,50.0,82.0
134,29.9482412625,30.252507225000002,55.0,84.0
135,29.9482412625,30.265054275,58.0,96.0
136,29.9482412625,30.313674093750002,62.0,97.0
137,27.6897722625,30.392093156250002,31.0,74.0
138,27.6897722625,30.392093156250002,43.0,105.0
139,30.3246527625,30.47678574375,50.0,82.0
140,30.7010642625,31.28763885,62.0,97.0
141,30.7010642625,31.30802780625,58.0,90.0
142,31.0774757625,31.57465261875,53.0,34.0
143,31.4538872625,31.7738370375,65.0,105.0
144,31.4538872625,31.8302987625,62.0,92.0
145,31.4538872625,31.8930340125,58.0,79.0
146,31.8302987625,32.14868015625,53.0,33.0
147,32.0185045125,32.383937343750006,58.0,90.0
148,32.0185045125,32.50313431875,62.0,100.0
149,32.5831217625,32.87013553125,58.0,102.0
150,32.394916012500005,33.0316788,53.0,94.0
151,30.7010642625,33.1226449125,34.0,96.0
152,30.7010642625,33.1226449125,46.0,96.0
153,32.9595332625,33.25282055625,62.0,97.0
154,32.9595332625,33.2857565625,58.0,90.0
155,32.9595332625,33.3422182875,65.0,105.0
156,33.335944762500006,33.47866745625,34.0,99.0
157,33.335944762500006,33.47866745625,46.0,99.0
158,33.7123562625,34.24717426875,61.0,77.0
159,33.7123562625,34.27383675,64.0,94.0
160,33.7123562625,34.280110275,57.0,97.0
161,34.4651792625,34.63613281875,57.0,111.0
162,34.4651792625,34.650248250000004,69.0,100.0
163,34.841590762500005,35.11919424375,57.0,97.0
164,34.653385012499996,35.14115158125,52.0,73.0
165,33.7123562625,35.145856725,33.0,100.0
166,33.7123562625,35.145856725,45.0,100.0
167,35.0297965125,35.1615405375,61.0,87.0
168,35.2180022625,36.55583146875,57.0,92.0
169,35.2180022625,36.55583146875,61.0,85.0
170,35.2180022625,36.56210499375,64.0,92.0
171,35.2180022625,36.57465204375,33.0,97.0
172,35.2180022625,36.57465204375,45.0,97.0
173,36.72364826250001,37.473784704166675,65.0,94.0
174,37.10090865416667,37.6279697375,57.0,60.0
175,37.47850465416667,38.05905850416667,62.0,102.0
176,37.856100654166674,38.37529515416667,57.0,73.0
177,38.23369665416667,38.79379738750001,62.0,105.0
178,38.23369665416667,38.97315548750001,69.0,94.0
179,38.611292654166675,39.03608815416667,57.0,47.0
180,36.72364826250001,39.053394637500006,38.0,92.0
181,36.72364826250001,39.053394637500006,50.0,92.0
182,38.98888865416667,39.07856770416667,65.0,84.0
183,38.98888865416667,39.12576720416667,62.0,87.0
184,39.74408065416667,40.53860557083334,58.0,61.0
185,39.74408065416667,40.57164522083334,55.0,69.0
186,40.12167665416667,40.63615120416667,50.0,45.0
187,40.499272654166674,41.01060057083334,62.0,100.0
188,40.87686865416667,41.37403672083334,50.0,52.0
189,41.254464654166675,42.060002787500004,55.0,78.0
190,41.254464654166675,42.067869370833336,67.0,94.0
191,42.009656654166676,42.29600028750001,58.0,99.0
192,39.74408065416667,42.321173354166675,31.0,97.0
193,39.74408065416667,42.321173354166675,43.0,97.0
194,41.63206065416667,42.41871898750001,50.0,52.0
195,42.38725265416667,42.49738482083334,55.0,49.0
196,42.009656654166676,42.500531454166676,62.0,92.0
197,42.76484865416667,43.36585562083334,61.0,55.0
198,42.76484865416667,43.55465362083334,57.0,87.0
199,43.142444654166674,43.64747930416667,52.0,64.0
200,43.52004065416667,43.8252640875,64.0,108.0
201,44.27523265416667,44.67957503750001,55.0,89.0
202,44.27523265416667,44.79914710416667,61.0,85.0
203,45.03042465416667,45.33879472083334,64.0,89.0
204,45.03042465416667,45.39543412083334,57.0,94.0
205,44.65282865416667,45.40015407083334,49.0,57.0
206,43.897636654166675,45.65975132083334,52.0,76.0
207,42.76484865416667,45.74943037083334,33.0,94.0
208,42.76484865416667,45.74943037083334,45.0,94.0
209,45.785616654166674,45.92249520416667,57.0,62.0
210,45.785616654166674,46.581714887500006,65.0,92.0
211,46.16321265416667,46.63835428750001,57.0,73.0
212,46.540808654166675,47.13704219583334,62.0,84.0
213,46.91840465416667,47.361601650000004,57.0,80.0
214,47.295647125,47.93320753333334,65.0,94.0
215,47.672530125,48.13578214583333,57.0,69.0
216,45.785616654166674,48.5864714,38.0,92.0
217,45.785616654166674,48.5864714,50.0,92.0
218,48.049413125,48.61159693333334,64.0,97.0
219,48.426296125,48.67755145833333,57.0,92.0
220,48.803179125,49.03087927083334,57.0,92.0
221,49.180062125,49.613477575000005,57.0,69.0
222,48.803179125,49.613477575000005,62.0,84.0
223,49.556945125,50.141113775,65.0,100.0
224,49.933828125000005,50.16780965416667,57.0,97.0
225,50.310711125000005,50.47873812916667,57.0,111.0
226,50.310711125000005,50.94513084166667,64.0,94.0
227,51.064477125,51.130431650000006,64.0,78.0
228,50.687594125000004,51.235644820833336,57.0,62.0
229,48.803179125,51.30159934583334,38.0,100.0
230,48.803179125,51.30159934583334,50.0,100.0
231,51.441360125,51.65963819583334,33.0,102.0
232,51.441360125,51.65963819583334,45.0,102.0
233,51.064477125,51.68947476666667,62.0,117.0
234,51.818243125,52.347449670833335,58.0,46.0
235,51.818243125,52.581431200000004,55.0,78.0
236,52.195126125,52.766732008333335,50.0,60.0
237,53.137333625000004,53.2362654125,55.0,1.0
238,52.948892125,53.51107593333334,50.0,60.0
239,52.572009125,53.8675444375,62.0,94.0
240,53.325775125,53.90366239166667,67.0,97.0
241,51.818243125,54.34492957083334,31.0,102.0
242,51.818243125,54.34492957083334,43.0,102.0
243,53.702658125,54.37947717916667,50.0,28.0
244,54.079541125000006,54.586762829166666,58.0,87.0
245,54.079541125000006,54.61345870833333,67.0,92.0
246,54.079541125000006,54.69040565416667,62.0,97.0
247,54.456424125000005,54.70767945833334,31.0,100.0
248,54.456424125000005,54.70767945833334,43.0,100.0
249,54.833307125000005,55.03431139166667,55.0,84.0
250,55.210190125000004,55.59021381666667,55.0,66.0
251,54.833307125000005,55.593354508333334,60.0,94.0
252,55.587073125,56.21207076666667,64.0,102.0
253,55.963956125,56.21835215,55.0,73.0
254,56.340839125,56.54498408333333,55.0,87.0
255,56.340839125,56.84177944583334,60.0,92.0
256,56.717722125,56.968977458333335,55.0,64.0
257,57.094605125,57.22023279166667,55.0,102.0
258,54.833307125000005,57.232795558333336,36.0,89.0
259,54.833307125000005,57.232795558333336,48.0,89.0
260,57.094605125,57.23750659583334,60.0,102.0
261,57.094605125,57.26734316666667,64.0,102.0
262,57.848371125,58.3336079875,62.0,94.0
263,57.848371125,58.46551703750001,67.0,100.0
264,58.602137125,58.745038595833336,62.0,114.0
265,58.225254125000006,58.862814533333335,57.0,71.0
266,57.848371125,58.86438487916667,38.0,102.0
267,57.848371125,58.86438487916667,50.0,102.0
268,58.979020125000005,59.59459569166667,62.0,102.0
269,58.979020125000005,59.80188134166667,66.0,105.0
270,59.732786125000004,60.02644079583334,62.0,76.0
271,58.979020125000005,60.20546022083334,57.0,100.0
272,58.979020125000005,60.2274450625,38.0,100.0
273,58.979020125000005,60.2274450625,50.0,100.0
274,60.486552125,61.40206374583334,57.0,84.0
275,60.486552125,61.79779089583334,62.0,97.0
276,60.486552125,61.824486775000004,65.0,108.0
277,61.994084125,62.239058075,62.0,92.0
278,61.617201125,62.545275512500005,57.0,89.0
279,60.486552125,62.57197139166667,38.0,102.0
280,60.486552125,62.57197139166667,50.0,102.0
281,62.37096712500001,62.89546263333334,69.0,100.0
282,62.37096712500001,62.915877129166674,65.0,105.0
283,62.37096712500001,62.95199508333334,62.0,92.0
284,63.124733125000006,63.31003393333334,62.0,100.0
285,63.124733125000006,63.31160427916667,65.0,111.0
286,63.124733125000006,63.354003616666674,69.0,111.0
287,62.747850125,63.52517131250001,57.0,78.0
288,62.747850125,63.594266529166674,50.0,67.0
289,63.501616125,63.77328595416667,62.0,84.0
290,63.501616125,63.79527079583333,67.0,89.0
291,63.878499125000005,64.30877388333334,62.0,87.0
292,63.878499125000005,64.32447734166666,65.0,94.0
293,64.25538212500001,64.75161140833333,57.0,78.0
294,64.632265125,65.12535371666667,62.0,105.0
295,64.632265125,65.1551902875,65.0,102.0
296,65.009148125,65.5085181,57.0,84.0
297,65.386031125,65.82886865,65.0,100.0
298,65.386031125,65.8618459125,62.0,100.0
299,65.76291412500001,66.22302545416667,57.0,71.0
300,63.878499125000005,66.3800600375,50.0,105.0
301,66.139797125,66.47114009583333,62.0,105.0
302,66.139797125,66.56379050000001,65.0,105.0
303,64.0716516625,66.57478292083334,38.0,93.0
304,66.51668012500001,66.667433325,57.0,100.0
305,66.893563125,67.06630116666668,55.0,82.0
306,66.893563125,67.270446125,62.0,87.0
307,66.893563125,67.31284546250001,58.0,85.0
308,67.270446125,67.5925155625,55.0,62.0
309,67.64758164583333,67.70107441249999,55.0,27.0
310,67.64758164583333,68.07237714583333,67.0,94.0
311,67.64758164583333,68.0928302625,58.0,102.0
312,67.64758164583333,68.16205619583333,62.0,102.0
313,68.02517764583334,68.27533499583333,55.0,71.0
314,66.893563125,68.59943822916667,43.0,100.0
315,68.40277364583334,68.77092974583333,55.0,92.0
316,67.08671566250001,68.79295617916667,31.0,88.0
317,68.40277364583334,68.8574621625,58.0,102.0
318,68.40277364583334,68.9141015625,62.0,102.0
319,68.96916764583334,69.09503297916666,55.0,92.0
320,68.78036964583333,69.29484419583333,50.0,89.0
321,68.97388759583333,69.48836214583334,38.0,77.0
322,69.15796564583333,69.49622872916666,55.0,102.0
323,69.15796564583333,69.5135352125,58.0,105.0
324,69.15796564583333,69.78571899583334,62.0,105.0
325,69.53556164583333,69.82033196249999,43.0,105.0
326,69.72435964583333,69.8344918125,55.0,105.0
327,69.72907959583333,70.01384991249999,31.0,93.0
328,69.91315764583334,70.11611549583333,55.0,94.0
329,69.91315764583334,70.38043269583333,60.0,97.0
330,70.29075364583333,70.43549877916666,55.0,58.0
331,69.91315764583334,70.89805387916667,48.0,111.0
332,70.66834964583333,70.90749377916667,55.0,108.0
333,70.10667559583334,71.09157182916667,36.0,99.0
334,70.66834964583333,71.14349127916667,64.0,92.0
335,71.23474364583333,71.33700922916667,55.0,92.0
336,71.04594564583333,71.33858254583333,48.0,76.0
337,71.23946359583333,71.5336738125,36.0,64.0
338,71.42354164583332,71.64223266249999,55.0,94.0
339,71.42354164583332,71.88767006249999,60.0,102.0
340,71.80113764583334,71.9301496125,55.0,100.0
341,72.17873364583333,72.36123837916666,55.0,100.0
342,71.42354164583332,72.41945109583334,48.0,92.0
343,72.17873364583333,72.43046431249999,60.0,111.0
344,72.17873364583333,72.53430321249999,64.0,102.0
345,71.61705959583333,72.6145423625,36.0,80.0
346,72.55632964583333,72.69635482916667,55.0,92.0
347,72.93392564583333,73.12587027916666,57.0,102.0
348,72.93392564583333,73.37602762916667,62.0,102.0
349,73.31152164583334,73.48615979583333,57.0,82.0
350,73.68911764583333,73.82599619583333,57.0,105.0
351,73.68911764583333,74.27439144583333,62.0,108.0
352,74.06671364583333,74.35935054583334,57.0,76.0
353,73.68911764583333,74.35935054583334,65.0,100.0
354,74.44430964583333,74.6299610125,57.0,105.0
355,74.44430964583333,74.8423587625,64.0,102.0
356,74.82190564583333,74.9178779625,57.0,82.0
357,75.01070364583333,75.1019560125,57.0,97.0
358,75.01070364583333,75.11454254583333,65.0,105.0
359,75.19950164583334,75.43864577916666,57.0,111.0
360,75.19950164583334,75.47797869583333,65.0,105.0
361,75.57709764583333,75.82857579166667,57.0,111.0
362,75.57709764583333,75.85684201666666,64.0,108.0
363,72.93392564583333,75.88510824166667,50.0,94.0
364,73.12744359583333,76.07826077916667,38.0,82.0
365,75.95420345833332,76.15834841666667,57.0,94.0
366,75.95420345833332,76.46299550833334,62.0,84.0
367,76.33108645833333,76.5368017625,57.0,87.0
368,75.95420345833332,76.80690124583333,50.0,97.0
369,76.70796945833334,76.8759964625,57.0,111.0
370,76.14735599583334,77.00005378333333,38.0,85.0
371,76.70796945833334,77.21990219999999,62.0,108.0
372,76.70796945833334,77.22618358333334,65.0,105.0
373,77.08485245833333,77.32506817083333,57.0,80.0
374,77.46134605833333,77.70413999583334,57.0,89.0
375,77.46134605833333,78.03465303333334,62.0,87.0
376,77.46134605833333,78.29624392083333,50.0,67.0
377,77.83728505833334,78.31817369583334,57.0,87.0
378,78.21322405833334,78.48264700833334,62.0,100.0
379,77.65401479583333,78.48891265833333,38.0,55.0
380,78.21322405833334,78.63302260833333,65.0,102.0
381,78.58916305833334,78.71134323333334,57.0,80.0
382,78.96510205833334,79.36297083333334,58.0,72.0
383,78.96510205833334,79.46008840833333,62.0,94.0
384,78.96510205833334,79.55720598333333,55.0,80.0
385,79.71698005833333,79.89085184583334,55.0,87.0
386,79.34104105833333,79.89398467083333,50.0,73.0
387,78.96510205833334,80.07882134583333,43.0,102.0
388,79.53370979583333,80.08821982083333,38.0,61.0
389,79.71698005833333,80.20100152083334,58.0,99.0
390,79.71698005833333,80.21979847083334,62.0,100.0
391,79.15777079583334,80.27149008333333,31.0,90.0
392,80.09291905833334,80.70068710833334,50.0,62.0
393,80.46885805833334,80.78057414583334,55.0,102.0
394,80.28558779583334,80.89335584583334,38.0,50.0
395,80.46885805833334,81.00143830833333,62.0,105.0
396,80.46885805833334,81.00457113333334,67.0,97.0
397,80.46885805833334,81.10952077083334,58.0,109.0
398,80.84479705833334,81.11265359583334,55.0,82.0
399,81.22073605833334,81.63583537083333,62.0,108.0
400,81.22073605833334,81.64210102083334,58.0,109.0
401,81.59667505833333,81.85043388333334,55.0,89.0
402,81.97261405833333,82.52555767083334,58.0,96.0
403,81.97261405833333,82.54435462083333,62.0,92.0
404,82.34855305833334,82.92655927083334,53.0,30.0
405,81.97261405833333,82.95945393333334,46.0,96.0
406,82.16528279583333,83.15368908333333,34.0,84.0
407,82.72449205833334,83.34949064583334,58.0,102.0
408,82.72449205833334,83.36202194583333,62.0,100.0
409,83.10043105833334,83.36672118333334,46.0,90.0
410,82.72449205833334,83.36828759583334,65.0,87.0
411,83.29309979583334,83.55938992083334,34.0,78.0
412,83.47637005833334,83.75519148333333,58.0,87.0
413,83.47637005833334,84.05124344583334,65.0,87.0
414,83.47637005833334,84.08727093333334,62.0,82.0
415,83.85230905833333,84.10920070833333,58.0,70.0
416,83.47637005833334,84.41935038333334,46.0,96.0
417,84.22824805833334,84.55719468333334,58.0,112.0
418,84.22824805833334,84.60262064583334,62.0,108.0
419,83.66903879583333,84.61201912083334,34.0,84.0
420,84.22824805833334,84.66527714583334,65.0,100.0
421,84.60418705833334,84.75612907083334,46.0,77.0
422,84.79685579583334,84.95036422083334,34.0,65.0
423,84.98012605833334,85.46728034583333,64.0,82.0
424,84.98012605833334,85.47354599583333,60.0,80.0
425,85.35606505833334,85.89491095833334,55.0,76.0
426,84.98012605833334,85.92310638333333,48.0,111.0
427,85.73200405833333,86.09384534583333,60.0,108.0
428,85.73200405833333,86.10950947083333,64.0,117.0
429,85.17279479583334,86.11577512083333,36.0,99.0
430,85.73200405833333,86.12674000833334,67.0,111.0
431,86.10794305833333,86.38049883333333,55.0,80.0
432,86.48388205833334,86.89114930833334,72.0,92.0
433,86.48388205833334,86.94127450833334,67.0,105.0
434,86.48388205833334,86.98200123333334,64.0,105.0
435,86.48388205833334,86.99296612083333,60.0,100.0
436,86.48388205833334,87.06658750833334,48.0,108.0
437,86.85982105833334,87.08851728333333,55.0,73.0
438,86.67655079583334,87.25925624583334,36.0,96.0
439,87.23576005833334,87.47855399583334,60.0,89.0
440,87.23576005833334,87.74171129583334,48.0,108.0
441,87.23576005833334,87.83256322083334,64.0,102.0
442,87.23576005833334,87.84039528333334,67.0,100.0
443,87.61169905833333,87.87485635833333,60.0,102.0
444,87.42842879583334,87.93438003333334,36.0,96.0
445,87.98763805833333,88.80217255833334,64.0,97.0
446,87.98763805833333,88.83976645833334,67.0,97.0
447,87.98763805833333,88.84289928333334,60.0,84.0
448,87.98763805833333,88.88832524583333,48.0,105.0
449,88.73951605833334,88.96038022083334,55.0,57.0
450,88.18030679583333,89.08099398333334,36.0,93.0
451,89.11545505833334,89.94095444583334,64.0,102.0
452,89.11545505833334,89.95661857083334,60.0,102.0
453,89.11545505833334,89.95661857083334,67.0,97.0
454,89.86733305833334,90.39208124583334,55.0,69.0
455,90.24327205833333,90.41714384583334,60.0,102.0
456,90.24327205833333,90.42184308333334,64.0,102.0
457,89.11545505833334,90.42967514583333,48.0,105.0
458,90.24327205833333,90.47040187083334,67.0,100.0
459,89.30812379583334,90.62234388333334,36.0,93.0
460,90.61921105833333,90.77271948333333,48.0,100.0
461,90.81187979583333,90.96538822083333,36.0,88.0
462,90.99515005833334,91.99765405833334,50.0,105.0
463,91.74702805833334,91.99765405833334,57.0,62.0
464,90.99515005833334,92.00391970833334,62.0,97.0
465,90.99515005833334,92.05091208333334,67.0,97.0
466,91.18781879583334,92.19032279583334,38.0,93.0
467,92.12296705833333,93.02365424583334,62.0,108.0
468,92.12296705833333,93.05968173333333,66.0,109.0
469,92.87484505833334,93.34476880833333,57.0,92.0
470,92.12296705833333,93.39019477083333,50.0,102.0
471,93.25078405833334,93.43248790833334,62.0,102.0
472,93.25078405833334,93.45755050833334,66.0,112.0
473,92.31563579583333,93.58442992083334,38.0,90.0
474,93.62672305833334,94.88917328333334,62.0,105.0
475,93.62672305833334,94.92823578333334,65.0,114.0
476,95.12979828333333,95.34073578333333,62.0,71.0
477,94.75454005833333,95.66417328333334,57.0,94.0
478,93.62672305833334,95.69854828333334,50.0,108.0
479,93.81939179583334,95.89073578333334,38.0,96.0
480,95.50479828333333,95.90011078333333,65.0,64.0
481,95.50479828333333,95.92667328333333,62.0,66.0
482,96.25479828333333,96.40948578333334,65.0,111.0
483,96.25479828333333,96.41886078333333,62.0,105.0
484,96.25479828333333,96.44073578333334,69.0,114.0
485,95.87979828333333,96.52354828333334,50.0,89.0
486,96.07198578333333,96.71573578333333,38.0,77.0
487,96.44229828333333,96.72979828333334,57.0,97.0
488,96.62979828333333,96.92042328333334,62.0,100.0
489,96.87354828333334,97.32198578333333,55.0,57.0
490,96.92198578333334,97.53761078333334,58.0,85.0
491,97.00479828333333,97.55636078333333,62.0,87.0
492,97.31729828333333,98.68448578333333,50.0,52.0
493,98.09542328333333,99.05948578333333,67.0,92.0
494,98.06729828333333,99.07042328333334,58.0,82.0
495,98.08917328333334,99.07667328333334,62.0,73.0
496,97.70011078333333,99.09229828333334,55.0,100.0
497,99.24386078333333,99.42979828333334,58.0,99.0
498,99.25323578333334,99.48604828333333,55.0,92.0
499,98.88448578333333,99.53136078333334,50.0,34.0
500,99.24698578333333,99.55792328333334,62.0,97.0
501,96.97823578333333,99.79229828333334,43.0,100.0
502,99.83448578333334,100.22042328333333,55.0,51.0
503,100.01104828333334,101.40792328333333,64.0,94.0
504,99.91104828333333,101.74386078333333,60.0,78.0
505,101.11261078333334,101.78604828333333,55.0,73.0
506,101.87198578333333,102.30552230208333,65.0,102.0
507,102.25229763958333,102.67183321458333,64.0,105.0
508,99.99698578333333,102.72505787708333,48.0,87.0
509,102.62330484583333,102.81272202708332,60.0,100.0
510,103.01309722708334,103.53282040208333,53.0,71.0
511,103.00057377708333,103.76920052083332,57.0,89.0
512,104.10576823958333,105.03833240208333,60.0,97.0
513,103.00996636458333,105.31383599583333,41.0,89.0
514,103.71597585833332,105.31383599583333,53.0,102.0
515,103.29644028333333,105.37680824583333,48.0,60.0
516,105.26818111458333,105.66333198333334,65.0,102.0
517,105.89947792083333,106.32296630208333,58.0,59.0
518,106.02542242083334,106.39381008333334,62.0,82.0
519,106.72284008958333,107.00149229583333,58.0,36.0
520,106.32454060833334,107.38719732708333,53.0,37.0
521,107.10382220208334,107.48008139583334,70.0,77.0
522,107.11799095833334,107.61547173333334,62.0,100.0
523,107.11484234583334,108.06729762708333,58.0,72.0
524,107.90042116458334,108.39632763333333,53.0,53.0
525,105.99078768333334,108.40262485833334,46.0,105.0
526,108.25306576458334,108.40262485833334,62.0,100.0
527,108.24676853958333,108.44670543333334,58.0,96.0
528,108.24361992708333,108.46559710833333,69.0,100.0
529,108.87806534583333,109.51880798958334,55.0,82.0
530,109.08744807708334,109.76754837708333,67.0,92.0
531,109.03549597083334,109.77384560208333,62.0,100.0
532,108.93001745208333,109.81162895208334,58.0,40.0
533,109.79746019583334,109.96433665833334,55.0,80.0
534,110.17214508333333,110.58146470833333,57.0,108.0
535,109.41175516458334,111.06005380833334,50.0,67.0
536,110.52478968333334,111.08996562708333,58.0,112.0
537,110.88688012083334,111.68977630833334,62.0,94.0
538,109.03392166458333,111.73385688333333,43.0,102.0
539,111.25526778333334,111.77951176458333,50.0,60.0
540,112.79179068333333,113.05942274583333,58.0,116.0
541,113.16175265208334,113.38058122083334,58.0,90.0
542,113.17592140833334,113.40104720208333,62.0,89.0
543,112.41395718333334,114.38341430208334,53.0,84.0
544,114.30784760208334,114.45740669583333,62.0,87.0
545,112.06288688958334,114.46370392083334,46.0,105.0
546,114.30469898958333,114.48731851458334,58.0,68.0
547,114.31729343958334,114.57075674583334,65.0,97.0
548,114.95488747083334,115.54367800833333,55.0,57.0
549,115.02415694583334,115.90419413958334,61.0,63.0
550,115.13120977083334,115.90576844583333,64.0,71.0
551,115.82233021458333,116.15136022083334,55.0,111.0
552,116.24109567708334,116.64569238333334,55.0,89.0
553,116.22692692083334,117.47850038958333,61.0,82.0
554,115.43347657083334,117.64537685208333,52.0,87.0
555,115.08712919583334,117.81382762083334,45.0,100.0
556,117.85161097083333,118.23259308333334,57.0,58.0
557,118.02321035208334,118.60570366458333,64.0,67.0
558,117.92402905833333,118.92862327083334,61.0,77.0
559,118.10035135833334,118.96492373958334,69.0,89.0
560,118.81508639583333,119.05488577083334,55.0,87.0
561,118.43567858958333,119.34686780208334,52.0,78.0
562,118.08618260208334,119.86927889583333,45.0,100.0
563,119.21113561458334,120.15968264583334,61.0,105.0
564,119.21587045833334,120.19282655208333,64.0,105.0
565,119.94977123958334,120.24333155208333,57.0,60.0
566,120.40747280208333,120.95829295833333,57.0,89.0
567,120.38695514583334,120.95829295833333,61.0,96.0
568,120.39326827083333,120.95829295833333,64.0,92.0
569,120.39958139583334,120.95829295833333,69.0,87.0
570,121.13979530208334,121.89126805833334,65.0,94.0
571,121.51815747708335,122.04555007083334,57.0,60.0
572,121.89599097708334,122.47690998333334,62.0,102.0
573,122.27382447708334,122.79334553958334,57.0,73.0
574,122.65165797708335,123.21211100208335,62.0,105.0
575,122.65165797708335,123.39158191458334,69.0,94.0
576,123.02949147708334,123.45455416458334,57.0,47.0
577,121.13979530208334,123.47187153333334,38.0,92.0
578,121.13979530208334,123.47187153333334,50.0,92.0
579,123.40732497708335,123.49706043333335,65.0,84.0
580,123.40732497708335,123.54428962083334,62.0,87.0
581,124.16299197708335,124.95801663333334,58.0,61.0
582,124.16299197708335,124.99107706458335,55.0,69.0
583,124.54082547708335,125.05562362083334,50.0,45.0
584,124.91865897708334,125.43030850833334,62.0,100.0
585,125.29649247708335,125.79397325208335,50.0,52.0
586,125.67432597708334,126.48037077708335,55.0,78.0
587,125.67432597708334,126.48824230833334,67.0,94.0
588,126.42999297708334,126.71651671458335,58.0,99.0
589,124.16299197708335,126.74170561458334,31.0,97.0
590,124.16299197708335,126.74170561458334,43.0,97.0
591,126.05215947708335,126.83931260208334,50.0,52.0
592,126.80782647708334,126.91802791458335,55.0,49.0
593,126.42999297708334,126.92117652708335,62.0,92.0
594,127.18565997708335,127.78704496458334,61.0,55.0
595,127.18565997708335,127.97596171458335,57.0,87.0
596,127.56349347708334,128.06884578333336,52.0,64.0
597,127.94132697708335,128.24674238958335,64.0,108.0
598,128.69699397708334,129.10159068333334,55.0,89.0
599,128.69699397708334,129.22123795833335,61.0,85.0
600,129.45266097708335,129.76122500208334,64.0,89.0
601,129.45266097708335,129.81790002708334,57.0,94.0
602,129.07482747708335,129.82262294583336,49.0,57.0
603,128.31916047708336,130.08238347708334,52.0,76.0
604,127.18565997708335,130.17211893333334,33.0,94.0
605,127.18565997708335,130.17211893333334,45.0,94.0
606,130.20832797708334,130.34529262083333,57.0,62.0
607,130.20832797708334,131.00492693958336,65.0,92.0
608,130.58616147708335,131.06160196458333,57.0,73.0
609,130.96399497708336,131.56065704583335,62.0,84.0
610,131.34182847708334,131.78578283958333,57.0,80.0
611,131.71966197708335,132.35883031458334,65.0,94.0
612,132.09749547708336,132.56191582083335,57.0,69.0
613,130.20832797708334,133.01374171458335,38.0,92.0
614,130.20832797708334,133.01374171458335,50.0,92.0
615,132.47532897708334,133.03893061458334,64.0,97.0
616,132.85316247708334,133.10505147708335,57.0,92.0
617,133.23099597708335,133.45927038333335,57.0,92.0
618,133.60882947708333,134.04333800208335,57.0,69.0
619,133.23099597708335,134.04333800208335,62.0,84.0
620,133.98666297708334,134.57230490208335,65.0,100.0
621,134.36449647708335,134.59906810833334,57.0,97.0
622,134.74232997708336,134.91078074583334,57.0,111.0
623,134.74232997708336,135.37834970208334,64.0,94.0
624,135.49799697708335,135.56411783958333,64.0,78.0
625,135.12016347708334,135.66959635833334,57.0,62.0
626,133.23099597708335,135.73571722083335,38.0,100.0
627,133.23099597708335,135.73571722083335,50.0,100.0
628,135.87583047708335,136.09465904583334,33.0,102.0
629,135.87583047708335,136.09465904583334,45.0,102.0
630,135.49799697708335,136.12457086458335,62.0,117.0
631,136.25366397708333,136.78420518333334,58.0,46.0
632,136.25366397708333,137.01877681458333,55.0,78.0
633,136.63149747708334,137.20454495208335,50.0,60.0
634,137.57608122708334,137.67526252083334,55.0,1.0
635,137.38716447708333,137.95076611458336,50.0,60.0
636,137.00933097708335,138.30813363333334,62.0,94.0
637,137.76499797708334,138.34434267708335,67.0,97.0
638,136.25366397708333,138.78672273333333,31.0,102.0
639,136.25366397708333,138.78672273333333,43.0,102.0
640,138.14283147708335,138.82135747083333,50.0,28.0
641,138.52066497708336,139.02916589583333,58.0,87.0
642,138.52066497708336,139.05592910208335,67.0,92.0
643,138.52066497708336,139.13307010833336,62.0,97.0
644,138.89849847708334,139.15038747708334,31.0,100.0
645,138.89849847708334,139.15038747708334,43.0,100.0
646,139.27633197708334,139.47784317708334,55.0,84.0
647,139.65416547708335,140.03514758958335,55.0,66.0
648,139.27633197708334,140.03829620208336,60.0,94.0
649,140.03199897708333,140.65857286458333,64.0,102.0
650,140.40983247708334,140.66487008958336,55.0,73.0
651,140.78758285208335,140.99198537291667,55.0,87.0
652,140.78758285208335,141.28915519166668,60.0,92.0
653,141.16494135208333,141.41651368541667,55.0,64.0
654,141.54229985208335,141.66808601875,55.0,102.0
655,139.27633197708334,141.68066463541666,36.0,89.0
656,139.27633197708334,141.68066463541666,48.0,89.0
657,141.54229985208335,141.68538161666666,60.0,102.0
658,141.54229985208335,141.71525583125,64.0,102.0
659,142.29701685208335,142.78286592083333,62.0,94.0
660,142.29701685208335,142.91494139583332,67.0,100.0
661,143.05173385208334,143.19481561666666,62.0,114.0
662,142.67437535208333,143.31274014791666,57.0,71.0
663,142.29701685208335,143.314312475,38.0,102.0
664,142.29701685208335,143.314312475,50.0,102.0
665,143.42873747708333,144.04277117708332,62.0,102.0
666,143.42873747708333,144.24953762708333,66.0,105.0
667,144.18061547708334,144.47353461458331,62.0,76.0
668,143.42873747708333,144.65210563958334,57.0,100.0
669,143.42873747708333,144.67403541458333,38.0,100.0
670,143.42873747708333,144.67403541458333,50.0,100.0
671,144.9324934770833,145.84571196458333,57.0,84.0
672,144.9324934770833,146.2404479145833,62.0,97.0
673,144.9324934770833,146.26707692708334,65.0,108.0
674,146.43624947708332,146.68060982708332,62.0,92.0
675,146.06031047708333,146.98606026458333,57.0,89.0
676,144.9324934770833,147.01268927708333,38.0,102.0
677,144.9324934770833,147.01268927708333,50.0,102.0
678,146.81218847708334,147.33537025208332,69.0,100.0
679,146.81218847708334,147.35573361458333,65.0,105.0
680,146.81218847708334,147.39176110208334,62.0,92.0
681,147.56406647708332,147.74890315208333,62.0,100.0
682,147.56406647708332,147.75046956458334,65.0,111.0
683,147.56406647708332,147.79276270208334,69.0,111.0
684,147.18812747708333,147.96350166458333,57.0,78.0
685,147.18812747708333,148.03242381458332,50.0,67.0
686,147.94000547708333,148.21099483958332,62.0,84.0
687,147.94000547708333,148.23292461458334,67.0,89.0
688,148.31594447708332,148.74514150208333,62.0,87.0
689,148.31594447708332,148.76080562708333,65.0,94.0
690,148.69188347708334,149.1868698270833,57.0,78.0
691,149.06782247708333,149.55967600208334,62.0,105.0
692,149.06782247708333,149.58943783958333,65.0,102.0
693,149.4437614770833,149.9418806520833,57.0,84.0
694,149.81970047708333,150.26142880208332,65.0,100.0
695,149.81970047708333,150.29432346458333,62.0,100.0
696,150.19563947708332,150.65459833958332,57.0,71.0
697,148.31594447708332,150.81123958958332,50.0,105.0
698,150.57157847708334,150.90209151458333,62.0,105.0
699,150.57157847708334,150.99450985208333,65.0,105.0
700,148.50861321458333,151.00547473958332,38.0,93.0
701,150.94751747708332,151.0978930770833,57.0,100.0
702,151.3234564770833,151.49576185208332,55.0,82.0
703,151.3234564770833,151.69939547708333,62.0,87.0
704,151.3234564770833,151.74168861458332,58.0,85.0
705,151.69939547708333,152.0205100395833,55.0,62.0
706,152.07533447708332,152.12859250208334,55.0,27.0
707,152.07533447708332,152.49826585208334,67.0,94.0
708,152.07533447708332,152.5186292145833,58.0,102.0
709,152.07533447708332,152.58755136458333,62.0,102.0
710,152.45127347708333,152.70033306458333,55.0,71.0
711,151.3234564770833,153.02301403958333,43.0,100.0
712,152.82721247708332,153.19375300208333,55.0,92.0
713,151.51612521458333,153.21568277708332,31.0,88.0
714,152.82721247708332,153.27990568958333,58.0,102.0
715,152.82721247708332,153.33629653958332,62.0,102.0
716,153.39112097708332,153.51643397708332,55.0,92.0
717,153.20315147708334,153.71536836458333,50.0,89.0
718,153.39582021458332,153.9080371020833,38.0,77.0
719,153.57909047708333,153.9158691645833,55.0,102.0
720,153.57909047708333,153.93309970208333,58.0,105.0
721,153.57909047708333,154.20408906458331,62.0,105.0
722,153.95502947708331,154.23855013958334,43.0,105.0
723,154.14299897708332,154.25264785208333,55.0,105.0
724,154.14769821458333,154.43121887708332,31.0,93.0
725,154.33096847708333,154.53303568958333,55.0,94.0
726,154.33096847708333,154.79619298958332,60.0,97.0
727,154.70690747708332,154.85101742708332,55.0,58.0
728,154.33096847708333,155.31154270208333,48.0,111.0
729,155.08284647708334,155.3209411770833,55.0,108.0
730,154.52363721458332,155.50421143958332,36.0,99.0
731,155.08284647708334,155.55590305208332,64.0,92.0
732,155.64675497708333,155.74857178958334,55.0,92.0
733,155.45878547708332,155.75013820208332,48.0,76.0
734,155.65145421458334,155.94437335208332,36.0,64.0
735,155.8347244770833,156.0524558145833,55.0,94.0
736,155.8347244770833,156.29681616458333,60.0,102.0
737,156.21066347708333,156.33910930208333,55.0,100.0
738,156.58673236875,156.76877866041667,55.0,100.0
739,155.8347244770833,156.82684515,48.0,92.0
740,156.58673236875,156.83783070208332,60.0,111.0
741,156.58673236875,156.94140876458331,64.0,102.0
742,156.02739321458333,157.02144635833332,36.0,80.0
743,156.96337986875,157.10305331666666,55.0,92.0
744,157.34002736875,157.53148984791665,57.0,102.0
745,157.34002736875,157.78101881666666,62.0,102.0
746,157.71667486875,157.89087433749998,57.0,82.0
747,158.09332236875,158.2298570875,57.0,105.0
748,158.09332236875,158.67712599375,62.0,108.0
749,158.46996986874998,158.76187168125,57.0,76.0
750,158.09332236875,158.76187168125,65.0,100.0
751,158.84661736875,159.03180238958333,57.0,105.0
752,158.84661736875,159.2436666083333,64.0,102.0
753,159.22326486875,159.31899610833332,57.0,82.0
754,159.41158861875,159.50261176458332,57.0,97.0
755,159.41158861875,159.51516668124998,65.0,105.0
756,159.59991236874998,159.83845578541667,57.0,111.0
757,159.59991236874998,159.8776899,65.0,105.0
758,159.97655986875,160.22765820208332,57.0,111.0
759,159.97655986875,160.25590676458333,64.0,108.0
760,157.34002736875,160.28415532708334,50.0,94.0
761,157.5330592125,160.47718717083333,38.0,82.0
762,160.35320736875,160.55722476458334,57.0,94.0
763,160.35320736875,160.86168149374998,62.0,84.0
764,160.72985486874998,160.93544162916666,57.0,87.0
765,160.35320736875,161.2053723375,50.0,97.0
766,161.10650236875,161.27442437916665,57.0,111.0
767,160.54623921249998,161.39840418125,38.0,85.0
768,161.10650236875,161.61811522291666,62.0,108.0
769,161.10650236875,161.62439268125,65.0,105.0
770,161.48314986875,161.72326264999998,57.0,80.0
771,161.85979736874998,162.10304887916666,57.0,89.0
772,161.85979736874998,162.43435053124998,62.0,87.0
773,161.85979736874998,162.69676389375,50.0,67.0
774,162.23644486875,162.71876261875,57.0,87.0
775,162.61348300625,162.88375305625,62.0,100.0
776,162.0528292125,162.89003840625,38.0,55.0
777,162.61348300625,163.03460145625,65.0,102.0
778,162.99060400624998,163.11316833125,57.0,80.0
779,163.36772500625,163.76684473125,58.0,72.0
780,163.36772500625,163.86426765624998,62.0,94.0
781,163.36772500625,163.96169058125,55.0,80.0
782,164.12196700624997,164.29638546874997,55.0,87.0
783,163.74484600625,164.29952814375,50.0,73.0
784,163.36772500625,164.48494596875,43.0,102.0
785,163.93812051875,164.49437399374997,38.0,61.0
786,164.12196700624997,164.60751029374998,58.0,99.0
787,164.12196700624997,164.62636634375,62.0,100.0
788,163.56099951874998,164.67822048124998,31.0,90.0
789,164.49908800625,165.10876695624998,50.0,62.0
790,164.87620900624998,165.18890516874998,55.0,102.0
791,164.69236251874997,165.30204146875,38.0,50.0
792,164.87620900624998,165.41046375624998,62.0,105.0
793,164.87620900624998,165.41360643124997,67.0,97.0
794,164.87620900624998,165.51888604374997,58.0,109.0
795,165.25333000625,165.52202871875,55.0,82.0
796,165.63045100624998,166.04685544375,62.0,108.0
797,165.63045100624998,166.05314079374998,58.0,109.0
798,166.00757200624997,166.26212868124998,55.0,89.0
799,166.38469300625,166.93937514375,58.0,96.0
800,166.38469300625,166.95823119374998,62.0,92.0
801,166.76181400624998,167.34163754374998,53.0,30.0
802,166.38469300625,167.37463563125,46.0,96.0
803,166.57796751874997,167.56948148125,34.0,84.0
804,167.13893500625,167.76589866875,58.0,102.0
805,167.13893500625,167.77846936875,62.0,100.0
806,167.51605600624998,167.78318338124998,46.0,90.0
807,167.13893500625,167.78475471874998,65.0,87.0
808,167.70933051875,167.97645789375,34.0,78.0
809,167.89317700625,168.17287508125,58.0,87.0
810,167.89317700625,168.46985786874998,65.0,87.0
811,167.89317700625,168.50599863124998,62.0,82.0
812,168.27029800625,168.52799735624998,58.0,70.0
813,167.89317700625,168.83912218125,46.0,96.0
814,168.64741900624998,168.97739988125,58.0,112.0
815,168.64741900624998,169.02296866875,62.0,108.0
816,168.08645151874998,169.03239669374997,34.0,84.0
817,168.64741900624998,169.08582216874998,65.0,100.0
818,169.02454000625,169.17695974375,46.0,77.0
819,169.21781451874998,169.37180559375,34.0,65.0
820,169.40166100624998,169.89034696874998,64.0,82.0
821,169.40166100624998,169.89663231875,60.0,80.0
822,169.77878200625,170.31932210624998,55.0,76.0
823,169.40166100624998,170.34760618125,48.0,111.0
824,170.15590300624999,170.51888196874998,60.0,108.0
825,170.15590300624999,170.53459534375,64.0,117.0
826,169.59493551875,170.54088069374998,36.0,99.0
827,170.15590300624999,170.55188005624998,67.0,111.0
828,170.53302400624997,170.80643673125,55.0,80.0
829,170.91014500625,171.31869275625,72.0,92.0
830,170.91014500625,171.36897555624998,67.0,105.0
831,170.91014500625,171.40983033125,64.0,105.0
832,170.91014500625,171.42082969375,60.0,100.0
833,170.91014500625,171.49468255624998,48.0,108.0
834,171.28726600624998,171.51668128125,55.0,73.0
835,171.10341951874997,171.68795706875,36.0,96.0
836,171.66438700625,171.90794431875,60.0,89.0
837,171.66438700625,172.17192901874998,48.0,108.0
838,171.66438700625,172.26306659374998,64.0,102.0
839,171.66438700625,172.27092328125,67.0,100.0
840,172.04150800624998,172.30549270625,60.0,102.0
841,171.85766151874998,172.36520353125,36.0,96.0
842,172.41862900625,173.23572450625,64.0,97.0
843,172.41862900625,173.27343660625,67.0,97.0
844,172.41862900625,173.27657928124998,60.0,84.0
845,172.41862900625,173.32214806874998,48.0,105.0
846,173.17287100624998,173.39442959374998,55.0,57.0
847,172.61190351874998,173.51542258125,36.0,93.0
848,173.54999200625,174.37808686875,64.0,102.0
849,173.54999200625,174.39380024374998,60.0,102.0
850,173.54999200625,174.39380024374998,67.0,97.0
851,174.30423400625,174.83063206875,55.0,69.0
852,174.68135500625,174.85577346875,60.0,102.0
853,174.68135500625,174.86048748124998,64.0,102.0
854,173.54999200625,174.86834416874999,48.0,105.0
855,174.68135500625,174.90919894375,67.0,100.0
856,173.74326651874998,175.06161868125,36.0,93.0
857,175.05847600624998,175.21246708125,48.0,100.0
858,175.25175051875,175.40574159374998,36.0,88.0
859,176.16626894375,176.34854409374998,57.0,57.0
860,176.56067465625,177.12949883124998,57.0,102.0
861,176.56067465625,177.48619244374999,65.0,97.0
862,177.28820391874999,177.50661983125,57.0,87.0
863,177.68418096874998,177.82088733125,57.0,102.0
864,178.05815929374998,178.42270959374997,57.0,92.0
865,177.69046631875,178.44942233125,65.0,102.0
866,175.43559700625,178.46513570624998,38.0,102.0
867,178.45256500624998,178.46513570624998,38.0,92.0
868,178.45256500624998,179.20209299375,65.0,94.0
869,178.82968600624997,179.35608406875,57.0,60.0
870,179.20680700625,179.78663054375,62.0,102.0
871,179.58392800624998,180.10246938125,57.0,73.0
872,179.96104900625,180.52044515625,62.0,105.0
873,179.96104900625,180.69957763124998,69.0,94.0
874,180.33817000624998,180.76243113125,57.0,47.0
875,178.45256500624998,180.77971584374998,50.0,92.0
876,180.71529100625,180.80485724374998,65.0,84.0
877,180.71529100625,180.85199736874998,62.0,87.0
878,181.46953300624997,182.26305844375,58.0,61.0
879,181.46953300624997,182.29605653124997,55.0,69.0
880,181.84665400625,182.36048136875,50.0,45.0
881,182.22377500624998,182.73445969374998,62.0,100.0
882,182.60089600625,183.09743865624998,50.0,52.0
883,182.97801700624998,183.78254180624998,55.0,78.0
884,182.97801700624998,183.79039849375,67.0,94.0
885,183.73225900625,184.01824243124997,58.0,99.0
886,181.46953300624997,184.04338383125,31.0,97.0
887,181.46953300624997,184.04338383125,43.0,97.0
888,183.35513800625,184.14080675625,50.0,52.0
889,184.10938000624998,184.21937363125,55.0,49.0
890,183.73225900625,184.22251630625,62.0,92.0
891,184.48650100625,185.08675193124998,61.0,55.0
892,184.48650100625,185.27531243124997,57.0,87.0
893,184.86362200624998,185.36802134375,52.0,64.0
894,185.24074300625,185.54558248125,64.0,108.0
895,185.99498500624998,186.39881874374998,55.0,89.0
896,185.99498500624998,186.51824039374998,61.0,85.0
897,186.74922700624998,187.05720915625,64.0,89.0
898,186.74922700624998,187.11377730624997,57.0,94.0
899,186.37210600625,187.11849131875,49.0,57.0
900,185.61786400625,187.37776200624998,52.0,76.0
901,184.48650100625,187.46732824375,33.0,94.0
902,184.48650100625,187.46732824375,45.0,94.0
903,187.50346900625,187.64017536875,57.0,62.0
904,187.50346900625,188.29856578124998,65.0,92.0
905,187.88059000624997,188.35513393124998,57.0,73.0
906,188.25771100625,188.85324791875,62.0,84.0
907,188.63483200624998,189.07794918124998,57.0,80.0
908,189.01195300625,189.64991603124997,65.0,94.0
909,189.38907400624998,189.85261856875,57.0,69.0
910,187.50346900625,190.30359243125,38.0,92.0
911,187.50346900625,190.30359243125,50.0,92.0
912,189.76619500624997,190.32873383125,64.0,97.0
913,190.14331600625,190.39473000624997,57.0,92.0
914,190.52043700624998,190.74828094375,57.0,92.0
915,190.89755800625,191.33124715625,57.0,69.0
916,190.52043700624998,191.33124715625,62.0,84.0
917,191.27467900624998,191.85921655624998,65.0,100.0
918,191.65180000625,191.88592929375,57.0,97.0
919,192.02892100625,192.19705411874997,57.0,111.0
920,192.02892100625,192.66374135625,64.0,94.0
921,192.78316300625,192.84915918125,64.0,78.0
922,192.40604200624998,192.95443879375,57.0,62.0
923,190.52043700624998,193.02043496874998,38.0,100.0
924,190.52043700624998,193.02043496874998,50.0,100.0
925,193.16028400624998,193.37869991875,33.0,102.0
926,193.16028400624998,193.37869991875,45.0,102.0
927,192.78316300625,193.40855533125,62.0,117.0
928,193.53740500625,194.06694574374998,58.0,46.0
929,193.53740500625,194.30107503124998,55.0,78.0
930,193.91452600625,194.48649285624998,50.0,60.0
931,194.85732850624998,194.95632276875,55.0,1.0
932,194.66876800625,195.23130683124998,50.0,60.0
933,194.29164700625,195.58800044375,62.0,94.0
934,195.04588900624998,195.62414120625,67.0,97.0
935,193.53740500625,196.06568704375,31.0,102.0
936,193.53740500625,196.06568704375,43.0,102.0
937,195.42301000625,196.10025646875,50.0,28.0
938,195.80013100624998,196.30767301875,58.0,87.0
939,195.80013100624998,196.33438575625,67.0,92.0
940,195.80013100624998,196.41138129375,62.0,97.0
941,196.17725200625,196.42866600624998,31.0,100.0
942,196.17725200625,196.42866600624998,43.0,100.0
943,196.55437300625,196.75550420624998,55.0,84.0
944,196.93149400624998,197.31175768125,55.0,66.0
945,196.55437300625,197.31490035624998,60.0,94.0
946,197.30861500625,197.93400733124997,64.0,102.0
947,197.68573600624998,197.94029268124999,55.0,73.0
948,198.06285700625,198.26713088124998,55.0,87.0
949,198.06285700625,198.56411366875,60.0,92.0
950,198.43997800625,198.69139200625,55.0,64.0
951,198.81709900624998,198.94280600624998,55.0,102.0
952,196.55437300625,198.95537670624998,36.0,89.0
953,196.55437300625,198.95537670624998,48.0,89.0
954,198.81709900624998,198.96009071875,60.0,102.0
955,198.81709900624998,198.98994613124998,64.0,102.0
956,199.57134100624998,200.05688429375,62.0,94.0
957,199.57134100624998,200.18887664374998,67.0,100.0
958,200.32558300624999,200.46857471874998,62.0,114.0
959,199.94846200625,200.58642503124997,57.0,71.0
960,199.57134100624998,200.58799636875,38.0,102.0
961,199.57134100624998,200.58799636875,50.0,102.0
962,200.70270400624997,201.31866830625,62.0,102.0
963,200.70270400624997,201.52608485624998,66.0,105.0
964,201.45694600624998,201.75078611875,62.0,76.0
965,200.70270400624997,201.92991859375,57.0,100.0
966,200.70270400624997,201.95191731875,38.0,100.0
967,200.70270400624997,201.95191731875,50.0,100.0
968,202.21118800624998,203.12727776875,57.0,84.0
969,202.21118800624998,203.52325481875,62.0,97.0
970,202.21118800624998,203.54996755624998,65.0,108.0
971,203.71967200625,203.96480065625,62.0,92.0
972,203.34255100625,204.27121146874998,57.0,89.0
973,202.21118800624998,204.29792420625,38.0,102.0
974,202.21118800624998,204.29792420625,50.0,102.0
975,204.09679300624998,204.62161973124998,69.0,100.0
976,204.09679300624998,204.64204711874999,65.0,105.0
977,204.09679300624998,204.67818788124998,62.0,92.0
978,204.85103500625,205.03645283125,62.0,100.0
979,204.85103500625,205.03802416874998,65.0,111.0
980,204.85103500625,205.08045028125,69.0,111.0
981,204.47391400624997,205.25172606874997,57.0,78.0
982,204.47391400624997,205.32086491874998,50.0,67.0
983,205.22815600625,205.49999739375,62.0,84.0
984,205.22815600625,205.52199611875,67.0,89.0
985,205.60527700625,206.03582348125,62.0,87.0
986,205.60527700625,206.05153685624998,65.0,94.0
987,205.98239800624998,206.47894065625,57.0,78.0
988,206.35951900625,206.85291898124999,62.0,105.0
989,206.35951900625,206.88277439375,65.0,102.0
990,206.73664000624998,207.23632533125,57.0,84.0
991,207.11376100625,207.55687818125,65.0,100.0
992,207.11376100625,207.58987626875,62.0,100.0
993,207.49088200625,207.95128389374997,57.0,71.0
994,205.60527700625,208.10841764375,50.0,105.0
995,207.86800300624998,208.19955521875,62.0,105.0
996,207.86800300624998,208.29226413125,65.0,105.0
997,205.79855151875,208.30326349375,38.0,93.0
998,208.24512400625,208.39597240625,57.0,100.0
999,208.62224500624998,208.79509213125,55.0,82.0
1000,208.62224500624998,208.99936600625,62.0,87.0
1001,208.62224500624998,209.04179211874998,58.0,85.0
1002,208.99936600625,209.32149019374998,55.0,62.0
1003,209.37648700625,209.42991248124997,55.0,27.0
1004,209.37648700625,209.80074813124997,67.0,94.0
1005,209.37648700625,209.82117551874998,58.0,102.0
1006,209.37648700625,209.89031436874998,62.0,102.0
1007,209.75360800624998,210.00345066875,55.0,71.0
1008,208.62224500624998,210.32714619375,43.0,100.0
1009,210.13072900625,210.49842198124998,55.0,92.0
1010,208.81551951875,210.52042070624998,31.0,88.0
1011,210.13072900625,210.58484554375,58.0,102.0
1012,210.13072900625,210.64141369375,62.0,102.0
1013,210.69641050625,210.82211750624998,55.0,92.0
1014,210.50785000624998,211.02167736874998,50.0,89.0
1015,210.70112451875,211.21495188125,38.0,77.0
1016,210.88497100625,211.22280856875,55.0,102.0
1017,210.88497100625,211.24009328124998,58.0,105.0
1018,210.88497100625,211.51193466874997,62.0,105.0
1019,211.26209200625,211.54650409375,43.0,105.0
1020,211.45065250624998,211.56064613125,55.0,105.0
1021,211.45536651875,211.73977860624998,31.0,93.0
1022,211.63921300624997,211.84191554375,55.0,94.0
1023,211.63921300624997,212.10590024375,60.0,97.0
1024,212.01633400625,212.16089705624998,55.0,58.0
1025,211.63921300624997,212.62287028125,48.0,111.0
1026,212.39345500624998,212.63229830625,55.0,108.0
1027,211.83248751874999,212.81614479375,36.0,99.0
1028,212.39345500624998,212.86799893124999,64.0,92.0
1029,212.95913650625,213.06127344375,55.0,92.0
1030,212.77057600625,213.06284478125,48.0,76.0
1031,212.96385051874998,213.25769063125,36.0,64.0
1032,213.14769700624998,213.36611291875,55.0,94.0
1033,213.14769700624998,213.61124156875,60.0,102.0
1034,213.52481800624997,213.65366768125,55.0,100.0
1035,213.90193900625,214.08421415624997,55.0,100.0
1036,213.14769700624998,214.14235364374997,48.0,92.0
1037,213.90193900625,214.15335300624997,60.0,111.0
1038,213.90193900625,214.25706128125,64.0,102.0
1039,213.34097151875,214.33719949374998,36.0,80.0
1040,214.27906000624998,214.41890904374998,55.0,92.0
1041,214.65618100625,214.84788418124998,57.0,102.0
1042,214.65618100625,215.09772684375,62.0,102.0
1043,215.03330200624998,215.20772046874998,57.0,82.0
1044,215.41042300624997,215.54712936874998,57.0,105.0
1045,215.41042300624997,215.99496055625,62.0,108.0
1046,215.78754400625,216.07981278124998,57.0,76.0
1047,215.41042300624997,216.07981278124998,65.0,100.0
1048,216.16466500625,216.35008283124998,57.0,105.0
1049,216.16466500625,216.56221339374997,64.0,102.0
1050,216.54178600625,216.63763759375,57.0,82.0
1051,216.73034650625,216.82148408125,57.0,97.0
1052,216.73034650625,216.83405478125,65.0,105.0
1053,216.91890700624998,217.15775030625,57.0,111.0
1054,216.91890700624998,217.19703374374998,65.0,105.0
1055,217.29602800625,217.54744200624998,57.0,111.0
1056,217.29602800625,217.57572608125,64.0,108.0
1057,214.65618100625,217.60401015624998,50.0,94.0
1058,214.84945551875,217.79728466875,38.0,82.0
1059,217.67314900625,217.87742288125,57.0,94.0
1060,217.67314900625,218.18226235625,62.0,84.0
1061,218.05027000625,218.25611521874998,57.0,87.0
1062,217.67314900625,218.52638526875,50.0,97.0
1063,218.42739100625,218.59552411874998,57.0,111.0
1064,217.86642351875,218.71965978125,38.0,85.0
1065,218.42739100625,218.93964703125,62.0,108.0
1066,218.42739100625,218.94593238124997,65.0,105.0
1067,218.80451200624998,219.04492664375,57.0,80.0
1068,219.18163300625,219.42519031875,57.0,89.0
1069,219.18163300625,219.75674253124998,62.0,87.0
1070,219.18163300625,220.01915589375,50.0,67.0
1071,219.55875400624998,220.04115461875,57.0,87.0
1072,219.93587500625,220.20614505625,62.0,100.0
1073,219.37490751874998,220.21243040624998,38.0,55.0
1074,219.93587500625,220.35699345625,65.0,102.0
1075,220.31299600625,220.43556033124997,57.0,80.0
1076,220.69011700624998,221.08923673125,58.0,72.0
1077,220.69011700624998,221.18665965625,62.0,94.0
1078,220.69011700624998,221.28408258125,55.0,80.0
1079,221.44435900624998,221.61877746874998,55.0,87.0
1080,221.06723800625,221.62192014375,50.0,73.0
1081,220.69011700624998,221.80733796875,43.0,102.0
1082,221.26051251874998,221.81676599374998,38.0,61.0
1083,221.44435900624998,221.92990229375,58.0,99.0
1084,221.44435900624998,221.94875834375,62.0,100.0
1085,220.88339151875,222.00061248125,31.0,90.0
1086,221.82148000625,222.43115895625,50.0,62.0
1087,222.19860100625,222.51129716875,55.0,102.0
1088,222.01475451874998,222.62443346875,38.0,50.0
1089,222.19860100625,222.73285575625,62.0,105.0
1090,222.19860100625,222.73599843124998,67.0,97.0
1091,222.19860100625,222.84127804374998,58.0,109.0
1092,222.57572200624998,222.84442071874997,55.0,82.0
1093,222.95284300625,223.36924744375,62.0,108.0
1094,222.95284300625,223.37553279374998,58.0,109.0
1095,223.32996400624998,223.58452068124998,55.0,89.0
1096,223.70708500625,224.26176714374998,58.0,96.0
1097,223.70708500625,224.28062319375,62.0,92.0
1098,224.08420600624999,224.66402954375,53.0,30.0
1099,223.70708500625,224.69702763125,46.0,96.0
1100,223.90035951874998,224.89187348125,34.0,84.0
1101,224.46132700624997,225.08829066875,58.0,102.0
1102,224.46132700624997,225.10086136874997,62.0,100.0
1103,224.83844800625,225.10557538125,46.0,90.0
1104,224.46132700624997,225.10714671875,65.0,87.0
1105,225.03172251874997,225.29884989375,34.0,78.0
1106,225.21556900624998,225.49526708125,58.0,87.0
1107,225.21556900624998,225.79224986875,65.0,87.0
1108,225.21556900624998,225.82839063125,62.0,82.0
1109,225.59269000625,225.85038935625,58.0,70.0
1110,225.21556900624998,226.16151418125,46.0,96.0
1111,225.96981100624998,226.29979188124997,58.0,112.0
1112,225.96981100624998,226.34536066875,62.0,108.0
1113,225.40884351875,226.35478869374998,34.0,84.0
1114,225.96981100624998,226.40821416875,65.0,100.0
1115,226.34693200624997,226.49935174374997,46.0,77.0
1116,226.54020651874998,226.69419759375,34.0,65.0
1117,226.72405300625,227.21273896875,64.0,82.0
1118,226.72405300625,227.21902431874997,60.0,80.0
1119,227.10117400625,227.64171410625,55.0,76.0
1120,226.72405300625,227.66999818124998,48.0,111.0
1121,227.47829500625,227.84127396875,60.0,108.0
1122,227.47829500625,227.85698734375,64.0,117.0
1123,226.91732751874997,227.86327269375,36.0,99.0
1124,227.47829500625,227.87427205625,67.0,111.0
1125,227.85541600624998,228.12882873125,55.0,80.0
1126,228.23253700624997,228.64108475625,72.0,92.0
1127,228.23253700624997,228.69136755625,67.0,105.0
1128,228.23253700624997,228.73222233125,64.0,105.0
1129,228.23253700624997,228.74322169375,60.0,100.0
1130,228.23253700624997,228.81707455625,48.0,108.0
1131,228.60965800625,228.83907328125,55.0,73.0
1132,228.42581151874998,229.01034906874997,36.0,96.0
1133,228.98677900625,229.23033631875,60.0,89.0
1134,228.98677900625,229.49432101875,48.0,108.0
1135,228.98677900625,229.58545859375,64.0,102.0
1136,228.98677900625,229.59331528125,67.0,100.0
1137,229.36390000625,229.62788470624997,60.0,102.0
1138,229.18005351875,229.68759553125,36.0,96.0
1139,229.74102100624998,230.55811650624997,64.0,97.0
1140,229.74102100624998,230.59582860625,67.0,97.0
1141,229.74102100624998,230.59897128125,60.0,84.0
1142,229.74102100624998,230.64454006875,48.0,105.0
1143,230.49526300624998,230.71682159374998,55.0,57.0
1144,229.93429551875,230.83781458124997,36.0,93.0
1145,230.87238400625,231.70047886875,64.0,102.0
1146,230.87238400625,231.71619224375,60.0,102.0
1147,230.87238400625,231.71619224375,67.0,97.0
1148,231.62662600624998,232.15302406874997,55.0,69.0
1149,232.00374700625,232.17816546875,60.0,102.0
1150,232.00374700625,232.18287948124998,64.0,102.0
1151,230.87238400625,232.19073616875,48.0,105.0
1152,232.00374700625,232.23159094375,67.0,100.0
1153,231.06565851874998,232.38401068125,36.0,93.0
1154,232.38086800624998,232.53485908124998,48.0,100.0
1155,232.57414251875,232.72813359375,36.0,88.0
1156,232.73913295625,233.26081700625,62.0,108.0
1157,233.45723419374997,233.70864819374998,62.0,89.0
1158,232.72184824375,233.74636029375,38.0,105.0
1159,232.72970493124998,233.75421698124998,50.0,105.0
1160,233.07225650624997,233.79350041875,57.0,47.0
1161,233.86735328125,234.91072138124997,36.0,105.0
1162,233.87520996874997,234.91857806874998,48.0,105.0
1163,233.87520996874997,234.99557360625,60.0,114.0
1164,235.40883536874998,236.00437228124997,58.0,105.0
1165,236.10650921874998,236.29821239375,58.0,63.0
1166,235.41669205624999,236.30764041875,62.0,89.0
1167,236.53234168125,236.71147415625,58.0,105.0
1168,235.39155065625,237.11530789374999,34.0,105.0
1169,235.40097868125,237.12473591875,46.0,105.0
1170,236.89060663125,237.13416394375,58.0,46.0
1171,236.53705569375,237.36672189374997,62.0,92.0
1172,237.30701106875,237.89311995625,57.0,58.0
1173,237.31958176874997,238.30009636875,60.0,87.0
1174,237.74384289374999,238.78249698125,40.0,71.0
1175,237.75327091875,238.79192500624998,52.0,71.0
1176,237.28658368125,238.92234601874998,33.0,94.0
1177,237.29444036874997,238.93020270625,45.0,94.0
1178,238.24352821875,239.20832944375,55.0,97.0
1179,238.74007086875,239.44717274375,60.0,69.0
1180,239.62316254374997,241.86231848124999,57.0,58.0
1181,239.34817848125,241.88117453125,38.0,80.0
1182,239.35760650625,241.88903121875,50.0,80.0
1183,240.99179750625,242.08701974374998,69.0,57.0
1184,239.86986253125,242.09016241874997,62.0,78.0
