,start,end,pitch,velocity
0,16.82665795625,17.4642621375,71.0,88.0
1,17.582959456250002,17.79514404375,72.0,88.0
2,17.83505995625,18.27413499375,71.0,96.0
3,18.33926095625,19.090310362500002,79.0,93.0
4,19.34766295625,19.76152794375,76.0,81.0
5,19.85186395625,20.48211520625,78.0,89.0
6,20.608165456250003,20.778333293750002,79.0,83.0
7,20.86026595625,21.01362709375,78.0,91.0
8,21.11236645625,21.323500625,76.0,89.0
9,21.364466956250002,22.6449274125,71.0,93.0
10,22.87706995625,23.58295135625,69.0,86.0
11,23.63337145625,23.83085018125,72.0,88.0
12,23.88547195625,24.01992555625,69.0,89.0
13,24.137572456250002,24.31089155,69.0,84.0
14,24.389672956250003,25.1911424625,78.0,87.0
15,25.39807495625,25.789881150000003,69.0,85.0
16,25.90227595625,26.27622503125,71.0,86.0
17,26.40647695625,26.81614026875,75.0,84.0
18,26.91067795625,27.279374937500002,78.0,85.0
19,27.41487895625,28.52412115625,76.0,86.0
20,28.927481956250002,29.332943593750002,76.0,89.0
21,29.43168295625,29.8465983625,77.0,89.0
22,29.935883956250002,30.374958993750003,76.0,93.0
23,30.44008495625,31.232100693750002,88.0,96.0
24,31.44848695625,31.868654456250002,83.0,93.0
25,31.952687956250003,32.58293920625,84.0,88.0
26,32.70898945625,32.8907119,86.0,85.0
27,32.96108995625,33.1112998375,84.0,86.0
28,33.213190456250004,33.32663568125,81.0,57.0
29,33.46529095625,34.5944911125,83.0,82.0
30,34.97789395625,35.61024604375,83.0,84.0
31,35.73419545625,35.878102825,79.0,83.0
32,35.986295956250004,36.12600165,81.0,84.0
33,36.23839645625,36.392808012500005,83.0,86.0
34,36.49049695625,37.180622075,81.0,83.0
35,37.49889895625,37.88125138125,79.0,82.0
36,38.003099956250004,38.367595262500004,78.0,88.0
37,38.50730095625,38.83923328125,71.0,89.0
38,39.01150195625,39.15120765,83.0,87.0
39,39.26360245625,39.423266106250004,81.0,85.0
40,39.51570295625,40.8717935625,76.0,87.0
41,41.02830595625,41.6659101375,71.0,88.0
42,41.78460745625,41.996792043750006,72.0,88.0
43,42.036707956250005,42.47578299375,71.0,96.0
44,42.54090895625,43.291958362500004,79.0,93.0
45,43.549310956250004,43.96317594375,76.0,81.0
46,44.05351195625,44.68376320625,78.0,89.0
47,44.809813456250005,44.97998129375,79.0,83.0
48,45.06191395625,45.21527509375,78.0,91.0
49,45.31401445625,45.525148625,76.0,89.0
50,45.566114956250004,46.8465754125,71.0,93.0
51,47.07871795625,47.784599356250006,69.0,86.0
52,47.83501945625,48.032498181250006,72.0,88.0
53,48.08711995625,48.58922011875,69.0,89.0
54,48.59132095625,49.09342111875,78.0,87.0
55,49.09552195625,49.59762211875,76.0,84.0
56,49.599722956250005,49.991529150000005,69.0,85.0
57,50.10392395625,50.477873031250006,71.0,86.0
58,50.60812495625,51.01778826875,75.0,84.0
59,51.112325956250004,51.4810229375,78.0,85.0
60,51.616526956250006,52.72576915625,76.0,86.0
61,53.129129956250004,53.53459159375,76.0,89.0
62,53.63333095625,54.0482463625,77.0,89.0
63,54.13753195625,54.576606993750005,76.0,93.0
64,54.64173295625,55.433748693750005,88.0,96.0
65,55.65013495625,56.070302456250005,83.0,93.0
66,56.15433595625,56.78458720625,84.0,88.0
67,56.91063745625,57.092359900000005,86.0,85.0
68,57.162737956250005,57.312947837500005,84.0,86.0
69,57.41483845625,57.52828368125,81.0,84.0
70,57.66693895625,58.7961391125,83.0,82.0
71,59.179541956250006,59.81189404375,83.0,84.0
72,59.935843456250005,60.079750825000005,79.0,83.0
73,60.18794395625,60.327649650000005,81.0,84.0
74,60.44004445625,60.594456012500004,83.0,86.0
75,60.692144956250004,61.382270075,81.0,83.0
76,61.70054695625,62.08289938125,79.0,82.0
77,62.20474795625,62.5692432625,78.0,88.0
78,62.708948956250005,63.04088128125,71.0,89.0
79,63.21314995625,63.35285565,83.0,87.0
80,63.465250456250004,63.62491410625,81.0,85.0
81,63.71735095625,65.07344156250001,76.0,87.0
82,65.22995395625,65.84549934375,88.0,91.0
83,65.98625545625,66.15117120000001,83.0,83.0
84,66.23835595625,66.3675574625,83.0,83.0
85,66.49045645625,66.63541424375,83.0,84.0
86,66.74255695625,67.3171360125,84.0,93.0
87,67.49885845625,67.659572525,81.0,80.0
88,67.75095895625,67.93793349375001,76.0,87.0
89,68.00305945625,68.1364626375,81.0,85.0
90,68.25515995625,68.69108373750001,86.0,86.0
91,68.75936095625,68.94003298125,86.0,84.0
92,69.01146145625,69.22154520625,88.0,89.0
93,69.26356195625,69.3927634625,86.0,89.0
94,69.51566245625,69.6910823875,88.0,86.0
95,69.76776295625001,70.9578874,83.0,84.0
96,71.28036595625001,71.67217215000001,83.0,87.0
97,72.03666745625,72.28666711875,81.0,89.0
98,72.28876795625,72.4179694625,79.0,82.0
99,72.54086845625001,72.72784299375,78.0,84.0
100,72.79296895625001,73.1448592375,72.0,83.0
101,73.29716995625,73.44737983750001,81.0,85.0
102,73.54927045625,73.72258955000001,79.0,83.0
103,73.80137095625,74.0146059625,78.0,89.0
104,74.05347145625001,74.20473175625,76.0,86.0
105,74.30557195625,74.45788267500001,78.0,84.0
106,74.55767245625,74.6910756375,78.0,78.0
107,74.80977295625,74.9242686,78.0,86.0
108,75.06187345625,75.188974125,71.0,91.0
109,75.31397395625001,75.48624263125001,83.0,89.0
110,75.56607445625,75.71208266250001,81.0,80.0
111,75.81817495625,77.029307775,83.0,86.0
112,77.33077795625,77.953676275,88.0,93.0
113,78.08707945625001,78.2204826375,90.0,93.0
114,78.33917995625,78.50514611875,91.0,86.0
115,78.59128045625,78.73623824375001,90.0,93.0
116,78.84338095625,79.47153136875001,84.0,93.0
117,79.59968245625001,79.73413605625001,81.0,87.0
118,79.85178295625,79.99779116250001,76.0,87.0
119,80.10388345625,80.2582950125,81.0,84.0
120,80.35598395625,80.735185125,86.0,89.0
121,80.86018495625001,81.17110890625,88.0,86.0
122,81.36438595625,81.78455345625001,90.0,93.0
123,81.86858695625,83.01459381250001,83.0,91.0
124,83.38118995625,84.05030670000001,83.0,85.0
125,84.13749145625,84.29925594375,79.0,84.0
126,84.38959195625,84.55555811875,81.0,86.0
127,84.64169245625,84.794003175,83.0,85.0
128,84.89379295625001,85.65639696875,81.0,86.0
129,85.90219495625,86.2666902625,79.0,84.0
130,86.40639595625001,86.7708912625,78.0,89.0
131,86.91059695625,87.24883179375,71.0,87.0
132,87.41479795625,87.5734111875,83.0,84.0
133,87.66689845625001,87.82656210625001,81.0,85.0
134,87.91899895625001,89.42950111875001,76.0,88.0
135,89.43160195625,90.0692061375,71.0,88.0
136,90.18790345625,90.40008804375,72.0,88.0
137,90.44000395625001,90.87907899375,71.0,96.0
138,90.94420495625,91.69525436250001,79.0,93.0
139,91.95260695625001,92.36647194375,76.0,81.0
140,92.45680795625,93.08705920625,78.0,89.0
141,93.21310945625001,93.38327729375,79.0,83.0
142,93.46520995625,93.61857109375,78.0,91.0
143,93.71731045625,93.92844462500001,76.0,89.0
144,93.96941095625,95.2498714125,71.0,93.0
145,95.48201395625,96.18789535625001,69.0,86.0
146,96.23831545625,96.43579418125,72.0,88.0
147,96.49041595625,96.99251611875,69.0,89.0
148,96.99461695625,97.49671711875,78.0,87.0
149,97.49881795625001,98.00091811875001,76.0,84.0
150,98.00301895625,98.39482515,69.0,85.0
151,98.50721995625001,98.88116903125001,71.0,86.0
152,99.01142095625,99.42108426875001,75.0,84.0
153,99.51562195625,99.8843189375,78.0,85.0
154,100.01982295625001,101.12906515625001,76.0,86.0
155,101.53242595625001,101.93788759375,76.0,89.0
156,102.03662695625,102.4515423625,77.0,89.0
157,102.54082795625,102.97990299375,76.0,93.0
158,103.04502895625001,103.83704469375,88.0,96.0
159,104.05343095625001,104.47359845625,83.0,93.0
160,104.55763195625,105.18788320625,84.0,88.0
161,105.31393345625,105.4956559,86.0,85.0
162,105.56603395625001,105.7162438375,84.0,86.0
163,105.81813445625001,105.93157968125,81.0,84.0
164,106.07023495625,107.19943511250001,83.0,82.0
165,107.58283795625,108.21519004375,83.0,84.0
166,108.33913945625001,108.483046825,79.0,83.0
167,108.59123995625,108.73094565000001,81.0,84.0
168,108.84334045625,108.9977520125,83.0,86.0
169,109.09544095625,109.785566075,81.0,83.0
170,110.10384295625,110.48619538125,79.0,82.0
171,110.60804395625,110.9725392625,78.0,88.0
172,111.11224495625001,111.44417728125,71.0,89.0
173,111.61644595625,111.75615165,83.0,87.0
174,111.86854645625,112.02821010625,81.0,85.0
175,112.12064695625,113.4767375625,76.0,87.0
176,113.63324995625001,114.27085413750001,71.0,88.0
177,114.38955145625,114.60173604375001,72.0,88.0
178,114.64165195625,115.08072699375,71.0,96.0
179,115.14585295625001,115.8969023625,79.0,93.0
180,116.15425495625,116.56811994375,76.0,81.0
181,116.65845595625001,117.28870720625001,78.0,89.0
182,117.41475745625,117.58492529375,79.0,83.0
183,117.66685795625,117.82021909375001,78.0,91.0
184,117.91895845625001,118.130092625,76.0,89.0
185,118.17105895625001,119.4515194125,71.0,93.0
186,119.68366195625,120.38954335625,69.0,86.0
187,120.43996345625001,120.63744218125001,72.0,88.0
188,120.69206395625001,121.19416411875001,69.0,89.0
189,121.19626495625,121.69836511875,78.0,87.0
190,121.70046595625,122.20256611875,76.0,84.0
191,122.20466695625001,122.59647315000001,69.0,85.0
192,122.70886795625,123.08281703125,71.0,86.0
193,123.21306895625001,123.62273226875,75.0,84.0
194,123.71726995625001,124.08875394166667,78.0,85.0
195,124.22540659791666,125.34405159791666,76.0,86.0
196,125.75083159791667,126.15973024375,76.0,89.0
197,126.25930659791666,126.67773915,77.0,89.0
198,126.76778159791667,127.21057857708334,76.0,93.0
199,127.27625659791667,128.07498607708334,88.0,96.0
200,128.29320659791668,128.71693576458333,83.0,93.0
201,128.80168159791666,129.43727534791665,84.0,88.0
202,129.56439409791668,129.7476569625,86.0,85.0
203,129.81863159791666,129.970114775,84.0,86.0
204,130.07286909791668,130.18727597291667,81.0,84.0
205,130.32710659791667,131.46587873333334,83.0,82.0
206,131.85253159791665,132.49024399375,83.0,84.0
207,132.61524409791667,132.7603713375,79.0,83.0
208,132.86948159791666,133.01037154583332,81.0,84.0
209,133.12371909791668,133.27943956666667,83.0,86.0
210,133.37795659791666,134.06897213333335,81.0,83.0
211,134.38724901458335,134.76960143958334,79.0,82.0
212,134.89145001458334,135.25594532083335,78.0,88.0
213,135.39565101458334,135.72758333958333,71.0,89.0
214,135.89985201458333,136.03955770833335,83.0,87.0
215,136.15195251458334,136.31161616458334,81.0,85.0
216,136.40405301458335,137.76014362083333,76.0,87.0
217,137.91665601458334,138.53220140208333,88.0,91.0
218,138.67295751458335,138.83787325833333,83.0,83.0
219,138.92505801458333,139.05425952083334,83.0,83.0
220,139.17715851458334,139.32211630208334,83.0,84.0
221,139.42925901458335,140.00383807083335,84.0,93.0
222,140.18556051458333,140.34627458333335,81.0,80.0
223,140.43766101458334,140.62463555208333,76.0,87.0
224,140.68976151458335,140.82316469583333,81.0,85.0
225,140.94186201458334,141.37778579583335,86.0,86.0
226,141.44606301458333,141.62673503958334,86.0,84.0
227,141.69816351458334,141.90824726458334,88.0,89.0
228,141.95026401458335,142.07946552083334,86.0,89.0
229,142.20236451458334,142.37778444583336,88.0,86.0
230,142.45446501458335,143.64458945833334,83.0,84.0
231,143.96706801458333,144.35887420833333,83.0,87.0
232,144.72336951458334,144.97336917708333,81.0,89.0
233,144.97547001458335,145.10467152083334,79.0,82.0
234,145.22757051458333,145.41454505208333,78.0,84.0
235,145.47967101458335,145.83156129583335,72.0,83.0
236,145.98387201458334,146.13408189583333,81.0,85.0
237,146.23597251458335,146.40929160833335,79.0,83.0
238,146.48807301458334,146.70130802083335,78.0,89.0
239,146.74017351458335,146.89143381458334,76.0,86.0
240,146.99227401458333,147.14458473333335,78.0,84.0
241,147.24437451458334,147.37777769583334,78.0,78.0
242,147.49647501458335,147.61097065833334,78.0,86.0
243,147.74857551458334,147.87567618333335,71.0,91.0
244,148.00067601458335,148.17294468958335,83.0,89.0
245,148.25277651458333,148.39878472083333,81.0,80.0
246,148.50487701458334,149.71600983333335,83.0,86.0
247,150.01748001458333,150.64037833333333,88.0,93.0
248,150.77378151458333,150.90718469583334,90.0,93.0
249,151.02588201458335,151.19184817708333,91.0,86.0
250,151.27798251458336,151.42294030208333,90.0,93.0
251,151.53008301458334,152.15823342708333,84.0,93.0
252,152.28638451458335,152.42083811458335,81.0,87.0
253,152.53848501458333,152.68449322083333,76.0,87.0
254,152.79058551458334,152.94499707083335,81.0,84.0
255,153.04268601458335,153.42188718333335,86.0,89.0
256,153.54688701458335,153.85781096458334,88.0,86.0
257,154.05108801458334,154.47125551458333,90.0,93.0
258,154.55528901458334,155.70129587083335,83.0,91.0
259,156.06789201458335,156.73700875833333,83.0,85.0
260,156.82419351458333,156.98595800208335,79.0,84.0
261,157.07629401458334,157.24226017708335,81.0,86.0
262,157.32839451458335,157.48070523333334,83.0,85.0
263,157.58049501458333,158.34309902708333,81.0,86.0
264,158.58889701458335,158.95339232083333,79.0,84.0
265,159.09309801458335,159.45759332083335,78.0,89.0
266,159.59729901458334,159.93553385208335,71.0,87.0
267,160.10150001458334,160.26011324583334,83.0,84.0
268,160.35360051458335,160.51326416458335,81.0,85.0
269,160.60570101458333,162.11620317708335,76.0,88.0
270,162.11830401458334,162.75590819583334,71.0,88.0
271,162.87460551458335,163.08679010208334,72.0,88.0
272,163.12670601458333,163.56578105208334,71.0,96.0
273,163.63090701458333,164.38195642083335,79.0,93.0
274,164.63930901458335,165.05317400208335,76.0,81.0
275,165.14351001458334,165.77376126458336,78.0,89.0
276,165.89981151458335,166.06997935208335,79.0,83.0
277,166.15191201458333,166.30527315208334,78.0,91.0
278,166.40401251458334,166.61514668333334,76.0,89.0
279,166.65611301458335,167.93657347083334,71.0,93.0
280,168.16871601458334,168.87459741458335,69.0,86.0
281,168.92501751458335,169.12249623958334,72.0,88.0
282,169.17711801458336,169.67921817708333,69.0,89.0
283,169.68131901458335,170.18341917708335,78.0,87.0
284,170.18552001458335,170.68762017708335,76.0,84.0
285,170.68972101458334,171.08152720833334,69.0,85.0
286,171.19392201458334,171.56787108958335,71.0,86.0
287,171.69812301458336,172.10778632708335,75.0,84.0
288,172.20232401458333,172.57102099583335,78.0,85.0
289,172.70652501458335,173.81576721458333,76.0,86.0
290,174.21912801458333,174.62458965208333,76.0,89.0
291,174.72332901458333,175.13824442083336,77.0,89.0
292,175.22753001458335,175.66660505208336,76.0,93.0
293,175.73173101458335,176.52374675208335,88.0,96.0
294,176.74013301458334,177.16030051458335,83.0,93.0
295,177.24433401458333,177.87458526458335,84.0,88.0
296,178.00063551458334,178.18235795833334,86.0,85.0
297,178.25273601458335,178.40294589583334,84.0,86.0
298,178.50483651458336,178.61828173958335,81.0,84.0
299,178.75693701458334,179.88613717083334,83.0,82.0
300,180.26954001458336,180.90189210208334,83.0,84.0
301,181.02584151458333,181.16974888333334,79.0,83.0
302,181.27794201458335,181.41764770833333,81.0,84.0
303,181.53004251458333,181.68445407083334,83.0,86.0
304,181.78214301458334,182.47226813333333,81.0,83.0
305,182.79054501458336,183.17289743958335,79.0,82.0
306,183.29474601458335,183.65924132083336,78.0,88.0
307,183.79894701458335,184.13087933958334,71.0,89.0
308,184.30314801458334,184.44285370833336,83.0,87.0
309,184.55524851458335,184.71491216458335,81.0,85.0
310,184.80734901458334,186.16343962083334,76.0,87.0
311,186.31995201458335,186.72541365208335,76.0,89.0
312,186.82415301458335,187.23906842083335,77.0,89.0
313,187.32835401458334,187.76742905208334,76.0,93.0
314,187.83255501458333,188.62457075208334,88.0,96.0
315,188.84095701458335,189.26112451458334,83.0,93.0
316,189.34515801458335,189.97540926458333,84.0,88.0
317,190.10145951458335,190.28318195833333,86.0,85.0
318,190.35356001458334,190.50376989583333,84.0,86.0
319,190.60566051458335,190.71910573958334,81.0,84.0
320,190.85776101458333,191.98696117083335,83.0,82.0
321,192.37036401458334,193.00271610208335,83.0,84.0
322,193.12666551458335,193.27057288333333,79.0,83.0
323,193.37876601458333,193.51847170833335,81.0,84.0
324,193.63086651458335,193.78527807083333,83.0,86.0
325,193.88296701458336,194.57309213333335,81.0,83.0
326,194.89136901458335,195.27372143958334,79.0,82.0
327,195.39557001458334,195.76006532083335,78.0,88.0
328,195.89977101458334,196.23170333958333,71.0,89.0
329,196.40397201458336,196.54367770833335,83.0,87.0
330,196.65607251458334,196.81573616458334,81.0,85.0
331,196.90817301458333,198.26426362083333,76.0,87.0
