,start,end,pitch,velocity
0,4.72583395625,5.0388587437500005,55.0,76.0
1,4.72583395625,5.1281443375,52.0,77.0
2,5.23003495625,5.303564268750001,55.0,82.0
3,5.23003495625,5.30566510625,59.0,81.0
4,5.73423595625,5.8004123375,52.0,82.0
5,5.73423595625,5.8088156875,55.0,83.0
6,5.73423595625,5.82247113125,59.0,84.0
7,4.72583395625,6.05146241875,40.0,83.0
8,5.98633645625,6.2331848625,52.0,82.0
9,6.74263795625,6.836125225,52.0,78.0
10,6.74263795625,6.836125225,59.0,78.0
11,6.74263795625,6.844528575,55.0,82.0
12,7.24683895625,7.346628737500001,52.0,84.0
13,7.24683895625,7.363435437500001,55.0,86.0
14,6.23843695625,7.566166256250001,47.0,76.0
15,7.24683895625,7.61658635625,59.0,84.0
16,7.4989394562500005,7.718476975000001,52.0,84.0
17,8.25524095625,8.3592324125,57.0,82.0
18,8.25524095625,8.3697366,60.0,82.0
19,8.25524095625,8.3760391125,52.0,84.0
20,7.7510399562500005,8.480030568750001,45.0,83.0
21,8.75944195625,8.8340216875,52.0,84.0
22,8.75944195625,8.85608048125,57.0,86.0
23,9.01154245625,9.1764582,52.0,87.0
24,9.01154245625,9.1764582,57.0,46.0
25,8.75944195625,9.223727043750001,60.0,78.0
26,9.767843956250001,9.91070090625,63.0,77.0
27,9.767843956250001,9.91910425625,59.0,82.0
28,9.263642956250001,9.95481849375,47.0,85.0
29,9.767843956250001,9.96112100625,66.0,72.0
30,10.272044956250001,10.3697339,59.0,78.0
31,10.272044956250001,10.407548975000001,63.0,77.0
32,10.272044956250001,10.669103243750001,66.0,82.0
33,10.52414545625,10.86448113125,59.0,83.0
34,10.776245956250001,11.096623675,60.0,77.0
35,10.776245956250001,11.114480793750001,57.0,76.0
36,11.280446956250001,11.393892181250001,64.0,86.0
37,11.280446956250001,11.399144275000001,60.0,88.0
38,10.776245956250001,12.06195850625,45.0,82.0
39,11.53254745625,12.06826101875,52.0,71.0
40,11.78464795625,12.52834443125,64.0,88.0
41,11.78464795625,12.548302387500001,60.0,85.0
42,12.03674845625,12.55565531875,57.0,78.0
43,12.79304995625,12.92540271875,57.0,78.0
44,12.79304995625,12.9579657,64.0,84.0
45,12.79304995625,12.96952030625,60.0,83.0
46,13.29725095625,13.343469381250001,57.0,71.0
47,12.54094945625,13.3844357125,52.0,73.0
48,12.28884895625,13.4012424125,45.0,83.0
49,13.29725095625,13.453763350000001,64.0,84.0
50,13.29725095625,13.45481376875,60.0,83.0
51,13.549351456250001,13.636536212500001,57.0,83.0
52,13.80145195625,14.1344347,63.0,71.0
53,13.80145195625,14.1449388875,59.0,75.0
54,14.30565295625,14.3865352,59.0,78.0
55,13.80145195625,14.504182100000001,47.0,82.0
56,14.30565295625,14.614476068750001,63.0,83.0
57,14.557753456250001,14.780442231250001,59.0,84.0
58,14.30565295625,14.828761493750001,66.0,80.0
59,14.80985395625,14.924349600000001,54.0,83.0
60,15.061954456250001,15.194307218750001,59.0,83.0
61,15.31405495625,15.524138706250001,59.0,82.0
62,15.31405495625,15.614474718750001,64.0,83.0
63,15.566155456250002,16.281490625,47.0,65.0
64,16.07035645625,16.42854925,59.0,78.0
65,15.31405495625,16.541994475,40.0,84.0
66,16.32245695625,16.796195812500002,64.0,84.0
67,15.81825595625,16.80354874375,67.0,84.0
68,16.57455745625,16.86237219375,59.0,77.0
69,17.33085895625,17.44010250625,52.0,78.0
70,17.33085895625,17.4621613,55.0,77.0
71,17.83505995625,17.91699261875,55.0,69.0
72,17.83505995625,17.938000993750002,59.0,83.0
73,16.82665795625,18.0945133875,40.0,84.0
74,18.84346195625,19.120772506250002,55.0,79.0
75,18.84346195625,19.121822925,59.0,83.0
76,18.84346195625,19.1281254375,64.0,86.0
77,19.09556245625,19.36657049375,52.0,84.0
78,18.591361456250002,19.4180410125,47.0,70.0
79,18.33926095625,19.44430148125,40.0,78.0
80,19.34766295625,19.75102375625,55.0,83.0
81,19.599763456250002,19.79514134375,52.0,84.0
82,19.34766295625,19.823502650000002,59.0,82.0
83,20.356064956250002,20.46110683125,57.0,75.0
84,20.356064956250002,20.65228304375,60.0,77.0
85,20.608165456250003,20.69429979375,57.0,61.0
86,20.10396445625,21.020980025,52.0,72.0
87,19.85186395625,21.02833295625,45.0,82.0
88,20.86026595625,21.284635131250003,60.0,83.0
89,20.86026595625,21.32034936875,64.0,82.0
90,21.61656745625,21.8129957625,59.0,81.0
91,21.364466956250002,22.048289562500003,47.0,83.0
92,21.86866795625,22.39492775,63.0,78.0
93,22.12076845625,22.39807900625,59.0,58.0
94,21.86866795625,22.420137800000003,66.0,78.0
95,22.372868956250002,22.4873646,54.0,81.0
96,22.87706995625,23.240514843750002,60.0,77.0
97,22.87706995625,23.26992656875,57.0,74.0
98,23.381270956250003,23.53463209375,60.0,79.0
99,23.381270956250003,23.65437983125,64.0,82.0
100,23.63337145625,23.742615006250002,57.0,72.0
101,23.88547195625,23.96320294375,57.0,78.0
102,23.88547195625,23.96950545625,60.0,83.0
103,23.88547195625,23.96950545625,64.0,83.0
104,23.12917045625,24.0188751375,52.0,75.0
105,22.87706995625,24.04513560625,45.0,83.0
106,24.89387395625,25.20164665,57.0,82.0
107,25.145974456250002,25.2961843375,60.0,84.0
108,25.39807495625,25.508368925000003,57.0,76.0
109,24.64177345625,25.592402425,52.0,76.0
110,24.389672956250003,25.617612475,45.0,82.0
111,25.39807495625,25.6911417875,60.0,83.0
112,25.65017545625,25.860259206250003,57.0,82.0
113,25.39807495625,25.872864231250002,64.0,84.0
114,25.90227595625,26.65227494375,47.0,84.0
115,26.40647695625,26.684837925,63.0,82.0
116,26.65857745625,26.78147645,59.0,82.0
117,26.40647695625,26.814039431250002,66.0,79.0
118,26.91067795625,27.025173600000002,54.0,73.0
119,27.162778456250003,27.30143373125,59.0,83.0
120,27.41487895625,27.56613925625,59.0,78.0
121,27.41487895625,27.726853325,64.0,82.0
122,27.66697945625,27.8045843125,59.0,77.0
123,27.919079956250002,28.113407425000002,64.0,84.0
124,27.919079956250002,28.174331712500003,67.0,80.0
125,28.42328095625,28.51361696875,59.0,81.0
126,28.42328095625,28.562986650000003,67.0,77.0
127,28.42328095625,28.57033958125,64.0,84.0
128,27.41487895625,28.683784806250003,40.0,83.0
129,28.67538145625,28.763616631250002,59.0,77.0
130,28.927481956250002,29.04302801875,59.0,82.0
131,28.927481956250002,29.2415571625,64.0,84.0
132,29.179582456250003,29.524119806250003,59.0,77.0
133,29.43168295625,29.748909418750003,64.0,82.0
134,29.68378345625,29.822438731250003,59.0,83.0
135,29.935883956250002,30.26991711875,68.0,86.0
136,28.927481956250002,30.270967537500002,40.0,87.0
137,29.935883956250002,30.27201795625,64.0,87.0
138,30.18798445625,30.50311008125,59.0,82.0
139,30.44008495625,30.76466435,64.0,82.0
140,30.44008495625,30.783571887500003,68.0,76.0
141,30.69218545625,30.9684455875,59.0,77.0
142,30.944285956250003,31.2415544625,68.0,73.0
143,30.944285956250003,31.26361325625,64.0,74.0
144,31.19638645625,31.348697175,59.0,76.0
145,30.44008495625,31.52621794375,40.0,86.0
146,31.44848695625,31.6953353625,64.0,86.0
147,31.44848695625,31.7289487625,68.0,87.0
148,31.700587456250002,31.788822631250003,59.0,84.0
149,31.952687956250003,32.26151106875,57.0,70.0
150,31.952687956250003,32.32768745,60.0,62.0
151,32.456888956250005,32.59344339375,57.0,77.0
152,32.456888956250005,32.72369531875,60.0,67.0
153,32.70898945625,32.86655226875,57.0,76.0
154,32.96108995625,33.139661143750004,60.0,83.0
155,32.20478845625,33.219492968750004,52.0,82.0
156,31.952687956250003,33.25205595,45.0,82.0
157,33.213190456250004,33.2583584625,60.0,46.0
158,32.96108995625,33.2583584625,64.0,85.0
159,33.213190456250004,33.33713986875,57.0,74.0
160,33.46529095625,33.840290450000005,59.0,73.0
161,33.46529095625,33.844492125,55.0,73.0
162,33.96949195625,34.12915560625,59.0,83.0
163,33.96949195625,34.2835671625,62.0,82.0
164,33.71739145625,34.30982763125,50.0,68.0
165,34.22159245625,34.31613014375,55.0,82.0
166,33.46529095625,34.38335694375,43.0,79.0
167,34.473692956250005,34.5860877625,59.0,82.0
168,34.473692956250005,34.587138181250005,62.0,78.0
169,35.229994456250004,35.5461705,59.0,80.0
170,34.97789395625,35.775161787500004,47.0,84.0
171,35.48209495625,35.8718003125,62.0,82.0
172,35.73419545625,36.029363125,59.0,78.0
173,35.986295956250004,36.11654788125,55.0,83.0
174,36.23839645625,36.331883725000004,59.0,84.0
175,36.49049695625,36.90226110625,60.0,72.0
176,36.49049695625,36.9096140375,57.0,70.0
177,36.99469795625,37.1449078375,60.0,73.0
178,36.99469795625,37.16801705,64.0,82.0
179,37.246798456250005,37.34343698125,57.0,39.0
180,37.49889895625,37.580831618750004,57.0,79.0
181,36.49049695625,37.7835624375,45.0,82.0
182,36.74259745625,37.816125418750005,52.0,72.0
183,37.49889895625,37.86024300625,60.0,84.0
184,37.75099945625,37.90436059375,57.0,75.0
185,37.49889895625,37.90646143125,64.0,83.0
186,38.25520045625,38.382301125000005,59.0,74.0
187,38.50730095625,38.80982155625,63.0,78.0
188,38.50730095625,38.81822490625,66.0,81.0
189,38.003099956250004,38.91591385,47.0,86.0
190,39.01150195625,39.122846343750005,59.0,78.0
191,39.01150195625,39.24469491875,63.0,82.0
192,39.01150195625,39.33503093125,66.0,77.0
193,39.26360245625,39.4054089875,59.0,81.0
194,39.51570295625,39.671164931250004,59.0,78.0
195,39.51570295625,39.848685700000004,64.0,83.0
196,40.019903956250005,40.32662623125,67.0,86.0
197,40.27200445625,40.39595386875,59.0,89.0
198,40.52410495625,40.766751687500005,66.0,88.0
199,40.776205456250004,40.889650681250004,59.0,79.0
200,39.76780345625,40.971583343750005,47.0,69.0
201,39.51570295625,40.9978438125,40.0,86.0
202,41.53250695625,41.641750506250006,52.0,78.0
203,41.53250695625,41.663809300000004,55.0,77.0
204,42.036707956250005,42.11864061875,55.0,69.0
205,42.036707956250005,42.13964899375,59.0,83.0
206,41.02830595625,42.2961613875,40.0,84.0
207,43.04510995625,43.322420506250005,55.0,79.0
208,43.04510995625,43.323470925,59.0,83.0
209,43.04510995625,43.3297734375,64.0,86.0
210,43.29721045625,43.56821849375,52.0,84.0
211,42.793009456250005,43.619689012500004,47.0,70.0
212,42.54090895625,43.64594948125,40.0,78.0
213,43.549310956250004,43.952671756250005,55.0,83.0
214,43.80141145625,43.99678934375,52.0,84.0
215,43.549310956250004,44.02515065,59.0,82.0
216,44.55771295625,44.662754831250005,57.0,75.0
217,44.55771295625,44.85393104375,60.0,77.0
218,44.809813456250005,44.895947793750004,57.0,61.0
219,44.30561245625,45.222628025,52.0,72.0
220,44.05351195625,45.22998095625,45.0,82.0
221,45.06191395625,45.486283131250005,60.0,83.0
222,45.06191395625,45.52199736875,64.0,82.0
223,45.81821545625,46.0146437625,59.0,81.0
224,45.566114956250004,46.2499375625,47.0,83.0
225,46.07031595625,46.59657575,63.0,78.0
226,46.322416456250004,46.59972700625,59.0,58.0
227,46.07031595625,46.621785800000005,66.0,78.0
228,46.57451695625,46.689012600000005,54.0,81.0
229,47.07871795625,47.442162843750005,60.0,77.0
230,47.07871795625,47.47157456875,57.0,74.0
231,47.582918956250005,47.736280093750004,60.0,79.0
232,47.582918956250005,47.85602783125,64.0,82.0
233,47.83501945625,47.944263006250004,57.0,72.0
234,48.08711995625,48.164850943750004,57.0,78.0
235,48.08711995625,48.17115345625,60.0,83.0
236,48.08711995625,48.17115345625,64.0,83.0
237,47.33081845625,48.2205231375,52.0,75.0
238,47.07871795625,48.246783606250006,45.0,83.0
239,49.09552195625,49.40329465,57.0,82.0
240,49.34762245625,49.4978323375,60.0,84.0
241,49.599722956250005,49.710016925000005,57.0,76.0
242,48.84342145625,49.794050425,52.0,76.0
243,48.59132095625,49.819260475,45.0,82.0
244,49.599722956250005,49.8927897875,60.0,83.0
245,49.85182345625,50.061907206250005,57.0,82.0
246,49.599722956250005,50.074512231250004,64.0,84.0
247,50.10392395625,50.85392294375,47.0,84.0
248,50.60812495625,50.886485925,63.0,82.0
249,50.86022545625,50.983124450000005,59.0,82.0
250,50.60812495625,51.01568743125,66.0,79.0
251,51.112325956250004,51.2268216,54.0,73.0
252,51.36442645625,51.50308173125,59.0,83.0
253,51.616526956250006,51.76778725625,59.0,78.0
254,51.616526956250006,51.928501325,64.0,82.0
255,51.86862745625,52.0062323125,59.0,77.0
256,52.12072795625,52.315055425000004,64.0,84.0
257,52.12072795625,52.375979712500005,67.0,80.0
258,52.62492895625,52.715264968750006,59.0,81.0
259,52.62492895625,52.764634650000005,67.0,77.0
260,52.62492895625,52.77198758125,64.0,84.0
261,51.616526956250006,52.88543280625,40.0,83.0
262,52.87702945625,52.96526463125,59.0,77.0
263,53.129129956250004,53.24467601875,59.0,82.0
264,53.129129956250004,53.4432051625,64.0,84.0
265,53.38123045625,53.725767806250005,59.0,77.0
266,53.63333095625,53.95055741875,64.0,82.0
267,53.885431456250004,54.02408673125,59.0,83.0
268,54.13753195625,54.47156511875,68.0,86.0
269,53.129129956250004,54.472615537500005,40.0,87.0
270,54.13753195625,54.47366595625,64.0,87.0
271,54.389632456250006,54.704758081250006,59.0,82.0
272,54.64173295625,54.96631235,64.0,82.0
273,54.64173295625,54.9852198875,68.0,76.0
274,54.89383345625,55.170093587500006,59.0,77.0
275,55.145933956250005,55.443202462500004,68.0,73.0
276,55.145933956250005,55.46526125625,64.0,74.0
277,55.39803445625,55.550345175000004,59.0,76.0
278,54.64173295625,55.727865943750004,40.0,86.0
279,55.65013495625,55.8969833625,64.0,86.0
280,55.65013495625,55.9305967625,68.0,87.0
281,55.902235456250004,55.990470631250005,59.0,84.0
282,56.15433595625,56.46315906875,57.0,70.0
283,56.15433595625,56.529335450000005,60.0,62.0
284,56.65853695625,56.795091393750006,57.0,77.0
285,56.65853695625,56.92534331875,60.0,67.0
286,56.91063745625,57.068200268750005,57.0,76.0
287,57.162737956250005,57.34130914375,60.0,83.0
288,56.406436456250006,57.42114096875,52.0,82.0
289,56.15433595625,57.453703950000005,45.0,82.0
290,57.41483845625,57.460006462500004,60.0,46.0
291,57.162737956250005,57.460006462500004,64.0,85.0
292,57.41483845625,57.538787868750006,57.0,74.0
293,57.66693895625,58.04193845,59.0,73.0
294,57.66693895625,58.046140125,55.0,73.0
295,58.17113995625,58.33080360625,59.0,83.0
296,58.17113995625,58.485215162500005,62.0,82.0
297,57.919039456250005,58.51147563125,50.0,68.0
298,58.42324045625,58.51777814375,55.0,82.0
299,57.66693895625,58.58500494375,43.0,79.0
300,58.675340956250004,58.787735762500006,59.0,82.0
301,58.675340956250004,58.78878618125,62.0,78.0
302,59.43164245625,59.7478185,59.0,80.0
303,59.179541956250006,59.9768097875,47.0,84.0
304,59.68374295625,60.073448312500005,67.0,82.0
305,59.935843456250005,60.231011125,59.0,78.0
306,60.18794395625,60.437943618750005,62.0,83.0
307,60.44004445625,60.69004411875,59.0,84.0
308,60.692144956250004,61.10390910625,60.0,72.0
309,60.692144956250004,61.111262037500005,57.0,70.0
310,61.196345956250006,61.346555837500006,60.0,73.0
311,61.196345956250006,61.36966505,64.0,82.0
312,61.448446456250004,61.54508498125,57.0,39.0
313,61.70054695625,61.78247961875,57.0,79.0
314,60.692144956250004,61.9852104375,45.0,82.0
315,60.94424545625,62.017773418750004,52.0,72.0
316,61.70054695625,62.06189100625,60.0,84.0
317,61.952647456250006,62.106008593750005,57.0,75.0
318,61.70054695625,62.10810943125,64.0,83.0
319,62.45684845625,62.583949125000004,59.0,74.0
320,62.708948956250005,63.011469556250006,63.0,78.0
321,62.708948956250005,63.01987290625,66.0,81.0
322,62.20474795625,63.11756185,47.0,86.0
323,63.21314995625,63.324494343750004,59.0,78.0
324,63.21314995625,63.446342918750005,63.0,82.0
325,63.21314995625,63.53667893125,66.0,77.0
326,63.465250456250004,63.6070569875,59.0,81.0
327,63.71735095625,63.87281293125,59.0,78.0
328,63.71735095625,64.05033370000001,64.0,83.0
329,64.22155195625,64.52827423125001,67.0,86.0
330,64.47365245625001,64.59760186875,59.0,89.0
331,64.72575295625,64.9683996875,66.0,88.0
332,64.97785345625,65.09129868125001,59.0,79.0
333,63.969451456250006,65.17323134375,47.0,69.0
334,63.71735095625,65.1994918125,40.0,86.0
335,65.22995395625,65.52091995,52.0,80.0
336,65.22995395625,65.8045330125,64.0,84.0
337,65.48205445625,65.91902865625,47.0,77.0
338,65.73415495625001,66.12701156875,52.0,98.0
339,66.23835595625,66.31608694375001,52.0,83.0
340,65.98625545625,66.36860788125,47.0,81.0
341,65.22995395625,66.42953216875,40.0,83.0
342,66.23835595625,66.66272513125,59.0,82.0
343,66.49045645625,66.75306114375,52.0,89.0
344,66.23835595625,66.77406951875,64.0,83.0
345,66.74255695625,67.04087588125,57.0,79.0
346,66.99465745625,67.36860653125001,52.0,75.0
347,67.24675795625001,67.55348023125,57.0,86.0
348,67.24675795625001,67.56398441875001,60.0,86.0
349,67.49885845625,67.74255560625001,52.0,81.0
350,66.74255695625,67.76986649375,45.0,83.0
351,67.75095895625,67.88121088125,60.0,86.0
352,67.75095895625,67.89066465,64.0,87.0
353,68.25515995625,68.474697475,57.0,82.0
354,68.25515995625,68.76986514375001,62.0,80.0
355,68.75936095625,69.06608323125,57.0,82.0
356,69.01146145625,69.12595710000001,62.0,77.0
357,68.50726045625001,69.35599880625,45.0,71.0
358,69.26356195625,69.3633517375,57.0,83.0
359,68.25515995625,69.38541053125,38.0,85.0
360,69.26356195625,69.54717501875,62.0,87.0
361,69.26356195625,69.54927585625,66.0,88.0
362,69.51566245625,69.5986455375,57.0,82.0
363,69.76776295625001,70.121754075,55.0,82.0
364,69.76776295625001,70.16061956875001,59.0,80.0
365,70.27196395625,70.32658573125,59.0,77.0
366,70.27196395625,70.64171135625,55.0,82.0
367,70.77616495625,70.8738539,55.0,84.0
368,70.01986345625001,70.92532441875001,50.0,75.0
369,69.76776295625001,71.0650301125,43.0,80.0
370,70.77616495625,71.17637450000001,59.0,85.0
371,71.02826545625,71.197382875,55.0,82.0
372,70.77616495625,71.2583071625,62.0,82.0
373,71.53246645625,71.69213010625,59.0,73.0
374,71.78456695625,71.92952474375001,59.0,83.0
375,71.78456695625,72.04086913125,63.0,79.0
376,71.28036595625001,72.1364572375,47.0,83.0
377,71.78456695625,72.14801184375,66.0,77.0
378,72.03666745625,72.20683529375,59.0,77.0
379,72.28876795625,72.4032636,59.0,83.0
380,72.28876795625,72.604944,63.0,88.0
381,72.28876795625,72.63120446875,66.0,81.0
382,72.54086845625001,72.66901954375,59.0,84.0
383,72.79296895625001,73.10809458125,60.0,80.0
384,72.79296895625001,73.11649793125001,57.0,76.0
385,73.29716995625,73.47994281875,60.0,84.0
386,73.29716995625,73.50515286875,64.0,85.0
387,73.54927045625,73.65851400625,57.0,71.0
388,73.80137095625,73.93582455625,60.0,81.0
389,73.80137095625,73.94632874375,64.0,81.0
390,72.79296895625001,74.1658662625,45.0,83.0
391,73.04506945625,74.1826729625,52.0,77.0
392,74.30557195625,74.6028404625,69.0,83.0
393,74.05347145625001,74.6490588875,57.0,83.0
394,74.30557195625,74.66586558750001,60.0,75.0
395,74.80977295625,74.88120143125,57.0,72.0
396,74.55767245625,74.94632739375001,52.0,74.0
397,74.80977295625,75.08078099375,64.0,83.0
398,74.80977295625,75.10809188125,60.0,84.0
399,75.06187345625,75.41796541250001,52.0,82.0
400,75.31397395625001,75.43687295000001,57.0,81.0
401,75.31397395625001,75.47994011875001,60.0,84.0
402,75.31397395625001,75.50094849375,64.0,86.0
403,74.30557195625,75.617544975,45.0,84.0
404,75.56607445625,75.70052805625001,52.0,80.0
405,75.81817495625,75.9851915375,59.0,82.0
406,75.81817495625,76.13119974375,63.0,78.0
407,76.07027545625,76.3507372625,59.0,87.0
408,75.81817495625,76.55766975625001,47.0,84.0
409,76.32237595625,76.63750158125,63.0,88.0
410,76.57447645625,76.743593875,59.0,87.0
411,76.82657695625001,76.92111464375,59.0,84.0
412,76.82657695625001,77.3003158125,63.0,91.0
413,76.82657695625001,77.3675426125,66.0,83.0
414,76.82657695625001,77.3843493125,71.0,83.0
415,77.07867745625,77.46523155625,59.0,83.0
416,77.83497895625,78.00934846875,55.0,88.0
417,78.08707945625001,78.21102886875,59.0,96.0
418,77.58287845625,78.49464193125,47.0,82.0
419,77.33077795625,78.5209024,40.0,93.0
420,78.33917995625,78.70472568125,64.0,88.0
421,78.84338095625,79.15640574375,57.0,82.0
422,78.84338095625,79.37489284375,60.0,82.0
423,79.34758195625001,79.7309848,57.0,81.0
424,79.59968245625001,79.743589825,60.0,83.0
425,79.85178295625,79.94001813125,57.0,76.0
426,79.85178295625,80.14484978750001,60.0,83.0
427,79.09548145625,80.19211863125,52.0,75.0
428,80.10388345625,80.2288832875,57.0,78.0
429,78.84338095625,80.24148831250001,45.0,83.0
430,79.85178295625,80.24358915,64.0,84.0
431,80.35598395625,80.4704796,57.0,83.0
432,80.35598395625,80.651151625,62.0,83.0
433,80.60808445625,80.89694961250001,57.0,83.0
434,80.86018495625001,81.1826635125,62.0,81.0
435,81.11228545625,81.2666970125,57.0,75.0
436,81.36438595625,81.4683774125,57.0,83.0
437,80.35598395625,81.5902259875,50.0,82.0
438,81.36438595625,81.65535195000001,62.0,86.0
439,81.36438595625,81.6658561375,66.0,86.0
440,81.61648645625,81.74148628750001,57.0,83.0
441,81.86858695625,82.3381241375,55.0,79.0
442,81.86858695625,82.39799800625,59.0,78.0
443,82.37278795625001,82.6952665125,62.0,80.0
444,82.62488845625,82.8213167625,55.0,79.0
445,82.87698895625,82.94946785,55.0,72.0
446,82.12068745625001,83.130139875,50.0,76.0
447,81.86858695625,83.17740871875,43.0,82.0
448,82.87698895625,83.40429916875,67.0,80.0
449,82.87698895625,83.42320670625,62.0,82.0
450,82.87698895625,83.42950921875,59.0,82.0
451,83.12908945625,83.44001340625,55.0,83.0
452,83.88539095625,84.23833165625,52.0,83.0
453,84.13749145625,84.27194505625,55.0,84.0
454,84.38959195625,84.46627252500001,52.0,82.0
455,83.63329045625001,84.5860202625,47.0,76.0
456,83.38118995625,84.62488575625001,40.0,91.0
457,84.38959195625,84.701566325,55.0,86.0
458,84.64169245625,84.80135610625,52.0,83.0
459,84.38959195625,84.81816280625,59.0,84.0
460,84.89379295625001,85.07656581875,52.0,85.0
461,84.89379295625001,85.19001104375,57.0,77.0
462,85.39799395625,85.55450635000001,57.0,83.0
463,85.39799395625,85.67320366875,60.0,79.0
464,85.65009445625,85.80975810625,57.0,77.0
465,85.90219495625,86.05135441875001,60.0,85.0
466,84.89379295625001,86.0608081875,45.0,83.0
467,85.14589345625001,86.07026195625001,52.0,73.0
468,85.90219495625,86.07656446875001,64.0,85.0
469,86.40639595625001,86.53034536875,59.0,83.0
470,86.40639595625001,86.709966975,63.0,78.0
471,86.65849645625,86.91689946875,59.0,83.0
472,86.40639595625001,87.2246721625,47.0,84.0
473,86.91059695625,87.2435797,66.0,85.0
474,87.16269745625,87.39484,59.0,88.0
475,87.41479795625,87.6469405,71.0,85.0
476,87.66689845625001,87.7624865625,59.0,86.0
477,87.91899895625001,88.281393425,52.0,82.0
478,87.91899895625001,88.348620225,55.0,76.0
479,88.42319995625,88.70681301875,55.0,82.0
480,88.67530045625,88.8507203875,52.0,87.0
481,88.92740095625001,89.3969381375,52.0,87.0
482,88.92740095625001,89.43370279375,59.0,86.0
483,88.17109945625,89.46626577500001,47.0,75.0
484,87.91899895625001,89.46941703125,40.0,84.0
485,89.43160195625,89.46941703125,40.0,84.0
486,89.93580295625,90.04504650625,52.0,78.0
487,89.93580295625,90.06710530000001,55.0,77.0
488,90.44000395625001,90.52193661875,55.0,69.0
489,90.44000395625001,90.54294499375,59.0,83.0
490,91.44840595625,91.72571650625001,55.0,79.0
491,91.44840595625,91.726766925,59.0,83.0
492,91.44840595625,91.7330694375,64.0,86.0
493,91.70050645625001,91.97151449375,52.0,84.0
494,91.19630545625,92.0229850125,47.0,70.0
495,90.94420495625,92.04924548125001,40.0,78.0
496,91.95260695625001,92.35596775625001,55.0,83.0
497,92.20470745625,92.40008534375,52.0,84.0
498,91.95260695625001,92.42844665,59.0,82.0
499,92.96100895625,93.06605083125001,57.0,75.0
500,92.96100895625,93.25722704375,60.0,77.0
501,93.21310945625001,93.29924379375001,57.0,61.0
502,92.70890845625,93.625924025,52.0,72.0
503,92.45680795625,93.63327695625,45.0,82.0
504,93.46520995625,93.88957913125,60.0,83.0
505,93.46520995625,93.92529336875,64.0,82.0
506,94.22151145625,94.4179397625,59.0,81.0
507,93.96941095625,94.6532335625,47.0,83.0
508,94.47361195625001,94.99987175000001,63.0,78.0
509,94.72571245625001,95.00302300625,59.0,58.0
510,94.47361195625001,95.02508180000001,66.0,78.0
511,94.97781295625,95.09230860000001,54.0,81.0
512,95.48201395625,95.84545884375001,60.0,77.0
513,95.48201395625,95.87487056875,57.0,74.0
514,95.98621495625001,96.13957609375001,60.0,79.0
515,95.98621495625001,96.25932383125,64.0,82.0
516,96.23831545625,96.34755900625001,57.0,72.0
517,96.49041595625,96.56814694375001,57.0,78.0
518,96.49041595625,96.57444945625001,60.0,83.0
519,96.49041595625,96.57444945625001,64.0,83.0
520,95.73411445625,96.6238191375,52.0,75.0
521,95.48201395625,96.65007960625,45.0,83.0
522,97.49881795625001,97.80659065,57.0,82.0
523,97.75091845625,97.9011283375,60.0,84.0
524,98.00301895625,98.113312925,57.0,76.0
525,97.24671745625001,98.197346425,52.0,76.0
526,96.99461695625,98.222556475,45.0,82.0
527,98.00301895625,98.2960857875,60.0,83.0
528,98.25511945625,98.46520320625001,57.0,82.0
529,98.00301895625,98.47780823125001,64.0,84.0
530,98.50721995625001,99.25721894375,47.0,84.0
531,99.01142095625,99.289781925,63.0,82.0
532,99.26352145625,99.38642045,59.0,82.0
533,99.01142095625,99.41898343125,66.0,79.0
534,99.51562195625,99.6301176,54.0,73.0
535,99.76772245625,99.90637773125,59.0,83.0
536,100.01982295625001,100.17108325625,59.0,78.0
537,100.01982295625001,100.33179732500001,64.0,82.0
538,100.27192345625001,100.4095283125,59.0,77.0
539,100.52402395625,100.71835142500001,64.0,84.0
540,100.52402395625,100.77927571250001,67.0,80.0
541,101.02822495625,101.11856096875,59.0,81.0
542,101.02822495625,101.16793065,67.0,77.0
543,101.02822495625,101.17528358125,64.0,84.0
544,100.01982295625001,101.28872880625,40.0,83.0
545,101.28032545625001,101.36856063125,59.0,77.0
546,101.53242595625001,101.64797201875001,59.0,82.0
547,101.53242595625001,101.8465011625,64.0,84.0
548,101.78452645625,102.12906380625,59.0,77.0
549,102.03662695625,102.35385341875,64.0,82.0
550,102.28872745625,102.42738273125,59.0,83.0
551,102.54082795625,102.87486111875,68.0,86.0
552,101.53242595625001,102.8759115375,40.0,87.0
553,102.54082795625,102.87696195625,64.0,87.0
554,102.79292845625001,103.10805408125,59.0,82.0
555,103.04502895625001,103.36960835000001,64.0,82.0
556,103.04502895625001,103.3885158875,68.0,76.0
557,103.29712945625,103.5733895875,59.0,77.0
558,103.54922995625,103.84649846250001,68.0,73.0
559,103.54922995625,103.86855725625,64.0,74.0
560,103.80133045625,103.953641175,59.0,76.0
561,103.04502895625001,104.13116194375,40.0,86.0
562,104.05343095625001,104.3002793625,64.0,86.0
563,104.05343095625001,104.3338927625,68.0,87.0
564,104.30553145625001,104.39376663125,59.0,84.0
565,104.55763195625,104.86645506875,57.0,70.0
566,104.55763195625,104.93263145,60.0,62.0
567,105.06183295625,105.19838739375001,57.0,77.0
568,105.06183295625,105.32863931875,60.0,67.0
569,105.31393345625,105.47149626875,57.0,76.0
570,105.56603395625001,105.74460514375001,60.0,83.0
571,104.80973245625,105.82443696875,52.0,82.0
572,104.55763195625,105.85699995,45.0,82.0
573,105.81813445625001,105.8633024625,60.0,46.0
574,105.56603395625001,105.8633024625,64.0,85.0
575,105.81813445625001,105.94208386875,57.0,74.0
576,106.07023495625,106.44523445,59.0,73.0
577,106.07023495625,106.449436125,55.0,73.0
578,106.57443595625,106.73409960625,59.0,83.0
579,106.57443595625,106.88851116250001,62.0,82.0
580,106.32233545625,106.91477163125,50.0,68.0
581,106.82653645625001,106.92107414375,55.0,82.0
582,106.07023495625,106.98830094375,43.0,79.0
583,107.07863695625001,107.1910317625,59.0,82.0
584,107.07863695625001,107.19208218125,62.0,78.0
585,107.83493845625,108.1511145,59.0,80.0
586,107.58283795625,108.3801057875,47.0,84.0
587,108.08703895625001,108.4767443125,67.0,82.0
588,108.33913945625001,108.634307125,59.0,78.0
589,108.59123995625,108.84123961875001,66.0,83.0
590,108.84334045625,108.936827725,59.0,84.0
591,109.09544095625,109.50720510625001,64.0,72.0
592,109.09544095625,109.51455803750001,57.0,70.0
593,109.59964195625001,109.7498518375,60.0,73.0
594,109.59964195625001,109.77296105,64.0,82.0
595,109.85174245625001,109.94838098125001,57.0,39.0
596,110.10384295625,110.18577561875,57.0,79.0
597,109.09544095625,110.3885064375,45.0,82.0
598,109.34754145625,110.42106941875001,52.0,72.0
599,110.10384295625,110.46518700625,60.0,84.0
600,110.35594345625,110.50930459375,57.0,75.0
601,110.10384295625,110.51140543125001,64.0,83.0
602,110.86014445625001,110.987245125,59.0,74.0
603,111.11224495625001,111.41476555625,63.0,78.0
604,111.11224495625001,111.42316890625001,66.0,81.0
605,110.60804395625,111.52085785,47.0,86.0
606,111.61644595625,111.72779034375,59.0,78.0
607,111.61644595625,111.84963891875,63.0,82.0
608,111.61644595625,111.93997493125,66.0,77.0
609,111.86854645625,112.0103529875,59.0,81.0
610,112.12064695625,112.27610893125001,59.0,78.0
611,112.12064695625,112.45362970000001,64.0,83.0
612,112.62484795625001,112.93157023125,67.0,86.0
613,112.87694845625,113.00089786875,59.0,89.0
614,113.12904895625,113.37169568750001,66.0,88.0
615,113.38114945625,113.49459468125,59.0,79.0
616,112.37274745625001,113.57652734375,47.0,69.0
617,112.12064695625,113.60278781250001,40.0,86.0
618,114.13745095625,114.24669450625001,52.0,78.0
619,114.13745095625,114.2687533,55.0,77.0
620,114.64165195625,114.72358461875001,55.0,69.0
621,114.64165195625,114.74459299375,59.0,83.0
622,113.63324995625001,114.90110538750001,40.0,84.0
623,115.65005395625,115.92736450625,55.0,79.0
624,115.65005395625,115.92841492500001,59.0,83.0
625,115.65005395625,115.93471743750001,64.0,86.0
626,115.90215445625,116.17316249375,52.0,84.0
627,115.39795345625001,116.22463301250001,47.0,70.0
628,115.14585295625001,116.25089348125,40.0,78.0
629,116.15425495625,116.55761575625,55.0,83.0
630,116.40635545625001,116.60173334375,52.0,84.0
631,116.15425495625,116.63009465,59.0,82.0
632,117.16265695625,117.26769883125,57.0,75.0
633,117.16265695625,117.45887504375001,60.0,77.0
634,117.41475745625,117.50089179375,57.0,61.0
635,116.91055645625,117.82757202500001,52.0,72.0
636,116.65845595625001,117.83492495625,45.0,82.0
637,117.66685795625,118.09122713125001,60.0,83.0
638,117.66685795625,118.12694136875001,64.0,82.0
639,118.42315945625,118.6195877625,59.0,81.0
640,118.17105895625001,118.85488156250001,47.0,83.0
641,118.67525995625,119.20151975,63.0,78.0
642,118.92736045625,119.20467100625001,59.0,58.0
643,118.67525995625,119.2267298,66.0,78.0
644,119.17946095625001,119.2939566,54.0,81.0
645,119.68366195625,120.04710684375,60.0,77.0
646,119.68366195625,120.07651856875,57.0,74.0
647,120.18786295625,120.34122409375,60.0,79.0
648,120.18786295625,120.46097183125,64.0,82.0
649,120.43996345625001,120.54920700625,57.0,72.0
650,120.69206395625001,120.76979494375,57.0,78.0
651,120.69206395625001,120.77609745625,60.0,83.0
652,120.69206395625001,120.77609745625,64.0,83.0
653,119.93576245625,120.82546713750001,52.0,75.0
654,119.68366195625,120.85172760625001,45.0,83.0
655,121.70046595625,122.00823865000001,57.0,82.0
656,121.95256645625001,122.1027763375,60.0,84.0
657,122.20466695625001,122.31496092500001,57.0,76.0
658,121.44836545625,122.39899442500001,52.0,76.0
659,121.19626495625,122.42420447500001,45.0,82.0
660,122.20466695625001,122.49773378750001,60.0,83.0
661,122.45676745625,122.66685120625,57.0,82.0
662,122.20466695625001,122.67945623125,64.0,84.0
663,122.70886795625,123.45886694375001,47.0,84.0
664,123.21306895625001,123.491429925,63.0,82.0
665,123.46516945625001,123.58806845000001,59.0,82.0
666,123.21306895625001,123.62063143125,66.0,79.0
667,123.71726995625001,123.83239779583333,54.0,73.0
668,123.97116909791667,124.11099972291666,59.0,83.0
669,124.22540659791666,124.37794909791667,59.0,78.0
670,124.22540659791666,124.54002550416666,64.0,82.0
671,124.47964409791666,124.6184154,59.0,77.0
672,124.73388159791666,124.9298563375,64.0,84.0
673,124.73388159791666,124.99129706666666,67.0,80.0
674,125.24235659791667,125.33345836875,59.0,81.0
675,125.24235659791667,125.38324654583333,67.0,77.0
676,125.24235659791667,125.39066180625,64.0,84.0
677,124.22540659791666,125.50506868125,40.0,83.0
678,125.49659409791667,125.58557722291667,59.0,77.0
679,125.75083159791667,125.86735711875,59.0,82.0
680,125.75083159791667,126.06756915,64.0,84.0
681,126.00506909791666,126.35252701458333,59.0,77.0
682,126.25930659791666,126.57922211875,64.0,82.0
683,126.51354409791666,126.65337472291667,59.0,83.0
684,126.76778159791667,127.10464628541666,68.0,86.0
685,125.75083159791667,127.10570560833334,40.0,87.0
686,126.76778159791667,127.10676493125,64.0,87.0
687,127.02201909791667,127.33981597291667,59.0,82.0
688,127.27625659791667,127.60358737916667,64.0,82.0
689,127.27625659791667,127.62265519166667,68.0,76.0
690,127.53049409791667,127.809096025,59.0,77.0
691,127.78473159791666,128.08451998333334,68.0,73.0
692,127.78473159791666,128.10676576458334,64.0,74.0
693,128.03896909791666,128.19257092083333,59.0,76.0
694,127.27625659791667,128.37159649375,40.0,86.0
695,128.29320659791668,128.54214748333334,64.0,86.0
696,128.29320659791668,128.57604581666666,68.0,87.0
697,128.54744409791667,128.63642722291667,59.0,84.0
698,128.80168159791666,129.11312253541666,57.0,70.0
699,128.80168159791666,129.17985987916666,60.0,62.0
700,129.31015659791666,129.44786857708334,57.0,77.0
701,129.31015659791666,129.57922461875,60.0,67.0
702,129.56439409791668,129.72329253541668,57.0,76.0
703,129.81863159791666,129.99871649375,60.0,83.0
704,129.05591909791667,130.07922503541667,52.0,82.0
705,128.80168159791666,130.11206404583334,45.0,82.0
706,130.07286909791668,130.11841998333333,60.0,46.0
707,129.81863159791666,130.11841998333333,64.0,85.0
708,130.07286909791668,130.19786920208333,57.0,74.0
709,130.32710659791667,130.70528487916667,59.0,73.0
710,130.32710659791667,130.70952217083334,55.0,73.0
711,130.83558159791667,130.99659868125,59.0,83.0
712,130.83558159791667,131.15231915,62.0,82.0
713,130.58134409791666,131.17880222291666,50.0,68.0
714,131.08981909791666,131.18515816041668,55.0,82.0
715,130.32710659791667,131.25295482708333,43.0,79.0
716,131.34405659791668,131.45740415,59.0,82.0
717,131.34405659791668,131.45846347291666,62.0,78.0
718,132.10676909791667,132.42562529583333,59.0,80.0
719,131.85253159791665,132.65655769166668,47.0,84.0
720,132.36100659791666,132.75401540000001,63.0,82.0
721,132.61524409791667,132.9129138375,59.0,78.0
722,132.86948159791666,133.00083763958332,54.0,83.0
723,133.12371909791668,133.2179988375,59.0,84.0
724,133.37795659791666,133.79061116458334,60.0,72.0
725,133.37795659791666,133.79796409583335,57.0,70.0
726,133.88304801458335,134.03325789583334,60.0,73.0
727,133.88304801458335,134.05636710833335,64.0,82.0
728,134.13514851458334,134.23178703958334,57.0,39.0
729,134.38724901458335,134.46918167708333,57.0,79.0
730,133.37795659791666,134.67191249583334,45.0,82.0
731,133.63094751458334,134.70447547708335,52.0,72.0
732,134.38724901458335,134.74859306458333,60.0,84.0
733,134.63934951458333,134.79271065208334,57.0,75.0
734,134.38724901458335,134.79481148958334,64.0,83.0
735,135.14355051458335,135.27065118333334,59.0,74.0
736,135.39565101458334,135.69817161458334,63.0,78.0
737,135.39565101458334,135.70657496458335,66.0,81.0
738,134.89145001458334,135.80426390833335,47.0,86.0
739,135.89985201458333,136.01119640208333,59.0,78.0
740,135.89985201458333,136.13304497708333,63.0,82.0
741,135.89985201458333,136.22338098958335,66.0,77.0
742,136.15195251458334,136.29375904583335,59.0,81.0
743,136.40405301458335,136.55951498958333,59.0,78.0
744,136.40405301458335,136.73703575833335,64.0,83.0
745,136.90825401458335,137.21497628958335,67.0,86.0
746,137.16035451458333,137.28430392708333,59.0,89.0
747,137.41245501458334,137.65510174583335,66.0,88.0
748,137.66455551458336,137.77800073958335,59.0,79.0
749,136.65615351458334,137.85993340208333,47.0,69.0
750,136.40405301458335,137.88619387083335,40.0,86.0
751,137.91665601458334,138.20762200833335,52.0,80.0
752,137.91665601458334,138.49123507083334,64.0,84.0
753,138.16875651458335,138.60573071458333,47.0,77.0
754,138.42085701458333,138.81371362708333,52.0,98.0
755,138.92505801458333,139.00278900208335,52.0,83.0
756,138.67295751458335,139.05530993958334,47.0,81.0
757,137.91665601458334,139.11623422708334,40.0,83.0
758,138.92505801458333,139.34942718958334,59.0,82.0
759,139.17715851458334,139.43976320208333,52.0,89.0
760,138.92505801458333,139.46077157708334,64.0,83.0
761,139.42925901458335,139.72757793958334,57.0,79.0
762,139.68135951458333,140.05530858958335,52.0,75.0
763,139.93346001458335,140.24018228958334,57.0,86.0
764,139.93346001458335,140.25068647708335,60.0,86.0
765,140.18556051458333,140.42925766458333,52.0,81.0
766,139.42925901458335,140.45656855208335,45.0,83.0
767,140.43766101458334,140.56791293958335,60.0,86.0
768,140.43766101458334,140.57736670833333,64.0,87.0
769,140.94186201458334,141.16139953333334,57.0,82.0
770,140.94186201458334,141.45656720208333,62.0,80.0
771,141.44606301458333,141.75278528958333,57.0,82.0
772,141.69816351458334,141.81265915833333,62.0,77.0
773,141.19396251458335,142.04270086458334,45.0,71.0
774,141.95026401458335,142.05005379583335,57.0,83.0
775,140.94186201458334,142.07211258958336,38.0,85.0
776,141.95026401458335,142.23387707708335,62.0,87.0
777,141.95026401458335,142.23597791458334,66.0,88.0
778,142.20236451458334,142.28534759583334,57.0,82.0
779,142.45446501458335,142.80845613333335,55.0,82.0
780,142.45446501458335,142.84732162708335,59.0,80.0
781,142.95866601458334,143.01328778958333,59.0,77.0
782,142.95866601458334,143.32841341458334,55.0,82.0
783,143.46286701458334,143.56055595833334,55.0,84.0
784,142.70656551458333,143.61202647708333,50.0,75.0
785,142.45446501458335,143.75173217083335,43.0,80.0
786,143.46286701458334,143.86307655833335,59.0,85.0
787,143.71496751458335,143.88408493333333,55.0,82.0
788,143.46286701458334,143.94500922083336,62.0,82.0
789,144.21916851458334,144.37883216458334,59.0,73.0
790,144.47126901458336,144.61622680208333,59.0,83.0
791,144.47126901458336,144.72757118958333,63.0,79.0
792,143.96706801458333,144.82315929583334,47.0,83.0
793,144.47126901458336,144.83471390208334,66.0,77.0
794,144.72336951458334,144.89353735208334,59.0,77.0
795,144.97547001458335,145.08996565833334,59.0,83.0
796,144.97547001458335,145.29164605833336,63.0,88.0
797,144.97547001458335,145.31790652708335,66.0,81.0
798,145.22757051458333,145.35572160208335,59.0,84.0
799,145.47967101458335,145.79479663958335,60.0,80.0
800,145.47967101458335,145.80319998958333,57.0,76.0
801,145.98387201458334,146.16664487708334,60.0,84.0
802,145.98387201458334,146.19185492708334,64.0,85.0
803,146.23597251458335,146.34521606458335,57.0,71.0
804,146.48807301458334,146.62252661458334,60.0,81.0
805,146.48807301458334,146.63303080208334,64.0,81.0
806,145.47967101458335,146.85256832083334,45.0,83.0
807,145.73177151458333,146.86937502083333,52.0,77.0
808,146.99227401458333,147.28954252083335,69.0,83.0
809,146.74017351458335,147.33576094583333,57.0,83.0
810,146.99227401458333,147.35256764583335,60.0,75.0
811,147.49647501458335,147.56790348958333,57.0,72.0
812,147.24437451458334,147.63302945208335,52.0,74.0
813,147.49647501458335,147.76748305208335,64.0,83.0
814,147.49647501458335,147.79479393958334,60.0,84.0
815,147.74857551458334,148.10466747083333,52.0,82.0
816,148.00067601458335,148.12357500833335,57.0,81.0
817,148.00067601458335,148.16664217708333,60.0,84.0
818,148.00067601458335,148.18765055208334,64.0,86.0
819,146.99227401458333,148.30424703333335,45.0,84.0
820,148.25277651458333,148.38723011458333,52.0,80.0
821,148.50487701458334,148.67189359583335,59.0,82.0
822,148.50487701458334,148.81790180208333,63.0,78.0
823,148.75697751458335,149.03743932083333,59.0,87.0
824,148.50487701458334,149.24437181458333,47.0,84.0
825,149.00907801458334,149.32420363958335,63.0,88.0
826,149.26117851458335,149.43029593333335,59.0,87.0
827,149.51327901458333,149.60781670208334,59.0,84.0
828,149.51327901458333,149.98701787083334,63.0,91.0
829,149.51327901458333,150.05424467083333,66.0,83.0
830,149.51327901458333,150.07105137083335,71.0,83.0
831,149.76537951458334,150.15193361458336,59.0,83.0
832,150.52168101458335,150.69605052708334,55.0,88.0
833,150.77378151458333,150.85781501458334,59.0,96.0
834,150.26958051458334,151.18134398958335,47.0,82.0
835,150.01748001458333,151.20760445833335,40.0,93.0
836,151.02588201458335,151.39142773958335,64.0,88.0
837,151.53008301458334,151.84310780208335,57.0,82.0
838,151.53008301458334,152.06159490208336,60.0,82.0
839,152.03428401458333,152.41768685833335,57.0,81.0
840,152.28638451458335,152.43029188333335,60.0,83.0
841,152.53848501458333,152.62672018958335,57.0,76.0
842,152.53848501458333,152.83155184583333,60.0,83.0
843,151.78218351458335,152.87882068958334,52.0,75.0
844,152.79058551458334,152.91558534583334,57.0,78.0
845,151.53008301458334,152.92819037083333,45.0,83.0
846,152.53848501458333,152.93029120833333,64.0,84.0
847,153.04268601458335,153.15718165833334,57.0,83.0
848,153.04268601458335,153.33785368333335,62.0,83.0
849,153.29478651458334,153.58365167083335,57.0,83.0
850,153.54688701458335,153.86936557083334,62.0,81.0
851,153.79898751458333,153.95339907083334,57.0,75.0
852,154.05108801458334,154.15507947083336,57.0,83.0
853,153.04268601458335,154.27692804583333,50.0,82.0
854,154.05108801458334,154.34205400833335,62.0,86.0
855,154.05108801458334,154.35255819583335,66.0,86.0
856,154.30318851458333,154.42818834583335,57.0,83.0
857,154.55528901458334,155.02482619583333,55.0,79.0
858,154.55528901458334,155.08470006458333,59.0,78.0
859,155.05949001458333,155.38196857083335,62.0,80.0
860,155.31159051458334,155.50801882083334,55.0,79.0
861,155.56369101458336,155.63616990833333,55.0,72.0
862,154.80738951458335,155.81684193333334,50.0,76.0
863,154.55528901458334,155.86411077708334,43.0,82.0
864,155.56369101458336,156.09100122708335,67.0,80.0
865,155.56369101458336,156.10990876458334,62.0,82.0
866,155.56369101458336,156.11621127708335,59.0,82.0
867,155.81579151458334,156.12671546458336,55.0,83.0
868,156.57209301458334,156.92503371458335,52.0,83.0
869,156.82419351458333,156.95864711458336,55.0,84.0
870,157.07629401458334,157.15297458333333,52.0,82.0
871,156.31999251458333,157.27272232083334,47.0,76.0
872,156.06789201458335,157.31158781458333,40.0,91.0
873,157.07629401458334,157.38826838333335,55.0,86.0
874,157.32839451458335,157.48805816458335,52.0,83.0
875,157.07629401458334,157.50486486458334,59.0,84.0
876,157.58049501458333,157.76326787708334,52.0,85.0
877,157.58049501458333,157.87671310208333,57.0,77.0
878,158.08469601458336,158.24120840833334,57.0,83.0
879,158.08469601458336,158.35990572708334,60.0,79.0
880,158.33679651458334,158.49646016458334,57.0,77.0
881,158.58889701458335,158.73805647708335,60.0,85.0
882,157.58049501458333,158.74751024583335,45.0,83.0
883,157.83259551458335,158.75696401458333,52.0,73.0
884,158.58889701458335,158.76326652708335,64.0,85.0
885,159.09309801458335,159.21704742708334,59.0,83.0
886,159.09309801458335,159.39666903333335,63.0,78.0
887,159.34519851458333,159.60360152708336,59.0,83.0
888,159.09309801458335,159.91137422083335,47.0,84.0
889,159.59729901458334,159.93028175833334,66.0,85.0
890,159.84939951458335,160.08154205833335,59.0,88.0
891,160.10150001458334,160.33364255833334,71.0,85.0
892,160.35360051458335,160.44918862083335,59.0,86.0
893,160.60570101458333,160.96809548333334,52.0,82.0
894,160.60570101458333,161.03532228333336,55.0,76.0
895,161.10990201458333,161.39351507708335,55.0,82.0
896,161.36200251458334,161.53742244583333,52.0,87.0
897,161.61410301458335,162.08364019583334,52.0,87.0
898,161.61410301458335,162.12040485208334,59.0,86.0
899,160.85780151458334,162.15296783333335,47.0,75.0
900,160.60570101458333,162.15611908958334,40.0,84.0
901,162.11830401458334,162.15611908958334,40.0,84.0
902,162.62250501458334,162.73174856458334,52.0,78.0
903,162.62250501458334,162.75380735833335,55.0,77.0
904,163.12670601458333,163.20863867708334,55.0,69.0
905,163.12670601458333,163.22964705208335,59.0,83.0
906,164.13510801458335,164.41241856458333,55.0,79.0
907,164.13510801458335,164.41346898333333,59.0,83.0
908,164.13510801458335,164.41977149583334,64.0,86.0
909,164.38720851458334,164.65821655208333,52.0,84.0
910,163.88300751458334,164.70968707083335,47.0,70.0
911,163.63090701458333,164.73594753958335,40.0,78.0
912,164.63930901458335,165.04266981458335,55.0,83.0
913,164.89140951458333,165.08678740208333,52.0,84.0
914,164.63930901458335,165.11514870833335,59.0,82.0
915,165.64771101458334,165.75275288958335,57.0,75.0
916,165.64771101458334,165.94392910208336,60.0,77.0
917,165.89981151458335,165.98594585208335,57.0,61.0
918,165.39561051458335,166.31262608333333,52.0,72.0
919,165.14351001458334,166.31997901458334,45.0,82.0
920,166.15191201458333,166.57628118958334,60.0,83.0
921,166.15191201458333,166.61199542708334,64.0,82.0
922,166.90821351458334,167.10464182083334,59.0,81.0
923,166.65611301458335,167.33993562083333,47.0,83.0
924,167.16031401458335,167.68657380833335,63.0,78.0
925,167.41241451458333,167.68972506458334,59.0,58.0
926,167.16031401458335,167.71178385833335,66.0,78.0
927,167.66451501458334,167.77901065833333,54.0,81.0
928,168.16871601458334,168.53216090208335,60.0,77.0
929,168.16871601458334,168.56157262708334,57.0,74.0
930,168.67291701458333,168.82627815208335,60.0,79.0
931,168.67291701458333,168.94602588958332,64.0,82.0
932,168.92501751458335,169.03426106458335,57.0,72.0
933,169.17711801458336,169.25484900208335,57.0,78.0
934,169.17711801458336,169.26115151458333,60.0,83.0
935,169.17711801458336,169.26115151458333,64.0,83.0
936,168.42081651458335,169.31052119583336,52.0,75.0
937,168.16871601458334,169.33678166458333,45.0,83.0
938,170.18552001458335,170.49329270833334,57.0,82.0
939,170.43762051458333,170.58783039583335,60.0,84.0
940,170.68972101458334,170.80001498333334,57.0,76.0
941,169.93341951458333,170.88404848333334,52.0,76.0
942,169.68131901458335,170.90925853333334,45.0,82.0
943,170.68972101458334,170.98278784583334,60.0,83.0
944,170.94182151458335,171.15190526458335,57.0,82.0
945,170.68972101458334,171.16451028958335,64.0,84.0
946,171.19392201458334,171.94392100208336,47.0,84.0
947,171.69812301458336,171.97648398333334,63.0,82.0
948,171.95022351458334,172.07312250833334,59.0,82.0
949,171.69812301458336,172.10568548958335,66.0,79.0
950,172.20232401458333,172.31681965833334,54.0,73.0
951,172.45442451458334,172.59307978958333,59.0,83.0
952,172.70652501458335,172.85778531458334,59.0,78.0
953,172.70652501458335,173.01849938333334,64.0,82.0
954,172.95862551458333,173.09623037083333,59.0,77.0
955,173.21072601458334,173.40505348333335,64.0,84.0
956,173.21072601458334,173.46597777083335,67.0,80.0
957,173.71492701458334,173.80526302708336,59.0,81.0
958,173.71492701458334,173.85463270833333,67.0,77.0
959,173.71492701458334,173.86198563958334,64.0,84.0
960,172.70652501458335,173.97543086458336,40.0,83.0
961,173.96702751458335,174.05526268958334,59.0,77.0
962,174.21912801458333,174.33467407708335,59.0,82.0
963,174.21912801458333,174.53320322083334,64.0,84.0
964,174.47122851458334,174.81576586458334,59.0,77.0
965,174.72332901458333,175.04055547708333,64.0,82.0
966,174.97542951458334,175.11408478958333,59.0,83.0
967,175.22753001458335,175.56156317708334,68.0,86.0
968,174.21912801458333,175.56261359583334,40.0,87.0
969,175.22753001458335,175.56366401458334,64.0,87.0
970,175.47963051458333,175.79475613958334,59.0,82.0
971,175.73173101458335,176.05631040833333,64.0,82.0
972,175.73173101458335,176.07521794583334,68.0,76.0
973,175.98383151458336,176.26009164583334,59.0,77.0
974,176.23593201458334,176.53320052083333,68.0,73.0
975,176.23593201458334,176.55525931458334,64.0,74.0
976,176.48803251458335,176.64034323333334,59.0,76.0
977,175.73173101458335,176.81786400208335,40.0,86.0
978,176.74013301458334,176.98698142083333,64.0,86.0
979,176.74013301458334,177.02059482083334,68.0,87.0
980,176.99223351458335,177.08046868958334,59.0,84.0
981,177.24433401458333,177.55315712708335,57.0,70.0
982,177.24433401458333,177.61933350833334,60.0,62.0
983,177.74853501458335,177.88508945208335,57.0,77.0
984,177.74853501458335,178.01534137708336,60.0,67.0
985,178.00063551458334,178.15819832708334,57.0,76.0
986,178.25273601458335,178.43130720208336,60.0,83.0
987,177.49643451458334,178.51113902708335,52.0,82.0
988,177.24433401458333,178.54370200833336,45.0,82.0
989,178.50483651458336,178.55000452083334,60.0,46.0
990,178.25273601458335,178.55000452083334,64.0,85.0
991,178.50483651458336,178.62878592708336,57.0,74.0
992,178.75693701458334,179.13193650833335,59.0,73.0
993,178.75693701458334,179.13613818333334,55.0,73.0
994,179.26113801458334,179.42080166458334,59.0,83.0
995,179.26113801458334,179.57521322083335,62.0,82.0
996,179.00903751458333,179.60147368958334,50.0,68.0
997,179.51323851458335,179.60777620208336,55.0,82.0
998,178.75693701458334,179.67500300208334,43.0,79.0
999,179.76533901458333,179.87773382083333,59.0,82.0
1000,179.76533901458333,179.87878423958335,62.0,78.0
1001,180.52164051458334,180.83781655833334,59.0,80.0
1002,180.26954001458336,181.06680784583335,47.0,84.0
1003,180.77374101458335,181.16344637083336,63.0,82.0
1004,181.02584151458333,181.32100918333333,59.0,78.0
1005,181.27794201458335,181.40819393958333,54.0,83.0
1006,181.53004251458333,181.62352978333334,59.0,84.0
1007,181.78214301458334,182.19390716458335,60.0,72.0
1008,181.78214301458334,182.20126009583333,57.0,70.0
1009,182.28634401458334,182.43655389583336,60.0,73.0
1010,182.28634401458334,182.45966310833336,64.0,82.0
1011,182.53844451458335,182.63508303958335,57.0,39.0
1012,182.79054501458336,182.87247767708334,57.0,79.0
1013,181.78214301458334,183.07520849583335,45.0,82.0
1014,182.03424351458335,183.10777147708333,52.0,72.0
1015,182.79054501458336,183.15188906458334,60.0,84.0
1016,183.04264551458334,183.19600665208333,57.0,75.0
1017,182.79054501458336,183.19810748958335,64.0,83.0
1018,183.54684651458334,183.67394718333333,59.0,74.0
1019,183.79894701458335,184.10146761458333,63.0,78.0
1020,183.79894701458335,184.10987096458334,66.0,81.0
1021,183.29474601458335,184.20755990833334,47.0,86.0
1022,184.30314801458334,184.41449240208334,59.0,78.0
1023,184.30314801458334,184.53634097708334,63.0,82.0
1024,184.30314801458334,184.62667698958336,66.0,77.0
1025,184.55524851458335,184.69705504583334,59.0,81.0
1026,184.80734901458334,184.96281098958335,59.0,78.0
1027,184.80734901458334,185.14033175833333,64.0,83.0
1028,185.31155001458336,185.61827228958333,67.0,86.0
1029,185.56365051458334,185.68759992708334,59.0,89.0
1030,185.81575101458333,186.05839774583336,66.0,88.0
1031,186.06785151458334,186.18129673958333,59.0,79.0
1032,185.05944951458335,186.26322940208334,47.0,69.0
1033,184.80734901458334,186.28948987083334,40.0,86.0
1034,186.31995201458335,186.43549807708334,59.0,82.0
1035,186.31995201458335,186.63402722083333,64.0,84.0
1036,186.57205251458333,186.91658986458333,59.0,77.0
1037,186.82415301458335,187.14137947708335,64.0,82.0
1038,187.07625351458336,187.21490878958335,59.0,83.0
1039,187.32835401458334,187.66238717708336,68.0,86.0
1040,186.31995201458335,187.66343759583333,40.0,87.0
1041,187.32835401458334,187.66448801458336,64.0,87.0
1042,187.58045451458335,187.89558013958333,59.0,82.0
1043,187.83255501458333,188.15713440833335,64.0,82.0
1044,187.83255501458333,188.17604194583333,68.0,76.0
1045,188.08465551458335,188.36091564583336,59.0,77.0
1046,188.33675601458333,188.63402452083335,68.0,73.0
1047,188.33675601458333,188.65608331458333,64.0,74.0
1048,188.58885651458334,188.74116723333333,59.0,76.0
1049,187.83255501458333,188.91868800208334,40.0,86.0
1050,188.84095701458335,189.08780542083335,64.0,86.0
1051,188.84095701458335,189.12141882083336,68.0,87.0
1052,189.09305751458334,189.18129268958336,59.0,84.0
1053,189.34515801458335,189.65398112708334,57.0,70.0
1054,189.34515801458335,189.72015750833333,60.0,62.0
1055,189.84935901458334,189.98591345208334,57.0,77.0
1056,189.84935901458334,190.11616537708335,60.0,67.0
1057,190.10145951458335,190.25902232708336,57.0,76.0
1058,190.35356001458334,190.53213120208335,60.0,83.0
1059,189.59725851458336,190.61196302708333,52.0,82.0
1060,189.34515801458335,190.64452600833334,45.0,82.0
1061,190.60566051458335,190.65082852083333,60.0,46.0
1062,190.35356001458334,190.65082852083333,64.0,85.0
1063,190.60566051458335,190.72960992708335,57.0,74.0
1064,190.85776101458333,191.23276050833334,59.0,73.0
1065,190.85776101458333,191.23696218333333,55.0,73.0
1066,191.36196201458336,191.52162566458335,59.0,83.0
1067,191.36196201458336,191.67603722083334,62.0,82.0
1068,191.10986151458334,191.70229768958336,50.0,68.0
1069,191.61406251458334,191.70860020208335,55.0,82.0
1070,190.85776101458333,191.77582700208336,43.0,79.0
1071,191.86616301458335,191.97855782083334,59.0,82.0
1072,191.86616301458335,191.97960823958334,62.0,78.0
1073,192.62246451458333,192.93864055833336,59.0,80.0
1074,192.37036401458334,193.16763184583334,47.0,84.0
1075,192.87456501458334,193.26427037083334,63.0,82.0
1076,193.12666551458335,193.42183318333335,59.0,78.0
1077,193.37876601458333,193.50901793958334,54.0,83.0
1078,193.63086651458335,193.72435378333336,59.0,84.0
1079,193.88296701458336,194.29473116458334,60.0,72.0
1080,193.88296701458336,194.30208409583335,57.0,70.0
1081,194.38716801458335,194.53737789583334,60.0,73.0
1082,194.38716801458335,194.56048710833335,64.0,82.0
1083,194.63926851458334,194.73590703958334,57.0,39.0
1084,194.89136901458335,194.97330167708333,57.0,79.0
1085,193.88296701458336,195.17603249583334,45.0,82.0
1086,194.13506751458334,195.20859547708335,52.0,72.0
1087,194.89136901458335,195.25271306458336,60.0,84.0
1088,195.14346951458333,195.29683065208334,57.0,75.0
1089,194.89136901458335,195.29893148958334,64.0,83.0
1090,195.64767051458335,195.77477118333334,59.0,74.0
1091,195.89977101458334,196.20229161458334,63.0,78.0
1092,195.89977101458334,196.21069496458335,66.0,81.0
1093,195.39557001458334,196.30838390833333,47.0,86.0
1094,196.40397201458336,196.51531640208333,59.0,78.0
1095,196.40397201458336,196.63716497708333,63.0,82.0
1096,196.40397201458336,196.72750098958335,66.0,77.0
1097,196.65607251458334,196.79787904583333,59.0,81.0
1098,196.90817301458333,197.22119780208334,55.0,76.0
1099,196.90817301458333,197.31048339583333,52.0,77.0
1100,197.41237401458335,197.48590332708335,55.0,82.0
1101,197.41237401458335,197.48800416458334,59.0,81.0
1102,197.91657501458334,197.98275139583336,52.0,82.0
1103,197.91657501458334,197.99115474583334,55.0,83.0
1104,197.91657501458334,198.00481018958334,59.0,84.0
1105,196.90817301458333,198.23380147708335,40.0,83.0
1106,198.16867551458336,198.41552392083332,52.0,82.0
1107,198.92497701458336,199.01846428333334,52.0,78.0
1108,198.92497701458336,199.01846428333334,59.0,78.0
1109,198.92497701458336,199.02686763333332,55.0,82.0
1110,199.42917801458333,199.52896779583335,52.0,84.0
1111,199.42917801458333,199.54577449583334,55.0,86.0
1112,198.42077601458334,199.74850531458333,47.0,76.0
1113,199.42917801458333,199.79892541458332,59.0,84.0
1114,199.68127851458334,199.90081603333334,52.0,84.0
1115,200.43758001458335,200.54157147083333,57.0,82.0
1116,200.43758001458335,200.55207565833337,60.0,82.0
1117,200.43758001458335,200.55837817083335,52.0,84.0
1118,199.93337901458335,200.66236962708336,45.0,83.0
1119,200.94178101458334,201.01636074583334,52.0,84.0
1120,200.94178101458334,201.03841953958334,57.0,86.0
1121,201.19388151458332,201.35879725833334,52.0,87.0
1122,201.19388151458332,201.35879725833334,57.0,46.0
1123,200.94178101458334,201.40606610208334,60.0,78.0
1124,201.95018301458333,202.09303996458334,63.0,77.0
1125,201.95018301458333,202.10144331458335,59.0,82.0
1126,201.44598201458336,202.13715755208335,47.0,85.0
1127,201.95018301458333,202.14346006458334,66.0,72.0
1128,202.45438401458335,202.55207295833333,59.0,78.0
1129,202.45438401458335,202.58988803333335,63.0,77.0
1130,202.45438401458335,202.85144230208334,66.0,82.0
1131,202.70648451458334,203.04682018958334,59.0,83.0
1132,202.95858501458335,203.27896273333334,60.0,77.0
1133,202.95858501458335,203.29681985208333,57.0,76.0
1134,203.46278601458334,203.57623123958336,64.0,86.0
1135,203.46278601458334,203.58148333333332,60.0,88.0
1136,202.95858501458335,204.24429756458335,45.0,82.0
1137,203.71488651458333,204.25060007708333,52.0,71.0
1138,203.96698701458334,204.71068348958335,64.0,88.0
1139,203.96698701458334,204.73064144583333,60.0,85.0
1140,204.21908751458335,204.73799437708334,57.0,78.0
1141,204.97538901458336,205.10774177708333,57.0,78.0
1142,204.97538901458336,205.14030475833334,64.0,84.0
1143,204.97538901458336,205.15185936458334,60.0,83.0
1144,205.47959001458332,205.52580843958333,57.0,71.0
1145,204.72328851458334,205.56677477083335,52.0,73.0
1146,204.47118801458333,205.58358147083334,45.0,83.0
1147,205.47959001458332,205.63610240833333,64.0,84.0
1148,205.47959001458332,205.63715282708336,60.0,83.0
1149,205.73169051458336,205.81887527083336,57.0,83.0
1150,205.98379101458335,206.31677375833334,63.0,71.0
1151,205.98379101458335,206.32727794583334,59.0,75.0
1152,206.48799201458334,206.56887425833332,59.0,78.0
1153,205.98379101458335,206.68652115833333,47.0,82.0
1154,206.48799201458334,206.79681512708333,63.0,83.0
1155,206.74009251458335,206.96278128958335,59.0,84.0
1156,206.48799201458334,207.01110055208335,66.0,80.0
1157,206.99219301458334,207.10668865833333,54.0,83.0
1158,207.24429351458335,207.37664627708335,59.0,83.0
1159,207.49639401458336,207.70647776458333,59.0,82.0
1160,207.49639401458336,207.79681377708334,64.0,83.0
1161,207.74849451458334,208.46382968333336,47.0,65.0
1162,208.25269551458337,208.61088830833336,59.0,78.0
1163,207.49639401458336,208.72433353333335,40.0,84.0
1164,208.50479601458335,208.97853487083336,64.0,84.0
1165,208.00059501458333,208.98588780208334,67.0,84.0
1166,208.75689651458333,209.04471125208335,59.0,77.0
1167,209.00899701458334,209.32202180208333,55.0,76.0
1168,209.00899701458334,209.41130739583335,52.0,77.0
1169,209.51319801458334,209.58672732708334,55.0,82.0
1170,209.51319801458334,209.58882816458333,59.0,81.0
1171,210.01739901458336,210.08357539583335,52.0,82.0
1172,210.01739901458336,210.09197874583333,55.0,83.0
1173,210.01739901458336,210.10563418958333,59.0,84.0
1174,209.00899701458334,210.33462547708336,40.0,83.0
1175,210.26949951458334,210.51634792083334,52.0,82.0
1176,211.02580101458335,211.11928828333333,52.0,78.0
1177,211.02580101458335,211.11928828333333,59.0,78.0
1178,211.02580101458335,211.12769163333334,55.0,82.0
1179,211.53000201458335,211.62979179583334,52.0,84.0
1180,211.53000201458335,211.64659849583336,55.0,86.0
1181,210.52160001458333,211.84932931458334,47.0,76.0
1182,211.53000201458335,211.89974941458334,59.0,84.0
1183,211.78210251458336,212.00164003333333,52.0,84.0
1184,212.53840401458336,212.64239547083335,57.0,82.0
1185,212.53840401458336,212.65289965833335,60.0,82.0
1186,212.53840401458336,212.65920217083334,52.0,84.0
1187,212.03420301458334,212.76319362708335,45.0,83.0
1188,213.04260501458333,213.11718474583336,52.0,84.0
1189,213.04260501458333,213.13924353958333,57.0,86.0
1190,213.29470551458334,213.45962125833336,52.0,87.0
1191,213.29470551458334,213.45962125833336,57.0,46.0
1192,213.04260501458333,213.50689010208333,60.0,78.0
1193,214.05100701458335,214.19386396458333,63.0,77.0
1194,214.05100701458335,214.20226731458334,59.0,82.0
1195,213.54680601458335,214.23798155208334,47.0,85.0
1196,214.05100701458335,214.24428406458333,66.0,72.0
1197,214.55520801458334,214.65289695833334,59.0,78.0
1198,214.55520801458334,214.69071203333334,63.0,77.0
1199,214.55520801458334,214.95226630208333,66.0,82.0
1200,214.80730851458333,215.14764418958333,59.0,83.0
1201,215.05940901458334,215.37978673333333,60.0,77.0
1202,215.05940901458334,215.39764385208335,57.0,76.0
1203,215.56361001458333,215.67705523958335,64.0,86.0
1204,215.56361001458333,215.68230733333334,60.0,88.0
1205,215.05940901458334,216.34512156458334,45.0,82.0
1206,215.81571051458334,216.35142407708335,52.0,71.0
1207,216.06781101458336,216.81150748958333,64.0,88.0
1208,216.06781101458336,216.83146544583335,60.0,85.0
1209,216.31991151458334,216.83881837708333,57.0,78.0
1210,217.07621301458335,217.20856577708335,57.0,78.0
1211,217.07621301458335,217.24112875833333,64.0,84.0
1212,217.07621301458335,217.25268336458333,60.0,83.0
1213,217.58041401458334,217.62663243958335,57.0,71.0
1214,216.82411251458336,217.66759877083337,52.0,73.0
1215,216.57201201458335,217.68440547083333,45.0,83.0
1216,217.58041401458334,217.73692640833335,64.0,84.0
1217,217.58041401458334,217.73797682708334,60.0,83.0
1218,217.83251451458335,217.91969927083335,57.0,83.0
1219,218.08461501458333,218.41759775833333,63.0,71.0
1220,218.08461501458333,218.42810194583336,59.0,75.0
1221,218.58881601458336,218.66969825833334,59.0,78.0
1222,218.08461501458333,218.78734515833332,47.0,82.0
1223,218.58881601458336,218.89763912708335,63.0,83.0
1224,218.84091651458334,219.06360528958334,59.0,84.0
1225,218.58881601458336,219.11192455208334,66.0,80.0
1226,219.09301701458332,219.20751265833334,54.0,83.0
1227,219.34511751458336,219.47747027708334,59.0,83.0
1228,220.02578886458335,220.20646088958335,52.0,87.0
1229,220.26528433958333,220.35351951458335,54.0,83.0
1230,220.53314112083336,220.85456925833336,55.0,86.0
1231,220.80414915833336,220.91129187083334,59.0,82.0
1232,219.78104129583335,220.93965317708336,47.0,75.0
1233,219.54049540208337,220.94910694583336,40.0,88.0
1234,221.11402268958335,221.17914865208334,52.0,64.0
1235,221.10877059583333,222.75057510208336,55.0,65.0
1236,221.08671180208336,222.77263389583334,40.0,84.0
1237,221.18650158333332,222.81360022708333,59.0,74.0
1238,221.29154345833336,222.83355818333334,64.0,83.0
