,start,end,pitch,velocity
0,22.009009158333335,22.247164745833334,65.0,99.0
1,22.266474658333333,22.542177297916666,68.0,102.0
2,22.781405658333334,22.915502272916665,65.0,92.0
3,23.038871158333333,23.759774558333334,70.0,127.0
4,24.068733158333334,24.281142195833333,73.0,127.0
5,24.326198658333333,24.651248852083334,72.0,83.0
6,24.841129658333333,25.097522385416667,68.0,93.0
7,25.09859515833333,25.795897554166668,70.0,93.0
8,26.128457158333333,26.240025541666668,77.0,107.0
9,26.38592265833333,26.481399447916665,77.0,107.0
10,26.643388158333334,26.82468678125,77.0,107.0
11,26.900853658333332,27.08858891875,75.0,102.0
12,27.158319158333335,27.476932714583334,73.0,100.0
13,27.67325015833333,28.16350738125,70.0,100.0
14,28.188181158333332,29.554893854166668,75.0,102.0
15,30.24790515833333,30.346600266666666,78.0,127.0
16,30.505370658333334,30.785364389583332,78.0,117.0
17,31.020301658333334,31.138306679166668,77.0,100.0
18,31.277767158333333,31.63821885833333,78.0,127.0
19,31.792698158333334,31.918212589583334,70.0,99.0
20,32.05016365833333,32.1638775875,70.0,107.0
21,32.307629158333334,32.92447358541666,75.0,117.0
22,33.080025658333334,33.23128663958333,73.0,112.0
23,33.337491158333336,34.137779754166665,77.0,102.0
24,34.36735315833333,34.47248490416667,72.0,117.0
25,34.62481865833333,34.727804858333336,72.0,95.0
26,34.882284158333334,35.006725816666666,72.0,97.0
27,35.139749658333336,35.280282910416666,73.0,122.0
28,35.39721515833333,35.753375766666665,72.0,117.0
29,35.912146158333336,36.28761667916667,70.0,117.0
30,36.42707715833333,38.007271664583335,77.0,112.0
31,38.486801158333336,38.63377104791667,65.0,102.0
32,38.74426665833333,39.01782375208333,68.0,117.0
33,39.259197658333335,39.416895277083334,65.0,96.0
34,39.51666315833333,40.334116120833336,70.0,127.0
35,40.54652515833333,40.72138714375,73.0,127.0
36,40.80399065833333,41.07325666041667,72.0,112.0
37,41.31892165833333,41.475546504166665,68.0,122.0
38,41.57638715833333,42.429241627083336,70.0,127.0
39,42.606249158333334,42.72318140625,77.0,117.0
40,42.863714658333336,42.96026422083333,77.0,97.0
41,43.12118015833333,43.23382131458333,77.0,95.0
42,43.37864565833333,43.47090412916667,75.0,117.0
43,43.636111158333335,43.96330689791667,73.0,127.0
44,44.15104215833333,44.51900326875,70.0,122.0
45,44.66597315833334,46.20540229375,75.0,127.0
46,46.72569715833333,46.82439226666666,78.0,127.0
47,46.983162658333335,47.26315638958334,78.0,117.0
48,47.49809365833333,47.61609867916667,77.0,100.0
49,47.755559158333334,48.11601085833333,78.0,127.0
50,48.27049015833333,48.396004589583335,70.0,99.0
51,48.52795565833333,48.6416695875,70.0,107.0
52,48.785421158333335,49.02250397291667,75.0,117.0
53,49.04288665833333,49.42372104375,75.0,127.0
54,49.557817658333335,49.70907863958333,73.0,112.0
55,49.81528315833334,50.615571754166666,77.0,102.0
56,50.84514515833333,50.950276904166664,72.0,117.0
57,51.10261065833333,51.20559685833334,72.0,95.0
58,51.360076158333335,51.48451781666667,72.0,97.0
59,51.61754165833333,51.768802639583335,70.0,127.0
60,51.87500715833333,52.28802473125,68.0,112.0
61,52.38993815833334,52.865176560416664,72.0,99.0
62,52.904869158333334,54.32200218125,70.0,112.0
63,54.96459315833334,55.479524158333334,82.0,127.0
64,55.736989658333336,55.97514524583333,77.0,102.0
65,55.99445515833333,56.5844802625,82.0,122.0
66,56.76685165833333,56.938495325,84.0,107.0
67,57.02431715833333,57.406224316666666,85.0,122.0
68,57.539248158333336,57.96084791458333,84.0,107.0
69,58.05417915833333,58.61738493958333,82.0,122.0
70,59.084041158333335,59.19560954166667,82.0,127.0
71,59.34150665833333,59.456293360416666,82.0,127.0
72,59.59897215833333,59.71375886041667,80.0,127.0
73,59.856437658333334,59.976588225,82.0,122.0
74,60.113903158333336,60.519411320833335,78.0,127.0
75,60.62883415833333,60.877717475,78.0,122.0
76,60.886299658333336,61.15771120625,80.0,112.0
77,61.14376515833333,62.75185176041666,75.0,117.0
78,63.20348915833333,63.3043298125,75.0,127.0
79,63.460954658333335,63.553213129166664,75.0,112.0
80,63.71842015833333,63.82033358541667,75.0,122.0
81,63.97588565833333,64.11856445625,77.0,112.0
82,64.23335115833333,64.49510775,75.0,127.0
83,64.74828215833334,65.12697099791667,70.0,122.0
84,65.26321315833333,65.86718431041666,73.0,127.0
85,66.03560965833333,66.17936122916667,75.0,122.0
86,66.29307515833334,67.0955093,77.0,127.0
87,67.32293715833333,67.41841394791666,80.0,127.0
88,67.58040265833333,67.65978785416667,80.0,112.0
89,67.83786815833334,67.98054695625,80.0,127.0
90,68.09533365833333,68.24552186666666,77.0,112.0
91,68.35279915833334,68.74650681875,75.0,122.0
92,68.86773015833333,69.25071008958334,80.0,127.0
93,69.38266115833333,69.89973770416667,77.0,127.0
94,71.44238515833334,71.53142531041667,78.0,127.0
95,71.69985065833333,71.78459971875,78.0,102.0
96,71.95731615833333,72.06566622291666,78.0,127.0
97,72.21478165833334,72.3478055,77.0,93.0
98,72.47224715833333,72.78335130416667,78.0,122.0
99,72.98717815833334,73.38195859166666,82.0,127.0
100,73.50210915833334,73.60831367708333,75.0,127.0
101,73.75957465833334,74.05029611875,75.0,122.0
102,74.27450565833334,74.42898495833333,73.0,127.0
103,74.53197115833333,75.18850818333334,77.0,117.0
104,75.56183315833333,75.66803767708333,68.0,127.0
105,75.81929865833334,75.91048435625,68.0,107.0
106,76.07676415833333,76.18511422291667,68.0,117.0
107,76.33422965833333,76.4608168625,65.0,89.0
108,76.59169515833334,77.04118701041666,68.0,127.0
109,77.10662615833333,77.50462491041667,72.0,122.0
110,77.62155715833333,78.87026483333334,70.0,122.0
111,79.68128115833333,79.77032131041666,78.0,127.0
112,79.93874665833333,80.19621215833334,78.0,102.0
113,80.45367765833333,80.5867015,77.0,93.0
114,80.71114315833333,81.02224730416667,78.0,122.0
115,81.22607415833333,81.62085459166667,82.0,127.0
116,81.74100515833334,81.84720967708333,75.0,127.0
117,81.99847065833333,82.28919211875,75.0,122.0
118,82.51340165833334,82.66788095833333,73.0,127.0
119,82.77086715833333,83.42740418333334,77.0,117.0
120,83.80072915833334,83.90693367708333,68.0,127.0
121,84.05819465833333,84.14938035625,68.0,107.0
122,84.31566015833333,84.42401022291666,68.0,117.0
123,84.57312565833334,84.6997128625,65.0,89.0
124,84.83059115833333,85.28008301041666,68.0,127.0
125,85.34552215833334,85.74352091041666,72.0,122.0
126,85.86045315833333,87.10916083333333,70.0,122.0
127,87.92017715833333,88.02530890416666,80.0,127.0
128,88.17764265833334,88.26346449166667,80.0,112.0
129,88.43510815833334,88.54023990416667,80.0,122.0
130,88.69257365833333,88.80950590625,77.0,93.0
131,88.95003915833334,89.198922475,80.0,127.0
132,89.46497015833333,89.86082336458334,84.0,127.0
133,89.97990115833333,91.33910444375,82.0,127.0
134,114.69658915833334,114.93474474583333,65.0,99.0
135,114.95405465833333,115.22975729791666,68.0,102.0
136,115.46898565833334,115.60308227291667,65.0,92.0
137,115.72645115833333,116.44735455833333,70.0,127.0
138,116.75631315833333,116.96872219583334,73.0,127.0
139,117.01377865833334,117.33882885208334,72.0,83.0
140,117.52870965833333,117.78510238541666,68.0,93.0
141,117.78617515833334,118.48347755416667,70.0,93.0
142,118.81603715833333,118.92760554166667,77.0,107.0
143,119.07350265833334,119.16897944791667,77.0,107.0
144,119.33096815833333,119.51226678125,77.0,107.0
145,119.58843365833333,119.77616891875,75.0,102.0
146,119.84589915833334,120.16451271458334,73.0,100.0
147,120.36083015833333,120.85108738125,70.0,100.0
148,120.87576115833333,122.24247385416666,75.0,102.0
149,122.93548515833334,123.03418026666667,78.0,127.0
150,123.19295065833333,123.47294438958333,78.0,117.0
151,123.70788165833333,123.82588667916667,77.0,100.0
152,123.96534715833333,124.32579885833333,78.0,127.0
153,124.48027815833333,124.60579258958333,70.0,99.0
154,124.73774365833333,124.8514575875,70.0,107.0
155,124.99520915833334,125.61205358541666,75.0,117.0
156,125.76760565833334,125.91886663958333,73.0,112.0
157,126.02507115833333,126.82535975416667,77.0,102.0
158,127.05493315833333,127.16006490416666,72.0,117.0
159,127.31239865833334,127.41538485833334,72.0,95.0
160,127.56986415833333,127.69430581666667,72.0,97.0
161,127.82732965833333,127.96786291041667,73.0,122.0
162,128.08479515833332,128.44095576666666,72.0,117.0
163,128.59972615833334,128.97519667916666,70.0,117.0
164,129.11465715833333,130.69485166458333,77.0,112.0
165,131.17438115833335,131.32135104791666,65.0,102.0
166,131.43184665833334,131.70540375208333,68.0,117.0
167,131.94677765833333,132.10447527708334,65.0,96.0
168,132.20424315833333,133.02169612083333,70.0,127.0
169,133.23410515833334,133.40896714375,73.0,127.0
170,133.49157065833333,133.76083666041666,72.0,112.0
171,134.00650165833332,134.16312650416666,68.0,122.0
172,134.26396715833334,135.11682162708334,70.0,127.0
173,135.29382915833332,135.41076140625,77.0,117.0
174,135.55129465833335,135.64784422083332,77.0,97.0
175,135.80876015833334,135.92140131458333,77.0,95.0
176,136.06622565833334,136.15848412916668,75.0,117.0
177,136.32369115833333,136.65088689791668,73.0,127.0
178,136.83862215833332,137.20658326875,70.0,122.0
179,137.35355315833334,138.89298229375,75.0,127.0
180,139.41327715833333,139.51197226666667,78.0,127.0
181,139.67074265833332,139.95073638958334,78.0,117.0
182,140.18567365833334,140.30367867916667,77.0,100.0
183,140.44313915833334,140.80359085833334,78.0,127.0
184,140.95807015833333,141.08358458958332,70.0,99.0
185,141.21553565833332,141.3292495875,70.0,107.0
186,141.47300115833335,141.71008397291666,75.0,117.0
187,141.73046665833334,142.11130104375,75.0,127.0
188,142.24539765833333,142.39665863958334,73.0,112.0
189,142.50286315833333,143.30315175416666,77.0,102.0
190,143.53272515833334,143.63785690416665,72.0,117.0
191,143.79019065833333,143.89317685833333,72.0,95.0
192,144.04765615833333,144.17209781666668,72.0,97.0
193,144.30512165833332,144.45638263958332,70.0,127.0
194,144.56258715833334,144.97560473125,68.0,112.0
195,145.07751815833333,145.55275656041667,72.0,99.0
196,145.59244915833332,147.00958218125,70.0,112.0
197,147.65217315833334,148.16710415833333,82.0,127.0
198,148.42456965833333,148.66272524583334,77.0,102.0
199,148.68203515833332,149.2720602625,82.0,122.0
200,149.45443165833333,149.626075325,84.0,107.0
201,149.71189715833333,150.09380431666668,85.0,122.0
202,150.22682815833332,150.64842791458332,84.0,107.0
203,150.74175915833334,151.30496493958333,82.0,122.0
204,151.77162115833335,151.88318954166667,82.0,127.0
205,152.02908665833334,152.14387336041668,82.0,127.0
206,152.28655215833334,152.40133886041667,80.0,127.0
207,152.54401765833333,152.664168225,82.0,122.0
208,152.80148315833333,153.20699132083334,78.0,127.0
209,153.31641415833334,153.565297475,78.0,122.0
210,153.57387965833334,153.84529120625,80.0,112.0
211,153.83134515833333,155.43943176041665,75.0,117.0
212,155.89106915833332,155.9919098125,75.0,127.0
213,156.14853465833335,156.24079312916666,75.0,112.0
214,156.40600015833334,156.50791358541667,75.0,122.0
215,156.66346565833334,156.80614445625,77.0,112.0
216,156.92093115833333,157.18268775,75.0,127.0
217,157.43586215833332,157.81455099791665,70.0,122.0
218,157.95079315833334,158.55476431041666,73.0,127.0
219,158.72318965833333,158.86694122916666,75.0,122.0
220,158.98065515833332,159.7830893,77.0,127.0
221,160.01051715833333,160.10599394791666,80.0,127.0
222,160.26798265833332,160.34736785416666,80.0,112.0
223,160.52544815833335,160.66812695625,80.0,127.0
224,160.78291365833334,160.93310186666668,77.0,112.0
225,161.04037915833334,161.43408681875,75.0,122.0
226,161.55531015833333,161.93829008958335,80.0,127.0
227,162.07024115833335,162.58731770416668,77.0,127.0
228,164.12996515833333,164.21900531041666,78.0,127.0
229,164.38743065833333,164.47217971875,78.0,102.0
230,164.64489615833332,164.75324622291666,78.0,127.0
231,164.90236165833332,165.0353855,77.0,93.0
232,165.15982715833334,165.47093130416667,78.0,122.0
233,165.67475815833333,166.06953859166666,82.0,127.0
234,166.18968915833332,166.29589367708334,75.0,127.0
235,166.44715465833335,166.73787611875,75.0,122.0
236,166.96208565833334,167.11656495833333,73.0,127.0
237,167.21955115833333,167.87608818333334,77.0,117.0
238,168.24941315833334,168.35561767708333,68.0,127.0
239,168.50687865833333,168.59806435625,68.0,107.0
240,168.76434415833333,168.87269422291666,68.0,117.0
241,169.02180965833332,169.1483968625,65.0,89.0
242,169.27927515833332,169.72876701041668,68.0,127.0
243,169.79420615833334,170.19220491041668,72.0,122.0
244,170.30913715833333,171.55784483333332,70.0,122.0
245,172.36886115833335,172.45790131041667,78.0,127.0
246,172.62632665833334,172.88379215833334,78.0,102.0
247,173.14125765833333,173.2742815,77.0,93.0
248,173.39872315833333,173.70982730416668,78.0,122.0
249,173.91365415833334,174.30843459166667,82.0,127.0
250,174.42858515833333,174.53478967708332,75.0,127.0
251,174.68605065833333,174.97677211875,75.0,122.0
252,175.20098165833335,175.35546095833334,73.0,127.0
253,175.45844715833334,176.11498418333332,77.0,117.0
254,176.48830915833332,176.59451367708334,68.0,127.0
255,176.74577465833335,176.83696035625,68.0,107.0
256,177.00324015833334,177.11159022291667,68.0,117.0
257,177.26070565833334,177.3872928625,65.0,89.0
258,177.51817115833333,177.96766301041666,68.0,127.0
259,178.03310215833332,178.43110091041666,72.0,122.0
260,178.54803315833334,179.79674083333333,70.0,122.0
261,180.60775715833333,180.71288890416668,80.0,127.0
262,180.86522265833332,180.95104449166666,80.0,112.0
263,181.12268815833335,181.22781990416667,80.0,122.0
264,181.38015365833334,181.49708590625,77.0,93.0
265,181.63761915833334,181.886502475,80.0,127.0
266,182.66748115833335,183.17275720208335,82.0,127.0
267,183.18241215833334,183.67052383541667,84.0,100.0
268,183.69734315833333,186.85129553333334,82.0,127.0
