,start,end,pitch,velocity
0,1.4117691583333334,1.7722208583333334,58.0,102.0
1,1.583412825,1.7840213604166666,65.0,15.0
2,1.4117691583333334,1.7850941333333332,61.0,97.0
3,1.4117691583333334,1.789385225,46.0,99.0
4,1.9267001583333334,1.9996487166666668,46.0,99.0
5,1.9267001583333334,2.0007214895833334,58.0,97.0
6,1.9267001583333334,2.0221769479166665,61.0,96.0
7,2.098343825,2.17236515625,46.0,82.0
8,2.098343825,2.1820201125,58.0,81.0
9,2.098343825,2.1991844791666666,61.0,73.0
10,2.2699874916666665,2.3450815958333333,65.0,70.0
11,2.2699874916666665,2.353663779166667,58.0,90.0
12,2.2699874916666665,2.366537054166667,61.0,79.0
13,2.2699874916666665,2.3740464645833335,46.0,93.0
14,2.441631158333333,3.02843794375,65.0,85.0
15,2.441631158333333,3.2236826145833333,58.0,102.0
16,2.441631158333333,3.22797370625,61.0,95.0
17,2.441631158333333,3.2977039458333333,46.0,102.0
18,3.4714931583333333,3.668883375,56.0,88.0
19,3.4714931583333333,3.8115621729166667,60.0,90.0
20,3.4714931583333333,3.83623595,63.0,92.0
21,3.4714931583333333,3.8555458625,44.0,102.0
22,3.9864241583333335,4.04220835,60.0,99.0
23,3.9864241583333335,4.0604454895833335,63.0,93.0
24,3.9864241583333335,4.072245991666667,56.0,95.0
25,3.9864241583333335,4.073318764583333,44.0,96.0
26,4.158067825,4.21277924375,60.0,79.0
27,4.158067825,4.23852579375,63.0,76.0
28,4.158067825,4.24818075,56.0,63.0
29,4.158067825,4.250326295833333,44.0,78.0
30,4.329711491666667,4.394077866666667,60.0,88.0
31,4.329711491666667,4.4090966875,56.0,82.0
32,4.329711491666667,4.4090966875,63.0,79.0
33,4.329711491666667,4.423042735416667,44.0,102.0
34,4.501355158333333,5.122490677083333,60.0,102.0
35,4.501355158333333,5.189002597916667,63.0,97.0
36,4.501355158333333,5.38424726875,56.0,93.0
37,4.501355158333333,5.398193316666666,44.0,95.0
38,5.531217158333333,5.859485670833333,61.0,89.0
39,5.531217158333333,5.8637767625,58.0,99.0
40,5.531217158333333,5.868067854166667,54.0,93.0
41,5.531217158333333,5.887377766666667,42.0,100.0
42,6.046148158333334,6.097641258333334,58.0,95.0
43,6.046148158333334,6.109441760416667,61.0,83.0
44,6.046148158333334,6.126606127083333,54.0,82.0
45,6.046148158333334,6.1341155375,42.0,78.0
46,6.217791825,6.27250324375,58.0,74.0
47,6.217791825,6.277867108333333,61.0,70.0
48,6.217791825,6.29824979375,54.0,68.0
49,6.217791825,6.302540885416667,42.0,75.0
50,6.389435491666666,6.448438002083333,58.0,96.0
51,6.389435491666666,6.454874639583333,61.0,89.0
52,6.389435491666666,6.4645295958333335,54.0,81.0
53,6.389435491666666,6.483839508333333,42.0,78.0
54,6.561079158333333,7.198306270833333,58.0,127.0
55,6.561079158333333,7.206888454166666,54.0,97.0
56,6.561079158333333,7.2283439125,61.0,102.0
57,6.561079158333333,7.301292470833333,42.0,97.0
58,7.590941158333333,7.914918579166667,41.0,71.0
59,7.590941158333333,7.92028244375,57.0,97.0
60,7.590941158333333,7.922427989583333,60.0,102.0
61,7.590941158333333,7.92671908125,53.0,95.0
62,8.105872158333334,8.173456852083334,57.0,88.0
63,8.105872158333334,8.185257354166666,60.0,79.0
64,8.105872158333334,8.192766764583334,53.0,86.0
65,8.105872158333334,8.198130629166666,41.0,79.0
66,8.277515825,8.346173291666666,57.0,77.0
67,8.277515825,8.352609929166666,60.0,72.0
68,8.277515825,8.360119339583333,53.0,61.0
69,8.277515825,8.365483204166667,41.0,73.0
70,8.449159491666666,8.519962504166667,60.0,78.0
71,8.449159491666666,8.52210805,53.0,73.0
72,8.449159491666666,8.526399141666667,57.0,92.0
73,8.449159491666666,8.553218464583333,41.0,79.0
74,8.620803158333333,9.253739179166667,41.0,102.0
75,8.620803158333333,9.283776820833333,53.0,93.0
76,8.620803158333333,9.296650095833334,57.0,99.0
77,8.620803158333333,9.307377825,60.0,93.0
78,9.908130658333333,10.045445591666667,58.0,100.0
79,9.908130658333333,10.049736683333334,65.0,73.0
80,9.650665158333334,10.055100547916666,46.0,99.0
81,9.908130658333333,10.05724609375,61.0,86.0
82,10.423061658333333,10.526047858333333,58.0,107.0
83,10.423061658333333,10.534630041666667,65.0,76.0
84,10.423061658333333,10.542139452083333,61.0,96.0
85,10.165596158333333,10.576468185416667,53.0,66.0
86,10.680527158333334,11.14825615,46.0,96.0
87,10.937992658333334,11.326336454166666,65.0,78.0
88,10.937992658333334,11.328482,58.0,107.0
89,10.937992658333334,11.328482,61.0,95.0
90,11.452923658333333,11.532308854166667,58.0,100.0
91,11.452923658333333,11.56985590625,61.0,100.0
92,11.195458158333333,11.632076735416666,53.0,56.0
93,11.710389158333333,12.151298827083334,44.0,52.0
94,11.967854658333334,12.247848389583334,60.0,99.0
95,11.967854658333334,12.249993935416667,63.0,97.0
96,11.967854658333334,12.262867210416667,56.0,92.0
97,12.482785658333333,12.547152033333333,60.0,100.0
98,12.482785658333333,12.553588670833333,63.0,96.0
99,12.482785658333333,12.568607491666667,56.0,96.0
100,12.225320158333334,12.742396704166667,51.0,82.0
101,12.740251158333333,13.232653927083334,44.0,40.0
102,12.997716658333333,13.332421808333333,60.0,112.0
103,12.997716658333333,13.337785672916667,63.0,95.0
104,12.997716658333333,13.349586175,56.0,93.0
105,13.512647658333334,13.554485802083333,60.0,93.0
106,13.512647658333334,13.588814535416667,63.0,85.0
107,13.512647658333334,13.630652679166667,56.0,96.0
108,13.255182158333334,13.70038291875,51.0,88.0
109,13.770113158333332,14.2828986125,42.0,79.0
110,14.027578658333333,14.3665749,58.0,100.0
111,14.027578658333333,14.380520947916667,61.0,97.0
112,14.542509658333334,14.639059220833333,66.0,95.0
113,14.542509658333334,14.645495858333334,61.0,107.0
114,14.542509658333334,14.64978695,58.0,112.0
115,14.285044158333333,14.679824591666666,54.0,61.0
116,14.799975158333334,15.223720460416667,42.0,71.0
117,15.057440658333332,15.442566135416667,58.0,112.0
118,15.057440658333332,15.443638908333334,66.0,81.0
119,15.057440658333332,15.446857227083333,61.0,97.0
120,15.572371658333333,15.61850089375,66.0,78.0
121,15.572371658333333,15.665702902083334,58.0,122.0
122,15.572371658333333,15.67964895,61.0,102.0
123,15.314906158333333,15.712904910416666,42.0,56.0
124,15.829837158333333,16.284692875,41.0,71.0
125,16.087302658333332,16.41664394375,57.0,97.0
126,16.087302658333332,16.420935035416665,53.0,90.0
127,16.087302658333332,16.420935035416665,60.0,93.0
128,16.602233658333333,16.689128264583335,53.0,90.0
129,16.602233658333333,16.6902010375,57.0,92.0
130,16.602233658333333,16.700928766666667,60.0,89.0
131,16.344768158333334,16.755640185416667,48.0,69.0
132,16.859699158333335,17.297390508333333,41.0,78.0
133,17.117164658333333,17.490489633333333,57.0,92.0
134,17.117164658333333,17.492635179166665,60.0,88.0
135,17.117164658333333,17.493707952083334,53.0,88.0
136,17.632095658333334,17.68787985,57.0,83.0
137,17.632095658333334,17.68787985,60.0,76.0
138,17.632095658333334,17.717917491666668,53.0,90.0
139,17.374630158333332,17.78764773125,48.0,76.0
140,17.889561158333333,18.439893664583334,46.0,86.0
141,18.147026658333335,18.4538397125,58.0,93.0
142,18.147026658333335,18.462421895833334,65.0,85.0
143,18.147026658333335,18.471004079166665,61.0,93.0
144,18.661957658333332,18.735978989583334,65.0,54.0
145,18.661957658333332,18.75314335625,58.0,112.0
146,18.661957658333332,18.754216129166668,61.0,96.0
147,18.404492158333333,18.757434447916665,53.0,88.0
148,18.919423158333334,19.437572477083332,46.0,92.0
149,19.176888658333333,19.50622994375,58.0,107.0
150,19.176888658333333,19.51266658125,65.0,85.0
151,19.176888658333333,19.514812127083335,61.0,99.0
152,19.691819658333333,19.790514766666668,65.0,73.0
153,19.691819658333333,19.794805858333334,58.0,107.0
154,19.691819658333333,19.809824679166667,61.0,100.0
155,19.434354158333335,19.837716775,53.0,72.0
156,19.949285158333332,20.4427607,46.0,92.0
157,20.206750658333334,20.5264369875,58.0,102.0
158,20.206750658333334,20.537164716666666,65.0,90.0
159,20.206750658333334,20.5457469,61.0,92.0
160,20.721681658333335,20.818231220833333,58.0,112.0
161,20.721681658333335,20.826813404166668,65.0,93.0
162,20.721681658333335,20.834322814583334,61.0,107.0
163,20.464216158333333,20.867578775,53.0,68.0
164,20.979147158333333,21.497296477083335,46.0,77.0
165,21.236612658333332,21.583118310416666,58.0,122.0
166,21.236612658333332,21.589554947916668,65.0,95.0
167,21.236612658333332,21.5949188125,61.0,102.0
168,21.494078158333334,21.793381802083335,53.0,71.0
169,21.751543658333333,21.81054616875,65.0,74.0
170,21.751543658333333,21.835219945833334,58.0,112.0
171,21.751543658333333,21.84272935625,61.0,112.0
172,22.266474658333333,22.417735639583334,65.0,78.0
173,22.266474658333333,22.4188084125,58.0,97.0
174,22.266474658333333,22.429536141666667,61.0,90.0
175,22.009009158333335,22.4316816875,46.0,90.0
176,22.781405658333334,22.8114433,65.0,69.0
177,22.781405658333334,22.871518583333334,58.0,102.0
178,22.781405658333334,22.880100766666665,61.0,99.0
179,22.523940158333332,22.931593866666667,53.0,71.0
180,23.038871158333333,23.569893752083335,46.0,81.0
181,23.296336658333335,23.602076939583334,58.0,97.0
182,23.296336658333335,23.613877441666666,65.0,63.0
183,23.296336658333335,23.626750716666667,61.0,85.0
184,23.811267658333332,23.897089491666666,65.0,71.0
185,23.811267658333332,23.904598902083332,58.0,100.0
186,23.811267658333332,23.917472177083333,61.0,90.0
187,23.553802158333333,23.94107318125,53.0,71.0
188,24.068733158333334,24.624429529166665,46.0,77.0
189,24.326198658333333,24.626575075,58.0,97.0
190,24.326198658333333,24.63408448541667,65.0,81.0
191,24.326198658333333,24.635157258333333,61.0,82.0
192,24.841129658333333,24.8711673,65.0,63.0
193,24.841129658333333,24.9290970375,58.0,99.0
194,24.841129658333333,24.935533675,61.0,95.0
195,24.583664158333335,24.984881229166668,53.0,70.0
196,25.356060658333334,25.6950569,58.0,92.0
197,25.356060658333334,25.705784629166665,65.0,73.0
198,25.356060658333334,25.71329403958333,61.0,83.0
199,25.09859515833333,25.71758513125,46.0,78.0
200,25.613526158333332,25.938576352083334,53.0,76.0
201,25.870991658333335,25.9460857625,65.0,66.0
202,25.870991658333335,25.96432290208333,58.0,99.0
203,25.870991658333335,25.9718323125,61.0,89.0
204,26.128457158333333,26.624078245833335,46.0,73.0
205,26.38592265833333,26.686299075,58.0,89.0
206,26.38592265833333,26.686299075,65.0,76.0
207,26.38592265833333,26.701317895833334,61.0,85.0
208,26.900853658333332,26.983457172916665,65.0,78.0
209,26.900853658333332,26.993112129166665,58.0,100.0
210,26.900853658333332,26.999548766666667,61.0,90.0
211,26.643388158333334,27.03816859166667,53.0,67.0
212,27.415784658333333,27.776236358333332,65.0,74.0
213,27.415784658333333,27.77730913125,58.0,97.0
214,27.415784658333333,27.7869640875,61.0,86.0
215,27.158319158333335,27.82880223125,46.0,88.0
216,27.930715658333334,28.024046902083334,58.0,107.0
217,27.930715658333334,28.032629085416666,61.0,88.0
218,27.67325015833333,28.0637395,53.0,69.0
219,28.188181158333332,28.654837377083332,39.0,85.0
220,28.445646658333334,28.728858708333334,58.0,97.0
221,28.445646658333334,28.72993148125,63.0,92.0
222,28.445646658333334,28.750314166666666,54.0,93.0
223,28.96057765833333,29.02065294166667,63.0,96.0
224,28.96057765833333,29.024944033333334,58.0,107.0
225,28.96057765833333,29.04318117291667,54.0,96.0
226,28.703112158333333,29.047472264583334,46.0,69.0
227,29.218043158333334,29.662171145833334,39.0,75.0
228,29.475508658333332,29.809141035416665,58.0,102.0
229,29.475508658333332,29.813432127083335,63.0,93.0
230,29.475508658333332,29.8209415375,54.0,95.0
231,29.990439658333333,30.041932758333335,63.0,86.0
232,29.990439658333333,30.063388216666667,58.0,99.0
233,29.990439658333333,30.073043172916666,54.0,90.0
234,29.732974158333334,30.109517452083335,46.0,81.0
235,30.24790515833333,30.710270285416666,39.0,89.0
236,30.505370658333334,30.790728254166666,58.0,95.0
237,30.505370658333334,30.806819847916667,63.0,92.0
238,30.505370658333334,30.822911441666665,54.0,90.0
239,31.020301658333334,31.073940304166666,63.0,78.0
240,31.020301658333334,31.07930416875,58.0,93.0
241,31.020301658333334,31.102905172916667,54.0,92.0
242,30.762836158333332,31.10505071875,46.0,93.0
243,31.53523265833333,31.860282852083333,63.0,79.0
244,31.53523265833333,31.8742289,58.0,95.0
245,31.53523265833333,31.891393266666668,54.0,93.0
246,31.277767158333333,31.95146855,39.0,86.0
247,32.05016365833333,32.09092902916667,58.0,92.0
248,32.05016365833333,32.10380230416666,63.0,82.0
249,32.05016365833333,32.1381310375,54.0,97.0
250,31.792698158333334,32.14349490208333,46.0,93.0
251,32.307629158333334,32.787158652083335,44.0,73.0
252,32.56509465833334,32.86868939375,63.0,93.0
253,32.56509465833334,32.87512603125,60.0,93.0
254,32.56509465833334,32.89443594375,56.0,88.0
255,33.080025658333334,33.14331926041667,60.0,93.0
256,33.080025658333334,33.173356902083334,63.0,85.0
257,33.080025658333334,33.18515740416667,56.0,92.0
258,32.82256015833333,33.18623017708333,51.0,75.0
259,33.337491158333336,33.80951124166667,46.0,96.0
260,33.59495665833333,33.844912747916666,61.0,97.0
261,33.59495665833333,33.912497441666666,58.0,100.0
262,34.109887658333335,34.203218902083336,65.0,74.0
263,34.109887658333335,34.22145604166667,61.0,100.0
264,34.109887658333335,34.230038225,58.0,99.0
265,33.85242215833333,34.24398427291667,53.0,69.0
266,34.62481865833333,34.7256593125,60.0,82.0
267,34.62481865833333,34.73531426875,63.0,107.0
268,34.36735315833333,34.73745981458333,48.0,95.0
269,34.62481865833333,34.74282367916667,66.0,100.0
270,35.139749658333336,35.228789810416664,63.0,102.0
271,35.139749658333336,35.23093535625,60.0,83.0
272,35.139749658333336,35.24488140416667,66.0,102.0
273,35.39721515833333,35.9228738875,48.0,78.0
274,35.654680658333334,35.985094716666666,60.0,81.0
275,35.654680658333334,35.98831303541667,63.0,102.0
276,35.654680658333334,35.99153135416667,66.0,97.0
277,36.16961165833333,36.22539585,63.0,107.0
278,36.16961165833333,36.24148744375,60.0,83.0
279,36.16961165833333,36.24256021666667,66.0,97.0
280,36.42707715833333,36.497880170833334,65.0,96.0
281,36.42707715833333,36.50002571666667,69.0,92.0
282,36.42707715833333,36.50753512708334,60.0,90.0
283,36.42707715833333,36.52040840208333,41.0,62.0
284,36.42707715833333,36.52469949375,53.0,85.0
285,36.684542658333335,36.74247239583333,65.0,90.0
286,36.684542658333335,36.748909033333334,69.0,83.0
287,36.684542658333335,36.754272897916664,60.0,82.0
288,36.684542658333335,36.76392785416667,41.0,60.0
289,36.684542658333335,36.771437264583334,53.0,89.0
290,36.94200815833333,37.00208344166667,65.0,96.0
291,36.94200815833333,37.01495671666667,60.0,97.0
292,36.94200815833333,37.01602948958333,69.0,89.0
293,36.94200815833333,37.027829991666664,41.0,64.0
294,36.94200815833333,37.03963049375,53.0,97.0
295,37.19947365833333,37.23809348333333,65.0,93.0
296,37.19947365833333,37.24774843958333,69.0,95.0
297,37.19947365833333,37.24989398541667,60.0,96.0
298,37.19947365833333,37.26491280625,53.0,99.0
299,37.19947365833333,37.26920389791667,41.0,66.0
300,37.32820640833334,37.38077228125,65.0,95.0
301,37.32820640833334,37.38291782708333,60.0,92.0
302,37.32820640833334,37.38506337291667,69.0,82.0
303,37.32820640833334,37.3904272375,53.0,82.0
304,37.32820640833334,37.40759160416667,41.0,67.0
305,37.456939158333334,37.552415947916664,53.0,112.0
306,37.456939158333334,37.55992535833333,41.0,79.0
307,37.456939158333334,37.56528922291667,65.0,100.0
308,37.456939158333334,37.56743476875,60.0,100.0
309,37.456939158333334,37.569580314583334,69.0,90.0
310,38.74426665833333,38.895527639583335,65.0,78.0
311,38.74426665833333,38.8966004125,58.0,97.0
312,38.74426665833333,38.90732814166667,61.0,90.0
313,38.486801158333336,38.9094736875,46.0,90.0
314,39.259197658333335,39.2892353,65.0,69.0
315,39.259197658333335,39.349310583333335,58.0,102.0
316,39.259197658333335,39.357892766666666,61.0,99.0
317,39.00173215833333,39.40938586666667,53.0,71.0
318,39.51666315833333,40.04768575208333,46.0,81.0
319,39.77412865833333,40.079868939583335,58.0,97.0
320,39.77412865833333,40.09166944166667,65.0,63.0
321,39.77412865833333,40.104542716666664,61.0,85.0
322,40.289059658333336,40.37488149166666,65.0,71.0
323,40.289059658333336,40.38239090208333,58.0,100.0
324,40.289059658333336,40.395264177083334,61.0,90.0
325,40.031594158333334,40.41886518125,53.0,71.0
326,40.54652515833333,41.10222152916667,46.0,77.0
327,40.80399065833333,41.104367075,58.0,97.0
328,40.80399065833333,41.111876485416666,65.0,81.0
329,40.80399065833333,41.11294925833333,61.0,82.0
330,41.31892165833333,41.3489593,65.0,63.0
331,41.31892165833333,41.4068890375,58.0,99.0
332,41.31892165833333,41.413325675,61.0,95.0
333,41.061456158333336,41.46267322916667,53.0,70.0
334,41.833852658333335,42.1728489,58.0,92.0
335,41.833852658333335,42.183576629166666,65.0,73.0
336,41.833852658333335,42.19108603958333,61.0,83.0
337,41.57638715833333,42.19537713125,46.0,78.0
338,42.09131815833333,42.41636835208333,53.0,76.0
339,42.34878365833333,42.4238777625,65.0,66.0
340,42.34878365833333,42.44211490208333,58.0,99.0
341,42.34878365833333,42.4496243125,61.0,89.0
342,42.606249158333334,43.10187024583333,46.0,73.0
343,42.863714658333336,43.164091075,58.0,89.0
344,42.863714658333336,43.164091075,65.0,76.0
345,42.863714658333336,43.179109895833335,61.0,85.0
346,43.37864565833333,43.461249172916666,65.0,78.0
347,43.37864565833333,43.47090412916667,58.0,100.0
348,43.37864565833333,43.477340766666664,61.0,90.0
349,43.12118015833333,43.51596059166667,53.0,67.0
350,43.89357665833333,44.254028358333336,65.0,74.0
351,43.89357665833333,44.25510113125,58.0,97.0
352,43.89357665833333,44.2647560875,61.0,86.0
353,43.636111158333335,44.30659423125,46.0,88.0
354,44.408507658333335,44.501838902083335,58.0,107.0
355,44.408507658333335,44.51042108541667,61.0,88.0
356,44.15104215833333,44.5415315,53.0,69.0
357,44.66597315833334,45.13262937708333,39.0,85.0
358,44.92343865833333,45.206650708333335,58.0,97.0
359,44.92343865833333,45.20772348125,63.0,92.0
360,44.92343865833333,45.22810616666667,54.0,93.0
361,45.438369658333336,45.49844494166667,63.0,96.0
362,45.438369658333336,45.502736033333335,58.0,107.0
363,45.438369658333336,45.52097317291667,54.0,96.0
364,45.180904158333334,45.525264264583335,46.0,69.0
365,45.69583515833333,46.139963145833335,39.0,75.0
366,45.95330065833333,46.286933035416666,58.0,102.0
367,45.95330065833333,46.29122412708333,63.0,93.0
368,45.95330065833333,46.2987335375,54.0,95.0
369,46.46823165833333,46.51972475833333,63.0,86.0
370,46.46823165833333,46.54118021666667,58.0,99.0
371,46.46823165833333,46.55083517291666,54.0,90.0
372,46.210766158333335,46.58730945208333,46.0,81.0
373,46.72569715833333,47.18806228541666,39.0,89.0
374,46.983162658333335,47.26852025416667,58.0,95.0
375,46.983162658333335,47.284611847916665,63.0,92.0
376,46.983162658333335,47.30070344166667,54.0,90.0
377,47.49809365833333,47.55173230416667,63.0,78.0
378,47.49809365833333,47.55709616875,58.0,93.0
379,47.49809365833333,47.580697172916665,54.0,92.0
380,47.24062815833334,47.58284271875,46.0,93.0
381,48.013024658333336,48.33807485208333,63.0,79.0
382,48.013024658333336,48.3520209,58.0,95.0
383,48.013024658333336,48.36918526666667,54.0,93.0
384,47.755559158333334,48.42926055,39.0,86.0
385,48.52795565833333,48.56872102916667,58.0,92.0
386,48.52795565833333,48.581594304166664,63.0,82.0
387,48.52795565833333,48.615923037499996,54.0,97.0
388,48.27049015833333,48.621286902083334,46.0,93.0
389,48.785421158333335,49.264950652083336,44.0,73.0
390,49.04288665833333,49.34648139375,63.0,93.0
391,49.04288665833333,49.35291803125,60.0,93.0
392,49.04288665833333,49.37222794375,56.0,88.0
393,49.557817658333335,49.62111126041667,60.0,93.0
394,49.557817658333335,49.651148902083335,63.0,85.0
395,49.557817658333335,49.66294940416667,56.0,92.0
396,49.30035215833333,49.66402217708333,51.0,75.0
397,49.81528315833334,50.28730324166666,46.0,96.0
398,50.07274865833333,50.32270474791667,61.0,97.0
399,50.07274865833333,50.39028944166667,58.0,100.0
400,50.587679658333336,50.68101090208334,65.0,74.0
401,50.587679658333336,50.699248041666664,61.0,100.0
402,50.587679658333336,50.707830225,58.0,99.0
403,50.330214158333334,50.721776272916664,53.0,69.0
404,51.10261065833333,51.18950526458333,63.0,102.0
405,50.84514515833333,51.19272358333333,48.0,88.0
406,51.10261065833333,51.2034513125,60.0,86.0
407,51.10261065833333,51.207742404166666,66.0,100.0
408,51.61754165833333,51.71301844791667,63.0,100.0
409,51.61754165833333,51.72481895,60.0,86.0
410,51.61754165833333,51.73340113333333,66.0,97.0
411,52.132472658333334,52.21293062708333,60.0,88.0
412,51.87500715833333,52.21829449166667,41.0,90.0
413,52.132472658333334,52.225803902083335,68.0,100.0
414,52.132472658333334,52.23974995,65.0,95.0
415,52.38993815833334,52.72142498958333,48.0,79.0
416,52.64740365833333,52.75146263125,60.0,96.0
417,52.64740365833333,52.75468095,68.0,102.0
418,52.64740365833333,52.76326313333333,65.0,99.0
419,53.162334658333336,53.228846579166664,65.0,61.0
420,53.162334658333336,53.24815649166667,61.0,95.0
421,52.904869158333334,53.26532085833333,46.0,122.0
422,53.162334658333336,53.271757495833334,58.0,97.0
423,53.67726565833333,53.73841371458333,65.0,73.0
424,53.67726565833333,53.7587964,61.0,112.0
425,53.67726565833333,53.78561572291667,58.0,99.0
426,53.41980015833333,53.84569100625,53.0,69.0
427,53.934731158333335,54.414260652083335,46.0,76.0
428,54.19219665833333,54.552648358333336,65.0,70.0
429,54.19219665833333,54.568739952083334,61.0,112.0
430,54.19219665833333,54.577322135416665,58.0,99.0
431,54.707127658333334,54.7693484875,65.0,78.0
432,54.707127658333334,54.79187671875,61.0,117.0
433,54.707127658333334,54.82191436041666,58.0,97.0
434,54.44966215833333,54.822987133333335,53.0,75.0
435,54.96459315833334,55.38404736875,46.0,102.0
436,54.96566593125,55.38512014166667,34.0,102.0
437,55.22205865833333,55.50205238958333,65.0,82.0
438,55.22205865833333,55.508489027083336,61.0,117.0
439,55.22205865833333,55.52458062083333,58.0,100.0
440,55.736989658333336,55.81315653541667,61.0,112.0
441,55.479524158333334,55.832466447916666,41.0,73.0
442,55.479524158333334,55.832466447916666,53.0,73.0
443,55.736989658333336,55.83675753958333,58.0,100.0
444,55.99445515833333,56.4171276875,46.0,99.0
445,55.99552793125,56.418200460416664,34.0,99.0
446,56.25192065833333,56.57589807916667,65.0,81.0
447,56.25192065833333,56.5844802625,61.0,127.0
448,56.25192065833333,56.599499083333335,58.0,112.0
449,56.76685165833333,56.802253164583334,65.0,68.0
450,56.509386158333335,56.81941753125,41.0,89.0
451,56.509386158333335,56.81941753125,53.0,89.0
452,56.76685165833333,56.83443635208333,61.0,127.0
453,56.76685165833333,56.84945517291667,58.0,112.0
454,57.281782658333334,57.309674754166664,65.0,77.0
455,57.281782658333334,57.32576634791667,61.0,127.0
456,57.281782658333334,57.349367352083334,58.0,127.0
457,57.02431715833333,57.380477766666665,46.0,107.0
458,57.02538993125,57.38155053958333,34.0,107.0
459,57.41051540833333,57.4727362375,65.0,51.0
460,57.41051540833333,57.50706497083333,61.0,69.0
461,57.41051540833333,57.50813774375,58.0,60.0
462,57.79671365833333,57.8203146625,65.0,47.0
463,57.79671365833333,57.85035230416667,61.0,122.0
464,57.539248158333336,57.88146271875,41.0,89.0
465,57.539248158333336,57.88146271875,53.0,89.0
466,57.79671365833333,57.88682658333333,58.0,122.0
467,58.05417915833333,58.52619924166667,46.0,86.0
468,58.05525193125,58.52727201458333,34.0,86.0
469,58.311644658333336,58.6184577125,65.0,93.0
470,58.311644658333336,58.651713672916664,61.0,127.0
471,58.311644658333336,58.66458694791667,58.0,117.0
472,58.82657565833333,58.87270489375,65.0,88.0
473,58.56911015833333,58.87914153125,41.0,81.0
474,58.56911015833333,58.87914153125,53.0,81.0
475,58.82657565833333,58.88235985,61.0,127.0
476,58.82657565833333,58.90703362708334,58.0,122.0
477,59.084041158333335,59.47131218125,51.0,117.0
478,59.08511393125,59.472384954166664,39.0,117.0
479,59.34150665833333,59.6805029,66.0,127.0
480,59.34150665833333,59.69015785625,70.0,127.0
481,59.34150665833333,59.70624945,63.0,127.0
482,59.856437658333334,59.90900353125,66.0,127.0
483,59.59897215833333,59.9444050375,39.0,97.0
484,59.59897215833333,59.9444050375,51.0,97.0
485,59.856437658333334,59.97980654375,70.0,107.0
486,59.856437658333334,59.99267981875,63.0,112.0
487,60.37136865833333,60.43037116875,66.0,117.0
488,60.37136865833333,60.43788057916667,63.0,122.0
489,60.37136865833333,60.44109889791667,59.0,97.0
490,60.113903158333336,60.47006376666667,47.0,78.0
491,60.11497593125,60.471136539583334,35.0,78.0
492,60.500101408333336,60.64170743333333,59.0,76.0
493,60.500101408333336,60.657799027083335,66.0,92.0
494,60.500101408333336,60.6588718,63.0,92.0
495,60.62990693125,60.80476891666667,42.0,85.0
496,60.62883415833333,60.83909765,54.0,85.0
497,60.886299658333336,60.94959326041667,63.0,127.0
498,60.886299658333336,60.981776447916666,66.0,127.0
499,60.886299658333336,60.99250417708333,59.0,112.0
500,61.14376515833333,61.227441445833335,60.0,40.0
501,61.14376515833333,61.455942077083336,44.0,90.0
502,61.14483793125,61.45701485,32.0,90.0
503,61.40123065833333,61.475251989583334,63.0,122.0
504,61.40123065833333,61.477397535416664,60.0,117.0
505,61.52996340833333,61.664060022916665,60.0,76.0
506,61.52996340833333,61.66620556875,63.0,71.0
507,61.40123065833333,61.6822971625,56.0,112.0
508,61.91616165833333,61.98803744375,60.0,99.0
509,61.91616165833333,62.008420129166666,63.0,100.0
510,61.91616165833333,62.01271122083333,56.0,102.0
511,61.655477839583334,62.0684954125,39.0,92.0
512,61.658696158333335,62.07171373125,51.0,92.0
513,62.431092658333334,62.529787766666665,60.0,127.0
514,62.431092658333334,62.54587936041667,63.0,122.0
515,62.431092658333334,62.54802490625,56.0,112.0
516,62.17362715833333,62.56197095416667,44.0,83.0
517,62.17469993125,62.56304372708333,32.0,83.0
518,62.688558158333336,62.794762677083334,60.0,117.0
519,62.688558158333336,62.83123695625,56.0,112.0
520,62.688558158333336,62.843037458333335,63.0,117.0
521,62.688558158333336,62.851619641666666,39.0,99.0
522,62.688558158333336,62.851619641666666,51.0,99.0
523,62.94602365833333,63.02433608125,60.0,127.0
524,62.94602365833333,63.04471876666667,56.0,117.0
525,62.94602365833333,63.08119304583333,63.0,127.0
526,63.20348915833333,63.50708389375,51.0,112.0
527,63.20456193125,63.508156666666665,39.0,112.0
528,63.460954658333335,63.5103022125,66.0,127.0
529,63.460954658333335,63.525321033333334,70.0,112.0
530,63.460954658333335,63.5489220375,63.0,112.0
531,63.58968740833333,63.7034013375,66.0,71.0
532,63.58968740833333,63.71520183958334,63.0,64.0
533,63.58968740833333,63.71842015833333,70.0,41.0
534,63.97588565833333,64.03059707708333,66.0,127.0
535,63.97588565833333,64.0509797625,70.0,107.0
536,63.97588565833333,64.0638530375,63.0,112.0
537,63.71842015833333,64.18936746875,58.0,82.0
538,64.49081665833333,64.54445530416666,66.0,127.0
539,64.49081665833333,64.57663849166667,70.0,117.0
540,64.49081665833333,64.58200235625,63.0,117.0
541,64.23335115833333,64.65280536875,51.0,82.0
542,64.22798729375,64.6688969625,39.0,82.0
543,64.74828215833334,64.8298129,66.0,127.0
544,64.74828215833334,64.85448667708333,63.0,102.0
545,64.74828215833334,64.85985054166666,70.0,107.0
546,64.74828215833334,65.00252933958333,42.0,59.0
547,64.74828215833334,65.00252933958333,54.0,59.0
548,64.74828215833334,65.01325706875,58.0,99.0
549,65.00574765833333,65.07655067083333,66.0,127.0
550,65.00574765833333,65.07976898958333,70.0,107.0
551,65.00574765833333,65.13448040833333,63.0,122.0
552,65.26857702291667,65.75239760833334,34.0,78.0
553,65.26857702291667,65.75239760833334,46.0,78.0
554,65.52067865833334,65.82963725833334,61.0,127.0
555,65.52067865833334,65.85001994375,65.0,99.0
556,65.52067865833334,65.85109271666667,58.0,112.0
557,66.03560965833333,66.1107037625,65.0,96.0
558,66.03560965833333,66.12250426458333,61.0,127.0
559,66.03560965833333,66.130013675,58.0,107.0
560,65.77814415833333,66.1879434125,41.0,64.0
561,65.77814415833333,66.1879434125,53.0,64.0
562,66.55054065833333,66.59881543958333,58.0,99.0
563,66.55054065833333,66.61812535208334,66.0,55.0
564,66.55054065833333,66.6320714,65.0,76.0
565,66.55054065833333,66.670691225,61.0,117.0
566,66.29307515833334,66.76080415,34.0,107.0
567,66.29307515833334,66.76080415,46.0,107.0
568,66.80800615833333,66.91635622291666,61.0,117.0
569,66.80800615833333,66.91742899583333,65.0,75.0
570,66.80800615833333,66.94424831875,58.0,102.0
571,67.06547165833334,67.108382575,65.0,71.0
572,67.06547165833334,67.15880290208334,61.0,127.0
573,66.80800615833333,67.185622225,41.0,75.0
574,66.80800615833333,67.185622225,53.0,75.0
575,67.06547165833334,67.23389700625,58.0,112.0
576,67.32293715833333,67.67802499375,32.0,97.0
577,67.32293715833333,67.67802499375,44.0,97.0
578,67.58040265833333,67.88292462083334,60.0,122.0
579,67.58040265833333,67.88936125833334,63.0,97.0
580,67.58040265833333,67.89901621458333,56.0,102.0
581,68.09533365833333,68.14575398541666,60.0,117.0
582,68.09533365833333,68.17257330833333,63.0,100.0
583,68.09533365833333,68.18437381041667,56.0,100.0
584,67.83786815833334,68.24552186666666,39.0,100.0
585,67.83786815833334,68.24552186666666,51.0,100.0
586,68.61026465833334,68.68428598958333,60.0,117.0
587,68.61026465833334,68.7111053125,56.0,102.0
588,68.61026465833334,68.74114295416666,63.0,122.0
589,68.35279915833334,68.74865236458334,32.0,88.0
590,68.35279915833334,68.74865236458334,44.0,88.0
591,68.86773015833333,68.95998862916667,60.0,122.0
592,68.86773015833333,68.98037131458334,56.0,99.0
593,68.86773015833333,68.98251686041667,63.0,96.0
594,69.12519565833334,69.2067264,60.0,127.0
595,69.12519565833334,69.23032740416667,56.0,107.0
596,69.12519565833334,69.25392840833334,63.0,112.0
597,68.87738511458333,69.26143781875,39.0,97.0
598,68.8784578875,69.26251059166667,51.0,97.0
599,69.38266115833333,69.81498864375,37.0,90.0
600,69.38266115833333,69.81498864375,49.0,90.0
601,69.64012665833333,69.91261097916667,65.0,122.0
602,69.64012665833333,69.93084811875,68.0,117.0
603,69.64012665833333,69.9469397125,61.0,102.0
604,69.89651938541667,70.069235825,44.0,85.0
605,69.89759215833334,70.07030859791666,56.0,85.0
606,70.15505765833333,70.26555326875,65.0,122.0
607,70.15505765833333,70.2816448625,68.0,112.0
608,70.15505765833333,70.29773645625,61.0,102.0
609,70.41252315833333,70.79550308958333,34.0,96.0
610,70.41252315833333,70.79550308958333,46.0,96.0
611,70.66998865833334,71.03365867708334,62.0,100.0
612,70.66998865833334,71.05189581666667,65.0,102.0
613,70.66998865833334,71.05725968125,58.0,127.0
614,70.93603634166666,71.23748553125,41.0,78.0
615,70.93710911458334,71.23855830416667,53.0,78.0
616,71.18491965833333,71.253577125,62.0,102.0
617,71.18491965833333,71.253577125,65.0,82.0
618,71.18491965833333,71.25786821666667,58.0,127.0
619,71.44238515833334,71.67410410833334,39.0,96.0
620,71.44238515833334,71.67410410833334,51.0,96.0
621,71.69985065833333,71.75992594166667,66.0,127.0
622,71.69985065833333,72.01846421458333,63.0,102.0
623,71.69985065833333,72.03026471666666,70.0,100.0
624,71.82858340833333,72.05386572083333,66.0,68.0
625,72.21478165833334,72.26734753125,66.0,127.0
626,72.21478165833334,72.2770024875,70.0,122.0
627,72.21478165833334,72.2898757625,63.0,107.0
628,71.95731615833333,72.35209659166667,46.0,90.0
629,71.95731615833333,72.35209659166667,58.0,90.0
630,72.47224715833333,72.5022848,63.0,68.0
631,72.72971265833333,72.7790602125,66.0,127.0
632,72.72971265833333,72.78978794166666,70.0,122.0
633,72.72971265833333,72.79622457916666,63.0,117.0
634,72.47224715833333,72.80373398958334,39.0,93.0
635,72.47224715833333,72.80373398958334,51.0,93.0
636,72.98717815833334,73.07085444583333,66.0,127.0
637,72.98717815833334,73.08480049375,63.0,100.0
638,72.98717815833334,73.08909158541667,70.0,96.0
639,72.98717815833334,73.22211542708334,46.0,112.0
640,72.98717815833334,73.22211542708334,58.0,112.0
641,73.24464365833333,73.30257339583333,70.0,117.0
642,73.24464365833333,73.313301125,66.0,127.0
643,73.24464365833333,73.32831994583333,63.0,107.0
644,73.50210915833334,73.77352070625,35.0,96.0
645,73.50210915833334,73.77352070625,47.0,96.0
646,73.75957465833334,74.0985709,59.0,96.0
647,73.75957465833334,74.111444175,63.0,122.0
648,73.75957465833334,74.11680803958333,66.0,112.0
649,74.01704015833333,74.28630616041667,42.0,92.0
650,74.01704015833333,74.28630616041667,54.0,92.0
651,74.27450565833334,74.34423589791666,66.0,99.0
652,74.27450565833334,74.3495997625,63.0,112.0
653,74.27450565833334,74.37320076666667,59.0,95.0
654,74.78943665833333,74.89885949583334,58.0,127.0
655,74.78943665833333,74.90100504166666,61.0,107.0
656,74.53197115833333,74.97180805416667,34.0,93.0
657,74.53197115833333,74.97180805416667,46.0,93.0
658,75.04690215833334,75.16812549791666,58.0,107.0
659,75.04690215833334,75.18207154583334,61.0,96.0
660,75.04690215833334,75.40198999374999,41.0,56.0
661,75.04690215833334,75.40198999374999,53.0,56.0
662,75.30436765833333,75.4180815875,58.0,107.0
663,75.30436765833333,75.42773654375,61.0,102.0
664,75.30436765833333,75.43417318125,65.0,96.0
665,75.56183315833333,76.08212802291666,29.0,80.0
666,75.56183315833333,76.08212802291666,41.0,80.0
667,75.81929865833334,76.15293103541667,53.0,92.0
668,75.81929865833334,76.15507658125,60.0,96.0
669,75.81929865833334,76.1582949,56.0,107.0
670,76.33422965833333,76.41683317291667,56.0,99.0
671,76.33422965833333,76.41790594583334,53.0,90.0
672,76.33422965833333,76.41790594583334,60.0,92.0
673,76.07676415833333,76.45545299791667,36.0,67.0
674,76.07676415833333,76.45545299791667,48.0,67.0
675,76.59169515833334,77.13773657291667,29.0,61.0
676,76.59169515833334,77.13773657291667,41.0,61.0
677,76.84916065833333,77.19566631041667,53.0,97.0
678,76.84916065833333,77.20210294791667,56.0,127.0
679,76.84916065833333,77.20317572083333,60.0,102.0
680,77.36409165833334,77.42845803333333,60.0,88.0
681,77.10662615833333,77.43704021666667,36.0,89.0
682,77.10662615833333,77.43704021666667,48.0,89.0
683,77.36409165833334,77.44454962708333,56.0,112.0
684,77.36409165833334,77.45420458333334,53.0,100.0
685,77.62155715833333,77.6580314375,61.0,36.0
686,77.62155715833333,78.0120465,34.0,97.0
687,77.62155715833333,78.0120465,46.0,97.0
688,77.87902265833333,78.21587335416666,58.0,127.0
689,77.87902265833333,78.2373288125,61.0,107.0
690,78.13648815833334,78.48621212916666,41.0,59.0
691,78.13648815833334,78.48621212916666,53.0,59.0
692,78.39395365833333,78.4947943125,58.0,117.0
693,78.39395365833333,78.49693985833333,65.0,96.0
694,78.39395365833333,78.50552204166667,61.0,112.0
695,78.90888465833333,78.99363371875,65.0,90.0
696,78.90888465833333,78.99899758333333,61.0,112.0
697,78.90888465833333,79.00221590208334,58.0,127.0
698,78.65141915833334,79.04619959166666,34.0,96.0
699,78.65141915833334,79.04619959166666,46.0,96.0
700,79.16635015833333,79.25217199166667,61.0,95.0
701,79.16635015833333,79.25860862916667,58.0,102.0
702,79.16635015833333,79.260754175,65.0,89.0
703,79.16635015833333,79.44848943541666,41.0,86.0
704,79.16635015833333,79.44848943541666,53.0,86.0
705,79.42381565833334,79.49140035208333,65.0,81.0
706,79.42381565833334,79.492473125,58.0,127.0
707,79.42381565833334,79.50856471875,61.0,117.0
708,79.68128115833333,80.05460613333334,39.0,102.0
709,79.68128115833333,80.05460613333334,51.0,102.0
710,79.93874665833333,80.28525231041667,66.0,127.0
711,79.93874665833333,80.29276172083334,63.0,100.0
712,79.93874665833333,80.30456222291667,70.0,112.0
713,80.45367765833333,80.52126235208334,66.0,127.0
714,80.45367765833333,80.52126235208334,70.0,117.0
715,80.45367765833333,80.53842671875,63.0,107.0
716,80.19621215833334,80.55880940416667,46.0,86.0
717,80.19621215833334,80.55880940416667,58.0,86.0
718,80.96860865833334,81.02761116875,70.0,107.0
719,80.96860865833334,81.02868394166667,66.0,127.0
720,80.71114315833333,81.03512057916667,39.0,72.0
721,80.71114315833333,81.03512057916667,51.0,72.0
722,80.96860865833334,81.03619335208333,63.0,112.0
723,81.22607415833333,81.28936776041667,66.0,117.0
724,81.22607415833333,81.29365885208334,70.0,93.0
725,81.22607415833333,81.3140415375,63.0,96.0
726,81.48353965833333,81.53395998541667,70.0,107.0
727,81.48353965833333,81.54254216875,66.0,127.0
728,81.21856474791667,81.54683326041666,46.0,90.0
729,81.21856474791667,81.54683326041666,58.0,90.0
730,81.48353965833333,81.57579812916667,63.0,127.0
731,81.74100515833334,82.13471281875,35.0,74.0
732,81.74100515833334,82.13471281875,47.0,74.0
733,81.99847065833333,82.34068521875,63.0,127.0
734,81.99847065833333,82.34283076458334,66.0,127.0
735,81.99847065833333,82.34712185625,59.0,100.0
736,82.51340165833334,82.55523980208334,66.0,88.0
737,82.25593615833333,82.5756224875,54.0,83.0
738,82.25700893125,82.57669526041667,42.0,83.0
739,82.51340165833334,82.59385962708333,63.0,127.0
740,82.51340165833334,82.61209676666667,59.0,97.0
741,82.77086715833333,82.84274294375,61.0,35.0
742,83.02833265833333,83.13990104166666,58.0,122.0
743,83.02833265833333,83.14633767916666,61.0,112.0
744,83.02833265833333,83.14741045208334,65.0,90.0
745,82.77623102291666,83.20855850833334,34.0,95.0
746,82.77623102291666,83.20855850833334,46.0,95.0
747,83.28579815833334,83.39522099583333,58.0,96.0
748,83.28579815833334,83.39522099583333,61.0,96.0
749,83.28579815833334,83.41560368125,65.0,96.0
750,83.54326365833333,83.63552212916667,58.0,117.0
751,83.54326365833333,83.64195876666666,61.0,102.0
752,83.28579815833334,83.65912313333334,53.0,71.0
753,83.54326365833333,83.65912313333334,65.0,92.0
754,83.28687093125,83.66019590625,41.0,71.0
755,83.80072915833334,84.30385965625,29.0,83.0
756,83.80072915833334,84.30385965625,41.0,83.0
757,84.05819465833333,84.36929880416666,60.0,100.0
758,84.05819465833333,84.37358989583333,68.0,117.0
759,84.05819465833333,84.38753594375,65.0,117.0
760,84.57312565833334,84.63856480625,68.0,112.0
761,84.57312565833334,84.64607421666666,65.0,102.0
762,84.57312565833334,84.65036530833333,60.0,97.0
763,84.31244183958333,84.69542177083333,36.0,63.0
764,84.31566015833333,84.69864008958334,48.0,63.0
765,85.08805665833333,85.16636908125,68.0,100.0
766,85.08805665833333,85.17816958333333,65.0,100.0
767,85.08805665833333,85.17924235625,60.0,96.0
768,84.83059115833333,85.26828250833333,29.0,67.0
769,84.83059115833333,85.26828250833333,41.0,67.0
770,85.34552215833334,85.43885340208334,60.0,96.0
771,85.34552215833334,85.4463628125,68.0,96.0
772,85.34552215833334,85.44743558541667,65.0,96.0
773,85.34230383958334,85.66306294166667,36.0,73.0
774,85.34552215833334,85.66628126041667,48.0,73.0
775,85.60298765833333,85.66735403333334,68.0,99.0
776,85.60298765833333,85.68559117291667,65.0,99.0
777,85.60298765833333,85.68880949166666,60.0,100.0
778,85.86045315833333,86.30029005416667,34.0,100.0
779,85.86045315833333,86.30029005416667,46.0,100.0
780,86.11791865833334,86.39791238958334,65.0,92.0
781,86.11791865833334,86.3989851625,58.0,122.0
782,86.11791865833334,86.40756734583333,61.0,117.0
783,86.37216583958333,86.72403535625,41.0,67.0
784,86.63284965833333,86.72403535625,65.0,90.0
785,86.37538415833333,86.727253675,53.0,67.0
786,86.63284965833333,86.72939922083333,58.0,117.0
787,86.63284965833333,86.74012695,61.0,107.0
788,86.89031515833334,86.92786221041666,61.0,37.0
789,87.14778065833333,87.20678316875,65.0,83.0
790,87.14778065833333,87.23038417291667,58.0,117.0
791,87.14778065833333,87.242184675,61.0,112.0
792,86.89031515833334,87.31406046041667,34.0,99.0
793,86.89031515833334,87.31406046041667,46.0,99.0
794,87.40524615833333,87.47604917083333,65.0,76.0
795,87.40524615833333,87.49428631041667,61.0,97.0
796,87.40524615833333,87.49857740208333,58.0,117.0
797,87.40202783958334,87.68416711666667,41.0,71.0
798,87.40524615833333,87.68738543541667,53.0,71.0
799,87.66271165833334,87.76033399375,58.0,122.0
800,87.66271165833334,87.76784340416667,61.0,112.0
801,87.66271165833334,87.77428004166667,65.0,83.0
802,87.92017715833333,87.97596135,63.0,102.0
803,87.92017715833333,87.99098017083334,60.0,107.0
804,87.92017715833333,88.01136285625,56.0,99.0
805,87.92017715833333,88.04890990833333,32.0,85.0
806,87.92017715833333,88.04890990833333,44.0,85.0
807,88.17764265833334,88.25488230833334,63.0,67.0
808,88.17764265833334,88.25702785416667,60.0,86.0
809,88.17764265833334,88.272046675,56.0,72.0
810,88.17764265833334,88.29886599791666,32.0,99.0
811,88.17764265833334,88.29886599791666,44.0,99.0
812,88.43510815833334,88.49840176041667,63.0,93.0
813,88.43510815833334,88.50162007916667,60.0,112.0
814,88.43510815833334,88.53058494791667,56.0,97.0
815,88.43510815833334,88.54238545,32.0,93.0
816,88.43510815833334,88.54238545,44.0,93.0
817,88.69257365833333,88.72153852708334,63.0,36.0
818,88.69257365833333,88.73012071041667,60.0,88.0
819,88.69257365833333,88.78375935625,56.0,102.0
820,88.69257365833333,88.81057867916667,32.0,102.0
821,88.69257365833333,88.81057867916667,44.0,102.0
822,88.95003915833334,89.26114330416667,56.0,127.0
823,88.95003915833334,89.26221607708334,60.0,107.0
824,88.95003915833334,89.26757994166667,53.0,102.0
825,88.95003915833334,89.29976312916666,29.0,89.0
826,88.95003915833334,89.29976312916666,41.0,89.0
827,89.97990115833333,90.33284344791667,34.0,100.0
828,89.97990115833333,90.33284344791667,46.0,100.0
829,90.23736665833333,90.34357117708333,65.0,88.0
830,90.23736665833333,90.34571672291666,58.0,122.0
831,90.23736665833333,90.34571672291666,61.0,107.0
832,90.75229765833333,90.84884722083333,58.0,122.0
833,90.75229765833333,90.85099276666666,65.0,90.0
834,90.75229765833333,90.85421108541667,61.0,97.0
835,90.49483215833334,90.86493881458334,53.0,55.0
836,90.51628761666667,90.88639427291666,41.0,55.0
837,91.26722865833334,91.3487594,65.0,76.0
838,91.26722865833334,91.36699653958334,58.0,127.0
839,91.26722865833334,91.37665149583333,61.0,102.0
840,91.00976315833333,91.45389114583334,34.0,93.0
841,91.00976315833333,91.45389114583334,46.0,93.0
842,91.52469415833333,91.593351625,65.0,79.0
843,91.52469415833333,91.61051599166667,58.0,107.0
844,91.52469415833333,91.62768035833334,61.0,93.0
845,91.78215965833333,91.87334535625,58.0,122.0
846,91.78215965833333,91.87978199375,65.0,85.0
847,91.78215965833333,91.88621863125,61.0,102.0
848,91.52469415833333,91.89158249583333,53.0,82.0
849,91.54614961666667,91.91303795416667,41.0,82.0
850,92.29709065833333,92.39685853958333,58.0,112.0
851,92.29709065833333,92.40973181458334,65.0,85.0
852,92.29709065833333,92.41295013333334,61.0,102.0
853,92.03962515833334,92.47409818958333,34.0,86.0
854,92.03962515833334,92.47409818958333,46.0,86.0
855,92.81202165833334,92.8935524,65.0,72.0
856,92.81202165833334,92.91178953958334,58.0,117.0
857,92.55455615833333,92.92680836041667,53.0,71.0
858,92.81202165833334,92.93109945208333,61.0,102.0
859,92.57601161666666,92.94826381875,41.0,71.0
860,93.32695265833334,93.37308189375,65.0,72.0
861,93.32695265833334,93.41599281041667,58.0,122.0
862,93.32695265833334,93.43101163125,61.0,99.0
863,93.06948715833333,93.44388490625,34.0,97.0
864,93.06948715833333,93.44388490625,46.0,97.0
865,93.58441815833334,93.63054739375,65.0,68.0
866,93.58441815833334,93.6659489,58.0,107.0
867,93.58441815833334,93.67774940208334,61.0,92.0
868,93.58441815833334,93.94165153958333,53.0,73.0
869,93.60587361666667,93.96310699791667,41.0,73.0
870,93.84188365833333,93.96739808958333,58.0,117.0
871,93.84188365833333,93.97168918125,65.0,85.0
872,93.84188365833333,93.99207186666666,61.0,99.0
873,94.09934915833334,95.72030903541666,65.0,100.0
874,94.09934915833334,95.80720364166666,68.0,102.0
875,94.09934915833334,95.81900414374999,61.0,102.0
876,94.09934915833334,95.89195270208333,53.0,65.0
877,94.09934915833334,95.92842698125,56.0,96.0
878,94.09934915833334,96.00888495,37.0,96.0
879,94.09934915833334,96.00888495,49.0,96.0
880,96.15907315833333,96.19876575625,63.0,112.0
881,96.15907315833333,96.20627516666667,66.0,99.0
882,96.15907315833333,96.21593012291666,58.0,99.0
883,96.15907315833333,96.22880339791666,51.0,97.0
884,96.16229147708333,96.23202171666667,39.0,97.0
885,96.330716825,96.37470051458334,66.0,89.0
886,96.330716825,96.37791883333334,63.0,96.0
887,96.330716825,96.40366538333333,51.0,92.0
888,96.330716825,96.40473815625,58.0,90.0
889,96.33393514375,96.40688370208333,39.0,92.0
890,96.50236049166666,96.54634418125,66.0,85.0
891,96.50236049166666,96.55278081875,63.0,93.0
892,96.50236049166666,96.57423627708333,58.0,89.0
893,96.50236049166666,96.59032787083333,51.0,100.0
894,96.50557881041667,96.59354618958334,39.0,100.0
895,96.67400415833333,96.72978835,63.0,99.0
896,96.67400415833333,96.73300666875,66.0,93.0
897,96.67400415833333,96.75124380833333,58.0,95.0
898,96.67400415833333,96.75338935416667,51.0,107.0
899,96.67722247708333,96.75660767291667,39.0,107.0
900,96.845647825,96.89499537916667,63.0,89.0
901,96.845647825,96.90143201666666,66.0,82.0
902,96.845647825,96.91752361041667,58.0,83.0
903,96.845647825,96.9293241125,51.0,97.0
904,96.84886614375,96.93254243125,39.0,97.0
905,97.01729149166667,97.06985736458333,66.0,97.0
906,97.01729149166667,97.0709301375,63.0,95.0
907,97.01729149166667,97.09131282291666,58.0,86.0
908,97.01729149166667,97.10418609791667,51.0,102.0
909,97.02050981041667,97.10740441666667,39.0,102.0
910,97.18893515833334,97.74999539375,63.0,117.0
911,97.18893515833334,97.76823253333333,66.0,102.0
912,97.18893515833334,97.88301923541667,58.0,99.0
913,97.18893515833334,98.00746089375,51.0,127.0
914,97.19215347708334,98.0106792125,39.0,127.0
915,98.21879715833333,99.71102428541667,60.0,107.0
916,98.21879715833333,99.74106192708334,63.0,102.0
917,98.21879715833333,99.76466293125,56.0,97.0
918,98.21879715833333,99.96956255833334,44.0,100.0
919,100.27852115833333,100.34932417083333,65.0,75.0
920,100.27852115833333,100.36756131041666,58.0,127.0
921,100.27744838541666,100.37399794791666,34.0,102.0
922,100.27852115833333,100.37507072083334,46.0,102.0
923,100.27852115833333,100.38794399583334,61.0,117.0
924,100.450164825,100.53598665833333,58.0,76.0
925,100.44909205208333,100.53920497708333,34.0,86.0
926,100.450164825,100.54027775,46.0,86.0
927,100.450164825,100.55100547916666,61.0,76.0
928,100.62180849166667,100.69797536875,65.0,70.0
929,100.62180849166667,100.70655755208334,58.0,88.0
930,100.62073571875,100.707630325,34.0,78.0
931,100.62180849166667,100.70870309791667,46.0,78.0
932,100.62180849166667,100.72157637291667,61.0,76.0
933,100.79345215833334,100.86640071666666,65.0,85.0
934,100.79237938541667,100.87391012708333,34.0,86.0
935,100.79345215833334,100.8749829,46.0,86.0
936,100.79345215833334,100.87927399166666,58.0,97.0
937,100.79345215833334,100.89107449375,61.0,89.0
938,100.965095825,101.00478842291666,65.0,76.0
939,100.965095825,101.04555379375,58.0,97.0
940,100.96402305208333,101.05199043125,34.0,88.0
941,100.965095825,101.05306320416666,46.0,88.0
942,100.965095825,101.05735429583333,61.0,90.0
943,101.13673949166666,101.20110586666667,65.0,83.0
944,101.13673949166666,101.21183359583334,58.0,96.0
945,101.13673949166666,101.21827023333333,61.0,93.0
946,101.13566671875,101.22148855208333,34.0,89.0
947,101.13673949166666,101.222561325,46.0,89.0
948,101.30731038541667,102.19556636041666,34.0,117.0
949,101.30838315833333,102.19663913333333,46.0,117.0
950,101.30838315833333,102.19771190625,58.0,122.0
951,101.30838315833333,102.22560400208333,61.0,107.0
952,101.30838315833333,102.23633173125,65.0,107.0
953,102.59571065833333,102.73302559166666,58.0,100.0
954,102.59571065833333,102.73731668333333,65.0,73.0
955,102.33824515833334,102.74268054791666,46.0,99.0
956,102.59571065833333,102.74482609375,61.0,86.0
957,103.11064165833334,103.21362785833334,58.0,107.0
958,103.11064165833334,103.22221004166667,65.0,76.0
959,103.11064165833334,103.22971945208333,61.0,96.0
960,102.85317615833333,103.26404818541667,53.0,66.0
961,103.36810715833333,103.83583615,46.0,96.0
962,103.62557265833334,104.01391645416666,65.0,78.0
963,103.62557265833334,104.016062,58.0,107.0
964,103.62557265833334,104.016062,61.0,95.0
965,104.14050365833333,104.21988885416667,58.0,100.0
966,104.14050365833333,104.25743590625,61.0,100.0
967,103.88303815833333,104.31965673541667,53.0,56.0
968,104.39796915833334,104.83887882708333,44.0,52.0
969,104.65543465833333,104.93542838958334,60.0,99.0
970,104.65543465833333,104.93757393541667,63.0,97.0
971,104.65543465833333,104.95044721041667,56.0,92.0
972,105.17036565833334,105.23473203333333,60.0,100.0
973,105.17036565833334,105.24116867083333,63.0,96.0
974,105.17036565833334,105.25618749166667,56.0,96.0
975,104.91290015833333,105.42997670416666,51.0,82.0
976,105.42783115833333,105.92023392708333,44.0,40.0
977,105.68529665833333,106.02000180833333,60.0,112.0
978,105.68529665833333,106.02536567291666,63.0,95.0
979,105.68529665833333,106.037166175,56.0,93.0
980,106.20022765833333,106.24206580208333,60.0,93.0
981,106.20022765833333,106.27639453541667,63.0,85.0
982,106.20022765833333,106.31823267916667,56.0,96.0
983,105.94276215833334,106.38796291875,51.0,88.0
984,106.45769315833333,106.9704786125,42.0,79.0
985,106.71515865833334,107.0541549,58.0,100.0
986,106.71515865833334,107.06810094791666,61.0,97.0
987,107.23008965833333,107.32663922083333,66.0,95.0
988,107.23008965833333,107.33307585833333,61.0,107.0
989,107.23008965833333,107.33736695,58.0,112.0
990,106.97262415833333,107.36740459166667,54.0,61.0
991,107.48755515833334,107.91130046041667,42.0,71.0
992,107.74502065833333,108.13014613541667,58.0,112.0
993,107.74502065833333,108.13121890833334,66.0,81.0
994,107.74502065833333,108.13443722708334,61.0,97.0
995,108.25995165833334,108.30608089375,66.0,78.0
996,108.25995165833334,108.35328290208334,58.0,122.0
997,108.25995165833334,108.36722895,61.0,102.0
998,108.00248615833333,108.40048491041667,42.0,56.0
999,108.51741715833333,108.972272875,41.0,71.0
1000,108.77488265833334,109.10422394375,57.0,97.0
1001,108.77488265833334,109.10851503541667,53.0,90.0
1002,108.77488265833334,109.10851503541667,60.0,93.0
1003,109.28981365833333,109.37670826458333,53.0,90.0
1004,109.28981365833333,109.3777810375,57.0,92.0
1005,109.28981365833333,109.38850876666666,60.0,89.0
1006,109.03234815833333,109.44322018541666,48.0,69.0
1007,109.54727915833334,109.98497050833333,41.0,78.0
1008,109.80474465833333,110.17806963333334,57.0,92.0
1009,109.80474465833333,110.18021517916667,60.0,88.0
1010,109.80474465833333,110.18128795208334,53.0,88.0
1011,110.31967565833334,110.37545985,57.0,83.0
1012,110.31967565833334,110.37545985,60.0,76.0
1013,110.31967565833334,110.40549749166667,53.0,90.0
1014,110.06221015833333,110.47522773125,48.0,76.0
1015,110.57714115833333,111.12747366458333,46.0,86.0
1016,110.83460665833333,111.1414197125,58.0,93.0
1017,110.83460665833333,111.15000189583333,65.0,85.0
1018,110.83460665833333,111.15858407916667,61.0,93.0
1019,111.34953765833333,111.42355898958333,65.0,54.0
1020,111.34953765833333,111.44072335625,58.0,112.0
1021,111.34953765833333,111.44179612916666,61.0,96.0
1022,111.09207215833334,111.44501444791666,53.0,88.0
1023,111.60700315833333,112.12515247708333,46.0,92.0
1024,111.86446865833334,112.19380994375,58.0,107.0
1025,111.86446865833334,112.20024658125,65.0,85.0
1026,111.86446865833334,112.20239212708333,61.0,99.0
1027,112.37939965833333,112.47809476666667,65.0,73.0
1028,112.37939965833333,112.48238585833333,58.0,107.0
1029,112.37939965833333,112.49740467916666,61.0,100.0
1030,112.12193415833333,112.525296775,53.0,72.0
1031,112.63686515833334,113.1303407,46.0,92.0
1032,112.89433065833333,113.2140169875,58.0,102.0
1033,112.89433065833333,113.22474471666666,65.0,90.0
1034,112.89433065833333,113.2333269,61.0,92.0
1035,113.40926165833334,113.50581122083334,58.0,112.0
1036,113.40926165833334,113.51439340416667,65.0,93.0
1037,113.40926165833334,113.52190281458333,61.0,107.0
1038,113.15179615833334,113.555158775,53.0,68.0
1039,113.66672715833333,114.18487647708334,46.0,77.0
1040,113.92419265833334,114.27069831041666,58.0,122.0
1041,113.92419265833334,114.27713494791666,65.0,95.0
1042,113.92419265833334,114.2824988125,61.0,102.0
1043,114.18165815833333,114.48096180208333,53.0,71.0
1044,114.43912365833333,114.49812616875,65.0,74.0
1045,114.43912365833333,114.52279994583333,58.0,112.0
1046,114.43912365833333,114.53030935625,61.0,112.0
1047,114.95405465833333,115.10531563958334,65.0,78.0
1048,114.95405465833333,115.1063884125,58.0,97.0
1049,114.95405465833333,115.11711614166667,61.0,90.0
1050,114.69658915833334,115.1192616875,46.0,90.0
1051,115.46898565833334,115.4990233,65.0,69.0
1052,115.46898565833334,115.55909858333334,58.0,102.0
1053,115.46898565833334,115.56768076666667,61.0,99.0
1054,115.21152015833333,115.61917386666667,53.0,71.0
1055,115.72645115833333,116.25747375208333,46.0,81.0
1056,115.98391665833333,116.28965693958334,58.0,97.0
1057,115.98391665833333,116.30145744166667,65.0,63.0
1058,115.98391665833333,116.31433071666666,61.0,85.0
1059,116.49884765833333,116.58466949166667,65.0,71.0
1060,116.49884765833333,116.59217890208333,58.0,100.0
1061,116.49884765833333,116.60505217708334,61.0,90.0
1062,116.24138215833334,116.62865318125,53.0,71.0
1063,116.75631315833333,117.31200952916667,46.0,77.0
1064,117.01377865833334,117.314155075,58.0,97.0
1065,117.01377865833334,117.32166448541666,65.0,81.0
1066,117.01377865833334,117.32273725833333,61.0,82.0
1067,117.52870965833333,117.5587473,65.0,63.0
1068,117.52870965833333,117.6166770375,58.0,99.0
1069,117.52870965833333,117.623113675,61.0,95.0
1070,117.27124415833333,117.67246122916667,53.0,70.0
1071,118.04364065833333,118.3826369,58.0,92.0
1072,118.04364065833333,118.39336462916667,65.0,73.0
1073,118.04364065833333,118.40087403958333,61.0,83.0
1074,117.78617515833334,118.40516513125,46.0,78.0
1075,118.30110615833334,118.62615635208333,53.0,76.0
1076,118.55857165833334,118.6336657625,65.0,66.0
1077,118.55857165833334,118.65190290208334,58.0,99.0
1078,118.55857165833334,118.6594123125,61.0,89.0
1079,118.81603715833333,119.31165824583333,46.0,73.0
1080,119.07350265833334,119.373879075,58.0,89.0
1081,119.07350265833334,119.373879075,65.0,76.0
1082,119.07350265833334,119.38889789583334,61.0,85.0
1083,119.58843365833333,119.67103717291667,65.0,78.0
1084,119.58843365833333,119.68069212916667,58.0,100.0
1085,119.58843365833333,119.68712876666666,61.0,90.0
1086,119.33096815833333,119.72574859166667,53.0,67.0
1087,120.10336465833333,120.46381635833333,65.0,74.0
1088,120.10336465833333,120.46488913125,58.0,97.0
1089,120.10336465833333,120.47454408749999,61.0,86.0
1090,119.84589915833334,120.51638223125,46.0,88.0
1091,120.61829565833334,120.71162690208334,58.0,107.0
1092,120.61829565833334,120.72020908541667,61.0,88.0
1093,120.36083015833333,120.7513195,53.0,69.0
1094,120.87576115833333,121.34241737708334,39.0,85.0
1095,121.13322665833333,121.41643870833333,58.0,97.0
1096,121.13322665833333,121.41751148125,63.0,92.0
1097,121.13322665833333,121.43789416666667,54.0,93.0
1098,121.64815765833333,121.70823294166667,63.0,96.0
1099,121.64815765833333,121.71252403333334,58.0,107.0
1100,121.64815765833333,121.73076117291667,54.0,96.0
1101,121.39069215833334,121.73505226458333,46.0,69.0
1102,121.90562315833333,122.34975114583334,39.0,75.0
1103,122.16308865833334,122.49672103541667,58.0,102.0
1104,122.16308865833334,122.50101212708333,63.0,93.0
1105,122.16308865833334,122.5085215375,54.0,95.0
1106,122.67801965833333,122.72951275833333,63.0,86.0
1107,122.67801965833333,122.75096821666666,58.0,99.0
1108,122.67801965833333,122.76062317291667,54.0,90.0
1109,122.42055415833333,122.79709745208334,46.0,81.0
1110,122.93548515833334,123.39785028541667,39.0,89.0
1111,123.19295065833333,123.47830825416666,58.0,95.0
1112,123.19295065833333,123.49439984791667,63.0,92.0
1113,123.19295065833333,123.51049144166667,54.0,90.0
1114,123.70788165833333,123.76152030416667,63.0,78.0
1115,123.70788165833333,123.76688416875,58.0,93.0
1116,123.70788165833333,123.79048517291666,54.0,92.0
1117,123.45041615833334,123.79263071875,46.0,93.0
1118,124.22281265833334,124.54786285208333,63.0,79.0
1119,124.22281265833334,124.5618089,58.0,95.0
1120,124.22281265833334,124.57897326666667,54.0,93.0
1121,123.96534715833333,124.63904855,39.0,86.0
1122,124.73774365833333,124.77850902916667,58.0,92.0
1123,124.73774365833333,124.79138230416666,63.0,82.0
1124,124.73774365833333,124.8257110375,54.0,97.0
1125,124.48027815833333,124.83107490208333,46.0,93.0
1126,124.99520915833334,125.47473865208333,44.0,73.0
1127,125.25267465833333,125.55626939375,63.0,93.0
1128,125.25267465833333,125.56270603125,60.0,93.0
1129,125.25267465833333,125.58201594375,56.0,88.0
1130,125.76760565833334,125.83089926041667,60.0,93.0
1131,125.76760565833334,125.86093690208334,63.0,85.0
1132,125.76760565833334,125.87273740416667,56.0,92.0
1133,125.51014015833333,125.87381017708333,51.0,75.0
1134,126.02507115833333,126.49709124166667,46.0,96.0
1135,126.28253665833333,126.53249274791666,61.0,97.0
1136,126.28253665833333,126.60007744166667,58.0,100.0
1137,126.79746765833333,126.89079890208333,65.0,74.0
1138,126.79746765833333,126.90903604166667,61.0,100.0
1139,126.79746765833333,126.917618225,58.0,99.0
1140,126.54000215833334,126.93156427291666,53.0,69.0
1141,127.31239865833334,127.4132393125,60.0,82.0
1142,127.31239865833334,127.42289426875,63.0,107.0
1143,127.05493315833333,127.42503981458333,48.0,95.0
1144,127.31239865833334,127.43040367916667,66.0,100.0
1145,127.82732965833333,127.91636981041667,63.0,102.0
1146,127.82732965833333,127.91851535625,60.0,83.0
1147,127.82732965833333,127.93246140416667,66.0,102.0
1148,128.08479515833332,128.6104538875,48.0,78.0
1149,128.34226065833334,128.67267471666668,60.0,81.0
1150,128.34226065833334,128.67589303541666,63.0,102.0
1151,128.34226065833334,128.67911135416668,66.0,97.0
1152,128.85719165833333,128.91297585,63.0,107.0
1153,128.85719165833333,128.92906744375,60.0,83.0
1154,128.85719165833333,128.93014021666667,66.0,97.0
1155,129.11465715833333,129.18546017083332,65.0,96.0
1156,129.11465715833333,129.18760571666667,69.0,92.0
1157,129.11465715833333,129.19511512708334,60.0,90.0
1158,129.11465715833333,129.20798840208334,41.0,62.0
1159,129.11465715833333,129.21227949375,53.0,85.0
1160,129.37212265833332,129.43005239583334,65.0,90.0
1161,129.37212265833332,129.43648903333334,69.0,83.0
1162,129.37212265833332,129.44185289791668,60.0,82.0
1163,129.37212265833332,129.45150785416666,41.0,60.0
1164,129.37212265833332,129.45901726458334,53.0,89.0
1165,129.62958815833332,129.68966344166665,65.0,96.0
1166,129.62958815833332,129.70253671666666,60.0,97.0
1167,129.62958815833332,129.70360948958333,69.0,89.0
1168,129.62958815833332,129.71540999166666,41.0,64.0
1169,129.62958815833332,129.72721049375,53.0,97.0
1170,129.88705365833334,129.92567348333333,65.0,93.0
1171,129.88705365833334,129.93532843958334,69.0,95.0
1172,129.88705365833334,129.93747398541666,60.0,96.0
1173,129.88705365833334,129.95249280625,53.0,99.0
1174,129.88705365833334,129.95678389791667,41.0,66.0
1175,130.01578640833333,130.06835228125,65.0,95.0
1176,130.01578640833333,130.07049782708333,60.0,92.0
1177,130.01578640833333,130.07264337291667,69.0,82.0
1178,130.01578640833333,130.0780072375,53.0,82.0
1179,130.01578640833333,130.09517160416667,41.0,67.0
1180,130.14451915833334,130.23999594791667,53.0,112.0
1181,130.14451915833334,130.24750535833334,41.0,79.0
1182,130.14451915833334,130.25286922291667,65.0,100.0
1183,130.14451915833334,130.25501476875,60.0,100.0
1184,130.14451915833334,130.25716031458333,69.0,90.0
1185,131.43184665833334,131.58310763958335,65.0,78.0
1186,131.43184665833334,131.5841804125,58.0,97.0
1187,131.43184665833334,131.59490814166668,61.0,90.0
1188,131.17438115833335,131.5970536875,46.0,90.0
1189,131.94677765833333,131.9768153,65.0,69.0
1190,131.94677765833333,132.03689058333333,58.0,102.0
1191,131.94677765833333,132.04547276666668,61.0,99.0
1192,131.68931215833334,132.09696586666666,53.0,71.0
1193,132.20424315833333,132.73526575208334,46.0,81.0
1194,132.46170865833332,132.76744893958335,58.0,97.0
1195,132.46170865833332,132.77924944166668,65.0,63.0
1196,132.46170865833332,132.79212271666665,61.0,85.0
1197,132.97663965833334,133.06246149166665,65.0,71.0
1198,132.97663965833334,133.06997090208333,58.0,100.0
1199,132.97663965833334,133.08284417708333,61.0,90.0
1200,132.71917415833335,133.10644518125,53.0,71.0
1201,133.23410515833334,133.78980152916665,46.0,77.0
1202,133.49157065833333,133.791947075,58.0,97.0
1203,133.49157065833333,133.79945648541667,65.0,81.0
1204,133.49157065833333,133.80052925833334,61.0,82.0
1205,134.00650165833332,134.0365393,65.0,63.0
1206,134.00650165833332,134.0944690375,58.0,99.0
1207,134.00650165833332,134.100905675,61.0,95.0
1208,133.74903615833333,134.15025322916668,53.0,70.0
1209,134.52143265833334,134.8604289,58.0,92.0
1210,134.52143265833334,134.87115662916668,65.0,73.0
1211,134.52143265833334,134.87866603958332,61.0,83.0
1212,134.26396715833334,134.88295713125,46.0,78.0
1213,134.77889815833333,135.10394835208334,53.0,76.0
1214,135.03636365833333,135.1114577625,65.0,66.0
1215,135.03636365833333,135.12969490208334,58.0,99.0
1216,135.03636365833333,135.1372043125,61.0,89.0
1217,135.29382915833332,135.78945024583334,46.0,73.0
1218,135.55129465833335,135.851671075,58.0,89.0
1219,135.55129465833335,135.851671075,65.0,76.0
1220,135.55129465833335,135.86668989583333,61.0,85.0
1221,136.06622565833334,136.14882917291666,65.0,78.0
1222,136.06622565833334,136.15848412916668,58.0,100.0
1223,136.06622565833334,136.16492076666665,61.0,90.0
1224,135.80876015833334,136.20354059166667,53.0,67.0
1225,136.58115665833333,136.94160835833333,65.0,74.0
1226,136.58115665833333,136.94268113125,58.0,97.0
1227,136.58115665833333,136.9523360875,61.0,86.0
1228,136.32369115833333,136.99417423125,46.0,88.0
1229,137.09608765833335,137.18941890208333,58.0,107.0
1230,137.09608765833335,137.19800108541668,61.0,88.0
1231,136.83862215833332,137.2291115,53.0,69.0
1232,137.35355315833334,137.82020937708333,39.0,85.0
1233,137.61101865833334,137.89423070833334,58.0,97.0
1234,137.61101865833334,137.89530348125,63.0,92.0
1235,137.61101865833334,137.91568616666666,54.0,93.0
1236,138.12594965833333,138.18602494166666,63.0,96.0
1237,138.12594965833333,138.19031603333335,58.0,107.0
1238,138.12594965833333,138.20855317291668,54.0,96.0
1239,137.86848415833333,138.21284426458334,46.0,69.0
1240,138.38341515833332,138.82754314583335,39.0,75.0
1241,138.64088065833334,138.97451303541666,58.0,102.0
1242,138.64088065833334,138.97880412708332,63.0,93.0
1243,138.64088065833334,138.9863135375,54.0,95.0
1244,139.15581165833333,139.20730475833332,63.0,86.0
1245,139.15581165833333,139.22876021666667,58.0,99.0
1246,139.15581165833333,139.23841517291666,54.0,90.0
1247,138.89834615833334,139.27488945208333,46.0,81.0
1248,139.41327715833333,139.87564228541666,39.0,89.0
1249,139.67074265833332,139.95610025416667,58.0,95.0
1250,139.67074265833332,139.97219184791666,63.0,92.0
1251,139.67074265833332,139.98828344166665,54.0,90.0
1252,140.18567365833334,140.23931230416667,63.0,78.0
1253,140.18567365833334,140.24467616875,58.0,93.0
1254,140.18567365833334,140.26827717291667,54.0,92.0
1255,139.92820815833332,140.27042271875,46.0,93.0
1256,140.70060465833333,141.02565485208333,63.0,79.0
1257,140.70060465833333,141.0396009,58.0,95.0
1258,140.70060465833333,141.05676526666667,54.0,93.0
1259,140.44313915833334,141.11684055,39.0,86.0
1260,141.21553565833332,141.25630102916668,58.0,92.0
1261,141.21553565833332,141.26917430416665,63.0,82.0
1262,141.21553565833332,141.3035030375,54.0,97.0
1263,140.95807015833333,141.30886690208334,46.0,93.0
1264,141.47300115833335,141.95253065208334,44.0,73.0
1265,141.73046665833334,142.03406139375,63.0,93.0
1266,141.73046665833334,142.04049803125,60.0,93.0
1267,141.73046665833334,142.05980794375,56.0,88.0
1268,142.24539765833333,142.30869126041668,60.0,93.0
1269,142.24539765833333,142.33872890208335,63.0,85.0
1270,142.24539765833333,142.35052940416668,56.0,92.0
1271,141.98793215833334,142.35160217708332,51.0,75.0
1272,142.50286315833333,142.97488324166667,46.0,96.0
1273,142.76032865833332,143.01028474791667,61.0,97.0
1274,142.76032865833332,143.07786944166668,58.0,100.0
1275,143.27525965833334,143.36859090208333,65.0,74.0
1276,143.27525965833334,143.38682804166666,61.0,100.0
1277,143.27525965833334,143.395410225,58.0,99.0
1278,143.01779415833334,143.40935627291665,53.0,69.0
1279,143.79019065833333,143.87708526458334,63.0,102.0
1280,143.53272515833334,143.88030358333333,48.0,88.0
1281,143.79019065833333,143.8910313125,60.0,86.0
1282,143.79019065833333,143.89532240416668,66.0,100.0
1283,144.30512165833332,144.40059844791668,63.0,100.0
1284,144.30512165833332,144.41239895,60.0,86.0
1285,144.30512165833332,144.42098113333333,66.0,97.0
1286,144.82005265833334,144.90051062708332,60.0,88.0
1287,144.56258715833334,144.90587449166668,41.0,90.0
1288,144.82005265833334,144.91338390208332,68.0,100.0
1289,144.82005265833334,144.92732995,65.0,95.0
1290,145.07751815833333,145.40900498958334,48.0,79.0
1291,145.33498365833333,145.43904263125,60.0,96.0
1292,145.33498365833333,145.44226095,68.0,102.0
1293,145.33498365833333,145.45084313333334,65.0,99.0
1294,145.84991465833335,145.91642657916665,65.0,61.0
1295,145.84991465833335,145.93573649166666,61.0,95.0
1296,145.59244915833332,145.95290085833332,46.0,122.0
1297,145.84991465833335,145.95933749583332,58.0,97.0
1298,146.36484565833334,146.42599371458334,65.0,73.0
1299,146.36484565833334,146.4463764,61.0,112.0
1300,146.36484565833334,146.47319572291667,58.0,99.0
1301,146.10738015833334,146.53327100625,53.0,69.0
1302,146.62231115833333,147.10184065208333,46.0,76.0
1303,146.87977665833333,147.24022835833333,65.0,70.0
1304,146.87977665833333,147.25631995208335,61.0,112.0
1305,146.87977665833333,147.26490213541666,58.0,99.0
1306,147.39470765833335,147.4569284875,65.0,78.0
1307,147.39470765833335,147.47945671875,61.0,117.0
1308,147.39470765833335,147.50949436041665,58.0,97.0
1309,147.13724215833332,147.51056713333332,53.0,75.0
1310,147.65217315833334,148.07162736875,46.0,102.0
1311,147.65324593125,148.07270014166667,34.0,102.0
1312,147.90963865833334,148.18963238958332,65.0,82.0
1313,147.90963865833334,148.19606902708333,61.0,117.0
1314,147.90963865833334,148.21216062083334,58.0,100.0
1315,148.42456965833333,148.50073653541668,61.0,112.0
1316,148.16710415833333,148.52004644791666,41.0,73.0
1317,148.16710415833333,148.52004644791666,53.0,73.0
1318,148.42456965833333,148.52433753958334,58.0,100.0
1319,148.68203515833332,149.1047076875,46.0,99.0
1320,148.68310793125,149.10578046041667,34.0,99.0
1321,148.93950065833334,149.26347807916667,65.0,81.0
1322,148.93950065833334,149.2720602625,61.0,127.0
1323,148.93950065833334,149.28707908333334,58.0,112.0
1324,149.45443165833333,149.48983316458333,65.0,68.0
1325,149.19696615833334,149.50699753125,41.0,89.0
1326,149.19696615833334,149.50699753125,53.0,89.0
1327,149.45443165833333,149.52201635208334,61.0,127.0
1328,149.45443165833333,149.53703517291666,58.0,112.0
1329,149.96936265833332,149.99725475416668,65.0,77.0
1330,149.96936265833332,150.01334634791667,61.0,127.0
1331,149.96936265833332,150.03694735208333,58.0,127.0
1332,149.71189715833333,150.06805776666667,46.0,107.0
1333,149.71296993125,150.06913053958334,34.0,107.0
1334,150.09809540833334,150.1603162375,65.0,51.0
1335,150.09809540833334,150.19464497083334,61.0,69.0
1336,150.09809540833334,150.19571774375,58.0,60.0
1337,150.48429365833334,150.5078946625,65.0,47.0
1338,150.48429365833334,150.53793230416667,61.0,122.0
1339,150.22682815833332,150.56904271875,41.0,89.0
1340,150.22682815833332,150.56904271875,53.0,89.0
1341,150.48429365833334,150.57440658333334,58.0,122.0
1342,150.74175915833334,151.21377924166666,46.0,86.0
1343,150.74283193125,151.21485201458333,34.0,86.0
1344,150.99922465833333,151.3060377125,65.0,93.0
1345,150.99922465833333,151.33929367291665,61.0,127.0
1346,150.99922465833333,151.35216694791666,58.0,117.0
1347,151.51415565833332,151.56028489375,65.0,88.0
1348,151.25669015833333,151.56672153125,41.0,81.0
1349,151.25669015833333,151.56672153125,53.0,81.0
1350,151.51415565833332,151.56993985,61.0,127.0
1351,151.51415565833332,151.59461362708333,58.0,122.0
1352,151.77162115833335,152.15889218125,51.0,117.0
1353,151.77269393125,152.15996495416667,39.0,117.0
1354,152.02908665833334,152.3680829,66.0,127.0
1355,152.02908665833334,152.37773785625,70.0,127.0
1356,152.02908665833334,152.39382945,63.0,127.0
1357,152.54401765833333,152.59658353125,66.0,127.0
1358,152.28655215833334,152.6319850375,39.0,97.0
1359,152.28655215833334,152.6319850375,51.0,97.0
1360,152.54401765833333,152.66738654375,70.0,107.0
1361,152.54401765833333,152.68025981875,63.0,112.0
1362,153.05894865833332,153.11795116875,66.0,117.0
1363,153.05894865833332,153.12546057916666,63.0,122.0
1364,153.05894865833332,153.12867889791667,59.0,97.0
1365,152.80148315833333,153.15764376666667,47.0,78.0
1366,152.80255593125,153.15871653958334,35.0,78.0
1367,153.18768140833333,153.32928743333332,59.0,76.0
1368,153.18768140833333,153.34537902708334,66.0,92.0
1369,153.18768140833333,153.3464518,63.0,92.0
1370,153.31748693125,153.49234891666666,42.0,85.0
1371,153.31641415833334,153.52667765,54.0,85.0
1372,153.57387965833334,153.63717326041666,63.0,127.0
1373,153.57387965833334,153.66935644791667,66.0,127.0
1374,153.57387965833334,153.68008417708333,59.0,112.0
1375,153.83134515833333,153.91502144583333,60.0,40.0
1376,153.83134515833333,154.14352207708333,44.0,90.0
1377,153.83241793125,154.14459485,32.0,90.0
1378,154.08881065833333,154.16283198958334,63.0,122.0
1379,154.08881065833333,154.16497753541665,60.0,117.0
1380,154.21754340833334,154.35164002291665,60.0,76.0
1381,154.21754340833334,154.35378556875,63.0,71.0
1382,154.08881065833333,154.3698771625,56.0,112.0
1383,154.60374165833332,154.67561744375,60.0,99.0
1384,154.60374165833332,154.69600012916666,63.0,100.0
1385,154.60374165833332,154.70029122083332,56.0,102.0
1386,154.34305783958334,154.7560754125,39.0,92.0
1387,154.34627615833332,154.75929373125,51.0,92.0
1388,155.11867265833334,155.21736776666665,60.0,127.0
1389,155.11867265833334,155.23345936041667,63.0,122.0
1390,155.11867265833334,155.23560490625,56.0,112.0
1391,154.86120715833334,155.24955095416666,44.0,83.0
1392,154.86227993125,155.25062372708334,32.0,83.0
1393,155.37613815833333,155.48234267708332,60.0,117.0
1394,155.37613815833333,155.51881695625,56.0,112.0
1395,155.37613815833333,155.53061745833332,63.0,117.0
1396,155.37613815833333,155.53919964166667,39.0,99.0
1397,155.37613815833333,155.53919964166667,51.0,99.0
1398,155.63360365833333,155.71191608125,60.0,127.0
1399,155.63360365833333,155.73229876666667,56.0,117.0
1400,155.63360365833333,155.76877304583334,63.0,127.0
1401,155.89106915833332,156.19466389375,51.0,112.0
1402,155.89214193125,156.19573666666668,39.0,112.0
1403,156.14853465833335,156.1978822125,66.0,127.0
1404,156.14853465833335,156.21290103333334,70.0,112.0
1405,156.14853465833335,156.2365020375,63.0,112.0
1406,156.27726740833333,156.3909813375,66.0,71.0
1407,156.27726740833333,156.40278183958333,63.0,64.0
1408,156.27726740833333,156.40600015833334,70.0,41.0
1409,156.66346565833334,156.71817707708334,66.0,127.0
1410,156.66346565833334,156.7385597625,70.0,107.0
1411,156.66346565833334,156.7514330375,63.0,112.0
1412,156.40600015833334,156.87694746875,58.0,82.0
1413,157.17839665833333,157.23203530416666,66.0,127.0
1414,157.17839665833333,157.26421849166667,70.0,117.0
1415,157.17839665833333,157.26958235625,63.0,117.0
1416,156.92093115833333,157.34038536875,51.0,82.0
1417,156.91556729375,157.3564769625,39.0,82.0
1418,157.43586215833332,157.5173929,66.0,127.0
1419,157.43586215833332,157.54206667708334,63.0,102.0
1420,157.43586215833332,157.54743054166667,70.0,107.0
1421,157.43586215833332,157.69010933958333,42.0,59.0
1422,157.43586215833332,157.69010933958333,54.0,59.0
1423,157.43586215833332,157.70083706875,58.0,99.0
1424,157.69332765833335,157.76413067083334,66.0,127.0
1425,157.69332765833335,157.76734898958333,70.0,107.0
1426,157.69332765833335,157.82206040833333,63.0,122.0
1427,157.95615702291667,158.43997760833332,34.0,78.0
1428,157.95615702291667,158.43997760833332,46.0,78.0
1429,158.20825865833334,158.51721725833335,61.0,127.0
1430,158.20825865833334,158.53759994375,65.0,99.0
1431,158.20825865833334,158.53867271666667,58.0,112.0
1432,158.72318965833333,158.7982837625,65.0,96.0
1433,158.72318965833333,158.81008426458334,61.0,127.0
1434,158.72318965833333,158.817593675,58.0,107.0
1435,158.46572415833333,158.8755234125,41.0,64.0
1436,158.46572415833333,158.8755234125,53.0,64.0
1437,159.23812065833334,159.28639543958334,58.0,99.0
1438,159.23812065833334,159.30570535208332,66.0,55.0
1439,159.23812065833334,159.3196514,65.0,76.0
1440,159.23812065833334,159.358271225,61.0,117.0
1441,158.98065515833332,159.44838415,34.0,107.0
1442,158.98065515833332,159.44838415,46.0,107.0
1443,159.49558615833334,159.60393622291667,61.0,117.0
1444,159.49558615833334,159.60500899583334,65.0,75.0
1445,159.49558615833334,159.63182831875,58.0,102.0
1446,159.75305165833333,159.795962575,65.0,71.0
1447,159.75305165833333,159.84638290208332,61.0,127.0
1448,159.49558615833334,159.873202225,41.0,75.0
1449,159.49558615833334,159.873202225,53.0,75.0
1450,159.75305165833333,159.92147700625,58.0,112.0
1451,160.01051715833333,160.36560499375,32.0,97.0
1452,160.01051715833333,160.36560499375,44.0,97.0
1453,160.26798265833332,160.57050462083333,60.0,122.0
1454,160.26798265833332,160.57694125833333,63.0,97.0
1455,160.26798265833332,160.58659621458332,56.0,102.0
1456,160.78291365833334,160.83333398541666,60.0,117.0
1457,160.78291365833334,160.86015330833334,63.0,100.0
1458,160.78291365833334,160.87195381041667,56.0,100.0
1459,160.52544815833335,160.93310186666668,39.0,100.0
1460,160.52544815833335,160.93310186666668,51.0,100.0
1461,161.29784465833333,161.37186598958334,60.0,117.0
1462,161.29784465833333,161.3986853125,56.0,102.0
1463,161.29784465833333,161.42872295416666,63.0,122.0
1464,161.04037915833334,161.43623236458333,32.0,88.0
1465,161.04037915833334,161.43623236458333,44.0,88.0
1466,161.55531015833333,161.64756862916667,60.0,122.0
1467,161.55531015833333,161.66795131458332,56.0,99.0
1468,161.55531015833333,161.67009686041666,63.0,96.0
1469,161.81277565833332,161.8943064,60.0,127.0
1470,161.81277565833332,161.91790740416667,56.0,107.0
1471,161.81277565833332,161.94150840833333,63.0,112.0
1472,161.56496511458334,161.94901781875,39.0,97.0
1473,161.5660378875,161.95009059166668,51.0,97.0
1474,162.07024115833335,162.50256864375,37.0,90.0
1475,162.07024115833335,162.50256864375,49.0,90.0
1476,162.32770665833334,162.60019097916665,65.0,122.0
1477,162.32770665833334,162.61842811875,68.0,117.0
1478,162.32770665833334,162.6345197125,61.0,102.0
1479,162.58409938541666,162.756815825,44.0,85.0
1480,162.58517215833334,162.75788859791666,56.0,85.0
1481,162.84263765833333,162.95313326875,65.0,122.0
1482,162.84263765833333,162.9692248625,68.0,112.0
1483,162.84263765833333,162.98531645625,61.0,102.0
1484,163.10010315833333,163.48308308958335,34.0,96.0
1485,163.10010315833333,163.48308308958335,46.0,96.0
1486,163.35756865833332,163.72123867708333,62.0,100.0
1487,163.35756865833332,163.73947581666667,65.0,102.0
1488,163.35756865833332,163.74483968125,58.0,127.0
1489,163.62361634166666,163.92506553125,41.0,78.0
1490,163.62468911458333,163.92613830416667,53.0,78.0
1491,163.87249965833334,163.941157125,62.0,102.0
1492,163.87249965833334,163.941157125,65.0,82.0
1493,163.87249965833334,163.94544821666668,58.0,127.0
1494,164.12996515833333,164.36168410833332,39.0,96.0
1495,164.12996515833333,164.36168410833332,51.0,96.0
1496,164.38743065833333,164.44750594166666,66.0,127.0
1497,164.38743065833333,164.70604421458333,63.0,102.0
1498,164.38743065833333,164.71784471666666,70.0,100.0
1499,164.51616340833334,164.74144572083333,66.0,68.0
1500,164.90236165833332,164.95492753125,66.0,127.0
1501,164.90236165833332,164.9645824875,70.0,122.0
1502,164.90236165833332,164.9774557625,63.0,107.0
1503,164.64489615833332,165.03967659166668,46.0,90.0
1504,164.64489615833332,165.03967659166668,58.0,90.0
1505,165.15982715833334,165.1898648,63.0,68.0
1506,165.41729265833334,165.4666402125,66.0,127.0
1507,165.41729265833334,165.47736794166667,70.0,122.0
1508,165.41729265833334,165.48380457916667,63.0,117.0
1509,165.15982715833334,165.49131398958335,39.0,93.0
1510,165.15982715833334,165.49131398958335,51.0,93.0
1511,165.67475815833333,165.75843444583333,66.0,127.0
1512,165.67475815833333,165.77238049375,63.0,100.0
1513,165.67475815833333,165.77667158541666,70.0,96.0
1514,165.67475815833333,165.90969542708334,46.0,112.0
1515,165.67475815833333,165.90969542708334,58.0,112.0
1516,165.93222365833333,165.99015339583335,70.0,117.0
1517,165.93222365833333,166.000881125,66.0,127.0
1518,165.93222365833333,166.01589994583333,63.0,107.0
1519,166.18968915833332,166.46110070625,35.0,96.0
1520,166.18968915833332,166.46110070625,47.0,96.0
1521,166.44715465833335,166.7861509,59.0,96.0
1522,166.44715465833335,166.799024175,63.0,122.0
1523,166.44715465833335,166.80438803958333,66.0,112.0
1524,166.70462015833334,166.97388616041667,42.0,92.0
1525,166.70462015833334,166.97388616041667,54.0,92.0
1526,166.96208565833334,167.03181589791666,66.0,99.0
1527,166.96208565833334,167.0371797625,63.0,112.0
1528,166.96208565833334,167.06078076666665,59.0,95.0
1529,167.47701665833333,167.58643949583333,58.0,127.0
1530,167.47701665833333,167.58858504166668,61.0,107.0
1531,167.21955115833333,167.65938805416667,34.0,93.0
1532,167.21955115833333,167.65938805416667,46.0,93.0
1533,167.73448215833332,167.85570549791666,58.0,107.0
1534,167.73448215833332,167.86965154583334,61.0,96.0
1535,167.73448215833332,168.08956999375,41.0,56.0
1536,167.73448215833332,168.08956999375,53.0,56.0
1537,167.99194765833334,168.1056615875,58.0,107.0
1538,167.99194765833334,168.11531654375,61.0,102.0
1539,167.99194765833334,168.12175318125,65.0,96.0
1540,168.24941315833334,168.76970802291666,29.0,80.0
1541,168.24941315833334,168.76970802291666,41.0,80.0
1542,168.50687865833333,168.84051103541665,53.0,92.0
1543,168.50687865833333,168.84265658125,60.0,96.0
1544,168.50687865833333,168.8458749,56.0,107.0
1545,169.02180965833332,169.10441317291668,56.0,99.0
1546,169.02180965833332,169.10548594583332,53.0,90.0
1547,169.02180965833332,169.10548594583332,60.0,92.0
1548,168.76434415833333,169.14303299791666,36.0,67.0
1549,168.76434415833333,169.14303299791666,48.0,67.0
1550,169.27927515833332,169.82531657291668,29.0,61.0
1551,169.27927515833332,169.82531657291668,41.0,61.0
1552,169.53674065833334,169.88324631041667,53.0,97.0
1553,169.53674065833334,169.88968294791667,56.0,127.0
1554,169.53674065833334,169.89075572083334,60.0,102.0
1555,170.05167165833333,170.11603803333333,60.0,88.0
1556,169.79420615833334,170.12462021666667,36.0,89.0
1557,169.79420615833334,170.12462021666667,48.0,89.0
1558,170.05167165833333,170.13212962708334,56.0,112.0
1559,170.05167165833333,170.14178458333333,53.0,100.0
1560,170.30913715833333,170.3456114375,61.0,36.0
1561,170.30913715833333,170.6996265,34.0,97.0
1562,170.30913715833333,170.6996265,46.0,97.0
1563,170.56660265833332,170.90345335416666,58.0,127.0
1564,170.56660265833332,170.9249088125,61.0,107.0
1565,170.82406815833335,171.17379212916666,41.0,59.0
1566,170.82406815833335,171.17379212916666,53.0,59.0
1567,171.08153365833334,171.1823743125,58.0,117.0
1568,171.08153365833334,171.18451985833335,65.0,96.0
1569,171.08153365833334,171.19310204166666,61.0,112.0
1570,171.59646465833333,171.68121371875,65.0,90.0
1571,171.59646465833333,171.68657758333333,61.0,112.0
1572,171.59646465833333,171.68979590208335,58.0,127.0
1573,171.33899915833334,171.73377959166666,34.0,96.0
1574,171.33899915833334,171.73377959166666,46.0,96.0
1575,171.85393015833333,171.93975199166667,61.0,95.0
1576,171.85393015833333,171.94618862916667,58.0,102.0
1577,171.85393015833333,171.948334175,65.0,89.0
1578,171.85393015833333,172.13606943541666,41.0,86.0
1579,171.85393015833333,172.13606943541666,53.0,86.0
1580,172.11139565833332,172.17898035208333,65.0,81.0
1581,172.11139565833332,172.180053125,58.0,127.0
1582,172.11139565833332,172.19614471875,61.0,117.0
1583,172.36886115833335,172.74218613333332,39.0,102.0
1584,172.36886115833335,172.74218613333332,51.0,102.0
1585,172.62632665833334,172.97283231041666,66.0,127.0
1586,172.62632665833334,172.98034172083334,63.0,100.0
1587,172.62632665833334,172.99214222291667,70.0,112.0
1588,173.14125765833333,173.20884235208334,66.0,127.0
1589,173.14125765833333,173.20884235208334,70.0,117.0
1590,173.14125765833333,173.22600671875,63.0,107.0
1591,172.88379215833334,173.24638940416668,46.0,86.0
1592,172.88379215833334,173.24638940416668,58.0,86.0
1593,173.65618865833332,173.71519116875,70.0,107.0
1594,173.65618865833332,173.71626394166665,66.0,127.0
1595,173.39872315833333,173.72270057916666,39.0,72.0
1596,173.39872315833333,173.72270057916666,51.0,72.0
1597,173.65618865833332,173.72377335208333,63.0,112.0
1598,173.91365415833334,173.97694776041666,66.0,117.0
1599,173.91365415833334,173.98123885208332,70.0,93.0
1600,173.91365415833334,174.0016215375,63.0,96.0
1601,174.17111965833334,174.22153998541665,70.0,107.0
1602,174.17111965833334,174.23012216875,66.0,127.0
1603,173.90614474791667,174.23441326041666,46.0,90.0
1604,173.90614474791667,174.23441326041666,58.0,90.0
1605,174.17111965833334,174.26337812916665,63.0,127.0
1606,174.42858515833333,174.82229281875,35.0,74.0
1607,174.42858515833333,174.82229281875,47.0,74.0
1608,174.68605065833333,175.02826521875,63.0,127.0
1609,174.68605065833333,175.03041076458334,66.0,127.0
1610,174.68605065833333,175.03470185625,59.0,100.0
1611,175.20098165833335,175.24281980208335,66.0,88.0
1612,174.94351615833332,175.2632024875,54.0,83.0
1613,174.94458893125,175.26427526041667,42.0,83.0
1614,175.20098165833335,175.28143962708333,63.0,127.0
1615,175.20098165833335,175.29967676666666,59.0,97.0
1616,175.45844715833334,175.53032294375,61.0,35.0
1617,175.71591265833334,175.82748104166666,58.0,122.0
1618,175.71591265833334,175.83391767916666,61.0,112.0
1619,175.71591265833334,175.83499045208333,65.0,90.0
1620,175.46381102291667,175.89613850833334,34.0,95.0
1621,175.46381102291667,175.89613850833334,46.0,95.0
1622,175.97337815833333,176.08280099583334,58.0,96.0
1623,175.97337815833333,176.08280099583334,61.0,96.0
1624,175.97337815833333,176.10318368125,65.0,96.0
1625,176.23084365833333,176.32310212916667,58.0,117.0
1626,176.23084365833333,176.32953876666667,61.0,102.0
1627,175.97337815833333,176.34670313333334,53.0,71.0
1628,176.23084365833333,176.34670313333334,65.0,92.0
1629,175.97445093125,176.34777590625,41.0,71.0
1630,176.48830915833332,176.99143965625,29.0,83.0
1631,176.48830915833332,176.99143965625,41.0,83.0
1632,176.74577465833335,177.05687880416667,60.0,100.0
1633,176.74577465833335,177.06116989583333,68.0,117.0
1634,176.74577465833335,177.07511594375,65.0,117.0
1635,177.26070565833334,177.32614480625,68.0,112.0
1636,177.26070565833334,177.33365421666667,65.0,102.0
1637,177.26070565833334,177.33794530833333,60.0,97.0
1638,177.00002183958333,177.38300177083335,36.0,63.0
1639,177.00324015833334,177.38622008958333,48.0,63.0
1640,177.77563665833333,177.85394908125,68.0,100.0
1641,177.77563665833333,177.86574958333333,65.0,100.0
1642,177.77563665833333,177.86682235625,60.0,96.0
1643,177.51817115833333,177.95586250833333,29.0,67.0
1644,177.51817115833333,177.95586250833333,41.0,67.0
1645,178.03310215833332,178.12643340208334,60.0,96.0
1646,178.03310215833332,178.1339428125,68.0,96.0
1647,178.03310215833332,178.13501558541665,65.0,96.0
1648,178.02988383958333,178.35064294166668,36.0,73.0
1649,178.03310215833332,178.35386126041666,48.0,73.0
1650,178.29056765833334,178.35493403333334,68.0,99.0
1651,178.29056765833334,178.37317117291667,65.0,99.0
1652,178.29056765833334,178.37638949166666,60.0,100.0
1653,178.54803315833334,178.98787005416668,34.0,100.0
1654,178.54803315833334,178.98787005416668,46.0,100.0
1655,178.80549865833333,179.08549238958332,65.0,92.0
1656,178.80549865833333,179.0865651625,58.0,122.0
1657,178.80549865833333,179.09514734583334,61.0,117.0
1658,179.05974583958334,179.41161535625,41.0,67.0
1659,179.32042965833332,179.41161535625,65.0,90.0
1660,179.06296415833333,179.414833675,53.0,67.0
1661,179.32042965833332,179.41697922083333,58.0,117.0
1662,179.32042965833332,179.42770695,61.0,107.0
1663,179.57789515833332,179.61544221041666,61.0,37.0
1664,179.83536065833334,179.89436316875,65.0,83.0
1665,179.83536065833334,179.91796417291667,58.0,117.0
1666,179.83536065833334,179.929764675,61.0,112.0
1667,179.57789515833332,180.00164046041667,34.0,99.0
1668,179.57789515833332,180.00164046041667,46.0,99.0
1669,180.09282615833334,180.16362917083333,65.0,76.0
1670,180.09282615833334,180.18186631041667,61.0,97.0
1671,180.09282615833334,180.18615740208332,58.0,117.0
1672,180.08960783958332,180.37174711666665,41.0,71.0
1673,180.09282615833334,180.37496543541667,53.0,71.0
1674,180.35029165833333,180.44791399375,58.0,122.0
1675,180.35029165833333,180.45542340416668,61.0,112.0
1676,180.35029165833333,180.46186004166665,65.0,83.0
1677,180.60775715833333,180.66354135,63.0,102.0
1678,180.60775715833333,180.67856017083332,60.0,107.0
1679,180.60775715833333,180.69894285625,56.0,99.0
1680,180.60775715833333,180.73648990833334,32.0,85.0
1681,180.60775715833333,180.73648990833334,44.0,85.0
1682,180.86522265833332,180.94246230833335,63.0,67.0
1683,180.86522265833332,180.94460785416666,60.0,86.0
1684,180.86522265833332,180.959626675,56.0,72.0
1685,180.86522265833332,180.98644599791666,32.0,99.0
1686,180.86522265833332,180.98644599791666,44.0,99.0
1687,181.12268815833335,181.18598176041667,63.0,93.0
1688,181.12268815833335,181.18920007916665,60.0,112.0
1689,181.12268815833335,181.21816494791668,56.0,97.0
1690,181.12268815833335,181.22996545,32.0,93.0
1691,181.12268815833335,181.22996545,44.0,93.0
1692,181.38015365833334,181.40911852708334,63.0,36.0
1693,181.38015365833334,181.41770071041665,60.0,88.0
1694,181.38015365833334,181.47133935625,56.0,102.0
1695,181.38015365833334,181.49815867916666,32.0,102.0
1696,181.38015365833334,181.49815867916666,44.0,102.0
1697,181.63761915833334,181.94872330416666,56.0,127.0
1698,181.63761915833334,181.94979607708333,60.0,107.0
1699,181.63761915833334,181.95515994166666,53.0,102.0
1700,181.63761915833334,181.98734312916667,29.0,89.0
1701,181.63761915833334,181.98734312916667,41.0,89.0
1702,182.66748115833335,183.08157150416667,66.0,112.0
1703,182.66748115833335,183.09337200625,70.0,107.0
1704,182.66748115833335,183.1094636,54.0,90.0
1705,182.66748115833335,183.11053637291667,61.0,107.0
1706,182.66748115833335,183.11160914583334,30.0,90.0
1707,182.66748115833335,183.11160914583334,42.0,90.0
1708,183.18241215833334,183.62117628125,48.0,76.0
1709,183.18241215833334,183.63297678333333,29.0,64.0
1710,183.18241215833334,183.63297678333333,41.0,64.0
1711,183.18241215833334,183.63297678333333,53.0,86.0
1712,183.18241215833334,183.64585005833334,65.0,97.0
1713,183.18241215833334,183.64799560416665,68.0,99.0
1714,183.18241215833334,183.65550501458333,60.0,97.0
1715,183.95480865833332,184.049212675,65.0,83.0
1716,183.95480865833332,184.05672208541668,58.0,107.0
1717,183.95480865833332,184.05994040416667,61.0,102.0
1718,183.69734315833333,184.07066813333333,46.0,112.0
1719,184.21227415833334,184.70145860833333,53.0,65.0
1720,184.46973965833334,184.79264430625,58.0,117.0
1721,184.46973965833334,184.79478985208334,65.0,86.0
1722,184.46973965833334,184.80444480833333,61.0,112.0
1723,184.72720515833333,184.83448245,46.0,75.0
1724,184.98467065833333,185.03616375833334,65.0,69.0
1725,184.98467065833333,185.06191030833332,58.0,117.0
1726,184.98467065833333,185.08122022083333,61.0,112.0
1727,185.24213615833332,185.28611984791667,61.0,42.0
1728,185.24213615833332,185.63798936458332,53.0,52.0
1729,185.49960165833335,185.79890530208334,61.0,97.0
1730,185.49960165833335,185.799978075,58.0,122.0
1731,185.49960165833335,185.80856025833333,65.0,92.0
1732,185.75706715833334,185.85361672083334,46.0,100.0
1733,186.01453265833334,186.09499062708332,65.0,86.0
1734,186.01453265833334,186.09820894583333,58.0,117.0
1735,186.01453265833334,186.10786390208332,61.0,100.0
1736,186.27199815833333,186.70432564375,53.0,61.0
1737,186.52946365833333,186.84056780416665,58.0,122.0
1738,186.52946365833333,186.84485889583334,65.0,88.0
1739,186.52946365833333,186.85880494375,61.0,93.0
1740,187.04439465833335,187.10446994166668,65.0,82.0
1741,187.04439465833335,187.12485262708333,58.0,117.0
1742,187.04439465833335,187.13987144791668,61.0,102.0
1743,186.78692915833332,187.17956404583333,46.0,77.0
1744,187.30186015833334,187.67089404166666,53.0,68.0
1745,187.55932565833334,187.67840345208333,58.0,127.0
1746,187.55932565833334,187.7245326875,61.0,100.0
1747,187.81679115833333,188.13111362291667,44.0,88.0
1748,188.07425665833333,188.38750635,56.0,85.0
1749,188.07425665833333,188.41003458125,60.0,96.0
1750,188.07425665833333,188.41110735416666,63.0,99.0
1751,188.58918765833334,188.657845125,60.0,102.0
1752,188.58918765833334,188.66964562708333,63.0,96.0
1753,188.58918765833334,188.6771550375,56.0,95.0
1754,188.33172215833332,188.69539217708333,51.0,48.0
1755,188.84665315833334,189.24572468333332,44.0,27.0
1756,189.10411865833333,189.45169708333333,60.0,102.0
1757,189.10411865833333,189.45706094791666,63.0,95.0
1758,189.10411865833333,189.46135203958335,56.0,96.0
1759,189.61904965833332,189.65337839166668,60.0,73.0
1760,189.61904965833332,189.67161553125,63.0,73.0
1761,189.61904965833332,189.7198903125,56.0,97.0
1762,189.36158415833333,189.73061804166667,51.0,83.0
1763,190.13398065833334,190.48692294791667,58.0,122.0
1764,190.13398065833334,190.49443235833334,61.0,112.0
1765,189.87651515833332,190.53841604791666,42.0,100.0
1766,190.39144615833334,190.717569125,54.0,75.0
1767,190.64891165833333,190.75511617708332,42.0,32.0
1768,190.64891165833333,190.78300827291667,58.0,107.0
1769,190.64891165833333,190.7883721375,61.0,99.0
1770,191.16384265833332,191.52000326666666,61.0,107.0
1771,191.16384265833332,191.52751267708334,58.0,122.0
1772,191.42130815833335,191.57793300416665,54.0,93.0
1773,190.90637715833333,191.65946374583334,42.0,95.0
1774,191.67877365833334,191.76244994583334,61.0,96.0
1775,191.67877365833334,191.78283263125,58.0,117.0
1776,191.92872974791666,192.98541107083332,65.0,107.0
1777,191.93194806666668,192.98862938958334,68.0,102.0
1778,191.93087529375,192.9961388,60.0,102.0
1779,191.93516638541666,193.00686652916667,48.0,89.0
1780,191.94053025,193.009012075,53.0,88.0
1781,191.9469668875,193.01652148541666,41.0,58.0
1782,193.111998275,193.90155914166667,72.0,95.0
1783,193.11736213958332,194.00454534166667,63.0,107.0
1784,193.10985272916668,194.10860431458335,68.0,117.0
1785,193.09697945416667,194.11825927083333,44.0,107.0
1786,194.16867959791668,194.77372352291667,72.0,95.0
1787,194.17189791666667,194.90031072708334,63.0,102.0
1788,194.1611701875,194.93142114166668,68.0,122.0
1789,194.18477119166667,194.98613256041668,44.0,127.0
1790,195.28543620416667,202.75944511458334,46.0,122.0
1791,195.27256292916667,202.89246895625,70.0,122.0
1792,195.2811451125,202.90426945833335,73.0,112.0
1793,195.33692930416666,203.07698589791667,65.0,97.0
1794,195.33907485,203.09093194583335,61.0,122.0
1795,195.34122039583335,203.101659675,58.0,102.0
