,start,end,pitch,velocity
0,15.545000000000002,15.961666666666668,72.0,98.0
1,16.145,16.37666666666667,69.0,74.0
2,16.345000000000002,16.728333333333335,72.0,81.0
3,16.745,17.185000000000002,69.0,65.0
4,17.145,17.68166666666667,72.0,79.0
5,17.945,18.26,72.0,75.0
6,18.345000000000002,18.66166666666667,79.0,95.0
7,18.745,19.281666666666666,77.0,67.0
8,19.345000000000002,19.455000000000002,69.0,59.0
9,19.545,19.921666666666667,69.0,63.0
10,19.945,20.253333333333334,74.0,66.0
11,20.345000000000002,21.53,72.0,61.0
12,21.945,22.39,74.0,81.0
13,22.545,22.650000000000002,72.0,66.0
14,22.745,22.955000000000002,74.0,93.0
15,23.145000000000003,23.33666666666667,74.0,83.0
16,23.545,23.848333333333336,72.0,77.0
17,24.345000000000002,24.805000000000003,65.0,85.0
18,24.745,25.095000000000002,69.0,70.0
19,25.145000000000003,25.568333333333335,67.0,73.0
20,25.745,26.038333333333334,65.0,71.0
21,25.945,26.360000000000003,62.0,61.0
22,26.345000000000002,26.756666666666668,69.0,69.0
23,26.745,28.05666666666667,67.0,63.0
24,28.345000000000002,28.683333333333334,72.0,81.0
25,28.945,29.080000000000002,69.0,65.0
26,29.145000000000003,29.6,72.0,59.0
27,29.545,29.93166666666667,69.0,61.0
28,29.945,30.39666666666667,72.0,79.0
29,30.745,31.060000000000002,72.0,72.0
30,31.118333333333336,31.425,79.0,67.0
31,31.545,31.94166666666667,77.0,86.0
32,32.145,32.28666666666667,79.0,81.0
33,32.345,32.75333333333334,81.0,67.0
34,32.745000000000005,33.196666666666665,69.0,60.0
35,33.145,33.873333333333335,72.0,63.0
36,33.945,34.43166666666667,72.0,74.0
37,34.345,34.675000000000004,74.0,68.0
38,34.745000000000005,35.27333333333333,77.0,79.0
39,35.345,35.57,74.0,73.0
40,35.545,35.85,72.0,73.0
41,35.945,36.15833333333334,74.0,63.0
42,36.345,37.22,77.0,87.0
43,37.145,37.64333333333334,72.0,87.0
44,37.545,37.85666666666667,74.0,69.0
45,37.945,38.400000000000006,81.0,83.0
46,38.545,38.663333333333334,79.0,85.0
47,38.745000000000005,39.10166666666667,77.0,68.0
48,39.145,39.35,74.0,68.0
49,39.545,40.87166666666667,77.0,71.0
50,41.145,41.56166666666667,72.0,98.0
51,41.745000000000005,41.97666666666667,69.0,74.0
52,41.945,42.32833333333333,72.0,81.0
53,42.345000000000006,42.785000000000004,69.0,65.0
54,42.745000000000005,43.281666666666666,72.0,79.0
55,43.545,43.86,72.0,75.0
56,43.945,44.26166666666667,79.0,95.0
57,44.345000000000006,44.88166666666667,77.0,67.0
58,44.945,45.055,69.0,59.0
59,45.145,45.52166666666667,69.0,63.0
60,45.545,45.85333333333334,74.0,66.0
61,45.945,47.13,72.0,61.0
62,47.545,47.99,74.0,81.0
63,48.145,48.25,72.0,66.0
64,48.345000000000006,48.555,74.0,93.0
65,48.745000000000005,48.93666666666667,74.0,83.0
66,49.145,49.44833333333334,72.0,77.0
67,49.945,50.405,65.0,85.0
68,50.345000000000006,50.695,69.0,70.0
69,50.745000000000005,51.16833333333334,67.0,73.0
70,51.345000000000006,51.638333333333335,65.0,71.0
71,51.545,51.96,62.0,61.0
72,51.945,52.35666666666667,69.0,69.0
73,52.345000000000006,53.65666666666667,67.0,63.0
74,53.945,54.28333333333334,72.0,81.0
75,54.545,54.68000000000001,69.0,65.0
76,54.745000000000005,55.2,72.0,59.0
77,55.145,55.53166666666667,69.0,61.0
78,55.545,55.99666666666667,72.0,79.0
79,56.345000000000006,56.660000000000004,72.0,72.0
80,56.718333333333334,57.025000000000006,79.0,67.0
81,57.145,57.54166666666667,77.0,86.0
82,57.745000000000005,57.88666666666667,79.0,81.0
83,57.945,58.35333333333334,81.0,67.0
84,58.345000000000006,58.601666666666674,77.0,90.0
85,58.745000000000005,59.36000000000001,76.0,81.0
86,59.545,59.91166666666667,77.0,77.0
87,60.145,60.30833333333334,76.0,70.0
88,60.345000000000006,60.75000000000001,74.0,81.0
89,60.94500000000001,61.20166666666667,72.0,62.0
90,61.145,61.50666666666667,77.0,74.0
91,61.545,61.940000000000005,74.0,68.0
92,61.94500000000001,62.41166666666667,72.0,74.0
93,62.745000000000005,63.12500000000001,77.0,74.0
94,63.145,63.46,76.0,79.0
95,63.545,63.85666666666667,74.0,74.0
96,64.14500000000001,64.41333333333334,72.0,70.0
97,64.345,64.63000000000001,74.0,79.0
98,64.745,65.01,77.0,86.0
99,65.14500000000001,65.76333333333334,79.0,117.0
100,65.94500000000001,66.18166666666667,81.0,98.0
101,66.14500000000001,66.43166666666667,79.0,81.0
102,66.345,66.58666666666667,77.0,76.0
103,66.545,66.65666666666667,79.0,95.0
104,66.745,67.15,81.0,85.0
105,67.345,67.50500000000001,79.0,85.0
106,67.545,67.76333333333334,77.0,69.0
107,67.94500000000001,68.14833333333334,84.0,108.0
108,68.345,68.84833333333334,79.0,98.0
109,69.14500000000001,69.355,81.0,95.0
110,69.345,69.60166666666667,79.0,79.0
111,69.545,69.67166666666667,77.0,61.0
112,69.745,69.92833333333334,79.0,77.0
113,69.94500000000001,70.39500000000001,77.0,77.0
114,70.545,70.76,76.0,76.0
115,70.745,71.01333333333334,74.0,85.0
116,71.14500000000001,71.36833333333334,81.0,100.0
117,71.545,72.09,76.0,93.0
118,72.345,72.72,77.0,87.0
119,72.94500000000001,73.17666666666668,76.0,93.0
120,73.14500000000001,73.58666666666667,74.0,87.0
121,73.745,73.89666666666668,72.0,85.0
122,73.94500000000001,74.05166666666668,86.0,76.0
123,74.345,74.51333333333334,86.0,93.0
124,74.745,75.43,84.0,95.0
125,75.545,75.96833333333333,81.0,79.0
126,75.94500000000001,76.37833333333334,84.0,74.0
127,76.345,76.745,82.0,95.0
128,76.94500000000001,77.13000000000001,79.0,81.0
129,77.14500000000001,77.32166666666667,77.0,90.0
130,77.545,77.805,74.0,66.0
131,77.94500000000001,78.34166666666667,79.0,95.0
132,78.745,78.98166666666667,81.0,98.0
133,78.94500000000001,79.23166666666667,79.0,81.0
134,79.14500000000001,79.38666666666667,77.0,76.0
135,79.345,79.45666666666668,79.0,95.0
136,79.545,79.95,81.0,85.0
137,80.14500000000001,80.305,79.0,85.0
138,80.345,80.56333333333333,77.0,69.0
139,80.745,80.94833333333334,84.0,108.0
140,81.14500000000001,81.64833333333334,79.0,98.0
141,81.94500000000001,82.155,81.0,95.0
142,82.14500000000001,82.40166666666667,79.0,79.0
143,82.345,82.47166666666668,77.0,61.0
144,82.545,82.72833333333334,79.0,77.0
145,82.745,83.19500000000001,77.0,77.0
146,83.345,83.56,76.0,76.0
147,83.545,83.81333333333333,74.0,85.0
148,83.94500000000001,84.31666666666668,77.0,93.0
149,84.345,84.64500000000001,84.0,79.0
150,84.745,85.12166666666667,81.0,93.0
151,85.14500000000001,85.58500000000001,81.0,98.0
152,85.745,85.86500000000001,79.0,87.0
153,85.94500000000001,86.10833333333333,77.0,95.0
154,86.345,86.65,74.0,83.0
155,86.745,87.19666666666667,81.0,86.0
156,87.345,87.46833333333333,79.0,79.0
157,87.545,87.80166666666668,77.0,90.0
158,87.94500000000001,88.44500000000001,72.0,86.0
159,88.745,88.99833333333333,74.0,72.0
160,88.94500000000001,89.06,76.0,71.0
161,89.14500000000001,89.37333333333333,77.0,108.0
162,89.545,89.98833333333334,74.0,76.0
163,89.94500000000001,90.26333333333334,77.0,79.0
164,90.345,90.55166666666668,81.0,93.0
165,90.745,91.15,84.0,100.0
166,91.345,91.51166666666667,81.0,67.0
167,91.545,91.85833333333333,77.0,77.0
168,91.94500000000001,92.22833333333334,74.0,66.0
169,92.345,95.47166666666668,77.0,95.0
170,105.14500000000001,105.56166666666667,72.0,98.0
171,105.745,105.97666666666667,69.0,74.0
172,105.94500000000001,106.32833333333333,72.0,81.0
173,106.34500000000001,106.78500000000001,69.0,65.0
174,106.745,107.28166666666668,72.0,79.0
175,107.545,107.86000000000001,72.0,75.0
176,107.94500000000001,108.26166666666667,79.0,95.0
177,108.34500000000001,108.88166666666667,77.0,67.0
178,108.94500000000001,109.055,69.0,59.0
179,109.14500000000001,109.52166666666668,69.0,63.0
180,109.545,109.85333333333334,74.0,66.0
181,109.94500000000001,111.13000000000001,72.0,61.0
182,111.545,111.99000000000001,74.0,81.0
183,112.14500000000001,112.25000000000001,72.0,66.0
184,112.34500000000001,112.555,74.0,93.0
185,112.745,112.93666666666667,74.0,83.0
186,113.14500000000001,113.44833333333334,72.0,77.0
187,113.94500000000001,114.405,65.0,85.0
188,114.34500000000001,114.69500000000001,69.0,70.0
189,114.745,115.16833333333334,67.0,73.0
190,115.34500000000001,115.63833333333334,65.0,71.0
191,115.545,115.96000000000001,62.0,61.0
192,115.94500000000001,116.35666666666667,69.0,69.0
193,116.34500000000001,117.65666666666668,67.0,63.0
194,117.94500000000001,118.28333333333335,72.0,81.0
195,118.545,118.68,69.0,65.0
196,118.745,119.2,72.0,59.0
197,119.14500000000001,119.53166666666668,69.0,61.0
198,119.545,119.99666666666667,72.0,79.0
199,120.34500000000001,120.66000000000001,72.0,72.0
200,120.71833333333335,121.025,79.0,67.0
201,121.14500000000001,121.54166666666667,77.0,86.0
202,121.745,121.88666666666667,79.0,81.0
203,121.94500000000001,122.35333333333334,81.0,67.0
204,122.34500000000001,122.60166666666667,77.0,90.0
205,122.745,123.36000000000001,76.0,81.0
206,123.545,123.91166666666668,77.0,77.0
207,124.14500000000001,124.30833333333334,76.0,70.0
208,124.34500000000001,124.75000000000001,74.0,81.0
209,124.94500000000001,125.20166666666667,72.0,62.0
210,125.14500000000001,125.50666666666667,77.0,74.0
211,125.545,125.94000000000001,74.0,68.0
212,125.94500000000001,126.41166666666668,72.0,74.0
213,126.745,127.12500000000001,77.0,74.0
214,127.14500000000001,127.46000000000001,76.0,79.0
215,127.545,127.85666666666667,74.0,74.0
216,128.145,128.41333333333336,72.0,70.0
217,128.345,128.63,74.0,79.0
218,128.745,129.01000000000002,77.0,86.0
219,129.145,129.76333333333335,79.0,117.0
220,129.94500000000002,130.18166666666667,81.0,98.0
221,130.145,130.43166666666667,79.0,81.0
222,130.345,130.58666666666667,77.0,76.0
223,130.54500000000002,130.65666666666667,79.0,95.0
224,130.745,131.15,81.0,85.0
225,131.345,131.505,79.0,85.0
226,131.54500000000002,131.76333333333335,77.0,69.0
227,131.94500000000002,132.14833333333334,84.0,108.0
228,132.345,132.84833333333333,79.0,98.0
229,133.145,133.35500000000002,81.0,95.0
230,133.345,133.6016666666667,79.0,79.0
231,133.54500000000002,133.67166666666668,77.0,61.0
232,133.745,133.92833333333334,79.0,77.0
233,133.94500000000002,134.395,77.0,77.0
234,134.54500000000002,134.76000000000002,76.0,76.0
235,134.745,135.01333333333335,74.0,85.0
236,135.145,135.36833333333334,81.0,100.0
237,135.54500000000002,136.09,76.0,93.0
238,136.345,136.72,77.0,87.0
239,136.94500000000002,137.17666666666668,76.0,93.0
240,137.145,137.58666666666667,74.0,87.0
241,137.745,137.89666666666668,72.0,85.0
242,137.94500000000002,138.05166666666668,86.0,76.0
243,138.345,138.51333333333335,86.0,93.0
244,138.745,139.43,84.0,95.0
245,139.54500000000002,139.96833333333333,81.0,79.0
246,139.94500000000002,140.37833333333333,84.0,74.0
247,140.345,140.745,82.0,95.0
248,140.94500000000002,141.13,79.0,81.0
249,141.145,141.3216666666667,77.0,90.0
250,141.54500000000002,141.805,74.0,66.0
251,141.94500000000002,142.34166666666667,79.0,95.0
252,142.745,142.98166666666668,81.0,98.0
253,142.94500000000002,143.23166666666668,79.0,81.0
254,143.145,143.38666666666668,77.0,76.0
255,143.345,143.45666666666668,79.0,95.0
256,143.54500000000002,143.95000000000002,81.0,85.0
257,144.145,144.305,79.0,85.0
258,144.345,144.56333333333333,77.0,69.0
259,144.745,144.94833333333335,84.0,108.0
260,145.145,145.64833333333334,79.0,98.0
261,145.94500000000002,146.155,81.0,95.0
262,146.145,146.40166666666667,79.0,79.0
263,146.345,146.47166666666666,77.0,61.0
264,146.54500000000002,146.72833333333335,79.0,77.0
265,146.745,147.19500000000002,77.0,77.0
266,147.345,147.56,76.0,76.0
267,147.54500000000002,147.81333333333333,74.0,85.0
268,147.94500000000002,148.31666666666666,77.0,93.0
269,148.345,148.645,84.0,79.0
270,148.745,149.12166666666667,81.0,93.0
271,149.145,149.585,81.0,98.0
272,149.745,149.865,79.0,87.0
273,149.94500000000002,150.10833333333335,77.0,95.0
274,150.345,150.65,74.0,83.0
275,150.745,151.1966666666667,81.0,86.0
276,151.345,151.46833333333333,79.0,79.0
277,151.54500000000002,151.80166666666668,77.0,90.0
278,151.94500000000002,152.44500000000002,72.0,86.0
279,152.745,152.99833333333333,74.0,72.0
280,152.94500000000002,153.06,76.0,71.0
281,153.145,153.37333333333333,77.0,108.0
282,153.54500000000002,153.98833333333334,74.0,76.0
283,153.94500000000002,154.26333333333335,77.0,79.0
284,154.345,154.55166666666668,81.0,93.0
285,154.745,155.15,84.0,100.0
286,155.345,155.51166666666668,81.0,67.0
287,155.54500000000002,155.85833333333335,77.0,77.0
288,155.94500000000002,156.22833333333335,74.0,66.0
289,156.345,159.47166666666666,77.0,95.0
290,168.345,168.58166666666668,81.0,98.0
291,168.54500000000002,168.83166666666668,79.0,81.0
292,168.745,168.98666666666668,77.0,76.0
293,168.94500000000002,169.05666666666667,79.0,95.0
294,169.145,169.55,81.0,85.0
295,169.745,169.905,79.0,85.0
296,169.94500000000002,170.16333333333336,77.0,69.0
297,170.345,170.54833333333335,84.0,108.0
298,170.745,171.24833333333333,79.0,98.0
299,171.54500000000002,171.75500000000002,81.0,95.0
300,171.745,172.00166666666667,79.0,79.0
301,171.94500000000002,172.0716666666667,77.0,61.0
302,172.145,172.32833333333335,79.0,77.0
303,172.345,172.79500000000002,77.0,77.0
304,172.94500000000002,173.16000000000003,76.0,76.0
305,173.145,173.41333333333336,74.0,85.0
306,173.54500000000002,173.76833333333335,81.0,100.0
307,173.94500000000002,174.49,76.0,93.0
308,174.745,175.12,77.0,87.0
309,175.345,175.57666666666668,76.0,93.0
310,175.54500000000002,175.98666666666668,74.0,87.0
311,176.145,176.29666666666668,72.0,85.0
312,176.345,176.45166666666668,86.0,76.0
313,176.745,176.91333333333336,86.0,93.0
314,177.145,177.83,84.0,95.0
315,177.94500000000002,178.36833333333334,81.0,79.0
316,178.345,178.77833333333334,84.0,74.0
317,178.745,179.145,82.0,95.0
318,179.345,179.53,79.0,81.0
319,179.54500000000002,179.72166666666666,77.0,90.0
320,179.94500000000002,180.205,74.0,66.0
321,180.345,180.74166666666667,79.0,95.0
322,181.145,181.3816666666667,81.0,98.0
323,181.345,181.6316666666667,79.0,81.0
324,181.54500000000002,181.7866666666667,77.0,76.0
325,181.745,181.85666666666668,79.0,95.0
326,181.94500000000002,182.35000000000002,81.0,85.0
327,182.54500000000002,182.705,79.0,85.0
328,182.745,182.96333333333334,77.0,69.0
329,183.145,183.34833333333336,84.0,108.0
330,183.54500000000002,184.04833333333335,79.0,98.0
331,184.345,184.555,81.0,95.0
332,184.54500000000002,184.80166666666668,79.0,79.0
333,184.745,184.87166666666667,77.0,61.0
334,184.94500000000002,185.12833333333336,79.0,77.0
335,185.145,185.595,77.0,77.0
336,185.745,185.96,76.0,76.0
337,185.94500000000002,186.21333333333334,74.0,85.0
338,186.345,186.71666666666667,77.0,93.0
339,186.745,187.04500000000002,84.0,79.0
340,187.145,187.52166666666668,81.0,93.0
341,187.54500000000002,187.985,81.0,98.0
342,188.145,188.26500000000001,79.0,87.0
343,188.345,188.50833333333335,77.0,95.0
344,188.745,189.05,74.0,83.0
345,189.145,189.5966666666667,81.0,86.0
346,189.745,189.86833333333334,79.0,79.0
347,189.94500000000002,190.20166666666668,77.0,90.0
348,190.345,190.845,72.0,86.0
349,191.145,191.39833333333334,74.0,72.0
350,191.345,191.46,76.0,71.0
351,191.54500000000002,191.77333333333334,77.0,108.0
352,191.94500000000002,192.38833333333335,74.0,76.0
353,192.345,192.66333333333336,77.0,79.0
354,192.745,192.95166666666668,81.0,93.0
355,193.145,193.55,84.0,100.0
356,193.745,193.9116666666667,81.0,67.0
357,193.94500000000002,194.25833333333335,77.0,77.0
358,194.345,194.62833333333336,74.0,66.0
359,197.145,197.3816666666667,82.0,98.0
360,197.345,197.6316666666667,80.0,81.0
361,197.54500000000002,197.7866666666667,78.0,76.0
362,197.745,197.85666666666668,80.0,95.0
363,194.745,197.87166666666667,77.0,95.0
364,197.94500000000002,198.35000000000002,82.0,85.0
365,198.54500000000002,198.705,80.0,85.0
366,198.745,198.96333333333334,78.0,69.0
367,199.145,199.34833333333336,85.0,108.0
368,199.54500000000002,200.04833333333335,80.0,98.0
369,200.345,200.555,82.0,95.0
370,200.54500000000002,200.80166666666668,80.0,79.0
371,200.745,200.87166666666667,78.0,61.0
372,200.94500000000002,201.12833333333336,80.0,77.0
373,201.145,201.595,78.0,77.0
374,201.745,201.96,77.0,76.0
375,201.94500000000002,202.21333333333334,75.0,85.0
376,202.345,202.56833333333336,82.0,100.0
377,202.745,203.29000000000002,77.0,93.0
378,203.54500000000002,203.92000000000002,78.0,87.0
379,204.145,204.3766666666667,77.0,93.0
380,204.34500000000003,204.7866666666667,75.0,87.0
381,204.94500000000002,205.0966666666667,73.0,85.0
382,205.145,205.2516666666667,87.0,76.0
383,205.54500000000002,205.71333333333334,87.0,93.0
384,205.94500000000002,206.63000000000002,85.0,95.0
385,206.745,207.16833333333335,82.0,79.0
386,207.145,207.57833333333335,85.0,74.0
387,207.54500000000002,207.94500000000002,83.0,95.0
388,208.145,208.33,80.0,81.0
389,208.34500000000003,208.52166666666668,78.0,90.0
390,208.745,209.00500000000002,75.0,66.0
391,209.145,209.54166666666669,80.0,95.0
392,209.94500000000002,210.18166666666667,82.0,98.0
393,210.145,210.43166666666667,80.0,81.0
394,210.34500000000003,210.58666666666667,78.0,76.0
395,210.54500000000002,210.65666666666667,80.0,95.0
396,210.745,211.15,82.0,85.0
397,211.34500000000003,211.50500000000002,80.0,85.0
398,211.54500000000002,211.76333333333335,78.0,69.0
399,211.94500000000002,212.14833333333334,85.0,108.0
400,212.34500000000003,212.84833333333336,80.0,98.0
401,213.145,213.35500000000002,82.0,95.0
402,213.34500000000003,213.6016666666667,80.0,79.0
403,213.54500000000002,213.67166666666668,78.0,61.0
404,213.745,213.92833333333334,80.0,77.0
405,213.94500000000002,214.395,78.0,77.0
406,214.54500000000002,214.76000000000002,77.0,76.0
407,214.745,215.01333333333335,75.0,85.0
408,215.145,215.51666666666668,78.0,93.0
409,215.54500000000002,215.84500000000003,85.0,79.0
410,215.94500000000002,216.3216666666667,82.0,93.0
411,216.34500000000003,216.78500000000003,82.0,98.0
412,216.94500000000002,217.06500000000003,80.0,87.0
413,217.145,217.30833333333334,78.0,95.0
414,217.54500000000002,217.85000000000002,75.0,83.0
415,217.94500000000002,218.39666666666668,82.0,86.0
416,218.54500000000002,218.66833333333335,80.0,79.0
417,218.745,219.0016666666667,78.0,90.0
418,219.145,219.645,73.0,86.0
419,219.94500000000002,220.19833333333335,75.0,72.0
420,220.145,220.26000000000002,77.0,71.0
421,220.34500000000003,220.57333333333335,78.0,108.0
422,220.745,221.18833333333336,75.0,76.0
423,221.145,221.46333333333334,78.0,79.0
424,221.54500000000002,221.7516666666667,82.0,93.0
425,221.94500000000002,222.35000000000002,85.0,100.0
426,222.54500000000002,222.71166666666667,82.0,67.0
427,222.745,223.05833333333334,78.0,77.0
428,223.145,223.42833333333334,75.0,66.0
429,226.34500000000003,226.62166666666667,75.0,67.0
430,223.54500000000002,226.67166666666668,78.0,95.0
431,226.54500000000002,226.775,77.0,76.0
432,226.745,227.15,78.0,93.0
433,227.145,227.645,75.0,58.0
434,227.54500000000002,227.78833333333336,78.0,76.0
435,227.94500000000002,228.21,82.0,112.0
436,228.54500000000002,229.05,85.0,114.0
437,229.145,231.26333333333335,82.0,93.0
438,231.905,232.52333333333334,78.0,60.0
439,232.745,233.17166666666668,75.0,62.0
440,233.47833333333335,235.54833333333335,78.0,81.0
