,start,end,pitch,velocity
0,2.7783333333333333,3.798333333333334,60.0,48.0
1,2.77,4.04,65.0,56.0
2,2.7733333333333334,4.0616666666666665,69.0,44.0
3,3.9050000000000002,4.5,60.0,64.0
4,4.3116666666666665,5.2,65.0,70.0
5,4.321666666666667,5.206666666666667,69.0,72.0
6,5.091666666666667,5.676666666666667,60.0,75.0
7,3.535,5.775,53.0,97.0
8,5.673333333333334,5.805000000000001,64.0,1.0
9,2.771666666666667,5.831666666666667,41.0,76.0
10,3.14,5.836666666666667,48.0,63.0
11,5.905,6.8916666666666675,60.0,81.0
12,5.901666666666667,6.941666666666667,64.0,73.0
13,7.130000000000001,7.445,60.0,58.0
14,6.65,7.581666666666667,57.0,54.0
15,7.515000000000001,8.505,60.0,74.0
16,5.913333333333334,8.598333333333334,45.0,72.0
17,7.523333333333333,8.756666666666668,64.0,81.0
18,8.285,10.175,57.0,73.0
19,9.106666666666667,10.393333333333334,65.0,73.0
20,9.103333333333333,10.396666666666667,62.0,73.0
21,10.311666666666667,10.828333333333333,57.0,60.0
22,9.903333333333334,10.993333333333334,50.0,88.0
23,11.131666666666668,11.39,50.0,53.0
24,9.121666666666668,11.648333333333333,38.0,71.0
25,9.521666666666667,11.661666666666667,45.0,38.0
26,10.741666666666667,11.666666666666668,65.0,74.0
27,10.748333333333335,11.751666666666667,62.0,79.0
28,11.533333333333333,12.340000000000002,57.0,69.0
29,12.293333333333335,13.561666666666667,64.0,59.0
30,12.291666666666668,13.568333333333333,60.0,65.0
31,13.455,14.020000000000001,55.0,57.0
32,12.276666666666667,15.376666666666667,36.0,66.0
33,12.703333333333335,15.4,43.0,53.0
34,13.038333333333334,15.426666666666668,48.0,76.0
35,13.943333333333333,15.456666666666667,60.0,69.0
36,14.713333333333335,15.46,55.0,54.0
37,13.940000000000001,15.485000000000001,64.0,69.0
38,16.345000000000002,16.781666666666666,60.0,64.0
39,15.545000000000002,16.811666666666667,41.0,67.0
40,15.945,17.135,48.0,77.0
41,16.745,17.818333333333335,57.0,60.0
42,17.545,18.468333333333334,48.0,59.0
43,17.145,18.513333333333335,40.0,73.0
44,17.945,18.71166666666667,60.0,67.0
45,18.345000000000002,18.785,55.0,59.0
46,18.745,19.943333333333335,38.0,65.0
47,19.145,19.96666666666667,45.0,54.0
48,19.545,20.038333333333334,53.0,65.0
49,19.945,20.338333333333335,57.0,58.0
50,20.745,21.648333333333333,52.0,57.0
51,20.345000000000002,21.76666666666667,45.0,64.0
52,21.145000000000003,21.846666666666668,60.0,63.0
53,22.345000000000002,23.078333333333333,53.0,56.0
54,22.745,23.128333333333334,58.0,61.0
55,21.945,23.201666666666668,46.0,63.0
56,23.145000000000003,23.62666666666667,62.0,52.0
57,23.945,24.715,52.0,59.0
58,23.545,24.748333333333335,45.0,74.0
59,24.345000000000002,25.101666666666667,60.0,59.0
60,24.745,25.10666666666667,64.0,60.0
61,25.545,26.416666666666668,46.0,64.0
62,25.145000000000003,26.44,43.0,63.0
63,26.145000000000003,26.561666666666667,58.0,57.0
64,27.545,27.963333333333335,60.0,60.0
65,27.145000000000003,28.011666666666667,55.0,60.0
66,26.745,28.09166666666667,48.0,86.0
67,27.945,28.383333333333336,64.0,62.0
68,28.345000000000002,29.628333333333334,41.0,67.0
69,29.145000000000003,29.963333333333335,57.0,60.0
70,28.745,29.968333333333334,48.0,54.0
71,29.545,30.01166666666667,60.0,54.0
72,30.345000000000002,31.085,48.0,56.0
73,29.945,31.168333333333337,40.0,50.0
74,30.745,31.236666666666668,60.0,63.0
75,31.145000000000003,31.575000000000003,55.0,62.0
76,31.545,32.65,38.0,63.0
77,31.945,32.74333333333333,45.0,54.0
78,32.345,32.835,53.0,61.0
79,32.745000000000005,32.97666666666667,57.0,52.0
80,33.145,34.15166666666667,45.0,58.0
81,33.545,34.22666666666667,52.0,63.0
82,33.945,34.72,60.0,63.0
83,34.345,34.723333333333336,65.0,45.0
84,35.145,36.016666666666666,53.0,54.0
85,35.545,36.075,58.0,53.0
86,34.745000000000005,36.10166666666667,46.0,65.0
87,35.945,36.260000000000005,62.0,58.0
88,36.745000000000005,37.49333333333333,52.0,58.0
89,36.345,37.510000000000005,45.0,66.0
90,37.145,37.63666666666667,60.0,63.0
91,37.545,37.80833333333334,64.0,60.0
92,37.945,38.34666666666667,62.0,59.0
93,37.945,38.38666666666667,58.0,61.0
94,37.945,38.82333333333334,43.0,63.0
95,38.745000000000005,39.15166666666667,67.0,64.0
96,38.745000000000005,39.18,48.0,67.0
97,38.745000000000005,39.2,64.0,61.0
98,40.345000000000006,40.77666666666667,53.0,49.0
99,39.545,40.965,41.0,58.0
100,39.545,41.04166666666667,57.0,60.0
101,39.545,41.04333333333334,60.0,64.0
102,40.745000000000005,41.07,65.0,74.0
103,39.945,41.105000000000004,48.0,62.0
104,41.145,42.211666666666666,57.0,61.0
105,41.145,42.235,60.0,73.0
106,41.145,42.505,41.0,63.0
107,41.545,42.59,48.0,60.0
108,41.945,42.65166666666667,53.0,48.0
109,42.345000000000006,42.79666666666667,57.0,58.0
110,43.145,43.76833333333334,55.0,48.0
111,42.745000000000005,43.98166666666667,40.0,60.0
112,43.545,44.223333333333336,60.0,63.0
113,43.945,44.31,55.0,54.0
114,45.145,45.52,62.0,59.0
115,44.345000000000006,45.53,50.0,47.0
116,44.745000000000005,45.56666666666667,57.0,65.0
117,45.545,45.973333333333336,65.0,67.0
118,46.345000000000006,47.093333333333334,52.0,58.0
119,45.945,47.138333333333335,45.0,74.0
120,46.745000000000005,47.413333333333334,60.0,59.0
121,47.145,47.46,64.0,61.0
122,47.945,48.605000000000004,53.0,57.0
123,47.545,48.715,46.0,70.0
124,48.345000000000006,49.06333333333334,62.0,60.0
125,48.77166666666667,49.14,65.0,59.0
126,49.145,50.28333333333334,41.0,74.0
127,49.545,50.36166666666667,48.0,75.0
128,49.945,50.75166666666667,57.0,68.0
129,50.37166666666667,50.78,65.0,59.0
130,51.545,52.010000000000005,58.0,66.0
131,51.145,52.17666666666667,50.0,63.0
132,50.745000000000005,52.335,43.0,59.0
133,51.945,52.36000000000001,65.0,85.0
134,53.145,53.68833333333334,60.0,61.0
135,52.345000000000006,53.89,48.0,67.0
136,52.745000000000005,53.900000000000006,55.0,71.0
137,53.545,53.97833333333334,67.0,73.0
138,54.345000000000006,54.785000000000004,57.0,53.0
139,53.945,55.21333333333334,41.0,73.0
140,54.345000000000006,55.41833333333334,48.0,90.0
141,55.145,55.63666666666667,57.0,63.0
142,54.745000000000005,55.91833333333334,60.0,66.0
143,55.945,56.428333333333335,55.0,59.0
144,55.545,56.81166666666667,40.0,67.0
145,56.345000000000006,57.050000000000004,60.0,67.0
146,56.745000000000005,57.18000000000001,55.0,61.0
147,57.145,58.26666666666667,38.0,61.0
148,57.545,58.318333333333335,45.0,59.0
149,57.945,58.43333333333334,53.0,63.0
150,58.345000000000006,58.74166666666667,57.0,67.0
151,58.745000000000005,59.845000000000006,45.0,62.0
152,59.145,59.913333333333334,52.0,57.0
153,59.545,60.30833333333334,60.0,63.0
154,59.94500000000001,60.351666666666674,64.0,65.0
155,60.745000000000005,61.601666666666674,58.0,62.0
156,60.345000000000006,61.62833333333334,46.0,67.0
157,61.145,61.638333333333335,60.0,69.0
158,61.545,61.89666666666667,65.0,75.0
159,61.94500000000001,63.10666666666667,45.0,74.0
160,62.345000000000006,63.12166666666667,52.0,60.0
161,62.745000000000005,63.20666666666667,60.0,60.0
162,63.145,63.60666666666667,64.0,65.0
163,63.94500000000001,64.76,50.0,83.0
164,63.545,64.77333333333334,43.0,65.0
165,63.545,64.77333333333334,43.0,75.0
166,64.345,64.86333333333334,58.0,71.0
167,64.745,65.18333333333334,65.0,86.0
168,65.545,66.13333333333334,55.0,68.0
169,65.14500000000001,66.19500000000001,64.0,67.0
170,65.14500000000001,66.23166666666667,48.0,67.0
171,65.94500000000001,66.37166666666667,67.0,81.0
172,66.345,66.67333333333333,64.0,67.0
173,67.14500000000001,67.82000000000001,48.0,58.0
174,66.745,67.9,41.0,74.0
175,67.545,68.41833333333334,57.0,71.0
176,67.545,69.05666666666667,60.0,71.0
177,68.745,69.455,47.0,74.0
178,68.345,69.51166666666667,40.0,76.0
179,69.14500000000001,69.62333333333333,60.0,70.0
180,69.14500000000001,69.67666666666668,55.0,68.0
181,69.94500000000001,70.63000000000001,53.0,60.0
182,69.94500000000001,70.64166666666667,57.0,61.0
183,69.94500000000001,71.09166666666667,38.0,72.0
184,70.745,71.12333333333333,57.0,70.0
185,70.745,71.14500000000001,53.0,66.0
186,70.345,71.16833333333334,45.0,64.0
187,71.14500000000001,71.485,50.0,63.0
188,71.545,72.26,60.0,67.0
189,71.545,72.26,64.0,75.0
190,71.545,72.51333333333334,45.0,58.0
191,71.94500000000001,72.64,52.0,71.0
192,72.345,72.75166666666667,64.0,77.0
193,72.345,72.75666666666667,60.0,67.0
194,73.14500000000001,73.80166666666668,62.0,64.0
195,73.345,73.93666666666667,58.0,58.0
196,73.14500000000001,74.14,46.0,10.0
197,73.94500000000001,74.46833333333333,65.0,75.0
198,73.94500000000001,74.51666666666667,62.0,67.0
199,74.745,75.44833333333334,60.0,60.0
200,74.745,75.46333333333334,64.0,59.0
201,75.14500000000001,75.84333333333333,52.0,53.0
202,74.745,75.875,45.0,72.0
203,75.545,75.88666666666667,64.0,76.0
204,75.545,75.89500000000001,60.0,65.0
205,76.345,77.05000000000001,62.0,73.0
206,76.345,77.05333333333334,58.0,64.0
207,77.14500000000001,77.47500000000001,62.0,87.0
208,76.345,77.485,43.0,68.0
209,76.745,77.49833333333333,46.0,63.0
210,77.14500000000001,77.52166666666668,58.0,67.0
211,77.94500000000001,78.65833333333333,52.0,64.0
212,77.94500000000001,78.68333333333334,55.0,70.0
213,78.745,79.02666666666667,52.0,65.0
214,78.745,79.05666666666667,55.0,77.0
215,77.94500000000001,79.11,36.0,95.0
216,78.345,79.155,43.0,64.0
217,79.14500000000001,79.30166666666668,55.0,56.0
218,79.14500000000001,79.31,52.0,65.0
219,78.94500000000001,79.44000000000001,48.0,50.0
220,79.545,80.25,57.0,67.0
221,79.545,80.26666666666667,60.0,60.0
222,79.545,80.70833333333334,41.0,74.0
223,80.345,81.04666666666667,57.0,65.0
224,80.345,81.05000000000001,60.0,74.0
225,79.94500000000001,81.23833333333334,48.0,58.0
226,81.14500000000001,81.79666666666667,55.0,64.0
227,81.14500000000001,81.82833333333333,60.0,67.0
228,81.545,82.22333333333334,48.0,57.0
229,81.14500000000001,82.33833333333334,40.0,62.0
230,81.94500000000001,82.35833333333333,60.0,75.0
231,81.94500000000001,82.39,55.0,76.0
232,82.745,83.46333333333334,53.0,61.0
233,82.745,83.47500000000001,57.0,67.0
234,82.745,83.89666666666668,38.0,62.0
235,83.545,83.93833333333333,57.0,70.0
236,83.545,83.95333333333333,53.0,64.0
237,83.14500000000001,83.95666666666668,45.0,59.0
238,83.94500000000001,84.33166666666668,50.0,67.0
239,84.345,85.05000000000001,60.0,63.0
240,84.345,85.06,64.0,72.0
241,84.345,85.59666666666668,45.0,65.0
242,85.545,85.65166666666667,57.0,32.0
243,85.14500000000001,85.69000000000001,64.0,79.0
244,85.14500000000001,85.83666666666667,60.0,74.0
245,84.745,85.86,52.0,63.0
246,85.94500000000001,86.58833333333334,62.0,90.0
247,85.94500000000001,87.11500000000001,46.0,61.0
248,86.745,87.21666666666667,65.0,77.0
249,86.745,87.22166666666668,62.0,63.0
250,87.545,88.25666666666667,60.0,68.0
251,87.545,88.27000000000001,64.0,77.0
252,87.94500000000001,88.62333333333333,52.0,71.0
253,87.545,88.64833333333334,45.0,77.0
254,88.345,88.685,64.0,83.0
255,88.345,88.69333333333334,60.0,74.0
256,89.14500000000001,89.79833333333333,62.0,85.0
257,89.14500000000001,89.83666666666667,58.0,73.0
258,89.14500000000001,90.32166666666667,43.0,77.0
259,89.94500000000001,90.34166666666667,62.0,83.0
260,89.94500000000001,90.37666666666668,58.0,68.0
261,90.745,91.44500000000001,64.0,63.0
262,90.745,91.47,67.0,70.0
263,91.545,91.86,60.0,58.0
264,90.745,92.0,48.0,71.0
265,91.14500000000001,92.0,55.0,63.0
266,91.545,92.0,64.0,69.0
267,91.545,92.0,67.0,79.0
268,93.14333333333335,94.67,53.0,82.0
269,93.56833333333334,94.80000000000001,57.0,48.0
270,92.27666666666667,94.89333333333335,41.0,75.0
271,92.75500000000001,95.03500000000001,48.0,47.0
272,95.11500000000001,95.53,57.0,39.0
273,94.70833333333334,95.61833333333334,60.0,55.0
274,93.95833333333334,95.78500000000001,65.0,67.0
275,96.355,97.21000000000001,59.0,63.0
276,96.02666666666667,98.60000000000001,53.0,48.0
277,97.91333333333334,98.62833333333334,59.0,57.0
278,96.72500000000001,98.63833333333334,62.0,62.0
279,95.53500000000001,98.64833333333334,47.0,63.0
280,97.10833333333333,98.66333333333334,65.0,62.0
281,98.73333333333333,99.22666666666667,62.0,77.0
282,98.73166666666667,99.57166666666667,65.0,88.0
283,98.72500000000001,99.86666666666667,46.0,100.0
284,99.12833333333334,99.91833333333334,58.0,86.0
285,99.89166666666668,100.06166666666667,65.0,79.0
286,99.49833333333333,100.34666666666668,62.0,77.0
287,100.29833333333335,101.21666666666667,64.0,82.0
288,100.66000000000001,101.735,55.0,55.0
289,100.295,101.84333333333333,48.0,88.0
290,101.465,101.89500000000001,64.0,69.0
291,101.07166666666667,101.9,60.0,83.0
292,100.30666666666667,101.92666666666668,67.0,88.0
293,103.14500000000001,103.46333333333334,70.0,63.0
294,101.94500000000001,103.97166666666668,53.0,75.0
295,101.94500000000001,103.97166666666668,53.0,79.0
296,102.745,105.00833333333334,65.0,59.0
297,103.545,105.02166666666668,69.0,65.0
298,102.34500000000001,105.06,60.0,67.0
299,105.14500000000001,106.21166666666667,57.0,61.0
300,105.14500000000001,106.23500000000001,60.0,73.0
301,105.14500000000001,106.50500000000001,41.0,63.0
302,105.545,106.59,48.0,60.0
303,105.94500000000001,106.65166666666667,53.0,48.0
304,106.34500000000001,106.79666666666667,57.0,58.0
305,107.14500000000001,107.76833333333335,55.0,48.0
306,106.745,107.98166666666667,40.0,60.0
307,107.545,108.22333333333334,60.0,63.0
308,107.94500000000001,108.31,55.0,54.0
309,109.14500000000001,109.52000000000001,62.0,59.0
310,108.34500000000001,109.53,50.0,47.0
311,108.745,109.56666666666668,57.0,65.0
312,109.545,109.97333333333334,65.0,67.0
313,110.34500000000001,111.09333333333333,52.0,58.0
314,109.94500000000001,111.13833333333334,45.0,74.0
315,110.745,111.41333333333334,60.0,59.0
316,111.14500000000001,111.46000000000001,64.0,61.0
317,111.94500000000001,112.605,53.0,57.0
318,111.545,112.715,46.0,70.0
319,112.34500000000001,113.06333333333335,62.0,60.0
320,112.77166666666668,113.14,65.0,59.0
321,113.14500000000001,114.28333333333335,41.0,74.0
322,113.545,114.36166666666668,48.0,75.0
323,113.94500000000001,114.75166666666668,57.0,68.0
324,114.37166666666667,114.78,65.0,59.0
325,115.545,116.01,58.0,66.0
326,115.14500000000001,116.17666666666668,50.0,63.0
327,114.745,116.33500000000001,43.0,59.0
328,115.94500000000001,116.36000000000001,65.0,85.0
329,117.14500000000001,117.68833333333335,60.0,61.0
330,116.34500000000001,117.89,48.0,67.0
331,116.745,117.9,55.0,71.0
332,117.545,117.97833333333334,67.0,73.0
333,118.34500000000001,118.78500000000001,57.0,53.0
334,117.94500000000001,119.21333333333334,41.0,73.0
335,118.34500000000001,119.41833333333334,48.0,90.0
336,119.14500000000001,119.63666666666667,57.0,63.0
337,118.745,119.91833333333334,60.0,66.0
338,119.94500000000001,120.42833333333334,55.0,59.0
339,119.545,120.81166666666667,40.0,67.0
340,120.34500000000001,121.05000000000001,60.0,67.0
341,120.745,121.18,55.0,61.0
342,121.14500000000001,122.26666666666668,38.0,61.0
343,121.545,122.31833333333334,45.0,59.0
344,121.94500000000001,122.43333333333334,53.0,63.0
345,122.34500000000001,122.74166666666667,57.0,67.0
346,122.745,123.84500000000001,45.0,62.0
347,123.14500000000001,123.91333333333334,52.0,57.0
348,123.545,124.30833333333334,60.0,63.0
349,123.94500000000001,124.35166666666667,64.0,65.0
350,124.745,125.60166666666667,58.0,62.0
351,124.34500000000001,125.62833333333334,46.0,67.0
352,125.14500000000001,125.63833333333334,60.0,69.0
353,125.545,125.89666666666668,65.0,75.0
354,125.94500000000001,127.10666666666667,45.0,74.0
355,126.34500000000001,127.12166666666667,52.0,60.0
356,126.745,127.20666666666668,60.0,60.0
357,127.14500000000001,127.60666666666667,64.0,65.0
358,127.94500000000001,128.76000000000002,50.0,83.0
359,127.545,128.77333333333334,43.0,65.0
360,127.545,128.77333333333334,43.0,75.0
361,128.345,128.86333333333334,58.0,71.0
362,128.745,129.18333333333334,65.0,86.0
363,129.54500000000002,130.13333333333335,55.0,68.0
364,129.145,130.19500000000002,64.0,67.0
365,129.145,130.23166666666668,48.0,67.0
366,129.94500000000002,130.37166666666667,67.0,81.0
367,130.345,130.67333333333335,64.0,67.0
368,131.145,131.82000000000002,48.0,58.0
369,130.745,131.9,41.0,74.0
370,131.54500000000002,132.41833333333335,57.0,71.0
371,131.54500000000002,133.05666666666667,60.0,71.0
372,132.745,133.455,47.0,74.0
373,132.345,133.51166666666668,40.0,76.0
374,133.145,133.62333333333333,60.0,70.0
375,133.145,133.67666666666668,55.0,68.0
376,133.94500000000002,134.63,53.0,60.0
377,133.94500000000002,134.64166666666668,57.0,61.0
378,133.94500000000002,135.09166666666667,38.0,72.0
379,134.745,135.12333333333333,57.0,70.0
380,134.745,135.145,53.0,66.0
381,134.345,135.16833333333335,45.0,64.0
382,135.145,135.485,50.0,63.0
383,135.54500000000002,136.26000000000002,60.0,67.0
384,135.54500000000002,136.26000000000002,64.0,75.0
385,135.54500000000002,136.51333333333335,45.0,58.0
386,135.94500000000002,136.64000000000001,52.0,71.0
387,136.345,136.75166666666667,64.0,77.0
388,136.345,136.7566666666667,60.0,67.0
389,137.145,137.80166666666668,62.0,64.0
390,137.345,137.93666666666667,58.0,58.0
391,137.145,138.14000000000001,46.0,10.0
392,137.94500000000002,138.46833333333333,65.0,75.0
393,137.94500000000002,138.51666666666668,62.0,67.0
394,138.745,139.44833333333335,60.0,60.0
395,138.745,139.46333333333334,64.0,59.0
396,139.145,139.84333333333333,52.0,53.0
397,138.745,139.875,45.0,72.0
398,139.54500000000002,139.88666666666668,64.0,76.0
399,139.54500000000002,139.895,60.0,65.0
400,140.345,141.05,62.0,73.0
401,140.345,141.05333333333334,58.0,64.0
402,141.145,141.47500000000002,62.0,87.0
403,140.345,141.485,43.0,68.0
404,140.745,141.49833333333333,46.0,63.0
405,141.145,141.52166666666668,58.0,67.0
406,141.94500000000002,142.65833333333333,52.0,64.0
407,141.94500000000002,142.68333333333334,55.0,70.0
408,142.745,143.02666666666667,52.0,65.0
409,142.745,143.05666666666667,55.0,77.0
410,141.94500000000002,143.11,36.0,95.0
411,142.345,143.155,43.0,64.0
412,143.145,143.30166666666668,55.0,56.0
413,143.145,143.31,52.0,65.0
414,142.94500000000002,143.44,48.0,50.0
415,143.54500000000002,144.25,57.0,67.0
416,143.54500000000002,144.26666666666668,60.0,60.0
417,143.54500000000002,144.70833333333334,41.0,74.0
418,144.345,145.04666666666668,57.0,65.0
419,144.345,145.05,60.0,74.0
420,143.94500000000002,145.23833333333334,48.0,58.0
421,145.145,145.79666666666668,55.0,64.0
422,145.145,145.82833333333335,60.0,67.0
423,145.54500000000002,146.22333333333333,48.0,57.0
424,145.145,146.33833333333334,40.0,62.0
425,145.94500000000002,146.35833333333335,60.0,75.0
426,145.94500000000002,146.39000000000001,55.0,76.0
427,146.745,147.46333333333334,53.0,61.0
428,146.745,147.47500000000002,57.0,67.0
429,146.745,147.89666666666668,38.0,62.0
430,147.54500000000002,147.93833333333333,57.0,70.0
431,147.54500000000002,147.95333333333335,53.0,64.0
432,147.145,147.95666666666668,45.0,59.0
433,147.94500000000002,148.33166666666668,50.0,67.0
434,148.345,149.05,60.0,63.0
435,148.345,149.06,64.0,72.0
436,148.345,149.59666666666666,45.0,65.0
437,149.145,149.69,64.0,79.0
438,149.145,149.83666666666667,60.0,74.0
439,148.745,149.86,52.0,63.0
440,149.94500000000002,150.58833333333334,62.0,90.0
441,149.94500000000002,151.115,46.0,61.0
442,150.745,151.21666666666667,65.0,77.0
443,150.745,151.22166666666666,62.0,63.0
444,151.54500000000002,152.2566666666667,60.0,68.0
445,151.54500000000002,152.27,64.0,77.0
446,151.94500000000002,152.62333333333333,52.0,71.0
447,151.54500000000002,152.64833333333334,45.0,77.0
448,152.345,152.685,64.0,83.0
449,152.345,152.69333333333336,60.0,74.0
450,153.145,153.79833333333335,62.0,85.0
451,153.145,153.83666666666667,58.0,73.0
452,153.145,154.3216666666667,43.0,77.0
453,153.94500000000002,154.34166666666667,62.0,83.0
454,153.94500000000002,154.37666666666667,58.0,68.0
455,154.745,155.44500000000002,64.0,63.0
456,154.745,155.47,67.0,70.0
457,155.54500000000002,155.86,60.0,58.0
458,155.145,156.0366666666667,55.0,63.0
459,155.54500000000002,156.0366666666667,67.0,79.0
460,155.54500000000002,156.05666666666667,64.0,69.0
461,154.745,156.07333333333335,48.0,71.0
462,157.145,157.3816666666667,53.0,54.0
463,156.345,157.40166666666667,60.0,71.0
464,156.345,157.43166666666667,57.0,63.0
465,156.345,157.51833333333335,41.0,58.0
466,157.54500000000002,157.6616666666667,57.0,60.0
467,157.54500000000002,157.835,60.0,71.0
468,157.94500000000002,158.64333333333335,55.0,65.0
469,157.94500000000002,158.67666666666668,60.0,69.0
470,156.745,158.96333333333334,48.0,60.0
471,157.94500000000002,159.1016666666667,40.0,63.0
472,158.745,159.46833333333333,60.0,65.0
473,158.745,159.48000000000002,55.0,65.0
474,159.54500000000002,160.87833333333333,38.0,67.0
475,159.94500000000002,160.88666666666668,45.0,56.0
476,160.345,160.88666666666668,57.0,66.0
477,160.345,160.92166666666668,53.0,61.0
478,160.745,160.94833333333335,50.0,50.0
479,161.145,162.27,45.0,79.0
480,161.54500000000002,162.33,52.0,67.0
481,161.94500000000002,162.68833333333333,60.0,64.0
482,161.94500000000002,162.72500000000002,64.0,74.0
483,162.745,163.08833333333334,58.0,52.0
484,162.745,163.35500000000002,62.0,60.0
485,162.745,163.40166666666667,65.0,74.0
486,163.145,163.44,58.0,67.0
487,162.745,163.66500000000002,46.0,51.0
488,162.745,163.77666666666667,53.0,71.0
489,163.54500000000002,163.94333333333336,65.0,79.0
490,163.54500000000002,163.95166666666668,62.0,63.0
491,164.345,164.99833333333333,60.0,62.0
492,164.345,165.01000000000002,64.0,70.0
493,165.145,165.45666666666668,60.0,62.0
494,165.145,165.46166666666667,64.0,75.0
495,164.745,165.64166666666668,52.0,59.0
496,165.54500000000002,165.68333333333334,57.0,50.0
497,164.345,165.685,45.0,67.0
498,165.94500000000002,166.61666666666667,62.0,81.0
499,165.94500000000002,166.63000000000002,58.0,66.0
500,165.94500000000002,167.09,43.0,67.0
501,166.745,167.12833333333333,62.0,95.0
502,166.745,167.16333333333336,58.0,85.0
503,166.345,167.21,50.0,64.0
504,167.145,167.55,55.0,61.0
505,167.54500000000002,168.26500000000001,64.0,72.0
506,167.54500000000002,168.27333333333334,67.0,75.0
507,167.94500000000002,168.42333333333335,55.0,67.0
508,167.54500000000002,168.55,48.0,73.0
509,168.345,168.705,72.0,72.0
510,168.345,168.71666666666667,67.0,83.0
511,168.345,168.73000000000002,64.0,68.0
512,169.145,170.26833333333335,41.0,64.0
513,169.145,170.31166666666667,57.0,58.0
514,169.145,170.31333333333333,60.0,66.0
515,169.345,170.41000000000003,48.0,79.0
516,170.54500000000002,171.76500000000001,55.0,51.0
517,170.94500000000002,171.84833333333336,48.0,59.0
518,170.745,171.90833333333333,60.0,59.0
519,170.745,171.92666666666668,40.0,58.0
520,172.145,173.185,65.0,60.0
521,172.54500000000002,173.2866666666667,57.0,67.0
522,172.345,173.29833333333335,69.0,59.0
523,172.345,173.35666666666668,50.0,74.0
524,173.94500000000002,175.025,45.0,65.0
525,173.94500000000002,175.09833333333336,64.0,59.0
526,173.94500000000002,175.15,60.0,59.0
527,175.94500000000002,176.685,58.0,47.0
528,175.54500000000002,176.815,46.0,64.0
529,176.345,177.04166666666669,62.0,59.0
530,176.345,177.04666666666668,65.0,67.0
531,177.145,178.3166666666667,45.0,56.0
532,177.94500000000002,178.34,64.0,74.0
533,177.94500000000002,178.34666666666666,60.0,65.0
534,179.345,179.815,50.0,33.0
535,178.745,179.83833333333334,62.0,86.0
536,178.745,179.88000000000002,43.0,77.0
537,178.745,179.88333333333335,58.0,63.0
538,179.54500000000002,180.07000000000002,55.0,58.0
539,180.345,181.06833333333336,64.0,83.0
540,180.345,181.07833333333335,67.0,79.0
541,180.745,181.63500000000002,55.0,62.0
542,181.54500000000002,181.64666666666668,60.0,61.0
543,180.345,181.71833333333333,48.0,77.0
544,181.145,181.81166666666667,64.0,83.0
545,181.145,181.8216666666667,67.0,85.0
546,181.94500000000002,182.65,57.0,67.0
547,181.94500000000002,182.66666666666669,60.0,60.0
548,181.94500000000002,183.10833333333335,41.0,74.0
549,182.745,183.4466666666667,57.0,65.0
550,182.745,183.45000000000002,60.0,74.0
551,182.345,183.63833333333335,48.0,58.0
552,183.54500000000002,184.1966666666667,55.0,64.0
553,183.54500000000002,184.22833333333335,60.0,67.0
554,183.94500000000002,184.62333333333333,48.0,57.0
555,183.54500000000002,184.73833333333334,40.0,62.0
556,184.345,184.75833333333335,60.0,75.0
557,184.345,184.79000000000002,55.0,76.0
558,185.145,185.86333333333334,53.0,61.0
559,185.145,185.875,57.0,67.0
560,185.145,186.29666666666668,38.0,62.0
561,185.94500000000002,186.33833333333334,57.0,70.0
562,185.94500000000002,186.35333333333335,53.0,64.0
563,185.54500000000002,186.35666666666668,45.0,59.0
564,186.345,186.73166666666668,50.0,67.0
565,186.745,187.45000000000002,60.0,63.0
566,186.745,187.46,64.0,72.0
567,186.745,187.99666666666667,45.0,65.0
568,187.54500000000002,188.09,64.0,79.0
569,187.54500000000002,188.23666666666668,60.0,74.0
570,187.145,188.26000000000002,52.0,63.0
571,188.345,188.98833333333334,62.0,90.0
572,188.345,189.51500000000001,46.0,61.0
573,189.145,189.61666666666667,65.0,77.0
574,189.145,189.62166666666667,62.0,63.0
575,189.94500000000002,190.65666666666667,60.0,68.0
576,189.94500000000002,190.67000000000002,64.0,77.0
577,190.345,191.02333333333334,52.0,71.0
578,189.94500000000002,191.04833333333335,45.0,77.0
579,190.745,191.085,64.0,83.0
580,190.745,191.09333333333333,60.0,74.0
581,191.54500000000002,192.19833333333335,62.0,85.0
582,191.54500000000002,192.23666666666668,58.0,73.0
583,191.54500000000002,192.7216666666667,43.0,77.0
584,192.345,192.74166666666667,62.0,83.0
585,192.345,192.77666666666667,58.0,68.0
586,193.145,193.845,64.0,63.0
587,193.145,193.87,67.0,70.0
588,193.94500000000002,194.26000000000002,60.0,58.0
589,193.54500000000002,194.43666666666667,55.0,63.0
590,193.94500000000002,194.43666666666667,67.0,79.0
591,193.94500000000002,194.45666666666668,64.0,69.0
592,193.145,194.47333333333336,48.0,71.0
593,194.745,195.4716666666667,57.0,67.0
594,194.745,195.47333333333336,60.0,74.0
595,195.54500000000002,196.23666666666668,60.0,73.0
596,195.54500000000002,196.24166666666667,57.0,67.0
597,195.94500000000002,196.28166666666667,53.0,49.0
598,195.145,196.49166666666667,48.0,65.0
599,196.345,196.49166666666667,48.0,86.0
600,194.745,196.51833333333335,41.0,65.0
601,196.345,196.92333333333335,67.0,83.0
602,196.345,196.925,64.0,79.0
603,197.145,197.92666666666668,61.0,114.0
604,197.145,197.94833333333335,56.0,85.0
605,197.145,197.95666666666668,49.0,79.0
606,197.145,197.99833333333333,37.0,68.0
607,198.345,199.02,49.0,58.0
608,197.94500000000002,199.10000000000002,42.0,74.0
609,198.745,199.61833333333334,58.0,71.0
610,198.745,200.2566666666667,61.0,71.0
611,199.91833333333335,200.62833333333336,49.0,74.0
612,199.54500000000002,200.71166666666667,41.0,76.0
613,200.345,200.82333333333335,61.0,70.0
614,200.345,200.8766666666667,56.0,68.0
615,201.145,201.83,54.0,60.0
616,201.145,201.84166666666667,58.0,61.0
617,201.145,202.29166666666669,39.0,72.0
618,201.94500000000002,202.32333333333335,58.0,70.0
619,201.94500000000002,202.345,54.0,66.0
620,201.54500000000002,202.36833333333334,46.0,64.0
621,202.345,202.685,51.0,63.0
622,202.745,203.46,61.0,67.0
623,202.745,203.46,65.0,75.0
624,202.745,203.71333333333334,46.0,58.0
625,203.145,203.84,53.0,71.0
626,203.54500000000002,203.95166666666668,65.0,77.0
627,203.54500000000002,203.95666666666668,61.0,67.0
628,204.34500000000003,205.0016666666667,63.0,64.0
629,204.54500000000002,205.13666666666668,59.0,58.0
630,204.34500000000003,205.34,47.0,59.0
631,205.145,205.66833333333335,66.0,75.0
632,205.145,205.71666666666667,63.0,67.0
633,205.94500000000002,206.64833333333334,61.0,60.0
634,205.94500000000002,206.66333333333336,65.0,59.0
635,206.34500000000003,207.04333333333335,53.0,53.0
636,205.94500000000002,207.07500000000002,46.0,72.0
637,206.745,207.08666666666667,65.0,76.0
638,206.745,207.09500000000003,61.0,65.0
639,207.54500000000002,208.25,63.0,73.0
640,207.54500000000002,208.25333333333336,59.0,64.0
641,208.34500000000003,208.675,63.0,87.0
642,207.54500000000002,208.685,44.0,68.0
643,207.94500000000002,208.69833333333335,47.0,63.0
644,208.34500000000003,208.7216666666667,59.0,67.0
645,209.145,209.85833333333335,53.0,64.0
646,209.145,209.88333333333335,56.0,70.0
647,209.94500000000002,210.2266666666667,53.0,65.0
648,209.94500000000002,210.2566666666667,56.0,77.0
649,209.145,210.31,37.0,95.0
650,209.54500000000002,210.35500000000002,44.0,64.0
651,210.34500000000003,210.5016666666667,56.0,56.0
652,210.34500000000003,210.51000000000002,53.0,65.0
653,210.145,210.64000000000001,49.0,50.0
654,210.745,211.45000000000002,58.0,67.0
655,210.745,211.46666666666667,61.0,60.0
656,210.745,211.90833333333336,42.0,74.0
657,211.54500000000002,212.24666666666667,58.0,65.0
658,211.54500000000002,212.25,61.0,74.0
659,211.145,212.43833333333336,49.0,58.0
660,212.34500000000003,212.99666666666667,56.0,64.0
661,212.34500000000003,213.02833333333334,61.0,67.0
662,212.745,213.42333333333335,49.0,57.0
663,212.34500000000003,213.53833333333336,41.0,62.0
664,213.145,213.55833333333334,61.0,75.0
665,213.145,213.59,56.0,76.0
666,213.94500000000002,214.66333333333336,54.0,61.0
667,213.94500000000002,214.675,58.0,67.0
668,213.94500000000002,215.0966666666667,39.0,62.0
669,214.745,215.13833333333335,58.0,70.0
670,214.745,215.15333333333334,54.0,64.0
671,214.34500000000003,215.15666666666667,46.0,59.0
672,215.145,215.5316666666667,51.0,67.0
673,215.54500000000002,216.25,61.0,63.0
674,215.54500000000002,216.26000000000002,65.0,72.0
675,215.54500000000002,216.79666666666668,46.0,65.0
676,216.34500000000003,216.89000000000001,65.0,79.0
677,216.34500000000003,217.0366666666667,61.0,74.0
678,215.94500000000002,217.06,53.0,63.0
679,217.145,217.78833333333336,63.0,90.0
680,217.145,218.31500000000003,47.0,61.0
681,217.94500000000002,218.41666666666669,66.0,77.0
682,217.94500000000002,218.42166666666668,63.0,63.0
683,218.745,219.45666666666668,61.0,68.0
684,218.745,219.47000000000003,65.0,77.0
685,219.145,219.82333333333335,53.0,71.0
686,218.745,219.84833333333336,46.0,77.0
687,219.54500000000002,219.88500000000002,65.0,83.0
688,219.54500000000002,219.89333333333335,61.0,74.0
689,220.34500000000003,220.99833333333333,63.0,85.0
690,220.34500000000003,221.0366666666667,59.0,73.0
691,220.34500000000003,221.52166666666668,44.0,77.0
692,221.145,221.54166666666669,63.0,83.0
693,221.145,221.57666666666668,59.0,68.0
694,221.94500000000002,222.645,65.0,63.0
695,221.94500000000002,222.67000000000002,68.0,70.0
696,222.745,223.06,61.0,58.0
697,222.34500000000003,223.23666666666668,56.0,63.0
698,222.745,223.23666666666668,68.0,79.0
699,222.745,223.2566666666667,65.0,69.0
700,221.94500000000002,223.27333333333334,49.0,71.0
701,224.34500000000003,224.58166666666668,54.0,54.0
702,223.54500000000002,224.6016666666667,61.0,71.0
703,223.54500000000002,224.6316666666667,58.0,63.0
704,223.54500000000002,224.71833333333333,42.0,58.0
705,224.745,224.86166666666668,58.0,60.0
706,224.745,225.03500000000003,61.0,71.0
707,225.145,225.84333333333333,56.0,65.0
708,225.145,225.8766666666667,61.0,69.0
709,223.94500000000002,226.16333333333336,49.0,60.0
710,225.145,226.30166666666668,41.0,63.0
711,225.94500000000002,226.66833333333335,61.0,65.0
712,225.94500000000002,226.68,56.0,65.0
713,226.745,227.39833333333334,63.0,85.0
714,226.745,227.43666666666667,59.0,73.0
715,226.745,229.94500000000002,44.0,77.0
716,227.54500000000002,229.94500000000002,63.0,83.0
717,227.54500000000002,230.23833333333334,59.0,68.0
718,233.9416666666667,235.235,58.0,85.0
719,234.335,235.55666666666667,61.0,41.0
720,233.04500000000002,235.66000000000003,42.0,97.0
721,233.52833333333334,235.83,54.0,56.0
722,234.72500000000002,236.50500000000002,66.0,73.0
723,235.49,237.31,58.0,78.0
724,237.525,237.97833333333335,58.0,75.0
725,237.93166666666667,238.83666666666667,61.0,102.0
726,236.24333333333334,238.97500000000002,41.0,72.0
727,238.6866666666667,239.64666666666668,58.0,64.0
728,240.28833333333336,241.24,54.0,58.0
729,239.85333333333335,242.07333333333335,51.0,55.0
730,239.485,242.16833333333335,39.0,93.0
731,241.89666666666668,242.83833333333334,54.0,47.0
732,240.68833333333336,242.84166666666667,58.0,53.0
733,241.13333333333335,242.85833333333335,63.0,81.0
734,243.54166666666669,244.51333333333335,53.0,34.0
735,242.70666666666668,245.42166666666668,37.0,93.0
736,243.09166666666667,245.83,49.0,47.0
737,245.14166666666668,246.04666666666668,53.0,50.0
738,243.87500000000003,246.07833333333335,56.0,50.0
739,244.30833333333334,246.10833333333335,61.0,79.0
740,246.93833333333336,249.48166666666668,58.0,34.0
741,246.525,250.275,54.0,32.0
742,245.96666666666667,250.395,42.0,81.0
