,start,end,pitch,velocity
0,20.841666666666665,21.025,69.0,94.0
1,21.091666666666665,21.222916666666666,71.0,93.0
2,21.341666666666665,21.539583333333333,78.0,86.0
3,21.591666666666665,21.716666666666665,76.0,91.0
4,21.841666666666665,22.014583333333334,76.0,92.0
5,22.091666666666665,22.808333333333334,74.0,99.0
6,22.841666666666665,23.279166666666665,66.0,96.0
7,23.341666666666665,24.435416666666665,69.0,91.0
8,24.841666666666665,25.06875,71.0,95.0
9,25.091666666666665,25.295833333333334,73.0,91.0
10,25.341666666666665,26.214583333333334,74.0,107.0
11,26.341666666666665,26.75,78.0,92.0
12,26.841666666666665,27.072916666666668,81.0,96.0
13,27.091666666666665,27.420833333333334,74.0,94.0
14,27.341666666666665,28.614583333333332,76.0,92.0
15,28.841666666666665,29.008333333333333,78.0,95.0
16,29.091666666666665,29.229166666666668,79.0,92.0
17,29.341666666666665,29.989583333333332,81.0,93.0
18,30.091666666666665,30.26875,79.0,92.0
19,30.341666666666665,30.7,78.0,95.0
20,30.841666666666665,31.275,76.0,94.0
21,31.341666666666665,32.375,71.0,94.0
22,32.84166666666667,33.06041666666667,71.0,92.0
23,33.09166666666667,33.28125,69.0,91.0
24,33.34166666666667,33.96041666666667,71.0,94.0
25,34.09129346666666,34.246765966666665,74.0,101.0
26,34.34004946666666,34.77122653333333,78.0,95.0
27,34.83756146666666,35.01376363333333,76.0,92.0
28,35.086317466666664,35.26666556666667,74.0,104.0
29,35.335073466666664,36.60994796666667,76.0,95.0
30,36.827609466666665,37.010030533333335,69.0,94.0
31,37.076365466666665,37.206962366666666,71.0,93.0
32,37.325121466666666,37.522053299999996,78.0,86.0
33,37.573877466666666,37.698255466666666,76.0,91.0
34,37.822633466666666,37.9948452,76.0,92.0
35,38.071928533333335,38.7885952,74.0,99.0
36,38.821928533333335,39.259428533333335,66.0,96.0
37,39.321928533333335,40.415678533333335,69.0,91.0
38,40.821928533333335,41.04901186666667,71.0,95.0
39,41.071928533333335,41.2760952,73.0,91.0
40,41.321928533333335,42.1948452,74.0,107.0
41,42.321928533333335,42.730261866666666,78.0,92.0
42,42.821928533333335,43.05317853333334,81.0,96.0
43,43.071928533333335,43.4010952,74.0,94.0
44,43.321928533333335,44.5948452,76.0,92.0
45,44.821928533333335,44.9885952,78.0,95.0
46,45.071928533333335,45.20942853333334,79.0,92.0
47,45.321928533333335,45.9698452,81.0,93.0
48,46.071928533333335,46.24901186666666,79.0,92.0
49,46.321928533333335,46.68026186666667,78.0,95.0
50,46.821928533333335,47.071928533333335,76.0,94.0
51,47.071928533333335,47.321928533333335,74.0,94.0
52,47.321928533333335,48.355261866666666,71.0,94.0
53,48.821928533333335,49.071928533333335,78.0,106.0
54,49.071928533333335,49.224011866666665,81.0,95.0
55,49.321928533333335,49.9073452,76.0,97.0
56,50.071928533333335,50.2635952,78.0,92.0
57,50.321928533333335,50.5448452,76.0,97.0
58,50.571928533333335,50.790678533333335,78.0,93.0
59,50.821928533333335,51.067761866666665,74.0,107.0
60,51.071928533333335,51.359428533333336,71.0,91.0
61,51.321928533333335,53.321928533333335,74.0,104.0
62,54.821928533333335,55.06151186666666,78.0,92.0
63,55.071928533333335,55.3448452,79.0,88.0
64,55.321928533333335,55.9260952,81.0,94.0
65,56.071928533333335,56.24067853333334,83.0,92.0
66,56.321928533333335,56.49067853333334,78.0,97.0
67,56.571928533333335,56.7823452,79.0,94.0
68,56.821928533333335,57.12192853333333,78.0,91.0
69,57.071928533333335,57.3010952,76.0,97.0
70,57.321928533333335,58.4510952,74.0,97.0
71,58.821928533333335,58.978178533333335,74.0,97.0
72,59.071928533333335,59.21776186666666,76.0,96.0
73,59.321928533333335,59.84901186666667,78.0,92.0
74,60.071928533333335,60.27401186666667,83.0,94.0
75,60.321928533333335,60.4385952,81.0,88.0
76,60.571928533333335,60.74901186666666,83.0,93.0
77,60.821928533333335,61.0198452,74.0,99.0
78,61.071928533333335,61.27192853333334,78.0,94.0
79,61.321928533333335,62.51567853333333,76.0,96.0
80,62.821928533333335,62.9635952,74.0,97.0
81,63.071928533333335,63.2448452,76.0,94.0
82,63.321928533333335,63.90526186666666,78.0,92.0
83,64.07192853333333,64.2448452,83.0,92.0
84,64.32192853333333,64.4948452,81.0,94.0
85,64.57192853333333,64.7135952,83.0,92.0
86,64.82192853333333,65.03026186666666,78.0,94.0
87,65.07192853333333,65.32192853333333,74.0,95.0
88,65.32192853333333,66.47817853333333,71.0,92.0
89,66.82192853333333,67.0448452,71.0,94.0
90,67.07192853333333,67.22401186666667,81.0,95.0
91,67.32192853333333,67.90317853333333,78.0,92.0
92,68.07192853333333,68.26151186666667,83.0,92.0
93,68.32192853333333,68.75526186666667,81.0,92.0
94,68.82192853333333,69.07192853333333,81.0,91.0
95,69.07192853333333,69.32192853333333,78.0,91.0
96,69.32192853333333,70.3698452,76.0,91.0
97,70.82192853333333,71.06151186666666,78.0,92.0
98,71.07192853333333,71.34484520000001,79.0,88.0
99,71.32192853333333,71.92609519999999,81.0,94.0
100,72.07192853333333,72.24067853333332,83.0,92.0
101,72.32192853333333,72.49067853333332,78.0,97.0
102,72.57192853333333,72.78234520000001,79.0,94.0
103,72.82192853333333,73.12192853333333,78.0,91.0
104,73.07192853333333,73.30109519999999,76.0,97.0
105,73.32192853333333,74.4510952,74.0,97.0
106,74.82192853333333,74.97817853333333,74.0,97.0
107,75.07192853333333,75.21776186666666,76.0,96.0
108,75.32192853333333,75.84901186666667,78.0,92.0
109,76.07192853333333,76.27401186666667,83.0,94.0
110,76.32192853333333,76.43859520000001,81.0,88.0
111,76.57192853333333,76.74901186666666,83.0,93.0
112,76.82192853333333,77.01984519999999,74.0,99.0
113,77.07192853333333,77.27192853333332,78.0,94.0
114,77.32192853333333,78.51567853333333,76.0,96.0
115,78.82192853333333,78.9635952,74.0,97.0
116,79.07192853333333,79.2448452,76.0,94.0
117,79.32192853333333,79.90526186666666,78.0,92.0
118,80.07192853333333,80.2448452,83.0,92.0
119,80.32192853333333,80.4948452,81.0,94.0
120,80.57192853333333,80.7135952,81.0,92.0
121,80.82192853333333,81.03026186666666,78.0,94.0
122,81.07192853333333,81.32192853333333,74.0,95.0
123,81.32192853333333,82.47817853333333,71.0,92.0
124,82.82192853333333,83.0448452,83.0,94.0
125,83.07192853333333,83.22401186666667,81.0,95.0
126,83.32192853333333,83.90317853333333,78.0,92.0
127,84.07192853333333,84.26151186666667,81.0,92.0
128,84.32192853333333,84.75526186666667,76.0,92.0
129,84.82192853333333,85.07192853333333,74.0,91.0
130,85.07192853333333,85.32192853333333,71.0,91.0
131,85.32192853333333,87.32192853333333,74.0,91.0
132,120.82192853333333,121.00526186666667,69.0,94.0
133,121.07192853333333,121.20317853333333,71.0,93.0
134,121.32192853333333,121.5198452,78.0,86.0
135,121.57192853333333,121.69692853333333,76.0,91.0
136,121.82192853333333,121.9948452,76.0,92.0
137,122.07192853333333,122.7885952,74.0,99.0
138,122.82192853333333,123.25942853333333,66.0,96.0
139,123.32192853333333,124.41567853333333,69.0,91.0
140,124.82192853333333,125.04901186666666,71.0,95.0
141,125.07192853333333,125.2760952,73.0,91.0
142,125.32192853333333,126.1948452,74.0,107.0
143,126.32192853333333,126.73026186666667,78.0,92.0
144,126.82192853333333,127.05317853333334,81.0,96.0
145,127.07192853333333,127.4010952,74.0,94.0
146,127.32192853333333,128.5948452,76.0,92.0
147,128.82192853333333,128.98859520000002,78.0,95.0
148,129.07192853333333,129.20942853333332,79.0,92.0
149,129.32192853333333,129.9698452,81.0,93.0
150,130.07192853333333,130.24901186666665,79.0,92.0
151,130.32192853333333,130.68026186666668,78.0,95.0
152,130.82192853333333,131.25526186666667,76.0,94.0
153,131.32192853333333,132.35526186666667,71.0,94.0
154,132.82192853333333,133.04067853333333,71.0,92.0
155,133.07192853333333,133.26151186666667,69.0,91.0
156,133.32192853333333,133.9406785333333,71.0,94.0
157,134.07192853333333,134.22817853333333,74.0,101.0
158,134.32192853333333,134.75526186666667,78.0,95.0
159,134.82192853333333,134.99901186666665,76.0,92.0
160,135.07192853333333,135.2531785333333,74.0,104.0
161,135.32192853333333,136.60317853333333,76.0,95.0
162,136.82192853333333,137.00526186666667,69.0,94.0
163,137.07192853333333,137.20317853333333,71.0,93.0
164,137.32192853333333,137.51984520000002,78.0,86.0
165,137.57192853333333,137.69692853333333,76.0,91.0
166,137.82192853333333,137.9948452,76.0,92.0
167,138.07192853333333,138.7885952,74.0,99.0
168,138.82192853333333,139.25942853333333,66.0,96.0
169,139.32192853333333,140.41567853333333,69.0,91.0
170,140.82192853333333,141.04901186666666,71.0,95.0
171,141.07192853333333,141.2760952,73.0,91.0
172,141.32192853333333,142.1948452,74.0,107.0
173,142.32192853333333,142.73026186666667,78.0,92.0
174,142.82192853333333,143.05317853333332,81.0,96.0
175,143.07192853333333,143.4010952,74.0,94.0
176,143.32192853333333,144.5948452,76.0,92.0
177,144.82192853333333,144.9885952,78.0,95.0
178,145.07192853333333,145.20942853333332,79.0,92.0
179,145.32192853333333,145.9698452,81.0,93.0
180,146.07192853333333,146.24901186666665,79.0,92.0
181,146.32192853333333,146.68026186666668,78.0,95.0
182,146.82192853333333,147.07192853333333,76.0,94.0
183,147.07192853333333,147.32192853333333,74.0,94.0
184,147.32192853333333,148.35526186666667,71.0,94.0
185,148.82192853333333,149.07192853333333,78.0,106.0
186,149.07192853333333,149.22401186666667,81.0,95.0
187,149.32192853333333,149.9073452,76.0,97.0
188,150.07192853333333,150.2635952,78.0,92.0
189,150.32192853333333,150.5448452,76.0,97.0
190,150.57192853333333,150.79067853333333,78.0,93.0
191,150.82192853333333,151.06776186666667,74.0,107.0
192,151.07192853333333,151.35942853333333,71.0,91.0
193,151.32192853333333,153.32192853333333,74.0,104.0
194,154.82192853333333,155.06151186666665,78.0,92.0
195,155.07192853333333,155.3448452,79.0,88.0
196,155.32192853333333,155.9260952,81.0,94.0
197,156.07192853333333,156.24067853333332,83.0,92.0
198,156.32192853333333,156.49067853333332,78.0,97.0
199,156.57192853333333,156.7823452,79.0,94.0
200,156.82192853333333,157.12192853333335,78.0,91.0
201,157.07192853333333,157.3010952,76.0,97.0
202,157.32192853333333,158.4510952,74.0,97.0
203,158.82192853333333,158.97817853333333,74.0,97.0
204,159.07192853333333,159.21776186666665,76.0,96.0
205,159.32192853333333,159.84901186666667,78.0,92.0
206,160.07192853333333,160.27401186666668,83.0,94.0
207,160.32192853333333,160.4385952,81.0,88.0
208,160.57192853333333,160.74901186666665,83.0,93.0
209,160.82192853333333,161.0198452,74.0,99.0
210,161.07192853333333,161.27192853333332,78.0,94.0
211,161.32192853333333,162.51567853333333,76.0,96.0
212,162.82192853333333,162.9635952,74.0,97.0
213,163.07192853333333,163.2448452,76.0,94.0
214,163.32192853333333,163.90526186666665,78.0,92.0
215,164.07192853333333,164.2448452,83.0,92.0
216,164.32192853333333,164.4948452,81.0,94.0
217,164.57192853333333,164.7135952,83.0,92.0
218,164.82192853333333,165.03026186666665,78.0,94.0
219,165.07192853333333,165.32192853333333,74.0,95.0
220,165.32192853333333,166.47817853333333,71.0,92.0
221,166.82192853333333,167.0448452,71.0,94.0
222,167.07192853333333,167.22401186666667,81.0,95.0
223,167.32192853333333,167.90317853333335,78.0,92.0
224,168.07192853333333,168.26151186666664,83.0,92.0
225,168.32192853333333,168.75526186666667,81.0,92.0
226,168.82192853333333,169.07192853333333,81.0,91.0
227,169.07192853333333,169.32192853333333,78.0,91.0
228,169.32192853333333,170.3698452,76.0,91.0
229,170.82192853333333,171.06151186666665,78.0,92.0
230,171.07192853333333,171.3448452,79.0,88.0
231,171.32192853333333,171.92609520000002,81.0,94.0
232,172.07192853333333,172.24067853333332,83.0,92.0
233,172.32192853333333,172.49067853333332,78.0,97.0
234,172.57192853333333,172.7823452,79.0,94.0
235,172.82192853333333,173.12192853333335,78.0,91.0
236,173.07192853333333,173.30109520000002,76.0,97.0
237,173.32192853333333,174.4510952,74.0,97.0
238,174.82192853333333,174.97817853333333,74.0,97.0
239,175.07192853333333,175.21776186666665,76.0,96.0
240,175.32192853333333,175.84901186666667,78.0,92.0
241,176.07192853333333,176.27401186666668,83.0,94.0
242,176.32192853333333,176.4385952,81.0,88.0
243,176.57192853333333,176.74901186666665,83.0,93.0
244,176.82192853333333,177.01984520000002,74.0,99.0
245,177.07192853333333,177.27192853333332,78.0,94.0
246,177.32192853333333,178.51567853333336,76.0,96.0
247,178.82192853333333,178.9635952,74.0,97.0
248,179.07192853333333,179.2448452,76.0,94.0
249,179.32192853333333,179.90526186666665,78.0,92.0
250,180.07192853333333,180.2448452,83.0,92.0
251,180.32192853333333,180.4948452,81.0,94.0
252,180.57192853333333,180.7135952,81.0,92.0
253,180.82192853333333,181.03026186666665,78.0,94.0
254,181.07192853333333,181.32192853333333,74.0,95.0
255,181.32192853333333,182.47817853333333,71.0,92.0
256,182.82192853333333,183.0448452,83.0,94.0
257,183.07192853333333,183.22401186666667,81.0,95.0
258,183.32192853333333,183.90317853333335,78.0,92.0
259,184.07192853333333,184.26151186666664,81.0,92.0
260,184.32192853333333,184.75526186666667,76.0,92.0
261,184.82192853333333,185.07192853333333,74.0,91.0
262,185.07192853333333,185.32192853333333,71.0,91.0
263,185.32192853333333,187.32192853333333,74.0,91.0
264,188.82192853333333,189.06151186666665,78.0,92.0
265,189.07192853333333,189.3448452,79.0,88.0
266,189.32192853333333,189.92609520000002,81.0,94.0
267,190.07192853333333,190.24067853333332,83.0,92.0
268,190.32192853333333,190.49067853333332,78.0,97.0
269,190.57192853333333,190.7823452,79.0,94.0
270,190.82192853333333,191.12192853333335,78.0,91.0
271,191.07192853333333,191.30109520000002,76.0,97.0
272,191.32192853333333,192.4510952,74.0,97.0
273,192.82192853333333,192.97817853333333,74.0,97.0
274,193.07192853333333,193.21776186666665,76.0,96.0
275,193.32192853333333,193.84901186666667,78.0,92.0
276,194.07192853333333,194.27401186666668,83.0,94.0
277,194.32192853333333,194.4385952,81.0,88.0
278,194.57192853333333,194.74901186666665,83.0,93.0
279,194.82192853333333,195.01984520000002,74.0,99.0
280,195.07192853333333,195.27192853333332,78.0,94.0
281,195.32192853333333,196.51567853333336,76.0,96.0
282,196.82192853333333,196.9635952,74.0,97.0
283,197.07192853333333,197.2448452,76.0,94.0
284,197.32192853333333,197.90526186666665,78.0,92.0
285,198.07192853333333,198.2448452,83.0,92.0
286,198.32192853333333,198.4948452,81.0,94.0
287,198.57192853333333,198.7135952,83.0,92.0
288,198.82192853333333,199.03026186666665,78.0,94.0
289,199.07192853333333,199.32192853333333,74.0,95.0
290,199.32192853333333,200.47817853333333,71.0,92.0
291,200.82192853333333,201.0448452,71.0,94.0
292,201.07192853333333,201.22401186666667,81.0,95.0
293,201.32192853333333,201.90317853333335,78.0,92.0
294,202.07192853333333,202.26151186666664,83.0,92.0
295,202.32192853333333,202.75526186666667,81.0,92.0
296,202.82192853333333,203.07192853333333,81.0,91.0
297,203.07192853333333,203.32192853333333,78.0,91.0
298,203.32192853333333,204.3698452,76.0,91.0
299,204.82192853333333,205.06151186666665,78.0,92.0
300,205.07192853333333,205.3448452,79.0,88.0
301,205.32192853333333,205.92609520000002,81.0,94.0
302,206.07192853333333,206.24067853333332,83.0,92.0
303,206.32192853333333,206.49067853333332,78.0,97.0
304,206.57192853333333,206.7823452,79.0,94.0
305,206.82192853333333,207.12192853333335,78.0,91.0
306,207.07192853333333,207.30109520000002,76.0,97.0
307,207.32192853333333,208.4510952,74.0,97.0
308,208.82192853333333,208.97817853333333,74.0,97.0
309,209.07192853333333,209.21776186666665,76.0,96.0
310,209.32192853333333,209.84901186666667,78.0,92.0
311,210.07192853333333,210.27401186666668,83.0,94.0
312,210.32192853333333,210.4385952,81.0,88.0
313,210.57192853333333,210.74901186666665,83.0,93.0
314,210.82192853333333,211.01984520000002,74.0,99.0
315,211.07192853333333,211.27192853333332,78.0,94.0
316,211.32192853333333,212.51567853333336,76.0,96.0
317,212.82192853333333,212.9635952,74.0,97.0
318,213.07192853333333,213.2448452,76.0,94.0
319,213.32192853333333,213.90526186666665,78.0,92.0
320,214.07192853333333,214.2448452,83.0,92.0
321,214.32192853333333,214.4948452,81.0,94.0
322,214.57192853333333,214.7135952,81.0,92.0
323,214.82192853333333,215.03026186666665,78.0,94.0
324,215.07192853333333,215.32192853333333,74.0,95.0
325,215.32192853333333,216.47817853333333,71.0,92.0
326,216.82192853333333,217.0448452,83.0,94.0
327,217.07192853333333,217.22401186666667,81.0,95.0
328,217.32192853333333,217.90317853333335,78.0,92.0
329,218.07192853333333,218.26151186666664,83.0,92.0
330,218.32192853333333,218.75526186666667,81.0,92.0
331,218.82192853333333,219.07192853333333,81.0,91.0
332,219.07192853333333,219.32192853333333,78.0,91.0
333,219.32192853333333,221.32192853333333,76.0,91.0
334,222.32192853333333,222.77817853333335,76.0,101.0
335,222.82192853333333,223.07192853333333,74.0,92.0
336,223.07192853333333,223.38651186666664,71.0,92.0
337,223.32192853333333,225.7635952,74.0,94.0
