,start,end,pitch,velocity
0,3.841666666666667,4.41875,57.0,92.0
1,3.341666666666667,4.522916666666666,50.0,94.0
2,4.341666666666667,4.53125,62.0,89.0
3,4.341666666666667,4.595833333333333,66.0,83.0
4,6.341666666666667,6.629166666666666,59.0,89.0
5,5.841666666666667,6.76875,54.0,73.0
6,5.341666666666667,6.935416666666667,47.0,91.0
7,6.841666666666667,7.429166666666666,59.0,89.0
8,6.341666666666667,7.45625,66.0,79.0
9,8.341666666666667,8.5625,55.0,87.0
10,7.841666666666667,9.052083333333334,50.0,82.0
11,7.341666666666667,9.1375,43.0,90.0
12,8.841666666666667,9.389583333333333,55.0,84.0
13,8.341666666666667,9.872916666666667,62.0,89.0
14,9.841666666666667,10.458333333333334,52.0,89.0
15,10.341666666666667,10.854166666666666,61.0,99.0
16,9.341666666666667,11.114583333333334,45.0,89.0
17,10.591666666666667,11.122916666666667,52.0,88.0
18,10.841666666666667,11.145833333333334,57.0,91.0
19,11.091666666666667,11.222916666666666,61.0,87.0
20,11.341666666666667,11.60625,57.0,85.0
21,11.341666666666667,11.90625,61.0,84.0
22,11.841666666666667,12.554166666666667,57.0,94.0
23,12.091666666666667,12.61875,61.0,97.0
24,11.341666666666667,12.85625,42.0,91.0
25,11.591666666666667,12.891666666666666,49.0,88.0
26,12.841666666666667,13.147916666666667,57.0,90.0
27,13.091666666666667,13.233333333333333,61.0,86.0
28,12.591666666666667,13.389583333333333,66.0,99.0
29,13.341666666666667,13.69375,59.0,85.0
30,13.341666666666667,13.889583333333333,62.0,90.0
31,13.841666666666667,14.21875,59.0,92.0
32,13.591666666666667,14.727083333333333,54.0,85.0
33,13.341666666666667,14.841666666666667,47.0,89.0
34,14.091666666666667,14.956249999999999,62.0,92.0
35,14.841666666666667,15.18125,66.0,97.0
36,15.091666666666667,15.270833333333334,59.0,88.0
37,15.341666666666667,15.658333333333333,59.0,83.0
38,15.341666666666667,15.8875,64.0,90.0
39,15.591666666666667,16.797916666666666,47.0,76.0
40,15.341666666666667,16.879166666666666,40.0,92.0
41,15.841666666666667,17.08125,59.0,90.0
42,16.091666666666665,17.091666666666665,64.0,97.0
43,16.341666666666665,17.160416666666666,67.0,93.0
44,17.341666666666665,18.085416666666667,57.0,77.0
45,17.341666666666665,18.089583333333334,62.0,80.0
46,17.841666666666665,19.170833333333334,45.0,73.0
47,17.341666666666665,19.177083333333332,38.0,94.0
48,18.341666666666665,19.195833333333333,66.0,82.0
49,18.341666666666665,19.197916666666668,62.0,84.0
50,18.341666666666665,19.222916666666666,57.0,79.0
51,19.341666666666665,20.004166666666666,38.0,80.0
52,19.341666666666665,20.572916666666668,57.0,68.0
53,19.341666666666665,20.6,62.0,78.0
54,21.341666666666665,21.983333333333334,62.0,88.0
55,21.341666666666665,22.00625,57.0,79.0
56,21.841666666666665,22.7,45.0,73.0
57,22.341666666666665,22.729166666666668,62.0,87.0
58,21.341666666666665,22.745833333333334,38.0,92.0
59,22.341666666666665,22.785416666666666,66.0,83.0
60,22.341666666666665,22.795833333333334,57.0,84.0
61,23.341666666666665,23.902083333333334,66.0,79.0
62,23.341666666666665,23.98125,61.0,81.0
63,24.341666666666665,24.539583333333333,57.0,81.0
64,23.341666666666665,24.591666666666665,42.0,81.0
65,23.841666666666665,24.602083333333333,49.0,69.0
66,24.341666666666665,24.83125,61.0,88.0
67,24.841666666666665,24.96875,57.0,88.0
68,25.341666666666665,26.0625,59.0,84.0
69,25.341666666666665,26.097916666666666,55.0,79.0
70,25.341666666666665,26.60625,43.0,90.0
71,25.841666666666665,26.633333333333333,50.0,78.0
72,26.341666666666665,26.660416666666666,55.0,86.0
73,26.341666666666665,26.8,62.0,87.0
74,27.341666666666665,28.083333333333332,61.0,77.0
75,27.341666666666665,28.141666666666666,57.0,80.0
76,27.841666666666665,28.675,52.0,82.0
77,27.341666666666665,28.735416666666666,45.0,86.0
78,28.341666666666665,28.760416666666668,64.0,91.0
79,28.341666666666665,28.808333333333334,61.0,91.0
80,28.841666666666665,29.516666666666666,57.0,91.0
81,29.341666666666665,30.416666666666668,61.0,89.0
82,29.341666666666665,30.51875,42.0,92.0
83,29.841666666666665,30.535416666666666,49.0,74.0
84,30.341666666666665,31.256249999999998,66.0,93.0
85,31.341666666666665,31.929166666666667,59.0,80.0
86,31.341666666666665,31.99375,62.0,86.0
87,31.841666666666665,32.47291666666666,54.0,80.0
88,32.34166666666667,32.625,62.0,92.0
89,32.59166666666667,32.854166666666664,54.0,70.0
90,31.341666666666665,32.979166666666664,47.0,90.0
91,32.84166666666667,33.37916666666666,61.0,92.0
92,33.34166666666667,34.06019896666667,59.0,87.0
93,33.34166666666667,34.7111105,40.0,91.0
94,33.84166666666667,34.71525643333333,47.0,69.0
95,34.34004946666666,34.75256983333333,55.0,86.0
96,34.34004946666666,34.7732995,59.0,91.0
97,35.335073466666664,36.17669793333333,57.0,79.0
98,35.335073466666664,36.1974276,61.0,78.0
99,36.081341466666665,36.3529001,64.0,88.0
100,35.832585466666664,36.8068798,52.0,86.0
101,36.330097466666665,36.81102573333333,69.0,94.0
102,36.578853466666665,36.9001633,64.0,93.0
103,35.335073466666664,36.91052813333333,45.0,90.0
104,36.827609466666665,37.05978173333333,57.0,91.0
105,37.325121466666666,37.59253416666667,57.0,75.0
106,37.325121466666666,37.8454361,62.0,81.0
107,37.822633466666666,38.1573452,57.0,80.0
108,38.071928533333335,38.228178533333335,62.0,82.0
109,37.325121466666666,38.8510952,38.0,92.0
110,37.573877466666666,38.87401186666667,45.0,78.0
111,38.821928533333335,38.974011866666665,62.0,77.0
112,38.321928533333335,39.1260952,66.0,91.0
113,40.071928533333335,40.386511866666666,61.0,88.0
114,39.821928533333335,40.40942853333333,57.0,86.0
115,39.571928533333335,40.49901186666666,49.0,83.0
116,39.321928533333335,40.609428533333336,42.0,90.0
117,40.571928533333335,40.859428533333336,49.0,77.0
118,40.321928533333335,41.39276186666667,66.0,93.0
119,40.821928533333335,41.4135952,57.0,84.0
120,41.821928533333335,42.4010952,55.0,85.0
121,42.071928533333335,42.4510952,59.0,82.0
122,41.321928533333335,43.1010952,43.0,92.0
123,41.571928533333335,43.15317853333333,50.0,81.0
124,43.071928533333335,43.39692853333334,55.0,88.0
125,42.321928533333335,43.4198452,62.0,86.0
126,43.571928533333335,44.224011866666665,52.0,84.0
127,43.821928533333335,44.3698452,57.0,90.0
128,44.071928533333335,44.54901186666667,61.0,94.0
129,44.321928533333335,44.8010952,52.0,90.0
130,43.321928533333335,44.821928533333335,45.0,92.0
131,44.571928533333335,44.911511866666665,57.0,91.0
132,44.821928533333335,45.328178533333336,64.0,90.0
133,45.321928533333335,45.86151186666667,61.0,81.0
134,45.321928533333335,46.74276186666667,42.0,91.0
135,45.571928533333335,46.76776186666667,49.0,72.0
136,45.821928533333335,46.77401186666667,57.0,88.0
137,46.071928533333335,46.90526186666666,61.0,94.0
138,46.821928533333335,47.328178533333336,66.0,83.0
139,47.321928533333335,47.599011866666665,59.0,80.0
140,47.321928533333335,47.8448452,62.0,88.0
141,47.571928533333335,48.5573452,54.0,84.0
142,47.321928533333335,48.7573452,47.0,91.0
143,48.071928533333335,48.8760952,66.0,92.0
144,47.821928533333335,48.890678533333336,59.0,90.0
145,48.821928533333335,49.1885952,62.0,90.0
146,49.321928533333335,49.61776186666667,59.0,84.0
147,49.321928533333335,49.796928533333336,64.0,90.0
148,49.321928533333335,49.884428533333335,40.0,91.0
149,49.571928533333335,49.884428533333335,47.0,83.0
150,49.821928533333335,50.105261866666666,59.0,88.0
151,50.071928533333335,50.3323452,64.0,75.0
152,50.321928533333335,50.61776186666667,57.0,83.0
153,50.571928533333335,50.81567853333333,52.0,83.0
154,50.321928533333335,50.86776186666667,45.0,91.0
155,50.321928533333335,50.86776186666667,61.0,79.0
156,50.821928533333335,51.0323452,57.0,86.0
157,51.321928533333335,51.5948452,57.0,82.0
158,51.321928533333335,51.84067853333333,62.0,85.0
159,51.821928533333335,52.34276186666666,57.0,84.0
160,52.071928533333335,52.61567853333334,62.0,90.0
161,52.571928533333335,52.7448452,64.0,85.0
162,52.821928533333335,53.011511866666666,66.0,90.0
163,51.571928533333335,53.1073452,45.0,79.0
164,51.321928533333335,53.165678533333335,38.0,84.0
165,53.321928533333335,53.52401186666667,57.0,85.0
166,53.321928533333335,53.55942853333333,62.0,88.0
167,53.321928533333335,53.636511866666666,66.0,88.0
168,53.821928533333335,53.942761866666665,62.0,79.0
169,53.571928533333335,54.2760952,45.0,85.0
170,54.071928533333335,54.65526186666666,62.0,92.0
171,54.071928533333335,54.8260952,66.0,93.0
172,54.071928533333335,54.8573452,69.0,92.0
173,54.821928533333335,54.92192853333333,62.0,90.0
174,54.571928533333335,54.949011866666666,45.0,91.0
175,53.321928533333335,54.97192853333333,38.0,95.0
176,55.321928533333335,55.55942853333333,57.0,91.0
177,55.321928533333335,55.7635952,62.0,94.0
178,55.821928533333335,55.9698452,57.0,88.0
179,55.571928533333335,56.25526186666667,45.0,84.0
180,55.321928533333335,56.5573452,38.0,101.0
181,56.071928533333335,56.824011866666666,57.0,92.0
182,56.071928533333335,56.9135952,62.0,93.0
183,56.821928533333335,57.0448452,38.0,90.0
184,57.071928533333335,57.34901186666667,57.0,97.0
185,56.071928533333335,57.4885952,66.0,92.0
186,57.571928533333335,57.91151186666667,59.0,91.0
187,57.821928533333335,57.94276186666667,62.0,82.0
188,57.321928533333335,58.59276186666666,47.0,96.0
189,58.071928533333335,58.86567853333334,59.0,90.0
190,58.821928533333335,59.0135952,54.0,82.0
191,58.071928533333335,59.11567853333334,62.0,92.0
192,59.071928533333335,59.230261866666666,59.0,90.0
193,58.071928533333335,59.290678533333335,66.0,92.0
194,59.321928533333335,59.49692853333333,57.0,90.0
195,59.321928533333335,59.63026186666667,62.0,90.0
196,59.571928533333335,59.95317853333333,57.0,83.0
197,59.821928533333335,59.97192853333333,62.0,83.0
198,60.071928533333335,60.12817853333333,57.0,57.0
199,60.071928533333335,60.228178533333335,62.0,90.0
200,60.071928533333335,60.92817853333334,66.0,91.0
201,59.321928533333335,60.96151186666667,50.0,96.0
202,60.821928533333335,60.978178533333335,62.0,82.0
203,61.071928533333335,61.136511866666666,57.0,38.0
204,61.321928533333335,61.59901186666667,57.0,85.0
205,61.321928533333335,61.88026186666667,64.0,91.0
206,61.821928533333335,61.9948452,57.0,92.0
207,61.571928533333335,62.5885952,52.0,91.0
208,61.321928533333335,62.87192853333333,45.0,91.0
209,62.571928533333335,62.93651186666666,49.0,86.0
210,62.821928533333335,62.98442853333333,52.0,94.0
211,62.071928533333335,63.09067853333333,61.0,101.0
212,63.071928533333335,63.43442853333333,57.0,92.0
213,63.321928533333335,63.8698452,61.0,99.0
214,63.321928533333335,64.51984519999999,42.0,95.0
215,63.571928533333335,64.51984519999999,49.0,85.0
216,63.821928533333335,64.55317853333334,57.0,90.0
217,64.07192853333333,64.6510952,61.0,92.0
218,64.82192853333333,64.9198452,57.0,82.0
219,64.57192853333333,65.26984519999999,66.0,91.0
220,65.32192853333333,65.61567853333334,59.0,86.0
221,65.32192853333333,65.82401186666667,62.0,87.0
222,65.82192853333333,65.9510952,59.0,91.0
223,66.07192853333333,66.38026186666667,59.0,91.0
224,66.07192853333333,66.52401186666667,66.0,83.0
225,65.57192853333333,66.64901186666667,54.0,85.0
226,66.57192853333333,66.7635952,59.0,87.0
227,65.32192853333333,66.79692853333333,47.0,92.0
228,66.57192853333333,66.89276186666666,62.0,90.0
229,66.82192853333333,67.04276186666667,59.0,87.0
230,67.32192853333333,67.59901186666667,55.0,85.0
231,67.32192853333333,67.80942853333333,59.0,90.0
232,67.82192853333333,68.1823452,55.0,86.0
233,68.07192853333333,68.33026186666666,59.0,94.0
234,67.57192853333333,68.6073452,50.0,86.0
235,68.32192853333333,68.67401186666666,62.0,92.0
236,68.57192853333333,68.8448452,55.0,85.0
237,67.32192853333333,68.93442853333333,43.0,91.0
238,68.82192853333333,69.03651186666667,50.0,91.0
239,69.07192853333333,69.20942853333334,55.0,91.0
240,69.32192853333333,69.65317853333333,57.0,88.0
241,69.82192853333333,69.95734519999999,57.0,92.0
242,70.07192853333333,70.19901186666667,61.0,99.0
243,69.57192853333333,70.40942853333334,52.0,94.0
244,70.32192853333333,70.6073452,57.0,91.0
245,70.32192853333333,70.63026186666667,61.0,104.0
246,70.32192853333333,70.70526186666666,64.0,99.0
247,69.32192853333333,71.0073452,45.0,94.0
248,70.57192853333333,71.15734520000001,52.0,101.0
249,70.82192853333333,71.19276186666667,57.0,101.0
250,71.32192853333333,71.46151186666667,57.0,94.0
251,71.32192853333333,71.6323452,62.0,94.0
252,71.57192853333333,71.94276186666667,57.0,91.0
253,71.82192853333333,71.9948452,62.0,86.0
254,72.07192853333333,72.63651186666667,66.0,99.0
255,72.57192853333333,72.85942853333333,62.0,91.0
256,71.32192853333333,72.98026186666667,50.0,101.0
257,72.82192853333333,72.99067853333332,57.0,91.0
258,73.32192853333333,73.60942853333333,59.0,90.0
259,73.32192853333333,73.68859520000001,62.0,90.0
260,73.82192853333333,73.94276186666667,59.0,92.0
261,73.57192853333333,74.1635952,54.0,91.0
262,74.07192853333333,74.39901186666667,59.0,92.0
263,74.07192853333333,74.4948452,66.0,91.0
264,74.57192853333333,74.73026186666667,62.0,92.0
265,74.57192853333333,74.76567853333333,59.0,90.0
266,73.32192853333333,74.79067853333333,47.0,92.0
267,75.57192853333333,75.9510952,57.0,91.0
268,75.82192853333333,75.99067853333332,62.0,88.0
269,76.07192853333333,76.40734520000001,57.0,90.0
270,76.07192853333333,76.4448452,62.0,91.0
271,76.07192853333333,76.79276186666667,66.0,99.0
272,75.32192853333333,76.82192853333333,50.0,94.0
273,76.57192853333333,76.82817853333333,62.0,85.0
274,76.82192853333333,76.95942853333332,57.0,76.0
275,77.32192853333333,77.59067853333333,57.0,85.0
276,77.32192853333333,77.65734520000001,64.0,91.0
277,77.82192853333333,78.28026186666666,57.0,91.0
278,78.07192853333333,78.38442853333333,61.0,91.0
279,78.32192853333333,78.62192853333333,69.0,92.0
280,77.57192853333333,78.74276186666667,52.0,91.0
281,78.57192853333333,78.8073452,64.0,99.0
282,77.32192853333333,78.84067853333333,45.0,91.0
283,78.82192853333333,78.99901186666666,57.0,91.0
284,79.32192853333333,79.56359520000001,57.0,86.0
285,79.32192853333333,79.87192853333333,61.0,89.0
286,79.82192853333333,80.23442853333333,57.0,90.0
287,79.32192853333333,80.56567853333334,42.0,92.0
288,79.57192853333333,80.56776186666667,49.0,78.0
289,80.07192853333333,80.60942853333333,61.0,93.0
290,80.82192853333333,80.9510952,57.0,79.0
291,80.57192853333333,81.31151186666666,66.0,94.0
292,81.32192853333333,81.59901186666667,59.0,84.0
293,81.32192853333333,81.83651186666667,62.0,85.0
294,81.82192853333333,82.19276186666667,59.0,90.0
295,82.07192853333333,82.57192853333333,62.0,91.0
296,81.57192853333333,82.60942853333333,54.0,84.0
297,81.32192853333333,82.8573452,47.0,92.0
298,82.57192853333333,82.87817853333334,66.0,93.0
299,82.82192853333333,82.93859520000001,59.0,88.0
300,83.32192853333333,83.84484520000001,55.0,79.0
301,83.32192853333333,83.86359519999999,59.0,80.0
302,83.32192853333333,83.95526186666666,43.0,91.0
303,84.32192853333333,84.56776186666667,57.0,83.0
304,84.32192853333333,84.77401186666667,61.0,84.0
305,84.57192853333333,84.81776186666667,52.0,88.0
306,84.32192853333333,84.87192853333333,45.0,91.0
307,84.82192853333333,85.23859519999999,57.0,91.0
308,85.07192853333333,85.35942853333333,61.0,90.0
309,85.32192853333333,85.61776186666667,62.0,90.0
310,85.82192853333333,86.19901186666667,57.0,90.0
311,86.07192853333333,86.62817853333334,62.0,86.0
312,86.82192853333333,87.10526186666667,62.0,83.0
313,85.57192853333333,87.15526186666666,45.0,78.0
314,85.32192853333333,87.17401186666666,38.0,94.0
315,87.07192853333333,87.19276186666667,57.0,80.0
316,86.57192853333333,87.23026186666667,66.0,97.0
317,87.32192853333333,87.51567853333333,57.0,82.0
318,87.32192853333333,87.80942853333333,62.0,85.0
319,87.82192853333333,87.9635952,57.0,89.0
320,87.57192853333333,88.64901186666667,45.0,82.0
321,87.32192853333333,88.66776186666667,38.0,93.0
322,88.07192853333333,88.70526186666666,62.0,97.0
323,88.07192853333333,88.73651186666666,57.0,93.0
324,89.32192853333333,89.53026186666666,57.0,77.0
325,89.32192853333333,89.90942853333334,61.0,84.0
326,90.07192853333333,91.13026186666667,61.0,80.0
327,89.82192853333333,91.1823452,57.0,78.0
328,91.32192853333333,91.59067853333333,57.0,84.0
329,91.32192853333333,91.98859519999999,61.0,85.0
330,91.32192853333333,92.1198452,66.0,86.0
331,89.57192853333333,92.4448452,49.0,79.0
332,89.32192853333333,92.72817853333333,42.0,90.0
333,92.57192853333333,92.79067853333333,49.0,78.0
334,92.32192853333333,92.84484520000001,61.0,101.0
335,92.82192853333333,92.96776186666666,57.0,87.0
336,93.32192853333333,93.58442853333332,59.0,81.0
337,93.32192853333333,93.82401186666667,62.0,85.0
338,93.82192853333333,94.7010952,59.0,88.0
339,94.07192853333333,94.94276186666667,66.0,77.0
340,93.57192853333333,95.5698452,54.0,76.0
341,95.32192853333333,95.92609519999999,59.0,79.0
342,95.32192853333333,96.03026186666666,62.0,86.0
343,95.82192853333333,96.4635952,54.0,48.0
344,96.32192853333333,96.63026186666667,62.0,81.0
345,93.32192853333333,96.64901186666667,47.0,90.0
346,96.32192853333333,96.67192853333333,66.0,77.0
347,96.32192853333333,96.69901186666667,59.0,83.0
348,97.32192853333333,98.06359520000001,64.0,88.0
349,97.32192853333333,98.1323452,67.0,80.0
350,97.32192853333333,98.14692853333332,59.0,82.0
351,98.32192853333333,98.51776186666666,64.0,90.0
352,98.32192853333333,98.53442853333334,67.0,86.0
353,97.32192853333333,98.55109519999999,40.0,90.0
354,97.82192853333333,98.55526186666667,47.0,71.0
355,98.32192853333333,98.5760952,59.0,86.0
356,99.32192853333333,99.6323452,55.0,84.0
357,99.32192853333333,99.89901186666667,62.0,86.0
358,99.82192853333333,100.42401186666666,55.0,85.0
359,100.07192853333333,100.42817853333332,59.0,90.0
360,100.32192853333333,100.81567853333334,62.0,84.0
361,99.57192853333333,100.83026186666666,50.0,81.0
362,99.32192853333333,100.89276186666666,43.0,89.0
363,101.32192853333333,101.94901186666667,52.0,86.0
364,101.32192853333333,101.9698452,55.0,86.0
365,101.82192853333333,102.40942853333333,47.0,79.0
366,101.32192853333333,102.5135952,40.0,92.0
367,102.32192853333333,102.61776186666667,52.0,91.0
368,102.32192853333333,102.63651186666667,55.0,90.0
369,102.32192853333333,102.70942853333334,59.0,91.0
370,103.32192853333333,104.1198452,61.0,91.0
371,103.32192853333333,104.13442853333333,57.0,90.0
372,104.07192853333333,104.18651186666666,64.0,90.0
373,103.82192853333333,104.39901186666667,52.0,94.0
374,104.32192853333333,104.60317853333333,57.0,92.0
375,104.32192853333333,104.62192853333333,61.0,94.0
376,103.32192853333333,104.63442853333333,45.0,91.0
377,104.32192853333333,104.6573452,64.0,97.0
378,104.57192853333333,104.7323452,52.0,101.0
379,104.32192853333333,104.74901186666666,69.0,91.0
380,104.82192853333333,104.9635952,57.0,97.0
381,105.32192853333333,105.82817853333333,66.0,97.0
382,105.82192853333333,106.17192853333333,57.0,90.0
383,106.07192853333333,106.3698452,62.0,86.0
384,106.32192853333333,106.6260952,64.0,96.0
385,106.57192853333333,106.83026186666666,62.0,92.0
386,105.57192853333333,107.13442853333333,45.0,85.0
387,105.32192853333333,107.16151186666667,38.0,96.0
388,106.82192853333333,107.19901186666667,57.0,91.0
389,107.07192853333333,107.3760952,62.0,90.0
390,107.32192853333333,108.04276186666667,66.0,95.0
391,107.82192853333333,108.24067853333334,57.0,92.0
392,108.07192853333333,108.33026186666666,62.0,93.0
393,107.57192853333333,108.58026186666666,45.0,81.0
394,107.32192853333333,108.59067853333333,38.0,94.0
395,108.32192853333333,108.6010952,64.0,94.0
396,108.57192853333333,108.8010952,62.0,96.0
397,108.82192853333333,109.14067853333333,57.0,92.0
398,109.07192853333333,109.3698452,62.0,90.0
399,109.32192853333333,109.8198452,66.0,91.0
400,109.82192853333333,110.29067853333333,57.0,92.0
401,110.07192853333333,110.34901186666667,61.0,91.0
402,110.32192853333333,110.64692853333334,66.0,96.0
403,110.57192853333333,110.8385952,61.0,96.0
404,109.32192853333333,111.01151186666667,42.0,92.0
405,109.57192853333333,111.18026186666667,49.0,80.0
406,110.82192853333333,111.20942853333334,57.0,91.0
407,111.32192853333333,111.8510952,62.0,83.0
408,111.82192853333333,112.1510952,59.0,94.0
409,112.07192853333333,112.60317853333333,62.0,91.0
410,112.32192853333333,112.8385952,54.0,89.0
411,112.57192853333333,112.89901186666667,59.0,91.0
412,111.32192853333333,112.9823452,47.0,93.0
413,112.82192853333333,113.1323452,62.0,95.0
414,113.07192853333333,113.3698452,66.0,96.0
415,113.82192853333333,114.22817853333333,55.0,91.0
416,114.07192853333333,114.35942853333333,59.0,92.0
417,113.57192853333333,114.4385952,50.0,84.0
418,114.32192853333333,114.84067853333333,62.0,95.0
419,113.32192853333333,115.13442853333333,43.0,90.0
420,114.82192853333333,115.2198452,55.0,92.0
421,114.57192853333333,115.2323452,50.0,86.0
422,115.07192853333333,115.26151186666667,62.0,82.0
423,115.32192853333333,115.88651186666667,58.0,91.0
424,115.32192853333333,115.89692853333334,55.0,90.0
425,116.07192853333333,116.26567853333333,58.0,91.0
426,115.82192853333333,116.34692853333333,62.0,91.0
427,115.57192853333333,116.8760952,50.0,91.0
428,116.57192853333333,116.9323452,62.0,92.0
429,115.32192853333333,117.1198452,43.0,92.0
430,116.82192853333333,117.17192853333333,58.0,97.0
431,117.07192853333333,117.2948452,55.0,91.0
432,116.32192853333333,117.39276186666666,67.0,92.0
433,117.82192853333333,118.1448452,57.0,96.0
434,118.07192853333333,118.33651186666667,62.0,91.0
435,118.32192853333333,118.8823452,64.0,90.0
436,118.57192853333333,118.91151186666667,57.0,84.0
437,118.82192853333333,119.0323452,61.0,93.0
438,117.57192853333333,119.14692853333334,52.0,89.0
439,117.32192853333333,119.15526186666666,45.0,95.0
440,119.07192853333333,119.3010952,57.0,83.0
441,119.32192853333333,120.0448452,69.0,80.0
442,119.32192853333333,120.1635952,61.0,76.0
443,119.32192853333333,120.17192853333333,64.0,81.0
444,119.32192853333333,120.2073452,57.0,76.0
445,119.32192853333333,120.6385952,45.0,91.0
446,120.32192853333333,121.1948452,61.0,78.0
447,120.82192853333333,121.20317853333333,57.0,73.0
448,120.32192853333333,121.23442853333333,64.0,87.0
449,121.32192853333333,121.9635952,62.0,88.0
450,121.32192853333333,121.98651186666666,57.0,79.0
451,121.82192853333333,122.68026186666667,45.0,73.0
452,122.32192853333333,122.70942853333334,62.0,87.0
453,121.32192853333333,122.7260952,38.0,92.0
454,122.32192853333333,122.76567853333333,66.0,83.0
455,122.32192853333333,122.7760952,57.0,84.0
456,123.32192853333333,123.8823452,66.0,79.0
457,123.32192853333333,123.96151186666667,61.0,81.0
458,124.32192853333333,124.5198452,57.0,81.0
459,123.32192853333333,124.57192853333333,42.0,81.0
460,123.82192853333333,124.5823452,49.0,69.0
461,124.32192853333333,124.81151186666666,61.0,88.0
462,124.82192853333333,124.94901186666667,57.0,88.0
463,125.32192853333333,126.04276186666667,59.0,84.0
464,125.32192853333333,126.07817853333333,55.0,79.0
465,125.32192853333333,126.58651186666667,43.0,90.0
466,125.82192853333333,126.6135952,50.0,78.0
467,126.32192853333333,126.64067853333333,55.0,86.0
468,126.32192853333333,126.78026186666666,62.0,87.0
469,127.32192853333333,128.0635952,61.0,77.0
470,127.32192853333333,128.12192853333335,57.0,80.0
471,127.82192853333333,128.65526186666665,52.0,82.0
472,127.32192853333333,128.71567853333335,45.0,86.0
473,128.32192853333333,128.74067853333332,64.0,91.0
474,128.32192853333333,128.7885952,61.0,91.0
475,128.82192853333333,129.49692853333335,57.0,91.0
476,129.32192853333333,130.39692853333332,61.0,89.0
477,129.32192853333333,130.49901186666665,42.0,92.0
478,129.82192853333333,130.51567853333333,49.0,74.0
479,130.32192853333333,131.23651186666666,66.0,93.0
480,131.32192853333333,131.9094285333333,59.0,80.0
481,131.32192853333333,131.97401186666667,62.0,86.0
482,131.82192853333333,132.45317853333333,54.0,80.0
483,132.32192853333333,132.60526186666667,62.0,92.0
484,132.57192853333333,132.83442853333332,54.0,70.0
485,131.32192853333333,132.95942853333332,47.0,90.0
486,132.82192853333333,133.35942853333333,61.0,92.0
487,133.32192853333333,134.04067853333333,59.0,87.0
488,133.32192853333333,134.6948452,40.0,91.0
489,133.82192853333333,134.69901186666667,47.0,69.0
490,134.32192853333333,134.73651186666666,55.0,86.0
491,134.32192853333333,134.7573452,59.0,91.0
492,135.32192853333333,136.16776186666667,57.0,79.0
493,135.32192853333333,136.1885952,61.0,78.0
494,136.07192853333333,136.3448452,64.0,88.0
495,135.82192853333333,136.80109520000002,52.0,86.0
496,136.32192853333333,136.80526186666668,69.0,94.0
497,136.57192853333333,136.89484520000002,64.0,93.0
498,135.32192853333333,136.90526186666665,45.0,90.0
499,136.82192853333333,137.05526186666668,57.0,91.0
500,137.32192853333333,137.59067853333335,57.0,75.0
501,137.32192853333333,137.8448452,62.0,81.0
502,137.82192853333333,138.1573452,57.0,80.0
503,138.07192853333333,138.22817853333333,62.0,82.0
504,137.32192853333333,138.8510952,38.0,92.0
505,137.57192853333333,138.87401186666665,45.0,78.0
506,138.82192853333333,138.97401186666667,62.0,77.0
507,138.32192853333333,139.1260952,66.0,91.0
508,140.07192853333333,140.38651186666667,61.0,88.0
509,139.82192853333333,140.4094285333333,57.0,86.0
510,139.57192853333333,140.49901186666665,49.0,83.0
511,139.32192853333333,140.60942853333333,42.0,90.0
512,140.57192853333333,140.85942853333333,49.0,77.0
513,140.32192853333333,141.39276186666666,66.0,93.0
514,140.82192853333333,141.4135952,57.0,84.0
515,141.82192853333333,142.4010952,55.0,85.0
516,142.07192853333333,142.4510952,59.0,82.0
517,141.32192853333333,143.1010952,43.0,92.0
518,141.57192853333333,143.15317853333335,50.0,81.0
519,143.07192853333333,143.39692853333332,55.0,88.0
520,142.32192853333333,143.4198452,62.0,86.0
521,143.57192853333333,144.22401186666667,52.0,84.0
522,143.82192853333333,144.3698452,57.0,90.0
523,144.07192853333333,144.54901186666666,61.0,94.0
524,144.32192853333333,144.8010952,52.0,90.0
525,143.32192853333333,144.82192853333333,45.0,92.0
526,144.57192853333333,144.91151186666667,57.0,91.0
527,144.82192853333333,145.32817853333333,64.0,90.0
528,145.32192853333333,145.86151186666666,61.0,81.0
529,145.32192853333333,146.74276186666668,42.0,91.0
530,145.57192853333333,146.76776186666666,49.0,72.0
531,145.82192853333333,146.77401186666668,57.0,88.0
532,146.07192853333333,146.90526186666665,61.0,94.0
533,146.82192853333333,147.32817853333333,66.0,83.0
534,147.32192853333333,147.59901186666667,59.0,80.0
535,147.32192853333333,147.8448452,62.0,88.0
536,147.57192853333333,148.5573452,54.0,84.0
537,147.32192853333333,148.7573452,47.0,91.0
538,148.07192853333333,148.8760952,66.0,92.0
539,147.82192853333333,148.89067853333333,59.0,90.0
540,148.82192853333333,149.1885952,62.0,90.0
541,149.32192853333333,149.61776186666668,59.0,84.0
542,149.32192853333333,149.79692853333333,64.0,90.0
543,149.32192853333333,149.88442853333333,40.0,91.0
544,149.57192853333333,149.88442853333333,47.0,83.0
545,149.82192853333333,150.10526186666667,59.0,88.0
546,150.07192853333333,150.3323452,64.0,75.0
547,150.32192853333333,150.61776186666668,57.0,83.0
548,150.57192853333333,150.8156785333333,52.0,83.0
549,150.32192853333333,150.86776186666668,45.0,91.0
550,150.32192853333333,150.86776186666668,61.0,79.0
551,150.82192853333333,151.0323452,57.0,86.0
552,151.32192853333333,151.5948452,57.0,82.0
553,151.32192853333333,151.84067853333335,62.0,85.0
554,151.82192853333333,152.34276186666665,57.0,84.0
555,152.07192853333333,152.61567853333332,62.0,90.0
556,152.57192853333333,152.7448452,64.0,85.0
557,152.82192853333333,153.01151186666667,66.0,90.0
558,151.57192853333333,153.1073452,45.0,79.0
559,151.32192853333333,153.16567853333333,38.0,84.0
560,153.32192853333333,153.52401186666668,57.0,85.0
561,153.32192853333333,153.55942853333335,62.0,88.0
562,153.32192853333333,153.63651186666667,66.0,88.0
563,153.82192853333333,153.94276186666667,62.0,79.0
564,153.57192853333333,154.2760952,45.0,85.0
565,154.07192853333333,154.65526186666665,62.0,92.0
566,154.07192853333333,154.8260952,66.0,93.0
567,154.07192853333333,154.8573452,69.0,92.0
568,154.82192853333333,154.92192853333333,62.0,90.0
569,154.57192853333333,154.94901186666667,45.0,91.0
570,153.32192853333333,154.9719285333333,38.0,95.0
571,155.32192853333333,155.55942853333335,57.0,91.0
572,155.32192853333333,155.7635952,62.0,94.0
573,155.82192853333333,155.9698452,57.0,88.0
574,155.57192853333333,156.25526186666667,45.0,84.0
575,155.32192853333333,156.5573452,38.0,101.0
576,156.07192853333333,156.82401186666667,57.0,92.0
577,156.07192853333333,156.9135952,62.0,93.0
578,156.82192853333333,157.0448452,38.0,90.0
579,157.07192853333333,157.34901186666667,57.0,97.0
580,156.07192853333333,157.4885952,66.0,92.0
581,157.57192853333333,157.91151186666667,59.0,91.0
582,157.82192853333333,157.94276186666667,62.0,82.0
583,157.32192853333333,158.59276186666665,47.0,96.0
584,158.07192853333333,158.86567853333332,59.0,90.0
585,158.82192853333333,159.0135952,54.0,82.0
586,158.07192853333333,159.11567853333332,62.0,92.0
587,159.07192853333333,159.23026186666667,59.0,90.0
588,158.07192853333333,159.29067853333333,66.0,92.0
589,159.32192853333333,159.49692853333335,57.0,90.0
590,159.32192853333333,159.63026186666667,62.0,90.0
591,159.57192853333333,159.95317853333333,57.0,83.0
592,159.82192853333333,159.9719285333333,62.0,83.0
593,160.07192853333333,160.1281785333333,57.0,57.0
594,160.07192853333333,160.22817853333333,62.0,90.0
595,160.07192853333333,160.92817853333332,66.0,91.0
596,159.32192853333333,160.96151186666668,50.0,96.0
597,160.82192853333333,160.97817853333333,62.0,82.0
598,161.07192853333333,161.13651186666667,57.0,38.0
599,161.32192853333333,161.59901186666667,57.0,85.0
600,161.32192853333333,161.88026186666667,64.0,91.0
601,161.82192853333333,161.9948452,57.0,92.0
602,161.57192853333333,162.5885952,52.0,91.0
603,161.32192853333333,162.87192853333335,45.0,91.0
604,162.57192853333333,162.93651186666665,49.0,86.0
605,162.82192853333333,162.98442853333333,52.0,94.0
606,162.07192853333333,163.09067853333335,61.0,101.0
607,163.07192853333333,163.43442853333335,57.0,92.0
608,163.32192853333333,163.8698452,61.0,99.0
609,163.32192853333333,164.5198452,42.0,95.0
610,163.57192853333333,164.5198452,49.0,85.0
611,163.82192853333333,164.55317853333332,57.0,90.0
612,164.07192853333333,164.6510952,61.0,92.0
613,164.82192853333333,164.9198452,57.0,82.0
614,164.57192853333333,165.2698452,66.0,91.0
615,165.32192853333333,165.61567853333332,59.0,86.0
616,165.32192853333333,165.82401186666667,62.0,87.0
617,165.82192853333333,165.9510952,59.0,91.0
618,166.07192853333333,166.38026186666667,59.0,91.0
619,166.07192853333333,166.52401186666668,66.0,83.0
620,165.57192853333333,166.64901186666668,54.0,85.0
621,166.57192853333333,166.7635952,59.0,87.0
622,165.32192853333333,166.79692853333336,47.0,92.0
623,166.57192853333333,166.89276186666666,62.0,90.0
624,166.82192853333333,167.04276186666664,59.0,87.0
625,167.32192853333333,167.59901186666667,55.0,85.0
626,167.32192853333333,167.80942853333335,59.0,90.0
627,167.82192853333333,168.1823452,55.0,86.0
628,168.07192853333333,168.33026186666666,59.0,94.0
629,167.57192853333333,168.6073452,50.0,86.0
630,168.32192853333333,168.67401186666666,62.0,92.0
631,168.57192853333333,168.8448452,55.0,85.0
632,167.32192853333333,168.93442853333335,43.0,91.0
633,168.82192853333333,169.03651186666667,50.0,91.0
634,169.07192853333333,169.20942853333332,55.0,91.0
635,169.32192853333333,169.65317853333335,57.0,88.0
636,169.82192853333333,169.95734520000002,57.0,92.0
637,170.07192853333333,170.19901186666664,61.0,99.0
638,169.57192853333333,170.4094285333333,52.0,94.0
639,170.32192853333333,170.6073452,57.0,91.0
640,170.32192853333333,170.63026186666667,61.0,104.0
641,170.32192853333333,170.70526186666666,64.0,99.0
642,169.32192853333333,171.00734519999997,45.0,94.0
643,170.57192853333333,171.1573452,52.0,101.0
644,170.82192853333333,171.19276186666667,57.0,101.0
645,171.32192853333333,171.46151186666668,57.0,94.0
646,171.32192853333333,171.63234519999997,62.0,94.0
647,171.57192853333333,171.94276186666667,57.0,91.0
648,171.82192853333333,171.9948452,62.0,86.0
649,172.07192853333333,172.63651186666664,66.0,99.0
650,172.57192853333333,172.85942853333336,62.0,91.0
651,171.32192853333333,172.98026186666664,50.0,101.0
652,172.82192853333333,172.99067853333332,57.0,91.0
653,173.32192853333333,173.60942853333336,59.0,90.0
654,173.32192853333333,173.6885952,62.0,90.0
655,173.82192853333333,173.94276186666667,59.0,92.0
656,173.57192853333333,174.16359519999997,54.0,91.0
657,174.07192853333333,174.39901186666668,59.0,92.0
658,174.07192853333333,174.4948452,66.0,91.0
659,174.57192853333333,174.73026186666664,62.0,92.0
660,174.57192853333333,174.76567853333336,59.0,90.0
661,173.32192853333333,174.79067853333333,47.0,92.0
662,175.57192853333333,175.9510952,57.0,91.0
663,175.82192853333333,175.99067853333332,62.0,88.0
664,176.07192853333333,176.4073452,57.0,90.0
665,176.07192853333333,176.44484519999997,62.0,91.0
666,176.07192853333333,176.79276186666664,66.0,99.0
667,175.32192853333333,176.82192853333333,50.0,94.0
668,176.57192853333333,176.82817853333336,62.0,85.0
669,176.82192853333333,176.95942853333332,57.0,76.0
670,177.32192853333333,177.59067853333335,57.0,85.0
671,177.32192853333333,177.6573452,64.0,91.0
672,177.82192853333333,178.28026186666665,57.0,91.0
673,178.07192853333333,178.38442853333333,61.0,91.0
674,178.32192853333333,178.62192853333335,69.0,92.0
675,177.57192853333333,178.74276186666668,52.0,91.0
676,178.57192853333333,178.8073452,64.0,99.0
677,177.32192853333333,178.84067853333335,45.0,91.0
678,178.82192853333333,178.99901186666665,57.0,91.0
679,179.32192853333333,179.5635952,57.0,86.0
680,179.32192853333333,179.87192853333335,61.0,89.0
681,179.82192853333333,180.23442853333336,57.0,90.0
682,179.32192853333333,180.5656785333333,42.0,92.0
683,179.57192853333333,180.56776186666667,49.0,78.0
684,180.07192853333333,180.60942853333336,61.0,93.0
685,180.82192853333333,180.9510952,57.0,79.0
686,180.57192853333333,181.31151186666665,66.0,94.0
687,181.32192853333333,181.59901186666667,59.0,84.0
688,181.32192853333333,181.83651186666668,62.0,85.0
689,181.82192853333333,182.19276186666667,59.0,90.0
690,182.07192853333333,182.57192853333333,62.0,91.0
691,181.57192853333333,182.60942853333336,54.0,84.0
692,181.32192853333333,182.8573452,47.0,92.0
693,182.57192853333333,182.8781785333333,66.0,93.0
694,182.82192853333333,182.9385952,59.0,88.0
695,183.32192853333333,183.8448452,55.0,79.0
696,183.32192853333333,183.86359520000002,59.0,80.0
697,183.32192853333333,183.95526186666666,43.0,91.0
698,184.32192853333333,184.56776186666667,57.0,83.0
699,184.32192853333333,184.77401186666668,61.0,84.0
700,184.57192853333333,184.81776186666667,52.0,88.0
701,184.32192853333333,184.87192853333335,45.0,91.0
702,184.82192853333333,185.23859520000002,57.0,91.0
703,185.07192853333333,185.35942853333336,61.0,90.0
704,185.32192853333333,185.61776186666668,62.0,90.0
705,185.82192853333333,186.19901186666664,57.0,90.0
706,186.07192853333333,186.6281785333333,62.0,86.0
707,186.82192853333333,187.10526186666664,62.0,83.0
708,185.57192853333333,187.15526186666665,45.0,78.0
709,185.32192853333333,187.17401186666666,38.0,94.0
710,187.07192853333333,187.19276186666667,57.0,80.0
711,186.57192853333333,187.23026186666664,66.0,97.0
712,187.32192853333333,187.50942853333333,45.0,91.0
713,187.32192853333333,187.50942853333333,57.0,85.0
714,187.32192853333333,187.51151186666664,61.0,86.0
715,187.32192853333333,187.52817853333335,69.0,90.0
716,187.57192853333333,187.71567853333335,45.0,91.0
717,187.57192853333333,187.7448452,57.0,85.0
718,187.57192853333333,187.7448452,61.0,91.0
719,187.57192853333333,187.7510952,69.0,91.0
720,188.32192853333333,188.89692853333332,57.0,78.0
721,188.32192853333333,188.9698452,61.0,80.0
722,188.32192853333333,189.07401186666664,64.0,87.0
723,188.82192853333333,189.29901186666666,52.0,82.0
724,188.32192853333333,189.30526186666668,45.0,91.0
725,189.32192853333333,189.55942853333335,57.0,91.0
726,189.32192853333333,189.7635952,62.0,94.0
727,189.82192853333333,189.9698452,57.0,88.0
728,189.57192853333333,190.25526186666667,45.0,84.0
729,189.32192853333333,190.5573452,38.0,101.0
730,190.07192853333333,190.82401186666664,57.0,92.0
731,190.07192853333333,190.91359519999997,62.0,93.0
732,190.82192853333333,191.0448452,38.0,90.0
733,191.07192853333333,191.34901186666667,57.0,97.0
734,190.07192853333333,191.48859520000002,66.0,92.0
735,191.57192853333333,191.91151186666667,59.0,91.0
736,191.82192853333333,191.94276186666667,62.0,82.0
737,191.32192853333333,192.59276186666665,47.0,96.0
738,192.07192853333333,192.86567853333332,59.0,90.0
739,192.82192853333333,193.0135952,54.0,82.0
740,192.07192853333333,193.11567853333332,62.0,92.0
741,193.07192853333333,193.23026186666664,59.0,90.0
742,192.07192853333333,193.29067853333333,66.0,92.0
743,193.32192853333333,193.49692853333335,57.0,90.0
744,193.32192853333333,193.63026186666667,62.0,90.0
745,193.57192853333333,193.95317853333336,57.0,83.0
746,193.82192853333333,193.9719285333333,62.0,83.0
747,194.07192853333333,194.1281785333333,57.0,57.0
748,194.07192853333333,194.22817853333333,62.0,90.0
749,194.07192853333333,194.92817853333332,66.0,91.0
750,193.32192853333333,194.96151186666668,50.0,96.0
751,194.82192853333333,194.97817853333333,62.0,82.0
752,195.07192853333333,195.13651186666664,57.0,38.0
753,195.32192853333333,195.59901186666667,57.0,85.0
754,195.32192853333333,195.88026186666667,64.0,91.0
755,195.82192853333333,195.9948452,57.0,92.0
756,195.57192853333333,196.5885952,52.0,91.0
757,195.32192853333333,196.87192853333335,45.0,91.0
758,196.57192853333333,196.93651186666665,49.0,86.0
759,196.82192853333333,196.98442853333336,52.0,94.0
760,196.07192853333333,197.09067853333335,61.0,101.0
761,197.07192853333333,197.43442853333335,57.0,92.0
762,197.32192853333333,197.8698452,61.0,99.0
763,197.32192853333333,198.51984520000002,42.0,95.0
764,197.57192853333333,198.51984520000002,49.0,85.0
765,197.82192853333333,198.55317853333332,57.0,90.0
766,198.07192853333333,198.6510952,61.0,92.0
767,198.82192853333333,198.9198452,57.0,82.0
768,198.57192853333333,199.26984520000002,66.0,91.0
769,199.32192853333333,199.61567853333332,59.0,86.0
770,199.32192853333333,199.82401186666664,62.0,87.0
771,199.82192853333333,199.9510952,59.0,91.0
772,200.07192853333333,200.38026186666667,59.0,91.0
773,200.07192853333333,200.52401186666668,66.0,83.0
774,199.57192853333333,200.64901186666668,54.0,85.0
775,200.57192853333333,200.7635952,59.0,87.0
776,199.32192853333333,200.79692853333336,47.0,92.0
777,200.57192853333333,200.89276186666666,62.0,90.0
778,200.82192853333333,201.04276186666664,59.0,87.0
779,201.32192853333333,201.59901186666667,55.0,85.0
780,201.32192853333333,201.80942853333335,59.0,90.0
781,201.82192853333333,202.1823452,55.0,86.0
782,202.07192853333333,202.33026186666666,59.0,94.0
783,201.57192853333333,202.6073452,50.0,86.0
784,202.32192853333333,202.67401186666666,62.0,92.0
785,202.57192853333333,202.8448452,55.0,85.0
786,201.32192853333333,202.93442853333335,43.0,91.0
787,202.82192853333333,203.03651186666667,50.0,91.0
788,203.07192853333333,203.20942853333332,55.0,91.0
789,203.32192853333333,203.65317853333335,57.0,88.0
790,203.82192853333333,203.95734520000002,57.0,92.0
791,204.07192853333333,204.19901186666664,61.0,99.0
792,203.57192853333333,204.4094285333333,52.0,94.0
793,204.32192853333333,204.6073452,57.0,91.0
794,204.32192853333333,204.63026186666667,61.0,104.0
795,204.32192853333333,204.70526186666666,64.0,99.0
796,203.32192853333333,205.00734519999997,45.0,94.0
797,204.57192853333333,205.1573452,52.0,101.0
798,204.82192853333333,205.19276186666667,57.0,101.0
799,205.32192853333333,205.46151186666668,57.0,94.0
800,205.32192853333333,205.63234519999997,62.0,94.0
801,205.57192853333333,205.94276186666667,57.0,91.0
802,205.82192853333333,205.9948452,62.0,86.0
803,206.07192853333333,206.63651186666664,66.0,99.0
804,206.57192853333333,206.85942853333336,62.0,91.0
805,205.32192853333333,206.98026186666664,50.0,101.0
806,206.82192853333333,206.99067853333332,57.0,91.0
807,207.32192853333333,207.60942853333336,59.0,90.0
808,207.32192853333333,207.6885952,62.0,90.0
809,207.82192853333333,207.94276186666667,59.0,92.0
810,207.57192853333333,208.16359519999997,54.0,91.0
811,208.07192853333333,208.39901186666668,59.0,92.0
812,208.07192853333333,208.4948452,66.0,91.0
813,208.57192853333333,208.73026186666664,62.0,92.0
814,208.57192853333333,208.76567853333336,59.0,90.0
815,207.32192853333333,208.79067853333333,47.0,92.0
816,209.57192853333333,209.9510952,57.0,91.0
817,209.82192853333333,209.99067853333332,62.0,88.0
818,210.07192853333333,210.4073452,57.0,90.0
819,210.07192853333333,210.44484519999997,62.0,91.0
820,210.07192853333333,210.79276186666664,66.0,99.0
821,209.32192853333333,210.82192853333333,50.0,94.0
822,210.57192853333333,210.82817853333336,62.0,85.0
823,210.82192853333333,210.95942853333332,57.0,76.0
824,211.32192853333333,211.59067853333335,57.0,85.0
825,211.32192853333333,211.6573452,64.0,91.0
826,211.82192853333333,212.28026186666665,57.0,91.0
827,212.07192853333333,212.38442853333333,61.0,91.0
828,212.32192853333333,212.62192853333335,69.0,92.0
829,211.57192853333333,212.74276186666668,52.0,91.0
830,212.57192853333333,212.8073452,64.0,99.0
831,211.32192853333333,212.84067853333335,45.0,91.0
832,212.82192853333333,212.99901186666665,57.0,91.0
833,213.32192853333333,213.5635952,57.0,86.0
834,213.32192853333333,213.87192853333335,61.0,89.0
835,213.82192853333333,214.23442853333336,57.0,90.0
836,213.32192853333333,214.5656785333333,42.0,92.0
837,213.57192853333333,214.56776186666667,49.0,78.0
838,214.07192853333333,214.60942853333336,61.0,93.0
839,214.82192853333333,214.9510952,57.0,79.0
840,214.57192853333333,215.31151186666665,66.0,94.0
841,215.32192853333333,215.59901186666667,59.0,84.0
842,215.32192853333333,215.83651186666668,62.0,85.0
843,215.82192853333333,216.19276186666667,59.0,90.0
844,216.07192853333333,216.57192853333333,62.0,91.0
845,215.57192853333333,216.60942853333336,54.0,84.0
846,215.32192853333333,216.8573452,47.0,92.0
847,216.57192853333333,216.8781785333333,66.0,93.0
848,216.82192853333333,216.9385952,59.0,88.0
849,217.32192853333333,217.6281785333333,55.0,86.0
850,217.32192853333333,217.85109519999997,62.0,89.0
851,218.07192853333333,218.48859520000002,62.0,90.0
852,217.82192853333333,218.51776186666666,55.0,90.0
853,217.57192853333333,218.6385952,50.0,83.0
854,218.57192853333333,218.66776186666664,55.0,74.0
855,217.32192853333333,219.1073452,43.0,91.0
856,218.57192853333333,219.14067853333336,62.0,91.0
857,219.07192853333333,219.17609520000002,55.0,92.0
858,218.82192853333333,219.2135952,50.0,89.0
859,218.57192853333333,219.2760952,67.0,90.0
860,219.32192853333333,219.58234520000002,57.0,89.0
861,219.32192853333333,219.64692853333332,61.0,84.0
862,219.82192853333333,220.0010952,57.0,95.0
863,220.07192853333333,220.24067853333332,57.0,85.0
864,220.07192853333333,220.26151186666664,64.0,92.0
865,220.32192853333333,220.45942853333332,64.0,85.0
866,219.57192853333333,220.4823452,52.0,91.0
867,220.32192853333333,220.64484520000002,57.0,89.0
868,220.82192853333333,221.23442853333336,57.0,91.0
869,220.57192853333333,221.24692853333335,52.0,91.0
870,221.07192853333333,221.24901186666665,64.0,85.0
871,219.32192853333333,221.30526186666668,45.0,93.0
872,220.32192853333333,222.45526186666666,69.0,91.0
873,221.32192853333333,222.48859520000002,45.0,92.0
874,221.32192853333333,222.52817853333335,57.0,87.0
875,221.32192853333333,222.52817853333335,64.0,92.0
876,223.79901186666666,224.08026186666666,52.0,84.0
877,224.03859519999997,224.1906785333333,54.0,93.0
878,224.5760952,224.8698452,57.0,90.0
879,224.8156785333333,225.05109520000002,62.0,91.0
880,223.54276186666664,225.1698452,45.0,82.0
881,223.29276186666664,225.20942853333332,38.0,94.0
882,225.04067853333333,225.23651186666666,57.0,81.0
883,225.30942853333335,225.86776186666668,57.0,79.0
884,225.30317853333332,225.87192853333335,62.0,85.0
885,225.30942853333335,225.89276186666666,66.0,81.0
886,225.75734519999997,226.38234519999997,45.0,68.0
887,225.31776186666667,226.4406785333333,38.0,94.0
888,226.3073452,227.25942853333333,62.0,84.0
889,226.3073452,227.39067853333336,57.0,78.0
890,227.81776186666667,228.36151186666666,55.0,88.0
891,228.0635952,228.38234519999997,59.0,84.0
892,227.5760952,228.8760952,50.0,78.0
893,227.32817853333336,228.9323452,43.0,90.0
894,228.31776186666667,229.5135952,62.0,86.0
895,229.6260952,231.60942853333336,52.0,84.0
896,229.34067853333335,231.66567853333333,45.0,91.0
897,229.88442853333333,233.82192853333333,57.0,81.0
898,230.17401186666666,233.83234520000002,61.0,96.0
899,230.49276186666668,233.92609520000002,64.0,89.0
900,230.88026186666667,234.10317853333333,69.0,84.0
901,236.17609520000002,236.56984519999997,45.0,85.0
902,235.9406785333333,236.57817853333336,38.0,94.0
903,236.5885952,236.97401186666667,66.0,75.0
904,236.38442853333333,237.05317853333332,62.0,90.0
905,236.82817853333336,237.14692853333332,69.0,81.0
906,237.11151186666666,237.27401186666668,74.0,79.0
907,237.41359519999997,237.5760952,76.0,90.0
908,237.7323452,237.8698452,78.0,84.0
909,238.1260952,238.2823452,81.0,80.0
910,238.13234519999997,238.29067853333333,74.0,86.0
911,238.5969285333333,238.67817853333332,74.0,64.0
912,238.6594285333333,238.74067853333332,81.0,73.0
913,238.72401186666667,238.82192853333333,86.0,90.0
