,start,end,pitch,velocity
0,26.019377470833334,26.536618470833336,59.0,90.0
1,26.536618470833336,27.053859470833334,58.0,114.0
2,27.053859470833334,27.311402385416667,56.0,92.0
3,27.312479970833333,27.570022885416666,56.0,92.0
4,27.571100470833333,27.829720970833336,56.0,105.0
5,27.829720970833336,28.088341470833335,54.0,100.0
6,28.088341470833335,28.605582470833333,56.0,105.0
7,28.605582470833333,29.12174588541667,63.0,100.0
8,29.122823470833335,30.157305470833336,63.0,105.0
9,30.157305470833336,30.674546470833334,59.0,112.0
10,30.674546470833334,31.191787470833333,63.0,102.0
11,31.191787470833333,31.70795088541667,61.0,100.0
12,31.709028470833335,31.967648970833334,61.0,97.0
13,31.967648970833334,32.22626947083334,59.0,102.0
14,32.22626947083334,32.743510470833336,61.0,102.0
15,32.743510470833336,33.260751470833334,59.0,105.0
16,33.260751470833334,34.29415588541667,56.0,108.0
17,34.29523347083334,34.81247447083334,56.0,105.0
18,34.81247447083334,35.329715470833335,54.0,108.0
19,35.329715470833335,35.588335970833334,56.0,94.0
20,35.588335970833334,35.84587888541667,59.0,85.0
21,35.846956470833334,36.104499385416666,59.0,99.0
22,36.10557697083333,36.36419747083333,59.0,99.0
23,36.36419747083333,36.88143847083334,61.0,102.0
24,36.88143847083334,37.398679470833336,63.0,105.0
25,37.398679470833336,38.43208388541667,61.0,102.0
26,38.43316147083333,38.95040247083333,61.0,111.0
27,38.95040247083333,39.46764347083334,63.0,105.0
28,39.46764347083334,39.72518638541667,66.0,108.0
29,39.72626397083334,39.98380688541667,66.0,105.0
30,39.984884470833336,40.24242738541667,66.0,102.0
31,40.243504970833335,40.502125470833334,66.0,102.0
32,40.502125470833334,41.01936647083333,63.0,105.0
33,41.01936647083333,41.53660747083333,61.0,108.0
34,41.53660747083333,42.571089470833336,63.0,108.0
35,42.571089470833336,43.088330470833334,59.0,90.0
36,43.088330470833334,43.60557147083333,58.0,114.0
37,43.60557147083333,43.863114385416665,56.0,92.0
38,43.86419197083333,44.12173488541667,56.0,92.0
39,44.12281247083334,44.38143297083334,56.0,105.0
40,44.38143297083334,44.64005347083334,54.0,100.0
41,44.64005347083334,45.157294470833335,56.0,105.0
42,45.157294470833335,45.67345788541667,63.0,100.0
43,45.674535470833334,46.70901747083334,63.0,105.0
44,46.70901747083334,47.226258470833336,59.0,112.0
45,47.226258470833336,47.743499470833335,63.0,102.0
46,47.743499470833335,48.00104238541667,61.0,100.0
47,48.002119970833334,48.25966288541667,61.0,100.0
48,48.26074047083333,48.51936097083333,61.0,97.0
49,48.51936097083333,48.77798147083333,59.0,102.0
50,48.77798147083333,49.29522247083334,58.0,102.0
51,49.29522247083334,49.812463470833336,59.0,105.0
52,49.812463470833336,50.845867885416666,56.0,108.0
53,50.84694547083333,51.36418647083334,56.0,105.0
54,51.36418647083334,51.88142747083334,54.0,108.0
55,51.88142747083334,52.140047970833336,56.0,94.0
56,52.140047970833336,52.39759088541667,59.0,85.0
57,52.398668470833336,52.65621138541667,59.0,99.0
58,52.657288970833335,52.915909470833334,59.0,99.0
59,52.915909470833334,53.43315047083333,66.0,102.0
60,53.43315047083333,53.95039147083334,63.0,105.0
61,53.95039147083334,54.98379588541667,61.0,102.0
62,54.984873470833335,55.502114470833334,61.0,111.0
63,55.502114470833334,56.01935547083333,63.0,105.0
64,56.01935547083333,56.53551888541667,66.0,108.0
65,56.53659647083334,57.571078470833335,66.0,111.0
66,57.571078470833335,58.08831947083333,63.0,100.0
67,58.08831947083333,58.86418097083334,61.0,108.0
68,58.86418097083334,59.12280147083334,59.0,105.0
69,59.12280147083334,59.898662970833335,58.0,117.0
70,59.898662970833335,60.157283470833335,59.0,99.0
71,60.157283470833335,63.26072947083333,56.0,108.0
72,63.26072947083333,63.77797047083334,63.0,114.0
73,63.77797047083334,64.29521147083334,66.0,117.0
74,64.29521147083334,64.55275438541666,68.0,105.0
75,64.55383197083333,64.81137488541667,68.0,105.0
76,64.81245247083334,65.07107297083334,68.0,111.0
77,65.07107297083334,65.32969347083333,66.0,111.0
78,65.32969347083333,65.84693447083333,68.0,114.0
79,65.84693447083333,66.36417547083333,71.0,105.0
80,66.36417547083333,67.39757988541668,70.0,111.0
81,67.39865747083334,67.91589847083334,70.0,108.0
82,67.91589847083334,68.43313947083334,68.0,111.0
83,68.43313947083334,68.69068238541666,66.0,100.0
84,68.69175997083333,68.94930288541667,66.0,105.0
85,68.95038047083334,69.20900097083333,66.0,111.0
86,69.20900097083333,69.46762147083334,63.0,114.0
87,69.46762147083334,69.98486247083333,66.0,117.0
88,69.98486247083333,70.50210347083333,70.0,108.0
89,70.50210347083333,71.53658547083333,68.0,108.0
90,71.53658547083333,72.05382647083334,63.0,114.0
91,72.05382647083334,72.57106747083334,66.0,108.0
92,72.57106747083334,72.82861038541667,68.0,97.0
93,72.82968797083333,73.08723088541667,68.0,102.0
94,73.08830847083334,73.34692897083333,68.0,108.0
95,73.34692897083333,73.60554947083334,66.0,108.0
96,73.60554947083334,74.12279047083334,63.0,111.0
97,74.12279047083334,74.38141097083334,59.0,102.0
98,74.38141097083334,74.64003147083334,63.0,97.0
99,74.64003147083334,75.67343588541667,61.0,84.0
100,75.67451347083333,76.19175447083333,61.0,111.0
101,76.19175447083333,76.70899547083333,63.0,97.0
102,76.70899547083333,76.96653838541667,66.0,100.0
103,76.96761597083334,77.22515888541668,66.0,102.0
104,77.22623647083334,77.48485697083333,66.0,102.0
105,77.48485697083333,77.74347747083334,63.0,100.0
106,77.74347747083334,78.00209797083333,66.0,105.0
107,78.00209797083333,78.26071847083334,68.0,105.0
108,78.26071847083334,78.77795947083334,66.0,105.0
109,78.77795947083334,79.81136388541667,63.0,111.0
110,79.81244147083333,80.32968247083333,63.0,105.0
111,80.32968247083333,80.84692347083333,66.0,105.0
112,80.84692347083333,81.10446638541667,68.0,105.0
113,81.10554397083334,81.36308688541666,68.0,94.0
114,81.36416447083333,81.62278497083334,68.0,108.0
115,81.62278497083334,81.88140547083334,66.0,111.0
116,81.88140547083334,82.39864647083334,68.0,114.0
117,82.39864647083334,82.91588747083334,71.0,105.0
118,82.91588747083334,83.94929188541667,70.0,108.0
119,83.95036947083334,84.46761047083334,70.0,111.0
120,84.46761047083334,84.98485147083333,68.0,108.0
121,84.98485147083333,85.24239438541667,66.0,97.0
122,85.24347197083334,85.50101488541667,66.0,97.0
123,85.50209247083333,85.76071297083334,66.0,105.0
124,85.76071297083334,86.01933347083333,63.0,105.0
125,86.01933347083333,86.27795397083334,66.0,108.0
126,86.27795397083334,86.53657447083334,68.0,92.0
127,86.53657447083334,87.05381547083334,70.0,102.0
128,87.05381547083334,88.08829747083334,68.0,111.0
129,88.08829747083334,88.60553847083334,63.0,105.0
130,88.60553847083334,89.12277947083334,66.0,111.0
131,89.12277947083334,89.38032238541668,68.0,102.0
132,89.38139997083334,89.63894288541667,68.0,100.0
133,89.64002047083333,89.89864097083334,68.0,97.0
134,89.89864097083334,90.15726147083333,66.0,111.0
135,90.15726147083333,90.67450247083333,63.0,108.0
136,90.67450247083333,90.93312297083334,59.0,102.0
137,90.93312297083334,91.19174347083333,63.0,102.0
138,91.19174347083333,92.22514788541667,61.0,108.0
139,92.22622547083334,92.74346647083334,61.0,114.0
140,92.74346647083334,93.26070747083334,63.0,102.0
141,93.26070747083334,93.77687088541667,66.0,97.0
142,93.77794847083334,94.81243047083333,66.0,100.0
143,94.81243047083333,95.32967147083333,63.0,108.0
144,95.32967147083333,96.10553297083334,66.0,92.0
145,96.10553297083334,96.36415347083334,63.0,111.0
146,96.36415347083334,96.62277397083334,66.0,102.0
147,96.62277397083334,97.14001497083333,68.0,111.0
148,97.14001497083333,97.39863547083334,66.0,100.0
149,97.39863547083334,100.34475400000001,68.0,111.0
150,117.05379347083334,117.57103447083334,59.0,90.0
151,117.57103447083334,118.08827547083334,58.0,114.0
152,118.08827547083334,118.34581838541668,56.0,92.0
153,118.34689597083334,118.60443888541667,56.0,92.0
154,118.60551647083334,118.86413697083334,56.0,105.0
155,118.86413697083334,119.12275747083333,54.0,100.0
156,119.12275747083333,119.63999847083333,56.0,105.0
157,119.63999847083333,120.15616188541667,63.0,100.0
158,120.15723947083333,121.19172147083334,63.0,105.0
159,121.19172147083334,121.70896247083334,59.0,112.0
160,121.70896247083334,122.22620347083334,63.0,102.0
161,122.22620347083334,122.74236688541667,61.0,100.0
162,122.74344447083334,123.00206497083335,61.0,97.0
163,123.00206497083335,123.26068547083334,59.0,102.0
164,123.26068547083334,123.77792647083334,61.0,102.0
165,123.77792647083334,124.29516747083333,59.0,105.0
166,124.29516747083333,125.32857188541666,56.0,108.0
167,125.32964947083333,125.84689047083334,56.0,105.0
168,125.84689047083334,126.36413147083334,54.0,108.0
169,126.36413147083334,126.62275197083333,56.0,94.0
170,126.62275197083333,126.88029488541667,59.0,85.0
171,126.88137247083334,127.13891538541667,59.0,99.0
172,127.13999297083333,127.39861347083334,59.0,99.0
173,127.39861347083334,127.91585447083334,61.0,102.0
174,127.91585447083334,128.43309547083334,63.0,105.0
175,128.43309547083334,129.46649988541668,61.0,102.0
176,129.46757747083333,129.98481847083335,61.0,111.0
177,129.98481847083335,130.50205947083333,63.0,105.0
178,130.50205947083333,130.75960238541668,66.0,108.0
179,130.76067997083334,131.01822288541666,66.0,105.0
180,131.01930047083334,131.27684338541667,66.0,102.0
181,131.27792097083335,131.53654147083333,66.0,102.0
182,131.53654147083333,132.05378247083334,63.0,105.0
183,132.05378247083334,132.57102347083332,61.0,108.0
184,132.57102347083332,133.60550547083335,63.0,108.0
185,133.60550547083335,134.12274647083333,59.0,90.0
186,134.12274647083333,134.63998747083335,58.0,114.0
187,134.63998747083335,134.89753038541667,56.0,92.0
188,134.89860797083332,135.15615088541668,56.0,92.0
189,135.15722847083333,135.41584897083334,56.0,105.0
190,135.41584897083334,135.67446947083334,54.0,100.0
191,135.67446947083334,136.19171047083333,56.0,105.0
192,136.19171047083333,136.70787388541666,63.0,100.0
193,136.70895147083334,137.74343347083334,63.0,105.0
194,137.74343347083334,138.26067447083335,59.0,112.0
195,138.26067447083335,138.77791547083334,63.0,102.0
196,138.77791547083334,139.03545838541666,61.0,100.0
197,139.03653597083334,139.29407888541667,61.0,100.0
198,139.29515647083335,139.55377697083333,61.0,97.0
199,139.55377697083333,139.81239747083333,59.0,102.0
200,139.81239747083333,140.32963847083334,58.0,102.0
201,140.32963847083334,140.84687947083333,59.0,105.0
202,140.84687947083333,141.88028388541667,56.0,108.0
203,141.88136147083333,142.39860247083334,56.0,105.0
204,142.39860247083334,142.91584347083335,54.0,108.0
205,142.91584347083335,143.17446397083333,56.0,94.0
206,143.17446397083333,143.43200688541668,59.0,85.0
207,143.43308447083334,143.69062738541666,59.0,99.0
208,143.69170497083334,143.95032547083335,59.0,99.0
209,143.95032547083335,144.46756647083333,66.0,102.0
210,144.46756647083333,144.98480747083335,63.0,105.0
211,144.98480747083335,146.01821188541666,61.0,102.0
212,146.01928947083334,146.53653047083333,61.0,111.0
213,146.53653047083333,147.05377147083334,63.0,105.0
214,147.05377147083334,147.56993488541667,66.0,108.0
215,147.57101247083335,148.60549447083335,66.0,111.0
216,148.60549447083335,149.12273547083333,63.0,100.0
217,149.12273547083333,149.89859697083335,61.0,108.0
218,149.89859697083335,150.15721747083333,59.0,105.0
219,150.15721747083333,150.93307897083335,58.0,117.0
220,150.93307897083335,151.19169947083333,59.0,99.0
221,151.19169947083333,154.29514547083335,56.0,108.0
222,154.29514547083335,154.81238647083333,63.0,114.0
223,154.81238647083333,155.32962747083334,66.0,117.0
224,155.32962747083334,155.58717038541667,68.0,105.0
225,155.58824797083335,155.84579088541668,68.0,105.0
226,155.84686847083333,156.10548897083333,68.0,111.0
227,156.10548897083333,156.36410947083334,66.0,111.0
228,156.36410947083334,156.88135047083333,68.0,114.0
229,156.88135047083333,157.39859147083334,71.0,105.0
230,157.39859147083334,158.43199588541668,70.0,111.0
231,158.43307347083334,158.95031447083335,70.0,108.0
232,158.95031447083335,159.46755547083333,68.0,111.0
233,159.46755547083333,159.7250983854167,66.0,100.0
234,159.72617597083334,159.98371888541666,66.0,105.0
235,159.98479647083334,160.24341697083335,66.0,111.0
236,160.24341697083335,160.50203747083333,63.0,114.0
237,160.50203747083333,161.01927847083334,66.0,117.0
238,161.01927847083334,161.53651947083333,70.0,108.0
239,161.53651947083333,162.57100147083335,68.0,108.0
240,162.57100147083335,163.08824247083334,63.0,114.0
241,163.08824247083334,163.60548347083335,66.0,108.0
242,163.60548347083335,163.86302638541667,68.0,97.0
243,163.86410397083333,164.12164688541668,68.0,102.0
244,164.12272447083333,164.38134497083334,68.0,108.0
245,164.38134497083334,164.63996547083335,66.0,108.0
246,164.63996547083335,165.15720647083333,63.0,111.0
247,165.15720647083333,165.41582697083334,59.0,102.0
248,165.41582697083334,165.67444747083334,63.0,97.0
249,165.67444747083334,166.7078518854167,61.0,84.0
250,166.70892947083334,167.22617047083335,61.0,111.0
251,167.22617047083335,167.74341147083334,63.0,97.0
252,167.74341147083334,168.00095438541666,66.0,100.0
253,168.00203197083334,168.25957488541667,66.0,102.0
254,168.26065247083335,168.51927297083333,66.0,102.0
255,168.51927297083333,168.77789347083333,63.0,100.0
256,168.77789347083333,169.03651397083334,66.0,105.0
257,169.03651397083334,169.29513447083335,68.0,105.0
258,169.29513447083335,169.81237547083333,66.0,105.0
259,169.81237547083333,170.84577988541668,63.0,111.0
260,170.84685747083333,171.36409847083334,63.0,105.0
261,171.36409847083334,171.88133947083335,66.0,105.0
262,171.88133947083335,172.13888238541668,68.0,105.0
263,172.13995997083333,172.39750288541669,68.0,94.0
264,172.39858047083334,172.65720097083334,68.0,108.0
265,172.65720097083334,172.91582147083335,66.0,111.0
266,172.91582147083335,173.43306247083333,68.0,114.0
267,173.43306247083333,173.95030347083335,71.0,105.0
268,173.95030347083335,174.98370788541666,70.0,108.0
269,174.98478547083334,175.50202647083333,70.0,111.0
270,175.50202647083333,176.01926747083334,68.0,108.0
271,176.01926747083334,176.27681038541667,66.0,97.0
272,176.27788797083335,176.53543088541667,66.0,97.0
273,176.53650847083335,176.79512897083333,66.0,105.0
274,176.79512897083333,177.05374947083334,63.0,105.0
275,177.05374947083334,177.31236997083334,66.0,108.0
276,177.31236997083334,177.57099047083335,68.0,92.0
277,177.57099047083335,178.08823147083334,70.0,102.0
278,178.08823147083334,179.12271347083333,68.0,111.0
279,179.12271347083333,179.63995447083335,63.0,105.0
280,179.63995447083335,180.15719547083333,66.0,111.0
281,180.15719547083333,180.41473838541668,68.0,102.0
282,180.41581597083334,180.67335888541666,68.0,100.0
283,180.67443647083334,180.93305697083335,68.0,97.0
284,180.93305697083335,181.19167747083333,66.0,111.0
285,181.19167747083333,181.70891847083334,63.0,108.0
286,181.70891847083334,181.96753897083335,59.0,102.0
287,181.96753897083335,182.22615947083335,63.0,102.0
288,182.22615947083335,183.25956388541667,61.0,108.0
289,183.26064147083335,183.77788247083333,61.0,114.0
290,183.77788247083333,184.29512347083335,63.0,102.0
291,184.29512347083335,184.81128688541668,66.0,97.0
292,184.81236447083333,185.84684647083333,66.0,100.0
293,185.84684647083333,186.36408747083334,63.0,108.0
294,186.36408747083334,187.13994897083333,66.0,92.0
295,187.13994897083333,187.39856947083334,63.0,111.0
296,187.39856947083334,187.65718997083334,66.0,102.0
297,187.65718997083334,188.17443097083333,68.0,111.0
298,188.17443097083333,188.43305147083333,66.0,100.0
299,188.43305147083333,191.53649747083335,68.0,111.0
300,191.53649747083335,192.05373847083334,63.0,114.0
301,192.05373847083334,192.57097947083335,66.0,117.0
302,192.57097947083335,192.82852238541668,68.0,105.0
303,192.82959997083333,193.08714288541668,68.0,105.0
304,193.08822047083333,193.34684097083334,68.0,111.0
305,193.34684097083334,193.60546147083335,66.0,111.0
306,193.60546147083335,194.12270247083333,68.0,114.0
307,194.12270247083333,194.63994347083334,71.0,105.0
308,194.63994347083334,195.67334788541666,70.0,111.0
309,195.67442547083334,196.19166647083335,70.0,108.0
310,196.19166647083335,196.70890747083334,68.0,111.0
311,196.70890747083334,196.96645038541666,66.0,100.0
312,196.96752797083334,197.22507088541667,66.0,105.0
313,197.22614847083335,197.48476897083333,66.0,111.0
314,197.48476897083333,197.74338947083334,63.0,114.0
315,197.74338947083334,198.26063047083335,66.0,117.0
316,198.26063047083335,198.77787147083333,70.0,108.0
317,198.77787147083333,199.81235347083333,68.0,108.0
318,199.81235347083333,200.32959447083334,63.0,114.0
319,200.32959447083334,200.84683547083335,66.0,108.0
320,200.84683547083335,201.10437838541668,68.0,97.0
321,201.10545597083333,201.3629988854167,68.0,102.0
322,201.36407647083334,201.62269697083335,68.0,108.0
323,201.62269697083335,201.88131747083335,66.0,108.0
324,201.88131747083335,202.39855847083334,63.0,111.0
325,202.39855847083334,202.65717897083334,59.0,102.0
326,202.65717897083334,202.91579947083335,63.0,97.0
327,202.91579947083335,203.94920388541667,61.0,84.0
328,203.95028147083335,204.46752247083333,61.0,111.0
329,204.46752247083333,204.98476347083334,63.0,97.0
330,204.98476347083334,205.24230638541667,66.0,100.0
331,205.24338397083335,205.50092688541667,66.0,102.0
332,205.50200447083333,205.76062497083333,66.0,102.0
333,205.76062497083333,206.01924547083334,63.0,100.0
334,206.01924547083334,206.27786597083335,66.0,105.0
335,206.27786597083335,206.53648647083335,68.0,105.0
336,206.53648647083335,207.05372747083334,66.0,105.0
337,207.05372747083334,208.08713188541668,63.0,111.0
338,208.08820947083333,208.60545047083335,63.0,105.0
339,208.60545047083335,209.12269147083333,66.0,105.0
340,209.12269147083333,209.38023438541668,68.0,105.0
341,209.38131197083334,209.63885488541666,68.0,94.0
342,209.63993247083334,209.89855297083335,68.0,108.0
343,209.89855297083335,210.15717347083333,66.0,111.0
344,210.15717347083333,210.67441447083334,68.0,114.0
345,210.67441447083334,211.19165547083335,71.0,105.0
346,211.19165547083335,212.22505988541667,70.0,108.0
347,212.22613747083335,212.74337847083333,70.0,111.0
348,212.74337847083333,213.26061947083335,68.0,108.0
349,213.26061947083335,213.51816238541667,66.0,97.0
350,213.51923997083335,213.77678288541668,66.0,97.0
351,213.77786047083333,214.03648097083334,66.0,105.0
352,214.03648097083334,214.29510147083334,63.0,105.0
353,214.29510147083334,214.55372197083335,66.0,108.0
354,214.55372197083335,214.81234247083333,68.0,92.0
355,214.81234247083333,215.32958347083334,70.0,102.0
356,215.32958347083334,216.36406547083334,68.0,111.0
357,216.36406547083334,216.88130647083335,63.0,105.0
358,216.88130647083335,217.39854747083334,66.0,111.0
359,217.39854747083334,217.65609038541666,68.0,102.0
360,217.65716797083334,217.91471088541667,68.0,100.0
361,217.91578847083335,218.17440897083335,68.0,97.0
362,218.17440897083335,218.43302947083333,66.0,111.0
363,218.43302947083333,218.95027047083335,63.0,108.0
364,218.95027047083335,219.20889097083335,59.0,102.0
365,219.20889097083335,219.46751147083333,63.0,102.0
366,219.46751147083333,220.50091588541667,61.0,108.0
367,220.50199347083336,221.01923447083334,61.0,114.0
368,221.01923447083334,221.53647547083335,63.0,102.0
369,221.53647547083335,222.05263888541668,66.0,97.0
370,222.05371647083334,223.08819847083333,66.0,100.0
371,223.08819847083333,223.60543947083335,63.0,108.0
372,223.60543947083335,224.38130097083334,66.0,92.0
373,224.38130097083334,224.63992147083334,63.0,111.0
374,224.63992147083334,224.89854197083335,66.0,102.0
375,224.89854197083335,225.41578297083333,68.0,111.0
376,225.41578297083333,225.67440347083334,66.0,100.0
377,225.67440347083334,228.62052200000002,68.0,111.0
