,start,end,pitch,velocity
0,2.2262914708333335,2.425644772916667,59.0,99.0
1,2.2262914708333335,2.4418085541666668,56.0,84.0
2,2.2262914708333335,2.4633602625,32.0,100.0
3,2.2262914708333335,2.4633602625,44.0,100.0
4,2.2262914708333335,2.499998166666667,63.0,94.0
5,3.0021529708333334,3.1228425375,54.0,73.0
6,3.0021529708333334,3.1551701000000003,30.0,92.0
7,3.0021529708333334,3.1551701000000003,42.0,92.0
8,3.0021529708333334,3.19719593125,58.0,92.0
9,3.2607734708333336,3.374997525,63.0,2.0
10,3.2607734708333336,3.4773681395833336,32.0,100.0
11,3.2607734708333336,3.4773681395833336,44.0,100.0
12,3.2607734708333336,3.4892215791666668,59.0,72.0
13,3.2607734708333336,3.49460950625,56.0,69.0
14,4.295255470833333,4.484910504166667,56.0,87.0
15,4.295255470833333,4.484910504166667,59.0,102.0
16,4.295255470833333,4.523703579166667,32.0,97.0
17,4.295255470833333,4.523703579166667,44.0,97.0
18,4.295255470833333,4.526936335416667,63.0,94.0
19,5.071116970833334,5.200427220833333,54.0,66.0
20,5.071116970833334,5.221978929166667,30.0,94.0
21,5.071116970833334,5.221978929166667,42.0,94.0
22,5.071116970833334,5.2424530520833335,58.0,78.0
23,5.329737470833334,5.5937458979166665,59.0,90.0
24,5.329737470833334,5.596978654166667,56.0,76.0
25,5.329737470833334,5.60883209375,63.0,89.0
26,5.329737470833334,5.64762516875,32.0,105.0
27,5.329737470833334,5.64762516875,44.0,105.0
28,5.846978470833333,6.321116054166667,56.0,84.0
29,5.846978470833333,6.321116054166667,66.0,100.0
30,5.846978470833333,6.323271225,30.0,92.0
31,5.846978470833333,6.323271225,44.0,92.0
32,6.3642194708333335,6.574348627083333,63.0,89.0
33,6.3642194708333335,6.5808141395833335,66.0,94.0
34,6.3642194708333335,6.60452101875,39.0,100.0
35,6.3642194708333335,6.60452101875,51.0,100.0
36,7.140080970833334,7.275856733333334,37.0,97.0
37,7.140080970833334,7.275856733333334,49.0,97.0
38,7.140080970833334,7.275856733333334,61.0,84.0
39,7.140080970833334,7.29633085625,66.0,80.0
40,7.398701470833333,7.588356504166667,63.0,84.0
41,7.398701470833333,7.60020994375,66.0,94.0
42,7.398701470833333,7.6422357750000005,39.0,97.0
43,7.398701470833333,7.6422357750000005,51.0,97.0
44,8.433183470833333,8.646545383333335,63.0,94.0
45,8.433183470833333,8.661631579166666,66.0,92.0
46,8.433183470833333,8.700424654166667,39.0,100.0
47,8.433183470833333,8.700424654166667,51.0,100.0
48,9.209044970833334,9.341587977083334,61.0,84.0
49,9.209044970833334,9.3426655625,37.0,92.0
50,9.209044970833334,9.3426655625,49.0,92.0
51,9.209044970833334,9.365294856250001,66.0,82.0
52,9.467665470833333,9.807104877083333,66.0,97.0
53,9.467665470833333,9.82434624375,63.0,89.0
54,9.467665470833333,9.851285879166667,39.0,105.0
55,9.467665470833333,9.851285879166667,51.0,105.0
56,9.984906470833334,10.434259589583334,63.0,84.0
57,9.984906470833334,10.440725102083334,66.0,92.0
58,9.984906470833334,10.459044054166666,42.0,108.0
59,9.984906470833334,10.459044054166666,54.0,108.0
60,9.984906470833334,10.46443198125,71.0,87.0
61,10.502147470833334,11.164862502083334,32.0,117.0
62,10.502147470833334,11.164862502083334,44.0,117.0
63,11.278008970833334,11.449345052083334,30.0,111.0
64,11.278008970833334,11.449345052083334,42.0,111.0
65,11.019388470833334,11.50537949375,56.0,111.0
66,11.019388470833334,11.514000177083334,51.0,100.0
67,11.019388470833334,11.571112204166667,59.0,105.0
68,11.536629470833335,12.411628829166666,32.0,117.0
69,11.536629470833335,12.411628829166666,44.0,117.0
70,12.053870470833333,12.511844272916667,56.0,111.0
71,12.053870470833333,12.535551152083334,51.0,92.0
72,12.053870470833333,12.551714933333335,59.0,99.0
73,12.571111470833333,13.2090420375,32.0,114.0
74,12.571111470833333,13.2090420375,44.0,114.0
75,13.088352470833334,13.481671147916668,56.0,111.0
76,13.346972970833335,13.5064556125,30.0,114.0
77,13.346972970833335,13.5064556125,42.0,114.0
78,13.088352470833334,13.52908490625,51.0,94.0
79,13.088352470833334,13.537705589583334,59.0,102.0
80,13.605593470833334,14.145463764583335,32.0,114.0
81,13.605593470833334,14.145463764583335,44.0,114.0
82,14.122834470833334,14.535549685416667,30.0,114.0
83,14.122834470833334,14.535549685416667,42.0,114.0
84,14.122834470833334,14.566799662500001,56.0,97.0
85,14.122834470833334,14.570032418750001,59.0,93.0
86,14.122834470833334,14.60882549375,51.0,89.0
87,14.640075470833334,15.2780060375,27.0,111.0
88,14.640075470833334,15.2780060375,39.0,111.0
89,15.415936970833334,15.554945489583334,25.0,105.0
90,15.415936970833334,15.554945489583334,37.0,105.0
91,15.157316470833335,16.03123824375,51.0,94.0
92,15.157316470833335,16.0409365125,54.0,105.0
93,15.157316470833335,16.05710029375,58.0,105.0
94,15.674557470833333,16.567875781250002,27.0,97.0
95,15.674557470833333,16.567875781250002,39.0,97.0
96,16.191798470833334,16.7392118625,58.0,105.0
97,16.191798470833334,16.7521428875,51.0,94.0
98,16.191798470833334,16.7521428875,54.0,105.0
99,16.709039470833336,17.3469700375,27.0,108.0
100,16.709039470833336,17.3469700375,39.0,108.0
101,17.484900970833333,17.671323247916668,25.0,100.0
102,17.484900970833333,17.671323247916668,37.0,100.0
103,17.226280470833334,17.810331766666668,51.0,100.0
104,17.226280470833334,17.8254179625,58.0,100.0
105,17.226280470833334,17.831883475,54.0,102.0
106,17.743521470833333,18.448262333333336,27.0,114.0
107,17.743521470833333,18.448262333333336,39.0,114.0
108,18.260762470833335,18.56356397291667,51.0,89.0
109,18.260762470833335,18.57326224166667,54.0,102.0
110,18.260762470833335,18.593736364583336,58.0,97.0
111,18.519382970833334,18.75968451875,30.0,114.0
112,18.519382970833334,18.75968451875,42.0,114.0
113,18.778003470833333,19.087270485416667,56.0,80.0
114,18.778003470833333,19.110977364583334,61.0,92.0
115,18.778003470833333,19.119598047916668,52.0,82.0
116,18.778003470833333,19.129296316666668,37.0,94.0
117,18.778003470833333,19.129296316666668,49.0,94.0
118,19.295244470833335,19.473046064583333,37.0,100.0
119,19.295244470833335,19.473046064583333,49.0,100.0
120,19.295244470833335,19.517227066666667,56.0,105.0
121,19.295244470833335,19.559252897916668,61.0,105.0
122,19.295244470833335,19.562485654166668,52.0,93.0
123,19.553864970833335,19.698261416666668,35.0,105.0
124,19.553864970833335,19.698261416666668,47.0,105.0
125,19.812485470833334,20.115286972916667,56.0,92.0
126,19.812485470833334,20.115286972916667,61.0,100.0
127,19.812485470833334,20.1400714375,52.0,90.0
128,19.812485470833334,20.142226608333335,37.0,105.0
129,19.812485470833334,20.142226608333335,49.0,105.0
130,20.329726470833336,20.48597635625,56.0,89.0
131,20.329726470833336,20.501062552083333,37.0,108.0
132,20.329726470833336,20.501062552083333,49.0,108.0
133,20.329726470833336,20.501062552083333,61.0,89.0
134,20.329726470833336,20.507528064583333,52.0,90.0
135,20.588346970833335,20.73597617291667,35.0,105.0
136,20.588346970833335,20.73597617291667,47.0,105.0
137,20.846967470833334,21.171320681250002,54.0,76.0
138,20.846967470833334,21.186406877083336,63.0,89.0
139,20.846967470833334,21.18856204791667,58.0,94.0
140,20.846967470833334,21.49459630625,39.0,108.0
141,20.846967470833334,21.49459630625,51.0,108.0
142,21.364208470833333,21.63468241041667,54.0,105.0
143,21.364208470833333,21.63468241041667,63.0,105.0
144,21.364208470833333,21.637915166666666,58.0,117.0
145,21.622828970833336,21.755371977083335,37.0,108.0
146,21.622828970833336,21.755371977083335,49.0,108.0
147,21.881449470833335,22.18748372916667,63.0,89.0
148,21.881449470833335,22.198259583333336,54.0,87.0
149,21.881449470833335,22.202569925000002,58.0,102.0
150,21.881449470833335,22.572181722916667,39.0,114.0
151,21.881449470833335,22.572181722916667,51.0,114.0
152,22.398690470833333,22.642224775000003,54.0,105.0
153,22.398690470833333,22.645457531250003,63.0,97.0
154,22.398690470833333,22.657310970833333,58.0,117.0
155,22.657310970833333,22.85235393125,37.0,108.0
156,22.657310970833333,22.85235393125,49.0,108.0
157,22.915931470833335,23.244595022916666,63.0,92.0
158,22.915931470833335,23.247827779166666,58.0,76.0
159,22.915931470833335,23.254293291666666,67.0,93.0
160,22.915931470833335,23.572180989583334,39.0,117.0
161,22.915931470833335,23.572180989583334,51.0,117.0
162,23.433172470833334,23.745672241666668,63.0,114.0
163,23.433172470833334,23.7607584375,67.0,116.0
164,23.433172470833334,23.762913608333335,58.0,108.0
165,23.691792970833333,23.8448101,37.0,111.0
166,23.691792970833333,23.8448101,49.0,111.0
167,23.950413470833332,24.121749552083333,43.0,119.0
168,23.950413470833332,24.121749552083333,55.0,119.0
169,24.209033970833335,24.341576977083335,46.0,89.0
170,24.209033970833335,24.341576977083335,58.0,89.0
171,24.467654470833335,24.618516429166668,47.0,108.0
172,24.467654470833335,24.618516429166668,59.0,108.0
173,24.726274970833334,26.077567083333335,51.0,100.0
174,24.726274970833334,26.077567083333335,63.0,100.0
175,27.053859470833334,27.344807533333334,56.0,71.0
176,27.053859470833334,27.393298877083335,59.0,85.0
177,27.053859470833334,27.428859195833333,63.0,80.0
178,27.571100470833333,27.67670384166667,56.0,43.0
179,27.829720970833336,28.571099737500003,63.0,100.0
180,27.829720970833336,28.80062543125,56.0,94.0
181,27.053859470833334,29.024763197916666,44.0,100.0
182,27.312479970833333,29.027995954166666,51.0,60.0
183,29.122823470833335,29.737047158333336,59.0,68.0
184,29.122823470833335,29.76398679375,63.0,82.0
185,29.640064470833334,30.008598683333336,51.0,41.0
186,29.898684970833333,30.044159002083333,56.0,66.0
187,29.898684970833333,30.516141414583334,59.0,102.0
188,29.898684970833333,30.684244739583335,63.0,94.0
189,30.674546470833334,30.933166970833334,56.0,100.0
190,29.122823470833335,31.026916902083336,44.0,89.0
191,30.415925970833335,31.10234788125,51.0,62.0
192,31.191787470833333,31.46549416666667,54.0,94.0
193,31.191787470833333,31.57540787916667,58.0,102.0
194,31.709028470833335,31.874976625000002,54.0,71.0
195,31.450407970833336,32.106657489583334,49.0,58.0
196,31.967648970833334,32.288769425,54.0,84.0
197,31.967648970833334,32.2952349375,58.0,89.0
198,31.967648970833334,32.34911420833333,61.0,94.0
199,32.22626947083334,32.436398627083335,49.0,30.0
200,32.484889970833336,32.57001921875,54.0,97.0
201,32.484889970833336,32.79092422916667,58.0,87.0
202,32.484889970833336,32.878208647916665,61.0,89.0
203,31.191787470833333,32.910536210416666,42.0,100.0
204,32.743510470833336,33.165923954166665,49.0,76.0
205,33.260751470833334,33.884673427083335,56.0,78.0
206,33.260751470833334,33.884673427083335,59.0,65.0
207,33.77799247083333,34.13251807291667,51.0,67.0
208,34.03661297083333,34.54631087291667,56.0,87.0
209,33.260751470833334,34.797388275,44.0,97.0
210,34.03661297083333,34.87605201041667,59.0,102.0
211,34.03661297083333,34.87820718125,63.0,100.0
212,34.55385397083334,34.895448547916665,51.0,84.0
213,34.81247447083334,34.99566399166667,56.0,105.0
214,35.329715470833335,35.60881009375,64.0,48.0
215,35.329715470833335,35.627129045833335,68.0,89.0
216,35.846956470833334,35.96441328125,64.0,77.0
217,35.588335970833334,36.271525125000004,59.0,77.0
218,36.10557697083333,36.53445596666667,64.0,102.0
219,35.329715470833335,36.69286102291667,52.0,96.0
220,36.10557697083333,36.711179975,71.0,63.0
221,36.36419747083333,36.724111,59.0,44.0
222,36.62281797083333,36.932084985416665,68.0,97.0
223,36.62281797083333,36.96225737708333,64.0,87.0
224,37.915920470833335,38.08402379583333,54.0,111.0
225,37.657299970833336,38.239196095833336,49.0,69.0
226,38.174540970833334,38.48380798541667,58.0,105.0
227,38.174540970833334,38.4891959125,61.0,97.0
228,38.174540970833334,38.50967003541667,54.0,94.0
229,38.43316147083333,38.78445431666667,49.0,60.0
230,37.398679470833336,38.8512646125,42.0,97.0
231,38.69178197083333,38.97087659375,54.0,66.0
232,38.69178197083333,38.98273003333333,58.0,89.0
233,38.69178197083333,39.04199723125,61.0,89.0
234,38.95040247083333,39.13359199166667,42.0,33.0
235,39.46764347083334,39.72303121458334,58.0,94.0
236,39.46764347083334,40.076479231250005,63.0,94.0
237,39.984884470833336,40.54199613125,58.0,84.0
238,40.243504970833335,40.62173745208334,66.0,108.0
239,40.760745970833334,41.077556083333334,63.0,94.0
240,39.46764347083334,41.20363357708334,51.0,64.0
241,41.01936647083333,41.22949562708334,58.0,80.0
242,41.53660747083333,41.78876245833334,56.0,80.0
243,41.53660747083333,41.87281412083333,59.0,87.0
244,41.53660747083333,42.09156396041667,63.0,84.0
245,42.05384847083334,42.18962423333333,56.0,62.0
246,41.79522797083334,42.43962405,51.0,60.0
247,42.312468970833336,42.57324464166667,63.0,89.0
248,42.312468970833336,42.600184277083336,56.0,92.0
249,42.571089470833336,42.940701268750004,51.0,64.0
250,42.829709970833335,43.078632202083334,56.0,89.0
251,42.829709970833335,43.509666368750004,59.0,96.0
252,41.53660747083333,43.519364637500004,44.0,94.0
253,43.088330470833334,43.53445083333334,51.0,97.0
254,43.34695097083333,43.58078700625,56.0,105.0
255,43.60557147083333,43.89651953333333,56.0,71.0
256,43.60557147083333,43.945010877083334,59.0,85.0
257,43.60557147083333,43.980571195833335,63.0,80.0
258,44.12281247083334,44.22841584166667,56.0,43.0
259,44.38143297083334,45.1228117375,63.0,100.0
260,44.38143297083334,45.35233743125,56.0,94.0
261,43.60557147083333,45.57647519791667,44.0,100.0
262,43.86419197083333,45.57970795416667,51.0,60.0
263,45.674535470833334,46.288759158333335,59.0,68.0
264,45.674535470833334,46.31569879375,63.0,82.0
265,46.19177647083333,46.560310683333334,51.0,41.0
266,46.45039697083334,46.595871002083335,56.0,66.0
267,46.45039697083334,47.06785341458333,59.0,102.0
268,46.45039697083334,47.23595673958334,63.0,94.0
269,47.226258470833336,47.484878970833336,56.0,100.0
270,45.674535470833334,47.57862890208334,44.0,89.0
271,46.96763797083334,47.65405988125,51.0,62.0
272,47.743499470833335,48.01720616666667,54.0,94.0
273,47.743499470833335,48.12711987916667,58.0,102.0
274,48.26074047083333,48.426688625000004,54.0,71.0
275,48.002119970833334,48.658369489583336,49.0,58.0
276,48.51936097083333,48.840481425,54.0,84.0
277,48.51936097083333,48.8469469375,58.0,89.0
278,48.51936097083333,48.900826208333335,61.0,94.0
279,48.77798147083333,48.98811062708334,49.0,30.0
280,49.03660197083334,49.12173121875,54.0,97.0
281,49.03660197083334,49.34263622916667,58.0,87.0
282,49.03660197083334,49.42992064791667,61.0,89.0
283,47.743499470833335,49.46224821041667,42.0,100.0
284,49.29522247083334,49.71763595416667,49.0,76.0
285,49.812463470833336,50.43638542708334,56.0,78.0
286,49.812463470833336,50.43638542708334,59.0,65.0
287,50.329704470833335,50.68423007291667,51.0,67.0
288,50.588324970833334,51.098022872916665,56.0,87.0
289,49.812463470833336,51.349100275000005,44.0,97.0
290,50.588324970833334,51.42776401041667,59.0,102.0
291,50.588324970833334,51.42991918125,63.0,100.0
292,51.10556597083333,51.44716054791667,51.0,84.0
293,51.36418647083334,51.54737599166667,56.0,105.0
294,51.88142747083334,52.160522093750004,64.0,48.0
295,51.88142747083334,52.17884104583334,68.0,89.0
296,52.398668470833336,52.516125281250005,64.0,77.0
297,52.140047970833336,52.823237125,59.0,77.0
298,52.657288970833335,53.08616796666667,64.0,102.0
299,51.88142747083334,53.24457302291667,52.0,96.0
300,52.657288970833335,53.262891975,71.0,63.0
301,52.915909470833334,53.275823,59.0,44.0
302,53.17452997083333,53.48379698541667,68.0,97.0
303,53.17452997083333,53.513969377083335,64.0,87.0
304,54.46763247083334,54.635735795833334,54.0,111.0
305,54.20901197083334,54.79090809583334,49.0,69.0
306,54.726252970833336,55.03551998541667,58.0,105.0
307,54.726252970833336,55.0409079125,61.0,97.0
308,54.726252970833336,55.06138203541667,54.0,94.0
309,54.984873470833335,55.33616631666667,49.0,60.0
310,53.95039147083334,55.402976612500005,42.0,97.0
311,55.243493970833335,55.52258859375,54.0,66.0
312,55.243493970833335,55.534442033333335,58.0,89.0
313,55.243493970833335,55.59370923125,61.0,89.0
314,55.502114470833334,55.68530399166667,42.0,33.0
315,56.01935547083333,56.27474321458334,58.0,94.0
316,56.01935547083333,56.62819123125,63.0,94.0
317,56.53659647083334,57.093708131250004,58.0,84.0
318,56.79521697083334,57.17344945208333,66.0,108.0
319,57.312457970833336,57.629268083333336,63.0,94.0
320,56.01935547083333,57.75534557708333,51.0,64.0
321,57.571078470833335,57.78120762708333,58.0,80.0
322,58.08831947083333,58.37926753333333,61.0,76.0
323,58.08831947083333,58.60125012916667,64.0,87.0
324,58.08831947083333,58.900818875,49.0,105.0
325,58.60556047083334,58.94176712083333,61.0,114.0
326,58.34693997083333,58.95793090208333,56.0,84.0
327,58.86418097083334,59.071077370833336,64.0,85.0
328,59.38142197083334,59.74025791458334,58.0,89.0
329,59.12280147083334,59.88142160416667,51.0,102.0
330,59.640042470833336,59.987024975000004,63.0,102.0
331,59.898662970833335,60.36094711458333,70.0,84.0
332,60.67452447083333,60.81892091666667,56.0,87.0
333,60.415903970833334,61.00965353541667,51.0,49.0
334,60.93314497083333,61.22409303333333,59.0,99.0
335,60.93314497083333,61.235946472916666,63.0,100.0
336,60.93314497083333,61.239179229166666,56.0,87.0
337,61.19176547083334,61.57538587916667,51.0,76.0
338,61.45038597083334,61.74133403333334,56.0,102.0
339,61.45038597083334,62.02904933958334,63.0,89.0
340,61.70900647083334,62.107713075,51.0,76.0
341,61.96762697083334,62.1206441,56.0,57.0
342,60.157283470833335,62.12495444166667,44.0,100.0
343,62.226247470833336,62.513962777083336,56.0,84.0
344,62.226247470833336,62.56245412083334,59.0,77.0
345,62.226247470833336,62.798445327083336,63.0,94.0
346,62.743488470833334,62.85232459791667,56.0,76.0
347,62.484867970833335,63.08723821875,51.0,66.0
348,63.00210897083333,63.27581566666667,68.0,84.0
349,63.00210897083333,63.30491047291667,56.0,97.0
350,63.00210897083333,63.338315620833335,63.0,97.0
351,63.00210897083333,63.35016906041667,59.0,105.0
352,63.51934997083334,63.68206536875,56.0,100.0
353,63.77797047083334,63.897582452083334,56.0,102.0
354,63.77797047083334,64.16159087916667,63.0,105.0
355,63.77797047083334,64.20038395416667,59.0,102.0
356,64.03659097083333,64.25641839583334,56.0,108.0
357,62.226247470833336,64.31029766666667,44.0,102.0
358,63.26072947083333,64.31784076458334,51.0,87.0
359,64.29521147083334,64.61417675416666,64.0,93.0
360,64.29521147083334,64.693918075,68.0,92.0
361,64.81245247083334,64.9654696,64.0,99.0
362,64.29521147083334,65.16266773125,40.0,92.0
363,64.29521147083334,65.16266773125,52.0,102.0
364,64.55383197083333,65.17452117083333,59.0,52.0
365,65.07107297083334,65.3986589375,64.0,96.0
366,65.07107297083334,65.40727962083334,68.0,102.0
367,65.32969347083333,65.67128804791668,40.0,75.0
368,65.32969347083333,65.67128804791668,52.0,85.0
369,65.32969347083333,65.71115870833333,59.0,79.0
370,65.58831397083334,65.71762422083333,64.0,96.0
371,65.84693447083333,65.99133091666667,68.0,89.0
372,65.84693447083333,65.99671884375,64.0,82.0
373,65.84693447083333,66.038744675,71.0,65.0
374,66.36417547083333,66.66697697291667,61.0,84.0
375,66.36417547083333,66.91913196041666,66.0,89.0
376,66.88141647083333,67.03766635625,61.0,105.0
377,66.62279597083334,67.34154544375001,58.0,100.0
378,67.14003697083334,67.47085569375,61.0,105.0
379,67.14003697083334,67.54844184375,66.0,114.0
380,67.65727797083333,67.70900207083334,66.0,8.0
381,67.65727797083333,67.79305373333334,61.0,94.0
382,67.91589847083334,67.97624325416668,61.0,57.0
383,67.39865747083334,67.97732083958334,58.0,37.0
384,66.36417547083333,68.01072598750001,42.0,92.0
385,66.36417547083333,68.01072598750001,54.0,102.0
386,67.91589847083334,68.11094143125,66.0,97.0
387,67.91589847083334,68.16482070208333,70.0,97.0
388,68.43313947083334,68.71438926458333,63.0,87.0
389,68.43313947083334,68.80921678125,66.0,92.0
390,68.95038047083334,69.03766488958334,63.0,69.0
391,68.69175997083333,69.31244917083333,58.0,87.0
392,69.20900097083333,69.46977664166667,70.0,100.0
393,69.20900097083333,69.49994903333334,63.0,105.0
394,68.43313947083334,69.87063841666667,39.0,84.0
395,68.43313947083334,69.87063841666667,51.0,94.0
396,69.72624197083334,69.97516420208333,63.0,92.0
397,69.72624197083334,70.0021038375,66.0,94.0
398,69.98486247083333,70.05490552291667,39.0,7.0
399,69.98486247083333,70.05490552291667,51.0,17.0
400,69.46762147083334,70.0667589625,58.0,82.0
401,70.24348297083334,70.38249148958333,63.0,94.0
402,70.50210347083333,70.67667230833334,63.0,94.0
403,70.50210347083333,70.84154287708334,68.0,100.0
404,71.01934447083333,71.14542196458333,63.0,94.0
405,70.76072397083334,71.45361139375001,51.0,67.0
406,71.27796497083334,71.52904237291666,63.0,102.0
407,71.27796497083334,71.53658547083333,68.0,111.0
408,71.27796497083334,71.84154214375,71.0,96.0
409,71.79520597083334,71.89973175625,63.0,97.0
410,71.53658547083333,72.05274888541668,51.0,47.0
411,70.50210347083333,72.06244715416668,32.0,90.0
412,70.50210347083333,72.06244715416668,44.0,100.0
413,72.05382647083334,72.15942984166666,68.0,111.0
414,72.05382647083334,72.21546428333333,63.0,108.0
415,72.57106747083334,72.86201553333333,61.0,92.0
416,72.57106747083334,73.17667047500001,68.0,92.0
417,73.08830847083334,73.22731698958333,61.0,82.0
418,73.34692897083333,73.76287694166668,61.0,97.0
419,73.34692897083333,73.92990268125,64.0,109.0
420,73.34692897083333,73.96330782916667,68.0,97.0
421,72.82968797083333,74.16050596041667,56.0,60.0
422,72.57106747083334,74.25748864791667,37.0,90.0
423,72.57106747083334,74.25748864791667,49.0,100.0
424,74.12279047083334,74.26179898958334,61.0,97.0
425,74.12279047083334,74.36632477500001,64.0,105.0
426,74.12279047083334,74.42882472916666,68.0,97.0
427,74.64003147083334,74.95253124166668,54.0,89.0
428,74.64003147083334,75.04197083125,58.0,94.0
429,75.15727247083333,75.30490167291667,54.0,89.0
430,75.41589297083334,75.61093593125,66.0,97.0
431,75.41589297083334,75.71007378958333,54.0,105.0
432,75.93313397083334,76.05705629375001,54.0,89.0
433,75.93313397083334,76.58938348958334,58.0,108.0
434,74.89865197083334,76.62386622291667,37.0,59.0
435,74.89865197083334,76.62386622291667,49.0,69.0
436,76.19175447083333,76.62709897916668,54.0,84.0
437,75.93313397083334,76.63464207708334,61.0,100.0
438,74.64003147083334,76.65834895625001,30.0,90.0
439,74.64003147083334,76.65834895625001,42.0,100.0
440,76.70899547083333,77.04843487708334,63.0,87.0
441,76.70899547083333,77.29089159583333,66.0,97.0
442,77.22623647083334,77.38679669791667,63.0,92.0
443,76.96761597083334,77.62171031875,58.0,94.0
444,77.48485697083333,77.90511528333333,63.0,102.0
445,77.48485697083333,78.00102038541667,66.0,105.0
446,77.48485697083333,78.05489965625,70.0,102.0
447,77.74347747083334,78.36093391458334,58.0,84.0
448,78.26071847083334,78.44714074791666,63.0,108.0
449,76.70899547083333,78.48808899375,39.0,87.0
450,76.70899547083333,78.48808899375,51.0,97.0
451,78.26071847083334,78.52472689791666,66.0,111.0
452,78.51933897083333,78.68205436875,63.0,78.0
453,78.77795947083334,79.0279592875,68.0,97.0
454,78.77795947083334,79.0538213375,63.0,84.0
455,79.29520047083334,79.43420898958334,56.0,100.0
456,79.03657997083333,79.6357174625,51.0,78.0
457,79.55382097083334,79.83614835,59.0,105.0
458,79.55382097083334,79.83938110625,56.0,92.0
459,79.55382097083334,79.83938110625,63.0,105.0
460,80.07106197083334,80.23162219791666,56.0,94.0
461,80.32968247083333,80.79412178541666,59.0,112.0
462,79.81244147083333,80.81567349375,51.0,80.0
463,80.32968247083333,80.81567349375,63.0,111.0
464,80.32968247083333,80.82752693333333,68.0,97.0
465,80.58830297083334,80.831837275,56.0,102.0
466,78.77795947083334,80.83614761666666,32.0,90.0
467,78.77795947083334,80.83614761666666,44.0,100.0
468,80.84692347083333,81.16588875416667,64.0,93.0
469,80.84692347083333,81.24563007500001,68.0,92.0
470,81.36416447083333,81.5171816,64.0,99.0
471,80.84692347083333,81.71437973125,40.0,92.0
472,80.84692347083333,81.71437973125,52.0,102.0
473,81.10554397083334,81.72623317083334,59.0,52.0
474,81.62278497083334,81.9503709375,64.0,96.0
475,81.62278497083334,81.95899162083333,68.0,102.0
476,81.88140547083334,82.22300004791667,40.0,75.0
477,81.88140547083334,82.22300004791667,52.0,85.0
478,81.88140547083334,82.26287070833334,59.0,79.0
479,82.14002597083334,82.26933622083334,64.0,96.0
480,82.39864647083334,82.54304291666666,68.0,89.0
481,82.39864647083334,82.54843084375,64.0,82.0
482,82.39864647083334,82.590456675,71.0,65.0
483,82.91588747083334,83.21868897291667,61.0,84.0
484,82.91588747083334,83.47084396041667,66.0,89.0
485,83.43312847083334,83.58937835625001,61.0,105.0
486,83.17450797083333,83.89325744375,58.0,100.0
487,83.69174897083333,84.02256769375,61.0,105.0
488,83.69174897083333,84.10015384375001,66.0,114.0
489,84.20898997083334,84.26071407083333,66.0,8.0
490,84.20898997083334,84.34476573333333,61.0,94.0
491,84.46761047083334,84.52795525416667,61.0,57.0
492,83.95036947083334,84.52903283958334,58.0,37.0
493,82.91588747083334,84.5624379875,42.0,92.0
494,82.91588747083334,84.5624379875,54.0,102.0
495,84.46761047083334,84.66265343125,66.0,97.0
496,84.46761047083334,84.71653270208334,70.0,97.0
497,84.98485147083333,85.26610126458334,63.0,87.0
498,84.98485147083333,85.36092878125001,66.0,92.0
499,85.50209247083333,85.58937688958333,63.0,69.0
500,85.24347197083334,85.86416117083334,58.0,87.0
501,85.76071297083334,86.02148864166666,70.0,100.0
502,85.76071297083334,86.05166103333333,63.0,105.0
503,84.98485147083333,86.42235041666667,39.0,84.0
504,84.98485147083333,86.42235041666667,51.0,94.0
505,86.27795397083334,86.52687620208334,63.0,92.0
506,86.27795397083334,86.5538158375,66.0,94.0
507,86.53657447083334,86.60661752291666,39.0,7.0
508,86.53657447083334,86.60661752291666,51.0,17.0
509,86.01933347083333,86.6184709625,58.0,82.0
510,86.79519497083334,86.93420348958334,63.0,94.0
511,87.05381547083334,87.22838430833333,63.0,94.0
512,87.05381547083334,87.39325487708334,68.0,100.0
513,87.57105647083334,87.69713396458333,63.0,94.0
514,87.31243597083333,88.00532339375,51.0,67.0
515,87.82967697083333,88.08075437291667,63.0,102.0
516,87.82967697083333,88.08829747083334,68.0,111.0
517,87.82967697083333,88.39325414375,71.0,96.0
518,88.34691797083333,88.45144375625,63.0,97.0
519,88.08829747083334,88.60446088541667,51.0,47.0
520,87.05381547083334,88.61415915416667,32.0,90.0
521,87.05381547083334,88.61415915416667,44.0,100.0
522,88.60553847083334,88.71114184166667,68.0,111.0
523,88.60553847083334,88.76717628333334,63.0,108.0
524,89.12277947083334,89.41372753333334,61.0,92.0
525,89.12277947083334,89.728382475,68.0,92.0
526,89.64002047083333,89.77902898958334,61.0,82.0
527,89.89864097083334,90.31458894166667,61.0,97.0
528,89.89864097083334,90.48161468125001,64.0,109.0
529,89.89864097083334,90.51501982916668,68.0,97.0
530,89.38139997083334,90.71221796041667,56.0,60.0
531,89.12277947083334,90.80920064791667,37.0,90.0
532,89.12277947083334,90.80920064791667,49.0,100.0
533,90.67450247083333,90.81351098958334,61.0,97.0
534,90.67450247083333,90.918036775,64.0,105.0
535,90.67450247083333,90.98053672916667,68.0,97.0
536,91.19174347083333,91.50424324166667,54.0,89.0
537,91.19174347083333,91.59368283125,58.0,94.0
538,91.70898447083334,91.85661367291667,54.0,89.0
539,91.96760497083334,92.16264793125,66.0,97.0
540,91.96760497083334,92.26178578958334,54.0,105.0
541,92.48484597083333,92.60876829375,54.0,89.0
542,92.48484597083333,93.14109548958334,58.0,108.0
543,91.45036397083334,93.17557822291667,37.0,59.0
544,91.45036397083334,93.17557822291667,49.0,69.0
545,92.74346647083334,93.17881097916667,54.0,84.0
546,92.48484597083333,93.18635407708334,61.0,100.0
547,91.19174347083333,93.21006095625,30.0,90.0
548,91.19174347083333,93.21006095625,42.0,100.0
549,93.26070747083334,93.54626760625,63.0,89.0
550,93.26070747083334,93.57859516875,66.0,100.0
551,93.77794847083334,93.91372423333334,63.0,92.0
552,93.51932797083333,94.11631029166666,58.0,67.0
553,94.03656897083334,94.280103275,70.0,100.0
554,94.03656897083334,94.28549120208334,63.0,108.0
555,94.29518947083334,94.71760295416667,58.0,92.0
556,94.55380997083334,94.97406828333334,63.0,108.0
557,94.55380997083334,94.98915447916667,66.0,117.0
558,93.26070747083334,95.17126641458334,39.0,94.0
559,93.26070747083334,95.17126641458334,51.0,102.0
560,95.07105097083334,95.23161119791666,63.0,84.0
561,95.32967147083333,95.86630900833333,66.0,94.0
562,95.32967147083333,95.8900158875,63.0,87.0
563,96.10553297083334,96.45682581666667,70.0,105.0
564,96.10553297083334,96.46005857291667,63.0,108.0
565,95.84691247083333,96.659411875,58.0,60.0
566,95.32967147083333,96.72191182916667,39.0,94.0
567,95.32967147083333,96.72191182916667,51.0,102.0
568,96.62277397083334,96.92773064375001,63.0,97.0
569,96.62277397083334,96.95035993750001,66.0,105.0
570,96.88139447083334,97.01070472083333,58.0,89.0
571,97.14001497083333,97.27255797708334,63.0,87.0
572,97.39863547083334,97.98591952291667,68.0,97.0
573,97.39863547083334,98.00100571875001,63.0,92.0
574,97.91587647083334,98.26716931666667,51.0,64.0
575,98.17449697083333,98.44173815416667,71.0,102.0
576,98.17449697083333,98.44497091041667,63.0,94.0
577,98.43311747083334,98.793031,51.0,73.0
578,98.69173797083334,98.8900136875,63.0,92.0
579,98.69173797083334,98.8900136875,68.0,111.0
580,99.20897897083334,99.27902202291666,63.0,35.0
581,97.39863547083334,99.37169436875,32.0,89.0
582,97.39863547083334,99.37169436875,44.0,97.0
583,99.46759947083333,99.71652170208334,63.0,97.0
584,99.46759947083333,99.74130616666667,68.0,102.0
585,99.98484047083333,100.07859040208334,63.0,80.0
586,99.72621997083334,100.39432292916668,51.0,76.0
587,99.46759947083333,100.43203841875,32.0,92.0
588,99.46759947083333,100.43203841875,44.0,100.0
589,100.24346097083334,101.24453782291667,63.0,108.0
590,100.24346097083334,101.24453782291667,68.0,111.0
591,102.05380447083334,102.18958023333333,56.0,87.0
592,101.53656347083334,102.61630405833334,32.0,87.0
593,102.31242497083333,102.62061440000001,59.0,105.0
594,102.31242497083333,102.64001093750001,63.0,100.0
595,102.31242497083333,102.66695057291668,56.0,100.0
596,101.79518397083334,102.94281243958334,51.0,84.0
597,101.53656347083334,103.435268975,44.0,82.0
598,103.34690697083333,103.64108778958334,39.0,92.0
599,103.34690697083333,103.76069977083334,56.0,73.0
600,103.60552747083334,103.965441,59.0,35.0
601,103.60552747083334,104.1723374,68.0,105.0
602,104.12276847083334,104.22190632916667,56.0,58.0
603,104.38138897083334,104.58828537083333,63.0,92.0
604,104.38138897083334,104.71759562083334,56.0,92.0
605,103.60552747083334,105.18419010625,32.0,73.0
606,103.60552747083334,105.34798308958334,44.0,100.0
607,103.86414797083334,105.36414687083334,51.0,58.0
608,105.67449147083333,106.00423260833334,63.0,49.0
609,105.67449147083333,106.16587042083334,66.0,84.0
610,106.19173247083334,106.27686171875,63.0,46.0
611,105.93311197083334,107.06565424375,58.0,76.0
612,106.45035297083334,107.26500754583334,66.0,105.0
613,106.45035297083334,107.26824030208334,63.0,100.0
614,105.67449147083333,107.31888681666668,39.0,87.0
615,105.67449147083333,107.38785228333333,51.0,102.0
616,107.48483497083333,107.6831106875,63.0,82.0
617,107.48483497083333,107.78224854583334,42.0,87.0
618,107.74345547083334,107.78871405833334,63.0,46.0
619,107.74345547083334,108.31996366875,66.0,71.0
620,107.74345547083334,108.32211883958334,70.0,87.0
621,107.74345547083334,108.41155842916667,51.0,82.0
622,108.26069647083334,108.42879979583334,63.0,66.0
623,108.00207597083333,108.46651528541668,58.0,78.0
624,108.51931697083334,109.46004903958334,66.0,89.0
625,108.51931697083334,109.47836799166667,70.0,89.0
626,108.51931697083334,109.486988675,63.0,89.0
627,107.74345547083334,109.7262126375,39.0,80.0
628,109.81241947083333,110.16371231666668,61.0,76.0
629,109.81241947083333,110.39647076666667,68.0,76.0
630,110.32966047083333,110.44603969583333,61.0,73.0
631,110.07103997083334,110.67341021875,56.0,89.0
632,109.81241947083333,110.80703081041668,37.0,100.0
633,110.58828097083334,110.98375481875,61.0,105.0
634,110.84690147083334,110.98590998958333,56.0,47.0
635,110.58828097083334,111.1486253875,64.0,109.0
636,110.58828097083334,111.17879777916667,68.0,100.0
637,109.81241947083333,111.4654355,49.0,97.0
638,111.10552197083334,111.49237513541667,56.0,64.0
639,111.36414247083334,111.51177167291667,64.0,109.0
640,111.36414247083334,111.52685786875,61.0,102.0
641,111.36414247083334,111.58396989583333,68.0,102.0
642,111.10552197083334,111.78009044166667,37.0,87.0
643,111.88138347083334,112.19065048541667,63.0,92.0
644,111.88138347083334,112.40077964166667,66.0,100.0
645,112.39862447083334,112.51284852500001,63.0,66.0
646,112.14000397083333,112.73052077916667,58.0,80.0
647,112.65724497083333,112.95789130208334,70.0,100.0
648,112.65724497083333,112.96651198541667,66.0,105.0
649,112.65724497083333,112.97728783958334,63.0,97.0
650,111.88138347083334,113.05595157500001,39.0,100.0
651,111.88138347083334,113.23267558333333,51.0,100.0
652,112.91586547083334,113.26392556041667,58.0,82.0
653,113.17448597083333,113.44927025208334,63.0,100.0
654,113.17448597083333,113.51392537708334,66.0,102.0
655,113.43310647083334,113.77470104791666,51.0,94.0
656,113.17448597083333,113.79840792708333,39.0,82.0
657,113.69172697083334,113.935261275,63.0,108.0
658,113.95034747083334,114.22297658125001,51.0,114.0
659,113.95034747083334,114.24452828958334,63.0,97.0
660,113.95034747083334,114.24776104583334,58.0,100.0
661,114.46758847083333,114.82750200000001,58.0,97.0
662,114.46758847083333,114.82750200000001,63.0,102.0
663,114.46758847083333,114.85767439166668,51.0,114.0
664,114.98482947083333,115.15293279583334,58.0,92.0
665,114.98482947083333,115.15293279583334,63.0,102.0
666,114.98482947083333,115.15616555208334,51.0,108.0
667,115.24344997083334,115.39000158750001,39.0,94.0
668,115.24344997083334,115.41801880833334,51.0,108.0
669,115.24344997083334,115.44172568750001,58.0,102.0
670,115.24344997083334,115.44172568750001,63.0,108.0
671,115.76069097083334,117.73590503958334,39.0,100.0
672,115.76069097083334,118.09043064166667,58.0,102.0
673,115.76069097083334,118.11090476458334,63.0,105.0
674,118.08827547083334,118.11090476458334,63.0,80.0
675,115.76069097083334,118.11521510625,51.0,117.0
676,115.76069097083334,118.12599096041667,67.0,99.0
677,118.08827547083334,118.37922353333333,56.0,71.0
678,118.08827547083334,118.42771487708333,59.0,85.0
679,118.60551647083334,118.71111984166667,56.0,43.0
680,118.86413697083334,119.6055157375,63.0,100.0
681,118.86413697083334,119.83504143125,56.0,94.0
682,118.08827547083334,120.05917919791668,44.0,100.0
683,118.34689597083334,120.06241195416668,51.0,60.0
684,120.15723947083333,120.77146315833333,59.0,68.0
685,120.15723947083333,120.79840279375,63.0,82.0
686,120.67448047083334,121.04301468333334,51.0,41.0
687,120.93310097083334,121.07857500208334,56.0,66.0
688,120.93310097083334,121.55055741458334,59.0,102.0
689,120.93310097083334,121.71866073958334,63.0,94.0
690,121.70896247083334,121.96758297083333,56.0,100.0
691,120.15723947083333,122.06133290208334,44.0,89.0
692,121.45034197083334,122.13676388125,51.0,62.0
693,122.22620347083334,122.49991016666667,54.0,94.0
694,122.22620347083334,122.60982387916667,58.0,102.0
695,122.74344447083334,122.90939262500001,54.0,71.0
696,122.48482397083333,123.14107348958333,49.0,58.0
697,123.00206497083335,123.323185425,54.0,84.0
698,123.00206497083335,123.3296509375,58.0,89.0
699,123.00206497083335,123.38353020833334,61.0,94.0
700,123.26068547083334,123.47081462708334,49.0,30.0
701,123.51930597083334,123.60443521875,54.0,97.0
702,123.51930597083334,123.82534022916667,58.0,87.0
703,123.51930597083334,123.91262464791667,61.0,89.0
704,122.22620347083334,123.94495221041667,42.0,100.0
705,123.77792647083334,124.20033995416667,49.0,76.0
706,124.29516747083333,124.91908942708334,56.0,78.0
707,124.29516747083333,124.91908942708334,59.0,65.0
708,124.81240847083333,125.16693407291667,51.0,67.0
709,125.07102897083334,125.58072687291667,56.0,87.0
710,124.29516747083333,125.83180427500001,44.0,97.0
711,125.07102897083334,125.91046801041666,59.0,102.0
712,125.07102897083334,125.91262318125,63.0,100.0
713,125.58826997083334,125.92986454791667,51.0,84.0
714,125.84689047083334,126.03007999166667,56.0,105.0
715,126.36413147083334,126.64322609375,64.0,48.0
716,126.36413147083334,126.66154504583334,68.0,89.0
717,126.88137247083334,126.99882928125001,64.0,77.0
718,126.62275197083333,127.305941125,59.0,77.0
719,127.13999297083333,127.56887196666668,64.0,102.0
720,126.36413147083334,127.72727702291667,52.0,96.0
721,127.13999297083333,127.745595975,71.0,63.0
722,127.39861347083334,127.758527,59.0,44.0
723,127.65723397083333,127.96650098541667,68.0,97.0
724,127.65723397083333,127.99667337708334,64.0,87.0
725,128.95033647083335,129.11843979583332,54.0,111.0
726,128.69171597083334,129.27361209583333,49.0,69.0
727,129.20895697083333,129.51822398541668,58.0,105.0
728,129.20895697083333,129.5236119125,61.0,97.0
729,129.20895697083333,129.54408603541668,54.0,94.0
730,129.46757747083333,129.81887031666668,49.0,60.0
731,128.43309547083334,129.8856806125,42.0,97.0
732,129.72619797083334,130.00529259375,54.0,66.0
733,129.72619797083334,130.01714603333335,58.0,89.0
734,129.72619797083334,130.07641323125,61.0,89.0
735,129.98481847083335,130.16800799166668,42.0,33.0
736,130.50205947083333,130.75744721458335,58.0,94.0
737,130.50205947083333,131.11089523125,63.0,94.0
738,131.01930047083334,131.57641213125,58.0,84.0
739,131.27792097083335,131.65615345208334,66.0,108.0
740,131.79516197083333,132.11197208333334,63.0,94.0
741,130.50205947083333,132.23804957708333,51.0,64.0
742,132.05378247083334,132.26391162708333,58.0,80.0
743,132.57102347083332,132.82317845833333,56.0,80.0
744,132.57102347083332,132.90723012083333,59.0,87.0
745,132.57102347083332,133.1259799604167,63.0,84.0
746,133.08826447083334,133.22404023333334,56.0,62.0
747,132.82964397083333,133.47404005,51.0,60.0
748,133.34688497083334,133.60766064166668,63.0,89.0
749,133.34688497083334,133.63460027708334,56.0,92.0
750,133.60550547083335,133.97511726875,51.0,64.0
751,133.86412597083333,134.11304820208335,56.0,89.0
752,133.86412597083333,134.54408236875,59.0,96.0
753,132.57102347083332,134.5537806375,44.0,94.0
754,134.12274647083333,134.56886683333335,51.0,97.0
755,134.38136697083334,134.61520300625,56.0,105.0
756,134.63998747083335,134.93093553333333,56.0,71.0
757,134.63998747083335,134.97942687708334,59.0,85.0
758,134.63998747083335,135.01498719583333,63.0,80.0
759,135.15722847083333,135.26283184166667,56.0,43.0
760,135.41584897083334,136.1572277375,63.0,100.0
761,135.41584897083334,136.38675343125,56.0,94.0
762,134.63998747083335,136.61089119791666,44.0,100.0
763,134.89860797083332,136.61412395416667,51.0,60.0
764,136.70895147083334,137.32317515833333,59.0,68.0
765,136.70895147083334,137.35011479375,63.0,82.0
766,137.22619247083333,137.59472668333333,51.0,41.0
767,137.48481297083333,137.63028700208335,56.0,66.0
768,137.48481297083333,138.10226941458333,59.0,102.0
769,137.48481297083333,138.27037273958334,63.0,94.0
770,138.26067447083335,138.51929497083333,56.0,100.0
771,136.70895147083334,138.61304490208335,44.0,89.0
772,138.00205397083334,138.68847588125,51.0,62.0
773,138.77791547083334,139.05162216666668,54.0,94.0
774,138.77791547083334,139.16153587916668,58.0,102.0
775,139.29515647083335,139.46110462500002,54.0,71.0
776,139.03653597083334,139.69278548958334,49.0,58.0
777,139.55377697083333,139.874897425,54.0,84.0
778,139.55377697083333,139.8813629375,58.0,89.0
779,139.55377697083333,139.93524220833334,61.0,94.0
780,139.81239747083333,140.02252662708335,49.0,30.0
781,140.07101797083334,140.15614721875,54.0,97.0
782,140.07101797083334,140.37705222916668,58.0,87.0
783,140.07101797083334,140.46433664791667,61.0,89.0
784,138.77791547083334,140.49666421041667,42.0,100.0
785,140.32963847083334,140.75205195416666,49.0,76.0
786,140.84687947083333,141.47080142708333,56.0,78.0
787,140.84687947083333,141.47080142708333,59.0,65.0
788,141.36412047083334,141.71864607291667,51.0,67.0
789,141.62274097083335,142.13243887291668,56.0,87.0
790,140.84687947083333,142.383516275,44.0,97.0
791,141.62274097083335,142.46218001041666,59.0,102.0
792,141.62274097083335,142.46433518125,63.0,100.0
793,142.13998197083333,142.48157654791666,51.0,84.0
794,142.39860247083334,142.58179199166668,56.0,105.0
795,142.91584347083335,143.19493809375,64.0,48.0
796,142.91584347083335,143.21325704583333,68.0,89.0
797,143.43308447083334,143.55054128125002,64.0,77.0
798,143.17446397083333,143.857653125,59.0,77.0
799,143.69170497083334,144.1205839666667,64.0,102.0
800,142.91584347083335,144.27898902291668,52.0,96.0
801,143.69170497083334,144.297307975,71.0,63.0
802,143.95032547083335,144.310239,59.0,44.0
803,144.20894597083333,144.51821298541668,68.0,97.0
804,144.20894597083333,144.54838537708335,64.0,87.0
805,145.50204847083333,145.67015179583333,54.0,111.0
806,145.24342797083335,145.82532409583334,49.0,69.0
807,145.76066897083334,146.06993598541666,58.0,105.0
808,145.76066897083334,146.0753239125,61.0,97.0
809,145.76066897083334,146.09579803541666,54.0,94.0
810,146.01928947083334,146.37058231666668,49.0,60.0
811,144.98480747083335,146.43739261250002,42.0,97.0
812,146.27790997083335,146.55700459375,54.0,66.0
813,146.27790997083335,146.56885803333333,58.0,89.0
814,146.27790997083335,146.62812523125,61.0,89.0
815,146.53653047083333,146.71971999166666,42.0,33.0
816,147.05377147083334,147.30915921458333,58.0,94.0
817,147.05377147083334,147.66260723125,63.0,94.0
818,147.57101247083335,148.12812413125002,58.0,84.0
819,147.82963297083333,148.20786545208333,66.0,108.0
820,148.34687397083334,148.66368408333335,63.0,94.0
821,147.05377147083334,148.78976157708334,51.0,64.0
822,148.60549447083335,148.81562362708334,58.0,80.0
823,149.12273547083333,149.41368353333334,61.0,76.0
824,149.12273547083333,149.63566612916668,64.0,87.0
825,149.12273547083333,149.935234875,49.0,105.0
826,149.63997647083335,149.97618312083333,61.0,114.0
827,149.38135597083334,149.99234690208334,56.0,84.0
828,149.89859697083335,150.10549337083333,64.0,85.0
829,150.41583797083334,150.77467391458333,58.0,89.0
830,150.15721747083333,150.91583760416668,51.0,102.0
831,150.67445847083334,151.02144097500002,63.0,102.0
832,150.93307897083335,151.39536311458335,70.0,84.0
833,151.70894047083334,151.85333691666668,56.0,87.0
834,151.45031997083333,152.04406953541667,51.0,49.0
835,151.96756097083335,152.25850903333333,59.0,99.0
836,151.96756097083335,152.27036247291667,63.0,100.0
837,151.96756097083335,152.27359522916666,56.0,87.0
838,152.22618147083335,152.60980187916667,51.0,76.0
839,152.48480197083333,152.77575003333334,56.0,102.0
840,152.48480197083333,153.06346533958333,63.0,89.0
841,152.74342247083334,153.142129075,51.0,76.0
842,153.00204297083334,153.15506010000001,56.0,57.0
843,151.19169947083333,153.15937044166668,44.0,100.0
844,153.26066347083335,153.54837877708334,56.0,84.0
845,153.26066347083335,153.59687012083333,59.0,77.0
846,153.26066347083335,153.83286132708335,63.0,94.0
847,153.77790447083333,153.88674059791668,56.0,76.0
848,153.51928397083333,154.12165421875,51.0,66.0
849,154.03652497083334,154.31023166666668,68.0,84.0
850,154.03652497083334,154.33932647291667,56.0,97.0
851,154.03652497083334,154.37273162083335,63.0,97.0
852,154.03652497083334,154.38458506041667,59.0,105.0
853,154.55376597083335,154.71648136875,56.0,100.0
854,154.81238647083333,154.93199845208335,56.0,102.0
855,154.81238647083333,155.19600687916667,63.0,105.0
856,154.81238647083333,155.23479995416668,59.0,102.0
857,155.07100697083334,155.29083439583334,56.0,108.0
858,153.26066347083335,155.34471366666668,44.0,102.0
859,154.29514547083335,155.35225676458333,51.0,87.0
860,155.32962747083334,155.64859275416669,64.0,93.0
861,155.32962747083334,155.728334075,68.0,92.0
862,155.84686847083333,155.9998856,64.0,99.0
863,155.32962747083334,156.19708373125002,40.0,92.0
864,155.32962747083334,156.19708373125002,52.0,102.0
865,155.58824797083335,156.20893717083334,59.0,52.0
866,156.10548897083333,156.4330749375,64.0,96.0
867,156.10548897083333,156.44169562083334,68.0,102.0
868,156.36410947083334,156.70570404791667,40.0,75.0
869,156.36410947083334,156.70570404791667,52.0,85.0
870,156.36410947083334,156.74557470833335,59.0,79.0
871,156.62272997083335,156.75204022083335,64.0,96.0
872,156.88135047083333,157.02574691666666,68.0,89.0
873,156.88135047083333,157.03113484375,64.0,82.0
874,156.88135047083333,157.073160675,71.0,65.0
875,157.39859147083334,157.70139297291666,61.0,84.0
876,157.39859147083334,157.95354796041667,66.0,89.0
877,157.91583247083335,158.07208235625,61.0,105.0
878,157.65721197083334,158.37596144375001,58.0,100.0
879,158.17445297083333,158.50527169375002,61.0,105.0
880,158.17445297083333,158.58285784375002,66.0,114.0
881,158.69169397083334,158.74341807083334,66.0,8.0
882,158.69169397083334,158.82746973333334,61.0,94.0
883,158.95031447083335,159.01065925416668,61.0,57.0
884,158.43307347083334,159.01173683958334,58.0,37.0
885,157.39859147083334,159.04514198750002,42.0,92.0
886,157.39859147083334,159.04514198750002,54.0,102.0
887,158.95031447083335,159.14535743125,66.0,97.0
888,158.95031447083335,159.19923670208334,70.0,97.0
889,159.46755547083333,159.74880526458335,63.0,87.0
890,159.46755547083333,159.84363278125,66.0,92.0
891,159.98479647083334,160.07208088958333,63.0,69.0
892,159.72617597083334,160.34686517083333,58.0,87.0
893,160.24341697083335,160.50419264166666,70.0,100.0
894,160.24341697083335,160.53436503333333,63.0,105.0
895,159.46755547083333,160.90505441666667,39.0,84.0
896,159.46755547083333,160.90505441666667,51.0,94.0
897,160.76065797083334,161.00958020208333,63.0,92.0
898,160.76065797083334,161.0365198375,66.0,94.0
899,161.01927847083334,161.08932152291666,39.0,7.0
900,161.01927847083334,161.08932152291666,51.0,17.0
901,160.50203747083333,161.1011749625,58.0,82.0
902,161.27789897083335,161.41690748958334,63.0,94.0
903,161.53651947083333,161.71108830833333,63.0,94.0
904,161.53651947083333,161.87595887708335,68.0,100.0
905,162.05376047083334,162.17983796458333,63.0,94.0
906,161.79513997083333,162.48802739375,51.0,67.0
907,162.31238097083335,162.56345837291667,63.0,102.0
908,162.31238097083335,162.57100147083335,68.0,111.0
909,162.31238097083335,162.87595814375,71.0,96.0
910,162.82962197083333,162.93414775625,63.0,97.0
911,162.57100147083335,163.08716488541668,51.0,47.0
912,161.53651947083333,163.09686315416667,32.0,90.0
913,161.53651947083333,163.09686315416667,44.0,100.0
914,163.08824247083334,163.19384584166667,68.0,111.0
915,163.08824247083334,163.24988028333334,63.0,108.0
916,163.60548347083335,163.89643153333333,61.0,92.0
917,163.60548347083335,164.211086475,68.0,92.0
918,164.12272447083333,164.26173298958335,61.0,82.0
919,164.38134497083334,164.79729294166668,61.0,97.0
920,164.38134497083334,164.96431868125,64.0,109.0
921,164.38134497083334,164.99772382916666,68.0,97.0
922,163.86410397083333,165.19492196041668,56.0,60.0
923,163.60548347083335,165.29190464791668,37.0,90.0
924,163.60548347083335,165.29190464791668,49.0,100.0
925,165.15720647083333,165.29621498958335,61.0,97.0
926,165.15720647083333,165.400740775,64.0,105.0
927,165.15720647083333,165.46324072916667,68.0,97.0
928,165.67444747083334,165.98694724166668,54.0,89.0
929,165.67444747083334,166.07638683125,58.0,94.0
930,166.19168847083333,166.33931767291668,54.0,89.0
931,166.45030897083333,166.64535193125002,66.0,97.0
932,166.45030897083333,166.74448978958333,54.0,105.0
933,166.96754997083335,167.09147229375,54.0,89.0
934,166.96754997083335,167.62379948958335,58.0,108.0
935,165.93306797083335,167.65828222291668,37.0,59.0
936,165.93306797083335,167.65828222291668,49.0,69.0
937,167.22617047083335,167.66151497916667,54.0,84.0
938,166.96754997083335,167.66905807708335,61.0,100.0
939,165.67444747083334,167.69276495625002,30.0,90.0
940,165.67444747083334,167.69276495625002,42.0,100.0
941,167.74341147083334,168.08285087708333,63.0,87.0
942,167.74341147083334,168.32530759583335,66.0,97.0
943,168.26065247083335,168.42121269791667,63.0,92.0
944,168.00203197083334,168.65612631875,58.0,94.0
945,168.51927297083333,168.93953128333334,63.0,102.0
946,168.51927297083333,169.03543638541666,66.0,105.0
947,168.51927297083333,169.08931565625,70.0,102.0
948,168.77789347083333,169.39534991458333,58.0,84.0
949,169.29513447083335,169.48155674791667,63.0,108.0
950,167.74341147083334,169.52250499375,39.0,87.0
951,167.74341147083334,169.52250499375,51.0,97.0
952,169.29513447083335,169.55914289791667,66.0,111.0
953,169.55375497083335,169.71647036875,63.0,78.0
954,169.81237547083333,170.0623752875,68.0,97.0
955,169.81237547083333,170.0882373375,63.0,84.0
956,170.32961647083334,170.46862498958333,56.0,100.0
957,170.07099597083334,170.67013346250002,51.0,78.0
958,170.58823697083335,170.87056435,59.0,105.0
959,170.58823697083335,170.87379710625,56.0,92.0
960,170.58823697083335,170.87379710625,63.0,105.0
961,171.10547797083333,171.26603819791669,56.0,94.0
962,171.36409847083334,171.82853778541667,59.0,112.0
963,170.84685747083333,171.85008949375,51.0,80.0
964,171.36409847083334,171.85008949375,63.0,111.0
965,171.36409847083334,171.86194293333335,68.0,97.0
966,171.62271897083335,171.86625327500002,56.0,102.0
967,169.81237547083333,171.8705636166667,32.0,90.0
968,169.81237547083333,171.8705636166667,44.0,100.0
969,171.88133947083335,172.20030475416667,64.0,93.0
970,171.88133947083335,172.280046075,68.0,92.0
971,172.39858047083334,172.5515976,64.0,99.0
972,171.88133947083335,172.74879573125,40.0,92.0
973,171.88133947083335,172.74879573125,52.0,102.0
974,172.13995997083333,172.76064917083335,59.0,52.0
975,172.65720097083334,172.98478693750002,64.0,96.0
976,172.65720097083334,172.99340762083335,68.0,102.0
977,172.91582147083335,173.25741604791668,40.0,75.0
978,172.91582147083335,173.25741604791668,52.0,85.0
979,172.91582147083335,173.29728670833333,59.0,79.0
980,173.17444197083333,173.30375222083333,64.0,96.0
981,173.43306247083333,173.57745891666667,68.0,89.0
982,173.43306247083333,173.58284684375002,64.0,82.0
983,173.43306247083333,173.624872675,71.0,65.0
984,173.95030347083335,174.25310497291667,61.0,84.0
985,173.95030347083335,174.50525996041668,66.0,89.0
986,174.46754447083333,174.62379435625002,61.0,105.0
987,174.20892397083335,174.92767344375,58.0,100.0
988,174.72616497083334,175.05698369375,61.0,105.0
989,174.72616497083334,175.13456984375,66.0,114.0
990,175.24340597083335,175.29513007083335,66.0,8.0
991,175.24340597083335,175.37918173333335,61.0,94.0
992,175.50202647083333,175.56237125416666,61.0,57.0
993,174.98478547083334,175.56344883958334,58.0,37.0
994,173.95030347083335,175.5968539875,42.0,92.0
995,173.95030347083335,175.5968539875,54.0,102.0
996,175.50202647083333,175.69706943125001,66.0,97.0
997,175.50202647083333,175.75094870208335,70.0,97.0
998,176.01926747083334,176.30051726458333,63.0,87.0
999,176.01926747083334,176.39534478125,66.0,92.0
1000,176.53650847083335,176.62379288958334,63.0,69.0
1001,176.27788797083335,176.89857717083333,58.0,87.0
1002,176.79512897083333,177.05590464166667,70.0,100.0
1003,176.79512897083333,177.08607703333334,63.0,105.0
1004,176.01926747083334,177.45676641666668,39.0,84.0
1005,176.01926747083334,177.45676641666668,51.0,94.0
1006,177.31236997083334,177.56129220208334,63.0,92.0
1007,177.31236997083334,177.58823183750002,66.0,94.0
1008,177.57099047083335,177.64103352291667,39.0,7.0
1009,177.57099047083335,177.64103352291667,51.0,17.0
1010,177.05374947083334,177.65288696250002,58.0,82.0
1011,177.82961097083333,177.96861948958335,63.0,94.0
1012,178.08823147083334,178.26280030833334,63.0,94.0
1013,178.08823147083334,178.42767087708333,68.0,100.0
1014,178.60547247083335,178.73154996458334,63.0,94.0
1015,178.34685197083334,179.03973939375,51.0,67.0
1016,178.86409297083335,179.11517037291668,63.0,102.0
1017,178.86409297083335,179.12271347083333,68.0,111.0
1018,178.86409297083335,179.42767014375002,71.0,96.0
1019,179.38133397083334,179.48585975625,63.0,97.0
1020,179.12271347083333,179.63887688541666,51.0,47.0
1021,178.08823147083334,179.64857515416668,32.0,90.0
1022,178.08823147083334,179.64857515416668,44.0,100.0
1023,179.63995447083335,179.74555784166668,68.0,111.0
1024,179.63995447083335,179.80159228333335,63.0,108.0
1025,180.15719547083333,180.44814353333334,61.0,92.0
1026,180.15719547083333,180.762798475,68.0,92.0
1027,180.67443647083334,180.81344498958333,61.0,82.0
1028,180.93305697083335,181.34900494166666,61.0,97.0
1029,180.93305697083335,181.51603068125002,64.0,109.0
1030,180.93305697083335,181.54943582916667,68.0,97.0
1031,180.41581597083334,181.7466339604167,56.0,60.0
1032,180.15719547083333,181.84361664791666,37.0,90.0
1033,180.15719547083333,181.84361664791666,49.0,100.0
1034,181.70891847083334,181.84792698958333,61.0,97.0
1035,181.70891847083334,181.952452775,64.0,105.0
1036,181.70891847083334,182.01495272916668,68.0,97.0
1037,182.22615947083335,182.53865924166666,54.0,89.0
1038,182.22615947083335,182.62809883125,58.0,94.0
1039,182.74340047083334,182.8910296729167,54.0,89.0
1040,183.00202097083334,183.19706393125,66.0,97.0
1041,183.00202097083334,183.29620178958334,54.0,105.0
1042,183.51926197083333,183.64318429375,54.0,89.0
1043,183.51926197083333,184.17551148958333,58.0,108.0
1044,182.48477997083333,184.20999422291666,37.0,59.0
1045,182.48477997083333,184.20999422291666,49.0,69.0
1046,183.77788247083333,184.21322697916668,54.0,84.0
1047,183.51926197083333,184.22077007708333,61.0,100.0
1048,182.22615947083335,184.24447695625,30.0,90.0
1049,182.22615947083335,184.24447695625,42.0,100.0
1050,184.29512347083335,184.58068360625,63.0,89.0
1051,184.29512347083335,184.61301116875,66.0,100.0
1052,184.81236447083333,184.94814023333333,63.0,92.0
1053,184.55374397083335,185.15072629166667,58.0,67.0
1054,185.07098497083334,185.314519275,70.0,100.0
1055,185.07098497083334,185.31990720208333,63.0,108.0
1056,185.32960547083334,185.7520189541667,58.0,92.0
1057,185.58822597083335,186.00848428333333,63.0,108.0
1058,185.58822597083335,186.02357047916666,66.0,117.0
1059,184.29512347083335,186.20568241458335,39.0,94.0
1060,184.29512347083335,186.20568241458335,51.0,102.0
1061,186.10546697083333,186.26602719791669,63.0,84.0
1062,186.36408747083334,186.90072500833335,66.0,94.0
1063,186.36408747083334,186.92443188750002,63.0,87.0
1064,187.13994897083333,187.49124181666667,70.0,105.0
1065,187.13994897083333,187.4944745729167,63.0,108.0
1066,186.88132847083335,187.693827875,58.0,60.0
1067,186.36408747083334,187.75632782916668,39.0,94.0
1068,186.36408747083334,187.75632782916668,51.0,102.0
1069,187.65718997083334,187.96214664375,63.0,97.0
1070,187.65718997083334,187.98477593750002,66.0,105.0
1071,187.91581047083335,188.04512072083335,58.0,89.0
1072,188.17443097083333,188.30697397708335,63.0,87.0
1073,188.43305147083333,189.02033552291667,68.0,97.0
1074,188.43305147083333,189.03542171875,63.0,92.0
1075,188.95029247083335,189.30158531666666,51.0,64.0
1076,189.20891297083335,189.47615415416666,71.0,102.0
1077,189.20891297083335,189.47938691041668,63.0,94.0
1078,189.46753347083333,189.827447,51.0,73.0
1079,189.72615397083334,189.9244296875,63.0,92.0
1080,189.72615397083334,189.9244296875,68.0,111.0
1081,190.24339497083335,190.31343802291667,63.0,35.0
1082,188.43305147083333,190.40611036875,32.0,89.0
1083,188.43305147083333,190.40611036875,44.0,97.0
1084,190.50201547083333,190.75093770208335,63.0,97.0
1085,190.50201547083333,190.77572216666667,68.0,102.0
1086,191.01925647083334,191.11300640208333,63.0,80.0
1087,190.76063597083333,191.42873892916668,51.0,76.0
1088,190.50201547083333,191.46645441875,32.0,92.0
1089,190.50201547083333,191.46645441875,44.0,100.0
1090,191.27787697083335,192.27895382291666,63.0,108.0
1091,191.27787697083335,192.27895382291666,68.0,111.0
1092,192.57097947083335,192.92227231666666,40.0,89.0
1093,192.82959997083333,192.98046192916667,47.0,7.0
1094,192.57097947083335,193.11947044791668,68.0,89.0
1095,193.08822047083333,193.21429796458335,64.0,84.0
1096,193.34684097083334,194.11731454375,64.0,92.0
1097,193.34684097083334,194.14640935,68.0,102.0
1098,194.63994347083334,194.92550360625,61.0,66.0
1099,194.63994347083334,194.92765877708334,42.0,84.0
1100,194.63994347083334,194.99662424375,66.0,87.0
1101,194.89856397083335,195.03757248958334,49.0,62.0
1102,195.15718447083333,195.33283089375,61.0,105.0
1103,195.41580497083334,195.7757185,61.0,73.0
1104,195.41580497083334,196.18843371458334,70.0,92.0
1105,196.70890747083334,197.11084683125,66.0,58.0
1106,197.22614847083335,197.36192423333335,63.0,102.0
1107,196.96752797083334,197.76494117916667,58.0,78.0
1108,196.70890747083334,197.85007042708335,51.0,89.0
1109,197.48476897083333,198.23369083541667,66.0,105.0
1110,197.48476897083333,198.25308737291667,63.0,94.0
1111,198.77787147083333,199.0795953875,63.0,89.0
1112,198.77787147083333,199.13347465833334,68.0,89.0
1113,199.29511247083335,199.42550030625,63.0,97.0
1114,199.55373297083335,200.48045642916668,71.0,97.0
1115,199.55373297083335,200.50093055208333,63.0,100.0
1116,199.03649197083334,200.52463743125,51.0,60.0
1117,198.77787147083333,200.57420636041667,44.0,80.0
1118,200.84683547083335,201.18088695,61.0,82.0
1119,200.84683547083335,201.41903332708335,64.0,87.0
1120,201.36407647083334,201.51601601458333,61.0,94.0
1121,201.10545597083333,201.73045551250001,56.0,78.0
1122,201.62269697083335,202.23261031666667,61.0,92.0
1123,200.84683547083335,202.44273947291668,49.0,76.0
1124,201.62269697083335,202.46429118125002,68.0,92.0
1125,202.39855847083334,202.64424794583334,64.0,87.0
1126,203.43304047083333,203.74985058333334,54.0,94.0
1127,203.17441997083336,203.81019536666668,49.0,64.0
1128,203.69166097083334,204.11730721041667,61.0,102.0
1129,204.20890197083335,204.38454839375,54.0,84.0
1130,203.95028147083335,204.90717732083334,49.0,66.0
1131,204.46752247083333,204.90933249166667,61.0,92.0
1132,202.91579947083335,204.91687558958333,42.0,89.0
1133,204.72614297083334,204.91903076041666,54.0,97.0
1134,204.46752247083333,204.93950488333334,66.0,97.0
1135,204.98476347083334,205.31558219375,63.0,94.0
1136,204.98476347083334,205.51385791041668,66.0,94.0
1137,205.50200447083333,205.61084059791668,63.0,102.0
1138,205.24338397083335,205.88023695208335,58.0,57.0
1139,205.76062497083333,206.35221936458333,63.0,94.0
1140,206.27786597083335,206.53648647083335,58.0,62.0
1141,205.76062497083333,206.54618473958334,66.0,105.0
1142,204.98476347083334,206.55265025208334,51.0,71.0
1143,206.53648647083335,206.86838277916667,63.0,111.0
1144,206.79510697083333,206.98799476041668,66.0,102.0
1145,207.05372747083334,207.42872719583335,68.0,92.0
1146,207.57096847083335,207.70997698958334,56.0,114.0
1147,207.31234797083334,207.90394236458334,51.0,100.0
1148,207.05372747083334,208.01385607708335,44.0,53.0
1149,207.82958897083333,208.1571749375,56.0,105.0
1150,207.82958897083333,208.1571749375,59.0,120.0
1151,208.34682997083334,208.49014883125,56.0,117.0
1152,208.60545047083335,208.76170035625,56.0,111.0
1153,208.60545047083335,208.77139862500002,59.0,114.0
1154,208.86407097083335,209.09467425,58.0,117.0
1155,208.86407097083335,209.09898459166666,54.0,108.0
1156,208.08820947083333,209.1270018125,51.0,94.0
1157,208.08820947083333,209.14855352083333,44.0,34.0
1158,209.12269147083333,209.4373464125,52.0,105.0
1159,209.12269147083333,209.650708325,59.0,102.0
1160,209.63993247083334,209.754156525,52.0,105.0
1161,209.38131197083334,209.98152704791667,47.0,35.0
1162,209.12269147083333,210.02678563541667,40.0,100.0
1163,209.89855297083335,210.61622485833334,59.0,114.0
1164,209.89855297083335,210.6270007125,52.0,108.0
1165,210.41579397083333,210.86514708958333,40.0,76.0
1166,210.67441447083334,210.96212977708333,47.0,100.0
1167,210.93303497083335,211.08389692916668,52.0,105.0
1168,210.93303497083335,211.13131068750002,59.0,102.0
1169,211.19165547083335,211.50415524166667,54.0,94.0
1170,211.19165547083335,211.57312070833333,58.0,111.0
1171,211.70889647083334,211.8500601604167,54.0,97.0
1172,211.45027597083333,212.13238753958333,49.0,84.0
1173,211.96751697083334,212.26493054583335,54.0,111.0
1174,212.35544772083335,212.49445623958334,54.0,89.0
1175,211.96751697083334,212.51385277708334,61.0,111.0
1176,212.74337847083333,212.85975769583334,54.0,111.0
1177,212.22613747083335,212.8769990625,49.0,80.0
1178,211.19165547083335,212.89962835625002,42.0,111.0
1179,212.74337847083333,213.1226885375,66.0,100.0
1180,212.74337847083333,213.16363678333335,61.0,105.0
1181,213.00199897083334,213.17010229583335,54.0,82.0
1182,213.26061947083335,213.44057623541667,58.0,105.0
1183,213.26061947083335,213.72829154166666,66.0,102.0
1184,213.51923997083335,213.85221386458335,58.0,94.0
1185,213.77786047083333,213.92548967291668,63.0,84.0
1186,213.26061947083335,214.1711791479167,51.0,108.0
1187,214.03648097083334,214.34574798541666,58.0,108.0
1188,214.03648097083334,214.35436866875,63.0,114.0
1189,214.03648097083334,214.47398065000002,66.0,114.0
1190,214.55372197083335,214.67441153750002,58.0,114.0
1191,214.29510147083334,214.77462698125,51.0,92.0
1192,214.81234247083333,214.92979928125,58.0,105.0
1193,214.81234247083333,215.07958365416667,63.0,111.0
1194,215.07096297083334,215.20673873333334,58.0,97.0
1195,215.32958347083334,215.64316082708334,56.0,111.0
1196,215.32958347083334,215.86406583750002,59.0,108.0
1197,215.84682447083335,215.96428128125,56.0,105.0
1198,215.58820397083335,216.2261345375,51.0,80.0
1199,216.10544497083333,216.43518610833334,56.0,114.0
1200,216.10544497083333,216.48044469583334,59.0,102.0
1201,216.10544497083333,216.53432396666668,63.0,111.0
1202,216.62268597083334,216.78432378333335,56.0,114.0
1203,216.88130647083335,217.0257029166667,56.0,108.0
1204,216.88130647083335,217.17979763125,59.0,111.0
1205,216.88130647083335,217.2088924375,63.0,108.0
1206,215.32958347083334,217.26815963541668,44.0,94.0
1207,216.36406547083334,217.27785790416667,51.0,84.0
1208,217.13992697083333,217.29617685625,56.0,97.0
1209,217.39854747083334,217.6237628229167,56.0,114.0
1210,217.39854747083334,217.93841776458333,61.0,105.0
1211,217.91578847083335,218.04186596458334,56.0,100.0
1212,217.65716797083334,218.35221056458334,52.0,31.0
1213,218.17440897083335,218.4890639125,56.0,120.0
1214,218.17440897083335,218.58281384375002,64.0,111.0
1215,218.69164997083334,218.805874025,56.0,111.0
1216,218.43302947083333,218.95134805625,52.0,78.0
1217,217.39854747083334,218.97936527708333,49.0,108.0
1218,218.95027047083335,219.10113242916668,56.0,117.0
1219,218.95027047083335,219.19057201875,61.0,114.0
1220,219.20889097083335,219.34466673333336,56.0,87.0
1221,219.46751147083333,219.80695087708335,54.0,94.0
1222,219.46751147083333,219.96535593333334,58.0,102.0
1223,219.98475247083334,220.10220928125,54.0,82.0
1224,219.72613197083334,220.38776941666669,49.0,67.0
1225,220.24337297083335,220.58820030416666,61.0,105.0
1226,220.24337297083335,220.62483820833333,54.0,114.0
1227,219.46751147083333,220.87268285416667,42.0,100.0
1228,220.50199347083336,220.88022595208335,49.0,73.0
1229,220.76061397083333,221.07203615625002,54.0,102.0
1230,220.76061397083333,221.1205275,58.0,108.0
1231,220.76061397083333,221.14854472083334,61.0,102.0
1232,221.01923447083334,221.42117383125,42.0,97.0
1233,221.27785497083335,221.42225141666668,61.0,67.0
1234,221.27785497083335,221.42548417291667,58.0,84.0
1235,221.27785497083335,221.44380312500002,54.0,114.0
1236,221.53647547083335,221.69919086875,58.0,102.0
1237,221.53647547083335,221.83712180208335,63.0,108.0
1238,221.79509597083333,222.1097509125,58.0,97.0
1239,222.05371647083334,222.18302672083334,63.0,82.0
1240,222.31233697083334,222.49444890625,58.0,108.0
1241,222.31233697083334,222.51923337083335,66.0,114.0
1242,222.82957797083336,222.98043992916666,58.0,123.0
1243,222.82957797083336,223.03970712708335,63.0,120.0
1244,221.53647547083335,223.25522421041669,51.0,111.0
1245,223.34681897083334,223.52569815,58.0,105.0
1246,223.60543947083335,223.76061177083335,58.0,117.0
1247,223.60543947083335,223.86837031250002,63.0,105.0
1248,223.86405997083335,224.16470630208335,58.0,94.0
1249,224.12268047083333,224.22181832916667,63.0,80.0
1250,223.60543947083335,224.5278525875,51.0,117.0
1251,224.38130097083334,224.624835275,58.0,108.0
1252,224.38130097083334,224.63453354375,66.0,114.0
1253,224.63992147083334,225.07418839375,51.0,100.0
1254,224.89854197083335,225.07849873541667,58.0,117.0
1255,224.89854197083335,225.27354169583333,63.0,120.0
1256,225.41578297083333,225.55694666041668,58.0,117.0
1257,225.67440347083334,225.97720497291667,56.0,108.0
1258,225.67440347083334,225.98690324166668,59.0,108.0
1259,226.19164447083335,226.30048059791667,56.0,105.0
1260,225.93302397083335,226.5709545375,51.0,53.0
1261,226.45026497083333,226.67224756666667,63.0,108.0
1262,226.45026497083333,226.70241995833334,56.0,114.0
1263,226.70888547083334,227.08280761041667,51.0,89.0
1264,226.96750597083334,227.36297981875,56.0,111.0
1265,226.96750597083334,227.67224683333333,59.0,114.0
1266,226.96750597083334,227.71966059166667,63.0,114.0
1267,227.22612647083335,227.74228988541668,51.0,87.0
1268,225.67440347083334,227.76707435,44.0,111.0
1269,227.74336747083333,227.76707435,44.0,100.0
1270,227.74336747083333,227.99228970208335,63.0,97.0
1271,227.74336747083333,228.01707416666667,68.0,102.0
1272,228.26060847083335,228.35435840208334,63.0,80.0
1273,228.00198797083334,228.67009092916666,51.0,76.0
1274,227.74336747083333,228.70780641875,32.0,92.0
1275,228.51922897083335,229.52030582291667,63.0,108.0
1276,228.51922897083335,229.52030582291667,68.0,111.0
1277,229.81233147083333,230.01168477291668,59.0,99.0
1278,229.81233147083333,230.02784855416667,56.0,84.0
1279,229.81233147083333,230.0494002625,32.0,100.0
1280,229.81233147083333,230.0494002625,44.0,100.0
1281,229.81233147083333,230.08603816666667,63.0,94.0
1282,230.58819297083335,230.70888253750002,54.0,73.0
1283,230.58819297083335,230.74121010000002,30.0,92.0
1284,230.58819297083335,230.74121010000002,42.0,92.0
1285,230.58819297083335,230.78323593125,58.0,92.0
1286,230.84681347083335,230.96103752500002,63.0,2.0
1287,230.84681347083335,231.06340813958334,32.0,100.0
1288,230.84681347083335,231.06340813958334,44.0,100.0
1289,230.84681347083335,231.07526157916666,59.0,72.0
1290,230.84681347083335,231.08064950625,56.0,69.0
1291,231.88129547083335,232.0709505041667,56.0,87.0
1292,231.88129547083335,232.0709505041667,59.0,102.0
1293,231.88129547083335,232.1097435791667,32.0,97.0
1294,231.88129547083335,232.1097435791667,44.0,97.0
1295,231.88129547083335,232.11297633541668,63.0,94.0
1296,232.65715697083334,232.78646722083334,54.0,66.0
1297,232.65715697083334,232.80801892916668,30.0,94.0
1298,232.65715697083334,232.80801892916668,42.0,94.0
1299,232.65715697083334,232.82849305208333,58.0,78.0
1300,232.91577747083335,233.17978589791667,59.0,90.0
1301,232.91577747083335,233.1830186541667,56.0,76.0
1302,232.91577747083335,233.19487209375,63.0,89.0
1303,232.91577747083335,233.23366516875,32.0,105.0
1304,232.91577747083335,233.23366516875,44.0,105.0
1305,233.43301847083333,233.90715605416668,56.0,84.0
1306,233.43301847083333,233.90715605416668,66.0,100.0
1307,233.43301847083333,233.909311225,30.0,92.0
1308,233.43301847083333,233.909311225,44.0,92.0
1309,233.95025947083334,234.16038862708334,63.0,89.0
1310,233.95025947083334,234.16685413958334,66.0,94.0
1311,233.95025947083334,234.19056101875,39.0,100.0
1312,233.95025947083334,234.19056101875,51.0,100.0
1313,234.72612097083334,234.86189673333334,37.0,97.0
1314,234.72612097083334,234.86189673333334,49.0,97.0
1315,234.72612097083334,234.86189673333334,61.0,84.0
1316,234.72612097083334,234.88237085625002,66.0,80.0
1317,234.98474147083334,235.17439650416668,63.0,84.0
1318,234.98474147083334,235.18624994375,66.0,94.0
1319,234.98474147083334,235.22827577500001,39.0,97.0
1320,234.98474147083334,235.22827577500001,51.0,97.0
1321,236.01922347083334,236.23258538333334,63.0,94.0
1322,236.01922347083334,236.24767157916668,66.0,92.0
1323,236.01922347083334,236.28646465416668,39.0,100.0
1324,236.01922347083334,236.28646465416668,51.0,100.0
1325,236.79508497083333,236.92762797708335,61.0,84.0
1326,236.79508497083333,236.9287055625,37.0,92.0
1327,236.79508497083333,236.9287055625,49.0,92.0
1328,236.79508497083333,236.95133485625,66.0,82.0
1329,237.05370547083334,237.39314487708333,66.0,97.0
1330,237.05370547083334,237.41038624375,63.0,89.0
1331,237.05370547083334,237.43732587916668,39.0,105.0
1332,237.05370547083334,237.43732587916668,51.0,105.0
1333,237.57094647083335,238.02029958958335,63.0,84.0
1334,237.57094647083335,238.02676510208335,66.0,92.0
1335,237.57094647083335,238.04508405416667,42.0,108.0
1336,237.57094647083335,238.04508405416667,54.0,108.0
1337,237.57094647083335,238.05047198125,71.0,87.0
1338,238.08818747083333,239.04616090625,59.0,99.0
1339,238.08818747083333,239.06232468750002,56.0,84.0
1340,238.08818747083333,239.08495398125,32.0,100.0
1341,238.08818747083333,239.08495398125,44.0,100.0
1342,238.08818747083333,239.1205143,63.0,94.0
