,start,end,pitch,velocity
0,34.04545795,34.6477307375,72.0,115.0
1,34.7272762,34.89204894375,75.0,117.0
2,34.95454895,35.26894292083333,74.0,115.0
3,35.40909445,35.68560962916666,72.0,115.0
4,35.86363995,36.19507937708333,70.0,120.0
5,36.31818545,36.58144305208333,72.0,104.0
6,36.77273095,37.477276475,67.0,112.0
7,37.68182195,38.02651895416667,67.0,112.0
8,38.13636745,38.42235232708333,70.0,117.0
9,38.590912949999996,38.899625102083334,69.0,112.0
10,39.04545845,39.31439787083333,67.0,112.0
11,39.50000395,39.8181858,65.0,115.0
12,39.95454945,40.280307058333335,67.0,112.0
13,40.40909495,41.08144350208333,60.0,112.0
14,41.31818595,41.4204586875,63.0,117.0
15,41.5454587,41.97348904583333,63.0,104.0
16,42.22727695,42.57386789375,63.0,117.0
17,42.68182245,42.795458825,60.0,109.0
18,42.9090952,43.0340952125,63.0,117.0
19,43.13636795,43.477277074999996,65.0,109.0
20,43.59091345,43.89204984375,65.0,109.0
21,44.04545895,44.19129229791667,70.0,113.0
22,44.2727317,44.6477317375,67.0,109.0
23,44.7272772,44.856065091666665,65.0,112.0
24,44.95454995,47.479171414583334,67.0,109.0
25,48.59091395,49.1931867375,72.0,115.0
26,49.2727322,49.43750494375,75.0,117.0
27,49.50000495,49.814398920833334,74.0,115.0
28,49.95455045,50.231065629166665,72.0,115.0
29,50.40909595,50.74053537708333,70.0,120.0
30,50.86364145,51.12689905208333,72.0,104.0
31,51.31818695,52.022732475,67.0,112.0
32,52.22727795,52.57197495416666,67.0,112.0
33,52.68182345,52.96780832708333,70.0,117.0
34,53.13636895,53.445081102083336,69.0,112.0
35,53.59091445,53.859853870833334,67.0,112.0
36,54.04545995,54.363641799999996,65.0,115.0
37,54.50000545,54.82576305833334,67.0,112.0
38,54.95455095,55.62689950208333,60.0,112.0
39,55.86364195,55.9659146875,63.0,117.0
40,56.0909147,56.518945045833334,63.0,104.0
41,56.77273295,57.11932389375,63.0,117.0
42,57.22727845,57.340914825,60.0,109.0
43,57.4545512,57.5795512125,63.0,117.0
44,57.68182395,58.022733075,65.0,109.0
45,58.13636945,58.43750584375,65.0,109.0
46,58.59091495,58.71023314375,63.0,120.0
47,58.8181877,59.47159685625,62.0,106.0
48,59.50000595,62.297354714583335,60.0,106.0
49,63.13636995,63.7386427375,72.0,115.0
50,63.8181882,63.98296094375,75.0,117.0
51,64.04546095,64.35985492083333,74.0,115.0
52,64.50000645,64.77652162916667,72.0,115.0
53,64.95455195,65.28599137708333,70.0,120.0
54,65.40909745,65.67235505208333,72.0,104.0
55,65.86364295,66.568188475,67.0,112.0
56,66.77273395,67.11743095416666,67.0,112.0
57,67.22727945,67.51326432708333,70.0,117.0
58,67.68182495,67.99053710208334,69.0,112.0
59,68.13637045,68.40530987083334,67.0,112.0
60,68.59091595,68.9090978,65.0,115.0
61,69.04546145,69.37121905833334,67.0,112.0
62,69.50000695,70.17235550208333,60.0,112.0
63,70.40909795,70.5113706875,63.0,117.0
64,70.6363707,71.06440104583334,63.0,104.0
65,71.0909162,71.31440107083333,63.0,114.0
66,71.31818895,71.54167382083334,63.0,117.0
67,71.5454617,71.76894657083334,63.0,114.0
68,71.77273445,71.886370825,60.0,109.0
69,72.0000072,72.1250072125,63.0,117.0
70,72.22727995,72.568189075,65.0,109.0
71,72.68182545,72.98296184375,65.0,109.0
72,73.13637095,73.28220429791666,70.0,113.0
73,73.3636437,73.7386437375,67.0,109.0
74,73.8181892,73.94697709166667,65.0,112.0
75,74.04546195,76.76894707083333,67.0,109.0
76,77.68182595,78.13258357083333,72.0,115.0
77,78.13637145,78.52841694375,75.0,117.0
78,78.59091695,78.90531092083333,74.0,115.0
79,79.04546245,79.32197762916667,72.0,115.0
80,79.50000795,79.83144737708334,70.0,120.0
81,79.95455345,80.21781105208333,72.0,104.0
82,80.40909895,81.113644475,67.0,112.0
83,81.31818995,81.66288695416667,67.0,112.0
84,81.77273545,82.05872032708334,70.0,117.0
85,82.22728095,82.53599310208334,69.0,112.0
86,82.68182645,82.95076587083334,67.0,112.0
87,83.13637195,83.4545538,65.0,115.0
88,83.59091745,83.91667505833334,67.0,112.0
89,84.04546295,84.71781150208334,60.0,112.0
90,84.95455395,85.0568266875,63.0,117.0
91,85.1818267,85.60985704583334,63.0,104.0
92,85.86364495,86.21023589375,63.0,117.0
93,86.31819045,86.431826825,60.0,109.0
94,86.5454632,86.6704632125,63.0,117.0
95,86.77273595,87.113645075,65.0,109.0
96,87.22728145,87.90531182083333,65.0,109.0
97,88.13637245,88.56250885625,70.0,106.0
98,88.58713007083334,89.00379677916666,72.0,127.0
99,89.04546345,89.20644831458333,74.0,110.0
100,89.17425134166666,89.37690287708334,72.0,110.0
101,89.33334226666666,89.50758470833334,70.0,105.0
102,89.47538773541666,91.46023641875,72.0,116.0
103,95.92020183749999,96.29520186875,77.0,115.0
104,96.38174033749999,96.69488139374998,79.0,112.0
105,96.8369268625,97.13616931666665,77.0,118.0
106,97.29147236249999,97.58692693749998,75.0,120.0
107,97.74601786249998,98.45435126666665,77.0,115.0
108,98.65510886249999,98.76874523749999,77.0,118.0
109,98.88238161249998,98.97518465208333,75.0,117.0
110,99.10965436249998,99.45813924583332,72.0,112.0
111,99.56419986249999,99.90510898749999,72.0,115.0
112,100.01874536249998,100.32177569583332,75.0,120.0
113,100.4732908625,100.60207875416666,74.0,109.0
114,100.70056361249999,100.79526059166665,72.0,109.0
115,100.92783636249999,101.24601821249999,70.0,120.0
116,101.38238186249998,102.89942746874999,72.0,112.0
117,103.20056386249999,103.66268512083332,67.0,109.0
118,103.65510936249999,103.92026090416665,70.0,113.0
119,104.1096548625,104.43730641041665,70.0,120.0
120,104.56420036249999,104.85586705833332,65.0,115.0
121,105.01874586249998,105.44488226874999,65.0,112.0
122,105.47329136249999,105.76306411874998,67.0,109.0
123,105.92783686249999,106.37291266458332,67.0,115.0
124,106.38238236249998,106.67783693749999,65.0,106.0
125,106.83692786249999,107.10586728333332,70.0,120.0
126,107.29147336249999,107.55283702499999,70.0,120.0
127,107.7460188625,107.90321584791666,70.0,120.0
128,107.97329161249999,108.08882192708332,68.0,117.0
129,108.20056436249999,108.51117045416666,67.0,115.0
130,108.65510986249998,110.09639788541665,67.0,112.0
131,110.47329186249999,111.63617076666665,79.0,115.0
132,111.83692836249999,111.98844352916666,77.0,115.0
133,112.06420111249999,112.16079203124998,75.0,120.0
134,112.29147386249998,113.01117090416665,77.0,118.0
135,113.20056486249999,113.87101947499998,72.0,112.0
136,114.10965586249999,115.25548931041665,74.0,106.0
137,115.47329236249999,115.61533783124999,72.0,112.0
138,115.70056511249999,115.80662572916665,70.0,120.0
139,115.92783786249998,116.68920157499998,72.0,106.0
140,116.83692886249999,117.53958044791665,67.0,112.0
141,117.74601986249999,118.05662595416666,65.0,112.0
142,118.20056536249999,118.31420173749999,65.0,109.0
143,118.42783811249998,118.92973210208332,65.0,115.0
144,119.10965636249999,119.42973215208332,67.0,112.0
145,119.56420186249998,119.78389885416665,77.0,109.0
146,120.0187473625,120.12670191874999,77.0,115.0
147,120.24602011249999,120.78579289374998,77.0,112.0
148,120.92783836249998,121.19298990416665,79.0,118.0
149,121.38238386249999,121.54336872708332,75.0,123.0
150,121.60965661249999,121.71571722916666,74.0,109.0
151,121.83692936249999,124.87670239374998,72.0,112.0
152,154.1096598625,154.71193265,72.0,115.0
153,154.7914781125,154.95625085625,75.0,117.0
154,155.01875086249999,155.33314483333334,74.0,115.0
155,155.47329636249998,155.74981154166665,72.0,115.0
156,155.92784186249997,156.25928128958333,70.0,120.0
157,156.3823873625,156.6456449645833,72.0,104.0
158,156.8369328625,157.54147838749998,67.0,112.0
159,157.74602386249998,158.09072086666666,67.0,112.0
160,158.2005693625,158.4865542395833,70.0,117.0
161,158.6551148625,158.96382701458333,69.0,112.0
162,159.1096603625,159.37859978333333,67.0,112.0
163,159.5642058625,159.8823877125,65.0,115.0
164,160.01875136249998,160.34450897083332,67.0,112.0
165,160.47329686249998,161.14564541458333,60.0,112.0
166,161.38238786249997,161.48466059999998,63.0,117.0
167,161.6096606125,162.03769095833331,63.0,104.0
168,162.0642061125,162.28769098333333,63.0,114.0
169,162.29147886249999,162.51496373333333,63.0,117.0
170,162.51875161249998,162.74223648333333,63.0,114.0
171,162.74602436249998,162.8596607375,60.0,109.0
172,162.9732971125,163.098297125,63.0,117.0
173,163.2005698625,163.5414789875,65.0,109.0
174,163.6551153625,163.95625175624997,65.0,109.0
175,164.1096608625,164.25549421041666,70.0,113.0
176,164.3369336125,164.71193365,67.0,109.0
177,164.79147911249999,164.92026700416665,65.0,112.0
178,165.01875186249998,167.74223698333333,67.0,109.0
179,168.6551158625,169.1058734833333,72.0,115.0
180,169.1096613625,169.50170685625,75.0,117.0
181,169.5642068625,169.87860083333334,74.0,115.0
182,170.01875236249998,170.29526754166665,72.0,115.0
183,170.47329786249998,170.80473728958333,70.0,120.0
184,170.92784336249997,171.1911009645833,72.0,104.0
185,171.3823888625,172.08693438749998,67.0,112.0
186,172.29147986249998,172.63617686666666,67.0,112.0
187,172.7460253625,173.03201023958331,70.0,117.0
188,173.2005708625,173.50928301458333,69.0,112.0
189,173.6551163625,173.9240557833333,67.0,112.0
190,174.1096618625,174.4278437125,65.0,115.0
191,174.56420736249999,174.88996497083332,67.0,112.0
192,175.01875286249998,175.69110141458333,60.0,112.0
193,175.92784386249997,176.03011659999999,63.0,117.0
194,176.15511661249997,176.58314695833332,63.0,104.0
195,176.8369348625,177.18352580624997,63.0,117.0
196,177.29148036249998,177.40511673749998,60.0,109.0
197,177.5187531125,177.643753125,63.0,117.0
198,177.7460258625,178.0869349875,65.0,109.0
199,178.2005713625,178.8786017333333,65.0,109.0
200,179.1096623625,179.53579876875,70.0,106.0
201,179.55663210416665,179.6854199958333,72.0,109.0
202,179.6740563583333,179.83314728333332,74.0,110.0
203,179.80095031041665,179.96004123541667,72.0,110.0
204,179.93920789999999,180.07746548958332,70.0,110.0
205,180.05663215416666,181.99413234791666,72.0,116.0
206,186.83693586249998,187.20625408125,77.0,115.0
207,187.2914813625,187.60398139375,79.0,112.0
208,187.7460268625,188.04526931666663,77.0,118.0
209,188.2005723625,188.4960269375,75.0,120.0
210,188.6551178625,189.36345126666666,77.0,115.0
211,189.56420886249998,189.67784523749998,77.0,118.0
212,189.79148161249998,189.88428465208332,75.0,117.0
213,190.01875436249998,190.36723924583333,72.0,112.0
214,190.47329986249997,190.81420898749997,72.0,115.0
215,190.9278453625,191.23087569583333,75.0,120.0
216,191.3823908625,191.51117875416665,74.0,109.0
217,191.6096636125,191.70436059166667,72.0,109.0
218,191.83693636249998,192.15511821249999,70.0,120.0
219,192.2914818625,193.80852746875,72.0,112.0
220,194.10966386249999,194.57178512083334,67.0,109.0
221,194.56420936249998,194.82936090416666,70.0,113.0
222,195.01875486249997,195.34640641041665,70.0,120.0
223,195.47330036249997,195.76496705833333,65.0,115.0
224,195.9278458625,196.35398226874997,65.0,112.0
225,196.3823913625,196.67216411875,67.0,109.0
226,196.83693686249998,197.2820126645833,67.0,115.0
227,197.2914823625,197.58693693749998,65.0,106.0
228,197.7460278625,198.0149672833333,70.0,120.0
229,198.2005733625,198.461937025,70.0,120.0
230,198.6551188625,198.81231584791664,70.0,120.0
231,198.8823916125,198.99792192708333,68.0,117.0
232,199.10966436249998,199.42027045416665,67.0,115.0
233,199.56420986249998,201.00549788541667,67.0,112.0
234,201.3823918625,202.54527076666665,79.0,115.0
235,202.7460283625,202.89754352916665,77.0,115.0
236,202.9733011125,203.06989203125,75.0,120.0
237,203.2005738625,203.92027090416667,77.0,118.0
238,204.10966486249998,204.780119475,72.0,112.0
239,205.01875586249997,206.16458931041666,74.0,106.0
240,206.38239236249998,206.52443783125,72.0,112.0
241,206.60966511249998,206.71572572916665,70.0,120.0
242,206.8369378625,207.598301575,72.0,106.0
243,207.7460288625,208.44868044791667,67.0,112.0
244,208.6551198625,208.96572595416666,65.0,112.0
245,209.10966536249998,209.22330173749998,65.0,109.0
246,209.33693811249998,209.8388321020833,65.0,115.0
247,210.01875636249997,210.33883215208334,67.0,112.0
248,210.47330186249997,210.69299885416666,77.0,109.0
249,210.9278473625,211.03580191875,77.0,115.0
250,211.1551201125,211.69489289374997,77.0,112.0
251,211.8369383625,212.10208990416663,79.0,118.0
252,212.2914838625,212.45246872708333,75.0,123.0
253,212.5187566125,212.62481722916664,74.0,109.0
254,212.7460293625,215.81721261874998,72.0,112.0
255,217.8075974,218.18259743124997,77.0,115.0
256,218.26913589999998,218.58644361875,79.0,112.0
257,218.72892614999998,219.02816860416664,77.0,118.0
258,219.18347164999997,219.47892622499998,75.0,120.0
259,219.63801714999997,220.34635055416663,77.0,115.0
260,220.54710814999999,220.66074452499998,77.0,118.0
261,220.77438089999998,220.8671839395833,75.0,117.0
262,221.00165364999998,221.3501385333333,72.0,112.0
263,221.45619914999997,221.79710827499997,72.0,115.0
264,221.91074464999997,222.2137749833333,75.0,120.0
265,222.36529015,222.49407804166665,74.0,109.0
266,222.5925629,222.68725987916665,72.0,109.0
267,222.81983565,223.1380175,70.0,120.0
268,223.27438114999998,224.79142675625,72.0,112.0
269,225.09256315,225.55468440833332,67.0,109.0
270,225.54710864999998,225.81226019166664,70.0,113.0
271,226.00165414999998,226.32930569791665,70.0,120.0
272,226.45619964999997,226.7478663458333,65.0,115.0
273,226.91074514999997,227.33688155624998,65.0,112.0
274,227.36529065,227.65506340624998,67.0,109.0
275,227.81983615,228.2649119520833,67.0,115.0
276,228.27438164999998,228.569836225,65.0,106.0
277,228.72892714999998,228.9978665708333,70.0,120.0
278,229.18347264999997,229.44483631249997,70.0,120.0
279,229.63801815,229.79521513541664,70.0,120.0
280,229.8652909,229.9808212145833,68.0,117.0
281,230.09256365,230.40316974166666,67.0,115.0
282,230.54710914999998,231.98839717291665,67.0,112.0
283,232.36529115,233.52817005416665,79.0,115.0
284,233.72892764999997,233.88044281666666,77.0,115.0
285,233.95620039999997,234.05279131874997,75.0,120.0
286,234.18347314999997,234.90317019166665,77.0,118.0
287,235.09256415,235.76301876249997,72.0,112.0
288,236.00165514999998,237.14748859791663,74.0,106.0
289,237.36529165,237.50733711874997,72.0,112.0
290,237.5925644,237.69862501666665,70.0,120.0
291,237.81983714999998,238.58120086249997,72.0,106.0
292,238.72892814999997,239.43157973541665,67.0,112.0
293,239.63801915,239.94862524166666,65.0,112.0
294,240.09256464999999,240.20620102499998,65.0,109.0
295,240.31983739999998,240.8217313895833,65.0,115.0
296,241.00165564999998,241.32173143958332,67.0,112.0
297,241.45620114999997,241.67589814166664,77.0,109.0
298,241.91074664999996,242.01870120624997,77.0,115.0
299,242.1380194,242.67779218124997,77.0,112.0
300,242.81983764999998,243.08498919166664,79.0,118.0
301,243.27438314999998,243.4353680145833,75.0,123.0
302,243.50165589999997,243.60771651666664,74.0,109.0
303,243.72892864999997,246.76870168124998,72.0,112.0
