,start,end,pitch,velocity
0,1.77272745,2.2689396208333332,55.0,55.0
1,2.22727295,3.1174245541666665,60.0,99.0
2,2.68181845,3.856060991666667,55.0,42.0
3,1.31818195,4.089015560416667,48.0,99.0
4,3.13636395,4.56250045625,63.0,77.0
5,3.13636395,4.679924710416667,67.0,91.0
6,5.40909145,5.962121808333333,50.0,32.0
7,6.31818245,7.768940170833333,50.0,55.0
8,4.95454595,7.8484856333333335,43.0,91.0
9,5.86363695,8.0795462625,58.0,91.0
10,6.77272795,8.094697779166667,62.0,106.0
11,9.50000095,10.04545555,60.0,104.0
12,8.59090995,11.361743560416667,44.0,99.0
13,9.04545545,11.399622352083334,51.0,66.0
14,9.95454645,11.9204557375,56.0,107.0
15,10.40909195,11.96022846875,60.0,94.0
16,10.40909195,12.7613649125,63.0,96.0
17,12.68181945,13.265152841666666,55.0,78.0
18,13.13636495,13.816289260416667,63.0,113.0
19,13.590910449999999,14.200758995833333,55.0,67.0
20,12.22727395,15.208334854166667,48.0,96.0
21,14.04545595,15.21022879375,63.0,113.0
22,14.04545595,15.276516679166667,67.0,99.0
23,15.86363795,15.98295614375,36.0,94.0
24,15.86363795,16.507577408333333,63.0,107.0
25,15.86363795,16.645834997916666,60.0,94.0
26,16.77272895,17.123107772916665,67.0,99.0
27,16.77272895,17.195077477083334,63.0,110.0
28,17.22727445,17.795456325,55.0,37.0
29,17.68181995,18.350380622916667,60.0,94.0
30,17.68181995,18.390153354166667,67.0,99.0
31,17.68181995,18.401516991666668,63.0,113.0
32,18.13636545,18.628789741666665,55.0,42.0
33,16.31818345,18.736744297916665,48.0,85.0
34,18.59091095,18.770835210416667,60.0,94.0
35,18.59091095,19.007577658333332,63.0,113.0
36,18.59091095,19.104168577083332,67.0,104.0
37,19.50000195,20.293562635416666,58.0,96.0
38,19.50000195,20.428032345833333,55.0,96.0
39,19.95454745,20.532199022916668,50.0,73.0
40,20.40909295,20.69886570625,62.0,104.0
41,20.40909295,20.751896014583334,58.0,104.0
42,20.86363845,21.33144152708333,50.0,48.0
43,21.31818395,21.714017322916668,58.0,83.0
44,21.31818395,21.7272749,62.0,94.0
45,19.50000195,22.13068403125,43.0,104.0
46,22.227274949999998,22.462123458333334,58.0,113.0
47,22.227274949999998,22.4886386125,62.0,104.0
48,23.13636595,23.7159114625,60.0,99.0
49,23.13636595,23.8977296625,56.0,79.0
50,24.04545695,24.399623652083335,60.0,91.0
51,24.04545695,24.401517591666668,63.0,107.0
52,23.59091145,25.11932069375,51.0,44.0
53,24.95454795,25.723487420833333,60.0,99.0
54,24.95454795,25.731063179166668,63.0,107.0
55,25.86363895,26.388260214583333,60.0,104.0
56,25.86363895,26.40341173125,63.0,120.0
57,25.40909345,26.41477536875,51.0,55.0
58,23.13636595,26.469699616666666,44.0,110.0
59,26.77272995,27.450760320833332,55.0,91.0
60,26.77272995,27.50000275,60.0,101.0
61,26.77272995,27.723487620833332,48.0,106.0
62,27.68182095,27.837123995833334,60.0,96.0
63,27.68182095,27.895836122916666,63.0,99.0
64,28.59091195,28.882578645833334,67.0,96.0
65,28.59091195,28.907199860416668,63.0,101.0
66,29.50000295,29.65341205625,60.0,76.0
67,29.50000295,30.087124220833335,63.0,110.0
68,29.50000295,30.159093925,67.0,96.0
69,29.95454845,30.287881816666665,60.0,73.0
70,30.40909395,31.157200085416665,63.0,88.0
71,30.40909395,31.1818213,60.0,78.0
72,30.86363945,31.462124358333334,55.0,80.0
73,31.31818495,31.939397133333333,63.0,104.0
74,31.77273045,33.70265488541666,55.0,76.0
75,30.40909395,33.748109435416666,48.0,99.0
76,32.22727595,33.92235187708334,60.0,89.0
77,32.22727595,33.92424581666667,67.0,101.0
78,32.22727595,33.933715514583334,63.0,113.0
79,34.50000345,34.918564097916665,55.0,56.0
80,34.04545795,35.05303380833333,48.0,101.0
81,34.95454895,35.41288232916666,63.0,110.0
82,34.95454895,35.44697324166667,67.0,99.0
83,35.40909445,35.74432175625,60.0,74.0
84,36.31818545,36.793564285416664,50.0,61.0
85,35.86363995,36.882579445833336,43.0,91.0
86,36.77273095,36.95454915,58.0,110.0
87,36.77273095,36.97538248541667,62.0,101.0
88,37.68182195,37.81250378125,39.0,101.0
89,37.68182195,37.888261364583336,55.0,96.0
90,37.68182195,37.916670458333336,51.0,77.0
91,37.68182195,37.93371591458333,58.0,77.0
92,38.590912949999996,38.8181857,41.0,101.0
93,38.590912949999996,38.86364025,53.0,96.0
94,38.590912949999996,38.87689782708333,57.0,101.0
95,39.50000395,39.87311004791667,58.0,79.0
96,39.50000395,39.93750399375,62.0,104.0
97,39.50000395,39.9431858125,55.0,89.0
98,39.50000395,40.303034333333336,43.0,99.0
99,40.40909495,40.76704953125,60.0,96.0
100,40.40909495,40.7840949875,55.0,94.0
101,40.40909495,40.8068222625,48.0,85.0
102,41.31818595,41.79356478541666,60.0,99.0
103,41.31818595,42.05303450833333,56.0,99.0
104,42.22727695,42.422352727083336,56.0,107.0
105,41.77273145,42.42424666666667,51.0,61.0
106,41.31818595,42.47159515625,44.0,110.0
107,42.22727695,42.64962547708333,60.0,91.0
108,42.22727695,42.72159518125,63.0,104.0
109,42.68182245,42.8068224625,56.0,96.0
110,43.13636795,43.46401949791667,53.0,87.0
111,43.13636795,43.71970134166666,58.0,83.0
112,43.59091345,44.07008016458333,53.0,89.0
113,43.13636795,44.246216545833335,46.0,101.0
114,44.04545895,44.38068625625,58.0,113.0
115,44.04545895,44.41477716875,62.0,104.0
116,44.95454995,45.52651970416667,58.0,93.0
117,44.95454995,45.827656097916666,55.0,85.0
118,45.40909545,46.08901976041667,46.0,44.0
119,44.95454995,46.10985309583333,39.0,101.0
120,45.86364095,46.35417130208333,58.0,117.0
121,45.86364095,46.409095549999996,63.0,110.0
122,46.31818645,46.55114101875,55.0,74.0
123,46.77273195,47.21212593333333,59.0,96.0
124,46.77273195,47.5340956625,55.0,85.0
125,47.22727745,47.918565397916666,50.0,71.0
126,46.77273195,48.15151996666667,43.0,99.0
127,47.68182295,48.191292697916666,59.0,112.0
128,47.68182295,48.363641199999996,67.0,96.0
129,47.68182295,48.37311089791667,62.0,106.0
130,48.13636845,48.3977321125,55.0,112.0
131,48.59091395,48.87879276666666,55.0,106.0
132,48.59091395,49.19508067708333,60.0,99.0
133,49.04545945,49.52462616458333,55.0,87.0
134,48.59091395,49.78788376666667,48.0,96.0
135,49.50000495,49.965914087499996,60.0,109.0
136,49.50000495,49.99053530208333,63.0,113.0
137,49.95455045,50.310611091666665,55.0,69.0
138,50.40909595,50.929929335416666,58.0,99.0
139,50.40909595,51.07765662291666,55.0,89.0
140,50.86364145,52.100383997916666,50.0,78.0
141,51.31818695,52.11742945416667,62.0,104.0
142,51.31818695,52.12689915208333,58.0,113.0
143,51.77273245,52.134474910416664,55.0,106.0
144,50.40909595,52.149626427083334,43.0,101.0
145,52.22727795,52.36174766041667,51.0,49.0
146,52.22727795,52.59280828958333,55.0,74.0
147,52.22727795,52.74811133541667,39.0,117.0
148,52.68182345,52.825762858333334,46.0,47.0
149,53.13636895,53.524626564583336,53.0,104.0
150,53.13636895,53.52841444375,57.0,106.0
151,53.13636895,53.5795508125,41.0,106.0
152,54.04545995,54.568187275,62.0,106.0
153,54.04545995,54.57576303333333,55.0,94.0
154,54.04545995,54.628793341666665,43.0,104.0
155,54.95455095,55.14394490833333,55.0,91.0
156,54.95455095,55.361747960416665,48.0,99.0
157,54.95455095,55.412884329166666,60.0,99.0
158,55.40909645,55.50568736875,55.0,99.0
159,55.86364195,56.303035933333334,60.0,94.0
160,55.86364195,56.36553593958333,63.0,91.0
161,55.86364195,56.554929897916665,56.0,96.0
162,56.77273295,57.11742995416667,60.0,104.0
163,56.77273295,57.1250057125,63.0,117.0
164,56.318187449999996,57.83712699583333,51.0,63.0
165,57.68182395,58.035990652083335,60.0,89.0
166,57.68182395,58.04546035,63.0,104.0
167,57.68182395,58.04735428958333,56.0,104.0
168,58.59091495,58.759475572916664,60.0,96.0
169,58.59091495,58.77273315,56.0,113.0
170,55.86364195,58.77841496875,44.0,110.0
171,58.59091495,58.791672545833336,63.0,110.0
172,58.13636945,58.797354364583335,51.0,46.0
173,59.04546045,59.178036220833334,44.0,110.0
174,59.50000595,60.032202972916664,63.0,99.0
175,59.50000595,60.19508177708333,60.0,89.0
176,59.95455145,60.477278775,55.0,47.0
177,60.40909695,60.79735456458333,67.0,99.0
178,60.40909695,60.945081852083334,63.0,110.0
179,60.86364245,61.399627352083336,55.0,38.0
180,61.31818795,61.82576375833333,60.0,89.0
181,61.31818795,61.91288497916667,63.0,104.0
182,61.77273345,62.333339566666666,55.0,54.0
183,59.50000595,63.00379417916667,48.0,101.0
184,62.22727895,63.05493054791667,60.0,104.0
185,62.22727895,63.068188125,67.0,104.0
186,62.22727895,63.071976004166665,63.0,117.0
187,62.68182445,63.09849115833333,55.0,64.0
188,63.59091545,64.00947609791666,55.0,56.0
189,63.13636995,64.14394580833333,48.0,101.0
190,64.04546095,64.50379432916667,63.0,110.0
191,64.04546095,64.53788524166667,67.0,99.0
192,64.50000645,64.83523375625,60.0,74.0
193,65.40909745,65.88447628541667,50.0,61.0
194,64.95455195,65.97349144583333,43.0,91.0
195,65.86364295,66.04546115,58.0,110.0
196,65.86364295,66.06629448541666,62.0,101.0
197,66.77273395,66.90341578125,39.0,101.0
198,66.77273395,66.97917336458333,55.0,96.0
199,66.77273395,67.00758245833333,51.0,77.0
200,66.77273395,67.02462791458333,58.0,77.0
201,67.68182495,67.9090977,41.0,101.0
202,67.68182495,67.95455225,53.0,96.0
203,67.68182495,67.96780982708333,57.0,101.0
204,68.59091595,68.96402204791667,58.0,79.0
205,68.59091595,69.02841599375,62.0,104.0
206,68.59091595,69.0340978125,55.0,89.0
207,68.59091595,69.39394633333333,43.0,99.0
208,69.50000695,69.85796153125,60.0,96.0
209,69.50000695,69.8750069875,55.0,94.0
210,69.50000695,69.8977342625,48.0,85.0
211,70.40909795,70.88447678541667,60.0,99.0
212,70.40909795,71.14394650833333,56.0,99.0
213,71.31818895,71.51326472708334,56.0,107.0
214,70.86364345,71.51515866666666,51.0,61.0
215,70.40909795,71.56250715625,44.0,110.0
216,71.31818895,71.74053747708334,60.0,91.0
217,71.31818895,71.81250718125,63.0,104.0
218,71.77273445,71.8977344625,56.0,96.0
219,72.22727995,72.93371941458334,63.0,55.0
220,72.22727995,72.97917396458334,56.0,74.0
221,72.22727995,73.83902253541666,44.0,107.0
222,72.68182545,73.88447708541666,51.0,93.0
223,73.13637095,73.89962860208334,60.0,101.0
224,73.13637095,73.94129527291666,63.0,110.0
225,73.59091645,73.95076497083333,56.0,99.0
226,74.04546195,74.61743170416666,58.0,93.0
227,74.04546195,74.91856809791666,55.0,85.0
228,74.50000745,75.17993176041666,46.0,44.0
229,74.04546195,75.20076509583333,39.0,101.0
230,74.95455295,75.44508330208333,58.0,117.0
231,74.95455295,75.50000755,63.0,110.0
232,75.40909845,75.64205301875,55.0,74.0
233,75.86364395,76.30303793333333,59.0,96.0
234,75.86364395,76.6250076625,55.0,85.0
235,76.31818945,77.00947739791667,50.0,71.0
236,75.86364395,77.24243196666667,43.0,99.0
237,76.77273495,77.28220469791667,59.0,112.0
238,76.77273495,77.4545532,67.0,96.0
239,76.77273495,77.46402289791666,62.0,106.0
240,77.22728045,77.4886441125,55.0,112.0
241,77.68182595,77.96970476666667,55.0,106.0
242,77.68182595,78.28599267708333,60.0,99.0
243,78.13637145,78.61553816458333,55.0,87.0
244,77.68182595,78.87879576666667,48.0,96.0
245,78.59091695,79.0568260875,60.0,109.0
246,78.59091695,79.08144730208333,63.0,113.0
247,79.04546245,79.40152309166666,55.0,69.0
248,79.50000795,80.02084133541666,58.0,99.0
249,79.50000795,80.16856862291667,55.0,89.0
250,79.95455345,81.19129599791667,50.0,78.0
251,80.40909895,81.20834145416667,62.0,104.0
252,80.40909895,81.21781115208333,58.0,113.0
253,80.86364445,81.22538691041666,55.0,106.0
254,79.50000795,81.24053842708334,43.0,101.0
255,81.31818995,81.45265966041667,51.0,49.0
256,81.31818995,81.68372028958333,55.0,74.0
257,81.31818995,81.83902333541667,39.0,117.0
258,81.77273545,81.91667485833334,46.0,47.0
259,82.22728095,82.61553856458333,53.0,104.0
260,82.22728095,82.61932644375,57.0,106.0
261,82.22728095,82.6704628125,41.0,106.0
262,83.13637195,83.659099275,62.0,106.0
263,83.13637195,83.66667503333333,55.0,94.0
264,83.13637195,83.71970534166667,43.0,104.0
265,84.04546295,84.23485690833333,55.0,91.0
266,84.04546295,84.45265996041667,48.0,99.0
267,84.04546295,84.50379632916666,60.0,99.0
268,84.50000845,84.59659936875,55.0,99.0
269,84.95455395,85.39394793333334,60.0,94.0
270,84.95455395,85.45644793958333,63.0,91.0
271,84.95455395,85.64584189791667,56.0,96.0
272,85.86364495,86.20834195416667,60.0,104.0
273,85.86364495,86.2159177125,63.0,117.0
274,85.40909945,86.92803899583333,51.0,63.0
275,86.77273595,87.12690265208333,60.0,89.0
276,86.77273595,87.13637235,63.0,104.0
277,86.77273595,87.13826628958333,56.0,104.0
278,87.68182695,87.85038757291666,60.0,96.0
279,87.68182695,87.86364515,56.0,113.0
280,84.95455395,87.86932696875,44.0,110.0
281,87.68182695,87.88258454583334,63.0,110.0
282,87.22728145,87.88826636458333,51.0,46.0
283,88.13637245,88.26894822083334,44.0,110.0
284,88.59091795,89.12311497291667,63.0,99.0
285,88.59091795,89.28599377708333,60.0,89.0
286,89.04546345,89.568190775,55.0,47.0
287,89.50000895,89.88826656458333,67.0,99.0
288,89.50000895,90.03599385208334,63.0,110.0
289,89.95455445,90.49053935208333,55.0,38.0
290,90.40909995,90.91667575833333,60.0,89.0
291,90.40909995,91.00379697916667,63.0,104.0
292,90.86364544999999,91.42425156666667,55.0,54.0
293,88.59091795,92.09470617916666,48.0,101.0
294,91.31819095,92.14584254791667,60.0,104.0
295,91.31819095,92.159100125,67.0,104.0
296,91.31819095,92.16288800416666,63.0,117.0
297,91.77273645,92.18943229583333,55.0,64.0
298,92.22789383749999,92.74135541874999,53.0,96.0
299,92.22789383749999,92.75674003541666,56.0,83.0
300,92.22789383749999,92.78558619166667,60.0,96.0
301,92.6894323375,93.24135546041666,48.0,74.0
302,92.22789383749999,93.40866316666666,41.0,106.0
303,93.1509708375,93.43558624583332,56.0,120.0
304,93.1509708375,93.50097086666666,60.0,109.0
305,93.6125093375,93.85674012708333,41.0,104.0
306,94.07404783749999,94.42981709791667,62.0,106.0
307,94.07404783749999,94.45289402291667,58.0,101.0
308,94.07404783749999,94.47404787083333,55.0,89.0
309,94.53558633749999,95.1125094625,50.0,85.0
310,94.07404783749999,95.46058641458333,43.0,106.0
311,94.9971248375,95.80097105833333,58.0,117.0
312,94.9971248375,95.82020182916666,62.0,109.0
313,95.4586633375,95.82212490625,55.0,104.0
314,94.9971248375,95.84327875416666,67.0,96.0
315,95.92020183749999,96.51306319374999,62.0,109.0
316,95.92020183749999,96.63995714583332,58.0,107.0
317,96.38174033749999,96.91268444583332,53.0,89.0
318,95.92020183749999,96.92972990208332,46.0,113.0
319,96.8369268625,97.03768445833332,58.0,110.0
320,96.8369268625,97.24033599375,62.0,106.0
321,96.8369268625,97.36722994583332,65.0,106.0
322,97.29147236249999,97.41457843541666,58.0,113.0
323,97.74601786249998,98.28389670416665,67.0,96.0
324,97.74601786249998,98.31609367708332,63.0,104.0
325,97.74601786249998,98.38995732083332,60.0,94.0
326,98.20056336249999,98.68541189583333,55.0,73.0
327,97.74601786249998,98.734654325,48.0,101.0
328,98.65510886249999,98.82556342499998,60.0,99.0
329,98.65510886249999,99.12101799999999,63.0,120.0
330,98.65510886249999,99.13238163749999,67.0,104.0
331,99.10965436249998,99.24412407291665,60.0,104.0
332,99.56419986249999,100.02632112083332,60.0,94.0
333,99.56419986249999,100.15321507291665,63.0,101.0
334,99.56419986249999,100.28768478333332,56.0,104.0
335,100.01874536249998,100.50548783541666,51.0,50.0
336,99.56419986249999,100.50738177499998,44.0,107.0
337,100.4732908625,100.61344239166665,56.0,117.0
338,100.4732908625,100.84450302083332,60.0,106.0
339,100.4732908625,100.95624545624999,63.0,117.0
340,101.38238186249998,101.98844252916666,63.0,99.0
341,101.38238186249998,102.01685162291665,60.0,94.0
342,101.83692736249999,102.36723044583331,55.0,42.0
343,102.29147286249999,102.46950318333332,60.0,101.0
344,101.38238186249998,102.49601833749999,48.0,101.0
345,102.29147286249999,102.70813957083332,63.0,120.0
346,102.29147286249999,102.78957897291666,67.0,104.0
347,103.20056386249999,103.73654876458332,58.0,104.0
348,103.20056386249999,103.73654876458332,62.0,104.0
349,103.20056386249999,103.89942756874999,55.0,91.0
350,103.65510936249999,104.35018518958333,50.0,76.0
351,103.20056386249999,104.50738217499999,43.0,104.0
352,104.1096548625,104.57745793958333,58.0,120.0
353,104.1096548625,104.57935187916665,62.0,109.0
354,104.56420036249999,104.72329128749999,55.0,99.0
355,105.01874586249998,105.65132168333332,56.0,91.0
356,105.01874586249998,105.75927623958331,53.0,99.0
357,105.47329136249999,106.05283687499998,48.0,76.0
358,105.01874586249998,106.22518537708332,41.0,101.0
359,105.92783686249999,106.35965508749999,56.0,120.0
360,105.92783686249999,106.37480660416665,60.0,109.0
361,106.38238236249998,106.72139754791665,53.0,99.0
362,106.83692786249999,107.09071576666665,58.0,113.0
363,106.83692786249999,107.13427637708332,62.0,106.0
364,107.29147336249999,107.86912493541665,53.0,45.0
365,107.7460188625,107.99033706875,62.0,112.0
366,107.7460188625,108.01306434374999,58.0,120.0
367,106.83692786249999,108.06609465208332,46.0,96.0
368,108.65510986249998,108.98276141041666,39.0,113.0
369,108.65510986249998,109.07935232916665,58.0,117.0
370,108.65510986249998,109.11154930208332,63.0,113.0
371,108.65510986249998,109.12670081874998,55.0,99.0
372,109.56420086249999,109.80473118958332,55.0,112.0
373,109.56420086249999,109.83503422291665,62.0,112.0
374,109.56420086249999,109.84829179999998,59.0,112.0
375,109.79147361249998,110.17973122708332,50.0,99.0
376,109.56420086249999,110.21761001874998,43.0,106.0
377,110.01874636249998,110.28957972291666,55.0,112.0
378,110.47329186249999,110.73086764583331,55.0,112.0
379,110.47329186249999,111.09071616666665,60.0,112.0
380,110.92783736249999,111.19298890416665,55.0,96.0
381,111.38238286249998,111.56798894166666,55.0,106.0
382,110.47329186249999,111.63427682708333,48.0,106.0
383,111.38238286249998,111.80662532916665,60.0,109.0
384,111.38238286249998,111.81420108749998,63.0,110.0
385,111.83692836249999,111.94677685833332,55.0,104.0
386,112.29147386249998,112.67594359791666,60.0,101.0
387,112.29147386249998,112.79336785208332,56.0,99.0
388,112.29147386249998,113.06230727291666,53.0,99.0
389,112.7460193625,113.38238306249998,48.0,74.0
390,112.29147386249998,113.49980731666665,41.0,106.0
391,113.20056486249999,113.69867097291666,56.0,120.0
392,113.65511036249998,113.81230734791666,53.0,109.0
393,113.20056486249999,113.81798916666665,60.0,109.0
394,114.10965586249999,114.66836803958333,55.0,106.0
395,114.10965586249999,114.72329228749999,62.0,106.0
396,114.56420136249999,115.12101959999998,50.0,76.0
397,115.0187468625,115.29904992083333,55.0,112.0
398,114.10965586249999,115.33692871249998,43.0,106.0
399,115.0187468625,115.55473176458332,62.0,109.0
400,115.0187468625,115.55662570416665,67.0,104.0
401,115.47329236249999,115.76306511874999,55.0,96.0
402,115.92783786249998,116.15889849166666,55.0,109.0
403,115.92783786249998,116.57556519999999,60.0,104.0
404,116.38238336249998,116.63427732708332,55.0,99.0
405,116.83692886249999,117.04526221666666,55.0,106.0
406,116.83692886249999,117.06609555208333,60.0,109.0
407,116.83692886249999,117.10776222291665,63.0,117.0
408,115.92783786249998,117.15700465208332,48.0,99.0
409,117.74601986249999,118.007383525,60.0,101.0
410,117.74601986249999,118.45624720624998,65.0,104.0
411,118.20056536249999,118.46571690416665,60.0,82.0
412,117.74601986249999,118.82367148541665,41.0,106.0
413,118.65511086249998,118.85397451875,60.0,109.0
414,118.65511086249998,119.13427757708332,65.0,112.0
415,118.65511086249998,119.15511091249999,68.0,117.0
416,119.10965636249999,119.22329273749999,60.0,99.0
417,119.56420186249998,120.15700495208333,62.0,109.0
418,119.56420186249998,120.22139889791666,58.0,104.0
419,120.47329286249999,120.72708076666666,62.0,109.0
420,120.47329286249999,120.74602016249999,58.0,113.0
421,120.0187473625,120.75738379999999,53.0,66.0
422,120.47329286249999,120.825565625,65.0,106.0
423,119.56420186249998,120.83314138333333,46.0,107.0
424,121.38238386249999,121.88238391249999,63.0,113.0
425,121.38238386249999,122.09829302499999,60.0,104.0
426,121.83692936249999,122.48276276041665,55.0,69.0
427,122.2914748625,122.63995974583332,67.0,109.0
428,122.2914748625,122.65889914166665,63.0,120.0
429,122.74602036249999,123.31230829791666,55.0,52.0
430,123.20056586249999,123.58503559791666,72.0,99.0
431,123.20056586249999,123.60018711458332,67.0,106.0
432,123.20056586249999,123.69488409374999,63.0,117.0
433,123.65511136249998,124.17973262708333,55.0,38.0
434,121.38238386249999,124.51495993333332,48.0,106.0
435,124.10965686249999,124.91079330624999,63.0,104.0
436,124.10965686249999,124.92405088333332,67.0,96.0
437,124.56420236249998,124.93730846041666,60.0,89.0
438,125.47329336249999,125.96950553333332,55.0,55.0
439,125.92783886249998,126.81799046666666,60.0,99.0
440,126.38238436249999,127.55662690416665,55.0,42.0
441,125.01874786249999,127.78958147291665,48.0,99.0
442,126.83692986249999,128.26306636875,63.0,77.0
443,126.83692986249999,128.38049062291665,67.0,91.0
444,129.1096573625,129.66268772083333,50.0,32.0
445,130.0187483625,131.46950608333333,50.0,55.0
446,128.65511186249998,131.54905154583332,43.0,91.0
447,129.5642028625,131.780112175,58.0,91.0
448,130.4732938625,131.79526369166666,62.0,106.0
449,133.20056686249998,133.74602146249998,60.0,104.0
450,132.2914758625,135.06230947291664,44.0,99.0
451,132.7460213625,135.10018826458332,51.0,66.0
452,133.65511236249998,135.62102165,56.0,107.0
453,134.1096578625,135.66079438124999,60.0,94.0
454,134.1096578625,136.461930825,63.0,96.0
455,136.38238536249997,136.96571875416666,55.0,78.0
456,136.8369308625,137.51685517291665,63.0,113.0
457,137.2914763625,137.90132490833332,55.0,67.0
458,135.92783986249998,138.90890076666665,48.0,96.0
459,137.7460218625,138.91079470625,63.0,113.0
460,137.7460218625,138.97708259166666,67.0,99.0
461,139.5642038625,139.68352205624998,36.0,94.0
462,139.5642038625,140.20814332083333,63.0,107.0
463,139.5642038625,140.34640091041666,60.0,94.0
464,140.47329486249998,140.82367368541665,67.0,99.0
465,140.47329486249998,140.8956433895833,63.0,110.0
466,140.92784036249998,141.49602223749997,55.0,37.0
467,141.38238586249997,142.05094653541664,60.0,94.0
468,141.38238586249997,142.09071926666667,67.0,99.0
469,141.38238586249997,142.10208290416665,63.0,113.0
470,141.8369313625,142.32935565416665,55.0,42.0
471,140.0187493625,142.43731021041665,48.0,85.0
472,142.2914768625,142.47140112291666,60.0,94.0
473,142.2914768625,142.70814357083333,63.0,113.0
474,142.2914768625,142.80473448958332,67.0,104.0
475,143.20056786249998,143.99412854791666,58.0,96.0
476,143.20056786249998,144.1285982583333,55.0,96.0
477,143.6551133625,144.23276493541664,50.0,73.0
478,144.1096588625,144.39943161875,62.0,104.0
479,144.1096588625,144.45246192708333,58.0,104.0
480,144.5642043625,145.0320074395833,50.0,48.0
481,145.0187498625,145.41458323541667,58.0,83.0
482,145.0187498625,145.4278408125,62.0,94.0
483,143.20056786249998,145.83124994374998,43.0,104.0
484,145.92784086249998,146.16268937083333,58.0,113.0
485,145.92784086249998,146.18920452499998,62.0,104.0
486,146.8369318625,147.416477375,60.0,99.0
487,146.8369318625,147.59829557499998,56.0,79.0
488,147.74602286249998,148.10018956458333,60.0,91.0
489,147.74602286249998,148.10208350416667,63.0,107.0
490,147.2914773625,148.81988660624998,51.0,44.0
491,148.6551138625,149.42405333333332,60.0,99.0
492,148.6551138625,149.43162909166665,63.0,107.0
493,149.5642048625,150.08882612708334,60.0,104.0
494,149.5642048625,150.10397764375,63.0,120.0
495,149.1096593625,150.11534128124998,51.0,55.0
496,146.8369318625,150.17026552916667,44.0,110.0
497,150.47329586249998,151.15132623333332,55.0,91.0
498,150.47329586249998,151.2005686625,60.0,101.0
499,150.47329586249998,151.42405353333334,48.0,106.0
500,151.38238686249997,151.53768990833333,60.0,96.0
501,151.38238686249997,151.59640203541665,63.0,99.0
502,152.2914778625,152.58314455833332,67.0,96.0
503,152.2914778625,152.60776577291665,63.0,101.0
504,153.20056886249998,153.35397796874997,60.0,76.0
505,153.20056886249998,153.7876901333333,63.0,110.0
506,153.20056886249998,153.85965983749998,67.0,96.0
507,153.6551143625,153.98844772916664,60.0,73.0
508,154.5642053625,154.98276601041664,55.0,56.0
509,154.1096598625,155.11723572083332,48.0,101.0
510,155.01875086249999,155.47708424166666,63.0,110.0
511,155.01875086249999,155.51117515416666,67.0,99.0
512,155.47329636249998,155.80852366874998,60.0,74.0
513,156.3823873625,156.85776619791665,50.0,61.0
514,155.92784186249997,156.9467813583333,43.0,91.0
515,156.8369328625,157.01875106249997,58.0,110.0
516,156.8369328625,157.03958439791666,62.0,101.0
517,157.74602386249998,157.87670569374998,39.0,101.0
518,157.74602386249998,157.95246327708333,55.0,96.0
519,157.74602386249998,157.9808723708333,51.0,77.0
520,157.74602386249998,157.9979178270833,58.0,77.0
521,158.6551148625,158.8823876125,41.0,101.0
522,158.6551148625,158.92784216249999,53.0,96.0
523,158.6551148625,158.9410997395833,57.0,101.0
524,159.5642058625,159.93731196041665,58.0,79.0
525,159.5642058625,160.00170590624998,62.0,104.0
526,159.5642058625,160.007387725,55.0,89.0
527,159.5642058625,160.3672362458333,43.0,99.0
528,160.47329686249998,160.83125144374998,60.0,96.0
529,160.47329686249998,160.84829689999998,55.0,94.0
530,160.47329686249998,160.871024175,48.0,85.0
531,161.38238786249997,161.85776669791665,60.0,99.0
532,161.38238786249997,162.1172364208333,56.0,99.0
533,162.29147886249999,162.48655463958332,56.0,107.0
534,161.8369333625,162.48844857916666,51.0,61.0
535,161.38238786249997,162.53579706874999,44.0,110.0
536,162.29147886249999,162.71382738958332,60.0,91.0
537,162.29147886249999,162.78579709374998,63.0,104.0
538,162.74602436249998,162.871024375,56.0,96.0
539,163.2005698625,163.9070093270833,63.0,55.0
540,163.2005698625,163.95246387708332,56.0,74.0
541,163.2005698625,164.81231244791667,44.0,107.0
542,163.6551153625,164.85776699791666,51.0,93.0
543,164.1096608625,164.87291851458332,60.0,101.0
544,164.1096608625,164.91458518541666,63.0,110.0
545,164.5642063625,164.92405488333333,56.0,99.0
546,165.01875186249998,165.59072161666666,58.0,93.0
547,165.01875186249998,165.89185801041666,55.0,85.0
548,165.47329736249998,166.15322167291666,46.0,44.0
549,165.01875186249998,166.1740550083333,39.0,101.0
550,165.92784286249997,166.4183732145833,58.0,117.0
551,165.92784286249997,166.4732974625,63.0,110.0
552,166.38238836249997,166.61534293124998,55.0,74.0
553,166.8369338625,167.27632784583332,59.0,96.0
554,166.8369338625,167.598297575,55.0,85.0
555,167.29147936249998,167.98276731041665,50.0,71.0
556,166.8369338625,168.21572187916667,43.0,99.0
557,167.7460248625,168.25549461041663,59.0,112.0
558,167.7460248625,168.4278431125,67.0,96.0
559,167.7460248625,168.43731281041664,62.0,106.0
560,168.2005703625,168.461934025,55.0,112.0
561,168.6551158625,168.94299467916665,55.0,106.0
562,168.6551158625,169.25928258958334,60.0,99.0
563,169.1096613625,169.58882807708332,55.0,87.0
564,168.6551158625,169.85208567916663,48.0,96.0
565,169.5642068625,170.030116,60.0,109.0
566,169.5642068625,170.05473721458333,63.0,113.0
567,170.01875236249998,170.37481300416664,55.0,69.0
568,170.47329786249998,170.99413124791664,58.0,99.0
569,170.47329786249998,171.14185853541665,55.0,89.0
570,170.92784336249997,172.16458591041663,50.0,78.0
571,171.3823888625,172.18163136666664,62.0,104.0
572,171.3823888625,172.19110106458334,58.0,113.0
573,171.8369343625,172.19867682291664,55.0,106.0
574,170.47329786249998,172.2138283395833,43.0,101.0
575,172.29147986249998,172.42594957291664,51.0,49.0
576,172.29147986249998,172.6570102020833,55.0,74.0
577,172.29147986249998,172.81231324791665,39.0,117.0
578,172.7460253625,172.88996477083333,46.0,47.0
579,173.2005708625,173.58882847708333,53.0,104.0
580,173.2005708625,173.59261635625,57.0,106.0
581,173.2005708625,173.64375272499998,41.0,106.0
582,174.1096618625,174.6323891875,62.0,106.0
583,174.1096618625,174.63996494583333,55.0,94.0
584,174.1096618625,174.69299525416665,43.0,104.0
585,175.01875286249998,175.20814682083332,55.0,91.0
586,175.01875286249998,175.42594987291665,48.0,99.0
587,175.01875286249998,175.47708624166665,60.0,99.0
588,175.47329836249997,175.56988928124997,55.0,99.0
589,175.92784386249997,176.3672378458333,60.0,94.0
590,175.92784386249997,176.42973785208332,63.0,91.0
591,175.92784386249997,176.61913181041666,56.0,96.0
592,176.8369348625,177.18163186666663,60.0,104.0
593,176.8369348625,177.189207625,63.0,117.0
594,176.3823893625,177.9013289083333,51.0,63.0
595,177.7460258625,178.10019256458332,60.0,89.0
596,177.7460258625,178.10966226249997,63.0,104.0
597,177.7460258625,178.1115562020833,56.0,104.0
598,178.6551168625,178.82367748541665,60.0,96.0
599,178.6551168625,178.8369350625,56.0,113.0
600,175.92784386249997,178.84261688124997,44.0,110.0
601,178.6551168625,178.85587445833332,63.0,110.0
602,178.2005713625,178.8615562770833,51.0,46.0
603,179.1096623625,179.24223813333333,44.0,110.0
604,179.56420786249998,180.09640488541666,63.0,99.0
605,179.56420786249998,180.25928368958333,60.0,89.0
606,180.01875336249998,180.54148068749998,55.0,47.0
607,180.47329886249997,180.86155647708333,67.0,99.0
608,180.47329886249997,181.0092837645833,63.0,110.0
609,180.92784436249997,181.46382926458332,55.0,38.0
610,181.3823898625,181.8899656708333,60.0,89.0
611,181.3823898625,181.97708689166666,63.0,104.0
612,181.8369353625,182.39754147916665,55.0,54.0
613,179.56420786249998,183.06799609166666,48.0,101.0
614,182.29148086249998,183.11913246041667,60.0,104.0
615,182.29148086249998,183.1323900375,67.0,104.0
616,182.29148086249998,183.13617791666667,63.0,117.0
617,182.7460263625,183.1626930708333,55.0,64.0
618,183.2005718625,183.70625373125,53.0,96.0
619,183.2005718625,183.72140524791666,56.0,83.0
620,183.2005718625,183.74981434166665,60.0,96.0
621,183.6551173625,184.19867802291665,48.0,74.0
622,183.2005718625,184.36345076666666,41.0,106.0
623,184.1096628625,184.38996592083333,56.0,120.0
624,184.1096628625,184.45435986666666,60.0,109.0
625,184.56420836249998,184.8047386895833,41.0,104.0
626,185.01875386249998,185.36913268541667,62.0,106.0
627,185.01875386249998,185.39185996041664,58.0,101.0
628,185.01875386249998,185.41269329583332,55.0,89.0
629,185.47329936249997,186.0414812375,50.0,85.0
630,185.01875386249998,186.3842843020833,43.0,106.0
631,185.92784486249997,186.71951160833333,58.0,117.0
632,185.92784486249997,186.73845100416665,62.0,109.0
633,186.3823903625,186.74034494375,55.0,104.0
634,185.92784486249997,186.76117827916664,67.0,96.0
635,186.83693586249998,187.42216319374998,62.0,109.0
636,186.83693586249998,187.55095108541667,58.0,107.0
637,187.2914813625,187.82178444583332,53.0,89.0
638,186.83693586249998,187.83882990208332,46.0,113.0
639,187.7460268625,187.94678445833333,58.0,110.0
640,187.7460268625,188.14943599375,62.0,106.0
641,187.7460268625,188.2763299458333,65.0,106.0
642,188.2005723625,188.32367843541664,58.0,113.0
643,188.6551178625,189.19299670416666,67.0,96.0
644,188.6551178625,189.22519367708333,63.0,104.0
645,188.6551178625,189.29905732083333,60.0,94.0
646,189.1096633625,189.5945118958333,55.0,73.0
647,188.6551178625,189.64375432499997,48.0,101.0
648,189.56420886249998,189.734663425,60.0,99.0
649,189.56420886249998,190.030118,63.0,120.0
650,189.56420886249998,190.0414816375,67.0,104.0
651,190.01875436249998,190.15322407291666,60.0,104.0
652,190.47329986249997,190.93542112083333,60.0,94.0
653,190.47329986249997,191.06231507291665,63.0,101.0
654,190.47329986249997,191.19678478333333,56.0,104.0
655,190.9278453625,191.41458783541665,51.0,50.0
656,190.47329986249997,191.416481775,44.0,107.0
657,191.3823908625,191.52254239166666,56.0,117.0
658,191.3823908625,191.75360302083334,60.0,106.0
659,191.3823908625,191.86534545625,63.0,117.0
660,192.2914818625,192.89754252916666,63.0,99.0
661,192.2914818625,192.92595162291667,60.0,94.0
662,192.7460273625,193.2763304458333,55.0,42.0
663,193.2005728625,193.37860318333333,60.0,101.0
664,192.2914818625,193.40511833749997,48.0,101.0
665,193.2005728625,193.6172395708333,63.0,120.0
666,193.2005728625,193.69867897291664,67.0,104.0
667,194.10966386249999,194.6456487645833,58.0,104.0
668,194.10966386249999,194.6456487645833,62.0,104.0
669,194.10966386249999,194.80852756874998,55.0,91.0
670,194.56420936249998,195.25928518958332,50.0,76.0
671,194.10966386249999,195.416482175,43.0,104.0
672,195.01875486249997,195.48655793958332,58.0,120.0
673,195.01875486249997,195.48845187916666,62.0,109.0
674,195.47330036249997,195.63239128749998,55.0,99.0
675,195.9278458625,196.56042168333332,56.0,91.0
676,195.9278458625,196.66837623958332,53.0,99.0
677,196.3823913625,196.961936875,48.0,76.0
678,195.9278458625,197.1342853770833,41.0,101.0
679,196.83693686249998,197.26875508749998,56.0,120.0
680,196.83693686249998,197.28390660416665,60.0,109.0
681,197.2914823625,197.63049754791666,53.0,99.0
682,197.7460278625,197.99981576666664,58.0,113.0
683,197.7460278625,198.04337637708332,62.0,106.0
684,198.2005733625,198.77822493541666,53.0,45.0
685,198.6551188625,198.89943706875,62.0,112.0
686,198.6551188625,198.92216434374998,58.0,120.0
687,197.7460278625,198.9751946520833,46.0,96.0
688,199.56420986249998,199.89186141041665,39.0,113.0
689,199.56420986249998,199.98845232916665,58.0,117.0
690,199.56420986249998,200.0206493020833,63.0,113.0
691,199.56420986249998,200.03580081874998,55.0,99.0
692,200.47330086249997,200.71383118958332,55.0,112.0
693,200.47330086249997,200.74413422291667,62.0,112.0
694,200.47330086249997,200.7573918,59.0,112.0
695,200.7005736125,201.08883122708332,50.0,99.0
696,200.47330086249997,201.12671001874998,43.0,106.0
697,200.9278463625,201.19867972291667,55.0,112.0
698,201.3823918625,201.63996764583334,55.0,112.0
699,201.3823918625,201.99981616666665,60.0,112.0
700,201.83693736249998,202.10208890416664,55.0,96.0
701,202.2914828625,202.47708894166664,55.0,106.0
702,201.3823918625,202.5433768270833,48.0,106.0
703,202.2914828625,202.71572532916667,60.0,109.0
704,202.2914828625,202.72330108749998,63.0,110.0
705,202.7460283625,202.85587685833332,55.0,104.0
706,203.2005738625,203.58504359791664,60.0,101.0
707,203.2005738625,203.70246785208332,56.0,99.0
708,203.2005738625,203.97140727291665,53.0,99.0
709,203.6551193625,204.2914830625,48.0,74.0
710,203.2005738625,204.40890731666667,41.0,106.0
711,204.10966486249998,204.60777097291665,56.0,120.0
712,204.56421036249998,204.72140734791665,53.0,109.0
713,204.10966486249998,204.72708916666664,60.0,109.0
714,205.01875586249997,205.57746803958332,55.0,106.0
715,205.01875586249997,205.63239228749998,62.0,106.0
716,205.47330136249997,206.03011959999998,50.0,76.0
717,205.9278468625,206.2081499208333,55.0,112.0
718,205.01875586249997,206.2460287125,43.0,106.0
719,205.9278468625,206.46383176458332,62.0,109.0
720,205.9278468625,206.46572570416666,67.0,104.0
721,206.38239236249998,206.67216511875,55.0,96.0
722,206.8369378625,207.06799849166666,55.0,109.0
723,206.8369378625,207.4846652,60.0,104.0
724,207.2914833625,207.5433773270833,55.0,99.0
725,207.7460288625,207.95436221666665,55.0,106.0
726,207.7460288625,207.97519555208333,60.0,109.0
727,207.7460288625,208.01686222291664,63.0,117.0
728,206.8369378625,208.0661046520833,48.0,99.0
729,208.6551198625,208.916483525,60.0,101.0
730,208.6551198625,209.36534720625,65.0,104.0
731,209.10966536249998,209.37481690416666,60.0,82.0
732,208.6551198625,209.73277148541666,41.0,106.0
733,209.56421086249998,209.76307451875,60.0,109.0
734,209.56421086249998,210.04337757708333,65.0,112.0
735,209.56421086249998,210.0642109125,68.0,117.0
736,210.01875636249997,210.13239273749997,60.0,99.0
737,210.47330186249997,211.06610495208332,62.0,109.0
738,210.47330186249997,211.13049889791665,58.0,104.0
739,211.38239286249998,211.63618076666666,62.0,109.0
740,211.38239286249998,211.6551201625,58.0,113.0
741,210.9278473625,211.66648379999998,53.0,66.0
742,211.38239286249998,211.734665625,65.0,106.0
743,210.47330186249997,211.74224138333332,46.0,107.0
744,212.2914838625,212.79148391249998,63.0,113.0
745,212.2914838625,213.007393025,60.0,104.0
746,212.7460293625,213.39186276041664,55.0,69.0
747,213.2005748625,213.54905974583332,67.0,109.0
748,213.2005748625,213.56799914166663,63.0,120.0
749,212.2914838625,213.88067399583332,48.0,106.0
750,213.65512036249999,214.22875094791664,55.0,52.0
751,214.1152894,214.62875098125,53.0,96.0
752,214.1152894,214.64413559791666,56.0,83.0
753,214.1152894,214.67298175416664,60.0,96.0
754,214.57682789999998,215.12875102291665,48.0,74.0
755,214.1152894,215.29605872916665,41.0,106.0
756,215.03836639999997,215.3229818083333,56.0,120.0
757,215.03836639999997,215.38836642916664,60.0,109.0
758,215.4999049,215.74413568958332,41.0,104.0
759,215.96144339999998,216.31721266041666,62.0,106.0
760,215.96144339999998,216.34028958541666,58.0,101.0
761,215.96144339999998,216.3614434333333,55.0,89.0
762,216.4229819,216.99990502499998,50.0,85.0
763,215.96144339999998,217.34798197708332,43.0,106.0
764,216.88452039999999,217.6883666208333,58.0,117.0
765,216.88452039999999,217.70759739166664,62.0,109.0
766,217.34605889999997,217.70952046875,55.0,104.0
767,216.88452039999999,217.73067431666664,67.0,96.0
768,217.8075974,218.40182821874998,62.0,109.0
769,217.8075974,218.53259746041664,58.0,107.0
770,218.26913589999998,218.80468373333332,53.0,89.0
771,217.8075974,218.82172918958332,46.0,113.0
772,218.72892614999998,218.9296837458333,58.0,110.0
773,218.72892614999998,219.13233528125,62.0,106.0
774,218.72892614999998,219.25922923333331,65.0,106.0
775,219.18347164999997,219.30657772291664,58.0,113.0
776,219.63801714999997,220.17589599166664,67.0,96.0
777,219.63801714999997,220.2080929645833,63.0,104.0
778,219.63801714999997,220.2819566083333,60.0,94.0
779,220.09256265,220.5774111833333,55.0,73.0
780,219.63801714999997,220.62665361249998,48.0,101.0
781,220.54710814999999,220.71756271249998,60.0,99.0
782,220.54710814999999,221.0130172875,63.0,120.0
783,220.54710814999999,221.02438092499997,67.0,104.0
784,221.00165364999998,221.13612336041663,60.0,104.0
785,221.45619914999997,221.9183204083333,60.0,94.0
786,221.45619914999997,222.04521436041665,63.0,101.0
787,221.45619914999997,222.1796840708333,56.0,104.0
788,221.91074464999997,222.39748712291666,51.0,50.0
789,221.45619914999997,222.39938106249997,44.0,107.0
790,222.36529015,222.50544167916664,56.0,117.0
791,222.36529015,222.7365023083333,60.0,106.0
792,222.36529015,222.84824474374997,63.0,117.0
793,223.27438114999998,223.88044181666663,63.0,99.0
794,223.27438114999998,223.90885091041665,60.0,94.0
795,223.72892664999998,224.2592297333333,55.0,42.0
796,224.18347214999997,224.3615024708333,60.0,101.0
797,223.27438114999998,224.38801762499997,48.0,101.0
798,224.18347214999997,224.6001388583333,63.0,120.0
799,224.18347214999997,224.68157826041664,67.0,104.0
800,225.09256315,225.62854805208332,58.0,104.0
801,225.09256315,225.62854805208332,62.0,104.0
802,225.09256315,225.79142685624998,55.0,91.0
803,225.54710864999998,226.2421844770833,50.0,76.0
804,225.09256315,226.39938146249997,43.0,104.0
805,226.00165414999998,226.46945722708332,58.0,120.0
806,226.00165414999998,226.47135116666664,62.0,109.0
807,226.45619964999997,226.615290575,55.0,99.0
808,226.91074514999997,227.54332097083332,56.0,91.0
809,226.91074514999997,227.6512755270833,53.0,99.0
810,227.36529065,227.94483616249997,48.0,76.0
811,226.91074514999997,228.1171846645833,41.0,101.0
812,227.81983615,228.251654375,56.0,120.0
813,227.81983615,228.26680589166665,60.0,109.0
814,228.27438164999998,228.61339683541664,53.0,99.0
815,228.72892714999998,228.98271505416665,58.0,113.0
816,228.72892714999998,229.02627566458332,62.0,106.0
817,229.18347264999997,229.76112422291664,53.0,45.0
818,229.63801815,229.88233635625,62.0,112.0
819,229.63801815,229.90506363125,58.0,120.0
820,228.72892714999998,229.9580939395833,46.0,96.0
821,230.54710914999998,230.87476069791666,39.0,113.0
822,230.54710914999998,230.97135161666665,58.0,117.0
823,230.54710914999998,231.00354858958332,63.0,113.0
824,230.54710914999998,231.01870010624998,55.0,99.0
825,231.45620014999997,231.69673047708332,55.0,112.0
826,231.45620014999997,231.72703351041665,62.0,112.0
827,231.45620014999997,231.74029108749997,59.0,112.0
828,231.68347289999997,232.07173051458332,50.0,99.0
829,231.45620014999997,232.10960930624998,43.0,106.0
830,231.91074564999997,232.18157901041664,55.0,112.0
831,232.36529115,232.6228669333333,55.0,112.0
832,232.36529115,232.98271545416665,60.0,112.0
833,232.81983664999998,233.08498819166664,55.0,96.0
834,233.27438214999998,233.45998822916664,55.0,106.0
835,232.36529115,233.5262761145833,48.0,106.0
836,233.27438214999998,233.69862461666665,60.0,109.0
837,233.27438214999998,233.70620037499998,63.0,110.0
838,233.72892764999997,233.83877614583332,55.0,104.0
839,234.18347314999997,234.56794288541664,60.0,101.0
840,234.18347314999997,234.68536713958332,56.0,99.0
841,234.18347314999997,234.95430656041665,53.0,99.0
842,234.63801865,235.27438234999997,48.0,74.0
843,234.18347314999997,235.39180660416665,41.0,106.0
844,235.09256415,235.59067026041666,56.0,120.0
845,235.54710964999998,235.70430663541666,53.0,109.0
846,235.09256415,235.70998845416665,60.0,109.0
847,236.00165514999998,236.56036732708333,55.0,106.0
848,236.00165514999998,236.615291575,62.0,106.0
849,236.45620064999997,237.01301888749998,50.0,76.0
850,236.91074614999997,237.1910492083333,55.0,112.0
851,236.00165514999998,237.22892799999997,43.0,106.0
852,236.91074614999997,237.44673105208332,62.0,109.0
853,236.91074614999997,237.44862499166663,67.0,104.0
854,237.36529165,237.65506440624998,55.0,96.0
855,237.81983714999998,238.05089777916663,55.0,109.0
856,237.81983714999998,238.46756448749997,60.0,104.0
857,238.27438264999998,238.5262766145833,55.0,99.0
858,238.72892814999997,238.93726150416666,55.0,106.0
859,238.72892814999997,238.9580948395833,60.0,109.0
860,238.72892814999997,238.99976151041665,63.0,117.0
861,237.81983714999998,239.04900393958332,48.0,99.0
862,239.63801915,239.8993828125,60.0,101.0
863,239.63801915,240.34824649374997,65.0,104.0
864,240.09256464999999,240.35771619166664,60.0,82.0
865,239.63801915,240.71567077291664,41.0,106.0
866,240.54711014999998,240.74597380625,60.0,109.0
867,240.54711014999998,241.0262768645833,65.0,112.0
868,240.54711014999998,241.0471102,68.0,117.0
869,241.00165564999998,241.11529202499997,60.0,99.0
870,241.45620114999997,242.04900423958333,62.0,109.0
871,241.45620114999997,242.11339818541666,58.0,104.0
872,242.36529215,242.61908005416666,62.0,109.0
873,242.36529215,242.63801944999997,58.0,113.0
874,241.91074664999996,242.64938308749998,53.0,66.0
875,242.36529215,242.7175649125,65.0,106.0
876,241.45620114999997,242.7251406708333,46.0,107.0
877,243.27438314999998,243.7743832,63.0,113.0
878,243.27438314999998,243.99029231249997,60.0,104.0
879,243.72892864999997,244.37476204791665,55.0,69.0
880,244.18347415,244.53195903333332,67.0,109.0
881,244.18347415,244.55089842916664,63.0,120.0
882,243.27438314999998,244.8615045208333,48.0,106.0
883,244.63801965,245.20430758541664,55.0,52.0
884,245.09256514999998,245.59256519999997,63.0,113.0
885,245.09256514999998,245.80847431249998,60.0,104.0
886,245.54711064999998,246.19294404791665,55.0,69.0
887,246.00165614999997,246.3501410333333,67.0,109.0
888,246.00165614999997,246.36908042916664,63.0,120.0
889,245.09256514999998,246.67968652083331,48.0,106.0
890,246.45620164999997,247.02248958541665,55.0,52.0
891,247.36529265,247.86150482083332,55.0,55.0
892,247.81983814999998,248.70998975416666,60.0,99.0
893,248.27438364999998,249.44862619166665,55.0,42.0
894,246.91074715,249.68158076041664,48.0,99.0
895,248.72892914999997,250.15506565624997,63.0,77.0
896,248.72892914999997,250.27248991041665,67.0,91.0
897,251.00165664999997,251.5546870083333,50.0,32.0
898,251.91074764999996,253.3615053708333,50.0,55.0
899,250.54711114999998,253.44105083333332,43.0,91.0
900,251.45620214999997,253.67211146249997,58.0,91.0
901,252.36529314999999,253.68726297916663,62.0,106.0
902,254.58688428124998,255.15582370416664,51.0,86.0
903,254.1493842375,255.17457370416665,44.0,107.0
904,255.0287403708333,255.6974903708333,60.0,94.0
905,255.01415703749996,255.9662403708333,63.0,99.0
906,256.6016570375,257.31365983958335,50.0,89.0
907,256.10582370416665,257.46274235,43.0,104.0
908,257.16457732916666,259.6368567875,58.0,110.0
909,257.7976046041667,260.043999475,55.0,85.0
910,259.76542816250003,260.22971368333333,36.0,96.0
911,257.1760452145833,260.5797135375,62.0,106.0
912,262.95114112083337,265.4082829541667,60.0,109.0
913,264.3725691,265.7225685375,67.0,101.0
914,265.7225685375,266.34399685,72.0,104.0
915,266.9952282375,267.3351297125,72.0,17.0
916,266.92626272083334,267.3351297125,79.0,89.0
917,261.6082845375,267.42872577083335,55.0,76.0
918,267.77355335416667,268.56911985,84.0,99.0
919,267.62330705,268.9903021125,72.0,73.0
920,267.6356223208333,269.0346370875,55.0,47.0
921,268.46074546666665,269.1701050666667,79.0,42.0
922,260.76542774583334,271.12823312916663,48.0,96.0
