,start,end,pitch,velocity
0,4.3205042875,4.517085095833333,57.0,66.0
1,4.465803145833333,5.5491343395833335,59.0,69.0
2,4.589734525,5.5512710875,64.0,39.0
3,4.739306879166667,5.564091575,57.0,27.0
4,4.207256647916666,5.933748964583334,52.0,63.0
5,4.0277698229166665,5.965800183333333,45.0,83.0
6,8.655965810416667,8.92946954375,59.0,70.0
7,8.912375560416667,9.478613758333333,61.0,87.0
8,8.143146310416666,9.77562171875,45.0,74.0
9,8.399556060416666,9.779895214583334,52.0,55.0
10,9.425195060416666,10.111091141666666,64.0,83.0
11,9.681604810416667,10.1922875625,57.0,63.0
12,10.707243810416667,11.066217460416667,61.0,65.0
13,10.450834060416666,11.497840539583333,56.0,58.0
14,10.194424310416666,11.50638753125,49.0,69.0
15,10.963653560416667,11.6025411875,64.0,72.0
16,12.245702310416666,12.53202653125,57.0,66.0
17,12.245702310416666,12.77561579375,62.0,68.0
18,12.758521810416667,13.072623754166667,57.0,65.0
19,13.014931560416667,13.976468122916666,62.0,74.0
20,12.245702310416666,14.061938039583334,38.0,80.0
21,12.502112060416666,14.117493485416666,45.0,56.0
22,14.296980310416666,14.816210054166667,64.0,80.0
23,14.809799810416667,15.111081266666666,59.0,64.0
24,15.066209560416667,15.264927116666666,64.0,80.0
25,14.296980310416666,15.71150743125,40.0,69.0
26,14.553390060416666,15.747832145833334,47.0,60.0
27,16.348258310416668,16.876035045833333,64.0,80.0
28,16.861077810416667,17.029880895833333,57.0,80.0
29,17.117487560416667,17.62176006875,59.0,87.0
30,16.604668060416667,17.651674539583333,52.0,66.0
31,16.348258310416668,17.681589010416666,45.0,83.0
32,17.630307060416666,18.155947047916666,61.0,87.0
33,18.14312656041667,18.882441339583334,64.0,93.0
34,18.912355810416667,19.21150051875,61.0,60.0
35,19.168765560416666,19.46791026875,64.0,87.0
36,18.399536310416668,19.670901320833334,37.0,63.0
37,18.655946060416667,19.675174816666665,44.0,67.0
38,20.450814310416668,21.049103727083335,66.0,64.0
39,20.963633810416667,21.279872502083332,57.0,71.0
40,21.220043560416666,21.687991354166666,62.0,93.0
41,20.450814310416668,21.899529397916666,38.0,87.0
42,20.707224060416667,21.989272810416665,45.0,56.0
43,21.732863060416665,21.991409558333334,64.0,93.0
44,21.989272810416665,22.290554266666668,62.0,74.0
45,22.245682560416668,22.399528410416668,57.0,70.0
46,22.502092310416668,22.991407583333334,64.0,83.0
47,23.014911810416667,23.358928225,59.0,63.0
48,22.502092310416668,23.867474229166667,40.0,80.0
49,22.758502060416667,23.908072439583332,47.0,58.0
50,23.271321560416666,23.914482683333333,64.0,95.0
51,24.553370310416668,25.123882004166667,61.0,69.0
52,25.066189810416667,25.425163460416666,57.0,83.0
53,25.322599560416666,26.14738425625,66.0,69.0
54,24.553370310416668,26.324734333333332,42.0,58.0
55,24.809780060416667,26.399520510416668,49.0,45.0
56,26.348238560416668,27.14738228125,61.0,93.0
57,27.117467810416667,27.247809433333334,57.0,74.0
58,27.373877560416666,27.709346983333333,57.0,87.0
59,27.373877560416666,27.728577714583334,61.0,70.0
60,26.861058060416667,27.905927791666667,49.0,45.0
61,26.604648310416668,27.931568766666665,42.0,69.0
62,27.886697060416665,28.017038683333332,57.0,61.0
63,27.886697060416665,28.281995425,66.0,56.0
64,28.655926310416667,28.9230198,57.0,64.0
65,28.655926310416667,29.155925322916666,62.0,68.0
66,29.168745810416667,29.491394745833333,57.0,68.0
67,29.425155560416666,29.82686416875,62.0,87.0
68,28.655926310416667,30.087547414583334,38.0,87.0
69,28.912336060416667,30.168743835416667,45.0,50.0
70,29.937975060416665,30.213615541666666,64.0,83.0
71,30.194384810416665,30.521307241666666,62.0,83.0
72,30.707204310416667,31.220023810416667,64.0,80.0
73,31.220023810416667,31.504211283333333,59.0,71.0
74,31.476433560416666,31.604638435416668,64.0,90.0
75,31.989253060416665,32.194380860416665,66.0,72.0
76,30.707204310416667,32.27130378541667,40.0,72.0
77,30.963614060416667,32.3204489875,47.0,51.0
78,32.24566281041667,32.85249921875,64.0,87.0
79,32.75848231041667,32.85249921875,64.0,87.0
80,33.27130181041667,33.566173022916665,57.0,80.0
81,33.52771156041667,34.06189853958333,59.0,102.0
82,34.04053106041667,34.331128777083336,64.0,102.0
83,32.75848231041667,34.478564383333335,45.0,70.0
84,34.296940810416665,34.61104275416667,57.0,74.0
85,33.01489206041666,34.613179502083334,52.0,64.0
86,34.55335056041667,35.1153152625,64.0,102.0
87,35.06617006041667,35.382408752083336,58.0,68.0
88,35.32257981041667,35.5512118375,61.0,80.0
89,34.809760310416664,36.32685133125,46.0,71.0
90,35.578989560416666,36.32898807916666,64.0,87.0
91,36.86103831041667,37.267020414583335,59.0,69.0
92,36.86103831041667,37.46787471875,62.0,74.0
93,37.373857810416666,37.664455527083334,57.0,87.0
94,37.11744806041666,38.0896683625,54.0,63.0
95,37.63026756041667,38.16872803541666,62.0,72.0
96,36.86103831041667,38.207189497916666,47.0,80.0
97,38.14308706041667,38.4742829875,66.0,80.0
98,38.399496810416665,38.741376477083335,59.0,56.0
99,38.912316310416664,39.24137548958333,59.0,69.0
100,38.912316310416664,39.44222979375,64.0,74.0
101,39.42513581041667,39.56829792083333,59.0,63.0
102,39.681545560416666,40.055476445833335,64.0,80.0
103,39.16872606041667,40.4229970875,47.0,63.0
104,38.912316310416664,40.42727058333333,40.0,85.0
105,40.194365060416665,40.50419350833333,66.0,60.0
106,40.45077481041667,40.933679839583334,59.0,70.0
107,40.96359431041667,41.2947902375,52.0,66.0
108,40.96359431041667,41.55547348333333,59.0,68.0
109,40.96359431041667,42.452907608333334,40.0,80.0
110,41.22000406041666,42.452907608333334,47.0,63.0
111,41.476413810416666,42.683676383333335,52.0,69.0
112,41.73282356041667,42.743505325,59.0,37.0
113,41.73282356041667,42.982821091666665,64.0,80.0
114,43.52769181041667,43.82256302291667,57.0,65.0
115,43.784101560416666,44.17298968125,59.0,95.0
116,44.296921060416665,44.4486301625,57.0,80.0
117,44.296921060416665,44.60674950833333,61.0,80.0
118,44.55333081041667,44.856749014583336,57.0,71.0
119,43.01487231041666,44.901620720833336,45.0,80.0
120,43.27128206041667,44.92726169583333,52.0,65.0
121,44.809740560416664,45.611021029166665,61.0,70.0
122,45.578969810416666,45.837516308333335,57.0,61.0
123,45.32256006041666,46.48281417916667,52.0,61.0
124,45.06615031041667,46.51913889375,45.0,80.0
125,45.83537956041667,46.78409563541667,64.0,95.0
126,47.11742831041666,47.6281110625,61.0,67.0
127,47.63024781041667,47.81187138333333,57.0,69.0
128,47.886657560416666,48.19648600833333,59.0,80.0
129,47.11742831041666,48.982809241666665,42.0,70.0
130,48.399477060416665,49.02981769583333,61.0,70.0
131,47.37383806041667,49.03195444375,49.0,56.0
132,48.912296560416664,49.44648353958333,57.0,72.0
133,49.16870631041667,49.8332349125,42.0,83.0
134,49.681525810416666,49.974260275,57.0,87.0
135,49.42511606041667,50.22425978125,49.0,56.0
136,50.45075506041667,50.88237813958333,49.0,64.0
137,50.194345310416665,51.004172770833335,40.0,80.0
138,49.93793556041667,51.17297585625,61.0,93.0
139,50.707164810416664,51.19006983958333,52.0,67.0
140,51.21998431041666,51.54049649791666,62.0,80.0
141,51.476394060416666,51.80331649166666,57.0,71.0
142,51.73280381041667,51.86314543333334,62.0,74.0
143,51.989213560416665,52.27553778125,64.0,87.0
144,51.21998431041666,52.78408378541667,50.0,71.0
145,52.502033060416665,52.79690427291666,62.0,93.0
146,52.75844281041667,52.95288687083333,57.0,74.0
147,53.27126231041667,53.57040701875,59.0,64.0
148,53.27126231041667,53.78621855833333,64.0,72.0
149,53.784081810416666,54.01485058541667,59.0,65.0
150,54.04049156041667,54.60672975833333,64.0,87.0
151,53.27126231041667,54.7050201625,40.0,80.0
152,53.52767206041667,54.707156910416664,47.0,58.0
153,54.809720810416664,55.06826730833333,59.0,70.0
154,55.06613056041667,55.7819411125,64.0,83.0
155,55.83535981041667,55.94647070208333,59.0,65.0
156,56.091769560416665,56.38877752083334,61.0,93.0
157,56.604589060416664,56.76911865,64.0,102.0
158,55.578950060416666,57.1921947375,52.0,66.0
159,55.32254031041666,57.2306562,45.0,80.0
160,57.37381831041667,57.67082627083333,59.0,68.0
161,57.37381831041667,57.8845010625,62.0,80.0
162,57.63022806041667,57.93364626458333,54.0,61.0
163,57.37381831041667,58.002022197916666,47.0,68.0
164,57.886637810416666,58.179372275,59.0,93.0
165,58.14304756041667,58.252021704166665,62.0,87.0
166,58.399457310416665,58.912276810416664,37.0,74.0
167,58.399457310416665,58.92723404583333,64.0,87.0
168,58.65586706041667,58.99347323125,44.0,47.0
169,58.912276810416664,59.1921907875,61.0,80.0
170,59.16868656041667,59.3844981,64.0,74.0
171,59.42509631041666,59.88022361666667,62.0,67.0
172,59.93791581041667,60.09603515625,57.0,83.0
173,60.194325560416665,60.457145554166665,62.0,93.0
174,59.681506060416666,61.31398146875,45.0,59.0
175,59.42509631041666,61.32893870416667,38.0,87.0
176,60.707145060416664,61.418682116666666,57.0,74.0
177,60.707145060416664,62.055432995833335,66.0,59.0
178,61.989193810416666,62.13449266875,57.0,93.0
179,62.24560356041667,62.43150062916666,62.0,93.0
180,61.73278406041667,62.82893574166667,45.0,61.0
181,61.476374310416666,62.83961948125,38.0,87.0
182,62.75842306041667,63.0126960625,57.0,69.0
183,62.75842306041667,63.03192679375,64.0,69.0
184,64.04047181041666,64.59388952083333,57.0,71.0
185,64.29688156041667,64.59388952083333,61.0,69.0
186,64.80970106041667,64.91440170833333,61.0,70.0
187,64.80970106041667,64.92081195208333,57.0,74.0
188,63.784062060416666,64.9229487,52.0,68.0
189,63.52765231041666,64.94645292708333,45.0,93.0
190,64.80970106041667,64.948589675,64.0,90.0
191,65.57893031041667,66.93149174166666,39.0,60.0
192,65.57893031041667,67.36525156875,63.0,59.0
193,65.57893031041667,67.38020880416667,66.0,66.0
194,65.57893031041667,67.41653351875,69.0,80.0
195,68.14302781041667,68.44644601458333,52.0,68.0
196,68.39943756041667,68.71140275625,57.0,87.0
197,68.91225706041666,69.1152481125,59.0,80.0
198,67.63020831041666,69.47208501458333,40.0,69.0
199,67.88661806041667,69.5255037125,47.0,68.0
200,69.16866681041667,69.52977720833333,52.0,68.0
201,69.68148631041667,70.8075524625,40.0,80.0
202,70.19430581041667,70.84174042916666,52.0,63.0
203,69.93789606041666,70.846013925,47.0,58.0
204,70.45071556041667,70.91866335416667,56.0,52.0
205,69.42507656041667,71.11738091041667,64.0,102.0
206,72.24558381041666,72.57464298958334,57.0,63.0
207,72.50199356041666,73.17293240625,64.0,93.0
208,71.73276431041667,73.57036751875,45.0,83.0
209,73.27122281041666,73.58746150208333,59.0,66.0
210,71.98917406041667,73.59600849375,52.0,63.0
211,73.52763256041666,74.34814376041666,61.0,61.0
212,74.29686181041667,74.55754505625,57.0,65.0
213,74.55327156041666,75.13660374166666,59.0,74.0
214,75.32250081041667,75.6921582,57.0,54.0
215,75.32250081041667,75.71138893125,61.0,37.0
216,74.04045206041667,75.77976486458333,52.0,68.0
217,73.78404231041667,75.80113234375,45.0,87.0
218,76.34813981041667,76.62164354375,59.0,70.0
219,76.60454956041667,77.17078775833333,61.0,87.0
220,75.83532031041666,77.46779571875,45.0,74.0
221,76.09173006041667,77.47206921458333,52.0,55.0
222,77.11736906041666,77.80326514166667,64.0,83.0
223,77.37377881041667,77.8844615625,57.0,63.0
224,78.39941781041667,78.75839146041666,61.0,65.0
225,78.14300806041666,79.19001453958333,56.0,58.0
226,77.88659831041667,79.19856153125,49.0,69.0
227,78.65582756041667,79.2947151875,64.0,72.0
228,79.93787631041667,80.22420053125,57.0,66.0
229,79.93787631041667,80.46778979375,62.0,68.0
230,80.45069581041666,80.76479775416666,57.0,65.0
231,80.70710556041666,81.66864212291667,62.0,74.0
232,79.93787631041667,81.75411203958333,38.0,80.0
233,80.19428606041667,81.80966748541667,45.0,56.0
234,81.98915431041667,82.50838405416667,64.0,80.0
235,82.50197381041667,82.80325526666667,59.0,64.0
236,82.75838356041666,82.95710111666666,64.0,80.0
237,81.98915431041667,83.40368143124999,40.0,69.0
238,82.24556406041667,83.44000614583334,47.0,60.0
239,84.04043231041666,84.56820904583333,64.0,80.0
240,84.55325181041667,84.72205489583334,57.0,80.0
241,84.80966156041667,85.31393406875,59.0,87.0
242,84.29684206041667,85.34384853958333,52.0,66.0
243,84.04043231041666,85.37376301041667,45.0,83.0
244,85.32248106041666,85.84812104791666,61.0,87.0
245,85.83530056041667,86.57461533958333,64.0,93.0
246,86.60452981041666,86.90367451875,61.0,60.0
247,86.86093956041667,87.16008426875,64.0,87.0
248,86.09171031041667,87.36307532083333,37.0,63.0
249,86.34812006041666,87.36734881666666,44.0,67.0
250,88.14298831041667,88.74127772708333,66.0,64.0
251,88.65580781041666,88.97204650208333,57.0,71.0
252,88.91221756041666,89.38016535416666,62.0,93.0
253,88.14298831041667,89.59170339791666,38.0,87.0
254,88.39939806041667,89.68144681041666,45.0,56.0
255,89.42503706041667,89.68358355833334,64.0,93.0
256,89.68144681041666,89.98272826666667,62.0,74.0
257,89.93785656041666,90.09170241041667,57.0,70.0
258,90.19426631041667,90.68358158333334,64.0,83.0
259,90.70708581041667,91.051102225,59.0,63.0
260,90.19426631041667,91.55964822916667,40.0,80.0
261,90.45067606041667,91.60024643958333,47.0,58.0
262,90.96349556041666,91.60665668333333,64.0,95.0
263,92.24554431041666,92.81605600416667,61.0,69.0
264,92.75836381041667,93.11733746041666,57.0,83.0
265,93.01477356041667,93.83955825625,66.0,69.0
266,92.24554431041666,94.01690833333333,42.0,58.0
267,92.50195406041667,94.09169451041667,49.0,45.0
268,94.04041256041667,94.83955628125,61.0,93.0
269,94.80964181041666,94.93998343333334,57.0,74.0
270,95.06605156041667,95.40152098333333,57.0,87.0
271,95.06605156041667,95.42075171458333,61.0,70.0
272,94.55323206041666,95.59810179166666,49.0,45.0
273,94.29682231041667,95.62374276666667,42.0,69.0
274,95.57887106041666,95.70921268333333,57.0,61.0
275,95.57887106041666,95.974169425,66.0,56.0
276,96.34810031041667,96.6151938,57.0,64.0
277,96.34810031041667,96.84809932291667,62.0,68.0
278,96.86091981041666,97.18356874583333,57.0,68.0
279,97.11732956041666,97.51903816875,62.0,87.0
280,96.34810031041667,97.77972141458334,38.0,87.0
281,96.60451006041667,97.86091783541667,45.0,50.0
282,97.63014906041667,97.90578954166666,64.0,83.0
283,97.88655881041667,98.21348124166667,62.0,83.0
284,98.39937831041667,98.91219781041667,64.0,80.0
285,98.91219781041667,99.19638528333333,59.0,71.0
286,99.16860756041666,99.29681243541667,64.0,90.0
287,99.68142706041667,99.88655486041667,66.0,72.0
288,98.39937831041667,99.96347778541667,40.0,72.0
289,98.65578806041667,100.0126229875,47.0,51.0
290,99.93783681041667,100.54467321875,64.0,87.0
291,100.45065631041666,100.54467321875,64.0,87.0
292,100.96347581041667,101.25834702291667,57.0,80.0
293,101.21988556041667,101.75407253958333,59.0,102.0
294,101.73270506041666,102.02330277708333,64.0,102.0
295,100.45065631041666,102.17073838333333,45.0,70.0
296,101.98911481041667,102.30321675416667,57.0,74.0
297,100.70706606041666,102.30535350208334,52.0,64.0
298,102.24552456041667,102.8074892625,64.0,102.0
299,102.75834406041666,103.07458275208333,58.0,68.0
300,103.01475381041666,103.2433858375,61.0,80.0
301,102.50193431041667,104.01902533125,46.0,71.0
302,103.27116356041667,104.02116207916667,64.0,87.0
303,104.55321231041667,104.95919441458334,59.0,69.0
304,104.55321231041667,105.16004871875,62.0,74.0
305,105.06603181041666,105.35662952708333,57.0,87.0
306,104.80962206041667,105.7818423625,54.0,63.0
307,105.32244156041666,105.86090203541667,62.0,72.0
308,104.55321231041667,105.89936349791667,47.0,80.0
309,105.83526106041667,106.1664569875,66.0,80.0
310,106.09167081041667,106.43355047708333,59.0,56.0
311,106.60449031041667,106.93354948958333,59.0,69.0
312,106.60449031041667,107.13440379375,64.0,74.0
313,107.11730981041667,107.26047192083334,59.0,63.0
314,107.37371956041666,107.74765044583333,64.0,80.0
315,106.86090006041667,108.1151710875,47.0,63.0
316,106.60449031041667,108.11944458333333,40.0,85.0
317,107.88653906041667,108.19636750833334,66.0,60.0
318,108.14294881041667,108.62585383958333,59.0,70.0
319,108.65576831041666,108.9869642375,52.0,66.0
320,108.65576831041666,109.24764748333334,59.0,68.0
321,108.65576831041666,110.14508160833333,40.0,80.0
322,108.91217806041666,110.14508160833333,47.0,63.0
323,109.16858781041667,110.37585038333333,52.0,69.0
324,109.42499756041667,110.435679325,59.0,37.0
325,109.42499756041667,110.67499509166666,64.0,80.0
326,111.21986581041666,111.51473702291666,57.0,65.0
327,111.47627556041667,111.86516368125,59.0,95.0
328,111.98909506041666,112.1408041625,57.0,80.0
329,111.98909506041666,112.29892350833333,61.0,80.0
330,112.24550481041666,112.54892301458334,57.0,71.0
331,110.70704631041667,112.59379472083333,45.0,80.0
332,110.96345606041666,112.61943569583333,52.0,65.0
333,112.50191456041667,113.30319502916667,61.0,70.0
334,113.27114381041666,113.52969030833333,57.0,61.0
335,113.01473406041667,114.17498817916666,52.0,61.0
336,112.75832431041667,114.21131289375,45.0,80.0
337,113.52755356041666,114.47626963541667,64.0,95.0
338,114.80960231041666,115.3202850625,61.0,67.0
339,115.32242181041667,115.50404538333333,57.0,69.0
340,115.57883156041666,115.88866000833333,59.0,80.0
341,114.80960231041666,116.67498324166667,42.0,70.0
342,116.09165106041667,116.72199169583334,61.0,70.0
343,115.06601206041667,116.72412844375,49.0,56.0
344,116.60447056041667,117.13865753958333,57.0,72.0
345,116.86088031041666,117.5254089125,42.0,83.0
346,117.37369981041667,117.666434275,57.0,87.0
347,117.11729006041666,117.91643378125,49.0,56.0
348,118.14292906041666,118.57455213958333,49.0,64.0
349,117.88651931041666,118.69634677083333,40.0,80.0
350,117.63010956041667,118.86514985625,61.0,93.0
351,118.39933881041667,118.88224383958334,52.0,67.0
352,118.91215831041667,119.23267049791667,62.0,80.0
353,119.16856806041666,119.49549049166667,57.0,71.0
354,119.42497781041666,119.55531943333334,62.0,74.0
355,119.68138756041667,119.96771178125,64.0,87.0
356,118.91215831041667,120.47625778541666,50.0,71.0
357,120.19420706041667,120.48907827291667,62.0,93.0
358,120.45061681041666,120.64506087083333,57.0,74.0
359,120.96343631041667,121.26258101875,59.0,64.0
360,120.96343631041667,121.47839255833333,64.0,72.0
361,121.47625581041666,121.70702458541666,59.0,65.0
362,121.73266556041666,122.29890375833334,64.0,87.0
363,120.96343631041667,122.3971941625,40.0,80.0
364,121.21984606041667,122.39933091041667,47.0,58.0
365,122.50189481041667,122.76044130833333,59.0,70.0
366,122.75830456041666,123.4741151125,64.0,83.0
367,123.52753381041667,123.63864470208333,59.0,65.0
368,123.78394356041666,124.08095152083334,61.0,93.0
369,124.29676306041667,124.46129265,64.0,102.0
370,123.27112406041667,124.8843687375,52.0,66.0
371,123.01471431041666,124.92283019999999,45.0,80.0
372,125.06599231041666,125.36300027083334,59.0,68.0
373,125.06599231041666,125.5766750625,62.0,80.0
374,125.32240206041666,125.62582026458334,54.0,61.0
375,125.06599231041666,125.69419619791667,47.0,68.0
376,125.57881181041667,125.871546275,59.0,93.0
377,125.83522156041667,125.94419570416666,62.0,87.0
378,126.09163131041666,126.60445081041667,37.0,74.0
379,126.09163131041666,126.61940804583334,64.0,87.0
380,126.34804106041666,126.68564723125,44.0,47.0
381,126.60445081041667,126.8843647875,61.0,80.0
382,126.86086056041667,127.0766721,64.0,74.0
383,127.11727031041667,127.57239761666666,62.0,67.0
384,127.63008981041666,127.78820915625,57.0,83.0
385,127.88649956041667,128.14931955416665,62.0,93.0
386,127.37368006041666,129.00615546875,45.0,59.0
387,127.11727031041667,129.02111270416665,38.0,87.0
388,128.39931906041667,129.11085611666667,57.0,74.0
389,128.39931906041667,129.74760699583334,66.0,59.0
390,129.68136781041667,129.82666666875,57.0,93.0
391,129.93777756041666,130.12367462916666,62.0,93.0
392,129.42495806041666,130.52110974166666,45.0,61.0
393,129.16854831041667,130.53179348125,38.0,87.0
394,130.45059706041667,130.7048700625,57.0,69.0
395,130.45059706041667,130.72410079375,64.0,69.0
396,131.73264581041667,132.28606352083332,57.0,71.0
397,131.98905556041666,132.28606352083332,61.0,69.0
398,132.50187506041667,132.60657570833334,61.0,70.0
399,132.50187506041667,132.61298595208333,57.0,74.0
400,131.47623606041665,132.6151227,52.0,68.0
401,131.21982631041666,132.63862692708332,45.0,93.0
402,132.50187506041667,132.640763675,64.0,90.0
403,133.27110431041666,134.62366574166666,39.0,60.0
404,133.27110431041666,135.05742556875,63.0,59.0
405,133.27110431041666,135.07238280416666,66.0,66.0
406,133.27110431041666,135.10870751875,69.0,80.0
407,135.83520181041666,136.13862001458332,52.0,68.0
408,136.09161156041665,136.40357675625,57.0,87.0
409,136.60443106041666,136.8074221125,59.0,80.0
410,135.32238231041666,137.16425901458334,40.0,69.0
411,135.57879206041667,137.2176777125,47.0,68.0
412,136.86084081041668,137.22195120833334,52.0,68.0
413,137.37366031041665,138.4997264625,40.0,80.0
414,137.88647981041666,138.53391442916666,52.0,63.0
415,137.63007006041667,138.538187925,47.0,58.0
416,138.14288956041668,138.61083735416668,56.0,52.0
417,137.11725056041666,138.80955491041667,64.0,102.0
418,139.93775781041666,140.26040674583334,57.0,69.0
419,139.42493831041668,140.89929437291667,45.0,58.0
420,139.68134806041667,141.00613176875,52.0,80.0
421,140.19416756041667,141.44416509166666,64.0,80.0
422,141.98903581041665,142.30741125,59.0,55.0
423,141.73262606041666,142.41211189791667,54.0,41.0
424,142.75826506041668,142.98048684375,54.0,61.0
425,141.47621631041667,143.02749529791666,47.0,66.0
426,142.24544556041667,143.09800797916665,66.0,65.0
427,143.01467481041666,143.28817854375,62.0,69.0
428,143.27108456041665,143.64501544583334,59.0,61.0
429,144.04031381041668,144.34159526666667,61.0,60.0
430,143.52749431041667,144.897149725,37.0,54.0
431,143.78390406041666,144.9612521625,44.0,44.0
432,144.29672356041667,145.13005524791666,64.0,61.0
433,145.06595281041666,145.29885833333333,61.0,68.0
434,145.32236256041668,145.50398613333334,57.0,55.0
435,145.57877231041667,145.83731880833332,57.0,68.0
436,145.57877231041667,145.94201945625,62.0,67.0
437,146.09159181041667,146.48902692291668,57.0,71.0
438,146.34800156041666,147.06167536458332,62.0,36.0
439,145.83518206041666,147.17278625625,45.0,54.0
440,145.57877231041667,147.18560674375,38.0,83.0
441,147.11723081041666,147.41423877083332,64.0,80.0
442,147.37364056041667,147.61081957916667,62.0,74.0
443,147.63005031041666,148.16423728958333,61.0,67.0
444,148.14286981041667,148.46124525,57.0,66.0
445,148.39927956041666,148.92705629583332,59.0,80.0
446,147.63005031041666,149.48261075416667,45.0,65.0
447,147.88646006041665,149.52320896458332,52.0,60.0
448,148.91209906041666,149.69201205,61.0,66.0
449,150.45055756041666,150.99756502708334,59.0,71.0
450,149.68132831041666,151.19414583541666,47.0,67.0
451,150.19414781041667,151.20696632291666,54.0,44.0
452,150.96337706041666,151.26679526458332,62.0,87.0
453,151.73260631041666,152.52320303958334,64.0,85.0
454,151.73260631041666,152.79670677291668,49.0,68.0
455,152.24542581041666,152.80098026875,56.0,52.0
456,152.50183556041668,153.05525327083333,61.0,69.0
457,153.01465506041666,153.1279027,64.0,80.0
458,153.78388431041665,154.127900725,57.0,65.0
459,153.78388431041665,154.26465259166667,62.0,64.0
460,154.29670381041666,154.60439551041668,57.0,68.0
461,154.55311356041668,154.8843094875,62.0,87.0
462,154.04029406041667,155.23046265,45.0,58.0
463,153.78388431041665,155.2689241125,38.0,83.0
464,155.06593306041665,155.39499223958333,57.0,72.0
465,155.06593306041665,155.41422297083332,64.0,80.0
466,155.83516231041668,156.36293904583334,61.0,65.0
467,156.34798181041666,156.61721204791667,57.0,60.0
468,156.60439156041667,156.9868694375,59.0,83.0
469,157.11721106041668,157.46336422291665,61.0,74.0
470,155.83516231041668,157.49327869375,45.0,72.0
471,156.09157206041667,157.56806487083333,52.0,65.0
472,157.88644031041667,158.41421704583334,59.0,63.0
473,157.88644031041667,158.60652435833333,62.0,69.0
474,157.88644031041667,159.31378791875,47.0,53.0
475,158.39925981041665,159.43130905416666,54.0,47.0
476,158.65566956041667,159.48259100416666,59.0,68.0
477,159.93771831041667,160.75181926666667,64.0,74.0
478,160.45053781041668,161.20694657291668,56.0,51.0
479,159.93771831041667,161.2304508,49.0,69.0
480,160.70694756041667,161.24540803541666,61.0,71.0
481,161.21976706041667,161.36720266666666,64.0,87.0
482,161.98899631041667,162.34155971666667,57.0,66.0
483,161.98899631041667,162.61292670208334,62.0,72.0
484,162.50181581041667,163.1919853875,57.0,68.0
485,162.75822556041666,163.27959205208333,62.0,74.0
486,161.98899631041667,163.33087400208333,50.0,67.0
487,163.27104506041667,163.59369399583332,64.0,74.0
488,163.52745481041666,164.13429121875,62.0,85.0
489,163.78386456041667,164.25608585,57.0,65.0
490,164.55309381041667,164.90779396458333,55.0,60.0
491,164.80950356041666,165.33514354791666,62.0,74.0
492,165.57873281041665,165.8330058125,55.0,56.0
493,164.04027431041666,165.90351849375,43.0,80.0
494,164.29668406041665,165.90779198958333,50.0,64.0
495,165.32232306041666,166.00608239375,64.0,74.0
496,166.86078156041665,167.43770349791666,52.0,80.0
497,167.37360106041666,167.73684820625,59.0,69.0
498,166.09155231041666,167.96761698125,40.0,85.0
499,166.60437181041667,168.01889893125,47.0,61.0
500,167.63001081041668,168.47829973333333,52.0,74.0
501,167.88642056041667,168.92915354375,64.0,93.0
502,168.65564981041666,169.00607646875,52.0,72.0
503,168.91205956041668,169.45479353125,59.0,80.0
504,168.14283031041666,169.99111725833333,40.0,90.0
505,168.39924006041667,170.01675823333332,47.0,63.0
506,169.68128881041667,170.17060408333333,52.0,71.0
507,169.42487906041666,170.18556131875,64.0,93.0
508,169.93769856041666,170.20906554583334,59.0,66.0
509,170.70692781041666,171.04453398125,54.0,71.0
510,170.19410831041665,171.04880747708333,42.0,80.0
511,171.21974731041666,171.55521673333334,52.0,71.0
512,171.21974731041666,171.75179754166666,56.0,69.0
513,171.73256681041667,172.12572842708335,52.0,90.0
514,171.21974731041666,172.13641216666667,44.0,87.0
515,172.75820581041665,173.05307702291665,57.0,65.0
516,173.01461556041667,173.40350368125,59.0,95.0
517,173.52743506041668,173.6791441625,57.0,80.0
518,173.52743506041668,173.83726350833334,61.0,80.0
519,173.78384481041667,174.08726301458333,57.0,71.0
520,172.24538631041668,174.13213472083333,45.0,80.0
521,172.50179606041667,174.15777569583332,52.0,65.0
522,174.04025456041666,174.84153502916666,61.0,70.0
523,174.80948381041668,175.06803030833333,57.0,61.0
524,174.55307406041666,175.71332817916667,52.0,61.0
525,174.29666431041667,175.74965289375,45.0,80.0
526,175.06589356041667,176.01460963541666,64.0,95.0
527,176.34794231041667,176.8586250625,61.0,67.0
528,176.86076181041668,177.04238538333334,57.0,69.0
529,177.11717156041666,177.42700000833332,59.0,80.0
530,176.34794231041667,178.21332324166667,42.0,70.0
531,177.62999106041667,178.26033169583334,61.0,70.0
532,176.60435206041666,178.26246844375,49.0,56.0
533,178.14281056041668,178.67699753958334,57.0,72.0
534,178.39922031041667,179.0637489125,42.0,83.0
535,178.91203981041667,179.204774275,57.0,87.0
536,178.65563006041666,179.45477378125,49.0,56.0
537,179.68126906041667,180.11289213958332,49.0,64.0
538,179.42485931041668,180.23468677083332,40.0,80.0
539,179.16844956041666,180.40348985625,61.0,93.0
540,179.93767881041666,180.42058383958334,52.0,67.0
541,180.45049831041666,180.77101049791668,62.0,80.0
542,180.70690806041668,181.03383049166666,57.0,71.0
543,180.96331781041667,181.09365943333333,62.0,74.0
544,181.21972756041666,181.50605178125,64.0,87.0
545,180.45049831041666,182.01459778541667,50.0,71.0
546,181.73254706041666,182.02741827291666,62.0,93.0
547,181.98895681041665,182.18340087083334,57.0,74.0
548,182.50177631041666,182.80092101875,59.0,64.0
549,182.50177631041666,183.01673255833333,64.0,72.0
550,183.01459581041667,183.24536458541667,59.0,65.0
551,183.27100556041665,183.83724375833333,64.0,87.0
552,182.50177631041666,183.9355341625,40.0,80.0
553,182.75818606041668,183.93767091041667,47.0,58.0
554,184.04023481041668,184.29878130833333,59.0,70.0
555,184.29664456041667,185.0124551125,64.0,83.0
556,185.06587381041666,185.17698470208333,59.0,65.0
557,185.32228356041668,185.61929152083334,61.0,93.0
558,185.83510306041666,185.99963265,64.0,102.0
559,184.80946406041667,186.4227087375,52.0,66.0
560,184.55305431041666,186.4611702,45.0,80.0
561,186.60433231041665,186.90134027083334,59.0,68.0
562,186.60433231041665,187.1150150625,62.0,80.0
563,186.86074206041667,187.16416026458333,54.0,61.0
564,186.60433231041665,187.23253619791666,47.0,68.0
565,187.11715181041666,187.409886275,59.0,93.0
566,187.37356156041668,187.48253570416668,62.0,87.0
567,187.62997131041666,188.14279081041667,37.0,74.0
568,187.62997131041666,188.15774804583333,64.0,87.0
569,187.88638106041665,188.22398723125,44.0,47.0
570,188.14279081041667,188.4227047875,61.0,80.0
571,188.39920056041666,188.6150121,64.0,74.0
572,188.65561031041668,189.11073761666665,62.0,67.0
573,189.16842981041665,189.32654915625,57.0,83.0
574,189.42483956041667,189.68765955416666,62.0,93.0
575,188.91202006041667,190.54449546875,45.0,59.0
576,188.65561031041668,190.55945270416666,38.0,87.0
577,189.93765906041668,190.64919611666667,57.0,74.0
578,189.93765906041668,191.28594699583334,66.0,59.0
579,191.21970781041668,191.36500666875,57.0,93.0
580,191.47611756041667,191.66201462916666,62.0,93.0
581,190.96329806041666,192.05944974166667,45.0,61.0
582,190.70688831041667,192.07013348125,38.0,87.0
583,191.98893706041667,192.2432100625,57.0,69.0
584,191.98893706041667,192.26244079375,64.0,69.0
585,193.27098581041668,193.82440352083333,57.0,71.0
586,193.52739556041666,193.82440352083333,61.0,69.0
587,194.04021506041667,194.14491570833334,61.0,70.0
588,194.04021506041667,194.15132595208334,57.0,74.0
589,193.01457606041666,194.1534627,52.0,68.0
590,192.75816631041667,194.17696692708333,45.0,93.0
591,194.04021506041667,194.179103675,64.0,90.0
592,194.80944431041667,196.16200574166666,39.0,60.0
593,194.80944431041667,196.59576556875,63.0,59.0
594,194.80944431041667,196.61072280416667,66.0,66.0
595,194.80944431041667,196.64704751874999,69.0,80.0
596,197.37354181041667,197.67696001458333,52.0,68.0
597,197.62995156041666,197.94191675625,57.0,87.0
598,198.14277106041666,198.3457621125,59.0,80.0
599,196.86072231041666,198.70259901458334,40.0,69.0
600,197.11713206041668,198.7560177125,47.0,68.0
601,198.39918081041665,198.76029120833334,52.0,68.0
602,198.91200031041666,200.0380664625,40.0,80.0
603,199.42481981041666,200.07225442916666,52.0,63.0
604,199.16841006041668,200.076527925,47.0,58.0
605,199.68122956041665,200.14917735416665,56.0,52.0
606,198.65559056041667,200.34789491041667,64.0,102.0
607,200.96327831041665,201.53165325625,57.0,70.0
608,200.96327831041665,201.74532804791667,61.0,72.0
609,201.73250756041668,202.03592576458334,57.0,87.0
610,201.47609781041666,202.3585747,52.0,68.0
611,202.24532706041666,202.48677957499999,57.0,93.0
612,202.24532706041666,202.76242005625,61.0,103.0
613,200.96327831041665,202.77737729166665,45.0,85.0
614,202.50173681041667,202.85002672083334,52.0,59.0
615,202.75814656041666,202.87566769583333,57.0,87.0
616,203.01455631041668,203.10643647083333,62.0,93.0
617,203.01455631041668,203.11712021041666,59.0,87.0
618,203.01455631041668,203.14489793333334,47.0,72.0
619,203.27096606041667,203.66840117291667,62.0,87.0
620,203.27096606041667,203.67481141666667,47.0,85.0
621,203.27096606041667,203.68763190416666,59.0,80.0
622,204.04019531041666,204.17267368125,61.0,69.0
623,204.04019531041666,204.1919044125,64.0,83.0
624,204.04019531041666,204.20686164791667,49.0,83.0
625,204.29660506041665,204.4995961125,61.0,83.0
626,204.29660506041665,204.50814310416666,49.0,74.0
627,204.29660506041665,204.5124166,64.0,93.0
628,205.57865381041665,205.87352502291665,57.0,65.0
629,205.83506356041667,206.22395168124999,59.0,95.0
630,206.34788306041668,206.4995921625,57.0,80.0
631,206.34788306041668,206.65771150833334,61.0,80.0
632,206.60429281041667,206.90771101458333,57.0,71.0
633,205.06583431041668,206.95258272083333,45.0,80.0
634,205.32224406041666,206.97822369583332,52.0,65.0
635,206.86070256041666,207.66198302916666,61.0,70.0
636,207.62993181041668,207.88847830833333,57.0,61.0
637,207.37352206041666,208.53377617916667,52.0,61.0
638,207.11711231041667,208.57010089375,45.0,80.0
639,207.88634156041667,208.83505763541666,64.0,95.0
640,209.16839031041667,209.6790730625,61.0,67.0
641,209.68120981041668,209.86283338333334,57.0,69.0
642,209.93761956041666,210.24744800833332,59.0,80.0
643,209.16839031041667,211.03377124166667,42.0,70.0
644,210.45043906041667,211.08077969583334,61.0,70.0
645,209.42480006041666,211.08291644375,49.0,56.0
646,210.96325856041668,211.49744553958334,57.0,72.0
647,211.21966831041667,211.8841969125,42.0,83.0
648,211.73248781041667,212.025222275,57.0,87.0
649,211.47607806041665,212.27522178125,49.0,56.0
650,212.50171706041667,212.93334013958332,49.0,64.0
651,212.24530731041668,213.05513477083332,40.0,80.0
652,211.98889756041666,213.22393785625,61.0,93.0
653,212.75812681041666,213.24103183958334,52.0,67.0
654,213.27094631041666,213.59145849791668,62.0,80.0
655,213.52735606041668,213.85427849166666,57.0,71.0
656,213.78376581041667,213.91410743333333,62.0,74.0
657,214.04017556041666,214.32649978125,64.0,87.0
658,213.27094631041666,214.83504578541667,50.0,71.0
659,214.55299506041666,214.84786627291666,62.0,93.0
660,214.80940481041665,215.00384887083334,57.0,74.0
661,215.32222431041666,215.62136901875,59.0,64.0
662,215.32222431041666,215.83718055833333,64.0,72.0
663,215.83504381041666,216.06581258541667,59.0,65.0
664,216.09145356041665,216.65769175833333,64.0,87.0
665,215.32222431041666,216.7559821625,40.0,80.0
666,215.57863406041668,216.75811891041667,47.0,58.0
667,216.86068281041668,217.11922930833333,59.0,70.0
668,217.11709256041667,217.8329031125,64.0,83.0
669,217.88632181041666,217.99743270208333,59.0,65.0
670,218.14273156041668,218.43973952083334,61.0,93.0
671,218.65555106041666,218.82008065,64.0,102.0
672,217.62991206041667,219.2431567375,52.0,66.0
673,217.37350231041665,219.2816182,45.0,80.0
674,219.42478031041668,219.72178827083334,59.0,68.0
675,219.42478031041668,219.9354630625,62.0,80.0
676,219.68119006041667,219.98460826458333,54.0,61.0
677,219.42478031041668,220.05298419791666,47.0,68.0
678,219.93759981041666,220.230334275,59.0,93.0
679,220.19400956041667,220.30298370416668,62.0,87.0
680,220.45041931041666,220.96323881041667,37.0,74.0
681,220.45041931041666,220.97819604583333,64.0,87.0
682,220.70682906041665,221.04443523125,44.0,47.0
683,220.96323881041667,221.2431527875,61.0,80.0
684,221.21964856041666,221.4354601,64.0,74.0
685,221.47605831041668,221.93118561666665,62.0,67.0
686,221.98887781041665,222.14699715625,57.0,83.0
687,222.24528756041667,222.50810755416666,62.0,93.0
688,221.73246806041666,223.36494346875,45.0,59.0
689,221.47605831041668,223.37990070416666,38.0,87.0
690,222.75810706041668,223.46964411666667,57.0,74.0
691,222.75810706041668,224.10639499583334,66.0,59.0
692,224.04015581041668,224.18545466875,57.0,93.0
693,224.29656556041667,224.48246262916666,62.0,93.0
694,223.78374606041666,224.87989774166667,45.0,61.0
695,223.52733631041667,224.89058148125,38.0,87.0
696,224.80938506041667,225.0636580625,57.0,69.0
697,224.80938506041667,225.08288879375,64.0,69.0
698,226.09143381041667,226.64485152083333,57.0,71.0
699,226.34784356041666,226.64485152083333,61.0,69.0
700,226.86066306041667,226.96536370833334,61.0,70.0
701,226.86066306041667,226.97177395208334,57.0,74.0
702,225.83502406041666,226.9739107,52.0,68.0
703,225.57861431041667,226.99741492708333,45.0,93.0
704,226.86066306041667,226.999551675,64.0,90.0
705,227.62989231041666,228.98245374166666,39.0,60.0
706,227.62989231041666,229.41621356875,63.0,59.0
707,227.62989231041666,229.43117080416667,66.0,66.0
708,227.62989231041666,229.46749551874998,69.0,80.0
709,230.19398981041667,230.49740801458333,52.0,68.0
710,230.45039956041666,230.76236475625,57.0,87.0
711,230.96321906041666,231.1662101125,59.0,80.0
712,229.68117031041666,231.52304701458334,40.0,69.0
713,229.93758006041668,231.5764657125,47.0,68.0
714,231.21962881041668,231.58073920833334,52.0,68.0
715,231.73244831041666,232.8585144625,40.0,80.0
716,232.24526781041666,232.89270242916666,52.0,63.0
717,231.98885806041667,232.896975925,47.0,58.0
718,232.50167756041665,232.96962535416665,56.0,52.0
719,231.47603856041667,233.16834291041667,64.0,102.0
720,234.55295556041668,234.89910872291668,59.0,68.0
721,234.80936531041667,235.09568953125,61.0,87.0
722,235.06577506041666,235.3969709875,64.0,83.0
723,234.29654581041666,237.07218135416667,52.0,55.0
724,233.78372631041665,237.18542899375,45.0,87.0
725,235.83500431041668,237.26448866666667,61.0,39.0
726,235.83500431041668,237.307223625,69.0,68.0
727,235.83500431041668,237.32431760833333,64.0,55.0
728,235.32218481041667,237.34995858333332,57.0,66.0
729,238.39910181041665,238.6661953,62.0,64.0
730,238.65551156041667,239.01448521041667,64.0,93.0
731,239.16833106041668,239.54012519791667,66.0,87.0
732,239.93756031041667,240.32431168333332,69.0,80.0
733,239.93756031041667,240.3456791625,62.0,65.0
734,241.21960906041667,241.38200190208335,62.0,69.0
735,238.14269206041666,241.48456580208332,57.0,60.0
736,237.88628231041668,241.58071945833333,50.0,87.0
737,241.21960906041667,241.89268465416666,66.0,71.0
738,241.47601881041666,242.0379835125,62.0,71.0
739,242.50165781041667,242.79652902291667,57.0,61.0
740,241.98883831041667,243.27088706041667,45.0,80.0
741,242.75806756041666,243.28370754791666,59.0,85.0
742,242.24524806041666,243.29225453958333,52.0,55.0
743,243.27088706041667,243.358493725,61.0,83.0
744,244.04011631041666,246.01447138541667,51.0,65.0
745,244.04011631041666,246.02729187291666,63.0,55.0
746,244.04011631041666,246.07216357916667,66.0,54.0
747,246.86062356041666,247.43968224583332,64.0,64.0
748,247.37344306041666,247.67258776875,69.0,80.0
749,246.09139431041666,247.90121979583333,52.0,80.0
750,246.60421381041667,247.94395475416667,59.0,54.0
751,247.62985281041668,247.94395475416667,71.0,74.0
752,248.14267231041666,248.73668823124999,52.0,66.0
753,248.14267231041666,251.29010199166666,76.0,72.0
754,248.14267231041666,251.31574296666668,64.0,66.0
755,252.76445805416665,253.17685040208335,57.0,64.0
756,253.04650877916666,253.42898665625,62.0,56.0
757,253.54650779166667,253.78582355833333,64.0,68.0
758,252.24736505833334,254.0636007875,45.0,68.0
759,252.50804830416666,254.07428452708334,52.0,49.0
760,254.7687276,255.08282954375,57.0,59.0
761,255.04436808124998,255.42470921041667,59.0,69.0
762,255.55291408541666,255.72171717083333,61.0,59.0
763,255.55291408541666,255.73240091041666,57.0,66.0
764,254.54436906875,256.0486396020833,52.0,50.0
765,254.27086533541666,256.0892378125,45.0,74.0
766,256.26231439375,256.6554760104167,61.0,49.0
767,256.38624577291665,256.8029116166667,64.0,34.0
768,256.24094691458333,256.82855259166666,57.0,34.0
769,256.8328260875,258.3200026375,52.0,41.0
770,256.2858186208333,258.37342133541665,45.0,68.0
771,257.3712865625,259.4460687895833,57.0,72.0
772,257.95889223958335,259.5550429333333,64.0,83.0
773,259.81358943125,260.23880226666665,57.0,63.0
774,259.64264959791666,260.52298973958335,50.0,49.0
775,259.92897381875,260.73239103541664,62.0,63.0
776,260.0529051979167,260.8435019270833,66.0,37.0
777,262.3584562,262.68751537916665,69.0,63.0
778,262.3584562,262.68751537916665,69.0,63.0
779,262.5934984708333,262.73452383333336,71.0,63.0
780,262.83922448124997,263.14691618125,73.0,61.0
781,263.1447794333333,263.2943517875,76.0,70.0
782,263.512300075,263.6746929166667,81.0,51.0
783,263.94392315416667,264.0999057520833,85.0,33.0
784,264.6362294791667,264.8178530520833,81.0,36.0
785,264.66828069791666,264.87127175,85.0,41.0
786,264.74734037083334,264.95887841458335,93.0,33.0
787,262.15760189583335,265.56785157083334,52.0,60.0
788,262.15760189583335,265.56785157083334,52.0,60.0
789,261.9482006,265.57853531041667,45.0,68.0
790,261.9482006,265.57853531041667,45.0,68.0
