,start,end,pitch,velocity
0,38.50861894166667,38.817646225,60.0,115.0
1,38.92528494166667,39.650978224999996,60.0,109.0
2,39.758616941666666,40.07285255,63.0,123.0
3,40.175282941666666,40.48778244166667,62.0,118.0
4,40.591948941666665,40.87319849166666,60.0,112.0
5,41.008614941666664,41.32458665833333,60.0,109.0
6,41.425280941666664,41.71521103333333,58.0,120.0
7,41.84194694166666,44.19784595,60.0,112.0
8,44.341942941666666,44.644025791666664,63.0,120.0
9,44.758608941666665,45.07110844166667,65.0,112.0
10,45.175274941666665,45.473885575,67.0,109.0
11,45.591940941666664,46.270759299999995,67.0,109.0
12,46.42527294166666,46.72041135833333,72.0,112.0
13,46.84193894166666,47.163118983333334,70.0,123.0
14,47.25860494166666,47.53985449166667,72.0,112.0
15,47.67527094166667,47.998187091666665,70.0,123.0
16,48.09193694166667,48.373186491666665,65.0,115.0
17,48.508602941666666,50.77422431666666,67.0,112.0
18,51.00859894166666,51.308945683333334,67.0,115.0
19,51.42526494166666,51.70998670833333,70.0,117.0
20,51.84193094166667,52.130124925,72.0,106.0
21,52.25859694166667,52.96172081666666,72.0,115.0
22,53.091928941666666,53.37144238333333,70.0,117.0
23,53.508594941666665,54.09713566666667,72.0,109.0
24,54.341926941666664,54.63706535833333,67.0,112.0
25,54.75859294166666,55.01900919166666,63.0,117.0
26,55.17525894166666,55.446091841666664,65.0,109.0
27,55.59192494166666,56.23949335,65.0,118.0
28,56.42525694166667,56.744700875,63.0,117.0
29,56.84192294166667,57.597130066666665,67.0,115.0
30,58.508586941666664,58.963447325,62.0,115.0
31,59.13358594166667,59.26032185,62.0,109.0
32,59.34191894166666,59.583237999999994,62.0,112.0
33,59.75858494166666,60.050251141666664,60.0,109.0
34,60.17525094166666,60.4374033,58.0,120.0
35,60.59191694166666,60.926985849999994,60.0,106.0
36,61.00858294166667,61.29504081666666,63.0,120.0
37,61.425248941666666,61.685665191666665,62.0,115.0
38,61.841914941666666,64.92871555833334,60.0,112.0
39,65.17524294166667,65.484270225,60.0,115.0
40,65.59190894166666,66.317602225,60.0,109.0
41,66.42524094166666,66.73947654999999,63.0,123.0
42,66.84190694166666,67.15440644166667,62.0,118.0
43,67.25857294166666,67.53982249166667,60.0,112.0
44,67.67523894166666,67.99121065833333,60.0,109.0
45,68.09190494166667,68.38183503333333,58.0,120.0
46,68.50857094166666,70.86446995,60.0,112.0
47,71.00856694166666,71.31064979166666,63.0,120.0
48,71.42523294166666,71.73773244166667,65.0,112.0
49,71.84189894166667,72.140509575,67.0,109.0
50,72.25856494166666,72.9373833,67.0,109.0
51,73.09189694166666,73.38703535833334,72.0,112.0
52,73.50856294166667,73.82974298333333,70.0,123.0
53,73.92522894166666,74.20647849166666,72.0,112.0
54,74.34189494166667,74.66481109166666,70.0,123.0
55,74.75856094166666,75.03981049166666,65.0,115.0
56,75.17522694166666,77.44084831666666,67.0,112.0
57,77.67522294166666,77.97556968333333,67.0,115.0
58,78.09188894166667,78.37661070833333,70.0,117.0
59,78.50855494166666,78.796748925,72.0,106.0
60,78.92522094166667,79.62834481666667,72.0,115.0
61,79.75855294166666,80.03806638333333,70.0,117.0
62,80.17521894166666,80.76375966666666,72.0,109.0
63,81.00855094166667,81.30368935833333,67.0,112.0
64,81.42521694166666,81.68563319166667,63.0,117.0
65,81.84188294166667,82.11271584166666,65.0,109.0
66,82.25854894166666,82.90611735,65.0,118.0
67,83.09188094166666,83.41132487499999,63.0,117.0
68,83.50854694166667,84.26375406666666,67.0,115.0
69,85.17521094166666,85.630071325,62.0,115.0
70,85.80020994166667,85.92694585,62.0,109.0
71,86.00854294166666,86.249862,62.0,112.0
72,86.42520894166667,86.71687514166666,60.0,109.0
73,86.84187494166666,87.1040273,58.0,120.0
74,87.25854094166667,87.59360984999999,60.0,106.0
75,87.67520694166666,87.96166481666667,63.0,120.0
76,88.09187294166667,88.35228919166666,62.0,115.0
77,88.50853894166666,91.32277055,60.0,112.0
78,91.42520094166666,91.73770044166666,67.0,118.0
79,91.84186694166667,92.11443595,72.0,115.0
80,92.25853294166666,92.53804638333332,72.0,109.0
81,92.67519894166666,92.97554568333332,72.0,112.0
82,93.09186494166666,93.36790616666666,70.0,123.0
83,93.50853094166666,94.59359864999999,72.0,112.0
84,94.75852894166667,95.03977849166667,75.0,120.0
85,95.17519494166666,95.46859725,74.0,118.0
86,95.59186094166667,95.84186054166666,72.0,106.0
87,96.00852694166666,96.32970698333332,70.0,120.0
88,96.42519294166667,96.68560919166666,65.0,115.0
89,96.84185894166666,97.78456576666666,67.0,115.0
90,98.50852294166667,98.94428613333334,74.0,112.0
91,99.13352194166666,99.23768844166666,74.0,112.0
92,99.34185494166667,99.60227119166666,74.0,112.0
93,99.75852094166666,100.04671492499999,72.0,109.0
94,100.17518694166667,100.45470038333333,70.0,120.0
95,100.59185294166666,100.81407480833333,72.0,109.0
96,101.00851894166667,101.32101844166667,70.0,120.0
97,101.42518494166666,101.69428173333333,65.0,115.0
98,101.84185094166666,104.10573620833333,67.0,112.0
99,104.75851294166667,105.02587362499999,67.0,115.0
100,105.17517894166666,105.45469238333332,65.0,112.0
101,105.59184494166666,105.69080311666666,65.0,106.0
102,105.80017794166666,105.92517774166666,67.0,112.0
103,106.00851094166666,106.275871625,65.0,118.0
104,106.42517694166666,106.70121816666666,63.0,120.0
105,106.84184294166666,107.775869225,65.0,115.0
106,108.09184094166666,108.38697935833333,67.0,115.0
107,108.50850694166667,108.80017314166666,70.0,120.0
108,108.92517294166666,109.18385308333333,72.0,106.0
109,109.34183894166667,109.57447745833333,70.0,123.0
110,109.75850494166666,110.05190725,58.0,120.0
111,110.17517094166666,111.04322510833333,60.0,106.0
112,111.84183494166666,112.28454256666666,74.0,115.0
113,112.46683394166666,112.57447265833333,74.0,115.0
114,112.67516694166666,112.93905540833333,74.0,112.0
115,113.09183294166667,113.35224919166666,72.0,112.0
116,113.50849894166666,113.76891519166666,70.0,117.0
117,113.92516494166667,114.61787216666666,67.0,115.0
118,114.75849694166666,115.04495481666666,70.0,117.0
119,115.17516294166666,117.74633938333332,72.0,112.0
120,118.09182494166666,118.40432444166666,67.0,118.0
121,118.50849094166666,118.78105995,72.0,115.0
122,118.92515694166666,119.20467038333332,72.0,109.0
123,119.34182294166666,119.64216968333332,72.0,112.0
124,119.75848894166666,120.03453016666666,70.0,123.0
125,120.17515494166666,121.26022264999999,72.0,112.0
126,121.42515294166667,121.70640249166667,75.0,120.0
127,121.84181894166666,122.13522125,74.0,118.0
128,122.25848494166667,122.50848454166666,72.0,106.0
129,122.67515094166666,122.99633098333332,70.0,120.0
130,123.09181694166666,123.35223319166666,65.0,115.0
131,123.50848294166666,124.45118976666666,67.0,115.0
132,125.17514694166667,125.61091013333333,74.0,112.0
133,125.80014594166666,125.90431244166666,74.0,112.0
134,126.00847894166667,126.26889519166666,74.0,112.0
135,126.42514494166666,126.71333892499999,72.0,109.0
136,126.84181094166667,127.12132438333333,70.0,120.0
137,127.25847694166666,127.48069880833333,72.0,109.0
138,127.67514294166666,127.98764244166667,70.0,120.0
139,128.09180894166667,128.36090573333334,65.0,115.0
140,128.50847494166666,130.77236020833334,67.0,112.0
141,131.42513694166666,131.692497625,67.0,115.0
142,131.84180294166666,132.12131638333332,65.0,112.0
143,132.25846894166665,132.35742711666666,65.0,106.0
144,132.46680194166666,132.59180174166667,67.0,112.0
145,132.67513494166667,132.942495625,65.0,118.0
146,133.09180094166666,133.36784216666666,63.0,120.0
147,133.50846694166665,134.442493225,65.0,115.0
148,134.75846494166666,135.05360335833333,67.0,115.0
149,135.17513094166665,135.46679714166666,70.0,120.0
150,135.59179694166667,135.85047708333332,72.0,106.0
151,136.00846294166666,136.24110145833333,70.0,123.0
152,136.42512894166666,136.71853124999998,58.0,120.0
153,136.84179494166665,137.70984910833332,60.0,106.0
154,138.50845894166667,138.95116656666667,74.0,115.0
155,139.13345794166665,139.24109665833333,74.0,115.0
156,139.34179094166666,139.60567940833332,74.0,112.0
157,139.75845694166665,140.01887319166667,72.0,112.0
158,140.17512294166667,140.43553919166666,70.0,117.0
159,140.59178894166666,141.28449616666666,67.0,115.0
160,141.42512094166665,141.71157881666667,70.0,117.0
161,141.84178694166667,144.41296338333333,72.0,112.0
162,171.84173894166665,172.15076622499998,60.0,115.0
163,172.25840494166667,172.984098225,60.0,109.0
164,173.09173694166665,173.40597255,63.0,123.0
165,173.50840294166665,173.82090244166665,62.0,118.0
166,173.92506894166667,174.20631849166665,60.0,112.0
167,174.34173494166666,174.65770665833332,60.0,109.0
168,174.75840094166665,175.0483310333333,58.0,120.0
169,175.17506694166667,177.53096595,60.0,112.0
170,177.67506294166665,177.97714579166666,63.0,120.0
171,178.09172894166664,178.40422844166665,65.0,112.0
172,178.50839494166667,178.807005575,67.0,109.0
173,178.92506094166666,179.6038793,67.0,109.0
174,179.75839294166667,180.05353135833332,72.0,112.0
175,180.17505894166666,180.4962389833333,70.0,123.0
176,180.59172494166666,180.87297449166667,72.0,112.0
177,181.00839094166665,181.33130709166664,70.0,123.0
178,181.42505694166667,181.70630649166665,65.0,115.0
179,181.84172294166666,184.10734431666666,67.0,112.0
180,184.34171894166667,184.64206568333333,67.0,115.0
181,184.75838494166666,185.0431067083333,70.0,117.0
182,185.17505094166665,185.463244925,72.0,106.0
183,185.59171694166665,186.29484081666666,72.0,115.0
184,186.42504894166666,186.70456238333333,70.0,117.0
185,186.84171494166665,187.43025566666665,72.0,109.0
186,187.67504694166666,187.97018535833334,67.0,112.0
187,188.09171294166666,188.35212919166665,63.0,117.0
188,188.50837894166665,188.77921184166667,65.0,109.0
189,188.92504494166667,189.57261334999998,65.0,118.0
190,189.75837694166665,190.077820875,63.0,117.0
191,190.17504294166665,190.93025006666664,67.0,115.0
192,191.84170694166667,192.29656732499998,62.0,115.0
193,192.46670594166665,192.59344185,62.0,109.0
194,192.67503894166666,192.916358,62.0,112.0
195,193.09170494166665,193.38337114166666,60.0,109.0
196,193.50837094166667,193.77052329999998,58.0,120.0
197,193.92503694166666,194.26010585,60.0,106.0
198,194.34170294166665,194.62816081666665,63.0,120.0
199,194.75836894166665,195.01878519166667,62.0,115.0
200,195.17503494166667,197.98926655,60.0,112.0
201,198.09169694166667,198.40419644166667,67.0,118.0
202,198.50836294166666,198.78093195,72.0,115.0
203,198.92502894166665,199.20454238333332,72.0,109.0
204,199.34169494166665,199.64204168333333,72.0,112.0
205,199.75836094166667,200.03440216666667,70.0,123.0
206,200.17502694166666,201.26009464999998,72.0,112.0
207,201.42502494166666,201.70627449166665,75.0,120.0
208,201.84169094166666,202.13509324999998,74.0,118.0
209,202.25835694166665,202.50835654166667,72.0,106.0
210,202.67502294166667,202.99620298333332,70.0,120.0
211,203.09168894166666,203.35210519166665,65.0,115.0
212,203.50835494166665,204.45106176666667,67.0,115.0
213,205.17501894166665,205.61078213333332,74.0,112.0
214,205.80001794166665,205.90418444166664,74.0,112.0
215,206.00835094166666,206.26876719166665,74.0,112.0
216,206.42501694166666,206.713210925,72.0,109.0
217,206.84168294166665,207.1211963833333,70.0,120.0
218,207.25834894166667,207.4805708083333,72.0,109.0
219,207.67501494166666,207.98751444166666,70.0,120.0
220,208.09168094166665,208.36077773333332,65.0,115.0
221,208.50834694166664,210.77223220833332,67.0,112.0
222,211.42500894166665,211.692369625,67.0,115.0
223,211.84167494166667,212.12118838333333,65.0,112.0
224,212.25834094166666,212.35729911666667,65.0,106.0
225,212.46667394166667,212.59167374166665,67.0,112.0
226,212.67500694166665,212.942367625,65.0,118.0
227,213.09167294166664,213.36771416666664,63.0,120.0
228,213.50833894166666,214.442365225,65.0,115.0
229,214.75833694166667,215.05347535833332,67.0,115.0
230,215.17500294166666,215.46666914166667,70.0,120.0
231,215.59166894166665,215.85034908333333,72.0,106.0
232,216.00833494166665,216.24097345833331,70.0,123.0
233,216.42500094166667,216.71840325,58.0,120.0
234,216.84166694166666,217.70972110833333,60.0,106.0
235,218.50833094166666,218.95103856666665,74.0,115.0
236,219.13332994166666,219.24096865833332,74.0,115.0
237,219.34166294166667,219.60555140833333,74.0,112.0
238,219.75832894166666,220.01874519166665,72.0,112.0
239,220.17499494166665,220.43541119166665,70.0,117.0
240,220.59166094166665,221.28436816666667,67.0,115.0
241,221.42499294166666,221.71145081666666,70.0,117.0
242,221.84165894166665,224.41283538333332,72.0,112.0
243,224.75832094166665,225.07082044166665,67.0,118.0
244,225.17498694166665,225.44755594999998,72.0,115.0
245,225.59165294166667,225.87116638333333,72.0,109.0
246,226.00831894166666,226.30866568333332,72.0,112.0
247,226.42498494166665,226.70102616666665,70.0,123.0
248,226.84165094166664,227.92671865,72.0,112.0
249,228.09164894166665,228.37289849166666,75.0,120.0
250,228.50831494166667,228.80171725,74.0,118.0
251,228.92498094166666,229.17498054166666,72.0,106.0
252,229.34164694166665,229.66282698333333,70.0,120.0
253,229.75831294166665,230.01872919166667,65.0,115.0
254,230.17497894166667,231.11768576666665,67.0,115.0
255,231.84164294166666,232.27740613333333,74.0,112.0
256,232.46664194166667,232.57080844166666,74.0,112.0
257,232.67497494166665,232.93539119166667,74.0,112.0
258,233.09164094166667,233.37983492499998,72.0,109.0
259,233.50830694166666,233.78782038333333,70.0,120.0
260,233.92497294166665,234.14719480833332,72.0,109.0
261,234.34163894166664,234.65413844166665,70.0,120.0
262,234.75830494166667,235.02740173333333,65.0,115.0
263,235.17497094166666,237.43885620833333,67.0,112.0
264,238.09163294166666,238.35899362499998,67.0,115.0
265,238.50829894166665,238.78781238333332,65.0,112.0
266,238.92496494166664,239.02392311666665,65.0,106.0
267,239.13329794166665,239.25829774166667,67.0,112.0
268,239.34163094166666,239.608991625,65.0,118.0
269,239.75829694166666,240.03433816666666,63.0,120.0
270,240.17496294166665,241.108989225,65.0,115.0
271,241.42496094166665,241.72009935833333,67.0,115.0
272,241.84162694166665,242.13329314166666,70.0,120.0
273,242.25829294166667,242.5169730833333,72.0,106.0
274,242.67495894166666,242.90759745833333,70.0,123.0
275,243.09162494166665,243.38502724999998,58.0,120.0
276,243.50829094166664,244.3763451083333,60.0,106.0
277,245.17495494166667,245.61766256666667,74.0,115.0
278,245.79995394166664,245.90759265833333,74.0,115.0
279,246.00828694166665,246.2721754083333,74.0,112.0
280,246.42495294166665,246.68536919166667,72.0,112.0
281,246.84161894166667,247.10203519166666,70.0,117.0
282,247.25828494166666,247.95099216666665,67.0,115.0
283,248.09161694166664,248.37807481666667,70.0,117.0
284,248.50828294166666,251.07945938333333,72.0,112.0
285,251.42494494166667,251.73744444166667,67.0,118.0
286,251.84161094166666,252.11417995,72.0,115.0
287,252.25827694166665,252.53779038333332,72.0,109.0
288,252.67494294166664,252.97528968333333,72.0,112.0
289,253.09160894166666,253.36765016666666,70.0,123.0
290,253.50827494166666,254.59334264999998,72.0,112.0
291,254.75827294166666,255.03952249166665,75.0,120.0
292,255.17493894166665,255.46834124999998,74.0,118.0
293,255.59160494166665,255.84160454166667,72.0,106.0
294,256.00827094166664,256.32945098333334,70.0,120.0
295,256.42493694166666,256.68535319166665,65.0,115.0
296,256.8416029416667,257.78430976666664,67.0,115.0
297,258.50826694166665,258.94403013333334,74.0,112.0
298,259.13326594166665,259.23743244166667,74.0,112.0
299,259.34159894166663,259.6020151916667,74.0,112.0
300,259.75826494166665,260.04645892499997,72.0,109.0
301,260.1749309416667,260.45444438333334,70.0,120.0
302,260.59159694166664,260.81381880833334,72.0,109.0
303,261.00826294166666,261.32076244166666,70.0,120.0
304,261.4249289416667,261.6940257333333,65.0,115.0
305,261.84159494166664,264.10548020833335,67.0,112.0
306,264.7582569416667,265.025617625,67.0,115.0
307,265.17492294166664,265.4544363833333,65.0,112.0
308,265.59158894166666,265.69054711666666,65.0,106.0
309,265.79992194166664,265.92492174166665,67.0,112.0
310,266.0082549416667,266.275615625,65.0,118.0
311,266.42492094166664,266.70096216666667,63.0,120.0
312,266.84158694166666,267.775613225,65.0,115.0
313,268.09158494166667,268.3867233583333,67.0,115.0
314,268.50825094166663,268.79991714166664,70.0,120.0
315,268.92491694166665,269.1835970833333,72.0,106.0
316,269.3415829416667,269.57422145833334,70.0,123.0
317,269.75824894166664,270.05165124999996,58.0,120.0
318,270.17491494166666,271.0429691083333,60.0,106.0
319,271.8415789416667,272.28428656666665,74.0,115.0
320,272.4665779416666,272.57421665833334,74.0,115.0
321,272.67491094166667,272.9387994083333,74.0,112.0
322,273.09157694166663,273.3519931916667,72.0,112.0
323,273.50824294166665,273.76865919166664,70.0,117.0
324,273.9249089416667,274.61761616666666,67.0,115.0
325,274.75824094166666,275.04469881666665,70.0,117.0
326,275.1749069416667,277.7460833833333,72.0,112.0
327,278.09156894166665,278.40406844166665,67.0,118.0
328,278.5082349416667,278.78080395,72.0,115.0
329,278.92490094166664,279.2044143833333,72.0,109.0
330,279.34156694166666,279.6419136833333,72.0,112.0
331,279.7582329416667,280.03427416666665,70.0,123.0
332,280.17489894166664,281.25996664999997,72.0,112.0
333,281.42489694166665,281.70614649166663,75.0,120.0
334,281.84156294166667,282.13496525,74.0,118.0
335,282.25822894166663,282.50822854166665,72.0,106.0
336,282.67489494166665,282.9960749833333,70.0,120.0
337,283.09156094166667,283.35197719166666,65.0,115.0
338,283.50822694166663,284.45093376666665,67.0,115.0
339,285.17489094166666,285.6106541333333,74.0,112.0
340,285.79988994166666,285.9040564416666,74.0,112.0
341,286.00822294166665,286.26863919166664,74.0,112.0
342,286.42488894166667,286.713082925,72.0,109.0
343,286.84155494166663,287.1210683833333,70.0,120.0
344,287.25822094166665,287.4804428083333,72.0,109.0
345,287.67488694166667,287.9873864416667,70.0,120.0
346,288.09155294166663,288.36064973333333,65.0,115.0
347,288.50821894166666,290.7721042083333,67.0,112.0
348,291.42488094166663,291.692241625,67.0,115.0
349,291.84154694166665,292.1210603833333,65.0,112.0
350,292.25821294166667,292.3571711166667,65.0,106.0
351,292.46654594166665,292.59154574166666,67.0,112.0
352,292.67487894166663,292.942239625,65.0,118.0
353,293.09154494166665,293.3675861666666,63.0,120.0
354,293.5082109416667,294.442237225,65.0,115.0
355,294.7582089416667,295.0533473583333,67.0,115.0
356,295.17487494166664,295.46654114166665,70.0,120.0
357,295.59154094166666,295.85022108333334,72.0,106.0
358,296.00820694166663,296.2408454583333,70.0,123.0
359,296.42487294166665,296.71827525,58.0,120.0
360,296.84153894166667,297.7095931083333,60.0,106.0
361,298.50820294166664,298.95091056666666,74.0,115.0
362,299.13320194166664,299.2408406583333,74.0,115.0
363,299.3415349416667,299.6054234083333,74.0,112.0
364,299.75820094166664,300.01861719166664,72.0,112.0
365,300.17486694166666,300.43528319166666,70.0,117.0
366,300.5915329416666,301.2842401666667,67.0,115.0
367,301.42486494166667,301.71132281666667,70.0,117.0
368,301.84153094166663,304.4127073833333,72.0,112.0
369,305.1748589416666,305.4543723833333,65.0,112.0
370,305.59152494166665,305.69048311666666,65.0,106.0
371,305.79985794166663,305.92485774166664,67.0,112.0
372,306.00819094166667,306.275551625,65.0,118.0
373,306.42485694166663,306.70089816666666,63.0,120.0
374,306.84152294166665,307.77554922499996,65.0,115.0
375,308.09152094166666,308.3866593583333,67.0,115.0
376,308.5081869416667,308.79985314166663,70.0,120.0
377,308.92757034166664,309.1974975,72.0,106.0
378,309.3623523416667,309.605105625,70.0,123.0
379,309.8000987916667,310.1201742291667,58.0,120.0
380,310.2546437916667,311.2016125416667,60.0,106.0
381,312.0891595416667,312.5872064166667,74.0,115.0
382,312.7922845416667,312.9133782916667,74.0,115.0
383,313.0266595416667,313.3235345416667,74.0,112.0
384,313.50009704166666,313.81259704166666,72.0,112.0
385,314.00009704166666,314.31259704166666,70.0,117.0
386,314.50009704166666,316.06572101666666,67.0,115.0
387,316.11085983333334,316.609122925,70.0,117.0
388,316.73933105000003,319.31050749166667,72.0,112.0
