,start,end,pitch,velocity
0,12.258660941666665,12.741299058333333,55.0,74.0
1,13.091992941666666,13.659700366666666,55.0,61.0
2,12.675326941666667,13.776019625,60.0,101.0
3,13.508658941666667,14.012130358333332,63.0,110.0
4,13.925324941666666,14.815948516666666,55.0,46.0
5,11.841994941666666,14.989559349999999,48.0,104.0
6,14.341990941666666,15.534697366666666,63.0,110.0
7,14.341990941666666,15.711780416666667,67.0,94.0
8,14.758656941666667,15.722197066666666,60.0,85.0
9,15.591988941666665,16.098932575,55.0,58.0
10,16.008654941666666,16.841986941666665,60.0,99.0
11,16.425320941666666,16.923584033333334,55.0,51.0
12,16.841986941666665,17.706568891666667,63.0,104.0
13,17.258652941666664,17.9374713,55.0,51.0
14,15.175322941666666,18.005179525,48.0,94.0
15,17.675318941666667,18.0833044,67.0,96.0
16,18.091984941666666,18.565942516666667,62.0,106.0
17,18.508650941666666,18.850664283333334,63.0,96.0
18,18.925316941666665,19.383649541666667,58.0,72.0
19,19.341982941666664,20.078092875,63.0,93.0
20,19.758648941666667,20.239550949999998,58.0,34.0
21,18.508650941666666,21.053785758333333,51.0,104.0
22,20.175314941666667,21.055521866666666,67.0,104.0
23,20.591980941666666,21.064202408333333,58.0,58.0
24,21.008646941666665,21.505173924999998,63.0,101.0
25,22.258644941666667,23.26037945,58.0,81.0
26,21.425312941666665,23.532948458333333,67.0,94.0
27,23.091976941666665,23.534684566666666,50.0,62.0
28,22.675310941666666,23.534684566666666,55.0,94.0
29,23.508642941666665,24.38537765,58.0,101.0
30,23.925308941666664,24.413155383333333,50.0,76.0
31,21.841978941666667,24.48607193333333,43.0,101.0
32,24.341974941666667,24.7499604,55.0,104.0
33,23.508642941666665,24.767321483333333,62.0,104.0
34,25.175306941666665,25.848916974999998,63.0,110.0
35,26.425304941666667,26.663151783333333,63.0,120.0
36,26.008638941666664,26.673568433333333,67.0,109.0
37,25.175306941666665,26.71002670833333,60.0,96.0
38,25.591972941666665,27.005165124999998,55.0,104.0
39,26.841970941666666,27.5832892,72.0,99.0
40,27.258636941666666,27.661414075,55.0,64.0
41,26.841970941666666,27.689191808333334,67.0,99.0
42,25.175306941666665,27.734330625,48.0,104.0
43,26.841970941666666,27.753427816666665,63.0,104.0
44,27.675302941666665,27.935719191666664,60.0,109.0
45,28.508634941666667,29.449605658333333,60.0,96.0
46,28.508634941666667,29.657938658333332,41.0,99.0
47,28.925300941666666,29.682244174999997,48.0,85.0
48,29.341966941666666,29.758632941666665,56.0,113.0
49,29.758632941666665,29.869743874999998,60.0,1.0
50,29.758632941666665,29.921827125,53.0,104.0
51,30.175298941666664,30.871478383333333,62.0,85.0
52,30.175298941666664,31.08501970833333,55.0,78.0
53,31.008630941666667,31.097172466666667,62.0,104.0
54,30.591964941666664,31.44960245833333,50.0,94.0
55,30.175298941666664,31.454810783333333,43.0,101.0
56,31.008630941666667,31.463491325,58.0,117.0
57,32.258628941666665,32.930502866666664,53.0,101.0
58,31.841962941666665,32.963488925,46.0,99.0
59,32.675294941666664,33.525988025,58.0,113.0
60,33.09196094166666,34.06938993333333,62.0,104.0
61,34.34195894166667,34.75341661666666,58.0,113.0
62,33.92529294166666,34.817652625,50.0,89.0
63,33.50862694166666,35.01730508333333,43.0,104.0
64,34.75862494166667,35.025985625,55.0,104.0
65,35.17529094166667,35.369735075,55.0,94.0
66,35.591956941666666,35.973900775,55.0,48.0
67,35.17529094166667,36.11799776666666,60.0,99.0
68,36.008622941666665,36.61799696666667,63.0,104.0
69,36.425288941666665,36.72563568333333,55.0,46.0
70,36.841954941666664,37.501676108333335,60.0,91.0
71,37.25862094166666,37.63362034166666,55.0,62.0
72,35.17529094166667,38.23257771666667,48.0,96.0
73,37.67528694166666,38.27424431666667,62.0,96.0
74,38.09195294166666,38.3541053,55.0,87.0
75,38.50861894166667,38.734313025,55.0,94.0
76,38.50861894166667,39.317645424999995,60.0,101.0
77,38.92528494166667,39.33674261666666,55.0,87.0
78,38.50861894166667,39.38535365,48.0,104.0
79,39.34195094166667,39.821116841666665,63.0,86.0
80,40.175282941666666,41.07111484166666,67.0,104.0
81,40.591948941666665,41.28812838333333,55.0,55.0
82,41.008614941666664,42.53465416666666,63.0,120.0
83,42.25861294166666,42.817639825,55.0,82.0
84,42.67527894166666,43.19090311666667,63.0,113.0
85,43.09194494166667,43.612777441666665,60.0,80.0
86,43.50861094166667,44.347151266666664,67.0,101.0
87,43.92527694166667,44.61277584166667,55.0,73.0
88,41.84194694166666,44.63187303333333,48.0,104.0
89,44.341942941666666,44.78465056666666,63.0,113.0
90,44.758608941666665,45.21867765,62.0,104.0
91,45.175274941666665,45.46173281666667,63.0,101.0
92,45.591940941666664,46.03464856666667,58.0,77.0
93,46.00860694166666,46.914855491666664,63.0,107.0
94,46.42527294166666,46.958258199999996,58.0,88.0
95,47.25860494166666,47.65443764166667,58.0,74.0
96,45.175274941666665,47.70478478333333,51.0,113.0
97,46.84193894166666,47.722145866666665,67.0,106.0
98,47.67527094166667,48.203047874999996,63.0,104.0
99,48.925268941666666,49.7707537,58.0,86.0
100,49.758600941666664,50.21519743333333,55.0,96.0
101,49.341934941666665,50.22214186666666,50.0,80.0
102,50.17526694166666,50.755127124999994,58.0,110.0
103,50.17526694166666,51.04332110833333,62.0,104.0
104,50.59193294166666,51.07457105833333,50.0,67.0
105,48.508602941666666,51.1040849,43.0,104.0
106,48.09193694166667,51.274223516666666,67.0,67.0
107,51.00859894166666,51.42352883333333,58.0,117.0
108,51.42526494166666,51.51207035833333,55.0,96.0
109,51.84193094166667,52.463457725,63.0,99.0
110,51.84193094166667,52.71519343333333,60.0,94.0
111,52.25859694166667,52.75686003333333,55.0,82.0
112,52.67526294166667,53.2499148,63.0,104.0
113,53.091928941666666,53.60581700833333,55.0,61.0
114,53.508594941666665,54.074566258333334,63.0,99.0
115,53.925260941666664,54.380121325,55.0,59.0
116,51.84193094166667,54.51032945,48.0,101.0
117,53.508594941666665,54.767273483333334,67.0,94.0
118,54.341926941666664,54.86449555,60.0,104.0
119,54.75859294166666,54.869703875,63.0,117.0
120,55.17525894166666,55.80373015833333,56.0,110.0
121,55.17525894166666,56.07456305833333,53.0,101.0
122,55.17525894166666,56.414840291666664,41.0,99.0
123,55.59192494166666,56.473867975,48.0,73.0
124,56.00859094166666,56.663103783333334,60.0,94.0
125,56.84192294166667,57.703032674999996,55.0,96.0
126,56.84192294166667,57.921782324999995,43.0,104.0
127,57.258588941666666,57.930462866666666,50.0,82.0
128,57.675254941666665,58.44782315,58.0,107.0
129,57.675254941666665,58.5207397,62.0,104.0
130,58.92525294166666,59.46865485,53.0,74.0
131,59.34191894166666,60.0207373,58.0,113.0
132,59.75858494166666,60.29330630833333,53.0,80.0
133,60.17525094166666,60.88184703333333,62.0,101.0
134,58.508586941666664,61.175249341666664,46.0,88.0
135,60.59191694166666,61.19608264166666,53.0,47.0
136,61.00858294166667,61.2707353,58.0,110.0
137,61.00858294166667,61.36448515,62.0,106.0
138,61.841914941666666,62.426983449999994,63.0,93.0
139,61.841914941666666,62.70476078333333,60.0,78.0
140,62.258580941666665,62.768996791666666,55.0,94.0
141,62.675246941666664,63.275940424999995,63.0,101.0
142,63.09191294166666,63.581495491666665,55.0,82.0
143,63.50857894166666,64.18913340833333,67.0,101.0
144,63.50857894166666,64.19434173333333,63.0,113.0
145,63.92524494166666,64.42003581666667,55.0,73.0
146,64.34191094166667,64.76552137499999,63.0,117.0
147,64.34191094166667,64.88531284999999,60.0,94.0
148,61.841914941666666,65.088437525,48.0,96.0
149,65.17524294166667,65.40093702499999,55.0,94.0
150,65.17524294166667,65.984269425,60.0,101.0
151,65.59190894166666,66.00336661666667,55.0,87.0
152,65.17524294166667,66.05197765,48.0,104.0
153,66.00857494166667,66.48774084166666,63.0,86.0
154,66.84190694166666,67.73773884166667,67.0,104.0
155,67.25857294166666,67.95475238333333,55.0,55.0
156,67.67523894166666,69.20127816666667,63.0,120.0
157,68.92523694166667,69.484263825,55.0,82.0
158,69.34190294166666,69.85752711666666,63.0,113.0
159,69.75856894166667,70.27940144166666,60.0,80.0
160,70.17523494166666,71.01377526666667,67.0,101.0
161,70.59190094166667,71.27939984166666,55.0,73.0
162,68.50857094166666,71.29849703333333,48.0,104.0
163,71.00856694166666,71.45127456666667,63.0,113.0
164,71.42523294166666,71.88530165,62.0,104.0
165,71.84189894166667,72.12835681666667,63.0,101.0
166,72.25856494166666,72.70127256666666,58.0,77.0
167,72.67523094166667,73.58147949166667,63.0,107.0
168,73.09189694166666,73.6248822,58.0,88.0
169,73.92522894166666,74.32106164166666,58.0,74.0
170,71.84189894166667,74.37140878333334,51.0,113.0
171,73.50856294166667,74.38876986666666,67.0,106.0
172,74.34189494166667,74.869671875,63.0,104.0
173,75.59189294166666,76.4373777,58.0,86.0
174,76.42522494166667,76.88182143333333,55.0,96.0
175,76.00855894166666,76.88876586666666,50.0,80.0
176,76.84189094166666,77.421751125,58.0,110.0
177,76.84189094166666,77.70994510833333,62.0,104.0
178,77.25855694166667,77.74119505833333,50.0,67.0
179,75.17522694166666,77.7707089,43.0,104.0
180,74.75856094166666,77.94084751666666,67.0,67.0
181,77.67522294166666,78.09015283333333,58.0,117.0
182,78.09188894166667,78.17869435833333,55.0,96.0
183,78.50855494166666,79.130081725,63.0,99.0
184,78.50855494166666,79.38181743333332,60.0,94.0
185,78.92522094166667,79.42348403333332,55.0,82.0
186,79.34188694166666,79.9165388,63.0,104.0
187,79.75855294166666,80.27244100833333,55.0,61.0
188,80.17521894166666,80.74119025833333,63.0,99.0
189,80.59188494166666,81.04674532499999,55.0,59.0
190,78.50855494166666,81.17695345,48.0,101.0
191,80.17521894166666,81.43389748333333,67.0,94.0
192,81.00855094166667,81.53111955,60.0,104.0
193,81.42521694166666,81.536327875,63.0,117.0
194,81.84188294166667,82.47035415833334,56.0,110.0
195,81.84188294166667,82.74118705833332,53.0,101.0
196,81.84188294166667,83.08146429166666,41.0,99.0
197,82.25854894166666,83.14049197499999,48.0,73.0
198,82.67521494166667,83.32972778333333,60.0,94.0
199,83.50854694166667,84.369656675,55.0,96.0
200,83.50854694166667,84.588406325,43.0,104.0
201,83.92521294166666,84.59708686666666,50.0,82.0
202,84.34187894166666,85.11444714999999,58.0,107.0
203,84.34187894166666,85.18736369999999,62.0,104.0
204,85.59187694166667,86.13527884999999,53.0,74.0
205,86.00854294166666,86.68736129999999,58.0,113.0
206,86.42520894166667,86.95993030833333,53.0,80.0
207,86.84187494166666,87.54847103333333,62.0,101.0
208,85.17521094166666,87.84187334166667,46.0,88.0
209,87.25854094166667,87.86270664166666,53.0,47.0
210,87.67520694166666,87.9373593,58.0,110.0
211,87.67520694166666,88.03110914999999,62.0,106.0
212,88.50853894166666,89.09360745,63.0,93.0
213,88.50853894166666,89.37138478333333,60.0,78.0
214,88.92520494166666,89.43562079166666,55.0,94.0
215,89.34187094166666,89.942564425,63.0,101.0
216,89.75853694166666,90.24811949166666,55.0,82.0
217,90.17520294166667,90.85575740833333,67.0,101.0
218,90.17520294166667,90.86096573333333,63.0,113.0
219,90.59186894166666,91.08665981666667,55.0,73.0
220,91.00853494166667,91.43214537499999,63.0,117.0
221,91.00853494166667,91.55193684999999,60.0,94.0
222,88.50853894166666,91.755061525,48.0,96.0
223,91.81408920833333,92.29499121666666,63.0,99.0
224,92.26547737499999,92.60749071666666,60.0,64.0
225,92.48769924166666,92.75332381666666,63.0,74.0
226,92.73075440833333,92.98075400833334,67.0,97.0
227,92.92693464999999,93.12832321666666,63.0,87.0
228,93.11617045833333,93.57623916666667,60.0,82.0
229,93.28978129166666,93.70123896666666,63.0,102.0
230,93.494642075,93.9373497,72.0,114.0
231,93.7290167,94.02241900833333,67.0,89.0
232,93.94603024166666,94.20471038333334,63.0,109.0
233,94.1456827,94.41998781666666,60.0,92.0
234,94.35227959166666,94.64741800833333,67.0,102.0
235,94.5415154,94.80193165,63.0,105.0
236,92.04499161666666,94.80540386666667,55.0,76.0
237,91.82276974999999,94.85227879166666,48.0,97.0
238,94.75332061666666,95.05193125,60.0,100.0
239,94.96859805,95.24116705833333,67.0,87.0
240,95.598805375,95.869638275,58.0,85.0
241,95.81929113333332,96.11095733333333,55.0,64.0
242,96.025888025,96.22727659166667,62.0,87.0
243,96.20817939999999,96.53803998333333,58.0,102.0
244,96.43560959166666,96.90435884166666,62.0,80.0
245,96.86442835,97.27241380833333,67.0,114.0
246,97.06408080833333,97.36269144166666,62.0,97.0
247,97.25852494166666,97.53109395,58.0,109.0
248,95.41998621666666,97.56581611666667,50.0,49.0
249,97.45644129166666,98.07275974999999,55.0,97.0
250,97.8956767,98.15956516666667,58.0,109.0
251,95.192556025,98.17866235833333,43.0,102.0
252,97.6873437,98.333176,50.0,82.0
253,98.12310689166667,98.38699535833332,62.0,82.0
254,98.30366215833332,98.53977289166666,58.0,99.0
255,98.92345283333333,99.275882825,58.0,87.0
256,99.13699415833332,99.35574380833333,62.0,80.0
257,99.33664661666666,99.59011843333333,65.0,108.0
258,99.53109074999999,99.76893759166666,62.0,84.0
259,98.51199515833333,99.994631675,46.0,105.0
260,99.74289596666667,100.00331221666666,58.0,105.0
261,98.73074480833333,100.07796487499999,53.0,55.0
262,99.96164561666666,100.624839,62.0,89.0
263,100.56233909999999,100.963380125,58.0,96.0
264,100.82101924166666,101.041505,62.0,89.0
265,101.015463375,101.30192124999999,65.0,105.0
266,100.13872866666667,101.317546225,46.0,96.0
267,100.36615885833334,101.33490730833333,53.0,67.0
268,101.21858805,101.44949045833333,62.0,92.0
269,101.40955996666666,101.69775394999999,58.0,102.0
270,101.66824010833332,101.796712125,62.0,82.0
271,102.02935064166667,102.63698855833333,58.0,74.0
272,102.25504472499999,102.78282165833333,63.0,65.0
273,102.47032215833333,102.96337692499999,67.0,84.0
274,102.92518254166666,103.19427933333333,63.0,99.0
275,101.84185094166666,103.26893199166666,51.0,102.0
276,102.71164121666666,103.30191805,58.0,87.0
277,103.14393219166666,103.36789016666667,67.0,92.0
278,103.307126375,103.75677843333332,63.0,102.0
279,103.90434764166666,104.19601384166666,63.0,93.0
280,103.67691744999999,104.22205546666666,58.0,65.0
281,103.49288996666667,104.52240220833333,51.0,109.0
282,104.12136118333333,104.57969378333333,67.0,97.0
283,104.34011083333333,104.62656870833332,58.0,96.0
284,104.52761053333333,104.84531835833333,63.0,99.0
285,104.78108234999999,105.08490130833333,67.0,82.0
286,104.96858205,105.15955396666666,63.0,99.0
287,105.55365055833333,105.81927513333333,56.0,79.0
288,105.98941375,106.21684394166667,60.0,89.0
289,105.76892799166666,106.40781585833332,53.0,97.0
290,106.17517734166667,106.42864915833333,56.0,96.0
291,106.40781585833332,106.65607935,60.0,94.0
292,106.78975969166666,106.84184294166666,60.0,34.0
293,106.57101004166667,106.90781505833333,56.0,102.0
294,106.81927353333333,107.23767564166666,65.0,111.0
295,107.025870425,107.3331616,60.0,100.0
296,107.22899509999999,107.48246691666667,56.0,96.0
297,107.42343923333333,107.73073040833333,53.0,71.0
298,107.66649439999999,107.94948005833332,60.0,105.0
299,105.17517894166666,107.99809109166667,41.0,94.0
300,105.37656750833332,108.04843823333333,48.0,51.0
301,107.85746631666666,108.077952075,56.0,105.0
302,108.05191045,108.36614605833333,53.0,67.0
303,108.26718788333334,108.45295147499999,56.0,96.0
304,108.88350634166666,109.098783775,58.0,65.0
305,109.10225599166667,109.40433884166666,55.0,69.0
306,109.31406120833333,109.70989390833333,62.0,89.0
307,109.49808869166667,109.74808829166666,58.0,105.0
308,108.50156250833332,109.86787976666666,43.0,87.0
309,108.73420102499999,109.90433804166666,50.0,53.0
310,109.71683834166666,109.95468518333332,55.0,100.0
311,109.91822690833332,110.23072640833333,67.0,94.0
312,110.536281475,110.82100324166666,63.0,57.0
313,110.7706561,110.98246131666666,60.0,89.0
314,110.99808629166667,111.28107195,67.0,94.0
315,111.20641929166666,111.4373217,63.0,102.0
316,110.37135118333333,111.46336332499999,55.0,67.0
317,110.13524045,111.51197435833333,48.0,94.0
318,111.41301618333333,111.68558519166666,60.0,92.0
319,111.61961307499999,111.79843223333333,63.0,105.0
320,112.223778775,112.5831532,58.0,90.0
321,112.47551448333333,112.69773635,62.0,80.0
322,112.68211137499999,112.92516654166666,65.0,108.0
323,112.88697215833332,113.1456523,62.0,94.0
324,112.00850134166666,113.327943675,53.0,66.0
325,111.79322390833333,113.36787416666667,46.0,99.0
326,113.098777375,113.380026925,58.0,102.0
327,113.33141589166667,113.63002652499999,62.0,89.0
328,113.90606774999999,114.15433124166667,58.0,90.0
329,114.12308129166667,114.35224759166667,55.0,84.0
330,114.35051148333334,114.61613605833332,62.0,100.0
331,114.55363615833333,114.77238580833333,58.0,105.0
332,113.49113785833333,114.90953836666667,43.0,80.0
333,114.76023305,114.97724659166666,55.0,89.0
334,113.69947085833333,114.984191025,50.0,82.0
335,114.984191025,115.1873157,62.0,73.0
336,115.58662061666666,115.833148,63.0,102.0
337,115.80363415833332,116.08488370833332,60.0,82.0
338,116.01370326666667,116.19946685833332,67.0,92.0
339,116.182105775,116.44773035,63.0,109.0
340,116.40606375,116.63523004999999,67.0,89.0
341,116.57967458333333,116.90779905833332,63.0,99.0
342,116.81925753333333,117.15779865833333,72.0,114.0
343,117.02585442499999,117.286270675,67.0,97.0
344,117.22897909999999,117.45988150833332,63.0,112.0
345,117.43904820833333,117.650853425,60.0,111.0
346,117.650853425,117.92342243333333,67.0,105.0
347,117.84356145,118.12307489166666,63.0,102.0
348,118.07272775,118.28279685833333,60.0,102.0
349,118.28626907499999,118.45467158333332,67.0,82.0
350,115.38523205,118.48071320833333,55.0,60.0
351,115.16474629166666,118.50328261666667,48.0,87.0
352,118.50328261666667,118.98244851666666,63.0,99.0
353,118.95467078333333,119.29494801666667,60.0,64.0
354,119.17515654166667,119.44251722499999,63.0,74.0
355,119.41821170833333,119.66994741666666,67.0,97.0
356,119.61439195,119.81578051666666,63.0,87.0
357,119.80536386666667,120.26543257499999,60.0,82.0
358,119.9789747,120.39043237499999,63.0,102.0
359,120.18383548333333,120.62480699999999,72.0,114.0
360,120.41821010833333,120.71161241666667,67.0,89.0
361,120.63348754166667,120.89390379166666,63.0,109.0
362,120.83487610833333,121.109181225,60.0,92.0
363,121.041473,121.33661141666666,67.0,102.0
364,121.2289727,121.48938894999999,63.0,105.0
365,118.73244891666666,121.49286116666666,55.0,76.0
366,118.51196315833333,121.53973609166665,48.0,97.0
367,121.442514025,121.74112465833333,60.0,100.0
368,121.65779145833332,121.92862435833332,67.0,87.0
369,122.28799878333332,122.55709557499999,58.0,85.0
370,122.50674843333333,122.80015074166666,55.0,64.0
371,122.71334532499999,122.91473389166666,62.0,87.0
372,122.8956367,123.22723339166666,58.0,102.0
373,123.124803,123.59355224999999,62.0,80.0
374,123.55188564999999,123.96160721666666,67.0,114.0
375,123.75327421666667,124.05188485,62.0,97.0
376,123.94771834999999,124.21855124999999,58.0,109.0
377,122.109179625,124.25500952499999,50.0,49.0
378,124.14389859166666,124.76021705,55.0,97.0
379,124.58487010833333,124.84702246666666,58.0,109.0
380,121.88174943333333,124.86785576666666,43.0,102.0
381,124.37480099999999,125.0206333,50.0,82.0
382,124.81230029999999,125.07445265833333,62.0,82.0
383,124.99111945833333,125.22723019166666,58.0,99.0
384,125.61091013333333,125.96334012499999,58.0,87.0
385,125.82618756666666,126.04493721666667,62.0,80.0
386,126.02410391666666,126.27757573333332,65.0,108.0
387,126.21854805,126.458131,62.0,84.0
388,125.20118856666666,126.682088975,46.0,105.0
389,126.43208937499999,126.69076951666666,58.0,105.0
390,125.41993821666667,126.765422175,53.0,55.0
391,126.64910291666666,127.31403240833333,62.0,89.0
392,127.25153250833333,127.65257353333332,58.0,96.0
393,127.50847654166667,127.73069840833332,62.0,89.0
394,127.70292067499999,127.99111465833333,65.0,105.0
395,126.82618596666666,128.005003525,46.0,96.0
396,127.05361615833333,128.02410071666665,53.0,67.0
397,127.90778145833333,128.13694775833332,62.0,92.0
398,128.098753375,128.38521125,58.0,102.0
399,128.35569740833333,128.484169425,62.0,82.0
400,128.71854405,129.32618196666667,58.0,74.0
401,128.94250202499998,129.47201506666667,63.0,65.0
402,129.15777945833332,129.65083422499998,67.0,84.0
403,129.61263984166666,129.88173663333333,63.0,99.0
404,128.52930824166666,129.95638929166665,51.0,102.0
405,129.39909851666667,129.99111145833334,58.0,87.0
406,129.83138949166667,130.05534746666666,67.0,92.0
407,129.99631978333332,130.44423573333333,63.0,102.0
408,130.59180494166665,130.88520725,63.0,93.0
409,130.36437475,130.90951276666667,58.0,65.0
410,130.182083375,131.21159561666667,51.0,109.0
411,130.81055459166666,131.26715108333332,67.0,97.0
412,131.02930424166667,131.31576211666666,58.0,96.0
413,131.21506783333334,131.53451176666667,63.0,99.0
414,131.46853965,131.77409471666667,67.0,82.0
415,131.65777545833333,131.848747375,63.0,99.0
416,132.24110785833332,132.50673243333333,56.0,79.0
417,132.67860715833334,132.90603735,60.0,89.0
418,132.45638529166666,133.09700926666667,53.0,97.0
419,132.86437075,133.11784256666667,56.0,96.0
420,133.09700926666667,133.34527275833332,60.0,94.0
421,133.47721699166667,133.53103635,60.0,34.0
422,133.25846734166666,133.59700846666667,56.0,102.0
423,133.50673083333334,133.92513294166665,65.0,111.0
424,133.713327725,134.02235500833334,60.0,100.0
425,133.91818850833332,134.171660325,56.0,96.0
426,134.11263264166666,134.41992381666665,53.0,71.0
427,134.35395169999998,134.63867346666666,60.0,105.0
428,131.86437235,134.68554839166666,41.0,94.0
429,132.06402480833333,134.73763164166667,48.0,51.0
430,134.54665972499998,134.76714548333334,56.0,105.0
431,134.74110385833333,135.05360335833333,53.0,67.0
432,134.95638129166667,135.140408775,56.0,96.0
433,135.57269975,135.78797718333334,58.0,65.0
434,135.7914494,136.09353224999998,55.0,69.0
435,136.00325461666665,136.39908731666665,62.0,89.0
436,136.18554599166666,136.4372817,58.0,105.0
437,135.1890198083333,136.557073175,43.0,87.0
438,135.42339443333333,136.59353145,50.0,53.0
439,136.40429564166666,136.64387859166666,55.0,100.0
440,136.60742031666666,136.91991981666666,67.0,94.0
441,137.22547488333333,137.50846054166666,63.0,57.0
442,137.4581134,137.66991861666665,60.0,89.0
443,137.68554359166666,137.97026535833334,67.0,94.0
444,137.8956127,138.124779,63.0,102.0
445,137.06054459166666,138.1525567333333,55.0,67.0
446,136.82443385833332,138.19943165833334,48.0,94.0
447,138.10220959166665,138.37304249166667,60.0,92.0
448,138.3088064833333,138.48762564166665,63.0,105.0
449,138.91297218333332,139.27234660833332,58.0,90.0
450,139.16470789166667,139.38519365,62.0,80.0
451,139.37130478333333,139.61262384166665,65.0,108.0
452,139.57442945833333,139.83484570833332,62.0,94.0
453,138.69769474999998,140.01713708333332,53.0,66.0
454,138.48241731666667,140.05533146666667,46.0,99.0
455,139.786234675,140.067484225,58.0,102.0
456,140.0206093,140.31921993333333,62.0,89.0
457,140.59526115833333,140.84352465,58.0,90.0
458,140.81053859166667,141.041441,55.0,84.0
459,141.03796878333333,141.30359335833333,62.0,100.0
460,141.24109345833332,141.46157921666665,58.0,105.0
461,140.17859515833334,141.59699566666666,43.0,80.0
462,141.44769035,141.66644,55.0,89.0
463,140.38866426666667,141.671648325,50.0,82.0
464,141.67338443333333,141.87650910833332,62.0,73.0
465,142.27407791666667,142.52234140833332,63.0,102.0
466,142.49282756666665,142.77407711666666,60.0,82.0
467,142.702896675,142.88692415833333,67.0,92.0
468,142.869563075,143.13518765,63.0,109.0
469,143.09525715833334,143.32268735,67.0,89.0
470,143.26886799166667,143.59699246666665,63.0,99.0
471,143.50845094166667,143.84525595833333,72.0,114.0
472,143.71331172499998,143.97546408333332,67.0,97.0
473,143.91817250833333,144.14733880833333,63.0,112.0
474,144.12650550833334,144.34004683333333,60.0,111.0
475,144.34004683333333,144.61087973333332,67.0,105.0
476,144.53101875,144.8122683,63.0,102.0
477,144.76192115833334,144.97025415833332,60.0,102.0
478,144.97372637499998,145.14386499166665,67.0,82.0
479,142.07442545833334,145.16817050833333,55.0,60.0
480,141.85220359166667,145.192476025,48.0,87.0
481,145.17511494166666,145.192476025,48.0,104.0
482,145.17511494166666,145.69768355,63.0,96.0
483,145.17511494166666,145.9164332,60.0,101.0
484,145.59178094166666,146.09698846666666,55.0,85.0
485,146.00844694166665,146.39733520833332,67.0,106.0
486,146.00844694166665,146.50671003333332,63.0,117.0
487,146.84177894166666,147.30011154166667,63.0,117.0
488,146.84177894166666,147.31573651666665,67.0,104.0
489,147.25844494166665,147.70809699999998,55.0,91.0
490,147.67511094166667,147.83483290833334,60.0,99.0
491,147.67511094166667,148.088304725,63.0,120.0
492,147.67511094166667,148.14386019166665,67.0,104.0
493,148.09177694166667,148.22198506666666,60.0,101.0
494,148.50844294166666,148.9789283,58.0,101.0
495,148.50844294166666,149.202886275,55.0,99.0
496,148.92510894166665,149.43378868333332,50.0,71.0
497,149.34177494166667,149.93552399166666,58.0,113.0
498,149.34177494166667,149.9372601,62.0,109.0
499,149.75844094166666,150.29489841666665,50.0,71.0
500,150.17510694166666,150.80184205,58.0,117.0
501,150.17510694166666,150.833092,62.0,109.0
502,150.59177294166665,151.21329972499998,50.0,46.0
503,148.50844294166666,151.32093844166667,43.0,104.0
504,151.00843894166667,151.39385499166667,67.0,94.0
505,151.00843894166667,151.48066040833334,58.0,113.0
506,151.00843894166667,151.504965925,62.0,112.0
507,151.42510494166666,151.70635449166667,55.0,109.0
508,151.84177094166665,152.02232620833334,58.0,107.0
509,151.84177094166665,152.10218719166667,62.0,104.0
510,152.25843694166667,152.77926944166666,53.0,52.0
511,152.67510294166667,153.129963325,65.0,106.0
512,152.67510294166667,153.223713175,62.0,109.0
513,152.67510294166667,153.41468509166666,58.0,104.0
514,153.09176894166666,153.70461518333332,53.0,58.0
515,153.50843494166665,154.01017025,62.0,106.0
516,153.50843494166665,154.04315630833332,58.0,107.0
517,153.50843494166665,154.04836463333334,65.0,104.0
518,154.34176694166666,154.45635009166665,62.0,109.0
519,154.34176694166666,154.47718339166667,58.0,117.0
520,153.92510094166667,154.5414194,53.0,66.0
521,154.34176694166666,154.56398880833333,65.0,109.0
522,151.84177094166665,154.60912762499999,46.0,83.0
523,155.17509894166665,155.661209275,58.0,107.0
524,155.17509894166665,155.69419533333334,63.0,99.0
525,156.00843094166666,156.484124625,58.0,123.0
526,156.00843094166666,156.557041175,63.0,117.0
527,155.59176494166667,156.90599895,46.0,24.0
528,156.84176294166667,157.47717859166667,58.0,120.0
529,156.84176294166667,157.51016464999998,63.0,113.0
530,157.25842894166666,157.80183085,46.0,77.0
531,155.17509894166665,157.827872475,39.0,96.0
532,157.67509494166666,158.07613596666667,58.0,120.0
533,157.67509494166666,158.08134429166665,63.0,120.0
534,158.09176094166665,158.21849684999998,55.0,112.0
535,158.50842694166667,158.94419013333334,56.0,110.0
536,158.50842694166667,159.15252313333332,53.0,104.0
537,158.92509294166666,159.46502263333332,48.0,42.0
538,159.34175894166665,159.60043908333333,56.0,113.0
539,159.34175894166665,159.66467509166665,60.0,104.0
540,160.17509094166667,160.73238171666665,56.0,117.0
541,160.17509094166667,160.80877048333332,60.0,104.0
542,160.59175694166666,161.31050579166666,48.0,55.0
543,158.50842694166667,161.40772785833332,41.0,104.0
544,161.00842294166665,161.46501943333334,56.0,117.0
545,161.00842294166665,161.51015825,60.0,109.0
546,161.42508894166667,161.56918593333333,53.0,104.0
547,161.00842294166665,161.69765794999998,65.0,106.0
548,161.84175494166666,162.34001803333334,55.0,96.0
549,161.84175494166666,162.43203177499998,58.0,110.0
550,161.84175494166666,163.01189195833334,43.0,106.0
551,162.25842094166666,163.03272525833333,50.0,51.0
552,162.67508694166665,163.08654461666666,58.0,117.0
553,162.67508694166665,163.348696975,55.0,106.0
554,163.50841894166666,164.05182084999998,63.0,110.0
555,163.50841894166666,164.08133469166665,60.0,106.0
556,163.92508494166665,164.15251513333334,55.0,85.0
557,163.50841894166666,164.45807019999998,48.0,96.0
558,164.34175094166665,164.63341714166665,55.0,104.0
559,164.34175094166665,164.65077822499998,60.0,112.0
560,164.34175094166665,164.68723649999998,63.0,117.0
561,165.17508294166666,165.72716539166666,62.0,106.0
562,165.17508294166666,165.93029006666666,58.0,93.0
563,165.59174894166665,166.18028966666665,53.0,91.0
564,165.17508294166666,166.2775117333333,46.0,65.0
565,166.00841494166667,166.40771985833334,62.0,112.0
566,166.00841494166667,166.52751133333334,65.0,109.0
567,166.42508094166666,166.57091404166667,58.0,113.0
568,166.84174694166666,167.34695446666666,58.0,107.0
569,166.84174694166666,167.42334323333333,55.0,94.0
570,167.25841294166665,167.8973008083333,50.0,74.0
571,166.84174694166666,167.93028686666665,43.0,104.0
572,167.67507894166667,168.06396720833334,55.0,104.0
573,167.67507894166667,168.077856075,58.0,120.0
574,167.67507894166667,168.11084213333334,62.0,106.0
575,168.50841094166665,168.74973,55.0,96.0
576,168.50841094166665,169.12646550833333,60.0,99.0
577,168.92507694166665,169.15077102499998,55.0,76.0
578,169.34174294166667,169.59521475833333,55.0,104.0
579,169.34174294166667,169.64208968333332,60.0,109.0
580,169.34174294166667,169.66639519999998,63.0,117.0
581,168.50841094166665,169.99104745833333,48.0,96.0
582,169.75840894166666,170.02924184166665,62.0,99.0
583,170.17507494166665,170.42333843333333,55.0,101.0
584,170.17507494166665,170.702851875,60.0,104.0
585,170.59174094166667,170.73931015,55.0,82.0
586,171.00840694166666,171.666392,55.0,106.0
587,171.00840694166666,171.69764195,60.0,112.0
588,171.00840694166666,171.70632249166667,63.0,117.0
589,170.17507494166665,171.71673914166666,48.0,106.0
590,171.84173894166665,172.06743302499999,55.0,94.0
591,171.84173894166665,172.650765425,60.0,101.0
592,172.25840494166667,172.66986261666665,55.0,87.0
593,171.84173894166665,172.71847365,48.0,104.0
594,172.67507094166666,173.15423684166666,63.0,86.0
595,173.50840294166665,174.40423484166666,67.0,104.0
596,173.92506894166667,174.62124838333332,55.0,55.0
597,174.34173494166666,175.86777416666666,63.0,120.0
598,175.59173294166666,176.150759825,55.0,82.0
599,176.00839894166666,176.52402311666665,63.0,113.0
600,176.42506494166665,176.94589744166666,60.0,80.0
601,176.84173094166667,177.68027126666667,67.0,101.0
602,177.25839694166666,177.94589584166667,55.0,73.0
603,175.17506694166667,177.96499303333331,48.0,104.0
604,177.67506294166665,178.11777056666665,63.0,113.0
605,178.09172894166664,178.55179765,62.0,104.0
606,178.50839494166667,178.79485281666666,63.0,101.0
607,178.92506094166666,179.36776856666665,58.0,77.0
608,179.34172694166665,180.24797549166666,63.0,107.0
609,179.75839294166667,180.2913782,58.0,88.0
610,180.59172494166666,180.98755764166665,58.0,74.0
611,178.50839494166667,181.03790478333332,51.0,113.0
612,180.17505894166666,181.05526586666664,67.0,106.0
613,181.00839094166665,181.536167875,63.0,104.0
614,182.25838894166665,183.10387369999998,58.0,86.0
615,183.09172094166667,183.54831743333332,55.0,96.0
616,182.67505494166664,183.55526186666665,50.0,80.0
617,183.50838694166666,184.08824712499998,58.0,110.0
618,183.50838694166666,184.37644110833332,62.0,104.0
619,183.92505294166665,184.4076910583333,50.0,67.0
620,181.84172294166666,184.43720489999998,43.0,104.0
621,181.42505694166667,184.60734351666665,67.0,67.0
622,184.34171894166667,184.75664883333332,58.0,117.0
623,184.75838494166666,184.84519035833333,55.0,96.0
624,185.17505094166665,185.796577725,63.0,99.0
625,185.17505094166665,186.04831343333333,60.0,94.0
626,185.59171694166665,186.08998003333332,55.0,82.0
627,186.00838294166667,186.58303479999998,63.0,104.0
628,186.42504894166666,186.9389370083333,55.0,61.0
629,186.84171494166665,187.4076862583333,63.0,99.0
630,187.25838094166664,187.71324132499998,55.0,59.0
631,185.17505094166665,187.84344944999998,48.0,101.0
632,186.84171494166665,188.10039348333333,67.0,94.0
633,187.67504694166666,188.19761555,60.0,104.0
634,188.09171294166666,188.20282387499998,63.0,117.0
635,188.50837894166665,189.13685015833332,56.0,110.0
636,188.50837894166665,189.40768305833333,53.0,101.0
637,188.50837894166665,189.74796029166666,41.0,99.0
638,188.92504494166667,189.806987975,48.0,73.0
639,189.34171094166666,189.99622378333333,60.0,94.0
640,190.17504294166665,191.03615267499998,55.0,96.0
641,190.17504294166665,191.254902325,43.0,104.0
642,190.59170894166667,191.26358286666667,50.0,82.0
643,191.00837494166666,191.78094314999998,58.0,107.0
644,191.00837494166666,191.8538597,62.0,104.0
645,192.25837294166666,192.80177485,53.0,74.0
646,192.67503894166666,193.3538573,58.0,113.0
647,193.09170494166665,193.62642630833332,53.0,80.0
648,193.50837094166667,194.21496703333332,62.0,101.0
649,191.84170694166667,194.50836934166665,46.0,88.0
650,193.92503694166666,194.52920264166667,53.0,47.0
651,194.34170294166665,194.6038553,58.0,110.0
652,194.34170294166665,194.69760515,62.0,106.0
653,195.17503494166667,195.76010345,63.0,93.0
654,195.17503494166667,196.03788078333332,60.0,78.0
655,195.59170094166666,196.10211679166665,55.0,94.0
656,196.00836694166665,196.609060425,63.0,101.0
657,196.42503294166667,196.91461549166667,55.0,82.0
658,196.84169894166666,197.5222534083333,67.0,101.0
659,196.84169894166666,197.52746173333333,63.0,113.0
660,197.25836494166666,197.75315581666666,55.0,73.0
661,197.67503094166665,198.098641375,63.0,117.0
662,197.67503094166665,198.21843285,60.0,94.0
663,195.17503494166667,198.421557525,48.0,96.0
664,198.5066268333333,198.9857927333333,63.0,99.0
665,198.958015,199.2982922333333,60.0,64.0
666,199.18023686666666,199.44586144166666,63.0,74.0
667,199.42155592499998,199.67329163333332,67.0,97.0
668,199.61773616666665,199.81912473333333,63.0,87.0
669,199.80870808333333,200.26877679166665,60.0,82.0
670,199.98231891666666,200.39377659166666,63.0,102.0
671,200.1871797,200.62815121666665,72.0,114.0
672,200.421554325,200.71495663333332,67.0,89.0
673,200.63683175833333,200.89724800833332,63.0,109.0
674,200.83822032499998,201.11252544166666,60.0,92.0
675,201.04481721666664,201.33995563333332,67.0,102.0
676,201.23231691666666,201.494469275,63.0,105.0
677,198.73579313333332,201.49620538333332,55.0,76.0
678,198.515307375,201.54308030833332,48.0,97.0
679,201.44585824166666,201.744468875,60.0,100.0
680,201.661135675,201.93196857499998,67.0,87.0
681,202.29134299999998,202.5621759,58.0,85.0
682,202.51009265,202.80349495833332,55.0,64.0
683,202.71668954166665,202.91807810833333,62.0,87.0
684,202.90071702499998,203.23057760833333,58.0,102.0
685,203.12814721666666,203.59689646666666,62.0,80.0
686,203.55522986666665,203.9649514333333,67.0,114.0
687,203.75661843333333,204.05522906666667,62.0,97.0
688,203.95106256666665,204.22189546666667,58.0,109.0
689,202.11252384166664,204.25835374166667,50.0,49.0
690,204.14897891666666,204.76356126666667,55.0,97.0
691,204.588214325,204.85036668333333,58.0,109.0
692,201.88509365,204.87119998333333,43.0,102.0
693,204.37814521666667,205.02397751666666,50.0,82.0
694,204.81564451666665,205.077796875,62.0,82.0
695,204.994463675,205.23057440833333,58.0,99.0
696,205.61425434999998,205.96842045,58.0,87.0
697,205.82953178333332,206.04828143333333,62.0,80.0
698,206.02744813333334,206.28265605833332,65.0,108.0
699,206.22189226666666,206.46147521666666,62.0,84.0
700,205.20453278333332,206.68543319166665,46.0,105.0
701,206.43543359166665,206.69411373333332,58.0,105.0
702,205.42328243333333,206.7705025,53.0,55.0
703,206.65418324166666,207.31737662499998,62.0,89.0
704,207.254876725,207.65591775,58.0,96.0
705,207.51182075833333,207.734042625,62.0,89.0
706,207.70626489166665,207.994458875,65.0,105.0
707,206.82953018333333,208.00834774166665,46.0,96.0
708,207.056960375,208.02744493333333,53.0,67.0
709,207.911125675,208.140291975,62.0,92.0
710,208.10209759166665,208.38855546666665,58.0,102.0
711,208.359041625,208.48751364166665,62.0,82.0
712,208.72188826666667,209.32952618333331,58.0,74.0
713,208.94584624166666,209.47535928333332,63.0,65.0
714,209.161123675,209.65591454999998,67.0,84.0
715,209.6159840583333,209.88508084999998,63.0,99.0
716,208.53265245833333,209.95973350833333,51.0,102.0
717,209.40244273333332,209.99445567499998,58.0,87.0
718,209.83473370833332,210.05869168333334,67.0,92.0
719,209.999664,210.44757994999998,63.0,102.0
720,210.59514915833333,210.88855146666666,63.0,93.0
721,210.36771896666664,210.9128569833333,58.0,65.0
722,210.18542759166667,211.21493983333332,51.0,109.0
723,210.81389880833333,211.2722314083333,67.0,97.0
724,211.0326484583333,211.31910633333334,58.0,96.0
725,211.21841204999998,211.53785598333332,63.0,99.0
726,211.47188386666664,211.77743893333331,67.0,82.0
727,211.66111967499998,211.85209159166666,63.0,99.0
728,212.244452075,212.51007665,56.0,79.0
729,212.68195137499998,212.90938156666667,60.0,89.0
730,212.4597295083333,213.10035348333332,53.0,97.0
731,212.86771496666665,213.12118678333331,56.0,96.0
732,213.10035348333332,213.348616975,60.0,94.0
733,213.4805612083333,213.53438056666667,60.0,34.0
734,213.26181155833333,213.6003526833333,56.0,102.0
735,213.51007504999998,213.93021326666667,65.0,111.0
736,213.71667194166665,214.02569922499998,60.0,100.0
737,213.921532725,214.17500454166665,56.0,96.0
738,214.1159768583333,214.42326803333333,53.0,71.0
739,214.35729591666666,214.64201768333334,60.0,105.0
740,211.86771656666664,214.68889260833333,41.0,94.0
741,212.06736902499998,214.74097585833331,48.0,51.0
742,214.55000394166666,214.77048969999998,56.0,105.0
743,214.74444807499998,215.05868368333333,53.0,67.0
744,214.95972550833332,215.1454891,56.0,96.0
745,215.57604396666665,215.7913214,58.0,65.0
746,215.79479361666665,216.09687646666666,55.0,69.0
747,216.00659883333333,216.40243153333333,62.0,89.0
748,216.19062631666665,216.44062591666665,58.0,105.0
749,215.192364025,216.56041739166665,43.0,87.0
750,215.42673864999998,216.59687566666665,50.0,53.0
751,216.4076398583333,216.6472228083333,55.0,100.0
752,216.6107645333333,216.9232640333333,67.0,94.0
753,217.22881909999998,217.5118047583333,63.0,57.0
754,217.46145761666665,217.67326283333333,60.0,89.0
755,217.68888780833333,217.97360957499998,67.0,94.0
756,217.89895691666666,218.12812321666667,63.0,102.0
757,217.06388880833333,218.15590095,55.0,67.0
758,216.827778075,218.20451198333333,48.0,94.0
759,218.10555380833333,218.37812281666666,60.0,92.0
760,218.3121507,218.49096985833333,63.0,105.0
761,218.9163164,219.275690825,58.0,90.0
762,219.1680521083333,219.38853786666667,62.0,80.0
763,219.37464899999998,219.61596805833332,65.0,108.0
764,219.577773675,219.838189925,62.0,94.0
765,218.70103896666666,220.0204813,53.0,66.0
766,218.48576153333332,220.05867568333332,46.0,99.0
767,219.791315,220.07082844166666,58.0,102.0
768,220.18888380833332,220.26006425,41.0,78.0
769,220.02395351666667,220.32256414999998,62.0,89.0
770,220.59860537499998,220.84686886666665,58.0,90.0
771,220.81388280833332,221.04478521666667,55.0,84.0
772,221.041313,221.30693757499998,62.0,100.0
773,221.244437675,221.46492343333333,58.0,105.0
774,220.18193937499998,221.60033988333333,43.0,80.0
775,221.45103456666666,221.66978421666667,55.0,89.0
776,220.3920084833333,221.67499254166665,50.0,82.0
777,221.67672865,221.879853325,62.0,73.0
778,222.27742213333332,222.525685625,63.0,102.0
779,222.49617178333332,222.77742133333334,60.0,82.0
780,222.70624089166665,222.89026837499998,67.0,92.0
781,222.87290729166665,223.140267975,63.0,109.0
782,223.098601375,223.327767675,67.0,89.0
783,223.27221220833331,223.60033668333332,63.0,99.0
784,223.5117951583333,223.848600175,72.0,114.0
785,223.71839204999998,223.9788083,67.0,97.0
786,223.921516725,224.15068302499998,63.0,112.0
787,224.13158583333333,224.34339104999998,60.0,111.0
788,224.34339104999998,224.61596005833331,67.0,105.0
789,224.53436296666666,224.81561251666665,63.0,102.0
790,224.76526537499998,224.973598375,60.0,102.0
791,224.97707059166666,225.14720920833332,67.0,82.0
792,222.07776967499998,225.17151472499998,55.0,60.0
793,221.8555478083333,225.19582024166667,48.0,87.0
794,225.19408413333332,225.67498614166666,63.0,99.0
795,225.6472084083333,225.98748564166667,60.0,64.0
796,225.86769416666667,226.13331874166667,63.0,74.0
797,226.11074933333333,226.36074893333333,67.0,97.0
798,226.306929575,226.50831814166665,63.0,87.0
799,226.49616538333333,226.95623409166666,60.0,82.0
800,226.66977621666666,227.08123389166667,63.0,102.0
801,226.87637310833333,227.31734462499998,72.0,114.0
802,227.1107477333333,227.40241393333332,67.0,89.0
803,227.32602516666665,227.58470530833333,63.0,109.0
804,227.525677625,227.80171885,60.0,92.0
805,227.73227451666665,228.02914904166664,67.0,102.0
806,227.92151032499999,228.18192657499998,63.0,105.0
807,225.42498654166667,228.18539879166664,55.0,76.0
808,225.202764675,228.23227371666667,48.0,97.0
809,228.13331554166666,228.431926175,60.0,100.0
810,228.348592975,228.6211619833333,67.0,87.0
811,228.98053640833334,229.24963319999998,58.0,85.0
812,229.1992860583333,229.49268836666667,55.0,64.0
813,229.40588294999998,229.60727151666666,62.0,87.0
814,229.58817432499998,229.91977101666666,58.0,102.0
815,229.81560451666667,230.286089875,62.0,80.0
816,230.244423275,230.65414484166666,67.0,114.0
817,230.44407573333334,230.74268636666665,62.0,97.0
818,230.63851986666666,230.911088875,58.0,109.0
819,228.80171725,230.94754715,50.0,49.0
820,230.83643621666667,231.452754675,55.0,97.0
821,231.27740773333332,231.53956009166666,58.0,109.0
822,228.5742870583333,231.55865728333333,43.0,102.0
823,231.067338625,231.713170925,50.0,82.0
824,231.50483792499998,231.7669902833333,62.0,82.0
825,231.68365708333332,231.91976781666665,58.0,99.0
826,232.30344775833333,232.65587775,58.0,87.0
827,232.51698908333333,232.73747484166665,62.0,80.0
828,232.71664154166666,232.97011335833332,65.0,108.0
829,232.91108567499998,233.15066862499998,62.0,84.0
830,231.89372619166664,233.3746266,46.0,105.0
831,233.12289089166666,233.38330714166665,58.0,105.0
832,232.11247584166665,233.4579598,53.0,55.0
833,233.34164054166666,234.00657003333333,62.0,89.0
834,233.94407013333333,234.34337505,58.0,96.0
835,234.20101416666665,234.42149992499998,62.0,89.0
836,234.3954583,234.681916175,65.0,105.0
837,233.51872359166666,234.69754114999998,46.0,96.0
838,233.7461537833333,234.71490223333333,53.0,67.0
839,234.598582975,234.82948538333332,62.0,92.0
840,234.791291,235.077748875,58.0,102.0
841,235.04823503333333,235.17670704999998,62.0,82.0
842,235.40934556666664,236.01698348333332,58.0,74.0
843,235.63503964999998,236.16455269166664,63.0,65.0
844,235.85031708333332,236.34337184999998,67.0,84.0
845,236.30517746666666,236.57427425833333,63.0,99.0
846,235.22184586666665,236.64892691666665,51.0,102.0
847,236.09163614166667,236.68364908333334,58.0,87.0
848,236.52392711666667,236.74788509166666,67.0,92.0
849,236.68885740833332,237.13677335833333,63.0,102.0
850,237.28434256666665,237.57600876666666,63.0,93.0
851,237.056912375,237.60205039166667,58.0,65.0
852,236.874621,237.90239713333332,51.0,109.0
853,237.50309221666666,237.95968870833332,67.0,97.0
854,237.72010575833332,238.00829974166666,58.0,96.0
855,237.90760545833334,238.22704939166667,63.0,99.0
856,238.161077275,238.46663234166667,67.0,82.0
857,238.35031308333333,238.541285,63.0,99.0
858,238.93364548333332,239.19927005833333,56.0,79.0
859,239.369408675,239.59683886666664,60.0,89.0
860,239.14892291666666,239.78954689166665,53.0,97.0
861,239.55517226666666,239.81038019166667,56.0,96.0
862,239.78781078333333,240.03781038333332,60.0,94.0
863,240.16975461666667,240.223573975,60.0,34.0
864,239.95100496666666,240.28780998333332,56.0,102.0
865,240.19926845833334,240.61767056666665,65.0,111.0
866,240.40586535,240.713156525,60.0,100.0
867,240.608990025,240.86419794999998,56.0,96.0
868,240.80343415833332,241.11246144166665,53.0,71.0
869,241.04648932499998,241.3294749833333,60.0,105.0
870,238.556909975,241.37808601666666,41.0,94.0
871,238.75656243333333,241.42843315833332,48.0,51.0
872,241.23746124166667,241.4596831083333,56.0,105.0
873,241.43190537499999,241.74614098333333,53.0,67.0
874,241.64718280833333,241.8329464,56.0,96.0
875,242.265237375,242.4805148083333,58.0,65.0
876,242.48398702499998,242.78433376666666,55.0,69.0
877,242.69405613333333,243.08988883333333,62.0,89.0
878,242.87808361666666,243.129819325,58.0,105.0
879,241.8815574333333,243.2496108,43.0,87.0
880,242.11419594999998,243.28433296666665,50.0,53.0
881,243.09683326666666,243.33641621666666,55.0,100.0
882,243.29995794166666,243.61072133333332,67.0,94.0
883,243.9162764,244.20099816666666,63.0,57.0
884,244.150651025,244.36245624166665,60.0,89.0
885,244.37808121666666,244.661066875,67.0,94.0
886,244.588150325,244.817316625,63.0,102.0
887,243.75308221666666,244.8450943583333,55.0,67.0
888,243.51523537499997,244.8919692833333,48.0,94.0
889,244.79474721666665,245.06558011666667,60.0,92.0
890,244.999608,245.18016326666665,63.0,105.0
891,245.60550980833332,245.96314812499998,58.0,90.0
892,245.85724551666667,246.077731275,62.0,80.0
893,246.06384240833333,246.30516146666665,65.0,108.0
894,246.26696708333333,246.525647225,62.0,94.0
895,245.39023237499998,246.70967470833332,53.0,66.0
896,245.17321883333332,246.74786909166664,46.0,99.0
897,246.4787723,246.76002185,58.0,102.0
898,246.87634110833332,246.94925765833332,41.0,78.0
899,246.713146925,247.01002144999998,62.0,89.0
900,247.28779878333333,247.53432616666666,58.0,90.0
901,247.50307621666664,247.73224251666664,55.0,84.0
902,247.73050640833333,247.99613098333333,62.0,100.0
903,247.93363108333332,248.15238073333333,58.0,105.0
904,246.8711327833333,248.28953329166666,43.0,80.0
905,248.140227975,248.358977625,55.0,89.0
906,247.08120189166667,248.36418594999998,50.0,82.0
907,248.36418594999998,248.56731062499998,62.0,73.0
908,248.96661554166664,249.21487903333332,63.0,102.0
909,249.18536519166665,249.46661474166666,60.0,82.0
910,249.39369819166666,249.57946178333333,67.0,92.0
911,249.5621007,249.82772527499998,63.0,109.0
912,249.786058675,250.015224975,67.0,89.0
913,249.95966950833332,250.28953009166665,63.0,99.0
914,250.19925245833332,250.53779358333333,72.0,114.0
915,250.40584934999998,250.66626559999997,67.0,97.0
916,250.60897402499998,250.83987643333333,63.0,112.0
917,250.8190431333333,251.03084834999999,60.0,111.0
918,251.03084834999999,251.30341735833332,67.0,105.0
919,251.223556375,251.504805925,63.0,102.0
920,251.4544587833333,251.66279178333332,60.0,102.0
921,248.765226975,251.73570833333332,55.0,60.0
922,248.54474121666667,251.76001384999998,48.0,87.0
923,251.66626399999998,251.83466650833333,67.0,82.0
924,251.84334704999998,252.32424905833332,63.0,99.0
925,252.29473521666665,252.63674855833332,60.0,64.0
926,252.51695708333332,252.78258165833333,63.0,74.0
927,252.76001225,253.01001184999998,67.0,97.0
928,252.95619249166666,253.15758105833334,63.0,87.0
929,253.1454283,253.60549700833332,60.0,82.0
930,253.31903913333332,253.73049680833333,63.0,102.0
931,253.52389991666666,253.96660754166666,72.0,114.0
932,253.75827454166665,254.05167684999998,67.0,89.0
933,253.9752880833333,254.23396822499998,63.0,109.0
934,254.17494054166664,254.44924565833333,60.0,92.0
935,254.38153743333334,254.67841195833333,67.0,102.0
936,254.57077324166664,254.83118949166666,63.0,105.0
937,252.07424945833333,254.83466170833333,55.0,76.0
938,251.85202759166665,254.88153663333333,48.0,97.0
939,254.78257845833332,255.08118909166666,60.0,100.0
940,254.99785589166666,255.2704249,67.0,87.0
941,255.62806321666665,255.89889611666666,58.0,85.0
942,255.848548975,256.1419512833333,55.0,64.0
943,256.05514586666663,256.25653443333334,62.0,87.0
944,256.23743724166667,256.56903393333334,58.0,102.0
945,256.4648674333333,256.9336166833333,62.0,80.0
946,256.89368619166663,257.3034077583333,67.0,114.0
947,257.09333864999996,257.3919492833333,62.0,97.0
948,257.28778278333334,257.5603517916667,58.0,109.0
949,255.45098016666665,257.59507395833333,50.0,49.0
950,257.4856991333333,258.10201759166665,55.0,97.0
951,257.92493454166663,258.1888230083333,58.0,109.0
952,255.223549975,258.2079202,43.0,102.0
953,257.71660154166665,258.36243384166664,50.0,82.0
954,258.15236473333334,258.41625319999997,62.0,82.0
955,258.33292,258.5690307333333,58.0,99.0
956,258.952710675,259.30514066666666,58.0,87.0
957,259.166252,259.38500165,62.0,80.0
958,259.3659044583333,259.619376275,65.0,108.0
959,259.56034859166664,259.7981954333333,62.0,84.0
960,258.5429891083333,260.02388951666666,46.0,105.0
961,259.7721538083333,260.0325700583333,58.0,105.0
962,258.76000265,260.1072227166666,53.0,55.0
963,259.9909034583333,260.65409684166667,62.0,89.0
964,260.59333305,260.9926379666667,58.0,96.0
965,260.8502770833333,261.07076284166664,62.0,89.0
966,261.04472121666663,261.3311790916666,65.0,105.0
967,260.16798650833334,261.34680406666666,46.0,96.0
968,260.3954167,261.36416514999996,53.0,67.0
969,261.24784589166666,261.4787483,62.0,92.0
970,261.43881780833334,261.72701179166665,58.0,102.0
971,261.69749795,261.82596996666666,62.0,82.0
972,262.05860848333333,262.6662464,58.0,74.0
973,262.28430256666667,262.8138156083333,63.0,65.0
974,262.49958,262.99263476666664,67.0,84.0
975,262.95444038333335,263.223537175,63.0,99.0
976,261.87110878333334,263.2981898333333,51.0,102.0
977,262.7408990583333,263.33117589166665,58.0,87.0
978,263.1731900333333,263.3971480083333,67.0,92.0
979,263.338120325,263.786036275,63.0,102.0
980,263.93360548333334,264.22527168333335,63.0,93.0
981,263.7061752916667,264.2513133083333,58.0,65.0
982,263.52214780833333,264.55166005,51.0,109.0
983,264.15061902499997,264.608951625,67.0,97.0
984,264.369368675,264.65756265833335,58.0,96.0
985,264.55686837499996,264.8745762,63.0,99.0
986,264.8103401916667,265.11415915,67.0,82.0
987,264.9978398916667,265.1888118083333,63.0,99.0
988,265.5829084,265.848532975,56.0,79.0
989,266.01867159166665,266.2461017833333,60.0,89.0
990,265.7981858333333,266.4370737,53.0,97.0
991,266.2044351833333,266.457907,56.0,96.0
992,266.4370737,266.6870733,60.0,94.0
993,266.8190175333333,266.8711007833333,60.0,34.0
994,266.60026788333334,266.9370729,56.0,102.0
995,266.848531375,267.26693348333333,65.0,111.0
996,267.05512826666666,267.36241944166665,60.0,100.0
997,267.2582529416666,267.51172475833334,56.0,96.0
998,267.452697075,267.75998825,53.0,71.0
999,267.69575224166664,267.9787379,60.0,105.0
1000,265.20443678333334,268.0273489333333,41.0,94.0
1001,265.40582535,268.077696075,48.0,51.0
1002,267.8867241583333,268.10720991666665,56.0,105.0
1003,268.08116829166664,268.39540389999996,53.0,67.0
1004,268.296445725,268.4822093166666,56.0,96.0
1005,268.9145002916666,269.1280416166667,58.0,65.0
1006,269.1315138333333,269.43359668333335,55.0,69.0
1007,269.34331905,269.73915174999996,62.0,89.0
1008,269.52734653333334,269.7773461333333,58.0,105.0
1009,268.53082035,269.8971376083333,43.0,87.0
1010,268.76345886666667,269.93359588333334,50.0,53.0
1011,269.7460961833333,269.983943025,55.0,100.0
1012,269.94748475,270.25998425,67.0,94.0
1013,270.5655393166667,270.8502610833333,63.0,57.0
1014,270.79991394166666,271.01171915833334,60.0,89.0
1015,271.0273441333333,271.3103297916667,67.0,94.0
1016,271.2356771333333,271.46657954166665,63.0,102.0
1017,270.400609025,271.49262116666665,55.0,67.0
1018,270.16449829166663,271.54123219999997,48.0,94.0
1019,271.44227402499996,271.7148430333333,60.0,92.0
1020,271.6488709166667,271.82769007499996,63.0,105.0
1021,272.254772725,272.61241104166663,58.0,90.0
1022,272.504772325,272.7269941916667,62.0,80.0
1023,272.71136921666664,272.95442438333333,65.0,108.0
1024,272.91623,273.17491014166666,62.0,94.0
1025,272.0377591833333,273.35720151666663,53.0,66.0
1026,271.82248175,273.3971320083333,46.0,99.0
1027,273.12803521666666,273.40928476666664,58.0,102.0
1028,273.525604025,273.59678446666663,41.0,78.0
1029,273.36067373333333,273.65928436666667,62.0,89.0
1030,273.9370617,274.18358908333335,58.0,90.0
1031,274.1523391333333,274.3815054333333,55.0,84.0
1032,274.379769325,274.6453939,62.0,100.0
1033,274.582894,274.80164364999996,58.0,105.0
1034,273.5203957,274.9387962083333,43.0,80.0
1035,274.7894908916667,275.0065044333333,55.0,89.0
1036,273.7304648083333,275.01344886666664,50.0,82.0
1037,275.01344886666664,275.21657354166666,62.0,73.0
1038,275.6158784583333,275.86414195,63.0,102.0
1039,275.83462810833333,276.11414155,60.0,82.0
1040,276.0429611083333,276.2287247,67.0,92.0
1041,276.21136361666663,276.47698819166663,63.0,109.0
1042,276.43532159166665,276.6644878916667,67.0,89.0
1043,276.608932425,276.93705689999996,63.0,99.0
1044,276.848515375,277.1870565,72.0,114.0
1045,277.05511226666664,277.31552851666663,67.0,97.0
1046,277.25823694166667,277.48913934999996,63.0,112.0
1047,277.46830604999997,277.68011126666664,60.0,111.0
1048,277.68011126666664,277.952680275,67.0,105.0
1049,277.87281929166664,278.1523327333333,63.0,102.0
1050,278.1019855916667,278.3120547,60.0,102.0
1051,278.31552691666667,278.483929425,67.0,82.0
1052,275.4144898916667,278.50997105,55.0,60.0
1053,275.1940041333333,278.5325404583333,48.0,87.0
1054,278.5325404583333,279.0117063583333,63.0,99.0
1055,278.983928625,279.3242058583333,60.0,64.0
1056,279.2061504916667,279.4717750666667,63.0,74.0
1057,279.44746955,279.69920525833334,67.0,97.0
1058,279.64364979166663,279.84503835833334,63.0,87.0
1059,279.8346217083333,280.29469041666664,60.0,82.0
1060,280.00823254166664,280.41969021666665,63.0,102.0
1061,280.213093325,280.65406484166664,72.0,114.0
1062,280.44746795,280.7408702583333,67.0,89.0
1063,280.66274538333334,280.92316163333334,63.0,109.0
1064,280.86413395,281.13843906666665,60.0,92.0
1065,281.07073084166666,281.3658692583333,67.0,102.0
1066,281.25823054166665,281.52038289999996,63.0,105.0
1067,278.76170675833333,281.52211900833333,55.0,76.0
1068,278.541221,281.56899393333333,48.0,97.0
1069,281.47177186666664,281.7703825,60.0,100.0
1070,281.6870493,281.9578822,67.0,87.0
1071,282.31725662499997,282.58635341666667,58.0,85.0
1072,282.536006275,282.8294085833333,55.0,64.0
1073,282.74260316666664,282.94399173333335,62.0,87.0
1074,282.92663065,283.2564912333333,58.0,102.0
1075,283.15406084166665,283.6228100916667,62.0,80.0
1076,283.58114349166664,283.9908650583333,67.0,114.0
1077,283.78253205833335,284.0811426916666,62.0,97.0
1078,283.97697619166667,284.2478090916667,58.0,109.0
1079,282.13843746666663,284.28426736666665,50.0,49.0
1080,284.1748925416667,284.78947489166666,55.0,97.0
1081,284.61412795,284.8762803083333,58.0,109.0
1082,281.911007275,284.8971136083333,43.0,102.0
1083,284.40405884166665,285.04989114166665,50.0,82.0
1084,284.84155814166667,285.1037105,62.0,82.0
1085,285.0203773,285.2564880333333,58.0,99.0
1086,285.640167975,285.99259796666666,58.0,87.0
1087,285.8554454083333,286.0741950583333,62.0,80.0
1088,286.0533617583333,286.3085696833333,65.0,108.0
1089,286.24780589166664,286.48738884166664,62.0,84.0
1090,285.2304464083333,286.71134681666666,46.0,105.0
1091,286.46134721666664,286.7200273583333,58.0,105.0
1092,285.4491960583333,286.796416125,53.0,55.0
1093,286.68009686666664,287.34329025,62.0,89.0
1094,287.28079034999996,287.681831375,58.0,96.0
1095,287.5377343833333,287.75995624999996,62.0,89.0
1096,287.73217851666664,288.0203725,65.0,105.0
1097,286.85544380833335,288.03426136666667,46.0,96.0
1098,287.082874,288.05335855833334,53.0,67.0
1099,287.9370393,288.1662056,62.0,92.0
1100,288.12801121666666,288.41446909166666,58.0,102.0
1101,288.38495524999996,288.51342726666667,62.0,82.0
1102,288.74780189166665,289.3554398083333,58.0,74.0
1103,288.9717598666667,289.5012729083333,63.0,65.0
1104,289.1870373,289.68182817499996,67.0,84.0
1105,289.6418976833333,289.910994475,63.0,99.0
1106,288.55856608333335,289.9856471333333,51.0,102.0
1107,289.4283563583333,290.02036929999997,58.0,87.0
1108,289.8606473333333,290.0846053083333,67.0,92.0
1109,290.025577625,290.47349357499996,63.0,102.0
1110,290.62106278333334,290.91446509166667,63.0,93.0
1111,290.39363259166663,290.9387706083333,58.0,65.0
1112,290.21134121666665,291.24085345833333,51.0,109.0
1113,290.8398124333333,291.2981450333333,67.0,97.0
1114,291.0585620833333,291.3450199583333,58.0,96.0
1115,291.24432567499997,291.5637696083333,63.0,99.0
1116,291.49779749166663,291.8033525583333,67.0,82.0
1117,291.6870333,291.8780052166667,63.0,99.0
1118,292.2703657,292.53599027499996,56.0,79.0
1119,292.70786499999997,292.9352951916666,60.0,89.0
1120,292.4856431333333,293.1262671083333,53.0,97.0
1121,292.89362859166664,293.1471004083333,56.0,96.0
1122,293.1262671083333,293.3745306,60.0,94.0
1123,293.5064748333333,293.5602941916666,60.0,34.0
1124,293.2877251833333,293.6262663083333,56.0,102.0
1125,293.535988675,293.95612689166666,65.0,111.0
1126,293.74258556666666,294.05161284999997,60.0,100.0
1127,293.94744635,294.20091816666667,56.0,96.0
1128,294.1418904833333,294.4491816583333,53.0,71.0
1129,294.38320954166664,294.6679313083333,60.0,105.0
1130,291.89363019166666,294.7148062333333,41.0,94.0
1131,292.09328265,294.76688948333333,48.0,51.0
1132,294.57591756666665,294.79640332499997,56.0,105.0
1133,294.77036169999997,295.08459730833334,53.0,67.0
1134,294.98563913333334,295.171402725,56.0,96.0
1135,295.60195759166663,295.817235025,58.0,65.0
1136,295.82070724166664,296.1227900916667,55.0,69.0
1137,296.0325124583333,296.42834515833334,62.0,89.0
1138,296.21653994166667,296.46653954166663,58.0,105.0
1139,295.21827765,296.58633101666663,43.0,87.0
1140,295.452652275,296.62278929166666,50.0,53.0
1141,296.4335534833333,296.6731364333333,55.0,100.0
1142,296.6366781583333,296.9491776583333,67.0,94.0
1143,297.254732725,297.5377183833333,63.0,57.0
1144,297.48737124166666,297.69917645833334,60.0,89.0
1145,297.7148014333333,297.9995232,67.0,94.0
1146,297.9248705416667,298.15403684166665,63.0,102.0
1147,297.0898024333333,298.181814575,55.0,67.0
1148,296.8536917,298.2304256083333,48.0,94.0
1149,298.13146743333334,298.4040364416667,60.0,92.0
1150,298.338064325,298.51688348333334,63.0,105.0
1151,298.94223002499996,299.30160445,58.0,90.0
1152,299.1939657333333,299.4144514916666,62.0,80.0
1153,299.40056262499996,299.64188168333334,65.0,108.0
1154,299.6036873,299.86410355,62.0,94.0
1155,298.72695259166665,300.04639492499996,53.0,66.0
1156,298.51167515833333,300.0845893083333,46.0,99.0
1157,299.817228625,300.09674206666665,58.0,102.0
1158,300.21479743333333,300.285977875,41.0,78.0
1159,300.04986714166665,300.348477775,62.0,89.0
1160,300.62451899999996,300.87278249166667,58.0,90.0
1161,300.83979643333333,301.0706988416666,55.0,84.0
1162,301.067226625,301.3328512,62.0,100.0
1163,301.27035129999996,301.49083705833334,58.0,105.0
1164,300.207853,301.6262535083333,43.0,80.0
1165,301.4769481916667,301.69569784166663,55.0,89.0
1166,300.4179221083333,301.70090616666664,50.0,82.0
1167,301.70264227499996,301.90576695,62.0,73.0
1168,302.30333575833333,302.55159925,63.0,102.0
1169,302.52208540833334,302.8033349583333,60.0,82.0
1170,302.73215451666664,302.916182,67.0,92.0
1171,302.89882091666664,303.16618159999996,63.0,109.0
1172,303.124515,303.3536813,67.0,89.0
1173,303.2981258333333,303.62625030833334,63.0,99.0
1174,303.5377087833333,303.8745138,72.0,114.0
1175,303.74430567499996,304.004721925,67.0,97.0
1176,303.94743035,304.17659664999996,63.0,112.0
1177,304.15576335,304.36930467499997,60.0,111.0
1178,304.36930467499997,304.6418736833333,67.0,105.0
1179,304.56027659166665,304.84152614166663,63.0,102.0
1180,304.791179,304.999512,60.0,102.0
1181,305.0029842166667,305.1731228333333,67.0,82.0
1182,302.1036833,305.19742835,55.0,60.0
1183,301.8814614333333,305.2217338666666,48.0,87.0
1184,305.59152494166665,306.160968475,48.0,73.0
1185,306.42485694166663,307.473466375,56.0,88.0
1186,306.00819094166667,307.5220774083333,60.0,94.0
1187,307.2581889416667,307.87624350833335,48.0,38.0
1188,305.1748589416666,307.9647850333333,41.0,101.0
1189,307.67485494166664,308.3814510333333,56.0,96.0
1190,307.67485494166664,308.45610369166667,60.0,96.0
1191,306.84152294166665,309.4148885,65.0,96.0
1192,308.92757034166664,309.7394927916667,50.0,69.0
1193,309.3623523416667,309.80578060416667,58.0,120.0
1194,308.5081869416667,310.26790135416667,43.0,96.0
1195,309.8000987916667,310.29820435416667,55.0,80.0
1196,310.2546437916667,311.1883549791667,60.0,99.0
1197,310.7091887916667,311.2357034166667,55.0,91.0
1198,310.2546437916667,311.5754876666667,48.0,85.0
1199,311.1637337916667,311.6458001666667,63.0,110.0
1200,311.6204095416667,312.1340814166667,62.0,104.0
1201,312.0891595416667,313.0969720416667,58.0,101.0
1202,312.5579095416667,313.57301370833335,53.0,66.0
1203,312.0891595416667,313.94801370833335,46.0,79.0
1204,313.0266595416667,314.28134704166666,62.0,109.0
1205,313.9875970416667,314.28134704166666,62.0,101.0
1206,313.99176370833334,314.9105137083333,55.0,87.0
1207,314.514680375,315.25009704166666,50.0,80.0
1208,313.983430375,315.473708075,43.0,99.0
1209,315.0375970416667,316.161206975,58.0,120.0
1210,316.1021792916667,316.2480123916667,36.0,99.0
1211,316.8886363666667,317.12648320833335,60.0,85.0
1212,317.0865527166667,317.3000940416667,62.0,91.0
1213,317.2792607416667,317.43551049166666,63.0,117.0
1214,317.5396769916667,318.0188428916667,67.0,99.0
1215,317.8556487083333,318.23064810833336,74.0,64.0
1216,316.7306505083333,318.92682755,55.0,74.0
1217,318.20113426666666,319.046619025,72.0,43.0
1218,316.494539775,319.05182735,48.0,89.0
1219,318.51536987500003,319.11085503333334,79.0,94.0
1220,319.577868175,320.28446426666665,84.0,85.0
1221,319.35043798333334,320.42856125833333,55.0,69.0
1222,319.2688408916667,320.46501953333336,48.0,44.0
