,start,end,pitch,velocity
0,42.34073146874999,42.52971937499999,75.0,117.0
1,42.697873968749995,42.79311196875,75.0,127.0
2,42.87644521874999,43.077337875,75.0,112.0
3,43.41215896874999,43.64132540625,74.0,127.0
4,43.769301468749994,43.916622749999995,75.0,122.0
5,43.94787271875,44.133884437499994,74.0,96.0
6,44.30501521874999,44.656205343749996,70.0,112.0
7,44.84072896874999,45.050550187499994,72.0,127.0
8,45.197871468749995,45.27971662499999,70.0,112.0
9,45.37644271874999,45.55203778124999,70.0,102.0
10,45.91215646875,46.223168062499994,72.0,112.0
11,46.26929896874999,46.65322715625,67.0,102.0
12,48.055011468749996,48.27971362499999,75.0,127.0
13,48.41215396875,48.50143959374999,75.0,127.0
14,48.590725218749995,48.840724968749996,75.0,127.0
15,49.126438968749994,49.34965303124999,74.0,127.0
16,49.483581468749996,49.63983131249999,75.0,122.0
17,49.662152718749994,49.84518824999999,74.0,102.0
18,50.019295218749996,50.37048534375,70.0,127.0
19,50.555008968749995,50.84221106249999,72.0,117.0
20,50.91215146875,51.09221081249999,79.0,117.0
21,51.26929396874999,51.443400937499995,79.0,122.0
22,51.62643646874999,51.86750765624999,70.0,112.0
23,51.983578968749995,52.904709,72.0,122.0
24,53.76929146874999,53.84369615625,75.0,127.0
25,53.947862718749995,54.022267406249995,75.0,112.0
26,54.12643396874999,54.296076656249994,75.0,122.0
27,54.84071896875,55.069885406249995,74.0,127.0
28,55.19786146874999,55.3183970625,75.0,117.0
29,55.376432718749996,55.571372999999994,74.0,106.0
30,55.73357521874999,56.038634437499994,70.0,117.0
31,56.26928896875,56.46274115624999,72.0,122.0
32,56.62643146874999,56.70678853124999,70.0,117.0
33,56.805002718749996,57.01482393749999,70.0,107.0
34,57.340716468749996,57.779704124999995,72.0,127.0
35,57.69785896874999,58.121965687499994,67.0,97.0
36,58.23357271875,58.343691656249995,68.0,102.0
37,58.32285834374999,58.424048718749994,67.0,90.0
38,58.412143968749994,58.85410781249999,65.0,92.0
39,59.48357146874999,59.55797615624999,63.0,100.0
40,59.66214271874999,59.699345062499994,63.0,90.0
41,59.840713968749995,59.913630562499996,63.0,96.0
42,60.01928521874999,60.41809434374999,75.0,127.0
43,60.55499896874999,60.830296312499996,74.0,127.0
44,60.912141468749994,61.037141343749994,75.0,122.0
45,61.09071271874999,61.3481529375,74.0,122.0
46,61.62642646874999,61.87493812499999,70.0,127.0
47,61.98356896874999,62.23505681249999,72.0,117.0
48,62.51928271874999,62.822853843749996,79.0,127.0
49,63.05499646874999,63.31541287499999,70.0,127.0
50,63.41213896874999,64.28713809374999,72.0,117.0
51,65.19785146874999,65.28713709374999,75.0,112.0
52,65.37642271874999,65.46124406249999,75.0,122.0
53,65.55499396875,65.71570809375,75.0,127.0
54,66.26927896874999,66.50142159375,74.0,127.0
55,66.62642146875,66.89427834374999,74.0,127.0
56,66.98356396874999,67.14278999999999,74.0,127.0
57,67.34070646874999,67.4671944375,72.0,122.0
58,67.51927771874999,67.62046809374999,70.0,112.0
59,67.69784896875,67.97463440624999,72.0,117.0
60,68.05499146874999,68.1279080625,70.0,122.0
61,68.23356271875,68.446360125,70.0,100.0
62,68.76927646875,69.065407125,72.0,117.0
63,69.12641896874999,69.7826683125,67.0,107.0
64,70.91213146874999,70.9850480625,75.0,127.0
65,71.09070271875,71.16659549999999,75.0,99.0
66,71.26927396874999,71.34963103125,75.0,127.0
67,71.44784521874999,71.63534503125,75.0,127.0
68,71.80498771875,71.91659474999999,75.0,127.0
69,71.98355896874999,72.1933801875,74.0,127.0
70,72.34070146875,72.4671894375,75.0,127.0
71,72.51927271874999,72.7529034375,74.0,127.0
72,72.87641521875,73.29903384375,70.0,127.0
73,73.41212896875,73.75885481249999,72.0,127.0
74,73.94784271875,74.20379484374999,79.0,122.0
75,74.48355646875,74.74992524999999,70.0,117.0
76,74.84069896874999,75.96569784375,72.0,117.0
77,76.62641146874999,76.71569709375,75.0,112.0
78,76.80498271875,76.88980406249999,75.0,122.0
79,76.98355396874999,77.14426809374999,75.0,127.0
80,77.69783896874999,77.94486253125,74.0,122.0
81,78.05498146874999,78.17551706249999,75.0,122.0
82,78.23355271874999,78.458254875,74.0,99.0
83,78.59069521874999,78.9017068125,70.0,127.0
84,79.12640896874998,79.40319440625,72.0,117.0
85,79.48355146875,79.55646806249999,70.0,122.0
86,79.66212271874998,79.87492012499999,70.0,100.0
87,80.19783646875,80.493967125,72.0,117.0
88,80.55497896874999,81.2112283125,67.0,107.0
89,82.34069146875,82.38979856249999,63.0,127.0
90,82.51926271874999,82.589203125,63.0,90.0
91,82.69783396874999,82.7856315,63.0,127.0
92,82.87640521875,83.11747640624999,75.0,117.0
93,83.41211896875,83.6040830625,74.0,127.0
94,83.76926146874999,83.91807084374999,75.0,127.0
95,83.94783271874999,84.10705875,74.0,122.0
96,84.30497521874999,84.70080815624999,70.0,127.0
97,84.84068896874999,85.16955768749999,72.0,112.0
98,85.37640271874999,85.66955718749999,79.0,112.0
99,85.91211646874999,86.15467575,70.0,127.0
100,86.26925896875,86.97163921874998,72.0,122.0
101,89.84068396874999,90.1874098125,79.0,117.0
102,90.19782646875,90.45229049999999,82.0,127.0
103,90.55496896874999,91.0624089375,84.0,127.0
104,91.26925396875,91.78711059374999,87.0,127.0
105,91.98353896874998,92.51181224999999,86.0,127.0
106,92.69782396874999,93.01032365625,82.0,127.0
107,93.05496646875,93.35258521875,86.0,127.0
108,93.41210896874999,94.12639396875,86.0,127.0
109,94.12639396875,94.86300037499998,84.0,127.0
110,95.55496396874999,95.83026131249999,79.0,112.0
111,95.91210646874998,96.1874038125,82.0,122.0
112,96.26924896874999,96.755855625,84.0,127.0
113,96.98353396875,97.41805734375,87.0,127.0
114,97.69781896874998,98.16656849999998,84.0,127.0
115,98.41210396874999,98.72757984375,77.0,127.0
116,98.76924646874998,98.96716293749999,82.0,127.0
117,99.12638896874999,99.84067396874998,82.0,127.0
118,99.84067396874998,100.80644681249998,79.0,122.0
119,101.98352896875,102.56239743749998,84.0,127.0
120,102.69781396874998,103.28263481249999,91.0,127.0
121,103.41209896874999,103.84215806249999,89.0,127.0
122,104.12638396874999,104.37191943749998,84.0,122.0
123,104.48352646874999,104.65316915624999,87.0,127.0
124,104.66209771874999,104.83471659374999,84.0,97.0
125,104.84066896875,105.20822812499999,82.0,127.0
126,105.19781146874999,105.56388253124999,79.0,117.0
127,105.55495396874998,106.58025056249998,82.0,127.0
128,107.69780896874998,108.14870137499999,91.0,112.0
129,108.41209396874999,108.89274824999998,89.0,127.0
130,109.12637896874999,109.51179524999999,87.0,127.0
131,109.84066396875,110.15911603125,82.0,127.0
132,110.19780646874999,110.53560374999999,87.0,127.0
133,110.55494896874998,112.70524443749999,84.0,127.0
134,112.69780396875,113.04452981249999,79.0,117.0
135,113.05494646874999,113.30941049999998,82.0,127.0
136,113.41208896874998,113.91952893749999,84.0,127.0
137,114.12637396874999,114.64423059374998,87.0,127.0
138,114.84065896874999,115.36893224999999,86.0,127.0
139,115.55494396874998,115.86744365624999,82.0,127.0
140,115.91208646874999,116.20970521874999,86.0,127.0
141,116.26922896874999,116.98351396874999,86.0,127.0
142,116.98351396874999,118.04452481249999,84.0,127.0
143,118.41208396874998,118.68738131249998,79.0,112.0
144,118.76922646874999,119.04452381249999,82.0,122.0
145,119.12636896874999,119.61297562499999,84.0,127.0
146,119.84065396874999,120.27517734374999,87.0,127.0
147,120.55493896874998,121.02368849999999,84.0,127.0
148,121.26922396874998,121.58469984374999,77.0,127.0
149,121.62636646874999,121.82428293749999,82.0,127.0
150,121.98350896874999,122.69779396874999,82.0,127.0
151,122.69779396874999,124.12636396874998,79.0,122.0
152,124.84064896874999,125.41951743749999,84.0,127.0
153,125.55493396874999,126.13975481249999,91.0,127.0
154,126.26921896874998,126.69927806249999,89.0,127.0
155,126.98350396874999,127.22903943749999,84.0,122.0
156,127.34064646874998,127.51028915624998,87.0,127.0
157,127.51921771874999,127.69183659374998,84.0,97.0
158,127.69778896874999,128.06534812499999,82.0,127.0
159,128.05493146875,128.42100253125,79.0,117.0
160,128.41207396874998,130.26177449999997,82.0,127.0
161,130.55492896874998,131.00582137499998,91.0,112.0
162,131.26921396875,131.74986825,89.0,127.0
163,131.98349896874998,132.36891525,87.0,127.0
164,132.69778396874997,133.01623603124997,82.0,127.0
165,133.05492646874998,133.39272375,87.0,127.0
166,133.41206896875,135.56236443749998,84.0,127.0
167,159.42852746875002,159.51781309375002,75.0,112.0
168,159.60709871875,159.6919200625,75.0,122.0
169,159.78566996875,159.94638409375,75.0,127.0
170,160.49995496875002,160.73209759375,74.0,127.0
171,160.85709746875,161.12495434375,74.0,127.0
172,161.21423996875,161.373466,74.0,127.0
173,161.57138246875002,161.6978704375,72.0,122.0
174,161.74995371875002,161.85114409375,70.0,112.0
175,161.92852496875,162.20531040625002,72.0,117.0
176,162.28566746875,162.3585840625,70.0,122.0
177,162.46423871875,162.677036125,70.0,100.0
178,162.99995246875,163.296083125,72.0,117.0
179,163.35709496875,164.0133443125,67.0,107.0
180,165.14280746875,165.21572406250002,75.0,127.0
181,165.32137871875,165.39727150000002,75.0,99.0
182,165.49994996875,165.58030703125002,75.0,127.0
183,165.67852121875,165.86602103125,75.0,127.0
184,166.03566371875002,166.14727075000002,75.0,127.0
185,166.21423496875002,166.4240561875,74.0,127.0
186,166.57137746875,166.6978654375,75.0,127.0
187,166.74994871875,166.9835794375,74.0,127.0
188,167.10709121875,167.52970984375,70.0,127.0
189,167.64280496875,167.9895308125,72.0,127.0
190,168.17851871875,168.43447084375,79.0,122.0
191,168.71423246875,168.98060125,70.0,117.0
192,169.07137496875,170.19637384375,72.0,117.0
193,170.85708746875,170.94637309375,75.0,112.0
194,171.03565871875,171.1204800625,75.0,122.0
195,171.21422996875,171.37494409375,75.0,127.0
196,171.92851496875,172.17553853125,74.0,122.0
197,172.28565746875,172.4061930625,75.0,122.0
198,172.46422871875,172.688930875,74.0,99.0
199,172.82137121875002,173.1323828125,70.0,127.0
200,173.35708496875,173.63387040625,72.0,117.0
201,173.71422746875,173.7871440625,70.0,122.0
202,173.89279871875002,174.105596125,70.0,100.0
203,174.42851246875,174.724643125,72.0,117.0
204,174.78565496875,175.44190431250001,67.0,107.0
205,176.57136746875,176.62047456250002,63.0,127.0
206,176.74993871875,176.819879125,63.0,90.0
207,176.92850996875,177.0163075,63.0,127.0
208,177.10708121875,177.34815240625,75.0,117.0
209,177.64279496875,177.8347590625,74.0,127.0
210,177.99993746875,178.14874684375002,75.0,127.0
211,178.17850871875,178.33773475,74.0,122.0
212,178.53565121875,178.93148415625,70.0,127.0
213,179.07136496875,179.40023368750002,72.0,112.0
214,179.60707871875002,179.90023318750002,79.0,112.0
215,180.14279246875,180.38535175,70.0,127.0
216,180.49993496875,181.20231521875002,72.0,122.0
217,182.64278996875,182.9895158125,79.0,117.0
218,182.99993246875,183.2543965,82.0,127.0
219,183.35707496875,183.86451493750002,84.0,127.0
220,184.07135996875002,184.58921659375,87.0,127.0
221,184.78564496875,185.31391825,86.0,127.0
222,185.49992996875,185.81242965625,82.0,127.0
223,185.85707246875,186.15469121875,86.0,127.0
224,186.21421496875,186.92849996875,86.0,127.0
225,186.92849996875,187.665106375,84.0,127.0
226,188.35706996875,188.6323673125,79.0,112.0
227,188.71421246875002,188.9895098125,82.0,122.0
228,189.07135496875,189.55796162500002,84.0,127.0
229,189.78563996875,190.22016334375002,87.0,127.0
230,190.49992496875,190.96867450000002,84.0,127.0
231,191.21420996875,191.52968584375,77.0,127.0
232,191.57135246875,191.7692689375,82.0,127.0
233,191.92849496875,192.64277996875,82.0,127.0
234,192.64277996875,193.6085528125,79.0,122.0
235,194.78563496875,195.3645034375,84.0,127.0
236,195.49991996875,196.0847408125,91.0,127.0
237,196.21420496875,196.64426406249999,89.0,127.0
238,196.92848996875,197.1740254375,84.0,122.0
239,197.28563246875,197.45527515625,87.0,127.0
240,197.46420371875,197.63682259375,84.0,97.0
241,197.64277496875002,198.01033412499999,82.0,127.0
242,197.99991746875,198.36598853125,79.0,117.0
243,198.35705996875,199.3823565625,82.0,127.0
244,200.49991496875,200.950807375,91.0,112.0
245,201.21419996875,201.69485425,89.0,127.0
246,201.92848496875,202.31390125000001,87.0,127.0
247,202.64276996875,202.96122203125,82.0,127.0
248,202.99991246874998,203.33770975,87.0,127.0
249,203.35705496875,205.5073504375,84.0,127.0
250,205.49990996875,205.84663581249998,79.0,117.0
251,205.85705246875,206.1115165,82.0,127.0
252,206.21419496875,206.7216349375,84.0,127.0
253,206.92847996875,207.44633659375,87.0,127.0
254,207.64276496875,208.17103824999998,86.0,127.0
255,208.35704996875,208.66954965625,82.0,127.0
256,208.71419246875,209.01181121874998,86.0,127.0
257,209.07133496875,209.78561996874998,86.0,127.0
258,209.78561996874998,210.8466308125,84.0,127.0
259,211.21418996875002,211.4894873125,79.0,112.0
260,211.57133246875,211.8466298125,82.0,122.0
261,211.92847496874998,212.415081625,84.0,127.0
262,212.64275996875,213.07728334375,87.0,127.0
263,213.35704496875002,213.8257945,84.0,127.0
264,214.07132996875,214.38680584374998,77.0,127.0
265,214.42847246875,214.6263889375,82.0,127.0
266,214.78561496875,215.49989996875001,82.0,127.0
267,215.49989996875001,216.92846996875,79.0,122.0
268,217.64275496875,218.2216234375,84.0,127.0
269,218.35703996875,218.9418608125,91.0,127.0
270,219.07132496875,219.5013840625,89.0,127.0
271,219.78560996875,220.03114543750002,84.0,122.0
272,220.14275246875002,220.31239515625,87.0,127.0
273,220.32132371875,220.49394259375,84.0,97.0
274,220.49989496875,220.867454125,82.0,127.0
275,220.85703746874998,221.22310853125,79.0,117.0
276,221.21417996875,223.06388049999998,82.0,127.0
277,223.35703496874999,223.80792737500002,91.0,112.0
278,224.07131996875,224.55197425,89.0,127.0
279,224.78560496875,225.17102125,87.0,127.0
280,225.49988996874998,225.81834203124998,82.0,127.0
281,225.85703246875,226.19482975,87.0,127.0
282,226.21417496875,227.64274496874998,84.0,127.0
283,228.35702996875,228.6323273125,79.0,112.0
284,228.71417246875,228.9894698125,82.0,122.0
285,229.07131496875002,229.557921625,84.0,127.0
286,229.78559996874998,230.22012334375,87.0,127.0
287,230.49988496875,230.9686345,84.0,127.0
288,231.21416996875,231.52964584375002,77.0,127.0
289,231.57131246875,231.7692289375,82.0,127.0
290,231.92845496875,232.64273996875,82.0,127.0
291,232.64273996875,233.6085128125,79.0,122.0
292,234.78559496875,235.36446343749998,84.0,127.0
293,235.49987996875,236.0847008125,91.0,127.0
294,236.21416496875,236.6442240625,89.0,127.0
295,236.92844996875,237.1739854375,84.0,122.0
296,237.28559246875,237.45523515625,87.0,127.0
297,237.46416371875,237.63678259375,84.0,97.0
298,237.64273496875,238.010294125,82.0,127.0
299,237.99987746875001,238.36594853125,79.0,117.0
300,238.35701996875,239.3823165625,82.0,127.0
301,240.49987496875,240.950767375,91.0,112.0
302,241.21415996874998,241.69481424999998,89.0,127.0
303,241.92844496875,242.31386125,87.0,127.0
304,242.64272996875002,242.96118203125,82.0,127.0
305,242.99987246875,243.33766975,87.0,127.0
306,243.35701496874998,245.5073104375,84.0,127.0
307,245.49986996874998,245.8465958125,79.0,117.0
308,245.85701246874999,246.11147649999998,82.0,127.0
309,246.21415496875,246.72159493750002,84.0,127.0
310,246.92843996875,247.44629659375,87.0,127.0
311,247.64272496875,248.17099825,86.0,127.0
312,248.35700996875,248.66950965625,82.0,127.0
313,248.71415246875,249.01177121875,86.0,127.0
314,249.07129496875,249.78557996875,86.0,127.0
315,249.78557996875,250.84659081249998,84.0,127.0
