,start,end,pitch,velocity
0,18.412183968749996,18.711290812499996,55.0,107.0
1,18.412183968749996,18.764862187499997,67.0,112.0
2,18.76932646875,19.120516593749997,58.0,100.0
3,18.76932646875,19.135397531249996,70.0,117.0
4,19.48361146875,19.934503874999997,60.0,88.0
5,19.66218271875,19.940456249999997,67.0,36.0
6,20.019325218749998,20.218729781249998,60.0,82.0
7,19.840753968749997,20.255932124999998,72.0,97.0
8,19.126468968749997,20.282717812499996,48.0,97.0
9,19.305040218749998,20.31992015625,55.0,88.0
10,19.840753968749997,20.45087240625,75.0,107.0
11,20.19789646875,20.510396156249996,67.0,90.0
12,20.376467718749996,20.549086593749998,72.0,96.0
13,20.733610218749998,20.97765759375,58.0,97.0
14,21.090752718749997,21.31694296875,58.0,93.0
15,20.91218146875,21.340752468749997,65.0,88.0
16,21.44789521875,21.541645125,58.0,89.0
17,20.555038968749997,21.56991890625,46.0,117.0
18,21.269323968749998,21.666645,70.0,73.0
19,21.269323968749998,21.96575184375,74.0,93.0
20,21.626466468749996,21.998489906249997,65.0,96.0
21,21.805037718749997,22.026763687499997,70.0,81.0
22,22.340751468749996,22.7231915625,56.0,89.0
23,22.519322718749997,22.75741771875,60.0,85.0
24,22.87646521875,23.1160483125,56.0,96.0
25,22.697893968749998,23.122000687499998,63.0,100.0
26,22.16218021875,23.129441156249996,51.0,54.0
27,21.983608968749998,23.238072,44.0,82.0
28,22.697893968749998,23.34372665625,68.0,92.0
29,23.055036468749996,23.401762312499997,60.0,96.0
30,23.233607718749997,23.404738499999997,63.0,100.0
31,23.769321468749997,24.040154531249996,55.0,99.0
32,23.947892718749998,24.117535406249996,58.0,97.0
33,23.590750218749996,24.205332937499996,50.0,76.0
34,24.305035218749996,24.468725531249998,50.0,96.0
35,23.41217896875,24.505927874999998,43.0,76.0
36,24.12646396875,24.744022875,62.0,107.0
37,24.483606468749997,24.769320468749996,58.0,117.0
38,24.662177718749998,24.788665687499996,55.0,97.0
39,25.197891468749997,25.437474562499997,60.0,102.0
40,25.37646271875,25.5327125625,63.0,112.0
41,25.019320218749996,25.613069624999998,55.0,95.0
42,25.733605218749997,25.873486031249996,55.0,92.0
43,24.84074896875,25.915152656249997,48.0,86.0
44,25.912176468749998,26.185985718749997,63.0,127.0
45,25.555033968749996,26.196402374999998,67.0,102.0
46,26.09074771875,26.346699843749995,60.0,97.0
47,26.626461468749998,27.028246781249997,58.0,102.0
48,26.805032718749995,27.145806187499996,62.0,89.0
49,26.447890218749997,27.251460843749996,53.0,68.0
50,27.162175218749997,27.302056031249997,58.0,117.0
51,26.269318968749996,27.321401249999997,46.0,96.0
52,27.340746468749998,27.668127093749998,65.0,99.0
53,26.983603968749996,27.671103281249998,70.0,112.0
54,27.519317718749996,27.691936593749997,62.0,102.0
55,28.233602718749996,28.422590624999998,60.0,93.0
56,28.05503146875,28.459792968749998,56.0,88.0
57,28.412173968749997,28.766340281249995,63.0,122.0
58,28.590745218749998,28.784197406249998,56.0,99.0
59,27.876460218749997,28.851161624999996,51.0,71.0
60,27.697888968749997,28.974673406249998,44.0,82.0
61,28.769316468749995,29.107113749999996,60.0,97.0
62,28.947887718749996,29.123482781249997,63.0,122.0
63,29.483601468749995,29.794613062499998,55.0,93.0
64,29.662172718749996,29.830327312499996,58.0,100.0
65,29.305030218749998,29.883898687499997,50.0,89.0
66,30.01931521875,30.403243406249995,50.0,90.0
67,29.126458968749997,30.476159999999997,43.0,76.0
68,30.197886468749996,30.568421812499995,58.0,112.0
69,29.840743968749997,30.572886093749997,62.0,100.0
70,30.376457718749997,30.575862281249996,55.0,99.0
71,30.912171468749996,31.148778374999996,60.0,85.0
72,31.090742718749997,31.269313968749998,63.0,112.0
73,30.733600218749995,31.302052031249996,55.0,97.0
74,30.555028968749998,31.543123218749997,48.0,93.0
75,31.447885218749995,31.543123218749997,55.0,89.0
76,31.626456468749996,31.903241906249995,63.0,122.0
77,31.269313968749998,31.961277562499998,67.0,95.0
78,31.805027718749997,32.03717034375,60.0,97.0
79,32.34074146875,32.74252678125,58.0,95.0
80,32.519312718749994,32.866038562499995,62.0,93.0
81,32.16217021875,32.9761575,53.0,70.0
82,32.876455218749996,33.002943187499994,58.0,102.0
83,31.983598968749998,33.037169343749994,46.0,95.0
84,32.69788396875,33.28270481249999,70.0,122.0
85,33.05502646874999,33.355621406249995,65.0,90.0
86,33.23359771875,33.412168968749995,62.0,107.0
87,33.947882718749995,34.113061124999994,60.0,92.0
88,33.76931146875,34.16812059375,56.0,92.0
89,33.59074021875,34.39877512499999,51.0,72.0
90,34.305025218749996,34.431513187499995,56.0,100.0
91,33.412168968749995,34.45085840625,44.0,90.0
92,34.12645396875,34.4910369375,63.0,112.0
93,34.483596468749994,34.806512812499996,60.0,96.0
94,34.66216771875,34.828834218749996,63.0,112.0
95,35.19788146875,35.433000281249996,55.0,81.0
96,35.376452718749995,35.559488249999994,58.0,102.0
97,35.01931021874999,35.60859534375,50.0,88.0
98,34.840738968749996,35.894309343749995,43.0,78.0
99,35.73359521875,35.90174981249999,50.0,92.0
100,35.55502396874999,36.184487624999996,62.0,97.0
101,35.912166468749994,36.18895190625,58.0,117.0
102,36.09073771875,36.22615424999999,55.0,96.0
103,36.62645146875,36.8719869375,60.0,85.0
104,36.805022718749996,36.965736843749994,63.0,100.0
105,36.447880218749994,37.02526059375,55.0,95.0
106,36.269308968749996,37.248474656249996,48.0,81.0
107,37.16216521875,37.2707960625,55.0,78.0
108,37.340736468749995,37.59817668749999,63.0,117.0
109,36.98359396874999,37.62942665625,67.0,100.0
110,37.51930771874999,37.67853374999999,60.0,95.0
111,38.05502146875,38.440437749999994,58.0,102.0
112,38.233592718749996,38.4493663125,62.0,93.0
113,37.876450218749994,38.662163718749994,53.0,38.0
114,38.59073521875,38.712758906249995,58.0,102.0
115,37.69787896875,38.72019937499999,46.0,78.0
116,38.412163968749994,38.74996125,65.0,102.0
117,38.769306468749996,38.999961,62.0,107.0
118,38.94787771874999,39.12496087499999,65.0,97.0
119,39.66216271875,39.805019718749996,60.0,90.0
120,39.48359146874999,39.84817443749999,56.0,102.0
121,39.305020218749995,40.193412187499995,51.0,35.0
122,40.01930521875,40.2142455,56.0,100.0
123,39.840733968749994,40.24847165625,63.0,107.0
124,39.12644896875,40.2886501875,44.0,93.0
125,40.197876468749996,40.477638093749995,60.0,107.0
126,40.37644771874999,40.48507856249999,63.0,107.0
127,40.55501896875,41.38537528124999,55.0,93.0
128,40.55501896875,41.894303343749996,43.0,56.0
129,40.55501896875,41.89727953124999,67.0,102.0
130,40.55501896875,41.900255718749996,70.0,117.0
131,40.55501896875,41.910672375,50.0,76.0
132,40.55501896875,41.912160468749995,62.0,95.0
133,42.34073146874999,42.82585003124999,55.0,66.0
134,42.697873968749995,43.0207903125,60.0,65.0
135,41.98358896875,43.17852824999999,48.0,96.0
136,42.697873968749995,43.4017423125,67.0,83.0
137,42.697873968749995,43.416623249999994,63.0,93.0
138,43.233587718749995,43.46870653124999,60.0,63.0
139,43.769301468749994,44.10858684375,58.0,74.0
140,44.126443968749996,44.348169937499996,58.0,71.0
141,43.41215896874999,44.40322940624999,46.0,112.0
142,44.126443968749996,44.885371781249994,65.0,82.0
143,44.662157718749995,44.88685987499999,58.0,71.0
144,44.126443968749996,44.889836062499995,62.0,88.0
145,45.197871468749995,45.687454312499995,51.0,48.0
146,44.84072896874999,45.72316856249999,44.0,78.0
147,45.555013968749996,45.84221606249999,60.0,66.0
148,45.555013968749996,46.296084656249995,63.0,117.0
149,46.090727718749996,46.302037031249995,60.0,70.0
150,46.26929896874999,47.16513140625,39.0,82.0
151,46.626441468749995,47.16959568749999,46.0,33.0
152,46.98358396875,47.17554806249999,58.0,90.0
153,46.98358396875,47.257393218749996,51.0,86.0
154,46.98358396875,47.39727403124999,63.0,90.0
155,47.162155218749994,47.440428749999995,55.0,79.0
156,47.34072646874999,47.635369031249994,58.0,90.0
157,47.519297718749996,47.720190374999994,63.0,85.0
158,48.055011468749996,48.493999124999995,55.0,61.0
159,47.697868968749994,48.566915718749996,48.0,86.0
160,48.41215396875,49.12197468749999,63.0,95.0
161,48.41215396875,49.14727228125,67.0,83.0
162,48.94786771875,49.160665124999994,60.0,92.0
163,49.483581468749996,50.0922118125,53.0,57.0
164,49.84072396874999,50.09667609374999,58.0,68.0
165,49.126438968749994,50.139830812499994,46.0,76.0
166,49.84072396874999,50.52375899999999,65.0,71.0
167,49.84072396874999,50.549056593749995,70.0,83.0
168,50.19786646874999,50.555008968749995,62.0,83.0
169,50.91215146875,51.208282125,63.0,73.0
170,50.555008968749995,51.215722593749994,44.0,86.0
171,50.91215146875,51.24548446874999,56.0,68.0
172,51.26929396874999,51.671079281249995,46.0,86.0
173,51.62643646874999,51.95976946875,58.0,86.0
174,51.62643646874999,51.99697181249999,62.0,85.0
175,52.34072146875,52.678518749999995,60.0,82.0
176,52.519292718749995,52.73209012499999,62.0,56.0
177,52.16215021874999,52.74250678124999,55.0,55.0
178,51.983578968749995,53.241018187499996,48.0,82.0
179,52.87643521875,53.389827562499995,55.0,74.0
180,53.23357771874999,53.40024421875,62.0,79.0
181,52.69786396874999,53.440422749999996,67.0,107.0
182,53.055006468749994,53.49994649999999,63.0,93.0
183,53.76929146874999,54.368993249999995,55.0,57.0
184,53.412148968749996,54.432981281249994,48.0,93.0
185,54.12643396874999,54.87792131249999,63.0,97.0
186,54.12643396874999,54.91363556249999,67.0,88.0
187,54.66214771874999,54.927028406249995,60.0,72.0
188,55.19786146874999,55.708277624999994,53.0,52.0
189,54.84071896875,55.79458706249999,46.0,90.0
190,55.912146468749995,56.303515125,62.0,70.0
191,55.55500396874999,56.3094675,65.0,74.0
192,55.55500396874999,56.316907968749994,70.0,73.0
193,56.62643146874999,57.090716718749995,51.0,60.0
194,56.26928896875,57.15619284374999,44.0,67.0
195,57.340716468749996,57.63387093749999,56.0,60.0
196,56.983573968749994,57.65619234374999,60.0,90.0
197,56.983573968749994,57.66809709374999,63.0,95.0
198,58.05500146874999,58.64726278124999,46.0,47.0
199,58.412143968749994,58.678512749999996,51.0,75.0
200,57.69785896874999,58.68744131249999,39.0,75.0
201,58.412143968749994,58.83029831249999,58.0,95.0
202,58.769286468749996,59.02375049999999,55.0,85.0
203,58.947857718749994,59.105595656249996,58.0,75.0
204,58.412143968749994,59.127917062499996,63.0,93.0
205,59.48357146874999,59.84815443749999,55.0,59.0
206,59.12642896874999,59.879404406249996,48.0,72.0
207,59.840713968749995,60.55351087499999,67.0,79.0
208,59.840713968749995,60.57285609374999,63.0,95.0
209,60.19785646874999,60.581784656249994,60.0,66.0
210,60.912141468749994,61.42553381249999,53.0,40.0
211,61.269283968749995,61.434462374999995,58.0,62.0
212,60.55499896874999,61.47761709374999,46.0,95.0
213,61.269283968749995,61.85856909374999,65.0,66.0
214,61.269283968749995,61.87642621874999,70.0,70.0
215,61.62642646874999,61.93446187499999,62.0,69.0
216,61.98356896874999,62.61005643749999,44.0,72.0
217,62.340711468749994,62.636842124999994,63.0,66.0
218,62.340711468749994,62.675532562499995,56.0,52.0
219,62.697853968749996,63.074341687499995,46.0,75.0
220,63.05499646874999,63.40916278124999,58.0,92.0
221,63.05499646874999,63.43743656249999,62.0,74.0
222,63.94785271874999,64.22017387499999,60.0,85.0
223,63.769281468749995,64.27672143749999,55.0,68.0
224,64.12642396874999,64.5624354375,62.0,89.0
225,63.41213896874999,64.69189959375,48.0,73.0
226,64.30499521875,64.72910193749999,55.0,75.0
227,64.66213771874999,64.75737571875,67.0,69.0
228,64.48356646875,64.77820903124999,63.0,79.0
229,65.19785146874999,65.68297003125,55.0,66.0
230,65.55499396875,65.87791031249999,60.0,65.0
231,64.84070896875,66.03564825,48.0,96.0
232,65.55499396875,66.25886231249999,67.0,83.0
233,65.55499396875,66.27374325,63.0,93.0
234,66.09070771875,66.32582653124999,60.0,63.0
235,66.62642146875,66.96570684375,58.0,74.0
236,66.98356396874999,67.2052899375,58.0,71.0
237,66.26927896874999,67.26034940624999,46.0,112.0
238,66.98356396874999,67.74249178125,65.0,82.0
239,67.51927771874999,67.743979875,58.0,71.0
240,66.98356396874999,67.74695606249999,62.0,88.0
241,68.05499146874999,68.54457431249999,51.0,48.0
242,67.69784896875,68.58028856249999,44.0,78.0
243,68.41213396875,68.6993360625,60.0,66.0
244,68.41213396875,69.15320465625,63.0,117.0
245,68.94784771875,69.15915703124999,60.0,70.0
246,69.12641896874999,70.02225140624999,39.0,82.0
247,69.48356146875,70.02671568749999,46.0,33.0
248,69.84070396874999,70.0326680625,58.0,90.0
249,69.84070396874999,70.11451321874999,51.0,86.0
250,69.84070396874999,70.25439403124999,63.0,90.0
251,70.01927521875,70.29754874999999,55.0,79.0
252,70.19784646874999,70.49248903124999,58.0,90.0
253,70.37641771874999,70.577310375,63.0,85.0
254,70.91213146874999,71.351119125,55.0,61.0
255,70.55498896875,71.42403571874999,48.0,86.0
256,71.26927396874999,71.9790946875,63.0,95.0
257,71.26927396874999,72.00439228124999,67.0,83.0
258,71.80498771875,72.01778512499999,60.0,92.0
259,72.34070146875,72.94933181249999,53.0,57.0
260,72.69784396874999,72.95379609374999,58.0,68.0
261,71.98355896874999,72.99695081249999,46.0,76.0
262,72.69784396874999,73.380879,65.0,71.0
263,72.69784396874999,73.40617659374999,70.0,83.0
264,73.05498646874999,73.41212896875,62.0,83.0
265,73.76927146874999,74.06540212499999,63.0,73.0
266,73.41212896875,74.07284259375,44.0,86.0
267,73.76927146874999,74.10260446874999,56.0,68.0
268,74.12641396874999,74.52819928125,46.0,86.0
269,74.48355646875,74.81688946874999,58.0,86.0
270,74.48355646875,74.85409181249999,62.0,85.0
271,75.19784146874998,75.53563874999999,60.0,82.0
272,75.37641271874999,75.589210125,62.0,56.0
273,75.01927021875,75.59962678125,55.0,55.0
274,74.84069896874999,76.0981381875,48.0,82.0
275,75.73355521875,76.2469475625,55.0,74.0
276,76.09069771875,76.25736421875,62.0,79.0
277,75.55498396875,76.29754274999999,67.0,107.0
278,75.91212646874999,76.35706649999999,63.0,93.0
279,76.62641146874999,77.22611325,55.0,57.0
280,76.26926896875,77.29010128124999,48.0,93.0
281,76.98355396874999,77.73504131249999,63.0,97.0
282,76.98355396874999,77.77075556249999,67.0,88.0
283,77.51926771874999,77.78414840625,60.0,72.0
284,78.05498146874999,78.56539762499999,53.0,52.0
285,77.69783896874999,78.6517070625,46.0,90.0
286,78.76926646874999,79.16063512499998,62.0,70.0
287,78.41212396875,79.16658749999999,65.0,74.0
288,78.41212396875,79.17402796875,70.0,73.0
289,79.48355146875,79.94783671875,51.0,60.0
290,79.12640896874998,80.01331284374999,44.0,67.0
291,80.19783646875,80.49099093749999,56.0,60.0
292,79.84069396874999,80.51331234374999,60.0,90.0
293,79.84069396874999,80.52521709374999,63.0,95.0
294,80.91212146874999,81.50438278124999,46.0,47.0
295,81.26926396875,81.53563274999999,51.0,75.0
296,80.55497896874999,81.5445613125,39.0,75.0
297,81.26926396875,81.68741831249999,58.0,95.0
298,81.62640646874999,81.88087049999999,55.0,85.0
299,81.80497771875,81.96271565625,58.0,75.0
300,81.26926396875,81.98503706249998,63.0,93.0
301,82.34069146875,82.7052744375,55.0,59.0
302,81.98354896874999,82.73652440624998,48.0,72.0
303,82.69783396874999,83.410630875,67.0,79.0
304,82.69783396874999,83.42997609374999,63.0,95.0
305,83.05497646874998,83.43890465624999,60.0,66.0
306,83.76926146874999,84.28265381249999,53.0,40.0
307,84.12640396875,84.29158237499999,58.0,62.0
308,83.41211896875,84.33473709375,46.0,95.0
309,84.12640396875,84.71568909374999,65.0,66.0
310,84.12640396875,84.73354621874999,70.0,70.0
311,84.48354646874999,84.79158187499999,62.0,69.0
312,84.84068896874999,85.46717643749999,44.0,72.0
313,85.19783146875,85.493962125,63.0,66.0
314,85.19783146875,85.53265256249999,56.0,52.0
315,85.55497396874999,85.93146168749999,46.0,75.0
316,85.91211646874999,86.26628278124998,58.0,92.0
317,85.91211646874999,86.26925896875,62.0,74.0
318,86.62640146874999,86.99842490625,48.0,79.0
319,86.80497271875,87.08324624999999,60.0,78.0
320,86.98354396874998,87.37640071874999,67.0,100.0
321,86.44783021874998,87.44187684375,43.0,52.0
322,87.16211521874999,87.44782921874999,48.0,100.0
323,86.26925896875,87.54306721875,36.0,86.0
324,87.51925771874998,87.5683648125,43.0,32.0
325,87.34068646875,87.577293375,63.0,122.0
326,87.51925771874998,87.65913853125,60.0,95.0
327,87.69782896874999,88.00735246874999,60.0,90.0
328,87.69782896874999,88.01925721874998,48.0,112.0
329,87.69782896874999,88.0237215,36.0,71.0
330,87.69782896874999,88.02520959374999,63.0,127.0
331,87.69782896874999,88.04157862499999,43.0,97.0
332,87.69782896874999,88.05794765625,67.0,97.0
333,90.91211146874998,91.25734921875,48.0,96.0
334,91.09068271874999,91.37342053124999,55.0,88.0
335,90.73354021875,91.48651565624999,43.0,95.0
336,90.55496896874999,91.4969323125,36.0,95.0
337,91.44782521874998,91.63086075,48.0,99.0
338,91.26925396875,91.93591996874999,63.0,127.0
339,91.62639646874999,91.95824137499999,60.0,93.0
340,91.80496771874999,91.98056278124999,55.0,100.0
341,92.34068146874999,92.70228825,55.0,99.0
342,92.51925271875,92.91508565624999,62.0,90.0
343,92.87639521874999,92.99395462499999,55.0,97.0
344,92.16211021874999,93.01032365625,50.0,81.0
345,91.98353896874998,93.10407356249999,43.0,89.0
346,92.69782396874999,93.29008528124999,70.0,127.0
347,93.05496646875,93.3302638125,67.0,122.0
348,93.23353771874999,93.41657324999998,62.0,102.0
349,93.76925146874999,94.136810625,48.0,99.0
350,93.94782271874999,94.29008428124999,55.0,90.0
351,93.41210896874999,94.7647861875,36.0,81.0
352,94.30496521874998,94.77966712499999,48.0,107.0
353,93.59068021875,94.78413140624998,43.0,92.0
354,94.48353646874999,94.81984565625,60.0,112.0
355,94.12639396875,94.89871462499998,63.0,127.0
356,94.66210771875,94.92698840624999,55.0,100.0
357,95.19782146874999,95.56091634375,48.0,100.0
358,95.37639271874998,95.66805909374999,55.0,107.0
359,95.01925021874999,95.743951875,43.0,95.0
360,94.84067896874998,95.7885946875,36.0,97.0
361,95.73353521874999,95.87490412499999,48.0,117.0
362,95.91210646874998,96.22311806249999,60.0,107.0
363,95.55496396874999,96.23948709374999,63.0,127.0
364,96.09067771874999,96.24841565624999,55.0,99.0
365,96.62639146874999,96.99692681249999,56.0,112.0
366,96.80496271874999,97.07281959374998,60.0,97.0
367,96.26924896874999,97.55198578124998,44.0,102.0
368,96.44782021875,97.55942624999999,51.0,76.0
369,97.16210521874999,97.57877146874999,56.0,102.0
370,97.34067646874999,97.67549756249998,63.0,117.0
371,96.98353396875,97.67698565624998,68.0,127.0
372,97.51924771875,97.68293803124999,60.0,100.0
373,98.05496146875,98.45823487499999,56.0,102.0
374,98.23353271874998,98.60257996874999,60.0,93.0
375,97.87639021874999,98.69781796874999,51.0,50.0
376,98.59067521875,98.76031790625,56.0,107.0
377,97.69781896874998,98.84662734374999,44.0,82.0
378,98.41210396874999,99.06240093749999,68.0,122.0
379,98.76924646874998,99.08472234374999,63.0,96.0
380,98.94781771874999,99.14424609374998,60.0,96.0
381,99.48353146874999,99.74841215624998,55.0,85.0
382,99.66210271874999,99.81091209374999,58.0,97.0
383,99.30496021874998,99.8659715625,50.0,77.0
384,99.12638896874999,100.41954243749998,43.0,85.0
385,99.84067396874998,100.46864953125,62.0,99.0
386,100.19781646874999,100.47162571874999,58.0,107.0
387,100.01924521874999,100.4909709375,50.0,99.0
388,100.37638771875,100.51180424999998,55.0,97.0
389,101.09067271874999,101.19037499999999,70.0,99.0
390,101.09067271874999,101.21269640624999,67.0,92.0
391,101.09067271874999,101.22162496874999,62.0,75.0
392,100.91210146875,101.29900584375,55.0,95.0
393,101.26924396874999,101.55346987499999,67.0,93.0
394,101.44781521875,101.58323174999998,55.0,102.0
395,100.73353021874999,101.60257696874999,50.0,81.0
396,100.55495896874999,101.65317215625,43.0,89.0
397,101.26924396874999,101.93888615624999,70.0,112.0
398,101.80495771874999,101.9493028125,67.0,97.0
399,101.62638646874998,101.97608849999999,62.0,107.0
400,102.69781396874998,102.7350163125,65.0,55.0
401,102.34067146874999,102.75733771875,53.0,88.0
402,102.51924271875,102.78709959374999,60.0,86.0
403,102.87638521874999,103.01775412499998,53.0,99.0
404,101.98352896875,103.30644431249999,41.0,89.0
405,103.05495646874999,103.36447996874999,60.0,93.0
406,102.16210021874998,103.44483703124999,48.0,85.0
407,103.23352771874998,103.45525368749999,65.0,100.0
408,102.69781396874998,103.47311081249998,68.0,127.0
409,103.94781271874999,104.16358631249999,60.0,96.0
410,103.76924146874998,104.17251487499999,53.0,92.0
411,104.30495521874998,104.47906218749999,53.0,93.0
412,104.12638396874999,104.52370499999999,65.0,96.0
413,103.41209896874999,104.73352621874999,41.0,85.0
414,104.12638396874999,104.74543096874999,68.0,107.0
415,103.59067021874999,104.79007378124999,48.0,93.0
416,104.48352646874999,104.80495471874998,60.0,99.0
417,104.66209771874999,104.85406181249999,65.0,102.0
418,105.19781146874999,105.58322774999999,55.0,97.0
419,105.37638271875,105.62191818749999,62.0,96.0
420,105.55495396874998,105.81983465625,67.0,96.0
421,105.73352521874999,105.94037024999999,55.0,96.0
422,104.84066896875,106.16209621875,43.0,92.0
423,105.01924021874999,106.21566759374998,50.0,82.0
424,106.09066771874998,106.31685796874999,67.0,97.0
425,105.91209646875,106.34959603124999,62.0,96.0
426,105.55495396874998,106.36447696874998,70.0,112.0
427,106.62638146874998,106.99989299999999,55.0,99.0
428,106.80495271874999,107.12489287499999,62.0,95.0
429,106.26923896874999,107.22905943749998,43.0,64.0
430,106.44781021874999,107.26923796874999,50.0,93.0
431,107.16209521874998,107.28709509374998,55.0,102.0
432,107.34066646874999,107.59661859375,67.0,97.0
433,106.98352396874999,107.63233284374999,70.0,127.0
434,107.51923771874999,107.67399946874998,62.0,100.0
435,108.05495146874999,108.39274874999998,56.0,100.0
436,108.23352271874998,108.53858193749998,60.0,95.0
437,107.87638021874999,108.60554615624999,51.0,89.0
438,107.69780896874998,108.67251037499999,44.0,86.0
439,108.59066521874999,108.7469150625,56.0,97.0
440,108.41209396874999,109.01923621874998,68.0,122.0
441,108.76923646875,109.06834331249999,63.0,127.0
442,108.94780771874998,109.10852184374998,60.0,100.0
443,109.66209271874999,109.79750924999999,62.0,88.0
444,109.48352146874998,109.86893774999999,58.0,97.0
445,109.30495021875,110.09959228124998,53.0,72.0
446,110.01923521874998,110.13084224999999,58.0,112.0
447,109.12637896874999,110.20078265624998,46.0,93.0
448,109.84066396875,110.20673503124999,65.0,112.0
449,110.19780646874999,110.48352046874999,62.0,102.0
450,110.37637771874999,110.54453231249998,65.0,99.0
451,110.91209146874999,111.30048393749999,48.0,86.0
452,111.09066271874998,111.58470984374999,55.0,92.0
453,111.44780521874999,111.72459065624999,48.0,90.0
454,110.55494896874998,111.89572143749999,36.0,79.0
455,110.73352021874999,111.91953093749999,43.0,93.0
456,111.62637646874998,111.946316625,60.0,100.0
457,111.80494771874999,111.99839990624999,55.0,102.0
458,111.26923396874999,112.00881656249999,63.0,122.0
459,112.51923271874999,112.62786356249998,67.0,88.0
460,112.51923271874999,112.63530403124999,63.0,112.0
461,112.51923271874999,112.63679212499999,60.0,93.0
462,112.34066146874999,112.74691106249999,48.0,112.0
463,112.87637521874998,112.98202987499998,48.0,37.0
464,111.98351896874999,113.27072006249999,36.0,96.0
465,112.69780396875,113.37042234375,67.0,96.0
466,112.69780396875,113.40762468749999,63.0,112.0
467,113.05494646874999,113.41655324999999,60.0,112.0
468,112.16209021874998,113.42101753124999,43.0,100.0
469,113.76923146875,114.190362,48.0,97.0
470,113.94780271874998,114.23500481249998,55.0,97.0
471,113.41208896874998,114.41804034375,36.0,97.0
472,113.59066021874999,114.4522665,43.0,92.0
473,114.30494521874999,114.60107587499999,48.0,88.0
474,114.12637396874999,114.76774237499998,63.0,127.0
475,114.48351646874998,114.77518284374999,60.0,107.0
476,114.66208771874999,114.81238518749998,55.0,102.0
477,115.19780146874999,115.59214631249999,55.0,93.0
478,115.37637271874999,115.71416999999998,62.0,99.0
479,115.73351521874999,115.82280084374999,55.0,96.0
480,115.01923021874998,115.82428893749999,50.0,88.0
481,114.84065896874999,115.86893174999999,43.0,89.0
482,115.55494396874998,116.19035999999998,70.0,127.0
483,115.91208646874999,116.20672903124999,67.0,96.0
484,116.09065771874998,116.29303846874998,62.0,112.0
485,116.62637146874998,116.97160921874999,48.0,92.0
486,116.80494271874998,117.21416849999999,55.0,77.0
487,117.16208521875,117.34512074999999,48.0,96.0
488,116.26922896874999,117.54750149999998,36.0,70.0
489,116.44780021874999,117.66059662499998,43.0,89.0
490,117.34065646874998,117.66654899999999,60.0,100.0
491,117.51922771874999,117.68738231249999,55.0,92.0
492,116.98351396874999,117.71119181249999,63.0,117.0
493,118.23351271874999,118.34809593749999,60.0,92.0
494,118.23351271874999,118.34809593749999,67.0,95.0
495,118.23351271874999,118.35107212499999,63.0,122.0
496,118.05494146874999,118.43291728124998,48.0,90.0
497,117.87637021874998,118.66059562499998,43.0,93.0
498,117.69779896874999,118.67398846874998,36.0,78.0
499,118.59065521874999,118.73202412499998,48.0,102.0
500,118.41208396874998,118.75136934374999,63.0,117.0
501,118.76922646874999,119.05791665624999,60.0,122.0
502,118.41208396874998,119.10702374999998,67.0,96.0
503,118.94779771874998,119.15613084374999,63.0,127.0
504,119.48351146874998,119.84958253125,56.0,97.0
505,119.66208271874999,119.93738006249998,60.0,92.0
506,119.30494021874999,120.1457131875,51.0,43.0
507,120.01922521874998,120.17398696874999,56.0,100.0
508,119.12636896874999,120.23499881249998,44.0,72.0
509,120.37636771874999,120.49541521874998,60.0,93.0
510,120.19779646874998,120.50434378124999,63.0,117.0
511,119.84065396874999,120.52517709374999,68.0,117.0
512,120.91208146874999,121.30047393749999,56.0,96.0
513,121.09065271875,121.48202137499999,60.0,93.0
514,120.73351021874998,121.58916412499998,51.0,66.0
515,121.44779521874999,121.59362840624999,56.0,92.0
516,120.55493896874998,121.65910453124998,44.0,85.0
517,121.62636646874999,121.94481853125,63.0,95.0
518,121.26922396874998,121.94630662499999,68.0,107.0
519,121.80493771874998,121.98797324999998,60.0,81.0
520,122.51922271874999,122.68142493749998,58.0,112.0
521,122.34065146874998,122.68588921874999,55.0,90.0
522,122.16208021874999,122.76773437499999,50.0,65.0
523,121.98350896874999,123.31088859374998,43.0,66.0
524,122.87636521874998,123.36445996874998,50.0,72.0
525,123.05493646874999,123.38826946874998,58.0,100.0
526,122.69779396874999,123.40315040624999,62.0,102.0
527,123.23350771874999,123.43588846874998,55.0,88.0
528,123.94779271874998,124.05642356249999,70.0,102.0
529,123.94779271874998,124.06237593749998,67.0,95.0
530,123.76922146874999,124.16951868749999,55.0,93.0
531,123.94779271874998,124.23201862499998,62.0,90.0
532,124.12636396874998,124.43439937499998,67.0,93.0
533,124.30493521874999,124.44481603124999,55.0,95.0
534,123.59065021874999,124.45820887499998,50.0,79.0
535,123.41207896874998,124.48797074999999,43.0,85.0
536,124.12636396874998,124.80791090624999,70.0,112.0
537,124.66207771874998,124.83767278124999,67.0,83.0
538,124.48350646874998,124.87933940624998,62.0,93.0
539,125.19779146874998,125.58916012499999,53.0,86.0
540,125.37636271874999,125.64719578124999,60.0,79.0
541,125.73350521874998,125.90017171874999,53.0,90.0
542,125.55493396874999,125.93737406249998,65.0,93.0
543,125.55493396874999,126.15165956249999,68.0,112.0
544,124.84064896874999,126.17546906249999,41.0,71.0
545,125.01922021875,126.28856418749999,48.0,66.0
546,126.09064771874999,126.31534987499998,65.0,92.0
547,125.91207646874999,126.46267115624998,60.0,90.0
548,126.62636146874999,127.02070631249998,53.0,82.0
549,126.80493271874998,127.11743240624999,60.0,81.0
550,127.16207521874999,127.34064646874998,53.0,97.0
551,126.26921896874998,127.58022956249998,41.0,83.0
552,127.34064646874998,127.62784856249999,65.0,97.0
553,126.44779021874999,127.65016996874999,48.0,90.0
554,126.98350396874999,127.65463424999999,68.0,117.0
555,127.51921771874999,127.75433653124999,60.0,93.0
556,128.05493146875,128.4016573125,55.0,92.0
557,128.23350271874997,128.624871375,62.0,82.0
558,128.59064521874998,128.75879981249997,55.0,96.0
559,127.69778896874999,128.97754959374998,43.0,78.0
560,127.87636021874998,129.12189468749997,50.0,83.0
561,128.76921646875,129.12933515625,67.0,88.0
562,128.41207396874998,129.16653749999998,70.0,117.0
563,128.94778771875,129.17100178125,62.0,99.0
564,129.48350146874998,129.86742965624998,55.0,107.0
565,129.66207271874998,129.95373909375,62.0,92.0
566,129.12635896875,130.07873896874997,43.0,79.0
567,129.30493021874997,130.10850084375,50.0,73.0
568,130.01921521875,130.15611984375,55.0,93.0
569,130.19778646875,130.48052428124998,67.0,88.0
570,129.84064396875,130.52963137499998,70.0,107.0
571,130.37635771874997,130.55195278124998,62.0,92.0
572,130.91207146874999,131.30641631249998,56.0,89.0
573,131.09064271875,131.39123765624998,60.0,86.0
574,130.73350021874998,131.49540421875,51.0,35.0
575,130.55492896874998,131.58766603125,44.0,78.0
576,131.44778521875,131.71564209374998,56.0,96.0
577,131.26921396875,131.910582375,68.0,107.0
578,131.62635646874998,131.9135585625,63.0,107.0
579,131.80492771874998,131.96712993749998,60.0,90.0
580,132.51921271875,132.67843875,62.0,83.0
581,132.34064146875,132.74093868749998,58.0,95.0
582,132.16207021875,132.93885515624999,53.0,46.0
583,132.87635521874998,133.01325984374998,58.0,99.0
584,131.98349896874998,133.0207003125,46.0,90.0
585,132.69778396874997,133.03558124999998,65.0,102.0
586,133.05492646874998,133.27516434375,62.0,102.0
587,133.23349771875,133.41653325,65.0,97.0
588,133.76921146874997,134.0266516875,60.0,96.0
589,133.94778271874998,134.18587771875,63.0,107.0
590,133.59064021875,134.20075865624997,55.0,92.0
591,134.30492521875,134.44480603124998,55.0,95.0
592,133.41206896875,134.50730596875,48.0,70.0
593,134.66206771875,134.70671053125,62.0,53.0
594,134.66206771875,134.71266290625,60.0,58.0
595,134.12635396874998,134.89421034375,67.0,97.0
596,134.48349646875,134.97307931249998,63.0,117.0
597,134.84063896874997,136.17992334374998,36.0,99.0
598,136.62635146875,136.98647015625,56.0,96.0
599,136.80492271875,137.09658909375,60.0,92.0
600,136.44778021874998,137.2168958625,51.0,79.0
601,136.26920896874998,137.25123653958332,44.0,82.0
602,137.16057715208333,137.32815965625,56.0,99.0
603,137.32541240208334,137.57266527708333,63.0,96.0
604,136.98349396875,137.60837958125,68.0,112.0
605,137.49024765208333,137.65783015625,60.0,83.0
606,137.99997746875002,138.38688184375002,58.0,76.0
607,138.17854871875002,138.43003656250002,62.0,90.0
608,137.82140621875,138.61009590625,53.0,63.0
609,137.65508290208334,138.64878634375,46.0,95.0
610,138.53569121875,138.68598868750001,58.0,100.0
611,138.35711996875,138.73509578125,65.0,102.0
612,138.71426246875,138.96426221875,62.0,107.0
613,138.89283371875,139.09372637500002,65.0,99.0
614,139.42854746875,139.65771390625,60.0,96.0
615,139.60711871875,139.68152340625002,67.0,72.0
616,139.60711871875,139.70830909375002,63.0,93.0
617,139.24997621875002,139.8705113125,55.0,95.0
618,139.78568996875,140.02080878125,63.0,100.0
619,139.78568996875,140.1086063125,67.0,90.0
620,140.14283246875002,140.29908231250002,62.0,96.0
621,140.14283246875002,140.36902271875002,65.0,86.0
622,139.07140496875002,140.39134412500002,48.0,73.0
623,139.96426121875,140.48211784375002,55.0,92.0
624,140.32140371875002,140.563963,63.0,107.0
625,140.32140371875002,140.629439125,67.0,85.0
626,140.85711746875,141.0431291875,60.0,93.0
627,141.03568871875,141.21277187500002,63.0,112.0
628,140.67854621875,141.27675990625002,55.0,96.0
629,140.49997496875,141.47318828125,48.0,75.0
630,141.39283121875002,141.5014620625,55.0,90.0
631,141.21425996875,141.86009265625,67.0,96.0
632,141.57140246875002,141.8824140625,63.0,127.0
633,141.74997371875,141.927056875,60.0,99.0
634,142.28568746875,142.62497284375002,56.0,93.0
635,142.46425871875002,142.74104415625,60.0,100.0
636,142.10711621875,142.87794878125,51.0,92.0
637,141.92854496875,142.94342490625002,44.0,88.0
638,142.82140121875,143.19044846875002,56.0,107.0
639,142.99997246875,143.26038887500002,63.0,112.0
640,142.64282996875002,143.29163884375,68.0,117.0
641,143.17854371875,143.33925784375,60.0,89.0
642,143.71425746875002,144.07586425,58.0,93.0
643,143.89282871875,144.12348325000002,62.0,93.0
644,143.53568621875002,144.31247115625,53.0,50.0
645,144.24997121875,144.35116159375002,58.0,107.0
646,143.35711496875,144.403244875,46.0,83.0
647,144.07139996875,144.46723290625002,65.0,99.0
648,144.60711371875,144.7574111875,65.0,93.0
649,144.42854246875,144.75889928125,62.0,99.0
650,145.14282746875,145.5074104375,48.0,88.0
651,145.32139871875,145.736576875,55.0,89.0
652,145.67854121875,145.92258859375002,48.0,99.0
653,145.85711246875002,145.98806471875,55.0,37.0
654,144.78568496875002,146.09818365625,36.0,78.0
655,144.96425621875,146.2068145,43.0,86.0
656,146.03568371875002,146.224671625,55.0,100.0
657,145.85711246875002,146.25294540625,60.0,95.0
658,145.49996996875,146.260385875,63.0,122.0
659,146.74996871875,146.80056390625,60.0,86.0
660,146.74996871875,146.8645519375,67.0,93.0
661,146.74996871875,146.87199240625,63.0,107.0
662,146.57139746875,146.9597899375,48.0,96.0
663,146.39282621875,147.15770640625,43.0,90.0
664,146.21425496875,147.16663496875,36.0,92.0
665,147.10711121875002,147.27377771875,48.0,97.0
666,146.92853996875002,147.31395625000002,63.0,127.0
667,147.28568246875,147.52675365625,60.0,112.0
668,146.92853996875002,147.61901546875,67.0,100.0
669,147.46425371875,147.65472971875002,63.0,117.0
670,147.99996746875001,148.3943123125,56.0,95.0
671,148.17853871875002,148.47913365625,60.0,93.0
672,147.82139621875,148.6026454375,51.0,70.0
673,147.64282496875,148.63538350000002,44.0,67.0
674,148.53568121875,148.91960940625,56.0,99.0
675,148.71425246875,148.986573625,63.0,112.0
676,148.35710996875,149.01187121875,68.0,127.0
677,148.89282371875,149.0728830625,60.0,102.0
678,149.42853746875,149.80353709375,58.0,95.0
679,149.60710871875,149.88538225000002,62.0,97.0
680,149.24996621875002,150.04460828125002,53.0,37.0
681,149.07139496875,150.1264534375,46.0,83.0
682,149.96425121875,150.13091771875,58.0,112.0
683,149.78567996875,150.39282221875,70.0,112.0
684,150.14282246875,150.44341740625,65.0,95.0
685,150.32139371875002,150.4925245,62.0,97.0
686,150.85710746875,151.12347625,60.0,93.0
687,151.03567871875,151.25442850000002,62.0,102.0
688,150.67853621875,151.26484515625,55.0,82.0
689,151.57139246875002,151.84817790625002,63.0,107.0
690,150.49996496875002,151.8585945625,48.0,73.0
691,151.74996371875,151.9002611875,62.0,112.0
692,151.39282121875002,151.91663021875002,55.0,92.0
693,151.21424996875,151.92853496875,67.0,107.0
694,152.28567746875,152.48657012500001,60.0,99.0
695,152.46424871875,152.61305809375,62.0,100.0
696,152.10710621875,152.68895087500002,55.0,72.0
697,151.92853496875,152.89133162500002,48.0,96.0
698,152.82139121875,152.90918875,55.0,89.0
699,152.99996246875,153.27079553125,63.0,127.0
700,152.64281996875002,153.30204550000002,67.0,102.0
701,153.17853371875,153.34817640625002,60.0,97.0
702,153.71424746875002,154.05502093750002,56.0,93.0
703,153.89281871875,154.19936603125,60.0,96.0
704,153.53567621875,154.3466873125,51.0,96.0
705,153.35710496875,154.37793728125,44.0,70.0
706,154.24996121875,154.52079428125,56.0,95.0
707,154.42853246875,154.6859726875,63.0,112.0
708,154.07138996875,154.69490125000002,68.0,117.0
709,154.60710371875,154.78418687500002,60.0,95.0
710,155.14281746875,155.50293615625,58.0,96.0
711,155.32138871875,155.52079328125,62.0,95.0
712,154.96424621875002,155.74251925000002,53.0,72.0
713,155.67853121875,155.76335256250002,58.0,107.0
714,154.78567496875002,155.82138821875,46.0,79.0
715,155.49995996875,155.8943048125,65.0,100.0
716,155.85710246875,156.12942362500002,62.0,102.0
717,156.03567371875002,156.19638784375002,65.0,81.0
718,156.57138746875,156.97019659375002,48.0,83.0
719,156.74995871875,157.08477981250002,55.0,85.0
720,156.92852996875,157.3288271875,63.0,117.0
721,157.10710121875002,157.33626765625002,48.0,100.0
722,156.21424496875,157.48210084375,36.0,72.0
723,157.28567246875002,157.54013650000002,60.0,102.0
724,156.39281621875,157.57733884375,43.0,92.0
725,157.64281496875,159.07138496875,36.0,72.0
726,157.64281496875,159.07138496875,43.0,69.0
727,157.64281496875,159.07138496875,48.0,100.0
728,157.46424371875,159.07138496875,55.0,100.0
729,157.64281496875,159.07138496875,60.0,97.0
730,157.64281496875,159.07138496875,63.0,127.0
731,159.42852746875002,159.91364603125,55.0,66.0
732,159.78566996875,160.1085863125,60.0,65.0
733,159.07138496875,160.26632425,48.0,96.0
734,159.78566996875,160.4895383125,67.0,83.0
735,159.78566996875,160.50441925,63.0,93.0
736,160.32138371875,160.55650253125,60.0,63.0
737,160.85709746875,161.19638284375,58.0,74.0
738,161.21423996875,161.43596593750001,58.0,71.0
739,160.49995496875002,161.49102540625,46.0,112.0
740,161.21423996875,161.97316778125,65.0,82.0
741,161.74995371875002,161.974655875,58.0,71.0
742,161.21423996875,161.9776320625,62.0,88.0
743,162.28566746875,162.77525031250002,51.0,48.0
744,161.92852496875,162.8109645625,44.0,78.0
745,162.64280996875002,162.9300120625,60.0,66.0
746,162.64280996875002,163.38388065625,63.0,117.0
747,163.17852371875,163.38983303125002,60.0,70.0
748,163.35709496875,164.25292740625,39.0,82.0
749,163.71423746875,164.25739168750002,46.0,33.0
750,164.07137996875,164.2633440625,58.0,90.0
751,164.07137996875,164.34518921875,51.0,86.0
752,164.07137996875,164.48507003125002,63.0,90.0
753,164.24995121875,164.52822475,55.0,79.0
754,164.42852246875,164.72316503125,58.0,90.0
755,164.60709371875,164.807986375,63.0,85.0
756,165.14280746875,165.581795125,55.0,61.0
757,164.78566496875,165.65471171875,48.0,86.0
758,165.49994996875,166.2097706875,63.0,95.0
759,165.49994996875,166.23506828125,67.0,83.0
760,166.03566371875002,166.248461125,60.0,92.0
761,166.57137746875,167.1800078125,53.0,57.0
762,166.92851996875,167.18447209375,58.0,68.0
763,166.21423496875002,167.2276268125,46.0,76.0
764,166.92851996875,167.611555,65.0,71.0
765,166.92851996875,167.63685259375,70.0,83.0
766,167.28566246875,167.64280496875,62.0,83.0
767,167.99994746875,168.296078125,63.0,73.0
768,167.64280496875,168.30351859375,44.0,86.0
769,167.99994746875,168.33328046875,56.0,68.0
770,168.35708996875002,168.75887528125,46.0,86.0
771,168.71423246875,169.04756546875,58.0,86.0
772,168.71423246875,169.0847678125,62.0,85.0
773,169.42851746875002,169.76631475,60.0,82.0
774,169.60708871875,169.819886125,62.0,56.0
775,169.24994621875,169.83030278125,55.0,55.0
776,169.07137496875,170.3288141875,48.0,82.0
777,169.96423121875,170.4776235625,55.0,74.0
778,170.32137371875,170.48804021875,62.0,79.0
779,169.78565996875,170.52821875,67.0,107.0
780,170.14280246875,170.5877425,63.0,93.0
781,170.85708746875,171.45678925,55.0,57.0
782,170.49994496875001,171.52077728125,48.0,93.0
783,171.21422996875,171.9657173125,63.0,97.0
784,171.21422996875,172.0014315625,67.0,88.0
785,171.74994371875,172.01482440625,60.0,72.0
786,172.28565746875,172.79607362500002,53.0,52.0
787,171.92851496875,172.8823830625,46.0,90.0
788,172.99994246875002,173.39131112500002,62.0,70.0
789,172.64279996875,173.3972635,65.0,74.0
790,172.64279996875,173.40470396875,70.0,73.0
791,173.71422746875,174.17851271875,51.0,60.0
792,173.35708496875,174.24398884375,44.0,67.0
793,174.42851246875,174.7216669375,56.0,60.0
794,174.07136996875,174.74398834375,60.0,90.0
795,174.07136996875,174.75589309375,63.0,95.0
796,175.14279746875002,175.73505878125002,46.0,47.0
797,175.49993996875,175.76630875,51.0,75.0
798,174.78565496875,175.7752373125,39.0,75.0
799,175.49993996875,175.9180943125,58.0,95.0
800,175.85708246875,176.1115465,55.0,85.0
801,176.03565371875,176.19339165625001,58.0,75.0
802,175.49993996875,176.21571306250001,63.0,93.0
803,176.57136746875,176.9359504375,55.0,59.0
804,176.21422496875,176.96720040625002,48.0,72.0
805,176.92850996875,177.641306875,67.0,79.0
806,176.92850996875,177.66065209375,63.0,95.0
807,177.28565246875002,177.66958065625,60.0,66.0
808,177.99993746875,178.5133298125,53.0,40.0
809,178.35707996875,178.522258375,58.0,62.0
810,177.64279496875,178.56541309375,46.0,95.0
811,178.35707996875,178.94636509375,65.0,66.0
812,178.35707996875,178.96422221875,70.0,70.0
813,178.71422246875,179.022257875,62.0,69.0
814,179.07136496875,179.6978524375,44.0,72.0
815,179.42850746875,179.724638125,63.0,66.0
816,179.42850746875,179.76332856250002,56.0,52.0
817,179.78564996875002,180.1621376875,46.0,75.0
818,180.14279246875,180.49695878125,58.0,92.0
819,180.14279246875,180.49993496875,62.0,74.0
820,180.85707746875,181.22910090625,48.0,79.0
821,181.03564871875,181.31392225000002,60.0,78.0
822,181.21421996875,181.60707671875,67.0,100.0
823,180.67850621875,181.67255284375,43.0,52.0
824,181.39279121875,181.67850521875,48.0,100.0
825,180.49993496875,181.77374321875,36.0,86.0
826,181.74993371875001,181.7990408125,43.0,32.0
827,181.57136246875,181.807969375,63.0,122.0
828,181.74993371875001,181.88981453125,60.0,95.0
829,181.92850496875002,182.23802846875,60.0,90.0
830,181.92850496875002,182.24993321875002,48.0,112.0
831,181.92850496875002,182.2543975,36.0,71.0
832,181.92850496875002,182.25588559375,63.0,127.0
833,181.92850496875002,182.27225462500002,43.0,97.0
834,181.92850496875002,182.28862365625,67.0,97.0
835,183.71421746875,184.05945521875,48.0,96.0
836,183.89278871875,184.17552653125,55.0,88.0
837,183.53564621875,184.28862165625,43.0,95.0
838,183.35707496875,184.2990383125,36.0,95.0
839,184.24993121875002,184.43296675,48.0,99.0
840,184.07135996875002,184.73802596875,63.0,127.0
841,184.42850246875,184.760347375,60.0,93.0
842,184.60707371875,184.78266878125,55.0,100.0
843,185.14278746875,185.50439425000002,55.0,99.0
844,185.32135871875,185.71719165625,62.0,90.0
845,185.67850121875,185.796060625,55.0,97.0
846,184.96421621875,185.81242965625,50.0,81.0
847,184.78564496875,185.9061795625,43.0,89.0
848,185.49992996875,186.09219128125,70.0,127.0
849,185.85707246875,186.1323698125,67.0,122.0
850,186.03564371875,186.21867925,62.0,102.0
851,186.57135746875,186.938916625,48.0,99.0
852,186.74992871875,187.09219028125,55.0,90.0
853,186.21421496875,187.5668921875,36.0,81.0
854,187.10707121875,187.581773125,48.0,107.0
855,186.39278621875002,187.58623740625,43.0,92.0
856,187.28564246875,187.62195165625002,60.0,112.0
857,186.92849996875,187.700820625,63.0,127.0
858,187.46421371875,187.72909440625,55.0,100.0
859,187.99992746875,188.36302234375,48.0,100.0
860,188.17849871875,188.47016509375,55.0,107.0
861,187.82135621875,188.546057875,43.0,95.0
862,187.64278496875,188.5907006875,36.0,97.0
863,188.53564121875002,188.677010125,48.0,117.0
864,188.71421246875002,189.0252240625,60.0,107.0
865,188.35706996875,189.04159309375,63.0,127.0
866,188.89278371875,189.05052165625,55.0,99.0
867,189.42849746875,189.7990328125,56.0,112.0
868,189.60706871874999,189.87492559375,60.0,97.0
869,189.07135496875,190.35409178125002,44.0,102.0
870,189.24992621875,190.36153225,51.0,76.0
871,189.96421121875,190.38087746875,56.0,102.0
872,190.14278246875,190.4776035625,63.0,117.0
873,189.78563996875,190.47909165625,68.0,127.0
874,190.32135371875,190.48504403125,60.0,100.0
875,190.85706746875002,191.260340875,56.0,102.0
876,191.03563871875,191.40468596875002,60.0,93.0
877,190.67849621875,191.49992396875,51.0,50.0
878,191.39278121875,191.56242390625,56.0,107.0
879,190.49992496875,191.64873334375,44.0,82.0
880,191.21420996875,191.8645069375,68.0,122.0
881,191.57135246875,191.88682834375,63.0,96.0
882,191.74992371875,191.94635209375,60.0,96.0
883,192.28563746875,192.55051815625,55.0,85.0
884,192.46420871875,192.61301809375,58.0,97.0
885,192.10706621875,192.6680775625,50.0,77.0
886,191.92849496875,193.2216484375,43.0,85.0
887,192.64277996875,193.27075553125002,62.0,99.0
888,192.99992246875001,193.27373171875,58.0,107.0
889,192.82135121875,193.29307693750002,50.0,99.0
890,193.17849371875002,193.31391025,55.0,97.0
891,193.89277871875,193.992481,70.0,99.0
892,193.89277871875,194.01480240625,67.0,92.0
893,193.89277871875,194.02373096875,62.0,75.0
894,193.71420746875,194.10111184375,55.0,95.0
895,194.07134996875,194.355575875,67.0,93.0
896,194.24992121875,194.38533775000002,55.0,102.0
897,193.53563621875,194.40468296875,50.0,81.0
898,193.35706496875,194.45527815625002,43.0,89.0
899,194.07134996875,194.74099215625,70.0,112.0
900,194.60706371875,194.75140881250002,67.0,97.0
901,194.42849246875,194.7781945,62.0,107.0
902,195.49991996875,195.5371223125,65.0,55.0
903,195.14277746875,195.55944371875,53.0,88.0
904,195.32134871875002,195.58920559375,60.0,86.0
905,195.67849121875,195.819860125,53.0,99.0
906,194.78563496875,196.1085503125,41.0,89.0
907,195.85706246875,196.16658596875,60.0,93.0
908,194.96420621875,196.24694303125,48.0,85.0
909,196.03563371875,196.2573596875,65.0,100.0
910,195.49991996875,196.2752168125,68.0,127.0
911,196.74991871875,196.9656923125,60.0,96.0
912,196.57134746875,196.974620875,53.0,92.0
913,197.10706121875,197.2811681875,53.0,93.0
914,196.92848996875,197.325811,65.0,96.0
915,196.21420496875,197.53563221875,41.0,85.0
916,196.92848996875,197.54753696875,68.0,107.0
917,196.39277621875,197.59217978125,48.0,93.0
918,197.28563246875,197.60706071875,60.0,99.0
919,197.46420371875,197.6561678125,65.0,102.0
920,197.99991746875,198.38533375,55.0,97.0
921,198.17848871875,198.4240241875,62.0,96.0
922,198.35705996875,198.62194065625,67.0,96.0
923,198.53563121875,198.74247625,55.0,96.0
924,197.64277496875002,198.96420221875002,43.0,92.0
925,197.82134621875,199.01777359375,50.0,82.0
926,198.89277371875,199.11896396875,67.0,97.0
927,198.71420246875,199.15170203125,62.0,96.0
928,198.35705996875,199.16658296875,70.0,112.0
929,199.42848746875,199.801999,55.0,99.0
930,199.60705871875,199.926998875,62.0,95.0
931,199.07134496875,200.0311654375,43.0,64.0
932,199.24991621875,200.07134396875,50.0,93.0
933,199.96420121875,200.08920109375,55.0,102.0
934,200.14277246875,200.39872459375,67.0,97.0
935,199.78562996875002,200.43443884375,70.0,127.0
936,200.32134371875,200.47610546875,62.0,100.0
937,200.85705746874999,201.19485475,56.0,100.0
938,201.03562871875,201.3406879375,60.0,95.0
939,200.67848621875,201.40765215625,51.0,89.0
940,200.49991496875,201.474616375,44.0,86.0
941,201.39277121875,201.5490210625,56.0,97.0
942,201.21419996875,201.82134221875,68.0,122.0
943,201.57134246875,201.8704493125,63.0,127.0
944,201.74991371875,201.91062784375,60.0,100.0
945,202.46419871875,202.59961525,62.0,88.0
946,202.28562746875002,202.67104375,58.0,97.0
947,202.10705621875002,202.90169828125,53.0,72.0
948,202.82134121875,202.93294824999998,58.0,112.0
949,201.92848496875,203.00288865625,46.0,93.0
950,202.64276996875,203.00884103125,65.0,112.0
951,202.99991246874998,203.28562646875,62.0,102.0
952,203.17848371875,203.3466383125,65.0,99.0
953,203.71419746875,204.1025899375,48.0,86.0
954,203.89276871875,204.38681584375,55.0,92.0
955,204.24991121875001,204.52669665625,48.0,90.0
956,203.35705496875,204.6978274375,36.0,79.0
957,203.53562621875,204.72163693750002,43.0,93.0
958,204.42848246875002,204.748422625,60.0,100.0
959,204.60705371875,204.80050590625,55.0,102.0
960,204.07133996875,204.8109225625,63.0,122.0
961,205.32133871874998,205.4299695625,67.0,88.0
962,205.32133871874998,205.43741003125,63.0,112.0
963,205.32133871874998,205.43889812499998,60.0,93.0
964,205.14276746874998,205.5490170625,48.0,112.0
965,205.67848121875,205.784135875,48.0,37.0
966,204.78562496875,206.07282606249998,36.0,96.0
967,205.49990996875,206.17252834375,67.0,96.0
968,205.49990996875,206.20973068749998,63.0,112.0
969,205.85705246875,206.21865925,60.0,112.0
970,204.96419621875,206.22312353125,43.0,100.0
971,206.57133746875002,206.992468,48.0,97.0
972,206.74990871875002,207.0371108125,55.0,97.0
973,206.21419496875,207.22014634375,36.0,97.0
974,206.39276621875,207.2543725,43.0,92.0
975,207.10705121875,207.403181875,48.0,88.0
976,206.92847996875,207.569848375,63.0,127.0
977,207.28562246875,207.57728884375,60.0,107.0
978,207.46419371874998,207.6144911875,55.0,102.0
979,207.99990746875,208.3942523125,55.0,93.0
980,208.17847871875,208.516276,62.0,99.0
981,208.53562121875,208.62490684375,55.0,96.0
982,207.82133621875,208.62639493749998,50.0,88.0
983,207.64276496875,208.67103774999998,43.0,89.0
984,208.35704996875,208.992466,70.0,127.0
985,208.71419246875,209.00883503125,67.0,96.0
986,208.89276371875002,209.09514446875,62.0,112.0
987,209.42847746875,209.77371521875,48.0,92.0
988,209.60704871875,210.0162745,55.0,77.0
989,209.96419121875,210.14722675000002,48.0,96.0
990,209.07133496875,210.3496075,36.0,70.0
991,209.24990621875,210.46270262500002,43.0,89.0
992,210.14276246875,210.468655,60.0,100.0
993,210.32133371875,210.4894883125,55.0,92.0
994,209.78561996874998,210.5132978125,63.0,117.0
995,211.03561871875002,211.15020193750001,60.0,92.0
996,211.03561871875002,211.15020193750001,67.0,95.0
997,211.03561871875002,211.153178125,63.0,122.0
998,210.85704746875,211.23502328125,48.0,90.0
999,210.67847621875,211.462701625,43.0,93.0
1000,210.49990496875,211.47609446875,36.0,78.0
1001,211.39276121875,211.534130125,48.0,102.0
1002,211.21418996875002,211.55347534375,63.0,117.0
1003,211.57133246875,211.86002265625,60.0,122.0
1004,211.21418996875002,211.90912975,67.0,96.0
1005,211.74990371875,211.95823684375,63.0,127.0
1006,212.28561746875,212.65168853125,56.0,97.0
1007,212.46418871875,212.73948606250002,60.0,92.0
1008,212.10704621874999,212.9478191875,51.0,43.0
1009,212.82133121875,212.97609296874998,56.0,100.0
1010,211.92847496874998,213.0371048125,44.0,72.0
1011,213.17847371875,213.29752121875,60.0,93.0
1012,212.99990246875,213.30644978125,63.0,117.0
1013,212.64275996875,213.32728309375,68.0,117.0
1014,213.71418746875,214.1025799375,56.0,96.0
1015,213.89275871875,214.284127375,60.0,93.0
1016,213.53561621875002,214.391270125,51.0,66.0
1017,214.24990121874998,214.39573440625,56.0,92.0
1018,213.35704496875002,214.46121053125,44.0,85.0
1019,214.42847246875,214.74692453125,63.0,95.0
1020,214.07132996875,214.74841262500001,68.0,107.0
1021,214.60704371875,214.79007925000002,60.0,81.0
1022,215.32132871875,215.4835309375,58.0,112.0
1023,215.14275746875,215.48799521875,55.0,90.0
1024,214.96418621875,215.569840375,50.0,65.0
1025,214.78561496875,216.11299459375,43.0,66.0
1026,215.67847121875002,216.16656596875,50.0,72.0
1027,215.85704246875,216.19037546875,58.0,100.0
1028,215.49989996875001,216.20525640625,62.0,102.0
1029,216.03561371875,216.23799446875,55.0,88.0
1030,216.74989871875,216.8585295625,70.0,102.0
1031,216.74989871875,216.8644819375,67.0,95.0
1032,216.57132746874998,216.9716246875,55.0,93.0
1033,216.74989871875,217.034124625,62.0,90.0
1034,216.92846996875,217.23650537499998,67.0,93.0
1035,217.10704121875,217.24692203125,55.0,95.0
1036,216.39275621874998,217.260314875,50.0,79.0
1037,216.21418496875,217.29007675,43.0,85.0
1038,216.92846996875,217.61001690625,70.0,112.0
1039,217.46418371875,217.63977878125002,67.0,83.0
1040,217.28561246875,217.68144540625002,62.0,93.0
1041,217.99989746875002,218.39126612500002,53.0,86.0
1042,218.17846871875,218.44930178125,60.0,79.0
1043,218.53561121875,218.70227771875,53.0,90.0
1044,218.35703996875,218.73948006249998,65.0,93.0
1045,218.35703996875,218.9537655625,68.0,112.0
1046,217.64275496875,218.9775750625,41.0,71.0
1047,217.82132621875002,219.0906701875,48.0,66.0
1048,218.89275371875,219.11745587500002,65.0,92.0
1049,218.71418246874998,219.26477715625,60.0,90.0
1050,219.42846746875,219.8228123125,53.0,82.0
1051,219.60703871875,219.91953840625,60.0,81.0
1052,219.96418121875,220.14275246875002,53.0,97.0
1053,219.07132496875,220.3823355625,41.0,83.0
1054,220.14275246875002,220.4299545625,65.0,97.0
1055,219.24989621875,220.45227596875,48.0,90.0
1056,219.78560996875,220.45674025,68.0,117.0
1057,220.32132371875,220.55644253125,60.0,93.0
1058,220.85703746874998,221.2037633125,55.0,92.0
1059,221.03560871874998,221.42697737499998,62.0,82.0
1060,221.39275121875,221.56090581249998,55.0,96.0
1061,220.49989496875,221.77965559375,43.0,78.0
1062,220.67846621875,221.92400068749998,50.0,83.0
1063,221.57132246875,221.93144115625,67.0,88.0
1064,221.21417996875,221.96864349999998,70.0,117.0
1065,221.74989371875,221.97310778125,62.0,99.0
1066,222.28560746875002,222.66953565625,55.0,107.0
1067,222.46417871875002,222.75584509375,62.0,92.0
1068,221.92846496875,222.88084496875,43.0,79.0
1069,222.10703621875,222.91060684375,50.0,73.0
1070,222.82132121875,222.95822584375,55.0,93.0
1071,222.99989246875,223.28263028125,67.0,88.0
1072,222.64274996875,223.331737375,70.0,107.0
1073,223.17846371874998,223.35405878125,62.0,92.0
1074,223.71417746875,224.10852231249999,56.0,89.0
1075,223.89274871875,224.19334365625,60.0,86.0
1076,223.53560621875,224.29751021875,51.0,35.0
1077,223.35703496874999,224.38977203125,44.0,78.0
1078,224.24989121875,224.51774809375001,56.0,96.0
1079,224.07131996875,224.712688375,68.0,107.0
1080,224.42846246875,224.7156645625,63.0,107.0
1081,224.60703371875002,224.7692359375,60.0,90.0
1082,225.32131871874998,225.48054474999998,62.0,83.0
1083,225.14274746875,225.54304468750001,58.0,95.0
1084,224.96417621875,225.74096115625,53.0,46.0
1085,225.67846121875,225.81536584375,58.0,99.0
1086,224.78560496875,225.8228063125,46.0,90.0
1087,225.49988996874998,225.83768725,65.0,102.0
1088,225.85703246875,226.07727034375,62.0,102.0
1089,226.03560371875,226.21863925,65.0,97.0
1090,226.57131746875,226.8287576875,60.0,96.0
1091,226.74988871875001,226.98798371875,63.0,107.0
1092,226.39274621875,227.00286465624998,55.0,92.0
1093,227.10703121875,227.24691203125002,55.0,95.0
1094,226.21417496875,227.30941196875,48.0,70.0
1095,227.46417371875,227.50881653125,62.0,53.0
1096,227.46417371875,227.51476890625,60.0,58.0
1097,227.28560246875,227.64274496874998,63.0,117.0
1098,226.92845996875002,227.64274496874998,67.0,97.0
1099,227.64274496874998,228.12786353125,48.0,102.0
1100,227.64274496874998,228.153161125,60.0,97.0
1101,227.64274496874998,228.18292300000002,63.0,107.0
1102,227.64274496874998,228.18738728124998,43.0,79.0
1103,227.64274496874998,228.22607771875,67.0,93.0
1104,227.64274496874998,228.2335181875,36.0,61.0
1105,229.42845746875,229.63679059375,60.0,95.0
1106,229.60702871875,229.7930404375,63.0,97.0
1107,229.24988621875,229.8108975625,55.0,89.0
1108,229.07131496875002,230.0370878125,48.0,95.0
1109,229.96417121874998,230.06536159375,55.0,90.0
1110,229.78559996874998,230.4239921875,67.0,96.0
1111,230.14274246875,230.4358969375,63.0,102.0
1112,230.32131371875,230.5668491875,60.0,93.0
1113,230.85702746875,231.26327706249998,55.0,86.0
1114,231.03559871875,231.32726509375,62.0,86.0
1115,231.39274121875002,231.48797921875,55.0,78.0
1116,230.67845621875,231.49988396875,50.0,85.0
1117,230.49988496875,231.54452678125,43.0,88.0
1118,231.57131246875,231.83916934375,67.0,100.0
1119,231.21416996875,231.8406574375,70.0,112.0
1120,231.74988371875,231.9210145,62.0,97.0
1121,232.28559746874998,232.6501804375,48.0,78.0
1122,232.46416871875,232.754347,55.0,89.0
1123,232.99988246875,233.2543465,60.0,96.0
1124,231.92845496875,233.30345359375,36.0,83.0
1125,232.10702621874998,233.3525606875,43.0,90.0
1126,232.82131121875,233.40166778125,48.0,95.0
1127,232.64273996875,233.43440584375,63.0,112.0
1128,233.17845371875,233.55345334375,55.0,90.0
1129,233.71416746875,234.12339325,48.0,95.0
1130,233.89273871875,234.17845271875,55.0,82.0
1131,233.35702496875,234.3049406875,36.0,66.0
1132,233.53559621875002,234.31386924999998,43.0,66.0
1133,234.24988121875,234.40315487499998,48.0,93.0
1134,234.42845246874998,234.75285690625,60.0,92.0
1135,234.07130996875,234.76624975,63.0,117.0
1136,234.60702371874999,234.7781545,55.0,95.0
1137,235.14273746875,235.5311299375,56.0,99.0
1138,235.32130871875,235.63232031249998,60.0,90.0
1139,234.78559496875,236.1025579375,44.0,93.0
1140,235.49987996875,236.1561293125,68.0,122.0
1141,234.96416621875,236.16356978125,51.0,52.0
1142,235.85702246875002,236.25880778125,63.0,102.0
1143,235.67845121875,236.29154584375,56.0,97.0
1144,236.03559371875,236.31833153125,60.0,95.0
1145,236.57130746874998,236.98797371875,56.0,100.0
1146,236.74987871874998,237.05196175,60.0,89.0
1147,236.39273621875,237.2067235,51.0,57.0
1148,237.10702121875,237.29303293750002,56.0,99.0
1149,236.21416496875,237.296009125,44.0,82.0
1150,237.28559246875,237.56535409375,63.0,107.0
1151,236.92844996875,237.5846993125,68.0,117.0
1152,237.46416371875,237.68440159375,60.0,95.0
1153,237.99987746875001,238.38975803124998,55.0,92.0
1154,238.17844871875002,238.55940071875,62.0,96.0
1155,238.53559121875,238.69630534375,55.0,92.0
1156,237.64273496875,238.93737653124998,43.0,65.0
1157,237.82130621875,239.040055,50.0,81.0
1158,238.35701996875,239.50434024999998,70.0,112.0
1159,238.71416246875,239.52368546875,67.0,107.0
1160,238.89273371874998,239.52814975,62.0,97.0
1161,239.42844746875,239.69630434375,55.0,93.0
1162,239.60701871875,239.70820909374999,67.0,92.0
1163,239.60701871875,239.712673375,70.0,127.0
1164,239.24987621875,239.88678034375,50.0,85.0
1165,239.96416121875,240.11445868750002,50.0,93.0
1166,239.07130496874998,240.14868484375,43.0,69.0
1167,239.78558996875,240.16654196874998,67.0,86.0
1168,239.78558996875,240.47308928125,70.0,93.0
1169,240.32130371875002,240.48499403124998,67.0,93.0
1170,240.14273246875,240.5370773125,62.0,97.0
1171,240.85701746875,241.272195625,53.0,86.0
1172,241.03558871874998,241.30046940625,60.0,68.0
1173,241.39273121875,241.50433825,53.0,82.0
1174,241.21415996874998,241.55493343749998,65.0,97.0
1175,240.49987496875,241.83915934375,41.0,75.0
1176,240.67844621875,241.98201634375,48.0,92.0
1177,241.21415996874998,241.99987346875,68.0,107.0
1178,241.74987371875,242.0311234375,65.0,88.0
1179,241.57130246875,242.38380165625,60.0,86.0
1180,242.28558746875,242.65314662499998,53.0,75.0
1181,242.46415871875,242.81386075,60.0,69.0
1182,242.82130121875,242.998384375,53.0,77.0
1183,241.92844496875,243.21415796875,41.0,76.0
1184,242.99987246875,243.28707456249998,65.0,97.0
1185,242.10701621875,243.29451503125,48.0,79.0
1186,242.64272996875002,243.307907875,68.0,112.0
1187,243.17844371875,243.44034821875,60.0,93.0
1188,243.71415746875,244.07725234375,55.0,90.0
1189,243.89272871875,244.25879978125,62.0,86.0
1190,244.24987121875,244.42546628125,55.0,97.0
1191,243.35701496874998,244.659097,43.0,83.0
1192,244.07129996875,244.70225171875,70.0,102.0
1193,244.42844246875,244.71118028125,67.0,97.0
1194,243.53558621874998,244.74391834375,50.0,68.0
1195,244.60701371875,244.88379915625,62.0,96.0
1196,245.14272746875,245.47754856249998,55.0,95.0
1197,245.32129871875,245.5965960625,62.0,95.0
1198,244.78558496875002,245.72606021874998,43.0,82.0
1199,244.96415621875,245.75582209375,50.0,89.0
1200,245.67844121874998,245.8465958125,55.0,100.0
1201,245.85701246874999,246.1025479375,67.0,99.0
1202,245.49986996874998,246.12486934375,70.0,112.0
1203,246.03558371875,246.21861925000002,62.0,100.0
1204,246.57129746875,246.93736853125,56.0,95.0
1205,246.74986871875,247.05046365625,60.0,89.0
1206,246.39272621875,247.1918325625,51.0,45.0
1207,246.21415496875,247.23498728125,44.0,83.0
1208,247.10701121875002,247.4834989375,56.0,93.0
1209,247.28558246875,247.54153459375,63.0,102.0
1210,246.92843996875,247.57129646875,68.0,102.0
1211,247.46415371875,247.61891546875,60.0,93.0
1212,247.99986746874998,248.4001646875,58.0,96.0
1213,248.17843871875,248.468617,62.0,89.0
1214,247.82129621874998,248.61742637499998,53.0,59.0
1215,248.53558121875,248.66653346875,58.0,107.0
1216,247.64272496875,248.70968818749998,46.0,89.0
1217,248.35700996875,248.98052124999998,70.0,99.0
1218,248.71415246875,248.99986646874999,65.0,97.0
1219,248.89272371875,249.07575924999998,62.0,102.0
1220,249.42843746875,249.8287346875,48.0,86.0
1221,249.60700871875,249.950758375,55.0,95.0
1222,249.24986621875001,250.06236540625,43.0,83.0
1223,249.07129496875,250.08022253125,36.0,78.0
1224,249.96415121874998,250.1739724375,48.0,97.0
1225,249.78557996875,250.17546053125,63.0,102.0
1226,250.14272246874998,250.42248409375,60.0,102.0
1227,250.32129371874998,250.48498403125,63.0,102.0
1228,250.49986496875,251.92545878125,48.0,86.0
1229,250.49986496875,251.92545878125,55.0,96.0
1230,252.7305175,257.35104859374997,65.0,49.0
1231,257.10700121875,257.35104859374997,65.0,42.0
1232,252.73349368750002,257.355512875,62.0,44.0
1233,257.1084893125,257.355512875,62.0,49.0
1234,252.736469875,257.3584890625,69.0,43.0
1235,257.09658456249997,260.21116478125,58.0,63.0
1236,261.71116328125,264.9775290625,60.0,52.0
1237,261.71711565625003,264.98199334375,64.0,49.0
1238,261.70818709375,265.00431475,57.0,50.0
1239,265.28556446875,268.99835837499995,58.0,55.0
1240,265.28258828125,269.00431075,55.0,37.0
1241,265.27961209374996,269.02960834375,62.0,35.0
1242,270.47603546874996,275.38079246875,41.0,38.0
1243,270.48942831249997,275.38525675,53.0,42.0
1244,270.49389259375,275.391209125,57.0,41.0
1245,271.46412971875,275.3941853125,48.0,32.0
1246,270.486452125,275.42245909375004,60.0,44.0
