,start,end,pitch,velocity
0,36.475,38.3484375,71.0,114.0
1,38.35,38.725,71.0,114.0
2,38.725,39.1,72.0,107.0
3,39.1,39.2859375,74.0,104.0
4,39.2875,39.85,74.0,104.0
5,39.85,40.2234375,72.0,100.0
6,40.225,40.6,72.0,98.0
7,40.6,40.7859375,71.0,86.0
8,40.7875,41.35,71.0,91.0
9,41.35,42.475,69.0,100.0
10,42.475,44.3484375,71.0,107.0
11,44.35,44.7234375,71.0,102.0
12,44.725,45.1,71.0,107.0
13,45.1,45.4734375,76.0,108.0
14,45.475,45.85,76.0,110.0
15,45.85,46.2234375,74.0,108.0
16,46.225,46.6,74.0,107.0
17,46.6,46.7875,71.0,102.0
18,46.7875,48.475,74.0,110.0
19,48.475,50.3484375,79.0,113.0
20,50.35,50.7234375,79.0,113.0
21,50.725,51.0984375,79.0,107.0
22,51.1,51.475,79.0,108.0
23,51.475,51.85,76.0,107.0
24,51.85,52.6,74.0,107.0
25,52.6,54.0984375,71.0,110.0
26,54.1,54.4734375,71.0,107.0
27,54.475,54.85,71.0,113.0
28,54.85,55.2234375,69.0,110.0
29,55.225,55.5984375,69.0,110.0
30,55.6,56.35,69.0,110.0
31,56.35,57.1,67.0,110.0
32,57.1,60.1,69.0,107.0
33,60.1,60.475,62.0,116.0
34,60.475,62.3484375,71.0,114.0
35,62.35,62.725,71.0,110.0
36,62.725,63.1,72.0,107.0
37,63.1,63.290625000000006,74.0,107.0
38,63.2875,63.290625000000006,74.0,102.0
39,63.85,64.2234375,72.0,104.0
40,64.22500000000001,64.60000000000001,72.0,108.0
41,64.60000000000001,64.7859375,71.0,102.0
42,64.78750000000001,65.35000000000001,71.0,104.0
43,65.35000000000001,65.7234375,69.0,108.0
44,65.72500000000001,66.10000000000001,69.0,107.0
45,66.10000000000001,66.47500000000001,67.0,104.0
46,66.47500000000001,68.3484375,71.0,113.0
47,68.35000000000001,68.7234375,71.0,113.0
48,68.72500000000001,69.10000000000001,71.0,107.0
49,69.10000000000001,69.4734375,76.0,107.0
50,69.47500000000001,69.85000000000001,76.0,108.0
51,69.85000000000001,70.2234375,74.0,108.0
52,70.22500000000001,70.60000000000001,74.0,107.0
53,70.60000000000001,70.78750000000001,71.0,98.0
54,70.78750000000001,72.47500000000001,74.0,108.0
55,72.47500000000001,74.3484375,79.0,114.0
56,74.35000000000001,74.7234375,79.0,113.0
57,74.72500000000001,75.0984375,79.0,110.0
58,75.10000000000001,75.47500000000001,79.0,108.0
59,75.47500000000001,75.85000000000001,78.0,116.0
60,75.85000000000001,76.2234375,74.0,113.0
61,76.22500000000001,76.60000000000001,74.0,113.0
62,76.60000000000001,78.0984375,79.0,119.0
63,78.10000000000001,78.47500000000001,79.0,116.0
64,78.47500000000001,78.85000000000001,81.0,116.0
65,78.85000000000001,79.2234375,79.0,116.0
66,79.22500000000001,79.60000000000001,79.0,116.0
67,79.60000000000001,79.9734375,76.0,107.0
68,79.97500000000001,80.35000000000001,76.0,116.0
69,80.35000000000001,81.10000000000001,79.0,117.0
70,81.10000000000001,83.35000000000001,81.0,120.0
71,83.35000000000001,83.7234375,74.0,117.0
72,83.72500000000001,84.10000000000001,74.0,117.0
73,84.10000000000001,84.47500000000001,71.0,117.0
74,84.47500000000001,84.8484375,81.0,116.0
75,84.85000000000001,85.2234375,81.0,102.0
76,85.22500000000001,85.60000000000001,81.0,117.0
77,85.60000000000001,85.78750000000001,79.0,114.0
78,85.78750000000001,86.35000000000001,81.0,117.0
79,86.35000000000001,87.10000000000001,79.0,114.0
80,87.10000000000001,87.85000000000001,86.0,119.0
81,87.85000000000001,88.2234375,78.0,116.0
82,88.22500000000001,88.60000000000001,78.0,116.0
83,88.60000000000001,89.35000000000001,79.0,116.0
84,89.35000000000001,89.7234375,74.0,114.0
85,89.72500000000001,90.10000000000001,74.0,114.0
86,90.10000000000001,90.47500000000001,76.0,113.0
87,90.47500000000001,90.8484375,79.0,116.0
88,90.85000000000001,91.2234375,79.0,98.0
89,91.22500000000001,91.5984375,79.0,114.0
90,91.60000000000001,91.97500000000001,79.0,110.0
91,91.97500000000001,92.35000000000001,76.0,117.0
92,92.35000000000001,93.10000000000001,74.0,110.0
93,93.10000000000001,93.85000000000001,76.0,114.0
94,93.85000000000001,95.3484375,74.0,116.0
95,95.35000000000001,95.7234375,74.0,116.0
96,95.72500000000001,96.10000000000001,74.0,114.0
97,96.10000000000001,96.47500000000001,76.0,110.0
98,96.47500000000001,96.8484375,79.0,113.0
99,96.85000000000001,97.2234375,79.0,116.0
100,97.22500000000001,97.60000000000001,79.0,116.0
101,97.60000000000001,98.35000000000001,76.0,116.0
102,98.35000000000001,99.0984375,74.0,114.0
103,99.10000000000001,99.47500000000001,74.0,102.0
104,99.47500000000001,99.85000000000001,76.0,113.0
105,99.85000000000001,100.2234375,74.0,113.0
106,100.22500000000001,100.60000000000001,74.0,110.0
107,100.60000000000001,101.35000000000001,81.0,119.0
108,101.35000000000001,102.10000000000001,83.0,114.0
109,102.10000000000001,102.47500000000001,76.0,114.0
110,102.47500000000001,102.8484375,79.0,117.0
111,102.85000000000001,103.5984375,79.0,117.0
112,103.60000000000001,104.35000000000001,79.0,114.0
113,104.35000000000001,105.10000000000001,76.0,116.0
114,105.10000000000001,105.47500000000001,79.0,113.0
115,105.47500000000001,107.35000000000001,81.0,117.0
116,107.35000000000001,107.7234375,74.0,117.0
117,107.72500000000001,108.10000000000001,74.0,117.0
118,108.10000000000001,108.47500000000001,71.0,117.0
119,108.47500000000001,108.8484375,81.0,116.0
120,108.85000000000001,109.2234375,81.0,102.0
121,109.22500000000001,109.60000000000001,81.0,117.0
122,109.60000000000001,109.78750000000001,79.0,114.0
123,109.78750000000001,110.35000000000001,81.0,117.0
124,110.35000000000001,111.10000000000001,79.0,114.0
125,111.10000000000001,111.85000000000001,86.0,119.0
126,111.85000000000001,112.2234375,78.0,116.0
127,112.22500000000001,112.60000000000001,78.0,116.0
128,112.60000000000001,112.7859375,79.0,116.0
129,112.78750000000001,113.35000000000001,79.0,116.0
130,113.35000000000001,113.7234375,74.0,114.0
131,113.72500000000001,114.10000000000001,74.0,114.0
132,114.10000000000001,114.47500000000001,76.0,113.0
133,114.47500000000001,114.8484375,79.0,116.0
134,114.85000000000001,115.2234375,79.0,98.0
135,115.22500000000001,115.5984375,79.0,114.0
136,115.60000000000001,115.97500000000001,79.0,110.0
137,115.97500000000001,116.35000000000001,76.0,117.0
138,116.35000000000001,117.10000000000001,74.0,110.0
139,117.10000000000001,117.85000000000001,76.0,114.0
140,117.85000000000001,119.3484375,74.0,116.0
141,119.35000000000001,119.7234375,74.0,116.0
142,119.72500000000001,120.10000000000001,74.0,114.0
143,120.10000000000001,120.47500000000001,76.0,110.0
144,120.47500000000001,120.8484375,79.0,113.0
145,120.85000000000001,121.2234375,79.0,116.0
146,121.22500000000001,121.60000000000001,79.0,116.0
147,121.60000000000001,122.35000000000001,76.0,116.0
148,122.35000000000001,123.0984375,74.0,114.0
149,123.10000000000001,123.47500000000001,74.0,102.0
150,123.47500000000001,123.85000000000001,76.0,113.0
151,123.85000000000001,124.2234375,74.0,113.0
152,124.22500000000001,124.60000000000001,74.0,110.0
153,124.60000000000001,125.35000000000001,81.0,119.0
154,125.35000000000001,126.10000000000001,83.0,114.0
155,126.10000000000001,126.47500000000001,76.0,114.0
156,126.47500000000001,126.8484375,79.0,117.0
157,126.85000000000001,127.2234375,79.0,117.0
158,127.22500000000001,127.671875,79.0,114.0
159,127.60000000000001,127.9734375,76.0,108.0
160,127.97500000000001,128.35,76.0,107.0
161,128.35,129.1,79.0,116.0
162,129.1,129.85,81.0,117.0
163,129.85,132.475,79.0,119.0
164,156.10000000000002,156.47500000000002,62.0,116.0
165,156.47500000000002,158.34843750000002,71.0,114.0
166,158.35000000000002,158.72500000000002,71.0,110.0
167,158.72500000000002,159.10000000000002,72.0,107.0
168,159.10000000000002,159.290625,74.0,107.0
169,159.28750000000002,159.290625,74.0,102.0
170,159.85000000000002,160.22343750000002,72.0,104.0
171,160.22500000000002,160.60000000000002,72.0,108.0
172,160.60000000000002,160.78593750000002,71.0,102.0
173,160.78750000000002,161.35000000000002,71.0,104.0
174,161.35000000000002,161.72343750000002,69.0,108.0
175,161.72500000000002,162.10000000000002,69.0,107.0
176,162.10000000000002,162.47500000000002,67.0,104.0
177,162.47500000000002,164.34843750000002,71.0,113.0
178,164.35000000000002,164.72343750000002,71.0,113.0
179,164.72500000000002,165.10000000000002,71.0,107.0
180,165.10000000000002,165.47343750000002,76.0,107.0
181,165.47500000000002,165.85000000000002,76.0,108.0
182,165.85000000000002,166.22343750000002,74.0,108.0
183,166.22500000000002,166.60000000000002,74.0,107.0
184,166.60000000000002,166.78750000000002,71.0,98.0
185,166.78750000000002,168.47500000000002,74.0,108.0
186,168.47500000000002,170.34843750000002,79.0,114.0
187,170.35000000000002,170.72343750000002,79.0,113.0
188,170.72500000000002,171.09843750000002,79.0,110.0
189,171.10000000000002,171.47500000000002,79.0,108.0
190,171.47500000000002,171.85000000000002,78.0,116.0
191,171.85000000000002,172.22343750000002,74.0,113.0
192,172.22500000000002,172.60000000000002,74.0,113.0
193,172.60000000000002,174.09843750000002,79.0,119.0
194,174.10000000000002,174.47500000000002,79.0,116.0
195,174.47500000000002,174.85000000000002,81.0,116.0
196,174.85000000000002,175.22343750000002,79.0,116.0
197,175.22500000000002,175.60000000000002,79.0,116.0
198,175.60000000000002,175.97343750000002,76.0,107.0
199,175.97500000000002,176.35000000000002,76.0,116.0
200,176.35000000000002,177.10000000000002,79.0,117.0
201,177.10000000000002,179.35000000000002,81.0,120.0
202,179.35000000000002,179.72343750000002,74.0,117.0
203,179.72500000000002,180.10000000000002,74.0,117.0
204,180.10000000000002,180.47500000000002,71.0,117.0
205,180.47500000000002,180.84843750000002,81.0,116.0
206,180.85000000000002,181.22343750000002,81.0,102.0
207,181.22500000000002,181.60000000000002,81.0,117.0
208,181.60000000000002,181.78750000000002,79.0,114.0
209,181.78750000000002,182.35000000000002,81.0,117.0
210,182.35000000000002,183.10000000000002,79.0,114.0
211,183.10000000000002,183.85000000000002,86.0,119.0
212,183.85000000000002,184.22343750000002,78.0,116.0
213,184.22500000000002,184.60000000000002,78.0,116.0
214,184.60000000000002,185.35000000000002,79.0,116.0
215,185.35000000000002,185.72343750000002,74.0,114.0
216,185.72500000000002,186.10000000000002,74.0,114.0
217,186.10000000000002,186.47500000000002,76.0,113.0
218,186.47500000000002,186.84843750000002,79.0,116.0
219,186.85000000000002,187.22343750000002,79.0,98.0
220,187.22500000000002,187.59843750000002,79.0,114.0
221,187.60000000000002,187.97500000000002,79.0,110.0
222,187.97500000000002,188.35000000000002,76.0,117.0
223,188.35000000000002,189.10000000000002,74.0,110.0
224,189.10000000000002,189.85000000000002,76.0,114.0
225,189.85000000000002,191.34843750000002,74.0,116.0
226,191.35000000000002,191.72343750000002,74.0,116.0
227,191.72500000000002,192.10000000000002,74.0,114.0
228,192.10000000000002,192.47500000000002,76.0,110.0
229,192.47500000000002,192.84843750000002,79.0,113.0
230,192.85000000000002,193.22343750000002,79.0,116.0
231,193.22500000000002,193.60000000000002,79.0,116.0
232,193.60000000000002,194.35000000000002,76.0,116.0
233,194.35000000000002,195.09843750000002,74.0,114.0
234,195.10000000000002,195.47500000000002,74.0,102.0
235,195.47500000000002,195.85000000000002,76.0,113.0
236,195.85000000000002,196.22343750000002,74.0,113.0
237,196.22500000000002,196.60000000000002,74.0,110.0
238,196.60000000000002,197.35000000000002,81.0,119.0
239,197.35000000000002,198.10000000000002,83.0,114.0
240,198.10000000000002,198.47500000000002,76.0,114.0
241,198.47500000000002,198.84843750000002,79.0,117.0
242,198.85000000000002,199.59843750000002,79.0,117.0
243,199.60000000000002,200.35000000000002,79.0,114.0
244,200.35000000000002,201.10000000000002,76.0,116.0
245,201.10000000000002,201.47500000000002,79.0,113.0
246,201.47500000000002,203.35000000000002,81.0,117.0
247,203.35000000000002,203.72343750000002,74.0,117.0
248,203.72500000000002,204.10000000000002,74.0,117.0
249,204.10000000000002,204.47500000000002,71.0,117.0
250,204.47500000000002,204.84843750000002,81.0,116.0
251,204.85000000000002,205.22343750000002,81.0,102.0
252,205.22500000000002,205.60000000000002,81.0,117.0
253,205.60000000000002,205.78750000000002,79.0,114.0
254,205.78750000000002,206.35000000000002,81.0,117.0
255,206.35000000000002,207.10000000000002,79.0,114.0
256,207.10000000000002,207.85000000000002,86.0,119.0
257,207.85000000000002,208.22343750000002,78.0,116.0
258,208.22500000000002,208.60000000000002,78.0,116.0
259,208.60000000000002,208.78593750000002,79.0,116.0
260,208.78750000000002,209.35000000000002,79.0,116.0
261,209.35000000000002,209.72343750000002,74.0,114.0
262,209.72500000000002,210.10000000000002,74.0,114.0
263,210.10000000000002,210.47500000000002,76.0,113.0
264,210.47500000000002,210.84843750000002,79.0,116.0
265,210.85000000000002,211.22343750000002,79.0,98.0
266,211.22500000000002,211.59843750000002,79.0,114.0
267,211.60000000000002,211.97500000000002,79.0,110.0
268,211.97500000000002,212.35000000000002,76.0,117.0
269,212.35000000000002,213.10000000000002,74.0,110.0
270,213.10000000000002,213.85000000000002,76.0,114.0
271,213.85000000000002,215.34843750000002,74.0,116.0
272,215.35000000000002,215.72343750000002,74.0,116.0
273,215.72500000000002,216.10000000000002,74.0,114.0
274,216.10000000000002,216.47500000000002,76.0,110.0
275,216.47500000000002,216.84843750000002,79.0,113.0
276,216.85000000000002,217.22343750000002,79.0,116.0
277,217.22500000000002,217.60000000000002,79.0,116.0
278,217.60000000000002,218.35000000000002,76.0,116.0
279,218.35000000000002,219.09843750000002,74.0,114.0
280,219.10000000000002,219.47500000000002,74.0,102.0
281,219.47500000000002,219.85000000000002,76.0,113.0
282,219.85000000000002,220.22343750000002,74.0,113.0
283,220.22500000000002,220.60000000000002,74.0,110.0
284,220.60000000000002,221.35000000000002,81.0,119.0
285,221.35000000000002,222.10000000000002,83.0,114.0
286,222.10000000000002,222.47500000000002,76.0,114.0
287,222.47500000000002,222.84843750000002,79.0,117.0
288,222.85000000000002,223.22343750000002,79.0,117.0
289,223.22500000000002,223.671875,79.0,114.0
290,223.60000000000002,223.97343750000002,76.0,108.0
291,223.97500000000002,224.35000000000002,76.0,107.0
292,224.35000000000002,225.10000000000002,79.0,116.0
293,225.10000000000002,225.85000000000002,81.0,117.0
294,225.85000000000002,228.47500000000002,79.0,119.0
