,start,end,pitch,velocity
0,0.47500000000000003,1.1421875000000001,71.0,89.0
1,0.47500000000000003,1.2140625,64.0,88.0
2,0.47500000000000003,1.21875,67.0,90.0
3,0.47500000000000003,1.4812500000000002,52.0,86.0
4,1.225,1.6375000000000002,71.0,91.0
5,1.225,1.6500000000000001,64.0,92.0
6,1.225,1.659375,67.0,98.0
7,1.7875,1.8109375,71.0,78.0
8,1.7875,1.8218750000000001,64.0,81.0
9,1.6,1.8578125,52.0,90.0
10,1.975,2.559375,72.0,88.0
11,1.975,2.609375,64.0,87.0
12,1.7875,2.6343750000000004,67.0,91.0
13,1.975,2.8546875000000003,48.0,87.0
14,2.725,3.1359375000000003,72.0,88.0
15,2.725,3.1609375,64.0,91.0
16,2.725,3.178125,67.0,89.0
17,3.2875,3.3890625,64.0,85.0
18,3.2875,3.3921875000000004,72.0,85.0
19,3.1,3.4734375,48.0,94.0
20,3.475,4.0703125,71.0,88.0
21,3.475,4.0875,62.0,110.0
22,3.2875,4.159375,67.0,84.0
23,3.475,4.4359375000000005,43.0,88.0
24,4.2250000000000005,4.6265625,62.0,89.0
25,4.2250000000000005,4.65,67.0,89.0
26,4.2250000000000005,4.6546875000000005,71.0,88.0
27,4.6000000000000005,4.885937500000001,43.0,84.0
28,4.9750000000000005,5.5687500000000005,60.0,86.0
29,4.9750000000000005,5.571875,67.0,87.0
30,4.9750000000000005,5.612500000000001,64.0,88.0
31,4.9750000000000005,5.8765625,48.0,88.0
32,5.7250000000000005,6.2203125,60.0,87.0
33,5.7250000000000005,6.2625,64.0,91.0
34,5.7250000000000005,6.2625,67.0,89.0
35,6.1000000000000005,6.370312500000001,48.0,88.0
36,6.4750000000000005,7.0328125,71.0,98.0
37,6.4750000000000005,7.1312500000000005,64.0,94.0
38,6.4750000000000005,7.1468750000000005,67.0,102.0
39,6.4750000000000005,7.3640625,52.0,81.0
40,7.2250000000000005,7.6375,71.0,98.0
41,7.2250000000000005,7.65,64.0,98.0
42,7.2250000000000005,7.6859375000000005,67.0,98.0
43,7.7875000000000005,7.875,71.0,87.0
44,7.7875000000000005,7.8828125,64.0,87.0
45,7.7875000000000005,7.8921875,67.0,88.0
46,7.6000000000000005,7.903125,52.0,100.0
47,7.9750000000000005,8.5546875,67.0,91.0
48,7.9750000000000005,8.584375,64.0,98.0
49,7.9750000000000005,8.8921875,48.0,90.0
50,8.725,9.145312500000001,67.0,91.0
51,8.725,9.1515625,60.0,92.0
52,8.725,9.1703125,64.0,102.0
53,9.2875,9.378125,60.0,84.0
54,9.1,9.4390625,48.0,88.0
55,9.2875,9.446875,67.0,88.0
56,9.2875,9.45625,64.0,88.0
57,9.475,10.040625,71.0,94.0
58,9.475,10.106250000000001,67.0,94.0
59,9.475,10.1109375,62.0,91.0
60,9.475,10.3828125,55.0,81.0
61,9.475,10.403125000000001,43.0,86.0
62,10.225000000000001,10.662500000000001,67.0,94.0
63,10.225000000000001,10.665625,71.0,93.0
64,10.225000000000001,10.692187500000001,62.0,94.0
65,10.600000000000001,10.856250000000001,55.0,88.0
66,10.787500000000001,10.865625000000001,71.0,86.0
67,10.787500000000001,10.9015625,62.0,87.0
68,10.600000000000001,10.9140625,43.0,84.0
69,10.975000000000001,11.582812500000001,60.0,91.0
70,10.787500000000001,11.5953125,67.0,89.0
71,10.975000000000001,11.6046875,64.0,94.0
72,10.975000000000001,11.9375,48.0,96.0
73,11.725000000000001,12.2203125,60.0,88.0
74,11.725000000000001,12.3296875,67.0,94.0
75,11.725000000000001,12.375,64.0,96.0
76,12.100000000000001,12.490625000000001,48.0,100.0
77,12.475000000000001,12.967187500000001,62.0,110.0
78,12.475000000000001,12.973437500000001,59.0,96.0
79,12.475000000000001,13.0078125,66.0,91.0
80,12.475000000000001,13.2125,47.0,91.0
81,13.225000000000001,13.707812500000001,59.0,94.0
82,13.225000000000001,13.721875,62.0,107.0
83,13.225000000000001,13.857812500000001,66.0,95.0
84,13.600000000000001,13.928125000000001,47.0,90.0
85,13.975000000000001,14.5328125,67.0,98.0
86,13.975000000000001,14.59375,59.0,94.0
87,13.975000000000001,14.6109375,62.0,108.0
88,13.975000000000001,14.8625,55.0,92.0
89,14.725000000000001,15.109375,59.0,93.0
90,14.725000000000001,15.185937500000001,62.0,100.0
91,14.725000000000001,15.223437500000001,67.0,92.0
92,15.100000000000001,15.4328125,55.0,88.0
93,15.475000000000001,16.034375,69.0,98.0
94,15.475000000000001,16.0765625,62.0,108.0
95,15.475000000000001,16.0859375,66.0,103.0
96,15.475000000000001,16.315625,50.0,87.0
97,16.225,16.7890625,66.0,109.0
98,16.225,16.814062500000002,69.0,100.0
99,16.225,16.815625,62.0,114.0
100,16.6,17.243750000000002,50.0,96.0
101,16.975,17.5515625,66.0,100.0
102,16.975,17.559375,69.0,92.0
103,16.975,17.571875000000002,62.0,104.0
104,17.5375,17.7328125,50.0,114.0
105,17.725,18.150000000000002,66.0,119.0
106,17.725,18.15625,69.0,110.0
107,17.725,18.1703125,62.0,119.0
108,18.1,18.400000000000002,50.0,104.0
109,18.475,18.8890625,47.0,88.0
110,18.475,19.0265625,66.0,113.0
111,18.475,19.0421875,62.0,116.0
112,18.475,19.053125,59.0,104.0
113,19.225,19.7296875,66.0,116.0
114,19.225,19.731250000000003,62.0,117.0
115,19.225,19.739062500000003,59.0,107.0
116,19.7875,19.848437500000003,62.0,96.0
117,19.7875,19.8625,66.0,91.0
118,19.7875,19.871875000000003,59.0,89.0
119,19.0375,20.3421875,47.0,89.0
120,20.1625,20.5390625,66.0,109.0
121,20.1625,20.543750000000003,62.0,114.0
122,20.1625,20.548437500000002,59.0,100.0
123,20.5375,20.8234375,47.0,98.0
124,20.725,21.203125,66.0,123.0
125,20.725,21.20625,59.0,116.0
126,20.725,21.337500000000002,62.0,120.0
127,21.1,21.431250000000002,47.0,102.0
128,21.475,21.9359375,67.0,114.0
129,21.475,21.9640625,60.0,110.0
130,21.475,22.003125,64.0,120.0
131,21.475,22.440625,48.0,107.0
132,22.225,22.676562500000003,67.0,108.0
133,22.225,22.707812500000003,64.0,117.0
134,22.225,22.7171875,60.0,107.0
135,22.7875,22.859375,64.0,104.0
136,22.7875,22.8671875,67.0,98.0
137,22.7875,22.875,60.0,93.0
138,22.975,23.017187500000002,64.0,88.0
139,22.6,23.3234375,48.0,92.0
140,23.1625,23.551562500000003,67.0,110.0
141,23.1625,23.567187500000003,64.0,117.0
142,23.1625,23.56875,60.0,108.0
143,23.5375,23.7796875,48.0,119.0
144,23.725,24.095312500000002,60.0,114.0
145,23.725,24.204687500000002,67.0,114.0
146,23.725,24.285937500000003,64.0,119.0
147,24.1,24.395312500000003,48.0,114.0
148,24.475,24.9671875,62.0,110.0
149,24.475,24.973437500000003,59.0,96.0
150,24.475,25.0078125,66.0,91.0
151,24.475,25.212500000000002,47.0,91.0
152,25.225,25.707812500000003,59.0,94.0
153,25.225,25.721875,62.0,107.0
154,25.225,25.8578125,66.0,95.0
155,25.6,25.928125,47.0,90.0
156,25.975,26.532812500000002,67.0,98.0
157,25.975,26.59375,59.0,94.0
158,25.975,26.610937500000002,62.0,108.0
159,25.975,26.8625,55.0,92.0
160,26.725,27.109375,59.0,93.0
161,26.725,27.1859375,62.0,100.0
162,26.725,27.223437500000003,67.0,92.0
163,27.1,27.4328125,55.0,88.0
164,27.475,28.034375,69.0,98.0
165,27.475,28.0765625,62.0,108.0
166,27.475,28.0859375,66.0,103.0
167,27.475,28.315625,50.0,87.0
168,28.225,28.7890625,66.0,109.0
169,28.225,28.814062500000002,69.0,100.0
170,28.225,28.815625,62.0,114.0
171,28.6,29.243750000000002,50.0,96.0
172,28.975,29.551562500000003,66.0,100.0
173,28.975,29.559375000000003,69.0,92.0
174,28.975,29.571875000000002,62.0,104.0
175,29.5375,29.7328125,50.0,114.0
176,29.725,30.150000000000002,66.0,119.0
177,29.725,30.15625,69.0,110.0
178,29.725,30.1703125,62.0,119.0
179,30.1,30.400000000000002,50.0,104.0
180,30.475,30.8890625,47.0,88.0
181,30.475,31.0265625,66.0,113.0
182,30.475,31.0421875,62.0,116.0
183,30.475,31.053125,59.0,104.0
184,31.225,31.7296875,66.0,116.0
185,31.225,31.731250000000003,62.0,117.0
186,31.225,31.739062500000003,59.0,107.0
187,31.7875,31.848437500000003,62.0,96.0
188,31.7875,31.8625,66.0,91.0
189,31.7875,31.871875000000003,59.0,89.0
190,31.0375,32.3421875,47.0,89.0
191,32.1625,32.5390625,66.0,109.0
192,32.1625,32.54375,62.0,114.0
193,32.1625,32.5484375,59.0,100.0
194,32.5375,32.823437500000004,47.0,98.0
195,32.725,33.203125,66.0,123.0
196,32.725,33.206250000000004,59.0,116.0
197,32.725,33.3375,62.0,120.0
198,33.1,33.43125,47.0,102.0
199,33.475,33.9359375,67.0,114.0
200,33.475,33.964062500000004,60.0,110.0
201,33.475,34.003125000000004,64.0,120.0
202,33.475,34.440625000000004,48.0,107.0
203,34.225,34.6765625,67.0,108.0
204,34.225,34.7078125,64.0,117.0
205,34.225,34.7171875,60.0,107.0
206,34.7875,34.859375,64.0,104.0
207,34.7875,34.8671875,67.0,98.0
208,34.7875,34.875,60.0,93.0
209,34.975,35.0171875,64.0,88.0
210,34.6,35.323437500000004,48.0,92.0
211,35.1625,35.5515625,67.0,110.0
212,35.1625,35.5671875,64.0,117.0
213,35.1625,35.56875,60.0,108.0
214,35.5375,35.7796875,48.0,119.0
215,35.725,36.0953125,60.0,114.0
216,35.725,36.2046875,67.0,114.0
217,35.725,36.2859375,64.0,119.0
218,36.1,36.3953125,48.0,114.0
219,37.225,37.9734375,55.0,74.0
220,37.6,38.3140625,67.0,88.0
221,37.6,38.4296875,59.0,87.0
222,36.85,38.928125,50.0,76.0
223,36.475,38.932812500000004,43.0,88.0
224,38.725,39.328125,59.0,96.0
225,38.725,39.4421875,67.0,90.0
226,38.35,39.5,55.0,86.0
227,39.1,39.79375,62.0,85.0
228,39.475,39.884375000000006,66.0,85.0
229,40.225,41.095312500000006,62.0,85.0
230,40.6,41.3578125,74.0,89.0
231,40.6,41.359375,66.0,90.0
232,41.35,41.56875,62.0,86.0
233,39.85,41.8125,57.0,74.0
234,39.475,42.0703125,50.0,88.0
235,42.1,42.325,66.0,56.0
236,41.725,42.3578125,69.0,92.0
237,41.725,42.4296875,62.0,91.0
238,43.225,43.556250000000006,62.0,104.0
239,43.225,43.6,67.0,104.0
240,43.6,44.071875000000006,64.0,88.0
241,42.85,44.140625,59.0,74.0
242,43.975,44.440625000000004,67.0,83.0
243,43.975,44.4671875,62.0,88.0
244,44.35,44.892187500000006,59.0,82.0
245,42.475,45.050000000000004,52.0,92.0
246,44.725,45.103125000000006,62.0,113.0
247,45.1,45.2015625,64.0,73.0
248,44.725,45.334375,67.0,107.0
249,45.475,46.2171875,69.0,93.0
250,45.475,46.29375,62.0,91.0
251,46.6,47.35625,62.0,94.0
252,46.225,47.409375000000004,59.0,84.0
253,46.6,47.778125,69.0,96.0
254,47.35,47.932812500000004,64.0,89.0
255,45.475,48.1640625,47.0,86.0
256,47.725,48.196875000000006,59.0,88.0
257,48.1,48.3015625,62.0,94.0
258,48.1,48.425000000000004,69.0,88.0
259,45.85,48.431250000000006,54.0,77.0
260,48.475,48.8828125,60.0,84.0
261,48.475,48.90625,67.0,87.0
262,49.225,49.828125,67.0,87.0
263,49.225,49.875,60.0,94.0
264,49.6,50.2390625,55.0,74.0
265,49.975,50.487500000000004,60.0,91.0
266,49.975,50.5671875,67.0,94.0
267,50.35,50.845312500000006,55.0,83.0
268,51.1,51.212500000000006,55.0,87.0
269,48.475,51.246875,48.0,88.0
270,50.725,51.5671875,60.0,102.0
271,50.725,51.725,67.0,94.0
272,51.475,52.587500000000006,47.0,90.0
273,51.85,52.6390625,54.0,74.0
274,52.225,52.8125,59.0,85.0
275,52.6,53.0671875,69.0,87.0
276,52.6,53.112500000000004,62.0,91.0
277,52.975,54.470312500000006,52.0,87.0
278,54.1,54.48125,64.0,81.0
279,53.725,54.4890625,67.0,96.0
280,53.35,54.5046875,59.0,83.0
281,55.225,56.375,57.0,84.0
282,55.6,56.392187500000006,59.0,81.0
283,55.6,56.81875,64.0,85.0
284,56.35,56.865625,60.0,84.0
285,54.475,57.1015625,45.0,93.0
286,54.85,57.135937500000004,52.0,78.0
287,57.1,57.453125,60.0,87.0
288,57.1,57.4765625,64.0,84.0
289,56.725,57.487500000000004,57.0,83.0
290,58.6,58.9984375,67.0,91.0
291,57.85,59.2265625,57.0,85.0
292,58.225,59.485937500000006,62.0,87.0
293,58.975,59.689062500000006,66.0,91.0
294,59.5375,59.91875,57.0,87.0
295,57.475,60.009375000000006,50.0,87.0
296,59.725,60.0859375,62.0,90.0
297,60.1,60.454687500000006,66.0,91.0
298,60.475,61.28125,67.0,91.0
299,60.475,61.3171875,59.0,85.0
300,61.6,62.237500000000004,59.0,94.0
301,61.6,62.371875,62.0,104.0
302,61.225,62.401562500000004,55.0,80.0
303,62.35,62.853125000000006,67.0,87.0
304,60.475,62.909375000000004,43.0,88.0
305,60.85,62.940625000000004,50.0,72.0
306,62.35,63.134375000000006,59.0,71.0
307,63.1,63.40625,67.0,86.0
308,63.1,63.423437500000006,62.0,85.0
309,62.725,63.4453125,55.0,87.0
310,63.475,63.703125,62.0,96.0
311,63.475,63.7625,66.0,86.0
312,64.22500000000001,64.5171875,74.0,100.0
313,64.22500000000001,64.5984375,66.0,100.0
314,64.60000000000001,64.7359375,62.0,74.0
315,63.6625,64.9734375,57.0,77.0
316,64.97500000000001,65.5421875,62.0,92.0
317,64.97500000000001,65.55312500000001,69.0,100.0
318,65.35000000000001,65.634375,57.0,66.0
319,63.475,66.278125,50.0,87.0
320,65.72500000000001,66.321875,62.0,104.0
321,66.10000000000001,66.4953125,57.0,82.0
322,65.72500000000001,66.525,69.0,93.0
323,67.22500000000001,67.6046875,62.0,110.0
324,66.85000000000001,67.8390625,59.0,83.0
325,67.22500000000001,68.325,67.0,107.0
326,67.60000000000001,68.32656250000001,64.0,98.0
327,68.35000000000001,68.80625,59.0,87.0
328,66.47500000000001,68.871875,52.0,94.0
329,68.72500000000001,69.1453125,62.0,107.0
330,69.10000000000001,69.45156250000001,67.0,104.0
331,69.47500000000001,70.2296875,69.0,98.0
332,69.47500000000001,70.2765625,62.0,96.0
333,70.22500000000001,70.74062500000001,59.0,86.0
334,70.60000000000001,71.33125,62.0,98.0
335,70.60000000000001,71.4390625,69.0,94.0
336,71.72500000000001,72.08125,62.0,113.0
337,71.35000000000001,72.1328125,59.0,90.0
338,69.47500000000001,72.14375,47.0,87.0
339,72.10000000000001,72.4484375,69.0,108.0
340,69.85000000000001,72.49843750000001,54.0,77.0
341,72.47500000000001,72.8828125,67.0,104.0
342,72.47500000000001,72.971875,60.0,91.0
343,72.85000000000001,73.39687500000001,55.0,68.0
344,73.22500000000001,73.728125,60.0,90.0
345,73.22500000000001,73.74062500000001,67.0,96.0
346,73.60000000000001,74.0359375,55.0,68.0
347,73.97500000000001,74.59375,60.0,91.0
348,73.97500000000001,74.6046875,67.0,98.0
349,74.53750000000001,75.003125,55.0,87.0
350,74.72500000000001,75.04375,67.0,108.0
351,72.47500000000001,75.06875000000001,48.0,88.0
352,74.72500000000001,75.0984375,60.0,104.0
353,75.10000000000001,75.3328125,69.0,84.0
354,75.47500000000001,75.8359375,69.0,92.0
355,75.47500000000001,75.9171875,62.0,86.0
356,75.47500000000001,75.9578125,66.0,87.0
357,75.85000000000001,76.315625,54.0,81.0
358,76.22500000000001,76.546875,66.0,109.0
359,76.22500000000001,76.60781250000001,69.0,93.0
360,75.47500000000001,76.63906250000001,47.0,88.0
361,76.22500000000001,76.921875,62.0,93.0
362,76.60000000000001,76.98125,54.0,83.0
363,76.97500000000001,77.4921875,67.0,89.0
364,76.97500000000001,77.5828125,59.0,91.0
365,76.97500000000001,77.5875,64.0,96.0
366,76.97500000000001,77.95,52.0,89.0
367,77.72500000000001,78.12343750000001,59.0,102.0
368,77.72500000000001,78.1296875,64.0,113.0
369,77.72500000000001,78.1640625,67.0,94.0
370,78.10000000000001,78.43593750000001,52.0,88.0
371,78.47500000000001,78.7390625,57.0,92.0
372,78.47500000000001,78.80000000000001,60.0,102.0
373,78.47500000000001,78.81093750000001,64.0,102.0
374,79.22500000000001,79.734375,69.0,108.0
375,79.22500000000001,79.8359375,60.0,102.0
376,79.78750000000001,79.840625,69.0,84.0
377,79.78750000000001,79.86250000000001,64.0,91.0
378,79.60000000000001,80.3171875,57.0,81.0
379,80.16250000000001,80.54375,60.0,98.0
380,80.16250000000001,80.55000000000001,69.0,94.0
381,80.53750000000001,80.840625,57.0,87.0
382,78.85000000000001,81.1421875,52.0,72.0
383,78.47500000000001,81.1609375,45.0,88.0
384,80.72500000000001,81.1890625,69.0,110.0
385,80.72500000000001,81.22968750000001,60.0,114.0
386,81.10000000000001,81.40937500000001,64.0,87.0
387,81.10000000000001,81.4546875,57.0,84.0
388,81.47500000000001,81.7578125,62.0,90.0
389,81.47500000000001,81.78437500000001,69.0,102.0
390,81.47500000000001,81.7984375,66.0,109.0
391,82.22500000000001,82.5125,64.0,108.0
392,82.41250000000001,82.525,66.0,91.0
393,82.60000000000001,82.7390625,67.0,110.0
394,82.03750000000001,82.796875,62.0,107.0
395,81.85000000000001,82.840625,57.0,82.0
396,82.78750000000001,83.29375,69.0,116.0
397,83.35000000000001,83.6140625,62.0,89.0
398,81.47500000000001,83.92812500000001,50.0,91.0
399,82.97500000000001,83.93125,57.0,98.0
400,84.10000000000001,84.196875,50.0,104.0
401,83.72500000000001,84.30625,66.0,116.0
402,83.72500000000001,84.31562500000001,62.0,110.0
403,83.72500000000001,84.39375000000001,69.0,116.0
404,84.47500000000001,84.775,67.0,110.0
405,84.47500000000001,84.7859375,71.0,98.0
406,84.47500000000001,84.84375,62.0,107.0
407,84.85000000000001,85.353125,55.0,81.0
408,85.22500000000001,85.7421875,67.0,107.0
409,85.78750000000001,86.0546875,67.0,87.0
410,85.22500000000001,86.05625,59.0,98.0
411,85.78750000000001,86.0671875,62.0,102.0
412,85.60000000000001,86.23281250000001,55.0,81.0
413,86.16250000000001,86.54218750000001,59.0,89.0
414,86.16250000000001,86.54375,62.0,93.0
415,86.16250000000001,86.54531250000001,67.0,91.0
416,86.53750000000001,86.85000000000001,55.0,91.0
417,84.47500000000001,87.140625,43.0,100.0
418,86.72500000000001,87.2828125,59.0,110.0
419,86.72500000000001,87.3484375,67.0,113.0
420,87.28750000000001,87.43125,62.0,72.0
421,87.10000000000001,87.46406250000001,55.0,87.0
422,87.47500000000001,87.76875000000001,62.0,98.0
423,87.47500000000001,87.77968750000001,69.0,110.0
424,87.47500000000001,87.8125,66.0,106.0
425,88.22500000000001,88.465625,74.0,107.0
426,88.22500000000001,88.56875000000001,66.0,109.0
427,88.60000000000001,88.703125,62.0,89.0
428,87.85000000000001,88.7421875,57.0,84.0
429,88.78750000000001,88.81093750000001,66.0,84.0
430,88.78750000000001,88.88593750000001,69.0,98.0
431,88.78750000000001,88.8921875,62.0,91.0
432,89.16250000000001,89.51406250000001,66.0,113.0
433,89.16250000000001,89.525,62.0,100.0
434,89.16250000000001,89.53125,69.0,110.0
435,89.53750000000001,89.8515625,57.0,87.0
436,89.72500000000001,90.10625,69.0,110.0
437,87.47500000000001,90.17031250000001,50.0,92.0
438,90.28750000000001,90.3953125,57.0,32.0
439,89.72500000000001,90.47500000000001,62.0,116.0
440,90.10000000000001,90.49375,66.0,109.0
441,90.85000000000001,91.31875000000001,59.0,87.0
442,91.22500000000001,91.71875,64.0,114.0
443,91.22500000000001,91.734375,71.0,113.0
444,91.78750000000001,91.8515625,67.0,107.0
445,91.78750000000001,91.8828125,64.0,84.0
446,91.60000000000001,92.3515625,59.0,84.0
447,92.16250000000001,92.5671875,62.0,102.0
448,92.16250000000001,92.6109375,67.0,110.0
449,92.53750000000001,92.97500000000001,59.0,91.0
450,92.72500000000001,93.05000000000001,71.0,102.0
451,90.47500000000001,93.0640625,52.0,107.0
452,92.72500000000001,93.1328125,64.0,117.0
453,93.10000000000001,93.38906250000001,67.0,100.0
454,93.47500000000001,94.03437500000001,62.0,102.0
455,93.47500000000001,94.0671875,69.0,113.0
456,94.22500000000001,94.465625,62.0,104.0
457,94.41250000000001,94.54218750000001,66.0,100.0
458,94.60000000000001,94.63593750000001,62.0,84.0
459,94.60000000000001,94.67500000000001,69.0,89.0
460,94.78750000000001,95.11562500000001,62.0,116.0
461,94.78750000000001,95.11562500000001,69.0,116.0
462,94.03750000000001,95.29218750000001,59.0,93.0
463,95.16250000000001,95.4375,69.0,84.0
464,95.16250000000001,95.53125,62.0,93.0
465,95.16250000000001,95.5484375,66.0,100.0
466,95.53750000000001,95.89375000000001,59.0,107.0
467,95.72500000000001,96.1015625,62.0,116.0
468,93.47500000000001,96.12812500000001,47.0,88.0
469,95.72500000000001,96.1484375,69.0,110.0
470,96.10000000000001,96.29218750000001,59.0,79.0
471,96.10000000000001,96.384375,66.0,100.0
472,93.85000000000001,96.43281250000001,54.0,81.0
473,96.47500000000001,96.71406250000001,60.0,98.0
474,96.47500000000001,96.7703125,67.0,104.0
475,97.22500000000001,97.67812500000001,71.0,113.0
476,97.22500000000001,97.684375,64.0,98.0
477,97.78750000000001,97.859375,67.0,114.0
478,97.78750000000001,98.025,64.0,104.0
479,97.60000000000001,98.171875,60.0,82.0
480,98.16250000000001,98.5125,62.0,102.0
481,98.16250000000001,98.515625,67.0,100.0
482,98.53750000000001,99.06093750000001,60.0,107.0
483,96.85000000000001,99.1296875,55.0,73.0
484,96.47500000000001,99.15468750000001,48.0,94.0
485,98.72500000000001,99.15937500000001,62.0,114.0
486,99.10000000000001,99.5125,64.0,91.0
487,98.72500000000001,99.5390625,67.0,116.0
488,100.03750000000001,100.56562500000001,59.0,102.0
489,99.85000000000001,100.625,54.0,84.0
490,100.22500000000001,100.625,62.0,116.0
491,100.60000000000001,100.86562500000001,69.0,102.0
492,99.47500000000001,100.89687500000001,47.0,102.0
493,100.97500000000001,101.3875,67.0,88.0
494,100.97500000000001,101.46718750000001,64.0,104.0
495,100.97500000000001,101.59218750000001,59.0,94.0
496,100.97500000000001,101.9609375,52.0,96.0
497,101.72500000000001,102.08125000000001,64.0,114.0
498,101.72500000000001,102.0828125,59.0,108.0
499,101.72500000000001,102.10781250000001,67.0,104.0
500,102.10000000000001,102.478125,52.0,100.0
501,102.47500000000001,102.7671875,57.0,102.0
502,102.47500000000001,103.03437500000001,60.0,108.0
503,102.47500000000001,103.0484375,64.0,108.0
504,103.03750000000001,103.384375,57.0,94.0
505,103.22500000000001,103.540625,60.0,114.0
506,103.22500000000001,103.54531250000001,64.0,117.0
507,103.60000000000001,104.11875,57.0,91.0
508,103.97500000000001,104.38125000000001,69.0,114.0
509,103.97500000000001,104.4265625,60.0,104.0
510,104.53750000000001,104.6015625,64.0,113.0
511,104.35000000000001,104.8875,57.0,86.0
512,104.91250000000001,105.1640625,69.0,108.0
513,104.91250000000001,105.16875,60.0,108.0
514,102.47500000000001,105.23125,45.0,88.0
515,102.85000000000001,105.27187500000001,52.0,86.0
516,105.28750000000001,105.43281250000001,69.0,78.0
517,105.28750000000001,105.4390625,60.0,75.0
518,105.10000000000001,105.5390625,57.0,104.0
519,105.47500000000001,105.715625,62.0,110.0
520,105.47500000000001,105.746875,66.0,109.0
521,105.47500000000001,105.7734375,69.0,91.0
522,106.03750000000001,106.25625000000001,62.0,87.0
523,106.22500000000001,106.4890625,74.0,119.0
524,106.22500000000001,106.60000000000001,66.0,113.0
525,106.60000000000001,106.71718750000001,62.0,88.0
526,105.85000000000001,106.9375,57.0,76.0
527,106.97500000000001,107.23125,62.0,88.0
528,106.97500000000001,107.2359375,69.0,110.0
529,107.16250000000001,107.40156250000001,57.0,93.0
530,107.35000000000001,107.56562500000001,62.0,86.0
531,107.35000000000001,107.571875,69.0,83.0
532,107.35000000000001,107.6015625,66.0,119.0
533,107.53750000000001,107.7859375,57.0,100.0
534,107.91250000000001,108.0625,57.0,88.0
535,107.72500000000001,108.0953125,69.0,117.0
536,105.47500000000001,108.1453125,50.0,104.0
537,107.72500000000001,108.1765625,62.0,110.0
538,108.10000000000001,108.359375,66.0,106.0
539,108.47500000000001,108.66875,71.0,96.0
540,108.47500000000001,108.87031250000001,62.0,100.0
541,109.22500000000001,109.62343750000001,67.0,107.0
542,109.22500000000001,109.8015625,59.0,113.0
543,109.78750000000001,109.8640625,62.0,93.0
544,109.60000000000001,110.2078125,55.0,87.0
545,110.16250000000001,110.49843750000001,67.0,98.0
546,110.16250000000001,110.50625000000001,59.0,104.0
547,110.35000000000001,110.63906250000001,55.0,89.0
548,108.47500000000001,111.15937500000001,43.0,93.0
549,108.85000000000001,111.1765625,50.0,78.0
550,110.72500000000001,111.24062500000001,59.0,117.0
551,110.72500000000001,111.31093750000001,67.0,110.0
552,111.10000000000001,111.353125,62.0,86.0
553,111.10000000000001,111.36875,55.0,84.0
554,111.85000000000001,112.34687500000001,57.0,86.0
555,112.22500000000001,112.62031250000001,62.0,113.0
556,112.22500000000001,112.62031250000001,66.0,116.0
557,112.22500000000001,112.6328125,69.0,114.0
558,112.78750000000001,112.8375,66.0,113.0
559,112.78750000000001,112.840625,69.0,98.0
560,112.78750000000001,112.8515625,62.0,98.0
561,112.97500000000001,113.00625000000001,66.0,90.0
562,112.60000000000001,113.2265625,57.0,86.0
563,113.16250000000001,113.5015625,62.0,104.0
564,113.16250000000001,113.50312500000001,66.0,116.0
565,113.16250000000001,113.51093750000001,69.0,113.0
566,113.35000000000001,113.6171875,57.0,104.0
567,113.72500000000001,114.17812500000001,69.0,113.0
568,113.72500000000001,114.2125,62.0,114.0
569,111.47500000000001,114.22968750000001,50.0,107.0
570,114.10000000000001,114.3671875,66.0,113.0
571,114.10000000000001,114.46406250000001,57.0,90.0
572,114.47500000000001,115.0171875,67.0,116.0
573,114.66250000000001,115.0234375,71.0,74.0
574,114.47500000000001,115.028125,64.0,96.0
575,115.22500000000001,115.5984375,71.0,108.0
576,115.22500000000001,115.625,64.0,102.0
577,115.22500000000001,115.6453125,67.0,108.0
578,115.78750000000001,115.85000000000001,67.0,104.0
579,115.78750000000001,115.8515625,71.0,94.0
580,115.78750000000001,115.8671875,64.0,96.0
581,115.22500000000001,116.24843750000001,59.0,104.0
582,116.16250000000001,116.53750000000001,71.0,102.0
583,116.16250000000001,116.5484375,67.0,104.0
584,116.16250000000001,116.55625,64.0,102.0
585,116.53750000000001,116.80312500000001,59.0,114.0
586,114.47500000000001,117.11875,52.0,102.0
587,116.72500000000001,117.1375,71.0,110.0
588,116.72500000000001,117.15625,67.0,116.0
589,116.72500000000001,117.1578125,64.0,116.0
590,117.10000000000001,117.4609375,59.0,94.0
591,117.47500000000001,117.92500000000001,62.0,96.0
592,117.47500000000001,117.99062500000001,66.0,95.0
593,117.47500000000001,117.99843750000001,69.0,92.0
594,118.22500000000001,118.640625,69.0,92.0
595,118.22500000000001,118.6875,66.0,95.0
596,118.22500000000001,118.7078125,62.0,91.0
597,118.78750000000001,118.85468750000001,66.0,89.0
598,118.78750000000001,118.859375,69.0,87.0
599,118.78750000000001,118.87343750000001,62.0,90.0
600,118.60000000000001,119.19375000000001,59.0,81.0
601,119.16250000000001,119.54375,69.0,93.0
602,119.16250000000001,119.56093750000001,66.0,106.0
603,119.16250000000001,119.5703125,62.0,92.0
604,119.53750000000001,119.79218750000001,59.0,108.0
605,119.72500000000001,120.11250000000001,62.0,110.0
606,119.72500000000001,120.15468750000001,66.0,119.0
607,117.47500000000001,120.184375,47.0,89.0
608,119.72500000000001,120.20625000000001,69.0,108.0
609,120.10000000000001,120.24843750000001,59.0,88.0
610,117.85000000000001,120.45,54.0,78.0
611,120.47500000000001,120.828125,60.0,98.0
612,120.47500000000001,120.83437500000001,67.0,108.0
613,120.47500000000001,120.8359375,64.0,110.0
614,120.85000000000001,121.42500000000001,55.0,76.0
615,121.22500000000001,121.58437500000001,64.0,108.0
616,121.22500000000001,121.73281250000001,60.0,93.0
617,121.22500000000001,121.7734375,67.0,98.0
618,121.60000000000001,122.08125000000001,55.0,76.0
619,121.97500000000001,122.35468750000001,64.0,107.0
620,121.97500000000001,122.375,67.0,107.0
621,121.97500000000001,122.3765625,60.0,90.0
622,122.35000000000001,122.78125,55.0,84.0
623,120.47500000000001,123.09375,48.0,92.0
624,122.72500000000001,123.1578125,60.0,110.0
625,122.72500000000001,123.16718750000001,67.0,113.0
626,123.10000000000001,123.42031250000001,64.0,93.0
627,123.47500000000001,123.840625,69.0,96.0
628,123.47500000000001,124.009375,66.0,103.0
629,123.47500000000001,124.0125,62.0,89.0
630,123.85000000000001,124.4265625,54.0,79.0
631,124.22500000000001,124.603125,66.0,109.0
632,124.22500000000001,124.609375,69.0,91.0
633,124.22500000000001,124.6328125,62.0,104.0
634,124.22500000000001,124.66250000000001,59.0,91.0
635,123.47500000000001,124.72187500000001,47.0,91.0
636,124.60000000000001,124.915625,54.0,84.0
637,124.97500000000001,125.46875,67.0,98.0
638,124.97500000000001,125.54218750000001,59.0,100.0
639,124.97500000000001,125.55312500000001,64.0,110.0
640,124.97500000000001,125.853125,52.0,98.0
641,125.72500000000001,126.12343750000001,59.0,102.0
642,125.72500000000001,126.125,64.0,110.0
643,125.72500000000001,126.1734375,67.0,93.0
644,126.10000000000001,126.4546875,52.0,107.0
645,126.47500000000001,126.884375,64.0,93.0
646,126.47500000000001,126.94375000000001,67.0,93.0
647,126.47500000000001,126.96875,57.0,92.0
648,126.47500000000001,127.009375,60.0,104.0
649,126.85000000000001,127.3328125,52.0,82.0
650,127.22500000000001,127.5328125,57.0,96.0
651,127.22500000000001,127.5875,60.0,102.0
652,127.22500000000001,127.5875,64.0,93.0
653,127.22500000000001,127.61250000000001,67.0,89.0
654,127.60000000000001,128.03593750000002,52.0,84.0
655,126.47500000000001,128.0578125,45.0,92.0
656,127.97500000000001,128.446875,66.0,106.0
657,127.97500000000001,128.478125,69.0,100.0
658,127.97500000000001,128.50468750000002,62.0,104.0
659,127.97500000000001,128.91093750000002,50.0,88.0
660,128.725,129.1515625,69.0,98.0
661,128.725,129.175,66.0,116.0
662,128.725,129.19218750000002,62.0,98.0
663,129.1,129.4609375,50.0,92.0
664,129.475,130.1484375,62.0,104.0
665,129.475,130.1796875,59.0,98.0
666,129.475,130.39531250000002,67.0,88.0
667,130.225,131.00468750000002,55.0,87.0
668,130.6,131.2171875,67.0,98.0
669,130.6,131.3125,59.0,93.0
670,130.6,131.3390625,62.0,107.0
671,131.35,131.8421875,55.0,88.0
672,131.725,132.103125,57.0,88.0
673,131.725,132.12968750000002,62.0,90.0
674,132.1,132.15,59.0,83.0
675,129.475,132.165625,43.0,88.0
676,129.85,132.26250000000002,50.0,81.0
677,132.475,133.05625,67.0,93.0
678,132.475,133.078125,59.0,94.0
679,132.475,133.109375,64.0,104.0
680,133.225,133.834375,67.0,87.0
681,133.225,133.8515625,59.0,86.0
682,133.225,133.8765625,64.0,88.0
683,133.975,134.59062500000002,67.0,84.0
684,133.975,134.6,59.0,84.0
685,133.975,134.65,64.0,86.0
686,134.725,135.1328125,59.0,91.0
687,134.725,135.275,67.0,88.0
688,134.725,135.3234375,64.0,91.0
689,132.475,135.4,52.0,88.0
690,135.475,136.07500000000002,67.0,90.0
691,135.475,136.1546875,60.0,88.0
692,135.475,136.1625,64.0,91.0
693,136.225,136.70000000000002,67.0,88.0
694,136.225,136.7125,60.0,86.0
695,136.225,136.7125,64.0,89.0
696,136.7875,136.85625000000002,64.0,88.0
697,136.7875,136.85625000000002,67.0,87.0
698,136.7875,136.86875,60.0,86.0
699,136.6,137.24375,55.0,58.0
700,137.1625,137.5390625,67.0,88.0
701,137.1625,137.54375000000002,60.0,84.0
702,137.1625,137.5625,64.0,87.0
703,137.5375,137.80156250000002,55.0,79.0
704,137.725,138.1734375,60.0,88.0
705,135.475,138.221875,48.0,84.0
706,137.725,138.2359375,67.0,90.0
707,137.725,138.3140625,64.0,94.0
708,138.1,138.4546875,55.0,80.0
709,138.475,139.0109375,67.0,88.0
710,138.475,139.05,59.0,86.0
711,138.475,139.08125,62.0,89.0
712,138.85,139.25468750000002,55.0,63.0
713,139.225,139.6828125,67.0,87.0
714,139.225,139.6984375,59.0,86.0
715,139.225,139.70000000000002,62.0,89.0
716,139.7875,139.859375,62.0,87.0
717,139.7875,139.8703125,59.0,85.0
718,139.7875,139.8890625,67.0,85.0
719,139.6,140.22343750000002,55.0,65.0
720,140.1625,140.509375,67.0,84.0
721,140.1625,140.51250000000002,59.0,83.0
722,140.1625,140.5453125,62.0,87.0
723,140.5375,140.84062500000002,55.0,76.0
724,140.725,141.12187500000002,59.0,88.0
725,138.475,141.12968750000002,43.0,89.0
726,140.725,141.20625,67.0,91.0
727,140.725,141.209375,62.0,89.0
728,141.1,141.3140625,55.0,82.0
729,141.475,142.053125,67.0,86.0
730,141.475,142.15,60.0,82.0
731,141.475,142.1828125,64.0,86.0
732,142.225,142.70000000000002,60.0,87.0
733,142.225,142.7015625,67.0,88.0
734,142.225,142.7328125,64.0,88.0
735,142.7875,142.9078125,60.0,80.0
736,142.7875,142.9125,64.0,78.0
737,142.7875,142.928125,67.0,86.0
738,142.975,143.03593750000002,67.0,63.0
739,142.975,143.05,60.0,71.0
740,142.975,143.06875,64.0,74.0
741,143.1625,143.553125,67.0,85.0
742,143.1625,143.578125,60.0,84.0
743,143.1625,143.6078125,64.0,86.0
744,141.475,143.9015625,48.0,86.0
745,143.725,144.1359375,60.0,93.0
746,143.725,144.175,64.0,96.0
747,143.725,144.1875,67.0,94.0
748,144.1,144.365625,48.0,87.0
749,144.475,145.0921875,67.0,91.0
750,144.475,145.1234375,59.0,87.0
751,144.475,145.15625,64.0,93.0
752,145.225,145.6859375,67.0,88.0
753,145.225,145.696875,59.0,87.0
754,145.225,145.7171875,64.0,90.0
755,145.7875,145.86406250000002,59.0,84.0
756,145.7875,145.8671875,64.0,83.0
757,145.7875,145.875,67.0,82.0
758,146.1625,146.55,67.0,84.0
759,146.1625,146.571875,59.0,83.0
760,146.1625,146.634375,64.0,87.0
761,144.475,146.925,52.0,88.0
762,146.725,147.17656250000002,59.0,92.0
763,146.725,147.2359375,67.0,91.0
764,146.725,147.365625,64.0,93.0
765,147.1,147.4609375,52.0,86.0
766,147.475,147.99375,67.0,89.0
767,147.475,148.0109375,60.0,88.0
768,147.475,148.046875,64.0,91.0
769,148.225,148.7484375,67.0,89.0
770,148.225,148.76875,60.0,88.0
771,148.225,148.78593750000002,64.0,91.0
772,148.7875,148.8546875,67.0,85.0
773,148.7875,148.85625000000002,64.0,87.0
774,148.7875,148.8671875,60.0,87.0
775,147.475,149.4296875,48.0,85.0
776,149.1625,149.5234375,67.0,88.0
777,149.1625,149.55,60.0,88.0
778,149.1625,149.56718750000002,64.0,89.0
779,149.5375,149.9703125,48.0,82.0
780,149.725,150.1234375,60.0,91.0
781,149.725,150.26250000000002,67.0,92.0
782,149.725,150.3515625,64.0,100.0
783,150.1,150.44375,48.0,88.0
784,150.475,150.98906250000002,67.0,89.0
785,150.475,151.0109375,59.0,90.0
786,150.475,151.0109375,62.0,96.0
787,150.475,151.30156250000002,55.0,83.0
788,151.225,151.70000000000002,67.0,90.0
789,151.225,151.703125,59.0,92.0
790,151.225,151.70625,62.0,98.0
791,151.7875,151.8609375,62.0,90.0
792,151.7875,151.8625,67.0,86.0
793,151.7875,151.86875,59.0,87.0
794,151.6,152.26875,55.0,73.0
795,152.1625,152.55937500000002,67.0,88.0
796,152.1625,152.5703125,62.0,89.0
797,152.1625,152.571875,59.0,88.0
798,152.5375,152.8046875,55.0,79.0
799,152.725,153.18125,59.0,91.0
800,152.725,153.2421875,67.0,91.0
801,150.475,153.3203125,43.0,87.0
802,152.725,153.38125,62.0,100.0
803,153.1,153.40312500000002,55.0,87.0
804,153.475,154.0015625,71.0,91.0
805,153.475,154.09375,67.0,98.0
806,153.475,154.103125,62.0,91.0
807,154.22500000000002,154.67656250000002,71.0,87.0
808,154.22500000000002,154.7109375,62.0,86.0
809,154.22500000000002,154.7109375,67.0,89.0
810,154.78750000000002,154.853125,67.0,88.0
811,154.78750000000002,154.875,62.0,85.0
812,154.78750000000002,154.875,71.0,86.0
813,154.60000000000002,155.17656250000002,55.0,69.0
814,155.16250000000002,155.50625000000002,71.0,87.0
815,155.16250000000002,155.51875,62.0,87.0
816,155.16250000000002,155.5328125,67.0,88.0
817,155.53750000000002,155.784375,55.0,87.0
818,155.72500000000002,156.13906250000002,62.0,113.0
819,155.72500000000002,156.25468750000002,71.0,107.0
820,155.72500000000002,156.30156250000002,67.0,117.0
821,156.10000000000002,156.378125,55.0,90.0
822,153.475,156.41093750000002,43.0,84.0
823,156.47500000000002,157.28125,67.0,91.0
824,156.47500000000002,157.31718750000002,59.0,85.0
825,157.60000000000002,158.2375,59.0,94.0
826,157.60000000000002,158.37187500000002,62.0,104.0
827,157.22500000000002,158.4015625,55.0,80.0
828,158.35000000000002,158.853125,67.0,87.0
829,156.47500000000002,158.909375,43.0,88.0
830,156.85000000000002,158.940625,50.0,72.0
831,158.35000000000002,159.134375,59.0,71.0
832,159.10000000000002,159.40625,67.0,86.0
833,159.10000000000002,159.4234375,62.0,85.0
834,158.72500000000002,159.4453125,55.0,87.0
835,159.47500000000002,159.703125,62.0,96.0
836,159.47500000000002,159.76250000000002,66.0,86.0
837,160.22500000000002,160.5171875,74.0,100.0
838,160.22500000000002,160.59843750000002,66.0,100.0
839,160.60000000000002,160.7359375,62.0,74.0
840,159.66250000000002,160.97343750000002,57.0,77.0
841,160.97500000000002,161.5421875,62.0,92.0
842,160.97500000000002,161.55312500000002,69.0,100.0
843,161.35000000000002,161.634375,57.0,66.0
844,159.47500000000002,162.27812500000002,50.0,87.0
845,161.72500000000002,162.321875,62.0,104.0
846,162.10000000000002,162.4953125,57.0,82.0
847,161.72500000000002,162.525,69.0,93.0
848,163.22500000000002,163.6046875,62.0,110.0
849,162.85000000000002,163.8390625,59.0,83.0
850,163.22500000000002,164.32500000000002,67.0,107.0
851,163.60000000000002,164.32656250000002,64.0,98.0
852,164.35000000000002,164.80625,59.0,87.0
853,162.47500000000002,164.87187500000002,52.0,94.0
854,164.72500000000002,165.14531250000002,62.0,107.0
855,165.10000000000002,165.45156250000002,67.0,104.0
856,165.47500000000002,166.2296875,69.0,98.0
857,165.47500000000002,166.2765625,62.0,96.0
858,166.22500000000002,166.74062500000002,59.0,86.0
859,166.60000000000002,167.33125,62.0,98.0
860,166.60000000000002,167.4390625,69.0,94.0
861,167.72500000000002,168.08125,62.0,113.0
862,167.35000000000002,168.1328125,59.0,90.0
863,165.47500000000002,168.14375,47.0,87.0
864,168.10000000000002,168.4484375,69.0,108.0
865,165.85000000000002,168.49843750000002,54.0,77.0
866,168.47500000000002,168.8828125,67.0,104.0
867,168.47500000000002,168.971875,60.0,91.0
868,168.85000000000002,169.39687500000002,55.0,68.0
869,169.22500000000002,169.728125,60.0,90.0
870,169.22500000000002,169.74062500000002,67.0,96.0
871,169.60000000000002,170.03593750000002,55.0,68.0
872,169.97500000000002,170.59375,60.0,91.0
873,169.97500000000002,170.6046875,67.0,98.0
874,170.53750000000002,171.003125,55.0,87.0
875,170.72500000000002,171.04375000000002,67.0,108.0
876,168.47500000000002,171.06875000000002,48.0,88.0
877,170.72500000000002,171.09843750000002,60.0,104.0
878,171.10000000000002,171.33281250000002,69.0,84.0
879,171.47500000000002,171.8359375,69.0,92.0
880,171.47500000000002,171.9171875,62.0,86.0
881,171.47500000000002,171.95781250000002,66.0,87.0
882,171.85000000000002,172.315625,54.0,81.0
883,172.22500000000002,172.546875,66.0,109.0
884,172.22500000000002,172.60781250000002,69.0,93.0
885,171.47500000000002,172.63906250000002,47.0,88.0
886,172.22500000000002,172.921875,62.0,93.0
887,172.60000000000002,172.98125000000002,54.0,83.0
888,172.97500000000002,173.4921875,67.0,89.0
889,172.97500000000002,173.58281250000002,59.0,91.0
890,172.97500000000002,173.5875,64.0,96.0
891,172.97500000000002,173.95000000000002,52.0,89.0
892,173.72500000000002,174.12343750000002,59.0,102.0
893,173.72500000000002,174.12968750000002,64.0,113.0
894,173.72500000000002,174.1640625,67.0,94.0
895,174.10000000000002,174.43593750000002,52.0,88.0
896,174.47500000000002,174.73906250000002,57.0,92.0
897,174.47500000000002,174.8,60.0,102.0
898,174.47500000000002,174.81093750000002,64.0,102.0
899,175.22500000000002,175.734375,69.0,108.0
900,175.22500000000002,175.8359375,60.0,102.0
901,175.78750000000002,175.84062500000002,69.0,84.0
902,175.78750000000002,175.8625,64.0,91.0
903,175.60000000000002,176.31718750000002,57.0,81.0
904,176.16250000000002,176.54375000000002,60.0,98.0
905,176.16250000000002,176.55,69.0,94.0
906,176.53750000000002,176.84062500000002,57.0,87.0
907,174.85000000000002,177.1421875,52.0,72.0
908,174.47500000000002,177.16093750000002,45.0,88.0
909,176.72500000000002,177.1890625,69.0,110.0
910,176.72500000000002,177.2296875,60.0,114.0
911,177.10000000000002,177.409375,64.0,87.0
912,177.10000000000002,177.4546875,57.0,84.0
913,177.47500000000002,177.7578125,62.0,90.0
914,177.47500000000002,177.784375,69.0,102.0
915,177.47500000000002,177.7984375,66.0,109.0
916,178.22500000000002,178.51250000000002,64.0,108.0
917,178.41250000000002,178.525,66.0,91.0
918,178.60000000000002,178.73906250000002,67.0,110.0
919,178.03750000000002,178.796875,62.0,107.0
920,177.85000000000002,178.84062500000002,57.0,82.0
921,178.78750000000002,179.29375000000002,69.0,116.0
922,179.35000000000002,179.61406250000002,62.0,89.0
923,177.47500000000002,179.92812500000002,50.0,91.0
924,178.97500000000002,179.93125,57.0,98.0
925,180.10000000000002,180.196875,50.0,104.0
926,179.72500000000002,180.30625,66.0,116.0
927,179.72500000000002,180.315625,62.0,110.0
928,179.72500000000002,180.39375,69.0,116.0
929,180.47500000000002,180.775,67.0,110.0
930,180.47500000000002,180.78593750000002,71.0,98.0
931,180.47500000000002,180.84375,62.0,107.0
932,180.85000000000002,181.353125,55.0,81.0
933,181.22500000000002,181.7421875,67.0,107.0
934,181.78750000000002,182.0546875,67.0,87.0
935,181.22500000000002,182.05625,59.0,98.0
936,181.78750000000002,182.06718750000002,62.0,102.0
937,181.60000000000002,182.23281250000002,55.0,81.0
938,182.16250000000002,182.5421875,59.0,89.0
939,182.16250000000002,182.54375000000002,62.0,93.0
940,182.16250000000002,182.54531250000002,67.0,91.0
941,182.53750000000002,182.85000000000002,55.0,91.0
942,180.47500000000002,183.140625,43.0,100.0
943,182.72500000000002,183.2828125,59.0,110.0
944,182.72500000000002,183.34843750000002,67.0,113.0
945,183.28750000000002,183.43125,62.0,72.0
946,183.10000000000002,183.4640625,55.0,87.0
947,183.47500000000002,183.76875,62.0,98.0
948,183.47500000000002,183.77968750000002,69.0,110.0
949,183.47500000000002,183.8125,66.0,106.0
950,184.22500000000002,184.46562500000002,74.0,107.0
951,184.22500000000002,184.56875000000002,66.0,109.0
952,184.60000000000002,184.703125,62.0,89.0
953,183.85000000000002,184.7421875,57.0,84.0
954,184.78750000000002,184.81093750000002,66.0,84.0
955,184.78750000000002,184.8859375,69.0,98.0
956,184.78750000000002,184.8921875,62.0,91.0
957,185.16250000000002,185.51406250000002,66.0,113.0
958,185.16250000000002,185.525,62.0,100.0
959,185.16250000000002,185.53125,69.0,110.0
960,185.53750000000002,185.8515625,57.0,87.0
961,185.72500000000002,186.10625000000002,69.0,110.0
962,183.47500000000002,186.17031250000002,50.0,92.0
963,186.28750000000002,186.39531250000002,57.0,32.0
964,185.72500000000002,186.47500000000002,62.0,116.0
965,186.10000000000002,186.49375,66.0,109.0
966,186.85000000000002,187.31875000000002,59.0,87.0
967,187.22500000000002,187.71875,64.0,114.0
968,187.22500000000002,187.734375,71.0,113.0
969,187.78750000000002,187.8515625,67.0,107.0
970,187.78750000000002,187.8828125,64.0,84.0
971,187.60000000000002,188.3515625,59.0,84.0
972,188.16250000000002,188.56718750000002,62.0,102.0
973,188.16250000000002,188.6109375,67.0,110.0
974,188.53750000000002,188.97500000000002,59.0,91.0
975,188.72500000000002,189.05,71.0,102.0
976,186.47500000000002,189.0640625,52.0,107.0
977,188.72500000000002,189.1328125,64.0,117.0
978,189.10000000000002,189.38906250000002,67.0,100.0
979,189.47500000000002,190.034375,62.0,102.0
980,189.47500000000002,190.06718750000002,69.0,113.0
981,190.22500000000002,190.46562500000002,62.0,104.0
982,190.41250000000002,190.5421875,66.0,100.0
983,190.60000000000002,190.6359375,62.0,84.0
984,190.60000000000002,190.675,69.0,89.0
985,190.78750000000002,191.11562500000002,62.0,116.0
986,190.78750000000002,191.11562500000002,69.0,116.0
987,190.03750000000002,191.2921875,59.0,93.0
988,191.16250000000002,191.4375,69.0,84.0
989,191.16250000000002,191.53125,62.0,93.0
990,191.16250000000002,191.5484375,66.0,100.0
991,191.53750000000002,191.89375,59.0,107.0
992,191.72500000000002,192.1015625,62.0,116.0
993,189.47500000000002,192.128125,47.0,88.0
994,191.72500000000002,192.1484375,69.0,110.0
995,192.10000000000002,192.2921875,59.0,79.0
996,192.10000000000002,192.384375,66.0,100.0
997,189.85000000000002,192.4328125,54.0,81.0
998,192.47500000000002,192.7140625,60.0,98.0
999,192.47500000000002,192.77031250000002,67.0,104.0
1000,193.22500000000002,193.67812500000002,71.0,113.0
1001,193.22500000000002,193.68437500000002,64.0,98.0
1002,193.78750000000002,193.859375,67.0,114.0
1003,193.78750000000002,194.025,64.0,104.0
1004,193.60000000000002,194.171875,60.0,82.0
1005,194.16250000000002,194.51250000000002,62.0,102.0
1006,194.16250000000002,194.515625,67.0,100.0
1007,194.53750000000002,195.06093750000002,60.0,107.0
1008,192.85000000000002,195.12968750000002,55.0,73.0
1009,192.47500000000002,195.15468750000002,48.0,94.0
1010,194.72500000000002,195.159375,62.0,114.0
1011,195.10000000000002,195.51250000000002,64.0,91.0
1012,194.72500000000002,195.5390625,67.0,116.0
1013,196.03750000000002,196.565625,59.0,102.0
1014,195.85000000000002,196.625,54.0,84.0
1015,196.22500000000002,196.625,62.0,116.0
1016,196.60000000000002,196.86562500000002,69.0,102.0
1017,195.47500000000002,196.89687500000002,47.0,102.0
1018,196.97500000000002,197.38750000000002,67.0,88.0
1019,196.97500000000002,197.46718750000002,64.0,104.0
1020,196.97500000000002,197.59218750000002,59.0,94.0
1021,196.97500000000002,197.9609375,52.0,96.0
1022,197.72500000000002,198.08125,64.0,114.0
1023,197.72500000000002,198.08281250000002,59.0,108.0
1024,197.72500000000002,198.10781250000002,67.0,104.0
1025,198.10000000000002,198.478125,52.0,100.0
1026,198.47500000000002,198.7671875,57.0,102.0
1027,198.47500000000002,199.034375,60.0,108.0
1028,198.47500000000002,199.0484375,64.0,108.0
1029,199.03750000000002,199.384375,57.0,94.0
1030,199.22500000000002,199.540625,60.0,114.0
1031,199.22500000000002,199.54531250000002,64.0,117.0
1032,199.60000000000002,200.11875,57.0,91.0
1033,199.97500000000002,200.38125000000002,69.0,114.0
1034,199.97500000000002,200.42656250000002,60.0,104.0
1035,200.53750000000002,200.6015625,64.0,113.0
1036,200.35000000000002,200.88750000000002,57.0,86.0
1037,200.91250000000002,201.1640625,69.0,108.0
1038,200.91250000000002,201.16875000000002,60.0,108.0
1039,198.47500000000002,201.23125000000002,45.0,88.0
1040,198.85000000000002,201.27187500000002,52.0,86.0
1041,201.28750000000002,201.4328125,69.0,78.0
1042,201.28750000000002,201.4390625,60.0,75.0
1043,201.10000000000002,201.5390625,57.0,104.0
1044,201.47500000000002,201.71562500000002,62.0,110.0
1045,201.47500000000002,201.74687500000002,66.0,109.0
1046,201.47500000000002,201.7734375,69.0,91.0
1047,202.03750000000002,202.25625000000002,62.0,87.0
1048,202.22500000000002,202.48906250000002,74.0,119.0
1049,202.22500000000002,202.60000000000002,66.0,113.0
1050,202.60000000000002,202.71718750000002,62.0,88.0
1051,201.85000000000002,202.9375,57.0,76.0
1052,202.97500000000002,203.23125000000002,62.0,88.0
1053,202.97500000000002,203.2359375,69.0,110.0
1054,203.16250000000002,203.4015625,57.0,93.0
1055,203.35000000000002,203.565625,62.0,86.0
1056,203.35000000000002,203.571875,69.0,83.0
1057,203.35000000000002,203.6015625,66.0,119.0
1058,203.53750000000002,203.78593750000002,57.0,100.0
1059,203.91250000000002,204.0625,57.0,88.0
1060,203.72500000000002,204.0953125,69.0,117.0
1061,201.47500000000002,204.14531250000002,50.0,104.0
1062,203.72500000000002,204.17656250000002,62.0,110.0
1063,204.10000000000002,204.359375,66.0,106.0
1064,204.47500000000002,204.66875000000002,71.0,96.0
1065,204.47500000000002,204.8703125,62.0,100.0
1066,205.22500000000002,205.62343750000002,67.0,107.0
1067,205.22500000000002,205.80156250000002,59.0,113.0
1068,205.78750000000002,205.86406250000002,62.0,93.0
1069,205.60000000000002,206.20781250000002,55.0,87.0
1070,206.16250000000002,206.49843750000002,67.0,98.0
1071,206.16250000000002,206.50625000000002,59.0,104.0
1072,206.35000000000002,206.63906250000002,55.0,89.0
1073,204.47500000000002,207.159375,43.0,93.0
1074,204.85000000000002,207.17656250000002,50.0,78.0
1075,206.72500000000002,207.24062500000002,59.0,117.0
1076,206.72500000000002,207.31093750000002,67.0,110.0
1077,207.10000000000002,207.353125,62.0,86.0
1078,207.10000000000002,207.36875,55.0,84.0
1079,207.85000000000002,208.346875,57.0,86.0
1080,208.22500000000002,208.6203125,62.0,113.0
1081,208.22500000000002,208.6203125,66.0,116.0
1082,208.22500000000002,208.6328125,69.0,114.0
1083,208.78750000000002,208.8375,66.0,113.0
1084,208.78750000000002,208.84062500000002,69.0,98.0
1085,208.78750000000002,208.8515625,62.0,98.0
1086,208.97500000000002,209.00625000000002,66.0,90.0
1087,208.60000000000002,209.2265625,57.0,86.0
1088,209.16250000000002,209.5015625,62.0,104.0
1089,209.16250000000002,209.503125,66.0,116.0
1090,209.16250000000002,209.5109375,69.0,113.0
1091,209.35000000000002,209.6171875,57.0,104.0
1092,209.72500000000002,210.17812500000002,69.0,113.0
1093,209.72500000000002,210.2125,62.0,114.0
1094,207.47500000000002,210.2296875,50.0,107.0
1095,210.10000000000002,210.3671875,66.0,113.0
1096,210.10000000000002,210.4640625,57.0,90.0
1097,210.47500000000002,211.0171875,67.0,116.0
1098,210.66250000000002,211.0234375,71.0,74.0
1099,210.47500000000002,211.02812500000002,64.0,96.0
1100,211.22500000000002,211.59843750000002,71.0,108.0
1101,211.22500000000002,211.625,64.0,102.0
1102,211.22500000000002,211.64531250000002,67.0,108.0
1103,211.78750000000002,211.85000000000002,67.0,104.0
1104,211.78750000000002,211.8515625,71.0,94.0
1105,211.78750000000002,211.8671875,64.0,96.0
1106,211.22500000000002,212.24843750000002,59.0,104.0
1107,212.16250000000002,212.53750000000002,71.0,102.0
1108,212.16250000000002,212.5484375,67.0,104.0
1109,212.16250000000002,212.55625,64.0,102.0
1110,212.53750000000002,212.80312500000002,59.0,114.0
1111,210.47500000000002,213.11875,52.0,102.0
1112,212.72500000000002,213.13750000000002,71.0,110.0
1113,212.72500000000002,213.15625,67.0,116.0
1114,212.72500000000002,213.1578125,64.0,116.0
1115,213.10000000000002,213.4609375,59.0,94.0
1116,213.47500000000002,213.925,62.0,96.0
1117,213.47500000000002,213.99062500000002,66.0,95.0
1118,213.47500000000002,213.99843750000002,69.0,92.0
1119,214.22500000000002,214.640625,69.0,92.0
1120,214.22500000000002,214.6875,66.0,95.0
1121,214.22500000000002,214.70781250000002,62.0,91.0
1122,214.78750000000002,214.8546875,66.0,89.0
1123,214.78750000000002,214.859375,69.0,87.0
1124,214.78750000000002,214.87343750000002,62.0,90.0
1125,214.60000000000002,215.19375000000002,59.0,81.0
1126,215.16250000000002,215.54375000000002,69.0,93.0
1127,215.16250000000002,215.56093750000002,66.0,106.0
1128,215.16250000000002,215.5703125,62.0,92.0
1129,215.53750000000002,215.7921875,59.0,108.0
1130,215.72500000000002,216.1125,62.0,110.0
1131,215.72500000000002,216.15468750000002,66.0,119.0
1132,213.47500000000002,216.18437500000002,47.0,89.0
1133,215.72500000000002,216.20625,69.0,108.0
1134,216.10000000000002,216.24843750000002,59.0,88.0
1135,213.85000000000002,216.45000000000002,54.0,78.0
1136,216.47500000000002,216.828125,60.0,98.0
1137,216.47500000000002,216.83437500000002,67.0,108.0
1138,216.47500000000002,216.8359375,64.0,110.0
1139,216.85000000000002,217.425,55.0,76.0
1140,217.22500000000002,217.58437500000002,64.0,108.0
1141,217.22500000000002,217.73281250000002,60.0,93.0
1142,217.22500000000002,217.7734375,67.0,98.0
1143,217.60000000000002,218.08125,55.0,76.0
1144,217.97500000000002,218.3546875,64.0,107.0
1145,217.97500000000002,218.375,67.0,107.0
1146,217.97500000000002,218.3765625,60.0,90.0
1147,218.35000000000002,218.78125,55.0,84.0
1148,216.47500000000002,219.09375,48.0,92.0
1149,218.72500000000002,219.1578125,60.0,110.0
1150,218.72500000000002,219.1671875,67.0,113.0
1151,219.10000000000002,219.42031250000002,64.0,93.0
1152,219.47500000000002,219.84062500000002,69.0,96.0
1153,219.47500000000002,220.009375,66.0,103.0
1154,219.47500000000002,220.01250000000002,62.0,89.0
1155,219.85000000000002,220.42656250000002,54.0,79.0
1156,220.22500000000002,220.603125,66.0,109.0
1157,220.22500000000002,220.609375,69.0,91.0
1158,220.22500000000002,220.6328125,62.0,104.0
1159,220.22500000000002,220.66250000000002,59.0,91.0
1160,219.47500000000002,220.721875,47.0,91.0
1161,220.60000000000002,220.915625,54.0,84.0
1162,220.97500000000002,221.46875,67.0,98.0
1163,220.97500000000002,221.5421875,59.0,100.0
1164,220.97500000000002,221.55312500000002,64.0,110.0
1165,220.97500000000002,221.853125,52.0,98.0
1166,221.72500000000002,222.12343750000002,59.0,102.0
1167,221.72500000000002,222.125,64.0,110.0
1168,221.72500000000002,222.1734375,67.0,93.0
1169,222.10000000000002,222.4546875,52.0,107.0
1170,222.47500000000002,222.884375,64.0,93.0
1171,222.47500000000002,222.94375000000002,67.0,93.0
1172,222.47500000000002,222.96875,57.0,92.0
1173,222.47500000000002,223.009375,60.0,104.0
1174,222.85000000000002,223.33281250000002,52.0,82.0
1175,223.22500000000002,223.5328125,57.0,96.0
1176,223.22500000000002,223.5875,60.0,102.0
1177,223.22500000000002,223.5875,64.0,93.0
1178,223.22500000000002,223.6125,67.0,89.0
1179,223.60000000000002,224.03593750000002,52.0,84.0
1180,222.47500000000002,224.0578125,45.0,92.0
1181,223.97500000000002,224.446875,66.0,106.0
1182,223.97500000000002,224.478125,69.0,100.0
1183,223.97500000000002,224.50468750000002,62.0,104.0
1184,223.97500000000002,224.91093750000002,50.0,88.0
1185,224.72500000000002,225.1515625,69.0,98.0
1186,224.72500000000002,225.175,66.0,116.0
1187,224.72500000000002,225.19218750000002,62.0,98.0
1188,225.10000000000002,225.4609375,50.0,92.0
1189,225.47500000000002,226.1484375,62.0,104.0
1190,225.47500000000002,226.1796875,59.0,98.0
1191,225.47500000000002,226.39531250000002,67.0,88.0
1192,226.22500000000002,227.00468750000002,55.0,87.0
1193,226.60000000000002,227.21718750000002,67.0,98.0
1194,226.60000000000002,227.3125,59.0,93.0
1195,226.60000000000002,227.3390625,62.0,107.0
1196,227.35000000000002,227.84218750000002,55.0,88.0
1197,227.72500000000002,228.103125,57.0,88.0
1198,227.72500000000002,228.12968750000002,62.0,90.0
1199,228.10000000000002,228.15,59.0,83.0
1200,225.47500000000002,228.165625,43.0,88.0
1201,225.85000000000002,228.26250000000002,50.0,81.0
1202,228.47500000000002,228.96718750000002,62.0,110.0
1203,228.47500000000002,228.97343750000002,59.0,96.0
1204,228.47500000000002,229.0078125,66.0,91.0
1205,228.47500000000002,229.2125,47.0,91.0
1206,229.22500000000002,229.70781250000002,59.0,94.0
1207,229.22500000000002,229.721875,62.0,107.0
1208,229.22500000000002,229.85781250000002,66.0,95.0
1209,229.60000000000002,229.92812500000002,47.0,90.0
1210,229.97500000000002,230.5328125,67.0,98.0
1211,229.97500000000002,230.59375,59.0,94.0
1212,229.97500000000002,230.6109375,62.0,108.0
1213,229.97500000000002,230.8625,55.0,92.0
1214,230.72500000000002,231.109375,59.0,93.0
1215,230.72500000000002,231.18593750000002,62.0,100.0
1216,230.72500000000002,231.22343750000002,67.0,92.0
1217,231.10000000000002,231.4328125,55.0,88.0
1218,231.47500000000002,232.034375,69.0,98.0
1219,231.47500000000002,232.07656250000002,62.0,108.0
1220,231.47500000000002,232.0859375,66.0,103.0
1221,231.47500000000002,232.315625,50.0,87.0
1222,232.22500000000002,232.7890625,66.0,109.0
1223,232.22500000000002,232.8140625,69.0,100.0
1224,232.22500000000002,232.815625,62.0,114.0
1225,232.60000000000002,233.24375,50.0,96.0
1226,232.97500000000002,233.55156250000002,66.0,100.0
1227,232.97500000000002,233.55937500000002,69.0,92.0
1228,232.97500000000002,233.571875,62.0,104.0
1229,233.53750000000002,233.73281250000002,50.0,114.0
1230,233.72500000000002,234.15,66.0,119.0
1231,233.72500000000002,234.15625,69.0,110.0
1232,233.72500000000002,234.17031250000002,62.0,119.0
1233,234.10000000000002,234.4,50.0,104.0
1234,234.47500000000002,234.88906250000002,47.0,88.0
1235,234.47500000000002,235.0265625,66.0,113.0
1236,234.47500000000002,235.0421875,62.0,116.0
1237,234.47500000000002,235.05312500000002,59.0,104.0
1238,235.22500000000002,235.7296875,66.0,116.0
1239,235.22500000000002,235.73125000000002,62.0,117.0
1240,235.22500000000002,235.73906250000002,59.0,107.0
1241,235.78750000000002,235.84843750000002,62.0,96.0
1242,235.78750000000002,235.8625,66.0,91.0
1243,235.78750000000002,235.87187500000002,59.0,89.0
1244,235.03750000000002,236.34218750000002,47.0,89.0
1245,236.16250000000002,236.5390625,66.0,109.0
1246,236.16250000000002,236.54375000000002,62.0,114.0
1247,236.16250000000002,236.5484375,59.0,100.0
1248,236.53750000000002,236.8234375,47.0,98.0
1249,236.72500000000002,237.203125,66.0,123.0
1250,236.72500000000002,237.20625,59.0,116.0
1251,236.72500000000002,237.3375,62.0,120.0
1252,237.10000000000002,237.43125,47.0,102.0
1253,237.47500000000002,237.93593750000002,67.0,114.0
1254,237.47500000000002,237.9640625,60.0,110.0
1255,237.47500000000002,238.003125,64.0,120.0
1256,237.47500000000002,238.440625,48.0,107.0
1257,238.22500000000002,238.67656250000002,67.0,108.0
1258,238.22500000000002,238.70781250000002,64.0,117.0
1259,238.22500000000002,238.71718750000002,60.0,107.0
1260,238.78750000000002,238.859375,64.0,104.0
1261,238.78750000000002,238.8671875,67.0,98.0
1262,238.78750000000002,238.875,60.0,93.0
1263,238.97500000000002,239.0171875,64.0,88.0
1264,238.60000000000002,239.3234375,48.0,92.0
1265,239.16250000000002,239.55156250000002,67.0,110.0
1266,239.16250000000002,239.56718750000002,64.0,117.0
1267,239.16250000000002,239.56875000000002,60.0,108.0
1268,239.53750000000002,239.77968750000002,48.0,119.0
1269,239.72500000000002,240.0953125,60.0,114.0
1270,239.72500000000002,240.2046875,67.0,114.0
1271,239.72500000000002,240.28593750000002,64.0,119.0
1272,240.10000000000002,240.39531250000002,48.0,114.0
1273,240.47500000000002,240.96718750000002,62.0,110.0
1274,240.47500000000002,240.97343750000002,59.0,96.0
1275,240.47500000000002,241.0078125,66.0,91.0
1276,240.47500000000002,241.2125,47.0,91.0
1277,241.22500000000002,241.70781250000002,59.0,94.0
1278,241.22500000000002,241.721875,62.0,107.0
1279,241.22500000000002,241.85781250000002,66.0,95.0
1280,241.60000000000002,241.92812500000002,47.0,90.0
1281,241.97500000000002,242.5328125,67.0,98.0
1282,241.97500000000002,242.59375,59.0,94.0
1283,241.97500000000002,242.6109375,62.0,108.0
1284,241.97500000000002,242.8625,55.0,92.0
1285,242.72500000000002,243.109375,59.0,93.0
1286,242.72500000000002,243.18593750000002,62.0,100.0
1287,242.72500000000002,243.22343750000002,67.0,92.0
1288,243.10000000000002,243.4328125,55.0,88.0
1289,243.47500000000002,244.034375,69.0,98.0
1290,243.47500000000002,244.07656250000002,62.0,108.0
1291,243.47500000000002,244.0859375,66.0,103.0
1292,243.47500000000002,244.315625,50.0,87.0
1293,244.22500000000002,244.7890625,66.0,109.0
1294,244.22500000000002,244.8140625,69.0,100.0
1295,244.22500000000002,244.815625,62.0,114.0
1296,244.60000000000002,245.24375,50.0,96.0
1297,244.97500000000002,245.55156250000002,66.0,100.0
1298,244.97500000000002,245.55937500000002,69.0,92.0
1299,244.97500000000002,245.571875,62.0,104.0
1300,245.53750000000002,245.73281250000002,50.0,114.0
1301,245.72500000000002,246.15,66.0,119.0
1302,245.72500000000002,246.15625,69.0,110.0
1303,245.72500000000002,246.17031250000002,62.0,119.0
1304,246.10000000000002,246.4,50.0,104.0
1305,246.47500000000002,246.88906250000002,47.0,88.0
1306,246.47500000000002,247.0265625,66.0,113.0
1307,246.47500000000002,247.0421875,62.0,116.0
1308,246.47500000000002,247.05312500000002,59.0,104.0
1309,247.22500000000002,247.7296875,66.0,116.0
1310,247.22500000000002,247.73125000000002,62.0,117.0
1311,247.22500000000002,247.73906250000002,59.0,107.0
1312,247.78750000000002,247.84843750000002,62.0,96.0
1313,247.78750000000002,247.8625,66.0,91.0
1314,247.78750000000002,247.87187500000002,59.0,89.0
1315,247.03750000000002,248.34218750000002,47.0,89.0
1316,248.16250000000002,248.5390625,66.0,109.0
1317,248.16250000000002,248.54375000000002,62.0,114.0
1318,248.16250000000002,248.5484375,59.0,100.0
1319,248.53750000000002,248.8234375,47.0,98.0
1320,248.72500000000002,249.203125,66.0,123.0
1321,248.72500000000002,249.20625,59.0,116.0
1322,248.72500000000002,249.3375,62.0,120.0
1323,249.10000000000002,249.43125,47.0,102.0
1324,249.47500000000002,249.93593750000002,67.0,114.0
1325,249.47500000000002,249.9640625,60.0,110.0
1326,249.47500000000002,250.003125,64.0,120.0
1327,249.47500000000002,250.440625,48.0,107.0
1328,250.22500000000002,250.67656250000002,67.0,108.0
1329,250.22500000000002,250.70781250000002,64.0,117.0
1330,250.22500000000002,250.71718750000002,60.0,107.0
1331,250.78750000000002,250.859375,64.0,104.0
1332,250.78750000000002,250.8671875,67.0,98.0
1333,250.78750000000002,250.875,60.0,93.0
1334,250.97500000000002,251.0171875,64.0,88.0
1335,250.60000000000002,251.3234375,48.0,92.0
1336,251.16250000000002,251.55156250000002,67.0,110.0
1337,251.16250000000002,251.56718750000002,64.0,117.0
1338,251.16250000000002,251.56875000000002,60.0,108.0
1339,251.53750000000002,251.77968750000002,48.0,119.0
1340,251.72500000000002,252.0953125,60.0,114.0
1341,251.72500000000002,252.2046875,67.0,114.0
1342,251.72500000000002,252.28593750000002,64.0,119.0
1343,252.10000000000002,252.39531250000002,48.0,114.0
