,start,end,pitch,velocity
0,17.982752608333332,18.22367855,79.0,68.0
1,18.224686608333332,18.465612549999996,79.0,66.0
2,18.46662060833333,18.70855460833333,79.0,64.0
3,18.70855460833333,18.95048860833333,76.0,65.0
4,18.95048860833333,19.19242260833333,74.0,63.0
5,19.19242260833333,19.91822460833333,76.0,87.0
6,19.91822460833333,20.159150549999996,74.0,90.0
7,20.16015860833333,20.401084549999997,74.0,82.0
8,20.40209260833333,20.64402660833333,74.0,74.0
9,20.64402660833333,20.88596060833333,72.0,64.0
10,20.88596060833333,21.12789460833333,71.0,58.0
11,21.12789460833333,22.09563060833333,72.0,63.0
12,22.09563060833333,22.33756460833333,67.0,66.0
13,22.33756460833333,22.578490549999998,72.0,54.0
14,22.57949860833333,23.062358549999995,72.0,62.0
15,23.06336660833333,23.304292549999996,72.0,56.0
16,23.30530060833333,23.54723460833333,72.0,62.0
17,23.54723460833333,24.997830549999996,69.0,56.0
18,24.99883860833333,25.24077260833333,67.0,60.0
19,25.24077260833333,25.48270660833333,76.0,66.0
20,25.500851658333332,27.92019165833333,69.0,55.0
21,27.90204660833333,27.92019165833333,69.0,57.0
22,28.38591460833333,28.626840549999997,72.0,66.0
23,28.62784860833333,28.86978260833333,72.0,66.0
24,28.86978260833333,29.111716608333328,74.0,63.0
25,29.111716608333328,29.35365060833333,76.0,66.0
26,29.35365060833333,29.594576549999996,74.0,50.0
27,29.59558460833333,29.83751860833333,74.0,58.0
28,29.83751860833333,30.07945260833333,72.0,53.0
29,30.07945260833333,30.32138660833333,69.0,49.0
30,30.32138660833333,30.563320608333328,72.0,53.0
31,30.563320608333328,30.804246549999995,74.0,56.0
32,30.80525460833333,33.22459460833333,74.0,68.0
33,33.22459460833333,33.46652860833333,67.0,62.0
34,33.46652860833333,33.707454549999994,79.0,61.0
35,33.70846260833333,33.949388549999995,79.0,60.0
36,33.95039660833333,34.19233060833333,79.0,65.0
37,34.19233060833333,34.433256549999996,76.0,56.0
38,34.43426460833333,34.675190549999996,76.0,62.0
39,34.67619860833333,35.16006660833333,76.0,68.0
40,35.16006660833333,35.40099255,74.0,64.0
41,35.40200060833333,35.64292655,74.0,59.0
42,35.64393460833333,35.88486054999999,74.0,55.0
43,35.885868608333325,36.127802608333326,74.0,56.0
44,36.127802608333326,36.369736608333326,72.0,47.0
45,36.369736608333326,36.61167060833333,71.0,56.0
46,36.61167060833333,37.578398549999996,72.0,64.0
47,37.57940660833333,37.82134060833333,72.0,84.0
48,37.82134060833333,38.06327460833333,71.0,73.0
49,38.06327460833333,38.54714260833333,64.0,51.0
50,38.54714260833333,39.272944608333326,74.0,68.0
51,39.272944608333326,39.514878608333326,72.0,84.0
52,39.514878608333326,40.24068060833333,71.0,87.0
53,40.24068060833333,40.48261460833333,72.0,63.0
54,40.48261460833333,41.934218608333325,69.0,76.0
55,41.934218608333325,42.176152608333325,64.0,52.0
56,42.176152608333325,42.418086608333326,67.0,56.0
57,42.418086608333326,42.660020608333326,64.0,55.0
58,42.660020608333326,42.90195460833333,67.0,41.0
59,42.90195460833333,43.38582260833333,64.0,53.0
60,43.38582260833333,43.86969060833333,62.0,51.0
61,43.86969060833333,44.35355860833333,60.0,52.0
62,44.35355860833333,44.59549260833333,57.0,48.0
63,44.59549260833333,44.83742660833333,64.0,52.0
64,44.83742660833333,47.49870060833333,62.0,62.0
65,47.49870060833333,47.74063460833333,64.0,92.0
66,47.74063460833333,47.982568608333324,62.0,66.0
67,47.982568608333324,48.224502608333324,60.0,57.0
68,48.224502608333324,52.57931460833333,62.0,68.0
69,52.57931460833333,52.820240549999994,69.0,81.0
70,52.82124860833333,53.062174549999995,69.0,69.0
71,53.06318260833333,53.304108549999995,69.0,68.0
72,53.30511660833333,53.546042549999996,69.0,77.0
73,53.54705060833333,54.02991054999999,69.0,85.0
74,54.03091860833332,54.272852608333324,69.0,91.0
75,54.272852608333324,54.635753608333324,71.0,92.0
76,54.635753608333324,54.998654608333325,72.0,72.0
77,54.998654608333325,55.23958054999999,71.0,85.0
78,55.240588608333326,55.482522608333326,71.0,84.0
79,55.482522608333326,56.207316549999994,67.0,87.0
80,56.20832460833333,56.69219260833333,67.0,97.0
81,56.69219260833333,56.93412660833332,69.0,97.0
82,56.93412660833332,57.659928608333324,67.0,91.0
83,57.659928608333324,57.901862608333325,62.0,64.0
84,57.901862608333325,60.32019454999999,64.0,90.0
85,60.32120260833332,60.56212854999999,64.0,84.0
86,60.56313660833332,60.80406254999999,64.0,83.0
87,60.805070608333324,61.04599654999999,64.0,73.0
88,61.047004608333324,61.28793054999999,64.0,79.0
89,61.288938608333325,61.52986454999999,64.0,75.0
90,61.530872608333326,61.77179854999999,64.0,73.0
91,61.772806608333326,62.01474060833333,64.0,69.0
92,62.01474060833333,62.37764160833333,67.0,92.0
93,62.37764160833333,62.74054260833333,64.0,80.0
94,62.74054260833333,63.22441060833332,62.0,62.0
95,63.22441060833332,63.70727054999999,60.0,82.0
96,63.70827860833332,63.950212608333324,60.0,66.0
97,63.950212608333324,64.19113854999999,69.0,94.0
98,64.19214660833333,64.91694054999999,69.0,100.0
99,64.91794860833332,65.28084960833333,69.0,97.0
100,65.28084960833333,65.64375060833332,72.0,91.0
101,65.64375060833332,65.88568460833332,69.0,98.0
102,65.88568460833332,68.54695860833333,74.0,90.0
103,68.54695860833333,68.78889260833333,67.0,66.0
104,68.78889260833333,69.27276060833333,79.0,69.0
105,69.27276060833333,69.75662860833333,76.0,84.0
106,69.75662860833333,69.99856260833333,74.0,64.0
107,69.99856260833333,70.23948854999999,72.0,56.0
108,70.24049660833333,70.48243060833333,72.0,68.0
109,70.48243060833333,70.72436460833332,69.0,64.0
110,70.72436460833332,70.96629860833332,72.0,66.0
111,70.96629860833332,71.20722454999999,74.0,56.0
112,71.20823260833332,71.44915854999999,74.0,69.0
113,71.45016660833332,72.90177060833332,74.0,79.0
114,72.90177060833332,73.38563860833332,76.0,92.0
115,73.38563860833332,73.62656454999998,74.0,77.0
116,73.62757260833332,73.86950660833332,74.0,66.0
117,73.86950660833332,74.11043254999998,72.0,66.0
118,74.11144060833333,74.35337460833333,72.0,65.0
119,74.35337460833333,74.59530860833333,69.0,57.0
120,74.59530860833333,74.83724260833333,72.0,54.0
121,74.83724260833333,75.07917660833333,74.0,66.0
122,75.07917660833333,75.32010254999999,76.0,79.0
123,75.32111060833333,77.01464860833332,76.0,92.0
124,77.01464860833332,77.25658260833332,72.0,89.0
125,77.25658260833332,77.49851660833332,69.0,61.0
126,77.49851660833332,77.73944254999999,72.0,83.0
127,77.74045060833332,77.98238460833332,72.0,73.0
128,77.98238460833332,78.22431860833332,74.0,77.0
129,78.22431860833332,79.19205460833332,72.0,90.0
130,79.19205460833332,79.43298055,67.0,92.0
131,79.43398860833332,79.67592260833332,67.0,90.0
132,79.67592260833332,79.91785660833332,69.0,74.0
133,79.91785660833332,80.15878254999998,72.0,95.0
134,80.15979060833332,80.88458454999999,72.0,101.0
135,80.88559260833333,81.12651854999999,72.0,87.0
136,81.12752660833333,81.36946060833333,72.0,85.0
137,81.36946060833333,81.61139460833333,76.0,84.0
138,81.61139460833333,81.85232054999999,74.0,71.0
139,81.85332860833333,82.09425454999999,74.0,69.0
140,82.09526260833333,82.33719660833333,74.0,77.0
141,82.33719660833333,82.57812254999999,72.0,76.0
142,82.57913060833333,82.82106460833332,72.0,69.0
143,82.82106460833332,83.06199054999999,74.0,86.0
144,83.06299860833332,84.51460260833332,74.0,91.0
145,84.51460260833332,84.75653660833332,67.0,76.0
146,84.75653660833332,84.99847060833332,79.0,75.0
147,84.99847060833332,85.24040460833332,76.0,66.0
148,85.24040460833332,85.48233860833332,74.0,54.0
149,85.48233860833332,85.72326454999998,72.0,50.0
150,85.72427260833332,85.96620660833332,72.0,62.0
151,85.96620660833332,86.20814060833332,69.0,54.0
152,86.20814060833332,86.45007460833332,72.0,42.0
153,86.45007460833332,86.69100054999998,74.0,64.0
154,86.69200860833332,86.93293454999998,74.0,58.0
155,86.93394260833333,88.38554660833333,74.0,66.0
156,88.38554660833333,88.86941460833332,76.0,87.0
157,88.86941460833332,89.11034054999999,79.0,84.0
158,89.11134860833332,89.35227454999999,79.0,90.0
159,89.35328260833332,89.59521660833332,79.0,87.0
160,89.59521660833332,89.83715060833332,76.0,60.0
161,89.83715060833332,90.07807654999999,74.0,63.0
162,90.07908460833332,90.32101860833332,74.0,66.0
163,90.32101860833332,90.56295260833332,76.0,80.0
164,90.56295260833332,90.80387855,79.0,71.0
165,90.80488660833332,92.49842460833332,79.0,87.0
166,92.49842460833332,92.73935054999998,72.0,63.0
167,92.74035860833332,92.98229260833332,72.0,66.0
168,92.98229260833332,93.22422660833332,69.0,61.0
169,93.22422660833332,93.46616060833333,72.0,56.0
170,93.46616060833333,93.70708654999999,69.0,53.0
171,93.70809460833333,94.67583060833333,69.0,77.0
172,94.67583060833333,94.91776460833331,67.0,53.0
173,94.91776460833331,95.15969860833331,79.0,54.0
174,95.15969860833331,95.40163260833332,76.0,52.0
175,95.40163260833332,95.64356660833332,74.0,52.0
176,95.64356660833332,96.36936860833332,76.0,66.0
177,96.36936860833332,96.61130260833332,69.0,65.0
178,96.61130260833332,96.85323660833332,72.0,69.0
179,96.85323660833332,97.09517060833332,69.0,69.0
180,97.09517060833332,97.82097260833332,72.0,62.0
181,97.82097260833332,98.06290660833332,76.0,53.0
182,98.06290660833332,98.30484060833332,74.0,53.0
183,98.30484060833332,98.54677460833332,72.0,54.0
184,98.54677460833332,99.75644460833333,74.0,87.0
185,99.75644460833333,100.24031260833333,72.0,97.0
186,100.24031260833333,100.72418060833333,69.0,72.0
187,100.72418060833333,102.65965260833332,72.0,105.0
188,122.25630660833332,122.49824060833332,67.0,62.0
189,122.49824060833332,122.73916654999998,79.0,61.0
190,122.74017460833332,122.98110054999998,79.0,60.0
191,122.98210860833332,123.22404260833332,79.0,65.0
192,123.22404260833332,123.46496854999998,76.0,56.0
193,123.46597660833332,123.70690254999998,76.0,62.0
194,123.70791060833332,124.19177860833332,76.0,68.0
195,124.19177860833332,124.43270454999998,74.0,64.0
196,124.43371260833332,124.67463854999998,74.0,59.0
197,124.67564660833332,124.91657254999998,74.0,55.0
198,124.91758060833331,125.15951460833331,74.0,56.0
199,125.15951460833331,125.40144860833331,72.0,47.0
200,125.40144860833331,125.64338260833331,71.0,56.0
201,125.64338260833331,126.61011054999999,72.0,64.0
202,126.61111860833331,126.85305260833331,72.0,84.0
203,126.85305260833331,127.33692060833332,71.0,73.0
204,127.33692060833332,127.57885460833332,64.0,51.0
205,127.57885460833332,128.30465660833332,74.0,68.0
206,128.30465660833332,128.5465906083333,72.0,84.0
207,128.5465906083333,129.27239260833332,71.0,87.0
208,129.27239260833332,129.5143266083333,72.0,63.0
209,129.5143266083333,130.9659306083333,69.0,76.0
210,130.9659306083333,131.20786460833332,64.0,52.0
211,131.20786460833332,131.4497986083333,67.0,56.0
212,131.4497986083333,131.69173260833333,64.0,55.0
213,131.69173260833333,131.9336666083333,67.0,41.0
214,131.9336666083333,132.4175346083333,64.0,53.0
215,132.4175346083333,132.9014026083333,62.0,51.0
216,132.9014026083333,133.38527060833331,60.0,52.0
217,133.38527060833331,133.62720460833333,57.0,48.0
218,133.62720460833333,133.86913860833332,64.0,52.0
219,133.86913860833332,136.5304126083333,62.0,62.0
220,136.5304126083333,136.77234660833332,64.0,92.0
221,136.77234660833332,137.0142806083333,62.0,66.0
222,137.0142806083333,137.25621460833332,60.0,57.0
223,137.25621460833332,141.6110266083333,62.0,68.0
224,141.6110266083333,141.85195255,69.0,81.0
225,141.85296060833332,142.09388654999998,69.0,69.0
226,142.0948946083333,142.33582055,69.0,68.0
227,142.33682860833332,142.57775454999998,69.0,77.0
228,142.5787626083333,143.06162254999998,69.0,85.0
229,143.0626306083333,143.30456460833332,69.0,91.0
230,143.30456460833332,143.66746560833332,71.0,92.0
231,143.66746560833332,144.0303666083333,72.0,72.0
232,144.0303666083333,144.27129254999997,71.0,85.0
233,144.27230060833332,144.5142346083333,71.0,84.0
234,144.5142346083333,145.23902854999997,67.0,87.0
235,145.24003660833333,145.72390460833333,67.0,97.0
236,145.72390460833333,145.9658386083333,69.0,97.0
237,145.9658386083333,146.57067360833332,67.0,91.0
238,146.57067360833332,146.93357460833332,62.0,64.0
239,146.93357460833332,149.35190654999997,64.0,90.0
240,149.35291460833332,149.59384054999998,64.0,84.0
241,149.5948486083333,149.83577454999997,64.0,83.0
242,149.83678260833332,150.07770854999998,64.0,73.0
243,150.0787166083333,150.31964254999997,64.0,79.0
244,150.32065060833332,150.56157654999998,64.0,75.0
245,150.5625846083333,150.80351054999997,64.0,73.0
246,150.80451860833332,151.0464526083333,64.0,69.0
247,151.0464526083333,151.5303206083333,67.0,92.0
248,151.5303206083333,151.77225460833333,64.0,80.0
249,151.77225460833333,152.2561226083333,62.0,62.0
250,152.2561226083333,152.73898254999997,60.0,82.0
251,152.7399906083333,152.98192460833332,60.0,66.0
252,152.98192460833332,153.22285054999998,69.0,94.0
253,153.2238586083333,153.94865255,69.0,100.0
254,153.94966060833332,154.3125616083333,69.0,97.0
255,154.3125616083333,154.6754626083333,72.0,91.0
256,154.6754626083333,154.91739660833332,69.0,98.0
257,154.91739660833332,157.5786706083333,74.0,90.0
258,157.5786706083333,157.82060460833333,67.0,66.0
259,157.82060460833333,158.3044726083333,79.0,69.0
260,158.3044726083333,158.7883406083333,76.0,84.0
261,158.7883406083333,159.03027460833331,74.0,64.0
262,159.03027460833331,159.27120054999997,72.0,56.0
263,159.2722086083333,159.51414260833332,72.0,68.0
264,159.51414260833332,159.7560766083333,67.0,64.0
265,159.7560766083333,159.99801060833332,72.0,66.0
266,159.99801060833332,160.23893654999998,74.0,56.0
267,160.2399446083333,160.48087055,74.0,69.0
268,160.48187860833332,161.93348260833332,74.0,79.0
269,161.93348260833332,162.41735060833332,76.0,92.0
270,162.41735060833332,162.65827654999998,74.0,77.0
271,162.6592846083333,162.90121860833332,74.0,66.0
272,162.90121860833332,163.14214454999998,72.0,66.0
273,163.1431526083333,163.38508660833332,72.0,65.0
274,163.38508660833332,163.6270206083333,69.0,57.0
275,163.6270206083333,163.86895460833333,72.0,54.0
276,163.86895460833333,164.1108886083333,74.0,66.0
277,164.1108886083333,164.35181454999997,76.0,79.0
278,164.3528226083333,166.04636060833332,76.0,92.0
279,166.04636060833332,166.2882946083333,72.0,89.0
280,166.2882946083333,166.53022860833332,69.0,61.0
281,166.53022860833332,166.77115454999998,72.0,83.0
282,166.7721626083333,167.01409660833332,72.0,73.0
283,167.01409660833332,167.2560306083333,74.0,77.0
284,167.2560306083333,168.2237666083333,72.0,90.0
285,168.2237666083333,168.46469254999997,67.0,92.0
286,168.46570060833332,168.7076346083333,67.0,90.0
287,168.7076346083333,168.94956860833332,69.0,74.0
288,168.94956860833332,169.19049454999998,72.0,95.0
289,169.1915026083333,169.91629654999997,72.0,101.0
290,169.91730460833332,170.15823054999998,72.0,87.0
291,170.1592386083333,170.4011726083333,72.0,85.0
292,170.4011726083333,170.6431066083333,76.0,84.0
293,170.6431066083333,170.88403254999997,74.0,71.0
294,170.8850406083333,171.12596655,74.0,69.0
295,171.1269746083333,171.3689086083333,74.0,77.0
296,171.3689086083333,171.60983455,72.0,76.0
297,171.61084260833331,171.8527766083333,72.0,69.0
298,171.8527766083333,172.09370255,74.0,86.0
299,172.09471060833332,173.4253476083333,74.0,91.0
300,173.4253476083333,173.7882486083333,67.0,76.0
301,173.7882486083333,174.03018260833332,79.0,75.0
302,174.03018260833332,174.2721166083333,76.0,66.0
303,174.20860893333332,174.4505429333333,74.0,54.0
304,174.4505429333333,174.69146887499997,72.0,50.0
305,174.69247693333332,174.9344109333333,72.0,62.0
306,174.9344109333333,175.1763449333333,69.0,54.0
307,175.1763449333333,175.4182789333333,72.0,42.0
308,175.4182789333333,175.65920487499997,74.0,64.0
309,175.6602129333333,175.901138875,74.0,58.0
310,175.9021469333333,177.47471793333332,74.0,66.0
311,177.47471793333332,177.83761893333332,76.0,87.0
312,177.83761893333332,178.07854487499998,79.0,84.0
313,178.0795529333333,178.32047887499996,79.0,90.0
314,178.32148693333332,178.5634209333333,79.0,87.0
315,178.5634209333333,178.80535493333332,76.0,60.0
316,178.80535493333332,179.04628087499998,74.0,63.0
317,179.0472889333333,179.28922293333332,74.0,66.0
318,179.28922293333332,179.5311569333333,76.0,80.0
319,179.5311569333333,179.77208287499997,79.0,71.0
320,179.77309093333332,181.4666289333333,79.0,87.0
321,181.4666289333333,181.70755487499997,72.0,63.0
322,181.7085629333333,181.9504969333333,72.0,66.0
323,181.9504969333333,182.1924309333333,69.0,61.0
324,182.1924309333333,182.4343649333333,72.0,56.0
325,182.4343649333333,182.67529087499997,69.0,53.0
326,182.6762989333333,183.6440349333333,69.0,77.0
327,183.6440349333333,183.88596893333332,67.0,53.0
328,183.88596893333332,184.1279029333333,79.0,54.0
329,184.1279029333333,184.36983693333332,76.0,52.0
330,184.36983693333332,184.6117709333333,74.0,52.0
331,184.6117709333333,185.33757293333332,76.0,66.0
332,185.33757293333332,185.5795069333333,69.0,65.0
333,185.5795069333333,185.82144093333332,72.0,69.0
334,185.82144093333332,186.0633749333333,69.0,69.0
335,186.0633749333333,186.78917693333332,72.0,62.0
336,186.78917693333332,187.0311109333333,76.0,53.0
337,187.0311109333333,187.38997969999997,74.0,53.0
338,187.2730449333333,187.5149789333333,72.0,54.0
339,187.5149789333333,188.7246489333333,74.0,87.0
340,188.7246489333333,189.2085169333333,72.0,97.0
341,189.2085169333333,189.6923849333333,69.0,72.0
342,189.6923849333333,192.35365893333332,72.0,105.0
343,192.35365893333332,192.5955929333333,67.0,66.0
344,192.5955929333333,193.0794609333333,79.0,69.0
345,193.0794609333333,193.5633289333333,76.0,84.0
346,193.5633289333333,193.8052629333333,74.0,64.0
347,193.8052629333333,194.04618887499998,72.0,56.0
348,194.0471969333333,194.2891309333333,72.0,68.0
349,194.2891309333333,194.5310649333333,69.0,64.0
350,194.5310649333333,194.7729989333333,72.0,66.0
351,194.7729989333333,195.013924875,74.0,56.0
352,195.0149329333333,195.25585887499997,74.0,69.0
353,195.2568669333333,196.7084709333333,74.0,79.0
354,196.7084709333333,197.1923389333333,76.0,92.0
355,197.1923389333333,197.43326487499996,74.0,77.0
356,197.43427293333332,197.6762069333333,74.0,66.0
357,197.6762069333333,197.91713287499996,72.0,66.0
358,197.91814093333332,198.1600749333333,72.0,65.0
359,198.1600749333333,198.40200893333332,69.0,57.0
360,198.40200893333332,198.6439429333333,72.0,54.0
361,198.6439429333333,198.88587693333332,74.0,66.0
362,198.88587693333332,199.12680287499998,76.0,79.0
363,199.1278109333333,200.8213489333333,76.0,92.0
364,200.8213489333333,201.0632829333333,72.0,89.0
365,201.0632829333333,201.3052169333333,69.0,61.0
366,201.3052169333333,201.546142875,72.0,83.0
367,201.5471509333333,201.7890849333333,72.0,73.0
368,201.7890849333333,202.0310189333333,74.0,77.0
369,202.0310189333333,202.99875493333332,72.0,90.0
370,202.99875493333332,203.23968087499998,67.0,92.0
371,203.2406889333333,203.48262293333332,67.0,90.0
372,203.48262293333332,203.7245569333333,69.0,74.0
373,203.7245569333333,203.96548287499996,72.0,95.0
374,203.96649093333332,204.69128487499998,72.0,101.0
375,204.6922929333333,204.93321887499997,72.0,87.0
376,204.93422693333332,205.1761609333333,72.0,85.0
377,205.1761609333333,205.4180949333333,76.0,84.0
378,205.4180949333333,205.65902087499998,74.0,71.0
379,205.6600289333333,205.90095487499997,74.0,69.0
380,205.9019629333333,206.1438969333333,74.0,77.0
381,206.1438969333333,206.38482287499997,72.0,76.0
382,206.3858309333333,206.6277649333333,72.0,69.0
383,206.6277649333333,206.86869087499997,74.0,86.0
384,206.8696989333333,208.2003359333333,74.0,91.0
385,208.2003359333333,208.56323693333331,67.0,76.0
386,208.56323693333331,208.8051709333333,79.0,75.0
387,208.8051709333333,209.04710493333332,76.0,66.0
388,209.04710493333332,209.2890389333333,74.0,54.0
389,209.2890389333333,209.52996487499996,72.0,50.0
390,209.53097293333332,209.7729069333333,72.0,62.0
391,209.7729069333333,210.01484093333332,69.0,54.0
392,210.01484093333332,210.2567749333333,72.0,42.0
393,210.2567749333333,210.49770087499996,74.0,64.0
394,210.49870893333332,210.73963487499998,74.0,58.0
395,210.7406429333333,212.31321393333332,74.0,66.0
396,212.31321393333332,212.6761149333333,76.0,87.0
397,212.6761149333333,212.91704087499997,79.0,84.0
398,212.9180489333333,213.15897487499998,79.0,90.0
399,213.1599829333333,213.4019169333333,79.0,87.0
400,213.4019169333333,213.6438509333333,76.0,60.0
401,213.6438509333333,213.88477687499997,74.0,63.0
402,213.8857849333333,214.1277189333333,74.0,66.0
403,214.1277189333333,214.3696529333333,76.0,80.0
404,214.3696529333333,214.61057887499996,79.0,71.0
405,214.6115869333333,216.3051249333333,79.0,87.0
406,216.3051249333333,216.54605087499996,72.0,63.0
407,216.54705893333332,216.7889929333333,72.0,66.0
408,216.7889929333333,217.03092693333332,69.0,61.0
409,217.03092693333332,217.2728609333333,71.0,50.0
410,217.03092693333332,217.2728609333333,72.0,56.0
411,217.2728609333333,217.51378687499997,69.0,53.0
412,217.5147949333333,218.4825309333333,69.0,77.0
413,218.4825309333333,218.7244649333333,67.0,53.0
414,218.7244649333333,218.9663989333333,79.0,54.0
415,218.9663989333333,219.2083329333333,76.0,52.0
416,219.2083329333333,219.4502669333333,74.0,52.0
417,219.4502669333333,220.1760689333333,76.0,66.0
418,220.1760689333333,220.4180029333333,69.0,65.0
419,220.4180029333333,220.6599369333333,72.0,69.0
420,220.6599369333333,220.9018709333333,69.0,69.0
421,220.9018709333333,221.62767293333332,72.0,62.0
422,221.62767293333332,221.8696069333333,76.0,53.0
423,221.8696069333333,222.11154093333332,74.0,53.0
424,222.11154093333332,222.3534749333333,72.0,54.0
425,222.3534749333333,223.5631449333333,74.0,87.0
426,223.5631449333333,224.0470129333333,72.0,97.0
427,224.0470129333333,224.5308809333333,69.0,72.0
428,224.5308809333333,227.9179569333333,72.0,105.0
429,227.9179569333333,228.15989093333332,69.0,93.0
430,228.15989093333332,228.4018249333333,72.0,110.0
431,228.4018249333333,228.64375893333332,69.0,96.0
432,228.64375893333332,229.3695609333333,72.0,88.0
433,229.3695609333333,229.6114949333333,76.0,66.0
434,229.6114949333333,229.8534289333333,74.0,64.0
435,229.8534289333333,230.0953629333333,72.0,65.0
436,230.0953629333333,233.2405049333333,74.0,85.0
437,233.2405049333333,234.3292079333333,72.0,87.0
438,234.3292079333333,235.17597693333332,69.0,66.0
439,235.17597693333332,235.6598449333333,72.0,66.0
