,start,end,pitch,velocity
0,2.015108608333333,2.4949443749999998,76.0,64.0
1,2.015108608333333,2.765104008333333,71.0,76.0
2,2.015108608333333,2.765104008333333,83.0,76.0
3,2.015108608333333,3.094739083333333,64.0,72.0
4,2.015108608333333,3.122964716666666,67.0,73.0
5,2.015108608333333,3.122964716666666,79.0,73.0
6,3.2247786083333327,3.510059116666666,64.0,70.0
7,2.015108608333333,3.5140913499999997,60.0,66.0
8,2.015108608333333,3.5140913499999997,60.0,72.0
9,2.015108608333333,3.5140913499999997,72.0,66.0
10,2.015108608333333,3.599776308333333,48.0,72.0
11,3.950580608333333,4.642108625,67.0,69.0
12,3.950580608333333,4.642108625,79.0,69.0
13,3.950580608333333,4.688479308333333,71.0,69.0
14,3.950580608333333,4.688479308333333,83.0,69.0
15,3.950580608333333,4.7116646499999995,62.0,63.0
16,3.950580608333333,4.7116646499999995,74.0,63.0
17,3.950580608333333,5.276177316666666,59.0,63.0
18,3.950580608333333,5.276177316666666,59.0,67.0
19,4.918316608333333,5.288274016666666,71.0,60.0
20,4.918316608333333,5.288274016666666,83.0,60.0
21,4.918316608333333,5.3578300416666655,67.0,60.0
22,4.918316608333333,5.3578300416666655,79.0,60.0
23,4.918316608333333,5.381015383333333,62.0,59.0
24,4.918316608333333,5.381015383333333,74.0,59.0
25,3.950580608333333,5.388071791666666,47.0,67.0
26,5.886052608333332,6.446533041666666,64.0,67.0
27,5.886052608333332,6.446533041666666,76.0,67.0
28,5.886052608333332,6.569516158333332,69.0,49.0
29,5.886052608333332,6.569516158333332,81.0,49.0
30,5.886052608333332,7.122940183333332,57.0,49.0
31,6.853788608333333,7.371930591666666,67.0,58.0
32,6.853788608333333,7.371930591666666,79.0,58.0
33,6.853788608333333,7.393099816666665,69.0,56.0
34,7.337656608333332,7.393099816666665,69.0,40.0
35,6.853788608333333,7.393099816666665,81.0,56.0
36,6.853788608333333,7.412252924999999,64.0,63.0
37,6.853788608333333,7.412252924999999,76.0,63.0
38,6.853788608333333,7.420317391666666,60.0,62.0
39,6.853788608333333,7.420317391666666,72.0,62.0
40,5.886052608333332,7.506002349999999,45.0,64.0
41,7.337656608333332,7.517090991666666,57.0,40.0
42,7.821524608333332,8.438456308333333,67.0,61.0
43,7.821524608333332,8.438456308333333,79.0,61.0
44,7.821524608333332,8.481802816666665,64.0,67.0
45,7.821524608333332,8.481802816666665,76.0,67.0
46,7.821524608333332,8.533213791666666,60.0,63.0
47,7.821524608333332,8.533213791666666,72.0,63.0
48,7.821524608333332,8.927364599999999,55.0,42.0
49,7.821524608333332,8.927364599999999,55.0,43.0
50,8.789260608333333,9.027162375,72.0,64.0
51,8.789260608333333,9.027162375,72.0,73.0
52,8.789260608333333,9.210628991666665,67.0,70.0
53,8.789260608333333,9.210628991666665,79.0,70.0
54,7.821524608333332,9.241878799999999,43.0,43.0
55,8.789260608333333,9.293289774999998,60.0,73.0
56,8.789260608333333,9.302362299999999,64.0,75.0
57,8.789260608333333,9.302362299999999,76.0,75.0
58,9.273128608333332,9.392079491666665,55.0,58.0
59,9.756996608333331,9.994898374999998,72.0,64.0
60,9.756996608333331,9.994898374999998,72.0,69.0
61,9.756996608333331,10.476750258333333,60.0,69.0
62,9.756996608333331,10.519088708333332,65.0,63.0
63,9.756996608333331,10.519088708333332,65.0,69.0
64,9.756996608333331,10.519088708333332,77.0,69.0
65,9.756996608333331,10.525137058333332,67.0,64.0
66,9.756996608333331,10.525137058333332,69.0,63.0
67,9.756996608333331,10.525137058333332,79.0,64.0
68,9.756996608333331,10.525137058333332,81.0,63.0
69,9.756996608333331,11.018077583333332,53.0,63.0
70,10.724732608333332,11.018077583333332,65.0,72.0
71,10.724732608333332,11.113843124999999,60.0,67.0
72,10.724732608333332,11.113843124999999,72.0,67.0
73,10.724732608333332,11.123923708333331,67.0,69.0
74,10.724732608333332,11.123923708333331,79.0,69.0
75,10.724732608333332,11.137028466666665,69.0,69.0
76,10.724732608333332,11.137028466666665,81.0,69.0
77,10.724732608333332,11.144084874999999,77.0,72.0
78,11.208600608333333,11.3225112,53.0,63.0
79,11.208600608333333,11.3225112,65.0,63.0
80,11.692468608333332,12.175328549999998,79.0,59.0
81,11.692468608333332,12.257989333333331,59.0,66.0
82,11.692468608333332,12.257989333333331,71.0,66.0
83,11.692468608333332,12.269077974999998,62.0,63.0
84,11.692468608333332,12.269077974999998,74.0,63.0
85,11.692468608333332,12.827542291666665,55.0,50.0
86,12.418270608333332,12.827542291666665,55.0,44.0
87,12.660204608333332,13.150120958333332,67.0,70.0
88,12.660204608333332,13.150120958333332,79.0,70.0
89,11.692468608333332,13.186411058333332,43.0,50.0
90,13.144072608333332,13.186411058333332,55.0,56.0
91,12.660204608333332,13.191451349999998,62.0,72.0
92,12.660204608333332,13.191451349999998,74.0,72.0
93,12.660204608333332,13.219676983333331,59.0,69.0
94,12.660204608333332,13.219676983333331,71.0,69.0
95,13.627940608333331,14.091647441666664,64.0,72.0
96,13.627940608333331,14.091647441666664,76.0,72.0
97,13.627940608333331,14.092655499999998,57.0,67.0
98,13.627940608333331,14.092655499999998,69.0,67.0
99,13.627940608333331,14.125921424999998,60.0,73.0
100,13.869874608333332,14.125921424999998,60.0,48.0
101,13.627940608333331,14.125921424999998,72.0,73.0
102,13.627940608333331,14.903134399999997,53.0,67.0
103,14.111808608333332,14.903134399999997,53.0,49.0
104,14.111808608333332,14.903134399999997,65.0,49.0
105,14.35374260833333,14.946480908333331,57.0,82.0
106,14.35374260833333,14.946480908333331,69.0,82.0
107,14.837610608333332,15.241841999999998,60.0,75.0
108,14.837610608333332,15.241841999999998,72.0,75.0
109,13.869874608333332,15.350712299999998,48.0,48.0
110,14.837610608333332,15.350712299999998,64.0,72.0
111,14.837610608333332,15.350712299999998,76.0,72.0
112,13.627940608333331,15.368857349999997,41.0,67.0
113,15.321478608333331,15.368857349999997,53.0,48.0
114,15.321478608333331,15.439421433333331,65.0,48.0
115,15.07954460833333,15.559380374999998,79.0,64.0
116,15.563412608333332,16.380947916666663,59.0,73.0
117,15.563412608333332,16.380947916666663,71.0,73.0
118,15.563412608333332,16.523084141666665,62.0,75.0
119,15.563412608333332,16.523084141666665,74.0,75.0
120,15.563412608333332,16.585583758333332,67.0,64.0
121,15.563412608333332,16.585583758333332,79.0,64.0
122,15.563412608333332,17.49888460833333,43.0,69.0
123,15.563412608333332,17.49888460833333,55.0,69.0
124,17.49888460833333,18.02206688333333,67.0,55.0
125,17.49888460833333,18.024082999999997,60.0,46.0
126,17.49888460833333,18.024082999999997,64.0,46.0
127,17.49888460833333,18.866819766666666,48.0,44.0
128,17.49888460833333,18.866819766666666,55.0,44.0
129,18.46662060833333,18.88698093333333,64.0,56.0
130,19.43435660833333,19.9716517,62.0,43.0
131,19.43435660833333,19.988788691666663,67.0,44.0
132,19.43435660833333,20.69846175833333,59.0,44.0
133,20.40209260833333,20.775074191666665,67.0,49.0
134,19.43435660833333,20.818420699999997,47.0,45.0
135,19.43435660833333,20.818420699999997,55.0,45.0
136,21.369828608333332,21.99885700833333,60.0,48.0
137,21.369828608333332,22.015993999999996,57.0,43.0
138,21.369828608333332,22.02305040833333,64.0,49.0
139,21.369828608333332,22.74582823333333,45.0,42.0
140,21.369828608333332,22.74582823333333,52.0,42.0
141,22.33756460833333,22.826472899999995,64.0,55.0
142,23.32646983333333,24.535131774999996,54.0,47.0
143,23.33251818333333,24.564365466666665,60.0,59.0
144,23.312357016666663,24.567389641666665,42.0,58.0
145,23.331510124999998,24.585534691666663,57.0,49.0
146,23.330502066666664,24.595615274999997,64.0,55.0
147,25.24077260833333,25.850647899999995,60.0,63.0
148,25.24077260833333,25.861736541666662,64.0,54.0
149,25.24077260833333,25.885929941666664,57.0,54.0
150,26.20850860833333,26.708505541666664,64.0,40.0
151,25.24077260833333,26.732698941666662,53.0,47.0
152,26.20850860833333,26.741771466666663,60.0,44.0
153,26.20850860833333,26.753868166666663,57.0,37.0
154,25.24077260833333,26.757900399999997,41.0,53.0
155,27.17624460833333,27.872812916666664,62.0,52.0
156,27.17624460833333,27.93833670833333,59.0,53.0
157,27.17624460833333,27.954465641666662,55.0,48.0
158,28.14398060833333,28.577445691666664,55.0,49.0
159,28.14398060833333,28.584502099999995,59.0,51.0
160,27.17624460833333,28.62180025833333,52.0,39.0
161,28.14398060833333,28.674219291666663,62.0,54.0
162,27.17624460833333,28.675227349999997,40.0,44.0
163,29.111716608333328,29.73469665833333,62.0,50.0
164,29.111716608333328,29.75384976666666,57.0,62.0
165,29.111716608333328,29.78610763333333,53.0,55.0
166,29.111716608333328,30.42118438333333,38.0,57.0
167,29.111716608333328,30.50989351666666,50.0,51.0
168,30.07945260833333,30.528038566666662,62.0,53.0
169,30.07945260833333,30.559288374999998,57.0,60.0
170,30.07945260833333,30.588522066666663,53.0,54.0
171,31.04718860833333,31.522992141666663,67.0,50.0
172,31.04718860833333,31.568354766666662,62.0,61.0
173,31.04718860833333,31.57339505833333,59.0,52.0
174,32.01492460833333,32.43629299166666,62.0,60.0
175,32.01492460833333,32.482663675,67.0,51.0
176,32.01492460833333,32.493752316666665,59.0,48.0
177,31.04718860833333,32.634880483333326,43.0,44.0
178,32.49879260833333,32.634880483333326,43.0,49.0
179,31.04718860833333,32.634880483333326,50.0,44.0
180,32.74072660833333,33.05423275,55.0,56.0
181,32.982660608333326,33.34253743333333,60.0,66.0
182,32.982660608333326,33.37882753333333,64.0,67.0
183,33.46652860833333,33.99575923333333,55.0,32.0
184,33.95039660833333,34.373781108333326,67.0,62.0
185,33.95039660833333,34.41309538333333,60.0,53.0
186,33.95039660833333,34.456441891666664,62.0,58.0
187,32.982660608333326,34.460474125,48.0,63.0
188,33.95039660833333,34.480635291666665,64.0,62.0
189,34.43426460833333,34.90906008333333,55.0,40.0
190,34.91813260833333,35.42720206666666,67.0,66.0
191,34.91813260833333,35.44433905833333,62.0,59.0
192,35.40200060833333,35.96147298333333,55.0,40.0
193,35.885868608333325,36.23163261666666,59.0,54.0
194,35.885868608333325,36.25380989999999,67.0,64.0
195,35.885868608333325,36.25582601666666,62.0,55.0
196,36.127802608333326,36.432236225,55.0,63.0
197,34.91813260833333,36.434252341666664,47.0,62.0
198,36.369736608333326,36.64896876666666,69.0,63.0
199,36.61167060833333,36.823362858333326,71.0,57.0
200,36.85360460833333,37.427189799999994,72.0,57.0
201,36.85360460833333,37.47658465833333,64.0,48.0
202,36.85360460833333,37.52295534166666,67.0,56.0
203,37.33747260833333,37.884848283333326,52.0,40.0
204,37.82134060833333,38.32032948333333,57.0,47.0
205,36.85360460833333,38.33141812499999,45.0,66.0
206,37.82134060833333,38.367708224999994,67.0,64.0
207,37.82134060833333,38.37274851666666,64.0,62.0
208,37.82134060833333,38.64290815,72.0,69.0
209,38.30520860833333,38.85560845833333,52.0,50.0
210,38.78907660833333,39.42818559166666,62.0,62.0
211,38.78907660833333,39.493709383333325,71.0,64.0
212,38.78907660833333,39.565281524999996,67.0,62.0
213,38.78907660833333,39.95741621666666,55.0,51.0
214,39.75681260833333,40.17918905,67.0,72.0
215,39.75681260833333,40.22354361666666,71.0,69.0
216,39.75681260833333,40.266890124999996,62.0,67.0
217,38.78907660833333,40.44229227499999,43.0,62.0
218,40.24068060833333,40.46144538333333,55.0,50.0
219,40.72454860833333,41.38180264166666,60.0,66.0
220,40.72454860833333,41.38583487499999,65.0,66.0
221,40.72454860833333,41.41406050833333,72.0,36.0
222,40.72454860833333,41.48160041666666,69.0,55.0
223,40.72454860833333,41.95639589166666,53.0,61.0
224,41.69228460833333,42.22252329166666,65.0,64.0
225,41.69228460833333,42.23159581666666,60.0,60.0
226,41.69228460833333,42.261837566666664,72.0,48.0
227,41.69228460833333,42.29611154999999,69.0,53.0
228,40.72454860833333,42.353570874999996,41.0,66.0
229,42.176152608333325,42.368691749999996,53.0,48.0
230,42.660020608333326,43.14489666666666,52.0,48.0
231,42.660020608333326,43.39489513333333,64.0,60.0
232,42.660020608333326,43.41102406666666,72.0,62.0
233,42.660020608333326,43.412032124999996,67.0,61.0
234,42.660020608333326,43.81928769166666,40.0,63.0
235,43.38582260833333,43.82936827499999,52.0,40.0
236,43.62775660833333,44.14388247499999,67.0,70.0
237,43.62775660833333,44.144890533333324,64.0,69.0
238,43.62775660833333,44.169083933333326,72.0,66.0
239,44.11162460833333,44.57835561666666,39.0,66.0
240,44.59549260833333,45.11867488333333,50.0,55.0
241,44.59549260833333,45.27391586666666,65.0,64.0
242,44.59549260833333,45.298109266666664,62.0,61.0
243,44.59549260833333,45.321294608333325,69.0,60.0
244,44.59549260833333,45.35254441666666,72.0,58.0
245,45.321294608333325,45.73056629166666,50.0,41.0
246,44.59549260833333,46.07532224166666,38.0,63.0
247,45.563228608333326,46.249716333333325,65.0,63.0
248,46.04709660833333,46.26080497499999,50.0,41.0
249,45.563228608333326,46.291046724999994,62.0,55.0
250,45.563228608333326,46.30112730833333,69.0,62.0
251,45.563228608333326,46.36261886666666,72.0,48.0
252,46.28903060833333,46.49669062499999,40.0,35.0
253,46.53096460833333,47.18821864166666,69.0,59.0
254,46.53096460833333,47.19124281666666,72.0,37.0
255,46.53096460833333,47.208379808333326,65.0,69.0
256,46.53096460833333,47.27793583333333,60.0,66.0
257,47.49870060833333,47.779948883333326,60.0,63.0
258,47.74063460833333,47.91402064166666,65.0,66.0
259,46.53096460833333,48.024907058333326,43.0,66.0
260,47.982568608333324,48.196276974999996,67.0,57.0
261,47.25676660833333,48.24970406666666,55.0,45.0
262,48.224502608333324,48.466436608333325,72.0,64.0
263,48.466436608333325,49.08639248333333,65.0,67.0
264,48.466436608333325,49.12268258333333,62.0,55.0
265,48.466436608333325,49.17812579166666,70.0,58.0
266,48.466436608333325,49.769856033333326,46.0,61.0
267,49.43417260833333,49.85957322499999,62.0,47.0
268,49.43417260833333,49.863605458333325,65.0,63.0
269,49.43417260833333,49.94525818333333,70.0,59.0
270,48.466436608333325,50.01884644166666,58.0,62.0
271,49.91804060833333,50.02086255833333,46.0,59.0
272,50.40190860833333,50.621665324999995,55.0,62.0
273,50.40190860833333,50.82428504999999,65.0,62.0
274,50.40190860833333,50.845454274999994,72.0,61.0
275,50.40190860833333,50.851502624999995,69.0,55.0
276,50.40190860833333,50.866623499999996,60.0,63.0
277,50.88577660833332,51.21944391666666,55.0,49.0
278,51.127710608333324,51.33033033333333,60.0,73.0
279,50.40190860833333,51.37670101666666,43.0,59.0
280,51.369644608333324,51.649884824999994,65.0,67.0
281,51.611578608333325,51.70431997499999,67.0,64.0
282,51.369644608333324,51.72548919999999,55.0,60.0
283,51.611578608333325,51.90794775833333,57.0,49.0
284,51.853512608333325,51.941213683333324,59.0,60.0
285,51.853512608333325,52.00774553333333,72.0,70.0
286,52.095446608333326,52.38677546666666,74.0,52.0
287,52.337380608333326,52.94019949166666,65.0,60.0
288,52.337380608333326,53.02185221666666,67.0,58.0
289,52.337380608333326,53.02890862499999,69.0,59.0
290,52.337380608333326,53.05411008333333,60.0,59.0
291,52.337380608333326,53.477494583333325,53.0,60.0
292,53.30511660833333,53.79704907499999,67.0,63.0
293,53.30511660833333,53.81216994999999,65.0,60.0
294,52.337380608333326,53.82930694166666,41.0,61.0
295,53.30511660833333,53.881725974999995,60.0,61.0
296,53.30511660833333,53.89886296666666,69.0,57.0
297,53.78898460833333,53.95027394166666,53.0,50.0
298,54.272852608333324,54.75268837499999,53.0,57.0
299,54.272852608333324,55.00268684166666,71.0,60.0
300,54.272852608333324,55.02284800833333,67.0,63.0
301,54.272852608333324,55.030912474999994,62.0,62.0
302,54.998654608333325,55.34744279166666,53.0,48.0
303,55.240588608333326,55.712359908333326,71.0,72.0
304,54.272852608333324,55.71639214166666,41.0,64.0
305,55.240588608333326,55.718408258333326,67.0,75.0
306,55.240588608333326,55.72244049166666,62.0,72.0
307,55.72445660833333,55.844415549999994,53.0,53.0
308,56.20832460833333,56.80711125833333,60.0,56.0
309,56.20832460833333,56.82525630833332,67.0,62.0
310,56.20832460833333,56.83432883333332,64.0,59.0
311,56.20832460833333,56.86356252499999,48.0,56.0
312,56.20832460833333,56.91598155833333,72.0,59.0
313,57.17606060833332,57.73855715833333,59.0,49.0
314,57.17606060833332,57.774847258333324,47.0,62.0
315,57.17606060833332,57.79500842499999,62.0,56.0
316,57.17606060833332,57.79803259999999,71.0,59.0
317,57.17606060833332,57.80912124166666,67.0,59.0
318,58.143796608333325,58.641777424999994,67.0,66.0
319,58.143796608333325,58.64580965833333,64.0,64.0
320,58.143796608333325,58.70024480833332,72.0,62.0
321,58.86959860833333,59.00266230833333,62.0,58.0
322,58.86959860833333,59.04903299166666,71.0,69.0
323,58.627664608333326,59.407901758333324,57.0,47.0
324,59.35346660833333,59.64479546666666,62.0,67.0
325,59.35346660833333,59.64479546666666,67.0,70.0
326,58.143796608333325,59.72342401666666,45.0,66.0
327,59.59540060833333,59.741569066666656,57.0,54.0
328,60.07926860833332,60.62765234166666,50.0,61.0
329,60.07926860833332,60.673014966666656,65.0,62.0
330,60.07926860833332,60.74761128333333,60.0,63.0
331,60.07926860833332,60.770796624999996,69.0,58.0
332,61.047004608333324,61.55506600833333,50.0,59.0
333,61.047004608333324,61.58833193333332,60.0,50.0
334,61.047004608333324,61.64982349166666,69.0,54.0
335,61.047004608333324,61.66696048333333,65.0,59.0
336,62.01474060833333,62.65888988333332,67.0,69.0
337,62.01474060833333,62.66997852499999,62.0,64.0
338,62.01474060833333,62.70022027499999,71.0,66.0
339,62.74054260833333,63.12360477499999,52.0,35.0
340,62.98247660833332,63.56009403333333,71.0,62.0
341,62.01474060833333,63.57219073333332,40.0,66.0
342,62.98247660833332,63.57723102499999,62.0,66.0
343,62.98247660833332,63.579247141666656,67.0,72.0
344,63.46634460833332,63.60344054166666,52.0,61.0
345,63.950212608333324,64.44718536666666,53.0,75.0
346,63.950212608333324,64.70726441666666,65.0,75.0
347,63.950212608333324,64.71129665,60.0,69.0
348,63.950212608333324,64.71129665,72.0,53.0
349,63.950212608333324,64.72238529166665,69.0,64.0
350,64.67601460833332,64.98851269166666,53.0,58.0
351,64.91794860833332,65.21028552499999,60.0,76.0
352,64.91794860833332,65.22339028333333,72.0,57.0
353,64.91794860833332,65.24455950833332,65.0,73.0
354,64.91794860833332,65.25262397499999,69.0,72.0
355,63.950212608333324,65.29093019166666,41.0,70.0
356,65.15988260833332,65.41996165833332,53.0,58.0
357,65.40181660833332,65.63770225833332,60.0,61.0
358,65.64375060833332,65.827217225,72.0,72.0
359,65.88568460833332,66.29394823333332,67.0,82.0
360,65.88568460833332,66.34636726666666,43.0,72.0
361,66.12761860833332,66.35947202499999,50.0,66.0
362,65.88568460833332,66.35947202499999,71.0,78.0
363,65.88568460833332,66.39475406666666,62.0,69.0
364,65.88568460833332,66.41491523333332,72.0,44.0
365,66.36955260833332,66.65684923333332,55.0,76.0
366,66.85342060833332,66.96128284999999,59.0,73.0
367,66.61148660833332,66.96632314166666,57.0,51.0
368,66.97438760833333,67.1003949,65.0,64.0
369,67.09535460833332,67.163902575,67.0,72.0
370,67.21632160833333,67.39172375833333,72.0,78.0
371,67.33728860833332,67.47942483333333,74.0,62.0
372,67.45825560833333,67.55099697499999,76.0,69.0
373,67.57922260833332,67.8020035,79.0,75.0
374,67.70018960833332,67.94514778333333,84.0,70.0
375,67.82115660833333,69.03183466666665,43.0,72.0
376,67.83224524999999,69.07417311666666,55.0,75.0
377,69.75662860833333,70.04392523333333,64.0,80.0
378,69.75662860833333,70.14069883333332,72.0,76.0
379,70.24049660833333,70.34835885,62.0,59.0
380,70.24049660833333,70.417914875,71.0,69.0
381,70.48243060833333,70.63867964999999,64.0,82.0
382,70.48243060833333,70.73444519166665,72.0,75.0
383,69.99856260833333,70.90279093333332,55.0,54.0
384,70.96629860833332,71.09936230833333,67.0,63.0
385,70.72436460833332,71.14573299166666,60.0,57.0
386,69.75662860833333,71.26669999166666,48.0,72.0
387,71.20823260833332,71.53887574166666,55.0,67.0
388,71.69210060833332,72.063066075,47.0,62.0
389,71.93403460833332,72.17496055,55.0,61.0
390,71.45016660833332,72.22838764166666,67.0,69.0
391,71.45016660833332,72.292903375,74.0,76.0
392,72.17596860833332,72.48745863333332,59.0,61.0
393,72.65983660833332,72.80398894999999,67.0,66.0
394,72.41790260833332,72.93201235833332,62.0,63.0
395,72.65983660833332,72.94310099999998,74.0,62.0
396,72.90177060833332,73.06810023333333,67.0,40.0
397,72.90177060833332,73.13362402499999,76.0,64.0
398,73.14370460833332,73.31104229166665,74.0,58.0
399,73.38563860833332,73.44713016666665,45.0,32.0
400,73.38563860833332,73.67394329166666,71.0,66.0
401,73.62757260833332,73.944102925,72.0,78.0
402,73.62757260833332,73.96123991666666,67.0,66.0
403,74.35337460833333,74.65478404999999,60.0,66.0
404,74.59530860833333,74.869500475,62.0,56.0
405,74.83724260833333,74.97232242499999,64.0,63.0
406,74.11144060833333,75.13058758333332,57.0,64.0
407,73.62757260833332,75.18703885,45.0,76.0
408,75.07917660833333,75.30094944166666,67.0,70.0
409,73.86950660833332,75.37151352499998,52.0,58.0
410,75.32111060833333,75.63965704166665,72.0,70.0
411,75.56304460833333,76.31808029999999,71.0,76.0
412,76.04691260833333,76.37957185833332,55.0,69.0
413,76.28884660833333,76.58521575833332,62.0,67.0
414,76.28884660833333,76.66283624999998,67.0,75.0
415,75.80497860833333,76.77876295833332,52.0,64.0
416,76.53078060833333,77.06303540833332,55.0,53.0
417,75.56304460833333,77.15476871666665,43.0,67.0
418,77.01464860833332,77.15577677499999,52.0,69.0
419,76.77271460833332,77.17795405833333,64.0,82.0
420,77.25658260833332,77.46121844999999,67.0,73.0
421,77.49851660833332,77.91887693333332,41.0,69.0
422,77.49851660833332,77.96524761666666,60.0,78.0
423,77.74045060833332,77.98036849166665,48.0,70.0
424,77.98238460833332,78.27270540833332,53.0,55.0
425,77.49851660833332,78.52068775833332,69.0,75.0
426,77.49851660833332,78.52169581666665,65.0,76.0
427,78.46625260833332,78.72935583333333,57.0,85.0
428,78.22431860833332,78.75455729166666,55.0,54.0
429,78.70818660833332,78.86241953333332,60.0,76.0
430,78.95012060833332,79.19104655,65.0,72.0
431,79.19205460833332,79.48741569999999,72.0,73.0
432,79.43398860833332,79.84426835,52.0,64.0
433,79.43398860833332,79.98237234166666,40.0,64.0
434,79.43398860833332,80.01160603333332,67.0,69.0
435,79.43398860833332,80.016646325,62.0,67.0
436,79.43398860833332,80.03176719999999,71.0,69.0
437,79.91785660833332,80.05696865833332,52.0,69.0
438,80.40172460833332,80.87349590833333,71.0,72.0
439,80.40172460833332,80.87954425833333,67.0,72.0
440,80.40172460833332,80.89869736666665,62.0,70.0
441,80.88559260833333,80.98539038333332,51.0,63.0
442,80.88559260833333,81.01361601666666,39.0,63.0
443,81.36946060833333,81.83316744166666,50.0,66.0
444,81.36946060833333,81.98437619166666,62.0,64.0
445,81.36946060833333,82.04989998333332,65.0,70.0
446,81.36946060833333,82.05695639166666,69.0,66.0
447,81.36946060833333,82.09929484166666,72.0,72.0
448,82.09526260833333,82.43296215,50.0,59.0
449,82.33719660833333,82.65775915833332,72.0,64.0
450,82.33719660833333,82.68598479166666,69.0,72.0
451,81.36946060833333,82.68800090833332,38.0,73.0
452,82.33719660833333,82.68800090833332,62.0,70.0
453,82.33719660833333,82.69203314166666,65.0,76.0
454,82.57913060833333,82.79586314999999,50.0,63.0
455,82.82106460833332,83.01461180833333,67.0,58.0
456,83.06299860833332,83.23033629166666,69.0,63.0
457,83.30493260833332,83.82609876666666,72.0,66.0
458,83.30493260833332,83.83113905833332,60.0,73.0
459,83.30493260833332,83.83718740833332,69.0,70.0
460,83.30493260833332,83.8422277,65.0,66.0
461,83.78880060833332,84.0478716,55.0,72.0
462,84.03073460833332,84.31601511666666,60.0,85.0
463,84.03073460833332,84.36339385833332,67.0,85.0
464,84.27266860833332,84.52669930833332,55.0,49.0
465,83.54686660833332,84.53577183333333,50.0,59.0
466,84.51460260833332,84.71923844999999,60.0,82.0
467,83.30493260833332,84.75048825833332,43.0,69.0
468,84.51460260833332,84.86439884999999,65.0,88.0
469,84.75653660833332,84.91076953333332,55.0,91.0
470,84.99847060833332,85.11439731666665,60.0,70.0
471,85.24040460833332,85.63757959166665,62.0,69.0
472,85.24040460833332,85.72830484166666,67.0,70.0
473,85.24040460833332,85.79382863333332,64.0,69.0
474,85.96620660833332,86.12346370833332,62.0,59.0
475,85.72427260833332,86.28475304166666,60.0,73.0
476,85.48233860833332,86.51358228333332,55.0,66.0
477,86.20814060833332,86.52870315833333,62.0,75.0
478,86.20814060833332,86.54079985833332,67.0,62.0
479,86.20814060833332,86.55188849999999,64.0,75.0
480,86.45007460833332,86.78474997499998,60.0,75.0
481,85.24040460833332,86.93696678333332,48.0,70.0
482,86.69200860833332,86.98031329166666,62.0,69.0
483,86.93394260833333,87.23333593333332,64.0,72.0
484,86.93394260833333,87.24140039999999,55.0,72.0
485,87.17587660833333,87.47224575833332,62.0,75.0
486,87.17587660833333,87.50752779999999,67.0,76.0
487,87.17587660833333,87.60631751666665,47.0,69.0
488,87.41781060833333,87.68091383333332,55.0,63.0
489,87.65974460833333,87.94804929166665,59.0,63.0
490,87.90167860833333,88.24845067499999,60.0,46.0
491,88.14361260833333,88.29885359166666,62.0,69.0
492,88.38554660833333,88.59119050833333,67.0,76.0
493,88.62748060833333,88.93997869166665,69.0,73.0
494,88.86941460833332,89.08816326666665,71.0,70.0
495,89.11134860833332,89.58211184999999,72.0,69.0
496,89.11134860833332,89.65973234166665,64.0,59.0
497,89.83715060833332,90.00146411666665,64.0,75.0
498,90.07908460833332,90.16073733333332,64.0,47.0
499,90.07908460833332,90.38956657499999,67.0,82.0
500,89.35328260833332,90.39561492499999,52.0,62.0
501,89.59521660833332,90.62141999166666,57.0,75.0
502,89.11134860833332,90.64863756666665,45.0,76.0
503,90.32101860833332,90.65871814999998,69.0,62.0
504,90.56295260833332,90.66174232499999,52.0,67.0
505,90.56295260833332,90.76758844999999,71.0,48.0
506,90.80488660833332,91.12343304166666,72.0,64.0
507,91.04682060833332,91.52564831666666,62.0,69.0
508,91.04682060833332,91.54480142499999,43.0,69.0
509,91.28875460833332,91.59016404999998,50.0,56.0
510,91.04682060833332,91.63149444166666,67.0,67.0
511,91.53068860833332,91.65568784166665,55.0,93.0
512,91.04682060833332,91.71314716666666,70.0,88.0
513,91.77262260833332,91.93290388333332,62.0,78.0
514,92.01455660833332,92.40669129999999,67.0,75.0
515,92.49842460833332,92.60225461666666,60.0,80.0
516,92.01455660833332,92.60326267499998,72.0,80.0
517,92.25649060833332,92.62947219166665,55.0,69.0
518,92.01455660833332,92.64156889166665,48.0,72.0
519,92.49842460833332,92.92584134166665,67.0,85.0
520,92.98229260833332,93.42684633333332,41.0,75.0
521,93.22422660833332,93.49640235833333,48.0,67.0
522,93.46616060833333,93.77261034166665,53.0,69.0
523,92.98229260833332,93.92785132499999,60.0,80.0
524,92.98229260833332,93.94196414166666,65.0,78.0
525,92.98229260833332,93.964141425,69.0,73.0
526,94.19196260833333,94.36635669999998,60.0,80.0
527,93.70809460833333,94.44700136666665,55.0,53.0
528,93.95002860833333,94.49740428333332,57.0,76.0
529,94.43389660833333,94.79175731666666,65.0,69.0
530,94.67583060833333,94.889538975,69.0,58.0
531,94.91776460833331,95.19094841666666,62.0,76.0
532,94.91776460833331,95.349213575,67.0,67.0
533,95.64356660833332,95.83711380833333,67.0,76.0
534,95.15969860833331,95.90263759999999,59.0,56.0
535,95.40163260833332,96.14154742499998,64.0,78.0
536,95.88550060833332,96.26957083333332,71.0,78.0
537,94.91776460833331,96.28569976666665,52.0,75.0
538,96.12743460833332,96.30283675833333,59.0,62.0
539,96.36936860833332,96.51452900833333,67.0,69.0
540,96.36936860833332,96.76755164999999,72.0,72.0
541,96.85323660833332,97.25948411666666,67.0,80.0
542,97.09517060833332,97.45504743333332,57.0,61.0
543,97.33710460833332,97.70504589999999,60.0,70.0
544,97.33710460833332,97.72117483333332,65.0,76.0
545,97.82097260833332,98.01250369166665,60.0,70.0
546,97.57903860833332,98.14052709999999,57.0,64.0
547,96.85323660833332,98.14859156666665,50.0,73.0
548,97.82097260833332,98.34113070833332,67.0,72.0
549,98.30484060833332,98.41068673333332,60.0,62.0
550,98.30484060833332,98.72520093333333,69.0,75.0
551,98.78870860833332,99.48225274166666,65.0,69.0
552,98.78870860833332,99.51148643333332,69.0,49.0
553,98.78870860833332,99.52055895833332,60.0,64.0
554,98.78870860833332,99.52358313333332,72.0,66.0
555,98.78870860833332,100.03164453333332,55.0,55.0
556,98.78870860833332,100.23325619999999,43.0,60.0
557,99.75644460833333,100.25946571666665,65.0,75.0
558,99.75644460833333,100.26450600833331,60.0,66.0
559,99.75644460833333,100.28365911666666,69.0,64.0
560,99.75644460833333,100.29777193333332,72.0,52.0
561,100.24031260833333,100.39958582499999,55.0,54.0
562,100.72418060833333,101.13446034999998,48.0,70.0
563,100.72418060833333,101.17679879999999,67.0,72.0
564,100.96611460833331,101.20300831666665,55.0,57.0
565,100.72418060833333,101.23627424166665,65.0,69.0
566,100.72418060833333,101.36228153333332,72.0,61.0
567,101.20804860833331,101.51248222499999,60.0,55.0
568,101.44998260833331,101.73324699999999,64.0,44.0
569,101.44998260833331,101.86631069999999,65.0,47.0
570,102.41771860833332,102.71509581666665,76.0,55.0
571,101.69191660833332,102.95400564166665,67.0,72.0
572,102.65965260833332,103.01952943333332,79.0,59.0
573,102.17578460833332,103.03465030833333,72.0,58.0
574,104.59512460833332,105.07496037499999,76.0,64.0
575,104.59512460833332,105.34512000833332,71.0,76.0
576,104.59512460833332,105.34512000833332,83.0,76.0
577,104.59512460833332,105.67475508333332,64.0,72.0
578,104.59512460833332,105.70298071666666,67.0,73.0
579,104.59512460833332,105.70298071666666,79.0,73.0
580,105.80479460833332,106.09007511666665,64.0,70.0
581,104.59512460833332,106.09410734999999,60.0,66.0
582,104.59512460833332,106.09410734999999,60.0,72.0
583,104.59512460833332,106.09410734999999,72.0,66.0
584,104.59512460833332,106.17979230833332,48.0,72.0
585,106.53059660833333,107.22212462499999,67.0,69.0
586,106.53059660833333,107.22212462499999,79.0,69.0
587,106.53059660833333,107.26849530833331,71.0,69.0
588,106.53059660833333,107.26849530833331,83.0,69.0
589,106.53059660833333,107.29168064999999,62.0,63.0
590,106.53059660833333,107.29168064999999,74.0,63.0
591,106.53059660833333,107.85619331666665,59.0,63.0
592,106.53059660833333,107.85619331666665,59.0,67.0
593,107.49833260833331,107.86829001666665,71.0,60.0
594,107.49833260833331,107.86829001666665,83.0,60.0
595,107.49833260833331,107.93784604166665,67.0,60.0
596,107.49833260833331,107.93784604166665,79.0,60.0
597,107.49833260833331,107.96103138333332,62.0,59.0
598,107.49833260833331,107.96103138333332,74.0,59.0
599,106.53059660833333,107.96808779166665,47.0,67.0
600,108.46606860833332,109.02654904166666,64.0,67.0
601,108.46606860833332,109.02654904166666,76.0,67.0
602,108.46606860833332,109.14953215833332,69.0,49.0
603,108.46606860833332,109.14953215833332,81.0,49.0
604,108.46606860833332,109.70295618333331,57.0,49.0
605,109.43380460833332,109.95194659166665,67.0,58.0
606,109.43380460833332,109.95194659166665,79.0,58.0
607,109.43380460833332,109.97311581666665,69.0,56.0
608,109.91767260833332,109.97311581666665,69.0,40.0
609,109.43380460833332,109.97311581666665,81.0,56.0
610,109.43380460833332,109.99226892499999,64.0,63.0
611,109.43380460833332,109.99226892499999,76.0,63.0
612,109.43380460833332,110.00033339166666,60.0,62.0
613,109.43380460833332,110.00033339166666,72.0,62.0
614,108.46606860833332,110.08601834999999,45.0,64.0
615,109.91767260833332,110.09710699166665,57.0,40.0
616,110.40154060833332,111.01847230833332,67.0,61.0
617,110.40154060833332,111.01847230833332,79.0,61.0
618,110.40154060833332,111.06181881666666,64.0,67.0
619,110.40154060833332,111.06181881666666,76.0,67.0
620,110.40154060833332,111.11322979166665,60.0,63.0
621,110.40154060833332,111.11322979166665,72.0,63.0
622,110.40154060833332,111.50738059999999,55.0,42.0
623,110.40154060833332,111.50738059999999,55.0,43.0
624,111.36927660833332,111.60717837499999,72.0,64.0
625,111.36927660833332,111.60717837499999,72.0,73.0
626,111.36927660833332,111.79064499166665,67.0,70.0
627,111.36927660833332,111.79064499166665,79.0,70.0
628,110.40154060833332,111.82189479999998,43.0,43.0
629,111.36927660833332,111.87330577499999,60.0,73.0
630,111.36927660833332,111.88237829999998,64.0,75.0
631,111.36927660833332,111.88237829999998,76.0,75.0
632,111.85314460833332,111.97209549166665,55.0,58.0
633,112.33701260833332,112.57491437499999,72.0,64.0
634,112.33701260833332,112.57491437499999,72.0,69.0
635,112.33701260833332,113.05676625833331,60.0,69.0
636,112.33701260833332,113.09910470833331,65.0,63.0
637,112.33701260833332,113.09910470833331,65.0,69.0
638,112.33701260833332,113.09910470833331,77.0,69.0
639,112.33701260833332,113.10515305833331,67.0,64.0
640,112.33701260833332,113.10515305833331,69.0,63.0
641,112.33701260833332,113.10515305833331,79.0,64.0
642,112.33701260833332,113.10515305833331,81.0,63.0
643,112.33701260833332,113.59809358333332,53.0,63.0
644,113.30474860833331,113.59809358333332,65.0,72.0
645,113.30474860833331,113.69385912499999,60.0,67.0
646,113.30474860833331,113.69385912499999,72.0,67.0
647,113.30474860833331,113.70393970833332,67.0,69.0
648,113.30474860833331,113.70393970833332,79.0,69.0
649,113.30474860833331,113.71704446666665,69.0,69.0
650,113.30474860833331,113.71704446666665,81.0,69.0
651,113.30474860833331,113.72410087499999,77.0,72.0
652,113.78861660833331,113.90252719999998,53.0,63.0
653,113.78861660833331,113.90252719999998,65.0,63.0
654,114.27248460833331,114.75534454999999,79.0,59.0
655,114.27248460833331,114.83800533333331,59.0,66.0
656,114.27248460833331,114.83800533333331,71.0,66.0
657,114.27248460833331,114.84909397499999,62.0,63.0
658,114.27248460833331,114.84909397499999,74.0,63.0
659,114.27248460833331,115.40755829166665,55.0,50.0
660,114.99828660833332,115.40755829166665,55.0,44.0
661,115.24022060833332,115.73013695833332,67.0,70.0
662,115.24022060833332,115.73013695833332,79.0,70.0
663,114.27248460833331,115.76642705833332,43.0,50.0
664,115.72408860833332,115.76642705833332,55.0,56.0
665,115.24022060833332,115.77146734999998,62.0,72.0
666,115.24022060833332,115.77146734999998,74.0,72.0
667,115.24022060833332,115.79969298333332,59.0,69.0
668,115.24022060833332,115.79969298333332,71.0,69.0
669,116.20795660833332,116.67166344166665,64.0,72.0
670,116.20795660833332,116.67166344166665,76.0,72.0
671,116.20795660833332,116.67267149999998,57.0,67.0
672,116.20795660833332,116.67267149999998,69.0,67.0
673,116.20795660833332,116.70593742499999,60.0,73.0
674,116.44989060833332,116.70593742499999,60.0,48.0
675,116.20795660833332,116.70593742499999,72.0,73.0
676,116.20795660833332,117.48315039999999,53.0,67.0
677,116.69182460833332,117.48315039999999,53.0,49.0
678,116.69182460833332,117.48315039999999,65.0,49.0
679,116.93375860833332,117.52649690833331,57.0,82.0
680,116.93375860833332,117.52649690833331,69.0,82.0
681,117.41762660833332,117.82185799999999,60.0,75.0
682,117.41762660833332,117.82185799999999,72.0,75.0
683,116.44989060833332,117.93072829999998,48.0,48.0
684,117.41762660833332,117.93072829999998,64.0,72.0
685,117.41762660833332,117.93072829999998,76.0,72.0
686,116.20795660833332,117.94887334999999,41.0,67.0
687,117.90149460833332,117.94887334999999,53.0,48.0
688,117.90149460833332,118.01943743333332,65.0,48.0
689,117.65956060833332,118.13939637499999,79.0,64.0
690,118.14342860833332,118.96096391666666,59.0,73.0
691,118.14342860833332,118.96096391666666,71.0,73.0
692,118.14342860833332,119.10310014166664,62.0,75.0
693,118.14342860833332,119.10310014166664,74.0,75.0
694,118.14342860833332,119.16559975833331,67.0,64.0
695,118.14342860833332,119.16559975833331,79.0,64.0
696,118.14342860833332,120.07890060833331,43.0,69.0
697,118.14342860833332,120.07890060833331,55.0,69.0
698,121.04663660833332,121.34199769999998,67.0,50.0
699,121.28857060833332,121.55973829999998,69.0,57.0
700,121.53050460833332,121.83292210833332,72.0,48.0
701,121.77243860833332,122.00025979166665,74.0,62.0
702,122.01437260833332,122.43574099166665,48.0,58.0
703,122.25630660833332,122.51134536666665,55.0,45.0
704,122.01437260833332,122.72404567499999,72.0,55.0
705,122.49824060833332,122.80368228333332,60.0,47.0
706,122.01437260833332,122.99622142499999,67.0,55.0
707,122.01437260833332,123.01335841666665,76.0,64.0
708,122.74017460833332,123.26436494166666,62.0,52.0
709,122.98210860833332,123.38633999999999,64.0,67.0
710,123.22404260833332,123.51335534999998,67.0,46.0
711,123.46597660833332,123.78351498333332,72.0,60.0
712,123.70791060833332,123.92766732499999,76.0,52.0
713,123.94984460833332,124.71395282499998,67.0,52.0
714,123.94984460833332,124.73108981666665,74.0,66.0
715,124.67564660833332,125.11919227499999,62.0,44.0
716,124.91758060833331,125.21495781666665,67.0,49.0
717,123.94984460833332,125.25023985833332,59.0,56.0
718,125.15951460833331,125.38935190833331,74.0,56.0
719,125.64338260833331,125.85507485833331,67.0,41.0
720,125.64338260833331,126.16051653333332,72.0,70.0
721,126.12725060833331,126.87522989166665,64.0,56.0
722,126.36918460833331,127.09599466666666,67.0,47.0
723,126.61111860833331,127.11313165833332,72.0,69.0
724,125.40144860833331,127.34095284166665,79.0,59.0
725,127.09498660833331,127.39337187499999,64.0,54.0
726,125.88531660833331,127.41252498333331,57.0,64.0
727,127.33692060833332,128.04760173333332,67.0,58.0
728,127.57885460833332,128.27441485833333,79.0,59.0
729,128.0627226083333,128.59195323333333,64.0,58.0
730,128.30465660833332,128.61614663333333,67.0,59.0
731,128.5465906083333,129.07481317499997,72.0,73.0
732,129.0304586083333,129.18872376666664,64.0,43.0
733,127.82078860833332,129.29154571666666,55.0,54.0
734,129.27239260833332,129.47702844999998,71.0,76.0
735,129.5143266083333,129.65343865833333,67.0,62.0
736,129.75626060833332,129.90242906666666,67.0,60.0
737,129.87722760833333,130.2824670583333,69.0,60.0
738,129.9981946083333,130.77641564166666,60.0,49.0
739,130.24012860833332,131.02742216666664,65.0,56.0
740,129.75626060833332,131.14032469999998,53.0,70.0
741,130.4820626083333,131.24314664999997,72.0,72.0
742,130.9659306083333,131.38125064166664,60.0,48.0
743,131.20786460833332,131.536491625,67.0,47.0
744,131.4497986083333,132.13729439166664,72.0,60.0
745,132.17560060833333,132.78446784166664,64.0,61.0
746,132.4175346083333,132.90543484166665,67.0,55.0
747,131.9336666083333,132.94172494166665,60.0,58.0
748,131.69173260833333,133.00220844166665,52.0,57.0
749,132.9014026083333,133.1372882583333,72.0,63.0
750,133.14333660833333,133.41148012499997,74.0,58.0
751,133.38527060833331,133.59091450833333,76.0,62.0
752,133.86913860833332,134.1140967833333,57.0,32.0
753,133.62720460833333,134.15139494166664,50.0,62.0
754,134.1110726083333,134.45986079166664,62.0,52.0
755,133.62720460833333,134.62619041666665,69.0,54.0
756,133.62720460833333,134.669536925,72.0,56.0
757,133.62720460833333,134.75118965,77.0,67.0
758,134.5949406083333,134.83687460833332,65.0,64.0
759,134.35300660833332,134.86610829999998,64.0,62.0
760,134.83687460833332,135.250178525,69.0,50.0
761,135.0788086083333,135.30965396666664,72.0,58.0
762,135.32074260833332,135.613079525,77.0,56.0
763,135.5626766083333,135.81771536666665,76.0,60.0
764,135.5626766083333,135.98303693333332,43.0,66.0
765,135.80461060833332,136.0223512083333,74.0,57.0
766,135.80461060833332,136.04452849166665,50.0,54.0
767,136.0465446083333,136.25017239166664,72.0,48.0
768,136.0465446083333,136.32275259166664,55.0,50.0
769,136.28847860833332,136.53646095833332,67.0,59.0
770,136.5304126083333,136.75117738333333,65.0,49.0
771,136.77234660833332,136.99613555833332,64.0,48.0
772,137.0142806083333,137.28444024166666,62.0,49.0
773,137.25621460833332,137.56669657499998,60.0,51.0
774,137.4981486083333,137.99310524999999,70.0,54.0
775,137.4981486083333,138.00520195,65.0,55.0
776,137.4981486083333,138.0273792333333,62.0,54.0
777,138.22395060833333,138.41144945833332,62.0,58.0
778,138.4658846083333,138.75318123333332,65.0,44.0
779,137.9820166083333,138.82374531666665,58.0,67.0
780,137.74008260833332,138.8287856083333,53.0,49.0
781,137.4981486083333,138.91648668333332,46.0,57.0
782,138.70781860833333,138.97293795,70.0,43.0
783,139.4336206083333,139.74611869166665,65.0,66.0
784,139.4336206083333,139.7481348083333,60.0,63.0
785,139.4336206083333,139.75922344999998,55.0,54.0
786,139.4336206083333,139.78140073333333,72.0,53.0
787,139.4336206083333,139.80256995833332,69.0,51.0
788,139.4336206083333,140.00216550833332,43.0,58.0
789,139.91748860833331,140.03744754999997,55.0,54.0
790,140.1594226083333,140.41748554166665,67.0,67.0
791,140.1594226083333,140.44067088333333,71.0,70.0
792,140.1594226083333,140.44571117499999,62.0,61.0
793,140.1594226083333,140.6483309,55.0,70.0
794,140.6432906083333,140.87716014166665,72.0,53.0
795,140.6432906083333,140.89228101666666,60.0,56.0
796,140.1594226083333,140.91647441666666,43.0,69.0
797,140.6432906083333,140.92353082499997,69.0,53.0
798,140.6432906083333,140.93562752499997,65.0,70.0
799,140.88522460833332,141.03542529999999,55.0,63.0
800,141.36909260833332,141.89328294166666,53.0,76.0
801,141.36909260833332,142.04146751666664,60.0,69.0
802,141.36909260833332,142.05054004166664,65.0,73.0
803,141.36909260833332,142.0707012083333,72.0,63.0
804,141.36909260833332,142.09187043333333,69.0,61.0
805,141.49005960833333,142.12211218333331,67.0,59.0
806,142.0948946083333,142.57069814166664,53.0,55.0
807,142.33682860833332,142.9225105,60.0,70.0
808,142.33682860833332,142.9225105,65.0,73.0
809,142.33682860833332,142.94367972499998,69.0,64.0
810,142.33682860833332,142.94972807499997,67.0,70.0
811,141.36909260833332,142.96081671666664,41.0,73.0
812,142.82069660833332,142.982994,53.0,59.0
813,142.33682860833332,142.99105846666666,72.0,54.0
814,143.30456460833332,143.81262600833332,53.0,75.0
815,143.30456460833332,144.00516514999998,62.0,69.0
816,143.30456460833332,144.020286025,67.0,75.0
817,143.30456460833332,144.02331019999997,71.0,73.0
818,143.5464986083333,144.09589039999997,69.0,25.0
819,144.0303666083333,144.38016284999998,53.0,53.0
820,143.30456460833332,144.58983898333332,41.0,76.0
821,144.27230060833332,144.61604849999998,62.0,66.0
822,144.27230060833332,144.6291532583333,71.0,66.0
823,144.27230060833332,144.63620966666664,69.0,64.0
824,144.27230060833332,144.63721772499997,67.0,69.0
825,144.5142346083333,144.69366899166664,53.0,60.0
826,144.75616860833333,144.96786085833332,62.0,55.0
827,144.9981026083333,145.19164980833332,67.0,64.0
828,145.24003660833333,145.56765556666664,60.0,59.0
829,145.24003660833333,145.78237199166665,72.0,73.0
830,145.24003660833333,145.834791025,67.0,66.0
831,145.24003660833333,145.84587966666666,64.0,72.0
832,145.24003660833333,145.846887725,48.0,70.0
833,145.72390460833333,145.86301665833332,60.0,70.0
834,145.9658386083333,146.143256875,72.0,39.0
835,146.2077726083333,146.5616010833333,62.0,59.0
836,146.2077726083333,146.57268972499998,67.0,66.0
837,146.2077726083333,146.6130120583333,71.0,70.0
838,146.44970660833332,146.7430515833333,59.0,50.0
839,146.2077726083333,146.80756731666665,47.0,72.0
840,146.6916406083333,146.97490499999998,69.0,61.0
841,146.93357460833332,147.15937967499997,71.0,66.0
842,147.1755086083333,147.66945719166665,67.0,58.0
843,147.1755086083333,147.67550554166664,64.0,50.0
844,147.1755086083333,147.71885204999998,72.0,57.0
845,147.6593766083333,148.02429372499998,57.0,72.0
846,147.90131060833332,148.22691344999998,67.0,70.0
847,147.90131060833332,148.242034325,64.0,67.0
848,147.90131060833332,148.51521813333332,72.0,70.0
849,147.1755086083333,148.69062028333332,45.0,72.0
850,148.38517860833332,148.69767669166666,64.0,69.0
851,147.41744260833332,148.71884591666665,52.0,61.0
852,148.38517860833332,148.7329587333333,67.0,69.0
853,148.6271126083333,148.75412795833333,57.0,49.0
854,148.86904660833332,149.03940846666666,67.0,52.0
855,149.1109806083333,149.71379949166663,69.0,61.0
856,149.1109806083333,149.72085589999998,60.0,70.0
857,149.1109806083333,149.73799289166664,65.0,62.0
858,149.5948486083333,150.11399864999998,57.0,55.0
859,150.0787166083333,150.361981,69.0,72.0
860,150.0787166083333,150.3871824583333,60.0,72.0
861,150.0787166083333,150.39726304166663,65.0,73.0
862,150.32065060833332,150.70875306666665,57.0,52.0
863,150.5625846083333,150.75310763333331,60.0,59.0
864,149.1109806083333,150.78032520833332,50.0,78.0
865,150.80451860833332,150.99000134166664,65.0,72.0
866,151.0464526083333,151.19463718333333,71.0,58.0
867,151.0464526083333,151.40834554999998,62.0,73.0
868,151.0464526083333,151.48294186666664,67.0,72.0
869,151.5303206083333,151.87104432499999,59.0,58.0
870,151.77225460833333,152.19362299166664,71.0,69.0
871,151.77225460833333,152.23192920833333,67.0,63.0
872,151.77225460833333,152.3075335833333,62.0,59.0
873,152.2561226083333,152.38414601666665,59.0,72.0
874,151.0464526083333,152.41136359166666,52.0,75.0
875,152.49805660833331,152.69261186666665,62.0,72.0
876,152.49805660833331,152.79644187499997,67.0,69.0
877,152.7399906083333,152.9547070333333,69.0,66.0
878,152.98192460833332,153.40631716666664,41.0,82.0
879,153.2238586083333,153.48595377499998,48.0,72.0
880,153.46579260833332,153.79139544999998,53.0,60.0
881,152.98192460833332,153.82365331666665,65.0,84.0
882,152.98192460833332,153.85691924166665,69.0,72.0
883,152.98192460833332,153.90328992499997,60.0,69.0
884,153.7077266083333,154.47889123333331,55.0,65.0
885,153.94966060833332,154.489979875,57.0,44.0
886,154.1915946083333,154.50106851666663,60.0,62.0
887,154.43352860833332,154.67445454999998,65.0,72.0
888,154.6754626083333,155.00207350833332,72.0,88.0
889,154.91739660833332,155.31961188333332,62.0,65.0
890,154.91739660833332,155.34582139999998,67.0,84.0
891,154.91739660833332,155.35489392499997,71.0,96.0
892,155.40126460833332,155.56557811666664,62.0,68.0
893,155.40126460833332,155.79239124166665,71.0,94.0
894,155.88513260833332,155.9758578583333,67.0,97.0
895,155.88513260833332,155.99501096666665,64.0,78.0
896,155.88513260833332,156.0181963083333,72.0,91.0
897,155.6431986083333,156.340774975,55.0,50.0
898,156.36900060833332,156.62907965833332,67.0,82.0
899,156.36900060833332,156.7137565583333,74.0,90.0
900,155.1593306083333,156.84480414166666,50.0,38.0
901,154.91739660833332,156.87000559999998,43.0,96.0
902,156.6109346083333,156.87202171666664,55.0,56.0
903,157.33673660833333,157.56052555833332,62.0,72.0
904,157.33673660833333,157.56153361666665,43.0,73.0
905,157.33673660833333,157.5665739083333,59.0,70.0
906,157.33673660833333,157.57060614166664,67.0,70.0
907,157.33673660833333,157.59782371666665,55.0,69.0
908,157.82060460833333,158.12302210833332,60.0,75.0
909,157.82060460833333,158.13108657499998,65.0,82.0
910,157.82060460833333,158.14620745,69.0,66.0
911,157.82060460833333,158.1653605583333,45.0,78.0
912,157.82060460833333,158.23189240833332,57.0,73.0
913,158.3044726083333,158.35991581666664,57.0,41.0
914,158.3044726083333,158.38713339166665,67.0,78.0
915,158.3044726083333,158.3941898,62.0,70.0
916,158.3044726083333,158.403262325,71.0,72.0
917,158.3044726083333,158.43047989999997,47.0,78.0
918,158.78934866666665,158.97483139999997,67.0,83.0
919,158.78934866666665,158.97684751666665,72.0,92.0
920,158.78934866666665,158.983903925,64.0,85.0
921,158.78934866666665,158.9939845083333,60.0,94.0
922,159.15224966666665,159.29236977499997,72.0,99.0
923,159.15224966666665,159.29741006666666,64.0,88.0
924,159.15224966666665,159.30749064999998,67.0,86.0
925,158.78934866666665,159.4778525083333,55.0,85.0
926,159.51515066666664,159.7923667083333,72.0,99.0
927,159.51515066666664,159.81151981666665,60.0,92.0
928,159.51515066666664,159.8135359333333,67.0,84.0
929,159.51515066666664,159.82462457499997,64.0,90.0
930,159.75708466666666,160.07059080833332,55.0,90.0
931,159.99901866666664,160.2157512083333,72.0,95.0
932,159.99901866666664,160.25405742499998,60.0,95.0
933,158.78934866666665,160.26514606666666,48.0,85.0
934,159.99901866666664,160.28933946666663,67.0,84.0
935,159.99901866666664,160.3125248083333,64.0,91.0
936,160.36191966666664,160.40728229166663,72.0,80.0
937,160.24095266666666,160.43853209999997,55.0,88.0
938,160.36191966666664,160.44458045,67.0,66.0
939,160.36191966666664,160.45365297499998,48.0,72.0
940,160.36191966666664,160.4758302583333,64.0,71.0
941,160.7046595,160.96473855,59.0,95.0
942,160.7046595,160.96574660833332,71.0,93.0
943,160.7046595,160.97683524999997,67.0,87.0
944,160.7046595,160.98288359999998,62.0,94.0
945,160.96675466666665,160.98288359999998,62.0,79.0
946,160.7046595,161.16534215833332,55.0,95.0
947,161.08772166666665,161.27522051666665,59.0,85.0
948,161.08772166666665,161.32763955,67.0,68.0
949,161.08772166666665,161.3377201333333,71.0,83.0
950,161.45062266666665,161.7248145333333,55.0,88.0
951,161.69255666666663,161.7399354083333,74.0,79.0
952,161.69255666666663,161.75304016666664,71.0,82.0
953,161.69255666666663,161.81755589999997,67.0,99.0
954,161.69255666666663,161.82562036666664,79.0,104.0
955,162.05545766666665,162.15525544166664,62.0,95.0
956,162.05545766666665,162.17037631666665,59.0,97.0
957,162.05545766666665,162.17642466666663,71.0,93.0
958,162.05545766666665,162.22985175833333,67.0,84.0
959,160.7046595,162.24900486666664,47.0,95.0
960,162.05545766666665,162.44356012499998,55.0,85.0
961,162.41835866666665,162.46372129166664,47.0,81.0
962,162.66029266666663,162.71271169999997,43.0,83.0
963,162.66029266666663,162.897186375,69.0,102.0
964,162.66029266666663,162.90525084166666,64.0,87.0
965,162.66029266666663,162.90827501666664,57.0,100.0
966,162.66029266666663,162.92238783333332,60.0,94.0
967,162.66029266666663,163.0917416333333,52.0,91.0
968,163.02319366666666,163.19657969999997,69.0,80.0
969,163.02319366666666,163.20262805,57.0,74.0
970,163.02319366666666,163.22984562499997,60.0,79.0
971,163.02319366666666,163.23085368333332,64.0,64.0
972,163.38609466666665,163.61794808333332,57.0,90.0
973,163.38609466666665,163.65827041666665,60.0,84.0
974,163.38609466666665,163.66835099999997,64.0,64.0
975,163.38609466666665,163.6723832333333,69.0,95.0
976,163.62802866666664,163.92641393333332,52.0,90.0
977,163.86996266666665,163.9687523833333,72.0,90.0
978,163.86996266666665,163.97883296666666,69.0,83.0
979,163.86996266666665,163.98588937499997,64.0,81.0
980,163.86996266666665,163.9929457833333,60.0,85.0
981,163.99092966666666,164.15423511666665,52.0,63.0
982,162.66029266666663,164.36189513333332,45.0,84.0
983,164.35383066666665,164.41431416666666,52.0,55.0
984,164.35383066666665,164.4183464,69.0,68.0
985,164.35383066666665,164.4284269833333,60.0,68.0
986,164.35383066666665,164.4616929083333,64.0,74.0
987,164.35383066666665,164.46370902499999,57.0,63.0
988,164.59576466666664,164.81148914999997,67.0,86.0
989,164.59576466666664,164.82560196666665,55.0,92.0
990,164.59576466666664,164.83165031666664,60.0,77.0
991,164.59576466666664,164.84072284166663,64.0,81.0
992,164.59576466666664,165.04334256666664,52.0,80.0
993,164.95866566666663,165.11491470833332,67.0,68.0
994,164.95866566666663,165.11995499999998,55.0,80.0
995,164.95866566666663,165.12499529166664,64.0,62.0
996,164.95866566666663,165.12701140833332,60.0,74.0
997,165.32156666666666,165.3931388083333,55.0,83.0
998,165.32156666666666,165.43245308333331,67.0,67.0
999,165.32156666666666,165.47579959166666,64.0,64.0
1000,165.32156666666666,165.49293658333332,60.0,76.0
1001,165.56350066666664,165.70462883333332,69.0,100.0
1002,165.56350066666664,165.70966912499998,57.0,99.0
1003,165.44253366666663,165.8286200083333,52.0,95.0
1004,165.56350066666664,165.99394157499998,64.0,41.0
1005,165.56350066666664,166.01309468333332,60.0,81.0
1006,164.59576466666664,166.10886022499997,43.0,83.0
1007,165.80543466666666,166.27518984999998,55.0,100.0
1008,166.04736866666664,166.31652024166664,52.0,99.0
1009,165.80543466666666,166.32962499999996,67.0,90.0
1010,166.28930266666666,166.34071364166664,43.0,68.0
1011,166.28930266666666,166.44151947499998,64.0,81.0
1012,166.53123666666664,166.7751867833333,57.0,100.0
1013,166.53123666666664,166.77821095833332,60.0,97.0
1014,166.53123666666664,166.78123513333333,65.0,96.0
1015,166.53123666666664,166.89212154999998,53.0,83.0
1016,166.89413766666664,167.07458010833332,57.0,83.0
1017,166.89413766666664,167.0776042833333,65.0,75.0
1018,166.89413766666664,167.08768486666665,60.0,76.0
1019,167.13607166666665,167.22679691666664,53.0,68.0
1020,167.25703866666663,167.31046575833332,60.0,63.0
1021,167.25703866666663,167.32155439999997,57.0,79.0
1022,167.25703866666663,167.35683644166664,67.0,89.0
1023,167.25703866666663,167.506029075,53.0,71.0
1024,167.49897266666665,167.71167297499997,69.0,108.0
1025,167.49897266666665,167.72276161666665,57.0,102.0
1026,167.49897266666665,167.73889054999998,60.0,95.0
1027,167.61993966666665,167.7550194833333,53.0,41.0
1028,166.53123666666664,168.03122746666665,48.0,77.0
1029,167.86187366666664,168.03929193333332,57.0,80.0
1030,167.86187366666664,168.05138863333332,67.0,96.0
1031,167.86187366666664,168.05542086666665,60.0,75.0
1032,166.53123666666664,168.19856514999998,41.0,76.0
1033,168.22477466666663,168.27618564166664,60.0,77.0
1034,167.98284066666665,168.286266225,53.0,72.0
1035,168.22477466666663,168.3296127333333,57.0,83.0
1036,168.22477466666663,168.33767719999997,48.0,47.0
1037,168.22477466666663,168.35179001666665,65.0,86.0
1038,168.46670866666665,168.6713445083333,55.0,91.0
1039,168.46670866666665,168.68142509166665,60.0,83.0
1040,168.46670866666665,168.68948955833332,64.0,91.0
1041,168.46670866666665,168.7741664583333,52.0,91.0
1042,168.82960966666664,169.11993046666663,55.0,90.0
1043,168.82960966666664,169.1340432833333,60.0,69.0
1044,168.82960966666664,169.17738979166666,64.0,68.0
1045,168.95057666666665,169.381017575,52.0,99.0
1046,169.19251066666664,169.628999925,67.0,102.0
1047,169.19251066666664,169.63303215833332,64.0,88.0
1048,169.19251066666664,169.6481530333333,55.0,91.0
1049,169.19251066666664,169.65420138333332,60.0,83.0
1050,169.67637866666664,169.96165917499997,52.0,104.0
1051,168.46670866666665,170.05137636666663,48.0,44.0
1052,169.91831266666665,170.1834320083333,55.0,91.0
1053,169.91831266666665,170.2257704583333,60.0,87.0
1054,168.46670866666665,170.22778657499998,40.0,85.0
1055,170.03927966666666,170.23282686666664,52.0,77.0
1056,169.91831266666665,170.26306861666666,64.0,88.0
1057,170.16024666666664,170.26609279166664,48.0,84.0
1058,170.40218066666665,170.59068757499998,57.0,100.0
1059,170.40218066666665,170.60076815833332,60.0,91.0
1060,170.40218066666665,170.60480039166666,65.0,95.0
1061,170.40218066666665,170.8306054583333,48.0,84.0
1062,170.76508166666665,170.9021776,60.0,102.0
1063,170.76508166666665,170.9031856583333,57.0,108.0
1064,170.76508166666665,170.91326624166663,65.0,95.0
1065,171.12798266666664,171.44652909999996,57.0,99.0
1066,171.12798266666664,171.4535855083333,60.0,97.0
1067,171.12798266666664,171.45459356666663,65.0,92.0
1068,171.36991666666665,171.64914882499997,50.0,91.0
1069,171.61185066666664,171.79128504999997,57.0,97.0
1070,171.61185066666664,171.79330116666665,65.0,93.0
1071,171.61185066666664,171.7983414583333,60.0,100.0
1072,170.40218066666665,171.80842204166663,38.0,85.0
1073,171.97475166666663,172.02616264166664,38.0,76.0
1074,171.85378466666666,172.06346079999997,57.0,95.0
1075,171.73281766666665,172.07757361666665,50.0,85.0
1076,171.85378466666666,172.1007589583333,65.0,90.0
1077,171.85378466666666,172.13301682499997,60.0,94.0
1078,172.33765266666666,172.55640132499997,59.0,104.0
1079,172.33765266666666,172.55640132499997,67.0,100.0
1080,172.33765266666666,172.56748996666664,62.0,104.0
1081,172.33765266666666,172.58664307499998,55.0,91.0
1082,172.70055366666665,172.8477301833333,62.0,67.0
1083,172.70055366666665,172.85579464999998,69.0,92.0
1084,172.70055366666665,172.87293164166664,59.0,90.0
1085,172.82152066666666,173.09672059166664,55.0,100.0
1086,173.06345466666664,173.37091245833332,59.0,102.0
1087,173.06345466666664,173.3769608083333,71.0,100.0
1088,173.06345466666664,173.378976925,62.0,92.0
1089,173.30538866666663,173.55841130833332,55.0,106.0
1090,173.54732266666664,173.65417684999997,59.0,92.0
1091,173.54732266666664,173.65619296666665,62.0,90.0
1092,172.33765266666666,173.6582090833333,43.0,91.0
1093,173.54732266666664,173.6793783083333,67.0,89.0
1094,173.78925666666663,173.89510279166663,62.0,77.0
1095,173.78925666666663,173.8971189083333,59.0,91.0
1096,173.78925666666663,173.89812696666664,69.0,84.0
1097,173.66828966666665,173.96869105,55.0,104.0
1098,174.03119066666665,174.09268222499998,62.0,77.0
1099,173.91022366666664,174.09570639999998,43.0,95.0
1100,174.03119066666665,174.09570639999998,59.0,94.0
1101,174.03119066666665,174.13199649999999,71.0,100.0
1102,174.03119066666665,174.13703679166665,55.0,87.0
1103,174.20961699166665,174.3688902083333,64.0,81.0
1104,174.20961699166665,174.3779627333333,72.0,100.0
1105,174.20961699166665,174.3809869083333,60.0,100.0
1106,174.20961699166665,174.38199496666664,67.0,82.0
1107,174.20961699166665,174.59973556666665,55.0,59.0
1108,174.57251799166664,174.73683149999997,72.0,100.0
1109,174.57251799166664,174.74287984999998,60.0,102.0
1110,174.57251799166664,174.7438879083333,67.0,73.0
1111,174.57251799166664,174.76001684166664,64.0,88.0
1112,174.93541899166664,174.9767493833333,67.0,82.0
1113,174.93541899166664,174.981789675,64.0,85.0
1114,174.69348499166665,174.98582190833332,55.0,77.0
1115,174.93541899166664,175.00900724999997,60.0,99.0
1116,174.93541899166664,175.04428929166664,72.0,96.0
1117,175.17735299166665,175.32755368333332,76.0,102.0
1118,175.17735299166665,175.3305778583333,64.0,99.0
1119,175.17735299166665,175.3910613583333,72.0,67.0
1120,175.17735299166665,175.43541592499997,67.0,67.0
1121,175.29831999166663,175.48279466666665,55.0,88.0
1122,175.54025399166665,175.69045468333331,60.0,80.0
1123,175.54025399166665,175.6995272083333,72.0,83.0
1124,174.20961699166665,175.7569865333333,48.0,97.0
1125,175.54025399166665,175.77613964166665,64.0,45.0
1126,175.54025399166665,175.81343779999997,67.0,44.0
1127,175.90315499166664,175.96061431666664,48.0,63.0
1128,175.90315499166664,175.99085606666665,64.0,37.0
1129,175.66122099166665,175.99992859166665,55.0,76.0
1130,175.90315499166664,175.99992859166665,59.0,95.0
1131,175.90315499166664,176.0261381083333,71.0,86.0
1132,175.90315499166664,176.04529121666664,67.0,37.0
1133,176.14508899166665,176.32149919999998,71.0,102.0
1134,176.14508899166665,176.33057172499997,64.0,79.0
1135,176.14508899166665,176.34065230833332,59.0,95.0
1136,176.14508899166665,176.34569259999998,67.0,71.0
1137,176.14508899166665,176.48682076666665,55.0,100.0
1138,176.50798999166665,176.6098038833333,59.0,92.0
1139,176.50798999166665,176.620892525,62.0,81.0
1140,176.50798999166665,176.6400456333333,67.0,67.0
1141,176.50798999166665,176.65617456666664,71.0,89.0
1142,176.62895699166666,176.93439866666665,55.0,92.0
1143,176.87089099166664,177.11282499166666,74.0,96.0
1144,176.87089099166664,177.14205868333332,62.0,104.0
1145,177.23379199166664,177.29427549166664,55.0,68.0
1146,177.35475899166664,177.62088639166663,71.0,108.0
1147,177.35475899166664,177.62693474166664,59.0,111.0
1148,177.35475899166664,177.62693474166664,67.0,95.0
1149,177.35475899166664,177.62995891666665,62.0,102.0
1150,176.14508899166665,177.81846582499998,47.0,95.0
1151,177.83862699166664,177.88701379166665,67.0,82.0
1152,177.83862699166664,177.9041507833333,62.0,95.0
1153,177.83862699166664,177.9162474833333,59.0,99.0
1154,177.83862699166664,177.9162474833333,71.0,92.0
1155,177.59669299166666,177.9495134083333,55.0,104.0
1156,177.95959399166665,178.06140788333332,47.0,87.0
1157,178.08056099166663,178.30535799999998,69.0,104.0
1158,178.08056099166663,178.3184627583333,57.0,106.0
1159,178.08056099166663,178.3305594583333,64.0,85.0
1160,178.08056099166663,178.33761586666665,60.0,95.0
1161,178.08056099166663,178.48580044166664,52.0,108.0
1162,178.44346199166665,178.6541461833333,57.0,95.0
1163,178.44346199166665,178.6541461833333,69.0,99.0
1164,178.44346199166665,178.67430734999996,60.0,87.0
1165,178.44346199166665,178.68237181666663,64.0,72.0
1166,178.80636299166665,178.87289484166664,60.0,90.0
1167,178.80636299166665,178.87995124999998,57.0,97.0
1168,178.80636299166665,178.8839834833333,64.0,72.0
1169,178.80636299166665,178.90716882499999,69.0,95.0
1170,178.68539599166664,178.92128164166664,52.0,87.0
1171,179.04829699166663,179.19950574166666,72.0,106.0
1172,179.04829699166663,179.2136185583333,69.0,96.0
1173,179.04829699166663,179.22067496666665,60.0,110.0
1174,179.04829699166663,179.22974749166664,64.0,95.0
1175,178.92732999166665,179.37793206666663,52.0,108.0
1176,179.41119799166665,179.59264849166664,69.0,86.0
1177,179.41119799166665,179.60272907499998,57.0,77.0
1178,179.41119799166665,179.6279305333333,65.0,73.0
1179,179.41119799166665,179.64305140833332,60.0,74.0
1180,179.53216499166663,179.75595394166663,52.0,104.0
1181,179.77409899166665,179.83458249166665,69.0,83.0
1182,179.77409899166665,179.86180006666663,60.0,87.0
1183,179.77409899166665,179.86583229999997,65.0,86.0
1184,179.77409899166665,179.87188064999998,57.0,95.0
1185,178.08056099166663,179.88800958333331,45.0,97.0
1186,179.89506599166666,179.94446084999998,52.0,91.0
1187,180.01603299166663,180.23679776666665,62.0,67.0
1188,180.01603299166663,180.24183805833331,55.0,104.0
1189,180.01603299166663,180.25695893333332,59.0,97.0
1190,180.01603299166663,180.25897504999998,67.0,104.0
1191,180.01603299166663,180.38699845833332,52.0,100.0
1192,180.37893399166666,180.42429661666665,59.0,54.0
1193,180.37893399166666,180.54828779166664,62.0,72.0
1194,180.37893399166666,180.56340866666665,55.0,91.0
1195,180.37893399166666,180.59163429999998,67.0,89.0
1196,180.49990099166664,180.68034343333332,50.0,87.0
1197,180.01603299166663,180.79324596666663,43.0,99.0
1198,180.74183499166665,180.8164313083333,62.0,84.0
1199,180.74183499166665,180.82651189166666,55.0,106.0
1200,180.74183499166665,180.82651189166666,58.0,100.0
1201,180.74183499166665,180.86784228333332,67.0,96.0
1202,180.98376899166664,181.208566,67.0,89.0
1203,180.98376899166664,181.21663046666663,72.0,108.0
1204,180.98376899166664,181.22066269999996,60.0,108.0
1205,180.98376899166664,181.2307432833333,64.0,91.0
1206,180.98376899166664,181.29525901666665,55.0,108.0
1207,181.3456619333333,181.51803990833332,60.0,95.0
1208,181.3456619333333,181.52005602499997,67.0,82.0
1209,181.3456619333333,181.5210640833333,72.0,99.0
1210,181.3456619333333,181.52509631666663,64.0,97.0
1211,180.98376899166664,181.73174827499997,48.0,94.0
1212,181.46763699166664,181.73477244999998,55.0,97.0
1213,181.70957099166665,181.74586109166665,67.0,76.0
1214,181.70957099166665,181.761990025,64.0,88.0
1215,181.70957099166665,181.77509478333332,72.0,99.0
1216,181.70957099166665,181.79424789166663,60.0,99.0
1217,181.95150499166664,182.01299654999997,48.0,65.0
1218,181.95150499166664,182.17529394166664,69.0,100.0
1219,181.95150499166664,182.1863825833333,57.0,100.0
1220,181.95150499166664,182.1924309333333,65.0,92.0
1221,181.95150499166664,182.20150345833332,60.0,97.0
1222,181.95150499166664,182.3496880333333,53.0,99.0
1223,182.43537299166664,182.61682349166665,69.0,92.0
1224,182.43537299166664,182.61984766666663,57.0,91.0
1225,182.43537299166664,182.64807329999996,60.0,83.0
1226,182.43537299166664,182.65109747499997,65.0,70.0
1227,182.43537299166664,182.6551297083333,53.0,92.0
1228,182.67730699166665,182.70654068333332,57.0,92.0
1229,182.67730699166665,182.7367824333333,69.0,78.0
1230,182.67730699166665,182.74081466666664,60.0,72.0
1231,182.67730699166665,182.75291136666664,65.0,62.0
1232,182.79827399166663,182.87287030833332,53.0,17.0
1233,182.91924099166664,183.04625634166663,72.0,90.0
1234,182.91924099166664,183.0573449833333,60.0,77.0
1235,182.91924099166664,183.06440139166665,64.0,58.0
1236,182.91924099166664,183.06440139166665,69.0,51.0
1237,183.04020799166665,183.177303925,53.0,77.0
1238,183.16117499166666,183.3385932583333,69.0,96.0
1239,183.16117499166666,183.3416174333333,57.0,102.0
1240,183.16117499166666,183.35673830833332,60.0,94.0
1241,183.16117499166666,183.35673830833332,65.0,83.0
1242,183.28214199166663,183.52407599166665,53.0,91.0
1243,181.95150499166664,183.62588988333331,41.0,100.0
1244,183.88697699166664,184.09766118333332,67.0,84.0
1245,183.88697699166664,184.10270147499998,55.0,100.0
1246,183.88697699166664,184.1279029333333,64.0,84.0
1247,183.88697699166664,184.13495934166664,60.0,77.0
1248,183.88697699166664,184.20350730833331,52.0,95.0
1249,184.37386916666665,184.42023984999997,55.0,97.0
1250,184.37386916666665,184.43536072499998,60.0,80.0
1251,184.37386916666665,184.4625783,67.0,80.0
1252,184.37386916666665,184.46358635833332,64.0,72.0
1253,184.37084499166664,184.73172987499998,52.0,91.0
1254,184.61277899166663,184.81943094999997,72.0,110.0
1255,184.61277899166663,184.84866464166663,60.0,106.0
1256,183.88697699166664,185.14503379166663,48.0,85.0
1257,183.88697699166664,185.43333847499997,40.0,89.0
1258,185.09664699166663,185.43333847499997,64.0,85.0
1259,185.09664699166663,185.43333847499997,67.0,96.0
1260,185.09664699166663,185.43938682499999,55.0,106.0
1261,185.09664699166663,185.44442711666665,60.0,91.0
1262,184.97567999166665,185.46559634166664,52.0,100.0
1263,185.33858099166665,185.5916036333333,48.0,99.0
1264,185.58051499166663,185.62184538333332,40.0,79.0
1265,185.58051499166663,185.63797431666663,67.0,73.0
1266,185.58051499166663,185.64099849166664,60.0,74.0
1267,185.58051499166663,185.65007101666663,64.0,68.0
1268,185.58051499166663,185.66619994999996,55.0,92.0
1269,185.82244899166665,186.1117617333333,53.0,97.0
1270,185.82244899166665,186.1208342583333,65.0,95.0
1271,185.82244899166665,186.12688260833332,60.0,80.0
1272,185.82244899166665,186.1420034833333,57.0,87.0
1273,185.82244899166665,186.24079319999998,48.0,88.0
1274,186.18534999166664,186.44643709999997,53.0,91.0
1275,186.18534999166664,186.45752574166664,60.0,90.0
1276,186.18534999166664,186.46054991666665,57.0,108.0
1277,186.18534999166664,186.46054991666665,65.0,87.0
1278,186.54825099166663,186.85066849166665,65.0,82.0
1279,186.54825099166663,186.86377324999998,53.0,87.0
1280,186.54825099166663,186.866797425,60.0,87.0
1281,186.54825099166663,186.88494247499997,57.0,87.0
1282,186.79018499166665,187.090586375,48.0,100.0
1283,185.82244899166665,187.17223909999998,38.0,95.0
1284,187.03211899166664,187.27808522499998,53.0,95.0
1285,187.27405299166665,187.35973794999998,38.0,88.0
1286,187.03211899166664,187.3607460083333,57.0,100.0
1287,187.15308599166664,187.37788299999997,48.0,84.0
1288,187.03211899166664,187.38594746666664,60.0,92.0
1289,187.03211899166664,187.4182053333333,65.0,99.0
1290,187.75792099166665,188.09158829999998,67.0,90.0
1291,187.75792099166665,188.1167897583333,59.0,83.0
1292,187.75792099166665,188.16517655833331,62.0,75.0
1293,187.75792099166665,188.54420649166664,55.0,92.0
1294,188.48372299166664,188.79118078333332,69.0,93.0
1295,188.96759099166664,189.17625906666663,71.0,86.0
1296,187.75792099166665,189.21960557499997,43.0,88.0
1297,189.20952499166665,189.2659762583333,55.0,57.0
1298,189.6923849333333,190.145003125,70.0,62.0
1299,189.6923849333333,190.21455914999999,62.0,72.0
1300,189.6923849333333,190.24681701666665,65.0,81.0
1301,190.41818693333332,190.828466675,60.0,94.0
1302,190.1762529333333,190.96757872499998,58.0,78.0
1303,190.90205493333332,190.97866736666666,60.0,50.0
1304,189.93431893333332,191.02705416666663,53.0,86.0
1305,189.6923849333333,191.0502395083333,46.0,48.0
1306,190.90205493333332,191.17523874166665,65.0,96.0
1307,191.1439889333333,191.20548049166663,53.0,99.0
1308,191.1439889333333,191.21858524999996,58.0,42.0
1309,191.1439889333333,191.27302039999998,46.0,63.0
1310,191.38592293333332,191.54217197499997,60.0,76.0
1311,191.6278569333333,191.91112132499998,60.0,97.0
1312,191.6278569333333,191.91313744166663,65.0,88.0
1313,191.6278569333333,191.91918579166665,57.0,85.0
1314,191.6278569333333,191.92321802499998,55.0,81.0
1315,191.6278569333333,191.9302744333333,43.0,111.0
1316,192.1117249333333,192.40910214166664,55.0,85.0
1317,192.1117249333333,192.4141424333333,65.0,96.0
1318,192.1117249333333,192.41615854999998,43.0,94.0
1319,192.1117249333333,192.41918272499998,60.0,111.0
1320,192.1117249333333,192.4292633083333,57.0,84.0
1321,192.5955929333333,192.92926024166664,43.0,103.0
1322,192.5955929333333,192.92926024166664,55.0,88.0
1323,192.5955929333333,192.94740529166666,65.0,91.0
1324,192.5955929333333,192.97462286666664,60.0,101.0
1325,192.5955929333333,192.97764704166664,57.0,76.0
1326,193.0794609333333,193.23470191666664,55.0,106.0
1327,193.0794609333333,193.38087037499997,60.0,106.0
1328,193.0794609333333,193.3818784333333,57.0,77.0
1329,193.0794609333333,193.38591066666663,43.0,117.0
1330,193.0794609333333,193.38994289999997,65.0,99.0
1331,193.5633289333333,193.846593325,74.0,86.0
1332,193.5633289333333,193.8536497333333,67.0,69.0
1333,194.2891309333333,194.7729989333333,72.0,77.0
1334,194.0471969333333,194.80424874166664,67.0,60.0
1335,193.8052629333333,194.9846911833333,64.0,60.0
1336,193.5633289333333,195.00686846666665,60.0,57.0
1337,194.7729989333333,195.07944866666665,74.0,81.0
1338,195.4988009333333,196.7840753083333,74.0,77.0
1339,195.4988009333333,196.96149357499996,59.0,54.0
1340,195.4988009333333,196.97459833333332,67.0,57.0
1341,196.95040493333332,197.2437499083333,79.0,60.0
1342,197.43427293333332,197.71955344166665,72.0,81.0
1343,197.43427293333332,197.7245937333333,67.0,68.0
1344,197.91814093333332,198.19737309166663,67.0,60.0
1345,198.1600749333333,198.62781399999997,71.0,86.0
1346,197.6762069333333,198.78406304166663,64.0,68.0
1347,197.43427293333332,198.83749013333332,57.0,60.0
1348,198.6439429333333,198.88386081666664,72.0,82.0
1349,199.3697449333333,199.75683933333332,77.0,63.0
1350,199.3697449333333,199.84958069999996,70.0,72.0
1351,199.8536129333333,199.93526565833332,67.0,55.0
1352,199.6116789333333,199.96853158333332,62.0,48.0
1353,199.3697449333333,199.99070886666664,55.0,64.0
1354,199.8536129333333,200.02901508333332,76.0,51.0
1355,200.0955469333333,200.76792184166663,79.0,70.0
1356,200.3374809333333,200.84251815833332,48.0,67.0
1357,200.5794149333333,200.88888884166664,55.0,44.0
1358,200.8213489333333,200.96449321666665,60.0,62.0
1359,200.9423159333333,201.10360526666665,67.0,72.0
1360,201.0632829333333,201.25884624999998,72.0,59.0
1361,201.18424993333332,201.36973266666664,74.0,56.0
1362,201.3052169333333,201.74876259999996,79.0,60.0
1363,202.0310189333333,202.16912292499998,69.0,46.0
1364,202.0310189333333,202.38585546666664,77.0,66.0
1365,201.5471509333333,202.57738654999997,60.0,54.0
1366,201.7890849333333,202.7326275333333,65.0,55.0
1367,202.51488693333332,202.78907879999997,67.0,56.0
1368,202.51488693333332,202.8052077333333,76.0,59.0
1369,201.3052169333333,202.81629637499998,53.0,66.0
1370,202.99875493333332,203.1590362083333,74.0,54.0
1371,203.2406889333333,203.48161487499996,67.0,52.0
1372,203.2406889333333,203.4856471083333,72.0,64.0
1373,203.2406889333333,203.5552031333333,52.0,66.0
1374,203.48262293333332,203.61367051666664,60.0,55.0
1375,203.7245569333333,203.91911219166664,71.0,33.0
1376,203.96649093333332,204.19733629166663,72.0,49.0
1377,204.2084249333333,204.61568049999997,67.0,47.0
1378,204.2084249333333,204.66608341666665,74.0,56.0
1379,204.2084249333333,204.73664749999998,64.0,53.0
1380,204.2084249333333,204.75479254999996,57.0,52.0
1381,204.6922929333333,204.77495371666663,72.0,67.0
1382,205.1761609333333,205.31426492499997,62.0,100.0
1383,205.1761609333333,205.3303938583333,38.0,100.0
1384,205.1761609333333,205.34551473333332,50.0,64.0
1385,205.1761609333333,205.34551473333332,57.0,54.0
1386,205.1761609333333,205.34551473333332,65.0,61.0
1387,205.1761609333333,205.34551473333332,72.0,50.0
1388,205.1761609333333,205.34652279166664,69.0,63.0
1389,205.4180949333333,205.55619892499996,62.0,100.0
1390,205.4180949333333,205.5723278583333,38.0,100.0
1391,205.41910299166665,205.58845679166663,50.0,64.0
1392,205.41910299166665,205.58845679166663,57.0,54.0
1393,205.41910299166665,205.58845679166663,65.0,61.0
1394,205.41910299166665,205.58845679166663,72.0,50.0
1395,205.41910299166665,205.58946484999998,69.0,63.0
1396,207.1176812833333,207.4987273333333,43.0,100.0
1397,207.1086087583333,207.5077998583333,59.0,102.0
1398,207.1176812833333,207.51586432499997,55.0,100.0
1399,207.10457652499997,207.52796102499997,67.0,100.0
1400,207.1086087583333,207.52997714166665,62.0,95.0
1401,207.80820124166664,208.10557844999997,67.0,104.0
1402,207.81021735833332,208.12069932499998,59.0,106.0
1403,207.80820124166664,208.13178796666665,62.0,102.0
1404,207.81828182499999,208.1338040833333,43.0,99.0
1405,207.8132415333333,208.15698942499998,55.0,100.0
1406,208.32835934166664,208.4634391583333,55.0,104.0
1407,208.33239157499997,208.49771314166665,59.0,104.0
1408,208.32835934166664,208.50980984166665,69.0,106.0
1409,208.33239157499997,208.52291459999998,62.0,94.0
1410,208.33541574999998,208.74367937499997,43.0,99.0
1411,208.773921125,208.91303317499998,59.0,110.0
1412,208.7719050083333,208.92815404999996,71.0,110.0
1413,208.7688808333333,208.94327492499997,62.0,108.0
1414,208.5662611083333,208.9684763833333,55.0,85.0
1415,209.04609687499996,209.2315796083333,67.0,83.0
1416,209.04609687499996,209.233595725,72.0,92.0
1417,209.04609687499996,209.2406521333333,64.0,85.0
1418,209.04609687499996,209.25073271666665,60.0,94.0
1419,209.40899787499998,209.5491179833333,72.0,99.0
1420,209.40899787499998,209.55415827499996,64.0,88.0
1421,209.40899787499998,209.5642388583333,67.0,86.0
1422,209.04609687499996,209.56524691666664,36.0,109.0
1423,209.04609687499996,209.58339196666665,48.0,106.0
1424,209.77189887499998,210.04911491666664,72.0,99.0
1425,209.77189887499998,210.06826802499998,60.0,92.0
1426,209.77189887499998,210.07028414166663,67.0,84.0
1427,209.77189887499998,210.0813727833333,64.0,90.0
1428,210.0239134583333,210.2083881333333,55.0,111.0
1429,210.02693763333332,210.22451706666664,43.0,111.0
1430,210.25576687499998,210.47249941666664,72.0,95.0
1431,210.25576687499998,210.51080563333332,60.0,95.0
1432,210.37572581666663,210.53298291666664,52.0,106.0
1433,210.37975804999996,210.54407155833331,40.0,105.0
1434,210.25576687499998,210.54608767499997,67.0,84.0
1435,210.25576687499998,210.56927301666664,64.0,91.0
1436,210.61866787499997,210.66403049999997,72.0,80.0
1437,210.61866787499997,210.7013286583333,67.0,66.0
1438,210.61866787499997,210.73257846666664,64.0,71.0
1439,210.69024001666665,210.77894914999996,36.0,102.0
1440,210.69024001666665,210.7829813833333,48.0,100.0
1441,210.98156887499997,211.24164792499997,59.0,95.0
1442,210.98156887499997,211.2426559833333,71.0,93.0
1443,210.98156887499997,211.25374462499997,67.0,87.0
1444,210.98156887499997,211.25979297499998,62.0,94.0
1445,211.46543687499997,211.65293572499996,59.0,85.0
1446,211.46543687499997,211.69829834999996,62.0,79.0
1447,211.46543687499997,211.7053547583333,67.0,68.0
1448,211.46543687499997,211.71543534166665,71.0,83.0
1449,210.98156887499997,211.7779349583333,47.0,108.0
1450,211.94930487499997,211.99668361666664,74.0,79.0
1451,211.94930487499997,212.00978837499997,71.0,82.0
1452,211.94930487499997,212.0743041083333,67.0,99.0
1453,211.94930487499997,212.08236857499998,79.0,104.0
1454,210.98156887499997,212.2224886833333,35.0,110.0
1455,211.82833787499996,212.25575460833332,47.0,100.0
1456,212.31220587499996,212.41200364999997,62.0,95.0
1457,212.31220587499996,212.42712452499998,59.0,97.0
1458,212.31220587499996,212.43317287499997,71.0,93.0
1459,212.31220587499996,212.48659996666663,67.0,84.0
1460,212.43317287499997,212.49668054999998,35.0,114.0
1461,212.43317287499997,212.50172084166664,47.0,108.0
1462,212.67510687499998,212.72046949999998,47.0,81.0
1463,212.91704087499997,213.1539345833333,69.0,102.0
1464,212.91704087499997,213.16199904999996,64.0,87.0
1465,212.91704087499997,213.16502322499997,57.0,100.0
1466,212.91704087499997,213.17913604166665,60.0,94.0
1467,212.91704087499997,213.34848984166663,52.0,91.0
1468,213.27994187499996,213.4533279083333,69.0,80.0
1469,213.27994187499996,213.4593762583333,57.0,74.0
1470,213.27994187499996,213.4865938333333,60.0,79.0
1471,213.27994187499996,213.48760189166663,64.0,64.0
1472,213.64284287499999,213.87469629166665,57.0,90.0
1473,213.64284287499999,213.91501862499996,60.0,84.0
1474,213.64284287499999,213.9250992083333,64.0,64.0
1475,213.64284287499999,213.92913144166664,69.0,95.0
1476,213.88477687499997,214.18316214166663,52.0,90.0
1477,214.126710875,214.22550059166664,72.0,90.0
1478,214.126710875,214.23558117499996,69.0,83.0
1479,214.126710875,214.2426375833333,64.0,81.0
1480,214.126710875,214.24969399166665,60.0,85.0
1481,214.24767787499997,214.41098332499996,52.0,63.0
1482,212.91704087499997,214.61864334166663,45.0,84.0
1483,214.61057887499996,214.67106237499996,52.0,55.0
1484,214.61057887499996,214.6750946083333,69.0,68.0
1485,214.61057887499996,214.68517519166664,60.0,68.0
1486,214.61057887499996,214.71844111666664,64.0,74.0
1487,214.61057887499996,214.7204572333333,57.0,63.0
1488,214.85251287499997,215.0682373583333,67.0,86.0
1489,214.85251287499997,215.08235017499996,55.0,92.0
1490,214.85251287499997,215.08839852499997,60.0,77.0
1491,214.85251287499997,215.09747104999997,64.0,81.0
1492,214.85251287499997,215.30009077499997,52.0,80.0
1493,215.21541387499997,215.37166291666665,67.0,68.0
1494,215.21541387499997,215.3767032083333,55.0,80.0
1495,215.21541387499997,215.38174349999997,64.0,62.0
1496,215.21541387499997,215.38375961666665,60.0,74.0
1497,215.57831487499996,215.64988701666664,55.0,83.0
1498,215.57831487499996,215.68920129166665,67.0,67.0
1499,215.57831487499996,215.73254779999996,64.0,64.0
1500,215.57831487499996,215.74968479166665,60.0,76.0
1501,215.82024887499998,215.96137704166665,69.0,100.0
1502,215.82024887499998,215.9664173333333,57.0,99.0
1503,215.69928187499997,216.08536821666664,52.0,95.0
1504,215.82024887499998,216.2506897833333,64.0,41.0
1505,215.82024887499998,216.26984289166663,60.0,81.0
1506,214.85251287499997,216.3656084333333,43.0,83.0
1507,216.06218287499996,216.5319380583333,55.0,100.0
1508,216.30411687499998,216.57326844999997,52.0,99.0
1509,216.06218287499996,216.5863732083333,67.0,90.0
1510,216.54605087499996,216.59746184999997,43.0,68.0
1511,216.54605087499996,216.6982676833333,64.0,81.0
1512,216.78798487499998,217.03193499166665,57.0,100.0
1513,216.78798487499998,217.03495916666662,60.0,97.0
1514,216.78798487499998,217.03798334166663,65.0,96.0
1515,216.78798487499998,217.14886975833332,53.0,83.0
1516,217.15088587499997,217.33132831666663,57.0,83.0
1517,217.15088587499997,217.33435249166664,65.0,75.0
1518,217.15088587499997,217.34443307499998,60.0,76.0
1519,217.39281987499996,217.48354512499998,53.0,68.0
1520,217.51378687499997,217.56721396666663,60.0,63.0
1521,217.51378687499997,217.5783026083333,57.0,79.0
1522,217.51378687499997,217.61358464999998,67.0,89.0
1523,217.51378687499997,217.7627772833333,53.0,71.0
1524,217.75572087499998,217.9684211833333,69.0,108.0
1525,217.75572087499998,217.97950982499998,57.0,102.0
1526,217.75572087499998,217.9956387583333,60.0,95.0
1527,217.87668787499996,218.01176769166665,53.0,41.0
1528,216.78798487499998,218.28797567499998,48.0,77.0
1529,218.11862187499997,218.29604014166665,57.0,80.0
1530,218.11862187499997,218.30813684166665,67.0,96.0
1531,218.11862187499997,218.31216907499999,60.0,75.0
1532,216.78798487499998,218.4553133583333,41.0,76.0
1533,218.48152287499997,218.53293384999998,60.0,77.0
1534,218.23958887499998,218.5430144333333,53.0,72.0
1535,218.48152287499997,218.58636094166664,57.0,83.0
1536,218.48152287499997,218.5944254083333,48.0,47.0
1537,218.48152287499997,218.60853822499996,65.0,86.0
1538,218.72345687499998,218.92809271666664,55.0,91.0
1539,218.72345687499998,218.93817329999996,60.0,83.0
1540,218.72345687499998,218.94623776666663,64.0,91.0
1541,218.72345687499998,219.03091466666663,52.0,91.0
1542,219.08635787499998,219.37667867499997,55.0,90.0
1543,219.08635787499998,219.39079149166665,60.0,69.0
1544,219.08635787499998,219.43413799999996,64.0,68.0
1545,219.20732487499998,219.6377657833333,52.0,99.0
1546,219.44925887499997,219.8857481333333,67.0,102.0
1547,219.44925887499997,219.88978036666663,64.0,88.0
1548,219.44925887499997,219.90490124166664,55.0,91.0
1549,219.44925887499997,219.91094959166665,60.0,83.0
1550,219.93312687499997,220.2184073833333,52.0,104.0
1551,218.72345687499998,220.30812457499997,48.0,44.0
1552,220.17506087499996,220.44018021666665,55.0,91.0
1553,220.17506087499996,220.48251866666664,60.0,87.0
1554,218.72345687499998,220.48453478333332,40.0,85.0
1555,220.29602787499996,220.48957507499998,52.0,77.0
1556,220.17506087499996,220.51981682499996,64.0,88.0
1557,220.41699487499997,220.52284099999997,48.0,84.0
1558,220.65892887499996,220.8474357833333,57.0,100.0
1559,220.65892887499996,220.85751636666663,60.0,91.0
1560,220.65892887499996,220.86154859999996,65.0,95.0
1561,220.65892887499996,221.08735366666664,48.0,84.0
1562,221.02182987499998,221.1589258083333,60.0,102.0
1563,221.02182987499998,221.15993386666665,57.0,108.0
1564,221.02182987499998,221.17001444999997,65.0,95.0
1565,221.38473087499997,221.7032773083333,57.0,99.0
1566,221.38473087499997,221.71033371666664,60.0,97.0
1567,221.38473087499997,221.71134177499997,65.0,92.0
1568,221.62666487499996,221.9058970333333,50.0,91.0
1569,221.86859887499998,222.0480332583333,57.0,97.0
1570,221.86859887499998,222.05004937499996,65.0,93.0
1571,221.86859887499998,222.05508966666665,60.0,100.0
1572,220.65892887499996,222.06517024999997,38.0,85.0
1573,222.23149987499997,222.28291084999998,38.0,76.0
1574,222.11053287499996,222.3202090083333,57.0,95.0
1575,221.98956587499998,222.33432182499996,50.0,85.0
1576,222.11053287499996,222.35750716666664,65.0,90.0
1577,222.11053287499996,222.3897650333333,60.0,94.0
1578,222.59540893333332,223.26879189999997,65.0,67.0
1579,222.59540893333332,223.3635493833333,69.0,70.0
1580,222.59540893333332,223.3665735583333,60.0,82.0
1581,222.59540893333332,223.3665735583333,72.0,62.0
1582,223.3212109333333,223.7476196083333,55.0,40.0
1583,223.5631449333333,224.03390817499997,72.0,58.0
1584,223.5631449333333,224.07624662499998,65.0,73.0
1585,223.5631449333333,224.08229497499997,60.0,64.0
1586,223.5631449333333,224.09640779166665,69.0,67.0
1587,222.59540893333332,224.10548031666664,43.0,73.0
1588,224.0470129333333,224.1831008083333,55.0,57.0
1589,224.5308809333333,224.94418484999997,67.0,53.0
1590,224.5308809333333,225.02583757499997,65.0,64.0
1591,224.5308809333333,225.07724854999998,72.0,58.0
1592,225.0147489333333,225.56010849166663,55.0,34.0
1593,225.4986169333333,225.70627694999996,72.0,49.0
1594,225.4986169333333,225.9340981333333,69.0,61.0
1595,225.4986169333333,226.0187750333333,60.0,47.0
1596,225.4986169333333,226.3242167083333,65.0,70.0
1597,226.4663529333333,226.89679384166664,60.0,50.0
1598,226.4663529333333,227.1195747333333,67.0,63.0
1599,226.4663529333333,227.14679230833332,64.0,58.0
1600,226.4663529333333,227.19618716666665,72.0,59.0
1601,227.1921549333333,227.61856360833332,60.0,41.0
1602,227.4340889333333,227.6336844833333,64.0,55.0
1603,225.9824849333333,227.73449031666664,55.0,47.0
1604,224.5308809333333,227.74961119166665,48.0,73.0
1605,227.67602293333331,227.81412692499998,65.0,52.0
1606,227.9179569333333,228.16190704999997,67.0,53.0
1607,228.4018249333333,229.48649569999998,57.0,55.0
1608,228.4018249333333,229.53488249999998,65.0,44.0
1609,228.4018249333333,229.5540356083333,60.0,57.0
1610,228.4018249333333,229.59133376666665,64.0,48.0
1611,228.4018249333333,229.63165609999996,53.0,55.0
1612,230.3372969333333,230.7395122083333,67.0,48.0
1613,230.3372969333333,230.77076201666662,60.0,44.0
1614,230.3372969333333,230.7727781333333,65.0,47.0
1615,230.3372969333333,230.77479424999996,69.0,49.0
1616,230.8211649333333,231.44313692499998,55.0,34.0
1617,231.3050329333333,231.5227735333333,60.0,44.0
1618,231.3050329333333,231.62458742499996,67.0,47.0
1619,231.3050329333333,231.6437405333333,65.0,48.0
1620,231.3050329333333,231.6951515083333,69.0,44.0
1621,232.35542971666663,233.38163309999996,79.0,37.0
1622,232.38163923333332,233.70824399999998,84.0,42.0
1623,232.4511952583333,233.8362674083333,86.0,29.0
1624,232.5419205083333,233.9663069333333,91.0,43.0
1625,230.3372969333333,234.04896771666662,43.0,55.0
1626,231.90986793333332,234.04997577499998,55.0,41.0
1627,235.27073441666664,235.34331461666665,76.0,45.0
1628,235.2031945083333,235.3453307333333,72.0,41.0
1629,235.31912121666664,235.72234454999997,79.0,58.0
1630,235.71528814166663,236.24552682499996,72.0,56.0
1631,235.1699285833333,236.31810702499996,60.0,47.0
1632,235.29291169999996,236.3281876083333,67.0,47.0
1633,236.11750341666664,236.6064117083333,74.0,64.0
1634,236.54189597499996,237.02878814999997,79.0,58.0
1635,237.03685261666664,238.23240979999997,76.0,43.0
1636,238.72837449999997,238.9017605333333,72.0,22.0
1637,238.81204334166662,239.70719914166665,79.0,63.0
1638,239.2676857083333,239.93703644166663,72.0,62.0
1639,239.6850218583333,240.15074480833331,74.0,58.0
1640,240.14066422499997,240.57513736666664,77.0,50.0
1641,240.58118571666662,241.5358169583333,76.0,50.0
1642,241.41888219166663,241.76162202499998,72.0,55.0
1643,238.80095469999998,241.79387989166665,58.0,59.0
1644,238.84934149999998,241.82210552499996,67.0,43.0
1645,242.6698825833333,244.40475097499996,71.0,44.0
1646,242.6759309333333,244.41079932499997,48.0,42.0
1647,242.5852056833333,244.4420491333333,67.0,37.0
1648,242.75556754166664,244.5237018583333,76.0,43.0
