,start,end,pitch,velocity
0,27.0766895,27.754881125,66.0,93.0
1,27.7149875,28.308072725,69.0,84.0
2,28.3532855,28.9609983875,71.0,86.0
3,28.9915835,29.2961048375,69.0,95.0
4,29.3107325,29.653817675,68.0,90.0
5,29.6298815,30.0939773375,66.0,84.0
6,30.2681795,30.7748285375,69.0,93.0
7,30.9064775,32.774828937500004,71.0,90.0
8,32.8213715,33.08200985,69.0,84.0
9,33.1405205,33.4503609875,68.0,81.0
10,33.459669500000004,33.930414275000004,66.0,84.0
11,34.097967499999996,34.185733475,69.0,73.0
12,34.7362655,35.249563475,69.0,83.0
13,35.3745635,35.701691225000005,68.0,79.0
14,36.0128615,36.554085012499996,66.0,84.0
15,38.566053499999995,39.011532312499995,66.0,106.0
16,39.2043515,39.6684473375,69.0,98.0
17,39.8426495,40.2562134125,71.0,91.0
18,40.4809475,40.7242986125,69.0,83.0
19,40.800096499999995,40.9982348375,66.0,98.0
20,41.1192455,41.4982349375,64.0,90.0
21,41.7575435,42.326692550000004,66.0,95.0
22,42.3958415,42.8812139375,62.0,94.0
23,43.0341395,43.5301502375,64.0,90.0
24,43.6724375,44.2322780375,66.0,86.0
25,44.3107355,45.02882075,69.0,90.0
26,44.9490335,45.6657889625,62.0,98.0
27,45.5873315,46.2681827,64.0,90.0
28,46.2256295,46.7881296125,66.0,90.0
29,46.8639275,47.127225425,64.0,84.0
30,47.1830765,47.4822786875,62.0,84.0
31,47.5022255,48.100629875,61.0,90.0
32,48.7788215,49.111268375,59.0,90.0
33,52.6086095,53.24158835,66.0,93.0
34,53.2469075,53.87988635,69.0,84.0
35,53.8852055,54.51818435,71.0,86.0
36,54.5235035,54.83733335,69.0,95.0
37,54.8426525,55.15648235,68.0,90.0
38,55.1618015,55.794780349999996,66.0,84.0
39,55.8000995,56.43307835,69.0,93.0
40,56.4383975,58.34797235,71.0,90.0
41,58.3532915,58.66712135,69.0,84.0
42,58.6724405,58.98627035,68.0,81.0
43,58.991589499999996,59.62456835,66.0,84.0
44,59.6298875,60.262866349999996,69.0,73.0
45,60.2681855,60.90116435,69.0,83.0
46,60.9064835,61.53946235,68.0,79.0
47,61.5447815,64.09265435,66.0,84.0
48,64.0979735,64.73095235,66.0,106.0
49,64.7362715,65.36925035,69.0,98.0
50,65.3745695,66.00754835000001,71.0,91.0
51,66.0128675,66.32669734999999,69.0,83.0
52,66.33201650000001,66.64584635,66.0,98.0
53,66.65116549999999,67.28414434999999,64.0,90.0
54,67.2894635,67.92244235,66.0,95.0
55,67.9277615,68.56074035,62.0,94.0
56,68.5660595,69.19903835,64.0,90.0
57,69.2043575,69.83733635,66.0,86.0
58,69.8426555,70.47563435,69.0,90.0
59,70.4809535,71.11393235,62.0,98.0
60,71.11925149999999,71.75223034999999,64.0,90.0
61,71.7575495,72.39052835,66.0,90.0
62,72.3958475,72.70967734999999,64.0,84.0
63,72.7149965,73.02882635,62.0,84.0
64,73.0341455,74.30267875833333,61.0,90.0
65,74.30794191666666,78.05004749166666,59.0,90.0
66,101.09602550000001,101.774217125,66.0,93.0
67,101.73432350000002,102.32740872500001,69.0,84.0
68,102.37262150000001,102.98033438750001,71.0,86.0
69,103.01091950000001,103.3154408375,69.0,95.0
70,103.33006850000001,103.67315367500001,68.0,90.0
71,103.6492175,104.11331333750002,66.0,84.0
72,104.28751550000001,104.79416453750001,69.0,93.0
73,104.92581350000002,106.79416493750001,71.0,90.0
74,106.84070750000001,107.10134585000002,69.0,84.0
75,107.15985650000002,107.46969698750001,68.0,81.0
76,107.47900550000001,107.94975027500001,66.0,84.0
77,108.11730350000002,108.20506947500002,69.0,73.0
78,108.75560150000001,109.26889947500001,69.0,83.0
79,109.3938995,109.72102722500001,68.0,79.0
80,110.03219750000001,110.5734210125,66.0,84.0
81,112.58538950000002,113.03086831250002,66.0,106.0
82,113.22368750000001,113.68778333750001,69.0,98.0
83,113.86198550000002,114.27554941250001,71.0,91.0
84,114.50028350000001,114.74363461250002,69.0,83.0
85,114.8194325,115.01757083750002,66.0,98.0
86,115.13858150000002,115.51757093750001,64.0,90.0
87,115.7768795,116.34602855000001,66.0,95.0
88,116.41517750000001,116.90054993750002,62.0,94.0
89,117.05347550000002,117.54948623750002,64.0,90.0
90,117.69177350000001,118.25161403750002,66.0,86.0
91,118.33007150000002,119.04815675,69.0,90.0
92,118.96836950000001,119.68512496250001,62.0,98.0
93,119.60666750000001,120.2875187,64.0,90.0
94,120.2449655,120.80746561250001,66.0,90.0
95,120.88326350000001,121.14656142500002,64.0,84.0
96,121.20241250000001,121.50161468750001,62.0,84.0
97,121.52156150000002,122.11996587500002,61.0,90.0
98,122.79815750000002,123.13060437500002,59.0,90.0
99,126.62794550000001,127.26092435000001,66.0,93.0
100,127.2662435,127.89922235,69.0,84.0
101,127.90454150000002,128.53752035000002,71.0,86.0
102,128.5428395,128.85666935,69.0,95.0
103,128.8619885,129.17581835000001,68.0,90.0
104,129.1811375,129.81411635,66.0,84.0
105,129.8194355,130.45241435000003,69.0,93.0
106,130.45773350000002,132.36730835,71.0,90.0
107,132.37262750000002,132.68645735,69.0,84.0
108,132.6917765,133.00560635000002,68.0,81.0
109,133.0109255,133.64390435,66.0,84.0
110,133.6492235,134.28220235,69.0,73.0
111,134.28752150000003,134.92050035,69.0,83.0
112,134.92581950000002,135.55879835000002,68.0,79.0
113,135.5641175,138.11199035,66.0,84.0
114,138.1173095,138.75028835,66.0,106.0
115,138.7556075,139.38858635000003,69.0,98.0
116,139.39390550000002,140.02688435000002,71.0,91.0
117,140.0322035,140.34603335000003,69.0,83.0
118,140.35135250000002,140.66518235,66.0,98.0
119,140.6705015,141.30348035,64.0,90.0
120,141.30879950000002,141.94177835000002,66.0,95.0
121,141.9470975,142.58007635,62.0,94.0
122,142.5853955,143.21837435,64.0,90.0
123,143.22369350000002,143.85667235,66.0,86.0
124,143.86199150000002,144.49497035000002,69.0,90.0
125,144.5002895,145.13326835,62.0,98.0
126,145.13858750000003,145.7609280416667,64.0,90.0
127,145.76603008333333,146.38381135,66.0,90.0
128,146.38913050000002,146.70296035,64.0,84.0
129,146.7082795,147.02210935000002,62.0,84.0
130,147.0274285,148.29870535,61.0,90.0
131,148.3040245,152.08594015,59.0,90.0
132,177.6522945,178.28527335,66.0,93.0
133,178.2905925,178.92357135,69.0,84.0
134,178.92889050000002,179.56186935000002,71.0,86.0
135,179.56718850000001,179.88101835,69.0,95.0
136,179.88633750000002,180.20016735000002,68.0,90.0
137,180.2054865,180.83846535,66.0,84.0
138,180.84378450000003,181.47676335000003,69.0,93.0
139,181.48208250000002,183.39165735,71.0,90.0
140,183.39697650000002,183.71080635,69.0,84.0
141,183.7161255,184.02995535000002,68.0,81.0
142,184.0352745,184.66825335000001,66.0,84.0
143,184.6735725,185.30655135,69.0,73.0
144,185.31187050000003,185.94484935000003,69.0,83.0
145,185.95016850000002,186.58314735000002,68.0,79.0
146,186.5884665,189.13633935000001,66.0,84.0
147,189.1416585,189.77463735,66.0,106.0
148,189.77995650000003,190.41293535000003,69.0,98.0
149,190.41825450000002,191.05123335000002,71.0,91.0
150,191.0565525,191.37038235,69.0,83.0
151,191.37570150000002,191.68953135,66.0,98.0
152,191.6948505,192.32239933333335,64.0,90.0
153,192.32760766666667,192.94739933333335,66.0,95.0
154,192.95260766666667,193.57239933333335,62.0,94.0
155,193.57760766666667,194.20282935,64.0,90.0
156,194.20814850000002,194.84112735000002,66.0,86.0
157,194.8464465,195.47942535,69.0,90.0
158,195.4847445,196.11772335,62.0,98.0
159,196.1230425,196.75602135,64.0,90.0
160,196.76134050000002,197.39431935000002,66.0,90.0
161,197.3996385,197.71346835,64.0,84.0
162,197.71878750000002,198.03261735,62.0,84.0
163,198.0379365,199.30921335000002,61.0,90.0
164,199.3145325,203.09644815000001,59.0,90.0
165,204.4209165,205.05389535,66.0,106.0
166,205.0592145,205.69219335,69.0,98.0
167,205.69751250000002,206.33049135000002,71.0,91.0
168,206.3358105,206.64964035,69.0,83.0
169,206.65495950000002,206.96878935,66.0,98.0
170,206.9741085,207.60708735,64.0,90.0
171,207.61240650000002,208.24538535000002,66.0,95.0
172,208.2507045,208.88368335,62.0,94.0
173,208.8890025,209.52198135,64.0,90.0
174,209.5273005,210.16027935,66.0,86.0
175,210.16559850000002,210.79857735000002,69.0,90.0
176,210.8038965,211.43687535,62.0,98.0
177,211.4421945,212.07517335,64.0,90.0
178,212.08049250000002,212.71347135000002,66.0,90.0
179,212.7187905,213.03262035,64.0,84.0
180,213.0379395,213.35176935,62.0,84.0
181,213.3570885,214.62836535,61.0,90.0
182,214.63368450000002,218.41560015000002,59.0,90.0
183,219.7400685,220.37304735,66.0,106.0
184,220.3783665,221.01134535,69.0,98.0
185,221.01666450000002,221.64964335000002,71.0,91.0
186,221.6549625,221.96879235,69.0,83.0
187,221.9741115,222.28794135,66.0,98.0
188,222.2932605,222.92623935,64.0,90.0
189,222.9315585,223.56453735000002,66.0,95.0
190,223.56985650000001,224.20283535000002,62.0,94.0
191,224.2081545,224.84113335,64.0,90.0
192,224.8464525,225.47943135,66.0,86.0
193,225.48475050000002,226.11772935,69.0,90.0
194,226.1230485,226.75602735,62.0,98.0
195,226.7613465,227.39432535,64.0,90.0
196,227.39964450000002,228.03262335,66.0,90.0
197,228.0379425,228.35177235,64.0,84.0
198,228.35709150000002,228.67092135000001,62.0,84.0
199,228.6762405,229.94751735,61.0,90.0
200,229.95283650000002,233.73475215000002,59.0,90.0
201,235.0592205,235.69219935,66.0,106.0
202,235.6975185,236.33049735,69.0,98.0
203,236.33581650000002,236.96879535,71.0,91.0
204,236.9741145,237.28794435,69.0,83.0
205,237.29326350000002,237.60709335,66.0,98.0
206,237.6124125,238.24539135,64.0,90.0
207,238.25071050000003,238.88368935,66.0,95.0
208,238.88900850000002,239.52198735000002,62.0,94.0
209,239.5273065,240.16028535,64.0,90.0
210,240.1656045,240.79858335,66.0,86.0
211,240.8039025,241.43688135000002,69.0,90.0
212,241.4422005,242.07517935,62.0,98.0
213,242.0804985,242.71347735,64.0,90.0
214,242.7187965,243.35177535,66.0,90.0
215,243.35709450000002,243.67092435,64.0,84.0
216,243.6762435,243.99007335000002,62.0,84.0
217,243.9953925,245.26666935,61.0,90.0
218,245.27198850000002,249.05390415,59.0,90.0
