,start,end,pitch,velocity
0,6.020360666666667,6.1319195833333335,62.0,79.0
1,6.020360666666667,6.145360416666667,66.0,78.0
2,6.020360666666667,6.161489416666667,71.0,82.0
3,5.375200666666667,6.357725583333334,47.0,80.0
4,5.375200666666667,6.3832631666666675,59.0,81.0
5,6.6492294166666674,7.45489275,47.0,83.0
6,6.6492294166666674,7.5147331875,59.0,82.0
7,7.2687225,7.994556916666666,62.0,84.0
8,7.2687225,8.002621416666667,71.0,80.0
9,7.2687225,8.006653666666667,66.0,84.0
10,8.555039666666667,8.642405083333333,62.0,84.0
11,8.555039666666667,8.6491255,66.0,84.0
12,8.555039666666667,8.658534083333333,71.0,80.0
13,7.909879666666667,8.91928625,47.0,84.0
14,7.909879666666667,8.9394475,59.0,90.0
15,8.877619666666666,9.268747916666667,62.0,84.0
16,8.877619666666666,9.284876916666667,66.0,84.0
17,8.877619666666666,9.29025325,71.0,80.0
18,9.522779666666667,9.61283325,62.0,83.0
19,9.522779666666667,9.61283325,66.0,82.0
20,9.522779666666667,9.622241833333334,71.0,79.0
21,9.200199666666666,9.96767125,47.0,90.0
22,9.200199666666666,9.997241083333334,59.0,84.0
23,10.167939666666667,10.463808283333334,54.0,84.0
24,9.845359666666667,10.6006504,71.0,83.0
25,9.845359666666667,10.621703033333333,66.0,84.0
26,9.845359666666667,10.6559135625,62.0,84.0
27,10.484860916666666,11.2375905875,47.0,91.0
28,10.484860916666666,11.25221825,59.0,84.0
29,11.1192395,11.850622625,66.0,82.0
30,11.1192395,11.8546119875,62.0,84.0
31,11.1192395,11.8546119875,71.0,82.0
32,11.7575375,12.5673780875,47.0,84.0
33,11.7575375,12.58200575,59.0,86.0
34,12.7149845,12.7801440875,59.0,67.0
35,12.7149845,12.83732495,47.0,84.0
36,12.3958355,13.1312079875,66.0,80.0
37,12.3958355,13.139186712499999,71.0,82.0
38,12.3958355,13.143176075,62.0,83.0
39,13.6724315,13.760197475,64.0,84.0
40,13.6724315,13.773495350000001,61.0,84.0
41,13.6724315,13.773495350000001,69.0,83.0
42,13.0341335,14.0221656125,45.0,93.0
43,13.0341335,14.068708175000001,57.0,83.0
44,13.9915805,14.36924015,69.0,83.0
45,13.9915805,14.377218875,64.0,83.0
46,13.9915805,14.393176325,61.0,82.0
47,14.6298785,14.712325325,64.0,83.0
48,14.6298785,14.7269529875,69.0,83.0
49,14.6298785,14.728282775,61.0,81.0
50,14.3107295,15.0780168875,45.0,86.0
51,14.3107295,15.099293487499999,57.0,83.0
52,14.9490275,15.1937084,64.0,84.0
53,14.9490275,15.254878625,61.0,86.0
54,14.9490275,15.2828041625,69.0,86.0
55,15.5873255,17.558070575000002,38.0,101.0
56,15.5873255,17.73094295,62.0,90.0
57,15.5873255,17.757538699999998,66.0,84.0
58,15.5873255,17.792113175,57.0,86.0
59,15.5873255,17.8625919125,50.0,86.0
60,17.8213685,18.0301451375,57.0,43.0
61,17.8213685,18.0886557875,64.0,84.0
62,17.8213685,18.18838985,49.0,86.0
63,18.1405175,19.0567410875,69.0,78.0
64,18.1405175,19.116581525,62.0,84.0
65,18.1405175,19.1365283375,47.0,93.0
66,18.1405175,19.1950389875,57.0,82.0
67,18.1405175,19.345304974999998,66.0,83.0
68,19.4171135,20.203017912500002,57.0,79.0
69,19.4171135,20.22030515,64.0,91.0
70,19.4171135,20.226954087499998,69.0,84.0
71,19.4171135,20.230943449999998,45.0,86.0
72,19.4171135,20.230943449999998,61.0,84.0
73,20.6937095,21.597965000000002,57.0,82.0
74,20.6937095,21.61392245,69.0,76.0
75,20.6937095,21.6232309625,62.0,84.0
76,20.6937095,21.66711395,66.0,86.0
77,20.6937095,21.696369275000002,50.0,78.0
78,21.970305500000002,22.77349715,69.0,91.0
79,21.970305500000002,22.7801460875,61.0,90.0
80,21.970305500000002,22.7801460875,64.0,91.0
81,21.970305500000002,22.786795025,49.0,86.0
82,23.8851995,23.968976112500002,66.0,79.0
83,23.8851995,23.9809442,62.0,83.0
84,23.8851995,23.996901649999998,71.0,82.0
85,23.2469015,24.249561274999998,47.0,84.0
86,23.2469015,24.2788166,59.0,84.0
87,24.204348500000002,24.61392305,71.0,82.0
88,24.204348500000002,24.6232315625,62.0,86.0
89,24.204348500000002,24.627220925,66.0,86.0
90,24.8426465,24.934401837499998,66.0,84.0
91,24.8426465,24.941050775,62.0,86.0
92,24.8426465,24.9450401375,71.0,82.0
93,24.523497499999998,25.3679125625,54.0,90.0
94,25.1617955,25.385199800000002,71.0,83.0
95,25.1617955,25.3865295875,62.0,90.0
96,25.1617955,25.3958381,66.0,90.0
97,25.8000935,26.108604200000002,66.0,93.0
98,25.8000935,26.115253137499998,71.0,91.0
99,25.8000935,26.1179127125,62.0,95.0
100,25.8000935,26.151157400000002,47.0,98.0
101,25.8000935,26.1604659125,59.0,90.0
102,26.4383915,26.7801468875,66.0,94.0
103,26.4383915,26.7907851875,62.0,96.0
104,26.4383915,26.79477455,71.0,86.0
105,26.4383915,26.796104337499997,47.0,90.0
106,26.4383915,26.8094022125,59.0,91.0
107,28.9915835,29.0806792625,66.0,78.0
108,28.9915835,29.089987775,62.0,84.0
109,28.9915835,29.1086048,71.0,80.0
110,28.3532855,29.377221875,59.0,86.0
111,28.3532855,29.3852006,47.0,78.0
112,29.3107325,29.717647475,66.0,84.0
113,29.3107325,29.7562113125,62.0,84.0
114,29.3107325,29.7695091875,71.0,83.0
115,29.6298815,30.4423816625,54.0,83.0
116,30.587328499999998,30.9024881375,54.0,78.0
117,30.2681795,30.91179665,71.0,82.0
118,30.2681795,30.946371125,66.0,82.0
119,30.2681795,30.9849349625,62.0,80.0
120,31.5447755,31.6312116875,66.0,75.0
121,31.5447755,31.6405202,71.0,77.0
122,31.5447755,31.643179775,62.0,78.0
123,30.9064775,32.004881975,47.0,86.0
124,30.9064775,32.0141904875,59.0,83.0
125,31.8639245,32.318711825,62.0,83.0
126,31.8639245,32.318711825,71.0,80.0
127,31.8639245,32.3306799125,66.0,80.0
128,32.5022225,32.603286350000005,66.0,76.0
129,32.5022225,32.608605499999996,62.0,78.0
130,32.5022225,32.616584225,71.0,80.0
131,32.1830735,33.0234992,54.0,90.0
132,32.8213715,33.57137165,66.0,80.0
133,32.8213715,33.579350375000004,71.0,80.0
134,32.8213715,33.600626975,62.0,82.0
135,34.097967499999996,34.192382412499995,73.0,84.0
136,34.097967499999996,34.2136590125,66.0,81.0
137,34.097967499999996,34.2136590125,69.0,81.0
138,33.459669500000004,34.546105887500005,42.0,84.0
139,33.459669500000004,34.551425037499996,54.0,83.0
140,34.4171165,34.8758931875,73.0,84.0
141,34.4171165,34.9769570375,66.0,82.0
142,34.4171165,35.0727017375,69.0,83.0
143,35.3745635,35.4636592625,73.0,80.0
144,35.3745635,35.484935862499995,69.0,78.0
145,35.3745635,35.48626565,66.0,81.0
146,34.7362655,35.999563625,49.0,90.0
147,35.693712500000004,36.1684466375,73.0,82.0
148,35.693712500000004,36.220308349999996,66.0,78.0
149,35.693712500000004,36.2681807,69.0,80.0
150,36.6511595,36.7482339875,73.0,61.0
151,36.6511595,36.7934467625,69.0,68.0
152,36.6511595,36.8000957,64.0,57.0
153,36.0128615,37.1338723625,42.0,84.0
154,36.0128615,37.165787262500004,54.0,83.0
155,36.9703085,37.3360000625,73.0,75.0
156,36.9703085,37.385202199999995,64.0,63.0
157,36.9703085,37.398500075,69.0,69.0
158,37.6086065,37.701691624999995,73.0,82.0
159,37.6086065,37.7083405625,64.0,80.0
160,37.6086065,37.7110001375,69.0,79.0
161,37.2894575,38.127223625,49.0,90.0
162,38.2469045,38.387861975,54.0,84.0
163,37.9277555,38.566053499999995,73.0,81.0
164,37.9277555,38.6405216,64.0,80.0
165,37.9277555,38.651159899999996,69.0,82.0
166,39.2043515,39.3067451375,66.0,75.0
167,39.2043515,39.313394075,71.0,78.0
168,39.2043515,39.3200430125,62.0,82.0
169,38.566053499999995,39.6724367,47.0,84.0
170,39.5235005,39.8812133375,66.0,78.0
171,39.5235005,39.919777175,71.0,80.0
172,39.5235005,39.9344048375,62.0,82.0
173,39.8426495,40.6950432875,54.0,84.0
174,40.800096499999995,41.0381284625,54.0,80.0
175,40.4809475,41.2402561625,71.0,80.0
176,40.4809475,41.253554037499995,62.0,83.0
177,40.4809475,41.253554037499995,66.0,84.0
178,41.7575435,41.8519584125,73.0,82.0
179,41.7575435,41.85860735,64.0,83.0
180,41.7575435,41.8652562875,69.0,82.0
181,41.1192455,42.160469112499996,45.0,86.0
182,41.1192455,42.1817457125,57.0,84.0
183,42.0766925,42.7748309375,73.0,86.0
184,42.0766925,42.8014266875,64.0,84.0
185,42.0766925,42.8120649875,69.0,83.0
186,42.3958415,43.2083416625,52.0,91.0
187,43.0341395,43.4796183125,73.0,83.0
188,43.0341395,43.48626725,64.0,84.0
189,43.0341395,43.526160875,69.0,83.0
190,44.3107355,44.3998312625,69.0,82.0
191,44.3107355,44.409139775,74.0,84.0
192,44.3107355,44.4104695625,66.0,84.0
193,43.6724375,44.6617994,62.0,84.0
194,43.6724375,44.85860795,50.0,84.0
195,44.6298845,45.002225,74.0,86.0
196,44.6298845,45.0248313875,66.0,90.0
197,44.6298845,45.027490962499996,69.0,86.0
198,44.9490335,45.6391932125,57.0,84.0
199,45.5873315,46.3253635625,74.0,86.0
200,45.5873315,46.3426508,69.0,84.0
201,45.5873315,46.3546188875,66.0,86.0
202,46.8639275,46.9503636875,69.0,77.0
203,46.8639275,46.957012625,73.0,75.0
204,46.8639275,46.967650925,66.0,80.0
205,46.2256295,47.31605525,42.0,90.0
206,46.2256295,47.3173850375,54.0,96.0
207,47.1830765,47.72031065,73.0,80.0
208,47.1830765,47.90116175,69.0,80.0
209,47.1830765,47.9264277125,66.0,84.0
210,47.5022255,48.2562150125,49.0,90.0
211,48.1405235,48.4397256875,73.0,81.0
212,48.1405235,48.441055475,69.0,84.0
213,48.1405235,48.4689810125,66.0,83.0
214,49.4171195,49.504885475,66.0,80.0
215,49.4171195,49.5115344125,71.0,79.0
216,49.4171195,49.5141939875,62.0,84.0
217,48.7788215,49.78414085,47.0,83.0
218,48.7788215,49.790789787499996,59.0,83.0
219,49.7362685,49.90116215,62.0,86.0
220,49.7362685,49.91180045,66.0,86.0
221,49.7362685,49.9131302375,71.0,82.0
222,50.3745665,50.457013325,66.0,86.0
223,50.3745665,50.4636622625,62.0,93.0
224,50.3745665,50.4663218375,71.0,84.0
225,50.0554175,50.925098525,54.0,90.0
226,50.693715499999996,51.382545424999996,66.0,90.0
227,50.693715499999996,51.3891943625,71.0,84.0
228,50.693715499999996,51.398502875,62.0,98.0
229,51.3320135,51.7296199625,47.0,95.0
230,51.3320135,51.7482369875,59.0,90.0
231,51.9703115,52.254886025,66.0,91.0
232,51.9703115,52.2615349625,47.0,93.0
233,51.9703115,52.2615349625,62.0,96.0
234,51.9703115,52.2681839,71.0,86.0
235,51.9703115,52.281481774999996,59.0,90.0
236,54.5235035,54.6232375625,66.0,82.0
237,54.5235035,54.6338758625,62.0,91.0
238,54.5235035,54.6551524625,71.0,82.0
239,53.8852055,54.898503575,47.0,86.0
240,53.8852055,54.9051525125,59.0,82.0
241,54.8426525,55.16712065,66.0,86.0
242,54.8426525,55.169780225,62.0,86.0
243,54.8426525,55.183078099999996,71.0,82.0
244,55.1618015,56.074035725,54.0,90.0
245,55.8000995,56.4383975,62.0,84.0
246,55.8000995,56.5168549625,66.0,82.0
247,55.8000995,56.5514294375,71.0,83.0
248,57.0766955,57.17775935,66.0,73.0
249,57.0766955,57.1844082875,62.0,78.0
250,57.0766955,57.2003657375,71.0,78.0
251,56.4383975,57.2588763875,47.0,86.0
252,56.4383975,57.3333444875,59.0,78.0
253,57.3958445,57.7894616,71.0,83.0
254,57.3958445,57.793450962499996,66.0,84.0
255,57.3958445,57.8000999,62.0,84.0
256,57.7149935,58.50754685,59.0,90.0
257,57.7149935,58.5407915375,47.0,93.0
258,58.3532915,59.11392995,66.0,84.0
259,58.3532915,59.116589525,71.0,84.0
260,58.3532915,59.1418554875,62.0,86.0
261,59.6298875,59.7216428375,66.0,81.0
262,59.6298875,59.7508981625,61.0,84.0
263,59.6298875,59.7562173125,69.0,82.0
264,58.991589499999996,60.0780258875,42.0,86.0
265,58.991589499999996,60.087334399999996,54.0,84.0
266,59.9490365,60.42244085,61.0,86.0
267,59.9490365,60.42244085,66.0,84.0
268,59.9490365,60.44371745,69.0,80.0
269,60.2681855,61.14584525,49.0,91.0
270,60.9064835,61.563398525,69.0,81.0
271,60.9064835,61.669781525,61.0,84.0
272,60.9064835,61.7482389875,66.0,93.0
273,62.1830795,62.2801539875,66.0,84.0
274,62.1830795,62.282813562499996,69.0,73.0
275,62.1830795,62.2881327125,61.0,78.0
276,61.5447815,62.595313625,42.0,84.0
277,61.5447815,62.5979732,54.0,95.0
278,62.5022285,62.9184519875,61.0,84.0
279,62.5022285,62.929090287499996,69.0,81.0
280,62.5022285,62.9397285875,66.0,86.0
281,63.1405265,63.2376009875,61.0,75.0
282,63.1405265,63.24159035,66.0,80.0
283,63.1405265,63.2429201375,69.0,73.0
284,62.8213775,63.6524946875,49.0,93.0
285,63.459675499999996,64.1192501,61.0,81.0
286,63.459675499999996,64.143186275,66.0,84.0
287,63.459675499999996,64.18706926249999,69.0,76.0
288,64.7362715,64.8213779,66.0,83.0
289,64.7362715,64.8306864125,62.0,86.0
290,64.7362715,64.83600556249999,71.0,82.0
291,64.0979735,65.14451626249999,59.0,91.0
292,64.0979735,65.1631332875,47.0,62.0
293,65.0554205,65.472973775,62.0,86.0
294,65.0554205,65.5168567625,71.0,82.0
295,65.0554205,65.5248354875,66.0,83.0
296,65.3745695,66.42909098749999,54.0,86.0
297,66.0128675,66.6298889,62.0,90.0
298,66.0128675,66.70302721249999,66.0,86.0
299,66.0128675,66.707016575,71.0,82.0
300,67.2894635,67.409144375,64.0,78.0
301,67.2894635,67.409144375,73.0,83.0
302,67.2894635,67.414463525,69.0,73.0
303,66.65116549999999,67.78148487499999,45.0,83.0
304,66.65116549999999,67.79478275,57.0,90.0
305,67.60861249999999,68.19105942499999,64.0,79.0
306,67.60861249999999,68.3094105125,73.0,82.0
307,67.60861249999999,68.3426552,69.0,78.0
308,67.9277615,68.685740375,52.0,86.0
309,68.5660595,69.074038325,64.0,83.0
310,68.5660595,69.13254897499999,73.0,84.0
311,68.5660595,69.244251125,69.0,86.0
312,69.8426555,69.925102325,69.0,72.0
313,69.8426555,69.9503682875,66.0,81.0
314,69.8426555,69.9503682875,74.0,86.0
315,69.2043575,70.254889625,62.0,96.0
316,69.2043575,70.2588789875,50.0,84.0
317,70.1618045,70.67776205,69.0,79.0
318,70.1618045,70.7110067375,66.0,83.0
319,70.1618045,70.7189854625,74.0,86.0
320,70.4809535,71.281485575,57.0,86.0
321,71.11925149999999,71.7575495,73.0,83.0
322,71.11925149999999,71.78680482499999,64.0,84.0
323,71.11925149999999,71.79478355,69.0,86.0
324,72.3958475,72.47829432500001,69.0,78.0
325,72.3958475,72.4915922,73.0,76.0
326,72.3958475,72.49691135,66.0,83.0
327,71.7575495,72.75223055000001,42.0,90.0
328,71.7575495,72.754890125,54.0,96.0
329,72.7149965,73.3838796125,73.0,81.0
330,72.7149965,73.4237732375,69.0,82.0
331,72.7149965,73.44637962499999,66.0,83.0
332,73.0341455,73.76153926250001,49.0,93.0
333,73.6724435,74.28031033541666,69.0,90.0
334,73.6724435,74.28820507291665,73.0,84.0
335,73.6724435,74.31978402291666,66.0,84.0
336,74.93952091666667,75.0316261875,66.0,84.0
337,74.93952091666667,75.03688934583333,62.0,84.0
338,74.93952091666667,75.03952092499999,71.0,82.0
339,74.30794191666666,75.33688937083333,47.0,86.0
340,74.30794191666666,75.34741568749999,59.0,90.0
341,75.25531041666666,75.64741571249999,71.0,83.0
342,75.25531041666666,75.67241571458332,66.0,86.0
343,75.25531041666666,75.67767887291666,62.0,91.0
344,75.57109991666665,76.4526789375,54.0,91.0
345,76.20267891666666,76.56978421041666,66.0,91.0
346,76.20267891666666,76.57636315833332,62.0,99.0
347,76.20267891666666,76.58688947499999,71.0,86.0
348,76.83425791666666,77.07241583125,47.0,86.0
349,76.83425791666666,77.0842579375,59.0,86.0
350,77.46583691666666,77.51188955208333,66.0,62.0
351,77.46583691666666,77.54478429166666,62.0,78.0
352,77.46583691666666,77.55267902916665,71.0,75.0
353,77.46583691666666,77.82373168333332,47.0,86.0
354,77.46583691666666,77.82767905208333,59.0,86.0
355,77.78162641666665,78.134258025,71.0,83.0
356,77.78162641666665,78.16846855416667,66.0,79.0
357,77.78162641666665,78.18557381874999,62.0,84.0
358,78.41320541666666,78.50267910833333,66.0,82.0
359,78.41320541666666,78.50662647708333,62.0,83.0
360,78.41320541666666,78.51188963541667,71.0,79.0
361,78.72899491666666,78.90136335208332,66.0,86.0
362,78.72899491666666,78.90267914166665,62.0,96.0
363,78.72899491666666,78.91846861666666,71.0,86.0
364,78.09741591666666,78.92504756458332,54.0,91.0
365,79.99215291666665,80.10136345208332,62.0,79.0
366,79.99215291666665,80.11452134791666,66.0,78.0
367,79.99215291666665,80.13031082291666,71.0,82.0
368,79.36057391666665,80.32241610208332,47.0,80.0
369,79.36057391666665,80.34741610416665,59.0,81.0
370,80.62373191666666,81.43952145833333,47.0,83.0
371,80.62373191666666,81.49873198958332,59.0,82.0
372,81.25531091666666,81.96978466041666,62.0,84.0
373,81.25531091666666,81.97767939791666,71.0,80.0
374,81.25531091666666,81.98162676666666,66.0,84.0
375,82.51846891666666,82.60399523958333,62.0,84.0
376,82.51846891666666,82.61057418749999,66.0,84.0
377,82.51846891666666,82.61978471458333,71.0,80.0
378,81.88688991666666,82.87504789375,47.0,84.0
379,81.88688991666666,82.89478473749999,59.0,90.0
380,82.83425841666666,83.21715318541666,62.0,84.0
381,82.83425841666666,83.23294266041665,66.0,84.0
382,82.83425841666666,83.23820581874999,71.0,80.0
383,83.46583741666666,83.55399531875,62.0,83.0
384,83.46583741666666,83.55399531875,66.0,82.0
385,83.46583741666666,83.56320584583332,71.0,79.0
386,83.15004791666667,83.90136376874999,47.0,90.0
387,83.15004791666667,83.93031113958332,59.0,84.0
388,84.09741641666666,84.40004803333333,54.0,84.0
389,83.78162691666665,84.5413524,71.0,83.0
390,83.78162691666665,84.56309153333333,66.0,84.0
391,83.78162691666665,84.598417625,62.0,84.0
392,84.42178716666666,85.19488509583333,47.0,91.0
393,84.42178716666666,85.20983075,59.0,84.0
394,85.07396116666666,85.821243875,66.0,82.0
395,85.07396116666666,85.8253199625,62.0,84.0
396,85.07396116666666,85.8253199625,71.0,82.0
397,85.72613516666667,86.55358092916667,47.0,84.0
398,85.72613516666667,86.56852658333334,59.0,86.0
399,86.70439616666667,86.7709722625,59.0,67.0
400,86.70439616666667,86.82939618333333,47.0,84.0
401,86.37830916666667,87.1296679625,66.0,80.0
402,86.37830916666667,87.1378201375,71.0,82.0
403,86.37830916666667,87.141896225,62.0,83.0
404,87.68265716666666,87.77233109166667,64.0,84.0
405,87.68265716666666,87.78591804999999,61.0,84.0
406,87.68265716666666,87.78591804999999,69.0,83.0
407,87.03048316666667,88.03999417083332,45.0,93.0
408,87.03048316666667,88.087548525,57.0,83.0
409,88.00874416666666,88.39461378333333,69.0,83.0
410,88.00874416666666,88.40276595833333,64.0,83.0
411,88.00874416666666,88.41907030833333,61.0,82.0
412,88.66091816666666,88.74515730833333,64.0,83.0
413,88.66091816666666,88.7601029625,69.0,83.0
414,88.66091816666666,88.76146165833333,61.0,81.0
415,88.33483116666666,89.1187986625,45.0,86.0
416,88.33483116666666,89.14053779583332,57.0,83.0
417,88.98700516666666,89.2370052,64.0,84.0
418,88.98700516666666,89.29950520833333,61.0,86.0
419,88.98700516666666,89.32803782083333,69.0,86.0
420,89.6333975,91.58400016666668,38.0,101.0
421,89.6333975,91.75327100000001,62.0,90.0
422,89.6333975,91.77931266666668,66.0,84.0
423,89.6333975,91.81316683333334,57.0,86.0
424,89.6333975,91.88217725000001,50.0,86.0
425,91.84181266666668,92.04948113750001,57.0,43.0
426,91.84181266666668,92.10799178750001,64.0,84.0
427,91.84181266666668,92.20772585000002,49.0,86.0
428,92.15985350000001,93.07607708750001,69.0,78.0
429,92.15985350000001,93.13591752500001,62.0,84.0
430,92.15985350000001,93.1558643375,47.0,93.0
431,92.15985350000001,93.21437498750001,57.0,82.0
432,92.15985350000001,93.36464097500001,66.0,83.0
433,93.43644950000001,94.22235391250001,57.0,79.0
434,93.43644950000001,94.23964115000001,64.0,91.0
435,93.43644950000001,94.24629008750001,69.0,84.0
436,93.43644950000001,94.25027945000001,45.0,86.0
437,93.43644950000001,94.25027945000001,61.0,84.0
438,94.7130455,95.61730100000001,57.0,82.0
439,94.7130455,95.63325845000001,69.0,76.0
440,94.7130455,95.64256696250001,62.0,84.0
441,94.7130455,95.68644995000001,66.0,86.0
442,94.7130455,95.71570527500002,50.0,78.0
443,95.9896415,96.79283315,69.0,91.0
444,95.9896415,96.79948208750001,61.0,90.0
445,95.9896415,96.79948208750001,64.0,91.0
446,95.9896415,96.80613102500001,49.0,86.0
447,97.90453550000001,97.98831211250001,66.0,79.0
448,97.90453550000001,98.0002802,62.0,83.0
449,97.90453550000001,98.01623765000001,71.0,82.0
450,97.26623750000002,98.26889727500001,47.0,84.0
451,97.26623750000002,98.29815260000001,59.0,84.0
452,98.22368450000002,98.63325905,71.0,82.0
453,98.22368450000002,98.6425675625,62.0,86.0
454,98.22368450000002,98.64655692500001,66.0,86.0
455,98.86198250000001,98.95373783750001,66.0,84.0
456,98.86198250000001,98.96038677500002,62.0,86.0
457,98.86198250000001,98.96437613750001,71.0,82.0
458,98.54283350000001,99.38724856250002,54.0,90.0
459,99.1811315,99.40453580000002,71.0,83.0
460,99.1811315,99.40586558750002,62.0,90.0
461,99.1811315,99.41517410000002,66.0,90.0
462,99.81942950000001,100.12794020000001,66.0,93.0
463,99.81942950000001,100.13458913750001,71.0,91.0
464,99.81942950000001,100.13724871250001,62.0,95.0
465,99.81942950000001,100.17049340000001,47.0,98.0
466,99.81942950000001,100.17980191250001,59.0,90.0
467,100.4577275,100.7994828875,66.0,94.0
468,100.4577275,100.81012118750002,62.0,96.0
469,100.4577275,100.81411055000001,71.0,86.0
470,100.4577275,100.81544033750001,47.0,90.0
471,100.4577275,100.82873821250001,59.0,91.0
472,103.01091950000001,103.10001526250001,66.0,78.0
473,103.01091950000001,103.10932377500001,62.0,84.0
474,103.01091950000001,103.1279408,71.0,80.0
475,102.37262150000001,103.39655787500001,59.0,86.0
476,102.37262150000001,103.40453660000001,47.0,78.0
477,103.33006850000001,103.73698347500002,66.0,84.0
478,103.33006850000001,103.77554731250001,62.0,84.0
479,103.33006850000001,103.78884518750002,71.0,83.0
480,103.6492175,104.4617176625,54.0,83.0
481,104.60666450000001,104.92182413750001,54.0,78.0
482,104.28751550000001,104.93113265000001,71.0,82.0
483,104.28751550000001,104.96570712500001,66.0,82.0
484,104.28751550000001,105.00427096250002,62.0,80.0
485,105.56411150000001,105.65054768750001,66.0,75.0
486,105.56411150000001,105.65985620000001,71.0,77.0
487,105.56411150000001,105.66251577500002,62.0,78.0
488,104.92581350000002,106.02421797500001,47.0,86.0
489,104.92581350000002,106.03352648750001,59.0,83.0
490,105.8832605,106.33804782500002,62.0,83.0
491,105.8832605,106.33804782500002,71.0,80.0
492,105.8832605,106.35001591250001,66.0,80.0
493,106.52155850000001,106.62262235000001,66.0,76.0
494,106.52155850000001,106.62794150000002,62.0,78.0
495,106.52155850000001,106.635920225,71.0,80.0
496,106.20240950000002,107.04283520000001,54.0,90.0
497,106.84070750000001,107.59070765000001,66.0,80.0
498,106.84070750000001,107.59868637500001,71.0,80.0
499,106.84070750000001,107.619962975,62.0,82.0
500,108.11730350000002,108.2117184125,73.0,84.0
501,108.11730350000002,108.23299501250001,66.0,81.0
502,108.11730350000002,108.23299501250001,69.0,81.0
503,107.47900550000001,108.56544188750001,42.0,84.0
504,107.47900550000001,108.5707610375,54.0,83.0
505,108.43645250000002,108.89522918750001,73.0,84.0
506,108.43645250000002,108.99629303750001,66.0,82.0
507,108.43645250000002,109.09203773750001,69.0,83.0
508,109.3938995,109.48299526250001,73.0,80.0
509,109.3938995,109.50427186250002,69.0,78.0
510,109.3938995,109.50560165000002,66.0,81.0
511,108.75560150000001,110.01889962500002,49.0,90.0
512,109.71304850000001,110.1877826375,73.0,82.0
513,109.71304850000001,110.23964435000002,66.0,78.0
514,109.71304850000001,110.28751670000001,69.0,80.0
515,110.67049550000002,110.76756998750001,73.0,61.0
516,110.67049550000002,110.8127827625,69.0,68.0
517,110.67049550000002,110.81943170000001,64.0,57.0
518,110.03219750000001,111.15320836250001,42.0,84.0
519,110.03219750000001,111.18512326250001,54.0,83.0
520,110.98964450000001,111.35533606250002,73.0,75.0
521,110.98964450000001,111.40453820000002,64.0,63.0
522,110.98964450000001,111.41783607500001,69.0,69.0
523,111.62794250000002,111.721027625,73.0,82.0
524,111.62794250000002,111.72767656250001,64.0,80.0
525,111.62794250000002,111.73033613750002,69.0,79.0
526,111.30879350000001,112.14655962500001,49.0,90.0
527,112.26624050000001,112.40719797500002,54.0,84.0
528,111.94709150000001,112.58538950000002,73.0,81.0
529,111.94709150000001,112.65985760000001,64.0,80.0
530,111.94709150000001,112.67049590000002,69.0,82.0
531,113.22368750000001,113.32608113750001,66.0,75.0
532,113.22368750000001,113.33273007500001,71.0,78.0
533,113.22368750000001,113.33937901250002,62.0,82.0
534,112.58538950000002,113.69177270000002,47.0,84.0
535,113.5428365,113.90054933750001,66.0,78.0
536,113.5428365,113.93911317500002,71.0,80.0
537,113.5428365,113.9537408375,62.0,82.0
538,113.86198550000002,114.71437928750001,54.0,84.0
539,114.8194325,115.05746446250001,54.0,80.0
540,114.50028350000001,115.25959216250001,71.0,80.0
541,114.50028350000001,115.27289003750002,62.0,83.0
542,114.50028350000001,115.27289003750002,66.0,84.0
543,115.7768795,115.87129441250002,73.0,82.0
544,115.7768795,115.87794335000001,64.0,83.0
545,115.7768795,115.88459228750001,69.0,82.0
546,115.13858150000002,116.17980511250002,45.0,86.0
547,115.13858150000002,116.20108171250001,57.0,84.0
548,116.09602850000002,116.79416693750001,73.0,86.0
549,116.09602850000002,116.82076268750001,64.0,84.0
550,116.09602850000002,116.83140098750002,69.0,83.0
551,116.41517750000001,117.22767766250001,52.0,91.0
552,117.05347550000002,117.49895431250002,73.0,83.0
553,117.05347550000002,117.50560325000001,64.0,84.0
554,117.05347550000002,117.54549687500001,69.0,83.0
555,118.33007150000002,118.41916726250001,69.0,82.0
556,118.33007150000002,118.42847577500001,74.0,84.0
557,118.33007150000002,118.42980556250001,66.0,84.0
558,117.69177350000001,118.68113540000002,62.0,84.0
559,117.69177350000001,118.87794395000002,50.0,84.0
560,118.64922050000001,119.02156100000002,74.0,86.0
561,118.64922050000001,119.04416738750001,66.0,90.0
562,118.64922050000001,119.0468269625,69.0,86.0
563,118.96836950000001,119.65852921250001,57.0,84.0
564,119.60666750000001,120.34469956250001,74.0,86.0
565,119.60666750000001,120.36198680000001,69.0,84.0
566,119.60666750000001,120.37395488750002,66.0,86.0
567,120.88326350000001,120.96969968750001,69.0,77.0
568,120.88326350000001,120.97634862500001,73.0,75.0
569,120.88326350000001,120.98698692500001,66.0,80.0
570,120.2449655,121.33539125000001,42.0,90.0
571,120.2449655,121.33672103750001,54.0,96.0
572,121.20241250000001,121.73964665000001,73.0,80.0
573,121.20241250000001,121.92049775000001,69.0,80.0
574,121.20241250000001,121.94576371250001,66.0,84.0
575,121.52156150000002,122.27555101250002,49.0,90.0
576,122.15985950000001,122.45906168750001,73.0,81.0
577,122.15985950000001,122.46039147500001,69.0,84.0
578,122.15985950000001,122.4883170125,66.0,83.0
579,123.43645550000001,123.52422147500002,66.0,80.0
580,123.43645550000001,123.53087041250001,71.0,79.0
581,123.43645550000001,123.5335299875,62.0,84.0
582,122.79815750000002,123.80347685000001,47.0,83.0
583,122.79815750000002,123.81012578750001,59.0,83.0
584,123.7556045,123.92049815000001,62.0,86.0
585,123.7556045,123.93113645000001,66.0,86.0
586,123.7556045,123.93246623750001,71.0,82.0
587,124.39390250000001,124.47634932500002,66.0,86.0
588,124.39390250000001,124.48299826250002,62.0,93.0
589,124.39390250000001,124.48565783750001,71.0,84.0
590,124.07475350000001,124.94443452500002,54.0,90.0
591,124.7130515,125.40188142500001,66.0,90.0
592,124.7130515,125.40853036250002,71.0,84.0
593,124.7130515,125.41783887500002,62.0,98.0
594,125.35134950000001,125.74895596250002,47.0,95.0
595,125.35134950000001,125.76757298750002,59.0,90.0
596,125.98964750000002,126.27422202500001,66.0,91.0
597,125.98964750000002,126.28087096250002,47.0,93.0
598,125.98964750000002,126.28087096250002,62.0,96.0
599,125.98964750000002,126.2875199,71.0,86.0
600,125.98964750000002,126.30081777500001,59.0,90.0
601,128.5428395,128.64257356250002,66.0,82.0
602,128.5428395,128.65321186250003,62.0,91.0
603,128.5428395,128.6744884625,71.0,82.0
604,127.90454150000002,128.91783957500002,47.0,86.0
605,127.90454150000002,128.9244885125,59.0,82.0
606,128.8619885,129.18645665000003,66.0,86.0
607,128.8619885,129.18911622500002,62.0,86.0
608,128.8619885,129.2024141,71.0,82.0
609,129.1811375,130.093371725,54.0,90.0
610,129.8194355,130.45773350000002,62.0,84.0
611,129.8194355,130.53619096250003,66.0,82.0
612,129.8194355,130.57076543750003,71.0,83.0
613,131.0960315,131.19709535,66.0,73.0
614,131.0960315,131.2037442875,62.0,78.0
615,131.0960315,131.2197017375,71.0,78.0
616,130.45773350000002,131.27821238750002,47.0,86.0
617,130.45773350000002,131.3526804875,59.0,78.0
618,131.41518050000002,131.80879760000002,71.0,83.0
619,131.41518050000002,131.8127869625,66.0,84.0
620,131.41518050000002,131.8194359,62.0,84.0
621,131.7343295,132.52688285000002,59.0,90.0
622,131.7343295,132.56012753750002,47.0,93.0
623,132.37262750000002,133.13326595,66.0,84.0
624,132.37262750000002,133.135925525,71.0,84.0
625,132.37262750000002,133.16119148750002,62.0,86.0
626,133.6492235,133.7409788375,66.0,81.0
627,133.6492235,133.7702341625,61.0,84.0
628,133.6492235,133.7755533125,69.0,82.0
629,133.0109255,134.09736188750003,42.0,86.0
630,133.0109255,134.1066704,54.0,84.0
631,133.96837250000002,134.44177685,61.0,86.0
632,133.96837250000002,134.44177685,66.0,84.0
633,133.96837250000002,134.46305345000002,69.0,80.0
634,134.28752150000003,135.16518125000002,49.0,91.0
635,134.92581950000002,135.582734525,69.0,81.0
636,134.92581950000002,135.68911752500003,61.0,84.0
637,134.92581950000002,135.7675749875,66.0,93.0
638,136.20241550000003,136.2994899875,66.0,84.0
639,136.20241550000003,136.3021495625,69.0,73.0
640,136.20241550000003,136.3074687125,61.0,78.0
641,135.5641175,136.61464962500003,42.0,84.0
642,135.5641175,136.61730920000002,54.0,95.0
643,136.5215645,136.9377879875,61.0,84.0
644,136.5215645,136.9484262875,69.0,81.0
645,136.5215645,136.9590645875,66.0,86.0
646,137.1598625,137.2569369875,61.0,75.0
647,137.1598625,137.26092635,66.0,80.0
648,137.1598625,137.2622561375,69.0,73.0
649,136.84071350000002,137.6718306875,49.0,93.0
650,137.4790115,138.1385861,61.0,81.0
651,137.4790115,138.16252227500001,66.0,84.0
652,137.4790115,138.20640526250003,69.0,76.0
653,138.7556075,138.84071390000003,66.0,83.0
654,138.7556075,138.8500224125,62.0,86.0
655,138.7556075,138.8553415625,71.0,82.0
656,138.1173095,139.16385226250003,59.0,91.0
657,138.1173095,139.1824692875,47.0,62.0
658,139.0747565,139.49230977500002,62.0,86.0
659,139.0747565,139.5361927625,71.0,82.0
660,139.0747565,139.54417148750002,66.0,83.0
661,139.39390550000002,140.4484269875,54.0,86.0
662,140.0322035,140.6492249,62.0,90.0
663,140.0322035,140.7223632125,66.0,86.0
664,140.0322035,140.72635257500002,71.0,82.0
665,141.30879950000002,141.42848037500002,64.0,78.0
666,141.30879950000002,141.42848037500002,73.0,83.0
667,141.30879950000002,141.433799525,69.0,73.0
668,140.6705015,141.800820875,45.0,83.0
669,140.6705015,141.81411875,57.0,90.0
670,141.6279485,142.210395425,64.0,79.0
671,141.6279485,142.3287465125,73.0,82.0
672,141.6279485,142.3619912,69.0,78.0
673,141.9470975,142.705076375,52.0,86.0
674,142.5853955,143.093374325,64.0,83.0
675,142.5853955,143.151884975,73.0,84.0
676,142.5853955,143.26358712500002,69.0,86.0
677,143.86199150000002,143.94443832500002,69.0,72.0
678,143.86199150000002,143.9697042875,66.0,81.0
679,143.86199150000002,143.9697042875,74.0,86.0
680,143.22369350000002,144.274225625,62.0,96.0
681,143.22369350000002,144.2782149875,50.0,84.0
682,144.18114050000003,144.69709805000002,69.0,79.0
683,144.18114050000003,144.7303427375,66.0,83.0
684,144.18114050000003,144.7383214625,74.0,86.0
685,144.5002895,145.30082157500001,57.0,86.0
686,145.13858750000003,145.76603008333333,73.0,83.0
687,145.13858750000003,145.7940913125,64.0,84.0
688,145.13858750000003,145.801744375,69.0,86.0
689,146.38913050000002,146.471577325,69.0,78.0
690,146.38913050000002,146.4848752,73.0,76.0
691,146.38913050000002,146.49019435,66.0,83.0
692,145.76603008333333,146.74551355,42.0,90.0
693,145.76603008333333,146.74817312500002,54.0,96.0
694,146.7082795,147.3771626125,73.0,81.0
695,146.7082795,147.41705623750002,69.0,82.0
696,146.7082795,147.439662625,66.0,83.0
697,147.0274285,147.7548222625,49.0,93.0
698,147.6657265,148.27609896250001,69.0,90.0
699,147.6657265,148.2840776875,73.0,84.0
700,147.6657265,148.3159925875,66.0,84.0
701,148.94232250000002,149.035407625,66.0,84.0
702,148.94232250000002,149.040726775,62.0,84.0
703,148.94232250000002,149.04338635000002,71.0,82.0
704,148.3040245,149.343918325,47.0,86.0
705,148.3040245,149.35455662500001,59.0,90.0
706,149.2614715,149.657748175,71.0,83.0
707,149.2614715,149.6830141375,66.0,86.0
708,149.2614715,149.6883332875,62.0,91.0
709,149.5806205,150.471578125,54.0,91.0
710,150.2189185,150.5899292125,66.0,91.0
711,150.2189185,150.59657815,62.0,99.0
712,150.2189185,150.60721645,71.0,86.0
713,153.41040850000002,153.4835468125,49.0,72.0
714,154.0487065,154.14445120000002,66.0,79.0
715,154.0487065,154.157749075,62.0,82.0
716,154.0487065,154.1697171625,71.0,80.0
717,153.41040850000002,154.47290871250001,47.0,60.0
718,153.41040850000002,154.4968448875,59.0,81.0
719,154.36785550000002,154.9622705125,62.0,84.0
720,154.36785550000002,154.98620668750002,71.0,82.0
721,154.36785550000002,155.01812158750002,66.0,83.0
722,154.6870045,155.51546211250002,54.0,84.0
723,155.32530250000002,156.1191856375,66.0,83.0
724,155.32530250000002,156.152430325,71.0,83.0
725,155.32530250000002,156.18434522500002,62.0,86.0
726,156.6018985,156.69498362500002,66.0,79.0
727,156.6018985,156.7042921375,62.0,82.0
728,156.6018985,156.7202495875,71.0,79.0
729,155.9636005,156.9636007,47.0,90.0
730,155.9636005,156.9995049625,59.0,84.0
731,156.92104750000001,157.4104093,66.0,80.0
732,156.92104750000001,157.4104093,71.0,80.0
733,156.92104750000001,157.5234412375,62.0,82.0
734,157.2401965,158.0167924,54.0,84.0
735,157.87849450000002,158.7548244625,66.0,83.0
736,157.87849450000002,158.764132975,71.0,84.0
737,157.87849450000002,158.7734414875,62.0,91.0
738,159.1550905,159.26147350000002,66.0,83.0
739,159.1550905,159.28009052500002,61.0,82.0
740,159.1550905,159.285409675,69.0,78.0
741,158.5167925,159.57397356250002,42.0,84.0
742,158.5167925,159.5979097375,54.0,84.0
743,159.4742395,160.0128034375,61.0,78.0
744,159.4742395,160.01413322500002,69.0,76.0
745,159.4742395,160.0739736625,66.0,81.0
746,159.79338850000002,160.5686546125,49.0,86.0
747,160.4316865,161.24551645,69.0,75.0
748,160.4316865,161.274771775,66.0,81.0
749,160.4316865,161.2893994375,61.0,80.0
750,161.7082825,161.79737826250002,61.0,80.0
751,161.7082825,161.79737826250002,66.0,82.0
752,161.7082825,161.806686775,69.0,75.0
753,161.0699845,162.0952506625,42.0,90.0
754,161.0699845,162.12184641250002,54.0,90.0
755,162.0274315,162.4383358375,69.0,77.0
756,162.0274315,162.46626137500002,66.0,84.0
757,162.0274315,162.4782294625,61.0,82.0
758,162.6657295,162.7614742,66.0,82.0
759,162.6657295,162.76679335,69.0,75.0
760,162.6657295,162.769452925,61.0,80.0
761,162.34658050000002,163.07929341250002,42.0,86.0
762,162.34658050000002,163.1058891625,54.0,84.0
763,163.30402750000002,163.40642113750002,49.0,90.0
764,162.9848785,163.7122722625,61.0,83.0
765,162.9848785,163.71626162500002,66.0,83.0
766,162.9848785,163.8399318625,69.0,78.0
767,164.26147450000002,164.3718468625,62.0,82.0
768,164.26147450000002,164.3718468625,66.0,80.0
769,164.26147450000002,164.375836225,71.0,79.0
770,163.6231765,164.72424055000002,47.0,93.0
771,164.5806235,165.0699853,71.0,82.0
772,164.5806235,165.0899321125,66.0,78.0
773,164.5806235,165.0952512625,62.0,82.0
774,164.8997725,165.74950671250002,54.0,91.0
775,165.5380705,166.28142171250002,71.0,82.0
776,165.5380705,166.2947195875,66.0,83.0
777,165.5380705,166.30003873750002,62.0,86.0
778,166.81466650000002,166.89711332500002,64.0,79.0
779,166.81466650000002,166.9197197125,61.0,82.0
780,166.81466650000002,166.923709075,69.0,82.0
781,166.17636850000002,167.11918783750002,45.0,94.0
782,167.1338155,167.5739751625,69.0,80.0
783,167.1338155,167.60190070000002,61.0,79.0
784,167.1338155,167.612539,64.0,80.0
785,167.4529645,168.152432725,52.0,90.0
786,168.0912625,168.20296465,61.0,82.0
787,168.0912625,168.2042944375,64.0,83.0
788,168.0912625,168.237539125,69.0,83.0
789,169.3678585,169.4702521375,69.0,82.0
790,169.3678585,169.471581925,74.0,84.0
791,169.3678585,169.4755712875,66.0,84.0
792,168.72956050000002,169.8133373125,50.0,95.0
793,169.6870075,170.3465821,69.0,81.0
794,169.6870075,170.3691884875,66.0,83.0
795,169.6870075,170.386475725,74.0,84.0
796,170.0061565,170.61785875,50.0,90.0
797,170.6444545,171.00083755,49.0,84.0
798,170.6444545,171.34658230000002,69.0,81.0
799,170.6444545,171.354561025,64.0,83.0
800,170.6444545,171.36253975,73.0,82.0
801,171.9210505,172.0074866875,66.0,82.0
802,171.9210505,172.014135625,61.0,83.0
803,171.9210505,172.019454775,69.0,77.0
804,171.28275250000002,172.33062505,42.0,84.0
805,172.24019950000002,172.6830187375,69.0,80.0
806,172.24019950000002,172.75349747500002,61.0,83.0
807,172.24019950000002,172.88913580000002,66.0,84.0
808,172.5593485,173.2574869375,49.0,86.0
809,173.19764650000002,173.5526997625,61.0,81.0
810,173.19764650000002,173.57264657500002,66.0,82.0
811,173.19764650000002,173.6324870125,69.0,78.0
812,173.8359445,174.168391375,71.0,82.0
813,173.8359445,174.1976467,62.0,86.0
814,173.8359445,174.1989764875,66.0,83.0
815,173.8359445,174.221582875,47.0,90.0
816,173.8359445,174.23887011250002,59.0,83.0
817,174.4742425,174.572646775,66.0,76.0
818,174.4742425,174.577965925,62.0,76.0
819,174.4742425,174.58195528750002,71.0,77.0
820,174.4742425,174.59658295,47.0,84.0
821,174.4742425,174.5979127375,59.0,77.0
822,174.7933915,174.90447774166668,59.0,76.0
823,174.7933915,174.91237247916666,47.0,83.0
824,174.7933915,175.03210933125,62.0,80.0
825,174.7933915,175.05842512291667,71.0,80.0
826,174.7933915,175.06763565,66.0,78.0
827,175.42553041666667,175.50842516041666,66.0,83.0
828,175.42553041666667,175.52158305625002,71.0,83.0
829,175.42553041666667,175.5281620041667,62.0,84.0
830,175.10974091666668,175.76895149791667,47.0,86.0
831,175.10974091666668,175.77421465625002,59.0,84.0
832,176.05710941666666,176.3717091375,54.0,86.0
833,175.74131991666667,176.39830488750002,62.0,90.0
834,175.74131991666667,176.4568155375,71.0,84.0
835,175.74131991666667,176.47676235,66.0,90.0
836,176.37569850000003,176.5392623625,47.0,93.0
837,176.37569850000003,176.5631985375,59.0,80.0
838,177.01399650000002,177.261336975,62.0,91.0
839,177.01399650000002,177.261336975,66.0,86.0
840,177.01399650000002,177.279954,59.0,84.0
841,177.01399650000002,177.30123060000003,47.0,93.0
842,177.01399650000002,177.32383698750002,71.0,84.0
843,179.56718850000001,179.66692256250002,66.0,82.0
844,179.56718850000001,179.6775608625,62.0,91.0
845,179.56718850000001,179.69883746250002,71.0,82.0
846,178.92889050000002,179.94218857500002,47.0,86.0
847,178.92889050000002,179.9488375125,59.0,82.0
848,179.88633750000002,180.21080565000003,66.0,86.0
849,179.88633750000002,180.21346522500002,62.0,86.0
850,179.88633750000002,180.22676310000003,71.0,82.0
851,180.2054865,181.11772072500003,54.0,90.0
852,180.84378450000003,181.48208250000002,62.0,84.0
853,180.84378450000003,181.5605399625,66.0,82.0
854,180.84378450000003,181.5951144375,71.0,83.0
855,182.1203805,182.22144435,66.0,73.0
856,182.1203805,182.2280932875,62.0,78.0
857,182.1203805,182.2440507375,71.0,78.0
858,181.48208250000002,182.30256138750002,47.0,86.0
859,181.48208250000002,182.3770294875,59.0,78.0
860,182.43952950000002,182.83314660000002,71.0,83.0
861,182.43952950000002,182.8371359625,66.0,84.0
862,182.43952950000002,182.8437849,62.0,84.0
863,182.7586785,183.55123185000002,59.0,90.0
864,182.7586785,183.58447653750002,47.0,93.0
865,183.39697650000002,184.15761495,66.0,84.0
866,183.39697650000002,184.160274525,71.0,84.0
867,183.39697650000002,184.18554048750002,62.0,86.0
868,184.6735725,184.76532783750002,66.0,81.0
869,184.6735725,184.7945831625,61.0,84.0
870,184.6735725,184.79990231250002,69.0,82.0
871,184.0352745,185.1217108875,42.0,86.0
872,184.0352745,185.1310194,54.0,84.0
873,184.99272150000002,185.46612585000003,61.0,86.0
874,184.99272150000002,185.46612585000003,66.0,84.0
875,184.99272150000002,185.48740245000002,69.0,80.0
876,185.31187050000003,186.18953025000002,49.0,91.0
877,185.95016850000002,186.607083525,69.0,81.0
878,185.95016850000002,186.713466525,61.0,84.0
879,185.95016850000002,186.7919239875,66.0,93.0
880,187.2267645,187.3238389875,66.0,84.0
881,187.2267645,187.3264985625,69.0,73.0
882,187.2267645,187.33181771250003,61.0,78.0
883,186.5884665,187.638998625,42.0,84.0
884,186.5884665,187.64165820000002,54.0,95.0
885,187.5459135,187.9621369875,61.0,84.0
886,187.5459135,187.9727752875,69.0,81.0
887,187.5459135,187.98341358750002,66.0,86.0
888,188.1842115,188.2812859875,61.0,75.0
889,188.1842115,188.28527535,66.0,80.0
890,188.1842115,188.2866051375,69.0,73.0
891,187.86506250000002,188.6961796875,49.0,93.0
892,188.5033605,189.16293510000003,61.0,81.0
893,188.5033605,189.18687127500002,66.0,84.0
894,188.5033605,189.2307542625,69.0,76.0
895,189.77995650000003,189.86506290000003,66.0,83.0
896,189.77995650000003,189.8743714125,62.0,86.0
897,189.77995650000003,189.8796905625,71.0,82.0
898,189.1416585,190.1882012625,59.0,91.0
899,189.1416585,190.20681828750003,47.0,62.0
900,190.0991055,190.51665877500002,62.0,86.0
901,190.0991055,190.5605417625,71.0,82.0
902,190.0991055,190.56852048750002,66.0,83.0
903,190.41825450000002,191.4727759875,54.0,86.0
904,191.0565525,191.6735739,62.0,90.0
905,191.0565525,191.7467122125,66.0,86.0
906,191.0565525,191.75070157500002,71.0,82.0
907,192.32760766666667,192.44479516666667,64.0,78.0
908,192.32760766666667,192.44479516666667,73.0,83.0
909,192.32760766666667,192.4500035,69.0,73.0
910,191.6948505,192.8093785,45.0,83.0
911,191.6948505,192.82239933333335,57.0,90.0
912,192.64010766666667,193.21042016666667,64.0,79.0
913,192.64010766666667,193.32630558333335,73.0,82.0
914,192.64010766666667,193.35885766666667,69.0,78.0
915,192.95260766666667,193.69479516666667,52.0,86.0
916,193.57760766666667,194.077829325,64.0,83.0
917,193.57760766666667,194.136339975,73.0,84.0
918,193.57760766666667,194.248042125,69.0,86.0
919,194.8464465,194.92889332500002,69.0,72.0
920,194.8464465,194.9541592875,66.0,81.0
921,194.8464465,194.9541592875,74.0,86.0
922,194.20814850000002,195.258680625,62.0,96.0
923,194.20814850000002,195.2626699875,50.0,84.0
924,195.1655955,195.68155305000002,69.0,79.0
925,195.1655955,195.71479773750002,66.0,83.0
926,195.1655955,195.7227764625,74.0,86.0
927,195.4847445,196.285276575,57.0,86.0
928,196.1230425,196.76134050000002,73.0,83.0
929,196.1230425,196.790595825,64.0,84.0
930,196.1230425,196.79857455,69.0,86.0
931,197.3996385,197.482085325,69.0,78.0
932,197.3996385,197.49538320000002,73.0,76.0
933,197.3996385,197.50070235,66.0,83.0
934,196.76134050000002,197.75602155,42.0,90.0
935,196.76134050000002,197.758681125,54.0,96.0
936,197.71878750000002,198.38767061250002,73.0,81.0
937,197.71878750000002,198.4275642375,69.0,82.0
938,197.71878750000002,198.450170625,66.0,83.0
939,198.0379365,198.76533026250002,49.0,93.0
940,198.67623450000002,199.2866069625,69.0,90.0
941,198.67623450000002,199.29458568750002,73.0,84.0
942,198.67623450000002,199.32650058750002,66.0,84.0
943,199.9528305,200.04591562500002,66.0,84.0
944,199.9528305,200.051234775,62.0,84.0
945,199.9528305,200.05389435,71.0,82.0
946,199.3145325,200.35442632500002,47.0,86.0
947,199.3145325,200.365064625,59.0,90.0
948,200.27197950000001,200.668256175,71.0,83.0
949,200.27197950000001,200.6935221375,66.0,86.0
950,200.27197950000001,200.69884128750002,62.0,91.0
951,200.5911285,201.482086125,54.0,91.0
952,201.22942650000002,201.6004372125,66.0,91.0
953,201.22942650000002,201.60708615000001,62.0,99.0
954,201.22942650000002,201.61772445,71.0,86.0
955,201.8677245,202.1084160375,47.0,86.0
956,201.8677245,202.12038412500002,59.0,86.0
957,202.5060225,202.5525650625,66.0,62.0
958,202.5060225,202.58580975,62.0,78.0
959,202.5060225,202.593788475,71.0,75.0
960,202.5060225,202.8677247,47.0,86.0
961,202.5060225,202.87171406250002,59.0,86.0
962,202.8251715,203.18155455000002,71.0,83.0
963,202.8251715,203.21612902500001,66.0,79.0
964,202.8251715,203.23341626250001,62.0,84.0
965,203.4634695,203.55389505,66.0,82.0
966,203.4634695,203.55788441250002,62.0,83.0
967,203.4634695,203.5632035625,71.0,79.0
968,203.7826185,203.9568206625,66.0,86.0
969,203.7826185,203.95815045,62.0,96.0
970,203.7826185,203.9741079,71.0,86.0
971,203.14432050000002,203.9807568375,54.0,91.0
972,205.0592145,205.1443209,66.0,83.0
973,205.0592145,205.1536294125,62.0,86.0
974,205.0592145,205.1589485625,71.0,82.0
975,204.4209165,205.4674592625,59.0,91.0
976,204.4209165,205.4860762875,47.0,62.0
977,205.3783635,205.795916775,62.0,86.0
978,205.3783635,205.8397997625,71.0,82.0
979,205.3783635,205.84777848750002,66.0,83.0
980,205.69751250000002,206.7520339875,54.0,86.0
981,206.3358105,206.9528319,62.0,90.0
982,206.3358105,207.0259702125,66.0,86.0
983,206.3358105,207.02995957500002,71.0,82.0
984,207.61240650000002,207.73208737500002,64.0,78.0
985,207.61240650000002,207.73208737500002,73.0,83.0
986,207.61240650000002,207.737406525,69.0,73.0
987,206.9741085,208.104427875,45.0,83.0
988,206.9741085,208.11772575,57.0,90.0
989,207.9315555,208.514002425,64.0,79.0
990,207.9315555,208.6323535125,73.0,82.0
991,207.9315555,208.6655982,69.0,78.0
992,208.2507045,209.008683375,52.0,86.0
993,208.8890025,209.396981325,64.0,83.0
994,208.8890025,209.455491975,73.0,84.0
995,208.8890025,209.56719412500001,69.0,86.0
996,210.16559850000002,210.24804532500002,69.0,72.0
997,210.16559850000002,210.2733112875,66.0,81.0
998,210.16559850000002,210.2733112875,74.0,86.0
999,209.5273005,210.577832625,62.0,96.0
1000,209.5273005,210.5818219875,50.0,84.0
1001,210.4847475,211.00070505000002,69.0,79.0
1002,210.4847475,211.0339497375,66.0,83.0
1003,210.4847475,211.0419284625,74.0,86.0
1004,210.8038965,211.60442857500001,57.0,86.0
1005,211.4421945,212.08049250000002,73.0,83.0
1006,211.4421945,212.109747825,64.0,84.0
1007,211.4421945,212.11772655000001,69.0,86.0
1008,212.7187905,212.80123732500002,69.0,78.0
1009,212.7187905,212.81453520000002,73.0,76.0
1010,212.7187905,212.81985435,66.0,83.0
1011,212.08049250000002,213.07517355000002,42.0,90.0
1012,212.08049250000002,213.077833125,54.0,96.0
1013,213.0379395,213.70682261250002,73.0,81.0
1014,213.0379395,213.7467162375,69.0,82.0
1015,213.0379395,213.769322625,66.0,83.0
1016,213.3570885,214.08448226250002,49.0,93.0
1017,213.9953865,214.6057589625,69.0,90.0
1018,213.9953865,214.61373768750002,73.0,84.0
1019,213.9953865,214.64565258750002,66.0,84.0
1020,215.2719825,215.365067625,66.0,84.0
1021,215.2719825,215.37038677500001,62.0,84.0
1022,215.2719825,215.37304635,71.0,82.0
1023,214.63368450000002,215.673578325,47.0,86.0
1024,214.63368450000002,215.684216625,59.0,90.0
1025,215.59113150000002,215.987408175,71.0,83.0
1026,215.59113150000002,216.0126741375,66.0,86.0
1027,215.59113150000002,216.01799328750002,62.0,91.0
1028,215.9102805,216.801238125,54.0,91.0
1029,216.54857850000002,216.9195892125,66.0,91.0
1030,216.54857850000002,216.92623815000002,62.0,99.0
1031,216.54857850000002,216.93687645,71.0,86.0
1032,217.1868765,217.4275680375,47.0,86.0
1033,217.1868765,217.43953612500002,59.0,86.0
1034,217.8251745,217.8717170625,66.0,62.0
1035,217.8251745,217.90496175,62.0,78.0
1036,217.8251745,217.912940475,71.0,75.0
1037,217.8251745,218.1868767,47.0,86.0
1038,217.8251745,218.1908660625,59.0,86.0
1039,218.1443235,218.50070655000002,71.0,83.0
1040,218.1443235,218.53528102500002,66.0,79.0
1041,218.1443235,218.55256826250002,62.0,84.0
1042,218.7826215,218.87304705,66.0,82.0
1043,218.7826215,218.87703641250002,62.0,83.0
1044,218.7826215,218.8823555625,71.0,79.0
1045,219.10177050000001,219.2759726625,66.0,86.0
1046,219.10177050000001,219.27730245,62.0,96.0
1047,219.10177050000001,219.2932599,71.0,86.0
1048,218.46347250000002,219.2999088375,54.0,91.0
1049,220.3783665,220.4634729,66.0,83.0
1050,220.3783665,220.4727814125,62.0,86.0
1051,220.3783665,220.4781005625,71.0,82.0
1052,219.7400685,220.7866112625,59.0,91.0
1053,219.7400685,220.8052282875,47.0,62.0
1054,220.6975155,221.115068775,62.0,86.0
1055,220.6975155,221.1589517625,71.0,82.0
1056,220.6975155,221.1669304875,66.0,83.0
1057,221.01666450000002,222.0711859875,54.0,86.0
1058,221.6549625,222.2719839,62.0,90.0
1059,221.6549625,222.3451222125,66.0,86.0
1060,221.6549625,222.349111575,71.0,82.0
1061,222.9315585,223.05123937500002,64.0,78.0
1062,222.9315585,223.05123937500002,73.0,83.0
1063,222.9315585,223.056558525,69.0,73.0
1064,222.2932605,223.423579875,45.0,83.0
1065,222.2932605,223.43687775,57.0,90.0
1066,223.2507075,223.833154425,64.0,79.0
1067,223.2507075,223.9515055125,73.0,82.0
1068,223.2507075,223.9847502,69.0,78.0
1069,223.56985650000001,224.327835375,52.0,86.0
1070,224.2081545,224.71613332500002,64.0,83.0
1071,224.2081545,224.774643975,73.0,84.0
1072,224.2081545,224.88634612500002,69.0,86.0
1073,225.48475050000002,225.567197325,69.0,72.0
1074,225.48475050000002,225.5924632875,66.0,81.0
1075,225.48475050000002,225.5924632875,74.0,86.0
1076,224.8464525,225.89698462500002,62.0,96.0
1077,224.8464525,225.9009739875,50.0,84.0
1078,225.8038995,226.31985705,69.0,79.0
1079,225.8038995,226.3531017375,66.0,83.0
1080,225.8038995,226.3610804625,74.0,86.0
1081,226.1230485,226.92358057500002,57.0,86.0
1082,226.7613465,227.39964450000002,73.0,83.0
1083,226.7613465,227.428899825,64.0,84.0
1084,226.7613465,227.43687855000002,69.0,86.0
1085,228.0379425,228.12038932500002,69.0,78.0
1086,228.0379425,228.1336872,73.0,76.0
1087,228.0379425,228.13900635000002,66.0,83.0
1088,227.39964450000002,228.39432555000002,42.0,90.0
1089,227.39964450000002,228.39698512500001,54.0,96.0
1090,228.35709150000002,229.02597461250002,73.0,81.0
1091,228.35709150000002,229.0658682375,69.0,82.0
1092,228.35709150000002,229.088474625,66.0,83.0
1093,228.6762405,229.40363426250002,49.0,93.0
1094,229.3145385,229.9249109625,69.0,90.0
1095,229.3145385,229.9328896875,73.0,84.0
1096,229.3145385,229.9648045875,66.0,84.0
1097,230.5911345,230.684219625,66.0,84.0
1098,230.5911345,230.68953877500002,62.0,84.0
1099,230.5911345,230.69219835,71.0,82.0
1100,229.95283650000002,230.99273032500003,47.0,86.0
1101,229.95283650000002,231.003368625,59.0,90.0
1102,230.9102835,231.30656017500002,71.0,83.0
1103,230.9102835,231.3318261375,66.0,86.0
1104,230.9102835,231.3371452875,62.0,91.0
1105,231.2294325,232.120390125,54.0,91.0
1106,231.8677305,232.2387412125,66.0,91.0
1107,231.8677305,232.24539015,62.0,99.0
1108,231.8677305,232.25602845,71.0,86.0
1109,232.5060285,232.7467200375,47.0,86.0
1110,232.5060285,232.758688125,59.0,86.0
1111,233.1443265,233.1908690625,66.0,62.0
1112,233.1443265,233.22411375000001,62.0,78.0
1113,233.1443265,233.232092475,71.0,75.0
1114,233.1443265,233.5060287,47.0,86.0
1115,233.1443265,233.51001806250002,59.0,86.0
1116,233.46347550000002,233.81985855,71.0,83.0
1117,233.46347550000002,233.854433025,66.0,79.0
1118,233.46347550000002,233.8717202625,62.0,84.0
1119,234.1017735,234.19219905,66.0,82.0
1120,234.1017735,234.19618841250002,62.0,83.0
1121,234.1017735,234.2015075625,71.0,79.0
1122,234.42092250000002,234.5951246625,66.0,86.0
1123,234.42092250000002,234.59645445,62.0,96.0
1124,234.42092250000002,234.6124119,71.0,86.0
1125,233.7826245,234.6190608375,54.0,91.0
1126,235.6975185,235.7826249,66.0,83.0
1127,235.6975185,235.79193341250001,62.0,86.0
1128,235.6975185,235.7972525625,71.0,82.0
1129,235.0592205,236.1057632625,59.0,91.0
1130,235.0592205,236.1243802875,47.0,62.0
1131,236.0166675,236.434220775,62.0,86.0
1132,236.0166675,236.4781037625,71.0,82.0
1133,236.0166675,236.4860824875,66.0,83.0
1134,236.33581650000002,237.3903379875,54.0,86.0
1135,236.9741145,237.5911359,62.0,90.0
1136,236.9741145,237.6642742125,66.0,86.0
1137,236.9741145,237.668263575,71.0,82.0
1138,238.25071050000003,238.370391375,64.0,78.0
1139,238.25071050000003,238.370391375,73.0,83.0
1140,238.25071050000003,238.37571052500002,69.0,73.0
1141,237.6124125,238.742731875,45.0,83.0
1142,237.6124125,238.75602975,57.0,90.0
1143,238.5698595,239.152306425,64.0,79.0
1144,238.5698595,239.2706575125,73.0,82.0
1145,238.5698595,239.3039022,69.0,78.0
1146,238.88900850000002,239.646987375,52.0,86.0
1147,239.5273065,240.03528532500002,64.0,83.0
1148,239.5273065,240.093795975,73.0,84.0
1149,239.5273065,240.20549812500002,69.0,86.0
1150,240.8039025,240.886349325,69.0,72.0
1151,240.8039025,240.9116152875,66.0,81.0
1152,240.8039025,240.9116152875,74.0,86.0
1153,240.1656045,241.216136625,62.0,96.0
1154,240.1656045,241.2201259875,50.0,84.0
1155,241.1230515,241.63900905,69.0,79.0
1156,241.1230515,241.6722537375,66.0,83.0
1157,241.1230515,241.68023246250002,74.0,86.0
1158,241.4422005,242.242732575,57.0,86.0
1159,242.0804985,242.7187965,73.0,83.0
1160,242.0804985,242.748051825,64.0,84.0
1161,242.0804985,242.75603055,69.0,86.0
1162,243.35709450000002,243.439541325,69.0,78.0
1163,243.35709450000002,243.4528392,73.0,76.0
1164,243.35709450000002,243.45815835000002,66.0,83.0
1165,242.7187965,243.71347755,42.0,90.0
1166,242.7187965,243.71613712500002,54.0,96.0
1167,243.6762435,244.3451266125,73.0,81.0
1168,243.6762435,244.38502023750002,69.0,82.0
1169,243.6762435,244.407626625,66.0,83.0
1170,243.9953925,244.7227862625,49.0,93.0
1171,244.6336905,245.2440629625,69.0,90.0
1172,244.6336905,245.25204168750003,73.0,84.0
1173,244.6336905,245.2839565875,66.0,84.0
1174,245.9102865,246.003371625,66.0,84.0
1175,245.9102865,246.008690775,62.0,84.0
1176,245.9102865,246.01135035000001,71.0,82.0
1177,245.27198850000002,246.311882325,47.0,86.0
1178,245.27198850000002,246.322520625,59.0,90.0
1179,246.22943550000002,246.62571217500002,71.0,83.0
1180,246.22943550000002,246.6509781375,66.0,86.0
1181,246.22943550000002,246.65629728750002,62.0,91.0
1182,246.5485845,247.439542125,54.0,91.0
1183,247.18688250000002,247.5578932125,66.0,91.0
1184,247.18688250000002,247.56454215000002,62.0,99.0
1185,247.18688250000002,247.57518045,71.0,86.0
1186,247.82518050000002,248.06587203750001,47.0,86.0
1187,247.82518050000002,248.07784012500002,59.0,86.0
1188,248.4634785,248.51002106250002,66.0,62.0
1189,248.4634785,248.54326575000002,62.0,78.0
1190,248.4634785,248.551244475,71.0,75.0
1191,248.4634785,248.8251807,47.0,86.0
1192,248.4634785,248.8291700625,59.0,86.0
1193,248.78262750000002,249.13901055000002,71.0,83.0
1194,248.78262750000002,249.17358502500002,66.0,79.0
1195,248.78262750000002,249.19087226250002,62.0,84.0
1196,249.4209255,249.51135105,66.0,82.0
1197,249.4209255,249.5153404125,62.0,83.0
1198,249.4209255,249.52065956250001,71.0,79.0
1199,249.7400745,249.91427666250001,66.0,86.0
1200,249.7400745,249.91560645,62.0,96.0
1201,249.7400745,249.93156390000001,71.0,86.0
1202,249.1017765,249.9382128375,54.0,91.0
