,start,end,pitch,velocity
0,16.196412375,16.416055012500003,74.0,84.0
1,16.410697875000004,16.628554800000003,72.0,80.0
2,16.624983375000003,17.27855415,74.0,86.0
3,17.267839875000004,17.498196787500003,72.0,78.0
4,17.482125375000003,17.966053462500003,74.0,84.0
5,17.910696375000004,18.107124750000004,72.0,79.0
6,18.124981875000003,18.767838375000004,69.0,74.0
7,18.767838375000004,18.982123875000003,65.0,69.0
8,18.982123875000003,19.196409375,65.0,76.0
9,19.196409375,20.351765362500004,67.0,74.0
10,23.053548375000002,23.273191012500003,74.0,88.0
11,23.267833875000004,23.473190812500004,72.0,79.0
12,23.482119375000003,24.187475812500004,74.0,88.0
13,24.124975875000004,24.355332787500004,72.0,76.0
14,24.339261375000003,24.805332337500005,74.0,83.0
15,24.767832375000005,25.419617437500005,72.0,81.0
16,25.624974375000004,25.812474187500005,65.0,77.0
17,25.839259875000003,26.067831075000004,67.0,74.0
18,26.053545375000002,26.478544950000003,69.0,76.0
19,26.482116375000004,28.007114850000004,67.0,80.0
20,29.910684375000002,30.117827025000004,67.0,80.0
21,30.124969875000005,30.371398200000005,69.0,79.0
22,30.339255375000004,30.776754937500005,67.0,81.0
23,30.767826375000006,31.012468987500004,69.0,80.0
24,30.982111875000005,31.401754312500003,67.0,80.0
25,31.410682875000003,31.649968350000005,69.0,79.0
26,31.624968375000005,32.058896512500006,72.0,78.0
27,32.05353937500001,32.80889576250001,69.0,79.0
28,32.910681375,33.310680975000004,74.0,79.0
29,33.339252375,33.6017521125,72.0,79.0
30,33.767823375000006,33.939251775,72.0,80.0
31,33.982108875,34.11782302500001,65.0,80.0
32,34.196394375000004,34.403537025000006,65.0,75.0
33,34.41067987500001,35.01603641250001,72.0,80.0
34,35.05353637500001,36.339249375,69.0,79.0
35,36.76782037500001,36.97496302500001,67.0,81.0
36,36.982105875,37.24817703750001,69.0,71.0
37,37.196391375000005,37.66067662500001,67.0,80.0
38,37.624962375,37.8428193,69.0,74.0
39,37.839247875000005,38.289247425000006,67.0,73.0
40,38.267818875,38.505318637500004,69.0,80.0
41,38.482104375000006,38.898175387500004,72.0,81.0
42,38.910675375000004,39.553531875000004,69.0,79.0
43,39.553531875000004,39.76781737500001,60.0,75.0
44,39.76781737500001,40.183888387500005,65.0,82.0
45,40.196388375000005,42.21245778750001,62.0,80.0
46,43.624956375000004,43.844599012500005,74.0,84.0
47,43.839241875000006,44.057098800000006,72.0,80.0
48,44.05352737500001,44.70709815000001,74.0,86.0
49,44.69638387500001,44.92674078750001,72.0,78.0
50,44.910669375000005,45.39459746250001,74.0,84.0
51,45.339240375,45.535668750000006,72.0,79.0
52,45.553525875000005,45.76781137500001,72.0,80.0
53,45.982096875,46.41066787500001,69.0,74.0
54,46.41066787500001,46.624953375000004,65.0,76.0
55,46.624953375000004,47.05352437500001,69.0,80.0
56,47.05352437500001,47.267809875000005,67.0,74.0
57,47.267809875000005,48.208880362500004,67.0,74.0
58,50.48209237500001,50.70173501250001,74.0,88.0
59,50.696377875,50.90173481250001,72.0,79.0
60,50.910663375000006,51.61601981250001,74.0,88.0
61,51.553519875000006,51.783876787500006,72.0,76.0
62,51.76780537500001,52.23387633750001,74.0,83.0
63,52.19637637500001,52.8481614375,72.0,81.0
64,53.05351837500001,53.2410181875,65.0,77.0
65,53.267803875000006,53.49637507500001,67.0,74.0
66,53.48208937500001,53.90708895000001,69.0,76.0
67,53.910660375000006,54.12494587500001,67.0,80.0
68,54.12494587500001,55.43565885000001,67.0,80.0
69,57.339228375000005,57.546371025000006,67.0,80.0
70,57.55351387500001,57.79994220000001,69.0,79.0
71,57.76779937500001,58.20529893750001,67.0,81.0
72,58.19637037500001,58.44101298750001,69.0,80.0
73,58.41065587500001,58.830298312500005,72.0,80.0
74,59.05351237500001,59.696368875000005,69.0,78.0
75,59.91065437500001,60.12493987500001,69.0,80.0
76,60.12493987500001,60.339225375000005,69.0,80.0
77,60.339225375000005,60.739224975000006,74.0,79.0
78,60.76779637500001,61.03029611250001,72.0,79.0
79,61.19636737500001,61.624938375000006,65.0,80.0
80,61.624938375000006,61.83208102500001,67.0,75.0
81,61.83922387500001,63.12493687500001,69.0,80.0
82,64.196364375,64.40350702500001,67.0,81.0
83,64.410649875,64.6767210375,69.0,71.0
84,64.624935375,65.08922062500001,67.0,80.0
85,65.05350637500001,65.2713633,69.0,74.0
86,65.26779187500001,65.71779142500002,72.0,73.0
87,65.696362875,66.55350487500002,69.0,80.0
88,66.767790375,66.982075875,60.0,80.0
89,66.982075875,67.19636137500001,60.0,75.0
90,67.19636137500001,67.61243238750001,65.0,82.0
91,67.62493237500001,69.6410017875,62.0,80.0
92,69.76778737500001,69.93921577500001,62.0,81.0
93,69.98207287500001,70.1802869625,64.0,83.0
94,70.196358375,70.41421530000001,65.0,81.0
95,70.410643875,70.62850080000001,62.0,76.0
96,70.62492937500001,70.96421475000001,69.0,80.0
97,71.05350037500001,71.18385738750001,69.0,79.0
98,71.26778587500002,71.9267137875,69.0,81.0
99,72.33921337500001,72.68921302500002,67.0,80.0
100,72.767784375,72.95528418750001,69.0,81.0
101,72.98206987500001,73.4231408625,67.0,80.0
102,73.62492637500002,73.77135480000001,69.0,83.0
103,73.839211875,73.97671173750001,72.0,80.0
104,74.053497375,74.40171131250001,74.0,90.0
105,74.48206837500001,74.59635397500001,74.0,79.0
106,74.69635387500001,74.7945680625,74.0,82.0
107,74.91063937500002,75.4945673625,74.0,86.0
108,75.55349587500001,75.75706710000001,77.0,80.0
109,75.76778137500001,76.1409952875,76.0,84.0
110,76.196352375,77.0659943625,72.0,75.0
111,77.482065375,77.7124222875,67.0,79.0
112,77.69635087500001,77.92849350000002,69.0,78.0
113,77.91063637500001,78.117779025,67.0,73.0
114,78.12492187500001,78.32670738750001,69.0,79.0
115,78.33920737500002,78.80170691250001,67.0,80.0
116,78.767778375,79.003492425,69.0,80.0
117,78.98206387500001,79.61777752500001,72.0,75.0
118,79.62492037500002,80.30527683750002,69.0,76.0
119,80.48206237500001,80.60170511250001,69.0,85.0
120,80.69634787500001,80.83920487500001,69.0,80.0
121,80.91063337500002,81.20706165000001,74.0,86.0
122,81.33920437500001,81.45170426250002,74.0,81.0
123,81.55348987500001,81.69813258750001,74.0,85.0
124,81.76777537500001,82.07670363750002,72.0,85.0
125,82.196346375,82.62134595,72.0,81.0
126,82.62491737500001,83.39634517500001,69.0,79.0
127,84.12491587500001,84.26063002500001,67.0,81.0
128,84.33920137500002,84.6481296375,69.0,81.0
129,84.767772375,84.8838436875,69.0,79.0
130,84.98205787500001,85.61777152500001,69.0,80.0
131,86.05348537500001,86.35705650000001,67.0,79.0
132,86.48205637500001,86.65348477500001,69.0,77.0
133,86.69634187500002,87.18205567500002,67.0,79.0
134,87.33919837500001,87.47491252500001,69.0,83.0
135,87.55348387500001,87.67312661250001,72.0,82.0
136,87.76776937500001,87.98205487500002,74.0,88.0
137,87.98205487500002,88.196340375,74.0,88.0
138,88.196340375,88.41062587500001,74.0,90.0
139,88.41062587500001,88.62491137500001,74.0,90.0
140,88.62491137500001,88.83919687500001,74.0,90.0
141,88.83919687500001,89.26776787500002,77.0,80.0
142,89.26776787500002,89.482053375,76.0,80.0
143,89.482053375,89.91062437500001,74.0,80.0
144,89.91062437500001,90.76776637500001,72.0,80.0
145,91.19633737500001,91.32669438750001,67.0,80.0
146,91.41062287500002,91.55705130000001,69.0,75.0
147,91.62490837500002,91.789193925,67.0,83.0
148,91.839193875,92.02669368750001,69.0,78.0
149,92.05347937500001,92.4802646625,67.0,80.0
150,92.48205037500001,92.68205017500001,69.0,77.0
151,92.69633587500002,93.32847810000001,72.0,81.0
152,93.33919237500001,93.94454891250001,69.0,76.0
153,94.41061987500001,94.61419110000001,60.0,83.0
154,94.62490537500001,95.24276190000002,65.0,80.0
155,95.26776187500002,97.78383078750001,62.0,80.0
156,125.91058837500002,126.13023101250002,74.0,84.0
157,126.12487387500002,126.34273080000001,72.0,80.0
158,126.33915937500002,126.99273015000001,74.0,86.0
159,126.98201587500002,127.21237278750002,72.0,78.0
160,127.19630137500002,127.68022946250002,74.0,84.0
161,127.62487237500002,127.82130075000002,72.0,79.0
162,127.83915787500001,128.05344337500003,72.0,80.0
163,128.26772887500002,128.69629987500002,69.0,74.0
164,128.69629987500002,128.910585375,65.0,76.0
165,128.910585375,129.33915637500002,69.0,80.0
166,129.33915637500002,129.553441875,67.0,74.0
167,129.553441875,130.49451236250002,67.0,74.0
168,132.76772437500003,132.98736701250002,74.0,88.0
169,132.98200987500002,133.18736681250002,72.0,79.0
170,133.196295375,133.9016518125,74.0,88.0
171,133.83915187500003,134.0695087875,72.0,76.0
172,134.05343737500002,134.5195083375,74.0,83.0
173,134.48200837500002,135.13379343750003,72.0,81.0
174,135.33915037500003,135.52665018750002,65.0,77.0
175,135.55343587500002,135.78200707500002,67.0,74.0
176,135.767721375,136.19272095000002,69.0,76.0
177,136.196292375,136.41057787500003,67.0,80.0
178,136.41057787500003,137.72129085000003,67.0,80.0
179,139.62486037500003,139.832003025,67.0,80.0
180,139.839145875,140.08557420000002,69.0,79.0
181,140.05343137500003,140.49093093750002,67.0,81.0
182,140.482002375,140.7266449875,69.0,80.0
183,140.69628787500002,141.1159303125,72.0,80.0
184,141.33914437500002,141.982000875,69.0,78.0
185,142.19628637500003,142.41057187500002,69.0,80.0
186,142.41057187500002,142.624857375,69.0,80.0
187,142.624857375,143.024856975,74.0,79.0
188,143.053428375,143.31592811250002,72.0,79.0
189,143.48199937500002,143.91057037500002,65.0,80.0
190,143.91057037500002,144.11771302500003,67.0,75.0
191,144.124855875,145.41056887500002,69.0,80.0
192,146.48199637500002,146.68913902500003,67.0,81.0
193,146.696281875,146.9623530375,69.0,71.0
194,146.91056737500003,147.37485262500002,67.0,80.0
195,147.33913837500003,147.5569953,69.0,74.0
196,147.55342387500002,148.00342342500002,72.0,73.0
197,147.98199487500003,148.839136875,69.0,80.0
198,149.05342237500003,149.267707875,60.0,80.0
199,149.267707875,149.48199337500003,60.0,75.0
200,149.48199337500003,149.89806438750003,65.0,82.0
201,149.910564375,151.9266337875,62.0,80.0
202,152.05341937500003,152.22484777500003,62.0,81.0
203,152.26770487500002,152.4659189625,64.0,83.0
204,152.481990375,152.69984730000002,65.0,81.0
205,152.69627587500003,152.91413280000003,62.0,76.0
206,152.91056137500001,153.24984675000002,69.0,80.0
207,153.33913237500002,153.46948938750003,69.0,79.0
208,153.553417875,154.21234578750003,69.0,81.0
209,154.624845375,154.974845025,67.0,80.0
210,155.053416375,155.24091618750003,69.0,81.0
211,155.26770187500003,155.7087728625,67.0,80.0
212,155.91055837500002,156.05698680000003,69.0,83.0
213,156.124843875,156.26234373750003,72.0,80.0
214,156.33912937500003,156.68734331250002,74.0,90.0
215,156.76770037500003,156.88198597500002,74.0,79.0
216,156.98198587500002,157.0802000625,74.0,82.0
217,157.196271375,157.7801993625,74.0,86.0
218,157.83912787500003,158.04269910000002,77.0,80.0
219,158.05341337500002,158.42662728750003,76.0,84.0
220,158.48198437500002,159.3516263625,72.0,75.0
221,159.767697375,159.99805428750003,67.0,79.0
222,159.98198287500003,160.21412550000002,69.0,78.0
223,160.19626837500002,160.40341102500003,67.0,73.0
224,160.41055387500003,160.61233938750001,69.0,79.0
225,160.62483937500002,161.08733891250003,67.0,80.0
226,161.05341037500003,161.289124425,69.0,80.0
227,161.26769587500002,161.90340952500003,72.0,75.0
228,161.910552375,162.59090883750002,69.0,76.0
229,162.76769437500002,162.88733711250003,69.0,85.0
230,162.981979875,163.12483687500003,69.0,80.0
231,163.19626537500002,163.49269365000004,74.0,86.0
232,163.62483637500003,163.7373362625,74.0,81.0
233,163.83912187500002,163.98376458750002,74.0,85.0
234,164.05340737500003,164.36233563750002,72.0,85.0
235,164.481978375,164.90697795000003,72.0,81.0
236,164.91054937500002,165.68197717500001,69.0,79.0
237,166.41054787500002,166.54626202500003,67.0,81.0
238,166.624833375,166.93376163750003,69.0,81.0
239,167.053404375,167.1694756875,69.0,79.0
240,167.26768987500003,167.90340352500002,69.0,80.0
241,168.33911737500003,168.64268850000002,67.0,79.0
242,168.76768837500003,168.93911677500003,69.0,77.0
243,168.98197387500002,169.46768767500004,67.0,79.0
244,169.62483037500002,169.76054452500003,69.0,83.0
245,169.83911587500003,169.95875861250002,72.0,82.0
246,170.05340137500002,170.267686875,74.0,88.0
247,170.267686875,170.48197237500003,74.0,88.0
248,170.48197237500003,170.69625787500001,74.0,90.0
249,170.69625787500001,170.91054337500003,74.0,90.0
250,170.91054337500003,171.12482887500002,74.0,90.0
251,171.12482887500002,171.55339987500003,77.0,80.0
252,171.55339987500003,171.767685375,76.0,80.0
253,171.767685375,172.19625637500002,74.0,80.0
254,172.19625637500002,173.05339837500003,72.0,80.0
255,173.48196937500003,173.61232638750002,67.0,80.0
256,173.69625487500002,173.84268330000003,69.0,75.0
257,173.910540375,174.07482592500003,67.0,83.0
258,174.12482587500003,174.31232568750002,69.0,78.0
259,174.33911137500002,174.7658966625,67.0,80.0
260,174.76768237500002,174.96768217500002,69.0,77.0
261,174.981967875,175.61411010000003,72.0,81.0
262,175.62482437500003,176.23018091250003,69.0,76.0
263,176.69625187500003,176.89982310000002,60.0,83.0
264,176.91053737500002,177.52839390000003,65.0,80.0
265,177.553393875,180.06946278750002,62.0,80.0
266,180.33910537500003,181.3516043625,77.0,95.0
267,181.62481837500002,181.79088963750002,76.0,86.0
268,181.83910387500003,181.96410375000002,74.0,79.0
269,182.05338937500002,182.45517468750003,76.0,90.0
270,182.48196037500003,183.17838825,69.0,86.0
271,183.339102375,183.45338797500003,69.0,86.0
272,183.55338787500003,183.73553055000002,69.0,90.0
273,183.76767337500002,184.08731591250003,70.0,86.0
274,184.19624437500002,184.49802978750003,77.0,83.0
275,184.62481537500003,184.80695805000002,76.0,84.0
276,184.839100875,184.95874361250003,74.0,84.0
277,185.05338637500003,185.46410025000003,72.0,82.0
278,185.48195737500004,186.64267050000004,74.0,90.0
279,186.76767037500002,186.88731311250004,77.0,81.0
280,186.981955875,187.12124145,77.0,81.0
281,187.19624137500003,188.32659738750002,79.0,86.0
282,188.48195437500002,188.63373993750002,77.0,81.0
283,188.69623987500003,189.26409645,76.0,83.0
284,189.33909637500003,189.703381725,72.0,88.0
285,189.76766737500003,190.08016706250004,79.0,80.0
286,190.19623837500004,190.31588111250002,79.0,79.0
287,190.41052387500002,190.95516618750003,79.0,81.0
288,191.05338037500002,193.86052042500003,81.0,79.0
289,194.05337737500003,195.33016181250002,86.0,85.0
290,195.339090375,195.56944728750003,89.0,83.0
291,195.55337587500003,196.23908947500001,86.0,82.0
292,196.19623237500002,197.2158742125,84.0,86.0
293,197.48194537500004,197.87301641250002,81.0,85.0
294,197.91051637500001,198.31051597500002,84.0,84.0
295,198.33908737500002,198.75694410000003,81.0,81.0
296,198.76765837500002,199.19087223750003,79.0,80.0
297,199.19622937500003,200.26765687500003,77.0,81.0
298,200.48194237500002,200.62837080000003,76.0,90.0
299,200.69622787500003,200.84087058750004,77.0,75.0
300,200.91051337500002,202.07301221250003,79.0,83.0
301,202.19622637500004,202.41051187500003,77.0,80.0
302,202.41051187500003,203.05336837500002,76.0,81.0
303,203.05336837500002,203.38015376250002,72.0,85.0
304,203.48193937500002,203.79979620000003,76.0,83.0
305,203.91051037500003,204.21408150000002,77.0,80.0
306,204.33908137500003,204.99443786250004,76.0,90.0
307,204.98193787500003,206.91050737500004,74.0,83.0
308,206.91050737500004,207.08193577500003,62.0,81.0
309,207.12479287500003,207.32300696250002,64.0,83.0
310,207.339078375,207.55693530000002,65.0,81.0
311,207.55336387500003,207.77122080000004,62.0,76.0
312,207.76764937500002,208.10693475000002,69.0,80.0
313,208.19622037500002,208.32657738750004,69.0,79.0
314,208.41050587500004,209.06943378750003,69.0,81.0
315,209.48193337500004,209.83193302500004,67.0,80.0
316,209.91050437500002,210.09800418750004,69.0,81.0
317,210.12478987500003,210.56586086250002,67.0,80.0
318,210.76764637500003,210.91407480000004,69.0,83.0
319,210.98193187500001,211.11943173750004,72.0,80.0
320,211.19621737500003,211.54443131250002,74.0,90.0
321,211.62478837500004,211.73907397500003,74.0,79.0
322,211.83907387500003,211.93728806250002,74.0,82.0
323,212.053359375,212.63728736250002,74.0,86.0
324,212.69621587500004,212.89978710000003,77.0,80.0
325,212.91050137500002,213.28371528750003,76.0,84.0
326,213.33907237500003,214.20871436250002,72.0,75.0
327,214.62478537500002,214.85514228750003,67.0,79.0
328,214.83907087500003,215.07121350000003,69.0,78.0
329,215.05335637500002,215.26049902500003,67.0,73.0
330,215.26764187500004,215.46942738750002,69.0,79.0
331,215.48192737500003,215.94442691250003,67.0,80.0
332,215.91049837500003,216.14621242500002,69.0,80.0
333,216.12478387500002,216.76049752500003,72.0,75.0
334,216.76764037500004,217.44799683750003,69.0,76.0
335,217.62478237500002,217.74442511250004,69.0,85.0
336,217.83906787500004,217.98192487500003,69.0,80.0
337,218.05335337500003,218.34978165000004,74.0,86.0
338,218.48192437500003,218.59442426250004,74.0,81.0
339,218.69620987500002,218.84085258750002,74.0,85.0
340,218.91049537500004,219.21942363750003,72.0,85.0
341,219.33906637500002,219.76406595000003,72.0,81.0
342,219.76763737500002,220.53906517500002,69.0,79.0
343,221.26763587500002,221.40335002500004,67.0,81.0
344,221.48192137500004,221.79084963750003,69.0,81.0
345,221.91049237500002,222.02656368750002,69.0,79.0
346,222.12477787500004,222.76049152500002,69.0,80.0
347,223.19620537500003,223.49977650000002,67.0,79.0
348,223.62477637500004,223.79620477500004,69.0,77.0
349,223.83906187500003,224.32477567500004,67.0,79.0
350,224.48191837500002,224.61763252500003,69.0,83.0
351,224.69620387500004,224.81584661250002,72.0,82.0
352,224.91048937500003,225.12477487500004,74.0,88.0
353,225.12477487500004,225.33906037500003,74.0,88.0
354,225.33906037500003,225.55334587500002,74.0,90.0
355,225.55334587500002,225.76763137500004,74.0,90.0
356,225.76763137500004,225.98191687500002,74.0,90.0
357,225.98191687500002,226.41048787500003,77.0,80.0
358,226.41048787500003,226.62477337500002,76.0,80.0
359,226.62477337500002,227.05334437500002,74.0,80.0
360,227.05334437500002,227.91048637500003,72.0,80.0
361,228.33905737500004,228.46941438750002,67.0,80.0
362,228.55334287500003,228.69977130000004,69.0,75.0
363,228.76762837500004,228.93191392500003,67.0,83.0
364,228.98191387500003,229.16941368750003,69.0,78.0
365,229.19619937500002,229.62298466250002,67.0,80.0
366,229.62477037500003,229.82477017500003,69.0,77.0
367,229.83905587500004,230.47119810000004,72.0,81.0
368,230.48191237500004,233.48190937500004,69.0,76.0
369,235.18190767500002,236.10690675000004,60.0,79.0
370,236.41583501250003,237.24976275000003,65.0,77.0
371,237.24797703750002,239.53547475000002,62.0,67.0
