,start,end,pitch,velocity
0,2.482140375,2.7696400875000005,57.0,79.0
1,2.2678548750000003,3.1517825625,48.0,72.0
2,2.6964258750000005,3.1892825250000003,60.0,80.0
3,2.0535693750000004,3.2089253625000005,41.0,75.0
4,3.3392823750000002,3.5857107000000004,57.0,65.0
5,3.1249968750000003,4.0321388250000005,65.0,81.0
6,3.9821388750000004,4.2339243375,55.0,79.0
7,4.196424375,4.432138425000001,60.0,79.0
8,4.410709875,4.862495137500001,64.0,81.0
9,3.7678533750000005,4.9267807875,48.0,84.0
10,4.839280875000001,5.101780612500001,60.0,81.0
11,5.053566375000001,5.424994575,55.0,79.0
12,5.6964228750000006,5.987494012500001,62.0,75.0
13,5.9107083750000005,6.2428509000000005,57.0,68.0
14,6.124993875,6.3339222375,62.0,78.0
15,6.339279375000001,6.591064837500001,65.0,82.0
16,6.553564875000001,6.7892789250000005,62.0,77.0
17,5.482137375000001,6.855350287500001,50.0,82.0
18,6.767850375000001,7.135707150000001,57.0,77.0
19,6.982135875000001,7.314278400000001,62.0,72.0
20,7.624992375000001,7.921420650000001,57.0,78.0
21,7.410706875000001,7.946420625000001,52.0,70.0
22,8.053563375000001,8.4410629875,52.0,73.0
23,7.196421375000001,8.4803486625,45.0,79.0
24,8.267848875,8.485705800000002,57.0,81.0
25,7.839277875000001,8.5410628875,64.0,81.0
26,8.482134375000001,8.892848250000002,69.0,79.0
27,8.696419875000002,8.9696338875,57.0,81.0
28,9.339276375,9.596418975,58.0,72.0
29,9.553561875000002,9.860704425000002,55.0,79.0
30,9.982132875000001,10.164275550000001,58.0,81.0
31,9.767847375,10.251775462500001,62.0,80.0
32,9.124990875000002,10.519632337500001,50.0,67.0
33,8.910705375000001,10.521418050000001,43.0,80.0
34,10.410703875000001,10.696417875000002,62.0,78.0
35,10.196418375000002,10.698203587500002,67.0,80.0
36,11.053560375000002,11.323202962500002,57.0,78.0
37,10.839274875000001,11.369631487500001,52.0,78.0
38,10.624989375000002,11.816059612500002,45.0,81.0
39,11.267845875,11.862488137500002,64.0,79.0
40,11.482131375000002,11.889273825000002,52.0,79.0
41,11.696416875000002,11.962488037500002,60.0,72.0
42,11.910702375000001,12.057130800000001,57.0,80.0
43,12.339273375000001,12.630344512500002,46.0,78.0
44,12.339273375000001,12.644630212500001,58.0,64.0
45,12.339273375000001,12.657130200000001,65.0,73.0
46,12.339273375000001,12.666058762500002,62.0,75.0
47,12.767844375000001,12.889272825,58.0,79.0
48,12.767844375000001,12.905344237500001,46.0,79.0
49,12.767844375000001,12.907129950000002,62.0,80.0
50,12.767844375000001,12.928558500000001,65.0,78.0
51,13.624986375000002,14.214271500000002,55.0,79.0
52,13.624986375000002,15.049984950000002,61.0,70.0
53,13.624986375000002,15.466055962500002,45.0,81.0
54,15.982126875000002,16.2517694625,57.0,73.0
55,16.196412375,16.462483537500002,62.0,75.0
56,15.767841375000001,17.0160544125,50.0,82.0
57,16.410697875000004,18.189267525,65.0,76.0
58,17.910696375000004,18.546410025000004,53.0,73.0
59,17.696410875,18.551767162500003,48.0,67.0
60,17.482125375000003,18.57855285,41.0,80.0
61,18.124981875000003,18.6999813,60.0,79.0
62,18.553552875,18.919623937500003,65.0,78.0
63,19.196409375,19.4481948375,55.0,71.0
64,19.196409375,19.846408725000003,60.0,65.0
65,19.624980375000003,19.958908612500004,55.0,71.0
66,19.839265875000002,20.282122575000002,64.0,81.0
67,19.196409375,20.469622387500003,48.0,79.0
68,20.267836875000004,20.596407975,60.0,80.0
69,20.482122375000003,20.799979200000003,55.0,73.0
70,20.910693375,21.2571216,55.0,74.0
71,20.910693375,21.5160499125,60.0,75.0
72,21.553549875,21.705335437500004,55.0,74.0
73,21.767835375000004,21.944620912500003,55.0,80.0
74,21.767835375000004,22.037477962500002,64.0,82.0
75,20.910693375,22.133906437500002,48.0,76.0
76,21.982120875000003,22.210692075000004,60.0,74.0
77,22.196406375000002,22.303549125000004,55.0,75.0
78,22.624977375000004,22.885691400000002,57.0,74.0
79,23.053548375000002,23.192833950000004,57.0,65.0
80,22.624977375000004,23.248191037500003,62.0,75.0
81,23.267833875000004,23.708904862500003,65.0,80.0
82,22.624977375000004,23.803547625000004,50.0,80.0
83,23.696404875000002,24.005333137500003,62.0,76.0
84,23.910690375,24.019618837500005,57.0,70.0
85,24.339261375000003,24.978546450000003,57.0,72.0
86,24.339261375000003,25.035689250000004,60.0,75.0
87,24.339261375000003,25.408903162500003,41.0,79.0
88,24.767832375000005,25.410688875,48.0,67.0
89,24.982117875000004,25.482117375000005,65.0,81.0
90,25.410688875,25.632117225000002,60.0,73.0
91,25.624974375000004,25.719617137500002,57.0,70.0
92,26.053545375000002,26.246402325000002,55.0,74.0
93,26.053545375000002,26.551759162500005,60.0,77.0
94,26.482116375000004,26.598187687500005,55.0,66.0
95,26.696401875000003,27.169615687500002,64.0,81.0
96,27.124972875000005,27.389258325000004,60.0,76.0
97,26.053545375000002,27.549972450000002,48.0,81.0
98,27.339258375000004,27.696400875000002,55.0,79.0
99,28.410685875000002,28.583899987500004,55.0,73.0
100,27.767829375000005,28.676757037500003,60.0,75.0
101,28.624971375000005,28.921399650000005,64.0,83.0
102,27.767829375000005,28.964256750000004,48.0,82.0
103,28.839256875000004,29.032113825000003,60.0,75.0
104,29.053542375000003,29.162470837500003,55.0,75.0
105,29.482113375000004,29.932112925000006,62.0,74.0
106,29.910684375000002,30.221398350000005,55.0,73.0
107,30.124969875000005,30.603540825000003,62.0,77.0
108,29.482113375000004,30.805326337500006,43.0,80.0
109,29.696398875000003,30.807112050000004,50.0,73.0
110,30.767826375000006,30.928540500000004,55.0,75.0
111,30.553540875000003,31.248183037500006,67.0,80.0
112,31.624968375000005,32.23568205,57.0,73.0
113,31.839253875000004,32.30889626250001,64.0,79.0
114,31.410682875000003,32.35353907500001,52.0,72.0
115,31.196397375000004,32.376753337500006,45.0,80.0
116,32.267824875,32.503538925,60.0,74.0
117,32.482110375000005,32.65889591250001,57.0,75.0
118,32.910681375,33.36425235,62.0,72.0
119,32.910681375,33.448180837500004,46.0,81.0
120,33.124966875000005,33.45710940000001,53.0,73.0
121,33.339252375,33.59996640000001,58.0,70.0
122,33.553537875,33.9517517625,62.0,75.0
123,33.767823375000006,34.208894362500004,48.0,86.0
124,33.982108875,34.235680050000006,60.0,74.0
125,34.196394375000004,34.3946084625,55.0,80.0
126,34.624965375,35.326750387500006,57.0,66.0
127,34.624965375,35.63567865,53.0,73.0
128,35.267821875,35.724964275000005,60.0,83.0
129,35.05353637500001,35.75174996250001,48.0,73.0
130,34.624965375,35.7660356625,41.0,81.0
131,35.910678375,36.030321112500005,53.0,79.0
132,35.69639287500001,36.073178212500004,65.0,83.0
133,36.339249375,37.0267486875,58.0,66.0
134,36.339249375,37.37317691250001,55.0,77.0
135,36.982105875,37.478533950000006,62.0,78.0
136,36.76782037500001,37.64103378750001,50.0,71.0
137,36.339249375,37.65353377500001,43.0,80.0
138,37.624962375,37.76067652500001,62.0,74.0
139,37.41067687500001,37.764247950000005,67.0,80.0
140,38.05353337500001,38.649961350000005,57.0,72.0
141,38.05353337500001,38.653532775,60.0,75.0
142,38.69638987500001,39.239246475,64.0,78.0
143,39.124960875000006,39.416032012500004,60.0,78.0
144,38.05353337500001,39.460674825000005,45.0,80.0
145,38.482104375000006,39.5142462,52.0,75.0
146,39.339246375,39.571389,57.0,77.0
147,39.76781737500001,40.408888162500006,62.0,75.0
148,40.196388375000005,40.494602362500004,57.0,48.0
149,39.76781737500001,40.89817338750001,50.0,80.0
150,40.41067387500001,41.32853010000001,65.0,79.0
151,40.839244875000006,41.58924412500001,57.0,69.0
152,41.482101375000006,41.846386725,38.0,81.0
153,41.267815875000004,41.88924382500001,62.0,71.0
154,41.910672375000004,42.003529425,57.0,68.0
155,42.12495787500001,42.61781452500001,65.0,73.0
156,42.339243375,42.748171537500006,50.0,75.0
157,42.553528875000005,42.7767429375,62.0,71.0
158,42.76781437500001,42.93745706250001,57.0,63.0
159,43.196385375000006,43.414242300000005,57.0,75.0
160,43.196385375000006,43.687456312500004,62.0,79.0
161,43.624956375000004,43.937456062500004,57.0,70.0
162,43.196385375000006,44.162455837500005,50.0,84.0
163,44.05352737500001,44.212455787500005,57.0,74.0
164,44.267812875000004,44.35888421250001,50.0,80.0
165,44.05352737500001,44.52138405000001,62.0,79.0
166,44.05352737500001,44.560669725000004,65.0,77.0
167,44.48209837500001,44.687455312500006,57.0,75.0
168,44.910669375000005,45.4767402375,57.0,73.0
169,44.910669375000005,45.54995445000001,60.0,77.0
170,44.910669375000005,45.98745401250001,41.0,79.0
171,45.339240375,46.0124539875,48.0,68.0
172,45.553525875000005,46.232096625000004,65.0,81.0
173,45.982096875,46.239239475000005,60.0,78.0
174,46.196382375000006,46.3124536875,57.0,72.0
175,46.624953375000004,46.82673888750001,55.0,74.0
176,46.624953375000004,47.0981671875,60.0,74.0
177,47.05352437500001,47.119595737500006,55.0,62.0
178,47.267809875000005,47.680309462500006,64.0,82.0
179,47.69638087500001,47.96245203750001,60.0,76.0
180,46.624953375000004,48.116023312500005,48.0,79.0
181,47.910666375000005,48.360665925000006,55.0,75.0
182,48.12495187500001,48.571380000000005,60.0,75.0
183,48.553522875000006,48.8445940125,55.0,74.0
184,48.76780837500001,48.88745111250001,60.0,75.0
185,48.339237375,49.146379425000006,48.0,83.0
186,48.982093875000004,49.301736412500006,55.0,83.0
187,48.982093875000004,49.337450662500004,64.0,82.0
188,49.19637937500001,49.39816488750001,48.0,75.0
189,49.41066487500001,49.655307487500004,60.0,86.0
190,49.624950375000004,49.755307387500004,55.0,77.0
191,50.05352137500001,50.653520775000004,57.0,71.0
192,50.05352137500001,50.69994930000001,62.0,78.0
193,50.696377875,51.160663125000006,65.0,82.0
194,50.05352137500001,51.185663100000006,38.0,81.0
195,50.48209237500001,51.20530593750001,45.0,66.0
196,51.12494887500001,51.433877137500005,62.0,80.0
197,51.339234375000004,51.47494852500001,57.0,76.0
198,51.76780537500001,52.02316226250001,57.0,73.0
199,51.76780537500001,52.21066207500001,60.0,78.0
200,52.19637637500001,52.524947475000005,57.0,74.0
201,52.41066187500001,52.867804275000005,60.0,78.0
202,51.76780537500001,52.87851855000001,41.0,80.0
203,51.982090875000004,52.880304262500005,48.0,73.0
204,53.05351837500001,53.292803850000006,57.0,67.0
205,52.83923287500001,53.366018062500004,65.0,80.0
206,53.48208937500001,53.733874837500004,55.0,80.0
207,53.48208937500001,53.91423180000001,60.0,74.0
208,53.910660375000006,54.01958883750001,55.0,71.0
209,54.12494587500001,54.401731312500004,55.0,77.0
210,54.12494587500001,54.496374075000006,64.0,84.0
211,54.55351687500001,54.79994520000001,60.0,79.0
212,53.48208937500001,54.989230725000006,48.0,81.0
213,54.76780237500001,55.262444737500005,55.0,80.0
214,54.982087875000005,55.430301712500004,60.0,78.0
215,55.41065887500001,55.72851570000001,55.0,77.0
216,55.624944375000005,55.760658525000004,60.0,76.0
217,55.83922987500001,56.110658175000005,60.0,80.0
218,55.83922987500001,56.14458671250001,55.0,82.0
219,55.83922987500001,56.305300837500006,64.0,82.0
220,56.267800875000006,56.48922922500001,60.0,82.0
221,55.19637337500001,56.59280055000001,48.0,88.0
222,56.48208637500001,56.621371950000004,55.0,80.0
223,56.91065737500001,57.14994285000001,55.0,79.0
224,56.91065737500001,57.296371275000006,62.0,75.0
225,57.339228375000005,57.619585237500004,58.0,75.0
226,57.55351387500001,57.95887061250001,67.0,79.0
227,57.982084875000005,58.10351332500001,62.0,81.0
228,56.91065737500001,58.38387018750001,43.0,80.0
229,57.12494287500001,58.430298712500004,50.0,71.0
230,58.19637037500001,58.430298712500004,55.0,79.0
231,58.624941375000006,58.83922687500001,57.0,78.0
232,58.624941375000006,58.99636957500001,60.0,79.0
233,59.05351237500001,59.21244078750001,57.0,72.0
234,58.83922687500001,59.360654925000006,52.0,70.0
235,59.26779787500001,59.541011887500005,57.0,76.0
236,59.26779787500001,59.57672613750001,64.0,80.0
237,59.696368875000005,59.82494017500001,57.0,79.0
238,58.624941375000006,59.83744016250001,45.0,80.0
239,59.696368875000005,59.87494012500001,60.0,80.0
240,59.48208337500001,59.88029726250001,52.0,79.0
241,60.339225375000005,60.551725162500006,58.0,73.0
242,60.339225375000005,60.71779642500001,46.0,93.0
243,60.339225375000005,60.83743916250001,62.0,75.0
244,60.55351087500001,60.85172486250001,53.0,46.0
245,60.76779637500001,60.919581937500006,58.0,82.0
246,61.19636737500001,61.462438537500006,60.0,72.0
247,61.19636737500001,61.52136705000001,64.0,77.0
248,61.19636737500001,61.58386698750001,48.0,80.0
249,61.41065287500001,61.612438387500006,55.0,74.0
250,61.624938375000006,61.99458086250001,60.0,84.0
251,61.83922387500001,62.00708085000001,64.0,76.0
252,62.05350937500001,62.45708040000001,65.0,78.0
253,62.48208037500001,62.61779452500001,60.0,78.0
254,62.696365875000005,63.00529413750001,60.0,80.0
255,62.696365875000005,63.021365550000006,65.0,81.0
256,62.05350937500001,63.22850820000001,41.0,79.0
257,62.26779487500001,63.24100818750001,48.0,75.0
258,63.12493687500001,63.33565095000001,65.0,79.0
259,63.12493687500001,63.34457951250001,60.0,82.0
260,63.12493687500001,63.376722337500006,69.0,80.0
261,63.76779337500001,64.0552930875,55.0,77.0
262,63.76779337500001,64.21422150000001,62.0,77.0
263,64.410649875,64.62314966250001,58.0,79.0
264,64.196364375,64.74457811250001,55.0,79.0
265,63.982078875000006,65.13922057500001,50.0,77.0
266,63.76779337500001,65.14279200000001,43.0,82.0
267,65.05350637500001,65.2017205125,55.0,78.0
268,64.83922087500001,65.4017203125,67.0,77.0
269,65.482077375,65.66779147500002,57.0,75.0
270,65.482077375,65.81064847500001,60.0,74.0
271,65.91064837500001,66.0624339375,57.0,81.0
272,66.12493387500001,66.382076475,64.0,80.0
273,65.696362875,66.6285048,52.0,73.0
274,65.482077375,66.67493332500001,45.0,79.0
275,66.55350487500002,66.78921892500001,60.0,75.0
276,66.767790375,67.08921862500002,57.0,80.0
277,67.19636137500001,67.30171841250001,38.0,81.0
278,67.19636137500001,67.8427893,62.0,79.0
279,67.839217875,68.04278910000001,57.0,80.0
280,68.053503375,68.34814593750001,65.0,79.0
281,68.26778887500001,68.57314571250001,57.0,75.0
282,68.48207437500001,68.7285027,62.0,75.0
283,67.62493237500001,68.7838597875,50.0,69.0
284,68.69635987500001,69.36421635,65.0,75.0
285,69.124930875,69.53564475,57.0,71.0
286,68.91064537500002,70.03385853750001,50.0,84.0
287,69.76778737500001,70.05885851250001,57.0,81.0
288,69.76778737500001,70.19814408750001,62.0,81.0
289,70.62492937500001,70.8767148375,53.0,70.0
290,70.62492937500001,70.99278615000001,57.0,72.0
291,71.05350037500001,71.36778577500002,53.0,80.0
292,70.83921487500001,71.67314261250002,48.0,77.0
293,70.62492937500001,71.67492832500001,41.0,81.0
294,71.26778587500002,71.74814253750002,60.0,80.0
295,71.91064237500001,72.01599941250001,53.0,75.0
296,71.696356875,72.2124277875,65.0,83.0
297,72.33921337500001,72.4981417875,55.0,76.0
298,72.33921337500001,72.83207002500001,60.0,75.0
299,72.767784375,72.89278425,55.0,72.0
300,72.98206987500001,73.43028371250001,55.0,80.0
301,72.98206987500001,73.43742656250001,64.0,81.0
302,72.33921337500001,73.46064082500001,48.0,81.0
303,73.41064087500001,73.69992630000002,60.0,81.0
304,73.62492637500002,73.81242618750001,55.0,80.0
305,74.053497375,74.19099723750001,57.0,71.0
306,74.053497375,74.33028281250002,62.0,77.0
307,74.26778287500001,74.54635402500001,57.0,77.0
308,74.48206837500001,74.72849670000001,62.0,74.0
309,74.69635387500001,75.1445677125,65.0,83.0
310,74.053497375,75.2695675875,50.0,82.0
311,75.124924875,75.3695674875,62.0,80.0
312,75.33921037500001,75.4695673875,57.0,80.0
313,75.76778137500001,75.96778117500001,57.0,76.0
314,75.76778137500001,76.15349527500001,64.0,79.0
315,76.196352375,76.30885226250001,57.0,79.0
316,76.410637875,76.6517090625,57.0,84.0
317,76.410637875,76.6767090375,64.0,84.0
318,76.83920887500001,76.94278020000002,57.0,79.0
319,75.98206687500002,77.0159944125,52.0,75.0
320,75.76778137500001,77.032065825,45.0,80.0
321,76.83920887500001,77.08742291250002,60.0,86.0
322,77.05349437500001,77.16242283750002,57.0,78.0
323,77.482065375,77.69992230000001,55.0,79.0
324,77.482065375,77.83920787500001,62.0,77.0
325,77.91063637500001,78.117779025,55.0,82.0
326,78.12492187500001,78.61599281250001,62.0,79.0
327,77.482065375,78.83384973750002,43.0,80.0
328,77.69635087500001,78.84456401250002,50.0,75.0
329,78.767778375,78.917778225,55.0,79.0
330,78.553492875,78.9731353125,67.0,82.0
331,79.19634937500001,79.38027776250001,57.0,74.0
332,79.19634937500001,79.5588490125,60.0,77.0
333,79.62492037500002,79.79634877500001,57.0,80.0
334,79.839205875,80.12670558750001,60.0,81.0
335,80.26777687500001,80.35170536250001,57.0,76.0
336,79.19634937500001,80.44277670000001,45.0,81.0
337,80.26777687500001,80.4445624125,60.0,81.0
338,79.41063487500001,80.46420525,52.0,79.0
339,80.26777687500001,80.5695622875,64.0,81.0
340,80.48206237500001,80.62849080000001,57.0,71.0
341,80.91063337500002,81.08920462500001,58.0,68.0
342,80.91063337500002,81.30706155000001,46.0,83.0
343,80.91063337500002,81.35170436250002,62.0,75.0
344,81.124918875,81.4802756625,53.0,71.0
345,81.33920437500001,81.60348982500001,58.0,80.0
346,81.55348987500001,81.87491812500001,62.0,79.0
347,81.98206087500002,82.23384633750001,55.0,79.0
348,81.76777537500001,82.23741776250002,48.0,88.0
349,82.196346375,82.51420320000001,60.0,85.0
350,82.62491737500001,82.81956003750001,57.0,79.0
351,82.62491737500001,83.09277405000002,41.0,81.0
352,82.83920287500001,83.1124168875,48.0,74.0
353,82.62491737500001,83.1374168625,65.0,79.0
354,83.05348837500001,83.32491667500001,57.0,79.0
355,83.26777387500002,83.40705945,60.0,81.0
356,83.482059375,83.78027336250001,57.0,73.0
357,83.482059375,83.89991610000001,61.0,86.0
358,83.91063037500001,84.32670138750001,57.0,82.0
359,83.482059375,84.33920137500002,45.0,80.0
360,83.69634487500001,84.33920137500002,52.0,80.0
361,84.12491587500001,84.35170136250001,61.0,95.0
362,84.33920137500002,84.59098683750001,53.0,70.0
363,84.33920137500002,84.70705815000001,57.0,72.0
364,84.767772375,85.08205777500001,53.0,80.0
365,84.553486875,85.38741461250001,48.0,77.0
366,84.33920137500002,85.389200325,41.0,81.0
367,84.98205787500001,85.46241453750001,60.0,80.0
368,85.62491437500002,85.73027141250002,53.0,75.0
369,85.41062887500001,85.92669978750001,65.0,83.0
370,86.05348537500001,86.21241378750001,55.0,76.0
371,86.05348537500001,86.54634202500002,60.0,75.0
372,86.48205637500001,86.60705625000001,55.0,72.0
373,86.69634187500002,87.14455571250001,55.0,80.0
374,86.69634187500002,87.15169856250002,64.0,81.0
375,86.05348537500001,87.174912825,48.0,81.0
376,87.124912875,87.41419830000001,60.0,81.0
377,87.33919837500001,87.52669818750002,55.0,80.0
378,87.76776937500001,87.90526923750001,57.0,71.0
379,87.76776937500001,88.04455481250001,62.0,77.0
380,87.98205487500002,88.26062602500001,57.0,77.0
381,88.196340375,88.44276870000002,62.0,74.0
382,88.41062587500001,88.85883971250001,65.0,83.0
383,87.76776937500001,88.98383958750001,50.0,82.0
384,88.83919687500001,89.08383948750001,62.0,80.0
385,89.05348237500002,89.18383938750002,57.0,80.0
386,89.482053375,89.68205317500001,57.0,76.0
387,89.482053375,89.867767275,64.0,79.0
388,89.91062437500001,90.0231242625,57.0,79.0
389,90.12490987500001,90.36598106250001,57.0,84.0
390,90.12490987500001,90.39098103750001,64.0,84.0
391,90.553480875,90.65705220000001,57.0,79.0
392,89.69633887500001,90.73026641250001,52.0,75.0
393,89.482053375,90.74633782500001,45.0,80.0
394,90.553480875,90.80169491250001,60.0,86.0
395,90.76776637500001,90.87669483750001,57.0,78.0
396,91.19633737500001,91.4141943,55.0,79.0
397,91.19633737500001,91.55347987500001,62.0,77.0
398,91.62490837500002,91.83205102500001,55.0,82.0
399,91.839193875,92.33026481250002,62.0,79.0
400,91.19633737500001,92.54812173750001,43.0,80.0
401,91.41062287500002,92.55883601250001,50.0,75.0
402,92.48205037500001,92.63205022500001,55.0,79.0
403,92.26776487500001,92.68740731250001,67.0,82.0
404,92.910621375,93.09454976250001,57.0,74.0
405,92.910621375,93.27312101250001,60.0,77.0
406,93.33919237500001,93.510620775,57.0,80.0
407,93.55347787500001,93.8409775875,60.0,81.0
408,93.98204887500002,94.0659773625,57.0,76.0
409,92.910621375,94.15704870000002,45.0,81.0
410,93.98204887500002,94.15883441250001,60.0,81.0
411,93.12490687500001,94.17847725000001,52.0,79.0
412,93.98204887500002,94.28383428750001,64.0,81.0
413,94.196334375,94.34276280000002,57.0,71.0
414,94.62490537500001,94.80347662500002,58.0,68.0
415,94.62490537500001,95.02133355000001,46.0,83.0
416,94.62490537500001,95.06597636250001,62.0,75.0
417,94.83919087500001,95.19454766250001,53.0,71.0
418,95.05347637500002,95.31776182500002,58.0,80.0
419,95.26776187500002,95.58919012500002,62.0,79.0
420,95.69633287500001,95.9481183375,55.0,79.0
421,95.48204737500001,95.95168976250001,48.0,88.0
422,95.91061837500001,96.22847520000002,60.0,85.0
423,96.33918937500002,96.47847495,57.0,70.0
424,96.33918937500002,96.62133195000001,62.0,74.0
425,96.553474875,96.8338317375,57.0,76.0
426,96.76776037500001,96.87133170000001,62.0,75.0
427,96.33918937500002,97.86597356250002,50.0,85.0
428,96.98204587500001,98.09275905000001,57.0,75.0
429,96.98204587500001,98.18740181250001,65.0,79.0
430,98.48204437500002,98.76954408750001,57.0,79.0
431,98.26775887500001,99.15168656250002,48.0,72.0
432,98.69632987500002,99.18918652500001,60.0,80.0
433,98.05347337500001,99.20882936250001,41.0,75.0
434,99.33918637500001,99.58561470000001,57.0,65.0
435,99.12490087500001,100.03204282500002,65.0,81.0
436,99.98204287500002,100.23382833750001,55.0,79.0
437,100.19632837500001,100.43204242500002,60.0,79.0
438,100.41061387500001,100.86239913750002,64.0,81.0
439,99.76775737500002,100.92668478750001,48.0,84.0
440,100.83918487500002,101.10168461250001,60.0,81.0
441,101.05347037500002,101.42489857500001,55.0,79.0
442,101.69632687500001,101.98739801250001,62.0,75.0
443,101.91061237500001,102.24275490000001,57.0,68.0
444,102.12489787500002,102.33382623750002,62.0,78.0
445,102.33918337500002,102.59096883750001,65.0,82.0
446,102.55346887500001,102.78918292500002,62.0,77.0
447,101.48204137500001,102.85525428750002,50.0,82.0
448,102.76775437500001,103.13561115000002,57.0,77.0
449,102.98203987500001,103.3141824,62.0,72.0
450,103.62489637500002,103.92132465000002,57.0,78.0
451,103.41061087500002,103.94632462500002,52.0,70.0
452,104.05346737500001,104.44096698750002,52.0,73.0
453,103.19632537500001,104.4802526625,45.0,79.0
454,104.26775287500001,104.48560980000002,57.0,81.0
455,103.83918187500001,104.54096688750002,64.0,81.0
456,104.48203837500002,104.89275225000002,69.0,79.0
457,104.69632387500002,104.96953788750001,57.0,81.0
458,105.33918037500001,105.596322975,58.0,72.0
459,105.55346587500001,105.86060842500001,55.0,79.0
460,105.98203687500002,106.16417955000001,58.0,81.0
461,105.76775137500002,106.25167946250001,62.0,80.0
462,105.12489487500001,106.51953633750001,50.0,67.0
463,104.910609375,106.52132205000001,43.0,80.0
464,106.41060787500001,106.69632187500001,62.0,78.0
465,106.19632237500001,106.69810758750002,67.0,80.0
466,107.05346437500002,107.32310696250002,57.0,78.0
467,106.83917887500002,107.36953548750002,52.0,78.0
468,106.62489337500001,107.81596361250001,45.0,81.0
469,107.26774987500002,107.86239213750001,64.0,79.0
470,107.48203537500001,107.88917782500002,52.0,79.0
471,107.69632087500001,107.96239203750001,60.0,72.0
472,107.91060637500001,108.05703480000001,57.0,80.0
473,108.33917737500002,108.61774852500001,58.0,71.0
474,108.33917737500002,108.83203402500001,62.0,77.0
475,108.33917737500002,108.94631962500002,46.0,88.0
476,108.55346287500001,109.04631952500002,53.0,74.0
477,108.76774837500001,109.04631952500002,58.0,83.0
478,108.98203387500001,109.36239063750001,62.0,79.0
479,109.41060487500002,109.71417600000001,55.0,76.0
480,109.19631937500002,109.74631882500002,48.0,82.0
481,109.62489037500002,110.11596131250002,60.0,84.0
482,110.05346137500001,110.11596131250002,60.0,75.0
483,110.05346137500001,110.31596111250002,53.0,73.0
484,110.05346137500001,110.58203227500002,41.0,79.0
485,110.26774687500001,110.58381798750001,48.0,77.0
486,110.48203237500002,110.73560355000001,53.0,80.0
487,110.69631787500002,110.91417480000001,57.0,80.0
488,110.91060337500001,111.31238868750002,61.0,80.0
489,111.33917437500001,111.78738821250002,57.0,81.0
490,110.91060337500001,111.81238818750002,45.0,79.0
491,111.12488887500001,111.81238818750002,52.0,68.0
492,112.19631637500001,112.48381608750002,57.0,79.0
493,111.98203087500002,112.86595856250001,48.0,72.0
494,112.41060187500001,112.90345852500002,60.0,80.0
495,111.76774537500002,112.92310136250002,41.0,75.0
496,113.05345837500002,113.29988670000002,57.0,65.0
497,112.83917287500002,113.74631482500001,65.0,81.0
498,113.69631487500001,113.94810033750001,55.0,79.0
499,113.91060037500002,114.14631442500001,60.0,79.0
500,114.12488587500002,114.57667113750001,64.0,81.0
501,113.48202937500001,114.64095678750002,48.0,84.0
502,114.55345687500001,114.81595661250002,60.0,81.0
503,114.76774237500001,115.13917057500001,55.0,79.0
504,115.41059887500002,115.70167001250002,62.0,75.0
505,115.62488437500002,115.95702690000002,57.0,68.0
506,115.83916987500001,116.04809823750001,62.0,78.0
507,116.05345537500001,116.30524083750001,65.0,82.0
508,116.26774087500002,116.50345492500001,62.0,77.0
509,115.19631337500002,116.56952628750001,50.0,82.0
510,116.48202637500002,116.84988315000001,57.0,77.0
511,116.69631187500002,117.02845440000002,62.0,72.0
512,117.33916837500001,117.63559665000001,57.0,78.0
513,117.12488287500001,117.66059662500001,52.0,70.0
514,117.76773937500002,118.15523898750001,52.0,73.0
515,116.91059737500001,118.19452466250002,45.0,79.0
516,117.98202487500002,118.19988180000001,57.0,81.0
517,117.55345387500002,118.25523888750001,64.0,81.0
518,118.19631037500001,118.60702425000001,69.0,79.0
519,118.41059587500001,118.68380988750002,57.0,81.0
520,119.05345237500002,119.31059497500001,58.0,72.0
521,119.26773787500001,119.57488042500002,55.0,79.0
522,119.69630887500001,119.87845155000002,58.0,81.0
523,119.48202337500001,119.96595146250002,62.0,80.0
524,118.83916687500002,120.23380833750002,50.0,67.0
525,118.62488137500002,120.23559405000002,43.0,80.0
526,120.12487987500002,120.41059387500002,62.0,78.0
527,119.91059437500002,120.41237958750001,67.0,80.0
528,120.76773637500001,121.03737896250001,57.0,78.0
529,120.55345087500001,121.08380748750001,52.0,78.0
530,120.33916537500002,121.53023561250002,45.0,81.0
531,120.98202187500002,121.57666413750002,64.0,79.0
532,121.19630737500002,121.60344982500001,52.0,79.0
533,121.41059287500002,121.67666403750002,60.0,72.0
534,121.62487837500002,121.77130680000002,57.0,80.0
535,122.05344937500001,122.15523498750001,38.0,81.0
536,122.05344937500001,122.53559175000002,57.0,79.0
537,122.05344937500001,122.72130585000002,65.0,79.0
538,122.69630587500002,123.02487697500001,57.0,81.0
539,122.91059137500001,123.10880546250002,62.0,86.0
540,122.48202037500002,123.15523398750001,50.0,77.0
541,123.12487687500001,123.37130520000002,65.0,80.0
542,123.33916237500002,123.45523368750001,57.0,81.0
543,123.76773337500002,124.38916132500002,61.0,73.0
544,123.76773337500002,124.48558980000001,57.0,73.0
545,124.19630437500001,124.87844655000002,52.0,68.0
546,123.76773337500002,124.93380363750002,45.0,80.0
547,124.62487537500002,125.33201752500001,61.0,65.0
548,124.62487537500002,125.36594606250002,64.0,76.0
549,125.48201737500001,125.69987430000002,57.0,75.0
550,125.48201737500001,125.97308831250001,62.0,79.0
551,125.91058837500002,126.22308806250001,57.0,70.0
552,125.48201737500001,126.44808783750001,50.0,84.0
553,126.33915937500002,126.49808778750001,57.0,74.0
554,126.55344487500001,126.64451621250002,50.0,80.0
555,126.33915937500002,126.80701605000002,62.0,79.0
556,126.33915937500002,126.84630172500002,65.0,77.0
557,126.76773037500001,126.97308731250001,57.0,75.0
558,127.19630137500002,127.76237223750002,57.0,73.0
559,127.19630137500002,127.83558645000002,60.0,77.0
560,127.19630137500002,128.27308601250002,41.0,79.0
561,127.62487237500002,128.29808598750003,48.0,68.0
562,127.83915787500001,128.51772862500002,65.0,81.0
563,128.26772887500002,128.52487147500003,60.0,78.0
564,128.482014375,128.5980856875,57.0,72.0
565,128.910585375,129.11237088750002,55.0,74.0
566,128.910585375,129.38379918750002,60.0,74.0
567,129.33915637500002,129.4052277375,55.0,62.0
568,129.553441875,129.9659414625,64.0,82.0
569,129.982012875,130.2480840375,60.0,76.0
570,128.910585375,130.40165531250003,48.0,79.0
571,130.19629837500003,130.64629792500003,55.0,75.0
572,130.41058387500001,130.85701200000003,60.0,75.0
573,130.83915487500002,131.1302260125,55.0,74.0
574,131.053440375,131.17308311250002,60.0,75.0
575,130.624869375,131.432011425,48.0,83.0
576,131.26772587500002,131.5873684125,55.0,83.0
577,131.26772587500002,131.62308266250002,64.0,82.0
578,131.482011375,131.68379688750002,48.0,75.0
579,131.69629687500003,131.9409394875,60.0,86.0
580,131.91058237500002,132.0409393875,55.0,77.0
581,132.33915337500002,132.93915277500003,57.0,71.0
582,132.33915337500002,132.9855813,62.0,78.0
583,132.98200987500002,133.446295125,65.0,82.0
584,132.33915337500002,133.47129510000002,38.0,81.0
585,132.76772437500003,133.4909379375,45.0,66.0
586,133.41058087500002,133.7195091375,62.0,80.0
587,133.624866375,133.76058052500002,57.0,76.0
588,134.05343737500002,134.30879426250002,57.0,73.0
589,134.05343737500002,134.496294075,60.0,78.0
590,134.48200837500002,134.81057947500003,57.0,74.0
591,134.696293875,135.15343627500002,60.0,78.0
592,134.05343737500002,135.16415055000002,41.0,80.0
593,134.267722875,135.16593626250003,48.0,73.0
594,135.33915037500003,135.57843585,57.0,67.0
595,135.12486487500001,135.6516500625,65.0,80.0
596,135.767721375,136.01950683750002,55.0,80.0
597,135.767721375,136.19986380000003,60.0,74.0
598,136.196292375,136.30522083750003,55.0,71.0
599,136.41057787500003,136.68736331250003,55.0,77.0
600,136.41057787500003,136.78200607500003,64.0,84.0
601,136.839148875,137.08557720000002,60.0,79.0
602,135.767721375,137.27486272500002,48.0,81.0
603,137.05343437500002,137.54807673750003,55.0,80.0
604,137.267719875,137.71593371250003,60.0,78.0
605,137.69629087500002,138.01414770000002,55.0,77.0
606,137.910576375,138.04629052500002,60.0,76.0
607,138.12486187500002,138.39629017500002,60.0,80.0
608,138.12486187500002,138.43021871250002,55.0,82.0
609,138.12486187500002,138.59093283750002,64.0,82.0
610,138.55343287500003,138.77486122500002,60.0,82.0
611,137.48200537500003,138.87843255,48.0,88.0
612,138.76771837500002,138.90700395000002,55.0,80.0
613,139.19628937500002,139.43557485000002,55.0,79.0
614,139.19628937500002,139.582003275,62.0,75.0
615,139.62486037500003,139.9052172375,58.0,75.0
616,139.839145875,140.2445026125,67.0,79.0
617,140.26771687500002,140.38914532500002,62.0,81.0
618,139.19628937500002,140.66950218750003,43.0,80.0
619,139.410574875,140.7159307125,50.0,71.0
620,140.482002375,140.7159307125,55.0,79.0
621,140.910573375,141.12485887500003,57.0,78.0
622,140.910573375,141.282001575,60.0,79.0
623,141.33914437500002,141.4980727875,57.0,72.0
624,141.12485887500003,141.64628692500003,52.0,70.0
625,141.553429875,141.8266438875,57.0,76.0
626,141.553429875,141.86235813750002,64.0,80.0
627,141.982000875,142.11057217500002,57.0,79.0
628,140.910573375,142.12307216250002,45.0,80.0
629,141.982000875,142.16057212500002,60.0,80.0
630,141.76771537500002,142.16592926250001,52.0,79.0
631,142.624857375,142.8373571625,58.0,73.0
632,142.624857375,143.003428425,46.0,93.0
633,142.624857375,143.12307116250003,62.0,75.0
634,142.83914287500002,143.1373568625,53.0,46.0
635,143.053428375,143.20521393750002,58.0,82.0
636,143.48199937500002,143.7480705375,60.0,72.0
637,143.48199937500002,143.80699905000003,64.0,77.0
638,143.48199937500002,143.8694989875,48.0,80.0
639,143.69628487500003,143.8980703875,55.0,74.0
640,143.91057037500002,144.2802128625,60.0,84.0
641,144.124855875,144.29271285000002,64.0,76.0
642,144.33914137500003,144.74271240000002,65.0,78.0
643,144.76771237500003,144.90342652500001,60.0,78.0
644,144.98199787500002,145.2909261375,60.0,80.0
645,144.98199787500002,145.30699755,65.0,81.0
646,144.33914137500003,145.5141402,41.0,79.0
647,144.553426875,145.52664018750002,48.0,75.0
648,145.41056887500002,145.62128295000002,65.0,79.0
649,145.41056887500002,145.6302115125,60.0,82.0
650,145.41056887500002,145.6623543375,69.0,80.0
651,146.05342537500002,146.3409250875,55.0,77.0
652,146.05342537500002,146.49985350000003,62.0,77.0
653,146.696281875,146.90878166250002,58.0,79.0
654,146.48199637500002,147.03021011250001,55.0,79.0
655,146.267710875,147.42485257500002,50.0,77.0
656,146.05342537500002,147.428424,43.0,82.0
657,147.33913837500003,147.48735251250002,55.0,78.0
658,147.12485287500002,147.68735231250002,67.0,77.0
659,147.767709375,147.95342347500002,57.0,75.0
660,147.767709375,148.09628047500001,60.0,74.0
661,148.19628037500001,148.34806593750002,57.0,81.0
662,148.41056587500003,148.667708475,64.0,80.0
663,147.98199487500003,148.91413680000002,52.0,73.0
664,147.767709375,148.96056532500003,45.0,79.0
665,148.839136875,149.07485092500002,60.0,75.0
666,149.05342237500003,149.37485062500002,57.0,80.0
667,149.48199337500003,149.58735041250003,38.0,81.0
668,149.48199337500003,150.1284213,62.0,79.0
669,150.12484987500002,150.3284211,57.0,80.0
670,150.339135375,150.6337779375,65.0,79.0
671,150.55342087500003,150.85877771250003,57.0,75.0
672,150.76770637500002,151.01413470000003,62.0,75.0
673,149.910564375,151.06949178750003,50.0,69.0
674,150.981991875,151.64984835,65.0,75.0
675,151.410562875,151.82127675,57.0,71.0
676,151.19627737500002,152.31949053750003,50.0,84.0
677,152.05341937500003,152.34449051250002,57.0,81.0
678,152.05341937500003,152.48377608750002,62.0,81.0
679,152.91056137500001,153.16234683750002,53.0,70.0
680,152.91056137500001,153.27841815000002,57.0,72.0
681,153.33913237500002,153.653417775,53.0,80.0
682,153.12484687500003,153.9587746125,48.0,77.0
683,152.91056137500001,153.96056032500002,41.0,81.0
684,153.553417875,154.03377453750002,60.0,80.0
685,154.19627437500003,154.30163141250003,53.0,75.0
686,153.981988875,154.4980597875,65.0,83.0
687,154.624845375,154.78377378750002,55.0,76.0
688,154.624845375,155.11770202500003,60.0,75.0
689,155.053416375,155.17841625000003,55.0,72.0
690,155.26770187500003,155.71591571250002,55.0,80.0
691,155.26770187500003,155.72305856250003,64.0,81.0
692,154.624845375,155.74627282500003,48.0,81.0
693,155.69627287500003,155.9855583,60.0,81.0
694,155.91055837500002,156.09805818750002,55.0,80.0
695,156.33912937500003,156.47662923750002,57.0,71.0
696,156.33912937500003,156.61591481250002,62.0,77.0
697,156.55341487500002,156.83198602500002,57.0,77.0
698,156.76770037500003,157.01412870000001,62.0,74.0
699,156.98198587500002,157.4301997125,65.0,83.0
700,156.33912937500003,157.55519958750003,50.0,82.0
701,157.41055687500003,157.65519948750003,62.0,80.0
702,157.62484237500001,157.75519938750003,57.0,80.0
703,158.05341337500002,158.25341317500002,57.0,76.0
704,158.05341337500002,158.43912727500003,64.0,79.0
705,158.48198437500002,158.59448426250003,57.0,79.0
706,158.696269875,158.93734106250002,57.0,84.0
707,158.696269875,158.9623410375,64.0,84.0
708,159.12484087500002,159.2284122,57.0,79.0
709,158.267698875,159.3016264125,52.0,75.0
710,158.05341337500002,159.317697825,45.0,80.0
711,159.12484087500002,159.3730549125,60.0,86.0
712,159.33912637500003,159.44805483750002,57.0,78.0
713,159.767697375,159.98555430000002,55.0,79.0
714,159.767697375,160.12483987500002,62.0,77.0
715,160.19626837500002,160.40341102500003,55.0,82.0
716,160.41055387500003,160.90162481250002,62.0,79.0
717,159.767697375,161.11948173750002,43.0,80.0
718,159.98198287500003,161.13019601250002,50.0,75.0
719,161.05341037500003,161.20341022500003,55.0,79.0
720,160.839124875,161.25876731250003,67.0,82.0
721,161.48198137500003,161.6659097625,57.0,74.0
722,161.48198137500003,161.8444810125,60.0,77.0
723,161.910552375,162.08198077500003,57.0,80.0
724,162.12483787500003,162.41233758750002,60.0,81.0
725,162.55340887500003,162.63733736250003,57.0,76.0
726,161.48198137500003,162.72840870000002,45.0,81.0
727,162.55340887500003,162.73019441250003,60.0,81.0
728,161.69626687500002,162.74983725,52.0,79.0
729,162.55340887500003,162.8551942875,64.0,81.0
730,162.76769437500002,162.91412280000003,57.0,71.0
731,163.19626537500002,163.37483662500003,58.0,68.0
732,163.19626537500002,163.59269355000004,46.0,83.0
733,163.19626537500002,163.6373363625,62.0,75.0
734,163.410550875,163.7659076625,53.0,71.0
735,163.62483637500003,163.88912182500002,58.0,80.0
736,163.83912187500002,164.16055012500001,62.0,79.0
737,164.26769287500002,164.51947833750003,55.0,79.0
738,164.05340737500003,164.52304976250002,48.0,88.0
739,164.481978375,164.79983520000002,60.0,85.0
740,164.91054937500002,165.10519203750002,57.0,79.0
741,164.91054937500002,165.37840605000002,41.0,81.0
742,165.12483487500003,165.3980488875,48.0,74.0
743,164.91054937500002,165.42304886250002,65.0,79.0
744,165.33912037500002,165.61054867500002,57.0,79.0
745,165.553405875,165.69269145,60.0,81.0
746,165.76769137500003,166.06590536250002,57.0,73.0
747,165.76769137500003,166.18554810000003,61.0,86.0
748,166.19626237500003,166.61233338750003,57.0,82.0
749,165.76769137500003,166.624833375,45.0,80.0
750,165.98197687500002,166.624833375,52.0,80.0
751,166.41054787500002,166.63733336250002,61.0,95.0
752,166.624833375,166.87661883750002,53.0,70.0
753,166.624833375,166.99269015000002,57.0,72.0
754,167.053404375,167.36768977500003,53.0,80.0
755,166.83911887500003,167.67304661250003,48.0,77.0
756,166.624833375,167.674832325,41.0,81.0
757,167.26768987500003,167.74804653750002,60.0,80.0
758,167.91054637500002,168.01590341250002,53.0,75.0
759,167.69626087500004,168.21233178750003,65.0,83.0
760,168.33911737500003,168.49804578750002,55.0,76.0
761,168.33911737500003,168.83197402500002,60.0,75.0
762,168.76768837500003,168.89268825000002,55.0,72.0
763,168.98197387500002,169.43018771250001,55.0,80.0
764,168.98197387500002,169.43733056250002,64.0,81.0
765,168.33911737500003,169.46054482500003,48.0,81.0
766,169.41054487500003,169.69983030000003,60.0,81.0
767,169.62483037500002,169.8123301875,55.0,80.0
768,170.05340137500002,170.19090123750001,57.0,71.0
769,170.05340137500002,170.33018681250002,62.0,77.0
770,170.267686875,170.54625802500001,57.0,77.0
771,170.48197237500003,170.7284007,62.0,74.0
772,170.69625787500001,171.14447171250004,65.0,83.0
773,170.05340137500002,171.26947158750002,50.0,82.0
774,171.12482887500002,171.36947148750002,62.0,80.0
775,171.339114375,171.46947138750002,57.0,80.0
776,171.767685375,171.967685175,57.0,76.0
777,171.767685375,172.15339927500003,64.0,79.0
778,172.19625637500002,172.30875626250003,57.0,79.0
779,172.41054187500004,172.65161306250002,57.0,84.0
780,172.41054187500004,172.67661303750003,64.0,84.0
781,172.839112875,172.94268420000003,57.0,79.0
782,171.98197087500003,173.01589841250004,52.0,75.0
783,171.767685375,173.03196982500003,45.0,80.0
784,172.839112875,173.08732691250003,60.0,86.0
785,173.05339837500003,173.16232683750002,57.0,78.0
786,173.48196937500003,173.6998263,55.0,79.0
787,173.48196937500003,173.83911187500001,62.0,77.0
788,173.910540375,174.11768302500002,55.0,82.0
789,174.12482587500003,174.6158968125,62.0,79.0
790,173.48196937500003,174.83375373750002,43.0,80.0
791,173.69625487500002,174.84446801250002,50.0,75.0
792,174.76768237500002,174.91768222500002,55.0,79.0
793,174.55339687500003,174.97303931250002,67.0,82.0
794,175.19625337500003,175.38018176250003,57.0,74.0
795,175.19625337500003,175.55875301250003,60.0,77.0
796,175.62482437500003,175.79625277500003,57.0,80.0
797,175.83910987500002,176.1266095875,60.0,81.0
798,176.26768087500002,176.35160936250003,57.0,76.0
799,175.19625337500003,176.4426807,45.0,81.0
800,176.26768087500002,176.44446641250002,60.0,81.0
801,175.41053887500001,176.46410925000004,52.0,79.0
802,176.26768087500002,176.56946628750003,64.0,81.0
803,176.481966375,176.62839480000002,57.0,71.0
804,176.91053737500002,177.08910862500002,58.0,68.0
805,176.91053737500002,177.30696555000003,46.0,83.0
806,176.91053737500002,177.35160836250003,62.0,75.0
807,177.12482287500004,177.48017966250003,53.0,71.0
808,177.33910837500002,177.603393825,58.0,80.0
809,177.553393875,177.87482212500004,62.0,79.0
810,177.98196487500002,178.23375033750003,55.0,79.0
811,177.76767937500003,178.23732176250002,48.0,88.0
812,178.19625037500003,178.5141072,60.0,85.0
813,178.624821375,178.76410695,57.0,70.0
814,178.624821375,178.90696395000003,62.0,74.0
815,178.83910687500003,179.1194637375,57.0,76.0
816,179.05339237500002,179.15696370000003,62.0,75.0
817,178.624821375,180.15160556250004,50.0,85.0
818,179.26767787500003,180.37839105000003,57.0,75.0
819,179.26767787500003,180.47303381250003,65.0,79.0
820,180.33910537500003,180.47303381250003,65.0,79.0
821,180.33910537500003,180.61767652500004,58.0,72.0
822,180.33910537500003,180.70339072500002,62.0,78.0
823,180.55339087500002,181.1123188875,53.0,65.0
824,180.98196187500002,181.28910442500003,62.0,81.0
825,180.76767637500004,181.30339012500002,58.0,85.0
826,180.33910537500003,181.41053287500003,46.0,86.0
827,181.196247375,181.54446131250003,53.0,70.0
828,181.41053287500003,181.54981845000003,58.0,79.0
829,181.41053287500003,181.62303266250004,62.0,83.0
830,181.62481837500002,181.72481827500002,46.0,81.0
831,181.41053287500003,181.74088968750002,65.0,80.0
832,182.05338937500002,182.31053197500003,57.0,77.0
833,182.05338937500002,182.3730319125,64.0,80.0
834,182.48196037500003,182.57481742500002,57.0,80.0
835,182.267674875,182.73553155000002,52.0,78.0
836,182.69624587500002,183.02481697500002,57.0,85.0
837,182.69624587500002,183.03553125000002,64.0,81.0
838,183.12481687500002,183.24981675000004,57.0,81.0
839,182.91053137500003,183.29267385000003,52.0,80.0
840,182.05338937500002,183.38731661250003,45.0,80.0
841,183.12481687500002,183.41231658750002,64.0,82.0
842,183.339102375,183.66945918750002,57.0,79.0
843,183.55338787500003,183.76767337500002,64.0,79.0
844,183.76767337500002,184.01588741250004,58.0,70.0
845,183.76767337500002,184.14088728750002,46.0,84.0
846,183.76767337500002,184.15338727500003,65.0,80.0
847,183.76767337500002,184.16231583750002,62.0,79.0
848,184.19624437500002,184.40517273750004,58.0,86.0
849,183.98195887500003,184.49624407500002,53.0,72.0
850,184.41052987500004,184.94802933750003,65.0,79.0
851,184.62481537500003,185.27660043750004,48.0,79.0
852,185.05338637500003,185.31410040000003,60.0,90.0
853,184.839100875,185.39088603750002,55.0,80.0
854,185.48195737500004,185.74088568750003,62.0,79.0
855,185.48195737500004,185.92302836250002,65.0,80.0
856,185.910528375,186.02481397500003,62.0,82.0
857,185.69624287500002,186.23195662500004,57.0,66.0
858,186.12481387500003,186.39624217500003,62.0,86.0
859,186.12481387500003,186.39624217500003,69.0,79.0
860,186.33909937500002,186.65338477500003,57.0,79.0
861,186.55338487500003,186.831956025,62.0,85.0
862,186.55338487500003,187.05159866250003,65.0,88.0
863,185.48195737500004,187.06052722500002,50.0,83.0
864,186.981955875,187.16409855000003,62.0,84.0
865,186.76767037500002,187.18552710000003,57.0,79.0
866,187.19624137500003,187.49445536250002,55.0,74.0
867,187.19624137500003,187.67838375000002,62.0,77.0
868,187.41052687500002,187.91766922500003,50.0,75.0
869,187.62481237500003,187.94088348750003,55.0,80.0
870,188.05338337500004,188.15695470000003,55.0,42.0
871,187.83909787500002,188.17659753750002,62.0,81.0
872,188.05338337500004,188.37838305000002,50.0,79.0
873,188.26766887500003,188.42659728750002,55.0,81.0
874,188.26766887500003,188.78195407500002,67.0,78.0
875,188.26766887500003,188.78731121250001,62.0,80.0
876,188.48195437500002,188.79088263750003,50.0,80.0
877,187.19624137500003,188.83909687500002,43.0,80.0
878,188.69623987500003,188.84088258750003,55.0,82.0
879,188.91052537500002,189.02659668750002,55.0,82.0
880,188.91052537500002,189.16766797500003,60.0,80.0
881,189.12481087500004,189.40695345000003,55.0,83.0
882,189.33909637500003,189.47481052500004,60.0,79.0
883,188.91052537500002,189.64981035000002,48.0,90.0
884,189.553381875,189.83909587500003,60.0,80.0
885,189.553381875,189.87659583750002,55.0,81.0
886,189.553381875,189.93016721250004,64.0,82.0
887,189.76766737500003,190.21230978750003,48.0,80.0
888,189.98195287500002,190.23195262500002,60.0,85.0
889,190.19623837500004,190.34445251250003,55.0,81.0
890,190.624809375,190.81766632500003,57.0,74.0
891,190.624809375,191.024808975,60.0,79.0
892,191.05338037500002,191.39445146250003,57.0,76.0
893,191.26766587500003,191.58195127500002,60.0,79.0
894,190.83909487500003,191.73195112500002,48.0,78.0
895,191.696236875,191.85516528750003,57.0,81.0
896,191.696236875,191.98016516250001,60.0,90.0
897,190.624809375,191.98373658750003,41.0,80.0
898,191.91052237500003,192.06230793750004,48.0,79.0
899,191.696236875,192.18730781250002,65.0,79.0
900,192.12480787500002,192.24445061250003,57.0,77.0
901,192.33909337500003,192.55337887500002,57.0,80.0
902,192.33909337500003,192.63373593750003,61.0,74.0
903,192.76766437500004,192.8515928625,57.0,80.0
904,192.55337887500002,193.0123069875,52.0,77.0
905,192.98194987500003,193.28016386250002,57.0,85.0
906,192.98194987500003,193.28194957500003,64.0,83.0
907,192.98194987500003,193.28730671250003,61.0,83.0
908,193.41052087500003,193.49266365000003,57.0,79.0
909,192.33909337500003,193.49623507500002,45.0,81.0
910,193.19623537500001,193.58194927500003,52.0,83.0
911,193.41052087500003,193.67659203750003,61.0,83.0
912,193.41052087500003,193.69087773750002,64.0,86.0
913,193.62480637500002,193.77659193750003,57.0,80.0
914,194.05337737500003,194.28194857500003,58.0,74.0
915,194.05337737500003,194.54087688750002,62.0,79.0
916,194.48194837500003,194.58016256250002,58.0,80.0
917,194.267662875,194.76230523750002,53.0,76.0
918,194.05337737500003,194.99087643750002,46.0,83.0
919,194.69623387500002,195.01766212500002,58.0,82.0
920,194.69623387500002,195.0337335375,65.0,80.0
921,195.12480487500002,195.22480477500002,58.0,74.0
922,194.91051937500004,195.23551905000002,53.0,80.0
923,195.12480487500002,195.41587601250004,62.0,79.0
924,195.339090375,195.439090275,58.0,75.0
925,195.76766137500002,195.98194687500003,60.0,77.0
926,195.76766137500002,196.08194677500003,64.0,80.0
927,196.19623237500002,196.31230368750002,60.0,74.0
928,195.98194687500003,196.43908927500001,55.0,75.0
929,196.41051787500004,196.65694620000002,60.0,79.0
930,196.41051787500004,196.66766047500002,67.0,75.0
931,196.83908887500002,196.94980305,60.0,83.0
932,195.76766137500002,196.97480302500003,48.0,83.0
933,196.62480337500003,196.98908872500002,55.0,76.0
934,196.83908887500002,197.06408865000003,64.0,86.0
935,197.05337437500003,197.37123120000004,60.0,78.0
936,197.26765987500002,197.41944543750003,64.0,80.0
937,197.48194537500004,197.58730241250004,60.0,79.0
938,197.48194537500004,197.69623087500003,65.0,84.0
939,197.48194537500004,197.92301636250002,69.0,82.0
940,197.69623087500003,198.06051622500001,60.0,81.0
941,197.91051637500001,198.14444471250002,65.0,81.0
942,197.48194537500004,198.20873036250003,53.0,85.0
943,198.12480187500003,198.3712302,69.0,80.0
944,198.33908737500002,198.84265830000004,67.0,78.0
945,198.55337287500004,198.931943925,55.0,75.0
946,198.33908737500002,198.96944388750003,48.0,84.0
947,198.76765837500002,199.07480092500003,60.0,85.0
948,198.981943875,199.24087218750003,64.0,79.0
949,199.19622937500003,199.58551470000003,65.0,80.0
950,199.62480037500004,199.74444311250002,62.0,83.0
951,199.41051487500002,199.86408585000004,57.0,80.0
952,199.83908587500002,200.05337137500004,62.0,81.0
953,199.83908587500002,200.09444276250002,65.0,80.0
954,200.05337137500004,200.36944248750004,57.0,80.0
955,199.19622937500003,200.39444246250002,50.0,82.0
956,200.26765687500003,200.4480138375,62.0,81.0
957,200.26765687500003,200.72479927500004,69.0,81.0
958,200.26765687500003,200.73194212500002,65.0,86.0
959,200.69622787500003,200.91051337500002,62.0,77.0
960,200.48194237500002,200.91765622500003,57.0,78.0
961,201.33908437500003,201.60158411250003,55.0,86.0
962,201.55336987500002,201.90158381250004,62.0,80.0
963,201.12479887500004,201.95694090000003,50.0,79.0
964,201.98194087500002,202.20336922500002,55.0,82.0
965,200.91051337500002,202.44979755000003,43.0,81.0
966,201.98194087500002,202.44979755000003,62.0,79.0
967,201.98194087500002,202.46586896250002,67.0,79.0
968,202.19622637500004,202.49979750000003,50.0,79.0
969,202.41051187500003,202.55158316250004,55.0,79.0
970,202.624797375,202.74444011250003,55.0,85.0
971,202.624797375,202.89265425000002,60.0,81.0
972,202.83908287500003,203.11051117500003,55.0,83.0
973,203.05336837500002,203.17836825000003,60.0,74.0
974,202.624797375,203.36943948750002,48.0,80.0
975,203.26765387500004,203.54265360000002,60.0,79.0
976,203.26765387500004,203.74979625000003,55.0,80.0
977,203.26765387500004,203.76051052500003,64.0,81.0
978,203.48193937500002,203.87479612500002,48.0,80.0
979,203.696224875,203.92658178750003,60.0,83.0
980,203.91051037500003,204.16765297500004,55.0,80.0
981,204.12479587500002,204.29622427500001,60.0,74.0
982,204.33908137500003,204.4515812625,38.0,83.0
983,204.33908137500003,204.69622387500002,57.0,78.0
984,204.33908137500003,204.83908087500004,62.0,79.0
985,204.98193787500003,205.28729471250003,57.0,73.0
986,205.19622337500002,205.48193737500003,62.0,83.0
987,205.19622337500002,205.68908002500004,65.0,78.0
988,205.62479437500002,205.78550850000002,62.0,81.0
989,205.41050887500003,205.88729411250003,57.0,78.0
990,204.76765237500004,205.89622267500002,50.0,81.0
991,205.83907987500004,206.09443676250004,64.0,85.0
992,206.05336537500003,206.3283651,62.0,22.0
993,206.48193637500003,206.99265015000003,62.0,75.0
994,206.05336537500003,207.63193522500003,50.0,84.0
995,206.91050737500004,207.69086373750002,65.0,74.0
996,206.26765087500002,207.69622087500002,57.0,71.0
997,207.76764937500002,208.67479132500003,60.0,71.0
998,207.76764937500002,208.84086258750003,41.0,75.0
999,208.19622037500002,208.84264830000004,48.0,69.0
1000,209.05336237500003,209.19979080000002,57.0,62.0
1001,208.62479137500003,209.2158622125,65.0,80.0
1002,209.48193337500004,209.60693325000003,55.0,67.0
1003,209.48193337500004,209.73907597500002,60.0,72.0
1004,209.69621887500003,209.95336147500004,55.0,73.0
1005,209.91050437500002,210.11586131250002,60.0,72.0
1006,210.12478987500003,210.58728941250004,64.0,79.0
1007,209.48193337500004,210.76228923750003,48.0,77.0
1008,210.55336087500004,210.80514633750002,60.0,75.0
1009,210.76764637500003,210.86586056250002,55.0,68.0
1010,211.19621737500003,211.68193117500002,62.0,74.0
1011,211.62478837500004,212.15157356250003,57.0,66.0
1012,212.053359375,212.33728766250002,65.0,77.0
1013,212.26764487500003,212.51228748750003,64.0,80.0
1014,211.19621737500003,212.66585876250002,50.0,75.0
1015,212.48193037500002,212.88371568750003,62.0,71.0
1016,212.91050137500002,213.49621507500004,64.0,77.0
1017,213.33907237500003,213.61050067500003,57.0,57.0
1018,213.12478687500004,213.64085778750004,52.0,74.0
1019,212.91050137500002,214.03371453750003,45.0,80.0
1020,213.98192887500002,214.15514298750003,52.0,80.0
1021,213.55335787500002,214.1801429625,60.0,78.0
1022,214.19621437500004,214.34085708750004,57.0,70.0
1023,214.62478537500002,215.53907017500003,58.0,66.0
1024,214.62478537500002,215.54442731250003,55.0,70.0
1025,215.48192737500003,215.73192712500003,62.0,74.0
1026,215.05335637500002,215.91228408750004,50.0,61.0
1027,214.62478537500002,215.97835545000004,43.0,79.0
1028,215.91049837500003,216.23906947500004,55.0,81.0
1029,215.69621287500001,216.49442636250004,67.0,80.0
1030,216.76764037500004,217.03371153750004,57.0,71.0
1031,216.55335487500003,217.22835420000004,52.0,67.0
1032,216.98192587500003,217.45692540000002,60.0,79.0
1033,216.33906937500004,217.61049667500004,45.0,80.0
1034,217.41049687500004,217.87835355000004,64.0,64.0
1035,218.05335337500003,218.46942438750003,62.0,77.0
1036,218.48192437500003,218.74263840000003,58.0,68.0
1037,218.26763887500002,218.99620957500002,53.0,75.0
1038,218.69620987500002,219.36228063750002,62.0,79.0
1039,219.33906637500002,219.59085183750003,58.0,69.0
1040,218.05335337500003,219.67656603750004,46.0,68.0
1041,219.12478087500003,219.73192312500004,53.0,68.0
1042,219.55335187500003,219.73549455000003,62.0,74.0
1043,219.76763737500002,219.96228003750002,57.0,79.0
1044,219.76763737500002,220.23549405000003,41.0,81.0
1045,219.98192287500004,220.25513688750002,48.0,74.0
1046,219.76763737500002,220.28013686250003,65.0,79.0
1047,220.19620837500003,220.46763667500002,57.0,79.0
1048,220.41049387500004,220.54977945000002,60.0,81.0
1049,220.62477937500003,220.92299336250002,57.0,73.0
1050,220.62477937500003,221.04263610000004,61.0,86.0
1051,221.05335037500004,221.46942138750003,57.0,82.0
1052,220.62477937500003,221.48192137500004,45.0,80.0
1053,220.83906487500002,221.48192137500004,52.0,80.0
1054,221.26763587500002,221.49442136250002,61.0,95.0
1055,221.48192137500004,221.73370683750002,53.0,70.0
1056,221.48192137500004,221.84977815000002,57.0,72.0
1057,221.91049237500002,222.22477777500004,53.0,80.0
1058,221.69620687500003,222.53013461250004,48.0,77.0
1059,221.48192137500004,222.53192032500002,41.0,81.0
1060,222.12477787500004,222.60513453750002,60.0,80.0
1061,222.76763437500003,222.87299141250003,53.0,75.0
1062,222.55334887500004,223.06941978750004,65.0,83.0
1063,223.19620537500003,223.35513378750002,55.0,76.0
1064,223.19620537500003,223.68906202500003,60.0,75.0
1065,223.62477637500004,223.74977625000002,55.0,72.0
1066,223.83906187500003,224.28727571250002,55.0,80.0
1067,223.83906187500003,224.29441856250003,64.0,81.0
1068,223.19620537500003,224.31763282500003,48.0,81.0
1069,224.26763287500003,224.55691830000004,60.0,81.0
1070,224.48191837500002,224.66941818750004,55.0,80.0
1071,224.91048937500003,225.04798923750002,57.0,71.0
1072,224.91048937500003,225.18727481250002,62.0,77.0
1073,225.12477487500004,225.40334602500002,57.0,77.0
1074,225.33906037500003,225.58548870000004,62.0,74.0
1075,225.55334587500002,226.00155971250004,65.0,83.0
1076,224.91048937500003,226.12655958750003,50.0,82.0
1077,225.98191687500002,226.22655948750003,62.0,80.0
1078,226.19620237500004,226.32655938750003,57.0,80.0
1079,226.62477337500002,226.82477317500002,57.0,76.0
1080,226.62477337500002,227.01048727500003,64.0,79.0
1081,227.05334437500002,227.16584426250003,57.0,79.0
1082,227.26762987500004,227.50870106250002,57.0,84.0
1083,227.26762987500004,227.53370103750004,64.0,84.0
1084,227.69620087500002,227.79977220000004,57.0,79.0
1085,226.83905887500003,227.87298641250004,52.0,75.0
1086,226.62477337500002,227.88905782500004,45.0,80.0
1087,227.69620087500002,227.94441491250004,60.0,86.0
1088,227.91048637500003,228.01941483750002,57.0,78.0
1089,228.33905737500004,228.55691430000002,55.0,79.0
1090,228.33905737500004,228.69619987500002,62.0,77.0
1091,228.76762837500004,228.97477102500002,55.0,82.0
1092,228.98191387500003,229.47298481250002,62.0,79.0
1093,228.33905737500004,229.69084173750002,43.0,80.0
1094,228.55334287500003,229.70155601250002,50.0,75.0
1095,229.62477037500003,229.77477022500003,55.0,79.0
1096,229.41048487500004,229.83012731250003,67.0,82.0
1097,230.05334137500003,230.23726976250003,57.0,74.0
1098,230.05334137500003,230.41584101250004,60.0,77.0
1099,230.48191237500004,230.65334077500003,57.0,80.0
1100,230.69619787500002,230.98369758750002,60.0,81.0
1101,231.12476887500003,231.20869736250003,57.0,76.0
1102,230.05334137500003,231.29976870000004,45.0,81.0
1103,231.12476887500003,231.30155441250002,60.0,81.0
1104,230.26762687500002,231.32119725000004,52.0,79.0
1105,231.12476887500003,231.42655428750004,64.0,81.0
1106,231.33905437500002,231.48548280000003,57.0,71.0
1107,232.35333907500004,232.81048147500002,64.0,81.0
1108,232.14976785000002,232.83548145000003,57.0,79.0
1109,232.76762437500003,232.93905277500002,69.0,80.0
1110,231.95155376250003,233.01940983750004,52.0,67.0
1111,231.72298256250002,233.06226693750003,45.0,79.0
1112,233.34619522500003,237.89797638750002,61.0,64.0
1113,233.29262385000004,237.90154781250004,57.0,66.0
1114,233.35155236250003,237.91226208750004,45.0,79.0
1115,233.43190942500004,237.91761922500004,64.0,71.0
1116,233.51226648750003,237.93369063750004,69.0,76.0
1117,239.05333237500002,239.34083208750002,57.0,79.0
1118,238.83904687500004,239.72297456250004,48.0,72.0
1119,239.26761787500004,239.76047452500003,60.0,80.0
1120,238.62476137500002,239.78011736250002,41.0,75.0
1121,239.91047437500004,240.15690270000002,57.0,65.0
1122,239.69618887500002,240.60333082500003,65.0,81.0
1123,240.55333087500003,240.80511633750004,55.0,79.0
1124,240.76761637500005,241.00333042500003,60.0,79.0
1125,240.98190187500003,241.43368713750004,64.0,81.0
1126,240.33904537500004,241.49797278750003,48.0,84.0
1127,241.41047287500004,241.67297261250002,60.0,81.0
1128,241.62475837500003,241.99618657500002,55.0,79.0
1129,242.26761487500002,242.55868601250003,62.0,75.0
1130,242.48190037500004,242.81404290000003,57.0,68.0
1131,242.69618587500003,242.90511423750004,62.0,78.0
1132,242.91047137500004,243.16225683750002,65.0,82.0
1133,243.12475687500003,243.36047092500004,62.0,77.0
1134,242.05332937500003,243.42654228750004,50.0,82.0
1135,243.33904237500002,243.70689915000003,57.0,77.0
1136,243.55332787500004,243.88547040000003,62.0,72.0
1137,244.19618437500003,244.49261265000004,57.0,78.0
1138,243.98189887500004,244.51761262500003,52.0,70.0
1139,244.62475537500003,245.01225498750003,52.0,73.0
1140,243.76761337500002,245.05154066250003,45.0,79.0
1141,244.83904087500002,245.05689780000003,57.0,81.0
1142,244.41046987500002,245.11225488750003,64.0,81.0
1143,245.05332637500004,245.46404025000004,69.0,79.0
1144,245.26761187500003,245.54082588750003,57.0,81.0
1145,245.91046837500002,246.16761097500003,58.0,72.0
1146,246.12475387500004,246.43189642500002,55.0,79.0
1147,246.55332487500004,246.73546755000004,58.0,81.0
1148,246.33903937500003,246.82296746250003,62.0,80.0
1149,245.69618287500003,247.09082433750004,50.0,67.0
1150,245.48189737500005,247.09261005000002,43.0,80.0
1151,246.98189587500002,247.26760987500003,62.0,78.0
1152,246.76761037500003,247.26939558750004,67.0,80.0
1153,247.62475237500004,247.89439496250003,57.0,78.0
1154,247.41046687500003,247.94082348750004,52.0,78.0
1155,247.19618137500004,248.38725161250002,45.0,81.0
1156,247.83903787500003,248.43368013750003,64.0,79.0
1157,248.05332337500002,248.46046582500003,52.0,79.0
1158,248.26760887500004,248.53368003750003,60.0,72.0
1159,248.48189437500002,248.62832280000003,57.0,80.0
1160,249.09082233750004,250.05867851250002,61.0,61.0
1161,249.28010786250005,251.42832000000004,69.0,61.0
1162,248.98903672500003,251.49081993750002,57.0,69.0
1163,248.95867961250002,251.66760547500004,52.0,71.0
1164,248.78903692500003,251.71581971250004,45.0,74.0
1165,249.19617937500004,251.81224818750005,64.0,68.0
1166,253.60510353750004,253.99796028750004,50.0,79.0
1167,253.81403190000003,254.09260305000004,57.0,72.0
1168,254.06581736250004,254.22296006250002,62.0,75.0
1169,254.49081693750003,254.92117365000004,69.0,67.0
1170,254.83724516250004,255.43367313750002,62.0,65.0
1171,255.35867321250004,255.48367308750002,69.0,58.0
1172,255.42295886250002,255.58903012500002,74.0,78.0
1173,256.2443866125,256.43724356250004,86.0,72.0
1174,253.35510378750004,257.1301000125,45.0,67.0
1175,252.91938993750003,257.1872428125,38.0,86.0
