,start,end,pitch,velocity
0,26.948646341666667,27.151771233333335,71.0,95.0
1,27.216503341666666,27.420744304166668,73.0,99.0
2,27.48436034166667,27.708690579166667,74.0,101.0
3,27.752217341666668,28.002217208333334,73.0,101.0
4,28.020074341666668,28.4966365875,71.0,99.0
5,28.555788341666666,28.9854756125,69.0,95.0
6,29.09150234166667,30.79016215,71.0,96.0
7,31.234358341666667,31.434135020833335,71.0,97.0
8,31.502215341666666,31.654000975000002,73.0,87.0
9,31.77007234166667,31.973197233333334,74.0,96.0
10,32.03792934166667,32.26225957916667,73.0,100.0
11,32.30578634166667,32.7421700375,71.0,99.0
12,32.841500341666666,33.291276887500004,73.0,99.0
13,33.377214341666665,35.11493662916667,66.0,97.0
14,35.52007034166667,35.800204120833335,71.0,101.0
15,35.787927341666666,35.93413262083333,73.0,96.0
16,36.055784341666666,36.2444003125,74.0,102.0
17,36.323641341666665,36.56359657083333,73.0,100.0
18,36.591498341666664,37.0345784625,71.0,99.0
19,37.12721234166667,37.53904247916667,78.0,99.0
20,37.66292634166667,38.56247943333334,76.0,99.0
21,38.46649734166667,38.64395260416667,74.0,99.0
22,38.734354341666666,39.5926128125,76.0,99.0
23,39.80578234166667,39.970960825,74.0,102.0
24,40.07363934166667,40.26783566666667,76.0,97.0
25,40.34149634166667,40.57252300416667,78.0,98.0
26,40.60935334166667,40.8247550125,76.0,99.0
27,40.87721034166667,41.301317258333334,74.0,99.0
28,41.41292434166667,41.63279029583333,76.0,97.0
29,41.680781341666666,41.880558020833334,78.0,94.0
30,41.948638341666665,43.789039145833335,73.0,97.0
31,44.09149434166667,44.294619233333336,71.0,95.0
32,44.35935134166667,44.56359230416667,73.0,99.0
33,44.627208341666666,44.851538579166665,74.0,101.0
34,44.895065341666665,45.145065208333335,73.0,101.0
35,45.162922341666665,45.6394845875,71.0,99.0
36,45.69863634166667,46.128323612500004,69.0,95.0
37,46.23435034166667,47.93301015,71.0,96.0
38,48.37720634166667,48.57698302083333,71.0,97.0
39,48.64506334166667,48.796848975,73.0,87.0
40,48.91292034166667,49.11604523333334,74.0,96.0
41,49.18077734166667,49.40510757916667,73.0,100.0
42,49.44863434166667,49.885018037500004,71.0,99.0
43,49.98434834166667,50.434124887500005,73.0,99.0
44,50.520062341666666,52.25778462916667,66.0,97.0
45,52.66291834166667,52.943052120833336,71.0,101.0
46,52.93077534166667,53.07698062083333,73.0,96.0
47,53.198632341666666,53.3872483125,74.0,102.0
48,53.466489341666666,53.706444570833334,73.0,100.0
49,53.734346341666665,54.1774264625,71.0,99.0
50,54.27006034166667,54.68189047916667,78.0,99.0
51,54.80577434166667,55.70532743333334,76.0,99.0
52,55.60934534166667,55.78680060416667,74.0,99.0
53,55.87720234166667,56.7354608125,76.0,99.0
54,56.94863034166667,57.113808825,74.0,102.0
55,57.21648734166667,57.41068366666667,76.0,97.0
56,57.48434434166667,57.71537100416667,78.0,98.0
57,57.75220134166667,57.9676030125,76.0,99.0
58,58.02005834166667,58.444165258333335,74.0,99.0
59,58.55577234166667,58.77563829583333,73.0,97.0
60,58.82362934166667,59.023406020833335,71.0,94.0
61,59.091486341666666,60.931887145833336,71.0,97.0
62,61.23434234166667,61.45978865,78.0,106.0
63,61.50219934166667,61.66960996666667,81.0,101.0
64,61.77005634166667,61.960904454166666,83.0,100.0
65,62.037913341666666,62.2265293125,81.0,102.0
66,62.305770341666666,62.97876105416667,76.0,106.0
67,63.37719834166667,63.729876725000004,78.0,100.0
68,63.91291234166667,64.13277829583333,74.0,100.0
69,64.18076934166668,64.426304925,73.0,101.0
70,64.44862634166667,65.28233125416666,71.0,100.0
71,65.52005434166666,65.70420602916667,78.0,97.0
72,65.78791134166667,65.95420589583334,81.0,98.0
73,66.05576834166666,66.23992002916667,83.0,97.0
74,66.32362534166667,66.47652704583334,81.0,98.0
75,66.59148234166666,67.03009817916667,76.0,100.0
76,67.12719634166668,67.27563376250001,74.0,104.0
77,67.39505334166667,67.573624675,76.0,99.0
78,67.66291034166667,69.4653647375,78.0,98.0
79,69.80576634166667,69.98991802916667,78.0,104.0
80,70.07362334166667,70.22094469166667,81.0,97.0
81,70.34148034166667,70.51447132083334,83.0,99.0
82,70.60933734166667,70.76558725833334,81.0,95.0
83,70.87719434166667,71.75777422916667,76.0,101.0
84,71.94862234166666,72.2142472,76.0,98.0
85,72.21647934166667,72.45643457083334,78.0,101.0
86,72.48433634166666,72.97763965,76.0,102.0
87,73.02005034166667,73.7510767375,74.0,104.0
88,74.09147834166667,74.29125502083333,76.0,82.0
89,74.35933534166666,74.48879955833334,74.0,95.0
90,74.62719234166667,74.778977975,76.0,99.0
91,74.89504934166666,75.05799568333333,74.0,104.0
92,75.16290634166667,75.60040610833333,76.0,100.0
93,75.69862034166667,76.16067366666667,79.0,100.0
94,76.23433434166667,77.91178880416668,78.0,104.0
95,78.37719034166668,78.5356724,78.0,96.0
96,78.64504734166667,78.79013655,81.0,93.0
97,78.91290434166667,79.08701139166666,83.0,97.0
98,79.18076134166667,79.38611837500001,81.0,95.0
99,79.44861834166667,80.39616247916666,76.0,99.0
100,80.52004634166667,80.91178720416667,78.0,97.0
101,81.05576034166667,81.24772452500001,74.0,100.0
102,81.32361734166668,81.51111724166667,73.0,100.0
103,81.59147434166667,82.21870615,71.0,91.0
104,82.66290234166667,82.84035760416667,78.0,97.0
105,82.93075934166667,83.08700925833334,81.0,97.0
106,83.19861634166666,83.39504480833334,83.0,97.0
107,83.46647334166667,83.62718754166667,81.0,99.0
108,83.73433034166666,84.19191938333334,83.0,99.0
109,84.27004434166668,84.53790134166667,85.0,106.0
110,84.53790134166667,84.64727628333334,83.0,96.0
111,84.80575834166667,86.31133789583333,78.0,104.0
112,86.94861434166667,87.100399975,78.0,101.0
113,87.21647134166668,87.36937304583334,81.0,97.0
114,87.48432834166667,87.64504254166667,83.0,96.0
115,87.75218534166667,87.90397097500001,81.0,95.0
116,88.02004234166667,89.00330074583334,76.0,104.0
117,89.09147034166666,89.47316656666666,78.0,99.0
118,89.62718434166666,90.13946085416667,76.0,93.0
119,90.16289834166668,90.87495153333333,74.0,97.0
120,91.23432634166667,91.40062089583334,76.0,98.0
121,91.50218334166667,91.62941541666667,76.0,96.0
122,91.77004034166667,91.92629025833334,76.0,99.0
123,92.03789734166666,92.22204902916667,78.0,97.0
124,92.30575434166667,92.67070950416667,76.0,99.0
125,92.84146834166667,93.30017345416667,69.0,97.0
126,93.37718234166667,95.31244916666667,71.0,99.0
127,121.23431034166667,121.43743523333333,71.0,95.0
128,121.50216734166668,121.70640830416667,73.0,99.0
129,121.77002434166667,121.99435457916667,74.0,101.0
130,122.03788134166668,122.28788120833333,73.0,101.0
131,122.30573834166667,122.7823005875,71.0,99.0
132,122.84145234166667,123.27113961250001,69.0,95.0
133,123.37716634166667,125.07582615,71.0,96.0
134,125.52002234166667,125.71979902083334,71.0,97.0
135,125.78787934166667,125.939664975,73.0,87.0
136,126.05573634166667,126.25886123333333,74.0,96.0
137,126.32359334166667,126.54792357916666,73.0,100.0
138,126.59145034166667,127.0278340375,71.0,99.0
139,127.12716434166667,127.5769408875,73.0,99.0
140,127.66287834166667,129.40060062916666,66.0,97.0
141,129.80573434166666,130.08586812083334,71.0,101.0
142,130.07359134166668,130.21979662083334,73.0,96.0
143,130.34144834166668,130.5300643125,74.0,102.0
144,130.60930534166667,130.84926057083334,73.0,100.0
145,130.87716234166666,131.3202424625,71.0,99.0
146,131.41287634166667,131.82470647916668,78.0,99.0
147,131.94859034166666,132.84814343333335,76.0,99.0
148,132.75216134166666,132.92961660416668,74.0,99.0
149,133.02001834166668,133.8782768125,76.0,99.0
150,134.09144634166668,134.25662482500002,74.0,102.0
151,134.35930334166667,134.55349966666668,76.0,97.0
152,134.62716034166667,134.85818700416667,78.0,98.0
153,134.89501734166666,135.11041901250002,76.0,99.0
154,135.16287434166668,135.58698125833334,74.0,99.0
155,135.69858834166666,135.91845429583333,73.0,97.0
156,135.96644534166668,136.16622202083335,71.0,94.0
157,136.23430234166668,138.07470314583333,71.0,97.0
158,138.37715834166667,138.60260465000002,78.0,106.0
159,138.64501534166666,138.81242596666667,81.0,101.0
160,138.91287234166668,139.10372045416668,83.0,100.0
161,139.18072934166668,139.3693453125,81.0,102.0
162,139.44858634166667,140.12157705416666,76.0,106.0
163,140.52001434166667,140.872692725,78.0,100.0
164,141.05572834166668,141.27559429583334,74.0,100.0
165,141.32358534166667,141.569120925,73.0,101.0
166,141.59144234166666,142.42514725416666,71.0,100.0
167,142.66287034166666,142.84702202916668,78.0,97.0
168,142.93072734166668,143.09702189583334,81.0,98.0
169,143.19858434166667,143.38273602916667,83.0,97.0
170,143.46644134166667,143.61934304583335,81.0,98.0
171,143.73429834166666,144.17291417916667,76.0,100.0
172,144.27001234166667,144.41844976250002,74.0,104.0
173,144.53786934166666,144.716440675,76.0,99.0
174,144.80572634166668,146.6081807375,78.0,98.0
175,146.94858234166668,147.13273402916667,78.0,104.0
176,147.21643934166667,147.36376069166667,81.0,97.0
177,147.48429634166666,147.65728732083335,83.0,99.0
178,147.75215334166668,147.90840325833335,81.0,95.0
179,148.02001034166668,148.90059022916668,76.0,101.0
180,149.09143834166667,149.3570632,76.0,98.0
181,149.35929534166667,149.59925057083333,78.0,101.0
182,149.62715234166666,150.12045565,76.0,102.0
183,150.16286634166667,150.8938927375,74.0,104.0
184,151.23429434166667,151.43407102083333,76.0,82.0
185,151.50215134166666,151.63161555833335,74.0,95.0
186,151.77000834166668,151.921793975,76.0,99.0
187,152.03786534166667,152.20081168333334,74.0,104.0
188,152.30572234166667,152.74322210833333,76.0,100.0
189,152.84143634166668,153.30348966666668,79.0,100.0
190,153.37715034166666,155.05460480416667,78.0,104.0
191,155.52000634166666,155.6784884,78.0,96.0
192,155.78786334166668,155.93295255,81.0,93.0
193,156.05572034166667,156.22982739166667,83.0,97.0
194,156.32357734166666,156.528934375,81.0,95.0
195,156.59143434166668,157.53897847916667,76.0,99.0
196,157.66286234166668,158.05460320416668,78.0,97.0
197,158.19857634166667,158.390540525,74.0,100.0
198,158.46643334166666,158.65393324166666,73.0,100.0
199,158.73429034166668,159.36152215,71.0,91.0
200,159.80571834166668,159.98317360416667,78.0,97.0
201,160.07357534166667,160.22982525833334,81.0,97.0
202,160.34143234166666,160.53786080833333,83.0,97.0
203,160.60928934166668,160.77000354166668,81.0,99.0
204,160.87714634166667,161.33473538333334,83.0,99.0
205,161.41286034166666,161.68071734166668,85.0,106.0
206,161.68071734166668,161.79009228333334,83.0,96.0
207,161.94857434166667,163.45415389583334,78.0,104.0
208,164.09143034166667,164.243215975,78.0,101.0
209,164.35928734166666,164.51218904583334,81.0,97.0
210,164.62714434166668,164.78785854166668,83.0,96.0
211,164.89500134166667,165.046786975,81.0,95.0
212,165.16285834166666,166.14611674583333,76.0,104.0
213,166.23428634166666,166.61598256666667,78.0,99.0
214,166.77000034166667,167.28227685416667,76.0,93.0
215,167.30571434166666,168.01776753333334,74.0,97.0
216,168.37714234166668,168.54343689583334,76.0,98.0
217,168.64499934166668,168.77223141666667,76.0,96.0
218,168.91285634166667,169.06910625833333,76.0,99.0
219,169.18071334166666,169.36486502916668,78.0,97.0
220,169.44857034166668,169.81352550416668,76.0,99.0
221,169.98428434166667,170.44298945416668,69.0,97.0
222,170.51999834166668,172.45526516666666,71.0,99.0
223,172.66285434166667,172.88830065000002,78.0,106.0
224,172.93071134166667,173.09812196666667,81.0,101.0
225,173.1985683416667,173.38941645416668,83.0,100.0
226,173.46642534166668,173.6550413125,81.0,102.0
227,173.73428234166667,174.40727305416667,76.0,106.0
228,174.80571034166667,175.158388725,78.0,100.0
229,175.34142434166668,175.56129029583334,74.0,100.0
230,175.60928134166667,175.854816925,73.0,101.0
231,175.87713834166667,176.71084325416666,71.0,100.0
232,176.94856634166666,177.13271802916668,78.0,97.0
233,177.21642334166668,177.38271789583334,81.0,98.0
234,177.48428034166668,177.66843202916667,83.0,97.0
235,177.75213734166667,177.90503904583335,81.0,98.0
236,178.01999434166666,178.45861017916667,76.0,100.0
237,178.55570834166667,178.70414576250002,74.0,104.0
238,178.82356534166667,179.002136675,76.0,99.0
239,179.09142234166669,180.8938767375,78.0,98.0
240,181.23427834166668,181.41843002916667,78.0,104.0
241,181.50213534166667,181.64945669166667,81.0,97.0
242,181.76999234166666,181.94298332083335,83.0,99.0
243,182.03784934166669,182.19409925833335,81.0,95.0
244,182.30570634166668,183.18628622916668,76.0,101.0
245,183.37713434166668,183.6427592,76.0,98.0
246,183.64499134166667,183.88494657083334,78.0,101.0
247,183.91284834166666,184.40615165,76.0,102.0
248,184.44856234166667,185.1795887375,74.0,104.0
249,185.51999034166667,185.71976702083333,76.0,82.0
250,185.78784734166666,185.91731155833335,74.0,95.0
251,186.05570434166668,186.20748997500002,76.0,99.0
252,186.32356134166668,186.48650768333334,74.0,104.0
253,186.59141834166667,187.02891810833333,76.0,100.0
254,187.12713234166668,187.58918566666668,79.0,100.0
255,187.66284634166666,189.34030080416667,78.0,104.0
256,189.80570234166666,189.9641844,78.0,96.0
257,190.07355934166668,190.21864855,81.0,93.0
258,190.34141634166667,190.51552339166668,83.0,97.0
259,190.60927334166666,190.814630375,81.0,95.0
260,190.87713034166669,191.82467447916667,76.0,99.0
261,191.94855834166668,192.34029920416668,78.0,97.0
262,192.48427234166667,192.676236525,74.0,100.0
263,192.75212934166666,192.93962924166667,73.0,100.0
264,193.01998634166668,193.64721815000001,71.0,91.0
265,194.09141434166668,194.26886960416667,78.0,97.0
266,194.35927134166667,194.51552125833334,81.0,97.0
267,194.62712834166666,194.82355680833334,83.0,97.0
268,194.89498534166668,195.05569954166668,81.0,99.0
269,195.16284234166667,195.62043138333334,83.0,99.0
270,195.69855634166666,195.96641334166668,85.0,106.0
271,195.96641334166668,196.07578828333334,83.0,96.0
272,196.23427034166667,197.73984989583334,78.0,104.0
273,198.37712634166667,198.528911975,78.0,101.0
274,198.64498334166666,198.79788504583334,81.0,97.0
275,198.91284034166668,199.07355454166668,83.0,96.0
276,199.18069734166667,199.332482975,81.0,95.0
277,199.44855434166666,200.43181274583333,76.0,104.0
278,200.51998234166666,200.90167856666667,78.0,99.0
279,201.05569634166667,201.56797285416667,76.0,93.0
280,201.59141034166666,202.30346353333334,74.0,97.0
281,202.66283834166668,202.82913289583334,76.0,98.0
282,202.93069534166668,203.05792741666667,76.0,96.0
283,203.19855234166667,203.35480225833334,76.0,99.0
284,203.46640934166666,203.65056102916668,78.0,97.0
285,203.73426634166668,204.09922150416668,76.0,99.0
286,204.26998034166667,204.72868545416668,69.0,97.0
287,204.80569434166668,206.74096116666666,71.0,99.0
288,207.16283594166669,207.47310363333335,74.0,106.0
289,207.5356036,207.9072551875,76.0,97.0
290,208.06350510416667,208.45189775416668,76.0,95.0
291,208.55457627083334,208.92734392916668,78.0,96.0
292,209.08470991666667,210.56238770000002,76.0,101.0
293,211.54564610416668,212.46975275416668,69.0,94.0
294,212.41618135416667,213.00546675416666,71.0,93.0
295,213.26551125833333,216.3235453416667,71.0,88.0
