,start,end,pitch,velocity
0,0.09263387916666667,0.48437474166666666,71.0,62.0
1,0.16852669583333335,0.5401782833333334,74.0,69.0
2,0.21651774166666668,0.5446425666666667,78.0,70.0
3,0.08816959583333334,3.0301323125,47.0,85.0
4,3.3493285708333334,4.752229608333334,71.0,85.0
5,3.3292392958333332,4.868300975,66.0,75.0
6,3.2399536291666666,4.950890216666667,59.0,62.0
7,3.3024535958333336,4.9553545,62.0,80.0
8,3.3225428708333333,5.265622191666667,47.0,84.0
9,5.529014908333333,6.3482109,66.0,41.0
10,5.513389916666667,6.373880529166667,62.0,42.0
11,5.344863220833333,6.410710866666667,59.0,58.0
12,5.5078095625,6.493300108333334,69.0,66.0
13,5.469863154166667,7.551335258333333,47.0,83.0
14,7.572540604166667,7.732138733333334,59.0,72.0
15,7.593745950000001,8.361602683333334,62.0,84.0
16,7.675219120833334,8.8828077625,66.0,72.0
17,8.9765577125,9.1774504625,64.0,94.0
18,9.2678522,9.5357092,62.0,102.0
19,9.533477058333334,9.779012641666666,57.0,94.0
20,7.601558445833334,9.8203072625,47.0,73.0
21,9.805798341666668,9.8203072625,47.0,96.0
22,9.805798341666668,10.158476725,59.0,90.0
23,9.805798341666668,10.354905191666667,62.0,91.0
24,10.073655341666667,10.43303015,54.0,82.0
25,10.341512341666666,10.680797875,59.0,94.0
26,10.609369341666667,10.859369208333334,62.0,95.0
27,10.877226341666667,11.435261758333334,64.0,95.0
28,10.877226341666667,11.470976025,59.0,91.0
29,10.877226341666667,11.497761725,52.0,96.0
30,11.948654341666668,12.297984512500001,54.0,87.0
31,11.948654341666668,12.443073720833334,42.0,96.0
32,12.216511341666667,12.472091562500001,49.0,83.0
33,11.948654341666668,12.533475458333333,57.0,90.0
34,12.484368341666666,12.8470913625,54.0,100.0
35,12.752225341666668,12.9408413125,57.0,96.0
36,13.287939341666666,13.639501654166667,54.0,85.0
37,13.020082341666667,13.705349833333333,47.0,99.0
38,13.555796341666667,13.707581975,59.0,100.0
39,14.091510341666668,14.422983379166666,55.0,88.0
40,14.091510341666668,14.637268979166667,59.0,90.0
41,14.895081341666668,15.233250804166667,59.0,97.0
42,14.627224341666667,15.248875795833333,55.0,91.0
43,14.359367341666667,15.321420400000001,50.0,85.0
44,15.162938341666667,15.493295308333334,62.0,97.0
45,15.430795341666666,15.741063033333333,50.0,87.0
46,14.091510341666668,15.7734290875,43.0,95.0
47,15.698652341666667,15.8136076375,55.0,90.0
48,15.698652341666667,15.818071920833335,67.0,91.0
49,16.234366341666668,16.7946339,54.0,95.0
50,16.770080341666667,17.094856954166666,58.0,79.0
51,17.037937341666666,17.185258691666668,54.0,97.0
52,16.502223341666667,17.410705,49.0,90.0
53,16.234366341666668,17.449767479166667,42.0,97.0
54,17.30579434166667,17.664053079166667,66.0,95.0
55,17.30579434166667,17.703115558333334,54.0,100.0
56,17.30579434166667,17.7053477,58.0,95.0
57,17.573651341666668,17.732133400000002,49.0,88.0
58,17.841508341666668,17.938606504166668,58.0,88.0
59,17.841508341666668,17.955347566666667,54.0,96.0
60,17.841508341666668,17.977668983333334,61.0,93.0
61,17.841508341666668,18.041285020833335,66.0,94.0
62,18.377222341666666,18.739945362500002,59.0,90.0
63,18.377222341666666,18.95088275,62.0,89.0
64,18.645079341666666,18.975436308333332,54.0,89.0
65,18.377222341666666,18.995525583333333,47.0,98.0
66,18.91293634166667,19.097088029166667,59.0,96.0
67,19.448650341666667,19.598203833333333,59.0,95.0
68,19.448650341666667,19.7644983875,64.0,98.0
69,19.716507341666667,19.941953650000002,59.0,96.0
70,19.448650341666667,20.0122661125,52.0,100.0
71,19.984364341666666,20.408471258333336,67.0,90.0
72,20.25222134166667,20.5278908375,59.0,96.0
73,20.520078341666668,21.026774500000002,42.0,100.0
74,20.787935341666667,21.074765545833333,49.0,94.0
75,21.055792341666667,21.390613591666668,54.0,88.0
76,21.323649341666666,21.4185153625,57.0,94.0
77,21.59150634166667,21.908470458333333,59.0,92.0
78,21.59150634166667,22.0011043375,62.0,96.0
79,21.85936334166667,22.167398891666668,54.0,91.0
80,21.59150634166667,22.21092565416667,47.0,97.0
81,22.127220341666668,22.277889904166667,59.0,96.0
82,22.662934341666666,23.007800229166666,55.0,89.0
83,22.662934341666666,23.208692979166667,40.0,96.0
84,22.662934341666666,23.210925120833334,64.0,96.0
85,22.930791341666666,23.227666183333334,47.0,83.0
86,23.19864834166667,23.465389270833334,59.0,97.0
87,23.466505341666668,23.573648141666666,55.0,96.0
88,23.734362341666667,24.0301211125,57.0,94.0
89,23.734362341666667,24.207576375000002,61.0,95.0
90,24.002219341666667,24.4285584,52.0,93.0
91,23.734362341666667,24.5122637125,45.0,97.0
92,24.270076341666666,24.597085095833336,57.0,96.0
93,24.53793334166667,24.710924320833335,61.0,97.0
94,24.80579034166667,25.159584795833336,59.0,91.0
95,24.80579034166667,25.172977645833335,62.0,97.0
96,25.073647341666668,25.469852487500003,54.0,77.0
97,25.341504341666667,25.939718308333333,59.0,97.0
98,26.14507534166667,26.20534316666667,59.0,83.0
99,26.14507534166667,26.364941295833333,62.0,89.0
100,25.87721834166667,26.402887704166666,66.0,96.0
101,26.412932341666668,26.90177136666667,71.0,95.0
102,25.609361341666666,27.045744504166667,54.0,82.0
103,24.80579034166667,27.11605696666667,47.0,97.0
104,26.948646341666667,27.11605696666667,47.0,91.0
105,26.948646341666667,27.637262045833335,66.0,84.0
106,27.48436034166667,27.866056566666668,59.0,89.0
107,27.752217341666668,27.945297595833335,62.0,88.0
108,27.216503341666666,29.090386270833335,54.0,75.0
109,28.020074341666668,29.88837691666667,71.0,95.0
110,29.09150234166667,29.924091183333335,66.0,87.0
111,29.627216341666667,29.9765465125,59.0,83.0
112,29.895073341666667,30.114939295833334,62.0,87.0
113,29.359359341666668,30.36159095,54.0,83.0
114,30.162930341666666,30.621635454166668,64.0,84.0
115,30.43078734166667,30.710921120833333,59.0,88.0
116,30.698644341666668,30.840385337500003,54.0,82.0
117,29.09150234166667,30.842617479166666,47.0,91.0
118,31.234358341666667,31.587036725,55.0,84.0
119,31.234358341666667,31.791277687500003,62.0,61.0
120,31.77007234166667,32.12163465416667,55.0,87.0
121,32.30578634166667,32.44194698333333,67.0,83.0
122,31.502215341666666,32.9999824,50.0,91.0
123,31.234358341666667,33.02788417083333,43.0,96.0
124,32.03792934166667,33.2410537,62.0,94.0
125,33.91292834166667,34.231008529166665,57.0,90.0
126,34.18078534166667,34.44864234166667,61.0,87.0
127,33.645071341666664,34.74998146666667,49.0,78.0
128,33.377214341666665,34.75444575,42.0,94.0
129,34.44864234166667,34.887258179166665,66.0,94.0
130,36.055784341666666,36.68078400833333,55.0,89.0
131,36.323641341666665,36.755560754166666,59.0,89.0
132,35.787927341666666,36.810248225,47.0,88.0
133,35.52007034166667,36.8303375,40.0,97.0
134,36.591498341666664,36.8671678375,64.0,95.0
135,37.66292634166667,38.1528814375,61.0,84.0
136,37.66292634166667,38.3839081,54.0,83.0
137,38.19864034166667,38.52341695416667,57.0,87.0
138,38.46649734166667,38.7856936,61.0,84.0
139,37.93078334166667,38.876095337500004,49.0,81.0
140,37.66292634166667,38.88390783333333,42.0,88.0
141,38.734354341666666,38.984354208333336,66.0,96.0
142,39.80578234166667,40.814710375000004,59.0,88.0
143,40.34149634166667,40.83368357916667,62.0,87.0
144,39.80578234166667,40.83479965,55.0,86.0
145,40.87721034166667,41.25890656666667,62.0,94.0
146,40.60935334166667,41.26560299166667,67.0,89.0
147,40.07363934166667,41.320290462500004,50.0,83.0
148,39.80578234166667,41.3537725875,43.0,95.0
149,41.948638341666665,42.531227316666666,54.0,85.0
150,41.948638341666665,42.749977200000004,66.0,89.0
151,42.48435234166667,42.7801111125,58.0,89.0
152,42.75220934166667,43.012253845833335,61.0,91.0
153,42.216495341666665,43.124977,49.0,80.0
154,41.948638341666665,43.13390556666667,42.0,93.0
155,43.02006634166667,43.60153924583334,66.0,96.0
156,43.28792334166667,43.607119600000004,54.0,95.0
157,43.55578034166667,43.649530291666665,58.0,86.0
158,44.627208341666666,45.26002050416667,66.0,97.0
159,44.09149434166667,45.32921689583333,62.0,91.0
160,44.09149434166667,45.348190100000004,59.0,87.0
161,44.35935134166667,45.9676094125,54.0,88.0
162,44.09149434166667,46.03122545,47.0,96.0
163,45.69863634166667,46.26448425416667,59.0,66.0
164,45.162922341666665,46.270064608333335,71.0,96.0
165,46.23435034166667,46.82586788333334,62.0,89.0
166,45.43077934166667,47.06024275833334,66.0,91.0
167,46.50220734166667,47.6517603,54.0,76.0
168,47.03792134166667,47.659572795833334,62.0,90.0
169,46.77006434166667,47.671849575,59.0,89.0
170,46.23435034166667,47.8426084125,47.0,96.0
171,47.573635341666666,48.10600112916667,71.0,98.0
172,48.109349341666665,48.18859037083333,62.0,86.0
173,47.841492341666665,48.1908225125,59.0,97.0
174,48.37720634166667,48.717607945833336,55.0,90.0
175,48.37720634166667,48.938589970833334,59.0,83.0
176,48.91292034166667,49.71649134166667,55.0,91.0
177,49.18077734166667,49.75443775,59.0,90.0
178,49.44863434166667,49.842607345833336,62.0,85.0
179,48.64506334166667,49.8783216125,50.0,82.0
180,48.37720634166667,49.92073230416667,43.0,96.0
181,50.520062341666666,50.86381215833333,54.0,86.0
182,50.520062341666666,51.272294083333335,66.0,91.0
183,51.32363334166667,51.622740325,57.0,87.0
184,51.05577634166667,51.63724924583334,54.0,89.0
185,50.787919341666665,51.9106866,49.0,85.0
186,50.520062341666666,51.916266954166666,42.0,96.0
187,51.59149034166667,51.94528479583334,61.0,90.0
188,51.85934734166667,52.141713262500005,57.0,89.0
189,52.12720434166667,52.24550785,54.0,96.0
190,52.66291834166667,52.86715930416667,59.0,84.0
191,52.66291834166667,52.997739591666665,64.0,88.0
192,52.93077534166667,53.272293016666666,59.0,89.0
193,53.198632341666666,53.574748212500005,64.0,91.0
194,53.466489341666666,53.64729281666667,59.0,81.0
195,52.66291834166667,53.97430157083333,52.0,99.0
196,54.00220334166667,54.203096091666666,59.0,86.0
197,53.734346341666665,54.220953225,67.0,96.0
198,54.80577434166667,55.347068695833336,66.0,90.0
199,55.34148834166667,55.916264820833334,57.0,80.0
200,55.60934534166667,55.916264820833334,61.0,95.0
201,55.07363134166667,56.1997468125,49.0,80.0
202,54.80577434166667,56.22095215833333,42.0,95.0
203,55.87720234166667,56.2332289375,66.0,96.0
204,56.145059341666666,56.400639562500004,61.0,98.0
205,56.412916341666666,56.51671092916667,57.0,99.0
206,56.94863034166667,57.223183766666665,55.0,89.0
207,56.94863034166667,57.46425506666667,59.0,88.0
208,56.94863034166667,57.646174612500005,43.0,95.0
209,57.21648734166667,57.7064424375,50.0,86.0
210,57.48434434166667,57.800192387500005,55.0,92.0
211,57.75220134166667,58.049076183333334,59.0,97.0
212,58.02005834166667,58.5803259,61.0,97.0
213,58.02005834166667,58.65845085833333,45.0,96.0
214,58.28791534166667,58.7577811625,52.0,87.0
215,58.55577234166667,58.8984060875,57.0,89.0
216,58.82362934166667,58.986575683333335,61.0,97.0
217,59.091486341666666,59.39170939583334,59.0,94.0
218,59.091486341666666,59.39505760833333,62.0,95.0
219,59.89505734166667,60.23322680416667,62.0,90.0
220,59.62720034166667,60.262244645833334,59.0,87.0
221,60.16291434166667,60.524521291666666,71.0,96.0
222,59.359343341666666,60.69193191666667,54.0,95.0
223,59.091486341666666,60.72541404166667,47.0,97.0
224,60.43077134166667,60.783449725000004,66.0,101.0
225,60.69862834166667,60.8403693375,59.0,97.0
226,61.23434234166667,61.5367975375,59.0,87.0
227,61.23434234166667,61.80242239583333,62.0,91.0
228,61.50219934166667,61.8213956,54.0,84.0
229,61.23434234166667,61.83255630833334,66.0,87.0
230,61.77005634166667,62.1260829375,59.0,99.0
231,61.23434234166667,62.189698975,47.0,97.0
232,62.037913341666666,62.237690020833334,62.0,95.0
233,62.305770341666666,62.74773439166667,64.0,97.0
234,62.305770341666666,62.771171879166666,52.0,99.0
235,62.305770341666666,62.771171879166666,59.0,95.0
236,63.37719834166667,63.60822500416667,57.0,93.0
237,63.37719834166667,63.82920702916667,42.0,97.0
238,63.64505534166667,63.853760587500005,49.0,89.0
239,63.37719834166667,63.9073319875,61.0,96.0
240,63.91291234166667,64.25889430000001,57.0,96.0
241,64.18076934166668,64.3425996125,61.0,102.0
242,64.44862634166667,64.81023329166666,59.0,90.0
243,64.44862634166667,65.0591170875,62.0,96.0
244,64.71648334166667,65.08143850416667,54.0,93.0
245,64.98434034166667,65.14505454166667,59.0,96.0
246,64.44862634166667,65.176304525,47.0,97.0
247,65.52005434166666,65.82808989166666,55.0,94.0
248,65.52005434166666,66.03791120833334,59.0,95.0
249,66.32362534166667,66.65844659166667,59.0,97.0
250,66.05576834166666,66.68411622083333,55.0,91.0
251,66.59148234166666,66.88277682916667,62.0,96.0
252,65.78791134166667,67.18411595416667,50.0,87.0
253,65.52005434166666,67.20197308750001,43.0,97.0
254,66.85933934166667,67.21090165416666,67.0,97.0
255,67.12719634166668,67.31023195833333,55.0,99.0
256,67.66291034166667,68.19862434166667,54.0,96.0
257,67.66291034166667,68.22206182916666,66.0,90.0
258,68.19862434166667,68.48880275833334,58.0,87.0
259,68.46648134166666,68.63389196666667,54.0,95.0
260,67.93076734166667,68.80688294583334,49.0,95.0
261,67.66291034166667,68.85375792083333,42.0,96.0
262,68.73433834166667,69.06915959166668,54.0,97.0
263,68.73433834166667,69.08478458333333,66.0,92.0
264,68.73433834166667,69.08924886666667,61.0,93.0
265,68.73433834166667,69.09594529166667,58.0,91.0
266,69.00219534166666,69.16514168333333,49.0,98.0
267,69.27005234166667,69.38389156666666,54.0,96.0
268,69.27005234166667,69.38947192083333,58.0,91.0
269,69.27005234166667,69.41960583333334,61.0,90.0
270,69.80576634166667,70.12942688333334,59.0,92.0
271,69.80576634166667,70.36826604166667,62.0,93.0
272,70.07362334166667,70.41402494583333,54.0,89.0
273,70.34148034166667,70.64839982083333,59.0,100.0
274,69.80576634166667,70.73656941666667,47.0,97.0
275,70.60933734166667,70.78121225,62.0,95.0
276,70.87719434166667,71.2767477,64.0,95.0
277,70.87719434166667,71.29572090416667,59.0,93.0
278,70.87719434166667,71.32585481666666,52.0,96.0
279,71.94862234166666,72.2142472,57.0,90.0
280,71.94862234166666,72.40732745416666,42.0,96.0
281,72.21647934166667,72.44192565,49.0,83.0
282,71.94862234166666,72.50665775833333,61.0,91.0
283,72.48433634166666,72.79237189166668,57.0,95.0
284,72.75219334166667,72.9073271875,61.0,96.0
285,73.02005034166667,73.38054122083334,59.0,91.0
286,73.28790734166667,73.573621475,54.0,86.0
287,73.02005034166667,73.60933574166667,47.0,97.0
288,73.02005034166667,73.62272859166667,62.0,95.0
289,73.55576434166667,73.69192498333334,59.0,90.0
290,74.09147834166667,74.44192458333333,59.0,95.0
291,74.09147834166667,74.765585125,67.0,95.0
292,74.62719234166667,74.99214750416667,59.0,96.0
293,74.89504934166666,75.04125462083334,64.0,99.0
294,74.35933534166666,75.5122365125,47.0,81.0
295,74.09147834166667,75.5457186375,40.0,97.0
296,75.16290634166667,75.72428997083334,64.0,104.0
297,75.16290634166667,75.74549531666666,59.0,97.0
298,75.16290634166667,75.756656025,67.0,97.0
299,76.23433434166667,76.6037537875,54.0,96.0
300,76.77004834166667,77.05241426250001,54.0,99.0
301,76.23433434166667,77.095941025,66.0,95.0
302,77.03790534166667,77.1997356125,58.0,83.0
303,76.50219134166667,77.40844085833334,49.0,87.0
304,76.23433434166667,77.51781580000001,42.0,97.0
305,77.30576234166666,77.5680389875,58.0,96.0
306,77.30576234166666,77.60933360833333,61.0,100.0
307,77.30576234166666,77.62272645833333,54.0,96.0
308,77.30576234166666,77.64393180416667,66.0,96.0
309,77.57361934166667,77.82138706666667,49.0,104.0
310,77.84147634166666,78.100404775,54.0,102.0
311,77.84147634166666,78.36937784583334,66.0,88.0
312,78.37719034166668,78.67964553750001,59.0,87.0
313,78.37719034166668,78.94527039583333,62.0,91.0
314,78.64504734166667,78.9642436,54.0,84.0
315,78.37719034166668,78.97540430833334,66.0,87.0
316,78.91290434166667,79.2689309375,59.0,99.0
317,78.37719034166668,79.332546975,47.0,97.0
318,79.18076134166667,79.38053802083334,62.0,95.0
319,79.44861834166667,79.89058239166667,64.0,97.0
320,79.44861834166667,79.91401987916667,52.0,99.0
321,79.44861834166667,79.91401987916667,59.0,95.0
322,80.52004634166667,80.75107300416667,57.0,93.0
323,80.52004634166667,80.97205502916667,42.0,97.0
324,80.78790334166666,80.9966085875,49.0,89.0
325,80.52004634166667,81.0501799875,61.0,96.0
326,81.05576034166667,81.40174230000001,57.0,96.0
327,81.32361734166668,81.4854476125,61.0,102.0
328,81.59147434166667,81.95308129166666,59.0,90.0
329,81.59147434166667,82.2019650875,62.0,96.0
330,81.85933134166667,82.22428650416667,54.0,93.0
331,82.12718834166667,82.28790254166667,59.0,96.0
332,81.59147434166667,82.319152525,47.0,97.0
333,82.66290234166667,82.97093789166667,55.0,94.0
334,82.66290234166667,83.18075920833334,59.0,95.0
335,83.46647334166667,83.80129459166668,59.0,97.0
336,83.19861634166666,83.82696422083333,55.0,91.0
337,83.73433034166666,84.02562482916667,62.0,96.0
338,82.93075934166667,84.32696395416667,50.0,87.0
339,82.66290234166667,84.34482108750001,43.0,97.0
340,84.00218734166667,84.35374965416666,67.0,97.0
341,84.27004434166668,84.45307995833333,55.0,99.0
342,84.80575834166667,85.34147234166667,54.0,96.0
343,84.80575834166667,85.36490982916666,66.0,90.0
344,85.34147234166667,85.63165075833334,58.0,87.0
345,85.60932934166667,85.77673996666667,54.0,95.0
346,85.07361534166667,85.94973094583334,49.0,95.0
347,84.80575834166667,85.99660592083333,42.0,96.0
348,85.87718634166667,86.21200759166668,54.0,97.0
349,85.87718634166667,86.22763258333333,66.0,92.0
350,85.87718634166667,86.23209686666667,61.0,93.0
351,85.87718634166667,86.23879329166667,58.0,91.0
352,86.14504334166666,86.30798968333333,49.0,98.0
353,86.41290034166667,86.52673956666666,54.0,96.0
354,86.41290034166667,86.53231992083333,58.0,91.0
355,86.41290034166667,86.56245383333334,61.0,90.0
356,86.94861434166667,87.27227488333334,59.0,92.0
357,86.94861434166667,87.51111404166667,62.0,93.0
358,87.21647134166668,87.55687294583333,54.0,89.0
359,87.48432834166667,87.79124782083333,59.0,100.0
360,86.94861434166667,87.87941741666667,47.0,97.0
361,87.75218534166667,87.92406025,62.0,95.0
362,88.02004234166667,88.4195957,64.0,95.0
363,88.02004234166667,88.43856890416667,59.0,93.0
364,88.02004234166667,88.46870281666666,52.0,96.0
365,89.09147034166666,89.3570952,57.0,90.0
366,89.09147034166666,89.55017545416666,42.0,96.0
367,89.35932734166667,89.58477365,49.0,83.0
368,89.09147034166666,89.64950575833333,61.0,91.0
369,89.62718434166666,89.93521989166668,57.0,95.0
370,89.89504134166667,90.0501751875,61.0,96.0
371,90.16289834166668,90.52338922083334,59.0,91.0
372,90.43075534166667,90.716469475,54.0,86.0
373,90.16289834166668,90.75218374166667,47.0,97.0
374,90.16289834166668,90.76557659166667,62.0,95.0
375,90.69861234166667,90.83477298333334,59.0,90.0
376,91.23432634166667,91.57807615833333,59.0,92.0
377,91.23432634166667,91.77673676666667,64.0,95.0
378,91.23432634166667,91.854861725,40.0,97.0
379,91.50218334166667,91.8582099375,47.0,81.0
380,91.77004034166667,92.12495086666667,59.0,100.0
381,92.03789734166666,92.12718300833333,64.0,96.0
382,92.30575434166667,92.64727201666668,57.0,85.0
383,92.30575434166667,92.84481655416667,61.0,95.0
384,92.30575434166667,92.966468275,45.0,96.0
385,92.84146834166667,92.97762898333333,57.0,101.0
386,92.57361134166666,93.23544134583334,52.0,88.0
387,93.37718234166667,93.89950349166666,59.0,96.0
388,93.37718234166667,93.93968204166667,62.0,93.0
389,93.91289634166667,94.34816396666668,66.0,96.0
390,94.18075334166667,94.35820860416666,62.0,90.0
391,93.64503934166667,94.83030656666666,54.0,85.0
392,93.37718234166667,95.36936877916666,47.0,96.0
393,94.44861034166667,95.48878835833334,66.0,93.0
394,94.44861034166667,95.49325264166667,62.0,94.0
395,94.44861034166667,95.50999370416667,71.0,99.0
396,94.44861034166667,95.5345472625,59.0,95.0
397,96.32360934166667,96.63052882083333,62.0,91.0
398,96.05575234166668,96.7767341,55.0,97.0
399,95.78789534166667,97.12606427083334,50.0,83.0
400,95.52003834166666,97.1885642375,43.0,94.0
401,96.85932334166667,97.21758207916668,62.0,95.0
402,96.59146634166667,97.50552835416667,67.0,97.0
403,97.12718034166667,97.59816223333334,55.0,90.0
404,97.39503734166667,97.68075147500001,62.0,86.0
405,98.19860834166667,98.50887603333334,61.0,86.0
406,98.46646534166668,98.82807229166667,57.0,91.0
407,97.66289434166667,98.9564204375,42.0,97.0
408,97.93075134166666,98.9564204375,49.0,83.0
409,98.73432234166667,99.09592929166666,66.0,104.0
410,99.00217934166668,99.27338455416667,61.0,101.0
411,99.27003634166667,99.56691118333333,57.0,92.0
412,99.80575034166667,100.39615181250001,55.0,95.0
413,99.80575034166667,100.4296339375,52.0,99.0
414,100.34146434166666,100.89726761666667,59.0,89.0
415,100.60932134166667,100.9653479375,55.0,88.0
416,100.07360734166667,101.31244596666667,47.0,83.0
417,99.80575034166667,101.35820487083333,40.0,97.0
418,101.14503534166667,101.51668692916667,59.0,93.0
419,100.87717834166666,101.64391900416668,64.0,98.0
420,101.41289234166668,101.72762431666666,55.0,88.0
421,101.68074934166667,101.75999037083334,52.0,97.0
422,101.94860634166668,102.53677567083334,58.0,84.0
423,101.94860634166668,102.54458816666667,54.0,89.0
424,102.75217734166667,102.93856117083334,58.0,88.0
425,102.48432034166667,102.9910165,61.0,86.0
426,103.28789134166666,103.99548025,61.0,87.0
427,103.55574834166667,104.03900701250001,54.0,96.0
428,101.94860634166668,104.07472127916667,42.0,97.0
429,103.02003434166667,104.07695342083333,66.0,98.0
430,102.21646334166667,104.10262305,49.0,88.0
431,104.09146234166667,104.444140725,59.0,90.0
432,104.09146234166667,104.64056919166667,62.0,91.0
433,104.35931934166668,104.71869415,54.0,82.0
434,104.62717634166667,104.96646187500001,59.0,94.0
435,104.09146234166667,105.0166850625,47.0,96.0
436,104.89503334166668,105.14503320833333,62.0,95.0
437,105.16289034166667,105.72092575833334,64.0,95.0
438,105.16289034166667,105.75664002500001,59.0,91.0
439,105.16289034166667,105.783425725,52.0,96.0
440,106.23431834166666,106.5836485125,54.0,87.0
441,106.23431834166666,106.72873772083334,42.0,96.0
442,106.50217534166667,106.75775556250001,49.0,83.0
443,106.23431834166666,106.81913945833334,57.0,90.0
444,106.77003234166666,107.1327553625,54.0,100.0
445,107.03788934166667,107.22650531250001,57.0,96.0
446,107.57360334166667,107.92516565416668,54.0,85.0
447,107.30574634166668,107.99101383333334,47.0,99.0
448,107.84146034166668,107.99324597500001,59.0,100.0
449,108.37717434166667,108.70864737916666,55.0,88.0
450,108.37717434166667,108.92293297916667,59.0,90.0
451,109.18074534166666,109.51891480416667,59.0,97.0
452,108.91288834166667,109.53453979583334,55.0,91.0
453,108.64503134166667,109.6070844,50.0,85.0
454,109.44860234166667,109.77895930833334,62.0,97.0
455,109.71645934166666,110.02672703333333,50.0,87.0
456,108.37717434166667,110.0590930875,43.0,95.0
457,109.98431634166667,110.09927163750001,55.0,90.0
458,109.98431634166667,110.10373592083333,67.0,91.0
459,110.52003034166667,111.0802979,54.0,95.0
460,111.05574434166667,111.38052095416667,58.0,79.0
461,111.32360134166667,111.47092269166667,54.0,97.0
462,110.78788734166667,111.696369,49.0,90.0
463,110.52003034166667,111.73543147916666,42.0,97.0
464,111.59145834166667,111.94971707916667,66.0,95.0
465,111.59145834166667,111.98877955833333,54.0,100.0
466,111.59145834166667,111.9910117,58.0,95.0
467,111.85931534166667,112.0177974,49.0,88.0
468,112.12717234166666,112.22427050416667,58.0,88.0
469,112.12717234166666,112.24101156666667,54.0,96.0
470,112.12717234166666,112.26333298333334,61.0,93.0
471,112.12717234166666,112.32694902083334,66.0,94.0
472,112.66288634166666,113.0256093625,59.0,90.0
473,112.66288634166666,113.23654675,62.0,89.0
474,112.93074334166667,113.26110030833334,54.0,89.0
475,112.66288634166666,113.28118958333334,47.0,98.0
476,113.19860034166668,113.38275202916667,59.0,96.0
477,113.73431434166667,113.88386783333334,59.0,95.0
478,113.73431434166667,114.05016238750001,64.0,98.0
479,114.00217134166667,114.22761765,59.0,96.0
480,113.73431434166667,114.2979301125,52.0,100.0
481,114.27002834166667,114.69413525833333,67.0,90.0
482,114.53788534166667,114.8135548375,59.0,96.0
483,114.80574234166667,115.3124385,42.0,100.0
484,115.07359934166666,115.36042954583334,49.0,94.0
485,115.34145634166667,115.67627759166668,54.0,88.0
486,115.60931334166666,115.7041793625,57.0,94.0
487,115.87717034166667,116.19413445833334,59.0,92.0
488,115.87717034166667,116.2867683375,62.0,96.0
489,116.14502734166668,116.45306289166668,54.0,91.0
490,115.87717034166667,116.49658965416667,47.0,97.0
491,116.41288434166667,116.56355390416667,59.0,96.0
492,116.94859834166667,117.29346422916667,55.0,89.0
493,116.94859834166667,117.49435697916667,40.0,96.0
494,116.94859834166667,117.49658912083333,64.0,96.0
495,117.21645534166667,117.51333018333334,47.0,83.0
496,117.48431234166667,117.75105327083334,59.0,97.0
497,117.75216934166667,117.85931214166666,55.0,96.0
498,118.02002634166666,118.31578511250001,57.0,94.0
499,118.02002634166666,118.493240375,61.0,95.0
500,118.28788334166667,118.7142224,52.0,93.0
501,118.02002634166666,118.7979277125,45.0,97.0
502,118.55574034166668,118.88274909583333,57.0,96.0
503,118.82359734166667,118.99658832083334,61.0,97.0
504,119.09145434166668,119.44524879583334,59.0,91.0
505,119.09145434166668,119.45864164583334,62.0,97.0
506,119.35931134166667,119.7555164875,54.0,77.0
507,119.62716834166667,120.22538230833334,59.0,97.0
508,120.43073934166667,120.49100716666668,59.0,83.0
509,120.43073934166667,120.65060529583334,62.0,89.0
510,120.16288234166667,120.68855170416667,66.0,96.0
511,120.69859634166667,121.18743536666668,71.0,95.0
512,119.89502534166667,121.33140850416667,54.0,82.0
513,119.09145434166668,121.40172096666667,47.0,97.0
514,121.23431034166667,121.40172096666667,47.0,96.0
515,121.77002434166667,122.40283650416667,66.0,97.0
516,121.23431034166667,122.47203289583334,62.0,91.0
517,121.23431034166667,122.4910061,59.0,87.0
518,121.50216734166668,123.1104254125,54.0,88.0
519,122.84145234166667,123.40730025416667,59.0,66.0
520,122.30573834166667,123.41288060833334,71.0,96.0
521,123.37716634166667,123.96868388333334,62.0,89.0
522,122.57359534166667,124.20305875833334,66.0,91.0
523,123.64502334166667,124.7945763,54.0,76.0
524,124.18073734166667,124.80238879583334,62.0,90.0
525,123.91288034166666,124.814665575,59.0,89.0
526,123.37716634166667,124.98542441250001,47.0,96.0
527,124.71645134166667,125.24881712916667,71.0,98.0
528,125.25216534166667,125.33140637083334,62.0,86.0
529,124.98430834166668,125.3336385125,59.0,97.0
530,125.52002234166667,125.86042394583333,55.0,90.0
531,125.52002234166667,126.08140597083333,59.0,83.0
532,126.05573634166667,126.85930734166666,55.0,91.0
533,126.32359334166667,126.89725375,59.0,90.0
534,126.59145034166667,126.98542334583334,62.0,85.0
535,125.78787934166667,127.0211376125,50.0,82.0
536,125.52002234166667,127.06354830416667,43.0,96.0
537,127.66287834166667,128.00662815833334,54.0,86.0
538,127.66287834166667,128.41511008333333,66.0,91.0
539,128.46644934166667,128.765556325,57.0,87.0
540,128.19859234166668,128.78006524583333,54.0,89.0
541,127.93073534166668,129.0535026,49.0,85.0
542,127.66287834166667,129.05908295416668,42.0,96.0
543,128.73430634166667,129.08810079583333,61.0,90.0
544,129.00216334166666,129.2845292625,57.0,89.0
545,129.27002034166668,129.38832385,54.0,96.0
546,129.80573434166666,130.00997530416666,59.0,84.0
547,129.80573434166666,130.14055559166667,64.0,88.0
548,130.07359134166668,130.41510901666666,59.0,89.0
549,130.34144834166668,130.7175642125,64.0,91.0
550,130.60930534166667,130.79010881666667,59.0,81.0
551,129.80573434166666,131.11711757083333,52.0,99.0
552,131.14501934166668,131.34591209166666,59.0,86.0
553,130.87716234166666,131.363769225,67.0,96.0
554,131.94859034166666,132.48988469583333,66.0,90.0
555,132.48430434166667,133.05908082083334,57.0,80.0
556,132.75216134166666,133.05908082083334,61.0,95.0
557,132.21644734166668,133.3425628125,49.0,80.0
558,131.94859034166666,133.36376815833333,42.0,95.0
559,133.02001834166668,133.3760449375,66.0,96.0
560,133.28787534166668,133.54345556250001,61.0,98.0
561,133.55573234166667,133.65952692916667,57.0,99.0
562,134.09144634166668,134.36599976666668,55.0,89.0
563,134.09144634166668,134.60707106666666,59.0,88.0
564,134.09144634166668,134.78899061250002,43.0,95.0
565,134.35930334166667,134.8492584375,50.0,86.0
566,134.62716034166667,134.94300838750002,55.0,92.0
567,134.89501734166666,135.19189218333335,59.0,97.0
568,135.16287434166668,135.7231419,61.0,97.0
569,135.16287434166668,135.80126685833335,45.0,96.0
570,135.43073134166667,135.9005971625,52.0,87.0
571,135.69858834166666,136.04122208750002,57.0,89.0
572,135.96644534166668,136.12939168333332,61.0,97.0
573,136.23430234166668,136.53452539583333,59.0,94.0
574,136.23430234166668,136.53787360833334,62.0,95.0
575,137.03787334166668,137.37604280416667,62.0,90.0
576,136.77001634166666,137.40506064583334,59.0,87.0
577,137.30573034166667,137.66733729166668,71.0,96.0
578,136.50215934166667,137.83474791666666,54.0,95.0
579,136.23430234166668,137.86823004166666,47.0,97.0
580,137.57358734166667,137.926265725,66.0,101.0
581,137.84144434166666,137.9831853375,59.0,97.0
582,138.37715834166667,138.67961353750002,59.0,87.0
583,138.37715834166667,138.94523839583334,62.0,91.0
584,138.64501534166666,138.9642116,54.0,84.0
585,138.37715834166667,138.97537230833333,66.0,87.0
586,138.91287234166668,139.2688989375,59.0,99.0
587,138.37715834166667,139.332514975,47.0,97.0
588,139.18072934166668,139.38050602083334,62.0,95.0
589,139.44858634166667,139.89055039166666,64.0,97.0
590,139.44858634166667,139.91398787916668,52.0,99.0
591,139.44858634166667,139.91398787916668,59.0,95.0
592,140.52001434166667,140.75104100416667,57.0,93.0
593,140.52001434166667,140.97202302916668,42.0,97.0
594,140.78787134166666,140.99657658750002,49.0,89.0
595,140.52001434166667,141.0501479875,61.0,96.0
596,141.05572834166668,141.4017103,57.0,96.0
597,141.32358534166667,141.4854156125,61.0,102.0
598,141.59144234166666,141.95304929166667,59.0,90.0
599,141.59144234166666,142.2019330875,62.0,96.0
600,141.85929934166668,142.22425450416668,54.0,93.0
601,142.12715634166668,142.28787054166668,59.0,96.0
602,141.59144234166666,142.31912052500002,47.0,97.0
603,142.66287034166666,142.97090589166666,55.0,94.0
604,142.66287034166666,143.18072720833334,59.0,95.0
605,143.46644134166667,143.80126259166667,59.0,97.0
606,143.19858434166667,143.82693222083333,55.0,91.0
607,143.73429834166666,144.02559282916667,62.0,96.0
608,142.93072734166668,144.32693195416667,50.0,87.0
609,142.66287034166666,144.3447890875,43.0,97.0
610,144.00215534166668,144.35371765416667,67.0,97.0
611,144.27001234166667,144.45304795833334,55.0,99.0
612,144.80572634166668,145.34144034166667,54.0,96.0
613,144.80572634166668,145.36487782916666,66.0,90.0
614,145.34144034166667,145.63161875833333,58.0,87.0
615,145.60929734166666,145.77670796666666,54.0,95.0
616,145.07358334166668,145.94969894583335,49.0,95.0
617,144.80572634166668,145.99657392083333,42.0,96.0
618,145.87715434166668,146.21197559166666,54.0,97.0
619,145.87715434166668,146.22760058333333,66.0,92.0
620,145.87715434166668,146.23206486666666,61.0,93.0
621,145.87715434166668,146.23876129166666,58.0,91.0
622,146.14501134166667,146.30795768333334,49.0,98.0
623,146.41286834166667,146.52670756666666,54.0,96.0
624,146.41286834166667,146.53228792083334,58.0,91.0
625,146.41286834166667,146.56242183333333,61.0,90.0
626,146.94858234166668,147.27224288333335,59.0,92.0
627,146.94858234166668,147.51108204166667,62.0,93.0
628,147.21643934166667,147.55684094583333,54.0,89.0
629,147.48429634166666,147.79121582083334,59.0,100.0
630,146.94858234166668,147.87938541666668,47.0,97.0
631,147.75215334166668,147.92402825,62.0,95.0
632,148.02001034166668,148.4195637,64.0,95.0
633,148.02001034166668,148.43853690416668,59.0,93.0
634,148.02001034166668,148.46867081666667,52.0,96.0
635,149.09143834166667,149.3570632,57.0,90.0
636,149.09143834166667,149.55014345416666,42.0,96.0
637,149.35929534166667,149.58474165,49.0,83.0
638,149.09143834166667,149.64947375833333,61.0,91.0
639,149.62715234166666,149.93518789166666,57.0,95.0
640,149.89500934166668,150.0501431875,61.0,96.0
641,150.16286634166667,150.52335722083333,59.0,91.0
642,150.43072334166666,150.716437475,54.0,86.0
643,150.16286634166667,150.75215174166667,47.0,97.0
644,150.16286634166667,150.76554459166667,62.0,95.0
645,150.69858034166668,150.83474098333335,59.0,90.0
646,151.23429434166667,151.58474058333334,59.0,95.0
647,151.23429434166667,151.908401125,67.0,95.0
648,151.77000834166668,152.13496350416668,59.0,96.0
649,152.03786534166667,152.18407062083332,64.0,99.0
650,151.50215134166666,152.6550525125,47.0,81.0
651,151.23429434166667,152.6885346375,40.0,97.0
652,152.30572234166667,152.86710597083334,64.0,104.0
653,152.30572234166667,152.88831131666666,59.0,97.0
654,152.30572234166667,152.899472025,67.0,97.0
655,153.37715034166666,153.7465697875,54.0,96.0
656,153.91286434166668,154.19523026250002,54.0,99.0
657,153.37715034166666,154.238757025,66.0,95.0
658,154.18072134166667,154.34255161250002,58.0,83.0
659,153.64500734166668,154.55125685833335,49.0,87.0
660,153.37715034166666,154.6606318,42.0,97.0
661,154.44857834166666,154.7108549875,58.0,96.0
662,154.44857834166666,154.75214960833333,61.0,100.0
663,154.44857834166666,154.76554245833333,54.0,96.0
664,154.44857834166666,154.78674780416668,66.0,96.0
665,154.71643534166668,154.96420306666667,49.0,104.0
666,154.98429234166667,155.243220775,54.0,102.0
667,154.98429234166667,155.51219384583334,66.0,88.0
668,155.52000634166666,155.8224615375,59.0,87.0
669,155.52000634166666,156.08808639583333,62.0,91.0
670,155.78786334166668,156.1070596,54.0,84.0
671,155.52000634166666,156.11822030833335,66.0,87.0
672,156.05572034166667,156.4117469375,59.0,99.0
673,155.52000634166666,156.475362975,47.0,97.0
674,156.32357734166666,156.52335402083335,62.0,95.0
675,156.59143434166668,157.03339839166668,64.0,97.0
676,156.59143434166668,157.05683587916667,52.0,99.0
677,156.59143434166668,157.05683587916667,59.0,95.0
678,157.66286234166668,157.89388900416668,57.0,93.0
679,157.66286234166668,158.11487102916666,42.0,97.0
680,157.93071934166667,158.1394245875,49.0,89.0
681,157.66286234166668,158.1929959875,61.0,96.0
682,158.19857634166667,158.5445583,57.0,96.0
683,158.46643334166666,158.6282636125,61.0,102.0
684,158.73429034166668,159.09589729166666,59.0,90.0
685,158.73429034166668,159.3447810875,62.0,96.0
686,159.00214734166667,159.36710250416667,54.0,93.0
687,159.27000434166666,159.43071854166666,59.0,96.0
688,158.73429034166668,159.461968525,47.0,97.0
689,159.80571834166668,160.11375389166668,55.0,94.0
690,159.80571834166668,160.32357520833335,59.0,95.0
691,160.60928934166668,160.94411059166669,59.0,97.0
692,160.34143234166666,160.96978022083334,55.0,91.0
693,160.87714634166667,161.16844082916668,62.0,96.0
694,160.07357534166667,161.46977995416668,50.0,87.0
695,159.80571834166668,161.48763708750002,43.0,97.0
696,161.14500334166667,161.49656565416666,67.0,97.0
697,161.41286034166666,161.59589595833333,55.0,99.0
698,161.94857434166667,162.48428834166668,54.0,96.0
699,161.94857434166667,162.50772582916667,66.0,90.0
700,162.48428834166668,162.77446675833335,58.0,87.0
701,162.75214534166668,162.91955596666668,54.0,95.0
702,162.21643134166666,163.09254694583333,49.0,95.0
703,161.94857434166667,163.13942192083334,42.0,96.0
704,163.02000234166667,163.35482359166667,54.0,97.0
705,163.02000234166667,163.37044858333334,66.0,92.0
706,163.02000234166667,163.37491286666668,61.0,93.0
707,163.02000234166667,163.38160929166668,58.0,91.0
708,163.28785934166666,163.45080568333333,49.0,98.0
709,163.55571634166668,163.66955556666667,54.0,96.0
710,163.55571634166668,163.67513592083333,58.0,91.0
711,163.55571634166668,163.70526983333335,61.0,90.0
712,164.09143034166667,164.41509088333333,59.0,92.0
713,164.09143034166667,164.65393004166668,62.0,93.0
714,164.35928734166666,164.69968894583334,54.0,89.0
715,164.62714434166668,164.93406382083333,59.0,100.0
716,164.09143034166667,165.02223341666667,47.0,97.0
717,164.89500134166667,165.06687625,62.0,95.0
718,165.16285834166666,165.5624117,64.0,95.0
719,165.16285834166666,165.58138490416667,59.0,93.0
720,165.16285834166666,165.61151881666666,52.0,96.0
721,166.23428634166666,166.4999112,57.0,90.0
722,166.23428634166666,166.69299145416667,42.0,96.0
723,166.50214334166668,166.72758965,49.0,83.0
724,166.23428634166666,166.79232175833334,61.0,91.0
725,166.77000034166667,167.07803589166667,57.0,95.0
726,167.03785734166667,167.1929911875,61.0,96.0
727,167.30571434166666,167.66620522083335,59.0,91.0
728,167.57357134166668,167.859285475,54.0,86.0
729,167.30571434166666,167.89499974166668,47.0,97.0
730,167.30571434166666,167.90839259166668,62.0,95.0
731,167.84142834166667,167.97758898333333,59.0,90.0
732,168.37714234166668,168.72089215833333,59.0,92.0
733,168.37714234166668,168.91955276666667,64.0,95.0
734,168.37714234166668,168.99767772500002,40.0,97.0
735,168.64499934166668,169.0010259375,47.0,81.0
736,168.91285634166667,169.26776686666668,59.0,100.0
737,169.18071334166666,169.26999900833334,64.0,96.0
738,169.44857034166668,169.79008801666666,57.0,85.0
739,169.44857034166668,169.98763255416668,61.0,95.0
740,169.44857034166668,170.109284275,45.0,96.0
741,169.98428434166667,170.12044498333333,57.0,101.0
742,169.71642734166667,170.37825734583333,52.0,88.0
743,170.51999834166668,171.04231949166666,59.0,96.0
744,170.51999834166668,171.08249804166667,62.0,93.0
745,171.05571234166666,171.49097996666669,66.0,96.0
746,171.32356934166668,171.50102460416667,62.0,90.0
747,170.78785534166667,171.97312256666666,54.0,85.0
748,170.51999834166668,172.51218477916666,47.0,96.0
749,171.59142634166668,172.63160435833333,66.0,93.0
750,171.59142634166668,172.63606864166667,62.0,94.0
751,171.59142634166668,172.65280970416669,71.0,99.0
752,171.59142634166668,172.6773632625,59.0,95.0
753,172.66285434166667,172.6773632625,59.0,86.0
754,172.66285434166667,173.66062166666669,62.0,89.0
755,172.66285434166667,173.77222875,47.0,92.0
756,173.73428234166667,174.11821070833335,64.0,92.0
757,174.00213934166666,174.2577195625,59.0,88.0
758,173.73428234166667,174.35146951250002,52.0,92.0
759,174.53785334166668,174.783388925,59.0,88.0
760,174.26999634166668,174.81687105,67.0,90.0
761,174.80571034166667,175.45972785,42.0,89.0
762,175.07356734166666,175.49209390416667,49.0,83.0
763,175.34142434166668,175.76999554166667,57.0,85.0
764,175.60928134166667,175.8313794375,61.0,85.0
765,175.87713834166667,176.5010219375,62.0,88.0
766,176.1449953416667,176.59365581666668,54.0,70.0
767,176.41285234166668,176.7052629,59.0,86.0
768,175.87713834166667,176.7487896625,47.0,95.0
769,177.48428034166668,178.08137823750002,55.0,86.0
770,177.75213734166667,178.08137823750002,59.0,90.0
771,178.01999434166666,178.3358423875,62.0,95.0
772,177.21642334166668,178.3626280875,50.0,79.0
773,176.94856634166666,178.43405662083333,43.0,89.0
774,179.89499334166666,180.2141896,54.0,94.0
775,179.62713634166667,180.29008241666668,58.0,75.0
776,179.35927934166668,180.47088589166668,49.0,87.0
777,179.09142234166669,180.4853948125,42.0,95.0
778,180.16285034166668,180.61709117083333,66.0,95.0
779,180.43070734166668,180.74543931666668,61.0,89.0
780,180.69856434166667,180.81798392083334,54.0,96.0
781,181.23427834166668,181.60481385833333,59.0,86.0
782,181.23427834166668,181.80459053750002,62.0,88.0
783,181.50213534166667,181.8514655125,54.0,83.0
784,181.23427834166668,182.01552792500001,47.0,95.0
785,181.76999234166666,182.15726892083333,59.0,89.0
786,182.03784934166669,182.36597416666666,62.0,91.0
787,182.30570634166668,182.80459000416667,52.0,90.0
788,182.30570634166668,183.06128629583333,64.0,94.0
789,183.37713434166668,183.91842869583334,42.0,90.0
790,183.64499134166667,183.9876250875,49.0,81.0
791,183.91284834166666,184.2487856625,57.0,90.0
792,184.18070534166668,184.4764641125,61.0,88.0
793,184.44856234166667,185.23650835,47.0,91.0
794,184.44856234166667,185.36708863750002,59.0,88.0
795,184.44856234166667,185.51664212916668,62.0,88.0
796,186.05570434166668,186.6918647166667,52.0,89.0
797,186.32356134166668,186.69409685833335,55.0,89.0
798,185.78784734166666,186.769989675,47.0,85.0
799,185.51999034166667,186.83472178333335,40.0,97.0
800,186.59141834166667,186.91173067083335,59.0,90.0
801,187.66284634166666,188.0322657875,54.0,96.0
802,188.19856034166668,188.4809262625,54.0,99.0
803,187.66284634166666,188.524453025,66.0,95.0
804,188.46641734166667,188.62824761250002,58.0,83.0
805,187.93070334166669,188.83695285833335,49.0,87.0
806,187.66284634166666,188.9463278,42.0,97.0
807,188.73427434166666,188.9965509875,58.0,96.0
808,188.73427434166666,189.03784560833333,61.0,100.0
809,188.73427434166666,189.05123845833333,54.0,96.0
810,188.73427434166666,189.07244380416668,66.0,96.0
811,189.00213134166668,189.24989906666667,49.0,104.0
812,189.26998834166668,189.528916775,54.0,102.0
813,189.26998834166668,189.79788984583334,66.0,88.0
814,189.80570234166666,190.1081575375,59.0,87.0
815,189.80570234166666,190.37378239583333,62.0,91.0
816,190.07355934166668,190.39275560000002,54.0,84.0
817,189.80570234166666,190.40391630833335,66.0,87.0
818,190.34141634166667,190.6974429375,59.0,99.0
819,189.80570234166666,190.761058975,47.0,97.0
820,190.60927334166666,190.80905002083333,62.0,95.0
821,190.87713034166669,191.31909439166668,64.0,97.0
822,190.87713034166669,191.34253187916667,52.0,99.0
823,190.87713034166669,191.34253187916667,59.0,95.0
824,191.94855834166668,192.17958500416668,57.0,93.0
825,191.94855834166668,192.40056702916667,42.0,97.0
826,192.21641534166667,192.4251205875,49.0,89.0
827,191.94855834166668,192.4786919875,61.0,96.0
828,192.48427234166667,192.8302543,57.0,96.0
829,192.75212934166666,192.9139596125,61.0,102.0
830,193.01998634166668,193.38159329166666,59.0,90.0
831,193.01998634166668,193.6304770875,62.0,96.0
832,193.28784334166667,193.65279850416667,54.0,93.0
833,193.55570034166666,193.71641454166667,59.0,96.0
834,193.01998634166668,193.747664525,47.0,97.0
835,194.09141434166668,194.39944989166668,55.0,94.0
836,194.09141434166668,194.60927120833333,59.0,95.0
837,194.89498534166668,195.22980659166666,59.0,97.0
838,194.62712834166666,195.25547622083334,55.0,91.0
839,195.16284234166667,195.45413682916669,62.0,96.0
840,194.35927134166667,195.75547595416668,50.0,87.0
841,194.09141434166668,195.7733330875,43.0,97.0
842,195.43069934166667,195.78226165416666,67.0,97.0
843,195.69855634166666,195.88159195833333,55.0,99.0
844,196.23427034166667,196.76998434166669,54.0,96.0
845,196.23427034166667,196.79342182916668,66.0,90.0
846,196.76998434166669,197.06016275833335,58.0,87.0
847,197.03784134166668,197.20525196666668,54.0,95.0
848,196.50212734166666,197.37824294583334,49.0,95.0
849,196.23427034166667,197.42511792083334,42.0,96.0
850,197.30569834166667,197.64051959166667,54.0,97.0
851,197.30569834166667,197.65614458333334,66.0,92.0
852,197.30569834166667,197.66060886666668,61.0,93.0
853,197.30569834166667,197.66730529166668,58.0,91.0
854,197.57355534166666,197.73650168333333,49.0,98.0
855,197.84141234166668,197.95525156666667,54.0,96.0
856,197.84141234166668,197.96083192083333,58.0,91.0
857,197.84141234166668,197.99096583333335,61.0,90.0
858,198.37712634166667,198.70078688333334,59.0,92.0
859,198.37712634166667,198.93962604166668,62.0,93.0
860,198.64498334166666,198.98538494583335,54.0,89.0
861,198.91284034166668,199.21975982083333,59.0,100.0
862,198.37712634166667,199.30792941666667,47.0,97.0
863,199.18069734166667,199.35257225,62.0,95.0
864,199.44855434166666,199.8481077,64.0,95.0
865,199.44855434166666,199.86708090416667,59.0,93.0
866,199.44855434166666,199.89721481666666,52.0,96.0
867,200.51998234166666,200.78560720000002,57.0,90.0
868,200.51998234166666,200.97868745416667,42.0,96.0
869,200.78783934166668,201.01328565,49.0,83.0
870,200.51998234166666,201.07801775833335,61.0,91.0
871,201.05569634166667,201.36373189166667,57.0,95.0
872,201.32355334166667,201.47868718750001,61.0,96.0
873,201.59141034166666,201.95190122083335,59.0,91.0
874,201.85926734166668,202.144981475,54.0,86.0
875,201.59141034166666,202.18069574166668,47.0,97.0
876,201.59141034166666,202.19408859166668,62.0,95.0
877,202.12712434166667,202.26328498333334,59.0,90.0
878,202.66283834166668,203.00658815833333,59.0,92.0
879,202.66283834166668,203.20524876666667,64.0,95.0
880,202.66283834166668,203.28337372500002,40.0,97.0
881,202.93069534166668,203.2867219375,47.0,81.0
882,203.19855234166667,203.55346286666668,59.0,100.0
883,203.46640934166666,203.55569500833334,64.0,96.0
884,203.73426634166668,204.07578401666666,57.0,85.0
885,203.73426634166668,204.27332855416668,61.0,95.0
886,203.73426634166668,204.394980275,45.0,96.0
887,204.26998034166667,204.40614098333333,57.0,101.0
888,204.00212334166667,204.66395334583333,52.0,88.0
889,204.80569434166668,205.32801549166666,59.0,96.0
890,204.80569434166668,205.36819404166667,62.0,93.0
891,205.34140834166666,205.7766759666667,66.0,96.0
892,205.60926534166668,205.78672060416667,62.0,90.0
893,205.07355134166667,206.25881856666666,54.0,85.0
894,204.80569434166668,206.79788077916666,47.0,96.0
895,205.87712234166668,206.91730035833334,66.0,93.0
896,205.87712234166668,206.92176464166667,62.0,94.0
897,205.87712234166668,206.9385057041667,71.0,99.0
898,205.87712234166668,206.9630592625,59.0,95.0
899,207.02221101666666,208.52555842916667,43.0,96.0
900,207.2108269875,208.53448699583333,50.0,82.0
901,207.13158595833335,208.63493337083335,55.0,89.0
902,207.30569300833335,208.64944229166667,62.0,85.0
903,207.35703226666666,208.653906575,67.0,82.0
904,207.22756805,208.65502264583333,59.0,91.0
905,209.02332602083334,211.89944055833334,42.0,97.0
906,209.1862723625,211.93627089583333,49.0,91.0
907,209.36930797916668,214.29899285000002,57.0,88.0
908,209.21863841666666,214.3079214166667,54.0,81.0
909,209.49542398333335,214.31461784166666,61.0,91.0
910,209.6885042375,214.34028747083335,66.0,88.0
911,214.70859084583333,215.1193049125,54.0,84.0
912,214.42845706666668,215.20189415416667,47.0,95.0
913,214.988724625,215.50658149166668,59.0,88.0
914,215.28671553750002,215.56015289166666,62.0,87.0
915,215.7889474125,216.14274186666668,47.0,80.0
916,215.54229575833335,216.1628311416667,40.0,95.0
917,216.05903655416668,216.22533110833334,52.0,88.0
918,216.6260005375,217.26104484166666,54.0,89.0
919,216.61707197083334,217.30680374583335,42.0,91.0
920,217.22309843333335,217.35367872083333,49.0,83.0
921,216.649438025,217.359259075,57.0,95.0
922,217.4965357875,217.73202673333333,54.0,89.0
923,216.64385767083334,217.80010705416666,61.0,87.0
924,218.00323194583333,218.31684785000002,54.0,79.0
925,217.73314280416668,218.48983882916667,47.0,96.0
926,218.29006215,218.6784548,59.0,86.0
927,218.56238343333334,218.9965349875,62.0,87.0
928,219.12153492083334,221.11372135833335,50.0,79.0
929,218.85367792083335,221.17064097083335,43.0,88.0
930,219.41952583333335,221.32912302916668,55.0,84.0
931,219.74430244583334,221.363721225,59.0,84.0
932,220.28336465833334,221.37264979166667,67.0,69.0
933,222.00546195416666,222.89831862083335,52.0,83.0
934,221.84697989583333,222.99541678333335,45.0,81.0
935,222.0835869125,223.86148775,57.0,77.0
936,222.17287257916666,223.89720201666668,61.0,83.0
937,222.287827875,224.13715724583335,64.0,83.0
938,222.37711354166666,224.24095183333333,69.0,78.0
939,225.40389764166667,225.70635283750002,59.0,88.0
940,225.64496894166666,226.27666503333333,63.0,90.0
941,225.90501344583333,226.30679894583335,59.0,88.0
942,226.45858457916668,226.79117368750002,71.0,91.0
943,226.1349240375,226.79228975833334,66.0,81.0
944,226.77554869583335,226.894968275,59.0,89.0
945,225.13380850000001,226.90612898333333,54.0,76.0
946,227.16170920416667,227.70969998333334,75.0,92.0
947,227.51661972916668,228.15724438750001,71.0,79.0
948,224.80010332083333,228.25434255000002,47.0,96.0
949,227.91394094583333,228.354788925,78.0,73.0
950,229.24094916666667,229.44407405833334,83.0,81.0
951,229.32353840833335,229.466395475,87.0,80.0
952,229.40724372083335,229.560145425,95.0,89.0
953,229.19965454583334,230.51326991666667,54.0,65.0
954,229.01661892916667,230.52331455416666,47.0,81.0
