,start,end,pitch,velocity
0,26.58330675,26.852245875,64.0,70.0
1,27.03785175,27.17421525,64.0,83.0
2,27.26512425,27.4298968125,64.0,85.0
3,27.49239675,27.8617145625,71.0,76.0
4,27.94694175,29.1912586875,71.0,79.0
5,29.76512175,29.9071670625,69.0,81.0
6,29.99239425,30.1609546875,71.0,80.0
7,30.219666750000002,30.56815125,69.0,77.0
8,30.67421175,31.0245901875,67.0,77.0
9,31.12875675,31.5624684375,67.0,76.0
10,31.58330175,33.4526180625,64.0,81.0
11,33.85602675,34.181784,64.0,81.0
12,34.31057175,34.4488291875,64.0,83.0
13,34.53784425,34.67420775,64.0,85.0
14,34.76511675,35.109813375,69.0,77.0
15,35.21966175,36.708296625,71.0,83.0
16,37.03784175,37.2064021875,69.0,78.0
17,37.26511425,37.4601898125,67.0,73.0
18,37.49238675,37.8332955,69.0,83.0
19,37.94693175,38.4071585625,69.0,81.0
20,38.40147675,38.821930875,74.0,84.0
21,38.856021750000004,40.5018534375,71.0,84.0
22,40.67420175,41.435564625,71.0,82.0
23,41.58329175,42.03783675,71.0,86.0
24,42.03783675,42.420412125,76.0,83.0
25,42.49238175,43.367380875,76.0,82.0
26,43.40147175,44.18934975,78.0,81.0
27,44.31056175,44.6495765625,78.0,84.0
28,44.76510675,45.11359125,76.0,82.0
29,45.21965175,45.636318,69.0,84.0
30,45.67419675,45.8541208125,76.0,81.0
31,45.90146925,46.1116963125,74.0,74.0
32,46.12874175,46.878741,71.0,76.0
33,47.03783175,47.367376875,69.0,81.0
34,47.49237675,47.9241945,69.0,82.0
35,47.94692175,48.2669971875,74.0,85.0
36,48.40146675,48.5605575,74.0,85.0
37,48.62873925,48.8124511875,71.0,78.0
38,48.85601175,49.5700261875,69.0,80.0
39,49.76510175,49.9222985625,69.0,76.0
40,49.99237425,50.1495710625,71.0,77.0
41,50.21964675,50.5472979375,69.0,83.0
42,50.67419175,51.4147213125,69.0,82.0
43,51.58328175,51.9147208125,71.0,81.0
44,52.03782675,52.94691675,67.0,81.0
45,52.94691675,54.49236975,64.0,82.0
46,55.67418675,55.943125875,64.0,70.0
47,56.12873175,56.26509525,64.0,83.0
48,56.35600425,56.5207768125,64.0,85.0
49,56.58327675,56.9525945625,71.0,76.0
50,57.03782175,58.2821386875,71.0,79.0
51,58.85600175,58.9980470625,69.0,81.0
52,59.08327425,59.2518346875,71.0,80.0
53,59.31054675,59.65903125,69.0,77.0
54,59.76509175,60.1154701875,67.0,77.0
55,60.21963675,60.6533484375,67.0,76.0
56,60.67418175,62.5434980625,64.0,81.0
57,62.946906750000004,63.272664,64.0,81.0
58,63.40145175,63.5397091875,64.0,83.0
59,63.62872425,63.76508775,64.0,85.0
60,63.85599675,64.200693375,69.0,77.0
61,64.31054175,65.799176625,69.0,83.0
62,66.12872175,66.2972821875,69.0,78.0
63,66.35599425,66.5510698125,67.0,73.0
64,66.58326675,66.9241755,69.0,83.0
65,67.03781175,67.4980385625,69.0,81.0
66,67.49235675,67.912810875,74.0,84.0
67,67.94690175,69.5927334375,71.0,84.0
68,69.76508175,70.526444625,71.0,82.0
69,70.67417175,70.90144425,71.0,86.0
70,70.90144425,71.12871675,71.0,86.0
71,71.12871675,71.511292125,76.0,83.0
72,71.58326175,72.458260875,76.0,82.0
73,72.49235175,73.28022975,78.0,81.0
74,73.40144175,73.7404565625,78.0,84.0
75,73.85598675,74.20447125,76.0,82.0
76,74.31053175,74.727198,69.0,84.0
77,74.76507675,74.9450008125,76.0,81.0
78,74.99234925,75.2025763125,74.0,74.0
79,75.21962175,75.969621,71.0,76.0
80,76.12871175,76.458256875,69.0,81.0
81,76.58325675,77.0150745,69.0,82.0
82,77.03780175,77.3578771875,74.0,85.0
83,77.49234675,77.6514375,74.0,85.0
84,77.71961925,77.9033311875,71.0,78.0
85,77.94689175,78.6609061875,69.0,80.0
86,78.85598175,79.0131785625,69.0,76.0
87,79.08325425,79.2404510625,71.0,77.0
88,79.31052675,79.6381779375,69.0,83.0
89,79.76507175,80.5056013125,69.0,82.0
90,80.67416175,80.90143425,69.0,81.0
91,80.90143425,81.12870675,71.0,81.0
92,81.12870675,81.81052425,67.0,81.0
93,81.81052425,83.58324975,64.0,82.0
94,86.58324675,87.3957459375,64.0,85.0
95,87.49233675,87.874912125,78.0,82.0
96,87.94688175,88.2877905,74.0,88.0
97,88.40142675,90.0207433125,76.0,84.0
98,90.21960675,90.5605155,78.0,83.0
99,90.67415175000001,90.8730151875,76.0,82.0
100,90.90142425,91.08324225,78.0,83.0
101,91.12869675,91.3180905,74.0,88.0
102,91.35596925,91.575666,71.0,81.0
103,91.58324175,91.8199839375,69.0,76.0
104,91.81051425,91.97718075,74.0,83.0
105,92.03778675,93.6078609375,71.0,83.0
106,93.85596675,94.2328603125,71.0,80.0
107,94.31051175,94.435511625,76.0,81.0
108,94.53778425,95.0756625,76.0,83.0
109,95.21960175,95.3730106875,76.0,83.0
110,95.44687425,95.6040710625,78.0,82.0
111,95.67414675,96.02263125,76.0,81.0
112,96.12869175,96.306721875,74.0,85.0
113,96.35596425,96.556721625,71.0,83.0
114,96.58323675,97.333236,69.0,82.0
115,97.49232675,97.6343720625,69.0,82.0
116,97.71959925,97.837023375,69.0,82.0
117,97.94687175,98.109750375,69.0,81.0
118,98.17414425,98.390053125,67.0,79.0
119,98.40141675,98.874901125,69.0,83.0
120,98.85596175,99.38626425,74.0,88.0
121,99.31050675,100.943080875,71.0,78.0
122,101.12868675,101.9411859375,64.0,85.0
123,102.03777675,102.420352125,78.0,82.0
124,102.49232175,102.8332305,74.0,88.0
125,102.94686675,104.5661833125,76.0,84.0
126,104.76504675,105.1059555,78.0,83.0
127,105.21959175,105.4184551875,76.0,82.0
128,105.44686425,105.62868225,78.0,83.0
129,105.67413675,105.8635305,74.0,88.0
130,105.90140925,106.121106,71.0,81.0
131,106.12868175,106.3654239375,69.0,76.0
132,106.35595425,106.52262075,74.0,83.0
133,106.58322675,108.1533009375,71.0,83.0
134,108.40140675,108.7783003125,64.0,80.0
135,108.85595175,108.980951625,69.0,81.0
136,109.08322425,109.6211025,69.0,83.0
137,109.76504175,109.9184506875,69.0,83.0
138,109.99231425,110.1495110625,71.0,82.0
139,110.21958675,110.56807125,69.0,81.0
140,110.67413175,110.85216187500001,67.0,85.0
141,110.90140425,111.102161625,71.0,83.0
142,111.12867675,111.58322175,69.0,82.0
143,111.58322175,111.81049425,69.0,82.0
144,111.81049425,112.03776675,67.0,82.0
145,112.03776675,112.49231175,69.0,82.0
146,112.49231175,112.655190375,69.0,81.0
147,112.71958425,112.935493125,71.0,79.0
148,112.94685675,113.42034112500001,69.0,83.0
149,113.40140175,113.93170425,67.0,88.0
150,113.85594675,115.488520875,64.0,78.0
151,144.76500675,145.033945875,64.0,70.0
152,145.21955175,145.35591525,64.0,83.0
153,145.44682425,145.6115968125,64.0,85.0
154,145.67409675,146.0434145625,71.0,76.0
155,146.12864175,147.3729586875,71.0,79.0
156,147.94682175,148.08886706250001,69.0,81.0
157,148.17409425,148.3426546875,71.0,80.0
158,148.40136675,148.74985125,69.0,77.0
159,148.85591175,149.2062901875,67.0,77.0
160,149.31045675000001,149.7441684375,67.0,76.0
161,149.76500175,151.6343180625,64.0,81.0
162,152.03772675,152.363484,64.0,81.0
163,152.49227175,152.6305291875,64.0,83.0
164,152.71954425,152.85590775,64.0,85.0
165,152.94681675,153.291513375,69.0,77.0
166,153.40136175,154.889996625,69.0,83.0
167,155.21954175,155.3881021875,69.0,78.0
168,155.44681425,155.6418898125,67.0,73.0
169,155.67408675,156.0149955,69.0,83.0
170,156.12863175,156.5888585625,69.0,81.0
171,156.58317675,157.003630875,74.0,84.0
172,157.03772175,158.6835534375,71.0,84.0
173,158.85590175,159.617264625,71.0,82.0
174,159.76499175,159.99226425,71.0,86.0
175,159.99226425,160.21953675,71.0,86.0
176,160.21953675,160.602112125,76.0,83.0
177,160.67408175,161.549080875,76.0,82.0
178,161.58317175,162.37104975,78.0,81.0
179,162.49226175,162.8312765625,78.0,84.0
180,162.94680675,163.29529125,76.0,82.0
181,163.40135175,163.818018,69.0,84.0
182,163.85589675,164.0358208125,76.0,81.0
183,164.08316925,164.2933963125,74.0,74.0
184,164.31044175,165.060441,71.0,76.0
185,165.21953175,165.549076875,69.0,81.0
186,165.67407675,166.1058945,69.0,82.0
187,166.12862175,166.4486971875,74.0,85.0
188,166.58316675,166.7422575,74.0,85.0
189,166.81043925,166.9941511875,71.0,78.0
190,167.03771175,167.7517261875,69.0,80.0
191,167.94680175,168.1039985625,69.0,76.0
192,168.17407425,168.3312710625,71.0,77.0
193,168.40134675,168.7289979375,69.0,83.0
194,168.85589175,169.5964213125,69.0,82.0
195,169.76498175,169.99225425,69.0,81.0
196,169.99225425,170.21952675,71.0,81.0
197,170.21952675,170.90134425,67.0,81.0
198,170.90134425,172.67406975,64.0,82.0
199,175.67406675,176.4865659375,64.0,85.0
200,176.58315675,176.965732125,78.0,82.0
201,177.03770175,177.3786105,74.0,88.0
202,177.49224675,179.1115633125,76.0,84.0
203,179.31042675,179.6513355,78.0,83.0
204,179.76497175,179.9638351875,76.0,82.0
205,179.99224425,180.17406225,78.0,83.0
206,180.21951675,180.4089105,74.0,88.0
207,180.44678925,180.666486,71.0,81.0
208,180.67406175,180.9108039375,69.0,76.0
209,180.90133425,181.06800075,74.0,83.0
210,181.12860675,182.6986809375,71.0,83.0
211,182.94678675,183.3236803125,71.0,80.0
212,183.40133175,183.526331625,76.0,81.0
213,183.62860425,184.1664825,76.0,83.0
214,184.31042175,184.4638306875,76.0,83.0
215,184.53769425,184.6948910625,78.0,82.0
216,184.76496675,185.11345125,76.0,81.0
217,185.21951175,185.397541875,74.0,85.0
218,185.44678425,185.647541625,71.0,83.0
219,185.67405675,186.424056,69.0,82.0
220,186.58314675,186.7251920625,69.0,82.0
221,186.81041925,186.927843375,69.0,82.0
222,187.03769175,187.200570375,69.0,81.0
223,187.26496425,187.480873125,67.0,79.0
224,187.49223675,187.965721125,69.0,83.0
225,187.94678175,188.47708425,74.0,88.0
226,188.40132675,190.033900875,71.0,78.0
227,190.21950675,191.0320059375,64.0,85.0
228,191.12859675,191.511172125,78.0,82.0
229,191.58314175,191.9240505,74.0,88.0
230,192.03768675,193.6570033125,76.0,84.0
231,193.85586675,194.1967755,78.0,83.0
232,194.31041175000001,194.5092751875,76.0,82.0
233,194.53768425,194.71950225,78.0,83.0
234,194.76495675,194.9543505,74.0,88.0
235,194.99222925,195.211926,71.0,81.0
236,195.21950175,195.4562439375,69.0,76.0
237,195.44677425,195.61344075,74.0,83.0
238,195.67404675,197.2441209375,71.0,83.0
239,197.49222675000001,197.8691203125,64.0,80.0
240,197.94677175,198.071771625,69.0,81.0
241,198.17404425,198.71192250000001,69.0,83.0
242,198.85586175,199.0092706875,69.0,83.0
243,199.08313425,199.2403310625,71.0,82.0
244,199.31040675,199.65889125,69.0,81.0
245,199.76495175,199.942981875,67.0,85.0
246,199.99222425,200.192981625,71.0,83.0
247,200.21949675,200.67404175,69.0,82.0
248,200.67404175,200.90131425,69.0,82.0
249,200.90131425,201.12858675,67.0,82.0
250,201.12858675,201.58313175,69.0,82.0
251,201.58313175,201.746010375,69.0,81.0
252,201.81040425,202.026313125,71.0,79.0
253,202.03767675,202.511161125,69.0,83.0
254,202.49222175,203.02252425,67.0,88.0
255,202.94676675,204.579340875,64.0,78.0
256,206.58312675,207.3956259375,64.0,85.0
257,207.49221675,207.874792125,78.0,82.0
258,207.94676175,208.2876705,74.0,88.0
259,208.40130675,210.0206233125,76.0,84.0
260,210.21948675,210.5603955,78.0,83.0
261,210.67403175,210.8728951875,76.0,82.0
262,210.90130425,211.08312225,78.0,83.0
263,211.12857675,211.3179705,74.0,88.0
264,211.35584925,211.575546,71.0,81.0
265,211.58312175,211.8198639375,69.0,76.0
266,211.81039425,211.97706075,74.0,83.0
267,212.03766675,213.6077409375,71.0,83.0
268,213.85584675,214.2327403125,71.0,80.0
269,214.31039175,214.435391625,76.0,81.0
270,214.53766425,215.0755425,76.0,83.0
271,215.21948175,215.3728906875,76.0,83.0
272,215.44675425,215.6039510625,78.0,82.0
273,215.67402675,216.02251125,76.0,81.0
274,216.12857175,216.306601875,74.0,85.0
275,216.35584425,216.556601625,71.0,83.0
276,216.58311675,217.333116,69.0,82.0
277,217.49220675,217.6342520625,69.0,82.0
278,217.71947925,217.836903375,69.0,82.0
279,217.94675175,218.109630375,69.0,81.0
280,218.17402425,218.389933125,67.0,79.0
281,218.40129675,218.874781125,69.0,83.0
282,218.85584175,219.38614425,74.0,88.0
283,219.31038675,220.942960875,71.0,78.0
284,221.12856675,221.9410659375,64.0,85.0
285,222.03765675,222.420232125,78.0,82.0
286,222.49220175,222.8331105,74.0,88.0
287,222.94674675,224.5660633125,76.0,84.0
288,224.76492675,225.1058355,78.0,83.0
289,225.21947175,225.4183351875,76.0,82.0
290,225.44674425,225.62856225,78.0,83.0
291,225.67401675,225.86341050000001,74.0,88.0
292,225.90128925,226.120986,71.0,81.0
293,226.12856175,226.3653039375,69.0,76.0
294,226.35583425,226.52250075,74.0,83.0
295,226.58310675,228.1531809375,71.0,83.0
296,228.40128675,228.7781803125,64.0,80.0
297,228.85583175,228.980831625,69.0,81.0
298,229.08310425,229.6209825,69.0,83.0
299,229.76492175,229.9183306875,69.0,83.0
300,229.99219425,230.1493910625,71.0,82.0
301,230.21946675,230.56795125,69.0,81.0
302,230.67401175,230.852041875,67.0,85.0
303,230.90128425,231.102041625,71.0,83.0
304,231.12855675,231.58310175,69.0,82.0
305,231.58310175,231.81037425,69.0,82.0
306,231.81037425,232.03764675,67.0,82.0
307,232.03764675,232.49219175,69.0,82.0
308,232.49219175,232.655070375,69.0,81.0
309,232.71946425,232.935373125,71.0,79.0
310,232.94673675,233.420221125,69.0,83.0
311,233.40128175,233.93158425000001,67.0,88.0
312,233.85582675,235.488400875,64.0,78.0
313,235.666431,236.0774154375,64.0,81.0
314,236.102036625,236.2440819375,69.0,79.0
315,236.3634,236.942944875,69.0,81.0
316,237.0546871875,237.306580875,69.0,83.0
317,237.2819596875,237.412641375,71.0,81.0
318,237.52248975,238.0243831875,71.0,80.0
319,238.003549875,238.4978675625,67.0,73.0
320,238.46188275,240.50733525,69.0,80.0
321,241.0887740625,241.352031375,69.0,82.0
322,241.367182875,241.617182625,67.0,77.0
323,241.768697625,242.5281665625,69.0,83.0
324,242.5168029375,246.12854175,71.0,80.0
325,246.35581425,246.81035925,69.0,83.0
326,246.81035925,247.26490425,67.0,83.0
327,247.26490425,249.7743714375,67.0,75.0
328,249.76490175,251.958081375,64.0,74.0
