,start,end,pitch,velocity
0,1.9662142500000002,2.4239840625,69.0,75.0
1,2.37161925,2.7195918750000003,72.0,83.0
2,2.77702425,3.1486455,72.0,80.0
3,3.18242925,3.5996585625,69.0,80.0
4,3.5878342500000002,4.2212795625,76.0,79.0
5,4.19594175,4.8547248750000005,79.0,79.0
6,4.80404925,6.8496553125,76.0,80.0
7,8.04728925,8.219586375,74.0,80.0
8,8.249991750000001,8.3665456875,72.0,79.0
9,8.45269425,8.766883125000001,74.0,85.0
10,8.85809925,9.244923187500001,72.0,81.0
11,9.26350425,9.687490312500001,69.0,78.0
12,9.66890925,10.508435437500001,65.0,80.0
13,10.47971925,11.5996505625,69.0,75.0
14,11.69593425,12.49323075,65.0,81.0
15,12.50674425,13.2314056875,67.0,78.0
16,13.31755425,13.57431075,69.0,74.0
17,13.72295925,14.020256250000001,69.0,79.0
18,14.12836425,14.449309875,69.0,80.0
19,14.53376925,14.675661000000002,74.0,81.0
20,14.736471750000002,15.49322775,74.0,83.0
21,15.74998425,15.876673312500001,76.0,81.0
22,15.952686750000002,16.4678889375,77.0,77.0
23,16.56079425,16.9476181875,76.0,80.0
24,16.966199250000003,17.314171875000003,72.0,80.0
25,17.37160425,17.7989686875,67.0,77.0
26,17.777009250000003,18.587819250000003,69.0,72.0
27,18.79052175,18.989845875,60.0,81.0
28,18.99322425,19.214507812500003,72.0,81.0
29,19.19592675,19.5455885625,69.0,79.0
30,19.601331750000003,20.945925000000003,65.0,78.0
31,21.42565425,21.7347755625,69.0,83.0
32,21.831059250000003,22.265180437500003,72.0,80.0
33,22.23646425,22.641869250000003,74.0,80.0
34,22.641869250000003,22.844571750000004,69.0,73.0
35,22.844571750000004,24.72294825,67.0,75.0
36,27.91213425,28.3699040625,69.0,75.0
37,28.317539250000003,28.665511875000004,72.0,83.0
38,28.72294425,29.0945655,72.0,80.0
39,29.128349250000003,29.5455785625,69.0,80.0
40,29.53375425,30.167199562500002,76.0,79.0
41,30.141861750000004,30.800644875000003,79.0,79.0
42,30.749969250000003,32.795575312500006,76.0,80.0
43,33.99320925,34.165506375,74.0,80.0
44,34.19591175,34.3124656875,72.0,79.0
45,34.39861425,34.712803125,74.0,85.0
46,34.80401925,35.1908431875,77.0,81.0
47,35.209424250000005,35.633410312500004,79.0,78.0
48,35.61482925,36.454355437500006,77.0,80.0
49,36.42563925,37.545570562500004,81.0,75.0
50,38.452664250000005,38.861447625000004,79.0,80.0
51,38.85806925000001,39.672257625,77.0,75.0
52,39.66887925,40.324284000000006,79.0,76.0
53,40.88509425,41.28712087500001,74.0,88.0
54,41.29049925,41.525296312500004,76.0,80.0
55,41.493201750000004,42.065836312500004,77.0,79.0
56,42.10130925000001,42.5050250625,79.0,75.0
57,42.50671425,42.929011125,76.0,79.0
58,42.91211925,43.37833500000001,72.0,71.0
59,43.317524250000005,43.73644275,69.0,80.0
60,43.72292925000001,44.46617175,77.0,79.0
61,44.53373925,44.915495625000005,69.0,81.0
62,44.939144250000005,45.361441125000006,72.0,78.0
63,45.34454925000001,46.005021562500005,74.0,86.0
64,45.95265675,46.1570484375,72.0,68.0
65,46.155359250000004,47.163804187500006,71.0,72.0
66,47.37157425,47.81751975,74.0,82.0
67,47.776979250000004,48.20941125,77.0,80.0
68,48.182384250000005,49.39522087500001,81.0,79.0
69,49.398599250000004,50.4881251875,72.0,80.0
70,50.61481425,50.886773437500004,72.0,80.0
71,51.020219250000004,51.7651509375,72.0,81.0
72,51.83102925000001,52.5269745,81.0,81.0
73,52.43913675,52.633393312500004,79.0,74.0
74,52.641839250000004,53.689135500000006,77.0,72.0
75,53.85805425,54.24994575,81.0,80.0
76,54.263459250000004,54.69926962500001,79.0,81.0
77,54.668864250000006,55.123255687500006,77.0,76.0
78,55.07426925000001,55.89690356250001,81.0,79.0
79,55.885079250000004,56.76683512500001,76.0,78.0
80,57.10129425,57.520212750000006,81.0,79.0
81,57.506699250000004,57.98811768750001,79.0,79.0
82,57.912104250000006,58.3394686875,77.0,79.0
83,58.31750925000001,59.145211125,79.0,76.0
84,59.128319250000004,59.981358937500005,77.0,75.0
85,59.93912925000001,60.87156075000001,79.0,75.0
86,61.56074925000001,61.712776125000005,74.0,86.0
87,61.76345175000001,61.93574887500001,77.0,72.0
88,61.96615425,62.3023025625,81.0,80.0
89,62.371559250000004,62.49318075000001,79.0,74.0
90,62.574261750000005,63.12662606250001,79.0,77.0
91,63.18236925000001,63.29892318750001,74.0,85.0
92,63.38507175000001,63.528652687500006,77.0,75.0
93,63.58777425,63.907030687500004,81.0,79.0
94,63.993179250000004,64.39858425,79.0,74.0
95,64.39858425,64.80398925,79.0,77.0
96,64.80398925,65.189124,77.0,81.0
97,65.20939425,65.6232451875,81.0,77.0
98,65.61479925,65.84959631250001,84.0,80.0
99,65.81750175,66.665473875,81.0,78.0
100,66.83101425000001,67.27527056250001,81.0,79.0
101,67.23641925000001,67.64520262500001,79.0,79.0
102,67.64182425,68.0725670625,77.0,79.0
103,68.04722925,68.45263425,81.0,79.0
104,68.45263425,69.3529711875,76.0,81.0
105,70.07425425000001,70.459389,81.0,80.0
106,70.47965925000001,70.9171588125,79.0,81.0
107,70.88506425,71.29384762500001,77.0,79.0
108,71.29046925,72.09959006250001,79.0,78.0
109,72.10127925,72.91208925000001,77.0,78.0
110,72.91208925000001,73.72289925000001,79.0,80.0
111,74.33100675,74.44080393750001,74.0,83.0
112,74.53370925,74.68235775000001,74.0,83.0
113,74.73641175,74.89857375000001,77.0,79.0
114,74.93911425,75.253303125,81.0,81.0
115,75.34451925,75.4779650625,79.0,74.0
116,75.54722175,76.08607256250001,79.0,78.0
117,76.15532925000001,76.29891018750001,74.0,84.0
118,76.35803175000001,76.5725585625,77.0,74.0
119,76.56073425000001,76.94080143750001,81.0,80.0
120,76.96613925000001,77.0759364375,79.0,75.0
121,77.16884175000001,77.71613850000001,79.0,79.0
122,77.77694925,77.91715181250001,74.0,90.0
123,77.97965175,78.16884075,77.0,80.0
124,78.18235425,78.54215118750001,80.0,86.0
125,78.58775925,78.8968805625,79.0,80.0
126,78.99316425,79.40363681250001,79.0,79.0
127,79.39856925000001,80.21100001458335,77.0,75.0
128,80.21100001458335,80.96862683333335,73.0,77.0
129,81.02455901458335,82.63811769791668,72.0,79.0
130,96.03879872500002,96.49656853750001,69.0,75.0
131,96.44420372500002,96.79217635000002,72.0,83.0
132,96.84960872500001,97.22122997500001,72.0,80.0
133,97.25501372500001,97.67224303750001,69.0,80.0
134,97.66041872500001,98.29386403750001,76.0,79.0
135,98.26852622500002,98.92730935000002,79.0,79.0
136,98.87663372500002,100.92223978750002,76.0,80.0
137,102.11987372500002,102.29217085000002,74.0,80.0
138,102.32257622500002,102.43913016250002,72.0,79.0
139,102.52527872500002,102.83946760000002,74.0,85.0
140,102.93068372500002,103.31750766250002,77.0,81.0
141,103.33608872500001,103.76007478750002,79.0,78.0
142,103.74149372500001,104.58101991250001,77.0,80.0
143,104.55230372500002,105.67223503750002,81.0,75.0
144,106.57932872500001,106.98811210000002,79.0,80.0
145,106.98473372500001,107.79892210000001,77.0,75.0
146,107.79554372500002,108.45094847500002,79.0,76.0
147,109.01175872500002,109.41378535000001,74.0,88.0
148,109.41716372500002,109.65196078750002,76.0,80.0
149,109.61986622500001,110.19250078750002,77.0,79.0
150,110.22797372500001,110.63168953750002,79.0,75.0
151,110.63337872500001,111.05567560000001,76.0,79.0
152,111.03878372500002,111.50499947500002,72.0,71.0
153,111.44418872500002,111.86310722500002,69.0,80.0
154,111.84959372500002,112.59283622500001,77.0,79.0
155,112.66040372500001,113.04216010000002,69.0,81.0
156,113.06580872500001,113.48810560000001,72.0,78.0
157,113.47121372500001,114.13168603750002,74.0,86.0
158,114.07932122500002,114.28371291250002,72.0,68.0
159,114.28202372500002,115.29046866250002,71.0,72.0
160,115.49823872500002,115.94418422500001,74.0,82.0
161,115.90364372500002,116.33607572500001,77.0,80.0
162,116.30904872500003,117.52188535000002,81.0,79.0
163,117.52526372500002,118.61478966250002,72.0,80.0
164,118.74147872500001,119.01343791250002,72.0,80.0
165,119.14688372500001,119.89181541250002,72.0,81.0
166,119.95769372500001,120.653638975,81.0,81.0
167,120.56580122500002,120.76005778750002,79.0,74.0
168,120.76850372500002,121.81579997500002,77.0,72.0
169,121.98471872500002,122.37661022500001,81.0,80.0
170,122.39012372500002,122.82593410000001,79.0,81.0
171,122.79552872500003,123.24992016250002,77.0,76.0
172,123.20093372500003,124.02356803750001,81.0,79.0
173,124.01174372500002,124.89349960000001,76.0,78.0
174,125.22795872500001,125.64687722500003,81.0,79.0
175,125.63336372500001,126.11478216250002,79.0,79.0
176,126.03876872500001,126.46613316250001,77.0,79.0
177,126.44417372500001,127.27187560000002,79.0,76.0
178,127.25498372500002,128.10802341250002,77.0,75.0
179,128.06579372500002,128.99822522500003,79.0,75.0
180,129.68741372500003,129.83944060000002,74.0,86.0
181,129.890116225,130.06241335,77.0,72.0
182,130.09281872500003,130.4289670375,81.0,80.0
183,130.498223725,130.619845225,79.0,74.0
184,130.70092622500002,131.25329053750002,79.0,77.0
185,131.309033725,131.42558766250002,74.0,85.0
186,131.51173622500002,131.6553171625,77.0,75.0
187,131.714438725,132.0336951625,81.0,79.0
188,132.119843725,132.525248725,79.0,74.0
189,132.525248725,132.930653725,79.0,77.0
190,132.930653725,133.31578847500003,77.0,81.0
191,133.33605872500002,133.74990966250002,81.0,77.0
192,133.74146372500002,133.97626078750002,84.0,80.0
193,133.944166225,134.79213835000002,81.0,78.0
194,134.95767872500002,135.4019350375,81.0,79.0
195,135.36308372500002,135.7718671,79.0,79.0
196,135.76848872500003,136.19923153750003,77.0,79.0
197,136.17389372500003,136.579298725,81.0,79.0
198,136.579298725,137.47963566250002,76.0,81.0
199,138.200918725,138.58605347500003,81.0,80.0
200,138.606323725,139.0438232875,79.0,81.0
201,139.011728725,139.42051210000002,77.0,79.0
202,139.417133725,140.2262545375,79.0,78.0
203,140.22794372500002,141.03875372500002,77.0,78.0
204,141.03875372500002,141.84956372500002,79.0,80.0
205,142.457671225,142.56746841250003,74.0,83.0
206,142.66037372500003,142.80902222500004,74.0,83.0
207,142.86307622500001,143.025238225,77.0,79.0
208,143.06577872500003,143.37996760000001,81.0,81.0
209,143.471183725,143.60462953750002,79.0,74.0
210,143.67388622500002,144.2127370375,79.0,78.0
211,144.281993725,144.42557466250003,74.0,84.0
212,144.48469622500002,144.69922303750002,77.0,74.0
213,144.687398725,145.0674659125,81.0,80.0
214,145.092803725,145.20260091250003,79.0,75.0
215,145.29550622500003,145.842802975,79.0,79.0
216,145.903613725,146.04381628750002,74.0,90.0
217,146.10631622500003,146.29550522500003,77.0,80.0
218,146.30901872500002,146.6688156625,80.0,86.0
219,146.71442372500002,147.0235450375,79.0,80.0
220,147.11982872500002,147.5303012875,79.0,79.0
221,147.52523372500002,148.33604372500002,77.0,75.0
222,148.33604372500002,148.74144872500003,84.0,77.0
223,148.74144872500003,149.14685372500003,82.0,77.0
224,149.14685372500003,150.75496022500002,81.0,79.0
225,173.8497421625,174.12170135000002,72.0,80.0
226,174.2551471625,175.00007885000002,72.0,81.0
227,175.0659571625,175.7619024125,81.0,81.0
228,175.6740646625,175.86832122500002,79.0,74.0
229,175.87676716250002,176.9240634125,77.0,72.0
230,177.09298216250002,177.4848736625,81.0,80.0
231,177.49838716250002,177.9341975375,79.0,81.0
232,177.90379216250003,178.35818360000002,77.0,76.0
233,178.30919716250003,179.131831475,81.0,79.0
234,179.1200071625,180.0017630375,76.0,78.0
235,180.3362221625,180.75514066250003,81.0,79.0
236,180.7416271625,181.2230456,79.0,79.0
237,181.1470321625,181.5743966,77.0,79.0
238,181.5524371625,182.38013903750002,79.0,76.0
239,182.36324716250002,183.21628685000002,77.0,75.0
240,183.17405716250002,184.10648866250003,79.0,75.0
241,184.79567716250003,184.94770403750002,74.0,86.0
242,184.9983796625,185.1706767875,77.0,72.0
243,185.20108216250003,185.537230475,81.0,80.0
244,185.6064871625,185.7281086625,79.0,74.0
245,185.80918966250002,186.36155397500002,79.0,77.0
246,186.4172971625,186.53385110000002,74.0,85.0
247,186.61999966250002,186.7635806,77.0,75.0
248,186.8227021625,187.1419586,81.0,79.0
249,187.2281071625,187.6335121625,79.0,74.0
250,187.6335121625,188.0389171625,79.0,77.0
251,188.0389171625,188.4240519125,77.0,81.0
252,188.44432216250001,188.85817310000002,81.0,77.0
253,188.84972716250002,189.08452422500002,84.0,80.0
254,189.0524296625,189.90040178750002,81.0,78.0
255,190.06594216250002,190.510198475,81.0,79.0
256,190.47134716250002,190.8801305375,79.0,79.0
257,190.87675216250003,191.30749497500003,77.0,79.0
258,191.28215716250003,191.6875621625,81.0,79.0
259,191.6875621625,192.58789910000002,76.0,81.0
260,193.3091821625,193.69431691250003,81.0,80.0
261,193.7145871625,194.152086725,79.0,81.0
262,194.1199921625,194.52877553750002,77.0,79.0
263,194.5253971625,195.334517975,79.0,78.0
264,195.33620716250002,196.14701716250002,77.0,78.0
265,196.14701716250002,196.95782716250002,79.0,80.0
266,197.5659346625,197.67573185,74.0,83.0
267,197.76863716250003,197.9172856625,74.0,83.0
268,197.97133966250001,198.1335016625,77.0,79.0
269,198.17404216250003,198.48823103750001,81.0,81.0
270,198.5794471625,198.71289297500002,79.0,74.0
271,198.78214966250002,199.321000475,79.0,78.0
272,199.3902571625,199.53383810000003,74.0,84.0
273,199.59295966250002,199.80748647500002,77.0,74.0
274,199.7956621625,200.17572935,81.0,80.0
275,200.2010671625,200.31086435000003,79.0,75.0
276,200.40376966250003,200.9510664125,79.0,79.0
277,201.0118771625,201.15207972500002,74.0,90.0
278,201.2145796625,201.4037686625,77.0,80.0
279,201.41728216250002,201.7770791,80.0,86.0
280,201.82268716250002,202.131808475,79.0,80.0
281,202.22809216250002,202.638564725,79.0,79.0
282,202.63349716250002,203.44430716250002,77.0,75.0
283,203.44430716250002,204.19937397500001,73.0,77.0
284,204.25511716250003,205.86322366250002,72.0,79.0
