,start,end,pitch,velocity
0,0.14695931250000002,0.8091208125000001,53.0,68.0
1,0.351351,0.854728875,65.0,68.0
2,0.2989861875,0.8918910000000001,60.0,70.0
3,0.21452681250000002,1.1418907500000002,57.0,71.0
4,1.179052875,2.37161925,53.0,69.0
5,0.719593875,2.945943,48.0,47.0
6,0.266891625,2.9983078125000002,41.0,74.0
7,3.5118208125000003,4.0726310625,61.0,64.0
8,3.4560776250000003,4.0962796875,57.0,55.0
9,3.5658748125,4.4729685,64.0,65.0
10,4.39864425,4.9324275,57.0,79.0
11,5.224656937500001,6.422290875000001,61.0,71.0
12,4.85810325,6.4391827500000005,49.0,35.0
13,3.9729690000000004,6.543912375000001,52.0,58.0
14,3.5709423750000004,6.581074500000001,45.0,76.0
15,6.429047625000001,6.869925562500001,57.0,63.0
16,6.7956013125000005,7.072628062500001,62.0,72.0
17,6.88512825,7.4526952500000005,65.0,71.0
18,7.253371125000001,7.7837760000000005,57.0,63.0
19,7.6537085625,8.00674875,62.0,66.0
20,8.445937500000001,9.0928963125,65.0,71.0
21,8.4374915625,9.38512575,62.0,67.0
22,6.853033687500001,9.6537065625,50.0,79.0
23,10.4645165625,11.368231875000001,48.0,70.0
24,11.2888400625,11.41215075,51.0,71.0
25,10.876678312500001,11.491542562500001,55.0,73.0
26,11.667218062500002,12.668906250000001,48.0,68.0
27,10.043908875000001,12.749987250000002,36.0,75.0
28,11.68242075,13.141878750000002,51.0,68.0
29,11.89188,13.214513812500002,55.0,48.0
30,11.809109812500001,13.322621812500001,60.0,68.0
31,13.695932250000002,14.253364125000001,53.0,58.0
32,14.106404812500001,14.611471875000001,58.0,81.0
33,14.868228375000001,14.95268775,53.0,41.0
34,14.888498625000002,14.972958000000002,58.0,70.0
35,14.945931000000002,15.082755187500002,62.0,79.0
36,13.310797500000001,15.880051687500002,46.0,70.0
37,16.515186187500003,16.88511825,55.0,69.0
38,16.5523483125,17.381739375000002,60.0,75.0
39,16.9104560625,17.619914812500003,52.0,63.0
40,17.3293745625,17.635117500000003,57.0,68.0
41,16.5253213125,17.694239062500003,45.0,76.0
42,17.9949144375,18.226333125,57.0,56.0
43,18.084441375,18.8834270625,62.0,73.0
44,18.1435629375,19.140183562500003,50.0,80.0
45,18.1638331875,19.368223875,65.0,74.0
46,19.341196875,19.550656125000003,64.0,80.0
47,19.668899250000003,20.3023445625,55.0,65.0
48,20.145250125,20.8496413125,50.0,50.0
49,20.567547,21.040519500000002,58.0,62.0
50,19.790520750000002,21.332748937500003,62.0,71.0
51,21.030384375,22.297275000000003,50.0,23.0
52,21.344573250000003,22.354707375,55.0,66.0
53,21.374978625,22.354707375,59.0,75.0
54,21.469573125,22.390180312500004,62.0,75.0
55,19.7685613125,22.427342437500002,43.0,77.0
56,22.8090988125,23.1334228125,55.0,63.0
57,22.996598625,23.206057875000003,36.0,75.0
58,22.891869000000003,23.496598125000002,60.0,68.0
59,23.417206312500003,23.853016687500002,55.0,68.0
60,23.006733750000002,23.853016687500002,64.0,79.0
61,23.820922125000003,24.4729485,62.0,73.0
62,24.200989312500003,24.478016062500004,55.0,62.0
63,24.663826687500002,25.67565,55.0,77.0
64,24.253354125,25.712812125000003,48.0,53.0
65,24.658759125000003,26.091190125,60.0,77.0
66,26.29051425,27.177337687500003,60.0,73.0
67,26.695919250000003,27.298959187500003,48.0,50.0
68,27.10132425,28.3192284375,53.0,79.0
69,27.91213425,28.337809500000002,57.0,71.0
70,28.72294425,28.863146812500002,53.0,73.0
71,28.72294425,28.885106250000003,60.0,75.0
72,27.506729250000003,28.944227812500003,48.0,62.0
73,26.29051425,28.974633187500004,41.0,79.0
74,29.53375425,30.347942625,61.0,72.0
75,29.939159250000003,30.4813884375,52.0,56.0
76,31.15537425,31.719562875,64.0,74.0
77,30.34456425,31.7347655625,57.0,75.0
78,31.96618425,32.1486165,57.0,72.0
79,31.96618425,32.466183750000006,69.0,80.0
80,30.749969250000003,32.604697125,52.0,41.0
81,29.53375425,32.648616000000004,45.0,79.0
82,32.37158925,32.7432105,57.0,79.0
83,32.77699425,33.280372125,57.0,68.0
84,32.77699425,33.626655562500005,62.0,72.0
85,33.587804250000005,34.089492937500005,57.0,82.0
86,33.99320925,34.903681312500005,62.0,80.0
87,34.80401925,35.0421946875,57.0,69.0
88,35.209424250000005,35.364829500000006,62.0,75.0
89,35.209424250000005,35.3766538125,65.0,78.0
90,35.209424250000005,35.405370000000005,57.0,75.0
91,33.18239925,35.46618075000001,45.0,55.0
92,32.77699425,35.577667125000005,38.0,75.0
93,36.02023425,36.496585125,48.0,75.0
94,36.02023425,36.584422875,55.0,75.0
95,36.831044250000005,37.206043875000006,51.0,78.0
96,37.23644925000001,37.6401650625,55.0,75.0
97,36.42563925,37.8698945625,43.0,43.0
98,37.64185425,37.967867437500004,60.0,80.0
99,36.02023425,37.969556625,36.0,75.0
100,38.452664250000005,38.749961250000005,53.0,72.0
101,38.452664250000005,38.766853125000004,57.0,69.0
102,38.452664250000005,38.814150375000004,60.0,78.0
103,38.452664250000005,38.90536650000001,41.0,80.0
104,39.26347425,39.478001062500006,53.0,71.0
105,39.66887925,40.106378812500004,53.0,64.0
106,39.26347425,40.119892312500006,58.0,70.0
107,40.074284250000005,40.429013625,62.0,79.0
108,40.47968925000001,40.755026812500006,53.0,67.0
109,40.88509425,41.746579875,53.0,73.0
110,39.26347425,41.8023230625,46.0,80.0
111,40.88509425,41.820904125000006,58.0,67.0
112,42.50671425,43.0320515625,57.0,70.0
113,42.50671425,43.091173125000005,60.0,74.0
114,42.91211925,43.4138079375,52.0,59.0
115,43.317524250000005,43.57428075000001,57.0,81.0
116,42.50671425,43.6350915,45.0,80.0
117,43.72292925000001,44.180699062500004,57.0,77.0
118,43.72292925000001,44.3800231875,62.0,77.0
119,43.72292925000001,45.1215765,50.0,77.0
120,44.939144250000005,45.145225125,57.0,75.0
121,44.939144250000005,45.1840764375,65.0,76.0
122,45.74995425,46.209413250000004,62.0,75.0
123,45.74995425,46.216170000000005,55.0,72.0
124,46.560764250000005,47.14691231250001,55.0,75.0
125,46.96616925000001,47.727992812500005,67.0,79.0
126,47.776979250000004,47.989816875,55.0,71.0
127,46.155359250000004,48.354681375000006,50.0,64.0
128,45.74995425,48.40028943750001,43.0,78.0
129,48.182384250000005,48.71278912500001,62.0,79.0
130,48.182384250000005,48.716167500000005,55.0,82.0
131,48.58778925000001,48.934072687500006,43.0,79.0
132,48.99319425,49.172248125,55.0,74.0
133,48.99319425,49.486437,60.0,76.0
134,49.398599250000004,49.7144773125,55.0,74.0
135,49.804004250000006,50.2617740625,62.0,80.0
136,48.99319425,50.47630087500001,48.0,79.0
137,50.20940925000001,50.69589525000001,55.0,79.0
138,50.61481425,51.10130025,64.0,80.0
139,50.61481425,51.11819212500001,60.0,74.0
140,51.425624250000006,51.61988081250001,60.0,80.0
141,51.425624250000006,51.6401510625,55.0,81.0
142,50.61481425,51.665488875,48.0,79.0
143,52.23643425,52.695893250000005,60.0,74.0
144,52.23643425,52.72292025,53.0,74.0
145,52.641839250000004,53.1604198125,48.0,53.0
146,53.047244250000006,53.4340681875,53.0,77.0
147,53.047244250000006,53.471230312500005,57.0,75.0
148,53.85805425,54.332715937500005,53.0,75.0
149,53.85805425,54.34454025,60.0,75.0
150,54.263459250000004,54.4374455625,57.0,79.0
151,54.668864250000006,54.72967500000001,57.0,63.0
152,53.45264925000001,54.96447206250001,48.0,66.0
153,54.668864250000006,54.9864315,60.0,66.0
154,54.668864250000006,55.006701750000005,53.0,75.0
155,52.23643425,55.0489314375,41.0,80.0
156,54.668864250000006,55.23643125,65.0,80.0
157,55.47967425,55.98305212500001,57.0,71.0
158,55.47967425,55.994876437500004,61.0,72.0
159,55.885079250000004,56.43068681250001,52.0,63.0
160,56.290484250000006,56.71953787500001,64.0,79.0
161,56.290484250000006,56.7786594375,57.0,76.0
162,56.69588925000001,57.214469812500006,52.0,54.0
163,57.10129425,57.483050625000004,61.0,83.0
164,57.912104250000006,58.060752750000006,57.0,75.0
165,57.506699250000004,58.081023,52.0,71.0
166,57.912104250000006,58.327644375000006,64.0,81.0
167,55.47967425,58.38507675,45.0,79.0
168,58.31750925000001,58.587779250000004,57.0,83.0
169,58.72291425,59.3259541875,58.0,68.0
170,58.72291425,59.589467437500005,62.0,74.0
171,59.533724250000006,59.979669750000006,65.0,80.0
172,59.128319250000004,60.219534375,53.0,50.0
173,58.72291425,60.22798031250001,46.0,75.0
174,59.93912925000001,60.26852081250001,58.0,70.0
175,60.34453425,60.760074375,58.0,67.0
176,60.34453425,60.85466887500001,62.0,74.0
177,61.155344250000006,61.260073875,58.0,73.0
178,60.749939250000004,61.298925187500004,53.0,43.0
179,61.155344250000006,61.557370875000004,65.0,77.0
180,61.155344250000006,61.609735687500006,62.0,79.0
181,61.56074925000001,61.675614,58.0,56.0
182,61.96615425,62.662099500000004,55.0,71.0
183,61.96615425,62.817504750000005,59.0,73.0
184,62.776964250000006,63.29047725,62.0,78.0
185,62.371559250000004,63.466152750000006,50.0,68.0
186,61.96615425,63.483044625000005,43.0,79.0
187,63.58777425,64.1333818125,67.0,73.0
188,63.58777425,64.17392231250001,62.0,79.0
189,63.18236925000001,64.20939525,55.0,83.0
190,63.58777425,64.22966550000001,59.0,79.0
191,63.993179250000004,64.5725705625,50.0,62.0
192,63.58777425,64.61480025,43.0,79.0
193,64.39858425,64.624935375,55.0,80.0
194,64.39858425,64.6367596875,59.0,82.0
195,64.80398925,65.10128625,43.0,80.0
196,65.20939425,65.7381099375,57.0,73.0
197,65.20939425,65.8732449375,65.0,77.0
198,66.02020425,66.42560925000001,60.0,81.0
199,66.42560925000001,66.618176625,57.0,79.0
200,66.83101425000001,66.97966275,57.0,76.0
201,66.83101425000001,67.33439212500001,65.0,75.0
202,67.23641925000001,67.4137839375,57.0,64.0
203,67.64182425,67.814121375,57.0,79.0
204,65.61479925,67.93405368750001,48.0,59.0
205,65.20939425,67.94587800000001,41.0,79.0
206,67.64182425,68.0658103125,60.0,80.0
207,68.04722925,68.59283681250001,57.0,78.0
208,68.45263425,69.10466062500001,61.0,79.0
209,69.26344425,69.53540343750001,57.0,72.0
210,69.26344425,69.847903125,64.0,80.0
211,69.66884925000001,69.928984125,57.0,72.0
212,70.07425425000001,70.476280875,57.0,76.0
213,70.07425425000001,70.486416,61.0,77.0
214,70.88506425,71.0489154375,57.0,77.0
215,68.85803925,71.09452350000001,52.0,67.0
216,68.45263425,71.11648293750001,45.0,79.0
217,70.88506425,71.25499631250001,64.0,81.0
218,71.29046925,71.6063473125,45.0,81.0
219,71.69587425,72.1705359375,58.0,68.0
220,71.69587425,72.341143875,62.0,75.0
221,72.50668425,72.77526506250001,58.0,68.0
222,72.50668425,72.94756218750001,65.0,75.0
223,72.91208925000001,73.18742681250001,58.0,72.0
224,73.31749425000001,73.45938600000001,58.0,65.0
225,73.72289925000001,73.9103990625,58.0,65.0
226,73.31749425000001,73.983034125,62.0,74.0
227,74.12830425000001,74.32593918750001,58.0,74.0
228,72.10127925,74.4914795625,53.0,48.0
229,71.69587425,74.53202006250001,46.0,76.0
230,74.12830425000001,74.5894524375,62.0,79.0
231,74.53370925,74.6502631875,58.0,80.0
232,74.93911425,75.530329875,55.0,72.0
233,74.93911425,75.5928298125,62.0,73.0
234,75.74992425,75.9644510625,55.0,75.0
235,75.74992425,76.07931581250001,59.0,77.0
236,76.15532925000001,76.3124236875,55.0,69.0
237,76.56073425000001,76.7617475625,55.0,73.0
238,76.56073425000001,77.11309856250001,62.0,76.0
239,76.96613925000001,77.1755985,55.0,59.0
240,77.37154425000001,77.52526031250001,62.0,75.0
241,77.37154425000001,77.55059812500001,55.0,81.0
242,75.34451925,77.6232331875,50.0,63.0
243,74.93911425,77.63674668750001,43.0,79.0
244,78.18235425,78.435732375,53.0,72.0
245,78.18235425,78.61985381250001,61.0,72.0
246,78.58775925,79.0793128125,53.0,79.0
247,78.99316425,79.40363681250001,58.0,81.0
248,79.39856925000001,79.92116962083334,53.0,80.0
249,79.80422051458335,80.2804915125,65.0,79.0
250,79.80422051458335,80.29235591458334,58.0,80.0
251,79.80422051458335,80.30761014583335,61.0,78.0
252,80.61777951458335,80.84320315416667,53.0,79.0
253,80.61777951458335,81.31099957916668,58.0,85.0
254,80.61777951458335,81.34150804166669,61.0,80.0
255,81.02455901458335,81.37032158958334,53.0,83.0
256,78.18235425,81.37540633333334,46.0,79.0
257,81.43133851458335,81.61438928958334,53.0,75.0
258,81.43133851458335,81.62625369166668,57.0,74.0
259,82.24489751458334,82.39743982708335,57.0,81.0
260,82.24489751458334,82.42794828958334,65.0,80.0
261,81.83811801458334,82.44489743541668,48.0,61.0
262,82.65167701458334,82.87710065416668,48.0,57.0
263,81.43133851458335,82.89574471458334,41.0,79.0
264,82.85506676458334,83.03133788125001,57.0,81.0
265,82.85506676458334,83.03133788125001,60.0,84.0
266,83.26184626458334,83.39235468750002,57.0,75.0
267,83.26184626458334,83.42964280833334,65.0,80.0
268,83.66862576458334,83.768625725,57.0,71.0
269,83.46523601458334,83.98896462083334,48.0,68.0
270,83.05845651458334,84.06354086250002,41.0,73.0
271,83.87201551458334,84.18387979791667,57.0,81.0
272,83.87201551458334,84.20591368750001,60.0,80.0
273,84.27879501458335,84.41438818125002,41.0,80.0
274,84.68557451458335,85.07201503958335,57.0,79.0
275,84.68557451458335,85.09065910000001,61.0,74.0
276,85.09235401458335,85.57428216250001,52.0,59.0
277,85.49826872500002,85.74151172500001,64.0,83.0
278,85.49826872500002,85.77698466250001,57.0,84.0
279,85.90367372500002,86.14015997500002,52.0,57.0
280,84.68557451458335,86.15874103750001,45.0,80.0
281,86.10637622500002,86.44928128750001,57.0,82.0
282,86.10637622500002,86.48813260000001,61.0,86.0
283,86.71448372500001,86.97630778750002,57.0,85.0
284,86.91718622500001,87.00333478750001,61.0,88.0
285,86.51178122500001,87.15536166250001,52.0,73.0
286,87.11988872500001,87.47968566250002,57.0,84.0
287,87.11988872500001,87.53373966250001,64.0,88.0
288,86.30907872500002,87.65873953750001,45.0,78.0
289,87.52529372500001,87.69759085000001,52.0,74.0
290,87.93069872500001,88.24319841250002,58.0,79.0
291,87.93069872500001,88.41380635000002,62.0,77.0
292,88.53880622500002,88.63340072500002,58.0,77.0
293,88.33610372500002,88.87157616250002,53.0,60.0
294,88.74150872500002,89.11144078750002,65.0,81.0
295,88.74150872500002,89.14353535000001,58.0,84.0
296,87.93069872500001,89.42900803750001,46.0,77.0
297,89.14691372500002,89.45772422500002,53.0,64.0
298,89.34961622500002,89.78035903750002,58.0,84.0
299,89.34961622500002,89.99319666250001,62.0,81.0
300,89.95772372500001,90.06752091250002,58.0,80.0
301,90.16042622500001,90.42900703750001,58.0,73.0
302,90.16042622500001,90.43914216250002,62.0,82.0
303,89.75502122500001,90.61988522500002,53.0,71.0
304,89.55231872500002,90.62833116250002,46.0,80.0
305,90.56583122500001,90.73643916250002,58.0,83.0
306,90.56583122500001,90.83779041250001,62.0,83.0
307,90.56583122500001,90.85974985000001,65.0,80.0
308,90.76853372500001,90.86312822500001,46.0,77.0
309,91.17393872500001,91.58441128750002,59.0,79.0
310,91.17393872500001,91.59285722500002,55.0,75.0
311,91.57934372500002,91.81582997500001,50.0,59.0
312,91.78204622500002,92.03711353750002,55.0,83.0
313,91.78204622500002,92.21785660000002,59.0,84.0
314,92.18745122500002,92.43407260000001,55.0,82.0
315,91.98474872500002,92.56245085000002,50.0,75.0
316,91.17393872500001,92.58947785000001,43.0,81.0
317,92.39015372500002,92.61143728750001,59.0,75.0
318,92.59285622500002,92.67224803750001,55.0,51.0
319,92.79555872500002,92.92900453750002,55.0,79.0
320,92.79555872500002,93.06751791250001,60.0,75.0
321,92.99826122500002,93.25332853750001,55.0,79.0
322,93.20096372500001,93.29049066250002,60.0,72.0
323,93.40366622500001,93.58778766250002,55.0,83.0
324,93.40366622500001,93.75839560000001,64.0,84.0
325,93.80907122500001,93.89859816250001,55.0,75.0
326,93.80907122500001,94.37663822500002,60.0,73.0
327,94.01177372500001,94.38846253750002,55.0,79.0
328,92.79555872500002,94.4323814125,48.0,80.0
329,94.41717872500001,94.78035403750002,57.0,72.0
330,94.41717872500001,94.79893510000001,53.0,71.0
331,94.82258372500002,95.36819128750001,48.0,56.0
332,95.22798872500002,95.646907225,57.0,72.0
333,95.22798872500002,95.65704235000001,60.0,69.0
334,95.63339372500002,95.85129891250001,48.0,54.0
335,94.41717872500001,95.91210966250001,41.0,79.0
336,95.83609622500002,95.98136635000002,57.0,79.0
337,95.83609622500002,96.04217710000002,65.0,72.0
338,96.24150122500001,96.34116328750001,57.0,76.0
339,96.24150122500001,96.50501447500001,60.0,81.0
340,96.44420372500002,96.61650085000002,57.0,74.0
341,96.64690622500001,96.99487885000002,48.0,69.0
342,96.84960872500001,97.15197328750001,57.0,76.0
343,96.84960872500001,97.25332453750002,60.0,79.0
344,96.03879872500002,97.26514885000002,41.0,68.0
345,97.25501372500001,97.42562166250002,57.0,80.0
346,97.66041872500001,98.05906697500001,61.0,75.0
347,97.66041872500001,98.07933722500002,57.0,76.0
348,98.06582372500002,98.66210691250001,52.0,53.0
349,98.47122872500002,98.82426891250002,64.0,80.0
350,98.47122872500002,98.87325535000002,57.0,80.0
351,98.67393122500002,99.02021466250001,52.0,49.0
352,97.66041872500001,99.15366047500001,45.0,75.0
353,99.07933622500002,99.73474097500002,57.0,80.0
354,99.07933622500002,99.75838960000002,61.0,80.0
355,100.09284872500001,100.21278103750001,57.0,86.0
356,99.89014622500001,100.36818628750001,52.0,75.0
357,100.29555122500001,100.43744297500001,61.0,86.0
358,100.49825372500001,100.72967241250001,52.0,73.0
359,99.68744372500001,100.74656428750001,45.0,76.0
360,100.70095622500001,100.81582097500001,57.0,80.0
361,100.90365872500001,101.13845578750002,57.0,79.0
362,101.30906372500002,101.39352310000001,57.0,59.0
363,100.90365872500001,101.39690147500002,62.0,81.0
364,101.71446872500002,101.85973885000001,57.0,79.0
365,101.71446872500002,102.04048191250001,65.0,78.0
366,100.90365872500001,102.42392747500001,50.0,79.0
367,102.32257622500002,102.65196778750001,57.0,80.0
368,102.93068372500002,103.01007553750001,57.0,70.0
369,102.52527872500002,103.06075116250001,65.0,80.0
370,103.13338622500001,103.34284547500002,57.0,80.0
371,103.13338622500001,103.52696691250001,62.0,82.0
372,102.52527872500002,103.77865585,50.0,79.0
373,103.53879122500001,103.80061528750002,57.0,81.0
374,103.74149372500001,103.83270985000001,62.0,79.0
375,104.14689872500001,104.33777691250002,55.0,71.0
376,104.14689872500001,104.51007403750002,60.0,75.0
377,104.55230372500002,104.62662797500002,55.0,66.0
378,104.75500622500002,104.95264116250002,55.0,80.0
379,104.75500622500002,105.03878972500002,63.0,80.0
380,105.16041122500002,105.26683003750001,55.0,80.0
381,105.16041122500002,105.41378935000002,60.0,83.0
382,105.36311372500002,105.56243785000001,55.0,74.0
383,105.768518725,105.97291041250001,55.0,78.0
384,105.768518725,106.23642366250002,60.0,77.0
385,104.14689872500001,106.25331553750001,36.0,78.0
386,106.17392372500001,106.33608572500002,55.0,71.0
387,106.57932872500001,106.80736903750002,53.0,75.0
388,106.57932872500001,106.97966616250002,57.0,75.0
389,106.57932872500001,107.09453091250002,41.0,80.0
390,106.98473372500001,107.17223353750002,53.0,80.0
391,107.39013872500001,107.56243585000001,53.0,76.0
392,107.59284122500002,107.69250328750002,53.0,71.0
393,107.39013872500001,107.77189510000002,58.0,72.0
394,107.99824622500002,108.23811085000001,62.0,80.0
395,107.99824622500002,108.25500272500001,53.0,79.0
396,108.40365122500002,108.51851597500001,53.0,73.0
397,107.39013872500001,108.52020516250002,46.0,71.0
398,108.40365122500002,108.68743472500002,58.0,72.0
399,108.60635372500002,108.73135360000002,53.0,66.0
400,109.01175872500002,109.32594760000002,58.0,67.0
401,109.61986622500001,109.8343930375,58.0,79.0
402,110.02527122500001,110.12662247500002,58.0,81.0
403,109.41716372500002,110.24486560000001,53.0,59.0
404,110.02527122500001,110.30905472500001,62.0,79.0
405,109.01175872500002,110.37831141250001,46.0,70.0
406,110.22797372500001,110.40196003750002,58.0,72.0
407,110.63337872500001,111.08777016250002,57.0,74.0
408,110.63337872500001,111.12493228750002,60.0,75.0
409,111.24148622500002,111.39013472500002,57.0,80.0
410,111.03878372500002,111.56749941250001,52.0,69.0
411,111.44418872500002,111.61986422500001,60.0,83.0
412,111.64689122500002,111.74148572500002,57.0,79.0
413,110.63337872500001,111.76175597500001,45.0,80.0
414,111.84959372500002,112.16378260000002,57.0,79.0
415,111.84959372500002,112.45432285000001,62.0,76.0
416,112.45770122500002,112.53033628750002,57.0,71.0
417,112.66040372500001,112.83439003750001,57.0,80.0
418,112.66040372500001,112.87999810000002,65.0,80.0
419,113.26851122500001,113.35803816250001,57.0,76.0
420,111.84959372500002,113.45770022500002,50.0,80.0
421,113.26851122500001,113.49148397500002,62.0,77.0
422,113.47121372500001,113.62155141250001,57.0,70.0
423,113.67391622500001,113.76344316250001,62.0,70.0
424,113.87661872500001,113.94418622500001,65.0,63.0
425,113.87661872500001,114.40533441250003,55.0,80.0
426,114.28202372500002,114.79553672500002,50.0,63.0
427,114.68742872500002,115.10634722500002,55.0,82.0
428,114.68742872500002,115.13506341250002,62.0,80.0
429,115.29553622500002,115.42053610000002,55.0,83.0
430,115.29553622500002,115.47290091250002,67.0,79.0
431,115.70094122500001,115.90702210000002,62.0,78.0
432,115.90364372500002,116.16377860000001,55.0,75.0
433,115.09283372500002,116.21276503750002,50.0,67.0
434,116.10634622500001,116.52357553750002,62.0,74.0
435,116.51175122500001,116.72121047500002,55.0,79.0
436,116.30904872500003,116.81580497500002,50.0,81.0
437,116.71445372500001,116.91377785000002,62.0,77.0
438,113.87661872500001,116.92391297500002,43.0,80.0
439,116.91715622500001,117.06242635000001,55.0,74.0
440,117.11985872500001,117.31411528750002,55.0,75.0
441,117.11985872500001,117.52695291250001,60.0,77.0
442,117.52526372500002,117.75330403750002,55.0,73.0
443,117.93066872500002,118.08100641250002,55.0,81.0
444,117.93066872500002,118.37999260000001,62.0,80.0
445,118.33607372500002,118.43066822500002,55.0,73.0
446,117.11985872500001,118.62323560000002,48.0,78.0
447,118.53877622500002,118.80397866250001,55.0,79.0
448,118.53877622500002,119.00161360000001,64.0,81.0
449,118.94418122500002,119.11309997500001,55.0,85.0
450,119.14688372500001,119.2668160375,60.0,67.0
451,119.34958622500002,119.44418072500002,55.0,69.0
452,119.55228872500001,119.72627503750002,55.0,82.0
453,118.74147872500001,119.86985597500001,48.0,82.0
454,119.55228872500001,119.90701810000002,60.0,86.0
455,119.95769372500001,119.99147747500001,55.0,69.0
456,120.36309872500001,120.61309847500002,57.0,69.0
457,120.36309872500001,120.79384153750001,60.0,76.0
458,121.17390872500002,121.29553022500002,57.0,79.0
459,121.17390872500002,121.342827475,65.0,80.0
460,120.76850372500002,121.80904322500001,48.0,64.0
461,120.36309872500001,121.84282697500001,41.0,80.0
462,121.782016225,122.03708353750002,57.0,80.0
463,121.782016225,122.16208341250001,60.0,82.0
464,122.39012372500002,122.63674510000001,57.0,81.0
465,122.59282622500001,122.69248828750003,60.0,80.0
466,122.18742122500001,122.87660972500001,48.0,67.0
467,122.79552872500003,122.96106910000002,57.0,79.0
468,122.79552872500003,123.00498797500002,60.0,84.0
469,122.79552872500003,123.05566360000002,65.0,80.0
470,122.99823122500001,123.12492028750002,48.0,78.0
471,121.98471872500002,123.13674460000001,41.0,79.0
472,123.20093372500003,123.31748766250001,57.0,83.0
473,123.60633872500001,123.96275728750001,61.0,73.0
474,123.60633872500001,123.96613566250002,57.0,80.0
475,124.01174372500002,124.52018916250002,52.0,61.0
476,124.41714872500002,124.55059453750002,61.0,81.0
477,124.41714872500002,124.55397291250002,64.0,83.0
478,124.41714872500002,124.56579722500001,57.0,78.0
479,123.60633872500001,124.58268910000001,45.0,80.0
480,125.02525622500002,125.28032353750001,61.0,81.0
481,125.02525622500002,125.29045866250001,57.0,79.0
482,125.02525622500002,125.32593160000002,69.0,78.0
483,125.63336372500001,125.73471497500002,57.0,81.0
484,125.83606622500002,126.10802541250001,64.0,82.0
485,125.83606622500002,126.11647135000001,57.0,80.0
486,126.24147122500003,126.450930475,61.0,83.0
487,125.22795872500001,126.45430885000002,45.0,80.0
488,125.43066122500002,126.47288991250002,52.0,70.0
489,126.44417372500001,126.56072766250001,57.0,80.0
490,126.84957872500001,127.21444322500002,58.0,77.0
491,126.84957872500001,127.29890260000002,62.0,79.0
492,127.66038872500002,127.80903722500003,58.0,80.0
493,127.66038872500002,127.84282097500002,62.0,80.0
494,127.66038872500002,127.85971285000002,65.0,66.0
495,126.84957872500001,128.23978003750003,46.0,79.0
496,127.25498372500002,128.27863135,53.0,57.0
497,128.268496225,128.53876622500002,58.0,82.0
498,128.268496225,128.57761753750003,65.0,79.0
499,128.268496225,128.58437428750003,62.0,80.0
500,128.87660372500002,128.97457660000003,58.0,81.0
501,128.673901225,129.21444122500003,53.0,67.0
502,129.079306225,129.5691706,58.0,82.0
503,129.079306225,129.62491378750002,62.0,81.0
504,129.28200872500003,129.81917035,53.0,59.0
505,129.68741372500003,129.90362972500003,58.0,84.0
506,128.47119872500002,129.96275128750003,46.0,80.0
507,129.890116225,130.00667016250003,62.0,74.0
508,130.09281872500003,130.56579122500003,55.0,80.0
509,130.90362872500003,131.032006975,59.0,80.0
510,130.90362872500003,131.04552047500002,55.0,79.0
511,130.90362872500003,131.052277225,62.0,80.0
512,130.498223725,131.49653353750003,50.0,66.0
513,130.09281872500003,131.51004703750002,43.0,80.0
514,131.51173622500002,131.7836954125,67.0,79.0
515,131.51173622500002,131.82254672500002,55.0,80.0
516,132.119843725,132.22457335000001,55.0,80.0
517,131.91714122500002,132.35464078750002,50.0,65.0
518,132.32254622500002,132.49484335000002,65.0,75.0
519,132.32254622500002,132.51004603750002,59.0,75.0
520,132.32254622500002,132.57592435,55.0,79.0
521,132.525248725,132.78707278750002,50.0,75.0
522,132.72795122500003,132.88166728750002,55.0,80.0
523,132.72795122500003,132.9796401625,62.0,81.0
524,132.930653725,133.05227522500002,55.0,78.0
525,132.930653725,133.059031975,50.0,73.0
526,131.714438725,133.06241035000002,43.0,80.0
527,133.33605872500002,133.69078810000002,57.0,75.0
528,133.33605872500002,133.71612591250002,53.0,74.0
529,134.14686872500002,134.25159835000002,60.0,79.0
530,134.14686872500002,134.2735577875,53.0,77.0
531,133.74146372500002,134.74146272500002,48.0,57.0
532,133.33605872500002,134.76848972500002,41.0,78.0
533,134.754976225,135.0151111,57.0,79.0
534,134.754976225,135.02186785000004,60.0,79.0
535,135.36308372500002,135.45767822500002,53.0,78.0
536,135.160381225,135.62321860000003,48.0,66.0
537,135.565786225,135.80565085,60.0,80.0
538,135.565786225,135.83774541250003,53.0,79.0
539,135.971191225,136.0826776,53.0,81.0
540,134.95767872500002,136.11646135,41.0,79.0
541,135.971191225,136.11983972500002,57.0,82.0
542,135.76848872500003,136.14010997500003,48.0,72.0
543,136.579298725,136.9880821,57.0,68.0
544,136.579298725,137.00159560000003,61.0,74.0
545,136.98470372500003,137.51510860000002,52.0,65.0
546,137.390108725,137.5640950375,61.0,82.0
547,137.390108725,137.56916260000003,64.0,81.0
548,137.390108725,137.57760853750003,57.0,77.0
549,136.579298725,137.7870677875,45.0,77.0
550,137.99821622500002,138.34112128750002,57.0,79.0
551,137.99821622500002,138.3715266625,61.0,84.0
552,137.99821622500002,138.38504016250002,64.0,82.0
553,138.606323725,138.70429660000002,57.0,81.0
554,138.40362122500002,138.82760728750003,52.0,71.0
555,138.80902622500003,139.03537735000003,61.0,90.0
556,138.80902622500003,139.05058003750003,57.0,81.0
557,139.21443122500003,139.3208500375,57.0,80.0
558,139.011728725,139.32591760000003,52.0,75.0
559,138.200918725,139.43909316250003,45.0,77.0
560,139.21443122500003,139.491457975,64.0,81.0
561,139.417133725,139.5438227875,57.0,76.0
562,139.82253872500002,140.19584916250002,58.0,80.0
563,139.82253872500002,140.22118697500002,62.0,79.0
564,139.82253872500002,140.707672975,46.0,80.0
565,140.22794372500002,140.74145672500003,53.0,64.0
566,140.63334872500002,140.91037547500002,65.0,79.0
567,140.63334872500002,140.9323349125,58.0,88.0
568,141.24145622500004,141.4728749125,58.0,83.0
569,141.24145622500004,141.5269289125,62.0,83.0
570,141.84956372500002,141.97118522500003,58.0,84.0
571,141.646861225,142.1282796625,53.0,72.0
572,142.052266225,142.24483360000002,58.0,70.0
573,142.052266225,142.27354978750003,62.0,83.0
574,141.44415872500002,142.49314416250002,46.0,74.0
575,142.25496872500003,142.50496847500003,53.0,74.0
576,142.457671225,142.60294135,58.0,84.0
577,142.457671225,142.69077910000001,62.0,82.0
578,142.457671225,142.73469797500002,65.0,79.0
579,142.66037372500003,142.76341416250003,46.0,78.0
580,143.06577872500003,143.4475351,59.0,78.0
581,143.06577872500003,143.45429185,55.0,75.0
582,143.87658872500003,144.1789532875,55.0,83.0
583,143.87658872500003,144.19246678750002,62.0,85.0
584,143.87658872500003,144.20260191250003,59.0,86.0
585,143.06577872500003,144.49483135000003,43.0,79.0
586,143.471183725,144.53537185000002,50.0,68.0
587,144.48469622500002,144.76003378750002,62.0,86.0
588,144.48469622500002,144.78537160000002,55.0,84.0
589,145.092803725,145.187398225,55.0,81.0
590,144.89010122500002,145.32084403750002,50.0,73.0
591,145.29550622500003,145.538749225,55.0,80.0
592,145.29550622500003,145.538749225,62.0,82.0
593,145.29550622500003,145.55226272500002,59.0,85.0
594,145.498208725,145.80057328750001,50.0,78.0
595,144.687398725,145.83266785,43.0,80.0
596,145.70091122500003,145.8343570375,59.0,90.0
597,145.70091122500003,145.84449216250002,62.0,84.0
598,145.70091122500003,145.849559725,55.0,83.0
599,146.30901872500002,146.69077510000002,59.0,78.0
600,146.30901872500002,146.69753185000002,55.0,75.0
601,147.11982872500002,147.42219328750002,55.0,83.0
602,147.11982872500002,147.4357067875,62.0,85.0
603,147.11982872500002,147.44584191250001,59.0,86.0
604,146.30901872500002,147.73807135,43.0,79.0
605,146.71442372500002,147.77861185,50.0,68.0
606,147.727936225,148.0032737875,62.0,86.0
607,147.727936225,148.02861160000003,55.0,84.0
608,148.33604372500002,148.43063822500002,55.0,81.0
609,148.133341225,148.5640840375,50.0,73.0
610,148.538746225,148.78198922500002,55.0,80.0
611,148.538746225,148.78198922500002,62.0,82.0
612,148.538746225,148.795502725,59.0,85.0
613,148.74144872500003,149.04381328750003,50.0,78.0
614,147.93063872500002,149.07590785000002,43.0,80.0
615,148.944151225,149.07759703750003,59.0,90.0
616,148.944151225,149.0877321625,62.0,84.0
617,148.944151225,149.09279972500002,55.0,83.0
618,149.552258725,149.8799611,57.0,74.0
619,149.552258725,149.984690725,60.0,77.0
620,150.16036622500002,150.34279847500002,57.0,80.0
621,150.16036622500002,150.3613795375,65.0,79.0
622,150.56577122500002,150.71104135000002,57.0,80.0
623,150.56577122500002,150.74989266250003,60.0,80.0
624,149.95766372500003,151.0370545375,48.0,57.0
625,150.97117622500002,151.08097341250001,57.0,73.0
626,149.552258725,151.08435178750003,41.0,80.0
627,151.173878725,151.430635225,57.0,79.0
628,151.173878725,151.59279722500003,60.0,79.0
629,151.57928372500004,151.67894578750003,57.0,74.0
630,151.37658122500002,151.83604022500003,48.0,74.0
631,151.78198622500003,152.03536435,57.0,83.0
632,151.78198622500003,152.03536435,65.0,80.0
633,151.173878725,152.241445225,41.0,79.0
634,151.984688725,152.25158035000004,48.0,72.0
635,152.187391225,152.31745866250003,57.0,83.0
636,152.187391225,152.36475591250002,60.0,82.0
637,152.59279622500003,152.687390725,57.0,79.0
638,152.79549872500002,153.00833635000004,57.0,77.0
639,152.79549872500002,153.07083628750001,61.0,75.0
640,153.20090372500002,153.26509285000003,57.0,74.0
641,153.40360622500003,153.54718716250002,64.0,80.0
642,153.40360622500003,153.565768225,57.0,82.0
643,153.809011225,153.92725435000003,64.0,81.0
644,153.809011225,153.9458354125,57.0,79.0
645,152.79549872500002,154.33097016250002,45.0,80.0
646,152.998201225,154.33603772500004,52.0,73.0
647,154.21441622500004,154.33603772500004,57.0,79.0
648,154.41711872500002,154.67387522500002,57.0,81.0
649,154.41711872500002,154.72792922500003,61.0,79.0
650,154.82252372500002,154.9475236,57.0,78.0
651,155.02522622500004,155.31238810000002,57.0,76.0
652,155.02522622500004,155.32927997500002,64.0,81.0
653,155.430631225,155.48130685,64.0,59.0
654,155.430631225,155.653603975,61.0,80.0
655,155.633333725,155.80056328750004,57.0,81.0
656,154.619821225,155.86475241250002,52.0,73.0
657,154.41711872500002,155.88333347500003,45.0,81.0
658,156.03873872500003,156.254954725,57.0,80.0
659,156.03873872500003,156.50833285000002,62.0,80.0
660,156.444143725,156.65867053750003,57.0,67.0
661,156.84954872500003,156.9897512875,57.0,81.0
662,156.84954872500003,157.09279172500004,62.0,84.0
663,156.84954872500003,157.12150791250002,65.0,83.0
664,157.254953725,157.3394131,57.0,76.0
665,156.03873872500003,157.4610346,50.0,82.0
666,157.45765622500002,157.71441272500002,57.0,83.0
667,157.45765622500002,157.79549372500003,62.0,83.0
668,157.86306122500002,158.10292585000002,57.0,81.0
669,158.065763725,158.14008797500003,62.0,67.0
670,158.26846622500003,158.5404254125,65.0,80.0
671,158.26846622500003,158.545492975,62.0,79.0
672,158.26846622500003,158.57420916250004,57.0,80.0
673,158.67387122500003,158.77353328750002,57.0,79.0
674,157.66035872500004,158.81576297500004,50.0,80.0
675,158.67387122500003,158.92724935,62.0,82.0
676,158.87657372500001,158.97285741250002,57.0,76.0
677,159.28197872500002,159.46441097500002,55.0,80.0
678,159.28197872500002,159.70934316250003,60.0,78.0
679,159.68738372500002,159.77691066250003,55.0,72.0
680,159.890086225,160.12150491250003,55.0,80.0
681,160.09278872500002,160.12150491250003,55.0,67.0
682,159.890086225,160.16035622500002,60.0,81.0
683,159.890086225,160.42893703750002,63.0,79.0
684,159.28197872500002,160.74481510000004,48.0,83.0
685,160.29549122500003,160.77522047500003,60.0,79.0
686,160.700896225,160.8208285375,57.0,73.0
687,160.90359872500002,161.19509447500002,57.0,75.0
688,160.90359872500002,161.343242475,65.0,79.0
689,160.90359872500002,161.353343475,60.0,81.0
690,161.509908975,161.752332975,57.0,82.0
691,161.509908975,161.94930247500002,60.0,88.0
692,160.90359872500002,162.089032975,41.0,80.0
693,161.30788897500003,162.126069975,48.0,69.0
694,161.913948975,162.18330897500002,57.0,80.0
695,162.11596897500002,162.193409975,60.0,77.0
696,162.52000897500002,162.779267975,62.0,79.0
697,162.52000897500002,162.897112975,58.0,75.0
698,162.924048975,163.587347975,53.0,63.0
699,163.32808897500001,163.61596747500002,58.0,83.0
700,163.32808897500001,163.639536475,65.0,79.0
701,163.32808897500001,163.663105475,62.0,82.0
702,162.52000897500002,163.961084975,46.0,75.0
703,163.73212897500002,164.020007475,53.0,58.0
704,163.934148975,164.237178975,58.0,79.0
705,163.934148975,164.349973475,62.0,79.0
706,164.540208975,164.64626947500003,58.0,80.0
707,164.338188975,164.82472047500002,53.0,70.0
708,164.74222897500002,165.020006475,58.0,79.0
709,164.74222897500002,165.038524975,62.0,80.0
710,164.136168975,165.247278975,46.0,67.0
711,164.94424897500002,165.247278975,53.0,71.0
712,165.14626897500003,165.387009475,58.0,79.0
713,165.14626897500003,165.482968975,62.0,80.0
714,165.14626897500003,165.50317097500002,65.0,79.0
715,165.752328975,166.169836975,57.0,79.0
716,165.752328975,166.26916347500003,60.0,79.0
717,166.35838897500003,166.58902847500002,57.0,80.0
718,166.560408975,166.74222697500002,60.0,81.0
719,166.15636897500002,166.787681475,52.0,72.0
720,165.752328975,166.799465975,45.0,80.0
721,166.762428975,166.829768975,57.0,65.0
722,166.964448975,167.400475475,57.0,79.0
723,166.964448975,167.617646975,62.0,79.0
724,167.57050897500002,167.649633475,57.0,72.0
725,167.772528975,167.945929475,57.0,81.0
726,167.772528975,168.014952975,65.0,79.0
727,168.176568975,168.265794475,57.0,77.0
728,168.176568975,168.38700647500002,62.0,75.0
729,168.378588975,168.54020497500002,57.0,74.0
730,166.964448975,168.627746975,50.0,79.0
731,168.58060897500002,168.65468297500001,62.0,67.0
732,168.9848821625,169.3970439125,62.0,77.0
733,168.9848821625,169.41731416250002,55.0,74.0
734,169.39028716250002,169.9646109125,50.0,64.0
735,169.79569216250002,170.07947566250002,59.0,79.0
736,169.79569216250002,170.11494860000002,55.0,79.0
737,169.79569216250002,170.12339453750002,62.0,80.0
738,168.9848821625,170.43251585000002,43.0,79.0
739,170.20109716250002,170.4578536625,50.0,67.0
740,170.4037996625,170.67406966250002,62.0,81.0
741,170.4037996625,170.6774480375,55.0,81.0
742,170.8092046625,171.04062335,55.0,85.0
743,170.8092046625,171.05582603750003,62.0,82.0
744,170.8092046625,171.0693395375,67.0,76.0
745,171.2146096625,171.28724472500002,55.0,80.0
746,171.01190716250002,171.52710935000002,50.0,70.0
747,171.41731216250002,171.5997444125,55.0,82.0
748,171.41731216250002,171.63521735,62.0,80.0
749,171.6200146625,171.86494685000002,50.0,79.0
750,170.60650216250002,171.875081975,43.0,80.0
751,171.82271716250003,171.929135975,55.0,84.0
752,172.2281221625,172.5051489125,61.0,72.0
753,172.2281221625,172.56764885,58.0,70.0
754,172.6335271625,172.88183772500003,53.0,75.0
755,172.2281221625,173.25008060000002,46.0,81.0
756,173.0389321625,173.33622916250002,61.0,74.0
757,173.0389321625,173.37001291250002,65.0,77.0
758,173.0389321625,173.38014803750002,53.0,73.0
759,173.0389321625,173.39872910000003,58.0,77.0
760,173.64703966250002,173.9004177875,53.0,80.0
761,173.64703966250002,173.95953935,58.0,80.0
762,173.64703966250002,173.97305285000002,61.0,81.0
763,174.05244466250002,174.15717428750003,53.0,80.0
764,174.2551471625,174.43926860000002,58.0,80.0
765,174.2551471625,174.4443361625,53.0,79.0
766,174.2551471625,174.44771453750002,61.0,79.0
767,173.8497421625,174.496700975,46.0,70.0
768,174.6605521625,174.942646475,53.0,80.0
769,174.6605521625,174.9443356625,61.0,76.0
770,174.6605521625,174.95784916250003,46.0,79.0
771,174.6605521625,174.95784916250003,58.0,78.0
772,175.0659571625,175.341294725,53.0,80.0
773,175.0659571625,175.354808225,58.0,82.0
774,175.0659571625,175.36325416250003,61.0,80.0
775,175.0659571625,175.37170010000003,46.0,86.0
776,175.47136216250001,175.72136191250002,57.0,69.0
777,175.47136216250001,175.90210497500001,60.0,76.0
778,176.28217216250002,176.40379366250002,57.0,79.0
779,176.28217216250002,176.4510909125,65.0,80.0
780,175.87676716250002,176.9173066625,48.0,64.0
781,175.47136216250001,176.9510904125,41.0,80.0
782,176.8902796625,177.14534697500002,57.0,80.0
783,176.8902796625,177.27034685,60.0,82.0
784,177.49838716250002,177.7450085375,57.0,81.0
785,177.7010896625,177.80075172500003,60.0,80.0
786,177.2956846625,177.9848731625,48.0,67.0
787,177.90379216250003,178.0693325375,57.0,79.0
788,177.90379216250003,178.1132514125,60.0,84.0
789,177.90379216250003,178.1639270375,65.0,80.0
790,178.1064946625,178.233183725,48.0,78.0
791,177.09298216250002,178.2450080375,41.0,79.0
792,178.30919716250003,178.4257511,57.0,83.0
793,178.7146021625,179.071020725,61.0,73.0
794,178.7146021625,179.07439910000002,57.0,80.0
795,179.1200071625,179.6284526,52.0,61.0
796,179.5254121625,179.65885797500002,61.0,81.0
797,179.5254121625,179.66223635,64.0,83.0
798,179.5254121625,179.6740606625,57.0,78.0
799,178.7146021625,179.6909525375,45.0,80.0
800,180.13351966250002,180.388586975,61.0,81.0
801,180.13351966250002,180.39872210000001,57.0,79.0
802,180.13351966250002,180.43419503750002,69.0,78.0
803,180.7416271625,180.8429784125,57.0,81.0
804,180.94432966250002,181.21628885,64.0,82.0
805,180.94432966250002,181.2247347875,57.0,80.0
806,181.34973466250003,181.5591939125,61.0,83.0
807,180.3362221625,181.56257228750002,45.0,80.0
808,180.53892466250002,181.58115335000002,52.0,70.0
809,181.5524371625,181.66899110000003,57.0,80.0
810,181.95784216250001,182.32270666250002,58.0,77.0
811,181.95784216250001,182.40716603750002,62.0,79.0
812,182.76865216250002,182.91730066250003,58.0,80.0
813,182.76865216250002,182.95108441250002,62.0,80.0
814,182.76865216250002,182.96797628750002,65.0,66.0
815,181.95784216250001,183.34804347500003,46.0,79.0
816,182.36324716250002,183.3868947875,53.0,57.0
817,183.3767596625,183.64702966250002,58.0,82.0
818,183.3767596625,183.685880975,65.0,79.0
819,183.3767596625,183.69263772500003,62.0,80.0
820,183.98486716250002,184.0828400375,58.0,81.0
821,183.7821646625,184.3227046625,53.0,67.0
822,184.1875696625,184.6774340375,58.0,82.0
823,184.1875696625,184.73317722500002,62.0,81.0
824,184.39027216250003,184.9274337875,53.0,59.0
825,184.79567716250003,185.01189316250003,58.0,84.0
826,183.57946216250002,185.07101472500003,46.0,80.0
827,184.9983796625,185.11493360000003,62.0,74.0
828,185.20108216250003,185.67405466250003,55.0,80.0
829,186.0118921625,186.1402704125,59.0,80.0
830,186.0118921625,186.15378391250002,55.0,79.0
831,186.0118921625,186.1605406625,62.0,80.0
832,185.6064871625,186.604796975,50.0,66.0
833,185.20108216250003,186.61831047500002,43.0,80.0
834,186.61999966250002,186.89195885,67.0,79.0
835,186.61999966250002,186.93081016250002,55.0,80.0
836,187.2281071625,187.3328367875,55.0,80.0
837,187.02540466250002,187.46290422500002,50.0,65.0
838,187.43080966250002,187.60310678750002,65.0,75.0
839,187.43080966250002,187.61830947500002,59.0,75.0
840,187.43080966250002,187.6841877875,55.0,79.0
841,187.6335121625,187.89533622500002,50.0,75.0
842,187.83621466250003,187.98993072500002,55.0,80.0
843,187.83621466250003,188.0879036,62.0,81.0
844,188.0389171625,188.16053866250002,55.0,78.0
845,188.0389171625,188.1672954125,50.0,73.0
846,186.8227021625,188.17067378750002,43.0,80.0
847,188.44432216250001,188.79905153750002,57.0,75.0
848,188.44432216250001,188.82438935000002,53.0,74.0
849,189.25513216250002,189.35986178750002,60.0,79.0
850,189.25513216250002,189.381821225,53.0,77.0
851,188.84972716250002,189.84972616250002,48.0,57.0
852,188.44432216250001,189.87675316250002,41.0,78.0
853,189.8632396625,190.1233745375,57.0,79.0
854,189.8632396625,190.1301312875,60.0,79.0
855,190.47134716250002,190.56594166250002,53.0,78.0
856,190.2686446625,190.73148203750003,48.0,66.0
857,190.6740496625,190.9139142875,60.0,80.0
858,190.6740496625,190.94600885000003,53.0,79.0
859,191.0794546625,191.1909410375,53.0,81.0
860,190.06594216250002,191.2247247875,41.0,79.0
861,191.0794546625,191.22810316250002,57.0,82.0
862,190.87675216250003,191.24837341250003,48.0,72.0
863,191.6875621625,192.0963455375,57.0,68.0
864,191.6875621625,192.10985903750003,61.0,74.0
865,192.09296716250003,192.62337203750002,52.0,65.0
866,192.4983721625,192.672358475,61.0,82.0
867,192.4983721625,192.67742603750003,64.0,81.0
868,192.4983721625,192.68587197500003,57.0,77.0
869,191.6875621625,192.895331225,45.0,77.0
870,193.10647966250002,193.44938472500002,57.0,79.0
871,193.10647966250002,193.4797901,61.0,84.0
872,193.10647966250002,193.49330360000002,64.0,82.0
873,193.7145871625,193.81256003750002,57.0,81.0
874,193.51188466250002,193.93587072500003,52.0,71.0
875,193.91728966250002,194.1436407875,61.0,90.0
876,193.91728966250002,194.15884347500003,57.0,81.0
877,194.32269466250003,194.429113475,57.0,80.0
878,194.1199921625,194.43418103750003,52.0,75.0
879,193.3091821625,194.5473566,45.0,77.0
880,194.32269466250003,194.5997214125,64.0,81.0
881,194.5253971625,194.652086225,57.0,76.0
882,194.93080216250002,195.30411260000002,58.0,80.0
883,194.93080216250002,195.32945041250002,62.0,79.0
884,194.93080216250002,195.8159364125,46.0,80.0
885,195.33620716250002,195.8497201625,53.0,64.0
886,195.74161216250002,196.01863891250002,65.0,79.0
887,195.74161216250002,196.04059835,58.0,88.0
888,196.3497196625,196.58113835,58.0,83.0
889,196.3497196625,196.63519235,62.0,83.0
890,196.95782716250002,197.07944866250003,58.0,84.0
891,196.7551246625,197.2365431,53.0,72.0
892,197.1605296625,197.35309703750002,58.0,70.0
893,197.1605296625,197.38181322500003,62.0,83.0
894,196.55242216250002,197.60140760000002,46.0,74.0
895,197.36323216250003,197.61323191250003,53.0,74.0
896,197.5659346625,197.7112047875,58.0,84.0
897,197.5659346625,197.79904253750001,62.0,82.0
898,197.5659346625,197.84296141250002,65.0,79.0
899,197.76863716250003,197.87167760000003,46.0,78.0
900,198.17404216250003,198.5557985375,59.0,78.0
901,198.17404216250003,198.5625552875,55.0,75.0
902,198.9848521625,199.287216725,55.0,83.0
903,198.9848521625,199.30073022500002,62.0,85.0
904,198.9848521625,199.31086535000003,59.0,86.0
905,198.17404216250003,199.60309478750003,43.0,79.0
906,198.5794471625,199.64363528750002,50.0,68.0
907,199.59295966250002,199.86829722500002,62.0,86.0
908,199.59295966250002,199.89363503750002,55.0,84.0
909,200.2010671625,200.2956616625,55.0,81.0
910,199.99836466250002,200.42910747500002,50.0,73.0
911,200.40376966250003,200.6470126625,55.0,80.0
912,200.40376966250003,200.6470126625,62.0,82.0
913,200.40376966250003,200.66052616250002,59.0,85.0
914,200.6064721625,200.90883672500001,50.0,78.0
915,199.7956621625,200.9409312875,43.0,80.0
916,200.80917466250003,200.942620475,59.0,90.0
917,200.80917466250003,200.95275560000002,62.0,84.0
918,200.80917466250003,200.9578231625,55.0,83.0
919,201.41728216250002,201.6740386625,53.0,76.0
920,201.41728216250002,201.90883572500002,61.0,71.0
921,201.82268716250002,202.08451122500003,53.0,75.0
922,202.22809216250002,202.39194335000002,58.0,82.0
923,201.41728216250002,202.40883522500002,46.0,81.0
924,202.22809216250002,202.45951085000002,61.0,81.0
925,202.4307946625,202.5608621,53.0,82.0
926,202.63349716250002,204.0861984125,53.0,63.0
927,202.63349716250002,204.0861984125,58.0,63.0
928,205.06592716250003,205.56254828750002,48.0,55.0
929,205.4713321625,206.30410160000002,53.0,79.0
930,205.8767371625,206.3699799125,48.0,51.0
931,206.2821421625,206.58619591250002,57.0,71.0
932,206.6875471625,207.25680335,48.0,46.0
933,207.0929521625,207.26018172500002,53.0,67.0
934,204.6605221625,207.3581546,41.0,76.0
935,207.0929521625,207.39193835000003,60.0,73.0
936,208.30916716250002,208.79396397500003,52.0,54.0
937,207.90376216250002,208.8294369125,61.0,71.0
938,208.71457216250002,209.23315272500002,57.0,52.0
939,209.11997716250002,209.7770711,52.0,50.0
940,209.52538216250002,209.9527466,64.0,78.0
941,209.93078716250002,210.17571935,57.0,75.0
942,210.33619216250003,210.55071897500002,61.0,72.0
943,207.90376216250002,210.6740296625,45.0,71.0
944,210.7415971625,211.13686703750002,57.0,53.0
945,211.14700216250003,212.0355147875,62.0,71.0
946,211.5524071625,212.05071747500003,53.0,57.0
947,211.95781216250003,212.81085185,58.0,68.0
948,212.7686221625,213.19260822500001,65.0,71.0
949,213.5794321625,213.69598610000003,58.0,63.0
950,212.3632171625,213.7078104125,53.0,41.0
951,213.5794321625,213.77031035000002,62.0,73.0
952,211.14700216250003,213.78720222500002,46.0,66.0
953,214.79564716250002,215.4645654125,50.0,56.0
954,215.20105216250002,216.01861891250002,59.0,71.0
955,215.60645716250002,216.11321341250002,50.0,53.0
956,216.01186216250002,216.37165910000002,62.0,68.0
957,216.41726716250002,216.94260447500002,50.0,39.0
958,216.82267216250003,216.9797666,55.0,69.0
959,214.39024216250002,217.1284151,43.0,76.0
960,216.82267216250003,217.50172553750002,59.0,70.0
961,217.22807716250003,217.6267254125,55.0,66.0
962,218.03888716250003,218.53550828750002,48.0,55.0
963,218.4442921625,219.27706160000002,53.0,79.0
964,218.8496971625,219.34293991250001,48.0,51.0
965,219.2551021625,219.55915591250002,57.0,71.0
966,219.6605071625,220.22976335,48.0,46.0
967,220.0659121625,220.23314172500002,53.0,67.0
968,217.6334821625,220.33111460000003,41.0,76.0
969,220.0659121625,220.36489835000003,60.0,73.0
970,221.28212716250002,221.76692397500003,52.0,54.0
971,220.87672216250002,221.8023969125,61.0,71.0
972,221.68753216250002,222.20611272500003,57.0,52.0
973,222.09293716250002,222.7500311,52.0,50.0
974,222.49834216250002,222.9257066,64.0,78.0
975,222.90374716250003,223.14867935,57.0,75.0
976,223.30915216250003,223.52367897500002,61.0,72.0
977,220.87672216250002,223.6469896625,45.0,71.0
978,223.7145571625,224.10982703750003,57.0,53.0
979,224.11996216250003,225.0084747875,62.0,71.0
980,224.5253671625,225.02367747500003,53.0,57.0
981,224.93077216250003,225.78381185,58.0,68.0
982,225.7415821625,226.16556822500002,65.0,71.0
983,226.5523921625,226.66894610000003,58.0,63.0
984,225.3361771625,226.6807704125,53.0,41.0
985,226.5523921625,226.74327035000002,62.0,73.0
986,224.11996216250003,226.76016222500002,46.0,66.0
987,227.76860716250002,228.4375254125,50.0,56.0
988,228.17401216250002,228.99157891250002,59.0,71.0
989,228.57941716250002,229.08617341250002,50.0,53.0
990,228.98482216250002,229.34461910000002,62.0,68.0
991,229.39022716250003,229.91556447500002,50.0,39.0
992,229.79563216250003,229.9527266,55.0,69.0
993,227.36320216250002,230.1013751,43.0,76.0
994,229.79563216250003,230.47468553750002,59.0,70.0
995,230.20103716250003,230.5996854125,55.0,66.0
996,231.09461735000002,231.62164385000003,50.0,65.0
997,230.64022591250003,231.77704910000003,43.0,65.0
998,231.60137360000002,231.88515710000001,55.0,66.0
999,232.59461585000003,234.07434410000002,48.0,70.0
1000,232.61150772500002,234.09123597500002,53.0,65.0
1001,232.41218360000002,234.11150622500003,41.0,59.0
1002,232.86150747500002,234.11826297500002,60.0,51.0
1003,232.73481841250003,234.1368440375,57.0,50.0
