,start,end,pitch,velocity
0,18.24484795,18.554716866666666,65.0,93.0
1,18.80611995,19.078570733333333,65.0,93.0
2,19.08675595,19.292555683333333,63.0,93.0
3,19.36739195,19.59190075,67.0,93.0
4,19.92866395,20.256072616666668,67.0,93.0
5,20.48993595,20.56711085,65.0,93.0
6,20.77057195,20.853593433333334,65.0,93.0
7,21.05120795,21.2160816,65.0,93.0
8,21.33184395,21.527119833333334,63.0,93.0
9,21.61247995,22.139841766666667,67.0,93.0
10,22.73502395,23.044892866666665,65.0,93.0
11,23.29629595,23.568746733333334,65.0,93.0
12,23.57693195,23.78273168333333,63.0,93.0
13,23.85756795,24.08207675,67.0,93.0
14,24.41883995,24.746248616666666,67.0,93.0
15,24.980111949999998,25.05728685,65.0,93.0
16,25.26074795,25.343769433333332,65.0,93.0
17,25.54138395,25.7062576,65.0,93.0
18,25.822019949999998,26.017295833333332,63.0,93.0
19,26.10265595,26.630017766666665,67.0,93.0
20,27.22519995,27.492973466666665,65.0,93.0
21,27.505835949999998,27.784133316666665,67.0,93.0
22,27.78647195,28.0706159,65.0,93.0
23,28.06710795,28.345405316666668,63.0,93.0
24,28.347743949999998,28.87393645,60.0,93.0
25,28.892645516666665,29.47730385,58.0,93.0
26,29.479642483333333,29.75793985,65.0,93.0
27,29.75092395,30.029221316666664,67.0,93.0
28,30.03155995,30.3157039,65.0,93.0
29,30.31219595,30.590493316666667,63.0,93.0
30,30.602186483333334,31.12837898333333,60.0,93.0
31,31.14708805,31.7329157,58.0,93.0
32,31.71537595,31.993673316666666,65.0,93.0
33,31.985488099999998,32.26378546666667,67.0,93.0
34,32.2661241,32.55143736666667,65.0,93.0
35,32.5467601,32.825057466666664,63.0,93.0
36,32.83791995,33.36411245,60.0,93.0
37,33.38282151666667,33.96747985,58.0,93.0
38,33.96046395,34.09844331666667,65.0,93.0
39,34.24109995,34.37907931666667,65.0,93.0
40,34.52173595,34.80003331666666,65.0,93.0
41,34.80237195,35.080669316666665,63.0,93.0
42,35.08300795,35.705084416666665,67.0,93.0
43,36.20555195,36.624167316666664,65.0,93.0
44,36.766823949999996,37.03927473333333,65.0,93.0
45,37.04745995,37.27781533333333,63.0,93.0
46,37.32809595,37.74671131666667,67.0,93.0
47,37.88936795,38.354755983333334,67.0,93.0
48,38.450639949999996,38.6014818,65.0,93.0
49,38.73127595,38.87159395,65.0,93.0
50,39.01191195,39.312426333333335,65.0,93.0
51,39.29254795,39.514718116666664,63.0,93.0
52,39.57318395,40.132117316666665,67.0,93.0
53,40.69572795,41.11434331666666,65.0,93.0
54,41.25699995,41.529450733333334,65.0,93.0
55,41.53763595,41.767991333333335,63.0,93.0
56,41.818271949999996,42.23688731666667,67.0,93.0
57,42.37954395,42.84493198333333,67.0,93.0
58,42.94081595,43.0916578,65.0,93.0
59,43.22145195,43.361769949999996,65.0,93.0
60,43.502087949999996,43.80260233333333,65.0,93.0
61,43.78272395,44.00489411666666,63.0,93.0
62,44.06335995,44.62229331666666,67.0,93.0
63,45.18590395,45.45367746666667,65.0,93.0
64,45.46653995,45.74483731666667,67.0,93.0
65,45.74717595,46.0313199,65.0,93.0
66,46.02781195,46.306109316666664,63.0,93.0
67,46.30844795,46.83464045,60.0,93.0
68,46.85334951666667,47.43800785,58.0,93.0
69,47.44034648333333,47.71864385,65.0,93.0
70,47.71162795,47.989925316666664,67.0,93.0
71,47.99226395,48.276407899999995,65.0,93.0
72,48.272899949999996,48.551197316666666,63.0,93.0
73,48.562890483333334,49.089082983333334,60.0,93.0
74,49.10779205,49.6936197,58.0,93.0
75,49.67607995,49.954377316666665,65.0,93.0
76,49.9461921,50.22448946666667,67.0,93.0
77,50.2268281,50.51214136666667,65.0,93.0
78,50.5074641,50.78576146666666,63.0,93.0
79,50.79862395,51.32481645,60.0,93.0
80,51.343525516666666,51.928183849999996,58.0,93.0
81,51.92116795,52.33978331666667,70.0,95.0
82,52.48243995,52.901055316666664,70.0,95.0
83,53.043711949999995,53.322009316666666,63.0,95.0
84,53.324347949999996,53.60264531666667,65.0,95.0
85,53.60498395,53.88328131666667,67.0,95.0
86,53.88561995,54.16391731666666,70.0,95.0
87,54.16625595,55.28646131666667,72.0,93.0
88,55.85007195,56.068734166666665,67.0,93.0
89,56.13070795,57.01237271666667,65.0,93.0
90,57.53388795,57.750211533333335,63.0,93.0
91,57.81452395,58.12790081666667,65.0,93.0
92,58.095159949999996,58.33954713333333,67.0,93.0
93,58.37579595,58.6459081,72.0,93.0
94,58.65643195,60.29230596666667,70.0,93.0
95,60.34024795,60.640762333333335,65.0,93.0
96,60.62088395,60.89918131666666,63.0,93.0
97,60.90151995,61.999508299999995,60.0,93.0
98,62.02406395,62.25675796666666,58.0,93.0
99,62.30469995,62.58299731666666,60.0,93.0
100,62.612230233333335,63.153623849999995,70.0,93.0
101,63.17350223333333,63.675139083333335,68.0,93.0
102,63.73477423333333,63.98266936666666,67.0,93.0
103,64.01541023333333,64.54160273333333,68.0,95.0
104,64.57668223333333,64.85264096666667,67.0,95.0
105,64.85731823333333,65.4162516,68.0,95.0
106,65.41859023333333,65.69454896666666,67.0,95.0
107,65.69922623333333,66.2581596,68.0,95.0
108,66.54113423333334,66.8264475,67.0,95.0
109,66.82177023333332,67.05212561666667,65.0,95.0
110,67.10240623333333,67.3807036,63.0,95.0
111,67.38304223333333,68.60965541666667,67.0,95.0
112,69.06685823333333,69.56615645,68.0,86.0
113,69.62813023333334,70.76587535,70.0,92.0
114,71.03131023333333,71.30960759999999,63.0,95.0
115,71.31194623333333,71.5902436,65.0,95.0
116,71.59258223333333,71.8711179,67.0,95.0
117,71.87347639166667,72.1541369,70.0,95.0
118,72.15649539166667,73.2862129,72.0,95.0
119,73.85460939166667,74.0751283625,67.0,95.0
120,74.13762839166667,75.02677975,65.0,95.0
121,75.55272339166666,75.77088387083333,63.0,95.0
122,75.83574239166667,76.151780275,65.0,95.0
123,76.11876139166667,76.36522377083334,67.0,95.0
124,76.40178039166666,76.67418617916667,72.0,95.0
125,76.68479939166667,78.3345643125,70.0,95.0
126,78.38291339166666,78.68597957083334,65.0,95.0
127,78.66593239166667,78.9465929,63.0,95.0
128,78.94895139166667,80.05626322916666,60.0,95.0
129,80.08102739166667,80.3156973125,58.0,95.0
130,80.36404639166666,80.6447069,60.0,95.0
131,80.64706539166667,81.1930562125,70.0,95.0
132,81.21310339166666,81.71899985416667,68.0,95.0
133,81.77914139166667,82.02914150833334,67.0,95.0
134,82.06216039166667,82.59282101666666,68.0,95.0
135,82.62819839166667,82.90650040833333,67.0,95.0
136,82.91121739166667,83.4748969,68.0,95.0
137,83.47725539166667,83.75555740833333,67.0,95.0
138,83.76027439166667,84.3239539,68.0,95.0
139,84.32631239166668,84.61168988333334,67.0,95.0
140,84.60933139166667,84.89942586666666,65.0,95.0
141,84.89235039166667,85.15060522916667,63.0,95.0
142,85.17536939166666,85.3605109875,60.0,95.0
143,85.45838839166667,85.58456769583333,63.0,95.0
144,85.74140739166667,86.8711249,63.0,95.0
145,112.67416997083333,112.98904573125,65.0,95.0
146,113.24451097083333,113.52248466666666,65.0,93.0
147,113.52959366666666,113.73812433333332,63.0,93.0
148,113.81395366666666,114.04144166666666,67.0,93.0
149,114.38267366666666,114.71442699999999,67.0,93.0
150,114.95139366666666,115.02959266666666,65.0,93.0
151,115.23523686249999,115.31794875624999,65.0,93.0
152,115.51482636249999,115.67908519374998,65.0,93.0
153,115.79441586249999,115.9901285125,63.0,93.0
154,116.07400536249999,116.59940063124999,67.0,93.0
155,117.19236336249999,117.50107676874998,65.0,93.0
156,117.75154236249999,118.02414212499998,65.0,93.0
157,118.03113186249999,118.23616416249999,63.0,93.0
158,118.31072136249999,118.5343929625,67.0,93.0
159,118.86990036249999,119.1960881125,67.0,93.0
160,119.42907936249999,119.505966475,65.0,93.0
161,119.70866886249999,119.79138075624999,65.0,93.0
162,119.98825836249999,120.15251719374999,65.0,93.0
163,120.26784786249999,120.46356051249998,63.0,93.0
164,120.54743736249999,121.07283263124998,67.0,93.0
165,121.66579536249999,121.93257034374999,65.0,93.0
166,121.94538486249999,122.22264444999999,67.0,93.0
167,122.22497436249999,122.50805873124999,65.0,93.0
168,122.50456386249999,122.78182344999999,63.0,93.0
169,122.78415336249999,123.30838367499999,60.0,93.0
170,123.32702297499999,123.91066605625,58.0,93.0
171,123.91299596874998,124.19025555625,65.0,93.0
172,124.1821008625,124.45936044999999,67.0,93.0
173,124.4616903625,124.74477473124999,65.0,93.0
174,124.7412798625,125.01853944999999,63.0,93.0
175,125.03135396874998,125.55558428124999,60.0,93.0
176,125.57422358124998,126.15670170624999,58.0,93.0
177,126.13922736249998,126.41648694999999,65.0,93.0
178,126.40833225624999,126.68559184374999,67.0,93.0
179,126.68792175624999,126.97217108124998,65.0,93.0
180,126.96751125624999,127.24477084374999,63.0,93.0
181,127.25758536249998,127.78181567499999,60.0,93.0
182,127.800454975,128.38409805625,58.0,93.0
183,128.37594336249998,128.5134082,65.0,93.0
184,128.6555328625,128.7929977,65.0,93.0
185,128.93512236249998,129.2127516,65.0,93.0
186,129.21511231666665,129.4960376,63.0,93.0
187,129.49839831666665,130.12752930833332,67.0,93.0
188,130.63154231666664,131.05411059999997,65.0,93.0
189,131.19811431666665,131.47313780833332,65.0,93.0
190,131.48140031666665,131.7139309083333,63.0,93.0
191,131.76468631666665,132.1872546,67.0,93.0
192,132.33125831666663,132.80222129166665,67.0,93.0
193,132.89783031666664,133.05009654166665,65.0,93.0
194,133.18111631666665,133.32275931666663,65.0,93.0
195,133.46440231666665,133.76893476666666,65.0,93.0
196,133.74768831666665,133.97195639999998,63.0,93.0
197,134.03097431666666,134.59518559999998,67.0,93.0
198,135.16411831666665,135.58668659999998,65.0,93.0
199,135.73069031666665,136.00571380833333,65.0,93.0
200,136.01397631666666,136.24650690833332,63.0,93.0
201,136.29726231666666,136.71983059999997,67.0,93.0
202,136.86383431666664,137.33479729166663,67.0,93.0
203,137.43040631666665,137.58267254166665,65.0,93.0
204,137.71369231666665,137.85533531666664,65.0,93.0
205,137.99697831666666,138.30151076666664,65.0,93.0
206,138.28026431666666,138.5045324,63.0,93.0
207,138.56355031666664,139.12776159999999,67.0,93.0
208,139.69669431666665,139.96668431249998,65.0,93.0
209,139.97943940833332,140.2554133,67.0,93.0
210,140.2577324083333,140.53950407083332,65.0,93.0
211,140.53602540833333,140.8119993,63.0,93.0
212,140.81431840833332,141.33611778333332,60.0,93.0
213,141.35467064999997,141.93560728749998,58.0,93.0
214,141.93792639583333,142.2139002875,65.0,93.0
215,142.20578340833333,142.4817573,67.0,93.0
216,142.48407640833332,142.76584807083333,65.0,93.0
217,142.7623694083333,143.03834329999998,63.0,93.0
218,143.05109839583332,143.57289777083332,60.0,93.0
219,143.59145063749997,144.17122772083331,58.0,93.0
220,144.15383440833332,144.4298083,65.0,93.0
221,144.42169142083333,144.6976653125,67.0,93.0
222,144.69998442083332,144.98291563749999,65.0,93.0
223,144.9782774208333,145.2542513125,63.0,93.0
224,145.26700640833332,145.78880578333332,60.0,93.0
225,145.80735865,146.3882952875,58.0,93.0
226,146.38017840833334,146.79529879999998,70.0,93.0
227,146.93676440833332,147.3518848,70.0,93.0
228,147.49335040833333,147.7693243,63.0,93.0
229,147.77164340833332,148.04761729999998,65.0,93.0
230,148.0499364083333,148.32591029999998,67.0,93.0
231,148.32822940833333,148.6042033,70.0,93.0
232,148.60652240833332,149.7173753,72.0,93.0
233,150.27628040833332,150.49311703749999,67.0,93.0
234,150.5545734083333,151.42887725,65.0,93.0
235,151.94603840833332,152.16055592916666,63.0,93.0
236,152.2243314083333,152.535091925,65.0,93.0
237,152.50262440833333,152.74497122916665,67.0,93.0
238,152.78091740833332,153.04877442083333,72.0,93.0
239,153.0592104083333,154.695174375,70.0,93.0
240,154.74320621666666,155.04428385833333,65.0,93.0
241,155.02436821666666,155.3031872,63.0,93.0
242,155.30553021666665,156.40557654166665,60.0,93.0
243,156.43017821666666,156.66330837499999,58.0,93.0
244,156.71134021666666,156.9901592,60.0,93.0
245,156.99250221666665,157.534910575,70.0,93.0
246,157.55482621666664,158.05740329166665,68.0,93.0
247,158.11715021666666,158.3655099833333,67.0,93.0
248,158.39831221666665,158.92549096666664,68.0,93.0
249,158.96063621666664,159.23711218333332,67.0,93.0
250,159.24179821666664,159.8017792,68.0,93.0
251,159.80412221666666,160.0805981833333,67.0,93.0
252,160.08528421666665,160.64526519999998,68.0,93.0
253,160.92877021666666,161.21461824999997,67.0,93.0
254,161.20993221666666,161.44071935833333,65.0,93.0
255,161.49109421666665,161.7699132,63.0,93.0
256,161.77225621666665,163.00116845833332,67.0,93.0
257,163.45922821666665,163.931346075,68.0,84.0
258,164.02155221666666,164.96461642499997,70.0,80.0
259,165.42736221666667,165.70618119999997,63.0,93.0
260,165.70852421666666,165.9873432,65.0,93.0
261,165.98968621666666,166.2685052,67.0,93.0
262,166.27084821666665,166.5496672,70.0,93.0
263,166.55201021666664,167.6654213,72.0,95.0
264,168.22432640833333,168.4411630375,67.0,95.0
265,168.50261940833332,169.37692324999998,65.0,97.0
266,169.89408440833333,170.10860192916664,63.0,97.0
267,170.17237740833332,170.483137925,65.0,97.0
268,170.4506704083333,170.69301722916666,67.0,97.0
269,170.72896340833333,170.99682042083333,72.0,97.0
270,171.00725640833332,171.56998614999998,70.0,97.0
271,171.85835587083332,172.57928017291664,70.0,92.0
272,172.7163153708333,173.02255924791663,65.0,97.0
273,173.00230187083332,173.28590515,63.0,97.0
274,173.2882883708333,174.4072105520833,60.0,97.0
275,174.4322343708333,174.66936484374997,58.0,97.0
276,174.7182208708333,175.00182414999998,60.0,97.0
277,175.0042073708333,175.55592299375,70.0,97.0
278,175.5761803708333,176.08738123958332,68.0,97.0
279,176.1481533708333,176.40077477916665,67.0,97.0
280,176.43413987083332,176.9703645583333,68.0,97.0
281,177.0061128708333,177.28733292916664,67.0,97.0
282,177.2920993708333,177.86168915,68.0,97.0
283,177.8640723708333,178.14529242916666,67.0,97.0
284,178.1500588708333,178.71964864999998,68.0,97.0
285,178.72203187083332,179.01040159166664,67.0,97.0
286,179.0080183708333,179.30115453333332,65.0,95.0
287,179.2940048708333,179.55496755208333,63.0,95.0
288,179.5799913708333,179.76707420625,60.0,95.0
289,179.86597787083332,179.99348018541664,63.0,95.0
290,180.1519643708333,181.27289044999998,63.0,95.0
291,196.89090111874998,197.16790287291664,63.0,95.0
292,197.17023061874997,197.44723237291663,65.0,95.0
293,197.44956011875,197.7265828333333,67.0,95.0
294,197.7289525,198.01094283333333,70.0,95.0
295,198.01331249999998,199.14838283333333,72.0,95.0
296,199.7194725,199.94103633333333,67.0,95.0
297,200.0038325,200.8971968333333,65.0,93.0
298,201.42563249999998,201.64482666666666,63.0,93.0
299,201.7099925,202.02752783333332,65.0,93.0
300,201.9943525,202.24198266666664,67.0,93.0
301,202.27871249999998,202.55240899999998,72.0,93.0
302,202.56307249999998,203.9825028333333,70.0,93.0
303,203.9848725,204.2668628333333,58.0,93.0
304,204.2692325,204.57373466666664,65.0,93.0
305,204.55359249999998,204.83558283333332,63.0,93.0
306,204.83795249999997,205.95051099999998,60.0,93.0
307,205.9753925,206.21117433333333,58.0,93.0
308,206.25956424375,206.52661958124997,60.0,93.0
309,206.52886374374998,207.05734355416666,70.0,93.0
310,207.07709263125,207.57546639999998,68.0,93.0
311,207.63471363124998,207.8809962395833,67.0,93.0
312,207.91352413125,208.43513210833333,68.0,93.0
313,208.47114513124998,208.74414707916665,67.0,93.0
314,208.74995563124997,209.30525321041665,68.0,93.0
315,209.30757663125,209.58057857916666,67.0,93.0
316,209.58638713124998,210.14168471041665,68.0,93.0
317,210.42281863124998,210.70627597291664,67.0,93.0
318,210.70162913125,210.92932437291665,65.0,93.0
319,210.98043963125,211.25692671041665,63.0,93.0
320,211.25925013124998,212.4778843583333,67.0,93.0
321,212.91004063333332,213.3189627,68.0,80.0
322,213.46301479166667,214.39702996666665,70.0,104.0
323,214.88378663125,215.16027371041665,63.0,95.0
324,215.16259713124998,215.43908421041667,65.0,95.0
325,215.44140763125,215.71789471041666,67.0,95.0
326,215.72021813125,215.99670521041665,70.0,95.0
327,215.99902863124998,217.11194721041664,72.0,95.0
328,217.67189163125,217.88913147916665,67.0,95.0
329,217.95070213124998,218.82663178541665,65.0,95.0
330,219.34928607499998,219.56765236666666,63.0,98.0
331,219.63257207499998,219.9489081083333,65.0,98.0
332,219.915858075,220.16255296666665,67.0,98.0
333,220.199144075,220.47180684999998,72.0,98.0
334,220.482430075,221.04664135833332,70.0,98.0
335,221.33228807499998,222.13375138333333,70.0,98.0
336,222.182146075,222.48549816666664,65.0,98.0
337,222.465432075,222.7463573583333,63.0,98.0
338,222.748718075,223.85707455,60.0,98.0
339,223.881862075,224.11675338333333,58.0,98.0
340,224.165148075,224.4460733583333,60.0,98.0
341,224.448434075,224.99493998333332,70.0,98.0
342,225.015006075,225.52137979999998,68.0,97.0
343,225.58157807499998,225.83181404166666,67.0,97.0
344,225.86486407499999,226.39484496666665,68.0,97.0
345,226.431436075,226.70882028333332,67.0,97.0
346,226.714722075,227.27893335833332,68.0,97.0
347,227.28129407499998,227.55867828333334,67.0,97.0
348,227.56458007499998,228.12879135833333,68.0,97.0
349,228.131152075,228.41679879166665,67.0,97.0
350,228.414438075,228.704806225,65.0,97.0
351,228.697724075,228.95622254999998,63.0,97.0
352,228.981010075,229.165145975,60.0,97.0
353,229.26429607499998,229.39059441666666,63.0,97.0
354,229.54758207499998,230.6783653583333,63.0,97.0
