,start,end,pitch,velocity
0,9.550978533333334,9.956731416666667,51.0,53.0
1,9.844477016666666,10.466553483333334,58.0,84.0
2,9.8503236,10.4747387,63.0,56.0
3,9.852662233333334,10.491109133333334,55.0,75.0
4,10.153176616666666,10.795131466666666,51.0,53.0
5,10.707432716666666,11.024317533333333,58.0,89.0
6,10.710940666666666,11.026656166666667,63.0,89.0
7,10.714448616666667,11.0360107,55.0,84.0
8,9.266834583333333,11.363419366666667,39.0,89.0
9,10.972867599999999,11.418377249999999,51.0,49.0
10,11.262858133333333,11.507245316666666,58.0,89.0
11,11.259350183333334,11.527123699999999,63.0,75.0
12,11.2675354,11.542324816666666,55.0,89.0
13,11.815944916666666,12.23923755,51.0,45.0
14,12.09891955,12.6356359,63.0,89.0
15,12.108274083333333,12.646159749999999,55.0,89.0
16,12.104766133333333,12.648498383333333,58.0,89.0
17,12.373708966666666,13.023849033333333,51.0,34.0
18,12.9443355,13.220294233333332,63.0,75.0
19,12.947843449999999,13.222632866666666,58.0,89.0
20,12.952520716666667,13.237833983333333,55.0,89.0
21,11.539986183333333,13.325532733333333,39.0,89.0
22,13.195738583333332,13.55121085,51.0,53.0
23,13.470528,13.634232333333333,55.0,68.0
24,13.478713216666666,13.64943345,63.0,75.0
25,13.47403595,13.654110716666667,58.0,89.0
26,14.008413666666666,14.394288166666666,56.0,30.0
27,13.7160845,14.836289866666666,44.0,75.0
28,14.2984042,14.860845516666666,68.0,62.0
29,14.289049666666667,14.86318415,63.0,89.0
30,14.590733366666667,14.869030733333332,56.0,42.0
31,14.293726933333334,14.892417066666667,60.0,84.0
32,15.155513316666667,15.499292416666666,63.0,89.0
33,15.159021266666667,15.500461733333333,68.0,68.0
34,15.149666733333333,15.509816266666666,60.0,84.0
35,15.440826583333333,15.864119216666666,56.0,62.0
36,15.734325066666667,15.885166916666666,68.0,53.0
37,15.730817116666666,15.895690766666666,60.0,68.0
38,15.72613985,15.909722566666666,63.0,89.0
39,16.0383474,18.035540266666665,44.0,89.0
40,16.1856813,18.040217533333333,68.0,62.0
41,16.10032118333333,18.04840275,63.0,27.0
42,16.191527883333332,18.0519107,56.0,45.0
43,16.066411,18.060095916666665,60.0,49.0
44,18.552378233333332,18.9990572,51.0,53.0
45,18.833014233333333,19.47964635,58.0,75.0
46,18.833014233333333,19.489000883333333,63.0,53.0
47,18.833014233333333,19.50069405,55.0,68.0
48,19.11365023333333,19.777822099999998,51.0,30.0
49,19.674922233333334,20.0093468,63.0,75.0
50,19.674922233333334,20.017532016666667,55.0,75.0
51,19.674922233333334,20.018701333333333,58.0,84.0
52,18.271742233333335,20.406914466666667,39.0,89.0
53,19.95555823333333,20.526184766666667,51.0,45.0
54,20.236194233333332,20.547232466666667,58.0,68.0
55,20.236194233333332,20.556587,63.0,56.0
56,20.236194233333332,20.620899416666667,55.0,62.0
57,20.79746623333333,21.200880483333332,51.0,45.0
58,21.078102233333333,21.68965485,58.0,68.0
59,21.078102233333333,21.695501433333334,63.0,56.0
60,21.078102233333333,21.718887766666665,55.0,75.0
61,21.358738233333334,22.052143016666665,51.0,19.0
62,21.920010233333333,22.2263712,58.0,89.0
63,21.920010233333333,22.24391095,63.0,68.0
64,21.920010233333333,22.256773433333333,55.0,89.0
65,20.516830233333334,22.564303716666664,39.0,75.0
66,22.200646233333334,22.652002466666666,51.0,53.0
67,22.48128223333333,22.7525637,58.0,62.0
68,22.48128223333333,22.7806273,63.0,53.0
69,22.48128223333333,22.804013633333334,55.0,68.0
70,23.042554233333334,23.469354816666666,51.0,56.0
71,23.32319023333333,23.909017883333334,58.0,75.0
72,23.32319023333333,23.914864466666668,63.0,56.0
73,23.32319023333333,23.9312349,55.0,68.0
74,23.603826233333333,24.231749283333333,51.0,38.0
75,24.16509823333333,24.4995228,63.0,62.0
76,24.16509823333333,24.500692116666666,58.0,68.0
77,24.16509823333333,24.511215966666665,55.0,75.0
78,22.761918233333333,24.812899666666667,39.0,89.0
79,24.445734233333333,24.88890525,51.0,45.0
80,24.726370233333334,25.038577783333334,58.0,62.0
81,24.726370233333334,25.073657283333333,63.0,45.0
82,24.726370233333334,25.091197033333334,55.0,56.0
83,25.287642233333333,25.7202894,51.0,62.0
84,25.568278233333334,25.985724283333333,63.0,45.0
85,25.568278233333334,25.995078816666666,58.0,62.0
86,25.568278233333334,26.06757645,55.0,62.0
87,25.848914233333332,26.473329333333332,51.0,25.0
88,26.410186233333334,26.732917633333333,63.0,53.0
89,26.410186233333334,26.745780116666666,58.0,62.0
90,26.410186233333334,26.7516267,55.0,68.0
91,25.007006233333332,26.90948445,39.0,75.0
92,26.690822233333332,27.0462945,51.0,45.0
93,26.971458233333333,27.143347783333333,58.0,56.0
94,26.971458233333333,27.1585489,63.0,53.0
95,26.971458233333333,27.159718216666665,55.0,53.0
96,27.532730233333332,27.988763733333332,56.0,27.0
97,27.813366233333333,28.141944216666666,68.0,30.0
98,27.813366233333333,28.157145333333332,63.0,38.0
99,27.813366233333333,28.166499866666665,60.0,28.0
100,28.09400223333333,28.7371264,56.0,27.0
101,28.655274233333333,29.05634985,68.0,53.0
102,28.655274233333333,29.072720283333332,60.0,68.0
103,28.655274233333333,29.073889599999998,63.0,75.0
104,27.25209423333333,29.345171066666666,44.0,34.0
105,28.93591023333333,29.366218766666666,56.0,34.0
106,29.216546233333332,29.42819255,68.0,32.0
107,29.216546233333332,29.480811799999998,63.0,45.0
108,29.216546233333332,29.48431975,60.0,42.0
109,29.77781823333333,30.22098925,56.0,89.0
110,30.058454233333332,30.615048966666667,68.0,89.0
111,30.058454233333332,30.637265983333332,63.0,89.0
112,30.058454233333332,30.667668216666666,60.0,89.0
113,30.339090233333334,30.913224716666665,56.0,89.0
114,30.900362233333333,31.150596,68.0,89.0
115,30.900362233333333,31.200876616666665,60.0,89.0
116,30.900362233333333,31.20321525,63.0,89.0
117,29.497182233333334,31.5434864,44.0,89.0
118,31.180998233333334,31.607798816666666,56.0,89.0
119,31.46163423333333,31.742270233333333,68.0,89.0
120,31.46163423333333,31.77851905,63.0,89.0
121,31.46163423333333,31.80658265,60.0,89.0
122,32.02290623333333,32.44619886666666,56.0,89.0
123,32.30354223333333,32.89287783333333,68.0,45.0
124,32.30354223333333,32.90807895,63.0,84.0
125,32.30354223333333,32.92678801666666,60.0,68.0
126,32.58417823333333,33.198069483333335,56.0,15.0
127,33.145450233333335,33.44830325,68.0,56.0
128,33.145450233333335,33.45531915,60.0,75.0
129,33.145450233333335,33.4588271,63.0,89.0
130,31.742270233333333,33.81429936666667,44.0,89.0
131,33.42608623333333,33.84119365,56.0,56.0
132,33.70672223333333,33.86341066666667,68.0,38.0
133,33.70672223333333,33.876273149999996,60.0,56.0
134,33.70672223333333,33.88211973333333,63.0,62.0
135,34.26799423333333,34.642175566666666,56.0,53.0
136,34.548630233333334,34.87019231666667,68.0,53.0
137,34.548630233333334,34.90877976666667,63.0,84.0
138,34.548630233333334,34.940351316666664,60.0,75.0
139,34.829266233333335,35.39872345,56.0,38.0
140,35.39053823333333,35.608031133333334,60.0,53.0
141,35.39053823333333,35.609200449999996,63.0,75.0
142,35.39053823333333,35.610369766666665,68.0,45.0
143,35.67117423333333,35.885159183333336,56.0,45.0
144,33.98735823333333,35.901529616666664,44.0,89.0
145,35.95181023333333,36.143578166666664,63.0,62.0
146,35.95181023333333,36.1459168,68.0,34.0
147,35.95181023333333,36.1739804,60.0,56.0
148,36.513082233333336,36.910649899999996,51.0,62.0
149,36.79371823333333,37.36317545,63.0,38.0
150,36.79371823333333,37.37837656666667,58.0,53.0
151,36.79371823333333,37.42047196666667,55.0,56.0
152,37.07435423333333,37.74203405,51.0,30.0
153,37.63562623333333,37.99694508333333,63.0,68.0
154,37.63562623333333,38.009807566666666,58.0,68.0
155,37.63562623333333,38.03202458333333,55.0,62.0
156,36.232446233333334,38.27641176666667,39.0,53.0
157,37.916262233333335,38.37814231666667,51.0,38.0
158,38.196898233333336,38.5313228,58.0,53.0
159,38.196898233333336,38.550031866666664,63.0,42.0
160,38.196898233333336,38.74998501666666,55.0,56.0
161,38.75817023333333,39.221219633333334,51.0,45.0
162,39.03880623333333,39.67257586666667,63.0,53.0
163,39.03880623333333,39.67842245,58.0,68.0
164,39.03880623333333,39.697131516666666,55.0,84.0
165,39.31944223333333,39.985952733333335,51.0,27.0
166,39.88071423333333,40.201107,63.0,75.0
167,39.88071423333333,40.20695358333333,58.0,75.0
168,39.88071423333333,40.2221547,55.0,75.0
169,38.47753423333333,40.54254746666667,39.0,84.0
170,40.16135023333333,40.569441749999996,51.0,49.0
171,40.44198623333333,40.6781882,58.0,34.0
172,40.44198623333333,40.714437016666665,63.0,27.0
173,40.44198623333333,40.73197676666666,55.0,45.0
174,41.003258233333334,41.46981558333333,51.0,53.0
175,41.283894233333335,41.80190151666667,63.0,56.0
176,41.283894233333335,41.810086733333335,58.0,84.0
177,41.283894233333335,41.8568594,55.0,75.0
178,41.56453023333333,42.205315766666665,51.0,38.0
179,42.12580223333333,42.46256543333333,63.0,68.0
180,42.12580223333333,42.46607338333333,58.0,75.0
181,42.12580223333333,42.47191996666667,55.0,75.0
182,40.72262223333333,42.76541845,39.0,84.0
183,42.40643823333333,42.833238816666665,51.0,25.0
184,42.687074233333334,42.94315458333333,58.0,42.0
185,42.687074233333334,42.99928178333333,63.0,38.0
186,42.687074233333334,43.04137718333333,55.0,49.0
187,43.24834623333333,43.6739775,51.0,49.0
188,43.52898223333333,44.1089633,58.0,75.0
189,43.52898223333333,44.11948715,63.0,53.0
190,43.52898223333333,44.134688266666664,55.0,68.0
191,43.80961823333333,44.45625035,51.0,27.0
192,44.370890233333334,44.69245231666667,58.0,84.0
193,44.370890233333334,44.69362163333333,63.0,53.0
194,44.370890233333334,44.7053148,55.0,68.0
195,42.967710233333335,44.87486571666667,39.0,89.0
196,44.651526233333335,44.9859508,51.0,45.0
197,44.93216223333333,45.12509948333333,58.0,53.0
198,44.93216223333333,45.1262688,63.0,42.0
199,44.93216223333333,45.141469916666665,55.0,49.0
200,45.49343423333333,45.957652949999996,56.0,42.0
201,45.77407023333333,46.3330036,68.0,38.0
202,45.77407023333333,46.36457515,63.0,56.0
203,45.77407023333333,46.37977626666667,60.0,62.0
204,46.054706233333334,46.682629283333334,56.0,17.0
205,46.61597823333333,46.963265283333335,68.0,32.0
206,46.61597823333333,46.99015956666666,63.0,62.0
207,46.61597823333333,47.022900433333334,60.0,38.0
208,45.21279823333333,47.24273196666667,44.0,89.0
209,46.89661423333333,47.261441033333334,56.0,45.0
210,47.17725023333333,47.31873755,68.0,38.0
211,47.17725023333333,47.33276935,63.0,62.0
212,47.17725023333333,47.38071133333333,60.0,53.0
213,47.738522233333335,48.1641535,56.0,42.0
214,48.01915823333333,48.4447895,68.0,38.0
215,48.01915823333333,48.457651983333335,63.0,68.0
216,48.01915823333333,48.49507011666667,60.0,56.0
217,48.29979423333333,48.9288866,56.0,25.0
218,48.86106623333333,49.19198285,68.0,38.0
219,48.86106623333333,49.21887713333333,60.0,53.0
220,48.86106623333333,49.225893033333335,63.0,68.0
221,47.45788623333333,49.471449533333335,44.0,89.0
222,49.14170223333333,49.522899466666665,56.0,38.0
223,49.422338233333335,49.65620156666667,68.0,30.0
224,49.422338233333335,49.72051398333333,63.0,56.0
225,49.422338233333335,49.74623895,60.0,34.0
226,49.98361023333333,50.388193799999996,56.0,45.0
227,50.26424623333333,50.59633216666666,68.0,38.0
228,50.26424623333333,50.624395766666666,63.0,75.0
229,50.26424623333333,50.638427566666664,60.0,68.0
230,50.54488223333333,51.18332913333333,56.0,27.0
231,51.106154233333335,51.38328228333333,68.0,56.0
232,51.106154233333335,51.41602315,63.0,89.0
233,51.106154233333335,51.439409483333336,60.0,75.0
234,49.70297423333333,51.77149541666667,44.0,84.0
235,51.38679023333333,51.789035166666665,56.0,53.0
236,51.66742623333333,51.81826808333333,68.0,49.0
237,51.66742623333333,51.82060671666667,63.0,89.0
238,51.66742623333333,51.834638516666665,60.0,68.0
239,52.22869823333333,52.689409,56.0,49.0
240,52.509334233333334,52.899886,68.0,53.0
241,52.509334233333334,52.95250525,63.0,84.0
242,52.509334233333334,52.97355295,60.0,68.0
243,52.789970233333335,53.430755766666664,56.0,21.0
244,53.35124223333333,53.663449783333334,68.0,56.0
245,53.35124223333333,53.672804316666664,60.0,75.0
246,53.35124223333333,53.67397363333333,63.0,84.0
247,51.94806223333333,53.87977336666667,44.0,89.0
248,53.63187823333333,53.96279485,56.0,53.0
249,53.91251423333333,54.10194353333333,60.0,75.0
250,53.91251423333333,54.11012875,68.0,56.0
251,53.91251423333333,54.12532986666667,63.0,84.0
252,54.473786233333335,54.90292545,55.0,53.0
253,54.75442223333333,55.18122281666667,63.0,75.0
254,54.75442223333333,55.18473076666667,60.0,68.0
255,54.75442223333333,55.21630231666666,67.0,62.0
256,55.03505823333333,55.630240416666666,55.0,34.0
257,55.59633023333333,55.970511566666666,63.0,89.0
258,55.59633023333333,55.976358149999996,60.0,84.0
259,55.59633023333333,55.98220473333333,67.0,89.0
260,54.193150233333334,56.22659191666666,48.0,68.0
261,55.876966233333334,56.2464703,55.0,62.0
262,56.15760223333333,56.32832246666666,63.0,89.0
263,56.15760223333333,56.32949178333333,60.0,89.0
264,56.15760223333333,56.354047433333335,67.0,68.0
265,56.71887423333333,57.133981649999996,58.0,42.0
266,56.99951023333333,57.420464233333334,65.0,84.0
267,56.99951023333333,57.43566535,70.0,68.0
268,56.99951023333333,57.4742528,62.0,75.0
269,57.28014623333333,57.91157723333333,58.0,38.0
270,57.84141823333333,58.2109223,70.0,89.0
271,57.84141823333333,58.2249541,65.0,89.0
272,57.84141823333333,58.22612341666667,62.0,75.0
273,58.12205423333333,58.526637799999996,58.0,53.0
274,58.40269023333333,58.619013816666666,70.0,89.0
275,56.43823823333333,58.63538425,46.0,89.0
276,58.40269023333333,58.65409331666667,65.0,89.0
277,58.40269023333333,58.6809876,62.0,75.0
278,58.96396223333333,59.4176571,55.0,68.0
279,59.244598233333335,59.80119296666666,58.0,68.0
280,59.244598233333335,59.84211905,62.0,68.0
281,59.244598233333335,59.84211905,67.0,68.0
282,59.52523423333333,60.18823678333333,55.0,45.0
283,60.08650623333333,60.43613191666667,58.0,84.0
284,60.08650623333333,60.43847055,62.0,75.0
285,60.08650623333333,60.460687566666664,67.0,89.0
286,58.68332623333333,60.542539733333335,43.0,75.0
287,60.36714223333333,60.71676791666667,55.0,32.0
288,60.647778233333334,60.80212803333333,67.0,75.0
289,60.647778233333334,60.81966778333333,62.0,68.0
290,60.647778233333334,60.83136095,58.0,68.0
291,61.20905023333333,61.658067833333334,55.0,27.0
292,61.48968623333333,62.091884316666665,63.0,89.0
293,61.48968623333333,62.094222949999995,60.0,75.0
294,61.48968623333333,62.1117627,67.0,75.0
295,61.77032223333333,62.4134464,55.0,32.0
296,62.331594233333334,62.651987,60.0,75.0
297,62.331594233333334,62.65549495,63.0,89.0
298,62.331594233333334,62.67654265,67.0,89.0
299,60.928414233333335,62.899882133333335,48.0,89.0
300,62.612230233333335,62.911575299999996,55.0,56.0
301,62.89286623333333,63.11971366666666,63.0,89.0
302,62.89286623333333,63.12439093333333,67.0,68.0
303,62.89286623333333,63.12672956666667,60.0,84.0
304,63.45413823333333,63.89497061666666,56.0,30.0
305,63.73477423333333,64.29019965,68.0,56.0
306,63.73477423333333,64.30890871666666,63.0,84.0
307,63.73477423333333,64.31358598333333,60.0,68.0
308,64.01541023333333,64.64333328333333,56.0,19.0
309,64.57668223333333,64.91695338333334,68.0,75.0
310,64.57668223333333,64.93332381666667,63.0,89.0
311,64.57668223333333,64.94267835,60.0,75.0
312,63.17350223333333,65.2899654,44.0,89.0
313,65.13795423333333,65.31569036666667,68.0,53.0
314,65.13795423333333,65.32387558333333,60.0,68.0
315,65.13795423333333,65.3250449,63.0,75.0
316,64.85731823333333,65.32738353333333,56.0,49.0
317,65.69922623333333,66.14122793333333,56.0,38.0
318,65.97986223333334,66.52710243333333,68.0,49.0
319,65.97986223333334,66.54347286666666,63.0,89.0
320,65.97986223333334,66.54464218333334,60.0,84.0
321,66.26049823333334,66.89777581666667,56.0,6.0
322,66.82177023333332,67.11877666666666,63.0,89.0
323,66.82177023333332,67.12228461666666,68.0,62.0
324,66.82177023333332,67.13046983333334,60.0,89.0
325,65.41859023333333,67.22167653333334,44.0,89.0
326,67.10240623333333,67.48126483333333,56.0,53.0
327,67.38304223333333,67.58182606666666,60.0,75.0
328,67.38304223333333,67.58884196666666,63.0,89.0
329,67.38304223333333,67.59351923333332,68.0,53.0
330,67.94431423333333,68.37813071666666,58.0,27.0
331,68.22495023333333,68.7277564,70.0,84.0
332,68.22495023333333,68.74412683333333,67.0,89.0
333,68.22495023333333,68.7628359,63.0,89.0
334,68.50558623333333,69.02476283333333,58.0,34.0
335,69.06685823333333,69.41297596666666,70.0,84.0
336,69.06685823333333,69.42583845,67.0,89.0
337,69.06685823333333,69.42817708333334,63.0,84.0
338,67.66367823333333,69.72050625,51.0,89.0
339,69.34749423333334,69.73219941666666,58.0,53.0
340,69.62813023333334,69.77897208333333,63.0,75.0
341,69.62813023333334,69.78248003333333,67.0,89.0
342,69.62813023333334,69.79183456666667,70.0,84.0
343,70.18940223333333,70.61035623333333,58.0,53.0
344,70.47003823333333,70.9588126,70.0,89.0
345,70.47003823333333,70.96465918333332,67.0,89.0
346,70.47003823333333,70.98219893333334,63.0,84.0
347,70.75067423333333,71.31662349999999,58.0,53.0
348,71.21840089999999,71.60076744999999,63.0,89.0
349,71.31194623333333,71.68378893333333,70.0,89.0
350,71.31194623333333,71.70015936666667,67.0,89.0
351,69.90876623333334,71.8463537375,51.0,75.0
352,71.59258223333333,71.8994198,58.0,53.0
353,71.87347639166667,72.14941991666666,67.0,75.0
354,71.87347639166667,72.1541369,63.0,75.0
355,71.87347639166667,72.16239162083333,70.0,49.0
356,72.43951439166666,72.8581466625,56.0,38.0
357,72.72253339166667,73.30626007916666,68.0,62.0
358,72.72253339166667,73.30861857083333,63.0,89.0
359,72.72253339166667,73.32041102916666,60.0,75.0
360,73.00555239166667,73.66003382916666,56.0,15.0
361,73.57159039166666,73.91003394583333,60.0,89.0
362,73.57159039166666,73.91003394583333,63.0,89.0
363,73.57159039166666,73.915930175,68.0,75.0
364,72.15649539166667,74.25083599166666,44.0,89.0
365,73.85460939166667,74.29093035,56.0,45.0
366,74.13762839166667,74.47725119166667,63.0,89.0
367,74.13762839166667,74.4996568625,68.0,53.0
368,74.13762839166667,74.524421025,60.0,75.0
369,74.70366639166667,75.11404394166667,56.0,49.0
370,74.98668539166667,75.56451585,63.0,89.0
371,74.98668539166667,75.5680535875,68.0,68.0
372,74.98668539166667,75.57984604583334,60.0,89.0
373,75.26970439166666,75.87701599583333,56.0,28.0
374,75.83574239166667,76.14588404583333,63.0,89.0
375,75.83574239166667,76.15060102916667,68.0,62.0
376,75.83574239166667,76.1623934875,60.0,75.0
377,74.42064739166666,76.38055396666667,44.0,89.0
378,76.11876139166667,76.51852572916667,56.0,53.0
379,76.40178039166666,76.58810123333333,63.0,89.0
380,76.40178039166666,76.59281821666667,60.0,84.0
381,76.40178039166666,76.59871444583334,68.0,62.0
382,76.96781839166667,77.44895069166667,58.0,56.0
383,77.25083739166666,77.80626217916667,70.0,84.0
384,77.25083739166666,77.81569614583333,65.0,89.0
385,77.25083739166666,77.82395086666666,62.0,75.0
386,77.53385639166666,78.14824347083334,58.0,30.0
387,78.09989439166667,78.41711152083333,70.0,89.0
388,78.09989439166667,78.4336209625,65.0,89.0
389,78.09989439166667,78.44541342083333,62.0,68.0
390,76.68479939166667,78.66239465416666,46.0,89.0
391,78.38291339166666,78.69069655416666,58.0,56.0
392,78.66593239166667,78.9006023125,70.0,68.0
393,78.66593239166667,78.90531929583334,65.0,89.0
394,78.66593239166667,78.9289042125,62.0,75.0
395,79.23197039166666,79.68480079166667,55.0,75.0
396,79.51498939166666,80.1317349625,60.0,89.0
397,79.51498939166666,80.1352727,63.0,89.0
398,79.51498939166666,80.14116892916667,67.0,89.0
399,79.79800839166667,80.4465936,55.0,42.0
400,80.36404639166666,80.68244276666667,60.0,89.0
401,80.36404639166666,80.6906974875,63.0,89.0
402,80.36404639166666,80.71664089583334,67.0,89.0
403,78.94895139166667,80.9100372125,48.0,89.0
404,80.64706539166667,80.95366930833333,55.0,68.0
405,80.835744725,81.0161693375,67.0,62.0
406,80.93008439166667,81.08456559583334,60.0,75.0
407,80.93008439166667,81.11286749583334,63.0,89.0
408,81.49612239166666,81.996122625,56.0,32.0
409,81.77914139166667,82.31687749166667,63.0,89.0
410,81.77914139166667,82.3251322125,68.0,68.0
411,81.77914139166667,82.34871712916667,60.0,84.0
412,82.06216039166667,82.69423615833334,56.0,32.0
413,82.62819839166667,82.92536834166667,63.0,89.0
414,82.62819839166667,82.93244381666666,60.0,84.0
415,82.62819839166667,82.9371608,68.0,84.0
416,81.21310339166666,83.1352741,44.0,89.0
417,82.91121739166667,83.36051005416667,56.0,56.0
418,83.19423639166666,83.39588742916666,63.0,89.0
419,83.19423639166666,83.40414215,68.0,62.0
420,83.19423639166666,83.41003837916666,60.0,75.0
421,83.665934725,84.12701984583333,58.0,53.0
422,84.04329339166667,84.57749175416667,70.0,84.0
423,84.04329339166667,84.60815214583333,65.0,89.0
424,84.04329339166667,84.61640686666667,62.0,84.0
425,84.32631239166668,84.98315232083334,58.0,14.0
426,84.89235039166667,85.222539225,70.0,89.0
427,84.89235039166667,85.236690175,65.0,89.0
428,84.89235039166667,85.24258640416667,62.0,89.0
429,83.47725539166667,85.40768082083333,46.0,89.0
430,85.17536939166666,85.56805825416667,58.0,56.0
431,85.45838839166667,85.689520575,70.0,84.0
432,85.45838839166667,85.71192624583334,62.0,89.0
433,85.45838839166667,85.717822475,65.0,89.0
434,86.02442639166667,86.36522843750001,51.0,84.0
435,86.30744539166668,86.90178529166667,63.0,84.0
436,86.30744539166668,86.90886076666666,58.0,89.0
437,86.30744539166668,86.91475699583333,55.0,84.0
438,86.59046439166667,87.23433261666666,51.0,84.0
439,87.15650239166666,87.4654648,58.0,89.0
440,87.15650239166666,87.4690025375,63.0,89.0
441,87.15650239166666,87.47371952083333,55.0,89.0
442,85.74140739166667,87.7492302125,39.0,89.0
443,87.43952139166667,87.8522265125,51.0,53.0
444,87.722310725,88.0301292125,58.0,89.0
445,87.722310725,88.0348108625,63.0,89.0
446,87.722310725,88.0441741625,55.0,89.0
447,88.284108725,88.5626669,51.0,68.0
448,88.565007725,89.150213975,63.0,89.0
449,88.565007725,89.1584068625,58.0,89.0
450,88.565007725,89.17596305,55.0,89.0
451,88.84590672499999,89.4861223625,51.0,62.0
452,89.407704725,89.7061599125,58.0,89.0
453,89.407704725,89.7061599125,63.0,84.0
454,89.407704725,89.7178640375,55.0,89.0
455,88.00320972499999,89.9613098375,39.0,89.0
456,89.688603725,90.0526020125,51.0,68.0
457,89.969502725,90.138042125,63.0,75.0
458,89.969502725,90.1450646,58.0,89.0
459,89.969502725,90.15676872499999,55.0,84.0
460,90.531300725,90.891787775,56.0,42.0
461,90.812199725,91.16683471249999,60.0,68.0
462,90.812199725,91.186731725,63.0,89.0
463,90.812199725,91.1925837875,68.0,53.0
464,91.093098725,91.7052244625,56.0,68.0
465,91.654896725,91.959203975,68.0,75.0
466,91.654896725,91.9767601625,63.0,89.0
467,91.654896725,91.9908051125,60.0,89.0
468,90.250401725,92.288955175,44.0,75.0
469,91.93579572499999,92.34561237499999,56.0,75.0
470,92.21695331666666,92.48489465833333,68.0,68.0
471,92.21695331666666,92.49315716666666,63.0,89.0
472,92.21695331666666,92.51912505,60.0,68.0
473,92.78352531666665,93.0644506,56.0,75.0
474,93.06681131666666,93.55058042083333,68.0,75.0
475,93.06681131666666,93.57083779791667,63.0,89.0
476,93.06681131666666,93.59467000625,60.0,89.0
477,92.50023931666666,93.63399315,44.0,89.0
478,93.63637637083333,94.74681134166666,68.0,75.0
479,93.63637637083333,94.75378160416666,56.0,62.0
480,93.63637637083333,94.75726673541666,63.0,89.0
481,93.63637637083333,94.75959015625,60.0,89.0
482,93.63637637083333,94.76539870833332,44.0,89.0
483,95.05117947083333,95.46939522083333,56.0,42.0
484,94.77236897083333,95.59369823541667,44.0,89.0
485,95.32998997083332,95.97357754166666,63.0,89.0
486,95.32998997083332,95.98170951458333,68.0,56.0
487,95.32998997083332,95.99681174999999,60.0,75.0
488,95.60880047083333,96.25238804166666,56.0,28.0
489,96.16642147083333,96.46265762708333,68.0,53.0
490,96.16642147083333,96.46614275833333,63.0,75.0
491,96.16642147083333,96.48124499375,60.0,68.0
492,96.44523197083333,96.83440496041666,56.0,53.0
493,96.72404247083333,96.96103139583333,68.0,42.0
494,96.72404247083333,96.97497192083333,60.0,68.0
495,96.72404247083333,96.97613363125,63.0,75.0
496,97.28166347083332,97.711496325,56.0,42.0
497,97.56047397083333,98.16107825625,65.0,68.0
498,97.56047397083333,98.17966562291666,68.0,42.0
499,97.56047397083333,98.185474175,61.0,56.0
500,97.83928447083333,98.45266757083333,56.0,42.0
501,98.39690547083333,98.67571597083332,65.0,84.0
502,98.39690547083333,98.68500965416666,61.0,75.0
503,98.39690547083333,98.69197991666667,68.0,75.0
504,97.00285297083333,98.82906174583333,49.0,68.0
505,98.67571597083332,98.88133871458334,56.0,56.0
506,98.95452647083333,99.19848565833333,65.0,68.0
507,98.95452647083333,99.20894105208333,68.0,49.0
508,98.95452647083333,99.22520499791666,61.0,62.0
509,99.51214747083333,99.9350100625,54.0,30.0
510,99.79095797083333,100.35903436458332,66.0,84.0
511,99.79095797083333,100.38226857291666,70.0,62.0
512,99.79095797083333,100.40782620208333,61.0,84.0
513,100.06976847083332,100.72729656666667,54.0,32.0
514,100.62738947083332,100.90736168125,66.0,89.0
515,100.62738947083332,100.92943417916666,61.0,84.0
516,100.62738947083332,100.9317576,70.0,84.0
517,99.23333697083334,101.01772417083333,42.0,62.0
518,100.90619997083333,101.16293797291667,54.0,62.0
519,101.18501047083333,101.35694361249999,66.0,28.0
520,101.18501047083333,101.40457373958333,70.0,56.0
521,101.18501047083333,101.43477821041667,61.0,62.0
522,101.74263147083333,102.10973196249999,59.0,49.0
523,102.02144197083332,102.37227851666667,66.0,84.0
524,102.02144197083332,102.37924877916666,63.0,84.0
525,102.02144197083332,102.38621904166666,71.0,68.0
526,102.30025247083333,102.92641438541666,59.0,27.0
527,102.85787347083333,103.19244607083333,63.0,84.0
528,102.85787347083333,103.19825462291666,66.0,89.0
529,102.85787347083333,103.21219514791666,71.0,68.0
530,101.46382097083332,103.32604276875,47.0,75.0
531,103.13668397083333,103.50146104166666,59.0,53.0
532,103.41549447083332,103.59904471666667,71.0,68.0
533,103.41549447083332,103.60020642708332,66.0,75.0
534,103.41549447083332,103.6013681375,63.0,75.0
535,103.97311547083333,104.35183306666666,59.0,62.0
536,104.25192597083333,104.85485367708333,64.0,89.0
537,104.25192597083333,104.87111762291666,68.0,84.0
538,104.25192597083333,104.88854327916667,71.0,75.0
539,104.53073647083333,105.1487664125,59.0,38.0
540,105.08835747083333,105.38227020625,64.0,75.0
541,105.08835747083333,105.39853415208333,68.0,68.0
542,105.08835747083333,105.40898954583332,71.0,68.0
543,103.69430497083333,105.60067176458332,52.0,75.0
544,105.36716797083332,105.61925913124999,59.0,53.0
545,105.64597847083333,105.83533726875,68.0,62.0
546,105.64597847083333,105.84346924166667,71.0,62.0
547,105.64597847083333,105.84811608333332,64.0,75.0
548,106.20359947083332,106.64040258749999,57.0,75.0
549,106.48240997083333,107.10276333333333,64.0,89.0
550,106.48240997083333,107.10624846458333,69.0,62.0
551,106.48240997083333,107.11670385833332,61.0,89.0
552,106.76122047083334,107.39435264791666,57.0,38.0
553,107.31884147083333,107.62553302083333,61.0,89.0
554,107.31884147083333,107.62553302083333,69.0,75.0
555,107.31884147083333,107.63134157291667,64.0,89.0
556,105.92478897083333,107.79862787291667,45.0,75.0
557,107.59765197083333,107.87413905,57.0,68.0
558,107.87646247083333,108.08440863541666,61.0,89.0
559,107.87646247083333,108.08673205625,69.0,68.0
560,107.87646247083333,108.11925994791666,64.0,84.0
561,108.43408347083333,108.88598882291666,58.0,49.0
562,108.71289397083333,109.28445549583333,70.0,89.0
563,108.71289397083333,109.31582167708333,62.0,89.0
564,108.71289397083333,109.32163022916666,65.0,89.0
565,108.99170447083333,109.61786638541666,58.0,28.0
566,109.54932547083332,109.89435346458333,70.0,89.0
567,109.54932547083332,109.90597056874999,65.0,89.0
568,109.54932547083332,109.90829398958333,62.0,75.0
569,108.15527297083332,110.16704599166667,46.0,75.0
570,109.82813597083333,110.23596219583332,58.0,68.0
571,110.10763547083333,110.26329103541666,70.0,89.0
572,110.10763547083333,110.27042029791666,62.0,75.0
573,110.10763547083333,110.27636135,65.0,89.0
574,110.39280597083332,110.49974490833333,70.0,89.0
575,110.39280597083332,110.50568596041666,46.0,89.0
576,110.39280597083332,110.51519164375,58.0,89.0
577,110.39280597083332,110.51519164375,62.0,75.0
578,110.39280597083332,110.51637985416666,65.0,89.0
579,110.67797647083333,110.79204467083333,70.0,89.0
580,110.67797647083333,110.79560930208334,46.0,89.0
581,110.67797647083333,110.79917393333334,62.0,75.0
582,110.67797647083333,110.79917393333334,65.0,89.0
583,110.67797647083333,110.80155035416666,58.0,75.0
584,110.96314697083334,111.05939201458332,62.0,89.0
585,110.96314697083334,111.06889769791667,70.0,89.0
586,110.96314697083334,111.07127411875,46.0,89.0
587,110.96314697083334,111.07602696041667,65.0,89.0
588,110.96314697083334,111.08077980208333,58.0,62.0
589,111.24831747083333,111.77113005416666,70.0,89.0
590,111.24831747083333,111.77825931666666,65.0,89.0
591,111.24831747083333,111.79014142083332,62.0,89.0
592,111.24831747083333,111.81628205,58.0,84.0
593,111.24831747083333,111.9588673,46.0,89.0
594,112.95934047083333,113.33362675208333,51.0,68.0
595,113.24451097083333,113.75115749999999,58.0,75.0
596,113.24451097083333,113.76300583333332,63.0,53.0
597,113.24451097083333,113.76656033333333,55.0,84.0
598,113.52959366666666,114.1137165,51.0,84.0
599,114.09831366666666,114.415849,55.0,89.0
600,114.09831366666666,114.415849,58.0,89.0
601,114.09831366666666,114.42177316666665,63.0,84.0
602,112.67416997083333,114.72390566666665,39.0,89.0
603,114.38267366666666,114.81039849999999,51.0,62.0
604,114.66703366666665,114.95020883333332,58.0,89.0
605,114.66703366666665,114.963242,63.0,75.0
606,114.66703366666665,114.96798133333333,55.0,89.0
607,115.23523686249999,115.51249644999999,51.0,68.0
608,115.51482636249999,116.00527294374999,63.0,84.0
609,115.51482636249999,116.0064379,58.0,89.0
610,115.51482636249999,116.02740711249999,55.0,75.0
611,115.79441586249999,116.29301713749999,51.0,75.0
612,116.35359486249999,116.6378441875,58.0,89.0
613,116.35359486249999,116.64832879374998,63.0,84.0
614,116.35359486249999,116.65298861874999,55.0,84.0
615,114.95139366666666,116.99898062499999,39.0,84.0
616,116.63318436249999,117.10732155624999,51.0,62.0
617,116.91277386249999,117.13295059374998,58.0,89.0
618,116.91277386249999,117.16440441249999,63.0,68.0
619,116.91277386249999,117.166734325,55.0,75.0
620,117.47195286249999,117.84939868749998,51.0,84.0
621,117.75154236249999,118.25946328749998,63.0,89.0
622,117.75154236249999,118.26645302499999,58.0,89.0
623,117.75154236249999,118.285092325,55.0,75.0
624,118.03113186249999,118.55303226249998,51.0,68.0
625,118.59031086249999,118.89669435624998,58.0,89.0
626,118.59031086249999,118.89785931249999,55.0,84.0
627,118.59031086249999,118.90717896249998,63.0,84.0
628,117.19236336249999,119.19259324374998,39.0,89.0
629,118.86990036249999,119.26249061875,51.0,68.0
630,119.14948986249999,119.36966659374998,58.0,89.0
631,119.14948986249999,119.3731614625,63.0,75.0
632,119.14948986249999,119.38364606874998,55.0,68.0
633,119.70866886249999,120.10475398749999,51.0,75.0
634,119.98825836249999,120.45074599374999,58.0,89.0
635,119.98825836249999,120.45773573124998,63.0,84.0
636,119.98825836249999,120.47288016249999,55.0,75.0
637,120.26784786249999,120.829356775,51.0,75.0
638,120.82702686249999,121.09380184374999,58.0,89.0
639,120.82702686249999,121.11477105624999,63.0,84.0
640,120.82702686249999,121.12176079374998,55.0,75.0
641,119.42907936249999,121.24757606874999,39.0,89.0
642,121.10661636249999,121.46891775625,51.0,75.0
643,121.38620586249999,121.55162965,55.0,75.0
644,121.38620586249999,121.55395956249998,58.0,89.0
645,121.38620586249999,121.56793903749998,63.0,84.0
646,121.94538486249999,122.33914007499999,56.0,45.0
647,122.22497436249999,122.54650228749999,68.0,53.0
648,122.22497436249999,122.56048176249999,63.0,89.0
649,122.22497436249999,122.58611079999999,60.0,84.0
650,122.50456386249999,123.07539242499999,56.0,56.0
651,123.06374286249999,123.33634262499999,68.0,75.0
652,123.06374286249999,123.35032209999999,63.0,89.0
653,123.06374286249999,123.36546653125,60.0,75.0
654,121.66579536249999,123.70330384374999,44.0,89.0
655,123.34333236249999,123.75922174374999,56.0,68.0
656,123.6229218625,123.79883025624999,68.0,84.0
657,123.6229218625,123.81513964374999,63.0,89.0
658,123.6229218625,123.82562424999999,60.0,84.0
659,124.1821008625,124.519938175,56.0,62.0
660,124.4616903625,124.82049688749998,68.0,84.0
661,124.4616903625,124.83214644999998,63.0,89.0
662,124.4616903625,124.85428061874998,60.0,84.0
663,124.7412798625,125.28997425624999,56.0,68.0
664,125.3004588625,125.58820305625,60.0,89.0
665,125.3004588625,125.59286288124999,68.0,75.0
666,125.3004588625,125.59519279374999,63.0,89.0
667,123.9025113625,125.9039062,44.0,89.0
668,125.5800483625,125.94584462499999,56.0,62.0
669,125.8596378625,126.00059756874998,68.0,75.0
670,125.8596378625,126.02389669374999,63.0,89.0
671,125.8596378625,126.02972147499999,60.0,75.0
672,126.4188168625,126.74733452499999,56.0,68.0
673,126.69840636249998,127.04672828124998,68.0,75.0
674,126.69840636249998,127.05022315,63.0,89.0
675,126.69840636249998,127.08167696874999,60.0,84.0
676,126.9779958625,127.53600990624999,56.0,75.0
677,127.5371748625,127.82724896874998,63.0,89.0
678,127.5371748625,127.83307374999998,68.0,68.0
679,127.5371748625,127.84239339999999,60.0,84.0
680,126.13922736249998,128.16974610625,44.0,89.0
681,127.81676436249998,128.23032383125,56.0,84.0
682,128.0963538625,128.37361345,60.0,84.0
683,128.0963538625,128.37710831874998,63.0,89.0
684,128.0963538625,128.38409805625,68.0,84.0
685,128.6555328625,128.99104026249998,56.0,53.0
686,128.93512236249998,129.24816234999997,68.0,68.0
687,128.93512236249998,129.25406414166665,63.0,89.0
688,128.93512236249998,129.28003202499997,60.0,68.0
689,129.21511231666665,129.78522539166664,56.0,49.0
690,129.78168431666666,130.06733103333332,68.0,84.0
691,129.78168431666666,130.07913461666664,63.0,89.0
692,129.78168431666666,130.0850364083333,60.0,84.0
693,130.06497031666666,130.40963494999997,56.0,62.0
694,128.37594336249998,130.45094749166665,44.0,89.0
695,130.34825631666664,130.625640525,68.0,75.0
696,130.34825631666664,130.62918159999998,60.0,75.0
697,130.34825631666664,130.63508339166665,63.0,89.0
698,130.91482831666664,131.28664119166666,51.0,68.0
699,131.19811431666665,131.702127325,58.0,75.0
700,131.19811431666665,131.7139309083333,63.0,53.0
701,131.19811431666665,131.71747198333333,55.0,84.0
702,131.48140031666665,132.063316975,51.0,84.0
703,132.04797231666666,132.36430835,55.0,89.0
704,132.04797231666666,132.36430835,58.0,89.0
705,132.04797231666666,132.37021014166666,63.0,84.0
706,130.63154231666664,132.67120151666666,39.0,89.0
707,132.33125831666663,132.75736767499998,51.0,62.0
708,132.61454431666664,132.8966499583333,58.0,89.0
709,132.61454431666664,132.9096339,63.0,75.0
710,132.61454431666664,132.9143553333333,55.0,89.0
711,133.18111631666665,133.53994525,51.0,68.0
712,133.46440231666665,133.961333175,63.0,84.0
713,133.46440231666665,133.96251353333332,58.0,89.0
714,133.46440231666665,133.9837599833333,55.0,75.0
715,133.74768831666665,134.25288168333333,51.0,75.0
716,134.31426031666666,134.60226774999998,58.0,89.0
717,134.31426031666666,134.61289097499997,63.0,84.0
718,134.31426031666666,134.61761240833331,55.0,84.0
719,132.89783031666664,134.96817883333333,39.0,84.0
720,134.59754631666664,135.07795215833332,51.0,62.0
721,134.88083231666664,135.10392004166664,58.0,89.0
722,134.88083231666664,135.13578971666664,63.0,68.0
723,134.88083231666664,135.13815043333332,55.0,75.0
724,135.44740431666665,135.82984041666666,51.0,84.0
725,135.73069031666665,136.24532655,63.0,89.0
726,135.73069031666665,136.2524087,58.0,89.0
727,135.73069031666665,136.2712944333333,55.0,75.0
728,136.01397631666666,136.54277684999997,51.0,68.0
729,136.58054831666664,136.89098255833332,58.0,89.0
730,136.58054831666664,136.89216291666665,55.0,84.0
731,136.58054831666664,136.9016057833333,63.0,84.0
732,135.16411831666665,137.190793575,39.0,89.0
733,136.86383431666664,137.26161507499998,51.0,68.0
734,137.14712031666664,137.37020804166664,58.0,89.0
735,137.14712031666664,137.37374911666666,63.0,75.0
736,137.14712031666664,137.38437234166665,55.0,68.0
737,137.71369231666665,138.11501414999998,51.0,75.0
738,137.99697831666666,138.465580575,58.0,89.0
739,137.99697831666666,138.472662725,63.0,84.0
740,137.99697831666666,138.48800738333333,55.0,75.0
741,138.28026431666666,138.84919703333333,51.0,75.0
742,138.84683631666664,139.11713837499997,58.0,89.0
743,138.84683631666664,139.13838482499997,63.0,84.0
744,138.84683631666664,139.14546697499998,55.0,75.0
745,137.43040631666665,139.272945675,39.0,89.0
746,139.13012231666664,139.49721375833332,51.0,75.0
747,139.41340831666665,139.5810192,55.0,75.0
748,139.41340831666665,139.58337991666664,58.0,89.0
749,139.41340831666665,139.59754421666665,63.0,84.0
750,139.97943940833332,140.37136871666667,56.0,45.0
751,140.2577324083333,140.5777693583333,68.0,53.0
752,140.2577324083333,140.59168400833332,63.0,89.0
753,140.2577324083333,140.6171942,60.0,84.0
754,140.53602540833333,141.10420695,56.0,56.0
755,141.0926114083333,141.36394708333333,68.0,75.0
756,141.0926114083333,141.37786173333333,63.0,89.0
757,141.0926114083333,141.3929359375,60.0,75.0
758,139.69669431666665,141.72920664583333,44.0,89.0
759,141.37090440833333,141.78486524583332,56.0,68.0
760,141.64919740833332,141.82429008749997,68.0,84.0
761,141.64919740833332,141.84052384583333,63.0,89.0
762,141.64919740833332,141.85095983333332,60.0,84.0
763,142.20578340833333,142.54205411666666,56.0,62.0
764,142.48407640833332,142.84121909166666,68.0,84.0
765,142.48407640833332,142.8528146333333,63.0,89.0
766,142.48407640833332,142.87484616249998,60.0,84.0
767,142.7623694083333,143.30851942083333,56.0,68.0
768,143.31895540833332,143.60536528749998,60.0,89.0
769,143.31895540833332,143.61000350416666,68.0,75.0
770,143.31895540833332,143.61232261249998,63.0,89.0
771,141.9274904083333,143.91960446666667,44.0,89.0
772,143.59724840833331,143.96134841666665,56.0,62.0
773,143.87554140833333,144.01584746249998,68.0,75.0
774,143.87554140833333,144.0390385458333,63.0,89.0
775,143.87554140833333,144.04483631666665,60.0,75.0
776,144.43212740833332,144.75912168333332,56.0,68.0
777,144.71042040833333,145.05712710416665,68.0,75.0
778,144.71042040833333,145.06060576666667,63.0,89.0
779,144.71042040833333,145.09191372916666,60.0,84.0
780,144.98871340833333,145.54413985416664,56.0,75.0
781,145.54529940833334,145.83402839583331,63.0,89.0
782,145.54529940833334,145.83982616666665,68.0,68.0
783,145.54529940833334,145.84910259999998,60.0,84.0
784,144.15383440833332,146.17493732083332,44.0,89.0
785,145.82359240833333,146.2352341375,56.0,84.0
786,146.10188540833332,146.37785929999998,60.0,84.0
787,146.10188540833332,146.3813379625,63.0,89.0
788,146.10188540833332,146.3882952875,68.0,84.0
789,146.65847140833333,146.99242300833333,56.0,53.0
790,146.93676440833332,147.247524925,68.0,68.0
791,146.93676440833332,147.25332269583333,63.0,89.0
792,146.93676440833332,147.2788328875,60.0,68.0
793,147.2150574083333,147.77512207083333,56.0,49.0
794,147.77164340833332,148.05225551666666,68.0,84.0
795,147.77164340833332,148.0638510583333,63.0,89.0
796,147.77164340833332,148.06964882916665,60.0,84.0
797,148.0499364083333,148.388526225,56.0,62.0
798,146.38017840833334,148.4291106208333,44.0,89.0
799,148.32822940833333,148.60072463749998,68.0,75.0
800,148.32822940833333,148.6042033,60.0,75.0
801,148.32822940833333,148.61000107083333,63.0,89.0
802,148.8848154083333,149.2500749708333,55.0,84.0
803,149.16310840833333,149.7973845375,63.0,89.0
804,149.16310840833333,149.80550141666666,60.0,89.0
805,149.16310840833333,149.81361829583332,67.0,89.0
806,149.44140140833332,150.0849539708333,55.0,53.0
807,149.99798740833333,150.3330985625,60.0,89.0
808,149.99798740833333,150.34469410416665,63.0,89.0
809,149.99798740833333,150.36208741666667,67.0,89.0
810,150.27628040833332,150.6137106708333,55.0,75.0
811,148.60652240833332,150.6183488875,48.0,89.0
812,150.5545734083333,150.767931375,63.0,89.0
813,150.5545734083333,150.781846025,67.0,84.0
814,150.5545734083333,150.78880335,60.0,89.0
815,151.11115940833332,151.56570464166666,56.0,27.0
816,151.3894524083333,151.98778235833333,68.0,89.0
817,151.3894524083333,151.99010146666666,63.0,89.0
818,151.3894524083333,151.9958992375,60.0,89.0
819,151.66774540833333,152.2765113458333,56.0,28.0
820,152.2243314083333,152.55828300833332,63.0,89.0
821,152.2243314083333,152.56408077916666,60.0,89.0
822,152.2243314083333,152.56408077916666,68.0,84.0
823,150.83286640833333,152.77280052916666,44.0,89.0
824,152.50262440833333,152.8899155,56.0,53.0
825,152.78091740833332,152.96180785833332,68.0,75.0
826,152.78091740833332,152.9977540375,60.0,89.0
827,152.78091740833332,153.00239225416666,63.0,89.0
828,153.33750340833333,153.75262379999998,58.0,53.0
829,153.61579640833332,154.236457375,70.0,89.0
830,153.61579640833332,154.25419624999998,62.0,89.0
831,153.61579640833332,154.25537884166664,65.0,89.0
832,153.89468838333332,154.50070399166665,58.0,27.0
833,154.46204421666664,154.79240956666666,70.0,89.0
834,154.46204421666664,154.807639175,62.0,89.0
835,154.46204421666664,154.81818274999998,65.0,89.0
836,153.0592104083333,155.10168776666666,46.0,89.0
837,154.74320621666666,155.10520229166664,58.0,56.0
838,155.02436821666666,155.20712351666666,70.0,53.0
839,155.02436821666666,155.2469548,65.0,84.0
840,155.02436821666666,155.27389949166664,62.0,62.0
841,155.58669221666665,156.002577675,55.0,84.0
842,155.86785421666664,156.53912849166665,67.0,89.0
843,155.86785421666664,156.54264301666666,63.0,89.0
844,155.86785421666664,156.543814525,60.0,89.0
845,156.14901621666664,156.80154635833333,55.0,38.0
846,156.71134021666666,157.0510776333333,63.0,89.0
847,156.71134021666666,157.06396422499998,60.0,89.0
848,156.71134021666666,157.08387986666665,67.0,89.0
849,155.30553021666665,157.42947482499997,48.0,89.0
850,156.99250221666665,157.4341608583333,55.0,75.0
851,157.27366421666665,157.47047761666664,63.0,89.0
852,157.27366421666665,157.48453571666664,67.0,75.0
853,157.27366421666665,157.55248319999998,60.0,84.0
854,157.83598821666666,158.21321389999997,56.0,32.0
855,158.11715021666666,158.60801220833332,68.0,68.0
856,158.11715021666666,158.6255848333333,63.0,89.0
857,158.11715021666666,158.63612840833332,60.0,89.0
858,158.39831221666665,158.99578146666664,56.0,56.0
859,158.96063621666664,159.257027825,68.0,56.0
860,158.96063621666664,159.27342894166665,63.0,89.0
861,158.96063621666664,159.30505966666664,60.0,75.0
862,157.55482621666664,159.58973619166665,44.0,89.0
863,159.24179821666664,159.64596859166664,56.0,53.0
864,159.52296021666666,159.69634344999997,68.0,53.0
865,159.52296021666666,159.70571551666666,60.0,68.0
866,159.52296021666666,159.71625909166664,63.0,89.0
867,160.08528421666665,160.43907973333333,58.0,56.0
868,160.36644621666665,160.93345624999998,65.0,89.0
869,160.36644621666665,160.94048529999998,62.0,89.0
870,160.36644621666665,160.94634284166665,70.0,89.0
871,160.64760821666664,161.25562104166664,58.0,49.0
872,161.20993221666666,161.55201265,70.0,84.0
873,161.20993221666666,161.56958527499998,65.0,89.0
874,161.20993221666666,161.57427130833332,62.0,75.0
875,159.80412221666666,161.70196571666665,46.0,89.0
876,161.49109421666665,161.88589252499997,58.0,62.0
877,161.77225621666665,161.96086905833332,70.0,75.0
878,161.77225621666665,161.97141263333333,65.0,89.0
879,161.77225621666665,161.97727017499997,62.0,75.0
880,162.33458021666664,162.69306176666666,58.0,38.0
881,162.61574221666666,162.98242432499998,70.0,68.0
882,162.61574221666666,163.02225560833332,67.0,89.0
883,162.61574221666666,163.05037180833332,63.0,84.0
884,162.89690421666666,163.41353939166666,58.0,75.0
885,163.45922821666665,163.74741926666664,67.0,89.0
886,163.45922821666665,163.7603058583333,70.0,89.0
887,163.45922821666665,163.76147736666664,63.0,89.0
888,163.74039021666664,164.043810875,58.0,62.0
889,162.05341821666664,164.0906712083333,51.0,89.0
890,164.02155221666666,164.15979019999997,70.0,89.0
891,164.02155221666666,164.1820488583333,67.0,89.0
892,164.02155221666666,164.184391875,63.0,89.0
893,164.58387621666665,164.96344491666665,58.0,56.0
894,164.86503821666665,165.3769873583333,63.0,89.0
895,164.86503821666665,165.37815886666664,67.0,89.0
896,164.86503821666665,165.38518791666664,70.0,84.0
897,165.14620021666664,165.67689349166665,58.0,56.0
898,165.70852421666666,165.95219794999997,67.0,89.0
899,165.70852421666666,165.95219794999997,70.0,89.0
900,165.70852421666666,165.96508454166664,63.0,89.0
901,164.30271421666666,165.98031414999997,51.0,75.0
902,165.98968621666666,166.27670575833332,58.0,89.0
903,166.27084821666665,166.5637253,70.0,89.0
904,166.27084821666665,166.56489680833332,67.0,89.0
905,166.27084821666665,166.57895490833332,63.0,89.0
906,166.83286140833332,167.32799103749997,56.0,49.0
907,167.1111544083333,167.672378625,68.0,68.0
908,167.1111544083333,167.68977193749998,63.0,89.0
909,167.1111544083333,167.69441015416666,60.0,75.0
910,167.38944740833333,167.97502226249998,56.0,56.0
911,167.9460334083333,168.2591130333333,63.0,89.0
912,167.9460334083333,168.26027258749997,68.0,84.0
913,167.9460334083333,168.26722991249997,60.0,89.0
914,166.55201021666664,168.52928915416666,44.0,89.0
915,168.22432640833333,168.63248947499997,56.0,62.0
916,168.50261940833332,168.6951054,68.0,75.0
917,168.50261940833332,168.70670094166664,63.0,89.0
918,168.50261940833332,168.74612578333333,60.0,89.0
919,169.05920540833333,169.42446497083333,56.0,49.0
920,169.33749840833332,169.82567071249997,63.0,89.0
921,169.33749840833332,169.8361067,68.0,75.0
922,169.33749840833332,169.84886179583333,60.0,89.0
923,169.6157914083333,170.15846275833331,56.0,53.0
924,170.17237740833332,170.49241435833332,63.0,89.0
925,170.17237740833332,170.4958930208333,68.0,89.0
926,170.17237740833332,170.5098076708333,60.0,89.0
927,168.7809124083333,170.68374079583333,44.0,89.0
928,170.4506704083333,170.8298446208333,56.0,68.0
929,170.72896340833333,170.94232137499998,68.0,56.0
930,170.72896340833333,170.94927869999998,63.0,89.0
931,170.72896340833333,170.96087424166666,60.0,75.0
932,171.2863828708333,171.69272202291666,58.0,53.0
933,171.57236937083331,172.19558161874997,70.0,89.0
934,171.57236937083331,172.19677322916664,65.0,89.0
935,171.57236937083331,172.2063061125,62.0,84.0
936,171.85835587083332,172.4911010020833,58.0,27.0
937,172.4303288708333,172.7806623333333,70.0,89.0
938,172.4303288708333,172.78542877499999,62.0,84.0
939,172.4303288708333,172.79734487916664,65.0,89.0
940,171.00725640833332,172.9772780520833,46.0,89.0
941,172.7163153708333,173.10835519791664,58.0,62.0
942,173.00230187083332,173.21560013541665,70.0,68.0
943,173.00230187083332,173.22155818749997,65.0,89.0
944,173.00230187083332,173.23704912291663,62.0,84.0
945,173.5742748708333,173.94486571041665,58.0,38.0
946,173.8602613708333,174.4000608895833,67.0,75.0
947,173.8602613708333,174.41674343541663,70.0,84.0
948,173.8602613708333,174.4322343708333,63.0,84.0
949,174.14624787083332,174.72775375416666,58.0,56.0
950,174.7182208708333,175.07093755416665,67.0,89.0
951,174.7182208708333,175.07093755416665,70.0,89.0
952,174.7182208708333,175.07332077499998,63.0,89.0
953,173.2882883708333,175.359307275,51.0,75.0
954,175.0042073708333,175.3938639770833,58.0,84.0
955,175.29019387083332,175.43080389999997,70.0,89.0
956,175.29019387083332,175.4439116145833,63.0,89.0
957,175.29019387083332,175.44510322499997,67.0,89.0
958,175.8621668708333,176.2125003333333,56.0,53.0
959,176.1481533708333,176.69867738333332,68.0,75.0
960,176.1481533708333,176.7058270458333,60.0,89.0
961,176.1481533708333,176.70701865624997,63.0,89.0
962,176.43413987083332,177.05020245625,56.0,62.0
963,177.0061128708333,177.33142251458332,68.0,75.0
964,177.0061128708333,177.34691345,63.0,89.0
965,177.0061128708333,177.3564463333333,60.0,89.0
966,175.5761803708333,177.54591238958332,44.0,89.0
967,177.2920993708333,177.7318036145833,56.0,49.0
968,177.57808587083332,177.80449184999998,68.0,75.0
969,177.57808587083332,177.83309049999997,60.0,89.0
970,177.57808587083332,177.83309049999997,63.0,89.0
971,178.1500588708333,178.42412926666665,58.0,53.0
972,178.4360453708333,178.97346166875,70.0,89.0
973,178.4360453708333,178.9758448895833,65.0,89.0
974,178.4360453708333,178.9794197208333,62.0,89.0
975,178.72203187083332,179.3202203,58.0,53.0
976,179.2940048708333,179.6121648520833,62.0,89.0
977,179.2940048708333,179.6228893458333,70.0,84.0
978,179.2940048708333,179.62884739791664,65.0,89.0
979,177.8640723708333,179.76469098541665,46.0,89.0
980,179.5799913708333,179.95058221041666,58.0,84.0
981,179.86597787083332,180.04829426458332,62.0,89.0
982,179.86597787083332,180.06140197916665,70.0,62.0
983,179.86597787083332,180.08285096666665,65.0,89.0
984,189.37577369583332,189.80757054791664,53.0,56.0
985,189.6551031958333,190.25333387499998,68.0,62.0
986,189.6551031958333,190.2766113333333,65.0,89.0
987,189.6551031958333,190.2801029520833,60.0,89.0
988,189.93443269583332,190.59900413124998,53.0,53.0
989,190.4930916958333,190.79802639999997,68.0,75.0
990,190.4930916958333,190.8108290020833,60.0,84.0
991,190.4930916958333,190.83643420624998,65.0,89.0
992,189.0964441958333,191.01799838124998,41.0,84.0
993,190.77242119583332,191.05058682291664,53.0,53.0
994,191.0517506958333,191.25892007499996,68.0,45.0
995,191.0517506958333,191.26124782083332,65.0,75.0
996,191.0517506958333,191.28219753333332,60.0,62.0
997,191.6104096958333,192.00030712291664,56.0,28.0
998,191.8897391958333,192.44723432291664,68.0,42.0
999,191.8897391958333,192.46469241666665,63.0,84.0
1000,191.8897391958333,192.4728395270833,60.0,68.0
1001,192.16906869583332,192.78592134166664,56.0,49.0
1002,192.72772769583332,193.05477598541665,68.0,68.0
1003,192.72772769583332,193.06757858749998,63.0,89.0
1004,192.72772769583332,193.07107020624997,60.0,68.0
1005,193.0070571958333,193.23517628749997,56.0,56.0
1006,191.3310801958333,193.32712224791663,44.0,89.0
1007,193.2863866958333,193.47377023541665,68.0,38.0
1008,193.2863866958333,193.48308121875,60.0,62.0
1009,193.2863866958333,193.4889005833333,63.0,89.0
1010,193.8450456958333,194.22795988541665,55.0,75.0
1011,194.1243751958333,194.46538996041664,70.0,75.0
1012,194.1243751958333,194.50030614791663,62.0,75.0
1013,194.1243751958333,194.5259113520833,67.0,68.0
1014,194.4037046958333,195.07293162291666,55.0,68.0
1015,194.96236369583332,195.24402094166663,70.0,75.0
1016,194.96236369583332,195.2905758583333,62.0,75.0
1017,194.96236369583332,195.31268944374997,67.0,89.0
1018,193.56571619583332,195.50589234791664,43.0,62.0
1019,195.2416931958333,195.5314975520833,55.0,75.0
1020,195.5210226958333,195.9644582770833,46.0,89.0
1021,195.5210226958333,195.9679498958333,70.0,89.0
1022,195.5210226958333,195.9784247520833,58.0,84.0
1023,195.5210226958333,195.99122735416665,65.0,89.0
1024,195.5210226958333,196.00868544791663,62.0,89.0
1025,196.0796816958333,196.17162765624997,70.0,89.0
1026,196.0796816958333,196.17395540208332,62.0,53.0
1027,196.0796816958333,196.17977476666664,46.0,89.0
1028,196.0796816958333,196.18559413124999,65.0,84.0
1029,196.0796816958333,196.20654384374998,58.0,56.0
1030,196.35901119583332,196.44164617291665,46.0,89.0
1031,196.35901119583332,196.46492363124997,58.0,89.0
1032,196.35901119583332,196.48238172499998,70.0,89.0
1033,196.35901119583332,196.49052883541663,62.0,75.0
1034,196.35901119583332,196.4951843270833,65.0,89.0
1035,196.6383406958333,196.76869446249998,70.0,89.0
1036,196.6383406958333,196.7710222083333,46.0,89.0
1037,196.6383406958333,196.77567769999996,62.0,89.0
1038,196.6383406958333,196.77800544583332,58.0,84.0
1039,196.6383406958333,196.78848030208331,65.0,89.0
1040,198.54056333333332,198.7929328333333,60.0,56.0
1041,198.25146399999997,199.10454399999998,56.0,30.0
1042,198.8237385,199.49079966666665,63.0,89.0
1043,199.66970949999998,199.98605999999998,60.0,89.0
1044,197.9718433333333,200.08321633333333,44.0,68.0
1045,199.39364333333333,200.0903253333333,56.0,42.0
1046,199.94103633333333,200.22302666666664,63.0,89.0
1047,200.7941163333333,201.10928199999998,60.0,68.0
1048,200.5227895,201.25027716666665,56.0,42.0
1049,201.07729149999997,201.71947116666666,63.0,89.0
1050,201.62705416666665,201.86994499999997,56.0,56.0
1051,200.24316883333333,201.96710133333332,44.0,89.0
1052,201.92444733333332,202.2573855,60.0,89.0
1053,202.21354666666664,202.39008683333333,63.0,89.0
1054,203.06662666666665,203.30122366666666,62.0,75.0
1055,202.78226666666666,203.5512235,55.0,53.0
1056,203.34506249999998,204.01923266666665,65.0,89.0
1057,204.21828466666665,204.42089116666665,62.0,75.0
1058,203.93984883333331,204.542929,55.0,75.0
1059,202.50857016666666,204.877052,43.0,53.0
1060,204.48013283333333,204.87823683333332,65.0,89.0
1061,205.38416066666665,205.623497,60.0,56.0
1062,205.09861583333333,205.77634049999998,55.0,53.0
1063,205.659042,206.31005789999998,63.0,89.0
1064,204.805962,206.65678100625,48.0,75.0
1065,206.20761983333333,206.71176298749998,55.0,49.0
1066,206.51091044375,206.86798475625,60.0,89.0
1067,206.78020994374998,206.99344948125,63.0,89.0
1068,207.35125628958332,207.74159098958333,55.0,25.0
1069,207.64400731458332,208.12960226874998,63.0,75.0
1070,207.65213928749998,208.16096844999998,60.0,75.0
1071,207.64865415625,208.17723239583333,67.0,53.0
1072,207.91352413125,208.49437933958333,55.0,56.0
1073,208.44791092291666,208.80687944166667,63.0,89.0
1074,208.45139605416665,208.80804115208332,60.0,75.0
1075,208.44326408125,208.82081996666665,67.0,75.0
1076,207.05734355416666,209.07871967916665,48.0,89.0
1077,208.73601510625,209.0868516520833,55.0,68.0
1078,209.00901705416666,209.15887769791667,60.0,62.0
1079,209.01714902708332,209.1704948020833,67.0,68.0
1080,209.01366389583333,209.18675874791666,63.0,84.0
1081,209.5643146333333,209.959296175,55.0,27.0
1082,209.84196342291665,210.39842271249998,63.0,89.0
1083,209.84661026458332,210.43211231458332,60.0,84.0
1084,209.83847829166666,210.44372941875,67.0,62.0
1085,210.1335527375,210.76436149375,55.0,62.0
1086,210.68071834375,211.04201028333333,63.0,84.0
1087,210.68420347499998,211.0536273875,60.0,75.0
1088,210.67607150208332,211.05827422916664,67.0,68.0
1089,209.29247439583332,211.3487018333333,48.0,75.0
1090,211.00715897083333,211.3742594625,55.0,62.0
1091,211.241824475,211.51831155416664,60.0,53.0
1092,211.23717763333332,211.5345755,63.0,56.0
1093,211.24530960624998,211.5403840520833,67.0,75.0
1094,211.84359047083333,212.2037207,58.0,53.0
1095,212.12240097083333,212.49182488333332,63.0,84.0
1096,212.12240097083333,212.50228027708332,67.0,89.0
1097,212.12240097083333,212.51622080208332,70.0,84.0
1098,212.40121147083332,212.95650905,58.0,38.0
1099,212.95883247083333,213.19117455416665,63.0,84.0
1100,212.95883247083333,213.20162994791664,70.0,89.0
1101,212.95883247083333,213.23531954999999,67.0,89.0
1102,213.23764297083332,213.49089584166666,58.0,68.0
1103,213.5164534708333,213.78829370833333,63.0,89.0
1104,213.5164534708333,213.78829370833333,67.0,89.0
1105,213.5164534708333,213.80688107499998,70.0,89.0
1106,213.79526397083333,214.3296507625,58.0,89.0
1107,214.35288497083332,214.60729955208333,63.0,89.0
1108,214.35288497083332,214.62937205,67.0,89.0
1109,214.35288497083332,214.64331257499998,70.0,89.0
1110,214.63169547083334,215.11380529374998,58.0,49.0
1111,214.91050597083333,215.18699304999998,63.0,89.0
1112,214.91050597083333,215.18699304999998,67.0,89.0
1113,214.91050597083333,215.19512502291667,70.0,89.0
1114,215.4681269708333,215.730673525,58.0,84.0
1115,211.5647799708333,215.74229062916666,51.0,84.0
1116,215.74693747083333,215.99786692083333,67.0,89.0
1117,215.74693747083333,216.01529257708333,70.0,89.0
1118,215.74693747083333,216.02342455,63.0,89.0
1119,216.3045584708333,216.66933554166667,56.0,56.0
1120,216.58336897083333,217.1665476,68.0,84.0
1121,216.58336897083333,217.18513496666665,60.0,89.0
1122,216.58336897083333,217.18513496666665,63.0,89.0
1123,216.86217947083333,217.51389901458333,56.0,49.0
1124,217.4198004708333,217.76715188541667,68.0,75.0
1125,217.4198004708333,217.78341583124998,63.0,89.0
1126,217.4198004708333,217.79735635625,60.0,89.0
1127,216.02574797083332,218.14122263958333,44.0,89.0
1128,217.97742147083332,218.14122263958333,68.0,68.0
1129,217.69861097083333,218.15748658541665,56.0,53.0
1130,217.97742147083332,218.16561855833334,63.0,89.0
1131,217.97742147083332,218.17375053125,60.0,75.0
1132,218.53504247083333,218.92305374999998,56.0,38.0
1133,218.81385297083332,219.28908779999998,68.0,62.0
1134,218.81385297083332,219.299711025,63.0,89.0
1135,218.81385297083332,219.32685926666664,60.0,89.0
1136,219.09314831666666,219.6431953,56.0,45.0
1137,219.65972031666666,219.99612244166664,68.0,62.0
1138,219.65972031666666,219.99966351666666,63.0,89.0
1139,219.65972031666666,220.00438495,60.0,84.0
1140,218.2562319708333,220.213308375,44.0,84.0
1141,219.94300631666667,220.34786922499998,56.0,62.0
1142,220.22629231666664,220.41042821666665,68.0,62.0
1143,220.22629231666664,220.4340353833333,60.0,75.0
1144,220.22629231666664,220.4411175333333,63.0,89.0
1145,220.79286431666665,221.15523432499998,58.0,56.0
1146,221.07615031666666,221.6096722833333,70.0,89.0
1147,221.07615031666666,221.63327945,65.0,89.0
1148,221.07615031666666,221.650984825,62.0,89.0
1149,221.35943631666666,221.96023870833332,58.0,68.0
1150,221.92600831666667,222.24824614166667,70.0,89.0
1151,221.92600831666667,222.27657474166665,65.0,89.0
1152,221.92600831666667,222.27893545833334,62.0,75.0
1153,220.50957831666665,222.53743393333332,46.0,89.0
1154,222.20929431666664,222.56812324999999,58.0,62.0
1155,222.49258031666665,222.6472072583333,70.0,75.0
1156,222.49258031666665,222.66255191666664,65.0,89.0
1157,222.49258031666665,222.670814425,62.0,68.0
1158,223.05915231666665,223.43450626666666,55.0,62.0
1159,223.34243831666666,223.9349782,63.0,84.0
1160,223.34243831666666,223.95504429166667,60.0,68.0
1161,223.34243831666666,223.96212644166667,67.0,84.0
1162,223.62572431666666,224.27256068333332,55.0,38.0
1163,224.19229631666667,224.52869844166665,63.0,89.0
1164,224.19229631666667,224.53460023333332,60.0,84.0
1165,224.19229631666667,224.561748475,67.0,89.0
1166,222.77586631666665,224.73526114999999,48.0,89.0
1167,224.47558231666665,224.78955763333332,55.0,68.0
1168,224.75886831666665,224.9134952583333,60.0,84.0
1169,224.75886831666665,224.94300421666665,63.0,89.0
1170,224.75886831666665,224.94772565,67.0,68.0
1171,225.32544031666666,225.701974625,56.0,56.0
1172,225.60872631666666,226.23431623333332,68.0,75.0
1173,225.60872631666666,226.24375909999998,63.0,89.0
1174,225.60872631666666,226.25556268333332,60.0,89.0
1175,225.89201231666667,226.54947190833332,56.0,45.0
1176,226.45858431666665,226.79380608333332,68.0,89.0
1177,226.45858431666665,226.7973471583333,63.0,89.0
1178,226.45858431666665,226.799707875,60.0,89.0
1179,225.04215431666665,227.15735644999998,44.0,89.0
1180,226.74187031666665,227.17034039166666,56.0,53.0
1181,227.02515631666665,227.20102970833332,68.0,42.0
1182,227.02515631666665,227.21283329166664,63.0,89.0
1183,227.02515631666665,227.2187350833333,60.0,68.0
1184,227.30844231666666,227.79002851666667,46.0,89.0
1185,227.59172831666666,227.80183209999998,58.0,34.0
1186,227.87501431666666,229.44134982499997,46.0,75.0
1187,227.87501431666666,229.49210523333332,70.0,89.0
1188,227.87501431666666,229.498007025,58.0,62.0
1189,227.87501431666666,229.51453204166666,65.0,89.0
1190,227.87501431666666,229.53223741666665,62.0,89.0
1191,229.79663768333333,230.1932380833333,51.0,42.0
1192,230.08936655,230.71259575,58.0,84.0
1193,230.0940879833333,230.7196779,63.0,56.0
1194,230.09762905833333,230.73502255833333,55.0,75.0
1195,230.39625971666666,231.08322826666665,51.0,75.0
1196,230.97817637499998,231.29805348333332,63.0,56.0
1197,230.97345494166666,231.29923384166665,58.0,84.0
1198,230.98171745,231.30985706666667,55.0,68.0
1199,229.52751598333333,231.63917704166664,39.0,89.0
1200,231.23785520833331,231.66160384999998,51.0,49.0
1201,231.509337625,231.8150504333333,58.0,68.0
1202,231.51523941666665,231.8244933,63.0,49.0
1203,231.51878049166666,231.82567365833333,55.0,68.0
1204,232.08535249166664,232.50319934166666,51.0,75.0
1205,232.37926171666666,232.96589980833332,58.0,89.0
1206,232.38634386666666,232.9718016,63.0,75.0
1207,232.38398314999998,232.9836051833333,55.0,75.0
1208,232.656645925,233.32354838333333,51.0,32.0
1209,233.216135775,233.51948786666665,58.0,75.0
1210,233.21967684999998,233.5289307333333,63.0,56.0
1211,233.223217925,233.54427539166664,55.0,75.0
1212,231.81623079166667,233.70480412499998,39.0,89.0
1213,233.50296285,233.8901203833333,51.0,42.0
1214,233.7791667,233.93497399999998,63.0,49.0
1215,233.77444526666665,233.93969543333333,55.0,68.0
1216,233.78270777499998,233.9491383,58.0,75.0
1217,234.3362958333333,234.71519085833333,56.0,30.0
1218,234.61013896666665,235.21094135833332,63.0,89.0
1219,234.6148604,235.21802350833332,68.0,45.0
1220,234.61840147499998,235.23218780833332,60.0,75.0
1221,234.89224460833333,235.55088455833334,56.0,53.0
1222,235.48124341666664,235.78223479166667,68.0,62.0
1223,235.4729809083333,235.7904973,63.0,89.0
1224,235.47652198333333,235.80466159999997,60.0,89.0
1225,234.06009198333334,236.10919404999999,44.0,32.0
1226,235.74328296666664,236.176474475,56.0,53.0
1227,236.02420825,236.25201740833333,68.0,45.0
1228,236.01948681666664,236.25909955833333,63.0,89.0
1229,236.01594574166666,236.303953175,60.0,62.0
1230,236.32283890833332,238.22557654166667,44.0,89.0
1231,236.45621939999998,238.28931589166666,56.0,42.0
1232,236.49163015,238.30111947499998,63.0,19.0
1233,236.52940161666666,238.31764449166667,68.0,45.0
1234,236.48218728333333,238.35187488333332,60.0,25.0
