,start,end,pitch,velocity
0,16.675,16.815625,70.0,86.0
1,16.925,17.061458333333334,70.0,88.0
2,17.175,17.305208333333333,70.0,88.0
3,17.425,17.563541666666666,70.0,89.0
4,17.675,17.867708333333333,70.0,95.0
5,18.175,18.55625,71.0,91.0
6,18.675,18.925,71.0,86.0
7,19.175,19.304166666666667,71.0,85.0
8,19.425,19.555208333333333,71.0,88.0
9,19.675,19.930208333333333,66.0,85.0
10,20.175,20.390625,61.0,86.0
11,20.675,20.83020833333333,70.0,85.0
12,20.925,21.05625,70.0,84.0
13,21.175,21.327083333333334,70.0,86.0
14,21.425,21.577083333333334,70.0,84.0
15,21.675,22.076041666666665,70.0,85.0
16,22.175,22.916666666666668,68.0,84.0
17,24.675,24.816666666666666,70.0,87.0
18,24.925,25.055208333333333,70.0,83.0
19,25.175,25.315625,70.0,85.0
20,25.425,25.551041666666666,70.0,85.0
21,25.675,25.857291666666665,70.0,85.0
22,26.175,26.589583333333334,71.0,87.0
23,26.675,27.175,71.0,83.0
24,27.175,27.3,71.0,85.0
25,27.425,27.583333333333332,71.0,84.0
26,27.675,28.10625,66.0,90.0
27,28.175,28.318749999999998,61.0,91.0
28,28.675,28.815625,70.0,83.0
29,28.925,29.073958333333334,70.0,85.0
30,29.175,29.3,70.0,84.0
31,29.425,29.591666666666665,70.0,84.0
32,29.675,30.117708333333333,73.0,86.0
33,30.175,31.53333333333333,65.0,89.0
34,32.675,32.81666666666666,71.0,85.0
35,32.925,33.045833333333334,71.0,80.0
36,33.175,33.28333333333333,71.0,84.0
37,33.425,33.557291666666664,71.0,80.0
38,33.675,33.79895833333333,71.0,80.0
39,33.925,34.04479166666667,71.0,84.0
40,34.175,34.415625,71.0,84.0
41,34.675,34.80520833333333,70.0,84.0
42,34.925,35.35208333333333,70.0,86.0
43,35.425,35.58541666666667,68.0,83.0
44,35.675,35.821875,66.0,85.0
45,35.925,36.06666666666666,68.0,86.0
46,36.175,36.501041666666666,68.0,85.0
47,36.675,36.81458333333333,70.0,85.0
48,36.925,37.276041666666664,70.0,88.0
49,37.425,37.571875,68.0,83.0
50,37.675,37.834375,68.0,85.0
51,37.925,38.03333333333333,70.0,85.0
52,38.175,38.67604166666666,66.0,84.0
53,38.675,39.271875,63.0,85.0
54,40.675,40.8,71.0,84.0
55,40.925,41.05520833333333,71.0,85.0
56,41.175,41.31041666666667,71.0,90.0
57,41.425,41.55,71.0,82.0
58,41.675,41.828125,71.0,86.0
59,42.175,42.56041666666667,71.0,90.0
60,42.675,42.775,71.0,86.0
61,42.925,43.05,71.0,85.0
62,43.175,43.295833333333334,71.0,88.0
63,43.425,43.65208333333333,71.0,91.0
64,43.675,43.91875,71.0,91.0
65,43.925,44.0875,73.0,84.0
66,44.175,45.925,73.0,85.0
67,46.925,47.07083333333333,75.0,93.0
68,47.175,47.329166666666666,75.0,93.0
69,47.425,47.6375,78.0,91.0
70,47.675,47.809375,75.0,101.0
71,47.925,48.134375,78.0,86.0
72,48.175,48.32083333333333,75.0,95.0
73,48.425,48.907291666666666,78.0,88.0
74,48.925,49.467708333333334,75.0,98.0
75,49.675,49.80104166666666,78.0,85.0
76,49.925,50.11875,78.0,88.0
77,50.175,50.346875,75.0,95.0
78,50.425,50.92395833333333,78.0,86.0
79,50.925,51.35729166666667,75.0,95.0
80,51.675,51.8,73.0,87.0
81,51.925,52.059374999999996,73.0,86.0
82,52.175,52.34166666666667,73.0,87.0
83,52.425,52.77916666666667,78.0,85.0
84,52.925,53.30104166666666,78.0,85.0
85,53.425,53.56666666666666,78.0,83.0
86,53.675,54.09791666666666,78.0,86.0
87,54.175,55.11666666666667,77.0,90.0
88,55.175,55.293749999999996,77.0,87.0
89,55.425,55.55520833333333,77.0,90.0
90,55.675,55.797916666666666,77.0,90.0
91,55.925,56.045833333333334,77.0,86.0
92,56.175,56.34791666666666,77.0,86.0
93,56.425,56.8625,78.0,86.0
94,56.925,57.40833333333333,75.0,95.0
95,57.675,57.815625,78.0,85.0
96,57.925,58.1125,78.0,86.0
97,58.175,58.354166666666664,75.0,91.0
98,58.425,58.880208333333336,78.0,85.0
99,58.925,59.34166666666667,75.0,91.0
100,59.675,59.74791666666667,73.0,84.0
101,59.925,60.040625,73.0,91.0
102,60.175,60.31041666666667,73.0,91.0
103,60.425,60.545833333333334,82.0,90.0
104,60.675,60.8,82.0,87.0
105,60.925,61.05520833333333,82.0,86.0
106,61.175,61.552083333333336,82.0,86.0
107,61.675,62.074999999999996,82.0,86.0
108,62.175,63.425,80.0,85.0
109,63.925,64.07291666666667,75.0,89.0
110,64.175,64.321875,77.0,90.0
111,64.425,64.61354166666666,78.0,86.0
112,64.675,64.83125,75.0,95.0
113,64.925,65.1125,78.0,90.0
114,65.175,65.31666666666666,75.0,88.0
115,65.425,65.61770833333333,78.0,86.0
116,65.675,65.96458333333334,75.0,95.0
117,66.175,66.6125,78.0,88.0
118,66.675,66.80625,75.0,89.0
119,66.925,67.1,78.0,90.0
120,67.175,67.28958333333333,75.0,91.0
121,67.425,67.634375,78.0,90.0
122,67.675,67.96354166666667,75.0,95.0
123,68.425,68.60208333333333,78.0,86.0
124,68.675,68.81666666666666,78.0,83.0
125,68.925,69.053125,78.0,86.0
126,69.175,69.321875,78.0,85.0
127,69.425,69.55104166666666,78.0,83.0
128,69.675,70.08958333333334,78.0,88.0
129,70.175,71.02916666666667,77.0,91.0
130,71.175,71.3,77.0,88.0
131,71.425,71.57395833333334,77.0,88.0
132,71.675,72.025,77.0,95.0
133,72.175,72.63333333333333,78.0,88.0
134,72.675,72.81041666666667,75.0,87.0
135,72.925,73.14479166666666,78.0,86.0
136,73.175,73.32083333333333,75.0,87.0
137,73.425,73.63333333333333,78.0,86.0
138,73.675,73.99375,75.0,91.0
139,74.175,74.67395833333333,78.0,86.0
140,74.675,74.81666666666666,75.0,91.0
141,74.925,75.121875,78.0,88.0
142,75.175,75.31041666666667,75.0,95.0
143,75.425,75.63645833333334,78.0,88.0
144,75.675,76.003125,75.0,95.0
145,76.425,76.54479166666667,82.0,86.0
146,76.675,76.784375,82.0,83.0
147,76.925,77.05104166666666,82.0,82.0
148,77.175,77.29583333333333,82.0,84.0
149,77.425,77.55,82.0,84.0
150,77.675,78.071875,82.0,86.0
151,78.175,78.85104166666666,80.0,86.0
152,78.925,79.04270833333334,77.0,91.0
153,79.175,79.31041666666667,77.0,84.0
154,79.425,79.55416666666666,77.0,86.0
155,79.675,80.071875,77.0,91.0
156,80.175,83.01666666666667,78.0,85.0
157,88.675,88.815625,70.0,86.0
158,88.925,89.06145833333333,70.0,88.0
159,89.175,89.30520833333333,70.0,88.0
160,89.425,89.56354166666667,70.0,89.0
161,89.675,89.86770833333333,70.0,95.0
162,90.175,90.55625,71.0,91.0
163,90.675,90.925,71.0,86.0
164,91.175,91.30416666666666,71.0,85.0
165,91.425,91.55520833333333,71.0,88.0
166,91.675,91.93020833333333,66.0,85.0
167,92.175,92.390625,61.0,86.0
168,92.675,92.83020833333333,70.0,85.0
169,92.925,93.05625,70.0,84.0
170,93.175,93.32708333333333,70.0,86.0
171,93.425,93.57708333333333,70.0,84.0
172,93.675,94.07604166666667,70.0,85.0
173,94.175,94.91666666666667,68.0,84.0
174,96.675,96.81666666666666,70.0,87.0
175,96.925,97.05520833333333,70.0,83.0
176,97.175,97.315625,70.0,85.0
177,97.425,97.55104166666666,70.0,85.0
178,97.675,97.85729166666667,70.0,85.0
179,98.175,98.58958333333334,71.0,87.0
180,98.675,99.175,71.0,83.0
181,99.175,99.3,71.0,85.0
182,99.425,99.58333333333333,71.0,84.0
183,99.675,100.10625,66.0,90.0
184,100.175,100.31875,61.0,91.0
185,100.675,100.815625,70.0,83.0
186,100.925,101.07395833333334,70.0,85.0
187,101.175,101.3,70.0,84.0
188,101.425,101.59166666666667,70.0,84.0
189,101.675,102.11770833333333,73.0,86.0
190,102.175,103.53333333333333,65.0,89.0
191,104.675,104.81666666666666,71.0,85.0
192,104.925,105.04583333333333,71.0,80.0
193,105.175,105.28333333333333,71.0,84.0
194,105.425,105.55729166666667,71.0,80.0
195,105.675,105.79895833333333,71.0,80.0
196,105.925,106.04479166666667,71.0,84.0
197,106.175,106.41562499999999,71.0,84.0
198,106.675,106.80520833333333,70.0,84.0
199,106.925,107.35208333333333,70.0,86.0
200,107.425,107.58541666666666,68.0,83.0
201,107.675,107.82187499999999,66.0,85.0
202,107.925,108.06666666666666,68.0,86.0
203,108.175,108.50104166666667,68.0,85.0
204,108.675,108.81458333333333,70.0,85.0
205,108.925,109.27604166666667,70.0,88.0
206,109.425,109.57187499999999,68.0,83.0
207,109.675,109.834375,68.0,85.0
208,109.925,110.03333333333333,70.0,85.0
209,110.175,110.67604166666666,66.0,84.0
210,110.675,111.271875,63.0,85.0
211,112.675,112.8,71.0,84.0
212,112.925,113.05520833333333,71.0,85.0
213,113.175,113.31041666666667,71.0,90.0
214,113.425,113.55,71.0,82.0
215,113.675,113.828125,71.0,86.0
216,114.175,114.56041666666667,71.0,90.0
217,114.675,114.77499999999999,71.0,86.0
218,114.925,115.05,71.0,85.0
219,115.175,115.29583333333333,71.0,88.0
220,115.425,115.65208333333334,71.0,91.0
221,115.675,115.91875,71.0,91.0
222,115.925,116.08749999999999,73.0,84.0
223,116.175,117.925,73.0,85.0
224,118.925,119.07083333333333,75.0,93.0
225,119.175,119.32916666666667,75.0,93.0
226,119.425,119.6375,78.0,91.0
227,119.675,119.809375,75.0,101.0
228,119.925,120.13437499999999,78.0,86.0
229,120.175,120.32083333333333,75.0,95.0
230,120.425,120.90729166666667,78.0,88.0
231,120.925,121.46770833333333,75.0,98.0
232,121.675,121.80104166666666,78.0,85.0
233,121.925,122.11874999999999,78.0,88.0
234,122.175,122.346875,75.0,95.0
235,122.425,122.92395833333333,78.0,86.0
236,122.925,123.35729166666667,75.0,95.0
237,123.675,123.8,73.0,87.0
238,123.925,124.059375,73.0,86.0
239,124.175,124.34166666666667,73.0,87.0
240,124.425,124.77916666666667,78.0,85.0
241,124.925,125.30104166666666,78.0,85.0
242,125.425,125.56666666666666,78.0,83.0
243,125.675,126.09791666666666,78.0,86.0
244,126.175,127.11666666666666,77.0,90.0
245,127.175,127.29375,77.0,87.0
246,127.425,127.55520833333333,77.0,90.0
247,127.675,127.79791666666667,77.0,90.0
248,127.925,128.04583333333332,77.0,86.0
249,128.175,128.34791666666666,77.0,86.0
250,128.425,128.8625,78.0,86.0
251,128.925,129.40833333333333,75.0,95.0
252,129.675,129.815625,78.0,85.0
253,129.925,130.1125,78.0,86.0
254,130.175,130.35416666666666,75.0,91.0
255,130.425,130.88020833333334,78.0,85.0
256,130.925,131.34166666666667,75.0,91.0
257,131.675,131.74791666666667,73.0,84.0
258,131.925,132.040625,73.0,91.0
259,132.175,132.31041666666667,73.0,91.0
260,132.425,132.54583333333332,82.0,90.0
261,132.675,132.8,82.0,87.0
262,132.925,133.05520833333333,82.0,86.0
263,133.175,133.55208333333334,82.0,86.0
264,133.675,134.075,82.0,86.0
265,134.175,135.425,80.0,85.0
266,135.925,136.07291666666666,75.0,89.0
267,136.175,136.321875,77.0,90.0
268,136.425,136.61354166666666,78.0,86.0
269,136.675,136.83125,75.0,95.0
270,136.925,137.1125,78.0,90.0
271,137.175,137.31666666666666,75.0,88.0
272,137.425,137.61770833333333,78.0,86.0
273,137.675,137.96458333333334,75.0,95.0
274,138.175,138.6125,78.0,88.0
275,138.675,138.80625,75.0,89.0
276,138.925,139.1,78.0,90.0
277,139.175,139.28958333333333,75.0,91.0
278,139.425,139.634375,78.0,90.0
279,139.675,139.96354166666666,75.0,95.0
280,140.425,140.60208333333333,78.0,86.0
281,140.675,140.81666666666666,78.0,83.0
282,140.925,141.053125,78.0,86.0
283,141.175,141.321875,78.0,85.0
284,141.425,141.55104166666666,78.0,83.0
285,141.675,142.08958333333334,78.0,88.0
286,142.175,143.02916666666667,77.0,91.0
287,143.175,143.3,77.0,88.0
288,143.425,143.57395833333334,77.0,88.0
289,143.675,144.025,77.0,95.0
290,144.175,144.63333333333333,78.0,88.0
291,144.675,144.81041666666667,75.0,87.0
292,144.925,145.14479166666666,78.0,86.0
293,145.175,145.32083333333333,75.0,87.0
294,145.425,145.63333333333333,78.0,86.0
295,145.675,145.99375,75.0,91.0
296,146.175,146.67395833333333,78.0,86.0
297,146.675,146.81666666666666,75.0,91.0
298,146.925,147.121875,78.0,88.0
299,147.175,147.31041666666667,75.0,95.0
300,147.425,147.63645833333334,78.0,88.0
301,147.675,148.003125,75.0,95.0
302,148.425,148.54479166666667,82.0,86.0
303,148.675,148.784375,82.0,83.0
304,148.925,149.05104166666666,82.0,82.0
305,149.175,149.29583333333332,82.0,84.0
306,149.425,149.55,82.0,84.0
307,149.675,150.071875,82.0,86.0
308,150.175,150.85104166666667,80.0,86.0
309,150.925,151.04270833333334,77.0,91.0
310,151.175,151.31041666666667,77.0,84.0
311,151.425,151.55416666666667,77.0,86.0
312,151.675,152.071875,77.0,91.0
313,152.175,155.01666666666665,78.0,85.0
314,160.925,161.07916666666665,78.0,85.0
315,161.175,161.453125,78.0,88.0
316,161.425,161.65833333333333,77.0,84.0
317,161.675,162.009375,75.0,86.0
318,162.175,162.56875,78.0,88.0
319,162.675,162.81145833333332,78.0,84.0
320,162.925,163.05625,78.0,85.0
321,163.175,163.38333333333333,78.0,84.0
322,163.425,163.58125,77.0,88.0
323,163.675,163.971875,75.0,95.0
324,164.675,164.76979166666666,73.0,95.0
325,164.925,165.04479166666667,73.0,86.0
326,165.175,165.30416666666667,73.0,85.0
327,165.425,165.571875,73.0,84.0
328,165.675,166.09375,75.0,91.0
329,166.175,166.425,73.0,86.0
330,166.425,166.61875,68.0,85.0
331,166.675,167.425,70.0,85.0
332,168.675,168.82083333333333,71.0,84.0
333,168.925,169.075,71.0,86.0
334,169.175,169.31770833333334,71.0,85.0
335,169.425,169.56979166666667,71.0,90.0
336,169.675,170.02291666666667,71.0,89.0
337,170.175,171.425,78.0,88.0
338,172.175,172.33333333333334,71.0,93.0
339,172.425,172.55520833333333,73.0,81.0
340,172.675,172.8,73.0,85.0
341,172.925,173.071875,73.0,86.0
342,173.175,173.309375,73.0,84.0
343,173.425,173.58229166666666,73.0,86.0
344,173.675,174.09166666666667,75.0,90.0
345,174.175,174.925,73.0,86.0
346,175.425,175.6375,78.0,91.0
347,175.675,175.809375,75.0,101.0
348,175.925,176.134375,78.0,86.0
349,176.175,176.32083333333333,75.0,95.0
350,176.425,176.90729166666665,78.0,88.0
351,176.925,177.46770833333332,75.0,98.0
352,177.675,177.80104166666666,78.0,85.0
353,177.925,178.11875,78.0,88.0
354,178.175,178.346875,75.0,95.0
355,178.425,178.92395833333333,78.0,86.0
356,178.925,179.35729166666667,75.0,95.0
357,179.675,179.8,73.0,87.0
358,179.925,180.059375,73.0,86.0
359,180.175,180.34166666666667,73.0,87.0
360,180.425,180.77916666666667,78.0,85.0
361,180.925,181.30104166666666,78.0,85.0
362,181.425,181.56666666666666,78.0,83.0
363,181.675,182.09791666666666,78.0,86.0
364,182.175,183.11666666666667,77.0,90.0
365,183.175,183.29375,77.0,87.0
366,183.425,183.55520833333333,77.0,90.0
367,183.675,183.79791666666665,77.0,90.0
368,183.925,184.04583333333332,77.0,86.0
369,184.175,184.34791666666666,77.0,86.0
370,184.425,184.8625,78.0,86.0
371,184.925,185.40833333333333,75.0,95.0
372,185.675,185.815625,78.0,85.0
373,185.925,186.1125,78.0,86.0
374,186.175,186.35416666666666,75.0,91.0
375,186.425,186.88020833333334,78.0,85.0
376,186.925,187.34166666666667,75.0,91.0
377,187.675,187.74791666666667,73.0,84.0
378,187.925,188.040625,73.0,91.0
379,188.175,188.31041666666667,73.0,91.0
380,188.425,188.54583333333332,82.0,90.0
381,188.675,188.8,82.0,87.0
382,188.925,189.05520833333333,82.0,86.0
383,189.175,189.55208333333334,82.0,86.0
384,189.675,190.075,82.0,86.0
385,190.175,191.425,80.0,85.0
386,191.925,192.07291666666666,75.0,89.0
387,192.175,192.321875,77.0,90.0
388,192.425,192.61354166666666,78.0,86.0
389,192.675,192.83125,75.0,95.0
390,192.925,193.1125,78.0,90.0
391,193.175,193.31666666666666,75.0,88.0
392,193.425,193.61770833333333,78.0,86.0
393,193.675,193.96458333333334,75.0,95.0
394,194.175,194.6125,78.0,88.0
395,194.675,194.80625,75.0,89.0
396,194.925,195.1,78.0,90.0
397,195.175,195.28958333333333,75.0,91.0
398,195.425,195.634375,78.0,90.0
399,195.675,195.96354166666666,75.0,95.0
400,196.425,196.60208333333333,78.0,86.0
401,196.675,196.81666666666666,78.0,83.0
402,196.925,197.053125,78.0,86.0
403,197.175,197.321875,78.0,85.0
404,197.425,197.55104166666666,78.0,83.0
405,197.675,198.08958333333334,78.0,88.0
406,198.175,199.02916666666667,77.0,91.0
407,199.175,199.3,77.0,88.0
408,199.425,199.57395833333334,77.0,88.0
409,199.675,200.025,77.0,95.0
410,200.175,200.63333333333333,78.0,88.0
411,200.675,200.81041666666667,75.0,87.0
412,200.925,201.14479166666666,78.0,86.0
413,201.175,201.32083333333333,75.0,87.0
414,201.425,201.63333333333333,78.0,86.0
415,201.675,201.99375,75.0,91.0
416,202.175,202.67395833333333,78.0,86.0
417,202.675,202.81666666666666,75.0,91.0
418,202.925,203.121875,78.0,88.0
419,203.175,203.31041666666667,75.0,95.0
420,203.425,203.63645833333334,78.0,88.0
421,203.675,204.003125,75.0,95.0
422,204.425,204.54479166666667,82.0,86.0
423,204.675,204.784375,82.0,83.0
424,204.92499999999998,205.05104166666666,82.0,82.0
425,205.17499999999998,205.29583333333332,82.0,84.0
426,205.42499999999998,205.54999999999998,82.0,84.0
427,205.67499999999998,206.071875,82.0,86.0
428,206.17499999999998,206.85104166666667,80.0,86.0
429,206.92499999999998,207.04270833333334,77.0,91.0
430,207.17499999999998,207.31041666666667,77.0,84.0
431,207.42499999999998,207.55416666666667,77.0,86.0
432,207.67499999999998,208.071875,77.0,91.0
433,208.17499999999998,209.17499999999998,80.0,85.0
434,209.17499999999998,212.67499999999998,78.0,85.0
