,start,end,pitch,velocity
0,0.425,0.91875,39.0,87.0
1,0.425,0.9739583333333334,51.0,79.0
2,0.425,1.015625,58.0,80.0
3,2.425,3.4166666666666665,59.0,77.0
4,2.425,3.43125,54.0,76.0
5,2.425,3.46875,47.0,83.0
6,4.425,5.484375,58.0,74.0
7,4.425,5.505208333333333,54.0,73.0
8,4.425,5.941666666666666,42.0,84.0
9,6.425,6.754166666666666,56.0,74.0
10,6.425,6.764583333333333,61.0,80.0
11,6.425,7.241666666666666,37.0,80.0
12,7.925,8.316666666666666,49.0,79.0
13,7.925,8.325,53.0,82.0
14,7.925,8.325,56.0,82.0
15,8.425,8.520833333333334,58.0,79.0
16,8.425,8.608333333333333,63.0,86.0
17,8.425,8.716666666666667,66.0,85.0
18,8.675,8.766666666666666,58.0,80.0
19,8.425,9.001041666666666,51.0,88.0
20,8.925,9.014583333333333,58.0,85.0
21,8.925,9.067708333333334,63.0,91.0
22,8.925,9.219791666666666,66.0,88.0
23,9.175,9.304166666666667,58.0,73.0
24,9.425,9.526041666666666,58.0,81.0
25,9.425,9.7375,63.0,85.0
26,9.675,9.785416666666666,58.0,75.0
27,9.425,9.905208333333333,51.0,85.0
28,9.925,9.986458333333333,58.0,81.0
29,9.925,10.15,63.0,88.0
30,9.925,10.196875,66.0,87.0
31,10.175,10.310416666666667,58.0,80.0
32,10.425,10.579166666666666,59.0,86.0
33,10.425,10.744791666666666,63.0,85.0
34,10.675,10.759375,59.0,71.0
35,10.925,11.028125,59.0,91.0
36,10.925,11.060416666666667,63.0,87.0
37,10.675,11.066666666666666,54.0,64.0
38,10.425,11.1,47.0,85.0
39,10.925,11.110416666666666,66.0,85.0
40,11.175,11.285416666666666,59.0,75.0
41,11.425,11.533333333333333,59.0,76.0
42,11.425,11.76875,63.0,79.0
43,11.675,11.785416666666666,59.0,69.0
44,11.925,12.008333333333333,47.0,80.0
45,11.925,12.020833333333334,54.0,83.0
46,11.925,12.021875,59.0,84.0
47,11.925,12.078125,63.0,84.0
48,11.925,12.23125,66.0,82.0
49,12.175,12.280208333333333,59.0,76.0
50,12.425,12.579166666666666,58.0,79.0
51,12.425,12.733333333333333,61.0,82.0
52,12.675,12.794791666666667,58.0,79.0
53,12.425,13.077083333333333,42.0,85.0
54,12.924999999999999,13.077083333333333,61.0,89.0
55,12.924999999999999,13.091666666666667,66.0,83.0
56,13.174999999999999,13.259375,58.0,74.0
57,13.424999999999999,13.498958333333333,58.0,78.0
58,13.424999999999999,13.63125,61.0,85.0
59,13.424999999999999,13.738541666666666,66.0,78.0
60,13.674999999999999,13.838541666666666,58.0,70.0
61,13.924999999999999,14.035416666666666,42.0,84.0
62,13.924999999999999,14.122916666666667,61.0,88.0
63,13.924999999999999,14.229166666666666,66.0,84.0
64,14.174999999999999,14.253124999999999,58.0,81.0
65,14.424999999999999,14.541666666666666,56.0,84.0
66,14.424999999999999,14.706249999999999,61.0,85.0
67,14.674999999999999,14.779166666666667,56.0,83.0
68,14.424999999999999,15.078125,49.0,89.0
69,14.924999999999999,15.202083333333333,65.0,93.0
70,14.924999999999999,15.2125,61.0,87.0
71,15.174999999999999,15.275,56.0,84.0
72,15.424999999999999,15.564583333333333,65.0,82.0
73,15.424999999999999,15.565624999999999,61.0,79.0
74,15.674999999999999,15.779166666666667,56.0,80.0
75,15.924999999999999,16.016666666666666,56.0,84.0
76,15.924999999999999,16.289583333333333,61.0,85.0
77,16.175,16.310416666666665,56.0,84.0
78,15.924999999999999,16.376041666666666,49.0,89.0
79,16.425,16.53333333333333,39.0,86.0
80,16.425,16.757291666666667,63.0,80.0
81,16.425,16.772916666666667,58.0,80.0
82,16.675,16.779166666666665,39.0,84.0
83,16.925,17.034375,39.0,81.0
84,17.175,17.280208333333334,39.0,78.0
85,17.425,17.534375,39.0,79.0
86,16.925,17.584375,63.0,84.0
87,16.925,17.61875,66.0,85.0
88,17.675,17.779166666666665,39.0,81.0
89,17.925,18.042708333333334,58.0,81.0
90,17.925,18.044791666666665,39.0,79.0
91,17.925,18.233333333333334,63.0,85.0
92,17.925,18.251041666666666,66.0,82.0
93,18.175,18.273958333333333,39.0,80.0
94,18.175,18.352083333333333,58.0,83.0
95,18.425,18.514583333333334,47.0,79.0
96,18.425,18.592708333333334,59.0,72.0
97,18.425,18.764583333333334,63.0,85.0
98,18.675,18.777083333333334,47.0,78.0
99,18.925,19.028125,47.0,78.0
100,18.925,19.11875,59.0,82.0
101,18.925,19.160416666666666,66.0,85.0
102,19.175,19.273958333333333,47.0,79.0
103,19.425,19.51770833333333,47.0,80.0
104,19.675,19.779166666666665,59.0,86.0
105,19.675,19.780208333333334,47.0,83.0
106,19.925,20.032291666666666,47.0,83.0
107,19.925,20.055208333333333,59.0,87.0
108,19.925,20.15,63.0,86.0
109,20.175,20.28333333333333,47.0,79.0
110,20.425,20.534375,42.0,80.0
111,20.675,20.773958333333333,42.0,79.0
112,20.425,20.825,58.0,84.0
113,20.425,20.84375,61.0,85.0
114,20.925,21.029166666666665,42.0,76.0
115,20.925,21.186458333333334,58.0,85.0
116,20.925,21.225,61.0,86.0
117,20.925,21.28125,66.0,84.0
118,21.175,21.289583333333333,42.0,74.0
119,21.425,21.530208333333334,42.0,76.0
120,21.675,21.764583333333334,61.0,75.0
121,21.675,21.780208333333334,42.0,79.0
122,21.675,21.826041666666665,58.0,80.0
123,21.925,22.029166666666665,42.0,77.0
124,21.925,22.096875,58.0,78.0
125,21.925,22.194791666666667,61.0,85.0
126,21.925,22.232291666666665,66.0,88.0
127,22.175,22.263541666666665,58.0,71.0
128,22.175,22.26875,42.0,80.0
129,22.425,22.528125,37.0,82.0
130,22.425,22.613541666666666,56.0,85.0
131,22.425,22.727083333333333,61.0,84.0
132,22.675,22.764583333333334,37.0,74.0
133,22.675,22.8,56.0,80.0
134,22.925,23.034375,37.0,76.0
135,22.925,23.097916666666666,56.0,74.0
136,22.925,23.098958333333332,65.0,85.0
137,22.925,23.104166666666668,61.0,86.0
138,23.175,23.294791666666665,37.0,73.0
139,23.425,23.544791666666665,37.0,72.0
140,23.675,23.780208333333334,37.0,78.0
141,23.675,23.794791666666665,56.0,84.0
142,23.925,24.04895833333333,37.0,72.0
143,24.175,24.279166666666665,37.0,74.0
144,24.175,24.354166666666668,56.0,84.0
145,23.925,24.354166666666668,65.0,91.0
146,23.925,24.363541666666666,61.0,89.0
147,24.425,24.53333333333333,39.0,86.0
148,24.425,24.757291666666667,63.0,80.0
149,24.425,24.772916666666667,58.0,80.0
150,24.675,24.779166666666665,39.0,84.0
151,24.925,25.034375,39.0,81.0
152,25.175,25.280208333333334,39.0,78.0
153,25.425,25.534375,39.0,79.0
154,24.925,25.584375,63.0,84.0
155,24.925,25.61875,66.0,85.0
156,25.675,25.779166666666665,39.0,81.0
157,25.925,26.042708333333334,58.0,81.0
158,25.925,26.044791666666665,39.0,79.0
159,25.925,26.233333333333334,63.0,85.0
160,25.925,26.251041666666666,66.0,82.0
161,26.175,26.273958333333333,39.0,80.0
162,26.175,26.352083333333333,58.0,83.0
163,26.425,26.514583333333334,47.0,79.0
164,26.425,26.592708333333334,59.0,72.0
165,26.425,26.764583333333334,63.0,85.0
166,26.675,26.777083333333334,47.0,78.0
167,26.925,27.028125,47.0,78.0
168,26.925,27.11875,59.0,82.0
169,26.925,27.160416666666666,66.0,85.0
170,27.175,27.273958333333333,47.0,79.0
171,27.425,27.51770833333333,47.0,80.0
172,27.675,27.779166666666665,59.0,86.0
173,27.675,27.780208333333334,47.0,83.0
174,27.925,28.032291666666666,47.0,83.0
175,27.925,28.055208333333333,59.0,87.0
176,27.925,28.15,63.0,86.0
177,28.175,28.28333333333333,47.0,79.0
178,28.425,28.534375,42.0,80.0
179,28.675,28.773958333333333,42.0,79.0
180,28.425,28.825,58.0,84.0
181,28.425,28.84375,61.0,85.0
182,28.925,29.029166666666665,42.0,76.0
183,28.925,29.186458333333334,58.0,85.0
184,28.925,29.224999999999998,61.0,86.0
185,28.925,29.28125,66.0,84.0
186,29.175,29.289583333333333,42.0,74.0
187,29.425,29.530208333333334,42.0,76.0
188,29.675,29.764583333333334,61.0,75.0
189,29.675,29.780208333333334,42.0,79.0
190,29.675,29.826041666666665,58.0,80.0
191,29.925,30.029166666666665,42.0,77.0
192,29.925,30.096875,58.0,78.0
193,29.925,30.194791666666667,61.0,85.0
194,29.925,30.232291666666665,66.0,88.0
195,30.175,30.263541666666665,58.0,71.0
196,30.175,30.26875,42.0,80.0
197,30.425,30.528125,37.0,82.0
198,30.425,30.613541666666666,56.0,85.0
199,30.425,30.727083333333333,61.0,84.0
200,30.675,30.764583333333334,37.0,74.0
201,30.675,30.8,56.0,80.0
202,30.925,31.034375,37.0,76.0
203,30.925,31.097916666666666,56.0,74.0
204,30.925,31.098958333333332,65.0,85.0
205,30.925,31.104166666666668,61.0,86.0
206,31.175,31.294791666666665,37.0,73.0
207,31.425,31.544791666666665,37.0,72.0
208,31.675,31.780208333333334,37.0,78.0
209,31.675,31.794791666666665,56.0,84.0
210,31.925,32.04895833333333,37.0,72.0
211,32.175,32.27916666666667,37.0,74.0
212,32.175,32.354166666666664,56.0,84.0
213,31.925,32.354166666666664,65.0,91.0
214,31.925,32.36354166666666,61.0,89.0
215,32.425,32.552083333333336,44.0,85.0
216,32.675,32.78333333333333,44.0,79.0
217,32.425,32.78541666666666,63.0,81.0
218,32.425,32.78958333333333,56.0,74.0
219,32.425,32.803125,59.0,75.0
220,32.925,33.034375,44.0,77.0
221,32.925,33.225,63.0,82.0
222,32.925,33.22708333333333,56.0,77.0
223,32.925,33.265625,59.0,73.0
224,33.175,33.278125,44.0,76.0
225,33.425,33.53958333333333,44.0,73.0
226,33.675,33.778125,44.0,78.0
227,33.675,33.82083333333333,56.0,72.0
228,33.925,34.01875,56.0,82.0
229,33.925,34.036458333333336,44.0,77.0
230,33.925,34.12083333333333,63.0,83.0
231,33.925,34.13333333333333,59.0,86.0
232,34.175,34.27916666666667,44.0,79.0
233,34.175,34.415625,56.0,73.0
234,34.425,34.53958333333333,37.0,86.0
235,34.425,34.6875,61.0,79.0
236,34.425,34.704166666666666,65.0,86.0
237,34.675,34.78541666666666,37.0,75.0
238,34.925,35.02708333333333,56.0,81.0
239,34.925,35.040625,37.0,74.0
240,34.925,35.077083333333334,65.0,85.0
241,34.925,35.1,61.0,82.0
242,35.175,35.26979166666666,37.0,83.0
243,35.175,35.3,56.0,73.0
244,35.425,35.536458333333336,37.0,81.0
245,35.675,35.78333333333333,56.0,76.0
246,35.675,35.78541666666666,37.0,73.0
247,35.925,36.030208333333334,37.0,74.0
248,35.925,36.128125,61.0,86.0
249,35.925,36.229166666666664,65.0,88.0
250,36.175,36.30520833333333,56.0,80.0
251,36.175,36.307291666666664,37.0,79.0
252,36.425,36.530208333333334,42.0,81.0
253,36.425,36.55104166666666,58.0,77.0
254,36.425,36.70625,61.0,80.0
255,36.675,36.775,42.0,84.0
256,36.675,36.82395833333333,58.0,72.0
257,36.925,36.96666666666667,58.0,72.0
258,36.925,37.030208333333334,42.0,84.0
259,36.925,37.215625,61.0,86.0
260,36.925,37.270833333333336,66.0,82.0
261,37.175,37.30416666666667,42.0,84.0
262,37.425,37.525,41.0,88.0
263,37.675,37.775,41.0,85.0
264,37.425,37.79479166666667,65.0,79.0
265,37.425,37.81041666666667,61.0,83.0
266,37.925,38.01875,41.0,86.0
267,38.175,38.284375,41.0,85.0
268,37.925,38.364583333333336,65.0,85.0
269,37.925,38.369791666666664,61.0,82.0
270,38.425,38.54895833333333,39.0,86.0
271,38.425,38.72083333333333,66.0,80.0
272,38.425,38.735416666666666,58.0,76.0
273,38.425,38.74583333333333,63.0,82.0
274,38.675,38.776041666666664,39.0,86.0
275,38.925,39.025,39.0,86.0
276,38.925,39.06666666666666,63.0,86.0
277,38.925,39.104166666666664,66.0,85.0
278,39.175,39.27916666666667,39.0,85.0
279,39.175,39.28333333333333,58.0,66.0
280,39.425,39.52395833333333,39.0,85.0
281,39.675,39.775,39.0,83.0
282,39.675,39.79479166666667,58.0,73.0
283,39.925,40.03854166666667,39.0,85.0
284,39.925,40.225,66.0,85.0
285,39.925,40.233333333333334,63.0,85.0
286,40.175,40.295833333333334,39.0,86.0
287,40.175,40.327083333333334,58.0,79.0
288,40.425,40.534375,44.0,87.0
289,40.425,40.62916666666666,63.0,84.0
290,40.425,40.63333333333333,59.0,83.0
291,40.675,40.775,44.0,80.0
292,40.675,40.780208333333334,56.0,44.0
293,40.925,41.021875,44.0,84.0
294,40.925,41.06041666666667,56.0,84.0
295,40.925,41.061458333333334,59.0,86.0
296,40.925,41.06666666666666,63.0,84.0
297,41.175,41.275,44.0,84.0
298,41.425,41.525,44.0,84.0
299,41.675,41.77916666666667,44.0,81.0
300,41.675,41.79479166666667,56.0,78.0
301,41.925,42.040625,44.0,86.0
302,41.925,42.24791666666667,59.0,89.0
303,41.925,42.26979166666666,63.0,85.0
304,42.175,42.271875,44.0,79.0
305,42.175,42.364583333333336,56.0,78.0
306,42.425,42.51354166666667,47.0,85.0
307,42.425,42.69375,63.0,84.0
308,42.425,42.72083333333333,59.0,84.0
309,42.675,42.76770833333333,47.0,82.0
310,42.675,42.807291666666664,54.0,80.0
311,42.925,43.01979166666666,47.0,82.0
312,42.925,43.02916666666667,59.0,88.0
313,42.925,43.06666666666666,63.0,85.0
314,43.175,43.275,47.0,80.0
315,43.425,43.51979166666666,47.0,85.0
316,43.675,43.77395833333333,47.0,84.0
317,43.675,43.791666666666664,54.0,84.0
318,43.925,44.01979166666666,47.0,86.0
319,43.925,44.046875,59.0,91.0
320,43.925,44.228125,63.0,86.0
321,44.175,44.27291666666667,47.0,90.0
322,44.175,44.275,54.0,86.0
323,44.425,44.51875,37.0,85.0
324,44.425,44.55104166666666,56.0,84.0
325,44.425,44.57604166666667,65.0,88.0
326,44.425,44.588541666666664,61.0,85.0
327,44.675,44.75833333333333,37.0,80.0
328,44.675,44.76875,56.0,84.0
329,44.925,45.02395833333333,37.0,85.0
330,44.925,45.036458333333336,61.0,89.0
331,44.925,45.06041666666667,65.0,90.0
332,45.175,45.27708333333333,56.0,79.0
333,45.175,45.278125,37.0,83.0
334,45.425,45.503125,56.0,85.0
335,45.425,45.52916666666667,37.0,85.0
336,45.425,45.55104166666666,61.0,87.0
337,45.425,45.579166666666666,65.0,88.0
338,45.675,45.770833333333336,37.0,86.0
339,45.675,45.784375,56.0,76.0
340,45.925,46.01979166666666,37.0,85.0
341,45.925,46.01979166666666,56.0,87.0
342,45.925,46.071875,61.0,91.0
343,45.925,46.13229166666667,65.0,87.0
344,46.175,46.284375,37.0,85.0
345,46.175,46.33229166666666,56.0,86.0
346,46.425,46.634375,65.0,93.0
347,46.425,46.63854166666667,56.0,89.0
348,46.425,46.640625,61.0,91.0
349,46.425,48.30625,37.0,91.0
350,48.425,48.547916666666666,58.0,83.0
351,48.425,48.60208333333333,63.0,86.0
352,48.425,48.68541666666667,66.0,86.0
353,48.675,48.744791666666664,58.0,83.0
354,48.425,49.03541666666666,39.0,88.0
355,48.925,49.040625,58.0,86.0
356,48.925,49.096875,63.0,95.0
357,48.925,49.15416666666667,66.0,91.0
358,49.175,49.244791666666664,58.0,80.0
359,49.425,49.51875,63.0,80.0
360,49.675,49.83020833333333,58.0,90.0
361,49.925,50.009375,58.0,89.0
362,49.675,50.010416666666664,39.0,87.0
363,49.925,50.036458333333336,46.0,85.0
364,49.925,50.0625,63.0,98.0
365,49.925,50.10520833333333,66.0,93.0
366,50.175,50.296875,58.0,86.0
367,50.425,50.671875,59.0,73.0
368,50.675,50.807291666666664,54.0,79.0
369,50.425,50.98854166666666,47.0,98.0
370,50.925,51.01875,59.0,90.0
371,50.925,51.04375,63.0,85.0
372,51.175,51.2125,54.0,65.0
373,51.425,51.48229166666667,54.0,79.0
374,51.675,51.784375,54.0,86.0
375,51.925,52.021875,47.0,98.0
376,51.925,52.040625,59.0,93.0
377,51.925,52.06041666666667,63.0,91.0
378,52.175,52.27395833333333,54.0,88.0
379,52.425,52.609375,54.0,84.0
380,52.425,52.659375,58.0,79.0
381,52.925,53.00729166666667,54.0,85.0
382,52.675,53.01770833333333,49.0,70.0
383,52.925,53.01979166666666,58.0,87.0
384,52.925,53.05625,61.0,88.0
385,52.425,53.21666666666667,42.0,86.0
386,53.175,53.27916666666667,54.0,81.0
387,53.675,53.811458333333334,54.0,85.0
388,53.925,54.043749999999996,58.0,88.0
389,53.925,54.047916666666666,61.0,91.0
390,53.925,54.05,42.0,86.0
391,53.925,54.139583333333334,66.0,89.0
392,54.175,54.26354166666667,54.0,87.0
393,54.425,54.526041666666664,56.0,84.0
394,54.425,54.63333333333333,61.0,86.0
395,54.675,54.775,56.0,84.0
396,54.425,54.93541666666667,49.0,91.0
397,54.925,55.01875,56.0,88.0
398,54.925,55.092708333333334,61.0,89.0
399,54.925,55.126041666666666,65.0,85.0
400,55.175,55.26979166666666,56.0,85.0
401,55.425,55.54479166666667,61.0,82.0
402,55.675,55.784375,56.0,86.0
403,55.925,55.99375,56.0,87.0
404,55.925,56.012499999999996,49.0,101.0
405,55.925,56.04479166666667,61.0,95.0
406,55.925,56.09583333333333,65.0,90.0
407,56.175,56.26979166666666,56.0,84.0
408,56.425,56.547916666666666,58.0,83.0
409,56.425,56.60208333333333,63.0,86.0
410,56.425,56.68541666666667,66.0,86.0
411,56.675,56.744791666666664,58.0,83.0
412,56.425,57.03541666666666,39.0,88.0
413,56.925,57.040625,58.0,86.0
414,56.925,57.096875,63.0,95.0
415,56.925,57.15416666666667,66.0,91.0
416,57.175,57.244791666666664,58.0,80.0
417,57.425,57.51875,63.0,80.0
418,57.675,57.83020833333333,58.0,90.0
419,57.925,58.009375,58.0,89.0
420,57.675,58.010416666666664,39.0,87.0
421,57.925,58.036458333333336,46.0,85.0
422,57.925,58.0625,63.0,98.0
423,57.925,58.10520833333333,66.0,93.0
424,58.175,58.296875,58.0,86.0
425,58.425,58.671875,59.0,73.0
426,58.675,58.807291666666664,54.0,79.0
427,58.425,58.98854166666666,47.0,98.0
428,58.925,59.01875,59.0,90.0
429,58.925,59.043749999999996,63.0,85.0
430,59.175,59.2125,54.0,65.0
431,59.425,59.48229166666667,54.0,79.0
432,59.675,59.784375,54.0,86.0
433,59.925,60.021875,47.0,98.0
434,59.925,60.040625,59.0,93.0
435,59.925,60.06041666666667,63.0,91.0
436,60.175,60.27395833333333,54.0,88.0
437,60.425,60.609375,54.0,84.0
438,60.425,60.659375,58.0,79.0
439,60.925,61.00729166666667,54.0,85.0
440,60.675,61.01770833333333,49.0,70.0
441,60.925,61.01979166666666,58.0,87.0
442,60.925,61.05625,61.0,88.0
443,60.425,61.21666666666667,42.0,86.0
444,61.175,61.27916666666667,54.0,81.0
445,61.675,61.811458333333334,54.0,85.0
446,61.925,62.043749999999996,58.0,88.0
447,61.925,62.047916666666666,61.0,91.0
448,61.925,62.05,42.0,86.0
449,61.925,62.139583333333334,66.0,89.0
450,62.175,62.26354166666667,54.0,87.0
451,62.425,62.526041666666664,56.0,84.0
452,62.425,62.63333333333333,61.0,86.0
453,62.675,62.775,56.0,84.0
454,62.425,62.93541666666667,49.0,91.0
455,62.925,63.01875,56.0,88.0
456,62.925,63.092708333333334,61.0,89.0
457,62.925,63.126041666666666,65.0,85.0
458,63.175,63.26979166666666,56.0,85.0
459,63.425,63.54479166666667,61.0,82.0
460,63.675,63.784375,56.0,86.0
461,63.925,63.99375,56.0,87.0
462,63.925,64.0125,49.0,101.0
463,63.925,64.04479166666667,61.0,95.0
464,63.925,64.09583333333333,65.0,90.0
465,64.175,64.26979166666666,56.0,84.0
466,64.425,64.54791666666667,58.0,83.0
467,64.425,64.60208333333333,63.0,86.0
468,64.425,64.68541666666667,66.0,86.0
469,64.675,64.74479166666667,58.0,83.0
470,64.425,65.03541666666666,39.0,88.0
471,64.925,65.040625,58.0,86.0
472,64.925,65.096875,63.0,95.0
473,64.925,65.15416666666667,66.0,91.0
474,65.175,65.24479166666667,58.0,80.0
475,65.425,65.51875,63.0,80.0
476,65.675,65.83020833333333,58.0,90.0
477,65.925,66.009375,58.0,89.0
478,65.675,66.01041666666667,39.0,87.0
479,65.925,66.03645833333333,46.0,85.0
480,65.925,66.0625,63.0,98.0
481,65.925,66.10520833333334,66.0,93.0
482,66.175,66.296875,58.0,86.0
483,66.425,66.671875,59.0,73.0
484,66.675,66.80729166666667,54.0,79.0
485,66.425,66.98854166666666,47.0,98.0
486,66.925,67.01875,59.0,90.0
487,66.925,67.04375,63.0,85.0
488,67.175,67.2125,54.0,65.0
489,67.425,67.48229166666667,54.0,79.0
490,67.675,67.784375,54.0,86.0
491,67.925,68.021875,47.0,98.0
492,67.925,68.040625,59.0,93.0
493,67.925,68.06041666666667,63.0,91.0
494,68.175,68.27395833333333,54.0,88.0
495,68.425,68.609375,54.0,84.0
496,68.425,68.659375,58.0,79.0
497,68.925,69.00729166666666,54.0,85.0
498,68.675,69.01770833333333,49.0,70.0
499,68.925,69.01979166666666,58.0,87.0
500,68.925,69.05625,61.0,88.0
501,68.425,69.21666666666667,42.0,86.0
502,69.175,69.27916666666667,54.0,81.0
503,69.675,69.81145833333333,54.0,85.0
504,69.925,70.04375,58.0,88.0
505,69.925,70.04791666666667,61.0,91.0
506,69.925,70.05,42.0,86.0
507,69.925,70.13958333333333,66.0,89.0
508,70.175,70.26354166666667,54.0,87.0
509,70.425,70.52604166666667,56.0,84.0
510,70.425,70.63333333333333,61.0,86.0
511,70.675,70.775,56.0,84.0
512,70.425,70.93541666666667,49.0,91.0
513,70.925,71.01875,56.0,88.0
514,70.925,71.09270833333333,61.0,89.0
515,70.925,71.12604166666667,65.0,85.0
516,71.175,71.26979166666666,56.0,85.0
517,71.425,71.54479166666667,61.0,82.0
518,71.675,71.784375,56.0,86.0
519,71.925,71.99375,56.0,87.0
520,71.925,72.0125,49.0,101.0
521,71.925,72.04479166666667,61.0,95.0
522,71.925,72.09583333333333,65.0,90.0
523,72.175,72.26979166666666,56.0,84.0
524,72.425,72.54791666666667,58.0,83.0
525,72.425,72.60208333333333,63.0,86.0
526,72.425,72.68541666666667,66.0,86.0
527,72.675,72.74479166666667,58.0,83.0
528,72.425,73.03541666666666,39.0,88.0
529,72.925,73.040625,58.0,86.0
530,72.925,73.096875,63.0,95.0
531,72.925,73.15416666666667,66.0,91.0
532,73.175,73.24479166666667,58.0,80.0
533,73.425,73.51875,63.0,80.0
534,73.675,73.83020833333333,58.0,90.0
535,73.925,74.009375,58.0,89.0
536,73.675,74.01041666666667,39.0,87.0
537,73.925,74.03645833333333,46.0,85.0
538,73.925,74.0625,63.0,98.0
539,73.925,74.10520833333334,66.0,93.0
540,74.175,74.296875,58.0,86.0
541,74.425,74.671875,59.0,73.0
542,74.675,74.80729166666667,54.0,79.0
543,74.425,74.98854166666666,47.0,98.0
544,74.925,75.01875,59.0,90.0
545,74.925,75.04375,63.0,85.0
546,75.175,75.2125,54.0,65.0
547,75.425,75.48229166666667,54.0,79.0
548,75.675,75.784375,54.0,86.0
549,75.925,76.021875,47.0,98.0
550,75.925,76.040625,59.0,93.0
551,75.925,76.06041666666667,63.0,91.0
552,76.175,76.27395833333333,54.0,88.0
553,76.425,76.609375,54.0,84.0
554,76.425,76.659375,58.0,79.0
555,76.925,77.00729166666666,54.0,85.0
556,76.675,77.01770833333333,49.0,70.0
557,76.925,77.01979166666666,58.0,87.0
558,76.925,77.05625,61.0,88.0
559,76.425,77.21666666666667,42.0,86.0
560,77.175,77.27916666666667,54.0,81.0
561,77.675,77.81145833333333,54.0,85.0
562,77.925,78.04375,58.0,88.0
563,77.925,78.04791666666667,61.0,91.0
564,77.925,78.05,42.0,86.0
565,77.925,78.13958333333333,66.0,89.0
566,78.175,78.26354166666667,54.0,87.0
567,78.425,78.52604166666667,56.0,84.0
568,78.425,78.63333333333333,61.0,86.0
569,78.675,78.775,56.0,84.0
570,78.425,78.93541666666667,49.0,91.0
571,78.925,79.01875,56.0,88.0
572,78.925,79.09270833333333,61.0,89.0
573,78.925,79.12604166666667,65.0,85.0
574,79.175,79.26979166666666,56.0,85.0
575,79.425,79.54479166666667,61.0,82.0
576,79.675,79.784375,56.0,86.0
577,79.925,79.99375,56.0,87.0
578,79.925,80.0125,49.0,101.0
579,79.925,80.04479166666667,61.0,95.0
580,79.925,80.09583333333333,65.0,90.0
581,80.175,80.26979166666666,56.0,84.0
582,80.425,80.54791666666667,58.0,83.0
583,80.425,80.60208333333333,63.0,86.0
584,80.425,80.68541666666667,66.0,86.0
585,80.675,80.74479166666667,58.0,83.0
586,80.425,81.03541666666666,39.0,88.0
587,80.925,81.040625,58.0,86.0
588,80.925,81.096875,63.0,95.0
589,80.925,81.15416666666667,66.0,91.0
590,81.175,81.24479166666667,58.0,80.0
591,81.425,81.51875,63.0,80.0
592,81.675,81.83020833333333,58.0,90.0
593,81.925,82.009375,58.0,89.0
594,81.675,82.01041666666667,39.0,87.0
595,81.925,82.03645833333333,46.0,85.0
596,81.925,82.0625,63.0,98.0
597,81.925,82.10520833333334,66.0,93.0
598,82.175,82.296875,58.0,86.0
599,82.425,82.671875,59.0,73.0
600,82.675,82.80729166666667,54.0,79.0
601,82.425,82.98854166666666,47.0,98.0
602,82.925,83.01875,59.0,90.0
603,82.925,83.04375,63.0,85.0
604,83.175,83.2125,54.0,65.0
605,83.425,83.48229166666667,54.0,79.0
606,83.675,83.784375,54.0,86.0
607,83.925,84.021875,47.0,98.0
608,83.925,84.040625,59.0,93.0
609,83.925,84.06041666666667,63.0,91.0
610,84.175,84.27395833333333,54.0,88.0
611,84.425,84.609375,54.0,84.0
612,84.425,84.659375,58.0,79.0
613,84.925,85.00729166666666,54.0,85.0
614,84.675,85.01770833333333,49.0,70.0
615,84.925,85.01979166666666,58.0,87.0
616,84.925,85.05625,61.0,88.0
617,84.425,85.21666666666667,42.0,86.0
618,85.175,85.27916666666667,54.0,81.0
619,85.675,85.81145833333333,54.0,85.0
620,85.925,86.04375,58.0,88.0
621,85.925,86.04791666666667,61.0,91.0
622,85.925,86.05,42.0,86.0
623,85.925,86.13958333333333,66.0,89.0
624,86.175,86.26354166666667,54.0,87.0
625,86.425,86.52604166666667,56.0,84.0
626,86.425,86.63333333333333,61.0,86.0
627,86.675,86.775,56.0,84.0
628,86.425,86.93541666666667,49.0,91.0
629,86.925,87.01875,56.0,88.0
630,86.925,87.09270833333333,61.0,89.0
631,86.925,87.12604166666667,65.0,85.0
632,87.175,87.26979166666666,56.0,85.0
633,87.425,87.54479166666667,61.0,82.0
634,87.675,87.784375,56.0,86.0
635,87.925,87.99375,56.0,87.0
636,87.925,88.0125,49.0,101.0
637,87.925,88.04479166666667,61.0,95.0
638,87.925,88.09583333333333,65.0,90.0
639,88.175,88.26979166666666,56.0,84.0
640,88.425,88.53333333333333,39.0,86.0
641,88.425,88.75729166666666,63.0,80.0
642,88.425,88.77291666666666,58.0,80.0
643,88.675,88.77916666666667,39.0,84.0
644,88.925,89.034375,39.0,81.0
645,89.175,89.28020833333333,39.0,78.0
646,89.425,89.534375,39.0,79.0
647,88.925,89.584375,63.0,84.0
648,88.925,89.61875,66.0,85.0
649,89.675,89.77916666666667,39.0,81.0
650,89.925,90.04270833333334,58.0,81.0
651,89.925,90.04479166666667,39.0,79.0
652,89.925,90.23333333333333,63.0,85.0
653,89.925,90.25104166666667,66.0,82.0
654,90.175,90.27395833333333,39.0,80.0
655,90.175,90.35208333333333,58.0,83.0
656,90.425,90.51458333333333,47.0,79.0
657,90.425,90.59270833333333,59.0,72.0
658,90.425,90.76458333333333,63.0,85.0
659,90.675,90.77708333333334,47.0,78.0
660,90.925,91.028125,47.0,78.0
661,90.925,91.11875,59.0,82.0
662,90.925,91.16041666666666,66.0,85.0
663,91.175,91.27395833333333,47.0,79.0
664,91.425,91.51770833333333,47.0,80.0
665,91.675,91.77916666666667,59.0,86.0
666,91.675,91.78020833333333,47.0,83.0
667,91.925,92.03229166666667,47.0,83.0
668,91.925,92.05520833333333,59.0,87.0
669,91.925,92.15,63.0,86.0
670,92.175,92.28333333333333,47.0,79.0
671,92.425,92.534375,42.0,80.0
672,92.675,92.77395833333333,42.0,79.0
673,92.425,92.825,58.0,84.0
674,92.425,92.84375,61.0,85.0
675,92.925,93.02916666666667,42.0,76.0
676,92.925,93.18645833333333,58.0,85.0
677,92.925,93.225,61.0,86.0
678,92.925,93.28125,66.0,84.0
679,93.175,93.28958333333333,42.0,74.0
680,93.425,93.53020833333333,42.0,76.0
681,93.675,93.76458333333333,61.0,75.0
682,93.675,93.78020833333333,42.0,79.0
683,93.675,93.82604166666667,58.0,80.0
684,93.925,94.02916666666667,42.0,77.0
685,93.925,94.096875,58.0,78.0
686,93.925,94.19479166666666,61.0,85.0
687,93.925,94.23229166666667,66.0,88.0
688,94.175,94.26354166666667,58.0,71.0
689,94.175,94.26875,42.0,80.0
690,94.425,94.528125,37.0,82.0
691,94.425,94.61354166666666,56.0,85.0
692,94.425,94.72708333333333,61.0,84.0
693,94.675,94.76458333333333,37.0,74.0
694,94.675,94.8,56.0,80.0
695,94.925,95.034375,37.0,76.0
696,94.925,95.09791666666666,56.0,74.0
697,94.925,95.09895833333333,65.0,85.0
698,94.925,95.10416666666667,61.0,86.0
699,95.175,95.29479166666667,37.0,73.0
700,95.425,95.54479166666667,37.0,72.0
701,95.675,95.78020833333333,37.0,78.0
702,95.675,95.79479166666667,56.0,84.0
703,95.925,96.04895833333333,37.0,72.0
704,96.175,96.27916666666667,37.0,74.0
705,96.175,96.35416666666667,56.0,84.0
706,95.925,96.35416666666667,65.0,91.0
707,95.925,96.36354166666666,61.0,89.0
708,96.425,96.53333333333333,39.0,86.0
709,96.425,96.75729166666666,63.0,80.0
710,96.425,96.77291666666666,58.0,80.0
711,96.675,96.77916666666667,39.0,84.0
712,96.925,97.034375,39.0,81.0
713,97.175,97.28020833333333,39.0,78.0
714,97.425,97.534375,39.0,79.0
715,96.925,97.584375,63.0,84.0
716,96.925,97.61875,66.0,85.0
717,97.675,97.77916666666667,39.0,81.0
718,97.925,98.04270833333334,58.0,81.0
719,97.925,98.04479166666667,39.0,79.0
720,97.925,98.23333333333333,63.0,85.0
721,97.925,98.25104166666667,66.0,82.0
722,98.175,98.27395833333333,39.0,80.0
723,98.175,98.35208333333333,58.0,83.0
724,98.425,98.51458333333333,47.0,79.0
725,98.425,98.59270833333333,59.0,72.0
726,98.425,98.76458333333333,63.0,85.0
727,98.675,98.77708333333334,47.0,78.0
728,98.925,99.028125,47.0,78.0
729,98.925,99.11875,59.0,82.0
730,98.925,99.16041666666666,66.0,85.0
731,99.175,99.27395833333333,47.0,79.0
732,99.425,99.51770833333333,47.0,80.0
733,99.675,99.77916666666667,59.0,86.0
734,99.675,99.78020833333333,47.0,83.0
735,99.925,100.03229166666667,47.0,83.0
736,99.925,100.05520833333333,59.0,87.0
737,99.925,100.15,63.0,86.0
738,100.175,100.28333333333333,47.0,79.0
739,100.425,100.534375,42.0,80.0
740,100.675,100.77395833333333,42.0,79.0
741,100.425,100.825,58.0,84.0
742,100.425,100.84375,61.0,85.0
743,100.925,101.02916666666667,42.0,76.0
744,100.925,101.18645833333333,58.0,85.0
745,100.925,101.225,61.0,86.0
746,100.925,101.28125,66.0,84.0
747,101.175,101.28958333333333,42.0,74.0
748,101.425,101.53020833333333,42.0,76.0
749,101.675,101.76458333333333,61.0,75.0
750,101.675,101.78020833333333,42.0,79.0
751,101.675,101.82604166666667,58.0,80.0
752,101.925,102.02916666666667,42.0,77.0
753,101.925,102.096875,58.0,78.0
754,101.925,102.19479166666666,61.0,85.0
755,101.925,102.23229166666667,66.0,88.0
756,102.175,102.26354166666667,58.0,71.0
757,102.175,102.26875,42.0,80.0
758,102.425,102.528125,37.0,82.0
759,102.425,102.61354166666666,56.0,85.0
760,102.425,102.72708333333333,61.0,84.0
761,102.675,102.76458333333333,37.0,74.0
762,102.675,102.8,56.0,80.0
763,102.925,103.034375,37.0,76.0
764,102.925,103.09791666666666,56.0,74.0
765,102.925,103.09895833333333,65.0,85.0
766,102.925,103.10416666666667,61.0,86.0
767,103.175,103.29479166666667,37.0,73.0
768,103.425,103.54479166666667,37.0,72.0
769,103.675,103.78020833333333,37.0,78.0
770,103.675,103.79479166666667,56.0,84.0
771,103.925,104.04895833333333,37.0,72.0
772,104.175,104.27916666666667,37.0,74.0
773,104.175,104.35416666666667,56.0,84.0
774,103.925,104.35416666666667,65.0,91.0
775,103.925,104.36354166666666,61.0,89.0
776,104.425,104.55208333333333,44.0,85.0
777,104.675,104.78333333333333,44.0,79.0
778,104.425,104.78541666666666,63.0,81.0
779,104.425,104.78958333333333,56.0,74.0
780,104.425,104.803125,59.0,75.0
781,104.925,105.034375,44.0,77.0
782,104.925,105.225,63.0,82.0
783,104.925,105.22708333333333,56.0,77.0
784,104.925,105.265625,59.0,73.0
785,105.175,105.278125,44.0,76.0
786,105.425,105.53958333333333,44.0,73.0
787,105.675,105.778125,44.0,78.0
788,105.675,105.82083333333333,56.0,72.0
789,105.925,106.01875,56.0,82.0
790,105.925,106.03645833333333,44.0,77.0
791,105.925,106.12083333333334,63.0,83.0
792,105.925,106.13333333333333,59.0,86.0
793,106.175,106.27916666666667,44.0,79.0
794,106.175,106.41562499999999,56.0,73.0
795,106.425,106.53958333333333,37.0,86.0
796,106.425,106.6875,61.0,79.0
797,106.425,106.70416666666667,65.0,86.0
798,106.675,106.78541666666666,37.0,75.0
799,106.925,107.02708333333334,56.0,81.0
800,106.925,107.04062499999999,37.0,74.0
801,106.925,107.07708333333333,65.0,85.0
802,106.925,107.1,61.0,82.0
803,107.175,107.26979166666666,37.0,83.0
804,107.175,107.3,56.0,73.0
805,107.425,107.53645833333333,37.0,81.0
806,107.675,107.78333333333333,56.0,76.0
807,107.675,107.78541666666666,37.0,73.0
808,107.925,108.03020833333333,37.0,74.0
809,107.925,108.128125,61.0,86.0
810,107.925,108.22916666666667,65.0,88.0
811,108.175,108.30520833333333,56.0,80.0
812,108.175,108.30729166666667,37.0,79.0
813,108.425,108.53020833333333,42.0,81.0
814,108.425,108.55104166666666,58.0,77.0
815,108.425,108.70625,61.0,80.0
816,108.675,108.77499999999999,42.0,84.0
817,108.675,108.82395833333334,58.0,72.0
818,108.925,108.96666666666667,58.0,72.0
819,108.925,109.03020833333333,42.0,84.0
820,108.925,109.215625,61.0,86.0
821,108.925,109.27083333333333,66.0,82.0
822,109.175,109.30416666666666,42.0,84.0
823,109.425,109.52499999999999,41.0,88.0
824,109.675,109.77499999999999,41.0,85.0
825,109.425,109.79479166666667,65.0,79.0
826,109.425,109.81041666666667,61.0,83.0
827,109.925,110.01875,41.0,86.0
828,110.175,110.284375,41.0,85.0
829,109.925,110.36458333333333,65.0,85.0
830,109.925,110.36979166666667,61.0,82.0
831,110.425,110.54895833333333,39.0,86.0
832,110.425,110.72083333333333,66.0,80.0
833,110.425,110.73541666666667,58.0,76.0
834,110.425,110.74583333333334,63.0,82.0
835,110.675,110.77604166666667,39.0,86.0
836,110.925,111.02499999999999,39.0,86.0
837,110.925,111.06666666666666,63.0,86.0
838,110.925,111.10416666666667,66.0,85.0
839,111.175,111.27916666666667,39.0,85.0
840,111.175,111.28333333333333,58.0,66.0
841,111.425,111.52395833333333,39.0,85.0
842,111.675,111.77499999999999,39.0,83.0
843,111.675,111.79479166666667,58.0,73.0
844,111.925,112.03854166666666,39.0,85.0
845,111.925,112.225,66.0,85.0
846,111.925,112.23333333333333,63.0,85.0
847,112.175,112.29583333333333,39.0,86.0
848,112.175,112.32708333333333,58.0,79.0
849,112.425,112.534375,44.0,87.0
850,112.425,112.62916666666666,63.0,84.0
851,112.425,112.63333333333333,59.0,83.0
852,112.675,112.77499999999999,44.0,80.0
853,112.675,112.78020833333333,56.0,44.0
854,112.925,113.021875,44.0,84.0
855,112.925,113.06041666666667,56.0,84.0
856,112.925,113.06145833333333,59.0,86.0
857,112.925,113.06666666666666,63.0,84.0
858,113.175,113.27499999999999,44.0,84.0
859,113.425,113.52499999999999,44.0,84.0
860,113.675,113.77916666666667,44.0,81.0
861,113.675,113.79479166666667,56.0,78.0
862,113.925,114.04062499999999,44.0,86.0
863,113.925,114.24791666666667,59.0,89.0
864,113.925,114.26979166666666,63.0,85.0
865,114.175,114.271875,44.0,79.0
866,114.175,114.36458333333333,56.0,78.0
867,114.425,114.51354166666667,47.0,85.0
868,114.425,114.69375,63.0,84.0
869,114.425,114.72083333333333,59.0,84.0
870,114.675,114.76770833333333,47.0,82.0
871,114.675,114.80729166666667,54.0,80.0
872,114.925,115.01979166666666,47.0,82.0
873,114.925,115.02916666666667,59.0,88.0
874,114.925,115.06666666666666,63.0,85.0
875,115.175,115.27499999999999,47.0,80.0
876,115.425,115.51979166666666,47.0,85.0
877,115.675,115.77395833333333,47.0,84.0
878,115.675,115.79166666666667,54.0,84.0
879,115.925,116.01979166666666,47.0,86.0
880,115.925,116.046875,59.0,91.0
881,115.925,116.22812499999999,63.0,86.0
882,116.175,116.27291666666666,47.0,90.0
883,116.175,116.27499999999999,54.0,86.0
884,116.425,116.51875,37.0,85.0
885,116.425,116.55104166666666,56.0,84.0
886,116.425,116.57604166666667,65.0,88.0
887,116.425,116.58854166666667,61.0,85.0
888,116.675,116.75833333333333,37.0,80.0
889,116.675,116.76875,56.0,84.0
890,116.925,117.02395833333333,37.0,85.0
891,116.925,117.03645833333333,61.0,89.0
892,116.925,117.06041666666667,65.0,90.0
893,117.175,117.27708333333334,56.0,79.0
894,117.175,117.278125,37.0,83.0
895,117.425,117.503125,56.0,85.0
896,117.425,117.52916666666667,37.0,85.0
897,117.425,117.55104166666666,61.0,87.0
898,117.425,117.57916666666667,65.0,88.0
899,117.675,117.77083333333333,37.0,86.0
900,117.675,117.784375,56.0,76.0
901,117.925,118.01979166666666,37.0,85.0
902,117.925,118.01979166666666,56.0,87.0
903,117.925,118.07187499999999,61.0,91.0
904,117.925,118.13229166666666,65.0,87.0
905,118.175,118.284375,37.0,85.0
906,118.175,118.33229166666666,56.0,86.0
907,118.425,118.63437499999999,65.0,93.0
908,118.425,118.63854166666667,56.0,89.0
909,118.425,118.640625,61.0,91.0
910,118.425,120.30624999999999,37.0,91.0
911,120.425,120.54791666666667,58.0,83.0
912,120.425,120.60208333333333,63.0,86.0
913,120.425,120.68541666666667,66.0,86.0
914,120.675,120.74479166666667,58.0,83.0
915,120.425,121.03541666666666,39.0,88.0
916,120.925,121.04062499999999,58.0,86.0
917,120.925,121.096875,63.0,95.0
918,120.925,121.15416666666667,66.0,91.0
919,121.175,121.24479166666667,58.0,80.0
920,121.425,121.51875,63.0,80.0
921,121.675,121.83020833333333,58.0,90.0
922,121.925,122.00937499999999,58.0,89.0
923,121.675,122.01041666666667,39.0,87.0
924,121.925,122.03645833333333,46.0,85.0
925,121.925,122.0625,63.0,98.0
926,121.925,122.10520833333334,66.0,93.0
927,122.175,122.296875,58.0,86.0
928,122.425,122.671875,59.0,73.0
929,122.675,122.80729166666667,54.0,79.0
930,122.425,122.98854166666666,47.0,98.0
931,122.925,123.01875,59.0,90.0
932,122.925,123.04375,63.0,85.0
933,123.175,123.21249999999999,54.0,65.0
934,123.425,123.48229166666667,54.0,79.0
935,123.675,123.784375,54.0,86.0
936,123.925,124.021875,47.0,98.0
937,123.925,124.04062499999999,59.0,93.0
938,123.925,124.06041666666667,63.0,91.0
939,124.175,124.27395833333333,54.0,88.0
940,124.425,124.609375,54.0,84.0
941,124.425,124.659375,58.0,79.0
942,124.925,125.00729166666666,54.0,85.0
943,124.675,125.01770833333333,49.0,70.0
944,124.925,125.01979166666666,58.0,87.0
945,124.925,125.05624999999999,61.0,88.0
946,124.425,125.21666666666667,42.0,86.0
947,125.175,125.27916666666667,54.0,81.0
948,125.675,125.81145833333333,54.0,85.0
949,125.925,126.04375,58.0,88.0
950,125.925,126.04791666666667,61.0,91.0
951,125.925,126.05,42.0,86.0
952,125.925,126.13958333333333,66.0,89.0
953,126.175,126.26354166666667,54.0,87.0
954,126.425,126.52604166666667,56.0,84.0
955,126.425,126.63333333333333,61.0,86.0
956,126.675,126.77499999999999,56.0,84.0
957,126.425,126.93541666666667,49.0,91.0
958,126.925,127.01875,56.0,88.0
959,126.925,127.09270833333333,61.0,89.0
960,126.925,127.12604166666667,65.0,85.0
961,127.175,127.26979166666666,56.0,85.0
962,127.425,127.54479166666667,61.0,82.0
963,127.675,127.784375,56.0,86.0
964,127.925,127.99374999999999,56.0,87.0
965,127.925,128.0125,49.0,101.0
966,127.925,128.04479166666667,61.0,95.0
967,127.925,128.09583333333333,65.0,90.0
968,128.175,128.26979166666666,56.0,84.0
969,128.425,128.54791666666665,58.0,83.0
970,128.425,128.60208333333333,63.0,86.0
971,128.425,128.68541666666667,66.0,86.0
972,128.675,128.74479166666666,58.0,83.0
973,128.425,129.03541666666666,39.0,88.0
974,128.925,129.040625,58.0,86.0
975,128.925,129.096875,63.0,95.0
976,128.925,129.15416666666667,66.0,91.0
977,129.175,129.24479166666666,58.0,80.0
978,129.425,129.51875,63.0,80.0
979,129.675,129.83020833333333,58.0,90.0
980,129.925,130.009375,58.0,89.0
981,129.675,130.01041666666666,39.0,87.0
982,129.925,130.03645833333334,46.0,85.0
983,129.925,130.0625,63.0,98.0
984,129.925,130.10520833333334,66.0,93.0
985,130.175,130.296875,58.0,86.0
986,130.425,130.671875,59.0,73.0
987,130.675,130.80729166666666,54.0,79.0
988,130.425,130.98854166666666,47.0,98.0
989,130.925,131.01875,59.0,90.0
990,130.925,131.04375,63.0,85.0
991,131.175,131.2125,54.0,65.0
992,131.425,131.48229166666667,54.0,79.0
993,131.675,131.784375,54.0,86.0
994,131.925,132.021875,47.0,98.0
995,131.925,132.040625,59.0,93.0
996,131.925,132.06041666666667,63.0,91.0
997,132.175,132.27395833333333,54.0,88.0
998,132.425,132.609375,54.0,84.0
999,132.425,132.659375,58.0,79.0
1000,132.925,133.00729166666667,54.0,85.0
1001,132.675,133.01770833333333,49.0,70.0
1002,132.925,133.01979166666666,58.0,87.0
1003,132.925,133.05625,61.0,88.0
1004,132.425,133.21666666666667,42.0,86.0
1005,133.175,133.27916666666667,54.0,81.0
1006,133.675,133.81145833333332,54.0,85.0
1007,133.925,134.04375,58.0,88.0
1008,133.925,134.04791666666665,61.0,91.0
1009,133.925,134.05,42.0,86.0
1010,133.925,134.13958333333332,66.0,89.0
1011,134.175,134.26354166666667,54.0,87.0
1012,134.425,134.52604166666666,56.0,84.0
1013,134.425,134.63333333333333,61.0,86.0
1014,134.675,134.775,56.0,84.0
1015,134.425,134.93541666666667,49.0,91.0
1016,134.925,135.01875,56.0,88.0
1017,134.925,135.09270833333332,61.0,89.0
1018,134.925,135.12604166666665,65.0,85.0
1019,135.175,135.26979166666666,56.0,85.0
1020,135.425,135.54479166666667,61.0,82.0
1021,135.675,135.784375,56.0,86.0
1022,135.925,135.99375,56.0,87.0
1023,135.925,136.0125,49.0,101.0
1024,135.925,136.04479166666667,61.0,95.0
1025,135.925,136.09583333333333,65.0,90.0
1026,136.175,136.26979166666666,56.0,84.0
1027,136.425,136.54791666666665,58.0,83.0
1028,136.425,136.60208333333333,63.0,86.0
1029,136.425,136.68541666666667,66.0,86.0
1030,136.675,136.74479166666666,58.0,83.0
1031,136.425,137.03541666666666,39.0,88.0
1032,136.925,137.040625,58.0,86.0
1033,136.925,137.096875,63.0,95.0
1034,136.925,137.15416666666667,66.0,91.0
1035,137.175,137.24479166666666,58.0,80.0
1036,137.425,137.51875,63.0,80.0
1037,137.675,137.83020833333333,58.0,90.0
1038,137.925,138.009375,58.0,89.0
1039,137.675,138.01041666666666,39.0,87.0
1040,137.925,138.03645833333334,46.0,85.0
1041,137.925,138.0625,63.0,98.0
1042,137.925,138.10520833333334,66.0,93.0
1043,138.175,138.296875,58.0,86.0
1044,138.425,138.671875,59.0,73.0
1045,138.675,138.80729166666666,54.0,79.0
1046,138.425,138.98854166666666,47.0,98.0
1047,138.925,139.01875,59.0,90.0
1048,138.925,139.04375,63.0,85.0
1049,139.175,139.2125,54.0,65.0
1050,139.425,139.48229166666667,54.0,79.0
1051,139.675,139.784375,54.0,86.0
1052,139.925,140.021875,47.0,98.0
1053,139.925,140.040625,59.0,93.0
1054,139.925,140.06041666666667,63.0,91.0
1055,140.175,140.27395833333333,54.0,88.0
1056,140.425,140.609375,54.0,84.0
1057,140.425,140.659375,58.0,79.0
1058,140.925,141.00729166666667,54.0,85.0
1059,140.675,141.01770833333333,49.0,70.0
1060,140.925,141.01979166666666,58.0,87.0
1061,140.925,141.05625,61.0,88.0
1062,140.425,141.21666666666667,42.0,86.0
1063,141.175,141.27916666666667,54.0,81.0
1064,141.675,141.81145833333332,54.0,85.0
1065,141.925,142.04375,58.0,88.0
1066,141.925,142.04791666666665,61.0,91.0
1067,141.925,142.05,42.0,86.0
1068,141.925,142.13958333333332,66.0,89.0
1069,142.175,142.26354166666667,54.0,87.0
1070,142.425,142.52604166666666,56.0,84.0
1071,142.425,142.63333333333333,61.0,86.0
1072,142.675,142.775,56.0,84.0
1073,142.425,142.93541666666667,49.0,91.0
1074,142.925,143.01875,56.0,88.0
1075,142.925,143.09270833333332,61.0,89.0
1076,142.925,143.12604166666665,65.0,85.0
1077,143.175,143.26979166666666,56.0,85.0
1078,143.425,143.54479166666667,61.0,82.0
1079,143.675,143.784375,56.0,86.0
1080,143.925,143.99375,56.0,87.0
1081,143.925,144.0125,49.0,101.0
1082,143.925,144.04479166666667,61.0,95.0
1083,143.925,144.09583333333333,65.0,90.0
1084,144.175,144.26979166666666,56.0,84.0
1085,144.425,144.54791666666665,58.0,83.0
1086,144.425,144.60208333333333,63.0,86.0
1087,144.425,144.68541666666667,66.0,86.0
1088,144.675,144.74479166666666,58.0,83.0
1089,144.425,145.03541666666666,39.0,88.0
1090,144.925,145.040625,58.0,86.0
1091,144.925,145.096875,63.0,95.0
1092,144.925,145.15416666666667,66.0,91.0
1093,145.175,145.24479166666666,58.0,80.0
1094,145.425,145.51875,63.0,80.0
1095,145.675,145.83020833333333,58.0,90.0
1096,145.925,146.009375,58.0,89.0
1097,145.675,146.01041666666666,39.0,87.0
1098,145.925,146.03645833333334,46.0,85.0
1099,145.925,146.0625,63.0,98.0
1100,145.925,146.10520833333334,66.0,93.0
1101,146.175,146.296875,58.0,86.0
1102,146.425,146.671875,59.0,73.0
1103,146.675,146.80729166666666,54.0,79.0
1104,146.425,146.98854166666666,47.0,98.0
1105,146.925,147.01875,59.0,90.0
1106,146.925,147.04375,63.0,85.0
1107,147.175,147.2125,54.0,65.0
1108,147.425,147.48229166666667,54.0,79.0
1109,147.675,147.784375,54.0,86.0
1110,147.925,148.021875,47.0,98.0
1111,147.925,148.040625,59.0,93.0
1112,147.925,148.06041666666667,63.0,91.0
1113,148.175,148.27395833333333,54.0,88.0
1114,148.425,148.609375,54.0,84.0
1115,148.425,148.659375,58.0,79.0
1116,148.925,149.00729166666667,54.0,85.0
1117,148.675,149.01770833333333,49.0,70.0
1118,148.925,149.01979166666666,58.0,87.0
1119,148.925,149.05625,61.0,88.0
1120,148.425,149.21666666666667,42.0,86.0
1121,149.175,149.27916666666667,54.0,81.0
1122,149.675,149.81145833333332,54.0,85.0
1123,149.925,150.04375,58.0,88.0
1124,149.925,150.04791666666665,61.0,91.0
1125,149.925,150.05,42.0,86.0
1126,149.925,150.13958333333332,66.0,89.0
1127,150.175,150.26354166666667,54.0,87.0
1128,150.425,150.52604166666666,56.0,84.0
1129,150.425,150.63333333333333,61.0,86.0
1130,150.675,150.775,56.0,84.0
1131,150.425,150.93541666666667,49.0,91.0
1132,150.925,151.01875,56.0,88.0
1133,150.925,151.09270833333332,61.0,89.0
1134,150.925,151.12604166666665,65.0,85.0
1135,151.175,151.26979166666666,56.0,85.0
1136,151.425,151.54479166666667,61.0,82.0
1137,151.675,151.784375,56.0,86.0
1138,151.925,151.99375,56.0,87.0
1139,151.925,152.0125,49.0,101.0
1140,151.925,152.04479166666667,61.0,95.0
1141,151.925,152.09583333333333,65.0,90.0
1142,152.175,152.26979166666666,56.0,84.0
1143,152.425,152.54791666666665,58.0,83.0
1144,152.425,152.60208333333333,63.0,86.0
1145,152.425,152.68541666666667,66.0,86.0
1146,152.675,152.74479166666666,58.0,83.0
1147,152.425,153.03541666666666,39.0,88.0
1148,152.925,153.040625,58.0,86.0
1149,152.925,153.096875,63.0,95.0
1150,152.925,153.15416666666667,66.0,91.0
1151,153.175,153.24479166666666,58.0,80.0
1152,153.425,153.51875,63.0,80.0
1153,153.675,153.83020833333333,58.0,90.0
1154,153.925,154.009375,58.0,89.0
1155,153.675,154.01041666666666,39.0,87.0
1156,153.925,154.03645833333334,46.0,85.0
1157,153.925,154.0625,63.0,98.0
1158,153.925,154.10520833333334,66.0,93.0
1159,154.175,154.296875,58.0,86.0
1160,154.425,154.671875,59.0,73.0
1161,154.675,154.80729166666666,54.0,79.0
1162,154.425,154.98854166666666,47.0,98.0
1163,154.925,155.01875,59.0,90.0
1164,154.925,155.04375,63.0,85.0
1165,155.175,155.2125,54.0,65.0
1166,155.425,155.48229166666667,54.0,79.0
1167,155.675,155.784375,54.0,86.0
1168,155.925,156.021875,47.0,98.0
1169,155.925,156.040625,59.0,93.0
1170,155.925,156.06041666666667,63.0,91.0
1171,156.175,156.27395833333333,54.0,88.0
1172,156.425,156.609375,54.0,84.0
1173,156.425,156.659375,58.0,79.0
1174,156.925,157.00729166666667,54.0,85.0
1175,156.675,157.01770833333333,49.0,70.0
1176,156.925,157.01979166666666,58.0,87.0
1177,156.925,157.05625,61.0,88.0
1178,156.425,157.21666666666667,42.0,86.0
1179,157.175,157.27916666666667,54.0,81.0
1180,157.675,157.81145833333332,54.0,85.0
1181,157.925,158.04375,58.0,88.0
1182,157.925,158.04791666666665,61.0,91.0
1183,157.925,158.05,42.0,86.0
1184,157.925,158.13958333333332,66.0,89.0
1185,158.175,158.26354166666667,54.0,87.0
1186,158.425,158.52604166666666,56.0,84.0
1187,158.425,158.63333333333333,61.0,86.0
1188,158.675,158.775,56.0,84.0
1189,158.425,158.93541666666667,49.0,91.0
1190,158.925,159.01875,56.0,88.0
1191,158.925,159.09270833333332,61.0,89.0
1192,158.925,159.12604166666665,65.0,85.0
1193,159.175,159.26979166666666,56.0,85.0
1194,159.425,159.54479166666667,61.0,82.0
1195,159.675,159.784375,56.0,86.0
1196,159.925,159.99375,56.0,87.0
1197,159.925,160.0125,49.0,101.0
1198,159.925,160.04479166666667,61.0,95.0
1199,159.925,160.09583333333333,65.0,90.0
1200,160.175,160.26979166666666,56.0,84.0
1201,160.425,160.54895833333333,54.0,79.0
1202,160.425,160.59270833333332,63.0,79.0
1203,160.425,160.59895833333334,59.0,83.0
1204,160.425,160.72395833333334,47.0,95.0
1205,160.675,160.76875,54.0,75.0
1206,160.925,161.02916666666667,54.0,86.0
1207,160.925,161.059375,59.0,85.0
1208,161.175,161.253125,54.0,79.0
1209,161.425,161.54166666666666,63.0,84.0
1210,161.425,161.55,59.0,86.0
1211,161.675,161.7875,54.0,80.0
1212,161.925,161.99375,54.0,85.0
1213,161.925,162.00416666666666,47.0,98.0
1214,161.925,162.03333333333333,59.0,98.0
1215,161.925,162.05104166666666,63.0,85.0
1216,162.175,162.353125,54.0,80.0
1217,162.425,162.49895833333332,54.0,74.0
1218,162.425,162.58125,47.0,89.0
1219,162.425,162.60729166666667,66.0,86.0
1220,162.425,162.69166666666666,59.0,76.0
1221,162.675,162.81145833333332,54.0,76.0
1222,162.925,163.06979166666667,59.0,86.0
1223,162.925,163.07395833333334,63.0,80.0
1224,163.175,163.290625,54.0,77.0
1225,163.425,163.51770833333333,47.0,81.0
1226,163.425,163.53125,59.0,79.0
1227,163.425,163.55625,63.0,79.0
1228,163.675,163.79479166666667,54.0,78.0
1229,163.925,164.00520833333334,54.0,85.0
1230,163.925,164.00729166666667,47.0,91.0
1231,163.925,164.01770833333333,59.0,90.0
1232,163.925,164.04791666666665,63.0,85.0
1233,164.425,164.53020833333332,58.0,78.0
1234,164.425,164.63229166666667,66.0,82.0
1235,164.425,164.734375,61.0,82.0
1236,164.675,164.76979166666666,58.0,80.0
1237,164.425,164.83854166666666,42.0,86.0
1238,164.925,165.0,58.0,87.0
1239,164.925,165.034375,61.0,98.0
1240,164.925,165.07395833333334,66.0,86.0
1241,165.175,165.284375,58.0,79.0
1242,165.425,165.55520833333333,61.0,86.0
1243,165.425,165.578125,66.0,84.0
1244,165.675,165.77604166666666,58.0,82.0
1245,165.925,166.009375,58.0,86.0
1246,165.925,166.025,42.0,78.0
1247,165.925,166.05416666666667,61.0,90.0
1248,165.925,166.10416666666666,66.0,81.0
1249,166.175,166.23958333333334,58.0,79.0
1250,166.175,166.24270833333333,66.0,67.0
1251,166.425,166.525,56.0,84.0
1252,166.425,166.57395833333334,61.0,84.0
1253,166.425,166.61145833333333,65.0,85.0
1254,166.425,166.73854166666666,49.0,87.0
1255,166.675,166.76354166666667,56.0,84.0
1256,166.925,167.00625,56.0,85.0
1257,166.925,167.065625,61.0,88.0
1258,166.925,167.08645833333333,65.0,88.0
1259,167.175,167.27395833333333,56.0,85.0
1260,167.425,167.45104166666667,56.0,67.0
1261,167.425,167.578125,61.0,88.0
1262,167.675,167.728125,61.0,62.0
1263,167.425,167.74166666666667,65.0,87.0
1264,167.675,167.81041666666667,56.0,89.0
1265,167.925,168.21666666666667,61.0,86.0
1266,167.925,168.21770833333332,65.0,88.0
1267,168.175,168.28333333333333,56.0,88.0
1268,168.425,168.5625,63.0,86.0
1269,168.425,168.59791666666666,66.0,93.0
1270,168.675,168.76354166666667,58.0,85.0
1271,168.425,168.796875,39.0,88.0
1272,168.925,169.01354166666667,58.0,87.0
1273,168.925,169.05,63.0,91.0
1274,168.925,169.078125,66.0,89.0
1275,169.175,169.26770833333333,58.0,82.0
1276,169.425,169.540625,63.0,84.0
1277,169.425,169.58854166666666,66.0,86.0
1278,169.675,169.77604166666666,58.0,84.0
1279,169.925,170.071875,66.0,86.0
1280,169.925,170.07291666666666,63.0,87.0
1281,170.175,170.3,58.0,85.0
1282,170.425,170.50416666666666,58.0,83.0
1283,170.425,170.703125,66.0,85.0
1284,170.425,170.72083333333333,63.0,88.0
1285,170.675,170.78541666666666,58.0,84.0
1286,170.425,170.94479166666667,51.0,88.0
1287,170.925,171.00104166666665,58.0,85.0
1288,170.925,171.07291666666666,63.0,91.0
1289,170.925,171.09166666666667,66.0,89.0
1290,171.175,171.22708333333333,63.0,62.0
1291,171.175,171.31145833333332,58.0,85.0
1292,171.425,171.50520833333334,58.0,85.0
1293,171.425,171.71875,51.0,98.0
1294,171.425,171.73541666666665,63.0,89.0
1295,171.425,171.73958333333334,66.0,84.0
1296,171.675,171.82604166666667,58.0,84.0
1297,171.925,172.00416666666666,58.0,85.0
1298,171.925,172.12395833333332,63.0,88.0
1299,171.925,172.15520833333332,66.0,86.0
1300,172.175,172.26979166666666,58.0,84.0
1301,172.425,172.67708333333334,59.0,87.0
1302,172.425,172.70833333333334,63.0,87.0
1303,172.675,172.82708333333332,54.0,86.0
1304,172.925,173.03958333333333,59.0,90.0
1305,172.425,173.05416666666667,47.0,95.0
1306,172.925,173.0625,63.0,86.0
1307,173.175,173.31770833333334,54.0,84.0
1308,173.425,173.52604166666666,47.0,81.0
1309,173.425,173.54270833333334,59.0,85.0
1310,173.425,173.55520833333333,63.0,84.0
1311,173.675,173.78958333333333,54.0,85.0
1312,173.925,174.01458333333332,54.0,85.0
1313,173.925,174.021875,47.0,98.0
1314,173.925,174.04270833333334,59.0,100.0
1315,173.925,174.08333333333334,63.0,85.0
1316,174.175,174.26875,54.0,85.0
1317,174.425,175.53020833333332,56.0,90.0
1318,174.425,175.66354166666667,61.0,95.0
1319,174.425,175.703125,65.0,95.0
1320,174.425,175.75625,49.0,105.0
1321,175.675,175.76458333333332,56.0,80.0
1322,175.925,176.01354166666667,56.0,85.0
1323,175.925,176.07083333333333,49.0,91.0
1324,175.925,176.103125,61.0,87.0
1325,175.925,176.23854166666666,65.0,86.0
1326,176.175,176.278125,61.0,75.0
1327,176.175,176.31145833333332,56.0,86.0
1328,176.425,176.54791666666665,58.0,83.0
1329,176.425,176.60208333333333,63.0,86.0
1330,176.425,176.68541666666667,66.0,86.0
1331,176.675,176.74479166666666,58.0,83.0
1332,176.425,177.03541666666666,39.0,88.0
1333,176.925,177.040625,58.0,86.0
1334,176.925,177.096875,63.0,95.0
1335,176.925,177.15416666666667,66.0,91.0
1336,177.175,177.24479166666666,58.0,80.0
1337,177.425,177.51875,63.0,80.0
1338,177.675,177.83020833333333,58.0,90.0
1339,177.925,178.009375,58.0,89.0
1340,177.675,178.01041666666666,39.0,87.0
1341,177.925,178.03645833333334,46.0,85.0
1342,177.925,178.0625,63.0,98.0
1343,177.925,178.10520833333334,66.0,93.0
1344,178.175,178.296875,58.0,86.0
1345,178.425,178.671875,59.0,73.0
1346,178.675,178.80729166666666,54.0,79.0
1347,178.425,178.98854166666666,47.0,98.0
1348,178.925,179.01875,59.0,90.0
1349,178.925,179.04375,63.0,85.0
1350,179.175,179.2125,54.0,65.0
1351,179.425,179.48229166666667,54.0,79.0
1352,179.675,179.784375,54.0,86.0
1353,179.925,180.021875,47.0,98.0
1354,179.925,180.040625,59.0,93.0
1355,179.925,180.06041666666667,63.0,91.0
1356,180.175,180.27395833333333,54.0,88.0
1357,180.425,180.609375,54.0,84.0
1358,180.425,180.659375,58.0,79.0
1359,180.925,181.00729166666667,54.0,85.0
1360,180.675,181.01770833333333,49.0,70.0
1361,180.925,181.01979166666666,58.0,87.0
1362,180.925,181.05625,61.0,88.0
1363,180.425,181.21666666666667,42.0,86.0
1364,181.175,181.27916666666667,54.0,81.0
1365,181.675,181.81145833333332,54.0,85.0
1366,181.925,182.04375,58.0,88.0
1367,181.925,182.04791666666665,61.0,91.0
1368,181.925,182.05,42.0,86.0
1369,181.925,182.13958333333332,66.0,89.0
1370,182.175,182.26354166666667,54.0,87.0
1371,182.425,182.52604166666666,56.0,84.0
1372,182.425,182.63333333333333,61.0,86.0
1373,182.675,182.775,56.0,84.0
1374,182.425,182.93541666666667,49.0,91.0
1375,182.925,183.01875,56.0,88.0
1376,182.925,183.09270833333332,61.0,89.0
1377,182.925,183.12604166666665,65.0,85.0
1378,183.175,183.26979166666666,56.0,85.0
1379,183.425,183.54479166666667,61.0,82.0
1380,183.675,183.784375,56.0,86.0
1381,183.925,183.99375,56.0,87.0
1382,183.925,184.0125,49.0,101.0
1383,183.925,184.04479166666667,61.0,95.0
1384,183.925,184.09583333333333,65.0,90.0
1385,184.175,184.26979166666666,56.0,84.0
1386,184.425,184.54791666666665,58.0,83.0
1387,184.425,184.60208333333333,63.0,86.0
1388,184.425,184.68541666666667,66.0,86.0
1389,184.675,184.74479166666666,58.0,83.0
1390,184.425,185.03541666666666,39.0,88.0
1391,184.925,185.040625,58.0,86.0
1392,184.925,185.096875,63.0,95.0
1393,184.925,185.15416666666667,66.0,91.0
1394,185.175,185.24479166666666,58.0,80.0
1395,185.425,185.51875,63.0,80.0
1396,185.675,185.83020833333333,58.0,90.0
1397,185.925,186.009375,58.0,89.0
1398,185.675,186.01041666666666,39.0,87.0
1399,185.925,186.03645833333334,46.0,85.0
1400,185.925,186.0625,63.0,98.0
1401,185.925,186.10520833333334,66.0,93.0
1402,186.175,186.296875,58.0,86.0
1403,186.425,186.671875,59.0,73.0
1404,186.675,186.80729166666666,54.0,79.0
1405,186.425,186.98854166666666,47.0,98.0
1406,186.925,187.01875,59.0,90.0
1407,186.925,187.04375,63.0,85.0
1408,187.175,187.2125,54.0,65.0
1409,187.425,187.48229166666667,54.0,79.0
1410,187.675,187.784375,54.0,86.0
1411,187.925,188.021875,47.0,98.0
1412,187.925,188.040625,59.0,93.0
1413,187.925,188.06041666666667,63.0,91.0
1414,188.175,188.27395833333333,54.0,88.0
1415,188.425,188.609375,54.0,84.0
1416,188.425,188.659375,58.0,79.0
1417,188.925,189.00729166666667,54.0,85.0
1418,188.675,189.01770833333333,49.0,70.0
1419,188.925,189.01979166666666,58.0,87.0
1420,188.925,189.05625,61.0,88.0
1421,188.425,189.21666666666667,42.0,86.0
1422,189.175,189.27916666666667,54.0,81.0
1423,189.675,189.81145833333332,54.0,85.0
1424,189.925,190.04375,58.0,88.0
1425,189.925,190.04791666666665,61.0,91.0
1426,189.925,190.05,42.0,86.0
1427,189.925,190.13958333333332,66.0,89.0
1428,190.175,190.26354166666667,54.0,87.0
1429,190.425,190.52604166666666,56.0,84.0
1430,190.425,190.63333333333333,61.0,86.0
1431,190.675,190.775,56.0,84.0
1432,190.425,190.93541666666667,49.0,91.0
1433,190.925,191.01875,56.0,88.0
1434,190.925,191.09270833333332,61.0,89.0
1435,190.925,191.12604166666665,65.0,85.0
1436,191.175,191.26979166666666,56.0,85.0
1437,191.425,191.54479166666667,61.0,82.0
1438,191.675,191.784375,56.0,86.0
1439,191.925,191.99375,56.0,87.0
1440,191.925,192.0125,49.0,101.0
1441,191.925,192.04479166666667,61.0,95.0
1442,191.925,192.09583333333333,65.0,90.0
1443,192.175,192.26979166666666,56.0,84.0
1444,192.425,192.54791666666665,58.0,83.0
1445,192.425,192.60208333333333,63.0,86.0
1446,192.425,192.68541666666667,66.0,86.0
1447,192.675,192.74479166666666,58.0,83.0
1448,192.425,193.03541666666666,39.0,88.0
1449,192.925,193.040625,58.0,86.0
1450,192.925,193.096875,63.0,95.0
1451,192.925,193.15416666666667,66.0,91.0
1452,193.175,193.24479166666666,58.0,80.0
1453,193.425,193.51875,63.0,80.0
1454,193.675,193.83020833333333,58.0,90.0
1455,193.925,194.009375,58.0,89.0
1456,193.675,194.01041666666666,39.0,87.0
1457,193.925,194.03645833333334,46.0,85.0
1458,193.925,194.0625,63.0,98.0
1459,193.925,194.10520833333334,66.0,93.0
1460,194.175,194.296875,58.0,86.0
1461,194.425,194.671875,59.0,73.0
1462,194.675,194.80729166666666,54.0,79.0
1463,194.425,194.98854166666666,47.0,98.0
1464,194.925,195.01875,59.0,90.0
1465,194.925,195.04375,63.0,85.0
1466,195.175,195.2125,54.0,65.0
1467,195.425,195.48229166666667,54.0,79.0
1468,195.675,195.784375,54.0,86.0
1469,195.925,196.021875,47.0,98.0
1470,195.925,196.040625,59.0,93.0
1471,195.925,196.06041666666667,63.0,91.0
1472,196.175,196.27395833333333,54.0,88.0
1473,196.425,196.609375,54.0,84.0
1474,196.425,196.659375,58.0,79.0
1475,196.925,197.00729166666667,54.0,85.0
1476,196.675,197.01770833333333,49.0,70.0
1477,196.925,197.01979166666666,58.0,87.0
1478,196.925,197.05625,61.0,88.0
1479,196.425,197.21666666666667,42.0,86.0
1480,197.175,197.27916666666667,54.0,81.0
1481,197.675,197.81145833333332,54.0,85.0
1482,197.925,198.04375,58.0,88.0
1483,197.925,198.04791666666665,61.0,91.0
1484,197.925,198.05,42.0,86.0
1485,197.925,198.13958333333332,66.0,89.0
1486,198.175,198.26354166666667,54.0,87.0
1487,198.425,198.52604166666666,56.0,84.0
1488,198.425,198.63333333333333,61.0,86.0
1489,198.675,198.775,56.0,84.0
1490,198.425,198.93541666666667,49.0,91.0
1491,198.925,199.01875,56.0,88.0
1492,198.925,199.09270833333332,61.0,89.0
1493,198.925,199.12604166666665,65.0,85.0
1494,199.175,199.26979166666666,56.0,85.0
1495,199.425,199.54479166666667,61.0,82.0
1496,199.675,199.784375,56.0,86.0
1497,199.925,199.99375,56.0,87.0
1498,199.925,200.0125,49.0,101.0
1499,199.925,200.04479166666667,61.0,95.0
1500,199.925,200.09583333333333,65.0,90.0
1501,200.175,200.26979166666666,56.0,84.0
1502,200.425,200.54791666666665,58.0,83.0
1503,200.425,200.60208333333333,63.0,86.0
1504,200.425,200.68541666666667,66.0,86.0
1505,200.675,200.74479166666666,58.0,83.0
1506,200.425,201.03541666666666,39.0,88.0
1507,200.925,201.040625,58.0,86.0
1508,200.925,201.096875,63.0,95.0
1509,200.925,201.15416666666667,66.0,91.0
1510,201.175,201.24479166666666,58.0,80.0
1511,201.425,201.51875,63.0,80.0
1512,201.675,201.83020833333333,58.0,90.0
1513,201.925,202.009375,58.0,89.0
1514,201.675,202.01041666666666,39.0,87.0
1515,201.925,202.03645833333334,46.0,85.0
1516,201.925,202.0625,63.0,98.0
1517,201.925,202.10520833333334,66.0,93.0
1518,202.175,202.296875,58.0,86.0
1519,202.425,202.671875,59.0,73.0
1520,202.675,202.80729166666666,54.0,79.0
1521,202.425,202.98854166666666,47.0,98.0
1522,202.925,203.01875,59.0,90.0
1523,202.925,203.04375,63.0,85.0
1524,203.175,203.2125,54.0,65.0
1525,203.425,203.48229166666667,54.0,79.0
1526,203.675,203.784375,54.0,86.0
1527,203.925,204.021875,47.0,98.0
1528,203.925,204.040625,59.0,93.0
1529,203.925,204.06041666666667,63.0,91.0
1530,204.175,204.27395833333333,54.0,88.0
1531,204.425,204.609375,54.0,84.0
1532,204.425,204.659375,58.0,79.0
1533,204.92499999999998,205.00729166666667,54.0,85.0
1534,204.675,205.01770833333333,49.0,70.0
1535,204.92499999999998,205.01979166666666,58.0,87.0
1536,204.92499999999998,205.05625,61.0,88.0
1537,204.425,205.21666666666667,42.0,86.0
1538,205.17499999999998,205.27916666666667,54.0,81.0
1539,205.67499999999998,205.81145833333332,54.0,85.0
1540,205.92499999999998,206.04375,58.0,88.0
1541,205.92499999999998,206.04791666666665,61.0,91.0
1542,205.92499999999998,206.04999999999998,42.0,86.0
1543,205.92499999999998,206.13958333333332,66.0,89.0
1544,206.17499999999998,206.26354166666667,54.0,87.0
1545,206.42499999999998,206.52604166666666,56.0,84.0
1546,206.42499999999998,206.63333333333333,61.0,86.0
1547,206.67499999999998,206.775,56.0,84.0
1548,206.42499999999998,206.93541666666667,49.0,91.0
1549,206.92499999999998,207.01874999999998,56.0,88.0
1550,206.92499999999998,207.09270833333332,61.0,89.0
1551,206.92499999999998,207.12604166666665,65.0,85.0
1552,207.17499999999998,207.26979166666666,56.0,85.0
1553,207.42499999999998,207.54479166666667,61.0,82.0
1554,207.67499999999998,207.78437499999998,56.0,86.0
1555,207.92499999999998,207.99375,56.0,87.0
1556,207.92499999999998,208.0125,49.0,101.0
1557,207.92499999999998,208.04479166666667,61.0,95.0
1558,207.92499999999998,208.09583333333333,65.0,90.0
1559,208.17499999999998,208.26979166666666,56.0,84.0
1560,208.42499999999998,208.54791666666665,58.0,83.0
1561,208.42499999999998,208.60208333333333,63.0,86.0
1562,208.42499999999998,208.68541666666667,66.0,86.0
1563,208.67499999999998,208.74479166666666,58.0,83.0
1564,208.42499999999998,209.03541666666666,39.0,88.0
1565,208.92499999999998,209.040625,58.0,86.0
1566,208.92499999999998,209.09687499999998,63.0,95.0
1567,208.92499999999998,209.15416666666667,66.0,91.0
1568,209.17499999999998,209.24479166666666,58.0,80.0
1569,209.42499999999998,209.51874999999998,63.0,80.0
1570,209.67499999999998,209.83020833333333,58.0,90.0
1571,209.92499999999998,210.009375,58.0,89.0
1572,209.67499999999998,210.01041666666666,39.0,87.0
1573,209.92499999999998,210.03645833333334,46.0,85.0
1574,209.92499999999998,210.0625,63.0,98.0
1575,209.92499999999998,210.10520833333334,66.0,93.0
1576,210.17499999999998,210.296875,58.0,86.0
1577,210.42499999999998,210.671875,59.0,73.0
1578,210.67499999999998,210.80729166666666,54.0,79.0
1579,210.42499999999998,210.98854166666666,47.0,98.0
1580,210.92499999999998,211.01874999999998,59.0,90.0
1581,210.92499999999998,211.04375,63.0,85.0
1582,211.17499999999998,211.2125,54.0,65.0
1583,211.42499999999998,211.48229166666667,54.0,79.0
1584,211.67499999999998,211.78437499999998,54.0,86.0
1585,211.92499999999998,212.021875,47.0,98.0
1586,211.92499999999998,212.040625,59.0,93.0
1587,211.92499999999998,212.06041666666667,63.0,91.0
1588,212.17499999999998,212.27395833333333,54.0,88.0
1589,212.42499999999998,212.609375,54.0,84.0
1590,212.42499999999998,212.65937499999998,58.0,79.0
1591,212.92499999999998,213.00729166666667,54.0,85.0
1592,212.67499999999998,213.01770833333333,49.0,70.0
1593,212.92499999999998,213.01979166666666,58.0,87.0
1594,212.92499999999998,213.05625,61.0,88.0
1595,212.42499999999998,213.21666666666667,42.0,86.0
1596,213.17499999999998,213.27916666666667,54.0,81.0
1597,213.67499999999998,213.81145833333332,54.0,85.0
1598,213.92499999999998,214.04375,58.0,88.0
1599,213.92499999999998,214.04791666666665,61.0,91.0
1600,213.92499999999998,214.04999999999998,42.0,86.0
1601,213.92499999999998,214.13958333333332,66.0,89.0
1602,214.17499999999998,214.26354166666667,54.0,87.0
1603,214.42499999999998,214.52604166666666,56.0,84.0
1604,214.42499999999998,214.63333333333333,61.0,86.0
1605,214.67499999999998,214.775,56.0,84.0
1606,214.42499999999998,214.93541666666667,49.0,91.0
1607,214.92499999999998,215.01874999999998,56.0,88.0
1608,214.92499999999998,215.09270833333332,61.0,89.0
1609,214.92499999999998,215.12604166666665,65.0,85.0
1610,215.17499999999998,215.26979166666666,56.0,85.0
1611,215.42499999999998,215.54479166666667,61.0,82.0
1612,215.67499999999998,215.78437499999998,56.0,86.0
1613,215.92499999999998,215.99375,56.0,87.0
1614,215.92499999999998,216.0125,49.0,101.0
1615,215.92499999999998,216.04479166666667,61.0,95.0
1616,215.92499999999998,216.09583333333333,65.0,90.0
1617,216.17499999999998,216.26979166666666,56.0,84.0
1618,216.42499999999998,216.54791666666665,58.0,83.0
1619,216.42499999999998,216.60208333333333,63.0,86.0
1620,216.42499999999998,216.68541666666667,66.0,86.0
1621,216.67499999999998,216.74479166666666,58.0,83.0
1622,216.42499999999998,217.03541666666666,39.0,88.0
1623,216.92499999999998,217.040625,58.0,86.0
1624,216.92499999999998,217.09687499999998,63.0,95.0
1625,216.92499999999998,217.15416666666667,66.0,91.0
1626,217.17499999999998,217.24479166666666,58.0,80.0
1627,217.42499999999998,217.51874999999998,63.0,80.0
1628,217.67499999999998,217.83020833333333,58.0,90.0
1629,217.92499999999998,218.009375,58.0,89.0
1630,217.67499999999998,218.01041666666666,39.0,87.0
1631,217.92499999999998,218.03645833333334,46.0,85.0
1632,217.92499999999998,218.0625,63.0,98.0
1633,217.92499999999998,218.10520833333334,66.0,93.0
1634,218.17499999999998,218.296875,58.0,86.0
1635,218.42499999999998,218.671875,59.0,73.0
1636,218.67499999999998,218.80729166666666,54.0,79.0
1637,218.42499999999998,218.98854166666666,47.0,98.0
1638,218.92499999999998,219.01874999999998,59.0,90.0
1639,218.92499999999998,219.04375,63.0,85.0
1640,219.17499999999998,219.2125,54.0,65.0
1641,219.42499999999998,219.48229166666667,54.0,79.0
1642,219.67499999999998,219.78437499999998,54.0,86.0
1643,219.92499999999998,220.021875,47.0,98.0
1644,219.92499999999998,220.040625,59.0,93.0
1645,219.92499999999998,220.06041666666667,63.0,91.0
1646,220.17499999999998,220.27395833333333,54.0,88.0
1647,220.42499999999998,220.609375,54.0,84.0
1648,220.42499999999998,220.65937499999998,58.0,79.0
1649,220.92499999999998,221.00729166666667,54.0,85.0
1650,220.67499999999998,221.01770833333333,49.0,70.0
1651,220.92499999999998,221.01979166666666,58.0,87.0
1652,220.92499999999998,221.05625,61.0,88.0
1653,220.42499999999998,221.21666666666667,42.0,86.0
1654,221.17499999999998,221.27916666666667,54.0,81.0
1655,221.67499999999998,221.81145833333332,54.0,85.0
1656,221.92499999999998,222.04375,58.0,88.0
1657,221.92499999999998,222.04791666666665,61.0,91.0
1658,221.92499999999998,222.04999999999998,42.0,86.0
1659,221.92499999999998,222.13958333333332,66.0,89.0
1660,222.17499999999998,222.26354166666667,54.0,87.0
1661,222.42499999999998,222.52604166666666,56.0,84.0
1662,222.42499999999998,222.63333333333333,61.0,86.0
1663,222.67499999999998,222.775,56.0,84.0
1664,222.42499999999998,222.93541666666667,49.0,91.0
1665,222.92499999999998,223.01874999999998,56.0,88.0
1666,222.92499999999998,223.09270833333332,61.0,89.0
1667,222.92499999999998,223.12604166666665,65.0,85.0
1668,223.17499999999998,223.26979166666666,56.0,85.0
1669,223.42499999999998,223.54479166666667,61.0,82.0
1670,223.67499999999998,223.78437499999998,56.0,86.0
1671,223.92499999999998,223.99375,56.0,87.0
1672,223.92499999999998,224.0125,49.0,101.0
1673,223.92499999999998,224.04479166666667,61.0,95.0
1674,223.92499999999998,224.09583333333333,65.0,90.0
1675,224.17499999999998,224.26979166666666,56.0,84.0
1676,224.38020833333334,225.615625,39.0,84.0
1677,224.45416666666665,225.684375,66.0,70.0
1678,224.31145833333332,225.68958333333333,58.0,79.0
1679,224.384375,225.709375,63.0,80.0
