,start,end,pitch,velocity
0,33.0345465625,33.37877661458333,71.0,85.0
1,33.4960840625,33.669160625,69.0,81.0
2,33.7268528125,34.69031234375,66.0,81.0
3,34.8806965625,35.24031119791667,71.0,81.0
4,35.3422340625,35.482618385416664,69.0,81.0
5,35.5730028125,36.721077343750004,66.0,78.0
6,37.1883840625,37.34607604166667,66.0,81.0
7,37.4191528125,37.613383177083335,69.0,82.0
8,37.6499215625,37.774921302083335,71.0,85.0
9,37.8806903125,37.9960746875,71.0,82.0
10,38.1114590625,38.25184338541667,71.0,81.0
11,38.3422278125,38.50184286458333,71.0,81.0
12,38.5729965625,38.732611614583334,71.0,81.0
13,38.8037653125,39.169149166666664,73.0,82.0
14,39.2653028125,39.474917760416666,71.0,82.0
15,39.4960715625,39.8191478125,69.0,79.0
16,39.9576090625,40.405685052083335,66.0,79.0
17,40.8806840625,41.04799140625,66.0,79.0
18,41.1114528125,41.288375520833334,69.0,82.0
19,41.3422215625,41.4806828125,71.0,76.0
20,41.5729903125,41.70760541666667,71.0,83.0
21,41.8037590625,41.946066458333334,71.0,81.0
22,42.0345278125,42.207604375,71.0,83.0
23,42.2652965625,42.630680416666664,78.0,83.0
24,42.726834062500004,42.87683375,71.0,81.0
25,42.9576028125,43.6499090625,71.0,82.0
26,43.6499090625,44.38259984375,69.0,82.0
27,45.034521562500004,45.38452083333333,71.0,85.0
28,45.4960590625,45.878750572916665,71.0,85.0
29,45.9575965625,46.188365312500004,78.0,82.0
30,46.188365312500004,46.8806715625,71.0,83.0
31,46.8806715625,47.840284947916665,69.0,83.0
32,47.8037465625,48.147976614583335,71.0,85.0
33,48.2652840625,48.438360625,69.0,81.0
34,48.496052812500004,49.45951234375,66.0,81.0
35,49.6498965625,50.009511197916666,71.0,81.0
36,50.1114340625,50.25181838541667,69.0,81.0
37,50.3422028125,51.49027734375,66.0,78.0
38,51.9575840625,52.11527604166667,66.0,81.0
39,52.1883528125,52.38258317708333,69.0,82.0
40,52.4191215625,52.54412130208333,71.0,85.0
41,52.6498903125,52.7652746875,71.0,82.0
42,52.8806590625,53.02104338541667,71.0,81.0
43,53.1114278125,53.271042864583336,71.0,81.0
44,53.3421965625,53.50181161458333,71.0,81.0
45,53.5729653125,53.93834916666667,73.0,82.0
46,54.0345028125,54.244117760416664,71.0,82.0
47,54.2652715625,54.5880410125,69.0,79.0
48,54.7262898625,55.173678502083334,66.0,79.0
49,55.6479488625,55.81499955625,66.0,79.0
50,55.8783636125,56.05501492083334,69.0,82.0
51,56.1087783625,56.2470272125,71.0,76.0
52,56.3391931125,56.473601716666664,71.0,83.0
53,56.5696078625,56.711696958333334,71.0,81.0
54,56.8000226125,56.972833675,71.0,83.0
55,57.0304373625,57.39526071666667,78.0,83.0
56,57.4912668625,57.64103645,71.0,81.0
57,57.7216816125,58.4129258625,71.0,82.0
58,58.4129258625,59.14449269375,69.0,82.0
59,59.7954143625,60.144876733333334,71.0,85.0
60,60.2562438625,60.63834832291667,71.0,85.0
61,60.7170733625,60.9474881125,78.0,82.0
62,60.9474881125,61.6387323625,71.0,83.0
63,61.6387323625,62.596873697916664,69.0,83.0
64,64.4037093625,64.76085222500001,74.0,98.0
65,64.8645388625,65.21592135624999,76.0,84.0
66,65.3253683625,65.43865561458333,78.0,92.0
67,65.5557831125,65.65946975,78.0,83.0
68,65.7861978625,65.89564486875,78.0,86.0
69,66.0166126125,66.16446207708333,78.0,85.0
70,66.2470273625,66.62337145416666,71.0,86.0
71,66.7078568625,66.83266485208333,78.0,85.0
72,66.9382716125,67.57383229791667,78.0,83.0
73,67.6295158625,68.60301818125001,76.0,86.0
74,69.0120043625,69.1272117375,76.0,86.0
75,69.2424191125,69.3576264875,76.0,83.0
76,69.4728338625,69.60148209791666,76.0,83.0
77,69.7032486125,69.82229623333333,76.0,85.0
78,69.9336633625,70.09111344166666,76.0,85.0
79,70.1640781125,70.57114417083334,78.0,84.0
80,70.6249076125,70.75355584791666,76.0,88.0
81,70.8553223625,71.25662805208333,74.0,88.0
82,71.31615186249999,72.02851746458333,71.0,82.0
83,72.6986403625,72.81768798333333,74.0,92.0
84,72.9290551125,73.02890150416667,74.0,86.0
85,73.1594698625,73.27083699166667,74.0,85.0
86,73.3898846125,73.58381702708334,74.0,85.0
87,73.62029936249999,73.77774944166667,69.0,84.0
88,73.8507141125,74.16753439375,74.0,88.0
89,74.3115436125,74.9336634375,76.0,86.0
90,75.0027878625,75.32152826666666,76.0,84.0
91,75.4636173625,75.61914731875,73.0,77.0
92,75.6940321125,75.89756514166666,71.0,79.0
93,75.92444686249999,76.34879402708333,69.0,83.0
94,76.38527636250001,78.73166656666666,71.0,82.0
95,79.1502533625,79.50739622500001,74.0,98.0
96,79.6110828625,79.96246535625,76.0,84.0
97,80.0719123625,80.18519961458333,78.0,92.0
98,80.3023271125,80.40601375,78.0,83.0
99,80.5327418625,80.64218886875,78.0,86.0
100,80.7631566125,80.91100607708333,78.0,85.0
101,80.9935713625,81.36991545416666,71.0,86.0
102,81.4544008625,81.57920885208333,78.0,85.0
103,81.6848156125,82.32037629791667,78.0,83.0
104,82.3760598625,83.34956218125001,76.0,86.0
105,83.7585483625,83.8737557375,76.0,86.0
106,83.9889631125,84.1041704875,76.0,83.0
107,84.2193778625,84.34802609791666,76.0,83.0
108,84.4497926125,84.56884023333333,76.0,85.0
109,84.6802073625,84.83765744166666,76.0,85.0
110,84.9106221125,85.31768817083334,78.0,84.0
111,85.3714516125,85.50009984791666,76.0,88.0
112,85.6018663625,86.00317205208333,74.0,88.0
113,86.0626958625,86.77604971458334,71.0,82.0
114,87.4472021625,87.56643268333333,74.0,92.0
115,87.6779709125,87.77797070416668,74.0,86.0
116,87.90873966250001,88.02027789166667,74.0,85.0
117,88.1395084125,88.33373877708334,74.0,85.0
118,88.3702771625,88.52796914166667,69.0,84.0
119,88.60104591250001,88.91835294375001,74.0,88.0
120,89.0625834125,89.6856590375,76.0,86.0
121,89.7548896625,90.07411976666667,76.0,84.0
122,90.21642716250001,90.37219606875,73.0,77.0
123,90.4471959125,90.65104164166667,71.0,79.0
124,90.6779646625,91.10296377708335,69.0,83.0
125,91.13950216250001,93.48949726666667,71.0,82.0
126,97.6010271625,97.94499171458334,71.0,85.0
127,98.06211921250001,98.234930275,69.0,81.0
128,98.2925339625,99.25451554375,66.0,81.0
129,99.4446077125,99.80367069791667,71.0,81.0
130,99.9054372125,100.04560618541667,69.0,81.0
131,100.1358519625,101.28216534375001,66.0,78.0
132,101.7487552125,101.90620529166667,66.0,81.0
133,101.97916996250001,102.17310237708334,69.0,82.0
134,102.2095847125,102.33439270208333,71.0,85.0
135,102.4399994625,102.55520683750001,71.0,82.0
136,102.6704142125,102.81058318541668,71.0,81.0
137,102.9008289625,103.06019916458334,71.0,81.0
138,103.13124371250001,103.29061391458333,71.0,81.0
139,103.3616584625,103.72648181666666,73.0,82.0
140,103.8224879625,104.03178136041667,71.0,82.0
141,104.0529027125,104.3754833625,69.0,79.0
142,104.5137322125,104.96112085208334,66.0,79.0
143,105.43539121250001,105.60244190625001,66.0,79.0
144,105.6658059625,105.84245727083334,69.0,82.0
145,105.8962207125,106.0344695625,71.0,76.0
146,106.1266354625,106.26104406666667,71.0,83.0
147,106.3570502125,106.49913930833334,71.0,81.0
148,106.58746496250001,106.760276025,71.0,83.0
149,106.8178797125,107.18270306666668,78.0,83.0
150,107.2787092125,107.42847880000001,71.0,81.0
151,107.5091239625,108.2003682125,71.0,82.0
152,108.2003682125,108.93193504375,69.0,82.0
153,109.5828567125,109.93231908333334,71.0,85.0
154,110.0436862125,110.42579067291666,71.0,85.0
155,110.5045157125,110.7349304625,78.0,82.0
156,110.7349304625,111.4261747125,71.0,83.0
157,111.4261747125,112.38431604791667,69.0,83.0
158,112.3478337125,112.69153571458334,71.0,85.0
159,112.80866321250001,112.981474275,69.0,81.0
160,113.0390779625,114.00105954375,66.0,81.0
161,114.1911517125,114.55021469791667,71.0,81.0
162,114.6519812125,114.79215018541667,69.0,81.0
163,114.8823959625,116.02870934375,66.0,78.0
164,116.4952992125,116.65274929166667,66.0,81.0
165,116.72571396250001,116.91964637708334,69.0,82.0
166,116.9561287125,117.08093670208333,71.0,85.0
167,117.1865434625,117.30175083750001,71.0,82.0
168,117.4169582125,117.55712718541668,71.0,81.0
169,117.6473729625,117.80674316458334,71.0,81.0
170,117.87778771250001,118.03715791458333,71.0,81.0
171,118.1082024625,118.47302581666668,73.0,82.0
172,118.5690319625,118.77832536041667,71.0,82.0
173,118.7994467125,119.1220273625,69.0,79.0
174,119.2602762125,119.70766485208334,66.0,79.0
175,120.18193521250001,120.34898590625,66.0,79.0
176,120.4123499625,120.58900127083334,69.0,82.0
177,120.6427647125,120.7810135625,71.0,76.0
178,120.8731794625,121.00758806666667,71.0,83.0
179,121.1035942125,121.24568330833333,71.0,81.0
180,121.33400896250001,121.506820025,71.0,83.0
181,121.5644237125,121.92924706666668,78.0,83.0
182,122.0252532125,122.1750228,71.0,81.0
183,122.2556679625,122.9469122125,71.0,82.0
184,122.9469122125,123.67847904375,69.0,82.0
185,124.3294007125,124.67886308333334,71.0,85.0
186,124.7902302125,125.17233467291666,71.0,85.0
187,125.2510597125,125.4814744625,78.0,82.0
188,125.4814744625,126.1727187125,71.0,83.0
189,126.1727187125,127.13086004791667,69.0,83.0
190,127.0943777125,127.451520575,74.0,98.0
191,127.5552072125,127.90658970625,76.0,84.0
192,128.0160367125,128.12932396458334,78.0,92.0
193,128.2464514625,128.3501381,78.0,83.0
194,128.4768662125,128.58631321875,78.0,86.0
195,128.7072809625,128.85513042708334,78.0,85.0
196,128.9376957125,129.31403980416667,71.0,86.0
197,129.3985252125,129.52333320208334,78.0,85.0
198,129.6289399625,130.26450064791666,78.0,83.0
199,130.3201842125,131.29368653125,76.0,86.0
200,131.7026727125,131.8178800875,76.0,86.0
201,131.9330874625,132.0482948375,76.0,83.0
202,132.1635022125,132.29215044791667,76.0,83.0
203,132.3939169625,132.51296458333334,76.0,85.0
204,132.6243317125,132.78178179166667,76.0,85.0
205,132.8547464625,133.26181252083333,78.0,84.0
206,133.3155759625,133.44422419791667,76.0,88.0
207,133.5459907125,133.94729640208334,74.0,88.0
208,134.0068202125,134.71918581458334,71.0,82.0
209,135.3893087125,135.50835633333332,74.0,92.0
210,135.61972346250002,135.71956985416668,74.0,86.0
211,135.85013821249999,135.96150534166668,74.0,85.0
212,136.0805529625,136.27448537708335,74.0,85.0
213,136.3109677125,136.46841779166667,69.0,84.0
214,136.5413824625,136.85820274374998,74.0,88.0
215,137.00221196249998,137.6243317875,76.0,86.0
216,137.6934562125,138.01219661666667,76.0,84.0
217,138.15428571249998,138.30981566875,73.0,77.0
218,138.3847004625,138.58823349166667,71.0,79.0
219,138.6151152125,139.03946237708334,69.0,83.0
220,139.07594471250002,141.42233491666667,71.0,82.0
221,141.8409217125,142.198064575,74.0,98.0
222,142.3017512125,142.65313370625,76.0,84.0
223,142.7625807125,142.87586796458334,78.0,92.0
224,142.9929954625,143.0966821,78.0,83.0
225,143.2234102125,143.33285721875,78.0,86.0
226,143.4538249625,143.60167442708334,78.0,85.0
227,143.68423971250002,144.06058380416667,71.0,86.0
228,144.1450692125,144.26987720208334,78.0,85.0
229,144.3754839625,145.01104464791666,78.0,83.0
230,145.0667282125,146.04023053125002,76.0,86.0
231,146.4492167125,146.56442408750002,76.0,86.0
232,146.6796314625,146.7948388375,76.0,83.0
233,146.9100462125,147.03869444791667,76.0,83.0
234,147.14046096250001,147.25950858333334,76.0,85.0
235,147.3708757125,147.52832579166667,76.0,85.0
236,147.6012904625,148.00835652083333,78.0,84.0
237,148.0621199625,148.19076819791667,76.0,88.0
238,148.29253471250001,148.69384040208334,74.0,88.0
239,148.7533642125,149.46572981458334,71.0,82.0
240,150.1358527125,150.25490033333332,74.0,92.0
241,150.3662674625,150.46611385416668,74.0,86.0
242,150.5966822125,150.70804934166665,74.0,85.0
243,150.8270969625,151.02102937708332,74.0,85.0
244,151.0575117125,151.21496179166667,69.0,84.0
245,151.2879264625,151.60474674375,74.0,88.0
246,151.7487559625,152.3708757875,76.0,86.0
247,152.4400002125,152.75874061666667,76.0,84.0
248,152.9008297125,153.05635966875,73.0,77.0
249,153.1312444625,153.33477749166667,71.0,79.0
250,153.3616592125,153.78600637708334,69.0,83.0
251,153.8224887125,156.18051732916666,71.0,82.0
252,186.12703111875004,186.48417398125002,74.0,98.0
253,186.58786061875003,186.93924311250004,76.0,84.0
254,187.04869011875002,187.16197737083337,78.0,92.0
255,187.27910486875004,187.38279150625004,78.0,83.0
256,187.50951961875003,187.61896662500004,78.0,86.0
257,187.73993436875003,187.88778383333337,78.0,85.0
258,187.97034911875002,188.3466932104167,71.0,86.0
259,188.43117861875004,188.55598660833337,78.0,85.0
260,188.66159336875003,189.2971540541667,78.0,83.0
261,189.35283761875002,190.32633993750002,76.0,86.0
262,190.73532611875004,190.85053349375002,76.0,86.0
263,190.96574086875003,191.08094824375004,76.0,83.0
264,191.19615561875003,191.3248038541667,76.0,83.0
265,191.42657036875002,191.54561798958338,76.0,85.0
266,191.65698511875001,191.8144351979167,76.0,85.0
267,191.88739986875004,192.29446592708337,78.0,84.0
268,192.34822936875003,192.4768776041667,76.0,88.0
269,192.57864411875002,192.97994980833337,74.0,88.0
270,193.03947361875004,193.75183922083338,71.0,82.0
271,194.42196211875003,194.54100973958336,74.0,92.0
272,194.65237686875003,194.7522232604167,74.0,86.0
273,194.88279161875002,194.99415874791669,74.0,85.0
274,195.11320636875004,195.30713878333336,74.0,85.0
275,195.34362111875004,195.5010711979167,69.0,84.0
276,195.57403586875003,195.89085615000002,74.0,88.0
277,196.03486536875002,196.65698519375002,76.0,86.0
278,196.72610961875003,197.0448500229167,76.0,84.0
279,197.18693911875002,197.34246907500003,73.0,77.0
280,197.41735386875004,197.6208868979167,71.0,79.0
281,197.64776861875004,198.07211578333337,69.0,83.0
282,198.10859811875002,200.4549883229167,71.0,82.0
283,200.87357511875004,201.23071798125002,74.0,98.0
284,201.33440461875003,201.68578711250004,76.0,84.0
285,201.79523411875005,201.90852137083337,78.0,92.0
286,202.02564886875004,202.12933550625002,78.0,83.0
287,202.25606361875003,202.36551062500004,78.0,86.0
288,202.48647836875003,202.63432783333337,78.0,85.0
289,202.71689311875002,203.0932372104167,71.0,86.0
290,203.17772261875004,203.30253060833337,78.0,85.0
291,203.40813736875003,204.0436980541667,78.0,83.0
292,204.09938161875004,205.07288393750002,76.0,86.0
293,205.48187011875004,205.59707749375002,76.0,86.0
294,205.71228486875003,205.82749224375004,76.0,83.0
295,205.94269961875003,206.0713478541667,76.0,83.0
296,206.17311436875002,206.29216198958335,76.0,85.0
297,206.40352911875004,206.5609791979167,76.0,85.0
298,206.63394386875004,207.04100992708337,78.0,84.0
299,207.09477336875003,207.2234216041667,76.0,88.0
300,207.32518811875002,207.72649380833337,74.0,88.0
301,207.78601761875004,208.49838322083338,71.0,82.0
302,209.16850611875003,209.28755373958336,74.0,92.0
303,209.39892086875003,209.49876726041668,74.0,86.0
304,209.62933561875002,209.7407027479167,74.0,85.0
305,209.85975036875004,210.05368278333336,74.0,85.0
306,210.09016511875004,210.2476151979167,69.0,84.0
307,210.32057986875003,210.63740015000002,74.0,88.0
308,210.78140936875002,211.40352919375005,76.0,86.0
309,211.47265361875003,211.7913940229167,76.0,84.0
310,211.93348311875002,212.08901307500003,73.0,77.0
311,212.16389786875004,212.3674308979167,71.0,79.0
312,212.39431261875004,212.81865978333337,69.0,83.0
313,212.85514211875002,215.2015323229167,71.0,82.0
314,216.54177811875002,216.72995016458336,74.0,82.0
315,216.77219286875004,216.9123618416667,74.0,84.0
316,217.00260761875003,217.1658180666667,74.0,82.0
317,217.23302236875003,217.40583343125002,74.0,86.0
318,217.46343711875002,217.64008842708336,69.0,81.0
319,217.69385186875002,218.24108690000003,74.0,85.0
320,218.38509611875003,218.7844816854167,76.0,83.0
321,218.84592561875002,219.2337904479167,76.0,82.0
322,219.30675511875003,219.58133269583337,73.0,81.0
323,219.53716986875003,219.70230043958335,71.0,82.0
324,219.76758461875002,220.15544944791668,69.0,82.0
325,220.21689338125003,223.5367859041667,71.0,87.0
