,start,end,pitch,velocity
0,4.4192215625,4.6961440625,57.0,81.0
1,4.6499903125,5.1153739583333335,59.0,84.0
2,5.3422965625,5.7346034375,59.0,85.0
3,5.8038340625,6.015372083333333,57.0,77.0
4,4.4192215625,6.134602604166667,47.0,82.0
5,4.8807590625,6.1499871875,54.0,60.0
6,6.0346028125,6.771139739583333,59.0,83.0
7,6.7269090625,7.0076777083333335,57.0,72.0
8,7.1884465625,7.519215104166666,59.0,63.0
9,6.2653715625,7.87498359375,47.0,81.0
10,6.4961403125,7.923060416666667,54.0,72.0
11,9.0345965625,9.355749739583333,59.0,65.0
12,9.0345965625,9.37498046875,62.0,70.0
13,9.9576715625,10.209594114583334,62.0,56.0
14,9.9576715625,10.219209479166667,59.0,45.0
15,10.8807465625,10.992284791666666,62.0,71.0
16,10.8807465625,11.00190015625,59.0,67.0
17,8.5730590625,11.057669270833333,54.0,60.0
18,8.1115215625,11.1115153125,47.0,82.0
19,11.8038215625,12.084590208333333,57.0,82.0
20,12.0345903125,12.38651265625,59.0,84.0
21,12.7268965625,12.878819322916668,59.0,87.0
22,13.1884340625,13.319203020833333,57.0,75.0
23,11.8038215625,13.473048854166667,47.0,81.0
24,12.2653590625,13.4884334375,54.0,61.0
25,13.4192028125,14.126893645833334,59.0,80.0
26,14.1115090625,14.2268934375,57.0,60.0
27,13.8807403125,14.869199791666666,54.0,65.0
28,14.3422778125,15.174968385416667,59.0,71.0
29,13.6499715625,15.273045104166666,47.0,82.0
30,15.0345840625,15.361506458333334,54.0,63.0
31,15.4961215625,15.799967083333334,62.0,54.0
32,15.4961215625,15.899966875,59.0,60.0
33,15.9576590625,16.582657760416666,54.0,54.0
34,16.4191965625,16.738426666666665,62.0,53.0
35,16.4191965625,16.801888072916668,59.0,55.0
36,16.8807340625,17.473040520833333,54.0,48.0
37,17.3422715625,17.58457875,59.0,79.0
38,17.3422715625,17.594194114583335,62.0,77.0
39,18.0345778125,18.1499621875,59.0,59.0
40,18.2653465625,18.355730989583332,62.0,73.0
41,18.2653465625,18.359577135416668,59.0,71.0
42,18.2653465625,18.37496171875,66.0,71.0
43,18.4961153125,18.555730572916666,62.0,59.0
44,18.4961153125,18.574961302083334,59.0,60.0
45,15.4961215625,19.19034463541667,47.0,77.0
46,19.1884215625,19.19034463541667,47.0,83.0
47,18.7268840625,19.203806145833333,59.0,81.0
48,19.1884215625,19.203806145833333,59.0,72.0
49,18.7268840625,19.219190729166666,62.0,82.0
50,19.1884215625,19.219190729166666,62.0,76.0
51,18.7268840625,19.2345753125,66.0,80.0
52,19.1884215625,19.2345753125,66.0,70.0
53,17.8038090625,19.244190677083335,54.0,67.0
54,19.6499590625,20.24418859375,54.0,66.0
55,20.1114965625,20.396111354166667,59.0,83.0
56,20.1114965625,20.551880260416667,62.0,88.0
57,20.3422653125,20.563418697916667,54.0,67.0
58,20.1114965625,20.624957031250002,66.0,87.0
59,20.5730340625,20.721110677083335,59.0,83.0
60,21.034571562500002,21.534570520833334,57.0,79.0
61,21.034571562500002,21.55380125,61.0,74.0
62,21.7268778125,21.821108385416668,57.0,76.0
63,21.4961090625,22.019184895833334,49.0,66.0
64,21.034571562500002,22.14803078125,42.0,83.0
65,21.9576465625,22.213415260416667,57.0,83.0
66,21.9576465625,22.29226125,61.0,84.0
67,22.188415312500002,22.313415052083332,49.0,82.0
68,21.9576465625,22.640337447916668,66.0,82.0
69,22.4191840625,22.74802953125,57.0,82.0
70,22.6499528125,22.807644791666668,61.0,77.0
71,22.8807215625,23.369182083333335,57.0,81.0
72,22.8807215625,23.38264359375,62.0,75.0
73,23.342259062500002,23.9422578125,45.0,65.0
74,22.8807215625,24.082642135416666,38.0,84.0
75,23.8037965625,24.274949427083335,57.0,85.0
76,24.2653340625,24.319180104166666,38.0,45.0
77,23.8037965625,24.319180104166666,62.0,86.0
78,24.2653340625,24.438410625,45.0,82.0
79,24.4961028125,24.61725640625,57.0,82.0
80,24.7268715625,24.949948020833332,57.0,76.0
81,24.7268715625,25.0499478125,61.0,66.0
82,25.1884090625,25.28263963541667,57.0,82.0
83,24.9576403125,25.469177708333333,52.0,74.0
84,25.4191778125,25.711484895833333,64.0,82.0
85,25.4191778125,25.740330989583335,57.0,85.0
86,24.7268715625,25.961484375,45.0,83.0
87,25.6499465625,25.986484322916667,52.0,85.0
88,25.8807153125,26.023022708333333,57.0,81.0
89,25.8807153125,26.190330052083333,61.0,83.0
90,25.8807153125,26.2037915625,64.0,85.0
91,26.1114840625,26.309560572916666,57.0,80.0
92,26.5730215625,27.08648203125,59.0,77.0
93,26.5730215625,27.117251197916666,55.0,79.0
94,27.0345590625,27.532634947916666,50.0,69.0
95,27.4960965625,27.74417296875,55.0,83.0
96,27.4960965625,27.873018854166666,62.0,82.0
97,27.4960965625,27.91917260416667,59.0,82.0
98,26.5730215625,28.2114796875,43.0,81.0
99,27.9576340625,28.238402708333332,55.0,82.0
100,27.7268653125,28.255710364583333,50.0,81.0
101,28.1884028125,28.40186390625,59.0,74.0
102,28.4191715625,28.94417046875,57.0,77.0
103,28.4191715625,28.988401145833333,61.0,81.0
104,28.4191715625,29.07109328125,64.0,82.0
105,29.1114778125,29.246092916666665,57.0,87.0
106,28.8807090625,29.303785104166668,52.0,78.0
107,28.4191715625,29.37109265625,45.0,83.0
108,29.3422465625,29.644169010416668,57.0,81.0
109,29.3422465625,29.7114765625,61.0,75.0
110,29.8037840625,30.286475364583332,59.0,82.0
111,29.8037840625,30.382629010416668,64.0,83.0
112,30.9576278125,31.074935260416666,52.0,76.0
113,30.7268590625,31.282627135416668,47.0,68.0
114,31.1883965625,31.4768575,52.0,82.0
115,31.1883965625,31.71339546875,59.0,82.0
116,29.8037840625,31.938395,40.0,84.0
117,31.4191653125,31.938395,47.0,75.0
118,31.6499340625,32.02685635416667,52.0,77.0
119,32.1114715625,32.50762458333333,64.0,77.0
120,32.1114715625,32.5845475,56.0,61.0
121,32.1114715625,32.588393645833335,59.0,72.0
122,32.5730090625,33.1037771875,47.0,58.0
123,32.1114715625,33.1730078125,40.0,81.0
124,33.0345465625,33.22877692708333,56.0,77.0
125,33.0345465625,33.23262307291667,52.0,82.0
126,33.0345465625,33.27108453125,59.0,81.0
127,33.9576215625,34.50762041666667,62.0,77.0
128,33.9576215625,34.51915885416667,59.0,75.0
129,34.4191590625,34.95761947916667,54.0,66.0
130,34.8806965625,35.146080625,59.0,82.0
131,34.8806965625,35.20569588541667,62.0,82.0
132,34.8806965625,35.24800348958333,66.0,77.0
133,35.1114653125,35.33646484375,54.0,66.0
134,33.9576215625,35.40569546875,47.0,80.0
135,35.3422340625,35.5037721875,59.0,81.0
136,35.8037715625,36.324924322916665,61.0,69.0
137,35.8037715625,36.35569348958333,57.0,65.0
138,36.2653090625,36.86723088541667,49.0,54.0
139,35.8037715625,36.869153958333335,42.0,77.0
140,36.7268465625,36.92492307291667,57.0,75.0
141,36.7268465625,37.14607645833333,61.0,79.0
142,36.7268465625,37.34799911458333,66.0,73.0
143,37.6499215625,38.146074375,62.0,77.0
144,37.6499215625,38.17107432291667,59.0,73.0
145,38.1114590625,38.609534947916664,54.0,66.0
146,38.5729965625,38.79799609375,59.0,81.0
147,38.5729965625,38.865303645833336,62.0,82.0
148,37.6499215625,38.95761114583333,47.0,81.0
149,38.5729965625,38.95761114583333,66.0,82.0
150,38.8037653125,38.9883803125,54.0,74.0
151,39.0345340625,39.192226041666665,59.0,82.0
152,39.4960715625,39.999916666666664,57.0,74.0
153,39.4960715625,40.019147395833336,61.0,70.0
154,39.9576090625,40.49414640625,49.0,64.0
155,40.4191465625,40.657607604166664,57.0,81.0
156,39.4960715625,40.68837677083334,42.0,77.0
157,40.4191465625,40.753761250000004,61.0,86.0
158,40.6499153125,40.822991875,49.0,73.0
159,40.4191465625,40.84799182291667,66.0,77.0
160,40.8806840625,41.15183734375,57.0,82.0
161,41.1114528125,41.2960678125,61.0,81.0
162,41.3422215625,41.74029765625,62.0,81.0
163,41.3422215625,41.79414369791667,59.0,73.0
164,41.8037590625,42.346065625,54.0,54.0
165,41.3422215625,42.503757604166665,47.0,81.0
166,42.2652965625,42.526834479166666,62.0,82.0
167,42.2652965625,42.530680625,59.0,82.0
168,42.2652965625,42.555680572916664,66.0,82.0
169,43.1883715625,43.62106296875,57.0,72.0
170,43.1883715625,43.680678229166666,61.0,72.0
171,43.880677812500004,43.965293020833336,57.0,60.0
172,43.1883715625,44.340292239583334,42.0,78.0
173,43.6499090625,44.378753697916665,49.0,68.0
174,44.1114465625,44.47106119791667,66.0,80.0
175,44.1114465625,44.490291927083334,57.0,83.0
176,44.1114465625,44.49798421875,61.0,88.0
177,44.5729840625,44.699906875,42.0,83.0
178,45.034521562500004,45.607597291666664,59.0,79.0
179,45.034521562500004,45.67298177083333,55.0,79.0
180,45.4960590625,45.95951963541667,50.0,73.0
181,45.9575965625,46.15375,55.0,83.0
182,45.9575965625,46.22874984375,62.0,81.0
183,45.034521562500004,46.436441718750004,43.0,76.0
184,46.188365312500004,46.54413380208334,50.0,76.0
185,46.4191340625,46.66528739583333,55.0,82.0
186,46.6499028125,46.8575946875,62.0,82.0
187,46.8806715625,47.342209062500004,57.0,76.0
188,46.8806715625,47.430670416666665,61.0,86.0
189,47.5729778125,47.67682375,57.0,69.0
190,47.342209062500004,47.82297729166667,52.0,77.0
191,47.8037465625,47.95566932291667,61.0,79.0
192,47.8037465625,48.0575921875,57.0,79.0
193,47.8037465625,48.63066791666667,64.0,81.0
194,48.2652840625,48.64220635416667,57.0,77.0
195,48.0345153125,48.67297552083333,52.0,82.0
196,46.8806715625,48.682590885416666,45.0,82.0
197,48.7268215625,49.276820416666666,62.0,77.0
198,48.7268215625,49.28835885416667,59.0,75.0
199,49.1883590625,49.726819479166664,54.0,66.0
200,49.6498965625,49.915280625,59.0,82.0
201,49.6498965625,49.974895885416664,62.0,82.0
202,49.6498965625,50.01720348958333,66.0,77.0
203,49.8806653125,50.10566484375,54.0,66.0
204,48.7268215625,50.17489546875,47.0,80.0
205,50.1114340625,50.2729721875,59.0,81.0
206,50.5729715625,51.09412432291667,61.0,69.0
207,50.5729715625,51.124893489583336,57.0,65.0
208,51.0345090625,51.636430885416665,49.0,54.0
209,50.5729715625,51.63835395833333,42.0,77.0
210,51.4960465625,51.69412307291667,57.0,75.0
211,51.4960465625,51.91527645833333,61.0,79.0
212,51.4960465625,52.117199114583336,66.0,73.0
213,52.4191215625,52.915274375,62.0,77.0
214,52.4191215625,52.940274322916665,59.0,73.0
215,52.8806590625,53.37873494791667,54.0,66.0
216,53.3421965625,53.56719609375,59.0,81.0
217,53.3421965625,53.634503645833334,62.0,82.0
218,52.4191215625,53.72681114583333,47.0,81.0
219,53.3421965625,53.72681114583333,66.0,82.0
220,53.5729653125,53.757580312500004,54.0,74.0
221,53.8037340625,53.96142604166667,59.0,82.0
222,54.2652715625,54.768532566666664,57.0,74.0
223,54.2652715625,54.78773379583333,61.0,70.0
224,54.7262898625,55.26200415625,49.0,64.0
225,55.1871193625,55.42521460416667,57.0,81.0
226,54.2652715625,55.45593657083333,42.0,77.0
227,55.1871193625,55.52122075,61.0,86.0
228,55.4175341125,55.590345175,49.0,73.0
229,55.1871193625,55.61530677291667,66.0,77.0
230,55.6479488625,55.91868619375,57.0,82.0
231,55.8783636125,56.0626954125,61.0,81.0
232,56.1087783625,56.50624380625,62.0,81.0
233,56.1087783625,56.560007247916666,59.0,73.0
234,56.5696078625,57.111082525,54.0,54.0
235,56.1087783625,57.268532604166666,47.0,81.0
236,57.0304373625,57.291574079166665,62.0,82.0
237,57.0304373625,57.295414325,59.0,82.0
238,57.0304373625,57.32037592291667,66.0,82.0
239,57.9520963625,58.45324844375,57.0,71.0
240,57.9520963625,58.48589053333333,61.0,72.0
241,58.4129258625,58.73358638958334,52.0,79.0
242,58.6433406125,58.958240770833335,57.0,82.0
243,58.6433406125,59.000483475,61.0,80.0
244,58.6433406125,59.29426228125,64.0,82.0
245,59.1041701125,59.40754953333333,57.0,81.0
246,59.3345848625,59.776213133333336,61.0,72.0
247,59.5649996125,59.833816820833334,57.0,71.0
248,58.8737553625,59.83573694375,52.0,77.0
249,57.9520963625,59.8645387875,45.0,83.0
250,59.7954143625,60.367610991666666,59.0,79.0
251,59.7954143625,60.43289517083333,55.0,79.0
252,60.2562438625,60.71899348541667,50.0,73.0
253,60.7170733625,60.9129259,55.0,83.0
254,60.7170733625,60.98781069375,62.0,81.0
255,59.7954143625,61.19518396875,43.0,76.0
256,60.9474881125,61.30271085208334,50.0,76.0
257,61.1779028625,61.42367859583334,55.0,82.0
258,61.4083176125,61.6156908875,62.0,82.0
259,61.6387323625,62.099561862499996,57.0,76.0
260,61.6387323625,62.18788751666666,61.0,86.0
261,62.3299766125,62.43366325,57.0,69.0
262,62.099561862499996,62.57959259166667,52.0,77.0
263,62.5603913625,62.71208107291667,61.0,79.0
264,62.5603913625,62.8138475875,57.0,79.0
265,62.5603913625,63.38604421666667,64.0,81.0
266,63.0212208625,63.39756495416667,57.0,77.0
267,62.7908061125,63.42828692083333,52.0,82.0
268,61.6387323625,63.437887535416664,45.0,82.0
269,63.4820503625,63.7815895375,64.0,82.0
270,63.4820503625,63.79887064375,61.0,77.0
271,63.4820503625,63.808471258333334,57.0,76.0
272,63.9428798625,64.04272625416667,61.0,68.0
273,63.9428798625,64.0580872375,57.0,67.0
274,64.1732946125,64.25201965208333,64.0,74.0
275,63.4820503625,64.25393977499999,45.0,83.0
276,64.1732946125,64.25585989791666,61.0,67.0
277,64.1732946125,64.26162026666667,57.0,68.0
278,64.4037093625,64.51123624583333,57.0,77.0
279,64.4037093625,64.51123624583333,61.0,76.0
280,64.4037093625,64.5189167375,64.0,81.0
281,64.6341241125,64.75509185625,57.0,84.0
282,64.6341241125,64.76277234791667,61.0,90.0
283,64.6341241125,64.76853271666667,64.0,90.0
284,64.8645388625,64.9682255,57.0,86.0
285,64.8645388625,64.9797462375,61.0,88.0
286,64.8645388625,64.99702734375,64.0,92.0
287,65.0949536125,65.27736528958333,61.0,85.0
288,65.0949536125,65.29464639583333,57.0,83.0
289,65.0949536125,65.29464639583333,64.0,90.0
290,65.3253683625,65.56346360416667,57.0,77.0
291,65.3253683625,65.8783637625,66.0,75.0
292,65.3253683625,65.90716560625,62.0,78.0
293,65.7861978625,65.97436990833333,57.0,72.0
294,65.3253683625,66.32191215625,50.0,92.0
295,66.2470273625,66.5004835875,57.0,83.0
296,66.2470273625,66.53696592291666,62.0,84.0
297,66.4774421125,66.61761108541667,50.0,83.0
298,66.2470273625,66.64257268333333,66.0,84.0
299,66.7078568625,67.01315640625,57.0,81.0
300,66.9382716125,67.03427775833333,62.0,75.0
301,67.1686863625,67.5834329125,57.0,74.0
302,67.1686863625,67.64487684583334,61.0,74.0
303,67.8599306125,67.96937761875,57.0,76.0
304,67.6295158625,68.16331003333333,52.0,78.0
305,67.1686863625,68.38604429166666,45.0,82.0
306,68.0903453625,68.39180466041667,57.0,81.0
307,68.0903453625,68.43980773333334,61.0,83.0
308,68.0903453625,68.44556810208333,64.0,85.0
309,68.3207601125,68.47244982291667,52.0,81.0
310,68.5511748625,68.69710420416666,45.0,82.0
311,69.0120043625,69.67252664583333,64.0,81.0
312,69.0120043625,69.70708885833334,59.0,74.0
313,69.4728338625,70.00854815625,47.0,66.0
314,69.9336633625,70.21208118541666,59.0,85.0
315,69.9336633625,70.29464647083333,64.0,90.0
316,69.0120043625,70.30424708541666,40.0,86.0
317,70.1640781125,70.31576782291667,47.0,83.0
318,70.3944928625,70.74971560208334,59.0,83.0
319,70.6249076125,70.76507658541667,64.0,73.0
320,70.8553223625,71.304631125,59.0,81.0
321,70.8553223625,71.35839456666668,62.0,78.0
322,71.5465666125,71.66561423333333,59.0,84.0
323,71.31615186249999,71.8461057875,54.0,72.0
324,71.7769813625,72.04963881666666,59.0,92.0
325,71.7769813625,72.05539918541666,62.0,86.0
326,70.8553223625,72.16484619166667,47.0,85.0
327,72.0073961125,72.18404742083334,54.0,86.0
328,71.7769813625,72.21284926458333,66.0,75.0
329,72.2378108625,72.42022253958334,59.0,86.0
330,72.6986403625,73.34956203125,57.0,81.0
331,72.6986403625,73.3553224,62.0,76.0
332,73.1594698625,73.78350981041666,45.0,63.0
333,73.62029936249999,73.80847140833333,57.0,84.0
334,72.6986403625,73.85839460416666,38.0,88.0
335,73.62029936249999,74.069608125,62.0,87.0
336,74.0811288625,74.22321795833334,57.0,83.0
337,74.5419583625,74.78005360416667,57.0,81.0
338,74.5419583625,74.899101225,61.0,83.0
339,75.0027878625,75.16983855625,57.0,78.0
340,74.77237311249999,75.48473871458333,52.0,68.0
341,75.4636173625,75.69787235833333,57.0,81.0
342,74.5419583625,75.71323334166667,45.0,83.0
343,75.4636173625,75.7861980125,64.0,85.0
344,75.4636173625,75.78811813541667,61.0,86.0
345,75.6940321125,75.82652059375,52.0,82.0
346,75.92444686249999,76.05309509791667,45.0,82.0
347,76.38527636250001,76.62721185,59.0,78.0
348,76.38527636250001,76.78658205208333,64.0,81.0
349,77.0765206125,77.16676638958333,52.0,82.0
350,76.8461058625,77.42598298333334,47.0,62.0
351,77.3069353625,77.42598298333334,52.0,86.0
352,77.3069353625,77.45862507291667,56.0,86.0
353,77.3069353625,77.47590617916667,59.0,85.0
354,76.38527636250001,77.61991539791667,40.0,88.0
355,77.53735011250001,77.62567576666666,52.0,82.0
356,77.7677648625,78.28235780416667,64.0,82.0
357,77.7677648625,78.30155903333333,52.0,82.0
358,77.7677648625,78.31115964791667,59.0,81.0
359,77.7677648625,78.32460050833333,56.0,85.0
360,78.2285943625,78.50893230833333,47.0,75.0
361,78.4590091125,78.73166656666666,52.0,85.0
362,78.4590091125,78.75854828749999,59.0,85.0
363,78.9198386125,79.0350459875,52.0,78.0
364,78.6894238625,79.20977717291666,47.0,77.0
365,79.1502533625,79.43251143124999,52.0,83.0
366,79.1502533625,79.4728340125,56.0,87.0
367,79.1502533625,79.51699683958333,59.0,86.0
368,79.1502533625,79.52275720833333,64.0,88.0
369,77.7677648625,79.53235782291667,40.0,90.0
370,79.3806681125,79.54003831458334,47.0,81.0
371,79.6110828625,79.65908593541667,59.0,61.0
372,79.6110828625,79.71284937708333,52.0,90.0
373,79.6110828625,79.73397072916667,64.0,69.0
374,80.0719123625,80.62106751666667,59.0,82.0
375,80.0719123625,80.6709907125,62.0,77.0
376,80.5327418625,81.04925492708333,54.0,76.0
377,80.9935713625,81.21438549791667,59.0,83.0
378,80.9935713625,81.25086783333333,62.0,84.0
379,80.0719123625,81.28543004583334,47.0,83.0
380,80.9935713625,81.29887090625,66.0,84.0
381,81.2239861125,81.36991545416666,54.0,83.0
382,81.4544008625,81.76546077500001,59.0,83.0
383,81.6848156125,81.76930102083332,62.0,71.0
384,81.9152303625,82.36069887916666,57.0,78.0
385,81.9152303625,82.41830256666667,61.0,75.0
386,82.6064746125,82.69096002083333,57.0,75.0
387,82.3760598625,82.87529182083333,52.0,70.0
388,82.8368893625,83.08650534166667,57.0,84.0
389,82.8368893625,83.12682792291666,61.0,90.0
390,82.8368893625,83.1364285375,64.0,88.0
391,81.9152303625,83.17099075,45.0,82.0
392,83.0673041125,83.20747308541667,52.0,83.0
393,83.2977188625,83.44364820416666,57.0,85.0
394,83.7585483625,84.06192778333333,64.0,82.0
395,83.7585483625,84.18673577291666,59.0,79.0
396,84.4497926125,84.53811826666666,59.0,76.0
397,84.2193778625,84.71860982083334,47.0,65.0
398,84.6802073625,84.94710444791667,59.0,87.0
399,83.7585483625,85.01814899583333,40.0,85.0
400,84.6802073625,85.02006911875,64.0,95.0
401,84.9106221125,85.05079108541666,47.0,82.0
402,85.1410368625,85.28120583541667,59.0,86.0
403,85.3714516125,85.52890169166666,64.0,82.0
404,85.6018663625,85.80539939166667,60.0,72.0
405,85.6018663625,85.81307988333333,59.0,73.0
406,85.6018663625,86.15874330833334,62.0,77.0
407,86.0626958625,86.34720445416667,54.0,81.0
408,86.29335841250001,86.54528096458334,59.0,82.0
409,86.29335841250001,86.64720382916667,62.0,82.0
410,86.29335841250001,86.72797289166667,66.0,82.0
411,86.52412716250001,86.80681888125001,54.0,74.0
412,85.6018663625,86.83181882916668,47.0,83.0
413,86.7548959125,86.92220325625,59.0,83.0
414,86.9856646625,87.18566424583334,62.0,78.0
415,87.4472021625,87.83758596458334,57.0,79.0
416,87.4472021625,88.01066252708334,62.0,82.0
417,88.1395084125,88.21258518333335,57.0,75.0
418,87.90873966250001,88.37989252708334,45.0,64.0
419,88.3702771625,88.61835356875001,57.0,82.0
420,87.4472021625,88.64527658958333,38.0,87.0
421,88.3702771625,88.66450731875001,62.0,85.0
422,88.60104591250001,88.70681492291668,45.0,85.0
423,88.3702771625,88.81258393333334,66.0,84.0
424,89.0625834125,89.15489091250001,62.0,70.0
425,88.83181466250001,89.17604471458334,57.0,82.0
426,89.2933521625,89.74912044375,57.0,77.0
427,89.2933521625,89.81065877708333,61.0,81.0
428,89.7548896625,90.02988908958334,52.0,70.0
429,89.9856584125,90.25873476666668,57.0,85.0
430,89.9856584125,90.3318115375,61.0,84.0
431,89.9856584125,90.33565768333334,64.0,85.0
432,89.2933521625,90.44142669375,45.0,83.0
433,90.21642716250001,90.51065731875,52.0,81.0
434,90.4471959125,90.76065679791667,57.0,85.0
435,90.6779646625,90.95104101666668,61.0,92.0
436,91.13950216250001,91.64911648541667,59.0,78.0
437,91.13950216250001,91.84526992291667,64.0,82.0
438,91.6010396625,91.99142346458333,47.0,67.0
439,91.13950216250001,92.02411570416668,40.0,83.0
440,92.0625771625,92.41257643333334,59.0,83.0
441,92.0625771625,92.63372981875,64.0,82.0
442,92.9856521625,93.50680492291667,64.0,73.0
443,92.9856521625,93.61065086041667,59.0,69.0
444,93.9087271625,94.127957475,59.0,74.0
445,93.9087271625,94.15680356875001,64.0,76.0
446,94.13949591250001,94.46064908958334,56.0,66.0
447,92.52411466250001,94.54911044375001,52.0,71.0
448,94.3702646625,94.63949487083335,59.0,74.0
449,94.83180216250001,95.41257018333334,64.0,73.0
450,94.83180216250001,95.43757013125,59.0,69.0
451,95.75487716250001,95.9164152875,64.0,76.0
452,95.75487716250001,95.9394921625,59.0,73.0
453,94.83180216250001,96.87218252708334,52.0,73.0
454,96.6779521625,97.18756648541667,59.0,82.0
455,96.6779521625,97.22795101666668,64.0,83.0
456,97.13948966250001,97.68564237083334,52.0,68.0
457,97.6010271625,98.40582121458334,59.0,77.0
458,97.6010271625,98.41158158333333,64.0,82.0
459,98.5229487125,99.07210386666667,62.0,77.0
460,98.5229487125,99.08362460416667,59.0,75.0
461,98.9837782125,99.52141262916666,54.0,66.0
462,99.4446077125,99.709584675,59.0,82.0
463,99.4446077125,99.76910848541667,62.0,82.0
464,99.4446077125,99.81135118958333,66.0,77.0
465,99.6750224625,99.89967684375,54.0,66.0
466,98.5229487125,99.96880126875,47.0,80.0
467,99.9054372125,100.0667275375,59.0,81.0
468,100.3662667125,100.88662002291667,61.0,69.0
469,100.3662667125,100.91734198958333,57.0,65.0
470,100.8270962125,101.42809468541667,49.0,54.0
471,100.3662667125,101.43001480833334,42.0,77.0
472,101.2879257125,101.48569837291667,57.0,75.0
473,101.2879257125,101.70651250833333,61.0,79.0
474,101.2879257125,101.90812541458334,66.0,73.0
475,102.2095847125,102.704976425,62.0,77.0
476,102.2095847125,102.72993802291667,59.0,73.0
477,102.6704142125,103.16772604791667,54.0,66.0
478,103.13124371250001,103.35589809375,59.0,81.0
479,103.13124371250001,103.42310239583334,62.0,82.0
480,102.2095847125,103.51526829583334,47.0,81.0
481,103.13124371250001,103.51526829583334,66.0,82.0
482,103.3616584625,103.5459902625,54.0,74.0
483,103.5920732125,103.74952329166666,59.0,82.0
484,104.0529027125,104.55597491666667,57.0,74.0
485,104.0529027125,104.57517614583334,61.0,70.0
486,104.5137322125,105.04944650625,49.0,64.0
487,104.9745617125,105.21265695416668,57.0,81.0
488,104.0529027125,105.24337892083334,42.0,77.0
489,104.9745617125,105.3086631,61.0,86.0
490,105.2049764625,105.377787525,49.0,73.0
491,104.9745617125,105.40274912291667,66.0,77.0
492,105.43539121250001,105.70612854375,57.0,82.0
493,105.6658059625,105.8501377625,61.0,81.0
494,105.8962207125,106.29368615625,62.0,81.0
495,105.8962207125,106.34744959791666,59.0,73.0
496,106.3570502125,106.898524875,54.0,54.0
497,105.8962207125,107.05597495416667,47.0,81.0
498,106.8178797125,107.07901642916667,62.0,82.0
499,106.8178797125,107.082856675,59.0,82.0
500,106.8178797125,107.10781827291667,66.0,82.0
501,107.7395387125,108.17156636875,57.0,72.0
502,107.7395387125,108.23109017916667,61.0,72.0
503,108.4307829625,108.51526837083334,57.0,60.0
504,107.7395387125,108.88969233958333,42.0,78.0
505,108.2003682125,108.92809479791667,49.0,68.0
506,108.6611977125,109.02026069791667,66.0,80.0
507,108.6611977125,109.03946192708334,57.0,83.0
508,108.6611977125,109.04714241875,61.0,88.0
509,109.1220272125,109.248755325,42.0,83.0
510,109.5828567125,110.15505334166667,59.0,79.0
511,109.5828567125,110.22033752083334,55.0,79.0
512,110.0436862125,110.50643583541667,50.0,73.0
513,110.5045157125,110.70036825,55.0,83.0
514,110.5045157125,110.77525304375,62.0,81.0
515,109.5828567125,110.98262631875001,43.0,76.0
516,110.7349304625,111.09015320208334,50.0,76.0
517,110.9653452125,111.21112094583333,55.0,82.0
518,111.1957599625,111.4031332375,62.0,82.0
519,111.4261747125,111.8870042125,57.0,76.0
520,111.4261747125,111.97532986666667,61.0,86.0
521,112.1174189625,112.2211056,57.0,69.0
522,111.8870042125,112.36703494166667,52.0,77.0
523,112.3478337125,112.49952342291667,61.0,79.0
524,112.3478337125,112.6012899375,57.0,79.0
525,112.3478337125,113.17348656666667,64.0,81.0
526,112.80866321250001,113.18500730416667,57.0,77.0
527,112.5782484625,113.21572927083334,52.0,82.0
528,111.4261747125,113.22532988541667,45.0,82.0
529,113.2694927125,113.81864786666667,62.0,77.0
530,113.2694927125,113.83016860416667,59.0,75.0
531,113.7303222125,114.26795662916666,54.0,66.0
532,114.1911517125,114.456128675,59.0,82.0
533,114.1911517125,114.51565248541667,62.0,82.0
534,114.1911517125,114.55789518958333,66.0,77.0
535,114.42156646250001,114.64622084375,54.0,66.0
536,113.2694927125,114.71534526875,47.0,80.0
537,114.6519812125,114.8132715375,59.0,81.0
538,115.1128107125,115.63316402291667,61.0,69.0
539,115.1128107125,115.66388598958333,57.0,65.0
540,115.57364021250001,116.17463868541667,49.0,54.0
541,115.1128107125,116.17655880833334,42.0,77.0
542,116.0344697125,116.23224237291667,57.0,75.0
543,116.0344697125,116.45305650833333,61.0,79.0
544,116.0344697125,116.65466941458334,66.0,73.0
545,116.9561287125,117.451520425,62.0,77.0
546,116.9561287125,117.47648202291667,59.0,73.0
547,117.4169582125,117.91427004791667,54.0,66.0
548,117.87778771250001,118.10244209375,59.0,81.0
549,117.87778771250001,118.16964639583334,62.0,82.0
550,116.9561287125,118.26181229583334,47.0,81.0
551,117.87778771250001,118.26181229583334,66.0,82.0
552,118.1082024625,118.2925342625,54.0,74.0
553,118.3386172125,118.49606729166666,59.0,82.0
554,118.7994467125,119.30251891666667,57.0,74.0
555,118.7994467125,119.32172014583334,61.0,70.0
556,119.2602762125,119.79599050625,49.0,64.0
557,119.7211057125,119.95920095416668,57.0,81.0
558,118.7994467125,119.98992292083334,42.0,77.0
559,119.7211057125,120.0552071,61.0,86.0
560,119.9515204625,120.124331525,49.0,73.0
561,119.7211057125,120.14929312291667,66.0,77.0
562,120.18193521250001,120.45267254375,57.0,82.0
563,120.4123499625,120.5966817625,61.0,81.0
564,120.6427647125,121.04023015625,62.0,81.0
565,120.6427647125,121.09399359791666,59.0,73.0
566,121.1035942125,121.645068875,54.0,54.0
567,120.6427647125,121.80251895416667,47.0,81.0
568,121.5644237125,121.82556042916667,62.0,82.0
569,121.5644237125,121.829400675,59.0,82.0
570,121.5644237125,121.85436227291666,66.0,82.0
571,122.48608271250001,122.98723479375,57.0,71.0
572,122.48608271250001,123.01987688333334,61.0,72.0
573,122.9469122125,123.26757273958333,52.0,79.0
574,123.1773269625,123.49222712083333,57.0,82.0
575,123.1773269625,123.534469825,61.0,80.0
576,123.1773269625,123.82824863125,64.0,82.0
577,123.6381564625,123.94153588333333,57.0,81.0
578,123.8685712125,124.31019948333334,61.0,72.0
579,124.0989859625,124.36780317083333,57.0,71.0
580,123.4077417125,124.36972329375,52.0,77.0
581,122.48608271250001,124.3985251375,45.0,83.0
582,124.3294007125,124.90159734166667,59.0,79.0
583,124.3294007125,124.96688152083334,55.0,79.0
584,124.7902302125,125.25297983541667,50.0,73.0
585,125.2510597125,125.44691225,55.0,83.0
586,125.2510597125,125.52179704375,62.0,81.0
587,124.3294007125,125.72917031875,43.0,76.0
588,125.4814744625,125.83669720208334,50.0,76.0
589,125.7118892125,125.95766494583333,55.0,82.0
590,125.9423039625,126.1496772375,62.0,82.0
591,126.1727187125,126.4722578875,64.0,82.0
592,126.1727187125,126.48953899375,61.0,77.0
593,126.1727187125,126.49913960833334,57.0,76.0
594,126.6335482125,126.73339460416668,61.0,68.0
595,126.6335482125,126.7487555875,57.0,67.0
596,126.8639629625,126.94268800208334,64.0,74.0
597,126.1727187125,126.944608125,45.0,83.0
598,126.8639629625,126.94652824791666,61.0,67.0
599,126.8639629625,126.95228861666666,57.0,68.0
600,127.0943777125,127.20190459583333,57.0,77.0
601,127.0943777125,127.20190459583333,61.0,76.0
602,127.0943777125,127.2095850875,64.0,81.0
603,127.3247924625,127.44576020625,57.0,84.0
604,127.3247924625,127.45344069791668,61.0,90.0
605,127.3247924625,127.45920106666667,64.0,90.0
606,127.5552072125,127.65889385,57.0,86.0
607,127.5552072125,127.6704145875,61.0,88.0
608,127.5552072125,127.68769569375,64.0,92.0
609,127.7856219625,127.96803363958334,61.0,85.0
610,127.7856219625,127.98531474583334,57.0,83.0
611,127.7856219625,127.98531474583334,64.0,90.0
612,128.0160367125,128.25413195416667,57.0,77.0
613,128.0160367125,128.5690321125,66.0,75.0
614,128.0160367125,128.59783395625,62.0,78.0
615,128.4768662125,128.66503825833334,57.0,72.0
616,128.0160367125,129.01258050625,50.0,92.0
617,128.9376957125,129.1911519375,57.0,83.0
618,128.9376957125,129.22763427291667,62.0,84.0
619,129.1681104625,129.30827943541667,50.0,83.0
620,128.9376957125,129.33324103333334,66.0,84.0
621,129.3985252125,129.70382475625001,57.0,81.0
622,129.6289399625,129.72494610833334,62.0,75.0
623,129.8593547125,130.2741012625,57.0,74.0
624,129.8593547125,130.33554519583333,61.0,74.0
625,130.5505989625,130.66004596875,57.0,76.0
626,130.3201842125,130.85397838333333,52.0,78.0
627,129.8593547125,131.07671264166666,45.0,82.0
628,130.7810137125,131.08247301041666,57.0,81.0
629,130.7810137125,131.13047608333335,61.0,83.0
630,130.7810137125,131.13623645208332,64.0,85.0
631,131.0114284625,131.16311817291665,52.0,81.0
632,131.2418432125,131.38777255416667,45.0,82.0
633,131.7026727125,132.36319499583334,64.0,81.0
634,131.7026727125,132.39775720833333,59.0,74.0
635,132.1635022125,132.69921650625,47.0,66.0
636,132.6243317125,132.90274953541666,59.0,85.0
637,132.6243317125,132.98531482083334,64.0,90.0
638,131.7026727125,132.99491543541666,40.0,86.0
639,132.8547464625,133.00643617291666,47.0,83.0
640,133.0851612125,133.44038395208332,59.0,83.0
641,133.3155759625,133.45574493541667,64.0,73.0
642,133.5459907125,133.995299475,59.0,81.0
643,133.5459907125,134.04906291666668,62.0,78.0
644,134.2372349625,134.35628258333332,59.0,84.0
645,134.0068202125,134.5367741375,54.0,72.0
646,134.4676497125,134.74030716666667,59.0,92.0
647,134.4676497125,134.74606753541667,62.0,86.0
648,133.5459907125,134.85551454166665,47.0,85.0
649,134.69806446249999,134.87471577083335,54.0,86.0
650,134.4676497125,134.90351761458334,66.0,75.0
651,134.9284792125,135.11089088958335,59.0,86.0
652,135.3893087125,136.04023038125,57.0,81.0
653,135.3893087125,136.04599075,62.0,76.0
654,135.85013821249999,136.47417816041667,45.0,63.0
655,136.3109677125,136.49913975833334,57.0,84.0
656,135.3893087125,136.54906295416666,38.0,88.0
657,136.3109677125,136.760276475,62.0,87.0
658,136.77179721250002,136.91388630833333,57.0,83.0
659,137.2326267125,137.47072195416666,57.0,81.0
660,137.2326267125,137.589769575,61.0,83.0
661,137.6934562125,137.86050690625,57.0,78.0
662,137.4630414625,138.17540706458334,52.0,68.0
663,138.15428571249998,138.38854070833332,57.0,81.0
664,137.2326267125,138.40390169166668,45.0,83.0
665,138.15428571249998,138.4768663625,64.0,85.0
666,138.15428571249998,138.47878648541666,61.0,86.0
667,138.3847004625,138.51718894375,52.0,82.0
668,138.6151152125,138.74376344791668,45.0,82.0
669,139.07594471250002,139.3178802,59.0,78.0
670,139.07594471250002,139.47725040208334,64.0,81.0
671,139.7671889625,139.85743473958334,52.0,82.0
672,139.5367742125,140.11665133333332,47.0,62.0
673,139.9976037125,140.11665133333332,52.0,86.0
674,139.9976037125,140.14929342291668,56.0,86.0
675,139.9976037125,140.16657452916667,59.0,85.0
676,139.07594471250002,140.31058374791667,40.0,88.0
677,140.22801846250002,140.31634411666667,52.0,82.0
678,140.4584332125,140.97302615416666,64.0,82.0
679,140.4584332125,140.99222738333333,52.0,82.0
680,140.4584332125,141.00182799791668,59.0,81.0
681,140.4584332125,141.01526885833334,56.0,85.0
682,140.9192627125,141.19960065833334,47.0,75.0
683,141.1496774625,141.42233491666667,52.0,85.0
684,141.1496774625,141.4492166375,59.0,85.0
685,141.6105069625,141.7257143375,52.0,78.0
686,141.38009221250002,141.90044552291667,47.0,77.0
687,141.8409217125,142.12317978125,52.0,83.0
688,141.8409217125,142.1635023625,56.0,87.0
689,141.8409217125,142.20766518958334,59.0,86.0
690,141.8409217125,142.21342555833334,64.0,88.0
691,140.4584332125,142.22302617291666,40.0,90.0
692,142.0713364625,142.23070666458335,47.0,81.0
693,142.3017512125,142.34975428541668,59.0,61.0
694,142.3017512125,142.40351772708334,52.0,90.0
695,142.3017512125,142.42463907916667,64.0,69.0
696,142.7625807125,143.31173586666665,59.0,82.0
697,142.7625807125,143.3616590625,62.0,77.0
698,143.2234102125,143.73992327708334,54.0,76.0
699,143.68423971250002,143.90505384791666,59.0,83.0
700,143.68423971250002,143.94153618333334,62.0,84.0
701,142.7625807125,143.97609839583333,47.0,83.0
702,143.68423971250002,143.98953925625,66.0,84.0
703,143.9146544625,144.06058380416667,54.0,83.0
704,144.1450692125,144.45612912500002,59.0,83.0
705,144.3754839625,144.45996937083333,62.0,71.0
706,144.6058987125,145.05136722916666,57.0,78.0
707,144.6058987125,145.10897091666666,61.0,75.0
708,145.2971429625,145.38162837083334,57.0,75.0
709,145.0667282125,145.56596017083334,52.0,70.0
710,145.5275577125,145.77717369166666,57.0,84.0
711,145.5275577125,145.81749627291669,61.0,90.0
712,145.5275577125,145.8270968875,64.0,88.0
713,144.6058987125,145.8616591,45.0,82.0
714,145.7579724625,145.89814143541668,52.0,83.0
715,145.98838721250002,146.13431655416667,57.0,85.0
716,146.4492167125,146.75259613333333,64.0,82.0
717,146.4492167125,146.87740412291666,59.0,79.0
718,147.14046096250001,147.22878661666667,59.0,76.0
719,146.9100462125,147.40927817083332,47.0,65.0
720,147.3708757125,147.63777279791668,59.0,87.0
721,146.4492167125,147.70881734583332,40.0,85.0
722,147.3708757125,147.71073746875,64.0,95.0
723,147.6012904625,147.74145943541666,47.0,82.0
724,147.8317052125,147.97187418541665,59.0,86.0
725,148.0621199625,148.21957004166666,64.0,82.0
726,148.29253471250001,148.50374823333334,59.0,73.0
727,148.29253471250001,148.84937035833332,62.0,77.0
728,148.7533642125,149.03754240416666,54.0,81.0
729,148.9837789625,149.23531506458335,59.0,82.0
730,148.9837789625,149.33708157916666,62.0,82.0
731,148.9837789625,149.41772674166668,66.0,82.0
732,149.2141937125,149.49645178125002,54.0,74.0
733,148.29253471250001,149.52141337916666,47.0,83.0
734,149.4446084625,149.61165915625,59.0,83.0
735,149.6750232125,149.87471599583333,62.0,78.0
736,150.1358527125,150.52563766458334,57.0,79.0
737,150.1358527125,150.69844872708333,62.0,82.0
738,150.8270969625,150.90006163333334,57.0,75.0
739,150.5966822125,151.06711232708335,45.0,64.0
740,151.0575117125,151.30520756875,57.0,82.0
741,150.1358527125,151.33208928958334,38.0,87.0
742,151.0575117125,151.35129051875,62.0,85.0
743,151.2879264625,151.39353322291666,45.0,85.0
744,151.0575117125,151.49913998333335,66.0,84.0
745,151.7487559625,151.8409218625,62.0,70.0
746,151.5183412125,151.86204321458334,57.0,82.0
747,151.9791707125,152.43423984375,57.0,77.0
748,151.9791707125,152.49568377708334,61.0,81.0
749,152.4400002125,152.71457778958333,52.0,70.0
750,152.6704149625,152.94307241666667,57.0,85.0
751,152.6704149625,153.0160370875,61.0,84.0
752,152.6704149625,153.01987733333334,64.0,85.0
753,151.9791707125,153.12548409375,45.0,83.0
754,152.9008297125,153.19460851875,52.0,81.0
755,153.1312444625,153.44422449791665,57.0,85.0
756,153.3616592125,153.63431666666668,61.0,92.0
757,153.8224887125,154.13226125,59.0,81.0
758,153.8224887125,154.13612224166667,64.0,83.0
759,153.8224887125,154.2017591,40.0,86.0
760,154.28477042083335,154.3793647166667,59.0,70.0
761,154.28477042083335,154.3793647166667,64.0,76.0
762,154.74808942083334,154.92183404583335,64.0,86.0
763,154.74808942083334,154.92569503750002,59.0,83.0
764,155.21140842083335,155.603299075,59.0,74.0
765,155.21140842083335,155.6090905625,64.0,78.0
766,155.67472742083334,155.78476568333335,59.0,73.0
767,155.67472742083334,155.78476568333335,64.0,79.0
768,155.67472742083334,155.82337560000002,40.0,77.0
769,155.90638692083334,155.99325923333333,64.0,74.0
770,155.90638692083334,155.997120225,59.0,70.0
771,155.90638692083334,156.020286175,40.0,76.0
772,156.13804642083335,156.22684922916667,64.0,78.0
773,156.13804642083335,156.23650170833335,59.0,72.0
774,156.13804642083335,156.26159815416668,40.0,82.0
775,156.36970592083335,156.47974418333334,40.0,87.0
776,156.36970592083335,156.48553567083334,64.0,86.0
777,156.36970592083335,156.4893966625,59.0,82.0
778,156.60136542083333,156.70754269166667,40.0,95.0
779,156.60136542083333,156.71526467500001,64.0,90.0
780,156.60136542083333,156.72298665833335,59.0,82.0
781,156.83302492083334,156.9353412,64.0,88.0
782,156.83302492083334,156.93727169583335,59.0,82.0
783,156.83302492083334,156.94499367916669,40.0,86.0
784,157.06468442083334,157.15927871666668,40.0,90.0
785,157.06468442083334,157.17279218750002,64.0,95.0
786,157.06468442083334,157.19981912916668,59.0,84.0
787,157.52800342083333,157.9630706979167,62.0,76.0
788,157.52800342083333,157.96691684375003,59.0,78.0
789,157.52800342083333,157.97845528125,66.0,74.0
790,158.22076246875002,158.29960845833335,59.0,67.0
791,157.98999371875001,158.48037731250002,54.0,71.0
792,158.45153121875,158.68229996875002,59.0,82.0
793,158.45153121875,158.69768455208336,62.0,82.0
794,157.52800342083333,158.75345366666667,47.0,83.0
795,158.45153121875,158.75345366666667,66.0,83.0
796,158.68229996875002,158.85922267708335,54.0,76.0
797,158.91306871875003,159.04576075000003,47.0,82.0
798,159.37460621875002,159.90345127083336,57.0,77.0
799,159.37460621875002,159.93037429166668,61.0,78.0
800,160.06691246875002,160.176527625,57.0,70.0
801,159.83614371875,160.31691194791668,49.0,29.0
802,159.37460621875002,160.43614246875,42.0,85.0
803,160.29768121875003,160.64191127083336,57.0,84.0
804,160.52844996875,160.66498814583335,49.0,79.0
805,160.29768121875003,160.67652658333336,61.0,92.0
806,160.29768121875003,160.73806491666667,66.0,83.0
807,160.75921871875002,160.86498772916667,42.0,85.0
808,161.22075621875,161.6669091354167,59.0,81.0
809,161.22075621875,161.67652450000003,62.0,81.0
810,161.68229371875,162.18229267708335,54.0,75.0
811,162.14383121875002,162.34190772916668,59.0,86.0
812,162.14383121875002,162.3649846041667,66.0,87.0
813,162.14383121875002,162.37075382291667,62.0,97.0
814,161.22075621875,162.46306132291667,47.0,83.0
815,162.37459996875,162.54383038541667,54.0,81.0
816,162.60536871875001,162.92267575000002,59.0,80.0
817,162.83613746875002,162.94767569791668,62.0,75.0
818,163.06690621875,163.59575127083335,57.0,70.0
819,163.06690621875,163.64959731250002,61.0,87.0
820,163.52844371875003,163.80344314583334,49.0,80.0
821,163.06690621875,163.89382757291668,42.0,84.0
822,163.75921246875,163.99382736458335,57.0,81.0
823,163.75921246875,164.03998111458336,61.0,83.0
824,163.75921246875,164.0649810625,66.0,77.0
825,164.22074996875003,164.34574970833336,57.0,85.0
826,163.98998121875002,164.3899803854167,49.0,75.0
827,164.22074996875003,164.49959554166668,61.0,95.0
828,164.45151871875,164.57651845833334,57.0,87.0
829,164.91305621875,165.35920913541668,55.0,79.0
830,164.91305621875,165.44574741666668,59.0,80.0
831,165.37459371875002,165.88997726041669,50.0,67.0
832,165.83613121875,166.05728460416668,55.0,86.0
833,165.83613121875,166.09766913541668,62.0,82.0
834,164.91305621875,166.19959200000002,43.0,84.0
835,166.06689996875002,166.23997653125002,50.0,85.0
836,166.29766871875,166.58612965625002,55.0,82.0
837,166.52843746875,166.65920642708335,59.0,81.0
838,166.75920621875002,167.09382090625002,57.0,73.0
839,166.75920621875002,167.122667,62.0,76.0
840,167.45151246875002,167.54766611458334,57.0,80.0
841,167.22074371875001,167.73612726041668,45.0,64.0
842,167.68228121875,167.93804991666667,57.0,82.0
843,167.68228121875,167.98228059375,62.0,86.0
844,166.75920621875002,168.0476650729167,38.0,86.0
845,167.68228121875,168.0534342916667,66.0,82.0
846,167.91304996875002,168.06497272916667,45.0,83.0
847,168.14381871875003,168.45343345833334,57.0,83.0
848,168.37458746875,168.51497179166668,62.0,81.0
849,168.60535621875002,169.07458601041668,59.0,81.0
850,168.60535621875002,169.10727825,64.0,83.0
851,169.06689371875,169.38804689583336,47.0,65.0
852,169.29766246875002,169.591892625,59.0,87.0
853,169.29766246875002,169.61496950000003,64.0,88.0
854,169.52843121875003,169.8803535625,47.0,77.0
855,168.60535621875002,169.89766121875002,40.0,83.0
856,169.75919996875,169.92073809375,59.0,92.0
857,169.75919996875,169.93419960416668,64.0,97.0
858,170.22073746875,170.3899678854167,59.0,81.0
859,170.45150621875,170.8265054375,59.0,79.0
860,170.45150621875,170.88035147916668,64.0,83.0
861,170.45150621875,170.9188129375,68.0,85.0
862,170.91304371875,171.15150476041669,47.0,82.0
863,170.45150621875,171.29188908333336,40.0,90.0
864,171.14381246875,171.391888875,64.0,88.0
865,171.14381246875,171.39958116666668,59.0,84.0
866,171.60534996875,171.71881127083336,59.0,90.0
867,171.37458121875002,171.86111866666667,47.0,83.0
868,171.37458121875002,171.87458017708335,40.0,59.0
869,171.83611871875001,172.03227215625,64.0,88.0
870,171.83611871875001,172.03996444791667,59.0,85.0
871,172.29765621875,172.69957845833335,59.0,82.0
872,172.29765621875,172.70727075000002,62.0,83.0
873,172.75919371875003,173.01880856250003,54.0,55.0
874,172.98996246875,173.27265418750002,59.0,85.0
875,172.98996246875,173.31688486458336,62.0,84.0
876,173.22073121875002,173.49573064583336,54.0,73.0
877,172.29765621875,173.53226903125002,47.0,85.0
878,172.98996246875,173.5341921041667,66.0,83.0
879,173.45149996875003,173.61688423958336,59.0,85.0
880,173.68226871875,173.79188387500002,62.0,76.0
881,174.14380621875,174.41688257291668,57.0,76.0
882,174.14380621875,174.54380538541668,61.0,71.0
883,174.60534371875002,174.67265127083334,57.0,69.0
884,174.37457496875,174.8726508541667,49.0,66.0
885,174.83611246875,175.09188116666667,57.0,84.0
886,174.14380621875,175.11303496875001,42.0,87.0
887,174.83611246875,175.17072715625002,66.0,82.0
888,175.06688121875,175.37050253958336,49.0,82.0
889,175.29753786875003,175.42234585833336,57.0,83.0
890,175.29753786875003,175.57979593750002,61.0,92.0
891,175.52795261875002,175.7890893354167,57.0,82.0
892,175.75836736875004,175.87933511250003,61.0,78.0
893,175.98878211875004,176.34592498125002,62.0,81.0
894,175.98878211875004,176.37472682500004,59.0,76.0
895,176.44961161875003,176.5724994854167,54.0,81.0
896,176.91044111875004,177.1312552541667,59.0,87.0
897,176.91044111875004,177.15237660625004,62.0,90.0
898,176.91044111875004,177.17925832708337,66.0,87.0
899,177.14085586875004,177.30214619375002,54.0,73.0
900,175.98878211875004,177.31174680833337,47.0,84.0
901,177.37127061875003,177.5056792229167,59.0,82.0
902,177.60168536875003,177.65352868750003,59.0,53.0
903,177.60168536875003,177.68041040833336,62.0,68.0
904,177.83210011875002,178.07787585208337,57.0,76.0
905,177.83210011875002,178.1393197854167,61.0,81.0
906,178.29292961875004,178.36205404375002,57.0,70.0
907,178.06251486875004,178.55022608958336,49.0,70.0
908,177.83210011875002,178.60782977708337,42.0,84.0
909,178.52334436875003,178.7614396104167,66.0,84.0
910,178.52334436875003,178.77680059375004,57.0,83.0
911,178.52334436875003,178.8017621916667,61.0,97.0
912,178.75375911875003,179.03601718750002,49.0,82.0
913,178.98417386875002,179.09938124375003,57.0,82.0
914,178.98417386875002,179.27219230625002,61.0,92.0
915,179.21458861875004,179.33939660833337,57.0,80.0
916,179.67541811875003,179.92695422083335,55.0,79.0
917,179.67541811875003,180.0575225791667,59.0,77.0
918,180.13624761875002,180.27833671458336,55.0,81.0
919,179.90583286875002,180.43770691666668,50.0,71.0
920,180.36666236875004,180.88893580208335,62.0,83.0
921,180.59707711875004,180.9619004729167,50.0,81.0
922,179.67541811875003,181.02718465208338,43.0,82.0
923,180.82749186875003,181.1692737479167,55.0,82.0
924,181.05790661875002,181.20575608333337,59.0,81.0
925,181.51873611875004,181.61474226458336,36.0,81.0
926,181.51873611875004,181.88547959583337,55.0,82.0
927,181.51873611875004,181.9872461104167,60.0,81.0
928,182.20998036875002,182.72073306458336,55.0,83.0
929,182.44039511875002,182.78025687500002,60.0,95.0
930,181.97956561875003,182.83978068541668,48.0,81.0
931,182.67080986875004,182.9549880604167,64.0,97.0
932,182.90122461875004,183.20460403958336,67.0,92.0
933,183.13163936875003,183.40045657708336,60.0,84.0
934,183.82288361875004,183.9515318541667,57.0,83.0
935,183.59246886875002,184.14930451458338,52.0,76.0
936,184.05329836875003,184.31059483958336,61.0,87.0
937,184.05329836875003,184.34707717500004,57.0,85.0
938,184.05329836875003,184.35091742083335,64.0,92.0
939,184.28371311875003,184.59285290833336,52.0,83.0
940,183.36205411875002,184.70998040625003,45.0,92.0
941,184.51412786875002,184.73686212708336,57.0,84.0
942,184.51412786875002,184.73878225000004,64.0,83.0
943,184.51412786875002,184.8443890104167,69.0,79.0
944,184.97495736875004,185.15160867708337,57.0,74.0
945,185.20537211875003,185.29177765000003,61.0,64.0
946,185.20537211875003,185.30905875625004,64.0,77.0
947,185.20537211875003,185.3455410916667,45.0,82.0
948,185.43578686875003,185.52219240000002,61.0,64.0
949,185.43578686875003,185.52987289166668,57.0,67.0
950,185.43578686875003,185.53947350625003,45.0,77.0
951,185.43578686875003,185.5471539979167,64.0,77.0
952,185.66620161875002,185.7487669041667,61.0,76.0
953,185.66620161875002,185.7602876416667,57.0,78.0
954,185.66620161875002,185.7602876416667,64.0,82.0
955,185.66620161875002,185.7775687479167,45.0,81.0
956,185.89661636875002,186.0137438666667,57.0,83.0
957,185.89661636875002,186.01758411250003,45.0,85.0
958,185.89661636875002,186.01758411250003,61.0,82.0
959,185.89661636875002,186.02142435833338,64.0,85.0
960,186.12703111875004,186.25183910833337,45.0,84.0
961,186.12703111875004,186.25183910833337,61.0,86.0
962,186.12703111875004,186.2556793541667,57.0,83.0
963,186.12703111875004,186.25951960000003,64.0,87.0
964,186.35744586875003,186.48225385833337,45.0,92.0
965,186.35744586875003,186.48993435000003,61.0,82.0
966,186.35744586875003,186.49569471875003,57.0,82.0
967,186.35744586875003,186.5033752104167,64.0,87.0
968,186.58786061875003,186.7337899604167,61.0,81.0
969,186.58786061875003,186.7337899604167,61.0,83.0
970,186.58786061875003,186.73763020625003,57.0,83.0
971,186.58786061875003,186.75299118958335,45.0,88.0
972,186.58786061875003,186.75299118958335,64.0,83.0
973,186.58786061875003,186.75299118958335,64.0,87.0
974,186.81827536875002,186.99684680000004,57.0,77.0
975,186.81827536875002,187.01220778333337,45.0,83.0
976,187.04869011875002,187.2867853604167,57.0,77.0
977,187.04869011875002,187.60168551875003,66.0,75.0
978,187.04869011875002,187.63048736250002,62.0,78.0
979,187.50951961875003,187.69769166458337,57.0,72.0
980,187.04869011875002,188.04523391250004,50.0,92.0
981,187.97034911875002,188.22380534375003,57.0,83.0
982,187.97034911875002,188.2602876791667,62.0,84.0
983,188.20076386875002,188.3409328416667,50.0,83.0
984,187.97034911875002,188.36589443958337,66.0,84.0
985,188.43117861875004,188.73647816250002,57.0,81.0
986,188.66159336875003,188.75759951458338,62.0,75.0
987,188.89200811875003,189.30675466875005,57.0,74.0
988,188.89200811875003,189.36819860208337,61.0,74.0
989,189.58325236875004,189.69269937500002,57.0,76.0
990,189.35283761875002,189.88663178958336,52.0,78.0
991,188.89200811875003,190.1093660479167,45.0,82.0
992,189.81366711875003,190.1151264166667,57.0,81.0
993,189.81366711875003,190.16312948958335,61.0,83.0
994,189.81366711875003,190.16888985833336,64.0,85.0
995,190.04408186875003,190.1957715791667,52.0,81.0
996,190.27449661875002,190.4204259604167,45.0,82.0
997,190.73532611875004,191.39584840208337,64.0,81.0
998,190.73532611875004,191.43041061458337,59.0,74.0
999,191.19615561875003,191.73186991250003,47.0,66.0
1000,191.65698511875001,191.9354029416667,59.0,85.0
1001,191.65698511875001,192.01796822708337,64.0,90.0
1002,190.73532611875004,192.0275688416667,40.0,86.0
1003,191.88739986875004,192.0390895791667,47.0,83.0
1004,192.11781461875003,192.47303735833336,59.0,83.0
1005,192.34822936875003,192.4883983416667,64.0,73.0
1006,192.57864411875002,193.02795288125003,59.0,81.0
1007,192.57864411875002,193.0817163229167,62.0,78.0
1008,193.26988836875003,193.38893598958336,59.0,84.0
1009,193.03947361875004,193.56942754375004,54.0,72.0
1010,193.50030311875003,193.7729605729167,59.0,92.0
1011,193.50030311875003,193.7787209416667,62.0,86.0
1012,192.57864411875002,193.8881679479167,47.0,85.0
1013,193.73071786875002,193.90736917708335,54.0,86.0
1014,193.50030311875003,193.93617102083337,66.0,75.0
1015,193.96113261875004,194.14354429583335,59.0,86.0
1016,194.42196211875003,195.07288378750002,57.0,81.0
1017,194.42196211875003,195.07864415625002,62.0,76.0
1018,194.88279161875002,195.5068315666667,45.0,63.0
1019,195.34362111875004,195.53179316458335,57.0,84.0
1020,194.42196211875003,195.5817163604167,38.0,88.0
1021,195.34362111875004,195.79292988125002,62.0,87.0
1022,195.80445061875002,195.94653971458337,57.0,83.0
1023,196.26528011875004,196.5033753604167,57.0,81.0
1024,196.26528011875004,196.62242298125003,61.0,83.0
1025,196.72610961875003,196.89316031250002,57.0,78.0
1026,196.49569486875004,197.20806047083337,52.0,68.0
1027,197.18693911875002,197.42119411458336,57.0,81.0
1028,196.26528011875004,197.4365550979167,45.0,83.0
1029,197.18693911875002,197.50951976875004,64.0,85.0
1030,197.18693911875002,197.5114398916667,61.0,86.0
1031,197.41735386875004,197.54984235000003,52.0,82.0
1032,197.64776861875004,197.7764168541667,45.0,82.0
1033,198.10859811875002,198.35053360625002,59.0,78.0
1034,198.10859811875002,198.50990380833338,64.0,81.0
1035,198.79984236875003,198.89008814583337,52.0,82.0
1036,198.56942761875004,199.14930473958336,47.0,62.0
1037,199.03025711875003,199.14930473958336,52.0,86.0
1038,199.03025711875003,199.1819468291667,56.0,86.0
1039,199.03025711875003,199.1992279354167,59.0,85.0
1040,198.10859811875002,199.3432371541667,40.0,88.0
1041,199.26067186875002,199.3489975229167,52.0,82.0
1042,199.49108661875005,200.0056795604167,64.0,82.0
1043,199.49108661875005,200.02488078958336,52.0,82.0
1044,199.49108661875005,200.03448140416668,59.0,81.0
1045,199.49108661875005,200.04792226458335,56.0,85.0
1046,199.95191611875003,200.23225406458337,47.0,75.0
1047,200.18233086875003,200.4549883229167,52.0,85.0
1048,200.18233086875003,200.48187004375004,59.0,85.0
1049,200.64316036875005,200.75836774375003,52.0,78.0
1050,200.41274561875002,200.9330989291667,47.0,77.0
1051,200.87357511875004,201.15583318750004,52.0,83.0
1052,200.87357511875004,201.19615576875003,56.0,87.0
1053,200.87357511875004,201.24031859583337,59.0,86.0
1054,200.87357511875004,201.24607896458338,64.0,88.0
1055,199.49108661875005,201.2556795791667,40.0,90.0
1056,201.10398986875003,201.26336007083336,47.0,81.0
1057,201.33440461875003,201.38240769166669,59.0,61.0
1058,201.33440461875003,201.43617113333337,52.0,90.0
1059,201.33440461875003,201.4572924854167,64.0,69.0
1060,201.79523411875005,202.3443892729167,59.0,82.0
1061,201.79523411875005,202.39431246875003,62.0,77.0
1062,202.25606361875003,202.77257668333337,54.0,76.0
1063,202.71689311875002,202.9377072541667,59.0,83.0
1064,202.71689311875002,202.97418958958337,62.0,84.0
1065,201.79523411875005,203.00875180208337,47.0,83.0
1066,202.71689311875002,203.02219266250003,66.0,84.0
1067,202.94730786875004,203.0932372104167,54.0,83.0
1068,203.17772261875004,203.48878253125002,59.0,83.0
1069,203.40813736875003,203.49262277708337,62.0,71.0
1070,203.63855211875003,204.0840206354167,57.0,78.0
1071,203.63855211875003,204.1416243229167,61.0,75.0
1072,204.32979636875004,204.41428177708337,57.0,75.0
1073,204.09938161875004,204.59861357708337,52.0,70.0
1074,204.56021111875003,204.8098270979167,57.0,84.0
1075,204.56021111875003,204.8501496791667,61.0,90.0
1076,204.56021111875003,204.85975029375004,64.0,88.0
1077,203.63855211875003,204.89431250625003,45.0,82.0
1078,204.79062586875003,204.93079484166668,52.0,83.0
1079,205.02104061875002,205.1669699604167,57.0,85.0
1080,205.48187011875004,205.78524953958336,64.0,82.0
1081,205.48187011875004,205.9100575291667,59.0,79.0
1082,206.17311436875002,206.2614400229167,59.0,76.0
1083,205.94269961875003,206.44193157708335,47.0,65.0
1084,206.40352911875004,206.6704262041667,59.0,87.0
1085,205.48187011875004,206.74147075208336,40.0,85.0
1086,206.40352911875004,206.74339087500005,64.0,95.0
1087,206.63394386875004,206.7741128416667,47.0,82.0
1088,206.86435861875003,207.0045275916667,59.0,86.0
1089,207.09477336875003,207.2522234479167,64.0,82.0
1090,207.32518811875002,207.5287211479167,60.0,72.0
1091,207.32518811875002,207.53640163958337,59.0,73.0
1092,207.32518811875002,207.88202376458338,62.0,77.0
1093,207.78601761875004,208.0701958104167,54.0,81.0
1094,208.01643236875003,208.26796847083335,59.0,82.0
1095,208.01643236875003,208.3697349854167,62.0,82.0
1096,208.01643236875003,208.4503801479167,66.0,82.0
1097,208.24684711875003,208.52910518750002,54.0,74.0
1098,207.32518811875002,208.5540667854167,47.0,83.0
1099,208.47726186875002,208.64431256250003,59.0,83.0
1100,208.70767661875004,208.90736940208336,62.0,78.0
1101,209.16850611875003,209.55829107083338,57.0,79.0
1102,209.16850611875003,209.73110213333337,62.0,82.0
1103,209.85975036875004,209.93271503958337,57.0,75.0
1104,209.62933561875002,210.09976573333336,45.0,64.0
1105,210.09016511875004,210.33786097500004,57.0,82.0
1106,209.16850611875003,210.36474269583337,38.0,87.0
1107,210.09016511875004,210.38394392500004,62.0,85.0
1108,210.32057986875003,210.4261866291667,45.0,85.0
1109,210.09016511875004,210.53179338958336,66.0,84.0
1110,210.78140936875002,210.87357526875002,62.0,70.0
1111,210.55099461875002,210.89469662083337,57.0,82.0
1112,211.01182411875004,211.46689325000003,57.0,77.0
1113,211.01182411875004,211.52833718333335,61.0,81.0
1114,211.47265361875003,211.74723119583336,52.0,70.0
1115,211.70306836875002,211.9757258229167,57.0,85.0
1116,211.70306836875002,212.04869049375003,61.0,84.0
1117,211.70306836875002,212.05253073958335,64.0,85.0
1118,211.01182411875004,212.15813750000004,45.0,83.0
1119,211.93348311875002,212.22726192500002,52.0,81.0
1120,212.16389786875004,212.4768779041667,57.0,85.0
1121,212.39431261875004,212.66697007291668,61.0,92.0
1122,212.85514211875002,213.51758452500002,59.0,81.0
1123,212.85514211875002,213.56174735208336,64.0,82.0
1124,213.54638636875003,213.9688134104167,47.0,69.0
1125,212.85514211875002,214.02257685208338,40.0,86.0
1126,213.77680111875003,214.08018053958335,59.0,86.0
1127,214.00721586875002,214.1185829979167,64.0,81.0
1128,214.23763061875002,215.4204263354167,68.0,71.0
1129,214.23763061875002,215.4492281791667,64.0,83.0
1130,214.23763061875002,215.48187026875001,59.0,75.0
1131,215.62011911875004,215.73532649375002,59.0,68.0
1132,215.62011911875004,215.98686259583337,64.0,81.0
1133,214.23763061875002,215.99454308750003,40.0,85.0
1134,215.62011911875004,216.0022235791667,68.0,70.0
1135,216.54177811875002,217.0966936416667,59.0,69.0
1136,216.54177811875002,217.13893634583337,55.0,69.0
1137,217.00260761875003,217.65160916458336,50.0,62.0
1138,216.54177811875002,217.74377506458336,43.0,79.0
1139,217.46343711875002,217.76873666250003,55.0,82.0
1140,217.46343711875002,217.90506538958337,62.0,77.0
1141,218.38509611875003,219.3201959791667,61.0,72.0
1142,218.84592561875002,219.4930070416667,52.0,70.0
1143,218.38509611875003,219.5621314666667,45.0,81.0
1144,219.30675511875003,219.87703162500003,57.0,83.0
1145,219.76758461875002,220.2418549791667,61.0,77.0
1146,220.22841411875004,220.42810690208336,40.0,84.0
1147,220.22841411875004,220.64316066875003,59.0,76.0
1148,220.22841411875004,220.69500398750003,64.0,78.0
1149,220.68924361875003,221.25760000208336,52.0,81.0
1150,221.15007311875002,221.31520368958337,64.0,79.0
1151,221.15007311875002,221.3248043041667,68.0,73.0
1152,221.61090261875003,221.78371368125002,64.0,70.0
1153,221.61090261875003,221.92004240833336,68.0,67.0
1154,222.07173211875002,222.16773826458336,68.0,64.0
1155,222.07173211875002,222.17157851041668,64.0,67.0
1156,222.07173211875002,222.1773388791667,52.0,69.0
1157,222.07173211875002,222.2003803541667,59.0,68.0
1158,222.30214686875001,222.38279203125003,68.0,68.0
1159,222.30214686875001,222.38663227708338,64.0,68.0
1160,222.30214686875001,222.4019932604167,59.0,76.0
1161,222.30214686875001,222.41159387500002,52.0,75.0
1162,222.53256161875004,222.6612098541667,59.0,83.0
1163,222.53256161875004,222.6612098541667,64.0,76.0
1164,222.53256161875004,222.66889034583335,52.0,86.0
1165,222.53256161875004,222.67657083750004,68.0,72.0
1166,222.76297636875003,222.89354472708337,59.0,83.0
1167,222.76297636875003,222.90122521875003,52.0,87.0
1168,222.76297636875003,222.9146660791667,64.0,85.0
1169,222.76297636875003,222.92426669375004,68.0,79.0
1170,222.99339111875003,223.1047582479167,59.0,88.0
1171,222.99339111875003,223.13163996875002,52.0,95.0
1172,222.99339111875003,223.13740033750003,64.0,85.0
1173,222.99339111875003,223.14316070625003,68.0,82.0
1174,223.22380586875002,223.35053398125004,59.0,84.0
1175,223.22380586875002,223.36205471875002,52.0,86.0
1176,223.22380586875002,223.36781508750002,64.0,84.0
1177,223.22380586875002,223.37357545625002,68.0,81.0
1178,223.45422061875,223.5828688541667,59.0,83.0
1179,223.45422061875,223.60207008333336,64.0,83.0
1180,223.45422061875,223.60207008333336,68.0,82.0
1181,223.45422061875,223.60975057500002,52.0,92.0
1182,223.68463536875004,223.83824520208336,59.0,83.0
1183,223.68463536875004,223.84592569375002,52.0,81.0
1184,223.68463536875004,223.8536061854167,64.0,83.0
1185,223.68463536875004,223.85936655416668,68.0,80.0
1186,223.91505011875003,224.46036502708336,66.0,70.0
1187,223.91505011875003,224.53524982083337,62.0,76.0
1188,223.91505011875003,224.5506108041667,59.0,72.0
1189,224.37587961875002,224.96919760000003,54.0,66.0
1190,224.83670911875004,225.1208873104167,59.0,83.0
1191,224.83670911875004,225.2764172666667,62.0,88.0
1192,225.06712386875003,225.2879380041667,54.0,67.0
1193,224.83670911875004,225.34938193750003,66.0,87.0
1194,223.91505011875003,225.36090267500003,47.0,83.0
1195,225.29753861875002,225.44538808333337,59.0,83.0
1196,225.75836811875,226.25760007708337,57.0,79.0
1197,225.75836811875,226.27680130625004,61.0,74.0
1198,226.44961236875002,226.54369839166668,57.0,76.0
1199,226.21919761875003,226.74147105208337,49.0,66.0
1200,225.75836811875,226.87011928750002,42.0,83.0
1201,226.68002711875005,226.93540346666668,57.0,83.0
1202,226.68002711875005,227.01412850625002,61.0,84.0
1203,226.91044186875,227.03524985833337,49.0,82.0
1204,226.68002711875005,227.3616707541667,66.0,82.0
1205,227.14085661875004,227.46919763750003,57.0,82.0
1206,227.37127136875003,227.5287214479167,61.0,77.0
1207,227.60168611875002,228.08939733958337,57.0,81.0
1208,227.60168611875002,228.10283820000004,62.0,75.0
1209,228.06251561875,228.66159396875003,45.0,65.0
1210,227.60168611875002,228.8017629416667,38.0,84.0
1211,228.52334511875003,228.99377523333337,57.0,85.0
1212,228.98417461875005,229.0379380604167,38.0,45.0
1213,228.52334511875003,229.0379380604167,62.0,86.0
1214,228.98417461875005,229.15698568125003,45.0,82.0
1215,229.21458936875004,229.33555711250003,57.0,82.0
1216,229.44500411875003,229.66773837708337,57.0,76.0
1217,229.44500411875003,229.76758476875003,61.0,66.0
1218,229.90583361875002,229.99991964166668,57.0,82.0
1219,229.67541886875003,230.18617156458336,52.0,74.0
1220,230.13624836875005,230.42810705208336,64.0,82.0
1221,230.13624836875005,230.45690889583335,57.0,85.0
1222,229.44500411875003,230.67772303125003,45.0,83.0
1223,230.36666311875004,230.7026846291667,52.0,85.0
1224,230.59707786875003,230.73916696458338,57.0,81.0
1225,230.59707786875003,230.90621765833336,61.0,83.0
1226,230.59707786875003,230.91965851875003,64.0,85.0
1227,230.82749261875003,231.0252652791667,57.0,80.0
1228,231.28832211875005,231.80099493750004,59.0,77.0
1229,231.28832211875005,231.83171690416668,55.0,79.0
1230,231.74915161875003,232.2464634541667,50.0,69.0
1231,232.20998111875002,232.45767697500003,55.0,83.0
1232,232.20998111875002,232.5863252104167,62.0,82.0
1233,232.20998111875002,232.6324081604167,59.0,82.0
1234,231.28832211875005,232.92426684375005,43.0,81.0
1235,232.67081061875004,232.95114856458338,55.0,82.0
1236,232.44039586875004,232.96842967083336,50.0,81.0
1237,232.90122536875003,233.11435901250002,59.0,74.0
1238,233.13164011875003,233.65583367500003,57.0,77.0
1239,233.13164011875003,233.69999650208337,61.0,81.0
1240,233.13164011875003,233.78256178750001,64.0,82.0
1241,233.82288436875004,233.9572929729167,57.0,87.0
1242,233.59246961875004,234.0148966604167,52.0,78.0
1243,233.13164011875003,234.08210096250002,45.0,83.0
1244,234.05329911875003,234.3547584166667,57.0,81.0
1245,234.05329911875003,234.42196271875002,61.0,75.0
1246,234.51412861875002,234.99607947083337,59.0,82.0
1247,234.51412861875002,235.09208561666668,64.0,83.0
1248,235.66620236875002,235.7833298666667,52.0,76.0
1249,235.43578761875003,235.9907031416667,47.0,68.0
1250,235.89661711875004,236.18463555625004,52.0,82.0
1251,235.89661711875004,236.42081067500004,59.0,82.0
1252,234.51412861875002,236.64546505625003,40.0,84.0
1253,236.12703186875004,236.64546505625003,47.0,75.0
1254,236.35744661875003,236.7337907104167,52.0,77.0
1255,236.81827611875002,237.21382143958337,64.0,77.0
1256,236.81827611875002,237.29062635625002,56.0,61.0
1257,236.81827611875002,237.29446660208336,59.0,72.0
1258,237.27910561875004,237.80905954375004,47.0,58.0
1259,236.81827611875002,237.87818396875002,40.0,81.0
1260,237.73993511875003,237.93386753333337,56.0,77.0
1261,237.73993511875003,237.9377077791667,52.0,82.0
1262,237.73993511875003,237.97611023750002,59.0,81.0
1263,238.66159411875003,239.20690902708336,66.0,70.0
1264,238.66159411875003,239.28179382083334,62.0,76.0
1265,238.66159411875003,239.2971548041667,59.0,72.0
1266,239.12242361875002,239.71574160000003,54.0,66.0
1267,239.58325311875004,239.8674313104167,59.0,83.0
1268,239.58325311875004,240.0229612666667,62.0,88.0
1269,239.81366786875003,240.0344820041667,54.0,67.0
1270,239.58325311875004,240.09592593750003,66.0,87.0
1271,238.66159411875003,240.10744667500003,47.0,83.0
1272,240.04408261875002,240.19193208333337,59.0,83.0
1273,240.50491211875004,241.00414407708337,57.0,79.0
1274,240.50491211875004,241.02334530625004,61.0,74.0
1275,241.19615636875002,241.2902423916667,57.0,76.0
1276,240.96574161875003,241.48801505208337,49.0,66.0
1277,240.50491211875004,241.61666328750005,42.0,83.0
1278,241.42657111875002,241.6819474666667,57.0,83.0
1279,241.42657111875002,241.76067250625005,61.0,84.0
1280,241.65698586875004,241.78179385833334,49.0,82.0
1281,241.42657111875002,242.10821475416668,66.0,82.0
1282,241.88740061875004,242.21574163750003,57.0,82.0
1283,242.11781536875003,242.2752654479167,61.0,77.0
1284,242.34823011875002,242.83594133958337,57.0,81.0
1285,242.34823011875002,242.84938220000004,62.0,75.0
1286,242.80905961875004,243.40813796875003,45.0,65.0
1287,242.34823011875002,243.54830694166668,38.0,84.0
1288,243.26988911875003,243.74031923333337,57.0,85.0
1289,243.73071861875002,243.78448206041668,38.0,45.0
1290,243.26988911875003,243.78448206041668,62.0,86.0
1291,243.73071861875002,243.90352968125003,45.0,82.0
1292,243.96113336875004,244.08210111250003,57.0,82.0
1293,244.19154811875003,244.41428237708337,57.0,76.0
1294,244.19154811875003,244.51412876875003,61.0,66.0
1295,244.65237761875002,244.7464636416667,57.0,82.0
1296,244.42196286875003,244.93271556458336,52.0,74.0
1297,244.88279236875002,245.17465105208336,64.0,82.0
1298,244.88279236875002,245.20345289583338,57.0,85.0
1299,244.19154811875003,245.42426703125003,45.0,83.0
1300,245.11320711875004,245.4492286291667,52.0,85.0
1301,245.34362186875003,245.48571096458335,57.0,81.0
1302,245.34362186875003,245.65276165833336,61.0,83.0
1303,245.34362186875003,245.66620251875003,64.0,85.0
1304,245.57403661875003,245.7718092791667,57.0,80.0
1305,246.03486611875002,246.54753893750004,59.0,77.0
1306,246.03486611875002,246.5782609041667,55.0,79.0
1307,246.49569561875003,246.9930074541667,50.0,69.0
1308,246.95652511875005,247.20422097500003,55.0,83.0
1309,246.95652511875005,247.3328692104167,62.0,82.0
1310,246.95652511875005,247.3789521604167,59.0,82.0
1311,246.03486611875002,247.67081084375002,43.0,81.0
1312,247.41735461875004,247.69769256458335,55.0,82.0
1313,247.18693986875002,247.71497367083336,50.0,81.0
1314,247.64776936875003,247.86090301250005,59.0,74.0
1315,247.87818411875003,248.40237767500003,57.0,77.0
1316,247.87818411875003,248.44654050208337,61.0,81.0
1317,247.87818411875003,248.52910578750004,64.0,82.0
1318,248.56942836875004,248.7038369729167,57.0,87.0
1319,248.33901361875002,248.7614406604167,52.0,78.0
1320,247.87818411875003,248.82864496250005,45.0,83.0
1321,248.79984311875003,249.1013024166667,57.0,81.0
1322,248.79984311875003,249.16850671875002,61.0,75.0
1323,249.26067261875005,249.74262347083337,59.0,82.0
1324,249.26067261875005,249.8386296166667,64.0,83.0
1325,250.41274636875005,250.5298738666667,52.0,76.0
1326,250.18233161875003,250.7372471416667,47.0,68.0
1327,250.64316111875002,250.93117955625002,52.0,82.0
1328,250.64316111875002,251.167354675,59.0,82.0
1329,249.26067261875005,251.39200905625003,40.0,84.0
1330,250.87357586875004,251.39200905625003,47.0,75.0
1331,251.10399061875003,251.48033471041668,52.0,77.0
1332,251.56482011875005,251.96036543958337,64.0,77.0
1333,251.56482011875005,252.03717035625004,56.0,61.0
1334,251.56482011875005,252.04101060208336,59.0,72.0
1335,252.02564961875004,252.55560354375,47.0,58.0
1336,251.56482011875005,252.62472796875005,40.0,81.0
1337,252.48647911875003,252.68041153333337,56.0,77.0
1338,252.48647911875003,252.6842517791667,52.0,82.0
1339,252.48647911875003,252.72265423750002,59.0,81.0
1340,253.40813811875003,253.87664811041668,59.0,72.0
1341,253.40813811875003,254.05329941875004,64.0,71.0
1342,254.09938236875,254.4123624041667,59.0,76.0
1343,254.32979711875004,254.4469246166667,64.0,81.0
1344,253.86896761875005,254.45076486250002,47.0,65.0
1345,253.40813811875003,254.5506112541667,40.0,82.0
1346,254.79062661875003,254.98071878750002,40.0,82.0
1347,254.79062661875003,255.22265427500002,59.0,71.0
1348,254.79062661875003,255.24569575000004,64.0,75.0
1349,254.79062661875003,255.28601833125003,68.0,71.0
1350,256.17311511875005,256.5321781041667,64.0,75.0
1351,255.71228561875003,256.88164047500004,52.0,52.0
1352,255.94270036875002,256.91812281041666,59.0,69.0
1353,256.63394461875004,257.54216275833335,76.0,65.0
1354,256.40352986875,257.5632841104167,71.0,73.0
