,start,end,pitch,velocity
0,20.8688397,21.15937645,58.0,112.0
1,21.2008817,21.512171074999998,60.0,112.0
2,21.532923699999998,21.979796891666666,63.0,107.0
3,22.1970077,22.475092874999998,63.0,99.0
4,22.529049699999998,22.724124375,65.0,97.0
5,22.8610917,23.180682124999997,67.0,127.0
6,23.193133699999997,23.404810474999998,63.0,107.0
7,23.5251757,23.770056675,65.0,102.0
8,23.8572177,24.009403616666667,63.0,107.0
9,24.189259699999997,24.842275633333333,60.0,102.0
10,26.181511699999998,26.419475133333332,58.0,107.0
11,26.5135537,26.794405891666663,60.0,97.0
12,26.845595699999997,27.10846228333333,63.0,112.0
13,27.5096797,27.737958574999997,63.0,100.0
14,27.841721699999997,28.028495324999998,65.0,97.0
15,28.1737637,28.395125033333333,67.0,127.0
16,28.5058057,28.729934049999997,70.0,122.0
17,28.837847699999998,29.06197605,72.0,112.0
18,29.1698897,29.380182966666666,70.0,107.0
19,29.501931699999997,30.54094645833333,67.0,107.0
20,31.494183699999997,31.763967824999998,63.0,127.0
21,31.8262257,32.16518524166666,60.0,89.0
22,32.158267699999996,32.659097716666665,65.0,99.0
23,32.8223517,33.11980599166667,65.0,107.0
24,33.1543937,33.49335324166667,67.0,112.0
25,33.4864357,33.822628224999995,65.0,102.0
26,34.4825617,34.609844466666665,63.0,107.0
27,34.6485827,34.746811791666666,65.0,96.0
28,34.8146037,35.04011555833333,67.0,122.0
29,35.1466457,35.412279299999994,65.0,112.0
30,35.478687699999995,35.727719199999996,63.0,95.0
31,35.810729699999996,36.09849943333333,62.0,97.0
32,36.1427717,36.564741741666666,60.0,92.0
33,36.6408347,36.77088448333333,58.0,96.0
34,36.8068557,37.068338775,60.0,100.0
35,37.1388977,37.32705483333333,63.0,99.0
36,37.470939699999995,37.86662308333333,65.0,107.0
37,38.1350237,38.245704366666665,65.0,107.0
38,38.4670657,38.58466390833333,65.0,100.0
39,38.7991077,38.952677125,65.0,107.0
40,39.131149699999995,39.22522826666666,63.0,117.0
41,39.463191699999996,39.649965325,60.0,90.0
42,39.7952337,39.89207928333333,63.0,95.0
43,40.1272757,40.449633141666666,65.0,100.0
44,40.4593177,41.42362300833333,63.0,97.0
45,44.775863699999995,45.066400449999996,58.0,112.0
46,45.107905699999996,45.419195075,60.0,112.0
47,45.4399477,45.886820891666666,63.0,107.0
48,46.1040317,46.382116874999994,63.0,99.0
49,46.436073699999994,46.631148374999995,65.0,97.0
50,46.768115699999996,47.087706125,67.0,127.0
51,47.1001577,47.311834475,63.0,107.0
52,47.4321997,47.677080675,65.0,102.0
53,47.7642417,47.91642761666667,63.0,107.0
54,48.096283699999994,48.74929963333333,60.0,102.0
55,50.088535699999994,50.32649913333333,58.0,107.0
56,50.420577699999996,50.70142989166666,60.0,97.0
57,50.7526197,51.01548628333333,63.0,112.0
58,51.4167037,51.644982575,63.0,100.0
59,51.74874569999999,51.935519324999994,65.0,97.0
60,52.080787699999995,52.30214903333333,67.0,127.0
61,52.412829699999996,52.63695805,70.0,122.0
62,52.7448717,52.96900005,72.0,112.0
63,53.0769137,53.287206966666666,70.0,107.0
64,53.4089557,54.44797045833333,67.0,107.0
65,55.40120769999999,55.670991824999994,63.0,127.0
66,55.733249699999995,56.07220924166666,60.0,89.0
67,56.065291699999996,56.566121716666665,65.0,99.0
68,56.7293757,57.026829991666666,65.0,107.0
69,57.0614177,57.40037724166666,67.0,112.0
70,57.393459699999994,57.729652224999995,65.0,102.0
71,58.3895857,58.516868466666665,63.0,107.0
72,58.5556067,58.653835791666666,65.0,96.0
73,58.7216277,58.947139558333326,67.0,122.0
74,59.05366969999999,59.319303299999994,65.0,112.0
75,59.385711699999995,59.634743199999996,63.0,95.0
76,59.717753699999996,60.00552343333333,62.0,97.0
77,60.0497957,60.471765741666665,60.0,92.0
78,60.5478587,60.67790848333333,58.0,96.0
79,60.7138797,60.975362774999994,60.0,100.0
80,61.045921699999994,61.23407883333333,63.0,99.0
81,61.377963699999995,61.77364708333333,65.0,107.0
82,62.0420477,62.152728366666665,65.0,107.0
83,62.3740897,62.49168790833333,65.0,100.0
84,62.70613169999999,62.859701124999994,65.0,107.0
85,63.038173699999994,63.13225226666666,63.0,117.0
86,63.370215699999996,63.556989324999996,60.0,90.0
87,63.7022577,63.79910328333333,63.0,95.0
88,64.03429969999999,64.35665714166666,65.0,100.0
89,64.36634169999999,65.33064700833333,63.0,97.0
90,66.0265517,66.22024286666667,67.0,122.0
91,66.3585937,66.55505188333333,70.0,112.0
92,66.6906357,67.19008220833332,72.0,127.0
93,67.35471969999999,67.70474730833332,72.0,122.0
94,68.01880369999999,68.30657343333333,67.0,127.0
95,68.3508457,68.56113896666666,65.0,102.0
96,68.6828877,68.81708800833333,63.0,102.0
97,69.0149297,69.16573210833333,65.0,99.0
98,69.3469717,69.53651234166666,67.0,127.0
99,69.6790137,69.78139331666667,70.0,102.0
100,70.0110557,70.63640146666667,67.0,117.0
101,71.17320269999999,71.24237811666666,67.0,112.0
102,71.33922369999999,71.49417663333332,67.0,117.0
103,71.67126569999999,71.79993197499999,70.0,107.0
104,72.0033077,72.29107743333333,72.0,122.0
105,72.6673917,73.02295334166666,72.0,112.0
106,73.3314757,73.601259825,67.0,127.0
107,73.6635177,73.90286464166667,65.0,107.0
108,73.9955597,74.25842628333334,63.0,99.0
109,74.3276017,74.49500620833332,65.0,107.0
110,74.65964369999999,74.85195135833332,67.0,122.0
111,74.99168569999999,75.11343443333332,70.0,117.0
112,75.32372769999999,75.75676580833333,67.0,127.0
113,76.6518957,76.75012479166666,65.0,112.0
114,76.8179167,76.92583035,63.0,102.0
115,77.1499587,77.26478989166667,60.0,99.0
116,77.3159797,77.70474554166667,65.0,112.0
117,77.98006369999999,78.07690928333332,65.0,112.0
118,78.14608469999999,78.47535968333332,67.0,122.0
119,78.64414769999999,78.93191743333333,65.0,112.0
120,79.6402737,79.74126980833333,63.0,93.0
121,79.8062947,79.91144133333333,65.0,93.0
122,79.9723157,80.208895625,67.0,107.0
123,80.3043577,80.491131325,65.0,102.0
124,80.6363997,80.78858561666667,63.0,107.0
125,80.9684417,81.12892866666667,62.0,117.0
126,81.3004837,81.53844713333334,60.0,102.0
127,81.79854669999999,81.91891192499999,58.0,102.0
128,81.96456769999999,82.19976411666666,60.0,96.0
129,82.29660969999999,82.46954824166666,63.0,107.0
130,82.62865169999999,82.94547510833333,65.0,107.0
131,83.2927357,83.42416899166666,65.0,100.0
132,83.6247777,83.76866256666666,65.0,99.0
133,83.9568197,84.11592315833333,65.0,102.0
134,84.2888617,84.39400833333333,63.0,107.0
135,84.6209037,84.774473125,60.0,117.0
136,84.9529457,85.09959758333333,63.0,99.0
137,85.28498769999999,85.64885039166666,65.0,100.0
138,85.61702969999999,86.43606663333333,63.0,112.0
139,95.2462477,95.53678445,58.0,112.0
140,95.5782897,95.889579075,60.0,112.0
141,95.9103317,96.35720489166665,63.0,107.0
142,96.57441569999999,96.85250087499999,63.0,99.0
143,96.90645769999999,97.10153237499999,65.0,97.0
144,97.23849969999999,97.55809012499999,67.0,127.0
145,97.57054169999999,97.782218475,63.0,107.0
146,97.9025837,98.147464675,65.0,102.0
147,98.2346257,98.38681161666666,63.0,107.0
148,98.5666677,99.21968363333333,60.0,102.0
149,100.55891969999999,100.79688313333332,58.0,107.0
150,100.89096169999999,101.17181389166666,60.0,97.0
151,101.22300369999999,101.48587028333333,63.0,112.0
152,101.8870877,102.115366575,63.0,100.0
153,102.2191297,102.405903325,65.0,97.0
154,102.5511717,102.77253303333333,67.0,127.0
155,102.8832137,103.10734205,70.0,122.0
156,103.2152557,103.43938404999999,72.0,112.0
157,103.54729769999999,103.75759096666665,70.0,107.0
158,103.87933969999999,104.91835445833333,67.0,107.0
159,105.8715917,106.141375825,63.0,127.0
160,106.2036337,106.54259324166667,60.0,89.0
161,106.5356757,107.03650571666665,65.0,99.0
162,107.19975969999999,107.49721399166665,65.0,107.0
163,107.53180169999999,107.87076124166666,67.0,112.0
164,107.86384369999999,108.20003622499999,65.0,102.0
165,108.8599697,108.98725246666666,63.0,107.0
166,109.0259907,109.12421979166666,65.0,96.0
167,109.1920117,109.41752355833333,67.0,122.0
168,109.5240537,109.7896873,65.0,112.0
169,109.8560957,110.1051272,63.0,95.0
170,110.1881377,110.47590743333333,62.0,97.0
171,110.5201797,110.94214974166665,60.0,92.0
172,111.01824269999999,111.14829248333332,58.0,96.0
173,111.18426369999999,111.44574677499999,60.0,100.0
174,111.51630569999999,111.70446283333332,63.0,99.0
175,111.84834769999999,112.24403108333333,65.0,107.0
176,112.5124317,112.62311236666666,65.0,107.0
177,112.8444737,112.96207190833333,65.0,100.0
178,113.1765157,113.330085125,65.0,107.0
179,113.5085577,113.60263626666666,63.0,117.0
180,113.8405997,114.027373325,60.0,90.0
181,114.1726417,114.26948728333332,63.0,95.0
182,114.50468369999999,114.82704114166665,65.0,100.0
183,114.83672569999999,115.80103100833333,63.0,97.0
184,119.15327169999999,119.44380844999999,58.0,112.0
185,119.48531369999999,119.796603075,60.0,112.0
186,119.8173557,120.26422889166666,63.0,107.0
187,120.4814397,120.759524875,63.0,99.0
188,120.8134817,121.008556375,65.0,97.0
189,121.1455237,121.465114125,67.0,127.0
190,121.4775657,121.68924247499999,63.0,107.0
191,121.80960769999999,122.05448867499999,65.0,102.0
192,122.14164969999999,122.29383561666666,63.0,107.0
193,122.47369169999999,123.12670763333333,60.0,102.0
194,124.4659437,124.70390713333333,58.0,107.0
195,124.7979857,125.07883789166667,60.0,97.0
196,125.13002769999999,125.39289428333332,63.0,112.0
197,125.79411169999999,126.02239057499999,63.0,100.0
198,126.12615369999999,126.31292732499999,65.0,97.0
199,126.45819569999999,126.67955703333332,67.0,127.0
200,126.79023769999999,127.01436604999999,70.0,122.0
201,127.12227969999999,127.34640805,72.0,112.0
202,127.4543217,127.66461496666666,70.0,107.0
203,127.7863637,128.82537845833332,67.0,107.0
204,129.7786157,130.048399825,63.0,127.0
205,130.1106577,130.44961724166666,60.0,89.0
206,130.4426997,130.94352971666666,65.0,99.0
207,131.1067837,131.40423799166666,65.0,107.0
208,131.4388257,131.77778524166666,67.0,112.0
209,131.7708677,132.107060225,65.0,102.0
210,132.7669937,132.89427646666667,63.0,107.0
211,132.9330147,133.03124379166667,65.0,96.0
212,133.0990357,133.32454755833334,67.0,122.0
213,133.4310777,133.6967113,65.0,112.0
214,133.7631197,134.0121512,63.0,95.0
215,134.0951617,134.3829314333333,62.0,97.0
216,134.42720369999998,134.84917374166665,60.0,92.0
217,134.92526669999998,135.0553164833333,58.0,96.0
218,135.09128769999998,135.35277077499998,60.0,100.0
219,135.42332969999998,135.61148683333332,63.0,99.0
220,135.75537169999998,136.15105508333332,65.0,107.0
221,136.4194557,136.53013636666665,65.0,107.0
222,136.7514977,136.86909590833332,65.0,100.0
223,137.0835397,137.237109125,65.0,107.0
224,137.4155817,137.50966026666666,63.0,117.0
225,137.7476237,137.934397325,60.0,90.0
226,138.0796657,138.17651128333333,63.0,95.0
227,138.4117077,138.73406514166666,65.0,100.0
228,138.7437497,139.70805500833333,63.0,97.0
229,140.4039597,140.59765086666667,67.0,122.0
230,140.7360017,140.93245988333334,70.0,112.0
231,141.0680437,141.5674902083333,72.0,127.0
232,141.73212769999998,142.0821553083333,72.0,122.0
233,142.39621169999998,142.68398143333332,67.0,127.0
234,142.72825369999998,142.93854696666665,65.0,102.0
235,143.06029569999998,143.19449600833332,63.0,102.0
236,143.39233769999998,143.54314010833332,65.0,99.0
237,143.7243797,143.91392034166665,67.0,127.0
238,144.0564217,144.15880131666665,70.0,102.0
239,144.3884637,145.01380946666666,67.0,117.0
240,145.5506107,145.61978611666666,67.0,112.0
241,145.7166317,145.87158463333333,67.0,117.0
242,146.0486737,146.177339975,70.0,107.0
243,146.3807157,146.66848543333333,72.0,122.0
244,147.0447997,147.40036134166667,72.0,112.0
245,147.7088837,147.978667825,67.0,127.0
246,148.0409257,148.28027264166667,65.0,107.0
247,148.3729677,148.63583428333334,63.0,99.0
248,148.70500969999998,148.8724142083333,65.0,107.0
249,149.03705169999998,149.2293593583333,67.0,122.0
250,149.36909369999998,149.4908424333333,70.0,117.0
251,149.70113569999998,150.13417380833332,67.0,127.0
252,151.02930369999999,151.12753279166665,65.0,112.0
253,151.1953247,151.30323835,63.0,102.0
254,151.5273667,151.64219789166665,60.0,99.0
255,151.6933877,152.08215354166666,65.0,112.0
256,152.3574717,152.45431728333332,65.0,112.0
257,152.5234927,152.85276768333333,67.0,122.0
258,153.0215557,153.30932543333333,65.0,112.0
259,154.0176817,154.11867780833333,63.0,93.0
260,154.1837027,154.28884933333333,65.0,93.0
261,154.3497237,154.586303625,67.0,107.0
262,154.6817657,154.868539325,65.0,102.0
263,155.0138077,155.16599361666667,63.0,107.0
264,155.3458497,155.50633666666667,62.0,117.0
265,155.6778917,155.91585513333334,60.0,102.0
266,156.17595469999998,156.29631992499998,58.0,102.0
267,156.34197569999998,156.57717211666665,60.0,96.0
268,156.67401769999998,156.84695624166665,63.0,107.0
269,157.00605969999998,157.32288310833331,65.0,107.0
270,157.67014369999998,157.80157699166665,65.0,100.0
271,158.00218569999998,158.14607056666665,65.0,99.0
272,158.33422769999999,158.49333115833332,65.0,102.0
273,158.6662697,158.77141633333332,63.0,107.0
274,158.9983117,159.151881125,60.0,117.0
275,159.3303537,159.47700558333332,63.0,99.0
276,159.6623957,160.02625839166666,65.0,100.0
277,159.9944377,160.81347463333333,63.0,112.0
278,185.56167169999998,185.75536286666664,67.0,122.0
279,185.89371369999998,186.0901718833333,70.0,112.0
280,186.22575569999998,186.72520220833331,72.0,127.0
281,186.88983969999998,187.23986730833332,72.0,122.0
282,187.55392369999998,187.84169343333332,67.0,127.0
283,187.88596569999999,188.09625896666665,65.0,102.0
284,188.2180077,188.35220800833332,63.0,102.0
285,188.5500497,188.70085210833332,65.0,99.0
286,188.8820917,189.07163234166666,67.0,127.0
287,189.2141337,189.31651331666666,70.0,102.0
288,189.5461757,190.17152146666666,67.0,117.0
289,190.7083227,190.77749811666666,67.0,112.0
290,190.8743437,191.02929663333333,67.0,117.0
291,191.2063857,191.335051975,70.0,107.0
292,191.5384277,191.82619743333333,72.0,122.0
293,192.2025117,192.55807334166664,72.0,112.0
294,192.86659569999998,193.13637982499998,67.0,127.0
295,193.19863769999998,193.43798464166665,65.0,107.0
296,193.53067969999998,193.7935462833333,63.0,99.0
297,193.86272169999998,194.03012620833331,65.0,107.0
298,194.19476369999998,194.38707135833332,67.0,122.0
299,194.52680569999998,194.64855443333332,70.0,117.0
300,194.85884769999998,195.29188580833332,67.0,127.0
301,196.1870157,196.28524479166666,65.0,112.0
302,196.3530367,196.46095035,63.0,102.0
303,196.6850787,196.79990989166666,60.0,99.0
304,196.8510997,197.23986554166666,65.0,112.0
305,197.5151837,197.61202928333333,65.0,112.0
306,197.6812047,198.01047968333333,67.0,122.0
307,198.1792677,198.46703743333333,65.0,112.0
308,199.1753937,199.27638980833333,63.0,93.0
309,199.3414147,199.44656133333334,65.0,93.0
310,199.50743569999997,199.74401562499997,67.0,107.0
311,199.83947769999997,200.02625132499998,65.0,102.0
312,200.17151969999998,200.32370561666664,63.0,107.0
313,200.50356169999998,200.66404866666664,62.0,117.0
314,200.83560369999998,201.0735671333333,60.0,102.0
315,201.33366669999998,201.45403192499998,58.0,102.0
316,201.49968769999998,201.73488411666665,60.0,96.0
317,201.83172969999998,202.00466824166665,63.0,107.0
318,202.16377169999998,202.48059510833332,65.0,107.0
319,202.8278557,202.95928899166665,65.0,100.0
320,203.1598977,203.30378256666665,65.0,99.0
321,203.4919397,203.65104315833332,65.0,102.0
322,203.8239817,203.92912833333332,63.0,107.0
323,204.1560237,204.309593125,60.0,117.0
324,204.4880657,204.63471758333333,63.0,99.0
325,204.8201077,205.18397039166666,65.0,100.0
326,205.1521497,205.97118663333333,63.0,112.0
