,start,end,pitch,velocity
0,0.8271484375,1.1513671875,63.0,78.0
1,0.8271484375,1.1611328125,58.0,77.0
2,1.2958984375,1.40625,58.0,80.0
3,0.8271484375,1.7529296875,51.0,80.0
4,1.5302734375,1.8193359375,58.0,79.0
5,1.2958984375,1.8779296875,67.0,80.0
6,1.9990234375,2.2998046875,58.0,84.0
7,1.9990234375,2.3369140625,63.0,79.0
8,1.7646484375,2.5478515625,46.0,78.0
9,2.4677734375,2.5986328125,58.0,78.0
10,2.7021484375,2.970703125,63.0,74.0
11,2.7021484375,2.986328125,60.0,80.0
12,3.1708984375,3.283203125,60.0,81.0
13,2.7021484375,3.40234375,48.0,80.0
14,3.4052734375,3.6953125,60.0,83.0
15,3.1708984375,3.708984375,67.0,79.0
16,3.6396484375,4.091796875,55.0,78.0
17,3.8740234375,4.095703125,60.0,82.0
18,3.8740234375,4.158203125,63.0,79.0
19,4.3427734375,4.4345703125,60.0,80.0
20,4.5771484375,4.888671875,60.0,80.0
21,4.5771484375,4.9052734375,56.0,77.0
22,5.0458984375,5.1484375,56.0,78.0
23,4.5771484375,5.2333984375,44.0,78.0
24,5.0458984375,5.3310546875,63.0,78.0
25,5.2802734375,5.388671875,56.0,83.0
26,5.5146484375,5.7734375,58.0,77.0
27,5.5146484375,5.8154296875,62.0,72.0
28,5.9833984375,6.28515625,58.0,79.0
29,5.7490234375,6.2958984375,53.0,70.0
30,5.5146484375,6.32421875,46.0,78.0
31,6.2177734375,6.3291015625,62.0,76.0
32,6.4521484375,6.576171875,63.0,76.0
33,6.4521484375,6.587890625,58.0,72.0
34,6.4521484375,6.5927734375,51.0,79.0
35,6.4521484375,6.59375,67.0,72.0
36,6.9208984375,7.0224609375,63.0,78.0
37,6.9208984375,7.0263671875,58.0,78.0
38,6.9208984375,7.033203125,51.0,78.0
39,6.9208984375,7.0546875,67.0,70.0
40,7.2724609375,7.337890625,63.0,71.0
41,7.2724609375,7.33984375,67.0,63.0
42,7.2724609375,7.34375,51.0,74.0
43,7.2724609375,7.3466796875,58.0,69.0
44,7.3896484375,8.125,58.0,73.0
45,7.3896484375,8.1376953125,63.0,78.0
46,7.3896484375,8.1552734375,67.0,74.0
47,7.3896484375,8.18359375,51.0,80.0
48,8.3271484375,8.611328125,63.0,73.0
49,8.3271484375,8.634765625,58.0,68.0
50,8.7958984375,8.90234375,58.0,79.0
51,8.3271484375,9.1376953125,51.0,79.0
52,9.0302734375,9.3037109375,58.0,76.0
53,8.7958984375,9.357421875,67.0,81.0
54,9.4990234375,9.599609375,58.0,71.0
55,9.7333984375,9.8330078125,58.0,79.0
56,9.7333984375,10.0361328125,63.0,80.0
57,9.9677734375,10.3193359375,58.0,71.0
58,9.7333984375,10.5,67.0,78.0
59,10.4365234375,10.6025390625,58.0,66.0
60,10.6708984375,10.7958984375,63.0,73.0
61,10.9052734375,11.2021484375,58.0,76.0
62,10.9052734375,11.2529296875,63.0,71.0
63,11.3740234375,11.48828125,58.0,72.0
64,11.6083984375,11.6806640625,58.0,76.0
65,11.6083984375,11.8095703125,63.0,79.0
66,10.2021484375,11.8173828125,51.0,80.0
67,11.6083984375,11.8857421875,67.0,78.0
68,11.8427734375,11.9609375,58.0,69.0
69,12.0771484375,12.2783203125,58.0,68.0
70,12.0771484375,12.291015625,62.0,63.0
71,12.5458984375,12.6484375,58.0,79.0
72,12.5458984375,12.669921875,65.0,80.0
73,12.7802734375,12.9384765625,58.0,66.0
74,12.7802734375,12.9501953125,62.0,65.0
75,13.2490234375,13.41015625,58.0,78.0
76,13.2490234375,13.44140625,65.0,78.0
77,12.0771484375,13.8857421875,46.0,71.0
78,13.9521484375,14.2119140625,58.0,76.0
79,13.9521484375,14.2607421875,62.0,71.0
80,14.4208984375,14.4560546875,62.0,79.0
81,14.4208984375,14.5283203125,58.0,77.0
82,14.4208984375,14.5595703125,65.0,79.0
83,14.6552734375,14.7783203125,58.0,67.0
84,14.6552734375,14.794921875,62.0,70.0
85,15.1240234375,15.2158203125,58.0,69.0
86,15.3583984375,15.435546875,58.0,78.0
87,15.3583984375,15.505859375,62.0,85.0
88,15.3583984375,15.53515625,65.0,83.0
89,15.5927734375,15.7001953125,58.0,70.0
90,13.9521484375,15.7177734375,46.0,79.0
91,15.8271484375,16.0029296875,58.0,67.0
92,15.8271484375,16.0322265625,63.0,73.0
93,16.2958984375,16.3828125,58.0,75.0
94,16.2958984375,16.3984375,63.0,80.0
95,16.2958984375,16.4619140625,67.0,79.0
96,16.5302734375,16.6025390625,63.0,67.0
97,16.5302734375,16.75390625,58.0,72.0
98,16.9990234375,17.1044921875,58.0,76.0
99,17.2333984375,17.3408203125,58.0,79.0
100,17.2333984375,17.45703125,63.0,85.0
101,17.4677734375,17.544921875,58.0,71.0
102,15.8271484375,17.5771484375,51.0,78.0
103,17.2333984375,17.5849609375,67.0,78.0
104,17.7021484375,17.92578125,64.0,73.0
105,17.7021484375,17.966796875,60.0,70.0
106,18.1708984375,18.2587890625,60.0,71.0
107,18.1708984375,18.2802734375,64.0,70.0
108,18.1708984375,18.3115234375,67.0,69.0
109,18.4052734375,18.4873046875,67.0,52.0
110,17.7021484375,18.4912109375,48.0,79.0
111,18.4052734375,18.5341796875,64.0,60.0
112,18.4052734375,18.685546875,60.0,78.0
113,18.8740234375,18.9892578125,60.0,74.0
114,19.1083984375,19.15625,60.0,71.0
115,19.1083984375,19.3173828125,67.0,80.0
116,19.1083984375,19.345703125,72.0,78.0
117,19.1083984375,19.3662109375,64.0,84.0
118,19.3427734375,19.4658203125,60.0,75.0
119,19.5771484375,19.8701171875,60.0,76.0
120,19.5771484375,19.8720703125,65.0,76.0
121,20.0458984375,20.1376953125,60.0,78.0
122,20.0458984375,20.33984375,68.0,80.0
123,20.0458984375,20.341796875,65.0,84.0
124,20.2802734375,20.501953125,60.0,73.0
125,20.7490234375,20.8505859375,60.0,82.0
126,19.5771484375,20.916015625,41.0,80.0
127,20.9833984375,21.064453125,60.0,79.0
128,20.9833984375,21.2099609375,65.0,81.0
129,21.2177734375,21.3095703125,60.0,78.0
130,21.4521484375,21.638671875,58.0,72.0
131,21.4521484375,21.7021484375,62.0,70.0
132,21.9208984375,22.0068359375,58.0,74.0
133,22.1552734375,22.2705078125,65.0,82.0
134,22.1552734375,22.283203125,58.0,81.0
135,22.6240234375,22.7373046875,58.0,78.0
136,22.6240234375,22.8642578125,62.0,81.0
137,22.8583984375,23.0234375,58.0,73.0
138,21.6865234375,23.15625,53.0,65.0
139,21.4521484375,23.2197265625,46.0,79.0
140,23.3271484375,23.51171875,58.0,78.0
141,23.3271484375,23.5947265625,63.0,78.0
142,23.7958984375,23.9189453125,58.0,79.0
143,23.7958984375,23.982421875,67.0,82.0
144,24.0302734375,24.2421875,58.0,69.0
145,24.0302734375,24.3251953125,63.0,79.0
146,24.4990234375,24.6005859375,58.0,78.0
147,23.3271484375,24.76171875,51.0,78.0
148,24.7333984375,24.8359375,58.0,79.0
149,24.7333984375,25.080078125,67.0,79.0
150,24.9677734375,25.087890625,58.0,78.0
151,25.2021484375,25.2890625,58.0,70.0
152,25.2021484375,25.400390625,63.0,74.0
153,25.2021484375,25.501953125,51.0,78.0
154,25.4365234375,25.529296875,58.0,67.0
155,25.6708984375,25.720703125,58.0,69.0
156,25.6708984375,25.7783203125,63.0,79.0
157,25.6708984375,25.8779296875,67.0,74.0
158,25.9052734375,26.1005859375,58.0,78.0
159,25.9052734375,26.16796875,63.0,75.0
160,26.3740234375,26.529296875,58.0,73.0
161,26.6083984375,26.91015625,63.0,80.0
162,26.6083984375,26.921875,67.0,80.0
163,26.8427734375,26.9951171875,58.0,79.0
164,27.0771484375,27.2822265625,62.0,36.0
165,27.0771484375,27.3359375,58.0,67.0
166,27.5458984375,27.626953125,58.0,76.0
167,27.5458984375,27.67578125,65.0,79.0
168,27.7802734375,27.939453125,58.0,78.0
169,27.0771484375,27.9638671875,46.0,79.0
170,28.2490234375,28.3779296875,58.0,69.0
171,28.4833984375,28.6240234375,62.0,85.0
172,28.4833984375,28.62890625,65.0,83.0
173,28.7177734375,28.8427734375,58.0,71.0
174,28.9521484375,29.091796875,58.0,69.0
175,28.9521484375,29.14453125,62.0,65.0
176,28.9521484375,29.4658203125,46.0,79.0
177,29.4208984375,29.544921875,62.0,83.0
178,29.4208984375,29.548828125,65.0,80.0
179,29.6552734375,29.794921875,58.0,78.0
180,30.1240234375,30.2265625,58.0,76.0
181,30.3583984375,30.458984375,58.0,70.0
182,30.3583984375,30.494140625,62.0,87.0
183,30.3583984375,30.5205078125,65.0,81.0
184,30.5927734375,30.6416015625,65.0,57.0
185,30.5927734375,30.685546875,58.0,71.0
186,30.5927734375,30.759765625,46.0,79.0
187,30.8271484375,30.9697265625,58.0,76.0
188,30.8271484375,31.072265625,63.0,79.0
189,31.0615234375,31.1435546875,58.0,68.0
190,31.2958984375,31.3505859375,58.0,67.0
191,31.2958984375,31.416015625,63.0,80.0
192,31.2958984375,31.4599609375,67.0,80.0
193,30.8271484375,31.5673828125,51.0,71.0
194,31.5302734375,31.642578125,58.0,76.0
195,31.9990234375,32.126953125,58.0,78.0
196,32.2333984375,32.357421875,63.0,82.0
197,32.2333984375,32.4658203125,67.0,79.0
198,32.4677734375,32.57421875,46.0,79.0
199,32.7021484375,32.9814453125,60.0,78.0
200,32.7021484375,33.0556640625,67.0,71.0
201,33.1708984375,33.2548828125,60.0,78.0
202,33.1708984375,33.26953125,64.0,78.0
203,32.7021484375,33.2705078125,48.0,81.0
204,33.1708984375,33.3232421875,67.0,79.0
205,33.4052734375,33.5966796875,60.0,81.0
206,33.8740234375,33.927734375,60.0,63.0
207,33.8740234375,34.139726679166664,55.0,70.0
208,34.1084156125,34.2023488125,60.0,81.0
209,34.1084156125,34.275734125,64.0,89.0
210,34.1084156125,34.3667319125,67.0,81.0
211,34.3432486125,34.4665359375,60.0,79.0
212,34.5780816125,34.6896272875,60.0,77.0
213,34.5780816125,34.852053445833334,65.0,81.0
214,34.5780816125,35.131896104166664,53.0,79.0
215,35.0477476125,35.293343791666665,68.0,80.0
216,35.0477476125,35.296279204166666,65.0,84.0
217,35.2825806125,35.3765138125,60.0,79.0
218,35.5174136125,35.684732125,58.0,74.0
219,35.5174136125,35.719957074999996,62.0,70.0
220,35.9870796125,36.08981905,58.0,75.0
221,35.9870796125,36.29138404166667,65.0,80.0
222,35.7522466125,36.330522875,53.0,66.0
223,36.2219126125,36.355963116666665,58.0,71.0
224,35.5174136125,36.3628124125,46.0,78.0
225,36.4567456125,36.56339893333333,58.0,71.0
226,36.4567456125,36.57807599583333,63.0,76.0
227,36.45870255416666,36.61427941666667,39.0,100.0
228,36.4567456125,36.642655070833335,51.0,75.0
229,36.692557083333334,36.751265333333336,63.0,81.0
230,36.6915786125,36.77474863333333,58.0,81.0
231,36.695492495833335,36.781597929166665,51.0,81.0
232,36.9264116125,37.02425869583333,58.0,81.0
233,36.929347025,37.02425869583333,63.0,81.0
234,36.924454670833335,37.02719410833333,51.0,81.0
235,36.927390083333336,37.033064933333335,46.0,100.0
236,36.9264116125,37.03991422916667,67.0,81.0
237,37.1612446125,37.32073535833333,58.0,79.0
238,37.1612446125,37.32660618333333,63.0,79.0
239,37.164180025,37.353024895833336,51.0,100.0
240,37.1671154375,37.42641020833333,39.0,100.0
241,37.634824495833335,37.7600687625,63.0,100.0
242,37.6309106125,37.82269089583333,58.0,78.0
243,37.631889083333334,37.8246478375,46.0,100.0
244,37.86965749583333,38.0007725875,51.0,100.0
245,37.86965749583333,38.02816977083333,58.0,100.0
246,37.866722083333336,38.03404059583333,63.0,100.0
247,38.1005766125,38.20331605,58.0,78.0
248,38.0976412,38.254196533333335,51.0,100.0
249,38.0976412,38.2620243,63.0,100.0
250,38.09959814166667,38.27278747916667,67.0,82.0
251,38.3354096125,38.481201766666665,39.0,81.0
252,38.3354096125,38.5819842625,63.0,79.0
253,38.3354096125,38.60351062083333,58.0,76.0
254,38.8050756125,38.894116458333336,63.0,80.0
255,38.8050756125,38.89803034166667,67.0,79.0
256,39.0399086125,39.254193725,58.0,58.0
257,39.0399086125,39.311923504166664,63.0,75.0
258,39.0399086125,39.364760929166664,67.0,78.0
259,39.5095746125,39.616227933333334,63.0,78.0
260,39.744222504166665,39.815511566666665,63.0,78.0
261,39.744222504166665,39.868245941666665,67.0,80.0
262,39.744222504166665,39.872152191666665,70.0,81.0
263,39.2747416125,39.916097504166665,51.0,78.0
264,39.978597504166665,40.081136566666665,63.0,69.0
265,40.212972504166665,40.277425629166665,63.0,69.0
266,40.212972504166665,40.330160004166665,70.0,80.0
267,40.212972504166665,40.350667816666665,67.0,77.0
268,40.447347504166665,40.529378754166665,67.0,74.0
269,40.447347504166665,40.539144379166665,63.0,73.0
270,40.447347504166665,40.567464691666665,72.0,74.0
271,40.681722504166665,40.777425629166665,67.0,73.0
272,40.681722504166665,40.789144379166665,70.0,80.0
273,40.681722504166665,40.794027191666665,63.0,75.0
274,41.150472504166665,41.235433441666665,67.0,72.0
275,41.150472504166665,41.244222504166665,63.0,69.0
276,41.150472504166665,41.256917816666665,70.0,76.0
277,41.384847504166665,41.467855316666665,63.0,73.0
278,41.384847504166665,41.477620941666665,67.0,78.0
279,41.384847504166665,41.491292816666665,72.0,79.0
280,41.619222504166665,41.727620941666665,67.0,80.0
281,41.619222504166665,41.758870941666665,63.0,78.0
282,42.087972504166665,42.390706879166665,60.0,78.0
283,42.087972504166665,42.398519379166665,63.0,78.0
284,42.556722504166665,42.632894379166665,60.0,79.0
285,42.556722504166665,42.657308441666665,63.0,82.0
286,42.556722504166665,42.667074066666665,67.0,79.0
287,42.087972504166665,42.765706879166665,48.0,73.0
288,42.791097504166665,43.019613129166665,60.0,76.0
289,42.791097504166665,43.046956879166665,67.0,72.0
290,42.791097504166665,43.049886566666665,63.0,77.0
291,43.259847504166665,43.377035004166665,60.0,76.0
292,43.025472504166665,43.592855316666665,55.0,54.0
293,43.494222504166665,43.612386566666665,67.0,80.0
294,43.494222504166665,43.620199066666665,60.0,79.0
295,43.494222504166665,43.624105316666665,63.0,81.0
296,43.962972504166665,44.117269379166665,67.0,68.0
297,43.962972504166665,44.128011566666665,43.0,62.0
298,43.962972504166665,44.159261566666665,50.0,63.0
299,44.197347504166665,44.336019379166665,70.0,77.0
300,44.431722504166665,44.612386566666665,67.0,80.0
301,44.900472504166665,45.097738129166665,67.0,72.0
302,45.134847504166665,45.272542816666665,70.0,72.0
303,44.900472504166665,45.344808441666665,43.0,67.0
304,44.900472504166665,45.395589691666665,50.0,69.0
305,45.369222504166665,45.498128754166665,67.0,79.0
306,45.837972504166665,45.983480316666665,39.0,81.0
307,45.837972504166665,46.084066254166665,63.0,79.0
308,45.837972504166665,46.105550629166665,58.0,76.0
309,46.306722504166665,46.395589691666665,63.0,80.0
310,46.306722504166665,46.399495941666665,67.0,79.0
311,46.541097504166665,46.754964691666665,58.0,58.0
312,46.541097504166665,46.812581879166665,63.0,75.0
313,46.541097504166665,46.865316254166665,67.0,78.0
314,47.009847504166665,47.116292816666665,63.0,78.0
315,47.244222504166665,47.315511566666665,63.0,78.0
316,47.244222504166665,47.368245941666665,67.0,80.0
317,47.244222504166665,47.372152191666665,70.0,81.0
318,46.775472504166665,47.416097504166665,51.0,78.0
319,47.478597504166665,47.581136566666665,63.0,69.0
320,47.712972504166665,47.777425629166665,63.0,69.0
321,47.712972504166665,47.830160004166665,70.0,80.0
322,47.712972504166665,47.850667816666665,67.0,77.0
323,47.947347504166665,48.029378754166665,67.0,74.0
324,47.947347504166665,48.039144379166665,63.0,73.0
325,47.947347504166665,48.067464691666665,72.0,74.0
326,48.181722504166665,48.277425629166665,67.0,73.0
327,48.181722504166665,48.289144379166665,70.0,80.0
328,48.181722504166665,48.294027191666665,63.0,75.0
329,48.650472504166665,48.735433441666665,67.0,72.0
330,48.650472504166665,48.744222504166665,63.0,69.0
331,48.650472504166665,48.756917816666665,70.0,76.0
332,48.884847504166665,48.967855316666665,63.0,73.0
333,48.884847504166665,48.977620941666665,67.0,78.0
334,48.884847504166665,48.991292816666665,72.0,79.0
335,49.11941715416666,49.22802741666666,67.0,80.0
336,49.11941715416666,49.25933848333333,63.0,78.0
337,49.589083154166666,49.8924091125,60.0,78.0
338,49.589083154166666,49.90023687916666,63.0,78.0
339,50.05874915416666,50.135069879166664,60.0,79.0
340,50.05874915416666,50.15953165,63.0,82.0
341,50.05874915416666,50.16931635833333,67.0,79.0
342,49.589083154166666,50.2681419125,48.0,73.0
343,50.293582154166664,50.522544329166664,60.0,76.0
344,50.293582154166664,50.5499415125,67.0,72.0
345,50.293582154166664,50.552876925,63.0,77.0
346,50.76324815416667,50.880664654166665,60.0,76.0
347,50.528415154166666,51.09690670833333,55.0,54.0
348,50.99808115416666,51.116476125,67.0,80.0
349,50.99808115416666,51.12430389166666,60.0,79.0
350,50.99808115416666,51.128217774999996,63.0,81.0
351,51.467747154166666,51.62234554583333,67.0,68.0
352,51.467747154166666,51.633108725,43.0,62.0
353,51.467747154166666,51.66441979166667,50.0,63.0
354,51.70258015416667,51.8415230125,70.0,77.0
355,51.93741315416666,52.11843025833333,67.0,80.0
356,52.40707915416667,52.6047302625,67.0,72.0
357,52.64191215416666,52.77987654166667,70.0,72.0
358,52.40707915416667,52.85228338333333,43.0,67.0
359,52.40707915416667,52.90316386666667,50.0,69.0
360,52.87674515416666,53.005903304166665,67.0,79.0
361,53.34641115416667,53.68159155,56.0,67.0
362,53.34641115416667,53.6854978,60.0,70.0
363,53.8153806125,53.9198728,56.0,79.0
364,53.34641115416667,54.0145993625,44.0,70.0
365,53.8153806125,54.140575925,60.0,80.0
366,53.8153806125,54.1688962375,63.0,79.0
367,54.0497556125,54.30659155,56.0,81.0
368,54.5185056125,54.5966306125,56.0,72.0
369,54.2841306125,54.8339353,51.0,74.0
370,54.7528806125,54.8573728,56.0,78.0
371,54.7528806125,55.0185056125,60.0,78.0
372,54.9872556125,55.06440405,56.0,75.0
373,54.7528806125,55.0868649875,63.0,80.0
374,55.2216306125,55.304638425,64.0,69.0
375,55.2216306125,55.593700925,60.0,74.0
376,55.6903806125,55.78315405,60.0,79.0
377,55.6903806125,55.8954587375,64.0,78.0
378,55.6903806125,55.980419675,67.0,80.0
379,55.9247556125,56.042919675,60.0,75.0
380,55.2216306125,56.0614743625,48.0,80.0
381,56.1591306125,56.2802243625,60.0,71.0
382,56.1591306125,56.453075925,65.0,78.0
383,56.3935056125,56.5302243625,60.0,79.0
384,56.6278806125,56.730419675,60.0,80.0
385,56.1591306125,56.9677243625,53.0,73.0
386,56.6278806125,56.976513425,68.0,77.0
387,56.8622556125,57.027294675,60.0,83.0
388,57.0966306125,57.437450925,51.0,79.0
389,57.0966306125,57.4501462375,58.0,72.0
390,57.0966306125,57.453075925,63.0,77.0
391,58.0341306125,58.21284155,63.0,71.0
392,58.0341306125,58.2138181125,58.0,71.0
393,58.0341306125,58.214794675,51.0,81.0
394,58.0341306125,58.2313962375,67.0,73.0
395,58.9716306125,59.1591306125,63.0,72.0
396,58.9716306125,59.167919675,60.0,73.0
397,58.9716306125,59.1786618625,67.0,70.0
398,58.9716306125,59.195263425,48.0,79.0
399,59.90951352916667,60.0555918875,63.0,74.0
400,59.90951352916667,60.0673565875,60.0,71.0
401,59.90951352916667,60.072258545833336,67.0,73.0
402,59.90951352916667,60.1055918625,48.0,73.0
403,60.850689529166665,61.094807054166665,60.0,73.0
404,60.850689529166665,61.10363057916667,56.0,70.0
405,61.321277529166665,61.58402249583333,56.0,80.0
406,60.850689529166665,61.6644146125,44.0,78.0
407,61.55657152916667,61.69480675416667,63.0,78.0
408,61.08598352916667,61.69872832083333,51.0,67.0
409,61.791865529166664,62.03010070416667,62.0,78.0
410,61.791865529166664,62.0320614875,58.0,72.0
411,62.26245352916667,62.4026495375,58.0,78.0
412,62.26245352916667,62.43598285416667,62.0,81.0
413,62.02715952916667,62.5614729875,53.0,73.0
414,61.791865529166664,62.59480630416667,46.0,79.0
415,62.73304152916667,62.87225714583333,58.0,77.0
416,62.73304152916667,63.030100204166665,63.0,78.0
417,62.968335529166666,63.075198220833336,58.0,70.0
418,63.20362952916667,63.48009997916667,67.0,79.0
419,63.20362952916667,63.48598232916667,63.0,80.0
420,63.438923529166665,63.557550920833336,58.0,72.0
421,62.73304152916667,63.76931552083333,51.0,84.0
422,63.67421752916667,63.7791194375,63.0,80.0
423,63.67421752916667,63.782060612500004,58.0,79.0
424,64.14480552916666,64.31049172083334,58.0,73.0
425,64.14480552916666,64.3144132875,62.0,76.0
426,64.14480552916666,64.36049169583333,46.0,79.0
427,64.38009952916667,66.13651005416666,58.0,78.0
428,64.38009952916667,66.14432255416666,63.0,83.0
429,64.38009952916667,66.17166630416666,51.0,80.0
430,66.49197880416666,66.77615849166666,63.0,73.0
431,66.49197880416666,66.79959599166666,58.0,68.0
432,66.96072880416666,67.06717411666666,58.0,79.0
433,66.49197880416666,67.30252567916666,51.0,79.0
434,67.19510380416666,67.46854130416666,58.0,76.0
435,66.96072880416666,67.52225224166666,67.0,81.0
436,67.66385380416666,67.76443974166666,58.0,71.0
437,67.89822880416666,67.99783817916666,58.0,79.0
438,67.89822880416666,68.20096317916666,63.0,80.0
439,68.13260380416666,68.48416630416666,58.0,71.0
440,67.89822880416666,68.66483036666666,67.0,78.0
441,68.60135380416666,68.76736942916666,58.0,66.0
442,68.83572880416666,68.96072880416666,63.0,73.0
443,69.07010380416666,69.36697880416666,58.0,76.0
444,69.07010380416666,69.41776005416666,63.0,71.0
445,69.53885380416666,69.65311161666666,58.0,72.0
446,69.77322880416666,69.84549442916666,58.0,76.0
447,69.77322880416666,69.97440067916666,63.0,79.0
448,68.36697880416666,69.98221317916666,51.0,80.0
449,69.77322880416666,70.05057255416666,67.0,78.0
450,70.00760380416666,70.12576786666666,58.0,69.0
451,70.24197880416666,70.44315067916666,58.0,68.0
452,70.24197880416666,70.45584599166666,62.0,63.0
453,70.71072880416666,70.81326786666666,58.0,79.0
454,70.71072880416666,70.83475224166666,65.0,80.0
455,70.94510380416666,71.10330692916666,58.0,66.0
456,70.94510380416666,71.11502567916666,62.0,65.0
457,71.41385380416666,71.57498661666666,58.0,78.0
458,71.41385380416666,71.60623661666666,65.0,78.0
459,70.24197880416666,72.05057255416666,46.0,71.0
460,72.11697880416666,72.37674442916666,58.0,76.0
461,72.11697880416666,72.42557255416666,62.0,71.0
462,72.58572880416666,72.62088505416666,62.0,79.0
463,72.58572880416666,72.69315067916666,58.0,77.0
464,72.58572880416666,72.72440067916666,65.0,79.0
465,72.82010380416666,72.94315067916666,58.0,67.0
466,72.82010380416666,72.95975224166666,62.0,70.0
467,73.28885380416666,73.38065067916666,58.0,69.0
468,73.52322880416666,73.60037724166666,58.0,78.0
469,73.52322880416666,73.67068974166666,62.0,85.0
470,73.52322880416666,73.69998661666666,65.0,83.0
471,73.75760380416666,73.86502567916666,58.0,70.0
472,72.11697880416666,73.88260380416666,46.0,79.0
473,73.99197880416666,74.16776005416666,58.0,67.0
474,73.99197880416666,74.19705692916666,63.0,73.0
475,74.46072880416666,74.54764286666666,58.0,75.0
476,74.46072880416666,74.56326786666666,63.0,80.0
477,74.46072880416666,74.62674442916666,67.0,79.0
478,74.69510380416666,74.76736942916666,63.0,67.0
479,74.69510380416666,74.91873661666666,58.0,72.0
480,75.16385380416666,75.26932255416666,58.0,76.0
481,75.39822880416666,75.50565067916666,58.0,79.0
482,75.39822880416666,75.62186161666666,63.0,85.0
483,75.63260380416666,75.70975224166666,58.0,71.0
484,73.99197880416666,75.74197880416666,51.0,78.0
485,75.39822880416666,75.74979130416666,67.0,78.0
486,75.86697880416666,76.09061161666666,64.0,73.0
487,75.86697880416666,76.13162724166666,60.0,70.0
488,76.33572880416666,76.42361942916666,60.0,71.0
489,76.33572880416666,76.44510380416666,64.0,70.0
490,76.33572880416666,76.47635380416666,67.0,69.0
491,76.57010380416666,76.65213505416666,67.0,52.0
492,75.86697880416666,76.65604130416666,48.0,79.0
493,76.57010380416666,76.69901005416666,64.0,60.0
494,76.57010380416666,76.85037724166666,60.0,78.0
495,77.03885380416666,77.15408817916666,60.0,74.0
496,77.27322880416666,77.32108036666666,60.0,71.0
497,77.27322880416666,77.48221317916666,67.0,80.0
498,77.27322880416666,77.51053349166666,72.0,78.0
499,77.27322880416666,77.53104130416666,64.0,84.0
500,77.50760380416666,77.63065067916666,60.0,75.0
501,77.74197880416666,78.03499335416666,60.0,76.0
502,77.74197880416666,78.03695029583334,65.0,76.0
503,78.21111810416666,78.30309436249999,60.0,78.0
504,78.21111810416666,78.505637825,68.0,80.0
505,78.21111810416666,78.50759476666666,65.0,84.0
506,78.44595110416667,78.66806398333333,60.0,73.0
507,78.91561710416666,79.01737807083333,60.0,82.0
508,77.74197880416666,79.08293561666666,41.0,80.0
509,79.15045010416667,79.23166318333332,60.0,79.0
510,79.15045010416667,79.3774553375,65.0,81.0
511,79.38528310416666,79.47725936249999,60.0,78.0
512,79.62011610416667,79.80700403333333,58.0,72.0
513,79.62011610416667,79.8706046375,62.0,70.0
514,80.08978210416666,80.1758875375,58.0,74.0
515,80.32461510416667,80.4400746625,65.0,82.0
516,80.32461510416667,80.45279478333333,58.0,81.0
517,80.79428110416666,80.90778372083334,58.0,78.0
518,80.79428110416666,81.03498492916667,62.0,81.0
519,81.02911410416667,81.19447567499999,58.0,73.0
520,79.85494910416666,81.32754770833333,53.0,65.0
521,79.62011610416667,81.3911483125,46.0,79.0
522,81.49878010416667,81.68371109166667,58.0,78.0
523,81.49878010416667,81.7668811125,63.0,78.0
524,81.96844610416666,82.09173342916667,58.0,79.0
525,81.96844610416666,82.15533403333333,67.0,82.0
526,82.20327910416667,82.415607275,58.0,69.0
527,82.20327910416667,82.49877729583334,63.0,79.0
528,82.67294510416666,82.77470607083333,58.0,78.0
529,81.49878010416667,82.93615375833333,51.0,78.0
530,82.90777810416667,83.01051754166666,58.0,79.0
531,82.90777810416667,83.25513525,67.0,79.0
532,83.14261110416666,83.26296301666666,58.0,78.0
533,83.37744410416667,83.46452800833333,58.0,70.0
534,83.37744410416667,83.57607368333333,63.0,74.0
535,83.37744410416667,83.67783465,51.0,78.0
536,83.61227710416667,83.70523183333333,58.0,67.0
537,83.84711010416666,83.89701211666666,58.0,69.0
538,83.84711010416666,83.95474189583334,63.0,79.0
539,83.84711010416666,84.05454592083333,67.0,74.0
540,84.08194310416667,84.27763727083332,58.0,78.0
541,84.08194310416667,84.34515175833333,63.0,75.0
542,84.55160910416666,84.70718596666666,58.0,73.0
543,84.78644210416667,85.08878959166667,63.0,80.0
544,84.78644210416667,85.10053124166666,67.0,80.0
545,85.02127510416666,85.17391655416667,58.0,79.0
546,85.25610810416666,85.46158697916667,62.0,36.0
547,85.25610810416666,85.51540287499999,58.0,67.0
548,85.72577410416666,85.80698718333333,58.0,76.0
549,85.72577410416666,85.855910725,65.0,79.0
550,85.96060710416667,86.12009785,58.0,78.0
551,85.25610810416666,86.14455962083333,46.0,79.0
552,86.43027310416666,86.55943125416667,58.0,69.0
553,86.66510610416667,86.80600590416667,62.0,85.0
554,86.66510610416667,86.81089825833332,65.0,83.0
555,86.89993910416666,87.02518337083333,58.0,71.0
556,87.13477210416666,87.27469343333333,58.0,69.0
557,87.13477210416666,87.32753085833333,62.0,65.0
558,87.13477210416666,87.64944776249999,46.0,79.0
559,87.60443810416666,87.7287039,62.0,83.0
560,87.60443810416666,87.73261778333332,65.0,80.0
561,87.83927110416667,87.97919243333332,58.0,78.0
562,88.30893710416666,88.41167654166667,58.0,76.0
563,88.54377010416667,88.6445526,58.0,70.0
564,88.54377010416667,88.67977755,62.0,87.0
565,88.54377010416667,88.7061962625,65.0,81.0
566,88.77860310416666,88.82752664583333,65.0,57.0
567,88.77860310416666,88.87155783333333,58.0,71.0
568,88.77860310416666,88.94592161666667,46.0,79.0
569,89.01343610416666,89.15629284583333,58.0,76.0
570,89.01343610416666,89.25903228333333,63.0,79.0
571,89.24826910416667,89.33046065416666,58.0,68.0
572,89.48310210416666,89.53789647083333,58.0,67.0
573,89.48310210416666,89.60345401666666,63.0,80.0
574,89.48310210416666,89.64748520416666,67.0,80.0
575,89.01343610416666,89.75511699583333,51.0,71.0
576,89.71793510416666,89.83045924999999,58.0,76.0
577,90.18760110416666,90.31578078333332,58.0,78.0
578,90.42243410416665,90.5466999,63.0,82.0
579,90.42243410416665,90.6553101625,67.0,79.0
580,90.65726710416666,90.763920425,46.0,79.0
581,90.89210010416666,91.1719427625,60.0,78.0
582,90.89210010416666,91.24630654583333,67.0,71.0
583,91.36176610416666,91.44591459583333,60.0,78.0
584,91.36176610416666,91.46059165833333,64.0,78.0
585,90.89210010416666,91.46157012916666,48.0,81.0
586,91.36176610416666,91.51440755416667,67.0,79.0
587,91.59659910416666,91.7883793875,60.0,81.0
588,92.06626510416666,92.120081,60.0,63.0
589,92.06626510416666,92.3314307,55.0,70.0
590,92.30109810416667,92.39503130416666,60.0,81.0
591,92.30109810416667,92.46841661666666,64.0,89.0
592,92.30109810416667,92.55941440416666,67.0,81.0
593,92.53593110416666,92.65921842916666,60.0,79.0
594,92.77076410416666,92.88230977916666,60.0,77.0
595,92.77076410416666,93.0447359375,65.0,81.0
596,92.77076410416666,93.32457859583333,53.0,79.0
597,93.24043010416666,93.48602628333333,68.0,80.0
598,93.24043010416666,93.48896169583332,65.0,84.0
599,93.47526310416666,93.56919630416667,60.0,79.0
600,93.71009610416667,93.87741461666667,58.0,74.0
601,93.71009610416667,93.91263956666666,62.0,70.0
602,94.17976210416666,94.28250154166666,58.0,75.0
603,94.17976210416666,94.48406653333333,65.0,80.0
604,93.94492910416666,94.52320536666666,53.0,66.0
605,94.41459510416666,94.54864560833333,58.0,71.0
606,93.71009610416667,94.55549490416666,46.0,78.0
607,94.64942810416666,94.75608142499999,58.0,71.0
608,94.64942810416666,94.88426110416665,63.0,76.0
609,94.88426110416665,94.96743112499999,58.0,72.0
610,95.11909410416666,95.2169411875,58.0,77.0
611,95.11909410416666,95.23259672083333,67.0,71.0
612,95.35392710416666,95.51341785,58.0,79.0
613,95.35392710416666,95.519288675,63.0,79.0
614,95.82359310416666,96.01537338749999,58.0,78.0
615,96.05842610416667,96.23161544166666,67.0,82.0
616,96.29325910416667,96.39599854166667,58.0,78.0
617,94.64942810416666,96.41263254583333,51.0,75.0
618,96.52809210416666,96.67388425833333,39.0,81.0
619,96.52809210416666,96.77466675416666,63.0,79.0
620,96.52809210416666,96.79619311249999,58.0,76.0
621,96.99775810416666,97.08679895,63.0,80.0
622,96.99775810416666,97.09071283333333,67.0,79.0
623,97.23259110416666,97.44687621666667,58.0,58.0
624,97.23259110416666,97.50460599583333,63.0,75.0
625,97.23259110416666,97.55744342083332,67.0,78.0
626,97.70225710416666,97.808910425,63.0,78.0
627,97.93709010416666,98.00851847499999,63.0,78.0
628,97.93709010416666,98.0613559,67.0,80.0
629,97.93709010416666,98.06526978333332,70.0,81.0
630,97.46742410416667,98.10930097083333,51.0,78.0
631,98.17192310416667,98.27466254166666,63.0,69.0
632,98.40675610416666,98.47133517916666,63.0,69.0
633,98.40675610416666,98.52417260416667,70.0,80.0
634,98.40675610416666,98.54472049166667,67.0,77.0
635,98.64158910416666,98.72378065416666,67.0,74.0
636,98.64158910416666,98.7335653625,63.0,73.0
637,98.64158910416666,98.76194101666667,72.0,74.0
638,98.87642210416666,98.97231224583334,67.0,73.0
639,98.87642210416666,98.98405389583333,70.0,80.0
640,98.87642210416666,98.98894625,63.0,75.0
641,99.34608810416665,99.43121506666667,67.0,72.0
642,99.34608810416665,99.44002130416666,63.0,69.0
643,99.34608810416665,99.452741425,70.0,76.0
644,99.58092110416666,99.664091125,63.0,73.0
645,99.58092110416666,99.67387583333333,67.0,78.0
646,99.58092110416666,99.687574425,72.0,79.0
647,99.81575410416666,99.92436436666667,67.0,80.0
648,99.81575410416666,99.95567543333333,63.0,78.0
649,100.28542010416666,100.5887460625,60.0,78.0
650,100.28542010416666,100.59657382916666,63.0,78.0
651,100.75508610416666,100.83140682916667,60.0,79.0
652,100.75508610416666,100.8558686,63.0,82.0
653,100.75508610416666,100.86565330833332,67.0,79.0
654,100.28542010416666,100.96447886249999,48.0,73.0
655,100.98991910416666,101.21888127916667,60.0,76.0
656,100.98991910416666,101.24627846249999,67.0,72.0
657,100.98991910416666,101.249213875,63.0,77.0
658,101.45958510416666,101.57700160416667,60.0,76.0
659,101.22475210416667,101.79324365833332,55.0,54.0
660,101.69441810416666,101.812813075,67.0,80.0
661,101.69441810416666,101.82064084166666,60.0,79.0
662,101.69441810416666,101.824554725,63.0,81.0
663,102.16408410416666,102.31868249583333,67.0,68.0
664,102.16408410416666,102.32944567499999,43.0,62.0
665,102.16408410416666,102.36075674166666,50.0,63.0
666,102.39891710416666,102.5378599625,70.0,77.0
667,102.63375010416667,102.81476720833334,67.0,80.0
668,103.10341610416666,103.30106721249999,67.0,72.0
669,103.33824910416666,103.47621349166667,70.0,72.0
670,103.10341610416666,103.54862033333333,43.0,67.0
671,103.10341610416666,103.59950081666666,50.0,69.0
672,103.57308210416666,103.70224025416667,67.0,79.0
673,104.04274810416666,104.18854025833333,39.0,81.0
674,104.04274810416666,104.28932275416666,63.0,79.0
675,104.04274810416666,104.3108491125,58.0,76.0
676,104.51241410416667,104.60145494999999,63.0,80.0
677,104.51241410416667,104.60536883333333,67.0,79.0
678,104.74724710416666,104.96153221666665,58.0,58.0
679,104.74724710416666,105.01926199583333,63.0,75.0
680,104.74724710416666,105.07209942083333,67.0,78.0
681,105.21691310416666,105.323566425,63.0,78.0
682,105.45174610416666,105.52317447499999,63.0,78.0
683,105.45174610416666,105.5760119,67.0,80.0
684,105.45174610416666,105.57992578333332,70.0,81.0
685,104.98208010416667,105.62395697083333,51.0,78.0
686,105.68657910416667,105.78931854166666,63.0,69.0
687,105.92141210416666,105.98599117916666,63.0,69.0
688,105.92141210416666,106.03882860416667,70.0,80.0
689,105.92141210416666,106.05937649166665,67.0,77.0
690,106.15624510416666,106.23843665416666,67.0,74.0
691,106.15624510416666,106.24822136249999,63.0,73.0
692,106.15624510416666,106.27659701666667,72.0,74.0
693,106.39107810416667,106.48696824583332,67.0,73.0
694,106.39107810416667,106.49870989583333,70.0,80.0
695,106.39107810416667,106.50360225,63.0,75.0
696,106.86074410416666,106.94587106666665,67.0,72.0
697,106.86074410416666,106.95467730416667,63.0,69.0
698,106.86074410416666,106.967397425,70.0,76.0
699,107.09557710416667,107.178747125,63.0,73.0
700,107.09557710416667,107.18853183333333,67.0,78.0
701,107.09557710416667,107.202230425,72.0,79.0
702,107.33041010416666,107.43902036666665,67.0,80.0
703,107.33041010416666,107.47033143333333,63.0,78.0
704,107.80007610416666,108.10300512916666,60.0,78.0
705,107.80007610416666,108.11081762916666,63.0,78.0
706,108.26902075416666,108.34519262916666,60.0,79.0
707,108.26902075416666,108.36960669166666,63.0,82.0
708,108.26902075416666,108.37937231666666,67.0,79.0
709,107.80007610416666,108.47800512916666,48.0,73.0
710,108.50339575416666,108.73191137916666,60.0,76.0
711,108.50339575416666,108.75925512916666,67.0,72.0
712,108.50339575416666,108.76218481666666,63.0,77.0
713,108.97214575416666,109.08933325416666,60.0,76.0
714,108.73777075416666,109.30515356666666,55.0,54.0
715,109.20652075416666,109.32468481666666,67.0,80.0
716,109.20652075416666,109.33249731666666,60.0,79.0
717,109.20652075416666,109.33640356666666,63.0,81.0
718,109.67527075416666,109.82956762916666,67.0,68.0
719,109.67527075416666,109.84030981666666,43.0,62.0
720,109.67527075416666,109.87155981666666,50.0,63.0
721,109.90964575416666,110.04831762916666,70.0,77.0
722,110.14402075416666,110.32468481666666,67.0,80.0
723,110.61277075416666,110.81003637916666,67.0,72.0
724,110.84714575416666,110.98484106666666,70.0,72.0
725,110.61277075416666,111.05710669166666,43.0,67.0
726,110.61277075416666,111.10788794166666,50.0,69.0
727,111.08152075416666,111.21042700416666,67.0,79.0
728,111.55027075416666,111.88523169166666,56.0,67.0
729,111.55027075416666,111.88913794166666,60.0,70.0
730,112.01902075416666,112.12351294166666,56.0,79.0
731,111.55027075416666,112.21823950416666,44.0,70.0
732,112.01902075416666,112.34421606666666,60.0,80.0
733,112.01902075416666,112.37253637916666,63.0,79.0
734,112.25339575416666,112.51023169166666,56.0,81.0
735,112.72214575416666,112.80027075416666,56.0,72.0
736,112.48777075416666,113.03757544166666,51.0,74.0
737,112.95652075416666,113.06101294166666,56.0,78.0
738,112.95652075416666,113.22214575416666,60.0,78.0
739,113.19089575416666,113.26804419166666,56.0,75.0
740,112.95652075416666,113.29050512916666,63.0,80.0
741,113.42527075416666,113.50827856666666,64.0,69.0
742,113.42527075416666,113.79734106666666,60.0,74.0
743,113.89402075416666,113.98679419166666,60.0,79.0
744,113.89402075416666,114.09909887916666,64.0,78.0
745,113.89402075416666,114.18405981666666,67.0,80.0
746,114.12839575416666,114.24655981666666,60.0,75.0
747,113.42527075416666,114.26511450416666,48.0,80.0
748,114.36277075416666,114.48386450416666,60.0,71.0
749,114.36277075416666,114.65671606666666,65.0,78.0
750,114.59714575416666,114.73386450416666,60.0,79.0
751,114.83152075416666,114.93405981666666,60.0,80.0
752,114.36277075416666,115.17136450416666,53.0,73.0
753,114.83152075416666,115.18015356666666,68.0,77.0
754,115.06589575416666,115.23093481666666,60.0,83.0
755,115.30027075416666,115.64109106666666,51.0,79.0
756,115.30027075416666,115.65378637916666,58.0,72.0
757,115.30027075416666,115.65671606666666,63.0,77.0
758,116.23777075416666,116.41648169166666,63.0,71.0
759,116.23777075416666,116.41745825416666,58.0,71.0
760,116.23777075416666,116.41843481666666,51.0,81.0
761,116.23777075416666,116.43503637916666,67.0,73.0
762,117.17527075416666,117.36277075416666,63.0,72.0
763,117.17527075416666,117.37155981666666,60.0,73.0
764,117.17527075416666,117.38230200416666,67.0,70.0
765,117.17527075416666,117.39890356666666,48.0,79.0
766,118.11277075416666,118.25827856666666,63.0,74.0
767,118.11277075416666,118.26999731666666,60.0,71.0
768,118.11277075416666,118.27488012916666,67.0,73.0
769,118.11277075416666,118.30808325416666,48.0,73.0
770,119.05027075416666,119.29343481666666,60.0,73.0
771,119.05027075416666,119.30222387916666,56.0,70.0
772,119.51902075416666,119.78073950416666,56.0,80.0
773,119.05027075416666,119.86081762916666,44.0,78.0
774,119.75339575416666,119.89109106666666,63.0,78.0
775,119.28464575416666,119.89499731666666,51.0,67.0
776,119.98777075416666,120.22507544166666,62.0,78.0
777,119.98777075416666,120.22702856666666,58.0,72.0
778,120.45652075416666,120.59616919166666,58.0,78.0
779,120.45652075416666,120.62937231666666,62.0,81.0
780,120.22214575416666,120.75437231666666,53.0,73.0
781,119.98777075416666,120.78757544166666,46.0,79.0
782,120.92527075416666,121.06394262916666,58.0,77.0
783,120.92527075416666,121.22116919166666,63.0,78.0
784,121.15964575416666,121.26609106666666,58.0,70.0
785,121.39402075416666,121.66941137916666,67.0,79.0
786,121.39402075416666,121.67527075416666,63.0,80.0
787,121.62839575416666,121.74655981666666,58.0,72.0
788,120.92527075416666,121.86081762916666,51.0,84.0
789,121.86277075416666,121.96726294166666,63.0,80.0
790,121.86277075416666,121.97019262916666,58.0,79.0
791,121.86277075416666,122.32956762916666,51.0,79.0
792,122.33152075416666,124.08542700416666,58.0,78.0
793,122.33152075416666,124.09323950416666,63.0,83.0
794,122.33152075416666,124.12058325416666,51.0,80.0
