,start,end,pitch,velocity
0,0.6336795416666666,1.067706625,52.0,81.0
1,1.067706625,1.5173586833333332,55.0,89.0
2,1.5173586833333332,1.9322885749999998,52.0,83.0
3,1.9322885749999998,2.3645795499999998,59.0,90.0
4,2.3645795499999998,4.119785075,57.0,93.0
5,4.119785075,4.493048366666667,50.0,72.0
6,4.493048366666667,4.90624215,54.0,99.0
7,4.90624215,5.3107553916666665,50.0,82.0
8,5.3107553916666665,5.73957415,57.0,83.0
9,5.7291574999999995,7.190960716666666,55.0,72.0
10,7.185752391666666,7.5624879,52.0,100.0
11,7.5624879,7.967001141666667,60.0,99.0
12,7.967001141666667,8.425333741666666,59.0,102.0
13,8.425333741666666,8.821166441666666,55.0,96.0
14,8.821166441666666,9.296860125,52.0,92.0
15,9.296860125,10.157969858333333,55.0,95.0
16,10.157969858333333,10.8749826,57.0,100.0
17,10.850677083333332,12.930534866666665,55.0,83.0
18,26.480714562499998,26.892522562499998,52.0,92.0
19,26.892522562499998,27.316660387499997,55.0,112.0
20,27.306315562499996,27.7201085625,52.0,95.0
21,27.7201085625,28.192522237499997,59.0,102.0
22,28.133901562499997,29.789073562499997,57.0,107.0
23,29.789073562499997,30.2028665625,50.0,92.0
24,30.2028665625,30.616659562499997,54.0,112.0
25,30.616659562499997,31.030452562499995,50.0,100.0
26,31.030452562499995,31.444245562499997,57.0,107.0
27,31.444245562499997,33.09404382291667,55.0,117.0
28,33.09404382291667,33.50500232291667,52.0,90.0
29,33.50500232291667,33.91596082291667,55.0,97.0
30,33.91596082291667,34.12144007291666,52.0,86.0
31,34.12144007291666,34.737877822916666,59.0,100.0
32,34.737877822916666,35.14712399583333,57.0,100.0
33,35.148836322916665,35.559794822916665,57.0,112.0
34,35.559794822916665,35.970753322916664,55.0,90.0
35,35.970753322916664,36.79267032291666,57.0,100.0
36,36.79267032291666,37.604770333333335,62.0,99.0
37,37.604770333333335,39.604770333333335,59.0,96.0
38,39.604770333333335,40.01458732291667,52.0,89.0
39,40.01458732291667,40.42554582291667,55.0,99.0
40,40.42554582291667,40.83650432291667,52.0,93.0
41,40.83650432291667,41.24746282291667,59.0,107.0
42,41.24746282291667,42.891296822916665,57.0,122.0
43,42.891296822916665,43.302255322916665,50.0,93.0
44,43.302255322916665,43.713213822916664,54.0,100.0
45,43.713213822916664,44.124172322916664,50.0,95.0
46,44.124172322916664,44.53513082291666,57.0,102.0
47,44.53513082291666,45.35704782291666,55.0,107.0
48,45.35704782291666,45.76800632291666,52.0,93.0
49,45.76800632291666,46.17896482291666,60.0,102.0
50,46.17896482291666,46.58992332291666,59.0,100.0
51,46.58992332291666,47.00088182291667,55.0,102.0
52,47.00088182291667,47.41184032291667,52.0,92.0
53,47.41184032291667,48.23375732291667,55.0,99.0
54,48.23375732291667,48.84848274583333,57.0,112.0
55,48.85019507291666,49.39300275833333,57.0,102.0
56,49.26115357291666,52.76571582291666,55.0,75.0
57,52.76571582291666,53.17496199583333,60.0,99.0
58,53.17667432291666,53.58763282291666,60.0,112.0
59,53.58763282291666,53.99687899583333,59.0,86.0
60,53.99859132291666,54.46091963541666,59.0,100.0
61,54.40954982291666,56.051671495833325,57.0,93.0
62,56.05338382291666,56.46434232291666,57.0,93.0
63,56.46434232291666,56.87530082291666,62.0,100.0
64,56.87530082291666,57.286259322916656,57.0,97.0
65,57.286259322916656,57.69550549583332,59.0,99.0
66,57.697217822916656,58.35132676874999,59.0,96.0
67,58.108176322916655,59.341051822916654,55.0,96.0
68,59.341051822916654,59.75029799583332,60.0,122.0
69,59.75201032291666,60.16296882291666,60.0,112.0
70,60.16296882291666,60.57221499583332,59.0,86.0
71,60.57392732291666,60.98488582291666,59.0,122.0
72,60.98488582291666,61.39413199583333,57.0,82.0
73,61.39584432291666,61.80680282291666,57.0,100.0
74,61.80680282291666,62.21776132291666,55.0,89.0
75,62.01228207291666,62.21776132291666,57.0,92.0
76,62.21776132291666,63.037965995833325,59.0,112.0
77,63.03967832291666,63.45063682291666,59.0,122.0
78,63.45063682291666,63.859882995833324,60.0,97.0
79,63.861595322916656,64.29481407499999,60.0,117.0
80,64.27255382291666,65.91638782291666,59.0,97.0
81,65.91638782291666,66.32563399583333,64.0,127.0
82,66.32734632291665,66.73659249583332,64.0,112.0
83,66.73830482291666,67.14755099583333,64.0,112.0
84,67.14926332291665,67.56022182291666,64.0,112.0
85,67.56022182291666,67.97118032291665,62.0,100.0
86,67.97118032291665,68.38213882291666,57.0,97.0
87,68.38213882291666,68.79309732291665,60.0,122.0
88,68.79309732291665,69.61501432291666,59.0,117.0
89,69.61501432291666,70.43693132291665,57.0,100.0
90,70.43693132291665,71.87528607291665,56.0,107.0
91,71.87528607291665,72.13555978958333,52.0,85.0
92,72.08076532291665,72.50713476666665,59.0,95.0
93,72.49172382291665,72.90096999583332,55.0,83.0
94,72.90268232291666,74.95747482291665,55.0,83.0
95,74.95747482291665,75.36843332291666,62.0,102.0
96,75.36843332291666,75.77767949583333,59.0,100.0
97,75.77939182291665,76.19035032291666,59.0,74.0
98,76.19035032291666,79.06705982291666,57.0,85.0
99,79.06705982291666,79.47801832291665,52.0,97.0
100,79.47801832291665,79.88897682291665,55.0,100.0
101,79.88897682291665,80.29993532291665,52.0,100.0
102,80.29993532291665,80.71089382291666,59.0,127.0
103,80.71089382291666,82.35472782291666,57.0,127.0
104,82.35472782291666,82.76568632291665,50.0,90.0
105,82.76568632291665,83.17664482291666,54.0,107.0
106,83.17664482291666,83.58760332291665,50.0,96.0
107,83.58760332291665,84.20404107291665,57.0,112.0
108,84.20404107291665,85.64239582291665,55.0,102.0
109,85.64239582291665,86.04837976041665,52.0,92.0
110,86.04837976041665,86.45378526041665,55.0,99.0
111,86.45378526041665,86.65648801041665,52.0,97.0
112,86.65648801041665,87.22405571041665,59.0,100.0
113,87.22405571041665,87.66831257083332,57.0,112.0
114,87.67000176041665,88.07540726041665,57.0,112.0
115,88.07540726041665,88.48081276041665,55.0,97.0
116,88.48081276041665,89.29162376041666,57.0,127.0
117,89.29162376041666,90.10243476041666,62.0,127.0
118,90.10243476041666,92.12946226041666,59.0,117.0
119,92.12946226041666,92.53812999583332,64.0,127.0
120,92.53984232291664,92.94908849583331,64.0,127.0
121,92.95080082291665,93.36004699583332,64.0,100.0
122,93.36175932291664,93.79497807499997,64.0,122.0
123,93.77271782291665,94.59463482291665,62.0,107.0
124,94.59463482291665,95.00559332291664,57.0,122.0
125,95.00559332291664,95.41655182291665,62.0,117.0
126,95.41655182291665,95.82751032291665,57.0,112.0
127,95.82751032291665,96.2367564958333,59.0,107.0
128,96.23846882291664,97.06038582291664,59.0,107.0
129,97.06038582291664,97.96620684999998,55.0,77.0
130,97.88230282291664,98.29326132291665,52.0,97.0
131,98.29326132291665,98.70421982291664,60.0,100.0
132,98.70421982291664,99.11517832291665,59.0,100.0
133,99.11517832291665,99.52613682291664,55.0,117.0
134,99.52613682291664,99.93709532291665,52.0,97.0
135,99.93709532291665,100.75901232291665,55.0,99.0
136,100.75901232291665,101.63743611666665,57.0,99.0
137,101.58092932291665,104.52327699999998,55.0,92.0
138,131.61156382291665,132.02333742499997,60.0,99.0
139,132.02506156249996,132.43885456249996,60.0,112.0
140,132.43885456249996,132.85092342499996,59.0,86.0
141,132.85264756249995,133.31816468749997,59.0,100.0
142,133.26644056249998,134.91988842499995,57.0,93.0
143,134.92161256249997,135.33286632291663,57.0,93.0
144,135.33286632291663,135.74382482291662,62.0,100.0
145,135.74382482291662,136.15478332291661,57.0,97.0
146,136.15478332291661,136.5640294958333,59.0,99.0
147,136.5657418229166,137.21985076874995,59.0,96.0
148,136.97670032291663,138.20957582291663,55.0,96.0
149,138.20957582291663,138.6188219958333,60.0,122.0
150,138.62053432291663,139.03149282291662,60.0,112.0
151,139.03149282291662,139.44073899583327,59.0,86.0
152,139.4424513229166,139.85340982291663,59.0,122.0
153,139.85340982291663,140.26265599583328,57.0,82.0
154,140.26436832291662,140.67532682291662,57.0,100.0
155,140.67532682291662,141.0862853229166,55.0,89.0
156,140.8808060729166,141.0862853229166,57.0,92.0
157,141.0862853229166,141.90648999583328,59.0,112.0
158,141.90820232291662,142.31916082291661,59.0,122.0
159,142.31916082291661,142.7284069958333,60.0,97.0
160,142.7301193229166,143.16333807499996,60.0,117.0
161,143.14107782291663,144.78491182291663,59.0,97.0
162,144.78491182291663,145.19415799583328,64.0,127.0
163,145.19587032291662,145.60511649583327,64.0,112.0
164,145.6068288229166,146.0160749958333,64.0,112.0
165,146.0177873229166,146.42874582291662,64.0,112.0
166,146.42874582291662,146.83970432291662,62.0,100.0
167,146.83970432291662,147.2506628229166,57.0,97.0
168,147.2506628229166,147.66162132291663,60.0,122.0
169,147.66162132291663,148.48353832291662,59.0,117.0
170,148.48353832291662,149.30545532291663,57.0,100.0
171,149.30545532291663,150.74381007291663,56.0,107.0
172,150.74381007291663,151.0040837895833,52.0,85.0
173,150.94928932291663,151.37565876666662,59.0,95.0
174,151.36024782291662,151.76949399583327,55.0,83.0
175,151.7712063229166,153.82599882291663,55.0,83.0
176,153.82599882291663,154.23695732291662,62.0,102.0
177,154.23695732291662,154.64620349583328,59.0,100.0
178,154.64791582291662,155.0588743229166,59.0,74.0
179,155.0588743229166,157.9355838229166,57.0,85.0
180,157.9355838229166,158.3465423229166,52.0,97.0
181,158.3465423229166,158.75750082291663,55.0,100.0
182,158.75750082291663,159.16845932291662,52.0,100.0
183,159.16845932291662,159.5794178229166,59.0,127.0
184,159.5794178229166,161.2232518229166,57.0,127.0
185,161.2232518229166,161.6342103229166,50.0,90.0
186,161.6342103229166,162.04516882291662,54.0,107.0
187,162.04516882291662,162.45612732291661,50.0,96.0
188,162.45612732291661,163.07256507291663,57.0,112.0
189,163.07256507291663,164.5109198229166,55.0,102.0
190,164.5109198229166,164.92187832291663,52.0,92.0
191,164.92187832291663,165.33283682291662,55.0,99.0
192,165.33283682291662,165.53831607291661,52.0,97.0
193,165.53831607291661,166.11365797291663,59.0,100.0
194,166.11365797291663,166.56399999583329,57.0,112.0
195,166.56571232291662,166.97667082291662,57.0,112.0
196,166.97667082291662,167.3876293229166,55.0,97.0
197,167.3876293229166,168.20954632291662,57.0,127.0
198,168.20954632291662,169.0314633229166,62.0,127.0
199,169.0314633229166,171.0862558229166,59.0,117.0
200,171.0862558229166,171.49550199583328,64.0,127.0
201,171.49721432291662,171.90646049583327,64.0,127.0
202,171.9081728229166,172.3174189958333,64.0,100.0
203,172.3191313229166,172.75235007499995,64.0,122.0
204,172.73008982291663,173.5520068229166,62.0,107.0
205,173.5520068229166,173.9629653229166,57.0,122.0
206,173.9629653229166,174.37392382291662,62.0,117.0
207,174.37392382291662,174.78488232291662,57.0,112.0
208,174.78488232291662,175.1941284958333,59.0,107.0
209,175.1958408229166,176.01775782291662,59.0,107.0
210,176.01775782291662,176.92357884999996,55.0,77.0
211,176.8396748229166,177.2506333229166,52.0,97.0
212,177.2506333229166,177.66159182291662,60.0,100.0
213,177.66159182291662,178.0725503229166,59.0,100.0
214,178.0725503229166,178.4835088229166,55.0,117.0
215,178.4835088229166,178.89446732291663,52.0,97.0
216,178.89446732291663,179.7163843229166,55.0,99.0
217,179.7163843229166,180.59480811666663,57.0,99.0
218,180.53830132291662,184.05542115208328,55.0,92.0
219,184.05542115208328,184.56569462291662,52.0,70.0
220,184.56569462291662,185.03658457083327,60.0,102.0
221,185.03658457083327,185.55713200416662,59.0,117.0
222,185.55713200416662,186.09651503541662,55.0,100.0
223,186.09651503541662,186.61363781458329,52.0,96.0
224,186.61363781458329,187.57596563541662,55.0,96.0
225,187.57596563541662,188.2386362166666,57.0,107.0
226,188.2386362166666,189.36705976458327,55.0,97.0
227,189.3687720916666,193.32082299999996,55.0,89.0
