,start,end,pitch,velocity
0,12.873243291666666,14.453101875,48.0,79.0
1,14.123241291666666,14.585046108333332,60.0,90.0
2,13.289909291666666,14.588518324999999,55.0,64.0
3,13.706575291666667,14.611087733333333,67.0,90.0
4,14.956573291666666,15.451364166666666,57.0,64.0
5,14.539907291666665,15.727405391666666,50.0,76.0
6,15.373239291666666,16.23087680833333,66.0,97.0
7,15.789905291666665,16.305529466666666,62.0,62.0
8,16.206571291666666,17.098930975,47.0,72.0
9,16.623237291666666,17.161430875,59.0,69.0
10,17.039903291666665,17.848929775,66.0,117.0
11,17.456569291666664,17.880179724999998,59.0,81.0
12,17.873235291666667,19.06420560833333,40.0,74.0
13,18.289901291666666,19.076358366666664,47.0,65.0
14,18.706567291666666,19.461774416666668,52.0,63.0
15,19.123233291666665,19.55205205,59.0,69.0
16,18.706567291666666,19.583302,64.0,74.0
17,19.956565291666667,20.73955015,52.0,75.0
18,19.539899291666664,20.852135597916664,45.0,85.0
19,20.373231291666666,21.139806547916663,64.0,95.0
20,20.789897291666666,21.15864214583333,60.0,81.0
21,21.201450322916664,21.668915616666663,50.0,78.0
22,21.612408822916663,22.49939425208333,57.0,73.0
23,22.023367322916663,22.838435014583332,66.0,102.0
24,22.434325822916666,22.8880925,62.0,61.0
25,22.639805072916666,22.896654135416664,57.0,71.0
26,23.667201322916664,24.03535164583333,55.0,88.0
27,22.845284322916665,24.41035127708333,43.0,73.0
28,23.256242822916665,24.531926499999997,50.0,55.0
29,24.489118322916664,25.809661662499998,43.0,69.0
30,24.078159822916664,25.982359099999996,59.0,63.0
31,24.489118322916664,25.985648574999995,55.0,43.0
32,23.872680572916664,26.082688087499996,62.0,35.0
33,26.480714562499998,27.045970799999996,55.0,60.0
34,26.0859775625,27.1425225,48.0,85.0
35,26.892522562499998,27.571832737499996,67.0,95.0
36,27.306315562499996,27.682177537499996,60.0,89.0
37,27.7201085625,28.5770049,50.0,86.0
38,29.168384062499996,29.258039212499998,54.0,31.0
39,28.133901562499997,29.370108149999997,57.0,72.0
40,28.5476945625,29.445970199999998,66.0,117.0
41,28.961487562499997,29.532177074999996,62.0,59.0
42,29.789073562499997,30.259763099999997,54.0,73.0
43,29.3752805625,30.406314787499998,47.0,82.0
44,30.2028665625,30.999418087499997,66.0,122.0
45,30.616659562499997,31.021831874999997,59.0,90.0
46,31.030452562499995,32.3252089625,40.0,95.0
47,31.444245562499997,32.34404456041666,47.0,53.0
48,32.2718315625,32.677948341666664,55.0,90.0
49,31.8580385625,32.7567153875,64.0,72.0
50,33.09404382291667,33.6402761625,52.0,77.0
51,32.68308532291667,34.22760435208333,45.0,77.0
52,33.50500232291667,34.316645360416665,64.0,93.0
53,33.91596082291667,34.325206995833334,60.0,78.0
54,34.326919322916666,35.1197267625,50.0,96.0
55,34.737877822916666,35.27726085416666,57.0,82.0
56,35.148836322916665,35.8799999875,66.0,122.0
57,35.559794822916665,35.981027285416666,62.0,75.0
58,36.79267032291666,37.781437,55.0,92.0
59,37.20362882291666,38.399770333333336,59.0,86.0
60,37.604770333333335,38.41977033333333,65.0,95.0
61,38.00477033333333,38.51477033333333,55.0,83.0
62,36.381711822916664,38.546437,50.0,65.0
63,38.604770333333335,38.93310366666667,50.0,70.0
64,35.970753322916664,39.03310366666667,43.0,93.0
65,38.40477033333333,39.178103666666665,62.0,127.0
66,38.80477033333333,39.244770333333335,59.0,90.0
67,39.204770333333336,40.17897072291667,48.0,95.0
68,39.604770333333335,40.28855965625,55.0,82.0
69,40.01458732291667,40.790271491666665,64.0,96.0
70,40.42554582291667,40.80397010833333,60.0,88.0
71,41.24746282291667,41.990612777083335,57.0,83.0
72,40.83650432291667,42.09677705625,50.0,99.0
73,41.658421322916666,42.487187631249995,66.0,117.0
74,42.069379822916666,42.51800951875,62.0,77.0
75,42.891296822916665,43.46663872291666,54.0,74.0
76,42.480338322916666,43.5402687875,47.0,89.0
77,43.713213822916664,44.117323014583334,59.0,89.0
78,43.302255322916665,44.16526817291667,66.0,122.0
79,44.124172322916664,45.34506153333333,40.0,90.0
80,44.53513082291666,45.3484861875,47.0,56.0
81,44.94608932291666,45.46321210208333,52.0,45.0
82,45.35704782291666,45.726910472916664,59.0,92.0
83,44.94608932291666,45.8210884625,64.0,92.0
84,46.17896482291666,46.682388985416665,52.0,71.0
85,45.76800632291666,47.187525475,45.0,78.0
86,46.58992332291666,47.39814170625,64.0,107.0
87,47.00088182291667,47.410127995833335,60.0,83.0
88,47.82279882291667,48.302250406249996,57.0,74.0
89,47.41184032291667,48.39985305,50.0,100.0
90,48.644715822916666,49.04368803333333,57.0,82.0
91,48.23375732291667,49.062523631249995,66.0,100.0
92,48.23375732291667,49.08478388333333,62.0,90.0
93,49.055674322916666,50.586494735416665,43.0,83.0
94,49.877591322916665,50.699508322916664,55.0,93.0
95,49.466632822916665,50.71320693958333,50.0,66.0
96,50.288549822916664,51.42758011666666,59.0,81.0
97,51.11046682291666,51.44667730833333,65.0,88.0
98,51.11046682291666,51.45535784999999,62.0,86.0
99,51.52653829166666,51.727926858333326,55.0,85.0
100,50.699508322916664,51.910218233333325,43.0,88.0
101,51.11046682291666,51.91716266666666,50.0,51.0
102,51.52653829166666,52.322223108333326,62.0,97.0
103,51.52653829166666,52.32736008958332,65.0,117.0
104,51.94320429166666,52.36331895833332,59.0,100.0
105,52.76571582291666,53.25201671458333,48.0,79.0
106,52.97119507291666,53.32393445208333,55.0,81.0
107,53.38215357291666,53.56879722499999,48.0,86.0
108,52.35475732291666,53.878728427083324,36.0,97.0
109,53.58763282291666,53.91126264166666,60.0,95.0
110,53.17667432291666,53.91982427708332,64.0,102.0
111,52.56023657291666,53.94550918333333,43.0,72.0
112,53.79311207291666,54.046536481249994,55.0,95.0
113,54.40954982291666,54.88215209791666,50.0,79.0
114,54.615029072916656,54.947220527083324,57.0,100.0
115,54.204070572916656,55.06537109583333,45.0,70.0
116,53.99859132291666,55.08249436666666,38.0,85.0
117,55.025987572916655,55.18694631874999,50.0,81.0
118,54.82050832291666,55.55509664166666,66.0,127.0
119,55.23146682291666,55.58420620208332,62.0,99.0
120,55.436946072916655,55.640712995833326,57.0,82.0
121,56.05338382291666,56.34790408124999,59.0,82.0
122,56.25886307291666,56.471191631249994,62.0,99.0
123,55.84790457291666,56.55680798541666,54.0,82.0
124,56.66982157291666,56.78283516041666,54.0,96.0
125,55.64242532291666,56.84276660833333,47.0,85.0
126,56.46434232291666,57.04310887708333,66.0,107.0
127,56.87530082291666,57.13899919374999,62.0,97.0
128,57.08078007291666,57.35304007916666,59.0,97.0
129,57.697217822916656,58.188655695833326,52.0,89.0
130,57.90269707291666,58.22461456458333,59.0,99.0
131,57.286259322916656,58.46947733749999,40.0,83.0
132,57.49173857291666,58.48146362708332,47.0,76.0
133,58.31365557291666,58.61331281249999,52.0,79.0
134,58.108176322916655,58.878723510416656,67.0,112.0
135,58.519134822916655,58.90098376249999,64.0,96.0
136,58.72461407291666,58.94550426666666,59.0,96.0
137,59.341051822916654,59.54653107291666,57.0,86.0
138,59.54653107291666,59.772558247916656,60.0,100.0
139,59.13557257291666,59.86502391041666,52.0,72.0
140,59.95748957291666,60.06536617916666,52.0,78.0
141,58.93009332291666,60.14413322499999,45.0,76.0
142,59.75201032291666,60.42153021249999,64.0,100.0
143,60.16296882291666,60.43351650208332,60.0,112.0
144,60.36844807291666,60.62529713541666,57.0,99.0
145,60.98488582291666,61.44892646249999,50.0,89.0
146,61.190365072916656,61.52084419999999,57.0,96.0
147,60.57392732291666,61.77255628124999,38.0,92.0
148,60.779406572916656,61.77255628124999,45.0,83.0
149,61.601323572916655,61.85132332708332,50.0,96.0
150,61.39584432291666,61.99858345624999,66.0,127.0
151,61.80680282291666,62.162966856249994,62.0,97.0
152,62.01228207291666,62.19378874374999,57.0,97.0
153,62.83419907291666,63.03111668749999,59.0,97.0
154,62.62871982291666,63.08591115416666,55.0,93.0
155,63.24515757291665,63.368445122916654,55.0,92.0
156,63.03967832291666,63.46776009374999,62.0,117.0
157,62.21776132291666,63.659540727083325,43.0,75.0
158,63.65611607291666,63.772554314583324,65.0,96.0
159,62.423240572916654,63.85303368749999,50.0,88.0
160,63.45063682291666,64.36673181249999,59.0,97.0
161,63.861595322916656,64.39241671874998,65.0,117.0
162,64.27255382291666,64.60645760416665,55.0,99.0
163,64.06707457291665,64.75200540624999,50.0,86.0
164,64.47803307291666,64.79310125625,59.0,85.0
165,64.88899157291665,65.034539375,50.0,92.0
166,63.861595322916656,65.04310101041666,43.0,93.0
167,64.68351232291666,65.18693648541665,62.0,122.0
168,65.09447082291666,65.4763197625,59.0,99.0
169,65.29995007291666,65.50200466874999,65.0,107.0
170,65.91638782291666,66.37871613541665,48.0,93.0
171,66.12186707291666,66.40611336874998,55.0,95.0
172,66.53282557291666,66.72631853333333,48.0,92.0
173,65.50542932291665,67.03967438958333,36.0,93.0
174,66.73830482291666,67.08248256666666,60.0,66.0
175,66.32734632291665,67.13385237916665,64.0,100.0
176,65.71090857291665,67.13898936041666,43.0,72.0
177,66.94378407291666,67.16296193958333,55.0,99.0
178,67.56022182291666,68.03967340624999,50.0,93.0
179,67.76570107291666,68.08248158333332,57.0,102.0
180,67.35474257291665,68.25542661875,45.0,82.0
181,67.14926332291665,68.26227592708332,38.0,85.0
182,68.17665957291666,68.38556347708332,50.0,81.0
183,68.38213882291666,68.64241253958332,57.0,102.0
184,67.97118032291665,68.73830285624999,66.0,127.0
185,68.58761807291665,68.81022059374999,62.0,100.0
186,69.40953507291665,69.57049381875,62.0,100.0
187,69.20405582291666,69.60987734166666,59.0,90.0
188,68.99857657291666,69.67665809791666,54.0,97.0
189,69.82049357291666,69.91809621666665,54.0,93.0
190,68.79309732291665,69.95063043124999,47.0,85.0
191,69.61501432291666,70.31878075416665,66.0,127.0
192,70.02597282291666,70.35987660416666,62.0,97.0
193,70.23145207291665,70.42494503333333,59.0,99.0
194,71.05336907291665,71.34446467708332,56.0,88.0
195,70.84788982291666,71.36672492916665,52.0,77.0
196,70.43693132291665,71.5996014125,40.0,82.0
197,70.64241057291666,71.63042329999999,47.0,81.0
198,71.46432757291666,71.86158745624999,52.0,76.0
199,71.66980682291666,71.96603940833333,56.0,86.0
200,71.25884832291666,72.06021739791666,64.0,82.0
201,71.87528607291665,72.07391601458332,59.0,63.0
202,72.49172382291665,72.74001124999998,57.0,90.0
203,72.28624457291666,73.01398358333333,52.0,72.0
204,72.90268232291666,73.39240786874998,60.0,92.0
205,72.08076532291665,73.55507894166666,45.0,77.0
206,72.69720307291666,73.58761315624999,64.0,92.0
207,73.31364082291665,73.59103781041665,57.0,82.0
208,73.10816157291666,73.69720208958333,52.0,56.0
209,73.51912007291665,73.74001026666666,60.0,63.0
210,74.34103707291666,74.55165330416665,60.0,67.0
211,74.13555782291665,74.59617380833332,57.0,59.0
212,73.93007857291666,74.59959846249998,52.0,82.0
213,74.75199557291666,74.88726941249999,52.0,82.0
214,73.72459932291666,74.91466664583332,45.0,74.0
215,74.95747482291665,75.27939231458332,60.0,76.0
216,74.54651632291666,75.27939231458332,64.0,97.0
217,75.16295407291665,75.36329634166665,57.0,83.0
218,75.77939182291665,76.24856944374999,50.0,100.0
219,75.98487107291666,76.33247347083332,57.0,95.0
220,76.39582957291665,76.57562391666666,50.0,102.0
221,76.19035032291666,76.66466492499998,66.0,127.0
222,76.60130882291665,76.77596618541665,57.0,100.0
223,75.36843332291666,76.87870581041665,38.0,89.0
224,76.80678807291666,76.90781537083332,62.0,97.0
225,76.80678807291666,76.91466467916666,66.0,117.0
226,76.80678807291666,76.92151398749999,57.0,60.0
227,75.57391257291665,77.00713034166665,45.0,96.0
228,77.01226732291666,77.47630796249999,57.0,99.0
229,77.01226732291666,77.52767777499999,62.0,107.0
230,77.01226732291666,77.63041739999998,66.0,122.0
231,77.62870507291666,77.78966381874999,57.0,93.0
232,77.42322582291666,77.92664998541666,50.0,96.0
233,78.03966357291665,78.15267716041666,50.0,93.0
234,77.21774657291665,78.16295112291665,45.0,97.0
235,77.01226732291666,78.17664973958333,38.0,95.0
236,77.83418432291666,78.28452634583331,62.0,102.0
237,77.83418432291666,78.54651238958333,66.0,127.0
238,78.45062207291666,78.60473151041666,62.0,97.0
239,78.24514282291665,78.62870408958332,57.0,107.0
240,79.06705982291666,79.54993606041666,48.0,95.0
241,79.27253907291666,79.56877165833332,55.0,93.0
242,78.86158057291665,79.7982234875,43.0,72.0
243,78.65610132291665,79.83418235624998,36.0,89.0
244,79.68349757291665,79.86157958958333,48.0,96.0
245,79.88897682291665,80.19034638958333,60.0,107.0
246,79.47801832291665,80.20918198749999,64.0,112.0
247,80.09445607291666,80.31534626666665,55.0,100.0
248,80.71089382291666,81.17150980833333,50.0,99.0
249,80.91637307291666,81.22116729374999,57.0,97.0
250,80.29993532291665,81.40952327291666,38.0,96.0
251,80.50541457291666,81.41466025416665,45.0,88.0
252,81.32733157291665,81.45746843124999,50.0,99.0
253,81.12185232291665,81.88041322083332,66.0,127.0
254,81.53281082291666,81.89411183749999,62.0,95.0
255,81.73829007291666,81.93178303333332,57.0,89.0
256,82.35472782291666,82.61671386666666,59.0,83.0
257,82.56020707291665,82.74342607083332,62.0,99.0
258,82.14924857291666,82.84787802291666,54.0,90.0
259,82.97116557291665,83.07219287083332,54.0,83.0
260,81.94376932291665,83.12698733749998,47.0,77.0
261,82.76568632291665,83.23828859791665,66.0,107.0
262,83.17664482291666,83.43178155833331,62.0,99.0
263,83.38212407291665,83.64582244374999,59.0,93.0
264,83.99856182291666,84.49856133124999,52.0,72.0
265,84.20404107291665,84.50369831249998,59.0,90.0
266,83.58760332291665,84.71773919791666,40.0,72.0
267,83.79308257291666,84.76397202916665,47.0,73.0
268,84.61499957291664,84.84787605624999,52.0,88.0
269,84.82047882291666,85.15267027708333,64.0,79.0
270,84.40952032291665,85.15951958541666,67.0,102.0
271,85.02595807291665,85.2228756875,59.0,77.0
272,85.64239582291665,85.83723106249998,57.0,73.0
273,85.84567701041665,86.08385274166665,60.0,83.0
274,85.43691657291666,86.14973113541666,52.0,51.0
275,86.25108251041665,86.36256902291665,52.0,78.0
276,85.23143732291666,86.41831227916666,45.0,70.0
277,86.45378526041665,86.71054207708332,60.0,97.0
278,86.04837976041665,86.75446100624998,64.0,100.0
279,86.65648801041665,86.90142049999999,57.0,107.0
280,87.26459626041665,87.68013689791665,50.0,89.0
281,87.46729901041665,87.79669097916666,57.0,90.0
282,86.85919076041665,87.95885317916665,38.0,75.0
283,87.06189351041665,87.98588021249998,45.0,74.0
284,87.87270451041665,88.13452889583331,50.0,81.0
285,87.67000176041665,88.33554245624998,66.0,112.0
286,88.27811001041665,88.46054248541665,57.0,88.0
287,88.07540726041665,88.46054248541665,62.0,79.0
288,89.08892101041666,89.30175889791666,59.0,96.0
289,88.88621826041665,89.31527241458332,55.0,85.0
290,89.49432651041666,89.64466438333332,55.0,85.0
291,89.29162376041666,89.69702926041666,62.0,107.0
292,88.48081276041665,89.93689418124998,43.0,70.0
293,89.89973201041666,89.99770500624999,65.0,76.0
294,88.68351551041665,90.09905638124998,50.0,52.0
295,89.69702926041666,90.42506997083332,59.0,92.0
296,90.10243476041666,90.69027273541666,65.0,96.0
297,90.50784026041666,90.77304302499998,55.0,89.0
298,90.30513751041666,90.96561063749999,50.0,82.0
299,90.71054301041666,90.99939442916666,59.0,82.0
300,90.10243476041666,91.25108367708332,43.0,95.0
301,91.11594851041666,91.26966476249999,50.0,85.0
302,90.91324576041666,91.56865131874999,65.0,112.0
303,91.31865126041666,91.60412429999998,62.0,117.0
304,91.52135401041666,91.72912432916665,59.0,102.0
305,92.33436307291664,92.56895188333331,55.0,89.0
306,92.12946226041666,92.58436282708331,48.0,81.0
307,91.72405676041666,92.84634887083331,36.0,82.0
308,91.92675951041664,92.85148585208331,43.0,73.0
309,92.74532157291665,92.98675969166665,48.0,86.0
310,92.95080082291665,93.25901969791664,55.0,96.0
311,92.53984232291664,93.29840322083331,64.0,99.0
312,93.15628007291664,93.31210183749998,60.0,100.0
313,93.77271782291665,94.25045707916665,50.0,88.0
314,93.97819707291664,94.31895016249997,57.0,90.0
315,93.56723857291665,94.48847054374998,45.0,83.0
316,93.36175932291664,94.49874450624998,38.0,85.0
317,94.38915557291665,94.53641570208332,50.0,88.0
318,94.59463482291665,94.8549085395833,57.0,99.0
319,94.18367632291664,94.95422351041664,66.0,122.0
320,94.80011407291664,95.00730564999998,62.0,102.0
321,95.41655182291665,95.66312692291665,59.0,89.0
322,95.62203107291664,95.81552403333332,62.0,99.0
323,95.21107257291665,95.93367460208331,54.0,85.0
324,96.03298957291665,96.14600316041664,54.0,86.0
325,95.00559332291664,96.21278391666664,47.0,85.0
326,95.82751032291665,96.41312618541664,66.0,117.0
327,96.23846882291664,96.48504392291665,62.0,97.0
328,96.44394807291664,96.70593411666664,59.0,95.0
329,97.06038582291664,97.5518236958333,52.0,85.0
330,97.26586507291664,97.57750860208331,59.0,92.0
331,96.64942732291665,97.81038508541664,40.0,76.0
332,96.85490657291665,97.8138097395833,47.0,79.0
333,97.67682357291665,97.83949464583331,52.0,96.0
334,97.88230282291664,98.20764496874997,64.0,82.0
335,97.47134432291665,98.22134358541665,67.0,117.0
336,98.08778207291664,98.29668597708331,59.0,90.0
337,98.70421982291664,98.93538397916664,57.0,86.0
338,98.90969907291665,99.13572624791665,60.0,95.0
339,98.49874057291665,99.14086322916664,52.0,65.0
340,99.32065757291664,99.42339719791664,52.0,56.0
341,98.29326132291665,99.46963002916664,45.0,69.0
342,99.52613682291664,99.82921871666665,60.0,77.0
343,99.11517832291665,99.85319129583331,64.0,95.0
344,99.73161607291664,99.92853368749998,57.0,82.0
345,100.55353307291665,100.8959984895833,57.0,82.0
346,99.93709532291665,101.08777912291664,38.0,74.0
347,100.14257457291664,101.10147773958332,45.0,76.0
348,100.34805382291664,101.31038164374998,50.0,86.0
349,101.16997082291664,101.56380605208331,62.0,64.0
350,101.37545007291665,101.58092932291665,57.0,73.0
351,100.75901232291665,101.62202517291664,66.0,112.0
352,101.99188782291664,102.43880519166665,55.0,82.0
353,102.19736707291665,102.49188733124998,59.0,74.0
354,102.60832557291664,102.77613362708331,55.0,79.0
355,102.40284632291664,103.04932102499998,62.0,100.0
356,103.02154329166665,103.04932102499998,62.0,33.0
357,101.58092932291665,103.06841821666664,43.0,60.0
358,101.78640857291664,103.20383466666665,50.0,69.0
359,103.22987629166664,104.28543015833331,43.0,64.0
360,103.02154329166665,104.80279044166664,67.0,83.0
361,102.81380482291664,104.90695694166665,59.0,82.0
362,104.89654029166665,106.39971218749997,36.0,82.0
363,105.31320629166665,106.53591904999998,43.0,58.0
364,106.14109156249998,106.56178111249997,55.0,96.0
365,105.72729856249998,106.56350524999998,64.0,107.0
366,106.55488456249998,107.53419466249997,38.0,89.0
367,106.96867756249998,107.54109121249998,45.0,89.0
368,106.96867756249998,107.67212566249998,57.0,82.0
369,107.38247056249998,108.23591862499998,66.0,127.0
370,107.79626356249997,108.30315998749998,62.0,112.0
371,109.03764256249998,109.08074599999998,62.0,76.0
372,108.62384956249998,109.28936663749998,54.0,97.0
373,108.21005656249997,109.51695278749997,47.0,90.0
374,109.45143556249998,109.86350442499997,62.0,88.0
375,109.03764256249998,109.87040097499998,66.0,127.0
376,109.65833206249998,109.97729749999998,59.0,88.0
377,109.86522856249998,111.01695241249998,40.0,74.0
378,110.27902156249998,111.04971102499998,47.0,72.0
379,110.69281456249998,111.14281444999997,52.0,88.0
380,110.89971106249997,111.19109029999998,64.0,93.0
381,111.31350406249997,111.56177986249998,64.0,67.0
382,110.69281456249998,111.57212468749998,67.0,127.0
383,111.10660756249997,111.57729709999998,59.0,93.0
384,111.93419356249998,112.41350378749998,52.0,75.0
385,111.52040056249997,112.67729682499998,45.0,75.0
386,112.55488306249998,112.68591751249998,52.0,72.0
387,112.76177956249998,113.09453809999998,60.0,88.0
388,112.34798656249998,113.15143463749997,64.0,100.0
389,112.96867606249998,113.18936566249998,57.0,67.0
390,113.17557256249998,114.25833091249999,38.0,74.0
391,113.58936556249998,114.28936538749998,45.0,58.0
392,114.00315856249998,114.59453772499998,50.0,81.0
393,114.00315856249998,114.67039977499998,66.0,127.0
394,114.41695156249997,115.12212379999998,62.0,97.0
395,116.07212356249998,116.42384761249998,55.0,99.0
396,114.83074456249997,116.71695098749998,43.0,86.0
397,115.24453756249997,116.86005439999998,50.0,81.0
398,116.48591656249998,117.00315781249998,65.0,107.0
399,116.48591656249998,117.03591642499998,62.0,99.0
400,115.65833056249998,117.31522669999998,59.0,117.0
401,117.52039906249998,117.75660589999998,50.0,99.0
402,116.89970956249998,117.76350244999998,43.0,95.0
403,117.31350256249998,118.05832996249998,65.0,127.0
404,117.72729556249998,118.09281271249998,62.0,117.0
405,117.93419206249997,118.15832993749999,59.0,99.0
406,118.14108856249997,119.60536534374998,36.0,83.0
407,118.55488156249999,119.76974874374997,43.0,79.0
408,119.38246756249998,119.78858434166665,60.0,93.0
409,118.96867456249998,119.81426924791664,64.0,112.0
410,119.79372132291664,120.82519083749997,38.0,92.0
411,120.20467982291665,120.90627193749998,45.0,58.0
412,120.20467982291665,120.91471788541664,57.0,90.0
413,120.61066376041664,121.44681260416664,66.0,127.0
414,121.21877201041664,121.45019098333331,57.0,81.0
415,121.01606926041664,121.45019098333331,62.0,85.0
416,121.82688026041664,122.41471823541664,54.0,78.0
417,121.42147476041664,122.50086690416664,47.0,79.0
418,122.23228576041664,122.85221833749998,66.0,127.0
419,122.63769126041664,122.96201566041664,62.0,90.0
420,122.84039401041665,123.09884001666664,59.0,90.0
421,123.44850226041665,123.94850237708332,47.0,86.0
422,123.04309676041665,124.20357000416664,40.0,81.0
423,124.05661051041665,124.24242136458331,47.0,69.0
424,124.25931326041665,124.64782686458331,64.0,83.0
425,123.85390776041665,124.65965119166664,67.0,122.0
426,124.46201601041665,124.7137052583333,59.0,93.0
427,125.07012426041665,125.5599892395833,52.0,66.0
428,124.66471876041665,125.64951628749998,45.0,90.0
429,125.88093526041665,126.21201641874998,60.0,93.0
430,125.47552976041665,126.25086777916664,64.0,107.0
431,126.69174626041664,127.23228692708331,45.0,62.0
432,126.28634076041664,127.27282747708331,38.0,90.0
433,127.09715176041664,127.97971807916663,62.0,83.0
434,127.09715176041664,127.9882797145833,66.0,97.0
435,128.32389582291663,128.95574451666664,50.0,86.0
436,128.73485432291665,129.29478527916663,55.0,77.0
437,129.55677132291663,130.70916744999997,55.0,73.0
438,130.78964682291664,131.1680711083333,55.0,66.0
439,127.91293732291663,131.20060532291663,43.0,83.0
440,129.14581282291664,131.20060532291663,50.0,58.0
441,129.55677132291663,131.20060532291663,59.0,83.0
442,128.73485432291665,131.20060532291663,62.0,100.0
443,131.61156382291665,132.10092361249997,48.0,79.0
444,131.81816506249996,132.17333738749997,55.0,81.0
445,132.23195806249996,132.41988904999997,48.0,86.0
446,131.20060532291663,132.73195793749997,36.0,97.0
447,132.43885456249996,132.76471654999997,60.0,95.0
448,132.02506156249996,132.77333723749996,64.0,102.0
449,131.40608457291663,132.79919929999997,43.0,72.0
450,132.64575106249995,132.90092341249996,55.0,95.0
451,133.26644056249998,133.74230251249998,50.0,79.0
452,133.47333706249998,133.80781973749995,57.0,100.0
453,133.05954406249998,133.92678522499997,45.0,70.0
454,132.85264756249995,133.94402659999997,38.0,85.0
455,133.88713006249998,134.04919898749998,50.0,81.0
456,133.68023356249998,134.41988854999997,66.0,127.0
457,134.09402656249998,134.44919888749996,62.0,99.0
458,134.30092306249998,134.50609542499996,57.0,82.0
459,134.92161256249997,135.21642808124994,59.0,82.0
460,135.12738707291663,135.33971563124996,62.0,99.0
461,134.71471606249997,135.42533198541662,54.0,82.0
462,135.53834557291663,135.65135916041663,54.0,96.0
463,134.50781956249998,135.7112906083333,47.0,85.0
464,135.33286632291663,135.9116328770833,66.0,107.0
465,135.74382482291662,136.00752319374996,62.0,97.0
466,135.94930407291662,136.22156407916663,59.0,97.0
467,136.5657418229166,137.0571796958333,52.0,89.0
468,136.77122107291663,137.09313856458328,59.0,99.0
469,136.15478332291661,137.33800133749995,40.0,83.0
470,136.3602625729166,137.3499876270833,47.0,76.0
471,137.18217957291662,137.48183681249995,52.0,79.0
472,136.97670032291663,137.74724751041663,67.0,112.0
473,137.38765882291662,137.76950776249996,64.0,96.0
474,137.59313807291662,137.8140282666666,59.0,96.0
475,138.20957582291663,138.41505507291663,57.0,86.0
476,138.41505507291663,138.64108224791661,60.0,100.0
477,138.0040965729166,138.73354791041663,52.0,72.0
478,138.82601357291662,138.9338901791666,52.0,78.0
479,137.7986173229166,139.01265722499994,45.0,76.0
480,138.62053432291663,139.29005421249994,64.0,100.0
481,139.03149282291662,139.3020405020833,60.0,112.0
482,139.23697207291661,139.49382113541662,57.0,99.0
483,139.85340982291663,140.31745046249995,50.0,89.0
484,140.05888907291663,140.38936819999995,57.0,96.0
485,139.4424513229166,140.64108028124994,38.0,92.0
486,139.6479305729166,140.64108028124994,45.0,83.0
487,140.46984757291662,140.71984732708327,50.0,96.0
488,140.26436832291662,140.86710745624995,66.0,127.0
489,140.67532682291662,141.03149085624995,62.0,97.0
490,140.8808060729166,141.06231274374994,57.0,97.0
491,141.70272307291663,141.89964068749995,59.0,97.0
492,141.49724382291663,141.95443515416662,55.0,93.0
493,142.11368157291662,142.2369691229166,55.0,92.0
494,141.90820232291662,142.33628409374995,62.0,117.0
495,141.0862853229166,142.5280647270833,43.0,75.0
496,142.5246400729166,142.6410783145833,65.0,96.0
497,141.2917645729166,142.72155768749994,50.0,88.0
498,142.31916082291661,143.23525581249996,59.0,97.0
499,142.7301193229166,143.26094071874996,65.0,117.0
500,143.14107782291663,143.47498160416663,55.0,99.0
501,142.93559857291663,143.62052940624994,50.0,86.0
502,143.34655707291662,143.66162525624995,59.0,85.0
503,143.75751557291662,143.90306337499996,50.0,92.0
504,142.7301193229166,143.91162501041663,43.0,93.0
505,143.55203632291662,144.05546048541663,62.0,122.0
506,143.9629948229166,144.34484376249995,59.0,99.0
507,144.1684740729166,144.37052866874996,65.0,107.0
508,144.78491182291663,145.24724013541663,48.0,93.0
509,144.99039107291662,145.27463736874995,55.0,95.0
510,145.40134957291662,145.5948425333333,48.0,92.0
511,144.3739533229166,145.90819838958328,36.0,93.0
512,145.6068288229166,145.95100656666662,60.0,66.0
513,145.19587032291662,146.0023763791666,64.0,100.0
514,144.57943257291663,146.00751336041662,43.0,72.0
515,145.8123080729166,146.0314859395833,55.0,99.0
516,146.42874582291662,146.90819740624994,50.0,93.0
517,146.63422507291662,146.95100558333328,57.0,102.0
518,146.22326657291663,147.12395061874994,45.0,82.0
519,146.0177873229166,147.13079992708327,38.0,85.0
520,147.0451835729166,147.2540874770833,50.0,81.0
521,147.2506628229166,147.51093653958327,57.0,102.0
522,146.83970432291662,147.60682685624994,66.0,127.0
523,147.4561420729166,147.67874459374994,62.0,100.0
524,148.27805907291662,148.43901781874996,62.0,100.0
525,148.07257982291662,148.47840134166663,59.0,90.0
526,147.86710057291663,148.5451820979166,54.0,97.0
527,148.6890175729166,148.78662021666662,54.0,93.0
528,147.66162132291663,148.81915443124996,47.0,85.0
529,148.48353832291662,149.18730475416663,66.0,127.0
530,148.8944968229166,149.2284006041666,62.0,97.0
531,149.0999760729166,149.29346903333328,59.0,99.0
532,149.92189307291662,150.21298867708327,56.0,88.0
533,149.71641382291662,150.23524892916663,52.0,77.0
534,149.30545532291663,150.46812541249994,40.0,82.0
535,149.51093457291663,150.49894729999994,47.0,81.0
536,150.3328515729166,150.73011145624994,52.0,76.0
537,150.5383308229166,150.83456340833328,56.0,86.0
538,150.1273723229166,150.9287413979166,64.0,82.0
539,150.74381007291663,150.94244001458327,59.0,63.0
540,151.36024782291662,151.60853524999996,57.0,90.0
541,151.15476857291662,151.88250758333328,52.0,72.0
542,151.7712063229166,152.26093186874994,60.0,92.0
543,150.94928932291663,152.42360294166662,45.0,77.0
544,151.56572707291662,152.45613715624995,64.0,92.0
545,152.1821648229166,152.45956181041663,57.0,82.0
546,151.9766855729166,152.56572608958328,52.0,56.0
547,152.38764407291663,152.60853426666662,60.0,63.0
548,153.2095610729166,153.42017730416663,60.0,67.0
549,153.00408182291662,153.46469780833328,57.0,59.0
550,152.79860257291662,153.46812246249996,52.0,82.0
551,153.6205195729166,153.75579341249994,52.0,82.0
552,152.59312332291663,153.7831906458333,45.0,74.0
553,153.82599882291663,154.14791631458328,60.0,76.0
554,153.4150403229166,154.14791631458328,64.0,97.0
555,154.03147807291663,154.2318203416666,57.0,83.0
556,154.64791582291662,155.11709344374995,50.0,100.0
557,154.8533950729166,155.20099747083327,57.0,95.0
558,155.2643535729166,155.44414791666662,50.0,102.0
559,155.0588743229166,155.53318892499996,66.0,127.0
560,155.46983282291663,155.64449018541663,57.0,100.0
561,154.23695732291662,155.74722981041663,38.0,89.0
562,155.67531207291663,155.77633937083328,62.0,97.0
563,155.67531207291663,155.7831886791666,66.0,117.0
564,155.67531207291663,155.79003798749994,57.0,60.0
565,154.44243657291662,155.87565434166663,45.0,96.0
566,155.88079132291662,156.34483196249994,57.0,99.0
567,155.88079132291662,156.39620177499995,62.0,107.0
568,155.88079132291662,156.49894139999995,66.0,122.0
569,156.4972290729166,156.65818781874995,57.0,93.0
570,156.29174982291661,156.79517398541662,50.0,96.0
571,156.90818757291663,157.0212011604166,50.0,93.0
572,156.08627057291662,157.03147512291662,45.0,97.0
573,155.88079132291662,157.04517373958328,38.0,95.0
574,156.7027083229166,157.1530503458333,62.0,102.0
575,156.7027083229166,157.4150363895833,66.0,127.0
576,157.31914607291662,157.4732555104166,62.0,97.0
577,157.11366682291663,157.49722808958327,57.0,107.0
578,157.9355838229166,158.4184600604166,48.0,95.0
579,158.1410630729166,158.43729565833328,55.0,93.0
580,157.73010457291662,158.66674748749995,43.0,72.0
581,157.52462532291662,158.70270635624996,36.0,89.0
582,158.5520215729166,158.73010358958328,48.0,96.0
583,158.75750082291663,159.0588703895833,60.0,107.0
584,158.3465423229166,159.07770598749994,64.0,112.0
585,158.96298007291662,159.18387026666662,55.0,100.0
586,159.5794178229166,160.04003380833328,50.0,99.0
587,159.7848970729166,160.08969129374995,57.0,97.0
588,159.16845932291662,160.2780472729166,38.0,96.0
589,159.37393857291661,160.28318425416663,45.0,88.0
590,160.19585557291663,160.32599243124994,50.0,99.0
591,159.99037632291663,160.74893722083328,66.0,127.0
592,160.40133482291662,160.76263583749994,62.0,95.0
593,160.60681407291662,160.8003070333333,57.0,89.0
594,161.2232518229166,161.4852378666666,59.0,83.0
595,161.4287310729166,161.61195007083327,62.0,99.0
596,161.0177725729166,161.7164020229166,54.0,90.0
597,161.83968957291663,161.94071687083328,54.0,83.0
598,160.81229332291662,161.99551133749995,47.0,77.0
599,161.6342103229166,162.10681259791662,66.0,107.0
600,162.04516882291662,162.3003055583333,62.0,99.0
601,162.25064807291662,162.51434644374996,59.0,93.0
602,162.8670858229166,163.36708533124994,52.0,72.0
603,163.07256507291663,163.37222231249996,59.0,90.0
604,162.45612732291661,163.58626319791662,40.0,72.0
605,162.6616065729166,163.63249602916662,47.0,73.0
606,163.48352357291662,163.71640005624994,52.0,88.0
607,163.68900282291662,164.02119427708328,64.0,79.0
608,163.27804432291663,164.0280435854166,67.0,102.0
609,163.89448207291662,164.09139968749994,59.0,77.0
610,164.5109198229166,164.70783743749996,57.0,73.0
611,164.7163990729166,164.9578371916666,60.0,83.0
612,164.3054405729166,165.02461794791662,52.0,51.0
613,165.12735757291662,165.2403711604166,52.0,78.0
614,164.0999613229166,165.2968779541666,45.0,70.0
615,165.33283682291662,165.59311053958328,60.0,97.0
616,164.92187832291663,165.63763104374993,64.0,100.0
617,165.53831607291661,165.78660349999996,57.0,107.0
618,166.1547538229166,166.5759862854166,50.0,89.0
619,166.36023307291663,166.69413685416663,57.0,90.0
620,165.7437953229166,166.85852025416662,38.0,75.0
621,165.9492745729166,166.88591748749994,45.0,74.0
622,166.77119157291662,167.03660227083327,50.0,81.0
623,166.56571232291662,167.24036919374996,66.0,112.0
624,167.1821500729166,167.36708139791662,57.0,88.0
625,166.97667082291662,167.36708139791662,62.0,79.0
626,168.0040670729166,168.21982028541663,59.0,96.0
627,167.7985878229166,168.2335189020833,55.0,85.0
628,168.41502557291662,168.5674226833333,55.0,85.0
629,168.20954632291662,168.62050482291662,62.0,107.0
630,167.3876293229166,168.86365526874994,43.0,70.0
631,168.8259840729166,168.92529904374996,65.0,76.0
632,167.5931085729166,169.02803866874996,50.0,52.0
633,168.62050482291662,169.35851779583328,59.0,92.0
634,169.0314633229166,169.6273531479166,65.0,96.0
635,169.44242182291663,169.71125717499996,55.0,89.0
636,169.23694257291663,169.90646246249995,50.0,82.0
637,169.64790107291662,169.94070900416662,59.0,82.0
638,169.0314633229166,170.1958457395833,43.0,95.0
639,170.05885957291662,170.21468133749994,50.0,85.0
640,169.85338032291662,170.51776323124994,65.0,112.0
641,170.2643388229166,170.55372209999996,62.0,117.0
642,170.4698180729166,170.68043430416662,59.0,102.0
643,171.29173507291662,171.52632388333328,55.0,89.0
644,171.0862558229166,171.54173482708327,48.0,81.0
645,170.6752973229166,171.80372087083327,36.0,82.0
646,170.8807765729166,171.8088578520833,43.0,73.0
647,171.70269357291662,171.9441316916666,48.0,86.0
648,171.9081728229166,172.2163916979166,55.0,96.0
649,171.49721432291662,172.25577522083327,64.0,99.0
650,172.1136520729166,172.26947383749996,60.0,100.0
651,172.73008982291663,173.20782907916663,50.0,88.0
652,172.93556907291662,173.27632216249995,57.0,90.0
653,172.52461057291663,173.44584254374996,45.0,83.0
654,172.3191313229166,173.45611650624994,38.0,85.0
655,173.3465275729166,173.4937877020833,50.0,88.0
656,173.5520068229166,173.8122805395833,57.0,99.0
657,173.14104832291662,173.91159551041662,66.0,122.0
658,173.7574860729166,173.96467764999994,62.0,102.0
659,174.37392382291662,174.62049892291662,59.0,89.0
660,174.57940307291662,174.77289603333327,62.0,99.0
661,174.1684445729166,174.8910466020833,54.0,85.0
662,174.9903615729166,175.10337516041662,54.0,86.0
663,173.9629653229166,175.1701559166666,47.0,85.0
664,174.78488232291662,175.3704981854166,66.0,117.0
665,175.1958408229166,175.4424159229166,62.0,97.0
666,175.4013200729166,175.6633061166666,59.0,95.0
667,176.01775782291662,176.50919569583328,52.0,85.0
668,176.22323707291662,176.5348806020833,59.0,92.0
669,175.60679932291663,176.7677570854166,40.0,76.0
670,175.81227857291663,176.77118173958328,47.0,79.0
671,176.6341955729166,176.7968666458333,52.0,96.0
672,176.8396748229166,177.16501696874994,64.0,82.0
673,176.4287163229166,177.17871558541663,67.0,117.0
674,177.0451540729166,177.25405797708328,59.0,90.0
675,177.66159182291662,177.89275597916662,57.0,86.0
676,177.86707107291662,178.0930982479166,60.0,95.0
677,177.45611257291662,178.09823522916662,52.0,65.0
678,178.2780295729166,178.3807691979166,52.0,56.0
679,177.2506333229166,178.4270020291666,45.0,69.0
680,178.4835088229166,178.7865907166666,60.0,77.0
681,178.0725503229166,178.81056329583328,64.0,95.0
682,178.68898807291663,178.88590568749996,57.0,82.0
683,179.51090507291661,179.85337048958328,57.0,82.0
684,178.89446732291663,180.04515112291662,38.0,74.0
685,179.09994657291662,180.05884973958328,45.0,76.0
686,179.30542582291662,180.26775364374996,50.0,86.0
687,180.1273428229166,180.5211780520833,62.0,64.0
688,180.3328220729166,180.53830132291662,57.0,73.0
689,179.7163843229166,180.57939717291663,66.0,112.0
690,180.94925982291662,181.39617719166662,55.0,82.0
691,181.1547390729166,181.44925933124995,59.0,74.0
692,181.5656975729166,181.73350562708328,55.0,79.0
693,181.3602183229166,182.00405330624994,62.0,100.0
694,181.97665607291663,182.00405330624994,62.0,33.0
695,180.53830132291662,182.02288890416662,43.0,60.0
696,180.74378057291662,182.15645041666662,50.0,69.0
697,182.18213532291662,183.2232301895833,43.0,64.0
698,181.97665607291663,183.7335036604166,67.0,83.0
699,181.77117682291663,183.82596932291662,59.0,82.0
700,184.4269961291666,185.14959815833328,57.0,65.0
701,184.42528380208327,185.62048810624995,52.0,44.0
702,184.44069474583327,185.75576194583329,45.0,31.0
703,184.4783659416666,185.90987138333327,60.0,79.0
704,184.55370833333328,186.1324739041666,64.0,77.0
705,184.59822883749996,186.13589855833328,67.0,76.0
706,186.0023370458333,186.5828159270833,60.0,83.0
707,186.58966523541662,187.0879524166666,66.0,75.0
708,186.5074735354166,187.10165103333327,62.0,45.0
709,185.5057621916666,187.16158248124995,57.0,97.0
710,187.61706148541663,188.35849911249994,50.0,38.0
711,187.10850034166663,188.39103332708328,45.0,54.0
712,186.6256241041666,188.3961703083333,38.0,77.0
713,187.64788337291662,188.50747156874996,54.0,67.0
714,188.31740326249994,189.5793883229166,57.0,35.0
715,189.5776759958333,190.97835954999994,36.0,79.0
716,190.03144267291663,191.2591811916666,43.0,63.0
717,190.89103086874994,191.26089351874995,60.0,69.0
718,190.5074696020833,191.2951400604166,64.0,99.0
719,191.24377024791661,192.33965958124995,38.0,70.0
720,191.69411227083327,192.40644033749993,45.0,45.0
721,192.4509608416666,193.18726148749994,62.0,66.0
722,192.05883793958327,193.20438475833328,66.0,122.0
723,193.33452161666662,194.0074661604166,54.0,95.0
724,192.90472751874995,194.1410276729166,47.0,75.0
725,193.7797266583333,194.4286986229166,66.0,127.0
726,194.1718495604166,194.9149995145833,62.0,79.0
727,194.5913696958333,195.83280683124994,40.0,81.0
728,195.03828706458327,195.84993010208328,47.0,58.0
729,195.4338346208333,195.94753274583329,52.0,60.0
730,195.8293821770833,196.31739539583327,59.0,67.0
731,195.4509578916666,196.3225323770833,67.0,66.0
732,195.44753323749995,196.34821728333327,64.0,67.0
733,196.64616219583328,197.28314787083326,52.0,60.0
734,196.26088860208327,197.38759982291663,45.0,89.0
735,197.02458648124994,197.90814725624995,64.0,97.0
736,197.4132847291666,197.91842121874993,60.0,71.0
737,198.8875983479166,200.82081562499994,50.0,66.0
738,198.38246185833327,200.83280191458329,45.0,64.0
739,197.84307882708327,200.95951411874995,38.0,85.0
740,199.6684194979166,201.44239035624994,57.0,51.0
741,199.7454742166666,201.50745878541662,66.0,41.0
742,198.88931067499993,201.51088343958327,62.0,71.0
743,202.4269784291666,202.87560812499993,59.0,67.0
744,202.6769781833333,202.94752586249996,62.0,64.0
745,203.19923794374995,203.65642927499994,67.0,69.0
746,203.48519656666662,203.83451129166662,71.0,68.0
747,203.79512776874995,203.88588110416663,74.0,63.0
748,202.08108835833326,207.16156281458328,55.0,79.0
749,201.7488969041666,207.17012444999995,50.0,60.0
750,201.38930821666662,207.48348030624993,43.0,65.0
751,205.16327710833326,207.5742336416666,86.0,42.0
752,204.66327759999996,207.57594596874995,83.0,53.0
753,204.18040136249994,207.5793706229166,79.0,63.0
754,206.27628971249993,207.5879322583333,91.0,45.0
