,start,end,pitch,velocity
0,30.9582838,31.199602858333332,73.0,64.0
1,31.1666168,31.6249494,78.0,81.0
2,31.5832828,32.05203205,80.0,86.0
3,31.9999488,32.65272553333333,77.0,90.0
4,33.2499468,33.453071475,75.0,68.0
5,33.4582798,33.713487725,77.0,68.0
6,33.666612799999996,34.30202845,78.0,87.0
7,34.2916118,34.93570799166667,77.0,87.0
8,34.9166108,35.300290741666664,70.0,66.0
9,35.3332768,35.668345708333334,73.0,80.0
10,35.541609799999996,36.475636083333335,75.0,86.0
11,36.5832748,36.92355203333333,78.0,92.0
12,36.7916078,37.203065474999995,75.0,87.0
13,36.9999408,38.01209195833333,73.0,66.0
14,38.249938799999995,38.338480325,73.0,82.0
15,38.4582718,38.583271599999996,73.0,67.0
16,38.6666048,39.265562175,77.0,93.0
17,39.2916038,39.75167250833333,73.0,87.0
18,39.9166028,40.12667190833333,73.0,87.0
19,40.3332688,40.649240516666666,71.0,74.0
20,40.7499348,41.4791003,70.0,65.0
21,43.2499308,43.44784715,70.0,80.0
22,43.4582638,43.71694394166666,73.0,72.0
23,43.6665968,44.269026391666664,75.0,96.0
24,44.291595799999996,44.56937313333333,78.0,69.0
25,44.4999288,44.95131696666667,80.0,72.0
26,44.9165948,45.315899716666664,78.0,87.0
27,45.3332608,45.734301824999996,75.0,67.0
28,45.7499268,46.213467725,82.0,95.0
29,46.1665928,46.588467125,80.0,97.0
30,46.583258799999996,46.94610544166667,78.0,97.0
31,47.416590799999994,47.80374295833333,73.0,87.0
32,47.8332568,48.258603341666664,82.0,98.0
33,48.2499228,48.727352591666666,80.0,96.0
34,48.6665888,49.786378674999995,78.0,105.0
35,50.3332528,52.25859694166667,75.0,108.0
36,51.999916799999994,52.60755471666666,77.0,93.0
37,52.6249158,53.295053616666664,73.0,82.0
38,53.2499148,53.65963636666667,77.0,95.0
39,53.6665808,55.05893968333333,78.0,93.0
40,57.624907799999995,57.86622685833333,73.0,64.0
41,57.8332408,58.2915734,78.0,81.0
42,58.2499068,58.71865605,80.0,86.0
43,58.6665728,59.31934953333333,77.0,90.0
44,59.916570799999995,60.119695475,75.0,68.0
45,60.1249038,60.380111725,77.0,68.0
46,60.333236799999995,60.96865245,78.0,87.0
47,60.9582358,61.60233199166667,77.0,87.0
48,61.5832348,61.96517863333333,70.0,66.0
49,61.9999008,62.33496970833333,73.0,80.0
50,62.208233799999995,63.14226008333333,75.0,86.0
51,63.2498988,63.59017603333333,78.0,92.0
52,63.4582318,63.869689474999994,75.0,87.0
53,63.666564799999996,64.67871595833333,73.0,66.0
54,64.9165628,65.00510432499999,73.0,82.0
55,65.12489579999999,65.2498956,73.0,67.0
56,65.3332288,65.72038095833334,77.0,93.0
57,65.74989479999999,66.1040609,73.0,87.0
58,66.1665608,66.37662990833333,73.0,87.0
59,66.58322679999999,66.89919851666666,71.0,74.0
60,66.9998928,67.72905829999999,70.0,65.0
61,69.9165548,70.10058228333332,70.0,83.0
62,70.1248878,70.2707209,73.0,90.0
63,70.33322079999999,71.17870555833333,75.0,93.0
64,71.16655279999999,72.75682803333333,78.0,87.0
65,72.8332168,73.234257825,80.0,98.0
66,73.2498828,73.4790491,78.0,93.0
67,73.45821579999999,73.72557648333333,80.0,90.0
68,73.6665488,75.1873797,82.0,106.0
69,74.91654679999999,75.34710166666666,80.0,106.0
70,75.3332128,76.23078080833334,78.0,111.0
71,76.5832108,76.81932153333332,73.0,96.0
72,76.7915438,76.98598793333333,75.0,91.0
73,76.9998768,77.46168161666667,78.0,108.0
74,77.6248758,78.76723508333333,75.0,106.0
75,79.2915398,79.73424742499999,73.0,127.0
76,79.7082058,79.93042766666666,75.0,75.0
77,79.9165388,80.1457051,78.0,86.0
78,80.1248718,80.34188534166667,75.0,85.0
79,80.33320479999999,82.84361745,80.0,90.0
80,82.8332008,83.27764453333333,70.0,98.0
81,83.24986679999999,83.682157775,71.0,103.0
82,83.6665328,84.85750311666666,73.0,100.0
83,85.1248638,85.400905025,82.0,93.0
84,85.3331968,85.76375166666666,80.0,92.0
85,85.7498628,86.16826490833333,78.0,98.0
86,86.1665288,86.46687554166667,70.0,92.0
87,86.37486179999999,87.01722188333333,73.0,87.0
88,86.9998608,88.223817175,75.0,97.0
89,88.4581918,88.67694145,82.0,101.0
90,88.66652479999999,89.28978769166666,80.0,96.0
91,89.2915238,90.15957796666666,78.0,99.0
92,90.7498548,90.93041006666667,73.0,77.0
93,90.95818779999999,91.07450705833332,80.0,84.0
94,91.1665208,91.53804798333333,80.0,92.0
95,91.5831868,91.93908900833333,73.0,85.0
96,91.9998528,92.54151859999999,80.0,96.0
97,92.6248518,93.25332301666666,82.0,100.0
98,93.24985079999999,93.69603064166667,85.0,84.0
99,93.6665168,94.99116745833332,82.0,97.0
100,96.16651279999999,96.62137318333333,82.0,99.0
101,96.5831788,97.015469775,80.0,95.0
102,96.99984479999999,97.41824690833333,75.0,90.0
103,97.4165108,97.85574620833333,82.0,98.0
104,97.83317679999999,98.24810669166666,80.0,90.0
105,98.2498428,98.692550425,78.0,90.0
106,98.6665088,99.23248011666666,80.0,95.0
107,99.29150779999999,99.92865955833332,75.0,87.0
108,100.74983879999999,101.06928273333332,73.0,77.0
109,101.1665048,101.57101804166666,82.0,87.0
110,101.58317079999999,101.69080951666666,80.0,64.0
111,101.7915038,102.24983639999999,80.0,87.0
112,102.2081698,103.19601544166666,78.0,81.0
113,103.2498348,103.48073720833332,73.0,87.0
114,103.4581678,103.65608415,75.0,79.0
115,103.6665008,104.10747231666666,78.0,101.0
116,104.2914998,104.38872186666666,78.0,93.0
117,104.4998328,104.77761013333333,78.0,96.0
118,104.9164988,105.21163721666666,80.0,90.0
119,105.1248318,105.67344203333333,82.0,90.0
120,105.7498308,106.01024704999999,80.0,84.0
121,106.16649679999999,106.47031575833333,80.0,91.0
122,106.5831628,106.85746791666666,78.0,90.0
123,106.99982879999999,107.53455016666666,85.0,93.0
124,107.62482779999999,108.96683954166666,80.0,83.0
125,109.4998248,109.97551848333333,70.0,93.0
126,109.91649079999999,110.37829561666666,71.0,93.0
127,110.3331568,111.17516934166666,73.0,96.0
128,111.7914878,112.04669572499999,82.0,93.0
129,111.9998208,112.42863955833333,80.0,92.0
130,112.4164868,112.67343083333333,78.0,93.0
131,112.8331528,113.25155490833333,70.0,91.0
132,113.04148579999999,113.66822090833332,73.0,98.0
133,113.66648479999999,114.369608675,75.0,105.0
134,115.1248158,115.400857025,82.0,74.0
135,115.33314879999999,115.97550888333333,80.0,91.0
136,115.95814779999999,116.84529915833333,78.0,91.0
137,117.4164788,117.567520225,73.0,72.0
138,117.62481179999999,117.73071440833333,80.0,79.0
139,117.8331448,118.12828321666666,80.0,94.0
140,118.24981079999999,118.5206437,82.0,96.0
141,118.6664768,119.08314279999999,85.0,90.0
142,119.2914758,119.7706417,82.0,93.0
143,119.91647479999999,120.22202986666666,80.0,98.0
144,120.3331408,122.28799878333332,82.0,103.0
145,122.83313679999999,123.26369166666666,82.0,101.0
146,123.2498028,123.65257993333333,80.0,93.0
147,123.66646879999999,124.04841263333333,75.0,93.0
148,124.0831348,124.55362015833333,82.0,100.0
149,124.49980079999999,124.9164668,80.0,93.0
150,124.9164668,125.348757775,78.0,93.0
151,125.33313279999999,125.95986790833332,80.0,98.0
152,125.95813179999999,126.88347754166666,75.0,92.0
153,127.41646279999999,127.68382348333333,82.0,100.0
154,127.8331288,128.505002725,82.0,105.0
155,128.4581278,128.900835425,77.0,87.0
156,128.8747938,129.588334325,78.0,96.0
157,129.9164588,130.15256953333332,73.0,90.0
158,130.1247918,130.28624987499998,75.0,91.0
159,130.3331248,130.91124887499998,78.0,100.0
160,130.95812379999998,132.02930264166665,75.0,105.0
161,131.9997888,132.499788,78.0,100.0
162,132.6247878,133.21680074166667,75.0,103.0
163,133.24978679999998,133.702911075,73.0,90.0
164,133.6664528,134.265410175,82.0,100.0
165,134.0831188,135.171658725,80.0,98.0
166,135.3331168,135.96158801666667,80.0,105.0
167,135.9581158,136.57096204166666,75.0,98.0
168,136.5831148,136.9650586333333,80.0,97.0
169,136.9997808,139.64734600833333,78.0,91.0
170,166.1664008,166.61084453333333,70.0,98.0
171,166.58306679999998,167.01709388333333,71.0,103.0
172,166.9997328,168.18896700833332,73.0,100.0
173,168.4580638,168.734105025,82.0,93.0
174,168.6663968,169.09521555833334,80.0,92.0
175,169.0830628,169.50146490833333,78.0,98.0
176,169.49972879999999,169.80007554166667,70.0,92.0
177,169.7080618,170.35042188333333,73.0,87.0
178,170.3330608,171.55528106666665,75.0,97.0
179,171.79139179999999,172.01014145,82.0,101.0
180,171.9997248,172.62298769166665,80.0,96.0
181,172.6247238,173.49277796666667,78.0,99.0
182,174.08305479999999,174.26187395833333,73.0,77.0
183,174.2913878,174.40770705833333,80.0,84.0
184,174.4997208,174.87298409166667,80.0,92.0
185,174.9163868,175.27228900833333,73.0,85.0
186,175.3330528,175.87298249166665,80.0,96.0
187,175.9580518,176.58652301666666,82.0,100.0
188,176.5830508,177.02923064166666,85.0,84.0
189,176.9997168,178.3243674583333,82.0,97.0
190,179.4997128,179.95457318333334,82.0,99.0
191,179.9163788,180.35040588333334,80.0,95.0
192,180.33304479999998,180.75144690833332,75.0,90.0
193,180.7497108,181.19068231666665,82.0,98.0
194,181.1663768,181.58130669166667,80.0,90.0
195,181.5830428,182.02575042499998,78.0,90.0
196,181.99970879999998,182.567416225,80.0,95.0
197,182.62470779999998,183.29658172499998,75.0,87.0
198,184.0830388,184.40248273333333,73.0,77.0
199,184.4997048,184.90421804166667,82.0,87.0
200,184.91637079999998,185.64380019166666,80.0,87.0
201,185.3330368,186.53963209166665,78.0,81.0
202,186.58303479999998,186.81393720833333,73.0,87.0
203,186.7913678,186.98754804166666,75.0,79.0
204,186.9997008,187.43893620833333,78.0,101.0
205,187.6246998,187.72018575833332,78.0,93.0
206,187.83303279999998,188.11081013333333,78.0,96.0
207,188.2496988,188.54483721666665,80.0,90.0
208,188.4580318,189.00837814166667,82.0,90.0
209,189.0830308,189.34344704999998,80.0,84.0
210,189.49969679999998,189.80177965,80.0,91.0
211,189.9163628,190.19066791666665,78.0,90.0
212,190.3330288,190.86775016666667,85.0,93.0
213,190.7496948,192.24274796666666,80.0,83.0
214,192.8330248,193.30871848333334,70.0,93.0
215,193.2496908,193.71149561666667,71.0,93.0
216,193.6663568,194.50836934166665,73.0,96.0
217,195.1246878,195.37989572499998,82.0,93.0
218,195.33302079999999,195.76183955833332,80.0,92.0
219,195.74968679999998,196.00663083333333,78.0,93.0
220,196.1663528,196.5830188,70.0,91.0
221,196.37468579999998,197.00142090833333,73.0,98.0
222,196.99968479999998,197.70107256666665,75.0,105.0
223,198.4580158,198.734057025,82.0,74.0
224,198.66634879999998,199.30870888333334,80.0,91.0
225,199.29134779999998,200.17849915833332,78.0,91.0
226,200.7496788,200.900720225,73.0,72.0
227,200.95801179999998,201.06565051666666,80.0,79.0
228,201.1663448,201.46148321666666,80.0,94.0
229,201.58301079999998,201.8538437,82.0,96.0
230,201.9996768,202.4163428,85.0,90.0
231,202.62467579999998,203.10557780833332,82.0,93.0
232,203.24967479999998,203.55522986666665,80.0,98.0
233,203.6663408,205.6211987833333,82.0,103.0
234,206.16633679999998,206.59689166666666,82.0,101.0
235,206.5830028,206.98751604166665,80.0,93.0
236,206.9996688,207.379876525,75.0,93.0
237,207.4163348,207.88682015833334,82.0,100.0
238,207.83300079999998,208.2496668,80.0,93.0
239,208.2496668,208.681957775,78.0,93.0
240,208.6663328,209.2913318,80.0,98.0
241,209.2913318,210.21667754166666,75.0,92.0
242,210.74966279999998,211.01702348333333,82.0,100.0
243,211.1663288,211.838202725,82.0,105.0
244,211.79132779999998,212.234035425,77.0,87.0
245,212.2079938,212.92153432499998,78.0,96.0
246,213.2496588,213.48750564166664,73.0,90.0
247,213.4579918,213.619449875,75.0,91.0
248,213.66632479999998,214.24618498333334,78.0,100.0
249,214.2913238,215.36423875,75.0,105.0
250,215.33298879999998,215.83472410833332,78.0,100.0
251,215.95798779999998,216.54826463333333,75.0,103.0
252,216.5829868,217.03611107499998,73.0,90.0
253,216.99965279999998,217.59861017499998,82.0,100.0
254,217.4163188,218.50312261666664,80.0,98.0
255,218.6663168,219.29478801666664,80.0,105.0
256,219.29131579999998,219.90416204166667,75.0,98.0
257,219.91631479999998,220.29825863333332,80.0,97.0
258,220.3329808,224.7079738,78.0,91.0
