,start,end,pitch,velocity
0,0.3333328,1.5173586833333332,73.0,53.0
1,0.3333328,1.9444413333333332,66.0,60.0
2,1.9999968,2.640620775,73.0,53.0
3,1.9999968,3.286453075,65.0,64.0
4,3.6666608,4.737839641666667,63.0,50.0
5,3.6666608,4.772561808333333,70.0,57.0
6,3.6666608,4.784714566666667,73.0,58.0
7,5.3333248,6.560753391666666,70.0,48.0
8,5.3333248,6.571170041666666,61.0,49.0
9,6.9999888,8.128459216666666,59.0,54.0
10,8.6666528,9.737831641666666,58.0,62.0
11,10.333316799999999,10.951371366666667,56.0,54.0
12,10.333316799999999,10.951371366666667,63.0,58.0
13,10.333316799999999,10.951371366666667,66.0,57.0
14,10.333316799999999,10.951371366666667,71.0,66.0
15,10.9583158,11.576370366666666,58.0,54.0
16,11.5833148,11.993036366666667,59.0,54.0
17,11.9999808,12.618035366666666,61.0,54.0
18,11.9999808,12.618035366666666,68.0,45.0
19,13.6666448,14.241296658333333,73.0,55.0
20,14.499976799999999,14.746504183333332,73.0,66.0
21,13.6666448,14.855879008333332,66.0,49.0
22,14.2916438,15.368030966666666,70.0,48.0
23,15.3333088,16.05379375833333,73.0,59.0
24,15.3333088,16.682264975,65.0,62.0
25,16.9999728,17.472194266666666,73.0,53.0
26,17.8333048,18.145804299999998,73.0,69.0
27,16.9999728,18.265595774999998,63.0,46.0
28,17.416638799999998,18.317679025,70.0,46.0
29,19.0833028,19.4166356,70.0,45.0
30,18.6666368,19.881912633333332,61.0,58.0
31,19.708301799999997,19.887120958333334,70.0,59.0
32,20.7499668,21.52253500833333,66.0,41.0
33,20.3333008,21.546840525,59.0,66.0
34,21.9999648,23.215240633333334,58.0,60.0
35,23.666628799999998,24.126697508333333,66.0,72.0
36,23.666628799999998,24.185725191666666,63.0,63.0
37,23.666628799999998,24.930515666666665,56.0,58.0
38,25.1249598,25.303778958333332,66.0,49.0
39,25.958291799999998,26.26037465,66.0,91.0
40,25.749958799999998,26.300305141666666,61.0,58.0
41,26.5832908,26.730860008333334,61.0,53.0
42,25.3332928,26.732596116666667,49.0,67.0
43,26.9999568,27.380164524999998,68.0,62.0
44,26.9999568,27.479122699999998,65.0,73.0
45,27.4166228,27.76037225,61.0,36.0
46,26.9999568,27.8332888,49.0,66.0
47,27.8332888,28.107593916666666,66.0,61.0
48,27.8332888,28.123218891666664,63.0,72.0
49,27.8332888,28.666620799999997,51.0,66.0
50,28.666620799999997,29.23953655,61.0,69.0
51,28.666620799999997,29.383633541666665,68.0,78.0
52,28.666620799999997,29.428772358333333,53.0,54.0
53,29.4999528,29.689188608333332,65.0,51.0
54,29.4999528,29.713494124999997,61.0,59.0
55,29.4999528,29.727382991666666,53.0,70.0
56,29.4999528,29.779466241666665,68.0,62.0
57,30.333284799999998,30.685714791666665,70.0,69.0
58,30.333284799999998,30.723909175,61.0,64.0
59,30.333284799999998,30.736061933333332,66.0,63.0
60,30.333284799999998,31.072866949999998,42.0,70.0
61,30.749950799999997,31.303769358333334,54.0,49.0
62,31.1666168,31.52772733333333,61.0,75.0
63,31.5832828,31.874948999999997,70.0,69.0
64,31.9999488,32.42703145,65.0,82.0
65,31.9999488,32.50342021666666,68.0,75.0
66,31.9999488,32.536406275,61.0,63.0
67,31.9999488,33.14230808333333,53.0,45.0
68,32.4166148,33.15272473333333,58.0,61.0
69,32.8332808,33.25341901666666,61.0,76.0
70,33.2499468,33.53466856666667,65.0,69.0
71,33.666612799999996,34.083278799999995,61.0,73.0
72,33.666612799999996,34.098903775,51.0,66.0
73,33.666612799999996,34.1249454,66.0,80.0
74,34.083278799999995,34.508625341666665,58.0,59.0
75,34.4999448,34.933971883333335,65.0,72.0
76,34.4999448,34.93570799166667,68.0,75.0
77,34.4999448,34.9374441,61.0,63.0
78,34.4999448,35.04334670833333,49.0,64.0
79,34.9166108,35.19091591666667,58.0,66.0
80,35.3332768,35.880150924999995,61.0,69.0
81,35.3332768,35.994734075,63.0,70.0
82,35.3332768,36.065914516666666,66.0,73.0
83,36.1666088,36.588483124999996,59.0,62.0
84,35.3332768,36.60063588333333,47.0,63.0
85,35.7499428,36.659663566666666,54.0,36.0
86,36.5832748,36.899246516666665,61.0,76.0
87,36.9999408,37.322856949999995,66.0,73.0
88,36.9999408,37.366259658333334,59.0,72.0
89,36.9999408,37.45653729166666,63.0,75.0
90,37.4166068,37.98084200833333,56.0,44.0
91,37.833272799999996,38.222161066666665,59.0,75.0
92,36.9999408,38.223897175,44.0,69.0
93,37.833272799999996,38.249938799999995,66.0,76.0
94,37.833272799999996,38.255147125,63.0,76.0
95,38.249938799999995,38.62841041666667,56.0,66.0
96,38.6666048,39.119729074999995,66.0,75.0
97,38.6666048,39.17354843333333,63.0,80.0
98,39.2916038,39.40792305833333,63.0,35.0
99,38.6666048,39.442645225,47.0,75.0
100,39.0832708,39.482575716666666,59.0,50.0
101,39.4999368,39.838477925,61.0,78.0
102,39.4999368,39.883616741666664,68.0,75.0
103,39.4999368,39.9582694,65.0,78.0
104,39.4999368,40.02424151666666,49.0,63.0
105,39.9166028,40.11278304166667,61.0,49.0
106,40.3332688,40.704795983333334,70.0,73.0
107,40.3332688,40.732573716666664,61.0,76.0
108,40.3332688,40.81417080833333,66.0,73.0
109,40.7499348,41.296808925,54.0,42.0
110,41.1666008,41.55896128333333,70.0,72.0
111,41.1666008,41.58673901666666,66.0,82.0
112,41.1666008,41.597155666666666,61.0,78.0
113,40.3332688,41.65618335,42.0,64.0
114,41.5832668,41.81416920833333,54.0,53.0
115,41.999932799999996,42.331529491666664,54.0,55.0
116,41.999932799999996,42.38361274166667,58.0,60.0
117,41.999932799999996,42.38534885,61.0,66.0
118,41.999932799999996,42.421807125,66.0,63.0
119,42.833264799999995,43.078056075,61.0,67.0
120,42.833264799999995,43.196111441666666,68.0,69.0
121,42.416598799999996,43.19784755,54.0,44.0
122,41.999932799999996,43.22041695833333,42.0,58.0
123,43.2499308,43.513819266666665,61.0,48.0
124,43.2499308,43.598888575,70.0,67.0
125,43.66486069166667,44.51208155833333,63.0,72.0
126,43.66486069166667,44.59367865,71.0,76.0
127,43.66486069166667,45.055483466666665,47.0,73.0
128,44.4999288,45.13187223333333,59.0,67.0
129,44.0832628,45.1665944,54.0,60.0
130,44.9165948,45.28812198333333,66.0,67.0
131,45.3332608,45.76034345,61.0,69.0
132,45.3332608,45.78117675,68.0,70.0
133,45.3332608,45.789857291666664,65.0,72.0
134,46.1665928,46.50339781666666,73.0,67.0
135,45.7499268,46.62145318333333,59.0,45.0
136,45.3332608,46.62318929166666,47.0,69.0
137,46.583258799999996,46.94957765833333,68.0,72.0
138,46.999924799999995,47.39402139166666,61.0,72.0
139,46.999924799999995,47.397493608333335,46.0,72.0
140,46.999924799999995,47.69784035,65.0,101.0
141,47.416590799999994,47.880131725,58.0,60.0
142,47.8332568,48.275964425,61.0,61.0
143,48.2499228,48.307214375,60.0,42.0
144,48.2499228,48.3540893,65.0,75.0
145,48.6665888,48.942630025,61.0,67.0
146,48.6665888,49.12144918333333,66.0,64.0
147,49.0832548,49.45130976666666,68.0,67.0
148,49.4999208,49.84540635833333,63.0,60.0
149,49.0832548,49.93915620833333,58.0,59.0
150,48.6665888,49.94089231666666,51.0,72.0
151,49.4999208,50.03985049166666,66.0,60.0
152,49.4999208,50.227350191666666,70.0,64.0
153,50.331516691666664,50.933946283333334,63.0,64.0
154,50.331516691666664,51.203043075,71.0,73.0
155,50.749918799999996,51.58151469166666,54.0,60.0
156,50.331516691666664,51.59019523333333,47.0,73.0
157,51.166584799999995,51.60755631666667,59.0,63.0
158,51.583250799999995,51.94783355,66.0,76.0
159,51.999916799999994,52.47734659166667,61.0,73.0
160,51.999916799999994,52.55026314166666,49.0,67.0
161,51.999916799999994,52.821096041666664,65.0,75.0
162,51.999916799999994,52.84713766666666,68.0,73.0
163,52.4165828,52.9374153,56.0,62.0
164,52.8332488,53.275956425,53.0,85.0
165,53.2499148,53.57283095,61.0,62.0
166,53.6665808,54.03289965833333,61.0,69.0
167,53.6665808,54.05373295833333,66.0,63.0
168,53.6665808,54.36623245833333,70.0,69.0
169,53.6665808,54.44435733333333,42.0,75.0
170,54.0832468,54.50164890833333,49.0,53.0
171,54.4999128,54.713454125,71.0,70.0
172,54.4999128,54.744704074999994,66.0,66.0
173,54.4999128,54.96171761666666,54.0,46.0
174,54.916578799999996,55.07456465833333,73.0,63.0
175,55.333244799999996,55.82456345833333,61.0,55.0
176,55.333244799999996,55.84539675833333,66.0,56.0
177,55.333244799999996,55.899216116666665,70.0,54.0
178,55.333244799999996,56.421784724999995,58.0,53.0
179,56.166576799999994,56.42699305,68.0,80.0
180,54.916578799999996,56.55372895833333,56.0,49.0
181,56.3749098,56.650951025,70.0,57.0
182,56.5832428,56.72213146666667,71.0,56.0
183,56.9999088,57.645741099999995,66.0,64.0
184,56.9999088,57.654421641666666,61.0,58.0
185,56.9999088,57.654421641666666,70.0,63.0
186,56.9999088,58.13532365,42.0,54.0
187,56.9999088,58.223865175,54.0,52.0
188,57.8332408,58.35233719166666,61.0,60.0
189,57.8332408,58.39226768333333,66.0,67.0
190,57.8332408,58.41310098333333,70.0,64.0
191,58.6665728,59.33497450833333,68.0,63.0
192,58.6665728,59.338446725,61.0,59.0
193,58.6665728,59.359280025,65.0,69.0
194,58.6665728,59.7290711,53.0,64.0
195,59.499904799999996,59.74295996666666,61.0,63.0
196,59.499904799999996,59.77941824166666,65.0,69.0
197,59.499904799999996,59.77941824166666,68.0,67.0
198,60.333236799999995,60.687402899999995,51.0,67.0
199,60.333236799999995,60.69781955,70.0,63.0
200,60.333236799999995,60.71865285,66.0,69.0
201,60.333236799999995,60.72212506666666,61.0,61.0
202,61.1665688,61.487748841666665,65.0,69.0
203,61.1665688,61.499901599999994,61.0,58.0
204,61.1665688,61.501637708333334,49.0,69.0
205,61.1665688,61.53115155,68.0,64.0
206,61.9999008,62.42351123333333,66.0,58.0
207,61.9999008,62.78809398333333,63.0,62.0
208,61.9999008,62.84191334166666,70.0,59.0
209,61.9999008,63.26031545,47.0,70.0
210,62.8332328,63.268995991666664,59.0,58.0
211,62.4165668,63.27420431666666,54.0,43.0
212,63.2498988,63.446079041666664,61.0,49.0
213,63.2498988,63.67698145,66.0,61.0
214,63.666564799999996,64.05371695833333,44.0,70.0
215,63.666564799999996,64.15961956666666,59.0,59.0
216,63.666564799999996,64.38878586666667,63.0,60.0
217,63.666564799999996,64.53114674999999,68.0,60.0
218,64.0832308,64.59538275833333,56.0,60.0
219,64.4998968,65.00857654166667,59.0,67.0
220,64.9165628,65.01899319166667,61.0,72.0
221,65.3332288,65.8123947,61.0,64.0
222,65.3332288,65.82628356666666,65.0,73.0
223,65.3332288,65.86795016666666,68.0,66.0
224,66.1665608,66.36794936666666,61.0,52.0
225,65.3332288,66.536351875,49.0,67.0
226,65.74989479999999,66.578018475,56.0,63.0
227,66.1665608,66.59364345,66.0,67.0
228,66.1665608,66.60579620833333,63.0,62.0
229,66.58322679999999,66.67697665,68.0,63.0
230,66.58322679999999,66.73774044166666,61.0,52.0
231,66.9998928,67.44433653333333,61.0,62.0
232,66.9998928,67.4582254,70.0,73.0
233,66.9998928,67.499892,66.0,69.0
234,66.9998928,68.09016883333334,54.0,55.0
235,67.8332248,68.15440484166666,70.0,64.0
236,67.8332248,68.17697425,66.0,67.0
237,67.8332248,68.1873909,61.0,63.0
238,68.2498908,68.35926562499999,54.0,61.0
239,68.6665568,69.130097725,61.0,63.0
240,68.6665568,69.25683363333333,64.0,67.0
241,68.6665568,69.26030585,66.0,64.0
242,68.6665568,69.27766693333334,70.0,63.0
243,68.6665568,69.755096725,54.0,63.0
244,69.4998888,69.87836041666667,61.0,66.0
245,69.4998888,69.87836041666667,70.0,66.0
246,69.4998888,69.89224928333333,64.0,69.0
247,69.4998888,69.90092982499999,66.0,72.0
248,69.9165548,70.07454065833333,54.0,61.0
249,70.33322079999999,70.73078960833332,66.0,60.0
250,70.33322079999999,70.76724788333333,63.0,64.0
251,70.33322079999999,70.77245620833332,70.0,60.0
252,70.7498868,71.24294156666666,54.0,52.0
253,71.16655279999999,71.57106604166667,61.0,55.0
254,71.16655279999999,71.60057988333332,63.0,62.0
255,71.16655279999999,71.61099653333333,70.0,50.0
256,71.16655279999999,71.61273264166667,66.0,61.0
257,71.16655279999999,71.65439924166667,59.0,53.0
258,70.33322079999999,71.71863524999999,47.0,63.0
259,71.5832188,72.03634307499999,54.0,55.0
260,71.99814869166666,72.578008875,68.0,69.0
261,71.99814869166666,72.671758725,62.0,75.0
262,71.99814869166666,72.671758725,66.0,75.0
263,71.99814869166666,73.036341475,59.0,51.0
264,72.8332168,73.22557728333334,62.0,72.0
265,72.8332168,73.24814669166666,68.0,70.0
266,72.8332168,73.26029944999999,66.0,72.0
267,73.24814669166666,73.36793816666666,59.0,54.0
268,71.99814869166666,73.38356314166667,47.0,63.0
269,73.6665488,74.24814509166666,70.0,69.0
270,73.6665488,74.2915478,65.0,82.0
271,73.6665488,74.29502001666667,61.0,69.0
272,73.6665488,74.8123803,58.0,62.0
273,74.4998808,74.87488019999999,65.0,69.0
274,73.6665488,74.8957135,46.0,67.0
275,74.4998808,74.89744960833333,61.0,57.0
276,74.4998808,74.911338475,70.0,70.0
277,75.3332128,75.82626756666666,70.0,72.0
278,75.3332128,75.87140638333332,61.0,70.0
279,75.3332128,75.89744800833333,66.0,72.0
280,75.74987879999999,76.45821099999999,58.0,44.0
281,75.3332128,76.49293316666666,51.0,70.0
282,76.1665448,76.51723868333333,61.0,67.0
283,76.1665448,76.54848863333333,68.0,70.0
284,76.5832108,76.671752325,61.0,48.0
285,76.5832108,76.95473798333333,70.0,72.0
286,76.9998768,77.52244540833333,59.0,69.0
287,76.9998768,77.536334275,63.0,72.0
288,76.9998768,77.56237589999999,68.0,67.0
289,76.9998768,78.00161130833332,56.0,66.0
290,76.9998768,78.333208,44.0,67.0
291,77.8332088,78.333208,59.0,70.0
292,77.8332088,78.34015243333333,63.0,72.0
293,77.8332088,78.36445795,68.0,72.0
294,78.2498748,78.39918011666666,56.0,57.0
295,78.66654079999999,79.34362304999999,60.0,75.0
296,78.66654079999999,79.35056748333334,63.0,76.0
297,78.66654079999999,79.37660910833333,68.0,66.0
298,78.66654079999999,79.77765013333332,44.0,66.0
299,78.66654079999999,79.78806678333333,56.0,60.0
300,79.49987279999999,79.97556648333332,60.0,82.0
301,79.49987279999999,80.00160810833333,63.0,82.0
302,79.9165388,80.03285805833333,44.0,63.0
303,79.49987279999999,80.17001061666666,68.0,80.0
304,80.33320479999999,80.82278735,63.0,80.0
305,80.33320479999999,80.89396779166667,68.0,72.0
306,80.33320479999999,80.911328875,61.0,72.0
307,80.7498708,81.29327270833333,49.0,48.0
308,81.1665368,81.56410560833334,61.0,69.0
309,81.1665368,81.58146669166666,63.0,78.0
310,81.1665368,81.588411125,68.0,72.0
311,80.33320479999999,81.661327675,37.0,76.0
312,81.58146669166666,81.70125816666666,49.0,57.0
313,81.9998688,82.119660275,68.0,44.0
314,81.9998688,82.296743325,61.0,76.0
315,81.9998688,82.327993275,37.0,75.0
316,81.9998688,82.33493770833333,49.0,82.0
317,81.9998688,82.34882657499999,65.0,80.0
318,82.4165348,82.74465927499999,63.0,73.0
319,82.4165348,82.74813149166667,66.0,76.0
320,82.4165348,82.86271464166666,39.0,63.0
321,82.8332008,82.92000621666666,61.0,66.0
322,82.8332008,82.93736729999999,68.0,72.0
323,82.8332008,82.98250611666666,41.0,93.0
324,83.24986679999999,83.338408325,53.0,75.0
325,83.24986679999999,83.34188054166667,41.0,72.0
326,83.24986679999999,83.34188054166667,65.0,69.0
327,83.24986679999999,83.35750551666666,61.0,64.0
328,83.24986679999999,83.53979689166667,71.0,78.0
329,83.6665328,84.00333781666666,42.0,64.0
330,83.8748658,84.09708766666667,49.0,62.0
331,84.08319879999999,84.37660110833333,54.0,60.0
332,83.6665328,84.56583691666667,70.0,73.0
333,83.6665328,84.57278135,61.0,64.0
334,83.6665328,84.58493410833333,66.0,70.0
335,84.4998648,84.63701735833332,58.0,73.0
336,84.2915318,84.64743400833333,56.0,55.0
337,84.7081978,84.859239225,61.0,80.0
338,84.91653079999999,85.09187774166666,66.0,75.0
339,85.1248638,85.41826610833333,70.0,57.0
340,85.3331968,85.59361305,61.0,76.0
341,85.3331968,85.65437684166666,68.0,85.0
342,85.7498628,86.02243180833332,61.0,67.0
343,85.9581958,86.09534835833333,65.0,64.0
344,85.54152979999999,86.15958436666666,58.0,61.0
345,86.1665288,86.19604264166666,65.0,46.0
346,86.1665288,86.39743120833333,61.0,82.0
347,86.37486179999999,86.52937544166666,58.0,63.0
348,85.3331968,86.54847263333333,53.0,93.0
349,86.1665288,86.63875026666666,73.0,75.0
350,86.5831948,86.76201395833333,61.0,64.0
351,86.7915278,86.98770804166666,68.0,64.0
352,86.9998608,87.265485375,61.0,80.0
353,86.9998608,87.2706937,66.0,78.0
354,87.4165268,87.62138758333333,61.0,64.0
355,87.6248598,87.786317875,66.0,75.0
356,87.20819379999999,87.89916491666666,58.0,57.0
357,87.83319279999999,88.10923402499999,68.0,88.0
358,88.0415258,88.17347003333333,58.0,70.0
359,86.9998608,88.17520614166666,51.0,72.0
360,88.0415258,88.27590042499999,70.0,49.0
361,88.2498588,88.47728899166667,61.0,76.0
362,88.4581918,88.49638618333333,70.0,35.0
363,88.4581918,88.609233225,66.0,49.0
364,88.66652479999999,88.94951045833334,61.0,85.0
365,88.66652479999999,89.02589922499999,68.0,80.0
366,88.66652479999999,89.036315875,64.0,85.0
367,88.8748578,89.14221848333332,56.0,75.0
368,88.66652479999999,89.15263513333333,49.0,78.0
369,89.0831908,89.28978769166666,61.0,70.0
370,89.28978769166666,89.42173192499999,64.0,70.0
371,89.28978769166666,89.43041246666667,68.0,62.0
372,89.49985679999999,89.88527284999999,61.0,75.0
373,89.49985679999999,89.88874506666666,70.0,73.0
374,89.49985679999999,89.97381437499999,42.0,75.0
375,89.49985679999999,89.99811989166666,66.0,73.0
376,89.7081898,90.01895319166667,49.0,70.0
377,90.12485579999999,90.2290223,61.0,63.0
378,89.9165228,90.25332781666667,54.0,72.0
379,90.3331888,90.69777155,63.0,85.0
380,90.3331888,90.82624356666666,71.0,73.0
381,90.3331888,90.82971578333333,66.0,75.0
382,90.95818779999999,91.09360425,71.0,40.0
383,90.95818779999999,91.27415951666666,61.0,73.0
384,90.7498548,91.3748538,59.0,70.0
385,91.3748538,91.44777035,71.0,63.0
386,91.3748538,91.62311729166666,61.0,78.0
387,91.3748538,91.64742280833333,66.0,85.0
388,91.5831868,91.80367255833333,59.0,63.0
389,90.3331888,91.817561425,47.0,80.0
390,90.5415218,91.82971418333332,54.0,66.0
391,91.79151979999999,91.90783905833332,61.0,47.0
392,91.99811669166667,92.23943575,68.0,64.0
393,91.99811669166667,92.27936624166666,61.0,88.0
394,92.41651879999999,92.48769924166666,63.0,30.0
395,92.2081858,92.5623519,56.0,61.0
396,91.99811669166667,92.5831852,65.0,97.0
397,91.99811669166667,92.671726725,49.0,75.0
398,92.6248518,92.82624036666667,61.0,78.0
399,92.6248518,93.13353154166666,66.0,85.0
400,92.6248518,93.13873986666667,63.0,59.0
401,92.6248518,93.18908700833333,51.0,78.0
402,93.24985079999999,93.29498961666667,63.0,47.0
403,93.24985079999999,93.35575340833333,65.0,76.0
404,93.24985079999999,93.3748506,53.0,78.0
405,93.24985079999999,93.38179503333333,68.0,78.0
406,93.24985079999999,93.38526725,61.0,76.0
407,93.6665168,94.11269664166666,61.0,64.0
408,93.6665168,94.1456827,70.0,73.0
409,93.6665168,94.21859925,66.0,76.0
410,94.4998488,94.63873746666667,61.0,64.0
411,94.70818179999999,94.8540149,66.0,72.0
412,94.9165148,95.077972875,68.0,75.0
413,94.2915158,95.13179223333333,54.0,73.0
414,95.1248478,95.17345883333333,61.0,40.0
415,95.1248478,95.286305875,70.0,69.0
416,95.3331808,95.46859725,61.0,70.0
417,95.3331808,95.4790139,66.0,76.0
418,95.3331808,95.59186094166667,71.0,69.0
419,95.7498468,95.85054108333333,61.0,60.0
420,95.7498468,95.89915211666666,70.0,75.0
421,95.3331808,95.91824930833333,54.0,69.0
422,94.08318279999999,96.06929073333333,49.0,56.0
423,95.9581798,96.15609615,68.0,99.0
424,95.9581798,96.21859605,61.0,85.0
425,96.16651279999999,96.3956791,54.0,72.0
426,96.16651279999999,96.458179,49.0,33.0
427,93.6665168,96.5831788,42.0,72.0
428,96.37484579999999,96.59012323333333,61.0,91.0
429,96.37484579999999,96.63526205,66.0,101.0
430,96.5831788,96.84880337499999,54.0,82.0
431,96.7915118,96.88352554166666,63.0,63.0
432,96.99984479999999,97.42866355833333,66.0,93.0
433,96.99984479999999,97.59012163333333,63.0,88.0
434,96.99984479999999,97.61095493333333,70.0,80.0
435,97.83317679999999,98.07275974999999,70.0,63.0
436,97.6248438,98.07623196666667,59.0,76.0
437,97.83317679999999,98.098801375,61.0,88.0
438,98.0415098,98.18907900833332,63.0,76.0
439,96.99984479999999,98.32102324166667,47.0,76.0
440,97.4165108,98.35748151666667,54.0,56.0
441,98.2498428,98.37137038333333,66.0,76.0
442,98.2498428,98.39393979166667,59.0,64.0
443,98.6665088,98.958175,61.0,76.0
444,98.6665088,99.03977209166666,65.0,80.0
445,99.0831748,99.23248011666666,66.0,62.0
446,99.0831748,99.25852174166666,63.0,64.0
447,98.8748418,99.32275775,56.0,50.0
448,99.29150779999999,99.71685434166666,61.0,78.0
449,99.29150779999999,99.73074320833332,68.0,76.0
450,99.7081738,99.84706246666666,56.0,73.0
451,98.6665088,99.87310409166666,49.0,66.0
452,99.9165068,100.16129807499999,61.0,64.0
453,100.12483979999999,100.7706721,68.0,69.0
454,100.3331728,100.77414431666666,65.0,76.0
455,100.3331728,100.786297075,61.0,80.0
456,100.9581718,101.12310209166667,61.0,67.0
457,101.1665048,101.23247691666666,61.0,35.0
458,100.74983879999999,101.26719908333332,58.0,50.0
459,101.1665048,101.41997661666666,66.0,64.0
460,100.3331728,101.55539306666667,46.0,69.0
461,101.3748378,101.66303178333332,68.0,60.0
462,101.58317079999999,101.83143429166667,70.0,66.0
463,101.7915038,102.25504472499999,73.0,69.0
464,101.9998368,102.27761413333333,61.0,66.0
465,101.9998368,102.29844743333332,66.0,66.0
466,101.9998368,102.32622516666666,70.0,72.0
467,102.41650279999999,102.53282205833332,61.0,57.0
468,102.2081698,102.69601624166665,58.0,63.0
469,102.6248358,103.00504352499999,61.0,78.0
470,102.6248358,103.01893239166667,66.0,91.0
471,103.04150179999999,103.182126575,58.0,73.0
472,101.9998368,103.24636258333332,51.0,69.0
473,103.2498348,103.34532075833333,66.0,78.0
474,103.2498348,103.34705686666666,61.0,73.0
475,103.6665008,103.77413951666666,58.0,57.0
476,103.6665008,103.84011163333332,64.0,64.0
477,103.6665008,104.19254162499999,59.0,54.0
478,103.6665008,104.19774995,66.0,63.0
479,104.0831668,104.609207625,56.0,47.0
480,104.4998328,104.99288756666667,59.0,88.0
481,104.4998328,104.999832,66.0,75.0
482,104.9164988,105.067540225,56.0,52.0
483,105.33316479999999,105.63177543333333,54.0,55.0
484,103.6665008,105.64392819166666,44.0,69.0
485,105.33316479999999,105.64392819166666,59.0,69.0
486,105.33316479999999,105.64740040833333,63.0,63.0
487,106.16649679999999,106.64566269999999,59.0,91.0
488,106.16649679999999,106.65260713333333,54.0,91.0
489,106.16649679999999,106.65781545833333,63.0,80.0
490,106.5831628,106.69080151666667,47.0,66.0
491,106.5831628,106.734204225,46.0,46.0
492,106.79149579999999,106.91475949166666,61.0,56.0
493,106.99982879999999,107.32968938333333,49.0,82.0
494,106.99982879999999,107.40781425833333,54.0,78.0
495,106.99982879999999,107.421703125,63.0,75.0
496,106.99982879999999,107.42691144999999,59.0,75.0
497,107.62482779999999,107.95642449166667,49.0,45.0
498,107.8331608,108.18732689999999,54.0,88.0
499,107.8331608,108.19947965833333,59.0,82.0
500,107.8331608,108.30017394166666,63.0,73.0
501,106.99982879999999,108.30364615833332,37.0,72.0
502,108.2498268,108.3539933,49.0,70.0
503,108.6664928,108.92864515833332,49.0,75.0
504,108.6664928,108.97031175833332,56.0,70.0
505,108.6664928,108.98593673333333,61.0,78.0
506,108.6664928,109.05364495833332,65.0,72.0
507,109.4998248,109.70468558333333,61.0,73.0
508,109.08315879999999,109.73940775,49.0,47.0
509,108.6664928,109.791491,37.0,70.0
510,109.4998248,109.89912971666666,66.0,88.0
511,109.91649079999999,110.02412951666666,68.0,58.0
512,109.91649079999999,110.03107394999999,61.0,62.0
513,110.3331568,110.69600344166666,61.0,56.0
514,110.3331568,110.72725339166666,70.0,72.0
515,110.3331568,110.73593393333333,66.0,64.0
516,110.74982279999999,110.90607254999999,61.0,57.0
517,110.9581558,111.05885008333333,66.0,64.0
518,110.74982279999999,111.249822,54.0,48.0
519,111.1664888,111.36787736666666,61.0,85.0
520,111.1664888,111.400863425,68.0,93.0
521,111.37482179999999,111.59530755833333,54.0,57.0
522,110.3331568,111.6456547,42.0,73.0
523,111.58315479999999,111.69773794999999,61.0,70.0
524,111.58315479999999,111.89912651666666,70.0,97.0
525,111.7914878,111.89912651666666,73.0,63.0
526,111.9998208,112.34183414166667,61.0,91.0
527,111.9998208,112.36266744166666,65.0,73.0
528,111.9998208,112.38870906666666,68.0,85.0
529,112.4164868,112.92690264999999,53.0,70.0
530,112.8331528,113.07099964166666,61.0,82.0
531,111.9998208,113.09183294166667,41.0,67.0
532,112.8331528,113.13523565,65.0,93.0
533,112.8331528,113.14218008333333,68.0,88.0
534,113.04148579999999,113.16822170833333,53.0,91.0
535,113.2498188,113.452943475,61.0,82.0
536,113.4581518,113.61613765833333,73.0,63.0
537,113.66648479999999,114.12308129166667,73.0,56.0
538,113.66648479999999,114.13349794166666,66.0,91.0
539,113.66648479999999,114.14044237499999,61.0,85.0
540,114.2914838,114.48766404166666,61.0,76.0
541,114.49981679999999,114.61092773333333,61.0,39.0
542,114.49981679999999,114.7289831,65.0,99.0
543,114.0831508,114.87308009166667,58.0,62.0
544,113.66648479999999,114.94599664166667,51.0,72.0
545,114.7081498,114.98766324166667,66.0,70.0
546,114.9164828,115.13523244999999,68.0,76.0
547,115.1248158,115.27412111666666,70.0,70.0
548,115.33314879999999,115.775856425,68.0,82.0
549,115.33314879999999,115.82620356666666,64.0,91.0
550,115.33314879999999,115.9373145,61.0,82.0
551,115.95814779999999,116.30016114166666,56.0,49.0
552,116.16648079999999,116.39391099166666,61.0,75.0
553,116.16648079999999,116.452938675,68.0,76.0
554,116.16648079999999,116.49634138333333,64.0,82.0
555,116.3748138,116.55189684999999,56.0,72.0
556,115.33314879999999,116.59009123333333,49.0,73.0
557,116.5831468,116.84009083333333,61.0,69.0
558,116.79147979999999,116.92863235833333,66.0,61.0
559,116.9998128,117.44599264166666,61.0,85.0
560,116.9998128,117.45640929166666,66.0,78.0
561,116.9998128,117.50502032499999,63.0,91.0
562,117.8331448,118.13522764999999,61.0,85.0
563,118.0414778,118.19599144166666,63.0,88.0
564,117.62481179999999,118.22724139166667,59.0,80.0
565,118.24981079999999,118.45987990833333,66.0,80.0
566,116.9998128,118.473768775,47.0,72.0
567,117.4164788,118.60571300833332,54.0,54.0
568,118.45814379999999,118.61265744166666,68.0,73.0
569,118.66474069166667,119.00675403333332,61.0,82.0
570,118.66474069166667,119.09355945,65.0,93.0
571,118.66474069166667,119.30536466666666,49.0,82.0
572,119.2914758,119.33140629166667,65.0,53.0
573,119.2914758,119.47376717499999,61.0,69.0
574,119.2914758,119.83834992499999,63.0,64.0
575,119.2914758,119.91126647499999,51.0,64.0
576,119.91647479999999,119.95293307499999,65.0,46.0
577,119.2914758,119.95466918333332,66.0,76.0
578,119.91647479999999,120.01196075833333,68.0,53.0
579,119.91647479999999,120.015432975,61.0,75.0
580,119.91647479999999,120.06751622499999,53.0,70.0
581,120.3331408,120.65432084166666,42.0,76.0
582,120.54147379999999,120.72550128333333,49.0,72.0
583,120.74980679999999,121.02411191666666,54.0,59.0
584,120.3331408,121.1248062,61.0,73.0
585,120.3331408,121.161264475,66.0,76.0
586,120.3331408,121.161264475,70.0,75.0
587,121.1664728,121.26022264999999,59.0,67.0
588,121.1664728,121.27411151666666,58.0,48.0
589,120.9581398,121.33313919999999,56.0,57.0
590,121.37480579999999,121.505013925,61.0,78.0
591,121.5831388,121.71855525,66.0,78.0
592,121.7914718,121.92341603333333,68.0,76.0
593,121.99980479999999,122.24980439999999,61.0,75.0
594,121.99980479999999,122.32445705833332,70.0,78.0
595,121.99980479999999,122.32966538333332,66.0,80.0
596,121.99980479999999,122.452929075,42.0,73.0
597,122.4164708,122.52758173333332,54.0,67.0
598,122.83313679999999,123.10049748333333,54.0,80.0
599,122.83313679999999,123.12653910833333,66.0,76.0
600,122.83313679999999,123.130011325,61.0,76.0
601,122.83313679999999,123.15258073333332,42.0,70.0
602,122.83313679999999,123.16994181666666,70.0,72.0
603,122.83313679999999,123.17688625,64.0,95.0
604,123.2498028,123.36264984166667,70.0,61.0
605,123.2498028,123.36785816666666,46.0,69.0
606,123.2498028,123.40605255,61.0,73.0
607,123.2498028,123.4164692,66.0,78.0
608,123.66646879999999,123.81577411666666,61.0,62.0
609,123.66646879999999,124.03799598333333,66.0,88.0
610,123.66646879999999,124.04320430833333,70.0,80.0
611,123.66646879999999,124.10049588333332,63.0,93.0
612,124.29146779999999,124.42688425,61.0,67.0
613,124.49980079999999,124.63868946666666,63.0,78.0
614,124.0831348,124.71507823333333,59.0,69.0
615,124.7081338,124.80361975833333,63.0,53.0
616,124.7081338,124.80882808333332,66.0,62.0
617,123.66646879999999,124.95639729166666,47.0,69.0
618,123.8748018,125.00500832499999,54.0,67.0
619,124.9164668,125.09181374166666,59.0,67.0
620,124.9164668,125.17688305,66.0,75.0
621,125.12479979999999,125.28973009166666,68.0,72.0
622,125.33313279999999,125.73938215,61.0,69.0
623,125.33313279999999,125.75327101666666,65.0,95.0
624,125.33313279999999,125.76542377499999,68.0,64.0
625,125.95813179999999,126.057089975,61.0,66.0
626,125.95813179999999,126.07792327499999,65.0,99.0
627,126.1664648,126.27063129999999,63.0,78.0
628,126.1664648,126.31056179166666,66.0,76.0
629,125.7497988,126.37827001666666,56.0,60.0
630,126.3747978,126.43729769999999,63.0,47.0
631,126.3747978,126.46681154166666,66.0,54.0
632,126.58313079999999,126.609172425,65.0,46.0
633,126.58313079999999,126.62479739999999,63.0,60.0
634,126.58313079999999,126.65778345833333,61.0,82.0
635,125.33313279999999,126.66299178333333,49.0,73.0
636,126.58313079999999,126.69076951666666,56.0,72.0
637,126.58313079999999,126.69424173333333,68.0,82.0
638,126.9997968,127.39215728333333,70.0,75.0
639,126.9997968,127.41125447499999,62.0,88.0
640,126.9997968,127.42861555833333,65.0,85.0
641,127.6247958,127.77583722499999,62.0,64.0
642,127.41646279999999,128.02236460833333,58.0,57.0
643,126.9997968,128.0831284,46.0,73.0
644,127.8331288,128.09701726666665,62.0,85.0
645,127.8331288,128.13694775833332,70.0,80.0
646,128.0414618,128.18903100833333,50.0,62.0
647,128.2497948,128.39736400833334,62.0,70.0
648,128.4581278,128.51021104999998,66.0,42.0
649,128.4581278,128.58312759999998,70.0,70.0
650,128.66646079999998,129.11437675,66.0,73.0
651,128.66646079999998,129.11611285833334,61.0,82.0
652,128.66646079999998,129.14215448333331,70.0,69.0
653,129.29145979999998,129.3956263,70.0,58.0
654,129.29145979999998,129.60222319166667,61.0,78.0
655,129.29145979999998,129.65430644166665,65.0,72.0
656,129.0831268,129.73069520833332,51.0,50.0
657,129.7081258,129.73937575,65.0,56.0
658,129.7081258,129.82965338333332,66.0,85.0
659,129.7081258,129.85569500833333,61.0,85.0
660,128.66646079999998,129.89909771666666,39.0,73.0
661,129.9164588,130.00847254166666,51.0,61.0
662,130.3331248,130.96506823333334,68.0,78.0
663,130.3331248,130.96854045,63.0,82.0
664,130.3331248,130.97201266666667,59.0,82.0
665,130.95812379999998,131.2775677333333,56.0,13.0
666,131.1664568,131.84527515833332,59.0,73.0
667,131.1664568,131.84527515833332,63.0,73.0
668,131.1664568,131.86437235,68.0,78.0
669,131.9997888,132.04492761666666,63.0,45.0
670,131.9997888,132.27756613333332,59.0,85.0
671,131.9997888,132.39214928333334,66.0,76.0
672,132.4164548,132.64735720833332,59.0,69.0
673,132.4164548,132.75152370833334,68.0,66.0
674,132.4164548,132.78798198333334,63.0,67.0
675,132.8331208,133.10568980833332,56.0,62.0
676,132.8331208,133.11437035,59.0,82.0
677,132.8331208,133.171661925,66.0,73.0
678,130.3331248,133.23763404166667,44.0,70.0
679,133.24978679999998,133.338328325,63.0,88.0
680,133.6664528,134.00673003333333,63.0,82.0
681,133.6664528,134.02929944166667,54.0,82.0
682,133.6664528,134.03277165833333,59.0,75.0
683,134.0831188,134.64388179166667,49.0,48.0
684,134.4997848,134.77756213333333,61.0,75.0
685,134.4997848,134.81575651666665,65.0,103.0
686,134.9164508,135.10742271666666,49.0,56.0
687,134.9164508,135.223741975,66.0,85.0
688,134.9164508,135.234158625,63.0,85.0
689,135.3331168,135.37825561666665,63.0,52.0
690,133.6664528,135.40429724166665,37.0,66.0
691,135.3331168,135.45638049166666,61.0,78.0
692,135.3331168,135.4650610333333,68.0,59.0
693,135.3331168,135.51367206666666,49.0,88.0
694,135.7497828,136.05881008333333,61.0,61.0
695,136.16644879999998,136.473739975,41.0,69.0
696,136.16644879999998,136.504989925,53.0,63.0
697,136.16644879999998,136.51714268333333,65.0,97.0
698,136.16644879999998,136.54492041666666,61.0,73.0
699,136.16644879999998,136.66297578333334,71.0,76.0
700,136.5831148,136.90429484166665,68.0,69.0
701,136.9997808,137.28971089166666,70.0,72.0
702,136.9997808,137.338321925,78.0,70.0
703,137.4164468,137.98241811666665,61.0,45.0
704,137.83311279999998,138.12130678333332,70.0,75.0
705,137.83311279999998,138.18207057499998,77.0,80.0
706,136.9997808,138.23936215,54.0,70.0
707,137.83311279999998,138.24630658333334,66.0,55.0
708,138.2497788,138.35047308333333,70.0,61.0
709,138.2497788,138.609153225,61.0,64.0
710,138.2497788,138.61088933333332,78.0,62.0
711,138.6664448,139.24804109166666,53.0,60.0
712,138.6664448,139.29838823333333,68.0,60.0
713,139.4997768,139.65776265833333,68.0,72.0
714,139.2914438,139.72026255833333,65.0,70.0
715,139.0831108,139.78449856666666,61.0,61.0
716,139.7081098,139.859151225,73.0,66.0
717,139.9164428,140.19595624166666,75.0,80.0
718,140.12477579999998,140.34005323333332,77.0,66.0
719,140.3331088,140.61262224166666,70.0,73.0
720,140.3331088,140.76192755833333,78.0,67.0
721,140.74977479999998,140.91644119999998,68.0,73.0
722,140.74977479999998,141.1247742,77.0,64.0
723,140.74977479999998,141.24803789166666,58.0,61.0
724,141.1664408,141.45463478333332,78.0,63.0
725,141.1664408,141.46678754166666,70.0,64.0
726,141.1664408,141.53796798333332,63.0,54.0
727,140.3331088,141.58137069166665,51.0,63.0
728,141.5831068,141.63519005,70.0,43.0
729,141.5831068,141.70637049166666,77.0,69.0
730,141.5831068,141.91817570833334,58.0,70.0
731,141.9997728,142.32442505833333,73.0,78.0
732,142.8331048,142.98935455,65.0,70.0
733,142.6247718,143.12303489166666,61.0,70.0
734,141.9997728,143.19074311666665,49.0,69.0
735,142.41643879999998,143.22025695833332,58.0,64.0
736,143.04143779999998,143.29838183333334,66.0,63.0
737,143.2497708,143.48935375,68.0,73.0
738,143.4581038,143.7202561583333,70.0,70.0
739,143.66643679999999,144.14560269999998,61.0,72.0
740,143.66643679999999,144.166436,66.0,75.0
741,144.0831028,144.61782416666665,54.0,66.0
742,144.4997688,144.92685145,61.0,78.0
743,144.4997688,144.932059775,66.0,88.0
744,144.4997688,144.95636529166666,59.0,78.0
745,143.66643679999999,144.98240691666666,47.0,72.0
746,144.9164348,145.34351745,54.0,58.0
747,145.33310079999998,145.74108625833333,61.0,73.0
748,145.33310079999998,145.74803069166666,65.0,70.0
749,145.33310079999998,145.754975125,68.0,72.0
750,146.1664328,146.4442101333333,61.0,66.0
751,146.1664328,146.46677954166665,66.0,75.0
752,145.74803069166666,146.56920993333333,58.0,55.0
753,145.33310079999998,146.58657101666665,46.0,73.0
754,146.3747658,146.65601535,68.0,72.0
755,146.5830988,146.80879288333333,70.0,64.0
756,146.7914318,147.05358415833334,73.0,76.0
757,146.99976479999998,147.32094484166666,63.0,76.0
758,146.99976479999998,147.327889275,66.0,85.0
759,146.99976479999998,147.37302809166667,47.0,85.0
760,146.99976479999998,147.38691695833333,59.0,73.0
761,147.62476379999998,148.04316590833332,65.0,80.0
762,147.62476379999998,148.14038797499998,61.0,78.0
763,147.62476379999998,148.2080962,68.0,76.0
764,147.62476379999998,148.317471025,49.0,72.0
765,148.24976279999998,148.557053975,61.0,82.0
766,148.24976279999998,148.63865106666665,66.0,88.0
767,148.24976279999998,148.74802589166666,51.0,66.0
768,148.6664288,149.13344194166666,61.0,91.0
769,148.6664288,149.2289279,68.0,75.0
770,148.6664288,149.32788607499998,53.0,70.0
771,149.29142779999998,149.60045508333332,61.0,91.0
772,149.29142779999998,149.62649670833332,70.0,91.0
773,149.29142779999998,149.81920473333332,66.0,91.0
774,149.29142779999998,149.93899620833332,54.0,95.0
775,149.91642679999998,150.02927384166665,66.0,63.0
776,149.91642679999998,150.24628738333334,63.0,82.0
777,149.91642679999998,150.31573171666665,71.0,99.0
778,149.91642679999998,150.338301125,56.0,80.0
779,150.3330928,150.72545328333334,42.0,78.0
780,150.7497588,151.02927224166666,54.0,59.0
781,150.3330928,151.17510534166667,61.0,78.0
782,150.3330928,151.192466425,66.0,75.0
783,150.3330928,151.22718859166665,73.0,85.0
784,151.3747578,151.52927144166665,61.0,88.0
785,150.9580918,151.56572971666665,56.0,59.0
786,151.1664248,151.68031286666667,58.0,78.0
787,151.58309079999998,151.81225709999998,66.0,67.0
788,151.9997568,152.911213675,61.0,76.0
789,151.9997568,152.92510254166666,68.0,73.0
790,151.7914238,152.942463625,73.0,73.0
791,153.0414218,153.10739391666667,73.0,26.0
792,153.0414218,153.19767155,61.0,70.0
793,152.83308879999998,153.25322701666667,58.0,60.0
794,151.9997568,153.43551839166665,56.0,82.0
795,153.2497548,153.51017105,68.0,88.0
796,153.6664208,154.13169783333333,61.0,78.0
797,153.6664208,154.1473228083333,66.0,72.0
798,153.4580878,154.4233640333333,73.0,78.0
799,154.2914198,154.45114176666667,61.0,80.0
800,154.0830868,154.69593304166665,58.0,46.0
801,154.49975279999998,154.80357175833333,66.0,73.0
802,154.7080858,155.04489081666665,68.0,73.0
803,153.6664208,155.06919633333334,51.0,72.0
804,154.9164188,155.14384899166666,58.0,67.0
805,155.12475179999998,155.26884879166667,73.0,69.0
806,154.9164188,155.416418,70.0,72.0
807,155.3330848,155.58655661666666,61.0,93.0
808,155.3330848,155.65079262499998,65.0,78.0
809,155.3330848,155.85738951666667,68.0,82.0
810,155.9580838,156.25148610833332,63.0,67.0
811,155.7497508,156.379958125,60.0,47.0
812,156.16641679999998,156.44245802499998,65.0,69.0
813,155.3330848,156.47544408333331,49.0,69.0
814,155.5414178,156.49106905833332,56.0,58.0
815,156.3747498,156.6872493,66.0,69.0
816,156.5830828,156.88169343333334,68.0,66.0
817,156.79141579999998,157.077873675,70.0,54.0
818,156.9997488,157.36780376666667,61.0,80.0
819,156.9997488,157.4702341583333,66.0,85.0
820,157.41641479999998,157.69419213333333,61.0,45.0
821,157.41641479999998,157.890372375,63.0,70.0
822,157.8330808,157.94071951666666,66.0,76.0
823,157.8330808,157.973705575,61.0,70.0
824,157.8330808,158.1872469,59.0,64.0
825,157.41641479999998,158.25321901666666,54.0,61.0
826,158.2497468,158.31398280833332,61.0,56.0
827,156.9997488,158.33134389166665,47.0,80.0
828,158.2497468,158.65426004166665,68.0,82.0
829,158.6664128,159.21155081666666,66.0,75.0
830,158.6664128,159.30530066666665,61.0,70.0
831,159.4997448,159.63516124999998,61.0,82.0
832,159.70807779999998,159.86085533333332,66.0,73.0
833,159.2914118,159.86779976666665,58.0,72.0
834,158.6664128,159.88516085,46.0,75.0
835,159.08307879999998,159.97717459166665,53.0,59.0
836,159.9164108,160.098702175,68.0,85.0
837,160.1247438,160.45460438333333,73.0,73.0
838,160.3330768,160.63168743333333,66.0,63.0
839,160.3330768,160.640367975,63.0,69.0
840,160.3330768,160.640367975,71.0,82.0
841,160.74974279999998,161.00321461666667,61.0,70.0
842,160.74974279999998,161.03272845833334,70.0,75.0
843,161.1664088,161.19592264166667,66.0,46.0
844,161.1664088,161.37474179999998,56.0,55.0
845,161.1664088,161.47022775833332,63.0,70.0
846,161.1664088,161.4997416,71.0,101.0
847,160.3330768,161.85390769999998,44.0,69.0
848,161.5830748,161.87126878333333,73.0,76.0
849,161.5830748,161.88342154166665,56.0,91.0
850,161.5830748,161.89383819166665,66.0,64.0
851,160.74974279999998,161.90251873333332,51.0,61.0
852,161.99974079999998,162.46501783333332,61.0,91.0
853,161.99974079999998,162.61432315,70.0,70.0
854,161.99974079999998,162.6247398,47.0,76.0
855,162.6247398,162.65772585833332,70.0,43.0
856,162.6247398,163.119530675,61.0,80.0
857,162.6247398,163.13168343333334,68.0,85.0
858,162.6247398,163.2497388,49.0,76.0
859,163.2497388,163.58307159999998,66.0,88.0
860,163.66640479999998,164.12126518333332,66.0,93.0
861,163.66640479999998,164.13689015833333,73.0,76.0
862,164.29140379999998,164.546611725,66.0,85.0
863,164.4997368,164.61431994999998,68.0,82.0
864,164.7080698,164.96327772499998,73.0,85.0
865,163.66640479999998,165.02230540833332,49.0,82.0
866,164.0830708,165.077860875,61.0,93.0
867,164.9164028,165.161194075,78.0,80.0
868,163.8747378,165.2289023,56.0,67.0
869,165.1247358,165.30355495833334,80.0,73.0
870,165.33306879999998,165.61084613333333,85.0,82.0
871,165.33306879999998,165.69591544166667,73.0,88.0
872,165.5414018,166.23410902499998,56.0,73.0
873,165.7497348,166.27924784166666,61.0,82.0
874,166.1664008,166.47369197499998,70.0,91.0
875,165.33306879999998,166.48931695,49.0,64.0
876,166.1664008,166.494525275,66.0,91.0
877,166.3747338,166.52230300833332,56.0,69.0
878,166.58306679999998,166.62646950833332,66.0,45.0
879,166.58306679999998,166.75667763333334,68.0,80.0
880,166.7913998,166.92681625,70.0,67.0
881,167.20806579999999,167.36778776666665,61.0,60.0
882,167.4163988,167.45632929166666,61.0,34.0
883,166.9997328,167.51362086666666,73.0,85.0
884,167.4163988,167.57612076666666,66.0,67.0
885,166.9997328,167.61084293333332,54.0,91.0
886,167.6247318,167.68723169999998,73.0,51.0
887,167.6247318,167.87299529166665,68.0,82.0
888,167.8330648,167.90250913333333,73.0,31.0
889,167.8330648,168.12820321666666,61.0,70.0
890,168.0413978,168.22021695833334,66.0,69.0
891,167.8330648,168.5830636,54.0,73.0
892,168.4580638,168.744521675,61.0,59.0
893,168.24973079999998,168.75320221666666,73.0,78.0
894,168.6663968,168.83827152499998,68.0,73.0
895,168.87472979999998,169.15250713333333,61.0,67.0
896,169.0830628,169.35389569999998,65.0,69.0
897,169.49972879999999,169.76014505,61.0,63.0
898,169.2913958,169.78965889166665,73.0,76.0
899,169.7080618,169.85910322499998,65.0,67.0
900,168.6663968,169.97715859166667,53.0,69.0
901,169.9163948,170.24625538333333,68.0,61.0
902,170.1247278,170.48583833333333,73.0,75.0
903,170.3330608,170.59174094166667,66.0,73.0
904,170.3330608,170.62646310833333,61.0,85.0
905,170.7497268,170.93722649999998,65.0,64.0
906,170.54139379999998,171.02750413333334,58.0,66.0
907,170.9580598,171.244517675,61.0,66.0
908,170.9580598,171.26882319166666,66.0,82.0
909,171.3747258,171.43028126666667,66.0,66.0
910,171.3747258,171.52403111666666,61.0,61.0
911,171.16639279999998,171.52750333333333,58.0,66.0
912,170.3330608,171.53791998333332,51.0,73.0
913,171.3747258,171.82264175,68.0,91.0
914,171.79139179999999,171.95632209166666,70.0,93.0
915,171.9997248,172.03791918333332,70.0,69.0
916,171.9997248,172.254932725,61.0,85.0
917,171.9997248,172.30007154166665,64.0,101.0
918,171.9997248,172.32264095,68.0,99.0
919,172.4163908,172.70284867499998,61.0,69.0
920,172.6247238,172.96673714166667,64.0,99.0
921,172.2080578,173.10041748333333,56.0,73.0
922,173.0413898,173.28791718333332,61.0,91.0
923,173.2497228,173.31395880833333,56.0,50.0
924,171.9997248,173.34868097499998,49.0,72.0
925,173.0413898,173.39902811666667,66.0,82.0
926,173.45805579999998,173.60041668333332,68.0,59.0
927,173.66465269166665,173.68895820833333,61.0,60.0
928,173.66465269166665,173.80006914166665,70.0,57.0
929,173.66465269166665,173.98236051666666,63.0,52.0
930,173.66465269166665,174.015346575,66.0,60.0
931,173.8747218,174.48930414999998,59.0,45.0
932,174.2913878,174.74277596666667,61.0,88.0
933,174.2913878,174.7722898083333,66.0,95.0
934,173.66465269166665,174.95458118333332,47.0,78.0
935,174.9163868,175.00492832499998,61.0,50.0
936,174.7080538,175.05353935833332,59.0,62.0
937,174.9163868,175.09694206666666,68.0,63.0
938,175.12471979999998,175.23930295,70.0,56.0
939,175.3330528,175.73062160833334,61.0,88.0
940,175.3330528,175.78270485833332,68.0,80.0
941,175.3330528,175.7913854,65.0,82.0
942,175.74971879999998,176.14728760833333,59.0,36.0
943,175.9580518,176.41464829166665,61.0,95.0
944,175.9580518,176.42159272499998,66.0,99.0
945,176.1663848,176.57437025833332,59.0,39.0
946,175.3330528,176.62471739999998,47.0,73.0
947,176.5830508,176.88513365,61.0,88.0
948,176.5830508,176.91811970833334,70.0,97.0
949,176.9997168,177.28096635,61.0,93.0
950,176.9997168,177.32263294999998,68.0,82.0
951,177.41638279999998,177.52749373333333,61.0,59.0
952,177.2080498,177.72714619166666,58.0,63.0
953,177.6247158,178.119506675,66.0,93.0
954,177.6247158,178.12297889166666,61.0,82.0
955,178.2497148,178.41464509166667,61.0,73.0
956,176.9997168,178.49797829166667,54.0,78.0
957,178.04138179999998,178.51360326666665,58.0,69.0
958,178.2497148,178.51881159166666,68.0,85.0
959,178.4580478,178.58651981666665,70.0,70.0
960,178.66638079999998,178.74103345833333,63.0,35.0
961,178.66638079999998,178.95457478333333,71.0,95.0
962,179.0830468,179.23235211666665,70.0,88.0
963,179.2913798,179.60561540833334,66.0,95.0
964,179.4997128,179.76880959166667,58.0,76.0
965,178.66638079999998,179.81742062499998,54.0,99.0
966,179.70804579999998,179.84519835833333,61.0,93.0
967,179.9163788,180.09346184999998,66.0,63.0
968,180.1247118,180.244503275,68.0,76.0
969,180.33304479999998,180.51880839166665,75.0,67.0
970,180.33304479999998,180.7080442,77.0,72.0
971,180.7497108,181.12644630833333,59.0,76.0
972,180.95804379999998,181.31047379166665,73.0,95.0
973,180.95804379999998,181.31047379166665,78.0,85.0
974,180.33304479999998,181.66290378333332,47.0,72.0
975,181.3747098,181.73582033333332,59.0,76.0
976,181.5830428,181.7913758,75.0,76.0
977,180.5413778,181.874709,54.0,69.0
978,181.7913758,181.94762555,78.0,67.0
979,181.99970879999998,182.05179205,78.0,59.0
980,181.99970879999998,182.48061080833332,68.0,85.0
981,181.99970879999998,182.51880519166667,77.0,95.0
982,182.62470779999998,182.91290178333333,68.0,91.0
983,182.62470779999998,183.05526266666666,75.0,91.0
984,182.4163748,183.19415133333334,59.0,70.0
985,181.99970879999998,183.30526226666666,47.0,80.0
986,183.24970679999998,183.32262335,73.0,88.0
987,183.24970679999998,183.338248325,68.0,88.0
988,183.6663728,183.994497275,65.0,85.0
989,183.6663728,184.00317781666666,68.0,93.0
990,184.0830388,184.37296889166666,58.0,55.0
991,184.29137179999998,184.49623258333332,65.0,85.0
992,184.29137179999998,184.71671834166665,61.0,78.0
993,184.7080378,184.8747042,58.0,66.0
994,183.6663728,184.91463469166666,46.0,85.0
995,184.91463469166666,185.24275916666664,63.0,85.0
996,185.1247038,185.26880079166665,65.0,67.0
997,185.3330368,185.61255024166667,58.0,93.0
998,185.3330368,185.67331403333333,66.0,63.0
999,185.3330368,185.77748053333332,61.0,97.0
1000,185.7497028,186.0639384083333,58.0,66.0
1001,185.9580358,186.32261855,61.0,91.0
1002,185.54136979999998,186.48754884166667,54.0,61.0
1003,185.3330368,186.57435425833333,51.0,82.0
1004,186.3747018,186.73754844166666,65.0,97.0
1005,186.7913678,186.95629809166667,63.0,60.0
1006,186.9997008,187.2288671,59.0,95.0
1007,186.9997008,187.25838094166664,66.0,72.0
1008,186.9997008,187.31740862499998,63.0,72.0
1009,187.4163668,187.56393600833331,58.0,52.0
1010,187.6246998,187.67504694166666,58.0,57.0
1011,187.20803379999998,187.70108856666667,56.0,66.0
1012,187.6246998,188.004907525,66.0,50.0
1013,187.6246998,188.06567131666665,59.0,106.0
1014,188.2496988,188.43372628333333,58.0,73.0
1015,186.9997008,188.4996984,44.0,76.0
1016,188.0413658,188.4996984,56.0,66.0
1017,188.4580318,188.567406625,59.0,91.0
1018,188.6663648,188.9996976,59.0,85.0
1019,188.6663648,188.9996976,66.0,82.0
1020,188.87469779999998,189.37296089166665,56.0,72.0
1021,189.2913638,189.70976590833334,66.0,82.0
1022,189.2913638,189.74101585833333,59.0,101.0
1023,188.6663648,189.911154475,44.0,76.0
1024,189.7080298,189.95976550833333,56.0,64.0
1025,189.9163628,190.11775136666665,59.0,85.0
1026,190.3330288,190.744486475,73.0,85.0
1027,190.3330288,190.80004194166665,68.0,93.0
1028,190.5413618,191.39899931666665,56.0,62.0
1029,190.9580278,191.44587424166664,66.0,99.0
1030,190.7496948,191.65247113333334,61.0,75.0
1031,190.3330288,191.68545719166667,49.0,88.0
1032,191.3746938,191.702818275,68.0,85.0
1033,191.5830268,191.82608196666666,56.0,72.0
1034,191.79135979999998,192.00663723333332,65.0,91.0
1035,191.79135979999998,192.02052609999998,68.0,82.0
1036,192.2080258,192.46323372499998,63.0,54.0
1037,192.2080258,192.50837254166666,66.0,85.0
1038,192.6246918,192.72538608333332,65.0,80.0
1039,192.6246918,192.744483275,68.0,75.0
1040,192.41635879999998,193.01184395833332,56.0,61.0
1041,192.8330248,193.0413578,68.0,62.0
1042,192.8330248,193.06913553333334,66.0,57.0
1043,192.8330248,193.10038548333333,70.0,101.0
1044,192.8330248,193.23927415,61.0,62.0
1045,191.9996928,193.35212119166667,49.0,66.0
1046,193.2496908,193.36080173333332,56.0,52.0
1047,193.2496908,193.36601005833333,71.0,106.0
1048,193.6663568,193.88163423333333,42.0,70.0
1049,193.8746898,194.15246713333332,54.0,57.0
1050,193.6663568,194.306980775,70.0,85.0
1051,193.6663568,194.33475850833332,73.0,70.0
1052,193.6663568,194.34864737499998,61.0,88.0
1053,193.6663568,194.35211959166665,66.0,91.0
1054,194.4996888,194.62295249166667,61.0,91.0
1055,194.08302279999998,194.629896925,56.0,70.0
1056,194.2913558,194.83649381666666,58.0,93.0
1057,194.70802179999998,194.83996603333333,66.0,82.0
1058,194.9163548,195.09691006666665,68.0,69.0
1059,195.1246878,195.46149281666666,73.0,82.0
1060,195.33302079999999,195.72538128333332,68.0,93.0
1061,195.9580198,196.14378339166666,68.0,78.0
1062,195.74968679999998,196.23926935,65.0,78.0
1063,196.1663528,196.3121859,73.0,82.0
1064,196.37468579999998,196.5378799833333,75.0,95.0
1065,195.5413538,196.6576714583333,61.0,60.0
1066,195.33302079999999,196.69933805833332,53.0,73.0
1067,196.5830188,196.76878239166666,77.0,66.0
1068,196.7913518,197.05871248333332,80.0,76.0
1069,196.99968479999998,197.36253144166665,78.0,99.0
1070,197.62468379999999,197.93544719166667,66.0,91.0
1071,197.2080178,198.05871088333333,58.0,61.0
1072,197.4163508,198.06391920833332,63.0,75.0
1073,198.04134979999998,198.21669674166665,70.0,88.0
1074,198.04134979999998,198.2496828,66.0,91.0
1075,196.99968479999998,198.327807675,51.0,67.0
1076,198.2496828,198.55002954166665,58.0,55.0
1077,198.66634879999998,198.9371817,65.0,93.0
1078,198.66634879999998,199.23232011666667,68.0,97.0
1079,199.29134779999998,199.65593055,64.0,99.0
1080,199.29134779999998,199.75315261666665,68.0,44.0
1081,199.29134779999998,199.81044419166665,61.0,61.0
1082,198.66634879999998,199.87988852499998,49.0,67.0
1083,199.7080138,199.96843005,66.0,85.0
1084,199.91634679999999,200.22537408333332,68.0,85.0
1085,200.33301279999998,200.81044259166666,61.0,85.0
1086,200.33301279999998,200.88856746666664,66.0,93.0
1087,200.1246798,200.94412293333332,70.0,60.0
1088,201.1663448,201.46842765,61.0,67.0
1089,201.3746778,201.692385625,66.0,73.0
1090,200.33301279999998,201.7930799083333,47.0,76.0
1091,200.95801179999998,201.806968775,59.0,76.0
1092,201.58301079999998,201.83474650833332,68.0,66.0
1093,200.7496788,201.84516315833332,54.0,58.0
1094,201.7913438,201.95280187499998,70.0,72.0
1095,201.9996768,202.02745453333333,70.0,52.0
1096,201.9996768,202.27745413333332,61.0,78.0
1097,201.9996768,202.35037068333332,65.0,82.0
1098,201.9996768,202.37120398333332,68.0,91.0
1099,202.4163428,202.56391200833332,61.0,67.0
1100,202.20800979999999,202.73578673333333,59.0,75.0
1101,202.62467579999998,202.9337030833333,61.0,88.0
1102,202.62467579999998,203.109050025,66.0,95.0
1103,203.0413418,203.30349415833334,61.0,91.0
1104,203.0413418,203.31043859166667,59.0,66.0
1105,201.9996768,203.36773016666666,47.0,85.0
1106,203.0413418,203.50835494166665,68.0,80.0
1107,203.4580078,203.5205077,61.0,58.0
1108,203.4580078,203.556965975,70.0,73.0
1109,203.6663408,203.79481281666665,61.0,85.0
1110,203.6663408,203.96668754166666,66.0,95.0
1111,203.6663408,204.00488192499998,70.0,88.0
1112,204.7080058,204.81043619166667,70.0,85.0
1113,204.7080058,204.83126949166666,78.0,67.0
1114,203.6663408,204.86772776666666,54.0,66.0
1115,204.2913398,204.9371721,66.0,78.0
1116,204.91633879999998,205.02224140833331,70.0,72.0
1117,204.91633879999998,205.06564411666665,78.0,82.0
1118,204.0830068,205.11772736666666,61.0,69.0
1119,205.1246718,205.23231051666664,68.0,75.0
1120,205.1246718,205.24272716666667,77.0,85.0
1121,205.3330048,205.5830044,68.0,73.0
1122,205.3330048,205.59168494166667,77.0,91.0
1123,205.7496708,205.85036508333332,66.0,73.0
1124,205.7496708,205.85036508333332,73.0,82.0
1125,205.54133779999998,205.95105936666667,61.0,56.0
1126,205.9580038,206.11251744166665,66.0,91.0
1127,205.9580038,206.12987852499998,73.0,95.0
1128,206.16633679999998,206.463211325,61.0,54.0
1129,205.3330048,206.59168334166665,54.0,72.0
1130,206.9996688,207.4805708083333,61.0,76.0
1131,206.9996688,207.536126275,66.0,80.0
1132,207.6246678,207.7930703083333,61.0,64.0
1133,207.6246678,208.01702828333333,68.0,69.0
1134,207.83300079999998,208.11425035,59.0,64.0
1135,208.0413338,208.21147241666665,66.0,63.0
1136,207.4163348,208.31043059166666,54.0,46.0
1137,206.9996688,208.35556940833334,47.0,88.0
1138,208.0413338,208.359041625,61.0,76.0
1139,208.0413338,208.41112487499998,70.0,75.0
1140,208.2496668,208.41980541666666,59.0,72.0
1141,208.6663328,209.14029037499998,59.0,85.0
1142,208.6663328,209.33647061666665,61.0,82.0
1143,208.6663328,209.34515115833332,65.0,88.0
1144,208.6663328,209.35209559166665,68.0,80.0
1145,208.6663328,209.36424835,73.0,78.0
1146,209.2913318,209.69237282499998,59.0,55.0
1147,209.49966479999998,209.963205725,65.0,85.0
1148,208.6663328,209.98056680833332,47.0,76.0
1149,209.49966479999998,209.99098345833332,61.0,85.0
1150,209.49966479999998,209.99098345833332,68.0,80.0
1151,209.9163308,210.03959449166666,59.0,85.0
1152,209.49966479999998,210.03959449166666,73.0,66.0
1153,210.3329968,210.692371225,58.0,76.0
1154,210.3329968,210.921537525,65.0,91.0
1155,210.3329968,210.94063471666666,68.0,85.0
1156,210.3329968,210.94584304166665,61.0,88.0
1157,211.37466179999998,211.46667554166666,61.0,53.0
1158,211.37466179999998,211.48577273333333,68.0,52.0
1159,210.9579958,211.53091154999998,58.0,48.0
1160,210.3329968,211.76875839166667,46.0,72.0
1161,211.5829948,211.79827223333334,58.0,61.0
1162,211.5829948,211.8607721333333,68.0,82.0
1163,211.5829948,211.86250824166666,62.0,95.0
1164,211.5829948,211.87639710833332,65.0,75.0
1165,211.9996608,212.09341064999998,67.0,66.0
1166,211.9996608,212.390285175,70.0,70.0
1167,211.9996608,212.53090995,61.0,82.0
1168,211.9996608,212.69757635,66.0,76.0
1169,212.41632679999998,212.73229851666665,54.0,47.0
1170,211.9996608,212.80000674166666,51.0,76.0
1171,212.8329928,213.09340905,61.0,91.0
1172,212.8329928,213.18368668333332,68.0,91.0
1173,212.8329928,213.20625609166666,65.0,85.0
1174,212.8329928,213.24792269166664,49.0,82.0
1175,213.2496588,213.55347775833332,66.0,73.0
1176,213.66632479999998,214.32604596666667,70.0,76.0
1177,213.66632479999998,214.35903202499998,63.0,88.0
1178,213.66632479999998,214.38333754166666,66.0,78.0
1179,213.66632479999998,214.79132299999998,59.0,85.0
1180,213.66632479999998,214.83472570833334,47.0,76.0
1181,214.4996568,215.01701708333331,70.0,80.0
1182,214.4996568,215.06041979166665,63.0,88.0
1183,214.4996568,215.06736422499998,66.0,97.0
1184,214.9163228,215.64201608333332,59.0,62.0
1185,215.33298879999998,215.87812681666665,63.0,76.0
1186,215.33298879999998,215.92673785,70.0,73.0
1187,215.33298879999998,215.93021006666666,66.0,78.0
1188,215.7496548,216.31736222499998,59.0,35.0
1189,216.1663208,216.37465379999998,70.0,70.0
1190,214.9163228,216.42500094166667,47.0,69.0
1191,216.1663208,216.46145921666667,66.0,80.0
1192,216.1663208,216.50138970833333,63.0,76.0
1193,216.5829868,216.7079866,47.0,78.0
1194,216.99965279999998,217.48055480833332,66.0,80.0
1195,216.99965279999998,217.51701308333332,61.0,80.0
1196,216.99965279999998,217.6680545083333,73.0,73.0
1197,216.99965279999998,217.681943375,68.0,82.0
1198,217.4163188,217.98229011666666,49.0,56.0
1199,217.8329848,218.06562331666666,61.0,88.0
1200,217.8329848,218.08645661666665,66.0,97.0
1201,217.8329848,218.119442675,68.0,95.0
1202,217.8329848,218.14201208333333,73.0,75.0
1203,218.24965079999998,218.47187266666666,49.0,78.0
1204,218.6663168,218.85208039166665,70.0,72.0
1205,218.6663168,218.88680255833333,73.0,88.0
1206,218.6663168,218.900691425,78.0,73.0
1207,219.0829828,219.30867688333333,68.0,70.0
1208,218.6663168,219.31909353333333,49.0,76.0
1209,219.0829828,219.44756554999998,77.0,63.0
1210,219.4996488,219.66631519999999,70.0,72.0
1211,219.4996488,219.67673184999998,73.0,76.0
1212,219.4996488,219.68888460833332,78.0,66.0
1213,216.99965279999998,219.921523125,37.0,70.0
1214,219.91631479999998,220.00312021666664,49.0,70.0
1215,220.33124469166665,220.66457749166665,63.0,95.0
1216,220.33124469166665,220.692355225,66.0,99.0
1217,220.7496468,220.92325763333332,66.0,78.0
1218,220.9579798,221.06909073333333,65.0,69.0
1219,220.9579798,221.07256295,63.0,69.0
1220,221.1663128,221.47186786666666,65.0,82.0
1221,221.58297879999998,221.7704785,63.0,73.0
1222,221.1663128,221.78089515,59.0,69.0
1223,220.33124469166665,221.796520125,47.0,76.0
1224,221.58297879999998,221.81040899166666,66.0,91.0
1225,220.7496468,221.890269975,54.0,57.0
1226,221.7913118,221.9371449,65.0,67.0
1227,221.9996448,222.25311661666666,63.0,75.0
1228,221.9996448,222.26700548333332,66.0,88.0
1229,222.4163108,222.588185525,66.0,76.0
1230,222.4163108,222.60554660833333,63.0,66.0
1231,222.6246438,222.75832414166666,65.0,72.0
1232,222.83297679999998,222.9597127083333,63.0,67.0
1233,222.83297679999998,222.99790709166666,66.0,91.0
1234,223.0413098,223.11249024166665,63.0,50.0
1235,222.83297679999998,223.12117078333333,59.0,72.0
1236,223.0413098,223.15242073333332,66.0,55.0
1237,222.20797779999998,223.20450398333332,54.0,60.0
1238,221.9996448,223.26700388333333,47.0,78.0
1239,223.0413098,223.27915664166665,68.0,82.0
1240,223.2496428,223.5117951583333,70.0,73.0
1241,223.6663088,223.94929445833333,61.0,80.0
1242,223.6663088,223.94929445833333,65.0,85.0
1243,224.0829748,224.25658563333332,61.0,70.0
1244,224.0829748,224.25832174166666,65.0,85.0
1245,223.6663088,224.32429385833333,58.0,88.0
1246,224.2913078,224.46491863333333,63.0,75.0
1247,224.49964079999998,224.69755715,61.0,72.0
1248,224.49964079999998,224.71839045,65.0,78.0
1249,224.49964079999998,225.00658443333333,58.0,57.0
1250,224.9163068,225.04825103333332,61.0,73.0
1251,224.9163068,225.08991763333333,65.0,91.0
1252,223.6663088,225.09165374166665,46.0,70.0
1253,225.12463979999998,225.31387560833332,63.0,64.0
1254,225.3329728,225.51700028333332,65.0,76.0
1255,225.5413058,225.67498614166666,66.0,76.0
1256,225.74963879999999,225.93887460833332,61.0,72.0
1257,225.3329728,225.96838845,58.0,50.0
1258,225.9579718,226.22186026666665,66.0,85.0
1259,226.16630479999998,226.31561011666665,68.0,80.0
1260,225.3329728,226.36074893333333,46.0,70.0
1261,226.16630479999998,226.48054040833333,58.0,66.0
1262,226.3746378,226.59685966666666,70.0,82.0
1263,226.5829708,226.78262325833333,73.0,88.0
1264,226.79130379999998,226.9788035,75.0,88.0
1265,226.98748404166665,227.754843925,61.0,80.0
1266,226.98401182499998,227.75658003333334,64.0,95.0
1267,226.98922015,227.8294965833333,69.0,99.0
1268,227.88331594166667,228.390259575,61.0,63.0
1269,226.98748404166665,228.42845395833334,45.0,70.0
1270,228.32255135,228.44755114999998,64.0,85.0
1271,226.99790069166664,228.48748164166665,57.0,69.0
1272,228.68366188333331,229.22011935833333,66.0,70.0
1273,228.68366188333331,229.22185546666665,63.0,67.0
1274,228.681925775,229.22185546666665,71.0,72.0
1275,228.68713409999998,230.02046529999998,47.0,82.0
1276,229.57428545833332,230.0742846583333,63.0,64.0
1277,229.57428545833332,230.07949298333332,66.0,75.0
1278,228.68887020833333,230.09511795833333,59.0,80.0
1279,230.28261765833332,230.484006225,66.0,19.0
1280,230.0013681083333,230.66629759999998,71.0,62.0
1281,230.87115838333332,231.0221998083333,66.0,67.0
1282,230.8746306,231.13331074166666,68.0,73.0
1283,230.973588775,231.5013657083333,70.0,61.0
1284,231.86594845833332,232.03087875,70.0,69.0
1285,232.0899064333333,232.306919975,73.0,46.0
1286,232.29823943333332,232.41803090833332,78.0,53.0
1287,232.546502925,232.70448878333332,80.0,51.0
1288,232.79129419999998,232.90414124166665,82.0,57.0
1289,233.07948818333332,233.19754354999998,85.0,61.0
1290,233.38157103333333,233.50309861666665,90.0,55.0
1291,233.69927885833332,233.86073693333333,92.0,61.0
1292,231.3451159583333,234.01525057499998,61.0,49.0
1293,231.63330994166665,234.02913944166664,66.0,67.0
1294,230.86421395,234.09684766666666,54.0,75.0
1295,234.07080604166666,234.17150032499998,94.0,58.0
1296,234.47011095833332,234.546499725,97.0,58.0
