,start,end,pitch,velocity
0,20.436865547916668,20.7448553875,68.0,113.0
1,20.74614404791667,21.055422547916667,68.0,104.0
2,21.055422547916667,21.6726908875,77.0,108.0
3,21.67397954791667,22.911093547916668,77.0,110.0
4,22.911093547916668,23.2500112375,73.0,91.0
5,23.22037204791667,23.529650547916667,75.0,91.0
6,23.529650547916667,24.1469188875,80.0,104.0
7,24.14820754791667,25.384032887500002,80.0,104.0
8,25.385321547916668,25.69460004791667,80.0,100.0
9,25.69460004791667,26.0025898875,72.0,96.0
10,26.003878547916667,26.62243554791667,72.0,100.0
11,26.62243554791667,27.858260887500002,73.0,96.0
12,27.859549547916668,28.322178637500002,73.0,93.0
13,28.323467297916668,28.478106547916667,73.0,83.0
14,28.478106547916667,29.09666354791667,72.0,93.0
15,29.09666354791667,30.333777547916668,77.0,107.0
16,30.333777547916668,30.952334547916667,68.0,107.0
17,30.952334547916667,32.18944854791667,70.0,104.0
18,32.18944854791667,33.42656254791667,72.0,104.0
19,33.42656254791667,34.04511954791667,80.0,107.0
20,34.04511954791667,34.663676547916666,77.0,110.0
21,34.663676547916666,35.590223387500004,73.0,107.0
22,35.591512047916666,35.90079054791667,73.0,107.0
23,35.90079054791667,37.75646154791667,70.0,107.0
24,37.75646154791667,38.37501854791667,73.0,104.0
25,38.37501854791667,40.23068954791667,75.0,110.0
26,40.23068954791667,40.538679387500004,68.0,113.0
27,40.539968047916666,40.84924654791667,68.0,104.0
28,40.84924654791667,41.466514887500004,77.0,108.0
29,41.46780354791667,42.70491754791667,77.0,110.0
30,42.70491754791667,43.043835237500005,73.0,91.0
31,43.01419604791667,43.32347454791667,75.0,91.0
32,43.32347454791667,43.9407428875,80.0,104.0
33,43.94203154791667,45.1778568875,80.0,104.0
34,45.17914554791667,45.488424047916666,80.0,100.0
35,45.488424047916666,45.7964138875,72.0,96.0
36,45.79770254791667,46.41625954791667,72.0,100.0
37,46.41625954791667,47.6520848875,73.0,96.0
38,47.65337354791667,48.1160026375,73.0,93.0
39,48.11729129791667,48.27193054791667,73.0,83.0
40,48.27193054791667,48.89048754791667,72.0,93.0
41,48.89048754791667,50.12760154791667,77.0,107.0
42,50.12760154791667,50.74615854791667,68.0,107.0
43,50.74615854791667,51.98327254791667,70.0,104.0
44,51.98327254791667,53.22038654791667,72.0,104.0
45,53.22038654791667,53.83894354791667,80.0,107.0
46,53.83894354791667,54.457500547916666,77.0,110.0
47,54.457500547916666,55.384047387500004,73.0,107.0
48,55.38533604791667,55.69461454791667,73.0,107.0
49,55.69461454791667,57.55028554791667,70.0,107.0
50,57.55028554791667,58.16884254791667,72.0,104.0
51,58.16884254791667,60.0232248875,73.0,110.0
52,60.02451354791667,60.3943590875,73.0,113.0
53,60.33379204791667,60.64307054791667,75.0,108.0
54,60.64307054791667,61.26162754791667,77.0,104.0
55,61.26162754791667,61.88018454791667,80.0,110.0
56,61.88018454791667,62.49874154791667,75.0,108.0
57,62.49874154791667,63.11729854791667,77.0,107.0
58,63.11729854791667,63.42657704791667,73.0,100.0
59,63.42657704791667,64.04513404791668,70.0,94.0
60,64.04513404791668,64.97296954791668,73.0,113.0
61,64.97296954791668,65.28224804791667,75.0,108.0
62,65.28224804791667,65.59152654791667,77.0,104.0
63,65.59152654791667,66.21008354791667,78.0,107.0
64,66.21008354791667,66.82864054791666,82.0,114.0
65,66.82864054791666,67.44719754791667,77.0,114.0
66,67.44719754791667,68.06575454791667,78.0,108.0
67,68.06575454791667,68.39049697291667,77.0,108.0
68,68.37503304791667,68.9923013875,75.0,107.0
69,68.99359004791667,69.92142554791667,75.0,114.0
70,69.92142554791667,70.23070404791667,73.0,108.0
71,70.23070404791667,70.53998254791667,75.0,108.0
72,70.53998254791667,71.15853954791667,77.0,104.0
73,71.15853954791667,71.77709654791667,80.0,113.0
74,71.77709654791667,72.39565354791667,75.0,110.0
75,72.39565354791667,73.01421054791668,77.0,116.0
76,73.01421054791668,73.32348904791667,75.0,108.0
77,73.32348904791667,73.94204604791668,70.0,93.0
78,73.94204604791668,74.86988154791668,73.0,104.0
79,74.86988154791668,75.17916004791667,75.0,110.0
80,75.17916004791667,75.48843854791667,77.0,107.0
81,75.48843854791667,76.10699554791667,78.0,116.0
82,76.10699554791667,76.72555254791666,77.0,117.0
83,76.72555254791666,77.34410954791667,73.0,114.0
84,77.34410954791667,77.96266654791667,75.0,108.0
85,77.96266654791667,80.43689454791667,73.0,108.0
86,99.61216154791667,99.9201513875,68.0,113.0
87,99.92144004791668,100.23071854791667,68.0,104.0
88,100.23071854791667,100.8479868875,77.0,108.0
89,100.84927554791668,102.08638954791667,77.0,110.0
90,102.08638954791667,102.42530723750001,73.0,91.0
91,102.39566804791667,102.70494654791668,75.0,91.0
92,102.70494654791668,103.32221488750001,80.0,104.0
93,103.32350354791667,104.5593288875,80.0,104.0
94,104.56061754791668,104.86989604791667,80.0,100.0
95,104.86989604791667,105.17788588750001,72.0,96.0
96,105.17917454791667,105.79773154791667,72.0,100.0
97,105.79773154791667,107.03355688750001,73.0,96.0
98,107.03484554791667,107.4974746375,73.0,93.0
99,107.49876329791667,107.65340254791667,73.0,83.0
100,107.65340254791667,108.27195954791667,72.0,93.0
101,108.27195954791667,109.50907354791667,77.0,107.0
102,109.50907354791667,110.12763054791667,68.0,107.0
103,110.12763054791667,111.36474454791667,70.0,104.0
104,111.36474454791667,112.60185854791668,72.0,104.0
105,112.60185854791668,113.22041554791667,80.0,107.0
106,113.22041554791667,113.83897254791667,77.0,110.0
107,113.83897254791667,114.7655193875,73.0,107.0
108,114.76680804791667,115.07608654791667,73.0,107.0
109,115.07608654791667,116.93175754791667,70.0,107.0
110,116.93175754791667,117.55031454791667,73.0,104.0
111,117.55031454791667,119.40598554791667,75.0,110.0
112,119.40598554791667,119.7139753875,68.0,113.0
113,119.71526404791668,120.02454254791667,68.0,104.0
114,120.02454254791667,120.6418108875,77.0,108.0
115,120.64309954791668,121.88021354791667,77.0,110.0
116,121.88021354791667,122.21913123750001,73.0,91.0
117,122.18949204791667,122.49877054791668,75.0,91.0
118,122.49877054791668,123.11603888750001,80.0,104.0
119,123.11732754791667,124.3531528875,80.0,104.0
120,124.35444154791668,124.66372004791667,80.0,100.0
121,124.66372004791667,124.97170988750001,72.0,96.0
122,124.97299854791667,125.59155554791667,72.0,100.0
123,125.59155554791667,126.82738088750001,73.0,96.0
124,126.82866954791668,127.2912986375,73.0,93.0
125,127.29258729791667,127.44722654791667,73.0,83.0
126,127.44722654791667,128.06578354791668,72.0,93.0
127,128.06578354791668,129.30289754791667,77.0,107.0
128,129.30289754791667,129.92145454791668,68.0,107.0
129,129.92145454791668,131.15856854791667,70.0,104.0
130,131.15856854791667,132.39568254791666,72.0,104.0
131,132.39568254791666,133.01423954791667,80.0,107.0
132,133.01423954791667,133.63279654791668,77.0,110.0
133,133.63279654791668,134.5593433875,73.0,107.0
134,134.56063204791667,134.86991054791667,73.0,107.0
135,134.86991054791667,136.72558154791668,70.0,107.0
136,136.72558154791668,137.34413854791669,72.0,104.0
137,137.34413854791669,138.58125254791668,73.0,110.0
138,139.1998095479167,139.5696550875,73.0,113.0
139,139.50908804791666,139.81836654791667,75.0,108.0
140,139.81836654791667,140.43692354791668,77.0,104.0
141,140.43692354791668,141.0554805479167,80.0,110.0
142,141.0554805479167,141.67403754791667,75.0,108.0
143,141.67403754791667,142.29259454791668,77.0,107.0
144,142.29259454791668,142.60187304791668,73.0,100.0
145,142.60187304791668,143.22043004791666,70.0,94.0
146,143.22043004791666,144.14826554791668,73.0,113.0
147,144.14826554791668,144.45754404791668,75.0,108.0
148,144.45754404791668,144.76682254791666,77.0,104.0
149,144.76682254791666,145.38537954791667,78.0,107.0
150,145.38537954791667,146.00393654791668,82.0,114.0
151,146.00393654791668,146.62249354791666,77.0,114.0
152,146.62249354791666,147.24105054791667,78.0,108.0
153,147.24105054791667,147.56579297291668,77.0,108.0
154,147.55032904791668,148.1675973875,75.0,107.0
155,148.1688860479167,149.09672154791667,75.0,114.0
156,149.09672154791667,149.40600004791668,73.0,108.0
157,149.40600004791668,149.71527854791668,75.0,108.0
158,149.71527854791668,150.33383554791666,77.0,104.0
159,150.33383554791666,150.95239254791667,80.0,113.0
160,150.95239254791667,151.57094954791668,75.0,110.0
161,151.57094954791668,152.18950654791666,77.0,116.0
162,152.18950654791666,152.49878504791667,75.0,108.0
163,152.49878504791667,153.11734204791668,70.0,93.0
164,153.11734204791668,154.04517754791667,73.0,104.0
165,154.04517754791667,154.35445604791667,75.0,110.0
166,154.35445604791667,154.66373454791668,77.0,107.0
167,154.66373454791668,155.28229154791669,78.0,116.0
168,155.28229154791669,155.90084854791667,77.0,117.0
169,155.90084854791667,156.51940554791668,73.0,114.0
170,156.51940554791668,157.1379625479167,75.0,108.0
171,157.1379625479167,159.3634790875,73.0,108.0
172,158.9936335479167,159.3634790875,73.0,113.0
173,159.30291204791666,159.61219054791667,75.0,108.0
174,159.61219054791667,160.23074754791668,77.0,104.0
175,160.23074754791668,160.8493045479167,80.0,110.0
176,160.8493045479167,161.46786154791667,75.0,108.0
177,161.46786154791667,162.08641854791668,77.0,107.0
178,162.08641854791668,162.39569704791668,73.0,100.0
179,162.39569704791668,163.01425404791667,70.0,94.0
180,163.01425404791667,163.94208954791668,73.0,113.0
181,163.94208954791668,164.25136804791669,75.0,108.0
182,164.25136804791669,164.56064654791666,77.0,104.0
183,164.56064654791666,165.17920354791667,78.0,107.0
184,165.17920354791667,165.79776054791668,82.0,114.0
185,165.79776054791668,166.41631754791666,77.0,114.0
186,166.41631754791666,167.03487454791667,78.0,108.0
187,167.03487454791667,167.35961697291668,77.0,108.0
188,167.34415304791668,167.9614213875,75.0,107.0
189,167.9627100479167,168.89054554791667,75.0,114.0
190,168.89054554791667,169.19982404791668,73.0,108.0
191,169.19982404791668,169.50910254791668,75.0,108.0
192,169.50910254791668,170.12765954791666,77.0,104.0
193,170.12765954791666,170.74621654791667,80.0,113.0
194,170.74621654791667,171.36477354791668,75.0,110.0
195,171.36477354791668,171.98333054791667,77.0,116.0
196,171.98333054791667,172.29260904791667,75.0,108.0
197,172.29260904791667,172.91116604791668,70.0,93.0
198,172.91116604791668,173.83900154791667,73.0,104.0
199,173.83900154791667,174.14828004791667,75.0,110.0
200,174.14828004791667,174.45755854791668,77.0,107.0
201,174.45755854791668,175.0761155479167,78.0,116.0
202,175.0761155479167,175.69467254791667,77.0,117.0
203,175.69467254791667,176.31322954791668,73.0,114.0
204,176.31322954791668,176.9317865479167,75.0,108.0
205,176.9317865479167,178.91761225000002,77.0,108.0
206,179.02843704583333,179.39828258541667,75.0,113.0
207,179.33771554583333,179.62250949791667,77.0,108.0
208,179.64699404583334,180.04390145416667,79.0,104.0
209,180.26555104583335,180.64699452916668,82.0,110.0
210,180.88410804583333,181.28617009583334,77.0,108.0
211,181.50266504583334,181.9034384354167,79.0,107.0
212,182.12122204583335,182.40730465833335,75.0,100.0
213,182.43050054583335,182.65086147708334,72.0,94.0
214,183.04905754583334,183.34931542291667,75.0,113.0
215,183.97689304583335,184.26426431875,77.0,108.0
216,184.28617154583335,184.55679023333334,79.0,104.0
217,184.59545004583333,184.99880075625,80.0,107.0
218,185.21400704583334,185.56581133958335,84.0,114.0
219,185.83256404583335,186.20756422708334,79.0,114.0
220,186.45112104583333,186.91375013541668,80.0,108.0
221,187.06967804583334,187.39442047083335,79.0,108.0
222,187.37895654583335,187.73204950000002,77.0,107.0
223,187.99751354583333,188.2810188375,77.0,114.0
224,188.92534904583334,189.21916362083334,75.0,108.0
225,189.23462754583335,189.4717410625,77.0,108.0
226,189.54390604583335,189.9060196229167,79.0,104.0
227,190.16246304583333,190.51297867916668,82.0,113.0
228,190.78102004583334,191.18437075625002,77.0,110.0
229,191.39957704583335,191.78230918958334,79.0,116.0
230,192.01813404583334,192.232051675,77.0,108.0
231,192.32741254583334,192.60060855416668,72.0,93.0
232,192.94596954583335,193.19210368541667,75.0,104.0
233,193.87380504583334,194.07225875,77.0,110.0
234,194.18308354583334,194.37509394791667,79.0,107.0
235,194.49236204583335,194.85963026458333,80.0,116.0
236,195.11091904583336,195.46658932083335,79.0,117.0
237,197.03617770833335,197.30808505625,80.0,108.0
238,197.65473470833334,197.99494105833335,79.0,108.0
239,199.19210658541667,199.40989019583336,79.0,119.0
240,199.50138508541667,199.84545741666668,80.0,117.0
241,200.11994208541668,200.41762264166667,79.0,123.0
242,200.73849908541666,201.11736524791667,75.0,116.0
243,201.35705608541667,201.71530368125002,77.0,119.0
244,201.97561308541668,202.40602566458335,75.0,117.0
