,start,end,pitch,velocity
0,21.526627145833338,21.66392215,69.0,94.0
1,21.772528645833336,21.977446562500003,76.0,94.0
2,22.018430145833335,22.15162679166667,74.0,97.0
3,22.264331645833337,22.467200383333335,76.0,98.0
4,22.510233145833336,22.63113471666667,74.0,99.0
5,22.756134645833335,22.909823083333336,76.0,97.0
6,23.002036145833337,23.139331150000004,81.0,97.0
7,23.247937645833336,23.38728182916667,76.0,94.0
8,23.493839145833338,23.604494820833338,74.0,99.0
9,23.739740645833336,23.899576620833336,73.0,93.0
10,23.985642145833335,24.129084687500004,74.0,95.0
11,24.231543645833337,24.39547797916667,73.0,97.0
12,24.477445145833336,25.18851031666667,69.0,94.0
13,25.461051145833338,25.610641225000002,66.0,99.0
14,25.706952645833336,25.868837800000005,73.0,94.0
15,25.95285414583334,26.084001612500003,73.0,95.0
16,26.198755645833337,26.336050650000004,73.0,92.0
17,26.444657145833336,26.579902970833338,73.0,92.0
18,26.690558645833338,26.856542158333337,73.0,99.0
19,26.936460145833337,27.06965679166667,71.0,96.0
20,27.182361645833335,27.331951725000003,71.0,98.0
21,27.428263145833338,27.55531225416667,73.0,95.0
22,27.674164645833336,27.83809897916667,74.0,84.0
23,27.92006614583334,28.407770787500002,76.0,101.0
24,28.411869145833336,29.145475287500005,78.0,94.0
25,29.395475145833338,29.606540600000002,74.0,98.0
26,29.641376645833336,29.784819187500005,71.0,99.0
27,29.88727814583334,30.00817971666667,71.0,92.0
28,30.133179645833337,30.260228754166672,71.0,94.0
29,30.379081145833336,30.50817943333334,71.0,93.0
30,30.624982645833338,30.809408770833336,71.0,96.0
31,30.870884145833337,31.540965733333337,79.0,96.0
32,31.608588645833336,32.00817858333334,78.0,96.0
33,32.10039164583334,32.25817844166667,76.0,92.0
34,32.346293145833336,32.981538687500006,78.0,94.0
35,33.32989914583334,33.440554820833334,69.0,94.0
36,33.57580064583334,33.74383333750001,76.0,101.0
37,33.821702145833335,33.99178401666667,78.0,97.0
38,34.06760364583334,34.18645603750001,76.0,103.0
39,34.31350514583334,34.52866895833334,78.0,92.0
40,34.55940664583334,34.67211150000001,76.0,108.0
41,34.80530814583334,35.293012787500004,74.0,97.0
42,35.29711114583334,35.42620943333334,74.0,92.0
43,35.543012645833336,35.92006161250001,71.0,103.0
44,36.03481564583334,36.219241770833335,78.0,99.0
45,36.280717145833336,37.047110154166674,76.0,103.0
46,37.26432314583334,37.42415912083334,69.0,96.0
47,37.51022464583334,37.659814725000004,76.0,98.0
48,37.75612614583334,37.89751950833334,74.0,91.0
49,38.00202764583334,38.1454701875,76.0,96.0
50,38.24792914583334,38.36473235833334,74.0,96.0
51,38.49383064583334,38.643420725000006,76.0,93.0
52,38.73973214583334,38.866781254166675,81.0,92.0
53,38.98563364583334,39.11063357500001,76.0,93.0
54,39.23153514583334,39.34219082083334,74.0,96.0
55,39.477436645833336,39.61268247083334,73.0,92.0
56,39.72333814583334,39.856534791666675,74.0,95.0
57,39.96923964583334,40.12292808333334,73.0,103.0
58,40.215141145833336,40.76841952083334,69.0,95.0
59,41.19874714583334,41.303255283333336,66.0,94.0
60,41.44464864583334,41.51841909583334,73.0,80.0
61,41.69055014583334,41.80735335833334,73.0,94.0
62,41.93645164583334,42.063500754166675,73.0,94.0
63,42.18235314583334,42.27866456666667,73.0,96.0
64,42.42825464583334,42.59423815833334,73.0,103.0
65,42.67415614583334,42.81145115,71.0,94.0
66,42.92005764583334,43.07374608333334,71.0,93.0
67,43.16595914583334,43.28890989583334,73.0,93.0
68,43.411860645833336,43.53481139583334,74.0,97.0
69,43.65776214583334,43.90981118333334,76.0,98.0
70,44.14956514583334,44.627023891666674,78.0,96.0
71,45.13317114583334,45.264318612500006,74.0,101.0
72,45.37907264583334,45.49587585833334,71.0,98.0
73,45.62497414583334,45.76431832916667,71.0,94.0
74,45.87087564583334,46.01226900833334,71.0,92.0
75,46.11677714583334,46.229482000000004,71.0,93.0
76,46.36267864583334,46.47948185833334,71.0,88.0
77,46.608580145833336,47.276612554166675,79.0,94.0
78,47.34628464583334,47.66595659583334,78.0,98.0
79,47.83808764583334,47.97948100833334,76.0,96.0
80,48.08398914583334,48.586038041666676,78.0,98.0
81,49.06759514583334,49.20898850833334,69.0,94.0
82,49.31349664583334,49.48152933750001,76.0,93.0
83,49.55939814583334,49.68849643333334,74.0,103.0
84,49.80529964583334,49.95898808333334,76.0,98.0
85,50.05120114583334,50.184397791666676,74.0,98.0
86,50.29710264583334,50.62292213333334,77.0,93.0
87,50.78890564583334,50.94669244166668,76.0,93.0
88,51.03480714583334,51.245872600000006,74.0,99.0
89,51.28070864583334,51.36882335000001,74.0,81.0
90,51.52661014583334,51.852429633333344,78.0,96.0
91,52.01841314583334,53.24382228750001,74.0,98.0
92,54.72332964583334,54.924149204166675,76.0,93.0
93,54.96923114583334,55.12087040416667,74.0,99.0
94,55.21513264583334,55.70283728750001,81.0,96.0
95,55.70693564583334,55.81349296250001,78.0,93.0
96,55.95283714583334,56.44054178750001,78.0,89.0
97,56.69054164583334,56.840131725000006,78.0,94.0
98,56.936443145833344,57.05734471666668,78.0,92.0
99,57.18234464583334,57.385213383333344,78.0,98.0
100,57.42824614583334,57.58808212083334,76.0,95.0
101,57.674147645833344,57.79709839583334,74.0,96.0
102,57.92004914583334,58.407753787500006,69.0,93.0
103,58.90365514583334,59.05734358333334,69.0,94.0
104,59.14955664583334,59.29299918750001,74.0,96.0
105,59.39545814583334,59.559392479166675,73.0,101.0
106,59.64135964583334,59.80529397916668,71.0,93.0
107,59.88726114583334,60.01840861250001,73.0,97.0
108,60.133162645833345,60.35447399583334,74.0,94.0
109,60.62496564583334,60.78275244166667,73.0,92.0
110,60.870867145833344,60.98767035833334,71.0,94.0
111,61.11676864583334,61.450784850000005,69.0,94.0
112,61.608571645833344,61.768407620833344,78.0,95.0
113,61.85447314583334,62.409800700000005,78.0,89.0
114,62.83807914583334,62.948734820833344,78.0,99.0
115,63.08398064583334,63.44668535833334,76.0,94.0
116,63.57578364583334,63.715127829166676,78.0,99.0
117,63.82168514583334,64.143406275,79.0,95.0
118,64.31348814583335,64.83193047500001,76.0,94.0
119,65.05119264583334,65.44873340416667,78.0,94.0
120,65.54299564583334,65.6741431125,76.0,94.0
121,65.78889714583335,66.1290608875,76.0,97.0
122,66.28070014583334,66.59627373750001,74.0,103.0
123,67.06963412500001,67.29504383333334,79.0,96.0
124,67.37086346250001,67.60856824583334,78.0,95.0
125,67.69053541250001,67.84627302916668,74.0,103.0
126,67.97127295833334,68.28069901250001,71.0,99.0
127,68.42619073333334,68.56758409583334,69.0,94.0
128,68.67619059166668,69.04299366250001,78.0,95.0
129,69.16389523333335,69.80323913333335,76.0,99.0
130,70.46102564583335,70.66184520416668,76.0,93.0
131,70.70692714583335,70.85856640416668,74.0,99.0
132,70.95282864583335,71.4405332875,81.0,96.0
133,71.44463164583334,71.5511889625,78.0,93.0
134,71.69053314583334,72.17823778750001,78.0,89.0
135,72.67413914583334,72.84831937500002,78.0,96.0
136,72.92004064583334,73.10446677083334,76.0,96.0
137,73.16594214583334,73.53274521666668,78.0,93.0
138,73.65774514583335,74.39135128750002,78.0,98.0
139,74.64135114583334,74.79503958333335,69.0,94.0
140,74.88725264583334,75.03069518750002,74.0,96.0
141,75.13315414583334,75.29708847916667,73.0,101.0
142,75.37905564583335,75.54298997916668,71.0,93.0
143,75.62495714583335,75.75610461250001,73.0,97.0
144,75.87085864583334,76.09216999583334,74.0,94.0
145,76.36266164583334,76.52044844166667,73.0,92.0
146,76.60856314583334,76.72536635833335,71.0,94.0
147,76.85446464583335,77.18848085,69.0,94.0
148,77.34626764583335,77.50610362083334,78.0,95.0
149,77.59216914583334,78.1474967,78.0,89.0
150,78.57577514583335,78.68643082083334,78.0,99.0
151,78.82167664583335,79.18438135833334,76.0,94.0
152,79.31347964583334,79.45282382916668,78.0,99.0
153,79.55938114583334,79.88110227500002,79.0,95.0
154,80.05118414583335,80.569626475,76.0,94.0
155,80.78888864583334,81.18642940416667,78.0,94.0
156,81.28069164583334,81.4118391125,76.0,94.0
157,81.52659314583335,81.86675688750002,76.0,97.0
158,82.01839614583335,82.33396973750001,74.0,103.0
159,82.80733012500001,83.03273983333334,79.0,96.0
160,83.10855946250001,83.34626424583334,78.0,95.0
161,83.42823141250001,83.58396902916668,79.0,103.0
162,83.73970664583335,84.22741128750002,74.0,99.0
163,84.23150964583334,84.71921428750001,73.0,94.0
164,84.72331264583335,86.68642628750001,74.0,99.0
165,119.88722714583335,120.04706312083334,69.0,96.0
166,120.13312864583335,120.28271872500001,76.0,98.0
167,120.37903014583335,120.52042350833335,74.0,91.0
168,120.62493164583336,120.76837418750002,76.0,96.0
169,120.87083314583334,120.98763635833335,74.0,96.0
170,121.11673464583335,121.26632472500002,76.0,93.0
171,121.36263614583335,121.48968525416669,81.0,92.0
172,121.60853764583335,121.73353757500001,76.0,93.0
173,121.85443914583335,121.96509482083334,74.0,96.0
174,122.10034064583336,122.23558647083335,73.0,92.0
175,122.34624214583334,122.47943879166668,74.0,95.0
176,122.59214364583335,122.74583208333335,73.0,103.0
177,122.83804514583335,123.39132352083335,69.0,95.0
178,123.82165114583336,123.92615928333335,66.0,94.0
179,124.06755264583335,124.14132309583336,73.0,80.0
180,124.31345414583335,124.43025735833335,73.0,94.0
181,124.55935564583335,124.68640475416669,73.0,94.0
182,124.80525714583335,124.90156856666668,73.0,96.0
183,125.05115864583335,125.21714215833335,73.0,103.0
184,125.29706014583336,125.43435515000002,71.0,94.0
185,125.54296164583334,125.69665008333335,71.0,93.0
186,125.78886314583335,125.91181389583335,73.0,93.0
187,126.03476464583335,126.15771539583335,74.0,97.0
188,126.28066614583335,126.53271518333335,76.0,98.0
189,126.77246914583336,127.24992789166669,78.0,96.0
190,127.75607514583335,127.88722261250001,74.0,101.0
191,128.00197664583334,128.11877985833334,71.0,98.0
192,128.24787814583334,128.3872223291667,71.0,94.0
193,128.49377964583334,128.63517300833334,71.0,92.0
194,128.73968114583334,128.85238600000002,71.0,93.0
195,128.98558264583335,129.10238585833335,71.0,88.0
196,129.23148414583335,129.8995165541667,79.0,94.0
197,129.96918864583336,130.28886059583334,78.0,98.0
198,130.46099164583336,130.60238500833336,76.0,96.0
199,130.70689314583336,131.2089420416667,78.0,98.0
200,131.69049914583334,131.83189250833334,69.0,94.0
201,131.93640064583334,132.1044333375,76.0,93.0
202,132.18230214583335,132.31140043333335,74.0,103.0
203,132.42820364583335,132.58189208333334,76.0,98.0
204,132.67410514583335,132.80730179166667,74.0,98.0
205,132.92000664583335,133.24582613333334,77.0,93.0
206,133.41180964583336,133.56959644166668,76.0,93.0
207,133.65771114583336,133.86877660000002,74.0,99.0
208,133.90361264583336,133.99172735000002,74.0,81.0
209,134.14951414583336,134.47533363333335,78.0,96.0
210,134.64131714583334,135.86672628750003,74.0,98.0
211,137.34623364583337,137.54705320416667,76.0,93.0
212,137.59213514583334,137.7437744041667,74.0,99.0
213,137.83803664583334,138.32574128750002,81.0,96.0
214,138.32983964583335,138.43639696250003,78.0,93.0
215,138.57574114583335,139.06344578750003,78.0,89.0
216,139.31344564583335,139.46303572500003,78.0,94.0
217,139.55934714583336,139.68024871666668,78.0,92.0
218,139.80524864583336,140.00811738333334,78.0,98.0
219,140.05115014583336,140.21098612083335,76.0,95.0
220,140.29705164583336,140.42000239583336,74.0,96.0
221,140.54295314583337,141.03065778750002,69.0,93.0
222,141.52655914583335,141.68024758333334,69.0,94.0
223,141.77246064583335,141.91590318750002,74.0,96.0
224,142.01836214583335,142.1822964791667,73.0,101.0
225,142.26426364583335,142.4281979791667,71.0,93.0
226,142.51016514583335,142.64131261250003,73.0,97.0
227,142.75606664583336,142.97737799583336,74.0,94.0
228,143.24786964583336,143.40565644166668,73.0,92.0
229,143.49377114583336,143.61057435833337,71.0,94.0
230,143.73967264583337,144.07368885000002,69.0,94.0
231,144.23147564583334,144.39131162083336,78.0,95.0
232,144.47737714583334,145.0327047,78.0,89.0
233,145.46098314583335,145.57163882083336,78.0,99.0
234,145.70688464583336,146.06958935833336,76.0,94.0
235,146.19868764583336,146.33803182916668,78.0,99.0
236,146.44458914583336,146.76631027500002,79.0,95.0
237,146.93639214583337,147.454834475,76.0,94.0
238,147.67409664583334,148.0716374041667,78.0,94.0
239,148.16589964583335,148.29704711250002,76.0,94.0
240,148.41180114583335,148.7519648875,76.0,97.0
241,148.90360414583336,149.21917773750002,74.0,103.0
242,149.69253812500003,149.91794783333336,79.0,96.0
243,149.99376746250002,150.23147224583334,78.0,95.0
244,150.31343941250003,150.46917702916667,74.0,103.0
245,150.59417695833335,150.9036030125,71.0,99.0
246,151.04909473333336,151.19048809583336,69.0,94.0
247,151.2990945916667,151.66589766250002,78.0,95.0
248,151.78679923333334,152.42614313333334,76.0,99.0
249,153.08392964583336,153.2847492041667,76.0,93.0
250,153.32983114583337,153.48147040416669,74.0,99.0
251,153.57573264583334,154.06343728750002,81.0,96.0
252,154.06753564583335,154.17409296250003,78.0,93.0
253,154.31343714583335,154.80114178750003,78.0,89.0
254,155.29704314583336,155.47122337500002,78.0,96.0
255,155.54294464583336,155.72737077083335,76.0,96.0
256,155.78884614583336,156.1556492166667,78.0,93.0
257,156.28064914583337,157.01425528750002,78.0,98.0
258,157.26425514583335,157.41794358333337,69.0,94.0
259,157.51015664583335,157.65359918750002,74.0,96.0
260,157.75605814583335,157.9199924791667,73.0,101.0
261,158.00195964583335,158.1658939791667,71.0,93.0
262,158.24786114583335,158.37900861250003,73.0,97.0
263,158.49376264583336,158.71507399583336,74.0,94.0
264,158.98556564583336,159.14335244166668,73.0,92.0
265,159.23146714583336,159.34827035833337,71.0,94.0
266,159.47736864583337,159.81138485000002,69.0,94.0
267,159.96917164583334,160.12900762083336,78.0,95.0
268,160.21507314583334,160.7704007,78.0,89.0
269,161.19867914583335,161.30933482083336,78.0,99.0
270,161.44458064583335,161.80728535833336,76.0,94.0
271,161.93638364583336,162.07572782916668,78.0,99.0
272,162.18228514583336,162.50400627500002,79.0,95.0
273,162.67408814583337,163.192530475,76.0,94.0
274,163.41179264583334,163.8093334041667,78.0,94.0
275,163.90359564583335,164.03474311250002,76.0,94.0
276,164.14949714583335,164.4896608875,76.0,97.0
277,164.64130014583336,164.95687373750002,74.0,103.0
278,165.43023412500003,165.65564383333336,79.0,96.0
279,165.73146346250002,165.96916824583334,78.0,95.0
280,166.05113541250003,166.2068730291667,79.0,103.0
281,166.36261064583334,166.85031528750002,74.0,99.0
282,166.85441364583335,167.34211828750003,73.0,94.0
283,167.34621664583335,169.30933028750002,74.0,99.0
284,170.78883764583335,170.9896572041667,76.0,93.0
285,171.03473914583336,171.1863784041667,74.0,99.0
286,171.28064064583336,171.7683452875,81.0,96.0
287,171.77244364583336,171.87900096250002,78.0,93.0
288,172.01834514583336,172.50604978750002,78.0,89.0
289,172.75604964583334,172.90563972500001,78.0,94.0
290,173.00195114583335,173.1228527166667,78.0,92.0
291,173.24785264583335,173.45072138333336,78.0,98.0
292,173.49375414583335,173.65359012083334,76.0,95.0
293,173.73965564583335,173.86260639583335,74.0,96.0
294,173.98555714583335,174.47326178750004,69.0,93.0
295,174.96916314583336,175.12285158333336,69.0,94.0
296,175.21506464583337,175.3585071875,74.0,96.0
297,175.46096614583337,175.62490047916668,73.0,101.0
298,175.70686764583337,175.87080197916669,71.0,93.0
299,175.95276914583334,176.08391661250002,73.0,97.0
300,176.19867064583335,176.41998199583335,74.0,94.0
301,176.69047364583335,176.8482604416667,73.0,92.0
302,176.93637514583335,177.05317835833335,71.0,94.0
303,177.18227664583335,177.51629285,69.0,94.0
304,177.67407964583336,177.83391562083335,78.0,95.0
305,177.91998114583336,178.47530870000003,78.0,89.0
306,178.90358714583337,179.01424282083335,78.0,99.0
307,179.14948864583334,179.51219335833335,76.0,94.0
308,179.64129164583335,179.7806358291667,78.0,99.0
309,179.88719314583335,180.208914275,79.0,95.0
310,180.37899614583336,180.89743847500003,76.0,94.0
311,181.11670064583336,181.51424140416668,78.0,94.0
312,181.60850364583337,181.7396511125,76.0,94.0
313,181.85440514583337,182.19456888750003,76.0,97.0
314,182.34620814583334,182.66178173750004,74.0,103.0
315,183.13514212500002,183.36055183333335,79.0,96.0
316,183.43637146250003,183.67407624583336,78.0,95.0
317,183.75604341250002,183.9117810291667,74.0,103.0
318,184.03678095833337,184.34620701250003,71.0,99.0
319,184.49169873333335,184.63309209583335,69.0,94.0
320,184.7416985916667,185.10850166250003,78.0,95.0
321,185.22940323333336,185.86874713333336,76.0,99.0
322,186.52653364583335,186.7273532041667,76.0,93.0
323,186.77243514583336,186.9240744041667,74.0,99.0
324,187.01833664583336,187.50604128750004,81.0,96.0
325,187.51013964583336,187.61669696250001,78.0,93.0
326,187.75604114583336,188.24374578750002,78.0,89.0
327,188.73964714583335,188.91382737500004,78.0,96.0
328,188.98554864583335,189.16997477083336,76.0,96.0
329,189.23145014583335,189.5982532166667,78.0,93.0
330,189.72325314583335,190.45685928750004,78.0,98.0
331,190.70685914583336,190.86054758333336,69.0,94.0
332,190.95276064583337,191.09620318750004,74.0,96.0
333,191.19866214583337,191.36259647916668,73.0,101.0
334,191.44456364583337,191.60849797916669,71.0,93.0
335,191.69046514583337,191.82161261250002,73.0,97.0
336,191.93636664583335,192.15767799583335,74.0,94.0
337,192.42816964583335,192.5859564416667,73.0,92.0
338,192.67407114583335,192.79087435833335,71.0,94.0
339,192.91997264583335,193.25398885,69.0,94.0
340,193.41177564583336,193.57161162083335,78.0,95.0
341,193.65767714583336,194.21300470000003,78.0,89.0
342,194.64128314583337,194.75193882083337,78.0,99.0
343,194.88718464583337,195.24988935833335,76.0,94.0
344,195.37898764583335,195.5183318291667,78.0,99.0
345,195.62488914583335,195.94661027500004,79.0,95.0
346,196.11669214583335,196.63513447500003,76.0,94.0
347,196.85439664583336,197.25193740416668,78.0,94.0
348,197.34619964583337,197.4773471125,76.0,94.0
349,197.59210114583337,197.93226488750003,76.0,97.0
350,198.08390414583337,198.39947773750004,74.0,103.0
351,198.87283812500002,199.09824783333335,79.0,96.0
352,199.17406746250003,199.41177224583336,78.0,95.0
353,199.49373941250002,199.6494770291667,79.0,103.0
354,199.80521464583336,200.29291928750004,74.0,99.0
355,200.29701764583336,200.78472228750002,73.0,94.0
356,200.78882064583337,202.75193428750003,74.0,99.0
