,start,end,pitch,velocity
0,4.559423645833334,4.8524562666666675,55.0,91.0
1,4.805325145833334,5.110652841666667,57.0,86.0
2,5.051226645833334,5.293029787500001,58.0,95.0
3,5.297128145833334,5.5389312875000005,66.0,106.0
4,5.543029645833334,5.784832787500001,64.0,93.0
5,5.788931145833334,6.0307342875000005,62.0,98.0
6,4.313522145833334,6.086062125000001,50.0,85.0
7,6.034832645833334,6.086062125000001,50.0,94.0
8,4.067620645833334,6.104504737500001,43.0,93.0
9,6.526635645833334,6.823766625000001,62.0,86.0
10,6.280734145833335,7.3114712666666675,57.0,85.0
11,7.2643401458333345,7.657782545833334,62.0,92.0
12,7.510241645833334,7.905733225000001,57.0,88.0
13,7.7561431458333345,8.028683975000002,62.0,84.0
14,6.7725371458333345,8.1208970375,69.0,96.0
15,8.493847645833334,8.811470416666667,55.0,92.0
16,8.739749145833335,8.991798183333335,57.0,86.0
17,8.985650645833335,9.055322737500001,58.0,98.0
18,9.231552145833335,9.358601254166668,66.0,93.0
19,8.002044645833335,9.727453504166668,43.0,93.0
20,9.477453645833334,9.729502683333335,64.0,97.0
21,8.247946145833334,9.731551862500002,50.0,89.0
22,9.723355145833334,9.954912391666667,62.0,91.0
23,10.461059645833334,10.786879133333334,62.0,91.0
24,11.198764145833335,11.540977066666668,66.0,97.0
25,10.706961145833334,11.545075425000002,69.0,98.0
26,9.969256645833335,11.913927675000002,50.0,96.0
27,10.215158145833335,11.915976854166669,57.0,81.0
28,11.444665645833334,12.002042379166669,62.0,86.0
29,12.428271645833336,12.860648450000001,55.0,85.0
30,12.674173145833334,13.221303983333335,57.0,86.0
31,11.936468645833335,13.659828325000001,43.0,94.0
32,13.165976145833335,13.665975862500002,58.0,88.0
33,13.411877645833336,13.696713550000002,55.0,85.0
34,12.182370145833335,13.711057804166668,50.0,87.0
35,13.657779145833334,14.040975650000002,62.0,92.0
36,13.903680645833335,14.040975650000002,62.0,94.0
37,13.903680645833335,14.469254095833335,50.0,96.0
38,14.395483645833336,14.543024545833335,62.0,88.0
39,14.149582145833335,14.557368800000003,57.0,88.0
40,14.641385145833336,15.024581650000002,49.0,96.0
41,14.641385145833336,15.051220979166668,61.0,91.0
42,15.133188145833335,15.745892716666669,47.0,95.0
43,15.133188145833335,15.836056600000003,59.0,87.0
44,15.133188145833335,15.858597570833336,62.0,90.0
45,15.870892645833335,16.1495810125,60.0,83.0
46,15.870892645833335,16.407777587500004,64.0,87.0
47,16.362695645833334,16.668023341666668,60.0,81.0
48,16.116794145833335,16.780728195833337,55.0,86.0
49,16.608597145833336,16.9610559625,64.0,95.0
50,16.854498645833335,17.31966231666667,55.0,74.0
51,15.870892645833335,17.34425246666667,48.0,92.0
52,17.100400145833337,17.438514708333337,67.0,96.0
53,17.346301645833336,17.635235908333335,60.0,86.0
54,17.592203145833334,17.932366887500002,64.0,92.0
55,17.838104645833337,18.34015354166667,45.0,93.0
56,18.329907645833337,19.09015311666667,69.0,83.0
57,18.084006145833335,19.270480883333335,52.0,70.0
58,18.821710645833335,19.309415287500002,59.0,94.0
59,19.067612145833337,19.3770382,67.0,92.0
60,18.553268175000003,19.645480670833336,45.0,93.0
61,19.313513645833336,19.690562612500003,62.0,93.0
62,20.051218145833335,20.282775391666668,58.0,85.0
63,20.297119645833337,20.508185100000002,61.0,88.0
64,20.543021145833336,20.7848242875,64.0,86.0
65,19.805316645833337,21.381135425000004,49.0,84.0
66,20.788922645833335,21.790971258333336,67.0,88.0
67,22.264331645833337,22.424167620833337,62.0,86.0
68,22.510233145833336,22.60654456666667,66.0,101.0
69,23.002036145833337,23.112691820833337,64.0,93.0
70,21.772528645833336,23.528675191666668,50.0,94.0
71,22.018430145833335,23.57170795416667,57.0,79.0
72,23.247937645833336,24.02662572916667,62.0,93.0
73,24.231543645833337,24.434412383333335,62.0,92.0
74,24.477445145833336,24.651625375000002,64.0,92.0
75,23.985642145833335,25.057362850000004,57.0,80.0
76,23.739740645833336,25.11473986666667,50.0,96.0
77,24.969248145833337,25.235641437500004,66.0,95.0
78,25.215149645833336,25.321706962500002,64.0,99.0
79,25.706952645833336,26.022526237500003,59.0,86.0
80,25.706952645833336,26.217198258333337,62.0,88.0
81,26.198755645833337,26.35039490416667,59.0,88.0
82,26.444657145833336,26.588099687500005,61.0,94.0
83,26.936460145833337,27.036869925000005,62.0,87.0
84,25.706952645833336,27.514328670833336,47.0,90.0
85,25.95285414583334,27.577853225000005,54.0,77.0
86,27.674164645833336,27.91186942916667,59.0,83.0
87,27.674164645833336,27.938508758333338,62.0,88.0
88,28.165967645833337,28.28891839583334,59.0,91.0
89,28.411869145833336,28.534819895833337,61.0,103.0
90,27.92006614583334,28.905721325000005,54.0,80.0
91,27.674164645833336,28.922114758333336,47.0,94.0
92,28.903672145833337,29.151622825000004,62.0,94.0
93,29.14957364583334,29.381130891666672,61.0,106.0
94,29.395475145833338,29.94670434166667,62.0,88.0
95,30.133179645833337,30.27252382916667,55.0,97.0
96,29.88727814583334,30.66596622916667,50.0,86.0
97,30.379081145833336,30.91186772916667,55.0,95.0
98,30.379081145833336,31.12703154166667,62.0,93.0
99,30.870884145833337,31.239736395833337,50.0,86.0
100,29.641376645833336,31.26842490416667,43.0,92.0
101,31.11678564583334,31.379080579166672,55.0,93.0
102,31.362687145833338,31.782768875000006,62.0,82.0
103,31.85449014583334,32.18030963333334,57.0,87.0
104,32.10039164583334,32.43850620833334,62.0,87.0
105,32.346293145833336,32.5143258375,64.0,95.0
106,32.83809614583334,33.1536697375,66.0,95.0
107,31.608588645833336,33.178259887500005,50.0,93.0
108,33.083997645833335,33.35858765416667,62.0,88.0
109,33.32989914583334,33.51842362916667,57.0,83.0
110,34.06760364583334,34.41596410416667,60.0,92.0
111,34.31350514583334,34.79506225000001,67.0,96.0
112,33.821702145833335,34.92006217916667,55.0,83.0
113,33.57580064583334,34.997930987500006,48.0,96.0
114,34.80530814583334,35.0163736,64.0,97.0
115,35.05120964583334,35.36473405833334,60.0,92.0
116,36.03481564583334,36.22948766666667,61.0,88.0
117,35.29711114583334,36.41801215,67.0,92.0
118,36.280717145833336,36.74178245833334,57.0,86.0
119,35.78891414583334,36.86473320833334,52.0,83.0
120,35.543012645833336,37.19874941250001,45.0,93.0
121,37.018421645833335,37.24383135416667,52.0,85.0
122,37.26432314583334,37.370880462500004,57.0,80.0
123,36.77252014583334,37.401618150000004,64.0,94.0
124,38.00202764583334,38.29096190833334,62.0,81.0
125,38.24792914583334,38.647519083333336,64.0,94.0
126,38.73973214583334,39.01432215416667,66.0,98.0
127,37.51022464583334,39.282764625000006,50.0,99.0
128,37.75612614583334,39.30325641666667,57.0,78.0
129,39.23153514583334,39.78891187916667,62.0,86.0
130,39.96923964583334,40.10448547083334,62.0,80.0
131,40.215141145833336,40.465141004166675,62.0,92.0
132,40.215141145833336,40.51637048333334,69.0,94.0
133,39.72333814583334,40.80325556666667,57.0,78.0
134,39.477436645833336,40.86882930000001,50.0,94.0
135,40.70694414583334,40.87087847916667,62.0,88.0
136,40.70694414583334,40.944648929166675,66.0,94.0
137,41.44464864583334,41.77046813333334,59.0,86.0
138,41.44464864583334,41.91800903333334,62.0,86.0
139,41.93645164583334,42.10653351666667,59.0,92.0
140,42.18235314583334,42.33604158333334,61.0,97.0
141,42.67415614583334,42.868828166666674,62.0,91.0
142,41.44464864583334,43.223336162500004,47.0,90.0
143,41.69055014583334,43.23153287916667,54.0,84.0
144,43.16595914583334,43.61677856250001,59.0,95.0
145,43.90366364583334,44.06349962083334,59.0,91.0
146,44.14956514583334,44.561450158333336,61.0,94.0
147,43.65776214583334,44.57579441250001,54.0,82.0
148,43.411860645833336,44.71308941666667,47.0,94.0
149,44.64136814583334,44.80530247916667,62.0,92.0
150,45.13317114583334,45.208990775000004,59.0,77.0
151,45.37907264583334,45.69464623750001,55.0,93.0
152,45.37907264583334,45.89751497500001,59.0,92.0
153,45.87087564583334,46.028662441666675,55.0,88.0
154,46.11677714583334,46.40161305000001,55.0,93.0
155,46.11677714583334,46.42210484166667,62.0,90.0
156,46.608580145833336,46.78480955416667,55.0,93.0
157,46.608580145833336,46.79300627083334,59.0,93.0
158,45.62497414583334,46.85448164583334,50.0,82.0
159,45.37907264583334,46.905711125,43.0,92.0
160,47.34628464583334,47.48562882916667,57.0,88.0
161,47.34628464583334,47.62497301250001,62.0,91.0
162,47.59218614583334,47.89341548333334,57.0,85.0
163,47.83808764583334,48.09628422083334,62.0,87.0
164,48.08398914583334,48.58193968333334,66.0,97.0
165,47.34628464583334,48.74177565833334,50.0,97.0
166,48.57579214583334,48.79095595833334,62.0,93.0
167,48.82169364583334,48.93849685833334,57.0,88.0
168,49.31349664583334,49.524562100000004,55.0,86.0
169,49.31349664583334,49.76431606250001,58.0,84.0
170,49.80529964583334,50.14751256666667,55.0,94.0
171,50.05120114583334,50.323741975000004,58.0,94.0
172,50.29710264583334,50.55529922083334,62.0,91.0
173,50.54300414583334,50.87906952916667,67.0,92.0
174,49.31349664583334,50.922102291666675,43.0,93.0
175,49.55939814583334,50.93439736666667,50.0,83.0
176,50.78890564583334,51.217184091666674,62.0,84.0
177,51.77251164583334,52.040954116666676,62.0,83.0
178,52.01841314583334,52.39956047083334,64.0,95.0
179,51.52661014583334,52.51431450416668,57.0,78.0
180,51.28070864583334,52.59013413333334,50.0,98.0
181,52.51021614583334,52.77456025833334,66.0,108.0
182,52.75611764583334,52.88521593333334,62.0,92.0
183,53.24792064583334,53.49177296666667,57.0,88.0
184,53.24792064583334,53.56554341666667,60.0,87.0
185,53.739723645833344,54.088084104166676,57.0,83.0
186,53.98562514583334,54.26636269166667,60.0,87.0
187,54.47742814583334,54.71513292916667,60.0,89.0
188,54.23152664583334,54.71923128750001,64.0,94.0
189,54.72332964583334,55.180296600000005,69.0,97.0
190,53.49382214583334,55.211034287500006,52.0,86.0
191,53.24792064583334,55.22332936250001,45.0,92.0
192,54.96923114583334,55.22742772083334,64.0,90.0
193,55.70693564583334,55.96718140000001,62.0,94.0
194,55.95283714583334,56.14341080833334,64.0,93.0
195,55.46103414583334,56.34013200833334,57.0,81.0
196,56.19873864583334,56.34423036666667,66.0,108.0
197,55.21513264583334,56.84832844166667,50.0,96.0
198,56.44464014583334,56.92619725000001,57.0,86.0
199,56.69054164583334,57.196688900000005,62.0,88.0
200,57.18234464583334,57.764311529166676,69.0,92.0
201,57.674147645833344,57.95283601250001,61.0,88.0
202,57.18234464583334,58.413901325000005,54.0,93.0
203,57.92004914583334,58.54504879166667,66.0,103.0
204,58.41185214583334,58.663901183333344,61.0,84.0
205,58.90365514583334,59.143409108333344,61.0,88.0
206,58.65775364583334,59.15570418333334,69.0,93.0
207,59.64135964583334,59.99586764166668,55.0,94.0
208,59.39545814583334,60.233572425000006,50.0,80.0
209,59.88726114583334,60.35652317500001,62.0,96.0
210,60.37906414583334,60.88521140000001,50.0,88.0
211,59.14955664583334,60.89135893750001,43.0,93.0
212,60.62496564583334,60.98971953750001,55.0,95.0
213,60.870867145833344,61.14545715416668,62.0,94.0
214,61.36267014583334,61.72332567916668,57.0,91.0
215,61.608571645833344,61.860620683333345,62.0,86.0
216,61.85447314583334,62.24381718750001,64.0,95.0
217,62.34627614583334,62.61062025833334,62.0,93.0
218,61.11676864583334,62.823734891666675,50.0,98.0
219,62.59217764583334,62.860620116666674,57.0,91.0
220,62.83807914583334,63.07168557083334,66.0,89.0
221,63.329882145833345,63.70283275416668,59.0,81.0
222,63.57578364583334,63.848324475000005,64.0,85.0
223,63.08398064583334,64.23152097916667,52.0,96.0
224,63.82168514583334,64.36061926666667,67.0,94.0
225,64.31348814583335,64.56553718333335,64.0,93.0
226,64.55938964583335,64.70283218750001,59.0,92.0
227,65.05119264583334,65.35242198333334,59.0,92.0
228,65.05119264583334,65.58193005000001,62.0,92.0
229,65.54299564583334,65.89135610416668,59.0,93.0
230,65.29709414583334,66.11881499166668,54.0,76.0
231,65.05119264583334,66.20488051666668,47.0,94.0
232,65.78889714583335,66.33397880416668,66.0,99.0
233,66.28070014583334,66.52250328750002,62.0,98.0
234,66.52660164583334,66.68029008333335,59.0,89.0
235,67.01840464583334,67.30528972916667,55.0,88.0
236,67.01840464583334,67.56143712500001,62.0,90.0
237,67.51020764583335,67.83192877500001,55.0,89.0
238,67.26430614583334,68.12905975416668,50.0,88.0
239,67.75610914583335,68.52864969166667,59.0,98.0
240,68.49381364583334,68.75815775833334,55.0,93.0
241,67.01840464583334,68.77250201250001,43.0,93.0
242,68.24791214583334,68.82168231250002,50.0,89.0
243,68.73971514583334,68.95078060000002,62.0,86.0
244,69.47741964583334,69.55528845416667,55.0,79.0
245,69.47741964583334,69.5716818875,57.0,80.0
246,69.72332114583334,70.07577996250001,59.0,103.0
247,70.21512414583334,70.37496012083334,61.0,99.0
248,70.21512414583334,70.39340273333335,57.0,89.0
249,68.98561664583335,70.71512386250001,45.0,95.0
250,69.23151814583335,70.76020580416667,52.0,85.0
251,70.95282864583335,71.11061544166668,57.0,86.0
252,70.95282864583335,71.26225470000001,62.0,92.0
253,71.19873014583334,71.50405784166668,57.0,83.0
254,71.44463164583334,71.59832008333335,62.0,85.0
255,71.69053314583334,71.92209039166667,64.0,99.0
256,70.95282864583335,72.5102048125,50.0,97.0
257,72.18233614583335,72.67004078750001,66.0,95.0
258,72.67413914583334,72.77045056666668,57.0,77.0
259,72.92004064583334,73.17823722083334,66.0,93.0
260,73.65774514583335,73.96717120000001,61.0,97.0
261,74.14954814583335,74.40159718333334,57.0,86.0
262,72.92004064583334,74.45282666250002,42.0,97.0
263,73.16594214583334,74.53889218750001,49.0,82.0
264,74.39544964583334,74.73766256666667,66.0,97.0
265,74.64135114583334,74.80938383750001,57.0,86.0
266,75.37905564583335,75.68438334166667,55.0,94.0
267,75.62495714583335,75.90569469166668,59.0,94.0
268,75.13315414583334,76.26020268750001,50.0,91.0
269,76.11676014583334,76.28684201666668,55.0,87.0
270,76.11676014583334,76.31143216666668,59.0,93.0
271,76.11676014583334,76.34012067500001,62.0,88.0
272,76.36266164583334,76.610612325,50.0,89.0
273,74.88725264583334,76.61471068333334,43.0,91.0
274,76.60856314583334,76.78479255416667,55.0,96.0
275,77.10036614583335,77.45487414166668,57.0,88.0
276,77.34626764583335,77.50405444166668,62.0,92.0
277,77.59216914583334,77.67208713333335,64.0,97.0
278,78.08397214583334,78.34216872083334,66.0,94.0
279,76.85446464583335,78.46307029166668,50.0,93.0
280,78.32987364583335,78.48356208333334,62.0,85.0
281,78.57577514583335,78.69462753750001,57.0,76.0
282,78.82167664583335,78.99380769583334,59.0,91.0
283,78.82167664583335,79.08806993750001,64.0,91.0
284,79.06757814583334,79.36265994583334,59.0,86.0
285,79.31347964583334,79.39954517083335,64.0,75.0
286,78.82167664583335,79.84831540833335,52.0,94.0
287,79.55938114583334,79.92618421666668,67.0,93.0
288,80.05118414583335,80.17003653750001,64.0,99.0
289,80.78888864583334,81.05938029583335,59.0,92.0
290,80.78888864583334,81.25610149583335,62.0,95.0
291,81.28069164583334,81.38110142500001,59.0,87.0
292,81.03479014583334,81.86675688750002,54.0,75.0
293,80.78888864583334,82.01224860833335,47.0,93.0
294,81.52659314583335,82.05528137083334,66.0,97.0
295,82.01839614583335,82.241756675,62.0,93.0
296,82.26429764583334,82.35651070833335,59.0,91.0
297,82.75610064583334,83.2683954375,62.0,90.0
298,83.24790364583335,83.60036246250002,58.0,88.0
299,82.75610064583334,83.60651000000001,55.0,87.0
300,83.49380514583335,83.97126389166668,67.0,92.0
301,83.98560814583334,84.29503420000002,62.0,93.0
302,83.00200214583334,84.46101771250001,50.0,86.0
303,82.75610064583334,84.48150950416668,43.0,94.0
304,84.23150964583334,84.57167338750001,58.0,95.0
305,84.47741114583334,84.66798480833334,55.0,90.0
306,84.96921414583335,85.28478773750001,57.0,83.0
307,85.21511564583335,85.46716468333335,62.0,87.0
308,85.46101714583334,85.58806625416668,64.0,95.0
309,85.95282014583334,86.21101672083334,66.0,101.0
310,86.19872164583334,86.39339366666668,62.0,81.0
311,84.72331264583335,86.50609852083335,50.0,97.0
312,86.44462314583335,86.72126233333334,57.0,91.0
313,87.18232764583334,87.47536026666668,55.0,91.0
314,87.42822914583334,87.73355684166668,57.0,86.0
315,87.67413064583334,87.91593378750001,58.0,95.0
316,87.92003214583335,88.16183528750001,66.0,106.0
317,88.16593364583335,88.40773678750001,64.0,93.0
318,88.41183514583335,88.65363828750002,62.0,98.0
319,86.93642614583335,88.70896612500002,50.0,85.0
320,88.65773664583334,88.70896612500002,50.0,94.0
321,86.69052464583335,88.72740873750001,43.0,93.0
322,89.14953964583334,89.44667062500001,62.0,86.0
323,88.90363814583334,89.93437526666668,57.0,85.0
324,89.88724414583335,90.28068654583335,62.0,92.0
325,90.13314564583335,90.52863722500001,57.0,88.0
326,90.37904714583334,90.65158797500001,62.0,84.0
327,89.39544114583335,90.7438010375,69.0,96.0
328,91.11675164583335,91.43437441666669,55.0,92.0
329,91.36265314583335,91.61470218333335,57.0,86.0
330,91.60855464583335,91.67822673750001,58.0,98.0
331,91.85445614583334,91.98150525416668,66.0,93.0
332,90.62494864583334,92.35035750416668,43.0,93.0
333,92.10035764583334,92.35240668333334,64.0,97.0
334,90.87085014583334,92.35445586250002,50.0,89.0
335,92.34625914583334,92.57781639166667,62.0,91.0
336,93.08396364583335,93.40978313333335,62.0,91.0
337,93.82166814583334,94.16388106666668,66.0,97.0
338,93.32986514583335,94.16797942500001,69.0,98.0
339,92.59216064583335,94.53683167500002,50.0,96.0
340,92.83806214583335,94.53888085416668,57.0,81.0
341,94.06756964583334,94.62494637916667,62.0,86.0
342,95.05117564583334,95.48355245000002,55.0,85.0
343,95.29707714583334,95.84420798333335,57.0,86.0
344,94.55937264583335,96.28273232500001,43.0,94.0
345,95.78888014583335,96.28887986250001,58.0,88.0
346,96.03478164583335,96.31961755000002,55.0,85.0
347,94.80527414583335,96.33396180416668,50.0,87.0
348,96.28068314583335,96.66387965000001,62.0,92.0
349,96.52658464583335,96.66387965000001,62.0,94.0
350,96.52658464583335,97.09215809583334,50.0,96.0
351,97.01838764583334,97.16592854583335,62.0,88.0
352,96.77248614583334,97.18027280000001,57.0,88.0
353,97.26428914583335,97.64748565000001,49.0,96.0
354,97.26428914583335,97.67412497916668,61.0,91.0
355,97.75609214583335,98.36879671666668,47.0,95.0
356,97.75609214583335,98.45896060000001,59.0,87.0
357,97.75609214583335,98.48150157083334,62.0,90.0
358,98.49379664583334,98.77248501250001,60.0,83.0
359,98.49379664583334,99.03068158750001,64.0,87.0
360,98.98559964583335,99.29092734166667,60.0,81.0
361,98.73969814583334,99.40363219583335,55.0,86.0
362,99.23150114583335,99.58395996250002,64.0,95.0
363,99.47740264583335,99.94256631666669,55.0,74.0
364,98.49379664583334,99.96715646666668,48.0,92.0
365,99.72330414583335,100.06141870833335,67.0,96.0
366,99.96920564583334,100.25813990833335,60.0,86.0
367,100.21510714583334,100.55527088750001,64.0,92.0
368,100.95281164583335,101.71305711666668,57.0,83.0
369,101.19871314583335,101.74789316250002,61.0,94.0
370,100.46100864583335,101.85854883750001,45.0,93.0
371,100.70691014583335,101.89338488333335,52.0,70.0
372,101.69051614583334,101.99994220000002,64.0,92.0
373,101.93641764583334,102.31346661250001,61.0,93.0
374,102.92002364583335,103.21305626666668,55.0,91.0
375,103.16592514583334,103.47125284166668,57.0,86.0
376,103.41182664583334,103.65362978750001,58.0,95.0
377,103.65772814583335,103.89953128750001,66.0,106.0
378,103.90362964583335,104.14543278750001,64.0,93.0
379,104.14953114583335,104.39133428750002,62.0,98.0
380,102.67412214583335,104.44666212500002,50.0,85.0
381,104.39543264583335,104.44666212500002,50.0,94.0
382,102.42822064583335,104.46510473750001,43.0,93.0
383,104.88723564583334,105.18436662500001,62.0,86.0
384,104.64133414583334,105.67207126666668,57.0,85.0
385,105.62494014583335,106.01838254583335,62.0,92.0
386,105.87084164583335,106.26633322500001,57.0,88.0
387,106.11674314583335,106.38928397500001,62.0,84.0
388,105.13313714583335,106.48149703750002,69.0,96.0
389,106.85444764583335,107.17207041666668,55.0,92.0
390,107.10034914583335,107.35239818333335,57.0,86.0
391,107.34625064583335,107.41592273750001,58.0,98.0
392,107.59215214583335,107.71920125416668,66.0,93.0
393,106.36264464583334,108.08805350416668,43.0,93.0
394,107.83805364583334,108.09010268333334,64.0,97.0
395,106.60854614583334,108.09215186250002,50.0,89.0
396,108.08395514583334,108.31551239166669,62.0,91.0
397,108.82165964583335,109.14747913333335,62.0,91.0
398,109.55936414583334,109.90157706666668,66.0,97.0
399,109.06756114583335,109.90567542500001,69.0,98.0
400,108.32985664583335,110.27452767500002,50.0,96.0
401,108.57575814583335,110.27657685416668,57.0,81.0
402,109.80526564583334,110.36264237916669,62.0,86.0
403,110.78887164583335,111.22124845000002,55.0,85.0
404,111.03477314583334,111.58190398333335,57.0,86.0
405,110.29706864583335,112.02042832500001,43.0,94.0
406,111.52657614583335,112.02657586250001,58.0,88.0
407,111.77247764583335,112.05731355000002,55.0,85.0
408,110.54297014583335,112.07165780416668,50.0,87.0
409,112.01837914583335,112.40157565000001,62.0,92.0
410,112.26428064583335,112.40157565000001,62.0,94.0
411,112.26428064583335,112.82985409583335,50.0,96.0
412,112.75608364583334,112.90362454583335,62.0,88.0
413,112.51018214583335,112.91796880000001,57.0,88.0
414,113.00198514583334,113.38518165000002,49.0,96.0
415,113.00198514583334,113.41182097916668,61.0,91.0
416,113.49378814583335,114.10649271666668,47.0,95.0
417,113.49378814583335,114.19665660000001,59.0,87.0
418,113.49378814583335,114.21919757083334,62.0,90.0
419,114.23149264583334,114.51018101250001,60.0,83.0
420,114.23149264583334,114.76837758750001,64.0,87.0
421,114.72329564583335,115.02862334166669,60.0,81.0
422,114.47739414583334,115.14132819583335,55.0,86.0
423,114.96919714583335,115.32165596250002,64.0,95.0
424,115.21509864583335,115.68026231666668,55.0,74.0
425,114.23149264583334,115.70485246666668,48.0,92.0
426,115.46100014583335,115.79911470833335,67.0,96.0
427,115.70690164583336,115.99583590833335,60.0,86.0
428,115.95280314583334,116.29296688750001,64.0,92.0
429,116.69050764583335,117.45075311666669,57.0,83.0
430,116.93640914583335,117.48558916250002,61.0,94.0
431,116.19870464583335,117.59624483750001,45.0,93.0
432,116.44460614583335,117.63108088333335,52.0,70.0
433,117.42821214583334,117.73763820000002,64.0,92.0
434,117.67411364583334,118.05116261250002,61.0,93.0
435,118.16591664583335,118.39747389166668,61.0,85.0
436,118.41181814583335,118.62288360000002,64.0,88.0
437,118.65771964583335,118.84214577083335,67.0,86.0
438,118.16591664583335,119.74173542500002,49.0,84.0
439,118.90362114583336,119.90566975833335,69.0,88.0
440,120.62493164583336,120.91386590833335,62.0,81.0
441,120.87083314583334,121.27042308333336,64.0,94.0
442,121.36263614583335,121.63722615416668,66.0,98.0
443,120.13312864583335,121.90566862500002,50.0,99.0
444,120.37903014583335,121.92616041666669,57.0,78.0
445,121.85443914583335,122.41181587916668,62.0,86.0
446,122.59214364583335,122.72738947083334,62.0,80.0
447,122.83804514583335,123.08804500416669,62.0,92.0
448,122.83804514583335,123.13927448333335,69.0,94.0
449,122.34624214583334,123.42615956666668,57.0,78.0
450,122.10034064583336,123.49173330000002,50.0,94.0
451,123.32984814583335,123.49378247916668,62.0,88.0
452,123.32984814583335,123.56755292916668,66.0,94.0
453,124.06755264583335,124.39337213333334,59.0,86.0
454,124.06755264583335,124.54091303333335,62.0,86.0
455,124.55935564583335,124.72943751666668,59.0,92.0
456,124.80525714583335,124.95894558333335,61.0,97.0
457,125.29706014583336,125.49173216666668,62.0,91.0
458,124.06755264583335,125.84624016250002,47.0,90.0
459,124.31345414583335,125.85443687916668,54.0,84.0
460,125.78886314583335,126.23968256250002,59.0,95.0
461,126.52656764583335,126.68640362083335,59.0,91.0
462,126.77246914583336,127.18435415833335,61.0,94.0
463,126.28066614583335,127.19869841250002,54.0,82.0
464,126.03476464583335,127.33599341666668,47.0,94.0
465,127.26427214583335,127.42820647916669,62.0,92.0
466,127.75607514583335,127.83189477500002,59.0,77.0
467,128.00197664583334,128.31755023750003,55.0,93.0
468,128.00197664583334,128.520418975,59.0,92.0
469,128.49377964583334,128.6515664416667,55.0,88.0
470,128.73968114583334,129.02451705000001,55.0,93.0
471,128.73968114583334,129.0450088416667,62.0,90.0
472,129.23148414583335,129.4077135541667,55.0,93.0
473,129.23148414583335,129.41591027083336,59.0,93.0
474,128.24787814583334,129.47738564583335,50.0,82.0
475,128.00197664583334,129.52861512500002,43.0,92.0
476,129.96918864583336,130.10853282916668,57.0,88.0
477,129.96918864583336,130.24787701250003,62.0,91.0
478,130.21509014583336,130.51631948333335,57.0,85.0
479,130.46099164583336,130.71918822083336,62.0,87.0
480,130.70689314583336,131.20484368333334,66.0,97.0
481,129.96918864583336,131.36467965833336,50.0,97.0
482,131.19869614583334,131.41385995833335,62.0,93.0
483,131.44459764583334,131.56140085833334,57.0,88.0
484,131.93640064583334,132.14746610000003,55.0,86.0
485,131.93640064583334,132.3872200625,58.0,84.0
486,132.42820364583335,132.77041656666668,55.0,94.0
487,132.67410514583335,132.94664597500002,58.0,94.0
488,132.92000664583335,133.17820322083335,62.0,91.0
489,133.16590814583336,133.5019735291667,67.0,92.0
490,131.93640064583334,133.54500629166668,43.0,93.0
491,132.18230214583335,133.55730136666668,50.0,83.0
492,133.41180964583336,133.84008809166667,62.0,84.0
493,134.39541564583334,134.6638581166667,62.0,83.0
494,134.64131714583334,135.02246447083334,64.0,95.0
495,134.14951414583336,135.1372185041667,57.0,78.0
496,133.90361264583336,135.21303813333336,50.0,98.0
497,135.13312014583335,135.39746425833334,66.0,108.0
498,135.37902164583335,135.50811993333335,62.0,92.0
499,135.87082464583335,136.11467696666668,57.0,88.0
500,135.87082464583335,136.1884474166667,60.0,87.0
501,136.36262764583336,136.7109881041667,57.0,83.0
502,136.60852914583336,136.88926669166668,60.0,87.0
503,137.10033214583336,137.3380369291667,60.0,89.0
504,136.85443064583336,137.3421352875,64.0,94.0
505,137.34623364583337,137.80320060000003,69.0,97.0
506,136.11672614583335,137.83393828750002,52.0,86.0
507,135.87082464583335,137.84623336250002,45.0,92.0
508,137.59213514583334,137.85033172083334,64.0,90.0
509,138.32983964583335,138.59008540000002,62.0,94.0
510,138.57574114583335,138.76631480833336,64.0,93.0
511,138.08393814583334,138.96303600833335,57.0,81.0
512,138.82164264583335,138.9671343666667,66.0,108.0
513,137.83803664583334,139.47123244166667,50.0,96.0
514,139.06754414583335,139.54910125,57.0,86.0
515,139.31344564583335,139.81959290000003,62.0,88.0
516,139.80524864583336,140.3872155291667,69.0,92.0
517,140.29705164583336,140.5757400125,61.0,88.0
518,139.80524864583336,141.03680532500002,54.0,93.0
519,140.54295314583337,141.1679527916667,66.0,103.0
520,141.03475614583334,141.28680518333334,61.0,84.0
521,141.52655914583335,141.76631310833335,61.0,88.0
522,141.28065764583334,141.77860818333335,69.0,93.0
523,142.26426364583335,142.61877164166668,55.0,94.0
524,142.01836214583335,142.856476425,50.0,80.0
525,142.51016514583335,142.979427175,62.0,96.0
526,143.00196814583336,143.5081154,50.0,88.0
527,141.77246064583335,143.5142629375,43.0,93.0
528,143.24786964583336,143.6126235375,55.0,95.0
529,143.49377114583336,143.76836115416668,62.0,94.0
530,143.98557414583334,144.3462296791667,57.0,91.0
531,144.23147564583334,144.48352468333334,62.0,86.0
532,144.47737714583334,144.86672118750002,64.0,95.0
533,144.96918014583335,145.23352425833335,62.0,93.0
534,143.73967264583337,145.44663889166668,50.0,98.0
535,145.21508164583335,145.4835241166667,57.0,91.0
536,145.46098314583335,145.69458957083336,66.0,89.0
537,145.95278614583336,146.32573675416668,59.0,81.0
538,146.19868764583336,146.47122847500003,64.0,85.0
539,145.70688464583336,146.85442497916668,52.0,96.0
540,146.44458914583336,146.98352326666668,67.0,94.0
541,146.93639214583337,147.18844118333337,64.0,93.0
542,147.18229364583334,147.3257361875,59.0,92.0
543,147.67409664583334,147.97532598333336,59.0,92.0
544,147.67409664583334,148.20483405000002,62.0,92.0
545,148.16589964583335,148.51426010416668,59.0,93.0
546,147.91999814583335,148.7417189916667,54.0,76.0
547,147.67409664583334,148.8277845166667,47.0,94.0
548,148.41180114583335,148.9568828041667,66.0,99.0
549,148.90360414583336,149.1454072875,62.0,98.0
550,149.14950564583336,149.30319408333335,59.0,89.0
551,149.64130864583336,149.92819372916668,55.0,88.0
552,149.64130864583336,150.18434112500003,62.0,90.0
553,150.13311164583337,150.45483277500003,55.0,89.0
554,149.88721014583336,150.7519637541667,50.0,88.0
555,150.37901314583334,151.1515536916667,59.0,98.0
556,151.11671764583335,151.38106175833335,55.0,93.0
557,149.64130864583336,151.39540601250002,43.0,93.0
558,150.87081614583334,151.4445863125,50.0,89.0
559,151.36261914583335,151.5736846,62.0,86.0
560,152.10032364583336,152.1781924541667,55.0,79.0
561,152.10032364583336,152.1945858875,57.0,80.0
562,152.34622514583336,152.6986839625,59.0,103.0
563,152.83802814583336,152.99786412083336,61.0,99.0
564,152.83802814583336,153.01630673333335,57.0,89.0
565,151.60852064583335,153.3380278625,45.0,95.0
566,151.85442214583335,153.38310980416668,52.0,85.0
567,153.57573264583334,153.7335194416667,57.0,86.0
568,153.57573264583334,153.88515870000003,62.0,92.0
569,153.82163414583334,154.12696184166668,57.0,83.0
570,154.06753564583335,154.22122408333337,62.0,85.0
571,154.31343714583335,154.54499439166668,64.0,99.0
572,153.57573264583334,155.1331088125,50.0,97.0
573,154.80524014583335,155.29294478750003,66.0,95.0
574,155.29704314583336,155.3933545666667,57.0,77.0
575,155.54294464583336,155.80114122083336,66.0,93.0
576,156.28064914583337,156.59007520000003,61.0,97.0
577,156.77245214583334,157.02450118333334,57.0,86.0
578,155.54294464583336,157.07573066250004,42.0,97.0
579,155.78884614583336,157.16179618750002,49.0,82.0
580,157.01835364583334,157.36056656666668,66.0,97.0
581,157.26425514583335,157.4322878375,57.0,86.0
582,158.00195964583335,158.3072873416667,55.0,94.0
583,158.24786114583335,158.5285986916667,59.0,94.0
584,157.75605814583335,158.88310668750003,50.0,91.0
585,158.73966414583336,158.9097460166667,55.0,87.0
586,158.73966414583336,158.9343361666667,59.0,93.0
587,158.73966414583336,158.963024675,62.0,88.0
588,158.98556564583336,159.233516325,50.0,89.0
589,157.51015664583335,159.23761468333336,43.0,91.0
590,159.23146714583336,159.40769655416668,55.0,96.0
591,159.72327014583337,160.0777781416667,57.0,88.0
592,159.96917164583334,160.1269584416667,62.0,92.0
593,160.21507314583334,160.29499113333335,64.0,97.0
594,160.70687614583335,160.96507272083335,66.0,94.0
595,159.47736864583337,161.0859742916667,50.0,93.0
596,160.95277764583335,161.10646608333334,62.0,85.0
597,161.19867914583335,161.31753153750003,57.0,76.0
598,161.44458064583335,161.61671169583335,59.0,91.0
599,161.44458064583335,161.71097393750003,64.0,91.0
600,161.69048214583336,161.98556394583335,59.0,86.0
601,161.93638364583336,162.02244917083337,64.0,75.0
602,161.44458064583335,162.47121940833335,52.0,94.0
603,162.18228514583336,162.5490882166667,67.0,93.0
604,162.67408814583337,162.79294053750002,64.0,99.0
605,163.41179264583334,163.68228429583337,59.0,92.0
606,163.41179264583334,163.87900549583335,62.0,95.0
607,163.90359564583335,164.00400542500003,59.0,87.0
608,163.65769414583335,164.4896608875,54.0,75.0
609,163.41179264583334,164.63515260833336,47.0,93.0
610,164.14949714583335,164.67818537083335,66.0,97.0
611,164.64130014583336,164.864660675,62.0,93.0
612,164.88720164583336,164.97941470833337,59.0,91.0
613,165.37900464583336,165.8912994375,62.0,90.0
614,165.87080764583337,166.22326646250002,58.0,88.0
615,165.37900464583336,166.22941400000002,55.0,87.0
616,166.11670914583337,166.5941678916667,67.0,92.0
617,166.60851214583334,166.9179382,62.0,93.0
618,165.62490614583336,167.08392171250003,50.0,86.0
619,165.37900464583336,167.1044135041667,43.0,94.0
620,166.85441364583335,167.19457738750003,58.0,95.0
621,167.10031514583335,167.29088880833336,55.0,90.0
622,167.59211814583335,167.90769173750002,57.0,83.0
623,167.83801964583336,168.09006868333336,62.0,87.0
624,168.08392114583336,168.21097025416668,64.0,95.0
625,168.57572414583336,168.83392072083336,66.0,101.0
626,168.82162564583336,169.0162976666667,62.0,81.0
627,167.34621664583335,169.12900252083335,50.0,97.0
628,169.06752714583337,169.34416633333336,57.0,91.0
629,169.31342864583337,169.34416633333336,57.0,85.0
630,169.31342864583337,169.8093300041667,60.0,87.0
631,169.80523164583335,169.98351023333336,57.0,89.0
632,169.55933014583334,170.19457568750002,52.0,85.0
633,170.05113314583335,170.34621494583337,60.0,93.0
634,170.05113314583335,170.3564608416667,64.0,94.0
635,170.05113314583335,170.39539524583336,57.0,90.0
636,170.29703464583335,170.7437557041667,52.0,75.0
637,170.54293614583335,170.83391958750002,57.0,86.0
638,170.54293614583335,171.15564071666668,60.0,85.0
639,170.54293614583335,171.258099675,64.0,93.0
640,169.31342864583337,171.27654228750004,45.0,95.0
641,170.78883764583335,171.27654228750004,52.0,86.0
642,171.03473914583336,171.28473900416668,57.0,86.0
643,171.77244364583336,172.0326894,62.0,94.0
644,172.01834514583336,172.20891880833335,64.0,93.0
645,171.52654214583336,172.40564000833336,57.0,81.0
646,172.26424664583337,172.4097383666667,66.0,108.0
647,171.28064064583336,172.9138364416667,50.0,96.0
648,172.51014814583337,172.99170525000002,57.0,86.0
649,172.75604964583334,173.26219690000002,62.0,88.0
650,173.24785264583335,173.82981952916668,69.0,92.0
651,173.73965564583335,174.01834401250002,61.0,88.0
652,173.24785264583335,174.47940932500003,54.0,93.0
653,173.98555714583335,174.61055679166668,66.0,103.0
654,174.47736014583336,174.72940918333336,61.0,84.0
655,174.96916314583336,175.20891710833337,61.0,88.0
656,174.72326164583336,175.22121218333336,69.0,93.0
657,175.70686764583337,176.0613756416667,55.0,94.0
658,175.46096614583337,176.29908042500003,50.0,80.0
659,175.95276914583334,176.42203117500003,62.0,96.0
660,176.44457214583335,176.95071940000003,50.0,88.0
661,175.21506464583337,176.95686693750002,43.0,93.0
662,176.69047364583335,177.05522753750003,55.0,95.0
663,176.93637514583335,177.2109651541667,62.0,94.0
664,177.42817814583336,177.7888336791667,57.0,91.0
665,177.67407964583336,177.92612868333336,62.0,86.0
666,177.91998114583336,178.30932518750004,64.0,95.0
667,178.41178414583337,178.67612825833336,62.0,93.0
668,177.18227664583335,178.8892428916667,50.0,98.0
669,178.65768564583337,178.9261281166667,57.0,91.0
670,178.90358714583337,179.13719357083335,66.0,89.0
671,179.39539014583335,179.7683407541667,59.0,81.0
672,179.64129164583335,179.91383247500002,64.0,85.0
673,179.14948864583334,180.2970289791667,52.0,96.0
674,179.88719314583335,180.4261272666667,67.0,94.0
675,180.37899614583336,180.63104518333336,64.0,93.0
676,180.62489764583336,180.76834018750003,59.0,92.0
677,181.11670064583336,181.41792998333335,59.0,92.0
678,181.11670064583336,181.64743805000003,62.0,92.0
679,181.60850364583337,181.9568641041667,59.0,93.0
680,181.36260214583336,182.1843229916667,54.0,76.0
681,181.11670064583336,182.27038851666669,47.0,94.0
682,181.85440514583337,182.39948680416668,66.0,99.0
683,182.34620814583334,182.58801128750002,62.0,98.0
684,182.59210964583335,182.74579808333337,59.0,89.0
685,183.08391264583335,183.3707977291667,55.0,88.0
686,183.08391264583335,183.62694512500002,62.0,90.0
687,183.57571564583336,183.89743677500002,55.0,89.0
688,183.32981414583335,184.19456775416668,50.0,88.0
689,183.82161714583336,184.59415769166668,59.0,98.0
690,184.55932164583336,184.82366575833336,55.0,93.0
691,183.08391264583335,184.83801001250004,43.0,93.0
692,184.31342014583336,184.88719031250002,50.0,89.0
693,184.80522314583337,185.01628860000002,62.0,86.0
694,185.54292764583334,185.62079645416668,55.0,79.0
695,185.54292764583334,185.63718988750003,57.0,80.0
696,185.78882914583335,186.14128796250003,59.0,103.0
697,186.28063214583335,186.44046812083337,61.0,99.0
698,186.28063214583335,186.45891073333337,57.0,89.0
699,185.05112464583337,186.78063186250003,45.0,95.0
700,185.29702614583337,186.8257138041667,52.0,85.0
701,187.01833664583336,187.1761234416667,57.0,86.0
702,187.01833664583336,187.32776270000002,62.0,92.0
703,187.26423814583336,187.5695658416667,57.0,83.0
704,187.51013964583336,187.66382808333336,62.0,85.0
705,187.75604114583336,187.9875983916667,64.0,99.0
706,187.01833664583336,188.57571281250003,50.0,97.0
707,188.24784414583337,188.73554878750002,66.0,95.0
708,188.73964714583335,188.8359585666667,57.0,77.0
709,188.98554864583335,189.24374522083335,66.0,93.0
710,189.72325314583335,190.03267920000002,61.0,97.0
711,190.21505614583336,190.46710518333336,57.0,86.0
712,188.98554864583335,190.51833466250002,42.0,97.0
713,189.23145014583335,190.60440018750003,49.0,82.0
714,190.46095764583336,190.8031705666667,66.0,97.0
715,190.70685914583336,190.87489183750003,57.0,86.0
716,191.44456364583337,191.74989134166668,55.0,94.0
717,191.69046514583337,191.9712026916667,59.0,94.0
718,191.19866214583337,192.32571068750002,50.0,91.0
719,192.18226814583335,192.3523500166667,55.0,87.0
720,192.18226814583335,192.37694016666669,59.0,93.0
721,192.18226814583335,192.40562867500003,62.0,88.0
722,192.42816964583335,192.67612032500003,50.0,89.0
723,190.95276064583337,192.68021868333335,43.0,91.0
724,192.67407114583335,192.8503005541667,55.0,96.0
725,193.16587414583336,193.5203821416667,57.0,88.0
726,193.41177564583336,193.5695624416667,62.0,92.0
727,193.65767714583336,193.73759513333337,64.0,97.0
728,194.14948014583337,194.40767672083336,66.0,94.0
729,192.91997264583335,194.5285782916667,50.0,93.0
730,194.39538164583337,194.54907008333336,62.0,85.0
731,194.64128314583337,194.76013553750002,57.0,76.0
732,194.88718464583337,195.05931569583336,59.0,91.0
733,194.88718464583337,195.15357793750002,64.0,91.0
734,195.13308614583335,195.42816794583337,59.0,86.0
735,195.37898764583335,195.46505317083336,64.0,75.0
736,194.88718464583337,195.91382340833337,52.0,94.0
737,195.62488914583335,195.9916922166667,67.0,93.0
738,196.11669214583335,196.23554453750003,64.0,99.0
739,196.85439664583336,197.12488829583336,59.0,92.0
740,196.85439664583336,197.32160949583337,62.0,95.0
741,197.34619964583337,197.44660942500002,59.0,87.0
742,197.10029814583336,197.93226488750003,54.0,75.0
743,196.85439664583336,198.07775660833337,47.0,93.0
744,197.59210114583337,198.12078937083336,66.0,97.0
745,198.08390414583337,198.30726467500003,62.0,93.0
746,198.32980564583335,198.42201870833335,59.0,91.0
747,198.82160864583335,199.33390343750003,62.0,90.0
748,199.31341164583336,199.66587046250004,58.0,88.0
749,198.82160864583335,199.67201800000004,55.0,87.0
750,199.55931314583336,200.0367718916667,67.0,92.0
751,200.05111614583336,200.36054220000003,62.0,93.0
752,199.06751014583335,200.52652571250002,50.0,86.0
753,198.82160864583335,200.5470175041667,43.0,94.0
754,200.29701764583336,200.63718138750002,58.0,95.0
755,200.54291914583337,200.73349280833335,55.0,90.0
756,201.03472214583337,201.35029573750003,57.0,83.0
757,201.28062364583337,201.53267268333337,62.0,87.0
758,201.52652514583335,201.6535742541667,64.0,95.0
759,202.01832814583335,202.27652472083335,66.0,101.0
760,202.26422964583335,202.4589016666667,62.0,81.0
761,200.78882064583337,202.57160652083337,50.0,97.0
762,202.51013114583336,202.78677033333335,57.0,91.0
763,203.24783564583336,203.5408682666667,55.0,91.0
764,203.49373714583336,203.7990648416667,57.0,86.0
765,203.73963864583337,203.98144178750002,58.0,95.0
766,203.98554014583337,204.22734328750002,66.0,106.0
767,204.23144164583337,204.47324478750002,64.0,93.0
768,204.47734314583337,204.71914628750002,62.0,98.0
769,203.00193414583336,204.77447412500004,50.0,85.0
770,204.72324464583335,204.77447412500004,50.0,94.0
771,202.75603264583336,204.79291673750004,43.0,93.0
772,205.21504764583335,205.51217862500002,62.0,86.0
773,204.96914614583335,205.9998832666667,57.0,85.0
774,205.95275214583336,206.34619454583336,62.0,92.0
775,206.19865364583336,206.59414522500003,57.0,88.0
776,206.44455514583336,206.71709597500003,62.0,84.0
777,205.46094914583335,206.80930903750001,69.0,96.0
778,207.18225964583337,207.4998824166667,55.0,92.0
779,207.42816114583337,207.68021018333337,57.0,86.0
780,207.67406264583337,207.74373473750003,58.0,98.0
781,207.91996414583335,208.0470132541667,66.0,93.0
782,206.69045664583336,208.4158655041667,43.0,93.0
783,208.16586564583335,208.41791468333335,64.0,97.0
784,206.93635814583337,208.41996386250003,50.0,89.0
785,208.41176714583335,208.64332439166668,62.0,91.0
786,209.14947164583336,209.47529113333337,62.0,91.0
787,209.88717614583337,210.2293890666667,66.0,97.0
788,209.39537314583336,210.23348742500002,69.0,98.0
789,208.65766864583335,210.60233967500002,50.0,96.0
790,208.90357014583336,210.6043888541667,57.0,81.0
791,210.13307764583337,210.69045437916668,62.0,86.0
792,211.11668364583335,211.54906045000004,55.0,85.0
793,211.36258514583335,211.90971598333337,57.0,86.0
794,210.62488064583337,212.34824032500003,43.0,94.0
795,211.85438814583335,212.35438786250003,58.0,88.0
796,212.10028964583336,212.38512555000003,55.0,85.0
797,210.87078214583337,212.3994698041667,50.0,87.0
798,212.34619114583336,212.72938765000004,62.0,92.0
799,212.59209264583336,212.72938765000004,62.0,94.0
800,212.59209264583336,213.15766609583335,50.0,96.0
801,213.08389564583337,213.23143654583336,62.0,88.0
802,212.83799414583336,213.24578080000003,57.0,88.0
803,213.32979714583337,213.71299365000002,49.0,96.0
804,213.32979714583337,213.7396329791667,61.0,91.0
805,213.82160014583337,214.4343047166667,47.0,95.0
806,213.82160014583337,214.52446860000003,59.0,87.0
807,213.82160014583337,214.54700957083335,62.0,90.0
808,214.55930464583335,214.83799301250002,60.0,83.0
809,214.55930464583335,215.09618958750002,64.0,87.0
810,215.05110764583335,215.3564353416667,60.0,81.0
811,214.80520614583335,215.46914019583338,55.0,86.0
812,215.29700914583336,215.64946796250004,64.0,95.0
813,215.54291064583336,216.0080743166667,55.0,74.0
814,214.55930464583335,216.0326644666667,48.0,92.0
815,215.78881214583336,216.12692670833337,67.0,96.0
816,216.03471364583336,216.32364790833336,60.0,86.0
817,216.28061514583337,216.62077888750002,64.0,92.0
818,217.01831964583337,217.7785651166667,57.0,83.0
819,217.26422114583337,217.81340116250004,61.0,94.0
820,216.52651664583337,217.92405683750002,45.0,93.0
821,216.77241814583337,217.95889288333336,52.0,70.0
822,217.75602414583335,218.06545020000004,64.0,92.0
823,218.00192564583335,218.37897461250003,61.0,93.0
824,218.98553164583336,219.2785642666667,55.0,91.0
825,219.23143314583336,219.5367608416667,57.0,86.0
826,219.47733464583337,219.71913778750002,58.0,95.0
827,219.72323614583337,219.96503928750002,66.0,106.0
828,219.96913764583337,220.21094078750002,64.0,93.0
829,220.21503914583337,220.45684228750002,62.0,98.0
830,218.73963014583336,220.51217012500004,50.0,85.0
831,220.46094064583338,220.51217012500004,50.0,94.0
832,218.49372864583336,220.53061273750004,43.0,93.0
833,220.95274364583335,221.24987462500002,62.0,86.0
834,220.70684214583338,221.7375792666667,57.0,85.0
835,221.69044814583336,222.08389054583336,62.0,92.0
836,221.93634964583336,222.33184122500003,57.0,88.0
837,222.18225114583336,222.45479197500003,62.0,84.0
838,221.19864514583335,222.54700503750004,69.0,96.0
839,222.91995564583337,223.2375784166667,55.0,92.0
840,223.16585714583337,223.41790618333337,57.0,86.0
841,223.41175864583337,223.48143073750003,58.0,98.0
842,223.65766014583338,223.7847092541667,66.0,93.0
843,222.42815264583336,224.1535615041667,43.0,93.0
844,223.90356164583338,224.15561068333335,64.0,97.0
845,222.67405414583337,224.15765986250003,50.0,89.0
846,224.14946314583335,224.3810203916667,62.0,91.0
847,224.88716764583336,225.21298713333337,62.0,91.0
848,225.62487214583336,225.9670850666667,66.0,97.0
849,225.13306914583336,225.97118342500002,69.0,98.0
850,224.39536464583335,226.34003567500002,50.0,96.0
851,224.64126614583336,226.3420848541667,57.0,81.0
852,225.87077364583337,226.4281503791667,62.0,86.0
853,226.85437964583338,227.28675645000004,55.0,85.0
854,227.10028114583338,227.64741198333337,57.0,86.0
855,226.36257664583337,228.08593632500003,43.0,94.0
856,227.59208414583335,228.09208386250003,58.0,88.0
857,227.83798564583336,228.12282155000003,55.0,85.0
858,226.60847814583337,228.1371658041667,50.0,87.0
859,228.08388714583336,228.46708365000003,62.0,92.0
860,228.32978864583336,228.46708365000003,62.0,94.0
861,228.32978864583336,228.89536209583338,50.0,96.0
862,228.82159164583337,228.96913254583336,62.0,88.0
863,228.57569014583336,228.98347680000003,57.0,88.0
864,229.06749314583337,229.45068965000004,49.0,96.0
865,229.06749314583337,229.47732897916669,61.0,91.0
866,229.55929614583337,230.1720007166667,47.0,95.0
867,229.55929614583337,230.26216460000003,59.0,87.0
868,229.55929614583337,230.28470557083335,62.0,90.0
869,230.29700064583338,230.57568901250002,60.0,83.0
870,230.29700064583338,230.83388558750002,64.0,87.0
871,230.78880364583335,231.0941313416667,60.0,81.0
872,230.54290214583335,231.20683619583338,55.0,86.0
873,231.03470514583336,231.38716396250004,64.0,95.0
874,231.28060664583336,231.7457703166667,55.0,74.0
875,230.29700064583338,231.7703604666667,48.0,92.0
876,231.52650814583336,231.86462270833337,67.0,96.0
877,231.77240964583336,232.06134390833336,60.0,86.0
878,232.01831114583337,232.35847488750002,64.0,92.0
879,232.75601564583337,233.5162611166667,57.0,83.0
880,233.00191714583337,233.55109716250004,61.0,94.0
881,232.26421264583337,233.66175283750002,45.0,93.0
882,232.51011414583337,233.69658888333336,52.0,70.0
883,233.49372014583338,233.80314620000004,64.0,92.0
884,233.73962164583335,234.11667061250003,61.0,93.0
885,234.72322764583336,235.0162602666667,55.0,91.0
886,234.96912914583336,235.2744568416667,57.0,86.0
887,235.21503064583337,235.45683378750005,58.0,95.0
888,235.46093214583337,235.70273528750002,66.0,106.0
889,235.70683364583337,235.94863678750002,64.0,93.0
890,235.95273514583337,236.19453828750002,62.0,98.0
891,234.47732614583336,236.24986612500004,50.0,85.0
892,236.19863664583337,236.24986612500004,50.0,94.0
893,234.23142464583336,236.26830873750004,43.0,93.0
894,236.69043964583338,236.98757062500005,62.0,86.0
895,236.44453814583338,237.4752752666667,57.0,85.0
896,237.42814414583336,237.82158654583336,62.0,92.0
897,237.67404564583336,238.06953722500003,57.0,88.0
898,237.91994714583336,238.19248797500003,62.0,84.0
899,236.93634114583335,238.28470103750004,69.0,96.0
900,238.6801926166667,238.9752744166667,55.0,90.0
901,238.9383891916667,239.18838905000004,57.0,93.0
902,239.1781431541667,239.2519136041667,58.0,103.0
903,239.4916675666667,239.58592980833336,66.0,108.0
904,239.8174870541667,239.93224108750005,64.0,96.0
905,238.41379932500004,240.2724048291667,50.0,85.0
906,238.18634043750004,240.3154375916667,43.0,95.0
907,240.2355196041667,240.82158484583337,62.0,101.0
908,241.2375682166667,241.8338793541667,62.0,74.0
909,241.66994502083335,242.10846936250005,71.0,92.0
910,242.11871525833337,242.37281347500004,69.0,79.0
911,242.54904288333336,243.2047802166667,69.0,88.0
912,243.34822275833338,244.65150070833337,69.0,72.0
913,243.50396037500002,244.77035310000002,74.0,92.0
914,240.54699483750002,244.7969924291667,50.0,96.0
915,240.87281432500004,244.80109078750004,57.0,80.0
