,start,end,pitch,velocity
0,0.15953933541666668,0.3963812354166667,87.0,83.0
1,0.3667759979166667,0.5756573958333334,86.0,83.0
2,0.5444074229166668,0.7845387937500001,87.0,83.0
3,1.7154590395833336,1.9621693520833337,65.0,84.0
4,0.7796045875000002,2.1809191625000004,79.0,82.0
5,2.9440763958333336,3.190786708333334,84.0,82.0
6,3.1529577937500006,3.368418133333334,86.0,87.0
7,3.3404576312500005,3.5772995312500004,87.0,83.0
8,3.5476942937500007,3.7565756916666673,86.0,83.0
9,3.7253257187500006,3.965457089583334,87.0,83.0
10,3.960522883333334,5.361837458333334,79.0,82.0
11,1.9144720250000002,5.6644687750000005,67.0,80.0
12,5.692429277083334,6.620060052083335,60.0,97.0
13,6.542757487500001,6.702296822916668,63.0,83.0
14,6.501639102083335,6.712165235416668,87.0,85.0
15,6.702296822916668,6.930915045833334,86.0,81.0
16,6.894730866666667,7.167756945833334,87.0,87.0
17,7.129928031250001,7.942427327083334,79.0,81.0
18,6.674336320833334,9.337162960416668,65.0,81.0
19,9.284531427083335,9.722031047916667,63.0,76.0
20,9.690781075000002,12.059200075000001,62.0,82.0
21,12.236831500000001,12.462160252083335,74.0,88.0
22,12.429265543750002,12.582225937500002,75.0,90.0
23,12.057555339583335,12.649660089583335,72.0,85.0
24,12.044397456250001,12.825646779166668,60.0,97.0
25,12.628278529166668,12.883212518750002,79.0,79.0
26,12.815778366666668,14.477492770833335,72.0,86.0
27,12.876633577083336,14.539992708333335,84.0,86.0
28,14.450465770833334,15.793369833333335,70.0,92.0
29,14.482560333333335,15.825464395833334,82.0,92.0
30,15.698775333333336,16.153166770833334,77.0,83.0
31,15.719045583333335,16.173437020833333,65.0,83.0
32,16.104180333333336,18.415935208333334,79.0,83.0
33,16.136274895833335,18.447601875,67.0,83.0
34,18.48426854166667,19.327601875,67.0,83.0
35,18.529268541666667,19.372601875,79.0,83.0
36,19.297601875,20.945935208333335,63.0,86.0
37,19.329268541666668,20.977601875,75.0,86.0
38,20.895935208333334,22.505935208333334,62.0,85.0
39,20.929268541666666,22.53926854166667,74.0,85.0
40,22.472601875000002,28.640935208333335,60.0,84.0
41,22.529268541666667,28.697601875000004,72.0,84.0
42,41.72926854166667,43.440935208333336,80.0,82.0
43,44.12926854166667,44.562601875,79.0,82.0
44,44.52926854166667,44.91926854166667,77.0,85.0
45,44.92926854166667,46.54926854166667,79.0,81.0
46,46.92926854166667,47.30426854166667,72.0,87.0
47,47.329268541666664,47.792601875,74.0,87.0
48,47.72926854166667,48.135935208333336,75.0,85.0
49,48.12926854166667,49.66926854166667,79.0,86.0
50,49.72926854166667,50.39926854166667,77.0,83.0
51,50.52926854166667,51.25926854166667,74.0,80.0
52,51.329268541666664,53.907601875,72.0,77.0
53,58.129268541666676,58.462601875000004,77.0,81.0
54,58.52926854166667,58.89093520833333,75.0,87.0
55,58.92926854166667,59.31593520833334,74.0,92.0
56,59.329268541666664,60.892601875,67.0,86.0
57,64.92926854166667,67.247601875,67.0,66.0
58,64.12926854166668,67.25093520833333,70.0,77.0
59,65.32926854166666,67.26593520833333,75.0,67.0
60,67.32926854166666,68.61926854166667,72.0,82.0
61,68.52926854166667,68.93093520833334,67.0,75.0
62,68.92926854166667,70.39260187500001,65.0,78.0
63,70.52926854166667,71.79093520833334,65.0,83.0
64,71.72926854166667,72.16926854166667,67.0,81.0
65,72.12926854166668,73.63426854166667,72.0,83.0
66,73.72926854166667,75.28593520833334,63.0,83.0
67,75.32926854166666,76.61426854166668,62.0,83.0
68,76.52926854166667,76.977601875,63.0,81.0
69,76.92926854166667,79.94093520833334,60.0,81.0
70,80.92926854166667,81.53926854166667,75.0,81.0
71,80.92926854166667,81.61593520833334,72.0,73.0
72,81.72926854166667,83.422601875,70.0,72.0
73,81.72926854166667,83.45426854166666,74.0,80.0
74,84.12926854166666,84.81093520833333,70.0,75.0
75,84.12926854166666,84.87926854166666,74.0,81.0
76,84.92926854166667,86.437601875,67.0,69.0
77,84.92926854166667,86.447601875,72.0,74.0
78,86.52926854166667,88.15093520833334,72.0,84.0
79,88.12926854166666,88.607601875,74.0,87.0
80,88.52926854166667,88.972601875,72.0,84.0
81,88.92926854166667,89.40926854166666,70.0,80.0
82,89.32926854166666,89.752601875,65.0,81.0
83,89.72926854166667,91.31760187500001,67.0,75.0
84,91.72926854166667,92.17926854166667,55.0,82.0
85,92.12926854166668,92.51593520833333,58.0,75.0
86,92.52926854166667,92.97426854166667,60.0,83.0
87,92.92926854166667,94.35093520833334,63.0,82.0
88,94.52926854166667,95.732601875,62.0,75.0
89,94.52926854166667,95.76926854166666,65.0,76.0
90,95.72926854166667,96.19093520833333,70.0,75.0
91,96.12926854166668,96.977601875,74.0,92.0
92,96.92926854166667,97.61093520833333,77.0,83.0
93,97.72926854166667,98.17426854166666,75.0,75.0
94,97.72926854166667,98.26926854166666,72.0,76.0
95,98.12926854166668,98.60426854166667,74.0,81.0
96,98.52926854166667,99.01926854166666,75.0,85.0
97,98.95426854166666,99.41093520833334,77.0,80.0
98,99.32926854166666,100.75093520833333,75.0,81.0
99,99.32926854166666,100.75426854166668,72.0,77.0
100,100.92926854166667,101.59760187500001,74.0,81.0
101,100.92926854166667,101.70760187500001,77.0,75.0
102,101.72926854166667,102.42426854166666,74.0,83.0
103,102.52926854166667,105.70426854166666,67.0,71.0
104,102.52926854166667,105.70426854166666,72.0,76.0
105,106.12926854166668,106.577601875,72.0,82.0
106,105.72926854166667,106.58593520833334,67.0,71.0
107,106.52926854166667,107.012601875,74.0,85.0
108,107.72926854166667,108.88926854166667,74.0,56.0
109,106.92926854166667,108.90926854166668,75.0,73.0
110,108.12926854166668,108.95093520833333,72.0,75.0
111,108.52926854166667,108.967601875,67.0,65.0
112,112.52926854166667,112.86260187500001,77.0,81.0
113,112.92926854166667,113.29093520833334,75.0,87.0
114,113.32926854166666,113.71593520833333,74.0,92.0
115,113.72926854166667,115.292601875,67.0,86.0
116,120.52926854166667,120.977601875,56.0,70.0
117,119.32926854166666,121.647601875,67.0,66.0
118,118.52926854166667,121.65093520833334,70.0,77.0
119,119.72926854166667,121.66593520833334,75.0,67.0
120,120.92926854166667,121.74093520833334,55.0,73.0
121,121.72926854166667,123.01926854166668,72.0,82.0
122,122.92926854166667,123.33093520833334,67.0,75.0
123,121.72926854166667,124.60593520833334,53.0,74.0
124,123.32926854166666,124.792601875,65.0,78.0
125,124.52926854166667,124.917601875,51.0,79.0
126,124.92926854166667,126.19093520833334,65.0,83.0
127,126.12926854166668,126.56926854166667,67.0,81.0
128,124.92926854166667,127.39426854166668,55.0,77.0
129,127.32926854166666,127.76760187500001,48.0,75.0
130,126.52926854166667,128.03426854166668,72.0,83.0
131,127.72926854166667,128.167601875,50.0,75.0
132,128.12926854166668,129.68593520833335,63.0,83.0
133,128.12926854166668,129.77093520833336,51.0,73.0
134,129.72926854166667,131.01426854166667,62.0,83.0
135,130.9292685416667,131.377601875,63.0,81.0
136,129.72926854166667,131.532601875,50.0,82.0
137,132.12926854166668,132.547601875,79.0,83.0
138,132.52926854166668,132.86260187500002,77.0,82.0
139,132.9292685416667,133.37260187500002,77.0,83.0
140,133.32926854166666,133.77926854166668,75.0,83.0
141,133.72926854166667,134.202601875,74.0,85.0
142,131.32926854166666,134.22093520833334,48.0,81.0
143,131.32926854166666,134.34093520833335,60.0,81.0
144,134.12926854166668,134.54593520833333,75.0,85.0
145,135.3292685416667,135.93926854166668,75.0,81.0
146,135.3292685416667,136.01593520833333,72.0,73.0
147,136.12926854166668,137.822601875,70.0,72.0
148,136.12926854166668,137.85426854166667,74.0,80.0
149,138.52926854166668,139.21093520833335,70.0,75.0
150,138.52926854166668,139.27926854166668,74.0,81.0
151,139.3292685416667,140.83760187500002,67.0,69.0
152,139.3292685416667,140.847601875,72.0,74.0
153,140.9292685416667,142.55093520833336,72.0,84.0
154,142.52926854166668,143.007601875,74.0,87.0
155,142.9292685416667,143.37260187500002,72.0,84.0
156,143.3292685416667,143.80926854166668,70.0,80.0
157,143.72926854166667,144.15260187500002,65.0,81.0
158,144.12926854166668,145.717601875,67.0,75.0
159,146.12926854166668,146.57926854166666,55.0,82.0
160,146.52926854166668,146.91593520833334,58.0,75.0
161,146.92926854166666,147.37426854166668,60.0,83.0
162,147.32926854166666,148.75093520833335,63.0,82.0
163,148.92926854166666,150.132601875,62.0,75.0
164,148.92926854166666,150.16926854166667,65.0,76.0
165,150.12926854166668,150.59093520833335,70.0,75.0
166,150.52926854166668,151.377601875,74.0,92.0
167,151.32926854166666,152.01093520833334,77.0,83.0
168,152.12926854166668,152.57426854166667,75.0,75.0
169,152.12926854166668,152.66926854166667,72.0,76.0
170,152.52926854166668,153.00426854166668,74.0,81.0
171,152.92926854166666,153.41926854166667,75.0,85.0
172,153.35426854166667,153.81093520833335,77.0,80.0
173,153.72926854166667,155.15093520833335,75.0,81.0
174,153.72926854166667,155.15426854166668,72.0,77.0
175,155.32926854166666,155.99760187500002,74.0,81.0
176,155.32926854166666,156.107601875,77.0,75.0
177,156.12926854166668,156.82426854166667,74.0,83.0
178,156.9292685416667,160.10426854166667,67.0,71.0
179,156.9292685416667,160.10426854166667,72.0,76.0
180,160.12926854166668,161.787601875,84.0,85.0
181,161.72926854166667,162.952601875,86.0,84.0
182,162.9292685416667,163.39760187500002,84.0,86.0
183,163.32926854166666,165.262601875,82.0,79.0
184,165.72926854166667,166.18426854166668,87.0,85.0
185,166.12926854166668,166.552601875,86.0,84.0
186,166.52926854166668,167.91426854166667,84.0,83.0
187,168.12926854166668,168.937601875,82.0,73.0
188,168.12926854166668,168.97426854166667,86.0,82.0
189,168.9292685416667,169.73093520833334,84.0,86.0
190,169.72926854166667,171.23593520833333,82.0,81.0
191,169.72926854166667,171.27093520833333,79.0,73.0
192,171.72926854166667,172.10426854166667,79.0,85.0
193,172.12926854166668,172.55593520833335,87.0,83.0
194,172.52926854166668,172.967601875,86.0,85.0
195,172.9292685416667,174.39426854166666,84.0,88.0
196,174.52926854166668,175.29093520833334,82.0,77.0
197,174.52926854166668,175.30093520833333,86.0,81.0
198,175.32926854166666,175.677601875,86.0,82.0
199,175.72926854166667,176.142601875,84.0,83.0
200,176.12926854166668,176.982601875,82.0,78.0
201,176.9292685416667,177.75093520833335,79.0,82.0
202,177.72926854166667,178.112601875,87.0,86.0
203,178.12926854166668,178.55926854166668,86.0,83.0
204,178.52926854166668,179.21093520833335,84.0,90.0
205,179.32926854166666,180.57426854166667,84.0,85.0
206,180.9292685416667,181.34093520833335,86.0,82.0
207,181.32926854166666,181.80260187500002,84.0,82.0
208,181.72926854166667,182.167601875,82.0,81.0
209,182.12926854166668,182.542601875,79.0,76.0
210,182.52926854166668,185.5542685416667,84.0,83.0
211,185.72926854166667,186.982601875,84.0,83.0
212,186.9292685416667,187.34593520833334,87.0,81.0
213,187.32926854166666,187.71593520833335,86.0,82.0
214,187.72926854166667,188.142601875,84.0,85.0
215,188.12926854166668,188.88426854166667,82.0,75.0
216,188.9292685416667,191.6792685416667,84.0,82.0
217,192.12926854166668,193.00926854166667,75.0,82.0
218,192.12926854166668,193.05093520833333,72.0,77.0
219,192.9292685416667,193.882601875,79.0,81.0
220,193.72926854166667,196.57593520833333,77.0,74.0
221,199.32926854166666,199.74093520833335,63.0,92.0
222,199.72926854166667,200.09926854166667,65.0,90.0
223,200.12926854166668,201.782601875,67.0,79.0
224,201.72926854166667,202.9292685416667,70.0,87.0
225,202.9292685416667,203.13426854166667,63.0,86.0
226,203.12926854166668,203.38093520833334,65.0,83.0
227,203.32926854166666,206.52926854166668,67.0,83.0
228,206.52926854166668,208.12926854166668,63.0,88.0
229,208.12926854166668,209.252601875,62.0,87.0
230,209.32926854166666,209.74260187500002,62.0,81.0
231,209.72926854166667,215.32926854166666,60.0,85.0
