,start,end,pitch,velocity
0,0.5131574500000001,1.0559201375000002,55.0,61.0
1,0.9046044791666668,1.1546042625000001,60.0,69.0
2,1.3223672750000002,1.624998591666667,62.0,69.0
3,0.12664462708333335,2.419405797916667,48.0,56.0
4,1.7269721875000004,2.419405797916667,48.0,69.0
5,1.6167749145833337,2.616774047916667,55.0,69.0
6,1.7105248333333336,2.677629258333334,60.0,69.0
7,1.7845379270833337,2.7302607916666672,63.0,69.0
8,3.273023479166667,3.9572334125000004,56.0,63.0
9,3.4226944020833336,4.077299097916668,63.0,69.0
10,3.371707604166667,4.162825339583334,60.0,75.0
11,4.194075312500001,5.143087647916667,56.0,75.0
12,5.0065746083333345,5.4605215833333345,68.0,70.0
13,4.575653929166667,5.472034731250001,63.0,68.0
14,3.8174309020833337,5.486837350000001,51.0,68.0
15,3.373352339583334,5.523021529166668,44.0,82.0
16,6.412823389583334,6.702296822916668,53.0,46.0
17,6.902954543750001,7.389796227083335,53.0,69.0
18,6.444073362500001,7.800980081250001,58.0,58.0
19,7.259862129166668,8.228611289583334,62.0,73.0
20,7.659532835416668,8.468742660416668,53.0,56.0
21,8.106900868750001,8.577295197916667,58.0,65.0
22,6.514796985416668,9.175978889583334,46.0,72.0
23,9.677623191666669,9.809202025000001,58.0,60.0
24,9.624991658333334,9.830583585416669,55.0,66.0
25,9.725320518750001,10.465451456250001,62.0,73.0
26,11.241766572916669,12.27794988541667,67.0,72.0
27,10.501635635416669,12.476962870833335,55.0,90.0
28,10.075649162500001,12.486831283333336,50.0,78.0
29,10.883214252083334,12.537818081250002,62.0,73.0
30,9.699004752083335,12.546041758333335,43.0,75.0
31,12.687489004166668,13.317313229166668,56.0,66.0
32,12.907883550000001,13.592313229166669,68.0,73.0
33,12.800975747916668,13.623979895833335,60.0,77.0
34,12.827291514583335,13.657313229166668,63.0,73.0
35,12.86512042916667,13.672313229166669,44.0,83.0
36,13.232313229166667,13.672313229166669,51.0,70.0
37,13.607313229166667,13.715646562500002,56.0,85.0
38,14.271411895833335,14.518033270833335,53.0,67.0
39,14.357560458333335,14.931884208333335,58.0,69.0
40,14.453844145833335,15.271410895833334,62.0,81.0
41,14.463979270833335,15.436951270833335,46.0,77.0
42,14.823776208333335,15.648099708333335,53.0,74.0
43,15.212289333333334,15.668369958333335,58.0,84.0
44,15.985937208333334,16.252828833333336,55.0,64.0
45,16.104180333333336,17.315327770833335,63.0,71.0
46,16.921747083333337,17.565327520833335,55.0,76.0
47,17.266341333333337,17.577151833333335,60.0,71.0
48,17.690327395833336,18.520935208333334,63.0,75.0
49,16.502828583333336,18.542601875000003,43.0,64.0
50,16.104180333333336,18.572601875,36.0,79.0
51,19.055935208333334,19.340935208333335,56.0,63.0
52,19.21926854166667,19.784268541666666,60.0,72.0
53,19.297601875,19.912601875,44.0,77.0
54,19.64426854166667,19.922601875,51.0,73.0
55,19.299268541666667,20.030935208333332,68.0,74.0
56,19.240935208333333,20.124268541666666,63.0,75.0
57,20.055935208333334,20.427601875,56.0,95.0
58,20.395935208333334,20.532601875,68.0,76.0
59,20.762601875,21.005935208333334,53.0,73.0
60,20.865935208333333,21.312601875000002,58.0,74.0
61,20.900935208333333,21.689268541666667,46.0,73.0
62,21.25426854166667,21.730935208333335,53.0,74.0
63,20.920935208333333,21.774268541666668,62.0,76.0
64,21.667601875000003,21.800935208333335,58.0,81.0
65,22.487601875000003,22.592601875,36.0,77.0
66,22.370935208333336,22.612601875000003,55.0,64.0
67,22.480935208333335,23.320935208333335,60.0,75.0
68,23.674268541666667,24.114268541666668,67.0,70.0
69,22.882601875000002,25.194268541666666,48.0,78.0
70,23.304268541666666,25.204268541666668,55.0,80.0
71,24.869268541666667,25.564268541666667,67.0,43.0
72,24.050935208333335,25.579268541666668,72.0,82.0
73,24.465935208333335,25.584268541666667,60.0,72.0
74,26.430935208333334,26.667601875000003,55.0,68.0
75,26.805935208333334,26.974268541666667,60.0,73.0
76,27.280935208333332,27.657601875,67.0,55.0
77,27.264268541666667,27.792601875000003,60.0,68.0
78,26.045935208333333,28.145935208333334,43.0,56.0
79,25.672601875,28.402601875000002,36.0,77.0
80,28.929268541666666,29.847601875000002,60.0,77.0
81,29.72926854166667,30.71426854166667,55.0,81.0
82,30.12926854166667,31.400935208333337,60.0,82.0
83,29.329268541666668,31.485935208333334,43.0,73.0
84,28.929268541666666,31.535935208333335,36.0,77.0
85,31.329268541666668,31.667601875000003,67.0,77.0
86,32.12926854166667,33.002601875,62.0,75.0
87,32.12926854166667,33.037601875,58.0,73.0
88,32.92926854166667,33.42426854166667,55.0,83.0
89,33.329268541666664,34.03093520833333,62.0,81.0
90,33.72926854166667,34.18426854166667,67.0,77.0
91,32.52926854166667,34.885935208333336,50.0,77.0
92,32.12926854166667,34.902601875,43.0,81.0
93,35.329268541666664,36.14760187500001,60.0,76.0
94,35.329268541666664,36.37593520833333,44.0,85.0
95,35.72926854166667,36.42093520833333,51.0,76.0
96,36.12926854166667,36.52593520833334,56.0,82.0
97,36.52926854166667,36.63926854166667,60.0,74.0
98,36.92926854166667,37.477601875000005,58.0,82.0
99,37.329268541666664,37.807601875,53.0,77.0
100,36.92926854166667,37.80926854166667,46.0,82.0
101,37.72926854166667,37.812601875,58.0,74.0
102,37.72926854166667,37.87593520833333,62.0,79.0
103,38.52926854166667,39.04426854166667,63.0,76.0
104,39.329268541666664,40.187601875,55.0,81.0
105,39.72926854166667,40.237601875,58.0,83.0
106,40.12926854166667,40.52926854166667,67.0,77.0
107,38.52926854166667,40.93593520833333,39.0,69.0
108,38.92926854166667,40.95593520833334,46.0,75.0
109,41.72926854166667,42.64926854166667,53.0,72.0
110,42.52926854166667,43.007601875000006,56.0,81.0
111,41.72926854166667,43.02426854166667,60.0,76.0
112,42.92926854166667,43.73593520833333,53.0,76.0
113,43.329268541666664,43.77426854166667,56.0,70.0
114,43.329268541666664,43.859268541666665,65.0,78.0
115,43.329268541666664,43.86093520833333,60.0,77.0
116,41.72926854166667,44.04926854166667,41.0,81.0
117,42.12926854166667,44.050935208333335,48.0,77.0
118,44.92926854166667,45.332601875,67.0,82.0
119,45.329268541666664,45.807601875,55.0,86.0
120,45.72926854166667,46.099268541666675,63.0,86.0
121,46.12926854166667,46.510935208333336,55.0,75.0
122,46.52926854166667,47.03926854166667,62.0,77.0
123,47.329268541666664,47.54926854166667,60.0,83.0
124,44.92926854166667,47.582601875,48.0,81.0
125,48.12926854166667,48.715935208333335,56.0,69.0
126,48.12926854166667,48.86926854166667,44.0,76.0
127,48.52926854166667,48.872601875,51.0,76.0
128,48.12926854166667,48.872601875,60.0,75.0
129,49.72926854166667,49.91926854166667,53.0,73.0
130,50.129268541666676,50.577601875,53.0,74.0
131,49.72926854166667,50.58593520833334,46.0,77.0
132,49.72926854166667,50.599268541666675,58.0,69.0
133,50.52926854166667,50.734268541666665,62.0,81.0
134,51.329268541666664,52.219268541666665,63.0,72.0
135,52.129268541666676,52.622601875,55.0,85.0
136,52.52926854166667,52.72926854166667,60.0,73.0
137,52.92926854166667,53.382601875000006,62.0,69.0
138,53.72926854166667,53.92426854166666,55.0,76.0
139,51.72926854166667,54.07426854166667,43.0,68.0
140,51.329268541666664,54.102601875000005,36.0,76.0
141,53.72926854166667,54.167601875,60.0,80.0
142,54.52926854166667,55.447601875000004,60.0,77.0
143,55.329268541666664,56.314268541666664,55.0,81.0
144,55.72926854166667,57.00093520833333,60.0,82.0
145,54.92926854166667,57.08593520833334,43.0,73.0
146,54.52926854166667,57.135935208333336,36.0,77.0
147,56.92926854166667,57.267601875,67.0,77.0
148,57.72926854166667,58.602601875000005,62.0,75.0
149,57.72926854166667,58.637601875,58.0,73.0
150,58.52926854166667,59.02426854166667,55.0,83.0
151,58.92926854166667,59.63093520833334,62.0,81.0
152,59.329268541666664,59.78426854166668,67.0,77.0
153,58.129268541666676,60.48593520833333,50.0,77.0
154,57.72926854166667,60.50260187500001,43.0,81.0
155,60.92926854166667,61.747601875,60.0,76.0
156,60.92926854166667,61.97593520833334,44.0,85.0
157,61.329268541666664,62.02093520833334,51.0,76.0
158,61.72926854166667,62.12593520833333,56.0,82.0
159,62.129268541666676,62.239268541666675,60.0,74.0
160,62.52926854166667,63.077601875,58.0,82.0
161,62.92926854166667,63.407601875,53.0,77.0
162,62.52926854166667,63.40926854166668,46.0,82.0
163,63.329268541666664,63.41260187500001,58.0,74.0
164,63.329268541666664,63.47593520833334,62.0,79.0
165,64.12926854166668,64.64426854166668,63.0,76.0
166,64.92926854166667,65.78760187500001,55.0,81.0
167,65.32926854166666,65.837601875,58.0,83.0
168,65.72926854166667,66.12926854166668,67.0,77.0
169,64.12926854166668,66.53593520833334,39.0,69.0
170,64.52926854166667,66.55593520833334,46.0,75.0
171,67.32926854166666,68.24926854166667,53.0,72.0
172,68.12926854166668,68.607601875,56.0,81.0
173,67.32926854166666,68.62426854166667,60.0,76.0
174,68.52926854166667,69.33593520833334,53.0,76.0
175,68.92926854166667,69.37426854166667,56.0,70.0
176,68.92926854166667,69.45926854166667,65.0,78.0
177,68.92926854166667,69.46093520833334,60.0,77.0
178,67.32926854166666,69.64926854166667,41.0,81.0
179,67.72926854166667,69.65093520833334,48.0,77.0
180,70.52926854166667,70.932601875,67.0,82.0
181,70.92926854166667,71.407601875,55.0,86.0
182,71.32926854166666,71.69926854166667,63.0,86.0
183,71.72926854166667,72.11093520833333,55.0,75.0
184,72.12926854166668,72.63926854166667,62.0,77.0
185,72.92926854166667,73.14926854166667,60.0,83.0
186,70.52926854166667,73.182601875,48.0,81.0
187,73.72926854166667,74.31593520833334,56.0,69.0
188,73.72926854166667,74.46926854166666,44.0,76.0
189,74.12926854166668,74.47260187500001,51.0,76.0
190,73.72926854166667,74.47260187500001,60.0,75.0
191,75.32926854166666,75.51926854166668,53.0,73.0
192,75.72926854166667,76.17760187500001,53.0,74.0
193,75.32926854166666,76.18593520833333,46.0,77.0
194,75.32926854166666,76.19926854166667,58.0,69.0
195,76.12926854166668,76.33426854166667,62.0,81.0
196,76.92926854166667,77.81926854166667,63.0,72.0
197,77.72926854166667,78.22260187500001,55.0,85.0
198,78.12926854166668,78.32926854166666,60.0,73.0
199,78.52926854166667,78.982601875,62.0,69.0
200,79.32926854166668,79.52426854166667,55.0,76.0
201,77.32926854166666,79.67426854166668,43.0,68.0
202,76.92926854166667,79.702601875,36.0,76.0
203,79.32926854166668,79.76760187500001,60.0,80.0
204,80.12926854166668,80.70926854166667,63.0,77.0
205,80.12926854166668,80.93593520833333,56.0,74.0
206,80.12926854166668,80.952601875,44.0,83.0
207,80.52926854166667,80.98760187500001,51.0,66.0
208,80.92926854166667,81.20926854166667,60.0,79.0
209,81.72926854166667,82.14593520833334,62.0,81.0
210,81.72926854166667,82.21926854166666,58.0,70.0
211,82.12926854166666,82.877601875,53.0,83.0
212,81.72926854166667,82.892601875,46.0,81.0
213,82.72926854166667,82.997601875,62.0,77.0
214,82.52926854166667,83.00593520833334,58.0,82.0
215,82.92926854166667,83.17426854166666,65.0,80.0
216,83.32926854166666,83.79926854166666,58.0,71.0
217,83.32926854166666,83.842601875,62.0,69.0
218,83.32926854166666,83.92426854166666,55.0,72.0
219,84.12926854166666,84.36593520833334,58.0,85.0
220,83.72926854166667,84.49093520833334,50.0,76.0
221,83.32926854166666,84.55093520833333,43.0,82.0
222,84.92926854166667,85.45926854166667,63.0,84.0
223,85.32926854166666,85.49593520833334,55.0,70.0
224,85.72926854166667,86.03926854166667,55.0,77.0
225,84.92926854166667,86.08093520833333,48.0,80.0
226,85.72926854166667,86.10593520833334,62.0,82.0
227,86.12926854166666,86.34926854166667,60.0,85.0
228,86.32926854166666,86.54926854166666,62.0,75.0
229,86.52926854166667,87.20093520833333,60.0,77.0
230,87.32926854166666,87.58093520833333,56.0,76.0
231,86.92926854166667,87.59093520833333,48.0,77.0
232,87.32926854166666,87.60593520833334,60.0,82.0
233,86.52926854166667,87.61093520833333,41.0,83.0
234,88.12926854166666,88.687601875,58.0,72.0
235,88.12926854166666,88.71926854166666,62.0,77.0
236,88.12926854166666,89.20926854166667,46.0,76.0
237,88.52926854166667,89.21926854166666,50.0,68.0
238,88.92926854166667,89.34093520833333,53.0,81.0
239,89.32926854166666,89.59593520833333,58.0,68.0
240,89.52926854166667,89.74426854166667,56.0,72.0
241,89.72926854166667,90.07426854166667,55.0,81.0
242,89.72926854166667,90.78926854166667,39.0,82.0
243,90.52926854166667,90.79593520833333,55.0,70.0
244,90.12926854166666,90.80426854166667,46.0,82.0
245,90.52926854166667,90.842601875,51.0,74.0
246,90.52926854166667,90.86926854166667,58.0,76.0
247,90.92926854166667,91.11926854166667,51.0,61.0
248,91.32926854166666,91.732601875,55.0,76.0
249,91.32926854166666,91.83426854166667,58.0,69.0
250,91.32926854166666,91.92926854166667,63.0,79.0
251,91.32926854166666,91.93926854166666,51.0,77.0
252,91.72926854166667,92.32926854166666,46.0,57.0
253,92.12926854166668,92.82593520833333,55.0,83.0
254,92.12926854166668,92.84926854166667,58.0,76.0
255,92.12926854166668,92.85093520833334,51.0,77.0
256,92.52926854166667,92.872601875,39.0,92.0
257,92.12926854166668,92.887601875,61.0,81.0
258,92.92926854166667,93.307601875,63.0,71.0
259,92.92926854166667,93.60926854166667,56.0,75.0
260,93.32926854166666,93.92926854166667,51.0,69.0
261,92.92926854166667,94.01593520833333,44.0,82.0
262,93.72926854166667,94.02593520833334,60.0,80.0
263,93.72926854166667,94.157601875,63.0,80.0
264,94.52926854166667,94.722601875,53.0,79.0
265,94.52926854166667,95.027601875,58.0,76.0
266,94.92926854166667,95.41593520833334,53.0,79.0
267,95.32926854166666,95.47593520833334,58.0,80.0
268,95.32926854166666,95.52426854166667,62.0,86.0
269,94.52926854166667,95.777601875,46.0,92.0
270,95.72926854166667,95.977601875,58.0,83.0
271,96.12926854166668,96.73093520833334,55.0,78.0
272,96.92926854166667,97.047601875,58.0,77.0
273,96.92926854166667,97.15926854166666,62.0,83.0
274,96.52926854166667,97.41426854166667,50.0,85.0
275,96.12926854166668,97.44926854166667,43.0,82.0
276,97.32926854166666,97.50093520833333,63.0,84.0
277,97.52926854166667,97.74593520833334,62.0,81.0
278,97.72926854166667,98.212601875,60.0,88.0
279,98.12926854166668,98.31760187500001,55.0,83.0
280,97.72926854166667,98.67093520833333,48.0,83.0
281,98.52926854166667,98.69093520833333,60.0,83.0
282,98.52926854166667,98.71593520833333,63.0,83.0
283,98.52926854166667,98.73593520833333,55.0,82.0
284,99.32926854166666,100.19093520833333,44.0,83.0
285,100.12926854166668,100.28926854166667,56.0,79.0
286,99.72926854166667,100.35426854166667,51.0,82.0
287,100.12926854166668,100.45760187500001,60.0,81.0
288,100.12926854166668,100.502601875,63.0,81.0
289,100.52926854166667,100.59093520833333,56.0,69.0
290,100.92926854166667,101.12426854166667,53.0,77.0
291,100.92926854166667,101.487601875,62.0,80.0
292,101.32926854166666,101.767601875,53.0,66.0
293,100.92926854166667,101.78760187500001,46.0,76.0
294,101.72926854166667,101.82926854166666,58.0,74.0
295,101.72926854166667,101.89093520833333,62.0,79.0
296,102.52926854166667,102.64926854166667,36.0,74.0
297,102.52926854166667,102.96093520833334,72.0,74.0
298,102.52926854166667,103.07926854166666,60.0,59.0
299,103.72926854166667,103.96593520833333,60.0,83.0
300,103.32926854166666,104.32593520833333,55.0,82.0
301,104.12926854166668,104.68426854166667,67.0,64.0
302,104.12926854166668,104.702601875,60.0,70.0
303,104.92926854166667,105.527601875,60.0,38.0
304,102.92926854166667,105.56593520833334,48.0,77.0
305,104.92926854166667,105.56926854166667,67.0,67.0
306,104.92926854166667,105.607601875,72.0,73.0
307,104.52926854166667,105.63593520833334,55.0,61.0
308,105.61260187500001,105.63593520833334,55.0,71.0
309,105.72260187500001,106.102601875,36.0,81.0
310,105.727601875,106.39426854166668,63.0,68.0
311,106.107601875,106.51093520833334,55.0,67.0
312,106.49593520833334,106.967601875,67.0,78.0
313,105.67593520833334,107.00426854166668,60.0,68.0
314,106.90093520833334,107.14093520833333,55.0,72.0
315,107.31426854166666,107.57093520833334,55.0,71.0
316,107.73426854166667,107.947601875,55.0,63.0
317,107.31593520833334,107.952601875,63.0,68.0
318,107.32093520833334,107.96926854166666,60.0,71.0
319,108.14093520833333,108.92426854166666,55.0,70.0
320,108.13926854166667,108.92926854166667,60.0,75.0
321,108.13426854166667,108.93926854166666,63.0,75.0
322,108.92926854166667,109.19093520833334,55.0,75.0
323,108.92926854166667,109.45926854166667,60.0,73.0
324,109.32926854166666,109.65926854166668,55.0,75.0
325,108.92926854166667,109.76093520833334,36.0,83.0
326,109.72926854166667,109.81760187500001,55.0,72.0
327,109.72926854166667,109.94593520833334,60.0,82.0
328,109.72926854166667,110.05593520833334,63.0,81.0
329,110.12926854166668,110.31093520833333,55.0,68.0
330,110.52926854166667,110.74926854166667,55.0,69.0
331,110.52926854166667,110.81093520833333,60.0,61.0
332,110.92926854166667,111.09926854166667,55.0,67.0
333,111.32926854166666,111.48760187500001,55.0,82.0
334,110.52926854166667,111.522601875,48.0,58.0
335,111.32926854166666,111.57426854166667,60.0,83.0
336,111.32926854166666,111.61926854166667,63.0,82.0
337,112.12926854166668,112.577601875,62.0,79.0
338,112.12926854166668,112.652601875,55.0,76.0
339,112.52926854166667,113.057601875,50.0,61.0
340,112.92926854166667,113.30593520833334,55.0,81.0
341,112.92926854166667,113.34093520833333,58.0,81.0
342,113.32926854166666,113.887601875,50.0,67.0
343,113.72926854166667,114.147601875,62.0,76.0
344,114.52926854166667,114.69426854166667,55.0,81.0
345,114.52926854166667,114.782601875,58.0,87.0
346,114.12926854166668,114.80093520833334,50.0,66.0
347,112.12926854166668,114.87426854166667,43.0,81.0
348,114.52926854166667,115.087601875,62.0,83.0
349,114.92926854166667,115.29093520833334,55.0,82.0
350,115.32926854166666,115.78760187500001,60.0,78.0
351,115.32926854166666,116.167601875,44.0,83.0
352,115.72926854166667,116.25260187500001,51.0,77.0
353,116.12926854166668,116.27093520833334,56.0,85.0
354,116.12926854166668,116.30926854166667,60.0,83.0
355,116.92926854166667,117.30593520833334,62.0,82.0
356,116.92926854166667,117.372601875,58.0,77.0
357,117.32926854166666,117.63593520833334,53.0,79.0
358,117.72926854166667,117.82926854166666,58.0,86.0
359,116.92926854166667,117.85426854166667,46.0,82.0
360,118.12926854166668,118.572601875,56.0,83.0
361,118.52926854166667,118.94926854166667,55.0,82.0
362,118.92926854166667,119.497601875,46.0,69.0
363,119.32926854166666,119.57093520833334,51.0,76.0
364,119.32926854166666,119.66260187500001,55.0,85.0
365,118.52926854166667,119.687601875,39.0,80.0
366,119.72926854166667,120.447601875,46.0,71.0
367,120.12926854166668,120.482601875,58.0,71.0
368,120.52926854166667,120.75926854166667,51.0,75.0
369,120.92926854166667,121.03426854166668,55.0,83.0
370,120.92926854166667,121.062601875,58.0,82.0
371,120.92926854166667,121.08093520833334,51.0,83.0
372,120.92926854166667,121.15093520833334,63.0,80.0
373,121.72926854166667,122.577601875,56.0,74.0
374,121.72926854166667,122.592601875,53.0,76.0
375,122.92926854166667,123.27426854166667,56.0,82.0
376,122.52926854166667,123.37760187500001,60.0,81.0
377,122.12926854166668,123.527601875,48.0,72.0
378,123.32926854166666,123.53426854166668,65.0,83.0
379,123.72926854166667,124.31926854166667,48.0,71.0
380,121.72926854166667,124.50926854166667,41.0,82.0
381,124.12926854166668,124.572601875,68.0,84.0
382,124.12926854166668,124.97593520833334,65.0,81.0
383,124.92926854166667,125.05426854166667,36.0,79.0
384,124.92926854166667,125.672601875,67.0,81.0
385,125.72926854166667,126.122601875,60.0,76.0
386,125.72926854166667,126.18426854166667,63.0,76.0
387,126.12926854166668,126.60926854166667,55.0,70.0
388,126.52926854166667,127.15593520833333,63.0,83.0
389,126.52926854166667,127.212601875,60.0,81.0
390,126.52926854166667,127.22093520833334,67.0,76.0
391,126.92926854166667,127.53426854166668,55.0,73.0
392,125.32926854166666,127.78760187500001,48.0,81.0
393,127.72926854166667,127.84926854166667,55.0,75.0
394,127.32926854166666,128.08260187500002,65.0,87.0
395,128.12926854166668,128.7092685416667,63.0,87.0
396,128.52926854166668,129.0192685416667,51.0,74.0
397,128.12926854166668,129.02260187500002,44.0,84.0
398,128.9292685416667,129.09593520833334,63.0,82.0
399,128.9292685416667,129.10426854166667,56.0,81.0
400,129.72926854166667,130.132601875,58.0,74.0
401,129.72926854166667,130.262601875,65.0,81.0
402,130.52926854166668,130.69093520833334,62.0,84.0
403,130.12926854166668,130.7092685416667,53.0,59.0
404,129.72926854166667,130.72593520833334,46.0,82.0
405,130.9292685416667,131.34093520833335,63.0,85.0
406,131.32926854166666,132.21260187500002,60.0,83.0
407,131.72926854166667,132.31093520833335,55.0,77.0
408,132.12926854166668,132.627601875,67.0,76.0
409,132.52926854166668,133.03426854166668,55.0,70.0
410,132.9292685416667,133.34593520833334,72.0,82.0
411,132.9292685416667,133.36093520833336,63.0,81.0
412,132.9292685416667,133.36926854166668,67.0,82.0
413,132.9292685416667,133.42760187500002,60.0,81.0
414,133.32926854166666,133.85426854166667,55.0,77.0
415,133.72926854166667,134.047601875,60.0,82.0
416,133.9292685416667,134.08093520833336,55.0,92.0
417,131.32926854166666,134.10593520833334,48.0,85.0
418,133.72926854166667,134.10593520833334,63.0,97.0
419,134.12926854166668,134.32926854166666,62.0,82.0
420,134.32926854166666,134.52926854166668,63.0,90.0
421,134.52926854166668,135.10926854166667,63.0,77.0
422,134.52926854166668,135.33593520833335,56.0,74.0
423,134.52926854166668,135.352601875,44.0,83.0
424,134.9292685416667,135.387601875,51.0,66.0
425,135.3292685416667,135.60926854166667,60.0,79.0
426,136.12926854166668,136.54593520833333,62.0,81.0
427,136.12926854166668,136.61926854166668,58.0,70.0
428,136.52926854166668,137.27760187500002,53.0,83.0
429,136.12926854166668,137.292601875,46.0,81.0
430,137.12926854166668,137.39760187500002,62.0,77.0
431,136.9292685416667,137.40593520833335,58.0,82.0
432,137.3292685416667,137.57426854166667,65.0,80.0
433,137.72926854166667,138.19926854166667,58.0,71.0
434,137.72926854166667,138.24260187500002,62.0,69.0
435,137.72926854166667,138.32426854166667,55.0,72.0
436,138.52926854166668,138.76593520833333,58.0,85.0
437,138.12926854166668,138.89093520833333,50.0,76.0
438,137.72926854166667,138.95093520833333,43.0,82.0
439,139.3292685416667,139.85926854166667,63.0,84.0
440,139.72926854166667,139.89593520833336,55.0,70.0
441,140.12926854166668,140.43926854166668,55.0,77.0
442,139.3292685416667,140.48093520833334,48.0,80.0
443,140.12926854166668,140.50593520833334,62.0,82.0
444,140.52926854166668,140.74926854166668,60.0,85.0
445,140.72926854166667,140.94926854166667,62.0,75.0
446,140.9292685416667,141.60093520833334,60.0,77.0
447,141.72926854166667,141.98093520833334,56.0,76.0
448,141.3292685416667,141.99093520833335,48.0,77.0
449,141.72926854166667,142.00593520833334,60.0,82.0
450,140.9292685416667,142.01093520833334,41.0,83.0
451,142.52926854166668,143.08760187500002,58.0,72.0
452,142.52926854166668,143.11926854166668,62.0,77.0
453,142.52926854166668,143.60926854166667,46.0,76.0
454,142.9292685416667,143.61926854166668,50.0,68.0
455,143.3292685416667,143.74093520833335,53.0,81.0
456,143.72926854166667,143.99593520833335,58.0,68.0
457,143.9292685416667,144.1442685416667,56.0,72.0
458,144.12926854166668,144.47426854166667,55.0,81.0
459,144.12926854166668,145.18926854166668,39.0,82.0
460,144.9292685416667,145.19593520833334,55.0,70.0
461,144.52926854166668,145.2042685416667,46.0,82.0
462,144.9292685416667,145.24260187500002,51.0,74.0
463,144.9292685416667,145.2692685416667,58.0,76.0
464,145.3292685416667,145.5192685416667,51.0,61.0
465,145.72926854166667,146.132601875,55.0,76.0
466,145.72926854166667,146.23426854166667,58.0,69.0
467,145.72926854166667,146.32926854166666,63.0,79.0
468,145.72926854166667,146.33926854166668,51.0,77.0
469,146.12926854166668,146.72926854166667,46.0,57.0
470,146.52926854166668,147.22593520833334,55.0,83.0
471,146.52926854166668,147.24926854166668,58.0,76.0
472,146.52926854166668,147.25093520833335,51.0,77.0
473,146.92926854166666,147.272601875,39.0,92.0
474,146.52926854166668,147.287601875,61.0,81.0
475,147.32926854166666,147.707601875,63.0,71.0
476,147.32926854166666,148.00926854166667,56.0,75.0
477,147.72926854166667,148.32926854166666,51.0,69.0
478,147.32926854166666,148.41593520833334,44.0,82.0
479,148.12926854166668,148.42593520833333,60.0,80.0
480,148.12926854166668,148.55760187500002,63.0,80.0
481,148.92926854166666,149.12260187500002,53.0,79.0
482,148.92926854166666,149.427601875,58.0,76.0
483,149.32926854166666,149.81593520833334,53.0,79.0
484,149.72926854166667,149.87593520833335,58.0,80.0
485,149.72926854166667,149.92426854166666,62.0,86.0
486,148.92926854166666,150.177601875,46.0,92.0
487,150.12926854166668,150.377601875,58.0,83.0
488,150.52926854166668,151.13093520833334,55.0,78.0
489,151.32926854166666,151.447601875,58.0,77.0
490,151.32926854166666,151.55926854166668,62.0,83.0
491,150.92926854166666,151.81426854166668,50.0,85.0
492,150.52926854166668,151.84926854166667,43.0,82.0
493,151.72926854166667,151.90093520833335,63.0,84.0
494,151.92926854166666,152.14593520833333,62.0,81.0
495,152.12926854166668,152.612601875,60.0,88.0
496,152.52926854166668,152.717601875,55.0,83.0
497,152.12926854166668,153.07093520833334,48.0,83.0
498,152.92926854166666,153.09093520833335,60.0,83.0
499,152.92926854166666,153.11593520833333,63.0,83.0
500,152.92926854166666,153.13593520833334,55.0,82.0
501,153.72926854166667,154.59093520833335,44.0,83.0
502,154.52926854166668,154.68926854166668,56.0,79.0
503,154.12926854166668,154.75426854166668,51.0,82.0
504,154.52926854166668,154.857601875,60.0,81.0
505,154.52926854166668,154.90260187500002,63.0,81.0
506,154.92926854166666,154.99093520833333,56.0,69.0
507,155.32926854166666,155.5242685416667,53.0,77.0
508,155.32926854166666,155.887601875,62.0,80.0
509,155.72926854166667,156.167601875,53.0,66.0
510,155.32926854166666,156.187601875,46.0,76.0
511,156.12926854166668,156.22926854166667,58.0,74.0
512,156.12926854166668,156.29093520833334,62.0,79.0
513,156.9292685416667,157.04926854166666,36.0,74.0
514,156.9292685416667,157.36093520833333,72.0,74.0
515,156.9292685416667,157.47926854166667,60.0,59.0
516,158.12926854166668,158.36593520833333,60.0,83.0
517,157.72926854166667,158.72593520833334,55.0,82.0
518,158.52926854166668,159.08426854166666,67.0,64.0
519,158.52926854166668,159.102601875,60.0,70.0
520,159.32926854166666,159.927601875,60.0,38.0
521,157.32926854166666,159.96593520833335,48.0,77.0
522,159.32926854166666,159.96926854166668,67.0,67.0
523,159.32926854166666,160.007601875,72.0,73.0
524,158.9292685416667,160.03593520833334,55.0,61.0
525,160.12926854166668,160.70926854166666,63.0,77.0
526,160.12926854166668,160.93593520833335,56.0,74.0
527,160.12926854166668,160.952601875,44.0,83.0
528,160.52926854166668,160.987601875,51.0,66.0
529,160.9292685416667,161.20926854166666,60.0,79.0
530,161.72926854166667,162.14593520833333,62.0,81.0
531,161.72926854166667,162.21926854166668,58.0,70.0
532,162.12926854166668,162.877601875,53.0,83.0
533,161.72926854166667,162.892601875,46.0,81.0
534,162.72926854166667,162.99760187500002,62.0,77.0
535,162.52926854166668,163.00593520833334,58.0,82.0
536,162.9292685416667,163.17426854166666,65.0,80.0
537,163.32926854166666,163.79926854166666,58.0,71.0
538,163.32926854166666,163.842601875,62.0,69.0
539,163.32926854166666,163.92426854166666,55.0,72.0
540,164.12926854166668,164.36593520833333,58.0,85.0
541,163.72926854166667,164.49093520833333,50.0,76.0
542,163.32926854166666,164.55093520833333,43.0,82.0
543,164.9292685416667,165.45926854166666,63.0,84.0
544,165.32926854166666,165.49593520833335,55.0,70.0
545,165.72926854166667,166.03926854166667,55.0,77.0
546,164.9292685416667,166.08093520833333,48.0,80.0
547,165.72926854166667,166.10593520833334,62.0,82.0
548,166.12926854166668,166.34926854166667,60.0,85.0
549,166.32926854166666,166.54926854166666,62.0,75.0
550,166.52926854166668,167.20093520833333,60.0,77.0
551,167.32926854166666,167.58093520833333,56.0,76.0
552,166.9292685416667,167.59093520833335,48.0,77.0
553,167.32926854166666,167.60593520833334,60.0,82.0
554,166.52926854166668,167.61093520833333,41.0,83.0
555,168.12926854166668,168.687601875,58.0,72.0
556,168.12926854166668,168.71926854166668,62.0,77.0
557,168.12926854166668,169.20926854166666,46.0,76.0
558,168.52926854166668,169.21926854166668,50.0,68.0
559,168.9292685416667,169.34093520833335,53.0,81.0
560,169.32926854166666,169.59593520833334,58.0,68.0
561,169.52926854166668,169.74426854166668,56.0,72.0
562,169.72926854166667,170.07426854166667,55.0,81.0
563,169.72926854166667,170.78926854166667,39.0,82.0
564,170.52926854166668,170.79593520833333,55.0,70.0
565,170.12926854166668,170.8042685416667,46.0,82.0
566,170.52926854166668,170.842601875,51.0,74.0
567,170.52926854166668,170.86926854166668,58.0,76.0
568,170.9292685416667,171.11926854166668,51.0,61.0
569,171.32926854166666,171.732601875,55.0,76.0
570,171.32926854166666,171.83426854166666,58.0,69.0
571,171.32926854166666,171.9292685416667,63.0,79.0
572,171.32926854166666,171.93926854166668,51.0,77.0
573,171.72926854166667,172.32926854166666,46.0,57.0
574,172.12926854166668,172.82593520833333,55.0,83.0
575,172.12926854166668,172.84926854166667,58.0,76.0
576,172.12926854166668,172.85093520833334,51.0,77.0
577,172.52926854166668,172.87260187500002,39.0,92.0
578,172.12926854166668,172.887601875,61.0,81.0
579,172.9292685416667,173.30760187500002,63.0,71.0
580,172.9292685416667,173.60926854166667,56.0,75.0
581,173.32926854166666,173.9292685416667,51.0,69.0
582,172.9292685416667,174.01593520833333,44.0,82.0
583,173.72926854166667,174.02593520833335,60.0,80.0
584,173.72926854166667,174.157601875,63.0,80.0
585,174.52926854166668,174.722601875,53.0,79.0
586,174.52926854166668,175.02760187500002,58.0,76.0
587,174.9292685416667,175.41593520833334,53.0,79.0
588,175.32926854166666,175.47593520833334,58.0,80.0
589,175.32926854166666,175.5242685416667,62.0,86.0
590,174.52926854166668,175.77760187500002,46.0,92.0
591,175.72926854166667,175.977601875,58.0,83.0
592,176.12926854166668,176.73093520833334,55.0,78.0
593,176.9292685416667,177.047601875,58.0,77.0
594,176.9292685416667,177.15926854166668,62.0,83.0
595,176.52926854166668,177.41426854166667,50.0,85.0
596,176.12926854166668,177.44926854166667,43.0,82.0
597,177.32926854166666,177.50093520833335,63.0,84.0
598,177.52926854166668,177.74593520833335,62.0,81.0
599,177.72926854166667,178.21260187500002,60.0,88.0
600,178.12926854166668,178.317601875,55.0,83.0
601,177.72926854166667,178.67093520833333,48.0,83.0
602,178.52926854166668,178.69093520833334,60.0,83.0
603,178.52926854166668,178.71593520833335,63.0,83.0
604,178.52926854166668,178.73593520833333,55.0,82.0
605,179.32926854166666,180.19093520833334,44.0,83.0
606,180.12926854166668,180.28926854166667,56.0,79.0
607,179.72926854166667,180.35426854166667,51.0,82.0
608,180.12926854166668,180.457601875,60.0,81.0
609,180.12926854166668,180.502601875,63.0,81.0
610,180.52926854166668,180.59093520833335,56.0,69.0
611,180.9292685416667,181.12426854166668,53.0,77.0
612,180.9292685416667,181.487601875,62.0,80.0
613,181.32926854166666,181.767601875,53.0,66.0
614,180.9292685416667,181.787601875,46.0,76.0
615,181.72926854166667,181.82926854166666,58.0,74.0
616,181.72926854166667,181.89093520833333,62.0,79.0
617,182.52926854166668,182.6492685416667,36.0,74.0
618,182.52926854166668,182.96093520833335,72.0,74.0
619,182.52926854166668,183.07926854166666,60.0,59.0
620,183.72926854166667,183.96593520833335,60.0,83.0
621,183.32926854166666,184.32593520833333,55.0,82.0
622,184.12926854166668,184.68426854166668,67.0,64.0
623,184.12926854166668,184.702601875,60.0,70.0
624,184.9292685416667,185.52760187500002,60.0,38.0
625,182.9292685416667,185.56593520833334,48.0,77.0
626,184.9292685416667,185.56926854166667,67.0,67.0
627,184.9292685416667,185.607601875,72.0,73.0
628,184.52926854166668,185.63593520833334,55.0,61.0
629,185.72926854166667,186.47593520833334,44.0,84.0
630,186.12926854166668,186.52093520833336,51.0,66.0
631,185.72926854166667,186.592601875,56.0,74.0
632,185.72926854166667,186.59926854166667,63.0,76.0
633,186.52926854166668,186.83593520833335,60.0,77.0
634,187.32926854166666,187.91593520833334,62.0,81.0
635,187.72926854166667,188.207601875,53.0,81.0
636,188.12926854166668,188.2742685416667,58.0,84.0
637,187.32926854166666,188.28426854166668,46.0,75.0
638,188.9292685416667,189.02926854166668,36.0,77.0
639,188.9292685416667,189.22593520833334,55.0,75.0
640,188.9292685416667,190.172601875,60.0,77.0
641,189.32926854166666,190.25093520833335,48.0,81.0
642,189.72926854166667,190.252601875,55.0,81.0
643,190.12926854166668,190.567601875,62.0,83.0
644,190.52926854166668,190.98593520833333,63.0,90.0
645,190.9292685416667,191.16926854166667,60.0,70.0
646,191.23426854166667,191.407601875,63.0,80.0
647,191.24093520833335,191.44926854166667,60.0,77.0
648,191.237601875,191.44926854166667,67.0,81.0
649,192.46426854166668,193.04926854166666,51.0,76.0
650,192.08093520833333,193.05093520833333,44.0,85.0
651,192.07093520833334,193.06593520833334,56.0,73.0
652,192.93926854166668,193.44426854166667,60.0,81.0
653,193.35926854166667,193.61593520833335,56.0,73.0
654,192.06926854166667,193.62593520833335,63.0,76.0
655,194.13926854166667,194.67426854166666,58.0,74.0
656,194.58926854166668,194.83093520833333,62.0,76.0
657,195.0242685416667,195.15426854166668,65.0,81.0
658,193.7742685416667,196.41093520833334,46.0,84.0
659,195.66093520833334,196.72926854166667,65.0,69.0
660,195.797601875,196.74426854166668,70.0,66.0
661,196.05093520833333,196.77593520833335,77.0,57.0
662,195.90926854166668,196.77760187500002,74.0,72.0
663,196.82093520833334,197.34926854166667,55.0,70.0
664,196.972601875,197.55926854166668,63.0,74.0
665,197.71926854166668,198.60593520833334,55.0,73.0
666,196.90926854166668,198.95426854166666,60.0,73.0
667,198.107601875,198.98093520833334,63.0,81.0
668,198.4892685416667,199.16926854166667,67.0,74.0
669,198.887601875,199.34926854166667,55.0,67.0
670,197.322601875,200.112601875,43.0,61.0
671,199.30093520833333,200.12093520833335,63.0,76.0
672,196.9292685416667,200.14760187500002,36.0,78.0
673,200.12926854166668,200.98593520833333,44.0,87.0
674,200.52926854166668,201.0242685416667,51.0,70.0
675,200.9292685416667,201.31593520833334,56.0,86.0
676,201.72926854166667,202.24260187500002,58.0,74.0
677,201.72926854166667,202.512601875,62.0,72.0
678,201.72926854166667,202.65593520833335,46.0,77.0
679,202.12926854166668,202.657601875,53.0,80.0
680,202.52926854166668,202.74926854166668,58.0,85.0
681,203.32926854166666,204.172601875,63.0,70.0
682,203.72926854166667,204.222601875,55.0,82.0
683,204.12926854166668,204.61593520833335,60.0,87.0
684,204.52926854166668,205.01926854166666,55.0,66.0
685,204.9292685416667,205.30093520833336,67.0,82.0
686,205.32926854166666,205.64593520833336,55.0,65.0
687,203.32926854166666,205.85093520833334,48.0,78.0
688,205.72926854166667,205.86593520833335,63.0,81.0
689,206.52926854166668,207.08093520833333,56.0,75.0
690,206.52926854166668,207.252601875,44.0,83.0
691,206.9292685416667,207.347601875,51.0,75.0
692,206.52926854166668,207.37260187500002,63.0,76.0
693,207.32926854166666,207.51593520833333,56.0,88.0
694,208.12926854166668,208.60426854166667,58.0,66.0
695,208.12926854166668,208.94093520833334,62.0,79.0
696,208.12926854166668,208.97093520833334,46.0,76.0
697,208.52926854166668,208.99926854166668,53.0,71.0
698,208.9292685416667,209.047601875,58.0,73.0
699,209.72926854166667,209.85426854166667,36.0,76.0
700,209.72926854166667,210.27760187500002,63.0,73.0
701,210.12926854166668,210.727601875,48.0,81.0
702,210.52926854166668,210.73093520833334,55.0,75.0
703,210.9292685416667,211.45593520833333,62.0,73.0
704,211.32926854166666,212.077601875,63.0,64.0
705,212.06093520833335,212.26593520833333,67.0,76.0
706,212.917601875,213.04593520833333,36.0,72.0
707,212.92093520833333,213.702601875,60.0,70.0
708,212.91926854166667,213.702601875,63.0,68.0
709,214.137601875,214.357601875,62.0,81.0
710,214.55593520833335,214.72593520833334,63.0,82.0
711,215.02260187500002,215.21260187500002,67.0,79.0
712,213.30593520833335,215.27926854166668,48.0,81.0
713,213.73426854166667,215.29426854166667,55.0,77.0
714,216.377601875,217.00926854166667,79.0,68.0
715,216.267601875,217.03426854166668,72.0,64.0
716,216.17426854166666,217.04593520833333,67.0,64.0
717,215.912601875,217.08760187500002,48.0,61.0
718,216.11093520833333,217.092601875,55.0,69.0
