,start,end,pitch,velocity
0,9.413566575,9.922186891666668,81.0,86.0
1,9.930807575,10.180807391666667,81.0,84.0
2,10.189428075,10.439427891666666,79.0,78.0
3,10.448048575,13.542873891666668,81.0,84.0
4,13.551494575,14.060114891666666,81.0,86.0
5,14.068735575,14.318735391666667,86.0,83.0
6,14.327356075,14.577355891666667,86.0,93.0
7,14.585976575,17.68080189166667,79.0,86.0
8,17.689422575000002,18.198042891666667,79.0,81.0
9,18.206663575,18.456663391666666,79.0,90.0
10,18.465284075,18.71528389166667,79.0,84.0
11,18.723904575,19.749765891666666,84.0,95.0
12,19.758386575,19.879076141666665,81.0,86.0
13,19.887696825,20.00838639166667,84.0,84.0
14,20.017007075000002,23.887693891666668,81.0,81.0
15,23.896314575,24.404934891666667,81.0,84.0
16,24.413555575,24.663555391666666,81.0,90.0
17,24.672176075,24.92217589166667,79.0,86.0
18,24.930796575000002,28.025621891666667,86.0,95.0
19,28.034242575,28.54286289166667,79.0,84.0
20,28.551483575000002,28.801483391666668,79.0,84.0
21,28.810104075,29.060103891666667,77.0,90.0
22,29.068724575,32.16354989166667,79.0,90.0
23,32.172170575,32.68079089166667,79.0,86.0
24,32.689411575,32.93941139166667,79.0,84.0
25,32.948032075,33.198031891666666,79.0,83.0
26,33.206652575,34.23251389166667,81.0,86.0
27,34.241134575000004,36.30147789166667,74.0,86.0
28,36.310098575,39.40492389166667,86.0,63.0
29,39.413544575,39.66354439166667,84.0,90.0
30,39.672165075,39.801475325,86.0,82.0
31,39.81009600833333,39.92216489166667,84.0,76.0
32,39.930785575,40.18078539166667,81.0,83.0
33,40.189406075,40.43940589166667,79.0,79.0
34,40.448026575,44.57733389166667,81.0,90.0
35,44.585954575,47.68077989166667,86.0,79.0
36,47.689400575,47.939400391666666,84.0,91.0
37,47.948021075,48.08595200833334,86.0,79.0
38,48.09457269166667,48.198020891666665,84.0,72.0
39,48.206641575,48.45664139166667,81.0,76.0
40,48.465262075,48.71526189166667,79.0,68.0
41,48.723882575000005,52.818268008333334,77.0,84.0
42,52.826742575,53.07250500833333,69.0,84.0
43,53.080979575,53.32674200833333,69.0,82.0
44,53.335216575,53.58097900833333,69.0,76.0
45,53.589453575,53.83521600833333,72.0,79.0
46,53.843690575,54.34369000833333,74.0,79.0
47,54.352164574999996,54.85216400833333,81.0,84.0
48,54.860638574999996,55.11063839166666,79.0,82.0
49,55.119259074999995,55.196845225,81.0,73.0
50,55.20546590833333,55.36925889166666,79.0,71.0
51,55.377879574999994,55.62787939166666,77.0,84.0
52,55.636500074999994,55.88649989166666,79.0,84.0
53,55.89512057499999,56.384344354166664,77.0,81.0
54,56.3929650375,56.632189,69.0,90.0
55,56.64080968333333,56.90589569583333,72.0,86.0
56,56.91451637916666,61.058909891666666,74.0,83.0
57,61.06753057499999,61.317530391666665,69.0,98.0
58,61.326151075,61.576150891666664,74.0,84.0
59,61.584771575,61.83477139166666,74.0,90.0
60,61.843392075,62.09339189166666,72.0,93.0
61,62.102012574999996,62.61063289166666,74.0,94.0
62,62.619253574999995,63.12787389166667,77.0,101.0
63,63.136494575,63.645114891666665,74.0,94.0
64,63.653735575,64.67959689166666,74.0,94.0
65,64.688217575,64.93821739166667,72.0,90.0
66,64.946838075,65.19683789166666,69.0,82.0
67,65.205458575,65.45545839166667,72.0,94.0
68,65.464079075,65.71407889166666,69.0,82.0
69,65.722699575,65.97269939166667,67.0,76.0
70,65.981320075,66.23131989166666,69.0,79.0
71,66.23994057499999,66.74856089166667,67.0,93.0
72,66.757181575,67.00718139166666,62.0,84.0
73,67.015802075,67.26580189166667,65.0,84.0
74,67.27442257499999,67.52442239166666,72.0,84.0
75,67.533043075,69.33476589166666,69.0,84.0
76,69.343386575,69.59338639166666,69.0,100.0
77,69.60200707499999,69.85200689166666,74.0,90.0
78,69.860627575,70.11062739166667,74.0,90.0
79,70.119248075,70.36924789166666,72.0,93.0
80,70.377868575,70.88648889166666,74.0,95.0
81,70.89510957499999,71.14510939166667,72.0,94.0
82,71.153730075,71.40372989166667,74.0,82.0
83,71.412350575,71.66235039166666,72.0,86.0
84,71.670971075,72.95545289166667,67.0,94.0
85,72.964073575,73.21407339166666,65.0,95.0
86,73.22269407499999,73.47269389166667,67.0,91.0
87,73.481314575,73.73131439166667,72.0,94.0
88,73.739935075,73.98993489166666,69.0,84.0
89,73.998555575,74.24855539166666,72.0,84.0
90,74.25717607499999,74.50717589166666,69.0,84.0
91,74.515796575,75.02441689166666,72.0,80.0
92,75.033037575,75.28303739166667,67.0,73.0
93,75.291658075,75.80027839166667,69.0,86.0
94,75.808899075,77.61062189166667,62.0,91.0
95,77.619242575,77.86924239166666,69.0,76.0
96,77.877863075,78.12786289166667,74.0,90.0
97,78.136483575,78.38648339166666,74.0,84.0
98,78.39510407499999,78.64510389166666,72.0,90.0
99,78.653724575,79.16234489166666,74.0,91.0
100,79.170965575,79.42096539166667,77.0,95.0
101,79.429586075,79.67958589166666,74.0,91.0
102,79.688206575,80.19682689166666,77.0,95.0
103,80.205447575,81.23130889166666,77.0,91.0
104,81.23992957499999,81.48992939166666,74.0,84.0
105,81.498550075,81.74854989166667,77.0,91.0
106,81.757170575,82.00717039166666,77.0,95.0
107,82.015791075,82.26579089166667,77.0,91.0
108,82.274411575,82.52441139166666,74.0,86.0
109,82.533032075,82.78303189166667,77.0,93.0
110,82.791652575,83.30027289166667,74.0,95.0
111,83.308893575,83.55889339166666,72.0,90.0
112,83.56751407499999,84.07613439166667,74.0,86.0
113,84.084755075,85.88647789166666,67.0,95.0
114,85.89509857499999,86.14086100833333,62.0,98.0
115,86.149335575,86.39509800833332,62.0,84.0
116,86.403572575,86.64933500833332,62.0,84.0
117,86.65780957499999,86.90357200833333,65.0,93.0
118,86.91204657499999,87.41204600833332,69.0,95.0
119,87.420520575,87.66628300833332,72.0,91.0
120,87.67475757499999,87.92052000833333,74.0,90.0
121,87.92899457499999,88.43761489166666,72.0,90.0
122,88.44623557499999,89.47209689166665,67.0,90.0
123,89.48071757499999,89.73071739166666,65.0,90.0
124,89.73933807499999,89.98933789166665,67.0,86.0
125,89.99795857499998,90.24795839166666,65.0,84.0
126,90.25657907499999,90.50657889166666,62.0,94.0
127,90.515199575,90.76519939166666,62.0,84.0
128,90.77382007499999,91.02381989166666,67.0,90.0
129,91.032440575,91.28244039166665,65.0,90.0
130,91.29106107499999,91.43114717916666,67.0,90.0
131,91.42899200833332,91.5690781125,65.0,90.0
132,91.5690781125,91.92899164166666,62.0,90.0
133,91.80830207499999,92.05830189166666,60.0,90.0
134,92.06692257499999,96.19622989166666,62.0,90.0
135,96.204850575,97.72179800833332,74.0,90.0
136,97.730272575,97.97603500833333,72.0,93.0
137,97.98450957499999,98.23027200833333,74.0,84.0
138,98.238746575,98.48450900833333,72.0,94.0
139,98.492983575,99.75569400833332,69.0,104.0
140,99.764168575,100.00993100833333,69.0,95.0
141,100.01840557499999,100.26416800833333,72.0,95.0
142,100.27264257499999,101.53535300833333,74.0,98.0
143,101.543827575,101.78959000833333,77.0,95.0
144,101.798064575,102.04382700833332,74.0,98.0
145,102.052301575,102.29806400833333,77.0,93.0
146,102.30653857499999,104.33196000833333,79.0,95.0
147,104.34043457499999,105.85738200833333,74.0,98.0
148,105.865856575,106.11161900833334,74.0,100.0
149,106.120093575,106.36585600833332,77.0,95.0
150,106.37433057499999,107.89127800833333,79.0,90.0
151,107.899752575,108.14551500833333,79.0,86.0
152,108.153989575,108.39975200833334,81.0,84.0
153,108.408226575,109.92517400833333,74.0,98.0
154,109.93364857499999,110.17941100833333,72.0,91.0
155,110.187885575,110.43364800833334,74.0,84.0
156,110.442122575,110.68788500833332,72.0,94.0
157,110.696359575,112.46754400833333,69.0,77.0
158,112.476018575,112.72178100833332,69.0,104.0
159,112.730255575,112.97601800833333,74.0,91.0
160,112.98449257499999,113.23025500833333,74.0,86.0
161,113.238729575,113.48449200833333,72.0,95.0
162,113.492966575,113.99296600833333,74.0,90.0
163,114.001440575,114.24720300833333,77.0,95.0
164,114.25567757499999,114.50144000833333,74.0,86.0
165,114.509914575,115.00991400833333,74.0,84.0
166,115.01838857499999,116.02686200833332,74.0,62.0
167,116.035336575,116.28109900833333,72.0,86.0
168,116.28957357499999,116.53533600833333,74.0,86.0
169,116.543810575,116.78957300833333,74.0,86.0
170,116.798047575,117.04381000833334,72.0,86.0
171,117.052284575,117.29804700833333,72.0,86.0
172,117.306521575,117.55228400833333,74.0,86.0
173,117.560758575,117.80652100833333,72.0,91.0
174,117.814995575,117.90821580833332,74.0,80.0
175,117.916690375,118.06075800833332,72.0,80.0
176,118.069232575,118.31499500833333,67.0,82.0
177,118.32346957499999,118.56923200833333,72.0,69.0
178,118.577706575,120.60312800833333,69.0,90.0
179,120.61160257499999,120.85736500833333,62.0,79.0
180,120.865839575,121.11160200833334,62.0,73.0
181,121.120076575,121.36583900833332,62.0,76.0
182,121.374313575,121.62007600833333,65.0,84.0
183,121.62855057499999,122.12855000833333,69.0,80.0
184,122.137024575,122.38278700833334,72.0,83.0
185,122.391261575,122.63702400833333,74.0,83.0
186,122.645498575,123.14549800833333,67.0,79.0
187,123.153972575,124.16244600833333,67.0,79.0
188,124.170920575,124.67092000833333,69.0,79.0
189,124.679394575,124.92515700833333,72.0,100.0
190,124.93363157499999,125.17939400833333,72.0,90.0
191,125.187868575,125.43363100833332,72.0,93.0
192,125.442105575,125.68786800833334,74.0,84.0
193,125.69634257499999,125.94210500833333,79.0,90.0
194,125.950579575,126.19634200833333,81.0,84.0
195,126.204816575,126.45057900833334,77.0,91.0
196,126.459053575,126.70481600833332,79.0,78.0
197,126.713290575,128.73871200833332,74.0,98.0
198,130.781082575,133.87590789166666,86.0,63.0
199,133.884528575,134.13452839166666,84.0,90.0
200,134.143149075,134.272459325,86.0,82.0
201,134.28108000833333,134.39314889166667,84.0,76.0
202,134.401769575,134.65176939166668,81.0,83.0
203,134.660390075,134.91038989166665,79.0,79.0
204,134.919010575,139.04831789166667,81.0,90.0
205,139.056938575,142.15176389166666,86.0,79.0
206,142.160384575,142.41038439166667,84.0,91.0
207,142.419005075,142.55693600833334,86.0,79.0
208,142.56555669166667,142.66900489166667,84.0,72.0
209,142.677625575,142.92762539166665,81.0,76.0
210,142.93624607499999,143.18624589166666,79.0,68.0
211,143.194866575,147.32417389166667,77.0,84.0
212,147.332794575,147.58279439166665,69.0,84.0
213,147.591415075,147.84141489166666,69.0,82.0
214,147.850035575,148.10003539166667,69.0,76.0
215,148.108656075,148.35865589166667,72.0,79.0
216,148.367276575,148.87589689166666,74.0,79.0
217,148.884517575,149.39313789166667,81.0,84.0
218,149.401758575,149.65175839166668,79.0,82.0
219,149.660379075,149.737965225,81.0,73.0
220,149.74658590833334,149.91037889166665,79.0,71.0
221,149.918999575,150.16899939166666,77.0,84.0
222,150.177620075,150.42761989166667,79.0,84.0
223,150.436240575,150.92546435416668,77.0,81.0
224,150.9340850375,151.173309,69.0,90.0
225,151.18192968333332,151.44701569583333,72.0,86.0
226,151.45563637916666,155.5651080083333,74.0,83.0
227,155.573582575,155.81934500833333,69.0,98.0
228,155.82781957499998,156.07358200833332,74.0,84.0
229,156.082056575,156.32781900833334,74.0,90.0
230,156.33629357499998,156.58205600833332,72.0,93.0
231,156.590530575,157.09053000833333,74.0,94.0
232,157.09900457499998,157.59900400833334,77.0,101.0
233,157.607478575,158.11609889166667,74.0,94.0
234,158.124719575,159.15058089166666,74.0,94.0
235,159.159201575,159.40920139166664,72.0,90.0
236,159.41782207499998,159.66782189166665,69.0,82.0
237,159.67644257499998,159.92644239166665,72.0,94.0
238,159.935063075,160.18506289166666,69.0,82.0
239,160.193683575,160.44368339166667,67.0,76.0
240,160.452304075,160.70230389166665,69.0,79.0
241,160.71092457499998,161.21954489166666,67.0,93.0
242,161.228165575,161.47816539166666,62.0,84.0
243,161.486786075,161.73678589166664,65.0,84.0
244,161.74540657499998,161.99540639166665,72.0,84.0
245,162.00402707499998,163.80574989166666,69.0,84.0
246,163.814370575,164.06437039166664,69.0,100.0
247,164.07299107499998,164.32299089166665,74.0,90.0
248,164.33161157499998,164.58161139166666,74.0,90.0
249,164.590232075,164.84023189166666,72.0,93.0
250,164.848852575,165.35747289166665,74.0,95.0
251,165.36609357499998,165.61609339166665,72.0,94.0
252,165.62471407499999,165.87471389166666,74.0,82.0
253,165.883334575,166.13333439166666,72.0,86.0
254,166.141955075,167.42643689166664,67.0,94.0
255,167.43505757499997,167.68505739166665,65.0,95.0
256,167.69367807499998,167.94367789166665,67.0,91.0
257,167.952298575,168.20229839166666,72.0,94.0
258,168.210919075,168.46091889166667,69.0,84.0
259,168.469539575,168.71953939166664,72.0,84.0
260,168.72816007499998,168.97815989166665,69.0,84.0
261,168.98678057499998,169.49540089166666,72.0,80.0
262,169.504021575,169.75402139166664,67.0,73.0
263,169.76264207499997,170.27126239166665,69.0,86.0
264,170.279883075,172.08160589166664,62.0,91.0
265,172.09022657499997,172.3359890083333,69.0,76.0
266,172.34446357499996,172.5902260083333,74.0,90.0
267,172.59870057499998,172.84446300833332,74.0,84.0
268,172.85293757499997,173.0987000083333,72.0,90.0
269,173.107174575,173.60717400833332,74.0,91.0
270,173.61564857499997,173.8614110083333,77.0,95.0
271,173.86988557499998,174.1156480083333,74.0,91.0
272,174.12412257499997,174.63274289166665,77.0,95.0
273,174.64136357499999,175.66722489166665,77.0,91.0
274,175.67584557499998,175.92584539166663,74.0,84.0
275,175.93446607499996,176.18446589166663,77.0,91.0
276,176.19308657499997,176.44308639166664,77.0,95.0
277,176.45170707499997,176.70170689166665,77.0,91.0
278,176.71032757499998,176.96032739166665,74.0,86.0
279,176.968948075,177.21894789166663,77.0,93.0
280,177.22756857499996,177.73618889166664,74.0,95.0
281,178.00343007499998,178.51205039166663,74.0,86.0
282,178.52067107499997,180.32239389166665,67.0,95.0
283,180.33101457499998,180.58101439166663,62.0,98.0
284,180.58963507499996,180.83963489166663,62.0,84.0
285,180.84825557499997,181.09825539166664,62.0,84.0
286,181.10687607499997,181.35687589166665,65.0,93.0
287,181.36549657499998,181.87411689166663,69.0,95.0
288,181.88273757499996,182.13273739166664,72.0,91.0
289,182.14135807499997,182.39135789166664,74.0,90.0
290,182.39997857499998,182.90859889166663,72.0,90.0
291,182.91721957499996,183.94308089166663,67.0,90.0
292,183.95170157499996,184.20170139166663,65.0,90.0
293,184.21032207499997,184.46032189166664,67.0,86.0
294,184.46894257499997,184.71894239166664,65.0,84.0
295,184.72756307499998,184.97756289166665,62.0,94.0
296,184.98618357499998,185.23618339166663,62.0,84.0
297,185.24480407499996,185.49480389166663,67.0,90.0
298,185.50342457499997,185.75342439166664,65.0,90.0
299,185.76204507499997,185.90213117916664,67.0,90.0
300,185.91075186249998,186.27066539166663,62.0,90.0
301,186.27928607499996,186.52928589166663,60.0,90.0
302,186.53790657499997,190.66721389166665,62.0,90.0
303,190.67583457499998,192.19278200833332,74.0,90.0
304,192.20125657499997,192.4470190083333,72.0,93.0
305,192.455493575,192.7012560083333,74.0,84.0
306,192.70973057499998,192.95549300833332,72.0,94.0
307,192.96396757499997,194.22667800833332,69.0,104.0
308,194.23515257499997,194.4809150083333,69.0,95.0
309,194.489389575,194.73515200833333,72.0,95.0
310,194.74362657499998,196.0063370083333,74.0,98.0
311,196.01481157499998,196.26057400833332,77.0,95.0
312,196.26904857499997,196.5148110083333,74.0,98.0
313,196.523285575,196.76904800833333,77.0,93.0
314,196.77752257499998,198.80294400833333,79.0,95.0
315,198.81141857499998,200.32836600833332,74.0,98.0
316,200.336840575,200.5826030083333,74.0,100.0
317,200.59107757499999,200.83684000833333,77.0,95.0
318,200.84531457499997,202.36226200833332,79.0,90.0
319,202.370736575,202.6164990083333,79.0,86.0
320,202.62497357499998,202.87073600833332,81.0,84.0
321,202.87921057499997,204.39615800833332,74.0,98.0
322,204.404632575,204.6503950083333,72.0,91.0
323,204.65886957499998,204.90463200833332,74.0,84.0
324,204.91310657499997,205.1588690083333,72.0,94.0
325,205.167343575,206.93852800833332,69.0,77.0
326,206.947002575,207.1927650083333,69.0,104.0
327,207.201239575,207.44700200833333,74.0,91.0
328,207.45547657499998,207.70123900833332,74.0,86.0
329,207.709713575,207.9554760083333,72.0,95.0
330,207.96395057499998,208.4639500083333,74.0,90.0
331,208.472424575,208.7181870083333,77.0,95.0
332,208.72666157499998,208.97242400833332,74.0,86.0
333,208.98089857499997,209.48089800833333,74.0,84.0
334,209.48937257499998,210.4978460083333,74.0,62.0
335,210.506320575,210.75208300833333,72.0,86.0
336,210.76055757499998,211.00632000833332,74.0,86.0
337,211.014794575,211.2605570083333,74.0,86.0
338,211.26903157499999,211.51479400833333,72.0,86.0
339,211.52326857499997,211.76903100833331,72.0,86.0
340,211.777505575,212.02326800833333,74.0,86.0
341,212.03174257499998,212.27750500833332,72.0,91.0
342,212.285979575,212.3791998083333,74.0,80.0
343,212.387674375,212.5317420083333,72.0,80.0
344,212.540216575,212.78597900833333,67.0,82.0
345,212.79445357499998,213.04021600833332,72.0,69.0
346,213.048690575,215.07411200833332,69.0,90.0
347,215.082586575,215.3283490083333,62.0,79.0
348,215.33682357499998,215.58258600833332,62.0,73.0
349,215.59106057499997,215.8368230083333,62.0,76.0
350,215.845297575,216.09106000833333,65.0,84.0
351,216.09953457499998,216.5995340083333,69.0,80.0
352,216.60800857499999,216.85377100833333,72.0,83.0
353,216.86224557499997,217.10800800833331,74.0,83.0
354,217.116482575,217.61648200833332,67.0,79.0
355,217.624956575,218.6334300083333,67.0,79.0
356,218.64190457499998,219.1419040083333,69.0,79.0
357,219.150378575,219.3961410083333,72.0,100.0
358,219.40461557499998,219.65037800833332,72.0,90.0
359,219.65885257499997,219.9046150083333,72.0,93.0
360,219.913089575,220.15885200833333,74.0,84.0
361,220.16732657499998,220.41308900833332,79.0,90.0
362,220.421563575,220.6673260083333,81.0,84.0
363,220.67580057499998,220.92156300833332,77.0,91.0
364,220.93003757499997,221.1758000083333,79.0,78.0
365,221.184274575,223.2096960083333,74.0,98.0
366,225.28713457499998,225.623341225,69.0,84.0
367,225.545755075,225.66428947083332,74.0,81.0
368,225.804375575,225.99618577916667,74.0,84.0
369,226.062996075,226.36687516249998,72.0,83.0
370,226.32161657499998,226.68153010416665,74.0,84.0
371,226.838857575,227.0263574375,77.0,94.0
372,227.097478075,227.3129951583333,74.0,93.0
373,227.35609857499998,227.79359857499998,77.0,98.0
374,227.85609857499998,228.4956819083333,77.0,93.0
375,228.85609857499998,229.13526524166664,74.0,95.0
376,229.10609857499998,229.2394319083333,77.0,86.0
377,229.35609857499998,229.4831819083333,77.0,94.0
378,229.60609857499998,229.8331819083333,77.0,91.0
379,229.85609857499998,230.0769319083333,74.0,93.0
380,230.10609857499998,230.28526524166665,77.0,86.0
381,230.35609857499998,230.72032244583332,74.0,91.0
382,230.873339575,231.12980490416663,72.0,83.0
383,231.13196007499997,231.3151495958333,74.0,83.0
384,231.39058057499997,232.04575250833332,69.0,86.0
385,233.40866957499998,233.5209575833333,62.0,83.0
386,233.66290657499997,233.83027926666665,62.0,83.0
387,233.91714357499998,234.27943129999997,62.0,37.0
388,234.17138057499997,234.4743463333333,65.0,82.0
389,234.425617575,234.75824431666663,69.0,84.0
390,234.93409157499997,235.1692608,72.0,84.0
391,235.18832857499999,235.366294475,74.0,84.0
392,235.44256557499997,235.84298884999998,67.0,83.0
393,235.95103957499998,236.35781877499997,67.0,80.0
394,236.96798757499997,237.14595347499997,69.0,84.0
395,237.47646157499997,237.62476649166663,72.0,95.0
396,237.73069857499996,237.8684102833333,72.0,100.0
397,237.98493557499998,238.19468109999997,72.0,90.0
398,238.23917257499997,238.31968095833332,72.0,17.0
399,238.23917257499997,238.41925711666664,74.0,80.0
400,238.493409575,238.76671434999997,79.0,77.0
401,238.74764657499998,238.94891753333332,81.0,86.0
402,239.00188357499997,239.19679860833332,77.0,84.0
403,239.25612057499998,239.52095078333332,79.0,79.0
404,239.51035757499997,241.38535544999996,74.0,91.0
405,243.61383257499998,246.58970813124998,86.0,98.0
406,246.77172557499998,247.01130890833332,84.0,98.0
407,247.02172557499998,247.17797557499998,86.0,80.0
408,247.14672557499998,247.32797557499998,84.0,84.0
409,247.27172557499998,247.52797557499997,81.0,95.0
410,247.52172557499998,247.86655309166665,79.0,91.0
411,247.77172557499998,250.6639648333333,81.0,91.0
412,251.90965357499996,254.80404800416665,86.0,91.0
413,255.01309957499998,255.22861665833332,84.0,84.0
414,255.271720075,255.43120271666663,86.0,76.0
415,255.3837889583333,255.52818540416663,84.0,83.0
416,255.53034057499997,255.78249556249997,81.0,79.0
417,255.78896107499997,256.10361601666665,79.0,77.0
418,256.047581575,257.0993049416666,77.0,93.0
419,260.18550957499997,260.4936990041666,72.0,82.0
420,260.444130075,260.5949920333333,74.0,73.0
421,260.5842161791666,260.7393884791666,72.0,71.0
422,260.702750575,261.03033654166666,69.0,61.0
423,260.961371075,261.2846467,72.0,82.0
424,261.219991575,261.79973252916665,74.0,81.0
425,261.73723257499995,262.0152496125,81.0,80.0
426,262.25447357499996,262.5217147583333,79.0,79.0
427,262.51309407499997,262.68335257083334,81.0,68.0
428,262.642404325,262.81481799166664,79.0,67.0
429,262.771714575,262.99800751249995,77.0,79.0
430,263.030335075,263.4462830458333,79.0,79.0
431,263.288955575,263.48723129166666,77.0,42.0
432,263.806196575,264.0605067333333,69.0,91.0
433,264.06481707499995,264.3643858208333,72.0,84.0
434,264.32343757499996,265.62300558749996,69.0,86.0
435,268.461365575,271.3859323958333,86.0,98.0
436,271.56481157499996,271.81265622083333,84.0,98.0
437,271.82343207499997,271.9850698875,86.0,80.0
438,271.952742325,272.1402421875,84.0,84.0
439,272.082052575,272.34713858749996,81.0,95.0
440,272.340673075,272.69412109166666,79.0,91.0
441,272.599293575,275.4915328333333,77.0,91.0
442,276.737221575,276.9010145583333,69.0,77.0
443,276.995842075,277.13161783749996,69.0,61.0
444,277.254462575,277.61437610416664,69.0,59.0
445,277.513083075,277.80834147916664,72.0,76.0
446,277.771703575,278.06696197916665,74.0,79.0
447,278.28894457499996,278.62299605416666,81.0,67.0
448,278.806185575,279.0087716333333,79.0,46.0
449,279.064806075,279.2221335458333,81.0,58.0
450,279.23721974166665,279.40747823749996,79.0,69.0
451,279.323426575,279.6100642958333,77.0,73.0
452,279.582047075,279.814805525,79.0,73.0
453,279.840667575,279.96782265416664,77.0,73.0
