,start,end,pitch,velocity
0,1.137710575,1.8208997291666669,69.0,76.0
1,1.6549515750000001,2.2476235541666667,57.0,62.0
2,2.1721925750000004,2.7002094291666667,62.0,63.0
3,2.689433575,3.305812433333333,57.0,59.0
4,3.206674575,3.760553479166667,62.0,68.0
5,3.206674575,3.767018991666667,69.0,71.0
6,3.7239155750000004,4.2993461875,57.0,62.0
7,1.137710575,4.7519320625,50.0,69.0
8,4.241156575,4.762707916666667,62.0,71.0
9,4.758397575,5.355379895833333,57.0,75.0
10,4.241156575,5.698052058333333,72.0,90.0
11,5.792879575,6.439430825,57.0,71.0
12,6.310120575,6.857533966666667,62.0,69.0
13,6.310120575,6.948051141666666,65.0,75.0
14,6.827361575,7.372619795833334,57.0,62.0
15,7.344602575,7.887705625,62.0,58.0
16,7.344602575,7.898481479166667,69.0,83.0
17,7.861843575,8.428653504166666,57.0,71.0
18,5.275638575,8.892015233333334,50.0,83.0
19,8.379084575,8.926497966666668,74.0,91.0
20,8.379084575,8.963135870833334,62.0,72.0
21,8.896325575,9.465290675,57.0,68.0
22,9.930807575,10.504083016666668,62.0,68.0
23,10.189428075,10.517014041666666,64.0,37.0
24,10.448048575,11.379082375,65.0,82.0
25,10.965289575,11.7217545375,62.0,45.0
26,11.482530575,12.417874716666667,67.0,71.0
27,11.999771575,12.706667608333333,62.0,35.0
28,13.034253575000001,13.129081091666666,62.0,72.0
29,9.413566575,13.1441672875,50.0,82.0
30,9.672187075,13.1958913875,57.0,72.0
31,12.517012575,13.779942683333333,65.0,72.0
32,12.517012575,13.835977125000001,69.0,77.0
33,14.068735575,14.618304137500001,55.0,72.0
34,14.327356075,14.663562725,58.0,69.0
35,14.585976575,15.107527916666667,62.0,83.0
36,15.103217575,15.775630875000001,55.0,52.0
37,15.620458575,16.12261337916667,58.0,70.0
38,15.620458575,16.144165087500003,67.0,69.0
39,16.137699575000003,16.954509320833335,55.0,51.0
40,16.654940575,17.167871233333333,58.0,79.0
41,13.551494575,17.2045091375,43.0,82.0
42,13.810115075,17.241147041666668,50.0,77.0
43,17.172181575,17.637698475,55.0,60.0
44,16.654940575,17.9027844875,62.0,78.0
45,18.206663575,18.747611454166666,60.0,77.0
46,18.465284075,18.754076966666666,65.0,76.0
47,18.723904575,19.279938650000002,67.0,80.0
48,17.689422575000002,19.307955870833332,48.0,90.0
49,17.948043075,19.333817920833333,55.0,76.0
50,19.241145575,19.359679970833334,60.0,78.0
51,19.758386575,20.079507029166667,69.0,78.0
52,19.758386575,20.13769664166667,60.0,76.0
53,20.534248075,20.8639892125,55.0,67.0
54,20.275627575,20.9027822875,53.0,79.0
55,20.792868575,21.325195770833336,57.0,82.0
56,19.758386575,21.4070922625,41.0,69.0
57,21.310109575000002,21.838126429166667,53.0,62.0
58,20.017007075000002,21.87045399166667,48.0,75.0
59,22.344591575,23.129073758333334,53.0,57.0
60,22.861832575,23.3208839625,65.0,83.0
61,21.827350575,23.363987379166666,41.0,76.0
62,22.861832575,23.432952845833334,57.0,68.0
63,23.379073575,23.887693891666668,53.0,63.0
64,23.379073575,23.997607604166667,64.0,75.0
65,23.896314575,24.1226075125,62.0,81.0
66,24.413555575,24.930796575000002,62.0,72.0
67,24.672176075,25.012693066666667,64.0,71.0
68,24.930796575000002,25.92433032916667,65.0,84.0
69,25.448037575,26.00407165,62.0,61.0
70,25.965278575,26.775622808333335,64.0,61.0
71,25.965278575,26.935105450000002,67.0,78.0
72,26.482519575,27.118294970833333,62.0,59.0
73,27.517001575000002,27.646311825,62.0,68.0
74,23.896314575,27.702346266666666,50.0,80.0
75,24.154935075,27.758380708333334,57.0,62.0
76,26.999760575,28.118294237500002,65.0,79.0
77,26.999760575,28.154932141666666,69.0,79.0
78,28.551483575000002,29.195879654166667,55.0,72.0
79,28.810104075,29.613982795833333,58.0,72.0
80,29.068724575,29.663551725,65.0,82.0
81,29.585965575,30.24544785,55.0,59.0
82,30.103206575,30.8338094875,58.0,62.0
83,30.103206575,30.84458534166667,62.0,79.0
84,30.879068075,31.301481558333336,55.0,39.0
85,28.034242575,31.657084745833334,43.0,86.0
86,31.137688575000002,31.680791625,58.0,79.0
87,28.292863075,31.69372265,50.0,78.0
88,31.137688575000002,32.047170666666666,65.0,62.0
89,31.654929575,32.1786360875,55.0,62.0
90,32.172170575,32.598894400000006,45.0,79.0
91,32.172170575,32.611825425000006,61.0,80.0
92,32.430791075,32.68079089166667,52.0,78.0
93,32.689411575,33.03639407916667,57.0,55.0
94,32.172170575,33.247600820833334,69.0,82.0
95,32.948032075,33.65492810833334,59.0,59.0
96,33.206652575,33.68725567083334,61.0,81.0
97,34.241134575000004,34.84027206666667,69.0,74.0
98,34.241134575000004,34.842427237500004,65.0,75.0
99,34.758375575,35.448030241666665,57.0,61.0
100,35.275616575,35.777771379166666,62.0,40.0
101,35.275616575,35.993288462500004,64.0,68.0
102,35.275616575,36.19156417916667,67.0,73.0
103,36.310098575,36.549322537500004,62.0,57.0
104,34.241134575000004,36.588115612500005,50.0,77.0
105,35.792857575,36.883374016666664,57.0,55.0
106,36.310098575,37.301477158333334,65.0,72.0
107,36.310098575,37.320873695833335,69.0,68.0
108,37.603201075,37.93725255416667,64.0,71.0
109,37.861821575,38.17647651666667,65.0,78.0
110,38.120442075,38.351045354166665,69.0,60.0
111,37.344580575,38.46095906666667,62.0,69.0
112,38.379062575,38.49975214166667,74.0,73.0
113,38.896303575000005,39.0062172875,65.0,60.0
114,38.896303575000005,39.05578621666667,72.0,82.0
115,37.085960075,39.75406156666667,57.0,69.0
116,39.413544575,39.83595805833333,65.0,76.0
117,39.413544575,39.89630284166667,69.0,73.0
118,36.827339575,39.982509675,50.0,69.0
119,40.448026575,40.881215912500004,67.0,62.0
120,40.448026575,40.92431932916667,60.0,44.0
121,40.965267575,41.51699130833333,57.0,76.0
122,41.223888075,41.73897390416667,60.0,54.0
123,41.482508575000004,41.76268078333334,64.0,79.0
124,41.741129075,42.23681836666667,57.0,57.0
125,41.999749575,42.24974939166667,60.0,61.0
126,42.258370075,42.57949052916667,67.0,75.0
127,42.516990575,42.93509371666667,57.0,61.0
128,42.516990575,43.14845562916667,72.0,86.0
129,43.292852075,43.74974829166667,57.0,44.0
130,43.551472575,43.89629990833333,60.0,77.0
131,43.551472575,44.01483430416667,67.0,81.0
132,40.448026575,44.0363860125,45.0,82.0
133,40.706647075,44.09026528333334,52.0,73.0
134,44.068713575000004,44.1786272875,64.0,79.0
135,44.068713575000004,44.20017899583333,57.0,62.0
136,45.103195575,45.605350379166666,58.0,72.0
137,45.361816075,45.698022725,60.0,69.0
138,45.620436575,45.9243156625,62.0,83.0
139,46.137677575000005,46.396298075000004,60.0,61.0
140,45.879057075,46.41784978333334,58.0,62.0
141,46.396298075000004,46.6355220375,65.0,72.0
142,46.654918575,47.068711375,60.0,61.0
143,46.654918575,47.122590645833334,69.0,76.0
144,46.654918575,47.999745175,58.0,60.0
145,47.689400575,48.001900345833334,77.0,79.0
146,47.689400575,48.04284859166667,69.0,59.0
147,44.844575075,48.053624445833336,53.0,75.0
148,44.585954575,48.05577961666667,46.0,86.0
149,48.723882575000005,49.10750298333333,69.0,71.0
150,49.499744075,49.85319209166667,67.0,61.0
151,49.758364575,50.070864345833336,69.0,72.0
152,50.016985075,50.23250215833333,72.0,79.0
153,50.275605575,50.41569167916667,77.0,72.0
154,50.534226075,50.820388916666666,79.0,59.0
155,49.241123575,51.22928675833333,65.0,70.0
156,50.792846575,51.23987996666666,81.0,75.0
157,48.982503075000004,52.10852305,60.0,73.0
158,51.809794575,52.10852305,69.0,59.0
159,48.723882575000005,52.148777241666664,53.0,77.0
160,51.809794575,52.153014524999996,77.0,82.0
161,52.318268575,52.72081049166667,76.0,77.0
162,52.826742575,53.51741975833333,77.0,81.0
163,53.335216575,53.86275835,65.0,60.0
164,53.589453575,53.91360575,69.0,73.0
165,52.826742575,54.506825416666665,53.0,75.0
166,53.843690575,54.606401575,72.0,80.0
167,54.352164574999996,54.672079466666666,65.0,28.0
168,53.080979575,54.91451784583333,60.0,55.0
169,54.606401575,55.38003474583333,69.0,50.0
170,54.860638574999996,55.727017249999996,77.0,79.0
171,55.377879574999994,56.34770645,65.0,58.0
172,55.119259074999995,56.47486152916666,60.0,59.0
173,54.860638574999996,56.50072357916666,53.0,71.0
174,55.89512057499999,56.515809774999994,72.0,80.0
175,55.636500074999994,56.554602849999995,69.0,60.0
176,56.929602575,57.34339537499999,77.0,82.0
177,56.929602575,57.40589532916666,69.0,73.0
178,57.188223074999996,57.93822252499999,57.0,57.0
179,57.446843574999995,58.009343162499995,62.0,69.0
180,57.705464074999995,58.048136237499996,64.0,73.0
181,57.964084574999994,58.65158407083333,65.0,81.0
182,56.929602575,58.6558944125,50.0,72.0
183,58.481325575,58.957618329166664,57.0,68.0
184,58.739946075,58.9791700375,69.0,73.0
185,58.998566575,59.2377905375,67.0,78.0
186,59.257187075,59.5739971875,65.0,77.0
187,59.515807575,59.722703974999995,67.0,76.0
188,59.257187075,59.88003144583333,57.0,58.0
189,59.774428074999996,60.02227272083333,69.0,75.0
190,60.033048574999995,60.32184146666666,72.0,81.0
191,60.033048574999995,60.457617229166665,57.0,58.0
192,60.291669074999994,60.53951372083333,69.0,79.0
193,58.998566575,60.627875724999996,50.0,63.0
194,60.550289574999994,60.77227217083333,67.0,75.0
195,60.808910075,61.007185791666664,65.0,72.0
196,61.06753057499999,61.5977026,65.0,72.0
197,61.06753057499999,61.63218533333333,69.0,72.0
198,61.584771575,62.11709877083333,62.0,59.0
199,61.843392075,62.203305604166665,64.0,56.0
200,62.102012574999996,62.56321913333333,65.0,73.0
201,62.360633074999996,62.75718450833333,62.0,43.0
202,61.06753057499999,62.802443095833326,50.0,69.0
203,62.619253574999995,62.85416719583333,67.0,72.0
204,61.326151075,62.96408090833333,57.0,62.0
205,62.877874074999994,63.80675270416666,69.0,73.0
206,63.912356075,64.145114525,67.0,63.0
207,63.912356075,64.25071789583333,64.0,61.0
208,63.653735575,64.43390741666667,62.0,62.0
209,64.170976575,64.46192463749999,65.0,75.0
210,64.170976575,64.48994185833332,69.0,68.0
211,63.39511507499999,64.57183835,57.0,61.0
212,64.429597075,64.65157967083333,67.0,73.0
213,63.136494575,64.74425201666666,50.0,61.0
214,64.688217575,64.89942431666667,69.0,76.0
215,65.205458575,65.42959634166667,41.0,81.0
216,65.464079075,65.82183743333333,53.0,58.0
217,65.205458575,66.0459752,60.0,79.0
218,65.205458575,66.05028554166667,65.0,80.0
219,65.205458575,66.11494066666666,69.0,78.0
220,65.722699575,66.26580262499999,55.0,75.0
221,65.981320075,66.29597501666666,57.0,73.0
222,66.23994057499999,66.56752654166667,60.0,68.0
223,66.498561075,66.6731299125,65.0,78.0
224,66.757181575,66.98778485416666,67.0,73.0
225,67.015802075,67.23131915833333,69.0,69.0
226,67.27442257499999,67.82830147916667,60.0,79.0
227,67.27442257499999,67.93606002083332,67.0,80.0
228,67.791663575,68.1214047125,57.0,57.0
229,68.050284075,68.43174931249999,60.0,69.0
230,68.308904575,68.56321473333333,57.0,54.0
231,68.050284075,68.64942156666666,64.0,73.0
232,67.27442257499999,68.89511104166667,45.0,71.0
233,67.533043075,68.96407650833333,52.0,71.0
234,69.08476607499999,69.26795559583333,69.0,75.0
235,68.826145575,69.28735213333333,57.0,59.0
236,69.343386575,69.39942101666666,69.0,55.0
237,69.343386575,69.87786894166666,65.0,83.0
238,70.119248075,70.31752379166666,64.0,71.0
239,69.60200707499999,70.31967896249999,57.0,69.0
240,69.860627575,70.34123067083333,62.0,28.0
241,70.119248075,70.34123067083333,67.0,75.0
242,70.377868575,70.74640278749999,65.0,83.0
243,70.377868575,70.75933381249999,69.0,79.0
244,70.89510957499999,71.06752324166666,67.0,78.0
245,70.636489075,71.10631631666666,57.0,71.0
246,70.89510957499999,71.1084714875,64.0,78.0
247,69.343386575,71.23347139583333,50.0,73.0
248,71.153730075,71.75071239583333,69.0,71.0
249,71.412350575,71.94252259999999,60.0,63.0
250,71.412350575,72.17743622083333,64.0,75.0
251,71.412350575,72.20976378333333,72.0,77.0
252,71.412350575,72.21191895416666,67.0,81.0
253,72.188212075,72.4662291125,60.0,71.0
254,72.446832575,72.8024357625,64.0,81.0
255,72.446832575,72.84553917916666,67.0,83.0
256,72.705453075,72.98778045416667,60.0,72.0
257,72.964073575,73.07398728749999,67.0,59.0
258,71.412350575,73.10415967916666,48.0,77.0
259,72.446832575,73.12786655833332,72.0,81.0
260,72.964073575,73.25717680833333,64.0,76.0
261,73.22269407499999,73.403728425,67.0,78.0
262,73.481314575,74.25286573333332,69.0,77.0
263,73.481314575,74.28519329583332,65.0,75.0
264,73.481314575,74.29381397916666,60.0,70.0
265,74.25717607499999,74.61062409166666,53.0,68.0
266,74.515796575,74.852003225,60.0,80.0
267,74.515796575,74.8713997625,65.0,81.0
268,73.481314575,74.89510664166667,41.0,80.0
269,74.515796575,74.92743420416666,69.0,75.0
270,75.033037575,75.36277871249999,60.0,69.0
271,75.291658075,75.43389934999999,67.0,72.0
272,74.774417075,75.43605452083332,53.0,73.0
273,75.550278575,76.12139884583333,69.0,75.0
274,76.326140075,76.64941569999999,64.0,75.0
275,76.06751957499999,76.65372604166666,62.0,69.0
276,76.58476057499999,76.78088112083333,65.0,80.0
277,77.102001575,77.283035925,69.0,71.0
278,75.550278575,77.3024324625,50.0,78.0
279,77.360622075,77.55027710833333,74.0,79.0
280,75.808899075,77.55243227916667,57.0,60.0
281,77.619242575,78.02225952083333,69.0,50.0
282,77.619242575,78.2463972875,77.0,84.0
283,78.136483575,78.602000475,62.0,71.0
284,78.39510407499999,78.73562106666667,69.0,73.0
285,77.619242575,79.222689675,50.0,73.0
286,78.91234507499999,79.2808792875,62.0,57.0
287,77.877863075,79.5265687625,57.0,59.0
288,79.688206575,80.22699928333333,62.0,78.0
289,79.688206575,80.3800164125,69.0,81.0
290,80.205447575,80.5093266625,58.0,60.0
291,79.429586075,80.5093266625,77.0,79.0
292,80.464068075,80.81751609166666,62.0,79.0
293,80.464068075,80.84122297083333,67.0,82.0
294,80.72268857499999,81.0782917625,58.0,53.0
295,79.946827075,81.38001567916666,53.0,63.0
296,81.23992957499999,81.3886363625,58.0,71.0
297,80.981309075,81.42311909583333,65.0,83.0
298,79.688206575,81.44898114583333,46.0,83.0
299,80.981309075,81.472688025,69.0,80.0
300,81.757170575,82.04596346666666,64.0,76.0
301,81.757170575,82.05889449166666,71.0,83.0
302,81.757170575,82.16234269166667,67.0,84.0
303,82.015791075,82.6300147625,55.0,75.0
304,82.274411575,83.11277302916666,62.0,80.0
305,82.533032075,83.25285913333333,67.0,90.0
306,81.757170575,83.40803143333333,43.0,72.0
307,83.05027307499999,83.49639343749999,55.0,58.0
308,83.308893575,83.55242787916666,62.0,84.0
309,83.826134575,84.32828937916666,67.0,80.0
310,83.826134575,84.37354796666666,64.0,81.0
311,83.826134575,84.44897894583333,72.0,83.0
312,84.60199607499999,84.95328892083333,62.0,82.0
313,84.860616575,85.17527151666667,64.0,84.0
314,83.826134575,85.3907886,48.0,79.0
315,84.343375575,85.43820235833333,60.0,76.0
316,85.119237075,85.4877712875,67.0,71.0
317,84.084755075,85.58044363333333,55.0,72.0
318,85.377857575,85.6041505125,69.0,76.0
319,85.636478075,85.86708135416666,72.0,84.0
320,85.89509857499999,86.51797922499999,69.0,79.0
321,85.89509857499999,86.60272489166665,65.0,80.0
322,86.65780957499999,86.87602966666665,67.0,76.0
323,86.403572575,86.89509744166666,62.0,68.0
324,86.91204657499999,87.24891059999999,65.0,81.0
325,86.91204657499999,87.28069022499999,69.0,79.0
326,86.149335575,87.32094441666666,57.0,73.0
327,87.166283575,87.45653748333332,62.0,58.0
328,85.89509857499999,87.738316825,50.0,74.0
329,87.420520575,87.77433373333332,69.0,69.0
330,87.420520575,87.78280829999999,65.0,74.0
331,87.67475757499999,87.86119804166665,57.0,63.0
332,87.67475757499999,88.45916659999999,72.0,84.0
333,87.92899457499999,88.52166655416666,64.0,73.0
334,87.92899457499999,88.52166655416666,67.0,83.0
335,88.704856075,88.93545935416665,65.0,79.0
336,88.44623557499999,89.01735584583332,60.0,75.0
337,88.96347657499999,89.3190797625,67.0,75.0
338,87.92899457499999,89.33416595833333,48.0,80.0
339,88.187615075,89.34709698333333,55.0,72.0
340,89.222097075,89.36649352083333,60.0,57.0
341,89.48071757499999,89.71778636666666,69.0,79.0
342,89.73933807499999,90.17468258333332,72.0,77.0
343,89.99795857499998,90.61864777499999,69.0,81.0
344,89.99795857499998,90.63804431249999,46.0,83.0
345,90.515199575,90.66606153333332,58.0,84.0
346,89.99795857499998,90.67252704583332,65.0,83.0
347,90.25657907499999,90.68761324166665,53.0,78.0
348,89.99795857499998,90.69407875416665,62.0,80.0
349,90.77382007499999,90.93761305833333,69.0,63.0
350,91.032440575,91.39881961666666,60.0,80.0
351,91.032440575,91.44407820416666,67.0,76.0
352,91.032440575,91.59709533333333,45.0,84.0
353,91.549681575,91.85571583333332,60.0,78.0
354,91.29106107499999,92.01304330416666,57.0,62.0
355,91.80830207499999,92.05399154999999,67.0,77.0
356,92.06692257499999,92.64881869999999,65.0,83.0
357,92.842784075,93.14235282083332,64.0,82.0
358,93.10140457499999,93.23286999583333,65.0,80.0
359,93.360025075,93.56261113333332,69.0,83.0
360,92.06692257499999,93.69407655416666,50.0,81.0
361,93.61864557499999,93.8320074875,74.0,80.0
362,92.58416357499999,93.8966626125,62.0,82.0
363,93.877266075,94.11433486666665,76.0,78.0
364,92.32554307499998,94.12726589166665,57.0,76.0
365,94.13588657499999,94.36648985416666,69.0,77.0
366,94.13588657499999,94.37726570833333,50.0,76.0
367,94.13588657499999,94.40959327083333,77.0,84.0
368,94.39450707499999,94.75873094583332,64.0,77.0
369,94.65312757499998,94.9957997375,65.0,79.0
370,94.91174807499999,95.11648930416666,67.0,79.0
371,95.170368575,95.40959253749999,62.0,62.0
372,95.170368575,95.46993732083332,69.0,78.0
373,95.42898907499999,95.64019581666666,72.0,90.0
374,94.39450707499999,95.70916128333333,50.0,80.0
375,94.65312757499998,95.81476465416665,57.0,71.0
376,95.687609575,95.89450597499999,67.0,82.0
377,95.94623007499999,96.12295408333333,69.0,77.0
378,96.204850575,96.86798541666666,62.0,76.0
379,96.204850575,97.02264625833332,69.0,82.0
380,96.204850575,97.107391925,65.0,83.0
381,96.713324575,97.27052733333333,57.0,39.0
382,97.221798575,97.5332389,62.0,81.0
383,97.221798575,97.57349309166666,65.0,91.0
384,97.221798575,97.57349309166666,69.0,84.0
385,97.476035575,97.80442503333333,57.0,69.0
386,96.204850575,97.83196737499999,50.0,83.0
387,97.730272575,97.88069613333333,62.0,78.0
388,97.730272575,97.94001809999999,67.0,78.0
389,97.98450957499999,98.12857720833333,69.0,78.0
390,98.238746575,98.73662736666667,60.0,78.0
391,98.238746575,98.75781378333333,67.0,78.0
392,98.238746575,98.76416970833333,64.0,80.0
393,99.00145757499999,99.13705064166666,60.0,61.0
394,98.747220575,99.31713518333333,57.0,39.0
395,99.25569457499999,99.58832131666666,60.0,84.0
396,99.25569457499999,99.66671105833333,67.0,82.0
397,99.25569457499999,99.69637204166666,64.0,84.0
398,98.238746575,99.87010065833333,45.0,83.0
399,99.764168575,99.91882941666667,65.0,80.0
400,99.509931575,100.05865976666666,57.0,62.0
401,99.764168575,100.10315124166667,60.0,79.0
402,100.01840557499999,100.15399864166666,67.0,79.0
403,100.27264257499999,100.82137076666666,69.0,83.0
404,100.27264257499999,100.82984533333332,62.0,76.0
405,100.27264257499999,100.87221816666666,65.0,84.0
406,101.03535357499999,101.149760225,62.0,62.0
407,100.781116575,101.31925155833333,58.0,79.0
408,101.28959057499999,101.60526818333332,62.0,81.0
409,101.28959057499999,101.63916644999999,69.0,84.0
410,101.28959057499999,101.64128509166666,65.0,95.0
411,101.543827575,101.74086125,58.0,84.0
412,100.526879575,101.87009839166666,53.0,73.0
413,101.798064575,101.89340345,69.0,73.0
414,101.798064575,101.91458986666666,65.0,71.0
415,100.27264257499999,101.94636949166666,46.0,90.0
416,101.798064575,101.96755590833332,62.0,81.0
417,102.052301575,102.19425056666667,69.0,83.0
418,102.30653857499999,102.63069075,60.0,77.0
419,102.30653857499999,102.70484320833333,64.0,84.0
420,102.30653857499999,102.78111430833333,67.0,79.0
421,102.30653857499999,102.87009725833333,72.0,79.0
422,103.069249575,103.21967313333333,62.0,58.0
423,103.069249575,103.221791775,67.0,82.0
424,102.815012575,103.52899481666667,60.0,75.0
425,103.577723575,103.93577401666666,65.0,84.0
426,103.831960575,103.96967228333332,60.0,71.0
427,103.577723575,103.96967228333332,69.0,83.0
428,102.30653857499999,104.01840104166666,48.0,86.0
429,102.560775575,104.05018066666666,55.0,69.0
430,104.086197575,104.14551954166666,65.0,60.0
431,104.086197575,104.20484150833333,72.0,84.0
432,104.34043457499999,104.785349325,62.0,73.0
433,104.34043457499999,104.84043400833333,69.0,80.0
434,104.34043457499999,104.92094239166666,65.0,83.0
435,105.103145575,105.17094210833332,62.0,69.0
436,105.103145575,105.19848445,69.0,60.0
437,105.103145575,105.20907765833333,65.0,80.0
438,104.848908575,105.420941825,57.0,67.0
439,105.357382575,105.57560266666667,64.0,83.0
440,105.357382575,105.62645006666666,67.0,84.0
441,105.61161957499999,105.77263634166667,57.0,53.0
442,105.61161957499999,105.85102608333332,65.0,86.0
443,105.61161957499999,105.86373793333333,69.0,82.0
444,105.865856575,105.97602594166666,57.0,69.0
445,104.34043457499999,105.98873779166667,50.0,83.0
446,106.120093575,106.298059475,72.0,98.0
447,106.37433057499999,106.76839792499999,43.0,79.0
448,106.62856757499999,106.8637368,50.0,77.0
449,106.882804575,107.16246527499999,55.0,76.0
450,106.37433057499999,107.41034635,70.0,86.0
451,106.37433057499999,107.42729548333332,62.0,83.0
452,106.37433057499999,107.44636325833334,65.0,95.0
453,107.391278575,107.87221023333333,58.0,81.0
454,107.137041575,107.91882034999999,57.0,79.0
455,107.64551557499999,107.97178639166665,62.0,93.0
456,107.899752575,108.24720980833332,65.0,79.0
457,108.153989575,108.268396225,70.0,84.0
458,108.408226575,108.73873467499999,62.0,76.0
459,108.408226575,108.77263294166666,65.0,82.0
460,108.408226575,108.79593799999999,69.0,83.0
461,108.916700575,109.25780188333333,58.0,71.0
462,109.170937575,109.47178469166667,69.0,72.0
463,109.170937575,109.50568295833332,77.0,84.0
464,109.425174575,109.63068281666666,58.0,15.0
465,109.67941157499999,110.04593658333333,67.0,82.0
466,108.408226575,110.05017386666667,46.0,83.0
467,109.93364857499999,110.09678398333332,58.0,84.0
468,108.66246357499999,110.10102126666666,53.0,79.0
469,109.67941157499999,110.12008904166666,76.0,82.0
470,110.442122575,110.84466449166666,67.0,78.0
471,110.442122575,111.00356261666667,72.0,93.0
472,110.95059657499999,111.2874606,65.0,76.0
473,110.696359575,111.29593516666667,60.0,79.0
474,111.204833575,111.34042664166667,67.0,79.0
475,111.204833575,111.38491811666667,69.0,75.0
476,111.459070575,111.78110410833332,72.0,80.0
477,111.713307575,111.90186668333332,67.0,83.0
478,111.713307575,111.96754457499999,60.0,84.0
479,110.442122575,112.03322246666666,53.0,84.0
480,111.96754457499999,112.1772901,65.0,86.0
481,112.221781575,112.36584920833333,62.0,83.0
482,112.476018575,112.96754344166666,69.0,73.0
483,113.238729575,113.6010173,64.0,62.0
484,113.492966575,113.80652554166666,65.0,75.0
485,112.98449257499999,113.86584750833333,62.0,62.0
486,112.476018575,113.950593175,50.0,69.0
487,113.747203575,113.950593175,69.0,71.0
488,112.730255575,114.02898291666666,57.0,68.0
489,114.001440575,114.30864361666667,72.0,78.0
490,114.25567757499999,114.344660525,74.0,78.0
491,114.509914575,114.88491415,77.0,80.0
492,115.01838857499999,115.54381170833332,58.0,54.0
493,115.27262557499999,115.5840659,62.0,61.0
494,115.526862575,115.84677746666667,65.0,84.0
495,114.509914575,115.96965868333334,46.0,74.0
496,114.764151575,115.98237053333332,53.0,60.0
497,115.781099575,116.10948903333333,58.0,61.0
498,116.035336575,116.23237025,67.0,75.0
499,116.28957357499999,116.55228514166666,69.0,73.0
500,116.543810575,116.55228514166666,69.0,81.0
501,116.798047575,117.37855539166667,57.0,73.0
502,117.052284575,117.4145723,60.0,82.0
503,117.306521575,117.75355496666666,67.0,82.0
504,117.814995575,118.05863936666667,65.0,83.0
505,117.560758575,118.0755885,57.0,57.0
506,116.543810575,118.13491046666667,53.0,79.0
507,118.069232575,118.29168994999999,60.0,63.0
508,118.32346957499999,118.50567275833333,67.0,76.0
509,118.577706575,119.07135008333333,67.0,72.0
510,118.577706575,119.07558736666667,60.0,68.0
511,118.577706575,119.10312970833333,64.0,76.0
512,119.340417575,119.52685804166666,60.0,73.0
513,119.59465457499999,119.89338305,64.0,74.0
514,119.848891575,120.04380660833333,67.0,71.0
515,118.577706575,120.17516239166666,45.0,74.0
516,118.831943575,120.20270473333333,52.0,72.0
517,120.103128575,120.21753522499999,69.0,71.0
518,119.086180575,120.44846716666666,57.0,69.0
519,120.35736557499999,120.586178875,72.0,83.0
520,120.61160257499999,120.967534375,74.0,78.0
521,121.374313575,121.6349065,69.0,69.0
522,120.865839575,121.81499104166666,57.0,72.0
523,121.62855057499999,121.86160115833333,65.0,75.0
524,121.120076575,122.00566879166666,62.0,73.0
525,121.882787575,122.098889025,67.0,77.0
526,120.61160257499999,122.18151605,50.0,78.0
527,121.882787575,122.226007525,64.0,72.0
528,122.137024575,122.23660073333333,57.0,79.0
529,122.137024575,122.378549725,69.0,79.0
530,122.391261575,122.55227834166666,72.0,77.0
531,122.645498575,122.84041360833334,43.0,78.0
532,122.899735575,123.20058269166667,55.0,57.0
533,122.645498575,123.35100625,70.0,83.0
534,122.645498575,123.46965018333333,62.0,78.0
535,123.66244657499999,123.98871739166667,62.0,80.0
536,123.408209575,124.107361325,58.0,76.0
537,123.153972575,124.12431045833333,57.0,68.0
538,123.916683575,124.20481884166666,65.0,83.0
539,124.425157575,124.61159804166667,72.0,86.0
540,124.679394575,125.68151208333333,64.0,75.0
541,124.679394575,125.70057985833333,67.0,82.0
542,124.679394575,125.76625775,72.0,83.0
543,124.679394575,126.30227409166666,60.0,72.0
544,124.679394575,126.34464692499999,55.0,72.0
545,124.679394575,126.35524013333333,48.0,73.0
546,126.713290575,127.16667989166666,69.0,81.0
547,126.713290575,127.23235778333333,65.0,80.0
548,127.476001575,127.67939117499999,64.0,79.0
549,127.730238575,128.02049248333333,65.0,79.0
550,127.984475575,128.200577025,69.0,59.0
551,126.713290575,128.403966625,50.0,86.0
552,128.238712575,128.54167833333332,72.0,80.0
553,127.221764575,128.57345795833334,62.0,79.0
554,128.492949575,128.61371215,74.0,75.0
555,128.747186575,129.090406525,69.0,62.0
556,128.747186575,129.1857454,77.0,86.0
557,128.747186575,129.27049106666666,62.0,63.0
558,129.255660575,129.37854179166666,67.0,78.0
559,129.255660575,129.39125364166665,76.0,80.0
560,129.764134575,129.86159209166667,65.0,76.0
561,129.509897575,129.87006665833331,62.0,35.0
562,129.764134575,129.89337171666665,74.0,84.0
563,128.747186575,130.32981189999998,50.0,79.0
564,130.272608575,130.39760843333335,64.0,68.0
565,126.96752757499999,130.40396435833333,57.0,72.0
566,130.272608575,130.406083,72.0,91.0
567,130.018371575,130.42303213333332,62.0,24.0
568,130.781082575,131.38453040833332,65.0,83.0
569,130.781082575,131.45565104583332,69.0,78.0
570,131.815564575,132.45996065416668,69.0,67.0
571,131.815564575,132.4815123625,65.0,68.0
572,132.591426075,133.25521869166667,62.0,42.0
573,132.850046575,133.55047709583334,69.0,68.0
574,132.850046575,133.56340812083334,65.0,68.0
575,130.781082575,134.0590974125,57.0,71.0
576,133.625908075,134.09358014583333,62.0,24.0
577,133.884528575,134.34789030416667,65.0,75.0
578,133.884528575,134.34789030416667,69.0,71.0
579,133.884528575,134.37159718333334,64.0,71.0
580,130.781082575,134.46211435833334,50.0,71.0
581,134.919010575,135.45133777083333,60.0,67.0
582,134.919010575,135.46642396666667,64.0,71.0
583,134.919010575,135.5009067,67.0,76.0
584,135.953492575,136.24659580833332,60.0,62.0
585,135.436251575,136.39099225416666,52.0,68.0
586,136.212113075,136.5353887,64.0,71.0
587,135.694872075,136.625905875,57.0,50.0
588,134.919010575,136.70780236666667,45.0,76.0
589,136.729354075,136.9944400875,52.0,73.0
590,136.987974575,137.09573311666668,57.0,59.0
591,136.987974575,137.11512965416668,45.0,74.0
592,137.246595075,137.33926742083332,57.0,41.0
593,136.470733575,137.63237065416666,67.0,63.0
594,137.763836075,138.08926687083334,57.0,43.0
595,138.022456575,138.38021493333332,60.0,67.0
596,138.022456575,138.43840454583332,67.0,73.0
597,138.281077075,138.55693894166666,57.0,44.0
598,138.539697575,138.720731925,64.0,73.0
599,137.246595075,138.7401284625,45.0,75.0
600,138.798318075,139.07849028333334,57.0,50.0
601,139.056938575,139.46857620416665,62.0,62.0
602,139.056938575,139.5806450875,65.0,72.0
603,139.056938575,139.61512782083332,69.0,69.0
604,139.056938575,140.14745501666667,58.0,58.0
605,139.832800075,140.25736872916667,62.0,47.0
606,140.091420575,140.36512727083334,65.0,73.0
607,140.091420575,140.45779961666668,69.0,62.0
608,139.056938575,140.79831660833332,46.0,76.0
609,140.60866157499999,140.84573036666666,62.0,57.0
610,140.350041075,140.89529929583333,58.0,53.0
611,141.125902575,141.30478175416667,46.0,81.0
612,140.867282075,141.74228143333335,67.0,73.0
613,141.901764075,142.07417774166666,62.0,48.0
614,141.643143575,142.263832775,58.0,68.0
615,142.160384575,142.75952206666668,62.0,15.0
616,142.160384575,142.7746082625,65.0,79.0
617,142.677625575,142.78322894583334,58.0,63.0
618,141.384523075,142.80262548333334,46.0,84.0
619,143.194866575,143.41038365833333,65.0,63.0
620,143.194866575,143.4470215625,60.0,71.0
621,143.194866575,143.49659049166667,69.0,73.0
622,143.453487075,143.97503841666668,57.0,54.0
623,143.712107575,144.56124488333333,60.0,63.0
624,143.970728075,144.56986556666666,67.0,77.0
625,144.487969075,144.901761875,57.0,69.0
626,143.194866575,144.9082273875,53.0,58.0
627,144.746589575,145.05908934583334,60.0,60.0
628,145.263830575,145.3737442875,53.0,69.0
629,145.005210075,146.0526231,65.0,75.0
630,146.039692075,146.6021916625,57.0,54.0
631,146.298312575,146.841415625,60.0,60.0
632,146.556933075,146.88236387083333,65.0,80.0
633,146.815553575,146.9254672875,57.0,71.0
634,145.522451075,146.95348450833333,53.0,72.0
635,146.815553575,147.00736377916667,67.0,76.0
636,147.074174075,147.39960487083334,69.0,60.0
637,147.332794575,147.82201835416666,65.0,79.0
638,147.332794575,147.8565010875,57.0,71.0
639,147.591415075,148.4901213125,48.0,71.0
640,147.332794575,149.11512085416666,41.0,81.0
641,147.850035575,149.12589670833333,53.0,59.0
642,148.108656075,149.14744841666666,57.0,49.0
643,148.367276575,149.15391392916666,60.0,69.0
644,148.884517575,149.1560691,65.0,72.0
645,149.143138075,149.35434481666667,48.0,78.0
646,149.401758575,149.50089643333334,53.0,53.0
647,149.401758575,149.5116722875,41.0,73.0
648,149.660379075,150.255206225,53.0,72.0
649,150.177620075,150.53537843333334,57.0,51.0
650,150.177620075,150.97503328333335,65.0,40.0
651,149.660379075,151.00305050416665,41.0,79.0
652,150.694861075,151.03753323749999,57.0,61.0
653,150.436240575,151.10865387500002,53.0,59.0
654,150.953481575,151.15822280416666,62.0,81.0
655,151.212102075,151.42115364583333,64.0,79.0
656,151.470722575,151.703481025,62.0,72.0
657,151.470722575,151.832791275,65.0,78.0
658,152.246584075,152.5181356,64.0,57.0
659,151.987963575,152.56554935833333,62.0,58.0
660,152.505204575,152.74227336666667,65.0,72.0
661,151.470722575,153.11296275,50.0,68.0
662,152.763825075,153.14097997083334,64.0,59.0
663,153.022445575,153.25304885416668,69.0,62.0
664,151.729343075,153.36296256666668,57.0,44.0
665,153.281066075,154.20917734166665,72.0,76.0
666,154.048160575,154.59053284166666,62.0,55.0
667,154.302397575,154.63714295833333,64.0,61.0
668,154.556634575,154.861718975,65.0,72.0
669,154.810871575,155.02485438333332,67.0,73.0
670,153.539686575,155.09476955833333,50.0,17.0
671,153.79392357499998,155.15197288333331,57.0,61.0
672,155.06510857499998,155.319345575,69.0,68.0
673,155.319345575,155.47612505833334,72.0,69.0
674,155.573582575,156.09476842499998,65.0,72.0
675,155.573582575,156.12866669166667,69.0,72.0
676,156.082056575,156.60536106666666,62.0,59.0
677,156.33629357499998,156.69010673333332,64.0,56.0
678,156.590530575,157.04391989166666,65.0,73.0
679,156.844767575,157.23459764166665,62.0,43.0
680,155.573582575,157.27908911666665,50.0,69.0
681,157.09900457499998,157.32993651666666,67.0,72.0
682,155.82781957499998,157.43798724166666,57.0,62.0
683,157.353241575,158.27773670416664,69.0,73.0
684,158.38334007499998,158.61609852499998,67.0,63.0
685,158.38334007499998,158.72170189583332,64.0,61.0
686,158.124719575,158.90489141666666,62.0,62.0
687,158.64196057499998,158.9329086375,65.0,75.0
688,158.64196057499998,158.96092585833333,69.0,68.0
689,157.866099075,159.04282235,57.0,61.0
690,158.900581075,159.12256367083333,67.0,73.0
691,157.607478575,159.21523601666667,50.0,61.0
692,159.159201575,159.37040831666664,69.0,76.0
693,159.67644257499998,159.90058034166665,41.0,81.0
694,159.935063075,160.29282143333333,53.0,58.0
695,159.67644257499998,160.51695919999997,60.0,79.0
696,159.67644257499998,160.52126954166664,65.0,80.0
697,159.67644257499998,160.58592466666664,69.0,78.0
698,160.193683575,160.73678662499998,55.0,75.0
699,160.452304075,160.76695901666665,57.0,73.0
700,160.71092457499998,161.03851054166665,60.0,68.0
701,160.96954507499998,161.1441139125,65.0,78.0
702,161.228165575,161.45876885416666,67.0,73.0
703,161.486786075,161.7023031583333,69.0,69.0
704,161.74540657499998,162.29928547916666,60.0,79.0
705,161.74540657499998,162.40704402083333,67.0,80.0
706,162.262647575,162.5923887125,57.0,57.0
707,162.521268075,162.90273331249998,60.0,69.0
708,162.779888575,163.0341987333333,57.0,54.0
709,162.521268075,163.12040556666665,64.0,73.0
710,161.74540657499998,163.36609504166665,45.0,71.0
711,162.00402707499998,163.43506050833332,52.0,71.0
712,163.03850907499998,163.504025975,60.0,81.0
713,163.03850907499998,163.52557768333332,67.0,83.0
714,163.555750075,163.73893959583333,69.0,75.0
715,163.29712957499999,163.75833613333333,57.0,59.0
716,163.814370575,163.87040501666667,69.0,55.0
717,163.814370575,164.2497150833333,62.0,73.0
718,163.814370575,164.34885294166665,65.0,83.0
719,164.590232075,164.78850779166666,64.0,71.0
720,164.07299107499998,164.7906629625,57.0,69.0
721,164.33161157499998,164.81221467083333,62.0,28.0
722,164.590232075,164.81221467083333,67.0,75.0
723,164.848852575,165.21738678749998,65.0,83.0
724,164.848852575,165.23031781249998,69.0,79.0
725,165.36609357499998,165.53850724166665,67.0,78.0
726,165.107473075,165.57730031666665,57.0,71.0
727,165.36609357499998,165.57945548749998,64.0,78.0
728,163.814370575,165.70445539583332,50.0,73.0
729,165.62471407499999,166.22169639583333,69.0,71.0
730,165.883334575,166.41350659999998,60.0,63.0
731,165.883334575,166.64842022083332,64.0,75.0
732,165.883334575,166.68074778333332,72.0,77.0
733,165.883334575,166.68290295416665,67.0,81.0
734,166.65919607499998,166.9372131125,60.0,71.0
735,166.917816575,167.2734197625,64.0,81.0
736,166.917816575,167.31652317916667,67.0,83.0
737,167.176437075,167.45876445416667,60.0,72.0
738,167.43505757499997,167.54497128749998,67.0,59.0
739,165.883334575,167.57514367916664,48.0,77.0
740,166.917816575,167.5988505583333,72.0,81.0
741,167.43505757499997,167.7281608083333,64.0,76.0
742,167.69367807499998,167.87471242499998,67.0,78.0
743,167.952298575,168.7238497333333,69.0,77.0
744,167.952298575,168.7561772958333,65.0,75.0
745,167.952298575,168.76479797916664,60.0,70.0
746,168.72816007499998,169.08160809166665,53.0,68.0
747,168.98678057499998,169.322987225,60.0,80.0
748,168.98678057499998,169.3423837625,65.0,81.0
749,167.952298575,169.36609064166666,41.0,80.0
750,168.98678057499998,169.39841820416666,69.0,75.0
751,169.504021575,169.83376271249998,60.0,69.0
752,169.76264207499997,169.90488334999998,67.0,72.0
753,169.245401075,169.9070385208333,53.0,73.0
754,170.02126257499998,170.59238284583333,69.0,75.0
755,170.797124075,171.12039969999998,64.0,75.0
756,170.538503575,171.12471004166665,62.0,69.0
757,171.05574457499998,171.25186512083332,65.0,80.0
758,171.572985575,171.754019925,69.0,71.0
759,170.02126257499998,171.7734164625,50.0,78.0
760,171.831606075,172.02126110833333,74.0,79.0
761,170.279883075,172.02341627916667,57.0,60.0
762,172.09022657499997,172.48641256666664,69.0,50.0
763,172.09022657499997,172.70675129999998,77.0,84.0
764,172.59870057499998,173.05632717499998,62.0,71.0
765,172.85293757499997,173.1876829583333,69.0,73.0
766,173.107174575,173.43344539166665,76.0,80.0
767,172.09022657499997,173.66649597499998,50.0,73.0
768,173.36141157499998,173.72369929999996,62.0,57.0
769,172.34446357499996,173.96522444999997,57.0,59.0
770,174.12412257499997,174.66291528333332,62.0,78.0
771,174.12412257499997,174.81593241249996,69.0,81.0
772,174.64136357499999,174.94524266249996,58.0,60.0
773,173.86988557499998,174.94524266249996,77.0,79.0
774,174.89998407499996,175.25343209166664,62.0,79.0
775,174.89998407499996,175.2771389708333,67.0,82.0
776,175.15860457499997,175.51420776249998,58.0,53.0
777,174.38274307499998,175.81593167916665,53.0,63.0
778,175.67584557499998,175.8245523625,58.0,71.0
779,175.41722507499998,175.8590350958333,65.0,83.0
780,174.12412257499997,175.8848971458333,46.0,83.0
781,175.41722507499998,175.90860402499996,69.0,80.0
782,176.19308657499997,176.48187946666664,64.0,76.0
783,176.19308657499997,176.49481049166664,71.0,83.0
784,176.19308657499997,176.59825869166664,67.0,84.0
785,176.45170707499997,177.06593076249996,55.0,75.0
786,176.71032757499998,177.54868902916664,62.0,80.0
787,176.968948075,177.6887751333333,67.0,90.0
788,176.19308657499997,177.8439474333333,43.0,72.0
789,177.48618907499997,177.93230943749998,55.0,58.0
790,177.74480957499998,177.98834387916665,62.0,84.0
791,177.74480957499998,178.01420592916665,72.0,91.0
792,178.26205057499996,178.76420537916664,67.0,80.0
793,178.26205057499996,178.80946396666664,64.0,81.0
794,178.26205057499996,178.8848949458333,72.0,83.0
795,179.03791207499998,179.3892049208333,62.0,82.0
796,179.296532575,179.61118751666663,64.0,84.0
797,178.26205057499996,179.82670459999997,48.0,79.0
798,178.77929157499997,179.8741183583333,60.0,76.0
799,179.55515307499996,179.92368728749997,67.0,71.0
800,178.52067107499997,180.0163596333333,55.0,72.0
801,179.81377357499997,180.04006651249998,69.0,76.0
802,180.07239407499998,180.30299735416665,72.0,84.0
803,180.33101457499998,180.96463479999997,69.0,79.0
804,180.33101457499998,181.0508416333333,65.0,80.0
805,181.10687607499997,181.3288586708333,67.0,76.0
806,180.84825557499997,181.3482552083333,62.0,68.0
807,181.36549657499998,181.70816873749996,65.0,81.0
808,181.36549657499998,181.74049629999996,69.0,79.0
809,180.58963507499996,181.7814445458333,57.0,73.0
810,181.624117075,181.91937547916663,62.0,58.0
811,180.33101457499998,182.20601319999997,50.0,74.0
812,181.88273757499996,182.24265110416664,69.0,69.0
813,181.88273757499996,182.25127178749997,65.0,74.0
814,182.14135807499997,182.3310131083333,57.0,63.0
815,182.14135807499997,182.93015059999996,72.0,84.0
816,182.39997857499998,182.99265055416663,64.0,73.0
817,182.39997857499998,182.99265055416663,67.0,83.0
818,183.17584007499997,183.40644335416664,65.0,79.0
819,182.91721957499996,183.4883398458333,60.0,75.0
820,183.43446057499997,183.79006376249998,67.0,75.0
821,182.39997857499998,183.80514995833332,48.0,80.0
822,182.65859907499998,183.81808098333332,55.0,72.0
823,183.69308107499998,183.83747752083332,60.0,57.0
824,183.95170157499996,184.18877036666663,69.0,79.0
825,184.21032207499997,184.6456665833333,72.0,77.0
826,184.46894257499997,185.089631775,69.0,81.0
827,184.46894257499997,185.10902831249996,46.0,83.0
828,184.98618357499998,185.13704553333332,58.0,84.0
829,184.46894257499997,185.1435110458333,65.0,83.0
830,184.72756307499998,185.15859724166666,53.0,78.0
831,184.46894257499997,185.16506275416663,62.0,80.0
832,185.24480407499996,185.4085970583333,69.0,63.0
833,185.50342457499997,185.86980361666664,60.0,80.0
834,185.50342457499997,185.91506220416665,67.0,76.0
835,185.50342457499997,186.06807933333332,45.0,84.0
836,186.02066557499998,186.3266998333333,60.0,78.0
837,185.76204507499997,186.48402730416663,57.0,62.0
838,186.27928607499996,186.52497554999997,67.0,77.0
839,186.53790657499997,187.11980269999998,65.0,83.0
840,187.31376807499998,187.6133368208333,64.0,82.0
841,187.57238857499996,187.7038539958333,65.0,80.0
842,187.83100907499997,188.0335951333333,69.0,83.0
843,186.53790657499997,188.16506055416664,50.0,81.0
844,188.08962957499998,188.30299148749998,74.0,80.0
845,187.05514757499998,188.36764661249998,62.0,82.0
846,188.34825007499998,188.58531886666663,76.0,78.0
847,186.79652707499997,188.59824989166663,57.0,76.0
848,188.60687057499996,188.83747385416663,69.0,77.0
849,188.60687057499996,188.8482497083333,50.0,76.0
850,188.60687057499996,188.8805772708333,77.0,84.0
851,188.86549107499997,189.2297149458333,64.0,77.0
852,189.12411157499997,189.46678373749998,65.0,79.0
853,189.38273207499998,189.58747330416665,67.0,79.0
854,189.64135257499998,189.88057653749996,62.0,62.0
855,189.64135257499998,189.9409213208333,69.0,78.0
856,189.89997307499996,190.11117981666663,72.0,90.0
857,188.86549107499997,190.1801452833333,50.0,80.0
858,189.12411157499997,190.28574865416664,57.0,71.0
859,190.15859357499997,190.36548997499997,67.0,82.0
860,190.41721407499998,190.5939380833333,69.0,77.0
861,190.67583457499998,191.33896941666666,62.0,76.0
862,190.67583457499998,191.49363025833333,69.0,82.0
863,190.67583457499998,191.578375925,65.0,83.0
864,191.184308575,191.7415113333333,57.0,39.0
865,191.692782575,192.00422289999997,62.0,81.0
866,191.692782575,192.04447709166664,65.0,91.0
867,191.692782575,192.04447709166664,69.0,84.0
868,191.94701957499998,192.27540903333332,57.0,69.0
869,190.67583457499998,192.302951375,50.0,83.0
870,192.20125657499997,192.3516801333333,62.0,78.0
871,192.20125657499997,192.4110021,67.0,78.0
872,192.455493575,192.5995612083333,69.0,78.0
873,192.70973057499998,193.20761136666664,60.0,78.0
874,192.70973057499998,193.2287977833333,67.0,78.0
875,192.70973057499998,193.2351537083333,64.0,80.0
876,193.47244157499998,193.60803464166665,60.0,61.0
877,193.218204575,193.78811918333332,57.0,39.0
878,193.726678575,194.05930531666664,60.0,84.0
879,193.726678575,194.13769505833332,67.0,82.0
880,193.726678575,194.16735604166664,64.0,84.0
881,192.70973057499998,194.34108465833333,45.0,83.0
882,194.23515257499997,194.38981341666664,65.0,80.0
883,193.98091557499998,194.52964376666665,57.0,62.0
884,194.23515257499997,194.57413524166665,60.0,79.0
885,194.489389575,194.62498264166666,67.0,79.0
886,194.74362657499998,195.29235476666665,69.0,83.0
887,194.74362657499998,195.30082933333333,62.0,76.0
888,194.74362657499998,195.34320216666666,65.0,84.0
889,195.50633757499998,195.62074422499998,62.0,62.0
890,195.252100575,195.7902355583333,58.0,79.0
891,195.760574575,196.0762521833333,62.0,81.0
892,195.760574575,196.11015045,69.0,84.0
893,195.760574575,196.11226909166666,65.0,95.0
894,196.01481157499998,196.21184524999998,58.0,84.0
895,194.997863575,196.34108239166665,53.0,73.0
896,196.26904857499997,196.36438744999998,69.0,73.0
897,196.26904857499997,196.38557386666665,65.0,71.0
898,194.74362657499998,196.41735349166666,46.0,90.0
899,196.26904857499997,196.43853990833333,62.0,81.0
900,196.523285575,196.66523456666664,69.0,83.0
901,196.77752257499998,197.10167474999997,60.0,77.0
902,196.77752257499998,197.17582720833332,64.0,84.0
903,196.77752257499998,197.2520983083333,67.0,79.0
904,196.77752257499998,197.3410812583333,72.0,79.0
905,197.54023357499997,197.6906571333333,62.0,58.0
906,197.54023357499997,197.69277577499997,67.0,82.0
907,197.28599657499998,197.99997881666664,60.0,75.0
908,198.04870757499998,198.40675801666666,65.0,84.0
909,198.30294457499997,198.4406562833333,60.0,71.0
910,198.04870757499998,198.4406562833333,69.0,83.0
911,196.77752257499998,198.48938504166665,48.0,86.0
912,197.031759575,198.52116466666666,55.0,69.0
913,198.557181575,198.61650354166665,65.0,60.0
914,198.557181575,198.6758255083333,72.0,84.0
915,198.81141857499998,199.25633332499999,62.0,73.0
916,198.81141857499998,199.3114180083333,69.0,80.0
917,198.81141857499998,199.39192639166666,65.0,83.0
918,199.57412957499997,199.6419261083333,62.0,69.0
919,199.57412957499997,199.66946844999998,69.0,60.0
920,199.57412957499997,199.68006165833333,65.0,80.0
921,199.31989257499998,199.891925825,57.0,67.0
922,199.828366575,200.04658666666666,64.0,83.0
923,199.828366575,200.09743406666664,67.0,84.0
924,200.08260357499998,200.24362034166666,57.0,53.0
925,200.08260357499998,200.3220100833333,65.0,86.0
926,200.08260357499998,200.33472193333333,69.0,82.0
927,200.336840575,200.44700994166664,57.0,69.0
928,198.81141857499998,200.45972179166665,50.0,83.0
929,200.59107757499999,200.769043475,72.0,98.0
930,200.84531457499997,201.23938192499998,43.0,79.0
931,201.099551575,201.33472079999999,50.0,77.0
932,201.35378857499998,201.63344927499998,55.0,76.0
933,200.84531457499997,201.88133034999998,70.0,86.0
934,200.84531457499997,201.8982794833333,62.0,83.0
935,200.84531457499997,201.9173472583333,65.0,95.0
936,201.862262575,202.34319423333332,58.0,81.0
937,201.60802557499997,202.38980435,57.0,79.0
938,202.11649957499998,202.44277039166664,62.0,93.0
939,202.370736575,202.71819380833333,65.0,79.0
940,202.62497357499998,202.739380225,70.0,84.0
941,202.87921057499997,203.20971867499998,62.0,76.0
942,202.87921057499997,203.24361694166666,65.0,82.0
943,202.87921057499997,203.266922,69.0,83.0
944,203.38768457499998,203.72878588333333,58.0,71.0
945,203.64192157499997,203.94276869166666,69.0,72.0
946,203.64192157499997,203.9766669583333,77.0,84.0
947,203.896158575,204.10166681666664,58.0,15.0
948,204.15039557499998,204.51692058333333,67.0,82.0
949,202.87921057499997,204.52115786666664,46.0,83.0
950,204.404632575,204.5677679833333,58.0,84.0
951,203.133447575,204.57200526666665,53.0,79.0
952,204.15039557499998,204.59107304166665,76.0,82.0
953,204.91310657499997,205.31564849166665,67.0,78.0
954,204.91310657499997,205.47454661666666,72.0,93.0
955,205.42158057499998,205.7584446,65.0,76.0
956,205.167343575,205.76691916666664,60.0,79.0
957,205.675817575,205.81141064166664,67.0,79.0
958,205.675817575,205.85590211666664,69.0,75.0
959,205.93005457499999,206.2520881083333,72.0,80.0
960,206.18429157499997,206.37285068333333,67.0,83.0
961,206.18429157499997,206.438528575,60.0,84.0
962,204.91310657499997,206.50420646666666,53.0,84.0
963,206.438528575,206.64827409999998,65.0,86.0
964,206.69276557499998,206.8368332083333,62.0,83.0
965,206.947002575,207.43852744166665,69.0,73.0
966,207.709713575,208.07200129999998,64.0,62.0
967,207.96395057499998,208.27750954166666,65.0,75.0
968,207.45547657499998,208.33683150833332,62.0,62.0
969,206.947002575,208.42157717499998,50.0,69.0
970,208.21818757499997,208.42157717499998,69.0,71.0
971,207.201239575,208.49996691666666,57.0,68.0
972,208.472424575,208.77962761666666,72.0,78.0
973,208.72666157499998,208.81564452499998,74.0,78.0
974,208.98089857499997,209.35589814999997,77.0,80.0
975,209.48937257499998,210.0147957083333,58.0,54.0
976,209.743609575,210.05504989999997,62.0,61.0
977,209.99784657499998,210.31776146666664,65.0,84.0
978,208.98089857499997,210.44064268333332,46.0,74.0
979,209.235135575,210.4533545333333,53.0,60.0
980,210.25208357499997,210.5804730333333,58.0,61.0
981,210.506320575,210.70335425,67.0,75.0
982,210.76055757499998,211.02326914166665,69.0,73.0
983,211.014794575,211.02326914166665,69.0,81.0
984,211.26903157499999,211.84953939166664,57.0,73.0
985,211.52326857499997,211.8855563,60.0,82.0
986,211.777505575,212.22453896666664,67.0,82.0
987,212.285979575,212.52962336666664,65.0,83.0
988,212.03174257499998,212.54657249999997,57.0,57.0
989,211.014794575,212.60589446666665,53.0,79.0
990,212.540216575,212.76267395,60.0,63.0
991,212.79445357499998,212.97665675833332,67.0,76.0
992,213.048690575,213.54233408333332,67.0,72.0
993,213.048690575,213.54657136666665,60.0,68.0
994,213.048690575,213.57411370833333,64.0,76.0
995,213.811401575,213.99784204166664,60.0,73.0
996,214.06563857499998,214.36436705,64.0,74.0
997,214.31987557499997,214.51479060833333,67.0,71.0
998,213.048690575,214.64614639166666,45.0,74.0
999,213.30292757499998,214.6736887333333,52.0,72.0
1000,214.574112575,214.688519225,69.0,71.0
1001,213.55716457499997,214.91945116666665,57.0,69.0
1002,214.82834957499998,215.057162875,72.0,83.0
1003,215.082586575,215.43851837499997,74.0,78.0
1004,215.845297575,216.1058905,69.0,69.0
1005,215.33682357499998,216.28597504166666,57.0,72.0
1006,216.09953457499998,216.3325851583333,65.0,75.0
1007,215.59106057499997,216.47665279166665,62.0,73.0
1008,216.353771575,216.569873025,67.0,77.0
1009,215.082586575,216.65250005,50.0,78.0
1010,216.353771575,216.696991525,64.0,72.0
1011,216.60800857499999,216.7075847333333,57.0,79.0
1012,216.60800857499999,216.849533725,69.0,79.0
1013,216.86224557499997,217.02326234166665,72.0,77.0
1014,217.116482575,217.31139760833332,43.0,78.0
1015,217.37071957499998,217.67156669166664,55.0,57.0
1016,217.116482575,217.82199025,70.0,83.0
1017,217.116482575,217.94063418333332,62.0,78.0
1018,218.13343057499998,218.45970139166664,62.0,80.0
1019,217.879193575,218.578345325,58.0,76.0
1020,217.624956575,218.5952944583333,57.0,68.0
1021,218.387667575,218.67580284166667,65.0,83.0
1022,218.89614157499997,219.08258204166665,72.0,86.0
1023,219.150378575,220.15249608333332,64.0,75.0
1024,219.150378575,220.17156385833331,67.0,82.0
1025,219.150378575,220.23724174999998,72.0,83.0
1026,219.150378575,220.77325809166666,60.0,72.0
1027,219.150378575,220.815630925,55.0,72.0
1028,219.150378575,220.8262241333333,48.0,73.0
1029,221.184274575,221.63766389166665,69.0,81.0
1030,221.184274575,221.70334178333331,65.0,80.0
1031,221.94698557499999,222.150375175,64.0,79.0
1032,222.20122257499997,222.49147648333332,65.0,79.0
1033,222.455459575,222.671561025,69.0,59.0
1034,221.184274575,222.874950625,50.0,86.0
1035,222.70969657499998,223.0126623333333,72.0,80.0
1036,221.692748575,223.04444195833332,62.0,79.0
1037,222.963933575,223.08469614999998,74.0,75.0
1038,223.218170575,223.56730825,69.0,62.0
1039,223.218170575,223.6642909375,77.0,86.0
1040,223.218170575,223.75049777083333,62.0,63.0
1041,223.735411575,223.8604114833333,67.0,78.0
1042,223.735411575,223.8733425083333,76.0,80.0
1043,224.25265257499998,224.35179043333332,65.0,76.0
1044,223.99403207499998,224.36041111666665,62.0,35.0
1045,224.25265257499998,224.38411799583332,74.0,84.0
1046,223.218170575,224.8280831875,50.0,79.0
1047,224.769893575,224.89704865416667,64.0,68.0
1048,221.43851157499998,224.90351416666667,57.0,72.0
1049,224.769893575,224.9056693375,72.0,91.0
1050,224.511273075,224.92291070416667,62.0,24.0
1051,225.28713457499998,225.78713420833333,69.0,73.0
1052,226.062996075,226.43153028749998,64.0,62.0
1053,226.32161657499998,226.64058185833332,65.0,75.0
1054,225.804375575,226.70092664166665,62.0,62.0
1055,225.28713457499998,226.787133475,50.0,69.0
1056,226.58023707499999,226.787133475,69.0,71.0
1057,225.545755075,226.86687479583333,57.0,68.0
1058,226.838857575,227.15135734583333,72.0,78.0
1059,227.097478075,227.18799525,74.0,78.0
1060,227.85609857499998,228.37276524166666,58.0,54.0
1061,228.10609857499998,228.41234857499998,62.0,61.0
1062,228.35609857499998,228.6706819083333,65.0,84.0
1063,227.35609857499998,228.79151524166664,46.0,74.0
1064,227.60609857499998,228.80401524166663,53.0,60.0
1065,228.60609857499998,228.92901524166663,58.0,61.0
1066,228.85609857499998,229.04984857499997,67.0,75.0
1067,229.10609857499998,229.3644319083333,69.0,73.0
1068,229.35609857499998,229.3644319083333,69.0,81.0
1069,229.60609857499998,230.1769319083333,57.0,73.0
1070,229.85609857499998,230.21234857499996,60.0,82.0
1071,230.10609857499998,230.5522191208333,67.0,82.0
1072,230.61471907499998,230.86256372083332,65.0,83.0
1073,230.35609857499998,230.8798050875,57.0,57.0
1074,229.35609857499998,230.9401498708333,53.0,79.0
1075,230.873339575,231.09963251249997,60.0,63.0
1076,231.13196007499997,231.31730476666664,67.0,76.0
1077,231.39058057499997,231.89273537916665,67.0,72.0
1078,231.39058057499997,231.89704572083332,60.0,68.0
1079,231.39058057499997,231.92506294166665,64.0,76.0
1080,232.16644207499996,232.3560971083333,60.0,73.0
1081,232.42506257499997,232.71399713124998,64.0,74.0
1082,232.67096432499997,232.85948899999997,67.0,71.0
1083,231.39058057499997,232.98653823749996,45.0,74.0
1084,231.64920107499998,233.01317759374996,52.0,72.0
1085,232.91686607499997,233.02752186249998,69.0,71.0
1086,231.90782157499999,233.25088261874998,57.0,69.0
1087,233.16276782499997,233.38407939999996,72.0,83.0
1088,233.40866957499998,233.76460137499998,74.0,78.0
1089,234.17138057499997,234.43197349999997,69.0,69.0
1090,233.66290657499997,234.61205804166664,57.0,72.0
1091,234.425617575,234.6586681583333,65.0,75.0
1092,233.91714357499998,234.80273579166663,62.0,73.0
1093,234.67985457499998,234.89595602499998,67.0,77.0
1094,233.40866957499998,234.97858304999997,50.0,78.0
1095,234.67985457499998,235.02307452499997,64.0,72.0
1096,234.93409157499997,235.03366773333332,57.0,79.0
1097,234.93409157499997,235.17561672499997,69.0,79.0
1098,235.18832857499999,235.34934534166663,72.0,77.0
1099,235.44256557499997,235.6374806083333,43.0,78.0
1100,235.69680257499996,235.99764969166665,55.0,57.0
1101,235.44256557499997,236.14807324999998,70.0,83.0
1102,235.44256557499997,236.2667171833333,62.0,78.0
1103,236.459513575,236.78578439166665,62.0,80.0
1104,236.20527657499997,236.90442832499997,58.0,76.0
1105,235.95103957499998,236.9213774583333,57.0,68.0
1106,236.71375057499998,237.00188584166665,65.0,83.0
1107,237.22222457499998,237.40866504166664,72.0,86.0
1108,237.47646157499997,238.4785790833333,64.0,75.0
1109,237.47646157499997,238.4976468583333,67.0,82.0
1110,237.47646157499997,238.56332474999996,72.0,83.0
1111,237.47646157499997,239.09934109166664,60.0,72.0
1112,237.47646157499997,239.14171392499998,55.0,72.0
1113,237.47646157499997,239.15230713333332,48.0,73.0
1114,239.51035757499997,239.96374689166663,69.0,81.0
1115,239.51035757499997,240.0294247833333,65.0,80.0
1116,240.27306857499997,240.47645817499998,64.0,79.0
1117,240.52730557499999,240.8175594833333,65.0,79.0
1118,240.78154257499997,240.99764402499997,69.0,59.0
1119,239.51035757499997,241.20103362499998,50.0,86.0
1120,241.03577957499996,241.33874533333332,72.0,80.0
1121,240.01883157499998,241.3705249583333,62.0,79.0
1122,241.29001657499998,241.41077914999997,74.0,75.0
1123,241.54425357499997,241.887473525,69.0,62.0
1124,241.54425357499997,241.98281239999997,77.0,86.0
1125,241.54425357499997,242.06755806666663,62.0,63.0
1126,242.05272757499998,242.17560879166663,67.0,78.0
1127,242.05272757499998,242.18832064166665,76.0,80.0
1128,242.56120157499998,242.66207871249998,65.0,76.0
1129,242.30696457499997,242.6708506375,62.0,35.0
1130,242.56120157499998,242.69497343125,74.0,84.0
1131,241.54425357499997,243.14672756874998,50.0,79.0
1132,243.087517075,243.21690296875,64.0,68.0
1133,239.764594575,243.22348191249998,57.0,72.0
1134,243.087517075,243.22567489374998,72.0,91.0
1135,242.824359325,243.24321874375,62.0,24.0
1136,243.61383257499998,244.22786732499998,65.0,83.0
1137,243.61383257499998,244.30023570625,69.0,78.0
1138,244.666463575,245.32216496874997,69.0,67.0
1139,244.666463575,245.34409478125,65.0,68.0
1140,245.45593682499998,246.13137504999997,62.0,42.0
1141,245.71909457499999,246.43181348124997,69.0,68.0
1142,245.71909457499999,246.44497136874998,65.0,68.0
1143,243.61383257499998,246.94047557499997,57.0,71.0
1144,246.50856782499997,246.9738089083333,62.0,24.0
1145,246.77172557499998,247.21964224166663,65.0,75.0
1146,246.77172557499998,247.21964224166663,69.0,71.0
1147,246.77172557499998,247.2425589083333,64.0,71.0
1148,243.61383257499998,247.3300589083333,50.0,71.0
1149,247.77172557499998,248.30405277083332,60.0,67.0
1150,247.77172557499998,248.31913896666666,64.0,71.0
1151,247.77172557499998,248.35362169999996,67.0,76.0
1152,248.80620757499997,249.0993108083333,60.0,62.0
1153,248.288966575,249.24370725416665,52.0,68.0
1154,249.06482807499998,249.3881037,64.0,71.0
1155,248.54758707499997,249.478620875,57.0,50.0
1156,247.77172557499998,249.56051736666663,45.0,76.0
1157,249.58206907499996,249.84715508749997,52.0,73.0
1158,249.84068957499997,249.94844811666664,57.0,59.0
1159,249.84068957499997,249.96784465416664,45.0,74.0
1160,250.09931007499998,250.1919824208333,57.0,41.0
1161,249.323448575,250.48508565416665,67.0,63.0
1162,250.616551075,250.9419818708333,57.0,43.0
1163,250.87517157499997,251.2329299333333,60.0,67.0
1164,250.87517157499997,251.2911195458333,67.0,73.0
1165,251.13379207499997,251.40965394166665,57.0,44.0
1166,251.39241257499998,251.57344692499998,64.0,73.0
1167,250.09931007499998,251.59284346249999,45.0,75.0
1168,251.651033075,251.9312052833333,57.0,50.0
1169,251.90965357499996,252.32129120416664,62.0,62.0
1170,251.90965357499996,252.43336008749998,65.0,72.0
1171,251.90965357499996,252.4678428208333,69.0,69.0
1172,251.90965357499996,253.00017001666663,58.0,58.0
1173,252.68551507499998,253.11008372916663,62.0,47.0
1174,252.944135575,253.2178422708333,65.0,73.0
1175,252.944135575,253.31051461666664,69.0,62.0
1176,251.90965357499996,253.6510316083333,46.0,76.0
1177,253.46137657499997,253.69844536666665,62.0,57.0
1178,253.20275607499997,253.74801429583331,58.0,53.0
1179,253.978617575,254.15749675416663,46.0,81.0
1180,253.71999707499998,254.5949964333333,67.0,73.0
1181,254.75447907499998,254.92689274166665,62.0,48.0
1182,254.49585857499997,255.116547775,58.0,68.0
1183,255.01309957499998,255.61223706666664,62.0,15.0
1184,255.01309957499998,255.62732326249997,65.0,79.0
1185,255.53034057499997,255.6359439458333,58.0,63.0
1186,254.23723807499996,255.6553404833333,46.0,84.0
1187,256.047581575,256.2630986583333,65.0,63.0
1188,256.047581575,256.29973656249996,60.0,71.0
1189,256.047581575,256.34930549166666,69.0,73.0
1190,256.306202075,256.82775341666667,57.0,54.0
1191,256.564822575,257.4139598833333,60.0,63.0
1192,256.823443075,257.4225805666666,67.0,77.0
1193,257.34068407499996,257.75447687499997,57.0,69.0
1194,256.047581575,257.7609423875,53.0,58.0
1195,257.59930457499996,257.91180434583333,60.0,60.0
1196,258.116545575,258.2264592875,53.0,69.0
1197,257.85792507499997,258.9053381,65.0,75.0
1198,258.892407075,259.4549066625,57.0,54.0
1199,259.151027575,259.69413062499996,60.0,60.0
1200,259.40964807499995,259.7350788708333,65.0,80.0
1201,259.66826857499996,259.7781822875,57.0,71.0
1202,258.375166075,259.8061995083333,53.0,72.0
1203,259.66826857499996,259.86007877916666,67.0,76.0
1204,259.92688907499996,260.25231987083333,69.0,60.0
1205,260.18550957499997,260.6747333541666,65.0,79.0
1206,260.18550957499997,260.70921608749995,57.0,71.0
1207,260.444130075,261.34283631249997,48.0,71.0
1208,260.18550957499997,261.96783585416665,41.0,81.0
1209,260.702750575,261.9786117083333,53.0,59.0
1210,260.961371075,262.0001634166666,57.0,49.0
1211,261.219991575,262.00662892916665,60.0,69.0
1212,261.73723257499995,262.00878409999996,65.0,72.0
1213,261.99585307499996,262.20705981666663,48.0,78.0
1214,262.25447357499996,262.3536114333333,53.0,53.0
1215,262.25447357499996,262.3643872875,41.0,73.0
1216,262.51309407499997,263.107921225,53.0,72.0
1217,263.030335075,263.3880934333333,57.0,51.0
1218,263.030335075,263.82774828333334,65.0,40.0
1219,262.51309407499997,263.85576550416664,41.0,79.0
1220,263.547576075,263.8902482375,57.0,61.0
1221,263.288955575,263.96136887499995,53.0,59.0
1222,263.806196575,264.01093780416664,62.0,81.0
1223,264.06481707499995,264.2738686458333,64.0,79.0
1224,264.32343757499996,264.55619602499996,62.0,72.0
1225,264.32343757499996,264.68550627499997,65.0,78.0
1226,265.099299075,265.3708506,64.0,57.0
1227,264.84067857499997,265.4182643583333,62.0,58.0
1228,265.357919575,265.59498836666666,65.0,72.0
1229,264.32343757499996,265.96567775,50.0,68.0
1230,265.616540075,265.9936949708333,64.0,59.0
1231,265.875160575,266.10576385416664,69.0,62.0
1232,264.58205807499996,266.21567756666667,57.0,44.0
1233,266.133781075,267.0734355583333,72.0,76.0
1234,266.90964257499996,267.4613663083333,62.0,55.0
1235,267.16826307499997,267.50878006666665,64.0,61.0
1236,267.426883575,267.737228175,65.0,72.0
1237,267.685504075,267.9031763291666,67.0,73.0
1238,266.39240157499995,267.97429696666666,50.0,17.0
1239,266.65102207499996,268.03248657916663,57.0,61.0
1240,267.944124575,268.202745075,69.0,68.0
1241,268.202745075,268.36222771666667,72.0,69.0
1242,268.461365575,269.0648134083333,65.0,83.0
1243,268.461365575,269.1359340458333,69.0,78.0
1244,269.49584757499997,270.1402436541666,69.0,67.0
1245,269.49584757499997,270.16179536249996,65.0,68.0
1246,270.271709075,270.9355016916667,62.0,42.0
1247,270.530329575,271.2307600958333,69.0,68.0
1248,270.530329575,271.2436911208333,65.0,68.0
1249,268.461365575,271.7393804125,57.0,71.0
1250,271.30619107499996,271.77386314583333,62.0,24.0
1251,271.56481157499996,272.02817330416667,65.0,75.0
1252,271.56481157499996,272.02817330416667,69.0,71.0
1253,271.56481157499996,272.0518801833333,64.0,71.0
1254,268.461365575,272.1423973583333,50.0,71.0
1255,272.599293575,273.1316207708333,60.0,67.0
1256,272.599293575,273.14670696666667,64.0,71.0
1257,272.599293575,273.1811897,67.0,76.0
1258,273.63377557499996,273.9268788083333,60.0,62.0
1259,273.116534575,274.07127525416666,52.0,68.0
1260,273.89239607499997,274.2156717,64.0,71.0
1261,273.37515507499995,274.306188875,57.0,50.0
1262,272.599293575,274.38808536666664,45.0,76.0
1263,274.409637075,274.67472308749996,52.0,73.0
1264,274.668257575,274.77601611666665,57.0,59.0
1265,274.668257575,274.7954126541666,45.0,74.0
1266,274.926878075,275.0195504208333,57.0,41.0
1267,274.15101657499997,275.31265365416664,67.0,63.0
1268,275.444119075,275.7695498708333,57.0,43.0
1269,275.70273957499995,276.0604979333333,60.0,67.0
1270,275.70273957499995,276.1186875458333,67.0,73.0
1271,275.96136007499996,276.23722194166663,57.0,44.0
1272,276.21998057499997,276.40101492499997,64.0,73.0
1273,274.926878075,276.4204114625,45.0,75.0
1274,276.478601075,276.7587732833333,57.0,50.0
1275,276.737221575,277.1488592041666,62.0,62.0
1276,276.737221575,277.26092808749996,65.0,72.0
1277,276.737221575,277.2954108208333,69.0,69.0
1278,276.737221575,277.8277380166667,58.0,58.0
1279,277.513083075,277.93765172916665,62.0,47.0
1280,277.771703575,278.0454102708333,65.0,73.0
1281,277.771703575,278.1380826166666,69.0,62.0
1282,276.737221575,278.4785996083333,46.0,76.0
1283,278.28894457499996,278.52601336666663,62.0,57.0
1284,278.03032407499995,278.5755822958333,58.0,53.0
1285,278.806185575,278.9850647541666,46.0,81.0
1286,278.54756507499997,279.4225644333333,67.0,73.0
1287,279.582047075,279.75446074166666,62.0,48.0
1288,279.323426575,279.944115775,58.0,68.0
1289,279.840667575,280.4398050666666,62.0,15.0
1290,279.840667575,280.4548912625,65.0,79.0
1291,280.35790857499995,280.4635119458333,58.0,63.0
1292,279.064806075,280.4829084833333,46.0,84.0
1293,280.87514957499997,283.7803198583333,62.0,43.0
1294,280.87514957499997,284.2846298333333,65.0,71.0
1295,280.87514957499997,284.35144012916663,69.0,68.0
1296,285.01307757499995,285.8686803958333,77.0,51.0
1297,285.01307757499995,285.918249325,74.0,46.0
1298,285.27169807499996,285.9807492791666,86.0,27.0
1299,285.01307757499995,285.9936803041667,62.0,12.0
1300,280.87514957499997,286.0173871833333,57.0,53.0
1301,285.27169807499996,286.03462855,81.0,61.0
1302,280.87514957499997,286.0604906,50.0,42.0
