,start,end,pitch,velocity
0,38.1665912875,38.527701685416666,63.0,102.0
1,38.6794107875,38.77983793958333,63.0,112.0
2,38.9358205375,39.2435122375,63.0,107.0
3,39.1922302875,39.254195977083334,61.0,122.0
4,39.4486400375,39.65804133333333,61.0,112.0
5,39.7050497875,39.80334019166666,63.0,107.0
6,39.9614595375,40.19650180833333,61.0,102.0
7,40.2178692875,40.31188619583333,59.0,78.0
8,40.4742790375,40.73923577916667,58.0,100.0
9,40.7306887875,41.461456575,59.0,83.0
10,41.7563277875,41.94649835208333,59.0,83.0
11,42.0127375375,42.29265151458333,54.0,75.0
12,42.2691472875,42.29265151458333,54.0,86.0
13,42.7819667875,43.28623929583333,59.0,99.0
14,43.8076057875,44.03623781458333,59.0,78.0
15,44.0640155375,44.16016919375,54.0,72.0
16,44.3204252875,44.4229891875,54.0,70.0
17,44.5768350375,44.69862966875,54.0,85.0
18,44.8332447875,45.072560554166664,59.0,93.0
19,45.0896545375,45.521277616666666,61.0,99.0
20,46.3717032875,46.4486262125,63.0,107.0
21,46.6281130375,46.71144620625,63.0,99.0
22,46.884522787499996,46.946488477083335,63.0,100.0
23,47.1409325375,47.36529106875,63.0,122.0
24,47.3973422875,47.46999171666667,61.0,89.0
25,47.6537520375,47.90375154375,61.0,117.0
26,47.9101617875,47.9999052,63.0,112.0
27,48.1665715375,48.399477060416665,61.0,112.0
28,48.4229812875,48.568280145833334,59.0,86.0
29,48.6793910375,48.90588631666667,58.0,96.0
30,48.9358007875,49.35460337916667,59.0,88.0
31,49.9614397875,50.198618806249996,59.0,83.0
32,50.2178495375,50.40588335416667,54.0,75.0
33,50.4742592875,50.5768231875,54.0,92.0
34,50.987078787499996,51.47853080833333,59.0,93.0
35,51.7563080375,51.873829172916665,59.0,88.0
36,52.0127177875,52.16870038541666,59.0,82.0
37,52.2691275375,52.491349320833336,54.0,90.0
38,52.5255372875,52.683656633333335,54.0,86.0
39,53.0383567875,53.666560675,61.0,107.0
40,54.5768152875,54.662285204166665,63.0,93.0
41,54.8332250375,54.92296845,63.0,97.0
42,55.0896347875,55.17296795625,63.0,100.0
43,55.3460445375,55.43578795,63.0,122.0
44,55.6024542875,55.690060952083336,61.0,90.0
45,55.8588640375,55.95715444166667,61.0,100.0
46,56.1152737875,56.22424793125,63.0,89.0
47,56.3716835375,56.4998884125,61.0,100.0
48,56.6280932875,56.719973447916665,59.0,85.0
49,56.8845030375,57.119545308333336,58.0,93.0
50,57.1409127875,57.58108285833333,59.0,89.0
51,58.1665517875,58.2562952,59.0,83.0
52,58.4229615375,58.7306532375,54.0,95.0
53,58.9357810375,59.12167810625,54.0,96.0
54,59.1921907875,59.65159158958333,59.0,95.0
55,59.7050102875,59.850309145833336,59.0,107.0
56,60.2178297875,60.36953888958333,59.0,92.0
57,60.4742395375,60.83748668333333,54.0,86.0
58,60.987059037499996,61.187913341666665,54.0,86.0
59,61.2434687875,61.645177395833336,61.0,107.0
60,61.7562882875,61.94218535625,61.0,127.0
61,62.7819272875,62.875944195833334,63.0,112.0
62,63.0383370375,63.13449069375,63.0,95.0
63,63.2947467875,63.393037191666664,63.0,107.0
64,63.5511565375,63.677224664583335,63.0,107.0
65,63.8075662875,63.8973097,61.0,96.0
66,64.0639760375,64.22209538333334,61.0,100.0
67,64.3203857875,64.44218041875,63.0,89.0
68,64.5767955375,64.71568415208333,61.0,112.0
69,64.8332052875,65.12380300416666,59.0,93.0
70,65.0896150375,65.32252056041666,58.0,93.0
71,65.3460247875,65.84388705208333,59.0,95.0
72,66.3716637875,66.54474036875,59.0,89.0
73,66.6280735375,66.86952605208333,54.0,89.0
74,66.8844832875,67.01482491041666,54.0,88.0
75,67.3973027875,68.04473740625,59.0,92.0
76,68.4229417875,68.51268519999999,54.0,92.0
77,68.6793515375,68.77123169791666,61.0,100.0
78,68.9357612875,69.01909445625,61.0,107.0
79,69.1921710375,69.31182892083334,61.0,122.0
80,69.4485807875,69.61311037708333,59.0,95.0
81,69.7049905375,69.97635752291667,63.0,107.0
82,69.9614002875,70.11738288541666,61.0,102.0
83,70.2178100375,70.71353555416667,61.0,112.0
84,70.7306295375,71.30968822291666,59.0,96.0
85,71.2434490375,71.33532919791666,63.0,127.0
86,71.4998587875,71.66438837708333,63.0,102.0
87,71.7562685375,71.9870373125,61.0,107.0
88,72.0126782875,72.13019942291666,59.0,83.0
89,72.2690880375,72.78618103333334,59.0,97.0
90,73.2947270375,73.38019695416666,63.0,112.0
91,73.5511367875,73.68361515833334,63.0,100.0
92,73.8075465375,74.03190506875,66.0,100.0
93,74.0639562875,74.31181904583333,61.0,95.0
94,74.3203660375,74.89515122708333,59.0,100.0
95,74.8331855375,74.89515122708333,59.0,99.0
96,75.3460050375,75.55540633333334,56.0,97.0
97,75.6024147875,75.98916616041667,59.0,97.0
98,76.1152342875,76.2947211125,59.0,92.0
99,76.3716440375,76.50198566041666,54.0,88.0
100,76.6280537875,76.76907915,54.0,70.0
101,76.8844635375,77.12591605208333,61.0,97.0
102,77.1408732875,77.21565946458334,61.0,107.0
103,77.3972830375,77.5254879125,61.0,112.0
104,77.6536927875,77.79685489791666,59.0,86.0
105,77.9101025375,78.281896675,63.0,112.0
106,78.4229220375,79.06821990833333,63.0,112.0
107,79.4485610375,79.55753518125,63.0,102.0
108,79.7049707875,79.8075346875,63.0,99.0
109,79.9613805375,80.18146557291666,61.0,112.0
110,80.2177902875,80.32249093541667,59.0,82.0
111,80.4742000375,80.8203532,59.0,96.0
112,81.4998390375,81.58530895416666,63.0,102.0
113,81.7562487875,81.84812894791666,63.0,112.0
114,82.0126585375,82.15154715208334,66.0,117.0
115,82.2690682875,82.41650389375,63.0,97.0
116,82.5254780375,82.99342583125,59.0,96.0
117,83.2947072875,83.38017720416667,54.0,92.0
118,83.5511170375,83.6793219125,59.0,112.0
119,83.8075267875,83.91222743541667,59.0,89.0
120,84.0639365375,84.14940645416667,59.0,92.0
121,84.3203462875,84.48273912916666,59.0,127.0
122,84.8331657875,84.94000318333333,54.0,96.0
123,85.0895755375,85.1664984625,61.0,97.0
124,85.3459852875,85.42931845625,61.0,107.0
125,85.6023950375,85.67718121458333,61.0,117.0
126,85.8588047875,85.9870096625,59.0,90.0
127,86.1152145375,86.4741881875,63.0,122.0
128,86.6280340375,87.05538362083334,63.0,127.0
129,87.14085353749999,87.23059695,64.0,102.0
130,87.3972632875,87.49128019583333,64.0,93.0
131,87.6536730375,87.74768994583333,64.0,93.0
132,87.9100827875,88.02760392291667,64.0,97.0
133,88.1664925375,88.55965415416667,66.0,117.0
134,88.6793120375,89.01050796458334,66.0,117.0
135,89.1921315375,89.43358405208333,63.0,117.0
136,89.4485412875,89.5511051875,61.0,100.0
137,89.7049510375,89.85024989583333,61.0,127.0
138,89.9613607875,90.10452289791667,59.0,99.0
139,90.2177705375,90.5511032125,61.0,122.0
140,91.2434095375,91.31392221875,63.0,122.0
141,91.4998192875,91.5767422125,63.0,102.0
142,91.7562290375,91.83101521458333,63.0,97.0
143,92.0126387875,92.09810870416666,63.0,112.0
144,92.2690485375,92.76691080208333,66.0,127.0
145,92.7818680375,93.09383323333333,68.0,127.0
146,93.2946875375,93.64938769166666,59.0,122.0
147,93.8075070375,94.21989938541667,58.0,112.0
148,94.3203265375,94.7818640875,56.0,112.0
149,95.34596553749999,95.43570895,64.0,99.0
150,95.6023752875,95.69425544791666,64.0,86.0
151,95.8587850375,95.95066519791666,64.0,95.0
152,96.1151947875,96.20707494791667,64.0,93.0
153,96.3716045375,96.76262940625,66.0,127.0
154,96.8844240375,96.98271444166667,66.0,127.0
155,97.1408337875,97.24339768749999,66.0,117.0
156,97.3972435375,97.666473775,63.0,122.0
157,97.6536532875,97.76476417916666,61.0,79.0
158,97.9100630375,98.15792579583334,61.0,112.0
159,98.1664727875,98.461344,59.0,82.0
160,98.4228825375,98.81177065833333,61.0,112.0
161,98.9357020375,99.15151357708334,59.0,99.0
162,99.1921117875,99.30535942708333,61.0,99.0
163,99.4485215375,99.84381990208334,63.0,122.0
164,99.9613410375,100.30963094791666,66.0,100.0
165,100.4741605375,101.01048426458333,61.0,112.0
166,100.9869800375,101.45279108333334,66.0,122.0
167,101.7562092875,103.08740323958334,59.0,95.0
168,124.3202672875,124.68137768541666,63.0,102.0
169,124.8330867875,124.93351393958334,63.0,112.0
170,125.0894965375,125.3971882375,63.0,107.0
171,125.3459062875,125.40787197708333,61.0,122.0
172,125.6023160375,125.81171733333333,61.0,112.0
173,125.8587257875,125.95701619166667,63.0,107.0
174,126.1151355375,126.35017780833333,61.0,102.0
175,126.3715452875,126.46556219583333,59.0,78.0
176,126.6279550375,126.89291177916667,58.0,100.0
177,126.8843647875,127.615132575,59.0,83.0
178,127.9100037875,128.10017435208334,59.0,83.0
179,128.1664135375,128.44632751458334,54.0,75.0
180,128.4228232875,128.44632751458334,54.0,86.0
181,128.9356427875,129.43991529583334,59.0,99.0
182,129.9612817875,130.18991381458332,59.0,78.0
183,130.2176915375,130.31384519375,54.0,72.0
184,130.4741012875,130.5766651875,54.0,70.0
185,130.7305110375,130.85230566875,54.0,85.0
186,130.9869207875,131.22623655416666,59.0,93.0
187,131.2433305375,131.67495361666667,61.0,99.0
188,132.5253792875,132.6023022125,63.0,107.0
189,132.7817890375,132.86512220625,63.0,99.0
190,133.0381987875,133.10016447708333,63.0,100.0
191,133.2946085375,133.51896706875,63.0,122.0
192,133.5510182875,133.62366771666666,61.0,89.0
193,133.8074280375,134.05742754375,61.0,117.0
194,134.0638377875,134.1535812,63.0,112.0
195,134.3202475375,134.55315306041666,61.0,112.0
196,134.5766572875,134.72195614583333,59.0,86.0
197,134.8330670375,135.05956231666667,58.0,96.0
198,135.0894767875,135.50827937916668,59.0,88.0
199,136.1151157875,136.35229480625,59.0,83.0
200,136.3715255375,136.55955935416668,54.0,75.0
201,136.6279352875,136.7304991875,54.0,92.0
202,137.1407547875,137.63220680833334,59.0,93.0
203,137.9099840375,138.02750517291668,59.0,88.0
204,138.1663937875,138.32237638541667,59.0,82.0
205,138.4228035375,138.64502532083333,54.0,90.0
206,138.6792132875,138.83733263333335,54.0,86.0
207,139.1920327875,139.820236675,61.0,107.0
208,140.7304912875,140.81596120416665,63.0,93.0
209,140.9869010375,141.07664445,63.0,97.0
210,141.2433107875,141.32664395625,63.0,100.0
211,141.4997205375,141.58946395,63.0,122.0
212,141.75613028749999,141.84373695208333,61.0,90.0
213,142.0125400375,142.11083044166668,61.0,100.0
214,142.2689497875,142.37792393125,63.0,89.0
215,142.5253595375,142.6535644125,61.0,100.0
216,142.7817692875,142.87364944791668,59.0,85.0
217,143.0381790375,143.27322130833332,58.0,93.0
218,143.2945887875,143.73475885833332,59.0,89.0
219,144.3202277875,144.4099712,59.0,83.0
220,144.5766375375,144.8843292375,54.0,95.0
221,145.0894570375,145.27535410625,54.0,96.0
222,145.3458667875,145.80526758958334,59.0,95.0
223,145.8586862875,146.00398514583333,59.0,107.0
224,146.3715057875,146.52321488958333,59.0,92.0
225,146.6279155375,146.99116268333333,54.0,86.0
226,147.1407350375,147.34158934166666,54.0,86.0
227,147.3971447875,147.79885339583333,61.0,107.0
228,147.9099642875,148.09586135625,61.0,127.0
229,148.9356032875,149.02962019583333,63.0,112.0
230,149.1920130375,149.28816669375,63.0,95.0
231,149.4484227875,149.54671319166667,63.0,107.0
232,149.7048325375,149.83090066458334,63.0,107.0
233,149.9612422875,150.0509857,61.0,96.0
234,150.2176520375,150.37577138333333,61.0,100.0
235,150.4740617875,150.59585641875,63.0,89.0
236,150.7304715375,150.86936015208335,61.0,112.0
237,150.9868812875,151.27747900416668,59.0,93.0
238,151.2432910375,151.47619656041667,58.0,93.0
239,151.4997007875,151.99756305208334,59.0,95.0
240,152.5253397875,152.69841636875,59.0,89.0
241,152.7817495375,153.02320205208332,54.0,89.0
242,153.0381592875,153.16850091041667,54.0,88.0
243,153.5509787875,154.19841340625,59.0,92.0
244,154.5766177875,154.6663612,54.0,92.0
245,154.8330275375,154.92490769791667,61.0,100.0
246,155.0894372875,155.17277045625,61.0,107.0
247,155.3458470375,155.46550492083333,61.0,122.0
248,155.6022567875,155.76678637708332,59.0,95.0
249,155.8586665375,156.13003352291668,63.0,107.0
250,156.1150762875,156.27105888541666,61.0,102.0
251,156.3714860375,156.86721155416666,61.0,112.0
252,156.8843055375,157.46336422291665,59.0,96.0
253,157.3971250375,157.48900519791667,63.0,127.0
254,157.6535347875,157.81806437708335,63.0,102.0
255,157.9099445375,158.1407133125,61.0,107.0
256,158.1663542875,158.28387542291668,59.0,83.0
257,158.4227640375,158.93985703333334,59.0,97.0
258,159.4484030375,159.53387295416667,63.0,112.0
259,159.7048127875,159.83729115833333,63.0,100.0
260,159.9612225375,160.18558106875,66.0,100.0
261,160.2176322875,160.46549504583334,61.0,95.0
262,160.4740420375,161.04882722708334,59.0,100.0
263,160.9868615375,161.04882722708334,59.0,99.0
264,161.4996810375,161.70908233333333,56.0,97.0
265,161.7560907875,162.14284216041668,59.0,97.0
266,162.2689102875,162.4483971125,59.0,92.0
267,162.5253200375,162.65566166041665,54.0,88.0
268,162.7817297875,162.92275515,54.0,70.0
269,163.0381395375,163.27959205208333,61.0,97.0
270,163.2945492875,163.36933546458334,61.0,107.0
271,163.5509590375,163.6791639125,61.0,112.0
272,163.8073687875,163.95053089791668,59.0,86.0
273,164.06377853749999,164.435572675,63.0,112.0
274,164.5765980375,165.22189590833332,63.0,112.0
275,165.6022370375,165.71121118125,63.0,102.0
276,165.8586467875,165.9612106875,63.0,99.0
277,166.1150565375,166.33514157291665,61.0,112.0
278,166.3714662875,166.47616693541667,59.0,82.0
279,166.6278760375,166.9740292,59.0,96.0
280,167.6535150375,167.73898495416665,63.0,102.0
281,167.9099247875,168.00180494791667,63.0,112.0
282,168.1663345375,168.30522315208333,66.0,117.0
283,168.4227442875,168.57017989375,63.0,97.0
284,168.6791540375,169.14710183125,59.0,96.0
285,169.4483832875,169.53385320416666,54.0,92.0
286,169.7047930375,169.8329979125,59.0,112.0
287,169.96120278749999,170.06590343541666,59.0,89.0
288,170.2176125375,170.30308245416666,59.0,92.0
289,170.4740222875,170.63641512916666,59.0,127.0
290,170.9868417875,171.09367918333334,54.0,96.0
291,171.2432515375,171.3201744625,61.0,97.0
292,171.4996612875,171.58299445625,61.0,107.0
293,171.7560710375,171.83085721458335,61.0,117.0
294,172.0124807875,172.1406856625,59.0,90.0
295,172.2688905375,172.6278641875,63.0,122.0
296,172.7817100375,173.20905962083333,63.0,127.0
297,173.2945295375,173.38427295,64.0,102.0
298,173.5509392875,173.64495619583334,64.0,93.0
299,173.8073490375,173.90136594583333,64.0,93.0
300,174.0637587875,174.18127992291667,64.0,97.0
301,174.3201685375,174.71333015416667,66.0,117.0
302,174.8329880375,175.16418396458334,66.0,117.0
303,175.3458075375,175.58726005208334,63.0,117.0
304,175.6022172875,175.7047811875,61.0,100.0
305,175.85862703749999,176.00392589583333,61.0,127.0
306,176.1150367875,176.25819889791666,59.0,99.0
307,176.3714465375,176.7047792125,61.0,122.0
308,177.3970855375,177.46759821875,63.0,122.0
309,177.6534952875,177.7304182125,63.0,102.0
310,177.9099050375,177.98469121458334,63.0,97.0
311,178.1663147875,178.25178470416665,63.0,112.0
312,178.4227245375,178.92058680208333,66.0,127.0
313,178.9355440375,179.24750923333335,68.0,127.0
314,179.4483635375,179.80306369166667,59.0,122.0
315,179.9611830375,180.37357538541667,58.0,112.0
316,180.4740025375,180.9355400875,56.0,112.0
317,181.4996415375,181.58938495,64.0,99.0
318,181.7560512875,181.84793144791666,64.0,86.0
319,182.0124610375,182.10434119791665,64.0,95.0
320,182.2688707875,182.36075094791667,64.0,93.0
321,182.5252805375,182.91630540625,66.0,127.0
322,183.0381000375,183.13639044166666,66.0,127.0
323,183.2945097875,183.3970736875,66.0,117.0
324,183.5509195375,183.820149775,63.0,122.0
325,183.8073292875,183.91844017916665,61.0,79.0
326,184.0637390375,184.31160179583333,61.0,112.0
327,184.3201487875,184.61502,59.0,82.0
328,184.5765585375,184.96544665833332,61.0,112.0
329,185.0893780375,185.30518957708333,59.0,99.0
330,185.3457877875,185.45903542708334,61.0,99.0
331,185.6021975375,185.99749590208333,63.0,122.0
332,186.1150170375,186.46330694791666,66.0,100.0
333,186.6278365375,187.16416026458333,61.0,112.0
334,187.1406560375,187.60646708333334,66.0,122.0
335,187.9098852875,188.6791145375,59.0,95.0
336,188.6791145375,188.9355242875,59.0,97.0
337,188.9355242875,189.21330151666666,61.0,97.0
338,189.1919340375,189.64919809166668,63.0,122.0
339,189.7047535375,189.78808670625,64.0,112.0
340,189.9611632875,190.05731694375,64.0,83.0
341,190.2175730375,190.31372669375,64.0,89.0
342,190.4739827875,190.58082018333334,64.0,97.0
343,190.7303925375,191.12996439791667,66.0,117.0
344,191.2432120375,191.46329707291667,66.0,112.0
345,191.4996217875,191.666288125,66.0,112.0
346,191.7560315375,191.973979825,63.0,127.0
347,192.0124412875,192.10432144791667,61.0,96.0
348,192.26885103749999,192.56799574583334,61.0,117.0
349,192.5252607875,192.7560295625,59.0,96.0
350,192.7816705375,193.15132792708334,63.0,100.0
351,193.0380802875,193.72611311666665,61.0,107.0
352,193.8073095375,193.89277945416666,63.0,122.0
353,194.0637192875,194.1534627,63.0,107.0
354,194.3201290375,194.41628269375,63.0,100.0
355,194.5765387875,194.68764967916667,63.0,107.0
356,194.8329485375,195.2816656,66.0,127.0
357,195.3457680375,195.5893573,68.0,127.0
358,195.8585875375,196.23892866666665,59.0,107.0
359,196.3714070375,196.87781629375,58.0,117.0
360,196.8842265375,197.56584912291666,56.0,107.0
361,197.9098655375,197.97824147083332,64.0,112.0
362,198.16627528749999,198.23678796875,64.0,99.0
363,198.4226850375,198.50601820625,64.0,93.0
364,198.6790947875,198.76670145208334,64.0,96.0
365,198.9355045375,199.24746973333333,66.0,127.0
366,199.4483240375,199.56798192083332,66.0,117.0
367,199.7047337875,199.84362240208333,66.0,117.0
368,199.9611435375,200.20045930416666,63.0,127.0
369,200.2175532875,200.34362141458334,61.0,88.0
370,200.4739630375,200.71114205625,61.0,107.0
371,200.7303727875,201.025244,59.0,92.0
372,200.9867825375,201.2688332625,63.0,127.0
373,201.2431922875,201.98464381458334,61.0,112.0
374,202.5252410375,202.59789046666666,63.0,127.0
375,202.7816507875,202.89917192291668,63.0,117.0
376,203.0380605375,203.36498296875,61.0,117.0
377,203.5508800375,203.82438377083332,63.0,127.0
378,204.06369953749999,204.41626294375,61.0,127.0
379,204.5765190375,204.87566374583332,59.0,99.0
380,204.8329287875,205.08720178958333,56.0,102.0
381,205.0893385375,205.86711477916666,59.0,90.0
382,206.6277970375,206.69830971875,68.0,117.0
383,206.8842067875,207.37779555625,66.0,122.0
384,207.6534360375,207.8842048125,63.0,127.0
385,207.9098457875,208.3970243125,61.0,96.0
386,208.6790750375,208.75172446666667,59.0,96.0
387,208.9354847875,209.83932915625,59.0,99.0
388,210.7303530375,210.9354808375,54.0,96.0
389,210.9867627875,211.32436895833334,56.0,92.0
390,211.4995822875,211.83505171041668,59.0,93.0
391,211.7559920375,212.04872650208333,54.0,83.0
392,212.2688115375,212.9354768875,61.0,97.0
393,213.0380407875,213.18120289791668,63.0,102.0
394,213.1662456625,213.28590354583332,61.0,82.0
395,213.2944505375,213.53162955625,59.0,78.0
396,213.4226554125,213.68761215416666,61.0,100.0
397,213.6790651625,214.06581653541667,63.0,107.0
398,214.57649928749998,214.68761017916665,56.0,83.0
399,214.8329090375,214.95043017291667,68.0,112.0
400,215.0893187875,215.717522675,66.0,112.0
401,215.8585480375,215.94829145,63.0,107.0
402,216.1149577875,216.90769126458332,61.0,112.0
403,217.1405967875,217.77307417083333,59.0,112.0
404,218.9354650375,219.03589218958334,66.0,117.0
405,219.1918747875,219.2816182,66.0,100.0
406,219.4482845375,219.64700209375,66.0,127.0
407,219.7046942875,219.7816172125,63.0,100.0
408,219.9611040375,220.22178728333333,63.0,122.0
409,220.2175137875,222.40554365416668,66.0,127.0
410,222.5252015375,222.61067145416666,64.0,107.0
411,222.7816112875,222.88203843958334,64.0,99.0
412,223.0380210375,223.14485843333333,64.0,96.0
413,223.2944307875,223.39913143541668,64.0,102.0
414,223.5508405375,223.89272020416666,66.0,127.0
415,224.0636600375,224.16408718958334,66.0,127.0
416,224.3200697875,224.486736125,66.0,122.0
417,224.5764795375,224.7816073375,63.0,127.0
418,224.8328892875,224.92904294375,61.0,97.0
419,225.0892990375,225.32861480416668,61.0,127.0
420,225.3457087875,225.51023837708334,59.0,92.0
421,225.6021185375,226.01878438125,61.0,127.0
422,226.6277575375,226.71322745416666,63.0,122.0
423,226.8841672875,226.9739107,63.0,112.0
424,227.1405770375,227.21322646666667,63.0,100.0
425,227.3969867875,227.47604646041665,63.0,112.0
426,227.6533965375,227.96963522916667,66.0,127.0
427,228.1662160375,228.49741196458334,68.0,112.0
428,228.6790355375,229.33715389583332,59.0,117.0
429,229.1918550375,229.5508286875,58.0,117.0
430,229.7046745375,229.92689632083332,68.0,127.0
431,229.9610842875,230.07433192708334,66.0,97.0
432,229.7046745375,230.24740850833334,56.0,99.0
433,230.2174940375,230.384160375,66.0,117.0
434,230.7303135375,230.83501418541667,64.0,112.0
435,230.9867232875,231.10210767499998,64.0,95.0
436,230.4739037875,231.27304750833332,61.0,107.0
437,231.2431330375,231.3456969375,64.0,95.0
438,231.4995427875,231.63415790625,64.0,96.0
439,231.7559525375,232.09783220416668,66.0,127.0
440,232.26877203749999,232.36919918958333,66.0,127.0
441,232.5251817875,232.691848125,66.0,122.0
442,232.7815915375,232.9867193375,63.0,127.0
443,233.0380012875,233.13415494375,61.0,97.0
444,233.2944110375,233.53372680416666,61.0,127.0
445,233.5508207875,233.71535037708333,59.0,92.0
446,233.8072305375,234.04227280833334,71.0,122.0
447,234.0636402875,234.19398191041665,70.0,96.0
448,233.8072305375,234.22389638125,61.0,127.0
449,234.3200500375,234.47175913958333,68.0,112.0
450,234.3200500375,234.51449409791667,59.0,107.0
451,234.5764597875,234.70252791458333,61.0,117.0
452,234.5764597875,234.85423701666667,70.0,112.0
453,234.8328695375,235.18115944791666,63.0,117.0
454,235.0892792875,235.28372334791666,66.0,117.0
455,235.3456890375,235.74312415,66.0,122.0
456,235.8585085375,236.27517438125,61.0,117.0
457,236.3713280375,236.80295111666666,66.0,117.0
458,236.8841475375,237.52944540833334,59.0,107.0
459,237.6533767875,237.81790637708332,66.0,112.0
460,237.9097865375,238.13841856458333,63.0,107.0
461,237.9097865375,238.23243547291668,59.0,100.0
462,238.1661962875,238.36277709583334,61.0,102.0
463,238.1661962875,238.4738879875,64.0,93.0
464,238.4226060375,238.63414408124999,66.0,117.0
465,238.4226060375,238.67687903958333,63.0,112.0
466,238.6790157875,238.94183578125,66.0,102.0
467,238.9354255375,239.07431415208333,64.0,102.0
468,239.1918352875,239.31362991875,64.0,93.0
469,239.4482450375,239.58713365208334,64.0,99.0
470,239.7046547875,239.8841416125,64.0,102.0
471,238.6790157875,240.06790193333333,71.0,127.0
472,239.9610645375,240.31790143958332,66.0,122.0
473,240.4738840375,240.57858468541667,66.0,127.0
474,240.4738840375,240.7559347625,68.0,100.0
475,240.7302937875,240.86704565416667,66.0,117.0
476,240.9867035375,241.17473735416667,63.0,122.0
477,240.7302937875,241.32644645625,75.0,112.0
478,241.2431132875,241.35636092708333,61.0,100.0
479,241.4995230375,241.70892433333333,68.0,100.0
480,241.4995230375,241.71960807291666,61.0,117.0
481,241.7559327875,241.95037684791666,59.0,99.0
482,241.7559327875,242.16832513541667,71.0,95.0
483,242.0123425375,242.26020529583334,63.0,127.0
484,242.2687522875,242.5764439875,73.0,127.0
485,242.2687522875,242.79652902291667,61.0,112.0
486,243.0379815375,243.1149044625,63.0,127.0
487,243.2943912875,243.37772445625,63.0,107.0
488,243.5508010375,243.6277239625,63.0,112.0
489,243.5508010375,243.84994574583334,75.0,102.0
490,243.8072107875,243.89054395624999,63.0,112.0
491,243.8072107875,244.27729532916666,73.0,95.0
492,244.0636205375,244.36490199375,66.0,127.0
493,244.5764400375,244.83498653541668,73.0,127.0
494,244.5764400375,244.87772149375,68.0,112.0
495,245.0892595375,245.53156635625,59.0,117.0
496,244.8328497875,245.92045447708333,71.0,93.0
497,245.6020790375,245.98455691458332,58.0,112.0
498,246.1148985375,246.30720585,63.0,117.0
499,246.3713082875,246.58498307916668,64.0,97.0
500,246.1148985375,246.60848730625,56.0,112.0
501,246.6277180375,246.77301689583334,63.0,112.0
502,246.8841277875,247.02087965416666,64.0,100.0
503,247.1405375375,247.27942615208335,64.0,102.0
504,247.3969472875,247.51874191875,64.0,93.0
505,247.6533570375,247.79224565208332,64.0,99.0
506,247.9097667875,248.0892536125,64.0,102.0
507,247.1405375375,248.1661765375,66.0,122.0
508,248.1661765375,248.52301343958334,66.0,122.0
509,248.67899603749999,248.78369668541666,66.0,127.0
510,248.9354057875,249.07215765416666,66.0,117.0
511,249.1918155375,249.37984935416665,63.0,122.0
512,249.4482252875,249.56147292708334,61.0,100.0
513,249.7046350375,249.92472007291667,61.0,117.0
514,249.9610447875,250.15548884791667,59.0,99.0
515,250.2174545375,250.56574444791667,61.0,112.0
516,250.4738642875,250.75805176041666,59.0,90.0
517,250.7302740375,251.00591451875,68.0,117.0
518,250.9866837875,251.61275092708334,66.0,117.0
519,251.7559130375,251.84351970208334,63.0,112.0
520,252.0123227875,252.62556943958333,63.0,107.0
521,252.7815520375,252.91189366041667,61.0,90.0
522,253.0379617875,253.60633673333334,61.0,112.0
523,253.5507812875,254.50590760625,59.0,67.0
524,255.3456495375,255.45676042916668,64.0,88.0
525,255.6020592875,255.70248643958334,64.0,76.0
526,255.8584690375,255.97812692083332,64.0,82.0
527,256.1148787875,256.36274154583333,64.0,77.0
528,256.3712885375,256.7046212125,66.0,89.0
529,256.88410803749997,257.00590266875,66.0,112.0
530,257.1405177875,257.3499190833333,66.0,107.0
531,257.3969275375,257.6789782625,63.0,102.0
532,257.6533372875,257.7729951708333,61.0,93.0
533,257.9097470375,258.178977275,61.0,99.0
534,258.1661567875,258.435387025,59.0,81.0
535,258.4225665375,258.9610270125,61.0,96.0
536,259.4482055375,259.5486326895833,63.0,92.0
537,259.7046152875,259.80504243958336,63.0,77.0
538,259.9610250375,260.08068292083334,63.0,73.0
539,260.2174347875,260.36700714166665,63.0,81.0
540,260.4738445375,260.89478387708334,66.0,90.0
541,260.9866640375,261.48666305,68.0,90.0
542,261.4994835375,261.94179035625,59.0,69.0
543,262.0123030375,262.53153278125,58.0,76.0
544,262.5251225375,263.16828366041665,56.0,73.0
545,263.5507615375,263.6575989333333,64.0,72.0
546,263.8071712875,263.9118719354167,64.0,59.0
547,264.0635810375,264.1682816854167,64.0,61.0
548,264.3199907875,264.4225546875,64.0,55.0
549,264.5764005375,264.9075964645833,66.0,77.0
550,265.0892200375,265.2174249125,66.0,90.0
551,265.3456297875,265.4781081583333,66.0,37.0
552,265.6020395375,265.8840902625,63.0,70.0
553,265.8584492875,265.9909276583333,61.0,50.0
554,266.1148590375,266.43750797291665,61.0,35.0
555,266.3712687875,266.640499025,59.0,55.0
556,266.6276785375,267.41400177083335,61.0,62.0
557,267.6533175375,267.77511216875,63.0,56.0
558,267.9097272875,268.025111675,63.0,46.0
559,268.1661370375,268.29647866041665,63.0,49.0
560,268.4225467875,268.5785293854167,63.0,39.0
