,start,end,pitch,velocity
0,37.457312639583336,37.71902614166667,58.0,107.0
1,37.73401413958333,37.95191657083333,60.0,83.0
2,38.01071563958333,38.232076839583335,63.0,112.0
3,38.564118639583334,38.84082013958333,63.0,127.0
4,38.84082013958333,39.04719334166666,62.0,83.0
5,39.11752163958333,39.499139125,63.0,112.0
6,39.67092463958333,40.18166949166667,70.0,102.0
7,40.22432763958333,41.16050104791667,63.0,107.0
8,41.88453663958333,42.04709877083333,58.0,107.0
9,42.16123813958333,42.34339996041667,60.0,79.0
10,42.437939639583334,42.81379251041667,63.0,99.0
11,42.99134263958333,43.09510570208333,63.0,112.0
12,43.26804413958333,43.3867952,62.0,82.0
13,43.54474563958333,43.88601082291667,63.0,95.0
14,44.09814863958333,44.5420239625,67.0,93.0
15,44.65155163958333,45.53353767083333,67.0,100.0
16,46.31176063958333,46.453570158333335,65.0,96.0
17,46.588462139583335,46.76370642291666,67.0,93.0
18,46.86516363958333,47.11880668125,70.0,107.0
19,47.14186513958333,47.40473156458333,72.0,100.0
20,47.41856663958333,47.72639705833333,70.0,99.0
21,47.695268139583334,47.94660533541666,72.0,95.0
22,47.971969639583335,48.446973881249995,70.0,117.0
23,48.80207413958333,49.211361775,65.0,100.0
24,49.35547713958333,49.49613373541666,67.0,97.0
25,49.63217863958333,50.11986503333333,67.0,93.0
26,50.18558163958333,50.73091417916667,63.0,96.0
27,51.29238763958333,51.52758391458333,63.0,102.0
28,51.56908913958333,51.85616694583333,60.0,69.0
29,51.845790639583335,52.14555059791667,63.0,90.0
30,52.12249213958333,52.424557943749996,60.0,78.0
31,52.39919363958333,52.720859133333335,63.0,97.0
32,52.952596639583334,53.1889458375,60.0,95.0
33,53.229298139583335,53.38148396458333,62.0,93.0
34,53.36764888958333,53.500235025,60.0,86.0
35,53.50599963958333,54.714262856249995,58.0,89.0
36,55.16620863958333,55.42792214166666,58.0,107.0
37,55.44291013958333,55.66081257083333,60.0,83.0
38,55.719611639583334,55.94097283958333,63.0,112.0
39,56.27301463958333,56.54971613958333,63.0,127.0
40,56.54971613958333,56.756089341666666,62.0,83.0
41,56.82641763958333,57.208035124999995,63.0,112.0
42,57.37982063958333,57.89056549166666,70.0,102.0
43,57.93322363958333,58.869397047916664,63.0,107.0
44,59.593432639583334,59.75599477083333,58.0,107.0
45,59.87013413958333,60.052295960416664,60.0,79.0
46,60.14683563958333,60.522688510416664,63.0,99.0
47,60.70023863958333,60.80400170208333,63.0,112.0
48,60.976940139583334,61.0956912,62.0,82.0
49,61.25364163958333,61.59490682291666,63.0,95.0
50,61.80704463958333,62.2509199625,67.0,93.0
51,62.360447639583334,63.24243367083333,67.0,100.0
52,64.02065663958334,64.16246615833333,65.0,96.0
53,64.29735813958334,64.47260242291667,67.0,93.0
54,64.57405963958333,64.82770268125,70.0,107.0
55,64.85076113958333,65.11362756458333,72.0,100.0
56,65.12746263958333,65.43529305833333,70.0,99.0
57,65.40416413958333,65.65550133541666,72.0,95.0
58,65.68086563958333,66.15586988125,70.0,117.0
59,66.51097013958334,66.920257775,65.0,100.0
60,67.06437313958334,67.20502973541666,67.0,97.0
61,67.34107463958333,67.82876103333334,67.0,93.0
62,67.89447763958333,68.43981017916667,63.0,96.0
63,69.00128363958333,69.23647991458333,63.0,102.0
64,69.27798513958334,69.56506294583333,60.0,69.0
65,69.55468663958334,69.85444659791666,63.0,90.0
66,69.83138813958332,70.13345394375,60.0,78.0
67,70.10808963958333,70.42975513333333,63.0,97.0
68,70.66149263958333,70.87132461041666,65.0,100.0
69,70.93819413958333,71.06962735208333,67.0,112.0
70,71.07654488958333,71.20567225625,65.0,79.0
71,71.21489563958333,72.47042869583333,63.0,117.0
72,75.64211963958333,75.97762020833333,67.0,99.0
73,75.91882113958333,76.05371312083334,70.0,102.0
74,76.19552263958333,76.44340106666667,72.0,112.0
75,76.47222413958333,76.62440996458334,70.0,99.0
76,76.74892563958333,77.05906190416667,72.0,117.0
77,77.30232863958334,77.69432243125,67.0,122.0
78,77.85573163958333,78.50367431875,65.0,127.0
79,78.40913463958333,78.80919889166667,70.0,127.0
80,78.96253763958333,79.52977571458334,70.0,127.0
81,80.06934363958334,80.23190577083334,63.0,117.0
82,80.34604513958332,80.4855488125,65.0,89.0
83,80.62274663958333,80.79914384583333,67.0,90.0
84,80.89944813958333,81.03664596666667,65.0,95.0
85,81.17614963958333,81.47590959791667,67.0,92.0
86,81.72955263958333,82.16305165625,58.0,97.0
87,82.28295563958334,82.86864048125,60.0,97.0
88,82.83635863958334,83.21682320208333,65.0,100.0
89,83.38976163958333,83.92241202708333,65.0,102.0
90,84.49656763958333,84.81131559583334,67.0,107.0
91,84.77326913958333,84.93583127083333,70.0,97.0
92,85.04997063958334,85.28977860625,72.0,100.0
93,85.32667213958334,85.49269303958333,70.0,112.0
94,85.60337363958332,85.90313359791666,72.0,122.0
95,86.15677663958333,86.593734425,75.0,117.0
96,86.71017963958333,87.24744171875,70.0,117.0
97,87.26358263958333,87.52068445,67.0,93.0
98,87.54028413958333,87.7697158,65.0,97.0
99,87.81698563958334,88.4822221625,63.0,100.0
100,88.92379163958333,89.14399991666666,63.0,117.0
101,89.20049313958333,89.34230265833332,60.0,88.0
102,89.47719463958333,89.63283923333333,63.0,107.0
103,89.75389613958333,89.96372811041667,60.0,85.0
104,90.03059763958333,90.43527358333333,63.0,127.0
105,90.58400063958334,90.85839629374999,65.0,112.0
106,90.86070213958332,91.10512179791667,67.0,95.0
107,91.13740363958333,92.07703581666667,65.0,102.0
108,93.35101563958334,93.68651620833333,67.0,99.0
109,93.62771713958332,93.76260912083333,70.0,102.0
110,93.90441863958333,94.15229706666666,72.0,112.0
111,94.18112013958333,94.33330596458333,70.0,99.0
112,94.45782163958333,94.76795790416666,72.0,117.0
113,95.01122463958333,95.40321843125,67.0,122.0
114,95.56462763958334,96.21257031875,65.0,127.0
115,96.11803063958332,96.51809489166666,70.0,127.0
116,96.67143363958333,97.23867171458333,70.0,127.0
117,97.77823963958333,97.94080177083333,63.0,117.0
118,98.05494113958333,98.1944448125,65.0,89.0
119,98.33164263958334,98.50803984583334,67.0,90.0
120,98.60834413958334,98.74554196666666,65.0,95.0
121,98.88504563958332,99.18480559791666,67.0,92.0
122,99.43844863958333,99.87194765625,58.0,97.0
123,99.99185163958333,100.57753648125,60.0,97.0
124,100.54525463958333,100.92571920208333,65.0,100.0
125,101.09865763958334,101.63130802708334,65.0,102.0
126,102.20546363958333,102.52021159583333,67.0,107.0
127,102.48216513958333,102.64472727083333,70.0,97.0
128,102.75886663958333,102.99867460624999,72.0,100.0
129,103.03556813958333,103.20158903958333,70.0,112.0
130,103.31226963958333,103.61202959791666,72.0,122.0
131,103.86567263958334,104.302630425,75.0,117.0
132,104.41907563958333,104.95633771874999,70.0,117.0
133,104.97247863958333,105.22958045,67.0,93.0
134,105.24918013958333,105.4786118,65.0,97.0
135,105.52588163958333,106.1911181625,63.0,100.0
136,106.63268763958332,106.85289591666667,63.0,117.0
137,106.90938913958333,107.05119865833333,60.0,88.0
138,107.18609063958333,107.34173523333332,63.0,107.0
139,107.46279213958333,107.67262411041666,60.0,85.0
140,107.73949363958333,108.14416958333334,63.0,127.0
141,108.29289663958333,108.56729229375,65.0,112.0
142,108.56959813958333,108.81401779791666,67.0,95.0
143,108.84629963958334,109.78593181666666,65.0,102.0
144,110.50650863958333,110.71979937916666,58.0,102.0
145,110.78321013958333,110.97574826666667,60.0,90.0
146,111.05991163958333,112.26702193333333,63.0,112.0
147,137.06985263958333,137.33156614166666,58.0,107.0
148,137.34655413958333,137.56445657083333,60.0,83.0
149,137.62325563958333,137.84461683958332,63.0,112.0
150,138.17665863958334,138.45336013958334,63.0,127.0
151,138.45336013958334,138.65973334166665,62.0,83.0
152,138.73006163958334,139.111679125,63.0,112.0
153,139.28346463958334,139.79420949166666,70.0,102.0
154,139.83686763958332,140.77304104791665,63.0,107.0
155,141.49707663958333,141.65963877083334,58.0,107.0
156,141.77377813958333,141.95593996041666,60.0,79.0
157,142.05047963958333,142.42633251041667,63.0,99.0
158,142.60388263958333,142.70764570208334,63.0,112.0
159,142.88058413958333,142.9993352,62.0,82.0
160,143.15728563958334,143.49855082291666,63.0,95.0
161,143.71068863958334,144.1545639625,67.0,93.0
162,144.26409163958334,145.14607767083334,67.0,100.0
163,145.92430063958332,146.06611015833332,65.0,96.0
164,146.20100213958332,146.37624642291667,67.0,93.0
165,146.47770363958332,146.73134668125,70.0,107.0
166,146.75440513958333,147.01727156458333,72.0,100.0
167,147.03110663958333,147.33893705833333,70.0,99.0
168,147.30780813958333,147.55914533541667,72.0,95.0
169,147.58450963958333,148.05951388124998,70.0,117.0
170,148.41461413958334,148.823901775,65.0,100.0
171,148.96801713958334,149.10867373541666,67.0,97.0
172,149.24471863958334,149.73240503333332,67.0,93.0
173,149.79812163958334,150.34345417916666,63.0,96.0
174,150.90492763958332,151.14012391458334,63.0,102.0
175,151.18162913958332,151.46870694583333,60.0,69.0
176,151.45833063958332,151.75809059791666,63.0,90.0
177,151.73503213958332,152.03709794374998,60.0,78.0
178,152.01173363958333,152.33339913333333,63.0,97.0
179,152.56513663958333,152.8014858375,60.0,95.0
180,152.84183813958333,152.99402396458333,62.0,93.0
181,152.98018888958333,153.112775025,60.0,86.0
182,153.11853963958333,154.32680285625,58.0,89.0
183,154.77874863958334,155.04046214166667,58.0,107.0
184,155.05545013958334,155.27335257083334,60.0,83.0
185,155.33215163958332,155.55351283958333,63.0,112.0
186,155.88555463958332,156.16225613958332,63.0,127.0
187,156.16225613958332,156.36862934166666,62.0,83.0
188,156.43895763958332,156.820575125,63.0,112.0
189,156.99236063958332,157.50310549166667,70.0,102.0
190,157.54576363958333,158.48193704791666,63.0,107.0
191,159.20597263958334,159.36853477083332,58.0,107.0
192,159.48267413958334,159.66483596041667,60.0,79.0
193,159.75937563958334,160.13522851041665,63.0,99.0
194,160.31277863958334,160.41654170208332,63.0,112.0
195,160.58948013958332,160.7082312,62.0,82.0
196,160.86618163958332,161.20744682291667,63.0,95.0
197,161.41958463958332,161.8634599625,67.0,93.0
198,161.97298763958332,162.85497367083332,67.0,100.0
199,163.63319663958333,163.77500615833333,65.0,96.0
200,163.90989813958333,164.08514242291668,67.0,93.0
201,164.18659963958333,164.44024268125,70.0,107.0
202,164.46330113958334,164.72616756458333,72.0,100.0
203,164.74000263958334,165.04783305833334,70.0,99.0
204,165.01670413958334,165.26804133541665,72.0,95.0
205,165.29340563958334,165.76840988125,70.0,117.0
206,166.12351013958332,166.532797775,65.0,100.0
207,166.67691313958332,166.81756973541667,67.0,97.0
208,166.95361463958332,167.44130103333333,67.0,93.0
209,167.50701763958332,168.05235017916667,63.0,96.0
210,168.61382363958333,168.84901991458332,63.0,102.0
211,168.89052513958333,169.17760294583334,60.0,69.0
212,169.16722663958333,169.46698659791667,63.0,90.0
213,169.44392813958333,169.74599394375,60.0,78.0
214,169.72062963958334,170.04229513333334,63.0,97.0
215,170.27403263958334,170.48386461041667,65.0,100.0
216,170.55073413958334,170.68216735208333,67.0,112.0
217,170.68908488958334,170.81821225625,65.0,79.0
218,170.82743563958334,172.08296869583333,63.0,117.0
219,175.25465963958334,175.59016020833332,67.0,99.0
220,175.53136113958334,175.66625312083332,70.0,102.0
221,175.80806263958334,176.05594106666666,72.0,112.0
222,176.08476413958334,176.23694996458332,70.0,99.0
223,176.36146563958332,176.67160190416666,72.0,117.0
224,176.91486863958332,177.30686243124998,67.0,122.0
225,177.46827163958332,178.11621431875,65.0,127.0
226,178.02167463958332,178.42173889166665,70.0,127.0
227,178.57507763958333,179.14231571458333,70.0,127.0
228,179.68188363958333,179.84444577083332,63.0,117.0
229,179.95858513958333,180.0980888125,65.0,89.0
230,180.23528663958334,180.41168384583332,67.0,90.0
231,180.51198813958334,180.64918596666666,65.0,95.0
232,180.78868963958334,181.08844959791665,67.0,92.0
233,181.34209263958334,181.77559165625,58.0,97.0
234,181.89549563958332,182.48118048125,60.0,97.0
235,182.44889863958332,182.82936320208333,65.0,100.0
236,183.00230163958332,183.53495202708334,65.0,102.0
237,184.10910763958333,184.42385559583332,67.0,107.0
238,184.38580913958333,184.54837127083331,70.0,97.0
239,184.66251063958333,184.90231860625,72.0,100.0
240,184.93921213958333,185.10523303958334,70.0,112.0
241,185.21591363958333,185.51567359791667,72.0,122.0
242,185.76931663958334,186.206274425,75.0,117.0
243,186.32271963958334,186.85998171875,70.0,117.0
244,186.87612263958331,187.13322445,67.0,93.0
245,187.15282413958332,187.3822558,65.0,97.0
246,187.42952563958332,188.0947621625,63.0,100.0
247,188.53633163958332,188.75653991666667,63.0,117.0
248,188.81303313958333,188.95484265833332,60.0,88.0
249,189.08973463958333,189.24537923333332,63.0,107.0
250,189.36643613958333,189.57626811041666,60.0,85.0
251,189.64313763958333,190.04781358333332,63.0,127.0
252,190.19654063958333,190.47093629375,65.0,112.0
253,190.47324213958333,190.71766179791666,67.0,95.0
254,190.74994363958334,191.68957581666666,65.0,102.0
255,192.96355563958332,193.29905620833333,67.0,99.0
256,193.24025713958332,193.37514912083333,70.0,102.0
257,193.51695863958332,193.76483706666667,72.0,112.0
258,193.79366013958332,193.94584596458333,70.0,99.0
259,194.07036163958333,194.38049790416667,72.0,117.0
260,194.62376463958333,195.01575843125,67.0,122.0
261,195.17716763958333,195.82511031875,65.0,127.0
262,195.73057063958333,196.13063489166666,70.0,127.0
263,196.28397363958334,196.85121171458331,70.0,127.0
264,197.39077963958331,197.55334177083333,63.0,117.0
265,197.66748113958332,197.8069848125,65.0,89.0
266,197.94418263958332,198.12057984583333,67.0,90.0
267,198.22088413958332,198.35808196666667,65.0,95.0
268,198.49758563958332,198.79734559791666,67.0,92.0
269,199.05098863958332,199.48448765625,58.0,97.0
270,199.60439163958333,200.19007648125,60.0,97.0
271,200.15779463958333,200.53825920208334,65.0,100.0
272,200.71119763958333,201.24384802708332,65.0,102.0
273,201.81800363958334,202.13275159583333,67.0,107.0
274,202.09470513958334,202.25726727083332,70.0,97.0
275,202.37140663958334,202.61121460625,72.0,100.0
276,202.64810813958331,202.81412903958332,70.0,112.0
277,202.92480963958332,203.22456959791666,72.0,122.0
278,203.47821263958332,203.91517042499999,75.0,117.0
279,204.03161563958332,204.56887771875,70.0,117.0
280,204.58501863958332,204.84212044999998,67.0,93.0
281,204.86172013958333,205.0911518,65.0,97.0
282,205.13842163958333,205.8036581625,63.0,100.0
283,206.24522763958333,206.46543591666665,63.0,117.0
284,206.52192913958334,206.66373865833333,60.0,88.0
285,206.79863063958334,206.95427523333333,63.0,107.0
286,207.07533213958334,207.28516411041667,60.0,85.0
287,207.35203363958334,207.75670958333333,63.0,127.0
288,207.90543663958331,208.17983229375,65.0,112.0
289,208.18213813958332,208.42655779791667,67.0,95.0
290,208.45883963958332,209.39847181666667,65.0,102.0
291,210.11904863958333,210.33233937916665,58.0,102.0
292,210.39575013958333,210.58828826666667,60.0,90.0
293,210.67245163958333,211.87956193333332,63.0,112.0
294,212.88606363958334,213.22156420833332,67.0,99.0
295,213.1627651395833,213.29765712083332,70.0,102.0
296,213.43946663958332,213.68734506666667,72.0,112.0
297,213.71616813958332,213.86835396458332,70.0,99.0
298,213.99286963958332,214.30300590416667,72.0,117.0
299,214.54627263958332,214.93826643124999,67.0,122.0
300,215.09967563958332,215.74761831875,65.0,127.0
301,215.65307863958333,216.05314289166665,70.0,127.0
302,216.20648163958333,216.77371971458334,70.0,127.0
303,217.31328763958334,217.47584977083332,63.0,117.0
304,217.58998913958334,217.72949281249998,65.0,89.0
305,217.86669063958334,218.04308784583333,67.0,90.0
306,218.14339213958334,218.28058996666667,65.0,95.0
307,218.4200936395833,218.71985359791665,67.0,92.0
308,218.97349663958332,219.40699565625,58.0,97.0
309,219.52689963958332,220.11258448125,60.0,97.0
310,220.08030263958332,220.46076720208333,65.0,100.0
311,220.63370563958333,221.16635602708334,65.0,102.0
312,221.74051163958333,222.05525959583332,67.0,107.0
313,222.01721313958333,222.17977527083332,70.0,97.0
314,222.29391463958333,222.53372260625,72.0,100.0
315,222.57061613958334,222.73663703958331,70.0,112.0
316,222.84731763958334,223.14707759791665,72.0,122.0
317,223.40072063958334,223.837678425,75.0,117.0
318,223.95412363958332,224.49138571875,70.0,117.0
319,224.50752663958332,224.76462845,67.0,93.0
320,224.78422813958332,225.0136598,65.0,97.0
321,225.06092963958332,225.7261661625,63.0,100.0
322,226.16773563958333,226.38794391666667,63.0,117.0
323,226.44443713958333,226.58624665833332,60.0,88.0
324,226.72113863958333,226.87678323333333,63.0,107.0
325,226.99784013958333,227.20767211041667,60.0,85.0
326,227.27454163958333,227.67921758333333,63.0,127.0
327,227.82794463958334,228.10234029375,65.0,112.0
328,228.10464613958334,228.34906579791667,67.0,95.0
329,228.38134763958334,229.32097981666666,65.0,102.0
330,230.59495963958332,230.93046020833333,67.0,99.0
331,230.87166113958332,231.00655312083333,70.0,102.0
332,231.14836263958333,231.39624106666665,72.0,112.0
333,231.42506413958333,231.57724996458333,70.0,99.0
334,231.70176563958333,232.01190190416665,72.0,117.0
335,232.25516863958333,232.64716243125,67.0,122.0
336,232.80857163958333,233.45651431874998,65.0,127.0
337,233.36197463958334,233.76203889166666,70.0,127.0
338,233.91537763958334,234.48261571458332,70.0,127.0
339,235.02218363958332,235.18474577083333,63.0,117.0
340,235.29888513958332,235.4383888125,65.0,89.0
341,235.57558663958332,235.75198384583334,67.0,90.0
342,235.85228813958332,235.98948596666665,65.0,95.0
343,236.12898963958332,236.42874959791666,67.0,92.0
344,236.68239263958333,237.11589165625,58.0,97.0
345,237.23579563958333,237.82148048125,60.0,97.0
346,237.78919863958333,238.1696632020833,65.0,100.0
347,238.34260163958334,238.87525202708332,65.0,102.0
348,239.4494076395833,239.76415559583333,67.0,107.0
349,239.72610913958331,239.88867127083333,70.0,97.0
350,240.00281063958332,240.24261860625,72.0,100.0
351,240.27951213958332,240.44553303958332,70.0,112.0
352,240.55621363958332,240.85597359791666,72.0,122.0
353,241.10961663958332,241.546574425,75.0,117.0
354,241.66301963958333,242.20028171875,70.0,117.0
355,242.21642263958333,242.47352444999999,67.0,93.0
356,242.49312413958333,242.72255579999998,65.0,97.0
357,242.76982563958333,243.4350621625,63.0,100.0
358,243.87663163958334,244.09683991666665,63.0,117.0
359,244.15333313958334,244.29514265833333,60.0,88.0
360,244.43003463958334,244.58567923333334,63.0,107.0
361,244.7067361395833,244.91656811041665,60.0,85.0
362,244.98343763958331,245.38811358333334,63.0,127.0
363,245.53684063958332,245.81123629375,65.0,112.0
364,245.81354213958332,246.05796179791665,67.0,95.0
365,246.09024363958332,247.02987581666665,65.0,102.0
366,247.75045263958333,247.96374337916666,58.0,102.0
367,248.02715413958333,248.21969226666667,60.0,90.0
368,248.30385563958333,249.51096593333332,63.0,112.0
369,252.75413809791667,253.05159221041666,63.0,90.0
370,253.057356825,253.26834171874998,60.0,76.0
371,253.36518724375,253.61883028541666,63.0,92.0
372,253.66033551041667,253.93818993333332,60.0,78.0
373,253.95433085416667,254.93546825625,63.0,96.0
374,254.9596796375,255.69524445833332,67.0,89.0
375,255.69639738125,257.4177112958333,65.0,92.0
376,258.74933726458335,259.33617502916667,58.0,78.0
377,259.30274026458335,259.8434611125,60.0,69.0
378,259.7869678895833,262.80762593125,63.0,82.0
