,start,end,pitch,velocity
0,20.301819639583332,20.962444470833333,44.0,86.0
1,20.578521139583334,20.986655852083334,51.0,35.0
2,21.131924139583333,21.2714278125,44.0,86.0
3,20.85522263958333,21.71299728958333,68.0,96.0
4,20.85522263958333,21.7487379,63.0,88.0
5,21.408625639583335,22.013910170833334,44.0,97.0
6,21.685327139583332,22.04273324375,60.0,73.0
7,21.962028639583334,22.398986425,63.0,83.0
8,21.962028639583334,22.407056885416665,68.0,117.0
9,22.238730139583332,22.481996875,60.0,82.0
10,22.515431639583333,23.2221733875,43.0,85.0
11,22.79213313958333,23.255608152083333,50.0,58.0
12,23.345536139583334,23.425087820833333,43.0,45.0
13,23.068834639583333,23.95889113125,62.0,90.0
14,23.068834639583333,24.019996045833334,58.0,100.0
15,23.898939139583334,24.247121860416666,50.0,69.0
16,23.622237639583332,24.303615083333334,43.0,66.0
17,24.17564063958333,24.629892268749998,62.0,79.0
18,24.17564063958333,24.7717017875,58.0,99.0
19,24.452342139583333,24.865088543749998,55.0,83.0
20,24.72904363958333,25.370068781249998,48.0,82.0
21,25.559148139583332,25.65368781875,48.0,95.0
22,25.005745139583333,25.88888409375,55.0,82.0
23,25.282446639583334,26.084880989583333,60.0,85.0
24,26.11255113958333,26.454969245833333,55.0,88.0
25,26.389252639583333,26.747811666666667,63.0,112.0
26,26.389252639583333,26.7916227375,60.0,96.0
27,25.835849639583333,26.82275165625,48.0,102.0
28,26.665954139583334,26.92305595,55.0,90.0
29,27.219357139583334,27.63095062083333,53.0,88.0
30,27.49605863958333,27.83155920833333,56.0,96.0
31,26.942655639583332,27.841935514583334,41.0,89.0
32,27.49605863958333,27.869605664583332,60.0,88.0
33,27.772760139583333,28.13016624375,53.0,89.0
34,28.04946163958333,28.530230495833333,46.0,107.0
35,28.326163139583333,28.708933547916665,53.0,92.0
36,28.602864639583334,29.030599041666665,62.0,97.0
37,28.602864639583334,29.083633495833332,58.0,102.0
38,28.879566139583332,29.095162724999998,53.0,92.0
39,29.43296913958333,29.809974933333333,51.0,73.0
40,29.156267639583334,29.819198316666665,39.0,92.0
41,29.98637213958333,30.117805352083334,39.0,89.0
42,29.709670639583333,30.335707783333334,55.0,52.0
43,29.709670639583333,30.38528346875,58.0,117.0
44,30.401424389583333,30.618173897916666,51.0,35.0
45,30.263073639583332,30.75883049375,39.0,56.0
46,30.539775139583334,31.236140581249998,63.0,96.0
47,30.539775139583334,31.353738718749998,58.0,97.0
48,31.093178139583333,31.779167275,55.0,77.0
49,31.36987963958333,32.046645391666665,43.0,89.0
50,31.646581139583333,32.11351492083333,50.0,67.0
51,31.923282639583334,32.42134533958333,62.0,85.0
52,32.199984139583336,32.47207394791666,43.0,81.0
53,31.923282639583334,32.52164963333333,58.0,93.0
54,32.75338713958333,33.1004169375,55.0,85.0
55,33.03008863958333,33.423235354166664,63.0,96.0
56,33.03008863958333,33.44283504375,60.0,90.0
57,32.47668563958333,33.45436427291666,48.0,93.0
58,33.306790139583335,33.56043318125,55.0,90.0
59,33.58349163958333,34.29599800208333,41.0,89.0
60,33.86019313958333,34.297150925,48.0,71.0
61,34.13689463958333,34.882835766666666,56.0,89.0
62,34.13689463958333,34.925493914583335,60.0,79.0
63,34.41359613958333,35.22871264166667,41.0,93.0
64,34.690297639583335,35.292123402083334,48.0,112.0
65,34.96699913958333,35.30826432291666,53.0,89.0
66,35.24370063958333,35.55960151875,56.0,107.0
67,35.24370063958333,35.569977825,60.0,93.0
68,35.52040213958333,35.75329256875,53.0,90.0
69,35.797103639583334,37.57145200833333,46.0,96.0
70,35.797103639583334,37.73747290833333,62.0,95.0
71,35.797103639583334,37.74439044583333,58.0,102.0
72,38.28741713958333,38.641364474999996,46.0,37.0
73,38.01071563958333,38.65174078125,39.0,95.0
74,38.84082013958333,38.972253352083335,39.0,83.0
75,39.11752163958333,39.79889908333333,39.0,67.0
76,39.39422313958333,39.92341475833333,51.0,95.0
77,38.564118639583334,40.21049256458333,63.0,88.0
78,39.947626139583335,40.28427963125,58.0,72.0
79,39.67092463958333,40.29350301458333,55.0,81.0
80,40.22432763958333,40.89302293125,48.0,66.0
81,41.054432139583334,41.17548904583333,48.0,74.0
82,40.50102913958333,41.44066131666666,55.0,56.0
83,41.331133639583335,41.74272712083333,48.0,74.0
84,41.60783513958333,41.96985293541667,55.0,85.0
85,41.88453663958333,42.33648242291667,60.0,76.0
86,42.16123813958333,42.379140570833336,55.0,73.0
87,40.77773063958333,42.42179871875,63.0,82.0
88,42.437939639583334,43.10548200833333,44.0,70.0
89,42.714641139583335,43.197715841666664,51.0,60.0
90,42.99134263958333,43.21731553125,56.0,51.0
91,43.26804413958333,43.3660425875,44.0,79.0
92,42.99134263958333,43.921751433333334,60.0,69.0
93,42.99134263958333,43.93904527708333,63.0,90.0
94,43.40639488958333,44.120054175,44.0,72.0
95,43.821447139583334,44.22035846875,51.0,36.0
96,44.09814863958333,44.62157564375,60.0,76.0
97,44.37485013958333,44.62618733541667,56.0,57.0
98,44.09814863958333,44.699974402083335,63.0,82.0
99,44.92825313958333,45.35368169583333,51.0,68.0
100,44.65155163958333,45.35714046458333,39.0,76.0
101,45.48165613958333,45.57273705,39.0,88.0
102,45.204954639583335,45.62461858125,55.0,57.0
103,45.204954639583335,46.08694067083333,58.0,60.0
104,45.204954639583335,46.10077574583333,63.0,63.0
105,45.75835763958333,46.307148947916666,39.0,90.0
106,46.03505913958333,46.45472308125,51.0,96.0
107,46.31176063958333,46.88476332916667,63.0,100.0
108,46.17340988958333,46.923962708333335,58.0,86.0
109,46.588462139583335,47.081913147916666,55.0,67.0
110,46.86516363958333,47.498118320833335,43.0,76.0
111,47.14186513958333,47.58804630833333,50.0,59.0
112,47.695268139583334,47.807101662499996,43.0,88.0
113,48.24867113958333,48.64758246875,50.0,75.0
114,47.971969639583335,48.65565292916666,43.0,77.0
115,47.41856663958333,49.04649379791667,62.0,96.0
116,48.52537263958333,49.1767740875,55.0,93.0
117,48.80207413958333,49.179079933333334,58.0,72.0
118,49.078775639583334,49.6402491,36.0,85.0
119,49.35547713958333,49.73594170208333,55.0,77.0
120,49.63217863958333,50.118712110416666,63.0,96.0
121,49.63217863958333,50.11986503333333,60.0,78.0
122,49.90888013958333,50.24092193958333,55.0,74.0
123,50.04723088958333,51.00646275625,41.0,72.0
124,50.73898463958333,51.1344372,56.0,83.0
125,50.462283139583334,51.194389191666666,48.0,73.0
126,51.01568613958333,51.302763945833334,53.0,49.0
127,50.73898463958333,51.3212107125,60.0,76.0
128,51.15403688958333,52.14209182916667,41.0,66.0
129,51.56908913958333,52.32886534166666,48.0,70.0
130,51.845790639583335,52.794646199999995,57.0,72.0
131,51.845790639583335,52.806175429166665,60.0,72.0
132,52.12249213958333,52.83038681041666,53.0,55.0
133,52.67589513958333,53.145134766666665,41.0,69.0
134,52.952596639583334,53.37917811875,57.0,75.0
135,52.952596639583334,53.41261288333333,60.0,79.0
136,53.229298139583335,53.569410399999995,53.0,59.0
137,53.50599963958333,54.224270616666665,46.0,92.0
138,54.336104139583334,54.443325970833335,46.0,81.0
139,53.78270113958333,54.70042778125,53.0,59.0
140,54.05940263958333,54.82379053333333,62.0,85.0
141,54.05940263958333,54.84684899166667,58.0,72.0
142,54.61280563958333,55.117785877083335,46.0,88.0
143,54.75115638958333,55.58933135,53.0,78.0
144,55.16620863958333,55.64928334166667,62.0,100.0
145,55.44291013958333,55.98247806458333,58.0,67.0
146,55.99631313958333,56.38369523958333,51.0,81.0
147,55.719611639583334,56.386001085416666,39.0,86.0
148,56.54971613958333,56.663855508333334,39.0,74.0
149,56.27301463958333,57.27605757708333,63.0,99.0
150,56.82641763958333,57.573511689583334,39.0,78.0
151,57.103119139583335,57.612711068749995,51.0,92.0
152,57.37982063958333,58.028916241666664,63.0,99.0
153,57.65652213958333,58.038139625,55.0,81.0
154,57.37982063958333,58.0588922375,58.0,95.0
155,57.93322363958333,58.59038970208333,48.0,73.0
156,58.76332813958333,58.85786781875,48.0,72.0
157,58.20992513958333,58.92819611666666,55.0,81.0
158,58.486626639583335,59.05155886875,63.0,89.0
159,58.486626639583335,59.065393943749996,60.0,81.0
160,59.04002963958333,59.45277604375,48.0,81.0
161,59.31673113958333,60.08457780208333,55.0,85.0
162,59.87013413958333,60.09495410833333,60.0,58.0
163,59.593432639583334,60.12723595,63.0,97.0
164,60.14683563958333,60.784402012499996,44.0,69.0
165,60.42353713958333,60.79708416458333,51.0,31.0
166,60.976940139583334,61.096844122916664,44.0,66.0
167,60.70023863958333,61.685987733333334,68.0,79.0
168,60.70023863958333,61.72403418958333,63.0,85.0
169,61.53034313958333,61.884290475,56.0,90.0
170,61.25364163958333,61.95692461875,44.0,74.0
171,61.80704463958333,62.294731033333335,68.0,97.0
172,61.80704463958333,62.31894241458333,63.0,96.0
173,62.08374613958333,62.363906408333335,60.0,72.0
174,62.222096889583334,62.94959125,39.0,82.0
175,62.63714913958333,63.06488354166667,51.0,76.0
176,63.19055213958333,63.304691508333335,39.0,81.0
177,62.91385063958333,63.867317891666666,58.0,76.0
178,62.91385063958333,63.87192958333333,63.0,83.0
179,63.46725363958333,64.05985601875,39.0,75.0
180,63.743955139583335,64.15439569791667,51.0,90.0
181,64.02065663958334,64.53140149166667,63.0,100.0
182,64.02065663958334,64.59250640625,58.0,112.0
183,64.29735813958334,64.64899962916667,55.0,72.0
184,64.57405963958333,65.25197831458333,43.0,79.0
185,64.85076113958333,65.301554,50.0,52.0
186,65.40416413958333,65.53098566041666,43.0,83.0
187,65.12746263958333,66.06478897083333,62.0,83.0
188,65.12746263958333,66.09130619791667,58.0,90.0
189,65.68086563958333,66.29883232291667,43.0,89.0
190,65.95756713958333,66.36454892916666,50.0,90.0
191,66.23426863958333,66.60320397291666,62.0,92.0
192,66.23426863958333,66.8579999375,58.0,117.0
193,66.51097013958334,66.89604639375,55.0,76.0
194,67.06437313958334,67.43676724166666,55.0,79.0
195,66.78767163958334,67.5220835375,48.0,92.0
196,67.34107463958333,67.7296096625,63.0,107.0
197,67.34107463958333,67.74229181458333,60.0,97.0
198,67.61777613958333,67.84720779999999,48.0,86.0
199,67.75612688958333,68.66232430208333,41.0,67.0
200,68.58623138958333,68.83756858541666,53.0,69.0
201,68.17117913958333,68.83987443125,48.0,93.0
202,68.44788063958333,68.88945011666667,56.0,93.0
203,68.44788063958333,68.91481442083334,60.0,85.0
204,68.86293288958333,69.6734377,41.0,78.0
205,69.27798513958334,69.89018720833333,48.0,59.0
206,69.55468663958334,69.92592781875,57.0,90.0
207,69.55468663958334,69.93976289375,60.0,92.0
208,69.83138813958332,70.15997117083333,53.0,69.0
209,69.96973888958333,70.48048374166666,46.0,85.0
210,70.24644038958333,70.61768156875,53.0,81.0
211,70.93819413958333,70.99353443958333,46.0,27.0
212,70.66149263958333,71.09037996458333,62.0,96.0
213,70.66149263958333,71.13073226666667,58.0,107.0
214,70.93819413958333,71.14226149583334,53.0,89.0
215,71.76829863958334,72.3920299375,51.0,96.0
216,72.04500013958334,72.40471208958333,55.0,95.0
217,72.32170163958334,72.97886770208333,58.0,93.0
218,71.07654488958333,73.3258975,39.0,93.0
219,72.59840313958333,73.38239072291667,51.0,95.0
220,71.49159713958333,73.38930826041667,46.0,35.0
221,72.87510463958333,73.39737872083333,55.0,107.0
222,73.15180613958333,73.41697841041666,58.0,112.0
223,72.32170163958334,73.43427225416667,63.0,127.0
224,73.70520913958333,73.84932450416666,51.0,107.0
225,73.70520913958333,73.8585478875,39.0,97.0
226,74.25861213958333,74.38773950625,41.0,89.0
227,74.25861213958333,74.38889242916666,53.0,100.0
228,74.81201513958334,74.92038989375,43.0,97.0
229,74.81201513958334,74.93422496875,55.0,112.0
230,75.50376888958333,76.2105106375,44.0,102.0
231,76.05717188958333,76.26700386041666,51.0,24.0
232,75.91882113958333,76.33156754375,56.0,81.0
233,76.19552263958333,77.11094343541666,63.0,99.0
234,76.19552263958333,77.12131974166667,68.0,93.0
235,76.88727638958333,77.41992677708333,56.0,85.0
236,76.47222413958333,77.6078532125,44.0,95.0
237,77.30232863958334,77.86956671458333,68.0,112.0
238,77.30232863958334,77.90646024791667,63.0,127.0
239,77.57903013958334,77.9260599375,60.0,95.0
240,78.68583613958333,78.88644472708333,62.0,99.0
241,78.68583613958333,78.89797395625,58.0,102.0
242,78.40913463958333,78.89912687916666,55.0,64.0
243,78.13243313958333,79.09973546666666,50.0,96.0
244,79.23923913958333,79.53438740625,50.0,83.0
245,78.96253763958333,79.57589263125,58.0,127.0
246,77.85573163958333,79.58742186041667,43.0,83.0
247,78.96253763958333,80.03360302916667,62.0,107.0
248,79.79264213958334,80.063579025,58.0,122.0
249,79.51594063958333,80.32990421875,55.0,107.0
250,80.89944813958333,81.24532501458333,55.0,100.0
251,80.62274663958333,81.26377178125,48.0,93.0
252,80.06934363958334,81.668447725,36.0,93.0
253,80.34604513958332,81.71225879583334,43.0,52.0
254,81.17614963958333,81.77682247916667,60.0,97.0
255,81.45285113958333,82.20570980416666,48.0,95.0
256,82.00625413958333,82.31523748125,60.0,93.0
257,81.17614963958333,82.37518947291666,63.0,107.0
258,81.72955263958333,82.37634239583333,55.0,102.0
259,82.28295563958334,82.99315615625,41.0,89.0
260,82.55965713958334,83.08423706666666,48.0,72.0
261,83.11306013958333,83.3217391875,56.0,102.0
262,83.11306013958333,83.33326841666667,60.0,95.0
263,82.83635863958334,83.5085127,53.0,96.0
264,83.38976163958333,84.02386924375,46.0,107.0
265,83.66646313958333,84.02963385833333,53.0,93.0
266,83.94316463958333,84.38127534791667,62.0,102.0
267,83.94316463958333,84.42854518749999,58.0,127.0
268,84.21986613958333,84.4700504125,53.0,93.0
269,85.04997063958334,85.70021916458333,51.0,90.0
270,85.32667213958334,85.70252501041666,55.0,90.0
271,84.77326913958333,86.11411849166666,46.0,33.0
272,84.49656763958333,86.123341875,39.0,88.0
273,85.88007513958333,86.20865817083333,51.0,83.0
274,85.60337363958332,86.24439878125,58.0,107.0
275,85.60337363958332,86.46345413541667,63.0,117.0
276,86.15677663958333,86.74130855833333,55.0,97.0
277,86.43347813958333,86.884271,58.0,100.0
278,86.71017963958333,87.45381492083334,43.0,77.0
279,87.54028413958333,87.76164533958332,62.0,96.0
280,86.98688113958333,87.78009210625,50.0,72.0
281,87.26358263958333,87.90460778125,55.0,95.0
282,87.81698563958334,88.36116525625,48.0,90.0
283,88.09368713958334,88.45224616666667,55.0,95.0
284,88.64709013958333,88.91456825624999,55.0,90.0
285,88.37038863958333,88.94454425208333,63.0,112.0
286,88.37038863958333,88.94800302083333,60.0,95.0
287,89.47719463958333,89.82768320625,53.0,82.0
288,89.75389613958333,89.89224688958333,60.0,65.0
289,89.75389613958333,89.97295149375,56.0,97.0
290,89.20049313958333,90.13897239375,48.0,43.0
291,88.92379163958333,90.57477725625,41.0,64.0
292,90.30729913958334,90.58861233125,48.0,78.0
293,90.03059763958333,90.67969324166667,56.0,85.0
294,90.58400063958334,90.96215935625,53.0,93.0
295,90.86070213958332,91.08782795416667,56.0,88.0
296,90.03059763958333,91.13625071666667,60.0,96.0
297,91.69080663958333,92.12315273333333,58.0,102.0
298,91.96750813958333,92.16926965,65.0,81.0
299,91.96750813958333,92.17849303333333,62.0,95.0
300,91.41410513958333,92.39178377291667,53.0,69.0
301,92.24420963958333,92.60738035833333,62.0,100.0
302,92.24420963958333,92.61083912708332,65.0,99.0
303,92.52091113958333,92.78377756458333,53.0,55.0
304,91.13740363958333,92.85525878541667,46.0,83.0
305,92.79761263958333,93.30028703125,62.0,102.0
306,92.79761263958333,93.30143995416667,65.0,100.0
307,94.18112013958333,94.50163271041666,60.0,72.0
308,93.90441863958333,94.50970317083333,56.0,95.0
309,94.73452313958333,94.95127264791667,56.0,88.0
310,93.62771713958332,94.98816618125,51.0,35.0
311,94.45782163958333,95.09423508958334,63.0,102.0
312,93.35101563958334,95.1299757,44.0,93.0
313,94.45782163958333,95.4966051875,68.0,112.0
314,95.28792613958333,95.57846271458332,63.0,107.0
315,95.01122463958333,95.58883902083333,60.0,107.0
316,96.11803063958332,96.47082505208333,55.0,92.0
317,96.39473213958333,96.59995241875,58.0,107.0
318,95.70297838958334,96.74060901458333,50.0,56.0
319,96.94813513958333,97.09225050416667,50.0,83.0
320,95.56462763958334,97.17526095416666,43.0,86.0
321,96.67143363958333,97.2951649375,58.0,99.0
322,96.67143363958333,97.75056948958333,62.0,93.0
323,97.50153813958333,97.78054548541667,58.0,127.0
324,97.22483663958333,98.47229923541667,55.0,97.0
325,98.60834413958334,98.98419701041666,55.0,96.0
326,98.33164263958334,99.02109054374999,48.0,72.0
327,98.05494113958333,99.39117879999999,43.0,45.0
328,97.77823963958333,99.42230771874999,36.0,86.0
329,99.16174713958333,99.79124305208333,48.0,86.0
330,98.88504563958332,99.92613503333332,63.0,127.0
331,99.43844863958333,99.95726395208334,60.0,99.0
332,99.71515013958333,99.99876917708333,55.0,89.0
333,99.99185163958333,100.62826508958334,41.0,82.0
334,100.26855313958333,100.69974631041666,48.0,81.0
335,100.54525463958333,100.92341335625,56.0,96.0
336,100.54525463958333,100.97068319583333,60.0,93.0
337,100.82195613958334,101.21510285416666,53.0,86.0
338,101.09865763958334,101.69010709583333,46.0,95.0
339,101.65206063958333,102.20546363958333,62.0,112.0
340,101.37535913958332,102.22506332916666,53.0,93.0
341,101.92876213958333,102.24696886458334,58.0,100.0
342,102.75886663958333,103.38490378333333,51.0,88.0
343,102.48216513958333,103.66736989791666,46.0,39.0
344,103.03556813958333,103.69504004791666,55.0,77.0
345,102.20546363958333,103.71809850625,39.0,74.0
346,103.58897113958334,103.86336679375,51.0,79.0
347,103.31226963958333,104.24267843333332,63.0,112.0
348,103.86567263958334,104.39947595,58.0,95.0
349,104.14237413958332,104.4271461,55.0,88.0
350,104.69577713958333,105.10160600625,50.0,90.0
351,104.41907563958333,105.32066136041666,43.0,73.0
352,105.24918013958333,105.49359979791666,62.0,93.0
353,104.97247863958333,105.6377151625,55.0,88.0
354,106.07928463958334,106.51854827083334,63.0,127.0
355,105.80258313958333,106.58311195416667,55.0,90.0
356,105.52588163958333,106.59925287499999,48.0,88.0
357,106.35598613958334,106.61078210416666,60.0,96.0
358,107.04773988958333,107.38785215,53.0,83.0
359,107.46279213958333,107.67377703333334,56.0,86.0
360,106.90938913958333,107.85593885416667,48.0,64.0
361,106.63268763958332,108.24908556874999,41.0,69.0
362,108.01619513958333,108.27675571875,48.0,62.0
363,108.29289663958333,108.82324118125,56.0,92.0
364,107.73949363958333,108.82785287291667,60.0,95.0
365,108.56959813958333,108.840535025,53.0,76.0
366,109.67640413958333,109.93465887291666,62.0,83.0
367,109.39970263958332,109.98538748125,58.0,89.0
368,110.09145638958333,110.168702225,58.0,93.0
369,109.12300113958334,110.27015944166666,53.0,58.0
370,108.84629963958334,110.31973512708333,46.0,86.0
371,109.95310563958333,110.54109632708332,65.0,97.0
372,110.50650863958333,111.00803010833333,62.0,93.0
373,111.05991163958333,111.5314571125,51.0,92.0
374,111.61331463958334,112.34657361458333,51.0,89.0
375,111.89001613958332,112.60136957916666,55.0,69.0
376,111.89001613958332,112.84117754583333,58.0,89.0
377,111.05991163958333,113.11903196875,39.0,48.0
378,111.33661313958333,113.28274702291667,46.0,81.0
379,112.44341913958333,113.295429175,51.0,56.0
380,112.72012063958333,114.00447676875,55.0,65.0
381,111.89001613958332,114.20969704791666,63.0,81.0
382,113.82692663958333,114.49792777708333,51.0,58.0
383,114.65703113958332,114.84149880625,51.0,58.0
384,113.55022513958333,114.84265172916666,46.0,55.0
385,113.13517288958333,114.84611049791667,39.0,77.0
386,112.99682213958333,114.84956926666666,58.0,55.0
387,114.93373263958333,115.28883289791666,58.0,76.0
388,114.93373263958333,115.34186735208333,63.0,96.0
389,114.10362813958334,115.38221965416666,55.0,65.0
390,115.48713563958333,116.228465075,63.0,62.0
391,115.48713563958333,116.27342906874999,60.0,67.0
392,115.34878488958333,117.4667042875,36.0,66.0
393,115.76383713958333,117.77568762916667,43.0,42.0
394,116.04053863958333,118.05815374375,48.0,85.0
395,116.31724013958333,118.43170076874999,63.0,75.0
396,116.31724013958333,118.44322999791666,60.0,72.0
397,115.48713563958333,118.46398261041666,55.0,65.0
398,118.25415063958333,118.85136471041666,48.0,71.0
399,117.70074763958333,119.4312849375,36.0,69.0
400,117.97744913958333,119.45203755,43.0,58.0
401,119.08425513958333,119.48316646875,48.0,66.0
402,119.36095663958334,119.77255012083333,55.0,95.0
403,118.53085213958333,119.80022027083334,60.0,95.0
404,118.53085213958333,119.81636119166666,63.0,102.0
405,119.91435963958332,120.57498447083333,44.0,86.0
406,120.19106113958333,120.59919585208333,51.0,35.0
407,120.74446413958333,120.8839678125,44.0,86.0
408,120.46776263958333,121.32553728958332,68.0,96.0
409,120.46776263958333,121.36127789999999,63.0,88.0
410,121.02116563958333,121.62645017083334,44.0,97.0
411,121.29786713958333,121.65527324375,60.0,73.0
412,121.57456863958333,122.011526425,63.0,83.0
413,121.57456863958333,122.01959688541666,68.0,117.0
414,121.85127013958333,122.094536875,60.0,82.0
415,122.12797163958334,122.8347133875,43.0,85.0
416,122.40467313958332,122.86814815208334,50.0,58.0
417,122.95807613958333,123.03762782083334,43.0,45.0
418,122.68137463958332,123.57143113125,62.0,90.0
419,122.68137463958332,123.63253604583333,58.0,100.0
420,123.51147913958333,123.85966186041667,50.0,69.0
421,123.23477763958333,123.91615508333334,43.0,66.0
422,123.78818063958333,124.24243226875,62.0,79.0
423,123.78818063958333,124.3842417875,58.0,99.0
424,124.06488213958333,124.47762854375,55.0,83.0
425,124.34158363958333,124.98260878125,48.0,82.0
426,125.17168813958332,125.26622781875,48.0,95.0
427,124.61828513958334,125.50142409375,55.0,82.0
428,124.89498663958334,125.69742098958334,60.0,85.0
429,125.72509113958333,126.06750924583334,55.0,88.0
430,126.00179263958333,126.36035166666666,63.0,112.0
431,126.00179263958333,126.4041627375,60.0,96.0
432,125.44838963958333,126.43529165625,48.0,102.0
433,126.27849413958333,126.53559595,55.0,90.0
434,126.83189713958333,127.24349062083333,53.0,88.0
435,127.10859863958333,127.44409920833333,56.0,96.0
436,126.55519563958333,127.45447551458334,41.0,89.0
437,127.10859863958333,127.48214566458333,60.0,88.0
438,127.38530013958334,127.74270624374999,53.0,89.0
439,127.66200163958332,128.14277049583333,46.0,107.0
440,127.93870313958332,128.32147354791667,53.0,92.0
441,128.21540463958334,128.64313904166667,62.0,97.0
442,128.21540463958334,128.69617349583334,58.0,102.0
443,128.49210613958334,128.707702725,53.0,92.0
444,129.04550913958332,129.42251493333333,51.0,73.0
445,128.76880763958334,129.43173831666667,39.0,92.0
446,129.59891213958332,129.73034535208333,39.0,89.0
447,129.32221063958332,129.94824778333333,55.0,52.0
448,129.32221063958332,129.99782346875,58.0,117.0
449,130.01396438958332,130.23071389791667,51.0,35.0
450,129.87561363958332,130.37137049375,39.0,56.0
451,130.15231513958332,130.84868058125,63.0,96.0
452,130.15231513958332,130.96627871875,58.0,97.0
453,130.70571813958333,131.391707275,55.0,77.0
454,130.98241963958333,131.65918539166665,43.0,89.0
455,131.25912113958333,131.72605492083332,50.0,67.0
456,131.53582263958333,132.03388533958332,62.0,85.0
457,131.81252413958333,132.08461394791667,43.0,81.0
458,131.53582263958333,132.13418963333334,58.0,93.0
459,132.36592713958333,132.7129569375,55.0,85.0
460,132.64262863958334,133.03577535416667,63.0,96.0
461,132.64262863958334,133.05537504375,60.0,90.0
462,132.08922563958333,133.06690427291667,48.0,93.0
463,132.91933013958334,133.17297318125,55.0,90.0
464,133.19603163958334,133.90853800208333,41.0,89.0
465,133.47273313958334,133.909690925,48.0,71.0
466,133.74943463958334,134.49537576666665,56.0,89.0
467,133.74943463958334,134.53803391458334,60.0,79.0
468,134.02613613958334,134.84125264166667,41.0,93.0
469,134.30283763958332,134.90466340208334,48.0,112.0
470,134.57953913958332,134.92080432291667,53.0,89.0
471,134.85624063958332,135.17214151875,56.0,107.0
472,134.85624063958332,135.182517825,60.0,93.0
473,135.13294213958332,135.36583256875,53.0,90.0
474,135.40964363958332,137.18399200833332,46.0,96.0
475,135.40964363958332,137.35001290833333,62.0,95.0
476,135.40964363958332,137.35693044583334,58.0,102.0
477,137.89995713958334,138.25390447499998,46.0,37.0
478,137.62325563958333,138.26428078125,39.0,95.0
479,138.45336013958334,138.58479335208332,39.0,83.0
480,138.73006163958334,139.41143908333333,39.0,67.0
481,139.00676313958334,139.53595475833333,51.0,95.0
482,138.17665863958334,139.82303256458334,63.0,88.0
483,139.56016613958332,139.89681963125,58.0,72.0
484,139.28346463958334,139.90604301458333,55.0,81.0
485,139.83686763958332,140.50556293124998,48.0,66.0
486,140.66697213958332,140.78802904583333,48.0,74.0
487,140.11356913958332,141.05320131666667,55.0,56.0
488,140.94367363958332,141.35526712083333,48.0,74.0
489,141.22037513958333,141.58239293541666,55.0,85.0
490,141.49707663958333,141.94902242291667,60.0,76.0
491,141.77377813958333,141.99168057083332,55.0,73.0
492,140.39027063958332,142.03433871875,63.0,82.0
493,142.05047963958333,142.71802200833332,44.0,70.0
494,142.32718113958333,142.81025584166667,51.0,60.0
495,142.60388263958333,142.82985553125,56.0,51.0
496,142.88058413958333,142.9785825875,44.0,79.0
497,142.60388263958333,143.53429143333332,60.0,69.0
498,142.60388263958333,143.55158527708332,63.0,90.0
499,143.01893488958333,143.732594175,44.0,72.0
500,143.43398713958334,143.83289846875,51.0,36.0
501,143.71068863958334,144.23411564375,60.0,76.0
502,143.98739013958334,144.23872733541666,56.0,57.0
503,143.71068863958334,144.31251440208334,63.0,82.0
504,144.54079313958334,144.96622169583333,51.0,68.0
505,144.26409163958334,144.96968046458332,39.0,76.0
506,145.09419613958332,145.18527705,39.0,88.0
507,144.81749463958332,145.23715858125,55.0,57.0
508,144.81749463958332,145.69948067083334,58.0,60.0
509,144.81749463958332,145.71331574583334,63.0,63.0
510,145.37089763958332,145.91968894791665,39.0,90.0
511,145.64759913958332,146.06726308125,51.0,96.0
512,145.92430063958332,146.49730332916667,63.0,100.0
513,145.78594988958332,146.53650270833333,58.0,86.0
514,146.20100213958332,146.69445314791668,55.0,67.0
515,146.47770363958332,147.11065832083332,43.0,76.0
516,146.75440513958333,147.20058630833333,50.0,59.0
517,147.30780813958333,147.4196416625,43.0,88.0
518,147.86121113958333,148.26012246874998,50.0,75.0
519,147.58450963958333,148.26819292916667,43.0,77.0
520,147.03110663958333,148.65903379791666,62.0,96.0
521,148.13791263958333,148.7893140875,55.0,93.0
522,148.41461413958334,148.79161993333332,58.0,72.0
523,148.69131563958334,149.2527891,36.0,85.0
524,148.96801713958334,149.34848170208332,55.0,77.0
525,149.24471863958334,149.73125211041668,63.0,96.0
526,149.24471863958334,149.73240503333332,60.0,78.0
527,149.52142013958334,149.85346193958333,55.0,74.0
528,149.65977088958334,150.61900275624998,41.0,72.0
529,150.35152463958332,150.7469772,56.0,83.0
530,150.07482313958332,150.80692919166665,48.0,73.0
531,150.62822613958332,150.91530394583333,53.0,49.0
532,150.35152463958332,150.9337507125,60.0,76.0
533,150.76657688958332,151.75463182916667,41.0,66.0
534,151.18162913958332,151.94140534166667,48.0,70.0
535,151.45833063958332,152.40718619999998,57.0,72.0
536,151.45833063958332,152.41871542916667,60.0,72.0
537,151.73503213958332,152.44292681041665,53.0,55.0
538,152.28843513958333,152.75767476666667,41.0,69.0
539,152.56513663958333,152.99171811875,57.0,75.0
540,152.56513663958333,153.02515288333333,60.0,79.0
541,152.84183813958333,153.1819504,53.0,59.0
542,153.11853963958333,153.83681061666667,46.0,92.0
543,153.94864413958334,154.05586597083334,46.0,81.0
544,153.39524113958333,154.31296778125,53.0,59.0
545,153.67194263958334,154.43633053333332,62.0,85.0
546,153.67194263958334,154.45938899166666,58.0,72.0
547,154.22534563958334,154.73032587708332,46.0,88.0
548,154.36369638958334,155.20187135,53.0,78.0
549,154.77874863958334,155.26182334166666,62.0,100.0
550,155.05545013958334,155.59501806458334,58.0,67.0
551,155.60885313958332,155.99623523958334,51.0,81.0
552,155.33215163958332,155.99854108541666,39.0,86.0
553,156.16225613958332,156.27639550833334,39.0,74.0
554,155.88555463958332,156.88859757708332,63.0,99.0
555,156.43895763958332,157.18605168958334,39.0,78.0
556,156.71565913958332,157.22525106875,51.0,92.0
557,156.99236063958332,157.64145624166667,63.0,99.0
558,157.26906213958333,157.650679625,55.0,81.0
559,156.99236063958332,157.6714322375,58.0,95.0
560,157.54576363958333,158.20292970208334,48.0,73.0
561,158.37586813958333,158.47040781875,48.0,72.0
562,157.82246513958333,158.54073611666666,55.0,81.0
563,158.09916663958333,158.66409886875,63.0,89.0
564,158.09916663958333,158.67793394375,60.0,81.0
565,158.65256963958333,159.06531604375,48.0,81.0
566,158.92927113958334,159.69711780208334,55.0,85.0
567,159.48267413958334,159.70749410833332,60.0,58.0
568,159.20597263958334,159.73977595,63.0,97.0
569,159.75937563958334,160.3969420125,44.0,69.0
570,160.03607713958334,160.40962416458333,51.0,31.0
571,160.58948013958332,160.70938412291667,44.0,66.0
572,160.31277863958334,161.29852773333332,68.0,79.0
573,160.31277863958334,161.33657418958333,63.0,85.0
574,161.14288313958332,161.496830475,56.0,90.0
575,160.86618163958332,161.56946461875,44.0,74.0
576,161.41958463958332,161.90727103333333,68.0,97.0
577,161.41958463958332,161.93148241458334,63.0,96.0
578,161.69628613958332,161.97644640833332,60.0,72.0
579,161.83463688958332,162.56213125,39.0,82.0
580,162.24968913958332,162.67742354166666,51.0,76.0
581,162.80309213958333,162.91723150833332,39.0,81.0
582,162.52639063958333,163.47985789166665,58.0,76.0
583,162.52639063958333,163.48446958333332,63.0,83.0
584,163.07979363958333,163.67239601875,39.0,75.0
585,163.35649513958333,163.76693569791667,51.0,90.0
586,163.63319663958333,164.14394149166665,63.0,100.0
587,163.63319663958333,164.20504640625,58.0,112.0
588,163.90989813958333,164.26153962916666,55.0,72.0
589,164.18659963958333,164.86451831458334,43.0,79.0
590,164.46330113958334,164.914094,50.0,52.0
591,165.01670413958334,165.14352566041666,43.0,83.0
592,164.74000263958334,165.67732897083332,62.0,83.0
593,164.74000263958334,165.70384619791668,58.0,90.0
594,165.29340563958334,165.91137232291666,43.0,89.0
595,165.57010713958334,165.97708892916665,50.0,90.0
596,165.84680863958332,166.21574397291667,62.0,92.0
597,165.84680863958332,166.4705399375,58.0,117.0
598,166.12351013958332,166.50858639375,55.0,76.0
599,166.67691313958332,167.04930724166667,55.0,79.0
600,166.40021163958332,167.1346235375,48.0,92.0
601,166.95361463958332,167.3421496625,63.0,107.0
602,166.95361463958332,167.35483181458332,60.0,97.0
603,167.23031613958332,167.4597478,48.0,86.0
604,167.36866688958332,168.27486430208333,41.0,67.0
605,168.19877138958333,168.45010858541667,53.0,69.0
606,167.78371913958333,168.45241443125,48.0,93.0
607,168.06042063958333,168.50199011666666,56.0,93.0
608,168.06042063958333,168.52735442083332,60.0,85.0
609,168.47547288958333,169.2859777,41.0,78.0
610,168.89052513958333,169.50272720833334,48.0,59.0
611,169.16722663958333,169.53846781875,57.0,90.0
612,169.16722663958333,169.55230289374998,60.0,92.0
613,169.44392813958333,169.77251117083333,53.0,69.0
614,169.58227888958334,170.09302374166666,46.0,85.0
615,169.85898038958334,170.23022156874998,53.0,81.0
616,170.55073413958334,170.60607443958332,46.0,27.0
617,170.27403263958334,170.70291996458332,62.0,96.0
618,170.27403263958334,170.74327226666665,58.0,107.0
619,170.55073413958334,170.75480149583333,53.0,89.0
620,171.38083863958332,172.0045699375,51.0,96.0
621,171.65754013958332,172.01725208958334,55.0,95.0
622,171.93424163958332,172.59140770208333,58.0,93.0
623,170.68908488958334,172.9384375,39.0,93.0
624,172.21094313958332,172.99493072291665,51.0,95.0
625,171.10413713958332,173.00184826041666,46.0,35.0
626,172.48764463958332,173.00991872083333,55.0,107.0
627,172.76434613958332,173.02951841041667,58.0,112.0
628,171.93424163958332,173.04681225416667,63.0,127.0
629,173.31774913958333,173.46186450416667,51.0,107.0
630,173.31774913958333,173.4710878875,39.0,97.0
631,173.87115213958333,174.00027950625,41.0,89.0
632,173.87115213958333,174.00143242916667,53.0,100.0
633,174.42455513958333,174.53292989375,43.0,97.0
634,174.42455513958333,174.54676496874998,55.0,112.0
635,175.11630888958334,175.8230506375,44.0,102.0
636,175.66971188958334,175.87954386041667,51.0,24.0
637,175.53136113958334,175.94410754375,56.0,81.0
638,175.80806263958334,176.72348343541665,63.0,99.0
639,175.80806263958334,176.73385974166666,68.0,93.0
640,176.49981638958332,177.03246677708333,56.0,85.0
641,176.08476413958334,177.2203932125,44.0,95.0
642,176.91486863958332,177.48210671458332,68.0,112.0
643,176.91486863958332,177.51900024791667,63.0,127.0
644,177.19157013958332,177.53859993749998,60.0,95.0
645,178.29837613958333,178.49898472708333,62.0,99.0
646,178.29837613958333,178.51051395625,58.0,102.0
647,178.02167463958332,178.51166687916665,55.0,64.0
648,177.74497313958332,178.71227546666665,50.0,96.0
649,178.85177913958333,179.14692740625,50.0,83.0
650,178.57507763958333,179.18843263125,58.0,127.0
651,177.46827163958332,179.19996186041666,43.0,83.0
652,178.57507763958333,179.64614302916667,62.0,107.0
653,179.40518213958333,179.676119025,58.0,122.0
654,179.12848063958333,179.94244421874998,55.0,107.0
655,180.51198813958334,180.85786501458333,55.0,100.0
656,180.23528663958334,180.87631178125,48.0,93.0
657,179.68188363958333,181.280987725,36.0,93.0
658,179.95858513958333,181.32479879583332,43.0,52.0
659,180.78868963958334,181.38936247916666,60.0,97.0
660,181.06539113958334,181.81824980416667,48.0,95.0
661,181.61879413958331,181.92777748125,60.0,93.0
662,180.78868963958334,181.98772947291667,63.0,107.0
663,181.34209263958334,181.98888239583331,55.0,102.0
664,181.89549563958332,182.60569615625,41.0,89.0
665,182.17219713958332,182.69677706666667,48.0,72.0
666,182.72560013958332,182.93427918749998,56.0,102.0
667,182.72560013958332,182.94580841666667,60.0,95.0
668,182.44889863958332,183.1210527,53.0,96.0
669,183.00230163958332,183.63640924375,46.0,107.0
670,183.27900313958332,183.64217385833334,53.0,93.0
671,183.55570463958333,183.99381534791667,62.0,102.0
672,183.55570463958333,184.0410851875,58.0,127.0
673,183.83240613958333,184.0825904125,53.0,93.0
674,184.66251063958333,185.31275916458333,51.0,90.0
675,184.93921213958333,185.31506501041667,55.0,90.0
676,184.38580913958333,185.72665849166665,46.0,33.0
677,184.10910763958333,185.735881875,39.0,88.0
678,185.49261513958334,185.82119817083333,51.0,83.0
679,185.21591363958333,185.85693878125,58.0,107.0
680,185.21591363958333,186.07599413541666,63.0,117.0
681,185.76931663958334,186.35384855833334,55.0,97.0
682,186.04601813958334,186.496811,58.0,100.0
683,186.32271963958334,187.06635492083333,43.0,77.0
684,187.15282413958332,187.37418533958333,62.0,96.0
685,186.59942113958334,187.39263210625,50.0,72.0
686,186.87612263958331,187.51714778125,55.0,95.0
687,187.42952563958332,187.97370525624999,48.0,90.0
688,187.70622713958332,188.06478616666666,55.0,95.0
689,188.25963013958332,188.52710825625,55.0,90.0
690,187.98292863958332,188.55708425208334,63.0,112.0
691,187.98292863958332,188.56054302083334,60.0,95.0
692,189.08973463958333,189.44022320624998,53.0,82.0
693,189.36643613958333,189.50478688958333,60.0,65.0
694,189.36643613958333,189.58549149375,56.0,97.0
695,188.81303313958333,189.75151239375,48.0,43.0
696,188.53633163958332,190.18731725625,41.0,64.0
697,189.91983913958333,190.20115233125,48.0,78.0
698,189.64313763958333,190.29223324166665,56.0,85.0
699,190.19654063958333,190.57469935625,53.0,93.0
700,190.47324213958333,190.70036795416667,56.0,88.0
701,189.64313763958333,190.74879071666666,60.0,96.0
702,191.30334663958334,191.73569273333334,58.0,102.0
703,191.58004813958334,191.78180964999999,65.0,81.0
704,191.58004813958334,191.79103303333332,62.0,95.0
705,191.02664513958334,192.00432377291665,53.0,69.0
706,191.85674963958334,192.21992035833333,62.0,100.0
707,191.85674963958334,192.22337912708332,65.0,99.0
708,192.13345113958331,192.39631756458334,53.0,55.0
709,190.74994363958334,192.46779878541665,46.0,83.0
710,192.41015263958332,192.91282703125,62.0,102.0
711,192.41015263958332,192.91397995416665,65.0,100.0
712,193.79366013958332,194.11417271041665,60.0,72.0
713,193.51695863958332,194.12224317083331,56.0,95.0
714,194.34706313958333,194.56381264791665,56.0,88.0
715,193.24025713958332,194.60070618125,51.0,35.0
716,194.07036163958333,194.70677508958332,63.0,102.0
717,192.96355563958332,194.74251569999998,44.0,93.0
718,194.07036163958333,195.1091451875,68.0,112.0
719,194.90046613958333,195.19100271458333,63.0,107.0
720,194.62376463958333,195.20137902083331,60.0,107.0
721,195.73057063958333,196.08336505208334,55.0,92.0
722,196.00727213958334,196.21249241875,58.0,107.0
723,195.31551838958333,196.35314901458332,50.0,56.0
724,196.56067513958334,196.70479050416665,50.0,83.0
725,195.17716763958333,196.78780095416667,43.0,86.0
726,196.28397363958334,196.9077049375,58.0,99.0
727,196.28397363958334,197.36310948958334,62.0,93.0
728,197.11407813958334,197.39308548541666,58.0,127.0
729,196.83737663958334,198.08483923541667,55.0,97.0
730,198.22088413958332,198.59673701041666,55.0,96.0
731,197.94418263958332,198.63363054375,48.0,72.0
732,197.66748113958332,199.0037188,43.0,45.0
733,197.39077963958331,199.03484771875,36.0,86.0
734,198.77428713958332,199.40378305208333,48.0,86.0
735,198.49758563958332,199.53867503333333,63.0,127.0
736,199.05098863958332,199.56980395208333,60.0,99.0
737,199.32769013958332,199.61130917708334,55.0,89.0
738,199.60439163958333,200.24080508958332,41.0,82.0
739,199.88109313958333,200.31228631041665,48.0,81.0
740,200.15779463958333,200.53595335625,56.0,96.0
741,200.15779463958333,200.58322319583334,60.0,93.0
742,200.43449613958333,200.82764285416667,53.0,86.0
743,200.71119763958333,201.30264709583332,46.0,95.0
744,201.26460063958334,201.81800363958334,62.0,112.0
745,200.98789913958333,201.83760332916665,53.0,93.0
746,201.54130213958334,201.85950886458332,58.0,100.0
747,202.37140663958334,202.99744378333332,51.0,88.0
748,202.09470513958334,203.27990989791667,46.0,39.0
749,202.64810813958331,203.30758004791667,55.0,77.0
750,201.81800363958334,203.33063850624998,39.0,74.0
751,203.20151113958332,203.47590679375,51.0,79.0
752,202.92480963958332,203.85521843333333,63.0,112.0
753,203.47821263958332,204.01201595,58.0,95.0
754,203.75491413958332,204.03968609999998,55.0,88.0
755,204.30831713958332,204.71414600625,50.0,90.0
756,204.03161563958332,204.93320136041666,43.0,73.0
757,204.86172013958333,205.10613979791665,62.0,93.0
758,204.58501863958332,205.2502551625,55.0,88.0
759,205.69182463958333,206.13108827083332,63.0,127.0
760,205.41512313958333,206.19565195416666,55.0,90.0
761,205.13842163958333,206.211792875,48.0,88.0
762,205.96852613958333,206.22332210416667,60.0,96.0
763,206.66027988958334,207.00039214999998,53.0,83.0
764,207.07533213958334,207.28631703333332,56.0,86.0
765,206.52192913958334,207.46847885416665,48.0,64.0
766,206.24522763958333,207.86162556875,41.0,69.0
767,207.62873513958334,207.88929571875,48.0,62.0
768,207.90543663958331,208.43578118125,56.0,92.0
769,207.35203363958334,208.44039287291668,60.0,95.0
770,208.18213813958332,208.453075025,53.0,76.0
771,209.28894413958332,209.54719887291665,62.0,83.0
772,209.01224263958332,209.59792748125,58.0,89.0
773,209.70399638958332,209.781242225,58.0,93.0
774,208.73554113958332,209.88269944166666,53.0,58.0
775,208.45883963958332,209.93227512708333,46.0,86.0
776,209.56564563958332,210.15363632708332,65.0,97.0
777,210.11904863958333,210.62057010833334,62.0,93.0
778,210.94915313958333,211.08289219791666,51.0,127.0
779,210.94915313958333,211.15552634166667,39.0,100.0
780,211.36420538958333,211.52561459791667,53.0,107.0
781,211.36420538958333,211.57749612916666,41.0,85.0
782,211.91760838958334,212.17125143125,55.0,112.0
783,211.91760838958334,212.17240435416667,43.0,112.0
784,213.30111588958331,213.51094786041665,51.0,24.0
785,213.1627651395833,213.57551154375,56.0,81.0
786,213.43946663958332,214.35488743541666,63.0,99.0
787,213.43946663958332,214.36526374166667,68.0,93.0
788,214.13122038958332,214.66387077708333,56.0,85.0
789,213.71616813958332,214.8517972125,44.0,95.0
790,214.54627263958332,215.11351071458333,68.0,112.0
791,214.54627263958332,215.15040424791667,63.0,127.0
792,214.82297413958332,215.17000393749998,60.0,95.0
793,215.92978013958333,216.13038872708333,62.0,99.0
794,215.92978013958333,216.14191795624998,58.0,102.0
795,215.65307863958333,216.14307087916666,55.0,64.0
796,215.37637713958333,216.34367946666666,50.0,96.0
797,216.48318313958333,216.77833140625,50.0,83.0
798,216.20648163958333,216.81983663124998,58.0,127.0
799,215.09967563958332,216.83136586041667,43.0,83.0
800,216.20648163958333,217.27754702916667,62.0,107.0
801,217.03658613958333,217.307523025,58.0,122.0
802,216.75988463958333,217.57384821875,55.0,107.0
803,218.14339213958334,218.48926901458333,55.0,100.0
804,217.86669063958334,218.50771578125,48.0,93.0
805,217.31328763958334,218.912391725,36.0,93.0
806,217.58998913958334,218.95620279583332,43.0,52.0
807,218.4200936395833,219.02076647916667,60.0,97.0
808,218.69679513958332,219.44965380416667,48.0,95.0
809,219.25019813958332,219.55918148125,60.0,93.0
810,218.4200936395833,219.61913347291667,63.0,107.0
811,218.97349663958332,219.62028639583332,55.0,102.0
812,219.52689963958332,220.23710015625,41.0,89.0
813,219.80360113958332,220.32818106666667,48.0,72.0
814,220.35700413958332,220.56568318749999,56.0,102.0
815,220.35700413958332,220.57721241666667,60.0,95.0
816,220.08030263958332,220.75245669999998,53.0,96.0
817,220.63370563958333,221.26781324375,46.0,107.0
818,220.91040713958333,221.27357785833334,53.0,93.0
819,221.18710863958333,221.62521934791667,62.0,102.0
820,221.18710863958333,221.6724891875,58.0,127.0
821,221.46381013958333,221.7139944125,53.0,93.0
822,222.29391463958333,222.94416316458333,51.0,90.0
823,222.57061613958334,222.94646901041665,55.0,90.0
824,222.01721313958333,223.35806249166666,46.0,33.0
825,221.74051163958333,223.367285875,39.0,88.0
826,223.12401913958334,223.45260217083333,51.0,83.0
827,222.84731763958334,223.48834278125,58.0,107.0
828,222.84731763958334,223.70739813541667,63.0,117.0
829,223.40072063958334,223.98525255833331,55.0,97.0
830,223.6774221395833,224.12821499999998,58.0,100.0
831,223.95412363958332,224.69775892083334,43.0,77.0
832,224.78422813958332,225.00558933958334,62.0,96.0
833,224.23082513958332,225.02403610624998,50.0,72.0
834,224.50752663958332,225.14855178125,55.0,95.0
835,225.06092963958332,225.60510925625,48.0,90.0
836,225.33763113958332,225.69619016666667,55.0,95.0
837,225.89103413958333,226.15851225625,55.0,90.0
838,225.61433263958332,226.18848825208332,63.0,112.0
839,225.61433263958332,226.19194702083334,60.0,95.0
840,226.72113863958333,227.07162720624999,53.0,82.0
841,226.99784013958333,227.13619088958333,60.0,65.0
842,226.99784013958333,227.21689549375,56.0,97.0
843,226.44443713958333,227.38291639374998,48.0,43.0
844,226.16773563958333,227.81872125625,41.0,64.0
845,227.55124313958333,227.83255633125,48.0,78.0
846,227.27454163958333,227.92363724166665,56.0,85.0
847,227.82794463958334,228.20610335625,53.0,93.0
848,228.10464613958334,228.33177195416667,56.0,88.0
849,227.27454163958333,228.38019471666667,60.0,96.0
850,228.9347506395833,229.36709673333334,58.0,102.0
851,229.21145213958332,229.41321365,65.0,81.0
852,229.21145213958332,229.42243703333332,62.0,95.0
853,228.65804913958334,229.63572777291665,53.0,69.0
854,229.48815363958332,229.85132435833333,62.0,100.0
855,229.48815363958332,229.85478312708332,65.0,99.0
856,229.76485513958332,230.02772156458332,53.0,55.0
857,228.38134763958334,230.09920278541665,46.0,83.0
858,230.04155663958332,230.54423103125,62.0,102.0
859,230.04155663958332,230.54538395416665,65.0,100.0
860,231.42506413958333,231.74557671041666,60.0,72.0
861,231.14836263958333,231.75364717083332,56.0,95.0
862,231.97846713958333,232.19521664791665,56.0,88.0
863,230.87166113958332,232.23211018125,51.0,35.0
864,231.70176563958333,232.33817908958332,63.0,102.0
865,230.59495963958332,232.3739197,44.0,93.0
866,231.70176563958333,232.7405491875,68.0,112.0
867,232.53187013958333,232.82240671458334,63.0,107.0
868,232.25516863958333,232.83278302083332,60.0,107.0
869,233.36197463958334,233.71476905208334,55.0,92.0
870,233.63867613958334,233.84389641875,58.0,107.0
871,232.94692238958334,233.98455301458333,50.0,56.0
872,234.1920791395833,234.33619450416666,50.0,83.0
873,232.80857163958333,234.41920495416667,43.0,86.0
874,233.91537763958334,234.5391089375,58.0,99.0
875,233.91537763958334,234.99451348958334,62.0,93.0
876,234.74548213958332,235.02448948541667,58.0,127.0
877,234.46878063958331,235.71624323541667,55.0,97.0
878,235.85228813958332,236.22814101041666,55.0,96.0
879,235.57558663958332,236.26503454375,48.0,72.0
880,235.29888513958332,236.6351228,43.0,45.0
881,235.02218363958332,236.66625171875,36.0,86.0
882,236.40569113958333,237.03518705208333,48.0,86.0
883,236.12898963958332,237.17007903333334,63.0,127.0
884,236.68239263958333,237.20120795208334,60.0,99.0
885,236.95909413958333,237.24271317708332,55.0,89.0
886,237.23579563958333,237.87220908958332,41.0,82.0
887,237.51249713958333,237.94369031041666,48.0,81.0
888,237.78919863958333,238.16735735625,56.0,96.0
889,237.78919863958333,238.21462719583332,60.0,93.0
890,238.06590013958333,238.45904685416667,53.0,86.0
891,238.34260163958334,238.93405109583333,46.0,95.0
892,238.89600463958334,239.4494076395833,62.0,112.0
893,238.61930313958334,239.46900732916666,53.0,93.0
894,239.17270613958334,239.49091286458332,58.0,100.0
895,240.00281063958332,240.62884778333333,51.0,88.0
896,239.72610913958331,240.91131389791667,46.0,39.0
897,240.27951213958332,240.93898404791665,55.0,77.0
898,239.4494076395833,240.96204250625,39.0,74.0
899,240.83291513958332,241.10731079375,51.0,79.0
900,240.55621363958332,241.48662243333334,63.0,112.0
901,241.10961663958332,241.64341994999998,58.0,95.0
902,241.38631813958332,241.6710901,55.0,88.0
903,241.93972113958333,242.34555000625,50.0,90.0
904,241.66301963958333,242.56460536041666,43.0,73.0
905,242.49312413958333,242.73754379791666,62.0,93.0
906,242.21642263958333,242.8816591625,55.0,88.0
907,243.32322863958333,243.76249227083332,63.0,127.0
908,243.04652713958333,243.82705595416667,55.0,90.0
909,242.76982563958333,243.843196875,48.0,88.0
910,243.59993013958334,243.85472610416667,60.0,96.0
911,244.29168388958334,244.63179614999999,53.0,83.0
912,244.7067361395833,244.91772103333332,56.0,86.0
913,244.15333313958334,245.09988285416665,48.0,64.0
914,243.87663163958334,245.49302956875,41.0,69.0
915,245.26013913958332,245.52069971875,48.0,62.0
916,245.53684063958332,246.06718518124998,56.0,92.0
917,244.98343763958331,246.07179687291665,60.0,95.0
918,245.81354213958332,246.084479025,53.0,76.0
919,246.36694513958332,246.75086847083332,58.0,88.0
920,246.64364663958332,246.86154907083332,62.0,67.0
921,246.09024363958332,247.11058042083332,46.0,95.0
922,247.19704963958333,247.33770623541665,62.0,86.0
923,247.19704963958333,247.35269423333332,65.0,85.0
924,247.19704963958333,247.35500007916667,46.0,86.0
925,247.19704963958333,247.36307053958333,58.0,102.0
926,247.47375113958333,247.65130126875,58.0,97.0
927,247.47375113958333,247.65360711458334,62.0,88.0
928,247.47375113958333,247.65821880625,46.0,78.0
929,247.47375113958333,247.66398342083332,65.0,82.0
930,248.71890788958333,249.11666629583334,63.0,72.0
931,248.44220638958333,249.43026132916665,51.0,93.0
932,249.13396013958334,249.52480100833333,70.0,100.0
933,249.54901238958334,249.80496127708332,51.0,85.0
934,249.41066163958334,249.84416065624998,63.0,100.0
935,249.82571388958334,249.84416065624998,63.0,76.0
936,248.30385563958333,250.07243939375,39.0,93.0
937,250.24076613958331,250.54398486666665,62.0,97.0
938,251.07087063958332,251.70843701249999,48.0,66.0
939,251.34757213958332,251.71074285833333,55.0,85.0
940,250.79416913958332,252.22494647916665,43.0,40.0
941,251.90097513958332,252.2410874,48.0,72.0
942,250.51746763958332,252.28489847083333,36.0,74.0
943,252.17767663958332,252.63884580625,55.0,90.0
944,251.62427363958332,252.65959841875,60.0,97.0
945,252.56736458541667,252.65959841875,60.0,78.0
946,251.62427363958332,252.67573933958332,63.0,100.0
947,252.50049505625,254.22872650833332,48.0,55.0
948,252.5523765875,254.23218527708332,53.0,50.0
949,252.70686825833332,254.28983142291665,68.0,96.0
950,252.39557907083332,254.31404280416666,41.0,37.0
951,252.6215519625,254.31519572708333,65.0,71.0
952,256.22328315416667,257.96880845,53.0,42.0
953,256.6129711,257.97572598749997,58.0,65.0
954,255.79900752083333,258.08871243333334,46.0,90.0
955,257.42578175625,258.2789447145833,70.0,52.0
956,257.4177112958333,258.28355640625,65.0,53.0
957,257.0187999666667,258.36541393333334,62.0,64.0
958,260.42222841666666,261.1531815458333,55.0,61.0
959,260.75542313958334,261.17969877291665,58.0,74.0
960,261.0747827875,261.2776972208333,63.0,58.0
961,261.4022128958333,262.1596832520833,67.0,72.0
962,261.7665365375,262.18965924791667,70.0,55.0
963,262.13431894791665,262.31648076875,75.0,63.0
964,262.7372976333333,263.4013812333333,79.0,50.0
965,263.31491201458334,264.3121903375,82.0,64.0
966,260.0982570770833,265.41092587708334,51.0,72.0
967,259.5390894625,265.4973950958333,39.0,79.0
968,259.8423081895833,265.53082986041665,46.0,58.0
969,265.76717905833334,270.4814808645833,55.0,42.0
970,265.81099012916667,270.4918571708333,58.0,56.0
971,265.6634159958333,270.5045393229167,51.0,46.0
972,265.7095329125,270.5114568604167,46.0,30.0
973,265.64496922916663,270.5241390125,39.0,50.0
