,start,end,pitch,velocity
0,25.86735125,26.607147291666664,67.0,87.0
1,26.785718749999997,27.14031064583333,74.0,96.0
2,27.091841249999998,27.39286170833333,72.0,93.0
3,27.39796375,27.73342298958333,74.0,87.0
4,27.704086249999996,27.987249562499997,70.0,93.0
5,28.010208749999997,28.321433291666665,69.0,92.0
6,28.316331249999998,29.88776008333333,67.0,105.0
7,30.765311249999996,31.229597041666665,74.0,99.0
8,31.377556249999998,31.646688947916665,74.0,97.0
9,31.68367875,32.01913798958333,67.0,84.0
10,31.989801249999996,32.29847477083333,70.0,98.0
11,32.29592375,32.640311562499996,72.0,100.0
12,32.602046249999994,33.27041370833333,74.0,98.0
13,33.214291249999995,34.645413937499995,72.0,111.0
14,35.663271249999994,36.18112847916667,74.0,103.0
15,36.275516249999995,36.54592445833333,74.0,97.0
16,36.581638749999996,36.903067375,67.0,80.0
17,36.88776125,37.311230708333326,70.0,91.0
18,37.50000625,37.838016510416665,70.0,97.0
19,37.80612875,38.13903696875,72.0,97.0
20,38.11225125,38.322710468749996,74.0,98.0
21,38.41837374999999,38.610975822916664,74.0,94.0
22,38.724496249999994,38.99362894791666,74.0,92.0
23,39.030618749999995,39.357149416666665,67.0,91.0
24,39.336741249999996,40.05230259375,70.0,103.0
25,40.56123125,41.403068125,69.0,95.0
26,41.479598749999994,41.76913961458333,67.0,66.0
27,41.785721249999995,42.15051722916666,65.0,79.0
28,42.091843749999995,42.248731531249994,67.0,55.0
29,42.244904999999996,42.39286420833333,65.0,79.0
30,42.397966249999996,42.78317039583333,62.0,73.0
31,42.70408875,43.05102758333333,65.0,76.0
32,43.01021125,44.61480335416666,67.0,105.0
33,45.459191249999996,46.38393630208333,70.0,101.0
34,46.68368124999999,47.376283406249996,70.0,97.0
35,47.602048749999994,47.89414063541666,69.0,96.0
36,47.908171249999995,48.196436604166664,67.0,87.0
37,48.214293749999996,48.551028499999994,69.0,87.0
38,48.52041625,48.830365281249996,67.0,92.0
39,48.82653875,49.16199798958333,65.0,87.0
40,49.13266125,49.934957302083326,62.0,98.0
41,50.357151249999994,50.575263531249995,74.0,103.0
42,50.663273749999995,51.05485544791666,74.0,96.0
43,51.275518749999996,51.50638613541666,67.0,93.0
44,51.58164125,51.895416812499995,70.0,97.0
45,51.88776375,52.250008708333326,72.0,98.0
46,52.19388625,52.79720267708333,74.0,105.0
47,52.80613124999999,54.74363157291666,72.0,109.0
48,55.25511124999999,55.43495821875,74.0,99.0
49,55.56123374999999,55.71812153124999,74.0,96.0
50,55.86735624999999,56.125009354166664,74.0,96.0
51,56.173478749999994,56.48725431249999,67.0,93.0
52,56.479601249999995,57.17220340624999,70.0,99.0
53,57.39796875,57.732152479166665,72.0,101.0
54,57.70409125,57.906897406249996,74.0,97.0
55,58.01021374999999,58.170928062499996,74.0,97.0
56,58.31633624999999,58.62756079166666,74.0,96.0
57,58.62245874999999,58.97832615624999,67.0,96.0
58,58.92858124999999,59.631387489583325,70.0,105.0
59,60.153071249999996,60.2831733125,69.0,97.0
60,60.45919375,60.60587744791666,69.0,94.0
61,60.76531624999999,61.066336708333324,69.0,93.0
62,61.07143874999999,61.35460206249999,67.0,90.0
63,61.37756124999999,61.70664293749999,65.0,91.0
64,61.68368374999999,61.87373480208333,67.0,63.0
65,61.83674499999999,62.011489927083325,65.0,90.0
66,61.989806249999994,62.32909202083333,62.0,84.0
67,62.295928749999995,62.621183906249996,65.0,83.0
68,62.602051249999995,64.698990375,67.0,108.0
69,67.50001125,67.75001129166667,67.0,90.0
70,67.80613374999999,68.19899095833333,67.0,91.0
71,68.41837874999999,68.76914411458333,74.0,101.0
72,68.72450124999999,69.01786864583333,72.0,93.0
73,69.03062374999999,69.38138911458333,74.0,87.0
74,69.33674624999999,69.62501160416666,70.0,95.0
75,69.64286874999999,69.96047084374999,69.0,92.0
76,69.94899124999999,72.07144058333333,67.0,103.0
77,72.39797125,72.92348154166666,74.0,108.0
78,73.01021625,73.25638976041665,74.0,98.0
79,73.31633875,73.57654287499999,67.0,89.0
80,73.62246124999999,73.93368579166666,70.0,90.0
81,73.92858374999999,74.31251238541665,72.0,97.0
82,74.23470624999999,74.83419614583333,74.0,105.0
83,74.84695124999999,76.56123724999999,72.0,109.0
84,77.29593125,77.7780741875,74.0,100.0
85,77.90817625,78.19644160416667,74.0,101.0
86,78.21429875,78.48598246875,67.0,87.0
87,78.52042125,79.00766622916666,70.0,98.0
88,79.13266624999999,79.36480914583332,70.0,108.0
89,79.43878874999999,79.79593166666666,72.0,93.0
90,79.74491124999999,79.96174802083333,74.0,103.0
91,80.05103374999999,80.21429908333333,74.0,100.0
92,80.35715624999999,80.63904405208332,74.0,103.0
93,80.66327874999999,80.984707375,67.0,92.0
94,80.96940124999999,81.79848302083333,70.0,97.0
95,82.19389125,82.34822801041666,69.0,103.0
96,82.50001375,82.61098315624999,69.0,96.0
97,82.80613625,83.14669753125,69.0,93.0
98,83.11225875,83.40690165624999,67.0,90.0
99,83.41838125,83.73853436458333,65.0,87.0
100,83.72450375,83.90562622916666,67.0,80.0
101,83.87756499999999,84.03700380208332,65.0,86.0
102,84.03062625,84.38394263541666,62.0,90.0
103,84.33674875,84.68241207291666,65.0,93.0
104,84.64287125,86.494912375,67.0,97.0
105,87.09185124999999,88.02169834374999,70.0,108.0
106,88.31634125,89.06123933333332,70.0,100.0
107,89.23470875,89.48598430208332,69.0,100.0
108,89.54083125,89.76914761458332,67.0,87.0
109,89.84695375,90.12501502083333,69.0,94.0
110,90.15307625,90.46047426041666,67.0,89.0
111,90.45919874999998,90.79976003124999,65.0,103.0
112,90.76532124999999,91.45027034374999,62.0,94.0
113,91.98981124999999,92.17348474999999,74.0,100.0
114,92.29593374999999,92.71430116666666,74.0,100.0
115,92.90817874999999,93.17986246874999,67.0,92.0
116,93.21430124999999,93.52807681249999,70.0,98.0
117,93.52042374999999,93.88521972916666,72.0,96.0
118,93.82654624999999,94.46940349999998,74.0,106.0
119,94.43879125,96.10970989583332,72.0,103.0
120,96.88777124999999,97.07016923958332,74.0,99.0
121,97.19389374999999,97.36481214583333,74.0,95.0
122,97.50001624999999,97.77169996874999,74.0,99.0
123,97.80613874999999,98.11353676041665,67.0,93.0
124,98.11226124999999,98.8393021875,70.0,103.0
125,99.03062874999999,99.35971043749998,72.0,98.0
126,99.33675124999999,99.80486357291666,74.0,103.0
127,99.94899625,100.23471058333332,74.0,97.0
128,100.25511875,100.57016982291665,67.0,93.0
129,100.56124125,101.14159848958333,70.0,100.0
130,101.78573124999998,101.96175168749998,69.0,99.0
131,102.09185374999998,102.22705785416666,69.0,97.0
132,102.39797624999999,102.74619059374999,69.0,89.0
133,102.70409874999999,103.00256818749999,67.0,93.0
134,103.01022124999999,103.30486415624999,65.0,83.0
135,103.31634374999999,103.5076703125,67.0,90.0
136,103.469405,103.63522135416666,65.0,84.0
137,103.62246624999999,103.94517038541666,62.0,84.0
138,103.92858874999999,104.25384390624998,65.0,93.0
139,104.23471124999999,105.98853807291665,67.0,108.0
140,106.68369125,106.85333413541666,74.0,97.0
141,106.98981375,107.16328316666666,74.0,95.0
142,107.29593625,107.56124241666666,74.0,98.0
143,107.60205874999998,107.85716083333332,67.0,93.0
144,107.90818124999998,108.65563035416666,70.0,98.0
145,108.82654874999999,109.16966105208333,72.0,103.0
146,109.13267124999999,109.34440597916665,74.0,98.0
147,109.43879374999999,109.64925296874999,74.0,99.0
148,109.74491624999999,110.00512037499999,74.0,97.0
149,110.05103874999999,110.37119186458332,67.0,90.0
150,110.35716124999999,111.17731444791666,70.0,96.0
151,111.58165125,111.74236556249998,69.0,97.0
152,111.88777375,112.10333501041666,69.0,100.0
153,112.19389625,112.48981466666666,69.0,101.0
154,112.50001875,112.83547798958332,67.0,98.0
155,112.80614125,113.13777395833333,65.0,98.0
156,113.11226374999998,113.29976378125,67.0,85.0
157,113.26532499999999,113.42348829166666,65.0,90.0
158,113.41838624999998,113.73088630208332,62.0,91.0
159,113.72450874999998,114.05231492708332,65.0,90.0
160,114.03063124999998,115.92221319791666,67.0,106.0
161,128.72451124999998,129.46558280208333,67.0,87.0
162,129.64287875,129.99747064583332,74.0,96.0
163,129.94900124999998,130.25129721874998,72.0,93.0
164,130.25512375,130.58930747916665,74.0,87.0
165,130.56124624999998,130.84440956249998,70.0,93.0
166,130.86736875,131.17859329166666,69.0,92.0
167,131.17349124999998,132.7449200833333,67.0,105.0
168,133.62247125,134.08548153125,74.0,99.0
169,134.23471625,134.50384894791665,74.0,97.0
170,134.54083874999998,134.87629798958332,67.0,84.0
171,134.84696125,135.15563477083333,70.0,98.0
172,135.15308374999998,135.49619605208332,72.0,100.0
173,135.45920625,136.12757370833333,74.0,98.0
174,136.07145125,137.50129842708333,72.0,111.0
175,138.52043124999997,139.03828847916665,74.0,103.0
176,139.13267624999997,139.40308445833332,74.0,97.0
177,139.43879875,139.760227375,67.0,80.0
178,139.74492124999998,140.16711519791664,70.0,91.0
179,140.35716624999998,140.69517651041664,70.0,97.0
180,140.66328875,140.99619696874998,72.0,97.0
181,140.96941124999998,141.3354827395833,74.0,98.0
182,141.58165624999998,141.85078894791664,74.0,92.0
183,141.88777875,142.21430941666665,67.0,91.0
184,142.19390124999998,142.90946259375,70.0,103.0
185,143.41839124999998,143.739819875,69.0,95.0
186,143.72451375,143.739819875,69.0,95.0
187,143.87757499999998,143.89670765625,69.0,95.0
188,144.33675874999997,144.62502410416664,67.0,66.0
189,144.64288125,145.00767722916666,65.0,79.0
190,144.94900374999997,145.10589153125,67.0,55.0
191,145.10206499999998,145.25002420833331,65.0,79.0
192,145.25512625,145.64033039583333,62.0,73.0
193,145.56124874999998,145.90818758333333,65.0,76.0
194,145.86737125,147.47323886458332,67.0,105.0
195,148.31635125,149.24109630208332,70.0,101.0
196,149.54084125,150.23344340625,70.0,97.0
197,150.45920875,150.75130063541664,69.0,96.0
198,150.76533124999997,151.05487211458333,67.0,87.0
199,151.07145375,151.40946401041666,69.0,87.0
200,151.37757624999998,151.68752528124998,67.0,92.0
201,151.68369875,152.0204335,65.0,87.0
202,151.98982124999998,152.7921173020833,62.0,98.0
203,153.21431124999998,153.43242353124998,74.0,103.0
204,153.52043375,153.91201544791664,74.0,96.0
205,154.13267875,154.36354613541664,67.0,93.0
206,154.43880124999998,154.7525768125,70.0,97.0
207,154.74492375,155.10716870833332,72.0,98.0
208,155.05104624999998,155.65436267708333,74.0,105.0
209,155.66329125,157.60079157291665,72.0,109.0
210,158.11227125,158.29211821874998,74.0,99.0
211,158.41839374999998,158.57655704166666,74.0,96.0
212,158.72451625,158.9834448645833,74.0,96.0
213,159.03063874999998,159.34313880208333,67.0,93.0
214,159.33676125,160.02808789583332,70.0,99.0
215,160.25512874999998,160.58931247916667,72.0,101.0
216,160.56125125,160.76405740624998,74.0,97.0
217,160.86737374999998,161.0280880625,74.0,97.0
218,161.17349624999997,161.48472079166666,74.0,96.0
219,161.47961875,161.83548615624997,67.0,96.0
220,161.78574124999997,162.4885474895833,70.0,105.0
221,163.01023124999998,163.14160882291665,69.0,97.0
222,163.31635375,163.46431295833332,69.0,94.0
223,163.62247624999998,163.92222119791666,69.0,93.0
224,163.92859875,164.2117620625,67.0,90.0
225,164.23472124999998,164.56507844791665,65.0,91.0
226,164.54084375,164.73089480208333,67.0,63.0
227,164.69390499999997,164.86992543749997,65.0,90.0
228,164.84696624999998,165.18497651041665,62.0,84.0
229,165.15308875,165.47834390625,65.0,83.0
230,165.45921124999998,167.8690247083333,67.0,108.0
231,170.31852124999997,170.93215801249997,67.0,90.0
232,171.22761274999996,171.5788703645833,74.0,101.0
233,171.53376724999998,171.8301591458333,72.0,93.0
234,171.84304575,172.19742736458332,74.0,87.0
235,172.15232425,172.44356150416664,70.0,95.0
236,172.46160274999997,172.78247919375,69.0,92.0
237,172.77088124999997,174.883356,67.0,103.0
238,175.20335599999999,175.718356,74.0,108.0
239,175.80335599999998,176.043356,74.0,98.0
240,176.103356,176.361603475,67.0,89.0
241,176.40799525,176.72242839166665,70.0,90.0
242,176.71727375,177.10516053541667,72.0,97.0
243,177.33583074999999,177.63093398541668,72.0,100.0
244,177.02655225,177.63351130625,74.0,105.0
245,177.64510925,179.36916573958334,72.0,109.0
246,180.10513525000002,180.5872781875,74.0,100.0
247,180.71738025000002,181.0056456041667,74.0,101.0
248,181.02350275,181.29525094583335,67.0,87.0
249,181.32807925,181.80914016875002,70.0,98.0
250,181.93414025,182.16393837916667,70.0,108.0
251,182.23717075000002,182.58944370625002,72.0,93.0
252,182.54020125000002,182.75484785416668,74.0,103.0
253,182.84323175,183.00484801666667,74.0,100.0
254,183.14626225,183.42404020833334,74.0,103.0
255,183.44929275,183.76962251458335,67.0,92.0
256,183.75544725,184.59436518125,70.0,97.0
257,184.99256125,186.03379886666667,69.0,103.0
258,185.92039675,186.22108864375002,67.0,90.0
259,186.23293075,186.56187814583333,65.0,87.0
260,186.54872025,186.73556237083335,67.0,80.0
261,186.706615,186.86977290833335,65.0,86.0
262,186.86450975000002,187.22898346458334,62.0,90.0
263,187.18029925000002,187.53687822708335,65.0,93.0
264,187.49608875,189.36760200000003,67.0,97.0
265,189.951352,190.861352,70.0,108.0
266,191.15135200000003,191.88010200000002,70.0,100.0
267,192.051352,192.298852,69.0,100.0
268,192.35135200000002,192.576352,67.0,87.0
269,192.65135200000003,192.922602,69.0,94.0
270,192.951352,193.25260200000002,67.0,89.0
271,193.25135200000003,193.59078508125003,65.0,103.0
272,193.55599125000003,194.2492905541667,62.0,94.0
273,194.79310525000002,194.97867235000004,74.0,100.0
274,195.10238375000003,195.5250643666667,74.0,100.0
275,195.72094075000004,195.99542541875005,67.0,92.0
276,196.03021925000004,196.34594105208336,70.0,98.0
277,196.33949775000002,196.70676596875003,72.0,96.0
278,196.64877625000003,197.29826110000002,74.0,106.0
279,197.26733325000004,198.93730800000003,72.0,103.0
280,199.69980800000002,199.87855800000003,74.0,99.0
281,199.99980800000003,200.16730800000002,74.0,95.0
282,200.299808,200.56480800000003,74.0,99.0
283,200.59980800000002,200.90702457083336,67.0,93.0
284,200.90444725000003,201.63769502708337,70.0,103.0
285,201.83228275000002,202.15942200000003,72.0,98.0
286,202.13692200000003,202.59692200000003,74.0,103.0
287,202.73692200000002,203.01567200000002,74.0,97.0
288,203.03692200000003,203.35358866666667,67.0,93.0
289,203.343172,203.936922,70.0,100.0
290,204.58692200000002,204.759422,69.0,99.0
291,204.886922,205.01942200000002,69.0,97.0
292,205.186922,205.528172,69.0,89.0
293,205.48692200000002,205.779422,67.0,93.0
294,205.786922,206.075672,65.0,83.0
295,206.08692200000002,206.27317200000002,67.0,90.0
296,206.23692200000002,206.40067200000001,65.0,84.0
297,206.386922,206.70317200000002,62.0,84.0
298,206.686922,207.01400533333336,65.0,93.0
299,206.99317200000002,208.7763553229167,67.0,108.0
300,209.47867525,209.64877842500002,74.0,97.0
301,209.78795375,209.96192290625,74.0,95.0
302,210.09723225000002,210.36656227708335,74.0,98.0
303,210.40651075000002,210.66115000000002,67.0,93.0
304,210.71115000000003,211.44365000000002,70.0,98.0
305,211.61115000000004,211.94740000000002,72.0,103.0
306,211.91115000000002,212.11865000000003,74.0,98.0
307,212.21115000000003,212.42036053125003,74.0,99.0
308,212.51904475000003,212.78746582500003,74.0,97.0
309,212.83483425000003,213.15647900000002,67.0,90.0
310,213.14272900000003,213.94647900000004,70.0,96.0
311,214.348979,214.51173941666667,69.0,97.0
312,214.661479,214.88220268958335,69.0,100.0
313,214.97562375,215.28088693333333,69.0,101.0
314,215.29141325,215.628058,67.0,98.0
315,215.599308,215.925558,65.0,98.0
316,215.899308,216.083058,67.0,85.0
317,216.049308,216.204308,65.0,90.0
318,216.199308,216.505558,62.0,91.0
319,216.499308,216.819308,65.0,90.0
320,216.799308,218.69446119791667,67.0,106.0
321,219.25185925000002,219.46104295833334,69.0,97.0
322,219.55798175,219.726349125,69.0,92.0
323,219.86410425000003,220.21104308333335,69.0,84.0
324,220.17022675,220.47328800000003,67.0,89.0
325,220.47328800000003,221.244538,65.0,87.0
326,221.07328800000002,223.48571100000004,62.0,67.0
327,223.50108300000002,224.77130533750005,65.0,94.0
328,224.70306718125005,228.83129709791672,67.0,92.0
