,start,end,pitch,velocity
0,1.3775512499999998,1.6122451666666666,67.0,70.0
1,1.6836737499999999,1.9579084895833332,58.0,47.0
2,1.9897962499999997,2.2130105729166663,67.0,49.0
3,2.29591875,2.5293371562499996,58.0,39.0
4,2.6020412499999996,2.830357614583333,67.0,47.0
5,1.3775512499999998,3.076531125,55.0,64.0
6,1.3775512499999998,3.077806635416666,43.0,66.0
7,2.90816375,3.170918895833333,58.0,49.0
8,3.21428625,3.45918425,67.0,62.0
9,3.5204087499999996,3.855867989583333,58.0,57.0
10,3.8265312499999995,4.1505108958333325,67.0,64.0
11,3.8265312499999995,4.160714979166666,62.0,64.0
12,4.132653749999999,4.437500739583333,58.0,59.0
13,4.438776249999999,4.738521197916667,67.0,63.0
14,4.438776249999999,4.7895416145833325,62.0,55.0
15,4.74489875,5.036990635416666,58.0,52.0
16,5.05102125,5.2908172083333325,67.0,60.0
17,5.05102125,5.355868239583333,62.0,64.0
18,5.35714375,5.686225437499999,58.0,60.0
19,3.8265312499999995,5.707909114583333,43.0,60.0
20,3.8265312499999995,5.7780621875,55.0,54.0
21,5.6632662499999995,5.860970364583332,67.0,67.0
22,5.6632662499999995,5.9464295625,62.0,69.0
23,5.969388749999999,6.345664322916666,58.0,55.0
24,6.275511249999999,6.5471949687499995,67.0,69.0
25,6.275511249999999,6.575256197916666,62.0,72.0
26,6.581633749999999,7.00637871875,58.0,59.0
27,6.887756249999999,7.191327729166666,62.0,63.0
28,6.887756249999999,7.269133864583333,67.0,72.0
29,7.19387875,7.539542072916666,58.0,57.0
30,7.5000012499999995,7.724491083333333,67.0,69.0
31,7.5000012499999995,7.774235989583333,62.0,67.0
32,6.275511249999999,7.945154385416666,55.0,57.0
33,6.275511249999999,8.007654395833333,43.0,67.0
34,7.806123749999999,8.067603385416666,58.0,55.0
35,8.11224625,8.290817708333332,67.0,70.0
36,8.11224625,8.367348333333332,62.0,66.0
37,8.418368749999999,8.679848385416665,58.0,60.0
38,8.418368749999999,8.718113697916666,48.0,59.0
39,8.72449125,9.047195385416666,62.0,69.0
40,8.72449125,9.093113760416665,67.0,67.0
41,9.030613749999999,9.257654604166666,58.0,47.0
42,9.33673625,9.622450583333332,62.0,61.0
43,9.33673625,9.720664885416666,67.0,61.0
44,9.642858749999998,10.044644531249999,58.0,48.0
45,9.94898125,10.205358843749998,62.0,61.0
46,9.94898125,10.386481322916666,67.0,59.0
47,10.255103749999998,10.489797666666666,58.0,49.0
48,8.72449125,10.582909927083332,43.0,76.0
49,10.561226249999999,10.765307916666666,67.0,63.0
50,10.561226249999999,10.869899770833332,62.0,72.0
51,10.86734875,11.158165124999998,58.0,51.0
52,11.173471249999999,11.443879458333333,63.0,61.0
53,11.173471249999999,11.498726406249999,67.0,58.0
54,11.47959375,11.871175447916665,60.0,58.0
55,11.785716249999998,12.091838749999999,63.0,57.0
56,11.785716249999998,12.192604072916666,67.0,52.0
57,12.091838749999999,12.49362453125,60.0,53.0
58,12.397961249999998,12.664542927083332,63.0,62.0
59,12.397961249999998,12.809951114583333,67.0,47.0
60,11.173471249999999,13.05995115625,36.0,58.0
61,12.704083749999999,13.09821646875,60.0,57.0
62,11.173471249999999,13.105869531249999,48.0,46.0
63,13.01020625,13.248726697916666,67.0,64.0
64,13.01020625,13.322706302083333,63.0,62.0
65,13.316328749999998,13.656890031249999,60.0,56.0
66,13.62245125,13.989798249999998,62.0,70.0
67,13.62245125,14.039543156249998,67.0,67.0
68,13.928573749999998,14.307400343749999,58.0,54.0
69,14.234696249999999,14.599492229166666,62.0,69.0
70,14.234696249999999,14.622451416666665,67.0,66.0
71,14.540818749999998,14.922196364583332,58.0,62.0
72,14.846941249999999,15.156890281249998,62.0,66.0
73,14.846941249999999,15.258931114583332,67.0,70.0
74,15.15306375,15.544645447916665,58.0,66.0
75,13.62245125,15.678574041666666,43.0,56.0
76,13.62245125,15.687502614583332,55.0,59.0
77,15.459186249999998,15.755104666666664,67.0,73.0
78,15.459186249999998,16.057400635416666,62.0,82.0
79,16.07143125,16.141584322916664,58.0,54.0
80,15.765308749999999,16.145410854166666,50.0,78.0
81,16.07143125,16.406890489583333,62.0,60.0
82,16.07143125,16.443880291666666,67.0,73.0
83,16.377553749999997,16.748727281249998,58.0,59.0
84,16.683676249999998,17.01913548958333,62.0,70.0
85,16.683676249999998,17.0892885625,67.0,61.0
86,16.98979875,17.266584510416664,58.0,61.0
87,17.29592125,17.619900895833332,62.0,66.0
88,17.29592125,17.631380489583332,67.0,69.0
89,16.07143125,17.764033572916667,55.0,82.0
90,17.60204375,17.83418664583333,58.0,59.0
91,16.07143125,17.83546215625,43.0,72.0
92,17.908166249999997,18.051023416666666,67.0,61.0
93,17.908166249999997,18.250003041666666,62.0,63.0
94,18.214288749999998,18.487247979166664,58.0,69.0
95,18.52041125,18.81505415625,65.0,59.0
96,18.52041125,18.942605197916667,62.0,70.0
97,18.82653375,19.18240115625,57.0,63.0
98,19.132656249999997,19.35842159375,65.0,46.0
99,19.132656249999997,19.5306155,62.0,66.0
100,19.438778749999997,19.823982895833332,57.0,59.0
101,19.744901249999998,20.012758437499997,65.0,70.0
102,19.744901249999998,20.11097273958333,62.0,72.0
103,18.52041125,20.330360531249998,38.0,66.0
104,20.05102375,20.34566665625,57.0,59.0
105,18.52041125,20.422197281249996,50.0,60.0
106,20.35714625,20.582911593749998,62.0,54.0
107,20.35714625,20.595666697916666,65.0,52.0
108,20.663268749999997,20.928574916666665,57.0,59.0
109,20.969391249999997,21.313779062499997,62.0,70.0
110,20.969391249999997,21.31633008333333,67.0,69.0
111,21.27551375,21.641585239583332,58.0,56.0
112,21.58163625,21.946432229166664,62.0,67.0
113,21.887758749999996,22.22704452083333,65.0,54.0
114,22.193881249999997,22.36479964583333,67.0,63.0
115,22.500003749999998,22.761483385416664,70.0,62.0
116,22.80612625,23.010207916666666,72.0,82.0
117,23.11224875,23.53189167708333,74.0,59.0
118,23.418371249999996,23.702810072916666,79.0,64.0
119,21.27551375,24.123728510416665,50.0,58.0
120,23.418371249999996,24.45536121875,55.0,51.0
121,24.64286125,24.93240211458333,57.0,69.0
122,24.948983749999996,25.22704502083333,58.0,67.0
123,24.33673875,25.43877975,50.0,49.0
124,25.255106249999997,25.540820583333332,62.0,73.0
125,20.969391249999997,25.658167541666664,43.0,62.0
126,25.561228749999998,25.897963499999996,67.0,51.0
127,26.479596249999997,26.825259572916664,57.0,58.0
128,26.785718749999997,27.112249416666664,58.0,67.0
129,27.091841249999998,27.372453541666665,62.0,63.0
130,27.39796375,27.755106666666663,58.0,64.0
131,25.86735125,28.03189242708333,43.0,64.0
132,26.173473749999996,28.04337202083333,55.0,70.0
133,27.704086249999996,28.056127124999996,67.0,67.0
134,28.010208749999997,28.765310916666664,65.0,64.0
135,28.92857625,29.3265355,58.0,69.0
136,28.62245375,29.580362072916664,55.0,69.0
137,29.234698749999996,29.844392729166664,62.0,67.0
138,28.316331249999998,30.44643364583333,43.0,66.0
139,29.540821249999997,30.463015281249998,67.0,70.0
140,29.846943749999998,30.491076510416665,55.0,48.0
141,30.15306625,30.521688760416662,58.0,50.0
142,30.459188749999996,31.375005229166664,65.0,62.0
143,31.377556249999998,32.067607385416665,55.0,70.0
144,31.68367875,32.33546457291666,58.0,54.0
145,31.989801249999996,32.36990335416667,62.0,72.0
146,32.29592375,32.69898504166667,55.0,59.0
147,31.071433749999997,32.767862604166666,50.0,72.0
148,30.765311249999996,32.78571975,43.0,70.0
149,32.602046249999994,32.992352437499996,58.0,60.0
150,32.908168749999994,33.647964791666666,65.0,66.0
151,33.82653625,34.50510779166666,53.0,66.0
152,34.13265875,34.757658854166664,57.0,49.0
153,34.43878125,34.80485273958333,60.0,70.0
154,33.214291249999995,35.12245483333333,41.0,67.0
155,33.520413749999996,35.2040875,48.0,64.0
156,35.05102625,35.40179161458333,57.0,57.0
157,34.74490375,35.62755695833333,53.0,63.0
158,35.35714874999999,35.73214881249999,65.0,66.0
159,35.663271249999994,36.3290876875,62.0,70.0
160,36.581638749999996,36.82526123958333,57.0,49.0
161,36.275516249999995,36.868628593749996,55.0,72.0
162,36.88776125,37.21301640625,58.0,75.0
163,35.663271249999994,37.645414437499994,43.0,73.0
164,37.19388375,37.70281240625,55.0,62.0
165,35.969393749999995,37.774240989583326,50.0,63.0
166,37.50000625,37.774240989583326,58.0,62.0
167,37.80612875,38.54720030208333,62.0,69.0
168,39.030618749999995,39.30740451041666,57.0,61.0
169,38.724496249999994,39.38138411458333,55.0,69.0
170,39.336741249999996,39.69771069791666,58.0,73.0
171,38.11225125,40.05740463541666,43.0,72.0
172,38.41837374999999,40.06888422916666,50.0,72.0
173,39.64286375,40.07526178125,55.0,57.0
174,39.94898625,40.224496499999994,57.0,55.0
175,40.25510875,40.71684352083333,62.0,61.0
176,40.56123125,40.71684352083333,62.0,56.0
177,41.17347624999999,41.603323260416666,53.0,53.0
178,40.86735375,41.79592533333333,50.0,62.0
179,41.785721249999995,41.91072127083333,53.0,29.0
180,41.479598749999994,42.0382723125,57.0,64.0
181,40.56123125,42.424751968749995,38.0,64.0
182,41.785721249999995,42.49107851041666,62.0,73.0
183,42.091843749999995,42.529343822916665,50.0,47.0
184,42.397966249999996,42.67985405208333,53.0,56.0
185,42.70408875,43.01658880208333,60.0,63.0
186,43.01021125,43.63903788541666,58.0,63.0
187,43.92857874999999,44.188782874999994,57.0,64.0
188,44.23470124999999,44.40817066666666,58.0,61.0
189,44.540823749999994,44.85587482291666,62.0,76.0
190,43.31633375,44.913272791666664,50.0,55.0
191,43.01021125,44.934956468749995,43.0,62.0
192,43.62245625,44.95919116666666,55.0,63.0
193,44.846946249999995,45.109701395833326,67.0,56.0
194,45.153068749999996,45.43878308333333,69.0,61.0
195,45.459191249999996,46.32653833333333,74.0,61.0
196,46.07143625,46.775518,63.0,52.0
197,46.37755875,47.05230376041666,67.0,45.0
198,46.68368124999999,47.07908947916666,70.0,47.0
199,45.459191249999996,47.56378343749999,51.0,60.0
200,45.76531375,47.75000795833333,58.0,52.0
201,46.98980374999999,47.85077328124999,63.0,46.0
202,47.295926249999994,47.94516105208333,67.0,54.0
203,47.602048749999994,47.984701875,74.0,60.0
204,47.908171249999995,48.548477479166664,72.0,62.0
205,48.82653875,49.20026330208333,69.0,40.0
206,49.13266125,49.75383482291666,70.0,55.0
207,48.52041625,49.868630760416664,67.0,45.0
208,47.908171249999995,49.869906270833326,55.0,56.0
209,48.214293749999996,49.94898791666666,62.0,49.0
210,49.74490624999999,50.30230430208333,72.0,52.0
211,50.357151249999994,51.04337585416666,74.0,47.0
212,51.275518749999996,51.66837595833333,69.0,55.0
213,51.58164125,51.84439639583333,70.0,56.0
214,50.969396249999996,51.89031477083333,67.0,43.0
215,50.357151249999994,51.95409029166666,55.0,52.0
216,50.663273749999995,52.09949847916666,62.0,56.0
217,51.88776375,52.13266175,72.0,56.0
218,52.19388625,52.49363119791666,74.0,46.0
219,52.50000874999999,52.84567207291666,77.0,44.0
220,52.80613124999999,53.457917072916665,72.0,56.0
221,53.112253749999994,54.08546819791666,60.0,55.0
222,53.724498749999995,54.29975394791666,67.0,46.0
223,53.418376249999994,54.30868252083333,65.0,43.0
224,52.80613124999999,54.448988666666665,53.0,44.0
225,54.030621249999996,54.61352951041666,72.0,58.0
226,54.33674375,54.79720301041666,60.0,44.0
227,54.64286625,54.915825479166664,67.0,39.0
228,54.94898875,55.48342761458333,69.0,59.0
229,55.56123374999999,56.459193083333325,62.0,46.0
230,56.173478749999994,56.655621687499995,69.0,44.0
231,55.25511124999999,56.801029875,55.0,49.0
232,55.86735624999999,56.81633599999999,67.0,48.0
233,56.479601249999995,56.89414213541666,70.0,53.0
234,56.785723749999995,57.28062179166666,62.0,46.0
235,57.091846249999996,57.3750095625,72.0,56.0
236,57.39796875,57.52679530208333,74.0,48.0
237,57.70409125,58.32016278125,70.0,44.0
238,57.70409125,58.36863217708333,74.0,55.0
239,58.01021374999999,58.966846562499995,62.0,54.0
240,58.62245874999999,59.02934657291666,69.0,44.0
241,58.31633624999999,59.06888739583333,67.0,49.0
242,58.92858124999999,59.37883642708333,70.0,62.0
243,57.70409125,59.387764999999995,55.0,46.0
244,59.234703749999994,59.53444869791666,62.0,60.0
245,59.540826249999995,59.83546915624999,72.0,61.0
246,59.846948749999996,60.183683499999994,74.0,57.0
247,60.153071249999996,60.70281623958333,69.0,53.0
248,60.76531624999999,61.19516326041666,62.0,47.0
249,60.45919375,61.34439797916666,57.0,40.0
250,61.07143874999999,61.40944901041666,65.0,41.0
251,61.37756124999999,61.71557151041666,69.0,64.0
252,60.153071249999996,61.989806249999994,50.0,45.0
253,61.68368374999999,62.14669403124999,60.0,46.0
254,61.989806249999994,62.311234875,65.0,55.0
255,62.295928749999995,62.57654104166666,69.0,57.0
256,62.602051249999995,63.07909214583333,70.0,64.0
257,62.602051249999995,63.16582685416666,62.0,52.0
258,63.52041875,63.83291880208333,57.0,50.0
259,63.82654124999999,64.16710253125,58.0,49.0
260,64.13266374999999,64.43368420833333,60.0,37.0
261,62.602051249999995,64.54975565625,43.0,44.0
262,63.21429625,64.59694954166666,55.0,46.0
263,64.43878624999999,64.71939854166666,62.0,56.0
264,62.908173749999996,64.78189855208333,50.0,48.0
265,64.74490875,65.56506194791666,57.0,44.0
266,65.96939875,66.34312330208333,57.0,44.0
267,66.27552125,66.84057236458332,58.0,70.0
268,65.66327625,67.01149076041666,55.0,51.0
269,65.35715375,67.03444994791666,50.0,53.0
270,65.05103125,67.13138873958333,43.0,59.0
271,66.88776625,67.15689894791666,57.0,48.0
272,66.88776625,67.18240915624999,60.0,54.0
273,67.19388875,67.44388879166667,58.0,60.0
274,67.19388875,67.46684797916666,62.0,61.0
275,67.50001125,68.13011339583333,62.0,66.0
276,67.50001125,68.19899095833333,58.0,64.0
277,68.11225624999999,68.78317472916666,55.0,50.0
278,68.41837874999999,68.7933788125,57.0,49.0
279,68.72450124999999,69.22322582291666,58.0,67.0
280,67.80613374999999,69.42092993749999,50.0,56.0
281,67.50001125,69.59312384374999,43.0,64.0
282,69.03062374999999,69.60587894791666,55.0,58.0
283,69.33674624999999,69.60842996874999,60.0,64.0
284,69.64286874999999,70.59439952083332,62.0,60.0
285,70.86735875,71.14286899999999,57.0,45.0
286,70.56123625,71.26149146875,55.0,58.0
287,70.25511374999999,71.35587923958333,50.0,62.0
288,71.17348125,71.56123641666666,58.0,61.0
289,69.94899124999999,71.99618546875,43.0,59.0
290,71.47960375,71.99746097916666,55.0,51.0
291,71.47960375,72.04975690625,50.0,27.0
292,71.78572625,72.04975690625,57.0,55.0
293,72.09184875,72.45026717708333,58.0,62.0
294,72.39797125,73.04337952083333,60.0,58.0
295,73.31633875,73.55741021875,57.0,42.0
296,73.01021625,73.61863471874999,55.0,49.0
297,72.70409375,73.75383882291666,50.0,46.0
298,73.62246124999999,74.08929806249999,62.0,62.0
299,72.39797125,74.36608382291666,43.0,57.0
300,73.92858374999999,74.41965526041666,55.0,70.0
301,73.92858374999999,74.45664506249999,50.0,30.0
302,74.23470624999999,74.48215527083333,57.0,56.0
303,74.54082874999999,74.89797166666666,62.0,55.0
304,74.84695124999999,75.40307379166666,60.0,63.0
305,75.45919624999999,76.11353309375,53.0,53.0
306,75.76531874999999,76.44771682291666,57.0,52.0
307,76.07144124999999,76.56889031249999,65.0,64.0
308,76.37756375,76.85715566666666,53.0,58.0
309,75.15307374999999,76.90690057291665,48.0,47.0
310,74.84695124999999,76.91455363541665,41.0,59.0
311,76.68368625,76.92220669791666,57.0,49.0
312,76.98980875,77.26021695833333,60.0,66.0
313,77.29593125,77.72832928125,62.0,60.0
314,78.21429875,78.53190084375,60.0,56.0
315,77.90817625,78.90690090624999,55.0,72.0
316,78.52042125,78.95026826041666,62.0,62.0
317,78.82654375,79.20026830208333,67.0,62.0
318,77.60205375,79.30868668749999,50.0,56.0
319,77.29593125,79.35205404166666,43.0,61.0
320,79.13266624999999,79.362258125,65.0,60.0
321,79.43878874999999,79.73343165624999,60.0,48.0
322,79.74491124999999,80.30996236458333,43.0,59.0
323,80.05103374999999,80.37883992708332,50.0,61.0
324,79.74491124999999,80.67475834374999,62.0,66.0
325,80.35715624999999,80.74363590624999,55.0,63.0
326,80.66327874999999,81.54975848958333,57.0,63.0
327,81.27552374999999,81.79465648958333,60.0,50.0
328,80.96940124999999,81.79848302083333,58.0,67.0
329,81.58164624999999,81.82271771875,65.0,69.0
330,81.88776874999999,82.16200348958333,67.0,59.0
331,82.19389125,82.91072810416667,69.0,66.0
332,82.80613625,83.47577921874999,62.0,67.0
333,83.11225875,83.55358535416666,65.0,57.0
334,83.41838125,83.93751398958332,72.0,73.0
335,83.72450375,83.96174868749999,62.0,52.0
336,82.50001375,84.13649361458333,57.0,53.0
337,82.19389125,84.13904463541665,50.0,62.0
338,84.03062625,84.28827935416666,69.0,63.0
339,84.33674875,84.69134064583332,65.0,60.0
340,84.64287125,84.96174885416666,67.0,64.0
341,85.56123874999999,85.83802451041666,57.0,56.0
342,85.56123874999999,85.83802451041666,60.0,62.0
343,85.25511624999999,85.92348370833332,55.0,72.0
344,85.86736124999999,86.16710619791665,58.0,69.0
345,85.86736124999999,86.20409599999999,62.0,72.0
346,86.17348374999999,86.54593279166666,55.0,49.0
347,86.47960624999999,86.65817770833333,62.0,61.0
348,84.94899374999999,86.71557567708332,50.0,47.0
349,86.47960624999999,86.77807568749999,67.0,63.0
350,84.64287125,86.83930018749999,43.0,64.0
351,86.78572874999999,86.85843284375,50.0,45.0
352,86.78572874999999,86.88649407291666,55.0,69.0
353,87.09185124999999,87.37884109375,39.0,69.0
354,87.09185124999999,87.42986151041666,55.0,62.0
355,87.09185124999999,87.64669828125,58.0,70.0
356,87.09185124999999,87.71047380208333,63.0,66.0
357,87.39797374999999,87.7347085,51.0,59.0
358,88.01021874999999,88.41838208333333,55.0,70.0
359,88.31634125,88.73981070833332,58.0,73.0
360,88.31634125,88.77169846874999,63.0,70.0
361,88.31634125,88.80231071875,67.0,64.0
362,88.62246375,88.95409645833332,55.0,60.0
363,87.70409624999999,89.0127699375,53.0,61.0
364,88.92858625,89.07909647916667,63.0,47.0
365,88.92858625,89.11225974999999,58.0,61.0
366,88.92858625,89.31123937499999,70.0,70.0
367,89.23470875,89.50129042708332,69.0,67.0
368,89.54083125,90.02935173958332,62.0,66.0
369,89.54083125,90.03445378125,67.0,73.0
370,89.54083125,90.08037215625,43.0,64.0
371,89.84695375,90.16455584375,69.0,62.0
372,89.84695375,90.198994625,50.0,62.0
373,90.15307625,90.41710690625,67.0,64.0
374,90.15307625,90.50894365625,55.0,52.0
375,90.45919874999998,90.78955594791665,65.0,73.0
376,90.76532124999999,91.24618867708332,62.0,62.0
377,90.76532124999999,91.54593362499999,58.0,75.0
378,90.45919874999998,91.55868872916666,57.0,62.0
379,91.37756624999999,91.65817854166666,67.0,63.0
380,91.68368874999999,91.90562756249999,70.0,58.0
381,91.98981124999999,92.55613787499999,43.0,73.0
382,92.29593374999999,92.63394401041666,50.0,69.0
383,92.60205624999999,92.98598488541666,55.0,69.0
384,91.98981124999999,93.06506653125,62.0,64.0
385,91.98981124999999,93.20792369791666,69.0,70.0
386,93.52042374999999,93.75384215624999,62.0,69.0
387,93.21430124999999,93.811240125,58.0,75.0
388,92.90817874999999,93.86863809375,57.0,61.0
389,93.82654624999999,94.14032181249999,67.0,72.0
390,94.13266875,94.34312796875,70.0,54.0
391,94.43879125,94.83037294791666,60.0,67.0
392,94.43879125,94.84950560416665,65.0,72.0
393,94.43879125,94.93113827083333,69.0,67.0
394,94.43879125,94.96557705208332,41.0,72.0
395,94.74491375,95.06251584374999,48.0,66.0
396,95.05103625,95.39287304166666,53.0,67.0
397,95.96940375,96.19006705208332,82.0,73.0
398,95.66328125,96.3750160625,57.0,59.0
399,96.27552624999998,96.40307729166666,58.0,67.0
400,95.35715875,96.41838341666666,55.0,50.0
401,96.27552624999998,96.49236302083332,81.0,61.0
402,96.58164874999999,96.91073043749999,77.0,62.0
403,96.88777124999999,97.19261823958333,79.0,73.0
404,97.50001624999999,97.80358772916665,57.0,75.0
405,97.80613874999999,98.06379185416665,58.0,61.0
406,97.346955,98.13649594791666,55.0,64.0
407,98.11226124999999,98.38139394791666,60.0,64.0
408,98.41838374999999,98.68113889583333,62.0,67.0
409,96.88777124999999,98.86736341666666,43.0,70.0
410,98.72450624999999,98.87374096874998,58.0,67.0
411,98.72450624999999,98.88649607291666,65.0,70.0
412,98.72450624999999,98.89925117708333,55.0,49.0
413,99.03062874999999,99.09567978124998,58.0,46.0
414,97.19389374999999,99.20920020833333,50.0,64.0
415,99.03062874999999,99.20920020833333,57.0,58.0
416,99.03062874999999,99.31124104166666,62.0,53.0
417,99.33675124999999,99.54976148958332,57.0,53.0
418,99.33675124999999,99.65052681249999,60.0,75.0
419,99.64287374999999,99.76914928125,58.0,64.0
420,99.64287374999999,99.80869010416666,62.0,64.0
421,99.94899625,100.15945546875,62.0,72.0
422,99.94899625,100.19644527083332,58.0,69.0
423,100.25511875,100.49874123958332,57.0,60.0
424,100.25511875,100.50256777083332,60.0,66.0
425,100.56124125,100.98215968749999,58.0,76.0
426,100.86736375,101.18624135416665,55.0,78.0
427,99.64287374999999,101.21047605208332,50.0,69.0
428,99.33675124999999,101.21557809375,43.0,70.0
429,101.17348625,101.36098628124999,57.0,76.0
430,101.32654749999999,101.51914957291666,58.0,54.0
431,101.47960875,101.70409858333332,60.0,58.0
432,101.63266999999999,101.75639451041665,62.0,44.0
433,101.78573124999998,101.89925167708333,60.0,59.0
434,101.78573124999998,102.03190476041665,38.0,72.0
435,101.78573124999998,102.41455788541666,57.0,66.0
436,102.09185374999998,102.45920075,50.0,60.0
437,101.78573124999998,102.74491508333332,65.0,61.0
438,103.01022124999999,103.19644577083332,60.0,66.0
439,102.70409874999999,103.34312946874999,57.0,73.0
440,103.469405,103.54083358333332,57.0,32.0
441,103.01022124999999,103.5535886875,65.0,67.0
442,103.62246624999999,103.77170096875,57.0,52.0
443,103.62246624999999,103.77170096875,60.0,69.0
444,103.62246624999999,103.82909893749999,67.0,70.0
445,102.39797624999999,103.87756833333333,53.0,59.0
446,103.92858874999999,104.05613979166665,69.0,64.0
447,103.92858874999999,104.07017040624999,62.0,64.0
448,104.23471124999999,104.78318072916666,43.0,72.0
449,104.54083374999999,104.84568073958333,50.0,56.0
450,104.84695624999999,105.19899712499999,55.0,50.0
451,104.23471124999999,105.52297677083332,62.0,64.0
452,104.23471124999999,105.53062983333332,70.0,75.0
453,105.76532375,105.95154827083333,62.0,61.0
454,105.45920124999999,106.02042583333332,58.0,69.0
455,105.15307874999999,106.05358910416666,57.0,55.0
456,106.07144625,106.30996669791665,67.0,53.0
457,106.37756875,106.61864021874999,69.0,72.0
458,106.68369125,107.10843621874999,70.0,59.0
459,106.68369125,107.11608928124998,62.0,63.0
460,106.68369125,107.14797704166665,67.0,67.0
461,107.29593625,107.62629344791665,62.0,57.0
462,107.29593625,107.6556301875,67.0,61.0
463,107.29593625,107.66455876041665,70.0,63.0
464,107.60205874999998,107.91073227083332,55.0,37.0
465,107.90818124999998,108.17858945833332,60.0,63.0
466,107.90818124999998,108.30358947916666,69.0,69.0
467,107.29593625,108.45665072916665,50.0,30.0
468,108.21430374999998,108.57654870833332,55.0,34.0
469,108.52042624999999,108.64287524999999,67.0,72.0
470,108.52042624999999,108.66328341666666,60.0,70.0
471,106.68369125,108.88649773958332,43.0,70.0
472,108.82654874999999,109.13139573958333,50.0,56.0
473,109.13267124999999,109.45409987499998,58.0,63.0
474,109.13267124999999,109.46047742708332,62.0,67.0
475,109.13267124999999,109.48981416666666,67.0,63.0
476,109.74491624999999,109.99491629166666,58.0,57.0
477,109.74491624999999,110.03190609375,62.0,60.0
478,109.74491624999999,110.17476326041665,67.0,60.0
479,110.05103874999999,110.3877735,55.0,49.0
480,110.35716124999999,110.54338577083332,57.0,67.0
481,110.35716124999999,110.65052864583332,62.0,63.0
482,110.35716124999999,110.73088580208332,65.0,73.0
483,109.43879374999999,110.87246745833332,50.0,47.0
484,110.66328374999999,110.94134502083332,55.0,36.0
485,109.13267124999999,111.11864096874999,43.0,67.0
486,110.96940624999999,111.14160015624999,58.0,69.0
487,110.96940624999999,111.17476342708332,62.0,72.0
488,110.96940624999999,111.19899812499999,67.0,69.0
489,111.27552874999999,111.33802876041666,50.0,52.0
490,111.58165125,111.87374313541666,38.0,70.0
491,111.58165125,111.98471254166665,69.0,67.0
492,111.58165125,111.99236560416665,60.0,55.0
493,111.58165125,111.99746764583332,65.0,66.0
494,111.88777375,112.28700851041665,50.0,58.0
495,112.19389625,112.38649832291665,60.0,62.0
496,112.19389625,112.40435546874998,65.0,62.0
497,112.19389625,112.44262078124999,69.0,67.0
498,112.50001875,112.637773875,60.0,51.0
499,112.50001875,112.73216164583333,67.0,64.0
500,112.80614125,112.96558005208333,65.0,66.0
501,112.80614125,113.09568211458333,69.0,64.0
502,113.11226374999998,113.23981479166666,65.0,58.0
503,113.11226374999998,113.26404948958333,72.0,56.0
504,113.11226374999998,113.38904951041665,60.0,55.0
505,112.50001875,113.42476380208332,57.0,45.0
506,112.19389625,113.45537605208332,53.0,61.0
507,113.41838624999998,113.54593729166666,65.0,64.0
508,113.41838624999998,113.67221282291666,69.0,67.0
509,113.72450874999998,113.94772307291666,65.0,66.0
510,114.03063124999998,114.29593741666666,67.0,61.0
511,114.94899874999999,115.28573349999999,57.0,60.0
512,115.25512124999999,115.34440697916665,58.0,59.0
513,115.4081825,115.56889681249999,62.0,78.0
514,115.56124374999999,115.74109071874999,67.0,54.0
515,115.714305,115.82399889583333,69.0,80.0
516,115.86736624999999,116.09313159374999,70.0,91.0
517,116.02042749999998,116.18241732291665,72.0,73.0
518,116.17348874999999,116.32654999999998,74.0,80.0
519,114.33675374999999,116.46813165625,50.0,64.0
520,116.32654999999998,116.47706022916665,77.0,54.0
521,114.64287624999999,116.48216227083333,55.0,76.0
522,114.03063124999998,116.52935615624999,43.0,69.0
523,116.47961124999999,116.52935615624999,43.0,69.0
524,116.78573374999999,117.13267258333332,50.0,55.0
525,117.09185624999999,117.51277468749998,55.0,61.0
526,116.47961124999999,117.99746864583332,79.0,67.0
527,116.47961124999999,118.01660130208332,74.0,72.0
528,116.47961124999999,118.03573395833332,70.0,67.0
529,118.01022375,118.52808097916666,62.0,58.0
530,117.39797875,118.54593812499999,57.0,51.0
531,118.31634625,118.56379527083332,67.0,62.0
532,117.70410125,118.56889731249998,58.0,62.0
533,118.62246874999998,118.97833615625,70.0,61.0
534,118.92859124999998,119.29338722916665,69.0,69.0
535,119.23471374999998,119.68114239583332,70.0,50.0
536,119.54083624999998,119.88777508333332,69.0,59.0
537,119.84695874999998,120.06379552083332,70.0,23.0
538,119.84695874999998,120.14032614583333,62.0,54.0
539,120.15308124999999,120.69262215624998,67.0,56.0
540,119.54083624999998,120.69899970833332,58.0,40.0
541,120.15308124999999,120.70282623958332,62.0,47.0
542,119.08165249999999,120.78445890625,55.0,46.0
543,121.37757124999999,121.65053047916666,38.0,51.0
544,121.68369374999999,122.04083666666665,50.0,57.0
545,121.37757124999999,122.33930610416665,65.0,66.0
546,121.37757124999999,122.35971427083332,60.0,57.0
547,122.60206124999999,123.04848989583333,60.0,55.0
548,122.29593874999999,123.428592,57.0,64.0
549,121.98981624999999,123.52297977083332,53.0,57.0
550,122.90818374999999,123.54466344791666,65.0,59.0
551,123.52042875,123.68879612499998,62.0,57.0
552,123.82655125,124.34313296874998,58.0,49.0
553,123.82655125,124.86354121874999,67.0,60.0
554,124.74491874999998,124.94389837499999,58.0,46.0
555,124.74491874999998,125.03063308333333,62.0,54.0
556,125.05104124999998,125.34951068749999,60.0,50.0
557,125.35716374999998,125.62246991666666,62.0,40.0
558,123.82655125,125.88139853124999,43.0,57.0
559,124.43879624999998,125.91583731249999,55.0,54.0
560,125.66328624999998,125.93369445833332,58.0,51.0
561,124.13267375,126.00257202083333,50.0,53.0
562,125.96940874999999,126.92986809374999,57.0,46.0
563,127.19389874999999,127.44644981249999,60.0,43.0
564,127.50002124999999,128.09313359375,58.0,55.0
565,126.88777624999999,128.32144995833332,55.0,47.0
566,128.11226624999998,128.40946017708333,57.0,35.0
567,126.58165374999999,128.44007242708332,50.0,46.0
568,126.27553124999999,128.50384794791665,43.0,45.0
569,128.41838875,128.71558267708332,58.0,44.0
570,128.72451124999998,129.30486848958333,62.0,63.0
571,128.72451124999998,129.33165420833333,58.0,60.0
572,128.72451124999998,129.36354196874998,67.0,66.0
573,129.03063375,129.99236860416664,50.0,52.0
574,129.64287875,130.05997065625,57.0,51.0
575,129.94900124999998,130.33420539583332,58.0,69.0
576,129.33675624999998,130.57782788541667,55.0,50.0
577,128.72451124999998,130.68114422916665,43.0,64.0
578,130.56124624999998,130.81124629166666,60.0,62.0
579,130.25512375,130.94517488541666,50.0,49.0
580,130.86736875,131.158185125,65.0,66.0
581,131.17349124999998,131.8150729895833,62.0,57.0
582,131.17349124999998,131.91328729166665,58.0,60.0
583,132.09185875,132.29466490624998,57.0,56.0
584,132.09185875,132.3507873645833,60.0,62.0
585,131.47961375,132.4349710520833,50.0,56.0
586,132.39798125,132.54594045833332,58.0,62.0
587,132.39798125,132.70410375,62.0,64.0
588,131.78573624999999,132.83930785416666,55.0,46.0
589,132.70410375,132.88395071875,65.0,66.0
590,132.70410375,133.0625221770833,58.0,50.0
591,131.17349124999998,133.11736912499998,43.0,57.0
592,133.01022625,133.28190996875,60.0,67.0
593,133.31634874999997,133.51787939583332,62.0,63.0
594,133.62247125,134.17604277083333,62.0,58.0
595,133.62247125,134.21430808333332,58.0,64.0
596,133.92859374999998,134.42731832291665,50.0,55.0
597,133.62247125,134.44517546875,43.0,69.0
598,134.23471625,134.45410404166665,55.0,60.0
599,134.54083874999998,134.79721634375,57.0,48.0
600,134.84696125,135.1250225208333,58.0,53.0
601,135.15308374999998,135.382675625,60.0,41.0
602,135.45920625,135.7372675208333,62.0,61.0
603,135.76532874999998,135.99874715624998,65.0,67.0
604,136.07145125,136.5064003020833,60.0,60.0
605,136.07145125,136.5382880625,65.0,33.0
606,136.07145125,136.64543093749998,57.0,48.0
607,136.98981874999998,137.20665552083332,55.0,52.0
608,137.29594125,137.45282903125,57.0,50.0
609,136.68369625,137.97323728125,53.0,56.0
610,137.90818625,138.0484923958333,57.0,60.0
611,137.90818625,138.05869647916666,60.0,67.0
612,137.90818625,138.07782913541666,65.0,70.0
613,136.07145125,138.2066556875,41.0,64.0
614,136.37757374999998,138.32145162499998,48.0,49.0
615,138.21430875,138.43752307291666,53.0,47.0
616,138.52043124999997,138.85333946875,58.0,58.0
617,138.52043124999997,138.87374763541666,62.0,70.0
618,138.52043124999997,138.90691090624998,67.0,62.0
619,138.52043124999997,139.0637986875,43.0,72.0
620,138.82655375,139.09058440624997,50.0,59.0
621,139.13267624999997,139.49492120833332,55.0,44.0
622,139.43879875,139.57782938541666,62.0,57.0
623,139.43879875,139.58930897916665,67.0,45.0
624,139.43879875,139.59313551041666,70.0,57.0
625,139.74492124999998,139.97068659374997,62.0,59.0
626,139.74492124999998,140.20027846874999,69.0,66.0
627,139.74492124999998,140.36226829166665,58.0,67.0
628,139.43879875,140.38140094791666,57.0,55.0
629,140.35716624999998,140.47833973958333,62.0,59.0
630,140.35716624999998,140.51660505208332,70.0,69.0
631,140.66328875,140.79339081249998,62.0,48.0
632,140.66328875,140.92859491666664,69.0,53.0
633,140.96941124999998,141.3750235625,62.0,61.0
634,140.96941124999998,141.3852276458333,67.0,60.0
635,141.88777875,142.1556359375,58.0,55.0
636,141.58165624999998,142.24237064583332,55.0,48.0
637,142.19390124999998,142.5408400833333,67.0,57.0
638,142.19390124999998,142.54211559375,58.0,44.0
639,142.19390124999998,142.54594212499998,62.0,72.0
640,142.50002375,142.80359522916666,55.0,48.0
641,140.96941124999998,142.84186054166665,43.0,64.0
642,141.27553375,142.8444115625,50.0,56.0
643,142.80614624999998,143.06379935416666,58.0,60.0
644,142.80614624999998,143.1377789583333,62.0,63.0
645,142.80614624999998,143.21813611458333,67.0,57.0
646,143.11226875,143.29849327083332,65.0,59.0
647,143.41839124999998,143.69135047916666,38.0,72.0
648,143.41839124999998,144.09313626041666,57.0,60.0
649,143.72451375,144.1097178958333,50.0,59.0
650,143.41839124999998,144.1913505625,62.0,63.0
651,143.41839124999998,144.28446282291665,65.0,57.0
652,144.33675874999997,144.95793232291666,57.0,67.0
653,144.64288125,144.96941191666664,62.0,67.0
654,144.94900374999997,145.32017728124998,65.0,69.0
655,145.25512625,145.39670790625,57.0,64.0
656,144.03063625,145.4158405625,53.0,61.0
657,145.25512625,145.5752793645833,60.0,59.0
658,145.56124874999998,145.81252430208332,62.0,58.0
659,145.86737125,146.28573866666665,58.0,58.0
660,145.86737125,146.36482031249997,65.0,70.0
661,146.78573874999998,147.02425919791665,57.0,62.0
662,147.09186125,147.29211638541665,58.0,76.0
663,147.39798374999998,147.79084095833332,62.0,72.0
664,145.86737125,147.83548382291664,43.0,62.0
665,146.47961625,147.84568790625,55.0,73.0
666,147.70410625,147.96175935416665,67.0,54.0
667,146.17349374999998,148.14160632291666,50.0,60.0
668,148.01022874999998,148.26150430208332,69.0,66.0
669,148.31635125,148.58038190624998,39.0,69.0
670,148.62247374999998,149.0191574895833,51.0,43.0
671,148.31635125,149.20920854166664,63.0,59.0
672,148.31635125,149.29721876041665,67.0,57.0
673,148.31635125,149.31635141666666,58.0,52.0
674,149.54084125,149.78318822916665,58.0,49.0
675,149.84696375,149.92987192708333,58.0,35.0
676,149.84696375,150.03446378125,63.0,67.0
677,149.23471874999998,150.17349441666664,55.0,55.0
678,148.92859625,150.22834136458331,53.0,60.0
679,150.15308624999997,150.4349740520833,67.0,59.0
680,150.45920875,150.77425982291666,70.0,49.0
681,150.76533124999997,151.10589253125,69.0,49.0
682,150.76533124999997,151.30487215624998,43.0,66.0
683,151.07145375,151.38650482291666,50.0,60.0
684,151.37757624999998,151.76660692708333,55.0,47.0
685,151.07145375,152.04211717708333,67.0,51.0
686,152.29594375,152.51405603125,62.0,60.0
687,151.98982124999998,152.66966830208332,58.0,70.0
688,151.68369875,152.69135197916665,57.0,56.0
689,152.60206624999998,152.85844384375,67.0,63.0
690,152.90818875,153.20283165625,69.0,66.0
691,153.21431124999998,153.62375009374998,70.0,80.0
692,153.21431124999998,153.68497459374998,62.0,69.0
693,154.13267875,154.34824001041665,58.0,58.0
694,153.82655624999998,154.54721963541664,55.0,60.0
695,154.43880124999998,154.80614824999998,58.0,56.0
696,154.43880124999998,154.83038294791666,67.0,70.0
697,154.43880124999998,154.83293396874998,62.0,73.0
698,153.21431124999998,155.12885238541665,43.0,72.0
699,154.74492375,155.21048505208333,55.0,48.0
700,153.52043375,155.25895444791666,50.0,66.0
701,155.05104624999998,155.31890343749998,58.0,60.0
702,155.35716874999997,155.56507694791665,67.0,66.0
703,155.66329125,156.21813828125,41.0,69.0
704,155.96941374999997,156.30997503125,48.0,58.0
705,156.27553625,156.66839345833333,53.0,54.0
706,155.66329125,156.94390370833332,65.0,72.0
707,157.19390374999998,157.41711807291665,60.0,44.0
708,156.88778125,157.5255364583333,57.0,67.0
709,156.58165874999997,157.53829156249998,55.0,56.0
710,157.50002625,157.70538342708332,65.0,59.0
711,157.80614874999998,158.0956896145833,67.0,59.0
712,158.11227125,158.67987338541664,43.0,72.0
713,158.11227125,158.72068971874998,70.0,67.0
714,158.41839374999998,158.72834278124998,50.0,63.0
715,158.11227125,158.7500264583333,62.0,61.0
716,158.26533249999997,158.8418632083333,67.0,23.0
717,158.72451625,159.09696529166666,55.0,57.0
718,159.33676125,159.69135314583332,62.0,57.0
719,159.33676125,159.73854703125,70.0,50.0
720,159.33676125,159.9324246145833,67.0,58.0
721,159.33676125,160.06507769791665,58.0,66.0
722,159.03063874999998,160.09313892708332,57.0,67.0
723,159.94900625,160.1658430208333,60.0,57.0
724,159.94900625,160.4260471458333,69.0,72.0
725,160.56125125,161.10716970833332,43.0,66.0
726,160.86737374999998,161.1875268645833,50.0,59.0
727,160.56125125,161.1964554375,70.0,66.0
728,160.56125125,161.37630240624998,62.0,69.0
729,160.56125125,161.4324248645833,67.0,69.0
730,161.17349624999997,161.5484963125,55.0,53.0
731,161.78574124999997,162.03446578125,62.0,72.0
732,161.78574124999997,162.15308825,70.0,66.0
733,161.78574124999997,162.23982295833332,67.0,70.0
734,161.78574124999997,162.2678841875,58.0,69.0
735,161.47961875,162.33165970833332,57.0,63.0
736,162.39798624999997,162.46941483333333,60.0,39.0
737,162.39798624999997,162.97706797916666,67.0,61.0
738,163.01023124999998,163.33803742708332,38.0,66.0
739,163.31635375,163.70921095833333,50.0,56.0
740,163.01023124999998,163.98727222916665,65.0,66.0
741,163.01023124999998,163.9974763125,69.0,60.0
742,163.01023124999998,164.01915998958333,60.0,57.0
743,164.23472124999998,164.45538455208333,60.0,61.0
744,163.92859875,164.70666010416664,57.0,64.0
745,163.62247624999998,164.79467032291666,53.0,64.0
746,164.54084375,164.9005376875,65.0,64.0
747,164.84696624999998,165.13012956249997,67.0,67.0
748,165.15308875,165.4362520625,69.0,61.0
749,165.45921124999998,166.01150726041666,43.0,72.0
750,165.76533375,166.08548686458332,50.0,60.0
751,165.45921124999998,166.3342113958333,70.0,70.0
752,166.07145624999998,166.4528338645833,55.0,53.0
753,166.37757875,166.68973101249998,69.0,69.0
754,166.68215524999997,167.05968074791664,67.0,60.0
755,166.98518574999997,167.24402430208332,69.0,53.0
756,166.68215524999997,167.28695362291666,58.0,72.0
757,166.37757875,167.36523650208332,57.0,67.0
758,167.28821624999998,167.5319032770833,70.0,56.0
759,167.59124674999998,167.86649945416664,72.0,49.0
760,167.89427725,168.10639859999998,74.0,50.0
761,168.19730774999996,168.5773585020833,70.0,49.0
762,168.50033824999997,168.75665154791665,72.0,60.0
763,167.89427725,168.96498501666665,43.0,63.0
764,168.80336874999998,169.1152376395833,74.0,76.0
765,169.10639924999998,169.36397517499998,77.0,58.0
766,169.40942975,169.80968253541664,72.0,61.0
767,169.10639924999998,169.83367244999997,43.0,60.0
768,169.71246024999996,169.92458159999998,74.0,55.0
769,169.71246024999996,169.95109676874998,55.0,47.0
770,170.01549074999997,170.3260970125,77.0,62.0
771,170.31852124999997,170.81725894791666,79.0,66.0
772,170.31852124999997,170.97003682499997,62.0,67.0
773,170.31852124999997,170.98392572291664,58.0,62.0
774,170.31852124999997,171.0016025020833,67.0,64.0
775,171.22761274999996,171.5208806458333,58.0,56.0
776,170.92458225,171.5634064395833,55.0,69.0
777,171.53376724999998,171.64330338541666,58.0,46.0
778,171.53376724999998,171.94871590416665,62.0,76.0
779,171.84304575,171.98093241458332,58.0,25.0
780,170.62155174999998,172.03119017083333,50.0,54.0
781,171.53376724999998,172.07629328541665,67.0,59.0
782,171.84304575,172.33789134999998,55.0,49.0
783,172.15232425,172.34562331249998,58.0,63.0
784,170.31852124999997,172.42423159791664,43.0,56.0
785,172.15232425,172.4757780145833,65.0,69.0
786,172.46160274999997,172.6574791333333,67.0,55.0
787,172.46160274999997,172.75928330624998,50.0,53.0
788,172.77088124999997,173.14717009166665,58.0,66.0
789,172.77088124999997,173.15490205416666,62.0,73.0
790,172.77088124999997,173.21546909375,67.0,69.0
791,172.77088124999997,173.3353145125,43.0,73.0
792,173.08015974999998,173.36108772083332,50.0,63.0
793,173.38943824999998,173.80052092291663,55.0,55.0
794,173.69871675,173.85077867916664,62.0,56.0
795,173.69871675,173.89835599999998,70.0,67.0
796,174.003356,174.160856,62.0,64.0
797,174.003356,174.344606,70.0,75.0
798,174.30335599999998,174.439606,60.0,62.0
799,174.30335599999998,174.45335599999999,69.0,80.0
800,174.003356,174.498356,58.0,66.0
801,173.69871675,174.530856,57.0,61.0
802,174.603356,174.778356,60.0,60.0
803,174.603356,174.822106,69.0,67.0
804,174.903356,175.090856,60.0,60.0
805,174.903356,175.164606,67.0,56.0
806,175.20335599999999,175.724606,43.0,61.0
807,175.503356,175.79710599999999,50.0,51.0
808,175.80335599999998,176.134606,55.0,44.0
809,175.20335599999999,176.53299531041665,70.0,73.0
810,175.20335599999999,176.54330459375,67.0,62.0
811,176.71727375,176.95309860625,67.0,69.0
812,176.40799525,177.00851100416665,58.0,76.0
813,176.103356,177.06134608125,57.0,61.0
814,177.02655225,177.31134620208334,69.0,58.0
815,177.33583074999999,177.567789625,70.0,62.0
816,177.64510925,177.92990320208332,41.0,59.0
817,177.64510925,178.27784151458334,65.0,53.0
818,177.64510925,178.3332539125,69.0,60.0
819,177.95438775,178.33583123333332,53.0,50.0
820,177.64510925,178.45825397291665,60.0,51.0
821,178.88064525000001,179.06049221875,60.0,66.0
822,179.0337065,179.27988001041666,65.0,58.0
823,178.57294475,179.35130859375002,57.0,63.0
824,179.18676775,179.36661471875001,67.0,60.0
825,179.339829,179.48651269791668,69.0,66.0
826,179.49289025000002,179.72885967708334,65.0,56.0
827,179.49289025000002,179.82962500000002,57.0,69.0
828,178.26366625,179.91891072916667,55.0,70.0
829,179.6459515,179.94569644791667,67.0,55.0
830,179.79901275,179.952074,69.0,48.0
831,179.952074,180.16635975,72.0,44.0
832,180.10513525000002,180.487788375,43.0,73.0
833,180.41125775,180.70590065625,50.0,62.0
834,180.71738025000002,181.12554358333335,55.0,69.0
835,180.10513525000002,181.38237221458334,70.0,72.0
836,181.32807925,181.74727144166667,58.0,70.0
837,181.02350275,181.79651389791667,57.0,58.0
838,181.63110975,181.85838262500002,62.0,70.0
839,181.93414025,182.19424142916668,67.0,61.0
840,182.23717075000002,182.50484769166667,69.0,63.0
841,182.54020125000002,182.92530251041669,62.0,63.0
842,182.54020125000002,182.92530251041669,70.0,76.0
843,182.54020125000002,183.10459555625002,43.0,70.0
844,182.84323175,183.13237335208333,50.0,62.0
845,183.14626225,183.35712097291668,62.0,62.0
846,183.14626225,183.4871715625,70.0,75.0
847,183.14626225,183.55535342500002,55.0,44.0
848,183.75544725,184.07503503333334,62.0,62.0
849,183.75544725,184.1343134125,69.0,73.0
850,184.06472575,184.17168456458333,58.0,59.0
851,183.44929275,184.19745777291666,57.0,58.0
852,184.37400425,184.67297346666666,67.0,62.0
853,184.68328275,184.92941688958334,70.0,70.0
854,184.99256125,185.34307688333334,69.0,66.0
855,184.99256125,185.36756143125,60.0,57.0
856,184.99256125,185.37013875208334,65.0,64.0
857,185.61111825,185.81086061458333,60.0,61.0
858,185.92039675,186.17766758750003,65.0,69.0
859,185.30183975,186.19608864166668,57.0,66.0
860,186.23293075,186.52108866875002,67.0,66.0
861,186.54872025,186.82635185208335,69.0,67.0
862,184.99256125,186.84608869583334,50.0,72.0
863,186.86450975000002,186.94740449375,57.0,53.0
864,186.86450975000002,187.10924661250002,65.0,66.0
865,187.49608875,188.06582563958335,58.0,61.0
866,187.49608875,188.07503616666668,43.0,70.0
867,187.49608875,188.12635196041668,62.0,67.0
868,187.81187825,188.14345722500002,50.0,52.0
869,188.12766775,188.522404625,55.0,57.0
870,187.49608875,188.72260200000002,67.0,61.0
871,189.051352,189.302602,62.0,72.0
872,188.75135200000003,189.34385200000003,58.0,70.0
873,188.44345725000002,189.35385200000002,57.0,56.0
874,189.35135200000002,189.545102,67.0,63.0
875,189.951352,190.210102,39.0,69.0
876,190.25135200000003,190.640102,51.0,43.0
877,189.951352,190.826352,63.0,59.0
878,189.951352,190.91260200000002,67.0,57.0
879,189.951352,190.93135200000003,58.0,52.0
880,191.15135200000003,191.388852,58.0,49.0
881,191.451352,191.53260200000003,58.0,35.0
882,191.451352,191.63510200000002,63.0,67.0
883,190.85135200000002,191.771352,55.0,55.0
884,190.551352,191.82510200000002,53.0,60.0
885,191.75135200000003,192.02760200000003,67.0,59.0
886,192.051352,192.360102,70.0,49.0
887,192.35135200000002,192.68510200000003,69.0,49.0
888,192.35135200000002,192.88010200000002,43.0,66.0
889,192.65135200000003,192.960102,50.0,60.0
890,192.951352,193.332602,55.0,47.0
891,192.65135200000003,193.60882632708336,67.0,51.0
892,193.86526975000004,194.08563068125002,62.0,60.0
893,193.55599125000003,194.24284725208335,58.0,70.0
894,193.25135200000003,194.2647544791667,57.0,56.0
895,194.17454825000004,194.43356899375004,67.0,63.0
896,194.48382675000002,194.78150730625003,69.0,66.0
897,194.79310525000002,195.20676524375003,70.0,80.0
898,194.79310525000002,195.26862094375002,62.0,69.0
899,195.72094075000004,195.9387243604167,58.0,58.0
900,195.41166225000003,196.1397553854167,55.0,60.0
901,196.03021925000004,196.40135345000004,58.0,56.0
902,196.03021925000004,196.4258379979167,67.0,70.0
903,196.03021925000004,196.42841531875004,62.0,73.0
904,194.79310525000002,196.7273845354167,43.0,72.0
905,196.33949775000002,196.80985880208337,55.0,48.0
906,195.10238375000003,196.8588278979167,50.0,66.0
907,196.64877625000003,196.91939493750004,58.0,60.0
908,196.95805475000003,197.1681063979167,67.0,66.0
909,197.26733325000004,197.82790053125004,41.0,69.0
910,197.57661175000004,197.92068408125004,48.0,58.0
911,197.88589025000005,198.28279765833338,53.0,54.0
912,197.26733325000004,198.55480800000004,65.0,72.0
913,198.799808,199.018558,60.0,44.0
914,198.49980800000003,199.12480800000003,57.0,67.0
915,198.19516875000002,199.13730800000002,55.0,56.0
916,199.09980800000002,199.301058,65.0,59.0
917,199.39980800000004,199.68355800000003,67.0,59.0
918,199.69980800000002,200.25605800000002,43.0,72.0
919,199.69980800000002,200.29605800000002,70.0,67.0
920,199.99980800000003,200.30355800000004,50.0,63.0
921,199.69980800000002,200.32480800000002,62.0,61.0
922,199.84980800000002,200.41480800000002,67.0,23.0
923,200.299808,200.66480800000002,55.0,57.0
924,200.90444725000003,201.26269484583335,62.0,57.0
925,200.90444725000003,201.31037528125003,70.0,50.0
926,200.90444725000003,201.50625166458337,67.0,58.0
927,200.90444725000003,201.6402723479167,58.0,66.0
928,200.59980800000002,201.66862287708335,57.0,67.0
929,201.52300425000004,201.74207652083336,60.0,57.0
930,201.52300425000004,202.00442200000003,69.0,72.0
931,202.13692200000003,202.67192200000002,43.0,66.0
932,202.436922,202.750672,50.0,59.0
933,202.13692200000003,202.75942200000003,70.0,66.0
934,202.13692200000003,202.935672,62.0,69.0
935,202.13692200000003,202.99067200000002,67.0,69.0
936,202.73692200000002,203.10442200000003,55.0,53.0
937,203.343172,203.59707825,62.0,72.0
938,203.343172,203.718172,70.0,66.0
939,203.343172,203.80671366666667,67.0,70.0
940,203.343172,203.8353595,58.0,69.0
941,203.03692200000003,203.90046366666667,57.0,63.0
942,203.968172,204.04108866666667,60.0,39.0
943,203.968172,204.55442200000002,67.0,61.0
944,204.58692200000002,204.908172,38.0,66.0
945,204.886922,205.27192200000002,50.0,56.0
946,204.58692200000002,205.544422,65.0,66.0
947,204.58692200000002,205.55442200000002,69.0,60.0
948,204.58692200000002,205.575672,60.0,57.0
949,205.786922,206.003172,60.0,61.0
950,205.48692200000002,206.249422,57.0,64.0
951,205.186922,206.33567200000002,53.0,64.0
952,206.08692200000002,206.439422,65.0,64.0
953,206.386922,206.664422,67.0,67.0
954,206.686922,206.96973450000002,69.0,61.0
955,206.99317200000002,207.46843241666667,43.0,64.0
956,207.30567200000002,207.60515116666667,50.0,76.0
957,207.61817200000002,207.99707825000002,55.0,69.0
958,206.99317200000002,208.1565096625,67.0,67.0
959,208.24156125000002,208.62429339375,58.0,67.0
960,207.93067200000002,208.6436233,57.0,64.0
961,208.55083975000002,208.76733470000002,62.0,70.0
962,208.86011825000003,209.10625238958335,67.0,56.0
963,209.16939675,209.45547936250003,69.0,64.0
964,209.47867525,210.0521291354167,43.0,72.0
965,209.47867525,210.09336626875,70.0,67.0
966,209.78795375,210.10109823125,50.0,63.0
967,209.47867525,210.12300545833335,62.0,61.0
968,209.6333145,210.21578900833336,67.0,23.0
969,210.09723225000002,210.47352109166667,55.0,57.0
970,210.71115000000003,211.05865000000003,62.0,57.0
971,210.71115000000003,211.10490000000001,70.0,50.0
972,210.71115000000003,211.2949,67.0,58.0
973,210.71115000000003,211.42490000000004,58.0,66.0
974,210.40651075000002,211.45240000000004,57.0,67.0
975,211.31115000000003,211.52365000000003,60.0,57.0
976,211.31115000000003,211.77865000000003,69.0,72.0
977,211.91115000000002,212.4506236916667,43.0,66.0
978,212.21115000000003,212.5335184354167,50.0,59.0
979,211.91115000000002,212.54272896250004,70.0,66.0
980,211.91115000000002,212.72825529375004,62.0,69.0
981,211.91115000000002,212.7861500354167,67.0,69.0
982,212.51904475000003,212.90588688750003,55.0,53.0
983,213.14272900000003,213.38647900000004,62.0,72.0
984,213.14272900000003,213.50272900000002,70.0,66.0
985,213.14272900000003,213.58772900000002,67.0,70.0
986,213.14272900000003,213.61522900000003,58.0,69.0
987,212.83483425000003,213.67772900000003,57.0,63.0
988,213.74272900000003,213.81272900000002,60.0,39.0
989,213.74272900000003,214.31512483333336,67.0,61.0
990,214.348979,214.68361441666667,38.0,66.0
991,214.661479,215.0650974416667,50.0,56.0
992,214.348979,215.35193957083334,65.0,66.0
993,214.348979,215.3624658875,69.0,60.0
994,214.348979,215.3848343104167,60.0,57.0
995,215.599308,215.815558,60.0,61.0
996,215.29141325,216.061808,57.0,64.0
997,214.97562375,216.148058,53.0,64.0
998,215.899308,216.251808,65.0,64.0
999,216.199308,216.476808,67.0,67.0
1000,216.499308,216.776808,69.0,61.0
1001,216.799308,217.25581841666667,43.0,64.0
1002,217.099308,217.39253716666667,50.0,76.0
1003,217.405558,217.78446425,55.0,69.0
1004,216.799308,217.94318556250002,67.0,67.0
1005,218.02736925000002,218.40619584375003,58.0,67.0
1006,217.718058,218.4253285,57.0,64.0
1007,218.33349175,218.54777750000002,62.0,70.0
1008,218.63961425000002,218.88323673958334,67.0,56.0
1009,218.94573675,219.2289000625,69.0,64.0
1010,219.26333884375,219.88833894791668,41.0,59.0
1011,219.56946134375002,219.92405323958334,48.0,49.0
1012,219.91384915625002,220.31946146875,53.0,59.0
1013,219.27354292708335,220.56453800000003,60.0,54.0
1014,219.26844088541668,220.59953800000002,65.0,60.0
1015,219.26206333333334,220.62203800000003,69.0,57.0
1016,220.829538,220.994538,60.0,55.0
1017,221.049538,221.305788,65.0,69.0
1018,221.269538,221.424538,67.0,59.0
1019,221.492038,221.679538,69.0,70.0
1020,221.76203800000002,221.929538,72.0,49.0
1021,222.024538,222.17078800000002,77.0,61.0
1022,222.302038,222.44453800000002,79.0,43.0
1023,222.677038,222.80986900000002,81.0,63.0
1024,223.19660021250002,223.32159158333337,84.0,67.0
1025,220.557038,224.09331860625002,57.0,61.0
1026,220.23400227083334,224.12699540000003,55.0,53.0
1027,224.84698765625004,225.06659045000004,74.0,50.0
1028,225.14475415625006,225.31762683750006,74.0,51.0
1029,225.44324832291673,225.67583463750006,67.0,57.0
1030,225.44324832291673,225.6808097458334,74.0,66.0
1031,225.14475415625006,225.9681222520834,62.0,53.0
1032,225.74175482291673,226.03031110625005,67.0,49.0
1033,226.04026132291673,226.47060819375005,70.0,70.0
1034,224.84698765625004,226.72060738750005,55.0,64.0
1035,226.3387678229167,226.84374131875006,62.0,49.0
1036,226.6372743229167,226.92831816041672,70.0,49.0
1037,226.9357808229167,227.19199890208338,72.0,47.0
1038,227.2342873229167,227.43204787916673,67.0,56.0
1039,227.2342873229167,227.45319208958338,74.0,60.0
1040,227.53279382291672,227.67582818750006,67.0,56.0
1041,227.53279382291672,227.69199728958338,74.0,59.0
1042,227.83130032291672,227.97309091041672,67.0,59.0
1043,227.83130032291672,228.1099063895834,74.0,72.0
1044,228.12980682291672,228.47308929791672,67.0,44.0
1045,228.43080087708339,228.81761555000006,70.0,66.0
1046,228.7293073770834,228.96438124583338,65.0,44.0
1047,227.2342873229167,229.00418211250005,55.0,55.0
1048,227.53279382291672,229.03527653958338,62.0,47.0
1049,229.02408254583338,229.25044997500007,72.0,61.0
1050,229.32258904583338,229.58626978750004,70.0,53.0
1051,229.62109554583338,229.79522433750006,69.0,64.0
1052,229.9196020458334,230.0912432833334,69.0,57.0
1053,230.2181085458334,230.47557040208338,69.0,56.0
1054,230.2181085458334,230.49173950416673,62.0,50.0
1055,229.9196020458334,230.60119188750005,57.0,55.0
1056,230.5278090395834,230.86611640625006,67.0,50.0
1057,230.82507176250004,230.9954692229167,60.0,36.0
1058,230.82507176250004,231.1882546708334,65.0,46.0
1059,230.82507176250004,231.39099033541672,57.0,51.0
1060,231.27283151250006,231.45939807500005,67.0,57.0
1061,231.4245723166667,231.78526767083338,60.0,49.0
1062,231.4245723166667,232.08377417083338,57.0,56.0
1063,232.03277931041671,232.1994454395834,62.0,50.0
1064,229.62109554583338,232.52531503541672,50.0,55.0
1065,232.35616135208338,232.92705503333337,58.0,45.0
1066,232.42581286875006,232.93327391875005,62.0,59.0
1067,232.54521546875006,233.05267651875005,67.0,59.0
1068,233.35988945833338,233.5439684666667,58.0,44.0
1069,233.61859509166672,233.79023632916673,62.0,48.0
1070,233.85118140625005,233.94695224166674,67.0,58.0
1071,234.06262351041673,234.22680208541672,69.0,58.0
1072,234.3051600416667,234.42580641875006,70.0,57.0
1073,234.5439652416667,234.71436270208338,74.0,56.0
1074,234.80888976041672,234.9867498833334,79.0,57.0
1075,235.10117737500005,235.30640059375006,81.0,33.0
1076,235.3374950208334,235.42580319375006,82.0,44.0
1077,235.64968306875005,235.79644876458337,86.0,48.0
1078,232.33128581041672,235.91709514166672,43.0,62.0
1079,232.86237862500005,235.96933377916673,50.0,46.0
1080,233.13227825208338,235.97928399583338,55.0,44.0
1081,236.09371148750006,236.16709433541672,91.0,40.0
