,start,end,pitch,velocity
0,17.239268475000003,17.660696625000003,75.0,83.0
1,17.667839475,17.9981962875,71.0,83.0
2,18.096410475000003,18.508910062500004,71.0,82.0
3,18.524981475000004,18.828552600000002,66.0,81.0
4,18.953552475000002,19.282123575000004,68.0,83.0
5,19.382123475000004,19.7696230875,68.0,82.0
6,19.810694475000002,20.124979875,76.0,86.0
7,20.239265475000003,20.610693675000004,75.0,83.0
8,20.667836475,20.969621887500004,73.0,91.0
9,21.096407475000003,21.462478537500004,73.0,88.0
10,21.524978475,21.739263975000004,73.0,87.0
11,21.739263975000004,22.167834975,73.0,87.0
12,22.167834975,22.382120475000004,71.0,84.0
13,22.382120475000004,24.096404475000003,75.0,84.0
14,24.096404475000003,24.467832675000004,75.0,87.0
15,24.524975475,24.82140375,71.0,86.0
16,24.953546475000003,25.3731889125,71.0,83.0
17,25.382117475000005,25.749974250000005,66.0,77.0
18,25.810688475000003,26.166045262500003,68.0,83.0
19,26.239259475000004,26.635687650000005,68.0,83.0
20,26.667830475000002,27.017830125000003,73.0,86.0
21,27.096401475000004,27.487472512500002,71.0,82.0
22,27.524972475000002,27.858900712500002,70.0,83.0
23,27.953543475000004,28.289257425000002,71.0,83.0
24,28.382114475000005,28.674971325000005,73.0,84.0
25,28.596399975000004,29.266042162500003,78.0,82.0
26,29.239256475000005,30.608897962500006,75.0,82.0
27,30.953540475000004,31.276754437500003,78.0,84.0
28,31.382111475000006,31.660682625000003,78.0,79.0
29,31.810682475000004,32.1374678625,78.0,82.0
30,32.239253475000005,32.544610312500005,75.0,84.0
31,32.667824475,33.030324112500004,75.0,86.0
32,33.096395475,33.23210962500001,76.0,78.0
33,33.310680975000004,33.8142519,76.0,82.0
34,34.16782297500001,34.3624656375,75.0,83.0
35,34.382108475,34.678536750000006,73.0,86.0
36,34.81067947500001,35.139250575000005,73.0,89.0
37,35.239250475000006,35.67853575,73.0,89.0
38,35.667821475000004,35.894606962500006,71.0,82.0
39,35.882106975000006,37.81067647500001,75.0,81.0
40,37.81067647500001,38.23389033750001,75.0,84.0
41,38.239247475000006,38.530318612500004,71.0,83.0
42,38.667818475000004,39.07674663750001,71.0,83.0
43,39.096389475,39.503531925000004,66.0,83.0
44,39.52496047500001,39.857103,68.0,81.0
45,39.953531475000005,40.36603106250001,68.0,81.0
46,40.382102475,40.732102125000004,73.0,88.0
47,40.81067347500001,41.16424455000001,71.0,83.0
48,41.23924447500001,41.5481727375,70.0,83.0
49,41.667815475000005,42.003529425,71.0,83.0
50,42.096386475,42.51960033750001,73.0,87.0
51,42.52495747500001,42.76067152500001,70.0,82.0
52,42.739242975,44.23924147500001,71.0,83.0
53,58.382084475000006,58.80351262500001,75.0,83.0
54,58.810655475000004,59.14101228750001,71.0,83.0
55,59.23922647500001,59.65172606250001,71.0,82.0
56,59.66779747500001,59.971368600000005,66.0,81.0
57,60.096368475000006,60.42493957500001,68.0,83.0
58,60.52493947500001,60.912439087500005,68.0,82.0
59,60.95351047500001,61.26779587500001,76.0,86.0
60,61.38208147500001,61.75350967500001,75.0,83.0
61,61.810652475000005,62.11243788750001,73.0,91.0
62,62.23922347500001,62.60529453750001,73.0,88.0
63,62.66779447500001,62.88207997500001,73.0,87.0
64,62.88207997500001,63.31065097500001,73.0,87.0
65,63.31065097500001,63.52493647500001,71.0,84.0
66,63.52493647500001,65.23922047500001,75.0,84.0
67,65.23922047500001,65.61064867500001,75.0,87.0
68,65.66779147500002,65.96421975000001,71.0,86.0
69,66.096362475,66.51600491250001,71.0,83.0
70,66.52493347500001,66.89279025,66.0,77.0
71,66.953504475,67.3088612625,68.0,83.0
72,67.38207547500001,67.77850365,68.0,83.0
73,67.81064647500001,68.16064612500001,73.0,86.0
74,68.239217475,68.63028851250002,71.0,82.0
75,68.66778847500001,69.00171671250001,70.0,83.0
76,69.09635947500001,69.43207342500001,71.0,83.0
77,69.524930475,69.81778732500001,73.0,84.0
78,69.73921597500001,70.40885816250001,78.0,82.0
79,70.38207247500002,71.7517139625,75.0,82.0
80,72.09635647500001,72.41957043750001,78.0,84.0
81,72.52492747500001,72.803498625,78.0,79.0
82,72.953498475,73.28028386250001,78.0,82.0
83,73.38206947500001,73.68742631250001,75.0,84.0
84,73.81064047500001,74.17314011250001,75.0,86.0
85,74.239211475,74.374925625,76.0,78.0
86,74.45349697500001,74.95706790000001,76.0,82.0
87,75.310638975,75.5052816375,75.0,83.0
88,75.524924475,75.82135275000002,73.0,86.0
89,75.95349547500001,76.28206657500002,73.0,89.0
90,76.38206647500002,76.82135175,73.0,89.0
91,76.81063747500001,77.03742296250002,71.0,82.0
92,77.02492297500001,78.73920697500002,75.0,81.0
93,78.953492475,79.37670633750001,75.0,84.0
94,79.38206347500001,79.67313461250001,71.0,83.0
95,79.81063447500001,80.2195626375,71.0,83.0
96,80.239205475,80.64634792500001,66.0,83.0
97,80.66777647500001,80.999919,68.0,81.0
98,81.09634747500002,81.50884706250001,68.0,81.0
99,81.524918475,81.87491812500001,73.0,88.0
100,81.95348947500001,82.30706055000002,71.0,83.0
101,82.38206047500002,82.6909887375,70.0,83.0
102,82.81063147500001,83.146345425,71.0,83.0
103,83.23920247500001,83.6624163375,73.0,87.0
104,83.667773475,83.90348752500002,70.0,82.0
105,83.882058975,85.38205747500001,71.0,83.0
106,85.81062847500002,86.11777102500001,78.0,91.0
107,86.239199475,86.54277060000001,78.0,86.0
108,86.66777047500001,86.94098448750002,78.0,89.0
109,87.09634147500002,87.47669823750002,78.0,91.0
110,87.52491247500001,87.84455501250001,83.0,88.0
111,87.95348347500001,88.33026881250001,82.0,84.0
112,88.38205447500002,88.78026836250001,80.0,89.0
113,88.81062547500001,89.0516966625,78.0,86.0
114,89.23919647500001,89.667767475,78.0,83.0
115,89.667767475,89.98919572500002,73.0,96.0
116,90.09633847500001,90.47848095,75.0,89.0
117,90.52490947500002,90.71419500000002,76.0,83.0
118,90.73919497500002,92.39097903750002,75.0,96.0
119,92.66776447500001,93.01419270000001,75.0,86.0
120,93.09633547500002,93.43204942500002,71.0,84.0
121,93.52490647500001,93.85526328750001,71.0,84.0
122,93.95347747500001,94.33026281250001,71.0,87.0
123,94.38204847500002,94.71776242500002,70.0,93.0
124,94.81061947500001,95.1570477,71.0,85.0
125,95.23919047500002,95.62669008750001,73.0,84.0
126,95.667761475,96.06597536250001,71.0,84.0
127,96.09633247500001,96.44276070000001,70.0,86.0
128,96.52490347500002,96.86240313750001,71.0,89.0
129,96.95347447500001,97.08918862500002,73.0,89.0
130,97.16775997500001,97.69097373750002,78.0,84.0
131,97.81061647500002,99.22847220000001,78.0,85.0
132,99.52490047500001,99.83204302500002,78.0,91.0
133,99.95347147500001,100.25704260000002,78.0,86.0
134,100.38204247500002,100.65525648750001,78.0,89.0
135,100.81061347500001,101.19097023750001,78.0,91.0
136,101.23918447500002,101.55882701250002,83.0,88.0
137,101.667755475,102.04454081250002,82.0,84.0
138,102.09632647500001,102.49454036250002,80.0,89.0
139,102.52489747500002,102.76596866250001,78.0,86.0
140,102.95346847500001,103.38203947500001,78.0,83.0
141,103.38203947500001,103.70346772500001,73.0,96.0
142,103.81061047500002,104.19275295000001,75.0,89.0
143,104.23918147500001,104.42846700000001,76.0,83.0
144,104.45346697500001,106.10525103750001,75.0,96.0
145,106.38203647500002,106.72846470000002,75.0,86.0
146,106.81060747500001,107.14632142500001,71.0,84.0
147,107.23917847500002,107.56953528750002,71.0,84.0
148,107.66774947500001,108.04453481250002,66.0,87.0
149,108.09632047500001,108.43203442500001,68.0,93.0
150,108.52489147500002,108.87131970000002,68.0,85.0
151,108.95346247500001,109.34096208750002,73.0,84.0
152,109.38203347500001,109.78024736250002,71.0,84.0
153,109.81060447500002,110.15703270000002,70.0,86.0
154,110.23917547500001,110.57667513750002,71.0,89.0
155,110.66774647500002,110.80346062500001,73.0,89.0
156,110.88203197500002,111.40524573750001,70.0,84.0
157,111.52488847500001,112.94274420000002,71.0,85.0
158,113.23917247500002,113.54631502500001,78.0,91.0
159,113.66774347500001,113.97131460000001,78.0,86.0
160,114.09631447500001,114.36952848750002,78.0,89.0
161,114.52488547500002,114.90524223750002,78.0,91.0
162,114.95345647500001,115.27309901250001,83.0,88.0
163,115.38202747500002,115.75881281250001,82.0,84.0
164,115.81059847500002,116.20881236250001,80.0,89.0
165,116.23916947500001,116.48024066250001,78.0,86.0
166,116.66774047500002,117.09631147500002,78.0,83.0
167,117.09631147500002,117.41773972500002,73.0,96.0
168,117.52488247500001,117.90702495000002,75.0,89.0
169,117.95345347500002,118.14273900000002,76.0,83.0
170,118.16773897500002,119.81952303750002,75.0,96.0
171,120.09630847500001,120.44273670000001,75.0,86.0
172,120.52487947500002,120.86059342500002,71.0,84.0
173,120.95345047500001,121.28380728750001,71.0,84.0
174,121.38202147500002,121.75880681250001,71.0,87.0
175,121.81059247500002,122.14630642500002,70.0,93.0
176,122.23916347500001,122.58559170000001,71.0,85.0
177,122.66773447500002,123.05523408750001,73.0,84.0
178,123.09630547500002,123.49451936250001,71.0,84.0
179,123.52487647500001,123.87130470000001,70.0,86.0
180,123.95344747500002,124.29094713750001,71.0,89.0
181,124.38201847500001,124.59630397500001,73.0,89.0
182,124.59630397500001,125.11951773750002,78.0,84.0
183,125.23916047500002,126.65701620000002,78.0,85.0
184,126.95344447500001,127.26058702500002,78.0,91.0
185,127.38201547500002,127.68558660000002,78.0,86.0
186,127.81058647500002,128.0838004875,78.0,89.0
187,128.239157475,128.61951423750003,78.0,91.0
188,128.66772847500002,128.9873710125,83.0,88.0
189,129.09629947500002,129.47308481250002,82.0,84.0
190,129.52487047500003,129.92308436250002,80.0,89.0
191,129.953441475,130.19451266250002,78.0,86.0
192,130.382012475,130.81058347500002,78.0,83.0
193,130.81058347500002,131.132011725,73.0,96.0
194,131.23915447500002,131.62129695000002,75.0,89.0
195,131.66772547500003,131.85701100000003,76.0,83.0
196,131.88201097500001,133.53379503750003,75.0,96.0
197,133.81058047500002,134.1570087,75.0,86.0
198,134.23915147500003,134.574865425,71.0,84.0
199,134.667722475,134.99807928750002,71.0,84.0
200,135.096293475,135.4730788125,66.0,87.0
201,135.52486447500002,135.86057842500003,68.0,93.0
202,135.95343547500002,136.29986370000003,68.0,85.0
203,136.38200647500003,136.76950608750002,73.0,84.0
204,136.81057747500003,137.20879136250002,71.0,84.0
205,137.239148475,137.58557670000002,70.0,86.0
206,137.667719475,138.0052191375,71.0,89.0
207,138.09629047500002,138.23200462500003,73.0,89.0
208,138.310575975,138.8337897375,70.0,84.0
209,138.95343247500003,140.3712882,71.0,85.0
210,140.66771647500002,141.01414470000003,75.0,86.0
211,141.09628747500003,141.432001425,71.0,84.0
212,141.52485847500003,141.85521528750002,71.0,84.0
213,141.953429475,142.33021481250003,66.0,87.0
214,142.382000475,142.71771442500003,68.0,93.0
215,142.81057147500002,143.15699970000003,68.0,85.0
216,143.23914247500002,143.62664208750002,73.0,84.0
217,143.66771347500003,144.06592736250002,71.0,84.0
218,144.09628447500003,144.44271270000002,70.0,86.0
219,144.524855475,144.86235513750003,71.0,89.0
220,144.95342647500001,145.08914062500003,73.0,89.0
221,145.16771197500003,145.6909257375,71.0,84.0
222,145.81056847500003,147.2284242,75.0,85.0
223,147.52485247500002,147.87128070000003,75.0,86.0
224,147.95342347500002,148.289137425,71.0,84.0
225,148.38199447500003,148.7123512875,71.0,84.0
226,148.81056547500003,149.18735081250003,66.0,87.0
227,149.239136475,149.57485042500002,68.0,93.0
228,149.66770747500001,150.01413570000003,68.0,85.0
229,150.09627847500002,150.4837780875,73.0,84.0
230,150.52484947500002,150.92306336250002,71.0,84.0
231,150.95342047500003,151.2998487,70.0,86.0
232,151.381991475,151.71949113750003,71.0,89.0
233,151.810562475,151.94627662500002,73.0,89.0
234,152.02484797500003,152.5480617375,70.0,84.0
235,152.66770447500002,154.08556020000003,71.0,85.0
