,start,end,pitch,velocity
0,30.8029995,30.9109539375,59.0,102.0
1,31.030272,31.124968875,59.0,66.0
2,31.2575445,31.3579231875,59.0,92.0
3,31.484817,31.5814078125,59.0,74.0
4,31.7120895,32.0056498125,59.0,100.0
5,32.1666345,32.38633125,66.0,117.0
6,32.393907,32.624967375,64.0,81.0
7,32.6211795,34.200723375,62.0,100.0
8,34.4393595,34.50754125,61.0,117.0
9,34.666632,34.7670106875,61.0,97.0
10,34.8939045,35.003752875,61.0,93.0
11,35.121177,35.242389,61.0,92.0
12,35.3484495,35.5605705,61.0,107.0
13,35.575722,35.7745854375,59.0,85.0
14,35.8029945,36.272691,57.0,96.0
15,36.2575395,37.3957959375,59.0,96.0
16,38.0757195,38.170416375,59.0,93.0
17,38.302992,38.393901,59.0,86.0
18,38.5302645,38.6268553125,59.0,88.0
19,38.757537,38.8541278125,59.0,100.0
20,38.9848095,39.1874608125,59.0,100.0
21,39.4393545,39.6836724375,66.0,117.0
22,39.666627,39.8995813125,64.0,88.0
23,39.8938995,41.2745799375,62.0,100.0
24,41.7120795,41.806776375,64.0,93.0
25,41.939352,42.0283670625,64.0,89.0
26,42.1666245,42.2556395625,64.0,92.0
27,42.393897,42.481018125,64.0,92.0
28,42.6211695,42.890108625,64.0,99.0
29,43.0757145,43.306774875,69.0,117.0
30,43.302987,43.5510928125,67.0,89.0
31,43.5302595,44.9185156875,66.0,95.0
32,45.3484395,45.7101815625,66.0,127.0
33,45.8029845,46.094650875,71.0,102.0
34,46.2575295,46.376847562500004,71.0,107.0
35,46.484802,47.151468,66.0,96.0
36,47.1666195,48.5132090625,64.0,96.0
37,48.9847995,49.3768445625,69.0,102.0
38,49.4393445,49.8730561875,66.0,99.0
39,49.8938895,50.1041165625,64.0,95.0
40,50.121162,50.7745704375,66.0,102.0
41,50.8029795,51.9033571875,59.0,96.0
42,52.6211595,52.8692653125,59.0,117.0
43,52.848432,53.1268408125,64.0,90.0
44,53.302977,53.412825375,64.0,93.0
45,53.530249500000004,53.829491625,64.0,107.0
46,53.9847945,54.132521625,62.0,99.0
47,54.212067,54.3238093125,64.0,89.0
48,54.4393395,54.761308875,66.0,112.0
49,54.8938845,55.3200204375,64.0,100.0
50,55.3484295,55.6533534375,62.0,96.0
51,55.575702,56.18933775,66.0,112.0
52,56.2575195,58.55297175,59.0,97.0
53,59.8938795,60.0018339375,59.0,102.0
54,60.121152,60.215848875,59.0,66.0
55,60.3484245,60.4488031875,59.0,92.0
56,60.575697,60.6722878125,59.0,74.0
57,60.8029695,61.0965298125,59.0,100.0
58,61.2575145,61.47721125,66.0,117.0
59,61.484787,61.715847375,64.0,81.0
60,61.7120595,63.291603375,62.0,100.0
61,63.5302395,63.59842125,61.0,117.0
62,63.757512,63.8578906875,61.0,97.0
63,63.9847845,64.094632875,61.0,93.0
64,64.212057,64.333269,61.0,92.0
65,64.4393295,64.6514505,61.0,107.0
66,64.666602,64.8654654375,59.0,85.0
67,64.8938745,65.363571,57.0,96.0
68,65.3484195,66.4866759375,59.0,96.0
69,67.1665995,67.261296375,59.0,93.0
70,67.393872,67.484781,59.0,86.0
71,67.6211445,67.7177353125,59.0,88.0
72,67.848417,67.9450078125,59.0,100.0
73,68.0756895,68.2783408125,59.0,100.0
74,68.5302345,68.7745524375,66.0,117.0
75,68.757507,68.9904613125,64.0,88.0
76,68.9847795,70.3654599375,62.0,100.0
77,70.8029595,70.897656375,64.0,93.0
78,71.030232,71.1192470625,64.0,89.0
79,71.2575045,71.3465195625,64.0,92.0
80,71.484777,71.571898125,64.0,92.0
81,71.7120495,71.980988625,64.0,99.0
82,72.1665945,72.397654875,69.0,117.0
83,72.393867,72.6419728125,67.0,89.0
84,72.6211395,74.0093956875,66.0,95.0
85,74.4393195,74.8010615625,66.0,127.0
86,74.8938645,75.185530875,71.0,102.0
87,75.3484095,75.4677275625,71.0,107.0
88,75.8029545,76.2574995,66.0,96.0
89,76.2574995,77.6040890625,64.0,96.0
90,78.0756795,78.4677245625,69.0,102.0
91,78.5302245,78.9639361875,66.0,99.0
92,78.9847695,79.1949965625,64.0,95.0
93,79.212042,79.8654504375,66.0,102.0
94,79.8938595,80.9942371875,59.0,96.0
95,81.7120395,81.9601453125,59.0,117.0
96,81.939312,82.2177208125,64.0,90.0
97,82.393857,82.503705375,64.0,93.0
98,82.6211295,82.920371625,64.0,107.0
99,83.0756745,83.223401625,62.0,99.0
100,83.302947,83.4146893125,64.0,89.0
101,83.5302195,83.852188875,66.0,112.0
102,83.9847645,84.4109004375,64.0,100.0
103,84.4393095,84.7442334375,62.0,96.0
104,84.666582,85.2631723125,66.0,112.0
105,85.3483995,87.2480188125,59.0,100.0
106,88.0756695,88.4790781875,74.0,122.0
107,88.5302145,88.9146838125,76.0,117.0
108,88.9847595,89.8124101875,78.0,127.0
109,90.3483945,90.4336216875,78.0,127.0
110,90.575667,90.655212375,78.0,112.0
111,90.8029395,91.1987724375,78.0,127.0
112,91.2574845,91.738544625,76.0,127.0
113,91.7120295,92.08324125,74.0,112.0
114,92.1665745,92.427937875,74.0,117.0
115,92.393847,92.6192255625,73.0,122.0
116,92.6211195,94.026421125,71.0,117.0
117,95.3483895,95.814298125,71.0,112.0
118,95.8029345,96.2555855625,78.0,127.0
119,96.2574795,97.2858875625,76.0,112.0
120,97.6211145,97.7972506875,78.0,112.0
121,97.848387,97.96202325,76.0,83.0
122,98.0756595,98.4260379375,76.0,99.0
123,98.5302045,98.806719375,74.0,112.0
124,98.9847495,99.18929475,74.0,117.0
125,99.212022,99.874900125,71.0,100.0
126,99.8938395,101.848383,69.0,95.0
127,102.6211095,102.9980030625,74.0,117.0
128,103.0756545,103.382472375,76.0,112.0
129,103.5301995,104.53777425,78.0,127.0
130,104.8938345,104.969592,78.0,117.0
131,105.121107,105.1873948125,78.0,107.0
132,105.34837950000001,105.677924625,78.0,117.0
133,105.8029245,106.212015,76.0,122.0
134,106.2574695,106.6608781875,74.0,97.0
135,106.7120145,106.93171125,74.0,100.0
136,106.93928700000001,107.193074625,73.0,97.0
137,107.1665595,109.1192090625,71.0,100.0
138,109.8938295,110.3180715,71.0,107.0
139,110.3483745,110.5775409375,78.0,127.0
140,110.575647,110.685495375,76.0,100.0
141,110.8029195,111.696858,76.0,127.0
142,112.1665545,112.5093571875,74.0,117.0
143,112.6210995,112.973371875,76.0,117.0
144,113.0756445,113.412765375,74.0,127.0
145,113.5301895,113.8843558125,71.0,107.0
146,113.757462,114.1267798125,76.0,127.0
147,114.212007,114.3199614375,74.0,90.0
148,114.4392795,116.685489375,74.0,107.0
149,147.1665195,147.2744739375,59.0,102.0
150,147.393792,147.488488875,59.0,66.0
151,147.6210645,147.7214431875,59.0,92.0
152,147.848337,147.9449278125,59.0,74.0
153,148.0756095,148.3691698125,59.0,100.0
154,148.5301545,148.74985125,66.0,117.0
155,148.757427,148.988487375,64.0,81.0
156,148.9846995,150.564243375,62.0,100.0
157,150.8028795,150.87106125,61.0,117.0
158,151.030152,151.1305306875,61.0,97.0
159,151.2574245,151.367272875,61.0,93.0
160,151.484697,151.605909,61.0,92.0
161,151.7119695,151.9240905,61.0,107.0
162,151.939242,152.1381054375,59.0,85.0
163,152.1665145,152.636211,57.0,96.0
164,152.6210595,153.7593159375,59.0,96.0
165,154.4392395,154.533936375,59.0,93.0
166,154.666512,154.757421,59.0,86.0
167,154.8937845,154.9903753125,59.0,88.0
168,155.121057,155.2176478125,59.0,100.0
169,155.3483295,155.5509808125,59.0,100.0
170,155.8028745,156.0471924375,66.0,117.0
171,156.030147,156.2631013125,64.0,88.0
172,156.2574195,157.6380999375,62.0,100.0
173,158.0755995,158.170296375,64.0,93.0
174,158.302872,158.3918870625,64.0,89.0
175,158.5301445,158.6191595625,64.0,92.0
176,158.757417,158.844538125,64.0,92.0
177,158.9846895,159.253628625,64.0,99.0
178,159.4392345,159.670294875,69.0,117.0
179,159.666507,159.9146128125,67.0,89.0
180,159.8937795,161.2820356875,66.0,95.0
181,161.7119595,162.0737015625,66.0,127.0
182,162.1665045,162.458170875,71.0,102.0
183,162.6210495,162.7403675625,71.0,107.0
184,163.0755945,163.5301395,66.0,96.0
185,163.5301395,164.8767290625,64.0,96.0
186,165.3483195,165.7403645625,69.0,102.0
187,165.8028645,166.2365761875,66.0,99.0
188,166.2574095,166.4676365625,64.0,95.0
189,166.484682,167.1380904375,66.0,102.0
190,167.1664995,168.2668771875,59.0,96.0
191,168.9846795,169.2327853125,59.0,117.0
192,169.211952,169.4903608125,64.0,90.0
193,169.666497,169.776345375,64.0,93.0
194,169.8937695,170.193011625,64.0,107.0
195,170.3483145,170.496041625,62.0,99.0
196,170.575587,170.6873293125,64.0,89.0
197,170.8028595,171.124828875,66.0,112.0
198,171.2574045,171.6835404375,64.0,100.0
199,171.7119495,172.0168734375,62.0,96.0
200,171.939222,172.5358123125,66.0,112.0
201,172.6210395,174.5206588125,59.0,100.0
202,175.3483095,175.7517181875,74.0,122.0
203,175.8028545,176.1873238125,76.0,117.0
204,176.2573995,177.0850501875,78.0,127.0
205,177.6210345,177.7062616875,78.0,127.0
206,177.848307,177.927852375,78.0,112.0
207,178.0755795,178.4714124375,78.0,127.0
208,178.5301245,179.011184625,76.0,127.0
209,178.9846695,179.35588125,74.0,112.0
210,179.4392145,179.700577875,74.0,117.0
211,179.666487,179.8918655625,73.0,122.0
212,179.8937595,181.299061125,71.0,117.0
213,182.6210295,183.086938125,71.0,112.0
214,183.0755745,183.5282255625,78.0,127.0
215,183.5301195,184.5585275625,76.0,112.0
216,184.8937545,185.0698906875,78.0,112.0
217,185.121027,185.23466325,76.0,83.0
218,185.3482995,185.6986779375,76.0,99.0
219,185.8028445,186.079359375,74.0,112.0
220,186.2573895,186.46193475,74.0,117.0
221,186.48466200000001,187.147540125,71.0,100.0
222,187.1664795,189.121023,69.0,95.0
223,189.8937495,190.2706430625,74.0,117.0
224,190.3482945,190.655112375,76.0,112.0
225,190.8028395,191.81041425,78.0,127.0
226,192.1664745,192.242232,78.0,117.0
227,192.393747,192.4600348125,78.0,107.0
228,192.6210195,192.950564625,78.0,117.0
229,193.0755645,193.484655,76.0,122.0
230,193.5301095,193.9335181875,74.0,97.0
231,193.9846545,194.20435125,74.0,100.0
232,194.211927,194.465714625,73.0,97.0
233,194.4391995,196.3918490625,71.0,100.0
234,197.1664695,197.5907115,71.0,107.0
235,197.6210145,197.8501809375,78.0,127.0
236,197.848287,197.958135375,76.0,100.0
237,198.0755595,198.969498,76.0,127.0
238,199.4391945,199.7819971875,74.0,117.0
239,199.8937395,200.246011875,76.0,117.0
240,200.3482845,200.685405375,74.0,127.0
241,200.8028295,201.1569958125,71.0,107.0
242,201.030102,201.3994198125,76.0,127.0
243,201.484647,201.5926014375,74.0,90.0
244,201.7119195,203.958129375,74.0,107.0
245,204.4391895,204.8425981875,74.0,122.0
246,204.8937345,205.2782038125,76.0,117.0
247,205.3482795,206.1759301875,78.0,127.0
248,206.7119145,206.7971416875,78.0,127.0
249,206.939187,207.018732375,78.0,112.0
250,207.1664595,207.5622924375,78.0,127.0
251,207.6210045,208.102064625,76.0,127.0
252,208.0755495,208.44676125,74.0,112.0
253,208.5300945,208.791457875,74.0,117.0
254,208.757367,208.9827455625,73.0,122.0
255,208.98463950000001,210.389941125,71.0,117.0
256,211.7119095,212.177818125,71.0,112.0
257,212.16645450000001,212.6191055625,78.0,127.0
258,212.6209995,213.6494075625,76.0,112.0
259,213.9846345,214.1607706875,78.0,112.0
260,214.211907,214.32554325,76.0,83.0
261,214.4391795,214.7895579375,76.0,99.0
262,214.8937245,215.170239375,74.0,112.0
263,215.3482695,215.55281475,74.0,117.0
264,215.575542,216.238420125,71.0,100.0
265,216.2573595,218.211903,69.0,95.0
266,218.9846295,219.3615230625,74.0,117.0
267,219.4391745,219.74599237500001,76.0,112.0
268,219.8937195,220.90129425,78.0,127.0
269,221.2573545,221.333112,78.0,117.0
270,221.484627,221.5509148125,78.0,107.0
271,221.7118995,222.041444625,78.0,117.0
272,222.1664445,222.575535,76.0,122.0
273,222.6209895,223.0243981875,74.0,97.0
274,223.0755345,223.29523125,74.0,100.0
275,223.302807,223.556594625,73.0,97.0
276,223.5300795,225.4827290625,71.0,100.0
277,226.2573495,226.6815915,71.0,107.0
278,226.7118945,226.9410609375,78.0,127.0
279,226.939167,227.049015375,76.0,100.0
280,227.1664395,228.06037800000001,76.0,127.0
281,228.5300745,228.8728771875,74.0,117.0
282,228.9846195,229.336891875,76.0,117.0
283,229.4391645,229.77628537500001,74.0,127.0
284,229.8937095,230.2478758125,71.0,107.0
285,230.120982,230.4902998125,76.0,127.0
286,230.575527,230.6834814375,74.0,90.0
287,230.8027995,233.049009375,74.0,107.0
288,233.5300695,233.9543115,71.0,107.0
289,233.9846145,234.2137809375,78.0,127.0
290,234.211887,234.321735375,76.0,100.0
291,234.4391595,235.333098,76.0,127.0
292,235.8027945,236.1455971875,74.0,117.0
293,236.2573395,236.609611875,76.0,117.0
294,236.7118845,237.049005375,74.0,127.0
295,237.1664295,237.5205958125,71.0,107.0
296,237.393702,237.7630198125,76.0,127.0
297,237.848247,237.9562014375,74.0,90.0
298,238.0755195,240.321729375,74.0,107.0
