,start,end,pitch,velocity
0,1.7121195,3.43181475,47.0,90.0
1,2.1666645,3.5965873125,54.0,64.0
2,3.0757545,3.6268903125,61.0,57.0
3,2.6212095,4.0927989375,66.0,85.0
4,2.6212095,4.102268625,62.0,81.0
5,3.9848445,4.5359803125000004,54.0,71.0
6,3.5302995,4.5776469375,47.0,66.0
7,4.4393895,5.4564339375,62.0,99.0
8,4.8939345,5.481055125,59.0,66.0
9,4.4393895,5.5397671875,66.0,100.0
10,5.3484795,7.02272025,42.0,81.0
11,5.8030245,7.1458261875,49.0,61.0
12,6.7121145,7.7443104375,57.0,61.0
13,6.2575695,7.7746134375,61.0,90.0
14,6.2575695,7.78029525,66.0,90.0
15,6.2575695,8.121204,54.0,47.0
16,7.6212045,8.185597875,49.0,69.0
17,7.1666595,8.28029475,42.0,67.0
18,8.0757495,9.0662788125,61.0,99.0
19,8.0757495,9.071960625000001,66.0,99.0
20,8.5302945,9.0776424375,57.0,65.0
21,9.4393845,10.140141375,45.0,66.0
22,8.9848395,10.155292875,38.0,78.0
23,9.8939295,10.731049875,54.0,86.0
24,9.8939295,10.7556710625,57.0,73.0
25,10.3484745,10.757565,50.0,61.0
26,11.2575645,11.8427911875,54.0,68.0
27,10.8030195,11.909079,47.0,75.0
28,12.1666545,12.738623625,59.0,67.0
29,11.7121095,12.746199375,62.0,83.0
30,11.7121095,12.7727145,66.0,93.0
31,13.5302895,14.374985625,61.0,96.0
32,13.5302895,14.5359703125,57.0,86.0
33,13.9848345,14.6344550625,54.0,73.0
34,13.0757445,14.97725775,49.0,66.0
35,14.8939245,15.00756075,54.0,78.0
36,12.6211995,15.0132425625,42.0,68.0
37,14.4393795,15.481045125,61.0,69.0
38,15.3484695,15.9261204375,57.0,107.0
39,15.8030145,16.284074625,61.0,96.0
40,14.4393795,16.3541503125,66.0,96.0
41,16.7121045,17.4393765,54.0,72.0
42,16.2575595,17.6193005625,47.0,83.0
43,17.1666495,18.0056638125,66.0,122.0
44,17.6211945,18.26513325,62.0,86.0
45,18.5302845,19.1344505625,47.0,62.0
46,18.0757395,19.2329353125,40.0,85.0
47,18.9848295,19.928010375,67.0,96.0
48,19.4393745,19.935586125,64.0,79.0
49,19.8939195,21.208312125,38.0,93.0
50,20.3484645,21.238615125,45.0,56.0
51,20.8030095,21.51513,50.0,56.0
52,21.2575545,21.88634175,62.0,69.0
53,20.8030095,21.9261144375,66.0,89.0
54,22.1666445,22.9715679375,54.0,53.0
55,21.7120995,23.0549011875,47.0,72.0
56,22.6211895,23.526491625,66.0,112.0
57,23.0757345,23.5397491875,62.0,63.0
58,23.9848245,24.579520875,47.0,71.0
59,23.5302795,24.5814148125,40.0,89.0
60,24.4393695,25.3181565,55.0,72.0
61,24.4393695,25.32573225,59.0,99.0
62,24.8939145,25.333308,52.0,65.0
63,25.8030045,26.594670375,49.0,58.0
64,25.3484595,26.6211855,42.0,78.0
65,26.2575495,26.66664,54.0,45.0
66,26.2575495,27.223457625,61.0,85.0
67,26.7120945,27.2253515625,57.0,81.0
68,26.2575495,27.276487875,66.0,82.0
69,27.621184500000002,28.337092875,54.0,86.0
70,28.303002,28.337092875,54.0,56.0
71,28.0757295,28.541638125,62.0,89.0
72,27.1666395,28.8730771875,47.0,78.0
73,28.5302745,29.0283800625,61.0,67.0
74,28.9848195,30.6041360625,47.0,61.0
75,28.9848195,30.6344390625,59.0,55.0
76,28.9848195,30.6382269375,62.0,55.0
77,28.9848195,30.67421175,66.0,55.0
78,31.2575445,31.8541348125,54.0,65.0
79,30.8029995,32.140119375,47.0,90.0
80,31.7120895,32.488603875,66.0,112.0
81,32.1666345,32.7101945625,62.0,81.0
82,33.5302695,33.9942841875,50.0,59.0
83,32.6211795,34.041632625,38.0,77.0
84,33.0757245,34.08329925,45.0,51.0
85,33.5302695,34.40148075,62.0,72.0
86,33.9848145,34.7423895,57.0,60.0
87,34.8939045,35.556782625,54.0,52.0
88,34.4393595,35.6079189375,42.0,93.0
89,35.3484495,35.9715549375,61.0,96.0
90,35.8029945,36.3617060625,57.0,72.0
91,36.2575395,37.935568125,47.0,68.0
92,37.6211745,38.0851891875,62.0,55.0
93,36.7120845,38.1192800625,54.0,70.0
94,37.848447,38.1192800625,61.0,48.0
95,37.1666295,38.1192800625,66.0,89.0
96,38.0757195,39.753748125,47.0,66.0
97,38.5302645,39.8995813125,54.0,58.0
98,38.9848095,40.384429312500004,66.0,107.0
99,39.212082,40.7423835,62.0,24.0
100,40.3484445,40.8995803125,54.0,59.0
101,39.8938995,41.1117013125,47.0,70.0
102,40.8029895,41.4033676875,66.0,92.0
103,41.2575345,42.223442625,62.0,68.0
104,41.7120795,42.7063966875,40.0,79.0
105,42.1666245,42.7423815,47.0,65.0
106,42.6211695,43.2215476875,64.0,92.0
107,43.0757145,43.602229125,59.0,73.0
108,43.9848045,44.7442734375,49.0,28.0
109,43.5302595,44.814349125,42.0,85.0
110,44.4393495,44.8332885,54.0,56.0
111,44.4393495,45.352227375,61.0,71.0
112,44.8938945,45.397681875,57.0,78.0
113,44.4393495,45.4563939375,66.0,63.0
114,45.8029845,46.35601425,54.0,67.0
115,45.3484395,46.458286875,47.0,77.0
116,46.2575295,46.9241955,66.0,117.0
117,46.7120745,47.0965438125,62.0,90.0
118,46.939347,47.7253310625,59.0,78.0
119,47.848437,47.99237625,59.0,17.0
120,47.6211645,48.37116375,47.0,66.0
121,47.1666195,48.3730576875,40.0,79.0
122,48.0757095,48.950708625,67.0,97.0
123,48.5302545,48.9563904375,64.0,66.0
124,49.4393445,50.2329043125,49.0,42.0
125,49.8938895,50.2707830625,54.0,45.0
126,48.9847995,50.284040625,42.0,66.0
127,50.3484345,50.8541158125,57.0,68.0
128,49.8938895,50.8844188125,61.0,88.0
129,51.2575245,51.9109329375,54.0,63.0
130,50.8029795,52.0662358125,47.0,72.0
131,51.7120695,52.624947375,66.0,86.0
132,52.1666145,52.8124471875,62.0,65.0
133,52.6211595,54.321915375,40.0,76.0
134,53.0757045,54.4393395,47.0,62.0
135,53.9847945,54.4393395,59.0,59.0
136,53.530249500000004,54.4393395,64.0,78.0
137,53.530249500000004,54.4393395,67.0,69.0
138,54.4393395,55.253732625,55.0,74.0
139,54.4393395,55.2878235,62.0,73.0
140,54.4393395,55.2972931875,59.0,76.0
141,54.4393395,55.666611,40.0,57.0
142,55.8029745,56.208277125,55.0,56.0
143,55.3484295,56.2518376875,59.0,74.0
144,55.3484295,56.2783528125,62.0,76.0
145,56.7120645,57.47721525,54.0,60.0
146,57.6211545,58.2707750625,54.0,55.0
147,58.0756995,58.6514565,61.0,57.0
148,57.1666095,58.6912291875,62.0,83.0
149,57.1666095,58.920395625,66.0,65.0
150,56.2575195,59.5207738125,47.0,75.0
151,58.5302445,59.8010765625,54.0,56.0
152,59.4393345,59.8938795,61.0,35.0
153,58.9847895,59.8938795,62.0,89.0
154,58.9847895,59.8938795,66.0,35.0
155,59.8938795,61.5586505625,35.0,88.0
156,60.3484245,61.7328928125,47.0,56.0
157,61.2575145,62.3275891875,59.0,63.0
158,60.8029695,62.3484225,62.0,89.0
159,60.8029695,62.3616800625,66.0,99.0
160,61.7120595,62.7328918125,35.0,72.0
161,62.1666045,62.852209875,47.0,72.0
162,62.6211495,63.49236075,62.0,93.0
163,62.6211495,63.511300125,66.0,102.0
164,63.0756945,63.61357275,59.0,63.0
165,63.5302395,64.6419808125,42.0,100.0
166,63.9847845,64.746147375,54.0,81.0
167,64.8938745,65.4828890625,57.0,93.0
168,64.4393295,65.4942526875,61.0,127.0
169,66.2575095,66.7366756875,62.0,112.0
170,65.3484195,67.087054125,47.0,82.0
171,65.8029645,67.242357,54.0,76.0
172,66.7120545,67.9184926875,61.0,92.0
173,67.1665995,68.8635675,47.0,76.0
174,67.6211445,69.056749125,54.0,83.0
175,68.5302345,69.5775819375,62.0,68.0
176,68.0756895,69.6344000625,66.0,112.0
177,69.4393245,70.1059905,54.0,79.0
178,68.9847795,70.3389448125,47.0,74.0
179,69.8938695,70.8029595,62.0,95.0
180,69.8938695,70.837050375,66.0,102.0
181,70.3484145,71.3351559375,59.0,67.0
182,70.8029595,71.806746375,40.0,75.0
183,71.2575045,71.882503875,47.0,82.0
184,71.7120495,72.6192455625,64.0,90.0
185,71.7120495,72.647654625,67.0,89.0
186,72.1665945,72.700684875,59.0,72.0
187,73.0756845,73.958259375,49.0,66.0
188,73.5302295,73.973410875,54.0,45.0
189,72.6211395,73.9753048125,42.0,86.0
190,73.5302295,74.4525770625,61.0,90.0
191,73.9847745,74.465834625,57.0,89.0
192,73.5302295,74.5131830625,66.0,93.0
193,74.8938645,75.4298488125,54.0,77.0
194,74.4393195,75.605985,47.0,82.0
195,75.3484095,76.3768175625,66.0,117.0
196,75.8029545,76.3787115,59.0,58.0
197,77.1665895,77.6192405625,52.0,58.0
198,76.7120445,77.787801,47.0,52.0
199,76.2574995,77.8029525,40.0,82.0
200,77.1665895,77.9677250625,59.0,71.0
201,77.6211345,78.034012875,55.0,76.0
202,77.1665895,78.0434825625,64.0,70.0
203,78.5302245,78.8957544375,62.0,90.0
204,78.5302245,78.897648375,66.0,95.0
205,78.757497,78.9790876875,57.0,77.0
206,78.0756795,78.988557375,38.0,86.0
207,78.9847695,79.7859050625,40.0,90.0
208,79.4393145,79.848405,61.0,35.0
209,79.4393145,79.897647375,54.0,81.0
210,80.3484045,80.9715099375,54.0,72.0
211,79.8938595,81.0927219375,47.0,85.0
212,81.2574945,81.6722668125,61.0,78.0
213,81.030222,81.7120395,59.0,74.0
214,81.484767,81.7120395,62.0,70.0
215,80.8029495,81.7120395,66.0,122.0
216,81.7120395,82.837038375,40.0,92.0
217,82.1665845,82.8427201875,47.0,58.0
218,82.6211295,83.549158875,59.0,92.0
219,83.0756745,83.564310375,55.0,66.0
220,82.6211295,83.575674,64.0,88.0
221,83.5302195,85.23476325,47.0,92.0
222,83.9847645,85.3919600625,54.0,55.0
223,84.4393095,85.4336266875,62.0,86.0
224,84.8938545,85.473399375,59.0,54.0
225,84.4393095,85.545369,66.0,99.0
226,85.8029445,86.37112575,54.0,93.0
227,85.3483995,87.0472614375,47.0,85.0
228,86.484762,87.1968825,54.0,78.0
229,86.939307,87.4715034375,59.0,93.0
230,86.2574895,87.5434730625,66.0,127.0
231,86.7120345,87.6684729375,62.0,75.0
232,87.848397,88.12869975,62.0,95.0
233,87.6211245,88.162790625,59.0,93.0
234,87.393852,88.2025633125,54.0,97.0
235,87.1665795,88.302942,47.0,93.0
236,88.302942,88.7025628125,64.0,88.0
237,88.0756695,88.7120325,66.0,122.0
238,88.5302145,88.8237748125,62.0,102.0
239,88.757487,88.9866534375,59.0,117.0
240,89.666577,90.00748575,57.0,102.0
241,89.4393045,90.018849375,50.0,93.0
242,90.121122,90.29536425,50.0,95.0
243,88.9847595,90.6040760625,38.0,99.0
244,89.8938495,90.685515375,66.0,127.0
245,90.3483945,90.7858940625,62.0,90.0
246,89.212032,90.84081825,45.0,62.0
247,90.575667,90.91846968750001,57.0,99.0
248,91.2574845,91.7480143125,50.0,92.0
249,91.484757,91.94687775,57.0,90.0
250,90.8029395,92.018847375,38.0,82.0
251,91.030212,92.0661958125,45.0,72.0
252,91.939302,92.2555895625,50.0,75.0
253,91.7120295,92.5737710625,66.0,127.0
254,92.1665745,92.5964983125,62.0,96.0
255,92.393847,92.6571043125,57.0,97.0
256,93.302937,93.5851336875,62.0,90.0
257,92.848392,93.6116488125,54.0,89.0
258,93.0756645,93.647633625,59.0,96.0
259,92.6211195,94.333239,47.0,82.0
260,93.757482,94.44687525,54.0,97.0
261,94.212027,94.605966,59.0,96.0
262,93.9847545,94.6078599375,62.0,95.0
263,93.5302095,94.6949810625,66.0,127.0
264,95.121117,95.3086168125,62.0,93.0
265,94.666572,95.412783375,54.0,112.0
266,94.8938445,95.458237875,59.0,81.0
267,95.575662,95.787783,54.0,102.0
268,94.4392995,95.88626775,47.0,82.0
269,95.3483895,96.0889190625,66.0,127.0
270,95.8029345,96.181722,62.0,99.0
271,96.030207,96.56808525,59.0,97.0
272,96.7120245,97.2366451875,52.0,90.0
273,96.939297,97.2669481875,59.0,88.0
274,97.393842,97.609750875,52.0,92.0
275,96.2574795,97.7177053125,40.0,78.0
276,96.484752,97.7480083125,47.0,75.0
277,97.6211145,98.049144375,64.0,88.0
278,97.1665695,98.08323525,67.0,112.0
279,97.848387,98.0889170625,59.0,96.0
280,98.5302045,98.7555830625,55.0,97.0
281,98.757477,98.9942191875,59.0,97.0
282,98.302932,99.0813403125,50.0,75.0
283,98.0756595,99.74990025,43.0,88.0
284,99.4392945,99.848385,59.0,99.0
285,98.9847495,99.8635365,62.0,107.0
286,99.666567,99.8843698125,55.0,97.0
287,99.212022,99.8881576875,50.0,95.0
288,100.3483845,100.6040660625,57.0,99.0
289,100.575657,100.81050525,61.0,117.0
290,100.121112,100.8843688125,52.0,85.0
291,99.8938395,101.587019625,45.0,86.0
292,101.2574745,101.6684589375,61.0,102.0
293,101.030202,101.7252770625,52.0,96.0
294,101.484747,101.7366406875,59.0,72.0
295,100.8029295,101.7423225,64.0,100.0
296,102.1665645,102.390049125,57.0,85.0
297,102.393837,102.6608821875,61.0,112.0
298,101.939292,102.76504875,52.0,86.0
299,102.848382,103.02641212500001,52.0,90.0
300,101.7120195,103.060503,45.0,89.0
301,103.0756545,103.37110875,61.0,117.0
302,102.6211095,103.4449723125,64.0,92.0
303,103.302927,103.5301995,57.0,97.0
304,104.212017,104.533986375,54.0,79.0
305,103.9847445,104.9298193125,50.0,82.0
306,104.4392895,104.9449708125,62.0,72.0
307,103.5301995,105.1362585,38.0,89.0
308,104.666562,105.2972431875,54.0,86.0
309,104.8938345,105.352167375,57.0,72.0
310,103.757472,105.38625825,45.0,86.0
311,105.121107,105.4222430625,62.0,63.0
312,106.030197,106.3086058125,54.0,78.0
313,105.8029245,106.3313330625,50.0,83.0
314,105.34837950000001,106.708226625,38.0,78.0
315,105.575652,106.7328478125,45.0,67.0
316,106.2574695,106.7726205,57.0,36.0
317,106.484742,106.8578476875,50.0,83.0
318,106.7120145,107.1760291875,54.0,79.0
319,106.93928700000001,107.1760291875,57.0,67.0
320,106.2574695,107.18360493750001,62.0,55.0
321,106.2574695,107.2366351875,66.0,97.0
322,107.848377,108.1911796875,62.0,56.0
323,107.393832,108.193073625,54.0,85.0
324,107.6211045,108.261255375,59.0,76.0
325,107.1665595,108.8635275,47.0,88.0
326,108.302922,109.026406125,54.0,82.0
327,108.5301945,109.3275421875,59.0,82.0
328,108.757467,109.488526875,62.0,92.0
329,108.0756495,109.6267843125,66.0,102.0
330,109.4392845,109.9487536875,59.0,90.0
331,109.212012,109.99231425,54.0,97.0
332,110.121102,110.3275411875,54.0,97.0
333,109.666557,110.3729956875,62.0,88.0
334,108.9847395,110.4222380625,47.0,88.0
335,109.8938295,110.6798135625,66.0,122.0
336,110.575647,110.78019225,62.0,97.0
337,110.3483745,110.9222375625,59.0,102.0
338,111.2574645,111.768827625,52.0,89.0
339,111.484737,111.7972366875,59.0,68.0
340,111.939282,112.1040545625,52.0,93.0
341,110.8029195,112.4695845,40.0,88.0
342,111.030192,112.68928125,47.0,77.0
343,112.393827,112.8502659375,59.0,97.0
344,112.1665545,112.890038625,64.0,88.0
345,111.7120095,112.9487506875,67.0,92.0
346,113.0756445,113.3767805625,52.0,93.0
347,113.302917,113.64382575,59.0,79.0
348,112.848372,113.6495075625,47.0,75.0
349,113.757462,113.9601133125,47.0,97.0
350,112.6210995,113.9828405625,40.0,78.0
351,113.9847345,114.2858705625,64.0,100.0
352,113.5301895,114.367309875,67.0,122.0
353,114.212007,114.4373855625,59.0,107.0
354,114.8938245,115.3957179375,50.0,92.0
355,115.121097,115.5661723125,57.0,85.0
356,115.575642,115.71958125,50.0,92.0
357,114.4392795,116.1059445,38.0,93.0
358,116.030187,116.2290504375,57.0,102.0
359,115.8029145,116.2517776875,62.0,97.0
360,115.3483695,116.272611,66.0,127.0
361,114.666552,116.3048079375,45.0,75.0
362,116.939277,117.064276875,74.0,99.0
363,116.939277,117.0699586875,78.0,117.0
364,116.7120045,117.1722313125,50.0,95.0
365,117.1665495,117.283973625,78.0,122.0
366,117.1665495,117.2858675625,74.0,99.0
367,117.393822,117.677912625,50.0,93.0
368,117.6210945,117.7479883125,62.0,102.0
369,117.6210945,117.7555640625,66.0,127.0
370,116.2574595,117.908973,38.0,90.0
371,116.484732,117.94495781250001,45.0,99.0
372,117.848367,118.05291225,62.0,97.0
373,117.848367,118.060488,66.0,122.0
374,118.5301845,119.0737445625,50.0,88.0
375,118.757457,119.2782898125,57.0,66.0
376,119.212002,119.3426836875,50.0,85.0
377,118.0756395,119.594577375,38.0,97.0
378,118.302912,119.958213375,45.0,82.0
379,119.4392745,120.03775875,62.0,90.0
380,119.666547,120.08321325,57.0,96.0
381,118.9847295,120.0888950625,66.0,127.0
382,120.3483645,120.8938185,50.0,89.0
383,119.8938195,121.215787875,38.0,66.0
384,120.121092,121.2252575625,45.0,86.0
385,120.575637,121.2404090625,57.0,79.0
386,121.030182,121.4335906875,50.0,96.0
387,121.2574545,121.541545125,61.0,107.0
388,121.484727,121.76502975,62.0,90.0
389,120.8029095,121.821847875,66.0,127.0
390,122.393817,122.6457106875,61.0,117.0
391,121.939272,122.746089375,54.0,95.0
392,122.1665445,122.7744984375,59.0,83.0
393,123.0756345,123.3275281875,61.0,102.0
394,123.302907,123.412755375,59.0,21.0
395,121.7119995,123.44684625000001,47.0,76.0
396,123.302907,123.575634,62.0,70.0
397,122.848362,123.594573375,54.0,86.0
398,122.6210895,123.7063156875,66.0,117.0
399,124.211997,124.4601028125,62.0,90.0
400,123.9847245,124.5585875625,59.0,75.0
401,123.757452,124.5604815,54.0,100.0
402,123.5301795,124.821844875,47.0,73.0
403,124.666542,124.8237388125,54.0,82.0
404,124.4392695,125.15896575000001,66.0,112.0
405,124.8938145,125.1684354375,62.0,93.0
406,125.121087,125.6078289375,59.0,86.0
407,125.8029045,126.3010100625,52.0,96.0
408,126.030177,126.35593425,59.0,88.0
409,125.3483595,126.602146125,40.0,88.0
410,125.575632,126.640024875,47.0,76.0
411,126.484722,126.799115625,52.0,97.0
412,126.7119945,127.0964638125,64.0,99.0
413,126.2574495,127.121085,67.0,112.0
414,126.939267,127.155175875,59.0,100.0
415,127.6210845,127.84078125,55.0,97.0
416,127.84835700000001,128.0888870625,59.0,112.0
417,127.393812,128.1835839375,50.0,89.0
418,127.1665395,128.8426741875,43.0,82.0
419,128.5301745,128.87108325,59.0,97.0
420,128.0756295,128.890022625,62.0,99.0
421,128.757447,128.9638861875,55.0,100.0
422,128.302902,128.9847195,50.0,117.0
423,129.4392645,129.6684309375,57.0,102.0
424,129.666537,129.81047625,64.0,68.0
425,129.666537,129.8275216875,61.0,69.0
426,129.211992,129.9866124375,52.0,72.0
427,129.8938095,130.4998695,64.0,96.0
428,129.8938095,130.5017634375,61.0,127.0
429,130.575627,130.586990625,63.0,81.0
430,128.9847195,130.693051125,45.0,89.0
431,130.575627,130.7555510625,61.0,127.0
432,130.3483545,130.76502075,57.0,93.0
433,130.121082,130.783960125,52.0,99.0
434,130.575627,130.7896419375,64.0,99.0
435,131.2574445,131.5055503125,57.0,112.0
436,131.484717,131.609716875,73.0,97.0
437,131.484717,131.6210805,64.0,85.0
438,131.484717,131.636232,69.0,88.0
439,131.030172,131.7934288125,52.0,96.0
440,130.8028995,132.086989125,45.0,93.0
441,131.939262,132.094564875,52.0,97.0
442,131.7119895,132.2441859375,69.0,117.0
443,131.7119895,132.5850946875,73.0,127.0
444,132.393807,132.5964583125,69.0,102.0
445,132.1665345,132.6191855625,64.0,99.0
446,133.0756245,133.5737300625,50.0,89.0
447,133.302897,133.6078209375,57.0,81.0
448,133.757442,133.91653275,50.0,93.0
449,133.5301695,134.0775174375,62.0,97.0
450,133.5301695,134.1456991875,66.0,117.0
451,132.6210795,134.261229375,38.0,86.0
452,132.848352,134.503653375,45.0,83.0
453,133.9847145,134.9487286875,57.0,88.0
454,134.211987,135.064258875,62.0,93.0
455,134.8938045,135.3843343125,50.0,93.0
456,134.4392595,135.6513795,38.0,77.0
457,134.666532,135.67410675,45.0,71.0
458,135.121077,135.7479703125,57.0,89.0
459,135.575622,135.7725915,50.0,82.0
460,135.3483495,136.21956075,66.0,122.0
461,136.030167,136.272591,57.0,95.0
462,135.8028945,136.299106125,62.0,100.0
463,136.7119845,136.99228725,59.0,92.0
464,136.484712,137.2820596875,54.0,93.0
465,137.1665295,137.6116048125,62.0,107.0
466,136.939257,137.799104625,66.0,122.0
467,136.2574395,137.9373620625,47.0,76.0
468,137.393802,138.0756195,54.0,96.0
469,137.6210745,138.2858465625,59.0,81.0
470,137.848347,138.488497875,62.0,102.0
471,138.757437,139.0547851875,62.0,82.0
472,138.302892,139.102133625,54.0,102.0
473,138.5301645,139.200618375,59.0,82.0
474,138.0756195,139.3729666875,47.0,81.0
475,139.211982,139.374860625,54.0,102.0
476,138.9847095,139.76501175,66.0,107.0
477,139.4392545,139.7744814375,62.0,102.0
478,139.666527,140.3805414375,59.0,93.0
479,140.3483445,140.90895,52.0,95.0
480,140.575617,140.93167725,59.0,74.0
481,141.030162,141.302889,52.0,93.0
482,139.8937995,141.5812978125,40.0,86.0
483,140.121072,141.76500975,47.0,85.0
484,141.48470700000001,142.3237213125,59.0,89.0
485,140.8028895,142.3350849375,67.0,112.0
486,141.2574345,142.382433375,64.0,95.0
487,142.1665245,142.6381149375,52.0,92.0
488,142.393797,142.7214481875,59.0,76.0
489,142.848342,143.018796375,52.0,99.0
490,141.939252,143.0737205625,47.0,67.0
491,141.7119795,143.0926599375,40.0,71.0
492,143.0756145,143.4089475,64.0,96.0
493,142.6210695,143.4146293125,67.0,112.0
494,143.302887,143.5623564375,59.0,97.0
495,143.9847045,144.4979615625,50.0,88.0
496,144.211977,144.746067375,57.0,86.0
497,144.666522,144.852127875,50.0,77.0
498,143.5301595,145.177885125,38.0,86.0
499,143.757432,145.374854625,45.0,77.0
500,144.8937945,145.44682425,64.0,90.0
501,144.4392495,145.47712725,66.0,112.0
502,145.8028845,146.215762875,50.0,76.0
503,146.030157,146.484702,57.0,67.0
504,145.3483395,146.52258075,38.0,72.0
505,145.575612,146.5585655625,45.0,63.0
506,146.7119745,147.140004375,64.0,74.0
507,146.2574295,147.1665195,66.0,102.0
508,147.1665195,148.8312905625,35.0,88.0
509,147.6210645,149.0055328125,47.0,56.0
510,148.5301545,149.6002291875,59.0,63.0
511,148.0756095,149.6210625,62.0,89.0
512,148.0756095,149.6343200625,66.0,99.0
513,148.9846995,150.0055318125,35.0,72.0
514,149.4392445,150.124849875,47.0,72.0
515,149.8937895,150.76500075,62.0,93.0
516,149.8937895,150.783940125,66.0,102.0
517,150.3483345,150.88621275,59.0,63.0
518,150.8028795,151.9146208125,42.0,100.0
519,151.2574245,152.018787375,54.0,81.0
520,152.1665145,152.7555290625,57.0,93.0
521,151.7119695,152.7668926875,61.0,127.0
522,153.5301495,154.0093156875,62.0,112.0
523,152.6210595,154.359694125,47.0,82.0
524,153.0756045,154.514997,54.0,76.0
525,153.9846945,155.1911326875,61.0,92.0
526,154.4392395,156.1362075,47.0,76.0
527,154.8937845,156.329389125,54.0,83.0
528,155.8028745,156.8502219375,62.0,68.0
529,155.3483295,156.9070400625,66.0,112.0
530,156.7119645,157.3786305,54.0,79.0
531,156.2574195,157.6115848125,47.0,74.0
532,157.1665095,158.0755995,62.0,95.0
533,157.1665095,158.109690375,66.0,102.0
534,157.6210545,158.6077959375,59.0,67.0
535,158.0755995,159.079386375,40.0,75.0
536,158.5301445,159.155143875,47.0,82.0
537,158.9846895,159.8918855625,64.0,90.0
538,158.9846895,159.920294625,67.0,89.0
539,159.4392345,159.973324875,59.0,72.0
540,160.3483245,161.230899375,49.0,66.0
541,160.8028695,161.246050875,54.0,45.0
542,159.8937795,161.2479448125,42.0,86.0
543,160.8028695,161.7252170625,61.0,90.0
544,161.2574145,161.738474625,57.0,89.0
545,160.8028695,161.7858230625,66.0,93.0
546,162.1665045,162.7024888125,54.0,77.0
547,161.7119595,162.878625,47.0,82.0
548,162.6210495,163.6494575625,66.0,117.0
549,163.0755945,163.6513515,59.0,58.0
550,164.4392295,164.8918805625,52.0,58.0
551,163.98468450000001,165.060441,47.0,52.0
552,163.5301395,165.0755925,40.0,82.0
553,164.4392295,165.2403650625,59.0,71.0
554,164.8937745,165.306652875,55.0,76.0
555,164.4392295,165.3161225625,64.0,70.0
556,165.8028645,166.1683944375,62.0,90.0
557,165.8028645,166.170288375,66.0,95.0
558,166.030137,166.2517276875,57.0,77.0
559,165.3483195,166.261197375,38.0,86.0
560,166.2574095,166.8047574375,42.0,90.0
561,166.7119545,167.121045,61.0,35.0
562,166.7119545,167.170287375,54.0,81.0
563,167.6210445,168.2441499375,54.0,72.0
564,167.1664995,168.3653619375,47.0,85.0
565,168.5301345,168.9449068125,61.0,78.0
566,168.302862,168.9846795,59.0,74.0
567,168.757407,168.9846795,62.0,70.0
568,168.0755895,168.9846795,66.0,122.0
569,168.9846795,170.109678375,40.0,92.0
570,169.4392245,170.1153601875,47.0,58.0
571,169.8937695,170.821798875,59.0,92.0
572,170.3483145,170.836950375,55.0,66.0
573,169.8937695,170.848314,64.0,88.0
574,170.8028595,172.50740325,47.0,92.0
575,171.2574045,172.6646000625,54.0,55.0
576,171.7119495,172.7062666875,62.0,86.0
577,172.1664945,172.746039375,59.0,54.0
578,171.7119495,172.818009,66.0,99.0
579,173.0755845,173.64376575,54.0,93.0
580,172.6210395,174.3199014375,47.0,85.0
581,173.757402,174.4695225,54.0,78.0
582,174.211947,174.74414343750001,59.0,93.0
583,173.5301295,174.8161130625,66.0,127.0
584,173.9846745,174.9411129375,62.0,75.0
585,175.121037,175.40133975,62.0,95.0
586,174.8937645,175.435430625,59.0,93.0
587,174.666492,175.4752033125,54.0,97.0
588,174.4392195,175.575582,47.0,93.0
589,175.575582,175.9752028125,64.0,88.0
590,175.3483095,175.9846725,66.0,122.0
591,175.8028545,176.0964148125,62.0,102.0
592,176.030127,176.2592934375,59.0,117.0
593,176.939217,177.28012575,57.0,102.0
594,176.7119445,177.291489375,50.0,93.0
595,177.393762,177.56800425,50.0,95.0
596,176.2573995,177.8767160625,38.0,99.0
597,177.1664895,177.958155375,66.0,127.0
598,177.6210345,178.0585340625,62.0,90.0
599,176.484672,178.11345825,45.0,62.0
600,177.848307,178.1911096875,57.0,99.0
601,178.5301245,179.0206543125,50.0,92.0
602,178.757397,179.21951775,57.0,90.0
603,178.0755795,179.291487375,38.0,82.0
604,178.302852,179.3388358125,45.0,72.0
605,179.211942,179.5282295625,50.0,75.0
606,178.9846695,179.8464110625,66.0,127.0
607,179.4392145,179.8691383125,62.0,96.0
608,179.666487,179.9297443125,57.0,97.0
609,180.575577,180.8577736875,62.0,90.0
610,180.121032,180.8842888125,54.0,89.0
611,180.3483045,180.920273625,59.0,96.0
612,179.8937595,181.605879,47.0,82.0
613,181.030122,181.71951525,54.0,97.0
614,181.484667,181.878606,59.0,96.0
615,181.2573945,181.8804999375,62.0,95.0
616,180.8028495,181.9676210625,66.0,127.0
617,182.393757,182.5812568125,62.0,93.0
618,181.939212,182.685423375,54.0,112.0
619,182.1664845,182.730877875,59.0,81.0
620,182.848302,183.06042300000001,54.0,102.0
621,181.7119395,183.15890775,47.0,82.0
622,182.6210295,183.3615590625,66.0,127.0
623,183.0755745,183.454362,62.0,99.0
624,183.302847,183.84072525,59.0,97.0
625,183.9846645,184.5092851875,52.0,90.0
626,184.211937,184.5395881875,59.0,88.0
627,184.666482,184.882390875,52.0,92.0
628,183.5301195,184.9903453125,40.0,78.0
629,183.757392,185.0206483125,47.0,75.0
630,184.8937545,185.321784375,64.0,88.0
631,184.4392095,185.35587525,67.0,112.0
632,185.121027,185.3615570625,59.0,96.0
633,185.8028445,186.0282230625,55.0,97.0
634,186.030117,186.2668591875,59.0,97.0
635,185.575572,186.3539803125,50.0,75.0
636,185.3482995,187.02254025,43.0,88.0
637,186.7119345,187.121025,59.0,99.0
638,186.2573895,187.1361765,62.0,107.0
639,186.939207,187.1570098125,55.0,97.0
640,186.48466200000001,187.1607976875,50.0,95.0
641,187.6210245,187.8767060625,57.0,99.0
642,187.848297,188.08314525,61.0,117.0
643,187.393752,188.1570088125,52.0,85.0
644,187.1664795,188.859659625,45.0,86.0
645,188.5301145,188.9410989375,61.0,102.0
646,188.302842,188.9979170625,52.0,96.0
647,188.757387,189.0092806875,59.0,72.0
648,188.0755695,189.0149625,64.0,100.0
649,189.4392045,189.662689125,57.0,85.0
650,189.66647700000001,189.9335221875,61.0,112.0
651,189.211932,190.03768875,52.0,86.0
652,190.121022,190.299052125,52.0,90.0
653,188.9846595,190.333143,45.0,89.0
654,190.3482945,190.64374875000001,61.0,117.0
655,189.8937495,190.7176123125,64.0,92.0
656,190.575567,190.8028395,57.0,97.0
657,191.484657,191.806626375,54.0,79.0
658,191.2573845,192.2024593125,50.0,82.0
659,191.7119295,192.2176108125,62.0,72.0
660,190.8028395,192.4088985,38.0,89.0
661,191.939202,192.5698831875,54.0,86.0
662,192.1664745,192.624807375,57.0,72.0
663,191.030112,192.65889825,45.0,86.0
664,192.393747,192.6948830625,62.0,63.0
665,193.302837,193.5812458125,54.0,78.0
666,193.0755645,193.6039730625,50.0,83.0
667,192.6210195,193.980866625,38.0,78.0
668,192.848292,194.0054878125,45.0,67.0
669,193.5301095,194.0452605,57.0,36.0
670,193.757382,194.1304876875,50.0,83.0
671,193.9846545,194.4486691875,54.0,79.0
672,194.211927,194.4486691875,57.0,67.0
673,193.5301095,194.4562449375,62.0,55.0
674,193.5301095,194.5092751875,66.0,97.0
675,195.121017,195.4638196875,62.0,56.0
676,194.666472,195.465713625,54.0,85.0
677,194.8937445,195.53389537500001,59.0,76.0
678,194.4391995,196.1361675,47.0,88.0
679,195.575562,196.299046125,54.0,82.0
680,195.8028345,196.6001821875,59.0,82.0
681,196.030107,196.761166875,62.0,92.0
682,195.3482895,196.8994243125,66.0,102.0
683,196.7119245,197.2213936875,59.0,90.0
684,196.484652,197.26495425,54.0,97.0
685,197.393742,197.6001811875,54.0,97.0
686,196.939197,197.6456356875,62.0,88.0
687,196.2573795,197.6948780625,47.0,88.0
688,197.1664695,197.9524535625,66.0,122.0
689,197.848287,198.05283225,62.0,97.0
690,197.6210145,198.1948775625,59.0,102.0
691,198.5301045,199.041467625,52.0,89.0
692,198.757377,199.0698766875,59.0,68.0
693,199.211922,199.3766945625,52.0,93.0
694,198.0755595,199.7422245,40.0,88.0
695,198.302832,199.96192125,47.0,77.0
696,199.666467,200.1229059375,59.0,97.0
697,199.4391945,200.162678625,64.0,88.0
698,198.9846495,200.2213906875,67.0,92.0
699,200.3482845,200.6494205625,52.0,93.0
700,200.575557,200.91646575000001,59.0,79.0
701,200.121012,200.9221475625,47.0,75.0
702,201.030102,201.2327533125,47.0,97.0
703,199.8937395,201.2554805625,40.0,78.0
704,201.2573745,201.5585105625,64.0,100.0
705,200.8028295,201.639949875,67.0,122.0
706,201.484647,201.7100255625,59.0,107.0
707,202.1664645,202.6683579375,50.0,92.0
708,202.393737,202.8388123125,57.0,85.0
709,202.848282,202.99222125,50.0,92.0
710,201.7119195,203.3785845,38.0,93.0
711,203.302827,203.5016904375,57.0,102.0
712,203.0755545,203.5244176875,62.0,97.0
713,202.6210095,203.545251,66.0,127.0
714,201.939192,203.5774479375,45.0,75.0
715,204.211917,204.33691687500001,74.0,99.0
716,204.211917,204.3425986875,78.0,117.0
717,203.9846445,204.4448713125,50.0,95.0
718,204.4391895,204.556613625,78.0,122.0
719,204.4391895,204.5585075625,74.0,99.0
720,204.666462,204.950552625,50.0,93.0
721,204.8937345,205.0206283125,62.0,102.0
722,204.8937345,205.0282040625,66.0,127.0
723,203.5300995,205.181613,38.0,90.0
724,203.757372,205.2175978125,45.0,99.0
725,205.121007,205.32555225,62.0,97.0
726,205.121007,205.333128,66.0,122.0
727,206.030097,206.37100575,57.0,102.0
728,205.8028245,206.382369375,50.0,93.0
729,206.484642,206.65888425,50.0,95.0
730,205.3482795,206.9675960625,38.0,99.0
731,206.2573695,207.049035375,66.0,127.0
732,206.7119145,207.1494140625,62.0,90.0
733,205.575552,207.20433825,45.0,62.0
734,206.939187,207.2819896875,57.0,99.0
735,207.6210045,208.1115343125,50.0,92.0
736,207.848277,208.31039775,57.0,90.0
737,207.1664595,208.382367375,38.0,82.0
738,207.393732,208.4297158125,45.0,72.0
739,208.302822,208.6191095625,50.0,75.0
740,208.0755495,208.9372910625,66.0,127.0
741,208.5300945,208.9600183125,62.0,96.0
742,208.757367,209.0206243125,57.0,97.0
743,209.666457,209.9486536875,62.0,90.0
744,209.211912,209.9751688125,54.0,89.0
745,209.4391845,210.011153625,59.0,96.0
746,208.98463950000001,210.69675900000001,47.0,82.0
747,210.121002,210.81039525,54.0,97.0
748,210.575547,210.969486,59.0,96.0
749,210.3482745,210.9713799375,62.0,95.0
750,209.8937295,211.0585010625,66.0,127.0
751,211.484637,211.6721368125,62.0,93.0
752,211.030092,211.776303375,54.0,112.0
753,211.2573645,211.821757875,59.0,81.0
754,211.939182,212.151303,54.0,102.0
755,210.8028195,212.24978775,47.0,82.0
756,211.7119095,212.4524390625,66.0,127.0
757,212.16645450000001,212.545242,62.0,99.0
758,212.393727,212.93160525,59.0,97.0
759,213.0755445,213.6001651875,52.0,90.0
760,213.302817,213.6304681875,59.0,88.0
761,213.757362,213.973270875,52.0,92.0
762,212.6209995,214.0812253125,40.0,78.0
763,212.848272,214.1115283125,47.0,75.0
764,213.9846345,214.412664375,64.0,88.0
765,213.5300895,214.44675525,67.0,112.0
766,214.211907,214.4524370625,59.0,96.0
767,214.8937245,215.1191030625,55.0,97.0
768,215.120997,215.3577391875,59.0,97.0
769,214.666452,215.4448603125,50.0,75.0
770,214.4391795,216.11342025,43.0,88.0
771,215.8028145,216.211905,59.0,99.0
772,215.3482695,216.2270565,62.0,107.0
773,216.030087,216.2478898125,55.0,97.0
774,215.575542,216.2516776875,50.0,95.0
775,216.7119045,216.9675860625,57.0,99.0
776,216.939177,217.17402525,61.0,117.0
777,216.484632,217.2478888125,52.0,85.0
778,216.2573595,217.950539625,45.0,86.0
779,217.6209945,218.0319789375,61.0,102.0
780,217.393722,218.0887970625,52.0,96.0
781,217.848267,218.1001606875,59.0,72.0
782,217.1664495,218.1058425,64.0,100.0
783,218.5300845,218.753569125,57.0,85.0
784,218.757357,219.0244021875,61.0,112.0
785,218.302812,219.12856875,52.0,86.0
786,219.211902,219.389932125,52.0,90.0
787,218.0755395,219.424023,45.0,89.0
788,219.4391745,219.73462875,61.0,117.0
789,218.9846295,219.8084923125,64.0,92.0
790,219.666447,219.8937195,57.0,97.0
791,220.575537,220.897506375,54.0,79.0
792,220.3482645,221.2933393125,50.0,82.0
793,220.8028095,221.3084908125,62.0,72.0
794,219.8937195,221.4997785,38.0,89.0
795,221.030082,221.6607631875,54.0,86.0
796,221.2573545,221.715687375,57.0,72.0
797,220.120992,221.74977825,45.0,86.0
798,221.484627,221.7857630625,62.0,63.0
799,222.393717,222.6721258125,54.0,78.0
800,222.1664445,222.6948530625,50.0,83.0
801,221.7118995,223.071746625,38.0,78.0
802,221.939172,223.0963678125,45.0,67.0
803,222.6209895,223.1361405,57.0,36.0
804,222.848262,223.2213676875,50.0,83.0
805,223.0755345,223.5395491875,54.0,79.0
806,223.302807,223.5395491875,57.0,67.0
807,222.6209895,223.5471249375,62.0,55.0
808,222.6209895,223.6001551875,66.0,97.0
809,224.211897,224.5546996875,62.0,56.0
810,223.757352,224.556593625,54.0,85.0
811,223.9846245,224.624775375,59.0,76.0
812,223.5300795,225.2270475,47.0,88.0
813,224.666442,225.389926125,54.0,82.0
814,224.8937145,225.6910621875,59.0,82.0
815,225.120987,225.852046875,62.0,92.0
816,224.4391695,225.9903043125,66.0,102.0
817,225.8028045,226.3122736875,59.0,90.0
818,225.575532,226.35583425,54.0,97.0
819,226.484622,226.6910611875,54.0,97.0
820,226.030077,226.7365156875,62.0,88.0
821,225.3482595,226.7857580625,47.0,88.0
822,226.2573495,227.0433335625,66.0,122.0
823,226.939167,227.14371225,62.0,97.0
824,226.7118945,227.2857575625,59.0,102.0
825,227.6209845,228.132347625,52.0,89.0
826,227.848257,228.1607566875,59.0,68.0
827,228.302802,228.4675745625,52.0,93.0
828,227.1664395,228.8331045,40.0,88.0
829,227.393712,229.05280125,47.0,77.0
830,228.757347,229.2137859375,59.0,97.0
831,228.5300745,229.253558625,64.0,88.0
832,228.0755295,229.3122706875,67.0,92.0
833,229.4391645,229.7403005625,52.0,93.0
834,229.666437,230.00734575,59.0,79.0
835,229.211892,230.0130275625,47.0,75.0
836,230.120982,230.3236333125,47.0,97.0
837,228.9846195,230.3463605625,40.0,78.0
838,230.3482545,230.6493905625,64.0,100.0
839,229.8937095,230.730829875,67.0,122.0
840,230.575527,230.8009055625,59.0,107.0
841,231.2573445,231.7592379375,50.0,92.0
842,231.48461700000001,231.9296923125,57.0,85.0
843,231.939162,232.08310125,50.0,92.0
844,230.8027995,232.4694645,38.0,93.0
845,232.393707,232.5925704375,57.0,102.0
846,232.1664345,232.6152976875,62.0,97.0
847,231.7118895,232.636131,66.0,127.0
848,231.030072,232.6683279375,45.0,75.0
849,233.302797,233.427796875,74.0,99.0
850,233.302797,233.4334786875,78.0,117.0
851,233.0755245,233.5357513125,50.0,95.0
852,233.5300695,233.647493625,78.0,122.0
853,233.5300695,233.6493875625,74.0,99.0
854,233.757342,234.041432625,50.0,93.0
855,233.9846145,234.1115083125,62.0,102.0
856,233.9846145,234.1190840625,66.0,127.0
857,232.6209795,234.272493,38.0,90.0
858,232.848252,234.3084778125,45.0,99.0
859,234.211887,234.41643225,62.0,97.0
860,234.211887,234.424008,66.0,122.0
861,234.8937045,235.4296888125,52.0,93.0
862,235.120977,235.458097875,55.0,88.0
863,235.575522,235.73461275,52.0,79.0
864,234.4391595,236.13423356250001,40.0,93.0
865,235.8027945,236.2516576875,55.0,69.0
866,235.3482495,236.261127375,59.0,99.0
867,236.030067,236.31036975,64.0,92.0
868,234.66643200000001,236.3160515625,47.0,89.0
869,236.7118845,237.2024143125,52.0,89.0
870,236.939157,237.268702125,55.0,79.0
871,236.484612,237.2819596875,47.0,76.0
872,237.393702,237.5603685,47.0,74.0
873,236.2573395,237.5812018125,40.0,90.0
874,237.6209745,237.9372620625,59.0,93.0
875,237.1664295,237.9599893125,64.0,122.0
876,237.848247,238.0698376875,55.0,74.0
877,238.5300645,238.99218525,50.0,92.0
878,238.757337,239.1190790625,57.0,78.0
879,239.211882,239.4069575625,50.0,72.0
880,239.4391545,239.7061996875,64.0,86.0
881,238.0755195,239.730820875,38.0,77.0
882,238.302792,239.905063125,45.0,74.0
883,239.666427,240.363396,62.0,96.0
884,238.9846095,240.363396,66.0,122.0
885,240.3482445,240.9183196875,45.0,54.0
886,239.8936995,240.995971125,38.0,89.0
887,240.8027895,241.799000625,62.0,82.0
888,240.8027895,241.82551575,66.0,95.0
889,241.7118795,243.3728626875,47.0,78.0
890,242.1664245,243.5622564375,54.0,99.0
891,243.0755145,244.056574125,62.0,57.0
892,242.6209695,244.2971041875,66.0,127.0
893,243.5300595,244.541422125,47.0,70.0
894,243.9846045,244.5433160625,54.0,59.0
895,244.8936945,245.3785425,62.0,72.0
896,244.4391495,245.382330375,66.0,96.0
897,246.7118745,247.3425556875,54.0,62.0
898,246.2573295,248.0698276875,61.0,71.0
899,247.1664195,248.1455851875,57.0,69.0
900,247.6209645,248.230812375,54.0,71.0
901,245.8027845,248.382327375,49.0,38.0
902,245.3482395,248.52247875,42.0,66.0
903,248.0755095,248.995963125,64.0,89.0
904,248.5300545,249.0205843125,61.0,74.0
905,248.757327,249.4751293125,57.0,58.0
906,249.4391445,250.05278025,45.0,58.0
907,248.9845995,250.079295375,38.0,72.0
908,249.8936895,250.8463400625,66.0,122.0
909,250.3482345,250.852021875,62.0,72.0
910,251.2573245,251.7819451875,54.0,73.0
911,250.8027795,251.852020875,47.0,73.0
912,252.1664145,252.70429275,62.0,69.0
913,251.7118695,252.7099745625,66.0,117.0
914,252.393687,252.7364896875,59.0,55.0
915,253.98459450000001,254.4694425,57.0,82.0
916,253.5300495,254.5584575625,54.0,92.0
917,254.4391395,255.24974475,61.0,92.0
918,254.8936845,255.4391385,54.0,93.0
919,252.6209595,255.6607291875,42.0,78.0
920,253.0755045,255.67398675,49.0,51.0
921,255.575502,255.7478503125,54.0,83.0
922,255.3482295,255.8501229375,62.0,90.0
923,255.8027745,256.1664105,61.0,102.0
924,256.030047,256.2933043125,62.0,74.0
925,254.4391395,256.2970921875,66.0,112.0
926,256.7118645,257.4069395625,54.0,66.0
927,256.2573195,257.5319394375,47.0,79.0
928,257.1664095,257.5887575625,62.0,88.0
929,257.6209545,258.0698176875,61.0,81.0
930,258.5300445,259.26489225,47.0,56.0
931,258.0754995,259.2970891875,40.0,76.0
932,258.9845895,259.8425431875,64.0,77.0
933,258.9845895,259.8955734375,67.0,72.0
934,259.4391345,259.9789066875,59.0,68.0
935,259.8936795,261.0925419375,38.0,77.0
936,260.3482245,261.1057995,45.0,45.0
937,260.8027695,261.2061781875,50.0,59.0
938,260.8027695,261.7592079375,62.0,88.0
939,261.2573145,261.7629958125,57.0,65.0
940,260.8027695,261.8463290625,66.0,92.0
941,262.1664045,262.9145098125,54.0,76.0
942,261.7118595,262.99216125,47.0,86.0
943,262.6209495,263.1682974375,66.0,117.0
944,262.6209495,263.8539028125,62.0,90.0
945,263.0754945,264.1114783125,59.0,69.0
946,263.5300395,264.670189875,40.0,78.0
947,263.9845845,264.761098875,47.0,68.0
948,264.4391295,265.3482195,64.0,92.0
949,264.8936745,265.43155275,59.0,78.0
950,266.2573095,267.185338875,54.0,75.0
951,265.8027645,267.276247875,49.0,50.0
952,265.3482195,267.2932933125,42.0,76.0
953,266.2573095,267.480793125,61.0,93.0
954,266.939127,267.5698081875,57.0,74.0
955,267.4485961875,267.5698081875,57.0,79.0
956,267.4561719375,267.9637471875,50.0,69.0
957,267.4561719375,268.3349589375,66.0,73.0
958,267.458065875,268.5054133125,62.0,77.0
959,268.0546561875,268.7743524375,50.0,58.0
960,268.9637461875,269.151246,50.0,56.0
961,267.450490125,269.283821625,38.0,60.0
962,268.6569283125,269.35579125,66.0,112.0
963,267.4410204375,269.4069275625,45.0,67.0
964,269.2705640625,269.730790875,62.0,100.0
965,269.9182906875,273.64366575,50.0,86.0
966,269.912608875,273.6531354375,45.0,71.0
967,269.9145028125,273.65881725,57.0,75.0
968,269.91639675,273.6607111875,62.0,92.0
969,269.70427575,273.662605125,38.0,47.0
970,269.9220785625,273.6720748125,66.0,93.0
