,start,end,pitch,velocity
0,11.433614104166665,11.9618626125,64.0,76.0
1,12.111580104166666,12.347455774999998,64.0,77.0
2,12.450563104166665,12.730224079166666,61.0,75.0
3,12.789546104166666,13.419489512499998,59.0,77.0
4,13.467512104166666,13.824856683333332,61.0,76.0
5,13.806495104166666,14.064969641666666,64.0,75.0
6,14.145478104166665,15.354517470833333,64.0,77.0
7,16.857342104166666,17.365816604166664,64.0,75.0
8,17.535308104166667,17.83756794583333,64.0,76.0
9,17.874291104166666,18.183613091666665,61.0,75.0
10,18.213274104166665,18.799432208333332,59.0,75.0
11,18.891240104166666,19.224573387499998,61.0,75.0
12,19.230223104166665,19.435025333333332,66.0,69.0
13,19.569206104166664,20.774008183333333,66.0,73.0
14,22.281070104166666,22.858753633333333,68.0,77.0
15,22.959036104166664,23.313555824999998,64.0,75.0
16,23.298019104166666,23.548019066666665,61.0,75.0
17,23.637002104166665,24.230222354166663,68.0,75.0
18,24.314968104166663,24.632764666666667,64.0,69.0
19,24.653951104166666,24.968922808333332,61.0,76.0
20,24.992934104166665,25.912425491666664,66.0,72.0
21,26.009883104166665,26.292368937499997,64.0,73.0
22,26.348866104166664,27.316380083333332,61.0,76.0
23,27.704798104166663,28.254233049999996,69.0,77.0
24,28.382764104166665,28.64688835833333,69.0,79.0
25,28.721747104166663,29.022771066666664,64.0,75.0
26,29.061123329166666,29.36936188333333,61.0,75.0
27,29.402032329166666,29.775611774999998,64.0,77.0
28,29.742941329166666,30.075327604166663,61.0,76.0
29,30.083850329166665,32.5412360375,66.0,72.0
30,33.15203132916666,33.6832811875,64.0,76.0
31,33.83384932916667,34.071065175,64.0,77.0
32,34.174758329166664,34.45600825416666,61.0,75.0
33,34.51566732916666,35.1491898875,59.0,77.0
34,35.19748532916667,35.55686023333333,61.0,76.0
35,35.538394329166664,35.79833744166666,64.0,75.0
36,35.87930332916666,37.09521209583333,64.0,77.0
37,38.60657532916667,39.11793882916666,64.0,75.0
38,39.28839332916667,39.59237052083333,64.0,76.0
39,39.62930232916666,39.94038179166667,61.0,75.0
40,39.970211329166666,40.559699808333335,59.0,75.0
41,40.652029329166666,40.9872565125,61.0,75.0
42,40.99293832916666,41.19890418333333,66.0,69.0
43,41.333847329166666,42.54549473333333,66.0,73.0
44,44.061119329166665,44.64208508333333,68.0,77.0
45,44.742937329166665,45.099471324999996,64.0,75.0
46,45.08384632916666,45.335266716666666,61.0,75.0
47,45.424755329166665,46.02134607916666,68.0,75.0
48,46.106573329166665,46.42617551666666,64.0,69.0
49,46.44748232916666,46.76424360833333,61.0,76.0
50,46.788391329166664,47.71310699166666,66.0,72.0
51,47.81111832916666,48.0952091625,64.0,73.0
52,48.152027329166664,49.12503843333333,61.0,76.0
53,49.515663329166664,50.06822,69.0,77.0
54,50.19748132916666,50.463106258333326,69.0,79.0
55,50.53839032916666,50.840947066666665,64.0,75.0
56,50.87929932916666,51.187537883333334,61.0,75.0
57,51.22020832916667,51.88071951666666,64.0,77.0
58,51.90202632916666,54.35941203749999,66.0,72.0
59,54.97020732916666,55.57105944166666,66.0,75.0
60,55.65202532916666,56.2386729,59.0,81.0
61,56.33384332916666,56.87077500416666,63.0,81.0
62,56.85372955416666,57.29833170833333,61.0,75.0
63,57.356570329166665,60.0450188125,64.0,76.0
64,63.1224820625,63.471181533333336,68.0,73.0
65,63.46265880833333,63.81777235,66.0,73.0
66,63.803567808333334,64.16578362083334,68.0,76.0
67,64.14447680833334,64.49390853333334,66.0,75.0
68,64.48538580833333,65.17572653333333,68.0,77.0
69,65.16720380833333,65.4783796,64.0,72.0
70,65.50662818333333,65.84984847083334,61.0,78.0
71,65.84561118333333,66.48120430833333,69.0,81.0
72,66.52357718333333,66.88374662083334,71.0,79.0
73,66.86256018333333,67.26369006666667,69.0,79.0
74,67.20154318333333,67.53063917916667,68.0,76.0
75,67.54052618333333,67.910582625,66.0,74.0
76,67.87950918333334,68.49250344166667,64.0,79.0
77,68.55747518333334,69.60408519583333,66.0,76.0
78,70.59137318333333,70.8978703125,73.0,81.0
79,70.93035618333333,71.25945217916667,71.0,71.0
80,71.26933918333333,73.622446175,66.0,78.0
81,73.98120318333334,74.32018618333333,68.0,76.0
82,74.32018618333333,74.65775675416667,66.0,70.0
83,74.65916918333333,75.029225625,68.0,76.0
84,74.99815218333333,75.34137247083333,66.0,75.0
85,75.33713518333333,75.69306733333333,68.0,73.0
86,75.67611818333333,76.00238932083333,66.0,76.0
87,76.01510118333333,76.56877341666666,64.0,76.0
88,76.69306718333333,77.3893947625,69.0,77.0
89,77.37103318333334,77.71001618333334,71.0,77.0
90,77.71001618333334,78.07442290833333,69.0,76.0
91,78.04899918333334,78.37809517916666,68.0,77.0
92,78.38798218333334,78.95860356666667,64.0,74.0
93,79.06594818333333,79.34843401666666,64.0,77.0
94,79.40493118333333,80.53950494166666,66.0,73.0
95,81.10768660833332,81.39177744166666,71.0,76.0
96,81.44859560833333,81.7397887125,73.0,63.0
97,81.78950460833333,82.13893633333333,71.0,78.0
98,82.13041360833333,84.83236858333333,66.0,72.0
99,87.60236338958333,88.13107994583333,64.0,76.0
100,88.2807974375,88.51667310833334,64.0,77.0
101,88.6197804375,88.8994414125,61.0,75.0
102,88.9587634375,89.58870684583333,59.0,77.0
103,89.63672943750001,89.99407401666667,61.0,76.0
104,89.97571243750001,90.234186975,64.0,75.0
105,90.3146954375,91.52373480416666,64.0,77.0
106,93.0265594375,93.5350339375,64.0,75.0
107,93.7045254375,94.00678527916666,64.0,76.0
108,94.04350843750001,94.35283042500001,61.0,75.0
109,94.38249143750001,94.96864954166666,59.0,75.0
110,95.0604574375,95.39379072083334,61.0,75.0
111,95.3994404375,95.60424266666666,66.0,69.0
112,95.7384234375,96.94322551666667,66.0,73.0
113,98.45028743750001,99.02797096666667,68.0,77.0
114,99.1282534375,99.48277315833333,64.0,75.0
115,99.4672364375,99.7172364,61.0,75.0
116,99.8062194375,100.3994396875,68.0,75.0
117,100.4841854375,100.801982,64.0,69.0
118,100.8231684375,101.13814014166667,61.0,76.0
119,101.1621514375,102.081642825,66.0,72.0
120,102.1791004375,102.462074525,64.0,73.0
121,102.518731775,103.48898718125001,61.0,76.0
122,103.87850577500001,104.42949753125001,69.0,77.0
123,104.558392775,104.82326541875,69.0,79.0
124,104.898336275,105.20003613125,64.0,75.0
125,105.23827977500001,105.54564535625,61.0,75.0
126,105.578223275,105.95074469375001,64.0,77.0
127,105.918166775,106.2496116875,61.0,76.0
128,106.258110275,108.70853633750001,66.0,72.0
129,109.317601775,109.8473470625,66.0,76.0
130,109.98332446250001,110.67171005,59.0,77.0
131,110.677375775,111.30910411250001,63.0,77.0
132,111.35726277500001,111.71561988125,61.0,76.0
133,111.697206275,111.95641319375001,63.0,75.0
134,112.037149775,114.3006069125,64.0,77.0
135,147.40447593750002,147.93529244583334,64.0,76.0
136,148.0858605875,148.32307643333334,64.0,77.0
137,148.42676958750002,148.70801951250002,61.0,75.0
138,148.7676785875,149.40120114583334,59.0,77.0
139,149.44949658750002,149.80887149166668,61.0,76.0
140,149.7904055875,150.0503487,64.0,75.0
141,150.13131458750001,151.3472233541667,64.0,77.0
142,152.8585865875,153.3699500875,64.0,75.0
143,153.5404045875,153.84438177916667,64.0,76.0
144,153.88131358750002,154.19239305000002,61.0,75.0
145,154.2222225875,154.81013810625004,59.0,75.0
146,154.90220613750003,155.23648391250003,61.0,75.0
147,155.24214963750003,155.44753216875003,66.0,69.0
148,155.5820931375,156.79030899375002,66.0,73.0
149,158.3016411375,158.88096151875,68.0,77.0
150,158.98152813750002,159.33705238125003,64.0,75.0
151,159.32147163750003,159.57217996875002,61.0,75.0
152,159.66141513750003,160.25631626250004,68.0,75.0
153,160.34130213750004,160.65999916875003,64.0,69.0
154,160.6812456375,160.99710980625002,61.0,76.0
155,161.02118913750002,161.94328588125003,66.0,72.0
156,162.04101963750003,162.32430588750003,64.0,73.0
157,162.38096313750003,163.35121854375004,61.0,76.0
158,163.74073713750002,164.29172889375002,69.0,77.0
159,164.42062413750003,164.68549678125004,69.0,79.0
160,164.76056763750003,165.06226749375003,64.0,75.0
161,165.10051113750004,165.40787671875003,61.0,75.0
162,165.4404546375,166.09909516875,64.0,77.0
163,166.12034163750002,168.57076770000003,66.0,72.0
164,169.17983313750003,169.77898355625,66.0,75.0
165,169.85972013750003,170.44470624375003,59.0,81.0
166,170.5396071375,171.07501815000003,63.0,81.0
167,171.05802097500003,171.50136395625003,61.0,75.0
168,171.55943763750003,174.24357485625004,64.0,76.0
169,177.33847713750004,177.68691922500003,68.0,73.0
170,177.67842063750004,178.03252845000003,66.0,73.0
171,178.01836413750001,178.37955410625003,68.0,76.0
172,178.35830763750002,178.70674972500004,66.0,75.0
173,178.69825113750002,179.38663672500002,68.0,77.0
174,179.37813813750003,179.68975301250003,64.0,72.0
175,179.71808163750003,180.06227443125002,61.0,78.0
176,180.05802513750004,180.69541920000003,69.0,81.0
177,180.73791213750002,181.09910210625003,71.0,79.0
178,181.07785563750002,181.48012211250003,69.0,79.0
179,181.41779913750003,181.74782761875002,68.0,76.0
180,181.75774263750003,182.12884762500002,66.0,74.0
181,182.09768613750003,182.71241730000003,64.0,79.0
182,182.77757313750004,183.82714869375002,66.0,76.0
183,184.81723413750004,185.12459971875003,73.0,81.0
184,185.1571776375,185.48720611875004,71.0,71.0
185,185.49712113750002,187.85689560000003,66.0,78.0
186,188.21666913750002,188.55661263750002,68.0,76.0
187,188.55661263750002,188.89513970625003,66.0,70.0
188,188.89655613750003,189.26766112500002,68.0,76.0
189,189.23649963750003,189.58069243125004,66.0,75.0
190,189.57644313750004,189.93338381250004,68.0,73.0
191,189.9163866375,190.24358225625002,66.0,76.0
192,190.25633013750002,190.81157118750002,64.0,76.0
193,190.93621713750002,191.63451774375002,69.0,77.0
194,191.61610413750003,191.95604763750003,71.0,77.0
195,191.95604763750003,192.32148690000002,69.0,76.0
196,192.29599113750004,192.62601961875004,68.0,77.0
197,192.63593463750004,193.20817286250002,64.0,74.0
198,193.31582163750002,193.59910788750003,64.0,77.0
199,193.65576513750003,194.78891013750004,66.0,73.0
200,195.35548263750002,195.63876888750002,71.0,76.0
201,195.69542613750002,195.98579454375005,73.0,63.0
202,196.03536963750003,196.38381172500004,71.0,78.0
203,196.37531313750003,199.06794894375003,66.0,72.0
204,199.09486113750003,199.39939385625001,64.0,75.0
205,199.43480463750004,201.22375730625004,66.0,72.0
206,201.13452213750003,201.46313418750003,68.0,76.0
207,201.47446563750003,201.80874341250004,64.0,77.0
208,201.81440913750004,204.60477870000003,66.0,76.0
209,209.97305313750002,210.50279842500004,64.0,76.0
210,210.65294013750002,210.88948415625003,64.0,77.0
211,210.99288363750003,211.27333702500005,61.0,75.0
212,211.33282713750003,211.96455547500003,59.0,77.0
213,212.01271413750004,212.37107124375004,61.0,76.0
214,212.35265763750004,212.61186455625003,64.0,75.0
215,212.69260113750005,213.90506628750003,64.0,77.0
216,215.41214913750002,215.92206438750003,64.0,75.0
217,216.09203613750003,216.39515242500005,64.0,76.0
218,216.43197963750004,216.74217808125002,61.0,75.0
219,216.77192313750004,217.35974210625002,59.0,75.0
220,217.45181013750005,217.78608791250002,61.0,75.0
221,217.79175363750002,217.99713616875005,66.0,69.0
222,218.13169713750003,219.33991299375003,66.0,73.0
223,220.85124513750003,221.43056551875003,68.0,77.0
224,221.53113213750004,221.88665638125002,64.0,75.0
225,221.87107563750004,222.12178396875004,61.0,75.0
226,222.21101913750005,222.80592026250002,68.0,75.0
227,222.89090613750005,223.20960316875005,64.0,69.0
228,223.23084963750003,223.54671380625004,61.0,76.0
229,223.57079313750003,224.49288988125005,66.0,72.0
230,224.59062363750002,224.87390988750002,64.0,73.0
231,224.93056713750002,225.90082254375005,61.0,76.0
232,226.29034113750004,226.84133289375004,69.0,77.0
233,226.97022813750004,227.23510078125003,69.0,79.0
234,227.31017163750005,227.61187149375002,64.0,75.0
235,227.65011513750005,227.95748071875005,61.0,75.0
236,227.99005863750003,228.62037054375003,64.0,77.0
237,228.66994563750004,231.12037170000002,66.0,72.0
238,231.65153341875003,232.18127870625005,66.0,76.0
239,232.39515982500004,233.08354541250003,59.0,77.0
240,233.08921113750003,233.72093947500002,63.0,77.0
241,233.76909813750004,234.12745524375003,61.0,76.0
242,234.1090416375,234.36824855625002,63.0,75.0
243,234.44898513750002,236.71244227500003,64.0,77.0
