,start,end,pitch,velocity
0,0.5861581041666666,1.533898075,40.0,73.0
1,0.9251411041666666,1.5903952416666665,47.0,66.0
2,1.2641241041666667,2.2217510791666664,52.0,74.0
3,2.2810731041666665,3.2076266374999998,47.0,62.0
4,2.6200561041666663,3.2994345333333333,52.0,71.0
5,1.6031071041666665,3.358756558333333,59.0,74.0
6,3.9759881041666665,4.737287425,52.0,73.0
7,3.6370051041666662,4.836157466666666,47.0,65.0
8,4.314971104166666,5.388417270833333,59.0,70.0
9,4.992937104166666,5.6652533875,47.0,60.0
10,3.2980221041666664,5.713275979166666,40.0,76.0
11,5.331920104166667,6.011298533333333,54.0,64.0
12,5.670903104166666,6.036722258333333,52.0,62.0
13,6.687852104166666,7.0790949833333325,54.0,69.0
14,6.348869104166666,7.563558187499999,47.0,68.0
15,7.026835104166667,8.028247383333333,59.0,71.0
16,7.704801104166666,8.387004391666666,47.0,58.0
17,6.009886104166666,8.460450708333333,40.0,74.0
18,8.043784104166667,8.7499986875,54.0,70.0
19,8.382767104166666,8.816382858333332,52.0,66.0
20,9.060733104166665,9.738699104166667,47.0,65.0
21,9.399716104166666,9.830506999999999,54.0,66.0
22,9.738699104166667,10.748585958333333,59.0,68.0
23,10.755648104166665,11.196326004166666,52.0,69.0
24,8.721750104166667,11.269772320833333,40.0,75.0
25,10.416665104166666,11.307907908333332,47.0,64.0
26,11.094631104166666,11.3601677875,54.0,70.0
27,12.111580104166666,12.483048974999999,56.0,64.0
28,12.111580104166666,12.508472699999999,59.0,69.0
29,12.450563104166665,12.646890758333333,52.0,63.0
30,13.128529104166665,13.504235262499998,52.0,64.0
31,13.467512104166666,13.569207004166666,56.0,75.0
32,11.772597104166666,13.573444291666666,47.0,62.0
33,13.467512104166666,13.603105304166666,59.0,75.0
34,11.433614104166665,13.6144047375,40.0,75.0
35,13.806495104166666,14.029658912499999,52.0,75.0
36,14.484461104166666,14.909602283333331,56.0,69.0
37,14.823444104166665,14.984461029166665,61.0,74.0
38,14.823444104166665,15.040958195833332,64.0,74.0
39,15.162427104166666,15.3559299,56.0,70.0
40,15.840393104166665,16.145477804166667,56.0,75.0
41,16.179376104166664,16.2838958625,61.0,78.0
42,16.179376104166664,16.285308291666666,64.0,76.0
43,14.145478104166665,16.330506025,49.0,79.0
44,16.518359104166667,16.628528579166666,47.0,77.0
45,16.518359104166667,16.634178295833333,59.0,76.0
46,16.857342104166666,17.25282227083333,57.0,67.0
47,17.196325104166664,17.607341991666665,52.0,64.0
48,17.535308104166667,17.723161183333332,61.0,67.0
49,17.535308104166667,17.737285475,57.0,71.0
50,16.857342104166666,18.0720311875,45.0,75.0
51,17.874291104166666,18.1398277875,52.0,72.0
52,18.552257104166664,18.96892370833333,56.0,69.0
53,18.891240104166666,18.9788107125,63.0,75.0
54,18.891240104166666,18.98587285833333,59.0,76.0
55,18.213274104166665,19.001409579166666,44.0,77.0
56,20.247172104166665,20.598866966666666,57.0,76.0
57,20.247172104166665,20.653951704166666,61.0,75.0
58,19.908189104166667,20.740109883333332,49.0,73.0
59,19.569206104166664,20.814968629166664,42.0,75.0
60,20.586155104166664,20.99434713333333,54.0,73.0
61,20.925138104166667,21.4025391625,59.0,76.0
62,20.925138104166667,21.533895074999997,47.0,77.0
63,21.264121104166666,21.68078770833333,54.0,71.0
64,21.603104104166665,21.901126658333332,49.0,74.0
65,21.603104104166665,21.926550383333332,61.0,75.0
66,21.942087104166664,22.2838949625,59.0,77.0
67,22.281070104166666,22.484459904166666,56.0,66.0
68,22.281070104166666,22.742934441666666,61.0,74.0
69,22.620053104166665,23.057906145833332,56.0,69.0
70,22.959036104166664,23.281069954166664,61.0,77.0
71,22.281070104166666,23.502821333333333,49.0,78.0
72,23.298019104166666,23.687849554166664,56.0,70.0
73,22.959036104166664,23.874290204166666,64.0,72.0
74,23.975985104166664,24.415250574999998,56.0,75.0
75,24.314968104166663,24.514120616666666,61.0,77.0
76,24.314968104166663,24.624290091666666,64.0,77.0
77,24.653951104166666,24.973160095833332,56.0,68.0
78,25.331917104166664,25.61016565,54.0,76.0
79,25.670900104166666,25.985871808333332,54.0,72.0
80,25.670900104166666,26.094628854166665,61.0,75.0
81,26.348866104166664,26.854515745833332,54.0,75.0
82,26.009883104166665,27.261295345833332,49.0,61.0
83,24.992934104166665,27.324854658333333,42.0,76.0
84,27.026832104166665,27.346041095833332,66.0,75.0
85,27.026832104166665,27.439261420833333,61.0,77.0
86,27.365815104166664,27.65112579583333,54.0,76.0
87,28.043781104166666,28.463272566666664,52.0,73.0
88,28.382764104166665,28.771182125,57.0,75.0
89,28.721747104166663,28.99862334583333,52.0,78.0
90,29.402032329166666,29.806861766666664,52.0,76.0
91,29.742941329166666,30.014248074999998,57.0,76.0
92,29.742941329166666,30.041236704166664,61.0,77.0
93,27.704798104166663,30.099475324999997,45.0,79.0
94,30.083850329166665,30.223054837499998,52.0,76.0
95,30.424759329166665,30.82674785833333,59.0,73.0
96,30.765668329166665,31.170497766666664,54.0,77.0
97,31.106577329166665,31.460270416666663,61.0,77.0
98,30.424759329166665,31.68754308333333,47.0,75.0
99,31.447486329166665,31.882145304166663,54.0,77.0
100,31.788395329166665,32.161974775,63.0,76.0
101,31.788395329166665,32.19890658333333,59.0,76.0
102,32.129304329166665,32.40345198333333,54.0,78.0
103,32.47021332916666,32.677599637499995,54.0,76.0
104,32.47021332916666,32.93896320416666,59.0,77.0
105,31.788395329166665,33.035554087499996,47.0,75.0
106,33.83384932916667,34.207428775,56.0,64.0
107,33.83384932916667,34.23299695,59.0,69.0
108,34.174758329166664,34.37220145833333,52.0,63.0
109,34.856576329166664,35.234417137499996,52.0,64.0
110,35.19748532916667,35.29975802916667,56.0,75.0
111,33.492940329166665,35.304019391666664,47.0,62.0
112,35.19748532916667,35.33384892916666,59.0,75.0
113,33.15203132916666,35.345212562499995,40.0,75.0
114,35.538394329166664,35.762826087499995,52.0,75.0
115,36.220212329166664,36.64776903333333,56.0,69.0
116,36.56112132916667,36.72305310416667,61.0,74.0
117,36.56112132916667,36.77987127083333,64.0,74.0
118,36.902030329166664,37.096632549999995,56.0,70.0
119,37.58384832916666,37.890666429166664,56.0,75.0
120,37.92475732916667,38.0298709375,61.0,78.0
121,37.92475732916667,38.03129139166666,64.0,76.0
122,35.87930332916666,38.076745925,49.0,79.0
123,38.26566632916666,38.37646175416666,47.0,77.0
124,38.26566632916666,38.38214357083333,59.0,76.0
125,38.60657532916667,39.00430249583333,57.0,67.0
126,38.94748432916666,39.36083649166666,52.0,64.0
127,39.28839332916667,39.47731373333333,61.0,67.0
128,39.28839332916667,39.491518275,57.0,71.0
129,38.60657532916667,39.8281659125,45.0,75.0
130,39.62930232916666,39.896347712499995,52.0,72.0
131,40.31112032916666,40.73015430833333,56.0,69.0
132,40.652029329166666,40.740097487499995,63.0,75.0
133,40.652029329166666,40.74719975833333,59.0,76.0
134,39.970211329166666,40.762824754166665,44.0,77.0
135,42.015665329166666,42.369358416666664,57.0,76.0
136,42.015665329166666,42.42475612916667,61.0,75.0
137,41.67475632916666,42.51140383333333,49.0,73.0
138,41.333847329166666,42.586687904166666,42.0,75.0
139,42.35657432916666,42.767085583333326,54.0,73.0
140,42.697483329166666,43.1775968375,59.0,76.0
141,42.697483329166666,43.309699075,47.0,77.0
142,43.03839232916666,43.45742630833333,54.0,71.0
143,43.379301329166665,43.67901715833333,49.0,74.0
144,43.379301329166665,43.70458533333333,61.0,75.0
145,43.72021032916666,44.0639602375,59.0,77.0
146,44.061119329166665,44.265664729166666,56.0,66.0
147,44.061119329166665,44.52560784166666,61.0,74.0
148,44.40202832916666,44.84236912083333,56.0,69.0
149,44.742937329166665,45.066800879166664,61.0,77.0
150,44.061119329166665,45.28981218333333,49.0,78.0
151,45.08384632916666,45.475891679166665,56.0,70.0
152,44.742937329166665,45.66339162916667,64.0,72.0
153,45.76566432916667,46.207425575,56.0,75.0
154,46.106573329166665,46.30685736666666,61.0,77.0
155,46.106573329166665,46.41765279166667,64.0,77.0
156,46.44748232916666,46.768504970833334,56.0,68.0
157,47.12930032916667,47.4091298,54.0,76.0
158,47.470209329166664,47.786970608333334,54.0,72.0
159,47.470209329166664,47.89634557916666,61.0,75.0
160,48.152027329166664,48.66054992083333,54.0,75.0
161,47.81111832916666,49.069640720833334,49.0,61.0
162,46.788391329166664,49.13356115833333,42.0,76.0
163,48.833845329166664,49.15486797083333,66.0,75.0
164,48.833845329166664,49.24861794583333,61.0,77.0
165,49.17475432916666,49.46168607083333,54.0,76.0
166,49.85657232916667,50.27844721666666,52.0,73.0
167,50.19748132916666,50.588106225,57.0,75.0
168,50.53839032916666,50.81679934583333,52.0,78.0
169,51.22020832916667,51.625037766666665,52.0,76.0
170,51.56111732916666,51.832424075,57.0,76.0
171,51.56111732916666,51.859412704166665,61.0,77.0
172,49.515663329166664,51.917651324999994,45.0,79.0
173,51.90202632916666,52.041230837499995,52.0,76.0
174,52.24293532916666,52.64492385833333,59.0,73.0
175,52.583844329166666,52.988673766666665,54.0,77.0
176,52.92475332916666,53.27844641666667,61.0,77.0
177,52.24293532916666,53.50571908333333,47.0,75.0
178,53.26566232916666,53.700321304166664,54.0,77.0
179,53.60657132916666,53.980150775,63.0,76.0
180,53.60657132916666,54.017082583333334,59.0,76.0
181,53.947480329166666,54.221627983333335,54.0,78.0
182,54.28838932916666,54.495775637499996,54.0,76.0
183,54.28838932916666,54.75713920416666,59.0,77.0
184,53.60657132916666,54.8537300875,47.0,75.0
185,54.97020732916666,55.39776403333333,59.0,76.0
186,54.97020732916666,55.41480948333333,64.0,75.0
187,55.65202532916666,55.7997525625,59.0,77.0
188,55.65202532916666,56.08668430416667,64.0,78.0
189,55.311116329166666,56.179013825,54.0,65.0
190,54.97020732916666,56.20742290833333,47.0,76.0
191,55.99293432916666,56.407706945833326,59.0,81.0
192,56.33384332916666,56.83810455833333,63.0,79.0
193,57.01566132916666,57.423331675,59.0,81.0
194,56.674752329166665,57.58242254166666,54.0,62.0
195,56.33384332916666,57.593786175,47.0,77.0
196,57.356570329166665,57.61651344166666,63.0,82.0
197,57.69747932916667,58.09520649583333,64.0,75.0
198,58.038388329166665,58.46026321666666,59.0,75.0
199,58.37929732916666,58.7486154125,64.0,77.0
200,58.720206329166665,59.093785775,59.0,79.0
201,59.06111532916667,59.4773084,68.0,76.0
202,59.402024329166665,59.70407015625,59.0,77.0
203,59.7422020625,60.2900891125,64.0,77.0
204,57.69747932916667,60.301356712499995,52.0,76.0
205,60.0802300625,60.3393848625,59.0,81.0
206,60.4182580625,60.8309339125,59.0,74.0
207,60.4182580625,61.0929056125,64.0,75.0
208,60.756286062499996,61.283046362499995,47.0,65.0
209,60.4182580625,61.2914970625,40.0,75.0
210,61.0943140625,61.5971307125,59.0,82.0
211,61.4323420625,61.6126236625,64.0,75.0
212,61.7703700625,62.2013557625,59.0,76.0
213,61.7703700625,62.2041726625,63.0,84.0
214,62.446426062499995,62.5731865625,59.0,80.0
215,62.1083980625,62.626707662499996,54.0,72.0
216,61.7703700625,62.857693462499995,47.0,76.0
217,62.446426062499995,62.8844540125,66.0,76.0
218,62.7844540625,63.084453912499995,59.0,80.0
219,63.1224820625,63.285102037499996,56.0,68.0
220,63.1224820625,63.5322610625,61.0,71.0
221,63.46265880833333,63.844760979166665,56.0,69.0
222,63.803567808333334,63.96123822083333,61.0,78.0
223,63.1224820625,64.34902220833334,49.0,78.0
224,63.803567808333334,64.49390853333334,64.0,81.0
225,64.14447680833334,64.576294875,56.0,77.0
226,64.48538580833333,64.87174934166667,61.0,76.0
227,64.48538580833333,65.19561289166667,49.0,63.0
228,64.82629480833333,65.21265834166667,56.0,73.0
229,65.16720380833333,65.45860559166667,64.0,77.0
230,65.50662818333333,65.673294825,56.0,77.0
231,65.84561118333333,66.26933993333333,57.0,60.0
232,65.84561118333333,66.56877491666667,61.0,71.0
233,66.52357718333333,66.99815338333333,57.0,81.0
234,65.84561118333333,67.11679743333333,45.0,76.0
235,66.18459418333333,67.13233415416667,52.0,55.0
236,66.86256018333333,67.63374650833333,61.0,75.0
237,67.87950918333334,68.0249893875,56.0,76.0
238,67.54052618333333,68.24674076666666,51.0,76.0
239,67.87950918333334,68.25239048333333,59.0,80.0
240,67.20154318333333,68.26792720416667,44.0,76.0
241,68.21849218333334,68.37527182083333,56.0,77.0
242,68.55747518333334,69.2707519125,57.0,64.0
243,68.55747518333334,69.27216434166667,54.0,71.0
244,69.23544118333334,69.59561062083333,61.0,79.0
245,69.57442418333333,69.72979139166667,57.0,80.0
246,68.89645818333334,70.10549755,49.0,62.0
247,69.91340718333333,70.17188172083334,54.0,79.0
248,69.91340718333333,70.2792263375,66.0,76.0
249,70.25239018333333,70.65916978333334,49.0,75.0
250,68.55747518333334,70.74815282083333,42.0,76.0
251,70.59137318333333,70.8639720125,57.0,78.0
252,70.59137318333333,70.9826160625,61.0,77.0
253,70.93035618333333,70.9826160625,61.0,42.0
254,70.93035618333333,71.097022825,54.0,82.0
255,71.26933918333333,71.4105821,54.0,76.0
256,71.26933918333333,71.673293925,59.0,75.0
257,71.60832218333333,71.81171198333334,54.0,75.0
258,71.94730518333333,72.1605819875,54.0,77.0
259,71.94730518333333,72.3809209375,61.0,76.0
260,71.26933918333333,72.51933899583334,47.0,76.0
261,72.28628818333334,72.57866102083334,59.0,81.0
262,72.62527118333334,72.73402822916667,54.0,70.0
263,72.62527118333334,72.995327625,63.0,79.0
264,72.96425418333334,73.33996034166667,61.0,76.0
265,73.30323718333334,73.70154220833334,59.0,82.0
266,72.62527118333334,73.80747439583334,47.0,79.0
267,73.98120318333334,74.16199411666666,56.0,73.0
268,73.98120318333334,74.40775679166667,61.0,72.0
269,74.32018618333333,74.49673982916667,56.0,72.0
270,74.65916918333333,74.78063809166667,56.0,76.0
271,74.65916918333333,75.34984704583333,64.0,76.0
272,74.99815218333333,75.38798263333334,56.0,69.0
273,75.33713518333333,75.71284134166666,61.0,77.0
274,75.67611818333333,75.82866053333333,56.0,75.0
275,76.01510118333333,76.12385822916667,56.0,76.0
276,73.98120318333334,76.22131584166667,49.0,78.0
277,76.01510118333333,76.33148531666666,61.0,78.0
278,76.01510118333333,76.38657005416667,64.0,75.0
279,76.35408418333333,76.5631237,56.0,74.0
280,76.69306718333333,76.86962082916666,57.0,64.0
281,76.69306718333333,77.40493148333333,61.0,71.0
282,77.37103318333334,77.774987925,57.0,77.0
283,77.71001618333334,78.08289748333334,61.0,75.0
284,78.04899918333334,78.45577878333333,64.0,80.0
285,77.03205018333333,78.605496275,52.0,45.0
286,76.69306718333333,78.60832113333333,45.0,77.0
287,78.38798218333334,78.64786914999999,61.0,68.0
288,78.72696518333333,78.9317674125,56.0,69.0
289,78.72696518333333,79.09984648333334,59.0,75.0
290,79.06594818333333,79.22414025,56.0,76.0
291,78.72696518333333,79.24250182916667,44.0,76.0
292,79.40493118333333,79.96422100416666,57.0,67.0
293,79.40493118333333,80.02814144166666,54.0,76.0
294,80.08495960833334,80.48126632083333,61.0,77.0
295,80.42586860833333,80.82075486666666,57.0,80.0
296,80.76677760833333,80.88325485,61.0,49.0
297,80.76677760833333,81.18723204166666,66.0,77.0
298,81.10768660833332,81.3051297375,54.0,76.0
299,79.40493118333333,81.63609555833334,42.0,76.0
300,79.74405060833332,81.63609555833334,49.0,66.0
301,81.44859560833333,81.71990235416666,54.0,77.0
302,81.44859560833333,81.72700462499999,57.0,78.0
303,81.44859560833333,82.01109545833333,61.0,77.0
304,81.78950460833333,82.10768634166666,42.0,77.0
305,82.13041360833333,82.28808402083334,54.0,74.0
306,82.13041360833333,82.57785667083333,59.0,74.0
307,82.47132260833334,82.69575436666666,54.0,76.0
308,82.81223160833333,83.20285650416666,61.0,75.0
309,82.81223160833333,83.24262922083334,54.0,80.0
310,83.15314060833333,83.47132234166666,59.0,77.0
311,83.49404960833333,84.01961765,63.0,80.0
312,83.83495860833334,84.215640325,54.0,73.0
313,84.17586760833333,84.58522618958334,61.0,75.0
314,82.13041360833333,84.69951168958333,47.0,76.0
315,84.51677660833333,84.72094022083333,54.0,73.0
316,84.85951138958333,85.06951099583333,54.0,70.0
317,84.85951138958333,85.27951060208333,59.0,70.0
318,85.20236788958333,85.61522425833333,54.0,72.0
319,85.54522438958332,85.98808070208334,61.0,74.0
320,85.88808088958334,86.28093729583333,54.0,75.0
321,86.23093738958333,86.71093648958333,63.0,75.0
322,86.91665038958334,87.43236370833333,54.0,74.0
323,86.91665038958334,87.55950632708333,59.0,75.0
324,84.85951138958333,87.56664917083333,47.0,81.0
325,88.2807974375,88.65226630833334,56.0,64.0
326,88.2807974375,88.67769003333333,59.0,69.0
327,88.6197804375,88.81610809166666,52.0,63.0
328,89.2977464375,89.67345259583334,52.0,64.0
329,89.63672943750001,89.7384243375,56.0,75.0
330,87.9418144375,89.742661625,47.0,62.0
331,89.63672943750001,89.7723226375,59.0,75.0
332,87.60236338958333,89.78362207083333,40.0,75.0
333,89.97571243750001,90.19887624583333,52.0,75.0
334,90.6536784375,91.07881961666666,56.0,69.0
335,90.9926614375,91.1536783625,61.0,74.0
336,90.9926614375,91.21017552916666,64.0,74.0
337,91.3316444375,91.52514723333334,56.0,70.0
338,92.0096104375,92.3146951375,56.0,75.0
339,92.3485934375,92.45311319583334,61.0,78.0
340,92.3485934375,92.454525625,64.0,76.0
341,90.3146954375,92.49972335833334,49.0,79.0
342,92.6875764375,92.7977459125,47.0,77.0
343,92.6875764375,92.80339562916667,59.0,76.0
344,93.0265594375,93.42203960416667,57.0,67.0
345,93.3655424375,93.77655932500001,52.0,64.0
346,93.7045254375,93.89237851666667,61.0,67.0
347,93.7045254375,93.90650280833333,57.0,71.0
348,93.0265594375,94.24124852083334,45.0,75.0
349,94.04350843750001,94.30904512083333,52.0,72.0
350,94.7214744375,95.13814104166667,56.0,69.0
351,95.0604574375,95.14802804583334,63.0,75.0
352,95.0604574375,95.15509019166667,59.0,76.0
353,94.38249143750001,95.1706269125,44.0,77.0
354,96.4163894375,96.7680843,57.0,76.0
355,96.4163894375,96.82316903750001,61.0,75.0
356,96.0774064375,96.90932721666667,49.0,73.0
357,95.7384234375,96.9841859625,42.0,75.0
358,96.7553724375,97.16356446666667,54.0,73.0
359,97.0943554375,97.57175649583334,59.0,76.0
360,97.0943554375,97.70311240833334,47.0,77.0
361,97.4333384375,97.85000504166666,54.0,71.0
362,97.7723214375,98.07034399166668,49.0,74.0
363,97.7723214375,98.09576771666667,61.0,75.0
364,98.1113044375,98.45311229583334,59.0,77.0
365,98.45028743750001,98.6536772375,56.0,66.0
366,98.45028743750001,98.912151775,61.0,74.0
367,98.7892704375,99.22712347916666,56.0,69.0
368,99.1282534375,99.4502872875,61.0,77.0
369,98.45028743750001,99.67203866666667,49.0,78.0
370,99.4672364375,99.8570668875,56.0,70.0
371,99.1282534375,100.0435075375,64.0,72.0
372,100.1452024375,100.58446790833334,56.0,75.0
373,100.4841854375,100.68333795000001,61.0,77.0
374,100.4841854375,100.793507425,64.0,77.0
375,100.8231684375,101.14237742916667,56.0,68.0
376,101.5011344375,101.77938298333333,54.0,76.0
377,101.8401174375,102.15508914166666,54.0,72.0
378,101.8401174375,102.26384618750001,61.0,75.0
379,102.518731775,103.0258141625,54.0,75.0
380,102.1791004375,103.4337463625,49.0,61.0
381,101.1621514375,103.49748576875001,42.0,76.0
382,103.198618775,103.5187322375,66.0,75.0
383,103.198618775,103.6122167,61.0,77.0
384,103.538562275,103.82468138750001,54.0,76.0
385,104.218449275,104.63912935625001,52.0,73.0
386,104.558392775,104.94791136875,57.0,75.0
387,104.898336275,105.17595680000001,52.0,78.0
388,105.578223275,105.98190618125001,52.0,76.0
389,105.918166775,106.18870514375,57.0,76.0
390,105.918166775,106.2156173375,61.0,77.0
391,103.87850577500001,106.27369101875,45.0,79.0
392,106.258110275,106.39692053750001,52.0,76.0
393,106.59805377500001,106.99890381875001,59.0,73.0
394,106.937997275,107.34168018125,54.0,77.0
395,107.277940775,107.63063215625,61.0,77.0
396,106.59805377500001,107.85726115625,47.0,75.0
397,107.61788427500001,108.0513122375,54.0,77.0
398,107.957827775,108.33034919375001,63.0,76.0
399,107.957827775,108.36717640625001,59.0,76.0
400,108.297771275,108.57114250625,54.0,78.0
401,108.637714775,108.84451373750001,54.0,76.0
402,108.637714775,109.1051370875,59.0,77.0
403,107.957827775,109.2014544125,47.0,75.0
404,109.317601775,109.74394758125001,59.0,76.0
405,109.317601775,109.76094475625,64.0,75.0
406,109.99748877500001,110.14479762500001,59.0,77.0
407,109.99748877500001,110.4309167375,64.0,78.0
408,109.657545275,110.52298476875,54.0,65.0
409,109.317601775,110.55131339375001,47.0,76.0
410,110.337432275,110.7510302,59.0,81.0
411,110.677375775,111.18020886875,63.0,79.0
412,111.35726277500001,111.76377854375,59.0,81.0
413,111.017319275,111.92241884375001,54.0,62.0
414,110.677375775,111.93375029375001,47.0,77.0
415,111.697206275,111.95641319375001,63.0,82.0
416,112.037149775,112.43375052500001,64.0,75.0
417,112.37709327500001,112.79777335625,59.0,75.0
418,112.71703677500001,113.0853089,64.0,77.0
419,113.056980275,113.42950169375001,59.0,79.0
420,113.396923775,113.81193813125,68.0,76.0
421,113.73686727500001,114.03856713125,59.0,77.0
422,114.07681077500001,114.62780253125001,64.0,77.0
423,112.037149775,114.63913398125001,52.0,76.0
424,114.416754275,114.677377625,59.0,81.0
425,114.756697775,114.93914926666667,59.0,74.0
426,114.92643740416668,115.1241774875,56.0,74.0
427,114.756697775,115.21598538333335,40.0,75.0
428,115.09592890416667,115.26118311666667,59.0,76.0
429,115.26542040416668,115.45468591250001,56.0,75.0
430,115.43491190416667,115.772482475,64.0,77.0
431,115.60440340416667,115.79931862916668,56.0,75.0
432,115.77389490416667,115.93914911666667,59.0,69.0
433,115.43491190416667,116.04366887500001,40.0,76.0
434,115.94338640416667,116.12982705416667,56.0,75.0
435,116.11287790416668,116.39253887916668,64.0,76.0
436,116.28236940416667,116.46457276666668,56.0,73.0
437,116.45186090416668,116.602990825,59.0,75.0
438,116.11287790416668,116.61005297083334,40.0,75.0
439,116.62135240416667,116.80073090833334,56.0,76.0
440,116.79084390416668,117.03519415000001,64.0,76.0
441,116.96033540416667,117.13547662083334,56.0,75.0
442,116.79084390416668,117.26965739166667,40.0,75.0
443,117.12982690416668,117.297905975,59.0,76.0
444,117.29931840416667,117.41796245416667,56.0,76.0
445,117.46880990416668,117.63971383333335,57.0,78.0
446,117.63830140416667,117.83886634583334,52.0,76.0
447,117.80779290416667,117.97022225833334,57.0,73.0
448,117.46880990416668,118.08039173333334,40.0,75.0
449,117.97728440416667,118.12276460833334,52.0,75.0
450,118.31626740416668,118.49988319583333,52.0,77.0
451,118.14677590416667,118.55779279166667,64.0,80.0
452,118.48575890416667,118.62700182083334,57.0,75.0
453,118.14677590416667,118.72304700416667,40.0,75.0
454,118.65525040416668,118.82191704583335,52.0,76.0
455,118.99423340416668,119.16796219166667,52.0,76.0
456,118.82474190416667,119.22163450000001,64.0,78.0
457,119.16372490416667,119.29508081666667,57.0,72.0
458,118.82474190416667,119.35440284166667,40.0,76.0
459,119.33321640416668,119.49847061666668,52.0,79.0
460,119.67219940416668,119.85864005416667,52.0,76.0
461,119.50270790416667,119.96033495416667,64.0,78.0
462,119.84169090416667,119.9716343875,57.0,76.0
463,119.50270790416667,119.99140839583335,40.0,75.0
464,120.01118240416668,120.09451572500001,52.0,77.0
465,120.18067390416667,120.31202981666668,59.0,76.0
466,120.35016540416667,120.53801848333335,56.0,66.0
467,120.51965690416668,120.67502411250001,59.0,76.0
468,120.18067390416667,120.72445913333334,40.0,75.0
469,120.68914840416667,120.8445156125,56.0,76.0
470,120.85863990416668,121.11711444166667,64.0,80.0
471,121.02813140416667,121.22163420000001,56.0,75.0
472,120.85863990416668,121.36005225833334,40.0,74.0
473,121.19762290416668,121.36993926250001,59.0,77.0
474,121.36711440416667,121.54366805000001,56.0,77.0
475,121.53660590416668,121.71598440833334,64.0,80.0
476,121.70609740416667,121.88547590833335,56.0,73.0
477,121.53660590416668,122.009769675,40.0,75.0
478,121.87558890416668,122.03236854166667,59.0,78.0
479,122.04508040416667,122.2046849,56.0,80.0
480,122.21457190416668,122.45186000416668,64.0,82.0
481,122.38406340416667,122.5775662,56.0,71.0
482,122.55355490416667,122.70906618750001,59.0,78.0
483,122.72323050000001,122.87903793750002,56.0,80.0
484,122.21457190416668,122.90170083750002,40.0,75.0
485,122.89320225000002,123.11699838750002,64.0,75.0
486,123.06317400000002,123.3322959375,57.0,65.0
487,122.89320225000002,123.33371236875001,45.0,76.0
488,123.23314575000002,123.42719683125001,61.0,75.0
489,123.40311750000001,123.56034136875002,57.0,79.0
490,123.57308925000001,123.73456241250001,64.0,79.0
491,123.74306100000001,123.88470412500001,57.0,79.0
492,123.57308925000001,124.02351438750001,45.0,82.0
493,123.91303275000001,124.05892516875001,61.0,74.0
494,124.08300450000002,124.22889691875001,57.0,82.0
495,124.25297625000002,124.42011513750002,64.0,78.0
496,124.25297625000002,124.46827380000002,45.0,80.0
497,124.42294800000002,124.56600755625001,57.0,80.0
498,124.59291975000001,124.75156005000001,61.0,75.0
499,124.76289150000001,124.90453462500001,57.0,82.0
500,124.93286325000001,125.03626273125002,45.0,82.0
501,124.93286325000001,125.09433641250001,64.0,79.0
502,125.10283500000001,125.26430816250001,57.0,78.0
503,125.27280675000002,125.45977567500002,61.0,75.0
504,125.44277850000002,125.53343010000002,56.0,67.0
505,125.61275025000002,125.94844445625002,61.0,79.0
506,125.61275025000002,126.11699977500001,49.0,78.0
507,125.95269375000001,126.11841620625002,56.0,76.0
508,126.29263725000001,126.40736818125,56.0,70.0
509,126.29263725000001,126.58017279375001,64.0,75.0
510,126.29263725000001,126.68640513750002,61.0,76.0
511,126.29263725000001,126.73042312500002,49.0,76.0
512,126.63258075000002,126.82985491666669,56.0,75.0
513,126.97332078750001,127.15513892083335,56.0,73.0
514,126.97332078750001,127.36110477500002,61.0,71.0
515,127.31422978750001,127.47190020000002,56.0,73.0
516,127.65513878750002,127.78013875416669,56.0,80.0
517,127.65513878750002,127.91792280833334,61.0,78.0
518,127.99604778750002,128.12104775416668,56.0,77.0
519,128.33695678750001,128.68638851250003,61.0,73.0
520,128.33695678750001,128.71763850416667,54.0,73.0
521,128.67786578750002,129.16650202083335,49.0,63.0
522,129.0187747875,129.31991107083334,57.0,79.0
523,129.35968378750002,129.5045701125,54.0,76.0
524,129.70059278750003,129.90229727916667,54.0,77.0
525,129.70059278750003,129.94775181250003,61.0,75.0
526,130.0415017875,130.48042212500002,49.0,63.0
527,130.38241078750002,130.50883120833336,54.0,74.0
528,130.38241078750002,130.57275164583336,57.0,77.0
529,128.33695678750001,130.59405845833334,42.0,77.0
530,130.38241078750002,130.7105357,61.0,76.0
531,130.72331978750003,130.93070609583336,54.0,77.0
532,131.0642287875,131.14945603750002,35.0,75.0
533,131.0642287875,131.32843326250003,54.0,77.0
534,131.0642287875,131.43212641666668,59.0,76.0
535,131.7460467875,132.04008080000003,59.0,78.0
536,131.7460467875,132.09547851250002,63.0,77.0
537,132.08695578750002,132.508830675,54.0,75.0
538,132.42786478750003,132.55854657083336,59.0,75.0
539,132.42786478750003,132.58837610833336,63.0,81.0
540,132.42786478750003,132.60258065000002,66.0,75.0
541,131.40513778750002,132.61394428333335,47.0,73.0
542,132.7687737875,132.8880919375,59.0,62.0
543,132.7687737875,133.09689870000003,47.0,36.0
544,133.10968278750002,133.16792140833334,59.0,73.0
545,132.7687737875,133.20201230833334,54.0,74.0
546,133.10968278750002,133.28297819583335,63.0,84.0
547,133.10968278750002,133.43212588333336,71.0,71.0
548,133.10968278750002,133.51877358750002,66.0,75.0
549,133.45059178750003,133.71053490000003,59.0,77.0
550,133.7915007875,134.13098933333336,59.0,75.0
551,133.7915007875,134.16081887083334,64.0,73.0
552,134.13240978750002,134.3128074666667,56.0,73.0
553,134.4733187875,134.60400057083336,56.0,75.0
554,134.4733187875,134.67644373333334,59.0,78.0
555,133.7915007875,134.96905729166667,40.0,71.0
556,134.81422778750002,134.97473910833335,56.0,69.0
557,135.15513678750003,135.2787163,56.0,76.0
558,135.15513678750003,135.37814809166667,59.0,81.0
559,135.15513678750003,135.5173526,40.0,76.0
560,135.4960457875,135.67786392083335,56.0,75.0
561,135.15513678750003,135.71053436666668,64.0,76.0
562,135.83695478750002,136.11394335000003,51.0,82.0
563,135.83695478750002,136.28439785,59.0,79.0
564,135.83695478750002,136.39803418333335,63.0,79.0
565,136.5187727875,136.6721818375,56.0,74.0
566,136.5187727875,136.90229541250002,61.0,71.0
567,136.85968178750002,136.99320447916668,56.0,74.0
568,136.5187727875,137.264511225,49.0,79.0
569,137.2005907875,137.29718167083334,56.0,69.0
570,137.2005907875,137.32274984583336,61.0,76.0
571,137.2005907875,137.33553393333335,64.0,74.0
572,137.54149978750002,137.6878065666667,56.0,70.0
573,137.88240878750003,138.00030648333336,56.0,68.0
574,137.88240878750003,138.0457610166667,61.0,69.0
575,138.2233177875,138.3440563916667,56.0,69.0
576,137.88240878750003,138.35968138750002,49.0,71.0
577,138.56422678750002,138.6807040291667,56.0,76.0
578,138.56422678750002,138.69916993333334,61.0,78.0
579,138.56422678750002,138.72047674583334,64.0,75.0
580,138.90513578750003,139.0343971166667,56.0,75.0
581,139.2460447875,139.47331745416668,54.0,69.0
582,139.2460447875,139.5272947125,61.0,69.0
583,139.9278627875,140.05996502500003,54.0,76.0
584,139.9278627875,140.16507863333334,61.0,75.0
585,140.26877178750001,140.45201037500001,54.0,77.0
586,139.2460447875,140.46763537083336,42.0,76.0
587,139.58695378750002,140.4704762791667,49.0,68.0
588,140.60968078750003,140.92076025000003,61.0,70.0
589,140.60968078750003,140.95769205833335,54.0,74.0
590,140.9505897875,141.44348738333335,49.0,61.0
591,140.60968078750003,141.53439645000003,42.0,75.0
592,141.29149878750002,141.58837370833334,57.0,76.0
593,141.29149878750002,141.6835441375,61.0,78.0
594,141.63240778750003,141.77019184166667,54.0,76.0
595,141.9733167875,142.29433942916668,61.0,76.0
596,141.9733167875,142.29575988333335,57.0,76.0
597,142.6551347875,142.7545665791667,57.0,77.0
598,141.9733167875,142.79291884166668,45.0,70.0
599,142.6551347875,142.8525779166667,61.0,76.0
600,142.9960437875,143.12956647916667,57.0,75.0
601,143.3366799375,143.44119969583335,57.0,47.0
602,143.3366799375,143.69119965833335,61.0,75.0
603,143.67566293750002,143.83244257500002,57.0,70.0
604,143.3366799375,144.0993916875,45.0,63.0
605,144.0146459375,144.10927869166667,57.0,77.0
606,144.0146459375,144.3451543625,61.0,74.0
607,144.35362893750002,144.55984359583334,57.0,64.0
608,144.6926119375,144.88611473333333,54.0,73.0
609,144.6926119375,145.15023898750002,59.0,69.0
610,145.03159493750002,145.3974140916667,54.0,71.0
611,145.3705779375,145.68272478333336,61.0,70.0
612,145.70956093750002,146.0315947875,54.0,78.0
613,146.0485439375,146.44826139166668,63.0,81.0
614,146.3875269375,146.5485438625,54.0,74.0
615,146.7265099375,147.38187707083335,54.0,75.0
616,144.6926119375,147.39600136250002,47.0,76.0
617,146.7265099375,147.39600136250002,59.0,69.0
618,148.0858605875,148.45944003333335,56.0,64.0
619,148.0858605875,148.48500820833334,59.0,69.0
620,148.42676958750002,148.62421271666668,52.0,63.0
621,149.1085875875,149.48642839583334,52.0,64.0
622,149.44949658750002,149.5517692875,56.0,75.0
623,147.74495158750003,149.55603065000003,47.0,62.0
624,149.44949658750002,149.5858601875,59.0,75.0
625,147.40447593750002,149.59722382083334,40.0,75.0
626,149.7904055875,150.01483734583334,52.0,75.0
627,150.47222358750003,150.89978029166667,56.0,69.0
628,150.8131325875,150.9750643625,61.0,74.0
629,150.8131325875,151.03188252916667,64.0,74.0
630,151.15404158750002,151.34864380833335,56.0,70.0
631,151.8358595875,152.1426776875,56.0,75.0
632,152.17676858750002,152.28188219583333,61.0,78.0
633,152.17676858750002,152.28330265000002,64.0,76.0
634,150.13131458750001,152.32875718333335,49.0,79.0
635,152.5176775875,152.62847301250002,47.0,77.0
636,152.5176775875,152.63415482916668,59.0,76.0
637,152.8585865875,153.25631375416668,57.0,67.0
638,153.19949558750002,153.61284775000001,52.0,64.0
639,153.5404045875,153.7293249916667,61.0,67.0
640,153.5404045875,153.74352953333334,57.0,71.0
641,152.8585865875,154.08017717083334,45.0,75.0
642,153.88131358750002,154.14835897083336,52.0,72.0
643,154.56226263750003,154.98010985625,56.0,69.0
644,154.90220613750003,154.99002487500002,63.0,75.0
645,154.90220613750003,154.99710703125,59.0,76.0
646,154.2222225875,155.01268777500002,44.0,77.0
647,156.26198013750002,156.61467151875001,57.0,76.0
648,156.26198013750002,156.66991233750002,61.0,75.0
649,155.9220366375,156.75631464375002,49.0,73.0
650,155.5820931375,156.8313855,42.0,75.0
651,156.60192363750002,157.01127226875002,54.0,73.0
652,156.94186713750003,157.42062090000002,59.0,76.0
653,156.94186713750003,157.55234900625,47.0,77.0
654,157.28181063750003,157.69965785625,54.0,71.0
655,157.62175413750003,157.92062113125002,49.0,74.0
656,157.62175413750003,157.94611689375003,61.0,75.0
657,157.96169763750004,158.30447400000003,59.0,77.0
658,158.3016411375,158.50560723750002,56.0,66.0
659,158.3016411375,158.76481415625003,61.0,74.0
660,158.64158463750002,159.08067832500004,56.0,69.0
661,158.98152813750002,159.30447446250002,61.0,77.0
662,158.3016411375,159.52685416875002,49.0,78.0
663,159.32147163750003,159.71240666250003,56.0,70.0
664,158.98152813750002,159.89937558750003,64.0,72.0
665,160.00135863750003,160.44186875625002,56.0,75.0
666,160.34130213750004,160.54101894375003,61.0,77.0
667,160.34130213750004,160.65150058125002,64.0,77.0
668,160.6812456375,161.00135910000003,56.0,68.0
669,161.36113263750002,161.64016959375002,54.0,76.0
670,161.70107613750002,162.01694030625004,54.0,72.0
671,161.70107613750002,162.12600551250003,61.0,75.0
672,162.38096313750003,162.88804552500002,54.0,75.0
673,162.04101963750003,163.29597772500003,49.0,61.0
674,161.02118913750002,163.35971713125002,42.0,76.0
675,163.0608501375,163.38096360000003,66.0,75.0
676,163.0608501375,163.47444806250002,61.0,77.0
677,163.40079363750002,163.68691275000003,54.0,76.0
678,164.08068063750002,164.50136071875002,52.0,73.0
679,164.42062413750003,164.81014273125004,57.0,75.0
680,164.76056763750003,165.03818816250003,52.0,78.0
681,165.4404546375,165.84413754375004,52.0,76.0
682,165.78039813750001,166.05093650625003,57.0,76.0
683,165.78039813750001,166.07784870000003,61.0,77.0
684,163.74073713750002,166.13592238125003,45.0,79.0
685,166.12034163750002,166.25915190000003,52.0,76.0
686,166.46028513750002,166.86113518125003,59.0,73.0
687,166.80022863750003,167.20391154375002,54.0,77.0
688,167.14017213750003,167.49286351875003,61.0,77.0
689,166.46028513750002,167.71949251875003,47.0,75.0
690,167.48011563750003,167.91354360000003,54.0,77.0
691,167.82005913750004,168.19258055625002,63.0,76.0
692,167.82005913750004,168.22940776875004,59.0,76.0
693,168.1600026375,168.43337386875004,54.0,78.0
694,168.49994613750002,168.70674510000003,54.0,76.0
695,168.49994613750002,168.96736845000004,59.0,77.0
696,167.82005913750004,169.063685775,47.0,75.0
697,169.17983313750003,169.60617894375002,59.0,76.0
698,169.17983313750003,169.62317611875002,64.0,75.0
699,169.85972013750003,170.00702898750004,59.0,77.0
700,169.85972013750003,170.29314810000002,64.0,78.0
701,169.51977663750003,170.38521613125002,54.0,65.0
702,169.17983313750003,170.41354475625002,47.0,76.0
703,170.19966363750004,170.6132615625,59.0,81.0
704,170.5396071375,171.04244023125003,63.0,79.0
705,171.21949413750002,171.62600990625003,59.0,81.0
706,170.87955063750002,171.78465020625003,54.0,62.0
707,170.5396071375,171.79598165625004,47.0,77.0
708,171.55943763750003,171.81864455625004,63.0,82.0
709,171.89938113750003,172.29598188750003,64.0,75.0
710,172.23932463750003,172.66000471875003,59.0,75.0
711,172.57926813750004,172.9475402625,64.0,77.0
712,172.91921163750004,173.29173305625002,59.0,79.0
713,173.25915513750002,173.67416949375001,68.0,76.0
714,173.59909863750002,173.90079849375002,59.0,77.0
715,173.93904213750002,174.49003389375002,64.0,77.0
716,171.89938113750003,174.50136534375002,52.0,76.0
717,174.27898563750003,174.53960898750003,59.0,81.0
718,174.61892913750003,175.03394349375003,59.0,74.0
719,174.61892913750003,175.29739970625002,64.0,75.0
720,174.95887263750004,175.48861792500003,47.0,65.0
721,174.61892913750003,175.4971165125,40.0,75.0
722,175.2988161375,175.80448209375004,59.0,82.0
723,175.63875963750002,175.82006283750002,64.0,75.0
724,175.97870313750002,176.4121311,59.0,76.0
725,175.97870313750002,176.41496396250002,63.0,84.0
726,176.65859013750003,176.78606895000001,59.0,80.0
727,176.31864663750002,176.83989333750003,54.0,72.0
728,175.97870313750002,177.07218806250003,47.0,76.0
729,176.65859013750003,177.09910025625004,66.0,76.0
730,176.99853363750003,177.30023349375003,59.0,80.0
731,177.33847713750004,177.50136673125002,56.0,68.0
732,177.33847713750004,177.74782576875003,61.0,71.0
733,177.67842063750004,178.05944064375004,56.0,69.0
734,178.01836413750001,178.17558800625002,61.0,78.0
735,177.33847713750004,178.56227373750002,49.0,78.0
736,178.01836413750001,178.70674972500004,64.0,81.0
737,178.35830763750002,178.78890273750002,56.0,77.0
738,178.69825113750002,179.08352043750003,61.0,76.0
739,178.69825113750002,179.40646676250003,49.0,63.0
740,179.03819463750003,179.42346393750003,56.0,73.0
741,179.37813813750003,179.66992297500002,64.0,77.0
742,179.71808163750003,179.88522052500002,56.0,77.0
743,180.05802513750004,180.48295451250002,57.0,60.0
744,180.05802513750004,180.78323793750002,61.0,71.0
745,180.73791213750002,181.21383303750002,57.0,81.0
746,180.05802513750004,181.33281326250003,45.0,76.0
747,180.3979686375,181.34839400625003,52.0,55.0
748,181.07785563750002,181.85122710000002,61.0,75.0
749,182.09768613750003,182.24357855625004,56.0,76.0
750,181.75774263750003,182.46595826250004,51.0,76.0
751,182.09768613750003,182.47162398750004,59.0,80.0
752,181.41779913750003,182.48720473125002,44.0,76.0
753,182.43762963750004,182.59485350625002,56.0,77.0
754,182.77757313750004,183.49287091875004,57.0,64.0
755,182.77757313750004,183.49428735000004,54.0,71.0
756,183.45746013750002,183.81865010625003,61.0,79.0
757,183.79740363750003,183.953211075,57.0,80.0
758,183.11751663750002,184.32998178750003,49.0,62.0
759,184.13734713750003,184.39655405625004,54.0,79.0
760,184.13734713750003,184.50420283125004,66.0,76.0
761,184.47729063750003,184.88522283750004,49.0,75.0
762,182.77757313750004,184.97445800625002,42.0,76.0
763,184.81723413750004,185.09060536875003,57.0,78.0
764,184.81723413750004,185.20958559375003,61.0,77.0
765,185.1571776375,185.20958559375003,61.0,42.0
766,185.1571776375,185.32431652500003,54.0,82.0
767,185.49712113750002,185.63876426250002,54.0,76.0
768,185.49712113750002,185.90222047500004,59.0,75.0
769,185.83706463750002,186.04103073750002,54.0,75.0
770,186.17700813750002,186.39088925625003,54.0,77.0
771,186.17700813750002,186.61185253125004,61.0,76.0
772,185.49712113750002,186.75066279375002,47.0,76.0
773,186.51695163750003,186.81015290625004,59.0,81.0
774,186.85689513750003,186.96596034375003,54.0,70.0
775,186.85689513750003,187.22800012500002,63.0,79.0
776,187.19683863750004,187.57360935000003,61.0,76.0
777,187.53678213750004,187.93621575000003,59.0,82.0
778,186.85689513750003,188.04244809375,47.0,79.0
779,188.21666913750002,188.39797233750002,56.0,73.0
780,188.21666913750002,188.644431375,61.0,72.0
781,188.55661263750002,188.73366654375002,56.0,72.0
782,188.89655613750003,189.01836922500001,56.0,76.0
783,188.89655613750003,189.58919101875003,64.0,76.0
784,189.23649963750003,189.62743466250004,56.0,69.0
785,189.57644313750004,189.95321385000003,61.0,77.0
786,189.9163866375,190.06936121250004,56.0,75.0
787,190.25633013750002,190.36539534375004,56.0,76.0
788,188.21666913750002,190.46312910000003,49.0,78.0
789,190.25633013750002,190.57361073750002,61.0,78.0
790,190.25633013750002,190.62885155625003,64.0,75.0
791,190.59627363750002,190.80590546250002,56.0,74.0
792,190.93621713750002,191.11327104375002,57.0,64.0
793,190.93621713750002,191.65009848750003,61.0,71.0
794,191.61610413750003,192.02120347500002,57.0,77.0
795,191.95604763750003,192.32998548750004,61.0,75.0
796,192.29599113750004,192.70392333750004,64.0,80.0
797,191.27616063750003,192.85406505000003,52.0,45.0
798,190.93621713750002,192.85689791250002,45.0,77.0
799,192.63593463750004,192.89655798750005,61.0,68.0
800,192.97587813750002,193.18126066875004,56.0,69.0
801,192.97587813750002,193.34981598750002,59.0,75.0
802,193.31582163750002,193.47446193750002,56.0,76.0
803,192.97587813750002,193.49287554375002,44.0,76.0
804,193.65576513750003,194.21525548125004,57.0,67.0
805,193.65576513750003,194.27899488750003,54.0,76.0
806,194.33565213750003,194.73083645625002,61.0,77.0
807,194.67559563750004,195.06936352500003,57.0,80.0
808,195.0155391375,195.13168650000003,61.0,49.0
809,195.0155391375,195.43480278750002,66.0,77.0
810,195.35548263750002,195.55236658125003,54.0,76.0
811,193.65576513750003,195.88239506250002,42.0,76.0
812,193.99570863750003,195.88239506250002,49.0,66.0
813,195.69542613750002,195.96596450625003,54.0,77.0
814,195.69542613750002,195.97304666250002,57.0,78.0
815,195.69542613750002,196.25633291250003,61.0,77.0
816,196.03536963750003,196.35265023750003,42.0,77.0
817,196.37531313750003,196.53253700625004,54.0,74.0
818,196.37531313750003,196.82148898125,59.0,74.0
819,196.71525663750003,196.93905277500002,54.0,76.0
820,197.05520013750004,197.44471873125002,61.0,75.0
821,197.05520013750004,197.48437880625002,54.0,80.0
822,197.39514363750004,197.71242423750004,59.0,77.0
823,197.73508713750005,198.25916670000004,63.0,80.0
824,198.07503063750002,198.45463421250003,54.0,73.0
825,198.41497413750002,198.82290633750003,61.0,75.0
826,196.37531313750003,198.93622083750003,47.0,76.0
827,198.75491763750003,198.95746730625004,54.0,73.0
828,199.09486113750003,199.30307653125004,54.0,70.0
829,199.09486113750003,199.51129192500002,59.0,70.0
830,199.43480463750004,199.84415326875003,54.0,72.0
831,199.7747481375,200.21384182500003,61.0,74.0
832,200.11469163750002,200.50421023125003,54.0,75.0
833,200.45463513750002,200.93055603750003,63.0,75.0
834,201.13452213750003,201.64585381875003,54.0,74.0
835,201.13452213750003,201.77191620000002,59.0,75.0
836,199.09486113750003,201.77899835625004,47.0,81.0
837,201.81440913750004,202.19401271250004,54.0,75.0
838,201.81440913750004,202.29316290000003,63.0,76.0
839,202.49429613750004,202.86398469375,59.0,78.0
840,202.83423963750005,203.03254001250002,54.0,75.0
841,203.17418313750002,203.33282343750002,54.0,75.0
842,203.17418313750002,203.58919749375002,59.0,75.0
843,203.51412663750003,203.68268195625004,54.0,69.0
844,203.85407013750003,204.00279541875003,54.0,75.0
845,202.15435263750004,204.29174739375003,42.0,57.0
846,201.81440913750004,204.37956613125004,35.0,73.0
847,204.19401363750003,204.41214405000002,54.0,76.0
848,203.85407013750003,204.44047267500002,63.0,80.0
849,204.53395713750004,204.7265917875,54.0,74.0
850,204.53395713750004,204.93480718125002,59.0,73.0
851,204.53395713750004,204.95322078750002,35.0,75.0
852,204.87390063750001,205.15010473125002,54.0,74.0
853,205.21384413750002,205.73509083750002,63.0,77.0
854,205.55378763750002,205.98154987500004,54.0,76.0
855,205.89373113750003,206.29883047500005,59.0,69.0
856,206.23367463750003,206.63594111250003,54.0,71.0
857,206.57361813750003,206.94472312500002,63.0,76.0
858,205.89373113750003,206.95322171250004,47.0,63.0
859,206.57361813750003,206.96030386875003,59.0,77.0
860,206.91356163750004,207.22092721875003,54.0,80.0
861,207.25350513750004,207.66285376875004,57.0,64.0
862,207.25350513750004,207.74217391875004,61.0,65.0
863,207.93339213750002,208.07645169375002,57.0,81.0
864,207.25350513750004,208.16710329375002,45.0,84.0
865,207.59344863750005,208.22942626875005,52.0,74.0
866,207.93339213750002,208.26766991250003,61.0,79.0
867,208.27333563750003,208.45747170000004,57.0,76.0
868,208.61327913750003,208.79316590625004,54.0,71.0
869,208.61327913750003,208.90789683750003,63.0,78.0
870,208.61327913750003,209.10903007500002,59.0,77.0
871,208.95322263750003,209.15718873750004,54.0,76.0
872,209.29316613750004,209.43480926250004,54.0,76.0
873,208.61327913750003,209.90364800625002,47.0,79.0
874,209.63310963750004,209.90364800625002,54.0,72.0
875,209.29316613750004,209.90648086875004,59.0,74.0
876,210.65294013750002,211.02546155625004,56.0,64.0
877,210.65294013750002,211.05095731875002,59.0,69.0
878,210.99288363750003,211.18976758125004,52.0,63.0
879,211.67277063750004,212.04954135000003,52.0,64.0
880,212.01271413750004,212.11469718750004,56.0,75.0
881,210.31299663750002,212.11894648125002,47.0,62.0
882,212.01271413750004,212.14869153750004,59.0,75.0
883,209.97305313750002,212.16002298750004,40.0,75.0
884,212.35265763750004,212.57645377500003,52.0,75.0
885,213.03254463750002,213.45889044375002,56.0,69.0
886,213.37248813750003,213.53396130000004,61.0,74.0
887,213.37248813750003,213.59061855000004,64.0,74.0
888,213.71243163750003,213.90648271875003,56.0,70.0
889,214.39231863750004,214.69826778750001,56.0,75.0
890,214.73226213750002,214.83707805000003,61.0,78.0
891,214.73226213750002,214.83849448125002,64.0,76.0
892,212.69260113750005,214.88382028125002,49.0,79.0
893,215.07220563750002,215.18268727500003,47.0,77.0
894,215.07220563750002,215.18835300000003,59.0,76.0
895,215.41214913750002,215.80874988750003,57.0,67.0
896,215.75209263750003,216.16427413125004,52.0,64.0
897,216.09203613750003,216.28042149375003,61.0,67.0
898,216.09203613750003,216.29458580625004,57.0,71.0
899,215.41214913750002,216.63028001250004,45.0,75.0
900,216.43197963750004,216.69826871250004,52.0,72.0
901,217.11186663750004,217.52971385625003,56.0,69.0
902,217.45181013750005,217.53962887500003,63.0,75.0
903,217.45181013750005,217.54671103125003,59.0,76.0
904,216.77192313750004,217.56229177500003,44.0,77.0
905,218.81158413750003,219.16427551875003,57.0,76.0
906,218.81158413750003,219.21951633750004,61.0,75.0
907,218.47164063750003,219.30591864375003,49.0,73.0
908,218.13169713750003,219.38098950000003,42.0,75.0
909,219.15152763750004,219.56087626875004,54.0,73.0
910,219.4914711375,219.97022490000003,59.0,76.0
911,219.4914711375,220.10195300625003,47.0,77.0
912,219.83141463750002,220.24926185625003,54.0,71.0
913,220.17135813750002,220.47022513125003,49.0,74.0
914,220.17135813750002,220.49572089375005,61.0,75.0
915,220.51130163750003,220.85407800000002,59.0,77.0
916,220.85124513750003,221.05521123750003,56.0,66.0
917,220.85124513750003,221.31441815625004,61.0,74.0
918,221.19118863750003,221.63028232500005,56.0,69.0
919,221.53113213750004,221.8540784625,61.0,77.0
920,220.85124513750003,222.07645816875004,49.0,78.0
921,221.87107563750004,222.26201066250002,56.0,70.0
922,221.53113213750004,222.44897958750005,64.0,72.0
923,222.55096263750005,222.99147275625003,56.0,75.0
924,222.89090613750005,223.09062294375002,61.0,77.0
925,222.89090613750005,223.20110458125004,64.0,77.0
926,223.23084963750003,223.55096310000005,56.0,68.0
927,223.91073663750004,224.18977359375003,54.0,76.0
928,224.2506801375,224.56654430625002,54.0,72.0
929,224.2506801375,224.67560951250005,61.0,75.0
930,224.93056713750002,225.43764952500004,54.0,75.0
931,224.59062363750002,225.84558172500005,49.0,61.0
932,223.57079313750003,225.90932113125004,42.0,76.0
933,225.61045413750003,225.93056760000002,66.0,75.0
934,225.61045413750003,226.02405206250003,61.0,77.0
935,225.95039763750003,226.23651675000002,54.0,76.0
936,226.63028463750004,227.05096471875004,52.0,73.0
937,226.97022813750004,227.35974673125003,57.0,75.0
938,227.31017163750005,227.58779216250002,52.0,78.0
939,227.99005863750003,228.39374154375002,52.0,76.0
940,228.33000213750003,228.60054050625,57.0,76.0
941,228.33000213750003,228.62745270000005,61.0,77.0
942,226.29034113750004,228.68552638125004,45.0,79.0
943,228.66994563750004,228.80875590000005,52.0,76.0
944,229.00988913750004,229.41073918125005,59.0,73.0
945,229.34983263750001,229.75351554375004,54.0,77.0
946,229.68977613750002,230.04246751875002,61.0,77.0
947,229.00988913750004,230.26909651875002,47.0,75.0
948,230.02971963750002,230.4631476,54.0,77.0
949,230.36966313750003,230.74218455625004,63.0,76.0
950,230.36966313750003,230.77901176875002,59.0,76.0
951,230.70960663750003,230.98297786875003,54.0,78.0
952,231.04955013750003,231.25634910000002,54.0,76.0
953,231.04955013750003,231.51697245000003,59.0,77.0
954,230.36966313750003,231.61328977500003,47.0,75.0
955,231.72943713750004,232.15578294375004,59.0,76.0
956,231.72943713750004,232.17278011875004,64.0,75.0
957,232.40932413750005,232.55663298750005,59.0,77.0
958,232.40932413750005,232.84275210000004,64.0,78.0
959,232.06938063750005,232.93482013125004,54.0,65.0
960,231.72943713750004,232.96314875625004,47.0,76.0
961,232.74926763750005,233.16286556250003,59.0,81.0
962,233.08921113750003,233.59204423125004,63.0,79.0
963,233.76909813750004,234.17561390625002,59.0,81.0
964,233.42915463750003,234.33425420625002,54.0,62.0
965,233.08921113750003,234.34558565625002,47.0,77.0
966,234.1090416375,234.36824855625002,63.0,82.0
967,234.44898513750002,234.84558588750002,64.0,75.0
968,234.78892863750002,235.20960871875002,59.0,75.0
969,235.12887213750003,235.49714426250003,64.0,77.0
970,235.46881563750003,235.84133705625004,59.0,79.0
971,235.80875913750003,236.22377349375003,68.0,76.0
972,236.14870263750004,236.45040249375003,59.0,77.0
973,236.48864613750004,237.03963789375004,64.0,77.0
974,234.44898513750002,237.05096934375004,52.0,76.0
975,236.82858963750004,237.08921298750005,59.0,81.0
976,237.46031797500004,237.83850511875005,54.0,76.0
977,237.78751359375002,238.17844861875005,57.0,77.0
978,237.79459575000004,238.20961010625004,61.0,77.0
979,237.14587023750005,238.39374616875006,42.0,76.0
980,238.12179136875005,238.57080007500002,54.0,78.0
981,238.81584268125005,239.19686268750002,54.0,77.0
982,239.15436975000003,239.62037563125006,59.0,76.0
983,238.49714565000005,239.70819436875001,47.0,79.0
984,239.50564470000003,239.85408678750002,54.0,77.0
985,239.14445473125005,240.07363363125003,63.0,76.0
986,239.82292530000004,240.63595683750003,57.0,72.0
987,240.16286880000004,240.98581535625004,52.0,59.0
988,239.81159385000004,241.03680688125002,45.0,72.0
989,240.84842152500005,241.14870495000002,57.0,77.0
990,240.54105594375005,241.15861996875003,61.0,66.0
991,240.53255735625004,241.19969647500005,64.0,75.0
992,241.88949849375004,242.03255805000003,56.0,67.0
993,241.52972495625005,242.15720400000004,51.0,67.0
994,241.18836502500005,242.20252980000004,44.0,77.0
995,241.88808206250002,242.36966868750005,59.0,71.0
996,242.23510771875004,242.56513620000004,56.0,70.0
997,242.92915903125004,243.45607145625002,49.0,71.0
998,242.56938549375002,243.61187889375003,42.0,76.0
999,243.28893256875006,243.71669480625002,57.0,75.0
1000,243.29884758750003,243.90649659375003,61.0,74.0
1001,243.67986759375003,243.91074588750004,54.0,84.0
1002,244.03539183750001,244.18411711875004,35.0,74.0
1003,244.03822470000003,244.18553355000003,54.0,77.0
1004,244.06513689375004,244.49714842500003,59.0,72.0
1005,244.43907474375004,245.37958509375005,47.0,77.0
1006,245.36400435000002,245.48865030000002,54.0,69.0
1007,244.89233274375005,246.23227670625005,59.0,77.0
1008,244.88808345000004,246.27193678125002,63.0,81.0
1009,246.73086050625005,246.96173880000003,52.0,68.0
1010,246.94757448750005,247.11329694375002,54.0,75.0
1011,247.16003917500004,247.41216393750005,56.0,73.0
1012,247.36542170625003,247.55805635625003,59.0,78.0
1013,247.58213568750006,247.75635673125004,64.0,71.0
1014,247.83426045000004,247.91924632500002,66.0,46.0
1015,248.07080446875005,248.39516722500002,68.0,76.0
1016,248.34134283750004,248.66853845625002,71.0,75.0
1017,248.62179622500003,248.79035154375003,76.0,75.0
1018,248.92491251250004,249.06797206875004,78.0,66.0
1019,249.29176820625003,249.76202338125003,80.0,70.0
1020,249.72944546250005,249.87392145000004,83.0,75.0
1021,250.63596146250003,250.69403514375006,88.0,39.0
1022,250.74644310000002,250.81443180000002,92.0,75.0
1023,246.49714935000003,251.18412035625005,47.0,66.0
1024,246.12037863750004,251.24077760625005,40.0,78.0
