,start,end,pitch,velocity
0,35.52322020625,35.73572024166667,74.0,112.0
1,35.73750595625,35.950005991666664,74.0,106.0
2,35.95179170625,36.38036320625,74.0,112.0
3,36.38036320625,36.59464895625,72.0,106.0
4,36.59464895625,36.80893470625,70.0,120.0
5,36.80893470625,37.02322045625,77.0,118.0
6,37.02322045625,37.87857774166667,74.0,106.0
7,37.88036345625,38.09464920625,74.0,112.0
8,38.09464920625,38.30893495625,72.0,112.0
9,38.30893495625,38.52322070625,70.0,120.0
10,38.52322070625,38.73750645625,72.0,112.0
11,38.73750645625,38.95000649166667,74.0,109.0
12,38.95179220625,39.164292241666665,74.0,112.0
13,39.16607795625,39.807149491666664,74.0,115.0
14,39.80893520625,40.23750670625,74.0,115.0
15,40.23750670625,40.66607820625,72.0,112.0
16,40.66607820625,42.59464995625,70.0,117.0
17,42.59464995625,42.80893570625,67.0,115.0
18,42.80893570625,43.23750720625,70.0,120.0
19,43.23750720625,43.45179295625,67.0,115.0
20,43.45179295625,44.09465020625,77.0,115.0
21,44.09465020625,44.308935956250004,75.0,120.0
22,44.308935956250004,44.73750745625,74.0,118.0
23,44.73750745625,44.95179320625,72.0,109.0
24,44.95179320625,45.38036470625,70.0,117.0
25,45.38036470625,45.80893620625,74.0,115.0
26,45.80893620625,46.235721991666665,72.0,109.0
27,46.23750770625,49.23750820625,72.0,106.0
28,49.23750820625,49.450008241666666,74.0,112.0
29,49.45179395625,49.66429399166667,74.0,106.0
30,49.66607970625,50.09465120625,74.0,112.0
31,50.09465120625,50.30893695625,72.0,106.0
32,50.30893695625,50.52322270625,70.0,120.0
33,50.52322270625,50.73750845625,77.0,118.0
34,50.73750845625,51.592865741666664,74.0,106.0
35,51.59465145625,51.80893720625,74.0,112.0
36,51.80893720625,52.02322295625,72.0,112.0
37,52.02322295625,52.23750870625,70.0,120.0
38,52.23750870625,52.45179445625,72.0,112.0
39,52.45179445625,52.664294491666666,74.0,109.0
40,52.66608020625,52.87858024166667,74.0,112.0
41,52.88036595625,53.52143749166667,74.0,115.0
42,53.52322320625,53.95179470625,74.0,115.0
43,53.95179470625,54.38036620625,72.0,112.0
44,54.38036620625,56.30893795625,70.0,117.0
45,56.30893795625,56.52322370625,67.0,115.0
46,56.52322370625,56.95179520625,70.0,120.0
47,56.95179520625,57.16608095625,67.0,115.0
48,57.16608095625,57.80893820625,77.0,115.0
49,57.80893820625,58.02322395625,75.0,120.0
50,58.02322395625,58.45179545625,74.0,118.0
51,58.45179545625,58.66608120625,72.0,109.0
52,58.66608120625,59.09465270625,70.0,117.0
53,59.09465270625,59.52322420625,74.0,115.0
54,59.52322420625,59.95000999166667,72.0,109.0
55,59.95179570625,61.88036745625,72.0,106.0
56,61.88036745625,62.09286749166667,70.0,117.0
57,62.09465320625,62.30893895625,70.0,113.0
58,62.30893895625,62.52143899166666,72.0,112.0
59,62.52322470625,62.73751045625,72.0,104.0
60,62.73751045625,63.16429624166667,74.0,118.0
61,63.16608195625,63.38036770625,74.0,115.0
62,63.38036770625,63.59465345625,72.0,109.0
63,63.59465345625,64.02322495625,74.0,115.0
64,64.02322495625,64.23751070625,72.0,99.0
65,64.23751070625,65.30893945625,74.0,115.0
66,65.30893945625,65.52143949166667,72.0,106.0
67,65.52322520625,65.73751095625,72.0,112.0
68,65.73751095625,65.95179670625,70.0,117.0
69,65.95179670625,66.16608245625,74.0,115.0
70,66.16608245625,66.59286824166666,77.0,115.0
71,66.59465395625,66.80893970625,77.0,118.0
72,66.80893970625,67.23751120625,79.0,112.0
73,67.23751120625,67.45001124166667,74.0,112.0
74,67.45179695625,67.66608270625,74.0,112.0
75,67.66608270625,67.88036845625,72.0,109.0
76,67.88036845625,69.16608295625,74.0,112.0
77,69.16608295625,69.38036870625,65.0,109.0
78,69.38036870625,69.80715449166667,70.0,117.0
79,69.80894020625,70.23572599166667,70.0,120.0
80,70.23751170625,70.45001174166667,70.0,117.0
81,70.45179745625,70.87858324166666,70.0,117.0
82,70.88036895625,71.09465470625,70.0,117.0
83,71.09465470625,71.52144049166667,72.0,104.0
84,71.52322620625,71.95001199166667,72.0,109.0
85,71.95179770625,72.38036920625,72.0,99.0
86,72.38036920625,72.59465495625,70.0,106.0
87,72.59465495625,75.59465545625,74.0,104.0
88,75.59465545625,75.80715549166666,70.0,117.0
89,75.80894120625,76.02322695625,70.0,113.0
90,76.02322695625,76.23572699166667,72.0,112.0
91,76.23751270625,76.45179845625,72.0,104.0
92,76.45179845625,76.87858424166667,74.0,118.0
93,76.88036995625001,77.09465570625,74.0,115.0
94,77.09465570625,77.30894145625,72.0,109.0
95,77.30894145625,77.73751295625,74.0,115.0
96,77.73751295625,77.95179870625,72.0,99.0
97,77.95179870625,79.02322745625,74.0,115.0
98,79.02322745625,79.23572749166667,72.0,106.0
99,79.23751320625,79.45179895625,72.0,112.0
100,79.45179895625,79.66608470625,70.0,117.0
101,79.66608470625,79.88037045625,74.0,115.0
102,79.88037045625,80.30715624166666,77.0,115.0
103,80.30894195625,80.52322770625,77.0,118.0
104,80.52322770625,80.95179920625,79.0,112.0
105,80.95179920625,81.16429924166667,74.0,112.0
106,81.16608495625,81.38037070625,74.0,112.0
107,81.38037070625,81.59465645625001,72.0,109.0
108,81.59465645625001,82.88037095625,70.0,112.0
109,82.88037095625,83.09465670625,65.0,115.0
110,83.09465670625,83.30894245625,67.0,112.0
111,83.30894245625,83.52144249166666,70.0,120.0
112,83.52322820625,83.73572824166666,70.0,120.0
113,83.73751395625,83.95001399166667,70.0,113.0
114,83.95179970625,84.16608545625,70.0,120.0
115,84.16608545625,84.64644267916667,72.0,112.0
116,84.64644267916667,85.23751420625,70.0,113.0
117,85.23751420625,85.66608570625,74.0,109.0
118,85.66608570625,85.91072860416666,72.0,112.0
119,85.88037145625,86.30894295625001,70.0,107.0
120,86.30894295625001,86.52322870625,70.0,114.0
121,86.52322870625,88.47961832083334,70.0,117.0
122,88.47961832083334,89.98701922083333,77.0,115.0
123,89.98880493541667,90.41737643541667,77.0,118.0
124,90.41737643541667,90.62987647083334,70.0,120.0
125,90.63166218541667,90.84416222083334,70.0,117.0
126,90.84594793541666,91.06023368541666,70.0,120.0
127,91.06023368541666,91.70309093541667,77.0,115.0
128,91.70309093541667,93.20309118541667,74.0,115.0
129,93.20309118541667,93.41737693541667,72.0,106.0
130,93.41737693541667,93.84416272083334,70.0,120.0
131,93.84594843541667,94.05844847083333,70.0,113.0
132,94.06023418541666,94.27273422083333,70.0,113.0
133,94.27451993541666,94.70309143541667,70.0,117.0
134,94.70309143541667,95.13166293541667,72.0,115.0
135,95.13166293541667,96.84594893541667,74.0,112.0
136,96.84594893541667,97.06023468541667,67.0,112.0
137,97.06023468541667,97.70130622083333,70.0,120.0
138,97.70309193541667,98.13166343541667,70.0,123.0
139,98.13166343541667,98.56023493541667,67.0,118.0
140,98.56023493541667,98.98880643541666,79.0,115.0
141,98.98880643541666,99.20309218541666,77.0,115.0
142,99.20309218541666,100.06023518541667,77.0,115.0
143,100.06023518541667,100.27452093541666,65.0,109.0
144,100.27452093541666,100.70130672083333,70.0,120.0
145,100.70309243541666,101.12987822083333,70.0,120.0
146,101.13166393541667,101.34594968541667,70.0,120.0
147,101.34594968541667,101.98880693541666,77.0,118.0
148,101.98880693541666,103.70130722083333,74.0,112.0
149,103.70309293541666,104.12987872083333,74.0,118.0
150,104.13166443541667,104.34416447083333,74.0,115.0
151,104.34595018541667,104.55845022083334,74.0,118.0
152,104.56023593541667,104.98880743541666,74.0,118.0
153,104.98880743541666,105.20309318541666,77.0,121.0
154,105.20309318541666,105.41737893541666,79.0,115.0
155,105.41737893541666,105.84595043541667,81.0,118.0
156,105.84595043541667,106.06023618541667,79.0,109.0
157,106.06023618541667,107.13166493541667,77.0,118.0
158,107.13166493541667,107.56445420416667,70.0,120.0
159,107.56626579583333,107.78184520416666,70.0,117.0
160,107.78365679583332,107.99923620416666,70.0,113.0
161,108.00104779583333,108.21843879583332,70.0,120.0
162,108.21843879583332,108.87061179583333,77.0,115.0
163,108.87061179583333,110.60973979583333,74.0,112.0
164,110.60973979583333,110.82713079583333,67.0,112.0
165,110.82713079583333,111.47749220416667,70.0,120.0
166,111.47930379583333,111.90896213333333,70.0,123.0
167,111.90896213333333,112.33753363333332,67.0,115.0
168,112.33753363333332,112.76610513333333,79.0,115.0
169,112.76610513333333,112.98039088333333,77.0,115.0
170,112.98039088333333,113.83753388333332,77.0,115.0
171,113.83753388333332,114.05181963333332,65.0,106.0
172,114.05181963333332,114.47860541874999,70.0,120.0
173,114.48039113333333,116.62324863333333,70.0,120.0
174,116.62324863333333,116.83753438333332,74.0,115.0
175,116.83753438333332,117.26610588333332,72.0,112.0
176,117.26610588333332,117.47860591874999,70.0,120.0
177,117.48039163333333,120.95717792708332,70.0,123.0
178,144.26611038333334,144.47861041875,70.0,117.0
179,144.48039613333333,144.69468188333332,70.0,113.0
180,144.69468188333332,144.90718191874998,72.0,112.0
181,144.90896763333333,145.12325338333332,72.0,104.0
182,145.12325338333332,145.55003916875,74.0,118.0
183,145.55182488333332,145.7661106333333,74.0,115.0
184,145.7661106333333,145.98039638333333,72.0,109.0
185,145.98039638333333,146.40896788333333,74.0,115.0
186,146.40896788333333,146.62325363333332,72.0,99.0
187,146.62325363333332,147.69468238333332,74.0,115.0
188,147.69468238333332,147.90718241874998,72.0,106.0
189,147.90896813333333,148.12325388333332,72.0,112.0
190,148.12325388333332,148.33753963333334,70.0,117.0
191,148.33753963333334,148.55182538333332,74.0,115.0
192,148.55182538333332,148.97861116874998,77.0,115.0
193,148.98039688333333,149.19468263333334,77.0,118.0
194,149.19468263333334,149.62325413333332,79.0,112.0
195,149.62325413333332,149.83575416875,74.0,112.0
196,149.83753988333333,150.05182563333332,74.0,112.0
197,150.05182563333332,150.26611138333334,72.0,109.0
198,150.26611138333334,151.55182588333332,74.0,112.0
199,151.55182588333332,151.7661116333333,65.0,109.0
200,151.7661116333333,152.19289741875,70.0,117.0
201,152.19468313333334,152.62146891875,70.0,120.0
202,152.62325463333332,152.83575466874998,70.0,117.0
203,152.83754038333333,153.26432616875,70.0,117.0
204,153.26611188333334,153.48039763333333,70.0,117.0
205,153.48039763333333,153.90718341874998,72.0,104.0
206,153.90896913333333,154.33575491874998,72.0,109.0
207,154.33754063333333,154.76611213333334,72.0,99.0
208,154.76611213333334,154.98039788333332,70.0,106.0
209,154.98039788333332,157.98039838333332,74.0,104.0
210,157.98039838333332,158.19289841875,70.0,117.0
211,158.19468413333334,158.40896988333333,70.0,113.0
212,158.40896988333333,158.62146991875,72.0,112.0
213,158.62325563333332,158.83754138333333,72.0,104.0
214,158.83754138333333,159.26432716875,74.0,118.0
215,159.26611288333334,159.48039863333332,74.0,115.0
216,159.48039863333332,159.6946843833333,72.0,109.0
217,159.6946843833333,160.12325588333334,74.0,115.0
218,160.12325588333334,160.33754163333333,72.0,99.0
219,160.33754163333333,161.40897038333333,74.0,115.0
220,161.40897038333333,161.62147041875,72.0,106.0
221,161.6232561333333,161.83754188333333,72.0,112.0
222,161.83754188333333,162.05182763333332,70.0,117.0
223,162.05182763333332,162.26611338333333,74.0,115.0
224,162.26611338333333,162.69289916875,77.0,115.0
225,162.69468488333334,162.90897063333333,77.0,118.0
226,162.90897063333333,163.33754213333333,79.0,112.0
227,163.33754213333333,163.55004216875,74.0,112.0
228,163.55182788333332,163.76611363333333,74.0,112.0
229,163.76611363333333,163.98039938333332,72.0,109.0
230,163.98039938333332,165.26611388333333,70.0,112.0
231,165.26611388333333,165.48039963333332,65.0,115.0
232,165.48039963333332,165.69468538333334,67.0,112.0
233,165.69468538333334,165.90718541875,70.0,120.0
234,165.90897113333332,166.12147116875,70.0,120.0
235,166.12325688333334,166.33575691875,70.0,113.0
236,166.33754263333333,166.55182838333332,70.0,120.0
237,166.55182838333332,167.19468563333334,72.0,112.0
238,167.19468563333334,167.6232571333333,70.0,113.0
239,167.6232571333333,168.05182863333334,74.0,109.0
240,168.05182863333334,168.29647153125,72.0,112.0
241,168.26611438333333,168.69468588333334,70.0,107.0
242,168.69468588333334,168.90897163333332,70.0,114.0
243,168.90897163333332,170.83754338333333,70.0,117.0
244,170.83754338333333,172.33575791875,77.0,115.0
245,172.33754363333333,172.76611513333333,77.0,118.0
246,172.76611513333333,172.97861516875,70.0,120.0
247,172.98040088333332,173.19290091874998,70.0,117.0
248,173.19468663333333,173.40897238333332,70.0,120.0
249,173.40897238333332,174.05182963333334,77.0,115.0
250,174.05182963333334,175.5518298833333,74.0,115.0
251,175.5518298833333,175.76611563333333,72.0,106.0
252,175.76611563333333,176.19290141875,70.0,120.0
253,176.19468713333333,176.40718716875,70.0,113.0
254,176.40897288333332,176.62147291875,70.0,113.0
255,176.6232586333333,177.05183013333334,70.0,117.0
256,177.05183013333334,177.48040163333332,72.0,115.0
257,177.48040163333332,179.19468763333333,74.0,112.0
258,179.19468763333333,179.40897338333332,67.0,112.0
259,179.40897338333332,180.05004491875,70.0,120.0
260,180.05183063333334,180.4804021333333,70.0,123.0
261,180.4804021333333,180.90897363333335,67.0,118.0
262,180.90897363333335,181.33754513333332,79.0,115.0
263,181.33754513333332,181.5518308833333,77.0,115.0
264,181.5518308833333,182.40897388333332,77.0,115.0
265,182.40897388333332,182.62325963333333,65.0,109.0
266,182.62325963333333,183.05004541875,70.0,120.0
267,183.05183113333334,183.47861691875,70.0,120.0
268,183.4804026333333,183.69468838333333,70.0,120.0
269,183.69468838333333,184.33754563333332,77.0,118.0
270,184.33754563333332,186.05004591875,74.0,112.0
271,186.05183163333334,186.47861741875,74.0,118.0
272,186.4804031333333,186.69290316874998,74.0,115.0
273,186.69468888333333,186.90718891875,74.0,118.0
274,186.90897463333334,187.33754613333332,74.0,118.0
275,187.33754613333332,187.5518318833333,77.0,121.0
276,187.5518318833333,187.76611763333332,79.0,115.0
277,187.76611763333332,188.19468913333333,81.0,118.0
278,188.19468913333333,188.40897488333331,79.0,109.0
279,188.40897488333331,189.4804036333333,77.0,118.0
280,189.4804036333333,189.90718941875,70.0,120.0
281,189.90897513333334,190.12147516875,70.0,117.0
282,190.12326088333333,190.33576091875,70.0,113.0
283,190.33754663333332,190.55183238333333,70.0,120.0
284,190.55183238333333,191.19468963333333,77.0,115.0
285,191.19468963333333,192.90897563333334,74.0,112.0
286,192.90897563333334,193.12326138333333,67.0,112.0
287,193.12326138333333,193.76433291875,70.0,120.0
288,193.76611863333332,194.19469013333332,70.0,123.0
289,194.19469013333332,194.62326163333333,67.0,115.0
290,194.62326163333333,195.05183313333333,79.0,115.0
291,195.05183313333333,195.26611888333332,77.0,115.0
292,195.26611888333332,196.12326188333333,77.0,115.0
293,196.12326188333333,196.33754763333332,65.0,106.0
294,196.33754763333332,196.76433341875,70.0,120.0
295,196.76611913333335,198.90897663333334,70.0,120.0
296,198.90897663333334,199.12326238333333,74.0,115.0
297,199.12326238333333,199.55183388333333,72.0,112.0
298,199.55183388333333,199.76433391875,70.0,120.0
299,199.76611963333335,203.19469163333332,70.0,123.0
300,203.19469163333332,203.62326313333332,77.0,118.0
301,203.62326313333332,203.83576316875,70.0,120.0
302,203.83754888333334,204.05004891875,70.0,117.0
303,204.05183463333333,204.26612038333332,70.0,120.0
304,204.26612038333332,204.90897763333334,77.0,115.0
305,204.90897763333334,206.4089778833333,74.0,115.0
306,206.4089778833333,206.62326363333332,72.0,106.0
307,206.62326363333332,207.05004941875,70.0,120.0
308,207.05183513333333,207.26433516875,70.0,113.0
309,207.26612088333331,207.47862091874998,70.0,113.0
310,207.48040663333333,207.90897813333333,70.0,117.0
311,207.90897813333333,208.3375496333333,72.0,115.0
312,208.3375496333333,210.05183563333333,74.0,112.0
313,210.05183563333333,210.2661213833333,67.0,112.0
314,210.2661213833333,210.90719291875,70.0,120.0
315,210.90897863333333,211.3375501333333,70.0,123.0
316,211.3375501333333,211.76612163333334,67.0,118.0
317,211.76612163333334,212.19469313333332,79.0,115.0
318,212.19469313333332,212.40897888333333,77.0,115.0
319,212.40897888333333,213.2661218833333,77.0,115.0
320,213.2661218833333,213.48040763333333,65.0,109.0
321,213.48040763333333,213.90719341875,70.0,120.0
322,213.90897913333333,214.33576491875,70.0,120.0
323,214.3375506333333,214.55183638333332,70.0,120.0
324,214.55183638333332,215.19469363333332,77.0,118.0
325,215.19469363333332,216.90719391875,74.0,112.0
326,216.90897963333333,217.33576541875,74.0,118.0
327,217.3375511333333,217.55005116874997,74.0,115.0
328,217.55183688333332,217.76433691875,74.0,118.0
329,217.76612263333334,218.19469413333331,74.0,118.0
330,218.19469413333331,218.40897988333333,77.0,121.0
331,218.40897988333333,218.62326563333335,79.0,115.0
332,218.62326563333335,219.05183713333332,81.0,118.0
333,219.05183713333332,219.2661228833333,79.0,109.0
334,219.2661228833333,220.33755163333333,77.0,118.0
335,220.33755163333333,220.76433741875,70.0,120.0
336,220.76612313333334,220.97862316875,70.0,117.0
337,220.98040888333333,221.19290891875,70.0,113.0
338,221.1946946333333,221.40898038333333,70.0,120.0
339,221.40898038333333,222.05183763333332,77.0,115.0
340,222.05183763333332,223.76612363333334,74.0,112.0
341,223.76612363333334,223.98040938333332,67.0,112.0
342,223.98040938333332,224.62148091875,70.0,120.0
343,224.62326663333334,225.05183813333332,70.0,123.0
344,225.05183813333332,225.48040963333332,67.0,115.0
345,225.48040963333332,225.90898113333333,79.0,115.0
346,225.90898113333333,226.12326688333332,77.0,115.0
347,226.12326688333332,226.98040988333332,77.0,115.0
348,226.98040988333332,227.1946956333333,65.0,106.0
349,227.1946956333333,227.62148141875,70.0,120.0
350,227.62326713333334,229.76612463333333,70.0,120.0
351,229.76612463333333,229.98041038333332,74.0,115.0
352,229.98041038333332,230.40898188333333,72.0,112.0
353,230.40898188333333,230.62148191875,70.0,120.0
354,230.62326763333334,234.1000539270833,70.0,123.0
