,start,end,pitch,velocity
0,7.66607270625,7.907144175,58.0,104.0
1,7.66607270625,8.35178710625,62.0,109.0
2,8.09464420625,8.575001429166667,58.0,74.0
3,8.52321570625,9.078572941666666,65.0,109.0
4,8.52321570625,9.205358677083334,62.0,106.0
5,8.95178720625,9.25178725625,58.0,29.0
6,9.38035870625,9.848215927083332,65.0,99.0
7,9.38035870625,9.866073072916667,62.0,101.0
8,9.80893020625,9.973215947916668,58.0,3.0
9,10.23750170625,10.351787439583333,58.0,110.0
10,10.23750170625,10.664287491666666,62.0,112.0
11,10.66607320625,10.953573254166667,58.0,83.0
12,10.23750170625,10.975001829166667,65.0,112.0
13,7.66607270625,10.992858975,46.0,120.0
14,11.09464470625,11.344644747916666,58.0,113.0
15,11.09464470625,11.862501977083333,63.0,113.0
16,11.52321620625,11.87143055,58.0,66.0
17,11.95178770625,12.116073447916667,58.0,83.0
18,11.95178770625,12.426787785416666,65.0,106.0
19,11.95178770625,12.68035925625,63.0,110.0
20,12.38035920625,12.891073577083333,58.0,93.0
21,12.80893070625,13.3392879375,67.0,112.0
22,12.80893070625,13.562502260416666,63.0,101.0
23,13.23750220625,13.576787977083333,58.0,28.0
24,11.09464470625,13.894645172916666,46.0,110.0
25,13.66607370625,13.93393089375,58.0,113.0
26,13.66607370625,14.4857167,63.0,113.0
27,14.09464520625,14.519645277083333,58.0,107.0
28,14.52321670625,14.764288175,58.0,104.0
29,14.52321670625,15.20893110625,62.0,109.0
30,14.95178820625,15.432145429166667,58.0,74.0
31,15.38035970625,15.935716941666668,65.0,109.0
32,15.38035970625,16.062502677083334,62.0,106.0
33,15.80893120625,16.10893125625,58.0,29.0
34,16.23750270625,16.705359927083332,65.0,99.0
35,16.23750270625,16.72321707291667,62.0,101.0
36,16.66607420625,16.830359947916666,58.0,3.0
37,17.09464570625,17.208931439583335,58.0,110.0
38,17.09464570625,17.521431491666668,62.0,112.0
39,17.52321720625,17.810717254166665,58.0,83.0
40,17.09464570625,17.832145829166667,65.0,112.0
41,14.52321670625,17.850002975,46.0,120.0
42,17.95178870625,18.201788747916666,58.0,113.0
43,17.95178870625,18.719645977083335,63.0,113.0
44,18.38036020625,18.72857455,58.0,66.0
45,18.80893170625,18.973217447916667,58.0,83.0
46,18.80893170625,19.283931785416666,65.0,106.0
47,18.80893170625,19.53750325625,63.0,110.0
48,19.23750320625,19.748217577083334,58.0,93.0
49,19.66607470625,20.1964319375,67.0,112.0
50,19.66607470625,20.419646260416666,63.0,101.0
51,20.09464620625,20.433931977083333,58.0,28.0
52,17.95178870625,20.751789172916666,46.0,110.0
53,20.52321770625,20.79107489375,58.0,113.0
54,20.52321770625,21.3428607,63.0,113.0
55,20.95178920625,21.376789277083333,58.0,107.0
56,21.38036070625,21.621432175,58.0,104.0
57,21.38036070625,22.06607510625,62.0,109.0
58,21.80893220625,22.289289429166665,58.0,74.0
59,22.23750370625,22.792860941666667,65.0,109.0
60,22.23750370625,22.919646677083332,62.0,106.0
61,22.66607520625,22.96607525625,58.0,29.0
62,23.09464670625,23.562503927083334,65.0,99.0
63,23.09464670625,23.580361072916666,62.0,101.0
64,23.52321820625,23.687503947916667,58.0,3.0
65,23.95178970625,24.066075439583333,58.0,110.0
66,23.95178970625,24.378575491666666,62.0,112.0
67,24.38036120625,24.667861254166667,58.0,83.0
68,23.95178970625,24.68928982916667,65.0,112.0
69,21.38036070625,24.707146975,46.0,120.0
70,24.80893270625,25.058932747916668,58.0,113.0
71,24.80893270625,25.576789977083333,63.0,113.0
72,25.23750420625,25.58571855,58.0,66.0
73,25.666075706250002,25.830361447916665,58.0,83.0
74,25.666075706250002,26.141075785416668,65.0,106.0
75,25.666075706250002,26.39464725625,63.0,110.0
76,26.09464720625,26.605361577083332,58.0,93.0
77,26.52321870625,27.0535759375,67.0,112.0
78,26.52321870625,27.276790260416668,63.0,101.0
79,26.95179020625,27.291075977083334,58.0,28.0
80,24.80893270625,27.608933172916668,46.0,110.0
81,27.38036170625,27.64821889375,58.0,113.0
82,27.38036170625,28.2000047,63.0,113.0
83,27.80893320625,28.233933277083334,58.0,107.0
84,28.23750470625,28.92321910625,60.0,99.0
85,28.23750470625,29.162504860416668,57.0,99.0
86,28.66607620625,29.323219172916666,48.0,52.0
87,29.09464770625,29.45179062291667,60.0,109.0
88,28.23750470625,29.476790627083332,41.0,106.0
89,29.09464770625,29.578576358333333,65.0,112.0
90,29.95179070625,30.480362222916668,63.0,96.0
91,29.95179070625,30.492862225,58.0,110.0
92,30.380362206250002,30.666076539583333,55.0,42.0
93,30.380362206250002,30.794647989583332,46.0,53.0
94,29.95179070625,30.79821941875,39.0,110.0
95,30.80893370625,31.276790927083333,58.0,120.0
96,30.80893370625,31.300005216666666,63.0,110.0
97,31.66607670625,31.851791022916668,53.0,104.0
98,31.66607670625,32.24643394583333,62.0,106.0
99,31.66607670625,32.250005375,58.0,110.0
100,32.09464820625,32.310719670833336,53.0,91.0
101,32.52321970625,33.03036264791667,58.0,117.0
102,32.52321970625,33.060719795833336,63.0,117.0
103,31.66607670625,33.269648402083334,46.0,96.0
104,33.38036270625,33.91429136666667,62.0,109.0
105,33.38036270625,34.02500567083333,58.0,101.0
106,33.80893420625,34.08036282291667,53.0,58.0
107,34.23750570625,34.435720025,53.0,106.0
108,34.66607720625,35.055362985416664,53.0,94.0
109,34.23750570625,35.091077277083336,58.0,113.0
110,34.23750570625,35.103577279166664,62.0,109.0
111,35.09464870625,35.103577279166664,62.0,106.0
112,33.38036270625,35.142863,46.0,88.0
113,35.09464870625,35.142863,46.0,110.0
114,35.09464870625,35.61786307916667,58.0,110.0
115,35.52322020625,35.8178631125,53.0,66.0
116,35.95179170625,36.43393464375,58.0,120.0
117,35.95179170625,36.53750608958333,62.0,109.0
118,36.38036320625,36.89464900625,53.0,109.0
119,36.80893470625,37.24822049375,62.0,106.0
120,36.80893470625,37.350006225,57.0,112.0
121,37.23750620625,37.692863425,53.0,91.0
122,37.66607770625,38.0250063375,57.0,115.0
123,37.66607770625,38.18036350625,62.0,109.0
124,36.80893470625,38.18929207916667,45.0,104.0
125,38.09464920625,38.225006370833334,53.0,89.0
126,38.52322070625,38.86607790625,62.0,106.0
127,38.52322070625,38.933935060416665,58.0,110.0
128,38.95179220625,39.450006575,55.0,67.0
129,39.38036370625,39.869649502083334,62.0,109.0
130,39.38036370625,39.880363789583335,58.0,120.0
131,38.52322070625,40.14286383333334,43.0,101.0
132,39.80893520625,40.300006716666665,55.0,96.0
133,40.23750670625,40.72143535833333,62.0,106.0
134,40.23750670625,40.737506789583335,58.0,117.0
135,40.66607820625,41.15179257291667,53.0,101.0
136,41.09464970625,41.5821497875,58.0,120.0
137,41.09464970625,41.621435508333334,62.0,106.0
138,40.23750670625,41.93036413125,43.0,109.0
139,41.951792706250004,42.31786419583333,55.0,106.0
140,41.951792706250004,42.76607855625,58.0,117.0
141,42.38036420625,42.88393571875,55.0,85.0
142,42.80893570625,43.3607215125,58.0,123.0
143,42.80893570625,43.5107215375,63.0,120.0
144,43.23750720625,43.79107872708333,55.0,104.0
145,43.66607870625,44.1535787875,58.0,93.0
146,43.66607870625,44.15536450208333,62.0,104.0
147,44.09465020625,44.353578820833334,55.0,94.0
148,44.52322170625,44.69465030625,55.0,104.0
149,41.951792706250004,44.7428646,39.0,110.0
150,44.52322170625,44.88572176666667,58.0,120.0
151,44.52322170625,44.99822178541667,62.0,115.0
152,44.95179320625,45.24107896875,55.0,59.0
153,45.38036470625,45.93929337083333,63.0,104.0
154,45.38036470625,45.94107908541667,60.0,104.0
155,45.80893620625,46.14822197708333,55.0,80.0
156,45.38036470625,46.46250774375,48.0,106.0
157,46.23750770625,46.7250077875,63.0,120.0
158,46.23750770625,46.73036493125,60.0,112.0
159,46.666079206250004,46.864293525,55.0,99.0
160,47.09465070625,47.52679363541667,53.0,99.0
161,47.09465070625,47.52679363541667,57.0,94.0
162,47.09465070625,47.52679363541667,60.0,96.0
163,47.52322220625,48.10893658958334,48.0,66.0
164,47.09465070625,48.266079472916665,41.0,104.0
165,47.95179370625,48.7392938375,53.0,109.0
166,48.38036520625,48.764293841666664,48.0,104.0
167,47.95179370625,48.7821509875,57.0,115.0
168,47.95179370625,48.796436704166666,60.0,106.0
169,48.80893670625,49.2321510625,62.0,106.0
170,48.80893670625,49.332151079166664,58.0,110.0
171,49.23750820625,49.5321511125,53.0,66.0
172,49.66607970625,50.14822264375,58.0,120.0
173,49.66607970625,50.251794089583335,62.0,109.0
174,48.80893670625,50.550008425,46.0,110.0
175,50.09465120625,50.60893700625,53.0,109.0
176,50.52322270625,50.96250849375,62.0,106.0
177,50.52322270625,51.064294225,57.0,112.0
178,50.95179420625,51.407151425,53.0,91.0
179,51.380365706250004,51.7392943375,57.0,115.0
180,51.380365706250004,51.89465150625,62.0,109.0
181,50.52322270625,51.903580079166666,45.0,104.0
182,51.80893720625,51.93929437083333,53.0,89.0
183,52.23750870625,52.58036590625,62.0,106.0
184,52.23750870625,52.64822306041667,58.0,110.0
185,52.66608020625,53.164294575,55.0,67.0
186,53.09465170625,53.58393750208333,62.0,109.0
187,53.09465170625,53.59465178958333,58.0,120.0
188,52.23750870625,53.85715183333333,43.0,101.0
189,53.52322320625,54.01429471666667,55.0,96.0
190,53.95179470625,54.435723358333334,62.0,106.0
191,53.95179470625,54.45179478958333,58.0,117.0
192,54.38036620625,54.866080572916665,53.0,101.0
193,53.95179470625,55.12858061666667,43.0,109.0
194,54.80893770625,55.2964377875,58.0,120.0
195,54.80893770625,55.33572350833333,62.0,106.0
196,55.23750920625,55.460723529166664,53.0,104.0
197,55.66608070625,55.882152170833336,55.0,106.0
198,55.66608070625,56.15179507291667,58.0,117.0
199,56.09465220625,56.59822371875,55.0,85.0
200,56.52322370625,57.0750095125,58.0,123.0
201,56.52322370625,57.2250095375,63.0,120.0
202,56.95179520625,57.505366727083334,55.0,104.0
203,57.38036670625,57.8678667875,58.0,93.0
204,57.38036670625,57.86965250208333,62.0,104.0
205,57.80893820625,58.06786682083333,55.0,94.0
206,58.23750970625,58.40893830625,55.0,104.0
207,55.66608070625,58.4571526,39.0,110.0
208,58.23750970625,58.600009766666666,58.0,120.0
209,58.23750970625,58.712509785416664,62.0,115.0
210,58.66608120625,58.95536696875,55.0,59.0
211,59.09465270625,59.65358137083334,63.0,104.0
212,59.09465270625,59.655367085416664,60.0,104.0
213,59.52322420625,59.862509977083334,55.0,80.0
214,59.09465270625,60.17679574375,48.0,106.0
215,59.95179570625,60.4392957875,63.0,120.0
216,59.95179570625,60.44465293125,60.0,112.0
217,60.38036720625,60.578581525,55.0,99.0
218,60.80893870625,61.24108163541667,53.0,99.0
219,60.80893870625,61.24108163541667,57.0,94.0
220,60.80893870625,61.24108163541667,60.0,96.0
221,61.23751020625,61.82322458958333,48.0,66.0
222,60.80893870625,61.98036747291667,41.0,104.0
223,61.66608170625,62.4535818375,53.0,109.0
224,62.09465320625,62.47858184166667,48.0,104.0
225,61.66608170625,62.4964389875,57.0,115.0
226,61.66608170625,62.51072470416667,60.0,106.0
227,62.52322470625,62.9464390625,62.0,106.0
228,62.52322470625,63.04643907916667,58.0,110.0
229,62.95179620625,63.2464391125,53.0,66.0
230,63.38036770625,63.86251064375,58.0,120.0
231,63.38036770625,63.96608208958333,62.0,109.0
232,62.52322470625,64.264296425,46.0,110.0
233,63.80893920625,64.32322500625,53.0,109.0
234,64.23751070625,64.67679649375,62.0,106.0
235,64.23751070625,64.778582225,57.0,112.0
236,64.66608220625,65.121439425,53.0,91.0
237,65.09465370625,65.4535823375,57.0,115.0
238,65.09465370625,65.60893950625,62.0,109.0
239,64.23751070625,65.61786807916667,45.0,104.0
240,65.52322520625,65.65358237083333,53.0,89.0
241,65.95179670625,66.29465390625,62.0,106.0
242,65.95179670625,66.36251106041667,58.0,110.0
243,66.38036820625,66.878582575,55.0,67.0
244,66.80893970625,67.29822550208333,62.0,109.0
245,66.80893970625,67.30893978958333,58.0,120.0
246,65.95179670625,67.57143983333333,43.0,101.0
247,67.23751120625,67.72858271666666,55.0,96.0
248,67.66608270625,68.15001135833333,62.0,106.0
249,67.66608270625,68.16608278958333,58.0,117.0
250,68.09465420625,68.58036857291667,53.0,101.0
251,67.66608270625,68.84286861666666,43.0,109.0
252,68.52322570625,69.0107257875,58.0,120.0
253,68.52322570625,69.05001150833333,62.0,106.0
254,68.95179720625,69.17501152916667,53.0,104.0
255,69.38036870625,69.87322593125,58.0,110.0
256,69.38036870625,69.92322593958333,63.0,101.0
257,69.38036870625,70.23572599166667,39.0,110.0
258,69.80894020625,70.27679742708334,46.0,58.0
259,70.23751170625,70.692868925,63.0,117.0
260,70.23751170625,70.70715464166666,58.0,120.0
261,70.66608320625,70.85715466666667,55.0,118.0
262,71.09465470625,71.507154775,57.0,106.0
263,71.09465470625,71.84108340208333,53.0,109.0
264,71.95179770625,72.0857263,57.0,118.0
265,71.52322620625,72.38929777916667,48.0,61.0
266,71.09465470625,72.42322635625,41.0,106.0
267,71.95179770625,72.450012075,60.0,104.0
268,72.38036920625,72.83036928125,53.0,112.0
269,72.80894070625,73.27858364166667,62.0,106.0
270,72.80894070625,73.31072650416667,58.0,107.0
271,73.23751220625,73.650012275,53.0,82.0
272,72.80894070625,73.71786942916667,46.0,117.0
273,73.66608370625,74.0892980625,62.0,109.0
274,73.66608370625,74.17144093333333,58.0,120.0
275,74.09465520625,74.592869575,53.0,109.0
276,74.52322670625,75.01608393125,63.0,101.0
277,74.52322670625,75.0321553625,58.0,117.0
278,74.95179820625,75.24465539791667,53.0,85.0
279,75.38036970625,75.57501259583333,53.0,115.0
280,75.38036970625,76.06786982083334,62.0,112.0
281,75.38036970625,76.092869825,58.0,120.0
282,75.80894120625,76.16608412291667,53.0,115.0
283,74.52322670625,76.18572698333334,46.0,91.0
284,76.23751270625,76.6607270625,62.0,106.0
285,76.23751270625,76.76072707916667,58.0,110.0
286,76.66608420625,76.9607271125,53.0,66.0
287,77.09465570625,77.57679864375,58.0,120.0
288,77.09465570625,77.68037008958333,62.0,109.0
289,76.23751270625,77.978584425,46.0,110.0
290,77.52322720625,78.03751300625,53.0,109.0
291,77.95179870625,78.39108449375,62.0,106.0
292,77.95179870625,78.492870225,57.0,112.0
293,78.38037020625,78.835727425,53.0,91.0
294,78.80894170625,79.1678703375,57.0,115.0
295,78.80894170625,79.32322750625,62.0,109.0
296,77.95179870625,79.33215607916667,45.0,104.0
297,79.23751320625,79.36787037083333,53.0,89.0
298,79.66608470625,80.00894190625,62.0,106.0
299,79.66608470625,80.07679906041666,58.0,110.0
300,80.09465620625,80.592870575,55.0,67.0
301,80.52322770625,81.01251350208334,62.0,109.0
302,80.52322770625,81.02322778958333,58.0,120.0
303,79.66608470625,81.28572783333334,43.0,101.0
304,80.95179920625,81.44287071666666,55.0,96.0
305,81.38037070625,81.86429935833333,62.0,106.0
306,81.38037070625,81.88037078958334,58.0,117.0
307,81.80894220625,82.29465657291667,53.0,101.0
308,81.38037070625,82.55715661666666,43.0,109.0
309,82.23751370625,82.7250137875,58.0,120.0
310,82.23751370625,82.76429950833334,62.0,106.0
311,82.66608520625,82.88929952916666,53.0,104.0
312,83.09465670625,83.58751393125,58.0,110.0
313,83.09465670625,83.63751393958333,63.0,101.0
314,83.09465670625,83.95001399166667,39.0,110.0
315,83.52322820625,83.99108542708333,46.0,58.0
316,83.95179970625,84.407156925,63.0,117.0
317,83.95179970625,84.42144264166667,58.0,120.0
318,84.38037120625,84.57144266666667,55.0,118.0
319,84.80894270625,85.221442775,57.0,106.0
320,84.80894270625,85.55537140208334,53.0,109.0
321,85.66608570625,85.8000143,57.0,118.0
322,85.23751420625,86.10358577916666,48.0,61.0
323,84.80894270625,86.13751435625,41.0,106.0
324,85.66608570625,86.164300075,60.0,104.0
325,86.09465720625,86.54483842083333,53.0,112.0
326,86.52322870625,86.99954792916667,62.0,106.0
327,86.52322870625,87.03215657916667,58.0,107.0
328,86.95788132083334,87.37635899583333,53.0,82.0
329,86.52322870625,87.44519947916667,46.0,117.0
330,87.39266332083334,87.82201054583334,62.0,109.0
331,87.39266332083334,87.9053437625,58.0,120.0
332,87.82744532083333,88.33287939583333,53.0,109.0
333,88.26222732083333,88.76222662083333,63.0,101.0
334,88.26222732083333,88.77853094583334,58.0,117.0
335,88.69700932083333,88.99411035416666,53.0,85.0
336,89.13166193541667,89.326304825,53.0,115.0
337,89.13166193541667,89.81916205,62.0,112.0
338,89.13166193541667,89.84416205416667,58.0,120.0
339,89.56023343541666,89.91737635208334,53.0,115.0
340,88.26222732083333,89.9370192125,46.0,91.0
341,89.98880493541667,90.41201929166667,65.0,104.0
342,89.98880493541667,90.44594786875,62.0,109.0
343,89.98880493541667,90.71023362708334,58.0,99.0
344,90.84594793541666,90.89951937291667,58.0,88.0
345,90.84594793541666,91.33344801666667,62.0,115.0
346,90.84594793541666,91.53166233541667,65.0,112.0
347,91.27451943541666,91.61916235,58.0,113.0
348,89.98880493541667,91.71737665208333,46.0,120.0
349,91.70309093541667,92.18166244375,62.0,106.0
350,91.70309093541667,92.21916245,65.0,109.0
351,92.13166243541667,92.66023395208333,57.0,94.0
352,90.41737643541667,92.96380543125,53.0,78.0
353,91.70309093541667,92.97273400416667,45.0,101.0
354,92.56023393541666,92.99951972291667,62.0,118.0
355,92.98880543541667,93.20130547083333,57.0,112.0
356,92.56023393541666,93.35844835416667,65.0,112.0
357,93.41737693541667,93.85666272291667,39.0,110.0
358,93.41737693541667,93.8584484375,58.0,107.0
359,93.41737693541667,93.87809129791667,63.0,117.0
360,93.84594843541667,94.10309133541666,55.0,109.0
361,94.27451993541666,94.51380568958334,53.0,115.0
362,94.27451993541666,94.71380572291666,57.0,115.0
363,94.70309143541667,94.88523432291666,53.0,115.0
364,94.27451993541666,94.90666289791666,41.0,106.0
365,95.13166293541667,95.60309158541666,58.0,120.0
366,95.13166293541667,95.60666301458333,62.0,109.0
367,95.56023443541666,95.8298773375,53.0,91.0
368,95.13166293541667,96.4513060125,46.0,110.0
369,95.98880593541666,96.483448875,58.0,123.0
370,95.98880593541666,96.526306025,62.0,109.0
371,96.41737743541667,96.56380603125,53.0,109.0
372,96.84594893541667,97.29594901041666,58.0,113.0
373,96.84594893541667,97.36023473541667,62.0,109.0
374,97.27452043541666,97.512020475,55.0,85.0
375,97.70309193541667,97.87809196458333,55.0,106.0
376,97.70309193541667,98.19059201666667,58.0,120.0
377,97.70309193541667,98.21559202083333,62.0,109.0
378,98.13166343541667,98.283449175,55.0,112.0
379,96.84594893541667,98.33166346875,43.0,104.0
380,98.56023493541667,98.79059211666666,57.0,106.0
381,98.56023493541667,99.07809216458334,62.0,109.0
382,98.56023493541667,99.08344930833333,65.0,106.0
383,98.98880643541666,99.19059218333334,57.0,96.0
384,98.56023493541667,99.569163675,50.0,106.0
385,99.41737793541667,99.58702082083333,57.0,115.0
386,99.41737793541667,99.72630655833333,62.0,115.0
387,99.41737793541667,99.87273515416666,65.0,112.0
388,100.27452093541666,100.49773525833334,39.0,107.0
389,100.27452093541666,100.69952100625,58.0,120.0
390,100.27452093541666,100.74416387083333,63.0,117.0
391,100.70309243541666,100.86380674791667,55.0,118.0
392,101.13166393541667,101.34952111458334,57.0,109.0
393,101.13166393541667,101.61380687291667,60.0,109.0
394,101.13166393541667,101.62987830416667,65.0,94.0
395,101.13166393541667,101.64952116458333,41.0,109.0
396,101.56023543541667,101.72809260625,57.0,112.0
397,101.98880693541666,102.43166415208333,58.0,113.0
398,101.98880693541666,102.45309272708333,62.0,106.0
399,102.41737843541667,102.68880705208333,53.0,106.0
400,102.84594993541667,103.03523568125,53.0,115.0
401,102.84594993541667,103.63166435208333,58.0,123.0
402,102.84594993541667,103.63880721041667,62.0,112.0
403,101.98880693541666,103.64237863958333,46.0,117.0
404,103.27452143541666,103.65487864166667,53.0,115.0
405,103.70309293541666,104.12630729166666,65.0,104.0
406,103.70309293541666,104.16023586875,62.0,109.0
407,103.70309293541666,104.42452162708334,58.0,99.0
408,104.56023593541667,104.61380737291667,58.0,88.0
409,104.56023593541667,105.04773601666666,62.0,115.0
410,104.56023593541667,105.24595033541667,65.0,112.0
411,104.98880743541666,105.33345034999999,58.0,113.0
412,103.70309293541666,105.43166465208333,46.0,120.0
413,105.41737893541666,105.89595044375,62.0,106.0
414,105.41737893541666,105.93345045,65.0,109.0
415,105.84595043541667,106.37452195208334,57.0,94.0
416,104.13166443541667,106.67809343125,53.0,78.0
417,105.41737893541666,106.68702200416666,45.0,101.0
418,106.27452193541666,106.71380772291667,62.0,118.0
419,106.70309343541666,106.91559347083333,57.0,112.0
420,106.27452193541666,107.07273635416666,65.0,112.0
421,107.13166493541667,107.57713534583333,39.0,110.0
422,107.13166493541667,107.57894693749999,58.0,107.0
423,107.13166493541667,107.59887444583333,63.0,117.0
424,107.56626579583333,107.82713499583333,55.0,109.0
425,108.00104779583333,108.24380107916666,53.0,115.0
426,108.00104779583333,108.44669934583332,57.0,115.0
427,108.43582979583333,108.62061214583333,53.0,115.0
428,108.00104779583333,108.64235124583332,41.0,106.0
429,108.87061179583333,109.34887199583332,58.0,120.0
430,108.87061179583333,109.35249517916667,62.0,109.0
431,109.30539379583333,109.57894413749999,53.0,91.0
432,108.87061179583333,110.20937803749999,46.0,110.0
433,109.74017579583332,110.24198668749999,58.0,123.0
434,109.74017579583332,110.2854648875,62.0,109.0
435,110.17495779583332,110.3235083125,53.0,109.0
436,110.60973979583333,111.06626089583332,58.0,113.0
437,110.60973979583333,111.13147819583332,62.0,109.0
438,111.04452179583333,111.2854634875,55.0,85.0
439,111.47930379583333,111.6553906625,55.0,106.0
440,111.47930379583333,111.96789071458333,58.0,120.0
441,111.47930379583333,111.99289071874999,62.0,109.0
442,111.90896213333333,112.06074787291666,55.0,112.0
443,110.60973979583333,112.10896216666666,43.0,104.0
444,112.33753363333332,112.56789081458332,57.0,106.0
445,112.33753363333332,112.85539086249999,62.0,109.0
446,112.33753363333332,112.86074800624999,65.0,106.0
447,112.76610513333333,112.96789088125,57.0,96.0
448,112.33753363333332,113.34646237291666,50.0,106.0
449,113.19467663333333,113.36431951875,57.0,115.0
450,113.19467663333333,113.50360525625,62.0,115.0
451,113.19467663333333,113.65003385208333,65.0,112.0
452,114.05181963333332,114.94646263958333,58.0,110.0
453,114.05181963333332,114.96074835625,39.0,110.0
454,114.05181963333332,114.99646264791666,63.0,99.0
455,114.48039113333333,114.9982483625,46.0,63.0
456,114.90896263333333,115.31789127291665,55.0,109.0
457,115.12324838333333,115.39110557083333,58.0,117.0
458,115.33753413333332,115.48931987291667,63.0,120.0
459,115.76610563333332,115.85896279166666,41.0,106.0
460,115.76610563333332,116.02146281875,53.0,101.0
461,115.76610563333332,116.07324854166666,57.0,109.0
462,116.62324863333333,116.93396297083333,53.0,85.0
463,116.62324863333333,116.95182011666667,60.0,87.0
464,116.62324863333333,117.02503441458333,69.0,106.0
465,116.62324863333333,117.05182013333332,65.0,94.0
466,117.48039163333333,117.72146310208333,58.0,104.0
467,117.48039163333333,118.16610603333332,62.0,109.0
468,117.90896313333333,118.38932035625,58.0,74.0
469,118.33753463333332,118.89289186875,65.0,109.0
470,118.33753463333332,119.01967760416666,62.0,106.0
471,118.76610613333332,119.06610618333333,58.0,29.0
472,119.19467763333333,119.66253485416667,65.0,99.0
473,119.19467763333333,119.680392,62.0,101.0
474,119.62324913333333,119.78753487499999,58.0,3.0
475,120.05182063333334,120.16610636666667,58.0,110.0
476,120.05182063333334,120.47860641874999,62.0,112.0
477,120.48039213333332,120.76789218124999,58.0,83.0
478,120.05182063333334,120.78932075624999,65.0,112.0
479,117.48039163333333,120.80717790208332,46.0,120.0
480,120.90896363333333,121.158963675,58.0,113.0
481,120.90896363333333,121.67682090416666,63.0,113.0
482,121.33753513333333,121.68574947708333,58.0,66.0
483,121.76610663333332,121.930392375,58.0,83.0
484,121.76610663333332,122.2411067125,65.0,106.0
485,121.76610663333332,122.49467818333332,63.0,110.0
486,122.19467813333333,122.70539250416667,58.0,93.0
487,122.62324963333333,123.15360686458332,67.0,112.0
488,122.62324963333333,123.3768211875,63.0,101.0
489,123.05182113333333,123.39110690416666,58.0,28.0
490,120.90896363333333,123.70896409999999,46.0,110.0
491,123.48039263333332,123.74824982083332,58.0,113.0
492,123.48039263333332,124.30003562708333,63.0,113.0
493,123.90896413333333,124.33396420416666,58.0,107.0
494,124.33753563333333,124.57860710208332,58.0,104.0
495,124.33753563333333,125.02325003333333,62.0,109.0
496,124.76610713333332,125.24646435624999,58.0,74.0
497,125.19467863333333,125.75003586874999,65.0,109.0
498,125.19467863333333,125.87682160416666,62.0,106.0
499,125.62325013333333,125.92325018333332,58.0,29.0
500,126.05182163333333,126.51967885416666,65.0,99.0
501,126.05182163333333,126.53753599999999,62.0,101.0
502,126.48039313333332,126.644678875,58.0,3.0
503,126.90896463333333,127.02325036666666,58.0,110.0
504,126.90896463333333,127.33575041875,62.0,112.0
505,127.33753613333333,127.62503618125,58.0,83.0
506,126.90896463333333,127.64646475625,65.0,112.0
507,124.33753563333333,127.66432190208333,46.0,120.0
508,127.76610763333332,128.24825057083333,58.0,104.0
509,127.76610763333332,128.3339648708333,63.0,101.0
510,128.19467913333332,128.50182204166666,55.0,91.0
511,128.62325063333333,129.11253642916665,58.0,123.0
512,127.76610763333332,129.24646502291665,46.0,104.0
513,129.05182213333333,129.29825074583334,55.0,109.0
514,128.62325063333333,129.57325079166665,63.0,113.0
515,129.48039363333334,129.72325081666665,53.0,106.0
516,129.48039363333334,129.966108,57.0,106.0
517,129.90896513333334,130.25003661875,53.0,104.0
518,129.48039363333334,130.65003668541667,41.0,106.0
519,130.33753663333334,130.86967957916667,57.0,115.0
520,130.33753663333334,130.89289386874998,65.0,106.0
521,130.76610813333332,130.97503673958332,53.0,112.0
522,131.19467963333332,131.82146545208332,58.0,104.0
523,131.19467963333332,132.06075120625,62.0,109.0
524,131.8375368833333,132.45360841458333,55.0,94.0
525,132.05182263333333,132.54467985833332,58.0,120.0
526,132.26610838333332,132.60717986875,62.0,109.0
527,131.62325113333333,132.70182274166666,50.0,69.0
528,131.19467963333332,132.77146561041667,43.0,104.0
529,132.69467988333332,133.2339656875,55.0,104.0
530,132.48039413333333,133.37325142499998,67.0,112.0
531,133.33753713333334,133.7982514958333,50.0,58.0
532,133.76610863333332,134.04468010833332,58.0,120.0
533,133.76610863333332,134.26075157291666,62.0,115.0
534,132.90896563333334,134.316108725,43.0,104.0
535,133.98039438333333,134.316108725,50.0,99.0
536,134.40896588333334,134.51432304374998,58.0,117.0
537,134.19468013333332,134.5196801875,55.0,112.0
538,134.62325163333333,135.01968027083333,53.0,106.0
539,134.62325163333333,135.11253742916665,57.0,112.0
540,135.26610888333332,135.73932324791667,53.0,112.0
541,135.48039463333333,135.75182325,60.0,109.0
542,135.69468038333332,136.04289472708334,57.0,109.0
543,134.62325163333333,136.20896618333333,41.0,106.0
544,135.05182313333333,136.22503761458333,48.0,67.0
545,135.90896613333334,136.27146619375,65.0,109.0
546,136.33753763333334,136.83039485833334,57.0,109.0
547,136.33753763333334,136.86610915,60.0,104.0
548,136.12325188333332,136.91968058749998,53.0,106.0
549,136.76610913333332,137.34289494375,48.0,58.0
550,137.19468063333332,137.3482520875,53.0,106.0
551,136.33753763333334,137.37325209166667,41.0,101.0
552,137.19468063333332,137.39646638124998,57.0,118.0
553,137.19468063333332,137.41432352708333,60.0,115.0
554,137.19468063333332,137.50539497083332,65.0,104.0
555,137.62325213333332,137.7553950125,41.0,101.0
556,138.05182363333333,138.47146656041667,58.0,107.0
557,138.48039513333333,138.98039521666666,55.0,101.0
558,138.90896663333334,139.12146666875,63.0,123.0
559,138.69468088333332,139.18039525,58.0,113.0
560,138.05182363333333,139.62146675208334,39.0,110.0
561,139.12325238333332,139.68039533333334,67.0,109.0
562,139.33753813333334,139.68932390625,63.0,120.0
563,139.55182388333333,139.71789533958332,55.0,109.0
564,138.26610938333332,139.73039534166665,46.0,99.0
565,139.76610963333331,140.00182395833332,55.0,85.0
566,139.76610963333331,140.40718116875,58.0,117.0
567,139.76610963333331,140.4553954625,63.0,99.0
568,140.19468113333332,140.50360975625,55.0,89.0
569,139.76610963333331,140.76432408541666,39.0,113.0
570,140.62325263333332,140.78396694583333,55.0,106.0
571,140.62325263333332,141.05896699166667,67.0,106.0
572,140.62325263333332,141.08396699583332,63.0,113.0
573,140.62325263333332,141.087538425,58.0,120.0
574,141.05182413333333,141.21432416041665,55.0,94.0
575,141.48039563333333,141.901824275,53.0,101.0
576,141.48039563333333,141.98575286041665,57.0,101.0
577,142.33753863333334,142.63396725416666,65.0,109.0
578,141.90896713333333,142.70718155208334,48.0,48.0
579,141.48039563333333,142.93396730416666,41.0,101.0
580,142.55182438333333,143.01432446041667,53.0,115.0
581,142.7661101333333,143.16253877083332,57.0,104.0
582,142.98039588333333,143.68218171458332,60.0,106.0
583,143.62325313333332,143.75361029791665,53.0,89.0
584,143.83753888333334,143.93218175625,57.0,106.0
585,143.40896738333333,143.94289604375,48.0,71.0
586,143.19468163333332,143.98218176458334,41.0,104.0
587,144.05182463333333,144.34289611041666,53.0,104.0
588,144.05182463333333,144.7268247458333,57.0,106.0
589,144.05182463333333,144.74468189166666,60.0,104.0
590,144.48039613333333,144.74825332083333,53.0,109.0
591,144.05182463333333,144.76075332291666,41.0,109.0
592,144.05182463333333,144.7625390375,48.0,99.0
593,144.90896763333333,145.33218198958332,62.0,106.0
594,144.90896763333333,145.43218200625,58.0,110.0
595,145.33753913333334,145.6321820395833,53.0,66.0
596,145.7661106333333,146.24825357083333,58.0,120.0
597,145.7661106333333,146.35182501666665,62.0,109.0
598,144.90896763333333,146.65003935208333,46.0,110.0
599,146.19468213333334,146.70896793333333,53.0,109.0
600,146.62325363333332,147.06253942083333,62.0,106.0
601,146.62325363333332,147.16432515208334,57.0,112.0
602,147.05182513333332,147.50718235208333,53.0,91.0
603,147.48039663333333,147.83932526458332,57.0,115.0
604,147.48039663333333,147.9946824333333,62.0,109.0
605,146.62325363333332,148.00361100625,45.0,104.0
606,147.90896813333333,148.03932529791666,53.0,89.0
607,148.33753963333334,148.68039683333333,62.0,106.0
608,148.33753963333334,148.7482539875,58.0,110.0
609,148.7661111333333,149.26432550208332,55.0,67.0
610,149.19468263333334,149.68396842916667,62.0,109.0
611,149.19468263333334,149.69468271666665,58.0,120.0
612,148.33753963333334,149.95718276041666,43.0,101.0
613,149.62325413333332,150.11432564375,55.0,96.0
614,150.05182563333332,150.53575428541666,62.0,106.0
615,150.05182563333332,150.55182571666666,58.0,117.0
616,150.48039713333333,150.9661115,53.0,101.0
617,150.05182563333332,151.22861154375,43.0,109.0
618,150.90896863333333,151.39646871458334,58.0,120.0
619,150.90896863333333,151.43575443541667,62.0,106.0
620,151.33754013333333,151.56075445624998,53.0,104.0
621,151.7661116333333,152.25896885833333,58.0,110.0
622,151.7661116333333,152.30896886666665,63.0,101.0
623,151.7661116333333,152.62146891875,39.0,110.0
624,152.19468313333334,152.66254035416665,46.0,58.0
625,152.62325463333332,153.07861185208333,63.0,117.0
626,152.62325463333332,153.09289756875,58.0,120.0
627,153.05182613333332,153.24289759375,55.0,118.0
628,153.48039763333333,153.89289770208333,57.0,106.0
629,153.48039763333333,154.22682632916667,53.0,109.0
630,154.33754063333333,154.47146922708333,57.0,118.0
631,153.90896913333333,154.77504070625,48.0,61.0
632,153.48039763333333,154.80896928333334,41.0,106.0
633,154.33754063333333,154.83575500208332,60.0,104.0
634,154.76611213333334,155.21611220833333,53.0,112.0
635,155.19468363333334,155.66432656875,62.0,106.0
636,155.19468363333334,155.69646943125,58.0,107.0
637,155.62325513333332,156.03575520208332,53.0,82.0
638,155.19468363333334,156.10361235624998,46.0,117.0
639,156.05182663333332,156.47504098958333,62.0,109.0
640,156.05182663333332,156.55718386041667,58.0,120.0
641,156.48039813333332,156.97861250208334,53.0,109.0
642,156.90896963333333,157.40182685833332,63.0,101.0
643,156.90896963333333,157.41789828958332,58.0,117.0
644,157.33754113333333,157.630398325,53.0,85.0
645,157.76611263333334,157.96075552291666,53.0,115.0
646,157.76611263333334,158.45361274791665,62.0,112.0
647,157.76611263333334,158.47861275208334,58.0,120.0
648,158.19468413333334,158.55182704999999,53.0,115.0
649,156.90896963333333,158.57146991041665,46.0,91.0
650,158.62325563333332,159.04646998958333,62.0,106.0
651,158.62325563333332,159.14647000624998,58.0,110.0
652,159.05182713333332,159.34647003958332,53.0,66.0
653,159.48039863333332,159.96254157083334,58.0,120.0
654,159.48039863333332,160.06611301666666,62.0,109.0
655,158.62325563333332,160.36432735208334,46.0,110.0
656,159.90897013333333,160.42325593333334,53.0,109.0
657,160.33754163333333,160.77682742083334,62.0,106.0
658,160.33754163333333,160.87861315208332,57.0,112.0
659,160.76611313333333,161.22147035208332,53.0,91.0
660,161.19468463333334,161.55361326458333,57.0,115.0
661,161.19468463333334,161.70897043333332,62.0,109.0
662,160.33754163333333,161.71789900624998,45.0,104.0
663,161.6232561333333,161.75361329791667,53.0,89.0
664,162.05182763333332,162.39468483333332,62.0,106.0
665,162.05182763333332,162.4625419875,58.0,110.0
666,162.48039913333332,162.97861350208333,55.0,67.0
667,162.90897063333333,163.39825642916665,62.0,109.0
668,162.90897063333333,163.40897071666666,58.0,120.0
669,162.05182763333332,163.67147076041667,43.0,101.0
670,163.33754213333333,163.82861364375,55.0,96.0
671,163.76611363333333,164.25004228541667,62.0,106.0
672,163.76611363333333,164.26611371666667,58.0,117.0
673,164.19468513333334,164.6803995,53.0,101.0
674,163.76611363333333,164.94289954375,43.0,109.0
675,164.6232566333333,165.11075671458332,58.0,120.0
676,164.6232566333333,165.15004243541665,62.0,106.0
677,165.05182813333334,165.27504245625,53.0,104.0
678,165.48039963333332,165.97325685833334,58.0,110.0
679,165.48039963333332,166.02325686666666,63.0,101.0
680,165.48039963333332,166.33575691875,39.0,110.0
681,165.90897113333332,166.37682835416666,46.0,58.0
682,166.33754263333333,166.79289985208334,63.0,117.0
683,166.33754263333333,166.80718556875,58.0,120.0
684,166.76611413333333,166.95718559375,55.0,118.0
685,167.19468563333334,167.6071857020833,57.0,106.0
686,167.19468563333334,167.94111432916665,53.0,109.0
687,168.05182863333334,168.18575722708334,57.0,118.0
688,167.6232571333333,168.48932870624998,48.0,61.0
689,167.19468563333334,168.52325728333332,41.0,106.0
690,168.05182863333334,168.55004300208333,60.0,104.0
691,168.48040013333332,168.9304002083333,53.0,112.0
692,168.90897163333332,169.37861456874998,62.0,106.0
693,168.90897163333332,169.41075743124998,58.0,107.0
694,169.33754313333333,169.75004320208333,53.0,82.0
695,168.90897163333332,169.81790035625,46.0,117.0
696,169.76611463333333,170.18932898958332,62.0,109.0
697,169.76611463333333,170.27147186041665,58.0,120.0
698,170.19468613333333,170.69290050208332,53.0,109.0
699,170.6232576333333,170.92325768333333,63.0,101.0
700,170.6232576333333,170.93932911458333,58.0,117.0
701,171.05182913333334,171.344686325,65.0,85.0
702,171.05182913333334,171.35182918333334,63.0,101.0
703,171.05182913333334,171.36790061458333,58.0,117.0
704,171.48040063333332,171.67504352291667,53.0,115.0
705,171.48040063333332,171.67504352291667,65.0,115.0
706,171.48040063333332,172.16790074791666,62.0,112.0
707,171.48040063333332,172.19290075208332,70.0,120.0
708,171.90897213333332,172.26611505,53.0,115.0
709,171.90897213333332,172.26611505,65.0,115.0
710,170.6232576333333,172.28575791041666,46.0,91.0
711,172.33754363333333,172.76075798958334,65.0,104.0
712,172.33754363333333,172.79468656666666,74.0,109.0
713,172.33754363333333,173.05897232499998,70.0,99.0
714,173.19468663333333,173.24825807083334,58.0,88.0
715,172.33754363333333,173.56432955208334,46.0,120.0
716,173.19468663333333,173.68218671458334,62.0,115.0
717,173.19468663333333,173.88040103333333,65.0,112.0
718,173.62325813333334,173.94468675833332,46.0,97.0
719,173.62325813333334,173.96790104791665,58.0,113.0
720,174.05182963333334,174.53040114166666,62.0,106.0
721,174.05182963333334,174.56790114791664,65.0,109.0
722,174.48040113333332,175.00897265,57.0,94.0
723,174.05182963333334,175.23040125833333,45.0,101.0
724,172.76611513333333,175.31254412916667,53.0,78.0
725,174.90897263333332,175.34825842083333,74.0,118.0
726,175.33754413333332,175.55004416875,57.0,112.0
727,174.90897263333332,175.70718705208333,65.0,112.0
728,175.76611563333333,176.2054014208333,39.0,110.0
729,175.76611563333333,176.20718713541666,58.0,107.0
730,175.76611563333333,176.22682999583333,63.0,117.0
731,176.19468713333333,176.45183003333332,55.0,109.0
732,176.40897288333332,176.51611575833334,39.0,97.0
733,176.6232586333333,176.8625443875,65.0,115.0
734,176.6232586333333,177.06254442083332,57.0,115.0
735,177.05183013333334,177.23397302083333,53.0,115.0
736,176.6232586333333,177.25540159583335,41.0,106.0
737,177.26611588333333,177.37325875833332,53.0,97.0
738,177.48040163333332,177.95183028333332,58.0,120.0
739,177.48040163333332,177.9554017125,62.0,109.0
740,177.90897313333335,178.17861603541667,53.0,91.0
741,177.48040163333332,178.80004471041667,46.0,110.0
742,178.33754463333332,178.83218757291667,70.0,123.0
743,178.33754463333332,178.87504472291664,62.0,109.0
744,178.76611613333333,178.91254472916665,53.0,109.0
745,179.19468763333333,179.64468770833332,58.0,113.0
746,179.19468763333333,179.7089734333333,62.0,109.0
747,179.6232591333333,179.86075917291666,55.0,85.0
748,180.05183063333334,180.2268306625,55.0,106.0
749,180.05183063333334,180.53933071458334,70.0,120.0
750,180.05183063333334,180.56433071875,62.0,109.0
751,180.4804021333333,180.63218787291666,55.0,112.0
752,179.19468763333333,180.68040216666668,43.0,104.0
753,180.90897363333335,181.13933081458333,57.0,106.0
754,180.90897363333335,181.4268308625,62.0,109.0
755,180.90897363333335,181.43218800625,65.0,106.0
756,181.33754513333332,181.53933088125,57.0,96.0
757,180.90897363333335,181.91790237291667,50.0,106.0
758,181.76611663333333,181.93575951875,69.0,115.0
759,181.76611663333333,182.07504525625,62.0,115.0
760,181.76611663333333,182.2214738520833,65.0,112.0
761,182.19468813333333,182.62325963333333,38.0,97.0
762,182.62325963333333,182.84647395625,39.0,107.0
763,182.62325963333333,183.04825970416667,58.0,120.0
764,182.62325963333333,183.09290256875,63.0,117.0
765,183.05183113333334,183.2125454458333,55.0,118.0
766,183.26611688333332,183.4804026333333,39.0,97.0
767,183.4804026333333,183.6982598125,57.0,109.0
768,183.4804026333333,183.96254557083333,60.0,109.0
769,183.4804026333333,183.97861700208333,65.0,94.0
770,183.90897413333334,184.07683130416666,57.0,112.0
771,183.4804026333333,184.12325988333333,41.0,109.0
772,183.90897413333334,184.12325988333333,53.0,97.0
773,184.33754563333332,184.78040284999997,58.0,113.0
774,184.33754563333332,184.801831425,62.0,106.0
775,184.76611713333332,185.03754575,53.0,106.0
776,185.19468863333333,185.38397437916666,53.0,115.0
777,185.19468863333333,185.98040305,58.0,123.0
778,185.19468863333333,185.98754590833335,62.0,112.0
779,184.33754563333332,185.9911173375,46.0,117.0
780,185.62326013333333,186.00361733958334,53.0,115.0
781,186.05183163333334,186.47504598958332,65.0,104.0
782,186.05183163333334,186.50897456666667,62.0,109.0
783,186.05183163333334,186.773260325,58.0,99.0
784,186.90897463333334,187.12326038333333,70.0,88.0
785,186.90897463333334,187.39647471458335,62.0,115.0
786,186.90897463333334,187.59468903333334,65.0,112.0
787,187.33754613333332,187.68218904791667,58.0,113.0
788,186.05183163333334,187.78040335,46.0,120.0
789,187.76611763333332,188.24468914166664,62.0,106.0
790,187.76611763333332,188.28218914791665,65.0,109.0
791,188.19468913333333,188.72326065,57.0,94.0
792,186.4804031333333,189.02683212916668,53.0,78.0
793,187.76611763333332,189.03576070208334,45.0,101.0
794,188.62326063333333,189.0625464208333,70.0,118.0
795,189.05183213333333,189.26433216875,57.0,112.0
796,188.62326063333333,189.42147505208334,65.0,112.0
797,189.4804036333333,189.91968942083332,39.0,110.0
798,189.4804036333333,189.92147513541664,58.0,107.0
799,189.4804036333333,189.94111799583334,63.0,117.0
800,189.90897513333334,190.16611803333333,55.0,109.0
801,190.12326088333333,190.23040375833332,39.0,97.0
802,190.33754663333332,190.5768323875,53.0,115.0
803,190.33754663333332,190.77683242083333,57.0,115.0
804,190.33754663333332,190.87326100833332,41.0,106.0
805,190.76611813333332,190.94826102083334,53.0,115.0
806,191.19468963333333,191.66611828333333,58.0,120.0
807,191.19468963333333,191.66968971249997,62.0,109.0
808,191.62326113333333,191.89290403541668,53.0,91.0
809,191.19468963333333,192.51433271041668,46.0,110.0
810,192.05183263333333,192.54647557291668,58.0,123.0
811,192.05183263333333,192.54647557291668,65.0,123.0
812,192.05183263333333,192.58933272291665,62.0,109.0
813,192.4804041333333,192.62683272916667,53.0,109.0
814,192.90897563333334,193.35897570833333,58.0,113.0
815,192.90897563333334,193.42326143333332,62.0,109.0
816,193.33754713333332,193.57504717291664,55.0,85.0
817,193.76611863333332,193.9411186625,55.0,106.0
818,193.76611863333332,194.25361871458333,58.0,120.0
819,193.76611863333332,194.25361871458333,65.0,120.0
820,193.76611863333332,194.27861871875,62.0,109.0
821,194.19469013333332,194.34647587291664,55.0,112.0
822,192.90897563333334,194.39469016666666,43.0,104.0
823,194.62326163333333,194.85361881458334,57.0,106.0
824,194.62326163333333,195.14111886249998,62.0,109.0
825,195.05183313333333,195.25361888125,57.0,96.0
826,194.62326163333333,195.63219037291668,50.0,106.0
827,195.4804046333333,195.65004751875,57.0,115.0
828,195.4804046333333,195.78933325625,62.0,115.0
829,195.4804046333333,195.93576185208332,65.0,112.0
830,196.33754763333332,197.23219063958334,58.0,110.0
831,196.33754763333332,197.24647635625,39.0,110.0
832,196.33754763333332,197.28219064791665,63.0,99.0
833,196.76611913333335,197.2839763625,46.0,63.0
834,197.19469063333332,197.60361927291666,55.0,109.0
835,197.4089763833333,197.6768335708333,58.0,117.0
836,197.62326213333333,197.77504787291667,63.0,120.0
837,198.05183363333333,198.30719081874997,53.0,101.0
838,198.05183363333333,198.35897654166666,57.0,109.0
839,198.90897663333334,199.2196909708333,53.0,85.0
840,198.90897663333334,199.23754811666666,60.0,87.0
841,198.90897663333334,199.31076241458334,69.0,106.0
842,198.90897663333334,199.3375481333333,65.0,94.0
843,198.05183363333333,199.44469100833334,41.0,106.0
844,199.76611963333335,200.03754825,58.0,99.0
845,199.76611963333335,200.18754827499998,62.0,112.0
846,199.76611963333335,200.23397685416666,65.0,104.0
847,199.76611963333335,200.62326263333333,46.0,107.0
848,200.62326263333333,200.79111980416667,58.0,110.0
849,200.62326263333333,201.02147698541665,62.0,109.0
850,201.05183413333333,201.13576271875,58.0,110.0
851,200.62326263333333,201.15004843541666,65.0,109.0
852,200.62326263333333,201.37326275833334,46.0,97.0
853,201.48040563333333,201.91969142083332,53.0,112.0
854,201.48040563333333,201.9679057145833,57.0,112.0
855,202.12326288333333,202.61076296458333,53.0,115.0
856,202.3375486333333,202.6214772520833,57.0,118.0
857,201.48040563333333,202.76612013333335,41.0,109.0
858,202.76612013333335,202.8732630083333,43.0,97.0
859,201.90897713333334,202.92862016041664,48.0,104.0
860,202.98040588333333,203.08754875833333,45.0,97.0
861,202.76612013333335,203.20362020624998,57.0,104.0
862,202.55183438333333,203.24469164166666,60.0,112.0
863,202.98040588333333,203.25004878541665,53.0,115.0
864,202.76612013333335,203.25004878541665,65.0,115.0
865,203.19469163333332,203.25004878541665,65.0,104.0
866,203.19469163333332,203.65183456666665,62.0,109.0
867,203.19469163333332,203.916120325,58.0,99.0
868,204.05183463333333,204.37326325833334,58.0,88.0
869,204.05183463333333,204.53933471458333,62.0,115.0
870,204.05183463333333,204.73754903333332,65.0,112.0
871,204.48040613333333,204.82504904791665,58.0,113.0
872,203.19469163333332,204.92326335,46.0,120.0
873,204.90897763333334,205.3375491333333,70.0,97.0
874,204.90897763333334,205.38754914166668,62.0,106.0
875,204.90897763333334,205.42504914791667,65.0,109.0
876,205.3375491333333,205.86612065,57.0,94.0
877,204.90897763333334,206.08754925833333,45.0,101.0
878,203.62326313333332,206.16969212916666,53.0,78.0
879,205.76612063333334,206.20540642083333,62.0,118.0
880,206.19469213333332,206.40719216875,57.0,112.0
881,206.19469213333332,206.51612075833333,45.0,97.0
882,205.76612063333334,206.56433505208332,65.0,112.0
883,206.62326363333332,207.0625494208333,39.0,110.0
884,206.62326363333332,207.06433513541666,58.0,107.0
885,206.62326363333332,207.08397799583332,63.0,117.0
886,207.05183513333333,207.30897803333335,55.0,109.0
887,207.48040663333333,207.7196923875,53.0,115.0
888,207.48040663333333,207.91969242083331,57.0,115.0
889,207.90897813333333,208.09112102083333,53.0,115.0
890,207.48040663333333,208.11254959583334,41.0,106.0
891,208.3375496333333,208.80897828333332,58.0,120.0
892,208.3375496333333,208.81254971250002,62.0,109.0
893,208.76612113333334,209.03576403541666,53.0,91.0
894,209.19469263333332,209.62326413333332,65.0,97.0
895,208.3375496333333,209.65719271041667,46.0,110.0
896,209.19469263333332,209.68933557291666,58.0,123.0
897,209.19469263333332,209.73219272291666,62.0,109.0
898,209.62326413333332,209.76969272916665,53.0,109.0
899,210.05183563333333,210.50183570833332,58.0,113.0
900,210.05183563333333,210.5661214333333,62.0,109.0
901,210.48040713333333,210.71790717291668,55.0,85.0
902,210.90897863333333,211.0839786625,55.0,106.0
903,210.90897863333333,211.39647871458334,58.0,120.0
904,210.90897863333333,211.42147871875,62.0,109.0
905,210.90897863333333,211.44469300833333,65.0,97.0
906,211.3375501333333,211.48933587291666,55.0,112.0
907,210.05183563333333,211.53755016666668,43.0,104.0
908,211.76612163333334,211.99647881458333,57.0,106.0
909,211.76612163333334,212.2839788625,62.0,109.0
910,212.19469313333332,212.39647888125,57.0,96.0
911,212.62326463333332,212.79290751874998,57.0,115.0
912,211.76612163333334,212.83755038333334,50.0,106.0
913,212.62326463333332,212.93219325625,62.0,115.0
914,212.62326463333332,213.07862185208333,65.0,112.0
915,213.2661218833333,213.48040763333333,38.0,97.0
916,213.48040763333333,213.90540770416666,58.0,120.0
917,213.48040763333333,213.95005056875,63.0,117.0
918,213.48040763333333,214.01612200833333,39.0,107.0
919,213.90897913333333,214.0696934458333,55.0,118.0
920,214.3375506333333,214.5554078125,57.0,109.0
921,214.3375506333333,214.81969357083332,60.0,109.0
922,214.3375506333333,214.83576500208332,65.0,94.0
923,214.3375506333333,214.8554078625,41.0,109.0
924,214.76612213333334,214.93397930416666,57.0,112.0
925,215.19469363333332,215.63755085,58.0,113.0
926,215.19469363333332,215.65897942499998,62.0,106.0
927,215.62326513333335,215.89469375,53.0,106.0
928,216.05183663333332,216.24112237916665,53.0,115.0
929,216.05183663333332,216.83755105,58.0,123.0
930,216.05183663333332,216.84469390833334,62.0,112.0
931,215.19469363333332,216.84826533749998,46.0,117.0
932,216.48040813333333,216.86076533958334,53.0,115.0
933,216.90897963333333,217.33219398958335,65.0,104.0
934,216.90897963333333,217.36612256666666,62.0,109.0
935,216.90897963333333,217.630408325,58.0,99.0
936,217.76612263333334,217.81969407083332,58.0,88.0
937,217.76612263333334,218.25362271458334,62.0,115.0
938,217.76612263333334,218.45183703333333,65.0,112.0
939,218.19469413333331,218.53933704791666,58.0,113.0
940,216.90897963333333,218.63755135,46.0,120.0
941,218.62326563333335,219.10183714166666,62.0,106.0
942,218.62326563333335,219.13933714791665,65.0,109.0
943,219.05183713333332,219.58040864999998,57.0,94.0
944,217.3375511333333,219.88398012916667,53.0,78.0
945,218.62326563333335,219.89290870208333,45.0,101.0
946,219.48040863333333,219.9196944208333,62.0,118.0
947,219.90898013333333,220.12148016875,57.0,112.0
948,219.48040863333333,220.27862305208333,65.0,112.0
949,220.33755163333333,220.77683742083332,39.0,110.0
950,220.33755163333333,220.77862313541667,58.0,107.0
951,220.33755163333333,220.79826599583333,63.0,117.0
952,220.76612313333334,221.02326603333333,55.0,109.0
953,221.1946946333333,221.43398038750001,53.0,115.0
954,221.1946946333333,221.63398042083332,57.0,115.0
955,221.62326613333335,221.80540902083334,53.0,115.0
956,221.1946946333333,221.82683759583333,41.0,106.0
957,222.05183763333332,222.52326628333333,58.0,120.0
958,222.05183763333332,222.5268377125,62.0,109.0
959,222.48040913333332,222.75005203541667,53.0,91.0
960,222.90898063333333,223.23040925833334,65.0,97.0
961,222.05183763333332,223.37148071041668,46.0,110.0
962,222.90898063333333,223.40362357291667,58.0,123.0
963,222.90898063333333,223.44648072291665,62.0,109.0
964,223.33755213333333,223.48398072916666,53.0,109.0
965,223.76612363333334,224.21612370833333,58.0,113.0
966,223.76612363333334,224.28040943333332,62.0,109.0
967,224.1946951333333,224.43219517291666,55.0,85.0
968,224.62326663333334,224.7982666625,55.0,106.0
969,224.62326663333334,224.83755238333333,65.0,97.0
970,224.62326663333334,225.11076671458335,58.0,120.0
971,224.62326663333334,225.13576671875,62.0,109.0
972,225.05183813333332,225.20362387291667,55.0,112.0
973,223.76612363333334,225.25183816666666,43.0,104.0
974,225.48040963333332,225.71076681458334,57.0,106.0
975,225.48040963333332,225.99826686249997,62.0,109.0
976,225.90898113333333,226.11076688125002,57.0,96.0
977,225.48040963333332,226.48933837291668,50.0,106.0
978,226.33755263333333,226.50719551875,57.0,115.0
979,226.33755263333333,226.64648125625,62.0,115.0
980,226.33755263333333,226.7929098520833,65.0,112.0
981,227.1946956333333,228.08933863958333,58.0,110.0
982,227.1946956333333,228.10362435625,39.0,110.0
983,227.1946956333333,228.13933864791665,63.0,99.0
984,227.62326713333334,228.1411243625,46.0,63.0
985,228.05183863333332,228.46076727291666,55.0,109.0
986,228.26612438333333,228.53398157083333,58.0,117.0
987,228.48041013333332,228.63219587291667,63.0,120.0
988,228.90898163333333,229.16433881875,53.0,101.0
989,228.90898163333333,229.21612454166666,57.0,109.0
990,228.90898163333333,229.98041038333332,41.0,106.0
991,229.76612463333333,230.0768389708333,53.0,85.0
992,229.76612463333333,230.09469611666665,60.0,87.0
993,229.76612463333333,230.16791041458333,69.0,106.0
994,229.76612463333333,230.1946961333333,65.0,94.0
995,230.62326763333334,230.8643391020833,58.0,104.0
996,230.62326763333334,231.30898203333334,62.0,109.0
997,231.05183913333332,231.53219635624998,58.0,74.0
998,231.48041063333332,232.03576786874999,65.0,109.0
999,231.48041063333332,232.16255360416665,62.0,106.0
1000,231.90898213333332,232.20898218333332,58.0,29.0
1001,232.33755363333333,232.80541085416667,65.0,99.0
1002,232.33755363333333,232.82326799999998,62.0,101.0
1003,232.76612513333333,232.930410875,58.0,3.0
1004,233.1946966333333,233.30898236666667,58.0,110.0
1005,233.1946966333333,233.62148241875,62.0,112.0
1006,233.62326813333334,233.91076818124998,58.0,83.0
1007,233.1946966333333,233.93219675625,65.0,112.0
1008,230.62326763333334,233.9500539020833,46.0,120.0
1009,234.05183963333332,234.301839675,58.0,113.0
1010,234.05183963333332,234.81969690416668,63.0,113.0
1011,234.48041113333335,234.82862547708334,58.0,66.0
1012,234.90898263333332,235.073268375,58.0,83.0
1013,234.90898263333332,235.3839827125,65.0,106.0
1014,234.90898263333332,235.63755418333332,63.0,110.0
1015,235.33755413333333,235.84826850416664,58.0,93.0
1016,235.76612563333333,236.2964828645833,67.0,112.0
1017,235.76612563333333,236.51969718750001,63.0,101.0
1018,236.1946971333333,236.53398290416666,58.0,28.0
1019,234.05183963333332,236.8518401,46.0,110.0
1020,236.62326863333334,236.89112582083334,58.0,113.0
1021,236.62326863333334,237.44291162708333,63.0,113.0
1022,237.05184013333331,237.47684020416665,58.0,107.0
1023,237.48041163333335,237.7214831020833,58.0,104.0
1024,237.48041163333335,238.16612603333334,62.0,109.0
1025,237.90898313333332,238.38934035625,58.0,74.0
1026,238.33755463333333,238.89291186875,65.0,109.0
1027,238.33755463333333,239.01969760416665,62.0,106.0
1028,238.76612613333333,239.06612618333332,58.0,29.0
1029,239.19469763333333,239.66255485416667,65.0,99.0
1030,239.19469763333333,239.680412,62.0,101.0
1031,239.62326913333334,239.787554875,58.0,3.0
1032,240.0518406333333,240.16612636666667,58.0,110.0
1033,240.0518406333333,240.47862641874997,62.0,112.0
1034,240.48041213333335,240.76791218124998,58.0,83.0
1035,240.0518406333333,240.78934075625,65.0,112.0
1036,237.48041163333335,240.80719790208332,46.0,120.0
1037,240.90898363333332,241.40205047083333,58.0,104.0
1038,240.90898363333332,241.49028567083332,63.0,101.0
1039,241.34690347083333,241.66307960416665,55.0,91.0
1040,241.7880794708333,242.31500259166666,58.0,123.0
1041,240.90898363333332,242.45923337291666,46.0,104.0
1042,242.2496179708333,242.5150026083333,55.0,109.0
1043,241.7880794708333,242.8159951875,63.0,113.0
1044,242.71115647083332,242.98535003749998,53.0,106.0
1045,242.71115647083332,243.25954360416665,57.0,106.0
1046,243.1950274708333,243.58010814166664,53.0,104.0
1047,242.71115647083332,244.04966076249997,41.0,106.0
1048,243.6788984708333,244.31025368749997,57.0,115.0
1049,243.6788984708333,244.33779602916664,65.0,106.0
1050,244.1873724708333,244.4352535458333,53.0,112.0
1051,245.3441508208333,246.01364158749996,58.0,91.0
1052,245.63440472916665,246.0687262708333,62.0,104.0
1053,246.01576022916663,246.17889563749998,65.0,106.0
1054,244.72550745416663,247.0475387208333,46.0,110.0
1055,245.10050702916664,247.07508106249998,53.0,37.0
1056,246.61109853749997,247.69160578749998,62.0,7.0
1057,246.48609867916664,247.8166056458333,65.0,85.0
1058,246.49669188749996,247.87169032916663,70.0,70.0
1059,247.9055885958333,250.96702580416664,46.0,23.0
1060,248.0327070958333,250.97973765416663,53.0,58.0
1061,248.03058845416663,251.1026188708333,62.0,76.0
1062,248.10474091249998,251.1089747958333,65.0,67.0
1063,248.26152039583332,251.13651713749996,74.0,27.0
