,start,end,pitch,velocity
0,29.5429606625,30.46020544583333,65.0,82.0
1,30.5846266625,30.87687184583333,67.0,73.0
2,30.9318486625,31.238561429166666,69.0,79.0
3,31.279070662499997,31.617612112499998,72.0,78.0
4,31.6262926625,32.21078302916666,62.0,79.0
5,32.320736662499996,32.6679586625,60.0,82.0
6,32.6679586625,33.0455625875,57.0,74.0
7,33.0151806625,34.404068662499995,60.0,73.0
8,34.404068662499995,34.67605922916667,60.0,79.0
9,34.7512906625,35.06668397916667,62.0,79.0
10,35.0985126625,35.99405607083333,65.0,74.0
11,36.1401786625,36.412169229166665,67.0,80.0
12,36.487400662499994,36.7781990875,69.0,76.0
13,36.834622662499996,37.09214564583333,72.0,79.0
14,37.1818446625,37.52761990416666,62.0,79.0
15,37.5290666625,37.8328859125,65.0,79.0
16,37.8762886625,40.10429649583333,67.0,72.0
17,40.6540646625,41.7044112125,65.0,77.0
18,41.6957306625,42.100822995833326,67.0,74.0
19,42.0429526625,42.41332279583333,69.0,77.0
20,42.3901746625,42.7373966625,72.0,77.0
21,42.7373966625,43.13814872083333,69.0,74.0
22,43.0846186625,43.45643555416666,67.0,73.0
23,43.431840662499994,43.933865804166665,65.0,78.0
24,44.1262846625,44.51401589583333,67.0,79.0
25,44.4735066625,44.781666187499994,64.0,72.0
26,44.8207286625,45.84358680416666,62.0,78.0
27,46.2096166625,46.5394775625,57.0,70.0
28,46.5568386625,46.9170814875,60.0,78.0
29,46.9040606625,47.2990256875,62.0,75.0
30,47.251282662499996,47.643354170833334,65.0,78.0
31,47.5985046625,48.02363634375,67.0,71.0
32,47.94572666249999,48.65800726041667,69.0,75.0
33,48.63782273125,48.993935495833334,62.0,78.0
34,48.98384323125,51.593414502083334,60.0,77.0
35,51.75200723125,52.66789031458333,65.0,82.0
36,52.79231153125,53.084556714583336,67.0,73.0
37,53.13953353125,53.446246297916666,69.0,79.0
38,53.486755531250004,53.82529698125,72.0,78.0
39,53.83397753125,54.41846789791667,62.0,79.0
40,54.528421531250004,54.87564353125,60.0,82.0
41,54.87564353125,55.25324745625,57.0,74.0
42,55.22286553125,56.61175353125,60.0,73.0
43,56.61175353125,56.88374409791667,60.0,79.0
44,56.958975531250005,57.27436884791667,62.0,79.0
45,57.30619753125,58.20174093958333,65.0,74.0
46,58.34786353125,58.619854097916665,67.0,80.0
47,58.69508553125,58.98588395625,69.0,76.0
48,59.04230753125,59.299830514583334,72.0,79.0
49,59.38952953125,59.73530477291667,62.0,79.0
50,59.73675153125,60.040570781250004,65.0,79.0
51,60.08397353125,62.31198136458333,67.0,72.0
52,62.86174953125,63.91209608125,65.0,77.0
53,63.903415531250005,64.30850786458333,67.0,74.0
54,64.25063753125,64.62100766458333,69.0,77.0
55,64.59785953125,64.94508153125,72.0,77.0
56,64.94508153125,65.34583358958334,69.0,74.0
57,65.29230353125,65.66412042291667,67.0,73.0
58,65.63952553125,66.14155067291667,65.0,78.0
59,66.33396953125,66.72170076458333,67.0,79.0
60,66.68119153125,66.98935105625,64.0,72.0
61,67.02841353125,68.05127167291667,62.0,78.0
62,68.41730153125,68.74716243125,57.0,70.0
63,68.76452353125,69.12476635625,60.0,78.0
64,69.11174553125,69.50671055625,62.0,75.0
65,69.45896753125,69.85103903958333,65.0,78.0
66,69.80618953125,70.23153648125,67.0,71.0
67,70.15341153125,70.86811014791667,69.0,75.0
68,70.84785553125,71.20520483958333,62.0,78.0
69,71.19507753125,73.81371011458333,65.0,77.0
70,73.97285353125,74.32296904791667,64.0,80.0
71,74.32007553125,74.68899890624999,67.0,78.0
72,74.66729753125,75.05358200625,60.0,82.0
73,75.01451953125,75.39646373125,62.0,80.0
74,75.36174153125,76.41353483958333,64.0,78.0
75,76.40340753125,76.69709947291666,67.0,68.0
76,76.75062953125,77.07470339791666,64.0,84.0
77,77.09785153125,77.47690221458333,62.0,79.0
78,77.44507353125,77.79229553125,60.0,78.0
79,77.79229553125,78.09513789791667,64.0,79.0
80,78.14009145,78.48811895,62.0,78.0
81,78.48811895,79.53220145,62.0,78.0
82,79.53220145,79.88457929375,65.0,79.0
83,79.88022895,80.23260679375,62.0,79.0
84,80.22825645,81.0026176375,65.0,80.0
85,80.92431145,81.27233895,67.0,80.0
86,81.27233895,81.61311587708333,69.0,78.0
87,81.62036645,82.04960036666667,65.0,74.0
88,81.96839395,82.3425235125,67.0,79.0
89,82.31642145,84.75116383541666,69.0,76.0
90,85.10064145,85.36601241875,72.0,79.0
91,85.44866895,86.13747337708334,72.0,82.0
92,86.14472395,86.51450316875,69.0,78.0
93,86.49275145,87.20330759583334,67.0,78.0
94,87.18880645,87.55278521041667,65.0,74.0
95,87.53683395,87.86310973125,67.0,78.0
96,87.88486145,88.22998872083333,64.0,77.0
97,88.23288895,88.62006954375,62.0,73.0
98,88.58091645,88.97099727291666,64.0,80.0
99,88.92894395,89.26392041875,67.0,77.0
100,89.27697145,90.4254622,62.0,78.0
101,90.66908145,91.03596043958333,57.0,79.0
102,91.01710895,91.36948679375,60.0,78.0
103,91.36513645,91.74651658541667,62.0,78.0
104,91.71316395,92.10179465833333,65.0,80.0
105,92.06119145,92.44837204375,67.0,75.0
106,92.40921895,92.75289610625,69.0,78.0
107,92.75724645,93.1313760125,64.0,79.0
108,93.10527395,93.48375385625,62.0,78.0
109,93.45330145,96.0722083875,60.0,78.0
110,96.23752145,97.15689409583334,65.0,82.0
111,97.28160395,97.57452709583333,67.0,73.0
112,97.62963145,97.93705574166667,69.0,79.0
113,97.97765895,98.3169857625,72.0,78.0
114,98.32568645,98.91153274166666,62.0,79.0
115,99.02174145000001,99.36976895000001,60.0,82.0
116,99.36976895000001,99.74824885625,57.0,74.0
117,99.71779645000001,101.10990645,60.0,73.0
118,101.10990645,101.38252799166666,60.0,79.0
119,101.45793395,101.77405892916667,62.0,79.0
120,101.80596145,102.70358237708334,65.0,74.0
121,102.85004395,103.12266549166667,67.0,80.0
122,103.19807145,103.48954448125,69.0,76.0
123,103.54609895,103.80421934583333,72.0,79.0
124,103.89412645,104.24070383541667,62.0,79.0
125,104.24215395,104.5466780125,65.0,79.0
126,104.59018145,106.82335790833334,67.0,72.0
127,107.37440145,108.4271846375,65.0,77.0
128,108.41848395,108.82451603333334,67.0,74.0
129,108.76651145,109.13774078333333,69.0,77.0
130,109.11453895,109.46256645,72.0,77.0
131,109.46256645,109.86424818958334,69.0,74.0
132,109.81059395,110.18327339791668,67.0,73.0
133,110.15862145,110.66181121041666,65.0,78.0
134,110.85467645,111.24330715833334,67.0,79.0
135,111.20270395,111.51157835625,64.0,72.0
136,111.55073145,112.57596246041666,62.0,78.0
137,112.94284145,113.27346757500001,57.0,70.0
138,113.29086895,113.65194748125,60.0,78.0
139,113.63889645,114.03477773125,62.0,75.0
140,113.98692395,114.37990500208333,65.0,78.0
141,114.33495145,114.76128513750001,67.0,71.0
142,114.68297895,115.39933555416667,69.0,75.0
143,115.37903395000001,115.73721225208334,62.0,78.0
144,115.72706145000001,118.35176884583333,65.0,77.0
145,132.40525959375,133.32250437708333,65.0,82.0
146,133.44692559375,133.73917077708333,67.0,73.0
147,133.79414759375,134.10086036041668,69.0,79.0
148,134.14136959375,134.47991104375,72.0,78.0
149,134.48859159375002,135.07308196041666,62.0,79.0
150,135.18303559375,135.53025759375,60.0,82.0
151,135.53025759375,135.90786151875,57.0,74.0
152,135.87747959375,137.26636759375,60.0,73.0
153,137.26636759375,137.53835816041666,60.0,79.0
154,137.61358959375,137.92898291041666,62.0,79.0
155,137.96081159375,138.85635500208335,65.0,74.0
156,139.00247759375,139.27446816041666,67.0,80.0
157,139.34969959375002,139.64049801875,69.0,76.0
158,139.69692159375,139.95444457708334,72.0,79.0
159,140.04414359375,140.38991883541667,62.0,79.0
160,140.39136559375,140.69518484375,65.0,79.0
161,140.73858759375,142.96659542708335,67.0,72.0
162,143.51636359375001,144.56671014375002,65.0,77.0
163,144.55802959375,144.96312192708334,67.0,74.0
164,144.90525159375,145.27562172708335,69.0,77.0
165,145.25247359375,145.59969559375,72.0,77.0
166,145.59969559375,146.00044765208332,69.0,74.0
167,145.94691759375002,146.31873448541666,67.0,73.0
168,146.29413959375,146.79616473541668,65.0,78.0
169,146.98858359375,147.37631482708335,67.0,79.0
170,147.33580559375,147.64396511875,64.0,72.0
171,147.68302759375,148.70588573541667,62.0,78.0
172,149.07191559375,149.40177649375,57.0,70.0
173,149.41913759375,149.77938041875,60.0,78.0
174,149.76635959375,150.16132461875,62.0,75.0
175,150.11358159375,150.50565310208333,65.0,78.0
176,150.46080359375,150.88615054375,67.0,71.0
177,150.80802559375002,151.52272421041667,69.0,75.0
178,151.50246959375,151.85981890208333,62.0,78.0
179,151.84969159375,154.46832417708333,60.0,77.0
180,154.62746759375,155.54471237708333,65.0,82.0
181,155.66913359375002,155.96137877708333,67.0,73.0
182,156.01635559375,156.32306836041667,69.0,79.0
183,156.36357759375,156.70211904375,72.0,78.0
184,156.71079959375,157.29528996041665,62.0,79.0
185,157.40524359375001,157.75246559375,60.0,82.0
186,157.75246559375,158.13006951875,57.0,74.0
187,158.09968759375,159.48857559375,60.0,73.0
188,159.48857559375,159.76056616041666,60.0,79.0
189,159.83579759375,160.15119091041666,62.0,79.0
190,160.18301959375,161.07856300208334,65.0,74.0
191,161.22468559375,161.49667616041665,67.0,80.0
192,161.57190759374998,161.86270601875,69.0,76.0
193,161.91912959375,162.17665257708333,72.0,79.0
194,162.26635159375002,162.61212683541666,62.0,79.0
195,162.61357359375,162.91739284375,65.0,79.0
196,162.96079559375,165.18880342708334,67.0,72.0
197,165.73922941875,166.79201260624998,65.0,77.0
198,166.78331191874997,167.18934400208332,67.0,74.0
199,167.13133941874997,167.50256875208333,69.0,77.0
200,167.47936691874997,167.82739441874998,72.0,77.0
201,167.82739441874998,168.22907615833333,69.0,74.0
202,168.17542191874998,168.54810136666666,67.0,73.0
203,168.52344941874998,169.02663917916666,65.0,78.0
204,169.21950441874998,169.60813512708333,67.0,79.0
205,169.56753191874998,169.87640632499998,64.0,72.0
206,169.91555941874998,170.94079042916667,62.0,78.0
207,171.30766941874998,171.63829554375,57.0,70.0
208,171.65569691874998,172.01677544999998,60.0,78.0
209,172.00372441874998,172.3996057,62.0,75.0
210,172.35175191874998,172.74473297083333,65.0,78.0
211,172.69977941874998,173.12611310625,67.0,71.0
212,173.04780691874998,173.76416352291665,69.0,75.0
213,173.74386191874999,174.10204022083332,62.0,78.0
214,174.09188941875,176.7165968145833,65.0,77.0
215,176.87610941875,177.22703714791666,64.0,80.0
216,177.22413691875,177.5939161375,67.0,78.0
217,177.57216441875,177.9593450125,60.0,82.0
218,177.92019191875,178.30302216874998,62.0,80.0
219,178.26821941875,179.32245272083333,64.0,78.0
220,179.31230191875,179.60667517916664,67.0,68.0
221,179.66032941875,179.98515508541666,64.0,84.0
222,180.00835691875,180.3882869395833,62.0,79.0
223,180.35638441875,180.70441191875,60.0,78.0
224,180.70441191875,181.00748586666666,64.0,79.0
225,181.05243941875,181.40046691875,62.0,78.0
226,181.40046691875,182.44454941875,62.0,78.0
227,182.44454941875,182.7969272625,65.0,79.0
228,182.79257691875,183.1449547625,62.0,79.0
229,183.14060441875,183.91496560624998,65.0,80.0
230,183.83665941875,184.18468691875,67.0,80.0
231,184.18468691875,184.52546384583331,69.0,78.0
232,184.53271441875,184.96194833541665,65.0,74.0
233,184.88074191874998,185.25487148124998,67.0,79.0
234,185.22876941874998,187.66351180416666,69.0,76.0
235,188.01298941874998,188.2783603875,72.0,79.0
236,188.36101691874998,189.04982134583332,72.0,82.0
237,189.05707191874998,189.4268511375,69.0,78.0
238,189.40509941874998,190.11565556458334,67.0,78.0
239,190.10115441874999,190.46513317916666,65.0,74.0
240,190.44918191874999,190.7754577,67.0,78.0
241,190.79720941875,191.14233668958332,64.0,77.0
242,191.14523691875,191.5324175125,62.0,73.0
243,191.49326441875,191.88334524166666,64.0,80.0
244,191.84129191875,192.1762683875,67.0,77.0
245,192.18931941875,193.33781016875,62.0,78.0
246,193.58142941875,193.94830840833333,57.0,79.0
247,193.92945691875,194.28183476249998,60.0,78.0
248,194.27748441875,194.65886455416666,62.0,78.0
249,194.62551191875,195.01414262708332,65.0,80.0
250,194.97353941875,195.3607200125,67.0,75.0
251,195.32156691875,195.66524407499998,69.0,78.0
252,195.66959441875,196.04372398125,64.0,79.0
253,196.01762191875,196.396101825,62.0,78.0
254,196.36564941875,198.98455635624998,60.0,78.0
255,199.14986941874997,200.0692420645833,65.0,82.0
256,200.19395191874997,200.48687506458333,67.0,73.0
257,200.54197941874997,200.84940371041665,69.0,79.0
258,200.89000691874998,201.22933373125,72.0,78.0
259,201.23803441874998,201.82388071041666,62.0,79.0
260,201.93408941874998,202.28211691874998,60.0,82.0
261,202.28211691874998,202.660596825,57.0,74.0
262,202.63014441874998,204.02225441874998,60.0,73.0
263,204.02225441874998,204.29487596041665,60.0,79.0
264,204.37028191874998,204.68640689791664,62.0,79.0
265,204.71830941874998,205.6159303458333,65.0,74.0
266,205.76239191874998,206.03501346041665,67.0,80.0
267,206.11041941874998,206.40189245,69.0,76.0
268,206.45844691874998,206.71656731458333,72.0,79.0
269,206.80647441874999,207.15305180416667,62.0,79.0
270,207.15450191875,207.45902598125,65.0,79.0
271,207.50252941875,209.73570587708332,67.0,72.0
272,210.28674941875,211.33953260624997,65.0,77.0
273,211.33083191875,211.73686400208334,67.0,74.0
274,211.67885941875,212.05008875208333,69.0,77.0
275,212.02688691875,212.37491441875,72.0,77.0
276,212.37491441875,212.77659615833332,69.0,74.0
277,212.72294191875,213.09562136666665,67.0,73.0
278,213.07096941875,213.57415917916666,65.0,78.0
279,213.76702441875,214.15565512708332,67.0,79.0
280,214.11505191875,214.423926325,64.0,72.0
281,214.46307941875,215.48831042916666,62.0,78.0
282,215.85518941875,216.18581554374998,57.0,70.0
283,216.20321691875,216.56429544999997,60.0,78.0
284,216.55124441875,216.9471257,62.0,75.0
285,216.89927191875,217.29225297083332,65.0,78.0
286,217.24729941875,217.67363310624998,67.0,71.0
287,217.59532691875,218.31168352291667,69.0,75.0
288,218.29138191875,218.64956022083334,62.0,78.0
289,218.63940941875,221.26411681458333,65.0,77.0
290,221.42362941874998,222.47641260625,65.0,77.0
291,222.46771191874998,222.87374400208333,67.0,74.0
292,222.81573941874998,223.18696875208332,69.0,77.0
293,223.16376691874999,223.51179441875,72.0,77.0
294,223.51179441875,223.9134761583333,69.0,74.0
295,223.85982191875,224.23250136666667,67.0,73.0
296,224.20784941875,224.71103917916665,65.0,78.0
297,224.90390441875,225.29253512708334,67.0,79.0
298,225.25193191875,225.560806325,64.0,72.0
299,225.59995941875,226.62519042916665,62.0,78.0
300,227.14433144999998,227.82733541874998,57.0,80.0
301,227.76933083541667,228.32472472083333,60.0,79.0
302,228.33052517916667,228.99032731458334,62.0,78.0
303,228.82791448125,229.389108825,65.0,79.0
304,229.3369047,229.97930546041664,67.0,79.0
305,229.9169505333333,231.79774914791665,69.0,77.0
306,231.69189078333332,233.43202828333332,62.0,75.0
307,233.43057816875,236.05963590833332,65.0,67.0
