,start,end,pitch,velocity
0,4.654066975,6.98255395,48.0,70.0
1,5.177322475,7.090112025,53.0,80.0
2,5.526159475,7.1584259375,57.0,80.0
3,4.479648475,7.177321275,41.0,79.0
4,5.874996475,7.258716575,65.0,78.0
5,7.270344475,7.450576925,57.0,71.0
6,7.270344475,7.97092545,60.0,69.0
7,8.316855475,8.7194715125,60.0,79.0
8,7.619181475,8.758715675,48.0,67.0
9,7.968018475,8.7630761375,57.0,70.0
10,7.270344475,8.892436525,41.0,80.0
11,7.095925975,8.933134175,53.0,70.0
12,9.363366475,9.7092965,36.0,79.0
13,8.665692475,10.0799358125,65.0,79.0
14,9.712203475,10.1322613625,53.0,83.0
15,9.014529475,10.1845869125,60.0,76.0
16,11.107551475,11.2950513625,62.0,80.0
17,11.456388475,11.5712139875,62.0,76.0
18,10.758714475,11.59883025,57.0,81.0
19,10.409877475,12.26162055,45.0,70.0
20,10.061040475,12.2921437875,38.0,82.0
21,11.456388475,12.8677248375,65.0,74.0
22,12.154062475,12.8851666875,62.0,77.0
23,12.502899475,12.956387575,57.0,68.0
24,13.898247475,14.0857473625,58.0,81.0
25,13.200573475,14.0915613125,50.0,70.0
26,13.549410475,14.113363625,55.0,77.0
27,12.851736475,14.1555147625,43.0,80.0
28,14.247084475,14.706386525,55.0,79.0
29,14.247084475,15.0305142375,60.0,78.0
30,14.595921475,15.09882815,52.0,71.0
31,14.247084475,15.1090025625,48.0,83.0
32,14.944758475,15.206386225,55.0,79.0
33,15.468013975,15.697665,53.0,65.0
34,15.468013975,15.944757875,57.0,72.0
35,15.642432475,16.305222775,65.0,75.0
36,15.642432475,16.4258622375,60.0,73.0
37,15.991269475,17.4694662625,48.0,67.0
38,15.642432475,17.51743135,41.0,79.0
39,16.340106475,17.718012625,53.0,79.0
40,17.735454475,18.1060937875,36.0,79.0
41,16.688943475,18.434750179166667,57.0,78.0
42,17.037780475,18.793546245833333,65.0,79.0
43,19.1263006625,19.962526979166665,55.0,79.0
44,19.4735226625,20.1158833625,58.0,84.0
45,18.779078662499998,20.296728154166665,50.0,72.0
46,19.8207446625,20.3242165625,67.0,77.0
47,18.4318566625,20.35170497083333,43.0,74.0
48,20.515188662499998,20.89857962083333,59.0,73.0
49,20.515188662499998,21.0273411125,55.0,71.0
50,20.515188662499998,21.086658204166667,43.0,79.0
51,20.515188662499998,21.118486887499998,62.0,73.0
52,21.2096326625,21.377456629166666,55.0,75.0
53,21.2096326625,21.8997363875,60.0,74.0
54,22.251298662499998,22.653497479166667,60.0,80.0
55,21.9040766625,22.69111319583333,55.0,79.0
56,22.5985206625,23.1627564125,64.0,78.0
57,21.5568546625,23.51576544583333,52.0,70.0
58,21.2096326625,23.627165837499998,48.0,81.0
59,23.292964662499998,23.698056995833333,60.0,76.0
60,23.6401866625,23.894816129166667,55.0,79.0
61,23.9874086625,25.059456587499998,53.0,73.0
62,23.9874086625,25.1592829125,57.0,71.0
63,24.3346306625,25.737986245833333,48.0,65.0
64,23.9874086625,25.7712616875,41.0,78.0
65,25.3762966625,26.182141054166664,53.0,70.0
66,26.0707406625,26.76229114583333,36.0,78.0
67,25.7235186625,26.8650109875,57.0,74.0
68,26.4179626625,26.8736915375,53.0,78.0
69,24.6818526625,27.249848704166666,60.0,76.0
70,25.0290746625,27.2729968375,65.0,77.0
71,27.1124066625,28.167093487499997,53.0,70.0
72,27.4596286625,28.21628327083333,60.0,69.0
73,27.806850662499997,28.230750854166665,57.0,73.0
74,26.765184662499998,28.816687979166666,41.0,79.0
75,28.5012946625,29.5125787375,60.0,71.0
76,28.848516662499996,29.5299398375,36.0,74.0
77,28.1540726625,29.5299398375,65.0,78.0
78,30.237404662499998,30.693133537499996,60.0,71.0
79,30.5846266625,30.713388154166665,57.0,76.0
80,29.8901826625,31.121374004166665,48.0,67.0
81,30.9318486625,31.56263529583333,53.0,76.0
82,30.9318486625,31.643653762499998,65.0,73.0
83,31.279070662499997,31.781095804166664,48.0,64.0
84,29.5429606625,31.85343372083333,41.0,80.0
85,31.6262926625,32.32797045416667,57.0,69.0
86,31.973514662499998,32.3554588625,53.0,73.0
87,32.320736662499996,32.422009745833336,36.0,78.0
88,31.6262926625,32.4596254625,60.0,74.0
89,32.6679586625,32.9153543375,43.0,58.0
90,33.0151806625,33.53312014583333,43.0,36.0
91,33.362402662499996,33.5707358625,55.0,72.0
92,33.7096246625,34.18416139583333,64.0,78.0
93,33.7096246625,34.2000757375,55.0,78.0
94,33.0151806625,34.44602465416666,52.0,73.0
95,34.7512906625,34.919114629166664,48.0,76.0
96,34.404068662499995,35.12744782916667,60.0,80.0
97,34.404068662499995,35.14046865416667,55.0,79.0
98,36.1401786625,36.55829182083333,60.0,74.0
99,35.792956662499996,36.62484270416667,53.0,74.0
100,35.4457346625,36.65377787083333,48.0,57.0
101,35.0985126625,36.82883562916666,41.0,81.0
102,37.1818446625,37.59995782083333,41.0,78.0
103,36.834622662499996,37.802503987499996,60.0,74.0
104,37.5290666625,37.86905487083333,53.0,80.0
105,36.487400662499994,38.00070987916666,65.0,81.0
106,38.2235106625,39.03369532916666,50.0,51.0
107,38.917954662499994,39.142202204166665,58.0,71.0
108,37.8762886625,39.152329512499996,43.0,80.0
109,38.3971216625,39.22032715416667,55.0,72.0
110,39.2651766625,40.02183127083333,60.0,76.0
111,39.6123986625,40.2287177125,52.0,66.0
112,39.2651766625,40.328544037499995,48.0,81.0
113,39.9596206625,40.37773382083333,55.0,85.0
114,40.6540646625,41.08519864583333,57.0,69.0
115,40.6540646625,41.36442300416667,60.0,71.0
116,41.348508662499995,42.119630854166665,57.0,72.0
117,41.6957306625,42.202096079166665,60.0,79.0
118,41.00128666249999,42.39306817916666,48.0,67.0
119,40.6540646625,42.471193129166664,41.0,81.0
120,42.3901746625,42.8545840875,57.0,78.0
121,42.7373966625,43.161296854166665,36.0,79.0
122,42.0429526625,43.22640097916666,65.0,76.0
123,43.0846186625,43.31031296249999,57.0,76.0
124,43.431840662499994,43.83403947916666,57.0,74.0
125,43.431840662499994,44.137858729166666,62.0,77.0
126,43.779062662499996,44.35776599583333,45.0,61.0
127,43.431840662499994,44.40261550416666,38.0,80.0
128,44.1262846625,44.86702492916666,57.0,84.0
129,44.4735066625,44.881492512499996,62.0,76.0
130,45.1679506625,46.00851725416666,50.0,69.0
131,44.8207286625,46.01719780416666,43.0,83.0
132,45.51517266249999,46.19370232083333,59.0,64.0
133,45.51517266249999,46.2443388625,62.0,72.0
134,45.51517266249999,46.2486791375,55.0,71.0
135,46.5568386625,47.025588362499995,55.0,79.0
136,46.9040606625,47.29613217083333,60.0,79.0
137,47.251282662499996,47.488551029166665,62.0,74.0
138,47.5985046625,47.97750027708333,65.0,74.0
139,47.7721156625,48.199530097916664,62.0,70.0
140,46.2096166625,48.65656550833333,48.0,84.0
141,48.291802231249996,48.72576960833333,60.0,80.0
142,48.63782273125,48.91752263541667,55.0,67.0
143,48.98384323125,49.16262048958333,36.0,74.0
144,48.98384323125,49.51440799791666,60.0,71.0
145,50.02190473125,50.43568757916667,60.0,83.0
146,50.36792523125,50.57409577916667,62.0,83.0
147,50.71394573125,50.87974722083333,65.0,84.0
148,51.05996623125,51.195490927083334,67.0,80.0
149,49.67588423125,51.24595225,55.0,72.0
150,49.32986373125,51.33822438333333,48.0,79.0
151,51.405986731249996,51.678477875,69.0,81.0
152,52.09802773125,52.53478854791667,53.0,72.0
153,52.445089531250005,52.611466739583335,57.0,68.0
154,51.75200723125,52.880563789583334,41.0,82.0
155,52.79231153125,53.26829502291667,53.0,77.0
156,52.79231153125,53.28999639791667,57.0,78.0
157,52.79231153125,53.31603804791667,60.0,78.0
158,53.486755531250004,53.826743739583335,53.0,68.0
159,53.13953353125,53.89763489791667,48.0,73.0
160,53.486755531250004,53.969972814583336,60.0,78.0
161,53.486755531250004,53.97431308958333,57.0,77.0
162,53.83397753125,54.41557438125,45.0,67.0
163,54.18119953125,54.48935905625,53.0,78.0
164,54.87564353125,55.35596729791667,55.0,67.0
165,55.22286553125,55.40081680625,60.0,70.0
166,54.528421531250004,55.61493703958333,48.0,79.0
167,55.57008753125,56.05909184791667,55.0,75.0
168,55.57008753125,56.103941356250004,60.0,79.0
169,55.57008753125,56.14879086458333,64.0,80.0
170,56.26453153125,56.341209722916666,60.0,62.0
171,55.91730953125,56.51048044791667,48.0,78.0
172,56.26453153125,56.73038771458334,55.0,81.0
173,56.61175353125,57.11522543125,43.0,79.0
174,56.958975531250005,57.11956570625,55.0,79.0
175,57.30619753125,57.92251658125,41.0,78.0
176,57.65341953125,58.01510911458333,57.0,73.0
177,57.65341953125,58.03536373125,60.0,74.0
178,57.65341953125,58.03970400625,53.0,77.0
179,58.000641531250004,58.650236022916665,48.0,66.0
180,58.34786353125,58.956948789583336,57.0,74.0
181,58.34786353125,59.15804819791667,60.0,76.0
182,58.69508553125,59.25498100625,48.0,79.0
183,59.04230753125,59.496589647916664,53.0,79.0
184,59.73675153125,59.87998060625,53.0,60.0
185,59.38952953125,59.887214397916665,45.0,66.0
186,59.73675153125,60.01452913125,57.0,70.0
187,59.73675153125,60.04491105625,60.0,73.0
188,60.08397353125,60.75526939791666,43.0,79.0
189,60.43119553125,60.86232951458334,55.0,78.0
190,60.43119553125,60.86232951458334,62.0,78.0
191,60.43119553125,60.86811654791667,58.0,69.0
192,61.12563953125,61.43379905625,58.0,73.0
193,61.12563953125,61.63055818958333,55.0,79.0
194,61.12563953125,61.649366047916665,62.0,78.0
195,61.472861531250004,62.04433107291667,48.0,85.0
196,61.82008353125,62.20781476458333,55.0,80.0
197,61.82008353125,62.21794207291667,60.0,80.0
198,62.16730553125,62.80966623125,52.0,79.0
199,62.51452753125,62.864643047916665,64.0,77.0
200,62.51452753125,62.90949255625,55.0,74.0
201,62.86174953125,63.25960807291666,60.0,65.0
202,63.20897153125,63.74571887291667,57.0,74.0
203,63.55619353125,64.00902888958333,48.0,79.0
204,62.86174953125,64.05677191458334,41.0,67.0
205,63.903415531250005,64.33165599791667,57.0,70.0
206,63.903415531250005,64.68177151458333,60.0,78.0
207,63.903415531250005,64.72372750625,65.0,70.0
208,64.25063753125,64.97256993958334,48.0,79.0
209,64.59785953125,65.05069488958333,57.0,77.0
210,64.94508153125,65.39502337291667,45.0,71.0
211,65.29230353125,65.87100686458334,60.0,76.0
212,65.98674753125,66.46273102291667,62.0,77.0
213,65.98674753125,66.46851805625,57.0,78.0
214,65.63952553125,66.68697856458334,50.0,87.0
215,66.68119153125,66.99803160625,62.0,78.0
216,66.68119153125,67.16874908958333,65.0,77.0
217,67.02841353125,67.56226735625,43.0,78.0
218,67.37563553125,67.84004495625,62.0,78.0
219,67.37563553125,67.90804259791666,55.0,80.0
220,67.72285753125,68.17279937291667,50.0,79.0
221,68.07007953125,68.24369053125,58.0,69.0
222,68.07007953125,68.37245202291666,62.0,77.0
223,68.41730153125,68.86434985625,55.0,73.0
224,68.41730153125,69.12621311458334,60.0,74.0
225,68.76452353125,69.60798363958334,52.0,72.0
226,68.41730153125,69.61955770624999,48.0,78.0
227,69.11174553125,69.66585397291666,55.0,77.0
228,69.45896753125,69.71070348125,64.0,78.0
229,69.80618953125,70.25902488958333,55.0,76.0
230,69.80618953125,70.57152468958333,62.0,72.0
231,70.15341153125,70.75092272291667,50.0,71.0
232,69.80618953125,70.84062173958333,43.0,80.0
233,70.50063353125,70.92164020625,55.0,84.0
234,70.84785553125,71.15167478125,62.0,72.0
235,71.19507753125,71.55821387291667,57.0,70.0
236,71.19507753125,71.91845669791667,60.0,72.0
237,71.54229953125,72.38286612291667,48.0,66.0
238,71.88952153125,72.40746101458333,57.0,73.0
239,71.19507753125,72.42771563125,41.0,78.0
240,72.23674353125,72.45086376458333,60.0,81.0
241,72.58396553125,72.77783114791667,57.0,73.0
242,72.58396553125,72.94420835625,41.0,79.0
243,72.58396553125,73.37678909791667,65.0,77.0
244,72.93118753125,73.39559695625,57.0,81.0
245,72.58396553125,73.43899970625,60.0,79.0
246,73.62563153125001,73.79924253125,57.0,80.0
247,73.27840953124999,73.91498319791667,36.0,81.0
248,73.79924253125,73.97285353125,60.0,48.0
249,73.97285353125,75.13026019791667,60.0,67.0
250,73.97285353125,75.16787591458333,57.0,65.0
251,75.36174153125,75.80444958125,57.0,77.0
252,75.36174153125,75.80878985625,64.0,78.0
253,75.70896353124999,76.02725036458332,52.0,71.0
254,73.97285353125,76.03882443124999,45.0,80.0
255,76.05618553125,76.19218081458334,57.0,74.0
256,76.05618553125,76.26162521458333,60.0,79.0
257,76.40340753125,76.55531715625,57.0,73.0
258,76.75062953125,77.49426331458334,62.0,74.0
259,76.75062953125,77.53187903125,57.0,70.0
260,78.14009145,78.36920955416667,57.0,76.0
261,78.14009145,78.44316539791667,65.0,78.0
262,76.75062953125,78.67663384583334,38.0,79.0
263,78.48811895,78.86949908541666,62.0,78.0
264,78.83614645,79.17112291875,60.0,83.0
265,79.18417395,79.32483506458334,57.0,79.0
266,79.53220145,79.932433075,53.0,78.0
267,79.53220145,79.9759365125,57.0,73.0
268,80.22825645,80.37906836666667,53.0,76.0
269,79.53220145,80.71114460625,41.0,78.0
270,79.88022895,80.78220022083333,48.0,65.0
271,80.57628395,80.8634066375,57.0,75.0
272,80.57628395,80.91271053333334,60.0,78.0
273,80.92431145,81.41735040833333,43.0,77.0
274,81.27233895,81.76247767916666,58.0,78.0
275,81.27233895,81.77552871041667,55.0,74.0
276,81.27233895,81.77552871041667,62.0,79.0
277,81.62036645,82.05250059583334,50.0,74.0
278,81.96839395,82.13080678333333,55.0,79.0
279,81.96839395,82.1859111375,62.0,74.0
280,82.31642145,82.77610777291667,57.0,74.0
281,82.31642145,82.79205903333333,60.0,73.0
282,83.01247645,83.12848561666667,57.0,71.0
283,82.66444895000001,83.45041105416666,52.0,64.0
284,82.31642145,83.48376368958333,45.0,79.0
285,83.36050395,83.93329921041666,57.0,80.0
286,83.36050395,83.93329921041666,64.0,84.0
287,83.36050395,83.94199989791667,60.0,84.0
288,83.70853145,84.34803198125,52.0,78.0
289,84.40458645,84.61485306458333,45.0,80.0
290,84.05655895,84.73376246041667,57.0,75.0
291,84.05655895,84.75696429375,64.0,79.0
292,84.05655895,84.75841440833334,60.0,79.0
293,84.75261395,84.96578079375,43.0,83.0
294,85.10064145,85.3442607,57.0,73.0
295,85.10064145,85.35151127291667,53.0,74.0
296,85.10064145,85.79089599166667,41.0,83.0
297,85.44866895,85.918506075,57.0,75.0
298,85.44866895,85.95040859583334,53.0,78.0
299,85.44866895,85.96055939791667,60.0,76.0
300,86.14472395,86.33323884583334,53.0,78.0
301,86.14472395,86.37384205416667,60.0,76.0
302,86.49275145,86.72331966875001,58.0,53.0
303,86.49275145,86.74072104375,55.0,69.0
304,86.49275145,87.06409659583333,43.0,70.0
305,86.84077895,87.29176458541667,55.0,79.0
306,86.84077895,87.345418825,58.0,78.0
307,86.84077895,87.38167168958333,62.0,79.0
308,87.53683395,87.69634655416667,55.0,75.0
309,87.18880645,87.73549964791667,50.0,76.0
310,87.88486145,88.12558047083334,57.0,77.0
311,87.88486145,88.13573127291667,60.0,78.0
312,87.88486145,88.493909575,45.0,78.0
313,88.23288895,88.71287687708333,57.0,75.0
314,88.23288895,88.73027825208334,60.0,79.0
315,88.92894395,89.20156549166667,57.0,73.0
316,88.92894395,89.25811996041666,60.0,73.0
317,89.27697145,89.50173921041667,57.0,73.0
318,89.27697145,89.5118900125,62.0,73.0
319,89.27697145,89.92662278333333,38.0,79.0
320,89.62499895,90.08033492916667,65.0,74.0
321,89.62499895,90.11513767916666,62.0,75.0
322,89.62499895,90.11803790833333,57.0,77.0
323,89.97302645,90.16299146041666,45.0,71.0
324,90.32105395,90.46461529375,62.0,70.0
325,90.32105395,90.48926724166667,57.0,78.0
326,90.66908145,90.89964966875,57.0,68.0
327,90.66908145,90.90980047083333,53.0,69.0
328,91.01710895,91.47099481458334,57.0,62.0
329,91.01710895,91.49274653333333,60.0,74.0
330,91.01710895,91.51594836666666,53.0,74.0
331,90.66908145,91.67981131458333,41.0,79.0
332,91.71316395,91.99738640833334,53.0,75.0
333,91.71316395,92.05394087708333,60.0,75.0
334,92.06119145,92.57163178333333,43.0,80.0
335,92.40921895,92.8181512625,55.0,71.0
336,92.40921895,92.94576134583333,59.0,71.0
337,92.40921895,93.01971718958333,62.0,74.0
338,92.75724645,93.02551764791667,50.0,74.0
339,93.10527395,93.36339434583334,55.0,80.0
340,93.45330145,93.64761680416667,55.0,70.0
341,93.45330145,93.6969207,60.0,74.0
342,93.45330145,93.78537768958333,36.0,74.0
343,93.80132895,94.17400839791667,64.0,79.0
344,93.80132895,94.20591091874999,60.0,73.0
345,93.80132895,94.21461160625,55.0,76.0
346,94.49738395,94.96432084583333,55.0,75.0
347,94.49738395,94.98752267916666,60.0,78.0
348,94.49738395,95.02522565833334,64.0,79.0
349,94.84541145,95.45880991875,48.0,89.0
350,95.19343895,95.89964475208333,55.0,74.0
351,95.19343895,95.9242967,60.0,74.0
352,95.54146645,95.94459830416668,43.0,82.0
353,95.88949395,96.20561892916666,48.0,85.0
354,96.58554895,97.02348355416666,53.0,72.0
355,96.93357645,97.10033962708334,57.0,68.0
356,96.23752145,97.37006093958334,41.0,82.0
357,97.28160395,97.75869164791666,53.0,77.0
358,97.28160395,97.78044336666667,57.0,78.0
359,97.28160395,97.80654542916668,60.0,78.0
360,97.97765895,98.31843587708333,53.0,68.0
361,97.62963145,98.38949149166666,48.0,73.0
362,97.97765895,98.46199722083334,60.0,78.0
363,97.97765895,98.46634756458333,57.0,77.0
364,98.32568645,98.9086325125,45.0,67.0
365,98.67371395,98.98258835625,53.0,78.0
366,99.36976895000001,99.85120699166667,55.0,67.0
367,99.71779645000001,99.89616054375,60.0,70.0
368,99.02174145000001,100.11077750208334,48.0,79.0
369,100.06582395000001,100.55596267916667,55.0,75.0
370,100.06582395000001,100.60091623125,60.0,79.0
371,100.06582395000001,100.64586978333334,64.0,80.0
372,100.76187895,100.83873502291667,60.0,62.0
373,100.41385145000001,101.00839842916668,48.0,78.0
374,100.76187895,101.22881584583334,55.0,81.0
375,101.10990645,101.614546325,43.0,79.0
376,101.45793395,101.61889666875,55.0,79.0
377,101.80596145,102.42371026250001,41.0,78.0
378,102.15398895,102.51651759583334,57.0,73.0
379,102.15398895,102.5368192,60.0,74.0
380,102.15398895,102.54116954375,53.0,77.0
381,102.50201645,103.15311789791667,48.0,66.0
382,102.85004395,103.46054218958334,57.0,74.0
383,102.85004395,103.66210811666667,60.0,76.0
384,103.19807145,103.75926579375,48.0,79.0
385,103.54609895,104.00143492916666,53.0,79.0
386,104.24215395,104.38571529375,53.0,60.0
387,103.89412645,104.39296586666667,45.0,66.0
388,104.24215395,104.52057595,57.0,70.0
389,104.24215395,104.55102835625,60.0,73.0
390,104.59018145,105.26303461666667,43.0,79.0
391,104.93820895,105.37034309583333,55.0,78.0
392,104.93820895,105.37034309583333,62.0,78.0
393,104.93820895,105.37614355416667,58.0,69.0
394,105.63426395,105.94313835625,58.0,73.0
395,105.63426395,106.14035393958333,55.0,79.0
396,105.63426395,106.15920542916666,62.0,78.0
397,105.98229145,106.55508671041667,48.0,85.0
398,106.33031895,106.71894965833334,55.0,80.0
399,106.33031895,106.72910046041667,60.0,80.0
400,106.67834645,107.322197325,52.0,79.0
401,107.02637395,107.37730167916666,64.0,77.0
402,107.02637395,107.42225523125,55.0,74.0
403,107.37440145,107.77318296041668,60.0,65.0
404,107.72242895,108.26042146041667,57.0,74.0
405,108.07045645,108.52434231458334,48.0,79.0
406,107.37440145,108.57219609583333,41.0,67.0
407,108.41848395,108.84771786666667,57.0,70.0
408,108.41848395,109.19864559583334,60.0,78.0
409,108.41848395,109.24069891875,65.0,70.0
410,108.76651145,109.49011862708333,48.0,79.0
411,109.11453895,109.56842481458334,57.0,77.0
412,109.46256645,109.91355208541667,45.0,71.0
413,109.81059395,110.39063978333334,60.0,76.0
414,110.50664895,110.98373664791667,62.0,77.0
415,110.50664895,110.98953710625,57.0,78.0
416,110.15862145,111.20850440833334,50.0,87.0
417,111.20270395,111.52027904375001,62.0,78.0
418,111.20270395,111.69139256458334,65.0,77.0
419,111.55073145,112.08582373125,43.0,78.0
420,111.89875895,112.36424573125001,62.0,78.0
421,111.89875895,112.43240111666667,55.0,80.0
422,112.24678645,112.69777208541666,50.0,79.0
423,112.59481395,112.7688277,58.0,69.0
424,112.59481395,112.89788789791666,62.0,77.0
425,112.94284145,113.39092685625,55.0,73.0
426,112.94284145,113.65339759583333,60.0,74.0
427,113.29086895,114.13628575208334,52.0,72.0
428,112.94284145,114.14788666875,48.0,78.0
429,113.63889645,114.19429033541667,55.0,77.0
430,113.98692395,114.23924388750001,64.0,78.0
431,114.33495145,114.78883731458333,55.0,76.0
432,114.33495145,115.10206206458334,62.0,72.0
433,114.68297895,115.28187627291666,50.0,71.0
434,114.33495145,115.37178337708333,43.0,80.0
435,115.03100645,115.45298979374999,55.0,84.0
436,115.37903395000001,115.6835580125,62.0,72.0
437,115.72706145000001,116.09104021041668,57.0,70.0
438,115.72706145000001,116.45211874166667,60.0,72.0
439,116.07508895000001,116.91760552291666,48.0,66.0
440,116.42311645000001,116.94225747083334,57.0,73.0
441,115.72706145000001,116.962559075,41.0,78.0
442,116.77114395000001,116.98576090833333,60.0,81.0
443,117.11917145000001,117.31348680416667,57.0,73.0
444,117.11917145000001,117.48024998125001,41.0,79.0
445,117.11917145000001,117.91383424166668,65.0,77.0
446,117.46719895000001,117.93268573125,57.0,81.0
447,117.11917145000001,117.97618916875001,60.0,79.0
448,118.16325395000001,118.33726770000001,57.0,80.0
449,117.81522645000001,118.45327686666667,36.0,81.0
450,118.33726770000001,118.51128145000001,60.0,48.0
451,118.51128145000001,118.90136227291667,60.0,74.0
452,118.51128145000001,118.99126937708334,53.0,74.0
453,118.85930895000001,119.54376303333333,48.0,64.0
454,118.51128145000001,119.59306692916667,41.0,79.0
455,119.20733645,119.64527105416667,60.0,78.0
456,119.55536395,120.03100153333334,57.0,77.0
457,119.55536395,120.03535187708334,53.0,78.0
458,119.90339145,120.54434209583334,48.0,73.0
459,120.25141895,120.71400550208334,53.0,72.0
460,120.25141895,120.76608880208335,57.0,79.0
461,120.25141895,120.80515127708334,60.0,79.0
462,120.59944645,121.12777838541668,41.0,80.0
463,120.94693359375,121.31296345208334,53.0,85.0
464,121.64137759375001,122.17523141875,62.0,74.0
465,121.64137759375001,122.19114576041667,55.0,78.0
466,121.29415559375,122.54270803541667,43.0,76.0
467,122.33582159375001,122.74091392708334,62.0,78.0
468,122.33582159375001,122.82048563541667,55.0,78.0
469,122.68304359375,123.24004555208334,43.0,80.0
470,123.03026559375,123.50190881041667,59.0,75.0
471,123.03026559375,123.51637639375001,62.0,78.0
472,123.03026559375,123.53518425208334,55.0,75.0
473,123.37748759375,123.85347108541667,50.0,78.0
474,123.72470959375,123.90844790208334,59.0,78.0
475,123.72470959375,123.90989466041667,62.0,72.0
476,123.72470959375,123.94027658541667,55.0,69.0
477,123.72470959375,123.96053120208335,67.0,72.0
478,124.07193159375001,124.32511430208334,55.0,77.0
479,124.07193159375001,124.33524161041667,60.0,74.0
480,124.07193159375001,124.82713944375,48.0,77.0
481,124.41915359375001,124.84305378541667,64.0,79.0
482,124.41915359375001,124.88500977708334,60.0,78.0
483,124.41915359375001,124.89224356875,55.0,74.0
484,125.11359759375,125.58958108541667,64.0,79.0
485,125.11359759375,125.61562273541668,60.0,78.0
486,125.11359759375,125.62285652708334,55.0,77.0
487,125.46081959375,125.94982391041667,43.0,79.0
488,125.80804159375,126.23917557708334,64.0,78.0
489,125.80804159375,126.30427970208333,60.0,78.0
490,125.80804159375,126.32308756041667,55.0,74.0
491,126.50248559375001,126.70069148541667,55.0,74.0
492,126.15526359375,126.73686044375,48.0,76.0
493,126.50248559375001,126.73975396041666,60.0,73.0
494,127.19692959375,127.52100346041667,57.0,61.0
495,127.19692959375,127.91307496875001,60.0,76.0
496,127.89137359375,128.32250757708334,57.0,74.0
497,128.23859559375,128.62922034375,65.0,79.0
498,128.58581759375,128.99380344375,60.0,76.0
499,128.93303959375,129.26724076875,57.0,70.0
500,128.23859559375,129.41770363541667,48.0,74.0
501,126.84970759375001,129.43361797708334,41.0,79.0
502,130.32192759375,130.58813112708333,60.0,66.0
503,130.66914959375,130.81237866875,62.0,78.0
504,131.01637159375,131.18564231875,65.0,82.0
505,131.36359359375,131.64137119375,62.0,79.0
506,131.71081559375,132.16509771041666,60.0,70.0
507,129.97470559375,132.36619711875,48.0,70.0
508,132.05803759375002,132.37777118541666,57.0,65.0
509,129.62748359375001,132.39513228541668,41.0,80.0
510,133.09970359375,133.55543246875,60.0,71.0
511,133.44692559375,133.57568708541666,57.0,76.0
512,132.75248159375,133.98367293541668,48.0,67.0
513,133.79414759375,134.42493422708333,53.0,76.0
514,133.79414759375,134.50595269375,65.0,73.0
515,134.14136959375,134.64339473541668,48.0,64.0
516,132.40525959375,134.71573265208335,41.0,80.0
517,134.48859159375002,135.19026938541668,57.0,69.0
518,134.83581359375,135.21775779375,53.0,73.0
519,135.18303559375,135.28430867708335,36.0,78.0
520,134.48859159375002,135.32192439375,60.0,74.0
521,135.53025759375,135.77765326875002,43.0,58.0
522,135.87747959375,136.39541907708335,43.0,36.0
523,136.22470159375,136.43303479375,55.0,72.0
524,136.57192359375,137.04646032708334,64.0,78.0
525,136.57192359375,137.06237466875,55.0,78.0
526,135.87747959375,137.30832358541667,52.0,73.0
527,137.61358959375,137.78141356041667,48.0,76.0
528,137.26636759375,137.98974676041666,60.0,80.0
529,137.26636759375,138.00276758541668,55.0,79.0
530,139.00247759375,139.42059075208334,60.0,74.0
531,138.65525559375,139.48714163541666,53.0,74.0
532,138.30803359375,139.51607680208335,48.0,57.0
533,137.96081159375,139.69113456041669,41.0,81.0
534,140.04414359375,140.46225675208333,41.0,78.0
535,139.69692159375,140.66480291875,60.0,74.0
536,140.39136559375,140.73135380208333,53.0,80.0
537,139.34969959375002,140.86300881041666,65.0,81.0
538,141.08580959375,141.89599426041667,50.0,51.0
539,141.78025359375,142.00450113541666,58.0,71.0
540,140.73858759375,142.01462844375,43.0,80.0
541,141.25942059375,142.08262608541668,55.0,72.0
542,142.12747559375,142.88413020208333,60.0,76.0
543,142.47469759375,143.09101664375,52.0,66.0
544,142.12747559375,143.19084296875002,48.0,81.0
545,142.82191959375,143.24003275208332,55.0,85.0
546,143.51636359375001,143.94749757708334,57.0,69.0
547,143.51636359375001,144.22672193541666,60.0,71.0
548,144.21080759375002,144.98192978541667,57.0,72.0
549,144.55802959375,145.06439501041666,60.0,79.0
550,143.86358559375,145.25536711041667,48.0,67.0
551,143.51636359375001,145.33349206041666,41.0,81.0
552,145.25247359375,145.71688301875,57.0,78.0
553,145.59969559375,146.02359578541666,36.0,79.0
554,144.90525159375,146.08869991041666,65.0,76.0
555,145.94691759375002,146.17261189375,57.0,76.0
556,146.29413959375,146.69633841041667,57.0,74.0
557,146.29413959375,147.00015766041668,62.0,77.0
558,146.64136159375,147.22006492708334,45.0,61.0
559,146.29413959375,147.26491443541667,38.0,80.0
560,146.98858359375,147.72932386041668,57.0,84.0
561,147.33580559375,147.74379144375,62.0,76.0
562,148.03024959375,148.87081618541666,50.0,69.0
563,147.68302759375,148.87949673541667,43.0,83.0
564,148.37747159375,149.05600125208335,59.0,64.0
565,148.37747159375,149.10663779375,62.0,72.0
566,148.37747159375,149.11097806875,55.0,71.0
567,149.41913759375,149.88788729375,55.0,79.0
568,149.76635959375,150.15843110208334,60.0,79.0
569,150.11358159375,150.35084996041667,62.0,74.0
570,150.46080359375,150.83985427708333,65.0,74.0
571,150.63441459375,151.06265506041666,62.0,70.0
572,149.07191559375,151.52127745208332,48.0,84.0
573,151.15524759375,151.59072185208333,60.0,80.0
574,151.50246959375,151.78314071041666,55.0,67.0
575,151.84969159375,152.02908962708335,36.0,74.0
576,151.84969159375,152.38209866041666,60.0,71.0
577,152.89135759375,153.30657723541668,60.0,83.0
578,153.23857959375,153.44546603541667,62.0,83.0
579,153.58580159375,153.75217880208334,65.0,84.0
580,153.93302359375,154.06901887708335,67.0,80.0
581,152.54413559375,154.11965541875,55.0,72.0
582,152.19691359375,154.21224795208335,48.0,79.0
583,154.28024559375,154.55368291874998,69.0,81.0
584,154.97468959374999,155.41161061041666,53.0,72.0
585,155.32191159375,155.48828880208333,57.0,68.0
586,154.62746759375,155.75738585208333,41.0,82.0
587,155.66913359375002,156.14511708541667,53.0,77.0
588,155.66913359375002,156.16681846041666,57.0,78.0
589,155.66913359375002,156.19286011041666,60.0,78.0
590,156.36357759375,156.70356580208335,53.0,68.0
591,156.01635559375,156.77445696041667,48.0,73.0
592,156.36357759375,156.84679487708334,60.0,78.0
593,156.36357759375,156.85113515208334,57.0,77.0
594,156.71079959375,157.29239644375,45.0,67.0
595,157.05802159375,157.36618111875,53.0,78.0
596,157.75246559375,158.23278936041666,55.0,67.0
597,158.09968759375,158.27763886875,60.0,70.0
598,157.40524359375001,158.49175910208334,48.0,79.0
599,158.44690959375,158.93591391041667,55.0,75.0
600,158.44690959375,158.98076341875,60.0,79.0
601,158.44690959375,159.02561292708333,64.0,80.0
602,159.14135359375,159.21803178541666,60.0,62.0
603,158.79413159375,159.38730251041667,48.0,78.0
604,159.14135359375,159.60720977708334,55.0,81.0
605,159.48857559375,159.99204749375,43.0,79.0
606,159.83579759375,159.99638776875,55.0,79.0
607,160.18301959375,160.79933864375,41.0,78.0
608,160.53024159375,160.89193117708334,57.0,73.0
609,160.53024159375,160.91218579374998,60.0,74.0
610,160.53024159375,160.91652606875,53.0,77.0
611,160.87746359375,161.52705808541668,48.0,66.0
612,161.22468559375,161.83377085208332,57.0,74.0
613,161.22468559375,162.03487026041665,60.0,76.0
614,161.57190759374998,162.13180306875,48.0,79.0
615,161.91912959375,162.37341171041666,53.0,79.0
616,162.61357359375,162.75680266875,53.0,60.0
617,162.26635159375002,162.76403646041666,45.0,66.0
618,162.61357359375,162.89135119374998,57.0,70.0
619,162.61357359375,162.92173311875,60.0,73.0
620,162.96079559375,163.63209146041666,43.0,79.0
621,163.30801759375,163.73915157708333,55.0,78.0
622,163.30801759375,163.73915157708333,62.0,78.0
623,163.30801759375,163.74493861041668,58.0,69.0
624,164.00246159375,164.31062111875,58.0,73.0
625,164.00246159375,164.50738025208335,55.0,79.0
626,164.00246159375,164.52618811041668,62.0,78.0
627,164.34968359375,164.92115313541666,48.0,85.0
628,164.69690559375,165.08463682708333,55.0,80.0
629,164.69690559375,165.09476413541665,60.0,80.0
630,165.04412759375,165.68702529375,52.0,79.0
631,165.39134959375,165.74212964791664,64.0,77.0
632,165.39134959375,165.78708319999998,55.0,74.0
633,165.73922941875,166.13801092916665,60.0,65.0
634,166.08725691875,166.62524942916664,57.0,74.0
635,166.43528441875,166.88917028333333,48.0,79.0
636,165.73922941875,166.9370240645833,41.0,67.0
637,166.78331191874997,167.21254583541665,57.0,70.0
638,166.78331191874997,167.56347356458332,60.0,78.0
639,166.78331191874997,167.6055268875,65.0,70.0
640,167.13133941874997,167.85494659583333,48.0,79.0
641,167.47936691874997,167.93325278333333,57.0,77.0
642,167.82739441874998,168.27838005416666,45.0,71.0
643,168.17542191874998,168.75546775208332,60.0,76.0
644,168.87147691874998,169.34856461666666,62.0,77.0
645,168.87147691874998,169.35436507499998,57.0,78.0
646,168.52344941874998,169.57333237708332,50.0,87.0
647,169.56753191874998,169.8851070125,62.0,78.0
648,169.56753191874998,170.05622053333332,65.0,77.0
649,169.91555941874998,170.45065169999998,43.0,78.0
650,170.26358691874998,170.7290737,62.0,78.0
651,170.26358691874998,170.79722908541666,55.0,80.0
652,170.61161441874998,171.06260005416667,50.0,79.0
653,170.95964191874998,171.13365566874998,58.0,69.0
654,170.95964191874998,171.26271586666667,62.0,77.0
655,171.30766941874998,171.755754825,55.0,73.0
656,171.30766941874998,172.01822556458333,60.0,74.0
657,171.65569691874998,172.50111372083333,52.0,72.0
658,171.30766941874998,172.51271463749998,48.0,78.0
659,172.00372441874998,172.55911830416665,55.0,77.0
660,172.35175191874998,172.60407185625,64.0,78.0
661,172.69977941874998,173.1536652833333,55.0,76.0
662,172.69977941874998,173.46689003333333,62.0,72.0
663,173.04780691874998,173.64670424166667,50.0,71.0
664,172.69977941874998,173.73661134583332,43.0,80.0
665,173.39583441874998,173.8178177625,55.0,84.0
666,173.74386191874999,174.04838598125,62.0,72.0
667,174.09188941875,174.45586817916666,57.0,70.0
668,174.09188941875,174.81694671041666,60.0,72.0
669,174.43991691875,175.28243349166667,48.0,66.0
670,174.78794441875,175.30708543958332,57.0,73.0
671,174.09188941875,175.32738704374998,41.0,78.0
672,175.13597191875,175.3505888770833,60.0,81.0
673,175.48399941875,175.67831477291665,57.0,73.0
674,175.48399941875,175.84507795,41.0,79.0
675,175.48399941875,176.27866221041666,65.0,77.0
676,175.83202691875,176.2975137,57.0,81.0
677,175.48399941875,176.3410171375,60.0,79.0
678,176.52808191875,176.70209566875,57.0,80.0
679,176.18005441875,176.81810483541665,36.0,81.0
680,176.70209566875,176.87610941875,60.0,48.0
681,176.87610941875,178.03620108541665,60.0,67.0
682,176.87610941875,178.07390406458333,57.0,65.0
683,178.26821941875,178.71195448125,57.0,77.0
684,178.26821941875,178.71630482499998,64.0,78.0
685,178.61624691875,178.93527212708332,52.0,71.0
686,176.87610941875,178.94687304374997,45.0,80.0
687,178.96427441875,179.1005851895833,57.0,74.0
688,178.96427441875,179.1701906895833,60.0,79.0
689,179.31230191875,179.46456394999998,57.0,73.0
690,179.66032941875,180.40568831458333,62.0,74.0
691,179.66032941875,180.44339129374998,57.0,70.0
692,181.05243941875,181.28155752291664,57.0,76.0
693,181.05243941875,181.35551336666666,65.0,78.0
694,179.66032941875,181.58898181458332,38.0,79.0
695,181.40046691875,181.78184705416666,62.0,78.0
696,181.74849441875,182.0834708875,60.0,83.0
697,182.09652191875,182.2371830333333,57.0,79.0
698,182.44454941875,182.84478104375,53.0,78.0
699,182.44454941875,182.88828448125,57.0,73.0
700,183.14060441875,183.29141633541667,53.0,76.0
701,182.44454941875,183.623492575,41.0,78.0
702,182.79257691875,183.69454818958332,48.0,65.0
703,183.48863191875,183.77575460625,57.0,75.0
704,183.48863191875,183.82505850208332,60.0,78.0
705,183.83665941875,184.32969837708333,43.0,77.0
706,184.18468691875,184.67482564791666,58.0,78.0
707,184.18468691875,184.68787667916666,55.0,74.0
708,184.18468691875,184.68787667916666,62.0,79.0
709,184.53271441875,184.96484856458332,50.0,74.0
710,184.88074191874998,185.04315475208332,55.0,79.0
711,184.88074191874998,185.09825910625,62.0,74.0
712,185.22876941874998,185.68845574166664,57.0,74.0
713,185.22876941874998,185.70440700208331,60.0,73.0
714,185.92482441874998,186.04083358541666,57.0,71.0
715,185.57679691874998,186.36275902291666,52.0,64.0
716,185.22876941874998,186.39611165833333,45.0,79.0
717,186.27285191874998,186.84564717916666,57.0,80.0
718,186.27285191874998,186.84564717916666,64.0,84.0
719,186.27285191874998,186.85434786666664,60.0,84.0
720,186.62087941874998,187.26037995,52.0,78.0
721,187.31693441874998,187.5272010333333,45.0,80.0
722,186.96890691874998,187.64611042916664,57.0,75.0
723,186.96890691874998,187.6693122625,64.0,79.0
724,186.96890691874998,187.67076237708332,60.0,79.0
725,187.66496191874998,187.87812876249998,43.0,83.0
726,188.01298941874998,188.25660866874998,57.0,73.0
727,188.01298941874998,188.26385924166667,53.0,74.0
728,188.01298941874998,188.70324396041667,41.0,83.0
729,188.36101691874998,188.83085404374998,57.0,75.0
730,188.36101691874998,188.86275656458332,53.0,78.0
731,188.36101691874998,188.87290736666665,60.0,76.0
732,189.05707191874998,189.24558681458333,53.0,78.0
733,189.05707191874998,189.28619002291666,60.0,76.0
734,189.40509941874998,189.63566763749998,58.0,53.0
735,189.40509941874998,189.6530690125,55.0,69.0
736,189.40509941874998,189.97644456458332,43.0,70.0
737,189.75312691874998,190.20411255416667,55.0,79.0
738,189.75312691874998,190.25776679375,58.0,78.0
739,189.75312691874998,190.29401965833333,62.0,79.0
740,190.44918191874999,190.60869452291666,55.0,75.0
741,190.10115441874999,190.64784761666667,50.0,76.0
742,190.79720941875,191.0379284395833,57.0,77.0
743,190.79720941875,191.04807924166664,60.0,78.0
744,190.79720941875,191.40625754374997,45.0,78.0
745,191.14523691875,191.62522484583332,57.0,75.0
746,191.14523691875,191.64262622083334,60.0,79.0
747,191.84129191875,192.11391346041665,57.0,73.0
748,191.84129191875,192.17046792916665,60.0,73.0
749,192.18931941875,192.41408717916664,57.0,73.0
750,192.18931941875,192.42423798124997,62.0,73.0
751,192.18931941875,192.83897075208333,38.0,79.0
752,192.53734691875,192.99268289791667,65.0,74.0
753,192.53734691875,193.02748564791665,62.0,75.0
754,192.53734691875,193.03038587708332,57.0,77.0
755,192.88537441875,193.07533942916666,45.0,71.0
756,193.23340191875,193.3769632625,62.0,70.0
757,193.23340191875,193.40161521041665,57.0,78.0
758,193.58142941875,193.81199763749999,57.0,68.0
759,193.58142941875,193.82214843958332,53.0,69.0
760,193.92945691875,194.38334278333332,57.0,62.0
761,193.92945691875,194.40509450208333,60.0,74.0
762,193.92945691875,194.42829633541666,53.0,74.0
763,193.58142941875,194.59215928333333,41.0,79.0
764,194.62551191875,194.9097343770833,53.0,75.0
765,194.62551191875,194.96628884583333,60.0,75.0
766,194.97353941875,195.48397975208331,43.0,80.0
767,195.32156691875,195.73049923124998,55.0,71.0
768,195.32156691875,195.85810931458332,59.0,71.0
769,195.32156691875,195.93206515833333,62.0,74.0
770,195.66959441875,195.93786561666667,50.0,74.0
771,196.01762191875,196.2757423145833,55.0,80.0
772,196.36564941875,196.55996477291666,55.0,70.0
773,196.36564941875,196.60926866875,60.0,74.0
774,196.36564941875,196.69772565833333,36.0,74.0
775,196.71367691875,197.08635636666665,64.0,79.0
776,196.71367691875,197.1182588875,60.0,73.0
777,196.71367691875,197.126959575,55.0,76.0
778,197.40973191875,197.87666881458333,55.0,75.0
779,197.40973191875,197.89987064791666,60.0,78.0
780,197.40973191875,197.93757362708334,64.0,79.0
781,197.75775941875,198.37115788749998,48.0,89.0
782,198.10578691875,198.81199272083333,55.0,74.0
783,198.10578691875,198.83664466874998,60.0,74.0
784,198.45381441875,198.85694627291667,43.0,82.0
785,198.80184191874997,199.11796689791666,48.0,85.0
786,199.49789691874997,199.93583152291666,53.0,72.0
787,199.84592441874997,200.0126875958333,57.0,68.0
788,199.14986941874997,200.2824089083333,41.0,82.0
789,200.19395191874997,200.67103961666666,53.0,77.0
790,200.19395191874997,200.69279133541664,57.0,78.0
791,200.19395191874997,200.71889339791664,60.0,78.0
792,200.89000691874998,201.23078384583332,53.0,68.0
793,200.54197941874997,201.30183946041666,48.0,73.0
794,200.89000691874998,201.37434518958332,60.0,78.0
795,200.89000691874998,201.3786955333333,57.0,77.0
796,201.23803441874998,201.82098048125,45.0,67.0
797,201.58606191874998,201.894936325,53.0,78.0
798,202.28211691874998,202.76355496041666,55.0,67.0
799,202.63014441874998,202.8085085125,60.0,70.0
800,201.93408941874998,203.02312547083332,48.0,79.0
801,202.97817191874998,203.46831064791667,55.0,75.0
802,202.97817191874998,203.51326419999998,60.0,79.0
803,202.97817191874998,203.55821775208332,64.0,80.0
804,203.67422691874998,203.75108299166666,60.0,62.0
805,203.32619941874998,203.92074639791667,48.0,78.0
806,203.67422691874998,204.1411638145833,55.0,81.0
807,204.02225441874998,204.52689429375,43.0,79.0
808,204.37028191874998,204.53124463749998,55.0,79.0
809,204.71830941874998,205.33605823124998,41.0,78.0
810,205.06633691874998,205.42886556458333,57.0,73.0
811,205.06633691874998,205.44916716875,60.0,74.0
812,205.06633691874998,205.45351751249999,53.0,77.0
813,205.41436441874998,206.06546586666667,48.0,66.0
814,205.76239191874998,206.37289015833332,57.0,74.0
815,205.76239191874998,206.57445608541667,60.0,76.0
816,206.11041941874998,206.6716137625,48.0,79.0
817,206.45844691874998,206.91378289791666,53.0,79.0
818,207.15450191875,207.2980632625,53.0,60.0
819,206.80647441874999,207.30531383541665,45.0,66.0
820,207.15450191875,207.43292391875,57.0,70.0
821,207.15450191875,207.46337632499998,60.0,73.0
822,207.50252941875,208.17538258541666,43.0,79.0
823,207.85055691875,208.28269106458333,55.0,78.0
824,207.85055691875,208.28269106458333,62.0,78.0
825,207.85055691875,208.28849152291667,58.0,69.0
826,208.54661191875,208.855486325,58.0,73.0
827,208.54661191875,209.05270190833332,55.0,79.0
828,208.54661191875,209.07155339791666,62.0,78.0
829,208.89463941875,209.46743467916667,48.0,85.0
830,209.24266691875,209.6312976270833,55.0,80.0
831,209.24266691875,209.64144842916664,60.0,80.0
832,209.59069441875,210.23454529375,52.0,79.0
833,209.93872191875,210.28964964791666,64.0,77.0
834,209.93872191875,210.3346032,55.0,74.0
835,210.28674941875,210.68553092916665,60.0,65.0
836,210.63477691875,211.17276942916666,57.0,74.0
837,210.98280441875,211.43669028333332,48.0,79.0
838,210.28674941875,211.48454406458333,41.0,67.0
839,211.33083191875,211.76006583541664,57.0,70.0
840,211.33083191875,212.11099356458334,60.0,78.0
841,211.33083191875,212.15304688749998,65.0,70.0
842,211.67885941875,212.40246659583332,48.0,79.0
843,212.02688691875,212.48077278333332,57.0,77.0
844,212.37491441875,212.82590005416665,45.0,71.0
845,212.72294191875,213.3029877520833,60.0,76.0
846,213.41899691875,213.89608461666666,62.0,77.0
847,213.41899691875,213.901885075,57.0,78.0
848,213.07096941875,214.12085237708334,50.0,87.0
849,214.11505191875,214.4326270125,62.0,78.0
850,214.11505191875,214.60374053333334,65.0,77.0
851,214.46307941875,214.9981717,43.0,78.0
852,214.81110691875,215.27659369999998,62.0,78.0
853,214.81110691875,215.34474908541665,55.0,80.0
854,215.15913441875,215.61012005416666,50.0,79.0
855,215.50716191875,215.68117566874997,58.0,69.0
856,215.50716191875,215.81023586666666,62.0,77.0
857,215.85518941875,216.303274825,55.0,73.0
858,215.85518941875,216.56574556458332,60.0,74.0
859,216.20321691875,217.04863372083332,52.0,72.0
860,215.85518941875,217.0602346375,48.0,78.0
861,216.55124441875,217.10663830416667,55.0,77.0
862,216.89927191875,217.15159185624998,64.0,78.0
863,217.24729941875,217.70118528333333,55.0,76.0
864,217.24729941875,218.01441003333332,62.0,72.0
865,217.59532691875,218.19422424166666,50.0,71.0
866,217.24729941875,218.28413134583332,43.0,80.0
867,217.94335441875,218.3653377625,55.0,84.0
868,218.29138191875,218.59590598124998,62.0,72.0
869,218.63940941875,219.00338817916665,57.0,70.0
870,218.63940941875,219.36446671041665,60.0,72.0
871,218.98743691875,219.82995349166666,48.0,66.0
872,219.33546441875,219.85460543958334,57.0,73.0
873,218.63940941875,219.87490704375,41.0,78.0
874,219.68349191875,219.89810887708333,60.0,81.0
875,220.03151941874998,220.22583477291664,57.0,73.0
876,220.03151941874998,220.39259794999998,41.0,79.0
877,220.03151941874998,220.82618221041665,65.0,77.0
878,220.37954691874998,220.8450337,57.0,81.0
879,220.03151941874998,220.88853713749998,60.0,79.0
880,221.07560191874998,221.24961566874998,57.0,80.0
881,220.72757441874998,221.36562483541667,36.0,81.0
882,221.24961566874998,221.42362941874998,60.0,48.0
883,221.42362941874998,221.82241092916667,60.0,65.0
884,221.77165691874998,222.30964942916665,57.0,74.0
885,222.11968441874998,222.5735702833333,48.0,79.0
886,221.42362941874998,222.62142406458332,41.0,67.0
887,222.46771191874998,222.89694583541666,57.0,70.0
888,222.46771191874998,223.24787356458333,60.0,78.0
889,222.46771191874998,223.28992688749997,65.0,70.0
890,222.81573941874998,223.5393465958333,48.0,79.0
891,223.16376691874999,223.6176527833333,57.0,77.0
892,223.51179441875,223.96278005416667,45.0,71.0
893,223.85982191875,224.43986775208333,60.0,76.0
894,224.55587691875,225.03296461666667,62.0,77.0
895,224.55587691875,225.038765075,57.0,78.0
896,224.20784941875,225.25773237708333,50.0,87.0
897,225.25193191875,225.5695070125,62.0,78.0
898,225.25193191875,225.74062053333333,65.0,77.0
899,225.43754658541667,225.76527248125,55.0,67.0
900,225.5173028875,226.1103997520833,58.0,71.0
901,225.66086423125,226.34531831458332,67.0,73.0
902,225.61301045,226.44102587708332,62.0,74.0
903,226.01614230416666,227.03847308541665,50.0,75.0
904,226.38882175208332,227.05587446041665,55.0,84.0
905,225.62896171041666,227.07182572083332,43.0,80.0
906,226.813705325,227.21248683541666,62.0,78.0
907,227.231338325,227.822985075,55.0,67.0
908,227.300943825,228.03035146041665,48.0,85.0
909,227.31109462708332,228.11445810625,60.0,72.0
910,227.3792500125,228.19131417916665,64.0,78.0
911,228.7713600125,229.07298384583333,60.0,68.0
912,229.05413235625,229.17304175208332,62.0,77.0
913,229.6153267,230.00105717916665,65.0,67.0
914,230.01845855416667,230.32733296041664,67.0,70.0
915,230.38243731458334,230.81602157499998,69.0,73.0
916,230.73771538749997,231.48452439791666,72.0,69.0
917,231.19160125208333,231.90940797083334,74.0,72.0
918,231.68028986666667,232.06602034583332,77.0,63.0
919,228.52629064791665,232.74467397083333,55.0,64.0
920,232.25453524166664,232.83748130416666,79.0,69.0
921,228.3015228875,232.87953462708333,48.0,65.0
922,232.91143714791667,233.33632072083333,81.0,66.0
923,234.60372086666666,235.09530971041664,57.0,79.0
924,234.24119222083334,235.19536761666666,53.0,70.0
925,234.96479939791666,235.53034408541666,60.0,79.0
926,235.27802414791665,235.77976379375,53.0,38.0
927,233.90186540833332,236.09733888749997,48.0,58.0
928,233.58719054375,236.12199083541665,41.0,81.0
929,235.98713017916666,236.27425286666664,53.0,84.0
930,235.6449031375,236.52657280416668,65.0,80.0
931,237.11676943958332,237.99843910624998,55.0,80.0
932,237.49089900208332,238.0288915125,59.0,80.0
933,237.8998313145833,238.0607940333333,62.0,71.0
934,236.73538930416666,238.9685657625,50.0,77.0
935,236.33080733541664,239.08747515833332,43.0,81.0
936,237.9824878458333,239.78498027291664,67.0,78.0
937,238.48132726249997,239.95319356458333,62.0,65.0
938,239.15563054375,239.97349516875,55.0,59.0
939,240.43318149166666,240.62024627291666,48.0,70.0
940,240.62604673124997,240.73625543958332,50.0,73.0
941,240.82616254375,241.17564015833332,52.0,78.0
942,241.12198591875,241.36415505416664,55.0,63.0
943,241.39460746041667,241.54106903333332,57.0,68.0
944,241.70783221041665,241.91519859583332,60.0,69.0
945,242.0312077625,242.48509362708333,62.0,71.0
946,240.21856453333334,242.60400302291666,43.0,65.0
947,239.91549058541665,242.64460623125,36.0,78.0
948,242.38503572083334,242.87082410624998,65.0,69.0
949,242.80701906458333,243.42911822083335,67.0,67.0
950,243.79599721041666,243.97871164791667,41.0,78.0
951,243.3189095125,244.51090369999997,69.0,66.0
952,244.60081080416666,244.76467375208333,65.0,68.0
953,244.7603234083333,244.86328154375,67.0,66.0
954,244.93143692916667,245.09384976249999,69.0,74.0
955,245.1286525125,245.33746901249998,72.0,70.0
956,245.3476198145833,245.50423218958332,77.0,66.0
957,245.58833883541666,245.69709742916666,79.0,73.0
958,245.85806014791666,246.18433592916665,81.0,70.0
959,246.14808306458332,246.53236342916665,84.0,66.0
960,246.5004609083333,246.64112202291665,89.0,64.0
961,244.41809636666665,246.92244425208332,60.0,71.0
962,244.19767895,246.93259505416665,53.0,74.0
