,start,end,pitch,velocity
0,44.393543345833336,44.779906772916675,74.0,93.0
1,44.88941084583334,45.25098089791667,74.0,99.0
2,45.38527834583334,45.58982368958334,76.0,89.0
3,45.633212095833336,45.798501262500004,74.0,91.0
4,45.88114584583334,46.37081500208334,76.0,93.0
5,46.37701334583334,49.9389948875,74.0,89.0
6,50.34395334583334,50.68692836666667,69.0,86.0
7,50.83982084583334,51.19932478333334,71.0,86.0
8,51.33568834583334,51.55882872083334,71.0,86.0
9,51.58362209583334,51.83362196041667,66.0,82.0
10,51.831555845833336,52.11048131458334,64.0,84.0
11,52.07948959583334,52.356348950000005,66.0,71.0
12,52.32742334583334,54.57122378333334,62.0,83.0
13,56.79754201875001,57.226646118750004,59.0,84.0
14,57.29505401875001,57.724158118750005,62.0,87.0
15,57.79256601875001,58.18228375208334,64.0,83.0
16,58.29007801875001,58.90989505208334,67.0,83.0
17,59.03634601875001,59.25400751875001,69.0,83.0
18,59.28510201875001,59.504836485416675,71.0,86.0
19,59.53385801875001,59.734935785416674,74.0,93.0
20,59.78261401875001,60.19098845208334,69.0,87.0
21,60.28012601875001,60.81080548541667,64.0,88.0
22,60.77763801875001,61.312463418750006,69.0,87.0
23,61.27515001875001,61.54670865208334,67.0,77.0
24,61.523906018750004,61.75400531875,69.0,84.0
25,61.772662018750005,62.270174018750005,64.0,81.0
26,62.270174018750005,64.05085238541668,62.0,80.0
27,64.26022201875,64.70798281875001,62.0,85.0
28,64.75773401875,64.88211201875001,74.0,98.0
29,65.00649001875001,65.13501395208334,74.0,89.0
30,65.25524601875,65.43766708541668,74.0,88.0
31,65.50400201875001,65.65118265208334,71.0,82.0
32,65.75275801875,65.91859535208334,69.0,86.0
33,66.00151401875002,66.14247575208334,71.0,82.0
34,66.25027001875,66.74985498541668,67.0,79.0
35,66.74778201875,67.14579161875001,66.0,81.0
36,67.24529401875,67.46502848541667,64.0,84.0
37,67.49405001875,67.67439811875,66.0,82.0
38,67.74280601875,68.13045078541667,62.0,84.0
39,68.24031801875,71.88459341875,62.0,83.0
40,72.22041401875,72.65317755416667,62.0,87.0
41,72.71722710625001,73.05606989791667,74.0,93.0
42,73.21309460625001,73.3804498875,74.0,89.0
43,73.46102835625001,73.63871421041668,71.0,73.0
44,73.70896210625001,74.15317674166667,69.0,84.0
45,74.20482960625,75.68003541875001,67.0,82.0
46,75.69243210625001,75.83912624166668,64.0,89.0
47,75.94036585625001,76.12838228333334,67.0,83.0
48,76.18829960625001,76.80606786666668,69.0,84.0
49,76.93210085625,77.10358836666667,69.0,82.0
50,77.18003460625,77.35772046041667,71.0,84.0
51,77.42796835625,77.58086083541667,66.0,80.0
52,77.67590210625,77.86391853333335,64.0,86.0
53,77.92383585625001,78.14904234583334,66.0,82.0
54,78.17176960625001,79.74614891875001,62.0,83.0
55,80.15523960625,80.57672698125,64.0,87.0
56,80.65110710625001,81.56226363750001,67.0,82.0
57,81.64284210625001,81.99201547083334,69.0,83.0
58,82.13870960625,82.57259366875002,71.0,83.0
59,82.63457710625,83.48788242916667,74.0,87.0
60,83.62631210625001,84.04779948125001,71.0,87.0
61,84.12217960625001,84.25647705416668,76.0,84.0
62,84.37011335625002,84.72548506458334,76.0,84.0
63,84.86598085625,85.02713779375001,76.0,86.0
64,85.11391460625,85.25854262708334,74.0,87.0
65,85.36184835625001,85.50441026250002,76.0,86.0
66,85.60978210625001,85.74201343958335,71.0,85.0
67,85.85771585625001,86.0002777625,71.0,83.0
68,86.10564960625001,86.82052525208334,69.0,81.0
69,86.84945085625,87.02093836666667,64.0,89.0
70,87.09738460625,87.23788039791668,67.0,74.0
71,87.34531835625,87.49224627708334,69.0,80.0
72,87.59415974375001,87.98725454375001,71.0,83.0
73,88.09332774375001,90.33958374375001,69.0,82.0
74,96.08001574375001,96.51338767708334,62.0,87.0
75,96.57743722916668,96.91628002083334,74.0,93.0
76,97.07330472916668,97.24066001041668,74.0,89.0
77,97.32123847916668,97.49892433333335,71.0,73.0
78,97.56917222916668,98.01338686458334,69.0,84.0
79,98.06503972916668,99.54024554166668,67.0,82.0
80,99.55264222916668,99.69933636458335,64.0,89.0
81,99.80057597916668,99.98859240625,67.0,83.0
82,100.04850972916668,100.66627798958335,69.0,84.0
83,100.79231097916667,100.96379848958334,69.0,82.0
84,101.04024472916667,101.21793058333334,71.0,84.0
85,101.28817847916667,101.44107095833334,66.0,80.0
86,101.53611222916668,101.72412865625002,64.0,86.0
87,101.78404597916668,102.00925246875,66.0,82.0
88,102.03197972916668,103.60635904166668,62.0,83.0
89,104.01544972916668,104.43693710416667,64.0,87.0
90,104.51131722916668,105.42247376041668,67.0,82.0
91,105.50305222916668,105.85222559375,69.0,83.0
92,105.99891972916669,106.43280379166669,71.0,83.0
93,106.49478722916668,107.34809255208334,74.0,87.0
94,107.48652222916668,107.90800960416668,71.0,87.0
95,107.98238972916668,108.11668717708335,76.0,84.0
96,108.23032347916669,108.58569518750001,76.0,84.0
97,108.72619097916667,108.88734791666668,76.0,86.0
98,108.97412472916668,109.11875275000001,74.0,87.0
99,109.22205847916668,109.36462038541669,76.0,86.0
100,109.46999222916668,109.60222356250001,71.0,85.0
101,109.71792597916668,109.86048788541667,71.0,83.0
102,109.96585972916668,110.68073537500001,69.0,81.0
103,110.70966097916669,110.88114848958335,64.0,89.0
104,110.95759472916669,111.09809052083335,67.0,74.0
105,111.20552847916667,111.35222261458335,69.0,80.0
106,111.45346222916668,111.84395788541669,71.0,83.0
107,111.94932972916668,114.18073347916668,69.0,82.0
108,115.91626972916669,116.50511238541668,71.0,91.0
109,116.66007097916668,116.81089734375001,74.0,87.0
110,116.90800472916668,117.22618637500001,74.0,87.0
111,117.40387222916668,117.76337616666669,66.0,83.0
112,117.89973972916668,118.30883041666668,64.0,89.0
113,118.39560722916667,118.61461537500001,66.0,88.0
114,118.64354097916669,118.88114415625002,64.0,84.0
115,118.89147472916667,119.66420158333335,62.0,84.0
116,119.88320972916668,120.498911875,62.0,84.0
117,120.62701097916668,120.81709352083334,64.0,85.0
118,120.87494472916669,121.21791975000002,66.0,83.0
119,121.37081222916669,121.54849808333334,71.0,83.0
120,121.61874597916668,121.80056406250002,74.0,89.0
121,121.86667972916668,123.01750555208335,69.0,84.0
122,123.85014972916667,124.49064525000001,71.0,86.0
123,124.59395097916668,124.73444677083334,74.0,91.0
124,124.84188472916668,125.19519032291669,74.0,96.0
125,125.33775222916668,125.74477680208335,66.0,82.0
126,125.83361972916668,126.23444595833334,64.0,88.0
127,126.32948722916669,126.58361932291668,66.0,83.0
128,126.57742097916667,126.79849523958335,64.0,84.0
129,126.82535472916668,127.33361891666668,62.0,83.0
130,127.81708972916668,128.44458445625003,66.0,83.0
131,128.56293985000002,128.7207470416667,66.0,76.0
132,128.81210910000001,129.2813778541667,66.0,84.0
133,129.31044760000003,129.81293892083335,64.0,83.0
134,129.80878610000002,131.5675057229167,62.0,84.0
135,131.80214010000003,133.29518921875004,74.0,89.0
136,133.29518921875004,133.6766150854167,76.0,86.0
137,133.79270121875004,134.20729455208337,76.0,84.0
138,134.29021321875004,135.14220251875003,67.0,84.0
139,135.28523721875004,135.60240111875004,64.0,91.0
140,135.78274921875004,136.17868585208336,64.0,93.0
141,136.28026121875004,136.64717631875004,71.0,86.0
142,136.77777321875004,136.9353186854167,74.0,86.0
143,137.02652921875003,137.2151691854167,76.0,91.0
144,137.27528521875004,137.77694315208336,71.0,86.0
145,137.77279721875004,139.51408921875003,69.0,85.0
146,139.76284521875004,141.13722211875003,74.0,91.0
147,141.25538121875005,141.62022335208337,76.0,84.0
148,141.75289321875005,142.14882985208337,76.0,88.0
149,142.25040521875005,143.37395315208337,67.0,82.0
150,143.74294121875005,144.20313981875003,64.0,89.0
151,144.24045321875002,144.57627381875002,76.0,91.0
152,144.73796521875005,144.9514807854167,76.0,84.0
153,144.98672121875003,145.1691422854167,74.0,84.0
154,145.23547721875002,145.6417786854167,76.0,86.0
155,145.73298921875005,147.60902405208336,74.0,87.0
156,148.22054921875002,148.6330695854167,76.0,86.0
157,148.71806121875002,149.2052083854167,76.0,86.0
158,149.21557321875002,149.4601832854167,74.0,91.0
159,149.46432921875004,149.6778447854167,76.0,85.0
160,149.71308521875002,150.61482571875004,67.0,84.0
161,151.20562121875003,151.34658295208337,64.0,91.0
162,151.45437721875004,151.60155785208337,67.0,82.0
163,151.70313321875003,152.30429355208338,69.0,83.0
164,152.44940121875004,152.62767635208337,71.0,80.0
165,152.69815721875003,152.9116727854167,66.0,82.0
166,152.94691321875004,153.1106775854167,69.0,80.0
167,153.19566921875003,153.55014651875004,64.0,81.0
168,153.69318121875003,154.98463945208337,64.0,86.0
169,156.18074121875003,156.59533455208336,59.0,83.0
170,156.67825321875003,157.10735731875002,62.0,83.0
171,157.17576521875003,157.3208728854167,64.0,83.0
172,157.42452121875004,157.60901525208337,64.0,83.0
173,157.67327721875003,158.25785381875005,67.0,83.0
174,158.41954521875005,158.55428805208336,69.0,83.0
175,158.66830121875003,159.03314335208336,71.0,83.0
176,159.16581321875003,159.3047019854167,74.0,86.0
177,159.41456921875005,159.51821755208337,74.0,83.0
178,159.66332521875003,159.99292691875004,74.0,87.0
179,160.16083721875003,160.40959321875005,64.0,83.0
180,160.40337431875002,160.65834921875003,66.0,83.0
181,160.65834921875003,162.59035415208336,62.0,84.0
182,164.14093321875004,164.58662105208336,59.0,84.0
183,164.63844521875004,165.1131545854167,62.0,82.0
184,165.13595721875004,165.6666366854167,64.0,82.0
185,165.63346921875004,166.3382778854167,67.0,82.0
186,166.37973721875005,166.67617145208337,69.0,81.0
187,166.62849321875004,167.15709971875003,71.0,86.0
188,167.12600521875004,167.39963681875003,78.0,84.0
189,167.37476121875002,167.62559018541668,76.0,81.0
190,167.62351721875004,168.97716445208337,74.0,86.0
191,169.11605321875004,169.50577095208337,71.0,86.0
192,169.61356521875004,170.13387985208337,69.0,86.0
193,170.35983321875003,170.53188945208336,71.0,86.0
194,170.60858921875004,170.77028061875004,74.0,88.0
195,170.85734521875003,171.05013111875002,67.0,80.0
196,171.10610121875004,171.26157371875004,64.0,88.0
197,171.35485721875003,171.51032971875003,67.0,82.0
198,171.60361321875004,172.79764201875003,69.0,83.0
199,173.09614921875004,173.27027841875002,71.0,83.0
200,173.34490521875003,173.48172101875002,74.0,88.0
201,173.59366121875004,174.15128925208336,62.0,84.0
202,174.33992921875003,174.50162061875002,64.0,83.0
203,174.58868521875004,174.91621395208335,66.0,82.0
204,175.08619721875004,175.2748371854167,71.0,82.0
205,175.33495321875003,175.49042571875003,74.0,89.0
206,175.58370921875002,175.98586475208336,69.0,83.0
207,176.08122121875004,176.50825235208336,66.0,83.0
208,176.57873321875002,176.81919735208336,64.0,83.0
209,176.82748921875003,177.0907559854167,66.0,83.0
210,177.07624521875005,177.47218185208337,62.0,83.0
211,177.57375721875002,179.05842481875004,62.0,82.0
212,179.05842481875004,179.55677693125003,64.0,83.0
213,179.55265831875005,181.30306863125003,62.0,82.0
214,181.52959231875005,181.91550221250003,74.0,93.0
215,182.02536944583335,182.38813861250003,74.0,99.0
216,182.52288144583335,182.72810514583335,76.0,89.0
217,182.77163744583336,182.93747477916668,74.0,91.0
218,183.02039344583335,183.51168654583336,76.0,93.0
219,183.51790544583335,187.0916999791667,74.0,89.0
220,187.49800144583335,187.84211391250003,69.0,86.0
221,187.99487140625,188.35319069375,71.0,86.0
222,188.48910490625002,188.71150998125003,71.0,86.0
223,188.73622165625002,188.98539771250003,66.0,82.0
224,188.98333840625003,189.26134475000003,64.0,84.0
225,189.23045515625003,189.50640219375003,66.0,71.0
226,189.47757190625003,191.71397849375003,62.0,83.0
227,193.92567340625,194.35194980000003,59.0,84.0
228,194.41990690625002,194.84618330000004,62.0,87.0
229,194.91414040625003,195.30128998125002,64.0,83.0
230,195.40837390625003,196.02410647500002,67.0,83.0
231,196.14972415625002,196.36595131250002,69.0,83.0
232,196.39684090625002,196.61512736875002,71.0,86.0
233,196.64395765625002,196.84446732083336,74.0,93.0
234,196.8920666354167,197.29976511250004,69.0,87.0
235,197.40945048958338,200.99388583125003,69.0,97.0
236,201.3622631354167,201.8092827854167,62.0,85.0
237,201.8589516354167,201.9831237604167,74.0,98.0
238,202.1072958854167,202.23560708125004,74.0,89.0
239,202.3556401354167,202.53775925208336,74.0,88.0
240,202.6039843854167,202.75092140000004,71.0,82.0
241,202.8523286354167,203.01789146875004,69.0,86.0
242,203.10067288541669,203.24140129375004,71.0,82.0
243,203.3490171354167,203.84777517083336,67.0,79.0
244,203.8457056354167,204.2430564354167,66.0,81.0
245,204.3423941354167,204.56176488958337,64.0,84.0
246,204.5907383854167,204.7707879666667,66.0,82.0
247,204.8390826354167,205.22608575833337,62.0,84.0
248,205.3357711354167,208.9740143979167,62.0,83.0
249,209.3092791354167,209.7415828416667,62.0,87.0
250,209.80563239375005,210.1444751854167,74.0,93.0
251,210.30149989375005,210.46885517500004,74.0,89.0
252,210.54943364375004,210.7271194979167,71.0,73.0
253,210.79736739375005,211.24158202916672,69.0,84.0
254,211.29323489375005,212.76844070625003,67.0,82.0
255,212.78083739375003,212.9275315291667,64.0,89.0
256,213.02877114375005,213.2167875708334,67.0,83.0
257,213.27670489375004,213.89447315416672,69.0,84.0
258,214.02050614375005,214.1919936541667,69.0,82.0
259,214.26843989375004,214.4461257479167,71.0,84.0
260,214.51637364375003,214.6692661229167,66.0,80.0
261,214.76430739375004,214.95232382083339,64.0,86.0
262,215.01224114375003,215.23744763333337,66.0,82.0
263,215.26017489375005,216.83455420625003,62.0,83.0
264,217.24364489375003,217.66513226875003,64.0,87.0
265,217.73951239375003,218.65066892500005,67.0,82.0
266,218.73124739375004,219.0804207583334,69.0,83.0
267,219.22711489375004,219.66099895625004,71.0,83.0
268,219.72298239375004,220.5762877166667,74.0,87.0
269,220.71471739375005,221.13620476875005,71.0,87.0
270,221.21058489375005,221.3448823416667,76.0,84.0
271,221.45851864375004,221.81389035208338,76.0,84.0
272,221.95438614375004,222.11554308125005,76.0,86.0
273,222.20231989375003,222.34694791458338,74.0,87.0
274,222.45025364375005,222.59281555000004,76.0,86.0
275,222.69818739375003,222.83041872708338,71.0,85.0
276,222.94612114375005,223.08868305000004,71.0,83.0
277,223.19405489375004,223.90893053958337,69.0,81.0
278,223.93785614375005,224.1093436541667,64.0,89.0
279,224.18578989375004,224.3262856854167,67.0,74.0
280,224.43372364375006,224.5813131541667,69.0,80.0
281,224.68339648750006,225.07714648750004,71.0,83.0
282,225.18339648750006,227.43339648750006,69.0,82.0
283,233.18339648750006,233.61881315416673,62.0,87.0
284,233.68339648750006,234.02506315416673,74.0,93.0
285,234.18339648750006,234.35214648750005,74.0,89.0
286,234.43339648750006,234.6125631541667,71.0,73.0
287,234.68339648750006,235.13131315416672,69.0,84.0
288,235.18339648750006,236.67089648750004,67.0,82.0
289,236.68339648750006,236.8313131541667,64.0,89.0
290,236.93339648750006,237.1229798208334,67.0,83.0
291,237.18339648750006,237.80631315416673,69.0,84.0
292,237.93339648750006,238.1063131541667,69.0,82.0
293,238.18339648750006,238.3625631541667,71.0,84.0
294,238.43339648750006,238.58756315416673,66.0,80.0
295,238.68339648750006,238.8729798208334,64.0,86.0
296,238.93339648750006,239.1604798208334,66.0,82.0
297,239.18339648750006,240.76598914375006,62.0,83.0
298,241.17507983125006,241.59656720625006,64.0,87.0
299,241.67094733125006,242.58210386250008,67.0,82.0
300,242.66268233125007,243.0118556958334,69.0,83.0
301,243.15854983125007,243.59243389375007,71.0,83.0
302,243.65441733125007,244.50772265416674,74.0,87.0
303,244.64615233125008,245.06763970625008,71.0,87.0
304,245.14201983125008,245.27631727916673,76.0,84.0
305,245.38995358125007,245.7453252895834,76.0,84.0
306,245.88582108125007,246.04697801875005,76.0,86.0
307,246.13375483125006,246.2783828520834,74.0,87.0
308,246.38168858125007,246.52425048750007,76.0,86.0
309,246.62962233125006,246.7618536645834,71.0,85.0
310,246.87755608125008,247.02011798750007,71.0,83.0
311,247.12548983125006,247.8403654770834,69.0,81.0
312,247.86929108125005,248.04077859166674,64.0,89.0
313,248.11722483125007,248.25772062291674,67.0,74.0
314,248.36515858125006,248.51185271666674,69.0,80.0
315,248.61309233125007,249.00358798750005,71.0,83.0
316,249.10895983125008,251.34036358125007,69.0,82.0
317,253.07589983125007,253.66474248750006,71.0,91.0
318,253.81970108125006,253.9705274458334,74.0,87.0
319,254.06763483125007,254.3858164770834,74.0,87.0
320,254.56350233125008,254.92300626875007,66.0,83.0
321,255.05936983125008,255.46846051875008,64.0,89.0
322,255.55523733125005,255.7742454770834,66.0,88.0
323,255.80317108125007,256.0407742583334,64.0,84.0
324,256.0511048312501,256.82383168541674,62.0,84.0
325,257.0428398312501,257.6585419770834,62.0,84.0
326,257.7866410812501,257.9767236229167,64.0,85.0
327,258.0345748312501,258.3775498520834,66.0,83.0
328,258.5304423312501,258.70812818541674,71.0,83.0
329,258.7783760812501,258.9601941645834,74.0,89.0
330,259.02630983125005,260.17713565416676,69.0,84.0
331,261.00977983125006,261.6502753520834,71.0,86.0
332,261.75358108125005,261.89407687291674,74.0,91.0
333,262.00151483125006,262.35482042500007,74.0,96.0
334,262.4973823312501,262.90440690416676,66.0,82.0
335,262.99324983125007,263.39407606041675,64.0,88.0
336,263.48911733125004,263.74324942500004,66.0,83.0
337,263.73705108125006,263.95812534166674,64.0,84.0
338,263.9849848312501,264.4932490187501,62.0,83.0
339,264.9767198312501,265.60275255000005,66.0,83.0
340,265.72052108125007,265.8775457895834,66.0,76.0
341,265.9684548312501,266.4353967270834,66.0,84.0
342,266.46432233125006,266.96432206041675,64.0,83.0
343,266.9601898312501,268.7101888833334,62.0,84.0
344,268.94365983125005,270.4312623312501,74.0,89.0
345,270.4312623312501,270.8114274145834,76.0,86.0
346,270.92712983125006,271.3403527479167,76.0,84.0
347,271.4229973312501,272.27217042500007,67.0,84.0
348,272.4147323312501,272.73084786250007,64.0,91.0
349,272.91059983125007,273.30522771666676,64.0,93.0
350,273.40646733125004,273.7721696125001,71.0,86.0
351,273.9023348312501,274.0593595395834,74.0,86.0
352,274.1502685812501,274.3382850083334,76.0,91.0
353,274.39820233125005,274.89820206041674,71.0,86.0
354,274.8940698312501,276.6296060812501,69.0,85.0
355,276.8775398312501,278.24737380000005,74.0,91.0
356,278.36514233125007,278.7287784979167,76.0,84.0
357,278.86100983125004,279.25563771666674,76.0,88.0
358,279.3568773312501,280.47671143541675,67.0,82.0
359,280.84447983125006,281.30315726875006,64.0,89.0
360,281.3403473312501,281.6750578937501,76.0,91.0
361,281.83621483125006,282.0490246333334,76.0,84.0
362,282.0841485812501,282.2659666645834,74.0,84.0
363,282.3320823312501,282.7370407895834,76.0,86.0
364,282.82794983125007,284.71074924791674,74.0,87.0
365,285.32533258125005,285.7399159145834,76.0,86.0
366,285.82533258125005,286.31491591458337,76.0,86.0
367,286.32533258125005,286.5711659145834,74.0,91.0
368,286.57533258125005,286.7899159145834,76.0,85.0
369,286.82533258125005,287.72664080000004,67.0,84.0
370,288.31548345625004,288.45597924791673,64.0,91.0
371,288.56341720625005,288.71011134166673,67.0,82.0
372,288.81135095625007,289.4105241854167,69.0,83.0
373,289.55515220625006,289.7328380604167,71.0,80.0
374,289.8030859562501,290.0158957583334,66.0,82.0
375,290.05101970625003,290.2142427583334,69.0,80.0
376,290.29895345625005,290.65225905000005,64.0,81.0
377,290.7948209562501,292.0820103416667,64.0,86.0
378,293.27415845625006,293.6873813729167,59.0,83.0
379,293.77002595625004,294.19771167500005,62.0,83.0
380,294.26589345625007,294.41052147708336,64.0,83.0
381,294.5138272062501,294.69771140416674,64.0,83.0
382,294.76176095625004,295.34695364375006,67.0,83.0
383,295.5094536437501,295.6448703104167,69.0,83.0
384,295.7594536437501,296.1261203104167,71.0,83.0
385,296.2594536437501,296.39903697708337,74.0,86.0
386,296.5094536437501,296.6136203104167,74.0,83.0
387,296.7594536437501,297.09070364375003,74.0,87.0
388,297.2615369770834,297.5115369770834,64.0,85.0
389,297.5094536437501,297.7594536437501,66.0,83.0
390,297.7594536437501,299.70112031041674,62.0,84.0
391,301.2594536437501,301.7073703104167,59.0,84.0
392,301.7594536437501,302.2365369770834,62.0,82.0
393,302.2594536437501,302.7927869770834,64.0,82.0
394,302.7594536437501,303.4677869770834,67.0,82.0
395,303.5094536437501,303.80737031041673,69.0,81.0
396,303.7594536437501,304.2907036437501,71.0,86.0
397,304.2594536437501,304.53445364375006,78.0,84.0
398,304.5094536437501,304.7615369770834,76.0,81.0
399,304.7594536437501,306.1110715291667,74.0,86.0
400,306.24950120625005,306.6379307479167,71.0,86.0
401,306.74536870625,307.2639634666667,69.0,86.0
402,307.48916995625,307.6606574666667,71.0,86.0
403,307.73710370625,307.89826064375006,74.0,88.0
404,307.98503745625004,308.1771861125,67.0,80.0
405,308.23297120625006,308.38792980000005,64.0,88.0
406,308.48090495625,308.63586355,67.0,82.0
407,308.72883870625003,309.91892070625005,69.0,83.0
408,310.21644120625,310.38999483125,71.0,83.0
409,310.46437495625,310.60073851875006,74.0,88.0
410,310.71230870625004,311.2680935291667,62.0,84.0
411,311.45610995625003,311.61726689375,64.0,83.0
412,311.70404370625005,312.0304898104167,66.0,82.0
413,312.19991120625,312.3879276333334,71.0,82.0
414,312.44784495625004,312.60280355000003,74.0,89.0
415,312.69577870625005,313.0966049354167,69.0,83.0
416,313.19164620625,313.6172658104167,66.0,83.0
417,313.68751370625006,313.9271829979167,64.0,83.0
418,313.93544745625,314.1978440083334,66.0,83.0
419,314.18338120625003,314.57800909166673,62.0,83.0
420,314.67924870625006,316.16685120625004,62.0,82.0
421,316.16685120625004,316.66685093541673,64.0,83.0
422,316.66271870625,318.41891610208336,62.0,82.0
423,318.64618870625003,319.03255213333335,74.0,93.0
424,319.14205620625006,319.5036262583334,74.0,99.0
425,319.63792370625004,319.84246905000003,76.0,89.0
426,319.88585745625005,320.0511466229167,74.0,91.0
427,320.13379120625,320.62346036250005,76.0,93.0
428,320.62965870625004,324.1916402479167,74.0,89.0
429,324.59659870625006,324.93957372708337,69.0,86.0
430,325.09246620625004,325.45197014375003,71.0,86.0
431,325.58833370625,325.81147408125,71.0,86.0
432,325.83626745625,326.0862673208334,66.0,82.0
433,326.08420120625004,326.36312667500005,64.0,84.0
434,326.33213495625006,326.60899431041673,66.0,71.0
435,326.58006870625,328.82386914375,62.0,83.0
436,330.54700870625004,330.93337213333336,74.0,93.0
437,331.04287620625,331.4044462583334,74.0,99.0
438,331.53874370625005,331.74328905000004,76.0,89.0
439,331.78667745625006,331.9519666229167,74.0,91.0
440,332.03461120625,332.5242803625,76.0,93.0
441,332.53047870625005,336.09246024791673,74.0,89.0
442,336.96849283125005,337.1193191958334,74.0,86.0
443,337.22262492500005,337.36518683125,74.0,88.0
444,337.45816198750003,337.69989739375,74.0,88.0
445,337.7164263104167,337.89411216458336,71.0,79.0
446,337.9560956020834,338.1131203104167,69.0,83.0
447,338.2019632375,338.36931851875005,71.0,82.0
448,338.45196310208337,339.0118801541667,67.0,75.0
449,339.4519625604167,339.69576408125005,64.0,83.0
450,339.6730368208334,339.8672515916667,66.0,70.0
451,339.9354333729167,340.34039183125003,62.0,83.0
452,340.45816036250005,342.5201427166667,62.0,85.0
453,344.5738606125,346.4684876854167,78.0,88.0
454,346.41476870625,347.1193137791667,76.0,89.0
455,347.0883220604167,348.0918933604167,78.0,91.0
456,348.08553743541665,349.35672243541666,71.0,87.0
457,349.42663761041666,349.82077504583333,74.0,93.0
458,349.93027911875,350.29184917083336,74.0,99.0
459,350.42614661875,350.6306919625,76.0,89.0
460,350.67408036875,350.83936953541667,74.0,91.0
461,350.92201411875,351.41168327500003,76.0,93.0
462,351.41788161875,354.9798631604167,74.0,89.0
463,355.38482161875,355.72779663958335,69.0,86.0
464,355.88068911875,356.24019305625,71.0,86.0
465,356.37655661875,356.59969699375,71.0,86.0
466,356.62449036875,356.87449023333335,66.0,82.0
467,356.87242411875,357.1513495875,64.0,84.0
468,357.12035786875003,357.39721722291665,66.0,71.0
469,357.36829161875,359.61209205625,62.0,83.0
470,361.33523161875,361.72159504583334,74.0,93.0
471,361.83109911875,362.1926691708333,74.0,99.0
472,362.32696661875,362.5315119625,76.0,89.0
473,362.57490036875,362.7401895354167,74.0,91.0
474,362.82283411875,363.312503275,76.0,93.0
475,363.31870161875,366.88068316041665,74.0,89.0
