,start,end,pitch,velocity
0,4.90288990625,5.1446253125000005,71.0,82.0
1,5.15082365625,5.427683010416667,69.0,71.0
2,5.398757406250001,5.799583635416667,76.0,84.0
3,5.64669115625,5.898757135416667,74.0,75.0
4,4.65495615625,6.020657895833334,62.0,76.0
5,5.894624906250001,6.169418145833333,69.0,78.0
6,6.14255865625,6.402889093750001,71.0,76.0
7,6.39049240625,6.6528889583333335,67.0,74.0
8,6.88635990625,7.198343208333334,71.0,72.0
9,7.134293656250001,7.388425750000001,69.0,68.0
10,7.38222740625,7.677681791666667,76.0,84.0
11,7.630161156250001,7.86569821875,74.0,83.0
12,6.63842615625,8.12602865625,62.0,75.0
13,7.87809490625,8.130160885416666,69.0,70.0
14,8.12602865625,8.382226864583334,71.0,76.0
15,4.65495615625,8.413218583333334,55.0,63.0
16,4.65495615625,8.423549156250001,43.0,60.0
17,8.37396240625,8.57230940625,67.0,77.0
18,8.86982990625,9.1115653125,71.0,82.0
19,9.11776365625,9.394623010416668,69.0,71.0
20,9.36569740625,9.766523635416668,76.0,84.0
21,9.613631156250001,9.865697135416667,74.0,75.0
22,8.621896156250001,9.987597895833334,62.0,76.0
23,9.86156490625,10.136358145833334,69.0,78.0
24,10.10949865625,10.36982909375,71.0,76.0
25,10.35743240625,10.619828958333335,67.0,74.0
26,8.621896156250001,10.90288665625,43.0,74.0
27,8.621896156250001,10.90288665625,55.0,71.0
28,10.853299906250001,11.165283208333333,71.0,72.0
29,11.10123365625,11.35536575,69.0,68.0
30,11.34916740625,11.644621791666667,76.0,84.0
31,11.59710115625,11.83263821875,74.0,83.0
32,10.60536615625,12.092968656250001,62.0,75.0
33,11.845034906250001,12.097100885416667,69.0,70.0
34,12.092968656250001,12.349166864583333,71.0,76.0
35,12.34090240625,12.53924940625,67.0,77.0
36,12.83676990625,13.0785053125,71.0,82.0
37,13.084703656250001,13.361563010416667,69.0,71.0
38,13.33263740625,13.733463635416667,76.0,84.0
39,13.58057115625,13.832637135416668,74.0,75.0
40,12.58883615625,13.954537895833335,62.0,76.0
41,13.82850490625,14.103298145833334,69.0,78.0
42,14.076438656250001,14.33676909375,71.0,76.0
43,14.324372406250001,14.586768958333334,67.0,74.0
44,14.82023990625,15.132223208333334,71.0,72.0
45,15.06817365625,15.32230575,69.0,68.0
46,15.316107406250001,15.611561791666668,76.0,84.0
47,15.564041156250001,15.799578218750002,74.0,83.0
48,14.57230615625,16.059908656250002,62.0,75.0
49,15.81197490625,16.064040885416667,69.0,70.0
50,16.059908656250002,16.316106864583332,71.0,76.0
51,12.58883615625,16.347098583333334,55.0,63.0
52,12.58883615625,16.35742915625,43.0,60.0
53,16.30784240625,16.50618940625,67.0,77.0
54,16.80370990625,17.0454453125,72.0,82.0
55,16.55577615625,17.05164365625,74.0,76.0
56,17.05164365625,17.299577406250002,67.0,71.0
57,17.299577406250002,17.700403635416667,76.0,84.0
58,17.54751115625,17.79957713541667,74.0,75.0
59,17.79544490625,18.070238145833333,67.0,78.0
60,18.043378656250002,18.30370909375,69.0,76.0
61,18.29131240625,18.553708958333335,64.0,74.0
62,18.53924615625,18.553708958333335,64.0,75.0
63,18.78717990625,19.099163208333334,72.0,72.0
64,19.03511365625,19.28924575,62.0,68.0
65,19.283047406250002,19.578501791666667,76.0,84.0
66,19.53098115625,19.76651821875,72.0,83.0
67,19.77891490625,20.030980885416668,67.0,70.0
68,16.55577615625,20.27271629166667,36.0,60.0
69,16.55577615625,20.283046864583334,48.0,67.0
70,20.02684865625,20.283046864583334,69.0,76.0
71,20.27478240625,20.473129406250003,67.0,77.0
72,20.77064990625,21.0123853125,73.0,82.0
73,20.522716156250002,21.01858365625,64.0,76.0
74,21.01858365625,21.29544301041667,69.0,71.0
75,21.26651740625,21.667343635416668,76.0,84.0
76,21.51445115625,21.766517135416667,74.0,75.0
77,21.762384906250002,22.037178145833334,69.0,78.0
78,22.01031865625,22.270649093750002,71.0,76.0
79,22.25825240625,22.506186156250003,64.0,74.0
80,22.506186156250003,23.002053656250002,64.0,75.0
81,22.75411990625,23.066103208333335,71.0,72.0
82,23.002053656250002,23.25618575,69.0,68.0
83,23.24998740625,23.54544179166667,76.0,84.0
84,23.49792115625,23.733458218750002,74.0,83.0
85,23.745854906250003,23.99792088541667,69.0,70.0
86,23.99378865625,24.249986864583335,71.0,76.0
87,20.522716156250002,24.318168645833335,52.0,74.0
88,20.522716156250002,24.3346975625,45.0,75.0
89,24.241722406250002,24.44006940625,64.0,77.0
90,24.73758990625,24.979325312500002,69.0,82.0
91,24.48965615625,24.985523656250002,62.0,76.0
92,24.985523656250002,25.23345740625,66.0,71.0
93,25.23345740625,25.63428363541667,74.0,84.0
94,25.48139115625,25.733457135416668,69.0,75.0
95,25.72932490625,26.004118145833335,64.0,78.0
96,25.97725865625,26.23758909375,66.0,76.0
97,26.225192406250002,26.47312615625,62.0,74.0
98,26.47312615625,26.968993656250003,62.0,75.0
99,26.72105990625,27.033043208333336,69.0,72.0
100,26.968993656250003,27.22312575,66.0,68.0
101,27.21692740625,27.51238179166667,74.0,84.0
102,27.464861156250002,27.700398218750003,69.0,83.0
103,27.71279490625,27.96486088541667,67.0,70.0
104,27.96072865625,28.216926864583336,69.0,76.0
105,24.48965615625,28.285108645833336,50.0,68.0
106,24.48965615625,28.320232593750003,38.0,66.0
107,28.208662406250003,28.45659615625,62.0,77.0
108,28.45659615625,29.149846677083335,62.0,81.0
109,28.45659615625,29.220680010416668,55.0,71.0
110,28.45659615625,29.299846677083337,59.0,75.0
111,29.454013343750002,30.095680010416668,55.0,84.0
112,29.954013343750002,30.293596677083336,62.0,76.0
113,30.204013343750002,30.449846677083336,55.0,75.0
114,30.454013343750002,30.65401334375,62.0,72.0
115,30.454013343750002,30.77901334375,67.0,77.0
116,31.454013343750002,31.66443001041667,55.0,83.0
117,31.454013343750002,31.70818001041667,62.0,81.0
118,28.954013343750002,31.756096677083335,50.0,75.0
119,28.45659615625,31.826930010416667,43.0,83.0
120,32.454013343750006,32.93526334375,36.0,82.0
121,32.204013343750006,33.297763343750006,55.0,70.0
122,32.454013343750006,33.445680010416666,64.0,79.0
123,32.454013343750006,33.506096677083335,60.0,70.0
124,33.454013343750006,34.15193001041667,48.0,75.0
125,33.704013343750006,34.193596677083335,55.0,71.0
126,33.954013343750006,34.24568001041667,60.0,80.0
127,34.454013343750006,35.27693001041667,64.0,76.0
128,34.454013343750006,35.287346677083335,67.0,72.0
129,34.454013343750006,35.30401334375,60.0,74.0
130,35.454013343750006,35.633180010416666,64.0,71.0
131,35.454013343750006,35.66026334375,67.0,74.0
132,35.454013343750006,35.70193001041667,60.0,75.0
133,36.449335850000004,37.22748116666667,61.0,75.0
134,36.449335850000004,37.46340820416667,64.0,82.0
135,37.939401350000004,37.98493112916667,64.0,65.0
136,37.44271285,38.086338364583334,57.0,84.0
137,37.939401350000004,38.09461650625,61.0,89.0
138,38.43608985,38.9948644125,69.0,81.0
139,38.1877456,39.205957025000004,57.0,65.0
140,38.43608985,39.253556339583334,64.0,78.0
141,38.43608985,39.3425463625,61.0,74.0
142,39.429466850000004,39.56812572291667,61.0,69.0
143,39.429466850000004,39.57226479375,57.0,74.0
144,36.94602435,39.58261247083333,52.0,71.0
145,39.429466850000004,39.62400317916667,64.0,80.0
146,36.449335850000004,39.64676806875,45.0,83.0
147,40.42284385,40.6091020375,38.0,83.0
148,40.42284385,41.221684520833335,74.0,88.0
149,40.42284385,41.341717575000004,69.0,76.0
150,40.42284385,41.39552549583333,66.0,69.0
151,40.174499600000004,41.45968109375,62.0,66.0
152,41.91290935,42.30612107916667,62.0,77.0
153,42.409597850000004,43.24271752291667,66.0,82.0
154,42.409597850000004,43.28817204375,62.0,82.0
155,41.41622085,43.469990127083335,57.0,82.0
156,40.919532350000004,43.51131241875,50.0,82.0
157,43.40180834583334,44.29230373125001,66.0,80.0
158,43.40180834583334,44.29436984583334,62.0,83.0
159,43.40180834583334,44.315030991666674,69.0,83.0
160,44.393543345833336,45.19726191875001,59.0,64.0
161,44.393543345833336,45.21792306458334,62.0,72.0
162,44.393543345833336,45.240650325000004,55.0,74.0
163,45.38527834583334,45.6621377,55.0,83.0
164,45.38527834583334,45.699327762500005,59.0,83.0
165,45.38527834583334,45.75098062708334,62.0,83.0
166,46.37701334583334,46.71792225208334,62.0,81.0
167,46.37701334583334,46.73651728333334,59.0,83.0
168,46.872880845833336,47.25717815833334,55.0,76.0
169,44.88941084583334,47.67659941875001,50.0,70.0
170,44.393543345833336,47.70965725208334,43.0,83.0
171,47.36874834583334,47.90800425208334,59.0,83.0
172,47.36874834583334,47.9307315125,62.0,84.0
173,47.86461584583334,47.95759100208334,55.0,87.0
174,47.36874834583334,47.96585546041667,67.0,81.0
175,48.36048334583334,49.02783835625001,62.0,82.0
176,48.36048334583334,49.081557335416676,59.0,83.0
177,48.85635084583334,49.46585464791667,54.0,71.0
178,49.352218345833336,49.534036429166676,59.0,79.0
179,48.36048334583334,49.60015209583334,47.0,84.0
180,49.352218345833336,49.88114367916667,62.0,82.0
181,49.352218345833336,49.93486265833334,66.0,77.0
182,49.84808584583334,50.00511055416667,59.0,76.0
183,50.34395334583334,51.116680200000005,64.0,82.0
184,50.34395334583334,51.11874631458334,61.0,80.0
185,50.34395334583334,51.137341345833335,57.0,75.0
186,50.83982084583334,51.40387012708334,52.0,74.0
187,50.34395334583334,51.47411802291667,45.0,83.0
188,51.33568834583334,51.63114273125001,57.0,80.0
189,51.33568834583334,51.93692768958334,61.0,82.0
190,51.33568834583334,52.14353914791667,64.0,84.0
191,51.831555845833336,52.21378704375,57.0,74.0
192,52.32742334583334,53.02990230416667,57.0,76.0
193,52.32742334583334,53.056761793750006,62.0,79.0
194,53.31915834583334,53.99271170000001,66.0,78.0
195,53.31915834583334,54.11048023125001,62.0,81.0
196,53.81502584583334,54.172463668750005,57.0,80.0
197,54.310893345833335,54.84273445208334,66.0,67.0
198,54.310893345833335,54.89663158541667,62.0,74.0
199,54.807494018750006,55.00027991875001,57.0,66.0
200,55.30500601875001,55.55168905208334,57.0,82.0
201,52.82329084583334,55.65741035208334,45.0,66.0
202,52.32742334583334,55.74240198541668,38.0,84.0
203,55.30500601875001,56.156995318750006,66.0,83.0
204,55.30500601875001,56.16736015208334,62.0,84.0
205,55.80251801875001,56.183943885416674,57.0,82.0
206,56.30003001875001,57.08153845208334,55.0,77.0
207,57.29505401875001,57.55002891875001,55.0,83.0
208,57.29505401875001,57.82366051875001,62.0,77.0
209,56.79754201875001,57.82573348541668,50.0,71.0
210,56.30003001875001,57.85060908541667,67.0,79.0
211,56.30003001875001,57.89621435208334,43.0,83.0
212,57.79256601875001,57.93974665208334,55.0,91.0
213,58.29007801875001,58.81246561875001,55.0,78.0
214,58.29007801875001,59.216694118750006,52.0,77.0
215,58.78759001875001,59.47374198541667,47.0,74.0
216,58.29007801875001,59.49032571875001,40.0,78.0
217,59.28510201875001,59.55458768541668,55.0,83.0
218,59.28510201875001,59.741154685416674,59.0,84.0
219,59.78261401875001,59.871751585416675,52.0,86.0
220,60.28012601875001,60.748616485416676,60.0,78.0
221,60.28012601875001,61.02224808541668,57.0,72.0
222,61.27515001875001,61.385017252083344,57.0,76.0
223,60.77763801875001,61.45964405208334,52.0,70.0
224,60.28012601875001,61.54463568541667,45.0,82.0
225,61.27515001875001,61.72705675208334,60.0,87.0
226,61.27515001875001,61.72705675208334,64.0,86.0
227,61.772662018750005,62.139577118750005,57.0,83.0
228,62.270174018750005,62.898282918750006,66.0,74.0
229,62.270174018750005,62.937669285416675,62.0,82.0
230,62.767686018750005,63.370919318750005,45.0,66.0
231,62.270174018750005,63.410305685416674,38.0,83.0
232,63.265198018750006,63.76892891875001,66.0,83.0
233,63.265198018750006,63.777220785416674,62.0,82.0
234,63.762710018750006,63.86635835208334,57.0,83.0
235,64.26022201875,64.92564431875,62.0,81.0
236,64.26022201875,64.94844695208334,59.0,73.0
237,64.26022201875,65.00441705208334,55.0,75.0
238,65.25524601875,65.30707018541668,55.0,69.0
239,64.75773401875,65.63045298541667,50.0,68.0
240,64.26022201875,65.69886088541668,43.0,83.0
241,65.25524601875,65.72580945208334,59.0,83.0
242,65.25524601875,65.77556065208334,62.0,82.0
243,65.75275801875,65.86884415208334,55.0,84.0
244,66.25027001875,66.86594111875,61.0,71.0
245,66.25027001875,66.97373538541667,64.0,82.0
246,66.25027001875,67.11677008541668,57.0,76.0
247,66.74778201875,67.33443158541667,52.0,78.0
248,66.25027001875,67.36967201875001,45.0,82.0
249,67.24529401875,67.77390051875001,61.0,81.0
250,67.24529401875,67.92315411875,69.0,80.0
251,67.74280601875,68.10764815208334,57.0,81.0
252,67.24529401875,68.11594001875001,64.0,85.0
253,68.24031801875,68.44139578541667,38.0,84.0
254,68.24031801875,68.45176061875,57.0,78.0
255,68.24031801875,68.81245681875001,62.0,79.0
256,68.73783001875,69.08401545208334,57.0,71.0
257,69.16486115208335,69.55043295208334,66.0,81.0
258,69.17108005208334,69.57116261875001,62.0,78.0
259,70.08525835208334,70.51643541875,57.0,66.0
260,70.14952031875,70.56411365208334,62.0,74.0
261,70.23036601875,70.62630265208334,66.0,75.0
262,71.02431225208335,71.15490915208335,62.0,64.0
263,71.08028235208334,71.24197375208334,66.0,63.0
264,71.17771178541668,71.30416275208334,69.0,68.0
265,71.21502518541668,71.38708141875,74.0,75.0
266,70.15573921875,71.61718071875,38.0,84.0
267,72.96516085625001,73.24615243958334,55.0,58.0
268,72.71722710625001,73.25854912708334,62.0,77.0
269,73.21309460625001,73.76681331458335,64.0,84.0
270,73.46102835625001,73.76887942916667,55.0,73.0
271,72.46917001875,74.03334209583335,50.0,69.0
272,72.22041401875,74.04573878333335,43.0,82.0
273,73.95689585625001,74.483755075,55.0,70.0
274,73.70896210625001,74.61392029375001,62.0,76.0
275,74.70069710625,75.19243237708334,55.0,75.0
276,74.94863085625,75.23168855416668,59.0,73.0
277,74.45276335625,75.37425046041668,50.0,66.0
278,74.20482960625,75.97755591875001,43.0,81.0
279,75.44449835625001,76.0333410125,50.0,68.0
280,75.69243210625001,76.18829960625001,55.0,73.0
281,75.19656460625,76.25854750208335,62.0,80.0
282,75.94036585625001,76.28540699166668,59.0,76.0
283,76.68416710625002,76.97135703333335,61.0,70.0
284,76.93210085625,77.23375358541668,57.0,71.0
285,77.18003460625,77.72135662708334,64.0,83.0
286,77.42796835625,77.72548885625001,57.0,62.0
287,77.67590210625,77.97342260625001,61.0,82.0
288,76.18829960625001,78.06433164791667,45.0,83.0
289,76.43623335625001,78.08499279375,52.0,75.0
290,77.92383585625001,78.24201750208334,57.0,76.0
291,78.41970335625001,78.68623213750001,57.0,76.0
292,78.66763710625001,78.996149325,62.0,76.0
293,78.91557085625001,79.23995084583333,57.0,69.0
294,79.16350460625002,79.4300333875,64.0,81.0
295,79.41143835625,79.68623159583335,62.0,79.0
296,78.17176960625001,79.77300840833334,50.0,83.0
297,79.65937210625,79.85358687708334,57.0,74.0
298,80.40317335625001,80.80399958541668,52.0,80.0
299,80.65110710625001,81.19862747083334,57.0,82.0
300,81.14697460625001,81.66763548125002,64.0,82.0
301,80.15523960625,81.86391636666667,45.0,83.0
302,81.64284210625001,82.05399890833334,57.0,76.0
303,81.39490835625001,82.05813113750001,52.0,79.0
304,81.89077585625,82.21515584583334,64.0,76.0
305,82.63457710625,83.22548587708334,62.0,78.0
306,82.88251085625001,83.25854371041667,59.0,78.0
307,83.13044460625001,83.46515516875002,54.0,78.0
308,82.13870960625,83.63457656458334,47.0,83.0
309,83.37837835625001,83.66350216875001,59.0,82.0
310,83.62631210625001,84.01474164791668,62.0,73.0
311,83.87424585625001,84.20482418958335,59.0,77.0
312,84.12217960625001,84.63870825208335,64.0,72.0
313,84.61804710625,85.12837740833334,59.0,73.0
314,84.86598085625,85.15936912708334,64.0,82.0
315,84.37011335625002,85.37424504375001,47.0,65.0
316,85.11391460625,85.41763345000001,67.0,84.0
317,84.12217960625001,85.43416236666667,40.0,82.0
318,85.36184835625001,85.62424490833334,64.0,82.0
319,85.60978210625001,85.89490591875001,59.0,76.0
320,85.85771585625001,86.61391379375002,64.0,77.0
321,86.60151710625001,86.91143429375,57.0,70.0
322,86.84945085625,87.12631021041668,60.0,74.0
323,87.09738460625,87.41143402291668,64.0,83.0
324,87.34531835625,87.57336107708335,60.0,81.0
325,86.35358335625001,87.88534107708334,52.0,71.0
326,86.10564960625001,87.91861894375,45.0,80.0
327,87.59415974375001,87.97477534375001,57.0,74.0
328,87.84374374375001,88.08916801041667,60.0,76.0
329,88.34291174375001,88.62785347708335,57.0,77.0
330,88.59249574375,88.93567374375002,62.0,76.0
331,88.84207974375,89.19357721041668,57.0,68.0
332,89.09166374375002,89.37244574375,64.0,81.0
333,89.34124774375002,89.61371027708334,62.0,80.0
334,88.09332774375001,89.97144734375001,50.0,84.0
335,89.59083174375002,90.11703801041668,57.0,76.0
336,90.08999974375001,90.41445894375,60.0,76.0
337,90.08999974375001,90.65156374375002,64.0,82.0
338,90.58916774375001,91.14657201041668,60.0,82.0
339,90.83875174375001,91.21728747708335,64.0,83.0
340,91.08833574375001,91.61246214375001,67.0,78.0
341,90.08999974375001,91.92652201041668,48.0,83.0
342,90.33958374375001,91.93484147708334,55.0,75.0
343,91.33791974375,92.00347707708335,60.0,82.0
344,91.58750374375,92.16154694375001,64.0,86.0
345,91.83708774375002,92.87078147708334,67.0,79.0
346,92.33625574375002,93.13700441041668,59.0,77.0
347,92.83542374375001,93.21603934375001,66.0,82.0
348,92.58583974375001,93.32419241041669,62.0,82.0
349,92.08667174375002,94.01678801041668,47.0,85.0
350,93.33459174375001,94.30588947708334,66.0,74.0
351,93.08500774375001,94.32252841041668,71.0,77.0
352,93.83375974375001,94.34540694375,59.0,83.0
353,93.58417574375001,94.35788614375001,62.0,77.0
354,94.58251174375002,95.37702081041668,57.0,79.0
355,94.83209574375002,95.38950001041668,60.0,76.0
356,94.33292774375002,95.82835187708335,52.0,71.0
357,94.08334374375,95.86578947708334,45.0,83.0
358,95.08167974375002,95.98434187708335,69.0,84.0
359,95.33126374375001,96.02593921041668,64.0,80.0
360,95.58084774375001,96.02801907708334,60.0,77.0
361,95.83043174375001,96.05297747708335,57.0,75.0
362,96.08001574375001,96.82123875,59.0,71.0
363,96.08001574375001,96.84189989583335,62.0,81.0
364,96.08001574375001,96.92661059375001,55.0,77.0
365,97.07330472916668,97.44933758333335,59.0,84.0
366,97.07330472916668,97.47826318750002,62.0,86.0
367,96.57743722916668,97.63942012500002,50.0,75.0
368,96.08001574375001,97.72206470833335,43.0,84.0
369,97.56917222916668,97.92867616666668,55.0,84.0
370,98.06503972916668,98.6187584375,55.0,72.0
371,98.06503972916668,98.63735346875,59.0,75.0
372,98.06503972916668,98.64561792708335,62.0,77.0
373,98.56090722916667,99.41008032291668,50.0,62.0
374,98.06503972916668,99.53404719791668,43.0,81.0
375,99.05677472916668,99.58363394791668,62.0,83.0
376,99.05677472916668,99.60842732291668,59.0,83.0
377,99.55264222916668,99.68900579166667,55.0,82.0
378,99.05677472916668,99.80677432291668,67.0,77.0
379,100.04850972916668,100.53404665625001,61.0,69.0
380,100.04850972916668,100.60016232291667,57.0,77.0
381,100.04850972916668,101.35842637500001,45.0,83.0
382,100.54437722916668,101.37495529166668,52.0,67.0
383,101.04024472916667,101.55057503125002,61.0,77.0
384,101.04024472916667,101.59602955208335,57.0,80.0
385,101.04024472916667,101.67867413541668,64.0,82.0
386,101.53611222916668,101.99272355208335,45.0,81.0
387,102.03197972916668,102.31503742708334,57.0,76.0
388,102.03197972916668,102.66627690625002,62.0,77.0
389,102.52784722916668,102.9080123125,57.0,76.0
390,102.03197972916668,103.36049140625002,50.0,82.0
391,103.02371472916668,103.52371445833334,62.0,83.0
392,103.02371472916668,103.53404503125002,66.0,82.0
393,104.01544972916668,104.54850729166668,60.0,75.0
394,104.01544972916668,104.61049072916668,57.0,72.0
395,104.01544972916668,105.29644077083334,45.0,83.0
396,104.51131722916668,105.39354815625,52.0,71.0
397,105.00718472916668,105.41007707291668,57.0,78.0
398,105.00718472916668,105.43693656250001,60.0,84.0
399,105.00718472916668,105.54024229166669,64.0,83.0
400,105.50305222916668,105.85222559375,45.0,83.0
401,105.99891972916669,106.65594416666667,62.0,81.0
402,105.99891972916669,106.68280365625002,59.0,81.0
403,106.49478722916668,107.08156377083334,54.0,69.0
404,105.99891972916669,107.21586121875,47.0,82.0
405,106.99065472916668,107.25098516666668,59.0,83.0
406,106.99065472916668,107.44726605208335,62.0,86.0
407,106.99065472916668,107.47205942708335,66.0,83.0
408,107.48652222916668,108.04850539583335,59.0,75.0
409,107.98238972916668,108.52784397916668,64.0,83.0
410,107.98238972916668,108.53817455208335,67.0,79.0
411,108.47825722916667,108.89767848958334,59.0,83.0
412,107.98238972916668,109.08569491666668,40.0,77.0
413,108.97412472916668,109.49271948958335,64.0,85.0
414,108.97412472916668,109.50098394791668,67.0,83.0
415,109.46999222916668,109.64974419791668,59.0,78.0
416,109.96585972916668,110.61875193750001,60.0,74.0
417,109.96585972916668,110.66007422916668,57.0,76.0
418,109.96585972916668,111.25098300000002,45.0,82.0
419,110.46172722916668,111.25718134375,52.0,71.0
420,110.95759472916669,111.43280108333335,57.0,75.0
421,110.95759472916669,111.44313165625002,60.0,79.0
422,110.95759472916669,111.46792503125002,64.0,82.0
423,111.45346222916668,111.90180909375002,45.0,82.0
424,111.94932972916668,112.19106513541668,57.0,76.0
425,111.94932972916668,112.63114754166668,62.0,77.0
426,112.44519722916668,113.03197377083335,57.0,83.0
427,111.94932972916668,113.38527936458334,50.0,83.0
428,112.94106472916668,113.47412229166667,62.0,84.0
429,113.43693222916667,113.52990738541668,57.0,80.0
430,112.94106472916668,113.56296521875001,66.0,87.0
431,114.42866722916668,114.99478262500001,59.0,79.0
432,114.92453472916668,115.42866668750001,62.0,82.0
433,114.92453472916668,115.46172452083334,66.0,85.0
434,113.93279972916667,115.53610464583335,47.0,84.0
435,115.42040222916668,115.66626986458334,59.0,84.0
436,115.91626972916669,116.16420347916667,59.0,83.0
437,115.91626972916669,116.55469913541668,64.0,83.0
438,116.41213722916669,117.02164103125001,59.0,75.0
439,116.90800472916668,117.49271515625001,64.0,84.0
440,116.90800472916668,117.69519438541668,67.0,82.0
441,115.91626972916669,117.71378941666669,52.0,89.0
442,117.40387222916668,117.75717782291667,59.0,82.0
443,117.89973972916668,118.21378914583335,59.0,72.0
444,117.89973972916668,118.56916085416668,64.0,74.0
445,118.39560722916667,118.76544173958335,59.0,75.0
446,118.89147472916667,119.09808618750002,59.0,78.0
447,118.89147472916667,119.38527611458335,64.0,84.0
448,117.89973972916668,119.42246617708335,52.0,80.0
449,118.89147472916667,119.47825127083334,67.0,79.0
450,119.38734222916668,119.62287929166668,59.0,74.0
451,119.88320972916668,120.14147405208334,59.0,74.0
452,119.88320972916668,120.49271353125002,66.0,75.0
453,119.88320972916668,120.55676308333335,62.0,77.0
454,120.37907722916668,120.61668040625001,59.0,70.0
455,119.88320972916668,121.08568841666668,47.0,83.0
456,120.87494472916669,121.38734114583335,59.0,83.0
457,120.87494472916669,121.47825018750001,62.0,83.0
458,121.37081222916669,121.56296088541669,54.0,72.0
459,121.61874597916668,121.91006813541668,62.0,47.0
460,120.87494472916669,121.95965488541668,66.0,82.0
461,121.61874597916668,122.04229946875002,59.0,73.0
462,122.36254722916668,123.07329064583334,52.0,78.0
463,122.85841472916668,123.42866235416668,57.0,82.0
464,122.85841472916668,123.48651356250002,64.0,85.0
465,121.86667972916668,123.52990196875001,45.0,83.0
466,123.35428222916669,123.72411673958335,52.0,83.0
467,123.85014972916667,124.49684359375001,59.0,77.0
468,123.85014972916667,124.50924028125002,62.0,79.0
469,124.34601722916668,125.02990115625002,54.0,73.0
470,123.85014972916667,125.12081019791668,47.0,85.0
471,124.84188472916668,125.21791758333335,62.0,84.0
472,124.84188472916668,125.22204981250002,59.0,83.0
473,124.84188472916668,125.27576879166668,66.0,82.0
474,125.83361972916668,126.42039627083335,64.0,82.0
475,125.83361972916668,126.48237970833335,59.0,78.0
476,126.32948722916669,126.82328861458335,47.0,72.0
477,125.83361972916668,126.96585052083334,40.0,83.0
478,126.82535472916668,127.04229676041668,59.0,81.0
479,126.82535472916668,127.39353623958334,64.0,84.0
480,127.32122222916668,127.47824693750002,59.0,86.0
481,127.81708972916668,128.56086343958336,61.0,72.0
482,127.81708972916668,128.59823882708335,57.0,72.0
483,127.81708972916668,129.0010624479167,45.0,83.0
484,128.31377060000003,129.0384378354167,52.0,82.0
485,128.81210910000001,129.16717528125002,57.0,82.0
486,128.81210910000001,129.2003978479167,61.0,84.0
487,128.81210910000001,129.20870348958337,64.0,84.0
488,129.31044760000003,129.51808864166668,45.0,85.0
489,129.80878610000002,130.0974071479167,57.0,79.0
490,129.80878610000002,130.34242357708337,62.0,81.0
491,130.30712460000004,130.38602819583335,57.0,70.0
492,130.55629385000003,130.65388513958337,57.0,52.0
493,130.55629385000003,130.66426719166668,62.0,68.0
494,130.55629385000003,130.66842001250004,66.0,65.0
495,130.80546310000003,131.1127718416667,62.0,88.0
496,130.80546310000003,131.11692466250003,57.0,83.0
497,130.80546310000003,131.18544620625002,66.0,84.0
498,131.3038016,131.50728982083336,57.0,84.0
499,131.3038016,131.70662522083336,62.0,84.0
500,131.55297085000004,131.73154214583337,57.0,76.0
501,131.05463235000002,131.76061189166668,45.0,76.0
502,129.80878610000002,131.77514676458335,38.0,81.0
503,131.80214010000003,132.1281089854167,55.0,82.0
504,131.80214010000003,132.3022381854167,62.0,83.0
505,132.54892121875002,132.76450975208337,59.0,75.0
506,132.30016521875004,132.91998225208337,55.0,82.0
507,132.79767721875004,133.07130881875003,67.0,86.0
508,133.04643321875002,133.38018085208336,62.0,82.0
509,133.29518921875004,133.61028015208336,59.0,86.0
510,131.80214010000003,133.67454211875003,43.0,84.0
511,132.05130935000003,133.67454211875003,50.0,75.0
512,133.54394521875003,134.1741270854167,55.0,96.0
513,134.53896921875003,134.87271685208336,59.0,81.0
514,134.29021321875004,135.02404341875004,55.0,76.0
515,134.04145721875003,135.14634845208337,50.0,76.0
516,133.79270121875004,135.21682931875003,43.0,83.0
517,134.78772521875004,135.26658051875003,67.0,86.0
518,135.03648121875003,135.35364511875002,62.0,83.0
519,135.28523721875004,135.58996331875002,59.0,84.0
520,135.53399321875003,135.88017865208337,55.0,88.0
521,136.03150521875003,136.98092395208337,47.0,71.0
522,136.28026121875004,137.0721344854167,52.0,82.0
523,135.78274921875004,137.07628041875003,40.0,87.0
524,136.52901721875003,137.08042635208338,55.0,78.0
525,137.27528521875004,137.77901611875004,55.0,83.0
526,137.52404121875003,137.78523501875003,52.0,86.0
527,137.02652921875003,137.7935268854167,59.0,84.0
528,136.77777321875004,137.98631278541671,64.0,87.0
529,138.51906521875003,138.91707481875002,60.0,82.0
530,138.27030921875004,139.02901501875004,57.0,82.0
531,138.02155321875003,139.1305903854167,52.0,77.0
532,137.77279721875004,139.2611872854167,45.0,88.0
533,139.26533321875004,140.06135241875003,60.0,79.0
534,139.01657721875003,140.06135241875003,64.0,82.0
535,139.51408921875003,140.07793615208337,57.0,71.0
536,138.76782121875004,140.08000911875004,69.0,88.0
537,140.26035721875004,141.03771971875003,55.0,83.0
538,140.50911321875003,141.06674125208338,59.0,78.0
539,140.75786921875005,141.57047215208337,67.0,85.0
540,141.00662521875003,141.57254511875004,62.0,82.0
541,141.25538121875005,141.58498291875003,59.0,84.0
542,140.01160121875003,141.6243692854167,50.0,76.0
543,139.76284521875004,141.63266115208336,43.0,86.0
544,141.50413721875003,142.12395425208337,55.0,84.0
545,142.49916121875003,142.81632511875003,62.0,77.0
546,141.75289321875005,142.92619235208338,59.0,81.0
547,142.00164921875003,143.00289211875003,50.0,75.0
548,142.25040521875005,143.02776771875003,55.0,80.0
549,141.75289321875005,143.1355619854167,43.0,83.0
550,142.99667321875003,143.33871271875003,62.0,83.0
551,142.74791721875005,143.4340691854167,67.0,83.0
552,143.24542921875005,143.51076895208337,59.0,82.0
553,143.49418521875003,143.6081983854167,55.0,83.0
554,143.74294121875005,144.05803215208337,57.0,80.0
555,143.74294121875005,144.27776661875004,61.0,84.0
556,144.48920921875003,144.79393531875004,64.0,80.0
557,144.24045321875002,144.94940781875005,57.0,89.0
558,143.99169721875003,145.16085041875004,52.0,77.0
559,144.98672121875003,145.29144731875004,64.0,82.0
560,143.74294121875005,145.3059580854167,45.0,82.0
561,144.73796521875005,145.31010401875002,69.0,87.0
562,145.23547721875002,145.54020331875003,61.0,82.0
563,145.48423321875003,145.6355597854167,57.0,82.0
564,145.73298921875005,145.96723445208337,57.0,82.0
565,145.73298921875005,146.2761064854167,62.0,84.0
566,146.23050121875002,146.59534335208338,57.0,76.0
567,146.47925721875004,146.6554593854167,62.0,75.0
568,145.98174521875004,146.91458021875005,45.0,72.0
569,145.73298921875005,146.97469625208336,38.0,87.0
570,146.72801321875002,147.1591902854167,66.0,91.0
571,146.97676921875004,147.23589005208336,62.0,74.0
572,147.22552521875002,147.3519761854167,57.0,84.0
573,147.72303721875002,147.87643675208338,55.0,81.0
574,147.72303721875002,148.02154441875004,60.0,77.0
575,147.97179321875004,148.31175975208336,55.0,80.0
576,148.22054921875002,148.55636981875003,60.0,77.0
577,148.46930521875004,148.78232318541671,55.0,69.0
578,148.71806121875002,149.24044881875002,64.0,91.0
579,148.96681721875004,149.25288661875004,55.0,78.0
580,147.72303721875002,149.31507561875003,48.0,89.0
581,149.21557321875002,149.4912777854167,60.0,71.0
582,149.46432921875004,149.63638545208337,55.0,77.0
583,149.71308521875002,150.00951945208337,55.0,75.0
584,149.71308521875002,150.26449435208337,59.0,78.0
585,150.21059721875002,150.73713075208337,62.0,75.0
586,150.45935321875004,150.99832455208337,55.0,80.0
587,149.71308521875002,151.24500758541672,43.0,83.0
588,149.96184121875004,151.25329945208335,50.0,73.0
589,151.20562121875003,151.4751068854167,59.0,83.0
590,150.95686521875004,151.49790951875002,62.0,80.0
591,151.45437721875004,151.55802555208336,55.0,81.0
592,150.70810921875002,151.64094421875004,67.0,84.0
593,151.70313321875003,152.03688085208336,59.0,74.0
594,151.70313321875003,152.24210455208336,62.0,76.0
595,152.20064521875003,152.55304955208337,59.0,82.0
596,152.44940121875004,152.72095985208335,62.0,77.0
597,151.95188921875004,152.84119191875004,54.0,80.0
598,151.70313321875003,152.96556991875002,47.0,83.0
599,152.69815721875003,153.0111751854167,66.0,91.0
600,152.94691321875004,153.23298261875004,62.0,82.0
601,153.19566921875003,153.5833139854167,59.0,77.0
602,153.44442521875004,153.65379485208337,62.0,76.0
603,153.69318121875003,154.1616716854167,64.0,80.0
604,154.19069321875003,154.52651381875003,59.0,82.0
605,154.43944921875004,154.60735951875003,64.0,80.0
606,154.68820521875003,154.9701286854167,67.0,87.0
607,153.94193721875004,154.99707725208336,47.0,75.0
608,153.69318121875003,155.0696310854167,40.0,84.0
609,154.93696121875004,155.24790621875005,64.0,76.0
610,155.18571721875003,155.33289785208336,59.0,78.0
611,155.68322921875003,156.16830341875004,55.0,76.0
612,155.68322921875003,156.22427351875004,59.0,78.0
613,156.18074121875003,156.69690991875004,62.0,78.0
614,156.42949721875004,156.7549529854167,59.0,76.0
615,156.67825321875003,157.21100565208337,67.0,84.0
616,156.92700921875004,157.24417311875004,62.0,79.0
617,157.17576521875003,157.43074011875004,59.0,83.0
618,155.68322921875003,157.5136587854167,43.0,82.0
619,157.42452121875004,157.52816955208337,55.0,82.0
620,155.93198521875004,157.53024251875004,50.0,74.0
621,157.67327721875003,158.21639448541669,61.0,78.0
622,158.17078921875003,158.6765930854167,57.0,80.0
623,158.41954521875005,158.78024141875002,61.0,75.0
624,158.66830121875003,159.04765411875005,69.0,82.0
625,158.91705721875005,159.26531561875004,64.0,83.0
626,159.16581321875003,159.4415177854167,61.0,87.0
627,157.67327721875003,159.51821755208337,45.0,82.0
628,157.92203321875004,159.54516611875005,52.0,76.0
629,159.41456921875005,159.5596768854167,57.0,80.0
630,159.66332521875003,159.77941135208337,57.0,82.0
631,159.66332521875003,159.94939461875003,62.0,83.0
632,159.91208121875005,160.1940046854167,57.0,82.0
633,160.16083721875003,160.4365417854167,62.0,79.0
634,160.40959321875005,160.6977355854167,57.0,83.0
635,160.65834921875003,161.16000715208338,64.0,82.0
636,160.90710521875002,161.20975835208336,57.0,79.0
637,161.15586121875003,161.46058731875004,62.0,78.0
638,159.66332521875003,161.52277631875003,50.0,86.0
639,161.40461721875005,161.74665671875005,57.0,78.0
640,161.65337321875003,161.94980745208338,62.0,81.0
641,161.65337321875003,162.13015555208335,66.0,77.0
642,161.90212921875002,162.2089282854167,57.0,73.0
643,162.15088521875003,162.42244385208338,62.0,76.0
644,162.39964121875005,162.5509677854167,57.0,74.0
645,162.64839721875003,163.13139845208337,66.0,84.0
646,162.89715321875002,163.21224415208337,57.0,71.0
647,161.65337321875003,163.22053601875004,50.0,88.0
648,163.14590921875003,163.23090085208338,62.0,83.0
649,163.64342121875003,164.13471431875004,59.0,73.0
650,163.64342121875003,164.46846195208337,55.0,72.0
651,164.14093321875004,164.98670361875003,50.0,73.0
652,164.63844521875004,165.02816295208336,59.0,84.0
653,163.64342121875003,165.07376821875005,43.0,82.0
654,164.63844521875004,165.14010315208338,62.0,83.0
655,165.13595721875004,165.22924071875002,55.0,83.0
656,165.63346921875004,165.9340493854167,59.0,78.0
657,165.63346921875004,166.13720011875003,64.0,83.0
658,166.13098121875004,166.4502180854167,59.0,75.0
659,166.37973721875005,166.51448005208337,64.0,77.0
660,165.63346921875004,166.83993581875004,40.0,88.0
661,165.88222521875002,166.8482276854167,47.0,76.0
662,166.62849321875004,167.11978631875002,59.0,82.0
663,166.62849321875004,167.1218592854167,64.0,83.0
664,166.62849321875004,167.13844301875002,67.0,76.0
665,167.62351721875004,168.30759621875004,62.0,80.0
666,167.62351721875004,168.36771225208338,59.0,82.0
667,167.62351721875004,168.38015005208337,66.0,79.0
668,168.61854121875004,168.8009622854167,59.0,80.0
669,168.61854121875004,168.85278645208336,62.0,83.0
670,168.61854121875004,168.88180798541669,66.0,84.0
671,168.12102921875004,169.43736305208336,54.0,74.0
672,167.62351721875004,169.4477278854167,47.0,83.0
673,169.61356521875004,170.3432494854167,71.0,85.0
674,169.86232121875003,170.49043011875003,66.0,83.0
675,170.11107721875004,170.4987219854167,62.0,73.0
676,170.35983321875003,170.53188945208336,59.0,79.0
677,170.60858921875004,171.01074475208338,54.0,72.0
678,169.61356521875004,171.03562035208336,47.0,83.0
679,170.60858921875004,171.06878781875002,59.0,82.0
680,170.60858921875004,171.08329858541669,62.0,84.0
681,171.10610121875004,171.4439947854167,47.0,83.0
682,171.60361321875004,172.16953311875002,60.0,78.0
683,171.60361321875004,172.37890275208338,57.0,73.0
684,172.10112521875004,172.7997149854167,52.0,71.0
685,172.59863721875004,173.0422520854167,57.0,78.0
686,172.59863721875004,173.0671276854167,60.0,87.0
687,172.59863721875004,173.13760855208335,64.0,87.0
688,171.60361321875004,173.15626525208336,45.0,82.0
689,173.09614921875004,173.48586695208337,52.0,87.0
690,173.59366121875004,174.13263255208335,59.0,79.0
691,173.59366121875004,174.3793155854167,62.0,81.0
692,174.33992921875003,174.46845315208338,59.0,81.0
693,174.09117321875004,174.89963021875002,54.0,71.0
694,174.58868521875004,175.0074244854167,66.0,88.0
695,173.59366121875004,175.10899985208337,47.0,87.0
696,174.83744121875003,175.14631325208336,62.0,80.0
697,175.08619721875004,175.27898311875003,59.0,82.0
698,175.58370921875002,176.27815305208338,57.0,76.0
699,175.58370921875002,176.3196123854167,61.0,70.0
700,176.08122121875004,176.8046865854167,52.0,75.0
701,175.58370921875002,176.91455381875005,45.0,82.0
702,176.57873321875002,177.08868301875003,61.0,83.0
703,176.57873321875002,177.1840394854167,64.0,85.0
704,177.07624521875005,177.39962801875004,57.0,81.0
705,177.57375721875002,178.14203353750003,57.0,78.0
706,177.57375721875002,178.36032000000003,62.0,78.0
707,178.31707456875003,178.68569038750005,57.0,69.0
708,178.56419131875003,178.82160460000003,66.0,86.0
709,178.81130806875004,179.09961094375004,64.0,88.0
710,178.06995781875003,179.35908353125004,45.0,74.0
711,179.05842481875004,179.36526145000005,62.0,83.0
712,177.57375721875002,179.41056618750002,38.0,85.0
713,179.55265831875005,180.19928048125004,62.0,78.0
714,179.30554156875004,180.20751770625003,57.0,79.0
715,180.54112531875003,180.71822565625004,62.0,88.0
716,180.78824206875004,180.88297015625002,62.0,59.0
717,180.04689181875003,180.90150391250003,45.0,69.0
718,180.78824206875004,181.23923013750004,57.0,88.0
719,181.28247556875004,181.50488064375003,57.0,78.0
720,180.54112531875003,181.54400746250005,66.0,89.0
721,181.03535881875004,181.58313428125004,45.0,75.0
722,179.55265831875005,181.62843901875004,38.0,84.0
723,181.52959231875005,182.33424147916668,59.0,64.0
724,181.52959231875005,182.35497114583336,62.0,72.0
725,181.52959231875005,182.3777737791667,55.0,74.0
726,182.52288144583335,182.80065897916668,55.0,83.0
727,182.52288144583335,182.8379723791667,59.0,83.0
728,182.52288144583335,182.88979654583335,62.0,83.0
729,183.51790544583335,183.85994494583335,62.0,81.0
730,183.51790544583335,183.87860164583336,59.0,83.0
731,184.01541744583335,184.40098924583336,55.0,76.0
732,182.02536944583335,184.82180147916668,50.0,70.0
733,181.52959231875005,184.85496894583335,43.0,83.0
734,184.51292944583335,185.05397374583336,59.0,83.0
735,184.51292944583335,185.0767763791667,62.0,84.0
736,185.01044144583335,185.10372494583336,55.0,87.0
737,184.51292944583335,185.11201681250003,67.0,81.0
738,185.50795344583335,186.1775216791667,62.0,82.0
739,185.50795344583335,186.2314188125,59.0,83.0
740,186.00546544583335,186.61699061250002,54.0,71.0
741,186.50297744583335,186.68539851250003,59.0,79.0
742,185.50795344583335,186.75173344583337,47.0,84.0
743,186.50297744583335,187.03365691250002,62.0,82.0
744,186.50297744583335,187.08755404583334,66.0,77.0
745,187.00048944583335,187.15803491250003,59.0,76.0
746,187.49800144583335,188.27081844375002,64.0,82.0
747,187.49800144583335,188.27287775000002,61.0,80.0
748,187.49800144583335,188.29141150625003,57.0,75.0
749,187.99487140625,188.5570620125,52.0,74.0
750,187.49800144583335,188.627078425,45.0,83.0
751,188.48910490625002,188.78358570000003,57.0,80.0
752,188.48910490625002,189.08836302500004,61.0,82.0
753,188.48910490625002,189.29429365000001,64.0,84.0
754,188.98333840625003,189.3643100625,57.0,74.0
755,189.47757190625003,190.17773603125002,57.0,76.0
756,189.47757190625003,190.20450701250002,62.0,79.0
757,190.46603890625002,191.13737274375003,66.0,78.0
758,190.46603890625002,191.2547532,62.0,81.0
759,190.96027240625003,191.31653238750002,57.0,80.0
760,191.45450590625003,191.98374761250003,66.0,67.0
761,191.45450590625003,192.03728957500002,62.0,74.0
762,191.94873940625,192.14025488750002,57.0,66.0
763,192.44297290625002,192.68803035000002,57.0,82.0
764,189.97180540625,192.79305496875003,45.0,66.0
765,189.47757190625003,192.87748652500002,38.0,84.0
766,192.44297290625002,193.289347775,66.0,83.0
767,192.44297290625002,193.29964430625003,62.0,84.0
768,192.93720640625003,193.31611875625003,57.0,82.0
769,193.43143990625003,194.20779836250003,55.0,77.0
770,194.41990690625002,194.67320157500004,55.0,83.0
771,194.41990690625002,194.94503000000003,62.0,77.0
772,193.92567340625,194.94708930625004,50.0,71.0
773,193.43143990625003,194.97180098125003,67.0,79.0
774,193.43143990625003,195.01710571875003,43.0,83.0
775,194.91414040625003,195.06035115000003,55.0,91.0
776,195.40837390625003,195.92731908125003,55.0,78.0
777,195.40837390625003,196.32888380000003,52.0,77.0
778,195.90260740625,196.58423777500002,47.0,74.0
779,195.40837390625003,196.60071222500002,40.0,78.0
780,196.39684090625002,196.66455071875004,55.0,83.0
781,196.39684090625002,196.85067592708336,59.0,84.0
782,196.8920666354167,196.98105665833336,52.0,86.0
783,197.3887551354167,197.85647013958337,60.0,78.0
784,197.3887551354167,198.12964881458336,57.0,72.0
785,198.3821321354167,198.49181751250003,57.0,76.0
786,197.8854436354167,198.56632078750002,52.0,70.0
787,197.3887551354167,198.65117173958336,45.0,82.0
788,198.3821321354167,198.83329085625004,60.0,87.0
789,198.3821321354167,198.83329085625004,64.0,86.0
790,198.8788206354167,199.2451284041667,57.0,83.0
791,199.3755091354167,200.0025783666667,66.0,74.0
792,199.3755091354167,200.04189953958337,62.0,82.0
793,199.8721976354167,200.4744324416667,45.0,66.0
794,199.3755091354167,200.51375361458338,38.0,83.0
795,200.3688861354167,200.8717832416667,66.0,83.0
796,200.3688861354167,200.88006138333336,62.0,82.0
797,200.8655746354167,200.96905140625003,57.0,83.0
798,201.3622631354167,202.0265840041667,62.0,81.0
799,201.3622631354167,202.04934889375002,59.0,73.0
800,201.3622631354167,202.10522635000004,55.0,75.0
801,202.3556401354167,202.40737852083336,55.0,69.0
802,201.8589516354167,202.73022604583338,50.0,68.0
803,201.3622631354167,202.79852071458336,43.0,83.0
804,202.3556401354167,202.82542467500002,59.0,83.0
805,202.3556401354167,202.87509352500004,62.0,82.0
806,202.8523286354167,202.96822261875002,55.0,84.0
807,203.3490171354167,203.9636691541667,61.0,71.0
808,203.3490171354167,204.07128499583337,64.0,82.0
809,203.3490171354167,204.21408293958336,57.0,76.0
810,203.8457056354167,204.43138415833337,52.0,78.0
811,203.3490171354167,204.4665662604167,45.0,82.0
812,204.3423941354167,204.8701256666667,61.0,81.0
813,204.3423941354167,205.0191322166667,69.0,80.0
814,204.8390826354167,205.20332086875004,57.0,81.0
815,204.3423941354167,205.2115990104167,64.0,85.0
816,205.3357711354167,205.53651607083336,38.0,84.0
817,205.3357711354167,205.5468637479167,57.0,78.0
818,205.3357711354167,205.9069629104167,62.0,79.0
819,205.8324596354167,206.17807205000003,57.0,71.0
820,206.25878393125004,206.64371751875004,66.0,81.0
821,206.26499253750004,206.6644128729167,62.0,78.0
822,207.17765765625003,207.6081210229167,57.0,66.0
823,207.2418132541667,207.65572033750004,62.0,74.0
824,207.3225251354167,207.71780640000003,66.0,75.0
825,208.11515720000003,208.24553793125003,62.0,64.0
826,208.17103465625004,208.33245841875004,66.0,63.0
827,208.26830282083336,208.39454448125002,69.0,68.0
828,208.30555445833338,208.4773258979167,74.0,75.0
829,207.2480218604167,208.7070443291667,38.0,84.0
830,210.05356614375003,210.33455772708336,55.0,58.0
831,209.80563239375005,210.34695441458337,62.0,77.0
832,210.30149989375005,210.85521860208337,64.0,84.0
833,210.54943364375004,210.8572847166667,55.0,73.0
834,209.5576233854167,211.12174738333337,50.0,69.0
835,209.3092791354167,211.13414407083337,43.0,82.0
836,211.04530114375004,211.57216036250003,55.0,70.0
837,210.79736739375005,211.70232558125005,62.0,76.0
838,211.78910239375006,212.28083766458337,55.0,75.0
839,212.03703614375004,212.3200938416667,59.0,73.0
840,211.54116864375004,212.4626557479167,50.0,66.0
841,211.29323489375005,213.06596120625005,43.0,81.0
842,212.53290364375005,213.12174630000004,50.0,68.0
843,212.78083739375003,213.27670489375004,55.0,73.0
844,212.28496989375003,213.34695278958338,62.0,80.0
845,213.02877114375005,213.3738122791667,59.0,76.0
846,213.77257239375004,214.05976232083339,61.0,70.0
847,214.02050614375005,214.3221588729167,57.0,71.0
848,214.26843989375004,214.80976191458336,64.0,83.0
849,214.51637364375003,214.81389414375005,57.0,62.0
850,214.76430739375004,215.06182789375003,61.0,82.0
851,213.27670489375004,215.1527369354167,45.0,83.0
852,213.52463864375005,215.17339808125004,52.0,75.0
853,215.01224114375003,215.33042278958337,57.0,76.0
854,215.50810864375003,215.77463742500004,57.0,76.0
855,215.75604239375005,216.08455461250003,62.0,76.0
856,216.00397614375004,216.3283561333334,57.0,69.0
857,216.25190989375005,216.51843867500006,64.0,81.0
858,216.49984364375004,216.7746368833334,62.0,79.0
859,215.26017489375005,216.86141369583336,50.0,83.0
860,216.74777739375006,216.94199216458338,57.0,74.0
861,217.49157864375005,217.8924048729167,52.0,80.0
862,217.73951239375003,218.28703275833337,57.0,82.0
863,218.23537989375004,218.75604076875004,64.0,82.0
864,217.24364489375003,218.95232165416672,45.0,83.0
865,218.73124739375004,219.14240419583336,57.0,76.0
866,218.48331364375005,219.14653642500005,52.0,79.0
867,218.97918114375005,219.30356113333337,64.0,76.0
868,219.72298239375004,220.31389116458337,62.0,78.0
869,219.97091614375003,220.3469489979167,59.0,78.0
870,220.21884989375005,220.55356045625004,54.0,78.0
871,219.22711489375004,220.72298185208336,47.0,83.0
872,220.46678364375003,220.75190745625005,59.0,82.0
873,220.71471739375005,221.1031469354167,62.0,73.0
874,220.96265114375004,221.29322947708337,59.0,77.0
875,221.21058489375005,221.72711353958337,64.0,72.0
876,221.70645239375006,222.2167826958334,59.0,73.0
877,221.95438614375004,222.24777441458338,64.0,82.0
878,221.45851864375004,222.46265033125005,47.0,65.0
879,222.20231989375003,222.50603873750003,67.0,84.0
880,221.21058489375005,222.52256765416672,40.0,82.0
881,222.45025364375005,222.71265019583336,64.0,82.0
882,222.69818739375003,222.98331120625005,59.0,76.0
883,222.94612114375005,223.70231908125004,64.0,77.0
884,223.68992239375004,223.99983958125006,57.0,70.0
885,223.93785614375005,224.2147154979167,60.0,74.0
886,224.18578989375004,224.50006315416672,64.0,83.0
887,224.43372364375006,224.66256315416672,60.0,81.0
888,223.44198864375005,224.97506315416672,52.0,71.0
889,223.19405489375004,225.00839648750005,45.0,80.0
890,224.68339648750006,225.06464648750006,57.0,74.0
891,224.93339648750006,225.1792298208334,60.0,76.0
892,225.43339648750006,225.71881315416672,57.0,77.0
893,225.68339648750006,226.02714648750006,62.0,76.0
894,225.93339648750006,226.2854798208334,57.0,68.0
895,226.18339648750006,226.46464648750006,64.0,81.0
896,226.43339648750006,226.7063131541667,62.0,80.0
897,225.18339648750006,227.06464648750006,50.0,84.0
898,226.68339648750006,227.2104798208334,57.0,76.0
899,227.18339648750006,227.50839648750005,60.0,76.0
900,227.18339648750006,227.74589648750006,64.0,82.0
901,227.68339648750006,228.2417298208334,60.0,82.0
902,227.93339648750006,228.31256315416672,64.0,83.0
903,228.18339648750006,228.70839648750007,67.0,78.0
904,227.18339648750006,229.0229798208334,48.0,83.0
905,227.43339648750006,229.03131315416672,55.0,75.0
906,228.43339648750006,229.10006315416672,60.0,82.0
907,228.68339648750006,229.25839648750005,64.0,86.0
908,228.93339648750006,229.96881315416672,67.0,79.0
909,229.43339648750006,230.23547982083338,59.0,77.0
910,229.93339648750006,230.31464648750006,66.0,82.0
911,229.68339648750006,230.42297982083338,62.0,82.0
912,229.18339648750006,231.1167298208334,47.0,85.0
913,230.43339648750006,231.40631315416672,66.0,74.0
914,230.18339648750006,231.42297982083338,71.0,77.0
915,230.93339648750006,231.44589648750005,59.0,83.0
916,230.68339648750006,231.45839648750007,62.0,77.0
917,231.68339648750006,232.47922982083338,57.0,79.0
918,231.93339648750006,232.4917298208334,60.0,76.0
919,231.43339648750006,232.93131315416673,52.0,71.0
920,231.18339648750006,232.96881315416672,45.0,83.0
921,232.18339648750006,233.08756315416673,69.0,84.0
922,232.43339648750006,233.1292298208334,64.0,80.0
923,232.68339648750006,233.13131315416672,60.0,77.0
924,232.93339648750006,233.15631315416672,57.0,75.0
925,233.18339648750006,233.9292298208334,59.0,71.0
926,233.18339648750006,233.9500631541667,62.0,81.0
927,233.18339648750006,234.0354798208334,55.0,77.0
928,234.18339648750006,234.56256315416672,59.0,84.0
929,234.18339648750006,234.5917298208334,62.0,86.0
930,233.68339648750006,234.7542298208334,50.0,75.0
931,233.18339648750006,234.83756315416673,43.0,84.0
932,234.68339648750006,235.04589648750004,55.0,84.0
933,235.18339648750006,235.7417298208334,55.0,72.0
934,235.18339648750006,235.76047982083338,59.0,75.0
935,235.18339648750006,235.7688131541667,62.0,77.0
936,235.68339648750006,236.53964648750005,50.0,62.0
937,235.18339648750006,236.66464648750005,43.0,81.0
938,236.18339648750006,236.71464648750006,62.0,83.0
939,236.18339648750006,236.73964648750007,59.0,83.0
940,236.68339648750006,236.82089648750005,55.0,82.0
941,236.18339648750006,236.93964648750006,67.0,77.0
942,237.18339648750006,237.67297982083338,61.0,69.0
943,237.18339648750006,237.73964648750007,57.0,77.0
944,237.18339648750006,238.5042298208334,45.0,83.0
945,237.68339648750006,238.52089648750007,52.0,67.0
946,238.18339648750006,238.69797982083338,61.0,77.0
947,238.18339648750006,238.74381315416673,57.0,80.0
948,238.18339648750006,238.82714648750004,64.0,82.0
949,238.68339648750006,239.1438131541667,45.0,81.0
950,239.18339648750006,239.46881315416672,57.0,76.0
951,239.18339648750006,239.82297982083338,62.0,77.0
952,239.68339648750006,240.0667298208334,57.0,76.0
953,239.18339648750006,240.5201215083334,50.0,82.0
954,240.18334483125005,240.68334456041674,62.0,83.0
955,240.18334483125005,240.69367513333341,66.0,82.0
956,241.17507983125006,241.70813739375006,60.0,75.0
957,241.17507983125006,241.77012083125007,57.0,72.0
958,241.17507983125006,242.45607087291674,45.0,83.0
959,241.67094733125006,242.5531782583334,52.0,71.0
960,242.16681483125006,242.56970717500008,57.0,78.0
961,242.16681483125006,242.5965666645834,60.0,84.0
962,242.16681483125006,242.69987239375007,64.0,83.0
963,242.66268233125007,243.0118556958334,45.0,83.0
964,243.15854983125007,243.81557426875005,62.0,81.0
965,243.15854983125007,243.8424337583334,59.0,81.0
966,243.65441733125007,244.24119387291674,54.0,69.0
967,243.15854983125007,244.3754913208334,47.0,82.0
968,244.15028483125008,244.41061526875006,59.0,83.0
969,244.15028483125008,244.60689615416675,62.0,86.0
970,244.15028483125008,244.63168952916672,66.0,83.0
971,244.64615233125008,245.20813549791674,59.0,75.0
972,245.14201983125008,245.68747408125006,64.0,83.0
973,245.14201983125008,245.69780465416673,67.0,79.0
974,245.63788733125006,246.05730859166673,59.0,83.0
975,245.14201983125008,246.24532501875007,40.0,77.0
976,246.13375483125006,246.65234959166673,64.0,85.0
977,246.13375483125006,246.66061405000008,67.0,83.0
978,246.62962233125006,246.80937430000006,59.0,78.0
979,247.12548983125006,247.7783820395834,60.0,74.0
980,247.12548983125006,247.81970433125008,57.0,76.0
981,247.12548983125006,248.4106131020834,45.0,82.0
982,247.62135733125007,248.4168114458334,52.0,71.0
983,248.11722483125007,248.59243118541673,57.0,75.0
984,248.11722483125007,248.6027617583334,60.0,79.0
985,248.11722483125007,248.6275551333334,64.0,82.0
986,248.61309233125007,249.0614391958334,45.0,82.0
987,249.10895983125008,249.35069523750008,57.0,76.0
988,249.10895983125008,249.79077764375006,62.0,77.0
989,249.60482733125008,250.19160387291674,57.0,83.0
990,249.10895983125008,250.54490946666672,50.0,83.0
991,250.10069483125008,250.63375239375006,62.0,84.0
992,250.59656233125006,250.68953748750008,57.0,80.0
993,250.10069483125008,250.7225953208334,66.0,87.0
994,251.58829733125006,252.1544127270834,59.0,79.0
995,252.08416483125006,252.5882967895834,62.0,82.0
996,252.08416483125006,252.62135462291673,66.0,85.0
997,251.09242983125006,252.69573474791673,47.0,84.0
998,252.58003233125007,252.82589996666673,59.0,84.0
999,253.07589983125007,253.32383358125006,59.0,83.0
1000,253.07589983125007,253.71432923750007,64.0,83.0
1001,253.57176733125007,254.1812711333334,59.0,75.0
1002,254.06763483125007,254.6523452583334,64.0,84.0
1003,254.06763483125007,254.85482448750008,67.0,82.0
1004,253.07589983125007,254.87341951875007,52.0,89.0
1005,254.56350233125008,254.91680792500006,59.0,82.0
1006,255.05936983125008,255.37341924791673,59.0,72.0
1007,255.05936983125008,255.72879095625007,64.0,74.0
1008,255.55523733125005,255.92507184166675,59.0,75.0
1009,256.0511048312501,256.2577162895834,59.0,78.0
1010,256.0511048312501,256.54490621666673,64.0,84.0
1011,255.05936983125008,256.58209627916676,52.0,80.0
1012,256.0511048312501,256.63788137291675,67.0,79.0
1013,256.54697233125006,256.78250939375005,59.0,74.0
1014,257.0428398312501,257.30110415416675,59.0,74.0
1015,257.0428398312501,257.65234363333343,66.0,75.0
1016,257.0428398312501,257.71639318541673,62.0,77.0
1017,257.53870733125007,257.7763105083334,59.0,70.0
1018,257.0428398312501,258.2453185187501,47.0,83.0
1019,258.0345748312501,258.54697124791676,59.0,83.0
1020,258.0345748312501,258.6378802895834,62.0,83.0
1021,258.5304423312501,258.7225909875001,54.0,72.0
1022,258.7783760812501,259.06969823750006,62.0,47.0
1023,258.0345748312501,259.11928498750007,66.0,82.0
1024,258.7783760812501,259.2019295708334,59.0,73.0
1025,259.5221773312501,260.23292074791675,52.0,78.0
1026,260.01804483125005,260.5882924562501,57.0,82.0
1027,260.01804483125005,260.6461436645834,64.0,85.0
1028,259.02630983125005,260.6895320708334,45.0,83.0
1029,260.5139123312501,260.8837468416667,52.0,83.0
1030,261.00977983125006,261.6564736958334,59.0,77.0
1031,261.00977983125006,261.6688703833334,62.0,79.0
1032,261.5056473312501,262.18953125833343,54.0,73.0
1033,261.00977983125006,262.28044030000007,47.0,85.0
1034,262.00151483125006,262.37754768541674,62.0,84.0
1035,262.00151483125006,262.3816799145834,59.0,83.0
1036,262.00151483125006,262.43539889375006,66.0,82.0
1037,262.99324983125007,263.58002637291673,64.0,82.0
1038,262.99324983125007,263.6420098104167,59.0,78.0
1039,263.48911733125004,263.98291871666675,47.0,72.0
1040,262.99324983125007,264.1254806229167,40.0,83.0
1041,263.9849848312501,264.20192686250004,59.0,81.0
1042,263.9849848312501,264.5531663416667,64.0,84.0
1043,264.48085233125005,264.6378770395834,59.0,86.0
1044,264.9767198312501,265.71845496666674,61.0,72.0
1045,264.9767198312501,265.7556450291667,57.0,72.0
1046,264.9767198312501,266.1564712583334,45.0,83.0
1047,265.47258733125005,266.1936613208334,52.0,82.0
1048,265.9684548312501,266.3217604250001,57.0,82.0
1049,265.9684548312501,266.3548182583334,61.0,84.0
1050,265.9684548312501,266.3630827166667,64.0,84.0
1051,266.46432233125006,266.6709337895834,45.0,85.0
1052,266.9601898312501,267.2473797583334,57.0,79.0
1053,266.9601898312501,267.4911812791667,62.0,81.0
1054,267.45605733125007,267.5345696854167,57.0,70.0
1055,267.7039910812501,267.80109846666676,57.0,52.0
1056,267.7039910812501,267.8114290395834,62.0,68.0
1057,267.7039910812501,267.81556126875006,66.0,65.0
1058,267.95192483125004,268.2577097895834,62.0,88.0
1059,267.95192483125004,268.2618420187501,57.0,83.0
1060,267.95192483125004,268.33002380000005,66.0,84.0
1061,268.44779233125007,268.65027156041674,57.0,84.0
1062,268.44779233125007,268.84861856041675,62.0,84.0
1063,268.6957260812501,268.87341193541675,57.0,76.0
1064,268.19985858125006,268.9023375395834,45.0,76.0
1065,266.9601898312501,268.9168003416667,38.0,81.0
1066,268.94365983125005,269.2680398208334,55.0,82.0
1067,268.94365983125005,269.4415934458334,62.0,83.0
1068,269.6874610812501,269.90233699791673,59.0,75.0
1069,269.4395273312501,270.05729559166673,55.0,82.0
1070,269.93539483125005,270.20812195625007,67.0,86.0
1071,270.18332858125007,270.51597302916673,62.0,82.0
1072,270.4312623312501,270.74531174791673,59.0,86.0
1073,268.94365983125005,270.8093613000001,43.0,84.0
1074,269.19159358125006,270.8093613000001,50.0,75.0
1075,270.6791960812501,271.3072949145834,55.0,96.0
1076,271.67093108125005,272.0035755291667,59.0,81.0
1077,271.4229973312501,272.15440189375005,55.0,76.0
1078,271.1750635812501,272.2763026541667,50.0,76.0
1079,270.92712983125006,272.3465505500001,43.0,83.0
1080,271.91886483125006,272.3961373000001,67.0,86.0
1081,272.1667985812501,272.48291411250005,62.0,83.0
1082,272.4147323312501,272.71845117500004,59.0,84.0
1083,272.66266608125005,273.00770721666674,55.0,88.0
1084,273.1585335812501,274.10481406041674,47.0,71.0
1085,273.40646733125004,274.19572310208343,52.0,82.0
1086,272.91059983125007,274.1998553312501,40.0,87.0
1087,273.65440108125006,274.20398756041675,55.0,78.0
1088,274.39820233125005,274.90026817500006,55.0,83.0
1089,274.64613608125006,274.90646651875005,52.0,86.0
1090,274.1502685812501,274.9147309770834,59.0,84.0
1091,273.9023348312501,275.1068796333334,64.0,87.0
1092,275.63787108125007,276.0345650812501,60.0,82.0
1093,275.38993733125005,276.1461352687501,57.0,82.0
1094,275.14200358125004,276.2473748833334,52.0,77.0
1095,274.8940698312501,276.3775401020834,45.0,88.0
1096,276.38167233125006,277.17506033125005,60.0,79.0
1097,276.1337385812501,277.17506033125005,64.0,82.0
1098,276.6296060812501,277.19158924791674,57.0,71.0
1099,275.8858048312501,277.19365536250007,69.0,88.0
1100,277.37340733125006,278.1482003000001,55.0,83.0
1101,277.6213410812501,278.17712590416676,59.0,78.0
1102,277.8692748312501,278.6791917479167,67.0,85.0
1103,278.11720858125005,278.68125786250005,62.0,82.0
1104,278.36514233125007,278.6936545500001,59.0,84.0
1105,277.12547358125005,278.7329107270834,50.0,76.0
1106,276.8775398312501,278.74117518541675,43.0,86.0
1107,278.6130760812501,279.23084434166674,55.0,84.0
1108,279.6048110812501,279.92092661250007,62.0,77.0
1109,278.86100983125004,280.0304306854167,59.0,81.0
1110,279.10894358125006,280.10687692500005,50.0,75.0
1111,279.3568773312501,280.13167030000005,55.0,80.0
1112,278.86100983125004,280.23910825833343,43.0,83.0
1113,280.10067858125007,280.4415874875001,62.0,83.0
1114,279.85274483125005,280.5366287583334,67.0,83.0
1115,280.3486123312501,280.6130749979167,59.0,82.0
1116,280.59654608125004,280.7101823833334,55.0,83.0
1117,280.84447983125006,281.15852924791676,57.0,80.0
1118,280.84447983125006,281.37753739375006,61.0,84.0
1119,281.58828108125005,281.89199992500005,64.0,80.0
1120,281.3403473312501,282.04695851875005,57.0,89.0
1121,281.09241358125007,282.2577022062501,52.0,77.0
1122,282.0841485812501,282.3878674250001,64.0,82.0
1123,280.84447983125006,282.4023302270834,45.0,82.0
1124,281.83621483125006,282.4064624562501,69.0,87.0
1125,282.3320823312501,282.6358011750001,61.0,82.0
1126,282.58001608125005,282.7308424458334,57.0,82.0
1127,282.82794983125007,283.0614207791667,57.0,82.0
1128,282.82794983125007,283.3711659145834,62.0,84.0
1129,283.32533258125005,283.6919992479167,57.0,76.0
1130,283.57533258125005,283.75241591458337,62.0,75.0
1131,283.0758835812501,284.01283258125005,45.0,72.0
1132,282.82794983125007,284.0732492479167,38.0,87.0
1133,283.82533258125005,284.2586659145834,66.0,91.0
1134,284.07533258125005,284.33574924791674,62.0,74.0
1135,284.32533258125005,284.45241591458336,57.0,84.0
1136,284.82533258125005,284.9794992479167,55.0,81.0
1137,284.82533258125005,285.12533258125006,60.0,77.0
1138,285.07533258125005,285.4169992479167,55.0,80.0
1139,285.32533258125005,285.66283258125003,60.0,77.0
1140,285.57533258125005,285.88991591458336,55.0,69.0
1141,285.82533258125005,286.35033258125003,64.0,91.0
1142,286.07533258125005,286.3628325812501,55.0,78.0
1143,284.82533258125005,286.4253325812501,48.0,89.0
1144,286.32533258125005,286.6024159145834,60.0,71.0
1145,286.57533258125005,286.7482492479167,55.0,77.0
1146,286.82533258125005,287.1232492479167,55.0,75.0
1147,286.82533258125005,287.37746743541675,59.0,78.0
1148,287.32374845625003,287.8485415604167,62.0,75.0
1149,287.57168220625005,288.1088719979167,55.0,80.0
1150,286.82533258125005,288.3547396333334,43.0,83.0
1151,287.07533258125005,288.3630040916667,50.0,73.0
1152,288.31548345625004,288.5840783520834,59.0,83.0
1153,288.0675497062501,288.60680561250007,62.0,80.0
1154,288.56341720625005,288.6667229354167,55.0,81.0
1155,287.81961595625006,288.74936751875003,67.0,84.0
1156,288.81135095625007,289.14399540416673,59.0,74.0
1157,288.81135095625007,289.34854074791673,62.0,76.0
1158,289.30721845625004,289.6584579354167,59.0,82.0
1159,289.55515220625006,289.82581321666675,62.0,77.0
1160,289.0592847062501,289.94564786250004,54.0,80.0
1161,288.81135095625007,290.06961473750005,47.0,83.0
1162,289.8030859562501,290.1150692583334,66.0,91.0
1163,290.05101970625003,290.3361435187501,62.0,82.0
1164,290.29895345625005,290.68531688333337,59.0,77.0
1165,290.54688720625006,290.7555647791667,62.0,76.0
1166,290.7948209562501,291.2617628520834,64.0,80.0
1167,291.29068845625005,291.62539901875004,59.0,82.0
1168,291.53862220625007,291.70597748750004,64.0,80.0
1169,291.7865559562501,292.0675475395834,67.0,87.0
1170,291.04275470625004,292.09440702916675,47.0,75.0
1171,290.7948209562501,292.16672103958336,40.0,84.0
1172,292.03448970625004,292.34440689375003,64.0,76.0
1173,292.28242345625006,292.42911759166674,59.0,78.0
1174,292.77829095625003,293.26176176875003,55.0,76.0
1175,292.77829095625003,293.3175468625001,59.0,78.0
1176,293.27415845625006,293.78862098750005,62.0,78.0
1177,293.5220922062501,293.84647219583337,59.0,76.0
1178,293.77002595625004,294.3010174041667,67.0,84.0
1179,294.01795970625005,294.33407523750003,62.0,79.0
1180,294.26589345625007,294.52002555000007,59.0,83.0
1181,292.77829095625003,294.6026701333334,43.0,82.0
1182,294.5138272062501,294.61713293541675,55.0,82.0
1183,293.02622470625005,294.6191990500001,50.0,74.0
1184,294.76176095625004,295.30528697708337,61.0,78.0
1185,295.2594536437501,295.7677869770834,57.0,80.0
1186,295.5094536437501,295.87195364375003,61.0,75.0
1187,295.7594536437501,296.14070364375004,69.0,82.0
1188,296.0094536437501,296.35945364375004,64.0,83.0
1189,296.2594536437501,296.53653697708336,61.0,87.0
1190,294.76176095625004,296.6136203104167,45.0,82.0
1191,295.00969470625006,296.64070364375004,52.0,76.0
1192,296.5094536437501,296.6552869770834,57.0,80.0
1193,296.7594536437501,296.8761203104167,57.0,82.0
1194,296.7594536437501,297.04695364375004,62.0,83.0
1195,297.0094536437501,297.2927869770834,57.0,82.0
1196,297.2594536437501,297.53653697708336,62.0,79.0
1197,297.5094536437501,297.7990369770834,57.0,83.0
1198,297.7594536437501,298.26362031041674,64.0,82.0
1199,298.0094536437501,298.3136203104167,57.0,79.0
1200,298.2594536437501,298.56570364375006,62.0,78.0
1201,296.7594536437501,298.62820364375006,50.0,86.0
1202,298.5094536437501,298.8532036437501,57.0,78.0
1203,298.7594536437501,299.05737031041673,62.0,81.0
1204,298.7594536437501,299.2386203104167,66.0,77.0
1205,299.0094536437501,299.31778697708336,57.0,73.0
1206,299.2594536437501,299.5323703104167,62.0,76.0
1207,299.5094536437501,299.66153697708336,57.0,74.0
1208,299.7594536437501,300.24487031041673,66.0,84.0
1209,300.0094536437501,300.32612031041674,57.0,71.0
1210,298.7594536437501,300.33445364375007,50.0,88.0
1211,300.2594536437501,300.3448703104167,62.0,83.0
1212,300.7594536437501,301.25320364375006,59.0,73.0
1213,300.7594536437501,301.58862031041673,55.0,72.0
1214,301.2594536437501,302.10945364375004,50.0,73.0
1215,301.7594536437501,302.15112031041673,59.0,84.0
1216,300.7594536437501,302.1969536437501,43.0,82.0
1217,301.7594536437501,302.26362031041674,62.0,83.0
1218,302.2594536437501,302.3532036437501,55.0,83.0
1219,302.7594536437501,303.0615369770834,59.0,78.0
1220,302.7594536437501,303.26570364375004,64.0,83.0
1221,303.2594536437501,303.5802869770834,59.0,75.0
1222,303.5094536437501,303.6448703104167,64.0,77.0
1223,302.7594536437501,303.97195364375006,40.0,88.0
1224,303.0094536437501,303.9802869770834,47.0,76.0
1225,303.7594536437501,304.25320364375006,59.0,82.0
1226,303.7594536437501,304.25528697708336,64.0,83.0
1227,303.7594536437501,304.27195364375007,67.0,76.0
1228,304.7594536437501,305.44371651875,62.0,80.0
1229,304.7594536437501,305.5036338416667,59.0,82.0
1230,304.7594536437501,305.5160305291667,66.0,79.0
1231,305.75363370625,305.9354517895834,59.0,80.0
1232,305.75363370625,305.9871046541667,62.0,83.0
1233,305.75363370625,306.0160302583334,66.0,84.0
1234,305.25776620625004,306.5697489666667,54.0,74.0
1235,304.7594536437501,306.5800795395834,47.0,83.0
1236,306.74536870625,307.4726410395834,71.0,85.0
1237,306.99330245625003,307.61933517500006,66.0,83.0
1238,307.24123620625005,307.6275996333334,62.0,73.0
1239,307.48916995625,307.6606574666667,59.0,79.0
1240,307.73710370625,308.1379299354167,54.0,72.0
1241,306.74536870625,308.1627233104167,47.0,83.0
1242,307.73710370625,308.19578114375,59.0,82.0
1243,307.73710370625,308.2102439458334,62.0,84.0
1244,308.23297120625006,308.5697478833334,47.0,83.0
1245,308.72883870625003,309.2928879875,60.0,78.0
1246,308.72883870625003,309.5015655604167,57.0,73.0
1247,309.22470620625006,309.9209868208334,52.0,71.0
1248,309.72057370625004,310.16272222708335,57.0,78.0
1249,309.72057370625004,310.18751560208335,60.0,87.0
1250,309.72057370625004,310.2577634979167,64.0,87.0
1251,308.72883870625003,310.2763585291667,45.0,82.0
1252,310.21644120625,310.6048707479167,52.0,87.0
1253,310.71230870625004,311.2494984979167,59.0,79.0
1254,310.71230870625004,311.4953661333334,62.0,81.0
1255,311.45610995625003,311.5842090604167,59.0,81.0
1256,311.20817620625,312.01396089375004,54.0,71.0
1257,311.70404370625005,312.12139885208336,66.0,88.0
1258,310.71230870625004,312.2226384666667,47.0,87.0
1259,311.95197745625006,312.2598285291667,62.0,80.0
1260,312.19991120625,312.39205986250005,59.0,82.0
1261,312.69577870625005,313.3879270916667,57.0,76.0
1262,312.69577870625005,313.42924938333334,61.0,70.0
1263,313.19164620625,313.91272019583334,52.0,75.0
1264,312.69577870625005,314.02222426875005,45.0,82.0
1265,313.68751370625006,314.19577789375006,61.0,83.0
1266,313.68751370625006,314.29081916458335,64.0,85.0
1267,314.18338120625003,314.50569508125005,57.0,81.0
1268,314.67924870625006,315.2474302166667,57.0,78.0
1269,314.67924870625006,315.4664383625,62.0,78.0
1270,315.42304995625005,315.7928844666667,57.0,69.0
1271,315.67098370625,315.92924802916673,66.0,86.0
1272,315.91891745625,316.20817349791673,64.0,88.0
1273,315.17511620625004,316.4685039354167,45.0,74.0
1274,316.16685120625004,316.4747022791667,62.0,83.0
1275,314.67924870625006,316.52015680000005,38.0,85.0
1276,316.66271870625,317.3114786854167,62.0,78.0
1277,316.41478495625006,317.31974314375003,57.0,79.0
1278,317.65445370625,317.8321395604167,62.0,88.0
1279,317.90238745625004,317.9974287270834,62.0,59.0
1280,317.15858620625005,318.01602375833335,45.0,69.0
1281,317.90238745625004,318.35486655000005,57.0,88.0
1282,318.39825495625,318.62139533125,57.0,78.0
1283,317.65445370625,318.6606515083334,66.0,89.0
1284,318.15032120625006,318.6999076854167,45.0,75.0
1285,316.66271870625,318.74536220625004,38.0,84.0
1286,318.64618870625003,319.4499072791667,59.0,64.0
1287,318.64618870625003,319.470568425,62.0,72.0
1288,318.64618870625003,319.4932956854167,55.0,74.0
1289,319.63792370625004,319.9147830604167,55.0,83.0
1290,319.63792370625004,319.9519731229167,59.0,83.0
1291,319.63792370625004,320.0036259875,62.0,83.0
1292,320.62965870625004,320.9705676125,62.0,81.0
1293,320.62965870625004,320.98916264375003,59.0,83.0
1294,321.12552620625,321.50982351875,55.0,76.0
1295,319.14205620625006,321.9292447791667,50.0,70.0
1296,318.64618870625003,321.9623026125,43.0,83.0
1297,321.62139370625005,322.16064961250004,59.0,83.0
1298,321.62139370625005,322.1833768729167,62.0,84.0
1299,322.11726120625,322.21023636250004,55.0,87.0
1300,321.62139370625005,322.21850082083336,67.0,81.0
1301,322.61312870625005,323.2804837166667,62.0,82.0
1302,322.61312870625005,323.33420269583337,59.0,83.0
1303,323.10899620625,323.71850000833336,54.0,71.0
1304,323.60486370625006,323.7866817895834,59.0,79.0
1305,322.61312870625005,323.85279745625,47.0,84.0
1306,323.60486370625006,324.13378903958335,62.0,82.0
1307,323.60486370625006,324.18750801875,66.0,77.0
1308,324.10073120625003,324.25775591458336,59.0,76.0
1309,324.59659870625006,325.3693255604167,64.0,82.0
1310,324.59659870625006,325.37139167500004,61.0,80.0
1311,324.59659870625006,325.38998670625006,57.0,75.0
1312,325.09246620625004,325.65651548750003,52.0,74.0
1313,324.59659870625006,325.7267633833334,45.0,83.0
1314,325.58833370625,325.8837880916667,57.0,80.0
1315,325.58833370625,326.18957305000004,61.0,82.0
1316,325.58833370625,326.39618450833336,64.0,84.0
1317,326.08420120625004,326.4664324041667,57.0,74.0
1318,326.58006870625,327.2825476645834,57.0,76.0
1319,326.58006870625,327.3094071541667,62.0,79.0
1320,327.57180370625,328.2453570604167,66.0,78.0
1321,327.57180370625,328.3631255916667,62.0,81.0
1322,328.06767120625005,328.4251090291667,57.0,80.0
1323,328.56353870625003,329.0945301541667,66.0,67.0
1324,328.56353870625003,329.14824913333337,62.0,74.0
1325,329.05940620625006,329.25155486250003,57.0,66.0
1326,329.55527370625003,329.8011413416667,57.0,82.0
1327,327.07593620625005,329.9065131854167,45.0,66.0
1328,326.58006870625,329.99122388333336,38.0,84.0
1329,329.55527370625003,330.4044468,66.0,83.0
1330,329.55527370625003,330.4147773729167,62.0,84.0
1331,330.05114120625,330.43130628958335,57.0,82.0
1332,330.54700870625004,331.1069257583334,62.0,78.0
1333,330.54700870625004,331.1089918729167,55.0,77.0
1334,331.04287620625,331.7639501958334,50.0,74.0
1335,331.53874370625005,332.1234541333334,59.0,84.0
1336,330.54700870625004,332.3879168,43.0,83.0
1337,332.03461120625,332.5263464770834,50.0,67.0
1338,331.53874370625005,332.5903960291667,55.0,83.0
1339,332.53047870625005,333.16064365416673,62.0,78.0
1340,332.53047870625005,333.19370148750005,59.0,78.0
1341,333.77014745625,334.08626298750005,62.0,77.0
1342,333.52221370625006,334.0883291020834,55.0,81.0
1343,333.02634620625,334.3362628520834,50.0,61.0
1344,332.53047870625005,334.37965125833335,43.0,81.0
1345,334.01808120625003,334.4684941854167,64.0,81.0
1346,334.51394870625006,335.14204753958336,62.0,72.0
1347,334.51394870625006,335.16477480000003,55.0,73.0
1348,335.50568370625,335.70609682083335,55.0,82.0
1349,335.00981620625004,335.8879149041667,50.0,68.0
1350,334.51394870625006,336.04493961250006,43.0,82.0
1351,335.50568370625,336.05113795625005,59.0,84.0
1352,336.00155120625004,336.4023774354167,55.0,83.0
1353,335.50568370625,336.4416336125,62.0,84.0
1354,336.49741870625,337.29700505000005,55.0,76.0
1355,336.49741870625,337.31146785208335,62.0,79.0
1356,337.48915370625,337.7350213416667,55.0,78.0
1357,337.48915370625,338.0366740708334,59.0,82.0
1358,336.99328620625005,338.1358475708334,50.0,73.0
1359,336.49741870625,338.28254170625,43.0,82.0
1360,337.98502120625005,338.4540292166667,55.0,82.0
1361,338.97675620625006,340.30320176875006,52.0,77.0
1362,338.48088870625,340.3217968,45.0,84.0
1363,339.47262370625003,340.3259290291667,57.0,81.0
1364,339.96849120625006,340.4127058416667,64.0,76.0
1365,340.46435870625004,340.70609411250007,57.0,74.0
1366,340.46435870625004,341.22055664375006,62.0,77.0
1367,340.96022620625,341.56146555000004,57.0,74.0
1368,341.45609370625004,341.74948197708335,66.0,81.0
1369,341.70402745625006,342.00154795625,64.0,80.0
1370,341.95196120625,342.2474155916667,62.0,83.0
1371,340.46435870625004,342.3465890916667,50.0,82.0
1372,342.19989495625003,342.39204361250006,57.0,76.0
1373,342.44782870625005,342.67716742500005,57.0,74.0
1374,342.44782870625005,343.1647704666667,62.0,78.0
1375,342.94369620625,343.3259274041667,57.0,69.0
1376,343.93543120625003,344.40650533125006,57.0,83.0
1377,343.43956370625006,344.4395631645834,62.0,83.0
1378,343.43956370625006,344.44576150833336,66.0,82.0
1379,342.44782870625005,344.4498937375,50.0,84.0
1380,344.4416292791667,344.4498937375,50.0,59.0
1381,344.49328214375004,345.13790989375,38.0,91.0
1382,344.49534825833337,345.2102239041667,54.0,72.0
1383,344.52633997708335,345.2412156229167,57.0,73.0
1384,344.5903895291667,345.39824033125,62.0,72.0
1385,345.75361203958334,347.8238588520834,57.0,68.0
1386,345.5139427479167,347.8569166854167,50.0,64.0
1387,345.97468630000003,347.96901214375004,62.0,67.0
1388,346.1771655291667,347.97748671041666,66.0,62.0
1389,346.2598101125,347.9923172020833,74.0,69.0
1390,346.2329506229167,348.00926633541667,69.0,58.0
1391,349.42663761041666,350.2381301916667,59.0,64.0
1392,349.42663761041666,350.2587913375,62.0,72.0
1393,349.42663761041666,350.28151859791666,55.0,74.0
1394,350.42614661875,350.7030059729167,55.0,83.0
1395,350.42614661875,350.74019603541666,59.0,83.0
1396,350.42614661875,350.7918489,62.0,83.0
1397,351.41788161875,351.758790525,62.0,81.0
1398,351.41788161875,351.77738555625,59.0,83.0
1399,351.91374911875,352.29804643125,55.0,76.0
1400,349.93027911875,352.7174676916667,50.0,70.0
1401,349.42663761041666,352.750525525,43.0,83.0
1402,352.40961661875,352.948872525,59.0,83.0
1403,352.40961661875,352.9715997854167,62.0,84.0
1404,352.90548411875,352.998459275,55.0,87.0
1405,352.40961661875,353.00672373333333,67.0,81.0
1406,353.40135161875,354.0687066291667,62.0,82.0
1407,353.40135161875,354.12242560833334,59.0,83.0
1408,353.89721911875,354.50672292083334,54.0,71.0
1409,354.39308661875003,354.57490470208336,59.0,79.0
1410,353.40135161875,354.64102036875,47.0,84.0
1411,354.39308661875003,354.9220119520833,62.0,82.0
1412,354.39308661875003,354.97573093125,66.0,77.0
1413,354.88895411875,355.04597882708333,59.0,76.0
1414,355.38482161875,356.1575484729167,64.0,82.0
1415,355.38482161875,356.1596145875,61.0,80.0
1416,355.38482161875,356.17820961875003,57.0,75.0
1417,355.88068911875,356.4447384,52.0,74.0
1418,355.38482161875,356.51498629583335,45.0,83.0
1419,356.37655661875,356.6720110041667,57.0,80.0
1420,356.37655661875,356.9777959625,61.0,82.0
1421,356.37655661875,357.18440742083334,64.0,84.0
1422,356.87242411875,357.2546553166667,57.0,74.0
1423,357.36829161875,358.07077057708335,57.0,76.0
1424,357.36829161875,358.0976300666667,62.0,79.0
1425,358.36002661875,359.0335799729167,66.0,78.0
1426,358.36002661875,359.15134850416666,62.0,81.0
1427,358.85589411875003,359.2133319416667,57.0,80.0
1428,359.35176161875,359.8827530666667,66.0,67.0
1429,359.35176161875,359.93647204583334,62.0,74.0
1430,359.84762911875,360.039777775,57.0,66.0
1431,360.34349661875,360.5893642541667,57.0,82.0
1432,357.86415911875,360.6947360979167,45.0,66.0
1433,357.36829161875,360.77944679583334,38.0,84.0
1434,360.34349661875,361.1926697125,66.0,83.0
1435,360.34349661875,361.2030002854167,62.0,84.0
1436,360.83936411875,361.2195292020833,57.0,82.0
1437,361.33523161875,361.89514867083335,62.0,78.0
1438,361.33523161875,361.8972147854167,55.0,77.0
1439,361.83109911875,362.55217310833336,50.0,74.0
1440,362.32696661875,362.91167704583336,59.0,84.0
1441,361.33523161875,363.1761397125,43.0,83.0
1442,362.82283411875,363.3145693895833,50.0,67.0
1443,362.32696661875,363.3786189416667,55.0,83.0
1444,363.31870161875,363.94886656666665,62.0,78.0
1445,363.31870161875,363.9819244,59.0,78.0
1446,364.55837036875,364.8744859,62.0,77.0
1447,364.31043661875003,364.87655201458335,55.0,81.0
1448,363.81456911875,365.1244857645833,50.0,61.0
1449,363.31870161875,365.16787417083333,43.0,81.0
1450,364.80630411875,365.2567170979167,64.0,81.0
1451,365.30217161875,365.93027045208333,62.0,72.0
1452,365.30217161875,365.9529977125,55.0,73.0
1453,366.29390661875,366.4943197333333,55.0,82.0
1454,365.79803911875,366.67613781666665,50.0,68.0
1455,365.30217161875,366.83316252500003,43.0,82.0
1456,366.29390661875,366.83936086875,59.0,84.0
1457,366.78977411875,367.19060034791664,55.0,83.0
1458,366.29390661875,367.229856525,62.0,84.0
1459,367.27531104583335,369.08522742083335,43.0,77.0
1460,367.42407129583336,369.08522742083335,62.0,55.0
1461,367.24845155625,369.09142576458333,55.0,69.0
1462,367.31043499375,369.09142576458333,59.0,71.0
1463,367.42200518125003,369.1017563375,67.0,65.0
