,start,end,pitch,velocity
0,30.60684120833334,30.82785539166667,67.0,90.0
1,30.82423220833334,30.960101583333337,70.0,86.0
2,31.041623208333338,31.210101233333337,72.0,88.0
3,31.259014208333337,32.63944705833334,75.0,94.0
4,32.780751208333335,32.989084250000005,74.0,98.0
5,32.99814220833334,33.206475250000004,74.0,98.0
6,33.21553320833334,33.58328631666667,74.0,91.0
7,33.65031520833334,34.224589766666675,72.0,87.0
8,34.519879208333336,34.63400948333334,72.0,89.0
9,34.73727020833334,34.86589321666667,70.0,87.0
10,34.95466120833334,35.331472275,70.0,83.0
11,35.38944320833334,36.586905300000005,67.0,83.0
12,37.56335320833334,37.740889191666675,67.0,89.0
13,37.78074420833334,37.91661358333334,70.0,90.0
14,37.99813520833334,38.17567119166667,72.0,88.0
15,38.21552620833334,39.47458241666667,75.0,90.0
16,39.73726320833334,39.88943690833334,75.0,93.0
17,39.95465420833334,40.070596075000005,77.0,89.0
18,40.17204520833334,40.51443603333334,79.0,87.0
19,40.60682720833334,41.26262339166667,77.0,87.0
20,41.47639120833334,41.66479674166667,75.0,88.0
21,41.69378220833334,41.83508635833334,74.0,84.0
22,41.91117320833334,43.045229591666676,75.0,89.0
23,44.51986520833334,44.86044444166667,79.0,89.0
24,44.95464720833334,45.076023850000006,77.0,85.0
25,45.17203820833334,45.76442868333334,77.0,87.0
26,45.82421120833334,46.50174649166667,75.0,81.0
27,46.69377520833334,46.84957209166667,74.0,90.0
28,46.91116620833334,47.12493402500001,75.0,84.0
29,47.12855720833334,47.516237825000005,74.0,88.0
30,47.56333920833334,48.41116410833334,72.0,89.0
31,48.65029420833334,48.76985925833334,70.0,90.0
32,48.86768520833334,49.34775700000001,70.0,88.0
33,49.30246720833334,50.503552483333344,67.0,85.0
34,51.47637720833334,51.65210160000001,67.0,91.0
35,51.69376820833334,51.83144917500001,70.0,83.0
36,51.911159208333345,52.08869519166667,72.0,83.0
37,52.128550208333344,52.78253480000001,75.0,88.0
38,52.78072320833334,53.197389291666674,77.0,85.0
39,53.21550520833334,53.52528738333334,74.0,88.0
40,53.65028720833334,54.11586626666668,75.0,91.0
41,54.085069208333344,54.354996366666676,74.0,87.0
42,54.30246020833334,55.74086399166668,72.0,79.0
43,55.824197208333345,56.58144252500001,75.0,89.0
44,56.69376120833334,57.39484718333334,77.0,87.0
45,57.56332520833334,58.547019483333344,79.0,87.0
46,58.65028020833334,59.005352175000006,84.0,98.0
47,59.08506220833334,59.20643885000001,82.0,89.0
48,59.30245320833334,59.67020631666668,82.0,88.0
49,59.737235208333345,60.68650924166668,79.0,88.0
50,61.693754208333345,61.80426130000001,75.0,93.0
51,61.911145208333345,62.07237686666667,75.0,89.0
52,62.128536208333344,62.23904330000001,74.0,92.0
53,62.34592720833334,62.49810090833334,74.0,94.0
54,62.56331820833334,62.67926007500001,72.0,89.0
55,62.78070920833334,63.15208550000001,72.0,91.0
56,63.21549120833334,63.34049103333334,70.0,83.0
57,63.432882208333346,64.40933011666668,70.0,89.0
58,65.38940120833334,65.74447317500001,75.0,91.0
59,65.82418320833334,66.13577697500001,77.0,86.0
60,66.25896520833335,66.59410966666668,79.0,90.0
61,66.69374720833335,67.016210525,84.0,91.0
62,67.12852920833335,67.46729685000001,82.0,89.0
63,67.56331120833335,67.72635445833335,77.0,89.0
64,67.78070220833334,69.70280096666667,79.0,89.0
65,72.34591320833334,72.69555040000002,84.0,93.0
66,72.78069520833334,73.21547720833334,82.0,88.0
67,73.21547720833334,73.60315782500001,82.0,88.0
68,73.65025920833334,74.01076595,79.0,88.0
69,74.08504120833335,74.45641750000001,79.0,89.0
70,74.51982320833335,74.63576507500001,77.0,85.0
71,74.73721420833334,75.30786558333334,77.0,86.0
72,75.38938720833335,76.44554515000002,75.0,85.0
73,76.47634220833335,76.60677680833335,72.0,81.0
74,76.69373320833334,77.11039929166668,72.0,88.0
75,77.12851520833334,78.42742643333335,70.0,87.0
76,79.08503420833334,79.2172804,70.0,93.0
77,79.30242520833335,79.62307693333335,84.0,88.0
78,79.73720720833334,80.02706187500002,82.0,85.0
79,80.17198920833334,80.46003228333335,82.0,89.0
80,80.60677120833334,80.82053902500002,79.0,89.0
81,81.04155320833334,81.35677015833335,79.0,89.0
82,81.47633520833335,81.61220458333335,77.0,82.0
83,81.69372620833335,83.66654953333335,79.0,87.0
84,86.25893720833335,86.60857440000001,84.0,93.0
85,86.69371920833335,87.12850120833335,82.0,88.0
86,87.12850120833335,87.51618182500002,82.0,88.0
87,87.56328320833335,87.92378995000001,79.0,88.0
88,87.99806520833334,88.36944150000001,79.0,89.0
89,88.43284720833334,88.54878907500002,77.0,85.0
90,88.65023820833335,89.22088958333335,77.0,86.0
91,89.30241120833335,90.35856915000001,75.0,85.0
92,90.60675720833335,91.02342329166667,72.0,88.0
93,91.04153920833335,92.34045043333334,70.0,87.0
94,93.21544920833335,93.53610093333334,84.0,88.0
95,93.65023120833335,93.94008587500001,82.0,85.0
96,94.08501320833335,94.37305628333336,82.0,89.0
97,94.51979520833335,94.73356302500001,79.0,89.0
98,94.95457720833335,95.26979415833335,79.0,89.0
99,95.38935920833335,95.52522858333334,77.0,82.0
100,95.60675020833335,97.57957353333335,79.0,87.0
101,127.95100458333336,128.1720187666667,67.0,90.0
102,128.16839558333336,128.30426495833336,70.0,86.0
103,128.38578658333336,128.55426460833334,72.0,88.0
104,128.60317758333335,129.98361043333335,75.0,94.0
105,130.12491458333335,130.333247625,74.0,98.0
106,130.34230558333334,130.55063862500003,74.0,98.0
107,130.55969658333336,130.92744969166668,74.0,91.0
108,130.99447858333335,131.5687531416667,72.0,87.0
109,131.86404258333334,131.97817285833335,72.0,89.0
110,132.08143358333336,132.21005659166667,70.0,87.0
111,132.29882458333336,132.67563565000003,70.0,83.0
112,132.73360658333334,133.931068675,67.0,83.0
113,134.90751658333335,135.0850525666667,67.0,89.0
114,135.12490758333337,135.26077695833334,70.0,90.0
115,135.34229858333336,135.5198345666667,72.0,88.0
116,135.55968958333335,136.8187457916667,75.0,90.0
117,137.08142658333335,137.23360028333335,75.0,93.0
118,137.29881758333335,137.41475945000002,77.0,89.0
119,137.51620858333337,137.85859940833336,79.0,87.0
120,137.95099058333335,138.6067867666667,77.0,87.0
121,138.82055458333335,139.00896011666669,75.0,88.0
122,139.03794558333334,139.17924973333336,74.0,84.0
123,139.25533658333336,140.3893929666667,75.0,89.0
124,141.86402858333335,142.20460781666668,79.0,89.0
125,142.29881058333336,142.420187225,77.0,85.0
126,142.51620158333336,143.10859205833336,77.0,87.0
127,143.16837458333336,143.8459098666667,75.0,81.0
128,144.03793858333336,144.19373546666668,74.0,90.0
129,144.25532958333335,144.4690974,75.0,84.0
130,144.47272058333334,144.8604012,74.0,88.0
131,144.90750258333335,145.75532748333336,72.0,89.0
132,145.99445758333334,146.11402263333335,70.0,90.0
133,146.21184858333336,146.69192037500002,70.0,88.0
134,146.64663058333335,147.84771585833334,67.0,85.0
135,148.82054058333335,148.99626497500003,67.0,91.0
136,149.03793158333335,149.17561255,70.0,83.0
137,149.25532258333337,149.43285856666668,72.0,83.0
138,149.47271358333336,150.12669817500003,75.0,88.0
139,150.12488658333336,150.5415526666667,77.0,85.0
140,150.55966858333335,150.86945075833336,74.0,88.0
141,150.99445058333336,151.4600296416667,75.0,91.0
142,151.42923258333337,151.69915974166668,74.0,87.0
143,151.64662358333337,153.08502736666668,72.0,79.0
144,153.16836058333337,153.92560590000002,75.0,89.0
145,154.03792458333336,154.73901055833335,77.0,87.0
146,154.90748858333336,155.89118285833337,79.0,87.0
147,155.99444358333335,156.34951555000004,84.0,98.0
148,156.42922558333336,156.55060222500003,82.0,89.0
149,156.64661658333335,157.01436969166667,82.0,88.0
150,157.08139858333334,158.0306726166667,79.0,88.0
151,159.03791758333335,159.14842467500003,75.0,93.0
152,159.25530858333337,159.4165402416667,75.0,89.0
153,159.47269958333337,159.583206675,74.0,92.0
154,159.69009058333336,159.84226428333335,74.0,94.0
155,159.90748158333335,160.02342345000002,72.0,89.0
156,160.12487258333334,160.49624887500002,72.0,91.0
157,160.55965458333336,160.68465440833336,70.0,83.0
158,160.77704558333335,161.7534934916667,70.0,89.0
159,162.73356458333336,163.08863655000002,75.0,91.0
160,163.16834658333335,163.47994035000002,77.0,86.0
161,163.60312858333336,163.9382730416667,79.0,90.0
162,164.03791058333337,164.3603739,84.0,91.0
163,164.47269258333336,164.81146022500002,82.0,89.0
164,164.90747458333337,165.07051783333335,77.0,89.0
165,165.12486558333336,167.0469643416667,79.0,89.0
166,169.69007658333337,170.03971377500002,84.0,93.0
167,170.12485858333335,170.55964058333336,82.0,88.0
168,170.55964058333336,170.94732120000003,82.0,88.0
169,170.99442258333335,171.35492932500003,79.0,88.0
170,171.42920458333336,171.80058087500004,79.0,89.0
171,171.86398658333337,171.97992845000002,77.0,85.0
172,172.08137758333336,172.65202895833335,77.0,86.0
173,172.73355058333337,173.78970852500004,75.0,85.0
174,173.82050558333336,173.95094018333336,72.0,81.0
175,174.03789658333335,174.4545626666667,72.0,88.0
176,174.47267858333336,175.77158980833337,70.0,87.0
177,176.42919758333335,176.56144377500004,70.0,93.0
178,176.64658858333337,176.96724030833337,84.0,88.0
179,177.08137058333335,177.37122525,82.0,85.0
180,177.51615258333337,177.80419565833336,82.0,89.0
181,177.95093458333335,178.1647024,79.0,89.0
182,178.38571658333336,178.70093353333337,79.0,89.0
183,178.82049858333335,178.95636795833337,77.0,82.0
184,179.03788958333337,181.01071290833335,79.0,87.0
185,183.60310058333334,183.95273777500003,84.0,93.0
186,184.03788258333336,184.47266458333337,82.0,88.0
187,184.47266458333337,184.86034520000004,82.0,88.0
188,184.90744658333335,185.267953325,79.0,88.0
189,185.34222858333337,185.71360487500004,79.0,89.0
190,185.77701058333338,185.89295245000002,77.0,85.0
191,185.99440158333334,186.56505295833335,77.0,86.0
192,186.64657458333335,187.70273252500004,75.0,85.0
193,187.95092058333336,188.36758666666668,72.0,88.0
194,188.38570258333334,189.68461380833338,70.0,87.0
195,190.55961258333338,190.88026430833338,84.0,88.0
196,190.99439458333336,191.28424925000002,82.0,85.0
197,191.42917658333334,191.71721965833336,82.0,89.0
198,191.86395858333336,192.07772640000002,79.0,89.0
199,192.29874058333337,192.61395753333335,79.0,89.0
200,192.73352258333335,192.86939195833338,77.0,82.0
201,192.95091358333337,194.92373690833335,79.0,87.0
202,197.51612458333335,197.865761775,84.0,93.0
203,197.95090658333336,198.38568858333338,82.0,88.0
204,198.38568858333338,198.77336920000005,82.0,88.0
205,198.82047058333336,199.18097732500001,79.0,88.0
206,199.25525258333334,199.62662887500002,79.0,89.0
207,199.69003458333336,199.80597645000003,77.0,85.0
208,199.90742558333335,200.47807695833336,77.0,86.0
209,200.55959858333335,201.61575652500002,75.0,85.0
210,201.64655358333334,201.77698818333334,70.0,81.0
211,201.86394458333336,202.2806106666667,84.0,88.0
212,202.29872658333335,203.59763780833336,82.0,87.0
213,204.25524558333336,204.38749177500003,70.0,93.0
214,204.47263658333338,204.79328830833336,84.0,88.0
215,204.90741858333337,205.19727325000002,82.0,85.0
216,205.34220058333335,205.63024365833337,82.0,89.0
217,205.77698258333336,205.99075040000002,79.0,89.0
218,206.21176458333338,206.52698153333336,79.0,89.0
219,206.64654658333336,206.78241595833336,77.0,82.0
220,206.86393758333338,208.83676090833336,79.0,87.0
221,211.42914858333336,211.77878577500002,84.0,93.0
222,211.86393058333337,212.29871258333338,82.0,88.0
223,212.29871258333338,212.68639320000003,82.0,88.0
224,212.73349458333337,213.09400132500002,79.0,88.0
225,213.16827658333335,213.53965287500003,79.0,89.0
226,213.60305858333336,213.71900045000004,77.0,85.0
227,213.82044958333336,214.39110095833337,77.0,86.0
228,214.47262258333336,215.52878052500003,75.0,85.0
229,215.77696858333337,216.1936346666667,72.0,88.0
230,216.21175058333336,217.51066180833337,70.0,87.0
231,218.38566058333336,218.70631230833337,84.0,88.0
232,218.82044258333337,219.11029725000003,82.0,85.0
233,219.25522458333336,219.54326765833338,82.0,89.0
234,219.69000658333337,219.90377440000003,79.0,89.0
235,220.12478858333338,220.44000553333336,79.0,89.0
236,220.55957058333337,220.69543995833337,77.0,82.0
237,220.77696158333336,222.74978490833337,79.0,87.0
