,start,end,pitch,velocity
0,1.9112292083333335,2.1720984083333335,60.0,81.0
1,1.9112292083333335,2.3677503083333336,63.0,88.0
2,2.128620208333334,3.192024516666667,55.0,80.0
3,1.9112292083333335,3.2119520250000004,48.0,90.0
4,2.5634022083333337,3.659415166666667,63.0,84.0
5,2.3460112083333335,3.6757194916666673,60.0,80.0
6,4.302530208333334,4.646732625,62.0,81.0
7,4.0851392083333335,4.650355808333334,58.0,75.0
8,3.867748208333334,5.009050958333334,53.0,71.0
9,3.6503572083333338,5.0633987083333345,46.0,90.0
10,4.737312208333334,5.324267908333334,58.0,74.0
11,4.737312208333334,5.349630191666668,62.0,80.0
12,4.737312208333334,5.409412716666668,65.0,86.0
13,5.389485208333334,6.416657683333335,44.0,89.0
14,5.606876208333334,6.463759066666667,51.0,76.0
15,5.8242672083333344,6.489121350000001,56.0,86.0
16,6.041658208333335,6.704700758333335,63.0,83.0
17,6.476440208333335,6.742744183333334,60.0,82.0
18,7.5633952083333345,8.099626341666667,51.0,77.0
19,7.780786208333335,8.137669766666669,55.0,78.0
20,7.128613208333334,8.221002983333335,39.0,88.0
21,7.346004208333334,8.249988450000002,46.0,79.0
22,8.215568208333334,8.268104366666668,55.0,76.0
23,8.432959208333335,8.547089483333334,51.0,88.0
24,8.215568208333334,8.661219758333335,63.0,91.0
25,9.302523208333335,9.981870083333336,60.0,86.0
26,9.519914208333335,10.003609183333335,63.0,87.0
27,9.085132208333334,10.014478733333334,55.0,78.0
28,8.867741208333335,10.038029425000001,48.0,89.0
29,9.954696208333335,10.315202950000002,67.0,86.0
30,10.606869208333334,11.175708991666669,62.0,87.0
31,10.606869208333334,11.204694458333336,58.0,78.0
32,11.259042208333335,11.545273691666669,58.0,69.0
33,11.259042208333335,11.599621441666669,62.0,87.0
34,11.041651208333334,11.677519883333336,53.0,67.0
35,11.693824208333336,11.793461750000002,62.0,79.0
36,10.606869208333334,12.076070050000002,46.0,82.0
37,11.693824208333336,12.103243925000001,58.0,87.0
38,11.259042208333335,12.184765550000002,65.0,88.0
39,12.345997208333335,12.840561733333335,63.0,80.0
40,12.780779208333335,13.460126083333336,56.0,84.0
41,12.998170208333335,13.470995633333336,68.0,93.0
42,13.432952208333335,13.695633000000003,63.0,88.0
43,12.345997208333335,13.905777633333335,44.0,88.0
44,12.563388208333336,13.922081958333335,51.0,74.0
45,13.650343208333336,13.936574691666669,56.0,80.0
46,14.085125208333336,14.525341983333336,60.0,80.0
47,14.085125208333336,14.570631775000003,63.0,78.0
48,14.085125208333336,14.579689733333336,56.0,73.0
49,14.519907208333336,15.068819483333336,51.0,66.0
50,14.954689208333336,15.094181766666669,60.0,88.0
51,14.085125208333336,15.108674500000003,44.0,87.0
52,14.954689208333336,15.115920866666668,56.0,83.0
53,14.954689208333336,15.128602008333337,63.0,88.0
54,14.954689208333336,15.164833841666669,68.0,86.0
55,15.172080208333336,15.255413425000002,51.0,71.0
56,15.389471208333335,15.489108750000002,44.0,89.0
57,15.824253208333335,16.063383308333336,60.0,82.0
58,15.824253208333335,16.150339708333338,63.0,82.0
59,16.259035208333337,16.423890050000004,60.0,79.0
60,16.476426208333336,16.53983191666667,60.0,74.0
61,16.476426208333336,16.775338833333336,67.0,87.0
62,16.041644208333334,16.99091824166667,55.0,78.0
63,15.824253208333335,17.005410975000004,48.0,89.0
64,16.911208208333335,17.155773083333337,63.0,87.0
65,18.215554208333337,18.53982911666667,62.0,87.0
66,17.998163208333334,18.541640708333336,58.0,87.0
67,17.780772208333335,18.777147625,53.0,80.0
68,18.650336208333336,18.782582400000003,58.0,76.0
69,17.563381208333336,18.78982876666667,46.0,90.0
70,18.650336208333336,18.842364925000002,62.0,88.0
71,18.650336208333336,18.916640183333335,65.0,88.0
72,19.302509208333337,19.543450900000003,56.0,77.0
73,19.302509208333337,19.78439259166667,63.0,78.0
74,19.954682208333338,20.117725458333336,63.0,71.0
75,19.737291208333335,20.315188950000003,56.0,86.0
76,20.389464208333337,20.413014900000004,63.0,71.0
77,19.954682208333338,20.449246733333336,60.0,83.0
78,19.519900208333336,20.559753825000005,51.0,72.0
79,19.302509208333337,20.56700019166667,44.0,90.0
80,20.389464208333337,20.574246558333336,68.0,92.0
81,21.041637208333338,21.509027858333337,55.0,79.0
82,21.041637208333338,21.57786834166667,58.0,79.0
83,21.041637208333338,22.070621275000004,39.0,90.0
84,21.476419208333336,22.130403800000003,46.0,64.0
85,21.693810208333336,22.14851971666667,63.0,91.0
86,22.128592208333338,22.286200683333337,58.0,96.0
87,22.345983208333337,22.514461233333336,55.0,83.0
88,22.780765208333335,23.052503958333336,60.0,84.0
89,22.998156208333338,23.291634058333337,55.0,88.0
90,23.215547208333337,23.326054300000003,60.0,82.0
91,23.432938208333336,23.748155158333336,63.0,90.0
92,22.780765208333335,23.874966575000002,48.0,92.0
93,23.86772020833334,24.003589583333337,60.0,89.0
94,23.86772020833334,24.005401175000003,55.0,79.0
95,24.519893208333336,24.99634181666667,58.0,82.0
96,24.519893208333336,25.054312750000005,62.0,87.0
97,24.954675208333338,25.33329786666667,53.0,69.0
98,25.172066208333337,25.443804958333338,58.0,87.0
99,25.172066208333337,25.449239733333336,62.0,88.0
100,25.172066208333337,25.483659975000005,65.0,85.0
101,25.606848208333336,25.77894941666667,58.0,89.0
102,24.519893208333336,26.039818616666672,46.0,87.0
103,26.041630208333338,26.182934358333338,58.0,83.0
104,25.606848208333336,26.231847333333338,62.0,89.0
105,26.69380320833334,27.02351289166667,55.0,85.0
106,26.911194208333338,27.16662863333334,60.0,85.0
107,27.128585208333337,27.38764281666667,62.0,88.0
108,27.345976208333337,27.742714783333337,67.0,88.0
109,26.259021208333337,27.826048000000004,43.0,88.0
110,27.78075820833334,27.916627583333337,60.0,81.0
111,27.998149208333338,29.085104208333338,62.0,71.0
112,27.998149208333338,29.25720541666667,43.0,88.0
113,27.998149208333338,29.34416181666667,59.0,76.0
114,27.998149208333338,29.429306625000006,55.0,82.0
115,29.73727720833334,30.409377716666672,63.0,87.0
116,30.172059208333337,30.461913875000004,55.0,62.0
117,30.389450208333336,30.65937736666667,60.0,81.0
118,29.73727720833334,30.918434975000004,48.0,82.0
119,30.82423220833334,31.036188433333336,60.0,87.0
120,30.82423220833334,31.05068116666667,63.0,83.0
121,30.82423220833334,31.11046369166667,55.0,81.0
122,31.47640520833334,31.990897241666673,58.0,76.0
123,31.47640520833334,32.02169430000001,62.0,76.0
124,31.911187208333338,32.35683875833334,53.0,62.0
125,32.12857820833334,32.74995415000001,58.0,76.0
126,32.780751208333335,32.960098783333336,53.0,79.0
127,31.47640520833334,33.00176539166667,46.0,78.0
128,32.12857820833334,33.03075085833334,65.0,80.0
129,32.12857820833334,33.054301550000005,62.0,80.0
130,32.99814220833334,33.22459116666667,58.0,82.0
131,33.65031520833334,34.29161865833334,56.0,80.0
132,33.21553320833334,34.39487938333334,44.0,88.0
133,33.86770620833334,34.412995300000006,63.0,82.0
134,33.43292420833334,34.52712557500001,51.0,73.0
135,34.519879208333336,34.65031380833334,44.0,87.0
136,34.95466120833334,35.25357383333334,55.0,80.0
137,34.95466120833334,35.41480549166667,58.0,77.0
138,35.38944320833334,35.690167425000006,55.0,77.0
139,35.17205220833334,36.07422485833334,46.0,69.0
140,34.95466120833334,36.083282816666674,39.0,87.0
141,35.60683420833334,36.08871759166667,63.0,88.0
142,36.04161620833334,36.29161585833334,58.0,83.0
143,36.25900720833334,36.431108416666675,55.0,86.0
144,36.69378920833334,36.96915114166667,55.0,80.0
145,37.12857120833334,37.35864335000001,55.0,72.0
146,36.69378920833334,37.364078125000006,60.0,83.0
147,36.69378920833334,37.76081670000001,48.0,88.0
148,37.34596220833334,37.92385995000001,63.0,91.0
149,37.78074420833334,38.01262794166667,60.0,79.0
150,38.432917208333336,38.994510625000004,58.0,72.0
151,38.432917208333336,39.018061316666675,62.0,76.0
152,38.86769920833334,39.22095958333334,53.0,65.0
153,39.08509020833334,39.59052428333334,58.0,77.0
154,39.51987220833334,39.76443708333334,53.0,80.0
155,38.432917208333336,39.787987775000005,46.0,80.0
156,39.08509020833334,39.78979936666667,62.0,76.0
157,39.08509020833334,39.795234141666675,65.0,85.0
158,39.73726320833334,40.03617583333334,58.0,86.0
159,39.95465420833334,40.159364066666676,62.0,79.0
160,40.82421820833334,41.18291335833334,63.0,81.0
161,40.60682720833334,41.19921768333334,56.0,76.0
162,41.25900020833334,41.35863775000001,56.0,72.0
163,40.17204520833334,41.36226093333334,44.0,89.0
164,40.389436208333336,41.380376850000005,51.0,70.0
165,41.25900020833334,41.38581162500001,60.0,81.0
166,41.25900020833334,41.44740574166667,63.0,78.0
167,41.91117320833334,42.202839466666674,55.0,79.0
168,41.91117320833334,42.39486818333334,58.0,78.0
169,42.34595520833334,42.61225918333334,55.0,77.0
170,42.56334620833334,42.72638945833334,58.0,89.0
171,42.12856420833334,43.143055541666676,46.0,70.0
172,41.91117320833334,43.16298305000001,39.0,84.0
173,42.99812820833334,43.22820035000001,63.0,96.0
174,43.21551920833334,43.35138858333334,58.0,89.0
175,43.43291020833334,43.561533216666675,55.0,82.0
176,43.65030120833334,44.54522749166667,55.0,79.0
177,43.65030120833334,44.565155000000004,60.0,88.0
178,44.51986520833334,44.99993700000001,63.0,91.0
179,43.65030120833334,45.17566139166667,48.0,81.0
180,44.73725620833334,45.20645845000001,55.0,83.0
181,44.95464720833334,45.23725550833334,60.0,82.0
182,45.17203820833334,45.349574191666676,63.0,81.0
183,45.82421120833334,45.93471830000001,58.0,80.0
184,45.38942920833334,46.594137666666676,46.0,87.0
185,46.04160220833334,46.73725340833334,58.0,84.0
186,45.60682020833334,46.78073160833334,53.0,64.0
187,46.69377520833334,46.918412575000005,46.0,82.0
188,46.04160220833334,47.05247035833334,62.0,87.0
189,46.91116620833334,47.152107900000004,58.0,83.0
190,47.56333920833334,47.69920858333334,56.0,75.0
191,47.34594820833334,48.01261394166667,51.0,73.0
192,47.78073020833334,48.13580217500001,56.0,87.0
193,47.78073020833334,48.14123695000001,63.0,82.0
194,48.215512208333344,48.38942500833334,56.0,87.0
195,48.215512208333344,48.39848296666668,63.0,83.0
196,47.12855720833334,48.47094663333334,44.0,87.0
197,48.43290320833334,48.53254075000001,51.0,73.0
198,48.86768520833334,49.37311928333334,58.0,78.0
199,48.86768520833334,49.407539525000004,55.0,80.0
200,49.51985820833334,49.96913294166667,63.0,91.0
201,48.86768520833334,50.09050958333334,39.0,80.0
202,49.95464020833334,50.12492982500001,58.0,91.0
203,49.30246720833334,50.13036460000001,46.0,71.0
204,50.172031208333344,50.30246580833334,55.0,83.0
205,50.60681320833334,50.77529123333334,55.0,79.0
206,50.60681320833334,51.01985610833334,60.0,80.0
207,51.25898620833334,51.60137703333334,60.0,80.0
208,51.04159520833334,51.83507235833334,55.0,82.0
209,50.60681320833334,51.845941908333344,48.0,87.0
210,51.69376820833334,51.93289830833334,63.0,88.0
211,51.69376820833334,52.28615868333334,67.0,87.0
212,51.911159208333345,52.300651416666675,60.0,74.0
213,52.128550208333344,52.333260066666675,63.0,84.0
214,52.78072320833334,52.902099850000006,58.0,80.0
215,52.56333220833334,53.14666472500001,53.0,76.0
216,52.99811420833334,53.70282336666668,58.0,82.0
217,53.65028720833334,53.88760571666668,53.0,78.0
218,52.34594120833334,53.925649141666675,46.0,89.0
219,52.99811420833334,54.032533050000005,62.0,87.0
220,53.867678208333345,54.056083741666676,58.0,74.0
221,54.51985120833334,54.789778366666674,56.0,83.0
222,54.73724220833334,55.32782109166668,63.0,83.0
223,55.17202420833334,55.36405292500001,60.0,79.0
224,54.085069208333344,55.632168491666675,44.0,91.0
225,54.30246020833334,55.65934236666668,51.0,69.0
226,55.60680620833334,55.742675583333344,56.0,74.0
227,55.824197208333345,56.070573675000006,55.0,82.0
228,55.824197208333345,56.19013872500001,67.0,83.0
229,56.25897920833334,56.36405152500001,55.0,90.0
230,56.041588208333344,56.53071795833334,50.0,79.0
231,56.47637020833334,56.729993041666674,62.0,92.0
232,56.47637020833334,56.75535532500001,55.0,93.0
233,56.69376120833334,57.003543383333344,50.0,88.0
234,56.91115220833334,57.16477504166667,55.0,89.0
235,56.91115220833334,57.240861891666675,59.0,89.0
236,55.824197208333345,57.39484718333334,43.0,87.0
237,56.91115220833334,57.42383265000001,62.0,88.0
238,57.34593420833334,57.458252891666675,55.0,75.0
239,57.12854320833334,57.461876075000006,50.0,84.0
240,57.56332520833334,57.84049873333334,56.0,78.0
241,57.56332520833334,58.04883177500001,63.0,83.0
242,58.215498208333344,58.59049768333334,68.0,87.0
243,57.998107208333344,58.60861360000001,56.0,83.0
244,57.780716208333345,58.82056982500001,51.0,75.0
245,57.56332520833334,58.90027985833334,44.0,93.0
246,59.08506220833334,59.23542431666667,56.0,86.0
247,58.65028020833334,59.25172864166667,63.0,88.0
248,59.737235208333345,60.24266928333334,55.0,87.0
249,59.954626208333345,60.25172724166668,62.0,89.0
250,59.519844208333346,60.50897325833334,50.0,76.0
251,59.30245320833334,60.51259644166667,43.0,87.0
252,60.38940820833334,60.56332100833334,58.0,80.0
253,60.38940820833334,60.568755783333344,55.0,84.0
254,60.38940820833334,60.60679920833334,62.0,89.0
255,61.04158120833334,61.28433449166668,56.0,79.0
256,61.04158120833334,61.547015283333344,60.0,83.0
257,61.04158120833334,61.56513120000001,63.0,78.0
258,61.476363208333346,61.65208760000001,56.0,79.0
259,61.693754208333345,62.164768041666676,68.0,88.0
260,62.128536208333344,62.197376691666676,60.0,75.0
261,61.04158120833334,62.210057833333344,44.0,89.0
262,61.25897220833334,62.210057833333344,51.0,67.0
263,62.34592720833334,62.42020246666667,60.0,61.0
264,62.128536208333344,62.43650679166667,63.0,88.0
265,62.34592720833334,62.45643430000001,56.0,88.0
266,62.78070920833334,63.24085349166668,55.0,75.0
267,62.78070920833334,63.282520100000006,58.0,76.0
268,63.432882208333346,63.91114240833334,58.0,84.0
269,63.432882208333346,63.91838877500001,55.0,83.0
270,63.21549120833334,63.93469310000001,50.0,65.0
271,63.432882208333346,63.97817130000001,62.0,87.0
272,62.78070920833334,64.13759136666668,43.0,80.0
273,64.08505520833334,64.24991005000001,50.0,87.0
274,64.51983720833334,64.78070640833334,56.0,76.0
275,64.51983720833334,65.01802491666668,60.0,82.0
276,64.51983720833334,65.03432924166668,63.0,79.0
277,64.95461920833334,65.09048858333334,56.0,78.0
278,65.17201020833335,65.3912128,60.0,83.0
279,65.17201020833335,65.41295190000001,63.0,80.0
280,65.17201020833335,65.42744463333334,56.0,76.0
281,65.17201020833335,65.47454601666668,68.0,88.0
282,64.51983720833334,65.60135743333335,44.0,96.0
283,64.73722820833335,65.62309653333334,51.0,68.0
284,65.60679220833335,65.68650224166667,60.0,85.0
285,65.60679220833335,65.71005293333334,56.0,82.0
286,65.60679220833335,65.75896590833334,63.0,84.0
287,66.25896520833335,66.48541416666667,55.0,76.0
288,66.69374720833335,66.75715291666668,55.0,68.0
289,66.25896520833335,66.76258769166668,58.0,77.0
290,66.47635620833334,66.98179028333334,50.0,73.0
291,66.91113820833334,67.46729685000001,58.0,80.0
292,66.91113820833334,67.47454321666667,62.0,87.0
293,66.91113820833334,67.4781664,55.0,81.0
294,66.25896520833335,67.72997764166668,43.0,87.0
295,67.56331120833335,67.842296325,50.0,82.0
296,67.78070220833334,67.91657158333335,55.0,81.0
297,67.99809320833334,68.47635340833334,53.0,83.0
298,67.99809320833334,68.50352728333334,56.0,77.0
299,68.65026620833335,68.69374440833334,53.0,74.0
300,68.43287520833334,68.78070080833335,48.0,75.0
301,67.99809320833334,69.19555530000001,41.0,89.0
302,68.65026620833335,69.32598990000001,56.0,85.0
303,69.08504820833335,69.34229422500002,48.0,87.0
304,68.65026620833335,69.37309128333334,60.0,87.0
305,69.30243920833334,69.39664197500001,53.0,85.0
306,69.7390328,70.18106116666668,55.0,81.0
307,69.74446757500002,70.20280026666667,59.0,80.0
308,70.38577102500001,70.54156790833335,55.0,70.0
309,70.58142292500001,70.80606029166668,55.0,74.0
310,70.57961133333335,70.82236461666668,59.0,91.0
311,70.58323451666668,70.83323416666667,62.0,90.0
312,70.93649489166668,70.96729195000002,55.0,77.0
313,70.90207465000002,71.12852360833334,62.0,79.0
314,70.90569783333335,71.13939315833335,67.0,88.0
315,70.90932101666668,71.14482793333335,59.0,82.0
316,71.19011772500001,71.47634920833335,59.0,76.0
317,71.21004523333335,71.47816080000001,55.0,88.0
318,71.47634920833335,71.47816080000001,55.0,86.0
319,71.20098727500002,71.48178398333334,62.0,81.0
320,70.14482933333335,71.50352308333335,50.0,76.0
321,69.74627916666668,71.55062446666668,43.0,89.0
322,71.47634920833335,71.83685595000001,36.0,87.0
323,71.47634920833335,71.93649349166668,63.0,86.0
324,71.91113120833334,71.98359487500001,55.0,76.0
325,72.12852220833335,72.30605819166668,55.0,86.0
326,72.12852220833335,72.30605819166668,60.0,90.0
327,72.12852220833335,72.35859435,63.0,92.0
328,72.34591320833334,72.66294175000002,48.0,87.0
329,72.56330420833335,73.08504260833334,63.0,80.0
330,72.99808620833335,73.21547720833334,60.0,81.0
331,72.56330420833335,73.27344814166668,67.0,81.0
332,73.65025920833334,73.92199795833335,58.0,76.0
333,73.43286820833335,74.16112805833335,53.0,59.0
334,73.21547720833334,74.28250470000002,46.0,92.0
335,74.08504120833335,74.36764950833334,58.0,88.0
336,74.08504120833335,74.38757701666668,62.0,89.0
337,74.30243220833334,74.46728705000001,53.0,81.0
338,74.08504120833335,74.55424345000002,65.0,89.0
339,74.51982320833335,74.61040279166667,46.0,91.0
340,75.38938720833335,75.51801021666668,56.0,89.0
341,75.17199620833334,75.71909689166668,51.0,83.0
342,75.60677820833334,75.80967647500002,60.0,94.0
343,75.60677820833334,75.83866194166667,56.0,87.0
344,75.60677820833334,75.84771990000002,63.0,90.0
345,74.95460520833335,75.95641540000001,44.0,101.0
346,75.82416920833334,76.13032820000001,51.0,76.0
347,76.04156020833335,76.16474844166667,56.0,89.0
348,76.04156020833335,76.26800916666667,60.0,87.0
349,76.04156020833335,76.26800916666667,63.0,81.0
350,76.04156020833335,76.63576227500002,68.0,81.0
351,76.47634220833335,76.71909549166668,56.0,87.0
352,77.12851520833334,77.24264548333335,51.0,87.0
353,76.91112420833335,77.44192056666668,46.0,75.0
354,76.69373320833334,77.52163060000001,39.0,92.0
355,77.34590620833335,77.59771745000002,58.0,88.0
356,77.34590620833335,77.60315222500002,55.0,93.0
357,77.34590620833335,77.60858700000001,63.0,88.0
358,77.34590620833335,77.62126814166668,51.0,93.0
359,77.56329720833334,77.71909409166668,46.0,88.0
360,77.78068820833334,77.90568803333335,51.0,87.0
361,77.78068820833334,77.96547055833335,55.0,89.0
362,77.78068820833334,78.09590515833335,58.0,86.0
363,77.99807920833335,78.11945585000001,51.0,88.0
364,77.78068820833334,78.17380360000001,63.0,44.0
365,78.43286120833335,78.90387504166668,63.0,82.0
366,78.43286120833335,78.93829528333335,60.0,79.0
367,78.86764320833335,79.36945410000001,55.0,77.0
368,79.30242520833335,79.548801675,60.0,87.0
369,78.43286120833335,79.55423645000002,48.0,91.0
370,79.30242520833335,79.59771465000001,63.0,90.0
371,79.51981620833334,79.62488852500002,55.0,81.0
372,79.30242520833335,79.81510565,67.0,87.0
373,79.73720720833334,79.84227952500001,60.0,91.0
374,80.17198920833334,80.44372795833334,58.0,78.0
375,80.17198920833334,80.65387259166668,62.0,88.0
376,80.60677120833334,80.74807535833335,58.0,80.0
377,80.38938020833335,80.88937950833335,53.0,56.0
378,80.82416220833335,81.12669801666668,65.0,88.0
379,80.82416220833335,81.13756756666668,58.0,85.0
380,80.82416220833335,81.14119075,62.0,89.0
381,80.17198920833334,81.20640805000001,46.0,88.0
382,81.25894420833335,81.39119040000001,62.0,90.0
383,81.25894420833335,81.42198745833335,58.0,90.0
384,81.47633520833335,81.59771185000001,53.0,76.0
385,81.91111720833335,82.26256599166668,56.0,80.0
386,81.91111720833335,82.31691374166668,60.0,82.0
387,81.91111720833335,82.35314557500001,63.0,78.0
388,82.34589920833335,82.87488397500002,51.0,68.0
389,81.91111720833335,82.90024625833334,44.0,91.0
390,82.78068120833335,83.07597065000002,56.0,87.0
391,82.78068120833335,83.10314452500002,60.0,91.0
392,82.99807220833334,83.12850680833334,51.0,83.0
393,82.78068120833335,83.13212999166667,63.0,89.0
394,82.78068120833335,83.18828933333334,68.0,83.0
395,83.21546320833335,83.30060801666669,44.0,89.0
396,83.65024520833335,84.04698378333335,55.0,83.0
397,83.65024520833335,84.09046198333334,62.0,88.0
398,84.30241820833335,84.43466440000002,55.0,87.0
399,84.08502720833334,84.58864969166667,50.0,79.0
400,84.51980920833334,84.76618567500002,55.0,81.0
401,84.51980920833334,84.79517114166669,59.0,93.0
402,84.51980920833334,84.80241750833335,62.0,93.0
403,84.51980920833334,84.80604069166668,67.0,88.0
404,84.95459120833334,84.99625781666668,62.0,68.0
405,84.95459120833334,85.26618497500002,55.0,93.0
406,85.17198220833335,85.34589500833334,62.0,83.0
407,85.17198220833335,85.35676455833335,59.0,90.0
408,84.73720020833335,85.40748912500001,50.0,90.0
409,83.65024520833335,85.41111230833334,43.0,91.0
410,85.38937320833335,85.63574967500001,55.0,86.0
411,85.38937320833335,85.74987995000001,36.0,87.0
412,85.38937320833335,85.84951749166667,63.0,86.0
413,85.82415520833335,85.89661887500002,55.0,76.0
414,86.04154620833334,86.21908219166669,55.0,86.0
415,86.04154620833334,86.21908219166669,60.0,90.0
416,86.04154620833334,86.27161835000001,63.0,92.0
417,86.25893720833335,86.57596575000001,48.0,87.0
418,86.47632820833334,86.99806660833335,63.0,80.0
419,86.91111020833334,87.12850120833335,60.0,81.0
420,86.47632820833334,87.18647214166668,67.0,81.0
421,87.56328320833335,87.83502195833334,58.0,76.0
422,87.34589220833335,88.07415205833335,53.0,59.0
423,87.12850120833335,88.19552870000001,46.0,92.0
424,87.99806520833334,88.28067350833335,58.0,88.0
425,87.99806520833334,88.30060101666668,62.0,89.0
426,88.21545620833335,88.38031105000002,53.0,81.0
427,87.99806520833334,88.46726745000001,65.0,89.0
428,88.43284720833334,88.52342679166668,46.0,91.0
429,89.30241120833335,89.43103421666667,56.0,89.0
430,89.08502020833335,89.63212089166669,51.0,83.0
431,89.51980220833335,89.72270047500001,60.0,94.0
432,89.51980220833335,89.75168594166668,56.0,87.0
433,89.51980220833335,89.76074390000001,63.0,90.0
434,88.86762920833334,89.86943940000002,44.0,101.0
435,89.73719320833335,90.04335220000002,51.0,76.0
436,89.95458420833334,90.07777244166668,56.0,89.0
437,89.95458420833334,90.18103316666668,60.0,87.0
438,89.95458420833334,90.18103316666668,63.0,81.0
439,89.95458420833334,90.54878627500001,68.0,81.0
440,90.38936620833334,90.63211949166669,56.0,87.0
441,91.04153920833335,91.15566948333334,51.0,87.0
442,90.82414820833334,91.35494456666667,46.0,75.0
443,90.60675720833335,91.43465460000002,39.0,92.0
444,91.25893020833335,91.51074145000001,58.0,88.0
445,91.25893020833335,91.51617622500001,55.0,93.0
446,91.25893020833335,91.52161100000001,63.0,88.0
447,91.25893020833335,91.53429214166668,51.0,93.0
448,91.47632120833335,91.63211809166668,46.0,88.0
449,91.69371220833335,91.81871203333334,51.0,87.0
450,91.69371220833335,91.87849455833334,55.0,89.0
451,91.69371220833335,92.00892915833334,58.0,86.0
452,91.91110320833334,92.03247985000002,51.0,88.0
453,91.69371220833335,92.08682760000002,63.0,44.0
454,92.34588520833334,92.81689904166669,63.0,82.0
455,92.34588520833334,92.85131928333335,60.0,79.0
456,92.78066720833334,93.28247810000002,55.0,77.0
457,93.21544920833335,93.46182567500001,60.0,87.0
458,92.34588520833334,93.46726045000001,48.0,91.0
459,93.21544920833335,93.51073865000001,63.0,90.0
460,93.43284020833335,93.53791252500001,55.0,81.0
461,93.21544920833335,93.72812965000001,67.0,87.0
462,93.65023120833335,93.75530352500002,60.0,91.0
463,94.08501320833335,94.35675195833335,58.0,78.0
464,94.08501320833335,94.56689659166668,62.0,88.0
465,94.51979520833335,94.66109935833335,58.0,80.0
466,94.30240420833334,94.80240350833334,53.0,56.0
467,94.73718620833334,95.03972201666669,65.0,88.0
468,94.73718620833334,95.05059156666668,58.0,85.0
469,94.73718620833334,95.05421475000001,62.0,89.0
470,94.08501320833335,95.11943205000001,46.0,88.0
471,95.17196820833335,95.30421440000002,62.0,90.0
472,95.17196820833335,95.33501145833335,58.0,90.0
473,95.38935920833335,95.51073585000002,53.0,76.0
474,95.82414120833334,96.17558999166668,56.0,80.0
475,95.82414120833334,96.22993774166669,60.0,82.0
476,95.82414120833334,96.26616957500002,63.0,78.0
477,96.25892320833334,96.78790797500001,51.0,68.0
478,95.82414120833334,96.81327025833335,44.0,91.0
479,96.69370520833336,96.98899465000001,56.0,87.0
480,96.69370520833336,97.01616852500001,60.0,91.0
481,96.91109620833335,97.04153080833335,51.0,83.0
482,96.69370520833336,97.04515399166668,63.0,89.0
483,96.69370520833336,97.10131333333335,68.0,83.0
484,97.12848720833335,97.21363201666668,44.0,89.0
485,97.56326920833335,97.96000778333335,55.0,83.0
486,97.56326920833335,98.00348598333335,62.0,88.0
487,98.21544220833334,98.34768840000001,55.0,87.0
488,97.99805120833335,98.50167369166668,50.0,79.0
489,98.43283320833335,98.67920967500001,55.0,81.0
490,98.43283320833335,98.70819514166668,59.0,93.0
491,98.43283320833335,98.71544150833334,62.0,93.0
492,98.43283320833335,98.71906469166669,67.0,88.0
493,98.86761520833335,98.90928181666668,62.0,68.0
494,98.86761520833335,99.17920897500001,55.0,93.0
495,99.08500620833335,99.25891900833335,62.0,83.0
496,99.08500620833335,99.26978855833335,59.0,90.0
497,98.65022420833336,99.32051312500002,50.0,90.0
498,97.56326920833335,99.32413630833335,43.0,91.0
499,99.30239720833335,99.56326640833335,60.0,81.0
500,99.30239720833335,99.75891830833335,63.0,88.0
501,99.51978820833335,100.58319251666668,55.0,80.0
502,99.30239720833335,100.60312002500001,48.0,90.0
503,99.95457020833335,101.05058316666668,63.0,84.0
504,99.73717920833334,101.06688749166668,60.0,80.0
505,101.69369820833334,102.03790062500002,62.0,81.0
506,101.47630720833335,102.04152380833335,58.0,75.0
507,101.25891620833335,102.40021895833335,53.0,71.0
508,101.04152520833335,102.45456670833335,46.0,90.0
509,102.12848020833334,102.71543590833335,58.0,74.0
510,102.12848020833334,102.74079819166668,62.0,80.0
511,102.12848020833334,102.80058071666669,65.0,86.0
512,102.78065320833335,103.80782568333335,44.0,89.0
513,102.99804420833335,103.85492706666669,51.0,76.0
514,103.21543520833335,103.88028935000001,56.0,86.0
515,103.43282620833335,104.09586875833335,63.0,83.0
516,103.86760820833335,104.13391218333335,60.0,82.0
517,104.95247774583335,105.48677377916668,51.0,77.0
518,105.16908424583335,105.52467991666668,55.0,78.0
519,104.51926474583334,105.60771240833334,39.0,88.0
520,104.73587124583335,105.63659327500001,46.0,79.0
521,105.60229724583334,105.65464381666668,55.0,76.0
522,105.81890374583335,105.93262215833334,51.0,88.0
523,105.60229724583334,106.04634057083335,63.0,91.0
524,106.68532974583334,107.36222505833335,60.0,86.0
525,106.90193624583334,107.38388570833335,63.0,87.0
526,106.46872324583335,107.39471603333335,55.0,78.0
527,106.25211674583335,107.4181817375,48.0,89.0
528,107.33514924583335,107.69435502500001,67.0,86.0
529,107.98496874583334,108.55175575416668,62.0,87.0
530,107.98496874583334,108.58063662083335,58.0,78.0
531,108.63478824583335,108.91998680416668,58.0,69.0
532,108.63478824583335,108.97413842916669,62.0,87.0
533,108.41818174583335,109.05175575833334,53.0,67.0
534,109.06800124583334,109.16727922500002,62.0,79.0
535,107.98496874583334,109.44886767500002,46.0,82.0
536,109.06800124583334,109.47594348750002,58.0,87.0
537,108.63478824583335,109.55717092500001,65.0,88.0
538,109.71782074583335,110.21060053333335,63.0,80.0
539,110.15103374583335,110.82792905833335,56.0,84.0
540,110.36764024583334,110.83875938333335,68.0,93.0
541,110.80085324583335,111.06258610000002,63.0,88.0
542,109.71782074583335,111.27197238333335,44.0,88.0
543,109.93442724583335,111.28821787083335,51.0,74.0
544,111.01745974583335,111.30265830416668,56.0,80.0
545,111.45067274583334,111.88930090833335,60.0,80.0
546,111.45067274583334,111.93442726250001,63.0,78.0
547,111.45067274583334,111.94345253333334,56.0,73.0
548,111.88388574583334,112.43081715833334,51.0,66.0
549,112.31709874583335,112.45608791666668,60.0,88.0
550,111.45067274583334,112.47052835000001,44.0,87.0
551,112.31709874583335,112.47774856666668,56.0,83.0
552,112.31709874583335,112.49038394583334,63.0,88.0
553,112.31709874583335,112.52648502916668,68.0,86.0
554,112.53370524583335,112.61673773750002,51.0,71.0
555,112.75031174583334,112.84958972500002,44.0,89.0
556,113.18352474583335,113.42179189583335,60.0,82.0
557,113.18352474583335,113.50843449583334,63.0,82.0
558,113.61673774583335,113.78099767500001,60.0,79.0
559,113.83334424583335,113.89652114166668,60.0,74.0
560,113.83334424583335,114.13117818333335,67.0,87.0
561,113.40013124583335,114.34597962916668,55.0,78.0
562,113.18352474583335,114.36042006250001,48.0,89.0
563,114.26655724583335,114.51023955833335,63.0,87.0
564,115.56619624583334,115.88930094166668,62.0,87.0
565,115.34958974583334,115.89110599583334,58.0,87.0
566,115.13298324583334,116.12576303750001,53.0,80.0
567,115.99940924583335,116.13117820000001,58.0,76.0
568,114.91637674583335,116.13839841666667,46.0,90.0
569,115.99940924583335,116.19074498750001,62.0,88.0
570,115.99940924583335,116.26475220833335,65.0,88.0
571,116.64922874583334,116.88930095,56.0,77.0
572,116.64922874583334,117.12937315416669,63.0,78.0
573,117.29904824583335,117.46188883333335,63.0,71.0
574,117.08244174583335,117.65935232500001,56.0,86.0
575,117.73362758333334,117.75717827500002,63.0,71.0
576,117.29904824583335,117.79341010833335,60.0,83.0
577,116.86583524583335,117.90391720000002,51.0,72.0
578,116.64922874583334,117.91116356666669,44.0,90.0
579,117.73362758333334,117.91840993333335,68.0,92.0
580,118.38580058333335,118.85319123333335,55.0,79.0
581,118.38580058333335,118.92203171666668,58.0,79.0
582,118.38580058333335,119.41478465000002,39.0,90.0
583,118.82058258333335,119.47456717500002,46.0,64.0
584,119.03797358333335,119.49268309166668,63.0,91.0
585,119.47275558333335,119.63036405833336,58.0,96.0
586,119.69014658333334,119.85862460833334,55.0,83.0
587,120.12492858333336,120.39666733333335,60.0,84.0
588,120.34231958333335,120.63579743333335,55.0,88.0
589,120.55971058333336,120.67021767500002,60.0,82.0
590,120.77710158333335,121.09231853333335,63.0,90.0
591,120.12492858333336,121.21912995000002,48.0,92.0
592,121.21188358333335,121.34775295833334,60.0,89.0
593,121.21188358333335,121.34956455000003,55.0,79.0
594,121.86405658333335,122.34050519166668,58.0,82.0
595,121.86405658333335,122.39847612500002,62.0,87.0
596,122.29883858333335,122.67746124166669,53.0,69.0
597,122.51622958333336,122.78796833333335,58.0,87.0
598,122.51622958333336,122.79340310833335,62.0,88.0
599,122.51622958333336,122.82782335000002,65.0,85.0
600,122.95101158333335,123.12311279166668,58.0,89.0
601,121.86405658333335,123.38398199166669,46.0,87.0
602,123.38579358333335,123.52709773333335,58.0,83.0
603,122.95101158333335,123.57601070833336,62.0,89.0
604,124.03796658333336,124.36767626666668,55.0,85.0
605,124.25535758333335,124.51079200833335,60.0,85.0
606,124.47274858333336,124.73180619166669,62.0,88.0
607,124.69013958333335,125.08687815833335,67.0,88.0
608,123.60318458333334,125.17021137500002,43.0,88.0
609,125.12492158333335,125.26079095833335,60.0,81.0
610,125.34231258333335,126.42926758333336,62.0,71.0
611,125.34231258333335,126.60136879166669,43.0,88.0
612,125.34231258333335,126.68832519166668,59.0,76.0
613,125.34231258333335,126.77347000000002,55.0,82.0
614,127.08144058333335,127.75354109166669,63.0,87.0
615,127.51622258333336,127.80607725000002,55.0,62.0
616,127.73361358333335,128.00354074166668,60.0,81.0
617,127.08144058333335,128.26259835000002,48.0,82.0
618,128.16839558333336,128.38035180833336,60.0,87.0
619,128.16839558333336,128.39484454166669,63.0,83.0
620,128.16839558333336,128.4546270666667,55.0,81.0
621,128.82056858333334,129.33506061666668,58.0,76.0
622,128.82056858333334,129.36585767500003,62.0,76.0
623,129.25535058333335,129.70100213333336,53.0,62.0
624,129.47274158333335,130.09411752500003,58.0,76.0
625,130.12491458333335,130.30426215833336,53.0,79.0
626,128.82056858333334,130.34592876666667,46.0,78.0
627,129.47274158333335,130.37491423333336,65.0,80.0
628,129.47274158333335,130.398464925,62.0,80.0
629,130.34230558333334,130.5687545416667,58.0,82.0
630,130.99447858333335,131.63578203333336,56.0,80.0
631,130.55969658333336,131.73904275833334,44.0,88.0
632,131.21186958333334,131.75715867500003,63.0,82.0
633,130.77708758333335,131.87128895,51.0,73.0
634,131.86404258333334,131.99447718333334,44.0,87.0
635,132.29882458333336,132.59773720833334,55.0,80.0
636,132.29882458333336,132.7589688666667,58.0,77.0
637,132.73360658333334,133.03433080000002,55.0,77.0
638,132.51621558333335,133.41838823333336,46.0,69.0
639,132.29882458333336,133.4274461916667,39.0,87.0
640,132.95099758333336,133.4328809666667,63.0,88.0
641,133.38577958333335,133.63577923333335,58.0,83.0
642,133.60317058333334,133.77527179166668,55.0,86.0
643,134.03795258333335,134.31331451666668,55.0,80.0
644,134.47273458333336,134.70280672500002,55.0,72.0
645,134.03795258333335,134.7082415,60.0,83.0
646,134.03795258333335,135.10498007500001,48.0,88.0
647,134.69012558333336,135.26802332500003,63.0,91.0
648,135.12490758333337,135.3567913166667,60.0,79.0
649,135.77708058333334,136.33867400000003,58.0,72.0
650,135.77708058333334,136.36222469166668,62.0,76.0
651,136.21186258333336,136.56512295833335,53.0,65.0
652,136.42925358333335,136.93468765833336,58.0,77.0
653,136.86403558333336,137.10860045833334,53.0,80.0
654,135.77708058333334,137.13215115000003,46.0,80.0
655,136.42925358333335,137.1339627416667,62.0,76.0
656,136.42925358333335,137.1393975166667,65.0,85.0
657,137.08142658333335,137.38033920833334,58.0,86.0
658,137.29881758333335,137.50352744166668,62.0,79.0
659,138.16838158333334,138.52707673333336,63.0,81.0
660,137.95099058333335,138.54338105833335,56.0,76.0
661,138.60316358333336,138.702801125,56.0,72.0
662,137.51620858333337,138.70642430833334,44.0,89.0
663,137.73359958333336,138.72454022500003,51.0,70.0
664,138.60316358333336,138.72997500000002,60.0,81.0
665,138.60316358333336,138.7915691166667,63.0,78.0
666,139.25533658333336,139.54700284166668,55.0,79.0
667,139.25533658333336,139.73903155833335,58.0,78.0
668,139.69011858333334,139.95642255833334,55.0,77.0
669,139.90750958333336,140.07055283333335,58.0,89.0
670,139.47272758333335,140.48721891666668,46.0,70.0
671,139.25533658333336,140.50714642500003,39.0,84.0
672,140.34229158333335,140.57236372500003,63.0,96.0
673,140.55968258333337,140.69555195833334,58.0,89.0
674,140.77707358333336,140.9056965916667,55.0,82.0
675,140.99446458333335,141.8893908666667,55.0,79.0
676,140.99446458333335,141.90931837500003,60.0,88.0
677,141.86402858333335,142.344100375,63.0,91.0
678,140.99446458333335,142.5198247666667,48.0,81.0
679,142.08141958333334,142.550621825,55.0,83.0
680,142.29881058333336,142.58141888333336,60.0,82.0
681,142.51620158333336,142.6937375666667,63.0,81.0
682,143.16837458333336,143.27888167500004,58.0,80.0
683,142.73359258333335,143.93830104166668,46.0,87.0
684,143.38576558333335,144.08141678333337,58.0,84.0
685,142.95098358333337,144.12489498333335,53.0,64.0
686,144.03793858333336,144.26257595,46.0,82.0
687,143.38576558333335,144.39663373333335,62.0,87.0
688,144.25532958333335,144.49627127500003,58.0,83.0
689,144.90750258333335,145.04337195833335,56.0,75.0
690,144.69011158333336,145.3567773166667,51.0,73.0
691,145.12489358333335,145.47996555000003,56.0,87.0
692,145.12489358333335,145.48540032500003,63.0,82.0
693,145.55967558333336,145.73358838333337,56.0,87.0
694,145.55967558333336,145.7426463416667,63.0,83.0
695,144.47272058333334,145.81511000833336,44.0,87.0
696,145.77706658333335,145.87670412500003,51.0,73.0
697,146.21184858333336,146.71728265833335,58.0,78.0
698,146.21184858333336,146.75170290000003,55.0,80.0
699,146.86402158333334,147.31329631666668,63.0,91.0
700,146.21184858333336,147.43467295833335,39.0,80.0
701,147.29880358333335,147.46909320000003,58.0,91.0
702,146.64663058333335,147.47452797500003,46.0,71.0
703,147.51619458333334,147.64662918333335,55.0,83.0
704,147.95097658333336,148.11945460833334,55.0,79.0
705,147.95097658333336,148.36401948333335,60.0,80.0
706,148.60314958333336,148.94554040833336,60.0,80.0
707,148.38575858333337,149.17923573333337,55.0,82.0
708,147.95097658333336,149.19010528333337,48.0,87.0
709,149.03793158333335,149.27706168333336,63.0,88.0
710,149.03793158333335,149.63032205833335,67.0,87.0
711,149.25532258333337,149.6448147916667,60.0,74.0
712,149.47271358333336,149.6774234416667,63.0,84.0
713,150.12488658333336,150.246263225,58.0,80.0
714,149.90749558333334,150.49082810000002,53.0,76.0
715,150.34227758333336,151.04698674166667,58.0,82.0
716,150.99445058333336,151.2317690916667,53.0,78.0
717,149.69010458333335,151.2698125166667,46.0,89.0
718,150.34227758333336,151.37669642500003,62.0,87.0
719,151.21184158333335,151.4002471166667,58.0,74.0
720,151.86401458333336,152.1339417416667,56.0,83.0
721,152.08140558333335,152.6719844666667,63.0,83.0
722,152.51618758333336,152.70821630000003,60.0,79.0
723,151.42923258333337,152.9763318666667,44.0,91.0
724,151.64662358333337,153.0035057416667,51.0,69.0
725,152.95096958333335,153.08683895833337,56.0,74.0
726,153.16836058333337,153.41473705,55.0,82.0
727,153.16836058333337,153.53430210000002,67.0,83.0
728,153.60314258333335,153.70821490000003,55.0,90.0
729,153.38575158333336,153.87488133333335,50.0,79.0
730,153.82053358333337,154.07415641666668,62.0,92.0
731,153.82053358333337,154.09951870000003,55.0,93.0
732,154.03792458333336,154.34770675833335,50.0,88.0
733,154.25531558333336,154.5089384166667,55.0,89.0
734,154.25531558333336,154.5850252666667,59.0,89.0
735,153.16836058333337,154.73901055833335,43.0,87.0
736,154.25531558333336,154.76799602500003,62.0,88.0
737,154.69009758333334,154.80241626666668,55.0,75.0
738,154.47270658333335,154.80603945000001,50.0,84.0
739,154.90748858333336,155.18466210833336,56.0,78.0
740,154.90748858333336,155.39299515000002,63.0,83.0
741,155.55966158333337,155.93466105833335,68.0,87.0
742,155.34227058333335,155.952776975,56.0,83.0
743,155.12487958333335,156.16473320000003,51.0,75.0
744,154.90748858333336,156.24444323333336,44.0,93.0
745,156.42922558333336,156.5795876916667,56.0,86.0
746,155.99444358333335,156.59589201666668,63.0,88.0
747,157.08139858333334,157.58683265833335,55.0,87.0
748,157.29878958333336,157.59589061666668,62.0,89.0
749,156.86400758333335,157.85313663333335,50.0,76.0
750,156.64661658333335,157.85675981666668,43.0,87.0
751,157.73357158333334,157.90748438333335,58.0,80.0
752,157.73357158333334,157.91291915833335,55.0,84.0
753,157.73357158333334,157.95096258333336,62.0,89.0
754,158.38574458333335,158.6284978666667,56.0,79.0
755,158.38574458333335,158.89117865833336,60.0,83.0
756,158.38574458333335,158.90929457500002,63.0,78.0
757,158.82052658333336,158.996250975,56.0,79.0
758,159.03791758333335,159.50893141666668,68.0,88.0
759,159.47269958333337,159.5415400666667,60.0,75.0
760,158.38574458333335,159.55422120833336,44.0,89.0
761,158.60313558333337,159.55422120833336,51.0,67.0
762,159.69009058333336,159.7643658416667,60.0,61.0
763,159.47269958333337,159.78067016666668,63.0,88.0
764,159.69009058333336,159.80059767500003,56.0,88.0
765,160.12487258333334,160.5850168666667,55.0,75.0
766,160.12487258333334,160.62668347500002,58.0,76.0
767,160.77704558333335,161.25530578333337,58.0,84.0
768,160.77704558333335,161.26255215000003,55.0,83.0
769,160.55965458333336,161.27885647500003,50.0,65.0
770,160.77704558333335,161.32233467500004,62.0,87.0
771,160.12487258333334,161.4817547416667,43.0,80.0
772,161.42921858333335,161.59407342500003,50.0,87.0
773,161.86400058333336,162.12486978333337,56.0,76.0
774,161.86400058333336,162.36218829166668,60.0,82.0
775,161.86400058333336,162.37849261666668,63.0,79.0
776,162.29878258333335,162.43465195833335,56.0,78.0
777,162.51617358333334,162.73537617500003,60.0,83.0
778,162.51617358333334,162.75711527500002,63.0,80.0
779,162.51617358333334,162.77160800833337,56.0,76.0
780,162.51617358333334,162.8187093916667,68.0,88.0
781,161.86400058333336,162.94552080833336,44.0,96.0
782,162.08139158333336,162.96725990833335,51.0,68.0
783,162.95095558333335,163.03066561666668,60.0,85.0
784,162.95095558333335,163.05421630833337,56.0,82.0
785,162.95095558333335,163.10312928333337,63.0,84.0
786,163.60312858333336,163.8295775416667,55.0,76.0
787,164.03791058333337,164.1013162916667,55.0,68.0
788,163.60312858333336,164.10675106666667,58.0,77.0
789,163.82051958333335,164.32595365833336,50.0,73.0
790,164.25530158333336,164.81146022500002,58.0,80.0
791,164.25530158333336,164.81870659166668,62.0,87.0
792,164.25530158333336,164.82232977500001,55.0,81.0
793,163.60312858333336,165.0741410166667,43.0,87.0
794,164.90747458333337,165.18645970000003,50.0,82.0
795,165.12486558333336,165.26073495833336,55.0,81.0
796,165.34225658333335,165.82051678333335,53.0,83.0
797,165.34225658333335,165.84769065833336,56.0,77.0
798,165.99442958333336,166.03790778333337,53.0,74.0
799,165.77703858333336,166.12486418333336,48.0,75.0
800,165.34225658333335,166.53971867500002,41.0,89.0
801,165.99442958333336,166.67015327500002,56.0,85.0
802,166.42921158333337,166.68645760000004,48.0,87.0
803,165.99442958333336,166.71725465833336,60.0,87.0
804,166.64660258333336,166.74080535000002,53.0,85.0
805,167.083196175,167.5252245416667,55.0,81.0
806,167.08863095000004,167.5469636416667,59.0,80.0
807,167.72993440000002,167.88573128333337,55.0,70.0
808,167.92558630000002,168.1502236666667,55.0,74.0
809,167.92377470833335,168.1665279916667,59.0,91.0
810,167.9273978916667,168.1773975416667,62.0,90.0
811,168.2806582666667,168.31145532500003,55.0,77.0
812,168.24623802500003,168.47268698333335,62.0,79.0
813,168.24986120833336,168.48355653333334,67.0,88.0
814,168.2534843916667,168.48899130833337,59.0,82.0
815,168.53428110000002,168.82051258333337,59.0,76.0
816,168.55420860833337,168.82232417500003,55.0,88.0
817,168.82051258333337,168.82232417500003,55.0,86.0
818,168.54515065000004,168.82594735833337,62.0,81.0
819,167.48899270833334,168.84768645833336,50.0,76.0
820,167.09044254166668,168.8947878416667,43.0,89.0
821,168.82051258333337,169.18101932500002,36.0,87.0
822,168.82051258333337,169.28065686666667,63.0,86.0
823,169.25529458333335,169.32775825000002,55.0,76.0
824,169.47268558333337,169.6502215666667,55.0,86.0
825,169.47268558333337,169.6502215666667,60.0,90.0
826,169.47268558333337,169.70275772500003,63.0,92.0
827,169.69007658333337,170.007105125,48.0,87.0
828,169.90746758333336,170.42920598333336,63.0,80.0
829,170.34224958333334,170.55964058333336,60.0,81.0
830,169.90746758333336,170.6176115166667,67.0,81.0
831,170.99442258333335,171.26616133333334,58.0,76.0
832,170.77703158333335,171.50529143333335,53.0,59.0
833,170.55964058333336,171.62666807500003,46.0,92.0
834,171.42920458333336,171.71181288333335,58.0,88.0
835,171.42920458333336,171.73174039166668,62.0,89.0
836,171.64659558333335,171.81145042500003,53.0,81.0
837,171.42920458333336,171.89840682500002,65.0,89.0
838,171.86398658333337,171.9545661666667,46.0,91.0
839,172.73355058333337,172.8621735916667,56.0,89.0
840,172.51615958333338,173.0632602666667,51.0,83.0
841,172.95094158333336,173.15383985000003,60.0,94.0
842,172.95094158333336,173.1828253166667,56.0,87.0
843,172.95094158333336,173.191883275,63.0,90.0
844,172.29876858333336,173.30057877500002,44.0,101.0
845,173.16833258333335,173.47449157500003,51.0,76.0
846,173.38572358333334,173.50891181666668,56.0,89.0
847,173.38572358333334,173.6121725416667,60.0,87.0
848,173.38572358333334,173.6121725416667,63.0,81.0
849,173.38572358333334,173.97992565000004,68.0,81.0
850,173.82050558333336,174.0632588666667,56.0,87.0
851,174.47267858333336,174.58680885833337,51.0,87.0
852,174.25528758333337,174.7860839416667,46.0,75.0
853,174.03789658333335,174.86579397500003,39.0,92.0
854,174.69006958333335,174.94188082500003,58.0,88.0
855,174.69006958333335,174.94731560000002,55.0,93.0
856,174.69006958333335,174.95275037500002,63.0,88.0
857,174.69006958333335,174.96543151666668,51.0,93.0
858,174.90746058333337,175.0632574666667,46.0,88.0
859,175.12485158333337,175.24985140833337,51.0,87.0
860,175.12485158333337,175.30963393333337,55.0,89.0
861,175.12485158333337,175.44006853333337,58.0,86.0
862,175.34224258333336,175.46361922500003,51.0,88.0
863,175.12485158333337,175.51796697500004,63.0,44.0
864,175.77702458333334,176.2480384166667,63.0,82.0
865,175.77702458333334,176.28245865833335,60.0,79.0
866,176.21180658333336,176.71361747500004,55.0,77.0
867,176.64658858333337,176.89296505000004,60.0,87.0
868,175.77702458333334,176.898399825,48.0,91.0
869,176.64658858333337,176.94187802500002,63.0,90.0
870,176.86397958333336,176.9690519,55.0,81.0
871,176.64658858333337,177.15926902500001,67.0,87.0
872,177.08137058333335,177.18644290000003,60.0,91.0
873,177.51615258333337,177.78789133333336,58.0,78.0
874,177.51615258333337,177.9980359666667,62.0,88.0
875,177.95093458333335,178.09223873333337,58.0,80.0
876,177.73354358333336,178.23354288333337,53.0,56.0
877,178.16832558333337,178.4708613916667,65.0,88.0
878,178.16832558333337,178.48173094166668,58.0,85.0
879,178.16832558333337,178.48535412500001,62.0,89.0
880,177.51615258333337,178.55057142500004,46.0,88.0
881,178.60310758333335,178.73535377500002,62.0,90.0
882,178.60310758333335,178.76615083333337,58.0,90.0
883,178.82049858333335,178.94187522500002,53.0,76.0
884,179.25528058333336,179.60672936666668,56.0,80.0
885,179.25528058333336,179.6610771166667,60.0,82.0
886,179.25528058333336,179.69730895000004,63.0,78.0
887,179.69006258333337,180.21904735000004,51.0,68.0
888,179.25528058333336,180.24440963333336,44.0,91.0
889,180.12484458333336,180.42013402500004,56.0,87.0
890,180.12484458333336,180.44730790000003,60.0,91.0
891,180.34223558333338,180.47267018333338,51.0,83.0
892,180.12484458333336,180.4762933666667,63.0,89.0
893,180.12484458333336,180.53245270833335,68.0,83.0
894,180.55962658333337,180.6447713916667,44.0,89.0
895,180.99440858333335,181.39114715833335,55.0,83.0
896,180.99440858333335,181.43462535833336,62.0,88.0
897,181.64658158333336,181.77882777500002,55.0,87.0
898,181.42919058333337,181.9328130666667,50.0,79.0
899,181.86397258333335,182.11034905000002,55.0,81.0
900,181.86397258333335,182.13933451666668,59.0,93.0
901,181.86397258333335,182.14658088333334,62.0,93.0
902,181.86397258333335,182.15020406666667,67.0,88.0
903,182.29875458333336,182.34042119166668,62.0,68.0
904,182.29875458333336,182.61034835000004,55.0,93.0
905,182.51614558333335,182.69005838333337,62.0,83.0
906,182.51614558333335,182.70092793333336,59.0,90.0
907,182.08136358333337,182.75165250000003,50.0,90.0
908,180.99440858333335,182.75527568333337,43.0,91.0
909,182.73353658333338,182.97991305000002,55.0,86.0
910,182.73353658333338,183.09404332500003,36.0,87.0
911,182.73353658333338,183.19368086666668,63.0,86.0
912,183.16831858333336,183.24078225000002,55.0,76.0
913,183.38570958333338,183.5632455666667,55.0,86.0
914,183.38570958333338,183.5632455666667,60.0,90.0
915,183.38570958333338,183.61578172500003,63.0,92.0
916,183.60310058333334,183.92012912500002,48.0,87.0
917,183.82049158333336,184.34222998333337,63.0,80.0
918,184.25527358333335,184.47266458333337,60.0,81.0
919,183.82049158333336,184.53063551666668,67.0,81.0
920,184.90744658333335,185.17918533333335,58.0,76.0
921,184.69005558333336,185.41831543333336,53.0,59.0
922,184.47266458333337,185.53969207500003,46.0,92.0
923,185.34222858333337,185.62483688333336,58.0,88.0
924,185.34222858333337,185.64476439166668,62.0,89.0
925,185.55961958333336,185.72447442500004,53.0,81.0
926,185.34222858333337,185.81143082500003,65.0,89.0
927,185.77701058333338,185.86759016666667,46.0,91.0
928,186.64657458333335,186.7751975916667,56.0,89.0
929,186.42918358333336,186.9762842666667,51.0,83.0
930,186.86396558333337,187.06686385000003,60.0,94.0
931,186.86396558333337,187.09584931666672,56.0,87.0
932,186.86396558333337,187.10490727500002,63.0,90.0
933,186.21179258333336,187.21360277500003,44.0,101.0
934,187.08135658333336,187.387515575,51.0,76.0
935,187.29874758333335,187.4219358166667,56.0,89.0
936,187.29874758333335,187.52519654166667,60.0,87.0
937,187.29874758333335,187.52519654166667,63.0,81.0
938,187.29874758333335,187.89294965000005,68.0,81.0
939,187.73352958333336,187.97628286666668,56.0,87.0
940,188.38570258333334,188.49983285833338,51.0,87.0
941,188.16831158333338,188.69910794166668,46.0,75.0
942,187.95092058333336,188.77881797500004,39.0,92.0
943,188.60309358333336,188.85490482500003,58.0,88.0
944,188.60309358333336,188.86033960000003,55.0,93.0
945,188.60309358333336,188.86577437500003,63.0,88.0
946,188.60309358333336,188.8784555166667,51.0,93.0
947,188.82048458333338,188.9762814666667,46.0,88.0
948,189.03787558333335,189.16287540833338,51.0,87.0
949,189.03787558333335,189.22265793333338,55.0,89.0
950,189.03787558333335,189.35309253333338,58.0,86.0
951,189.25526658333337,189.376643225,51.0,88.0
952,189.03787558333335,189.43099097500004,63.0,44.0
953,189.69004858333335,190.1610624166667,63.0,82.0
954,189.69004858333335,190.19548265833336,60.0,79.0
955,190.12483058333336,190.62664147500004,55.0,77.0
956,190.55961258333338,190.80598905000002,60.0,87.0
957,189.69004858333335,190.81142382500002,48.0,91.0
958,190.55961258333338,190.85490202500003,63.0,90.0
959,190.77700358333337,190.88207590000002,55.0,81.0
960,190.55961258333338,191.07229302500002,67.0,87.0
961,190.99439458333336,191.09946690000004,60.0,91.0
962,191.42917658333334,191.70091533333334,58.0,78.0
963,191.42917658333334,191.9110599666667,62.0,88.0
964,191.86395858333336,192.00526273333338,58.0,80.0
965,191.64656758333336,192.14656688333338,53.0,56.0
966,192.08134958333335,192.3838853916667,65.0,88.0
967,192.08134958333335,192.3947549416667,58.0,85.0
968,192.08134958333335,192.39837812500002,62.0,89.0
969,191.42917658333334,192.46359542500002,46.0,88.0
970,192.51613158333336,192.64837777500003,62.0,90.0
971,192.51613158333336,192.67917483333338,58.0,90.0
972,192.73352258333335,192.85489922500003,53.0,76.0
973,193.16830458333337,193.5197533666667,56.0,80.0
974,193.16830458333337,193.5741011166667,60.0,82.0
975,193.16830458333337,193.61033295000004,63.0,78.0
976,193.60308658333338,194.13207135000005,51.0,68.0
977,193.16830458333337,194.15743363333337,44.0,91.0
978,194.03786858333336,194.33315802500005,56.0,87.0
979,194.03786858333336,194.36033190000003,60.0,91.0
980,194.25525958333336,194.38569418333336,51.0,83.0
981,194.03786858333336,194.38931736666672,63.0,89.0
982,194.03786858333336,194.44547670833336,68.0,83.0
983,194.47265058333335,194.5577953916667,44.0,89.0
984,194.90743258333336,195.30417115833336,55.0,83.0
985,194.90743258333336,195.34764935833334,62.0,88.0
986,195.55960558333337,195.69185177500003,55.0,87.0
987,195.34221458333337,195.8458370666667,50.0,79.0
988,195.77699658333336,196.02337305000003,55.0,81.0
989,195.77699658333336,196.0523585166667,59.0,93.0
990,195.77699658333336,196.05960488333335,62.0,93.0
991,195.77699658333336,196.06322806666668,67.0,88.0
992,196.21177858333334,196.25344519166669,62.0,68.0
993,196.21177858333334,196.52337235000005,55.0,93.0
994,196.42916958333336,196.60308238333334,62.0,83.0
995,196.42916958333336,196.61395193333337,59.0,90.0
996,195.99438758333338,196.66467650000004,50.0,90.0
997,194.90743258333336,196.66829968333337,43.0,91.0
998,196.64656058333338,196.89293705000003,55.0,86.0
999,196.64656058333338,197.00706732500004,36.0,87.0
1000,196.64656058333338,197.1067048666667,63.0,86.0
1001,197.08134258333337,197.15380625000003,55.0,76.0
1002,197.29873358333336,197.4762695666667,55.0,86.0
1003,197.29873358333336,197.4762695666667,60.0,90.0
1004,197.29873358333336,197.52880572500004,63.0,92.0
1005,197.51612458333335,197.83315312500002,48.0,87.0
1006,197.73351558333337,198.25525398333338,63.0,80.0
1007,198.16829758333336,198.38568858333338,60.0,81.0
1008,197.73351558333337,198.44365951666668,67.0,81.0
1009,198.82047058333336,199.09220933333336,58.0,76.0
1010,198.60307958333337,199.33133943333337,53.0,59.0
1011,198.38568858333338,199.452716075,46.0,92.0
1012,199.25525258333334,199.53786088333337,58.0,88.0
1013,199.25525258333334,199.5577883916667,62.0,89.0
1014,199.47264358333337,199.63749842500005,53.0,81.0
1015,199.25525258333334,199.724454825,65.0,89.0
1016,199.69003458333336,199.78061416666668,46.0,91.0
1017,200.55959858333335,200.68822159166672,56.0,89.0
1018,200.34220758333336,200.88930826666672,51.0,83.0
1019,200.77698958333337,200.97988785,60.0,94.0
1020,200.77698958333337,201.0088733166667,56.0,87.0
1021,200.77698958333337,201.01793127500002,63.0,90.0
1022,200.12481658333337,201.12662677500003,44.0,101.0
1023,200.99438058333337,201.30053957500002,51.0,76.0
1024,201.21177158333336,201.3349598166667,56.0,89.0
1025,201.21177158333336,201.43822054166668,60.0,87.0
1026,201.21177158333336,201.43822054166668,63.0,81.0
1027,201.21177158333336,201.80597365000003,68.0,81.0
1028,201.64655358333334,201.8893068666667,56.0,87.0
1029,202.29872658333335,202.41285685833338,51.0,87.0
1030,202.08133558333338,202.6121319416667,46.0,75.0
1031,201.86394458333336,202.69184197500005,39.0,92.0
1032,202.51611758333337,202.767928825,58.0,88.0
1033,202.51611758333337,202.77336360000004,55.0,93.0
1034,202.51611758333337,202.77879837500004,63.0,88.0
1035,202.51611758333337,202.7914795166667,51.0,93.0
1036,202.73350858333336,202.8893054666667,46.0,88.0
1037,202.95089958333335,203.07589940833338,51.0,87.0
1038,202.95089958333335,203.13568193333336,55.0,89.0
1039,202.95089958333335,203.26611653333336,58.0,86.0
1040,203.16829058333337,203.28966722500002,51.0,88.0
1041,202.95089958333335,203.34401497500005,63.0,44.0
1042,203.60307258333336,204.07408641666672,63.0,82.0
1043,203.60307258333336,204.10850665833337,60.0,79.0
1044,204.03785458333337,204.53966547500005,55.0,77.0
1045,204.47263658333338,204.71901305000003,60.0,87.0
1046,203.60307258333336,204.72444782500003,48.0,91.0
1047,204.47263658333338,204.76792602500004,63.0,90.0
1048,204.69002758333335,204.79509990000003,55.0,81.0
1049,204.47263658333338,204.98531702500003,67.0,87.0
1050,204.90741858333337,205.01249090000005,60.0,91.0
1051,205.34220058333335,205.61393933333335,58.0,78.0
1052,205.34220058333335,205.8240839666667,62.0,88.0
1053,205.77698258333336,205.91828673333336,58.0,80.0
1054,205.55959158333337,206.05959088333339,53.0,56.0
1055,205.99437358333336,206.2969093916667,65.0,88.0
1056,205.99437358333336,206.3077789416667,58.0,85.0
1057,205.99437358333336,206.31140212500003,62.0,89.0
1058,205.34220058333335,206.37661942500003,46.0,88.0
1059,206.42915558333337,206.56140177500004,62.0,90.0
1060,206.42915558333337,206.59219883333338,58.0,90.0
1061,206.64654658333336,206.76792322500003,53.0,76.0
1062,207.08132858333335,207.4327773666667,56.0,80.0
1063,207.08132858333335,207.4871251166667,60.0,82.0
1064,207.08132858333335,207.52335695000005,63.0,78.0
1065,207.51611058333336,208.04509535000003,51.0,68.0
1066,207.08132858333335,208.07045763333338,44.0,91.0
1067,207.95089258333337,208.24618202500002,56.0,87.0
1068,207.95089258333337,208.2733559,60.0,91.0
1069,208.16828358333336,208.29871818333336,51.0,83.0
1070,207.95089258333337,208.3023413666667,63.0,89.0
1071,207.95089258333337,208.35850070833337,68.0,83.0
1072,208.38567458333335,208.47081939166668,44.0,89.0
1073,208.82045658333337,209.21719515833337,55.0,83.0
1074,208.82045658333337,209.26067335833335,62.0,88.0
1075,209.47262958333334,209.60487577500004,55.0,87.0
1076,209.25523858333338,209.7588610666667,50.0,79.0
1077,209.69002058333336,209.93639705000004,55.0,81.0
1078,209.69002058333336,209.9653825166667,59.0,93.0
1079,209.69002058333336,209.97262888333336,62.0,93.0
1080,209.69002058333336,209.9762520666667,67.0,88.0
1081,210.12480258333335,210.1664691916667,62.0,68.0
1082,210.12480258333335,210.43639635000005,55.0,93.0
1083,210.34219358333337,210.51610638333335,62.0,83.0
1084,210.34219358333337,210.52697593333335,59.0,90.0
1085,209.90741158333338,210.57770050000005,50.0,90.0
1086,208.82045658333337,210.58132368333338,43.0,91.0
1087,210.55958458333336,210.80596105000004,55.0,86.0
1088,210.55958458333336,210.92009132500004,36.0,87.0
1089,210.55958458333336,211.0197288666667,63.0,86.0
1090,210.99436658333337,211.06683025000004,55.0,76.0
1091,211.21175758333337,211.3892935666667,55.0,86.0
1092,211.21175758333337,211.3892935666667,60.0,90.0
1093,211.21175758333337,211.44182972500005,63.0,92.0
1094,211.42914858333336,211.74617712500003,48.0,87.0
1095,211.64653958333338,212.16827798333338,63.0,80.0
1096,212.08132158333336,212.29871258333338,60.0,81.0
1097,211.64653958333338,212.3566835166667,67.0,81.0
1098,212.73349458333337,213.00523333333336,58.0,76.0
1099,212.51610358333335,213.24436343333338,53.0,59.0
1100,212.29871258333338,213.36574007500002,46.0,92.0
1101,213.16827658333335,213.45088488333334,58.0,88.0
1102,213.16827658333335,213.4708123916667,62.0,89.0
1103,213.38566758333337,213.55052242500003,53.0,81.0
1104,213.16827658333335,213.63747882500002,65.0,89.0
1105,213.60305858333336,213.6936381666667,46.0,91.0
1106,214.47262258333336,214.6012455916667,56.0,89.0
1107,214.25523158333337,214.8023322666667,51.0,83.0
1108,214.69001358333338,214.89291185000002,60.0,94.0
1109,214.69001358333338,214.9218973166667,56.0,87.0
1110,214.69001358333338,214.93095527500003,63.0,90.0
1111,214.03784058333338,215.03965077500004,44.0,101.0
1112,214.90740458333335,215.21356357500002,51.0,76.0
1113,215.12479558333337,215.2479838166667,56.0,89.0
1114,215.12479558333337,215.3512445416667,60.0,87.0
1115,215.12479558333337,215.3512445416667,63.0,81.0
1116,215.12479558333337,215.71899765000003,68.0,81.0
1117,215.55957758333335,215.8023308666667,56.0,87.0
1118,216.21175058333336,216.32588085833336,51.0,87.0
1119,215.99435958333336,216.5251559416667,46.0,75.0
1120,215.77696858333337,216.60486597500005,39.0,92.0
1121,216.42914158333338,216.68095282500002,58.0,88.0
1122,216.42914158333338,216.68638760000005,55.0,93.0
1123,216.42914158333338,216.69182237500002,63.0,88.0
1124,216.42914158333338,216.7045035166667,51.0,93.0
1125,216.64653258333337,216.80232946666672,46.0,88.0
1126,216.86392358333336,216.98892340833336,51.0,87.0
1127,216.86392358333336,217.04870593333337,55.0,89.0
1128,216.86392358333336,217.17914053333337,58.0,86.0
1129,217.08131458333338,217.20269122500002,51.0,88.0
1130,216.86392358333336,217.25703897500003,63.0,44.0
1131,217.51609658333336,217.9871104166667,63.0,82.0
1132,217.51609658333336,218.02153065833335,60.0,79.0
1133,217.95087858333335,218.45268947500003,55.0,77.0
1134,218.38566058333336,218.63203705000004,60.0,87.0
1135,217.51609658333336,218.63747182500003,48.0,91.0
1136,218.38566058333336,218.68095002500002,63.0,90.0
1137,218.60305158333335,218.70812390000003,55.0,81.0
1138,218.38566058333336,218.89834102500004,67.0,87.0
1139,218.82044258333337,218.92551490000005,60.0,91.0
1140,219.25522458333336,219.52696333333336,58.0,78.0
1141,219.25522458333336,219.7371079666667,62.0,88.0
1142,219.69000658333337,219.83131073333337,58.0,80.0
1143,219.47261558333338,219.97261488333336,53.0,56.0
1144,219.90739758333336,220.2099333916667,65.0,88.0
1145,219.90739758333336,220.2208029416667,58.0,85.0
1146,219.90739758333336,220.22442612500004,62.0,89.0
1147,219.25522458333336,220.28964342500004,46.0,88.0
1148,220.34217958333335,220.47442577500004,62.0,90.0
1149,220.34217958333335,220.50522283333336,58.0,90.0
1150,220.55957058333337,220.68094722500004,53.0,76.0
1151,220.9490627916667,221.1773233416667,36.0,87.0
1152,221.00159895000002,221.76609063333336,72.0,78.0
1153,220.91283095833336,221.89652523333336,64.0,83.0
1154,220.96717870833336,221.9110179666667,67.0,74.0
1155,220.86391798333335,221.93275706666668,60.0,76.0
1156,221.85848180833335,222.43637955000003,55.0,86.0
1157,222.30051017500003,222.58855325000002,62.0,75.0
1158,222.73348058333335,224.24434803333338,60.0,71.0
1159,222.73891535833337,224.24434803333338,67.0,70.0
1160,224.47260858333337,224.73347778333337,60.0,81.0
1161,224.47260858333337,224.92912968333337,63.0,88.0
1162,224.68999958333336,225.75340389166672,55.0,80.0
1163,224.47260858333337,225.77333140000002,48.0,90.0
1164,225.12478158333337,226.2207945416667,63.0,84.0
1165,224.90739058333338,226.2370988666667,60.0,80.0
1166,226.86390958333337,227.20811200000003,62.0,81.0
1167,226.64651858333337,227.21173518333336,58.0,75.0
1168,226.42912758333335,227.57043033333338,53.0,71.0
1169,226.21173658333336,227.62477808333335,46.0,90.0
1170,227.29869158333338,227.88564728333336,58.0,74.0
1171,227.29869158333338,227.9110095666667,62.0,80.0
1172,227.29869158333338,227.97079209166668,65.0,86.0
1173,227.95086458333338,228.97803705833337,44.0,89.0
1174,228.16825558333335,229.02513844166668,51.0,76.0
1175,228.38564658333337,229.05050072500003,56.0,86.0
1176,228.60303758333336,229.26608013333336,63.0,83.0
1177,229.03781958333337,229.30412355833337,60.0,82.0
1178,230.12477458333336,230.6610057166667,51.0,77.0
1179,230.34216558333338,230.6990491416667,55.0,78.0
1180,229.68999258333338,230.78238235833336,39.0,88.0
1181,229.90738358333337,230.81136782500005,46.0,79.0
1182,230.77694758333337,230.8294837416667,55.0,76.0
1183,230.9943385833334,231.10846885833337,51.0,88.0
1184,230.77694758333337,231.22259913333338,63.0,91.0
1185,231.86390258333336,232.54324945833338,60.0,86.0
1186,232.08129358333338,232.56498855833337,63.0,87.0
1187,231.64651158333336,232.57585810833336,55.0,78.0
1188,231.42912058333337,232.59940880000005,48.0,89.0
1189,232.51607558333336,232.87658232500002,67.0,86.0
1190,233.16824858333337,233.73708836666668,62.0,87.0
1191,233.16824858333337,233.76607383333337,58.0,78.0
1192,233.82042158333337,234.1066530666667,58.0,69.0
1193,233.82042158333337,234.1610008166667,62.0,87.0
1194,233.60303058333335,234.23889925833336,53.0,67.0
1195,234.25520358333335,234.35484112500004,62.0,79.0
1196,233.16824858333337,234.63744942500006,46.0,82.0
1197,234.25520358333335,234.66462330000002,58.0,87.0
1198,233.82042158333337,234.74614492500004,65.0,88.0
1199,234.90737658333336,235.40194110833338,63.0,80.0
1200,235.34215858333337,236.02150545833337,56.0,84.0
1201,235.55954958333336,236.03237500833336,68.0,93.0
1202,235.99433158333335,236.25701237500004,63.0,88.0
1203,234.90737658333336,236.46715700833337,44.0,88.0
1204,235.12476758333338,236.48346133333337,51.0,74.0
1205,236.21172258333337,236.4979540666667,56.0,80.0
1206,236.64650458333335,237.08672135833336,60.0,80.0
1207,236.64650458333335,237.13201115000004,63.0,78.0
1208,236.64650458333335,237.14106910833337,56.0,73.0
1209,237.08128658333337,237.63019885833336,51.0,66.0
1210,237.51606858333338,237.6555611416667,60.0,88.0
1211,236.64650458333335,237.67005387500004,44.0,87.0
1212,237.51606858333338,237.6773002416667,56.0,83.0
1213,237.51606858333338,237.68998138333336,63.0,88.0
1214,237.51606858333338,237.7262132166667,68.0,86.0
1215,237.73345958333337,237.81679280000003,51.0,71.0
1216,237.95085058333336,238.05048812500002,44.0,89.0
1217,238.3294732416667,241.53961367500006,44.0,74.0
1218,238.25157480000004,241.55048322500005,56.0,73.0
1219,238.36570507500005,241.57041073333338,60.0,75.0
1220,238.42548760000005,241.58128028333337,63.0,73.0
1221,238.51787877500004,241.6120773416667,68.0,76.0
