,start,end,pitch,velocity
0,22.949126533333335,23.20124489166667,71.0,112.0
1,23.203363533333334,23.45548189166667,71.0,89.0
2,23.457600533333334,24.218192891666668,71.0,112.0
3,24.220311533333337,24.474548533333337,71.0,99.0
4,24.474548533333337,24.983022533333337,73.0,112.0
5,24.983022533333337,25.237259533333336,75.0,107.0
6,25.237259533333336,26.25208889166667,71.0,107.0
7,26.254207533333336,26.540224158333334,71.0,95.0
8,26.508444533333336,27.016918533333335,70.0,102.0
9,27.016918533333335,27.52327389166667,78.0,100.0
10,27.525392533333335,28.033866533333335,78.0,122.0
11,28.033866533333335,28.288103533333334,73.0,122.0
12,28.288103533333334,29.81140689166667,75.0,117.0
13,29.813525533333337,30.067762533333337,75.0,127.0
14,30.067762533333337,30.321999533333337,73.0,99.0
15,30.321999533333337,30.576236533333336,75.0,117.0
16,30.576236533333336,31.084710533333336,73.0,112.0
17,31.084710533333336,31.33682889166667,71.0,89.0
18,31.338947533333336,33.118606533333335,71.0,102.0
19,33.118606533333335,33.37284353333334,76.0,107.0
20,33.37284353333334,33.627080533333334,75.0,97.0
21,33.627080533333334,34.38979153333334,71.0,95.0
22,34.38979153333334,34.92157059166667,68.0,102.0
23,34.89826553333334,39.22029453333334,66.0,96.0
24,39.22029453333334,39.47241289166667,71.0,112.0
25,39.474531533333334,39.72664989166667,71.0,89.0
26,39.72876853333334,40.48936089166667,71.0,112.0
27,40.49147953333334,40.745716533333336,71.0,99.0
28,40.745716533333336,40.99783489166667,73.0,112.0
29,40.99995353333334,41.254190533333336,73.0,127.0
30,41.254190533333336,41.50842753333334,75.0,107.0
31,41.50842753333334,42.52325689166667,71.0,107.0
32,42.52537553333334,42.811392158333334,71.0,95.0
33,42.779612533333335,43.288086533333335,70.0,102.0
34,43.288086533333335,43.79444189166667,78.0,100.0
35,43.796560533333334,44.305034533333334,78.0,122.0
36,44.305034533333334,44.56562745833334,75.0,122.0
37,44.55927153333334,45.06774553333334,80.0,99.0
38,45.06774553333334,46.084693533333336,78.0,99.0
39,46.084693533333336,46.33681189166667,75.0,122.0
40,46.33893053333334,46.593167533333336,75.0,107.0
41,46.593167533333336,46.84740453333334,73.0,100.0
42,46.84740453333334,47.09952289166667,71.0,99.0
43,47.101641533333336,47.35587853333334,71.0,81.0
44,47.35587853333334,47.60799689166667,80.0,112.0
45,47.610115533333335,48.627063533333335,80.0,127.0
46,48.627063533333335,48.88130053333334,71.0,89.0
47,48.88130053333334,49.38977453333334,70.0,97.0
48,49.38977453333334,49.64189289166667,78.0,96.0
49,49.64401153333334,50.65884089166667,78.0,112.0
50,50.66095953333334,50.91519653333334,78.0,127.0
51,50.91519653333334,51.16943353333334,80.0,127.0
52,51.16943353333334,51.421551891666674,83.0,96.0
53,51.423670533333336,51.67578889166667,83.0,112.0
54,51.67790753333334,51.93002589166667,83.0,127.0
55,51.932144533333336,52.440618533333335,83.0,127.0
56,52.440618533333335,52.69485553333334,78.0,117.0
57,52.69485553333334,53.20332953333334,80.0,127.0
58,53.20332953333334,55.743580891666674,78.0,107.0
59,55.74569953333334,55.99781789166667,78.0,117.0
60,55.99993653333334,56.254173533333336,78.0,127.0
61,56.254173533333336,56.50841053333334,76.0,88.0
62,56.50841053333334,56.762647533333336,75.0,102.0
63,56.762647533333336,57.029088,76.0,90.0
64,57.029088,57.656588000000006,78.0,127.0
65,57.629088,57.981588,80.0,79.0
66,57.929088,58.47112153333334,78.0,122.0
67,58.47112153333334,59.23383253333334,75.0,117.0
68,59.23383253333334,59.74230653333334,78.0,127.0
69,59.74230653333334,59.99654353333334,80.0,112.0
70,59.99654353333334,60.50501753333334,78.0,127.0
71,60.50501753333334,61.52196553333334,73.0,122.0
72,61.52196553333334,61.77620253333334,71.0,89.0
73,61.77620253333334,62.140608900000004,83.0,95.0
74,62.030439533333336,62.28467653333334,82.0,122.0
75,62.28467653333334,62.79315053333334,80.0,122.0
76,62.79315053333334,63.04738753333334,78.0,122.0
77,63.04738753333334,63.55586153333334,75.0,112.0
78,63.55586153333334,65.58975753333334,78.0,127.0
79,65.58975753333334,65.84399453333334,71.0,92.0
80,65.84399453333334,66.09823153333335,83.0,96.0
81,66.09823153333335,66.35246853333334,82.0,100.0
82,66.35246853333334,66.60670553333334,80.0,127.0
83,66.60670553333334,67.11517953333333,78.0,127.0
84,67.11517953333333,67.36941653333334,75.0,117.0
85,67.36941653333334,68.38636453333334,78.0,127.0
86,68.38636453333334,68.64060153333334,75.0,127.0
87,68.64060153333334,69.14907553333335,73.0,122.0
88,69.14907553333335,69.40331253333333,71.0,92.0
89,69.40331253333333,69.91178653333334,73.0,127.0
90,69.91178653333334,70.16602353333334,75.0,117.0
91,70.16602353333334,70.67449753333334,80.0,127.0
92,70.67449753333334,71.43720853333335,75.0,127.0
93,71.43720853333335,72.26559742500001,73.0,127.0
94,72.19991953333334,72.45203789166668,78.0,122.0
95,72.45415653333335,72.70839353333334,78.0,127.0
96,72.70839353333334,72.96263053333334,76.0,127.0
97,72.96263053333334,73.21686753333334,75.0,117.0
98,73.21686753333334,73.47110453333335,76.0,112.0
99,73.47110453333335,73.97957853333334,78.0,127.0
100,73.97957853333334,74.23381553333334,80.0,127.0
101,74.23381553333334,74.74228953333335,78.0,127.0
102,74.74228953333335,75.50500053333334,75.0,122.0
103,75.50500053333334,76.01347453333334,78.0,127.0
104,76.01347453333334,76.26771153333334,80.0,117.0
105,76.26771153333334,76.77618553333335,78.0,127.0
106,76.77618553333335,77.79313353333335,73.0,117.0
107,77.79313353333335,78.08974336666668,71.0,96.0
108,78.04737053333335,78.30160753333334,83.0,112.0
109,78.30160753333334,78.58550551666667,85.0,127.0
110,78.55584453333334,78.81008153333335,82.0,127.0
111,78.81008153333335,79.31855553333334,78.0,122.0
112,79.31855553333334,79.82702953333335,75.0,117.0
113,79.82702953333335,80.13846985833334,80.0,122.0
114,80.08126653333335,81.86092553333334,78.0,117.0
115,81.86092553333334,82.11516253333335,71.0,93.0
116,82.11516253333335,82.36939953333334,83.0,112.0
117,82.36939953333334,82.62363653333334,82.0,127.0
118,82.62363653333334,82.89905995000001,80.0,122.0
119,82.87787353333334,83.38634753333335,78.0,127.0
120,83.38634753333335,83.64270317500001,75.0,107.0
121,83.64058453333334,84.65753253333334,78.0,127.0
122,84.65753253333334,85.16600653333334,75.0,127.0
123,85.16600653333334,85.67448053333334,73.0,127.0
124,85.67448053333334,86.18295453333334,71.0,117.0
125,86.18295453333334,88.21685053333334,73.0,127.0
126,88.21685053333334,88.50074851666668,76.0,96.0
127,88.47108753333335,88.97956153333334,75.0,102.0
128,88.97956153333334,89.99650953333334,71.0,97.0
129,89.99650953333334,90.75922053333335,68.0,96.0
130,90.75922053333335,95.52828292500001,71.0,96.0
131,108.55581053333334,108.80792889166668,71.0,112.0
132,108.81004753333335,109.06216589166668,71.0,89.0
133,109.06428453333334,109.82487689166668,71.0,112.0
134,109.82699553333335,110.08123253333335,71.0,99.0
135,110.08123253333335,110.58970653333334,73.0,112.0
136,110.58970653333334,110.84394353333334,75.0,107.0
137,110.84394353333334,111.85877289166667,71.0,107.0
138,111.86089153333334,112.14690815833335,71.0,95.0
139,112.11512853333335,112.62360253333335,70.0,102.0
140,112.62360253333335,113.12995789166668,78.0,100.0
141,113.13207653333335,113.64055053333334,78.0,122.0
142,113.64055053333334,113.89478753333334,73.0,122.0
143,113.89478753333334,115.41809089166668,75.0,117.0
144,115.42020953333335,115.67444653333334,75.0,127.0
145,115.67444653333334,115.92868353333334,73.0,99.0
146,115.92868353333334,116.18292053333334,75.0,117.0
147,116.18292053333334,116.69139453333335,73.0,112.0
148,116.69139453333335,116.94351289166667,71.0,89.0
149,116.94563153333334,118.72529053333335,71.0,102.0
150,118.72529053333335,118.97952753333334,76.0,107.0
151,118.97952753333334,119.23376453333334,75.0,97.0
152,119.23376453333334,119.99647553333335,71.0,95.0
153,119.99647553333335,120.52825459166668,68.0,102.0
154,120.50494953333335,124.82697853333335,66.0,96.0
155,124.82697853333335,125.07909689166668,71.0,112.0
156,125.08121553333335,125.33333389166668,71.0,89.0
157,125.33545253333334,126.09604489166668,71.0,112.0
158,126.09816353333335,126.35240053333335,71.0,99.0
159,126.35240053333335,126.60451889166667,73.0,112.0
160,126.60663753333334,126.86087453333334,73.0,127.0
161,126.86087453333334,127.11511153333335,75.0,107.0
162,127.11511153333335,128.12994089166668,71.0,107.0
163,128.13205953333335,128.41807615833335,71.0,95.0
164,128.38629653333334,128.89477053333334,70.0,102.0
165,128.89477053333334,129.40112589166668,78.0,100.0
166,129.40324453333335,129.91171853333333,78.0,122.0
167,129.91171853333333,130.17231145833335,75.0,122.0
168,130.16595553333335,130.67442953333335,80.0,99.0
169,130.67442953333335,131.69137753333337,78.0,99.0
170,131.69137753333337,131.9434958916667,75.0,122.0
171,131.94561453333336,132.19985153333334,75.0,107.0
172,132.19985153333334,132.45408853333333,73.0,100.0
173,132.45408853333333,132.70620689166668,71.0,99.0
174,132.70832553333335,132.96256253333334,71.0,81.0
175,132.96256253333334,133.21468089166666,80.0,112.0
176,133.21679953333336,134.23374753333334,80.0,127.0
177,134.23374753333334,134.48798453333336,71.0,89.0
178,134.48798453333336,134.99645853333334,70.0,97.0
179,134.99645853333334,135.2485768916667,78.0,96.0
180,135.25069553333333,136.2655248916667,78.0,112.0
181,136.26764353333334,136.52188053333333,78.0,127.0
182,136.52188053333333,136.77611753333335,80.0,127.0
183,136.77611753333335,137.02823589166667,83.0,96.0
184,137.03035453333337,137.28247289166669,83.0,112.0
185,137.28459153333336,137.53670989166667,83.0,127.0
186,137.53882853333334,138.04730253333335,83.0,127.0
187,138.04730253333335,138.30153953333334,78.0,117.0
188,138.30153953333334,138.81001353333335,80.0,127.0
189,138.81001353333335,141.35026489166668,78.0,107.0
190,141.35238353333335,141.6045018916667,78.0,117.0
191,141.60662053333334,141.86085753333333,78.0,127.0
192,141.86085753333333,142.11509453333335,76.0,88.0
193,142.11509453333335,142.36933153333337,75.0,102.0
194,142.36933153333337,142.62356853333335,76.0,90.0
195,142.62356853333335,143.15534759166667,78.0,127.0
196,143.13204253333333,143.43077100833335,80.0,79.0
197,143.38627953333335,143.89475353333336,78.0,122.0
198,143.89475353333336,144.65746453333335,75.0,117.0
199,144.65746453333335,145.16593853333336,78.0,127.0
200,145.16593853333336,145.42017553333335,80.0,112.0
201,145.42017553333335,145.92864953333333,78.0,127.0
202,145.92864953333333,146.94559753333334,73.0,122.0
203,146.94559753333334,147.19983453333333,71.0,89.0
204,147.19983453333333,147.56424090000002,83.0,95.0
205,147.45407153333335,147.70830853333337,82.0,122.0
206,147.70830853333337,148.21678253333334,80.0,122.0
207,148.21678253333334,148.47101953333333,78.0,122.0
208,148.47101953333333,148.97949353333337,75.0,112.0
209,148.97949353333337,151.01338953333334,78.0,127.0
210,151.01338953333334,151.26762653333333,71.0,92.0
211,151.26762653333333,151.52186353333335,83.0,96.0
212,151.52186353333335,151.77610053333336,82.0,100.0
213,151.77610053333336,152.03033753333335,80.0,127.0
214,152.03033753333335,152.53881153333333,78.0,127.0
215,152.53881153333333,152.79304853333335,75.0,117.0
216,152.79304853333335,153.80999653333333,78.0,127.0
217,153.80999653333333,154.06423353333335,75.0,127.0
218,154.06423353333335,154.57270753333336,73.0,122.0
219,154.57270753333336,154.82694453333335,71.0,92.0
220,154.82694453333335,155.33541853333335,73.0,127.0
221,155.33541853333335,155.58965553333334,75.0,117.0
222,155.58965553333334,156.09812953333335,80.0,127.0
223,156.09812953333335,156.86084053333335,75.0,127.0
224,156.86084053333335,157.689229425,73.0,127.0
225,157.62355153333334,157.8756698916667,78.0,122.0
226,157.87778853333333,158.13202553333335,78.0,127.0
227,158.13202553333335,158.38626253333337,76.0,127.0
228,158.38626253333337,158.64049953333335,75.0,117.0
229,158.64049953333335,158.89473653333334,76.0,112.0
230,158.89473653333334,159.40321053333335,78.0,127.0
231,159.40321053333335,159.65744753333337,80.0,127.0
232,159.65744753333337,160.16592153333335,78.0,127.0
233,160.16592153333335,160.92863253333334,75.0,122.0
234,160.92863253333334,161.43710653333335,78.0,127.0
235,161.43710653333335,161.69134353333334,80.0,117.0
236,161.69134353333334,162.19981753333334,78.0,127.0
237,162.19981753333334,163.21676553333333,73.0,117.0
238,163.21676553333333,163.51337536666668,71.0,96.0
239,163.47100253333335,163.72523953333337,83.0,112.0
240,163.72523953333337,164.00913751666667,85.0,127.0
241,163.97947653333335,164.23371353333334,82.0,127.0
242,164.23371353333334,164.74218753333335,78.0,122.0
243,164.74218753333335,165.25066153333336,75.0,117.0
244,165.25066153333336,165.56210185833334,80.0,122.0
245,165.50489853333335,167.28455753333336,78.0,117.0
246,167.28455753333336,167.53879453333334,71.0,93.0
247,167.53879453333334,167.79303153333336,83.0,112.0
248,167.79303153333336,168.04726853333335,82.0,127.0
249,168.04726853333335,168.32269195000003,80.0,122.0
250,168.30150553333334,168.80997953333335,78.0,127.0
251,168.80997953333335,169.066335175,75.0,107.0
252,169.06421653333337,170.08116453333335,78.0,127.0
253,170.08116453333335,170.58963853333336,75.0,127.0
254,170.58963853333336,171.09811253333334,73.0,127.0
255,171.09811253333334,171.60658653333337,71.0,117.0
256,171.60658653333337,173.64048253333334,73.0,112.0
257,173.64048253333334,173.9243805166667,76.0,96.0
258,173.89471953333333,174.40319353333336,75.0,102.0
259,174.40319353333336,175.16590453333333,71.0,97.0
260,175.16590453333333,175.67437853333337,68.0,96.0
261,175.67437853333337,179.22522196666668,71.0,96.0
262,183.30360717500002,189.40317653333335,80.0,127.0
263,189.40317653333335,189.6743626666667,83.0,117.0
264,189.65741353333334,190.24215863333336,85.0,117.0
265,190.16588753333335,190.42012453333336,82.0,122.0
266,190.42012453333336,196.84172742500002,80.0,117.0
267,204.14892253333335,204.40315953333337,80.0,127.0
268,204.40315953333337,205.16587053333336,78.0,102.0
269,205.16587053333336,205.42010753333335,80.0,127.0
270,205.42010753333335,205.92858153333336,78.0,127.0
271,205.92858153333336,206.18281853333335,80.0,127.0
272,206.18281853333335,206.4349368916667,78.0,127.0
273,206.43705553333336,206.68917389166668,78.0,127.0
274,206.69129253333335,206.94552953333334,78.0,112.0
275,206.94552953333334,207.19976653333336,76.0,107.0
276,207.19976653333336,207.45400353333335,75.0,117.0
277,207.45400353333335,207.70824053333334,76.0,112.0
278,207.70824053333334,208.24001959166668,78.0,127.0
279,208.21671453333335,208.51544300833336,80.0,79.0
280,208.47095153333336,208.97942553333334,78.0,122.0
281,208.97942553333334,209.74213653333337,75.0,117.0
282,209.74213653333337,210.25061053333334,78.0,127.0
283,210.25061053333334,210.50484753333336,80.0,112.0
284,210.50484753333336,211.01332153333334,78.0,127.0
285,211.01332153333334,212.03026953333335,73.0,122.0
286,212.03026953333335,212.28450653333334,71.0,89.0
287,212.28450653333334,212.64891290000003,83.0,95.0
288,212.53874353333336,212.79298053333335,82.0,122.0
289,212.79298053333335,213.30145453333336,80.0,122.0
290,213.30145453333336,213.55569153333334,78.0,122.0
291,213.55569153333334,214.06416553333335,75.0,112.0
292,214.06416553333335,216.09806153333335,78.0,127.0
293,216.09806153333335,216.35229853333334,71.0,92.0
294,216.35229853333334,216.60653553333336,83.0,96.0
295,216.60653553333336,216.86077253333335,82.0,100.0
296,216.86077253333335,217.11500953333336,80.0,127.0
297,217.11500953333336,217.62348353333334,78.0,127.0
298,217.62348353333334,217.87772053333336,75.0,117.0
299,217.87772053333336,218.89466853333334,78.0,127.0
300,218.89466853333334,219.14890553333336,75.0,127.0
301,219.14890553333336,219.65737953333334,73.0,122.0
302,219.65737953333334,219.91161653333336,71.0,92.0
303,219.91161653333336,220.42009053333337,73.0,127.0
304,220.42009053333337,220.67432753333335,75.0,117.0
305,220.67432753333335,221.18280153333336,80.0,127.0
306,221.18280153333336,221.94551253333336,75.0,127.0
307,221.94551253333336,222.77390142500002,73.0,127.0
308,222.70822353333335,222.9603418916667,78.0,122.0
309,222.96246053333334,223.21669753333336,78.0,127.0
310,223.21669753333336,223.47093453333335,76.0,127.0
311,223.47093453333335,223.72517153333337,75.0,117.0
312,223.72517153333337,223.97940853333336,76.0,112.0
313,223.97940853333336,224.48788253333336,78.0,127.0
314,224.48788253333336,224.74211953333335,80.0,127.0
315,224.74211953333335,225.25059353333336,78.0,127.0
316,225.25059353333336,226.01330453333335,75.0,122.0
317,226.01330453333335,226.52177853333336,78.0,127.0
318,226.52177853333336,226.77601553333335,80.0,117.0
319,226.77601553333335,227.28448953333336,78.0,127.0
320,227.28448953333336,228.30143753333334,73.0,117.0
321,228.30143753333334,228.5980473666667,71.0,96.0
322,228.55567453333336,228.80991153333335,83.0,112.0
323,228.80991153333335,229.09380951666668,85.0,127.0
324,229.06414853333337,229.31838553333336,82.0,127.0
325,229.31838553333336,229.82685953333336,78.0,122.0
326,229.82685953333336,230.33533353333334,75.0,117.0
327,230.33533353333334,230.64677385833335,80.0,122.0
328,230.58957053333336,232.36922953333337,78.0,117.0
329,232.36922953333337,232.62346653333336,71.0,93.0
330,232.62346653333336,232.87770353333335,83.0,112.0
331,232.87770353333335,233.13194053333336,82.0,127.0
332,233.13194053333336,233.40736395000002,80.0,122.0
333,233.38617753333335,233.89465153333336,78.0,127.0
334,233.89465153333336,234.15100717500002,75.0,107.0
335,234.14888853333335,235.16583653333336,78.0,127.0
336,235.16583653333336,235.67431053333337,75.0,127.0
337,235.67431053333337,236.18278453333335,73.0,127.0
338,236.18278453333335,236.69125853333335,71.0,117.0
339,236.69125853333335,238.72515453333335,73.0,112.0
340,238.72515453333335,239.00905251666669,76.0,96.0
341,238.97939153333334,239.48786553333335,75.0,102.0
342,239.48786553333335,241.01328753333337,71.0,97.0
343,241.01328753333337,242.28447253333334,68.0,107.0
344,242.28447253333334,242.64252297500002,73.0,122.0
345,242.53870953333336,248.31836400000003,71.0,95.0
