,start,end,pitch,velocity
0,6.677958533333334,7.305076466666668,56.0,44.0
1,6.169484533333334,7.718211591666667,44.0,93.0
2,7.694906533333334,7.809313183333334,56.0,58.0
3,7.186432533333334,8.256346575,63.0,89.0
4,7.186432533333334,8.258465216666668,68.0,73.0
5,7.186432533333334,8.336854958333333,59.0,75.0
6,8.711854533333334,9.192786191666668,54.0,68.0
7,8.203380533333334,9.529650216666667,42.0,85.0
8,9.220328533333333,10.245751100000001,61.0,78.0
9,10.237276533333334,10.245751100000001,61.0,72.0
10,9.220328533333333,10.311428991666668,58.0,100.0
11,9.728802533333335,10.345327258333334,54.0,89.0
12,10.237276533333334,11.105919616666668,56.0,96.0
13,10.237276533333334,11.127106033333334,64.0,76.0
14,10.237276533333334,11.438546358333335,49.0,78.0
15,11.254224533333334,11.830495066666668,64.0,86.0
16,11.254224533333334,11.838969633333335,61.0,99.0
17,11.254224533333334,11.849562841666668,56.0,97.0
18,12.016935533333335,12.103799841666667,61.0,69.0
19,12.016935533333335,12.139816750000001,56.0,75.0
20,12.016935533333335,12.141935391666667,64.0,72.0
21,12.525409533333335,12.608036558333334,61.0,73.0
22,12.525409533333335,12.614392483333335,64.0,74.0
23,12.525409533333335,12.616511125,56.0,74.0
24,11.762698533333335,12.627104333333335,49.0,66.0
25,13.033883533333334,13.364391633333334,49.0,33.0
26,13.288120533333334,13.377103483333334,61.0,95.0
27,13.288120533333334,13.381340766666668,56.0,93.0
28,13.288120533333334,13.396171258333334,64.0,86.0
29,10.237276533333334,14.338966800000001,44.0,72.0
30,14.305068533333335,14.338966800000001,44.0,97.0
31,13.796594533333334,14.355915933333334,61.0,90.0
32,14.050831533333335,14.360153216666667,56.0,83.0
33,10.237276533333334,14.425831108333334,37.0,68.0
34,14.813542533333335,15.207609883333335,56.0,74.0
35,15.322016533333334,16.36015095,59.0,95.0
36,15.322016533333334,16.423710200000002,63.0,112.0
37,15.830490533333334,16.476676241666667,56.0,93.0
38,16.338964533333336,17.55082756666667,42.0,100.0
39,16.847438533333335,17.63133595,54.0,77.0
40,17.355912533333335,17.65675965,58.0,97.0
41,17.355912533333335,17.699132483333337,61.0,100.0
42,18.372860533333334,18.73302961666667,64.0,70.0
43,18.372860533333334,18.754216033333336,68.0,79.0
44,18.372860533333334,18.84743626666667,61.0,93.0
45,18.881334533333334,19.599554058333336,49.0,96.0
46,19.389808533333333,20.180061875000003,61.0,81.0
47,20.406756533333336,21.315653808333334,64.0,74.0
48,20.406756533333336,21.332602941666668,56.0,89.0
49,20.406756533333336,21.347433433333336,61.0,74.0
50,19.898282533333337,21.5592976,49.0,61.0
51,18.372860533333334,21.71395844166667,37.0,89.0
52,21.423704533333336,21.919466683333336,64.0,77.0
53,21.423704533333336,21.942771741666668,56.0,86.0
54,21.423704533333336,22.32412724166667,61.0,67.0
55,22.440652533333335,23.292346483333336,59.0,81.0
56,22.440652533333335,23.300821050000003,66.0,81.0
57,22.440652533333335,23.313532900000002,63.0,89.0
58,23.457600533333334,23.531752991666668,63.0,95.0
59,23.457600533333334,23.53810891666667,59.0,74.0
60,23.457600533333334,23.548702125000002,66.0,90.0
61,22.440652533333335,23.593193600000003,47.0,63.0
62,24.474548533333337,24.798700708333335,44.0,66.0
63,24.728785533333337,25.040225858333336,63.0,78.0
64,24.728785533333337,25.072005483333335,59.0,79.0
65,24.728785533333337,25.080480050000002,56.0,86.0
66,25.491496533333336,26.398275166666668,59.0,41.0
67,25.491496533333336,26.417342941666668,61.0,60.0
68,25.491496533333336,26.42793615,63.0,66.0
69,25.491496533333336,26.455478491666668,56.0,85.0
70,26.508444533333336,27.21607085,63.0,74.0
71,26.508444533333336,27.40886724166667,54.0,88.0
72,26.508444533333336,27.41522316666667,51.0,83.0
73,26.508444533333336,27.41522316666667,58.0,69.0
74,27.525392533333335,28.52115411666667,63.0,72.0
75,27.525392533333335,28.54657781666667,54.0,76.0
76,27.525392533333335,28.561408308333334,58.0,63.0
77,27.525392533333335,28.576238800000002,51.0,90.0
78,26.508444533333336,28.601662500000003,39.0,75.0
79,29.050814533333337,29.692762958333336,54.0,99.0
80,29.050814533333337,29.692762958333336,63.0,74.0
81,29.050814533333337,29.694881600000002,58.0,74.0
82,29.050814533333337,29.697000241666668,51.0,90.0
83,29.050814533333337,29.716068016666668,39.0,70.0
84,29.813525533333337,30.15462684166667,63.0,76.0
85,29.813525533333337,30.186406466666668,58.0,67.0
86,29.813525533333337,30.188525108333337,51.0,79.0
87,29.813525533333337,30.19911831666667,54.0,88.0
88,29.813525533333337,30.580473816666668,39.0,72.0
89,30.321999533333337,30.618609366666668,54.0,95.0
90,30.321999533333337,30.627083933333335,63.0,82.0
91,30.321999533333337,30.629202575000004,58.0,69.0
92,30.321999533333337,30.639795783333337,51.0,86.0
93,30.576236533333336,31.466066033333338,52.0,69.0
94,30.576236533333336,31.47665924166667,56.0,74.0
95,30.576236533333336,31.47665924166667,59.0,75.0
96,30.576236533333336,31.483015166666668,64.0,75.0
97,30.576236533333336,32.30292949166667,40.0,67.0
98,31.593184533333336,32.38555651666667,59.0,79.0
99,31.593184533333336,32.38555651666667,64.0,75.0
100,31.593184533333336,32.485132675,56.0,93.0
101,31.593184533333336,32.489369958333334,52.0,88.0
102,32.610132533333335,33.53174165833334,52.0,89.0
103,32.610132533333335,33.53597894166667,61.0,76.0
104,32.610132533333335,33.54869079166667,56.0,93.0
105,32.610132533333335,34.05716479166667,37.0,40.0
106,33.627080533333334,34.370723758333334,61.0,96.0
107,33.627080533333334,34.38131696666667,52.0,78.0
108,33.627080533333334,34.4491135,56.0,95.0
109,32.610132533333335,34.605892983333334,49.0,81.0
110,34.64402853333333,34.98089255833334,54.0,69.0
111,34.64402853333333,35.205468575000005,59.0,72.0
112,34.64402853333333,35.211824500000006,61.0,66.0
113,35.15250253333333,35.637671475000005,54.0,59.0
114,35.66097653333334,35.76267133333334,54.0,42.0
115,35.66097653333334,36.182162383333335,59.0,92.0
116,35.66097653333334,36.23300978333334,61.0,99.0
117,34.64402853333333,36.31563680833334,42.0,85.0
118,36.16945053333334,37.002076708333334,54.0,64.0
119,36.67792453333334,37.28597469166667,58.0,71.0
120,36.67792453333334,37.29656790000001,61.0,65.0
121,37.440635533333335,37.59105909166667,58.0,40.0
122,37.440635533333335,37.601652300000005,61.0,50.0
123,37.440635533333335,37.62919464166667,54.0,60.0
124,36.67792453333334,37.828346958333334,42.0,58.0
125,37.69487253333334,37.96182138333334,54.0,100.0
126,37.949109533333335,38.21393974166667,42.0,102.0
127,37.69487253333334,38.266905783333335,58.0,122.0
128,37.69487253333334,38.281736275,61.0,112.0
129,38.20334653333334,38.726651025,54.0,81.0
130,38.71182053333334,40.59105569166667,35.0,85.0
131,39.98300553333333,40.59105569166667,47.0,38.0
132,39.22029453333334,40.622835316666674,42.0,58.0
133,40.49147953333334,40.938512925000005,63.0,67.0
134,39.72876853333334,40.94275020833334,66.0,96.0
135,40.23724253333334,41.10800425833334,59.0,76.0
136,41.254190533333336,41.758427250000004,56.0,73.0
137,40.745716533333336,41.98512190833334,32.0,83.0
138,41.762664533333336,42.73935834166667,59.0,72.0
139,41.762664533333336,42.79868030833334,63.0,95.0
140,42.271138533333335,42.91732424166667,56.0,82.0
141,42.779612533333335,44.749949283333336,39.0,97.0
142,43.288086533333335,44.88766099166667,51.0,65.0
143,43.796560533333334,45.311389325,58.0,99.0
144,43.796560533333334,45.330457100000004,63.0,100.0
145,44.305034533333334,45.47240609166667,54.0,70.0
146,45.32198253333334,45.91732084166667,51.0,56.0
147,44.81350853333334,46.26054079166667,39.0,73.0
148,46.084693533333336,46.31138819166667,51.0,73.0
149,45.83045653333334,46.38554065,58.0,71.0
150,45.83045653333334,46.860116383333335,63.0,102.0
151,46.593167533333336,46.88342144166667,58.0,62.0
152,46.33893053333334,46.944862050000005,54.0,86.0
153,47.35587853333334,48.124945458333336,47.0,63.0
154,46.84740453333334,48.17791150000001,40.0,72.0
155,47.86435253333334,48.5846907,59.0,79.0
156,48.37282653333334,48.872825966666674,52.0,66.0
157,47.86435253333334,48.92579200833334,56.0,93.0
158,49.38977453333334,50.124943191666674,51.0,79.0
159,48.88130053333334,50.27748539166667,39.0,89.0
160,49.89824853333334,50.910959250000005,58.0,99.0
161,49.89824853333334,50.917315175000006,63.0,97.0
162,50.40672253333334,50.942738875,54.0,64.0
163,51.423670533333336,52.06985624166667,49.0,79.0
164,51.932144533333336,52.398245700000004,52.0,85.0
165,51.932144533333336,52.44697445833334,56.0,112.0
166,51.932144533333336,52.480872725000005,61.0,100.0
167,50.91519653333334,52.525364200000006,37.0,97.0
168,52.440618533333335,52.96392302500001,49.0,90.0
169,52.949092533333335,53.387651358333336,54.0,99.0
170,53.457566533333335,53.82409154166667,54.0,61.0
171,52.949092533333335,53.84315931666667,61.0,99.0
172,52.949092533333335,53.857989808333336,58.0,112.0
173,52.949092533333335,54.321972333333335,42.0,95.0
174,53.96604053333334,54.5846839,58.0,107.0
175,53.96604053333334,54.66942956666667,54.0,100.0
176,54.72875153333334,54.838920900000005,58.0,62.0
177,54.72875153333334,54.84315818333334,66.0,61.0
178,53.96604053333334,54.84951410833334,61.0,100.0
179,54.72875153333334,54.857988675,54.0,44.0
180,54.47451453333334,54.89400558333334,42.0,51.0
181,54.98298853333334,56.89824060000001,42.0,99.0
182,54.98298853333334,56.94485071666667,58.0,122.0
183,54.98298853333334,56.949088,54.0,100.0
184,54.98298853333334,56.949088,66.0,97.0
185,54.98298853333334,56.956588,61.0,93.0
186,57.929088,58.295274275000004,59.0,99.0
187,57.629088,58.35459624166667,47.0,90.0
188,58.21688453333334,58.75290087500001,63.0,72.0
189,57.029088,58.81434148333334,35.0,90.0
190,57.329088000000006,58.82281605000001,42.0,72.0
191,58.47112153333334,58.91603628333334,47.0,93.0
192,58.21688453333334,59.21688340000001,66.0,122.0
193,58.97959553333334,59.25290030833334,63.0,122.0
194,58.72535853333334,59.30162906666667,59.0,99.0
195,59.48806953333334,59.80798442500001,54.0,81.0
196,59.74230653333334,60.09611969166667,58.0,83.0
197,59.99654353333334,60.32069570833334,54.0,107.0
198,60.25078053333334,60.420271866666674,58.0,16.0
199,59.23383253333334,60.77832230833334,42.0,93.0
200,60.50501753333334,60.83764427500001,54.0,93.0
201,60.75925453333334,61.25925396666668,58.0,76.0
202,59.99654353333334,61.26984717500001,61.0,17.0
203,61.01349153333334,61.29315223333334,54.0,95.0
204,60.25078053333334,61.327050500000006,66.0,88.0
205,61.52196553333334,61.94569386666667,44.0,97.0
206,61.77620253333334,62.337642575000004,56.0,96.0
207,62.030439533333336,62.39272725833334,44.0,92.0
208,62.53891353333334,62.621540558333336,44.0,52.0
209,61.26772853333334,62.702048941666675,32.0,79.0
210,62.28467653333334,62.83976065000001,63.0,112.0
211,62.28467653333334,62.84823521666667,59.0,83.0
212,63.04738753333334,63.29950589166667,59.0,66.0
213,63.04738753333334,63.35247193333334,63.0,107.0
214,62.79315053333334,63.41814982500001,56.0,112.0
215,63.55586153333334,63.96264073333334,51.0,93.0
216,63.81009853333334,64.40543684166667,54.0,102.0
217,64.06433553333333,64.44145375000001,58.0,75.0
218,64.57280953333334,64.89272442500001,51.0,88.0
219,63.30162453333334,64.89696170833334,39.0,88.0
220,65.08128353333333,65.38636793333335,58.0,81.0
221,64.31857253333334,65.39484250000001,63.0,112.0
222,64.82704653333334,65.46052039166668,54.0,99.0
223,65.58975753333334,66.01984179166668,47.0,73.0
224,65.84399453333334,66.40119729166668,52.0,92.0
225,66.09823153333335,66.430858275,47.0,78.0
226,66.60670553333334,66.74229860000001,47.0,92.0
227,65.33552053333334,66.76560365833333,40.0,71.0
228,66.35246853333334,66.89060351666667,56.0,100.0
229,66.35246853333334,67.282552225,59.0,100.0
230,66.86094253333334,67.37577245833334,52.0,96.0
231,67.11517953333333,67.40543344166667,56.0,96.0
232,67.62365353333334,67.99017854166668,51.0,92.0
233,67.87789053333334,68.43933057500001,54.0,96.0
234,68.13212753333335,68.45839835000001,51.0,86.0
235,68.64060153333334,68.76560139166668,51.0,95.0
236,67.36941653333334,68.827042,39.0,82.0
237,68.38636453333334,68.909669025,58.0,90.0
238,69.14907553333335,69.42873623333334,58.0,95.0
239,68.38636453333334,69.4372108,63.0,102.0
240,68.89483853333334,69.48805820000001,54.0,100.0
241,70.16602353333334,70.48805706666667,56.0,93.0
242,69.65754953333334,70.498650275,49.0,93.0
243,69.91178653333334,70.55797224166668,52.0,89.0
244,69.40331253333333,70.905429475,37.0,83.0
245,70.67449753333334,71.06432760000001,49.0,93.0
246,70.92873453333334,71.35458150833334,52.0,93.0
247,70.42026053333333,71.426615325,61.0,112.0
248,71.18297153333334,71.46051359166667,56.0,95.0
249,71.69144553333334,72.56008861666668,54.0,107.0
250,71.94568253333334,72.56008861666668,58.0,97.0
251,72.19991953333334,72.90966449166667,61.0,107.0
252,72.45415653333335,72.99229151666667,66.0,127.0
253,71.43720853333335,73.02195250000001,42.0,117.0
254,72.70839353333334,73.02407114166667,54.0,107.0
255,73.21686753333334,73.54737563333335,61.0,100.0
256,72.96263053333334,73.549494275,58.0,112.0
257,73.21686753333334,73.56856205000001,66.0,127.0
258,74.23381553333334,74.58762869166668,63.0,93.0
259,73.72534153333334,74.60669646666668,54.0,96.0
260,73.97957853333334,74.68508620833335,59.0,92.0
261,74.74228953333335,74.91389950833334,54.0,99.0
262,73.47110453333335,74.92449271666668,47.0,86.0
263,74.48805253333335,75.4117803,66.0,127.0
264,74.99652653333334,75.43296671666667,63.0,122.0
265,75.25076353333334,75.53889880000001,59.0,100.0
266,76.01347453333334,76.69779579166668,54.0,112.0
267,75.75923753333333,76.791016025,49.0,71.0
268,76.77618553333335,76.791016025,49.0,90.0
269,76.26771153333334,76.956270075,58.0,99.0
270,76.52194853333334,76.99016834166667,66.0,96.0
271,76.52194853333334,77.02406660833334,61.0,90.0
272,77.03042253333334,77.42025260000001,58.0,32.0
273,75.50500053333334,77.42237124166667,42.0,92.0
274,77.03042253333334,77.55796430833334,61.0,42.0
275,77.03042253333334,77.56008295000001,66.0,77.0
276,77.28465953333334,77.56220159166668,54.0,102.0
277,77.79313353333335,78.14059076666668,56.0,90.0
278,78.04737053333335,78.43508195833334,59.0,79.0
279,78.30160753333334,78.70838673333334,51.0,85.0
280,78.81008153333335,79.11728457500001,51.0,68.0
281,79.06431853333333,79.11728457500001,56.0,25.0
282,77.53889653333334,79.155420125,44.0,64.0
283,78.55584453333334,79.59821623333335,59.0,75.0
284,79.31855553333334,79.60457215833334,56.0,86.0
285,79.06431853333333,79.60880944166668,68.0,92.0
286,78.55584453333334,79.65118227500001,63.0,93.0
287,79.82702953333335,80.172368125,54.0,97.0
288,80.08126653333335,80.68084212500001,57.0,97.0
289,80.33550353333334,80.68719805,54.0,100.0
290,80.84397753333334,81.03041800000001,54.0,95.0
291,79.57279253333334,81.12575687500001,42.0,99.0
292,80.58974053333334,81.14694329166667,61.0,102.0
293,80.58974053333334,81.57702755000001,66.0,122.0
294,81.35245153333334,81.646942725,61.0,117.0
295,81.09821453333333,81.67660370833335,57.0,107.0
296,81.86092553333334,82.25499288333334,47.0,59.0
297,82.11516253333335,82.69143306666668,52.0,85.0
298,82.36939953333334,82.74863639166668,47.0,66.0
299,82.87787353333334,83.007110675,47.0,90.0
300,81.60668853333334,83.05795807500002,40.0,82.0
301,82.62363653333334,83.18295793333334,56.0,107.0
302,82.62363653333334,83.61304219166668,59.0,102.0
303,83.13211053333335,83.64270317500001,52.0,97.0
304,83.38634753333335,83.69143193333335,56.0,107.0
305,83.89482153333334,84.24227876666667,51.0,76.0
306,84.14905853333335,84.72109178333335,54.0,97.0
307,84.40329553333333,84.75922733333334,51.0,78.0
308,84.65753253333334,85.21685393333334,58.0,97.0
309,84.65753253333334,85.34820971666667,63.0,117.0
310,83.64058453333334,85.358802925,39.0,97.0
311,84.91176953333334,85.66176868333335,51.0,86.0
312,85.16600653333334,85.67448053333334,54.0,107.0
313,85.42024353333335,85.67448053333334,58.0,79.0
314,85.42024353333335,85.67448053333334,63.0,95.0
315,85.92871753333334,86.26558155833334,49.0,92.0
316,86.18295453333334,86.8015979,52.0,86.0
317,86.43719153333333,86.82066567500001,49.0,88.0
318,85.67448053333334,87.074902675,37.0,112.0
319,86.94566553333334,87.12363143333334,49.0,92.0
320,86.69142853333334,87.2083771,56.0,97.0
321,86.69142853333334,87.23168215833334,61.0,117.0
322,87.19990253333334,87.26558042500001,52.0,90.0
323,87.70837653333334,91.80794815833335,54.0,100.0
324,87.70837653333334,91.81218544166668,58.0,100.0
325,87.70837653333334,91.8354905,61.0,93.0
326,87.70837653333334,91.84608370833334,42.0,82.0
327,91.77616853333333,92.09184614166668,63.0,93.0
328,91.77616853333333,92.10455799166667,56.0,96.0
329,91.77616853333333,92.11726984166668,59.0,90.0
330,92.28464253333334,92.38421869166667,59.0,66.0
331,92.28464253333334,92.388455975,63.0,45.0
332,92.28464253333334,92.39057461666667,56.0,59.0
333,92.53887953333334,92.6236252,63.0,45.0
334,92.53887953333334,92.629981125,56.0,42.0
335,91.77616853333333,92.63209976666667,44.0,82.0
336,92.53887953333334,92.64481161666669,59.0,55.0
337,91.77616853333333,93.12150599166668,32.0,76.0
338,92.79311653333335,93.12998055833334,56.0,83.0
339,92.79311653333335,93.16176018333334,59.0,81.0
340,92.79311653333335,93.17447203333334,63.0,86.0
341,92.79311653333335,93.25498041666668,44.0,65.0
342,93.30159053333334,93.42870903333335,56.0,95.0
343,93.81006453333335,94.73167365833334,61.0,77.0
344,93.81006453333335,94.73802958333334,54.0,93.0
345,93.81006453333335,94.74014822500001,58.0,72.0
346,93.81006453333335,95.03040213333334,42.0,63.0
347,94.82701253333335,95.06641904166668,58.0,117.0
348,94.82701253333335,95.08972410000001,61.0,100.0
349,95.84396053333334,96.55158685,61.0,82.0
350,95.84396053333334,96.71684090000001,56.0,86.0
351,96.35243453333334,97.17870478333334,49.0,53.0
352,96.86090853333334,97.47955190000002,64.0,75.0
353,96.86090853333334,97.48802646666667,61.0,74.0
354,96.86090853333334,97.49861967500001,56.0,82.0
355,97.62361953333334,97.66811100833334,56.0,38.0
356,97.62361953333334,97.74650075000001,64.0,63.0
357,97.62361953333334,97.75073803333333,61.0,64.0
358,97.36938253333335,98.07065292500002,49.0,38.0
359,98.13209353333335,98.64268617500001,61.0,68.0
360,98.13209353333335,98.74226233333334,64.0,72.0
361,98.13209353333335,98.75497418333335,56.0,65.0
362,98.64056753333335,98.97319427500001,49.0,43.0
363,98.89480453333334,99.29946509166668,56.0,89.0
364,98.89480453333334,99.30793965833334,61.0,66.0
365,98.89480453333334,99.30793965833334,64.0,79.0
366,99.40327853333335,99.94565080000001,49.0,40.0
367,99.40327853333335,99.97107450000001,56.0,71.0
368,99.91175253333334,99.97107450000001,56.0,107.0
369,99.40327853333335,99.97107450000001,61.0,64.0
370,95.84396053333334,99.99014227500001,37.0,86.0
371,99.40327853333335,99.99437955833335,64.0,69.0
372,96.60667153333334,100.00285412500001,44.0,18.0
373,99.91175253333334,100.00285412500001,44.0,95.0
374,99.91175253333334,100.56005688333335,59.0,90.0
375,99.91175253333334,100.61937885,63.0,97.0
376,100.42022653333333,100.64480255000001,56.0,31.0
377,100.92870053333334,101.43293725000001,59.0,88.0
378,100.92870053333334,101.45624230833334,63.0,90.0
379,99.91175253333334,101.50073378333335,32.0,68.0
380,100.92870053333334,101.72319115833335,56.0,96.0
381,101.43717453333335,101.86937743333334,44.0,69.0
382,101.94564853333334,102.78463063333334,61.0,88.0
383,101.94564853333334,102.84395260000001,54.0,86.0
384,101.94564853333334,102.84607124166668,58.0,82.0
385,101.94564853333334,103.01132529166668,42.0,69.0
386,102.96259653333334,103.35666388333334,61.0,86.0
387,102.96259653333334,103.44776547500001,58.0,99.0
388,103.47107053333335,103.54734163333335,54.0,85.0
389,103.97954453333335,104.64903530000001,61.0,92.0
390,104.74225553333335,104.84606897500001,61.0,24.0
391,103.97954453333335,104.86725539166667,52.0,88.0
392,103.97954453333335,104.86725539166667,56.0,96.0
393,104.48801853333335,105.30581421666668,49.0,73.0
394,103.97954453333335,108.04733653333335,37.0,88.0
395,105.50496653333335,108.04733653333335,49.0,59.0
396,106.01344053333335,108.04733653333335,52.0,48.0
397,104.99649253333334,108.04733653333335,56.0,93.0
398,104.99649253333334,108.04733653333335,61.0,92.0
399,108.55581053333334,109.17657254166667,59.0,69.0
400,108.04733653333335,109.19352167500001,47.0,95.0
401,108.04733653333335,109.40538584166669,35.0,69.0
402,109.31852153333335,109.42869090000002,47.0,74.0
403,109.06428453333334,109.50919928333334,66.0,107.0
404,109.06428453333334,109.52826705833334,63.0,127.0
405,109.57275853333334,109.69352110833334,59.0,78.0
406,110.08123253333335,110.21470695833335,56.0,88.0
407,110.08123253333335,110.62996072500002,59.0,79.0
408,110.08123253333335,110.63207936666669,63.0,75.0
409,110.58970653333334,110.74013009166669,56.0,35.0
410,110.08123253333335,111.22318039166669,44.0,72.0
411,110.84394353333334,111.46258690000002,59.0,78.0
412,111.35241753333335,111.52614615000002,44.0,55.0
413,110.84394353333334,111.62360366666667,63.0,90.0
414,111.60665453333334,111.69987476666668,56.0,93.0
415,112.11512853333335,112.72317869166667,58.0,74.0
416,112.11512853333335,113.03885630000002,54.0,83.0
417,112.62360253333335,113.22529676666667,51.0,50.0
418,113.13207653333335,113.29733058333335,58.0,86.0
419,113.13207653333335,113.29944922500002,54.0,56.0
420,113.13207653333335,113.30368650833334,63.0,86.0
421,113.89478753333334,113.98377048333334,58.0,65.0
422,113.89478753333334,113.99224505000001,63.0,72.0
423,113.89478753333334,114.01978739166668,54.0,82.0
424,113.64055053333334,114.67444766666668,51.0,76.0
425,114.65749853333335,115.20834536666668,54.0,90.0
426,114.91173553333334,115.23165042500001,51.0,82.0
427,115.42020953333335,115.66597196666667,51.0,90.0
428,112.11512853333335,116.01978512500001,39.0,93.0
429,115.16597253333335,116.15325955,58.0,75.0
430,115.16597253333335,116.15537819166667,63.0,95.0
431,115.67444653333334,116.17868325,54.0,90.0
432,116.18292053333334,117.07275003333334,52.0,69.0
433,116.18292053333334,117.08334324166668,56.0,74.0
434,116.18292053333334,117.08334324166668,59.0,75.0
435,116.18292053333334,117.08969916666668,64.0,75.0
436,116.18292053333334,117.90961349166668,40.0,67.0
437,117.19986853333334,117.99224051666667,59.0,79.0
438,117.19986853333334,117.99224051666667,64.0,75.0
439,117.19986853333334,118.09181667500002,56.0,93.0
440,117.19986853333334,118.09605395833334,52.0,88.0
441,118.21681653333334,119.13842565833335,52.0,89.0
442,118.21681653333334,119.14266294166669,61.0,76.0
443,118.21681653333334,119.15537479166667,56.0,93.0
444,118.21681653333334,119.66384879166668,37.0,40.0
445,119.23376453333334,119.97740775833334,61.0,96.0
446,119.23376453333334,119.98800096666668,52.0,78.0
447,119.23376453333334,120.05579750000001,56.0,95.0
448,118.21681653333334,120.21257698333335,49.0,81.0
449,120.25071253333334,120.58757655833335,54.0,69.0
450,120.25071253333334,120.81215257500001,59.0,72.0
451,120.25071253333334,120.81850850000001,61.0,66.0
452,120.75918653333335,121.24435547500002,54.0,59.0
453,121.26766053333336,121.36935533333335,54.0,42.0
454,121.26766053333336,121.78884638333335,59.0,92.0
455,121.26766053333336,121.83969378333335,61.0,99.0
456,120.25071253333334,121.92232080833335,42.0,85.0
457,121.77613453333335,122.60876070833335,54.0,64.0
458,122.28460853333334,122.89265869166668,58.0,71.0
459,122.28460853333334,122.90325190000001,61.0,65.0
460,123.04731953333335,123.19774309166668,58.0,40.0
461,123.04731953333335,123.20833630000001,61.0,50.0
462,123.04731953333335,123.23587864166667,54.0,60.0
463,122.28460853333334,123.43503095833334,42.0,58.0
464,123.30155653333334,123.56850538333335,54.0,100.0
465,123.55579353333334,123.82062374166668,42.0,102.0
466,123.30155653333334,123.87358978333334,58.0,122.0
467,123.30155653333334,123.88842027500002,61.0,112.0
468,123.81003053333335,124.33333502500001,54.0,81.0
469,124.31850453333334,126.19773969166668,35.0,85.0
470,125.58968953333334,126.19773969166668,47.0,38.0
471,124.82697853333335,126.22951931666668,42.0,58.0
472,126.09816353333335,126.54519692500001,63.0,67.0
473,125.33545253333334,126.54943420833335,66.0,96.0
474,125.84392653333335,126.71468825833334,59.0,76.0
475,126.86087453333334,127.36511125000001,56.0,73.0
476,126.35240053333335,127.59180590833334,32.0,83.0
477,127.36934853333335,128.34604234166667,59.0,72.0
478,127.36934853333335,128.40536430833333,63.0,95.0
479,127.87782253333334,128.52400824166668,56.0,82.0
480,128.38629653333334,130.35663328333334,39.0,97.0
481,128.89477053333334,130.49434499166668,51.0,65.0
482,129.40324453333335,130.91807332500002,58.0,99.0
483,129.40324453333335,130.93714110000002,63.0,100.0
484,129.91171853333333,131.07909009166667,54.0,70.0
485,130.92866653333334,131.52400484166668,51.0,56.0
486,130.42019253333336,131.86722479166667,39.0,73.0
487,131.69137753333337,131.91807219166668,51.0,73.0
488,131.43714053333335,131.99222465000003,58.0,71.0
489,131.43714053333335,132.46680038333335,63.0,102.0
490,132.19985153333334,132.49010544166669,58.0,62.0
491,131.94561453333336,132.55154605,54.0,86.0
492,132.96256253333334,133.73162945833334,47.0,63.0
493,132.45408853333333,133.78459550000002,40.0,72.0
494,133.47103653333335,134.1913747,59.0,79.0
495,133.97951053333333,134.47950996666668,52.0,66.0
496,133.47103653333335,134.53247600833333,56.0,93.0
497,134.99645853333334,135.7316271916667,51.0,79.0
498,134.48798453333336,135.88416939166666,39.0,89.0
499,135.50493253333335,136.51764325,58.0,99.0
500,135.50493253333335,136.52399917500003,63.0,97.0
501,136.01340653333335,136.549422875,54.0,64.0
502,137.03035453333337,137.6765402416667,49.0,79.0
503,137.53882853333334,138.00492970000002,52.0,85.0
504,137.53882853333334,138.05365845833336,56.0,112.0
505,137.53882853333334,138.087556725,61.0,100.0
506,136.52188053333333,138.1320482,37.0,97.0
507,138.04730253333335,138.57060702500002,49.0,90.0
508,138.55577653333336,138.99433535833333,54.0,99.0
509,139.06425053333334,139.43077554166666,54.0,61.0
510,138.55577653333336,139.44984331666666,61.0,99.0
511,138.55577653333336,139.46467380833334,58.0,112.0
512,138.55577653333336,139.92865633333335,42.0,95.0
513,139.57272453333334,140.19136790000002,58.0,107.0
514,139.57272453333334,140.27611356666668,54.0,100.0
515,140.33543553333334,140.4456049,58.0,62.0
516,140.33543553333334,140.44984218333335,66.0,61.0
517,139.57272453333334,140.45619810833335,61.0,100.0
518,140.33543553333334,140.46467267500003,54.0,44.0
519,140.08119853333335,140.50068958333333,42.0,51.0
520,140.58967253333333,142.5049246,42.0,99.0
521,140.58967253333333,142.55153471666668,58.0,122.0
522,140.58967253333333,142.55577200000002,54.0,100.0
523,140.58967253333333,142.55577200000002,66.0,97.0
524,140.58967253333333,142.56212792500003,61.0,93.0
525,143.38627953333335,143.718906275,59.0,99.0
526,143.13204253333333,143.77822824166668,47.0,90.0
527,143.64051653333334,144.17653287500002,63.0,72.0
528,142.62356853333335,144.23797348333335,35.0,90.0
529,142.87780553333334,144.24644805000003,42.0,72.0
530,143.89475353333336,144.33966828333337,47.0,93.0
531,143.64051653333334,144.64051540000003,66.0,122.0
532,144.40322753333334,144.67653230833335,63.0,122.0
533,144.14899053333335,144.7252610666667,59.0,99.0
534,144.91170153333334,145.23161642500003,54.0,81.0
535,145.16593853333336,145.51975169166667,58.0,83.0
536,145.42017553333335,145.74432770833334,54.0,107.0
537,145.67441253333334,145.84390386666666,58.0,16.0
538,144.65746453333335,146.20195430833334,42.0,93.0
539,145.92864953333333,146.261276275,54.0,93.0
540,146.18288653333335,146.68288596666667,58.0,76.0
541,145.42017553333335,146.693479175,61.0,17.0
542,146.43712353333336,146.71678423333333,54.0,95.0
543,145.67441253333334,146.7506825,66.0,88.0
544,146.94559753333334,147.36932586666668,44.0,97.0
545,147.19983453333333,147.76127457500002,56.0,96.0
546,147.45407153333335,147.81635925833336,44.0,92.0
547,147.96254553333335,148.04517255833335,44.0,52.0
548,146.69136053333335,148.1256809416667,32.0,79.0
549,147.70830853333337,148.26339265000001,63.0,112.0
550,147.70830853333337,148.2718672166667,59.0,83.0
551,148.47101953333333,148.72313789166668,59.0,66.0
552,148.47101953333333,148.77610393333333,63.0,107.0
553,148.21678253333334,148.841781825,56.0,112.0
554,148.97949353333337,149.38627273333333,51.0,93.0
555,149.23373053333336,149.8290688416667,54.0,102.0
556,149.48796753333335,149.86508575000002,58.0,75.0
557,149.99644153333335,150.316356425,51.0,88.0
558,148.72525653333335,150.32059370833335,39.0,88.0
559,150.50491553333336,150.80999993333336,58.0,81.0
560,149.74220453333334,150.8184745,63.0,112.0
561,150.25067853333334,150.88415239166667,54.0,99.0
562,151.01338953333334,151.4434737916667,47.0,73.0
563,151.26762653333333,151.82482929166667,52.0,92.0
564,151.52186353333335,151.85449027500002,47.0,78.0
565,152.03033753333335,152.16593060000002,47.0,92.0
566,150.75915253333335,152.18923565833336,40.0,71.0
567,151.77610053333336,152.31423551666668,56.0,100.0
568,151.77610053333336,152.70618422500002,59.0,100.0
569,152.28457453333334,152.79940445833336,52.0,96.0
570,152.53881153333333,152.82906544166667,56.0,96.0
571,153.04728553333337,153.4138105416667,51.0,92.0
572,153.30152253333335,153.862962575,54.0,96.0
573,153.55575953333334,153.88203035,51.0,86.0
574,154.06423353333335,154.18923339166668,51.0,95.0
575,152.79304853333335,154.250674,39.0,82.0
576,153.80999653333333,154.33330102500003,58.0,90.0
577,154.57270753333336,154.85236823333335,58.0,95.0
578,153.80999653333333,154.8608428,63.0,102.0
579,154.31847053333337,154.9116902,54.0,100.0
580,155.58965553333334,155.91168906666667,56.0,93.0
581,155.08118153333334,155.92228227500001,49.0,93.0
582,155.33541853333335,155.98160424166667,52.0,89.0
583,154.82694453333335,156.329061475,37.0,83.0
584,156.09812953333335,156.4879596,49.0,93.0
585,156.35236653333334,156.77821350833335,52.0,93.0
586,155.84389253333336,156.850247325,61.0,112.0
587,156.60660353333333,156.88414559166668,56.0,95.0
588,157.11507753333336,157.9837206166667,54.0,107.0
589,157.36931453333335,157.9837206166667,58.0,97.0
590,157.62355153333334,158.3332964916667,61.0,107.0
591,157.87778853333333,158.41592351666668,66.0,127.0
592,156.86084053333335,158.4455845,42.0,117.0
593,158.13202553333335,158.4477031416667,54.0,107.0
594,158.64049953333335,158.97100763333333,61.0,100.0
595,158.38626253333337,158.97312627500003,58.0,112.0
596,158.64049953333335,158.99219405000002,66.0,127.0
597,159.65744753333337,160.01126069166668,63.0,93.0
598,159.14897353333333,160.03032846666667,54.0,96.0
599,159.40321053333335,160.10871820833336,59.0,92.0
600,160.16592153333335,160.33753150833334,54.0,99.0
601,158.89473653333334,160.3481247166667,47.0,86.0
602,159.91168453333336,160.83541230000003,66.0,127.0
603,160.42015853333334,160.85659871666667,63.0,122.0
604,160.67439553333335,160.96253080000002,59.0,100.0
605,161.43710653333335,162.1214277916667,54.0,112.0
606,161.18286953333336,162.21464802500003,49.0,71.0
607,162.19981753333334,162.21464802500003,49.0,90.0
608,161.69134353333334,162.37990207500002,58.0,99.0
609,161.94558053333333,162.41380034166667,66.0,96.0
610,161.94558053333333,162.44769860833335,61.0,90.0
611,162.45405453333336,162.84388460000002,58.0,32.0
612,160.92863253333334,162.84600324166666,42.0,92.0
613,162.45405453333336,162.98159630833334,61.0,42.0
614,162.45405453333336,162.98371495000004,66.0,77.0
615,162.70829153333335,162.98583359166668,54.0,102.0
616,163.21676553333333,163.5642227666667,56.0,90.0
617,163.47100253333335,163.85871395833334,59.0,79.0
618,163.72523953333337,164.13201873333335,51.0,85.0
619,164.23371353333334,164.540916575,51.0,68.0
620,164.48795053333333,164.540916575,56.0,25.0
621,162.96252853333334,164.57905212500003,44.0,64.0
622,163.97947653333335,165.02184823333334,59.0,75.0
623,164.74218753333335,165.02820415833335,56.0,86.0
624,164.48795053333333,165.03244144166666,68.0,92.0
625,163.97947653333335,165.074814275,63.0,93.0
626,165.25066153333336,165.59600012500002,54.0,97.0
627,165.50489853333335,166.10447412500002,57.0,97.0
628,165.75913553333334,166.11083005,54.0,100.0
629,166.26760953333334,166.45405,54.0,95.0
630,164.99642453333337,166.54938887500003,42.0,99.0
631,166.01337253333335,166.57057529166667,61.0,102.0
632,166.01337253333335,167.00065955000002,66.0,122.0
633,166.77608353333335,167.07057472500003,61.0,117.0
634,166.52184653333336,167.10023570833334,57.0,107.0
635,167.28455753333336,167.67862488333336,47.0,59.0
636,167.53879453333334,168.1150650666667,52.0,85.0
637,167.79303153333336,168.17226839166668,47.0,66.0
638,168.30150553333334,168.43074267500003,47.0,90.0
639,167.03032053333334,168.481590075,40.0,82.0
640,168.04726853333335,168.60658993333334,56.0,107.0
641,168.04726853333335,169.0366741916667,59.0,102.0
642,168.55574253333333,169.066335175,52.0,97.0
643,168.80997953333335,169.11506393333335,56.0,107.0
644,169.31845353333335,169.66591076666668,51.0,76.0
645,169.57269053333334,170.14472378333335,54.0,97.0
646,169.82692753333333,170.18285933333334,51.0,78.0
647,170.08116453333335,170.64048593333337,58.0,97.0
648,170.08116453333335,170.7718417166667,63.0,117.0
649,169.06421653333337,170.78243492500002,39.0,97.0
650,170.33540153333337,171.08540068333335,51.0,86.0
651,170.58963853333336,171.09811253333334,54.0,107.0
652,170.84387553333335,171.09811253333334,58.0,79.0
653,170.84387553333335,171.09811253333334,63.0,95.0
654,171.35234953333335,171.68921355833334,49.0,92.0
655,171.60658653333337,172.22522990000002,52.0,86.0
656,171.86082353333336,172.244297675,49.0,88.0
657,171.09811253333334,172.49853467500003,37.0,112.0
658,172.36929753333334,172.54726343333334,49.0,92.0
659,172.11506053333335,172.6320091,56.0,97.0
660,172.11506053333335,172.65531415833334,61.0,117.0
661,172.62353453333336,172.68921242500002,52.0,90.0
662,173.13200853333336,175.16590453333333,42.0,82.0
663,173.13200853333336,175.16590453333333,54.0,100.0
664,173.13200853333336,175.16590453333333,58.0,100.0
665,173.13200853333336,175.16590453333333,61.0,93.0
666,176.18285253333335,176.25276770833335,56.0,99.0
667,176.69132653333335,177.4900544416667,52.0,63.0
668,177.19980053333336,178.28454506666668,64.0,96.0
669,177.70827453333334,178.37988394166666,52.0,67.0
670,175.16590453333333,178.600222675,40.0,89.0
671,175.67437853333337,178.62988365833337,47.0,69.0
672,178.72522253333335,179.20403555000001,64.0,86.0
673,178.21674853333334,179.22522196666668,59.0,117.0
674,179.74217053333336,180.481576475,51.0,63.0
675,180.25064453333334,181.34810091666668,54.0,81.0
676,180.75911853333335,181.65530395833335,51.0,66.0
677,180.25064453333334,182.17648980833334,58.0,57.0
678,179.23369653333333,182.29937102500003,39.0,100.0
679,181.77606653333333,182.3438625,51.0,56.0
680,181.26759253333336,182.81420095000001,63.0,100.0
681,182.28454053333337,182.82267551666666,54.0,92.0
682,182.79301453333335,182.8862347666667,58.0,53.0
683,184.31843653333334,184.36080936666667,52.0,36.0
684,184.31843653333334,184.43919910833336,56.0,69.0
685,184.31843653333334,184.46462280833333,59.0,72.0
686,185.33538453333335,186.20826490000002,59.0,73.0
687,185.33538453333335,186.23156995833335,64.0,90.0
688,184.82691053333335,186.41589178333336,52.0,61.0
689,183.30148853333336,186.50911201666668,40.0,90.0
690,183.80996253333336,186.51758658333335,47.0,59.0
691,186.35233253333334,186.64682372500002,59.0,51.0
692,186.35233253333334,186.77606086666668,64.0,90.0
693,188.38622853333334,188.50910975000002,59.0,85.0
694,187.87775453333336,188.56419443333334,51.0,81.0
695,188.64046553333336,188.94131265000001,59.0,20.0
696,188.38622853333334,189.23156655833336,63.0,102.0
697,188.89470253333334,189.70614229166668,51.0,47.0
698,189.40317653333335,189.9201251,63.0,62.0
699,189.40317653333335,189.9540233666667,56.0,92.0
700,189.40317653333335,189.95614200833336,59.0,53.0
701,189.91165053333336,190.55995488333335,51.0,69.0
702,190.67436153333335,190.74639535000003,51.0,54.0
703,187.36928053333335,190.82054780833334,44.0,89.0
704,190.42012453333336,191.3141913166667,59.0,97.0
705,190.42012453333336,191.34597094166668,63.0,107.0
706,190.92859853333334,191.3523268666667,56.0,44.0
707,191.69130953333334,192.09173280833335,49.0,92.0
708,192.19978353333335,192.51122385833335,49.0,78.0
709,191.94554653333336,192.5408848416667,52.0,92.0
710,192.45402053333336,192.99639280000002,56.0,97.0
711,191.43707253333335,193.36079916666668,37.0,117.0
712,192.70825753333335,193.55359555833334,49.0,82.0
713,192.96249453333334,193.82690033333336,52.0,90.0
714,192.45402053333336,194.0091035166667,61.0,117.0
715,193.21673153333336,194.01545944166668,56.0,96.0
716,193.72520553333334,194.52817072500002,49.0,72.0
717,193.97944253333335,194.59808590000003,52.0,76.0
718,193.47096853333335,194.90740758333334,37.0,83.0
719,194.74215353333335,195.087492125,49.0,88.0
720,194.23367953333334,195.09808533333336,56.0,86.0
721,194.99639053333334,195.42435615000002,52.0,90.0
722,194.48791653333336,195.46672898333335,61.0,112.0
723,195.25062753333336,195.49850860833334,56.0,95.0
724,195.75910153333336,196.12350790000002,51.0,74.0
725,196.26757553333334,196.6086768416667,51.0,89.0
726,196.01333853333335,196.61503276666667,54.0,96.0
727,196.52181253333336,197.01757468333335,58.0,86.0
728,195.50486453333335,197.40528610833334,39.0,89.0
729,196.77604953333335,197.59172657500002,51.0,72.0
730,197.03028653333334,197.94130245000002,54.0,68.0
731,197.28452353333336,197.973082075,58.0,96.0
732,196.52181253333336,197.973082075,63.0,100.0
733,197.79299753333336,198.24638685000002,51.0,83.0
734,198.30147153333334,198.57053902500002,51.0,69.0
735,198.04723453333335,198.6171491416667,54.0,86.0
736,197.53876053333335,198.92011490000002,39.0,89.0
737,198.80994553333335,198.9667250166667,51.0,92.0
738,198.55570853333336,199.05782660833336,58.0,65.0
739,198.55570853333336,199.523927775,63.0,86.0
740,199.06418253333337,199.54299555000003,54.0,85.0
741,199.31841953333335,199.57689381666668,58.0,96.0
742,200.33536753333334,200.65528242500002,59.0,82.0
743,200.08113053333335,200.67435020000002,52.0,88.0
744,200.58960453333336,201.12985815833335,64.0,79.0
745,199.57265653333334,201.49214588333336,40.0,72.0
746,199.82689353333336,201.6807049916667,47.0,59.0
747,200.84384153333335,201.73367103333337,52.0,78.0
748,201.09807853333336,202.2273145416667,59.0,88.0
749,201.35231553333335,202.244263675,64.0,61.0
750,200.58960453333336,202.2527382416667,68.0,81.0
751,202.36926353333334,202.69553435000003,59.0,73.0
752,202.11502653333335,202.70612755833335,52.0,86.0
753,201.60655253333334,203.04511022500003,40.0,75.0
754,201.86078953333336,203.11926268333335,47.0,63.0
755,202.87773753333335,203.1404491,52.0,88.0
756,202.62350053333336,203.14680502500002,64.0,79.0
757,202.62350053333336,203.60019434166668,68.0,97.0
758,203.38621153333335,203.64680445833335,64.0,72.0
759,203.13197453333336,203.7209569166667,59.0,96.0
760,203.89468553333336,204.70400665000003,49.0,73.0
761,204.14892253333335,204.73366763333334,54.0,88.0
762,204.40315953333337,205.19765015833335,58.0,83.0
763,204.65739653333335,205.21459929166667,61.0,112.0
764,203.64044853333334,205.56205652500003,42.0,102.0
765,205.42010753333335,205.71883600833334,61.0,117.0
766,205.42010753333335,205.72731057500002,58.0,112.0
767,205.16587053333336,205.73366650000003,54.0,107.0
768,205.92858153333336,206.05146275,61.0,60.0
769,205.92858153333336,206.1044287916667,54.0,97.0
770,206.43705553333336,206.54510625833336,58.0,112.0
771,206.43705553333336,206.56417403333336,54.0,92.0
772,206.43705553333336,206.56417403333336,61.0,99.0
773,205.67434453333334,206.80781782500003,49.0,100.0
774,205.67434453333334,206.8290042416667,42.0,100.0
775,206.69129253333335,206.94129225000003,54.0,99.0
776,206.69129253333335,206.9815464416667,58.0,112.0
777,206.69129253333335,206.99425829166668,61.0,112.0
778,206.94552953333334,207.39891885000003,49.0,89.0
779,206.94552953333334,207.44552896666667,42.0,93.0
780,207.19976653333336,207.66374905833337,54.0,99.0
781,207.19976653333336,207.67010498333335,58.0,117.0
782,207.19976653333336,207.71247781666668,61.0,107.0
783,207.70824053333334,208.05357912500003,66.0,95.0
784,207.70824053333334,208.10230788333334,63.0,97.0
785,207.96247753333336,208.36290080833336,47.0,93.0
786,208.21671453333335,208.79722235000003,59.0,93.0
787,208.47095153333336,208.8438324666667,47.0,70.0
788,207.70824053333334,209.08112033333336,35.0,95.0
789,208.97942553333334,209.24637438333335,47.0,82.0
790,208.97942553333334,209.26544215833334,59.0,85.0
791,208.72518853333335,209.68281456666668,66.0,127.0
792,209.48789953333335,209.78027208333336,59.0,100.0
793,209.23366253333336,209.78239072500003,63.0,127.0
794,209.99637353333335,210.39891545000003,54.0,93.0
795,210.25061053333334,210.86501661666668,58.0,112.0
796,210.50484753333336,210.88196575,54.0,95.0
797,211.01332153333334,211.30569408333335,54.0,97.0
798,209.74213653333337,211.36925333333335,42.0,99.0
799,210.75908453333335,211.55569380000003,66.0,127.0
800,211.52179553333335,211.7484901916667,61.0,117.0
801,211.26755853333336,211.8438290666667,58.0,117.0
802,212.03026953333335,212.36077763333336,56.0,95.0
803,212.28450653333334,212.71035350833336,59.0,85.0
804,212.53874353333336,212.8480652166667,56.0,102.0
805,212.79298053333335,213.27391219166668,59.0,68.0
806,213.04721753333337,213.31204774166667,51.0,96.0
807,211.77603253333336,213.3353528,44.0,100.0
808,213.55569153333334,213.80992853333336,59.0,59.0
809,212.79298053333335,213.82899630833336,63.0,112.0
810,213.30145453333336,213.9349283916667,56.0,122.0
811,214.06416553333335,214.43916510833336,51.0,88.0
812,214.31840253333334,214.86077480000003,54.0,97.0
813,214.57263953333336,214.91374084166668,51.0,81.0
814,213.80992853333336,215.19128290000003,39.0,107.0
815,215.08111353333337,215.24001165833334,51.0,93.0
816,214.82687653333335,215.3141641166667,58.0,89.0
817,214.82687653333335,215.8417058916667,63.0,117.0
818,215.58958753333334,215.8671295916667,58.0,102.0
819,215.33535053333335,215.8861973666667,54.0,112.0
820,216.09806153333335,216.44551876666668,47.0,96.0
821,216.35229853333334,216.88831487500002,52.0,93.0
822,216.60653553333336,216.93704363333336,47.0,81.0
823,217.11500953333336,217.2506026,47.0,86.0
824,215.84382453333336,217.28661950833336,40.0,77.0
825,216.86077253333335,217.38195838333334,56.0,100.0
826,216.86077253333335,217.7484833916667,59.0,99.0
827,217.36924653333335,217.80568671666668,52.0,99.0
828,217.62348353333334,217.89678830833336,56.0,102.0
829,218.13195753333335,218.51331303333336,51.0,89.0
830,218.38619453333337,218.95187185833336,54.0,96.0
831,218.64043153333336,218.9751769166667,51.0,88.0
832,219.14890553333336,219.2802613166667,51.0,95.0
833,217.87772053333336,219.35865105833335,39.0,100.0
834,218.89466853333334,219.3628883416667,58.0,100.0
835,218.89466853333334,219.8967860416667,63.0,112.0
836,219.65737953333334,219.96246393333337,58.0,99.0
837,219.40314253333335,219.9794130666667,54.0,100.0
838,220.16585353333335,220.47941250000002,49.0,82.0
839,220.67432753333335,221.02390340833335,49.0,88.0
840,220.42009053333337,221.14042870000003,52.0,92.0
841,219.91161653333336,221.43491989166668,37.0,95.0
842,221.18280153333336,221.6489027,49.0,93.0
843,220.92856453333334,221.91161426666667,61.0,122.0
844,221.69127553333337,221.9306820416667,52.0,97.0
845,221.43703853333335,221.9306820416667,56.0,107.0
846,221.94551253333336,222.1404275666667,42.0,99.0
847,222.19974953333335,222.46457974166668,54.0,107.0
848,222.19974953333335,222.46457974166668,61.0,107.0
849,222.19974953333335,222.46881702500002,58.0,117.0
850,222.19974953333335,222.49424072500003,42.0,107.0
851,222.70822353333335,222.812036975,58.0,117.0
852,222.70822353333335,222.8268674666667,61.0,102.0
853,222.70822353333335,222.83110475,54.0,107.0
854,222.70822353333335,222.85864709166668,42.0,83.0
855,222.96246053333334,223.32686690000003,54.0,117.0
856,222.96246053333334,223.333222825,61.0,102.0
857,222.96246053333334,223.34381603333335,42.0,99.0
858,222.96246053333334,223.34381603333335,58.0,122.0
859,223.47093453333335,223.95398483333335,58.0,122.0
860,223.47093453333335,223.9772898916667,54.0,99.0
861,223.47093453333335,223.97940853333336,42.0,112.0
862,223.47093453333335,223.97940853333336,61.0,107.0
863,223.97940853333336,224.6383060916667,66.0,112.0
864,223.97940853333336,224.64254337500003,59.0,90.0
865,223.97940853333336,224.6446620166667,63.0,117.0
866,223.97940853333336,224.65101794166668,35.0,74.0
867,223.97940853333336,224.65949250833336,47.0,88.0
868,225.25059353333336,225.59381348333335,47.0,96.0
869,225.25059353333336,225.59381348333335,66.0,112.0
870,225.25059353333336,225.61076261666668,35.0,72.0
871,225.25059353333336,225.61711854166668,63.0,127.0
872,225.25059353333336,225.68915235833336,59.0,99.0
873,226.01330453333335,226.7230494916667,30.0,90.0
874,226.01330453333335,226.92220180833334,61.0,99.0
875,226.01330453333335,226.92643909166668,58.0,112.0
876,226.01330453333335,226.94762550833335,54.0,100.0
877,226.01330453333335,227.15313375000002,42.0,74.0
878,227.28448953333336,227.4158453166667,42.0,89.0
879,227.03025253333337,227.52601468333336,58.0,127.0
880,227.03025253333337,227.54296381666668,61.0,122.0
881,227.53872653333335,227.61711627500003,54.0,112.0
882,228.04720053333335,228.62982699166668,59.0,99.0
883,228.04720053333335,228.66584390000003,63.0,117.0
884,228.04720053333335,228.76753870000002,56.0,122.0
885,228.80991153333335,228.850165725,63.0,35.0
886,228.80991153333335,228.87135214166668,59.0,58.0
887,229.06414853333337,229.16796197500003,56.0,117.0
888,228.04720053333335,229.17431790000003,44.0,97.0
889,229.06414853333337,229.18279246666668,59.0,122.0
890,229.31838553333336,229.40313120000002,44.0,112.0
891,229.06414853333337,229.54296155000003,63.0,127.0
892,229.31838553333336,229.55143611666668,59.0,29.0
893,229.57262253333334,229.6467749916667,56.0,97.0
894,230.08109653333335,230.273892925,57.0,96.0
895,230.08109653333335,230.51965535833335,61.0,107.0
896,230.08109653333335,230.578977325,66.0,90.0
897,230.33533353333334,230.70821446666667,54.0,112.0
898,230.58957053333336,230.98575652500003,57.0,102.0
899,230.84380753333335,231.15524785833335,54.0,79.0
900,231.35228153333335,231.50270509166668,54.0,112.0
901,230.08109653333335,231.54295928333335,42.0,92.0
902,231.09804453333336,231.60016260833336,61.0,122.0
903,231.09804453333336,231.672196425,66.0,117.0
904,231.60651853333334,231.73787431666668,57.0,99.0
905,232.11499253333335,232.23151782500003,52.0,112.0
906,232.11499253333335,232.23575510833336,56.0,127.0
907,232.11499253333335,232.26541609166668,59.0,102.0
908,232.87770353333335,233.2188048416667,59.0,92.0
909,232.62346653333336,233.22727940833335,52.0,92.0
910,232.11499253333335,233.52812652500003,40.0,93.0
911,233.38617753333335,233.5429570166667,52.0,95.0
912,232.36922953333337,233.58956713333336,47.0,86.0
913,233.13194053333336,234.0450750916667,68.0,127.0
914,233.89465153333336,234.0959224916667,64.0,107.0
915,233.64041453333334,234.17431223333335,59.0,102.0
916,234.40312553333337,234.77388782500003,51.0,82.0
917,234.65736253333336,235.1743111,54.0,92.0
918,234.91159953333334,235.218802575,51.0,92.0
919,235.42007353333335,235.54507339166668,51.0,97.0
920,234.14888853333335,235.59168350833335,39.0,93.0
921,235.16583653333336,235.62981905833337,58.0,112.0
922,235.16583653333336,236.12769985000003,63.0,122.0
923,235.92854753333336,236.17007268333336,58.0,99.0
924,235.67431053333337,236.21668280000003,54.0,112.0
925,236.43702153333336,236.8226143166667,49.0,97.0
926,236.94549553333334,237.2484612916667,49.0,92.0
927,236.69125853333335,237.25481721666668,52.0,90.0
928,236.18278453333335,237.583206675,37.0,95.0
929,237.45396953333335,237.67854555000002,49.0,67.0
930,237.19973253333336,237.73363023333334,56.0,71.0
931,237.19973253333336,237.7505793666667,61.0,112.0
932,237.70820653333337,237.77812170833334,52.0,95.0
933,238.21668053333335,241.92218480833336,54.0,93.0
934,238.21668053333335,242.12769305000003,58.0,72.0
935,238.21668053333335,242.1298116916667,61.0,39.0
936,238.21668053333335,242.16582860000003,42.0,96.0
937,242.28447253333334,242.64676025833336,56.0,88.0
938,242.28447253333334,242.79294653333335,59.0,66.0
939,242.28447253333334,242.82684480000003,63.0,95.0
940,242.79294653333335,243.40523397500002,56.0,77.0
941,243.30142053333336,243.91794525833336,63.0,100.0
942,242.28447253333334,244.08319930833335,44.0,97.0
943,243.55565753333335,244.10226708333334,51.0,66.0
944,244.06413153333335,244.21667373333335,59.0,52.0
945,244.06413153333335,244.33743630833337,63.0,96.0
946,243.80989453333336,244.40735148333334,56.0,66.0
947,245.08107953333337,245.37557072500002,49.0,66.0
948,244.82684253333335,245.37980800833336,54.0,90.0
949,244.31836853333334,245.67641784166668,42.0,92.0
950,245.58955353333334,245.68489240833335,49.0,78.0
951,245.33531653333335,246.22726467500001,58.0,88.0
952,245.33531653333335,246.3056544166667,61.0,107.0
953,245.84379053333336,246.3310781166667,54.0,77.0
954,246.86073853333335,247.17853478333336,52.0,72.0
955,246.60650153333336,247.320483775,49.0,82.0
956,247.11497553333336,247.93700850000002,56.0,100.0
957,246.35226453333337,248.23997425833335,37.0,83.0
958,247.87768653333336,248.7590414666667,52.0,71.0
959,247.62344953333334,248.76539739166668,49.0,64.0
960,248.13192353333335,249.0831936416667,56.0,96.0
961,247.11497553333336,249.14887153333336,61.0,112.0
962,248.89463453333335,249.43065087500003,49.0,90.0
963,249.14887153333336,249.5153965416667,52.0,70.0
964,249.40310853333335,249.7887013166667,56.0,122.0
965,249.40310853333335,249.7887013166667,61.0,127.0
966,248.64039753333336,249.8903961166667,37.0,66.0
967,249.65734553333337,249.93276895000002,49.0,112.0
968,249.91158253333336,249.989972275,56.0,85.0
969,249.91158253333336,249.9984468416667,52.0,92.0
970,249.91158253333336,250.03446375000001,61.0,90.0
971,250.42005653333337,250.56624280833336,59.0,88.0
972,250.67429353333335,250.8946322666667,59.0,21.0
973,250.42005653333337,250.96666608333337,63.0,107.0
974,251.18276753333336,251.37980120833336,56.0,55.0
975,250.92853053333334,251.5217502,51.0,93.0
976,251.43700453333335,251.5810721666667,59.0,95.0
977,251.69124153333337,251.80352954166668,51.0,89.0
978,250.42005653333337,251.81200410833335,44.0,102.0
979,251.69124153333337,251.9052243416667,59.0,48.0
980,251.43700453333335,251.90946162500003,63.0,122.0
981,251.94547853333336,252.02174963333334,56.0,95.0
982,252.45395253333336,252.85013852500003,54.0,99.0
983,252.45395253333336,253.0874263916667,58.0,107.0
984,252.45395253333336,253.11073145000003,61.0,97.0
985,252.96242653333334,253.39039215000003,54.0,69.0
986,252.45395253333336,253.78234085833336,42.0,95.0
987,253.72513753333337,253.80352727500002,49.0,96.0
988,253.47090053333335,253.90734071666668,58.0,122.0
989,253.47090053333335,253.9391203416667,61.0,107.0
990,253.97937453333336,254.04081514166668,54.0,85.0
991,254.48784853333336,255.1213223916667,61.0,97.0
992,254.48784853333336,255.18276300000002,56.0,99.0
993,254.48784853333336,255.2103053416667,52.0,93.0
994,254.99632253333337,255.53869480000003,49.0,86.0
995,255.25055953333336,256.05140608333335,56.0,93.0
996,255.25055953333336,256.10860940833334,61.0,107.0
997,255.75903353333337,256.63615118333337,49.0,58.0
998,256.01327053333335,256.9009813916667,52.0,63.0
999,256.26750753333334,257.11708284166673,56.0,65.0
1000,256.7759815333334,257.11920148333337,49.0,42.0
1001,256.26750753333334,257.13615061666667,61.0,86.0
1002,257.03021853333337,257.42852316666665,52.0,66.0
1003,257.28445553333336,257.5874212916667,49.0,112.0
1004,257.53869253333335,257.845895575,52.0,92.0
1005,254.48784853333336,257.9687767916667,37.0,96.0
1006,257.53869253333335,258.0980139333334,56.0,122.0
1007,257.79292953333334,258.1064885,49.0,102.0
1008,257.53869253333335,258.11284442500005,61.0,107.0
1009,258.0471665333333,258.138268125,52.0,89.0
1010,258.55564053333336,259.0238603416667,59.0,79.0
1011,258.55564053333336,259.1509788416667,63.0,93.0
1012,258.55564053333336,259.1594534083333,56.0,93.0
1013,259.0641145333334,259.6721646916667,51.0,86.0
1014,259.3183515333334,259.8903847833334,56.0,68.0
1015,259.82682553333336,260.0683506833334,51.0,75.0
1016,258.55564053333336,260.1403845,44.0,92.0
1017,259.5725885333334,260.61496023333336,63.0,122.0
1018,260.33529953333334,260.6191975166667,59.0,52.0
1019,260.08106253333335,260.706061825,56.0,82.0
1020,261.35224753333335,261.65733193333335,54.0,74.0
1021,261.09801053333337,261.67004378333337,49.0,55.0
1022,261.8607215333334,261.94334855833335,49.0,81.0
1023,260.58953653333333,261.94546720000005,42.0,96.0
1024,261.60648453333334,262.08741619166665,61.0,117.0
1025,261.60648453333334,262.1149585333334,58.0,102.0
1026,262.1149585333334,262.54292415000003,54.0,85.0
1027,262.62343253333336,269.71240755,44.0,41.0
1028,262.62343253333336,269.71452619166666,49.0,77.0
1029,262.62343253333336,269.7208821166667,37.0,53.0
1030,262.62343253333336,269.76537359166673,61.0,95.0
1031,262.62343253333336,269.7759668,56.0,96.0
1032,262.62343253333336,269.78656000833337,64.0,89.0
