,start,end,pitch,velocity
0,25.3418125625,25.623438458333336,64.0,50.0
1,25.5225350625,25.743920125000002,65.0,82.0
2,25.7032575625,26.130967479166667,69.0,78.0
3,26.064702562500003,26.787592562500002,67.0,83.0
4,26.787592562500002,27.149037562500002,64.0,75.0
5,27.149037562500002,30.9442100625,67.0,72.0
6,30.9442100625,31.144510833333335,64.0,78.0
7,31.1249325625,31.320715270833336,65.0,71.0
8,31.3056550625,31.6671000625,67.0,81.0
9,31.6671000625,32.388484041666665,64.0,81.0
10,32.389990062500004,32.9321575625,64.0,86.0
11,32.9321575625,37.811665062500005,71.0,93.0
12,37.811665062500005,38.1731100625,69.0,90.0
13,38.1731100625,38.534555062500004,71.0,68.0
14,38.534555062500004,39.14148145833334,72.0,89.0
15,38.8960000625,39.25593904166667,60.0,72.0
16,39.257445062500004,39.599311791666665,60.0,83.0
17,39.599311791666665,42.8718950625,62.0,85.0
18,42.8718950625,43.5947850625,69.0,99.0
19,43.5947850625,43.956230062500005,67.0,97.0
20,43.956230062500005,44.679120062500004,69.0,93.0
21,44.679120062500004,45.0405650625,67.0,92.0
22,45.0405650625,48.2935700625,64.0,82.0
23,48.2935700625,48.47278654166667,67.0,88.0
24,48.474292562500004,48.653509041666666,67.0,66.0
25,48.6550150625,49.0164600625,67.0,88.0
26,49.0164600625,49.7393500625,65.0,90.0
27,49.7393500625,50.100795062500005,64.0,92.0
28,50.100795062500005,54.07518404166667,67.0,97.0
29,54.0766900625,54.25590654166667,67.0,89.0
30,54.2574125625,54.43662904166667,67.0,79.0
31,54.4381350625,54.7995800625,67.0,83.0
32,54.7995800625,55.522470062500005,65.0,79.0
33,55.522470062500005,55.8839150625,64.0,93.0
34,55.8839150625,60.9441450625,71.0,95.0
35,60.9441450625,61.3055900625,69.0,93.0
36,61.3055900625,61.667035062500005,71.0,92.0
37,61.667035062500005,62.1098051875,72.0,107.0
38,62.0284800625,62.388419041666666,60.0,72.0
39,62.389925062500005,62.7513700625,60.0,78.0
40,62.7513700625,66.0043750625,62.0,88.0
41,66.0043750625,66.7272650625,64.0,92.0
42,66.7272650625,67.0887100625,62.0,89.0
43,67.0887100625,67.8116000625,64.0,97.0
44,67.8116000625,72.1489400625,60.0,93.0
45,72.1489400625,72.5103850625,64.0,92.0
46,72.5103850625,72.8718300625,69.0,107.0
47,72.8718300625,73.2332750625,71.0,127.0
48,73.2332750625,73.9561650625,72.0,127.0
49,73.9561650625,74.31761006250001,64.0,95.0
50,74.31761006250001,75.03899404166667,72.0,112.0
51,75.0405000625,75.76188404166668,72.0,122.0
52,75.76339006250001,76.1248350625,72.0,102.0
53,76.1248350625,76.6670025625,71.0,100.0
54,76.6670025625,77.20917006250001,69.0,97.0
55,77.20917006250001,78.65344404166667,67.0,97.0
56,78.6549500625,79.01639506250001,67.0,97.0
57,79.01639506250001,79.3778400625,69.0,107.0
58,79.3778400625,79.7392850625,67.0,93.0
59,79.7392850625,80.1007300625,69.0,107.0
60,80.1007300625,80.8236200625,72.0,127.0
61,80.8236200625,81.5465100625,60.0,92.0
62,81.5465100625,81.90644904166668,67.0,97.0
63,81.90795506250001,82.4681948125,67.0,107.0
64,82.4501225625,83.71367404166666,64.0,89.0
65,83.7151800625,84.0766250625,64.0,97.0
66,84.0766250625,84.4380700625,69.0,102.0
67,84.4380700625,84.7995150625,71.0,99.0
68,84.7995150625,85.5224050625,72.0,100.0
69,85.5224050625,85.8838500625,64.0,107.0
70,85.8838500625,86.60674006250001,72.0,127.0
71,86.60674006250001,87.2392688125,64.0,99.0
72,87.2392688125,87.6910750625,72.0,127.0
73,87.6910750625,88.14288131250001,71.0,117.0
74,88.05252006250001,88.7754100625,69.0,96.0
75,88.7754100625,90.21968404166667,67.0,100.0
76,90.2211900625,90.40040654166667,67.0,93.0
77,90.4019125625,90.5826350625,67.0,95.0
78,90.5826350625,90.9440800625,69.0,107.0
79,90.9440800625,91.30401904166666,72.0,107.0
80,91.30552506250001,91.66546404166667,72.0,102.0
81,91.6669700625,92.38835404166667,72.0,122.0
82,92.3898600625,92.74979904166668,72.0,122.0
83,92.75130506250001,93.1127500625,72.0,112.0
84,93.1127500625,93.6549175625,69.0,107.0
85,93.6549175625,94.5585300625,74.0,127.0
86,94.5585300625,94.73774654166667,67.0,102.0
87,94.7392525625,94.9199750625,67.0,90.0
88,94.9199750625,95.4621425625,72.0,122.0
89,95.4621425625,95.89738258333334,74.0,127.0
90,95.82358756250001,96.3657550625,72.0,107.0
91,96.3657550625,97.45009006250001,77.0,127.0
92,97.45009006250001,98.20611252083334,76.0,127.0
93,98.1729800625,100.34014404166668,67.0,99.0
94,100.34165006250001,100.52086654166666,67.0,102.0
95,100.52237256250001,100.7030950625,67.0,90.0
96,100.7030950625,101.2452625625,71.0,122.0
97,101.2452625625,101.78592404166668,74.0,122.0
98,101.78743006250001,102.1488750625,74.0,127.0
99,102.1488750625,103.038933375,72.0,127.0
100,102.8717650625,103.23622210416667,67.0,117.0
101,103.2332100625,106.1247700625,64.0,93.0
102,106.1247700625,106.48621506250001,60.0,107.0
103,106.48621506250001,106.8476600625,71.0,122.0
104,106.8476600625,107.2091050625,72.0,117.0
105,107.2091050625,107.5705500625,71.0,122.0
106,107.5705500625,107.93199506250001,67.0,102.0
107,107.93199506250001,108.6548850625,69.0,122.0
108,108.6548850625,109.0163300625,76.0,127.0
109,109.0163300625,110.4621100625,74.0,127.0
110,110.4621100625,110.8235550625,72.0,102.0
111,110.8235550625,111.5464450625,67.0,102.0
112,111.5464450625,111.9078900625,76.0,127.0
113,111.9078900625,113.3536700625,74.0,127.0
114,113.3536700625,113.7151150625,72.0,100.0
115,113.7151150625,114.7994500625,69.0,112.0
116,114.7994500625,115.1608950625,76.0,127.0
117,115.1608950625,115.88378506250001,74.0,127.0
118,115.88378506250001,116.2452300625,72.0,127.0
119,116.2452300625,117.6910100625,74.0,127.0
120,117.6910100625,117.87022654166667,67.0,117.0
121,117.8717325625,118.0524550625,67.0,85.0
122,118.0524550625,118.5946225625,72.0,100.0
123,118.5946225625,118.95606756250001,74.0,127.0
124,118.95606756250001,119.3175125625,72.0,127.0
125,119.3175125625,120.40184756250001,77.0,122.0
126,120.40184756250001,121.1247375625,76.0,127.0
127,121.1247375625,123.47262404166668,67.0,86.0
128,123.47413006250001,123.65334654166666,67.0,96.0
129,123.65485256250001,123.8355750625,67.0,88.0
130,123.8355750625,124.3777425625,71.0,117.0
131,124.3777425625,124.91840404166668,74.0,102.0
132,124.91991006250001,125.2813550625,74.0,117.0
133,125.2813550625,126.0042450625,72.0,127.0
134,126.0042450625,126.37322016666667,67.0,97.0
135,126.36569006250001,129.2572500625,64.0,86.0
136,129.2572500625,129.6186950625,60.0,93.0
137,129.6186950625,129.9801400625,71.0,102.0
138,129.9801400625,130.3415850625,72.0,100.0
139,130.3415850625,130.7030300625,71.0,109.0
140,130.7030300625,131.0644750625,67.0,93.0
141,131.0644750625,131.70905197916667,69.0,107.0
142,131.70905197916667,132.08254514583334,76.0,97.0
143,132.08254514583334,133.5945900625,74.0,97.0
144,133.5945900625,133.9560350625,72.0,102.0
145,133.9560350625,134.4982025625,67.0,100.0
146,134.4982025625,135.04037006250002,76.0,117.0
147,135.04037006250002,136.4861500625,74.0,122.0
148,136.4861500625,136.8475950625,72.0,112.0
149,136.8475950625,137.93193006250002,69.0,107.0
150,137.93193006250002,138.29337506250002,76.0,99.0
151,138.29337506250002,139.0162650625,74.0,100.0
152,139.0162650625,139.3777100625,72.0,117.0
153,139.3777100625,141.135236375,74.0,127.0
154,140.8234900625,141.18493506250002,67.0,95.0
155,141.18493506250002,141.58101854166668,76.0,112.0
156,141.5463800625,142.26776404166668,74.0,107.0
157,142.2692700625,142.8114375625,74.0,107.0
158,142.8114375625,146.02378000000002,72.0,97.0
159,172.6306500625,172.80986654166668,67.0,88.0
160,172.8113725625,172.99058904166668,67.0,66.0
161,172.9920950625,173.3535400625,67.0,88.0
162,173.3535400625,174.0764300625,65.0,90.0
163,174.0764300625,174.4378750625,64.0,92.0
164,174.4378750625,178.41226404166667,67.0,97.0
165,178.4137700625,178.59298654166668,67.0,89.0
166,178.5944925625,178.77370904166668,67.0,79.0
167,178.7752150625,179.1366600625,67.0,83.0
168,179.1366600625,179.8595500625,65.0,79.0
169,179.8595500625,180.2209950625,64.0,93.0
170,180.2209950625,185.2812250625,71.0,95.0
171,185.2812250625,185.6426700625,69.0,93.0
172,185.6426700625,186.0041150625,71.0,92.0
173,186.0041150625,186.44688518750002,72.0,107.0
174,186.3655600625,186.72549904166667,60.0,72.0
175,186.7270050625,187.08845006250002,60.0,78.0
176,187.08845006250002,190.34145506250002,60.0,88.0
177,190.34145506250002,191.0643450625,64.0,92.0
178,191.0643450625,191.4257900625,62.0,89.0
179,191.4257900625,192.1486800625,64.0,97.0
180,192.1486800625,196.48602006250002,60.0,93.0
181,196.48602006250002,196.84746506250002,64.0,92.0
182,196.84746506250002,197.2089100625,69.0,107.0
183,197.2089100625,197.5703550625,71.0,127.0
184,197.5703550625,198.2932450625,72.0,127.0
185,198.2932450625,198.6546900625,64.0,95.0
186,198.6546900625,199.37607404166667,72.0,112.0
187,199.37758006250002,200.09896404166668,72.0,122.0
188,200.1004700625,200.4619150625,72.0,102.0
189,200.4619150625,201.0040825625,71.0,100.0
190,201.0040825625,201.5462500625,69.0,97.0
191,201.5462500625,202.99052404166667,67.0,97.0
192,202.99203006250002,203.3534750625,67.0,97.0
193,203.3534750625,203.7149200625,69.0,107.0
194,203.7149200625,204.0763650625,67.0,93.0
195,204.0763650625,204.4378100625,69.0,107.0
196,204.4378100625,205.1607000625,72.0,127.0
197,205.1607000625,205.88359006250002,60.0,92.0
198,205.88359006250002,206.24352904166668,67.0,97.0
199,206.2450350625,206.80527481250002,67.0,107.0
200,206.7872025625,208.05075404166666,64.0,89.0
201,208.0522600625,208.41370506250001,64.0,97.0
202,208.41370506250001,208.77515006250002,69.0,102.0
203,208.77515006250002,209.13659506250002,71.0,99.0
204,209.13659506250002,209.8594850625,72.0,100.0
205,209.8594850625,210.2209300625,64.0,107.0
206,210.2209300625,210.9438200625,72.0,127.0
207,210.9438200625,211.57634881250002,64.0,99.0
208,211.57634881250002,212.02815506250002,72.0,127.0
209,212.02815506250002,212.4799613125,71.0,117.0
210,212.3896000625,213.1124900625,69.0,96.0
211,213.1124900625,214.55676404166667,67.0,100.0
212,214.55827006250001,214.73748654166667,67.0,93.0
213,214.73899256250002,214.91971506250002,67.0,95.0
214,214.91971506250002,215.28116006250002,69.0,107.0
215,215.28116006250002,215.64109904166668,72.0,107.0
216,215.6426050625,216.00254404166668,72.0,102.0
217,216.0040500625,216.7254340416667,72.0,122.0
218,216.7269400625,217.08687904166666,72.0,122.0
219,217.0883850625,217.4498300625,72.0,112.0
220,217.4498300625,217.99199756250002,69.0,107.0
221,217.99199756250002,218.8956100625,74.0,127.0
222,218.8956100625,219.07482654166668,67.0,102.0
223,219.0763325625,219.2570550625,67.0,90.0
224,219.2570550625,219.7992225625,72.0,122.0
225,219.7992225625,220.23446258333334,74.0,127.0
226,220.1606675625,220.70283506250001,72.0,107.0
227,220.70283506250001,221.7871700625,77.0,127.0
228,221.7871700625,222.54319252083334,76.0,127.0
229,222.5100600625,224.67722404166668,67.0,99.0
230,224.6787300625,224.85794654166668,67.0,102.0
231,224.8594525625,225.0401750625,67.0,90.0
232,225.0401750625,225.5823425625,71.0,122.0
233,225.5823425625,226.12300404166666,74.0,122.0
234,226.1245100625,226.4859550625,74.0,127.0
235,226.4859550625,227.376013375,72.0,127.0
236,227.20884506250002,227.5733021041667,67.0,117.0
237,227.57029006250002,230.46185006250002,64.0,93.0
238,230.46185006250002,230.8232950625,60.0,107.0
239,230.8232950625,231.1847400625,71.0,122.0
240,231.1847400625,231.5461850625,72.0,117.0
241,231.5461850625,231.9076300625,71.0,122.0
242,231.9076300625,232.2690750625,67.0,102.0
243,232.2690750625,232.99196506250001,69.0,122.0
244,232.99196506250001,233.35341006250002,76.0,127.0
245,233.35341006250002,234.7991900625,74.0,127.0
246,234.7991900625,235.1606350625,72.0,102.0
247,235.1606350625,235.8835250625,67.0,102.0
248,235.8835250625,236.24497006250002,76.0,127.0
249,236.24497006250002,237.6907500625,74.0,127.0
250,237.6907500625,238.0521950625,72.0,100.0
251,238.0521950625,239.13653006250001,69.0,112.0
252,239.13653006250001,239.49797506250002,76.0,127.0
253,239.49797506250002,240.2208650625,74.0,127.0
254,240.2208650625,240.5823100625,72.0,127.0
255,240.5823100625,242.0280900625,74.0,127.0
256,242.0280900625,242.20730654166667,67.0,117.0
257,242.20881256250001,242.38953506250002,67.0,85.0
258,242.38953506250002,242.93170256250002,72.0,100.0
259,242.93170256250002,243.2931475625,74.0,127.0
260,243.2931475625,243.6545925625,72.0,127.0
261,243.6545925625,244.7389275625,77.0,122.0
262,244.7389275625,245.46181756250002,76.0,127.0
263,245.46181756250002,247.80970404166666,67.0,86.0
264,247.8112100625,247.99042654166666,67.0,96.0
265,247.9919325625,248.1726550625,67.0,88.0
266,248.1726550625,248.71482256250002,71.0,117.0
267,248.71482256250002,249.25548404166668,74.0,102.0
268,249.25699006250002,249.6184350625,74.0,117.0
269,249.6184350625,250.3413250625,72.0,127.0
270,250.3413250625,250.71030016666668,67.0,97.0
271,250.7027700625,253.5943300625,64.0,86.0
272,253.5943300625,253.9557750625,60.0,93.0
273,253.9557750625,254.3172200625,71.0,102.0
274,254.3172200625,254.67866506250002,72.0,100.0
275,254.67866506250002,255.04011006250002,71.0,122.0
276,255.04011006250002,255.40155506250002,67.0,93.0
277,255.40155506250002,256.13046914583333,69.0,127.0
278,256.08980658333337,256.47835995833333,76.0,112.0
279,256.47835995833333,257.9316700625,74.0,103.0
280,257.9316700625,258.2931150625,72.0,102.0
281,258.2931150625,258.8352825625,69.0,100.0
282,258.8352825625,259.37745006250003,76.0,117.0
283,259.37745006250003,260.8232300625,74.0,122.0
284,260.8232300625,261.1846750625,72.0,112.0
285,261.1846750625,262.2690100625,69.0,107.0
286,262.2690100625,262.6304550625,76.0,99.0
287,262.6304550625,263.3533450625,74.0,100.0
288,263.3533450625,263.7147900625,72.0,117.0
289,263.7147900625,265.1605700625,74.0,127.0
290,265.1605700625,265.52201506250003,67.0,95.0
291,265.52201506250003,266.19219433333336,76.0,112.0
292,266.19219433333336,267.03707202083336,74.0,112.0
293,267.03857804166665,267.5611672708333,74.0,127.0
294,267.52502277083335,268.21628633333336,72.0,92.0
295,268.2177923541667,271.80664,72.0,127.0
