,start,end,pitch,velocity
0,0.9442750625,1.6280085208333335,65.0,95.0
1,1.6671650625,2.076802729166667,64.0,71.0
2,2.0286100625,2.486440395833333,52.0,60.0
3,1.6671650625,2.5858377708333333,48.0,58.0
4,2.5707775625,2.5858377708333333,48.0,48.0
5,2.0286100625,2.8222830416666667,55.0,82.0
6,2.3900550625,2.8222830416666667,55.0,58.0
7,2.7515000625,3.135535375,65.0,90.0
8,3.1129450625,3.4804141458333335,64.0,69.0
9,3.1129450625,3.56023325,52.0,57.0
10,0.9442750625,3.5752934583333333,36.0,62.0
11,3.4743900625,3.8328230208333336,55.0,38.0
12,3.4743900625,3.8328230208333336,55.0,72.0
13,1.3057200625,3.865955479166667,43.0,42.0
14,3.8358350625,4.609929770833333,65.0,88.0
15,4.1972800625,4.6626405,52.0,65.0
16,4.5587250625,4.980410895833334,64.0,73.0
17,3.8358350625,5.141555125,36.0,72.0
18,4.9201700625,5.2635428125,52.0,73.0
19,4.5587250625,5.3147475208333335,55.0,93.0
20,4.9201700625,5.3147475208333335,55.0,72.0
21,5.6430600625,6.09034825,52.0,52.0
22,5.2816150625,6.114444583333333,47.0,93.0
23,6.0045050625,6.728901083333334,55.0,86.0
24,7.811730062500001,8.197271395833333,60.0,59.0
25,7.4502850625,8.25901825,57.0,76.0
26,7.0888400625,8.418656458333334,52.0,72.0
27,8.5346200625,9.105401958333333,52.0,57.0
28,6.7273950625,9.129498291666668,45.0,70.0
29,9.2575100625,9.6189550625,57.0,59.0
30,8.8960650625,9.6189550625,60.0,88.0
31,8.1731750625,9.6189550625,64.0,73.0
32,9.799677562500001,10.421664166666668,52.0,38.0
33,10.7032900625,11.192746833333334,52.0,63.0
34,10.341845062500001,11.2002769375,57.0,75.0
35,11.4261800625,11.6159386875,52.0,95.0
36,9.6189550625,11.680697583333334,45.0,66.0
37,11.0647350625,11.900576625000001,64.0,100.0
38,11.7876250625,12.236419270833334,60.0,112.0
39,12.1490700625,12.578286,55.0,95.0
40,13.233405062500001,13.725873875000001,53.0,97.0
41,13.5948500625,14.075270708333333,57.0,92.0
42,12.871960062500001,14.170150020833335,48.0,72.0
43,13.9562950625,14.759004166666667,65.0,107.0
44,12.5105150625,15.209304395833334,41.0,75.0
45,14.6791850625,15.326774020833334,60.0,112.0
46,15.0406300625,15.387014854166667,57.0,89.0
47,14.3177400625,15.4020750625,48.0,82.0
48,16.1249650625,17.0105053125,53.0,89.0
49,16.4864100625,17.021047458333335,56.0,95.0
50,15.763520062500001,17.39303460416667,48.0,71.0
51,15.4020750625,17.450263395833336,41.0,92.0
52,17.570745062500002,18.28761097916667,60.0,36.0
53,16.8478550625,18.317731395833334,65.0,75.0
54,17.209300062500002,18.328273541666668,56.0,63.0
55,19.0165250625,19.93369175,50.0,99.0
56,19.3779700625,20.234895916666666,62.0,92.0
57,18.6550800625,20.542124166666667,45.0,76.0
58,18.2936350625,20.549654270833333,38.0,73.0
59,20.1008600625,20.72284666666667,50.0,78.0
60,20.4623050625,21.16260475,65.0,99.0
61,20.8237500625,21.21079741666667,62.0,76.0
62,19.7394150625,21.21079741666667,69.0,102.0
63,22.2695300625,22.757480812500003,59.0,86.0
64,21.9080850625,22.8297698125,55.0,97.0
65,22.992420062500003,23.304166375,55.0,83.0
66,22.6309750625,23.340310875,62.0,99.0
67,23.1731425625,23.448744375,59.0,1.0
68,21.1851950625,23.799647229166666,43.0,82.0
69,21.5466400625,24.207778875000002,50.0,65.0
70,24.076755062500002,26.39753316666667,43.0,77.0
71,23.715310062500002,26.635484458333334,62.0,66.0
72,23.353865062500002,26.653556708333333,67.0,78.0
73,24.076755062500002,26.719821625,59.0,93.0
74,27.6912050625,28.136987229166667,60.0,55.0
75,28.0526500625,28.465299770833333,64.0,57.0
76,27.3297600625,28.6309620625,55.0,59.0
77,26.9683150625,29.667104395833334,48.0,75.0
78,28.7755400625,29.893007520833333,55.0,54.0
79,28.4140950625,30.127946770833333,65.0,81.0
80,29.498430062500002,30.14752504166667,60.0,61.0
81,29.136985062500003,30.606861395833334,64.0,79.0
82,30.582765062500002,31.277040666666668,60.0,68.0
83,30.9442100625,31.3869801875,64.0,43.0
84,30.221320062500002,31.429148770833333,55.0,59.0
85,29.859875062500002,31.519510020833334,48.0,81.0
86,31.3056550625,31.876436958333336,65.0,97.0
87,31.6671000625,32.761977208333334,64.0,59.0
88,32.0285450625,32.820712020833334,60.0,62.0
89,33.4743250625,34.27703416666667,52.0,52.0
90,33.8357700625,34.284564270833336,55.0,49.0
91,34.5586600625,34.77251502083333,52.0,48.0
92,32.7514350625,35.340284875,40.0,68.0
93,33.112880062500004,35.656549250000005,47.0,54.0
94,35.2815500625,35.7243201875,55.0,53.0
95,34.9201050625,35.7333563125,59.0,65.0
96,34.1972150625,35.74088641666667,64.0,92.0
97,36.3658850625,37.10835333333333,52.0,64.0
98,36.7273300625,37.21076275,64.0,57.0
99,36.0044400625,37.46377425,47.0,44.0
100,35.6429950625,37.60534020833334,40.0,63.0
101,37.4502200625,37.85985772916667,67.0,68.0
102,37.0887750625,38.542085166666666,71.0,107.0
103,37.811665062500005,38.56919354166667,64.0,68.0
104,38.1731100625,38.572205583333336,67.0,61.0
105,39.257445062500004,40.20774420833334,50.0,59.0
106,39.6188900625,40.770996000000004,65.0,63.0
107,38.534555062500004,40.93214022916667,38.0,70.0
108,38.8960000625,40.980332895833335,45.0,48.0
109,40.3417800625,41.28756114583334,50.0,55.0
110,39.980335062500004,41.48334385416667,74.0,93.0
111,40.7032250625,41.50442814583334,69.0,61.0
112,41.0646700625,41.569187041666666,65.0,57.0
113,42.1490050625,43.037557354166665,55.0,82.0
114,43.052617562500004,43.292074875000004,55.0,53.0
115,42.5104500625,43.388460208333335,62.0,62.0
116,41.4261150625,43.66858008333333,43.0,72.0
117,41.7875600625,43.68364029166667,50.0,61.0
118,43.956230062500005,44.4983975625,62.0,42.0
119,43.5947850625,44.530024000000004,67.0,75.0
120,42.8718950625,44.551108291666665,71.0,83.0
121,45.402010062500004,45.858334375,60.0,71.0
122,45.0405650625,45.917069187500005,48.0,65.0
123,46.124900062500004,46.61134479166667,48.0,64.0
124,44.3176750625,47.060139,36.0,69.0
125,44.679120062500004,47.27851202083333,43.0,58.0
126,46.4863450625,47.287548145833334,65.0,62.0
127,45.7634550625,47.30562039583334,67.0,93.0
128,46.8477900625,47.5435716875,64.0,59.0
129,47.2092350625,49.13543570833333,36.0,69.0
130,51.1851300625,51.68964704166667,60.0,63.0
131,50.823685062500005,51.749887875,48.0,82.0
132,51.9080200625,52.269465062500004,48.0,56.0
133,51.546575062500004,52.75892183333333,67.0,99.0
134,50.100795062500005,52.78603020833334,36.0,78.0
135,50.4622400625,53.016451395833336,43.0,54.0
136,52.6309100625,53.98934085416667,64.0,55.0
137,52.269465062500004,54.01795525,65.0,70.0
138,53.7152450625,54.603797354166666,48.0,72.0
139,52.9923550625,55.1068083125,36.0,67.0
140,53.3538000625,55.1519889375,43.0,53.0
141,54.0766900625,55.207711708333335,60.0,75.0
142,54.7995800625,55.48030147916667,48.0,56.0
143,54.4381350625,55.93511977083334,65.0,93.0
144,55.1610250625,55.99536060416667,64.0,77.0
145,55.522470062500005,56.00289070833333,60.0,45.0
146,56.6068050625,57.951681666666666,52.0,71.0
147,55.8839150625,58.57366827083334,40.0,72.0
148,56.245360062500005,58.915535000000006,47.0,42.0
149,56.968250062500005,59.26041377083334,55.0,47.0
150,58.414030062500004,59.362823187500005,59.0,58.0
151,57.3296950625,59.466738625000005,64.0,90.0
152,59.6790875625,59.883906395833336,55.0,27.0
153,59.4983650625,60.62637466666667,52.0,52.0
154,58.7754750625,60.898964437500005,40.0,71.0
155,59.1369200625,60.921554750000006,47.0,52.0
156,60.9441450625,61.642938729166666,59.0,72.0
157,59.8598100625,61.703179562500004,64.0,88.0
158,62.389925062500005,63.344742270833336,50.0,66.0
159,61.667035062500005,63.85980139583334,38.0,75.0
160,62.0284800625,63.92305427083333,45.0,61.0
161,63.4742600625,64.111306875,50.0,38.0
162,63.835705062500004,64.67305264583334,65.0,97.0
163,62.7513700625,64.70166704166667,57.0,71.0
164,65.2814850625,66.23479625,55.0,57.0
165,64.92004006250001,66.48479570833334,50.0,60.0
166,64.5585950625,66.53901245833333,43.0,67.0
167,65.6429300625,67.4501550625,59.0,72.0
168,66.7272650625,67.4501550625,62.0,73.0
169,66.0043750625,67.4501550625,67.0,96.0
170,68.17304506250001,69.04352510416668,48.0,92.0
171,69.2573800625,69.60376485416667,48.0,64.0
172,67.4501550625,70.1519564375,36.0,92.0
173,67.8116000625,70.38388364583334,43.0,62.0
174,69.9802700625,70.49984725,59.0,23.0
175,69.61882506250001,70.65948545833334,60.0,93.0
176,68.5344900625,70.87183439583333,55.0,74.0
177,68.8959350625,70.93056920833334,64.0,100.0
178,70.7031600625,71.358279125,43.0,65.0
179,70.3417150625,71.42755608333334,36.0,75.0
180,71.06460506250001,71.74532647916666,48.0,100.0
181,71.4260500625,71.86430212500001,55.0,69.0
182,71.4260500625,72.442614125,64.0,93.0
183,71.7874950625,72.60375835416667,47.0,122.0
184,72.5103850625,73.16701014583333,60.0,96.0
185,72.8718300625,73.17454025,59.0,85.0
186,73.9561650625,74.34020037500001,57.0,107.0
187,74.31761006250001,74.77242835416666,60.0,92.0
188,73.5947200625,74.8868859375,52.0,85.0
189,74.6790550625,75.45314977083333,64.0,76.0
190,75.0405000625,75.80706466666668,52.0,95.0
191,73.2332750625,75.96369083333333,45.0,112.0
192,74.6790550625,76.21369029166667,69.0,99.0
193,75.4019450625,76.21820835416666,60.0,96.0
194,75.76339006250001,76.24682275,64.0,97.0
195,76.8477250625,77.25435068750001,55.0,97.0
196,77.20917006250001,77.56910904166666,59.0,102.0
197,77.5706150625,77.59922945833334,61.0,93.0
198,76.4862800625,77.73928939583334,50.0,82.0
199,77.9320600625,78.39139641666667,50.0,85.0
200,77.5706150625,78.47272154166667,59.0,70.0
201,76.1248350625,78.749829375,43.0,92.0
202,77.5706150625,78.96519035416667,62.0,127.0
203,78.2935050625,78.97422647916667,55.0,81.0
204,78.6549500625,78.99982883333334,59.0,64.0
205,79.7392850625,80.14289864583334,53.0,92.0
206,79.3778400625,80.6428975625,48.0,56.0
207,80.1007300625,81.09169177083334,57.0,75.0
208,80.8236200625,81.15042658333334,48.0,53.0
209,79.01639506250001,81.19108914583333,41.0,97.0
210,81.1850650625,81.85976239583334,60.0,122.0
211,81.5465100625,81.86277443750001,57.0,83.0
212,80.46217506250001,81.89289485416667,65.0,127.0
213,82.6308450625,83.52391541666667,52.0,95.0
214,82.9922900625,83.87481827083333,59.0,75.0
215,83.7151800625,83.96216747916667,52.0,78.0
216,82.2694000625,84.2392753125,47.0,68.0
217,81.90795506250001,84.29499808333334,40.0,93.0
218,84.4380700625,84.7995150625,59.0,78.0
219,84.0766250625,84.7995150625,64.0,99.0
220,83.35373506250001,84.7995150625,67.0,117.0
221,85.5224050625,85.91848854166668,57.0,100.0
222,85.8838500625,86.32812620833333,60.0,85.0
223,85.16096006250001,86.40643929166667,52.0,96.0
224,86.60674006250001,86.78595654166666,52.0,79.0
225,84.7995150625,86.84770339583334,45.0,93.0
226,86.2452950625,86.96969108333333,64.0,93.0
227,86.9681850625,87.6730028125,60.0,96.0
228,86.2452950625,87.749809875,69.0,100.0
229,87.3296300625,87.75733997916667,64.0,93.0
230,88.4139650625,88.81757864583334,55.0,93.0
231,88.7754100625,89.19408385416666,59.0,83.0
232,88.05252006250001,89.29498725,50.0,56.0
233,89.49830006250001,89.68504664583334,50.0,86.0
234,87.6910750625,89.7784199375,43.0,95.0
235,89.1368550625,89.87932333333333,62.0,99.0
236,89.1368550625,90.25131047916668,67.0,102.0
237,89.8597450625,90.48474370833334,59.0,93.0
238,91.12480256250001,91.52992216666667,53.0,93.0
239,91.6669700625,92.20311347916667,57.0,86.0
240,90.9440800625,92.21516164583333,48.0,65.0
241,90.5826350625,93.25281,41.0,85.0
242,92.3898600625,93.41395422916666,48.0,73.0
243,92.75130506250001,93.46365291666667,60.0,107.0
244,92.0284150625,93.48172516666666,65.0,102.0
245,93.1127500625,93.49527935416667,57.0,96.0
246,94.0163625625,94.34768714583333,55.0,100.0
247,93.8356400625,95.09919154166667,50.0,61.0
248,94.5585300625,95.10672164583333,59.0,97.0
249,95.2814200625,95.62780485416667,50.0,107.0
250,94.9199750625,95.68955170833334,67.0,127.0
251,93.4741950625,95.76485275,43.0,93.0
252,95.64286506250001,95.83111766666667,62.0,127.0
253,95.82358756250001,96.11424958333333,59.0,93.0
254,96.0043100625,96.388345375,62.0,107.0
255,96.9079225625,97.23171704166667,48.0,85.0
256,97.45009006250001,97.77087250000001,60.0,85.0
257,97.0886450625,97.92749866666666,55.0,85.0
258,98.1729800625,98.39587114583334,48.0,73.0
259,96.3657550625,98.593159875,36.0,93.0
260,96.7272000625,98.6383405,43.0,66.0
261,98.89587006250001,99.01484570833334,55.0,90.0
262,98.5344250625,99.01484570833334,60.0,117.0
263,97.8115350625,99.01484570833334,64.0,112.0
264,99.7994825625,100.057012125,59.0,77.0
265,99.6187600625,100.18954195833334,52.0,82.0
266,99.9802050625,100.761829875,64.0,85.0
267,100.7030950625,100.8296008125,59.0,14.0
268,100.34165006250001,101.01333535416667,52.0,63.0
269,101.0645400625,101.37026229166668,52.0,61.0
270,99.2573150625,101.5976714375,40.0,95.0
271,99.4380375625,101.638334,47.0,72.0
272,101.78743006250001,102.16393527083333,59.0,82.0
273,101.4259850625,102.20610385416667,64.0,97.0
274,100.7030950625,102.23170620833334,67.0,93.0
275,102.5103200625,102.84917475,57.0,83.0
276,102.6910425625,102.98019856250001,60.0,89.0
277,102.3295975625,103.04043939583333,52.0,71.0
278,102.8717650625,103.57507679166667,64.0,117.0
279,103.2332100625,103.75278725,52.0,88.0
280,103.9561000625,104.31905108333333,52.0,86.0
281,102.1488750625,104.54646022916667,45.0,75.0
282,104.4982675625,104.57959268750001,52.0,50.0
283,103.59465506250001,105.008808625,69.0,117.0
284,104.6789900625,105.02085679166667,60.0,85.0
285,104.3175450625,105.0765795625,64.0,107.0
286,105.5826025625,105.84766222916667,59.0,83.0
287,105.4018800625,105.8807946875,55.0,83.0
288,106.1247700625,106.35820329166667,55.0,89.0
289,105.7633250625,106.4229621875,62.0,102.0
290,105.2211575625,106.70458808333333,50.0,77.0
291,106.8476600625,107.1819966875,50.0,48.0
292,105.04043506250001,107.37928541666668,43.0,67.0
293,107.3898275625,107.43199614583334,50.0,38.0
294,107.2091050625,107.60368252083333,62.0,100.0
295,107.5705500625,107.80247727083334,59.0,97.0
296,107.7512725625,107.93199506250001,62.0,102.0
297,106.48621506250001,107.96211547916667,67.0,122.0
298,108.29344006250001,108.84313766666666,53.0,93.0
299,108.4741625625,109.16542612500001,60.0,92.0
300,109.0163300625,109.42295568750001,53.0,79.0
301,108.11271756250001,109.62928054166667,48.0,81.0
302,109.3777750625,109.97114727083334,65.0,122.0
303,109.3777750625,109.97717135416667,69.0,127.0
304,109.73922006250001,110.17596610416668,48.0,90.0
305,107.93199506250001,110.38530300000001,41.0,75.0
306,110.1006650625,110.7693383125,65.0,122.0
307,110.1006650625,110.79494066666668,69.0,122.0
308,111.18500006250001,111.731685625,52.0,93.0
309,111.5464450625,112.17746779166667,59.0,102.0
310,111.36572256250001,112.28891333333334,55.0,82.0
311,112.2693350625,112.28891333333334,55.0,72.0
312,111.9078900625,112.44553950000001,52.0,75.0
313,112.63078006250001,112.7843941875,52.0,82.0
314,112.2693350625,112.81300858333334,64.0,95.0
315,112.2693350625,112.81903266666667,59.0,88.0
316,111.00427756250001,113.03891170833333,47.0,95.0
317,110.8235550625,113.27234493750001,40.0,82.0
318,113.1729475625,113.28288708333334,47.0,79.0
319,113.3536700625,113.63981402083334,59.0,100.0
320,112.9922250625,113.7151150625,64.0,122.0
321,113.5343925625,113.72264516666667,55.0,93.0
322,114.07656006250001,114.55999275,50.0,81.0
323,114.25728256250001,114.60667939583334,57.0,88.0
324,114.6187275625,114.84312466666667,50.0,38.0
325,114.7994500625,115.73167695833334,62.0,97.0
326,114.43800506250001,115.75577329166667,65.0,112.0
327,115.1608950625,115.797941875,57.0,102.0
328,115.5223400625,115.90938741666668,50.0,51.0
329,113.7151150625,116.12926645833333,45.0,76.0
330,113.7151150625,116.26029027083334,38.0,89.0
331,116.0645075625,116.47414522916667,50.0,78.0
332,116.2452300625,116.56751852083333,57.0,99.0
333,115.88378506250001,116.6337834375,62.0,102.0
334,115.88378506250001,116.66691589583334,65.0,102.0
335,117.14884256250001,117.49070929166668,55.0,83.0
336,117.6910100625,117.90335900000001,55.0,89.0
337,117.32956506250001,117.96058779166667,59.0,112.0
338,116.9681200625,118.29040635416668,50.0,69.0
339,118.0524550625,118.55546602083334,62.0,122.0
340,118.0524550625,118.59311654166667,67.0,117.0
341,116.6066750625,118.91088693750001,43.0,90.0
342,118.77534506250001,119.40937983333333,62.0,127.0
343,118.77534506250001,119.41992197916667,67.0,127.0
344,119.8596800625,120.153354125,55.0,78.0
345,119.6789575625,120.22865516666667,48.0,79.0
346,120.0404025625,120.73016010416667,60.0,93.0
347,120.58257006250001,121.16389410416667,48.0,78.0
348,121.3054600625,121.72413385416667,48.0,62.0
349,119.3175125625,122.04491629166667,36.0,86.0
350,122.02835006250001,122.24672308333334,55.0,76.0
351,119.6789575625,122.24822910416667,43.0,79.0
352,121.6669050625,122.29491575,60.0,95.0
353,120.9440150625,122.30997595833334,64.0,107.0
354,122.7512400625,123.4018410625,52.0,85.0
355,123.47413006250001,124.09461064583334,52.0,66.0
356,123.8355750625,124.38376664583333,64.0,77.0
357,123.8355750625,124.39129675000001,67.0,82.0
358,123.1126850625,124.56900720833333,59.0,107.0
359,124.1970200625,124.59159752083333,52.0,46.0
360,122.3897950625,124.87623545833334,40.0,92.0
361,122.5705175625,124.8837655625,47.0,93.0
362,124.7391875625,124.99370508333334,52.0,82.0
363,124.91991006250001,125.25274066666667,59.0,93.0
364,124.5584650625,125.25274066666667,64.0,112.0
365,125.4620775625,126.06599191666668,57.0,77.0
366,126.36569006250001,126.73165312500001,57.0,82.0
367,125.2813550625,126.8265324375,52.0,67.0
368,126.0042450625,126.89580939583334,60.0,82.0
369,127.0885800625,127.46056720833334,52.0,72.0
370,127.6307475625,127.7753255625,52.0,82.0
371,125.2813550625,127.81749414583334,45.0,73.0
372,127.4500250625,127.81900016666667,64.0,112.0
373,126.72713506250001,128.105144125,69.0,100.0
374,127.8114700625,128.15333679166667,60.0,97.0
375,127.99219256250001,128.23315589583333,64.0,107.0
376,128.89580506250002,129.74218877083334,55.0,92.0
377,129.2572500625,129.95001964583335,59.0,86.0
378,129.9801400625,130.25423585416667,55.0,78.0
379,128.5343600625,130.3596573125,50.0,81.0
380,128.1729150625,130.38827170833335,43.0,82.0
381,130.3415850625,130.73315047916668,62.0,127.0
382,130.5223075625,130.761764875,43.0,66.0
383,130.7030300625,131.01778841666666,59.0,95.0
384,129.6186950625,131.13375202083333,67.0,107.0
385,131.6066425625,132.008750125,53.0,72.0
386,131.78736506250002,132.61266447916668,57.0,92.0
387,132.14881006250002,132.75573645833333,53.0,65.0
388,132.8717000625,133.111157375,53.0,52.0
389,132.5102550625,133.11718145833333,60.0,93.0
390,131.0644750625,133.3686869375,41.0,63.0
391,131.4259200625,133.400313375,48.0,41.0
392,133.2331450625,133.70452958333334,57.0,107.0
393,132.5102550625,133.9921795625,65.0,97.0
394,133.5945900625,134.0192879375,60.0,102.0
395,134.4982025625,134.8686836875,52.0,72.0
396,134.6789250625,135.352116375,55.0,97.0
397,135.04037006250002,135.55241714583335,52.0,63.0
398,135.7632600625,135.97862104166668,52.0,76.0
399,134.3174800625,136.14127129166667,47.0,73.0
400,135.4018150625,136.1698856875,59.0,102.0
401,133.9560350625,136.20753620833335,40.0,90.0
402,135.4018150625,136.20904222916667,64.0,107.0
403,136.1247050625,136.24970479166666,55.0,97.0
404,136.8475950625,137.82048452083333,57.0,92.0
405,136.8475950625,137.82199054166668,65.0,93.0
406,136.8475950625,137.82500258333334,62.0,97.0
407,137.3897625625,138.31596537500002,50.0,53.0
408,137.0283175625,138.63222975,45.0,52.0
409,137.93193006250002,138.77379570833332,57.0,72.0
410,137.93193006250002,138.79337397916666,62.0,90.0
411,137.93193006250002,138.81596429166666,65.0,83.0
412,136.8475950625,138.82801245833335,38.0,62.0
413,140.4620450625,140.98915235416666,55.0,96.0
414,140.8234900625,141.0222848125,59.0,57.0
415,140.8234900625,141.0222848125,62.0,59.0
416,140.1006000625,141.92288527083335,50.0,53.0
417,141.18493506250002,142.038848875,62.0,102.0
418,139.7391550625,142.07198133333333,43.0,73.0
419,141.18493506250002,142.0840295,59.0,100.0
420,142.6307150625,143.25721972916668,62.0,63.0
421,142.6307150625,143.2903521875,58.0,81.0
422,142.9921600625,144.1487840625,46.0,53.0
423,143.7150500625,144.30691625,62.0,70.0
424,142.6307150625,144.3204704375,34.0,92.0
425,143.3536050625,144.3204704375,53.0,48.0
426,143.7150500625,144.3972775,65.0,69.0
427,143.7150500625,144.659325125,58.0,72.0
428,144.7993850625,145.37920308333335,33.0,55.0
429,144.7993850625,145.42890177083333,64.0,69.0
430,144.7993850625,145.454504125,57.0,67.0
431,144.7993850625,145.48010647916666,61.0,57.0
432,145.5222750625,146.04787633333333,57.0,77.0
433,145.5222750625,146.32347814583335,61.0,72.0
434,145.5222750625,146.38221295833333,64.0,76.0
435,146.6066100625,147.51775266666667,64.0,89.0
436,146.6066100625,147.54034297916667,61.0,107.0
437,146.2451650625,147.86112541666668,57.0,56.0
438,145.5222750625,148.30690758333333,33.0,70.0
439,145.8837200625,148.52076254166667,45.0,59.0
440,148.0523900625,148.942448375,57.0,58.0
441,147.6909450625,149.285821125,64.0,90.0
442,149.1367250625,149.36413420833333,57.0,53.0
443,149.4981700625,150.49364983333334,64.0,74.0
444,149.4981700625,150.50268595833333,57.0,81.0
445,148.4138350625,150.74816735416667,33.0,66.0
446,148.7752800625,150.84756472916666,45.0,64.0
447,150.58250506250002,150.98310660416666,64.0,81.0
448,150.58250506250002,151.15328695833333,57.0,82.0
449,151.3053950625,152.14424866666667,59.0,74.0
450,151.3053950625,152.159308875,62.0,81.0
451,151.3053950625,152.18491122916666,66.0,82.0
452,152.0282850625,152.37165781250002,54.0,41.0
453,152.3897300625,153.25268,59.0,66.0
454,152.3897300625,153.26472816666669,62.0,71.0
455,152.3897300625,153.2662341875,66.0,60.0
456,151.3053950625,153.72557054166668,47.0,60.0
457,153.65478756250002,153.73310064583333,54.0,75.0
458,153.47406506250002,153.948461625,66.0,127.0
459,153.8355100625,154.21201527083335,62.0,65.0
460,154.1969550625,154.50117127083334,64.0,69.0
461,154.1969550625,154.71954429166667,60.0,66.0
462,154.9198450625,155.81291541666667,48.0,82.0
463,155.2812900625,156.19544470833333,64.0,79.0
464,155.2812900625,156.2029748125,60.0,86.0
465,156.0041800625,156.207492875,48.0,52.0
466,155.2812900625,156.2391193125,55.0,72.0
467,154.5584000625,156.32345647916668,43.0,35.0
468,154.1969550625,156.39423945833335,36.0,72.0
469,156.36562506250002,156.41080568750002,55.0,35.0
470,156.36562506250002,156.47556458333335,60.0,92.0
471,156.36562506250002,156.51321510416668,64.0,92.0
472,157.0885150625,157.89122416666666,64.0,78.0
473,157.0885150625,157.91833254166667,68.0,83.0
474,157.0885150625,157.951465,61.0,88.0
475,157.8114050625,158.3987531875,49.0,82.0
476,158.1728500625,158.99814947916667,61.0,95.0
477,158.1728500625,159.01923377083335,64.0,96.0
478,158.1728500625,159.03730602083334,68.0,102.0
479,158.8957400625,159.31742589583334,49.0,46.0
480,157.4499600625,159.55387116666668,44.0,26.0
481,157.0885150625,159.56290729166668,37.0,69.0
482,159.61863006250002,159.98760516666667,64.0,79.0
483,159.2571850625,160.02977375,68.0,127.0
484,159.9800750625,160.91380797916668,62.0,89.0
485,160.7029650625,161.52374641666668,50.0,86.0
486,161.0644100625,161.85205895833334,57.0,79.0
487,161.6065775625,161.87314325,50.0,55.0
488,161.0644100625,161.95145633333334,65.0,83.0
489,161.0644100625,161.96199847916668,62.0,92.0
490,160.3415200625,162.09452831250002,45.0,56.0
491,159.9800750625,162.1306728125,38.0,69.0
492,162.1487450625,162.24964845833333,62.0,102.0
493,162.1487450625,162.26772070833334,65.0,100.0
494,162.87163506250002,163.10808033333333,53.0,89.0
495,162.87163506250002,163.11862247916667,56.0,107.0
496,162.87163506250002,163.13970677083333,60.0,93.0
497,163.4138025625,164.27524647916667,53.0,71.0
498,163.9559700625,164.83849827083333,68.0,102.0
499,163.9559700625,164.84000429166667,65.0,96.0
500,163.9559700625,164.87012470833335,60.0,90.0
501,164.6788600625,164.88367889583333,53.0,55.0
502,162.69091256250002,165.0583773125,41.0,79.0
503,163.0523575625,165.5764484791667,48.0,58.0
504,165.0403050625,165.5764484791667,68.0,122.0
505,165.4017500625,165.84150814583333,65.0,92.0
506,166.4860850625,167.34301091666669,55.0,95.0
507,166.8475300625,167.38216745833333,59.0,86.0
508,167.5704200625,167.80837135416667,55.0,82.0
509,167.2089750625,168.0312624375,62.0,89.0
510,167.2089750625,168.3204184375,67.0,85.0
511,165.76319506250002,168.406261625,43.0,86.0
512,167.9318650625,168.52523727083334,59.0,92.0
513,168.2933100625,168.54782758333334,62.0,83.0
514,166.1246400625,168.6728273125,50.0,72.0
515,168.65475506250002,169.47854845833334,59.0,95.0
516,168.65475506250002,169.77674058333335,67.0,83.0
517,168.65475506250002,169.77975262500001,62.0,89.0
518,169.3776450625,173.18787777083335,55.0,67.0
519,169.01620006250002,173.63667197916666,50.0,54.0
520,168.65475506250002,173.6878766875,43.0,71.0
521,170.1005350625,173.78878008333334,62.0,81.0
522,170.1005350625,173.8053463125,67.0,86.0
523,169.7390900625,173.80835835416667,59.0,59.0
524,175.5222100625,176.02672704166667,60.0,63.0
525,175.16076506250002,176.086967875,48.0,82.0
526,176.2451000625,176.6065450625,48.0,56.0
527,175.8836550625,177.09600183333333,67.0,99.0
528,174.4378750625,177.12311020833334,36.0,78.0
529,174.79932006250002,177.35353139583333,43.0,54.0
530,176.9679900625,178.32642085416668,64.0,55.0
531,176.6065450625,178.35503525000001,65.0,70.0
532,178.05232506250002,178.94087735416667,48.0,72.0
533,177.3294350625,179.4438883125,36.0,67.0
534,177.6908800625,179.4890689375,43.0,53.0
535,178.4137700625,179.54479170833335,60.0,75.0
536,179.1366600625,179.81738147916667,48.0,56.0
537,178.7752150625,180.27219977083334,65.0,93.0
538,179.4981050625,180.33244060416666,64.0,77.0
539,179.8595500625,180.33997070833334,60.0,45.0
540,180.94388506250002,182.2887616666667,52.0,71.0
541,180.2209950625,182.91074827083335,40.0,72.0
542,180.5824400625,183.25261500000002,47.0,42.0
543,181.30533006250002,183.59749377083335,55.0,47.0
544,182.7511100625,183.6999031875,59.0,58.0
545,181.6667750625,183.80381862500002,64.0,90.0
546,184.01616756250002,184.22098639583334,55.0,27.0
547,183.8354450625,184.96345466666668,52.0,52.0
548,183.1125550625,185.2360444375,40.0,71.0
549,183.4740000625,185.25863475,47.0,52.0
550,185.2812250625,185.9800187291667,59.0,72.0
551,184.19689006250002,186.0402595625,64.0,88.0
552,186.7270050625,187.68182227083335,50.0,66.0
553,186.0041150625,188.19688139583334,38.0,75.0
554,186.3655600625,188.26013427083333,45.0,61.0
555,187.8113400625,188.448386875,50.0,38.0
556,188.1727850625,189.01013264583335,65.0,97.0
557,187.08845006250002,189.03874704166668,57.0,71.0
558,189.6185650625,190.57187625,55.0,57.0
559,189.2571200625,190.82187570833335,50.0,60.0
560,188.8956750625,190.87609245833335,43.0,67.0
561,189.9800100625,191.7872350625,59.0,72.0
562,191.0643450625,191.7872350625,62.0,73.0
563,190.34145506250002,191.7872350625,67.0,96.0
564,192.5101250625,193.38060510416668,48.0,92.0
565,193.59446006250002,193.94084485416667,48.0,64.0
566,191.7872350625,194.4890364375,36.0,92.0
567,192.1486800625,194.72096364583334,43.0,62.0
568,194.3173500625,194.83692725,59.0,23.0
569,193.9559050625,194.99656545833335,60.0,93.0
570,192.8715700625,195.20891439583335,55.0,74.0
571,193.23301506250002,195.26764920833335,64.0,100.0
572,195.0402400625,195.695359125,43.0,65.0
573,194.6787950625,195.76463608333333,36.0,75.0
574,195.4016850625,196.08240647916668,48.0,100.0
575,195.7631300625,196.201382125,55.0,69.0
576,195.7631300625,196.77969412500002,64.0,93.0
577,196.1245750625,196.9408383541667,47.0,122.0
578,196.84746506250002,197.50409014583335,60.0,96.0
579,197.2089100625,197.51162025,59.0,85.0
580,198.2932450625,198.677280375,57.0,107.0
581,198.6546900625,199.10950835416668,60.0,92.0
582,197.9318000625,199.2239659375,52.0,85.0
583,199.0161350625,199.79022977083335,64.0,76.0
584,199.37758006250002,200.14414466666668,52.0,95.0
585,197.5703550625,200.30077083333333,45.0,112.0
586,199.0161350625,200.55077029166668,69.0,99.0
587,199.73902506250002,200.55528835416666,60.0,96.0
588,200.1004700625,200.58390275,64.0,97.0
589,201.1848050625,201.5914306875,55.0,97.0
590,201.5462500625,201.90618904166666,59.0,102.0
591,201.9076950625,201.93630945833334,61.0,93.0
592,200.8233600625,202.07636939583335,50.0,82.0
593,202.2691400625,202.72847641666667,50.0,85.0
594,201.9076950625,202.80980154166667,59.0,70.0
595,200.4619150625,203.086909375,43.0,92.0
596,201.9076950625,203.30227035416667,62.0,127.0
597,202.63058506250002,203.31130647916666,55.0,81.0
598,202.99203006250002,203.33690883333335,59.0,64.0
599,204.0763650625,204.47997864583334,53.0,92.0
600,203.7149200625,204.9799775625,48.0,56.0
601,204.4378100625,205.42877177083335,57.0,75.0
602,205.1607000625,205.48750658333333,48.0,53.0
603,203.3534750625,205.52816914583335,41.0,97.0
604,205.52214506250002,206.19684239583333,60.0,122.0
605,205.88359006250002,206.1998544375,57.0,83.0
606,204.7992550625,206.22997485416667,65.0,127.0
607,206.9679250625,207.86099541666667,52.0,95.0
608,207.3293700625,208.21189827083333,59.0,75.0
609,208.0522600625,208.29924747916667,52.0,78.0
610,206.6064800625,208.5763553125,47.0,68.0
611,206.2450350625,208.63207808333334,40.0,93.0
612,208.77515006250002,209.13659506250002,59.0,78.0
613,208.41370506250001,209.13659506250002,64.0,99.0
614,207.6908150625,209.13659506250002,67.0,117.0
615,209.8594850625,210.25556854166666,57.0,100.0
616,210.2209300625,210.66520620833333,60.0,85.0
617,209.4980400625,210.74351929166667,52.0,96.0
618,210.9438200625,211.12303654166666,52.0,79.0
619,209.13659506250002,211.18478339583334,45.0,93.0
620,210.5823750625,211.30677108333333,64.0,93.0
621,211.3052650625,212.0100828125,60.0,96.0
622,210.5823750625,212.086889875,69.0,100.0
623,211.66671006250002,212.09441997916667,64.0,93.0
624,212.7510450625,213.15465864583334,55.0,93.0
625,213.1124900625,213.53116385416666,59.0,83.0
626,212.3896000625,213.63206725,50.0,56.0
627,213.8353800625,214.02212664583334,50.0,86.0
628,212.02815506250002,214.1154999375,43.0,95.0
629,213.4739350625,214.21640333333335,62.0,99.0
630,213.4739350625,214.58839047916666,67.0,102.0
631,214.1968250625,214.82182370833334,59.0,93.0
632,215.4618825625,215.86700216666668,53.0,93.0
633,216.0040500625,216.54019347916667,57.0,86.0
634,215.28116006250002,216.55224164583333,48.0,65.0
635,214.91971506250002,217.58989,41.0,85.0
636,216.7269400625,217.75103422916666,48.0,73.0
637,217.0883850625,217.80073291666668,60.0,107.0
638,216.3654950625,217.81880516666666,65.0,102.0
639,217.4498300625,217.83235935416667,57.0,96.0
640,218.35344256250002,218.68476714583335,55.0,100.0
641,218.17272006250002,219.43627154166668,50.0,61.0
642,218.8956100625,219.44380164583333,59.0,97.0
643,219.6185000625,219.96488485416668,50.0,107.0
644,219.2570550625,220.02663170833335,67.0,127.0
645,217.81127506250002,220.10193275,43.0,93.0
646,219.9799450625,220.16819766666669,62.0,127.0
647,220.1606675625,220.45132958333335,59.0,93.0
648,220.3413900625,220.72542537500001,62.0,107.0
649,221.24500256250002,221.56879704166667,48.0,85.0
650,221.7871700625,222.1079525,60.0,85.0
651,221.42572506250002,222.26457866666667,55.0,85.0
652,222.5100600625,222.73295114583334,48.0,73.0
653,220.70283506250001,222.930239875,36.0,93.0
654,221.06428006250002,222.9754205,43.0,66.0
655,223.2329500625,223.35192570833334,55.0,90.0
656,222.8715050625,223.35192570833334,60.0,117.0
657,222.1486150625,223.35192570833334,64.0,112.0
658,224.13656256250002,224.39409212500001,59.0,77.0
659,223.95584006250002,224.52662195833335,52.0,82.0
660,224.31728506250002,225.098909875,64.0,85.0
661,225.0401750625,225.1666808125,59.0,14.0
662,224.6787300625,225.35041535416667,52.0,63.0
663,225.4016200625,225.70734229166666,52.0,61.0
664,223.5943950625,225.9347514375,40.0,95.0
665,223.77511756250001,225.975414,47.0,72.0
666,226.1245100625,226.50101527083334,59.0,82.0
667,225.7630650625,226.54318385416667,64.0,97.0
668,225.0401750625,226.56878620833334,67.0,93.0
669,226.84740006250001,227.18625475000002,57.0,83.0
670,227.02812256250002,227.3172785625,60.0,89.0
671,226.6666775625,227.37751939583333,52.0,71.0
672,227.20884506250002,227.91215679166666,64.0,117.0
673,227.57029006250002,228.08986725,52.0,88.0
674,228.2931800625,228.65613108333335,52.0,86.0
675,226.4859550625,228.88354022916667,45.0,75.0
676,228.8353475625,228.9166726875,52.0,50.0
677,227.9317350625,229.34588862500001,69.0,117.0
678,229.0160700625,229.35793679166667,60.0,85.0
679,228.6546250625,229.41365956250002,64.0,107.0
680,229.91968256250001,230.1847422291667,59.0,83.0
681,229.7389600625,230.2178746875,55.0,83.0
682,230.46185006250002,230.69528329166667,55.0,89.0
683,230.10040506250002,230.7600421875,62.0,102.0
684,229.5582375625,231.04166808333335,50.0,77.0
685,231.1847400625,231.51907668750002,50.0,48.0
686,229.3775150625,231.71636541666666,43.0,67.0
687,231.7269075625,231.76907614583334,50.0,38.0
688,231.5461850625,231.94076252083335,62.0,100.0
689,231.9076300625,232.13955727083334,59.0,97.0
690,232.0883525625,232.2690750625,62.0,102.0
691,230.8232950625,232.29919547916668,67.0,122.0
692,232.6305200625,233.18021766666666,53.0,93.0
693,232.8112425625,233.502506125,60.0,92.0
694,233.35341006250002,233.76003568750002,53.0,79.0
695,232.4497975625,233.9663605416667,48.0,81.0
696,233.71485506250002,234.30822727083333,65.0,122.0
697,233.71485506250002,234.3142513541667,69.0,127.0
698,234.0763000625,234.51304610416668,48.0,90.0
699,232.2690750625,234.722383,41.0,75.0
700,234.4377450625,235.1064183125,65.0,122.0
701,234.4377450625,235.13202066666668,69.0,122.0
702,235.5220800625,236.068765625,52.0,93.0
703,235.8835250625,236.51454779166667,59.0,102.0
704,235.7028025625,236.62599333333335,55.0,82.0
705,236.60641506250002,236.62599333333335,55.0,72.0
706,236.24497006250002,236.7826195,52.0,75.0
707,236.9678600625,237.1214741875,52.0,82.0
708,236.60641506250002,237.15008858333334,64.0,95.0
709,236.60641506250002,237.15611266666667,59.0,88.0
710,235.3413575625,237.37599170833334,47.0,95.0
711,235.1606350625,237.6094249375,40.0,82.0
712,237.5100275625,237.61996708333334,47.0,79.0
713,237.6907500625,237.97689402083333,59.0,100.0
714,237.3293050625,238.0521950625,64.0,122.0
715,237.8714725625,238.05972516666668,55.0,93.0
716,238.4136400625,238.89707275,50.0,81.0
717,238.5943625625,238.94375939583335,57.0,88.0
718,238.9558075625,239.18020466666667,50.0,38.0
719,239.13653006250001,240.06875695833335,62.0,97.0
720,238.7750850625,240.09285329166667,65.0,112.0
721,239.49797506250002,240.135021875,57.0,102.0
722,239.85942006250002,240.24646741666666,50.0,51.0
723,238.0521950625,240.46634645833333,45.0,76.0
724,238.0521950625,240.59737027083335,38.0,89.0
725,240.4015875625,240.81122522916667,50.0,78.0
726,240.5823100625,240.90459852083333,57.0,99.0
727,240.2208650625,240.97086343750001,62.0,102.0
728,240.2208650625,241.00399589583336,65.0,102.0
729,241.4859225625,241.82778929166668,55.0,83.0
730,242.0280900625,242.240439,55.0,89.0
731,241.6666450625,242.29766779166667,59.0,112.0
732,241.3052000625,242.62748635416668,50.0,69.0
733,242.38953506250002,242.89254602083335,62.0,122.0
734,242.38953506250002,242.93019654166667,67.0,117.0
735,240.9437550625,243.2479669375,43.0,90.0
736,243.1124250625,243.74645983333335,62.0,127.0
737,243.1124250625,243.7570019791667,67.0,127.0
738,244.1967600625,244.490434125,55.0,78.0
739,244.0160375625,244.56573516666668,48.0,79.0
740,244.3774825625,245.06724010416667,60.0,93.0
741,244.9196500625,245.5009741041667,48.0,78.0
742,245.64254006250002,246.06121385416668,48.0,62.0
743,243.6545925625,246.38199629166667,36.0,86.0
744,246.3654300625,246.58380308333335,55.0,76.0
745,244.0160375625,246.58530910416667,43.0,79.0
746,246.00398506250002,246.63199575000002,60.0,95.0
747,245.28109506250001,246.64705595833334,64.0,107.0
748,247.0883200625,247.7389210625,52.0,85.0
749,247.8112100625,248.43169064583336,52.0,66.0
750,248.1726550625,248.72084664583335,64.0,77.0
751,248.1726550625,248.72837675,67.0,82.0
752,247.4497650625,248.90608720833333,59.0,107.0
753,248.53410006250002,248.92867752083333,52.0,46.0
754,246.7268750625,249.21331545833334,40.0,92.0
755,246.9075975625,249.22084556250002,47.0,93.0
756,249.07626756250002,249.33078508333335,52.0,82.0
757,249.25699006250002,249.58982066666667,59.0,93.0
758,248.89554506250002,249.58982066666667,64.0,112.0
759,249.7991575625,250.40307191666668,57.0,77.0
760,250.7027700625,251.06873312500002,57.0,82.0
761,249.6184350625,251.1636124375,52.0,67.0
762,250.3413250625,251.23288939583335,60.0,82.0
763,251.42566006250001,251.79764720833333,52.0,72.0
764,251.96782756250002,252.11240556250002,52.0,82.0
765,249.6184350625,252.15457414583335,45.0,73.0
766,251.78710506250002,252.15608016666667,64.0,112.0
767,251.0642150625,252.442224125,69.0,100.0
768,252.14855006250002,252.4904167916667,60.0,97.0
769,252.32927256250002,252.57023589583335,64.0,107.0
770,253.2328850625,254.07926877083335,55.0,92.0
771,253.5943300625,254.28709964583334,59.0,86.0
772,254.3172200625,254.59131585416668,55.0,78.0
773,252.8714400625,254.6967373125,50.0,81.0
774,252.5099950625,254.72535170833333,43.0,82.0
775,254.67866506250002,255.07023047916667,62.0,127.0
776,254.85938756250002,255.098844875,43.0,66.0
777,255.04011006250002,255.35486841666668,59.0,95.0
778,253.9557750625,255.47083202083334,67.0,107.0
779,255.9437225625,256.345830125,53.0,72.0
780,256.1244450625,256.94974447916667,57.0,92.0
781,256.4858900625,257.09281645833335,53.0,65.0
782,257.2087800625,257.448237375,53.0,52.0
783,256.8473350625,257.45426145833335,60.0,93.0
784,255.40155506250002,257.7057669375,41.0,63.0
785,255.7630000625,257.737393375,48.0,41.0
786,257.5702250625,258.04160958333335,57.0,107.0
787,256.8473350625,258.3292595625,65.0,97.0
788,257.9316700625,258.3563679375,60.0,102.0
789,258.8352825625,259.2057636875,52.0,72.0
790,259.0160050625,259.689196375,55.0,97.0
791,259.37745006250003,259.88949714583333,52.0,63.0
792,260.1003400625,260.31570104166667,52.0,76.0
793,258.6545600625,260.4783512916667,47.0,73.0
794,259.73889506250003,260.5069656875,59.0,102.0
795,258.2931150625,260.54461620833337,40.0,90.0
796,259.73889506250003,260.54612222916666,64.0,107.0
797,260.4617850625,260.5867847916667,55.0,97.0
798,261.1846750625,262.1575645208333,57.0,92.0
799,261.1846750625,262.15907054166667,65.0,93.0
800,261.1846750625,262.16208258333336,62.0,97.0
801,261.7268425625,262.65304537500003,50.0,53.0
802,261.3653975625,262.96930975000004,45.0,52.0
803,262.2690100625,263.11087570833337,57.0,72.0
804,262.2690100625,263.1304539791667,62.0,90.0
805,262.2690100625,263.1530442916667,65.0,83.0
806,261.1846750625,263.16509245833333,38.0,62.0
807,264.0762350625,269.5325485416667,55.0,63.0
808,264.0762350625,269.69218675,50.0,67.0
809,264.0762350625,269.74790952083333,43.0,56.0
810,264.0762350625,269.80664433333334,62.0,60.0
811,264.0762350625,269.8111623958333,71.0,63.0
812,264.0762350625,269.8247165833333,67.0,68.0
813,264.0762350625,269.8593550625,74.0,71.0
814,270.5822450625,271.472303375,48.0,83.0
815,269.8593550625,272.6183852291667,36.0,75.0
816,271.66658006250003,272.66808391666666,48.0,63.0
817,270.2208000625,272.72079464583334,43.0,64.0
818,270.9436900625,273.2057333541667,55.0,79.0
819,272.02802506250003,273.2509139791667,60.0,95.0
820,271.3051350625,273.5536241666667,64.0,97.0
821,272.7509150625,273.83374404166665,36.0,90.0
822,273.1123600625,274.16356260416666,48.0,92.0
823,273.4738050625,274.42410420833335,55.0,86.0
824,274.1966950625,275.07470520833334,47.0,100.0
825,273.8352500625,275.59880045833336,64.0,97.0
826,274.9195850625,275.65753527083336,60.0,92.0
827,276.7268100625,277.2629534791667,60.0,62.0
828,276.3653650625,277.34729064583337,57.0,97.0
829,275.6424750625,278.4557219791667,45.0,92.0
830,277.4497000625,278.5536133333333,57.0,93.0
831,276.0039200625,278.7057214375,52.0,72.0
832,278.17259006250003,279.3909609166667,60.0,79.0
833,277.81114506250003,279.6499965,64.0,92.0
834,277.0882550625,280.0249956875,69.0,97.0
835,279.6183700625,280.06716427083336,60.0,96.0
836,279.2569250625,280.15752552083336,57.0,107.0
837,280.3412600625,280.58975350000003,57.0,107.0
838,279.9798150625,280.71324720833337,64.0,122.0
839,278.8954800625,280.851801125,52.0,47.0
840,278.5340350625,280.86083725000003,45.0,93.0
841,280.7027050625,281.48734191666665,69.0,112.0
842,281.0641500625,281.53854662500004,64.0,88.0
843,282.5099300625,283.011435,57.0,88.0
844,282.1484850625,283.11836247916665,53.0,102.0
845,283.2328200625,283.59727710416666,53.0,86.0
846,283.5942650625,283.996372625,60.0,112.0
847,282.8713750625,284.02197497916666,65.0,107.0
848,281.4255950625,284.1545048125,41.0,83.0
849,283.95571006250003,284.29607077083335,57.0,69.0
850,281.7870400625,284.3472754791667,48.0,83.0
851,285.0400450625,286.273476125,53.0,83.0
852,286.1243800625,287.39546164583334,65.0,72.0
853,285.2207675625,287.51293127083335,56.0,88.0
854,284.67860006250004,287.5249794375,48.0,62.0
855,285.7629350625,287.62738885416667,60.0,83.0
856,284.31715506250004,287.646967125,41.0,67.0
857,286.6665475625,287.7689548125,68.0,66.0
858,288.8352175625,290.21021458333337,67.0,75.0
859,289.7388300625,291.89093383333335,48.0,59.0
860,288.8352175625,292.0520780625,60.0,74.0
861,288.8352175625,292.05509010416665,36.0,89.0
862,288.8352175625,292.05810214583335,64.0,74.0
863,289.3773850625,292.06864429166666,43.0,63.0
864,291.0038875625,292.0806924583333,72.0,45.0
865,290.46172006250004,292.14394533333336,67.0,59.0
