,start,end,pitch,velocity
0,26.45753614583333,26.587253072916663,57.0,107.0
1,26.74055489583333,26.98819630208333,57.0,92.0
2,27.02357364583333,27.266498072916665,59.0,97.0
3,27.30659239583333,27.792441249999996,61.0,112.0
4,27.87262989583333,28.025931718749998,64.0,107.0
5,28.15564864583333,28.908006822916665,64.0,117.0
6,29.28772364583333,29.537723541666665,64.0,89.0
7,29.57074239583333,29.948100729166665,61.0,93.0
8,29.85376114583333,30.85847770833333,64.0,90.0
9,31.26885489583333,31.483477447916663,66.0,127.0
10,31.55187364583333,31.75706223958333,68.0,117.0
11,31.83489239583333,32.08725078125,69.0,117.0
12,32.11791114583333,32.45753364583333,69.0,122.0
13,32.68394864583333,32.99998625,69.0,122.0
14,32.96696739583333,32.99998625,69.0,122.0
15,33.81602364583333,34.011778281249995,61.0,100.0
16,34.09904239583333,35.23111739583333,64.0,107.0
17,35.79715489583333,36.04479630208333,66.0,102.0
18,36.08017364583333,36.24762640625,68.0,100.0
19,36.36319239583333,36.655645104166666,69.0,107.0
20,36.64621114583333,36.655645104166666,69.0,100.0
21,37.21224864583333,37.33489010416666,69.0,107.0
22,37.49526739583333,37.78536161458333,69.0,112.0
23,37.77828614583333,38.04715395833333,68.0,112.0
24,38.34432364583333,38.575455625,66.0,107.0
25,38.62734239583333,39.42687036458333,64.0,100.0
26,39.47639864583333,39.64856838541666,64.0,96.0
27,39.75941739583333,40.075455,61.0,93.0
28,40.32545489583333,40.566020833333326,59.0,88.0
29,40.60847364583333,40.82309619791666,57.0,86.0
30,40.89149239583333,41.53536005208333,59.0,90.0
31,41.74054864583333,41.860831614583326,59.0,97.0
32,42.02356739583333,42.240548437499996,57.0,102.0
33,42.30658614583333,42.566019999999995,57.0,93.0
34,42.87262364583333,43.01413302083333,61.0,96.0
35,43.155642395833326,44.66271723958333,59.0,89.0
36,44.853754895833326,45.01884916666666,61.0,112.0
37,45.13677364583333,45.247622656249995,64.0,93.0
38,45.419792395833326,45.58724515625,57.0,97.0
39,45.70281114583333,45.90092427083333,57.0,93.0
40,46.26884864583333,46.38205614583333,57.0,92.0
41,46.55186739583333,46.747622031249996,57.0,96.0
42,46.83488614583333,47.061301145833326,57.0,96.0
43,47.40092364583333,47.57309338541666,59.0,89.0
44,47.68394239583333,47.90799890624999,61.0,112.0
45,47.96696114583333,48.76884760416666,64.0,93.0
46,49.38205489583333,49.59667744791666,66.0,127.0
47,49.66507364583333,49.870262239583326,68.0,117.0
48,49.94809239583333,50.40328088541666,69.0,117.0
49,50.79714864583333,50.945733489583326,69.0,122.0
50,51.08016739583333,51.363186145833325,69.0,122.0
51,51.363186145833325,51.64620489583333,68.0,97.0
52,51.929223645833325,52.124978281249994,61.0,100.0
53,52.21224239583333,53.34431739583333,64.0,107.0
54,53.91035489583333,54.157996302083326,66.0,102.0
55,54.193373645833326,54.36082640624999,68.0,100.0
56,54.47639239583333,54.584882916666665,69.0,107.0
57,55.04242989583333,55.17214682291666,69.0,100.0
58,55.325448645833326,55.44809010416666,69.0,107.0
59,55.60846739583333,55.89856161458333,69.0,112.0
60,56.17450489583333,56.44337270833333,68.0,112.0
61,56.45752364583333,56.688655624999996,66.0,107.0
62,56.74054239583333,57.54007036458333,64.0,100.0
63,57.58959864583333,57.76176838541666,64.0,96.0
64,57.87261739583333,58.188655,61.0,93.0
65,58.43865489583333,58.679220833333325,59.0,88.0
66,58.72167364583333,58.93629619791666,57.0,86.0
67,59.00469239583333,59.648560052083326,59.0,90.0
68,59.85374864583333,59.974031614583325,59.0,97.0
69,60.136767395833324,60.43865406249999,61.0,122.0
70,60.702804895833324,60.941012343749996,54.0,102.0
71,60.98582364583333,61.34195557291666,57.0,97.0
72,61.55186114583333,63.33016229166666,57.0,117.0
73,65.23110489583333,65.61318020833333,57.0,107.0
74,65.79714239583333,66.56129302083333,69.0,127.0
75,67.77827364583332,68.09902822916666,57.0,92.0
76,68.06129239583332,69.141480625,64.0,99.0
77,70.04242364583332,70.27119713541666,57.0,99.0
78,70.32544239583332,70.45515932291666,69.0,107.0
79,70.60846114583333,70.72874411458332,69.0,99.0
80,70.89147989583333,70.99761192708333,69.0,100.0
81,71.17449864583332,71.2782721875,69.0,100.0
82,71.45751739583332,71.65798901041666,69.0,122.0
83,71.74053614583333,71.96223416666666,68.0,122.0
84,72.30657364583332,72.4952528125,57.0,102.0
85,72.58959239583332,73.66034666666665,64.0,102.0
86,74.28770489583333,74.66034624999999,57.0,93.0
87,74.85374239583332,75.74525145833333,69.0,112.0
88,76.83487364583333,77.00468489583332,57.0,97.0
89,77.11789239583332,78.36081640625,64.0,112.0
90,78.81600489583333,78.92449541666666,57.0,88.0
91,79.09902364583333,79.24525,57.0,92.0
92,79.38204239583332,79.49760838541665,59.0,89.0
93,79.66506114583332,79.78534411458332,59.0,88.0
94,79.94807989583333,80.05421192708333,59.0,89.0
95,80.23109864583333,80.33723067708333,59.0,89.0
96,80.51411739583332,80.71223052083333,59.0,99.0
97,80.79713614583332,80.95043796875,57.0,102.0
98,81.36317364583333,81.64619239583332,61.0,112.0
99,81.64619239583332,82.75939947916666,59.0,95.0
100,83.34430489583332,83.72638020833332,57.0,107.0
101,83.91034239583333,84.67449302083332,69.0,127.0
102,85.89147364583333,86.21222822916666,57.0,92.0
103,86.17449239583333,87.25468062499999,64.0,99.0
104,88.15562364583333,88.38439713541666,57.0,99.0
105,88.43864239583333,88.56835932291666,69.0,107.0
106,88.72166114583332,88.84194411458333,69.0,99.0
107,89.00467989583332,89.11081192708332,69.0,100.0
108,89.28769864583333,89.39147218749999,69.0,100.0
109,89.57071739583333,89.77118901041666,69.0,122.0
110,89.85373614583332,90.07543416666665,68.0,122.0
111,90.41977364583333,90.60845281249999,57.0,102.0
112,90.70279239583333,91.77354666666666,64.0,102.0
113,92.40090489583332,92.55184822916665,57.0,93.0
114,92.68392364583332,92.90090468749999,57.0,107.0
115,92.96694239583333,93.21694229166665,69.0,112.0
116,93.24996114583332,93.37731958333332,69.0,127.0
117,93.53297989583332,93.67213078124999,69.0,112.0
118,93.81599864583332,94.10137588541666,69.0,127.0
119,94.94807364583332,95.11788489583333,57.0,97.0
120,95.23109239583333,95.63203562499999,64.0,112.0
121,95.79712989583332,95.93392229166666,64.0,99.0
122,96.08014864583332,96.33014854166666,64.0,99.0
123,96.64618614583333,96.84901624999999,61.0,112.0
124,96.92920489583332,97.08250671875,59.0,93.0
125,97.21222364583332,97.38675187499999,57.0,95.0
126,97.49524239583333,98.08250630208332,59.0,99.0
127,98.62731739583333,98.90326067708332,61.0,127.0
128,98.91033614583333,99.16741151041666,59.0,93.0
129,99.47637364583332,99.62495848958332,57.0,93.0
130,99.75939239583332,101.76175005208333,57.0,100.0
131,121.59537814583332,121.72509507291666,57.0,107.0
132,121.87839689583333,122.12603830208333,57.0,92.0
133,122.16141564583333,122.40434007291665,59.0,97.0
134,122.44443439583333,122.93028324999999,61.0,112.0
135,123.01047189583332,123.23688689583332,61.0,107.0
136,123.29349064583333,123.40905663541666,64.0,92.0
137,123.57650939583333,123.73688668749999,64.0,99.0
138,123.85952814583332,123.99867903124999,64.0,96.0
139,124.42556564583333,124.67576179999999,64.0,89.0
140,124.70884309999998,125.08691509999998,61.0,93.0
141,124.99239709999999,125.99901379999999,64.0,90.0
142,126.41016709999998,126.62519554999999,66.0,127.0
143,126.69372109999999,126.89929774999999,68.0,117.0
144,126.97727509999999,127.23011075,69.0,117.0
145,127.26082909999998,127.6010939,69.0,122.0
146,127.82793709999999,127.97443999999999,69.0,122.0
147,128.1114911,128.39504509999998,69.0,122.0
148,128.39504509999998,128.62425125,68.0,127.0
149,128.9621531,129.15827794999998,61.0,100.0
150,129.24570709999998,130.37992309999998,64.0,107.0
151,130.94703109999998,131.19514085,66.0,102.0
152,131.23058509999998,131.39835455,68.0,100.0
153,131.5141391,131.72916755,69.0,107.0
154,131.79769309999998,132.07888415,69.0,100.0
155,132.3648011,132.4876745,69.0,107.0
156,132.64835509999997,132.93899795,69.0,112.0
157,132.93190909999998,133.2012854,68.0,112.0
158,133.49901709999997,133.73058619999998,66.0,107.0
159,133.78257109999998,134.58361115,64.0,100.0
160,134.63323309999998,134.80572844999998,64.0,96.0
161,134.9167871,135.2334224,61.0,93.0
162,135.48389509999998,135.72491599999998,59.0,88.0
163,135.7674491,135.98247755,57.0,86.0
164,136.0510031,136.69608845,59.0,90.0
165,136.9016651,137.02217555,59.0,97.0
166,137.18521909999998,137.40261049999998,57.0,102.0
167,137.4687731,137.72869759999998,57.0,93.0
168,138.03588109999998,138.17765809999997,61.0,96.0
169,138.3194351,139.82936014999999,59.0,89.0
170,140.0207591,140.18616559999998,61.0,112.0
171,140.3043131,140.41537175,64.0,93.0
172,140.58786709999998,140.75563655,57.0,97.0
173,140.8714211,141.06990889999997,57.0,93.0
174,141.43852909999998,141.5519507,57.0,92.0
175,141.7220831,141.91820794999998,57.0,96.0
176,142.0056371,142.2324803,57.0,96.0
177,142.5727451,142.74524044999998,59.0,89.0
178,142.8562991,143.08077935,61.0,112.0
179,143.13985309999998,143.94317123333332,64.0,93.0
180,144.55695756666665,144.7717827833333,66.0,127.0
181,144.84024356666663,145.04562591666664,68.0,117.0
182,145.12352956666663,145.57914788333332,69.0,117.0
183,145.97338756666664,146.12211271666663,69.0,122.0
184,146.25667356666665,146.53995956666665,69.0,122.0
185,146.53995956666665,146.82324556666663,68.0,97.0
186,147.10653156666663,147.30247104999998,66.0,100.0
187,147.38981756666664,148.52296156666665,64.0,107.0
188,149.08953356666663,149.33740881666665,66.0,102.0
189,149.37281956666664,149.54043044999997,68.0,100.0
190,149.65610556666664,149.7646985333333,69.0,107.0
191,150.22267756666665,150.35251698333332,69.0,100.0
192,150.50596356666665,150.62872083333332,69.0,107.0
193,150.78924956666663,151.07961771666663,69.0,112.0
194,151.35582156666663,151.62494326666663,68.0,112.0
195,151.63910756666664,151.87045779999997,66.0,107.0
196,151.92239356666664,152.72267651666664,64.0,100.0
197,152.77225156666663,152.9445838833333,64.0,96.0
198,153.05553756666663,153.37187359999996,61.0,93.0
199,153.62210956666664,153.86290266666663,59.0,88.0
200,153.90539556666664,154.1202207833333,57.0,86.0
201,154.18868156666665,154.83315721666665,59.0,90.0
202,155.03853956666663,155.15893611666664,59.0,97.0
203,155.32182556666663,155.62399729999998,61.0,122.0
204,155.88839756666664,156.12682994999997,54.0,102.0
205,156.17168356666664,156.5281517833333,57.0,97.0
206,156.73825556666665,158.5182359333333,57.0,117.0
207,160.42097356666665,160.80340966666665,57.0,107.0
208,160.98754556666665,161.75241776666664,69.0,127.0
209,162.97054756666665,163.2916050333333,57.0,92.0
210,163.25383356666663,164.33504179999997,64.0,99.0
211,165.23683556666663,165.4658250833333,57.0,99.0
212,165.52012156666663,165.6499609833333,69.0,107.0
213,165.80340756666664,165.92380411666664,69.0,99.0
214,166.08669356666664,166.19292581666664,69.0,100.0
215,166.36997956666664,166.47385109999996,69.0,100.0
216,166.65326556666665,166.8539264833333,69.0,122.0
217,166.93655156666665,167.1584589333333,68.0,122.0
218,167.50312356666663,167.69198089999998,57.0,102.0
219,167.78640956666663,168.85817493333332,64.0,102.0
220,169.48612556666663,169.85911879999998,57.0,93.0
221,170.05269756666664,170.94504846666663,69.0,112.0
222,172.03569956666664,172.20567116666663,57.0,97.0
223,172.31898556666664,173.56308324999998,64.0,112.0
224,174.01870156666664,174.1272945333333,57.0,88.0
225,174.30198756666664,174.44835199999997,57.0,92.0
226,174.58527356666664,174.7009486833333,59.0,89.0
227,174.86855956666665,174.98895611666663,59.0,88.0
228,175.15184556666662,175.25807781666663,59.0,89.0
229,175.43513156666663,175.54136381666663,59.0,89.0
230,175.71841756666663,175.91671776666664,59.0,99.0
231,176.00170356666663,176.15515014999997,57.0,102.0
232,176.56827556666664,176.85156156666665,61.0,112.0
233,176.85156156666665,177.9658198333333,59.0,95.0
234,178.55127756666664,178.93371366666662,57.0,107.0
235,179.11784956666662,179.88272176666663,69.0,127.0
236,181.10085156666662,181.4219090333333,57.0,92.0
237,181.38413756666665,182.46534579999997,64.0,99.0
238,183.36713956666665,183.5961290833333,57.0,99.0
239,183.65042556666663,183.7802649833333,69.0,107.0
240,183.93371156666663,184.05410811666664,69.0,99.0
241,184.21699756666663,184.32322981666664,69.0,100.0
242,184.50028356666664,184.60415509999996,69.0,100.0
243,184.78356956666664,184.9842304833333,69.0,122.0
244,185.06685556666665,185.28876293333332,68.0,122.0
245,185.63342756666663,185.82228489999997,57.0,102.0
246,185.91671356666663,186.9884789333333,64.0,102.0
247,187.61642956666662,187.7675154333333,57.0,93.0
248,187.89971556666663,188.11690149999998,57.0,107.0
249,188.18300156666663,188.4332375333333,69.0,112.0
250,188.46628756666664,188.59376626666665,69.0,127.0
251,188.74957356666664,188.88885584999997,69.0,112.0
252,189.03285956666664,189.3185062833333,69.0,127.0
253,190.16600356666663,190.33597516666663,57.0,97.0
254,190.44928956666664,190.85061139999996,64.0,112.0
255,191.01586156666664,191.1527831333333,64.0,99.0
256,191.29914756666665,191.5493835333333,64.0,99.0
257,191.86571956666663,192.06874119999998,61.0,112.0
258,192.14900556666663,192.30245214999997,59.0,93.0
259,192.43229156666663,192.60698459999998,57.0,95.0
260,192.71557756666664,193.30339601666662,59.0,99.0
261,193.84872156666663,194.12492541666663,61.0,127.0
262,194.13200756666663,194.3893256833333,59.0,114.0
263,194.69857956666664,194.84730471666663,57.0,93.0
264,194.98186556666664,196.98611401666665,57.0,100.0
265,237.47476556666663,237.85720166666664,57.0,107.0
266,238.04133756666664,238.80620976666663,69.0,127.0
267,240.02433956666664,240.3452322291666,57.0,92.0
268,240.30749639583328,241.38768462499993,64.0,99.0
269,242.2886276458333,242.5174011354166,57.0,99.0
270,242.57164639583328,242.70136332291662,69.0,107.0
271,242.85466514583328,242.97494811458327,69.0,99.0
272,243.13768389583328,243.2438159270833,69.0,100.0
273,243.42070264583327,243.52447618749994,69.0,100.0
274,243.70372139583327,243.9041930104166,69.0,122.0
275,243.98674014583327,244.2084381666666,68.0,122.0
276,244.5527776458333,244.74145681249993,57.0,102.0
277,244.83579639583328,245.90655066666662,64.0,102.0
278,246.53390889583326,246.90655024999995,57.0,93.0
279,247.09994639583329,247.99145545833326,69.0,112.0
280,249.08107764583326,249.25088889583327,57.0,97.0
281,249.3640963958333,250.60702040624994,64.0,112.0
282,251.06220889583327,251.17069941666662,57.0,88.0
283,251.3452276458333,251.49145399999995,57.0,92.0
284,251.6282463958333,251.74381238541662,59.0,89.0
285,251.91126514583328,252.03154811458327,59.0,88.0
286,252.19428389583328,252.30041592708326,59.0,89.0
287,252.47730264583328,252.5834346770833,59.0,89.0
288,252.76032139583327,252.95843452083326,59.0,99.0
289,253.04334014583327,253.19664196874993,57.0,102.0
290,253.60937764583326,253.8923963958333,61.0,112.0
291,253.8923963958333,255.0056034791666,59.0,95.0
292,255.59050889583327,255.97258420833327,57.0,107.0
293,256.1565463958333,256.9206970208333,69.0,127.0
294,258.13767764583326,258.4584322291666,57.0,92.0
295,258.42069639583326,259.5008846249999,64.0,99.0
296,260.4018276458333,260.6306011354166,57.0,99.0
297,260.6848463958333,260.8145633229166,69.0,107.0
298,260.9678651458333,261.0881481145833,69.0,99.0
299,261.2508838958333,261.3570159270833,69.0,100.0
300,261.5339026458333,261.63767618749995,69.0,100.0
301,261.8169213958333,262.0173930104166,69.0,122.0
302,262.0999401458333,262.3216381666666,68.0,122.0
303,262.66597764583327,262.85465681249997,57.0,102.0
304,262.94899639583326,264.0197506666666,64.0,102.0
305,264.6471088958333,264.7980522291666,57.0,93.0
306,264.9301276458333,265.14710868749995,57.0,107.0
307,265.2131463958333,265.4631462916666,69.0,112.0
308,265.4961651458333,265.6235235833333,69.0,127.0
309,265.7791838958333,265.91833478124994,69.0,112.0
310,266.0622026458333,266.3475798854166,69.0,127.0
311,267.19427764583327,267.3640888958333,57.0,97.0
312,267.47729639583326,267.87823962499994,64.0,112.0
313,268.04333389583326,268.1801262916666,64.0,99.0
314,268.32635264583325,268.5763525416666,64.0,99.0
315,268.89239014583325,269.09522024999995,61.0,112.0
316,269.1754088958333,269.32871071874996,59.0,93.0
317,269.4584276458333,269.63295587499994,57.0,95.0
318,269.7414463958333,270.32871030208327,59.0,99.0
319,270.8735213958333,271.1494646770833,61.0,127.0
320,271.1565401458333,271.4136155104166,59.0,114.0
321,271.72257764583327,271.8711624895833,57.0,93.0
322,272.00559639583327,274.0079540520833,57.0,100.0
