,start,end,pitch,velocity
0,0.13679239583333333,2.280659427083333,45.0,64.0
1,0.4198111458333333,2.436319739583333,52.0,60.0
2,0.7028298958333332,2.471697083333333,57.0,52.0
3,1.5518861458333333,2.521225364583333,61.0,42.0
4,0.9858486458333332,3.129715677083333,64.0,82.0
5,2.683961145833333,3.924526666666666,52.0,58.0
6,2.400942395833333,3.985847395833333,45.0,45.0
7,2.966979895833333,4.721696145833333,56.0,65.0
8,3.249998645833333,4.81839421875,64.0,61.0
9,3.816036145833333,5.304243072916666,61.0,51.0
10,5.514148645833333,6.443393541666666,62.0,64.0
11,4.665092395833333,6.764148124999999,38.0,56.0
12,4.948111145833333,6.929242395833333,45.0,52.0
13,5.231129895833333,6.929242395833333,50.0,69.0
14,6.3632048958333325,6.929242395833333,57.0,42.0
15,6.646223645833333,6.929242395833333,62.0,38.0
16,5.514148645833333,6.929242395833333,66.0,61.0
17,6.929242395833333,8.891505729166665,47.0,51.0
18,6.929242395833333,8.905656666666665,40.0,56.0
19,6.929242395833333,9.136788645833333,52.0,50.0
20,6.929242395833333,9.205184843749999,62.0,78.0
21,6.929242395833333,9.23348671875,66.0,72.0
22,6.929242395833333,9.240562187499998,57.0,81.0
23,9.476411145833332,10.396222083333333,52.0,43.0
24,10.608486145833332,10.860844531249999,52.0,56.0
25,9.193392395833332,10.879712447916665,45.0,59.0
26,10.891504895833332,11.433957499999998,61.0,93.0
27,10.042448645833332,11.438674479166666,64.0,96.0
28,9.759429895833332,11.478768802083332,57.0,69.0
29,12.023579895833333,12.643862656249999,49.0,59.0
30,11.740561145833333,13.068390781249999,44.0,35.0
31,12.872636145833333,13.122636041666665,49.0,38.0
32,11.457542395833332,13.202824687499998,37.0,60.0
33,13.438673645833331,13.721692395833331,52.0,71.0
34,13.155654895833331,13.721692395833331,56.0,82.0
35,12.306598645833333,13.721692395833331,61.0,90.0
36,14.570748645833332,14.896220208333332,62.0,52.0
37,14.287729895833332,14.903295677083332,59.0,83.0
38,14.004711145833332,15.023578645833332,54.0,76.0
39,15.136786145833332,15.356125677083332,54.0,59.0
40,13.721692395833331,15.424521874999998,47.0,82.0
41,15.419804895833332,16.0047103125,62.0,56.0
42,14.853767395833332,16.018861249999997,66.0,97.0
43,16.83489864583333,17.191030572916667,56.0,76.0
44,16.55187989583333,17.240558854166665,52.0,68.0
45,17.40093614583333,17.688671874999997,52.0,54.0
46,15.985842395833332,18.108483020833333,40.0,69.0
47,16.26886114583333,18.24999239583333,47.0,44.0
48,17.96697364583333,18.24999239583333,52.0,32.0
49,17.68395489583333,18.24999239583333,56.0,48.0
50,17.11791739583333,18.24999239583333,59.0,77.0
51,18.81602989583333,19.214614635416666,57.0,77.0
52,18.53301114583333,19.469331510416666,52.0,40.0
53,18.24999239583333,20.297161354166665,45.0,92.0
54,19.66508614583333,20.502349947916663,52.0,51.0
55,20.231123645833332,20.844330937499997,57.0,85.0
56,20.797161145833332,21.665085312499997,52.0,56.0
57,19.948104895833332,22.028292708333332,61.0,62.0
58,21.929236145833332,22.216971875,52.0,63.0
59,20.514142395833332,22.24527375,45.0,65.0
60,21.080179895833332,22.311311458333332,57.0,73.0
61,21.363198645833332,22.7547075,68.0,93.0
62,19.09904864583333,22.780650885416666,64.0,93.0
63,22.212254895833333,22.808952760416663,61.0,95.0
64,22.495273645833333,23.09433,57.0,77.0
65,23.34432989583333,24.004706979166663,50.0,70.0
66,24.19338614583333,24.438669062499997,50.0,57.0
67,22.778292395833333,24.620272760416665,38.0,83.0
68,24.47640489583333,24.955178281249996,66.0,92.0
69,24.75942364583333,24.98583864583333,62.0,62.0
70,23.62734864583333,24.988197135416666,57.0,88.0
71,23.06131114583333,25.01414052083333,45.0,43.0
72,25.60847989583333,26.016498593749997,52.0,86.0
73,25.32546114583333,26.318385260416665,47.0,60.0
74,25.04244239583333,26.653290781249996,40.0,69.0
75,26.45753614583333,26.702819062499998,47.0,61.0
76,26.74055489583333,27.266498072916665,52.0,81.0
77,26.17451739583333,27.266498072916665,56.0,99.0
78,25.89149864583333,27.294799947916665,59.0,100.0
79,27.87262989583333,28.202818437499996,57.0,78.0
80,27.58961114583333,28.44574286458333,52.0,55.0
81,28.72168614583333,29.06838411458333,52.0,34.0
82,27.30659239583333,29.0943275,45.0,70.0
83,29.28772364583333,29.57781786458333,57.0,63.0
84,29.00470489583333,29.686308385416663,61.0,52.0
85,28.15564864583333,29.870270572916663,64.0,92.0
86,29.85376114583333,30.639138177083332,56.0,68.0
87,30.985836145833332,31.252345468749997,56.0,47.0
88,29.57074239583333,31.370269947916665,44.0,82.0
89,30.13677989583333,31.37498692708333,61.0,43.0
90,31.26885489583333,31.832533906249996,68.0,69.0
91,30.419798645833332,31.879703697916664,64.0,82.0
92,31.55187364583333,31.938665937499998,61.0,64.0
93,32.11791114583333,32.688665625,49.0,58.0
94,32.40092989583333,32.71932598958333,54.0,63.0
95,31.83489239583333,32.73819390625,42.0,65.0
96,32.68394864583333,33.990551874999994,66.0,93.0
97,33.53300489583333,34.03772166666666,61.0,73.0
98,33.81602364583333,34.0896084375,57.0,66.0
99,34.66507989583333,35.306589062499995,49.0,54.0
100,34.38206114583333,35.7877209375,44.0,35.0
101,35.51413614583333,35.81838130208333,49.0,32.0
102,34.09904239583333,35.837249218749996,37.0,72.0
103,36.08017364583333,36.37026786458333,52.0,58.0
104,35.79715489583333,36.38677729166666,56.0,75.0
105,34.94809864583333,36.44573953125,61.0,86.0
106,36.92922989583333,37.60139942708333,50.0,67.0
107,36.36319239583333,37.90564458333333,38.0,69.0
108,37.77828614583333,37.97168229166666,50.0,43.0
109,36.64621114583333,37.99055020833333,45.0,43.0
110,38.06130489583333,38.566021666666664,62.0,59.0
111,37.21224864583333,38.566021666666664,66.0,95.0
112,38.34432364583333,38.69102161458333,57.0,78.0
113,39.19337989583333,39.877341875,49.0,57.0
114,38.91036114583333,40.14856817708333,44.0,53.0
115,38.62734239583333,40.18158703125,37.0,66.0
116,40.04243614583333,40.299511510416664,49.0,61.0
117,39.47639864583333,40.37262468749999,52.0,52.0
118,40.32545489583333,40.886775416666666,56.0,89.0
119,39.75941739583333,40.91507729166666,61.0,96.0
120,41.45752989583333,41.915076875,59.0,76.0
121,41.17451114583333,42.29479369791666,54.0,40.0
122,40.89149239583333,42.551869062499996,47.0,79.0
123,42.58960489583333,43.155642395833326,62.0,57.0
124,41.74054864583333,43.17686880208333,66.0,93.0
125,42.87262364583333,43.200453697916664,59.0,50.0
126,43.721679895833326,44.42922677083333,52.0,72.0
127,44.00469864583333,44.56601916666666,56.0,58.0
128,43.155642395833326,44.865547343749995,40.0,63.0
129,43.43866114583333,44.90800015625,47.0,35.0
130,44.57073614583333,45.084886874999995,52.0,58.0
131,44.853754895833326,45.45988671874999,56.0,73.0
132,45.13677364583333,45.46932067708333,59.0,56.0
133,44.287717395833326,45.502339531249994,64.0,63.0
134,45.98582989583333,46.35375427083333,57.0,78.0
135,45.70281114583333,46.64384848958333,52.0,52.0
136,45.419792395833326,47.08724453124999,45.0,72.0
137,46.83488614583333,47.09196151041666,52.0,56.0
138,47.40092364583333,47.7028103125,57.0,58.0
139,47.11790489583333,47.78299895833333,61.0,61.0
140,46.26884864583333,47.790074427083326,64.0,89.0
141,48.24997989583333,48.70516838541666,56.0,53.0
142,47.68394239583333,49.280639843749995,44.0,69.0
143,49.09903614583333,49.50705484375,56.0,58.0
144,49.38205489583333,49.97167729166666,61.0,67.0
145,48.53299864583333,49.974035781249995,64.0,72.0
146,49.66507364583333,49.99290369791666,56.0,63.0
147,50.51412989583333,51.19101640624999,54.0,90.0
148,51.363186145833325,51.48582760416666,54.0,36.0
149,50.23111114583333,51.49762005208333,49.0,35.0
150,49.94809239583333,51.58488416666666,42.0,59.0
151,51.08016739583333,51.778280312499994,61.0,74.0
152,50.79714864583333,52.183940520833325,66.0,93.0
153,51.64620489583333,52.20988390624999,57.0,75.0
154,51.929223645833325,52.21460088541666,61.0,61.0
155,52.77827989583333,53.43629848958333,49.0,72.0
156,52.495261145833325,53.811298333333326,44.0,59.0
157,52.21224239583333,53.83016625,37.0,61.0
158,53.627336145833326,53.893845468749994,49.0,59.0
159,53.061298645833325,54.01412843749999,52.0,74.0
160,54.193373645833326,54.4669584375,52.0,70.0
161,53.91035489583333,54.481109374999996,56.0,76.0
162,53.34431739583333,54.54243010416666,61.0,102.0
163,55.04242989583333,55.74997677083333,50.0,86.0
164,54.47639239583333,55.823089947916664,38.0,66.0
165,54.759411145833326,55.83959937499999,45.0,49.0
166,55.325448645833326,56.24290109374999,57.0,73.0
167,56.17450489583333,56.64856130208333,62.0,59.0
168,55.60846739583333,56.64856130208333,66.0,102.0
169,56.45752364583333,56.7311084375,57.0,79.0
170,57.30657989583333,57.950447552083325,49.0,72.0
171,57.02356114583333,58.32073041666666,44.0,35.0
172,56.74054239583333,58.386768124999996,37.0,76.0
173,58.15563614583333,58.41506999999999,49.0,66.0
174,57.58959864583333,58.51176807291666,52.0,67.0
175,58.72167364583333,58.955164114583326,52.0,81.0
176,58.43865489583333,58.966956562499995,56.0,95.0
177,57.87261739583333,58.988182968749996,61.0,99.0
178,59.28771114583333,59.662710989583324,59.0,71.0
179,59.570729895833324,60.05893723958333,66.0,99.0
180,59.00469239583333,60.13205041666666,47.0,76.0
181,59.85374864583333,60.14384286458333,59.0,68.0
182,60.136767395833324,60.82544635416666,40.0,66.0
183,60.41978614583333,60.89148406249999,47.0,54.0
184,60.98582364583333,61.25233296875,56.0,50.0
185,60.702804895833324,61.268842395833325,59.0,89.0
186,61.834879895833325,62.43157776041666,57.0,85.0
187,62.11789864583333,62.48346453124999,59.0,70.0
188,61.55186114583333,62.528275833333325,52.0,44.0
189,62.966954895833325,64.28535057291666,61.0,77.0
190,63.24997364583333,64.31129395833332,59.0,51.0
191,62.400917395833325,64.31129395833332,64.0,95.0
192,63.532992395833325,64.33487885416666,57.0,52.0
193,62.68393614583333,64.73582208333333,52.0,47.0
194,61.268842395833325,64.75233151041667,45.0,85.0
195,64.66506739583333,64.90563333333333,62.0,72.0
196,64.66506739583333,64.93629369791665,59.0,63.0
197,64.66506739583333,64.94101067708333,47.0,71.0
198,64.94808614583333,65.78534994791666,61.0,59.0
199,64.94808614583333,65.78534994791666,64.0,40.0
200,64.94808614583333,65.79950088541666,49.0,78.0
201,66.36317989583333,67.05421734375,50.0,95.0
202,66.64619864583332,67.37497192708332,57.0,81.0
203,65.79714239583333,67.54006619791666,38.0,82.0
204,67.21223614583333,67.57544354166666,50.0,82.0
205,66.08016114583333,67.60846239583333,45.0,72.0
206,67.49525489583333,68.07308484375,62.0,93.0
207,66.92921739583333,68.09902822916666,66.0,122.0
208,67.77827364583332,68.17449989583332,57.0,97.0
209,68.62732989583333,69.24525416666665,49.0,90.0
210,68.34431114583333,69.73581999999999,44.0,37.0
211,68.06129239583332,69.75232942708332,37.0,85.0
212,69.47638614583333,69.78298979166667,49.0,79.0
213,68.91034864583332,69.81600864583332,52.0,73.0
214,69.75940489583333,70.32308390624999,56.0,107.0
215,70.04242364583332,70.32544239583332,52.0,97.0
216,69.19336739583332,70.33487635416665,61.0,127.0
217,70.89147989583333,71.54949848958333,50.0,97.0
218,71.17449864583332,71.81364932291666,57.0,82.0
219,70.32544239583332,72.03770583333332,38.0,83.0
220,71.74053614583333,72.03770583333332,50.0,85.0
221,70.60846114583333,72.10374354166666,45.0,48.0
222,71.45751739583332,72.62496973958332,66.0,127.0
223,72.02355489583333,72.63204520833332,62.0,99.0
224,72.30657364583332,72.67213953125,57.0,95.0
225,73.43864864583333,73.64147874999999,61.0,54.0
226,73.43864864583333,73.65327119791667,64.0,68.0
227,73.15562989583333,73.78534661458333,49.0,76.0
228,73.72166739583332,74.36553505208333,61.0,96.0
229,74.00468614583333,74.37496901041666,49.0,85.0
230,72.87261114583333,74.38440296875,44.0,56.0
231,72.58959239583332,74.40562937499999,37.0,83.0
232,74.28770489583333,74.8160065625,56.0,112.0
233,74.57072364583333,74.84666692708332,61.0,99.0
234,73.72166739583332,74.87968578124999,64.0,86.0
235,75.41977989583333,76.15798713541666,50.0,93.0
236,74.85374239583332,76.38911911458332,38.0,78.0
237,76.26883614583332,76.42449645833332,50.0,92.0
238,75.13676114583333,76.49053416666666,45.0,67.0
239,75.70279864583333,76.49760963541667,57.0,78.0
240,76.55185489583333,77.07308109374999,62.0,92.0
241,75.98581739583332,77.09902447916666,66.0,127.0
242,76.83487364583333,77.16034520833333,57.0,89.0
243,77.68392989583333,78.38440130208332,49.0,61.0
244,77.40091114583332,78.74053322916666,44.0,65.0
245,77.11789239583332,78.76647661458333,37.0,76.0
246,78.53298614583332,78.86553317708332,49.0,88.0
247,77.96694864583333,78.87260864583332,56.0,85.0
248,78.81600489583333,79.35374052083333,61.0,82.0
249,79.09902364583333,79.35845749999999,56.0,99.0
250,78.24996739583332,79.36553296874999,64.0,89.0
251,79.94807989583333,80.31600427083333,59.0,95.0
252,80.23109864583333,80.54006078124999,62.0,88.0
253,79.66506114583332,80.69100411458332,54.0,70.0
254,80.79713614583332,80.99053229166665,54.0,90.0
255,79.38204239583332,81.01883416666666,47.0,75.0
256,80.51411739583332,81.47402265624999,66.0,122.0
257,81.36317364583333,81.66741880208332,59.0,85.0
258,81.08015489583333,81.66741880208332,62.0,95.0
259,82.21222989583333,82.49289015625,52.0,96.0
260,82.49524864583333,82.69100328124999,59.0,90.0
261,82.49524864583333,82.69807875,56.0,97.0
262,81.92921114583332,82.93392770833333,47.0,93.0
263,83.06128614583332,83.38675770833332,47.0,83.0
264,81.64619239583332,83.43156901041665,40.0,89.0
265,82.77826739583332,83.43156901041665,56.0,117.0
266,83.34430489583332,83.89147447916666,52.0,97.0
267,83.62732364583333,83.91270088541665,56.0,102.0
268,82.77826739583332,83.91977635416666,59.0,96.0
269,84.47637989583332,85.13911546874999,50.0,95.0
270,84.75939864583333,85.78298312499999,66.0,97.0
271,84.75939864583333,85.80892651041665,62.0,96.0
272,83.91034239583333,85.8820396875,38.0,92.0
273,84.19336114583332,85.8820396875,45.0,60.0
274,85.32543614583332,85.8820396875,50.0,81.0
275,85.60845489583332,85.8820396875,57.0,95.0
276,86.74052989583332,87.37968057291666,49.0,89.0
277,86.45751114583332,87.70279364583332,44.0,47.0
278,86.17449239583333,87.71694458333333,37.0,90.0
279,87.58958614583332,87.86552942708333,49.0,77.0
280,87.02354864583333,87.91269921874999,52.0,73.0
281,88.15562364583333,88.33251036458333,52.0,81.0
282,87.87260489583332,88.33722734374999,56.0,99.0
283,87.30656739583333,88.34194432291666,61.0,112.0
284,88.43864239583333,88.97873651041665,47.0,93.0
285,89.00467989583332,89.48817026041665,66.0,112.0
286,89.28769864583333,89.5329815625,62.0,93.0
287,88.72166114583332,89.55892494791665,59.0,75.0
288,89.57071739583333,90.38675479166666,40.0,70.0
289,89.85373614583332,90.43156609374999,47.0,77.0
290,90.13675489583332,90.65562260416665,52.0,99.0
291,90.41977364583333,90.71458484374999,56.0,93.0
292,91.26882989583332,91.54949015624999,57.0,97.0
293,91.55184864583332,91.73345234374999,64.0,78.0
294,91.55184864583332,91.74524479166666,61.0,97.0
295,90.98581114583332,91.97873526041666,52.0,66.0
296,90.70279239583333,92.37967848958333,45.0,76.0
297,92.11788614583332,92.38203697916666,52.0,90.0
298,91.83486739583333,92.46930109374999,61.0,127.0
299,92.40090489583332,92.77590473958332,59.0,97.0
300,91.83486739583333,92.93628203124999,64.0,100.0
301,92.68392364583332,92.99288578125,61.0,117.0
302,93.81599864583332,93.88675333333332,57.0,59.0
303,93.81599864583332,94.02590421874999,66.0,56.0
304,93.81599864583332,94.03533817708332,62.0,72.0
305,93.53297989583332,94.22637583333332,50.0,96.0
306,92.96694239583333,94.46694177083333,38.0,88.0
307,94.38203614583333,94.54948890624999,50.0,79.0
308,93.24996114583332,94.58722473958332,45.0,77.0
309,94.09901739583333,94.70750770833332,62.0,102.0
310,94.94807364583332,95.18628109375,62.0,79.0
311,94.09901739583333,95.19571505208333,66.0,112.0
312,94.66505489583332,95.27590369791666,57.0,85.0
313,95.79712989583332,96.15326182291666,49.0,89.0
314,95.23109239583333,96.15562031249999,37.0,90.0
315,96.08014864583332,96.19571463541666,61.0,35.0
316,95.51411114583333,96.23816744791665,44.0,56.0
317,96.08014864583332,96.311280625,52.0,90.0
318,96.36316739583333,96.96694072916665,42.0,83.0
319,96.64618614583333,97.07307276041665,54.0,66.0
320,97.21222364583332,97.44571411458332,54.0,97.0
321,96.92920489583332,97.44571411458332,61.0,99.0
322,97.49524239583333,98.04005348958333,47.0,92.0
323,98.34429864583332,98.58958156249999,62.0,50.0
324,98.06127989583332,98.60844947916665,66.0,102.0
325,97.77826114583333,98.68156265625,59.0,77.0
326,98.62731739583333,99.30184541666665,40.0,74.0
327,98.91033614583333,99.35137369791666,47.0,53.0
328,99.19335489583332,99.73344901041666,59.0,89.0
329,100.32542989583332,100.87259947916665,57.0,72.0
330,100.60844864583332,100.93156171874999,61.0,76.0
331,100.04241114583333,100.95514661458333,52.0,56.0
332,101.17448614583333,102.4276153125,52.0,52.0
333,99.75939239583332,102.52136529999999,45.0,77.0
334,100.89146739583332,102.55261529583332,64.0,81.0
335,101.45750489583332,102.60549990416666,61.0,58.0
336,101.74052364583332,102.66078835833332,57.0,49.0
337,103.18001905833333,104.20623444791666,40.0,62.0
338,103.18001905833333,104.25576272916666,52.0,60.0
339,103.18001905833333,104.26755517708332,56.0,62.0
340,103.18001905833333,104.29821554166666,59.0,67.0
341,105.46330939583333,105.70151684375,50.0,53.0
342,104.33123439583333,105.71566778124999,38.0,77.0
343,104.89727189583333,105.7651960625,45.0,59.0
344,105.46330939583333,106.62604476041666,62.0,82.0
345,105.46330939583333,106.66849757291666,66.0,89.0
346,106.02934689583333,106.70151642708333,57.0,56.0
347,107.16142189583333,108.16613845833332,44.0,34.0
348,106.59538439583332,108.20387429166666,37.0,79.0
349,108.01047814583333,108.30057236458333,49.0,65.0
350,107.72745939583332,108.41849684374999,56.0,83.0
351,108.29349689583333,108.76047783333333,52.0,74.0
352,108.57651564583333,108.85245892708333,56.0,64.0
353,107.72745939583332,108.864251375,61.0,96.0
354,109.42557189583333,109.91377923958333,59.0,63.0
355,109.14255314583333,110.35953377083332,54.0,50.0
356,108.85953439583332,110.54113746875,47.0,60.0
357,109.70859064583333,111.14491080208333,62.0,55.0
358,110.55764689583333,111.15198627083333,66.0,97.0
359,110.84066564583333,111.1991560625,59.0,76.0
360,111.68972189583333,111.96566517708332,57.0,79.0
361,111.97274064583333,112.19443866666666,64.0,88.0
362,111.97274064583333,112.20858960416666,61.0,99.0
363,111.40670314583333,112.42792913541666,52.0,55.0
364,112.53877814583333,112.80292897916667,52.0,67.0
365,112.25575939583332,112.84774028125,61.0,95.0
366,111.12368439583332,112.86660819791666,45.0,73.0
367,112.82179689583333,113.40198533333333,59.0,88.0
368,112.25575939583332,113.43736267708333,64.0,88.0
369,113.10481564583333,113.44915512499999,61.0,85.0
370,113.95387189583333,114.7085885625,50.0,82.0
371,114.80292814583333,114.97273939583333,50.0,64.0
372,113.38783439583332,115.06472048958332,38.0,75.0
373,113.67085314583332,115.08122991666666,45.0,53.0
374,114.23689064583333,115.60245611458333,62.0,73.0
375,114.23689064583333,115.6142485625,66.0,86.0
376,115.08594689583333,115.62604101041666,57.0,75.0
377,116.21802189583333,116.78170090625,49.0,54.0
378,115.93500314583332,117.29113465625,44.0,56.0
379,115.65198439583332,117.31000257291666,37.0,70.0
380,117.06707814583334,117.44679496875,49.0,56.0
381,116.50104064583333,117.49868173958333,61.0,67.0
382,117.35009689583333,117.87604007291667,56.0,96.0
383,117.63311564583333,117.93028533333333,61.0,58.0
384,116.50104064583333,117.95858720833333,64.0,72.0
385,118.48217189583333,119.13075653125,59.0,68.0
386,118.19915314583332,119.24632252083333,54.0,63.0
387,119.33122814583332,119.54113371874999,54.0,63.0
388,117.91613439583332,119.57886955208333,47.0,77.0
389,119.04820939583333,119.62603934375,62.0,78.0
390,119.89726564583333,119.94207694791666,40.0,27.0
391,118.76519064583333,120.1708504375,66.0,102.0
392,119.61424689583333,120.21566173958333,59.0,83.0
393,119.89726564583333,120.21566173958333,62.0,76.0
394,121.02934064583333,121.2463216875,56.0,69.0
395,121.02934064583333,121.2463216875,64.0,71.0
396,121.02934064583333,121.25339715624999,59.0,65.0
397,121.31235939583333,121.3878310625,56.0,74.0
398,120.74632189583332,121.39254804166666,52.0,93.0
399,121.59537814583332,121.87367991666666,52.0,76.0
400,120.46330314583332,122.42084949999999,47.0,76.0
401,120.18028439583333,122.45858533333333,40.0,89.0
402,121.31235939583333,122.47037778125,59.0,90.0
403,121.87839689583333,122.48924569791666,56.0,88.0
404,121.31235939583333,122.51754757291665,64.0,75.0
405,123.01047189583332,123.34066043749999,57.0,78.0
406,122.72745314583332,123.58358486458333,52.0,55.0
407,123.85952814583332,124.20622611458333,52.0,34.0
408,122.44443439583333,124.2321695,45.0,70.0
409,124.42556564583333,124.71593194999998,57.0,63.0
410,124.14254689583333,124.82462764999998,61.0,52.0
411,123.29349064583333,125.00893774999999,64.0,92.0
412,124.99239709999999,125.77925944999998,56.0,68.0
413,126.12661309999999,126.39362644999999,56.0,47.0
414,124.70884309999998,126.51177394999999,44.0,82.0
415,125.27595109999999,126.51649984999999,61.0,43.0
416,126.41016709999998,126.97491215,68.0,69.0
417,125.55950509999998,127.02217114999999,64.0,82.0
418,126.69372109999999,127.08124489999999,61.0,64.0
419,127.26082909999998,127.83266299999998,49.0,58.0
420,127.54438309999999,127.86338134999998,54.0,63.0
421,126.97727509999999,127.88228494999998,42.0,65.0
422,127.82793709999999,129.13701139999998,66.0,93.0
423,128.67859909999999,129.18427039999997,61.0,73.0
424,128.9621531,129.23625529999998,57.0,66.0
425,129.8128151,130.4555375,49.0,54.0
426,129.52926109999999,130.93757929999998,44.0,35.0
427,130.6634771,130.96829764999998,49.0,32.0
428,129.24570709999998,130.98720125,37.0,72.0
429,131.23058509999998,131.52122795,52.0,58.0
430,130.94703109999998,131.5377686,56.0,75.0
431,130.09636909999998,131.59684234999997,61.0,86.0
432,132.08124709999998,132.75468784999998,50.0,67.0
433,131.5141391,133.0595084,38.0,69.0
434,132.93190909999998,133.12567099999998,50.0,43.0
435,131.79769309999998,133.1445746,45.0,43.0
436,133.2154631,133.72113439999998,62.0,59.0
437,132.3648011,133.72113439999998,66.0,95.0
438,133.49901709999997,133.84637074999998,57.0,78.0
439,134.34967909999997,135.03493459999999,49.0,57.0
440,134.0661251,135.30667384999998,44.0,53.0
441,133.78257109999998,135.33975514999997,37.0,66.0
442,135.20034109999997,135.45790265,49.0,61.0
443,134.63323309999998,135.53115409999998,52.0,52.0
444,135.48389509999998,136.0462772,56.0,89.0
445,134.9167871,136.07463259999997,61.0,96.0
446,136.6181111,137.07652339999999,59.0,76.0
447,136.33455709999998,137.45695834999998,54.0,40.0
448,136.0510031,137.7145199,47.0,79.0
449,137.7523271,138.3194351,62.0,57.0
450,136.9016651,138.34070165,66.0,93.0
451,138.03588109999998,138.36433115,59.0,50.0
452,138.88654309999998,139.5954281,52.0,72.0
453,139.1700971,139.7324792,56.0,58.0
454,138.3194351,140.03257384999998,40.0,63.0
455,138.6029891,140.07510695,47.0,35.0
456,139.73720509999998,140.2523282,52.0,58.0
457,140.0207591,140.62803724999998,56.0,73.0
458,140.3043131,140.63748905,59.0,56.0
459,139.4536511,140.67057035,64.0,63.0
460,141.1549751,141.52359529999998,57.0,78.0
461,140.8714211,141.81423815,52.0,52.0
462,140.58786709999998,142.25847274999998,45.0,72.0
463,142.0056371,142.26319865,52.0,56.0
464,142.5727451,142.8752027,57.0,58.0
465,142.28919109999998,142.95554299999998,61.0,61.0
466,141.43852909999998,142.96263184999998,64.0,89.0
467,143.4234071,143.8794318833333,56.0,53.0
468,142.8562991,144.45544674999996,44.0,69.0
469,144.27367156666665,144.68207554999998,56.0,58.0
470,144.55695756666665,145.1471367333333,61.0,67.0
471,143.7069611,145.14949744999998,64.0,72.0
472,144.84024356666663,145.1683831833333,56.0,63.0
473,145.69010156666664,146.36762724999997,54.0,90.0
474,146.53995956666665,146.66271683333332,54.0,36.0
475,145.40681556666664,146.67452041666664,49.0,35.0
476,145.12352956666663,146.7618669333333,42.0,59.0
477,146.25667356666665,146.95544569999998,61.0,74.0
478,145.97338756666664,147.36148896666663,66.0,93.0
479,146.82324556666663,147.38745684999998,57.0,75.0
480,147.10653156666663,147.3921782833333,61.0,61.0
481,147.95638956666664,148.61502951666665,49.0,72.0
482,147.67310356666664,148.99038346666663,44.0,59.0
483,147.38981756666664,149.00926919999998,37.0,61.0
484,148.80624756666663,149.07300854999997,49.0,59.0
485,148.23967556666665,149.19340509999998,52.0,74.0
486,149.37281956666664,149.64666269999998,52.0,70.0
487,149.08953356666663,149.66082699999998,56.0,76.0
488,148.52296156666665,149.72220563333332,61.0,102.0
489,150.22267756666665,150.93089256666664,50.0,86.0
490,149.65610556666664,151.0040747833333,38.0,66.0
491,149.93939156666664,151.02059979999999,45.0,49.0
492,150.50596356666665,151.42428234999997,57.0,73.0
493,151.35582156666663,151.83032561666664,62.0,59.0
494,150.78924956666663,151.83032561666664,66.0,102.0
495,151.63910756666664,151.91295069999998,57.0,79.0
496,152.48896556666665,153.13344121666665,49.0,72.0
497,152.20567956666665,153.5040737333333,44.0,35.0
498,151.92239356666664,153.57017379999996,37.0,76.0
499,153.33882356666663,153.59850239999997,49.0,66.0
500,152.77225156666663,153.69529178333332,52.0,67.0
501,153.90539556666664,154.13910651666663,52.0,81.0
502,153.62210956666664,154.15091009999998,56.0,95.0
503,153.05553756666663,154.17215654999998,61.0,99.0
504,154.47196756666665,154.84732151666663,59.0,71.0
505,154.75525356666665,155.24392191666664,66.0,99.0
506,154.18868156666665,155.31710413333332,47.0,76.0
507,155.03853956666663,155.32890771666663,59.0,68.0
508,155.32182556666663,156.0111548333333,40.0,66.0
509,155.60511156666664,156.07725489999999,47.0,54.0
510,156.17168356666664,156.43844454999999,56.0,50.0
511,155.88839756666664,156.45496956666665,59.0,89.0
512,157.02154156666663,157.6188028833333,57.0,85.0
513,157.30482756666663,157.67073864999998,59.0,70.0
514,156.73825556666665,157.71559226666665,52.0,44.0
515,158.15468556666664,159.47432618333332,61.0,77.0
516,158.43797156666665,159.50029406666664,59.0,51.0
517,157.58811356666664,159.50029406666664,64.0,95.0
518,158.72125756666665,159.5239012333333,57.0,52.0
519,157.87139956666664,159.92522306666663,52.0,47.0
520,156.45496956666665,159.9417480833333,45.0,85.0
521,159.85440156666664,160.09519466666663,62.0,72.0
522,159.85440156666664,160.1258839833333,59.0,63.0
523,159.85440156666664,160.13060541666664,47.0,71.0
524,160.13768756666664,160.9757419833333,61.0,59.0
525,160.13768756666664,160.9757419833333,64.0,40.0
526,160.13768756666664,160.9899062833333,49.0,78.0
527,161.55411756666663,162.24580754999997,50.0,95.0
528,161.83740356666664,162.56686501666664,57.0,81.0
529,160.98754556666665,162.7321151833333,38.0,82.0
530,162.40397556666665,162.7675259333333,50.0,82.0
531,161.27083156666663,162.80057596666663,45.0,72.0
532,162.68726156666665,163.26563714999998,62.0,93.0
533,162.12068956666664,163.2916050333333,66.0,122.0
534,162.97054756666665,163.36714796666664,57.0,97.0
535,163.82040556666664,164.43891333333332,49.0,90.0
536,163.53711956666663,164.92994239999996,44.0,37.0
537,163.25383356666663,164.94646741666665,37.0,85.0
538,164.67026356666665,164.97715673333332,49.0,79.0
539,164.10369156666664,165.01020676666664,52.0,73.0
540,164.95354956666665,165.51776084999997,56.0,107.0
541,165.23683556666663,165.52012156666663,52.0,97.0
542,164.38697756666664,165.5295644333333,61.0,127.0
543,166.08669356666664,166.74533351666665,50.0,97.0
544,166.36997956666664,167.0097337833333,57.0,82.0
545,165.52012156666663,167.23400186666663,38.0,83.0
546,166.93655156666665,167.23400186666663,50.0,85.0
547,165.80340756666664,167.3001019333333,45.0,48.0
548,166.65326556666665,167.82182031666665,66.0,127.0
549,167.21983756666663,167.82890246666665,62.0,99.0
550,167.50312356666663,167.86903464999997,57.0,95.0
551,168.63626756666665,168.83928919999997,61.0,54.0
552,168.63626756666665,168.8510927833333,64.0,68.0
553,168.35298156666664,168.98329291666664,49.0,76.0
554,168.91955356666665,169.56402921666665,61.0,96.0
555,169.20283956666663,169.57347208333331,49.0,85.0
556,168.06969556666664,169.58291494999997,44.0,56.0
557,167.78640956666663,169.60416139999998,37.0,83.0
558,169.48612556666663,170.01492609999997,56.0,112.0
559,169.76941156666663,170.04561541666664,61.0,99.0
560,168.91955356666665,170.07866544999996,64.0,86.0
561,170.61926956666665,171.3581738833333,50.0,93.0
562,170.05269756666664,171.58952411666664,38.0,78.0
563,171.46912756666663,171.62493486666665,50.0,92.0
564,170.33598356666664,171.6910349333333,45.0,67.0
565,170.90255556666665,171.6981170833333,57.0,78.0
566,171.75241356666663,172.27413194999997,62.0,92.0
567,171.18584156666662,172.30009983333332,66.0,127.0
568,172.03569956666664,172.36147846666665,57.0,89.0
569,172.88555756666665,173.58669041666664,49.0,61.0
570,172.60227156666664,173.9431586333333,44.0,65.0
571,172.31898556666664,173.96912651666665,37.0,76.0
572,173.73541556666663,174.06827661666665,49.0,88.0
573,173.16884356666662,174.07535876666662,56.0,85.0
574,174.01870156666664,174.55694496666663,61.0,82.0
575,174.30198756666664,174.56166639999998,56.0,99.0
576,173.45212956666663,174.56874854999998,64.0,89.0
577,175.15184556666662,175.52011736666663,59.0,95.0
578,175.43513156666663,175.74438544999998,62.0,88.0
579,174.86855956666665,175.89547131666663,54.0,70.0
580,176.00170356666663,176.1952823333333,54.0,90.0
581,174.58527356666664,176.2236109333333,47.0,75.0
582,175.71841756666663,176.67922924999996,66.0,122.0
583,176.56827556666664,176.87280801666662,59.0,85.0
584,176.28498956666664,176.87280801666662,62.0,95.0
585,177.41813356666665,177.69905884999997,52.0,96.0
586,177.70141956666663,177.89735904999998,59.0,90.0
587,177.70141956666663,177.90444119999998,56.0,97.0
588,177.13484756666662,178.14051286666665,47.0,93.0
589,178.26799156666664,178.59377046666663,47.0,83.0
590,176.85156156666665,178.6386240833333,40.0,89.0
591,177.98470556666663,178.6386240833333,56.0,117.0
592,178.55127756666664,179.0989638333333,52.0,97.0
593,178.83456356666665,179.1202102833333,56.0,102.0
594,177.98470556666663,179.1272924333333,59.0,96.0
595,179.68442156666663,180.34778294999995,50.0,95.0
596,179.96770756666663,180.99225859999996,66.0,97.0
597,179.96770756666663,181.0182264833333,62.0,96.0
598,179.11784956666662,181.09140869999996,38.0,92.0
599,179.40113556666665,181.09140869999996,45.0,60.0
600,180.53427956666664,181.09140869999996,50.0,81.0
601,180.81756556666664,181.09140869999996,57.0,95.0
602,181.95070956666663,182.5904637833333,49.0,89.0
603,181.66742356666663,182.91388196666662,44.0,47.0
604,181.38413756666665,182.92804626666663,37.0,90.0
605,182.80056756666664,183.07677141666665,49.0,77.0
606,182.23399556666664,183.12398574999997,52.0,73.0
607,183.36713956666665,183.54419331666662,52.0,81.0
608,183.08385356666665,183.54891474999997,56.0,99.0
609,182.51728156666664,183.5536361833333,61.0,112.0
610,183.65042556666663,184.1910296833333,47.0,93.0
611,184.21699756666663,184.7009444833333,66.0,112.0
612,184.50028356666664,184.74579809999997,62.0,93.0
613,183.93371156666663,184.7717659833333,59.0,75.0
614,184.78356956666664,185.6003775333333,40.0,70.0
615,185.06685556666665,185.64523114999997,47.0,77.0
616,185.35014156666665,185.8694992333333,52.0,99.0
617,185.63342756666663,185.92851714999998,56.0,93.0
618,186.48328556666664,186.76421084999998,57.0,97.0
619,186.76657156666664,186.94834674999998,64.0,78.0
620,186.76657156666664,186.9601503333333,61.0,97.0
621,186.19999956666663,187.19386128333332,52.0,66.0
622,185.91671356666663,187.59518311666665,45.0,76.0
623,187.33314356666665,187.5975438333333,52.0,90.0
624,187.04985756666665,187.68489034999996,61.0,127.0
625,187.61642956666662,187.99178351666663,59.0,97.0
626,187.04985756666665,188.15231224999997,64.0,100.0
627,187.89971556666663,188.20896944999998,61.0,117.0
628,189.03285956666664,189.10368106666664,57.0,59.0
629,189.03285956666664,189.24296334999997,66.0,56.0
630,189.03285956666664,189.25240621666663,62.0,72.0
631,188.74957356666664,189.44362426666663,50.0,96.0
632,188.18300156666663,189.68441736666665,38.0,88.0
633,189.59943156666662,189.76704244999996,50.0,79.0
634,188.46628756666664,189.80481391666663,45.0,77.0
635,189.31614556666665,189.92521046666664,62.0,102.0
636,190.16600356666663,190.40443594999996,62.0,79.0
637,189.31614556666665,190.41387881666662,66.0,112.0
638,189.88271756666663,190.4941431833333,57.0,85.0
639,191.01586156666664,191.3723297833333,49.0,89.0
640,190.44928956666664,191.37469049999999,37.0,90.0
641,191.29914756666665,191.4148226833333,61.0,35.0
642,190.73257556666664,191.4573155833333,44.0,56.0
643,191.29914756666665,191.53049779999998,52.0,90.0
644,191.58243356666662,192.1867770333333,42.0,83.0
645,191.86571956666663,192.2930092833333,54.0,66.0
646,192.43229156666663,192.66600251666665,54.0,97.0
647,192.14900556666663,192.66600251666665,61.0,99.0
648,192.71557756666664,193.26090311666664,47.0,92.0
649,193.56543556666662,193.81095009999996,62.0,50.0
650,193.28214956666665,193.8298358333333,66.0,102.0
651,192.99886356666664,193.90301804999996,59.0,77.0
652,193.84872156666663,194.5238865333333,40.0,74.0
653,194.13200756666663,194.5734615833333,47.0,53.0
654,194.41529356666663,194.95589768333332,59.0,89.0
655,195.54843756666662,196.1102881333333,57.0,83.0
656,195.83172356666662,196.17874891666662,59.0,58.0
657,195.26515156666665,196.25665256666665,52.0,66.0
658,196.68158156666664,198.23257241666664,61.0,85.0
659,196.11500956666663,198.26090101666665,64.0,97.0
660,196.96486756666664,198.27978674999997,59.0,66.0
661,196.39829556666663,198.51585841666665,52.0,53.0
662,197.24815356666664,199.0068874833333,57.0,77.0
663,194.98186556666664,199.29253419999998,45.0,92.0
664,198.94786956666664,199.52152371666665,59.0,66.0
665,198.66458356666664,199.5380487333333,52.0,53.0
666,198.38129756666663,199.58998449999996,64.0,88.0
667,200.08101356666663,200.89782153333329,52.0,52.0
668,199.51444156666662,200.93795371666664,45.0,83.0
669,201.21415756666664,201.86335464999996,57.0,69.0
670,200.64758556666663,201.91292969999998,64.0,89.0
671,202.34730156666663,202.95636646666662,56.0,70.0
672,201.78072956666665,203.67874576666662,44.0,69.0
673,203.48044556666662,204.09423189999995,49.0,68.0
674,202.91387356666664,204.26420349999995,64.0,66.0
675,202.91387356666664,204.7505111333333,61.0,72.0
676,205.18016156666664,205.57676196666665,54.0,42.0
677,204.61358956666663,205.64050131666664,49.0,44.0
678,204.04701756666663,205.76089786666662,42.0,82.0
679,205.18016156666664,206.36288061666664,64.0,63.0
680,205.18016156666664,206.38176634999996,61.0,66.0
681,205.74673356666665,206.40537351666663,57.0,58.0
682,207.44644956666664,207.85485354999997,49.0,50.0
683,206.87987756666664,207.87609999999995,44.0,62.0
684,206.31330556666663,207.87846071666664,37.0,66.0
685,207.44644956666664,208.20187889999997,56.0,56.0
686,208.01302156666662,208.5819542833333,52.0,66.0
687,208.29630756666666,208.60084001666664,56.0,62.0
688,207.44644956666664,208.65749721666663,61.0,66.0
689,209.14616556666664,210.05740219999996,50.0,75.0
690,208.86287956666663,210.16363444999996,45.0,59.0
691,208.57959356666663,210.18724161666665,38.0,71.0
692,209.42945156666661,210.7986672333333,66.0,92.0
693,210.27930956666665,210.81755296666665,62.0,64.0
694,210.56259556666663,210.93558879999995,57.0,57.0
695,211.97902556666662,212.34021521666665,61.0,66.0
696,210.84588156666663,212.40867599999996,37.0,82.0
697,211.4124535666666,212.41575815,44.0,45.0
698,211.97902556666662,212.54323684999997,49.0,62.0
699,212.26231156666665,212.66599411666664,56.0,52.0
700,211.97902556666662,212.67307626666664,64.0,68.0
701,212.54559756666663,213.0578730833333,61.0,66.0
702,212.82888356666663,213.08856239999997,64.0,56.0
703,213.39545556666664,214.3609886833333,54.0,77.0
704,214.52859956666663,214.77647481666662,54.0,50.0
705,213.67874156666664,214.80480341666663,59.0,57.0
706,213.11216956666664,214.8638213333333,47.0,64.0
707,214.81188556666663,215.39026114999996,62.0,54.0
708,213.96202756666662,215.39970401666665,66.0,99.0
709,215.09517156666664,215.42095046666662,59.0,66.0
710,216.22831556666665,216.3581549833333,64.0,41.0
711,216.22831556666665,216.62255524999995,56.0,59.0
712,215.94502956666662,216.62491596666663,52.0,93.0
713,215.37845756666664,217.11122359999996,40.0,89.0
714,216.51160156666663,217.12066646666665,59.0,88.0
715,215.66174356666664,217.13483076666665,47.0,63.0
716,216.79488756666663,217.26230946666664,52.0,85.0
717,217.07817356666663,217.59044908333328,56.0,92.0
718,217.36145956666664,217.65890986666665,59.0,67.0
719,216.51160156666663,217.68723846666663,64.0,95.0
720,218.21131756666665,218.57014649999996,57.0,99.0
721,218.49460356666663,218.75664311666662,61.0,89.0
722,217.64474556666664,219.2335078833333,45.0,79.0
723,217.92803156666662,219.25003289999995,52.0,57.0
724,219.62774756666664,219.92991929999997,57.0,85.0
725,218.77788956666663,220.00310151666662,64.0,100.0
726,219.34446156666664,220.04087298333332,61.0,86.0
727,220.76089156666663,221.16221339999998,52.0,67.0
728,221.32746356666664,221.56117451666665,52.0,73.0
729,221.04417756666663,221.6414388833333,56.0,107.0
730,219.91103356666662,221.65796389999997,44.0,73.0
731,221.04417756666663,222.12066436666663,64.0,54.0
732,221.89403556666662,222.17732156666665,56.0,93.0
733,221.61074956666664,222.21037159999997,61.0,97.0
734,222.74389356666663,223.39545136666663,54.0,96.0
735,223.02717956666663,223.67873736666664,57.0,77.0
736,223.59375156666664,223.7660838833333,54.0,90.0
737,222.46060756666662,223.8085767833333,49.0,62.0
738,222.17732156666665,223.88884114999996,42.0,79.0
739,223.31046556666664,224.1980950333333,66.0,117.0
740,223.87703756666662,224.4200024,61.0,95.0
741,224.16032356666665,224.43416669999996,57.0,86.0
742,225.01018156666663,225.66646079999998,49.0,93.0
743,225.29346756666664,225.78685734999996,56.0,75.0
744,224.72689556666663,226.16221129999997,44.0,61.0
745,224.44360956666662,226.18817918333332,37.0,83.0
746,225.57675356666664,226.20706491666664,61.0,81.0
747,225.86003956666661,226.2235899333333,49.0,93.0
748,226.14332556666665,226.52576166666665,56.0,96.0
749,225.57675356666664,226.6839296833333,64.0,95.0
750,226.42661156666662,226.78544049999996,61.0,100.0
751,227.27646956666663,227.97760241666663,50.0,100.0
752,228.12632756666665,228.34587421666663,50.0,99.0
753,226.99318356666663,228.37892424999995,45.0,66.0
754,226.70989756666663,228.39544926666662,38.0,72.0
755,227.55975556666664,228.44502431666663,57.0,86.0
756,227.8430415666666,228.89119976666663,66.0,127.0
757,228.40961356666662,228.92424979999998,62.0,100.0
758,228.69289956666663,229.06117136666663,57.0,92.0
759,229.54275756666664,230.21556181666665,49.0,86.0
760,229.25947156666663,230.51301211666663,44.0,53.0
761,229.8260435666666,230.5484228666666,56.0,75.0
762,228.97618556666663,230.57911218333328,37.0,76.0
763,230.39261556666662,230.65937654999996,49.0,89.0
764,230.67590156666665,231.10555199999996,61.0,70.0
765,230.10932956666664,231.13624131666663,64.0,86.0
766,230.95918756666663,231.1669306333333,56.0,92.0
767,231.52575956666664,231.96485286666663,59.0,73.0
768,231.8090455666666,232.25994244999998,66.0,117.0
769,232.09233156666664,232.35437111666664,59.0,93.0
770,231.24247356666663,232.41102831666663,47.0,96.0
771,232.37561756666662,233.02717536666663,40.0,73.0
772,232.65890356666665,233.0720289833333,47.0,71.0
773,232.94218956666663,233.2349184333333,56.0,92.0
774,233.22547556666663,233.50876156666664,59.0,88.0
775,233.50876156666664,234.29251949999997,66.0,92.0
776,233.50876156666664,234.29960164999997,62.0,95.0
777,233.50876156666664,234.3114052333333,57.0,90.0
778,234.07533356666664,234.74105566666663,54.0,78.0
779,234.35861956666662,235.01017736666662,57.0,75.0
780,234.35861956666662,235.29346336666663,62.0,85.0
781,234.35861956666662,235.36192414999996,66.0,85.0
782,234.92519156666663,235.7915745833333,54.0,62.0
783,235.20847756666663,236.1598463833333,57.0,69.0
784,235.49176356666663,236.42660736666664,62.0,88.0
785,235.49176356666663,236.46201811666663,66.0,63.0
786,236.62490756666665,236.84917564999995,66.0,85.0
787,236.62490756666665,236.86333994999995,62.0,82.0
788,236.05833556666664,237.00262223333328,54.0,41.0
789,236.34162156666662,237.02622939999998,57.0,59.0
790,233.50876156666664,238.05550186666665,42.0,77.0
791,237.19147956666663,238.06730544999996,54.0,63.0
792,237.47476556666663,238.0720268833333,57.0,72.0
793,236.90819356666663,238.08383046666663,62.0,86.0
794,236.90819356666663,238.10271619999997,66.0,93.0
795,238.60790956666665,239.25946736666663,50.0,96.0
796,238.89119556666662,239.5710819666666,57.0,90.0
797,238.04133756666664,239.5734426833333,38.0,93.0
798,238.32462356666662,239.6230177333333,45.0,82.0
799,239.45776756666663,239.62537844999997,50.0,93.0
800,240.02433956666664,240.1329325333333,44.0,31.0
801,239.17448156666663,240.1895719166666,66.0,127.0
802,239.74105356666664,240.30042092708328,62.0,96.0
803,240.02433956666664,240.39004353124994,57.0,95.0
804,240.87353389583328,241.53155248958328,49.0,95.0
805,241.15655264583327,241.9207032708333,56.0,90.0
806,240.59051514583328,242.0221183229166,44.0,40.0
807,240.30749639583328,242.0645711354166,37.0,93.0
808,241.72259014583327,242.0716466041666,49.0,97.0
809,242.0056088958333,242.54098603124996,61.0,122.0
810,242.2886276458333,242.55513696874993,56.0,95.0
811,241.43957139583327,242.56221243749994,64.0,95.0
812,243.13768389583328,243.8405137916666,50.0,107.0
813,242.57164639583328,244.1164570729166,38.0,96.0
814,243.42070264583327,244.15419290624993,57.0,92.0
815,243.98674014583327,244.16598535416662,50.0,97.0
816,242.85466514583328,244.17541931249994,45.0,96.0
817,243.70372139583327,244.7721171770833,66.0,127.0
818,244.26975889583326,244.7815511354166,62.0,112.0
819,244.5527776458333,244.8523058229166,57.0,100.0
820,245.40183389583328,246.0881543645833,49.0,95.0
821,245.68485264583327,246.39239952083327,56.0,90.0
822,245.11881514583328,246.58815415624994,44.0,65.0
823,244.83579639583328,246.60466358333326,37.0,95.0
824,246.25089014583327,246.61881452083327,49.0,95.0
825,245.96787139583327,247.0386256666666,64.0,99.0
826,246.53390889583326,247.04098415624995,61.0,112.0
827,246.8169276458333,247.07871998958328,56.0,97.0
828,247.66598389583328,248.34287040624994,50.0,99.0
829,247.94900264583327,248.70371931249994,57.0,86.0
830,248.51504014583327,248.7131532708333,50.0,99.0
831,247.09994639583329,248.75324759374993,38.0,88.0
832,247.38296514583328,248.76975702083328,45.0,89.0
833,248.79805889583326,249.26268134374993,62.0,97.0
834,248.23202139583327,249.30041717708326,66.0,127.0
835,249.08107764583326,249.39003978124995,57.0,92.0
836,249.93013389583328,250.62117134374995,49.0,97.0
837,249.64711514583328,250.8523033229166,44.0,35.0
838,249.3640963958333,250.92541649999995,37.0,99.0
839,250.77919014583327,251.01032212499993,49.0,97.0
840,250.21315264583328,251.10466170833328,56.0,78.0
841,251.06220889583327,251.57164264583326,61.0,89.0
842,251.3452276458333,251.59994452083328,56.0,99.0
843,250.49617139583327,251.6306048854166,64.0,86.0
844,252.47730264583328,252.68249123958327,66.0,107.0
845,252.19428389583328,252.7343780104166,59.0,72.0
846,251.91126514583328,252.95843452083326,54.0,72.0
847,253.04334014583327,253.2414532708333,54.0,95.0
848,252.76032139583327,253.2579626979166,66.0,107.0
849,251.6282463958333,253.35466077083328,47.0,82.0
850,253.32635889583327,253.8994718645833,66.0,117.0
851,253.32635889583327,253.94428316666662,62.0,93.0
852,253.60937764583326,254.01032087499993,59.0,93.0
853,254.74145264583328,254.93249030208327,68.0,107.0
854,254.74145264583328,254.94428274999996,64.0,95.0
855,254.45843389583328,255.1612637916666,52.0,92.0
856,255.30749014583327,255.54333910416662,52.0,92.0
857,254.17541514583328,255.6282447291666,47.0,78.0
858,255.02447139583327,255.64711264583326,64.0,100.0
859,253.8923963958333,255.71079186458329,40.0,82.0
860,255.02447139583327,256.1093766041666,68.0,117.0
861,255.87352764583326,256.1659803541666,64.0,99.0
862,255.59050889583327,256.20371618749994,59.0,96.0
863,257.0056026458333,257.3688100416666,57.0,82.0
864,256.7225838958333,257.39239493749994,50.0,96.0
865,256.1565463958333,257.6872061354166,38.0,89.0
866,256.4395651458333,257.6966400937499,45.0,93.0
867,257.57164014583327,257.71786649999996,50.0,92.0
868,257.2886213958333,257.9065456666666,62.0,89.0
869,257.2886213958333,258.3688096249999,66.0,127.0
870,258.13767764583326,258.43956431249995,62.0,107.0
871,257.85465889583327,258.4914510833333,57.0,96.0
872,259.26975264583325,259.43012993749994,61.0,53.0
873,259.26975264583325,259.43484691666663,56.0,64.0
874,259.26975264583325,259.43956389583326,64.0,66.0
875,258.98673389583325,259.65418644791663,49.0,97.0
876,259.55277139583325,259.91833728124993,56.0,95.0
877,258.70371514583326,259.9584316041666,44.0,34.0
878,258.42069639583326,259.99616743749993,37.0,96.0
879,259.8357901458333,260.1188088958333,49.0,97.0
880,259.55277139583325,260.2202239479166,61.0,107.0
881,260.1188088958333,260.52211061458326,56.0,112.0
882,260.4018276458333,260.6164501979166,61.0,112.0
883,259.55277139583325,260.6306011354166,64.0,93.0
884,260.6848463958333,261.1140914999999,47.0,85.0
885,260.9678651458333,261.38531780208325,59.0,88.0
886,261.2508838958333,261.7084308749999,66.0,117.0
887,261.5339026458333,261.77446858333326,59.0,93.0
888,261.8169213958333,262.24144952083327,40.0,76.0
889,262.0999401458333,262.43248717708326,56.0,72.0
890,262.38295889583327,262.93484545833326,59.0,92.0
891,262.66597764583327,262.94427941666663,56.0,85.0
892,263.51503389583326,263.86644884374994,57.0,100.0
893,263.79805264583325,264.1164487395833,59.0,90.0
894,263.23201514583326,264.2626750937499,52.0,69.0
895,264.3640901458333,264.56692024999995,52.0,71.0
896,262.94899639583326,264.6494673854166,45.0,90.0
897,264.08107139583325,265.2084294166666,64.0,117.0
898,264.6471088958333,265.2131463958333,61.0,100.0
899,264.9301276458333,265.25559920833325,57.0,99.0
900,265.7791838958333,266.47257983333327,50.0,96.0
901,265.2131463958333,266.7155042604166,38.0,90.0
902,266.0622026458333,266.71786274999994,57.0,89.0
903,265.4961651458333,266.75559858333327,45.0,79.0
904,266.6282401458333,266.76031556249995,50.0,89.0
905,266.3452213958333,267.4301266041666,66.0,122.0
906,266.91125889583327,267.4348435833333,62.0,83.0
907,267.19427764583327,267.50323978124993,57.0,97.0
908,267.76031514583326,268.3216356666666,44.0,35.0
909,267.47729639583326,268.3287111354166,37.0,81.0
910,268.04333389583326,268.4466356145833,49.0,93.0
911,268.32635264583325,268.57871103124995,52.0,90.0
912,268.60937139583325,269.2296541562499,42.0,96.0
913,268.89239014583325,269.32871071874996,54.0,83.0
914,269.4584276458333,269.6942766041666,54.0,92.0
915,269.1754088958333,269.7013520729166,61.0,107.0
916,269.7414463958333,270.2933329583333,47.0,93.0
917,270.0244651458333,270.4631442083333,59.0,77.0
918,270.3074838958333,270.80748368749994,66.0,102.0
919,270.5905026458333,270.87116290624994,59.0,71.0
920,270.8735213958333,271.54804941666663,40.0,82.0
921,271.1565401458333,271.58106827083327,47.0,53.0
922,271.4395588958333,271.9348417083333,52.0,66.0
923,271.4395588958333,271.96078509374996,56.0,67.0
924,271.4395588958333,271.99616243749995,59.0,71.0
925,272.57163389583326,273.13767139583325,57.0,72.0
926,272.28861514583326,273.24852040624995,52.0,52.0
927,272.85465264583326,273.24852040624995,59.0,60.0
928,273.9867276458333,276.61172655208327,59.0,39.0
929,273.7037088958333,276.6400284270833,61.0,66.0
930,273.4206901458333,276.64474540624997,52.0,49.0
931,272.00559639583327,276.6494623854166,45.0,63.0
932,274.2697463958333,276.6588963437499,57.0,42.0
933,273.13767139583325,276.67068879166663,64.0,83.0
934,276.93012264583325,277.7815373854166,66.0,46.0
935,277.6471034791666,278.1211598854166,50.0,35.0
936,277.2862545729166,278.2060655104166,45.0,48.0
937,276.92776415624996,278.3027635833333,38.0,61.0
938,276.9254056666666,278.5244616041666,57.0,44.0
939,278.0126693645833,278.6942728541666,66.0,38.0
940,276.9324811354166,278.7060653020833,62.0,56.0
941,279.69427243749993,280.7886116041666,37.0,53.0
942,280.0999326458333,280.8098380104166,44.0,29.0
943,280.3994608229166,280.84285686458327,49.0,34.0
944,280.78625311458325,281.01974358333325,56.0,31.0
945,279.6895554583333,281.0716303541666,61.0,51.0
946,279.6989894166666,281.1046492083333,64.0,54.0
947,282.47729014583325,282.82162962499996,47.0,29.0
948,282.39945998958325,283.0244597291666,61.0,42.0
949,282.3334222812499,283.02681821874995,62.0,39.0
950,282.2744600416666,283.08106347916663,66.0,31.0
951,282.4796486354166,283.09521441666664,59.0,50.0
952,283.85464806249996,285.0433268124999,52.0,38.0
953,283.8334216562499,285.3357795208333,47.0,32.0
954,283.68483681249995,285.3381380104166,59.0,44.0
955,283.8145537395833,285.34757196874995,64.0,45.0
956,285.26266634374997,285.34757196874995,64.0,51.0
957,283.8145537395833,285.3664398854166,40.0,32.0
958,283.85464806249996,285.37823233333324,68.0,54.0
959,285.2603078541666,285.72257181249995,57.0,47.0
960,286.02917545833327,286.6329487916666,57.0,39.0
961,285.6754020208333,287.0126656145833,52.0,45.0
962,285.2532323854166,287.1093636874999,45.0,71.0
963,286.3640809791666,287.6942691041666,59.0,40.0
964,285.2579493645833,287.7296464479166,61.0,46.0
965,287.97492936458326,289.02681571874996,57.0,35.0
966,288.07870290624993,289.3522872812499,62.0,38.0
967,288.8687969166666,289.43719290624995,50.0,53.0
968,288.1376651458333,289.4749287395833,38.0,56.0
969,288.5079480104166,289.4796457187499,45.0,33.0
970,289.21313639583326,290.10464545833327,57.0,48.0
971,289.57870228124995,290.1494567604166,62.0,41.0
972,288.1187972291666,290.20370202083325,66.0,60.0
973,290.96313566666663,291.7838900416666,64.0,47.0
974,290.89002248958326,291.8428522812499,68.0,35.0
975,291.4631354583333,291.8546447291666,44.0,25.0
976,291.0386073333333,291.8687956666666,61.0,42.0
977,291.05983373958327,291.88058811458325,37.0,58.0
978,291.79568248958327,291.98200316666663,49.0,34.0
979,292.4772859791666,293.0621913958333,42.0,34.0
980,292.4702105104166,293.1683234270833,54.0,52.0
981,292.4820029583333,293.22021019791663,61.0,49.0
982,292.47964446874994,293.2673799895833,57.0,47.0
983,292.4961538958333,293.27917243749994,66.0,53.0
984,293.5433232708333,294.6636058229166,59.0,50.0
985,294.4206813958333,294.8687944166666,54.0,27.0
986,293.5598326979166,294.9088887395833,62.0,56.0
987,293.5503987395833,294.99379436458327,47.0,42.0
988,293.55511571874996,295.1093603541666,66.0,54.0
989,294.8263416041666,295.1966244687499,59.0,40.0
990,295.45134134374996,295.78860535416663,68.0,65.0
991,295.41832248958326,295.8027562916666,64.0,40.0
992,295.34049233333326,295.8593600416666,59.0,62.0
993,295.8735109791666,296.68483139583327,47.0,52.0
994,295.43719040624995,296.81690681249995,40.0,53.0
995,296.31454853124995,296.94898222916663,52.0,51.0
996,296.8051143645833,296.97256712499996,56.0,58.0
997,297.5008687916666,297.7909630104166,64.0,27.0
998,297.5503970729166,297.8051139479166,61.0,28.0
999,297.65181212499994,297.8239818645833,59.0,33.0
1000,297.6848309791666,297.85700071874993,57.0,50.0
1001,298.38766087499994,298.74143431249996,47.0,56.0
1002,298.5904909791666,298.7791701458333,49.0,47.0
1003,298.75558524999997,298.80511353124996,52.0,59.0
1004,298.9985096770833,299.4324717604166,57.0,33.0
1005,299.20133978124994,299.4560566562499,61.0,45.0
1006,299.4183208229166,299.4914339999999,64.0,68.0
1007,298.00558556249996,304.97256379166663,40.0,53.0
1008,299.9914337916666,304.9796392604166,73.0,50.0
1009,300.72256556249994,304.9867147291666,81.0,36.0
1010,300.26501858333324,304.99614868749995,76.0,56.0
1011,298.2131326458333,305.02680905208325,45.0,55.0
1012,297.69426493749995,305.0386014999999,33.0,54.0
1013,299.7107735312499,305.04095998958326,69.0,35.0
