,start,end,pitch,velocity
0,18.30625,18.395833333333332,60.0,117.0
1,18.55625,18.664583333333333,60.0,93.0
2,18.80625,18.914583333333333,60.0,93.0
3,19.05625,19.16875,60.0,96.0
4,19.30625,19.422916666666666,60.0,93.0
5,19.55625,19.670833333333334,60.0,89.0
6,19.80625,20.010416666666668,61.0,112.0
7,20.05625,20.302083333333332,60.0,77.0
8,20.30625,20.51875,58.0,85.0
9,20.55625,20.695833333333333,56.0,79.0
10,20.80625,21.847916666666666,58.0,93.0
11,22.30625,22.404166666666665,63.0,96.0
12,22.55625,22.65833333333333,63.0,95.0
13,22.80625,22.90833333333333,63.0,95.0
14,23.05625,23.15833333333333,63.0,96.0
15,23.30625,23.402083333333334,63.0,95.0
16,23.55625,23.654166666666665,63.0,97.0
17,23.80625,23.9,63.0,102.0
18,24.05625,24.26875,63.0,102.0
19,24.30625,24.4375,55.0,93.0
20,24.55625,24.695833333333333,55.0,100.0
21,24.80625,25.78125,56.0,95.0
22,26.30625,26.414583333333333,63.0,127.0
23,26.55625,26.65625,63.0,107.0
24,26.80625,26.902083333333334,63.0,102.0
25,27.05625,27.147916666666667,63.0,102.0
26,27.30625,27.402083333333334,63.0,107.0
27,27.55625,27.660416666666666,63.0,112.0
28,27.80625,27.897916666666667,63.0,97.0
29,28.05625,28.15833333333333,63.0,122.0
30,28.30625,28.383333333333333,56.0,95.0
31,28.55625,28.714583333333334,60.0,97.0
32,28.80625,29.302083333333332,58.0,93.0
33,29.30625,29.429166666666667,56.0,65.0
34,29.55625,29.72083333333333,58.0,100.0
35,29.80625,29.93125,60.0,99.0
36,30.30625,30.43958333333333,56.0,93.0
37,30.55625,30.702083333333334,58.0,93.0
38,30.80625,30.925,60.0,95.0
39,31.30625,31.772916666666667,61.0,117.0
40,31.80625,31.947916666666668,60.0,76.0
41,32.05625,32.93125,60.0,100.0
42,34.30625,34.364583333333336,63.0,117.0
43,34.43125,34.4875,63.0,88.0
44,34.55625,34.62916666666666,63.0,122.0
45,34.80625,34.8875,63.0,100.0
46,35.05625,35.141666666666666,63.0,100.0
47,35.30625,35.389583333333334,63.0,95.0
48,35.55625,35.645833333333336,63.0,100.0
49,35.80625,35.89375,63.0,102.0
50,36.05625,36.16458333333333,63.0,117.0
51,36.30625,36.416666666666664,56.0,100.0
52,36.55625,36.77916666666667,60.0,90.0
53,36.80625,37.61666666666667,58.0,93.0
54,38.30625,38.354166666666664,63.0,99.0
55,38.43125,38.4875,63.0,82.0
56,38.55625,38.6375,63.0,89.0
57,38.80625,38.9,63.0,112.0
58,39.05625,39.15,63.0,100.0
59,39.30625,39.40625,63.0,112.0
60,39.55625,39.66458333333333,63.0,99.0
61,39.80625,39.96666666666667,63.0,117.0
62,40.05625,40.2875,67.0,112.0
63,40.30625,40.50416666666666,68.0,92.0
64,40.55625,40.65833333333333,67.0,112.0
65,40.80625,41.41458333333333,65.0,100.0
66,41.30625,41.52916666666667,53.0,93.0
67,41.55625,41.75625,55.0,95.0
68,41.80625,42.03958333333333,56.0,96.0
69,42.30625,42.395833333333336,63.0,127.0
70,42.55625,42.64375,63.0,100.0
71,42.80625,42.90208333333333,63.0,100.0
72,43.05625,43.141666666666666,63.0,107.0
73,43.30625,43.38333333333333,63.0,100.0
74,43.55625,43.764583333333334,65.0,122.0
75,43.80625,44.075,63.0,122.0
76,44.30625,44.39375,63.0,127.0
77,44.55625,44.65625,63.0,102.0
78,44.80625,44.90833333333333,63.0,99.0
79,45.05625,45.2625,63.0,127.0
80,45.30625,45.55,60.0,100.0
81,45.55625,45.78958333333333,65.0,127.0
82,45.80625,47.65,63.0,127.0
83,49.55625,49.78125,65.0,112.0
84,49.80625,50.02708333333333,67.0,117.0
85,50.05625,50.17916666666667,68.0,100.0
86,50.30625,50.422916666666666,68.0,100.0
87,50.55625,50.66875,68.0,100.0
88,50.80625,50.90625,68.0,107.0
89,51.05625,51.231249999999996,68.0,117.0
90,51.30625,51.39791666666667,68.0,122.0
91,51.55625,51.645833333333336,68.0,100.0
92,51.80625,51.887499999999996,68.0,107.0
93,52.05625,52.175,68.0,122.0
94,52.30625,52.427083333333336,67.0,127.0
95,52.55625,52.64375,67.0,122.0
96,52.80625,53.08958333333333,67.0,127.0
97,53.55625,53.793749999999996,63.0,100.0
98,53.80625,54.041666666666664,65.0,99.0
99,54.05625,54.17916666666667,67.0,107.0
100,54.30625,54.41041666666666,67.0,112.0
101,54.55625,54.6625,67.0,117.0
102,54.80625,54.891666666666666,67.0,102.0
103,55.05625,55.19375,67.0,127.0
104,55.30625,55.395833333333336,67.0,127.0
105,55.55625,55.670833333333334,67.0,127.0
106,55.80625,55.981249999999996,68.0,117.0
107,56.05625,56.3125,67.0,112.0
108,56.55625,56.739583333333336,65.0,102.0
109,56.80625,57.302083333333336,65.0,107.0
110,57.55625,57.81458333333333,65.0,97.0
111,57.80625,57.94375,67.0,117.0
112,58.05625,58.231249999999996,68.0,97.0
113,58.30625,58.4875,65.0,93.0
114,58.55625,58.675,68.0,96.0
115,58.80625,58.97291666666666,65.0,102.0
116,59.05625,59.354166666666664,68.0,112.0
117,59.80625,60.30833333333333,67.0,117.0
118,60.30625,60.53333333333333,63.0,89.0
119,60.55625,60.80416666666667,67.0,117.0
120,60.80625,61.06458333333333,63.0,93.0
121,61.05625,61.37083333333333,67.0,117.0
122,61.55625,61.66458333333333,63.0,97.0
123,61.80625,61.94166666666666,63.0,93.0
124,62.05625,62.28541666666666,68.0,107.0
125,62.30625,62.52291666666667,68.0,112.0
126,62.80625,62.916666666666664,68.0,107.0
127,63.05625,63.25833333333333,68.0,112.0
128,63.55625,63.83125,68.0,112.0
129,63.80625,64.87916666666666,67.0,102.0
130,65.55625,65.725,65.0,107.0
131,65.80625,65.92708333333333,67.0,127.0
132,66.05625,66.15416666666667,68.0,100.0
133,66.30625,66.40416666666667,68.0,107.0
134,66.55625,66.64791666666666,68.0,112.0
135,66.80625,66.89375,68.0,112.0
136,67.05625,67.16666666666667,68.0,127.0
137,67.30625,67.38958333333333,68.0,127.0
138,67.55625,67.63958333333333,68.0,93.0
139,67.80625,67.88541666666667,68.0,102.0
140,68.05625,68.49166666666666,68.0,100.0
141,68.55625,68.66041666666666,67.0,99.0
142,68.80625,69.06458333333333,67.0,122.0
143,69.55625,69.675,63.0,112.0
144,69.80625,69.91458333333333,65.0,100.0
145,70.05625,70.16041666666666,67.0,122.0
146,70.30625,70.39375,67.0,122.0
147,70.55625,70.64791666666666,67.0,127.0
148,70.80625,70.88541666666667,67.0,122.0
149,71.05625,71.13958333333333,67.0,122.0
150,71.30625,71.38958333333333,67.0,102.0
151,71.55625,71.64791666666666,67.0,122.0
152,71.80625,71.91666666666667,68.0,100.0
153,72.05625,72.22083333333333,67.0,117.0
154,72.55625,72.65208333333334,65.0,102.0
155,72.80625,73.13958333333333,65.0,102.0
156,73.55625,73.67291666666667,65.0,102.0
157,73.80625,73.9125,67.0,117.0
158,74.05625,74.15208333333334,68.0,112.0
159,74.30625,74.41458333333333,65.0,95.0
160,74.55625,74.65,68.0,107.0
161,74.80625,74.90416666666667,65.0,96.0
162,75.05625,75.29166666666667,68.0,127.0
163,75.80625,76.17291666666667,67.0,117.0
164,76.30625,76.47083333333333,63.0,96.0
165,76.55625,76.74583333333334,67.0,107.0
166,76.80625,77.00208333333333,63.0,93.0
167,77.05625,77.28958333333333,67.0,127.0
168,77.55625,77.68125,70.0,122.0
169,77.80625,78.18541666666667,70.0,100.0
170,78.30625,79.10208333333333,68.0,102.0
171,94.30625,94.39583333333333,60.0,117.0
172,94.55625,94.66458333333333,60.0,93.0
173,94.80625,94.91458333333333,60.0,93.0
174,95.05625,95.16875,60.0,96.0
175,95.30625,95.42291666666667,60.0,93.0
176,95.55625,95.67083333333333,60.0,89.0
177,95.80625,96.01041666666667,61.0,112.0
178,96.05625,96.30208333333333,60.0,77.0
179,96.30625,96.51875,58.0,85.0
180,96.55625,96.69583333333333,56.0,79.0
181,96.80625,97.84791666666666,58.0,93.0
182,98.30625,98.40416666666667,63.0,96.0
183,98.55625,98.65833333333333,63.0,95.0
184,98.80625,98.90833333333333,63.0,95.0
185,99.05625,99.15833333333333,63.0,96.0
186,99.30625,99.40208333333334,63.0,95.0
187,99.55625,99.65416666666667,63.0,97.0
188,99.80625,99.9,63.0,102.0
189,100.05625,100.26875,63.0,102.0
190,100.30625,100.4375,55.0,93.0
191,100.55625,100.69583333333333,55.0,100.0
192,100.80625,101.78125,56.0,95.0
193,102.30625,102.41458333333333,63.0,127.0
194,102.55624999999999,102.65625,63.0,107.0
195,102.80624999999999,102.90208333333334,63.0,102.0
196,103.05624999999999,103.14791666666666,63.0,102.0
197,103.30624999999999,103.40208333333334,63.0,107.0
198,103.55624999999999,103.66041666666666,63.0,112.0
199,103.80624999999999,103.89791666666666,63.0,97.0
200,104.05624999999999,104.15833333333333,63.0,122.0
201,104.30624999999999,104.38333333333333,56.0,95.0
202,104.55624999999999,104.71458333333334,60.0,97.0
203,104.80624999999999,105.30208333333333,58.0,93.0
204,105.30624999999999,105.42916666666666,56.0,65.0
205,105.55624999999999,105.72083333333333,58.0,100.0
206,105.80624999999999,105.93124999999999,60.0,99.0
207,106.30624999999999,106.43958333333333,56.0,93.0
208,106.55624999999999,106.70208333333333,58.0,93.0
209,106.80624999999999,106.925,60.0,95.0
210,107.30624999999999,107.77291666666666,61.0,117.0
211,107.80624999999999,107.94791666666667,60.0,76.0
212,108.05624999999999,108.93124999999999,60.0,100.0
213,110.30624999999999,110.36458333333333,63.0,117.0
214,110.43124999999999,110.4875,63.0,88.0
215,110.55624999999999,110.62916666666666,63.0,122.0
216,110.80624999999999,110.8875,63.0,100.0
217,111.05624999999999,111.14166666666667,63.0,100.0
218,111.30624999999999,111.38958333333333,63.0,95.0
219,111.55624999999999,111.64583333333333,63.0,100.0
220,111.80624999999999,111.89375,63.0,102.0
221,112.05624999999999,112.16458333333333,63.0,117.0
222,112.30624999999999,112.41666666666667,56.0,100.0
223,112.55624999999999,112.77916666666667,60.0,90.0
224,112.80624999999999,113.61666666666666,58.0,93.0
225,114.30624999999999,114.35416666666667,63.0,99.0
226,114.43124999999999,114.4875,63.0,82.0
227,114.55624999999999,114.6375,63.0,89.0
228,114.80624999999999,114.89999999999999,63.0,112.0
229,115.05624999999999,115.14999999999999,63.0,100.0
230,115.30624999999999,115.40625,63.0,112.0
231,115.55624999999999,115.66458333333333,63.0,99.0
232,115.80624999999999,115.96666666666667,63.0,117.0
233,116.05624999999999,116.2875,67.0,112.0
234,116.30624999999999,116.50416666666666,68.0,92.0
235,116.55624999999999,116.65833333333333,67.0,112.0
236,116.80624999999999,117.41458333333333,65.0,100.0
237,117.30624999999999,117.52916666666667,53.0,93.0
238,117.55624999999999,117.75625,55.0,95.0
239,117.80624999999999,118.03958333333333,56.0,96.0
240,118.30624999999999,118.39583333333333,63.0,127.0
241,118.55624999999999,118.64375,63.0,100.0
242,118.80624999999999,118.90208333333334,63.0,100.0
243,119.05624999999999,119.14166666666667,63.0,107.0
244,119.30624999999999,119.38333333333333,63.0,100.0
245,119.55624999999999,119.76458333333333,65.0,122.0
246,119.80624999999999,120.075,63.0,122.0
247,120.30624999999999,120.39375,63.0,127.0
248,120.55624999999999,120.65625,63.0,102.0
249,120.80624999999999,120.90833333333333,63.0,99.0
250,121.05624999999999,121.2625,63.0,127.0
251,121.30624999999999,121.55,60.0,100.0
252,121.55624999999999,121.78958333333333,65.0,127.0
253,121.80624999999999,123.64999999999999,63.0,127.0
254,125.55624999999999,125.78125,65.0,112.0
255,125.80624999999999,126.02708333333334,67.0,117.0
256,126.05624999999999,126.17916666666666,68.0,100.0
257,126.30624999999999,126.42291666666667,68.0,100.0
258,126.55624999999999,126.66875,68.0,100.0
259,126.80624999999999,126.90625,68.0,107.0
260,127.05624999999999,127.23125,68.0,117.0
261,127.30624999999999,127.39791666666666,68.0,122.0
262,127.55624999999999,127.64583333333333,68.0,100.0
263,127.80624999999999,127.8875,68.0,107.0
264,128.05625,128.175,68.0,122.0
265,128.30625,128.42708333333334,67.0,127.0
266,128.55625,128.64375,67.0,122.0
267,128.80625,129.08958333333334,67.0,127.0
268,129.55625,129.79375,63.0,100.0
269,129.80625,130.04166666666666,65.0,99.0
270,130.05625,130.17916666666667,67.0,107.0
271,130.30625,130.41041666666666,67.0,112.0
272,130.55625,130.6625,67.0,117.0
273,130.80625,130.89166666666665,67.0,102.0
274,131.05625,131.19375,67.0,127.0
275,131.30625,131.39583333333334,67.0,127.0
276,131.55625,131.67083333333332,67.0,127.0
277,131.80625,131.98125,68.0,117.0
278,132.05625,132.3125,67.0,112.0
279,132.55625,132.73958333333334,65.0,102.0
280,132.80625,133.30208333333334,65.0,107.0
281,133.55625,133.81458333333333,65.0,97.0
282,133.80625,133.94375,67.0,117.0
283,134.05625,134.23125,68.0,97.0
284,134.30625,134.4875,65.0,93.0
285,134.55625,134.675,68.0,96.0
286,134.80625,134.97291666666666,65.0,102.0
287,135.05625,135.35416666666666,68.0,112.0
288,135.80625,136.30833333333334,67.0,117.0
289,136.30625,136.53333333333333,63.0,89.0
290,136.55625,136.80416666666667,67.0,117.0
291,136.80625,137.06458333333333,63.0,93.0
292,137.05625,137.37083333333334,67.0,117.0
293,137.55625,137.66458333333333,63.0,97.0
294,137.80625,137.94166666666666,63.0,93.0
295,138.05625,138.28541666666666,68.0,107.0
296,138.30625,138.52291666666667,68.0,112.0
297,138.80625,138.91666666666666,68.0,107.0
298,139.05625,139.25833333333333,68.0,112.0
299,139.55625,139.83125,68.0,112.0
300,139.80625,140.87916666666666,67.0,102.0
301,141.55625,141.725,65.0,107.0
302,141.80625,141.92708333333334,67.0,127.0
303,142.05625,142.15416666666667,68.0,100.0
304,142.30625,142.40416666666667,68.0,107.0
305,142.55625,142.64791666666667,68.0,112.0
306,142.80625,142.89375,68.0,112.0
307,143.05625,143.16666666666666,68.0,127.0
308,143.30625,143.38958333333332,68.0,127.0
309,143.55625,143.63958333333332,68.0,93.0
310,143.80625,143.88541666666666,68.0,102.0
311,144.05625,144.49166666666667,68.0,100.0
312,144.55625,144.66041666666666,67.0,99.0
313,144.80625,145.06458333333333,67.0,122.0
314,145.55625,145.675,63.0,112.0
315,145.80625,145.91458333333333,65.0,100.0
316,146.05625,146.16041666666666,67.0,122.0
317,146.30625,146.39375,67.0,122.0
318,146.55625,146.64791666666667,67.0,127.0
319,146.80625,146.88541666666666,67.0,122.0
320,147.05625,147.13958333333332,67.0,122.0
321,147.30625,147.38958333333332,67.0,102.0
322,147.55625,147.64791666666667,67.0,122.0
323,147.80625,147.91666666666666,68.0,100.0
324,148.05625,148.22083333333333,67.0,117.0
325,148.55625,148.65208333333334,65.0,102.0
326,148.80625,149.13958333333332,65.0,102.0
327,149.55625,149.67291666666665,65.0,102.0
328,149.80625,149.9125,67.0,117.0
329,150.05625,150.15208333333334,68.0,112.0
330,150.30625,150.41458333333333,65.0,95.0
331,150.55625,150.65,68.0,107.0
332,150.80625,150.90416666666667,65.0,96.0
333,151.05625,151.29166666666666,68.0,127.0
334,151.80625,152.17291666666665,67.0,117.0
335,152.30625,152.47083333333333,63.0,96.0
336,152.55625,152.74583333333334,67.0,107.0
337,152.80625,153.00208333333333,63.0,93.0
338,153.05625,153.28958333333333,67.0,127.0
339,153.55625,153.68125,70.0,122.0
340,153.80625,154.18541666666667,70.0,100.0
341,154.30625,155.10208333333333,68.0,102.0
342,157.55625,157.78125,65.0,112.0
343,157.80625,158.02708333333334,67.0,117.0
344,158.05625,158.17916666666667,68.0,100.0
345,158.30625,158.42291666666665,68.0,100.0
346,158.55625,158.66875,68.0,100.0
347,158.80625,158.90625,68.0,107.0
348,159.05625,159.23125,68.0,117.0
349,159.30625,159.39791666666667,68.0,122.0
350,159.55625,159.64583333333334,68.0,100.0
351,159.80625,159.8875,68.0,107.0
352,160.05625,160.175,68.0,122.0
353,160.30625,160.42708333333334,67.0,127.0
354,160.55625,160.64375,67.0,122.0
355,160.80625,161.08958333333334,67.0,127.0
356,161.55625,161.79375,63.0,100.0
357,161.80625,162.04166666666666,65.0,99.0
358,162.05625,162.17916666666667,67.0,107.0
359,162.30625,162.41041666666666,67.0,112.0
360,162.55625,162.6625,67.0,117.0
361,162.80625,162.89166666666665,67.0,102.0
362,163.05625,163.19375,67.0,127.0
363,163.30625,163.39583333333334,67.0,127.0
364,163.55625,163.67083333333332,67.0,127.0
365,163.80625,163.98125,68.0,117.0
366,164.05625,164.3125,67.0,112.0
367,164.55625,164.73958333333334,65.0,102.0
368,164.80625,165.30208333333334,65.0,107.0
369,165.55625,165.81458333333333,65.0,97.0
370,165.80625,165.94375,67.0,117.0
371,166.05625,166.23125,68.0,97.0
372,166.30625,166.4875,65.0,93.0
373,166.55625,166.675,68.0,96.0
374,166.80625,166.97291666666666,65.0,102.0
375,167.05625,167.35416666666666,68.0,112.0
376,167.80625,168.30833333333334,67.0,117.0
377,168.30625,168.53333333333333,63.0,89.0
378,168.55625,168.80416666666667,67.0,117.0
379,168.80625,169.06458333333333,63.0,93.0
380,169.05625,169.37083333333334,67.0,117.0
381,169.55625,169.66458333333333,63.0,97.0
382,169.80625,169.94166666666666,63.0,93.0
383,170.05625,170.28541666666666,68.0,107.0
384,170.30625,170.52291666666667,68.0,112.0
385,170.80625,170.91666666666666,68.0,107.0
386,171.05625,171.25833333333333,68.0,112.0
387,171.55625,171.83125,68.0,112.0
388,171.80625,172.87916666666666,67.0,102.0
389,173.55625,173.725,65.0,107.0
390,173.80625,173.92708333333334,67.0,127.0
391,174.05625,174.15416666666667,68.0,100.0
392,174.30625,174.40416666666667,68.0,107.0
393,174.55625,174.64791666666667,68.0,112.0
394,174.80625,174.89375,68.0,112.0
395,175.05625,175.16666666666666,68.0,127.0
396,175.30625,175.38958333333332,68.0,127.0
397,175.55625,175.63958333333332,68.0,93.0
398,175.80625,175.88541666666666,68.0,102.0
399,176.05625,176.49166666666667,68.0,100.0
400,176.55625,176.66041666666666,67.0,99.0
401,176.80625,177.06458333333333,67.0,122.0
402,177.55625,177.675,63.0,112.0
403,177.80625,177.91458333333333,65.0,100.0
404,178.05625,178.16041666666666,67.0,122.0
405,178.30625,178.39375,67.0,122.0
406,178.55625,178.64791666666667,67.0,127.0
407,178.80625,178.88541666666666,67.0,122.0
408,179.05625,179.13958333333332,67.0,122.0
409,179.30625,179.38958333333332,67.0,102.0
410,179.55625,179.64791666666667,67.0,122.0
411,179.80625,179.91666666666666,68.0,100.0
412,180.05625,180.22083333333333,67.0,117.0
413,180.55625,180.65208333333334,65.0,102.0
414,180.80625,181.13958333333332,65.0,102.0
415,181.55625,181.67291666666665,65.0,102.0
416,181.80625,181.9125,67.0,117.0
417,182.05625,182.15208333333334,68.0,112.0
418,182.30625,182.41458333333333,65.0,95.0
419,182.55625,182.65,68.0,107.0
420,182.80625,182.90416666666667,65.0,96.0
421,183.05625,183.29166666666666,68.0,127.0
422,183.80625,184.17291666666665,67.0,117.0
423,184.30625,184.47083333333333,63.0,96.0
424,184.55625,184.74583333333334,67.0,107.0
425,184.80625,185.00208333333333,63.0,93.0
426,185.05625,185.28958333333333,67.0,127.0
427,185.55625,185.68125,70.0,122.0
428,185.80625,186.18541666666667,70.0,100.0
429,186.30625,187.10208333333333,68.0,102.0
