,start,end,pitch,velocity
0,30.700153718750002,30.816483750000003,70.0,127.0
1,30.963542468750003,31.073287781250002,70.0,100.0
2,31.226931218750003,31.373989937500003,70.0,122.0
3,31.490319968750004,31.630793968750005,72.0,95.0
4,31.753708718750005,32.01709746875,72.0,112.0
5,32.01709746875,32.552654593750006,75.0,127.0
6,32.54387496875,32.80287390625001,72.0,99.0
7,32.80726371875,32.95651734375,70.0,107.0
8,33.070652468750005,33.470125406250006,70.0,127.0
9,33.597429968750006,33.816920593750005,72.0,112.0
10,33.860818718750004,34.5170956875,67.0,100.0
11,34.387596218750005,34.615866468750006,72.0,127.0
12,34.91437371875001,34.991195437500004,70.0,107.0
13,35.177762468750004,35.610159,70.0,112.0
14,35.704539968750005,35.869157937500006,67.0,100.0
15,35.96792871875,36.360816937500005,65.0,100.0
16,36.494706218750004,36.685663062500005,67.0,95.0
17,36.75809496875,38.32964784375,60.0,99.0
18,39.128593718750004,39.22516959375,70.0,127.0
19,39.39198246875,39.49294815625,70.0,127.0
20,39.655371218750005,39.852912781250005,70.0,127.0
21,39.91875996875,40.02192056250001,72.0,90.0
22,40.18214871875001,40.680392437500004,67.0,122.0
23,40.70892621875,40.88451871875,65.0,107.0
24,41.23570371875,41.367398093750005,70.0,127.0
25,41.49909246875001,41.90295521875,70.0,117.0
26,42.02586996875,42.177318500000005,72.0,100.0
27,42.289258718750006,42.5416729375,67.0,100.0
28,42.55264746875,42.837985281250006,65.0,112.0
29,43.079424968750004,43.505236781250005,60.0,102.0
30,43.606202468750006,45.75940550000001,67.0,100.0
31,47.557033718750006,47.64482996875,70.0,122.0
32,47.82042246875,47.925777968750005,70.0,112.0
33,48.08381121875001,48.26379353125,70.0,127.0
34,48.347199968750004,48.53596190625001,72.0,100.0
35,48.61058871875001,48.937629750000006,75.0,127.0
36,49.13736621875,49.444653093750006,75.0,127.0
37,49.40075496875001,49.63999975000001,72.0,112.0
38,49.664143718750005,49.909973218750004,70.0,122.0
39,49.92753246875001,50.29188690625001,70.0,127.0
40,50.45430996875,50.612343218750006,72.0,117.0
41,50.71769871875001,51.2378915,67.0,107.0
42,51.24447621875001,51.47494137500001,72.0,112.0
43,51.77125371875,51.839295812500005,70.0,117.0
44,52.03464246875001,52.122438718750004,70.0,99.0
45,52.298031218750005,52.469233906250004,70.0,127.0
46,52.56141996875001,52.81383418750001,67.0,102.0
47,52.824808718750006,53.21769693750001,65.0,107.0
48,53.35158621875001,53.50961946875,67.0,112.0
49,53.87836371875001,55.61672946875001,60.0,99.0
50,55.98547371875001,56.088634312500005,70.0,112.0
51,56.248862468750005,56.35421796875001,70.0,96.0
52,56.51225121875001,56.68345390625001,70.0,112.0
53,56.775639968750006,56.95123246875001,72.0,93.0
54,57.039028718750004,57.532882625000006,67.0,97.0
55,57.565806218750005,57.763347781250005,65.0,96.0
56,58.09258371875001,58.20452393750001,70.0,127.0
57,58.355972468750004,58.7400810625,70.0,122.0
58,58.882749968750005,59.06712209375001,72.0,122.0
59,59.14613871875001,59.411722375000004,67.0,122.0
60,59.40952746875001,59.639992625000005,65.0,96.0
61,59.93630496875001,60.38845565625001,60.0,89.0
62,60.46308246875001,62.166329718750006,63.0,99.0
63,63.36035871875001,63.72032334375001,75.0,127.0
64,63.88713621875001,64.3019735,72.0,112.0
65,64.41391371875001,64.5170743125,75.0,127.0
66,64.67730246875001,65.04385181250001,75.0,127.0
67,65.20407996875001,65.41040115625,77.0,102.0
68,65.46746871875001,65.78792503125001,75.0,127.0
69,65.99424621875,66.43322746875,72.0,100.0
70,66.52102371875,66.92927628125001,75.0,127.0
71,66.78441246875,66.92927628125001,75.0,127.0
72,67.31118996875001,67.48678246875001,72.0,107.0
73,67.57457871875,67.91039937500001,70.0,122.0
74,68.62813371875001,68.74665865625,72.0,122.0
75,68.89152246875001,69.01443721875,72.0,99.0
76,69.15491121875,69.3458680625,72.0,99.0
77,69.41829996875,69.61803643750001,75.0,117.0
78,69.68168871875001,70.10530562500001,63.0,112.0
79,70.20846621875,70.35333003125001,65.0,102.0
80,70.47185496875001,72.26070356250001,67.0,102.0
81,72.84235371875,72.949904125,65.0,112.0
82,73.10574246875001,73.21987759375001,65.0,96.0
83,73.36913121875001,73.54033390625001,65.0,102.0
84,73.63251996875,73.7707990625,67.0,97.0
85,73.89590871875001,74.31733071875001,63.0,122.0
86,74.42268621875,74.61583796875001,60.0,107.0
87,74.94946371875001,75.50696990625,65.0,102.0
88,75.73962996875001,75.93936643750001,63.0,112.0
89,76.00301871875001,76.46175412500001,65.0,100.0
90,76.79318496875001,76.98633671875001,63.0,122.0
91,77.05657371875,77.17948846875001,65.0,95.0
92,77.31996246875,77.4406823125,65.0,97.0
93,77.58335121875001,77.70626596875,65.0,93.0
94,77.84673996875001,77.99818850000001,63.0,112.0
95,78.11012871875,78.38449200000001,65.0,102.0
96,78.90029496875,79.12417540625,67.0,107.0
97,79.16368371875001,79.99774809375,70.0,127.0
98,80.21723871875001,80.62988109375001,75.0,127.0
99,80.74401621875,80.99204062500002,72.0,117.0
100,81.27079371875001,81.3739543125,75.0,127.0
101,81.53418246875,81.6505125,75.0,107.0
102,81.79757121875001,81.98194334375,75.0,117.0
103,82.06095996875001,82.2694760625,77.0,99.0
104,82.32434871875,82.70626240625,75.0,117.0
105,82.85112621875001,83.3581495625,72.0,127.0
106,83.37790371875,83.67421606250001,72.0,112.0
107,83.64129246875001,83.99686728125,75.0,117.0
108,84.16806996875,84.40511984375001,72.0,99.0
109,84.43145871875001,84.9999394375,70.0,117.0
110,85.48501371875001,85.59914884375002,72.0,122.0
111,85.74840246875002,85.86034268750001,72.0,97.0
112,86.01179121875,86.15665503125001,72.0,107.0
113,86.27517996875001,86.49686550000001,75.0,127.0
114,86.53856871875001,87.01925318750001,63.0,112.0
115,87.06534621875001,87.31117571875001,65.0,112.0
116,87.32873496875001,89.18343075000001,67.0,93.0
117,89.69923371875001,89.80239431250001,65.0,122.0
118,89.96262246875001,90.07675759375002,65.0,96.0
119,90.22601121875002,90.46306109375001,65.0,112.0
120,90.48939996875,90.68694153125001,67.0,100.0
121,90.75278871875001,91.24005790625002,63.0,117.0
122,91.27956621875,91.54734478125,60.0,117.0
123,91.80634371875001,92.37262953125001,65.0,107.0
124,92.59650996875001,92.78746681250001,63.0,117.0
125,92.85989871875002,93.2527869375,65.0,100.0
126,93.65006496875002,93.84102181250002,63.0,127.0
127,93.91345371875,94.00783468750001,65.0,100.0
128,94.17684246875001,94.28219796875001,65.0,97.0
129,94.44023121875001,94.5433918125,65.0,90.0
130,94.70361996875,94.81556018750001,63.0,117.0
131,94.96700871875001,95.11187253125001,65.0,122.0
132,95.23039746875001,95.58377737500001,72.0,112.0
133,95.75717496875001,96.013979,67.0,99.0
134,96.02056371875001,97.30677878125002,70.0,127.0
135,98.12767371875002,98.21546996875001,70.0,127.0
136,98.39106246875001,98.48763834375,70.0,117.0
137,98.65445121875001,98.80370484375001,70.0,127.0
138,98.91783996875002,99.04953434375001,72.0,95.0
139,99.18122871875,99.47095634375002,72.0,127.0
140,99.44461746875001,99.78043812500002,75.0,117.0
141,99.97139496875,100.19747031250002,72.0,99.0
142,100.23478371875001,100.35330865625001,70.0,127.0
143,100.49817246875001,100.84935746875001,70.0,117.0
144,101.02494996875001,101.21810171875,72.0,102.0
145,101.28833871875001,101.63513390625,67.0,97.0
146,101.81511621875,102.06314062500002,72.0,112.0
147,102.34189371875001,102.43188487500001,70.0,117.0
148,102.60528246875,102.71283287500002,70.0,95.0
149,102.86867121875001,103.12986506250002,70.0,122.0
150,103.13205996875001,103.362525125,67.0,107.0
151,103.39544871875002,103.66542218750001,65.0,97.0
152,103.92222621875001,104.064895125,67.0,96.0
153,104.18561496875002,105.75277803125002,60.0,97.0
154,106.55611371875001,106.67683356250001,70.0,127.0
155,106.81950246875002,106.93144268750001,70.0,96.0
156,107.08289121875,107.24750918750001,70.0,117.0
157,107.34627996875001,107.51528775000001,72.0,85.0
158,107.60966871875002,108.09035318750001,67.0,99.0
159,108.13644621875001,108.36471646875002,65.0,102.0
160,108.66322371875002,108.75979959375002,70.0,127.0
161,108.92661246875001,109.29535671875001,70.0,127.0
162,109.45338996875002,109.578499625,72.0,112.0
163,109.71677871875,109.91432028125001,67.0,117.0
164,109.98016746875001,110.20185300000001,65.0,112.0
165,110.50694496875,110.94592621875002,60.0,100.0
166,111.03372246875001,112.76989331250002,67.0,107.0
167,114.98455371875,115.05918053125001,70.0,127.0
168,115.24794246875001,115.33573871875001,70.0,107.0
169,115.51133121875002,115.69131353125002,70.0,122.0
170,115.77471996875,115.90202453125,72.0,99.0
171,116.03810871875001,116.60878434375002,72.0,107.0
172,116.56488621875002,116.73608890625002,75.0,117.0
173,116.82827496875001,117.07410446875001,72.0,112.0
174,117.09166371875001,117.21677337500002,70.0,102.0
175,117.35505246875002,117.65355971875002,70.0,127.0
176,117.88182996875001,118.10132059375002,72.0,122.0
177,118.14521871875002,118.65004715625001,67.0,107.0
178,118.67199621875001,118.86953778125002,72.0,127.0
179,119.19877371875002,119.29754450000001,70.0,127.0
180,119.46216246875001,119.55654343750001,70.0,117.0
181,119.72555121875001,120.01308393750001,70.0,122.0
182,119.98893996875002,120.23037965625001,67.0,112.0
183,120.25232871875001,120.50254803125002,65.0,99.0
184,120.77910621875002,120.93055475000001,67.0,93.0
185,121.04249496875002,122.99376662500002,60.0,97.0
186,123.41299371875002,123.50298487500001,70.0,127.0
187,123.67638246875002,123.77295834375002,70.0,122.0
188,123.93977121875001,124.12194843750001,70.0,127.0
189,124.20315996875001,124.36338812500001,72.0,100.0
190,124.46654871875002,124.94942809375002,67.0,117.0
191,124.99332621875001,125.21281684375002,65.0,102.0
192,125.52010371875001,125.63423884375001,70.0,127.0
193,125.78349246875001,126.17418578125002,70.0,117.0
194,126.31026996875002,126.42001528125002,72.0,112.0
195,126.57365871875001,126.84363218750002,67.0,112.0
196,126.83704746875001,127.07848715625002,65.0,99.0
197,127.36382496875001,127.74793356250001,60.0,99.0
198,127.89060246875002,129.754077875,63.0,117.0
199,148.69831371875003,148.81464375000002,70.0,127.0
200,148.96170246875002,149.07144778125001,70.0,100.0
201,149.22509121875,149.3721499375,70.0,122.0
202,149.48847996875003,149.62895396875,72.0,95.0
203,149.75186871875002,150.01525746875,72.0,112.0
204,150.01525746875,150.55081459375,75.0,127.0
205,150.54203496875002,150.80103390625,72.0,99.0
206,150.80542371875,150.95467734375,70.0,107.0
207,151.06881246875002,151.46828540625,70.0,127.0
208,151.59558996875,151.81508059375003,72.0,112.0
209,151.85897871875002,152.51525568750003,67.0,100.0
210,152.38575621875,152.61402646875,72.0,127.0
211,152.91253371875,152.98935543750002,70.0,107.0
212,153.17592246875003,153.60831900000002,70.0,112.0
213,153.70269996875,153.86731793750002,67.0,100.0
214,153.96608871875003,154.35897693750002,65.0,100.0
215,154.49286621875,154.6838230625,67.0,95.0
216,154.75625496875003,156.32780784375,60.0,99.0
217,157.12675371875002,157.22332959375,70.0,127.0
218,157.39014246875,157.49110815625002,70.0,127.0
219,157.65353121875,157.85107278125002,70.0,127.0
220,157.91691996875002,158.02008056250003,72.0,90.0
221,158.18030871875,158.67855243750003,67.0,122.0
222,158.70708621875002,158.88267871875001,65.0,107.0
223,159.23386371875003,159.36555809375002,70.0,127.0
224,159.49725246875002,159.90111521875002,70.0,117.0
225,160.02402996875003,160.17547850000003,72.0,100.0
226,160.28741871875002,160.53983293750002,67.0,100.0
227,160.55080746875,160.83614528125003,65.0,112.0
228,161.07758496875002,161.50339678125002,60.0,102.0
229,161.60436246875003,163.75756550000003,67.0,100.0
230,165.55519371875002,165.64298996875002,70.0,122.0
231,165.81858246875,165.92393796875,70.0,112.0
232,166.08197121875003,166.26195353125001,70.0,127.0
233,166.34535996875002,166.53412190625002,72.0,100.0
234,166.60874871875,166.93578975000003,75.0,127.0
235,167.13552621875002,167.44281309375,75.0,127.0
236,167.39891496875,167.63815975000003,72.0,112.0
237,167.66230371875002,167.90813321875,70.0,122.0
238,167.92569246875001,168.29004690625,70.0,127.0
239,168.45246996875002,168.61050321875,72.0,117.0
240,168.71585871875,169.23605150000003,67.0,107.0
241,169.24263621875002,169.47310137500003,72.0,112.0
242,169.76941371875003,169.83745581250002,70.0,117.0
243,170.03280246875002,170.12059871875002,70.0,99.0
244,170.29619121875,170.46739390625,70.0,127.0
245,170.55957996875003,170.8119941875,67.0,102.0
246,170.82296871875002,171.2158569375,65.0,107.0
247,171.34974621875003,171.50777946875002,67.0,112.0
248,171.87652371875,173.61488946875002,60.0,99.0
249,173.98363371875,174.08679431250002,70.0,112.0
250,174.24702246875003,174.35237796875,70.0,96.0
251,174.51041121875002,174.68161390625002,70.0,112.0
252,174.77379996875,174.94939246875,72.0,93.0
253,175.03718871875003,175.53104262500003,67.0,97.0
254,175.56396621875,175.76150778125003,65.0,96.0
255,176.09074371875002,176.2026839375,70.0,127.0
256,176.35413246875,176.7382410625,70.0,122.0
257,176.88090996875002,177.06528209375003,72.0,122.0
258,177.14429871875,177.40988237500002,67.0,122.0
259,177.40768746875003,177.63815262500003,65.0,96.0
260,177.93446496875,178.38661565625003,60.0,89.0
261,178.46124246875002,180.16448971875002,63.0,99.0
262,181.35851871875002,181.71848334375002,75.0,127.0
263,181.88529621875003,182.30013350000002,72.0,112.0
264,182.41207371875,182.5152343125,75.0,127.0
265,182.67546246875003,183.04201181250002,75.0,127.0
266,183.20223996875,183.40856115625002,77.0,102.0
267,183.46562871875003,183.78608503125002,75.0,127.0
268,183.99240621875003,184.43138746875002,72.0,100.0
269,184.51918371875,184.92743628125,75.0,127.0
270,184.78257246875003,184.92743628125,75.0,127.0
271,185.30934996875,185.48494246875003,72.0,107.0
272,185.57273871875003,185.908559375,70.0,122.0
273,186.62629371875002,186.74481865625003,72.0,122.0
274,186.88968246875,187.01259721875002,72.0,99.0
275,187.15307121875003,187.34402806250003,72.0,99.0
276,187.41645996875002,187.6161964375,75.0,117.0
277,187.67984871875,188.103465625,63.0,112.0
278,188.20662621875002,188.35149003125002,65.0,102.0
279,188.47001496875,190.2588635625,67.0,102.0
280,190.84051371875003,190.94806412500003,65.0,112.0
281,191.10390246875002,191.21803759375,65.0,96.0
282,191.36729121875,191.53849390625,65.0,102.0
283,191.63067996875003,191.76895906250002,67.0,97.0
284,191.89406871875002,192.31549071875003,63.0,122.0
285,192.42084621875003,192.61399796875003,60.0,107.0
286,192.94762371875,193.50512990625003,65.0,102.0
287,193.73778996875,193.93752643750003,63.0,112.0
288,194.00117871875003,194.459914125,65.0,100.0
289,194.79134496875002,194.98449671875002,63.0,122.0
290,195.05473371875001,195.17764846875002,65.0,95.0
291,195.31812246875003,195.43884231250001,65.0,97.0
292,195.58151121875002,195.70442596875003,65.0,93.0
293,195.84489996875,195.9963485,63.0,112.0
294,196.10828871875003,196.38265200000004,65.0,102.0
295,196.89845496875003,197.12233540625002,67.0,107.0
296,197.16184371875002,197.99590809375002,70.0,127.0
297,198.21539871875,198.62804109375003,75.0,127.0
298,198.74217621875002,198.99020062500003,72.0,117.0
299,199.26895371875003,199.37211431250003,75.0,127.0
300,199.53234246875002,199.64867250000003,75.0,107.0
301,199.79573121875003,199.98010334375002,75.0,117.0
302,200.05911996875003,200.26763606250003,77.0,99.0
303,200.32250871875002,200.70442240625002,75.0,117.0
304,200.84928621875002,201.35630956250003,72.0,127.0
305,201.37606371875003,201.67237606250004,72.0,112.0
306,201.63945246875002,201.99502728125003,75.0,117.0
307,202.16622996875003,202.40327984375003,72.0,99.0
308,202.42961871875002,202.99809943750003,70.0,117.0
309,203.48317371875,203.59730884375003,72.0,122.0
310,203.74656246875003,203.85850268750002,72.0,97.0
311,204.00995121875002,204.15481503125002,72.0,107.0
312,204.27333996875004,204.49502550000003,75.0,127.0
313,204.53672871875003,205.0174131875,63.0,112.0
314,205.06350621875004,205.30933571875002,65.0,112.0
315,205.32689496875003,207.18159075000003,67.0,93.0
316,207.69739371875002,207.80055431250003,65.0,122.0
317,207.96078246875,208.07491759375003,65.0,96.0
318,208.22417121875003,208.46122109375003,65.0,112.0
319,208.48755996875002,208.68510153125,67.0,100.0
320,208.75094871875,209.23821790625001,63.0,117.0
321,209.27772621875002,209.54550478125003,60.0,117.0
322,209.80450371875003,210.37078953125,65.0,107.0
323,210.59466996875003,210.78562681250003,63.0,117.0
324,210.85805871875002,211.25094693750003,65.0,100.0
325,211.64822496875001,211.83918181250002,63.0,127.0
326,211.91161371875003,212.00599468750002,65.0,100.0
327,212.17500246875002,212.28035796875002,65.0,97.0
328,212.43839121875,212.54155181250002,65.0,90.0
329,212.70177996875003,212.81372018750002,63.0,117.0
330,212.96516871875002,213.11003253125003,65.0,122.0
331,213.22855746875,213.58193737500002,72.0,112.0
332,213.75533496875002,214.01213900000002,67.0,99.0
333,214.01872371875,215.30493878125003,70.0,127.0
334,216.12583371875002,216.21362996875,70.0,127.0
335,216.38922246875003,216.48579834375002,70.0,117.0
336,216.65261121875002,216.80186484375002,70.0,127.0
337,216.91599996875001,217.04769434375004,72.0,95.0
338,217.17938871875003,217.46911634375002,72.0,127.0
339,217.44277746875002,217.77859812500003,75.0,117.0
340,217.96955496875003,218.19563031250001,72.0,99.0
341,218.23294371875002,218.35146865625003,70.0,127.0
342,218.49633246875,218.84751746875003,70.0,117.0
343,219.02310996875002,219.21626171875002,72.0,102.0
344,219.28649871875,219.63329390625003,67.0,97.0
345,219.81327621875002,220.06130062500003,72.0,112.0
346,220.34005371875003,220.43004487500002,70.0,117.0
347,220.60344246875002,220.71099287500002,70.0,95.0
348,220.86683121875004,221.12802506250003,70.0,122.0
349,221.13021996875003,221.36068512500003,67.0,107.0
350,221.39360871875002,221.66358218750003,65.0,97.0
351,221.92038621875002,222.06305512500003,67.0,96.0
352,222.18377496875001,223.75093803125003,60.0,97.0
353,224.55427371875,224.67499356250002,70.0,127.0
354,224.81766246875003,224.92960268750002,70.0,96.0
355,225.08105121875002,225.24566918750003,70.0,117.0
356,225.34443996875004,225.51344775,72.0,85.0
357,225.60782871875003,226.0885131875,67.0,99.0
358,226.13460621875004,226.36287646875002,65.0,102.0
359,226.66138371875002,226.75795959375003,70.0,127.0
360,226.92477246875004,227.29351671875003,70.0,127.0
361,227.45154996875002,227.57665962500002,72.0,112.0
362,227.71493871875003,227.91248028125003,67.0,117.0
363,227.97832746875002,228.200013,65.0,112.0
364,228.50510496875003,228.94408621875002,60.0,100.0
365,229.03188246875,230.76805331250003,67.0,107.0
366,232.98271371875003,233.05734053125002,70.0,127.0
367,233.24610246875002,233.33389871875002,70.0,107.0
368,233.50949121875001,233.68947353125003,70.0,122.0
369,233.77287996875003,233.90018453125003,72.0,99.0
370,234.03626871875002,234.60694434375003,72.0,107.0
371,234.56304621875003,234.73424890625003,75.0,117.0
372,234.82643496875002,235.07226446875003,72.0,112.0
373,235.08982371875004,235.21493337500002,70.0,102.0
374,235.35321246875003,235.65171971875003,70.0,127.0
375,235.87998996875004,236.09948059375003,72.0,122.0
376,236.14337871875003,236.64820715625004,67.0,107.0
377,236.67015621875004,236.86769778125003,72.0,127.0
378,237.19693371875002,237.29570450000003,70.0,127.0
379,237.46032246875004,237.55470343750002,70.0,117.0
380,237.72371121875003,238.0112439375,70.0,122.0
381,237.98709996875002,238.22853965625004,67.0,112.0
382,238.25048871875003,238.50070803125,65.0,99.0
383,238.77726621875001,238.92871475000004,67.0,93.0
384,239.04065496875003,240.99192662500002,60.0,97.0
385,241.41115371875003,241.50114487500002,70.0,127.0
386,241.67454246875002,241.77111834375003,70.0,122.0
387,241.93793121875004,242.12010843750002,70.0,127.0
388,242.20131996875003,242.361548125,72.0,100.0
389,242.46470871875002,242.94758809375003,67.0,117.0
390,242.99148621875003,243.21097684375002,65.0,102.0
391,243.51826371875003,243.63239884375002,70.0,127.0
392,243.78165246875002,244.17234578125002,70.0,117.0
393,244.30842996875003,244.41817528125003,72.0,112.0
394,244.57181871875002,244.84179218750003,67.0,112.0
395,244.83520746875,245.07664715625003,65.0,99.0
396,245.36198496875002,245.74609356250002,60.0,99.0
397,245.88876246875003,247.75223787500002,63.0,117.0
