,start,end,pitch,velocity
0,14.370051218750001,14.938531937500002,51.0,61.0
1,14.633439968750002,15.289716937500001,55.0,70.0
2,13.843273718750002,15.831858781250002,39.0,88.0
3,15.160217468750002,15.919655031250002,51.0,66.0
4,14.106662468750002,15.924044843750002,46.0,34.0
5,15.423606218750002,16.215967375,58.0,52.0
6,15.686994968750001,16.220357187500003,55.0,50.0
7,14.896828718750001,16.404729312500002,63.0,100.0
8,15.950383718750002,17.91701971875,39.0,67.0
9,16.21377246875,18.055298812500002,46.0,59.0
10,16.477161218750002,18.118951093750002,51.0,73.0
11,17.53071621875,18.77303315625,58.0,40.0
12,17.003938718750003,18.891558093750003,63.0,100.0
13,16.740549968750003,19.104464000000004,55.0,60.0
14,18.057493718750003,20.068027843750002,39.0,72.0
15,18.58427121875,20.19972221875,46.0,63.0
16,19.637826218750003,20.245815250000003,55.0,63.0
17,19.111048718750002,20.283128656250003,58.0,85.0
18,19.111048718750002,20.3643401875,63.0,97.0
19,19.111048718750002,20.496034562500004,51.0,65.0
20,20.691381218750003,21.297175343750002,51.0,85.0
21,20.954769968750004,21.358632718750002,55.0,73.0
22,20.16460371875,21.586902968750003,39.0,63.0
23,20.427992468750002,21.597877500000003,46.0,39.0
24,21.48154746875,21.758105656250002,51.0,83.0
25,21.744936218750002,22.219035968750003,58.0,75.0
26,21.21815871875,22.236595218750004,63.0,122.0
27,22.008324968750003,22.243179937500003,55.0,56.0
28,23.325268718750003,23.961791531250004,63.0,93.0
29,22.271713718750004,24.291027468750002,44.0,72.0
30,22.79849121875,24.416137125000002,51.0,68.0
31,23.325268718750003,24.47539959375,56.0,55.0
32,23.85204621875,24.481984312500003,60.0,66.0
33,23.325268718750003,24.48856903125,68.0,85.0
34,24.11543496875,24.532467156250004,63.0,81.0
35,24.905601218750004,25.49383609375,56.0,79.0
36,24.642212468750003,25.849410906250004,51.0,60.0
37,24.378823718750002,25.869165062500002,44.0,60.0
38,25.695767468750002,26.0535371875,56.0,55.0
39,25.168989968750004,26.071096437500003,60.0,67.0
40,25.43237871875,26.442035593750003,68.0,112.0
41,25.959156218750003,26.453010125000002,63.0,92.0
42,26.222544968750004,26.488128625,60.0,75.0
43,27.012711218750002,27.587776656250004,58.0,93.0
44,27.276099968750003,27.627284968750004,62.0,63.0
45,26.74932246875,27.644844218750002,53.0,59.0
46,26.485933718750005,27.787513125000004,46.0,70.0
47,27.539488718750004,28.538171062500002,65.0,96.0
48,28.066266218750002,28.56231503125,62.0,58.0
49,28.593043718750003,30.546510281250004,39.0,73.0
50,29.646598718750003,30.579433875000003,51.0,48.0
51,29.119821218750005,30.638696343750002,46.0,63.0
52,29.646598718750003,30.680399562500003,58.0,76.0
53,30.173376218750004,30.689179187500002,55.0,70.0
54,30.700153718750002,32.7436114375,39.0,77.0
55,31.226931218750003,32.772145218750005,46.0,53.0
56,31.753708718750005,32.88189053125,51.0,52.0
57,32.54387496875,32.949932625,55.0,65.0
58,31.753708718750005,33.53816750000001,63.0,95.0
59,32.280486218750006,33.694005843750006,58.0,71.0
60,32.80726371875,34.740976125,39.0,69.0
61,33.860818718750004,34.861695968750006,51.0,62.0
62,34.387596218750005,34.86608578125001,58.0,82.0
63,33.33404121875,34.916568625000004,46.0,55.0
64,33.860818718750004,34.958271843750005,63.0,97.0
65,34.91437371875001,36.5012909375,39.0,78.0
66,35.96792871875,36.5012909375,51.0,72.0
67,35.44115121875,36.532019625000004,46.0,41.0
68,36.494706218750004,37.0017295625,58.0,67.0
69,35.96792871875,37.085136000000006,63.0,78.0
70,37.021483718750005,38.62376528125,41.0,70.0
71,37.54826121875001,38.691807375,48.0,64.0
72,38.07503871875,38.82130684375,53.0,61.0
73,38.07503871875,38.981535,65.0,61.0
74,38.60181621875,39.02982293750001,56.0,69.0
75,38.07503871875,39.0386025625,60.0,66.0
76,39.655371218750005,40.27213987500001,53.0,60.0
77,39.128593718750004,40.98987421875,46.0,73.0
78,40.70892621875,41.222534281250006,53.0,36.0
79,40.18214871875001,41.7954048125,58.0,72.0
80,40.70892621875,41.885395968750004,62.0,64.0
81,40.18214871875001,41.90953993750001,65.0,82.0
82,42.289258718750006,42.6382488125,58.0,76.0
83,41.762481218750004,42.721655250000005,53.0,62.0
84,41.23570371875,42.79408715625001,46.0,82.0
85,42.289258718750006,43.3581780625,65.0,86.0
86,42.81603621875001,43.388906750000004,62.0,82.0
87,43.34281371875,45.31603443750001,39.0,88.0
88,43.86959121875,45.47626259375001,46.0,65.0
89,44.396368718750004,45.590397718750005,51.0,63.0
90,44.396368718750004,46.400318125000005,58.0,97.0
91,44.923146218750006,46.751503125000006,55.0,63.0
92,46.76686746875001,47.15536587500001,51.0,59.0
93,45.44992371875001,47.41655971875001,39.0,79.0
94,45.97670121875001,47.537279562500004,46.0,35.0
95,47.29364496875001,47.62507581250001,55.0,66.0
96,46.50347871875,47.675558656250004,63.0,102.0
97,47.030256218750004,47.67775356250001,58.0,92.0
98,47.557033718750006,49.55439840625001,39.0,90.0
99,48.08381121875001,49.71023675000001,46.0,42.0
100,48.61058871875001,49.749745062500004,51.0,59.0
101,48.61058871875001,50.452115062500006,63.0,102.0
102,49.13736621875,50.614538125,58.0,85.0
103,49.664143718750005,51.60883065625001,39.0,90.0
104,50.71769871875001,51.69223709375001,51.0,78.0
105,50.190921218750006,51.79978750000001,46.0,45.0
106,51.507864968750006,51.84588053125,55.0,73.0
107,51.24447621875001,51.872219406250004,58.0,89.0
108,50.71769871875001,52.00171887500001,63.0,95.0
109,52.824808718750006,53.189163156250004,51.0,55.0
110,51.77125371875,53.25501034375001,39.0,75.0
111,52.298031218750005,53.290128843750004,46.0,56.0
112,53.35158621875001,53.84105031250001,58.0,72.0
113,52.824808718750006,53.843245218750006,63.0,100.0
114,53.614974968750005,53.88933825000001,55.0,64.0
115,54.931918718750005,55.449916593750004,53.0,76.0
116,53.87836371875001,55.82963537500001,41.0,66.0
117,55.72208496875,55.98547371875001,53.0,69.0
118,55.458696218750006,56.01181259375001,56.0,66.0
119,54.40514121875,56.014007500000005,48.0,51.0
120,54.931918718750005,56.035956562500004,60.0,82.0
121,57.039028718750004,57.71286493750001,65.0,93.0
122,55.98547371875001,57.980643500000006,46.0,99.0
123,57.039028718750004,58.094778625000004,58.0,81.0
124,57.565806218750005,58.110142968750004,62.0,78.0
125,56.51225121875001,58.14965128125001,53.0,55.0
126,59.14613871875001,59.356849718750006,58.0,73.0
127,58.61936121875001,59.43586634375001,53.0,56.0
128,58.09258371875001,59.501713531250005,46.0,85.0
129,59.672916218750004,60.22822750000001,62.0,69.0
130,59.14613871875001,60.22822750000001,65.0,66.0
131,59.14613871875001,60.24359184375,70.0,95.0
132,61.25324871875001,61.86562756250001,58.0,100.0
133,60.199693718750005,62.20583803125,39.0,88.0
134,60.72647121875001,62.28704956250001,46.0,65.0
135,61.516637468750005,62.333142593750004,51.0,50.0
136,62.04341496875001,62.44727771875001,58.0,89.0
137,61.25324871875001,62.482396218750004,63.0,100.0
138,61.78002621875001,62.493370750000004,55.0,73.0
139,62.833581218750005,63.45912950000001,51.0,107.0
140,63.09696996875001,63.60399331250001,55.0,92.0
141,62.306803718750004,63.72032334375001,39.0,88.0
142,62.57019246875001,63.72690806250001,46.0,95.0
143,63.623747468750004,63.88713621875001,51.0,90.0
144,63.36035871875001,64.38099012500001,63.0,127.0
145,63.88713621875001,64.407329,58.0,127.0
146,64.15052496875,64.42269334375001,55.0,100.0
147,64.94069121875,66.00522075,56.0,97.0
148,65.20407996875001,66.03814434375,60.0,89.0
149,64.67730246875001,66.07765265625001,51.0,41.0
150,64.41391371875001,66.12594059375,44.0,78.0
151,66.25763496875001,66.47054087500001,60.0,67.0
152,65.99424621875,66.53858296875,63.0,99.0
153,65.46746871875001,66.70978565625,68.0,117.0
154,67.04780121875001,67.6075023125,51.0,99.0
155,67.31118996875001,67.71505271875,55.0,78.0
156,66.78441246875,67.99380581250001,46.0,59.0
157,66.52102371875,68.01575487500001,39.0,81.0
158,67.83796746875001,68.12769509375,51.0,90.0
159,68.10135621875001,68.62374390625001,58.0,89.0
160,67.57457871875,68.63910825,63.0,112.0
161,69.15491121875,69.76729006250001,56.0,95.0
162,68.89152246875001,69.84191687500001,51.0,33.0
163,68.62813371875001,69.964831625,44.0,75.0
164,69.68168871875001,70.70451503125001,68.0,107.0
165,70.20846621875,70.75719278125001,63.0,96.0
166,69.41829996875,70.78792146875001,60.0,64.0
167,71.26202121875001,71.85903571875001,51.0,93.0
168,70.99863246875,72.25631375,46.0,35.0
169,70.73524371875001,72.2870424375,39.0,90.0
170,72.05218746875,72.37703359375001,51.0,95.0
171,72.31557621875001,72.80504031250001,58.0,102.0
172,71.52540996875001,72.84235371875,55.0,72.0
173,71.78879871875,72.90381109375001,63.0,122.0
174,73.36913121875001,73.95517118750001,56.0,88.0
175,73.63251996875,73.97492534375,60.0,71.0
176,74.15929746875001,74.34805940625,56.0,90.0
177,73.10574246875001,74.36342375000001,51.0,35.0
178,72.84235371875,74.45780471875001,44.0,95.0
179,73.89590871875001,74.78484575,63.0,117.0
180,74.42268621875,74.96702296875002,60.0,93.0
181,75.47624121875,76.12593346875,53.0,85.0
182,76.26640746875,76.49687262500001,53.0,77.0
183,75.73962996875001,76.62637209375,60.0,69.0
184,74.94946371875001,76.78001553125002,41.0,78.0
185,75.21285246875001,77.11803109375,48.0,55.0
186,77.05657371875,77.72382521875001,60.0,49.0
187,76.52979621875001,77.93234131250001,65.0,95.0
188,76.00301871875001,77.93453621875001,69.0,102.0
189,77.58335121875001,78.1869504375,53.0,86.0
190,77.84673996875001,78.3010855625,60.0,59.0
191,77.05657371875,78.463508625,41.0,75.0
192,77.31996246875,78.48765259375001,48.0,42.0
193,78.37351746875001,78.58642337500001,53.0,82.0
194,78.11012871875,78.71372793750001,65.0,99.0
195,78.63690621875001,79.14612446875,60.0,90.0
196,78.11012871875,79.15490409375,69.0,102.0
197,79.69046121875,80.26552665625,58.0,95.0
198,79.95384996875,80.51355106250001,62.0,88.0
199,79.42707246875001,80.58598296875,53.0,65.0
200,80.48062746875001,80.63427090625001,58.0,122.0
201,79.16368371875001,80.71767734375001,46.0,81.0
202,80.21723871875001,81.2247006875,70.0,127.0
203,80.74401621875,81.2685988125,65.0,127.0
204,81.00740496875001,81.28835296875,62.0,127.0
205,81.79757121875001,82.29581493750001,56.0,82.0
206,81.53418246875,82.64480503125002,51.0,65.0
207,82.58773746875,82.67114390625001,56.0,82.0
208,81.27079371875001,82.70626240625,44.0,88.0
209,82.06095996875001,82.86868546875002,60.0,93.0
210,82.32434871875,83.24620934375001,68.0,112.0
211,82.85112621875001,83.34936993750001,63.0,99.0
212,83.11451496875002,83.37351390625001,60.0,83.0
213,83.90468121875001,84.47096703125001,51.0,90.0
214,83.64129246875001,84.7980080625,46.0,58.0
215,83.37790371875,84.872634875,39.0,79.0
216,84.16806996875,84.98238018750001,55.0,82.0
217,84.69484746875001,84.98896490625,51.0,90.0
218,84.95823621875,85.44550540625,58.0,93.0
219,84.43145871875001,85.46306465625001,63.0,112.0
220,85.22162496875,85.46525956250001,55.0,81.0
221,86.01179121875,86.57807703125,56.0,99.0
222,86.27517996875001,86.7997625625,60.0,83.0
223,85.74840246875002,86.87877918750002,51.0,68.0
224,86.80195746875,86.92048240625002,56.0,89.0
225,85.48501371875001,86.97316015625,44.0,77.0
226,86.53856871875001,87.58773390625001,68.0,112.0
227,87.06534621875001,87.61626768750001,63.0,66.0
228,87.85551246875,88.90028784375001,46.0,35.0
229,88.11890121875001,88.97491465625001,51.0,73.0
230,87.59212371875,89.02759240625001,39.0,76.0
231,88.38228996875002,89.5829036875,55.0,62.0
232,89.17245621875001,89.6180221875,58.0,90.0
233,88.64567871875,89.67728465625001,63.0,122.0
234,90.22601121875002,90.84497478125002,56.0,83.0
235,91.01617746875002,91.22469356250001,56.0,81.0
236,89.96262246875001,91.2598120625,51.0,66.0
237,89.69923371875001,91.36736246875002,44.0,85.0
238,90.48939996875,91.37614209375,60.0,72.0
239,91.27956621875,91.77780993750001,63.0,90.0
240,90.75278871875001,91.8129284375,68.0,112.0
241,92.59650996875001,92.94769496875001,60.0,82.0
242,92.33312121875001,92.96525421875,53.0,83.0
243,93.12328746875001,93.34277809375001,53.0,89.0
244,91.80634371875001,93.70932743750001,41.0,66.0
245,92.06973246875,93.92881806250001,48.0,65.0
246,93.38667621875001,94.50607840625001,60.0,76.0
247,92.85989871875002,94.80678056250001,65.0,95.0
248,94.44023121875001,95.04822025000001,53.0,83.0
249,94.70361996875,95.08333875000001,60.0,79.0
250,94.17684246875001,95.30721918750001,48.0,72.0
251,93.91345371875,95.31819371875001,41.0,72.0
252,95.23039746875001,95.40379506250001,53.0,99.0
253,94.96700871875001,95.55963340625001,65.0,95.0
254,94.96700871875001,95.62767550000001,69.0,90.0
255,95.75717496875001,96.05348731250001,65.0,88.0
256,95.75717496875001,96.057877125,69.0,95.0
257,95.49378621875002,96.07324146875001,60.0,100.0
258,96.54734121875,97.18386403125001,58.0,100.0
259,96.81072996875001,97.39896484375001,62.0,95.0
260,96.28395246875002,97.4318884375,53.0,68.0
261,97.33750746875,97.45822731250001,58.0,112.0
262,96.02056371875001,97.50651525,46.0,76.0
263,97.60089621875001,98.12767371875002,65.0,97.0
264,97.07411871875001,98.13206353125001,70.0,127.0
265,97.86428496875001,98.13864825000002,62.0,99.0
266,98.12767371875002,100.11406387500001,39.0,89.0
267,98.39106246875001,100.23258881250001,46.0,69.0
268,99.70800621875001,100.94154353125,58.0,55.0
269,99.18122871875,101.06665318750001,63.0,107.0
270,98.65445121875001,101.25980493750001,51.0,89.0
271,101.02494996875001,101.38491459375001,58.0,61.0
272,98.91783996875002,101.49465990625,55.0,73.0
273,100.23478371875001,101.71415053125001,39.0,67.0
274,100.76156121875002,101.72731996875001,46.0,39.0
275,101.55172746875002,101.80194678125001,51.0,48.0
276,101.28833871875001,102.31555484375001,63.0,122.0
277,101.81511621875,102.326529375,58.0,77.0
278,102.60528246875,103.65005784375,46.0,60.0
279,102.34189371875001,103.66542218750001,39.0,79.0
280,102.86867121875001,103.67859162500001,51.0,59.0
281,103.13205996875001,103.75321843750001,55.0,54.0
282,103.92222621875001,104.42046993750002,58.0,78.0
283,103.39544871875002,104.44022409375002,63.0,99.0
284,104.97578121875002,105.65400725,53.0,81.0
285,104.44900371875,106.2202930625,41.0,66.0
286,105.76594746875001,106.25541156250002,53.0,63.0
287,104.71239246875001,106.32125875000001,48.0,41.0
288,106.02933621875002,106.49026653125001,65.0,92.0
289,105.23916996875,106.50563087500001,68.0,100.0
290,106.29272496875001,106.52538503125001,60.0,81.0
291,107.34627996875001,107.67551590625001,62.0,64.0
292,107.08289121875,107.73697328125002,58.0,83.0
293,106.55611371875001,108.54469878125,46.0,90.0
294,106.81950246875002,108.71590146875002,53.0,53.0
295,107.87305746875,108.99684946875001,58.0,44.0
296,108.13644621875001,109.28877200000001,62.0,77.0
297,107.60966871875002,109.53679640625,65.0,102.0
298,109.19000121875001,109.63337228125002,58.0,73.0
299,108.92661246875001,109.90115084375002,53.0,54.0
300,108.66322371875002,109.96260821875,46.0,77.0
301,109.45338996875002,109.98236237500001,62.0,73.0
302,109.71677871875,110.73521521875001,70.0,97.0
303,109.98016746875001,110.76155409375001,65.0,89.0
304,110.24355621875002,110.79667259375002,62.0,83.0
305,111.29711121875002,111.88754100000001,51.0,78.0
306,111.56049996875001,112.10483671875001,55.0,75.0
307,110.77033371875001,112.78745256250001,39.0,73.0
308,111.03372246875001,112.95865525,46.0,58.0
309,112.08727746875002,113.48762765625001,51.0,72.0
310,111.82388871875001,113.73345715625001,63.0,117.0
311,112.35066621875,113.79930434375001,58.0,88.0
312,112.61405496875001,114.06488800000001,55.0,72.0
313,114.19438746875001,114.70360571875001,51.0,89.0
314,112.87744371875002,114.82432556250001,39.0,76.0
315,113.40422121875001,114.95163012500001,46.0,52.0
316,113.93099871875002,115.03284165625001,63.0,112.0
317,114.72116496875002,115.05698562500001,55.0,69.0
318,114.45777621875001,115.05918053125001,58.0,93.0
319,114.98455371875,116.98850312500001,39.0,85.0
320,115.51133121875002,117.14434146875001,46.0,52.0
321,116.03810871875001,117.34188303125,51.0,55.0
322,116.03810871875001,117.87963506250001,63.0,112.0
323,116.56488621875002,117.88841468750002,58.0,81.0
324,117.61844121875001,118.24618440625001,51.0,76.0
325,117.88182996875001,118.65882678125001,55.0,64.0
326,117.09166371875001,118.99245253125001,39.0,85.0
327,117.35505246875002,119.15707050000002,46.0,38.0
328,118.67199621875001,119.99771959375002,58.0,75.0
329,118.14521871875002,120.04820243750001,63.0,102.0
330,119.72555121875001,120.33354025000001,51.0,64.0
331,119.46216246875001,120.37743837500001,46.0,52.0
332,119.98893996875002,120.412556875,55.0,67.0
333,119.19877371875002,120.42572631250002,39.0,70.0
334,120.77910621875002,121.23125690625001,58.0,79.0
335,120.25232871875001,121.24662125000002,63.0,117.0
336,121.83266121875002,122.48015856250001,53.0,83.0
337,122.09604996875001,122.91913981250002,60.0,88.0
338,121.56927246875001,122.96742775000001,48.0,53.0
339,121.30588371875001,122.97401246875002,41.0,66.0
340,122.62282746875002,123.05083418750002,53.0,86.0
341,122.35943871875001,123.37129050000001,68.0,112.0
342,122.88621621875001,123.38445993750001,65.0,90.0
343,123.93977121875001,124.57190421875002,58.0,97.0
344,123.41299371875002,125.20184231250002,46.0,82.0
345,123.67638246875002,125.55741712500001,53.0,68.0
346,124.20315996875001,125.84714475000001,62.0,74.0
347,124.46654871875002,126.13467746875001,70.0,112.0
348,124.99332621875001,126.35855790625001,65.0,90.0
349,126.04688121875002,126.45732868750001,58.0,77.0
350,125.78349246875001,126.61097212500002,53.0,53.0
351,125.52010371875001,126.71413271875001,46.0,69.0
352,126.31026996875002,127.62721371875001,62.0,67.0
353,127.10043621875002,127.62721371875001,65.0,77.0
354,126.57365871875001,127.62721371875001,70.0,127.0
355,128.15399121875,128.69174325,51.0,70.0
356,128.41737996875003,129.06707221875,55.0,68.0
357,127.62721371875001,129.57190065625002,39.0,81.0
358,127.89060246875002,129.7496880625,46.0,35.0
359,129.20754621875002,130.36206690625002,58.0,92.0
360,128.68076871875002,130.59033715625,63.0,112.0
361,128.94415746875,130.81860740625,51.0,77.0
362,130.52448996875,130.87567496875002,58.0,76.0
363,129.47093496875002,131.0315133125,55.0,75.0
364,129.73432371875,131.74705275000002,39.0,82.0
365,130.26110121875,131.75363746875001,46.0,54.0
366,131.05126746875,131.77119671875002,51.0,64.0
367,131.31465621875,131.85240825000002,58.0,88.0
368,130.78787871875002,131.8655776875,63.0,112.0
369,131.57804496875002,131.87655221875002,55.0,64.0
370,132.36821121875002,132.9366919375,51.0,61.0
371,132.63159996875,133.28787693750002,55.0,70.0
372,131.84143371875,133.83001878125,39.0,88.0
373,133.15837746875002,133.91781503125,51.0,66.0
374,132.10482246875,133.92220484375002,46.0,34.0
375,133.42176621875,134.214127375,58.0,52.0
376,133.68515496875003,134.21851718750003,55.0,50.0
377,132.89498871875003,134.4028893125,63.0,100.0
378,133.94854371875002,135.91517971875,39.0,67.0
379,134.21193246875,136.05345881250003,46.0,59.0
380,134.47532121875003,136.11711109375003,51.0,73.0
381,135.52887621875,136.77119315625,58.0,40.0
382,135.00209871875,136.88971809375002,63.0,100.0
383,134.73870996875002,137.10262400000002,55.0,60.0
384,136.05565371875002,138.06618784375001,39.0,72.0
385,136.58243121875,138.19788221875,46.0,63.0
386,137.63598621875002,138.24397525,55.0,63.0
387,137.10920871875,138.28128865625,58.0,85.0
388,137.10920871875,138.36250018750002,63.0,97.0
389,137.10920871875,138.4941945625,51.0,65.0
390,138.68954121875,139.29533534375003,51.0,85.0
391,138.95292996875003,139.35679271875003,55.0,73.0
392,138.16276371875003,139.58506296875,39.0,63.0
393,138.42615246875002,139.59603750000002,46.0,39.0
394,139.47970746875,139.75626565625,51.0,83.0
395,139.74309621875003,140.21719596875002,58.0,75.0
396,139.21631871875002,140.23475521875002,63.0,122.0
397,140.00648496875002,140.24133993750002,55.0,56.0
398,141.32342871875002,141.95995153125003,63.0,93.0
399,140.26987371875,142.28918746875001,44.0,72.0
400,140.79665121875001,142.41429712500002,51.0,68.0
401,141.32342871875002,142.47355959375002,56.0,55.0
402,141.85020621875,142.48014431250002,60.0,66.0
403,141.32342871875002,142.48672903125,68.0,85.0
404,142.11359496875002,142.53062715625,63.0,81.0
405,142.90376121875002,143.49199609375,56.0,79.0
406,142.64037246875,143.84757090625,51.0,60.0
407,142.37698371875,143.86732506250002,44.0,60.0
408,143.69392746875002,144.05169718750003,56.0,55.0
409,143.16714996875,144.0692564375,60.0,67.0
410,143.43053871875003,144.44019559375002,68.0,112.0
411,143.95731621875,144.451170125,63.0,92.0
412,144.22070496875003,144.48628862500001,60.0,75.0
413,145.01087121875003,145.58593665625003,58.0,93.0
414,145.27425996875002,145.62544496875,62.0,63.0
415,144.74748246875,145.64300421875,53.0,59.0
416,144.48409371875002,145.78567312500002,46.0,70.0
417,145.53764871875,146.5363310625,65.0,96.0
418,146.06442621875001,146.56047503125,62.0,58.0
419,146.59120371875002,148.54467028125,39.0,73.0
420,147.64475871875,148.57759387500002,51.0,48.0
421,147.11798121875,148.63685634375003,46.0,63.0
422,147.64475871875,148.67855956250003,58.0,76.0
423,148.17153621875002,148.68733918750002,55.0,70.0
424,148.69831371875003,150.7417714375,39.0,77.0
425,149.22509121875,150.77030521875002,46.0,53.0
426,149.75186871875002,150.88005053125002,51.0,52.0
427,150.54203496875002,150.94809262500002,55.0,65.0
428,149.75186871875002,151.53632750000003,63.0,95.0
429,150.27864621875003,151.69216584375002,58.0,71.0
430,150.80542371875,152.73913612500002,39.0,69.0
431,151.85897871875002,152.85985596875003,51.0,62.0
432,152.38575621875,152.86424578125002,58.0,82.0
433,151.33220121875001,152.914728625,46.0,55.0
434,151.85897871875002,152.95643184375,63.0,97.0
435,152.91253371875,154.49945093750003,39.0,78.0
436,153.96608871875003,154.49945093750003,51.0,72.0
437,153.43931121875002,154.53017962500002,46.0,41.0
438,154.49286621875,154.99988956250002,58.0,67.0
439,153.96608871875003,155.08329600000002,63.0,78.0
440,155.01964371875002,156.62192528125001,41.0,70.0
441,155.54642121875003,156.689967375,48.0,64.0
442,156.07319871875,156.81946684375,53.0,61.0
443,156.07319871875,156.97969500000002,65.0,61.0
444,156.59997621875002,157.0279829375,56.0,69.0
445,156.07319871875,157.03676256250003,60.0,66.0
446,157.65353121875,158.270299875,53.0,60.0
447,157.12675371875002,158.98803421875002,46.0,73.0
448,158.70708621875002,159.22069428125002,53.0,36.0
449,158.18030871875,159.79356481250002,58.0,72.0
450,158.70708621875002,159.88355596875002,62.0,64.0
451,158.18030871875,159.9076999375,65.0,82.0
452,160.28741871875002,160.6364088125,58.0,76.0
453,159.76064121875,160.71981525,53.0,62.0
454,159.23386371875003,160.79224715625003,46.0,82.0
455,160.28741871875002,161.35633806250001,65.0,86.0
456,160.81419621875003,161.38706675000003,62.0,82.0
457,161.34097371875,163.31419443750002,39.0,88.0
458,161.86775121875002,163.47442259375,46.0,65.0
459,162.39452871875002,163.58855771875002,51.0,63.0
460,162.39452871875002,164.39847812500003,58.0,97.0
461,162.92130621875,164.749663125,55.0,63.0
462,164.76502746875002,165.153525875,51.0,59.0
463,163.44808371875,165.41471971875,39.0,79.0
464,163.97486121875002,165.53543956250002,46.0,35.0
465,165.29180496875003,165.6232358125,55.0,66.0
466,164.50163871875003,165.67371865625003,63.0,102.0
467,165.02841621875,165.67591356250003,58.0,92.0
468,165.55519371875002,167.55255840625003,39.0,90.0
469,166.08197121875003,167.70839675000002,46.0,42.0
470,166.60874871875,167.74790506250002,51.0,59.0
471,166.60874871875,168.45027506250003,63.0,102.0
472,167.13552621875002,168.612698125,58.0,85.0
473,167.66230371875002,169.60699065625002,39.0,90.0
474,168.71585871875,169.69039709375002,51.0,78.0
475,168.18908121875,169.79794750000002,46.0,45.0
476,169.50602496875,169.84404053125002,55.0,73.0
477,169.24263621875002,169.87037940625,58.0,89.0
478,168.71585871875,169.999878875,63.0,95.0
479,170.82296871875002,171.18732315625002,51.0,55.0
480,169.76941371875003,171.25317034375,39.0,75.0
481,170.29619121875,171.28828884375002,46.0,56.0
482,171.34974621875003,171.83921031250003,58.0,72.0
483,170.82296871875002,171.84140521875003,63.0,100.0
484,171.61313496875002,171.88749825000002,55.0,64.0
485,172.93007871875002,173.44807659375002,53.0,76.0
486,171.87652371875,173.82779537500002,41.0,66.0
487,173.72024496875002,173.98363371875,53.0,69.0
488,173.45685621875003,174.00997259375,56.0,66.0
489,172.40330121875002,174.01216750000003,48.0,51.0
490,172.93007871875002,174.03411656250003,60.0,82.0
491,175.03718871875003,175.7110249375,65.0,93.0
492,173.98363371875,175.97880350000003,46.0,99.0
493,175.03718871875003,176.09293862500002,58.0,81.0
494,175.56396621875,176.10830296875002,62.0,78.0
495,174.51041121875002,176.14781128125003,53.0,55.0
496,177.14429871875,177.35500971875,58.0,73.0
497,176.61752121875003,177.43402634375002,53.0,56.0
498,176.09074371875002,177.49987353125002,46.0,85.0
499,177.67107621875002,178.22638750000002,62.0,69.0
500,177.14429871875,178.22638750000002,65.0,66.0
501,177.14429871875,178.24175184375002,70.0,95.0
502,179.25140871875,179.86378756250002,58.0,100.0
503,178.19785371875003,180.20399803125002,39.0,88.0
504,178.72463121875003,180.28520956250003,46.0,65.0
505,179.51479746875003,180.33130259375002,51.0,50.0
506,180.04157496875,180.44543771875001,58.0,89.0
507,179.25140871875,180.48055621875002,63.0,100.0
508,179.77818621875002,180.49153075,55.0,73.0
509,180.83174121875,181.45728950000003,51.0,107.0
510,181.09512996875003,181.6021533125,55.0,92.0
511,180.30496371875003,181.71848334375002,39.0,88.0
512,180.56835246875002,181.72506806250001,46.0,95.0
513,181.62190746875,181.88529621875003,51.0,90.0
514,181.35851871875002,182.37915012500002,63.0,127.0
515,181.88529621875003,182.40548900000002,58.0,127.0
516,182.14868496875002,182.42085334375003,55.0,100.0
517,182.93885121875002,184.00338075000002,56.0,97.0
518,183.20223996875,184.03630434375003,60.0,89.0
519,182.67546246875003,184.07581265625,51.0,41.0
520,182.41207371875,184.12410059375003,44.0,78.0
521,184.25579496875002,184.46870087500002,60.0,67.0
522,183.99240621875003,184.53674296875002,63.0,99.0
523,183.46562871875003,184.70794565625002,68.0,117.0
524,185.04596121875002,185.60566231250002,51.0,99.0
525,185.30934996875,185.71321271875001,55.0,78.0
526,184.78257246875003,185.9919658125,46.0,59.0
527,184.51918371875,186.013914875,39.0,81.0
528,185.83612746875002,186.12585509375003,51.0,90.0
529,186.09951621875,186.62190390625003,58.0,89.0
530,185.57273871875003,186.63726825000003,63.0,112.0
531,187.15307121875003,187.7654500625,56.0,95.0
532,186.88968246875,187.84007687500002,51.0,33.0
533,186.62629371875002,187.96299162500003,44.0,75.0
534,187.67984871875,188.70267503125,68.0,107.0
535,188.20662621875002,188.75535278125002,63.0,96.0
536,187.41645996875002,188.78608146875,60.0,64.0
537,189.26018121875003,189.85719571875003,51.0,93.0
538,188.99679246875002,190.25447375000002,46.0,35.0
539,188.73340371875003,190.28520243750003,39.0,90.0
540,190.05034746875003,190.37519359375003,51.0,95.0
541,190.31373621875002,190.80320031250002,58.0,102.0
542,189.52356996875002,190.84051371875003,55.0,72.0
543,189.78695871875001,190.90197109375003,63.0,122.0
544,191.36729121875,191.95333118750003,56.0,88.0
545,191.63067996875003,191.97308534375003,60.0,71.0
546,192.15745746875,192.34621940625001,56.0,90.0
547,191.10390246875002,192.36158375000002,51.0,35.0
548,190.84051371875003,192.45596471875,44.0,95.0
549,191.89406871875002,192.78300575000003,63.0,117.0
550,192.42084621875003,192.96518296875,60.0,93.0
551,193.47440121875002,194.12409346875003,53.0,85.0
552,194.26456746875002,194.49503262500002,53.0,77.0
553,193.73778996875,194.62453209375002,60.0,69.0
554,192.94762371875,194.77817553125,41.0,78.0
555,193.21101246875003,195.11619109375002,48.0,55.0
556,195.05473371875001,195.72198521875004,60.0,49.0
557,194.52795621875003,195.9305013125,65.0,95.0
558,194.00117871875003,195.93269621875,69.0,102.0
559,195.58151121875002,196.18511043750001,53.0,86.0
560,195.84489996875,196.29924556250003,60.0,59.0
561,195.05473371875001,196.46166862500002,41.0,75.0
562,195.31812246875003,196.48581259375,48.0,42.0
563,196.37167746875002,196.58458337500002,53.0,82.0
564,196.10828871875003,196.71188793750002,65.0,99.0
565,196.63506621875,197.14428446875002,60.0,90.0
566,196.10828871875003,197.15306409375003,69.0,102.0
567,197.68862121875003,198.26368665625003,58.0,95.0
568,197.95200996875002,198.5117110625,62.0,88.0
569,197.42523246875,198.58414296875003,53.0,65.0
570,198.47878746875003,198.63243090625002,58.0,122.0
571,197.16184371875002,198.71583734375002,46.0,81.0
572,198.21539871875,199.22286068750003,70.0,127.0
573,198.74217621875002,199.26675881250003,65.0,127.0
574,199.00556496875,199.28651296875003,62.0,127.0
575,199.79573121875003,200.29397493750002,56.0,82.0
576,199.53234246875002,200.64296503125001,51.0,65.0
577,200.58589746875003,200.66930390625004,56.0,82.0
578,199.26895371875003,200.70442240625002,44.0,88.0
579,200.05911996875003,200.86684546875003,60.0,93.0
580,200.32250871875002,201.24436934375,68.0,112.0
581,200.84928621875002,201.3475299375,63.0,99.0
582,201.11267496875,201.37167390625,60.0,83.0
583,201.90284121875,202.46912703125003,51.0,90.0
584,201.63945246875002,202.79616806250002,46.0,58.0
585,201.37606371875003,202.87079487500003,39.0,79.0
586,202.16622996875003,202.98054018750003,55.0,82.0
587,202.69300746875,202.98712490625002,51.0,90.0
588,202.95639621875003,203.44366540625003,58.0,93.0
589,202.42961871875002,203.46122465625,63.0,112.0
590,203.21978496875002,203.46341956250004,55.0,81.0
591,204.00995121875002,204.57623703125003,56.0,99.0
592,204.27333996875004,204.79792256250002,60.0,83.0
593,203.74656246875003,204.87693918750003,51.0,68.0
594,204.80011746875002,204.91864240625003,56.0,89.0
595,203.48317371875,204.97132015625002,44.0,77.0
596,204.53672871875003,205.58589390625002,68.0,112.0
597,205.06350621875004,205.6144276875,63.0,66.0
598,205.85367246875003,206.89844784375003,46.0,35.0
599,206.11706121875002,206.97307465625002,51.0,73.0
600,205.59028371875002,207.02575240625004,39.0,76.0
601,206.38044996875,207.58106368750003,55.0,62.0
602,207.17061621875,207.61618218750002,58.0,90.0
603,206.64383871875003,207.67544465625002,63.0,122.0
604,208.22417121875003,208.84313478125003,56.0,83.0
605,209.01433746875003,209.22285356250003,56.0,81.0
606,207.96078246875,209.25797206250002,51.0,66.0
607,207.69739371875002,209.36552246875002,44.0,85.0
608,208.48755996875002,209.37430209375003,60.0,72.0
609,209.27772621875002,209.77596993750004,63.0,90.0
610,208.75094871875,209.81108843750002,68.0,112.0
611,210.59466996875003,210.94585496875,60.0,82.0
612,210.33128121875004,210.96341421875002,53.0,83.0
613,211.12144746875003,211.34093809375003,53.0,89.0
614,209.80450371875003,211.70748743750002,41.0,66.0
615,210.06789246875002,211.9269780625,48.0,65.0
616,211.38483621875002,212.50423840625,60.0,76.0
617,210.85805871875002,212.80494056250004,65.0,95.0
618,212.43839121875,213.04638025000003,53.0,83.0
619,212.70177996875003,213.08149875000004,60.0,79.0
620,212.17500246875002,213.30537918750002,48.0,72.0
621,211.91161371875003,213.31635371875004,41.0,72.0
622,213.22855746875,213.40195506250004,53.0,99.0
623,212.96516871875002,213.55779340625003,65.0,95.0
624,212.96516871875002,213.62583550000002,69.0,90.0
625,213.75533496875002,214.05164731250002,65.0,88.0
626,213.75533496875002,214.05603712500002,69.0,95.0
627,213.49194621875003,214.07140146875003,60.0,100.0
628,214.54550121875002,215.18202403125002,58.0,100.0
629,214.80888996875004,215.39712484375002,62.0,95.0
630,214.28211246875003,215.43004843750003,53.0,68.0
631,215.33566746875002,215.45638731250003,58.0,112.0
632,214.01872371875,215.50467525000002,46.0,76.0
633,215.59905621875004,216.12583371875002,65.0,97.0
634,215.07227871875003,216.13022353125,70.0,127.0
635,215.86244496875003,216.13680825000003,62.0,99.0
636,216.12583371875002,218.112223875,39.0,89.0
637,216.38922246875003,218.23074881250002,46.0,69.0
638,217.70616621875,218.93970353125002,58.0,55.0
639,217.17938871875003,219.06481318750002,63.0,107.0
640,216.65261121875002,219.25796493750002,51.0,89.0
641,219.02310996875002,219.38307459375002,58.0,61.0
642,216.91599996875001,219.49281990625002,55.0,73.0
643,218.23294371875002,219.71231053125,39.0,67.0
644,218.75972121875003,219.72547996875002,46.0,39.0
645,219.54988746875003,219.80010678125004,51.0,48.0
646,219.28649871875,220.31371484375003,63.0,122.0
647,219.81327621875002,220.32468937500002,58.0,77.0
648,220.60344246875002,221.64821784375002,46.0,60.0
649,220.34005371875003,221.66358218750003,39.0,79.0
650,220.86683121875004,221.67675162500004,51.0,59.0
651,221.13021996875003,221.75137843750002,55.0,54.0
652,221.92038621875002,222.41862993750001,58.0,78.0
653,221.39360871875002,222.43838409375002,63.0,99.0
654,222.97394121875,223.65216725000002,53.0,81.0
655,222.44716371875003,224.21845306250003,41.0,66.0
656,223.76410746875,224.2535715625,53.0,63.0
657,222.71055246875002,224.31941875,48.0,41.0
658,224.02749621875003,224.48842653125,65.0,92.0
659,223.23732996875003,224.50379087500002,68.0,100.0
660,224.29088496875002,224.52354503125002,60.0,81.0
661,225.34443996875004,225.67367590625003,62.0,64.0
662,225.08105121875002,225.73513328125003,58.0,83.0
663,224.55427371875,226.54285878125003,46.0,90.0
664,224.81766246875003,226.71406146875003,53.0,53.0
665,225.87121746875002,226.99500946875003,58.0,44.0
666,226.13460621875004,227.28693200000004,62.0,77.0
667,225.60782871875003,227.53495640625002,65.0,102.0
668,227.18816121875003,227.63153228125003,58.0,73.0
669,226.92477246875004,227.89931084375002,53.0,54.0
670,226.66138371875002,227.96076821875002,46.0,77.0
671,227.45154996875002,227.98052237500002,62.0,73.0
672,227.71493871875003,228.73337521875,70.0,97.0
673,227.97832746875002,228.75971409375003,65.0,89.0
674,228.24171621875,228.79483259375002,62.0,83.0
675,229.29527121875003,229.885701,51.0,78.0
676,229.55865996875002,230.10299671875003,55.0,75.0
677,228.76849371875002,230.78561256250003,39.0,73.0
678,229.03188246875,230.95681525000003,46.0,58.0
679,230.08543746875003,231.48578765625004,51.0,72.0
680,229.82204871875004,231.73161715625002,63.0,117.0
681,230.34882621875002,231.79746434375002,58.0,88.0
682,230.61221496875004,232.06304800000004,55.0,72.0
683,232.19254746875004,232.70176571875004,51.0,89.0
684,230.87560371875003,232.82248556250002,39.0,76.0
685,231.40238121875004,232.94979012500002,46.0,52.0
686,231.92915871875002,233.03100165625003,63.0,112.0
687,232.71932496875002,233.05514562500002,55.0,69.0
688,232.45593621875003,233.05734053125002,58.0,93.0
689,232.98271371875003,234.98666312500004,39.0,85.0
690,233.50949121875001,235.14250146875003,46.0,52.0
691,234.03626871875002,235.34004303125002,51.0,55.0
692,234.03626871875002,235.8777950625,63.0,112.0
693,234.56304621875003,235.88657468750003,58.0,81.0
694,235.61660121875002,236.24434440625004,51.0,76.0
695,235.87998996875004,236.65698678125003,55.0,64.0
696,235.08982371875004,236.99061253125004,39.0,85.0
697,235.35321246875003,237.15523050000002,46.0,38.0
698,236.67015621875004,237.99587959375003,58.0,75.0
699,236.14337871875003,238.04636243750002,63.0,102.0
700,237.72371121875003,238.33170025000004,51.0,64.0
701,237.46032246875004,238.37559837500004,46.0,52.0
702,237.98709996875002,238.41071687500002,55.0,67.0
703,237.19693371875002,238.42388631250003,39.0,70.0
704,238.77726621875001,239.22941690625004,58.0,79.0
705,238.25048871875003,239.24478125000002,63.0,117.0
706,239.83082121875003,240.47831856250002,53.0,83.0
707,240.09420996875002,240.91729981250003,60.0,88.0
708,239.56743246875,240.96558775000003,48.0,53.0
709,239.30404371875002,240.97217246875002,41.0,66.0
710,240.62098746875003,241.04899418750003,53.0,86.0
711,240.35759871875004,241.36945050000003,68.0,112.0
712,240.88437621875002,241.38261993750004,65.0,90.0
713,241.93793121875004,242.57006421875002,58.0,97.0
714,241.41115371875003,243.20000231250003,46.0,82.0
715,241.67454246875002,243.555577125,53.0,68.0
716,242.20131996875003,243.84530475000003,62.0,74.0
717,242.46470871875002,244.13283746875004,70.0,112.0
718,242.99148621875003,244.35671790625003,65.0,90.0
719,244.04504121875001,244.45548868750004,58.0,77.0
720,243.78165246875002,244.60913212500003,53.0,53.0
721,243.51826371875003,244.71229271875004,46.0,69.0
722,244.30842996875003,245.62537371875004,62.0,67.0
723,245.09859621875003,245.62537371875004,65.0,77.0
724,244.57181871875002,245.62537371875004,70.0,127.0
725,246.15215121875002,246.68990325000001,51.0,70.0
726,246.41553996875004,247.06523221875003,55.0,68.0
727,245.62537371875004,247.57006065625004,39.0,81.0
728,245.88876246875003,247.74784806250003,46.0,35.0
729,247.20570621875004,248.36022690625003,58.0,92.0
730,246.67892871875003,248.58849715625,63.0,112.0
731,246.94231746875002,248.81676740625002,51.0,77.0
732,248.52264996875002,248.87383496875003,58.0,76.0
733,247.46909496875003,249.02967331250002,55.0,75.0
734,247.73248371875002,249.74521275000004,39.0,82.0
735,248.25926121875003,249.75179746875003,46.0,54.0
736,249.04942746875003,249.76935671875003,51.0,64.0
737,249.31281621875002,249.85056825000004,58.0,88.0
738,248.78603871875004,249.86373768750002,63.0,112.0
739,249.57620496875003,249.87471221875003,55.0,64.0
740,250.36637121875003,250.9348519375,51.0,61.0
741,250.62975996875002,251.28603693750003,55.0,70.0
742,249.83959371875002,251.82817878125002,39.0,88.0
743,251.15653746875003,251.91597503125,51.0,66.0
744,250.10298246875,251.92036484375004,46.0,34.0
745,251.41992621875002,252.21228737500002,58.0,52.0
746,251.68331496875004,252.21667718750004,55.0,50.0
747,250.89314871875004,252.40104931250002,63.0,100.0
748,251.94670371875003,253.91333971875002,39.0,67.0
749,252.21009246875002,254.05161881250004,46.0,59.0
750,252.47348121875004,254.11527109375004,51.0,73.0
751,253.52703621875003,254.76935315625002,58.0,40.0
752,253.00025871875002,254.88787809375003,63.0,100.0
753,252.73686996875003,255.10078400000003,55.0,60.0
754,254.05381371875004,256.06434784375006,39.0,72.0
755,254.58059121875002,256.19604221875005,46.0,63.0
756,255.63414621875003,256.24213525000005,55.0,63.0
757,255.10736871875002,256.27944865625005,58.0,85.0
758,255.10736871875002,256.3606601875,63.0,97.0
759,255.10736871875002,256.49235456250005,51.0,65.0
760,256.68770121875,257.29349534375,51.0,85.0
761,256.95108996875,257.35495271875004,55.0,73.0
762,256.16092371875004,257.58322296875,39.0,63.0
763,256.42431246875003,257.5941975,46.0,39.0
764,257.47786746875005,257.75442565625,51.0,83.0
765,257.74125621875004,258.21535596875003,58.0,75.0
766,257.21447871875,258.23291521875,63.0,122.0
767,258.00464496875003,258.23949993750006,55.0,56.0
768,259.32158871875004,259.95811153125004,63.0,93.0
769,258.26803371875,260.28734746875006,44.0,72.0
770,258.79481121875006,260.412457125,51.0,68.0
771,259.32158871875004,260.47171959375004,56.0,55.0
772,259.84836621875,260.47830431250003,60.0,66.0
773,259.32158871875004,260.48488903125,68.0,85.0
774,260.11175496875,260.52878715625,63.0,81.0
775,260.90192121875003,261.49015609375004,56.0,79.0
776,260.63853246875004,261.84573090625,51.0,60.0
777,260.37514371875005,261.86548506250006,44.0,60.0
778,261.69208746875,262.04985718750004,56.0,55.0
779,261.16530996875,262.0674164375,60.0,67.0
780,261.42869871875,262.43835559375003,68.0,112.0
781,261.95547621875005,262.449330125,63.0,92.0
782,262.21886496875004,262.484448625,60.0,75.0
783,263.00903121875,263.58409665625004,58.0,93.0
784,263.27241996875006,263.62360496875004,62.0,63.0
785,262.74564246875,263.64116421875,53.0,59.0
786,262.48225371875003,263.783833125,46.0,70.0
787,263.53580871875005,264.5344910625,65.0,96.0
788,264.06258621875,264.55863503125005,62.0,58.0
789,265.11614121875004,265.732909875,51.0,64.0
790,265.37952996875003,266.08848468750006,63.0,61.0
791,265.90630746875,266.63501634375,51.0,54.0
792,264.85275246875005,266.63721125,46.0,61.0
793,266.16969621875,266.65038068750005,67.0,64.0
794,266.43308496875005,266.70964315625,63.0,70.0
795,264.58936371875,266.71403296875,39.0,85.0
796,266.69647371875004,266.71403296875,39.0,88.0
797,265.64291871875,266.71403296875,70.0,107.0
798,267.22325121875,267.7917319375,51.0,61.0
799,267.48663996875,268.14291693750005,55.0,70.0
800,268.01341746875005,268.77285503125,51.0,66.0
801,266.95986246875003,268.77724484375005,46.0,34.0
802,268.27680621875004,269.069167375,58.0,52.0
803,268.54019496875003,269.07355718750006,55.0,50.0
804,267.75002871875,269.25792931250004,63.0,100.0
805,268.80358371875,270.77021971875,39.0,67.0
806,269.06697246875,270.90849881250006,46.0,59.0
807,269.33036121875006,270.97215109375,51.0,73.0
808,270.38391621875,271.62623315625,58.0,40.0
809,269.85713871875004,271.74475809375,63.0,100.0
810,269.59374996875005,271.957664,55.0,60.0
811,270.91069371875005,272.92122784375005,39.0,72.0
812,271.43747121875003,273.05292221875004,46.0,63.0
813,272.49102621875005,273.09901525000004,55.0,63.0
814,271.96424871875,273.13632865625004,58.0,85.0
815,271.96424871875,273.21754018750005,63.0,97.0
816,271.96424871875,273.34923456250004,51.0,65.0
817,273.54458121875,274.15037534375006,51.0,85.0
818,273.80796996875006,274.21183271875003,55.0,73.0
819,273.01780371875003,274.44010296875,39.0,63.0
820,273.28119246875,274.45107750000005,46.0,39.0
821,274.33474746875004,274.61130565625,51.0,83.0
822,274.59813621875,275.07223596875,58.0,75.0
823,274.07135871875005,275.08979521875006,63.0,122.0
824,274.86152496875,275.09637993750005,55.0,56.0
825,276.17846871875,276.81499153125003,63.0,93.0
826,275.12491371875,277.14422746875005,44.0,72.0
827,275.65169121875005,277.23202371875004,51.0,68.0
828,276.17846871875,277.23202371875004,56.0,55.0
829,276.70524621875,277.23202371875004,60.0,66.0
830,276.96863496875005,277.23202371875004,63.0,81.0
831,276.17846871875,277.23202371875004,68.0,85.0
