,start,end,pitch,velocity
0,25.502928425,25.714693025,70.0,93.0
1,25.855869424999998,26.0808693125,70.0,78.0
2,26.208810425,26.561751424999997,70.0,66.0
3,26.561751424999997,26.944104175,72.0,67.0
4,26.914692425,27.4808686125,74.0,67.0
5,27.267633425,27.632339124999998,72.0,80.0
6,27.620574424999997,27.99410365,70.0,88.0
7,27.973515425,28.32351525,72.0,67.0
8,28.326456425,30.041161449999997,67.0,95.0
9,31.149984425,31.3691019625,70.0,85.0
10,31.502925424999997,31.732337075,70.0,70.0
11,31.855866425,32.2161603625,70.0,66.0
12,32.208807424999996,32.549983725,72.0,61.0
13,32.561748425,33.0132187875,74.0,75.0
14,32.914689425,33.073512875,77.0,61.0
15,33.267630425,33.5691008625,74.0,75.0
16,33.620571425,33.99410065,70.0,95.0
17,33.973512424999996,34.6691003125,72.0,76.0
18,36.797040425,36.961746225,74.0,88.0
19,37.149981425,37.498510662499996,74.0,78.0
20,37.502922425,37.9058634,72.0,72.0
21,37.855863424999995,38.19409855,74.0,76.0
22,38.208804425,39.292627412499996,77.0,76.0
23,39.620568424999995,39.891156525,74.0,61.0
24,39.973509424999996,40.120568174999995,72.0,70.0
25,40.326450425,40.630862037499995,72.0,78.0
26,40.679391425,41.091155924999995,65.0,80.0
27,41.032332425,42.1764495,67.0,75.0
28,42.444096425,42.7955668375,72.0,75.0
29,42.444096425,42.7955668375,72.0,93.0
30,42.797037425,42.855860924999995,72.0,85.0
31,43.502919424999995,43.907330987499996,74.0,76.0
32,43.855860424999996,45.2661538375,72.0,85.0
33,45.267624425,45.6190948375,72.0,85.0
34,45.620565424999995,45.973506425,72.0,67.0
35,45.973506425,46.326447425,70.0,76.0
36,46.326447425,46.7514472125,67.0,67.0
37,46.679388425,49.502916424999995,70.0,73.0
38,49.502916424999995,49.854386837499995,65.0,59.0
39,49.855857424999996,50.60585705,65.0,82.0
40,50.561739425,50.9485039375,67.0,61.0
41,50.914680425,51.624974187499994,74.0,69.0
42,51.620562424999996,52.002915175,72.0,73.0
43,51.973503425,52.3396797125,70.0,54.0
44,52.326444425,52.679385425,72.0,93.0
45,52.679385425,53.0308558375,70.0,72.0
46,53.032326425,53.385267424999995,70.0,58.0
47,53.385267424999995,53.738208424999996,65.0,60.0
48,53.738208424999996,54.444090425,70.0,73.0
49,54.444090425,54.685266774999995,65.0,82.0
50,54.620560925,54.8426196375,67.0,60.0
51,54.797031425,55.0279136625,70.0,63.0
52,54.973501925,55.20585475,72.0,66.0
53,55.149972424999994,55.5014428375,74.0,73.0
54,55.149972424999994,55.5014428375,74.0,75.0
55,55.502913424999996,55.7999721,74.0,70.0
56,56.208795425,56.569089362499994,77.0,76.0
57,56.561736425,57.161736125,79.0,85.0
58,57.091147924999994,57.267618424999995,77.0,69.0
59,57.267618424999995,57.619088837499994,74.0,85.0
60,57.620559424999996,57.973500425,74.0,70.0
61,57.973500425,60.797028425,72.0,85.0
62,60.797028425,61.1484988375,74.0,73.0
63,61.149969424999995,61.502910424999996,74.0,85.0
64,61.502910424999996,61.855851425,72.0,91.0
65,61.855851425,62.208792425,74.0,93.0
66,62.208792425,63.620556425,77.0,70.0
67,63.620556425,63.973497425,74.0,85.0
68,63.973497425,64.679379425,72.0,58.0
69,64.679379425,65.14408507499999,65.0,76.0
70,65.032320425,66.797025425,67.0,69.0
71,66.797025425,67.1484958375,72.0,70.0
72,67.149966425,67.502907425,72.0,82.0
73,67.502907425,67.85584842499999,74.0,62.0
74,67.85584842499999,68.22496588749999,72.0,76.0
75,68.20878942499999,68.5646716,70.0,80.0
76,68.561730425,68.914671425,67.0,85.0
77,68.914671425,69.6190828375,70.0,91.0
78,69.620553425,72.09114042499999,70.0,82.0
79,72.09114042499999,72.4426108375,65.0,95.0
80,72.444081425,72.7955518375,65.0,95.0
81,72.797022425,73.1837869375,65.0,97.0
82,73.149963425,73.5131985375,67.0,93.0
83,73.502904425,74.0117277,70.0,97.0
84,73.855845425,74.0117277,70.0,95.0
85,74.914668425,75.267609425,67.0,99.0
86,75.267609425,75.62055042499999,65.0,80.0
87,75.62055042499999,75.9720208375,62.0,88.0
88,75.97349142499999,76.402902975,62.0,85.0
89,76.326432425,77.738196425,65.0,95.0
90,77.738196425,78.08966683749999,67.0,97.0
91,78.091137425,78.44260783749999,67.0,88.0
92,78.444078425,78.797019425,67.0,95.0
93,78.797019425,79.149960425,70.0,63.0
94,79.149960425,79.52348965,67.0,91.0
95,79.50290142499999,80.561724425,65.0,97.0
96,80.561724425,80.94407717499999,67.0,78.0
97,80.914665425,81.2661358375,65.0,91.0
98,81.267606425,81.620547425,65.0,88.0
99,81.620547425,81.9984884125,58.0,97.0
100,81.973488425,83.38525242499999,60.0,99.0
101,83.38525242499999,83.73819342499999,74.0,88.0
102,83.73819342499999,84.0896638375,72.0,80.0
103,84.09113442499999,84.444075425,72.0,82.0
104,84.444075425,84.797016425,74.0,88.0
105,84.797016425,85.502898425,77.0,69.0
106,85.502898425,86.208780425,79.0,99.0
107,86.208780425,86.561721425,74.0,97.0
108,86.561721425,86.9131918375,72.0,82.0
109,86.914662425,87.26760342499999,72.0,91.0
110,87.26760342499999,87.673485575,65.0,91.0
111,87.62054442499999,89.032308425,67.0,85.0
112,89.032308425,89.38377883749999,72.0,93.0
113,89.385249425,89.73671983749999,72.0,93.0
114,89.738190425,90.091131425,72.0,91.0
115,90.091131425,90.444072425,74.0,93.0
116,90.444072425,90.797013425,72.0,97.0
117,90.797013425,91.1984838125,70.0,91.0
118,91.14995442499999,91.532307175,72.0,80.0
119,91.50289542499999,91.85583642499999,74.0,88.0
120,91.85583642499999,94.67936442499999,77.0,85.0
121,94.67936442499999,95.0308348375,65.0,95.0
122,95.03230542499999,95.3837758375,65.0,95.0
123,95.38524642499999,95.7720109375,65.0,97.0
124,95.73818742499999,96.1014225375,67.0,93.0
125,96.091128425,96.59995169999999,70.0,97.0
126,96.444069425,96.59995169999999,70.0,95.0
127,97.502892425,97.855833425,67.0,99.0
128,97.855833425,98.208774425,65.0,80.0
129,98.208774425,98.5602448375,62.0,88.0
130,98.56171542499999,98.991126975,62.0,85.0
131,98.91465642499999,100.326420425,65.0,95.0
132,100.326420425,100.6778908375,67.0,97.0
133,100.679361425,101.03083183749999,67.0,88.0
134,101.032302425,101.385243425,67.0,95.0
135,101.385243425,101.738184425,70.0,63.0
136,101.738184425,102.11171365,67.0,91.0
137,102.091125425,103.14994842499999,65.0,97.0
138,103.14994842499999,103.532301175,67.0,78.0
139,103.50288942499999,103.8543598375,65.0,91.0
140,103.855830425,104.208771425,65.0,88.0
141,104.208771425,104.58671241249999,58.0,97.0
142,104.561712425,105.973476425,60.0,99.0
143,105.973476425,106.32641742499999,74.0,88.0
144,106.32641742499999,106.6778878375,72.0,80.0
145,106.67935842499999,107.03229942499999,72.0,82.0
146,107.03229942499999,107.38524042499999,74.0,88.0
147,107.38524042499999,108.091122425,77.0,69.0
148,108.091122425,108.797004425,79.0,99.0
149,108.797004425,109.149945425,74.0,97.0
150,109.149945425,109.50141583749999,72.0,82.0
151,109.502886425,109.855827425,72.0,91.0
152,109.855827425,110.261709575,65.0,91.0
153,110.20876842499999,111.620532425,67.0,85.0
154,111.620532425,111.9720028375,72.0,93.0
155,111.973473425,112.3249438375,72.0,93.0
156,112.326414425,112.679355425,72.0,91.0
157,112.679355425,113.032296425,74.0,93.0
158,113.032296425,113.385237425,72.0,97.0
159,113.385237425,114.44406042499999,70.0,85.0
160,114.44406042499999,114.79700142499999,72.0,97.0
161,114.79700142499999,115.14994242499999,70.0,85.0
162,115.14994242499999,115.5778833875,67.0,91.0
163,115.502883425,115.8720008875,70.0,85.0
164,115.855824425,116.2587654,72.0,91.0
165,116.208765425,118.67935242499999,70.0,82.0
166,141.267576425,141.61904683749998,70.0,93.0
167,141.620517425,141.9719878375,70.0,78.0
168,141.973458425,142.326399425,70.0,66.0
169,142.326399425,142.708752175,72.0,67.0
170,142.679340425,143.24551661249998,74.0,67.0
171,143.03228142499998,143.39698712499998,72.0,80.0
172,143.385222425,143.75875165,70.0,88.0
173,143.73816342499998,144.091104425,72.0,67.0
174,144.091104425,146.91463242499998,67.0,95.0
175,146.91463242499998,147.2661028375,70.0,85.0
176,147.267573425,147.6190438375,70.0,70.0
177,147.62051442499998,147.9808083625,70.0,66.0
178,147.973455425,148.32639642499998,72.0,61.0
179,148.32639642499998,148.7778667875,74.0,75.0
180,148.679337425,149.032278425,77.0,61.0
181,149.032278425,149.385219425,74.0,75.0
182,149.385219425,149.75874865,70.0,95.0
183,152.561688425,152.9131588375,74.0,88.0
184,152.914629425,153.267570425,74.0,78.0
185,149.738160425,153.67051139999998,72.0,76.0
186,153.267570425,153.67051139999998,72.0,72.0
187,153.620511425,153.973452425,74.0,76.0
188,153.973452425,155.38521642499998,77.0,76.0
189,155.38521642499998,155.738157425,74.0,61.0
190,155.738157425,156.0896278375,72.0,70.0
191,156.09109842499998,156.444039425,72.0,78.0
192,156.444039425,156.855803925,65.0,80.0
193,156.796980425,158.208744425,67.0,75.0
194,158.208744425,158.56021483749998,72.0,75.0
195,158.208744425,158.56021483749998,72.0,93.0
196,158.56168542499998,158.620508925,72.0,85.0
197,159.26756742499998,159.67197898749998,74.0,76.0
198,159.620508425,161.03080183749998,72.0,85.0
199,161.032272425,161.3837428375,72.0,85.0
200,161.385213425,161.738154425,72.0,67.0
201,161.738154425,162.091095425,70.0,76.0
202,162.091095425,162.5160952125,67.0,67.0
203,162.44403642499998,165.267564425,70.0,73.0
204,165.267564425,165.61903483749998,65.0,59.0
205,165.620505425,166.37050505,65.0,82.0
206,166.32638742499998,166.7131519375,67.0,61.0
207,166.679328425,167.38962218749998,74.0,69.0
208,167.385210425,167.767563175,72.0,73.0
209,167.73815142499998,168.10432771249998,70.0,54.0
210,168.091092425,168.444033425,72.0,93.0
211,168.444033425,168.79550383749998,70.0,72.0
212,168.796974425,169.149915425,70.0,58.0
213,169.149915425,169.502856425,65.0,60.0
214,169.502856425,170.20873842499998,70.0,73.0
215,170.20873842499998,170.449914775,65.0,82.0
216,170.385208925,170.6072676375,67.0,60.0
217,170.561679425,170.7925616625,70.0,63.0
218,170.738149925,170.97050274999998,72.0,66.0
219,170.91462042499998,171.2660908375,74.0,73.0
220,170.91462042499998,171.2660908375,74.0,75.0
221,171.267561425,171.56462009999998,74.0,70.0
222,171.973443425,172.3337373625,77.0,76.0
223,172.326384425,172.926384125,79.0,85.0
224,172.855795925,173.032266425,77.0,69.0
225,173.032266425,173.38373683749998,74.0,85.0
226,173.385207425,173.738148425,74.0,70.0
227,173.738148425,176.561676425,72.0,85.0
228,176.561676425,176.9131468375,74.0,73.0
229,176.914617425,177.267558425,74.0,85.0
230,177.267558425,177.620499425,72.0,91.0
231,177.620499425,177.97344042499998,74.0,93.0
232,177.97344042499998,179.38520442499998,77.0,70.0
233,179.38520442499998,179.738145425,74.0,85.0
234,179.738145425,180.444027425,72.0,58.0
235,180.444027425,180.908733075,65.0,76.0
236,180.796968425,182.56167342499998,67.0,69.0
237,182.56167342499998,182.9131438375,72.0,70.0
238,182.914614425,183.26755542499998,72.0,82.0
239,183.26755542499998,183.620496425,74.0,62.0
240,183.620496425,183.98961388749998,72.0,76.0
241,183.973437425,184.3293196,70.0,80.0
242,184.326378425,184.679319425,67.0,85.0
243,184.679319425,185.3837308375,70.0,91.0
244,185.385201425,187.855788425,70.0,82.0
245,187.855788425,188.20725883749998,65.0,95.0
246,188.208729425,188.5601998375,65.0,95.0
247,188.561670425,188.9484349375,65.0,97.0
248,188.914611425,189.27784653749998,67.0,93.0
249,189.267552425,189.7763757,70.0,97.0
250,189.62049342499998,189.7763757,70.0,95.0
251,190.679316425,191.03225742499998,67.0,99.0
252,191.03225742499998,191.385198425,65.0,80.0
253,191.385198425,191.7366688375,62.0,88.0
254,191.73813942499999,192.16755097499998,62.0,85.0
255,192.091080425,193.50284442499998,65.0,95.0
256,193.50284442499998,193.8543148375,67.0,97.0
257,193.855785425,194.20725583749999,67.0,88.0
258,194.20872642499998,194.561667425,67.0,95.0
259,194.561667425,194.91460842499998,70.0,63.0
260,194.91460842499998,195.28813764999998,67.0,91.0
261,195.267549425,196.326372425,65.0,97.0
262,196.326372425,196.70872517499998,67.0,78.0
263,196.679313425,197.0307838375,65.0,91.0
264,197.032254425,197.38519542499998,65.0,88.0
265,197.38519542499998,197.7631364125,58.0,97.0
266,197.738136425,199.149900425,60.0,99.0
267,199.149900425,199.50284142499999,74.0,88.0
268,199.50284142499999,199.85431183749998,72.0,80.0
269,199.855782425,200.208723425,72.0,82.0
270,200.208723425,200.561664425,74.0,88.0
271,200.561664425,201.26754642499998,77.0,69.0
272,201.26754642499998,201.97342842499998,79.0,99.0
273,201.97342842499998,202.326369425,74.0,97.0
274,202.326369425,202.6778398375,72.0,82.0
275,202.67931042499998,203.032251425,72.0,91.0
276,203.032251425,203.438133575,65.0,91.0
277,203.38519242499999,204.796956425,67.0,85.0
278,204.796956425,205.14842683749998,72.0,93.0
279,205.14989742499998,205.5013678375,72.0,93.0
280,205.502838425,205.85577942499998,72.0,91.0
281,205.85577942499998,206.208720425,74.0,93.0
282,206.208720425,206.56166142499998,72.0,97.0
283,206.56166142499998,206.9631318125,70.0,91.0
284,206.914602425,207.296955175,72.0,80.0
285,207.26754342499999,207.620484425,74.0,88.0
286,207.620484425,210.44401242499998,77.0,85.0
287,210.44401242499998,210.7954828375,65.0,95.0
288,210.796953425,211.1484238375,65.0,95.0
289,211.14989442499999,211.5366589375,65.0,97.0
290,211.502835425,211.86607053749998,67.0,93.0
291,211.855776425,212.36459969999999,70.0,97.0
292,212.208717425,212.36459969999999,70.0,95.0
293,213.267540425,213.62048142499998,67.0,99.0
294,213.62048142499998,213.973422425,65.0,80.0
295,213.973422425,214.3248928375,62.0,88.0
296,214.32636342499998,214.75577497499998,62.0,85.0
297,214.679304425,216.091068425,65.0,95.0
298,216.091068425,216.4425388375,67.0,97.0
299,216.444009425,216.79547983749998,67.0,88.0
300,216.79695042499998,217.149891425,67.0,95.0
301,217.149891425,217.50283242499998,70.0,63.0
302,217.50283242499998,217.87636164999998,67.0,91.0
303,217.855773425,218.91459642499998,65.0,97.0
304,218.91459642499998,219.29694917499998,67.0,78.0
305,219.267537425,219.6190078375,65.0,91.0
306,219.620478425,219.973419425,65.0,88.0
307,219.973419425,220.3513604125,58.0,97.0
308,220.326360425,221.738124425,60.0,99.0
309,221.738124425,222.09106542499998,74.0,88.0
310,222.09106542499998,222.4425358375,72.0,80.0
311,222.444006425,222.79694742499998,72.0,82.0
312,222.79694742499998,223.149888425,74.0,88.0
313,223.149888425,223.855770425,77.0,69.0
314,223.855770425,224.56165242499998,79.0,99.0
315,224.56165242499998,224.914593425,74.0,97.0
316,224.914593425,225.26606383749998,72.0,82.0
317,225.26753442499998,225.620475425,72.0,91.0
318,225.620475425,226.026357575,65.0,91.0
319,225.97341642499998,227.385180425,67.0,85.0
320,227.385180425,227.73665083749998,72.0,93.0
321,227.738121425,228.0895918375,72.0,93.0
322,228.091062425,228.44400342499998,72.0,91.0
323,228.44400342499998,228.796944425,74.0,93.0
324,228.796944425,229.14988542499998,72.0,97.0
325,229.14988542499998,230.208708425,70.0,85.0
326,230.208708425,230.56164942499998,72.0,97.0
327,230.56164942499998,230.914590425,70.0,85.0
328,230.914590425,231.3425313875,67.0,91.0
329,231.267531425,231.6366488875,70.0,85.0
330,231.620472425,232.02341339999998,72.0,91.0
331,231.973413425,234.44400042499998,70.0,82.0
332,234.44400042499998,234.79547083749998,65.0,95.0
333,234.796941425,235.1484118375,65.0,95.0
334,235.149882425,235.5366469375,65.0,97.0
335,235.502823425,235.86605853749998,67.0,93.0
336,235.855764425,236.3645877,70.0,97.0
337,236.20870542499998,236.3645877,70.0,95.0
338,237.267528425,237.62046942499998,67.0,99.0
339,237.62046942499998,237.973410425,65.0,80.0
340,237.973410425,238.3248808375,62.0,88.0
341,238.32635142499998,238.75576297499998,62.0,85.0
342,238.679292425,240.09105642499998,65.0,95.0
343,240.09105642499998,240.4425268375,67.0,97.0
344,240.443997425,240.79546783749998,67.0,88.0
345,240.79693842499998,241.149879425,67.0,95.0
346,241.149879425,241.50282042499998,70.0,63.0
347,241.50282042499998,241.87634964999998,67.0,91.0
348,241.855761425,242.914584425,65.0,97.0
349,242.914584425,243.29693717499998,67.0,78.0
350,243.267525425,243.6189958375,65.0,91.0
351,243.620466425,243.97340742499998,65.0,88.0
352,243.97340742499998,244.3513484125,58.0,97.0
353,244.326348425,245.738112425,60.0,99.0
354,245.738112425,246.09105342499998,74.0,88.0
355,246.09105342499998,246.44252383749998,72.0,80.0
356,246.443994425,246.796935425,72.0,82.0
357,246.796935425,247.149876425,74.0,88.0
358,247.149876425,247.85575842499998,77.0,69.0
359,247.85575842499998,248.56164042499998,79.0,99.0
360,248.56164042499998,248.914581425,74.0,97.0
361,248.914581425,249.2660518375,72.0,82.0
362,249.26752242499998,249.620463425,72.0,91.0
363,249.620463425,250.026345575,65.0,91.0
364,249.97340442499998,251.385168425,67.0,85.0
365,251.385168425,251.73663883749998,72.0,93.0
366,251.73810942499998,252.0895798375,72.0,93.0
367,252.091050425,252.44399142499998,72.0,91.0
368,252.44399142499998,252.796932425,74.0,93.0
369,252.796932425,253.14987342499998,72.0,97.0
370,253.14987342499998,254.208696425,70.0,85.0
371,254.208696425,254.561637425,72.0,97.0
372,254.561637425,254.914578425,70.0,85.0
373,254.914578425,255.34251938749998,67.0,91.0
374,255.267519425,255.63663688749998,70.0,85.0
375,255.62046042499998,256.0234014,72.0,91.0
376,255.973401425,258.443988425,70.0,82.0
377,258.443988425,258.7954588375,72.0,97.0
378,258.796929425,259.1483998375,72.0,91.0
379,259.14987042499996,259.5278114125,72.0,85.0
380,259.502811425,259.95869354999996,74.0,80.0
381,259.855752425,260.2822228,72.0,82.0
382,260.208693425,261.443986925,70.0,82.0
383,261.443986925,261.97339842499997,72.0,93.0
384,261.97339842499997,262.502809925,70.0,73.0
385,262.502809925,262.9645744,65.0,72.0
386,262.855750925,263.291044825,70.0,80.0
387,263.208691925,264.267514925,72.0,78.0
388,264.267514925,268.32633642499997,70.0,82.0
