,start,end,pitch,velocity
0,2.914704425,3.6235275999999996,65.0,73.0
1,2.914704425,3.6705864,62.0,70.0
2,2.914704425,3.7661745874999997,70.0,70.0
3,3.973527425,4.4338213125,60.0,61.0
4,4.326468425,4.73529175,62.0,66.0
5,4.679409424999999,4.8235269999999995,65.0,63.0
6,2.914704425,5.232350325,46.0,70.0
7,3.620586425,5.2338209125,58.0,70.0
8,3.267645425,5.326467924999999,53.0,64.0
9,5.032350425,5.3647032,70.0,78.0
10,6.091173425,6.458820299999999,50.0,48.0
11,5.738232425,6.467643825,43.0,70.0
12,6.4441144249999995,6.8544083375,53.0,60.0
13,5.738232425,6.9926435625,74.0,80.0
14,7.502937425,7.9411724999999995,62.0,69.0
15,7.149996424999999,8.069113612499999,58.0,64.0
16,6.797055425,8.189701787499999,55.0,64.0
17,8.561760425,9.3161718125,65.0,64.0
18,8.561760425,9.3455835625,60.0,64.0
19,8.561760425,9.349995325,62.0,69.0
20,8.914701424999999,10.086759662499999,53.0,54.0
21,9.267642425,10.3397007125,58.0,63.0
22,9.620583425,10.3573477625,60.0,61.0
23,9.973524424999999,10.379406574999999,62.0,72.0
24,10.326465425,10.873523975,53.0,52.0
25,10.679406425,10.976465099999999,65.0,75.0
26,10.679406425,11.0514650625,60.0,69.0
27,8.561760425,11.097053274999999,46.0,73.0
28,11.032347425,11.379406075,53.0,60.0
29,11.385288424999999,11.6941118,58.0,70.0
30,11.385288424999999,12.0632292625,67.0,72.0
31,11.385288424999999,12.074993962499999,63.0,72.0
32,12.091170425,12.33528795,60.0,61.0
33,11.738229425,12.394111449999999,55.0,59.0
34,11.385288424999999,12.4044055625,48.0,69.0
35,12.444111425,12.8308759375,70.0,75.0
36,12.797052424999999,13.2588169,60.0,67.0
37,12.797052424999999,13.4396991625,65.0,66.0
38,12.797052424999999,13.4705815,69.0,69.0
39,13.149993425,13.779404874999999,48.0,52.0
40,12.797052424999999,13.7808754625,41.0,72.0
41,13.502934425,13.826463675,62.0,93.0
42,13.502934425,13.852934249999999,70.0,78.0
43,13.502934425,13.873522475,53.0,62.0
44,14.208816425,14.623522099999999,67.0,72.0
45,14.208816425,14.6720514875,63.0,75.0
46,14.208816425,14.673522075,58.0,78.0
47,14.914698425,15.2044041625,58.0,73.0
48,15.267639424999999,15.552933399999999,63.0,69.0
49,14.561757425,15.65293335,55.0,59.0
50,15.620580425,16.067639025,58.0,59.0
51,15.620580425,16.1191095875,67.0,72.0
52,15.973521425,16.414697675,55.0,58.0
53,16.326462425,16.5514623125,58.0,78.0
54,16.326462425,16.666168137499998,65.0,88.0
55,14.208816425,16.84116805,51.0,70.0
56,16.679403425,16.91175625,55.0,62.0
57,17.032344424999998,17.555873575,60.0,70.0
58,17.032344424999998,17.72352055,67.0,67.0
59,17.032344424999998,17.779402875,63.0,72.0
60,17.738226425,18.185285025,60.0,85.0
61,18.091167425,18.399990799999998,63.0,78.0
62,17.385285425,18.4073437375,55.0,54.0
63,17.032344424999998,18.444108425,48.0,62.0
64,18.444108425,18.8720493875,65.0,75.0
65,18.444108425,18.8838140875,60.0,73.0
66,18.444108425,18.89999055,69.0,73.0
67,18.797049425,19.297049174999998,57.0,61.0
68,18.444108425,19.34704915,50.0,73.0
69,19.149990425,19.4573432125,60.0,67.0
70,19.502931425,19.7602842375,65.0,61.0
71,19.855872424999998,20.2941075,69.0,69.0
72,19.855872424999998,20.313225137499998,60.0,66.0
73,19.855872424999998,20.3176369,65.0,67.0
74,20.208813425,20.7514602125,57.0,70.0
75,19.855872424999998,20.8308719375,53.0,60.0
76,20.561754425,20.87646015,60.0,80.0
77,20.914695424999998,21.2367540875,67.0,64.0
78,21.267636425,21.49998925,65.0,73.0
79,21.267636425,21.8632243625,69.0,72.0
80,21.973518424999998,22.1014595375,65.0,69.0
81,21.267636425,22.226459475,41.0,78.0
82,21.620577425,22.2470477,48.0,59.0
83,21.973518424999998,22.33528295,53.0,55.0
84,22.326459425,22.673518075,67.0,73.0
85,22.679400424999997,23.0749884625,65.0,64.0
86,22.679400424999997,23.1896942875,70.0,73.0
87,23.032341425,23.39410595,53.0,67.0
88,23.385282425,23.713223437499998,67.0,70.0
89,23.385282425,23.8220469125,63.0,75.0
90,23.385282425,24.5514583125,58.0,53.0
91,24.091164425,24.5691053625,62.0,66.0
92,24.091164425,24.597046525,65.0,67.0
93,23.738223424999997,24.597046525,70.0,69.0
94,24.091164425,24.885281674999998,53.0,49.0
95,24.797046424999998,24.8926346125,58.0,59.0
96,22.679400424999997,24.907340487499997,46.0,70.0
97,25.502928425,26.149986925,62.0,67.0
98,25.502928425,26.164692799999997,65.0,69.0
99,26.208810425,26.866163037499998,58.0,60.0
100,26.561751424999997,27.016162962499997,60.0,61.0
101,25.502928425,27.3220451625,46.0,73.0
102,27.267633425,27.34704515,58.0,31.0
103,26.914692425,27.501456837499997,62.0,61.0
104,27.620574424999997,27.955868374999998,65.0,69.0
105,25.855869424999998,28.029397749999998,53.0,46.0
106,27.620574424999997,28.057338912499997,60.0,60.0
107,28.326456425,28.9191031875,58.0,69.0
108,28.326456425,28.960279637499998,43.0,67.0
109,28.679397424999998,28.9926325625,50.0,48.0
110,29.032338425,29.417632349999998,53.0,56.0
111,28.326456425,29.4191029375,67.0,63.0
112,30.091161425,30.3720436375,62.0,72.0
113,29.738220424999998,30.422043612499998,58.0,64.0
114,29.385279425,30.549984724999998,55.0,63.0
115,30.444102424999997,30.794102249999998,65.0,69.0
116,31.149984425,31.7455723625,65.0,69.0
117,30.797043425,31.777925287499997,72.0,70.0
118,31.149984425,31.789689987499997,62.0,64.0
119,31.855866425,32.4955719875,58.0,53.0
120,31.502925424999997,32.5426307875,53.0,51.0
121,31.149984425,32.561748425,46.0,67.0
122,32.208807424999996,32.61763075,60.0,69.0
123,32.208807424999996,32.62939545,65.0,62.0
124,32.561748425,32.62939545,65.0,70.0
125,32.561748425,32.9367482375,69.0,70.0
126,32.561748425,32.955865875,62.0,64.0
127,32.914689425,33.4985126625,57.0,59.0
128,32.561748425,33.5058656,50.0,76.0
129,33.267630425,33.5661596875,62.0,70.0
130,33.620571425,33.7058655,65.0,44.0
131,33.797041924999995,33.894100699999996,67.0,46.0
132,33.973512424999996,34.644100325,41.0,64.0
133,34.326453425,34.67645325,48.0,48.0
134,34.679394425,35.0705707,53.0,53.0
135,33.973512424999996,35.1926294625,65.0,75.0
136,33.973512424999996,35.194100049999996,60.0,64.0
137,35.738217424999995,36.04115845,60.0,63.0
138,35.385276425,36.102923125,57.0,69.0
139,35.032335425,36.1058643,55.0,67.0
140,36.091158424999996,36.4470406,65.0,70.0
141,36.444099425,36.602922875,70.0,59.0
142,36.797040425,37.402922475,65.0,72.0
143,36.797040425,37.464687149999996,69.0,67.0
144,37.502922425,37.7529223,60.0,70.0
145,37.149981425,37.7690987625,57.0,52.0
146,36.797040425,37.7955693375,50.0,75.0
147,37.855863424999995,38.132333875,69.0,44.0
148,38.208804425,38.914686425,65.0,70.0
149,38.208804425,38.949980525,60.0,62.0
150,38.561745425,39.177921587499995,48.0,55.0
151,38.208804425,39.1926274625,41.0,73.0
152,38.914686425,39.279392125,53.0,64.0
153,39.267627425,39.491156724999996,60.0,58.0
154,39.620568424999995,40.0426270375,60.0,67.0
155,39.620568424999995,40.07645055,65.0,72.0
156,39.973509424999996,40.5308620875,57.0,57.0
157,39.620568424999995,40.55880325,50.0,76.0
158,40.326450425,40.608803224999996,60.0,82.0
159,40.679391425,41.0352736,65.0,69.0
160,41.032332425,41.551449812499996,62.0,70.0
161,41.032332425,41.613214487499995,70.0,78.0
162,41.738214424999995,41.879390825,69.0,63.0
163,41.738214424999995,41.89997905,62.0,70.0
164,41.385273425,41.926449625,50.0,40.0
165,41.032332425,41.961743725,43.0,73.0
166,41.738214424999995,41.961743725,55.0,57.0
167,42.444096425,43.02939025,63.0,76.0
168,42.444096425,43.0705667,67.0,72.0
169,43.502919424999995,43.8190957375,60.0,73.0
170,43.149978425,43.883801587499995,55.0,61.0
171,43.855860424999996,43.8985074625,60.0,35.0
172,43.855860424999996,44.274977862499995,63.0,75.0
173,44.208801425,44.7249776375,55.0,51.0
174,42.444096425,44.820565824999996,48.0,57.0
175,42.797037425,44.84115405,51.0,60.0
176,44.561742425,44.872036387499996,60.0,73.0
177,44.914683425,45.1543891875,67.0,56.0
178,45.267624425,45.569094862499995,67.0,60.0
179,45.267624425,45.5764478,63.0,64.0
180,45.620565424999995,45.9411535,65.0,62.0
181,45.620565424999995,46.0102711125,62.0,49.0
182,45.973506425,46.063212262499995,63.0,61.0
183,45.973506425,46.086741662499996,67.0,69.0
184,45.973506425,46.1529181,60.0,61.0
185,45.267624425,46.1646828,48.0,66.0
186,45.620565424999995,46.188212199999995,55.0,46.0
187,46.326447425,46.6720354875,70.0,60.0
188,46.679388425,47.19409405,74.0,64.0
189,46.679388425,47.2308587375,65.0,58.0
190,47.032329425,48.0514465625,53.0,45.0
191,47.738211424999996,48.0543877375,60.0,62.0
192,48.091152425,48.452916949999995,65.0,59.0
193,48.444093425,48.554387487499994,67.0,75.0
194,47.385270424999995,48.8352697,58.0,61.0
195,46.679388425,48.895563787499995,46.0,63.0
196,48.797034425,49.032328424999996,53.0,75.0
197,48.797034425,49.0705637,70.0,73.0
198,49.149975425,49.391151775,72.0,78.0
199,49.326445924999994,49.4720340875,70.0,49.0
200,49.326445924999994,49.51173995,65.0,51.0
201,49.502916424999995,49.877916237499996,74.0,85.0
202,49.502916424999995,49.999975,46.0,63.0
203,49.855857424999996,50.1426219875,65.0,49.0
204,49.855857424999996,50.1661513875,53.0,58.0
205,50.208798425,50.532327675,72.0,60.0
206,50.208798425,50.616151162499996,58.0,56.0
207,50.561739425,50.914680425,60.0,63.0
208,50.561739425,50.95879805,74.0,72.0
209,50.914680425,51.314680225,65.0,58.0
210,50.914680425,51.314680225,69.0,64.0
211,51.267621424999994,51.574974212499995,67.0,66.0
212,51.620562424999996,51.8337976125,62.0,50.0
213,50.914680425,51.880856412499995,50.0,66.0
214,51.267621424999994,51.88820935,57.0,54.0
215,51.620562424999996,51.9764446,69.0,59.0
216,51.973503425,52.3485032375,72.0,66.0
217,52.326444425,52.7411501,60.0,57.0
218,52.326444425,52.926444124999996,63.0,60.0
219,52.326444425,52.9926205625,67.0,52.0
220,53.032326425,53.291149825,60.0,46.0
221,52.679385425,53.39409095,55.0,46.0
222,52.326444425,53.3999733,48.0,66.0
223,53.032326425,53.4102674125,65.0,55.0
224,53.738208424999996,54.180855262499996,62.0,61.0
225,53.736737837499994,54.326443425,65.0,70.0
226,54.444090425,54.577913887499996,60.0,56.0
227,54.444090425,54.7602667375,58.0,49.0
228,53.738208424999996,54.791149075,46.0,70.0
229,54.091149425,54.794090249999996,53.0,57.0
230,54.444090425,54.80585495,63.0,66.0
231,54.797031425,54.917619599999995,62.0,52.0
232,54.797031425,55.020560724999996,65.0,67.0
233,55.149972424999994,55.513207537499994,69.0,67.0
234,55.502913424999996,55.7308544875,72.0,69.0
235,55.149972424999994,56.064677849999995,50.0,73.0
236,55.502913424999996,56.1014425375,57.0,55.0
237,55.855854425,56.1411484,62.0,61.0
238,55.855854425,56.191148375,74.0,73.0
239,56.208795425,56.46467765,77.0,72.0
240,56.561736425,56.932324474999994,70.0,76.0
241,56.561736425,56.966147987499994,74.0,75.0
242,56.914677425,57.1337949625,69.0,42.0
243,56.914677425,57.164677299999994,72.0,73.0
244,57.267618424999995,57.47644185,67.0,61.0
245,56.914677425,57.555853575,62.0,54.0
246,56.561736425,57.567618274999994,55.0,72.0
247,57.267618424999995,57.614677074999996,70.0,63.0
248,57.267618424999995,57.61761825,74.0,70.0
249,57.620559424999996,57.880853412499995,77.0,61.0
250,57.973500425,58.2514414625,72.0,67.0
251,57.973500425,58.608794225,48.0,54.0
252,58.326441425,58.613205987499995,70.0,61.0
253,58.326441425,58.6573236125,55.0,61.0
254,58.679382425,59.0926175125,67.0,73.0
255,58.679382425,59.097029275,60.0,52.0
256,59.032323424999994,59.3926173625,70.0,73.0
257,59.032323424999994,59.639676062499994,62.0,54.0
258,59.385264424999995,59.7837936375,69.0,73.0
259,59.738205425,60.0632052625,67.0,67.0
260,59.385264424999995,60.116146412499994,41.0,78.0
261,59.738205425,60.116146412499994,48.0,59.0
262,60.091146425,60.5102638625,65.0,67.0
263,60.091146425,60.582322649999995,53.0,63.0
264,60.444087425,60.797028425,55.0,62.0
265,60.444087425,60.80585195,70.0,63.0
266,60.797028425,61.064675349999995,65.0,72.0
267,60.797028425,61.105851799999996,69.0,70.0
268,61.149969424999995,61.4543810375,67.0,73.0
269,61.502910424999996,61.723498549999995,62.0,78.0
270,61.149969424999995,61.84114555,57.0,55.0
271,61.502910424999996,61.844086725,69.0,76.0
272,60.797028425,61.864674949999994,50.0,72.0
273,61.502910424999996,61.9176161,65.0,70.0
274,61.855851425,62.097027774999994,72.0,73.0
275,62.208792425,62.25291005,62.0,43.0
276,62.208792425,62.624968687499994,69.0,72.0
277,62.208792425,62.65290985,60.0,47.0
278,62.208792425,62.65290985,65.0,59.0
279,62.561733425,63.191144875,48.0,70.0
280,63.091144924999995,63.21761545,60.0,95.0
281,62.385262925,63.222027212499995,41.0,69.0
282,62.914674424999994,63.222027212499995,53.0,75.0
283,63.267615424999995,63.3999683,65.0,70.0
284,63.444085924999996,63.561732924999994,67.0,78.0
285,63.620556425,63.914673924999995,60.0,95.0
286,63.620556425,63.942615087499995,65.0,91.0
287,63.620556425,64.1190855875,72.0,75.0
288,64.32643842499999,64.4749677625,62.0,73.0
289,63.973497425,64.514673625,57.0,50.0
290,63.620556425,64.5573206625,50.0,69.0
291,64.502908925,64.6102618125,70.0,85.0
292,64.679379425,64.82643817499999,72.0,76.0
293,64.855849925,65.0867321625,77.0,67.0
294,65.032320425,65.3632026125,70.0,69.0
295,65.032320425,65.3882026,74.0,82.0
296,65.385261425,65.54114369999999,72.0,69.0
297,65.385261425,65.579378975,69.0,70.0
298,65.738202425,65.91467292499999,67.0,63.0
299,65.738202425,65.9161435125,70.0,66.0
300,65.032320425,66.00143758749999,43.0,58.0
301,65.385261425,66.0073199375,50.0,66.0
302,65.738202425,66.0632022625,55.0,58.0
303,66.091143425,66.2367315875,69.0,73.0
304,66.444084425,66.7661430875,60.0,44.0
305,66.444084425,66.90290772499999,67.0,82.0
306,66.444084425,66.985260625,63.0,69.0
307,67.149966425,67.3337898625,60.0,62.0
308,66.797025425,67.4249662875,55.0,59.0
309,66.444084425,67.45437803749999,48.0,64.0
310,67.502907425,67.7543778875,63.0,82.0
311,67.85584842499999,68.10143653749999,60.0,70.0
312,67.85584842499999,68.20584825,67.0,73.0
313,68.20878942499999,68.31173055,60.0,48.0
314,68.20878942499999,68.3661422875,65.0,66.0
315,68.20878942499999,68.6867303625,48.0,48.0
316,68.561730425,68.732318575,58.0,55.0
317,68.561730425,68.779377375,63.0,63.0
318,67.85584842499999,68.9249655375,36.0,67.0
319,68.914671425,69.03820077499999,48.0,78.0
320,69.267612425,69.5279064125,58.0,75.0
321,69.267612425,69.57496521249999,62.0,67.0
322,69.620553425,70.0573179125,53.0,61.0
323,69.973494425,70.38820009999999,58.0,62.0
324,70.679376425,70.814670475,62.0,73.0
325,70.679376425,70.8279057625,70.0,80.0
326,70.679376425,71.11467032499999,53.0,66.0
327,71.032317425,71.1749644125,63.0,75.0
328,71.032317425,71.1808467625,72.0,76.0
329,71.032317425,71.48378778749999,58.0,69.0
330,71.385258425,71.520552475,63.0,63.0
331,69.267612425,71.52790541249999,46.0,51.0
332,71.385258425,71.5764348,72.0,73.0
333,71.385258425,71.8631993625,53.0,67.0
334,71.73819942499999,71.86466994999999,74.0,75.0
335,71.73819942499999,71.87643465,65.0,62.0
336,72.620551925,73.0455517125,58.0,75.0
337,72.797022425,73.0484928875,60.0,60.0
338,72.973492925,73.17937517499999,65.0,59.0
339,72.09114042499999,73.308786875,46.0,67.0
340,72.444081425,73.4102574125,53.0,62.0
341,73.326433925,73.7279043125,62.0,70.0
342,73.149963425,73.8117278,70.0,69.0
343,73.67937492499999,74.2484922875,53.0,70.0
344,74.03231592499999,74.291139325,60.0,72.0
345,73.855845425,74.355845175,58.0,73.0
346,74.208786425,74.432315725,65.0,62.0
347,73.502904425,74.53231567499999,46.0,75.0
348,74.385256925,74.58231565,53.0,70.0
349,74.385256925,74.60437446249999,70.0,49.0
350,74.561727425,74.77055084999999,65.0,58.0
351,74.738197925,74.96908016249999,67.0,67.0
352,74.914668425,75.22349179999999,70.0,80.0
353,75.62055042499999,75.82643267499999,57.0,80.0
354,75.444079925,75.88231499999999,55.0,69.0
355,75.797020925,75.9426090875,58.0,66.0
356,75.267609425,75.991138475,50.0,62.0
357,74.914668425,76.0043737625,43.0,70.0
358,75.97349142499999,76.126432525,60.0,70.0
359,76.149961925,76.2705501,62.0,70.0
360,76.326432425,76.5764323,65.0,64.0
361,76.326432425,76.60584405,60.0,88.0
362,76.326432425,76.62054992499999,57.0,82.0
363,76.679373425,76.93819682499999,58.0,70.0
364,76.679373425,76.9837850375,62.0,75.0
365,76.326432425,77.08084381249999,41.0,70.0
366,76.679373425,77.0867261625,48.0,63.0
367,77.032314425,77.09702027499999,58.0,70.0
368,77.032314425,77.1220202625,65.0,69.0
369,77.032314425,77.455843625,53.0,69.0
370,77.385255425,77.473490675,65.0,76.0
371,77.385255425,77.48819655,55.0,73.0
372,77.738196425,78.2014314875,58.0,72.0
373,77.738196425,78.297019675,62.0,69.0
374,77.738196425,78.3176079,67.0,72.0
375,78.444078425,78.87201938749999,55.0,67.0
376,78.797019425,79.03378401249999,58.0,62.0
377,79.149960425,79.24113684999999,58.0,49.0
378,79.149960425,79.32790151249999,55.0,54.0
379,79.149960425,79.35878385,62.0,73.0
380,79.149960425,79.4014308875,67.0,75.0
381,79.50290142499999,79.64554841249999,67.0,58.0
382,77.738196425,80.04260703749999,43.0,72.0
383,78.091137425,80.08672466249999,50.0,64.0
384,79.85584242499999,80.1764305,70.0,91.0
385,79.85584242499999,80.208783425,55.0,75.0
386,80.208783425,80.579371475,74.0,70.0
387,80.561724425,80.8455478125,58.0,72.0
388,80.561724425,80.885253675,67.0,76.0
389,80.914665425,80.96319481249999,58.0,41.0
390,80.914665425,81.29995935,65.0,73.0
391,81.267606425,81.36466519999999,67.0,78.0
392,80.561724425,81.373488725,43.0,70.0
393,80.914665425,81.426429875,50.0,66.0
394,81.267606425,81.914664925,55.0,78.0
395,81.620547425,81.991135475,70.0,85.0
396,81.973488425,82.5602528375,72.0,85.0
397,82.679370425,82.97201733749999,60.0,75.0
398,82.326429425,83.04113495,55.0,64.0
399,81.973488425,83.05584082499999,48.0,66.0
400,83.032311425,83.2131936875,63.0,80.0
401,83.38525242499999,83.638193475,65.0,75.0
402,83.38525242499999,83.697016975,69.0,69.0
403,83.73819342499999,84.049957975,67.0,82.0
404,83.73819342499999,84.2220167125,57.0,60.0
405,84.09113442499999,84.367604875,62.0,80.0
406,84.09113442499999,84.449957775,69.0,85.0
407,84.09113442499999,84.4720165875,65.0,78.0
408,84.444075425,84.5014283375,57.0,50.0
409,83.38525242499999,84.5396636125,50.0,63.0
410,84.444075425,85.0455457125,72.0,69.0
411,84.797016425,85.30289852499999,60.0,75.0
412,84.797016425,85.320545575,65.0,75.0
413,84.797016425,85.70289832499999,41.0,73.0
414,85.149957425,85.7411336,48.0,66.0
415,85.502898425,85.87789823749999,53.0,75.0
416,85.855839425,86.06466284999999,60.0,82.0
417,86.208780425,86.4470156,65.0,80.0
418,86.208780425,86.51319203749999,62.0,80.0
419,86.561721425,86.897015375,67.0,78.0
420,86.561721425,86.98966238749999,57.0,58.0
421,86.914662425,87.1573093625,62.0,66.0
422,86.914662425,87.25142696249999,69.0,85.0
423,87.26760342499999,87.3411328,57.0,66.0
424,87.26760342499999,87.397015125,72.0,75.0
425,86.208780425,87.39848571249999,50.0,70.0
426,87.62054442499999,87.76319141249999,62.0,61.0
427,87.62054442499999,87.785250225,70.0,75.0
428,87.97348542499999,88.1190735875,65.0,69.0
429,87.97348542499999,88.1278971125,74.0,76.0
430,87.97348542499999,88.26760292499999,50.0,62.0
431,87.62054442499999,88.302897025,43.0,69.0
432,88.326426425,88.649955675,65.0,69.0
433,88.326426425,88.705838,74.0,73.0
434,88.326426425,88.7646615,55.0,69.0
435,88.679367425,88.7896614875,57.0,72.0
436,89.032308425,89.5837787375,72.0,62.0
437,89.385249425,89.838190375,63.0,56.0
438,89.738190425,89.95877854999999,60.0,76.0
439,89.738190425,90.07789613749999,67.0,85.0
440,89.032308425,90.11319023749999,48.0,82.0
441,89.385249425,90.13524905,55.0,64.0
442,90.091131425,90.3176019,70.0,75.0
443,90.444072425,90.77642519999999,67.0,63.0
444,90.444072425,90.78818989999999,63.0,67.0
445,90.797013425,91.102895625,60.0,54.0
446,90.797013425,91.1131897375,65.0,62.0
447,91.14995442499999,91.2749543625,58.0,60.0
448,90.444072425,91.40436606249999,48.0,67.0
449,90.797013425,91.45142486249999,55.0,63.0
450,91.14995442499999,91.45289545,63.0,66.0
451,91.14995442499999,91.51466012499999,67.0,73.0
452,91.50289542499999,91.69995415,70.0,59.0
453,91.85583642499999,92.3176009,60.0,63.0
454,91.85583642499999,92.426424375,41.0,80.0
455,92.208777425,92.5176008,48.0,73.0
456,91.85583642499999,92.5176008,65.0,69.0
457,92.561718425,92.9367182375,53.0,78.0
458,92.914659425,93.0161299625,55.0,70.0
459,93.267600425,93.4705415,58.0,78.0
460,93.44407092499999,93.549953225,60.0,80.0
461,93.620541425,93.702894325,65.0,76.0
462,93.267600425,93.92348245,41.0,75.0
463,93.620541425,93.9411295,48.0,70.0
464,93.79701192499999,94.0190706375,70.0,95.0
465,93.973482425,94.1014235375,72.0,95.0
466,94.149952925,94.279364625,74.0,93.0
467,93.973482425,94.3602469375,53.0,91.0
468,94.326423425,94.4220116125,55.0,70.0
469,94.326423425,94.5573056625,75.0,72.0
470,94.502893925,94.61759975,77.0,85.0
471,94.67936442499999,95.0102466125,77.0,73.0
472,95.03230542499999,95.291128825,77.0,70.0
473,95.03230542499999,95.45730521249999,53.0,63.0
474,95.38524642499999,95.49701107499999,77.0,44.0
475,95.38524642499999,95.6573051125,74.0,93.0
476,95.38524642499999,95.73818742499999,58.0,82.0
477,94.67936442499999,95.749952125,46.0,66.0
478,95.73818742499999,95.94701085,53.0,54.0
479,95.73818742499999,96.0514225625,72.0,82.0
480,96.091128425,96.31024596249999,70.0,82.0
481,96.091128425,96.3631871125,65.0,88.0
482,96.444069425,96.808775125,53.0,66.0
483,96.797010425,96.98965738749999,62.0,75.0
484,96.797010425,97.04112794999999,58.0,76.0
485,96.797010425,97.049951475,65.0,95.0
486,97.149951425,97.18377493749999,63.0,49.0
487,96.091128425,97.20583375,46.0,82.0
488,97.149951425,97.25877489999999,53.0,60.0
489,97.149951425,97.38230424999999,67.0,97.0
490,97.502892425,97.738186425,62.0,66.0
491,97.502892425,97.7602452375,70.0,78.0
492,97.855833425,98.091127425,62.0,76.0
493,97.855833425,98.17053915,69.0,80.0
494,97.855833425,98.261715575,50.0,64.0
495,98.208774425,98.4720095875,62.0,80.0
496,98.208774425,98.479362525,55.0,67.0
497,98.208774425,98.479362525,70.0,67.0
498,97.502892425,98.697009475,43.0,72.0
499,98.56171542499999,98.705833,50.0,62.0
500,98.56171542499999,98.83524469999999,69.0,93.0
501,98.91465642499999,99.28818564999999,60.0,76.0
502,98.91465642499999,99.3161268125,65.0,93.0
503,98.91465642499999,99.3764209,41.0,70.0
504,99.26759742499999,99.4234797,48.0,62.0
505,99.444067925,99.6778913375,53.0,93.0
506,99.62053842499999,99.86318536249999,55.0,70.0
507,99.797008925,99.8940677,57.0,97.0
508,99.973479425,100.0940676,60.0,85.0
509,100.149949925,100.2778910375,65.0,67.0
510,100.326420425,100.7102437625,67.0,75.0
511,100.326420425,100.74406727499999,62.0,75.0
512,100.326420425,100.7690672625,58.0,76.0
513,100.679361425,101.102890625,50.0,58.0
514,101.032302425,101.302890525,58.0,76.0
515,101.032302425,101.3175964,62.0,76.0
516,101.032302425,101.32053757499999,67.0,73.0
517,101.032302425,101.385243425,55.0,60.0
518,100.326420425,101.4543610375,43.0,85.0
519,101.385243425,101.56171392499999,50.0,67.0
520,101.738184425,101.98230195,60.0,54.0
521,101.738184425,102.0749489625,69.0,55.0
522,101.738184425,102.07789013749999,65.0,66.0
523,102.091125425,102.34406647499999,60.0,62.0
524,101.738184425,102.38230175,41.0,66.0
525,102.091125425,102.45583112499999,48.0,67.0
526,102.091125425,102.45877229999999,67.0,78.0
527,102.44406642499999,102.75730156249999,72.0,75.0
528,102.44406642499999,102.8220074125,60.0,67.0
529,102.44406642499999,102.88377208749999,53.0,64.0
530,102.79700742499999,102.9131838375,55.0,66.0
531,103.14994842499999,103.5161247125,62.0,75.0
532,103.14994842499999,103.5455364625,67.0,73.0
533,103.14994842499999,103.63818347499999,58.0,73.0
534,103.50288942499999,103.82935984999999,65.0,72.0
535,103.855830425,104.0337715125,58.0,73.0
536,103.855830425,104.0367126875,67.0,60.0
537,103.855830425,104.0484773875,55.0,64.0
538,103.50288942499999,104.235242,50.0,66.0
539,103.14994842499999,104.2367125875,43.0,75.0
540,104.208771425,104.39700662499999,55.0,69.0
541,104.561712425,104.96759457499999,60.0,72.0
542,104.561712425,105.00730043749999,65.0,78.0
543,104.914653425,105.2955355875,63.0,73.0
544,105.267594425,105.5220060625,65.0,72.0
545,105.267594425,105.5925942625,60.0,70.0
546,104.561712425,105.7411236,48.0,66.0
547,104.914653425,105.7514177125,55.0,66.0
548,105.620535425,105.96465289999999,67.0,76.0
549,105.973476425,106.2749468625,69.0,88.0
550,106.32641742499999,106.7764172,67.0,88.0
551,106.67935842499999,106.8749465625,62.0,72.0
552,106.32641742499999,106.9661229875,57.0,59.0
553,105.973476425,106.98229945,50.0,72.0
554,107.03229942499999,107.2925934125,74.0,72.0
555,107.38524042499999,107.8470049,77.0,62.0
556,107.38524042499999,108.31171055,41.0,67.0
557,107.738181425,108.3131811375,48.0,69.0
558,108.091122425,108.3631811125,79.0,76.0
559,108.091122425,108.41318108749999,53.0,63.0
560,108.444063425,108.720533875,77.0,75.0
561,108.797004425,109.0940631,74.0,91.0
562,109.149945425,109.5043570125,72.0,85.0
563,109.502886425,109.5043570125,72.0,80.0
564,109.502886425,109.6543569375,62.0,58.0
565,109.149945425,109.79994509999999,57.0,57.0
566,108.797004425,109.832298025,50.0,69.0
567,109.855827425,110.10141553749999,65.0,64.0
568,110.20876842499999,110.5161212125,67.0,85.0
569,110.56170942499999,110.93817982499999,50.0,50.0
570,110.91465042499999,111.055826825,70.0,76.0
571,110.91465042499999,111.0837679875,62.0,75.0
572,110.91465042499999,111.19994439999999,55.0,61.0
573,110.20876842499999,111.3646502,43.0,73.0
574,111.26759142499999,111.397003125,50.0,62.0
575,111.26759142499999,111.4161207625,69.0,67.0
576,111.26759142499999,111.42641487499999,60.0,75.0
577,111.620532425,111.94259108749999,58.0,76.0
578,111.620532425,112.3072967875,67.0,76.0
579,112.326414425,112.56170842499999,60.0,64.0
580,112.326414425,112.705826,63.0,72.0
581,111.973473425,112.7749436125,55.0,54.0
582,112.679355425,112.97053174999999,67.0,63.0
583,113.032296425,113.30435511249999,67.0,55.0
584,113.032296425,113.37200213749999,60.0,63.0
585,113.032296425,113.4822962,63.0,70.0
586,113.032296425,113.5999432,55.0,60.0
587,113.385237425,113.6631784625,65.0,69.0
588,113.738178425,113.9293548,63.0,82.0
589,113.738178425,113.938178325,55.0,70.0
590,111.620532425,113.99111947499999,48.0,69.0
591,113.738178425,114.09994295,67.0,88.0
592,114.09111942499999,114.326413425,70.0,67.0
593,114.44406042499999,114.7514132125,67.0,69.0
594,114.44406042499999,114.7631779125,63.0,75.0
595,114.79700142499999,115.073471875,62.0,73.0
596,114.79700142499999,115.12200126249999,65.0,75.0
597,114.44406042499999,115.20582474999999,48.0,70.0
598,114.79700142499999,115.2278835625,55.0,63.0
599,115.14994242499999,115.43670698749999,63.0,67.0
600,115.14994242499999,115.46023638749999,67.0,66.0
601,115.502883425,115.60582455,41.0,47.0
602,115.855824425,116.42935354999999,62.0,78.0
603,115.855824425,116.4543535375,65.0,80.0
604,116.561706425,117.0308238375,58.0,82.0
605,116.914647425,117.25876489999999,63.0,70.0
606,117.267588425,117.7058235,58.0,61.0
607,117.267588425,117.73082348749999,65.0,69.0
608,117.267588425,117.75435288749999,62.0,62.0
609,116.208765425,118.07199978749999,53.0,62.0
610,117.97347042499999,118.1102350625,62.0,64.0
611,117.97347042499999,118.12788211249999,70.0,75.0
612,115.855824425,118.1484703375,46.0,75.0
613,118.32641142499999,118.4469996,63.0,64.0
614,118.32641142499999,118.4602348875,72.0,69.0
615,118.67935242499999,119.3881756,65.0,73.0
616,118.67935242499999,119.4352344,62.0,70.0
617,118.67935242499999,119.5308225875,70.0,70.0
618,119.738175425,120.1984693125,60.0,61.0
619,120.091116425,120.49993975,62.0,66.0
620,120.444057425,120.58817499999999,65.0,63.0
621,118.67935242499999,120.99699832499999,46.0,70.0
622,119.385234425,120.99846891249999,58.0,70.0
623,119.03229342499999,121.091115925,53.0,64.0
624,120.796998425,121.12935119999999,70.0,78.0
625,121.85582142499999,122.2234683,50.0,48.0
626,121.502880425,122.23229182499999,43.0,70.0
627,122.20876242499999,122.6190563375,53.0,60.0
628,121.502880425,122.7572915625,74.0,80.0
629,123.267585425,123.70582049999999,62.0,69.0
630,122.91464442499999,123.8337616125,58.0,64.0
631,122.56170342499999,123.95434978749999,55.0,64.0
632,123.620526425,124.01758505,65.0,78.0
633,123.973467425,124.32052607499999,67.0,58.0
634,124.326408425,125.0808198125,65.0,64.0
635,124.326408425,125.11023156249999,60.0,64.0
636,124.326408425,125.11464332499999,62.0,69.0
637,124.679349425,125.8514076625,53.0,54.0
638,125.032290425,126.1043487125,58.0,63.0
639,125.385231425,126.12199576249999,60.0,61.0
640,125.73817242499999,126.144054575,62.0,72.0
641,126.09111342499999,126.63817197499999,53.0,52.0
642,126.44405442499999,126.74111309999999,65.0,75.0
643,126.44405442499999,126.8161130625,60.0,69.0
644,124.326408425,126.86170127499999,46.0,73.0
645,126.79699542499999,127.144054075,53.0,60.0
646,127.14993642499999,127.4587598,58.0,70.0
647,127.14993642499999,127.8278772625,67.0,72.0
648,127.14993642499999,127.8396419625,63.0,72.0
649,127.855818425,128.09993595,60.0,61.0
650,127.502877425,128.15875945,55.0,59.0
651,127.14993642499999,128.16905356249998,48.0,69.0
652,128.20875942499998,128.5955239375,70.0,75.0
653,128.561700425,129.0234649,60.0,67.0
654,128.561700425,129.2043471625,65.0,66.0
655,128.561700425,129.2352295,69.0,69.0
656,128.91464142499999,129.544052875,48.0,52.0
657,128.561700425,129.5455234625,41.0,72.0
658,129.267582425,129.591111675,62.0,93.0
659,129.267582425,129.61758225,70.0,78.0
660,129.267582425,129.63817047499998,53.0,62.0
661,129.973464425,130.3881701,67.0,72.0
662,129.973464425,130.4366994875,63.0,75.0
663,129.973464425,130.438170075,58.0,78.0
664,130.679346425,130.9690521625,58.0,73.0
665,131.032287425,131.3175814,63.0,69.0
666,130.326405425,131.41758135,55.0,59.0
667,131.385228425,131.832287025,58.0,59.0
668,131.385228425,131.88375758749999,67.0,72.0
669,131.738169425,132.179345675,55.0,58.0
670,132.09111042499998,132.3161103125,58.0,78.0
671,132.09111042499998,132.4308161375,65.0,88.0
672,129.973464425,132.60581605,51.0,70.0
673,132.444051425,132.67640425,55.0,62.0
674,132.79699242499998,133.320521575,60.0,70.0
675,132.79699242499998,133.48816854999998,67.0,67.0
676,132.79699242499998,133.54405087499998,63.0,72.0
677,133.502874425,133.949933025,60.0,85.0
678,133.855815425,134.1646388,63.0,78.0
679,133.149933425,134.1719917375,55.0,54.0
680,132.79699242499998,134.208756425,48.0,62.0
681,134.208756425,134.6366973875,65.0,75.0
682,134.208756425,134.6484620875,60.0,73.0
683,134.208756425,134.66463855,69.0,73.0
684,134.561697425,135.061697175,57.0,61.0
685,134.208756425,135.11169715,50.0,73.0
686,134.914638425,135.2219912125,60.0,67.0
687,135.26757942499998,135.5249322375,65.0,61.0
688,135.620520425,136.0587555,69.0,69.0
689,135.620520425,136.0778731375,60.0,66.0
690,135.620520425,136.0822849,65.0,67.0
691,135.97346142499998,136.5161082125,57.0,70.0
692,135.620520425,136.5955199375,53.0,60.0
693,136.326402425,136.64110814999998,60.0,80.0
694,136.67934342499998,137.0014020875,67.0,64.0
695,137.032284425,137.26463725,65.0,73.0
696,137.032284425,137.6278723625,69.0,72.0
697,137.738166425,137.8661075375,65.0,69.0
698,137.738166425,137.87640165,70.0,72.0
699,137.032284425,137.991107475,41.0,78.0
700,137.385225425,138.0116957,48.0,59.0
701,137.738166425,138.09993095,53.0,55.0
702,138.091107425,138.2131661875,72.0,67.0
703,138.444048425,138.83963646249998,65.0,64.0
704,138.796989425,139.15875395,53.0,67.0
705,139.14993042499998,139.4778714375,67.0,70.0
706,138.444048425,139.496989075,70.0,73.0
707,139.14993042499998,139.5866949125,63.0,75.0
708,139.14993042499998,140.31610631249998,58.0,53.0
709,139.85581242499998,140.3337533625,62.0,66.0
710,139.85581242499998,140.361694525,65.0,67.0
711,139.502871425,140.361694525,70.0,69.0
712,139.85581242499998,140.64992967499998,53.0,49.0
713,140.56169442499998,140.65728261249998,58.0,59.0
714,138.444048425,140.6719884875,46.0,70.0
715,141.267576425,141.914634925,62.0,67.0
716,141.267576425,141.9293408,65.0,69.0
717,141.973458425,142.6308110375,58.0,60.0
718,142.326399425,142.7808109625,60.0,61.0
719,141.267576425,143.08669316249998,46.0,73.0
720,143.03228142499998,143.11169314999998,58.0,31.0
721,142.679340425,143.2661048375,62.0,61.0
722,143.385222425,143.720516375,65.0,69.0
723,141.620517425,143.79404574999998,53.0,46.0
724,143.385222425,143.8219869125,60.0,60.0
725,144.091104425,144.6837511875,58.0,69.0
726,144.091104425,144.7249276375,43.0,67.0
727,144.44404542499998,144.7572805625,50.0,48.0
728,144.796986425,145.18228034999998,53.0,56.0
729,144.091104425,145.18375093749998,65.0,63.0
730,145.855809425,146.1366916375,62.0,72.0
731,145.502868425,146.1866916125,58.0,64.0
732,145.149927425,146.314632725,55.0,63.0
733,146.208750425,146.55875025,65.0,69.0
734,146.91463242499998,147.5102203625,65.0,69.0
735,146.561691425,147.5425732875,70.0,70.0
736,146.91463242499998,147.5543379875,62.0,64.0
737,147.62051442499998,148.2602199875,58.0,53.0
738,147.267573425,148.3072787875,53.0,51.0
739,146.91463242499998,148.32639642499998,46.0,67.0
740,147.973455425,148.38227874999998,60.0,69.0
741,147.973455425,148.39404345,65.0,62.0
742,148.32639642499998,148.39404345,65.0,70.0
743,148.32639642499998,148.7013962375,69.0,70.0
744,148.32639642499998,148.720513875,62.0,64.0
745,148.679337425,149.26316066249998,57.0,59.0
746,148.32639642499998,149.2705136,50.0,76.0
747,149.032278425,149.3308076875,62.0,70.0
748,149.385219425,149.47051349999998,65.0,44.0
749,149.561689925,149.6587487,67.0,46.0
750,149.738160425,150.408748325,41.0,64.0
751,150.091101425,150.44110125,48.0,48.0
752,150.444042425,150.83521869999998,53.0,53.0
753,149.738160425,150.9572774625,65.0,75.0
754,149.738160425,150.95874805,60.0,64.0
755,151.50286542499998,151.80580645,60.0,63.0
756,151.149924425,151.86757112499998,57.0,69.0
757,150.79698342499998,151.8705123,55.0,67.0
758,151.855806425,152.2116886,65.0,70.0
759,152.20874742499998,152.36757087499998,70.0,59.0
760,152.561688425,153.167570475,65.0,72.0
761,152.561688425,153.22933515,69.0,67.0
762,153.267570425,153.5175703,60.0,70.0
763,152.914629425,153.5337467625,57.0,52.0
764,152.561688425,153.5602173375,50.0,75.0
765,153.620511425,153.896981875,69.0,44.0
766,153.973452425,154.67933442499998,65.0,70.0
767,153.973452425,154.714628525,60.0,62.0
768,154.326393425,154.9425695875,48.0,55.0
769,153.973452425,154.95727546249998,41.0,73.0
770,154.67933442499998,155.04404012499998,53.0,64.0
771,155.032275425,155.255804725,60.0,58.0
772,155.38521642499998,155.8072750375,60.0,67.0
773,155.38521642499998,155.84109855,65.0,72.0
774,155.738157425,156.2955100875,57.0,57.0
775,155.38521642499998,156.32345125,50.0,76.0
776,156.09109842499998,156.373451225,60.0,82.0
777,156.444039425,156.7999216,65.0,69.0
778,156.796980425,157.3160978125,62.0,70.0
779,156.796980425,157.37786248749998,70.0,78.0
780,157.502862425,157.644038825,69.0,63.0
781,157.502862425,157.66462704999998,62.0,70.0
782,157.149921425,157.691097625,50.0,40.0
783,156.796980425,157.72639172499998,43.0,73.0
784,157.502862425,157.72639172499998,55.0,57.0
785,158.208744425,158.79403825,63.0,76.0
786,158.208744425,158.8352147,67.0,72.0
787,159.26756742499998,159.5837437375,60.0,73.0
788,158.914626425,159.64844958749998,55.0,61.0
789,159.620508425,159.6631554625,60.0,35.0
790,159.620508425,160.0396258625,63.0,75.0
791,159.97344942499998,160.48962563749998,55.0,51.0
792,158.208744425,160.58521382499998,48.0,57.0
793,158.56168542499998,160.60580205,51.0,60.0
794,160.326390425,160.6366843875,60.0,73.0
795,160.679331425,160.91903718749998,67.0,56.0
796,161.032272425,161.3337428625,67.0,60.0
797,161.032272425,161.3410958,63.0,64.0
798,161.385213425,161.70580149999998,65.0,62.0
799,161.385213425,161.7749191125,62.0,49.0
800,161.738154425,161.8278602625,63.0,61.0
801,161.738154425,161.8513896625,67.0,69.0
802,161.738154425,161.9175661,60.0,61.0
803,161.032272425,161.9293308,48.0,66.0
804,161.385213425,161.9528602,55.0,46.0
805,162.091095425,162.4366834875,70.0,60.0
806,162.44403642499998,162.95874204999998,74.0,64.0
807,162.44403642499998,162.9955067375,65.0,58.0
808,162.796977425,163.81609456249998,53.0,45.0
809,163.502859425,163.8190357375,60.0,62.0
810,163.85580042499998,164.21756495,62.0,59.0
811,164.208741425,164.3190354875,65.0,75.0
812,163.14991842499998,164.5999177,58.0,61.0
813,162.44403642499998,164.6602117875,46.0,63.0
814,164.561682425,164.796976425,53.0,75.0
815,164.561682425,164.8352117,70.0,73.0
816,164.914623425,165.155799775,72.0,78.0
817,165.091093925,165.2366820875,70.0,49.0
818,165.091093925,165.27638795,65.0,51.0
819,165.267564425,165.64256423749998,74.0,85.0
820,165.267564425,165.764623,46.0,63.0
821,165.620505425,165.9072699875,65.0,49.0
822,165.620505425,165.9307993875,53.0,58.0
823,165.973446425,166.296975675,72.0,60.0
824,165.973446425,166.38079916249998,58.0,56.0
825,166.32638742499998,166.679328425,60.0,63.0
826,166.32638742499998,166.72344604999998,74.0,72.0
827,166.679328425,167.07932822499998,65.0,58.0
828,166.679328425,167.07932822499998,69.0,64.0
829,167.03226942499998,167.3396222125,67.0,66.0
830,167.385210425,167.5984456125,62.0,50.0
831,166.679328425,167.6455044125,50.0,66.0
832,167.03226942499998,167.65285735,57.0,54.0
833,167.385210425,167.7410926,69.0,59.0
834,167.73815142499998,168.1131512375,72.0,66.0
835,168.091092425,168.5057981,60.0,57.0
836,168.091092425,168.69109212499998,63.0,60.0
837,168.091092425,168.7572685625,67.0,52.0
838,168.796974425,169.05579782499998,60.0,46.0
839,168.444033425,169.15873895,55.0,46.0
840,168.091092425,169.1646213,48.0,66.0
841,168.796974425,169.17491541249998,65.0,55.0
842,169.149915425,169.514621125,67.0,66.0
843,169.502856425,169.94550326249998,62.0,61.0
844,169.502856425,170.0925620125,65.0,70.0
845,170.20873842499998,170.34256188749998,60.0,56.0
846,170.20873842499998,170.52491473749998,58.0,49.0
847,169.502856425,170.555797075,46.0,70.0
848,169.855797425,170.55873825,53.0,57.0
849,170.20873842499998,170.57050295,63.0,66.0
850,170.561679425,170.6822676,62.0,52.0
851,170.561679425,170.785208725,65.0,67.0
852,170.91462042499998,171.2778555375,69.0,67.0
853,171.267561425,171.4955024875,72.0,69.0
854,170.91462042499998,171.82932585,50.0,73.0
855,171.267561425,171.86609053749999,57.0,55.0
856,171.62050242499998,171.90579639999999,62.0,61.0
857,171.62050242499998,171.955796375,74.0,73.0
858,171.973443425,172.22932565,77.0,72.0
859,172.326384425,172.696972475,70.0,76.0
860,172.326384425,172.7307959875,74.0,75.0
861,172.679325425,172.89844296249998,69.0,42.0
862,172.679325425,172.9293253,72.0,73.0
863,173.032266425,173.24108984999998,67.0,61.0
864,172.679325425,173.32050157499998,62.0,54.0
865,172.326384425,173.332266275,55.0,72.0
866,173.032266425,173.379325075,70.0,63.0
867,173.032266425,173.38226625,74.0,70.0
868,173.385207425,173.64550141249998,77.0,61.0
869,173.738148425,174.0160894625,72.0,67.0
870,173.738148425,174.373442225,48.0,54.0
871,174.09108942499998,174.3778539875,70.0,61.0
872,174.09108942499998,174.4219716125,55.0,61.0
873,174.444030425,174.8572655125,67.0,73.0
874,174.444030425,174.861677275,60.0,52.0
875,174.79697142499998,175.1572653625,70.0,73.0
876,174.79697142499998,175.4043240625,62.0,54.0
877,175.149912425,175.5484416375,69.0,73.0
878,175.50285342499998,175.82785326249999,67.0,67.0
879,175.149912425,175.8807944125,41.0,78.0
880,175.50285342499998,175.8807944125,48.0,59.0
881,175.855794425,176.2749118625,65.0,67.0
882,175.855794425,176.34697065,53.0,63.0
883,176.208735425,176.561676425,55.0,62.0
884,176.208735425,176.57049995,70.0,63.0
885,176.561676425,176.82932334999998,65.0,72.0
886,176.561676425,176.8704998,69.0,70.0
887,176.914617425,177.21902903749998,67.0,73.0
888,177.267558425,177.48814654999998,62.0,78.0
889,176.914617425,177.60579355,57.0,55.0
890,177.267558425,177.608734725,69.0,76.0
891,176.561676425,177.62932295,50.0,72.0
892,177.267558425,177.6822641,65.0,70.0
893,177.620499425,177.86167577499998,72.0,73.0
894,177.97344042499998,178.01755805,62.0,43.0
895,177.97344042499998,178.3896166875,69.0,72.0
896,177.97344042499998,178.41755784999998,60.0,47.0
897,177.97344042499998,178.41755784999998,65.0,59.0
898,178.326381425,178.955792875,48.0,70.0
899,178.855792925,178.98226345,60.0,95.0
900,178.149910925,178.9866752125,41.0,69.0
901,178.67932242499998,178.9866752125,53.0,75.0
902,179.032263425,179.1646163,65.0,70.0
903,179.208733925,179.326380925,67.0,78.0
904,179.38520442499998,179.67932192499998,60.0,95.0
905,179.38520442499998,179.7072630875,65.0,91.0
906,179.38520442499998,179.8837335875,72.0,75.0
907,180.091086425,180.2396157625,62.0,73.0
908,179.738145425,180.279321625,57.0,50.0
909,179.38520442499998,180.32196866249998,50.0,69.0
910,180.26755692499998,180.3749098125,70.0,85.0
911,180.444027425,180.591086175,72.0,76.0
912,180.620497925,180.8513801625,77.0,67.0
913,180.796968425,181.1278506125,70.0,69.0
914,180.796968425,181.1528506,74.0,82.0
915,181.149909425,181.3057917,72.0,69.0
916,181.149909425,181.344026975,69.0,70.0
917,181.502850425,181.67932092499998,67.0,63.0
918,181.502850425,181.68079151249998,70.0,66.0
919,180.796968425,181.7660855875,43.0,58.0
920,181.149909425,181.7719679375,50.0,66.0
921,181.502850425,181.8278502625,55.0,58.0
922,181.85579142499998,182.0013795875,69.0,73.0
923,182.208732425,182.53079108749998,60.0,44.0
924,182.208732425,182.667555725,67.0,82.0
925,182.208732425,182.749908625,63.0,69.0
926,182.914614425,183.0984378625,60.0,62.0
927,182.56167342499998,183.18961428749998,55.0,59.0
928,182.208732425,183.2190260375,48.0,64.0
929,183.26755542499998,183.5190258875,63.0,82.0
930,183.620496425,183.8660845375,60.0,70.0
931,183.620496425,183.97049625,67.0,73.0
932,183.973437425,184.07637855,60.0,48.0
933,183.973437425,184.1307902875,65.0,66.0
934,183.973437425,184.45137836249998,48.0,48.0
935,184.326378425,184.496966575,58.0,55.0
936,184.326378425,184.544025375,63.0,63.0
937,183.620496425,184.68961353749998,36.0,67.0
938,184.679319425,184.802848775,48.0,78.0
939,185.032260425,185.29255441249998,58.0,75.0
940,185.032260425,185.33961321249998,62.0,67.0
941,185.385201425,185.8219659125,53.0,61.0
942,185.73814242499998,186.1528481,58.0,62.0
943,186.091083425,186.314612725,62.0,75.0
944,186.091083425,186.3366715375,70.0,78.0
945,186.44402442499998,186.57931847499998,62.0,73.0
946,186.44402442499998,186.5925537625,70.0,80.0
947,186.44402442499998,186.87931832499999,53.0,66.0
948,186.796965425,186.9396124125,63.0,75.0
949,186.796965425,186.9454947625,72.0,76.0
950,186.796965425,187.2484357875,58.0,69.0
951,187.14990642499998,187.28520047499998,63.0,63.0
952,185.032260425,187.29255341249998,46.0,51.0
953,187.14990642499998,187.34108279999998,72.0,73.0
954,187.14990642499998,187.62784736249998,53.0,67.0
955,187.502847425,187.62931795,74.0,75.0
956,187.502847425,187.64108265,65.0,62.0
957,188.385199925,188.81019971249998,58.0,75.0
958,188.561670425,188.8131408875,60.0,60.0
959,188.73814092499998,188.94402317499998,65.0,59.0
960,187.855788425,189.073434875,46.0,67.0
961,188.208729425,189.17490541249998,53.0,62.0
962,189.091081925,189.49255231249998,62.0,70.0
963,188.914611425,189.5763758,70.0,69.0
964,189.44402292499998,190.0131402875,53.0,70.0
965,189.796963925,190.05578732499998,60.0,72.0
966,189.62049342499998,190.12049317499998,58.0,73.0
967,189.973434425,190.196963725,65.0,62.0
968,189.267552425,190.296963675,46.0,75.0
969,190.149904925,190.34696365,53.0,70.0
970,190.149904925,190.3690224625,70.0,49.0
971,190.32637542499998,190.53519885,65.0,58.0
972,190.502845925,190.7337281625,67.0,67.0
973,190.679316425,190.9881398,70.0,80.0
974,191.385198425,191.591080675,57.0,80.0
975,191.208727925,191.646963,55.0,69.0
976,191.561668925,191.70725708749998,58.0,66.0
977,191.03225742499998,191.75578647499998,50.0,62.0
978,190.679316425,191.7690217625,43.0,70.0
979,191.73813942499999,191.89108052499998,60.0,70.0
980,191.91460992499998,192.0351981,62.0,70.0
981,192.091080425,192.3410803,65.0,64.0
982,192.091080425,192.37049205,60.0,88.0
983,192.091080425,192.385197925,57.0,82.0
984,192.444021425,192.702844825,58.0,70.0
985,192.444021425,192.74843303749998,62.0,75.0
986,192.091080425,192.8454918125,41.0,70.0
987,192.444021425,192.85137416249998,48.0,63.0
988,192.796962425,192.861668275,58.0,70.0
989,192.796962425,192.8866682625,65.0,69.0
990,192.796962425,193.220491625,53.0,69.0
991,193.149903425,193.238138675,65.0,76.0
992,193.149903425,193.25284455,55.0,73.0
993,193.50284442499998,193.9660794875,58.0,72.0
994,193.50284442499998,194.061667675,62.0,69.0
995,193.50284442499998,194.08225589999998,67.0,72.0
996,194.20872642499998,194.63666738749998,55.0,67.0
997,194.561667425,194.7984320125,58.0,62.0
998,194.91460842499998,195.00578485,58.0,49.0
999,194.91460842499998,195.0925495125,55.0,54.0
1000,194.91460842499998,195.12343185,62.0,73.0
1001,194.91460842499998,195.1660788875,67.0,75.0
1002,195.267549425,195.4101964125,67.0,58.0
1003,193.50284442499998,195.8072550375,43.0,72.0
1004,193.855785425,195.85137266249998,50.0,64.0
1005,195.62049042499999,195.9410785,70.0,91.0
1006,195.62049042499999,195.973431425,55.0,75.0
1007,195.973431425,196.34401947499998,74.0,70.0
1008,196.326372425,196.6101958125,58.0,72.0
1009,196.326372425,196.649901675,67.0,76.0
1010,196.679313425,196.7278428125,58.0,41.0
1011,196.679313425,197.06460735,65.0,73.0
1012,197.032254425,197.12931319999998,67.0,78.0
1013,196.326372425,197.13813672499998,43.0,70.0
1014,196.679313425,197.191077875,50.0,66.0
1015,197.032254425,197.679312925,55.0,78.0
1016,197.38519542499998,197.755783475,70.0,85.0
1017,197.738136425,198.3249008375,72.0,85.0
1018,198.444018425,198.7366653375,60.0,75.0
1019,198.09107742499998,198.80578294999998,55.0,64.0
1020,197.738136425,198.82048882499998,48.0,66.0
1021,198.79695942499998,198.9778416875,63.0,80.0
1022,199.149900425,199.402841475,65.0,75.0
1023,199.149900425,199.461664975,69.0,69.0
1024,199.50284142499999,199.81460597499998,67.0,82.0
1025,199.50284142499999,199.9866647125,57.0,60.0
1026,199.855782425,200.13225287499998,62.0,80.0
1027,199.855782425,200.214605775,69.0,85.0
1028,199.855782425,200.2366645875,65.0,78.0
1029,200.208723425,200.26607633749998,57.0,50.0
1030,199.149900425,200.3043116125,50.0,63.0
1031,200.208723425,200.8101937125,72.0,69.0
1032,200.561664425,201.06754652499998,60.0,75.0
1033,200.561664425,201.08519357499998,65.0,75.0
1034,200.561664425,201.467546325,41.0,73.0
1035,200.914605425,201.50578159999998,48.0,66.0
1036,201.26754642499998,201.6425462375,53.0,75.0
1037,201.620487425,201.82931084999998,60.0,82.0
1038,201.97342842499998,202.21166359999998,65.0,80.0
1039,201.97342842499998,202.2778400375,62.0,80.0
1040,202.326369425,202.661663375,67.0,78.0
1041,202.326369425,202.7543103875,57.0,58.0
1042,202.67931042499998,202.9219573625,62.0,66.0
1043,202.67931042499998,203.0160749625,69.0,85.0
1044,203.032251425,203.1057808,57.0,66.0
1045,203.032251425,203.161663125,72.0,75.0
1046,201.97342842499998,203.16313371249998,50.0,70.0
1047,203.38519242499999,203.5278394125,62.0,61.0
1048,203.38519242499999,203.549898225,70.0,75.0
1049,203.738133425,203.8837215875,65.0,69.0
1050,203.738133425,203.8925451125,74.0,76.0
1051,203.738133425,204.032250925,50.0,62.0
1052,203.38519242499999,204.067545025,43.0,69.0
1053,204.091074425,204.414603675,65.0,69.0
1054,204.091074425,204.470486,72.0,73.0
1055,204.091074425,204.52930949999998,55.0,69.0
1056,204.444015425,204.55430948749998,57.0,72.0
1057,204.796956425,205.34842673749998,72.0,62.0
1058,205.14989742499998,205.602838375,63.0,56.0
1059,205.502838425,205.72342655,60.0,76.0
1060,205.502838425,205.8425441375,67.0,85.0
1061,204.796956425,205.8778382375,48.0,82.0
1062,205.14989742499998,205.89989705,55.0,64.0
1063,205.85577942499998,206.0822499,70.0,75.0
1064,206.208720425,206.5410732,67.0,63.0
1065,206.208720425,206.5528379,63.0,67.0
1066,206.56166142499998,206.867543625,60.0,54.0
1067,206.56166142499998,206.8778377375,65.0,62.0
1068,206.914602425,207.03960236249998,58.0,60.0
1069,206.208720425,207.1690140625,48.0,67.0
1070,206.56166142499998,207.2160728625,55.0,63.0
1071,206.914602425,207.21754345,63.0,66.0
1072,206.914602425,207.279308125,67.0,73.0
1073,207.26754342499999,207.46460215,70.0,59.0
1074,207.620484425,208.0822489,60.0,63.0
1075,207.620484425,208.191072375,41.0,80.0
1076,207.973425425,208.2822488,48.0,73.0
1077,207.620484425,208.2822488,65.0,69.0
1078,208.326366425,208.7013662375,53.0,78.0
1079,208.679307425,208.7807779625,55.0,70.0
1080,209.03224842499998,209.2351895,58.0,78.0
1081,209.208718925,209.314601225,60.0,80.0
1082,209.385189425,209.46754232499998,65.0,76.0
1083,209.03224842499998,209.68813045,41.0,75.0
1084,209.385189425,209.70577749999998,48.0,70.0
1085,209.561659925,209.7837186375,70.0,95.0
1086,209.73813042499998,209.86607153749998,72.0,95.0
1087,209.914600925,210.044012625,74.0,93.0
1088,209.73813042499998,210.1248949375,53.0,91.0
1089,210.091071425,210.1866596125,55.0,70.0
1090,210.091071425,210.3219536625,75.0,72.0
1091,210.267541925,210.38224774999998,77.0,85.0
1092,210.44401242499998,210.7748946125,77.0,73.0
1093,210.796953425,211.05577682499998,77.0,70.0
1094,210.796953425,211.22195321249998,53.0,63.0
1095,211.14989442499999,211.42195311249998,74.0,93.0
1096,211.14989442499999,211.502835425,58.0,82.0
1097,210.44401242499998,211.514600125,46.0,66.0
1098,211.502835425,211.71165885,53.0,54.0
1099,211.502835425,211.8160705625,72.0,82.0
1100,211.855776425,212.0748939625,70.0,82.0
1101,211.855776425,212.12783511249998,65.0,88.0
1102,212.208717425,212.57342312499998,53.0,66.0
1103,212.561658425,212.75430538749998,62.0,75.0
1104,212.561658425,212.80577595,58.0,76.0
1105,212.561658425,212.814599475,65.0,95.0
1106,212.91459942499998,212.9484229375,63.0,49.0
1107,211.855776425,212.97048174999998,46.0,82.0
1108,212.91459942499998,213.02342289999999,53.0,60.0
1109,212.91459942499998,213.14695225,67.0,97.0
1110,213.267540425,213.502834425,62.0,66.0
1111,213.267540425,213.52489323749998,70.0,78.0
1112,213.62048142499998,213.855775425,62.0,76.0
1113,213.62048142499998,213.93518715,69.0,80.0
1114,213.62048142499998,214.02636357499998,50.0,64.0
1115,213.973422425,214.2366575875,62.0,80.0
1116,213.973422425,214.244010525,55.0,67.0
1117,213.973422425,214.244010525,70.0,67.0
1118,213.267540425,214.46165747499998,43.0,72.0
1119,214.32636342499998,214.47048099999998,50.0,62.0
1120,214.32636342499998,214.5998927,69.0,93.0
1121,214.679304425,215.05283365,60.0,76.0
1122,214.679304425,215.08077481249998,65.0,93.0
1123,214.679304425,215.1410689,41.0,70.0
1124,215.03224542499999,215.1881277,48.0,62.0
1125,215.20871592499998,215.4425393375,53.0,93.0
1126,215.385186425,215.62783336249998,55.0,70.0
1127,215.561656925,215.6587157,57.0,97.0
1128,215.738127425,215.85871559999998,60.0,85.0
1129,215.91459792499998,216.04253903749998,65.0,67.0
1130,216.091068425,216.4748917625,67.0,75.0
1131,216.091068425,216.508715275,62.0,75.0
1132,216.091068425,216.53371526249998,58.0,76.0
1133,216.444009425,216.86753862499998,50.0,58.0
1134,216.79695042499998,217.067538525,58.0,76.0
1135,216.79695042499998,217.08224439999998,62.0,76.0
1136,216.79695042499998,217.085185575,67.0,73.0
1137,216.79695042499998,217.149891425,55.0,60.0
1138,216.091068425,217.2190090375,43.0,85.0
1139,217.149891425,217.326361925,50.0,67.0
1140,217.50283242499998,217.74694995,60.0,54.0
1141,217.50283242499998,217.8395969625,69.0,55.0
1142,217.50283242499998,217.8425381375,65.0,66.0
1143,217.855773425,218.108714475,60.0,62.0
1144,217.50283242499998,218.14694974999998,41.0,66.0
1145,217.855773425,218.220479125,48.0,67.0
1146,217.855773425,218.2234203,67.0,78.0
1147,218.20871442499998,218.5219495625,72.0,75.0
1148,218.20871442499998,218.5866554125,60.0,67.0
1149,218.20871442499998,218.6484200875,53.0,64.0
1150,218.561655425,218.67783183749998,55.0,66.0
1151,218.91459642499998,219.28077271249998,62.0,75.0
1152,218.91459642499998,219.3101844625,67.0,73.0
1153,218.91459642499998,219.402831475,58.0,73.0
1154,219.267537425,219.59400785,65.0,72.0
1155,219.620478425,219.79841951249998,58.0,73.0
1156,219.620478425,219.8013606875,67.0,60.0
1157,219.620478425,219.81312538749998,55.0,64.0
1158,219.267537425,219.99989,50.0,66.0
1159,218.91459642499998,220.0013605875,43.0,75.0
1160,219.973419425,220.16165462499998,55.0,69.0
1161,220.326360425,220.732242575,60.0,72.0
1162,220.326360425,220.7719484375,65.0,78.0
1163,220.67930142499998,221.06018358749998,63.0,73.0
1164,221.032242425,221.2866540625,65.0,72.0
1165,221.032242425,221.3572422625,60.0,70.0
1166,220.326360425,221.5057716,48.0,66.0
1167,220.67930142499998,221.5160657125,55.0,66.0
1168,221.38518342499998,221.7293009,67.0,76.0
1169,221.738124425,222.0395948625,69.0,88.0
1170,222.09106542499998,222.5410652,67.0,88.0
1171,222.444006425,222.63959456249998,62.0,72.0
1172,222.09106542499998,222.7307709875,57.0,59.0
1173,221.738124425,222.74694745,50.0,72.0
1174,222.444006425,222.75871214999998,69.0,88.0
1175,222.79694742499998,223.0572414125,74.0,72.0
1176,223.149888425,223.6116529,77.0,62.0
1177,223.149888425,224.07635854999998,41.0,67.0
1178,223.502829425,224.0778291375,48.0,69.0
1179,223.855770425,224.1278291125,79.0,76.0
1180,223.855770425,224.1778290875,53.0,63.0
1181,224.208711425,224.485181875,77.0,75.0
1182,224.56165242499998,224.8587111,74.0,91.0
1183,224.914593425,225.2690050125,72.0,85.0
1184,225.26753442499998,225.41900493749998,62.0,58.0
1185,224.914593425,225.5645931,57.0,57.0
1186,225.26753442499998,225.5807695625,69.0,80.0
1187,224.56165242499998,225.596946025,50.0,69.0
1188,225.620475425,225.8660635375,65.0,64.0
1189,225.97341642499998,226.2807692125,67.0,85.0
1190,226.326357425,226.70282782499999,50.0,50.0
1191,226.67929842499998,226.820474825,70.0,76.0
1192,226.67929842499998,226.84841598749998,62.0,75.0
1193,226.67929842499998,226.9645924,55.0,61.0
1194,225.97341642499998,227.1292982,43.0,73.0
1195,227.032239425,227.161651125,50.0,62.0
1196,227.032239425,227.18076876249998,69.0,67.0
1197,227.032239425,227.191062875,60.0,75.0
1198,227.385180425,227.7072390875,58.0,76.0
1199,227.385180425,228.0719447875,67.0,76.0
1200,228.091062425,228.326356425,60.0,64.0
1201,228.091062425,228.470474,63.0,72.0
1202,227.738121425,228.53959161249998,55.0,54.0
1203,228.44400342499998,228.73517975,67.0,63.0
1204,228.796944425,229.06900311249998,67.0,55.0
1205,228.796944425,229.1366501375,60.0,63.0
1206,228.796944425,229.2469442,63.0,70.0
1207,228.796944425,229.36459119999998,55.0,60.0
1208,229.14988542499998,229.42782646249998,65.0,69.0
1209,229.502826425,229.6940028,63.0,82.0
1210,229.502826425,229.702826325,55.0,70.0
1211,227.385180425,229.755767475,48.0,69.0
1212,229.502826425,229.86459094999998,67.0,88.0
1213,229.85576742499998,230.091061425,70.0,67.0
1214,230.208708425,230.51606121249998,67.0,69.0
1215,230.208708425,230.5278259125,63.0,75.0
1216,230.56164942499998,230.838119875,62.0,73.0
1217,230.56164942499998,230.8866492625,65.0,75.0
1218,230.208708425,230.97047275,48.0,70.0
1219,230.56164942499998,230.99253156249998,55.0,63.0
1220,230.914590425,231.2013549875,63.0,67.0
1221,230.914590425,231.2248843875,67.0,66.0
1222,231.267531425,231.529296,41.0,47.0
1223,231.620472425,232.19400155,62.0,78.0
1224,231.620472425,232.2190015375,65.0,80.0
1225,232.32635442499998,232.7954718375,58.0,82.0
1226,232.679295425,233.02341289999998,63.0,70.0
1227,233.03223642499998,233.4704715,58.0,61.0
1228,233.03223642499998,233.4954714875,65.0,69.0
1229,233.03223642499998,233.5190008875,62.0,62.0
1230,231.973413425,233.8366477875,53.0,62.0
1231,233.73811842499998,233.87488306249998,62.0,64.0
1232,233.73811842499998,233.8925301125,70.0,75.0
1233,231.620472425,233.91311833749998,46.0,75.0
1234,234.091059425,234.2116476,63.0,64.0
1235,234.091059425,234.2248828875,72.0,69.0
1236,234.44400042499998,234.7748826125,77.0,73.0
1237,234.796941425,235.05576482499998,77.0,70.0
1238,234.796941425,235.22194121249998,53.0,63.0
1239,235.149882425,235.26164707499998,77.0,44.0
1240,235.149882425,235.42194111249998,74.0,93.0
1241,235.149882425,235.502823425,58.0,82.0
1242,234.44400042499998,235.514588125,46.0,66.0
1243,235.502823425,235.71164685,53.0,54.0
1244,235.502823425,235.8160585625,72.0,82.0
1245,235.855764425,236.0748819625,70.0,82.0
1246,235.855764425,236.12782311249998,65.0,88.0
1247,236.20870542499998,236.57341112499998,53.0,66.0
1248,236.561646425,236.75429338749998,62.0,75.0
1249,236.561646425,236.80576395,58.0,76.0
1250,236.561646425,236.814587475,65.0,95.0
1251,236.91458742499998,236.9484109375,63.0,49.0
1252,235.855764425,236.97046974999998,46.0,82.0
1253,236.91458742499998,237.0234109,53.0,60.0
1254,236.91458742499998,237.14694025,67.0,97.0
1255,237.267528425,237.50282242499998,62.0,66.0
1256,237.267528425,237.52488123749998,70.0,78.0
1257,237.62046942499998,237.855763425,62.0,76.0
1258,237.62046942499998,237.93517515,69.0,80.0
1259,237.62046942499998,238.02635157499998,50.0,64.0
1260,237.973410425,238.2366455875,62.0,80.0
1261,237.973410425,238.243998525,55.0,67.0
1262,237.973410425,238.243998525,70.0,67.0
1263,237.267528425,238.46164547499998,43.0,72.0
1264,238.32635142499998,238.47046899999998,50.0,62.0
1265,238.32635142499998,238.5998807,69.0,93.0
1266,238.679292425,239.05282165,60.0,76.0
1267,238.679292425,239.08076281249998,65.0,93.0
1268,238.679292425,239.1410569,41.0,70.0
1269,239.032233425,239.1881157,48.0,62.0
1270,239.20870392499998,239.4425273375,53.0,93.0
1271,239.385174425,239.6278213625,55.0,70.0
1272,239.561644925,239.6587037,57.0,97.0
1273,239.738115425,239.85870359999998,60.0,85.0
1274,239.91458592499998,240.04252703749998,65.0,67.0
1275,240.09105642499998,240.4748797625,67.0,75.0
1276,240.09105642499998,240.508703275,62.0,75.0
1277,240.09105642499998,240.53370326249998,58.0,76.0
1278,240.443997425,240.86752662499998,50.0,58.0
1279,240.79693842499998,241.06752652499998,58.0,76.0
1280,240.79693842499998,241.08223239999998,62.0,76.0
1281,240.79693842499998,241.085173575,67.0,73.0
1282,240.79693842499998,241.149879425,55.0,60.0
1283,240.09105642499998,241.2189970375,43.0,85.0
1284,241.149879425,241.326349925,50.0,67.0
1285,241.50282042499998,241.74693795,60.0,54.0
1286,241.50282042499998,241.8395849625,69.0,55.0
1287,241.50282042499998,241.8425261375,65.0,66.0
1288,241.855761425,242.108702475,60.0,62.0
1289,241.50282042499998,242.14693774999998,41.0,66.0
1290,241.855761425,242.220467125,48.0,67.0
1291,241.855761425,242.2234083,67.0,78.0
1292,242.20870242499998,242.5219375625,72.0,75.0
1293,242.20870242499998,242.5866434125,60.0,67.0
1294,242.20870242499998,242.6484080875,53.0,64.0
1295,242.561643425,242.67781983749998,55.0,66.0
1296,242.914584425,243.28076071249998,62.0,75.0
1297,242.914584425,243.3101724625,67.0,73.0
1298,242.914584425,243.402819475,58.0,73.0
1299,243.267525425,243.59399585,65.0,72.0
1300,243.620466425,243.79840751249998,58.0,73.0
1301,243.620466425,243.8013486875,67.0,60.0
1302,243.620466425,243.81311338749998,55.0,64.0
1303,243.267525425,243.999878,50.0,66.0
1304,242.914584425,244.0013485875,43.0,75.0
1305,243.97340742499998,244.16164262499998,55.0,69.0
1306,244.326348425,244.732230575,60.0,72.0
1307,244.326348425,244.7719364375,65.0,78.0
1308,244.67928942499998,245.06017158749998,63.0,73.0
1309,245.032230425,245.2866420625,65.0,72.0
1310,245.032230425,245.3572302625,60.0,70.0
1311,244.326348425,245.50575959999998,48.0,66.0
1312,244.67928942499998,245.5160537125,55.0,66.0
1313,245.38517142499998,245.7292889,67.0,76.0
1314,245.738112425,246.0395828625,69.0,88.0
1315,246.09105342499998,246.5410532,67.0,88.0
1316,246.443994425,246.63958256249998,62.0,72.0
1317,246.09105342499998,246.7307589875,57.0,59.0
1318,245.738112425,246.74693545,50.0,72.0
1319,246.443994425,246.75870014999998,69.0,88.0
1320,246.796935425,247.0572294125,74.0,72.0
1321,247.149876425,247.6116409,77.0,62.0
1322,247.149876425,248.07634654999998,41.0,67.0
1323,247.502817425,248.07781713749998,48.0,69.0
1324,247.85575842499998,248.1278171125,79.0,76.0
1325,247.85575842499998,248.1778170875,53.0,63.0
1326,248.208699425,248.485169875,77.0,75.0
1327,248.56164042499998,248.8586991,74.0,91.0
1328,248.914581425,249.26899301249998,72.0,85.0
1329,249.26752242499998,249.41899293749998,62.0,58.0
1330,248.914581425,249.5645811,57.0,57.0
1331,249.26752242499998,249.5807575625,69.0,80.0
1332,248.56164042499998,249.596934025,50.0,69.0
1333,249.620463425,249.8660515375,65.0,64.0
1334,249.97340442499998,250.2807572125,67.0,85.0
1335,250.326345425,250.702815825,50.0,50.0
1336,250.679286425,250.820462825,72.0,76.0
1337,250.679286425,250.84840398749998,62.0,75.0
1338,250.679286425,250.9645804,55.0,61.0
1339,249.97340442499998,251.1292862,43.0,73.0
1340,251.032227425,251.161639125,50.0,62.0
1341,251.032227425,251.18075676249998,70.0,67.0
1342,251.032227425,251.191050875,60.0,75.0
1343,251.385168425,251.7072270875,58.0,76.0
1344,251.385168425,252.07193278749997,67.0,76.0
1345,252.091050425,252.326344425,60.0,64.0
1346,252.091050425,252.470462,63.0,72.0
1347,251.73810942499998,252.53957961249998,55.0,54.0
1348,252.44399142499998,252.73516775,67.0,63.0
1349,252.796932425,253.0689911125,67.0,55.0
1350,252.796932425,253.1366381375,60.0,63.0
1351,252.796932425,253.24693219999997,63.0,70.0
1352,252.796932425,253.36457919999998,55.0,60.0
1353,253.14987342499998,253.42781446249998,65.0,69.0
1354,253.502814425,253.6939908,63.0,82.0
1355,253.502814425,253.702814325,55.0,70.0
1356,251.385168425,253.755755475,48.0,69.0
1357,253.502814425,253.86457894999998,67.0,88.0
1358,253.85575542499998,254.091049425,70.0,67.0
1359,254.208696425,254.51604921249998,67.0,69.0
1360,254.208696425,254.5278139125,63.0,75.0
1361,254.561637425,254.838107875,62.0,73.0
1362,254.561637425,254.8866372625,65.0,75.0
1363,254.208696425,254.97046075,48.0,70.0
1364,254.561637425,254.99251956249998,55.0,63.0
1365,254.914578425,255.2013429875,63.0,67.0
1366,254.914578425,255.2248723875,67.0,66.0
1367,255.267519425,255.529284,41.0,47.0
1368,255.62046042499998,256.19398954999997,62.0,78.0
1369,255.62046042499998,256.21898953749997,65.0,80.0
1370,256.326342425,256.7954598375,58.0,82.0
1371,256.679283425,257.0234009,63.0,70.0
1372,257.032224425,257.4704595,58.0,61.0
1373,257.032224425,257.4954594875,65.0,69.0
1374,257.032224425,257.5189888875,62.0,62.0
1375,255.973401425,257.8366357875,53.0,62.0
1376,257.738106425,257.8748710625,62.0,64.0
1377,257.738106425,257.8925181125,70.0,75.0
1378,255.62046042499998,257.9131063375,46.0,75.0
1379,258.091047425,258.21163559999997,63.0,64.0
1380,258.091047425,258.2248708875,72.0,69.0
1381,258.443988425,259.1454586625,67.0,63.0
1382,258.443988425,259.1998704,63.0,66.0
1383,259.14987042499996,259.34692915,60.0,67.0
1384,258.796929425,259.367517375,55.0,60.0
1385,258.443988425,259.37781148749997,48.0,63.0
1386,265.679278925,265.8307494375,60.0,55.0
1387,266.032219925,266.1881022,62.0,47.0
1388,266.208690425,266.291043325,65.0,57.0
1389,266.561631425,266.7410431,70.0,69.0
1390,266.91457242499996,267.014572375,72.0,48.0
1391,267.091042925,267.1866311125,77.0,57.0
1392,267.443983925,267.6013367875,82.0,51.0
1393,267.796924925,267.9895718875,84.0,43.0
1394,268.149865925,268.2631011625,86.0,49.0
1395,268.679277425,268.8219244125,89.0,31.0
1396,265.32633792499996,269.23957126249996,58.0,57.0
1397,269.208688925,269.3454535625,94.0,47.0
1398,264.973396925,269.35133591249996,53.0,59.0
1399,264.267514925,269.449865275,46.0,66.0
