,start,end,pitch,velocity
0,32.168618625,32.666634,68.0,96.0
1,32.644808625,33.021792375000004,75.0,95.0
2,33.120998625000006,33.515839500000006,75.0,94.0
3,33.597188625,33.952347,73.0,101.0
4,34.073378625000004,35.71425000000001,75.0,97.0
5,35.97813862500001,36.343217625,70.0,91.0
6,36.454328625,36.692423625,70.0,94.0
7,36.692423625,36.930518625000005,70.0,94.0
8,36.930518625000005,37.40075625,68.0,93.0
9,37.40670862500001,37.92456525,66.0,91.0
10,37.882898625,39.426547875000004,68.0,94.0
11,39.787658625000006,40.247975625,68.0,96.0
12,40.263848625,40.593213375000005,73.0,95.0
13,40.740038625000004,41.142816,73.0,104.0
14,41.21622862500001,41.626942500000006,71.0,95.0
15,41.692418625,42.089243625,73.0,97.0
16,42.168608625000005,42.577338375000004,71.0,95.0
17,42.64479862500001,43.43051212500001,68.0,94.0
18,43.597178625000005,44.013844875000004,71.0,93.0
19,44.07336862500001,44.490034875000006,68.0,94.0
20,44.549558625,44.924558250000004,71.0,96.0
21,45.025748625000006,45.37098637500001,73.0,95.0
22,45.50193862500001,47.20630200000001,75.0,92.0
23,47.406698625000004,47.8174125,75.0,97.0
24,47.88288862500001,48.692411625000005,80.0,97.0
25,48.835268625000005,49.18844287500001,75.0,101.0
26,49.31145862500001,50.99002837500001,73.0,97.0
27,51.216218625,51.601138875000004,75.0,95.0
28,51.692408625000006,52.05947175000001,78.0,97.0
29,52.16859862500001,52.533677625,73.0,97.0
30,52.644788625000004,53.023756500000005,75.0,92.0
31,53.120978625000006,54.26383462500001,71.0,92.0
32,55.025738625,55.60510312500001,73.0,97.0
33,55.740023625000006,55.888833000000005,73.0,94.0
34,55.97811862500001,56.37891187500001,73.0,97.0
35,56.454308625,56.851133625,68.0,92.0
36,56.930498625000006,57.40668862500001,73.0,97.0
37,57.40668862500001,57.77772000000001,75.0,94.0
38,57.882878625000004,58.61303662500001,73.0,97.0
39,58.83525862500001,59.26382962500001,66.0,94.0
40,59.311448625000004,60.1189875,63.0,101.0
41,60.26382862500001,60.618987000000004,66.0,92.0
42,60.740018625000005,62.466207375,68.0,90.0
43,62.64477862500001,63.14279400000001,68.0,96.0
44,63.120968625,63.497952375000004,75.0,95.0
45,63.597158625000006,63.991999500000006,75.0,94.0
46,64.07334862500001,64.42850700000001,73.0,101.0
47,64.54953862500001,66.19041,75.0,97.0
48,66.454298625,66.819377625,70.0,91.0
49,66.93048862500001,67.16858362500001,70.0,94.0
50,67.16858362500001,67.40667862500001,70.0,94.0
51,67.40667862500001,67.87691625000001,68.0,93.0
52,67.882868625,68.40072525000001,66.0,91.0
53,68.359058625,69.902707875,68.0,94.0
54,70.26381862500001,70.724135625,68.0,96.0
55,70.740008625,71.06937337500001,73.0,95.0
56,71.216198625,71.618976,73.0,104.0
57,71.692388625,72.1031025,71.0,95.0
58,72.16857862500001,72.565403625,73.0,97.0
59,72.64476862500001,73.053498375,71.0,95.0
60,73.12095862500001,73.90667212500001,68.0,94.0
61,74.073338625,74.49000487500001,71.0,93.0
62,74.54952862500001,74.96619487500001,68.0,94.0
63,75.02571862500001,75.40071825000001,71.0,96.0
64,75.50190862500001,75.84714637500001,73.0,95.0
65,75.978098625,77.68246200000002,75.0,92.0
66,77.88285862500001,78.29357250000001,75.0,97.0
67,78.35904862500001,79.16857162500001,80.0,97.0
68,79.311428625,79.66460287500001,75.0,101.0
69,79.78761862500001,81.46618837500002,73.0,97.0
70,81.692378625,82.07729887500001,75.0,95.0
71,82.168568625,82.53563175000001,78.0,97.0
72,82.64475862500001,83.009837625,73.0,97.0
73,83.12094862500001,83.49991650000001,75.0,92.0
74,83.59713862500001,84.73999462500001,71.0,92.0
75,85.50189862500001,86.081263125,73.0,97.0
76,86.21618362500001,86.36499300000001,73.0,94.0
77,86.45427862500001,86.85507187500001,73.0,97.0
78,86.930468625,87.32729362500001,68.0,92.0
79,87.406658625,87.88284862500001,73.0,97.0
80,87.88284862500001,88.25388000000001,75.0,94.0
81,88.35903862500001,89.08919662500001,73.0,97.0
82,89.31141862500002,89.67054525,78.0,92.0
83,89.787608625,90.12689400000001,78.0,92.0
84,90.263798625,90.70229025,78.0,92.0
85,90.73998862500001,91.21816275,75.0,94.0
86,91.21617862500001,92.84117700000002,80.0,91.0
87,93.12093862500001,93.60506512500001,75.0,91.0
88,93.59712862500001,93.88482675000002,80.0,93.0
89,94.07331862500001,94.44435000000001,80.0,91.0
90,94.54950862500002,94.89077812500001,78.0,94.0
91,95.025698625,96.97014112500001,80.0,90.0
92,96.93045862500001,97.33323600000001,75.0,97.0
93,97.40664862500002,97.92648937500002,82.0,96.0
94,97.882838625,98.28958425,80.0,97.0
95,98.35902862500001,98.59712362500001,78.0,91.0
96,98.59712362500001,98.80744087500001,80.0,86.0
97,98.83521862500001,99.08521837500001,78.0,88.0
98,99.07331362500001,99.35307525000002,80.0,86.0
99,99.31140862500001,99.56736075,78.0,85.0
100,99.54950362500001,100.739978625,75.0,91.0
101,100.739978625,101.19037500000002,68.0,92.0
102,101.21616862500001,101.59116825000001,73.0,95.0
103,101.69235862500001,102.02172337500001,73.0,94.0
104,102.16854862500001,102.48799275000002,71.0,91.0
105,102.64473862500002,103.109023875,73.0,101.0
106,103.120928625,103.476087,68.0,90.0
107,103.59711862500001,104.37291150000001,68.0,88.0
108,104.54949862500001,104.934418875,78.0,92.0
109,105.02568862500002,105.39076762500001,80.0,92.0
110,105.50187862500002,105.94632262500001,78.0,93.0
111,105.978068625,106.3491,73.0,101.0
112,106.45425862500001,108.09116175000001,75.0,94.0
113,108.359018625,108.78163725000002,75.0,96.0
114,108.835208625,109.20425587500002,80.0,94.0
115,109.31139862500001,109.74989025,78.0,92.0
116,109.78758862500001,110.16655650000001,75.0,92.0
117,110.26377862500001,111.747904125,73.0,96.0
118,112.16853862500001,112.533617625,78.0,91.0
119,112.64472862500001,113.00385525000002,75.0,91.0
120,113.12091862500002,113.52964837500001,75.0,91.0
121,113.59710862500002,113.78163225000002,73.0,96.0
122,113.835203625,114.41258400000001,75.0,99.0
123,114.54948862500001,115.70226525000001,71.0,92.0
124,115.97805862500002,116.53361362500002,73.0,97.0
125,116.692343625,116.81932762500001,73.0,96.0
126,116.93043862500001,117.27567637500002,73.0,96.0
127,117.40662862500001,117.82924725000001,75.0,96.0
128,117.88281862500001,118.24591350000001,78.0,94.0
129,118.35900862500002,118.66059562500001,75.0,94.0
130,118.83519862500002,119.54948362500001,75.0,95.0
131,119.78757862500001,120.57924450000002,73.0,91.0
132,120.73995862500001,121.64075137500001,75.0,94.0
133,121.69233862500002,123.45424162500001,68.0,94.0
134,154.07325862500002,154.57127400000002,68.0,96.0
135,154.54944862500003,154.92643237500002,75.0,95.0
136,155.02563862500003,155.42047950000003,75.0,94.0
137,155.50182862500003,155.856987,73.0,101.0
138,155.978018625,157.61889000000002,75.0,97.0
139,157.88277862500001,158.24785762500002,70.0,91.0
140,158.35896862500002,158.597063625,70.0,94.0
141,158.597063625,158.83515862500002,70.0,94.0
142,158.83515862500002,159.30539625000003,68.0,93.0
143,159.31134862500002,159.82920525000003,66.0,91.0
144,159.78753862500002,161.331187875,68.0,94.0
145,161.692298625,162.152615625,68.0,96.0
146,162.168488625,162.497853375,73.0,95.0
147,162.644678625,163.047456,73.0,104.0
148,163.120868625,163.5315825,71.0,95.0
149,163.59705862500002,163.99388362500002,73.0,97.0
150,164.07324862500002,164.481978375,71.0,95.0
151,164.54943862500002,165.335152125,68.0,94.0
152,165.50181862500003,165.91848487500002,71.0,93.0
153,165.97800862500003,166.39467487500002,68.0,94.0
154,166.454198625,166.82919825000002,71.0,96.0
155,166.930388625,167.27562637500003,73.0,95.0
156,167.406578625,169.11094200000002,75.0,92.0
157,169.31133862500002,169.72205250000002,75.0,97.0
158,169.78752862500002,170.597051625,80.0,97.0
159,170.73990862500003,171.09308287500002,75.0,101.0
160,171.21609862500003,172.894668375,73.0,97.0
161,173.120858625,173.505778875,75.0,95.0
162,173.597048625,173.96411175000003,78.0,97.0
163,174.07323862500002,174.43831762500002,73.0,97.0
164,174.54942862500002,174.92839650000002,75.0,92.0
165,175.02561862500002,176.16847462500002,71.0,92.0
166,176.93037862500003,177.50974312500003,73.0,97.0
167,177.64466362500002,177.793473,73.0,94.0
168,177.882758625,178.28355187500003,73.0,97.0
169,178.358948625,178.75577362500002,68.0,92.0
170,178.835138625,179.31132862500002,73.0,97.0
171,179.31132862500002,179.68236000000002,75.0,94.0
172,179.78751862500002,180.517676625,73.0,97.0
173,180.73989862500002,181.16846962500003,66.0,94.0
174,181.21608862500003,182.02362750000003,63.0,101.0
175,182.16846862500003,182.52362700000003,66.0,92.0
176,182.644658625,184.370847375,68.0,90.0
177,184.54941862500002,185.047434,68.0,96.0
178,185.02560862500002,185.402592375,75.0,95.0
179,185.50179862500002,185.89663950000002,75.0,94.0
180,185.97798862500002,186.33314700000003,73.0,101.0
181,186.45417862500003,188.09505000000001,75.0,97.0
182,188.358938625,188.72401762500002,70.0,91.0
183,188.835128625,189.07322362500003,70.0,94.0
184,189.07322362500003,189.311318625,70.0,94.0
185,189.311318625,189.78155625000002,68.0,93.0
186,189.78750862500002,190.30536525000002,66.0,91.0
187,190.26369862500002,191.80734787500003,68.0,94.0
188,192.16845862500003,192.62877562500003,68.0,96.0
189,192.64464862500003,192.97401337500003,73.0,95.0
190,193.12083862500003,193.52361600000003,73.0,104.0
191,193.597028625,194.00774250000003,71.0,95.0
192,194.073218625,194.47004362500002,73.0,97.0
193,194.549408625,194.95813837500003,71.0,95.0
194,195.02559862500001,195.81131212500003,68.0,94.0
195,195.97797862500002,196.394644875,71.0,93.0
196,196.45416862500002,196.870834875,68.0,94.0
197,196.93035862500003,197.30535825,71.0,96.0
198,197.40654862500003,197.75178637500002,73.0,95.0
199,197.88273862500003,199.58710200000002,75.0,92.0
200,199.787498625,200.1982125,75.0,97.0
201,200.26368862500001,201.07321162500003,80.0,97.0
202,201.21606862500002,201.56924287500001,75.0,101.0
203,201.69225862500002,203.37082837500003,73.0,97.0
204,203.59701862500003,203.98193887500003,75.0,95.0
205,204.07320862500003,204.44027175000002,78.0,97.0
206,204.549398625,204.91447762500002,73.0,97.0
207,205.025588625,205.4045565,75.0,92.0
208,205.50177862500001,206.644634625,71.0,92.0
209,207.40653862500002,207.98590312500002,73.0,97.0
210,208.120823625,208.26963300000003,73.0,94.0
211,208.35891862500003,208.75971187500002,73.0,97.0
212,208.83510862500003,209.231933625,68.0,92.0
213,209.31129862500003,209.787488625,73.0,97.0
214,209.787488625,210.15852,75.0,94.0
215,210.263678625,210.99383662500003,73.0,97.0
216,211.21605862500002,211.57518525000003,78.0,92.0
217,211.69224862500002,212.03153400000002,78.0,92.0
218,212.16843862500002,212.60693025000003,78.0,92.0
219,212.64462862500002,213.12280275000003,75.0,94.0
220,213.12081862500003,214.74581700000002,80.0,91.0
221,215.02557862500004,215.509705125,75.0,91.0
222,215.501768625,215.78946675000003,80.0,93.0
223,215.977958625,216.34899000000001,80.0,91.0
224,216.45414862500002,216.79541812500003,78.0,94.0
225,216.93033862500002,218.87478112500003,80.0,90.0
226,218.83509862500003,219.23787600000003,75.0,97.0
227,219.31128862500003,219.83112937500002,82.0,96.0
228,219.78747862500003,220.19422425000002,80.0,97.0
229,220.26366862500004,220.50176362500002,78.0,91.0
230,220.50176362500002,220.71208087500003,80.0,86.0
231,220.739858625,220.989858375,78.0,88.0
232,220.97795362500003,221.25771525000002,80.0,86.0
233,221.216048625,221.47200075000003,78.0,85.0
234,221.45414362500003,222.64461862500002,75.0,91.0
235,222.64461862500002,223.09501500000002,68.0,92.0
236,223.12080862500002,223.49580825,73.0,95.0
237,223.59699862500003,223.92636337500002,73.0,94.0
238,224.07318862500003,224.39263275000002,71.0,91.0
239,224.54937862500003,225.01366387500002,73.0,101.0
240,225.02556862500003,225.38072700000004,68.0,90.0
241,225.50175862500004,226.27755150000002,68.0,88.0
242,226.454138625,226.83905887500003,78.0,92.0
243,226.93032862500002,227.29540762500002,80.0,92.0
244,227.40651862500002,227.85096262500002,78.0,93.0
245,227.88270862500002,228.25374000000002,73.0,101.0
246,228.35889862500002,229.99580175000003,75.0,94.0
247,230.26365862500003,230.68627725000002,75.0,96.0
248,230.73984862500004,231.10889587500003,80.0,94.0
249,231.21603862500004,231.65453025000002,78.0,92.0
250,231.692228625,232.0711965,75.0,92.0
251,232.16841862500002,233.65254412500002,73.0,96.0
252,234.07317862500003,234.43825762500003,78.0,91.0
253,234.54936862500003,234.90849525000002,75.0,91.0
254,235.02555862500003,235.43428837500002,75.0,91.0
255,235.50174862500003,235.68627225000003,73.0,96.0
256,235.73984362500002,236.31722400000004,75.0,99.0
257,236.45412862500004,237.60690525,71.0,92.0
258,237.88269862500002,238.43825362500002,73.0,97.0
259,238.59698362500004,238.72396762500003,73.0,96.0
260,238.83507862500002,239.18031637500002,73.0,96.0
261,239.31126862500003,239.73388725000004,75.0,96.0
262,239.78745862500003,240.15055350000003,78.0,94.0
263,240.26364862500003,240.565235625,75.0,94.0
264,240.73983862500003,241.45412362500002,75.0,95.0
265,241.69221862500004,242.48388450000002,73.0,91.0
266,242.64459862500001,243.54539137500004,75.0,94.0
267,243.59697862500002,245.35888162500004,68.0,94.0
268,245.50173862500003,245.98586512500003,75.0,91.0
269,245.97792862500003,246.26562675000002,80.0,93.0
270,246.45411862500004,246.82515000000004,80.0,91.0
271,246.93030862500004,247.27157812500002,78.0,94.0
272,247.40649862500004,249.35094112500002,80.0,90.0
273,249.31125862500002,249.71403600000002,75.0,97.0
274,249.78744862500002,250.30728937500004,82.0,96.0
275,250.26363862500003,250.67038425000004,80.0,97.0
276,250.73982862500003,250.97792362500002,78.0,91.0
277,250.97792362500002,251.18824087500002,80.0,86.0
278,251.21601862500003,251.46601837500003,78.0,88.0
279,251.45411362500002,251.73387525000004,80.0,86.0
280,251.69220862500003,251.94816075000003,78.0,85.0
281,251.93030362500002,253.120778625,75.0,91.0
282,253.120778625,253.57117500000004,68.0,92.0
283,253.59696862500002,253.97196825000003,73.0,95.0
284,254.07315862500002,254.40252337500002,73.0,94.0
285,254.54934862500002,254.86879275000004,71.0,91.0
286,255.02553862500002,255.489823875,73.0,101.0
287,255.50172862500003,255.85688700000003,68.0,90.0
288,255.97791862500003,256.7537115,68.0,88.0
289,256.93029862500003,257.315218875,78.0,92.0
290,257.406488625,257.77156762500005,80.0,92.0
291,257.88267862500004,258.327122625,78.0,93.0
292,258.358868625,258.72990000000004,73.0,101.0
293,258.83505862500004,260.47196175000005,75.0,94.0
294,260.73981862500005,261.16243725000004,75.0,96.0
295,261.21600862500003,261.585055875,80.0,94.0
296,261.692198625,262.13069025000004,78.0,92.0
297,262.16838862500003,262.54735650000003,75.0,92.0
298,262.644578625,264.128704125,73.0,96.0
299,264.549338625,264.91441762500006,78.0,91.0
300,265.02552862500005,265.38465525000004,75.0,91.0
301,265.501718625,265.91044837500004,75.0,91.0
302,265.97790862500005,266.16243225000005,73.0,96.0
303,266.21600362500004,266.793384,75.0,99.0
304,266.930288625,268.08306525,71.0,92.0
305,268.35885862500004,268.914413625,73.0,97.0
306,269.07314362500006,269.20012762500005,73.0,96.0
307,269.31123862500004,269.656476375,73.0,96.0
308,269.787428625,270.21004725,75.0,96.0
309,270.26361862500005,270.62671350000005,78.0,94.0
310,270.739808625,271.041395625,75.0,94.0
311,271.21599862500005,271.930283625,75.0,95.0
312,272.168378625,272.96004450000004,73.0,91.0
313,273.120758625,274.021551375,75.0,94.0
314,274.073138625,275.83504162500003,68.0,94.0
315,275.977898625,276.53345362500005,73.0,97.0
316,276.69218362500004,276.81916762500003,73.0,96.0
317,276.930278625,277.27551637500005,73.0,96.0
318,277.406468625,277.82908725000004,75.0,96.0
319,277.88265862500003,278.24575350000003,78.0,94.0
320,278.358848625,278.66043562500005,75.0,94.0
321,278.83503862500004,279.54932362500006,75.0,95.0
322,279.78741862500004,280.5790845,73.0,91.0
323,280.8806715,283.63662112500003,75.0,92.0
324,283.6267005,287.27352225000004,68.0,91.0
