,start,end,pitch,velocity
0,1.6924586250000002,2.3055532500000004,56.0,79.0
1,1.6924586250000002,2.34523575,63.0,88.0
2,2.1686486250000003,2.7916638750000002,51.0,66.0
3,2.644838625,3.5674567500000003,56.0,82.0
4,3.5972186250000004,4.0872975,63.0,87.0
5,3.5972186250000004,4.156741875000001,59.0,82.0
6,3.121028625,4.763884125000001,51.0,64.0
7,4.549598625000001,4.936503,59.0,90.0
8,1.6924586250000002,5.055550500000001,44.0,88.0
9,4.549598625000001,5.077375875,63.0,91.0
10,5.025788625000001,5.3055502500000005,61.0,85.0
11,5.263883625000001,5.545629375000001,59.0,86.0
12,5.5019786250000005,6.218247750000001,58.0,83.0
13,5.978168625,6.700390125000001,46.0,71.0
14,6.454358625000001,6.986104125000001,54.0,84.0
15,6.930548625000001,7.6111035000000005,46.0,62.0
16,7.406738625000001,8.04364275,54.0,84.0
17,7.406738625000001,8.184515625000001,51.0,87.0
18,7.406738625000001,8.236102875,58.0,88.0
19,7.882928625000001,8.5634835,46.0,74.0
20,5.5019786250000005,8.597213625,39.0,91.0
21,8.359118625,8.601181875000002,51.0,91.0
22,8.359118625,8.613086625000001,54.0,92.0
23,8.359118625,8.617054875000001,58.0,87.0
24,9.311498625,9.593244375000001,56.0,85.0
25,9.787688625000001,10.331338875000002,56.0,81.0
26,9.311498625,10.376973750000001,61.0,90.0
27,10.263878625,10.7857035,64.0,85.0
28,10.740068625000001,11.079354,56.0,76.0
29,11.216258625000002,11.384909250000002,56.0,78.0
30,11.216258625000002,11.597210625,61.0,81.0
31,9.311498625,12.406733625000001,49.0,88.0
32,12.168638625000002,12.640860375,61.0,86.0
33,12.168638625000002,12.650781000000002,64.0,84.0
34,12.644828625,12.765860250000001,56.0,78.0
35,13.121018625000001,13.619034000000001,52.0,82.0
36,13.121018625000001,13.674589500000002,59.0,74.0
37,13.121018625000001,13.869033750000002,40.0,89.0
38,13.597208625000002,13.952367,47.0,77.0
39,14.073398625000001,14.557525125000002,58.0,86.0
40,14.073398625000001,14.565461625000001,54.0,85.0
41,14.549588625000002,14.726175750000001,49.0,81.0
42,14.073398625000001,14.759905875000001,42.0,90.0
43,15.025778625000001,15.765857250000002,58.0,85.0
44,15.978158625000003,16.240063125000002,51.0,90.0
45,15.501968625000002,16.40077725,46.0,84.0
46,15.025778625000001,16.440459750000002,39.0,91.0
47,15.978158625000003,16.482126375,63.0,91.0
48,16.454348625,16.732126125,61.0,90.0
49,16.692443625000003,16.9761735,59.0,91.0
50,16.930538625,17.82934725,56.0,82.0
51,17.406728625000003,18.130934250000003,51.0,82.0
52,17.882918625000002,18.36109275,59.0,88.0
53,17.882918625000002,18.533711625000002,63.0,93.0
54,16.930538625,18.654743250000003,44.0,91.0
55,18.835298625000004,19.53569475,61.0,86.0
56,19.311488625000003,19.950376875000003,52.0,87.0
57,18.835298625000004,19.964265750000003,49.0,90.0
58,19.787678625,19.984107,56.0,85.0
59,19.787678625,20.311487625,64.0,90.0
60,19.787678625,20.32140825,61.0,92.0
61,20.263868625,20.420614500000003,56.0,92.0
62,20.740058625000003,21.363073875,54.0,79.0
63,20.740058625000003,21.472200750000003,51.0,75.0
64,21.216248625000002,21.799581375000002,46.0,75.0
65,21.692438625,21.855136875000003,51.0,91.0
66,20.740058625000003,21.926565375000003,39.0,92.0
67,21.692438625,22.190454000000003,54.0,92.0
68,21.692438625,22.208311125,58.0,91.0
69,22.168628625000004,22.295612625000004,51.0,97.0
70,22.644818625000003,23.25791325,59.0,86.0
71,22.644818625000003,23.351167125000003,56.0,82.0
72,23.121008625,23.805531750000004,51.0,82.0
73,23.597198625,24.083309250000003,56.0,90.0
74,23.597198625,24.275769375000003,63.0,86.0
75,22.644818625000003,24.400769250000003,44.0,90.0
76,24.073388625000003,24.424578750000002,51.0,90.0
77,24.549578625000002,25.269816000000002,56.0,84.0
78,24.549578625000002,25.303546125000004,64.0,86.0
79,25.025768625,26.093227875000004,44.0,70.0
80,24.549578625000002,26.158704000000004,37.0,92.0
81,25.501958625000004,26.418624375000004,56.0,91.0
82,25.501958625000004,26.426560875000003,61.0,91.0
83,26.930528625000004,27.755924625000002,46.0,82.0
84,26.454338625000002,27.839257875,39.0,86.0
85,27.406718625000003,28.267828875000003,51.0,84.0
86,27.406718625000003,28.349178000000002,54.0,84.0
87,27.406718625000003,28.486082625,58.0,85.0
88,28.835288625000004,29.4682245,51.0,79.0
89,29.311478625000003,29.815446375000004,59.0,84.0
90,29.311478625000003,29.825367000000004,56.0,82.0
91,28.359098625,30.107112750000002,44.0,92.0
92,29.787668625000002,30.158700000000003,51.0,83.0
93,30.263858625000005,30.835286625000002,63.0,90.0
94,30.263858625000005,30.837270750000002,56.0,81.0
95,30.263858625000005,30.847191375000005,59.0,87.0
96,31.216238625000003,31.744015875000002,59.0,84.0
97,30.740048625000004,31.781714250000004,51.0,75.0
98,30.263858625000005,31.882904625000002,44.0,90.0
99,31.692428625000005,32.200364625000006,58.0,80.0
100,32.168618625,33.283696875000004,56.0,83.0
101,33.120998625000006,33.892823250000006,63.0,90.0
102,33.120998625000006,33.908696250000006,59.0,85.0
103,33.597188625,34.178537250000005,56.0,77.0
104,34.073378625000004,34.54361625000001,68.0,88.0
105,34.073378625000004,34.624965375,63.0,84.0
106,34.073378625000004,34.636870125,59.0,73.0
107,34.549568625000006,34.988060250000004,56.0,72.0
108,35.025758625,35.32932975000001,59.0,86.0
109,32.644808625,35.414647125,51.0,75.0
110,35.025758625,35.45829787500001,63.0,91.0
111,32.168618625,35.488059750000005,44.0,90.0
112,35.501948625000004,35.9285355,56.0,91.0
113,36.454328625,37.045597875000006,51.0,85.0
114,36.930518625000005,37.54361325000001,54.0,84.0
115,35.97813862500001,37.67059725000001,39.0,92.0
116,37.40670862500001,37.716232125000005,51.0,84.0
117,37.882898625,38.71226287500001,56.0,84.0
118,38.835278625,39.06742125,56.0,88.0
119,38.835278625,39.301548000000004,59.0,89.0
120,38.359088625000005,39.444405,51.0,85.0
121,37.882898625,39.543611250000005,44.0,88.0
122,39.787658625000006,40.49599125,64.0,88.0
123,40.263848625,40.837260750000006,56.0,86.0
124,40.740038625000004,41.240038125000005,61.0,92.0
125,39.787658625000006,41.317419,49.0,86.0
126,41.21622862500001,41.759878875000005,56.0,92.0
127,41.692418625,41.898767625000005,61.0,90.0
128,41.692418625,42.289640250000005,64.0,84.0
129,42.168608625000005,42.670592250000006,56.0,81.0
130,42.64479862500001,42.874957125,49.0,91.0
131,42.64479862500001,43.523766,61.0,91.0
132,43.597178625000005,44.158686,59.0,84.0
133,43.597178625000005,44.58924112500001,56.0,83.0
134,44.07336862500001,44.680510875,51.0,81.0
135,43.597178625000005,44.86305037500001,44.0,91.0
136,44.549558625,44.962256625,63.0,91.0
137,44.549558625,44.99797087500001,59.0,91.0
138,45.025748625000006,45.52574812500001,56.0,92.0
139,45.50193862500001,46.009874625,58.0,84.0
140,45.978128625000004,46.52773125,46.0,80.0
141,45.50193862500001,46.603128000000005,39.0,92.0
142,46.454318625000006,46.922572125,54.0,90.0
143,46.454318625000006,46.95034987500001,58.0,91.0
144,46.930508625,47.03566725,51.0,93.0
145,47.406698625000004,47.940428250000004,59.0,85.0
146,47.406698625000004,48.220189875,56.0,84.0
147,48.359078625,48.819395625000006,63.0,94.0
148,48.359078625,48.827332125000005,59.0,90.0
149,47.88288862500001,48.882887625,51.0,80.0
150,47.406698625000004,48.90669712500001,44.0,91.0
151,48.835268625000005,49.343204625000006,56.0,91.0
152,49.31145862500001,50.005902375000005,61.0,88.0
153,49.787648625,50.382886125000006,52.0,77.0
154,49.31145862500001,50.402727375000005,49.0,85.0
155,50.263838625000005,50.674552500000004,64.0,86.0
156,50.263838625000005,50.75986987500001,61.0,91.0
157,50.74002862500001,50.85510787500001,56.0,90.0
158,51.216218625,51.91463062500001,54.0,85.0
159,51.216218625,51.91661475000001,51.0,88.0
160,51.216218625,52.638836250000004,39.0,90.0
161,52.16859862500001,52.70034412500001,54.0,92.0
162,52.16859862500001,52.72415362500001,58.0,92.0
163,52.644788625000004,52.81740750000001,51.0,91.0
164,53.120978625000006,53.74399387500001,59.0,82.0
165,53.120978625000006,53.839231875,56.0,78.0
166,54.073358625000004,54.25788225000001,56.0,84.0
167,54.073358625000004,54.430501125000006,59.0,91.0
168,54.073358625000004,54.444390000000006,63.0,91.0
169,53.59716862500001,54.64875487500001,51.0,81.0
170,53.120978625000006,54.67454850000001,44.0,90.0
171,54.54954862500001,55.085262375000006,56.0,84.0
172,55.025738625,55.58526187500001,61.0,86.0
173,55.025738625,55.58923012500001,64.0,84.0
174,55.501928625000005,55.96621387500001,56.0,68.0
175,55.97811862500001,56.130896250000006,61.0,90.0
176,55.97811862500001,56.20827712500001,64.0,89.0
177,55.025738625,56.64875287500001,49.0,91.0
178,56.454308625,56.803514625000005,56.0,84.0
179,56.930498625000006,57.15470475000001,56.0,85.0
180,56.930498625000006,57.579307500000006,61.0,90.0
181,57.40668862500001,57.726132750000005,56.0,77.0
182,56.930498625000006,57.968196000000006,49.0,94.0
183,57.882878625000004,58.05748162500001,56.0,85.0
184,57.882878625000004,58.30748137500001,61.0,89.0
185,57.882878625000004,58.372957500000005,64.0,86.0
186,58.83525862500001,59.037639375000005,58.0,89.0
187,58.83525862500001,59.38486125000001,63.0,91.0
188,58.83525862500001,59.38684537500001,66.0,85.0
189,59.311448625000004,59.690416500000005,58.0,85.0
190,59.78763862500001,59.940416250000006,58.0,90.0
191,58.83525862500001,60.01779712500001,39.0,91.0
192,59.78763862500001,60.26581275000001,63.0,93.0
193,59.78763862500001,60.335257125000005,66.0,90.0
194,60.26382862500001,60.42652687500001,58.0,85.0
195,60.740018625000005,61.35112912500001,59.0,73.0
196,60.740018625000005,61.41660525,56.0,70.0
197,60.740018625000005,61.43843062500001,63.0,75.0
198,61.21620862500001,61.791604875000004,51.0,85.0
199,61.69239862500001,61.924541250000004,56.0,90.0
200,61.69239862500001,61.97216025000001,59.0,97.0
201,61.69239862500001,61.98604912500001,63.0,96.0
202,60.740018625000005,62.36700112500001,44.0,90.0
203,61.930493625000004,62.434461375000005,51.0,91.0
204,62.168588625000005,62.444382000000004,56.0,96.0
205,62.64477862500001,63.40271437500001,56.0,89.0
206,62.64477862500001,63.460254000000006,59.0,90.0
207,63.120968625,63.861047250000006,51.0,83.0
208,62.64477862500001,64.128904125,44.0,91.0
209,63.597158625000006,64.370967375,63.0,93.0
210,63.597158625000006,64.37691975000001,59.0,92.0
211,64.07334862500001,64.60112587500001,51.0,86.0
212,64.54953862500001,65.1189825,56.0,78.0
213,64.54953862500001,65.17850625000001,59.0,83.0
214,65.02572862500001,65.66064862500001,51.0,79.0
215,64.54953862500001,65.767791375,44.0,86.0
216,65.501918625,65.993981625,56.0,90.0
217,65.501918625,66.08525137500001,59.0,93.0
218,65.978108625,66.12493387500001,44.0,90.0
219,65.501918625,66.48009225000001,63.0,92.0
220,66.93048862500001,67.4681865,51.0,95.0
221,66.454298625,67.54358325000001,39.0,92.0
222,67.40667862500001,67.650726,54.0,90.0
223,67.40667862500001,67.9126305,46.0,82.0
224,67.40667862500001,67.9285035,58.0,87.0
225,67.882868625,68.00390025,51.0,91.0
226,68.359058625,68.94834375,59.0,80.0
227,68.359058625,69.09913725000001,56.0,73.0
228,69.31143862500001,69.55747012500001,56.0,89.0
229,68.835248625,69.61500975000001,51.0,83.0
230,69.31143862500001,69.82135875,59.0,95.0
231,69.31143862500001,69.825327,63.0,91.0
232,68.359058625,69.89675550000001,44.0,91.0
233,69.78762862500001,70.12294575000001,56.0,93.0
234,70.26381862500001,70.50191362500001,56.0,86.0
235,70.26381862500001,70.80350062500001,61.0,85.0
236,70.740008625,71.09119875,56.0,82.0
237,71.216198625,71.39278575,56.0,90.0
238,71.216198625,71.732071125,64.0,91.0
239,71.216198625,71.767785375,61.0,92.0
240,70.26381862500001,71.85310275,49.0,96.0
241,71.692388625,72.28167375000001,56.0,85.0
242,72.16857862500001,72.747943125,61.0,89.0
243,72.16857862500001,72.80945100000001,64.0,88.0
244,72.64476862500001,72.98802225000001,56.0,82.0
245,73.12095862500001,73.35310125000001,56.0,91.0
246,72.16857862500001,73.40865675,49.0,96.0
247,73.12095862500001,73.55945025000001,61.0,94.0
248,73.12095862500001,73.984053,64.0,91.0
249,73.597148625,74.04754500000001,49.0,91.0
250,74.073338625,74.60706825000001,59.0,86.0
251,74.073338625,74.609052375,56.0,85.0
252,74.54952862500001,75.22413112500001,51.0,83.0
253,75.02571862500001,75.3094485,56.0,91.0
254,74.073338625,75.347146875,44.0,92.0
255,75.02571862500001,75.38881350000001,59.0,99.0
256,75.02571862500001,75.52571812500001,63.0,96.0
257,75.50190862500001,75.716194125,44.0,91.0
258,75.978098625,76.36698712500001,58.0,89.0
259,75.978098625,76.38087600000001,54.0,84.0
260,76.692383625,76.85508187500001,51.0,88.0
261,76.454288625,77.009843625,46.0,79.0
262,76.930478625,77.03365312500001,51.0,88.0
263,75.978098625,77.40071625,39.0,97.0
264,77.16857362500001,77.41658925,46.0,92.0
265,76.930478625,77.46420825000001,58.0,95.0
266,77.40666862500001,77.69039850000001,51.0,92.0
267,77.64476362500001,77.86103325,54.0,83.0
268,78.35904862500001,78.62095312500001,56.0,84.0
269,78.12095362500001,79.02373050000001,51.0,84.0
270,77.88285862500001,79.16063512500001,44.0,94.0
271,78.835238625,79.36500000000001,59.0,92.0
272,78.835238625,79.40666662500001,63.0,95.0
273,78.835238625,79.412619,56.0,90.0
274,79.311428625,79.74396787500001,44.0,91.0
275,79.78761862500001,80.32134825000001,64.0,90.0
276,79.78761862500001,80.39277675000001,61.0,89.0
277,80.26380862500001,80.57730037500001,56.0,82.0
278,80.73999862500001,81.031665,61.0,92.0
279,80.73999862500001,81.08325225000002,56.0,90.0
280,80.73999862500001,81.124918875,64.0,92.0
281,79.78761862500001,81.27372825,49.0,91.0
282,81.21618862500002,81.50388675,61.0,92.0
283,81.454283625,81.70229925000001,59.0,92.0
284,81.692378625,82.14674325000001,58.0,87.0
285,82.168568625,82.74991725000001,46.0,80.0
286,82.64475862500001,83.10904387500001,51.0,94.0
287,81.692378625,83.21023425000001,39.0,92.0
288,82.64475862500001,83.24594850000001,54.0,107.0
289,83.12094862500001,83.43245625000002,46.0,92.0
290,83.35904362500001,83.53959900000001,51.0,94.0
291,83.59713862500001,84.22015387500001,56.0,86.0
292,84.073328625,84.60309000000001,51.0,84.0
293,84.549518625,84.85705800000001,59.0,88.0
294,84.549518625,84.88681987500001,63.0,93.0
295,85.02570862500001,85.315390875,61.0,91.0
296,83.59713862500001,85.35705750000001,44.0,89.0
297,84.787613625,85.41658125000001,51.0,84.0
298,85.26380362500001,85.4364225,59.0,82.0
299,85.50189862500001,86.00189812500001,61.0,91.0
300,85.97808862500001,86.50785,56.0,88.0
301,85.50189862500001,86.56538962500001,49.0,88.0
302,86.45427862500001,86.793564,64.0,90.0
303,86.45427862500001,86.98404000000001,61.0,90.0
304,86.930468625,87.49991250000001,56.0,92.0
305,87.406658625,87.87689625000002,64.0,84.0
306,87.406658625,88.15864200000001,61.0,85.0
307,87.88284862500001,88.180467375,56.0,79.0
308,87.406658625,88.62491137500001,37.0,91.0
309,88.35903862500001,88.91459362500001,56.0,90.0
310,88.35903862500001,89.10903787500001,61.0,91.0
311,88.83522862500001,89.19237112500001,37.0,95.0
312,89.31141862500002,89.6745135,58.0,86.0
313,89.31141862500002,90.01975125000001,63.0,92.0
314,89.787608625,90.45625875,46.0,77.0
315,89.31141862500002,90.48403650000002,39.0,92.0
316,90.263798625,90.48602062500001,58.0,91.0
317,90.263798625,90.72411562500001,66.0,89.0
318,90.263798625,90.76181400000002,63.0,95.0
319,90.73998862500001,90.86697262500002,58.0,95.0
320,91.21617862500001,91.49395612500001,56.0,86.0
321,91.21617862500001,91.50982912500001,59.0,90.0
322,91.21617862500001,91.52570212500001,63.0,94.0
323,91.69236862500001,91.82332087500001,56.0,93.0
324,91.93046362500002,92.05546350000002,58.0,96.0
325,92.168558625,92.34117750000001,56.0,92.0
326,92.168558625,92.38482825000001,59.0,101.0
327,92.406653625,92.555463,58.0,94.0
328,92.644748625,92.75585962500001,56.0,107.0
329,91.45427362500001,92.75982787500001,51.0,95.0
330,92.882843625,93.18244650000001,51.0,93.0
331,91.21617862500001,93.22808137500002,44.0,91.0
332,93.12093862500001,93.22808137500002,44.0,92.0
333,93.12093862500001,93.87490612500001,68.0,90.0
334,93.59712862500001,93.88681087500001,63.0,87.0
335,93.83522362500001,93.95625525000001,59.0,91.0
336,93.35903362500001,94.20228675000001,51.0,91.0
337,94.07331862500001,94.31935012500001,59.0,92.0
338,94.07331862500001,94.380858,63.0,96.0
339,94.07331862500001,94.41061987500001,68.0,91.0
340,94.54950862500002,94.857048,59.0,90.0
341,94.31141362500001,94.95625425000001,51.0,90.0
342,94.78760362500002,95.513793375,63.0,91.0
343,95.73998362500001,96.13085625000001,59.0,90.0
344,95.501888625,96.25188787500001,56.0,86.0
345,95.97807862500001,96.34911000000001,68.0,94.0
346,95.263793625,96.65664937500001,51.0,89.0
347,95.025698625,96.7062525,44.0,91.0
348,96.21617362500001,96.77768100000002,63.0,90.0
349,96.45426862500001,96.86101425000001,59.0,91.0
350,96.69236362500001,97.04950612500001,56.0,91.0
351,97.40664862500002,98.164584375,51.0,91.0
352,97.644743625,98.172520875,54.0,90.0
353,98.35902862500001,98.680456875,54.0,92.0
354,96.93045862500001,98.69434575000001,39.0,95.0
355,97.882838625,98.696329875,63.0,101.0
356,98.120933625,98.71021875000001,58.0,91.0
357,97.16855362500002,98.72212350000001,46.0,86.0
358,98.59712362500001,98.938393125,51.0,91.0
359,98.83521862500001,99.34513875,54.0,93.0
360,98.83521862500001,99.426487875,58.0,92.0
361,99.54950362500001,99.61497975000002,58.0,50.0
362,99.31140862500001,99.67648762500001,51.0,90.0
363,99.54950362500001,99.70228125000001,54.0,88.0
364,99.07331362500001,99.89672550000002,46.0,85.0
365,99.78759862500002,100.05347137500002,51.0,97.0
366,99.78759862500002,100.09315387500001,54.0,99.0
367,98.83521862500001,100.10505862500001,39.0,96.0
368,99.78759862500002,100.10902687500001,58.0,101.0
369,99.78759862500002,100.19434425000001,63.0,97.0
370,100.02569362500002,100.20228075000001,46.0,91.0
371,100.263788625,100.55148675000001,39.0,95.0
372,100.739978625,101.21220037500001,61.0,88.0
373,100.739978625,101.23997812500001,64.0,89.0
374,101.21616862500001,101.549501625,56.0,91.0
375,101.45426362500001,101.60108887500002,61.0,85.0
376,101.69235862500001,102.045532875,64.0,97.0
377,100.97807362500001,102.10108837500002,44.0,80.0
378,100.739978625,102.14077087500002,37.0,96.0
379,101.93045362500001,102.1983105,61.0,91.0
380,102.16854862500001,102.52569112500001,56.0,92.0
381,102.40664362500002,102.73204012500001,61.0,82.0
382,102.64473862500002,102.92846850000001,64.0,91.0
383,102.88283362500002,103.2141825,61.0,85.0
384,103.120928625,103.45029337500002,56.0,93.0
385,103.359023625,103.46616637500001,61.0,91.0
386,102.64473862500002,103.70227725000001,49.0,104.0
387,103.59711862500001,103.87291200000001,56.0,95.0
388,103.83521362500001,103.97013412500002,49.0,95.0
389,103.59711862500001,104.12291175000001,64.0,101.0
390,104.07330862500001,104.40862575000001,56.0,93.0
391,104.31140362500001,104.79553012500001,61.0,90.0
392,105.02568862500002,105.349101,54.0,91.0
393,105.26378362500002,105.39473587500001,58.0,90.0
394,104.78759362500001,105.61497375,49.0,85.0
395,105.50187862500002,105.80743387500002,54.0,90.0
396,105.50187862500002,105.966163875,58.0,92.0
397,105.50187862500002,106.27965562500002,61.0,92.0
398,105.978068625,106.36100475,54.0,90.0
399,105.739973625,106.364973,49.0,92.0
400,104.54949862500001,106.36695712500001,42.0,92.0
401,106.21616362500001,106.40862375000002,58.0,78.0
402,106.45425862500001,106.79552812500002,51.0,90.0
403,106.45425862500001,106.99989300000001,58.0,90.0
404,106.45425862500001,107.25187687500001,63.0,90.0
405,107.16854362500001,107.48401950000002,58.0,89.0
406,106.93044862500001,107.52767025000001,51.0,96.0
407,107.64473362500001,107.95822537500001,58.0,91.0
408,106.69235362500001,107.97608250000002,46.0,85.0
409,106.45425862500001,108.01179675000002,39.0,95.0
410,107.88282862500002,108.17846325000001,51.0,99.0
411,108.12092362500002,108.44235187500001,58.0,92.0
412,107.40663862500001,108.52568512500001,63.0,97.0
413,108.835208625,109.15862100000001,56.0,86.0
414,109.07330362500001,109.20624000000001,59.0,90.0
415,108.597113625,109.44036675000001,51.0,85.0
416,109.31139862500001,109.60703325000001,56.0,90.0
417,109.31139862500001,109.81338225000002,59.0,93.0
418,109.31139862500001,109.83322350000002,63.0,95.0
419,109.54949362500001,110.17846125000001,51.0,88.0
420,108.359018625,110.184413625,44.0,94.0
421,109.78758862500001,110.40068325000001,56.0,87.0
422,110.02568362500001,110.442349875,59.0,88.0
423,110.73996862500002,111.28560300000001,56.0,91.0
424,110.97806362500002,111.29155537500002,61.0,85.0
425,110.26377862500001,111.56933287500001,49.0,106.0
426,110.50187362500002,111.59711062500001,52.0,89.0
427,111.216158625,111.6109995,64.0,92.0
428,111.454253625,111.74592000000001,61.0,90.0
429,111.69234862500001,112.05941175000001,56.0,90.0
430,111.93044362500001,112.88480775000001,61.0,82.0
431,112.88282362500001,113.057426625,54.0,87.0
432,112.64472862500001,113.08917262500002,51.0,92.0
433,112.40663362500001,113.26972800000001,46.0,78.0
434,113.12091862500002,113.30544225000001,51.0,85.0
435,112.16853862500001,113.444331,39.0,95.0
436,113.35901362500002,113.50782300000002,46.0,91.0
437,113.12091862500002,113.63679112500002,54.0,92.0
438,113.12091862500002,113.87488612500002,58.0,92.0
439,113.59710862500002,113.92647337500001,51.0,94.0
440,113.835203625,114.16456837500002,54.0,88.0
441,114.073298625,114.37488562500002,56.0,90.0
442,114.54948862500001,114.86496450000001,56.0,90.0
443,114.78758362500001,114.90861525000001,59.0,82.0
444,114.31139362500001,115.13480550000001,51.0,91.0
445,115.02567862500001,115.30544025000002,56.0,93.0
446,115.02567862500001,115.35305925000002,59.0,95.0
447,115.02567862500001,115.38083700000001,63.0,99.0
448,115.50186862500001,115.85107462500001,56.0,91.0
449,115.73996362500002,115.85107462500001,58.0,73.0
450,115.26377362500001,115.88083650000002,51.0,92.0
451,114.073298625,115.898693625,44.0,91.0
452,115.73996362500002,115.93837612500002,59.0,76.0
453,115.97805862500002,116.49789937500002,61.0,90.0
454,116.45424862500002,116.79948637500001,56.0,86.0
455,116.692343625,116.98401000000001,61.0,84.0
456,116.21615362500002,117.16456537500001,52.0,90.0
457,115.97805862500002,117.17250187500001,49.0,101.0
458,116.93043862500001,117.220120875,64.0,93.0
459,117.16853362500001,117.46218412500001,61.0,91.0
460,117.40662862500001,117.739961625,56.0,90.0
461,117.64472362500001,117.87488212500001,61.0,86.0
462,117.88281862500001,118.22408812500001,63.0,89.0
463,118.35900862500002,118.67448450000002,58.0,89.0
464,118.59710362500002,118.74988125000002,63.0,86.0
465,118.83519862500002,119.12884912500002,58.0,96.0
466,118.83519862500002,119.20027762500001,66.0,90.0
467,118.12091362500001,119.22011887500001,46.0,84.0
468,117.88281862500001,119.29749975000001,39.0,90.0
469,119.07329362500002,119.35305525000001,63.0,91.0
470,119.311388625,119.4522615,58.0,92.0
471,119.77368975000002,120.08718150000001,73.0,91.0
472,119.69035650000001,120.10702275000001,64.0,83.0
473,119.74194375000002,120.10702275000001,68.0,74.0
474,119.64075337500002,120.14868937500002,61.0,77.0
475,119.72607075000002,120.16257825000001,37.0,93.0
476,120.64075237500002,120.87289500000001,63.0,80.0
477,120.69829200000001,121.00979962500001,66.0,77.0
478,120.70424437500002,121.04551387500001,39.0,91.0
479,120.74194275,121.04551387500001,70.0,78.0
480,120.79353000000002,121.07329162500001,75.0,75.0
481,121.55543400000002,121.89471937500001,56.0,71.0
482,121.61495775000002,122.09908425000002,59.0,78.0
483,121.672497375,122.188369875,63.0,89.0
484,122.12090962500001,122.438369625,56.0,87.0
485,121.88479875000002,122.69035350000001,51.0,88.0
486,122.61297262500001,122.89471837500001,56.0,90.0
487,122.62289325000002,122.93638500000002,59.0,96.0
488,122.61694087500001,123.02567062500002,63.0,94.0
489,123.07328962500002,123.45424162500001,56.0,91.0
490,123.30146400000001,123.46416225000002,59.0,86.0
491,122.84313112500001,123.50582887500002,51.0,95.0
492,121.660592625,123.51574950000001,44.0,91.0
493,124.07328862500002,124.79154187500001,51.0,85.0
494,124.54947862500002,124.98201787500001,56.0,78.0
495,124.54947862500002,124.99193850000002,63.0,91.0
496,124.54947862500002,124.99392262500001,59.0,90.0
497,125.02566862500001,125.74193775000002,51.0,74.0
498,125.50185862500001,125.93836612500002,59.0,86.0
499,125.50185862500001,125.94828675000001,63.0,90.0
500,126.45423862500002,126.77963512500001,68.0,89.0
501,125.97804862500001,126.86892075000002,51.0,68.0
502,126.69233362500002,126.97011112500002,63.0,92.0
503,123.59709862500002,127.0236825,44.0,92.0
504,126.93042862500002,127.27765050000001,59.0,91.0
505,127.16852362500002,127.57923750000002,56.0,75.0
506,127.88280862500001,128.295506625,51.0,91.0
507,128.35899862500003,128.605030125,51.0,84.0
508,128.35899862500003,128.64868087500003,54.0,79.0
509,128.35899862500003,128.668522125,58.0,86.0
510,129.311378625,129.85502887500002,58.0,82.0
511,129.311378625,129.97606050000002,54.0,82.0
512,130.263758625,130.51971075,51.0,67.0
513,129.787568625,130.890742125,46.0,63.0
514,127.40661862500001,130.922488125,39.0,92.0
515,130.739948625,131.206218,54.0,90.0
516,130.50185362500002,131.2141545,58.0,91.0
517,130.97804362500003,131.24193225000002,51.0,80.0
518,130.263758625,131.51970975,63.0,94.0
519,131.69232862500002,132.28359787500003,56.0,79.0
520,132.16851862500002,132.616930875,61.0,87.0
521,132.16851862500002,132.66058162500002,64.0,88.0
522,133.12089862500002,133.49193000000002,56.0,90.0
523,133.12089862500002,133.728040875,61.0,91.0
524,133.59708862500003,134.009786625,56.0,90.0
525,134.073278625,134.14470712500002,56.0,75.0
526,131.216138625,134.253834,37.0,93.0
527,134.073278625,134.517722625,61.0,90.0
528,134.073278625,134.57526225,64.0,89.0
529,134.549468625,134.64470662500003,56.0,67.0
530,135.025658625,135.81930862500002,58.0,83.0
531,135.025658625,135.87684825000002,54.0,85.0
532,135.73994362500002,136.04351475,61.0,84.0
533,135.501848625,136.44827625000002,49.0,85.0
534,135.978038625,136.46613337500003,66.0,92.0
535,135.025658625,136.5078,42.0,90.0
536,136.21613362500003,136.5316095,61.0,90.0
537,136.454228625,136.64668875,58.0,91.0
538,136.93041862500002,137.612957625,54.0,90.0
539,136.93041862500002,137.67248137500002,51.0,91.0
540,137.88279862500002,138.14271900000003,58.0,93.0
541,137.88279862500002,138.14668725,51.0,92.0
542,137.40660862500002,138.18041737500002,46.0,77.0
543,136.93041862500002,138.275655375,39.0,93.0
544,138.120893625,138.38478225,54.0,91.0
545,138.35898862500002,138.52763925000002,51.0,95.0
546,138.83517862500003,139.44033675000003,59.0,91.0
547,138.83517862500003,139.708193625,56.0,90.0
548,139.787558625,140.577240375,59.0,93.0
549,138.83517862500003,140.59708162500002,44.0,91.0
550,139.787558625,140.61493875000002,63.0,92.0
551,140.263748625,140.63081175000002,56.0,75.0
552,139.31136862500003,140.65660537500003,51.0,81.0
553,140.739938625,141.30541425,59.0,85.0
554,140.739938625,141.33120787500002,63.0,90.0
555,141.692318625,142.19430225000002,59.0,92.0
556,141.692318625,142.24390537500003,68.0,90.0
557,141.692318625,142.34112750000003,63.0,92.0
558,141.216128625,142.414540125,51.0,78.0
559,140.739938625,142.46811150000002,44.0,90.0
560,142.16850862500002,142.53557175,56.0,83.0
561,142.64469862500002,143.22406312500001,66.0,86.0
562,142.64469862500002,143.24192025000002,63.0,90.0
563,142.64469862500002,143.263745625,58.0,83.0
564,143.59707862500002,144.19430025000003,63.0,95.0
565,143.59707862500002,144.196284375,58.0,92.0
566,143.59707862500002,144.335173125,66.0,91.0
567,143.12088862500002,144.37683975000002,46.0,73.0
568,142.64469862500002,144.39469687500002,39.0,92.0
569,144.54945862500003,145.11890250000002,58.0,84.0
570,144.54945862500003,145.12287075,66.0,86.0
571,144.54945862500003,145.12683900000002,63.0,90.0
572,145.025648625,145.793505,46.0,76.0
573,145.501838625,145.79548912500002,70.0,96.0
574,144.54945862500003,145.866917625,39.0,91.0
575,145.73993362500002,146.00382225,68.0,94.0
576,145.978028625,146.243901375,66.0,94.0
577,146.21612362500002,146.51175825,63.0,91.0
578,146.454218625,147.180408375,61.0,90.0
579,147.40659862500002,147.67842375,61.0,90.0
580,147.40659862500002,147.68636025,64.0,93.0
581,147.40659862500002,147.73001100000002,68.0,94.0
582,146.454218625,148.17048675,49.0,92.0
583,146.930408625,148.25382000000002,56.0,80.0
584,148.35897862500002,149.08516837500002,66.0,86.0
585,148.35897862500002,149.089136625,63.0,88.0
586,148.35897862500002,149.10699375000002,70.0,90.0
587,149.31135862500003,149.54350125000002,63.0,93.0
588,148.83516862500002,149.78754862500003,46.0,83.0
589,148.35897862500002,149.84905650000002,39.0,93.0
590,149.31135862500003,150.112945125,70.0,97.0
591,149.31135862500003,150.13080225000002,66.0,97.0
592,149.78754862500003,150.25977037500002,63.0,85.0
593,150.263738625,151.031595,63.0,86.0
594,150.263738625,151.06929337500003,68.0,89.0
595,151.216118625,151.311356625,68.0,94.0
596,151.216118625,151.33119787500002,63.0,92.0
597,150.739928625,151.79746725,51.0,90.0
598,150.263738625,151.95619725,44.0,90.0
599,151.692308625,151.958181375,56.0,83.0
600,152.168498625,152.58913312500002,59.0,90.0
601,152.168498625,152.676434625,56.0,84.0
602,152.168498625,152.69826,63.0,91.0
603,153.12087862500002,153.43040212500003,59.0,91.0
604,153.12087862500002,153.50381475,56.0,90.0
605,153.59706862500002,154.02762375,58.0,84.0
606,152.64468862500001,154.13873475000003,51.0,81.0
607,152.168498625,154.14667125000003,44.0,91.0
608,154.07325862500002,154.14667125000003,44.0,90.0
609,154.07325862500002,155.188336875,56.0,83.0
610,155.02563862500003,155.79746325000002,63.0,90.0
611,155.02563862500003,155.81333625000002,59.0,85.0
612,155.50182862500003,156.08317725,56.0,77.0
613,155.978018625,156.44825625000001,68.0,88.0
614,155.978018625,156.52960537500002,63.0,84.0
615,155.978018625,156.54151012500003,59.0,73.0
616,156.454208625,156.89270025000002,56.0,72.0
617,156.930398625,157.23396975000003,59.0,86.0
618,154.54944862500003,157.31928712500002,51.0,75.0
619,156.930398625,157.36293787500003,63.0,91.0
620,157.406588625,157.8331755,56.0,91.0
621,158.35896862500002,158.95023787500003,51.0,85.0
622,158.83515862500002,159.44825325000002,54.0,84.0
623,157.88277862500001,159.57523725000001,39.0,92.0
624,159.31134862500002,159.620872125,51.0,84.0
625,159.78753862500002,160.61690287500002,56.0,84.0
626,160.73991862500003,160.97206125000002,56.0,88.0
627,160.73991862500003,161.20618800000003,59.0,89.0
628,160.26372862500003,161.34904500000002,51.0,85.0
629,159.78753862500002,161.44825125000003,44.0,88.0
630,161.692298625,162.40063125,64.0,88.0
631,162.168488625,162.74190075,56.0,86.0
632,162.644678625,163.144678125,61.0,92.0
633,161.692298625,163.22205900000003,49.0,86.0
634,163.120868625,163.66451887500003,56.0,92.0
635,163.59705862500002,163.803407625,61.0,90.0
636,163.59705862500002,164.19428025000002,64.0,84.0
637,164.07324862500002,164.57523225000003,56.0,81.0
638,164.54943862500002,164.779597125,49.0,91.0
639,164.54943862500002,165.42840600000002,61.0,91.0
640,165.50181862500003,166.06332600000002,59.0,84.0
641,165.50181862500003,166.49388112500003,56.0,83.0
642,165.97800862500003,166.585150875,51.0,81.0
643,165.50181862500003,166.76769037500003,44.0,91.0
644,166.454198625,166.866896625,63.0,91.0
645,166.454198625,166.90261087500002,59.0,91.0
646,166.930388625,167.430388125,56.0,92.0
647,167.406578625,167.914514625,58.0,84.0
648,167.882768625,168.43237125000002,46.0,80.0
649,167.406578625,168.50776800000003,39.0,92.0
650,168.358958625,168.82721212500002,54.0,90.0
651,168.358958625,168.85498987500003,58.0,91.0
652,168.83514862500002,168.94030725000002,51.0,93.0
653,169.31133862500002,169.84506825000003,59.0,85.0
654,169.31133862500002,170.12482987500002,56.0,84.0
655,170.26371862500002,170.72403562500003,63.0,94.0
656,170.26371862500002,170.73197212500003,59.0,90.0
657,169.78752862500002,170.78752762500002,51.0,80.0
658,169.31133862500002,170.81133712500002,44.0,91.0
659,170.73990862500003,171.24784462500003,56.0,91.0
660,171.21609862500003,171.910542375,61.0,88.0
661,171.69228862500003,172.28752612500003,52.0,77.0
662,171.21609862500003,172.307367375,49.0,85.0
663,172.168478625,172.5791925,64.0,86.0
664,172.168478625,172.66450987500002,61.0,91.0
665,172.644668625,172.75974787500002,56.0,90.0
666,173.120858625,173.81927062500003,54.0,85.0
667,173.120858625,173.82125475,51.0,88.0
668,173.120858625,174.54347625000003,39.0,90.0
669,174.07323862500002,174.60498412500002,54.0,92.0
670,174.07323862500002,174.62879362500001,58.0,92.0
671,174.54942862500002,174.72204750000003,51.0,91.0
672,175.02561862500002,175.64863387500003,59.0,82.0
673,175.02561862500002,175.74387187500002,56.0,78.0
674,175.97799862500003,176.16252225000002,56.0,84.0
675,175.97799862500003,176.335141125,59.0,91.0
676,175.97799862500003,176.34903000000003,63.0,91.0
677,175.50180862500002,176.553394875,51.0,81.0
678,175.02561862500002,176.57918850000001,44.0,90.0
679,176.45418862500003,176.989902375,56.0,84.0
680,176.93037862500003,177.48990187500002,61.0,86.0
681,176.93037862500003,177.49387012500003,64.0,84.0
682,177.406568625,177.87085387500002,56.0,68.0
683,177.882758625,178.03553625,61.0,90.0
684,177.882758625,178.11291712500002,64.0,89.0
685,176.93037862500003,178.55339287500001,49.0,91.0
686,178.358948625,178.70815462500002,56.0,84.0
687,178.835138625,179.05934475,56.0,85.0
688,178.835138625,179.48394750000003,61.0,90.0
689,179.31132862500002,179.63077275,56.0,77.0
690,178.835138625,179.872836,49.0,94.0
691,179.78751862500002,179.962121625,56.0,85.0
692,179.78751862500002,180.212121375,61.0,89.0
693,179.78751862500002,180.2775975,64.0,86.0
694,180.73989862500002,180.94227937500003,58.0,89.0
695,180.73989862500002,181.28950125000003,63.0,91.0
696,180.73989862500002,181.291485375,66.0,85.0
697,181.21608862500003,181.59505650000003,58.0,85.0
698,181.69227862500003,181.84505625000003,58.0,90.0
699,180.73989862500002,181.92243712500002,39.0,91.0
700,181.69227862500003,182.17045275,63.0,93.0
701,181.69227862500003,182.23989712500003,66.0,90.0
702,182.16846862500003,182.331166875,58.0,85.0
703,182.644658625,183.25576912500003,59.0,73.0
704,182.644658625,183.32124525000003,56.0,70.0
705,182.644658625,183.34307062500002,63.0,75.0
706,183.120848625,183.69624487500002,51.0,85.0
707,183.597038625,183.82918125000003,56.0,90.0
708,183.597038625,183.87680025000003,59.0,97.0
709,183.597038625,183.89068912500002,63.0,96.0
710,182.644658625,184.27164112500003,44.0,90.0
711,183.83513362500003,184.339101375,51.0,91.0
712,184.073228625,184.34902200000002,56.0,96.0
713,184.54941862500002,185.30735437500002,56.0,89.0
714,184.54941862500002,185.36489400000002,59.0,90.0
715,185.02560862500002,185.76568725,51.0,83.0
716,184.54941862500002,186.03354412500002,44.0,91.0
717,185.50179862500002,186.27560737500002,63.0,93.0
718,185.50179862500002,186.28155975,59.0,92.0
719,185.97798862500002,186.505765875,51.0,86.0
720,186.45417862500003,187.02362250000002,56.0,78.0
721,186.45417862500003,187.08314625000003,59.0,83.0
722,186.93036862500003,187.56528862500002,51.0,79.0
723,186.45417862500003,187.67243137500003,44.0,86.0
724,187.40655862500003,187.89862162500003,56.0,90.0
725,187.40655862500003,187.989891375,59.0,93.0
726,187.88274862500003,188.029573875,44.0,90.0
727,187.40655862500003,188.38473225,63.0,92.0
728,188.835128625,189.37282650000003,51.0,95.0
729,188.358938625,189.44822325,39.0,92.0
730,189.311318625,189.55536600000002,54.0,90.0
731,189.311318625,189.8172705,46.0,82.0
732,189.311318625,189.83314350000003,58.0,87.0
733,189.78750862500002,189.90854025000002,51.0,91.0
734,190.26369862500002,190.85298375000002,59.0,80.0
735,190.26369862500002,191.00377725,56.0,73.0
736,191.21607862500002,191.462110125,56.0,89.0
737,190.73988862500002,191.51964975,51.0,83.0
738,191.21607862500002,191.72599875000003,59.0,95.0
739,191.21607862500002,191.72996700000002,63.0,91.0
740,190.26369862500002,191.8013955,44.0,91.0
741,191.69226862500003,192.02758575000001,56.0,93.0
742,192.16845862500003,192.40655362500002,56.0,86.0
743,192.16845862500003,192.70814062500003,61.0,85.0
744,192.64464862500003,192.99583875000002,56.0,82.0
745,193.12083862500003,193.29742575000003,56.0,90.0
746,193.12083862500003,193.63671112500003,64.0,91.0
747,193.12083862500003,193.67242537500002,61.0,92.0
748,192.16845862500003,193.75774275000003,49.0,96.0
749,193.597028625,194.18631375,56.0,85.0
750,194.073218625,194.652583125,61.0,89.0
751,194.073218625,194.71409100000002,64.0,88.0
752,194.549408625,194.89266225000003,56.0,82.0
753,195.02559862500001,195.25774125,56.0,91.0
754,194.073218625,195.31329675000003,49.0,96.0
755,195.02559862500001,195.46409025000003,61.0,94.0
756,195.02559862500001,195.88869300000002,64.0,91.0
757,195.50178862500002,195.95218500000001,49.0,91.0
758,195.97797862500002,196.51170825000003,59.0,86.0
759,195.97797862500002,196.51369237500003,56.0,85.0
760,196.45416862500002,197.12877112500001,51.0,83.0
761,196.93035862500003,197.21408850000003,56.0,91.0
762,195.97797862500002,197.25178687500002,44.0,92.0
763,196.93035862500003,197.29345350000003,59.0,99.0
764,196.93035862500003,197.43035812500003,63.0,96.0
765,197.40654862500003,197.62083412500002,44.0,91.0
766,197.88273862500003,198.271627125,58.0,89.0
767,197.88273862500003,198.28551600000003,54.0,84.0
768,198.59702362500002,198.75972187500003,51.0,88.0
769,198.35892862500003,198.91448362500003,46.0,79.0
770,198.83511862500004,198.93829312500003,51.0,88.0
771,197.88273862500003,199.30535625000002,39.0,97.0
772,199.07321362500002,199.32122925000002,46.0,92.0
773,198.83511862500004,199.36884825,58.0,95.0
774,199.311308625,199.59503850000002,51.0,92.0
775,199.54940362500002,199.76567325000002,54.0,83.0
776,200.26368862500001,200.52559312500003,56.0,84.0
777,200.02559362500003,200.92837050000003,51.0,84.0
778,199.787498625,201.06527512500003,44.0,94.0
779,200.73987862500002,201.26964,59.0,92.0
780,200.73987862500002,201.31130662500001,63.0,95.0
781,200.73987862500002,201.31725900000004,56.0,90.0
782,201.21606862500002,201.648607875,44.0,91.0
783,201.69225862500002,202.22598825000003,64.0,90.0
784,201.69225862500002,202.29741675000002,61.0,89.0
785,202.16844862500002,202.48194037500002,56.0,82.0
786,202.64463862500003,202.93630500000003,61.0,92.0
787,202.64463862500003,202.98789225000002,56.0,90.0
788,202.64463862500003,203.02955887500002,64.0,92.0
789,201.69225862500002,203.17836825000003,49.0,91.0
790,203.12082862500003,203.40852675000002,61.0,92.0
791,203.35892362500002,203.60693925,59.0,92.0
792,203.59701862500003,204.05138325000001,58.0,87.0
793,204.07320862500003,204.65455725,46.0,80.0
794,204.549398625,205.01368387500003,51.0,94.0
795,203.59701862500003,205.11487425,39.0,92.0
796,204.549398625,205.15058850000003,54.0,107.0
797,205.025588625,205.33709625000003,46.0,92.0
798,205.26368362500003,205.444239,51.0,94.0
799,205.50177862500001,206.12479387500002,56.0,86.0
800,205.97796862500002,206.50773,51.0,84.0
801,206.45415862500002,206.76169800000002,59.0,88.0
802,206.45415862500002,206.79145987500002,63.0,93.0
803,206.93034862500002,207.22003087500002,61.0,91.0
804,205.50177862500001,207.26169750000003,44.0,89.0
805,206.69225362500003,207.32122125000004,51.0,84.0
806,207.168443625,207.34106250000002,59.0,82.0
807,207.40653862500002,207.90653812500003,61.0,91.0
808,207.88272862500003,208.41249000000002,56.0,88.0
809,207.40653862500002,208.47002962500002,49.0,88.0
810,208.35891862500003,208.69820400000003,64.0,90.0
811,208.35891862500003,208.88868000000002,61.0,90.0
812,208.83510862500003,209.40455250000002,56.0,92.0
813,209.31129862500003,209.78153625000002,64.0,84.0
814,209.31129862500003,210.06328200000002,61.0,85.0
815,209.787488625,210.08510737500004,56.0,79.0
816,209.31129862500003,210.529551375,37.0,91.0
817,210.263678625,210.819233625,56.0,90.0
818,210.263678625,211.013677875,61.0,91.0
819,210.739868625,211.09701112500002,37.0,95.0
820,211.21605862500002,211.57915350000002,58.0,86.0
821,211.21605862500002,211.92439125,63.0,92.0
822,211.69224862500002,212.36089875000002,46.0,77.0
823,211.21605862500002,212.38867650000003,39.0,92.0
824,212.16843862500002,212.390660625,58.0,91.0
825,212.16843862500002,212.62875562500003,66.0,89.0
826,212.16843862500002,212.66645400000002,63.0,95.0
827,212.64462862500002,212.77161262500002,58.0,95.0
828,213.12081862500003,213.398596125,56.0,86.0
829,213.12081862500003,213.414469125,59.0,90.0
830,213.12081862500003,213.430342125,63.0,94.0
831,213.59700862500003,213.72796087500004,56.0,93.0
832,213.83510362500002,213.96010350000003,58.0,96.0
833,214.07319862500003,214.24581750000002,56.0,92.0
834,214.07319862500003,214.28946825000003,59.0,101.0
835,214.31129362500002,214.46010300000003,58.0,94.0
836,214.54938862500003,214.66049962500003,56.0,107.0
837,213.358913625,214.664467875,51.0,95.0
838,214.78748362500002,215.08708650000003,51.0,93.0
839,213.12081862500003,215.13272137500002,44.0,91.0
840,215.02557862500004,215.13272137500002,44.0,92.0
841,215.02557862500004,215.77954612500002,68.0,90.0
842,215.501768625,215.791450875,63.0,87.0
843,215.73986362500003,215.86089525000003,59.0,91.0
844,215.26367362500002,216.10692675,51.0,91.0
845,215.977958625,216.22399012500003,59.0,92.0
846,215.977958625,216.28549800000002,63.0,96.0
847,215.977958625,216.315259875,68.0,91.0
848,216.45414862500002,216.76168800000002,59.0,90.0
849,216.21605362500003,216.86089425000003,51.0,90.0
850,216.69224362500003,217.41843337500003,63.0,91.0
851,217.64462362500004,218.03549625000002,59.0,90.0
852,217.40652862500002,218.15652787500002,56.0,86.0
853,217.88271862500002,218.25375000000003,68.0,94.0
854,217.16843362500003,218.56128937500003,51.0,89.0
855,216.93033862500002,218.61089250000003,44.0,91.0
856,218.120813625,218.68232100000003,63.0,90.0
857,218.35890862500003,218.76565425,59.0,91.0
858,218.597003625,218.95414612500002,56.0,91.0
859,219.31128862500003,220.06922437500003,51.0,91.0
860,219.54938362500002,220.07716087500003,54.0,90.0
861,220.26366862500004,220.58509687500003,54.0,92.0
862,218.83509862500003,220.59898575000003,39.0,95.0
863,219.78747862500003,220.60096987500003,63.0,101.0
864,220.02557362500002,220.61485875000002,58.0,91.0
865,219.07319362500002,220.6267635,46.0,86.0
866,220.50176362500002,220.84303312500003,51.0,91.0
867,220.739858625,221.24977875000002,54.0,93.0
868,220.739858625,221.33112787500002,58.0,92.0
869,221.45414362500003,221.51961975000003,58.0,50.0
870,221.216048625,221.58112762500002,51.0,90.0
871,221.45414362500003,221.60692125000003,54.0,88.0
872,220.97795362500003,221.80136550000003,46.0,85.0
873,221.69223862500002,221.95811137500002,51.0,97.0
874,221.69223862500002,221.997793875,54.0,99.0
875,220.739858625,222.00969862500003,39.0,96.0
876,221.69223862500002,222.013666875,58.0,101.0
877,221.69223862500002,222.09898425000003,63.0,97.0
878,221.93033362500003,222.10692075000003,46.0,91.0
879,222.16842862500002,222.45612675,39.0,95.0
880,222.64461862500002,223.11684037500004,61.0,88.0
881,222.64461862500002,223.14461812500002,64.0,89.0
882,223.12080862500002,223.45414162500003,56.0,91.0
883,223.358903625,223.50572887500002,61.0,85.0
884,223.59699862500003,223.95017287500002,64.0,97.0
885,222.88271362500004,224.00572837500002,44.0,80.0
886,222.64461862500002,224.04541087500002,37.0,96.0
887,223.835093625,224.10295050000002,61.0,91.0
888,224.07318862500003,224.43033112500004,56.0,92.0
889,224.31128362500002,224.63668012500003,61.0,82.0
890,224.54937862500003,224.83310850000004,64.0,91.0
891,224.78747362500002,225.11882250000002,61.0,85.0
892,225.02556862500003,225.35493337500003,56.0,93.0
893,225.26366362500002,225.37080637500003,61.0,91.0
894,224.54937862500003,225.60691725000004,49.0,104.0
895,225.50175862500004,225.77755200000001,56.0,95.0
896,225.73985362500002,225.87477412500002,49.0,95.0
897,225.50175862500004,226.02755175000001,64.0,101.0
898,225.977948625,226.31326575000003,56.0,93.0
899,226.21604362500003,226.70017012500003,61.0,90.0
900,226.93032862500002,227.25374100000002,54.0,91.0
901,227.16842362500003,227.29937587500004,58.0,90.0
902,226.69223362500003,227.51961375000002,49.0,85.0
903,227.40651862500002,227.71207387500002,54.0,90.0
904,227.40651862500002,227.87080387500004,58.0,92.0
905,227.40651862500002,228.18429562500003,61.0,92.0
906,227.88270862500002,228.26564475000004,54.0,90.0
907,227.64461362500003,228.26961300000002,49.0,92.0
908,226.454138625,228.27159712500003,42.0,92.0
909,228.12080362500004,228.31326375000003,58.0,78.0
910,228.35889862500002,228.70016812500003,51.0,90.0
911,228.35889862500002,228.90453300000001,58.0,90.0
912,228.35889862500002,229.15651687500002,63.0,90.0
913,229.073183625,229.38865950000002,58.0,89.0
914,228.83508862500003,229.43231025000003,51.0,96.0
915,229.54937362500002,229.862865375,58.0,91.0
916,228.596993625,229.88072250000002,46.0,85.0
917,228.35889862500002,229.91643675000003,39.0,95.0
918,229.78746862500003,230.08310325000002,51.0,99.0
919,230.02556362500002,230.34699187500001,58.0,92.0
920,229.31127862500003,230.43032512500002,63.0,97.0
921,230.73984862500004,231.063261,56.0,86.0
922,230.97794362500002,231.11088000000004,59.0,90.0
923,230.50175362500002,231.34500675000004,51.0,85.0
924,231.21603862500004,231.51167325000003,56.0,90.0
925,231.21603862500004,231.71802225000002,59.0,93.0
926,231.21603862500004,231.73786350000003,63.0,95.0
927,231.45413362500003,232.08310125000003,51.0,88.0
928,230.26365862500003,232.08905362500002,44.0,94.0
929,231.692228625,232.30532325000001,56.0,87.0
930,231.93032362500003,232.34698987500002,59.0,88.0
931,232.64460862500002,233.19024300000004,56.0,91.0
932,232.88270362500003,233.19619537500003,61.0,85.0
933,232.16841862500002,233.47397287500002,49.0,106.0
934,232.40651362500003,233.50175062500003,52.0,89.0
935,233.12079862500002,233.51563950000002,64.0,92.0
936,233.35889362500004,233.65056,61.0,90.0
937,233.59698862500002,233.96405175000004,56.0,90.0
938,233.83508362500004,234.78944775000002,61.0,82.0
939,234.78746362500002,234.96206662500003,54.0,87.0
940,234.54936862500003,234.99381262500003,51.0,92.0
941,234.311273625,235.17436800000002,46.0,78.0
942,235.02555862500003,235.21008225000003,51.0,85.0
943,234.07317862500003,235.34897100000003,39.0,95.0
944,235.26365362500002,235.41246300000003,46.0,91.0
945,235.02555862500003,235.54143112500003,54.0,92.0
946,235.02555862500003,235.77952612500002,58.0,92.0
947,235.50174862500003,235.83111337500003,51.0,94.0
948,235.73984362500002,236.06920837500002,54.0,88.0
949,235.97793862500004,236.27952562500002,56.0,90.0
950,236.45412862500004,236.7696045,56.0,90.0
951,236.69222362500003,236.81325525000003,59.0,82.0
952,236.21603362500002,237.03944550000003,51.0,91.0
953,236.930318625,237.21008025000003,56.0,93.0
954,236.930318625,237.25769925000003,59.0,95.0
955,236.930318625,237.28547700000001,63.0,99.0
956,237.40650862500001,237.75571462500002,56.0,91.0
957,237.64460362500003,237.75571462500002,58.0,73.0
958,237.16841362500003,237.78547650000002,51.0,92.0
959,235.97793862500004,237.80333362500002,44.0,91.0
960,237.64460362500003,237.84301612500002,59.0,76.0
961,237.88269862500002,238.40253937500003,61.0,90.0
962,238.35888862500002,238.70412637500002,56.0,86.0
963,238.59698362500004,238.88865,61.0,84.0
964,238.12079362500003,239.06920537500002,52.0,90.0
965,237.88269862500002,239.07714187500002,49.0,101.0
966,238.83507862500002,239.12476087500002,64.0,93.0
967,239.07317362500004,239.36682412500002,61.0,91.0
968,239.31126862500003,239.64460162500004,56.0,90.0
969,239.549363625,239.77952212500003,61.0,86.0
970,239.78745862500003,240.12872812500004,63.0,89.0
971,240.26364862500003,240.57912450000003,58.0,89.0
972,240.50174362500002,240.65452125000002,63.0,86.0
973,240.73983862500003,241.03348912500002,58.0,96.0
974,240.73983862500003,241.104917625,66.0,90.0
975,240.02555362500001,241.12475887500003,46.0,84.0
976,239.78745862500003,241.20213975000001,39.0,90.0
977,240.97793362500002,241.25769525,63.0,91.0
978,241.21602862500004,241.35690150000002,58.0,92.0
979,241.67832975000002,241.99182150000001,73.0,91.0
980,241.59499650000004,242.01166275000003,64.0,83.0
981,241.64658375000002,242.01166275000003,68.0,74.0
982,241.54539337500003,242.05332937500003,61.0,77.0
983,241.63071075000002,242.06721825000002,37.0,93.0
984,242.54539237500003,242.77753500000003,63.0,80.0
985,242.60293200000004,242.91443962500003,66.0,77.0
986,242.60888437500003,242.950153875,39.0,91.0
987,242.64658275000002,242.950153875,70.0,78.0
988,242.69817000000003,242.97793162500002,75.0,75.0
989,243.46007400000002,243.79935937500002,56.0,71.0
990,243.51959775000003,244.00372425000003,59.0,78.0
991,243.57713737500004,244.09300987500004,63.0,89.0
992,244.02554962500002,244.34300962500004,56.0,87.0
993,243.78943875000002,244.59499350000002,51.0,88.0
994,244.51761262500003,244.79935837500003,56.0,90.0
995,244.52753325000003,244.84102500000003,59.0,96.0
996,244.521580875,244.93031062500003,63.0,94.0
997,244.97792962500003,245.35888162500004,56.0,91.0
998,245.20610400000004,245.36880225000002,59.0,86.0
999,244.747771125,245.41046887500002,51.0,95.0
1000,243.56523262500002,245.42038950000003,44.0,91.0
1001,245.50173862500003,246.25570612500002,68.0,90.0
1002,245.97792862500003,246.26761087500003,63.0,87.0
1003,246.21602362500002,246.33705525000002,59.0,91.0
1004,245.73983362500002,246.58308675000004,51.0,91.0
1005,246.45411862500004,246.70015012500002,59.0,92.0
1006,246.45411862500004,246.76165800000004,63.0,96.0
1007,246.45411862500004,246.79141987500003,68.0,91.0
1008,246.93030862500004,247.237848,59.0,90.0
1009,245.50173862500003,247.25768925000003,44.0,92.0
1010,246.69221362500002,247.33705425000002,51.0,90.0
1011,247.16840362500002,247.89459337500003,63.0,91.0
1012,248.12078362500003,248.51165625000002,59.0,90.0
1013,247.88268862500001,248.63268787500002,56.0,86.0
1014,248.35887862500002,248.72991000000002,68.0,94.0
1015,247.64459362500003,249.03744937500002,51.0,89.0
1016,247.40649862500004,249.08705250000003,44.0,91.0
1017,248.59697362500003,249.15848100000002,63.0,90.0
1018,248.83506862500002,249.24181425000003,59.0,91.0
1019,249.07316362500003,249.43030612500002,56.0,91.0
1020,249.78744862500002,250.54538437500003,51.0,91.0
1021,250.02554362500004,250.55332087500003,54.0,90.0
1022,250.73982862500003,251.06125687500003,54.0,92.0
1023,249.31125862500002,251.07514575000002,39.0,95.0
1024,250.26363862500003,251.07712987500003,63.0,101.0
1025,250.501733625,251.09101875000002,58.0,91.0
1026,249.54935362500004,251.10292350000003,46.0,86.0
1027,250.97792362500002,251.31919312500003,51.0,91.0
1028,251.21601862500003,251.72593875000004,54.0,93.0
1029,251.21601862500003,251.80728787500001,58.0,92.0
1030,251.93030362500002,251.99577975000003,58.0,50.0
1031,251.69220862500003,252.05728762500001,51.0,90.0
1032,251.93030362500002,252.08308125000002,54.0,88.0
1033,251.45411362500002,252.27752550000002,46.0,85.0
1034,252.16839862500004,252.43427137500004,51.0,97.0
1035,252.16839862500004,252.47395387500003,54.0,99.0
1036,251.21601862500003,252.48585862500002,39.0,96.0
1037,252.16839862500004,252.48982687500003,58.0,101.0
1038,252.16839862500004,252.57514425000002,63.0,97.0
1039,252.40649362500002,252.58308075000002,46.0,91.0
1040,252.64458862500004,252.93228675000003,39.0,95.0
1041,253.120778625,253.59300037500003,61.0,88.0
1042,253.120778625,253.62077812500002,64.0,89.0
1043,253.59696862500002,253.93030162500003,56.0,91.0
1044,253.83506362500003,253.98188887500004,61.0,85.0
1045,254.07315862500002,254.426332875,64.0,97.0
1046,253.35887362500003,254.48188837500004,44.0,80.0
1047,253.120778625,254.52157087500004,37.0,96.0
1048,254.31125362500003,254.5791105,61.0,91.0
1049,254.54934862500002,254.90649112500003,56.0,92.0
1050,254.78744362500004,255.11284012500002,61.0,82.0
1051,255.02553862500002,255.30926850000003,64.0,91.0
1052,255.26363362500004,255.59498250000001,61.0,85.0
1053,255.50172862500003,255.83109337500002,56.0,93.0
1054,255.739823625,255.84696637500002,61.0,91.0
1055,255.02553862500002,256.08307725000003,49.0,104.0
1056,255.97791862500003,256.253712,56.0,95.0
1057,256.216013625,256.35093412500004,49.0,95.0
1058,255.97791862500003,256.50371175000004,64.0,101.0
1059,256.454108625,256.78942575,56.0,93.0
1060,256.69220362500005,257.17633012500005,61.0,90.0
1061,257.406488625,257.72990100000004,54.0,91.0
1062,257.64458362500005,257.775535875,58.0,90.0
1063,257.168393625,257.99577375,49.0,85.0
1064,257.88267862500004,258.18823387500004,54.0,90.0
1065,257.88267862500004,258.34696387500003,58.0,92.0
1066,257.88267862500004,258.66045562500005,61.0,92.0
1067,258.358868625,258.74180475000003,54.0,90.0
1068,258.120773625,258.74577300000004,49.0,92.0
1069,256.93029862500003,258.747757125,42.0,92.0
1070,258.596963625,258.78942375,58.0,78.0
1071,258.83505862500004,259.17632812500005,51.0,90.0
1072,258.83505862500004,259.380693,58.0,90.0
1073,258.83505862500004,259.632676875,63.0,90.0
1074,259.549343625,259.8648195,58.0,89.0
1075,259.311248625,259.90847025000005,51.0,96.0
1076,260.02553362500004,260.339025375,58.0,91.0
1077,259.07315362500003,260.35688250000004,46.0,85.0
1078,258.83505862500004,260.39259675000005,39.0,95.0
1079,260.263628625,260.55926325,51.0,99.0
1080,260.501723625,260.823151875,58.0,92.0
1081,259.78743862500005,260.906485125,63.0,97.0
1082,261.21600862500003,261.539421,56.0,86.0
1083,261.454103625,261.58704,59.0,90.0
1084,260.97791362500004,261.82116675000003,51.0,85.0
1085,261.692198625,261.98783325000005,56.0,90.0
1086,261.692198625,262.19418225000004,59.0,93.0
1087,261.692198625,262.21402350000005,63.0,95.0
1088,261.93029362500005,262.55926125,51.0,88.0
1089,260.73981862500005,262.565213625,44.0,94.0
1090,262.16838862500003,262.78148325,56.0,87.0
1091,262.406483625,262.823149875,59.0,88.0
1092,263.12076862500004,263.666403,56.0,91.0
1093,263.358863625,263.67235537500005,61.0,85.0
1094,262.644578625,263.950132875,49.0,106.0
1095,262.88267362500005,263.97791062500005,52.0,89.0
1096,263.596958625,263.9917995,64.0,92.0
1097,263.835053625,264.12672000000003,61.0,90.0
1098,264.07314862500004,264.44021175,56.0,90.0
1099,264.31124362500003,265.26560775,61.0,82.0
1100,265.26362362500004,265.438226625,54.0,87.0
1101,265.02552862500005,265.469972625,51.0,92.0
1102,264.787433625,265.650528,46.0,78.0
1103,265.501718625,265.68624225,51.0,85.0
1104,264.549338625,265.82513100000006,39.0,95.0
1105,265.739813625,265.88862300000005,46.0,91.0
1106,265.501718625,266.017591125,54.0,92.0
1107,265.501718625,266.255686125,58.0,92.0
1108,265.97790862500005,266.307273375,51.0,94.0
1109,266.21600362500004,266.545368375,54.0,88.0
1110,266.45409862500003,266.755685625,56.0,90.0
1111,266.930288625,267.2457645,56.0,90.0
1112,267.16838362500005,267.28941525000005,59.0,82.0
1113,266.692193625,267.51560550000005,51.0,91.0
1114,267.40647862500003,267.68624025,56.0,93.0
1115,267.40647862500003,267.73385925,59.0,95.0
1116,267.40647862500003,267.761637,63.0,99.0
1117,267.882668625,268.23187462500005,56.0,91.0
1118,268.12076362500005,268.23187462500005,58.0,73.0
1119,267.644573625,268.2616365,51.0,92.0
1120,266.45409862500003,268.27949362500004,44.0,91.0
1121,268.12076362500005,268.319176125,59.0,76.0
1122,268.35885862500004,268.87869937500005,61.0,90.0
1123,268.835048625,269.18028637500004,56.0,86.0
1124,269.07314362500006,269.36481000000003,61.0,84.0
1125,268.596953625,269.545365375,52.0,90.0
1126,268.35885862500004,269.55330187500005,49.0,101.0
1127,269.31123862500004,269.60092087500004,64.0,93.0
1128,269.54933362500003,269.84298412500004,61.0,91.0
1129,269.787428625,270.12076162500006,56.0,90.0
1130,270.025523625,270.255682125,61.0,86.0
1131,270.26361862500005,270.604888125,63.0,89.0
1132,270.739808625,271.0552845,58.0,89.0
1133,270.977903625,271.13068125,63.0,86.0
1134,271.21599862500005,271.509649125,58.0,96.0
1135,271.21599862500005,271.58107762500003,66.0,90.0
1136,270.50171362500004,271.60091887500005,46.0,84.0
1137,270.26361862500005,271.67829975,39.0,90.0
1138,271.45409362500004,271.73385525000003,63.0,91.0
1139,271.69218862500003,271.83306150000004,58.0,92.0
1140,272.15448975000004,272.4679815,73.0,91.0
1141,272.07115650000003,272.48782275,64.0,83.0
1142,272.12274375000004,272.48782275,68.0,74.0
1143,272.02155337500005,272.529489375,61.0,77.0
1144,272.10687075000004,272.54337825000005,37.0,93.0
1145,273.02155237500006,273.25369500000005,63.0,80.0
1146,273.079092,273.39059962500005,66.0,77.0
1147,273.08504437500005,273.426313875,39.0,91.0
1148,273.12274275000004,273.426313875,70.0,78.0
1149,273.17433000000005,273.45409162500005,75.0,75.0
1150,273.936234,274.27551937500004,56.0,71.0
1151,273.99575775000005,274.47988425000005,59.0,78.0
1152,274.05329737500006,274.56916987500006,63.0,89.0
1153,274.50170962500005,274.81916962500003,56.0,87.0
1154,274.26559875000004,275.07115350000004,51.0,88.0
1155,274.993772625,275.27551837500005,56.0,90.0
1156,275.00369325,275.31718500000005,59.0,96.0
1157,274.99774087500003,275.40647062500005,63.0,94.0
1158,275.45408962500005,275.83504162500003,56.0,91.0
1159,275.68226400000003,275.84496225000004,59.0,86.0
1160,275.22393112500004,275.88662887500004,51.0,95.0
1161,274.041392625,275.89654950000005,44.0,91.0
1162,275.977898625,276.49773937500004,61.0,90.0
1163,276.45408862500005,276.799326375,56.0,86.0
1164,276.69218362500004,276.98385,61.0,84.0
1165,276.215993625,277.164405375,52.0,90.0
1166,275.977898625,277.17234187500003,49.0,101.0
1167,276.930278625,277.219960875,64.0,93.0
1168,277.168373625,277.462024125,61.0,91.0
1169,277.406468625,277.73980162500004,56.0,90.0
1170,277.64456362500005,277.874722125,61.0,86.0
1171,277.88265862500003,278.22392812500004,63.0,89.0
1172,278.358848625,278.6743245,58.0,89.0
1173,278.59694362500005,278.74972125000005,63.0,86.0
1174,278.83503862500004,279.12868912500005,58.0,96.0
1175,278.83503862500004,279.200117625,66.0,90.0
1176,278.120753625,279.21995887500003,46.0,84.0
1177,277.88265862500003,279.29733975000005,39.0,90.0
1178,279.073133625,279.35289525,63.0,91.0
1179,279.311228625,279.4521015,58.0,92.0
1180,279.77352975,280.08702150000005,73.0,91.0
1181,279.6901965,280.10686275,64.0,83.0
1182,279.74178375,280.10686275,68.0,74.0
1183,279.64059337500004,280.148529375,61.0,77.0
1184,279.72591075,280.16241825000003,37.0,93.0
1185,280.67233837500004,281.96598787500005,39.0,91.0
1186,280.6267035,283.44019275000005,51.0,82.0
1187,280.71003675000003,283.44019275000005,54.0,84.0
1188,280.81321125000005,283.44019275000005,58.0,79.0
1189,280.87273500000003,283.44019275000005,63.0,90.0
1190,283.57114500000006,284.11082700000003,56.0,83.0
1191,283.569160875,284.35289025000003,59.0,86.0
1192,284.017573125,284.61479475000004,51.0,82.0
1193,283.57312912500004,284.63860425,44.0,91.0
1194,284.90844525000006,285.196143375,59.0,87.0
1195,284.91439762500005,285.206064,63.0,86.0
1196,284.49773137500006,285.269556,56.0,92.0
1197,285.374714625,285.52550812500004,56.0,38.0
1198,285.41042887500004,285.96399975,68.0,86.0
1199,285.8806665,286.237809,56.0,69.0
1200,286.37669775,286.56717375000005,56.0,81.0
1201,286.370745375,286.79931637500005,59.0,91.0
1202,286.364793,286.807252875,44.0,91.0
1203,286.374713625,286.94217337500004,63.0,91.0
1204,286.88463375000003,287.42034750000005,56.0,78.0
1205,287.333046,287.53741087500003,37.0,93.0
1206,287.34495075,287.86082325,61.0,86.0
1207,287.34693487500004,288.19018800000003,64.0,89.0
1208,288.75764775000005,289.096933125,61.0,91.0
1209,288.33106087500005,289.44812325000004,56.0,93.0
1210,289.243758375,289.71994837500006,64.0,92.0
1211,289.24177425000005,289.803281625,61.0,92.0
1212,289.688202375,290.24772562500004,56.0,72.0
1213,290.19415425000005,290.40645562500004,61.0,90.0
1214,290.414392125,290.577090375,56.0,79.0
1215,287.81518837500005,290.587011,49.0,80.0
1216,290.1822495,290.612804625,68.0,92.0
1217,290.188201875,290.65447125000003,64.0,93.0
1218,290.65843950000004,290.78145525,61.0,88.0
1219,291.17034375000003,291.99573975000004,63.0,90.0
1220,291.15843900000004,292.01954925,58.0,84.0
1221,292.12073962500006,292.63661212500006,66.0,86.0
1222,291.63264487500004,292.84891350000004,46.0,77.0
1223,291.16439137500004,292.920342,39.0,91.0
1224,292.557247125,292.93224675000005,58.0,91.0
1225,293.0870085,293.783436375,63.0,89.0
1226,293.08502437500005,293.866769625,58.0,83.0
1227,294.120737625,294.315181875,58.0,86.0
1228,293.62073812500006,294.40843575,46.0,90.0
1229,293.088992625,294.49176900000003,39.0,92.0
1230,294.11478525,295.32311737500004,63.0,91.0
1231,294.63859425000004,295.34891100000004,58.0,91.0
1232,294.120737625,295.35287925000006,66.0,86.0
1233,295.80724387500004,296.152481625,56.0,84.0
1234,295.53938700000003,296.1981165,51.0,81.0
1235,295.19018100000005,296.21002125,44.0,92.0
1236,296.088989625,296.59692562500004,63.0,87.0
1237,297.763591125,297.90843225000003,75.0,80.0
1238,297.85089262500003,297.99176550000004,80.0,69.0
1239,297.15049650000003,298.331050875,63.0,77.0
1240,296.5790685,298.38660637500004,56.0,83.0
