,start,end,pitch,velocity
0,36.712088395833334,36.8427569125,64.0,107.0
1,36.942679895833336,37.20209533333333,64.0,97.0
2,37.17327139583333,37.44613800416667,62.0,93.0
3,37.403862895833335,37.64214077916667,60.0,74.0
4,37.63445439583334,38.38579836666667,55.0,86.0
5,38.556820395833334,38.6644297625,64.0,127.0
6,38.78741189583334,38.916158816666666,64.0,97.0
7,39.01800339583333,39.20824138333334,62.0,100.0
8,39.248594895833335,39.38310660416667,60.0,93.0
9,39.47918639583334,39.59063895416667,62.0,100.0
10,39.709777895833334,40.762812412500004,62.0,99.0
11,40.86273539583333,41.07795412916667,64.0,97.0
12,41.093326895833336,41.275878500000005,67.0,96.0
13,41.32391839583334,41.83890607916667,69.0,102.0
14,42.01569289583333,42.090635133333336,69.0,100.0
15,42.246284395833335,42.4691895125,69.0,102.0
16,42.47687589583334,42.69209462916667,64.0,86.0
17,42.70746739583333,42.978412408333334,62.0,100.0
18,42.938058895833336,43.46457615416667,64.0,93.0
19,44.552199395833334,44.77894770416667,64.0,92.0
20,44.78279089583334,44.886557070833334,67.0,81.0
21,45.01338239583334,45.120991762500005,69.0,99.0
22,45.243973895833335,45.345818475,69.0,95.0
23,45.47456539583334,45.572566783333336,69.0,96.0
24,45.70515689583333,45.789707112500004,69.0,95.0
25,45.935748395833336,46.125986383333334,69.0,122.0
26,46.16633989583334,46.40461777916667,69.0,117.0
27,46.62752289583334,46.7697209875,69.0,112.0
28,46.85811439583333,46.98686131666667,67.0,112.0
29,47.088705895833336,47.300081437500005,67.0,112.0
30,47.549888895833334,47.722832520833336,67.0,102.0
31,47.78048039583334,48.005307108333334,62.0,100.0
32,48.01107189583334,48.31660563333334,60.0,89.0
33,48.70284639583333,49.01030172916667,60.0,95.0
34,49.16402939583334,49.43689600416667,60.0,93.0
35,49.62521239583334,49.80678708333334,57.0,96.0
36,49.854569895833336,50.083927395833335,64.0,97.0
37,50.313284895833334,51.289965583333334,62.0,93.0
38,51.460072395833336,51.595775583333335,64.0,112.0
39,51.689429895833335,51.96274758333334,64.0,97.0
40,52.14814489583334,52.320163020833334,62.0,107.0
41,52.37750239583334,52.610682520833336,60.0,95.0
42,52.60685989583334,52.893556770833335,55.0,89.0
43,53.294932395833335,53.386675395833336,64.0,99.0
44,53.524289895833334,53.67910620833334,64.0,86.0
45,53.75364739583334,53.97153702083334,62.0,83.0
46,53.98300489583334,54.20089452083334,60.0,79.0
47,54.21236239583334,54.37291264583334,62.0,97.0
48,54.44171989583334,54.86411995833333,62.0,96.0
49,55.58850739583334,55.73567845833334,64.0,96.0
50,55.81786489583334,55.972681208333334,67.0,93.0
51,56.04722239583334,56.423750958333336,69.0,122.0
52,56.96465239583334,57.19262168750001,69.0,112.0
53,57.19453739583334,57.38610822916667,64.0,92.0
54,57.42442239583334,57.66197022916668,62.0,89.0
55,57.65430739583334,58.50488189583334,64.0,100.0
56,59.26350239583334,59.426337604166676,64.0,102.0
57,59.49338739583334,59.67729539583334,67.0,102.0
58,59.72327239583334,59.85737197916667,69.0,117.0
59,59.953157395833344,60.07959414583334,69.0,95.0
60,60.18304239583334,60.30373202083334,69.0,112.0
61,60.41292739583334,60.55852122916667,69.0,112.0
62,60.64281239583334,60.80181618750001,69.0,112.0
63,60.87269739583334,60.96656710416667,69.0,117.0
64,61.10258239583334,61.19836781250001,69.0,96.0
65,61.33246739583334,61.43016852083334,69.0,102.0
66,61.562352395833344,61.73542933333334,67.0,107.0
67,61.793121645833345,61.90273703958334,67.0,92.0
68,62.02389089583335,62.15658321458334,67.0,83.0
69,62.25466014583334,63.21619868750001,60.0,97.0
70,63.40850639583334,63.75466027083334,62.0,112.0
71,63.870044895833345,64.66427573125002,62.0,99.0
72,64.79312189583334,65.02966037708335,60.0,107.0
73,65.02389114583335,65.2931219375,59.0,72.0
74,65.25466039583334,66.57196819791668,60.0,96.0
75,66.63927589583335,66.85466052916668,60.0,117.0
76,66.87004514583334,67.09696824166667,62.0,95.0
77,67.10081439583334,67.29504518125,64.0,107.0
78,67.33158364583335,67.44504519375,67.0,100.0
79,67.56235289583334,67.66812213541668,67.0,97.0
80,67.79312214583334,67.89312215416668,67.0,100.0
81,68.02389139583335,68.14504525208335,67.0,107.0
82,68.25466064583334,68.33158372916668,67.0,99.0
83,68.48542989583335,68.68158375833335,67.0,102.0
84,68.71619914583334,68.93350685625,64.0,100.0
85,68.94696839583334,69.07966071458334,62.0,97.0
86,69.17773764583335,69.33542996666668,62.0,93.0
87,69.40850689583334,69.59696845,64.0,97.0
88,69.63927614583335,69.88927616666668,62.0,122.0
89,70.10081464583334,70.39312236250001,64.0,96.0
90,70.56235314583334,70.73927623750001,62.0,100.0
91,70.79312239583334,70.92581471458334,60.0,107.0
92,71.02389164583334,71.14504550208335,60.0,89.0
93,71.25466089583334,71.48350706875001,60.0,96.0
94,71.48543014583335,71.743122475,57.0,89.0
95,71.71619939583334,71.87389171666668,60.0,117.0
96,71.94696864583335,72.13543020000002,60.0,117.0
97,72.17773789583335,72.37389175833334,60.0,107.0
98,72.40850714583334,72.59889177708334,57.0,93.0
99,72.63927639583335,72.81812256458335,69.0,100.0
100,72.87004564583334,73.08350720208334,67.0,122.0
101,73.33158414583335,73.53927647083334,67.0,112.0
102,73.56235339583334,73.76043033541667,64.0,102.0
103,73.79312264583334,73.96235342916668,62.0,99.0
104,74.02389189583334,74.2469688375,64.0,107.0
105,74.25466114583334,74.41043038958334,65.0,102.0
106,74.48543039583335,74.61043040625,67.0,112.0
107,74.71619964583334,74.83927657916668,67.0,100.0
108,74.94696889583335,75.06043044375001,67.0,102.0
109,75.17773814583335,75.28927661666668,67.0,102.0
110,75.40850739583334,75.51619971250001,67.0,117.0
111,75.63927664583335,75.77581511875002,67.0,127.0
112,76.10081514583334,76.32773824166668,64.0,100.0
113,76.33158439583335,76.43158440416667,62.0,96.0
114,76.56235364583334,76.66235365416668,62.0,93.0
115,76.79312289583335,77.01427676041668,64.0,102.0
116,77.02389214583334,77.22196908541667,62.0,117.0
117,77.48543064583335,77.78158451666667,64.0,96.0
118,77.94696914583335,78.09504608125002,62.0,99.0
119,78.18350762708334,78.28350763541667,60.0,112.0
120,78.30273840625001,78.4238922625,57.0,78.0
121,78.45850765,78.57581535208334,60.0,93.0
122,78.58543073750002,78.67581536041668,57.0,88.0
123,78.70273843958334,79.06427693125,60.0,122.0
124,79.79312314583335,80.01812316458334,57.0,102.0
125,80.02389239583334,80.24889241458334,69.0,117.0
126,80.25466164583335,80.58350782708334,67.0,127.0
127,80.94696939583335,81.15081556666668,69.0,127.0
128,81.17773864583334,81.26812326875,67.0,95.0
129,81.40850789583334,81.49120021041668,67.0,127.0
130,81.63927714583335,82.92004648333335,67.0,127.0
131,82.79312339583335,83.12389265416668,60.0,117.0
132,83.25466189583335,83.61812346458335,62.0,127.0
133,83.71620039583334,83.92581579791667,64.0,127.0
134,83.94696964583335,84.0546619625,67.0,102.0
135,84.17773889583334,84.28927736666668,67.0,99.0
136,84.40850814583334,84.50658507708334,67.0,99.0
137,84.63927739583335,84.86043126041668,67.0,107.0
138,84.87004664583334,85.11235435833335,64.0,82.0
139,85.10081589583334,85.37389284166667,69.0,127.0
140,85.33158514583334,86.47389293333335,67.0,107.0
141,87.17773914583334,87.34504685208334,67.0,112.0
142,87.40850839583334,87.67773918750001,69.0,127.0
143,87.63927764583335,87.89696997500002,72.0,127.0
144,88.10081614583333,88.23543154166669,72.0,127.0
145,88.33158539583334,88.55273926041667,72.0,127.0
146,88.79312389583335,89.00658545208334,64.0,99.0
147,89.02389314583334,90.15658554791668,67.0,122.0
148,91.10081639583335,91.25466256250002,60.0,112.0
149,91.33158564583334,91.49504719791668,60.0,96.0
150,91.79312414583335,92.40273958125002,60.0,107.0
151,92.94697039583335,93.05658578958335,67.0,112.0
152,93.17773964583334,93.26427811458335,67.0,85.0
153,93.40850889583334,93.54120121458334,67.0,96.0
154,93.63927814583334,93.83735508541668,60.0,107.0
155,94.10081664583333,94.19504742291667,60.0,112.0
156,94.33158589583334,94.47389360000001,60.0,112.0
157,94.56235514583335,94.77966285625001,57.0,102.0
158,94.79312439583335,94.91427825208334,60.0,127.0
159,95.02389364583334,95.11812442291668,60.0,102.0
160,95.25466289583335,95.63927831250001,60.0,127.0
161,95.71620139583334,96.23350913125,60.0,117.0
162,96.63927839583334,96.712355325,67.0,117.0
163,96.87004764583335,97.00658611875001,67.0,112.0
164,97.10081689583333,97.22966306041667,64.0,117.0
165,97.33158614583334,97.50466308333334,62.0,112.0
166,97.79312464583334,98.09120159375001,64.0,112.0
167,98.25466314583335,98.45081700833335,65.0,127.0
168,98.48543239583334,98.60850932916668,67.0,117.0
169,98.71620164583334,98.96043243541668,67.0,102.0
170,99.17774014583334,99.28735553958334,67.0,102.0
171,99.40850939583333,99.53735556041667,67.0,117.0
172,99.63927864583334,99.84120173958334,64.0,102.0
173,99.87004789583335,100.07581714375002,69.0,122.0
174,100.10081714583335,100.90274028958333,67.0,122.0
175,101.94697114583334,102.07581731041668,67.0,99.0
176,102.17774039583335,102.42004810833333,69.0,127.0
177,102.40850964583333,102.59697120000001,72.0,127.0
178,102.87004814583335,103.00274046458334,72.0,127.0
179,103.10081739583335,103.25850971666668,72.0,127.0
180,103.56235589583335,103.75466360416668,64.0,92.0
181,103.79312514583334,104.20850979583335,67.0,117.0
182,104.48543289583334,104.67581752708335,69.0,112.0
183,104.71620214583334,105.00658678541669,67.0,117.0
184,105.87004839583335,106.02581763958335,60.0,97.0
185,106.10081764583335,106.37197151458335,60.0,100.0
186,106.56235614583335,107.12197157708334,60.0,112.0
187,107.71620239583334,107.81620240416667,67.0,107.0
188,107.94697164583334,108.04120242291668,67.0,95.0
189,108.17774089583335,108.30658706041667,67.0,100.0
190,108.40851014583335,108.68351016875002,60.0,112.0
191,108.87004864583335,108.95851019166668,60.0,102.0
192,109.10081789583334,109.22966406041667,60.0,95.0
193,109.33158714583334,109.51427946875,57.0,102.0
194,109.56235639583335,109.73543333333333,60.0,127.0
195,109.79312564583334,109.91235642500001,60.0,100.0
196,110.02389489583334,110.44889493125001,60.0,107.0
197,110.48543339583334,111.76043350208334,60.0,117.0
198,112.33158739583334,112.57774126250001,60.0,107.0
199,112.79312589583334,113.0162028375,60.0,112.0
200,113.25466439583334,113.62004904166668,62.0,102.0
201,113.71620289583333,115.87197230625,60.0,117.0
202,116.48437139583334,116.64937529583334,60.0,97.0
203,116.71460939583334,116.84315894583334,62.0,107.0
204,116.94484739583334,117.22305164583334,64.0,97.0
205,117.17508539583334,117.28444844583333,67.0,112.0
206,117.40532339583334,117.50317454583333,67.0,90.0
207,117.63556139583334,117.73533119583334,67.0,117.0
208,117.86579939583333,118.03272194583333,67.0,122.0
209,118.09603739583333,118.37807894583334,67.0,112.0
210,118.55651339583333,118.75413434583334,64.0,112.0
211,118.78675139583333,118.88076524583333,62.0,96.0
212,119.01698939583333,119.13786434583334,62.0,90.0
213,119.24722739583333,119.42758049583334,64.0,100.0
214,119.47746539583333,119.74223909583334,60.0,99.0
215,120.43487174583333,120.55574669583334,57.0,95.0
216,120.62481809583333,120.76104224583334,60.0,95.0
217,120.78982199583334,120.91645289583333,57.0,92.0
218,120.94331399583334,121.08721274583334,60.0,83.0
219,121.10831789583334,121.21192499583333,57.0,93.0
220,121.24454204583334,121.83164894583334,60.0,99.0
221,122.24032139583333,122.37654554583334,55.0,93.0
222,122.47055939583333,122.59527164583334,62.0,100.0
223,122.70079739583333,122.84661479583333,62.0,100.0
224,123.16127339583333,123.27831104583333,62.0,112.0
225,123.39151139583333,123.54500339583333,62.0,127.0
226,123.62174939583333,123.73878704583333,60.0,102.0
227,123.85198739583333,123.98245559583333,59.0,100.0
228,124.08222539583333,126.38268674583334,60.0,112.0
229,156.54578339583333,156.67625159583332,64.0,107.0
230,156.77602139583334,157.03503914583334,64.0,97.0
231,157.00625939583335,157.27870769583333,62.0,93.0
232,157.23649739583334,157.47440999583333,60.0,74.0
233,157.46673539583333,158.21692754583333,55.0,86.0
234,158.38768739583332,158.49513179583334,64.0,127.0
235,158.61792539583334,158.74647494583334,64.0,97.0
236,158.84816339583335,159.03810974583334,62.0,100.0
237,159.07840139583334,159.21270689583332,60.0,93.0
238,159.30863939583332,159.41992109583333,62.0,100.0
239,159.53887739583334,160.59029759583333,62.0,99.0
240,160.69006739583335,160.90495619583334,64.0,97.0
241,160.92030539583334,161.10257714583332,67.0,96.0
242,161.15054339583332,161.66474159583333,69.0,102.0
243,161.84125739583334,161.91608474583333,69.0,100.0
244,162.07149539583332,162.29405879583334,69.0,102.0
245,162.30173339583334,162.51662219583335,64.0,86.0
246,162.53197139583335,162.80250104583334,62.0,100.0
247,162.76220939583334,163.28791949583334,64.0,93.0
248,164.37387539583335,164.60027609583335,64.0,92.0
249,164.60411339583334,164.70772049583334,67.0,81.0
250,164.83435139583332,164.94179579583334,69.0,99.0
251,165.06458939583334,165.16627784583335,69.0,95.0
252,165.29482739583335,165.39267854583335,69.0,96.0
253,165.52506539583334,165.60948599583332,69.0,95.0
254,165.75530339583332,165.94524974583334,69.0,122.0
255,165.98554139583334,166.22345399583332,69.0,117.0
256,166.44601739583334,166.58799749583335,69.0,112.0
257,166.67625539583332,166.80480494583333,67.0,112.0
258,166.90649339583334,167.11754489583333,67.0,112.0
259,167.36696939583334,167.53964789583333,67.0,102.0
260,167.59720739583332,167.82168944583333,62.0,100.0
261,167.82744539583334,168.13251074583334,60.0,89.0
262,168.51815939583332,168.82514339583332,60.0,95.0
263,168.97863539583335,169.25108369583333,60.0,93.0
264,169.43911139583332,169.62138314583333,57.0,96.0
265,169.66934939583334,169.89958739583335,64.0,97.0
266,170.12982539583334,171.11025554583335,62.0,93.0
267,171.28101539583332,171.41723954583335,64.0,112.0
268,171.51125339583334,171.78562034583334,64.0,97.0
269,171.97172939583334,172.14440789583335,62.0,107.0
270,172.20196739583332,172.43604269583335,60.0,95.0
271,172.43220539583334,172.72000289583335,55.0,89.0
272,173.12291939583332,173.21501459583334,64.0,99.0
273,173.35315739583334,173.50856804583333,64.0,86.0
274,173.58339539583335,173.80212149583335,62.0,83.0
275,173.81363339583334,174.03235949583333,60.0,79.0
276,174.04387139583332,174.20503799583332,62.0,97.0
277,174.27410939583334,174.69813104583335,62.0,96.0
278,175.42529939583335,175.57303544583334,64.0,96.0
279,175.65553739583333,175.81094804583333,67.0,93.0
280,175.88577539583332,176.26374944583333,69.0,122.0
281,176.80672739583332,177.03504674583334,69.0,112.0
282,177.03696539583333,177.22883039583334,64.0,92.0
283,177.26720339583335,177.50511599583334,62.0,89.0
284,177.49744139583333,178.34932199583335,64.0,100.0
285,179.10910739583335,179.27219264583334,64.0,102.0
286,179.33934539583333,179.52353579583334,67.0,102.0
287,179.56958339583332,179.70388889583333,69.0,117.0
288,179.79982139583333,179.92645229583334,69.0,95.0
289,180.03005939583335,180.15093434583332,69.0,112.0
290,180.26029739583333,180.40611479583333,69.0,112.0
291,180.49053539583332,180.64978334583333,69.0,112.0
292,180.72077339583333,180.81478724583334,69.0,117.0
293,180.95101139583335,181.04694389583335,69.0,96.0
294,181.18124939583333,181.27910054583333,69.0,102.0
295,181.41148739583332,181.58416589583334,67.0,107.0
296,181.64172539583333,181.75108844583332,67.0,92.0
297,181.87196339583335,182.00435024583334,67.0,83.0
298,182.10220139583333,183.06152639583334,60.0,97.0
299,183.25339139583332,183.59874839583335,62.0,112.0
300,183.71386739583335,184.50626984583334,62.0,99.0
301,184.63481939583335,184.87081334583334,60.0,107.0
302,184.86505739583333,185.13366839583335,59.0,72.0
303,185.09529539583332,186.40957064583336,60.0,96.0
304,186.47672339583335,186.69161219583333,60.0,117.0
305,186.70696139583333,186.93336209583333,62.0,95.0
306,186.93719939583332,187.13098304583332,64.0,107.0
307,187.16743739583333,187.28063774583333,67.0,100.0
308,187.39767539583335,187.50320114583332,67.0,97.0
309,187.62791339583333,187.72768319583332,67.0,100.0
310,187.85815139583332,187.97902634583335,67.0,107.0
311,188.08838939583333,188.16513539583332,67.0,99.0
312,188.31862739583335,188.51432969583334,67.0,102.0
313,188.54886539583333,188.76567284583334,64.0,100.0
314,188.77910339583332,188.91149024583333,62.0,97.0
315,189.00934139583333,189.16667069583332,62.0,93.0
316,189.23957939583335,189.42760709583334,64.0,97.0
317,189.46981739583333,189.71924189583333,62.0,122.0
318,189.93029339583333,190.22192819583336,64.0,96.0
319,190.39076939583333,190.56728519583334,62.0,100.0
320,190.62100739583332,190.75339424583333,60.0,107.0
321,190.85124539583333,190.97212034583333,60.0,89.0
322,191.08148339583335,191.30980274583334,60.0,96.0
323,191.31172139583333,191.56882049583334,57.0,89.0
324,191.54195939583332,191.69928869583333,60.0,117.0
325,191.77219739583333,191.96022509583332,60.0,117.0
326,192.00243539583334,192.19813769583334,60.0,107.0
327,192.23267339583333,192.42261974583334,57.0,93.0
328,192.46291139583332,192.64134584583334,69.0,100.0
329,192.69314939583333,192.90611954583335,67.0,122.0
330,193.15362539583333,193.36083959583334,67.0,112.0
331,193.38386339583332,193.58148434583333,64.0,102.0
332,193.61410139583333,193.78294259583333,62.0,99.0
333,193.84433939583334,194.06690279583336,64.0,107.0
334,194.07457739583333,194.22998804583335,65.0,102.0
335,194.30481539583332,194.42952764583333,67.0,112.0
336,194.53505339583333,194.65784699583332,67.0,100.0
337,194.76529139583334,194.87849174583334,67.0,102.0
338,194.99552939583333,195.10681109583334,67.0,102.0
339,195.22576739583334,195.33321179583334,67.0,117.0
340,195.45600539583336,195.59222954583333,67.0,127.0
341,195.91648139583333,196.14288209583333,64.0,100.0
342,196.14671939583334,196.24648919583333,62.0,96.0
343,196.37695739583336,196.47672719583335,62.0,93.0
344,196.60719539583334,196.82784014583333,64.0,102.0
345,196.83743339583333,197.03505434583332,62.0,117.0
346,197.29790939583336,197.59338149583334,64.0,96.0
347,197.75838539583333,197.90612144583332,62.0,99.0
348,197.99437934583335,198.09414914583334,60.0,112.0
349,198.11333564583333,198.23421059583333,57.0,78.0
350,198.26874629583335,198.38578394583334,60.0,93.0
351,198.39537719583333,198.48555374583333,57.0,88.0
352,198.51241484583335,198.87312104583333,60.0,122.0
353,199.60028939583333,199.82477144583333,57.0,102.0
354,199.83052739583334,200.05500944583332,69.0,117.0
355,200.06076539583336,200.38885454583334,67.0,127.0
356,200.75147939583334,200.95485629583334,69.0,127.0
357,200.98171739583336,201.07189394583332,67.0,95.0
358,201.21195539583334,201.29445734583334,67.0,127.0
359,201.44219339583333,202.72001429583332,67.0,127.0
360,202.59338339583334,202.92339119583335,60.0,117.0
361,203.05385939583334,203.41648424583332,62.0,127.0
362,203.51433539583334,203.72346824583332,64.0,127.0
363,203.74457339583336,203.85201779583332,67.0,102.0
364,203.97481139583334,204.08609309583335,67.0,99.0
365,204.20504939583333,204.30290054583332,67.0,99.0
366,204.43528739583334,204.65593214583333,67.0,107.0
367,204.66552539583336,204.90727529583336,64.0,82.0
368,204.89576339583334,205.16821169583335,69.0,127.0
369,205.12600139583333,206.26567949583335,67.0,107.0
370,206.96790539583333,207.13482794583334,67.0,112.0
371,207.19814339583334,207.46675439583333,69.0,127.0
372,207.42838139583336,207.68548049583333,72.0,127.0
373,207.88885739583333,208.02316289583334,72.0,127.0
374,208.11909539583334,208.33974014583333,72.0,127.0
375,208.57957139583334,208.79254154583333,64.0,99.0
376,208.80980939583333,209.93989424583333,67.0,122.0
377,210.88195139583334,211.03544339583334,60.0,112.0
378,211.11218939583335,211.27527464583335,60.0,96.0
379,211.57266539583333,212.18087744583335,60.0,107.0
380,212.72385539583334,212.83321844583332,67.0,112.0
381,212.95409339583335,213.04043264583333,67.0,85.0
382,213.18433139583334,213.31671824583333,67.0,96.0
383,213.41456939583333,213.61219034583334,60.0,107.0
384,213.87504539583335,213.96905924583334,60.0,112.0
385,214.10528339583334,214.24726349583335,60.0,112.0
386,214.33552139583333,214.55232884583336,57.0,102.0
387,214.56575939583334,214.68663434583334,60.0,127.0
388,214.79599739583335,214.89001124583334,60.0,102.0
389,215.02623539583334,215.40996539583335,60.0,127.0
390,215.48671139583334,216.00282824583334,60.0,117.0
391,216.40766339583334,216.48057209583334,67.0,117.0
392,216.63790139583335,216.77412554583333,67.0,112.0
393,216.86813939583334,216.99668894583334,64.0,117.0
394,217.09837739583332,217.27105589583334,62.0,112.0
395,217.55885339583335,217.85624414583333,64.0,112.0
396,218.01932939583332,218.21503169583332,65.0,127.0
397,218.24956739583334,218.37236099583333,67.0,117.0
398,218.47980539583335,218.72347394583335,67.0,102.0
399,218.94028139583332,219.04964444583334,67.0,102.0
400,219.17051939583334,219.29906894583334,67.0,117.0
401,219.40075739583335,219.60221564583333,64.0,102.0
402,219.63099539583334,219.83629094583335,69.0,122.0
403,219.86123339583332,220.66131044583335,67.0,122.0
404,221.70313739583332,221.83168694583333,67.0,99.0
405,221.93337539583334,222.17568310833335,69.0,127.0
406,222.16414464583335,222.3526062,72.0,127.0
407,222.62568314583334,222.75837546458334,72.0,127.0
408,222.85645239583334,223.01414471666666,72.0,127.0
409,223.31799089583333,223.51029860416668,64.0,92.0
410,223.54876014583334,223.96414479583333,67.0,117.0
411,224.24106789583334,224.43145252708334,69.0,112.0
412,224.47183714583335,224.76222178541667,67.0,117.0
413,225.62568339583333,225.78145263958334,60.0,97.0
414,225.85645264583334,226.12760651458333,60.0,100.0
415,226.31799114583333,226.87760657708333,60.0,112.0
416,227.47183739583335,227.57183740416667,67.0,107.0
417,227.70260664583333,227.79683742291667,67.0,95.0
418,227.93337589583334,228.06222206041667,67.0,100.0
419,228.16414514583334,228.43914516875,60.0,112.0
420,228.62568364583333,228.71414519166666,60.0,102.0
421,228.85645289583334,228.98529906041668,60.0,95.0
422,229.08722214583332,229.26991446875002,57.0,102.0
423,229.31799139583333,229.49106833333335,60.0,127.0
424,229.54876064583334,229.667991425,60.0,100.0
425,229.77952989583335,230.20452993125,60.0,107.0
426,230.24106839583334,231.51606850208333,60.0,117.0
427,232.08722239583335,232.3333762625,60.0,107.0
428,232.54876089583334,232.77183783750002,60.0,112.0
429,233.01029939583333,233.37568404166666,62.0,102.0
430,233.47183789583335,235.62760730625,60.0,117.0
431,235.77953039583335,236.11029965416668,60.0,117.0
432,236.24106889583334,236.60453046458335,62.0,127.0
433,236.70260739583333,236.91222279791668,64.0,127.0
434,236.93337664583333,237.0410689625,67.0,102.0
435,237.16414589583334,237.27568436666667,67.0,99.0
436,237.39491514583335,237.49299207708333,67.0,99.0
437,237.62568439583333,237.84683826041666,67.0,107.0
438,237.85645364583334,238.09876135833335,64.0,82.0
439,238.08722289583335,238.36029984166666,69.0,127.0
440,238.31799214583333,239.46029993333335,67.0,107.0
441,240.16414614583334,240.33145385208334,67.0,112.0
442,240.39491539583332,240.6641461875,69.0,127.0
443,240.62568464583333,240.883376975,72.0,127.0
444,241.08722314583335,241.22183854166667,72.0,127.0
445,241.31799239583333,241.53914626041666,72.0,127.0
446,241.77953089583335,241.99299245208334,64.0,99.0
447,242.01030014583333,243.14299254791666,67.0,122.0
448,244.08722339583335,244.2410695625,60.0,112.0
449,244.31799264583333,244.48145419791666,60.0,96.0
450,244.77953114583335,245.38914658125,60.0,107.0
451,245.93337739583333,246.04299278958334,67.0,112.0
452,246.16414664583334,246.25068511458335,67.0,85.0
453,246.39491589583332,246.52760821458332,67.0,96.0
454,246.62568514583333,246.82376208541666,60.0,107.0
455,247.08722364583335,247.18145442291666,60.0,112.0
456,247.31799289583333,247.4603006,60.0,112.0
457,247.54876214583334,247.76606985625,57.0,102.0
458,247.77953139583335,247.90068525208335,60.0,127.0
459,248.01030064583333,248.10453142291666,60.0,102.0
460,248.24106989583333,248.6256853125,60.0,127.0
461,248.70260839583335,249.21991613125,60.0,117.0
462,249.62568539583333,249.69876232500002,67.0,117.0
463,249.85645464583334,249.99299311875,67.0,112.0
464,250.08722389583335,250.21607006041665,64.0,117.0
465,250.31799314583333,250.49107008333334,62.0,112.0
466,250.77953164583334,251.07760859375,64.0,112.0
467,251.24107014583333,251.43722400833335,65.0,127.0
468,251.47183939583334,251.59491632916667,67.0,117.0
469,251.70260864583332,251.94683943541668,67.0,102.0
470,252.16414714583334,252.27376253958334,67.0,102.0
471,252.39491639583335,252.52376256041669,67.0,117.0
472,252.62568564583333,252.82760873958333,64.0,102.0
473,252.85645489583334,253.06222414375,69.0,122.0
474,253.08722414583335,253.88914728958335,67.0,122.0
475,254.93337814583333,255.06222431041667,67.0,99.0
476,255.16414739583334,255.40645510833335,69.0,127.0
477,255.39491664583335,255.5833782,72.0,127.0
478,255.85645514583334,255.98914746458334,72.0,127.0
479,256.08722439583335,256.2449167166667,72.0,127.0
480,256.5487628958333,256.7410706041667,64.0,92.0
481,256.77953214583334,257.19491679583336,67.0,117.0
482,257.47183989583334,257.66222452708337,69.0,112.0
483,257.7026091458333,257.9929937854167,67.0,117.0
484,258.85645539583334,259.01222463958334,60.0,97.0
485,259.0872246458333,259.35837851458336,60.0,100.0
486,259.54876314583333,260.10837857708333,60.0,112.0
487,260.70260939583335,260.8026094041667,67.0,107.0
488,260.93337864583333,261.02760942291667,67.0,95.0
489,261.16414789583337,261.2929940604167,67.0,100.0
490,261.39491714583335,261.66991716875,60.0,112.0
491,261.8564556458333,261.94491719166666,60.0,102.0
492,262.08722489583334,262.21607106041665,60.0,95.0
493,262.3179941458333,262.50068646875,57.0,102.0
494,262.54876339583336,262.7218403333333,60.0,127.0
495,262.77953264583334,262.898763425,60.0,100.0
496,263.0103018958333,263.43530193125,60.0,107.0
497,263.47184039583334,264.74684050208333,60.0,117.0
498,265.31799439583335,265.5641482625,60.0,107.0
499,265.7795328958333,266.0026098375,60.0,112.0
500,266.24107139583333,266.60645604166666,62.0,102.0
501,266.70260989583335,268.85837930625,60.0,117.0
502,269.47184089583334,269.637225525,60.0,97.0
503,269.7026101458333,269.8314563104167,62.0,107.0
504,269.93337939583336,270.2122255729167,64.0,97.0
505,270.16414864583334,270.27376403958334,67.0,112.0
506,270.3949178958333,270.49299482708335,67.0,90.0
507,270.62568714583335,270.7256871541667,67.0,117.0
508,270.85645639583333,271.0237641020833,67.0,122.0
509,271.0872256458333,271.36991797708333,67.0,112.0
510,271.54876414583333,271.7468410854167,64.0,112.0
511,271.77953339583337,271.87376417291665,62.0,96.0
512,272.01030264583335,272.1314565020833,62.0,90.0
513,272.24107189583333,272.4218411416667,64.0,100.0
514,272.4718411458333,272.7372257833333,60.0,99.0
515,273.43145661041666,273.5526104666667,57.0,95.0
516,273.6218412416667,273.7583797145833,60.0,95.0
517,273.78722587083337,273.9141489583333,57.0,92.0
518,273.9410720375,274.08530281875,60.0,83.0
519,274.10645666666665,274.21030282916666,57.0,93.0
520,274.24299513958334,274.8314567270833,60.0,99.0
521,275.24107214583336,275.37761061875,55.0,93.0
522,275.47184139583334,275.59684140625,62.0,100.0
523,275.7026106458333,275.8487645041667,62.0,100.0
524,276.16414914583333,276.2814568479167,62.0,112.0
525,276.3949183958333,276.5487645625,62.0,127.0
526,276.62568764583335,276.7429953479167,60.0,102.0
527,276.85645689583333,276.9872261375,59.0,100.0
528,277.0872261458333,279.39299556875,60.0,112.0
