,start,end,pitch,velocity
0,0.8993068500000001,1.6314348625000001,67.0,65.0
1,1.3700978291666668,1.8504967875,55.0,37.0
2,0.887777275,1.8677911500000002,60.0,75.0
3,0.8820124875,1.8812423208333335,48.0,69.0
4,1.7774761458333335,2.0042244541666667,67.0,70.0
5,0.8935420625,2.2386591458333336,64.0,69.0
6,2.2866990416666666,3.1187500375000003,71.0,69.0
7,2.2809342541666666,3.174476316666667,67.0,64.0
8,2.2847774458333334,3.5126771833333335,50.0,49.0
9,2.2905422333333334,3.531893141666667,62.0,53.0
10,3.2378889791666667,3.7067583625,71.0,99.0
11,2.305915,3.7817006,43.0,34.0
12,3.704836766666667,4.039194441666667,62.0,59.0
13,3.4704020750000004,4.139117425,67.0,79.0
14,4.1660197666666665,7.036883941666667,60.0,88.0
15,4.162176575,7.0388055375,65.0,58.0
16,4.148725404166667,7.046491920833334,69.0,60.0
17,4.164098170833333,7.052256708333334,53.0,40.0
18,4.146803808333334,7.069551070833334,41.0,27.0
19,4.160254979166667,7.0810806458333335,48.0,37.0
20,7.196376395833334,7.9727011125,43.0,102.0
21,7.196376395833334,7.980387495833334,67.0,97.0
22,7.196376395833334,7.982309091666667,71.0,97.0
23,7.196376395833334,7.999603454166667,62.0,96.0
24,8.579925395833333,9.096834675,48.0,96.0
25,8.810516895833334,9.1717769125,60.0,93.0
26,8.118742395833333,9.3101318125,36.0,90.0
27,8.349333895833334,9.3447205375,43.0,69.0
28,9.271699895833335,9.521507354166667,48.0,96.0
29,9.041108395833334,9.942336841666668,67.0,127.0
30,9.502291395833334,9.9673175875,64.0,112.0
31,9.732882895833335,9.999984716666667,60.0,100.0
32,10.424657395833334,11.010744125,55.0,86.0
33,11.116431895833333,11.314356266666667,55.0,100.0
34,10.194065895833335,11.372004141666668,50.0,66.0
35,10.655248895833333,11.458475954166667,62.0,83.0
36,9.963474395833334,11.742872137500001,43.0,89.0
37,11.347023395833334,11.758244904166668,67.0,102.0
38,10.885840395833334,11.773617670833334,71.0,127.0
39,11.577614895833333,11.8524031,62.0,102.0
40,12.269389395833334,12.801671441666667,53.0,81.0
41,12.499980895833334,12.8670057,60.0,88.0
42,12.961163895833334,13.153323479166668,53.0,81.0
43,12.730572395833335,13.295521570833333,69.0,117.0
44,11.808206395833334,13.4031309375,41.0,86.0
45,13.422346895833334,13.4723083875,69.0,78.0
46,12.038797895833333,13.649095204166667,48.0,56.0
47,13.191755395833335,13.722115845833335,65.0,99.0
48,13.422346895833334,13.722115845833335,65.0,86.0
49,13.422346895833334,14.421576729166668,60.0,90.0
50,14.344712895833334,14.68867855,53.0,36.0
51,13.422346895833334,14.721345679166667,41.0,76.0
52,14.575304395833335,14.773228766666668,65.0,99.0
53,14.575304395833335,14.782836745833334,60.0,97.0
54,14.114121395833335,14.811660683333335,48.0,59.0
55,14.805895895833334,14.890446112500001,65.0,76.0
56,14.805895895833334,15.486140820833334,62.0,45.0
57,14.805895895833334,15.524572737500002,43.0,97.0
58,14.805895895833334,15.524572737500002,67.0,117.0
59,15.958853395833334,16.183680108333334,57.0,96.0
60,16.189444895833333,16.50266501666667,60.0,72.0
61,15.728261895833334,16.554548104166667,52.0,68.0
62,16.650627895833335,16.817806733333335,52.0,97.0
63,15.497670395833334,16.90235695,45.0,73.0
64,16.881219395833334,16.988828762500003,69.0,72.0
65,16.881219395833334,16.996515145833335,65.0,79.0
66,16.881219395833334,17.002279933333334,60.0,82.0
67,16.881219395833334,17.002279933333334,60.0,107.0
68,16.881219395833334,17.004201529166668,41.0,77.0
69,16.420036395833336,17.336637608333334,64.0,112.0
70,17.111810895833333,17.338559204166668,60.0,97.0
71,17.111810895833333,17.342402395833336,57.0,93.0
72,17.111810895833333,18.053392854166667,69.0,97.0
73,17.111810895833333,18.086059983333335,65.0,97.0
74,17.803585395833334,18.37622095416667,48.0,38.0
75,17.111810895833333,18.601047666666666,41.0,89.0
76,18.495359895833335,18.641401179166667,48.0,90.0
77,18.264768395833336,18.735559375,65.0,117.0
78,18.725951395833334,18.993053216666667,60.0,95.0
79,18.264768395833336,19.008425983333336,69.0,117.0
80,18.956542895833334,19.198663970833334,65.0,82.0
81,19.187134395833333,19.5253352625,67.0,83.0
82,19.187134395833333,19.792437083333333,64.0,66.0
83,19.648317395833335,20.174834654166666,52.0,92.0
84,19.878908895833334,20.2401689125,64.0,83.0
85,19.187134395833333,20.478446795833335,40.0,79.0
86,19.417725895833335,20.503427541666667,47.0,70.0
87,20.109500395833333,20.732097445833336,71.0,127.0
88,20.570683395833335,20.86853075,67.0,117.0
89,20.340091895833336,20.962688945833335,52.0,81.0
90,20.801274895833334,21.54108929166667,64.0,92.0
91,21.493049395833335,21.7390136625,57.0,96.0
92,21.262457895833336,22.044547400000003,52.0,49.0
93,21.723640895833334,22.12909761666667,64.0,81.0
94,22.184823895833336,22.34239475416667,52.0,96.0
95,21.031866395833333,22.398121033333336,45.0,92.0
96,21.954232395833333,22.50957359166667,72.0,127.0
97,22.646006895833334,22.786283391666668,72.0,59.0
98,22.415415395833335,22.803577754166668,69.0,112.0
99,22.876598395833334,23.6413935375,72.0,97.0
100,22.876598395833334,23.727865350000002,69.0,97.0
101,23.568372895833335,23.8258667375,53.0,74.0
102,22.876598395833334,23.8950441875,65.0,95.0
103,24.029555895833333,24.18712675416667,53.0,90.0
104,23.798964395833334,24.335089633333336,72.0,100.0
105,22.876598395833334,24.619485816666668,41.0,77.0
106,23.337781395833336,24.75207592916667,48.0,51.0
107,24.260147395833336,25.245926058333335,65.0,85.0
108,24.490738895833335,25.459223195833335,68.0,112.0
109,24.490738895833335,25.48996872916667,72.0,81.0
110,25.182513395833336,25.714795441666666,53.0,88.0
111,25.413104895833335,25.7628353375,65.0,66.0
112,25.874287895833334,26.052996308333334,53.0,95.0
113,25.643696395833334,26.093349820833335,68.0,112.0
114,25.643696395833334,26.441158666666666,72.0,102.0
115,24.721330395833334,26.44692345416667,41.0,77.0
116,26.104879395833336,26.4719042,65.0,82.0
117,26.335470895833335,26.477668987500003,68.0,89.0
118,24.951921895833333,26.59680792916667,48.0,81.0
119,26.566062395833335,27.12716837916667,62.0,96.0
120,26.566062395833335,27.21364019166667,71.0,88.0
121,26.566062395833335,27.238620937500002,67.0,95.0
122,27.027245395833337,27.524938716666668,55.0,92.0
123,27.257836895833336,27.780510962500003,62.0,86.0
124,27.719019895833334,27.866982775,55.0,96.0
125,27.488428395833335,28.19941885416667,71.0,112.0
126,26.566062395833335,28.23400757916667,43.0,82.0
127,26.796653895833334,28.4261671625,50.0,81.0
128,28.180202895833336,28.948841229166668,62.0,96.0
129,27.949611395833333,29.165981558333335,67.0,92.0
130,28.871977395833333,29.43884816666667,55.0,90.0
131,29.102568895833336,29.665596475,62.0,75.0
132,29.563751895833335,29.719401158333334,55.0,102.0
133,29.333160395833335,30.005718937500003,71.0,127.0
134,29.794343395833334,30.065288408333334,67.0,112.0
135,28.410794395833335,30.161368200000002,43.0,86.0
136,28.641385895833334,30.290115120833335,50.0,55.0
137,30.255526395833336,31.039537495833336,71.0,102.0
138,30.255526395833336,31.09334217916667,67.0,102.0
139,30.947300895833337,31.26052101666667,55.0,74.0
140,30.024934895833336,31.337384850000003,62.0,88.0
141,31.408483895833335,31.5910355,55.0,70.0
142,30.255526395833336,32.03300254166667,43.0,99.0
143,31.177892395833336,32.0522185,71.0,117.0
144,31.869666895833337,32.08872882083333,67.0,77.0
145,31.639075395833334,32.109866375,62.0,77.0
146,32.100258395833336,32.109866375,62.0,73.0
147,30.716709395833334,32.192494995833336,50.0,58.0
148,32.100258395833336,32.863131941666666,71.0,82.0
149,32.100258395833336,32.90925024166667,67.0,83.0
150,32.561441395833334,33.130233762500005,50.0,53.0
151,33.02262439583333,33.5683576125,62.0,83.0
152,32.100258395833336,33.76051719583334,43.0,79.0
153,33.02262439583333,33.764360387500005,71.0,97.0
154,33.02262439583333,33.766281983333336,67.0,93.0
155,33.02262439583333,33.80855709166667,55.0,90.0
156,33.48380739583334,33.87773454166667,50.0,85.0
157,33.714398895833334,33.90463688333333,62.0,55.0
158,33.94499039583334,35.981881979166666,55.0,86.0
159,33.94499039583334,36.160590391666666,50.0,78.0
160,33.94499039583334,36.19902230833333,62.0,77.0
161,33.94499039583334,36.19902230833333,67.0,93.0
162,33.94499039583334,36.22976784166667,71.0,92.0
163,33.94499039583334,36.23361103333333,43.0,77.0
164,37.63445439583334,38.856589345833335,36.0,83.0
165,38.095637395833336,38.8604325375,43.0,43.0
166,38.556820395833334,39.125612762500005,48.0,63.0
167,38.556820395833334,39.463813629166665,64.0,95.0
168,39.01800339583333,39.617541295833334,55.0,93.0
169,39.47918639583334,40.60524155416667,43.0,67.0
170,39.940369395833336,40.6936349625,50.0,63.0
171,40.86273539583333,41.341212758333334,59.0,74.0
172,40.401552395833335,41.3508207375,62.0,107.0
173,41.78510139583334,42.3538937625,52.0,50.0
174,41.32391839583334,42.40962004166667,45.0,72.0
175,42.70746739583333,43.14174805416667,60.0,86.0
176,42.246284395833335,43.14751284166667,64.0,100.0
177,44.091016395833336,44.402314920833334,52.0,52.0
178,43.16865039583334,44.636749612500005,40.0,59.0
179,43.62983339583334,44.92883217916667,47.0,53.0
180,44.552199395833334,45.01338239583334,64.0,54.0
181,44.091016395833336,45.01338239583334,67.0,90.0
182,45.935748395833336,46.20285021666667,53.0,79.0
183,45.47456539583334,46.20669340833334,48.0,43.0
184,46.396931395833334,46.702465133333334,60.0,77.0
185,45.935748395833336,46.76203460416667,69.0,89.0
186,45.01338239583334,46.775485775,41.0,73.0
187,46.85811439583333,47.31545420416667,40.0,78.0
188,47.31929739583334,47.84581465416667,64.0,77.0
189,47.78048039583334,48.4069206375,45.0,72.0
190,47.78048039583334,48.69323841666667,69.0,68.0
191,47.78048039583334,48.7009248,72.0,66.0
192,49.62521239583334,49.92719977083334,53.0,70.0
193,48.70284639583333,50.162291208333336,41.0,81.0
194,49.62521239583334,50.24830027083334,65.0,89.0
195,50.083927395833335,50.26550208333334,60.0,70.0
196,49.16402939583334,50.378269520833335,48.0,50.0
197,50.313284895833334,51.29187689583334,71.0,85.0
198,50.313284895833334,51.36068414583334,67.0,74.0
199,51.00135739583334,51.834689645833336,50.0,44.0
200,51.689429895833335,51.88438377083334,55.0,67.0
201,50.313284895833334,51.892029020833334,43.0,73.0
202,51.460072395833336,52.331630895833335,71.0,86.0
203,51.918787395833334,52.373679770833334,67.0,85.0
204,52.14814489583334,52.40234945833334,62.0,67.0
205,52.83621739583334,53.48988627083334,43.0,45.0
206,52.37750239583334,53.54340302083334,36.0,66.0
207,53.294932395833335,53.791873645833334,48.0,51.0
208,53.75364739583334,54.22191895833333,60.0,71.0
209,53.294932395833335,54.242943395833336,64.0,92.0
210,55.129792395833334,55.43177977083334,55.0,70.0
211,54.21236239583334,55.87329295833334,43.0,70.0
212,55.58850739583334,55.88284952083334,67.0,72.0
213,54.671077395833336,55.890494770833335,50.0,47.0
214,55.129792395833334,55.89622870833334,71.0,99.0
215,56.96465239583334,57.22902014583334,57.0,72.0
216,56.505937395833335,57.271165729166675,52.0,42.0
217,56.04722239583334,57.343962645833344,45.0,100.0
218,56.96465239583334,57.90909660416667,69.0,95.0
219,57.42442239583334,57.956989312500006,64.0,89.0
220,58.80373239583334,59.148559895833344,52.0,56.0
221,57.88419239583334,59.370782062500005,40.0,72.0
222,58.80373239583334,59.67154827083334,71.0,100.0
223,59.26350239583334,59.684958229166675,64.0,77.0
224,59.03361739583334,59.68687393750001,67.0,65.0
225,58.34396239583334,59.715609562500006,47.0,59.0
226,60.64281239583334,60.91867439583334,53.0,70.0
227,60.18304239583334,60.92059010416668,48.0,50.0
228,60.64281239583334,61.17154789583334,69.0,97.0
229,61.10258239583334,61.485724062500005,65.0,79.0
230,59.72327239583334,61.50679685416667,41.0,75.0
231,61.562352395833344,62.06235243750001,40.0,78.0
232,61.562352395833344,62.10273705625001,67.0,86.0
233,61.562352395833344,62.11042936458335,71.0,81.0
234,61.562352395833344,62.34696784583334,64.0,77.0
235,62.48542939583334,63.02581405625001,45.0,79.0
236,62.48542939583334,63.18927560833335,69.0,99.0
237,62.946967895833346,63.323891004166676,64.0,74.0
238,63.40850639583334,63.90273720625001,69.0,75.0
239,63.40850639583334,64.10850645416667,41.0,81.0
240,63.40850639583334,64.24119877291668,65.0,78.0
241,64.33158339583335,64.69889111875001,43.0,97.0
242,64.33158339583335,64.84312190000001,71.0,99.0
243,64.33158339583335,64.89504498125001,67.0,97.0
244,64.33158339583335,65.03927576250001,62.0,95.0
245,65.71619889583334,66.19504508958335,48.0,89.0
246,65.94696814583334,66.22389124583334,60.0,71.0
247,66.40850664583334,66.62581435625,48.0,97.0
248,66.63927589583335,66.66812205208335,60.0,72.0
249,66.63927589583335,66.87389130000001,62.0,88.0
250,66.17773739583335,66.88158360833334,67.0,127.0
251,65.25466039583334,66.92966053541667,36.0,93.0
252,65.48542964583335,67.03350669791668,43.0,78.0
253,66.87004514583334,67.10081439583334,64.0,97.0
254,67.56235289583334,68.10081447916667,48.0,88.0
255,67.79312214583334,68.15850679166668,60.0,76.0
256,67.10081439583334,68.54889143958334,36.0,90.0
257,67.33158364583335,68.58350682708334,43.0,79.0
258,68.02389139583335,68.58542990416667,67.0,100.0
259,68.48542989583335,68.66812221875001,64.0,117.0
260,68.25466064583334,68.67581452708335,48.0,86.0
261,68.71619914583334,68.99119916875001,64.0,82.0
262,69.40850689583334,69.73350692291667,55.0,85.0
263,69.17773764583335,69.94504540208334,50.0,72.0
264,69.63927614583335,69.97389155833335,62.0,93.0
265,68.94696839583334,70.57389160833334,43.0,74.0
266,70.10081464583334,70.64696853750002,50.0,72.0
267,70.33158389583335,70.67773777083335,67.0,117.0
268,69.87004539583334,70.68927623333335,71.0,127.0
269,70.56235314583334,70.80658393541668,62.0,107.0
270,71.25466089583334,71.77004555416667,53.0,75.0
271,71.48543014583335,71.87196863958334,60.0,76.0
272,71.94696864583335,72.09119942708334,53.0,83.0
273,70.79312239583334,72.52581484791668,41.0,70.0
274,72.17773789583335,72.52773792500001,60.0,96.0
275,71.71619939583334,72.53735331041668,69.0,122.0
276,72.40850714583334,72.61427639375,65.0,102.0
277,71.02389164583334,72.65466101250001,48.0,75.0
278,73.10081489583334,73.42581492291667,55.0,93.0
279,72.87004564583334,73.63927647916668,50.0,86.0
280,73.33158414583335,73.69889186875001,62.0,99.0
281,73.79312264583334,73.94119958125,50.0,96.0
282,72.63927639583335,74.00081497083335,43.0,73.0
283,73.56235339583334,74.33735346041668,71.0,127.0
284,74.02389189583334,74.36043038541668,67.0,122.0
285,74.25466114583334,74.55081501666668,62.0,112.0
286,74.94696889583335,75.48350740208335,48.0,79.0
287,75.17773814583335,75.50466125000001,60.0,93.0
288,74.48543039583335,75.73735357708334,36.0,88.0
289,74.71619964583334,75.75658434791667,43.0,72.0
290,75.63927664583335,75.92389205416667,48.0,95.0
291,75.40850739583334,76.26235362083334,67.0,117.0
292,75.87004589583334,76.28158439166668,64.0,122.0
293,76.10081514583334,76.33927670416668,60.0,97.0
294,76.79312289583335,77.13158446250002,55.0,90.0
295,77.02389214583334,77.22966139375,62.0,107.0
296,76.56235364583334,77.37773832916668,50.0,78.0
297,77.48543064583335,77.66427681458335,50.0,82.0
298,77.71619989583334,78.01812299791668,67.0,122.0
299,77.25466139583334,78.03543069166668,71.0,127.0
300,76.33158439583335,78.05273838541667,43.0,86.0
301,77.94696914583335,78.16619993333335,62.0,100.0
302,79.33158464583335,79.67773852083334,50.0,45.0
303,79.10081539583334,79.82004622500001,69.0,127.0
304,79.56235389583334,79.82389237916668,62.0,92.0
305,78.17773839583334,79.88158469166667,38.0,97.0
306,79.79312314583335,79.94312315833335,65.0,83.0
307,78.63927689583335,80.02773855000001,45.0,51.0
308,80.02389239583334,80.63543090833335,71.0,107.0
309,80.02389239583334,80.67004629583334,64.0,97.0
310,80.02389239583334,80.71620014583334,40.0,96.0
311,80.02389239583334,80.71620014583334,67.0,112.0
312,80.94696939583335,81.26812326875,41.0,85.0
313,80.94696939583335,81.36043096875001,69.0,95.0
314,80.94696939583335,81.44312328333334,60.0,96.0
315,80.94696939583335,81.51812328958334,65.0,95.0
316,81.63927714583335,82.74889262291669,62.0,99.0
317,81.63927714583335,82.76620031666667,67.0,100.0
318,81.63927714583335,82.76812339375002,71.0,97.0
319,81.63927714583335,82.773892625,43.0,96.0
320,82.79312339583335,83.11812342291668,72.0,96.0
321,82.79312339583335,83.13543111666668,65.0,93.0
322,82.79312339583335,83.18350804375001,69.0,99.0
323,82.79312339583335,83.22004650833334,41.0,102.0
324,83.25466189583335,83.52389268750001,74.0,102.0
325,83.25466189583335,83.53350807291667,67.0,97.0
326,83.25466189583335,83.53735422708334,71.0,102.0
327,83.25466189583335,83.58543115416668,43.0,107.0
328,84.17773889583334,84.66620047500001,48.0,97.0
329,84.40850814583334,84.76427740625002,60.0,96.0
330,83.94696964583335,84.89889280208334,43.0,79.0
331,83.71620039583334,84.90273895625,36.0,90.0
332,84.87004664583334,85.02773896666667,48.0,86.0
333,84.63927739583335,85.4392774625,67.0,127.0
334,85.10081589583334,85.52196977708334,64.0,112.0
335,85.33158514583334,85.62581593958335,60.0,99.0
336,86.02389289583334,86.29696984166668,55.0,95.0
337,86.25466214583335,86.60081602083335,62.0,100.0
338,85.79312364583335,86.61043140625002,50.0,74.0
339,86.71620064583334,86.88927758333334,50.0,107.0
340,85.56235439583334,86.97196989791668,43.0,90.0
341,86.48543139583334,87.29120069375001,71.0,127.0
342,86.94696989583335,87.33735454375001,67.0,127.0
343,87.17773914583334,87.43927762916668,62.0,117.0
344,88.10081614583333,88.32197001041668,60.0,97.0
345,87.87004689583334,88.37773924583334,53.0,93.0
346,87.63927764583335,88.60081618750002,48.0,88.0
347,87.40850839583334,88.63158542083335,41.0,86.0
348,88.56235464583335,88.73735466041668,53.0,89.0
349,88.33158539583334,89.08350853541668,69.0,122.0
350,88.79312389583335,89.09312392083334,65.0,107.0
351,89.02389314583334,89.33350855625001,60.0,100.0
352,89.48543164583334,89.82197013541668,60.0,96.0
353,89.71620089583334,90.08927785,67.0,117.0
354,89.25466239583335,90.14697016250001,48.0,100.0
355,89.94697014583335,90.22389324583335,64.0,102.0
356,90.40850864583334,90.78158560000001,60.0,95.0
357,90.63927789583335,90.91620099583335,67.0,102.0
358,90.17773939583334,91.02197023541667,47.0,97.0
359,90.87004714583334,91.11427793541668,64.0,72.0
360,91.56235489583335,91.77966260625001,57.0,99.0
361,91.79312414583335,92.01043185625001,60.0,112.0
362,91.33158564583334,92.11812417291668,52.0,74.0
363,92.25466264583335,92.41620112083334,52.0,95.0
364,91.10081639583335,92.46620112500001,45.0,92.0
365,92.71620114583334,92.73350883958335,55.0,70.0
366,92.48543189583334,92.89312423750002,60.0,107.0
367,92.02389339583334,92.91427808541667,64.0,112.0
368,92.71620114583334,92.93350885625001,57.0,83.0
369,93.40850889583334,93.89889355208334,52.0,90.0
370,93.63927814583334,94.00273971458334,59.0,99.0
371,94.10081664583333,94.25850896666668,52.0,107.0
372,93.87004739583335,94.62389361250001,67.0,122.0
373,92.94697039583335,94.64312438333334,40.0,86.0
374,94.33158589583334,94.70850900416667,64.0,112.0
375,94.56235514583335,94.79504747291668,59.0,100.0
376,93.17773964583334,94.80850901250001,47.0,74.0
377,95.25466289583335,95.77197063125001,53.0,97.0
378,95.48543214583334,95.81620140416668,60.0,97.0
379,95.94697064583335,96.13158604583334,53.0,88.0
380,94.79312439583335,96.50658607708334,41.0,90.0
381,96.17773989583334,96.61620147083335,60.0,95.0
382,95.71620139583334,96.62389377916668,69.0,122.0
383,96.40850914583334,96.62966301041668,65.0,122.0
384,95.02389364583334,96.65658608958334,48.0,88.0
385,97.10081689583333,97.63543232500001,55.0,96.0
386,97.33158614583334,97.67004771250001,62.0,100.0
387,96.87004764583335,97.92389388750001,50.0,90.0
388,97.79312464583334,97.93543235000001,55.0,95.0
389,96.63927839583334,98.02389389583334,43.0,92.0
390,97.79312464583334,98.0623554375,67.0,99.0
391,97.56235539583335,98.09312467083333,71.0,127.0
392,98.02389389583334,98.29889391875001,62.0,112.0
393,98.25466314583335,98.54312470833335,64.0,92.0
394,98.94697089583335,99.47581709375001,48.0,92.0
395,99.17774014583334,99.51427863541667,60.0,96.0
396,98.48543239583334,99.68927865,36.0,95.0
397,98.71620164583334,99.72004788333334,43.0,79.0
398,99.63927864583334,99.85658635625,48.0,95.0
399,99.87004789583335,99.92581713125,60.0,38.0
400,99.40850939583333,100.26620177500001,67.0,122.0
401,99.87004789583335,100.28543254583334,64.0,112.0
402,100.10081714583335,100.33927870416667,60.0,99.0
403,100.79312489583334,101.32966340208334,55.0,99.0
404,101.02389414583334,101.50850957083335,62.0,97.0
405,101.48543264583334,101.6854326625,55.0,100.0
406,101.25466339583335,101.91620191250001,71.0,127.0
407,100.56235564583335,102.00466345833334,50.0,72.0
408,100.33158639583334,102.0315865375,43.0,90.0
409,101.71620189583334,102.16620193333334,67.0,96.0
410,101.94697114583334,102.17774039583335,62.0,100.0
411,102.87004814583335,103.081586625,60.0,95.0
412,102.63927889583334,103.16043278541667,53.0,88.0
413,103.33158664583334,103.50274050625,53.0,95.0
414,102.40850964583333,103.50850973750002,48.0,88.0
415,102.17774039583335,103.52966358541667,41.0,96.0
416,103.10081739583335,103.87581746041667,69.0,127.0
417,103.56235589583335,103.90081746250002,65.0,107.0
418,103.79312514583334,104.11043286458334,60.0,102.0
419,104.25466364583335,104.60081752083335,60.0,83.0
420,104.71620214583334,104.93735601041668,60.0,93.0
421,104.02389439583334,104.94120216458334,48.0,93.0
422,104.48543289583334,104.94312524166668,67.0,107.0
423,105.17774064583335,105.53158682916668,59.0,78.0
424,105.40850989583333,105.666202225,60.0,97.0
425,104.94697139583334,105.71043299791668,47.0,97.0
426,105.63927914583334,105.85466377916669,64.0,99.0
427,106.33158689583334,106.64697153750001,57.0,93.0
428,106.56235614583335,106.89504848125,64.0,96.0
429,106.10081764583335,106.91235617500001,52.0,83.0
430,107.02389464583334,107.1546638875,52.0,88.0
431,105.87004839583335,107.19504850625,45.0,67.0
432,107.25466389583335,107.68158700833334,69.0,86.0
433,106.79312539583334,107.71043316458335,72.0,127.0
434,107.48543314583334,107.72389470416667,64.0,100.0
435,108.17774089583335,108.70851017083334,52.0,59.0
436,108.40851014583335,108.74697171250001,59.0,86.0
437,108.87004864583335,109.05274096875002,52.0,82.0
438,107.71620239583334,109.41812561458335,40.0,70.0
439,109.10081789583334,109.42774100000001,64.0,93.0
440,108.63927939583334,109.43543330833334,67.0,107.0
441,109.33158714583334,109.44889484791668,59.0,89.0
442,107.94697164583334,109.50658716041667,47.0,61.0
443,110.02389489583334,110.56043340208333,53.0,97.0
444,109.56235639583335,110.75658726458335,41.0,88.0
445,110.25466414583335,110.77966418958334,60.0,86.0
446,110.48543339583334,110.78735649791668,69.0,117.0
447,110.71620264583333,110.80658726875001,65.0,47.0
448,109.79312564583334,110.97389497500001,48.0,93.0
449,110.94697189583334,112.17966430625,67.0,93.0
450,110.94697189583334,112.22004892500001,71.0,97.0
451,110.94697189583334,112.23543354166668,62.0,93.0
452,111.87004889583335,112.41812586458335,50.0,49.0
453,112.56235664583335,112.70658742708335,50.0,83.0
454,110.94697189583334,112.75274127708335,43.0,78.0
455,112.33158739583334,113.19312592916668,67.0,117.0
456,112.79312589583334,113.27966439791668,62.0,83.0
457,113.94697214583334,114.27581832708334,60.0,85.0
458,113.71620289583333,114.27966448125001,48.0,77.0
459,113.25466439583334,114.98351069375002,36.0,74.0
460,113.48543364583335,115.19120301875,43.0,48.0
461,114.40851064583335,116.41529999583334,48.0,68.0
462,115.10081839583334,116.57262929583334,36.0,68.0
463,114.63927989583334,117.05421044583333,64.0,59.0
464,114.87004914583335,117.07339694583334,60.0,68.0
465,114.17774139583335,117.08299019583333,67.0,112.0
466,117.40532339583334,117.81975179583334,48.0,62.0
467,116.94484739583334,117.86388074583334,36.0,79.0
468,117.17508539583334,117.86963669583334,43.0,34.0
469,117.63556139583334,117.88306724583333,60.0,55.0
470,117.86579939583333,118.73302919583334,67.0,86.0
471,117.86579939583333,118.75989029583333,64.0,73.0
472,118.32627539583333,118.86157874583334,60.0,66.0
473,119.24722739583333,119.90724299583333,50.0,48.0
474,119.70770339583333,119.93218544583334,55.0,77.0
475,118.78675139583333,120.07800284583334,43.0,73.0
476,120.16817939583333,120.60755024583334,67.0,63.0
477,119.70770339583333,120.62673674583334,71.0,97.0
478,121.54960739583333,121.82781164583334,53.0,72.0
479,120.62865539583333,122.32666064583333,41.0,72.0
480,121.54960739583333,122.45329154583334,69.0,89.0
481,121.08913139583333,122.45904749583333,48.0,36.0
482,122.01008339583333,122.48207129583334,60.0,66.0
483,123.16127339583333,123.48744389583334,55.0,96.0
484,123.39151139583333,123.70808864583333,62.0,117.0
485,123.39151139583333,123.73494974583333,67.0,117.0
486,123.39151139583333,123.73494974583333,71.0,117.0
487,123.62174939583333,123.83280089583333,55.0,122.0
488,122.47055939583333,124.21653089583333,43.0,75.0
489,123.85198739583333,124.24147334583334,67.0,127.0
490,123.85198739583333,124.24531064583334,71.0,127.0
491,122.93103539583333,124.25682254583333,50.0,67.0
492,124.08222539583333,124.26833444583333,62.0,102.0
493,125.00317739583333,125.19312374583333,60.0,92.0
494,125.23341539583333,125.55574859583334,67.0,127.0
495,124.77293939583333,125.56342319583334,48.0,93.0
496,124.31246339583333,125.61138944583334,36.0,96.0
497,124.54270139583333,125.63057594583333,43.0,85.0
498,125.46365339583333,125.65551839583334,64.0,122.0
499,125.69389139583333,125.78790524583334,36.0,65.0
500,125.69389139583333,125.79366119583334,43.0,96.0
501,125.69389139583333,125.80517309583334,48.0,107.0
502,125.69389139583333,125.80901039583334,67.0,112.0
503,125.69389139583333,125.81284769583334,64.0,58.0
504,125.69389139583333,125.82435959583333,60.0,107.0
505,125.92412939583333,126.01814324583333,43.0,95.0
506,125.92412939583333,126.43257164583333,60.0,127.0
507,125.92412939583333,126.55536524583334,64.0,102.0
508,125.92412939583333,126.67624019583333,48.0,122.0
509,125.92412939583333,126.69734534583334,67.0,107.0
510,126.61484339583333,127.06572614583334,60.0,100.0
511,126.84508139583333,127.19811299583334,48.0,97.0
512,126.38460539583333,127.32666254583333,43.0,77.0
513,125.92412939583333,127.36503554583334,36.0,93.0
514,127.30555739583333,127.48399184583333,48.0,96.0
515,127.07531939583333,127.89650159583334,67.0,127.0
516,127.53579539583333,127.92528134583334,64.0,122.0
517,127.76603339583333,127.95789839583334,60.0,102.0
518,128.45674739583333,128.92681664583333,57.0,93.0
519,128.68698539583335,128.95943369583333,64.0,95.0
520,128.91722339583333,128.95943369583333,64.0,93.0
521,127.76603339583333,128.97670154583335,45.0,85.0
522,127.99627139583333,129.12635624583334,52.0,92.0
523,128.91722339583333,129.28560419583334,72.0,127.0
524,129.37769939583333,129.49665569583334,64.0,72.0
525,129.37769939583333,129.49857434583333,45.0,85.0
526,129.37769939583333,129.49857434583333,69.0,85.0
527,129.37769939583333,129.51392354583334,72.0,90.0
528,129.60793739583335,130.42720094583333,64.0,97.0
529,129.60793739583335,130.55383184583334,72.0,100.0
530,129.60793739583335,130.59412349583334,69.0,100.0
531,130.52888939583335,130.87808369583334,57.0,100.0
532,130.98936539583335,131.13326414583332,57.0,100.0
533,129.60793739583335,131.21768474583334,45.0,93.0
534,130.29865139583333,131.21960339583333,52.0,83.0
535,131.21960339583333,131.61292664583334,69.0,107.0
536,130.75912739583333,131.62060124583334,72.0,127.0
537,131.44984139583335,131.69350994583334,64.0,112.0
538,132.14055539583333,132.68161469583333,53.0,86.0
539,132.37079339583335,132.69888254583333,60.0,102.0
540,132.83126939583335,133.01545979583335,53.0,93.0
541,131.91031739583335,133.03848359583333,48.0,70.0
542,133.06150739583333,133.36081679583333,60.0,112.0
543,131.68007939583333,133.41837629583333,41.0,92.0
544,133.98245939583333,134.49665759583334,52.0,89.0
545,134.21269739583335,134.52351869583333,64.0,100.0
546,133.75222139583335,134.81131619583334,47.0,75.0
547,134.67317339583335,134.84777054583333,52.0,107.0
548,133.52198339583333,135.00126254583333,40.0,83.0
549,134.90341139583333,135.14132399583335,67.0,112.0
550,134.44293539583333,135.18353429583334,71.0,127.0
551,135.13364939583334,135.28714139583334,64.0,100.0
552,135.82436339583333,136.35007349583333,62.0,72.0
553,135.82436339583333,136.37501594583333,45.0,73.0
554,135.36388739583333,136.39420244583334,38.0,96.0
555,136.28483939583333,136.41147029583334,50.0,69.0
556,136.74531539583333,137.22689654583334,71.0,127.0
557,136.74531539583333,137.26526954583335,67.0,122.0
558,136.74531539583333,137.26910684583333,64.0,107.0
559,136.74531539583333,137.42643614583335,40.0,96.0
560,137.66626739583333,138.19581479583334,60.0,127.0
561,137.66626739583333,138.20540804583334,69.0,107.0
562,137.66626739583333,138.25337429583334,65.0,117.0
563,137.66626739583333,138.26104889583334,41.0,99.0
564,138.35698139583334,138.92873909583335,71.0,127.0
565,138.35698139583334,138.93641369583332,67.0,127.0
566,138.35698139583334,138.94792559583334,43.0,127.0
567,138.35698139583334,138.95368154583335,62.0,112.0
568,139.04769539583333,139.26642149583333,60.0,97.0
569,139.04769539583333,139.27409609583333,69.0,99.0
570,139.04769539583333,139.31246909583334,65.0,100.0
571,139.10333624583333,139.37770319583333,41.0,100.0
572,139.35467939583333,139.55613764583333,71.0,97.0
573,139.35467939583333,139.55997494583335,62.0,93.0
574,139.35467939583333,139.56189359583334,67.0,83.0
575,139.39113374583334,139.64631419583333,43.0,72.0
576,139.66166339583333,139.83242324583333,69.0,102.0
577,139.66166339583333,139.83242324583333,72.0,102.0
578,139.65782609583334,139.85928434583334,45.0,95.0
579,139.96864739583333,140.63441894583335,45.0,83.0
580,139.96864739583333,140.63441894583335,45.0,100.0
581,140.65936139583334,140.85698234583333,64.0,82.0
582,140.42912339583333,140.91837914583334,57.0,93.0
583,140.19888539583334,140.97018269583333,52.0,64.0
584,140.88959939583333,141.42106544583334,72.0,107.0
585,140.88959939583333,141.42298409583333,69.0,99.0
586,141.11983739583334,141.78369029583334,52.0,92.0
587,141.35007539583333,141.87386684583333,64.0,75.0
588,141.58031339583334,142.10026754583333,72.0,88.0
589,141.58031339583334,142.10410484583335,69.0,82.0
590,142.04078939583334,142.32283094583335,64.0,88.0
591,141.81055139583333,142.44178724583332,45.0,92.0
592,142.27102739583333,142.46864834583334,72.0,100.0
593,142.27102739583333,142.47440429583332,69.0,95.0
594,142.63173359583334,142.90610054583334,41.0,99.0
595,142.73150339583333,142.96174139583334,60.0,122.0
596,142.73150339583333,142.96749734583335,69.0,112.0
597,142.73150339583333,143.00587034583333,65.0,112.0
598,143.03848739583333,143.24953889583333,62.0,97.0
599,142.95790409583333,143.25145754583335,43.0,102.0
600,143.03848739583333,143.25913214583335,71.0,102.0
601,143.03848739583333,143.26105079583334,67.0,102.0
602,143.29942379583332,143.58338399583334,45.0,102.0
603,143.34547139583333,143.61024509583333,64.0,99.0
604,143.34547139583333,143.61408239583335,69.0,112.0
605,143.34547139583333,143.61791969583334,72.0,117.0
606,143.65245539583333,143.90379854583333,57.0,93.0
607,143.65245539583333,143.92298504583334,52.0,88.0
608,143.65245539583333,143.98054454583334,45.0,77.0
609,143.65245539583333,144.05920919583335,72.0,102.0
610,143.65245539583333,144.06112784583334,69.0,100.0
611,143.65245539583333,144.14554844583333,64.0,102.0
612,144.57340739583333,145.39842689583332,69.0,102.0
613,144.57340739583333,145.41953204583334,66.0,127.0
614,144.57340739583333,145.44447449583333,62.0,102.0
615,144.57340739583333,145.62674624583335,50.0,93.0
616,144.57340739583333,145.82244854583334,38.0,74.0
617,144.57340739583333,145.85698424583333,45.0,90.0
618,145.72459739583334,145.93181159583332,50.0,86.0
619,145.49435939583333,145.98361514583334,66.0,127.0
620,145.49435939583333,146.24838884583335,69.0,112.0
621,145.95483539583333,146.29635509583335,62.0,112.0
622,146.18507339583334,146.30786699583334,66.0,100.0
623,146.41531139583333,147.34777529583334,67.0,112.0
624,146.41531139583333,147.35544989583335,71.0,100.0
625,146.41531139583333,147.38231099583334,62.0,107.0
626,146.41531139583333,147.65859659583333,43.0,90.0
627,147.33626339583333,147.66818984583333,55.0,112.0
628,146.87578739583333,147.69121364583333,50.0,42.0
629,147.79673939583333,147.82551914583334,50.0,48.0
630,147.79673939583333,148.99013969583334,71.0,96.0
631,147.79673939583333,149.06688569583332,67.0,100.0
632,147.79673939583333,149.08799084583333,62.0,107.0
633,147.79673939583333,149.24532014583335,55.0,97.0
634,149.40840539583334,149.55997874583335,55.0,86.0
635,149.17816739583333,149.70004019583334,71.0,117.0
636,147.79673939583333,149.81899649583335,43.0,75.0
637,149.63864339583333,150.02429204583333,69.0,107.0
638,148.71769139583333,150.08952614583333,50.0,43.0
639,150.09911939583333,150.89152184583332,71.0,95.0
640,150.09911939583333,150.91838294583334,67.0,97.0
641,150.09911939583333,151.08338684583333,62.0,102.0
642,150.55959539583333,151.29635699583332,50.0,61.0
643,150.09911939583333,151.33472999583333,43.0,86.0
644,151.02007139583333,151.39037084583333,71.0,95.0
645,151.48054739583333,151.75683299583335,43.0,59.0
646,151.48054739583333,151.77026354583333,55.0,75.0
647,151.48054739583333,151.78945004583335,62.0,99.0
648,151.48054739583333,151.79520599583333,50.0,56.0
649,151.48054739583333,151.80671789583334,67.0,99.0
650,151.48054739583333,151.81055519583333,71.0,96.0
651,151.94102339583333,152.73726314583334,67.0,99.0
652,151.94102339583333,152.74110044583335,71.0,92.0
653,151.94102339583333,152.75453099583333,62.0,100.0
654,152.86197539583333,152.94255869583333,62.0,53.0
655,152.86197539583333,153.41070929583333,67.0,112.0
656,151.94102339583333,153.65629649583335,43.0,61.0
657,151.94102339583333,153.66588974583334,55.0,75.0
658,152.86197539583333,153.67548299583333,71.0,102.0
659,151.94102339583333,153.68315759583334,50.0,68.0
660,153.32245139583333,153.68891354583334,62.0,97.0
661,153.55268939583334,153.70042544583333,67.0,48.0
662,153.78292739583333,156.90457094583334,55.0,96.0
663,153.78292739583333,156.91224554583334,67.0,102.0
664,153.78292739583333,156.91992014583334,62.0,107.0
665,153.78292739583333,156.93143204583333,50.0,93.0
666,153.78292739583333,156.93910664583333,71.0,102.0
667,153.78292739583333,157.03312049583334,43.0,76.0
668,158.38768739583332,158.61792539583334,48.0,59.0
669,158.38768739583332,158.61792539583334,55.0,59.0
670,158.38768739583332,158.61792539583334,60.0,59.0
671,157.46673539583333,158.68699679583335,36.0,53.0
672,157.92721139583335,158.69083409583334,43.0,53.0
673,158.38768739583332,159.29329019583332,64.0,59.0
674,158.84816339583335,159.44678219583335,48.0,57.0
675,159.30863939583332,160.43296829583335,43.0,67.0
676,160.22959139583332,160.45982939583334,55.0,64.0
677,159.76911539583335,160.52122619583332,50.0,66.0
678,160.22959139583332,160.69006739583335,59.0,64.0
679,160.69006739583335,161.16781124583332,43.0,74.0
680,160.22959139583332,161.17740449583334,62.0,63.0
681,161.61101939583335,162.17893979583334,52.0,50.0
682,161.15054339583332,162.23458064583335,45.0,72.0
683,162.53197139583335,162.76220939583334,45.0,60.0
684,162.07149539583332,162.76220939583334,57.0,63.0
685,162.07149539583332,162.97134224583334,64.0,63.0
686,162.07149539583332,162.99244739583332,60.0,63.0
687,163.91339939583332,164.22422069583334,52.0,63.0
688,163.91339939583332,164.37387539583335,59.0,63.0
689,163.91339939583332,164.37387539583335,64.0,63.0
690,162.99244739583332,164.45829599583334,40.0,62.0
691,163.45292339583335,164.74993079583334,47.0,63.0
692,164.37387539583335,164.83435139583332,52.0,66.0
693,163.91339939583332,164.83435139583332,67.0,63.0
694,165.75530339583332,165.98554139583334,60.0,69.0
695,165.75530339583332,166.02199574583335,53.0,69.0
696,165.29482739583335,166.02583304583334,48.0,67.0
697,165.75530339583332,166.21577939583335,65.0,69.0
698,166.21577939583335,166.52084474583333,53.0,77.0
699,165.75530339583332,166.58032289583332,69.0,69.0
700,164.83435139583332,166.59375344583333,41.0,73.0
701,166.67625539583332,167.13289409583334,40.0,78.0
702,167.13673139583335,167.36696939583334,64.0,76.0
703,167.59720739583332,168.05768339583335,45.0,76.0
704,167.59720739583332,168.05768339583335,64.0,76.0
705,168.05768339583335,168.28792139583334,57.0,76.0
706,167.59720739583332,168.50856614583333,69.0,76.0
707,167.59720739583332,168.51624074583333,72.0,76.0
708,168.51815939583332,169.66934939583334,41.0,81.0
709,169.43911139583332,169.74225809583334,53.0,75.0
710,169.43911139583332,169.89958739583335,60.0,73.0
711,169.43911139583332,170.06459129583334,65.0,75.0
712,169.89958739583335,170.08185914583333,41.0,75.0
713,168.97863539583335,170.19505949583333,48.0,73.0
714,170.36006339583332,170.82053939583335,55.0,75.0
715,170.36006339583332,171.11217419583335,71.0,75.0
716,170.36006339583332,171.18124559583333,67.0,75.0
717,171.28101539583332,171.51125339583334,55.0,75.0
718,170.82053939583335,171.65707079583333,50.0,75.0
719,170.36006339583332,171.71463029583333,43.0,75.0
720,171.28101539583332,171.74149139583335,67.0,75.0
721,171.74149139583335,171.93719369583334,55.0,75.0
722,171.28101539583332,172.15591979583334,71.0,75.0
723,171.74149139583335,172.19813009583333,67.0,75.0
724,171.97172939583334,172.22690984583335,62.0,67.0
725,172.66244339583335,173.31862169583334,43.0,66.0
726,173.12291939583332,173.35315739583334,60.0,66.0
727,172.20196739583332,173.37234389583335,36.0,66.0
728,173.12291939583332,173.58339539583335,55.0,66.0
729,173.12291939583332,173.62176839583333,48.0,66.0
730,173.58339539583335,173.62176839583333,48.0,71.0
731,173.12291939583332,174.07456979583333,64.0,66.0
732,174.96482339583332,175.19506139583333,62.0,67.0
733,174.96482339583332,175.19506139583333,67.0,67.0
734,174.96482339583332,175.26797009583333,55.0,66.0
735,174.04387139583332,175.71117824583334,43.0,70.0
736,175.42529939583335,175.72077149583333,55.0,66.0
737,174.50434739583335,175.72844609583333,50.0,47.0
738,174.96482339583332,175.73420204583334,71.0,66.0
739,176.80672739583332,177.07150109583333,57.0,72.0
740,176.34625139583335,177.11371139583332,52.0,70.0
741,175.88577539583332,177.18662009583335,45.0,66.0
742,176.80672739583332,177.26720339583335,64.0,70.0
743,176.80672739583332,177.75262184583335,69.0,72.0
744,177.26720339583335,177.80058809583335,57.0,69.0
745,178.64863139583332,178.87886939583333,64.0,72.0
746,178.64863139583332,178.99398839583333,52.0,72.0
747,178.64863139583332,179.10910739583335,59.0,72.0
748,177.72767939583332,179.21655179583334,40.0,72.0
749,178.64863139583332,179.30289104583335,67.0,72.0
750,178.64863139583332,179.51777984583333,71.0,72.0
751,179.10910739583335,179.53121039583334,52.0,70.0
752,178.18815539583335,179.56190879583335,47.0,72.0
753,180.49053539583332,180.76682099583334,53.0,73.0
754,180.03005939583335,180.76873964583334,48.0,50.0
755,180.49053539583332,180.95101139583335,60.0,70.0
756,180.49053539583332,180.95101139583335,65.0,70.0
757,180.49053539583332,181.02008279583333,69.0,73.0
758,180.95101139583335,181.33474139583333,65.0,75.0
759,179.56958339583332,181.35584654583334,41.0,75.0
760,180.95101139583335,181.41148739583332,53.0,73.0
761,181.41148739583332,181.91033639583333,40.0,82.0
762,181.41148739583332,181.95062804583335,67.0,82.0
763,181.41148739583332,181.95830264583333,71.0,82.0
764,181.41148739583332,182.19429659583335,64.0,82.0
765,182.33243939583332,182.56267739583333,60.0,73.0
766,182.33243939583332,182.79291539583335,64.0,73.0
767,182.33243939583332,182.87158004583335,45.0,75.0
768,182.33243939583332,183.03466529583335,69.0,75.0
769,182.79291539583335,183.16897079583333,57.0,78.0
770,183.25339139583332,183.74648444583335,69.0,79.0
771,183.25339139583332,183.95177999583333,41.0,79.0
772,183.25339139583332,184.08416684583335,65.0,79.0
773,184.17434339583332,184.54080554583334,43.0,79.0
774,184.17434339583332,184.68470429583334,71.0,79.0
775,184.17434339583332,184.73650784583333,67.0,79.0
776,184.17434339583332,184.88040659583334,62.0,79.0
777,185.55577139583335,186.03351524583334,48.0,89.0
778,185.78600939583333,186.06229499583333,60.0,71.0
779,186.24648539583333,186.46329284583334,48.0,97.0
780,186.47672339583335,186.71079869583332,62.0,88.0
781,186.01624739583332,186.71847329583335,67.0,127.0
782,185.09529539583332,186.76643954583335,36.0,93.0
783,185.32553339583333,186.87004664583333,43.0,78.0
784,186.70696139583333,186.93719939583332,64.0,97.0
785,187.39767539583335,187.93489739583333,48.0,88.0
786,187.62791339583333,187.99245689583336,60.0,76.0
787,186.93719939583332,188.38194284583335,36.0,90.0
788,187.16743739583333,188.41647854583334,43.0,79.0
789,187.85815139583332,188.41839719583334,67.0,100.0
790,188.31862739583335,188.50089914583333,64.0,117.0
791,188.08838939583333,188.50857374583333,48.0,86.0
792,188.54886539583333,188.82323234583333,64.0,82.0
793,189.23957939583335,189.56383124583334,55.0,85.0
794,189.00934139583333,189.77488274583334,50.0,72.0
795,189.46981739583333,189.80366249583335,62.0,93.0
796,188.77910339583332,190.40228129583335,43.0,74.0
797,189.93029339583333,190.47518999583332,50.0,72.0
798,190.16053139583335,190.50588839583332,67.0,117.0
799,189.70005539583332,190.51740029583334,71.0,127.0
800,190.39076939583333,190.63443794583333,62.0,107.0
801,191.08148339583335,191.59568159583336,53.0,75.0
802,191.31172139583333,191.69737004583334,60.0,76.0
803,191.77219739583333,191.91609614583334,53.0,83.0
804,190.62100739583332,192.34971104583332,41.0,70.0
805,192.00243539583334,192.35162969583334,60.0,96.0
806,191.54195939583332,192.36122294583333,69.0,122.0
807,192.23267339583333,192.43796894583335,65.0,102.0
808,190.85124539583333,192.47826059583332,48.0,75.0
809,192.92338739583334,193.24763924583334,55.0,93.0
810,192.69314939583333,193.46060939583333,50.0,86.0
811,193.15362539583333,193.52008754583335,62.0,99.0
812,193.61410139583333,193.76183744583335,50.0,96.0
813,192.46291139583332,193.82131559583334,43.0,73.0
814,193.38386339583332,194.15707934583332,71.0,127.0
815,193.84433939583334,194.18010314583336,67.0,122.0
816,194.07457739583333,194.37004949583334,62.0,112.0
817,194.76529139583334,195.30059474583334,48.0,79.0
818,194.99552939583333,195.32169989583332,60.0,93.0
819,194.30481539583332,195.55385654583336,36.0,88.0
820,194.53505339583333,195.57304304583334,43.0,72.0
821,195.45600539583336,195.73996559583333,48.0,95.0
822,195.22576739583334,196.07764799583333,67.0,117.0
823,195.68624339583334,196.09683449583332,64.0,122.0
824,195.91648139583333,196.15439399583335,60.0,97.0
825,196.60719539583334,196.94487779583335,55.0,90.0
826,196.83743339583333,197.04272894583335,62.0,107.0
827,196.37695739583336,197.19046499583334,50.0,78.0
828,197.29790939583336,197.47634384583336,50.0,82.0
829,197.52814739583334,197.82937544583334,67.0,122.0
830,197.06767139583334,197.84664329583333,71.0,127.0
831,196.14671939583334,197.86391114583336,43.0,86.0
832,197.75838539583333,197.97711149583336,62.0,100.0
833,199.13981339583336,199.48517039583334,50.0,45.0
834,198.90957539583334,199.62715049583335,69.0,127.0
835,199.37005139583334,199.63098779583333,62.0,92.0
836,197.98862339583334,199.68854729583333,38.0,97.0
837,199.60028939583333,199.74994409583334,65.0,83.0
838,198.44909939583334,199.83436469583336,45.0,51.0
839,199.83052739583334,200.44065809583333,71.0,107.0
840,199.83052739583334,200.47519379583332,64.0,97.0
841,199.83052739583334,200.52124139583333,40.0,96.0
842,199.83052739583334,200.52124139583333,67.0,112.0
843,200.75147939583334,201.07189394583332,41.0,85.0
844,200.75147939583334,201.16398914583334,69.0,95.0
845,200.75147939583334,201.24649109583333,60.0,96.0
846,200.75147939583334,201.32131844583336,65.0,95.0
847,201.44219339583333,202.54925444583336,62.0,99.0
848,201.44219339583333,202.56652229583335,67.0,100.0
849,201.44219339583333,202.56844094583334,71.0,97.0
850,201.44219339583333,202.57419689583332,43.0,96.0
851,202.59338339583334,202.91763524583334,72.0,96.0
852,202.59338339583334,202.93490309583333,65.0,93.0
853,202.59338339583334,202.98286934583334,69.0,99.0
854,202.59338339583334,203.01932369583335,41.0,102.0
855,203.05385939583334,203.32247039583334,74.0,102.0
856,203.05385939583334,203.33206364583333,67.0,97.0
857,203.05385939583334,203.33590094583332,71.0,102.0
858,203.05385939583334,203.38386719583332,43.0,107.0
859,203.97481139583334,204.46214849583333,48.0,97.0
860,204.20504939583333,204.55999964583333,60.0,96.0
861,203.74457339583336,204.69430514583334,43.0,79.0
862,203.51433539583334,204.69814244583335,36.0,90.0
863,204.66552539583336,204.82285469583334,48.0,86.0
864,204.43528739583334,205.23344579583335,67.0,127.0
865,204.89576339583334,205.31594774583334,64.0,112.0
866,205.12600139583333,205.41955484583332,60.0,99.0
867,205.81671539583334,206.08916369583335,55.0,95.0
868,206.04695339583333,206.39231039583333,62.0,100.0
869,205.58647739583336,206.40190364583333,50.0,74.0
870,206.50742939583336,206.68010789583332,50.0,107.0
871,205.35623939583334,206.76260984583334,43.0,90.0
872,206.27719139583334,207.08110574583333,71.0,127.0
873,206.73766739583334,207.12715334583334,67.0,127.0
874,206.96790539583333,207.22884179583332,62.0,117.0
875,207.88885739583333,208.10950214583335,60.0,97.0
876,207.65861939583334,208.16514299583332,53.0,93.0
877,207.42838139583336,208.38770639583333,48.0,88.0
878,207.19814339583334,208.41840479583334,41.0,86.0
879,208.34933339583336,208.52393054583334,53.0,89.0
880,208.11909539583334,208.86928754583334,69.0,122.0
881,208.57957139583334,208.87888079583334,65.0,107.0
882,208.80980939583333,209.11871204583332,60.0,100.0
883,209.27028539583335,209.60604914583334,60.0,96.0
884,209.50052339583334,209.87274149583334,67.0,117.0
885,209.04004739583334,209.93030099583333,48.0,100.0
886,209.73076139583333,210.00704699583332,64.0,102.0
887,210.19123739583335,210.56345549583335,60.0,95.0
888,210.42147539583334,210.69776099583333,67.0,102.0
889,209.96099939583334,210.80328674583333,47.0,97.0
890,210.65171339583333,210.89538194583332,64.0,72.0
891,211.34242739583334,211.55923484583332,57.0,99.0
892,211.57266539583333,211.78947284583336,60.0,112.0
893,211.11218939583335,211.89691724583332,52.0,74.0
894,212.03314139583335,212.19430799583336,52.0,95.0
895,210.88195139583334,212.24419289583335,45.0,92.0
896,212.49361739583333,212.51088524583332,55.0,70.0
897,212.26337939583334,212.67013319583333,60.0,107.0
898,211.80290339583334,212.69123834583334,64.0,112.0
899,212.49361739583333,212.71042484583336,57.0,83.0
900,213.18433139583334,213.67358714583332,52.0,90.0
901,213.41456939583333,213.77719424583336,59.0,99.0
902,213.87504539583335,214.03237469583334,52.0,107.0
903,213.64480739583334,214.39691819583334,67.0,122.0
904,212.72385539583334,214.41610469583333,40.0,86.0
905,214.10528339583334,214.48133879583332,64.0,112.0
906,214.33552139583333,214.56767804583333,59.0,100.0
907,212.95409339583335,214.58110859583334,47.0,74.0
908,215.02623539583334,215.54235224583334,53.0,97.0
909,215.25647339583332,215.58648119583336,60.0,97.0
910,215.71694939583335,215.90113979583333,53.0,88.0
911,214.56575939583334,216.27527654583332,41.0,90.0
912,215.94718739583334,216.38463959583333,60.0,95.0
913,215.48671139583334,216.39231419583334,69.0,122.0
914,216.17742539583332,216.39807014583334,65.0,122.0
915,214.79599739583335,216.42493124583333,48.0,88.0
916,216.86813939583334,217.40152409583334,55.0,96.0
917,217.09837739583332,217.43605979583333,62.0,100.0
918,216.63790139583335,217.68932159583335,50.0,90.0
919,217.55885339583335,217.70083349583334,55.0,95.0
920,216.40766339583334,217.78909139583334,43.0,92.0
921,217.55885339583335,217.82746439583332,67.0,99.0
922,217.32861539583334,217.85816279583332,71.0,127.0
923,217.78909139583334,218.06345834583334,62.0,112.0
924,218.01932939583332,218.30712689583333,64.0,92.0
925,218.71004339583334,219.23767214583336,48.0,92.0
926,218.94028139583332,219.27604514583334,60.0,96.0
927,218.24956739583334,219.45064229583335,36.0,95.0
928,218.47980539583335,219.48134069583335,43.0,79.0
929,219.40075739583335,219.61756484583333,48.0,95.0
930,219.63099539583334,219.68663624583334,60.0,38.0
931,219.17051939583334,220.02623729583334,67.0,122.0
932,219.63099539583334,220.04542379583336,64.0,112.0
933,219.86123339583332,220.09914599583334,60.0,99.0
934,220.55194739583334,221.08725074583333,55.0,99.0
935,220.78218539583332,221.26568519583333,62.0,97.0
936,221.24266139583335,221.44220099583333,55.0,100.0
937,221.01242339583334,221.67243899583332,71.0,127.0
938,220.32170939583335,221.76069689583335,50.0,72.0
939,220.09147139583334,221.78755799583334,43.0,90.0
940,221.47289939583334,221.92186349583335,67.0,96.0
941,221.70313739583332,221.93337539583334,62.0,100.0
942,222.62568314583334,222.837221625,60.0,95.0
943,222.39491389583333,222.91606778541666,53.0,88.0
944,223.08722164583332,223.25837550625,53.0,95.0
945,222.16414464583335,223.2641447375,48.0,88.0
946,221.93337539583334,223.28529858541668,41.0,96.0
947,222.85645239583334,223.63145246041668,69.0,127.0
948,223.31799089583333,223.6564524625,65.0,107.0
949,223.54876014583334,223.86606786458333,60.0,102.0
950,224.01029864583333,224.35645252083333,60.0,83.0
951,224.47183714583335,224.69299101041668,60.0,93.0
952,223.77952939583335,224.69683716458334,48.0,93.0
953,224.24106789583334,224.69876024166666,67.0,107.0
954,224.93337564583334,225.28722182916667,59.0,78.0
955,225.16414489583335,225.421837225,60.0,97.0
956,224.70260639583333,225.46606799791667,47.0,97.0
957,225.39491414583333,225.61029877916667,64.0,99.0
958,226.08722189583335,226.4026065375,57.0,93.0
959,226.31799114583333,226.65068348125,64.0,96.0
960,225.85645264583334,226.667991175,52.0,83.0
961,226.77952964583335,226.9102988875,52.0,88.0
962,225.62568339583333,226.95068350625002,45.0,67.0
963,227.01029889583333,227.43722200833335,69.0,86.0
964,226.54876039583334,227.46606816458333,72.0,127.0
965,227.24106814583334,227.47952970416668,64.0,100.0
966,227.93337589583334,228.46414517083335,52.0,59.0
967,228.16414514583334,228.5026067125,59.0,86.0
968,228.62568364583333,228.80837596875,52.0,82.0
969,227.47183739583335,229.17376061458333,40.0,70.0
970,228.85645289583334,229.183376,64.0,93.0
971,228.39491439583333,229.19106830833334,67.0,107.0
972,229.08722214583332,229.20452984791666,59.0,89.0
973,227.70260664583333,229.26222216041668,47.0,61.0
974,229.77952989583335,230.31606840208335,53.0,97.0
975,229.31799139583333,230.51222226458333,41.0,88.0
976,230.01029914583333,230.53529918958333,60.0,86.0
977,230.24106839583334,230.54299149791666,69.0,117.0
978,230.47183764583335,230.56222226875,65.0,47.0
979,229.54876064583334,230.729529975,48.0,93.0
980,230.70260689583333,231.93529930625002,67.0,93.0
981,230.70260689583333,231.975683925,71.0,97.0
982,230.70260689583333,231.99106854166666,62.0,93.0
983,231.62568389583333,232.17376086458333,50.0,49.0
984,232.31799164583333,232.46222242708333,50.0,83.0
985,230.70260689583333,232.50837627708333,43.0,78.0
986,232.08722239583335,232.94876092916667,67.0,117.0
987,232.54876089583334,233.01029939583333,62.0,83.0
988,233.93337639583333,234.71991492291667,64.0,86.0
989,233.93337639583333,234.73337646250002,60.0,97.0
990,234.39491489583332,234.87953032083334,48.0,83.0
991,234.85645339583334,235.35260728333333,64.0,122.0
992,234.85645339583334,235.41606882708334,67.0,117.0
993,235.08722264583335,235.60453038125002,48.0,112.0
994,233.47183789583335,235.69876115833333,43.0,56.0
995,235.54876114583334,235.70837654375,64.0,93.0
996,235.54876114583334,235.71606885208334,67.0,107.0
997,235.31799189583333,235.72760731458334,60.0,127.0
998,233.01029939583333,235.76606885625,36.0,96.0
999,235.77953039583335,236.10453042291667,72.0,96.0
1000,235.77953039583335,236.12183811666668,65.0,93.0
1001,235.77953039583335,236.16991504375,69.0,99.0
1002,235.77953039583335,236.20645350833334,41.0,102.0
1003,236.24106889583334,236.5102996875,74.0,102.0
1004,236.24106889583334,236.51991507291666,67.0,97.0
1005,236.24106889583334,236.52376122708333,71.0,102.0
1006,236.24106889583334,236.57183815416667,43.0,107.0
1007,237.16414589583334,237.652607475,48.0,97.0
1008,237.39491514583335,237.75068440625,60.0,96.0
1009,236.93337664583333,237.88529980208335,43.0,79.0
1010,236.70260739583333,237.88914595625,36.0,90.0
1011,237.85645364583334,238.01414596666666,48.0,86.0
1012,237.62568439583333,238.42568446250002,67.0,127.0
1013,238.08722289583335,238.50837677708333,64.0,112.0
1014,238.31799214583333,238.61222293958335,60.0,99.0
1015,239.01029989583333,239.28337684166667,55.0,95.0
1016,239.24106914583334,239.58722302083333,62.0,100.0
1017,238.77953064583335,239.59683840625001,50.0,74.0
1018,239.70260764583333,239.87568458333334,50.0,107.0
1019,238.54876139583334,239.95837689791668,43.0,90.0
1020,239.47183839583334,240.27760769375,71.0,127.0
1021,239.93337689583333,240.32376154375,67.0,127.0
1022,240.16414614583334,240.42568462916668,62.0,117.0
1023,241.08722314583335,241.30837701041668,60.0,97.0
1024,240.85645389583334,241.36414624583333,53.0,93.0
1025,240.62568464583333,241.5872231875,48.0,88.0
1026,240.39491539583332,241.61799242083333,41.0,86.0
1027,241.54876164583334,241.72376166041667,53.0,89.0
1028,241.31799239583333,242.06991553541667,69.0,122.0
1029,241.77953089583335,242.07953092083335,65.0,107.0
1030,242.01030014583333,242.31991555625,60.0,100.0
1031,242.47183864583334,242.80837713541666,60.0,96.0
1032,242.70260789583335,243.07568485000002,67.0,117.0
1033,242.24106939583334,243.1333771625,48.0,100.0
1034,242.93337714583333,243.21030024583334,64.0,102.0
1035,243.39491564583335,243.7679926,60.0,95.0
1036,243.62568489583333,243.90260799583334,67.0,102.0
1037,243.16414639583334,244.00837723541667,47.0,97.0
1038,243.85645414583334,244.10068493541667,64.0,72.0
1039,244.54876189583334,244.76606960625,57.0,99.0
1040,244.77953114583335,244.99683885625,60.0,112.0
1041,244.31799264583333,245.10453117291667,52.0,74.0
1042,245.24106964583333,245.40260812083335,52.0,95.0
1043,244.08722339583335,245.452608125,45.0,92.0
1044,245.70260814583332,245.71991583958334,55.0,70.0
1045,245.47183889583334,245.8795312375,60.0,107.0
1046,245.01030039583333,245.90068508541668,64.0,112.0
1047,245.70260814583332,245.91991585625001,57.0,83.0
1048,246.39491589583332,246.88530055208332,52.0,90.0
1049,246.62568514583333,246.98914671458334,59.0,99.0
1050,247.08722364583335,247.24491596666667,52.0,107.0
1051,246.85645439583334,247.6103006125,67.0,122.0
1052,245.93337739583333,247.62953138333333,40.0,86.0
1053,247.31799289583333,247.69491600416666,64.0,112.0
1054,247.54876214583334,247.78145447291666,59.0,100.0
1055,246.16414664583334,247.7949160125,47.0,74.0
1056,248.24106989583333,248.75837763125,53.0,97.0
1057,248.47183914583334,248.80260840416668,60.0,97.0
1058,248.93337764583333,249.11799304583334,53.0,88.0
1059,247.77953139583335,249.49299307708333,41.0,90.0
1060,249.16414689583334,249.60260847083333,60.0,95.0
1061,248.70260839583335,249.61030077916666,69.0,122.0
1062,249.39491614583335,249.61607001041668,65.0,122.0
1063,248.01030064583333,249.64299308958334,48.0,88.0
1064,250.08722389583335,250.621839325,55.0,96.0
1065,250.31799314583333,250.6564547125,62.0,100.0
1066,249.85645464583334,250.9103008875,50.0,90.0
1067,250.77953164583334,250.92183935,55.0,95.0
1068,249.62568539583333,251.01030089583332,43.0,92.0
1069,250.77953164583334,251.0487624375,67.0,99.0
1070,250.54876239583334,251.07953167083335,71.0,127.0
1071,251.01030089583332,251.28530091875,62.0,112.0
1072,251.24107014583333,251.52953170833334,64.0,92.0
1073,251.93337789583333,252.46222409375,48.0,92.0
1074,252.16414714583334,252.50068563541666,60.0,96.0
1075,251.47183939583334,252.67568565,36.0,95.0
1076,251.70260864583332,252.70645488333332,43.0,79.0
1077,252.62568564583333,252.84299335625002,48.0,95.0
1078,252.85645489583334,252.91222413125,60.0,38.0
1079,252.39491639583335,253.252608775,67.0,122.0
1080,252.85645489583334,253.27183954583333,64.0,112.0
1081,253.08722414583335,253.32568570416666,60.0,99.0
1082,253.77953189583334,254.31607040208334,55.0,99.0
1083,254.01030114583335,254.49491657083334,62.0,97.0
1084,254.47183964583334,254.67183966250002,55.0,100.0
1085,254.24107039583333,254.9026089125,71.0,127.0
1086,253.54876264583334,254.99107045833335,50.0,72.0
1087,253.31799339583333,255.0179935375,43.0,90.0
1088,254.70260889583335,255.15260893333334,67.0,96.0
1089,254.93337814583333,255.16414739583334,62.0,100.0
1090,255.85645514583334,256.067993625,60.0,95.0
1091,255.62568589583333,256.14683978541666,53.0,88.0
1092,256.3179936458333,256.48914750625,53.0,95.0
1093,255.39491664583335,256.49491673750003,48.0,88.0
1094,255.16414739583334,256.5160705854167,41.0,96.0
1095,256.08722439583335,256.86222446041666,69.0,127.0
1096,256.5487628958333,256.8872244625,65.0,107.0
1097,256.77953214583334,257.09683986458333,60.0,102.0
1098,257.24107064583336,257.58722452083333,60.0,83.0
1099,257.7026091458333,257.9237630104167,60.0,93.0
1100,257.0103013958333,257.9276091645833,48.0,93.0
1101,257.47183989583334,257.92953224166666,67.0,107.0
1102,258.16414764583334,258.5179938291667,59.0,78.0
1103,258.3949168958333,258.652609225,60.0,97.0
1104,257.93337839583336,258.69683999791664,47.0,97.0
1105,258.62568614583336,258.84107077916667,64.0,99.0
1106,259.31799389583335,259.6333785375,57.0,93.0
1107,259.54876314583333,259.88145548125,64.0,96.0
1108,259.0872246458333,259.898763175,52.0,83.0
1109,260.01030164583335,260.1410708875,52.0,88.0
1110,258.85645539583334,260.18145550625,45.0,67.0
1111,260.24107089583333,260.6679940083333,69.0,86.0
1112,259.7795323958333,260.69684016458336,72.0,127.0
1113,260.4718401458333,260.7103017041667,64.0,100.0
1114,261.16414789583337,261.6949171708333,52.0,59.0
1115,261.39491714583335,261.7333787125,59.0,86.0
1116,261.8564556458333,262.03914796875,52.0,82.0
1117,260.70260939583335,262.40453261458333,40.0,70.0
1118,262.08722489583334,262.414148,64.0,93.0
1119,261.6256863958333,262.42184030833334,67.0,107.0
1120,262.3179941458333,262.43530184791666,59.0,89.0
1121,260.93337864583333,262.4929941604167,47.0,61.0
1122,263.0103018958333,263.5468404020833,53.0,97.0
1123,262.54876339583336,263.74299426458333,41.0,88.0
1124,263.24107114583336,263.76607118958333,60.0,86.0
1125,263.47184039583334,263.77376349791666,69.0,117.0
1126,263.7026096458333,263.79299426875,65.0,47.0
1127,262.77953264583334,263.960301975,48.0,93.0
1128,263.93337889583336,265.16607130625,67.0,93.0
1129,263.93337889583336,265.206455925,71.0,97.0
1130,263.93337889583336,265.22184054166667,62.0,93.0
1131,264.85645589583334,265.40453286458336,50.0,49.0
1132,265.54876364583333,265.69299442708336,50.0,83.0
1133,263.93337889583336,265.73914827708336,43.0,78.0
1134,265.31799439583335,266.17953292916667,67.0,117.0
1135,265.7795328958333,266.24107139583333,62.0,83.0
1136,267.1641483958333,268.01799462083335,60.0,93.0
1137,267.6256868958333,269.2314562604167,48.0,58.0
1138,266.24107139583333,269.65837937291667,36.0,90.0
1139,266.70260989583335,269.98530247708334,43.0,43.0
1140,268.08722539583334,270.59876406666666,64.0,82.0
1141,268.08722539583334,270.8026102375,60.0,75.0
1142,269.93337939583336,271.06991795208336,36.0,78.0
1143,270.3949178958333,271.1410718041667,43.0,61.0
1144,271.31799489583335,271.78530262708335,60.0,59.0
1145,270.85645639583333,271.80453339791666,64.0,99.0
1146,272.70261039583335,273.0718411958333,55.0,76.0
1147,272.24107189583333,273.52761046458335,50.0,42.0
1148,271.77953339583337,273.5487643125,43.0,64.0
1149,273.16414889583336,273.60068739375,67.0,63.0
1150,274.54876439583336,274.84876442083333,53.0,47.0
1151,273.6256873958333,275.35261061666665,41.0,74.0
1152,274.98530289375003,275.4333798541667,60.0,41.0
1153,274.54876439583336,275.46991831875,69.0,66.0
1154,274.08722589583334,275.5141490916667,48.0,45.0
1155,276.3449183916667,277.03914921875,55.0,81.0
1156,275.89299527708334,277.3295338583333,50.0,55.0
1157,275.44684139375,277.3949184791667,43.0,71.0
1158,276.35837993125,277.5276107979167,67.0,71.0
1159,276.85645689583333,277.6410723458333,62.0,54.0
1160,278.00645699166665,278.0718416125,65.0,37.0
1161,278.02953391666665,278.591072425,64.0,58.0
1162,277.944918525,278.60838011875,67.0,51.0
1163,278.1179954625,278.6122262729167,60.0,60.0
1164,279.05068784791666,279.2449186333333,52.0,59.0
1165,279.2487647875,279.29684171458337,55.0,56.0
1166,279.45838018958335,279.76222636875,60.0,55.0
1167,279.68914943958333,279.92184176666666,64.0,47.0
1168,279.91222638125,279.96607253958337,67.0,48.0
1169,278.85838013958335,281.03145724375,48.0,63.0
1170,278.59299550208334,281.1853034104167,43.0,55.0
1171,278.1276108479167,281.314149575,36.0,71.0
1172,280.39491872916665,281.5603034416667,76.0,55.0
1173,280.991072625,281.56222651875,84.0,38.0
1174,280.64107259583335,281.5641495958333,79.0,53.0
1175,280.1353033229167,281.58530344375004,72.0,48.0
