,start,end,pitch,velocity
0,44.29570008333333,44.69710785833333,59.0,93.0
1,44.718234583333334,45.096755072916665,61.0,99.0
2,45.14076908333333,45.45238827708333,68.0,95.0
3,45.56330358333333,45.846753810416665,68.0,112.0
4,45.985838083333334,46.2780911125,68.0,100.0
5,46.40837258333333,46.83970988541667,68.0,112.0
6,46.83090708333334,46.95062519166667,66.0,97.0
7,47.042174333333335,47.5879480625,66.0,102.0
8,47.88724333333333,48.01928536458333,64.0,73.0
9,48.098510583333336,48.35027072291667,66.0,96.0
10,48.521045083333334,48.772805222916666,64.0,88.0
11,48.94357958333333,49.2358326125,66.0,97.0
12,49.366114083333336,49.742874012499996,68.0,100.0
13,49.788648583333334,50.32209838958333,61.0,81.0
14,51.26751933333333,51.436533133333334,59.0,73.0
15,51.47878658333333,51.823856425,61.0,89.0
16,51.901321083333336,52.18125018958333,68.0,92.0
17,52.323855583333334,52.628432535416664,68.0,99.0
18,52.74639008333333,52.8907560375,68.0,102.0
19,53.168924583333336,53.598501325,68.0,102.0
20,53.59145908333333,53.70237438958333,66.0,53.0
21,53.80272633333333,54.37314790833333,66.0,100.0
22,54.436528083333336,54.869625945833334,64.0,89.0
23,54.85906258333333,55.334413895833336,66.0,93.0
24,55.28159708333333,57.02807301666667,68.0,96.0
25,57.81680408333333,58.13546551875,66.0,97.0
26,58.239338583333335,58.57912674375,66.0,100.0
27,58.66187308333333,58.977013397916664,73.0,93.0
28,59.08440758333333,59.41363238125,73.0,122.0
29,59.506942083333335,59.894265374999996,71.0,95.0
30,60.35201108333333,60.49109535625,66.0,85.0
31,59.92947658333333,60.4963770375,68.0,81.0
32,60.563278333333336,61.16010831458333,66.0,93.0
33,61.40834733333333,61.596727297916665,61.0,88.0
34,61.61961458333333,61.97172666666667,73.0,99.0
35,62.042149083333335,62.30799370625,71.0,112.0
36,62.46468358333333,62.874894160416666,68.0,99.0
37,62.88721808333333,62.99109114791666,66.0,99.0
38,63.098485333333336,63.603766172916664,61.0,77.0
39,63.73228708333333,64.64073625833333,61.0,75.0
40,64.78862333333333,65.02805955,59.0,82.0
41,64.99989058333334,65.4928475,61.0,90.0
42,65.63369233333333,66.274536325,68.0,92.0
43,66.26749408333333,66.57911327708334,59.0,85.0
44,66.69002858333333,67.13897148958333,61.0,81.0
45,67.11256308333333,67.55798486875,68.0,100.0
46,67.53509758333334,68.23227950833333,66.0,97.0
47,68.38016658333333,68.94354591666666,64.0,99.0
48,69.01396833333334,70.0667834625,61.0,83.0
49,70.49283908333334,70.83262724375,61.0,107.0
50,70.91537358333333,71.34142920416667,63.0,96.0
51,71.33790808333333,71.66009063958333,64.0,100.0
52,71.76044258333333,71.92769582291666,68.0,99.0
53,71.97170983333334,72.18649820416667,61.0,90.0
54,72.18297708333333,72.29917407083333,68.0,92.0
55,72.39424433333333,72.82206051458333,68.0,117.0
56,72.81677883333333,73.01924328125,66.0,93.0
57,73.02804608333334,73.24987669583334,68.0,95.0
58,73.23931333333333,73.457622825,66.0,92.0
59,73.45058058333333,73.65480559166667,68.0,117.0
60,73.66184783333333,73.91536853333334,66.0,79.0
61,73.87311508333333,74.00163599375,68.0,93.0
62,74.08438233333334,74.53332523958333,68.0,97.0
63,74.50691683333334,74.67945175416666,66.0,112.0
64,74.71818408333333,74.92945133333333,68.0,92.0
65,74.92945133333333,75.15480306666666,66.0,95.0
66,75.14071858333334,75.36607031666667,68.0,95.0
67,75.35198583333333,75.54036579791666,66.0,77.0
68,75.56325308333334,75.67945007083333,68.0,95.0
69,75.77452033333333,76.11430849375,68.0,100.0
70,76.19705483333334,76.34670246875,66.0,100.0
71,76.40832208333333,76.62311045416666,68.0,96.0
72,76.61958933333334,76.83085658333333,66.0,95.0
73,76.83085658333333,77.12487017291667,68.0,107.0
74,77.67592558333334,78.08613616041667,64.0,97.0
75,78.09846008333334,78.38719199166667,68.0,112.0
76,78.52099458333333,78.66536053749999,68.0,127.0
77,78.73226183333334,78.94352908333333,61.0,97.0
78,78.94352908333333,79.05268382916667,68.0,102.0
79,79.15479633333334,79.48402113125,68.0,127.0
80,79.57733083333333,79.68648557916667,66.0,93.0
81,79.78859808333333,79.95233020208333,68.0,112.0
82,79.99986533333333,80.1442312875,66.0,93.0
83,80.21113258333334,80.3977519875,68.0,112.0
84,80.42239983333333,80.58261083125,66.0,92.0
85,80.63366708333334,80.74458238958333,68.0,112.0
86,80.84493433333333,81.14422960416667,68.0,117.0
87,81.26746883333334,81.36253909583333,66.0,112.0
88,81.47873608333333,81.58789082916667,68.0,102.0
89,81.69000333333334,81.77451023333333,66.0,107.0
90,81.90127058333333,82.10021391041667,68.0,122.0
91,82.11253783333333,82.20584753541667,66.0,99.0
92,82.32380508333333,82.40126974166667,68.0,117.0
93,82.53507233333333,82.78155079166666,68.0,127.0
94,82.95760683333333,83.02274756875,66.0,100.0
95,83.16887408333334,83.39598637708333,68.0,112.0
96,83.38014133333333,83.61253530833334,66.0,99.0
97,83.59140858333333,83.86957712916667,68.0,117.0
98,84.43647758333333,84.81851919375,64.0,100.0
99,84.85901208333333,85.17767351875,66.0,107.0
100,85.28154658333334,85.57027849166667,68.0,107.0
101,85.70408108333334,85.97344682708334,73.0,127.0
102,86.12661558333333,86.45936150208334,73.0,122.0
103,86.54915008333333,86.95936066041666,71.0,112.0
104,87.39421908333333,87.70055659583333,68.0,122.0
105,87.81675358333334,88.19175295208333,66.0,117.0
106,88.23928808333334,88.54562559583333,64.0,95.0
107,88.66182258333333,88.99985018333334,66.0,122.0
108,89.08435708333333,89.44175084791667,68.0,122.0
109,89.50689158333333,89.78329956875,66.0,122.0
110,89.92942608333334,90.65301641458333,61.0,112.0
111,91.19702958333333,91.56674727083333,64.0,96.0
112,91.61956408333333,91.94174663958333,66.0,97.0
113,92.04209858333333,92.31850656875,68.0,117.0
114,92.46463308333334,92.73751994791667,73.0,112.0
115,92.88716758333334,93.23047686458334,73.0,127.0
116,93.30970208333333,93.90653206458333,71.0,127.0
117,94.15477108333333,94.53681269375,68.0,112.0
118,94.57730558333333,94.88364309583334,66.0,102.0
119,94.99984008333334,95.53152932916666,71.0,102.0
120,95.84490908333333,97.17061107708334,68.0,112.0
121,97.95758158333334,98.34314431458333,64.0,100.0
122,98.38011608333333,98.71286200208333,66.0,112.0
123,98.80265058333333,99.11426977708334,68.0,127.0
124,99.22518508333333,99.53152259583334,73.0,112.0
125,99.64771958333333,99.96814157916667,73.0,112.0
126,100.07025408333334,100.62130949375,71.0,117.0
127,100.91532308333333,101.25159012291667,68.0,122.0
128,101.33785758333333,101.66356126041667,66.0,117.0
129,101.76039208333333,102.01743390416667,64.0,100.0
130,102.18292658333333,102.59313716041666,76.0,112.0
131,102.60546108333334,103.02975614374999,75.0,102.0
132,103.02799558333334,103.626586125,71.0,99.0
133,103.66179733333334,104.13538808541666,68.0,107.0
134,104.29559908333333,105.08256958958333,68.0,99.0
135,105.14066808333334,105.46109007916667,66.0,112.0
136,105.56320258333334,105.78327263541667,68.0,112.0
137,105.98573708333333,106.52446857083333,73.0,117.0
138,106.83080608333333,107.11777743125,71.0,117.0
139,107.25334058333333,107.64242443541667,68.0,122.0
140,107.67587508333334,108.04911389166666,66.0,107.0
141,108.09840958333334,108.42059213958333,68.0,122.0
142,108.73221133333334,108.8977040125,66.0,100.0
143,108.94347858333333,109.4469988625,64.0,107.0
144,109.57728033333333,110.97868642499999,61.0,102.0
145,125.42232408333334,125.82373185833333,59.0,93.0
146,125.84485858333333,126.22337907291667,61.0,99.0
147,126.26739308333333,126.57901227708334,68.0,95.0
148,126.68992758333333,126.97337781041666,68.0,112.0
149,127.11246208333333,127.4047151125,68.0,100.0
150,127.53499658333334,127.96633388541666,68.0,112.0
151,127.95753108333334,128.07724919166665,66.0,97.0
152,128.16879833333334,128.7145720625,66.0,102.0
153,129.01386733333334,129.14590936458333,64.0,73.0
154,129.22513458333333,129.47689472291665,66.0,96.0
155,129.64766908333334,129.89942922291667,64.0,88.0
156,130.07020358333332,130.3624566125,66.0,97.0
157,130.49273808333334,130.8694980125,68.0,100.0
158,130.91527258333332,131.44872238958334,61.0,81.0
159,132.39414333333335,132.56315713333333,59.0,73.0
160,132.60541058333334,132.950480425,61.0,89.0
161,133.02794508333332,133.30787418958334,68.0,92.0
162,133.45047958333333,133.75505653541666,68.0,99.0
163,133.87301408333335,134.0173800375,68.0,102.0
164,134.29554858333333,134.725125325,68.0,102.0
165,134.71808308333334,134.82899838958332,66.0,53.0
166,134.92935033333333,135.49977190833334,66.0,100.0
167,135.56315208333334,135.99624994583334,64.0,89.0
168,135.98568658333332,136.46103789583333,66.0,93.0
169,136.40822108333333,138.15469701666666,68.0,96.0
170,138.94342808333334,139.26208951875,66.0,97.0
171,139.36596258333333,139.70575074375,66.0,100.0
172,139.78849708333334,140.10363739791666,73.0,93.0
173,140.21103158333332,140.54025638125,73.0,122.0
174,140.63356608333333,141.020889375,71.0,95.0
175,141.47863508333333,141.61771935625,66.0,85.0
176,141.05610058333332,141.6230010375,68.0,81.0
177,141.68990233333332,142.28673231458333,66.0,93.0
178,142.53497133333335,142.72335129791668,61.0,88.0
179,142.74623858333334,143.09835066666668,73.0,99.0
180,143.16877308333332,143.43461770625,71.0,112.0
181,143.59130758333333,144.00151816041665,68.0,99.0
182,144.01384208333334,144.11771514791667,66.0,99.0
183,144.22510933333334,144.73039017291666,61.0,77.0
184,144.85891108333334,145.76736025833333,61.0,75.0
185,145.91524733333333,146.15468355,59.0,82.0
186,146.12651458333335,146.6194715,61.0,90.0
187,146.76031633333332,147.401160325,68.0,92.0
188,147.39411808333332,147.70573727708333,59.0,85.0
189,147.81665258333334,148.26559548958332,61.0,81.0
190,148.23918708333332,148.68460886875,68.0,100.0
191,148.66172158333333,149.35890350833333,66.0,97.0
192,149.50679058333333,150.07016991666666,64.0,99.0
193,150.14059233333333,151.1934074625,61.0,83.0
194,151.61946308333333,151.95925124375,61.0,107.0
195,152.04199758333334,152.46805320416667,63.0,96.0
196,152.46453208333332,152.78671463958332,64.0,100.0
197,152.88706658333334,153.05431982291665,68.0,99.0
198,153.09833383333333,153.31312220416666,61.0,90.0
199,153.30960108333332,153.42579807083334,68.0,92.0
200,153.52086833333334,153.94868451458333,68.0,117.0
201,153.94340283333332,154.14586728125,66.0,93.0
202,154.15467008333334,154.37650069583333,68.0,95.0
203,154.36593733333333,154.584246825,66.0,92.0
204,154.57720458333333,154.78142959166667,68.0,117.0
205,154.78847183333332,155.04199253333334,66.0,79.0
206,154.99973908333334,155.12825999375,68.0,93.0
207,155.21100633333333,155.65994923958334,68.0,97.0
208,155.63354083333334,155.80607575416667,66.0,112.0
209,155.84480808333333,156.05607533333333,68.0,92.0
210,156.05607533333333,156.28142706666665,66.0,95.0
211,156.26734258333335,156.49269431666667,68.0,95.0
212,156.47860983333334,156.66698979791667,66.0,77.0
213,156.68987708333333,156.80607407083332,68.0,95.0
214,156.90114433333332,157.24093249375,68.0,100.0
215,157.32367883333333,157.47332646875,66.0,100.0
216,157.53494608333332,157.74973445416666,68.0,96.0
217,157.74621333333334,157.95748058333334,66.0,95.0
218,157.95748058333334,158.25149417291667,68.0,107.0
219,158.80254958333333,159.21276016041668,64.0,97.0
220,159.22508408333334,159.51381599166666,68.0,112.0
221,159.64761858333333,159.79198453749999,68.0,127.0
222,159.85888583333335,160.07015308333334,61.0,97.0
223,160.07015308333334,160.17930782916667,68.0,102.0
224,160.28142033333333,160.61064513125,68.0,127.0
225,160.70395483333334,160.81310957916668,66.0,93.0
226,160.91522208333333,161.07895420208334,68.0,112.0
227,161.12648933333332,161.2708552875,66.0,93.0
228,161.33775658333334,161.5243759875,68.0,112.0
229,161.54902383333334,161.70923483125,66.0,92.0
230,161.76029108333333,161.87120638958334,68.0,112.0
231,161.97155833333332,162.27085360416666,68.0,117.0
232,162.39409283333333,162.48916309583333,66.0,112.0
233,162.60536008333332,162.71451482916666,68.0,102.0
234,162.81662733333334,162.90113423333332,66.0,107.0
235,163.02789458333334,163.22683791041666,68.0,122.0
236,163.23916183333333,163.33247153541666,66.0,99.0
237,163.45042908333332,163.52789374166667,68.0,117.0
238,163.66169633333334,163.90817479166665,68.0,127.0
239,164.08423083333332,164.14937156875,66.0,100.0
240,164.29549808333334,164.52261037708334,68.0,112.0
241,164.50676533333333,164.73915930833334,66.0,99.0
242,164.71803258333333,164.99620112916668,68.0,117.0
243,165.56310158333332,165.94514319375,64.0,100.0
244,165.98563608333333,166.30429751875,66.0,107.0
245,166.40817058333334,166.69690249166666,68.0,107.0
246,166.83070508333333,167.10007082708333,73.0,127.0
247,167.25323958333334,167.58598550208333,73.0,122.0
248,167.67577408333332,168.08598466041667,71.0,112.0
249,168.52084308333332,168.82718059583334,68.0,122.0
250,168.94337758333333,169.31837695208333,66.0,117.0
251,169.36591208333334,169.67224959583334,64.0,95.0
252,169.78844658333333,170.12647418333333,66.0,122.0
253,170.21098108333334,170.56837484791666,68.0,122.0
254,170.63351558333332,170.90992356875,66.0,122.0
255,171.05605008333333,171.77964041458333,61.0,112.0
256,172.32365358333334,172.69337127083332,64.0,96.0
257,172.74618808333332,173.06837063958332,66.0,97.0
258,173.16872258333333,173.44513056875,68.0,117.0
259,173.59125708333335,173.86414394791666,73.0,112.0
260,174.01379158333333,174.35710086458334,73.0,127.0
261,174.43632608333334,175.03315606458332,71.0,127.0
262,175.28139508333334,175.66343669375,68.0,112.0
263,175.70392958333332,176.01026709583334,66.0,102.0
264,176.12646408333333,176.65815332916665,71.0,102.0
265,176.97153308333333,178.29723507708334,68.0,112.0
266,179.08420558333333,179.46976831458332,64.0,100.0
267,179.50674008333334,179.83948600208333,66.0,112.0
268,179.92927458333332,180.24089377708333,68.0,127.0
269,180.35180908333334,180.65814659583333,73.0,112.0
270,180.77434358333332,181.09476557916668,73.0,112.0
271,181.19687808333333,181.74793349375,71.0,117.0
272,182.04194708333333,182.37821412291666,68.0,122.0
273,182.46448158333334,182.79018526041668,66.0,117.0
274,182.88701608333332,183.14405790416666,64.0,100.0
275,183.30955058333333,183.71976116041665,76.0,112.0
276,183.73208508333335,184.15638014375,75.0,102.0
277,184.15461958333333,184.753210125,71.0,99.0
278,184.78842133333333,185.26201208541667,68.0,107.0
279,185.42222308333334,186.20919358958332,68.0,99.0
280,186.26729208333333,186.58771407916666,66.0,112.0
281,186.68982658333334,186.90989663541666,68.0,112.0
282,187.11236108333333,187.65109257083333,73.0,117.0
283,187.95743008333332,188.24440143125,71.0,117.0
284,188.37996458333333,188.76904843541666,68.0,122.0
285,188.80249908333334,189.17573789166667,66.0,107.0
286,189.22503358333333,189.54721613958333,68.0,122.0
287,189.85883533333333,190.0243280125,66.0,100.0
288,190.07010258333332,190.5736228625,64.0,107.0
289,190.70390433333333,192.105310425,61.0,102.0
290,192.60530958333334,192.98735119375,65.0,100.0
291,193.02784408333332,193.34650551875,67.0,107.0
292,193.45037858333333,193.73911049166668,69.0,107.0
293,193.87291308333334,194.14227882708335,74.0,127.0
294,194.29544758333333,194.62819350208332,74.0,122.0
295,194.71798208333334,195.12819266041666,72.0,112.0
296,195.56305108333333,195.86938859583333,69.0,122.0
297,195.98558558333332,196.36058495208334,67.0,117.0
298,196.40812008333333,196.71445759583332,65.0,95.0
299,196.83065458333334,197.16868218333335,67.0,122.0
300,197.25318908333333,197.61058284791667,69.0,122.0
301,197.67572358333334,197.95213156875,67.0,122.0
302,198.09825808333332,198.82184841458334,62.0,112.0
303,199.36586158333333,199.73557927083334,65.0,96.0
304,199.78839608333334,200.11057863958334,67.0,97.0
305,200.21093058333332,200.48733856875,69.0,117.0
306,200.63346508333333,200.90635194791668,74.0,112.0
307,201.05599958333335,201.39930886458333,74.0,127.0
308,201.47853408333333,202.07536406458334,72.0,127.0
309,202.32360308333332,202.70564469375,69.0,112.0
310,202.74613758333334,203.05247509583333,67.0,102.0
311,203.16867208333332,203.70036132916667,72.0,102.0
312,204.01374108333334,205.33944307708333,69.0,112.0
313,206.12641358333335,206.51197631458334,65.0,100.0
314,206.54894808333333,206.88169400208332,67.0,112.0
315,206.97148258333334,207.28310177708335,69.0,127.0
316,207.39401708333332,207.70035459583332,74.0,112.0
317,207.81655158333334,208.13697357916666,74.0,112.0
318,208.23908608333332,208.79014149374999,72.0,117.0
319,209.08415508333334,209.42042212291668,69.0,122.0
320,209.50668958333333,209.83239326041667,67.0,117.0
321,209.92922408333334,210.18626590416667,65.0,100.0
322,210.35175858333332,210.76196916041667,77.0,112.0
323,210.77429308333333,211.19858814375,76.0,102.0
324,211.19682758333335,211.795418125,72.0,99.0
325,211.83062933333332,212.30422008541666,69.0,107.0
326,212.46443108333332,214.57710358333333,69.0,99.0
327,214.99963808333334,215.32006007916667,67.0,112.0
328,215.42217258333332,215.64224263541666,69.0,112.0
329,215.84470708333333,216.38343857083333,74.0,117.0
330,216.68977608333333,216.97674743125,72.0,117.0
331,217.11231058333334,217.50139443541667,69.0,122.0
332,217.53484508333332,217.90808389166668,67.0,107.0
333,217.95737958333333,218.27956213958333,69.0,122.0
334,218.59118133333334,218.75667401249999,67.0,100.0
335,218.80244858333333,219.3059688625,65.0,107.0
336,219.43625033333333,220.837656425,62.0,102.0
