,start,end,pitch,velocity
0,0.06514073541666666,1.8274617125,45.0,66.0
1,0.6021116625,2.2464750916666665,52.0,42.0
2,1.24119509375,2.26584125625,64.0,41.0
3,1.7517576145833333,2.316897508333333,57.0,42.0
4,1.246476775,2.3309819916666665,61.0,40.0
5,2.6126716583333334,3.1760509916666666,59.0,42.0
6,2.2728834979166668,3.7429514458333335,47.0,44.0
7,3.08978353125,4.260556208333333,66.0,50.0
8,3.1021074541666667,4.353865910416666,63.0,50.0
9,3.6989374354166666,4.366189833333333,59.0,43.0
10,4.87499179375,5.485906258333333,56.0,40.0
11,4.3204152625,6.144355854166666,49.0,56.0
12,6.339778060416666,7.496466254166666,49.0,42.0
13,5.896116835416667,8.274633958333334,56.0,40.0
14,5.42428664375,8.2922395625,64.0,39.0
15,5.426047204166666,8.32921133125,61.0,36.0
16,8.31864796875,9.508786810416666,45.0,57.0
17,8.839773852083333,9.53343465625,52.0,35.0
18,9.357378614583332,10.2992784375,64.0,59.0
19,9.8344904875,10.3943487,57.0,41.0
20,9.352096933333334,10.440123270833332,61.0,56.0
21,10.718291816666667,11.4084315,54.0,56.0
22,10.313362920833333,11.626740991666667,47.0,48.0
23,11.242938820833333,12.320401795833334,66.0,39.0
24,11.24469938125,12.410190377083334,63.0,46.0
25,11.781670308333334,12.484133914583333,59.0,41.0
26,12.864414964583334,13.760540216666666,56.0,50.0
27,13.899624489583333,16.36793019375,56.0,46.0
28,13.330963475,16.376732995833333,61.0,52.0
29,12.389063652083333,16.408423083333332,49.0,56.0
30,14.558074085416667,16.417225885416666,64.0,30.0
31,17.676026583333332,18.948911764583332,45.0,72.0
32,18.098561083333333,18.984122972916666,52.0,59.0
33,18.521095583333334,19.359122341666666,64.0,90.0
34,18.943630083333332,19.43130531875,61.0,58.0
35,19.788699083333334,20.346796735416667,54.0,59.0
36,19.366164583333333,20.448909239583333,47.0,68.0
37,20.211233583333332,21.012288572916667,66.0,86.0
38,20.633768083333333,21.102077154166665,59.0,51.0
39,21.47883708333333,22.031653054166668,56.0,52.0
40,22.323906083333334,22.99115848125,56.0,52.0
41,21.056302583333334,23.087989304166666,49.0,78.0
42,21.901371583333333,23.19714405,61.0,72.0
43,22.74644058333333,23.484115397916668,64.0,67.0
44,23.168975083333333,24.04221305,49.0,52.0
45,23.591509583333334,24.429536341666665,61.0,76.0
46,24.01404408333333,24.43833914375,56.0,76.0
47,23.591509583333334,24.44890250625,64.0,85.0
48,24.436578583333333,25.50523875625,45.0,68.0
49,24.859113083333334,25.665449754166666,52.0,54.0
50,25.28164758333333,26.172491154166668,64.0,85.0
51,25.704182083333333,26.198899560416667,61.0,69.0
52,26.549251083333335,27.087982570833333,54.0,65.0
53,27.394320083333334,27.732347683333334,63.0,29.0
54,26.126716583333334,27.753474408333332,47.0,58.0
55,26.971785583333332,27.758756089583333,66.0,100.0
56,28.239389083333332,28.938331568749998,59.0,66.0
57,28.661923583333333,29.23762683958333,68.0,99.0
58,29.084458083333335,29.31861261875,64.0,57.0
59,27.816854583333335,29.461218012499998,52.0,69.0
60,29.506992583333332,29.737625997916666,46.0,71.0
61,29.506992583333332,29.848541304166666,61.0,58.0
62,29.506992583333332,29.848541304166666,64.0,65.0
63,29.506992583333332,29.885513072916666,58.0,57.0
64,30.352061583333334,30.811567852083332,44.0,54.0
65,30.352061583333334,31.163679935416667,60.0,69.0
66,30.352061583333334,31.1830461,56.0,54.0
67,30.352061583333334,31.216496747916665,63.0,63.0
68,31.197130583333333,32.44360735833333,45.0,56.0
69,31.619665083333334,32.4612129625,52.0,64.0
70,32.042199583333336,32.87142353958333,64.0,93.0
71,32.46473408333333,32.881986902083334,61.0,96.0
72,33.309803083333335,33.778112154166664,54.0,54.0
73,33.94360483333333,34.09853415,54.0,79.0
74,32.88726858333333,34.21825225833334,47.0,73.0
75,34.15487208333333,34.5105052875,63.0,67.0
76,33.73233758333333,34.52282921041667,66.0,112.0
77,34.36613933333334,34.60733611041667,59.0,75.0
78,34.577406583333335,35.51578528541667,49.0,82.0
79,34.99994108333333,35.87493961041667,56.0,81.0
80,35.633742833333336,36.10909414583333,49.0,68.0
81,36.056277333333334,36.44184006458333,56.0,85.0
82,35.845010083333335,36.45768510833333,61.0,59.0
83,35.42247558333333,36.55099481041667,64.0,79.0
84,36.69007908333333,37.167190956249996,56.0,88.0
85,36.26754458333333,37.234092252083336,49.0,69.0
86,37.323880833333334,37.5950071375,49.0,85.0
87,37.112613583333335,37.640781708333336,61.0,71.0
88,37.53514808333333,37.85557007916667,56.0,89.0
89,37.74641533333333,38.008738835416665,61.0,50.0
90,37.112613583333335,38.02282331875,64.0,77.0
91,38.380217083333335,38.87493456041667,52.0,45.0
92,38.591484333333334,38.99465266875,57.0,69.0
93,37.95768258333333,39.27106065416667,45.0,69.0
94,39.01401883333333,39.29218737916667,52.0,55.0
95,38.80275158333333,39.57563760625,64.0,86.0
96,39.436553333333336,39.65310226458333,57.0,79.0
97,39.22528608333333,39.656623385416665,61.0,69.0
98,40.07035508333333,40.56155143958333,54.0,47.0
99,40.704156833333336,40.90662128125,54.0,40.0
100,39.647820583333335,41.052747795833334,47.0,61.0
101,40.915424083333335,41.31155017708333,63.0,70.0
102,40.49288958333333,41.31683185833333,66.0,100.0
103,41.12669133333333,41.369648670833335,59.0,70.0
104,41.76049308333333,42.25345,56.0,62.0
105,41.33795858333333,42.79922372916667,49.0,88.0
106,42.183027583333335,42.869646145833336,61.0,72.0
107,43.02809658333333,44.25872831458333,49.0,56.0
108,43.02809658333333,44.57562918958333,64.0,68.0
109,42.60556208333333,44.5879531125,56.0,63.0
110,43.02809658333333,44.72175570416667,61.0,43.0
111,44.718234583333334,46.30449951875,45.0,68.0
112,45.56330358333333,46.374921935416666,64.0,85.0
113,45.14076908333333,46.413654264583336,52.0,53.0
114,45.985838083333334,46.540414614583334,61.0,63.0
115,46.40837258333333,47.81153923541667,47.0,72.0
116,47.253441583333334,48.096750022916666,66.0,92.0
117,46.83090708333334,48.10027114375,59.0,63.0
118,48.521045083333334,49.08090329583333,56.0,54.0
119,49.366114083333336,49.89780332916666,56.0,44.0
120,48.94357958333333,50.26752101666666,61.0,61.0
121,50.21118308333333,50.707661120833336,56.0,36.0
122,48.098510583333336,51.13195618125,49.0,64.0
123,49.788648583333334,51.35554735416667,64.0,45.0
124,51.056252083333334,51.43829369375,56.0,56.0
125,50.633717583333336,51.86082819375,61.0,59.0
126,51.47878658333333,52.897798279166665,45.0,69.0
127,52.323855583333334,53.102023287499996,64.0,78.0
128,51.901321083333336,53.168924583333336,52.0,54.0
129,52.74639008333333,53.25167092291667,61.0,58.0
130,53.168924583333336,54.74814727708333,47.0,68.0
131,54.436528083333336,54.767513441666665,63.0,55.0
132,54.01399358333333,54.769274002083336,66.0,90.0
133,53.59145908333333,54.85906258333333,59.0,57.0
134,56.12666608333333,56.786876239583336,59.0,39.0
135,55.704131583333336,57.072087027083334,52.0,67.0
136,55.28159708333333,57.27279091458333,47.0,53.0
137,56.54920058333333,57.3484950125,68.0,85.0
138,56.54920058333333,57.350255572916666,64.0,72.0
139,56.971735083333336,57.359058375,59.0,62.0
140,54.85906258333333,57.37138229791667,40.0,73.0
141,57.39426958333333,57.609057954166666,41.0,71.0
142,58.239338583333335,59.25518194375,42.0,77.0
143,58.66187308333333,59.2710269875,54.0,79.0
144,59.08440758333333,59.72173045416667,61.0,85.0
145,59.08440758333333,59.737575497916666,66.0,83.0
146,59.506942083333335,59.866096408333334,57.0,79.0
147,59.92947658333333,60.7604611,44.0,77.0
148,60.35201108333333,60.820320154166666,56.0,90.0
149,60.774545583333335,61.17771391875,48.0,67.0
150,60.774545583333335,61.56503721041667,60.0,72.0
151,60.774545583333335,61.59320617708333,63.0,69.0
152,61.61961458333333,61.90658593125,49.0,67.0
153,61.61961458333333,61.94883938125,68.0,66.0
154,61.61961458333333,61.957642183333334,64.0,69.0
155,61.61961458333333,61.98405058958333,61.0,67.0
156,62.46468358333333,62.71116204166667,66.0,59.0
157,62.46468358333333,62.76926053541666,63.0,59.0
158,62.46468358333333,62.77102109583333,47.0,55.0
159,62.46468358333333,62.79566894166667,59.0,63.0
160,63.309752583333335,64.4259478875,46.0,56.0
161,63.309752583333335,64.88369359583334,64.0,69.0
162,63.309752583333335,64.91538368333333,58.0,60.0
163,63.309752583333335,64.99284834166667,61.0,64.0
164,65.42242508333334,65.91890312083333,54.0,52.0
165,64.99989058333334,66.5914372,42.0,79.0
166,66.05622683333333,66.61784560625,54.0,58.0
167,66.26749408333333,66.66009905625,61.0,60.0
168,66.47876133333334,66.69002858333333,57.0,58.0
169,65.84495958333333,66.69002858333333,66.0,93.0
170,66.69002858333333,66.74812707708334,56.0,50.0
171,66.69002858333333,67.14073205,63.0,68.0
172,66.69002858333333,67.42946395833333,59.0,69.0
173,67.11256308333333,67.69706914166666,56.0,75.0
174,66.69002858333333,67.81854781041666,44.0,83.0
175,67.53509758333334,68.302701925,63.0,76.0
176,67.95763208333334,68.39425106666667,59.0,62.0
177,68.80270108333333,69.42593947083333,49.0,67.0
178,69.64777008333333,70.44354339166667,49.0,53.0
179,70.07030458333334,70.8167822,64.0,69.0
180,70.07030458333334,70.87840181458333,61.0,63.0
181,70.91537358333333,71.00868328541667,61.0,28.0
182,69.22523558333333,71.05621841666667,56.0,88.0
183,71.12664083333333,71.52276692708334,49.0,72.0
184,68.38016658333333,71.62311887083334,37.0,72.0
185,71.33790808333333,71.68121736458333,56.0,86.0
186,71.54917533333334,71.81854107708334,61.0,78.0
187,70.91537358333333,71.86431564791667,64.0,70.0
188,72.18297708333333,72.40656825625,57.0,83.0
189,72.39424433333333,72.56325813333333,61.0,79.0
190,71.97170983333334,72.65128615416667,52.0,56.0
191,71.76044258333333,73.28684846458333,45.0,81.0
192,72.81677883333333,73.31149631041667,52.0,86.0
193,73.02804608333334,73.37663704583333,61.0,99.0
194,72.60551158333334,73.415369375,64.0,89.0
195,73.23931333333333,73.47522842916666,57.0,92.0
196,73.66184783333333,74.36255087916666,54.0,65.0
197,74.08438233333334,74.37311424166667,63.0,82.0
198,73.87311508333333,74.40832544999999,59.0,72.0
199,74.50691683333334,74.58614205208333,54.0,64.0
200,73.45058058333333,74.60550821666666,47.0,56.0
201,74.29564958333333,75.1371974625,66.0,99.0
202,74.71818408333333,75.147760825,63.0,96.0
203,74.92945133333333,75.16712698958334,59.0,77.0
204,75.35198583333333,75.73226688333334,49.0,95.0
205,75.77452033333333,75.97522422083333,49.0,69.0
206,75.56325308333334,76.06149168125,52.0,86.0
207,75.98578758333333,76.52627963125,56.0,96.0
208,75.14071858333334,76.7428285625,37.0,82.0
209,76.40832208333333,76.79388481458334,52.0,72.0
210,76.19705483333334,76.82205378125,49.0,78.0
211,76.61958933333334,76.83965938541667,61.0,97.0
212,77.46465833333333,77.62134821041667,64.0,41.0
213,77.25339108333333,77.77099584583333,61.0,79.0
214,77.04212383333333,77.92768572291666,49.0,86.0
215,76.83085658333333,77.96993917291667,37.0,90.0
216,77.67592558333334,78.0738122375,68.0,112.0
217,78.09846008333334,78.3273329375,64.0,44.0
218,77.88719283333333,78.37838918958333,61.0,89.0
219,78.30972733333333,78.48402281458333,68.0,93.0
220,79.15479633333334,79.33789461666666,61.0,79.0
221,78.73226183333334,79.4047959125,52.0,79.0
222,78.94352908333333,79.46465496666667,57.0,81.0
223,78.52099458333333,79.86254162083333,45.0,72.0
224,79.57733083333333,80.1231045625,52.0,65.0
225,79.36606358333333,80.15479465,64.0,90.0
226,79.78859808333333,80.175921375,61.0,82.0
227,79.99986533333333,80.20937202291667,57.0,93.0
228,80.84493433333333,81.12134231875,63.0,96.0
229,80.42239983333333,81.18472249375,54.0,92.0
230,80.63366708333334,81.18648305416667,59.0,85.0
231,81.26746883333334,81.42415871041666,54.0,76.0
232,80.21113258333334,81.46113047916667,47.0,72.0
233,81.05620158333333,81.7921158375,66.0,107.0
234,81.47873608333333,81.79563695833333,63.0,96.0
235,81.69000333333334,81.908312825,59.0,85.0
236,82.11253783333333,82.40303030208334,56.0,76.0
237,82.32380508333333,82.67767772708333,61.0,41.0
238,82.53507233333333,82.82028312083334,56.0,82.0
239,82.95760683333333,83.20936697291667,56.0,63.0
240,81.90127058333333,83.43823982708334,49.0,96.0
241,83.16887408333334,83.598450825,61.0,49.0
242,82.74633958333334,83.62133811041667,64.0,81.0
243,83.38014133333333,83.65302819791667,56.0,96.0
244,83.80267583333334,84.09668942291667,56.0,83.0
245,84.01394308333333,84.31852003541667,61.0,72.0
246,84.22521033333334,84.50866056041667,56.0,97.0
247,83.59140858333333,84.6864771625,49.0,83.0
248,84.64774483333333,84.89422329166666,56.0,75.0
249,84.85901208333333,85.1935185625,61.0,92.0
250,85.07027933333333,85.22168752916667,56.0,102.0
251,84.43647758333333,85.2357720125,64.0,90.0
252,85.70408108333334,85.92591169583334,57.0,99.0
253,85.91534833333333,86.08260157291667,61.0,117.0
254,85.49281383333333,86.19527743958334,52.0,63.0
255,85.28154658333334,86.79386798125,45.0,77.0
256,86.33788283333334,86.88893824375,52.0,88.0
257,86.12661558333333,86.90654384791667,64.0,100.0
258,86.54915008333333,86.91006496874999,61.0,112.0
259,86.76041733333334,86.99985355,57.0,96.0
260,87.60548633333333,87.77802125416666,63.0,112.0
261,87.18295183333333,87.92942945,54.0,92.0
262,87.39421908333333,87.94175337291666,59.0,85.0
263,88.02802083333333,88.14773894166666,54.0,107.0
264,86.97168458333333,88.18118958958333,47.0,86.0
265,88.23928808333334,88.58259736458334,63.0,127.0
266,87.81675358333334,88.63013249583334,66.0,127.0
267,88.45055533333333,88.66534370416666,59.0,96.0
268,89.29562433333334,89.45935645208333,56.0,97.0
269,88.87308983333334,89.52801830833333,49.0,65.0
270,89.08435708333333,89.725201075,52.0,79.0
271,89.50689158333333,90.04738363125,61.0,127.0
272,89.92942608333334,90.11252436666666,56.0,81.0
273,88.66182258333333,90.26041144166666,37.0,107.0
274,89.71815883333333,90.41005907708333,49.0,96.0
275,90.14069333333333,90.68822762291667,52.0,99.0
276,90.14069333333333,90.80442461041666,56.0,63.0
277,90.14069333333333,90.8449175,61.0,86.0
278,90.98576233333333,91.12836772708333,56.0,100.0
279,90.56322783333333,91.16533949583334,49.0,74.0
280,90.77449508333333,91.40829683333334,52.0,72.0
281,90.35196058333334,91.47519812916667,37.0,89.0
282,91.40829683333334,91.50864877708334,49.0,92.0
283,91.61956408333333,91.93646495833333,56.0,107.0
284,91.83083133333334,91.96287336458333,52.0,88.0
285,91.19702958333333,91.97343672708334,61.0,122.0
286,92.46463308333334,92.67942145416667,57.0,89.0
287,92.67590033333333,92.83435077083334,61.0,99.0
288,92.25336583333333,92.96639280208333,52.0,75.0
289,92.04209858333333,93.43822299375,45.0,81.0
290,93.30970208333333,93.63892688125,61.0,117.0
291,93.09843483333333,93.65125080416666,52.0,89.0
292,92.88716758333334,93.66885640833333,64.0,96.0
293,93.52096933333333,93.69526481458334,57.0,96.0
294,94.36603833333334,94.52624933125,63.0,117.0
295,94.15477108333333,94.68998145,59.0,86.0
296,93.94350383333334,94.69526313125,54.0,90.0
297,94.78857283333333,94.89772757916667,54.0,92.0
298,93.73223658333333,94.93293878749999,47.0,72.0
299,94.57730558333333,95.22519181666667,66.0,127.0
300,94.99984008333334,95.24455798125,63.0,100.0
301,95.21110733333333,95.55969829583333,59.0,96.0
302,95.84490908333333,96.32378151666667,52.0,95.0
303,96.05617633333333,96.48047139375,59.0,97.0
304,95.63364183333333,96.5913867,47.0,95.0
305,96.26744358333333,96.67765416041667,68.0,127.0
306,95.42237458333334,96.70230200625,40.0,89.0
307,96.68997808333333,96.87835804791666,59.0,107.0
308,96.47871083333334,96.92589317916666,52.0,102.0
309,97.11251258333333,97.57730053333333,61.0,85.0
310,97.11251258333333,97.6371595875,64.0,88.0
311,97.11251258333333,97.80265226666667,58.0,96.0
312,97.11251258333333,97.9540604625,46.0,102.0
313,97.95758158333334,98.37307384166667,44.0,89.0
314,97.95758158333334,98.42765121458334,59.0,79.0
315,97.95758158333334,98.45758074166666,63.0,93.0
316,97.95758158333334,98.47518634583334,56.0,97.0
317,98.80265058333333,99.3061708625,61.0,96.0
318,99.22518508333333,99.443494575,57.0,90.0
319,98.80265058333333,99.48574802499999,64.0,86.0
320,99.43645233333334,99.61426893541666,61.0,79.0
321,99.01391783333334,99.75159264791667,52.0,78.0
322,98.80265058333333,100.25335236666666,45.0,85.0
323,99.64771958333333,100.39595776041666,64.0,99.0
324,99.85898683333333,100.41180280416667,52.0,86.0
325,100.07025408333334,100.4258872875,61.0,112.0
326,100.28152133333333,100.5103941875,57.0,93.0
327,101.12659033333333,101.29032245208333,63.0,99.0
328,100.70405583333333,101.44701232916667,54.0,93.0
329,100.91532308333333,101.45933625208333,59.0,81.0
330,101.54912483333334,101.72694143541666,54.0,92.0
331,100.49278858333334,101.82377225833334,47.0,81.0
332,101.33785758333333,102.04384231041666,66.0,112.0
333,101.76039208333333,102.05616623333333,63.0,117.0
334,101.97165933333333,102.08609576041667,59.0,92.0
335,102.39419383333333,102.70053134583333,56.0,82.0
336,102.18292658333333,102.92236195833333,49.0,112.0
337,102.60546108333334,103.01743222083333,64.0,96.0
338,102.81672833333333,103.02271390208334,61.0,89.0
339,103.45053008333333,103.64771285,63.0,107.0
340,103.66179733333334,103.82552945208333,59.0,92.0
341,103.02799558333334,103.83257169375,47.0,100.0
342,103.87306458333333,104.60545771666666,61.0,99.0
343,103.87306458333333,104.62306332083334,58.0,112.0
344,103.87306458333333,104.81848552708334,46.0,97.0
345,104.92940083333333,105.22869610416667,46.0,102.0
346,104.71813358333333,105.26566787291667,64.0,97.0
347,105.14066808333334,105.49454072708333,58.0,96.0
348,105.35193533333333,105.56672370416666,61.0,96.0
349,105.98573708333333,106.17411704791667,57.0,86.0
350,106.19700433333334,106.35721533125,61.0,102.0
351,105.77446983333333,106.44876447291666,52.0,76.0
352,105.56320258333334,107.08960846458334,45.0,72.0
353,106.83080608333333,107.17763648541667,61.0,112.0
354,106.61953883333334,107.18115760625,52.0,83.0
355,106.40827158333333,107.21988993541666,64.0,93.0
356,107.04207333333333,107.28679123124999,57.0,85.0
357,107.46460783333333,108.18643760416667,54.0,93.0
358,107.88714233333333,108.24805721875,63.0,92.0
359,107.67587508333334,108.28855010833334,59.0,83.0
360,108.30967683333333,108.39594429375,54.0,81.0
361,107.25334058333333,108.4117893375,47.0,73.0
362,108.09840958333334,108.89418289166666,66.0,107.0
363,108.52094408333333,108.94876026458333,63.0,107.0
364,108.73221133333334,108.97868979166667,59.0,86.0
365,109.15474583333334,109.79911094583333,49.0,85.0
366,109.36601308333333,110.00157539375,52.0,66.0
367,109.57728033333333,110.24277217083333,56.0,92.0
368,109.78854758333333,110.24629329166666,61.0,100.0
369,108.94347858333333,110.53326463958334,37.0,95.0
370,110.42234933333333,110.57375752916667,56.0,71.0
371,109.99981483333333,110.68115171458334,49.0,93.0
372,110.63361658333334,111.38889700208333,61.0,100.0
373,110.63361658333334,111.42058708958334,56.0,64.0
374,111.05615108333333,111.54734743958333,49.0,55.0
375,110.21108208333334,111.61600929583334,52.0,79.0
376,111.47868558333333,111.64945994375,56.0,56.0
377,110.63361658333334,111.654741625,37.0,86.0
378,111.47868558333333,111.7075584375,61.0,82.0
379,113.16882358333334,114.78853916666667,61.0,92.0
380,113.59135808333333,114.93290512083333,57.0,70.0
381,112.74628908333334,114.97691913125,52.0,60.0
382,112.32375458333333,115.13536956875,45.0,75.0
383,114.85896158333333,115.73396011041666,64.0,89.0
384,115.28149608333334,115.74804459375,61.0,82.0
385,116.12656508333333,117.06494378541666,56.0,82.0
386,116.54909958333333,117.76212571041667,64.0,71.0
387,116.97163408333333,117.95226623541667,61.0,74.0
388,115.70403058333333,118.37832185625,49.0,78.0
389,117.81670308333334,119.09663050625,56.0,61.0
390,118.23923758333333,119.16177124166667,64.0,66.0
391,118.66177208333333,119.81317859583334,61.0,72.0
392,119.50684108333333,120.85190924166666,52.0,59.0
393,119.92937558333334,121.49099267291666,64.0,79.0
394,120.35191008333334,121.49275323333333,61.0,63.0
395,121.19697908333333,121.63535862708333,52.0,66.0
396,119.08430658333333,121.66000647291666,45.0,77.0
397,122.04204808333333,122.50155435208333,61.0,63.0
398,121.61951358333333,122.55965284583333,64.0,73.0
399,123.30965158333333,124.26739644999999,49.0,90.0
400,123.73218608333333,125.05084583541667,52.0,66.0
401,122.88711708333334,125.54732387291666,44.0,48.0
402,124.57725508333333,125.598380125,49.0,74.0
403,122.46458258333334,125.61950685,37.0,93.0
404,124.99978958333334,125.78852065,56.0,77.0
405,124.15472058333333,125.80612625416667,61.0,96.0
406,125.42232408333334,125.81140793541667,52.0,74.0
407,125.84485858333333,127.26387027916667,45.0,69.0
408,126.68992758333333,127.4680952875,64.0,78.0
409,126.26739308333333,127.53499658333334,52.0,54.0
410,127.11246208333333,127.61774292291666,61.0,58.0
411,127.53499658333334,129.11421927708332,47.0,68.0
412,128.80260008333335,129.13358544166667,63.0,55.0
413,128.38006558333333,129.13534600208334,66.0,90.0
414,127.95753108333334,129.22513458333333,59.0,57.0
415,130.49273808333334,131.15294823958334,59.0,39.0
416,130.07020358333332,131.43815902708334,52.0,67.0
417,129.64766908333334,131.63886291458334,47.0,53.0
418,130.91527258333332,131.7145670125,68.0,85.0
419,130.91527258333332,131.71632757291667,64.0,72.0
420,131.33780708333333,131.725130375,59.0,62.0
421,129.22513458333333,131.73745429791666,40.0,73.0
422,131.76034158333334,131.97512995416668,41.0,71.0
423,132.60541058333334,133.62125394375,42.0,77.0
424,133.02794508333332,133.6370989875,54.0,79.0
425,133.45047958333333,134.08780245416668,61.0,85.0
426,133.45047958333333,134.10364749791665,66.0,83.0
427,133.87301408333335,134.23216840833334,57.0,79.0
428,134.29554858333333,135.1265331,44.0,77.0
429,134.71808308333334,135.18639215416667,56.0,90.0
430,135.14061758333332,135.54378591875,48.0,67.0
431,135.14061758333332,135.93110921041668,60.0,72.0
432,135.14061758333332,135.95927817708332,63.0,69.0
433,135.98568658333332,136.27265793125,49.0,67.0
434,135.98568658333332,136.31491138125,68.0,66.0
435,135.98568658333332,136.32371418333332,64.0,69.0
436,135.98568658333332,136.35012258958332,61.0,67.0
437,136.83075558333334,137.07723404166666,66.0,59.0
438,136.83075558333334,137.13533253541667,63.0,59.0
439,136.83075558333334,137.13709309583334,47.0,55.0
440,136.83075558333334,137.16174094166666,59.0,63.0
441,137.67582458333334,138.7920198875,46.0,56.0
442,137.67582458333334,139.24976559583334,64.0,69.0
443,137.67582458333334,139.28145568333332,58.0,60.0
444,137.67582458333334,139.35892034166667,61.0,64.0
445,139.78849708333334,140.28497512083334,54.0,52.0
446,139.36596258333333,140.9575092,42.0,79.0
447,140.42229883333334,140.98391760625,54.0,58.0
448,140.63356608333333,141.02617105625,61.0,60.0
449,140.84483333333333,141.05610058333332,57.0,58.0
450,140.21103158333332,141.05610058333332,66.0,93.0
451,141.05610058333332,141.11419907708333,56.0,50.0
452,141.05610058333332,141.50680405,63.0,68.0
453,141.05610058333332,141.79553595833335,59.0,69.0
454,141.47863508333333,142.06314114166668,56.0,75.0
455,141.05610058333332,142.18461981041668,44.0,83.0
456,141.90116958333334,142.668773925,63.0,76.0
457,142.32370408333333,142.76032306666667,59.0,62.0
458,143.16877308333332,143.79201147083333,49.0,67.0
459,144.01384208333334,144.80961539166665,49.0,53.0
460,144.43637658333333,145.1828542,64.0,69.0
461,144.43637658333333,145.24447381458333,61.0,63.0
462,145.28144558333332,145.37475528541665,61.0,28.0
463,143.59130758333333,145.42229041666667,56.0,88.0
464,145.49271283333334,145.88883892708333,49.0,72.0
465,142.74623858333334,145.98919087083334,37.0,72.0
466,145.70398008333333,146.04728936458332,56.0,86.0
467,145.91524733333333,146.18461307708333,61.0,78.0
468,145.28144558333332,146.23038764791667,64.0,70.0
469,146.54904908333333,146.77264025624999,57.0,83.0
470,146.76031633333332,146.92933013333334,61.0,79.0
471,146.33778183333334,147.01735815416666,52.0,56.0
472,146.12651458333335,147.65292046458333,45.0,81.0
473,147.18285083333333,147.67756831041666,52.0,86.0
474,147.39411808333332,147.74270904583332,61.0,99.0
475,146.97158358333334,147.78144137499999,64.0,89.0
476,147.60538533333334,147.84130042916667,57.0,92.0
477,148.02791983333333,148.72862287916666,54.0,65.0
478,148.45045433333334,148.73918624166666,63.0,82.0
479,148.23918708333332,148.77439745,59.0,72.0
480,148.87298883333332,148.95221405208332,54.0,64.0
481,147.81665258333334,148.97158021666667,47.0,56.0
482,148.66172158333333,149.5032694625,66.0,99.0
483,149.08425608333334,149.513832825,63.0,96.0
484,149.29552333333334,149.53319898958333,59.0,77.0
485,149.71805783333332,150.09833888333333,49.0,95.0
486,150.14059233333333,150.34129622083333,49.0,69.0
487,149.92932508333334,150.42756368125,52.0,86.0
488,150.35185958333332,150.89235163125,56.0,96.0
489,149.50679058333333,151.1089005625,37.0,82.0
490,150.77439408333333,151.15995681458332,52.0,72.0
491,150.56312683333334,151.18812578125,49.0,78.0
492,150.98566133333333,151.20573138541667,61.0,97.0
493,151.83073033333332,151.98742021041667,64.0,41.0
494,151.61946308333333,152.13706784583334,61.0,79.0
495,151.40819583333334,152.29375772291667,49.0,86.0
496,151.19692858333335,152.33601117291667,37.0,90.0
497,152.04199758333334,152.4398842375,68.0,112.0
498,152.46453208333332,152.6934049375,64.0,44.0
499,152.25326483333333,152.74446118958332,61.0,89.0
500,152.67579933333334,152.85009481458334,68.0,93.0
501,153.30960108333332,153.56840346458333,61.0,82.0
502,153.09833383333333,153.79551575833332,52.0,42.0
503,152.88706658333334,154.45572591458333,45.0,75.0
504,153.94340283333332,154.50854272708332,52.0,65.0
505,153.52086833333334,154.52790889166667,64.0,93.0
506,154.15467008333334,154.53847225416666,61.0,74.0
507,154.36593733333333,154.61065523125,57.0,56.0
508,154.78847183333332,155.47861151666666,54.0,74.0
509,154.99973908333334,155.62121691041668,59.0,77.0
510,155.63354083333334,155.89586433541666,54.0,51.0
511,154.57720458333333,156.05959645416667,47.0,55.0
512,155.84480808333333,156.17227232083334,63.0,86.0
513,155.21100633333333,156.2004412875,66.0,117.0
514,156.05607533333333,156.20924408958334,59.0,82.0
515,156.68987708333333,156.86945424583334,64.0,69.0
516,156.47860983333334,157.03318636458334,61.0,57.0
517,156.26734258333335,157.60008681875,49.0,88.0
518,157.74621333333334,157.97332562708334,64.0,58.0
519,157.53494608333332,158.0807198125,61.0,72.0
520,156.90114433333332,158.14586054791667,68.0,100.0
521,158.38001508333332,158.73036660625,61.0,68.0
522,158.16874783333333,158.872972,56.0,36.0
523,159.01381683333332,159.11945045833332,56.0,72.0
524,157.95748058333334,159.13353494166665,49.0,41.0
525,158.80254958333333,159.56487224375,64.0,53.0
526,158.59128233333334,159.6018440125,68.0,112.0
527,159.22508408333334,159.64057634166667,61.0,68.0
528,159.85888583333335,160.56839168125,52.0,74.0
529,160.07015308333334,160.85712358958332,57.0,86.0
530,159.64761858333333,160.99268674166666,45.0,69.0
531,160.70395483333334,161.22332015625,52.0,56.0
532,160.28142033333333,161.2708552875,64.0,95.0
533,160.91522208333333,161.28493977083332,61.0,66.0
534,161.12648933333332,161.32543266041665,57.0,78.0
535,161.54902383333334,162.25500856041666,54.0,95.0
536,162.39409283333333,162.48036029375,54.0,62.0
537,161.33775658333334,162.49268421666667,47.0,70.0
538,161.76029108333333,162.51381094166666,59.0,72.0
539,161.97155833333332,162.97331721041667,66.0,127.0
540,162.60536008333332,163.00676785833332,63.0,81.0
541,162.81662733333334,163.03317626458332,59.0,65.0
542,163.23916183333333,163.84127349583332,49.0,83.0
543,163.45042908333332,164.11592092083333,52.0,65.0
544,163.02789458333334,164.59127223333334,37.0,75.0
545,164.08423083333332,164.64584960625,49.0,72.0
546,163.66169633333334,164.83070845,61.0,117.0
547,164.29549808333334,164.84831405416668,56.0,41.0
548,164.50676533333333,165.02260953541668,52.0,81.0
549,164.92929983333335,165.53493261666665,49.0,100.0
550,165.14056708333334,165.65641128541665,52.0,90.0
551,164.71803258333333,165.86063629375,37.0,96.0
552,165.77436883333334,165.88176301875,49.0,107.0
553,165.56310158333332,166.04021345625,56.0,122.0
554,165.98563608333333,166.25852294791667,52.0,95.0
555,165.35183433333333,166.27964967291666,61.0,127.0
556,166.19690333333332,166.35535377083332,56.0,127.0
557,166.83070508333333,167.00500056458333,57.0,95.0
558,167.04197233333332,167.20218333125,61.0,102.0
559,166.61943783333334,167.30957751666668,52.0,79.0
560,166.40817058333334,167.84302732291667,45.0,92.0
561,167.67577408333332,168.01204112291666,61.0,100.0
562,167.46450683333333,168.01732280416667,52.0,76.0
563,167.25323958333334,168.0842241,64.0,93.0
564,167.88704133333334,168.10887194583333,57.0,85.0
565,168.73211033333334,168.99795495625,63.0,102.0
566,168.52084308333332,169.05253232916667,59.0,78.0
567,168.30957583333333,169.05605345,54.0,89.0
568,169.15464483333332,169.2673207,54.0,77.0
569,168.09830858333333,169.31133471041667,47.0,70.0
570,168.94337758333333,169.67577071666668,66.0,107.0
571,169.36591208333334,169.69865800208333,63.0,112.0
572,169.57717933333333,169.76555929791667,59.0,92.0
573,169.78844658333333,170.72858584583332,49.0,92.0
574,170.21098108333334,170.74971257083334,61.0,81.0
575,170.84478283333334,171.32365526666666,49.0,63.0
576,171.05605008333333,171.49090850625,61.0,92.0
577,170.63351558333332,171.55604924166667,68.0,107.0
578,171.26731733333332,171.60534493333333,64.0,71.0
579,171.68985183333334,171.94689365416667,61.0,75.0
580,171.90111908333333,172.13175249791666,64.0,59.0
581,172.11238633333332,172.42400552708332,61.0,93.0
582,171.47858458333334,172.62823053541666,49.0,85.0
583,172.53492083333333,172.79196265416667,61.0,102.0
584,172.74618808333332,172.9116807625,64.0,73.0
585,172.32365358333334,173.07365232083333,68.0,107.0
586,172.95745533333334,173.175764825,61.0,117.0
587,173.59125708333335,173.83949610208333,57.0,85.0
588,173.80252433333334,173.95569308958332,61.0,97.0
589,173.37998983333333,174.084214,52.0,59.0
590,173.16872258333333,174.71801575,45.0,74.0
591,174.43632608333334,174.80076208958334,61.0,100.0
592,174.22505883333332,174.80604377083333,52.0,76.0
593,174.01379158333333,174.83245217708333,64.0,95.0
594,174.64759333333333,174.89407179166668,57.0,95.0
595,175.49266233333333,175.66343669375,63.0,97.0
596,175.28139508333334,175.79723928541665,59.0,82.0
597,175.07012783333334,175.80252096666666,54.0,95.0
598,175.91519683333334,176.24618219166666,54.0,99.0
599,176.12646408333333,176.38526646458334,59.0,102.0
600,174.85886058333332,176.40639318958333,47.0,79.0
601,175.70392958333332,176.42047767291666,66.0,127.0
602,176.33773133333332,176.44688607916666,63.0,117.0
603,176.97153308333333,177.4539266375,52.0,83.0
604,177.18280033333332,177.6229404375,59.0,78.0
605,176.76026583333334,177.65991220625,47.0,90.0
606,176.54899858333334,177.6863206125,40.0,74.0
607,177.39406758333334,177.80603872083333,68.0,117.0
608,177.60533483333333,177.88878506041667,52.0,92.0
609,177.81660208333332,177.95216523541666,59.0,88.0
610,178.23913658333333,178.66167108333335,46.0,97.0
611,178.23913658333333,178.70568509375,61.0,99.0
612,178.23913658333333,178.7637835875,58.0,97.0
613,179.08420558333333,179.70216228958333,44.0,72.0
614,179.08420558333333,179.76202134375,60.0,90.0
615,179.08420558333333,179.76906358541666,56.0,96.0
616,179.08420558333333,179.81835927708335,63.0,81.0
617,180.35180908333334,180.59300586041667,57.0,92.0
618,180.56307633333333,180.81659703333332,61.0,100.0
619,180.14054183333334,180.84300543958332,52.0,78.0
620,179.92927458333332,181.38173692708332,45.0,69.0
621,180.98561083333334,181.53314512291666,52.0,86.0
622,180.77434358333332,181.5525112875,64.0,93.0
623,181.19687808333333,181.56131408958333,61.0,100.0
624,181.40814533333332,181.61237034166666,57.0,89.0
625,182.25321433333332,182.40814365,63.0,93.0
626,182.04194708333333,182.45391822083334,59.0,77.0
627,181.83067983333333,182.58948137291665,54.0,96.0
628,182.67574883333333,182.87997384166667,54.0,89.0
629,181.61941258333334,183.08067772916667,47.0,72.0
630,182.88701608333332,183.12293117916667,59.0,92.0
631,182.46448158333334,183.15990294791666,66.0,117.0
632,183.09828333333334,183.2003958375,63.0,89.0
633,183.52081783333333,183.8025075,61.0,93.0
634,183.73208508333335,184.06835212291668,68.0,100.0
635,183.30955058333333,184.08947884791667,49.0,100.0
636,183.94335233333334,184.09299996875,61.0,112.0
637,184.57715408333334,184.879970475,59.0,93.0
638,184.15461958333333,184.93454784791666,47.0,97.0
639,184.99968858333332,185.70567331041667,61.0,89.0
640,184.99968858333332,185.82363085833333,58.0,102.0
641,184.99968858333332,185.9468700875,46.0,96.0
642,186.05602483333334,186.24792591874998,46.0,93.0
643,185.84475758333332,186.35708066458332,64.0,93.0
644,186.26729208333333,186.57186903541665,58.0,95.0
645,186.47855933333332,186.67926322083332,61.0,88.0
646,187.11236108333333,187.34651561875,57.0,86.0
647,187.32362833333335,187.48207877083334,61.0,90.0
648,186.90109383333333,187.63172640625,52.0,66.0
649,186.68982658333334,188.17750013541666,45.0,69.0
650,187.74616283333333,188.30073936458334,52.0,81.0
651,187.53489558333334,188.31658440833334,64.0,92.0
652,187.95743008333332,188.32714777083334,61.0,99.0
653,188.16869733333334,188.4186969125,57.0,90.0
654,189.01376633333334,189.18454069375,63.0,93.0
655,188.59123183333332,189.26904759375,54.0,68.0
656,188.80249908333334,189.47855428333332,59.0,70.0
657,188.37996458333333,189.50496268958332,47.0,55.0
658,189.43630083333332,189.52080773333333,54.0,72.0
659,189.22503358333333,189.99968016666668,66.0,112.0
660,189.64756808333334,190.06306034166667,63.0,90.0
661,189.85883533333333,190.09475042916665,59.0,75.0
662,190.49263708333334,190.91869270416666,49.0,73.0
663,190.70390433333333,191.33594552291666,52.0,72.0
664,190.07010258333332,191.62643799166668,37.0,67.0
665,190.28136983333334,191.70214208958333,44.0,33.0
666,191.12643883333334,191.76024058333334,49.0,81.0
667,191.54897333333332,191.76024058333334,52.0,89.0
668,191.33770608333333,191.76024058333334,56.0,100.0
669,190.91517158333332,191.76024058333334,61.0,107.0
670,191.76024058333334,191.80249403333335,57.0,61.0
671,191.76024058333334,192.47326755208334,62.0,95.0
672,191.76024058333334,192.47326755208334,65.0,92.0
673,192.18277508333333,192.65108415416665,50.0,86.0
674,192.39404233333335,193.0454496875,57.0,86.0
675,192.81657683333333,193.06481585208334,50.0,92.0
676,191.97150783333333,193.36059000208334,45.0,85.0
677,191.76024058333334,193.43277297916666,38.0,79.0
678,193.02784408333332,193.44509690208332,62.0,117.0
679,192.60530958333334,193.45213914375,65.0,100.0
680,193.23911133333334,193.46446306666667,57.0,97.0
681,193.87291308333334,194.04720856458334,58.0,95.0
682,194.08418033333334,194.24439133125,62.0,102.0
683,193.66164583333332,194.35178551666667,53.0,79.0
684,193.45037858333333,194.88523532291666,46.0,92.0
685,194.71798208333334,195.05424912291667,62.0,100.0
686,194.50671483333332,195.05953080416666,53.0,76.0
687,194.29544758333333,195.1264321,65.0,93.0
688,194.92924933333333,195.15107994583335,58.0,85.0
689,195.77431833333333,196.04016295625,64.0,102.0
690,195.56305108333333,196.09474032916665,60.0,78.0
691,195.35178383333334,196.09826145,55.0,89.0
692,196.19685283333334,196.3095287,55.0,77.0
693,195.14051658333332,196.35354271041666,48.0,70.0
694,195.98558558333332,196.71797871666666,67.0,107.0
695,196.40812008333333,196.74086600208332,64.0,112.0
696,196.61938733333332,196.80776729791666,60.0,92.0
697,196.83065458333334,197.77079384583334,50.0,92.0
698,197.25318908333333,197.79192057083333,62.0,81.0
699,197.88699083333333,198.36586326666668,50.0,63.0
700,198.09825808333332,198.53311650625,62.0,92.0
701,197.67572358333334,198.59825724166666,69.0,107.0
702,198.30952533333334,198.64755293333334,65.0,71.0
703,198.73205983333332,198.98910165416666,62.0,75.0
704,198.94332708333334,199.17396049791665,65.0,59.0
705,199.15459433333334,199.46621352708334,62.0,93.0
706,198.52079258333333,199.67043853541668,50.0,85.0
707,199.57712883333332,199.83417065416666,62.0,102.0
708,199.78839608333334,199.9538887625,65.0,73.0
709,199.36586158333333,200.11586032083332,69.0,107.0
710,199.99966333333333,200.217972825,62.0,117.0
711,200.63346508333333,200.88170410208332,58.0,85.0
712,200.84473233333333,200.99790108958334,62.0,97.0
713,200.42219783333334,201.126422,53.0,59.0
714,200.21093058333332,201.76022375,46.0,74.0
715,201.47853408333333,201.84297008958333,62.0,100.0
716,201.26726683333334,201.84825177083334,53.0,76.0
717,201.05599958333335,201.87466017708334,65.0,95.0
718,201.68980133333332,201.93627979166666,58.0,95.0
719,202.53487033333334,202.70564469375,64.0,97.0
720,202.32360308333332,202.83944728541667,60.0,82.0
721,202.11233583333333,202.84472896666668,55.0,95.0
722,202.95740483333333,203.28839019166668,55.0,99.0
723,203.16867208333332,203.42747446458333,60.0,102.0
724,201.90106858333334,203.44860118958334,48.0,79.0
725,202.74613758333334,203.46268567291668,67.0,127.0
726,203.37993933333334,203.48909407916668,64.0,117.0
727,204.01374108333334,204.4961346375,53.0,83.0
728,204.22500833333334,204.6651484375,60.0,78.0
729,203.80247383333332,204.70212020625,48.0,90.0
730,203.59120658333333,204.72852861249999,41.0,74.0
731,204.43627558333333,204.84824672083334,69.0,117.0
732,204.64754283333332,204.93099306041665,53.0,92.0
733,204.85881008333334,204.99437323541667,60.0,88.0
734,205.28134458333332,205.70387908333333,47.0,97.0
735,205.28134458333332,205.74789309375,62.0,99.0
736,205.28134458333332,205.8059915875,59.0,97.0
737,206.12641358333335,206.74437028958334,45.0,72.0
738,206.12641358333335,206.80422934375,61.0,90.0
739,206.12641358333335,206.81127158541668,57.0,96.0
740,206.12641358333335,206.86056727708333,64.0,81.0
741,207.39401708333332,207.63521386041666,58.0,92.0
742,207.60528433333334,207.85880503333334,62.0,100.0
743,207.18274983333333,207.88521343958334,53.0,78.0
744,206.97148258333334,208.42394492708334,46.0,69.0
745,208.02781883333333,208.57535312291665,53.0,86.0
746,207.81655158333334,208.5947192875,65.0,93.0
747,208.23908608333332,208.60352208958332,62.0,100.0
748,208.45035333333334,208.65457834166668,58.0,89.0
749,209.29542233333333,209.45035165,64.0,93.0
750,209.08415508333334,209.49612622083333,60.0,77.0
751,208.87288783333332,209.63168937291667,55.0,96.0
752,209.71795683333332,209.92218184166666,55.0,89.0
753,208.66162058333333,210.12288572916665,48.0,72.0
754,209.92922408333334,210.16513917916666,60.0,92.0
755,209.50668958333333,210.20211094791665,67.0,117.0
756,210.14049133333333,210.24260383749998,64.0,89.0
757,210.56302583333334,210.8447155,62.0,93.0
758,210.77429308333333,211.11056012291667,69.0,100.0
759,210.35175858333332,211.13168684791665,50.0,100.0
760,210.98556033333332,211.13520796875,62.0,112.0
761,211.61936208333333,211.922178475,60.0,93.0
762,211.19682758333335,211.97675584791668,48.0,97.0
763,212.04189658333334,212.74788131041666,62.0,89.0
764,212.04189658333334,212.86583885833332,59.0,102.0
765,212.04189658333334,212.9890780875,47.0,96.0
766,213.09823283333333,213.29013391875,47.0,93.0
767,212.88696558333334,213.39928866458334,65.0,93.0
768,213.30950008333332,213.61407703541667,59.0,95.0
769,213.52076733333334,213.72147122083334,62.0,88.0
770,213.73203458333333,215.34822904583334,47.0,59.0
771,213.73203458333333,215.35703184791666,59.0,60.0
772,213.73203458333333,215.36055296875,62.0,63.0
773,213.73203458333333,215.38167969375,65.0,65.0
774,215.84470708333333,216.06477713541668,62.0,56.0
775,216.05597433333332,216.21266421041668,65.0,83.0
776,215.63343983333334,216.27780494583334,58.0,69.0
777,215.42217258333332,216.67393103958332,46.0,97.0
778,216.26724158333334,216.68097328125,65.0,68.0
779,216.47850883333334,216.69857888541665,58.0,68.0
780,216.68977608333333,216.89047997083333,62.0,107.0
781,216.90104333333332,217.11759226458332,65.0,100.0
782,217.74611233333334,217.922168375,64.0,93.0
783,217.53484508333332,217.92568949583332,60.0,72.0
784,217.32357783333333,218.048928725,55.0,69.0
785,218.16864683333333,218.31653390833333,55.0,65.0
786,217.11231058333334,218.39223800625,48.0,72.0
787,217.95737958333333,218.72674448541667,67.0,107.0
788,218.37991408333332,218.73730784791667,64.0,102.0
789,218.59118133333334,218.81301194583332,60.0,90.0
790,219.22498308333334,219.64751758333333,50.0,90.0
791,219.85878483333335,220.04012255625,50.0,81.0
792,218.80244858333333,220.30244605833335,38.0,79.0
793,219.01371583333332,220.49434714375,45.0,77.0
794,219.64751758333333,221.20033187083334,65.0,100.0
795,220.07005208333334,221.20385299166668,64.0,77.0
796,220.49258658333332,221.23554307916666,62.0,93.0
797,220.91512108333333,221.45209201041666,45.0,58.0
798,219.43625033333333,221.58589460208333,57.0,81.0
799,220.49258658333332,221.77603512708333,38.0,83.0
800,221.54892283333334,221.78307736874999,45.0,56.0
801,221.76019008333333,222.14399225416668,64.0,96.0
802,221.33765558333334,222.17392178125,65.0,90.0
803,221.97145733333332,222.20737242916667,62.0,76.0
804,222.60525908333332,223.077089275,58.0,93.0
805,223.23906083333333,223.40631407291667,58.0,59.0
806,222.18272458333334,223.42215911666668,46.0,92.0
807,223.02779358333333,223.86053866041667,65.0,102.0
808,223.45032808333332,223.86582034166668,62.0,81.0
809,224.29539708333334,224.89046650416665,55.0,66.0
810,223.87286258333333,225.03483245833334,48.0,73.0
811,224.71793158333332,225.443282475,67.0,97.0
812,225.14046608333334,225.56124002291668,60.0,90.0
813,226.83060408333333,227.50137760208332,50.0,67.0
814,226.40806958333334,227.92215154166666,65.0,93.0
815,227.25313858333334,227.96088387083333,62.0,86.0
816,227.25313858333334,227.98025003541667,57.0,35.0
817,225.98553508333333,228.11229206666667,45.0,64.0
818,225.56300058333332,228.14222159375,38.0,74.0
819,228.09820758333333,228.16510887916667,57.0,33.0
820,227.67567308333332,228.27602418541667,50.0,74.0
821,228.30947483333333,228.6228545875,62.0,112.0
822,228.52074208333335,228.86405136458333,57.0,73.0
823,228.73200933333334,228.94855826458334,62.0,77.0
824,228.09820758333333,228.98024835208332,65.0,97.0
825,229.36581108333334,230.10876757916665,53.0,52.0
826,229.78834558333332,230.17214775416667,58.0,72.0
827,228.94327658333333,230.18447167708334,46.0,88.0
828,229.78834558333332,230.58940057291667,65.0,97.0
829,230.21088008333334,230.64397794583334,62.0,83.0
830,231.05594908333333,231.57883552708333,55.0,77.0
831,231.68975083333333,231.85172239166667,55.0,56.0
832,230.63341458333332,231.88165191875,48.0,79.0
833,231.47848358333334,232.03834179583333,64.0,93.0
834,232.11228533333332,232.32179202291667,64.0,66.0
835,231.90101808333333,232.35172155,60.0,83.0
836,232.74608708333332,233.260170725,50.0,81.0
837,232.32355258333334,233.9045358375,38.0,74.0
838,232.53481983333333,234.01721170416667,45.0,56.0
839,233.37988883333333,237.485515725,50.0,58.0
840,233.59115608333335,237.51016357083333,64.0,79.0
841,232.95735433333334,237.51368469166667,57.0,57.0
842,233.16862158333333,237.5172058125,65.0,82.0
843,234.01369058333333,237.52952973541667,38.0,68.0
844,234.01369058333333,237.53481141666666,62.0,56.0
