,start,end,pitch,velocity
0,21.36291016875,21.526888716666665,57.0,96.0
1,21.68549091875,22.00000715,57.0,95.0
2,22.00807166875,22.368286839583334,59.0,95.0
3,22.33065241875,22.430114816666666,62.0,102.0
4,22.65323316875,24.002695972916666,62.0,117.0
5,23.94355616875,24.002695972916666,62.0,107.0
6,24.58871766875,24.930115629166664,64.0,96.0
7,24.91129841875,25.29839531875,66.0,102.0
8,25.23387916875,25.29839531875,66.0,127.0
9,26.846782918749998,27.233879818749998,66.0,112.0
10,27.169363668749998,27.376352983333334,69.0,93.0
11,27.49194441875,27.67742835,71.0,96.0
12,27.81452516875,29.236568641666665,74.0,107.0
13,29.10484816875,29.47312785833333,69.0,112.0
14,29.42742891875,29.7580741875,71.0,102.0
15,29.75000966875,30.04033234375,69.0,92.0
16,30.07259041875,31.532268312499998,66.0,93.0
17,32.00807491875,32.341408360416665,66.0,107.0
18,32.33065566875,32.69087083958333,69.0,89.0
19,32.65323641875,32.96506447708333,66.0,107.0
20,32.97581716875,34.158613252083335,64.0,90.0
21,34.26614016875,34.57528005416667,66.0,112.0
22,34.58872091875,34.948936089583334,64.0,82.0
23,34.91130166875,35.18818347916667,62.0,72.0
24,35.23388241875,36.58065705,59.0,86.0
25,37.16936691875,37.46506593958333,59.0,96.0
26,37.49194766875,37.790334862499996,62.0,88.0
27,37.81452841875,38.02689407916667,64.0,88.0
28,38.13710916875,39.2258192,64.0,90.0
29,39.42743216875,39.74463657291667,66.0,100.0
30,39.75001291875,40.088722706249996,64.0,95.0
31,40.072593668749995,40.43280883958333,62.0,89.0
32,40.395174418749995,41.7903361625,57.0,93.0
33,44.58872416875,44.89517588125,57.0,70.0
34,44.91130491875,45.22044480416667,59.0,86.0
35,45.23388566875,45.59141266666666,57.0,82.0
36,45.55646641875,45.784961116666665,62.0,100.0
37,45.87904716875,46.930122779166666,62.0,102.0
38,47.16937016875,47.3548541,62.0,97.0
39,47.49195091875,47.81721984166666,62.0,95.0
40,47.81453166875,48.15055328333333,64.0,86.0
41,48.13711241875,48.32528452291667,66.0,107.0
42,48.45969316875,49.693564537499995,66.0,112.0
43,50.07259691875,50.33334969166666,66.0,100.0
44,50.39517766875,50.63711323125,69.0,89.0
45,50.71775841875,50.868296102083335,71.0,97.0
46,51.040339168749995,51.94894161458333,74.0,102.0
47,52.330662168749996,52.60216763333333,69.0,93.0
48,52.653242918749996,52.98120001458333,71.0,97.0
49,52.975823668749996,53.30109259166667,69.0,93.0
50,53.298404418749996,55.12367382916666,66.0,97.0
51,55.23388891875,55.516147075,66.0,122.0
52,55.55646966875,55.86829772708333,69.0,90.0
53,55.87905041875,56.08872790625,64.0,93.0
54,56.20163116875,56.973136795833334,64.0,96.0
55,57.49195416875,57.78765318958333,66.0,127.0
56,57.81453491875,58.15862105208333,64.0,92.0
57,58.13711566875,58.43281468958333,62.0,96.0
58,58.45969641875,59.79571835833333,59.0,93.0
59,60.39518091875,60.66668638333333,59.0,100.0
60,60.71776166875,60.983890787499995,62.0,92.0
61,61.04034241875,61.22582635,64.0,95.0
62,61.36292316875,62.419375124999995,64.0,96.0
63,62.653246168749995,62.991955956249996,66.0,107.0
64,62.975826918749995,63.298407668749995,64.0,82.0
65,63.298407668749995,63.580665825,66.0,93.0
66,63.620988418749995,66.31453768125,69.0,99.0
67,67.81453816874999,67.97582854375,74.0,93.0
68,68.13711891874999,68.29303294791666,74.0,90.0
69,68.45969966874999,68.77959224583333,74.0,96.0
70,68.78228041874999,69.05378588333333,76.0,117.0
71,69.10486116874999,70.40862503333334,76.0,122.0
72,70.71776491874999,71.03691395,76.0,117.0
73,71.039573525,71.36670125,74.0,92.0
74,71.358722525,71.7337226,76.0,122.0
75,71.677871525,72.67521215,78.0,127.0
76,73.273616525,73.45180805,78.0,117.0
77,73.592765525,73.927871975,78.0,96.0
78,73.911914525,74.0635103,76.0,102.0
79,74.869361525,75.124680725,74.0,102.0
80,74.231063525,75.151276475,76.0,99.0
81,75.188510525,75.5103191,76.0,117.0
82,75.507659525,75.80819149999999,74.0,99.0
83,75.826808525,76.215106475,71.0,93.0
84,76.145957525,78.39644426458334,74.0,100.0
85,78.39106791875,78.61149809791667,69.0,89.0
86,78.71364866875,79.02816490000001,69.0,97.0
87,79.03622941875,79.28354132708334,71.0,112.0
88,79.35881016875,80.46096106458333,71.0,112.0
89,80.64913316875,81.060423625,69.0,100.0
90,80.97171391875,81.28623015000001,71.0,112.0
91,81.29429466875,81.641068975,69.0,97.0
92,81.61687541875,82.97171456875,66.0,99.0
93,83.55235991875,83.90182239791667,59.0,96.0
94,83.87494066875,84.2055859375,62.0,99.0
95,84.19752141875,84.45020967291667,64.0,89.0
96,84.52010216875,85.51741432083334,64.0,102.0
97,85.81042516875,86.17064033958334,66.0,112.0
98,86.13300591875,86.47440387916667,64.0,96.0
99,86.45558666875,86.74322117083334,66.0,112.0
100,86.77816741875,88.17332916250001,69.0,107.0
101,88.39107116875,88.55773788958334,74.0,100.0
102,88.71365191875,88.87225412083333,74.0,92.0
103,89.03623266875,89.28623275000001,74.0,95.0
104,89.35881341875,89.55505004166668,76.0,117.0
105,89.68139416875,90.64913641875,76.0,117.0
106,91.29429791875,91.58730876666667,76.0,127.0
107,91.61687866875,91.87763144166667,74.0,77.0
108,91.93945941875,92.24591113125,76.0,117.0
109,92.26204016875,93.43945990625001,78.0,99.0
110,93.87494391875,94.07118054166668,78.0,127.0
111,94.19752466875,94.52279359166667,78.0,93.0
112,94.52010541875,94.70827752291667,76.0,107.0
113,95.48784766875,95.68677246458333,74.0,107.0
114,94.84268616875,95.78892303541667,76.0,107.0
115,95.81042841875,96.09537474791667,76.0,99.0
116,96.13300916875001,96.45290174583334,74.0,95.0
117,96.45558991875001,96.8184932625,71.0,90.0
118,96.77817066875001,97.96634309791668,74.0,127.0
119,98.71365516875,98.90182727291668,69.0,82.0
120,99.03623591875001,99.19483812083334,69.0,92.0
121,99.35881666875,99.70021462916667,69.0,90.0
122,99.68139741875001,99.899139425,71.0,122.0
123,100.00397816875,100.89645157708334,71.0,117.0
124,101.29430116875,101.50935500208334,69.0,100.0
125,101.61688191875001,101.93677449583333,71.0,100.0
126,101.93946266875,102.08462400625001,69.0,96.0
127,102.26204341875001,103.50666747916667,66.0,117.0
128,104.19752791875,104.43946348125,66.0,112.0
129,104.52010866875,104.87763566666666,69.0,81.0
130,104.84268941875,105.04967873333334,64.0,81.0
131,105.16527016875,106.18946405,64.0,95.0
132,106.45559316875,106.73516315208333,66.0,122.0
133,106.77817391875,107.10344284166666,64.0,92.0
134,107.10075466875,107.45828166666666,62.0,92.0
135,107.42333541875,108.79699177916666,57.0,100.0
136,109.35881991875,109.76204585625001,59.0,93.0
137,109.68140066875,112.27467688541668,62.0,102.0
138,129.6045212875,129.9099876125,57.0,70.0
139,129.9260647875,130.1216704166667,57.0,97.0
140,130.24760828750001,130.6039856666667,57.0,82.0
141,130.5691517875,130.79691176666668,62.0,100.0
142,130.8906952875,131.93839119166668,62.0,102.0
143,132.1768692875,132.36175680000002,62.0,97.0
144,132.4984127875,132.82263581666666,62.0,95.0
145,132.81995628750002,133.15489743333333,64.0,86.0
146,133.1414997875,133.32906682916666,66.0,107.0
147,133.4630432875,134.692947175,66.0,112.0
148,135.0707607875,135.33067511666667,66.0,100.0
149,135.3923042875,135.6334619125,69.0,89.0
150,135.71384778750001,135.86390142083334,71.0,97.0
151,136.0353912875,136.94107214583335,74.0,102.0
152,137.3215652875,137.59219773333334,69.0,93.0
153,137.6431087875,137.97001134583334,71.0,97.0
154,137.9646522875,138.2888753166667,69.0,93.0
155,138.28619578750002,140.10559609166668,66.0,97.0
156,140.21545678750002,140.49680735,66.0,122.0
157,140.5370002875,140.84782567083334,69.0,90.0
158,140.8585437875,141.0675470625,64.0,93.0
159,141.18008728750002,141.94975179583335,64.0,96.0
160,142.46856916875,142.76426818958336,66.0,127.0
161,142.79114991875002,143.13523605208334,64.0,92.0
162,143.11373066875,143.40942968958336,62.0,96.0
163,143.43631141875002,144.77233335833336,59.0,93.0
164,145.37179591875002,145.64330138333335,59.0,100.0
165,145.69437666875,145.9605057875,62.0,92.0
166,146.01695741875002,146.20244135000002,64.0,95.0
167,146.33953816875,147.39599012500003,64.0,96.0
168,147.62986116875,147.96857095625,66.0,107.0
169,147.95244191875003,148.27502266875,64.0,82.0
170,148.27502266875,148.54383996041668,62.0,97.0
171,148.59760341875003,148.88523792083336,59.0,83.0
172,148.92018416875,149.8798619,57.0,92.0
173,152.79115316875001,152.95244354375,74.0,93.0
174,153.11373391875003,153.26964794791667,74.0,90.0
175,153.43631466875001,153.75620724583334,74.0,96.0
176,153.75889541875,154.03040088333336,76.0,117.0
177,154.08147616875002,155.38524003333336,76.0,122.0
178,155.69437991875,156.01427249583335,76.0,117.0
179,156.01696066875002,156.34760593750002,74.0,92.0
180,156.33954141875,156.7185738,76.0,122.0
181,156.66212216875002,157.6701870125,78.0,127.0
182,158.27502591875,158.45513350416667,78.0,117.0
183,158.59760666875002,158.93631645625,78.0,96.0
184,158.92018741875,159.073413275,76.0,102.0
185,159.88792966875002,160.14599426875003,74.0,102.0
186,159.24276816875002,160.1728759979167,76.0,99.0
187,160.21051041875,160.53577934166668,76.0,117.0
188,160.53309116875002,160.83685470833336,74.0,99.0
189,160.85567191875,161.24814516458335,71.0,93.0
190,161.17825266875002,163.44169426458336,74.0,100.0
191,163.43631791875,163.65674809791668,69.0,89.0
192,163.75889866875002,164.07341490000002,69.0,97.0
193,164.08147941875,164.32879132708334,71.0,112.0
194,164.40406016875002,165.50621106458334,71.0,112.0
195,165.69438316875002,166.105673625,69.0,100.0
196,166.01696391875,166.33148015,71.0,112.0
197,166.33954466875002,166.686318975,69.0,97.0
198,166.66212541875,168.01696456875,66.0,99.0
199,168.59760991875,168.94707239791668,59.0,96.0
200,168.92019066875002,169.25083593750003,62.0,99.0
201,169.24277141875,169.4954596729167,64.0,89.0
202,169.56535216875002,170.56266432083333,64.0,102.0
203,170.85567516875003,171.21589033958335,66.0,112.0
204,171.17825591875,171.5196538791667,64.0,96.0
205,171.50083666875003,171.78847117083336,66.0,112.0
206,171.82341741875,173.21857916250002,69.0,107.0
207,173.43632116875,173.60298788958335,74.0,100.0
208,173.75890191875,173.91750412083334,74.0,92.0
209,174.08148266875003,174.33148275000002,74.0,95.0
210,174.40406341875,174.60030004166669,76.0,117.0
211,174.72664416875,175.69438641875,76.0,117.0
212,176.33954791875001,176.63255876666668,76.0,127.0
213,176.66212866875003,176.92288144166668,74.0,77.0
214,176.98470941875001,177.29116113125002,76.0,117.0
215,177.30729016875,178.48470990625,78.0,99.0
216,178.92019391875002,179.1164305416667,78.0,127.0
217,179.24277466875003,179.56804359166668,78.0,93.0
218,179.56535541875002,179.75352752291667,76.0,107.0
219,180.53309766875003,180.73202246458334,74.0,107.0
220,179.88793616875,180.83417303541668,76.0,107.0
221,180.85567841875002,181.1406247479167,76.0,99.0
222,181.17825916875,181.49815174583335,74.0,95.0
223,181.50083991875002,181.8637432625,71.0,90.0
224,181.82342066875,183.0115930979167,74.0,127.0
225,183.75890516875,183.9470772729167,69.0,82.0
226,184.08148591875002,184.24008812083335,69.0,92.0
227,184.40406666875,184.7454646291667,69.0,90.0
228,184.72664741875002,184.944389425,71.0,122.0
229,185.04922816875,185.94170157708334,71.0,117.0
230,186.33955116875,186.55460500208335,69.0,100.0
231,186.66213191875002,186.98202449583334,71.0,100.0
232,186.98471266875,187.12987400625002,69.0,96.0
233,187.30729341875002,188.5519174791667,66.0,117.0
234,189.24277791875002,189.48471348125003,66.0,112.0
235,189.56535866875,189.92288566666667,69.0,81.0
236,189.88793941875002,190.09492873333335,64.0,81.0
237,190.21052016875,191.23471405,64.0,95.0
238,191.50084316875,191.78041315208336,66.0,122.0
239,191.82342391875002,192.14869284166667,64.0,92.0
240,192.14600466875,192.50353166666667,62.0,92.0
241,192.46858541875002,194.16213435625002,69.0,95.0
242,196.66213516875,196.96858688125002,57.0,70.0
243,196.98471591875,197.18095254166667,57.0,97.0
244,197.30729666875,197.66482366666668,57.0,82.0
245,197.62987741875003,197.8583721166667,62.0,100.0
246,197.95245816875,199.00353377916667,62.0,102.0
247,199.24278116875,199.4282651,62.0,97.0
248,199.56536191875,199.89063084166668,62.0,95.0
249,199.88794266875001,200.22396428333334,64.0,86.0
250,200.21052341875003,200.39869552291668,66.0,107.0
251,200.53310416875001,201.7669755375,66.0,112.0
252,202.14600791875,202.40676069166668,66.0,100.0
253,202.46858866875002,202.71052423125002,69.0,89.0
254,202.79116941875003,202.94170710208334,71.0,97.0
255,203.11375016875002,204.02235261458335,74.0,102.0
256,204.40407316875002,204.67557863333334,69.0,93.0
257,204.72665391875,205.05461101458334,71.0,97.0
258,205.04923466875002,205.37450359166667,69.0,93.0
259,205.37181541875,207.19708482916667,66.0,97.0
260,207.30729991875,207.589558075,66.0,122.0
261,207.62988066875002,207.94170872708335,69.0,90.0
262,207.95246141875003,208.16213890625,64.0,93.0
263,208.27504216875002,209.04527252916665,64.0,96.0
264,209.56076386875,209.85456722291667,66.0,127.0
265,209.88127661875,210.22315688541667,64.0,92.0
266,210.20178936874998,210.49559272291665,62.0,96.0
267,210.52230211875,211.84975909166667,59.0,93.0
268,212.44537861875,212.71514351666667,59.0,100.0
269,212.76589136875,213.0303143875,62.0,92.0
270,213.08640411875,213.27069895,64.0,95.0
271,213.40691686875,214.456596125,64.0,96.0
272,214.68896786875,215.02550625625,66.0,107.0
273,215.00948061875,215.32999336875,64.0,82.0
274,215.32999336875,215.59708732708333,62.0,97.0
275,215.65050611875,216.60403155,57.0,92.0
276,217.57358261875,217.90745006666666,59.0,85.0
277,217.89409536875,222.39997044583333,62.0,100.0
278,222.70178661875,222.9662096375,66.0,122.0
279,223.02229936875,223.34014117916666,69.0,82.0
280,223.34281211875,223.56182916458334,64.0,93.0
281,223.66332486875,224.73975394375,64.0,99.0
282,224.94920620625,225.22847588958334,66.0,102.0
283,225.27144045625,225.59904527708335,64.0,97.0
284,225.59367470625,225.9239648125,62.0,95.0
285,225.91590895625,227.46531864166667,57.0,90.0
286,227.84931445625,228.06413728958333,59.0,96.0
287,228.17154870625,228.47767124375,59.0,79.0
288,228.49378295625002,231.81816630208334,62.0,107.0
289,233.00506245625002,233.24942342916668,66.0,102.0
290,233.32729670625,233.55286068125,69.0,93.0
291,233.64953095625,234.27251717291668,71.0,127.0
292,234.29399945625,235.60173345416666,69.0,112.0
293,240.73868445625,240.96961900208333,66.0,100.0
294,241.06115304375,241.30091589166668,69.0,88.0
295,241.38442879375,241.96632514375,71.0,99.0
296,242.03098029375,244.14843645625,69.0,93.0
297,245.91028929375,246.22548315,74.0,99.0
298,246.23356504375,246.5325951125,76.0,85.0
299,246.55684079375,246.87472861458335,78.0,117.0
300,246.88011654375,249.231947625,74.0,99.0
