,start,end,pitch,velocity
0,1.68548441875,1.7553769145833333,57.0,30.0
1,1.68548441875,1.8010758541666667,66.0,36.0
2,2.3306459187499997,3.1155924104166663,50.0,85.0
3,2.65322666875,3.7688184291666667,57.0,71.0
4,1.68548441875,4.161291675,38.0,93.0
5,3.29838816875,4.21774330625,50.0,63.0
6,2.00806516875,4.368280989583333,45.0,68.0
7,3.94354966875,5.077958639583334,57.0,65.0
8,3.62096891875,5.387098525,62.0,74.0
9,2.97580741875,5.424732945833333,66.0,112.0
10,4.91129191875,5.61290505,50.0,56.0
11,5.23387266875,5.68548571875,57.0,46.0
12,5.87903416875,6.072582618749999,50.0,88.0
13,5.556453418749999,6.279571933333333,62.0,97.0
14,4.2661304187499995,6.569894608333333,38.0,63.0
15,4.58871116875,6.852152764583333,45.0,31.0
16,6.20161491875,7.615593872916667,57.0,62.0
17,5.556453418749999,8.0161316375,66.0,100.0
18,6.52419566875,8.051077885416666,62.0,71.0
19,7.81451866875,8.115594035416667,57.0,61.0
20,7.49193791875,8.220432779166666,50.0,93.0
21,8.13709941875,8.231185470833333,57.0,60.0
22,8.45968016875,8.70968025,50.0,77.0
23,8.13709941875,9.021508308333333,62.0,90.0
24,6.84677641875,9.31451915625,38.0,72.0
25,7.1693571687499995,9.42742241875,45.0,39.0
26,8.78226091875,10.239250639583332,57.0,66.0
27,9.10484166875,10.596777637499999,62.0,67.0
28,8.13709941875,10.596777637499999,66.0,97.0
29,10.07258391875,10.833336854166665,50.0,78.0
30,10.395164668749999,11.416670377083333,57.0,81.0
31,11.04032616875,11.809143622916666,50.0,76.0
32,9.42742241875,11.811831795833333,38.0,72.0
33,9.75000316875,11.954304960416666,45.0,35.0
34,11.68548766875,12.809143947916667,57.0,46.0
35,10.717745418749999,13.145165562499999,66.0,122.0
36,11.36290691875,13.158606427083333,62.0,71.0
37,12.65322991875,13.459681793749999,50.0,85.0
38,12.97581066875,13.994628204166666,57.0,68.0
39,12.00806841875,14.424735870833333,38.0,86.0
40,12.33064916875,14.672047779166666,45.0,38.0
41,13.620972168749999,14.83064998125,50.0,72.0
42,13.94355291875,15.618284645833333,62.0,82.0
43,13.298391418749999,15.690865314583332,66.0,102.0
44,15.23387591875,15.954306260416667,50.0,72.0
45,14.58871441875,16.98118831458333,38.0,63.0
46,16.20161816875,17.099467922916666,50.0,70.0
47,14.91129516875,17.217747531249998,45.0,43.0
48,14.26613366875,17.997317677083334,57.0,56.0
49,15.87903741875,18.311833908333334,66.0,99.0
50,16.52419891875,18.352156502083332,62.0,88.0
51,17.81452191875,18.561833989583334,50.0,79.0
52,18.13710266875,18.860221183333334,57.0,67.0
53,18.45968341875,19.18549010625,62.0,77.0
54,17.16936041875,19.569898833333333,38.0,89.0
55,17.49194116875,19.728501035416667,45.0,58.0
56,18.78226416875,20.293017347916667,50.0,82.0
57,19.10484491875,20.440866858333333,57.0,73.0
58,18.45968341875,20.825275585416666,66.0,102.0
59,19.42742566875,20.849469141666667,62.0,69.0
60,20.395167918749998,21.720437166666667,50.0,58.0
61,20.717748668749998,21.736566204166667,57.0,59.0
62,19.75000641875,21.95968455625,38.0,85.0
63,21.68549091875,22.26613626875,62.0,53.0
64,21.040329418749998,22.317211554166665,66.0,112.0
65,20.07258716875,22.327964245833332,45.0,59.0
66,22.33065241875,23.986566935416665,38.0,55.0
67,22.65323316875,24.137104618749998,45.0,39.0
68,22.97581391875,24.26613691875,50.0,71.0
69,23.29839466875,24.333341241666666,57.0,50.0
70,24.26613691875,24.922051110416668,62.0,62.0
71,23.62097541875,24.978502741666667,66.0,112.0
72,25.879040668749997,26.650546295833333,57.0,71.0
73,25.23387916875,26.85215926458333,49.0,39.0
74,24.91129841875,26.857535610416665,42.0,47.0
75,25.55645991875,26.991944256249997,54.0,88.0
76,26.846782918749998,27.40054653958333,61.0,88.0
77,27.169363668749998,27.486568072916665,57.0,69.0
78,26.201621418749998,27.48925624583333,66.0,127.0
79,27.81452516875,28.336030714583334,54.0,81.0
80,27.49194441875,28.36022427083333,47.0,76.0
81,28.45968666875,28.852159914583332,62.0,52.0
82,28.13710591875,28.90861154583333,59.0,57.0
83,29.10484816875,29.486568722916665,62.0,52.0
84,29.42742891875,30.3225905,59.0,72.0
85,29.75000966875,30.473128183333333,62.0,59.0
86,28.78226741875,30.529579814583332,66.0,117.0
87,30.71775191875,31.5000102375,54.0,89.0
88,31.685494168749997,31.91130069375,54.0,52.0
89,30.39517116875,32.002698572916664,49.0,46.0
90,30.07259041875,32.13979539166667,42.0,88.0
91,31.04033266875,32.14785991041666,57.0,67.0
92,32.00807491875,32.591408441666665,61.0,89.0
93,31.362913418749997,32.594096614583336,66.0,112.0
94,32.33065566875,32.80108592916667,57.0,73.0
95,33.29839791875,34.083344410416665,52.0,88.0
96,33.62097866875,34.55915101666667,59.0,70.0
97,32.65323641875,34.612914475,40.0,72.0
98,32.97581716875,34.639796204166664,47.0,41.0
99,34.26614016875,35.0483984875,52.0,83.0
100,33.94355941875,35.23388241875,67.0,112.0
101,34.58872091875,35.25269962916666,64.0,90.0
102,34.91130166875,35.255387802083334,59.0,83.0
103,35.87904391875,36.65861406458333,55.0,102.0
104,36.20162466875,37.0806572125,59.0,76.0
105,36.84678616875,37.09409807708333,55.0,92.0
106,35.55646316875,37.23925941458333,50.0,75.0
107,35.23388241875,37.2742056625,43.0,81.0
108,37.16936691875,37.747324095833335,62.0,102.0
109,36.52420541875,37.85216283958333,67.0,122.0
110,37.49194766875,37.89517360625,59.0,86.0
111,38.45968991875,39.26614179375,52.0,92.0
112,37.81452841875,39.70431397916666,40.0,90.0
113,38.13710916875,39.709690325,47.0,51.0
114,38.78227066875,39.7580774375,59.0,76.0
115,39.42743216875,39.89248608333333,52.0,85.0
116,39.10485141875,40.41667980208333,67.0,117.0
117,39.75001291875,40.424744320833334,64.0,79.0
118,40.072593668749995,40.4354970125,59.0,72.0
119,41.040335918749996,41.43012099166666,57.0,99.0
120,41.362916668749996,41.70431462916667,61.0,117.0
121,40.717755168749996,41.873669522916664,52.0,47.0
122,40.395174418749995,42.677433225,45.0,78.0
123,42.33065891875,42.96237955416667,61.0,107.0
124,42.65323966875,42.9677559,57.0,72.0
125,42.00807816875,42.973132245833334,52.0,76.0
126,41.685497418749996,43.018831185416666,64.0,97.0
127,43.62098191875,43.99463795416666,57.0,90.0
128,43.94356266875,44.31990687708333,59.0,75.0
129,43.29840116875,44.42743379375,52.0,59.0
130,44.58872416875,44.91130491875,52.0,75.0
131,42.97582041875,44.9838855875,45.0,73.0
132,44.91130491875,45.48926209583333,61.0,76.0
133,44.26614341875,45.59947718541667,64.0,117.0
134,45.23388566875,45.72044496666666,57.0,70.0
135,46.20162791875,46.96506902708333,50.0,75.0
136,46.52420866875,47.145176612499995,57.0,72.0
137,45.55646641875,47.2742089125,38.0,78.0
138,45.87904716875,47.30109064166667,45.0,43.0
139,47.16937016875,47.55377889583333,50.0,95.0
140,46.84678941875,47.97851021666666,66.0,127.0
141,47.49195091875,48.129047899999996,62.0,62.0
142,49.10485466875,49.4193709,61.0,97.0
143,48.78227391875,49.54571502708333,54.0,92.0
144,48.45969316875,49.90593019791667,49.0,63.0
145,48.13711241875,49.99463990416667,42.0,44.0
146,47.81453166875,50.16937114375,57.0,83.0
147,49.75001616875,50.21775825625,54.0,83.0
148,50.07259691875,50.73926380208333,61.0,100.0
149,50.39517766875,50.74732832083333,57.0,71.0
150,49.42743541875,50.825285335416666,66.0,122.0
151,51.362919918749995,51.774210374999996,59.0,79.0
152,51.685500668749995,51.99195238125,62.0,81.0
153,51.040339168749995,52.172059966666666,54.0,69.0
154,50.71775841875,52.551092347916665,47.0,69.0
155,52.330662168749996,52.55646869375,54.0,64.0
156,52.653242918749996,53.252705479166664,62.0,107.0
157,52.008081418749995,53.33335066666667,66.0,112.0
158,52.975823668749996,53.36829691458333,59.0,90.0
159,53.94356591875,54.75539413958333,54.0,96.0
160,54.26614666875,55.099480272916665,57.0,79.0
161,54.91130816875,55.12367382916666,54.0,74.0
162,53.620985168749996,55.18281363333333,49.0,59.0
163,53.298404418749996,55.25270612916666,42.0,76.0
164,54.58872741875,55.80646975,66.0,117.0
165,55.23388891875,55.838727825,61.0,112.0
166,55.55646966875,55.922061185416666,57.0,90.0
167,56.52421191875,57.33604013958333,52.0,89.0
168,56.84679266875,57.56722301041666,59.0,81.0
169,55.87905041875,57.85754568541667,40.0,78.0
170,56.20163116875,57.903244625,47.0,53.0
171,57.16937341875,58.352169502083335,67.0,112.0
172,57.81453491875,58.38980392291666,64.0,85.0
173,57.49195416875,58.395180268749996,52.0,79.0
174,58.13711566875,58.47582545625,59.0,92.0
175,59.42743866875,59.889804410416666,59.0,95.0
176,59.10485791875,60.05647113125,55.0,89.0
177,60.07260016875,60.45163255,62.0,79.0
178,58.78227716875,60.45432072291666,50.0,48.0
179,58.45969641875,60.459697068749996,43.0,64.0
180,60.39518091875,61.10217039583333,59.0,73.0
181,60.71776166875,61.145181162499995,62.0,64.0
182,59.75001941875,61.15862202708333,67.0,99.0
183,61.68550391875,62.42475147083333,52.0,86.0
184,62.00808466875,62.85217096458333,55.0,67.0
185,61.04034241875,62.97045057291666,40.0,72.0
186,61.36292316875,62.98657961041666,47.0,56.0
187,62.653246168749995,63.14786998541666,52.0,81.0
188,62.975826918749995,63.56184861458333,59.0,92.0
189,63.298407668749995,63.57528947916666,55.0,89.0
190,62.330665418749994,63.666687358333334,64.0,96.0
191,64.26614991875,64.68281672083333,57.0,85.0
192,64.58873066875,64.94894583958333,61.0,122.0
193,63.943569168749995,65.00808564375,52.0,83.0
194,63.620988418749995,66.03496769791667,45.0,79.0
195,65.23389216875,66.18550538125,52.0,83.0
196,65.55647291875,66.20701076458333,61.0,127.0
197,65.87905366875,66.22313980208334,59.0,88.0
198,64.91131141875,66.22313980208334,64.0,97.0
199,66.84679591875,67.20432291666667,57.0,95.0
200,67.16937666875,67.4032477125,64.0,70.0
201,67.16937666875,67.42475309583332,61.0,93.0
202,66.52421516875,67.59948433541666,52.0,96.0
203,67.81453816874999,68.31185015833333,52.0,107.0
204,67.49195741875,68.31453833124999,61.0,127.0
205,66.20163441875,68.32797919583334,45.0,100.0
206,67.49195741875,68.41131255625,64.0,97.0
207,68.13711891874999,68.72851696041667,57.0,117.0
208,68.45969966874999,68.73389330625,61.0,127.0
209,68.45969966874999,68.73658147916666,64.0,56.0
210,68.78228041874999,69.41131288125,67.0,117.0
211,68.78228041874999,69.41400105416666,64.0,100.0
212,69.42744191874999,70.15324860625,59.0,112.0
213,69.75002266874999,70.19088302708333,52.0,102.0
214,69.10486116874999,70.31991532708334,47.0,78.0
215,70.07260341874999,70.55647454375,67.0,102.0
216,70.07260341874999,70.58604444583334,64.0,97.0
217,68.78228041874999,70.78496924166666,40.0,95.0
218,70.39518416874999,70.91131336875,47.0,26.0
219,70.39518416874999,71.0422331,52.0,102.0
220,70.71776491874999,71.603403425,64.0,96.0
221,70.71776491874999,71.608722575,67.0,102.0
222,71.039573525,71.699148125,59.0,96.0
223,71.997020525,72.7018079,61.0,81.0
224,72.316169525,72.757658975,54.0,95.0
225,71.997020525,72.965105825,57.0,76.0
226,72.635318525,73.1592548,66.0,127.0
227,72.954467525,73.3613825,54.0,107.0
228,71.677871525,73.406595275,49.0,37.0
229,71.358722525,73.5741485,42.0,82.0
230,73.273616525,73.933191125,61.0,107.0
231,73.273616525,73.95180815,66.0,117.0
232,73.592765525,73.96244645,57.0,92.0
233,74.550212525,75.24968075,59.0,95.0
234,74.869361525,75.33478715,52.0,93.0
235,73.911914525,75.917234075,40.0,75.0
236,75.188510525,75.92787237499999,64.0,95.0
237,74.231063525,75.94117025,47.0,47.0
238,75.507659525,76.385319275,52.0,93.0
239,75.826808525,76.422553325,59.0,100.0
240,76.145957525,76.481063975,64.0,100.0
241,75.188510525,76.528936325,67.0,100.0
242,77.103404525,77.53622893125001,55.0,112.0
243,77.42332566875001,77.80773439583334,62.0,99.0
244,77.74590641875001,77.97440111666667,71.0,127.0
245,77.74590641875001,78.00665919166667,69.0,95.0
246,78.06848716875,78.16526139375,62.0,107.0
247,78.06848716875,78.19483129583334,67.0,102.0
248,76.784255525,78.64913251875001,50.0,75.0
249,76.465106525,78.73784222500001,43.0,85.0
250,78.39106791875,78.82117558541667,59.0,92.0
251,78.71364866875,79.02010038125,57.0,92.0
252,79.68139091875,79.99859532291667,59.0,90.0
253,80.00397166875,80.32117607291667,62.0,96.0
254,79.35881016875,80.49590731250001,54.0,85.0
255,80.64913316875,80.82386440833334,54.0,66.0
256,79.03622941875,80.83999344583334,47.0,85.0
257,80.97171391875,81.58192917083333,62.0,83.0
258,80.32655241875,81.62762811041667,66.0,112.0
259,81.29429466875,81.75128406458333,59.0,77.0
260,82.58461766875,82.82924140416667,66.0,96.0
261,82.58461766875,82.86418765208333,61.0,96.0
262,82.26203691875,82.99321995208334,54.0,97.0
263,83.22977916875,83.47440290416667,54.0,100.0
264,81.93945616875,83.60074703125001,49.0,63.0
265,81.61687541875,83.6733277,42.0,89.0
266,82.90719841875,83.70827394791667,61.0,97.0
267,83.87494066875,84.18945690000001,61.0,127.0
268,83.55235991875,84.19752141875,57.0,100.0
269,82.90719841875,84.22440314791668,66.0,127.0
270,85.16526366875,85.53891970416667,59.0,96.0
271,84.84268291875,85.57117777916667,52.0,95.0
272,84.52010216875,86.18139303125,47.0,79.0
273,85.48784441875,86.18139303125,64.0,102.0
274,84.19752141875,86.19483389583334,40.0,90.0
275,85.81042516875,86.38031782708333,52.0,96.0
276,86.45558666875,86.60612435208334,45.0,33.0
277,86.13300591875,86.71633944166666,59.0,102.0
278,85.48784441875,86.78085559166666,67.0,102.0
279,86.45558666875,86.79429645625001,64.0,117.0
280,87.42332891875,87.56311391041667,67.0,49.0
281,87.42332891875,87.74053332291668,69.0,53.0
282,87.74590966875,88.35343674791667,76.0,97.0
283,88.06849041875,88.42870558958333,73.0,117.0
284,88.39107116875,88.479780875,69.0,95.0
285,87.42332891875,88.58730779166667,57.0,93.0
286,87.10074816875,89.00935093958334,52.0,78.0
287,86.77816741875,89.11418968333334,45.0,85.0
288,89.03623266875,89.29429726875,61.0,122.0
289,88.71365191875,89.3346198625,64.0,96.0
290,90.32655566875,90.7539751625,64.0,85.0
291,90.00397491875,90.76472785416667,52.0,99.0
292,89.35881341875,91.18677100208333,40.0,93.0
293,89.68139416875,91.29967426458333,47.0,67.0
294,90.97171716875,91.30773878333333,52.0,99.0
295,91.29429791875,91.86419057708333,67.0,97.0
296,90.64913641875,91.90451317083334,71.0,122.0
297,91.61687866875,91.99859922291667,64.0,95.0
298,92.58462091875,92.98515868333334,66.0,89.0
299,92.90720166875,93.17870713333333,69.0,56.0
300,92.26204016875,93.23515876458333,54.0,93.0
301,93.22978241875,93.48784701875,66.0,56.0
302,93.55236316875,93.88838478333334,54.0,86.0
303,92.26204016875,93.97171814375,49.0,34.0
304,93.22978241875,94.02816977500001,73.0,127.0
305,91.93945941875,94.06042785,42.0,82.0
306,93.22978241875,94.11419130833333,69.0,89.0
307,94.19752466875,94.26204081875,69.0,56.0
308,93.87494391875,94.51741724583334,66.0,107.0
309,94.19752466875,94.51741724583334,73.0,117.0
310,94.84268616875,95.9152671625,52.0,74.0
311,95.16526691875,95.95558975625,55.0,96.0
312,95.48784766875,96.55774048958334,59.0,96.0
313,94.52010541875,96.58462221875,40.0,83.0
314,94.84268616875,96.67602009791668,47.0,79.0
315,96.13300916875001,96.73247172916666,52.0,83.0
316,96.45558991875001,96.8346223,55.0,96.0
317,96.77817066875001,97.04698796041667,59.0,102.0
318,95.81042841875,97.04698796041667,64.0,97.0
319,98.06849366875,98.37763355416666,59.0,79.0
320,97.74591291875001,98.49860133541667,55.0,100.0
321,98.71365516875,98.91526813750001,55.0,96.0
322,98.39107441875001,99.13032197083334,62.0,93.0
323,97.10075141875001,99.49322531458333,43.0,89.0
324,97.42333216875001,99.58731136666667,50.0,92.0
325,98.39107441875001,99.60344040416666,67.0,100.0
326,99.03623591875001,99.63569847916668,59.0,95.0
327,99.35881666875,99.71365549375,62.0,99.0
328,100.32655891875001,100.65451601458334,59.0,90.0
329,100.64913966875,100.96903224583333,62.0,72.0
330,100.00397816875,101.14645165833333,54.0,79.0
331,101.29430116875,101.61957009166667,54.0,95.0
332,101.61688191875001,101.61957009166667,54.0,96.0
333,100.97172041875001,101.68677441458334,66.0,127.0
334,99.68139741875001,101.88569921041667,47.0,81.0
335,101.93946266875,102.18946275,59.0,85.0
336,101.61688191875001,102.29430149375,62.0,93.0
337,101.93946266875,102.29698966666666,66.0,99.0
338,102.90720491875001,103.61150622291667,54.0,88.0
339,103.22978566875,103.94215149166666,57.0,72.0
340,103.87494716875,104.14645263333334,54.0,75.0
341,102.58462416875,104.157205325,49.0,66.0
342,102.26204341875001,104.29699031666667,42.0,88.0
343,104.19752791875,104.69215173541667,61.0,97.0
344,103.55236641875,104.76204423125,66.0,122.0
345,104.52010866875,104.90989374166666,57.0,86.0
346,104.84268941875,105.7862381125,47.0,86.0
347,105.48785091875,105.79699080416667,59.0,77.0
348,104.84268941875,105.95021666041667,40.0,89.0
349,105.16527016875,105.9959156,52.0,77.0
350,105.48785091875,106.2539802,64.0,73.0
351,105.81043166875,106.34806625208333,67.0,85.0
352,106.45559316875,106.84806641458334,64.0,57.0
353,106.13301241875,106.89376535416667,59.0,78.0
354,106.77817391875,107.47709887708334,67.0,96.0
355,107.10075466875,107.4959160875,64.0,82.0
356,108.06849691875,108.43408843541667,57.0,88.0
357,108.39107766875,108.63570140416667,61.0,92.0
358,107.74591616875,108.78355091458334,52.0,65.0
359,109.03623916875,109.20828223541668,52.0,71.0
360,107.42333541875,109.29699194166668,45.0,76.0
361,109.35881991875,109.92333623125,61.0,74.0
362,108.71365841875,110.02011045625,64.0,99.0
363,109.68140066875,110.09000295208334,57.0,77.0
364,110.64914291875,111.43333091666668,50.0,95.0
365,111.61228386875001,111.9087581625,50.0,78.0
366,110.00398141875,112.44027513958335,38.0,85.0
367,110.32656216875,112.59251869583335,45.0,58.0
368,110.97125836875001,113.36442023541667,57.0,85.0
369,111.93279661875,113.50063815416668,64.0,65.0
370,111.29177111875,113.70630050208334,66.0,122.0
371,113.21484761875001,113.99743291666668,50.0,79.0
372,114.17638586875,114.49956955833335,50.0,74.0
373,112.57382211875002,114.80939855000001,38.0,72.0
374,112.89433486875001,115.18867197083334,45.0,63.0
375,114.81741136875002,116.00063760416667,61.0,50.0
376,113.85587311875001,116.32477473750001,66.0,122.0
377,114.49689861875001,116.38372437916668,62.0,59.0
378,115.77894961875,116.5177008375,50.0,82.0
379,113.53536036875,116.87407821666667,57.0,61.0
380,116.0996942875,116.87675774583334,61.0,60.0
381,116.74278128750001,117.09647913750001,50.0,82.0
382,115.13792411875,117.51984474583334,38.0,69.0
383,115.45843686875001,117.715450375,45.0,50.0
384,117.06432478750001,117.715450375,61.0,86.0
385,117.3858682875,118.60773358750001,57.0,70.0
386,116.4212377875,118.88908415,62.0,66.0
387,116.4212377875,118.89444320833334,66.0,107.0
388,118.3504987875,119.098087425,50.0,95.0
389,118.6720422875,119.24546152916668,57.0,72.0
390,119.3151292875,119.65274996250001,50.0,72.0
391,118.99358578750001,119.79744453750001,62.0,96.0
392,117.7074117875,120.12702662500001,38.0,67.0
393,118.02895528750001,120.31459366666667,45.0,48.0
394,118.99358578750001,121.30601945833334,66.0,117.0
395,119.95821628750001,121.4694707375,62.0,67.0
396,120.9228467875,121.61148578333334,50.0,74.0
397,119.6366727875,121.64899919166668,57.0,60.0
398,121.8874772875,122.13131444166667,50.0,82.0
399,121.5659337875,122.4019468875,62.0,74.0
400,120.27975978750001,122.62434780833334,38.0,51.0
401,120.6013032875,122.89498025416667,45.0,52.0
402,122.20902078750001,123.69883900416667,57.0,63.0
403,123.49519478750001,124.15167943333334,50.0,82.0
404,122.53056428750001,124.3231693,62.0,79.0
405,124.45982528750001,124.73045773333334,50.0,75.0
406,122.8521077875,124.98769253333334,38.0,78.0
407,121.5659337875,125.03592405833334,66.0,99.0
408,123.17365128750001,125.48072590000001,45.0,35.0
409,123.8167382875,126.26314841666667,57.0,61.0
410,124.1382817875,126.268507475,61.0,90.0
411,125.1029122875,126.58469191666667,66.0,72.0
412,124.78136878750001,126.64364155833334,62.0,58.0
413,126.0675427875,126.78565660416668,50.0,71.0
414,126.3890862875,126.815131425,57.0,48.0
415,126.71062978750001,127.57879723750001,66.0,112.0
416,126.71062978750001,127.60559252916667,62.0,89.0
417,125.42445578750001,127.88158403333334,38.0,64.0
418,125.74599928750001,128.07986919166666,45.0,60.0
419,127.0321732875,128.390694575,50.0,93.0
420,127.3537167875,128.808701125,57.0,95.0
421,127.67526028750001,129.15436038750002,66.0,97.0
422,127.67526028750001,129.16775803333334,62.0,89.0
423,128.6398907875,129.34460695833334,50.0,79.0
424,128.9614342875,129.42499283333333,57.0,59.0
425,129.6045212875,129.92070572916668,50.0,88.0
426,129.28297778750002,130.09487512500002,62.0,99.0
427,128.31834728750002,130.36014851250002,45.0,38.0
428,127.9968037875,130.42177768333335,38.0,76.0
429,130.24760828750001,130.5852289625,62.0,68.0
430,129.28297778750002,130.59594707916668,66.0,107.0
431,129.9260647875,130.59862660833335,57.0,89.0
432,131.2122387875,131.97322507083334,50.0,75.0
433,131.5337822875,132.152753525,57.0,72.0
434,130.5691517875,132.281370925,38.0,78.0
435,130.8906952875,132.30816621666668,45.0,43.0
436,132.1768692875,132.56004195833333,50.0,95.0
437,131.85532578750002,132.98340756666667,66.0,127.0
438,132.4984127875,133.1334612,62.0,62.0
439,134.1061302875,134.41963520000002,61.0,97.0
440,133.78458678750002,134.54557307083334,54.0,92.0
441,133.4630432875,134.90462997916669,49.0,63.0
442,133.1414997875,134.9930544416667,42.0,44.0
443,132.81995628750002,135.16722383750002,57.0,83.0
444,134.74921728750002,135.2154553625,54.0,83.0
445,135.0707607875,135.73528402083335,61.0,100.0
446,135.3923042875,135.74332260833333,57.0,71.0
447,134.4276737875,135.82102895416668,66.0,122.0
448,136.3569347875,136.76690275,59.0,79.0
449,136.6784782875,136.9839446125,62.0,81.0
450,136.0353912875,137.16347306666668,54.0,69.0
451,135.71384778750001,137.54128667916666,47.0,69.0
452,137.3215652875,137.5466457375,54.0,64.0
453,137.6431087875,138.24064379166668,62.0,107.0
454,137.0000217875,138.32102966666667,66.0,112.0
455,137.9646522875,138.35586354583333,59.0,90.0
456,138.9292827875,139.73850059583333,54.0,96.0
457,139.25082628750002,140.08148032916668,57.0,79.0
458,139.8939132875,140.10559609166668,54.0,74.0
459,138.6077392875,140.16454573333334,49.0,59.0
460,138.28619578750002,140.23421349166668,42.0,76.0
461,139.5723697875,140.78619650000002,66.0,117.0
462,140.21545678750002,140.81835085,61.0,112.0
463,140.5370002875,140.9014162541667,57.0,90.0
464,141.5016307875,142.31265513958334,52.0,89.0
465,141.82340766875,142.5438380104167,59.0,81.0
466,140.8585437875,142.8341606854167,40.0,78.0
467,141.18008728750002,142.87985962500002,47.0,53.0
468,142.14598841875002,143.32878450208335,67.0,112.0
469,142.79114991875002,143.3664189229167,64.0,85.0
470,142.46856916875,143.37179526875002,52.0,79.0
471,143.11373066875,143.45244045625,59.0,92.0
472,144.40405366875,144.86641941041668,59.0,95.0
473,144.08147291875002,145.03308613125,55.0,89.0
474,145.04921516875,145.42824755,62.0,79.0
475,143.75889216875,145.43093572291667,50.0,48.0
476,143.43631141875002,145.43631206875003,43.0,64.0
477,145.37179591875002,146.07878539583334,59.0,73.0
478,145.69437666875,146.1217961625,62.0,64.0
479,144.72663441875002,146.13523702708335,67.0,99.0
480,146.66211891875002,147.40136647083335,52.0,86.0
481,146.98469966875,147.82878596458335,55.0,67.0
482,146.01695741875002,147.94706557291667,40.0,72.0
483,146.33953816875,147.96319461041668,47.0,56.0
484,147.62986116875,148.12448498541667,52.0,81.0
485,147.95244191875003,148.53846361458335,59.0,92.0
486,148.27502266875,148.5519044791667,55.0,89.0
487,147.30728041875003,148.64330235833336,64.0,96.0
488,149.24276491875003,149.65943172083334,57.0,85.0
489,149.56534566875,149.92556083958334,61.0,122.0
490,148.92018416875,149.98470064375002,52.0,83.0
491,148.59760341875003,151.01158269791668,45.0,79.0
492,150.21050716875,151.16212038125002,52.0,83.0
493,150.53308791875003,151.18362576458335,61.0,127.0
494,150.85566866875,151.19975480208336,59.0,88.0
495,149.88792641875003,151.19975480208336,64.0,97.0
496,151.82341091875003,152.1809379166667,57.0,95.0
497,152.14599166875,152.37986271250003,64.0,70.0
498,152.14599166875,152.40136809583333,61.0,93.0
499,151.50083016875,152.57609933541667,52.0,96.0
500,152.79115316875001,153.28846515833334,52.0,107.0
501,152.46857241875,153.29115333125003,61.0,127.0
502,151.17824941875003,153.30459419583335,45.0,100.0
503,152.46857241875,153.38792755625002,64.0,97.0
504,153.11373391875003,153.70513196041668,57.0,117.0
505,153.43631466875001,153.71050830625,61.0,127.0
506,153.43631466875001,153.71319647916667,64.0,56.0
507,153.75889541875,154.38792788125002,67.0,117.0
508,153.75889541875,154.39061605416668,64.0,100.0
509,154.40405691875003,155.12986360625,59.0,112.0
510,154.72663766875002,155.16749802708335,52.0,102.0
511,154.08147616875002,155.29653032708336,47.0,78.0
512,155.04921841875,155.53308954375,67.0,102.0
513,155.04921841875,155.56265944583336,64.0,97.0
514,153.75889541875,155.7615842416667,40.0,95.0
515,155.37179916875002,155.88792836875,47.0,26.0
516,155.37179916875002,156.01964884166668,52.0,102.0
517,155.69437991875,156.58685332708336,64.0,96.0
518,155.69437991875,156.5922296729167,67.0,102.0
519,156.01696066875002,156.68362755208335,59.0,96.0
520,156.98470291875,157.69706874166667,61.0,81.0
521,157.30728366875002,157.75352037291668,54.0,95.0
522,156.98470291875,157.96319786041667,57.0,76.0
523,157.62986441875,158.15943448333334,66.0,127.0
524,157.95244516875002,158.363735625,54.0,107.0
525,156.66212216875002,158.40943456458334,49.0,37.0
526,156.33954141875,158.57878945833335,42.0,82.0
527,158.27502591875,158.94169280208334,61.0,107.0
528,158.27502591875,158.9605100125,66.0,117.0
529,158.59760666875002,158.9712627041667,57.0,92.0
530,159.56534891875,160.27233839583334,59.0,95.0
531,159.88792966875002,160.35835992916668,52.0,93.0
532,158.92018741875,160.9470697979167,40.0,75.0
533,160.21051041875,160.95782248958335,64.0,95.0
534,159.24276816875002,160.9712633541667,47.0,47.0
535,160.53309116875002,161.42018823125002,52.0,93.0
536,160.85567191875,161.45782265208334,59.0,100.0
537,161.17825266875002,161.51696245625,64.0,100.0
538,160.21051041875,161.56534956875,67.0,100.0
539,162.14599491875,162.58147893125002,55.0,112.0
540,162.46857566875002,162.85298439583335,62.0,99.0
541,162.79115641875,163.0196511166667,71.0,127.0
542,162.79115641875,163.05190919166668,69.0,95.0
543,163.11373716875002,163.21051139375,62.0,107.0
544,163.11373716875002,163.24008129583336,67.0,102.0
545,161.82341416875002,163.69438251875002,50.0,75.0
546,161.50083341875,163.78309222500002,43.0,85.0
547,163.43631791875,163.8664255854167,59.0,92.0
548,163.75889866875002,164.06535038125003,57.0,92.0
549,164.72664091875,165.0438453229167,59.0,90.0
550,165.04922166875002,165.36642607291668,62.0,96.0
551,164.40406016875002,165.54115731250002,54.0,85.0
552,165.69438316875002,165.86911440833336,54.0,66.0
553,164.08147941875,165.88524344583334,47.0,85.0
554,166.01696391875,166.62717917083336,62.0,83.0
555,165.37180241875,166.6728781104167,66.0,112.0
556,166.33954466875002,166.79653406458334,59.0,77.0
557,167.62986766875002,167.8744914041667,66.0,96.0
558,167.62986766875002,167.90943765208334,61.0,96.0
559,167.30728691875,168.03846995208335,54.0,97.0
560,168.27502916875002,168.5196529041667,54.0,100.0
561,166.98470616875002,168.64599703125,49.0,63.0
562,166.66212541875,168.71857770000003,42.0,89.0
563,167.95244841875,168.75352394791668,61.0,97.0
564,168.92019066875002,169.23470690000002,61.0,127.0
565,168.59760991875,169.24277141875,57.0,100.0
566,167.95244841875,169.26965314791667,66.0,127.0
567,170.21051366875002,170.58416970416667,59.0,96.0
568,169.88793291875,170.61642777916668,52.0,95.0
569,169.56535216875002,171.22664303125,47.0,79.0
570,170.53309441875,171.22664303125,64.0,102.0
571,169.24277141875,171.24008389583335,40.0,90.0
572,170.85567516875003,171.42556782708334,52.0,96.0
573,171.50083666875003,171.65137435208334,45.0,33.0
574,171.17825591875,171.76158944166667,59.0,102.0
575,170.53309441875,171.82610559166667,67.0,102.0
576,171.50083666875003,171.83954645625002,64.0,117.0
577,172.46857891875,172.60836391041667,67.0,49.0
578,172.46857891875,172.78578332291667,69.0,53.0
579,172.79115966875003,173.39868674791668,76.0,97.0
580,173.11374041875,173.47395558958334,73.0,117.0
581,173.43632116875,173.52503087500003,69.0,95.0
582,172.46857891875,173.63255779166667,57.0,93.0
583,172.14599816875003,174.05460093958334,52.0,78.0
584,171.82341741875,174.15943968333335,45.0,85.0
585,174.08148266875003,174.33954726875,61.0,122.0
586,173.75890191875,174.37986986250002,64.0,96.0
587,175.37180566875003,175.79922516250002,64.0,85.0
588,175.04922491875,175.80997785416668,52.0,99.0
589,174.40406341875,176.23202100208334,40.0,93.0
590,174.72664416875,176.34492426458334,47.0,67.0
591,176.01696716875,176.35298878333333,52.0,99.0
592,176.33954791875001,176.90944057708333,67.0,97.0
593,175.69438641875,176.94976317083336,71.0,122.0
594,176.66212866875003,177.0438492229167,64.0,95.0
595,177.62987091875002,178.03040868333335,66.0,89.0
596,177.95245166875003,178.22395713333336,69.0,56.0
597,177.30729016875,178.28040876458334,54.0,93.0
598,178.27503241875002,178.53309701875003,66.0,56.0
599,178.59761316875,178.93363478333333,54.0,86.0
600,177.30729016875,179.01696814375,49.0,34.0
601,178.27503241875002,179.07341977500002,73.0,127.0
602,176.98470941875001,179.10567785,42.0,82.0
603,178.27503241875002,179.15944130833336,69.0,89.0
604,179.24277466875003,179.30729081875,69.0,56.0
605,178.92019391875002,179.56266724583335,66.0,107.0
606,179.24277466875003,179.56266724583335,73.0,117.0
607,179.88793616875,180.96051716250003,52.0,74.0
608,180.21051691875002,181.00083975625,55.0,96.0
609,180.53309766875003,181.60299048958336,59.0,96.0
610,179.56535541875002,181.62987221875002,40.0,83.0
611,179.88793616875,181.7212700979167,47.0,79.0
612,181.17825916875,181.77772172916667,52.0,83.0
613,181.50083991875002,181.87987230000002,55.0,96.0
614,181.82342066875,182.0922379604167,59.0,102.0
615,180.85567841875002,182.0922379604167,64.0,97.0
616,183.11374366875,183.42288355416667,59.0,79.0
617,182.79116291875002,183.5438513354167,55.0,100.0
618,183.75890516875,183.9605181375,55.0,96.0
619,183.43632441875002,184.17557197083335,62.0,93.0
620,182.14600141875002,184.53847531458334,43.0,89.0
621,182.46858216875,184.63256136666666,50.0,92.0
622,183.43632441875002,184.64869040416667,67.0,100.0
623,184.08148591875002,184.6809484791667,59.0,95.0
624,184.40406666875,184.75890549375,62.0,99.0
625,185.37180891875002,185.69976601458336,59.0,90.0
626,185.69438966875,186.01428224583336,62.0,72.0
627,185.04922816875,186.19170165833333,54.0,79.0
628,186.33955116875,186.66482009166668,54.0,95.0
629,186.66213191875002,186.66482009166668,54.0,96.0
630,186.01697041875002,186.73202441458335,66.0,127.0
631,184.72664741875002,186.93094921041668,47.0,81.0
632,186.98471266875,187.23471275000003,59.0,85.0
633,186.66213191875002,187.33955149375,62.0,93.0
634,186.98471266875,187.34223966666667,66.0,99.0
635,187.95245491875002,188.65675622291667,54.0,88.0
636,188.27503566875,188.98740149166667,57.0,72.0
637,188.92019716875,189.19170263333336,54.0,75.0
638,187.62987416875,189.20245532500002,49.0,66.0
639,187.30729341875002,189.34224031666668,42.0,88.0
640,189.24277791875002,189.73740173541668,61.0,97.0
641,188.59761641875002,189.80729423125,66.0,122.0
642,189.56535866875,189.9551437416667,57.0,86.0
643,189.88793941875002,190.8314881125,47.0,86.0
644,190.53310091875002,190.8422408041667,59.0,77.0
645,189.88793941875002,190.9954666604167,40.0,89.0
646,190.21052016875,191.0411656,52.0,77.0
647,190.53310091875002,191.2992302,64.0,73.0
648,190.85568166875,191.39331625208334,67.0,85.0
649,191.50084316875,191.89331641458335,64.0,57.0
650,191.17826241875002,191.93901535416668,59.0,78.0
651,191.82342391875002,192.52234887708335,67.0,96.0
652,192.14600466875,192.54116608750002,64.0,82.0
653,193.11374691875,193.47933843541668,57.0,88.0
654,193.43632766875,193.68095140416668,61.0,92.0
655,192.79116616875,193.82880091458335,52.0,65.0
656,194.08148916875,194.25353223541669,52.0,71.0
657,192.46858541875002,194.34224194166669,45.0,76.0
658,194.40406991875,194.96858623125001,61.0,74.0
659,194.72665066875,195.04923141875003,57.0,77.0
660,193.75890841875002,195.04923141875003,64.0,99.0
661,195.69439291875,196.04385539791667,57.0,88.0
662,196.01697366875,196.28847913333334,61.0,82.0
663,195.37181216875,196.41213508750002,52.0,54.0
664,196.66213516875,196.80729650625,52.0,69.0
665,195.04923141875003,196.87181265625003,45.0,89.0
666,196.98471591875,197.46589887083334,61.0,102.0
667,196.33955441875003,197.50622146458335,64.0,112.0
668,197.30729666875,197.70783443333335,57.0,89.0
669,198.59761966875,199.09761983125003,57.0,72.0
670,197.95245816875,199.2508456875,45.0,50.0
671,197.62987741875003,199.25891020625002,38.0,81.0
672,198.27503891875,199.4443941375,50.0,78.0
673,199.56536191875,200.2777277416667,62.0,50.0
674,198.92020041875003,200.29654495208334,66.0,127.0
675,201.17826566875002,201.7293411166667,57.0,70.0
676,200.53310416875001,202.07880359583334,49.0,27.0
677,200.21052341875003,202.18364233958334,42.0,74.0
678,200.85568491875,202.299233775,54.0,78.0
679,202.14600791875,202.79385759166667,61.0,54.0
680,201.50084641875003,202.87450277916668,66.0,127.0
681,203.43633091875,203.80461060833335,59.0,67.0
682,203.75891166875002,204.07611607291668,62.0,73.0
683,203.11375016875002,204.363750575,54.0,40.0
684,204.40407316875002,204.56267537083335,54.0,68.0
685,202.79116941875003,204.57880440833335,47.0,67.0
686,204.72665391875,205.3583745541667,62.0,93.0
687,204.08149241875,205.40944983958335,66.0,127.0
688,205.04923466875002,205.47934233541667,59.0,60.0
689,206.01697691875,206.84493417708336,54.0,90.0
690,206.98471916875002,207.18633213750002,54.0,71.0
691,205.69439616875002,207.21052569375001,49.0,39.0
692,206.33955766875002,207.29654722708335,57.0,62.0
693,205.37181541875,207.3583752041667,42.0,59.0
694,207.30729991875,207.95246141875003,61.0,107.0
695,207.62988066875002,207.99816035833334,57.0,82.0
696,206.66213841875003,208.00891305000002,66.0,112.0
697,208.59762291875,209.53939635208334,52.0,76.0
698,208.91973836875,209.93469541041665,59.0,67.0
699,207.95246141875003,209.93736635,40.0,78.0
700,208.27504216875002,209.95873386666668,47.0,35.0
701,209.56076386875,210.22849876458332,52.0,62.0
702,209.88127661875,210.61311406458333,64.0,77.0
703,210.20178936874998,210.62913970208334,59.0,57.0
704,209.24025111875,210.63181064166668,67.0,117.0
705,211.16332761875,211.49986600625,55.0,75.0
706,210.84281486875,212.07678895625,50.0,63.0
707,212.12486586875,212.4373658,50.0,53.0
708,210.52230211875,212.53619056458334,43.0,71.0
709,212.44537861875,213.05168190416666,55.0,85.0
710,211.48384036875,213.06770754166666,59.0,64.0
711,211.48384036875,213.07304942083334,62.0,66.0
712,213.72742961875,214.54206619166666,52.0,79.0
713,214.04794236875,214.7290319625,59.0,79.0
714,213.40691686875,215.05488659166667,47.0,49.0
715,213.08640411875,215.07358316875,40.0,92.0
716,214.68896786875,215.30061303333332,52.0,73.0
717,214.36845511875,215.66118987708333,67.0,107.0
718,215.00948061875,215.67721551458334,64.0,102.0
719,215.32999336875,215.67988645416668,59.0,93.0
720,216.29153161874999,216.60403155,57.0,100.0
721,216.61204436875,216.85777081041667,64.0,102.0
722,216.61204436875,216.87112550833334,61.0,127.0
723,215.97101886875,217.04740752083333,52.0,93.0
724,216.93255711875,217.64302704791666,61.0,127.0
725,217.25306986875,217.73650993333334,52.0,96.0
726,215.65050611875,217.77123214791666,45.0,89.0
727,216.93255711875,218.17721496458333,64.0,100.0
728,217.89409536875,218.20392436041666,61.0,112.0
729,217.57358261875,218.20926623958334,57.0,100.0
730,218.85563361875,219.64623173541668,50.0,69.0
731,219.81717186875,220.17507777291667,50.0,77.0
732,218.21460811875,220.64783407916667,38.0,83.0
733,218.53512086875,220.84548360833332,45.0,51.0
734,220.45819736875,220.86952206458332,62.0,72.0
735,220.13768461875,220.94965025208333,64.0,85.0
736,219.49665911875,220.96834682916668,66.0,127.0
737,219.17614636875,221.02977843958334,57.0,69.0
738,221.41973561875,222.17026964166666,50.0,79.0
739,222.38127386875,222.65905158541668,50.0,67.0
740,222.70178661875,223.03565406666667,64.0,51.0
741,220.77871011874998,223.1585172875,38.0,59.0
742,221.09922286875,223.3347993,45.0,42.0
743,221.74024836875,223.34281211875,57.0,63.0
744,223.02229936875,223.34281211875,62.0,82.0
745,222.06076111875,223.34281211875,66.0,127.0
746,223.98383761875,224.81225665,52.0,93.0
747,223.66332486875,225.22579060416666,47.0,52.0
748,223.34281211875,225.26875517083334,40.0,77.0
749,224.30473770625,225.32246087916667,59.0,82.0
750,224.94920620625,225.360054875,52.0,73.0
751,224.62697195625,225.96155880833334,67.0,127.0
752,225.59367470625,225.97229995,59.0,60.0
753,225.27144045625,225.98304109166668,64.0,85.0
754,226.56037745625,227.16993724583332,57.0,89.0
755,226.88261170625,227.21827238333333,61.0,93.0
756,226.23814320625002,227.34716608333335,52.0,44.0
757,227.52708020625,227.73653246875,52.0,46.0
758,225.91590895625,227.8251468875,45.0,79.0
759,227.84931445625,228.56897094791668,61.0,88.0
760,227.20484595625,228.60119437291667,64.0,99.0
761,229.13825145625,229.87401966041668,50.0,76.0
762,230.10495420625,230.48895002083333,50.0,85.0
763,228.49378295625002,230.88368697708333,38.0,76.0
764,230.42718845625,230.94544854166668,64.0,85.0
765,228.81601720625,231.02332181875,45.0,69.0
766,230.74942270625002,231.20055065625002,62.0,82.0
767,229.46048570625,231.224718225,57.0,86.0
768,229.78271995625,231.25694165000002,66.0,127.0
769,231.71612545625,232.48411708541667,50.0,92.0
770,232.68282820625,233.0453417375,50.0,74.0
771,231.07165695625,233.30044385208333,38.0,86.0
772,233.00506245625002,233.65490152708333,64.0,93.0
773,231.39389120625,233.66564266875,45.0,39.0
774,232.36059395625,233.71934837708335,66.0,127.0
775,232.03835970625,233.7220336625,57.0,102.0
776,234.29399945625,235.08615865416667,50.0,97.0
777,235.26070220625002,235.64738330625,50.0,90.0
778,233.64953095625,236.12804939583333,38.0,74.0
779,233.97176520625,236.33213108750002,45.0,58.0
780,235.90517070625,236.80474132083333,62.0,73.0
781,235.58293645625,236.97122901666668,64.0,68.0
782,234.61623370625,237.1377167125,57.0,86.0
783,234.93846795625,237.31226026458333,66.0,127.0
784,236.87187345625,237.6371798,50.0,96.0
785,236.22740495625,238.65490297291666,38.0,77.0
786,237.83857620625,238.77842610208333,50.0,78.0
787,238.16081045625,238.88046694791666,64.0,65.0
788,237.51634195625002,238.88046694791666,66.0,127.0
789,236.54963920625,238.90463451666668,45.0,55.0
790,238.48304470625,238.9100050875,62.0,45.0
791,237.19410770625,239.0550105,57.0,66.0
792,239.44974745625,240.1989420875,50.0,97.0
793,240.41645020625,240.94813671875,50.0,75.0
794,238.80527895625,241.19315730833333,38.0,73.0
795,239.12751320625,241.44369601458334,45.0,69.0
796,239.77198170625002,242.20339402708333,57.0,95.0
797,240.09421595625,242.35425604375,66.0,117.0
798,241.06115304375,242.37041983125,62.0,81.0
799,240.73868445625,242.41621722916668,64.0,52.0
800,242.03098029375,242.7825964125,50.0,92.0
801,241.38442879375,243.75781159166667,38.0,81.0
802,242.35425604375,244.0110442625,57.0,69.0
803,241.70770454375,244.03259597916667,45.0,67.0
804,243.32408329375,244.03798390833333,64.0,78.0
805,242.67753179375,244.04067787291666,66.0,117.0
806,243.64735904375001,244.0756994125,62.0,69.0
807,243.00080754375,244.41513895,50.0,74.0
808,244.61718629375,245.32569897916667,50.0,81.0
809,244.94046204375,245.37149637708333,69.0,43.0
810,245.26373779375,246.00727201875,74.0,93.0
811,243.97063479375,246.37634516666668,38.0,81.0
812,245.58701354375,246.39789688333335,50.0,83.0
813,246.23356504375,246.62418990833334,74.0,60.0
814,245.26373779375,246.63227180208332,78.0,117.0
815,244.29391054375,246.64843558958333,45.0,41.0
816,245.91028929375,246.710396775,69.0,66.0
817,247.52666804375,247.75834899791667,62.0,68.0
818,247.52666804375,247.76643089166666,57.0,46.0
819,247.52666804375,247.76643089166666,66.0,61.0
820,247.20339229375,247.91459894375,50.0,75.0
821,247.84994379375001,248.67968488541666,66.0,112.0
822,247.84994379375001,248.70662453125001,62.0,100.0
823,246.55684079375,248.90328394583332,38.0,62.0
824,246.88011654375,249.13227093541667,45.0,45.0
825,248.17321954375,249.51211994166667,50.0,58.0
826,248.49649529375,249.98086977916665,57.0,55.0
827,248.81977104375,250.22562093125,66.0,55.0
828,248.81977104375,250.2363736229167,62.0,55.0
829,249.78959829375,250.49981456875003,50.0,64.0
830,249.14304679375,251.56433104375,38.0,62.0
831,249.46632254375,251.78744939583333,45.0,44.0
832,250.75787916875,252.1234710104167,50.0,69.0
833,250.11271766875,252.61809482708335,57.0,58.0
834,251.40304066875,252.78476154791667,62.0,48.0
835,250.43529841875002,252.80089058541668,66.0,112.0
836,251.08045991875002,252.8412131791667,64.0,56.0
837,252.37078291875002,253.10465412500002,50.0,44.0
838,251.72562141875002,254.13960069791668,38.0,48.0
839,252.04820216875,254.33046097500002,45.0,27.0
840,253.33852516875,254.69874066458334,50.0,40.0
841,252.69336366875,255.14497736875,57.0,47.0
842,253.98368666875,255.3089559166667,62.0,35.0
843,253.01594441875002,255.37884841250002,66.0,99.0
844,253.66110591875002,255.46486994583336,64.0,40.0
845,254.95142891875003,255.66917108750002,50.0,35.0
846,254.30626741875002,256.68261227708336,38.0,44.0
847,254.62884816875,256.88422524583336,45.0,27.0
848,255.91917116875,257.1718597479167,50.0,40.0
849,255.27400966875,257.6154082791667,57.0,51.0
850,256.56433266875,257.8492793229167,62.0,37.0
851,255.59659041875003,257.8573438416667,66.0,92.0
852,256.24175191875,257.8976664354167,64.0,44.0
853,257.53207491875,258.27132247083335,50.0,32.0
854,256.88691341875,259.3412152916667,38.0,39.0
855,257.20949416875004,259.49981749375,45.0,27.0
856,258.49981716875004,259.51325835833336,50.0,32.0
857,257.85465566875,260.3492801354167,57.0,38.0
858,258.82239791875,260.5051941645834,64.0,42.0
859,259.14497866875,260.524011375,62.0,41.0
860,258.17723641875,260.524011375,66.0,52.0
861,260.11272091875003,260.87616202708335,50.0,38.0
862,259.46755941875,261.85734514166666,38.0,52.0
863,261.08046316875004,261.97562475,50.0,40.0
864,259.79014016875004,262.1503559895834,45.0,35.0
865,260.43530166875,262.9783132479167,57.0,42.0
866,260.75788241875,263.01594766875,66.0,89.0
867,261.40304391875003,263.0589584354167,64.0,41.0
868,261.72562466875,263.1396036229167,62.0,34.0
869,262.69336691875003,263.3922918770833,50.0,41.0
870,263.01594766875,264.09390500833337,57.0,53.0
871,262.04820541875,264.27401259375,38.0,42.0
872,262.37078616875,264.653044975,45.0,42.0
873,263.66110916875,265.08046446875,50.0,37.0
874,264.30627066875,265.35196993333335,57.0,37.0
875,263.98368991875003,265.56164742083337,62.0,35.0
876,263.33852841875,265.6906797208334,66.0,88.0
877,265.27401291875003,265.95143249375,50.0,26.0
878,264.95143216875,266.03745402708336,45.0,29.0
879,265.59659366875,266.0401422,57.0,37.0
880,264.62885141875,266.10734652291666,38.0,55.0
881,265.91917441875,266.44067996458335,62.0,33.0
882,265.91917441875,266.46756169375,66.0,32.0
