,start,end,pitch,velocity
0,17.79637215416667,18.037299589583334,68.0,90.0
1,18.03830765416667,18.279235089583334,68.0,86.0
2,18.28024315416667,18.521170589583335,68.0,81.0
3,18.522178654166666,18.764114154166666,68.0,83.0
4,18.764114154166666,19.246977089583336,75.0,95.0
5,19.247985154166667,19.489920654166667,75.0,104.0
6,19.489920654166667,19.972783589583333,73.0,90.0
7,19.973791654166668,20.214719089583333,73.0,86.0
8,20.215727154166668,20.456654589583334,73.0,87.0
9,20.45766265416667,20.69959815416667,73.0,87.0
10,20.69959815416667,20.940525589583334,78.0,114.0
11,20.94153365416667,21.182461089583335,78.0,112.0
12,21.18346915416667,21.667340154166666,78.0,120.0
13,21.667340154166666,21.908267589583335,73.0,93.0
14,21.909275654166667,22.150203089583336,73.0,79.0
15,22.151211154166667,22.392138589583336,73.0,111.0
16,22.393146654166667,22.635082154166668,73.0,95.0
17,22.635082154166668,23.117945089583333,75.0,114.0
18,23.118953154166668,23.36088865416667,75.0,71.0
19,23.36088865416667,23.843751589583334,72.0,93.0
20,23.84475965416667,24.085687089583335,72.0,67.0
21,24.08669515416667,24.328630654166666,72.0,87.0
22,24.328630654166666,24.570566154166666,73.0,95.0
23,24.570566154166666,25.538308154166668,75.0,87.0
24,25.538308154166668,25.779235589583333,68.0,86.0
25,25.780243654166668,26.021171089583333,68.0,68.0
26,26.02217915416667,26.263106589583334,68.0,77.0
27,26.26411465416667,26.50605015416667,68.0,64.0
28,26.50605015416667,26.988913089583335,75.0,95.0
29,26.98992115416667,27.231856654166666,75.0,87.0
30,27.231856654166666,27.714719589583336,73.0,95.0
31,27.715727654166667,27.956655089583336,73.0,85.0
32,27.957663154166667,28.199598654166667,73.0,90.0
33,28.199598654166667,28.682461589583333,78.0,120.0
34,28.683469654166668,28.924397089583334,78.0,117.0
35,28.92540515416667,29.166332589583334,78.0,120.0
36,29.16734065416667,29.40927615416667,78.0,100.0
37,29.40927615416667,29.892139089583335,73.0,95.0
38,29.89314715416667,30.134074589583335,73.0,90.0
39,30.13508265416667,30.377018154166667,73.0,104.0
40,30.377018154166667,30.859881089583336,75.0,72.0
41,30.860889154166667,31.102824654166668,75.0,69.0
42,31.102824654166668,31.585687589583333,72.0,70.0
43,31.586695654166668,31.827623089583334,72.0,76.0
44,31.82863115416667,32.07056665416667,72.0,87.0
45,32.07056665416667,32.311494089583334,68.0,90.0
46,32.312502154166665,34.81149425625,68.0,95.0
47,41.02218015416667,41.263107589583335,68.0,90.0
48,41.264115654166666,41.50504308958334,68.0,86.0
49,41.50605115416667,41.746978589583335,68.0,81.0
50,41.74798665416667,41.98992215416667,68.0,83.0
51,41.98992215416667,42.47278508958333,75.0,95.0
52,42.47379315416667,42.71572865416667,75.0,104.0
53,42.71572865416667,43.19859158958334,73.0,90.0
54,43.19959965416667,43.440527089583334,73.0,86.0
55,43.441535154166665,43.68246258958334,73.0,87.0
56,43.68347065416667,43.925406154166666,73.0,87.0
57,43.925406154166666,44.16633358958334,78.0,114.0
58,44.16734165416667,44.408269089583335,78.0,112.0
59,44.409277154166666,44.89314815416667,78.0,120.0
60,44.89314815416667,45.13407558958333,73.0,93.0
61,45.13508365416667,45.376011089583336,73.0,79.0
62,45.37701915416667,45.61794658958333,73.0,111.0
63,45.61895465416667,45.86089015416667,73.0,95.0
64,45.86089015416667,46.34375308958334,75.0,114.0
65,46.34476115416667,46.586696654166666,75.0,71.0
66,46.586696654166666,47.069559589583335,72.0,93.0
67,47.070567654166666,47.31149508958334,72.0,67.0
68,47.31250315416667,47.55443865416667,72.0,87.0
69,47.55443865416667,47.79637415416667,73.0,95.0
70,47.79637415416667,48.76411615416667,75.0,87.0
71,48.76411615416667,49.00504358958334,68.0,86.0
72,49.00605165416667,49.246979089583334,68.0,68.0
73,49.24798715416667,49.48891458958334,68.0,77.0
74,49.48992265416667,49.731858154166666,68.0,64.0
75,49.731858154166666,50.214721089583335,75.0,95.0
76,50.21572915416667,50.45766465416667,75.0,87.0
77,50.45766465416667,50.94052758958333,73.0,95.0
78,50.94153565416667,51.18246308958334,73.0,85.0
79,51.18347115416667,51.42540665416667,73.0,90.0
80,51.42540665416667,51.908269589583334,78.0,120.0
81,51.90927765416667,52.15020508958334,78.0,117.0
82,52.15121315416667,52.392140589583335,78.0,120.0
83,52.393148654166666,52.63508415416667,78.0,100.0
84,52.63508415416667,53.11794708958334,73.0,95.0
85,53.11895515416667,53.359882589583336,73.0,90.0
86,53.36089065416667,53.60282615416667,73.0,104.0
87,53.60282615416667,54.08568908958333,75.0,72.0
88,54.08669715416667,54.32863265416667,75.0,69.0
89,54.32863265416667,54.81149558958334,72.0,70.0
90,54.81250365416667,55.053431089583334,72.0,76.0
91,55.05443915416667,55.29637465416667,72.0,87.0
92,55.29637465416667,55.537302089583335,68.0,90.0
93,55.538310154166666,56.98992315416667,68.0,95.0
94,56.98992315416667,57.25302801041667,71.0,90.0
95,57.23185865416667,57.47379415416667,68.0,66.0
96,57.47379415416667,57.74597159166667,71.0,93.0
97,57.71572965416667,58.199600654166666,68.0,75.0
98,58.199600654166666,58.68347165416667,73.0,93.0
99,58.68347165416667,59.16734265416667,71.0,98.0
100,59.16734265416667,60.86089115416667,68.0,95.0
101,60.86089115416667,61.15121375416667,71.0,100.0
102,61.10282665416667,61.344762154166666,68.0,77.0
103,61.344762154166666,61.58669765416667,71.0,100.0
104,61.58669765416667,62.07056865416667,68.0,87.0
105,62.07056865416667,62.55443965416667,73.0,104.0
106,62.55443965416667,63.03831065416667,71.0,108.0
107,63.03831065416667,64.24798815416666,68.0,86.0
108,64.24798815416666,65.94052858958334,80.0,85.0
109,65.94153665416667,66.18347215416667,80.0,111.0
110,66.18347215416667,67.73085128958334,78.0,122.0
111,67.63508515416667,68.11895615416667,75.0,104.0
112,68.11895615416667,69.57056915416668,73.0,98.0
113,69.57056915416668,69.81250465416667,71.0,83.0
114,69.81250465416667,71.27722249375,68.0,76.0
115,71.26411765416667,71.50504508958333,80.0,85.0
116,71.50605315416666,71.74798865416668,80.0,93.0
117,71.74798865416668,71.98992415416667,78.0,108.0
118,71.98992415416667,72.47379515416667,80.0,100.0
119,72.47379515416667,73.19859358958334,83.0,122.0
120,73.19960165416667,73.44052908958334,83.0,114.0
121,73.44153715416667,73.68246458958333,83.0,95.0
122,73.68347265416666,73.92540815416667,83.0,104.0
123,73.92540815416667,74.16734365416667,82.0,112.0
124,74.16734365416667,74.40827108958334,78.0,95.0
125,74.40927915416667,75.13407758958334,78.0,114.0
126,75.13508565416667,75.37601308958334,78.0,79.0
127,75.37702115416667,75.61794858958334,78.0,81.0
128,75.61895665416667,75.86089215416668,78.0,85.0
129,75.86089215416668,76.34375508958334,82.0,120.0
130,76.34476315416667,77.06956158958334,82.0,121.0
131,77.07056965416668,77.31149708958334,82.0,98.0
132,77.31250515416667,77.55444065416667,82.0,98.0
133,77.55444065416667,77.79637615416667,83.0,104.0
134,77.79637615416667,78.28024715416667,82.0,117.0
135,78.28024715416667,79.00504558958333,80.0,104.0
136,79.00605365416666,79.24698108958334,80.0,85.0
137,79.24798915416667,79.48992465416667,80.0,93.0
138,79.48992465416667,79.73186015416667,78.0,87.0
139,79.73186015416667,80.21573115416668,80.0,112.0
140,80.21573115416668,80.94052958958333,83.0,112.0
141,80.94153765416667,81.18246508958333,83.0,108.0
142,81.18347315416668,81.42440058958334,83.0,104.0
143,81.42540865416667,81.66734415416667,83.0,100.0
144,81.66734415416667,82.15121515416666,82.0,111.0
145,82.15121515416666,82.87601358958334,85.0,114.0
146,82.87702165416667,83.11794908958333,85.0,93.0
147,83.11895715416667,83.35988458958333,85.0,95.0
148,83.36089265416668,83.60182008958334,85.0,100.0
149,83.60282815416667,84.08669915416667,85.0,111.0
150,84.08669915416667,84.71673951875,80.0,93.0
151,84.57057015416667,84.71673951875,80.0,79.0
152,85.05444115416667,85.29536858958333,78.0,104.0
153,85.29637665416666,85.78024765416667,78.0,111.0
154,85.78024765416667,86.02218315416667,75.0,66.0
155,86.02218315416667,86.26311058958333,78.0,98.0
156,86.26411865416667,86.50605415416668,78.0,111.0
157,86.50605415416668,88.75000591666667,80.0,108.0
158,95.21573215416667,95.45665958958334,68.0,90.0
159,95.45766765416667,95.69859508958334,68.0,86.0
160,95.69960315416667,95.94053058958333,68.0,81.0
161,95.94153865416668,96.18347415416667,68.0,83.0
162,96.18347415416667,96.66633708958334,75.0,95.0
163,96.66734515416667,96.90928065416666,75.0,104.0
164,96.90928065416666,97.39214358958334,73.0,90.0
165,97.39315165416667,97.63407908958334,73.0,86.0
166,97.63508715416667,97.87601458958333,73.0,87.0
167,97.87702265416667,98.11895815416668,73.0,87.0
168,98.11895815416668,98.35988558958334,78.0,114.0
169,98.36089365416667,98.60182108958334,78.0,112.0
170,98.60282915416667,99.08670015416668,78.0,120.0
171,99.08670015416668,99.32762758958334,73.0,93.0
172,99.32863565416667,99.56956308958334,73.0,79.0
173,99.57057115416667,99.81149858958334,73.0,111.0
174,99.81250665416667,100.05444215416667,73.0,95.0
175,100.05444215416667,100.53730508958334,75.0,114.0
176,100.53831315416667,100.78024865416667,75.0,71.0
177,100.78024865416667,101.26311158958333,72.0,93.0
178,101.26411965416668,101.50504708958334,72.0,67.0
179,101.50605515416667,101.74799065416667,72.0,87.0
180,101.74799065416667,101.98992615416667,73.0,95.0
181,101.98992615416667,102.95766815416667,75.0,87.0
182,102.95766815416667,103.19859558958333,68.0,86.0
183,103.19960365416667,103.44053108958335,68.0,68.0
184,103.44153915416668,103.68246658958334,68.0,77.0
185,103.68347465416667,103.92541015416667,68.0,64.0
186,103.92541015416667,104.40827308958333,75.0,95.0
187,104.40928115416668,104.65121665416667,75.0,87.0
188,104.65121665416667,105.13407958958334,73.0,95.0
189,105.13508765416667,105.37601508958333,73.0,85.0
190,105.37702315416666,105.61895865416668,73.0,90.0
191,105.61895865416668,106.10182158958334,78.0,120.0
192,106.10282965416667,106.34375708958333,78.0,117.0
193,106.34476515416667,106.58569258958333,78.0,120.0
194,106.58670065416668,106.82863615416667,78.0,100.0
195,106.82863615416667,107.31149908958334,73.0,95.0
196,107.31250715416667,107.55343458958333,73.0,90.0
197,107.55444265416668,107.79637815416667,73.0,104.0
198,107.79637815416667,108.27924108958334,75.0,72.0
199,108.28024915416667,108.52218465416667,75.0,69.0
200,108.52218465416667,109.00504758958334,72.0,70.0
201,109.00605565416667,109.24698308958334,72.0,76.0
202,109.24799115416667,109.48992665416667,72.0,87.0
203,109.48992665416667,109.73085408958333,68.0,90.0
204,109.73186215416668,112.84980591041668,68.0,95.0
205,118.44154015416667,120.13408058958333,80.0,85.0
206,120.13508865416667,120.37702415416668,80.0,111.0
207,120.37702415416668,121.92440328958334,78.0,122.0
208,121.82863715416667,122.31250815416668,75.0,104.0
209,122.31250815416668,123.76412115416667,73.0,98.0
210,123.76412115416667,124.00605665416667,71.0,83.0
211,124.00605665416667,125.47077449375,68.0,76.0
212,125.45766965416668,125.69859708958334,80.0,85.0
213,125.69960515416668,125.94154065416667,80.0,93.0
214,125.94154065416667,126.18347615416667,78.0,108.0
215,126.18347615416667,126.66734715416668,80.0,100.0
216,126.66734715416668,127.39214558958334,83.0,122.0
217,127.39315365416667,127.63408108958333,83.0,114.0
218,127.63508915416668,127.87601658958334,83.0,95.0
219,127.87702465416668,128.11896015416667,83.0,104.0
220,128.11896015416667,128.36089565416668,82.0,112.0
221,128.36089565416668,128.60182308958335,78.0,95.0
222,128.60283115416667,129.32762958958335,78.0,114.0
223,129.32863765416667,129.56956508958334,78.0,79.0
224,129.57057315416668,129.81150058958335,78.0,81.0
225,129.81250865416666,130.05444415416667,78.0,85.0
226,130.05444415416667,130.53730708958335,82.0,120.0
227,130.53831515416667,131.26311358958333,82.0,121.0
228,131.26412165416667,131.50504908958334,82.0,98.0
229,131.50605715416668,131.74799265416667,82.0,98.0
230,131.74799265416667,131.98992815416668,83.0,104.0
231,131.98992815416668,132.47379915416667,82.0,117.0
232,132.47379915416667,133.19859758958333,80.0,104.0
233,133.19960565416667,133.44053308958334,80.0,85.0
234,133.44154115416669,133.68347665416667,80.0,93.0
235,133.68347665416667,133.92541215416668,78.0,87.0
236,133.92541215416668,134.40928315416667,80.0,112.0
237,134.40928315416667,135.13408158958333,83.0,112.0
238,135.13508965416668,135.37601708958334,83.0,108.0
239,135.37702515416666,135.61795258958335,83.0,104.0
240,135.61896065416667,135.86089615416668,83.0,100.0
241,135.86089615416668,136.34476715416668,82.0,111.0
242,136.34476715416668,137.06956558958333,85.0,114.0
243,137.07057365416668,137.31150108958334,85.0,93.0
244,137.31250915416666,137.55343658958333,85.0,95.0
245,137.55444465416667,137.79537208958334,85.0,100.0
246,137.79638015416668,138.28025115416668,85.0,111.0
247,138.28025115416668,138.91029151875,80.0,93.0
248,138.76412215416667,138.91029151875,80.0,79.0
249,139.24799315416666,139.48892058958333,78.0,104.0
250,139.48992865416668,139.97379965416667,78.0,111.0
251,139.97379965416667,140.21573515416668,75.0,66.0
252,140.21573515416668,140.45666258958335,78.0,98.0
253,140.45767065416666,140.69960615416667,78.0,111.0
254,140.69960615416667,141.03529166041668,80.0,108.0
255,140.94154165416668,141.03529166041668,80.0,85.0
256,141.18347715416667,141.42541265416668,80.0,93.0
257,141.42541265416668,141.66734815416666,78.0,108.0
258,141.66734815416666,142.15121915416668,80.0,100.0
259,142.15121915416668,142.87601758958334,83.0,122.0
260,142.8770256541667,143.11795308958335,83.0,114.0
261,143.11896115416667,143.35988858958333,83.0,95.0
262,143.36089665416668,143.60283215416666,83.0,104.0
263,143.60283215416666,143.84476765416667,82.0,112.0
264,143.84476765416667,144.08569508958334,78.0,95.0
265,144.08670315416668,144.81150158958334,78.0,114.0
266,144.81250965416666,145.05343708958333,78.0,79.0
267,145.05444515416667,145.29537258958334,78.0,81.0
268,145.29638065416668,145.53831615416667,78.0,85.0
269,145.53831615416667,146.02117908958334,82.0,120.0
270,146.0221871541667,146.74698558958335,82.0,121.0
271,146.74799365416666,146.98892108958333,82.0,98.0
272,146.98992915416667,147.23186465416669,82.0,98.0
273,147.23186465416669,147.47380015416667,83.0,104.0
274,147.47380015416667,147.95767115416666,82.0,117.0
275,147.95767115416666,148.68246958958335,80.0,104.0
276,148.68347765416667,148.92440508958333,80.0,85.0
277,148.92541315416668,149.1673486541667,80.0,93.0
278,149.1673486541667,149.40928415416667,78.0,87.0
279,149.40928415416667,149.89315515416666,80.0,112.0
280,149.89315515416666,150.61795358958335,83.0,112.0
281,150.61896165416667,150.85988908958333,83.0,108.0
282,150.86089715416668,151.10182458958334,83.0,104.0
283,151.10283265416666,151.34476815416667,83.0,100.0
284,151.34476815416667,151.82863915416667,82.0,111.0
285,151.82863915416667,152.55343758958335,85.0,114.0
286,152.55444565416667,152.79537308958334,85.0,93.0
287,152.79638115416668,153.03730858958335,85.0,95.0
288,153.03831665416666,153.27924408958333,85.0,100.0
289,153.28025215416667,153.76412315416667,85.0,111.0
290,153.76412315416667,154.39416351875002,80.0,93.0
291,154.24799415416666,154.39416351875002,80.0,79.0
292,154.73186515416668,154.97279258958335,78.0,104.0
293,154.97380065416667,155.4576716541667,78.0,111.0
294,155.4576716541667,155.69960715416667,75.0,66.0
295,155.69960715416667,155.94053458958334,78.0,98.0
296,155.94154265416668,156.18347815416666,78.0,111.0
297,156.18347815416666,157.63408308958333,80.0,108.0
298,157.63509115416667,157.87601858958334,80.0,90.0
299,157.87702665416668,158.11795408958335,80.0,108.0
300,158.11896215416667,158.60283315416666,80.0,108.0
301,158.60283315416666,158.84476865416667,75.0,68.0
302,158.84476865416667,159.77017194166666,78.0,95.0
303,159.57057515416668,160.05444615416667,75.0,64.0
304,160.05444615416667,160.30243004166667,73.0,73.0
305,160.29638165416668,160.78025265416667,71.0,66.0
306,160.78025265416667,162.9576721541667,73.0,95.0
307,162.9576721541667,165.37702715416668,68.0,70.0
308,165.37702715416668,165.61795458958335,80.0,87.0
309,165.61896265416667,165.85989008958333,80.0,87.0
310,165.86089815416668,166.1028336541667,80.0,95.0
311,166.1028336541667,166.58670465416668,75.0,87.0
312,166.58670465416668,167.31855954166667,78.0,112.0
313,167.31855954166667,167.81452731666667,75.0,100.0
314,167.80747086458334,168.09476927083335,73.0,72.0
315,168.0594870104167,168.57259188333333,71.0,75.0
316,168.57259188333333,171.90928565416667,73.0,86.0
317,171.90928565416667,172.15021308958333,80.0,85.0
318,172.15122115416668,172.3931566541667,80.0,93.0
319,172.3931566541667,172.63509215416667,78.0,108.0
320,172.63509215416667,173.11896315416666,80.0,100.0
321,173.11896315416666,173.84376158958335,83.0,122.0
322,173.84476965416667,174.08569708958333,83.0,114.0
323,174.08670515416668,174.32763258958335,83.0,95.0
324,174.32864065416666,174.57057615416667,83.0,104.0
325,174.57057615416667,174.81251165416668,82.0,112.0
326,174.81251165416668,175.05343908958335,78.0,95.0
327,175.05444715416667,175.77924558958335,78.0,114.0
328,175.78025365416667,176.02118108958334,78.0,79.0
329,176.02218915416668,176.26311658958335,78.0,81.0
330,176.26412465416666,176.50606015416668,78.0,85.0
331,176.50606015416668,176.98892308958335,82.0,120.0
332,176.98993115416667,177.71472958958333,82.0,121.0
333,177.71573765416667,177.95666508958334,82.0,98.0
334,177.95767315416668,178.19960865416667,82.0,98.0
335,178.19960865416667,178.44154415416668,83.0,104.0
336,178.44154415416668,178.92541515416667,82.0,117.0
337,178.92541515416667,179.65021358958333,80.0,104.0
338,179.65122165416668,179.89214908958334,80.0,85.0
339,179.8931571541667,180.13509265416667,80.0,93.0
340,180.13509265416667,180.37702815416668,78.0,87.0
341,180.37702815416668,180.86089915416667,80.0,112.0
342,180.86089915416667,181.58569758958333,83.0,112.0
343,181.58670565416668,181.82763308958334,83.0,108.0
344,181.8286411541667,182.06956858958335,83.0,104.0
345,182.07057665416667,182.31251215416668,83.0,100.0
346,182.31251215416668,182.79638315416668,82.0,111.0
347,182.79638315416668,183.52118158958334,85.0,114.0
348,183.52218965416668,183.76311708958335,85.0,93.0
349,183.76412515416666,184.00505258958333,85.0,95.0
350,184.00606065416667,184.24698808958334,85.0,100.0
351,184.24799615416669,184.73186715416668,85.0,111.0
352,184.73186715416668,185.36190751875,80.0,93.0
353,185.21573815416667,185.36190751875,80.0,79.0
354,185.69960915416667,185.94053658958333,78.0,104.0
355,185.94154465416668,186.42541565416667,78.0,111.0
356,186.42541565416667,186.66735115416668,75.0,66.0
357,186.66735115416668,186.90827858958335,80.0,98.0
358,186.90928665416666,187.38307700833334,80.0,111.0
359,187.38408507291666,187.63408508958335,80.0,85.0
360,187.63509315416667,187.87702865416668,80.0,93.0
361,187.87702865416668,188.11896415416666,78.0,108.0
362,188.11896415416666,188.60283515416668,80.0,100.0
363,188.60283515416668,189.32561746041668,83.0,122.0
364,189.326625525,189.56956908958335,83.0,85.0
365,189.57057715416667,189.81150458958334,83.0,95.0
366,189.81251265416668,190.05444815416666,83.0,104.0
367,190.05444815416666,190.29638365416668,82.0,112.0
368,190.29638365416668,190.53731108958334,78.0,95.0
369,190.5383191541667,191.26311758958335,78.0,114.0
370,191.26412565416666,191.50505308958336,78.0,79.0
371,191.50606115416667,191.74698858958334,78.0,81.0
372,191.74799665416668,191.98993215416667,78.0,85.0
373,191.98993215416667,192.47279508958334,82.0,120.0
374,192.4738031541667,193.19860158958335,82.0,121.0
375,193.19960965416666,193.44053708958333,82.0,98.0
376,193.44154515416668,193.6834806541667,82.0,98.0
377,193.6834806541667,193.92541615416667,83.0,104.0
378,193.92541615416667,194.40928715416666,82.0,117.0
379,194.40928715416666,195.13408558958335,80.0,104.0
380,195.13509365416667,195.37602108958333,80.0,85.0
381,195.37702915416668,195.6189646541667,80.0,93.0
382,195.6189646541667,195.86090015416667,78.0,87.0
383,195.86090015416667,196.34477115416666,80.0,112.0
384,196.34477115416666,197.06956958958335,83.0,112.0
385,197.07057765416667,197.31150508958333,83.0,108.0
386,197.31251315416668,197.55344058958335,83.0,104.0
387,197.55444865416666,197.79638415416667,83.0,100.0
388,197.79638415416667,198.28025515416667,82.0,111.0
389,198.28025515416667,199.00505358958335,85.0,114.0
390,199.00606165416667,199.24698908958334,85.0,93.0
391,199.24799715416668,199.48892458958335,85.0,95.0
392,199.48993265416667,199.73086008958333,85.0,100.0
393,199.73186815416668,200.21573915416667,85.0,111.0
394,200.21573915416667,200.69860208958335,80.0,93.0
395,200.69961015416666,201.18348115416669,80.0,79.0
396,201.18348115416669,201.42440858958335,78.0,104.0
397,201.42541665416667,201.9092876541667,78.0,111.0
398,201.9092876541667,202.15122315416667,75.0,66.0
399,202.15122315416667,202.39315865416668,78.0,98.0
400,202.39315865416668,202.63408608958335,80.0,111.0
401,202.63509415416667,203.22582,80.0,108.0
