,start,end,pitch,velocity
0,2.3256049937500003,3.69254056875,75.0,60.0
1,2.221774341666667,3.703629279166667,72.0,70.0
2,2.1975807916666668,3.7147179895833333,68.0,59.0
3,2.2510082145833334,3.7681454125,56.0,62.0
4,4.245968025,5.89415361875,71.0,85.0
5,4.245968025,5.9153229750000005,75.0,86.0
6,4.1250002750000005,6.091734277083334,63.0,70.0
7,4.1250002750000005,6.169355250000001,59.0,58.0
8,4.245968025,6.20866976875,68.0,73.0
9,6.183468154166667,6.20866976875,68.0,64.0
10,6.062500404166667,7.5010085645833335,61.0,61.0
11,6.062500404166667,7.5060488875,49.0,60.0
12,6.062500404166667,7.5060488875,65.0,64.0
13,6.1814520250000005,7.810484391666667,73.0,100.0
14,8.118952154166667,9.45967805,75.0,46.0
15,8.118952154166667,9.548387733333334,56.0,63.0
16,8.118952154166667,9.578629670833333,72.0,69.0
17,8.118952154166667,9.58366999375,68.0,60.0
18,10.054436154166668,10.4032265,32.0,71.0
19,10.538307154166667,10.886089435416666,44.0,62.0
20,11.022178154166667,11.3286297875,32.0,67.0
21,9.933468404166668,11.388105597916667,72.0,77.0
22,10.044355508333334,11.441533020833333,75.0,62.0
23,10.054436154166668,11.492944314583333,56.0,65.0
24,9.933468404166668,11.517137864583335,68.0,11.0
25,11.506049154166668,11.91229918125,44.0,67.0
26,11.989920154166667,12.356855662500001,35.0,85.0
27,12.473791154166667,12.87399279375,35.0,93.0
28,12.957662154166668,13.308468629166667,35.0,90.0
29,11.868952404166667,13.344758954166668,59.0,61.0
30,11.989920154166667,13.413307345833333,66.0,60.0
31,11.989920154166667,13.4516138,63.0,68.0
32,11.989920154166667,13.487904125,47.0,72.0
33,13.441533154166667,13.80544446875,35.0,87.0
34,13.925404154166667,14.262097725,37.0,75.0
35,14.409275154166668,14.7580655,37.0,77.0
36,14.893146154166667,15.22681553125,37.0,79.0
37,13.804436404166667,15.2842752125,65.0,65.0
38,13.804436404166667,15.360888120833334,61.0,51.0
39,13.925404154166667,15.398186510416668,68.0,51.0
40,13.925404154166667,15.410283285416668,49.0,65.0
41,15.377017154166667,15.835686539583333,37.0,77.0
42,15.860888154166668,16.216734952083335,32.0,65.0
43,16.344759154166667,16.726815631250002,44.0,58.0
44,16.828630154166667,17.187501145833334,32.0,69.0
45,15.739920404166668,17.25201727916667,72.0,66.0
46,15.860888154166668,17.27721889375,75.0,37.0
47,15.860888154166668,17.326614058333334,56.0,61.0
48,15.739920404166668,17.338710833333334,68.0,58.0
49,17.312501154166668,17.67641246875,44.0,75.0
50,17.762097958333335,18.009073781250002,32.0,75.0
51,17.55443665416667,18.035283460416668,68.0,58.0
52,17.751009247916667,18.035283460416668,68.0,87.0
53,17.762097958333335,18.060485075000003,63.0,72.0
54,18.2600818625,18.336694770833333,32.0,69.0
55,17.762097958333335,18.615928660416667,60.0,77.0
56,18.75907383125,18.838710933333335,32.0,57.0
57,17.675404404166667,19.093751272916666,72.0,83.0
58,17.762097958333335,19.32963838541667,44.0,76.0
59,19.238912572916668,19.416331939583333,63.0,76.0
60,19.23084805625,19.434477102083335,60.0,90.0
61,19.228831927083334,19.437501295833336,68.0,94.0
62,19.426412585416667,19.497985170833335,44.0,52.0
63,19.240928702083334,19.511090010416666,32.0,69.0
64,19.724799702083335,20.025202947916668,71.0,74.0
65,19.732864218750002,20.05544488541667,66.0,74.0
66,19.718751314583333,20.060485208333333,59.0,84.0
67,19.730848089583333,20.060485208333333,63.0,69.0
68,20.25504167291667,20.31854974166667,59.0,32.0
69,19.7358884125,20.36189651875,35.0,72.0
70,20.68850944375,20.747985254166668,35.0,53.0
71,21.154235281250003,21.290324000000002,35.0,89.0
72,21.154235281250003,21.29536432291667,71.0,83.0
73,21.159275604166666,21.29939658125,59.0,84.0
74,21.154235281250003,21.3387111,63.0,75.0
75,21.154235281250003,21.3387111,66.0,73.0
76,21.38609013541667,21.44657401041667,35.0,59.0
77,19.730848089583333,21.45867078541667,47.0,72.0
78,21.654235314583335,21.708670802083333,51.0,75.0
79,21.62600950625,21.953630495833334,61.0,79.0
80,21.633065958333333,21.963711141666668,68.0,73.0
81,21.646170797916668,21.97076759375,65.0,62.0
82,21.642138539583335,22.023186952083336,37.0,79.0
83,22.119961152083334,22.282259550000003,37.0,51.0
84,22.619961185416667,22.82863055416667,37.0,79.0
85,21.639114345833335,23.214719289583336,49.0,68.0
86,23.105848314583334,23.238912839583335,61.0,88.0
87,23.105848314583334,23.242945097916667,68.0,91.0
88,23.105848314583334,23.25000155,65.0,79.0
89,23.286291875,23.359880589583334,49.0,72.0
90,23.11996121875,23.37399349375,37.0,77.0
91,23.5826628625,23.861896752083336,44.0,90.0
92,24.062501604166666,24.180445160416667,44.0,62.0
93,24.54133228125,24.73084842291667,44.0,74.0
94,23.585687056250002,25.027219410416667,32.0,90.0
95,23.585687056250002,25.231856520833336,68.0,68.0
96,23.60282415416667,25.246977489583333,60.0,58.0
97,23.60282415416667,25.253025877083335,63.0,59.0
98,25.241937166666666,25.281251685416667,32.0,83.0
99,23.587703185416668,25.292340395833335,56.0,83.0
100,25.027219410416667,25.293348460416667,44.0,94.0
101,25.514114604166668,25.864921079166667,32.0,92.0
102,26.01109044375,26.0806469,32.0,50.0
103,26.471775958333335,26.662300164583336,32.0,62.0
104,25.52117105625,27.016130833333335,60.0,61.0
105,25.510082345833336,27.0544372875,56.0,77.0
106,25.514114604166668,27.072582450000002,63.0,67.0
107,25.510082345833336,27.076614708333334,68.0,78.0
108,26.958671152083333,27.096776000000002,32.0,100.0
109,27.155243745833335,27.20463891041667,32.0,95.0
110,25.510082345833336,27.235888912500002,44.0,90.0
111,27.44657441041667,27.80947766041667,66.0,67.0
112,27.4354857,27.818550241666667,63.0,71.0
113,27.44657441041667,27.8286308875,59.0,71.0
114,27.905243795833336,28.086695420833333,66.0,58.0
115,27.918348635416667,28.175405104166668,59.0,35.0
116,27.922380893750002,28.18145349166667,63.0,65.0
117,27.44657441041667,28.533268031250003,47.0,76.0
118,28.419356733333334,28.628026102083336,59.0,63.0
119,28.41230028125,28.646171264583334,66.0,62.0
120,27.44657441041667,28.656251910416668,71.0,71.0
121,28.41230028125,28.66230029791667,63.0,53.0
122,27.454638927083334,28.937501929166668,35.0,72.0
123,28.896171281250002,29.073590647916667,59.0,99.0
124,28.896171281250002,29.10383258541667,71.0,93.0
125,28.898187410416668,29.1229858125,63.0,85.0
126,28.8931470875,29.1229858125,66.0,89.0
127,28.637098683333335,29.1713729125,47.0,71.0
128,29.12802613541667,29.175405170833336,35.0,67.0
129,29.4012116375,29.684477785416668,68.0,73.0
130,29.4012116375,29.696574560416668,65.0,64.0
131,29.38508260416667,29.71875198125,61.0,85.0
132,29.910284252083336,30.0060503875,65.0,44.0
133,29.885082637500002,30.046372970833335,68.0,54.0
134,29.895163283333336,30.086695554166667,61.0,55.0
135,29.4012116375,30.545364939583333,49.0,99.0
136,30.35887299166667,30.546373004166668,61.0,64.0
137,30.391131058333336,30.551413327083335,65.0,51.0
138,30.38306654166667,30.555445585416667,68.0,58.0
139,29.4012116375,30.904235931250003,73.0,71.0
140,30.85584883125,30.928429481250003,65.0,58.0
141,30.852824637500003,30.972784322916667,68.0,68.0
142,30.847784314583336,30.988913356250002,61.0,68.0
143,31.07258271666667,31.126010139583336,49.0,76.0
144,29.4012116375,31.14516336666667,37.0,91.0
145,31.33971983125,31.58971984791667,63.0,65.0
146,31.34778434791667,31.610889204166668,60.0,54.0
147,31.322582733333334,31.636090818750002,56.0,74.0
148,31.83165534791667,31.995969875,63.0,61.0
149,31.84677631666667,32.006050520833334,60.0,47.0
150,31.83165534791667,32.01613116666667,56.0,61.0
151,31.331655314583333,32.36189731875,44.0,74.0
152,32.29637312083334,32.50605055416667,56.0,69.0
153,32.29637312083334,32.517139264583335,63.0,67.0
154,32.30645376666667,32.52621184583334,60.0,63.0
155,31.358873058333334,32.849800577083336,32.0,51.0
156,32.77822799166667,33.02923607291667,56.0,97.0
157,32.52923603958334,33.04435704166667,44.0,88.0
158,32.78629250833333,33.06955865625,60.0,81.0
159,32.78024412083334,33.098792529166666,63.0,83.0
160,32.91834896875,33.1149215625,32.0,91.0
161,31.331655314583333,33.11693769166667,68.0,71.0
162,33.24395382916667,33.520163525,32.0,92.0
163,33.732865152083335,34.035284527083334,32.0,81.0
164,33.248994152083334,34.11996195208334,60.0,75.0
165,34.214720022916666,34.540324883333334,32.0,90.0
166,34.343752289583335,34.55544585208334,60.0,1.0
167,33.248994152083334,34.63004263125,63.0,79.0
168,33.24395382916667,34.70967973333334,68.0,91.0
169,33.24395382916667,34.72076844375,56.0,95.0
170,33.24395382916667,34.81149425625,44.0,97.0
171,34.70665553958334,34.9838733,32.0,104.0
172,34.92036523125,34.98891362291667,44.0,67.0
173,35.19859105625,35.49496204375,47.0,94.0
174,35.18649428125,35.538308820833336,66.0,84.0
175,35.19859105625,35.56855075833334,63.0,80.0
176,35.68044592708333,35.892139489583336,47.0,65.0
177,35.65222011875,35.91734110416667,66.0,44.0
178,35.656252377083334,35.94758304166667,63.0,43.0
179,35.19859105625,35.97681691458334,59.0,87.0
180,36.18649434791667,36.391131458333334,47.0,65.0
181,36.17338950833334,36.442542752083334,66.0,74.0
182,36.1754056375,36.445566945833335,63.0,72.0
183,36.17338950833334,36.4536314625,59.0,69.0
184,35.20161525,36.70665567291667,35.0,95.0
185,36.623994377083335,36.88810729791667,59.0,91.0
186,36.8709702,36.91129278333334,35.0,96.0
187,35.19859105625,36.91230084791667,71.0,86.0
188,36.66633308958333,36.932462139583336,47.0,81.0
189,36.626010506250005,36.954639560416666,63.0,84.0
190,36.61996211875,36.955647625000005,66.0,82.0
191,37.14516376666667,37.308470229166666,68.0,55.0
192,37.110889570833336,37.464720239583336,49.0,100.0
193,37.134075056250005,37.51915572708334,65.0,56.0
194,37.12197828125,37.54435734166667,61.0,76.0
195,37.608873475,37.85786542708333,49.0,53.0
196,37.61996218541667,37.868954137500005,68.0,56.0
197,37.635083154166665,37.89818801041667,65.0,37.0
198,37.586696054166666,37.920365431250005,61.0,30.0
199,38.092744475,38.286292875,49.0,67.0
200,38.092744475,38.35685739583334,68.0,64.0
201,38.094760604166666,38.3649219125,65.0,53.0
202,38.08266382916667,38.37601062291667,61.0,71.0
203,37.17137344583333,38.58467999166667,73.0,47.0
204,37.11492182916667,38.61996225208333,37.0,104.0
205,38.54133321458333,38.66935741666667,68.0,78.0
206,38.54133321458333,38.68145419166667,65.0,74.0
207,38.54133321458333,38.706655806250005,61.0,92.0
208,38.547381602083334,38.81754291041667,49.0,84.0
209,38.79234129583334,38.833671943750005,37.0,72.0
210,39.04435744166667,39.314518750000005,63.0,77.0
211,39.04637357083333,39.31955907291667,44.0,75.0
212,39.05242195833333,39.339720364583336,60.0,67.0
213,39.037300989583336,39.3568574625,56.0,92.0
214,39.52419618333334,39.716736518750004,44.0,44.0
215,39.55645425,39.72984135833334,60.0,47.0
216,39.51915586041667,39.74798652083334,63.0,56.0
217,39.540325216666666,39.796373620833336,56.0,59.0
218,40.03528492708333,40.13004299791667,44.0,45.0
219,40.00806718333334,40.23286558541667,63.0,67.0
220,40.028228475,40.24294623125,60.0,63.0
221,40.021172022916666,40.250002683333335,56.0,71.0
222,40.536293025,40.58871238333334,44.0,52.0
223,39.037300989583336,40.760083362500005,68.0,87.0
224,40.49093011875,40.76713981458334,56.0,83.0
225,40.49697850625,40.782260783333335,60.0,67.0
226,40.49093011875,40.782260783333335,63.0,69.0
227,39.04133324791667,40.81754304375,32.0,84.0
228,40.732865618750004,40.835688206250005,44.0,95.0
229,40.99294628125,41.241938233333336,60.0,59.0
230,40.99294628125,41.25101081458334,44.0,67.0
231,40.97984144166667,41.25101081458334,63.0,64.0
232,40.986897893750005,41.284276945833334,56.0,76.0
233,41.50705921875,41.576615675,60.0,50.0
234,41.468752764583336,41.597785031250005,44.0,62.0
235,41.48286566875,41.65020438958334,63.0,59.0
236,41.47782534583334,41.674397939583336,56.0,61.0
237,41.95564795833334,42.03931731875,44.0,49.0
238,41.96673666875,42.0423415125,60.0,56.0
239,41.95060763541667,42.128027002083336,56.0,68.0
240,41.949599570833335,42.14314797083333,63.0,65.0
241,42.41028508541667,42.46774476666667,56.0,80.0
242,42.41935766666667,42.49093025208334,60.0,67.0
243,40.97984144166667,42.507059285416666,68.0,82.0
244,42.4173415375,42.509075414583336,44.0,69.0
245,42.4173415375,42.5504060625,63.0,69.0
246,40.99294628125,42.711696395833336,32.0,79.0
247,42.66734155416667,42.71472058958334,44.0,65.0
248,42.936494797916666,43.221777075,47.0,77.0
249,42.92843028125,43.22278513958334,66.0,78.0
250,42.938510927083335,43.238914172916665,59.0,81.0
251,42.92843028125,43.240930302083335,63.0,80.0
252,43.42943837916667,43.570567420833335,47.0,59.0
253,43.420365797916666,43.63609161875,66.0,61.0
254,43.42641418541667,43.649196458333336,63.0,64.0
255,43.4334706375,43.68951904166667,59.0,63.0
256,43.93851099375,44.06451906666667,47.0,69.0
257,43.923390025,44.1350835875,63.0,72.0
258,43.923390025,44.151212620833334,66.0,73.0
259,43.92843034791667,44.153228750000004,59.0,80.0
260,42.94455931458334,44.50302716041667,35.0,80.0
261,42.936494797916666,44.509075547916666,71.0,82.0
262,44.40020457291667,44.52419651666667,59.0,87.0
263,44.409277154166666,44.53125296875,66.0,80.0
264,44.40423683125,44.559478777083335,63.0,84.0
265,44.62097071666667,44.662301364583335,35.0,83.0
266,44.44153522083334,44.68145459166667,47.0,79.0
267,44.89314815416667,45.141132041666665,65.0,66.0
268,44.891132025000005,45.144156235416666,68.0,71.0
269,44.886091702083334,45.181454625,49.0,84.0
270,44.87903525,45.18951914166667,61.0,84.0
271,45.38407560625,45.475809483333336,65.0,56.0
272,45.35988205625,45.5322611,49.0,65.0
273,45.366938508333334,45.549398197916666,68.0,64.0
274,45.36492237916667,45.56451916666667,61.0,67.0
275,45.83871273333334,46.003027260416665,49.0,69.0
276,45.856857895833336,46.052422425,65.0,66.0
277,45.83770466875,46.05746274791667,68.0,76.0
278,45.83770466875,46.059478877083336,61.0,81.0
279,44.87903525,46.37802728541667,37.0,88.0
280,44.87903525,46.391132125000006,73.0,82.0
281,46.31451921666667,46.431454708333334,68.0,82.0
282,46.318551475,46.437503095833335,65.0,73.0
283,46.307462764583335,46.464720839583336,61.0,88.0
284,46.318551475,46.56552729791667,49.0,74.0
285,46.55040632916667,46.584680525,37.0,84.0
286,46.8084708625,47.05343055625,60.0,62.0
287,46.80343053958334,47.0625031375,63.0,67.0
288,46.788309570833334,47.08165636458334,56.0,81.0
289,46.796374087500006,47.08871281666667,44.0,79.0
290,47.28931766875,47.38105154583334,44.0,65.0
291,47.33871283333333,47.44355155,60.0,34.0
292,47.28326928125,47.447583808333334,56.0,59.0
293,47.28528541041667,47.45766445416667,63.0,53.0
294,47.77520479791667,47.86492254583334,44.0,63.0
295,47.782261250000005,47.86593061041667,60.0,54.0
296,47.77520479791667,47.94455964791667,63.0,62.0
297,47.76512415208334,47.95464029375,56.0,71.0
298,48.241938700000006,48.442543552083336,56.0,88.0
299,46.788309570833334,48.46169677916667,68.0,78.0
300,48.25101128125,48.48286613541667,60.0,75.0
301,48.25101128125,48.488914522916666,63.0,76.0
302,46.796374087500006,48.55242259166667,32.0,84.0
303,48.47076936041667,48.58871291666667,44.0,88.0
304,48.73387421666667,49.01814842916667,60.0,63.0
305,48.74597099166667,49.022180687500004,63.0,65.0
306,48.72782582916667,49.04133391458333,56.0,84.0
307,48.72782582916667,49.05343068958334,44.0,83.0
308,49.224801668750004,49.29536618958333,60.0,49.0
309,49.21875328125,49.301414577083335,44.0,63.0
310,49.21371295833334,49.3125032875,56.0,77.0
311,49.21169682916667,49.33266457916667,63.0,69.0
312,49.69254363541667,49.75907589791667,44.0,63.0
313,49.703632345833334,49.76814847916667,60.0,56.0
314,49.69254363541667,49.77621299583333,56.0,75.0
315,49.69254363541667,49.84173719375,63.0,67.0
316,50.18246302291667,50.23488238125,56.0,81.0
317,50.19455979791667,50.25504367291667,60.0,67.0
318,48.722785506250005,50.287301739583334,68.0,83.0
319,48.720769377083336,50.30242270833334,32.0,91.0
320,50.19455979791667,50.31855174166667,63.0,72.0
321,50.422382393750006,50.473793687500006,32.0,77.0
322,50.186495281250004,50.47681788125,44.0,79.0
323,50.68347112083334,50.97177759166667,66.0,78.0
324,50.68347112083334,50.97984210833334,59.0,88.0
325,50.68951950833333,50.9818582375,63.0,81.0
326,50.68347112083334,50.994963077083334,47.0,83.0
327,51.16633405625,51.356858262500005,47.0,67.0
328,51.173390508333334,51.356858262500005,63.0,69.0
329,51.157261475000006,51.375003425,59.0,67.0
330,51.153229216666666,51.379035683333335,66.0,66.0
331,51.659277637500004,51.85080990833334,59.0,75.0
332,51.659277637500004,51.85080990833334,63.0,72.0
333,51.659277637500004,51.862906683333335,66.0,74.0
334,51.663309895833336,51.89919700833334,47.0,67.0
335,50.68951950833333,52.22379380416667,71.0,82.0
336,52.144156702083336,52.23387445,59.0,87.0
337,50.68951950833333,52.2520196125,35.0,84.0
338,52.144156702083336,52.26310832291667,66.0,87.0
339,52.14718089583334,52.2641163875,63.0,87.0
340,52.144156702083336,52.42641478541667,47.0,80.0
341,52.366938975000004,52.43044704375,35.0,79.0
342,52.63810834791667,52.8931486875,68.0,73.0
343,52.643148670833334,52.89818901041667,65.0,67.0
344,52.63810834791667,52.924398689583334,37.0,91.0
345,53.130043864583335,53.29536645625,65.0,48.0
346,53.11794708958334,53.29738258541667,68.0,62.0
347,53.10080999166667,53.308471295833336,37.0,75.0
348,52.627019637500005,53.36895517083334,61.0,88.0
349,53.583672927083335,53.767140681250005,37.0,67.0
350,53.59879389583334,53.77419713333334,65.0,55.0
351,53.585689056250004,53.79939874791667,68.0,70.0
352,53.588713250000005,53.8366971375,61.0,68.0
353,52.63810834791667,54.11693909166667,49.0,92.0
354,52.627019637500005,54.11693909166667,73.0,86.0
355,54.072584250000006,54.1391165125,65.0,62.0
356,54.066535862500004,54.15625361041667,68.0,71.0
357,54.060487475,54.196576193750005,61.0,80.0
358,54.048390700000006,54.36089072083334,37.0,81.0
359,54.2842778125,54.369963302083335,49.0,94.0
360,54.569560089583334,54.80645526666667,60.0,59.0
361,54.56451976666667,54.807463331250005,63.0,67.0
362,54.553431056250005,54.83669720416667,44.0,87.0
363,54.54234234583333,54.84576978541667,56.0,81.0
364,55.02419721666667,55.164318193750006,44.0,63.0
365,55.077624639583334,55.18951980833334,60.0,33.0
366,55.026213345833334,55.19456013125,56.0,61.0
367,55.02117302291667,55.209681100000005,63.0,53.0
368,55.50403595833333,55.57460047916667,44.0,68.0
369,55.518148862500006,55.718753714583336,56.0,80.0
370,55.518148862500006,55.72782629583334,63.0,69.0
371,55.52117305625,55.72883436041667,60.0,65.0
372,54.549398797916666,55.87601178958334,32.0,92.0
373,55.73387468333333,56.05242309166667,44.0,97.0
374,55.996979539583336,56.147181162500004,56.0,80.0
375,56.00806825,56.20060858541667,60.0,67.0
376,54.545366539583334,56.23589084583334,68.0,80.0
377,56.00302792708334,56.271173106250004,63.0,74.0
378,56.2318585875,56.27822955833334,44.0,97.0
379,55.966737602083334,56.29536665625,32.0,74.0
380,56.501011831250004,56.79234249583334,60.0,68.0
381,56.4979876375,56.794358625,63.0,71.0
382,56.49496344375,56.830648950000004,56.0,88.0
383,56.501011831250004,56.86290701666667,44.0,90.0
384,56.982866702083335,57.04939896458334,63.0,58.0
385,56.96673766875,57.06250380416667,44.0,51.0
386,56.99899573541667,57.07762477291667,60.0,42.0
387,56.96472153958334,57.13004413125,56.0,52.0
388,57.4536328625,57.512100608333334,44.0,57.0
389,57.4536328625,57.53730222291667,60.0,59.0
390,57.44355221666667,57.60181835625,63.0,59.0
391,57.438511893750004,57.61593126041667,56.0,72.0
392,57.90322966666667,57.96270547708334,56.0,81.0
393,57.917342570833334,57.9677458,60.0,65.0
394,56.49496344375,57.99193935,68.0,86.0
395,56.48790699166667,57.99496354375,32.0,90.0
396,57.91028611875,58.01915709375,63.0,69.0
397,58.13508452083334,58.174399039583335,32.0,80.0
398,57.90524579583334,58.18044742708334,44.0,85.0
399,58.40524582916667,58.6996006875,47.0,75.0
400,58.40524582916667,58.6996006875,66.0,82.0
401,58.40524582916667,58.714721656250006,63.0,83.0
402,58.409278087500006,58.71673778541667,59.0,88.0
403,58.885084570833335,59.044358775000006,47.0,67.0
404,58.885084570833335,59.066536195833336,66.0,67.0
405,58.885084570833335,59.07762490625,63.0,57.0
406,58.885084570833335,59.07863297083333,59.0,67.0
407,59.368955570833336,59.541334614583334,47.0,69.0
408,59.367947506250005,59.56149590625,63.0,80.0
409,59.367947506250005,59.567544293750004,59.0,79.0
410,59.367947506250005,59.573592681250005,66.0,74.0
411,59.85585076458334,60.06250400416667,59.0,87.0
412,58.41331034583334,60.102826587500005,71.0,84.0
413,59.86593141041667,60.11593142708334,63.0,79.0
414,59.8608910875,60.11593142708334,66.0,75.0
415,60.08669755416667,60.13609271875,47.0,90.0
416,58.41331034583334,60.151213687500004,35.0,77.0
417,60.353834668750004,60.58266532916667,68.0,78.0
418,60.353834668750004,60.60383468541667,65.0,68.0
419,60.34677821666667,60.65121372083333,37.0,92.0
420,60.34274595833334,60.69052823958334,61.0,92.0
421,60.838713733333336,61.022181487500006,68.0,54.0
422,60.82460082916667,61.02419761666667,37.0,72.0
423,60.861899218750004,61.040326650000004,65.0,49.0
424,61.3366976375,61.51714119791667,65.0,45.0
425,61.31754441041667,61.51714119791667,68.0,64.0
426,60.8044395375,61.56452023333333,61.0,58.0
427,60.34274595833334,61.59879442916667,49.0,91.0
428,61.31452021666667,61.83568960625,37.0,69.0
429,60.34274595833334,61.900205739583335,73.0,91.0
430,61.81250412083334,61.947584775,68.0,71.0
431,61.81754444375,61.95766542083334,65.0,58.0
432,61.802423475000005,61.99395574583334,61.0,79.0
433,62.01915736041667,62.059479943750006,37.0,87.0
434,61.802423475000005,62.06552833125,49.0,92.0
435,62.29839125,62.561496106250004,63.0,71.0
436,62.30645576666667,62.56653642916667,60.0,65.0
437,62.29032673333334,62.585689656250004,56.0,85.0
438,62.29032673333334,62.600810625,44.0,97.0
439,62.81754451041667,62.889117095833335,60.0,49.0
440,62.79536708958334,62.92339129166667,56.0,63.0
441,62.79738321875001,62.9334719375,63.0,62.0
442,62.786294508333334,63.28831067083333,44.0,69.0
443,62.29839125,63.49093165208333,68.0,70.0
444,63.2600848625,63.50605262083334,56.0,72.0
445,63.26613325,63.50806875,63.0,67.0
446,63.275205831250005,63.52218165416667,60.0,59.0
447,62.29032673333334,63.729842958333336,32.0,102.0
448,63.49496391041667,63.78831070416667,44.0,100.0
449,63.8165365125,63.93649619791667,32.0,79.0
450,63.74899618541667,64.01915749375,60.0,69.0
451,63.74093166875,64.02520588125,56.0,95.0
452,63.74093166875,64.06653652916667,68.0,92.0
453,63.74496392708333,64.07056878750001,63.0,76.0
454,63.94758490833333,64.08770588541667,44.0,95.0
455,64.03226233333334,64.08871395,32.0,77.0
456,64.23891557291667,64.56149623958333,63.0,88.0
457,64.23891557291667,64.57157688541668,60.0,79.0
458,64.22379460416667,64.5967785,56.0,102.0
459,64.23286718541667,64.60383495208333,44.0,104.0
460,64.23891557291667,65.94960117083333,32.0,102.0
461,64.22681879791666,65.96169794583334,68.0,94.0
462,66.18347215416667,67.7116980625,71.0,66.0
463,66.18347215416667,67.71875451458334,75.0,83.0
464,66.18347215416667,67.73185935416667,78.0,86.0
465,66.18347215416667,67.98185937083333,59.0,74.0
466,68.11895615416667,69.52520624791667,80.0,71.0
467,68.11895615416667,69.53125463541667,73.0,76.0
468,68.11895615416667,69.53931915208334,77.0,75.0
469,68.11895615416667,69.57560947708333,61.0,65.0
470,70.05444015416667,70.10786757708334,63.0,63.0
471,70.05444015416667,70.12702080416668,56.0,60.0
472,70.05444015416667,70.13810951458333,60.0,87.0
473,70.05444015416667,70.14617403125,44.0,77.0
474,70.29637565416667,70.33871436666666,63.0,69.0
475,70.29637565416667,70.35887565833333,56.0,61.0
476,70.29637565416667,70.37198049791667,60.0,98.0
477,70.29637565416667,70.38306920833334,44.0,73.0
478,70.53831115416666,70.58165793125,63.0,69.0
479,70.53831115416666,70.60887567500001,60.0,104.0
480,70.53831115416666,70.61189986875,56.0,65.0
481,70.53831115416666,70.62903696666667,44.0,81.0
482,70.78024665416667,70.82258536666667,63.0,72.0
483,70.78024665416667,70.85585149791667,56.0,67.0
484,70.78024665416667,70.85786762708334,60.0,108.0
485,70.78024665416667,70.87298859583333,44.0,77.0
486,71.02218215416667,71.06452086666667,63.0,74.0
487,71.02218215416667,71.09073054583334,56.0,67.0
488,71.02218215416667,71.09677893333334,60.0,108.0
489,71.02218215416667,71.10988377291667,44.0,81.0
490,71.26411765416667,71.30544830208333,63.0,71.0
491,71.26411765416667,71.334682175,56.0,65.0
492,71.26411765416667,71.33770636875,60.0,108.0
493,71.26411765416667,71.35484346666667,44.0,87.0
494,71.50605315416666,71.55645638333334,63.0,77.0
495,71.50605315416666,71.57460154583333,56.0,68.0
496,71.50605315416666,71.58165799791666,60.0,111.0
497,71.50605315416666,71.62702090416667,44.0,90.0
498,71.74798865416668,71.79536768958333,63.0,90.0
499,71.74798865416668,71.81048865833334,56.0,83.0
500,71.74798865416668,71.8125047875,60.0,114.0
501,71.74798865416668,71.84073059583334,44.0,93.0
502,71.95867415208333,72.27520643125,68.0,89.0
503,71.95867415208333,72.28629514166667,59.0,90.0
504,71.95867415208333,72.28831127083333,56.0,84.0
505,71.95867415208333,72.302424175,63.0,85.0
506,71.96472253958333,72.31552901458333,44.0,76.0
507,72.51714193125001,72.57863387083334,30.0,53.0
508,72.47480321875,72.70464194375,68.0,83.0
509,72.53327096458334,72.713714525,32.0,50.0
510,72.4838758,72.73085162291667,63.0,83.0
511,72.4778274125,72.737908075,59.0,79.0
512,72.52319031875,72.75101291458334,44.0,35.0
513,72.94960163750001,73.05746454791667,44.0,72.0
514,72.94960163750001,73.19254520208334,68.0,83.0
515,72.94960163750001,73.20161778333333,59.0,84.0
516,72.94960163750001,73.21371455833334,63.0,71.0
517,72.94355325000001,73.43750489583334,32.0,79.0
518,73.18649681458334,73.548392,44.0,90.0
519,73.43448070208333,73.56351296875,68.0,99.0
520,73.43750489583334,73.57762587291667,59.0,95.0
521,73.43448070208333,73.61089200416667,63.0,87.0
522,73.52923877291667,73.73690007708333,32.0,76.0
523,73.65423878125,73.74294846458334,44.0,75.0
524,73.92540815416667,74.19456139791667,61.0,71.0
525,73.92036783125,74.19960172083334,66.0,80.0
526,73.92036783125,74.20161785,58.0,79.0
527,73.92540815416667,74.52117432291666,42.0,88.0
528,74.39214205625001,74.62702110416667,61.0,80.0
529,74.39214205625001,74.63609368541667,66.0,86.0
530,74.39214205625001,74.64617433125001,58.0,92.0
531,74.63004529791667,74.94052918958333,42.0,69.0
532,74.87298886250001,75.1028275875,66.0,83.0
533,74.87298886250001,75.10988403958333,61.0,81.0
534,74.87298886250001,75.11694049166667,58.0,87.0
535,73.91431944375,75.32560986041668,30.0,88.0
536,75.35181953958333,75.42742438333333,61.0,81.0
537,75.35181953958333,75.4657308375,58.0,97.0
538,75.10585178125001,75.48085180625,42.0,97.0
539,75.34677921666668,75.48690019375,66.0,92.0
540,75.57056955416667,75.61895665416667,42.0,74.0
541,75.44960180416668,75.62500504166667,30.0,83.0
542,75.82056957083334,76.12399701041667,56.0,87.0
543,75.83065021666667,76.12399701041667,61.0,76.0
544,75.83065021666667,76.13810991458334,65.0,78.0
545,76.31754541041667,76.54536800625,56.0,90.0
546,76.31956153958333,76.54637607083333,61.0,75.0
547,76.31552928125001,76.57157768541667,65.0,79.0
548,75.81351311875001,76.86794867291667,49.0,90.0
549,76.82258576666668,77.06956158958334,56.0,102.0
550,76.82258576666668,77.07762610625001,61.0,84.0
551,76.82258576666668,77.09577126875,65.0,83.0
552,75.81855344166667,77.29133579791667,37.0,88.0
553,77.03427932916667,77.39919870833334,49.0,99.0
554,77.29637612083334,77.49698097291667,61.0,85.0
555,77.29032773333334,77.504037425,56.0,102.0
556,77.28831160416667,77.53931968541667,65.0,86.0
557,77.39012612708333,77.5463761375,37.0,69.0
558,77.50806968333333,77.60181968958334,49.0,61.0
559,77.78931970208333,78.04335197708333,44.0,68.0
560,77.7762148625,78.07460197916667,63.0,77.0
561,77.77419873333334,78.07661810833334,56.0,85.0
562,77.78024712083334,78.07762617291667,59.0,74.0
563,78.28024715416667,78.48286813541667,56.0,88.0
564,78.28226328333334,78.49194071666668,59.0,77.0
565,78.27621489583333,78.49395684583334,63.0,75.0
566,78.11190036875,78.78931976875,44.0,77.0
567,78.73286815208334,78.96673913541667,56.0,85.0
568,78.73286815208334,78.9677472,63.0,77.0
569,78.737908475,78.97883591041668,59.0,76.0
570,78.97177945833333,79.22480366875,44.0,99.0
571,77.77419873333334,79.318553675,32.0,76.0
572,79.21472302291667,79.44859400625,63.0,85.0
573,79.21472302291667,79.4516182,56.0,92.0
574,79.21472302291667,79.45262626458334,59.0,83.0
575,79.31048915833334,79.49496497708334,44.0,69.0
576,79.42339239166667,79.5181504625,32.0,75.0
577,79.68448111875,79.96774726666668,63.0,87.0
578,79.68044886041667,79.971779525,56.0,90.0
579,79.68448111875,79.971779525,59.0,77.0
580,79.67641660208334,80.262102125,44.0,84.0
581,80.19355373333333,80.45061020208334,56.0,84.0
582,80.19355373333333,80.45766665416667,63.0,76.0
583,80.19456179791668,80.46976342916668,59.0,71.0
584,80.431456975,80.75101344791668,44.0,95.0
585,80.69456183125,80.93145700833334,56.0,88.0
586,80.69859408958334,80.939521525,59.0,81.0
587,80.69657796041668,80.94355378333334,63.0,84.0
588,80.91835216875,81.17339250833334,44.0,90.0
589,79.67843273125,81.25202154583334,32.0,94.0
590,81.16633605625,81.35887639166667,56.0,92.0
591,81.17238444375,81.35887639166667,59.0,79.0
592,81.16331186250001,81.38306994166668,63.0,80.0
593,81.26210219166667,81.45766672083333,44.0,72.0
594,81.38508607083334,81.48286833541667,32.0,84.0
595,81.63911834583334,81.90423933125001,66.0,92.0
596,81.63911834583334,81.91633610625,61.0,83.0
597,81.63911834583334,81.92339255833333,30.0,92.0
598,81.63911834583334,81.92540868750001,58.0,87.0
599,81.63911834583334,82.02923933958334,42.0,94.0
600,82.13004579791667,82.36794903958334,30.0,77.0
601,82.13004579791667,82.37399742708334,66.0,82.0
602,82.13004579791667,82.39214258958334,61.0,67.0
603,82.13508612083334,82.39617484791667,58.0,72.0
604,82.11694095833333,82.73790874166667,42.0,47.0
605,82.62097325,82.87298939583334,66.0,91.0
606,82.62601357291668,82.89415875208334,58.0,88.0
607,82.62601357291668,82.899199075,61.0,79.0
608,82.61593292708334,83.0746023125,30.0,88.0
609,82.84778778125,83.20262651458334,42.0,72.0
610,83.08669908750001,83.35786846041667,58.0,94.0
611,83.31452168333334,83.36290878333334,42.0,74.0
612,83.08669908750001,83.36593297708333,61.0,81.0
613,83.08468295833333,83.37399749375001,66.0,99.0
614,83.18246522291668,83.38004588125,30.0,80.0
615,83.63307009166667,83.70766687083334,63.0,46.0
616,83.60887654166667,83.87097333333334,68.0,87.0
617,83.61190073541667,83.89315075416667,56.0,72.0
618,83.60081202500001,83.89516688333333,49.0,106.0
619,84.07057012083334,84.23186045416666,49.0,83.0
620,84.07561044375001,84.31149755625,61.0,72.0
621,84.07561044375001,84.32359433125,65.0,71.0
622,84.06250560416667,84.32359433125,68.0,80.0
623,84.06250560416667,84.34677981666667,56.0,94.0
624,84.55343305625,84.75101371458334,68.0,74.0
625,84.54738466875,84.79839275,61.0,74.0
626,84.55343305625,84.80343307291668,65.0,76.0
627,84.54335241041667,84.8044411375,56.0,91.0
628,84.78730403958333,85.06351373541668,49.0,102.0
629,83.60887654166667,85.13307019166668,37.0,97.0
630,85.04133631458333,85.18952180833334,68.0,86.0
631,85.03932018541667,85.23589277916668,61.0,74.0
632,85.03125566875,85.245973425,56.0,100.0
633,85.0342798625,85.245973425,65.0,78.0
634,85.13206212708334,85.31149762291668,49.0,79.0
635,85.26915891041666,85.31754601041668,37.0,83.0
636,85.55040892916666,85.79536862291667,63.0,72.0
637,85.54032828333334,85.80645733333334,68.0,87.0
638,85.55040892916666,85.81653797916667,56.0,85.0
639,85.55242505833334,85.81855410833333,59.0,71.0
640,85.55040892916666,85.8568605625,44.0,85.0
641,86.02419928333333,86.23790897500001,63.0,59.0
642,86.020167025,86.25000575,68.0,76.0
643,86.020167025,86.262102525,59.0,59.0
644,86.02419928333333,86.26311058958333,44.0,91.0
645,86.020167025,86.2681509125,56.0,83.0
646,86.48891705625,86.56552996458333,44.0,77.0
647,86.48085253958334,86.68347352083333,63.0,67.0
648,86.48085253958334,86.69456223125,56.0,88.0
649,86.48891705625,86.69557029583333,59.0,67.0
650,86.47278802291667,86.697586425,68.0,86.0
651,86.70161868333334,86.99294934791666,44.0,94.0
652,85.54032828333334,87.12097355,32.0,94.0
653,86.96472353958333,87.18851387708334,68.0,97.0
654,86.96673966875001,87.20363484583334,59.0,76.0
655,86.96472353958333,87.205650975,56.0,104.0
656,86.96472353958333,87.20867516875,63.0,80.0
657,87.10484451666667,87.26311065625,44.0,75.0
658,87.19859452291666,87.28024775416667,32.0,83.0
659,87.47379615416668,87.64214293958334,68.0,76.0
660,87.71573165416667,87.97178005833334,73.0,87.0
661,87.95766715416667,88.18347362083334,72.0,85.0
662,88.07863490416668,88.23085265625001,68.0,75.0
663,88.44153815416666,88.57661880833334,73.0,95.0
664,87.47379615416668,89.26008659583334,44.0,83.0
665,88.68347365416668,89.36089305416667,68.0,98.0
666,89.65121565416668,89.93347373750001,73.0,83.0
667,89.89315115416667,90.19254633541667,68.0,61.0
668,90.13508665416667,90.31351408541667,63.0,60.0
669,90.37702215416667,90.6774254,75.0,64.0
670,90.61895765416666,91.09678026666667,68.0,63.0
671,90.61895765416666,91.125006075,63.0,83.0
672,89.40928015416667,91.32258673333334,47.0,100.0
673,91.10282865416667,91.34073189583334,73.0,76.0
674,91.58669965416667,91.8871029,73.0,76.0
675,91.82863515416668,92.11996581875,68.0,74.0
676,92.07057065416667,92.21674001875,63.0,74.0
677,92.31250615416667,92.47682068125,73.0,85.0
678,92.31250615416667,92.59980456041667,78.0,86.0
679,92.55444165416667,92.73891747291667,87.0,64.0
680,92.55444165416667,92.83065135000001,68.0,79.0
681,92.67540940416667,92.87399812708334,85.0,75.0
682,92.79637715416668,92.89315135416668,84.0,104.0
683,92.55444165416667,92.91129651666667,71.0,69.0
684,91.34476415416667,93.1028287875,49.0,90.0
685,92.91734490416667,93.12903846666667,75.0,74.0
686,93.03831265416667,93.22782879583333,73.0,72.0
687,93.15928040416667,93.30645783333334,72.0,63.0
688,93.14718362916668,93.33165944791668,87.0,64.0
689,93.28024815416667,93.41230461458333,68.0,79.0
690,93.26815137916667,93.46674010208334,85.0,75.0
691,93.38911912916667,93.48589332916667,84.0,104.0
692,93.51008687916666,93.72178044166667,75.0,74.0
693,93.63105462916667,93.82057077083334,73.0,72.0
694,93.75202237916668,93.89919980833334,72.0,63.0
695,93.87299012916667,94.00504658958334,68.0,79.0
696,94.02117562291667,94.20565144166667,75.0,64.0
697,94.14214337291668,94.34073209583333,73.0,75.0
698,94.26311112291667,94.35988532291667,72.0,104.0
699,94.38407887291667,94.59577243541668,63.0,74.0
700,93.28024815416667,94.64214340625,44.0,95.0
701,94.50504662291667,94.69456276458334,61.0,72.0
702,94.62601437291667,94.77319180208333,60.0,63.0
703,94.74698212291668,94.87903858333334,56.0,79.0
704,94.73186115416667,95.0987966625,44.0,90.0
705,95.15827247291666,95.38206281041667,32.0,63.0
706,95.189522475,95.40222410208334,60.0,50.0
707,95.16835311875,95.41633700625,63.0,63.0
708,95.16432086041667,95.51411927083333,56.0,68.0
709,95.65827250625,95.76109509375,32.0,47.0
710,95.697587025,95.79940154791667,60.0,30.0
711,95.64718379583334,95.80141767708334,63.0,38.0
712,95.6431515375,95.88004671458334,56.0,39.0
713,96.17540963750001,96.27520803125,60.0,41.0
714,96.14315157083334,96.32460319583333,56.0,51.0
715,96.14315157083334,96.34778868125001,63.0,55.0
716,96.15020802291667,96.39617578125001,32.0,50.0
717,95.16432086041667,96.50504675625001,68.0,68.0
718,96.64819192708333,96.81351451875001,56.0,87.0
719,96.66331289583334,96.81956290625,60.0,71.0
720,96.65020805625001,96.86895807083334,63.0,72.0
721,96.63911934583334,96.89819194375,68.0,70.0
722,96.8709742,96.91633710625,32.0,67.0
723,95.16835311875,96.93750646250001,44.0,55.0
724,97.14718389583334,97.38710326666667,66.0,68.0
725,97.15625647708333,97.41129681666668,59.0,80.0
726,97.15625647708333,97.43347423750001,63.0,59.0
727,97.15625647708333,97.48589359583333,35.0,71.0
728,97.62097425,97.77924038958334,66.0,57.0
729,97.63710328333333,97.78125651875,35.0,45.0
730,97.63710328333333,97.83165974791667,59.0,34.0
731,97.63206296041668,97.8326678125,63.0,47.0
732,98.11795008958333,98.26109526041667,35.0,54.0
733,98.11795008958333,98.30948236041667,66.0,55.0
734,98.10988557291667,98.32964365208333,63.0,58.0
735,98.12399847708333,98.33065171666667,59.0,61.0
736,97.14718389583334,98.64113560833334,47.0,69.0
737,97.15625647708333,98.65524851250001,71.0,75.0
738,98.59678076666667,98.70061141875,59.0,76.0
739,98.59678076666667,98.75101464791668,63.0,68.0
740,98.60182108958334,98.76109529375,66.0,74.0
741,98.58871625,98.85887755833333,35.0,83.0
742,98.81250658750001,98.89315175416667,47.0,91.0
743,99.08165983125001,99.33670017083334,68.0,70.0
744,99.08165983125001,99.33770823541667,65.0,62.0
745,99.06250660416667,99.36089372083333,61.0,81.0
746,99.07460337916667,99.45766792083334,37.0,88.0
747,99.55343405625,99.67238567708334,37.0,45.0
748,99.57863567083334,99.68750664583334,65.0,38.0
749,99.55343405625,99.72581310000001,68.0,49.0
750,99.55343405625,99.74698245625001,61.0,53.0
751,99.06754692708334,100.11795022291668,49.0,90.0
752,100.04436150833334,100.1673453875,65.0,47.0
753,99.06754692708334,100.18448248541667,73.0,79.0
754,100.01714376458334,100.1915389375,61.0,56.0
755,100.02722441041666,100.2036357125,68.0,62.0
756,100.01714376458334,100.53226476666667,37.0,63.0
757,100.50807121666668,100.64012767708334,68.0,73.0
758,100.50403895833334,100.64012767708334,73.0,95.0
759,100.51613573333334,100.65020832291667,65.0,61.0
760,100.50807121666668,100.66532929166667,61.0,88.0
761,100.28226475000001,100.78226478333333,49.0,75.0
762,100.73992607083333,100.78730510625,37.0,67.0
763,101.00303092708334,101.21573255416668,63.0,69.0
764,100.99093415208334,101.23690191041668,56.0,84.0
765,101.0141196375,101.23891803958334,60.0,59.0
766,101.00303092708334,101.33266804583334,32.0,69.0
767,101.49799063750001,101.57762773958333,32.0,36.0
768,101.50202289583333,101.60383741875,63.0,50.0
769,101.5161358,101.60484548333334,60.0,34.0
770,101.50807128333334,101.68750677916667,56.0,38.0
771,101.98690196041667,102.06452293333334,60.0,45.0
772,101.963716475,102.11291003333334,56.0,53.0
773,101.96170034583334,102.11694229166667,63.0,52.0
774,101.95061163541668,102.40323263333333,32.0,56.0
775,102.20061165208334,102.40323263333333,32.0,79.0
776,101.00303092708334,102.46472457291667,44.0,61.0
777,102.44557134583334,102.46472457291667,44.0,81.0
778,102.56049070833333,102.63105522916668,32.0,80.0
779,102.42036973125,102.6471842625,56.0,68.0
780,100.98992608750001,102.65827297291668,68.0,84.0
781,102.41331327916667,102.68649878125001,63.0,67.0
782,102.42541005416668,102.68750684583334,60.0,62.0
783,102.64416006875001,102.72682136458334,44.0,92.0
784,102.67339394166667,102.72682136458334,44.0,68.0
785,102.92843428125,103.15625687708334,60.0,61.0
786,102.91633750625,103.16432139375,63.0,59.0
787,102.91936170000001,103.18448268541667,56.0,74.0
788,102.91432137708334,103.21573268750001,44.0,75.0
789,103.39214398958333,103.49295044791667,44.0,62.0
790,103.41532947500001,103.51411980416667,60.0,39.0
791,103.38105527916667,103.55645851666667,63.0,53.0
792,103.37500689166667,103.55948271041667,56.0,62.0
793,103.88811176458334,103.96270854375001,44.0,50.0
794,102.91028911875,104.1229908125,68.0,83.0
795,103.87601498958334,104.14012791041667,56.0,61.0
796,103.90928112083334,104.14012791041667,60.0,47.0
797,103.88407950625,104.14819242708334,63.0,58.0
798,102.91432137708334,104.213716625,32.0,87.0
799,104.36190211875001,104.48589406250001,56.0,88.0
800,104.36895857083334,104.4979908375,60.0,68.0
801,104.36190211875001,104.53125696875,63.0,67.0
802,104.35484566666668,104.56049084166668,68.0,91.0
803,104.57561181041667,104.63004729791668,32.0,76.0
804,104.11593436041667,104.64718439583334,44.0,68.0
805,104.85282957083334,105.12097475,66.0,80.0
806,104.8548457,105.13206346041667,59.0,84.0
807,104.8548457,105.14214410625,63.0,76.0
808,105.34879734583333,105.544361875,59.0,65.0
809,105.34879734583333,105.55343445625,63.0,57.0
810,105.34879734583333,105.55645865000001,66.0,63.0
811,104.85282957083334,105.95565222500001,47.0,79.0
812,104.8608940875,106.11291030000001,35.0,79.0
813,105.84980544375,106.12097481666667,59.0,72.0
814,105.84174092708334,106.12601513958334,66.0,75.0
815,105.84980544375,106.13307159166668,63.0,72.0
816,104.85887795833334,106.149200625,71.0,82.0
817,106.0826683625,106.391136125,47.0,85.0
818,106.32762805625,106.45464419375,59.0,97.0
819,106.32762805625,106.47379742083334,71.0,93.0
820,106.32762805625,106.49194258333334,63.0,83.0
821,106.32762805625,106.49597484166667,66.0,83.0
822,106.33871676666668,106.57561194375,35.0,88.0
823,106.54637807083334,106.59778936458333,47.0,59.0
824,106.81452325000001,107.01815229583333,68.0,76.0
825,106.81452325000001,107.03226520000001,37.0,79.0
826,106.82057163750001,107.03226520000001,65.0,66.0
827,107.31956360625,107.42339425833333,65.0,18.0
828,107.29133779791667,107.42742651666667,37.0,41.0
829,107.28528941041667,107.43649909791667,68.0,41.0
830,106.81452325000001,107.52117652291668,61.0,83.0
831,106.81452325000001,107.85182170625,49.0,72.0
832,107.80948299375001,107.90524912916668,65.0,43.0
833,107.77117653958334,107.94053138958334,61.0,46.0
834,107.78428137916667,107.94859590625,68.0,55.0
835,106.80444260416667,107.94859590625,73.0,87.0
836,107.76714428125001,108.28831367083333,37.0,68.0
837,108.24899915208334,108.40222496875,73.0,99.0
838,108.25303141041667,108.41633787291667,68.0,86.0
839,108.25101528125,108.42238626041667,61.0,97.0
840,108.25907979791667,108.42541045416667,65.0,70.0
841,108.42742658333334,108.47581368333334,37.0,61.0
842,108.0181523625,108.48589432916667,49.0,88.0
843,108.75807176666667,108.96875726458335,63.0,67.0
844,108.76412015416668,108.97480565208333,60.0,61.0
845,108.74899918541668,108.99496694375,56.0,81.0
846,108.76008789583334,109.01714436458334,44.0,68.0
847,109.24799115416667,109.31956373958334,60.0,45.0
848,109.22984599166668,109.36291051666667,56.0,51.0
849,109.22984599166668,109.39315245416667,63.0,51.0
850,109.21976534583334,109.70464441041668,44.0,49.0
851,108.74496692708334,109.84879764583334,68.0,79.0
852,109.70363634583335,109.87299119583334,56.0,64.0
853,109.71270892708334,109.90222506875,60.0,59.0
854,109.70363634583335,109.91028958541668,63.0,65.0
855,108.75101531458334,110.09778959791667,32.0,79.0
856,109.92843474791667,110.25504767291667,44.0,106.0
857,110.25504767291667,110.38609606875,32.0,102.0
858,110.38105574583334,110.47480575208334,44.0,83.0
859,110.18649928125001,110.51210414166667,60.0,65.0
860,110.17541057083334,110.52520898125,56.0,97.0
861,110.17541057083334,110.54032995,68.0,89.0
862,110.18649928125001,110.54738640208333,63.0,71.0
863,110.65928157083334,110.96875739791668,63.0,62.0
864,110.65928157083334,111.00706385208333,32.0,63.0
865,110.68347512083334,111.00706385208333,60.0,51.0
866,110.64718479583334,111.06754772708334,56.0,79.0
867,111.13912031250001,111.29436225833334,63.0,52.0
868,111.13004773125,111.33871710000001,60.0,40.0
869,111.10484611666668,111.36593484375001,32.0,40.0
870,111.1149267625,111.37097516666667,56.0,35.0
871,111.62097518333334,111.76512841875001,32.0,63.0
872,110.65020898958333,111.86291068333334,68.0,71.0
873,111.64012841041668,111.88912036250001,63.0,58.0
874,111.84778971458334,111.89113649166667,32.0,65.0
875,111.63105582916667,111.90323326666667,56.0,59.0
876,111.65323325,111.90323326666667,60.0,50.0
877,110.65928157083334,112.17742683333334,44.0,59.0
878,112.10887844166668,112.21976554583334,56.0,87.0
879,112.11795102291667,112.22379780416667,60.0,67.0
880,112.11795102291667,112.25403974166667,63.0,74.0
881,112.1068623125,112.29940264791668,68.0,95.0
882,112.35585426458334,112.39416071875,44.0,85.0
883,112.09375747291668,112.40222523541667,32.0,80.0
884,112.6149268625,112.88811236458334,59.0,77.0
885,112.61291073333334,112.88811236458334,66.0,67.0
886,112.62097525,112.89819301041668,63.0,72.0
887,112.62803170208333,112.90121720416667,35.0,81.0
888,113.08770915208333,113.27117690625,66.0,53.0
889,113.09577366875,113.27621722916668,35.0,58.0
890,113.10283012083333,113.28528981041667,63.0,61.0
891,113.10585431458334,113.30847529583333,59.0,56.0
892,112.62097525,113.71573338750001,47.0,87.0
893,113.56250757083333,113.77218500416667,35.0,67.0
894,113.55948337708334,113.82964468541667,66.0,68.0
895,113.56553176458334,113.83266887916668,59.0,65.0
896,113.56553176458334,113.8487979125,63.0,68.0
897,112.62097525,113.85081404166667,71.0,80.0
898,113.79537048958333,114.09476567083334,47.0,91.0
899,114.05041082916667,114.1451689,59.0,94.0
900,114.05041082916667,114.17843503125,71.0,90.0
901,114.05343502291667,114.18448341875,66.0,84.0
902,114.04436244166668,114.1875076125,35.0,91.0
903,114.05041082916667,114.19557212916668,63.0,79.0
904,114.15928180416667,114.34879794583334,47.0,95.0
905,114.27621729583333,114.36593504375,35.0,81.0
906,114.53932215208334,114.77621732916667,68.0,71.0
907,114.53932215208334,114.79133829791667,65.0,66.0
908,114.53024957083333,114.80645926666668,37.0,87.0
909,114.52823344166667,114.81351571875001,61.0,83.0
910,115.02319315208334,115.18347542083333,68.0,66.0
911,115.00504798958333,115.19153993750001,37.0,56.0
912,115.02016895833334,115.2036367125,65.0,52.0
913,115.01210444166668,115.24093510208334,61.0,56.0
914,114.52823344166667,115.59274964166667,49.0,85.0
915,115.50000770000001,115.71573352083334,61.0,74.0
916,115.50706415208334,115.72278997291667,68.0,71.0
917,115.50706415208334,115.72682223125001,65.0,66.0
918,115.50000770000001,115.9657335375,37.0,67.0
919,114.52420118333333,116.07057225416668,73.0,89.0
920,115.99194321666667,116.10787064375,68.0,82.0
921,115.98488676458334,116.10988677291667,65.0,75.0
922,115.98085450625001,116.116943225,61.0,94.0
923,115.73186255416667,116.16633838958334,49.0,77.0
924,116.09577386875,116.22480613541667,37.0,74.0
925,116.479846475,116.68246745625001,63.0,68.0
926,116.48690292708334,116.73186262083334,60.0,59.0
927,116.46674163541667,116.73387875,56.0,80.0
928,116.479846475,116.75504810625,44.0,63.0
929,116.94758844166667,117.11996748541667,44.0,63.0
930,116.95968521666667,117.14214490625001,63.0,58.0
931,116.95363682916667,117.15524974583334,56.0,63.0
932,116.96875779791667,117.17037071458334,60.0,46.0
933,117.44859653958333,117.66734655416667,63.0,71.0
934,117.44254815208333,117.67944332916667,56.0,79.0
935,117.4536368625,117.68347558750001,60.0,65.0
936,116.46371744166667,117.72682236458334,68.0,83.0
937,116.46371744166667,117.72883849375,32.0,75.0
938,117.66129816666667,117.97480625208334,44.0,92.0
939,117.91129818333334,118.20666110625001,32.0,88.0
940,118.16633852291667,118.21170142916667,44.0,90.0
941,117.91432237708334,118.22883852708334,56.0,84.0
942,117.92137882916667,118.23891917291667,60.0,69.0
943,117.91936270000001,118.25706433541667,63.0,72.0
944,117.91129818333334,118.27924175625,68.0,82.0
945,118.44154015416667,118.548395,44.0,98.0
946,118.68347565416667,118.80545146875001,44.0,75.0
947,118.92541115416667,119.01815309583334,44.0,69.0
948,119.16734665416668,119.27218537083334,44.0,72.0
949,119.40928215416668,119.52117732291667,44.0,69.0
950,119.65121765416667,119.73589507916667,44.0,74.0
951,119.89315315416667,119.97077412708335,44.0,72.0
952,118.44154015416667,120.26008866250001,63.0,77.0
953,118.44154015416667,120.26815317916667,56.0,75.0
954,118.44154015416667,120.27420156666668,60.0,108.0
955,120.13508865416667,120.29940318125,44.0,83.0
956,120.37702415416668,120.47279028958334,47.0,93.0
957,120.61895965416667,120.70565320833335,47.0,100.0
958,120.86089515416667,120.96069354791668,47.0,95.0
959,121.10283065416667,121.19254840208333,47.0,95.0
960,121.34476615416668,121.43045164375,47.0,95.0
961,121.58670165416667,121.67541133750001,47.0,100.0
962,120.37702415416668,121.8931532875,59.0,74.0
963,120.37702415416668,121.89516941666668,63.0,85.0
964,120.37702415416668,121.90726619166668,66.0,77.0
965,121.82863715416667,121.91129845,47.0,104.0
966,122.07057265416667,122.15424201458335,47.0,98.0
967,122.31250815416668,122.39718557916667,49.0,83.0
968,122.55444365416668,122.64416140208334,49.0,75.0
969,122.79637915416667,122.88710496666667,49.0,79.0
970,123.03831465416667,123.12400014375001,49.0,81.0
971,123.28025015416667,123.37097596666668,49.0,86.0
972,123.52218565416668,123.60283082083333,49.0,90.0
973,123.76412115416667,123.83972599791667,49.0,87.0
974,122.31250815416668,123.89214535625001,68.0,75.0
975,122.31250815416668,123.90525019583333,61.0,79.0
976,122.31250815416668,123.91230664791668,65.0,81.0
977,124.00605665416667,124.09678246666667,49.0,87.0
978,124.24799215416667,124.33871796666668,44.0,74.0
979,124.48992765416668,124.58569378958335,44.0,83.0
980,124.73186315416667,124.82359703125,44.0,95.0
981,124.97379865416667,125.06150027291667,44.0,93.0
982,125.21573415416667,125.30545190208333,44.0,100.0
983,125.45766965416668,125.54234707916667,44.0,95.0
984,125.69960515416668,125.78831483750001,44.0,111.0
985,125.94154065416667,126.012105175,44.0,100.0
986,124.24799215416667,126.02722614375,56.0,75.0
987,124.24799215416667,126.03226646666667,60.0,108.0
988,124.24799215416667,126.05545195208335,63.0,93.0
989,126.14315357083333,126.36694390833334,32.0,63.0
990,126.17440357291667,126.38710520000001,60.0,50.0
991,126.15323421666668,126.40121810416667,63.0,63.0
992,126.14920195833334,126.49900036875,56.0,68.0
993,126.64315360416667,126.74597619166667,32.0,47.0
994,126.68246812291667,126.78428264583334,60.0,30.0
995,126.63206489375001,126.786298775,63.0,38.0
996,126.62803263541667,126.8649278125,56.0,39.0
997,127.16029073541667,127.26008912916667,60.0,41.0
998,127.12803266875001,127.30948429375,56.0,51.0
999,127.12803266875001,127.33266977916668,63.0,55.0
1000,127.13508912083334,127.38105687916668,32.0,50.0
1001,126.14920195833334,127.48992785416667,68.0,68.0
1002,127.633073025,127.79839561666667,56.0,87.0
1003,127.64819399375001,127.80444400416667,60.0,71.0
1004,127.63508915416668,127.85383916875,63.0,72.0
1005,127.62400044375,127.88307304166668,68.0,70.0
1006,127.85585529791668,127.90121820416667,32.0,67.0
1007,126.15323421666668,127.92238756041667,44.0,55.0
1008,128.13206499375,128.37198436458334,66.0,68.0
1009,128.14113757500002,128.39617791458335,59.0,80.0
1010,128.14113757500002,128.41835533541666,63.0,59.0
1011,128.14113757500002,128.47077469375,35.0,71.0
1012,128.60585534791667,128.7641214875,66.0,57.0
1013,128.62198438125,128.76613761666667,35.0,45.0
1014,128.62198438125,128.81654084583334,59.0,34.0
1015,128.61694405833333,128.81754891041666,63.0,47.0
1016,129.10283118750002,129.24597635833334,35.0,54.0
1017,129.10283118750002,129.29436345833335,66.0,55.0
1018,129.09476667083334,129.31452475,63.0,58.0
1019,129.108879575,129.31553281458335,59.0,61.0
1020,128.13206499375,129.62601670625,47.0,69.0
1021,128.14113757500002,129.64012961041666,71.0,75.0
1022,129.58166186458334,129.68549251666667,59.0,76.0
1023,129.58166186458334,129.73589574583335,63.0,68.0
1024,129.5867021875,129.74597639166666,66.0,74.0
1025,129.57359734791666,129.84375865625,35.0,83.0
1026,129.79738768541668,129.87803285208335,47.0,91.0
1027,130.06654092916668,130.32158126875,68.0,70.0
1028,130.06654092916668,130.32258933333333,65.0,62.0
1029,130.04738770208334,130.34577481875002,61.0,81.0
1030,130.05948447708334,130.44254901875001,37.0,88.0
1031,130.53831515416667,130.657266775,37.0,45.0
1032,130.56351676875002,130.67238774375,65.0,38.0
1033,130.53831515416667,130.71069419791667,68.0,49.0
1034,130.53831515416667,130.73186355416667,61.0,53.0
1035,130.052428025,131.10283132083333,49.0,90.0
1036,131.02924260625,131.15222648541666,65.0,47.0
1037,130.052428025,131.16936358333334,73.0,79.0
1038,131.0020248625,131.17642003541667,61.0,56.0
1039,131.01210550833335,131.18851681041667,68.0,62.0
1040,131.0020248625,131.51714586458334,37.0,63.0
1041,131.49295231458333,131.625008775,68.0,73.0
1042,131.48892005625,131.625008775,73.0,95.0
1043,131.50101683125,131.63508942083334,65.0,61.0
1044,131.49295231458333,131.65021038958335,61.0,88.0
1045,131.26714584791668,131.76714588125,49.0,75.0
1046,131.72480716875,131.77218620416667,37.0,67.0
1047,131.987912025,132.20061365208335,63.0,69.0
1048,131.97581525,132.22178300833335,56.0,84.0
1049,131.99900073541667,132.2237991375,60.0,59.0
1050,131.987912025,132.31754914375,32.0,69.0
1051,132.48287173541667,132.56250883750002,32.0,36.0
1052,132.48690399375002,132.58871851666666,63.0,50.0
1053,132.50101689791668,132.58972658125,60.0,34.0
1054,132.49295238125,132.67238787708334,56.0,38.0
1055,132.97178305833333,133.04940403125002,60.0,45.0
1056,132.94859757291667,133.09779113125,56.0,53.0
1057,132.94658144375,133.10182338958333,63.0,52.0
1058,132.93549273333335,133.38811373125,32.0,56.0
1059,133.18549275,133.38811373125,32.0,79.0
1060,131.987912025,133.44960567083334,44.0,61.0
1061,133.43045244375,133.44960567083334,44.0,81.0
1062,133.54537180625002,133.61593632708335,32.0,80.0
1063,133.40525082916668,133.63206536041668,56.0,68.0
1064,131.97480718541667,133.64315407083333,68.0,84.0
1065,133.39819437708334,133.67137987916666,63.0,67.0
1066,133.41029115208335,133.67238794375,60.0,62.0
1067,133.62904116666667,133.7117024625,44.0,92.0
1068,133.65827503958334,133.7117024625,44.0,68.0
1069,133.91331537916668,134.141137975,60.0,61.0
1070,133.90121860416667,134.14920249166667,63.0,59.0
1071,133.90424279791668,134.16936378333335,56.0,74.0
1072,133.899202475,134.20061378541666,44.0,75.0
1073,134.37702508750002,134.47783154583334,44.0,62.0
1074,134.40021057291668,134.49900090208334,60.0,39.0
1075,134.36593637708333,134.54133961458334,63.0,53.0
1076,134.35988798958334,134.54436380833334,56.0,62.0
1077,134.8729928625,134.94758964166667,44.0,50.0
1078,133.89517021666668,135.10787191041666,68.0,83.0
1079,134.8608960875,135.12500900833334,56.0,61.0
1080,134.89416221875,135.12500900833334,60.0,47.0
1081,134.86896060416666,135.13307352500001,63.0,58.0
1082,133.899202475,135.19859772291667,32.0,87.0
1083,135.34678321666667,135.47077516041668,56.0,88.0
1084,135.35383966875,135.48287193541668,60.0,68.0
1085,135.34678321666667,135.51613806666668,63.0,67.0
1086,135.33972676458333,135.54537193958333,68.0,91.0
1087,135.56049290833334,135.61492839583335,32.0,76.0
1088,135.10081545833333,135.63206549375002,44.0,68.0
1089,135.83771066875002,136.10585584791667,66.0,80.0
1090,135.83972679791668,136.11694455833333,59.0,84.0
1091,135.83972679791668,136.12702520416667,63.0,76.0
1092,136.33367844375002,136.52924297291668,59.0,65.0
1093,136.33367844375002,136.53831555416667,63.0,57.0
1094,136.33367844375002,136.54133974791668,66.0,63.0
1095,135.83771066875002,136.94053332291668,47.0,79.0
1096,135.84577518541667,137.09779139791667,35.0,79.0
1097,136.83468654166668,137.10585591458334,59.0,72.0
1098,136.826622025,137.11089623750001,66.0,75.0
1099,136.83468654166668,137.11795268958335,63.0,72.0
1100,135.84375905625,137.13408172291668,71.0,82.0
1101,137.06754946041667,137.3760172229167,47.0,85.0
1102,137.31250915416666,137.43952529166668,59.0,97.0
1103,137.31250915416666,137.45867851875002,71.0,93.0
1104,137.31250915416666,137.47682368125,63.0,83.0
1105,137.31250915416666,137.48085593958334,66.0,83.0
1106,137.32359786458335,137.56049304166666,35.0,88.0
1107,137.53125916875,137.5826704625,47.0,59.0
1108,137.79940434791666,138.00303339375,68.0,76.0
1109,137.79940434791666,138.01714629791667,37.0,79.0
1110,137.80545273541668,138.01714629791667,65.0,66.0
1111,138.30444470416668,138.40827535625002,65.0,18.0
1112,138.27621889583335,138.41230761458334,37.0,41.0
1113,138.27017050833334,138.42138019583334,68.0,41.0
1114,137.79940434791666,138.50605762083333,61.0,83.0
1115,137.79940434791666,138.83670280416666,49.0,72.0
1116,138.79436409166667,138.89013022708335,65.0,43.0
1117,138.7560576375,138.9254124875,61.0,46.0
1118,138.76916247708334,138.93347700416666,68.0,55.0
1119,137.78932370208335,138.93347700416666,73.0,87.0
1120,138.75202537916667,139.27319476875002,37.0,68.0
1121,139.23388025,139.38710606666666,73.0,99.0
1122,139.23791250833335,139.40121897083333,68.0,86.0
1123,139.23589637916666,139.40726735833334,61.0,97.0
1124,139.24396089583334,139.41029155208335,65.0,70.0
1125,139.41230768125,139.46069478125,37.0,61.0
1126,139.00303346041667,139.47077542708334,49.0,88.0
1127,139.74295286458334,139.95363836250002,63.0,67.0
1128,139.74900125208333,139.95968675,60.0,61.0
1129,139.73388028333335,139.97984804166668,56.0,81.0
1130,139.74496899375,140.0020254625,44.0,68.0
1131,140.23287225208335,140.3044448375,60.0,45.0
1132,140.21472708958333,140.34779161458334,56.0,51.0
1133,140.21472708958333,140.37803355208334,63.0,51.0
1134,140.20464644375,140.68952550833333,44.0,49.0
1135,139.729848025,140.83367874375,68.0,79.0
1136,140.68851744375002,140.85787229375,56.0,64.0
1137,140.697590025,140.88710616666668,60.0,59.0
1138,140.68851744375002,140.89517068333333,63.0,65.0
1139,139.7358964125,141.08267069583334,32.0,79.0
1140,140.91331584583335,141.23992877083333,44.0,106.0
1141,141.23992877083333,141.37097716666668,32.0,102.0
1142,141.36593684375,141.45968685,44.0,83.0
1143,141.17138037916666,141.49698523958335,60.0,65.0
1144,141.16029166875,141.51009007916667,56.0,97.0
1145,141.16029166875,141.52521104791668,68.0,89.0
1146,141.17138037916666,141.53226750000002,63.0,71.0
1147,141.64416266875,141.95363849583333,63.0,62.0
1148,141.64416266875,141.99194495,32.0,63.0
1149,141.66835621875,141.99194495,60.0,51.0
1150,141.63206589375,142.052428825,56.0,79.0
1151,142.12400141041667,142.27924335625002,63.0,52.0
1152,142.11492882916667,142.32359819791668,60.0,40.0
1153,142.08972721458335,142.35081594166667,32.0,40.0
1154,142.09980786041666,142.35585626458334,56.0,35.0
1155,142.60585628125,142.75000951666667,32.0,63.0
1156,141.6350900875,142.84779178125,68.0,71.0
1157,142.62500950833333,142.87400146041668,63.0,58.0
1158,142.8326708125,142.87601758958334,32.0,65.0
1159,142.61593692708334,142.88811436458334,56.0,59.0
1160,142.63811434791668,142.88811436458334,60.0,50.0
1161,141.64416266875,143.16230793125,44.0,59.0
1162,143.09375953958335,143.20464664375,56.0,87.0
1163,143.10283212083334,143.20867890208334,60.0,67.0
1164,143.10283212083334,143.23892083958333,63.0,74.0
1165,143.09174341041668,143.28428374583333,68.0,95.0
1166,143.3407353625,143.37904181666667,44.0,85.0
1167,143.07863857083333,143.38710633333335,32.0,80.0
1168,143.59980796041668,143.8729934625,59.0,77.0
1169,143.59779183125002,143.8729934625,66.0,67.0
1170,143.60585634791667,143.88307410833335,63.0,72.0
1171,143.6129128,143.88609830208335,35.0,81.0
1172,144.07259025000002,144.25605800416668,66.0,53.0
1173,144.08065476666667,144.26109832708335,35.0,58.0
1174,144.08771121875,144.27017090833334,63.0,61.0
1175,144.0907354125,144.29335639375,59.0,56.0
1176,143.60585634791667,144.70061448541668,47.0,87.0
1177,144.54738866875002,144.75706610208334,35.0,67.0
1178,144.544364475,144.81452578333335,66.0,68.0
1179,144.5504128625,144.81754997708333,59.0,65.0
1180,144.5504128625,144.83367901041666,63.0,68.0
1181,143.60585634791667,144.83569513958335,71.0,80.0
1182,144.7802515875,145.07964676875,47.0,91.0
1183,145.03529192708334,145.13004999791667,59.0,94.0
1184,145.03529192708334,145.16331612916667,71.0,90.0
1185,145.03831612083334,145.16936451666666,66.0,84.0
1186,145.02924353958335,145.17238871041667,35.0,91.0
1187,145.03529192708334,145.18045322708335,63.0,79.0
1188,145.14416290208334,145.33367904375,47.0,95.0
1189,145.26109839375002,145.35081614166668,35.0,81.0
1190,145.52420325,145.76109842708334,68.0,71.0
1191,145.52420325,145.77621939583335,65.0,66.0
1192,145.51513066875,145.79134036458333,37.0,87.0
1193,145.51311453958334,145.79839681666667,61.0,83.0
1194,146.00807425,146.16835651875002,68.0,66.0
1195,145.9899290875,146.17642103541667,37.0,56.0
1196,146.00505005625,146.18851781041667,65.0,52.0
1197,145.99698553958333,146.2258162,61.0,56.0
1198,145.51311453958334,146.57763073958333,49.0,85.0
1199,146.48488879791668,146.70061461875,61.0,74.0
1200,146.49194525000001,146.70767107083333,68.0,71.0
1201,146.49194525000001,146.71170332916668,65.0,66.0
1202,146.48488879791668,146.95061463541668,37.0,67.0
1203,145.50908228125002,147.05545335208333,73.0,89.0
1204,146.97682431458335,147.09275174166666,68.0,82.0
1205,146.96976786250002,147.09476787083335,65.0,75.0
1206,146.96573560416667,147.10182432291668,61.0,94.0
1207,146.71674365208335,147.15121948750001,49.0,77.0
1208,147.08065496666669,147.20968723333334,37.0,74.0
1209,147.46472757291667,147.66734855416667,63.0,68.0
1210,147.471784025,147.71674371875,60.0,59.0
1211,147.45162273333335,147.7187598479167,56.0,80.0
1212,147.46472757291667,147.73992920416669,44.0,63.0
1213,147.93246953958334,148.10484858333334,44.0,63.0
1214,147.94456631458334,148.12702600416668,63.0,58.0
1215,147.93851792708335,148.14013084375,56.0,63.0
1216,147.95363889583334,148.1552518125,60.0,46.0
1217,148.4334776375,148.65222765208335,63.0,71.0
1218,148.42742925000002,148.66432442708333,56.0,79.0
1219,148.43851796041668,148.66835668541668,60.0,65.0
1220,147.44859853958334,148.7117034625,68.0,83.0
1221,147.44859853958334,148.71371959166666,32.0,75.0
1222,148.64617926458334,148.95968735,44.0,92.0
1223,148.89617928125,149.19154220416667,32.0,88.0
1224,149.15121962083333,149.19658252708334,44.0,90.0
1225,148.899203475,149.213719625,56.0,84.0
1226,148.90625992708334,149.22380027083335,60.0,69.0
1227,148.90424379791668,149.24194543333334,63.0,72.0
1228,148.89617928125,149.2641228541667,68.0,82.0
1229,149.37904221666668,149.61996965208334,63.0,74.0
1230,149.38509060416666,149.66029223541668,59.0,71.0
1231,149.38105834583334,149.66331642916668,32.0,80.0
1232,149.37601802291667,149.67238901041668,56.0,84.0
1233,149.866945475,149.9990019354167,32.0,71.0
1234,149.87097773333335,150.04335677708335,63.0,69.0
1235,149.88408257291667,150.09779226458335,59.0,56.0
1236,149.87500999166667,150.13509065416667,56.0,59.0
1237,150.08166323125002,150.17238904375,32.0,67.0
1238,149.37904221666668,150.25505033958333,44.0,76.0
1239,150.33166324791668,150.3931551875,32.0,77.0
1240,150.3346874416667,150.54638100416668,63.0,69.0
1241,150.3387197,150.55343745625,59.0,69.0
1242,150.326622925,150.56855842500002,56.0,77.0
1243,149.37601802291667,150.57763100625002,68.0,89.0
1244,150.31956647291668,150.6713810125,44.0,62.0
1245,150.55948584375,150.73892133958333,32.0,90.0
1246,150.81553424791667,150.87400199375,32.0,37.0
1247,150.834687475,150.99295361458334,59.0,61.0
1248,150.82158263541666,151.02319555208334,56.0,92.0
1249,151.0342842625,151.07158265208335,32.0,92.0
1250,150.82460682916667,151.07259071666667,63.0,75.0
1251,150.83166328125,151.08771168541668,44.0,85.0
1252,150.82158263541666,151.13811491458335,68.0,94.0
1253,151.31654234583334,151.56351816875,61.0,72.0
1254,151.31150202291667,151.57057462083333,66.0,79.0
1255,151.31150202291667,151.60182462291667,58.0,85.0
1256,151.31654234583334,151.6754133375,42.0,80.0
1257,151.76109882708334,151.94960690416667,42.0,62.0
1258,151.78630044166667,152.06150207291668,66.0,86.0
1259,151.78630044166667,152.06855852500001,61.0,71.0
1260,151.77823592500002,152.08166336458333,58.0,83.0
1261,151.31251008750002,152.10888110833335,30.0,85.0
1262,152.02117948958335,152.11392143125002,42.0,83.0
1263,152.27621982916668,152.39214725625,42.0,80.0
1264,152.27621982916668,152.45061500208334,30.0,79.0
1265,152.51311500625002,152.56755049375002,30.0,39.0
1266,152.27823595833334,152.58166339791669,66.0,70.0
1267,152.2681553125,152.59073597916668,58.0,74.0
1268,152.27319563541667,152.59678436666667,61.0,63.0
1269,152.50001016666667,152.65222791875001,42.0,57.0
1270,152.745977925,152.85988922291668,30.0,90.0
1271,152.76815534583335,152.90424406458334,58.0,83.0
1272,152.76109889375002,152.90424406458334,66.0,79.0
1273,152.77117953958333,152.95061503541666,61.0,80.0
1274,152.95968761666668,153.01613923333335,30.0,62.0
1275,152.85081664166668,153.02621987916666,42.0,88.0
1276,153.27722796041667,153.35283280416667,61.0,59.0
1277,153.2953731229167,153.36492957916667,68.0,53.0
1278,153.45263119791667,153.50001023333334,68.0,15.0
1279,153.41835700208335,153.51009087916668,61.0,21.0
1280,153.25505053958335,153.544365075,65.0,73.0
1281,153.25101828125,153.54839733333333,56.0,87.0
1282,153.23791344166668,153.60081669166667,37.0,87.0
1283,153.72682476458334,153.84376025625,37.0,68.0
1284,153.97178445833333,154.0221876875,37.0,72.0
1285,153.7318650875,154.03730865625002,68.0,80.0
1286,153.72682476458334,154.04335704375,65.0,66.0
1287,153.72279250625002,154.06251027083334,56.0,91.0
1288,153.73388121666667,154.06251027083334,61.0,68.0
1289,153.23690537708333,154.31351835208335,49.0,88.0
1290,154.21271189375,154.45464739375,37.0,85.0
1291,154.20968770000002,154.487913525,68.0,84.0
1292,154.2157360875,154.50807481666666,65.0,71.0
1293,154.20968770000002,154.51613933333334,56.0,87.0
1294,154.21876028125,154.51613933333334,61.0,67.0
1295,154.42541352083333,154.71573612083333,49.0,48.0
1296,154.70162321666666,154.76009096250002,68.0,83.0
1297,154.69658289375002,154.78730870625,65.0,64.0
1298,154.6875103125,154.80142161041667,37.0,92.0
1299,154.69154257083335,154.8407361291667,56.0,90.0
1300,154.69456676458333,154.86291355,61.0,74.0
1301,154.89718774583335,154.94456678125002,37.0,51.0
1302,154.78025225416667,154.95666355625002,49.0,72.0
1303,155.16835711875,155.38408293958335,63.0,71.0
1304,155.15626034375,155.40021197291668,32.0,91.0
1305,155.16835711875,155.41936520000002,59.0,67.0
1306,155.16130066666668,155.455655525,56.0,88.0
1307,155.45867971875,155.54436520833335,32.0,99.0
1308,155.68247005625,155.7812603854167,32.0,97.0
1309,155.68650231458335,155.94053458958334,63.0,76.0
1310,155.15827647291667,155.95061523541668,68.0,79.0
1311,155.69355876666668,155.95263136458334,59.0,68.0
1312,155.67541360416666,155.9576716875,56.0,90.0
1313,155.91734910416668,155.96069588125002,32.0,75.0
1314,156.1381152479167,156.20767170416667,32.0,84.0
1315,156.14617976458334,156.41331687916667,59.0,71.0
1316,156.14113944166667,156.41432494375002,63.0,72.0
1317,156.1381152479167,156.41835720208334,68.0,82.0
1318,156.1381152479167,156.423397525,56.0,88.0
1319,155.16130066666668,156.43045397708335,44.0,80.0
1320,156.38307494166668,156.63609915208335,32.0,79.0
1321,156.6471878625,156.71573625416667,59.0,64.0
1322,156.63307495833334,156.78126045208333,44.0,87.0
1323,156.78428464583334,156.87904271666667,59.0,16.0
1324,156.6471878625,156.88105884583334,63.0,67.0
1325,156.63609915208335,156.883074975,56.0,85.0
1326,156.64113947500002,156.89517175,68.0,82.0
1327,156.86896207083333,156.91734917083335,44.0,77.0
1328,156.74799432083333,156.92642175208334,32.0,75.0
1329,157.15021208958333,158.32763152291668,32.0,102.0
1330,157.14517176666666,159.02722834375,56.0,56.0
1331,157.15626047708335,159.04033318333333,60.0,56.0
1332,157.1431556375,159.05747028125,63.0,67.0
1333,157.1431556375,159.05948641041667,44.0,59.0
1334,157.13408305625,159.06755092708335,68.0,68.0
1335,160.05444615416667,160.59174457708335,63.0,75.0
1336,160.05444615416667,160.59476877083335,56.0,68.0
1337,160.05444615416667,160.6028332875,59.0,75.0
1338,159.08670415416668,160.62097845,40.0,81.0
1339,159.57057515416668,160.87803491875002,47.0,75.0
1340,161.02218815416668,161.85283337083334,71.0,71.0
1341,161.02218815416668,161.866946275,68.0,83.0
1342,161.02218815416668,161.87299466250002,65.0,67.0
1343,161.98993015416667,162.84678505,71.0,66.0
1344,161.98993015416667,162.89416408541666,68.0,75.0
1345,161.98993015416667,162.91130118333334,65.0,74.0
1346,162.9576721541667,164.40928515416667,65.0,68.0
1347,162.9576721541667,164.41634160625,71.0,69.0
1348,161.02218815416668,164.49900290208333,49.0,81.0
1349,162.9576721541667,164.51009161250002,68.0,76.0
1350,164.89315615416666,165.76513201875,56.0,76.0
1351,164.89315615416666,165.78126105208335,60.0,100.0
1352,164.89315615416666,165.7923497625,63.0,83.0
1353,165.86089815416668,166.35989012291668,63.0,76.0
1354,165.86089815416668,166.38609980208335,56.0,73.0
1355,165.86089815416668,166.38710786666667,60.0,98.0
1356,164.89315615416666,166.77319660208335,44.0,77.0
1357,166.82864015416666,167.67239021041667,59.0,77.0
1358,166.82864015416666,167.67642246875002,52.0,79.0
1359,166.82864015416666,167.6915434375,56.0,79.0
1360,167.79638215416668,168.21876121458334,52.0,72.0
1361,167.79638215416668,168.23489024791667,59.0,74.0
1362,167.79638215416668,168.23993057083334,56.0,73.0
1363,166.82864015416666,168.47884187708334,40.0,71.0
1364,168.79033383333334,168.84678545,32.0,44.0
1365,168.95364029583334,169.0221886875,32.0,34.0
1366,169.20061611875002,169.25001128333335,32.0,62.0
1367,169.42541452083333,169.4748096854167,32.0,83.0
1368,169.67440647291667,169.74093873541668,32.0,85.0
1369,169.73186615416668,169.74093873541668,32.0,75.0
1370,169.97380165416666,170.05343875625002,32.0,81.0
1371,170.21573715416667,170.29033393333333,32.0,81.0
1372,170.45767265416669,170.53932588541667,32.0,86.0
1373,170.69960815416667,170.78327751458335,32.0,81.0
1374,170.94154365416668,171.02622107916667,32.0,87.0
1375,171.18347915416666,171.26714851458334,32.0,81.0
1376,171.42541465416667,171.51815659583335,32.0,83.0
1377,171.66735015416668,171.74497112708335,32.0,85.0
1378,171.90928565416667,171.99497114375,32.0,86.0
1379,172.15122115416668,172.23388245,32.0,98.0
1380,172.3931566541667,172.49194698333335,32.0,104.0
1381,168.76412415416667,172.56049537500002,68.0,67.0
1382,168.76412415416667,172.57561634375,61.0,65.0
1383,168.76412415416667,172.60686634583334,65.0,70.0
1384,168.77017254166668,172.61493086250002,44.0,94.0
1385,172.62097925,172.69658409375,32.0,77.0
1386,172.62097925,172.73489054791668,59.0,67.0
1387,172.62097925,172.741947,56.0,88.0
1388,172.62097925,172.76513248541667,63.0,71.0
1389,172.86291475000002,172.91936636666668,63.0,55.0
1390,172.86291475000002,172.92743088333333,32.0,45.0
1391,172.86291475000002,172.92743088333333,59.0,38.0
1392,172.86291475000002,172.9435599166667,56.0,36.0
1393,173.10485025,173.16634218958333,32.0,47.0
1394,173.10485025,173.16735025416668,63.0,43.0
1395,173.10485025,173.18851961041668,59.0,27.0
1396,173.34678575,173.41634220625002,32.0,38.0
1397,173.34678575,173.42541478750002,56.0,35.0
1398,173.34678575,173.43650349791668,63.0,14.0
1399,173.34678575,173.44154382083335,59.0,29.0
1400,173.58872125000002,173.65323738333333,32.0,46.0
1401,173.58872125000002,173.66029383541667,56.0,38.0
1402,173.58872125000002,173.66331802916667,59.0,36.0
1403,173.58872125000002,173.68146319166667,63.0,28.0
1404,173.83065675,173.90222933541668,56.0,35.0
1405,173.83065675,173.90424546458334,32.0,49.0
1406,173.83065675,173.90726965833335,59.0,34.0
1407,173.83065675,173.91029385208333,63.0,30.0
1408,172.62097925,173.97178579166666,68.0,84.0
1409,172.62097925,174.15626161041666,44.0,83.0
1410,174.07259225,174.28831807083336,56.0,83.0
1411,174.07259225,174.31452775,59.0,67.0
1412,174.07259225,174.3377132354167,63.0,71.0
1413,174.07259225,174.3709793666667,68.0,53.0
1414,174.07259225,174.37400356041667,32.0,74.0
1415,174.31452775,174.40827775625002,44.0,72.0
1416,174.55646325,174.67642293541667,42.0,92.0
1417,174.55646325,174.6834793875,30.0,92.0
1418,174.55646325,174.70061648541667,58.0,91.0
1419,174.79839875000002,174.8709794,58.0,44.0
1420,174.55646325,174.87198746458336,61.0,81.0
1421,174.79839875000002,174.8891245625,30.0,63.0
1422,174.79839875000002,174.92239069375,42.0,55.0
1423,174.55646325,174.95364069583334,66.0,95.0
1424,175.04033425,175.09678586666666,58.0,63.0
1425,175.04033425,175.09779393125,30.0,50.0
1426,175.04033425,175.11593909375,61.0,30.0
1427,175.04033425,175.16735038750002,66.0,43.0
1428,175.28226975,175.34174556041668,58.0,44.0
1429,175.28226975,175.34678588333335,30.0,38.0
1430,175.28226975,175.35686652916667,61.0,30.0
1431,175.28226975,175.36997136875002,66.0,30.0
1432,175.04033425,175.45666492291667,42.0,53.0
1433,175.52420525,175.57964880208334,30.0,58.0
1434,175.52420525,175.58166493125,58.0,53.0
1435,175.52420525,175.584689125,66.0,57.0
1436,175.52420525,175.59174557708334,61.0,41.0
1437,175.76614075,175.8205762375,58.0,67.0
1438,175.76614075,175.82460849583333,66.0,58.0
1439,175.76614075,175.82763268958334,61.0,50.0
1440,175.76614075,175.83368107708336,30.0,58.0
1441,176.00807625000002,176.11593916041667,58.0,99.0
1442,175.52420525,176.11795528958334,42.0,32.0
1443,176.00807625000002,176.13106012916668,66.0,91.0
1444,176.00807625000002,176.13408432291666,30.0,77.0
1445,176.00807625000002,176.141140775,61.0,87.0
1446,176.25001175,176.29940691458333,30.0,61.0
1447,176.25001175,176.30041497916667,42.0,53.0
1448,176.25001175,176.30243110833334,58.0,59.0
1449,176.25001175,176.30948756041667,66.0,46.0
1450,176.25001175,176.31956820625,61.0,47.0
1451,176.49194725,176.6310601625,59.0,88.0
1452,176.49194725,176.63912467916668,56.0,100.0
1453,176.49194725,176.64618113125002,64.0,94.0
1454,176.49194725,176.7812617854167,40.0,100.0
1455,176.73388275000002,176.79134243125,59.0,64.0
1456,176.73388275000002,176.81755211041667,56.0,62.0
1457,176.73388275000002,176.8236004979167,64.0,71.0
1458,176.97581825,177.03226986666667,56.0,59.0
1459,176.97581825,177.04436664166667,40.0,67.0
1460,176.97581825,177.04436664166667,59.0,53.0
1461,176.97581825,177.05747148125002,64.0,54.0
1462,177.21775375,177.27017310833335,40.0,63.0
1463,177.21775375,177.28126181875,56.0,51.0
1464,177.21775375,177.28226988333333,59.0,38.0
1465,177.21775375,177.29537472291668,64.0,39.0
1466,177.45968925,177.52118118958333,40.0,62.0
1467,177.45968925,177.52118118958333,56.0,59.0
1468,177.45968925,177.52118118958333,59.0,43.0
1469,177.45968925,177.53025377083335,64.0,57.0
1470,177.70162475,177.76009249583333,59.0,44.0
1471,177.70162475,177.7641247541667,40.0,56.0
1472,177.70162475,177.76614088333335,56.0,53.0
1473,177.70162475,177.77218927083334,64.0,47.0
1474,177.94356025000002,178.05243122500002,40.0,77.0
1475,177.94356025000002,178.06351993541668,56.0,85.0
1476,177.94356025000002,178.08065703333335,64.0,79.0
1477,177.94356025000002,178.08468929166668,59.0,75.0
1478,176.49194725,178.10686671250002,52.0,108.0
1479,178.18549575,178.24698768958334,56.0,48.0
1480,178.18549575,178.25908446458334,59.0,53.0
1481,178.18549575,178.26210865833335,52.0,38.0
1482,178.18549575,178.27118123958334,40.0,53.0
1483,178.18549575,178.29537478958335,64.0,53.0
1484,178.42743125,178.52118125625,56.0,95.0
1485,178.42743125,178.53327803125,59.0,84.0
1486,178.42743125,178.58267319583334,63.0,91.0
1487,178.42743125,178.69960868750002,39.0,91.0
1488,178.66936675,178.71976997916667,63.0,62.0
1489,178.66936675,178.7258183666667,56.0,45.0
1490,178.66936675,178.729850625,59.0,51.0
1491,178.42743125,178.778237725,51.0,95.0
1492,178.91130225,178.96976999583333,59.0,47.0
1493,178.91130225,178.97985064166667,56.0,63.0
1494,178.91130225,178.99497161041668,39.0,54.0
1495,178.91130225,179.00001193333335,63.0,50.0
1496,179.15323775000002,179.20364097916666,39.0,61.0
1497,179.15323775000002,179.20364097916666,56.0,68.0
1498,179.15323775000002,179.213721625,63.0,45.0
1499,179.15323775000002,179.22682646458335,59.0,35.0
1500,179.39517325,179.45162486666666,59.0,51.0
1501,179.39517325,179.45364099583335,39.0,72.0
1502,179.39517325,179.47682648125001,63.0,68.0
1503,179.39517325,179.47783454583333,56.0,74.0
1504,179.63710875,179.69456843125002,59.0,61.0
1505,179.63710875,179.697592625,63.0,59.0
1506,179.63710875,179.70565714166668,56.0,67.0
1507,179.63710875,179.75303617708335,39.0,80.0
1508,179.87904425000002,179.95868135208335,59.0,79.0
1509,179.87904425000002,179.98085877291666,56.0,94.0
1510,179.87904425000002,179.98388296666667,39.0,88.0
1511,179.87904425000002,179.987915225,63.0,85.0
1512,178.91130225,180.05545555208334,51.0,59.0
1513,180.12097975,180.15928620416668,51.0,79.0
1514,180.12097975,180.16029426875002,39.0,61.0
1515,180.12097975,180.16936685000002,56.0,63.0
1516,180.12097975,180.1744071729167,59.0,55.0
1517,180.12097975,180.1935604,63.0,47.0
1518,180.36291525000001,180.43852009375001,32.0,77.0
1519,180.36291525000001,180.4768265479167,59.0,67.0
1520,180.36291525000001,180.48287493541667,56.0,88.0
1521,180.36291525000001,180.50706848541668,63.0,71.0
1522,180.60485075,180.6613023666667,63.0,55.0
1523,180.60485075,180.66936688333334,32.0,45.0
1524,180.60485075,180.66936688333334,59.0,38.0
1525,180.60485075,180.68549591666667,56.0,36.0
1526,180.84678625,180.90827818958334,32.0,47.0
1527,180.84678625,180.9092862541667,63.0,43.0
1528,180.84678625,180.9304556104167,59.0,27.0
1529,181.08872175000002,181.15827820625,32.0,38.0
1530,181.08872175000002,181.1673507875,56.0,35.0
1531,181.08872175000002,181.17843949791668,63.0,14.0
1532,181.08872175000002,181.18347982083336,59.0,29.0
1533,181.33065725,181.39517338333334,32.0,46.0
1534,181.33065725,181.40222983541668,56.0,38.0
1535,181.33065725,181.40525402916668,59.0,36.0
1536,181.33065725,181.42339919166668,63.0,28.0
1537,181.57259275,181.6441653354167,56.0,35.0
1538,181.57259275,181.64618146458335,32.0,49.0
1539,181.57259275,181.64920565833333,59.0,34.0
1540,181.57259275,181.65222985208334,63.0,30.0
1541,180.36291525000001,181.71372179166667,68.0,84.0
1542,180.36291525000001,181.89819761041667,44.0,83.0
1543,181.81452825,182.03025407083334,56.0,83.0
1544,181.81452825,182.05646375,59.0,67.0
1545,181.81452825,182.07964923541667,63.0,71.0
1546,181.81452825,182.11291536666667,68.0,53.0
1547,181.81452825,182.11593956041668,32.0,74.0
1548,182.05646375,182.15021375625,44.0,72.0
1549,182.29839925000002,182.41835893541668,42.0,92.0
1550,182.29839925000002,182.4254153875,30.0,92.0
1551,182.29839925000002,182.44255248541668,58.0,91.0
1552,182.54033475,182.61291540000002,58.0,44.0
1553,182.29839925000002,182.61392346458334,61.0,81.0
1554,182.54033475,182.6310605625,30.0,63.0
1555,182.54033475,182.66432669375,42.0,55.0
1556,182.29839925000002,182.69557669583335,66.0,95.0
1557,182.78227025,182.83872186666667,58.0,63.0
1558,182.78227025,182.83972993125002,30.0,50.0
1559,182.78227025,182.85787509375,61.0,30.0
1560,182.78227025,182.9092863875,66.0,43.0
1561,183.02420575000002,183.08368156041666,58.0,44.0
1562,183.02420575000002,183.08872188333333,30.0,38.0
1563,183.02420575000002,183.09880252916668,61.0,30.0
1564,183.02420575000002,183.11190736875,66.0,30.0
1565,182.78227025,183.19860092291668,42.0,53.0
1566,183.26614125,183.32158480208335,30.0,58.0
1567,183.26614125,183.32360093125,58.0,53.0
1568,183.26614125,183.32662512500002,66.0,57.0
1569,183.26614125,183.33368157708335,61.0,41.0
1570,183.50807675000001,183.56251223750002,58.0,67.0
1571,183.50807675000001,183.56654449583334,66.0,58.0
1572,183.50807675000001,183.56956868958335,61.0,50.0
1573,183.50807675000001,183.57561707708334,30.0,58.0
1574,183.75001225,183.85787516041668,58.0,99.0
1575,183.26614125,183.85989128958335,42.0,32.0
1576,183.75001225,183.87299612916667,66.0,91.0
1577,183.75001225,183.87602032291667,30.0,77.0
1578,183.75001225,183.883076775,61.0,87.0
1579,183.99194775,184.04134291458334,30.0,61.0
1580,183.99194775,184.04235097916668,42.0,53.0
1581,183.99194775,184.04436710833335,58.0,59.0
1582,183.99194775,184.05142356041668,66.0,46.0
1583,183.99194775,184.06150420625002,61.0,47.0
1584,184.23388325000002,184.37299616250002,59.0,88.0
1585,184.23388325000002,184.38106067916667,56.0,100.0
1586,184.23388325000002,184.38811713125,64.0,94.0
1587,184.23388325000002,184.52319778541667,40.0,100.0
1588,184.47581875,184.53327843125,59.0,64.0
1589,184.47581875,184.55948811041668,56.0,62.0
1590,184.47581875,184.56553649791667,64.0,71.0
1591,184.71775425,184.77420586666668,56.0,59.0
1592,184.71775425,184.78630264166668,40.0,67.0
1593,184.71775425,184.78630264166668,59.0,53.0
1594,184.71775425,184.79940748125,64.0,54.0
1595,184.95968975,185.01210910833333,40.0,63.0
1596,184.95968975,185.02319781875002,56.0,51.0
1597,184.95968975,185.02420588333334,59.0,38.0
1598,184.95968975,185.0373107229167,64.0,39.0
1599,185.20162525,185.26311718958334,40.0,62.0
1600,185.20162525,185.26311718958334,56.0,59.0
1601,185.20162525,185.26311718958334,59.0,43.0
1602,185.20162525,185.27218977083334,64.0,57.0
1603,185.44356075000002,185.50202849583334,59.0,44.0
1604,185.44356075000002,185.50606075416667,40.0,56.0
1605,185.44356075000002,185.50807688333333,56.0,53.0
1606,185.44356075000002,185.51412527083335,64.0,47.0
1607,185.68549625,185.794367225,40.0,77.0
1608,185.68549625,185.8054559354167,56.0,85.0
1609,185.68549625,185.82259303333333,64.0,79.0
1610,185.68549625,185.8266252916667,59.0,75.0
1611,184.23388325000002,185.8488027125,52.0,108.0
1612,185.92743175,185.98892368958334,56.0,48.0
1613,185.92743175,186.00102046458335,59.0,53.0
1614,185.92743175,186.00404465833336,52.0,38.0
1615,185.92743175,186.01311723958335,40.0,53.0
1616,185.92743175,186.03731078958333,64.0,53.0
1617,186.16936725000002,186.26311725625,56.0,95.0
1618,186.16936725000002,186.27521403125002,59.0,84.0
1619,186.16936725000002,186.32460919583335,63.0,91.0
1620,186.16936725000002,186.4415446875,39.0,91.0
1621,186.16936725000002,186.520173725,51.0,95.0
1622,187.37904475000002,187.43650443125,60.0,61.0
1623,187.37904475000002,187.439528625,63.0,59.0
1624,187.37904475000002,187.4475931416667,56.0,67.0
1625,187.37904475000002,187.49497217708335,39.0,80.0
1626,187.62098025,187.70061735208336,60.0,79.0
1627,187.62098025,187.72279477291667,56.0,94.0
1628,187.62098025,187.72581896666668,39.0,88.0
1629,187.62098025,187.729851225,63.0,85.0
1630,187.37904475000002,187.8377141354167,51.0,59.0
1631,187.86291575,187.9012222041667,51.0,79.0
1632,187.86291575,187.90223026875,39.0,61.0
1633,187.86291575,187.91130285,56.0,63.0
1634,187.86291575,187.91634317291667,60.0,55.0
1635,187.86291575,187.9354964,63.0,47.0
1636,188.10485125,188.16432706041667,60.0,69.0
1637,188.10485125,188.18146415833334,32.0,90.0
1638,188.10485125,188.19154480416668,63.0,79.0
1639,188.10485125,188.21069803125002,56.0,95.0
1640,188.10485125,188.21674641875,44.0,90.0
1641,188.34678675,188.41634320625002,63.0,34.0
1642,188.34678675,188.41735127083334,32.0,47.0
1643,188.34678675,188.41735127083334,60.0,30.0
1644,188.34678675,188.42743191666668,56.0,47.0
1645,188.34678675,188.53327869791667,44.0,59.0
1646,188.58872225000002,188.64013354375,32.0,59.0
1647,188.58872225000002,188.65223031875001,56.0,45.0
1648,188.58872225000002,188.65626257708334,60.0,14.0
1649,188.83065775,188.89013356041667,32.0,58.0
1650,188.83065775,188.9092867875,56.0,44.0
1651,188.83065775,188.9092867875,63.0,22.0
1652,188.83065775,188.9213835625,60.0,25.0
1653,189.07259325,189.13610131875,56.0,38.0
1654,189.07259325,189.13912551250002,32.0,54.0
1655,189.31452875000002,189.36493197916667,32.0,69.0
1656,189.31452875000002,189.37400456041667,63.0,26.0
1657,189.31452875000002,189.37803681875002,56.0,39.0
1658,188.10485125,189.37803681875002,68.0,87.0
1659,189.31452875000002,189.39013359375002,60.0,30.0
1660,188.58872225000002,189.43650456458334,44.0,38.0
1661,189.55646425,189.67138361250002,32.0,87.0
1662,189.55646425,189.70464974375,44.0,87.0
1663,189.55646425,189.76009329583334,60.0,65.0
1664,189.55646425,189.762109425,56.0,102.0
1665,189.55646425,189.79134329791668,63.0,56.0
1666,189.55646425,189.83569813958334,68.0,101.0
1667,189.79839975000002,189.85989168958335,32.0,55.0
1668,189.79839975000002,189.90424653125,44.0,39.0
1669,190.04033525,190.1391255791667,30.0,98.0
1670,190.04033525,190.16634332291667,66.0,82.0
1671,190.04033525,190.18045622708334,58.0,97.0
1672,190.04033525,190.19053687291668,61.0,87.0
1673,190.28227075,190.33469010833335,61.0,69.0
1674,190.28227075,190.3488030125,66.0,30.0
1675,190.28227075,190.36190785208333,58.0,59.0
1676,190.28227075,190.36997236875,30.0,72.0
1677,190.52420625000002,190.57864173750002,58.0,61.0
1678,190.52420625000002,190.57864173750002,61.0,61.0
1679,190.52420625000002,190.58267399583335,66.0,50.0
1680,190.52420625000002,190.5927546416667,30.0,71.0
1681,190.76614175,190.82259336666667,61.0,55.0
1682,190.76614175,190.82360143125,30.0,59.0
1683,190.76614175,190.82763368958334,58.0,50.0
1684,190.76614175,190.83973046458334,66.0,33.0
1685,191.00807725,191.06251273750001,61.0,59.0
1686,191.00807725,191.06654499583334,58.0,61.0
1687,191.00807725,191.07057725416666,66.0,41.0
1688,191.00807725,191.07360144791667,30.0,74.0
1689,191.25001275,191.29839985,66.0,55.0
1690,191.25001275,191.30243210833333,58.0,65.0
1691,191.25001275,191.3064643666667,61.0,68.0
1692,190.04033525,191.32158533541667,70.0,99.0
1693,191.25001275,191.33166598125,30.0,87.0
1694,190.04033525,191.54940793125002,42.0,97.0
1695,191.49194825,191.65827890625002,58.0,102.0
1696,191.49194825,191.7036418125,61.0,94.0
1697,191.49194825,191.7056579416667,70.0,96.0
1698,191.49194825,191.71271439375002,66.0,94.0
1699,191.49194825,191.77420633333335,30.0,92.0
1700,191.73388375000002,191.82763375625,42.0,92.0
1701,191.97581925,192.04839990000002,65.0,68.0
1702,191.97581925,192.07864183750002,61.0,94.0
1703,191.97581925,192.096787,68.0,75.0
1704,191.97581925,192.11089990416667,37.0,88.0
1705,192.21775475,192.278238625,68.0,50.0
1706,192.21775475,192.28529507708333,37.0,69.0
1707,192.21775475,192.29638378750002,65.0,36.0
1708,192.21775475,192.30041604583334,61.0,50.0
1709,192.45969025000002,192.50404509166668,65.0,24.0
1710,192.45969025000002,192.51210960833333,37.0,68.0
1711,192.45969025000002,192.52118218958336,61.0,67.0
1712,192.45969025000002,192.52723057708334,68.0,54.0
1713,192.70162575,192.75706930208335,68.0,56.0
1714,192.70162575,192.76009349583333,61.0,61.0
1715,192.70162575,192.77017414166667,37.0,67.0
1716,192.70162575,192.7742064,65.0,28.0
1717,192.94356125000002,192.99698867291667,61.0,65.0
1718,192.94356125000002,193.0030370604167,68.0,43.0
1719,191.97581925,193.06856125833335,49.0,94.0
1720,192.94356125000002,193.08569835625002,37.0,79.0
1721,193.18549675,193.2399322375,61.0,69.0
1722,193.18549675,193.25505320625,68.0,32.0
1723,191.97581925,193.25706933541667,73.0,95.0
1724,193.18549675,193.25908546458334,49.0,49.0
1725,193.18549675,193.26210965833334,65.0,29.0
1726,193.18549675,193.29134353125002,37.0,64.0
1727,193.42743225,193.52118225625,49.0,87.0
1728,193.42743225,193.59779516458335,65.0,74.0
1729,193.42743225,193.59880322916666,73.0,103.0
1730,193.42743225,193.608883875,68.0,75.0
1731,193.42743225,193.62501290833333,61.0,99.0
1732,193.42743225,193.70666613958335,37.0,95.0
1733,193.66936775000002,193.75102098125,49.0,74.0
1734,193.91130325,193.97682744791666,60.0,68.0
1735,193.91130325,193.9778355125,63.0,72.0
1736,193.91130325,194.032271,56.0,97.0
1737,193.91130325,194.07158551875,32.0,95.0
1738,194.15323875,194.19960972083334,32.0,77.0
1739,194.15323875,194.21775488333336,56.0,55.0
1740,194.15323875,194.21775488333336,63.0,41.0
1741,194.15323875,194.22380327083334,60.0,37.0
1742,194.39517425,194.4496097375,56.0,63.0
1743,194.39517425,194.45666618958333,63.0,43.0
1744,194.39517425,194.46775490000002,32.0,69.0
1745,194.63710975,194.68852104375,60.0,16.0
1746,194.63710975,194.6915452375,56.0,50.0
1747,194.63710975,194.71069846458334,32.0,51.0
1748,194.87904525000002,194.93348073750002,56.0,57.0
1749,194.87904525000002,194.93549686666668,60.0,27.0
1750,194.87904525000002,194.94154525416667,63.0,39.0
1751,194.87904525000002,195.012109775,32.0,75.0
1752,195.000013,195.012109775,32.0,59.0
1753,195.000013,195.05142429375002,56.0,64.0
1754,195.000013,195.06755332708335,60.0,41.0
1755,195.000013,195.07662590833334,63.0,24.0
1756,193.91130325,195.16835978541667,44.0,97.0
1757,193.91130325,195.16835978541667,68.0,95.0
1758,195.2419485,195.3588839916667,32.0,91.0
1759,195.2419485,195.51916626041668,60.0,72.0
1760,195.2419485,195.54235174583334,56.0,92.0
1761,195.2419485,195.54739206875,63.0,83.0
1762,195.36291625,195.55344045625,44.0,97.0
1763,195.48388400000002,195.57259368333334,32.0,85.0
1764,195.2419485,195.59275497500002,68.0,92.0
1765,195.84678725,195.9738033875,63.0,77.0
1766,195.84678725,195.9758195166667,56.0,94.0
1767,195.84678725,195.99598080833334,32.0,91.0
1768,195.84678725,195.99598080833334,60.0,74.0
1769,196.08872275000002,196.14719049583334,32.0,54.0
1770,196.08872275000002,196.15021468958335,63.0,47.0
1771,196.08872275000002,196.17844049791668,56.0,49.0
1772,196.33065825,196.3850937375,63.0,56.0
1773,196.33065825,196.39315825416668,56.0,58.0
1774,196.33065825,196.4082792229167,32.0,69.0
1775,196.57259375,196.62400504375,56.0,54.0
1776,196.57259375,196.63005343125002,63.0,50.0
1777,196.57259375,196.63408568958334,32.0,67.0
1778,196.57259375,196.64114214166668,60.0,35.0
1779,196.81452925000002,196.86392441458335,56.0,58.0
1780,196.81452925000002,196.87198893125,63.0,62.0
1781,196.81452925000002,196.87904538333333,60.0,35.0
1782,196.81452925000002,196.88509377083335,32.0,68.0
1783,197.05646475,197.10585991458333,56.0,57.0
1784,197.05646475,197.10787604375,63.0,52.0
1785,197.05646475,197.12803733541668,60.0,39.0
1786,197.05646475,197.13307765833335,32.0,71.0
1787,195.84678725,197.13408572291667,68.0,92.0
1788,195.84678725,197.35485186666668,44.0,91.0
1789,197.29840025000001,197.36896477083334,60.0,72.0
1790,197.29840025000001,197.40727122500002,56.0,100.0
1791,197.29840025000001,197.44053735625002,63.0,72.0
1792,197.29840025000001,197.49194865,68.0,95.0
1793,197.54033575,197.58368252708334,44.0,90.0
1794,197.29840025000001,197.59376317291668,32.0,85.0
1795,197.78227125,197.8780373854167,30.0,96.0
1796,197.78227125,197.90727125833334,58.0,100.0
1797,197.78227125,197.9092873875,61.0,91.0
1798,197.78227125,197.91331964583335,66.0,87.0
1799,198.02420675000002,198.09073901250002,58.0,55.0
1800,198.02420675000002,198.09880352916667,61.0,52.0
1801,198.02420675000002,198.1048519166667,30.0,67.0
1802,198.02420675000002,198.12803740208335,66.0,48.0
1803,198.26614225,198.32259386666667,61.0,63.0
1804,198.26614225,198.32561806041667,30.0,72.0
1805,198.26614225,198.33469064166667,66.0,58.0
1806,198.26614225,198.33872290000002,58.0,63.0
1807,198.50807775,198.56049710833335,66.0,60.0
1808,198.50807775,198.56553743125002,61.0,61.0
1809,198.50807775,198.56755356041668,58.0,67.0
1810,198.50807775,198.56956968958335,30.0,72.0
1811,198.75001325000002,198.81553744791668,66.0,60.0
1812,198.75001325000002,198.82259390000002,61.0,63.0
1813,198.75001325000002,198.83166648125,58.0,65.0
1814,198.75001325000002,198.8407390625,30.0,69.0
1815,198.99194875,199.0453761729167,66.0,64.0
1816,198.99194875,199.0463842375,61.0,65.0
1817,198.99194875,199.05545681875,58.0,63.0
1818,198.99194875,199.08166649791667,30.0,72.0
1819,197.78227125,199.3367068375,42.0,94.0
1820,199.23388425000002,199.37198909791667,58.0,99.0
1821,199.23388425000002,199.38912619583334,61.0,90.0
1822,199.23388425000002,199.39215038958335,66.0,87.0
1823,199.47581975,199.5201745916667,58.0,63.0
1824,197.78227125,199.52219072083335,70.0,95.0
1825,199.23388425000002,199.53227136666666,30.0,91.0
1826,199.47581975,199.54436814166667,61.0,63.0
1827,199.47581975,199.54436814166667,66.0,66.0
1828,199.47581975,199.55646491666667,42.0,85.0
1829,199.71775525,199.82763428958333,37.0,95.0
1830,199.71775525,199.83569880625,65.0,64.0
1831,199.71775525,199.83973106458333,68.0,71.0
1832,199.71775525,199.84174719375002,61.0,97.0
1833,199.95969075000002,200.01412623750002,68.0,57.0
1834,199.95969075000002,200.02219075416667,65.0,49.0
1835,199.95969075000002,200.05344075625,37.0,56.0
1836,199.95969075000002,200.05948914375,61.0,64.0
1837,200.20162625,200.24799722083335,65.0,23.0
1838,200.20162625,200.26311818958334,61.0,56.0
1839,200.20162625,200.26311818958334,68.0,52.0
1840,200.20162625,200.26916657708335,37.0,68.0
1841,200.44356175000001,200.49598110833335,61.0,69.0
1842,200.44356175000001,200.49598110833335,68.0,56.0
1843,200.44356175000001,200.50908594791667,37.0,72.0
1844,200.44356175000001,200.52319885208334,65.0,28.0
1845,200.68549725,200.74799725416668,68.0,55.0
1846,200.68549725,200.75807790000002,61.0,72.0
1847,200.68549725,200.75807790000002,65.0,38.0
1848,200.68549725,200.77219080416668,37.0,68.0
1849,200.92743275,200.97682791458334,61.0,72.0
1850,200.92743275,200.97884404375,68.0,53.0
1851,199.71775525,200.98590049583333,49.0,104.0
1852,200.92743275,201.00606178750002,65.0,26.0
1853,200.92743275,201.23993277083335,37.0,69.0
1854,199.71775525,201.30747309791667,73.0,91.0
1855,201.16936825000002,201.31251342083334,65.0,66.0
1856,201.16936825000002,201.32461019583334,68.0,73.0
1857,201.16936825000002,201.3568682625,61.0,92.0
1858,201.290336,201.48892472291666,37.0,72.0
1859,201.16936825000002,201.4899327875,49.0,94.0
1860,201.65323925,201.7802553875,60.0,65.0
1861,201.65323925,201.80948926041668,63.0,77.0
1862,201.65323925,201.82662635833336,56.0,100.0
1863,201.65323925,201.95263443125,32.0,94.0
1864,201.89517475000002,201.95263443125,63.0,48.0
1865,201.89517475000002,201.97178765833334,56.0,40.0
1866,202.13711025,202.18852154375,60.0,22.0
1867,202.13711025,202.19356186666667,63.0,51.0
1868,202.13711025,202.19456993125002,56.0,65.0
1869,202.13711025,202.23791670833333,32.0,72.0
1870,202.37904575000002,202.42642478541669,56.0,56.0
1871,202.37904575000002,202.44557801250002,32.0,53.0
1872,202.37904575000002,202.44961027083335,63.0,28.0
1873,202.62098125,202.66231189791668,56.0,74.0
1874,202.62098125,202.68852157708335,60.0,36.0
1875,202.62098125,202.69255383541667,63.0,26.0
1876,201.65323925,202.69759415833335,44.0,91.0
1877,202.86291675,202.9052554625,56.0,76.0
1878,201.65323925,202.9133199791667,68.0,94.0
1879,202.86291675,202.93348127083334,60.0,25.0
1880,202.62098125,202.94557804583334,32.0,83.0
1881,202.86291675,203.14517483333336,44.0,100.0
1882,203.10485225000002,203.23892483958335,32.0,97.0
1883,203.10485225000002,203.3669490416667,68.0,91.0
1884,203.10485225000002,203.37198936458336,60.0,64.0
1885,203.10485225000002,203.37400549375002,63.0,75.0
1886,203.10485225000002,203.3770296875,56.0,95.0
1887,203.22582,203.431465175,44.0,94.0
1888,203.34678775,203.4334813041667,32.0,80.0
1889,203.58872325000002,203.63307809166668,32.0,85.0
1890,203.58872325000002,203.63307809166668,44.0,87.0
1891,203.58872325000002,203.88005391458336,60.0,72.0
1892,203.83065875,203.88207004375002,44.0,59.0
1893,203.58872325000002,203.88207004375002,63.0,79.0
1894,203.58872325000002,203.89013456041667,68.0,99.0
1895,203.58872325000002,203.89315875416668,56.0,99.0
1896,203.83065875,203.89920714166666,32.0,50.0
1897,204.07259425,204.13106199583333,44.0,44.0
1898,204.07259425,204.13711038333335,32.0,45.0
1899,204.07259425,204.3387233,60.0,59.0
1900,204.07259425,204.34678781666668,68.0,79.0
1901,204.07259425,204.34981201041668,63.0,75.0
1902,204.07259425,204.35787652708333,56.0,85.0
1903,204.31452975000002,204.36795717291668,44.0,53.0
1904,204.31452975000002,204.36896523750002,32.0,59.0
1905,204.55646525,204.60586041458333,32.0,67.0
1906,204.55646525,204.60586041458333,44.0,72.0
1907,204.55646525,204.79739268541667,60.0,71.0
1908,204.55646525,204.80545720208335,63.0,69.0
1909,204.55646525,204.81352171875,68.0,79.0
1910,204.55646525,204.83569913958334,56.0,88.0
1911,204.79840075,204.8488039791667,32.0,84.0
1912,204.79840075,204.84981204375,44.0,84.0
1913,205.04033625,205.09577980208334,32.0,87.0
1914,205.04033625,205.09577980208334,60.0,79.0
1915,205.04033625,205.09981206041667,44.0,87.0
1916,205.04033625,205.19255400208334,56.0,104.0
1917,205.04033625,205.2278362625,63.0,88.0
1918,205.04033625,205.28932820208334,68.0,105.0
1919,205.28227175,205.33872336666667,44.0,87.0
1920,205.28227175,205.34779594791667,32.0,91.0
1921,205.52420725000002,205.59073951250002,42.0,81.0
1922,205.52420725000002,205.64719112916669,30.0,88.0
1923,205.76614275,205.81452985,42.0,69.0
1924,205.52420725000002,205.8205782375,66.0,95.0
1925,205.52420725000002,205.82259436666666,61.0,92.0
1926,205.52420725000002,205.82561856041667,58.0,108.0
1927,205.76614275,205.86795727291667,30.0,67.0
1928,206.00807825,206.05344115625002,30.0,69.0
1929,206.00807825,206.05344115625002,42.0,64.0
1930,206.00807825,206.05545728541668,58.0,84.0
1931,206.00807825,206.06150567291667,61.0,71.0
1932,206.00807825,206.2681589125,66.0,74.0
1933,206.25001375000002,206.29638472083334,42.0,71.0
1934,206.25001375000002,206.30344117291668,30.0,63.0
1935,206.25001375000002,206.31452988333334,58.0,12.0
1936,206.25001375000002,206.32057827083335,61.0,25.0
1937,206.49194925,206.54336054375,42.0,80.0
1938,206.49194925,206.55344118958334,30.0,77.0
1939,206.49194925,206.76211055833335,66.0,84.0
1940,206.49194925,206.77521539791667,58.0,90.0
1941,206.49194925,206.77823959166668,61.0,77.0
1942,206.73388475000002,206.84174766041667,42.0,92.0
1943,206.73388475000002,206.8488041125,30.0,94.0
1944,206.97582025,207.05747348125,42.0,92.0
1945,206.97582025,207.07360251458334,30.0,81.0
1946,206.97582025,207.10586058125,58.0,104.0
1947,206.97582025,207.11594122708334,61.0,85.0
1948,206.97582025,207.13207026041667,66.0,92.0
1949,207.21775575,207.302433175,42.0,83.0
1950,207.21775575,207.31452995,30.0,72.0
1951,207.45969125000002,207.520175125,37.0,97.0
1952,207.45969125000002,207.52924770625,49.0,100.0
1953,207.45969125000002,207.73287675208334,65.0,76.0
1954,207.45969125000002,207.73489288125,68.0,95.0
1955,207.45969125000002,207.74295739791668,56.0,102.0
1956,207.45969125000002,207.7439654625,61.0,81.0
1957,207.70162675,207.7550541729167,37.0,72.0
1958,207.70162675,207.77118320625002,49.0,72.0
1959,207.94356225,207.98892515625002,37.0,75.0
1960,207.94356225,207.99094128541668,49.0,80.0
1961,207.94356225,208.19356226666667,68.0,73.0
1962,207.94356225,208.21473162291667,61.0,75.0
1963,207.94356225,208.21775581666668,65.0,53.0
1964,207.94356225,208.22985259166668,56.0,88.0
1965,208.18549775,208.23186872083335,49.0,76.0
1966,208.18549775,208.23388485,37.0,79.0
1967,208.42743325,208.47582035000002,37.0,77.0
1968,208.42743325,208.48590099583333,49.0,84.0
1969,208.42743325,208.70263488125002,68.0,83.0
1970,208.66936875000002,208.71473165625002,37.0,74.0
1971,208.42743325,208.73388488333333,61.0,71.0
1972,208.42743325,208.73993327083335,65.0,68.0
1973,208.42743325,208.74598165833333,56.0,95.0
1974,208.66936875000002,208.75807843333334,49.0,90.0
1975,208.91130425,209.02622361250002,37.0,88.0
1976,208.91130425,209.15021555625,68.0,94.0
1977,208.91130425,209.15223168541667,65.0,78.0
1978,208.91130425,209.16332039583335,61.0,83.0
1979,208.91130425,209.17944942916668,56.0,104.0
1980,209.15323975,209.19457039791666,37.0,77.0
1981,209.032272,209.20061878541668,49.0,91.0
1982,209.39517525000002,209.5100946125,44.0,84.0
1983,209.39517525000002,209.528239775,32.0,85.0
1984,209.39517525000002,209.68045752708335,68.0,92.0
1985,209.39517525000002,209.68751397916668,60.0,67.0
1986,209.39517525000002,209.6905381729167,63.0,79.0
1987,209.63711075,209.6915462375,44.0,71.0
1988,209.39517525000002,209.70162688333335,56.0,92.0
1989,209.63711075,209.72884462708333,32.0,83.0
1990,209.87904625000002,209.92944947916666,44.0,77.0
1991,209.87904625000002,209.93751399583334,32.0,80.0
1992,209.87904625000002,210.08267529583335,60.0,59.0
1993,209.87904625000002,210.11392529791667,63.0,75.0
1994,209.87904625000002,210.11795755625002,68.0,83.0
1995,209.87904625000002,210.13207046041668,56.0,88.0
1996,210.12098175,210.16836078541667,44.0,72.0
1997,210.12098175,210.17138497916667,32.0,76.0
1998,210.36291725,210.41634467291667,32.0,83.0
1999,210.36291725,210.42743338333335,44.0,80.0
2000,210.36291725,210.43448983541668,60.0,59.0
2001,210.48388500000001,210.65626404375,60.0,16.0
2002,210.60485275000002,210.67440920625,44.0,88.0
2003,210.60485275000002,210.68448985208335,32.0,94.0
2004,210.36291725,210.69255436875002,68.0,83.0
2005,210.36291725,210.69961082083336,63.0,65.0
2006,210.36291725,210.70868340208335,56.0,90.0
2007,210.84678825,210.94658664375,32.0,100.0
2008,210.84678825,211.1270302041667,60.0,72.0
2009,210.84678825,211.14114310833335,68.0,105.0
2010,210.967756,211.16634472291668,44.0,94.0
2011,210.84678825,211.16936891666668,63.0,71.0
2012,210.84678825,211.17642536875002,56.0,99.0
2013,211.08872375,211.18549795,32.0,108.0
2014,211.33065925,211.43448990208336,32.0,94.0
2015,211.33065925,211.43751409583334,44.0,88.0
2016,211.33065925,211.58973184791668,68.0,92.0
2017,211.33065925,211.59174797708334,60.0,79.0
2018,211.33065925,211.59880442916668,63.0,80.0
2019,211.33065925,211.62098185000002,56.0,99.0
2020,211.57259475,211.64013507708336,44.0,74.0
2021,211.57259475,211.64416733541668,32.0,68.0
2022,211.81453025000002,211.88610283541666,44.0,65.0
2023,211.81453025000002,211.89618348125,32.0,75.0
2024,211.81453025000002,212.0383205875,68.0,75.0
2025,211.81453025000002,212.0463851041667,60.0,56.0
2026,211.81453025000002,212.06251413750002,63.0,68.0
2027,211.81453025000002,212.07763510625,56.0,88.0
2028,212.05646575,212.0988044625,44.0,79.0
2029,212.05646575,212.10686897916668,32.0,71.0
2030,212.29840125,212.35686899583334,44.0,72.0
2031,212.29840125,212.37198996458335,32.0,77.0
2032,212.29840125,212.56150610625002,60.0,67.0
2033,212.29840125,212.56352223541668,68.0,86.0
2034,212.29840125,212.57259481666668,63.0,76.0
2035,212.29840125,212.59174804375002,56.0,92.0
2036,212.54033675000002,212.61291740000001,32.0,84.0
2037,212.54033675000002,212.61392546458333,44.0,84.0
2038,212.78227225,212.82763515625,44.0,88.0
2039,212.78227225,212.87501419166668,32.0,95.0
2040,212.78227225,212.99799807083335,60.0,77.0
2041,212.78227225,213.0292480729167,56.0,102.0
2042,212.78227225,213.03630452500002,63.0,84.0
2043,213.02420775000002,213.07763517291667,44.0,102.0
2044,213.02420775000002,213.09981259375002,32.0,95.0
2045,212.78227225,213.10686904583335,68.0,95.0
2046,213.26614325,213.33065938333334,42.0,99.0
2047,213.26614325,213.36795777291667,30.0,97.0
2048,213.26614325,213.55142552708335,58.0,88.0
2049,213.26614325,213.55747391458334,61.0,76.0
2050,213.50807875,213.55949004375,42.0,79.0
2051,213.26614325,213.5625142375,66.0,83.0
2052,213.50807875,213.58569972291667,30.0,59.0
2053,213.75001425000002,213.79840135,42.0,68.0
2054,213.75001425000002,213.80444973750002,30.0,80.0
2055,213.75001425000002,214.03630459166666,66.0,78.0
2056,213.75001425000002,214.03731265625,61.0,69.0
2057,213.75001425000002,214.04739330208335,58.0,80.0
2058,213.99194975,214.05142556041667,42.0,80.0
2059,213.99194975,214.05545781875,30.0,75.0
2060,214.23388525000001,214.28227235,42.0,77.0
2061,214.23388525000001,214.29235299583334,30.0,81.0
2062,214.23388525000001,214.51614333333333,66.0,76.0
2063,214.23388525000001,214.51815946250002,61.0,67.0
2064,214.23388525000001,214.52118365625,58.0,84.0
2065,214.47582075,214.5322723666667,30.0,81.0
2066,214.47582075,214.5322723666667,42.0,81.0
2067,214.71775625,214.81957077291668,30.0,94.0
2068,214.71775625,214.90122400416666,58.0,87.0
2069,214.71775625,214.91735303750002,66.0,87.0
2070,214.71775625,214.923401425,61.0,74.0
2071,214.95969175000002,215.01110304375,30.0,94.0
2072,214.838724,215.02622401250002,42.0,92.0
2073,215.20162725,215.4516272666667,68.0,84.0
2074,215.20162725,215.45364339583335,65.0,78.0
2075,215.20162725,215.45969178333334,56.0,95.0
2076,215.20162725,215.46372404166667,61.0,75.0
2077,215.20162725,215.48388533333335,49.0,102.0
2078,215.20162725,215.48892565625002,37.0,92.0
2079,215.68549825000002,215.73489341458335,37.0,63.0
2080,215.68549825000002,215.73590147916667,49.0,75.0
2081,215.68549825000002,215.94356278333333,68.0,71.0
2082,215.92743375,215.9697724625,49.0,68.0
2083,215.68549825000002,215.97783697916668,56.0,84.0
2084,215.68549825000002,215.9808611729167,65.0,66.0
2085,215.92743375,215.9818692375,37.0,56.0
2086,215.68549825000002,215.9818692375,61.0,64.0
2087,216.16936925000002,216.21775635,37.0,71.0
2088,216.16936925000002,216.21775635,49.0,69.0
2089,216.16936925000002,216.43247410625,68.0,71.0
2090,216.16936925000002,216.45061926875002,65.0,55.0
2091,216.16936925000002,216.45263539791668,56.0,77.0
2092,216.16936925000002,216.4556595916667,61.0,55.0
2093,216.41130475,216.45969185,37.0,79.0
2094,216.41130475,216.45969185,49.0,79.0
2095,216.65324025,216.6955789625,37.0,84.0
2096,216.65324025,216.69860315625002,49.0,88.0
2097,216.65324025,216.88509510416668,65.0,74.0
2098,216.65324025,216.8881192979167,68.0,92.0
2099,216.65324025,216.90424833125002,61.0,80.0
2100,216.65324025,216.9133209125,56.0,102.0
2101,216.89517575000002,216.93751446250002,49.0,90.0
2102,216.89517575000002,216.94356285,37.0,94.0
2103,217.13711125,217.2036435125,44.0,92.0
2104,217.13711125,217.25203061250002,32.0,92.0
2105,217.13711125,217.35686932916667,60.0,75.0
2106,217.13711125,217.39215158958334,63.0,75.0
2107,217.13711125,217.41130481666667,68.0,92.0
2108,217.13711125,217.4213854625,56.0,94.0
2109,217.37904675000001,217.42844191458335,44.0,72.0
2110,217.37904675000001,217.439530625,32.0,75.0
2111,217.62098225,217.66936935,32.0,76.0
2112,217.62098225,217.67037741458336,44.0,75.0
2113,217.62098225,217.8387242,60.0,56.0
2114,217.62098225,217.84174839375,68.0,66.0
2115,217.62098225,217.86291775,56.0,80.0
2116,217.62098225,217.87602258958336,63.0,58.0
2117,217.86291775,217.92642581875,32.0,84.0
2118,217.86291775,217.92642581875,44.0,83.0
2119,218.10485325000002,218.16029680208334,44.0,77.0
2120,218.10485325000002,218.16634518958335,60.0,72.0
2121,218.10485325000002,218.16735325416667,32.0,83.0
2122,218.10485325000002,218.22178874166667,56.0,100.0
2123,218.10485325000002,218.23086132291667,68.0,83.0
2124,218.10485325000002,218.26009519583334,63.0,69.0
2125,218.34678875,218.39618391458333,44.0,85.0
2126,218.34678875,218.40223230208335,32.0,92.0
2127,218.58872425,218.65223231875,32.0,90.0
2128,218.58872425,218.8367081375,63.0,81.0
2129,218.58872425,218.84376458958334,68.0,99.0
2130,218.58872425,218.84981297708333,60.0,76.0
2131,218.58872425,218.85384523541669,56.0,106.0
2132,218.83065975000002,218.87904685,32.0,102.0
2133,218.70969200000002,218.89013556041667,44.0,95.0
2134,219.07259525,221.0282405416667,60.0,85.0
2135,219.07259525,221.03025667083335,56.0,104.0
2136,219.07259525,221.03227280000002,44.0,95.0
2137,219.07259525,221.0383211875,32.0,102.0
2138,219.07259525,221.03932925208335,63.0,88.0
2139,219.07259525,221.06654699583333,68.0,99.0
