,start,end,pitch,velocity
0,7.1054161208333335,7.713849379166667,76.0,89.0
1,7.828307120833333,8.111439429166667,76.0,86.0
2,8.189752620833334,8.430716287500001,74.0,86.0
3,8.551198120833334,9.385534816666667,74.0,89.0
4,9.635534620833333,9.89908863125,69.0,86.0
5,9.996980120833333,10.64908804375,72.0,85.0
6,10.719871120833334,10.96535285625,72.0,85.0
7,11.081316620833334,11.347882677083334,74.0,85.0
8,11.442762120833333,12.04065321875,74.0,88.0
9,12.165653120833333,12.432219177083333,72.0,80.0
10,12.527098620833334,12.798182745833333,71.0,84.0
11,12.888544120833334,13.438242485416668,69.0,84.0
12,13.611435120833333,14.265049066666666,72.0,85.0
13,14.334326120833333,14.605410245833333,74.0,87.0
14,14.695771620833334,14.960831654166666,74.0,87.0
15,15.057217120833334,15.317759085416666,72.0,85.0
16,15.418662620833334,15.674686516666666,74.0,87.0
17,15.780108120833333,16.388541379166668,76.0,84.0
18,16.502999120833334,16.7439627875,76.0,84.0
19,16.864444620833332,17.120468516666666,74.0,84.0
20,17.225890120833334,18.364443445833334,74.0,89.0
21,18.671672120833335,18.938238177083335,76.0,88.0
22,19.033117620833334,19.263539127083334,76.0,87.0
23,19.394563120833332,19.64908099375,76.0,87.0
24,19.756008620833335,20.02106865416667,79.0,79.0
25,20.117454120833333,21.015043779166668,79.0,84.0
26,21.201790620833332,21.4788988375,79.0,83.0
27,21.563236120833334,21.814741947916666,81.0,79.0
28,21.924681620833333,22.195765745833334,76.0,82.0
29,22.286127120833335,22.573777497916666,76.0,86.0
30,22.647572620833333,22.918656745833335,74.0,85.0
31,23.009018120833336,23.641547745833336,76.0,85.0
32,24.454800120833333,25.394558420833334,76.0,97.0
33,25.539136620833332,25.774076195833334,79.0,87.0
34,25.900582120833334,26.099377145833333,79.0,85.0
35,26.262027620833333,26.438232302083335,79.0,79.0
36,26.623473120833335,26.859918718750002,79.0,85.0
37,26.984918620833334,27.575279604166667,81.0,85.0
38,27.707809620833334,29.161121735416668,76.0,89.0
39,29.515037120833334,29.781603177083333,76.0,84.0
40,29.876482620833333,30.1445547,74.0,87.0
41,30.237928120833335,30.463831558333336,72.0,84.0
42,30.599373620833333,30.834313195833335,69.0,87.0
43,30.960819120833335,31.212324947916667,72.0,83.0
44,31.322264620833334,31.584312608333335,76.0,85.0
45,31.683710120833336,32.26202292083333,74.0,90.0
46,32.406601120833336,32.67768524583333,72.0,84.0
47,32.76804662083333,33.03913074583333,74.0,90.0
48,33.12949212083333,33.805696410416665,76.0,85.0
49,33.85238312083334,34.48340672291667,79.0,84.0
50,34.575274120833335,35.13551464583333,81.0,84.0
51,35.29816512083333,35.5391287875,76.0,86.0
52,35.659610620833334,35.92918872291667,74.0,85.0
53,36.021056120833336,36.5873207375,72.0,85.0
54,36.74394712083333,37.01051317708333,72.0,84.0
55,37.105392620833335,37.3463562875,76.0,85.0
56,37.46683812083334,38.045150920833336,74.0,89.0
57,38.189729120833334,38.460813245833336,72.0,83.0
58,38.551174620833336,38.85388522708333,71.0,84.0
59,38.91262012083333,40.95478719583333,69.0,85.0
60,41.804184120833334,42.411124816666664,76.0,89.0
61,42.525238816666665,42.80752081666667,76.0,86.0
62,42.885598816666665,43.125838816666665,74.0,86.0
63,43.245958816666665,44.077789816666666,74.0,89.0
64,44.327038816666665,44.589801316666666,69.0,86.0
65,44.687398816666665,45.33754831666666,72.0,85.0
66,45.408118816666665,45.65286331666667,72.0,85.0
67,45.768478816666665,46.034244316666665,74.0,85.0
68,46.128838816666665,46.72493431666666,74.0,88.0
69,46.849558816666665,47.115324316666666,72.0,80.0
70,47.209918816666665,47.48018881666667,71.0,84.0
71,47.570278816666665,48.11832631666667,69.0,84.0
72,48.290998816666665,48.942649816666666,72.0,85.0
73,49.011718816666665,49.28198881666667,74.0,87.0
74,49.372078816666665,49.63634281666667,74.0,87.0
75,49.732438816666665,49.992198316666666,72.0,85.0
76,50.092798816666665,50.34805381666666,74.0,87.0
77,50.453158816666665,51.059764816666664,76.0,84.0
78,51.173878816666665,51.414118816666665,76.0,84.0
79,51.534238816666665,51.78949381666666,74.0,84.0
80,51.894598816666665,53.029732816666666,74.0,89.0
81,53.336038816666665,53.601804316666666,76.0,88.0
82,53.696398816666665,53.92612831666666,76.0,87.0
83,54.056758816666665,54.31051231666667,76.0,87.0
84,54.417118816666665,54.68138281666667,79.0,79.0
85,54.777478816666665,55.672372816666666,79.0,84.0
86,55.858558816666665,56.13483481666667,79.0,83.0
87,56.218918816666665,56.46966931666667,81.0,79.0
88,56.579278816666665,56.84954881666667,76.0,82.0
89,56.939638816666665,57.22642531666666,76.0,86.0
90,57.299998816666665,57.57026881666667,74.0,85.0
91,57.660358816666665,58.29098881666667,76.0,85.0
92,59.101798816666665,59.336032816666666,76.0,87.0
93,59.462158816666665,59.66035681666666,76.0,85.0
94,59.822518816666665,59.99819431666667,76.0,79.0
95,60.182878816666666,60.417112816666666,79.0,87.0
96,60.543238816666666,60.74193582708333,79.0,85.0
97,60.90507770208333,61.08181473333333,79.0,79.0
98,61.26761520208333,61.50477514999999,79.0,85.0
99,61.63015270208333,62.222297285416666,81.0,85.0
100,62.355227702083326,63.812930566666665,76.0,89.0
101,64.16791520208334,64.43528660833333,76.0,84.0
102,64.53045270208332,64.79933468125,74.0,87.0
103,64.89299020208333,65.11957613958333,72.0,84.0
104,65.25552770208333,65.49117707708334,69.0,87.0
105,65.61806520208333,65.87033087916666,72.0,83.0
106,65.98060270208333,66.24344238958332,76.0,85.0
107,66.34314020208333,66.92320020208334,74.0,90.0
108,67.06821520208332,67.34011832708333,72.0,84.0
109,67.43075270208332,67.70265582708333,74.0,90.0
110,67.79329020208333,68.47153744166667,76.0,85.0
111,68.51836520208333,69.15129525416666,79.0,84.0
112,69.24344020208333,69.80537332708333,81.0,84.0
113,69.96851520208332,70.21020686874999,76.0,86.0
114,70.33105270208333,70.60144525416666,74.0,85.0
115,70.69359020208333,71.26156561875,72.0,85.0
116,71.41866520208333,71.68603660833332,72.0,84.0
117,71.78120270208333,72.02289436875,76.0,85.0
118,72.14374020208334,72.72380020208332,74.0,89.0
119,72.86881520208333,73.14071832708333,72.0,83.0
120,73.23135270208333,73.53497785833332,71.0,84.0
121,73.59389020208333,75.64222707708333,69.0,85.0
122,76.49419020208333,77.72379655625,74.0,99.0
123,77.94434020208332,78.8068773375,72.0,85.0
124,79.03195270208333,79.31291926458333,76.0,88.0
125,79.39449020208333,79.69358363958332,79.0,87.0
126,79.75702770208332,81.76608968125,76.0,90.0
127,82.29479020208333,83.74796134791666,74.0,86.0
128,84.10747770208333,84.38240197291665,72.0,83.0
129,84.47001520208333,84.85823244166666,71.0,85.0
130,84.83255270208332,85.09388181666665,69.0,83.0
131,85.19509020208332,87.44532669166665,69.0,85.0
132,88.09097169166665,88.81169169166665,74.0,99.0
133,89.17205169166665,89.47685619166666,74.0,85.0
134,89.53241169166665,90.14352219166666,72.0,87.0
135,90.25313169166665,90.87325119166665,74.0,87.0
136,90.97385169166665,91.57745469166666,76.0,90.0
137,91.69457169166665,92.32670319166665,79.0,86.0
138,92.41529169166665,93.16904469166666,81.0,85.0
139,93.49637169166665,93.69456969166666,84.0,87.0
140,93.85673169166665,95.16453819166665,84.0,89.0
141,95.29817169166665,96.28165419166666,83.0,84.0
142,96.37925169166665,96.69606819166665,84.0,88.0
143,96.73961169166665,97.04441619166666,83.0,86.0
144,97.09997169166665,98.90177169166665,81.0,83.0
145,105.38825169166665,105.99485769166665,76.0,89.0
146,106.10897169166665,106.39125369166666,76.0,86.0
147,106.46933169166665,106.70957169166665,74.0,86.0
148,106.82969169166665,107.66152269166666,74.0,89.0
149,107.91077169166665,108.17353419166666,69.0,86.0
150,108.27113169166665,108.92128119166665,72.0,85.0
151,108.99185169166665,109.23659619166665,72.0,85.0
152,109.35221169166665,109.61797719166665,74.0,85.0
153,109.71257169166665,110.30866719166666,74.0,88.0
154,110.43329169166665,110.69905719166665,72.0,80.0
155,110.79365169166665,111.06392169166665,71.0,84.0
156,111.15401169166665,111.70205919166665,69.0,84.0
157,111.87473169166665,112.52638269166665,72.0,85.0
158,112.59545169166665,112.86572169166666,74.0,87.0
159,112.95581169166665,113.22007569166666,74.0,87.0
160,113.31617169166665,113.57593119166665,72.0,85.0
161,113.67653169166665,113.93178669166666,74.0,87.0
162,114.03689169166665,114.64349769166665,76.0,84.0
163,114.75761169166665,114.99785169166665,76.0,84.0
164,115.11797169166665,115.37322669166666,74.0,84.0
165,115.47833169166665,116.61588816041666,74.0,89.0
166,116.92404503541665,117.19141644166666,76.0,88.0
167,117.28658253541666,117.51770019166665,76.0,87.0
168,117.64912003541666,117.90440685833332,76.0,87.0
169,118.01165753541666,118.27751836875,79.0,79.0
170,118.37419503541666,119.27449649375,79.0,84.0
171,119.46180753541665,119.73975295208332,79.0,83.0
172,119.82434503541666,120.07661071249998,81.0,79.0
173,120.18688253541666,120.45878566041665,76.0,82.0
174,120.54942003541666,120.83793946249999,76.0,86.0
175,120.91195753541666,121.18386066041666,74.0,85.0
176,121.27449503541665,121.90893566041666,76.0,85.0
177,122.72917675416666,122.96482612916665,76.0,87.0
178,123.09171425416666,123.29110987916665,76.0,85.0
179,123.45425175416665,123.63098878541666,76.0,79.0
180,123.81225753541665,124.04790691041666,79.0,87.0
181,124.17479503541665,124.37419066041666,79.0,85.0
182,124.53733253541665,124.71406956666665,79.0,79.0
183,124.89987003541665,125.13702998333332,79.0,85.0
184,125.26240753541666,125.85455211875,81.0,85.0
185,125.98748253541666,127.44518539999999,76.0,89.0
186,127.80017003541666,128.06754144166666,76.0,84.0
187,128.16270753541664,128.43158951458332,74.0,87.0
188,128.52524503541665,128.75183097291665,72.0,84.0
189,128.88778253541665,129.12343191041666,69.0,87.0
190,129.25032003541665,129.50258571249998,72.0,83.0
191,129.61285753541665,129.87569722291664,76.0,85.0
192,129.97539503541665,130.55545503541666,74.0,90.0
193,130.70047003541666,130.97237316041665,72.0,84.0
194,131.06300753541666,131.33491066041665,74.0,90.0
195,131.42554503541666,132.103792275,76.0,85.0
196,132.15062003541667,132.78355008749998,79.0,84.0
197,132.87569503541664,133.4381316395833,81.0,84.0
198,133.60176783958332,133.84419183958332,76.0,86.0
199,133.9654038395833,134.23661568958332,74.0,85.0
200,134.32903983958332,134.89873623958331,72.0,85.0
201,135.05631183958332,135.32449338958332,72.0,84.0
202,135.4199478395833,135.6623718395833,76.0,85.0
203,135.78358383958332,136.3654014395833,74.0,89.0
204,136.51085583958331,136.78277052916664,72.0,83.0
205,136.87313190416666,137.17584251041666,71.0,84.0
206,137.23457740416666,139.27674447916667,69.0,85.0
207,163.25865340416667,163.8670866625,76.0,89.0
208,163.98154440416664,164.26467671249998,76.0,86.0
209,164.34298990416664,164.58395357083333,74.0,86.0
210,164.70443540416665,165.5387721,74.0,89.0
211,165.78877190416665,166.05232591458332,69.0,86.0
212,166.15021740416665,166.8023253270833,72.0,85.0
213,166.87310840416666,167.11859013958332,72.0,85.0
214,167.23455390416666,167.50111996041664,74.0,85.0
215,167.59599940416666,168.19389050208332,74.0,88.0
216,168.31889040416667,168.58545646041665,72.0,80.0
217,168.68033590416667,168.95142002916666,71.0,84.0
218,169.04178140416667,169.59147976875,69.0,84.0
219,169.76467240416665,170.41828635,72.0,85.0
220,170.48756340416665,170.75864752916664,74.0,87.0
221,170.84900890416665,171.11406893749998,74.0,87.0
222,171.21045440416665,171.47099636874998,72.0,85.0
223,171.57189990416666,171.82792379999998,74.0,87.0
224,171.93334540416666,172.54177866249998,76.0,84.0
225,172.65623640416666,172.89720007083332,76.0,84.0
226,173.01768190416664,173.2737058,74.0,84.0
227,173.37912740416664,174.51768072916667,74.0,89.0
228,174.82490940416665,175.09147546041666,76.0,88.0
229,175.18635490416665,175.41677641041665,76.0,87.0
230,175.54780040416665,175.80231827708332,76.0,87.0
231,175.90924590416665,176.17430593749998,79.0,79.0
232,176.27069140416666,177.1682810625,79.0,84.0
233,177.35502790416666,177.6321361208333,79.0,83.0
234,177.71647340416666,177.96797923124998,81.0,79.0
235,178.07791890416667,178.34900302916665,76.0,82.0
236,178.43936440416667,178.72701478124998,76.0,86.0
237,178.80080990416667,179.07189402916666,74.0,85.0
238,179.16225540416664,179.79478502916666,76.0,85.0
239,180.60803740416665,181.54779570416665,76.0,97.0
240,181.69237390416666,181.92731347916666,79.0,87.0
241,182.05381940416666,182.25261442916667,79.0,85.0
242,182.41526490416666,182.59146958541666,79.0,79.0
243,182.77671040416666,183.01315600208332,79.0,85.0
244,183.13815590416664,183.72851688749998,81.0,85.0
245,183.86104690416664,185.31435901875,76.0,89.0
246,185.66827440416665,185.93484046041664,76.0,84.0
247,186.02971990416665,186.29779198333333,74.0,87.0
248,186.39116540416666,186.61706884166665,72.0,84.0
249,186.75261090416666,186.98755047916666,69.0,87.0
250,187.11405640416666,187.36556223124998,72.0,83.0
251,187.47550190416666,187.73754989166665,76.0,85.0
252,187.83694740416666,188.41526020416666,74.0,90.0
253,188.55983840416667,188.83092252916666,72.0,84.0
254,188.92128390416667,189.19236802916666,74.0,90.0
255,189.28272940416664,189.95893369375,76.0,85.0
256,190.00562040416665,190.63664400624998,79.0,84.0
257,190.72851140416665,191.28875192916666,81.0,84.0
258,191.45140240416666,191.69236607083332,76.0,86.0
259,191.81284790416666,192.08242600625,74.0,85.0
260,192.17429340416666,192.7405580208333,72.0,85.0
261,192.89718440416664,193.16375046041665,72.0,84.0
262,193.25862990416664,193.49959357083333,76.0,85.0
263,193.62007540416664,194.19838820416666,74.0,89.0
264,194.34296640416665,194.61346431041667,72.0,83.0
265,194.70328456041665,195.00418239791665,71.0,84.0
266,195.06256556041666,197.09250321041665,69.0,85.0
267,197.93681356041665,199.15537495208332,74.0,99.0
268,199.37393756041666,200.22872693958334,72.0,85.0
269,200.45178056041667,200.73023690416665,76.0,88.0
270,200.81180784166665,201.11090127916665,79.0,87.0
271,201.17434534166665,203.1834073208333,76.0,90.0
272,203.71210784166666,205.1652789875,74.0,86.0
273,205.52479534166665,205.79971961249998,72.0,83.0
274,205.88733284166665,206.27555008124997,71.0,85.0
275,206.24987034166665,206.51119945624998,69.0,83.0
276,206.61240784166665,208.86067263749996,69.0,85.0
277,209.50826249166664,210.23115349166665,74.0,99.0
278,210.59259899166665,210.89832164374997,74.0,85.0
279,210.95404449166665,211.56699581874997,72.0,87.0
280,211.67693549166665,212.29892295624998,74.0,87.0
281,212.39982649166663,213.00524770416664,76.0,90.0
282,213.12271749166663,213.7567531395833,79.0,86.0
283,213.84560849166664,214.60163199583332,81.0,85.0
284,214.92994499166664,215.12874001666665,84.0,87.0
285,215.29139049166665,216.59627318333332,84.0,89.0
286,216.72950655416665,217.7100442833333,83.0,84.0
287,217.80734955416665,218.1232174333333,84.0,88.0
288,218.16663055416666,218.4705224,83.0,86.0
289,218.52591155416664,220.32231655416666,81.0,83.0
290,221.04087855416665,221.75944055416664,74.0,99.0
291,222.11872155416665,222.4226134,74.0,85.0
292,222.47800255416666,223.08728324999998,72.0,87.0
293,223.19656455416666,223.81723528124996,74.0,87.0
294,223.91813881666664,224.52356002916665,76.0,90.0
295,224.64102981666665,225.2750654645833,79.0,86.0
296,225.36392081666665,226.1199443208333,81.0,85.0
297,226.44825731666663,226.64705234166664,84.0,87.0
298,226.80970281666663,228.12144877708332,84.0,89.0
299,228.25548481666664,229.2419298270833,83.0,84.0
300,229.33982131666664,229.6575921520833,84.0,88.0
301,229.70126681666665,230.00878750416666,83.0,86.0
302,230.06484805416665,231.88302805416666,81.0,83.0
