,start,end,pitch,velocity
0,2.045179120833333,2.495479972916667,62.0,69.0
1,2.4066246208333335,3.475900891666667,64.0,76.0
2,2.7680701208333334,3.5451779458333332,67.0,66.0
3,2.7680701208333334,3.5572261291666667,60.0,67.0
4,1.3222881208333335,3.6475875041666668,48.0,83.0
5,1.6837336208333333,3.6475875041666668,55.0,69.0
6,4.936743120833333,5.361441583333334,62.0,73.0
7,5.298188620833334,5.5542125166666665,64.0,79.0
8,5.659634120833333,6.4954768395833336,67.0,79.0
9,5.659634120833333,6.61897071875,60.0,76.0
10,4.213852120833334,6.90360905,48.0,84.0
11,4.575297620833333,6.914151210416667,55.0,64.0
12,7.1054161208333335,8.256017629166667,48.0,90.0
13,7.828307120833333,8.257523652083334,62.0,76.0
14,7.466861620833334,8.557222212500001,55.0,71.0
15,8.189752620833334,8.7018004125,64.0,78.0
16,8.551198120833334,9.426197435416666,62.0,75.0
17,8.912643620833334,9.5511973375,55.0,76.0
18,8.551198120833334,9.552703360416666,47.0,82.0
19,9.274089120833333,9.576799727083333,59.0,78.0
20,9.996980120833333,10.813244541666666,57.0,72.0
21,9.996980120833333,10.990955245833334,60.0,74.0
22,9.996980120833333,11.176196064583333,45.0,80.0
23,10.358425620833334,11.295171875000001,52.0,63.0
24,10.719871120833334,11.438244052083334,64.0,76.0
25,11.442762120833333,11.89155695,55.0,72.0
26,11.442762120833333,12.43824326875,59.0,76.0
27,12.165653120833333,12.524086575,55.0,85.0
28,11.804207620833333,12.56474919375,52.0,73.0
29,11.442762120833333,12.572279308333334,43.0,79.0
30,12.888544120833334,13.624989327083334,53.0,72.0
31,12.888544120833334,13.763543435416667,57.0,73.0
32,13.611435120833333,13.932218002083333,60.0,77.0
33,12.888544120833334,13.933724025,41.0,79.0
34,13.249989620833334,14.0150492625,48.0,62.0
35,14.334326120833333,14.801193225,55.0,74.0
36,14.334326120833333,15.07227735,62.0,77.0
37,14.695771620833334,15.305710902083334,50.0,75.0
38,14.334326120833333,15.38402409375,43.0,81.0
39,15.057217120833334,15.509023995833333,55.0,78.0
40,15.780108120833333,16.186734308333335,55.0,76.0
41,15.780108120833333,16.561734014583333,64.0,81.0
42,16.502999120833334,16.90209519375,55.0,84.0
43,16.141553620833335,17.048179416666667,52.0,73.0
44,15.780108120833333,17.076793852083334,48.0,77.0
45,16.864444620833332,17.26052864791667,64.0,83.0
46,17.225890120833334,18.2258893375,62.0,78.0
47,17.948781120833335,18.231913429166667,55.0,84.0
48,17.225890120833334,18.390045835416668,43.0,74.0
49,17.587335620833333,18.4246843625,50.0,70.0
50,18.671672120833335,18.893057489583335,55.0,78.0
51,18.671672120833335,19.344864364583334,64.0,83.0
52,19.394563120833332,19.5451654125,55.0,77.0
53,18.671672120833335,19.704803841666667,48.0,83.0
54,19.394563120833332,19.923177164583333,60.0,78.0
55,19.756008620833335,20.510526102083332,55.0,78.0
56,20.117454120833333,20.692754875000002,62.0,80.0
57,20.840345120833334,21.00450161875,55.0,75.0
58,20.478899620833335,21.16715209375,50.0,68.0
59,20.117454120833333,21.231911079166668,43.0,77.0
60,20.840345120833334,21.268055629166668,59.0,80.0
61,21.201790620833332,21.343356775,55.0,70.0
62,21.563236120833334,22.29666928125,60.0,80.0
63,21.563236120833334,22.700283422916666,45.0,79.0
64,22.286127120833335,22.718355697916667,57.0,80.0
65,21.924681620833333,22.72136774375,52.0,72.0
66,22.647572620833333,23.043656647916666,60.0,78.0
67,23.009018120833336,23.429198514583334,55.0,78.0
68,23.009018120833336,23.721366960416667,59.0,83.0
69,23.731909120833333,23.903595733333333,55.0,82.0
70,23.009018120833336,23.935222214583334,40.0,77.0
71,23.370463620833334,23.972872787500002,47.0,72.0
72,24.454800120833333,24.9307033625,55.0,77.0
73,24.454800120833333,24.97588405,60.0,71.0
74,24.816245620833335,25.646064247916666,52.0,71.0
75,25.539136620833332,25.69576300416667,60.0,85.0
76,25.177691120833334,25.766546081250002,55.0,86.0
77,24.454800120833333,25.846365295833333,48.0,79.0
78,25.900582120833334,26.352388995833333,55.0,79.0
79,25.900582120833334,26.713834495833336,59.0,78.0
80,26.623473120833335,26.790641664583333,55.0,85.0
81,25.900582120833334,26.82076212291667,43.0,76.0
82,26.262027620833333,26.881003039583334,50.0,60.0
83,27.346364120833336,28.335821177083336,60.0,77.0
84,27.346364120833336,28.415640391666667,57.0,73.0
85,28.430700620833335,28.629495645833334,62.0,79.0
86,28.069255120833333,28.653592012500003,52.0,76.0
87,27.346364120833336,28.679194402083333,45.0,82.0
88,28.792146120833333,29.14606150625,57.0,73.0
89,28.792146120833333,29.448772112500002,64.0,83.0
90,29.515037120833334,29.69877191666667,57.0,76.0
91,29.515037120833334,29.709314077083334,60.0,80.0
92,29.153591620833335,29.718350214583335,52.0,69.0
93,28.792146120833333,29.772567039583333,45.0,83.0
94,30.237928120833335,30.68822897291667,53.0,74.0
95,30.237928120833335,30.99997571666667,57.0,76.0
96,30.960819120833335,31.26955381875,53.0,82.0
97,30.237928120833335,31.480397027083335,41.0,83.0
98,30.599373620833333,31.524071691666666,48.0,64.0
99,31.683710120833336,32.475878175,55.0,78.0
100,32.406601120833336,32.82979356041667,59.0,84.0
101,32.045155620833334,32.859914018750004,50.0,74.0
102,31.683710120833336,32.93069709583333,43.0,81.0
103,32.76804662083333,33.14907041875,55.0,83.0
104,33.12949212083333,33.59334717916667,60.0,85.0
105,33.490937620833336,33.715335035416665,55.0,84.0
106,33.12949212083333,33.82075663958334,48.0,81.0
107,33.85238312083334,34.02557575625,55.0,80.0
108,34.21382862083333,34.40659955416667,55.0,82.0
109,33.85238312083334,34.45328626458333,47.0,77.0
110,33.85238312083334,34.53762354791667,59.0,79.0
111,34.575274120833335,35.08882793541667,60.0,78.0
112,34.575274120833335,35.3584060375,57.0,77.0
113,34.575274120833335,35.403586725000004,45.0,76.0
114,34.93671962083334,35.52708060416667,52.0,77.0
115,35.659610620833334,35.840333370833335,43.0,81.0
116,35.29816512083333,35.96834531875,60.0,75.0
117,35.29816512083333,36.103887381250004,64.0,84.0
118,36.021056120833336,36.72436882291667,53.0,73.0
119,36.021056120833336,36.80569406041667,57.0,78.0
120,36.74394712083333,37.015031245833335,60.0,78.0
121,36.38250162083333,37.028585452083334,48.0,74.0
122,36.021056120833336,37.066236025,41.0,83.0
123,37.46683812083334,38.1053918375,56.0,74.0
124,37.46683812083334,38.130994227083335,53.0,74.0
125,38.189729120833334,38.46533131458333,56.0,76.0
126,37.46683812083334,38.52707825416667,41.0,77.0
127,38.189729120833334,38.58581314791667,60.0,83.0
128,38.91262012083333,39.414125752083336,57.0,73.0
129,38.91262012083333,39.676173739583334,60.0,75.0
130,39.635511120833335,40.00147468958333,57.0,83.0
131,39.99695662083334,40.2740648375,59.0,79.0
132,40.35840212083333,41.77556968541667,60.0,83.0
133,39.27406562083333,41.78611184583333,52.0,72.0
134,38.91262012083333,41.793641960416664,45.0,83.0
135,41.804184120833334,42.05977381666666,55.0,79.0
136,41.804184120833334,42.442656316666664,64.0,84.0
137,42.525238816666665,42.676890316666665,55.0,79.0
138,42.525238816666665,42.866079316666664,60.0,81.0
139,41.804184120833334,42.92764081666667,48.0,79.0
140,42.885598816666665,43.03274581666667,55.0,77.0
141,43.245958816666665,43.67839081666666,55.0,76.0
142,43.245958816666665,43.68139381666666,62.0,79.0
143,43.966678816666665,44.15736931666667,55.0,83.0
144,43.966678816666665,44.19040231666666,59.0,78.0
145,43.245958816666665,44.327038816666665,43.0,82.0
146,43.606318816666665,44.36007181666667,50.0,65.0
147,44.687398816666665,45.085296316666664,60.0,79.0
148,44.687398816666665,45.167878816666665,57.0,75.0
149,45.047758816666665,45.490701316666666,52.0,75.0
150,44.687398816666665,45.519229816666666,45.0,84.0
151,45.408118816666665,45.53874931666667,57.0,82.0
152,45.408118816666665,45.63334381666667,60.0,84.0
153,45.408118816666665,45.77298331666667,64.0,84.0
154,45.768478816666665,45.87358381666667,57.0,86.0
155,46.128838816666665,46.56577531666667,55.0,79.0
156,46.128838816666665,46.87057981666666,52.0,82.0
157,46.489198816666665,46.93964881666667,47.0,70.0
158,46.128838816666665,46.957666816666666,40.0,85.0
159,46.849558816666665,46.95916831666666,55.0,75.0
160,46.849558816666665,46.97718631666667,59.0,79.0
161,47.570278816666665,48.062770816666664,53.0,74.0
162,47.570278816666665,48.325533316666665,57.0,73.0
163,48.290998816666665,48.468175816666665,53.0,87.0
164,47.570278816666665,48.600307816666664,41.0,83.0
165,47.930638816666665,48.70691431666667,48.0,75.0
166,49.011718816666665,49.44565231666667,55.0,75.0
167,49.011718816666665,49.792498816666665,59.0,77.0
168,49.732438816666665,50.16036631666667,55.0,87.0
169,49.372078816666665,50.241447316666665,50.0,75.0
170,49.011718816666665,50.313519316666664,43.0,83.0
171,50.092798816666665,50.45766331666667,59.0,89.0
172,50.453158816666665,50.936641816666665,60.0,82.0
173,51.173878816666665,51.30150631666667,55.0,78.0
174,51.173878816666665,51.568773316666665,60.0,79.0
175,50.453158816666665,51.613818316666666,48.0,83.0
176,50.813518816666665,51.793998316666666,52.0,71.0
177,51.173878816666665,51.81351781666667,64.0,84.0
178,51.534238816666665,51.974178316666666,55.0,77.0
179,51.894598816666665,52.45916281666666,62.0,83.0
180,52.615318816666665,52.80600931666667,55.0,79.0
181,52.254958816666665,53.23543831666667,50.0,70.0
182,52.975678816666665,53.241444316666666,55.0,79.0
183,52.615318816666665,53.250453316666665,59.0,79.0
184,51.894598816666665,53.278981816666665,43.0,81.0
185,53.336038816666665,53.556759316666664,55.0,78.0
186,53.336038816666665,54.00720931666667,64.0,83.0
187,54.056758816666665,54.20690881666667,55.0,77.0
188,53.336038816666665,54.366067816666664,48.0,83.0
189,54.056758816666665,54.58378531666666,60.0,78.0
190,54.417118816666665,55.169370316666665,55.0,78.0
191,54.777478816666665,55.35105181666667,62.0,80.0
192,55.498198816666665,55.661862316666664,55.0,75.0
193,55.137838816666665,55.824024316666666,50.0,68.0
194,54.777478816666665,55.88858881666667,43.0,77.0
195,55.498198816666665,55.924624816666665,59.0,80.0
196,55.858558816666665,55.99969981666666,55.0,70.0
197,56.218918816666665,56.95014931666667,60.0,80.0
198,56.218918816666665,57.35255131666666,45.0,79.0
199,56.939638816666665,57.37056931666667,57.0,80.0
200,56.579278816666665,57.37357231666667,52.0,72.0
201,57.299998816666665,57.694893316666665,60.0,78.0
202,57.660358816666665,58.07927731666666,55.0,78.0
203,57.660358816666665,58.37056831666666,59.0,83.0
204,58.381078816666665,58.55224981666667,55.0,82.0
205,57.660358816666665,58.583781316666666,40.0,77.0
206,58.020718816666665,58.621318816666665,47.0,72.0
207,59.101798816666665,59.576272816666666,55.0,77.0
208,59.101798816666665,59.62131781666666,60.0,71.0
209,59.462158816666665,60.28948531666667,52.0,71.0
210,60.182878816666666,60.33903481666667,60.0,85.0
211,59.822518816666665,60.40960531666667,55.0,86.0
212,59.101798816666665,60.489184816666665,48.0,79.0
213,60.543238816666666,60.995712077083326,55.0,79.0
214,60.543238816666666,61.35824957708333,59.0,78.0
215,61.26761520208333,61.43528879583333,55.0,85.0
216,60.543238816666666,61.46550025416666,43.0,76.0
217,60.90507770208333,61.52592317083333,50.0,60.0
218,61.99269020208333,62.98513660833333,60.0,77.0
219,61.99269020208333,63.06519697291666,57.0,73.0
220,63.08030270208333,63.27969832708333,62.0,79.0
221,62.71776520208333,63.30386749375,52.0,76.0
222,61.99269020208333,63.32954723333333,45.0,82.0
223,63.44284020208333,63.797824837499995,57.0,73.0
224,63.44284020208333,64.10144999375,64.0,83.0
225,64.16791520208334,64.35220509791667,57.0,76.0
226,64.16791520208334,64.36277910833333,60.0,80.0
227,63.80537770208333,64.37184254583333,52.0,69.0
228,63.44284020208333,64.42622317083332,45.0,83.0
229,64.89299020208333,65.34465150416666,53.0,74.0
230,64.89299020208333,65.65734009791666,57.0,76.0
231,65.61806520208333,65.92773265,53.0,82.0
232,64.89299020208333,66.13921285833332,41.0,83.0
233,65.25552770208333,66.18301947291667,48.0,64.0
234,66.34314020208333,67.13770155625,55.0,78.0
235,67.06821520208332,67.49268619166666,59.0,84.0
236,66.70567770208334,67.52289764999999,50.0,74.0
237,66.34314020208333,67.59389457708333,43.0,81.0
238,67.43075270208332,67.81292764999999,55.0,83.0
239,67.79329020208333,68.25854666041666,60.0,85.0
240,68.15582770208333,68.38090306666666,55.0,84.0
241,67.79329020208333,68.48664317083333,48.0,81.0
242,68.51836520208333,68.6920810875,55.0,80.0
243,68.88090270208333,69.07425603541667,55.0,82.0
244,68.51836520208333,69.12108379583333,47.0,77.0
245,68.51836520208333,69.20567587916666,59.0,79.0
246,69.24344020208333,69.75854556666667,60.0,78.0
247,69.24344020208333,70.02893811874999,57.0,77.0
248,69.24344020208333,70.07425530625,45.0,76.0
249,69.60597770208332,70.19812228541666,52.0,77.0
250,70.33105270208333,70.51232145208333,43.0,81.0
251,69.96851520208332,70.64072014999999,60.0,75.0
252,69.96851520208332,70.77667171249999,64.0,84.0
253,70.69359020208333,71.39902775416667,53.0,73.0
254,70.69359020208333,71.48059869166666,57.0,78.0
255,71.41866520208333,71.69056832708333,60.0,78.0
256,71.05612770208333,71.70416348333333,48.0,74.0
257,70.69359020208333,71.74192780624999,41.0,83.0
258,72.14374020208334,72.78422311874999,56.0,74.0
259,72.14374020208334,72.80990285833333,53.0,74.0
260,72.86881520208333,73.14525004583334,56.0,76.0
261,72.14374020208334,73.20718353541666,41.0,77.0
262,72.86881520208333,73.26609587916666,60.0,83.0
263,73.59389020208333,74.09691098333333,57.0,73.0
264,73.59389020208333,74.35975067083334,60.0,75.0
265,74.31896520208333,74.68603442083332,57.0,83.0
266,74.68150270208332,74.95944811874999,59.0,79.0
267,75.04404020208332,76.46548931666666,60.0,83.0
268,73.95642770208333,76.47606332708332,52.0,72.0
269,73.59389020208333,76.48361619166666,45.0,83.0
270,76.49419020208333,76.9398092125,53.0,79.0
271,76.49419020208333,77.2298392125,57.0,77.0
272,77.58180270208334,77.89298072291666,57.0,85.0
273,77.21926520208333,77.909597025,53.0,87.0
274,77.94434020208332,78.00174197291666,53.0,43.0
275,77.94434020208332,78.0092948375,57.0,61.0
276,77.94434020208332,78.36427947291666,60.0,80.0
277,78.30687770208333,78.51231561875,53.0,74.0
278,76.49419020208333,78.82047249375,41.0,77.0
279,78.66941520208333,78.82500421249999,57.0,84.0
280,78.66941520208333,78.83104650416666,53.0,84.0
281,76.85672770208333,78.85370509791666,48.0,73.0
282,78.66941520208333,78.87183197291667,60.0,83.0
283,79.03195270208333,79.16337254583333,41.0,84.0
284,79.39449020208333,79.50023030624999,36.0,81.0
285,79.39449020208333,79.67243561875,55.0,79.0
286,79.39449020208333,80.048568275,64.0,84.0
287,79.75702770208332,80.1301392125,55.0,72.0
288,80.11956520208332,80.38995775416666,60.0,78.0
289,80.48210270208332,80.68754061874999,55.0,67.0
290,80.84464020208333,80.99720806666666,55.0,84.0
291,80.84464020208333,81.24796317083333,64.0,84.0
292,81.20717770208333,81.46850681666666,55.0,76.0
293,79.75702770208332,81.76608968125,48.0,83.0
294,81.56971520208333,81.77515311875,55.0,81.0
295,81.56971520208333,81.94584785833332,60.0,83.0
296,81.93225270208333,82.06216197291667,59.0,99.0
297,82.29479020208333,82.80838499375,53.0,79.0
298,82.29479020208333,82.82651186874999,60.0,80.0
299,83.01986520208332,83.17847535833333,53.0,79.0
300,82.65732770208334,83.2298348375,48.0,73.0
301,83.01986520208332,83.36276525416666,57.0,75.0
302,83.38240270208333,83.63315780625,48.0,76.0
303,82.29479020208333,83.63920009791666,41.0,83.0
304,83.74494020208333,84.27061957708332,52.0,77.0
305,84.10747770208333,84.61805134791666,47.0,79.0
306,84.47001520208333,84.63919936875,52.0,87.0
307,83.74494020208333,84.6709214,40.0,83.0
308,84.47001520208333,84.8249998375,56.0,80.0
309,84.83255270208332,85.16638931666665,52.0,90.0
310,85.19509020208332,85.6860264,57.0,83.0
311,85.55762770208332,86.05309561874999,52.0,71.0
312,85.92016520208333,86.24644895208333,60.0,83.0
313,86.28270270208333,86.74191686875,52.0,74.0
314,86.64524020208333,86.94282306666666,60.0,89.0
315,86.64524020208333,86.95641822291665,57.0,81.0
316,86.64524020208333,87.01835171249999,64.0,87.0
317,87.37025169166665,87.49187319166666,57.0,77.0
318,87.00777770208333,87.51890019166666,52.0,75.0
319,85.19509020208332,87.59998119166666,45.0,83.0
320,87.37025169166665,87.67055169166666,60.0,85.0
321,88.09097169166665,88.59247269166666,60.0,80.0
322,88.09097169166665,88.65103119166666,53.0,80.0
323,88.81169169166665,89.01139119166666,60.0,84.0
324,88.81169169166665,89.02190169166666,56.0,74.0
325,89.17205169166665,89.38076019166665,53.0,75.0
326,89.53241169166665,89.72610519166666,53.0,77.0
327,89.53241169166665,89.85823719166666,60.0,83.0
328,90.25313169166665,90.34472319166666,53.0,77.0
329,88.45133169166665,90.38676519166665,48.0,71.0
330,88.09097169166665,90.44682519166666,41.0,84.0
331,90.25313169166665,90.46934769166666,56.0,83.0
332,90.25313169166665,90.53841669166665,60.0,83.0
333,90.61349169166665,90.71859669166666,53.0,83.0
334,90.97385169166665,91.16003769166666,55.0,82.0
335,90.97385169166665,91.49036769166666,60.0,83.0
336,91.33421169166665,91.51138869166665,55.0,80.0
337,90.97385169166665,91.51439169166666,48.0,84.0
338,91.69457169166665,91.86123819166666,55.0,82.0
339,91.69457169166665,92.20057719166665,47.0,92.0
340,92.05493169166665,92.20658319166665,55.0,85.0
341,91.69457169166665,92.25763419166665,59.0,83.0
342,92.41529169166665,92.82520119166665,60.0,84.0
343,92.41529169166665,92.90327919166666,57.0,77.0
344,93.13601169166665,93.29817369166666,57.0,80.0
345,92.77565169166665,93.31619169166666,52.0,76.0
346,93.13601169166665,93.36724269166666,60.0,83.0
347,92.41529169166665,93.39877419166666,45.0,81.0
348,93.13601169166665,93.40027569166665,64.0,84.0
349,93.85673169166665,94.24261719166665,57.0,77.0
350,93.85673169166665,94.29066519166666,65.0,84.0
351,94.21709169166665,94.72159569166666,45.0,57.0
352,93.85673169166665,94.78015419166665,38.0,85.0
353,94.57745169166665,94.86573969166666,57.0,82.0
354,94.93781169166665,95.12099469166665,62.0,86.0
355,95.29817169166665,95.47685019166666,57.0,77.0
356,95.29817169166665,95.73210519166666,65.0,83.0
357,96.01889169166665,96.15402669166666,57.0,79.0
358,96.01889169166665,96.26964219166666,62.0,84.0
359,95.29817169166665,96.27264519166665,50.0,83.0
360,96.73961169166665,97.27714869166665,57.0,76.0
361,96.73961169166665,97.29216369166666,60.0,83.0
362,97.46033169166665,97.80417519166666,64.0,82.0
363,97.82069169166665,98.00988069166665,57.0,76.0
364,98.18105169166665,98.66603619166666,64.0,84.0
365,98.18105169166665,98.67654669166666,60.0,78.0
366,98.90177169166665,99.04741719166665,57.0,75.0
367,97.09997169166665,99.16303269166666,52.0,75.0
368,96.73961169166665,99.28014969166665,45.0,85.0
369,98.90177169166665,99.59996919166666,60.0,77.0
370,99.26213169166665,99.61198119166666,57.0,79.0
371,100.34321169166665,100.76213019166666,59.0,77.0
372,100.70357169166665,100.90176969166666,60.0,79.0
373,101.06393169166665,101.30567319166666,64.0,83.0
374,101.42429169166665,101.67504219166666,57.0,67.0
375,101.78465169166665,102.08345019166666,57.0,71.0
376,101.78465169166665,102.10447119166666,60.0,71.0
377,99.98285169166665,102.16753419166666,52.0,70.0
378,99.62249169166665,102.27414069166666,45.0,84.0
379,102.50537169166665,102.97834419166665,60.0,79.0
380,102.86573169166665,103.26362919166665,55.0,72.0
381,103.22609169166665,103.60296819166666,62.0,67.0
382,103.58645169166665,104.12398869166665,64.0,84.0
383,103.94681169166665,104.27113569166666,55.0,77.0
384,104.30717169166665,104.51738169166666,60.0,71.0
385,104.66753169166665,104.79365769166665,64.0,84.0
386,102.50537169166665,105.16602969166667,48.0,79.0
387,105.38825169166665,105.64350669166666,55.0,79.0
388,105.38825169166665,106.02638919166665,64.0,84.0
389,106.10897169166665,106.26062319166665,55.0,79.0
390,106.10897169166665,106.44981219166667,60.0,81.0
391,105.38825169166665,106.51137369166666,48.0,79.0
392,106.46933169166665,106.61647869166666,55.0,77.0
393,106.82969169166665,107.26212369166666,55.0,76.0
394,106.82969169166665,107.26512669166667,62.0,79.0
395,107.55041169166665,107.74110219166666,55.0,83.0
396,107.55041169166665,107.77413519166666,59.0,78.0
397,106.82969169166665,107.91077169166665,43.0,82.0
398,107.19005169166665,107.94380469166666,50.0,65.0
399,108.27113169166665,108.66902919166665,60.0,79.0
400,108.27113169166665,108.75161169166665,57.0,75.0
401,108.63149169166665,109.07443419166665,52.0,75.0
402,108.27113169166665,109.10296269166666,45.0,84.0
403,108.99185169166665,109.12248219166666,57.0,82.0
404,108.99185169166665,109.21707669166666,60.0,84.0
405,108.99185169166665,109.35671619166666,64.0,84.0
406,109.35221169166665,109.45731669166666,57.0,86.0
407,109.71257169166665,110.14950819166665,55.0,79.0
408,109.71257169166665,110.45431269166666,52.0,82.0
409,110.07293169166665,110.52338169166666,47.0,70.0
410,109.71257169166665,110.54139969166665,40.0,85.0
411,110.43329169166665,110.54290119166666,55.0,75.0
412,110.43329169166665,110.56091919166666,59.0,79.0
413,111.15401169166665,111.64650369166665,53.0,74.0
414,111.15401169166665,111.90926619166666,57.0,73.0
415,111.87473169166665,112.05190869166665,53.0,87.0
416,111.15401169166665,112.18404069166665,41.0,83.0
417,111.51437169166665,112.29064719166666,48.0,75.0
418,112.59545169166665,113.02938519166666,55.0,75.0
419,112.59545169166665,113.37623169166666,59.0,77.0
420,113.31617169166665,113.74409919166666,55.0,87.0
421,112.95581169166665,113.82518019166666,50.0,75.0
422,112.59545169166665,113.89725219166665,43.0,83.0
423,113.67653169166665,114.04139619166665,59.0,89.0
424,114.03689169166665,114.52037469166666,60.0,82.0
425,114.75761169166665,114.88523919166666,55.0,78.0
426,114.75761169166665,115.15250619166666,60.0,79.0
427,114.03689169166665,115.19755119166666,48.0,83.0
428,114.39725169166665,115.37773119166665,52.0,71.0
429,114.75761169166665,115.39725069166666,64.0,84.0
430,115.11797169166665,115.55791119166666,55.0,77.0
431,115.47833169166665,116.04289569166666,62.0,83.0
432,116.19905169166665,116.39081279583333,55.0,79.0
433,115.83869169166665,116.82283664999999,50.0,70.0
434,116.56150753541665,116.82887894166666,55.0,79.0
435,116.19905169166665,116.83794237916666,59.0,79.0
436,115.47833169166665,116.86664326458332,43.0,81.0
437,116.92404503541665,117.14609925416666,55.0,78.0
438,116.92404503541665,117.59927112916665,64.0,83.0
439,117.64912003541666,117.80017732708332,55.0,77.0
440,116.92404503541665,117.96029805624998,48.0,83.0
441,117.64912003541666,118.17933112916666,60.0,78.0
442,118.01165753541666,118.76845456666666,55.0,78.0
443,118.37419503541666,118.95123388958332,62.0,80.0
444,119.09927003541665,119.26392248333332,55.0,75.0
445,118.73673253541665,119.42706435833333,50.0,68.0
446,118.37419503541666,119.49201899375,43.0,77.0
447,119.09927003541665,119.52827274375,59.0,80.0
448,119.46180753541665,119.60380138958332,55.0,70.0
449,119.82434503541666,120.55999404583332,60.0,80.0
450,119.82434503541666,120.96482758749998,45.0,79.0
451,120.54942003541666,120.98295446249999,57.0,80.0
452,120.18688253541666,120.98597560833332,52.0,72.0
453,120.91195753541666,121.30923821249999,60.0,78.0
454,121.27449503541665,121.69594487916666,55.0,78.0
455,121.27449503541665,121.98899602499999,59.0,83.0
456,121.99957003541665,122.17177534791665,55.0,82.0
457,121.27449503541665,122.20349737916665,40.0,77.0
458,121.63703253541665,122.24126170208332,47.0,72.0
459,122.72464503541666,123.20198607708332,55.0,77.0
460,122.72464503541666,123.24730326458332,60.0,71.0
461,123.08718253541666,123.91950821249999,52.0,71.0
462,123.81225753541665,123.96935711874998,60.0,85.0
463,123.44972003541666,124.04035404583333,55.0,86.0
464,122.72464503541666,124.12041441041666,48.0,79.0
465,124.17479503541665,124.62796691041666,55.0,79.0
466,124.17479503541665,124.99050441041666,59.0,78.0
467,124.89987003541665,125.06754362916665,55.0,85.0
468,124.17479503541665,125.09775508749999,43.0,76.0
469,124.53733253541665,125.15817800416666,50.0,60.0
470,125.62494503541666,126.61739144166665,60.0,77.0
471,125.62494503541666,126.69745180624999,57.0,73.0
472,126.71255753541665,126.91195316041666,62.0,79.0
473,126.35002003541666,126.93612232708332,52.0,76.0
474,125.62494503541666,126.96180206666665,45.0,82.0
475,127.07509503541665,127.43007967083332,57.0,73.0
476,127.07509503541665,127.73370482708333,64.0,83.0
477,127.80017003541666,127.98445993124999,57.0,76.0
478,127.80017003541666,127.99503394166666,60.0,80.0
479,127.43763253541665,128.00409737916667,52.0,69.0
480,127.07509503541665,128.05847800416666,45.0,83.0
481,128.52524503541665,128.9769063375,53.0,74.0
482,128.52524503541665,129.28959493124998,57.0,76.0
483,129.25032003541665,129.55998748333332,53.0,82.0
484,128.52524503541665,129.77146769166666,41.0,83.0
485,128.88778253541665,129.81527430625,48.0,64.0
486,129.97539503541665,130.7699563895833,55.0,78.0
487,130.70047003541666,131.124941025,59.0,84.0
488,130.33793253541666,131.15515248333332,50.0,74.0
489,129.97539503541665,131.22614941041667,43.0,81.0
490,131.06300753541666,131.44518248333333,55.0,83.0
491,131.42554503541666,131.89080149375,60.0,85.0
492,131.78808253541666,132.01315789999998,55.0,84.0
493,131.42554503541666,132.11889800416665,48.0,81.0
494,132.15062003541667,132.32433592083333,55.0,80.0
495,132.51315753541667,132.70651086875,55.0,82.0
496,132.15062003541667,132.75333862916665,47.0,77.0
497,132.15062003541667,132.8379307125,59.0,79.0
498,132.87569503541664,133.3911619895833,60.0,78.0
499,132.87569503541664,133.66237383958332,57.0,77.0
500,132.87569503541664,133.7078283395833,45.0,76.0
501,133.23823253541664,133.83207063958332,52.0,77.0
502,133.9654038395833,134.14722183958332,43.0,81.0
503,133.60176783958332,134.2760095895833,60.0,75.0
504,133.60176783958332,134.41237308958333,64.0,84.0
505,134.32903983958332,135.03661488958332,53.0,73.0
506,134.32903983958332,135.1184329895833,57.0,78.0
507,135.05631183958332,135.32903883958332,60.0,78.0
508,134.6926758395833,135.3426751895833,48.0,74.0
509,134.32903983958332,135.3805539395833,41.0,83.0
510,135.78358383958332,136.42600743958332,56.0,74.0
511,135.78358383958332,136.45176498958332,53.0,74.0
512,136.51085583958331,136.78728859791664,56.0,76.0
513,135.78358383958332,136.8490355375,41.0,77.0
514,136.51085583958331,136.90777043125,60.0,83.0
515,137.23457740416666,137.73608303541664,57.0,73.0
516,137.23457740416666,137.99813102291665,60.0,75.0
517,137.95746840416666,138.32343197291667,57.0,83.0
518,138.31891390416666,138.5960221208333,59.0,79.0
519,138.68035940416667,140.09752696874997,60.0,83.0
520,137.59602290416666,140.10806912916667,52.0,72.0
521,137.23457740416666,140.11559924374998,45.0,83.0
522,140.12614140416665,140.35053881874998,55.0,80.0
523,140.12614140416665,140.85204445,64.0,83.0
524,140.48758690416665,140.94240582499998,55.0,75.0
525,140.12614140416665,141.05987561249998,48.0,84.0
526,140.84903240416665,141.20144176666665,60.0,85.0
527,141.21047790416665,141.41077895208332,55.0,73.0
528,141.57192340416665,142.09150131041665,55.0,79.0
529,141.57192340416665,142.30385054166666,62.0,74.0
530,142.29481440416666,142.69089843125,59.0,76.0
531,141.93336890416666,142.71499479791666,50.0,68.0
532,141.57192340416665,142.77975378333332,43.0,83.0
533,143.01770540416666,143.53728331041665,57.0,77.0
534,143.01770540416666,143.78427106874997,60.0,77.0
535,143.37915090416666,144.02372871249997,52.0,74.0
536,143.01770540416666,144.12011417916665,45.0,83.0
537,143.74059640416664,144.27824658541664,57.0,85.0
538,144.46348740416664,145.17583624374998,59.0,83.0
539,144.46348740416664,145.42884809375,40.0,85.0
540,144.82493290416664,145.47553480416664,47.0,69.0
541,145.18637840416665,145.57945038541666,55.0,87.0
542,145.54782390416665,145.84601644166665,59.0,86.0
543,145.90926940416665,146.16378727708332,55.0,78.0
544,145.90926940416665,146.63216040416665,64.0,83.0
545,146.27071490416665,146.70896757291666,55.0,84.0
546,146.63216040416665,146.97553362916665,60.0,84.0
547,145.90926940416665,146.9815577208333,48.0,87.0
548,146.99360590416666,147.30384662499998,55.0,73.0
549,147.35505140416666,147.74812338541665,55.0,77.0
550,147.35505140416666,148.14420741249998,62.0,78.0
551,148.07794240416666,148.49962882083332,55.0,85.0
552,147.35505140416666,148.6396889520833,43.0,83.0
553,147.71649690416666,148.67583350208332,50.0,71.0
554,148.43938790416667,148.71047202916665,59.0,87.0
555,148.80083340416667,149.2466161875,57.0,76.0
556,148.80083340416667,149.27824266874998,60.0,78.0
557,149.52372440416664,149.81890489583333,59.0,83.0
558,149.88516990416664,149.99059150833332,60.0,84.0
559,150.24661540416665,150.39420564999998,57.0,73.0
560,150.24661540416665,150.40474781041667,64.0,86.0
561,150.60806090416665,150.74510898958331,57.0,74.0
562,150.96950640416665,151.16830142916666,60.0,85.0
563,150.96950640416665,151.19691586458333,57.0,84.0
564,149.16227890416664,151.2164941625,52.0,73.0
565,148.80083340416667,151.25113268958333,45.0,81.0
566,151.33095190416665,151.52372283749997,59.0,89.0
567,151.69239740416666,152.21197531041665,57.0,76.0
568,151.69239740416666,152.23908372291666,53.0,79.0
569,152.41528840416666,152.54179432916666,53.0,84.0
570,152.41528840416666,152.8610711875,60.0,83.0
571,151.69239740416666,152.88667357708331,41.0,85.0
572,152.05384290416666,152.89721573749998,48.0,72.0
573,152.77673390416666,152.93938437916665,53.0,84.0
574,153.13817940416666,153.56287786666667,59.0,73.0
575,153.13817940416666,153.9439016645833,55.0,80.0
576,153.49962490416664,154.29631102708333,50.0,76.0
577,153.86107040416664,154.33546762291667,62.0,84.0
578,153.13817940416666,154.33998569166664,43.0,83.0
579,154.58396140416664,155.02221407291665,64.0,84.0
580,154.94540690416665,155.34902104583333,55.0,94.0
581,154.58396140416664,155.35504513749999,48.0,78.0
582,155.30685240416665,155.84149053958333,62.0,84.0
583,155.66829790416665,155.87311702083332,55.0,90.0
584,155.30685240416665,155.95293623541664,47.0,84.0
585,156.02974340416665,156.8128753208333,60.0,81.0
586,156.75263440416666,156.91076681041665,57.0,84.0
587,156.39118890416665,156.9122728333333,52.0,83.0
588,156.02974340416665,156.91528487916665,45.0,78.0
589,157.47552540416666,157.98305512708333,53.0,80.0
590,157.47552540416666,158.24209106874997,60.0,79.0
591,157.83697090416666,158.31739221458332,48.0,70.0
592,157.47552540416666,158.39419938333333,41.0,83.0
593,158.19841640416666,158.3987174520833,57.0,83.0
594,158.92130740416667,159.21347584999998,53.0,76.0
595,158.92130740416667,159.25865653749997,60.0,79.0
596,158.92130740416667,160.12160766875,41.0,83.0
597,159.28275290416664,160.16377631041667,48.0,76.0
598,159.64419840416664,160.23757143333333,60.0,82.0
599,159.64419840416664,160.28425814374998,65.0,81.0
600,160.36708940416665,160.9017275395833,57.0,74.0
601,160.36708940416665,161.0839563125,64.0,83.0
602,160.72853490416665,161.29479952083332,52.0,70.0
603,161.08998040416665,161.51016079791665,60.0,76.0
604,160.36708940416665,163.01919576041666,45.0,82.0
605,161.45142590416665,163.04178610416665,52.0,78.0
606,161.81287140416666,163.19540044166666,57.0,71.0
607,161.81287140416666,163.20142453333332,60.0,76.0
608,163.25865340416667,163.5146773,55.0,79.0
609,163.25865340416667,163.89871314375,64.0,84.0
610,163.98154440416664,164.13365271875,55.0,79.0
611,163.98154440416664,164.32341160624998,60.0,81.0
612,163.25865340416667,164.38515854583332,48.0,79.0
613,164.34298990416664,164.49058014999997,55.0,77.0
614,164.70443540416665,165.13817000416665,55.0,76.0
615,164.70443540416665,165.14118205,62.0,79.0
616,165.42732640416665,165.6185913145833,55.0,83.0
617,165.42732640416665,165.65172381874999,59.0,78.0
618,164.70443540416665,165.78877190416665,43.0,82.0
619,165.06588090416665,165.82190440833332,50.0,65.0
620,166.15021740416665,166.54931347708333,60.0,79.0
621,166.15021740416665,166.63214473749997,57.0,75.0
622,166.51166290416666,166.95593966458333,52.0,75.0
623,166.15021740416665,166.9845541,45.0,84.0
624,166.87310840416666,167.00413239791666,57.0,82.0
625,166.87310840416666,167.09901184166665,60.0,84.0
626,166.87310840416666,167.23907197291666,64.0,84.0
627,167.23455390416666,167.3399755083333,57.0,86.0
628,167.59599940416666,168.03425207291664,55.0,79.0
629,167.59599940416666,168.339974725,52.0,82.0
630,167.95744490416666,168.40925177916665,47.0,70.0
631,167.59599940416666,168.42732405416666,40.0,85.0
632,168.31889040416667,168.42883007708332,55.0,75.0
633,168.31889040416667,168.44690235208333,59.0,79.0
634,169.04178140416667,169.5357569208333,53.0,74.0
635,169.04178140416667,169.79931093124998,57.0,73.0
636,169.76467240416665,169.94238310833333,53.0,87.0
637,169.04178140416667,170.074913125,41.0,83.0
638,169.40322690416664,170.1818407520833,48.0,75.0
639,170.48756340416665,170.92280402708332,55.0,75.0
640,170.48756340416665,171.2706953208333,59.0,77.0
641,171.21045440416665,171.63967093541666,55.0,87.0
642,170.84900890416665,171.72099617291667,50.0,75.0
643,170.48756340416665,171.79328527291665,43.0,83.0
644,171.57189990416666,171.93786347291666,59.0,89.0
645,171.93334540416666,172.41828478333332,60.0,82.0
646,172.65623640416666,172.78424835208332,55.0,78.0
647,172.65623640416666,173.05232043125,60.0,79.0
648,171.93334540416666,173.09750111875,48.0,83.0
649,172.29479090416666,173.27822386875,52.0,71.0
650,172.65623640416666,173.29780216666666,64.0,84.0
651,173.01768190416664,173.45894661875,55.0,77.0
652,173.37912740416664,173.9453920208333,62.0,83.0
653,174.10201840416664,174.29328331458333,55.0,79.0
654,173.74057290416664,174.72400586875,50.0,70.0
655,174.46346390416664,174.73002996041666,55.0,79.0
656,174.10201840416664,174.73906609791666,59.0,79.0
657,173.37912740416664,174.7676805333333,43.0,81.0
658,174.82490940416665,175.04629477291667,55.0,78.0
659,174.82490940416665,175.49810164791666,64.0,83.0
660,175.54780040416665,175.69840269583332,55.0,77.0
661,174.82490940416665,175.858041125,48.0,83.0
662,175.54780040416665,176.07641444791665,60.0,78.0
663,175.90924590416665,176.66376338541664,55.0,78.0
664,176.27069140416666,176.84599215833333,62.0,80.0
665,176.99358240416666,177.1577389020833,55.0,75.0
666,176.63213690416666,177.32038937708333,50.0,68.0
667,176.27069140416666,177.3851483625,43.0,77.0
668,176.99358240416666,177.42129291249998,59.0,80.0
669,177.35502790416666,177.49659405833333,55.0,70.0
670,177.71647340416666,178.44990656458333,60.0,80.0
671,177.71647340416666,178.85352070624998,45.0,79.0
672,178.43936440416667,178.87159298125,57.0,80.0
673,178.07791890416667,178.8746050270833,52.0,72.0
674,178.80080990416667,179.19689393124997,60.0,78.0
675,179.16225540416664,179.58243579791665,55.0,78.0
676,179.16225540416664,179.87460424374999,59.0,83.0
677,179.88514640416665,180.05683301666664,55.0,82.0
678,179.16225540416664,180.08845949791666,40.0,77.0
679,179.52370090416665,180.1261100708333,47.0,72.0
680,180.60803740416665,181.0839406458333,55.0,77.0
681,180.60803740416665,181.12912133333333,60.0,71.0
682,180.96948290416665,181.79930153125,52.0,71.0
683,181.69237390416666,181.8490002875,60.0,85.0
684,181.33092840416666,181.9197833645833,55.0,86.0
685,180.60803740416665,181.99960257916666,48.0,79.0
686,182.05381940416666,182.50562627916665,55.0,79.0
687,182.05381940416666,182.86707177916665,59.0,78.0
688,182.77671040416666,182.94387894791666,55.0,85.0
689,182.05381940416666,182.97399940625,43.0,76.0
690,182.41526490416666,183.03424032291665,50.0,60.0
691,183.49960140416664,184.48905846041666,60.0,77.0
692,183.49960140416664,184.56887767499998,57.0,73.0
693,184.58393790416665,184.78273292916666,62.0,79.0
694,184.22249240416664,184.80682929583332,52.0,76.0
695,183.49960140416664,184.83243168541665,45.0,82.0
696,184.94538340416665,185.2992987895833,57.0,73.0
697,184.94538340416665,185.6020093958333,64.0,83.0
698,185.66827440416665,185.8520092,57.0,76.0
699,185.66827440416665,185.86255136041666,60.0,80.0
700,185.30682890416665,185.87158749791666,52.0,69.0
701,184.94538340416665,185.92580432291666,45.0,83.0
702,186.39116540416666,186.84146625625,53.0,74.0
703,186.39116540416666,187.153213,57.0,76.0
704,187.11405640416666,187.42279110208332,53.0,82.0
705,186.39116540416666,187.63363431041665,41.0,83.0
706,186.75261090416666,187.677308975,48.0,64.0
707,187.83694740416666,188.62911545833333,55.0,78.0
708,188.55983840416667,188.98303084375,59.0,84.0
709,188.19839290416667,189.01315130208332,50.0,74.0
710,187.83694740416666,189.08393437916666,43.0,81.0
711,188.92128390416667,189.3023077020833,55.0,83.0
712,189.28272940416664,189.74658446249998,60.0,85.0
713,189.64417490416665,189.86857231874998,55.0,84.0
714,189.28272940416664,189.97399392291666,48.0,81.0
715,190.00562040416665,190.1788130395833,55.0,80.0
716,190.36706590416665,190.55983683749997,55.0,82.0
717,190.00562040416665,190.60652354791665,47.0,77.0
718,190.00562040416665,190.69086083124998,59.0,79.0
719,190.72851140416665,191.24206521874999,60.0,78.0
720,190.72851140416665,191.51164332083331,57.0,77.0
721,190.72851140416665,191.5568240083333,45.0,76.0
722,191.08995690416666,191.6803178875,52.0,77.0
723,191.81284790416666,191.99357065416666,43.0,81.0
724,191.45140240416666,192.12158260208332,60.0,75.0
725,191.45140240416666,192.25712466458333,64.0,84.0
726,192.17429340416666,192.87760610624997,53.0,73.0
727,192.17429340416666,192.95893134374998,57.0,78.0
728,192.89718440416664,193.16826852916665,60.0,78.0
729,192.53573890416666,193.18182273541666,48.0,74.0
730,192.17429340416666,193.2194733083333,41.0,83.0
731,193.62007540416664,194.25862912083332,56.0,74.0
732,193.62007540416664,194.28423151041665,53.0,74.0
733,194.34296640416665,194.61795532291666,56.0,76.0
734,193.62007540416664,194.67933249375,41.0,77.0
735,194.34296640416665,194.73771565625,60.0,83.0
736,195.06256556041666,195.56106794791665,57.0,73.0
737,195.06256556041666,195.82154667291667,60.0,75.0
738,195.78112756041665,196.14489957291667,57.0,83.0
739,196.14040856041666,196.41585732708333,59.0,79.0
740,196.49968956041667,197.90837048125,60.0,83.0
741,195.42184656041667,197.91884951041666,52.0,72.0
742,195.06256556041666,197.92633453125,45.0,83.0
743,197.93681356041665,198.37842978958332,53.0,79.0
744,197.93681356041665,198.66585458958332,57.0,77.0
745,199.01465656041665,199.32303941875,57.0,85.0
746,198.65537556041667,199.33950646458334,53.0,87.0
747,199.37393756041666,199.43082371875,53.0,43.0
748,199.37393756041666,199.43830873958333,57.0,61.0
749,199.37393756041666,199.79010471875,60.0,80.0
750,199.73321856041667,199.93681112708333,53.0,74.0
751,197.93681356041665,200.24219997708332,41.0,77.0
752,200.09249956041666,200.24669098958333,57.0,84.0
753,200.09249956041666,200.25267900625,53.0,84.0
754,198.29609456041666,200.27513406875,48.0,73.0
755,200.09249956041666,200.29309811874998,60.0,83.0
756,200.45178056041667,200.58201992291666,41.0,84.0
757,200.81180784166665,200.91754794583332,36.0,81.0
758,200.81180784166665,201.08975325833333,55.0,79.0
759,200.81180784166665,201.4658859145833,64.0,84.0
760,201.17434534166665,201.54745685208331,55.0,72.0
761,201.53688284166665,201.80727539375,60.0,78.0
762,201.89942034166666,202.1048582583333,55.0,67.0
763,202.26195784166666,202.41452570624998,55.0,84.0
764,202.26195784166666,202.66528081041665,64.0,84.0
765,202.62449534166666,202.88582445625,55.0,76.0
766,201.17434534166665,203.1834073208333,48.0,83.0
767,202.98703284166666,203.19247075833331,55.0,81.0
768,202.98703284166666,203.36316549791667,60.0,83.0
769,203.34957034166666,203.4794796125,59.0,99.0
770,203.71210784166666,204.22570263333333,53.0,79.0
771,203.71210784166666,204.24382950833333,60.0,80.0
772,204.43718284166664,204.59579299791665,53.0,79.0
773,204.07464534166667,204.64715247708332,48.0,73.0
774,204.43718284166664,204.78008289374998,57.0,75.0
775,204.79972034166664,205.0504754458333,48.0,76.0
776,203.71210784166666,205.05651773749997,41.0,83.0
777,205.16225784166664,205.68793721666665,52.0,77.0
778,205.52479534166665,206.0353689875,47.0,79.0
779,205.88733284166665,206.05651700833332,52.0,87.0
780,205.16225784166664,206.08823903958333,40.0,83.0
781,205.88733284166665,206.24231747708333,56.0,80.0
782,206.24987034166665,206.58370695624998,52.0,90.0
783,206.61240784166665,207.10334403958333,57.0,83.0
784,206.97494534166665,207.4704132583333,52.0,71.0
785,207.33748284166666,207.66376659166664,60.0,83.0
786,207.70002034166666,208.1588659583333,52.0,74.0
787,208.06248049166663,208.35916700624998,60.0,89.0
788,208.06248049166663,208.37272121249998,57.0,81.0
789,208.06248049166663,208.4344681520833,64.0,87.0
790,208.78537149166664,208.90735934791664,57.0,77.0
791,208.42392599166664,208.93446776041665,52.0,75.0
792,206.61240784166665,209.01579299791663,45.0,83.0
793,208.78537149166664,209.08657607499998,60.0,85.0
794,209.50826249166664,210.0112741458333,60.0,80.0
795,209.50826249166664,210.0700090395833,53.0,80.0
796,210.23115349166665,210.4314545395833,60.0,84.0
797,210.23115349166665,210.44199669999998,56.0,74.0
798,210.59259899166665,210.80193617708332,53.0,75.0
799,210.95404449166665,211.14832144791663,53.0,77.0
800,210.95404449166665,211.2808514645833,60.0,83.0
801,211.67693549166665,211.7688028895833,53.0,77.0
802,209.86970799166664,211.81097153124998,48.0,71.0
803,209.50826249166664,211.87121244791663,41.0,84.0
804,211.67693549166665,211.89380279166664,56.0,83.0
805,211.67693549166665,211.9630798458333,60.0,83.0
806,212.03838099166663,212.1438025958333,53.0,83.0
807,212.39982649166663,212.58657333333332,55.0,82.0
808,212.39982649166663,212.91789837499996,60.0,83.0
809,212.76127199166663,212.93898269583332,55.0,80.0
810,212.39982649166663,212.94199474166663,48.0,84.0
811,213.12271749166663,213.28988603541663,55.0,82.0
812,213.12271749166663,213.6302472145833,47.0,92.0
813,213.48416299166664,213.63627130624997,55.0,85.0
814,213.12271749166663,213.68747608541665,59.0,83.0
815,213.84560849166664,214.25675274791664,60.0,84.0
816,213.84560849166664,214.3350659395833,57.0,77.0
817,214.56849949166664,214.73114996666664,57.0,80.0
818,214.20705399166664,214.74922224166664,52.0,76.0
819,214.56849949166664,214.8004270208333,60.0,83.0
820,213.84560849166664,214.8320535020833,45.0,81.0
821,214.56849949166664,214.83355952499997,64.0,84.0
822,215.29139049166665,215.67711262499998,57.0,77.0
823,215.29139049166665,215.7250167583333,65.0,84.0
824,215.65166355416665,216.15465695416665,45.0,57.0
825,215.29139049166665,216.21304011666666,38.0,85.0
826,216.01094455416666,216.29836935416665,57.0,82.0
827,216.37022555416664,216.55286006249997,62.0,86.0
828,216.72950655416665,216.90765004999997,57.0,77.0
829,216.72950655416665,217.16214075833332,65.0,83.0
830,217.44806855416664,217.58279892916664,57.0,79.0
831,217.44806855416664,217.69806824999998,62.0,84.0
832,216.72950655416665,217.7010622583333,50.0,83.0
833,218.16663055416666,218.7025580458333,57.0,76.0
834,218.16663055416666,218.71752808749997,60.0,83.0
835,218.88519255416665,219.22800650833332,64.0,82.0
836,219.24447355416666,219.43309607916666,57.0,76.0
837,219.60375455416664,220.08728689999998,64.0,84.0
838,219.60375455416664,220.09776592916666,60.0,78.0
839,220.32231655416666,220.4675259583333,57.0,75.0
840,218.52591155416664,220.58279527916665,52.0,75.0
841,218.16663055416666,220.69956160416666,45.0,85.0
842,220.32231655416666,221.01842349166665,60.0,77.0
843,220.68159755416664,221.03039952499998,57.0,79.0
844,221.04087855416665,221.54087794583333,60.0,80.0
845,221.04087855416665,221.5992611083333,53.0,80.0
846,221.75944055416664,221.95854210833332,60.0,84.0
847,221.75944055416664,221.9690211375,56.0,74.0
848,222.11872155416665,222.32680513333332,53.0,75.0
849,222.47800255416666,222.67111609166665,53.0,77.0
850,222.47800255416666,222.80285245833332,60.0,83.0
851,223.19656455416666,223.2878818083333,53.0,77.0
852,221.40015955416666,223.32979792499998,48.0,71.0
853,221.04087855416665,223.38967809166664,41.0,84.0
854,223.19656455416666,223.41213315416664,56.0,83.0
855,223.19656455416666,223.48139217083332,60.0,83.0
856,223.55669331666664,223.66211492083332,53.0,83.0
857,223.91813881666664,224.1048856583333,55.0,82.0
858,223.91813881666664,224.43621069999998,60.0,83.0
859,224.27958431666664,224.4572950208333,55.0,80.0
860,223.91813881666664,224.46030706666664,48.0,84.0
861,224.64102981666665,224.80819836041664,55.0,82.0
862,224.64102981666665,225.14855953958332,47.0,92.0
863,225.00247531666665,225.15458363124998,55.0,85.0
864,224.64102981666665,225.20578841041663,59.0,83.0
865,225.36392081666665,225.77506507291665,60.0,84.0
866,225.36392081666665,225.8533782645833,57.0,77.0
867,226.08681181666662,226.24946229166665,57.0,80.0
868,225.72536631666665,226.26753456666663,52.0,76.0
869,226.08681181666662,226.3187393458333,60.0,83.0
870,225.36392081666665,226.3503658270833,45.0,81.0
871,226.08681181666662,226.35187184999998,64.0,84.0
872,226.80970281666663,227.19675070624996,57.0,77.0
873,226.80970281666663,227.2449434395833,65.0,84.0
874,227.17114831666663,227.67717201666665,45.0,57.0
875,226.80970281666663,227.73590691041665,38.0,85.0
876,227.53259381666663,227.82175021666663,57.0,82.0
877,227.89403931666664,228.07777411249998,62.0,86.0
878,228.25548481666664,228.43470154374998,57.0,77.0
879,228.25548481666664,228.6907254395833,65.0,83.0
880,228.97837581666664,229.11391787916665,57.0,79.0
881,228.97837581666664,229.22988164374996,62.0,84.0
882,228.25548481666664,229.2328936895833,50.0,83.0
883,229.70126681666665,230.24363575416666,57.0,76.0
884,229.70126681666665,230.25878725416666,60.0,83.0
885,230.42848405416666,230.77545340416665,64.0,82.0
886,230.79212005416665,230.98302895416666,57.0,76.0
887,231.15575605416666,231.64514950416665,64.0,84.0
888,231.15575605416666,231.65575555416666,60.0,78.0
889,231.88302805416666,232.02999760416665,57.0,75.0
890,230.06484805416665,232.14666415416664,52.0,75.0
891,229.70126681666665,232.26484585416665,45.0,85.0
892,231.88302805416666,232.58757280416665,60.0,77.0
893,232.24666405416664,232.59969400416665,57.0,79.0
894,233.33757205416666,233.76029890416666,59.0,77.0
895,233.70120805416664,233.90120785416664,60.0,79.0
896,234.06484405416666,234.30878320416664,64.0,83.0
897,234.42848005416664,234.68151010416665,57.0,67.0
898,234.79211605416666,235.09363090416664,57.0,71.0
899,234.79211605416666,235.11484300416666,60.0,71.0
900,232.97393605416664,235.17847930416664,52.0,70.0
901,232.61030005416666,235.28605495416664,45.0,84.0
902,235.47393355416665,235.93908460416665,57.0,73.0
903,235.48150930416665,236.27999335416666,62.0,76.0
904,236.20726615416666,236.75878075416665,57.0,71.0
905,236.56787185416664,236.79059890416664,62.0,79.0
906,236.92847755416665,237.52090120416665,57.0,79.0
907,236.92847755416665,237.66938590416666,65.0,75.0
908,235.83453925416666,237.84059785416665,45.0,53.0
909,235.47393355416665,237.93453715416666,38.0,83.0
910,237.66787075416664,238.39211245416664,62.0,78.0
911,239.09665720416666,239.44665685416666,59.0,76.0
912,239.44817200416665,239.62847485416665,60.0,74.0
913,239.84514130416665,240.06332290416665,57.0,73.0
914,239.83908070416666,240.24211060416664,64.0,84.0
915,240.55271635416665,240.71483740416664,57.0,75.0
916,238.74211210416667,240.96483715416664,52.0,70.0
917,238.37544580416665,241.08301885416665,45.0,83.0
918,240.96938260416664,241.34968525416664,57.0,55.0
919,240.55120120416666,241.39513975416665,60.0,75.0
920,242.00271490416665,242.56483555416665,53.0,76.0
921,242.37089635416666,242.60574460416666,57.0,77.0
922,242.77544140416666,243.51634975416664,53.0,80.0
923,242.77998685416665,243.55422850416664,60.0,80.0
924,241.65271525416665,243.92695540416665,48.0,70.0
925,241.31635195416666,244.07240980416665,41.0,83.0
926,243.53756185416665,244.76634850416664,59.0,77.0
927,245.72543845416664,245.92998370416666,57.0,65.0
928,245.90422615416665,246.18604405416664,59.0,76.0
929,246.10725625416666,246.47543770416667,60.0,73.0
930,246.39816505416664,246.60574060416664,64.0,80.0
931,247.17392185416665,247.92846655416665,57.0,28.0
932,245.52089320416664,248.87846560416665,52.0,67.0
933,245.19665110416665,248.93604130416665,45.0,83.0
