,start,end,pitch,velocity
0,28.880000000000003,29.793333333333337,60.0,127.0
1,30.080000000000002,30.465000000000003,57.0,122.0
2,30.48,30.843333333333334,55.0,93.0
3,30.880000000000003,31.203333333333337,52.0,81.0
4,31.28,31.90666666666667,55.0,85.0
5,31.680000000000003,32.04333333333334,57.0,93.0
6,32.080000000000005,33.46666666666667,60.0,102.0
7,35.28,35.51166666666667,60.0,95.0
8,35.68,35.90166666666667,60.0,93.0
9,36.080000000000005,36.39666666666667,60.0,89.0
10,36.480000000000004,36.805,57.0,92.0
11,36.88,37.18,64.0,100.0
12,37.28,37.55166666666667,67.0,90.0
13,37.68,37.913333333333334,67.0,96.0
14,38.080000000000005,38.445,60.0,88.0
15,38.480000000000004,40.445,62.0,99.0
16,41.68,41.98666666666667,64.0,100.0
17,42.080000000000005,42.45666666666667,64.0,100.0
18,42.480000000000004,42.825,62.0,92.0
19,42.88,43.278333333333336,64.0,107.0
20,43.28,44.42,67.0,97.0
21,44.88,45.230000000000004,64.0,100.0
22,45.28,45.733333333333334,67.0,93.0
23,45.68,46.08833333333334,62.0,100.0
24,46.080000000000005,46.473333333333336,60.0,90.0
25,46.480000000000004,47.605000000000004,57.0,92.0
26,48.080000000000005,48.47666666666667,55.0,93.0
27,48.480000000000004,48.91833333333334,52.0,69.0
28,48.88,49.21166666666667,55.0,95.0
29,49.28,49.678333333333335,57.0,99.0
30,49.68,50.05666666666667,64.0,96.0
31,50.080000000000005,50.355000000000004,62.0,100.0
32,50.480000000000004,50.88333333333334,62.0,117.0
33,50.88,51.223333333333336,60.0,102.0
34,51.28,52.160000000000004,62.0,99.0
35,54.480000000000004,55.39333333333334,60.0,127.0
36,55.68000000000001,56.065000000000005,57.0,122.0
37,56.080000000000005,56.443333333333335,55.0,93.0
38,56.480000000000004,56.803333333333335,52.0,81.0
39,56.88,57.50666666666667,55.0,85.0
40,57.28,57.64333333333334,57.0,93.0
41,57.68000000000001,59.06666666666667,60.0,102.0
42,60.88,61.11166666666667,60.0,95.0
43,61.28,61.50166666666667,60.0,93.0
44,61.68000000000001,61.99666666666667,60.0,89.0
45,62.080000000000005,62.405,57.0,92.0
46,62.480000000000004,62.78,64.0,100.0
47,62.88,63.15166666666667,67.0,90.0
48,63.28,63.513333333333335,67.0,96.0
49,63.68000000000001,64.045,60.0,88.0
50,64.08,66.045,62.0,99.0
51,67.28,67.58666666666667,64.0,100.0
52,67.68,68.05666666666667,64.0,100.0
53,68.08,68.42500000000001,62.0,92.0
54,68.48,68.87833333333334,64.0,107.0
55,68.88000000000001,70.02000000000001,67.0,97.0
56,70.48,70.83,64.0,100.0
57,70.88000000000001,71.33333333333334,67.0,93.0
58,71.28,71.68833333333333,62.0,100.0
59,71.68,72.07333333333334,60.0,90.0
60,72.08,73.205,57.0,92.0
61,73.68,74.07666666666667,55.0,93.0
62,74.08,74.51833333333335,52.0,69.0
63,74.48,74.81166666666667,55.0,95.0
64,74.88000000000001,75.27833333333334,57.0,99.0
65,75.28,75.65666666666667,64.0,96.0
66,75.68,75.90333333333334,64.0,99.0
67,76.08,76.43166666666667,55.0,96.0
68,76.48,76.88000000000001,57.0,86.0
69,76.88000000000001,77.83833333333334,60.0,95.0
70,80.08,80.39333333333335,69.0,112.0
71,80.48,80.73166666666667,72.0,112.0
72,80.88000000000001,81.10833333333333,72.0,107.0
73,81.28,81.36666666666667,69.0,107.0
74,81.48,81.59333333333333,69.0,96.0
75,81.68,82.81333333333333,72.0,102.0
76,82.88000000000001,83.09166666666667,72.0,112.0
77,83.28,83.68666666666667,69.0,107.0
78,83.68,83.80000000000001,67.0,100.0
79,84.08,84.37166666666667,67.0,122.0
80,84.48,84.83000000000001,64.0,99.0
81,84.88000000000001,85.68833333333333,67.0,99.0
82,86.48,86.72166666666668,69.0,122.0
83,86.88000000000001,87.06333333333333,69.0,107.0
84,87.08000000000001,87.16333333333334,72.0,102.0
85,87.28,87.48333333333333,72.0,127.0
86,87.68,87.84166666666667,69.0,127.0
87,88.08000000000001,88.44166666666668,69.0,127.0
88,88.48,88.72333333333334,67.0,102.0
89,88.88000000000001,89.19000000000001,67.0,122.0
90,89.28,89.44666666666667,64.0,117.0
91,89.48,89.61666666666667,62.0,88.0
92,89.68,91.2,64.0,100.0
93,92.88000000000001,93.19333333333334,64.0,122.0
94,93.28,93.99833333333333,62.0,107.0
95,94.08000000000001,94.44500000000001,64.0,97.0
96,94.48,94.72500000000001,67.0,92.0
97,94.88000000000001,95.15166666666667,67.0,93.0
98,95.28,95.61333333333334,67.0,112.0
99,95.68,95.86166666666668,67.0,117.0
100,95.88000000000001,96.06333333333333,69.0,79.0
101,96.08000000000001,96.385,64.0,99.0
102,96.48,96.71833333333333,62.0,99.0
103,96.68,96.93,64.0,92.0
104,96.88000000000001,97.19666666666667,62.0,97.0
105,97.28,97.66000000000001,55.0,96.0
106,97.68,97.92,55.0,86.0
107,98.08000000000001,98.9,57.0,100.0
108,99.28,99.555,62.0,112.0
109,99.68,99.93666666666667,62.0,102.0
110,100.08000000000001,100.33833333333334,62.0,107.0
111,100.48,100.76833333333335,64.0,107.0
112,100.88000000000001,101.15333333333334,67.0,112.0
113,101.28,101.71166666666667,64.0,117.0
114,102.28,102.44833333333334,64.0,99.0
115,102.48,102.83666666666667,55.0,97.0
116,102.88000000000001,103.21833333333333,57.0,95.0
117,103.28,103.64166666666668,62.0,107.0
118,103.68,104.06666666666668,64.0,107.0
119,104.08000000000001,104.73666666666668,60.0,112.0
120,105.68,105.99333333333334,69.0,112.0
121,106.08000000000001,106.33166666666668,72.0,112.0
122,106.48,106.70833333333334,72.0,107.0
123,106.88000000000001,106.96666666666667,69.0,107.0
124,107.08000000000001,107.19333333333334,69.0,96.0
125,107.28,108.41333333333334,72.0,102.0
126,108.48,108.69166666666668,72.0,112.0
127,108.88000000000001,109.28666666666668,69.0,107.0
128,109.28,109.4,67.0,100.0
129,109.68,109.97166666666668,67.0,122.0
130,110.08000000000001,110.43,64.0,99.0
131,110.48,111.28833333333334,67.0,99.0
132,112.08000000000001,112.32166666666667,69.0,122.0
133,112.48,112.66333333333334,69.0,107.0
134,112.68,112.76333333333334,72.0,102.0
135,112.88000000000001,113.08333333333334,72.0,127.0
136,113.28,113.44166666666668,69.0,127.0
137,113.68,114.04166666666667,69.0,127.0
138,114.08000000000001,114.32333333333334,67.0,102.0
139,114.48,114.79,67.0,122.0
140,114.88000000000001,115.04666666666668,64.0,117.0
141,115.08000000000001,115.21666666666667,62.0,88.0
142,115.28,116.80000000000001,64.0,100.0
143,118.48,118.79333333333334,64.0,122.0
144,118.88000000000001,119.59833333333334,62.0,107.0
145,119.68,120.045,64.0,97.0
146,120.08000000000001,120.325,67.0,92.0
147,120.48,120.75166666666668,67.0,93.0
148,120.88000000000001,121.21333333333334,67.0,112.0
149,121.28,121.46166666666667,67.0,117.0
150,121.48,121.66333333333334,69.0,79.0
151,121.68,121.98500000000001,64.0,99.0
152,122.08000000000001,122.31833333333334,62.0,99.0
153,122.28,122.53,64.0,92.0
154,122.48,122.79666666666668,62.0,97.0
155,122.88000000000001,123.26,55.0,96.0
156,123.28,123.52000000000001,55.0,86.0
157,123.68,124.50000000000001,57.0,100.0
158,124.88000000000001,125.155,62.0,112.0
159,125.28,125.53666666666668,62.0,102.0
160,125.68,125.93833333333335,62.0,107.0
161,126.08000000000001,126.36833333333334,64.0,107.0
162,126.48,126.75333333333334,67.0,112.0
163,126.88000000000001,127.31166666666668,64.0,117.0
164,127.68,127.85166666666667,62.0,117.0
165,127.88000000000001,128.04833333333335,64.0,99.0
166,128.08,128.43666666666667,55.0,97.0
167,128.48000000000002,128.81833333333333,57.0,95.0
168,128.88,129.24166666666667,62.0,107.0
169,129.28,129.66666666666669,64.0,107.0
170,129.68,130.33666666666667,60.0,112.0
171,156.88000000000002,157.79333333333335,60.0,127.0
172,158.08,158.465,57.0,122.0
173,158.48000000000002,158.84333333333333,55.0,93.0
174,158.88000000000002,159.20333333333335,52.0,81.0
175,159.28,159.90666666666667,55.0,85.0
176,159.68,160.04333333333335,57.0,93.0
177,160.08,161.46666666666667,60.0,102.0
178,163.28,163.51166666666668,60.0,95.0
179,163.68,163.90166666666667,60.0,93.0
180,164.08,164.39666666666668,60.0,89.0
181,164.48000000000002,164.805,57.0,92.0
182,164.88000000000002,165.18,64.0,100.0
183,165.28,165.55166666666668,67.0,90.0
184,165.68,165.91333333333336,67.0,96.0
185,166.08,166.44500000000002,60.0,88.0
186,166.48000000000002,168.44500000000002,62.0,99.0
187,169.68,169.98666666666668,64.0,100.0
188,170.08,170.45666666666668,64.0,100.0
189,170.48000000000002,170.82500000000002,62.0,92.0
190,170.88000000000002,171.27833333333334,64.0,107.0
191,171.28,172.42000000000002,67.0,97.0
192,172.88000000000002,173.23000000000002,64.0,100.0
193,173.28,173.73333333333335,67.0,93.0
194,173.68,174.08833333333334,62.0,100.0
195,174.08,174.47333333333336,60.0,90.0
196,174.48000000000002,175.60500000000002,57.0,92.0
197,176.08,176.4766666666667,55.0,93.0
198,176.48000000000002,176.91833333333335,52.0,69.0
199,176.88000000000002,177.21166666666667,55.0,95.0
200,177.28,177.67833333333334,57.0,99.0
201,177.68,178.05666666666667,64.0,96.0
202,178.08,178.30333333333334,64.0,99.0
203,178.48000000000002,178.83166666666668,55.0,96.0
204,178.88000000000002,179.28,57.0,86.0
205,179.28,180.23833333333334,60.0,95.0
206,182.48000000000002,182.79333333333335,69.0,112.0
207,182.88000000000002,183.1316666666667,72.0,112.0
208,183.28,183.50833333333335,72.0,107.0
209,183.68,183.76666666666668,69.0,107.0
210,183.88000000000002,183.99333333333334,69.0,96.0
211,184.08,185.21333333333334,72.0,102.0
212,185.28,185.49166666666667,72.0,112.0
213,185.68,186.08666666666667,69.0,107.0
214,186.08,186.20000000000002,67.0,100.0
215,186.48000000000002,186.77166666666668,67.0,122.0
216,186.88000000000002,187.23000000000002,64.0,99.0
217,187.28,188.08833333333334,67.0,99.0
218,188.88000000000002,189.12166666666667,69.0,122.0
219,189.28,189.46333333333334,69.0,107.0
220,189.48000000000002,189.56333333333333,72.0,102.0
221,189.68,189.88333333333335,72.0,127.0
222,190.08,190.24166666666667,69.0,127.0
223,190.48000000000002,190.84166666666667,69.0,127.0
224,190.88000000000002,191.12333333333333,67.0,102.0
225,191.28,191.59,67.0,122.0
226,191.68,191.8466666666667,64.0,117.0
227,191.88000000000002,192.01666666666668,62.0,88.0
228,192.08,193.60000000000002,64.0,100.0
229,195.28,195.59333333333333,64.0,122.0
230,195.68,196.39833333333334,62.0,107.0
231,196.48000000000002,196.845,64.0,97.0
232,196.88000000000002,197.125,67.0,92.0
233,197.28,197.55166666666668,67.0,93.0
234,197.68,198.01333333333335,67.0,112.0
235,198.08,198.26166666666668,67.0,117.0
236,198.28,198.46333333333334,69.0,79.0
237,198.48000000000002,198.78500000000003,64.0,99.0
238,198.88000000000002,199.11833333333334,62.0,99.0
239,199.08,199.33,64.0,92.0
240,199.28,199.5966666666667,62.0,97.0
241,199.68,200.06,55.0,96.0
242,200.08,200.32000000000002,55.0,86.0
243,200.48000000000002,201.3,57.0,100.0
244,201.68,201.955,62.0,112.0
245,202.08,202.33666666666667,62.0,102.0
246,202.48000000000002,202.73833333333334,62.0,107.0
247,202.88000000000002,203.16833333333335,64.0,107.0
248,203.28,203.55333333333334,67.0,112.0
249,203.68,204.11166666666668,64.0,117.0
250,204.68,204.84833333333336,64.0,99.0
251,204.88000000000002,205.23666666666668,55.0,97.0
252,205.28,205.61833333333334,57.0,95.0
253,205.68,206.04166666666669,62.0,107.0
254,206.08,206.46666666666667,64.0,107.0
255,206.48000000000002,207.13666666666668,60.0,112.0
256,208.08,208.39333333333335,69.0,112.0
257,208.48000000000002,208.73166666666668,72.0,112.0
258,208.88000000000002,209.10833333333335,72.0,107.0
259,209.28,209.36666666666667,69.0,107.0
260,209.48000000000002,209.59333333333333,69.0,96.0
261,209.68,210.81333333333336,72.0,102.0
262,210.88000000000002,211.09166666666667,72.0,112.0
263,211.28,211.68666666666667,69.0,107.0
264,211.68,211.8,67.0,100.0
265,212.08,212.37166666666667,67.0,122.0
266,212.48000000000002,212.83,64.0,99.0
267,212.88000000000002,213.68833333333336,67.0,99.0
268,214.48000000000002,214.7216666666667,69.0,122.0
269,214.88000000000002,215.06333333333336,69.0,107.0
270,215.08,215.16333333333336,72.0,102.0
271,215.28,215.48333333333335,72.0,127.0
272,215.68,215.84166666666667,69.0,127.0
273,216.08,216.4416666666667,69.0,127.0
274,216.48000000000002,216.72333333333336,67.0,102.0
275,216.88000000000002,217.19000000000003,67.0,122.0
276,217.28,217.4466666666667,64.0,117.0
277,217.48000000000002,217.61666666666667,62.0,88.0
278,217.68,219.20000000000002,64.0,100.0
279,220.88000000000002,221.19333333333336,64.0,122.0
280,221.28,221.99833333333333,62.0,107.0
281,222.08,222.44500000000002,64.0,97.0
282,222.48000000000002,222.72500000000002,67.0,92.0
283,222.88000000000002,223.15166666666667,67.0,93.0
284,223.28,223.61333333333334,67.0,112.0
285,223.68,223.86166666666668,67.0,117.0
286,223.88000000000002,224.06333333333336,69.0,79.0
287,224.08,224.38500000000002,64.0,99.0
288,224.48000000000002,224.71833333333333,62.0,99.0
289,224.68,224.93,64.0,92.0
290,224.88000000000002,225.1966666666667,62.0,97.0
291,225.28,225.66000000000003,55.0,96.0
292,225.68,225.92000000000002,55.0,86.0
293,226.08,226.9,57.0,100.0
294,227.28,227.555,62.0,112.0
295,227.68,227.93666666666667,62.0,102.0
296,228.08,228.33833333333334,62.0,107.0
297,228.48000000000002,228.76833333333335,64.0,107.0
298,228.88000000000002,229.15333333333334,67.0,112.0
299,229.28,229.71166666666667,64.0,117.0
300,230.08,230.2516666666667,62.0,117.0
301,230.28,230.44833333333335,64.0,99.0
302,230.48000000000002,230.83666666666667,55.0,97.0
303,230.88000000000002,231.21833333333336,57.0,95.0
304,231.28,231.64166666666668,62.0,107.0
305,231.68,232.0666666666667,64.0,107.0
306,232.08,232.73666666666668,60.0,112.0
307,233.68,233.99333333333334,69.0,112.0
308,234.08,234.33166666666668,72.0,112.0
309,234.48000000000002,234.70833333333334,72.0,107.0
310,234.88000000000002,234.96666666666667,69.0,107.0
311,235.08,235.19333333333336,69.0,96.0
312,235.28,236.41333333333336,72.0,102.0
313,236.48000000000002,236.6916666666667,72.0,112.0
314,236.88000000000002,237.2866666666667,69.0,107.0
315,237.28,237.4,67.0,100.0
316,237.68,237.9716666666667,67.0,122.0
317,238.08,238.43,64.0,99.0
318,238.48000000000002,239.28833333333336,67.0,99.0
319,240.08,240.3216666666667,69.0,122.0
320,240.48000000000002,240.66333333333336,69.0,107.0
321,240.68,240.76333333333335,72.0,102.0
322,240.88000000000002,241.08333333333334,72.0,127.0
323,241.28000000000003,241.4416666666667,69.0,127.0
324,241.68,242.04166666666669,69.0,127.0
325,242.08,242.32333333333335,67.0,102.0
326,242.48000000000002,242.79000000000002,67.0,122.0
327,242.88000000000002,243.04666666666668,64.0,117.0
328,243.08,243.21666666666667,62.0,88.0
329,243.28000000000003,244.8,64.0,100.0
330,246.48000000000002,246.79333333333335,64.0,122.0
331,246.88000000000002,247.59833333333336,62.0,107.0
332,247.68,248.04500000000002,64.0,97.0
333,248.08,248.32500000000002,67.0,92.0
334,248.48000000000002,248.7516666666667,67.0,93.0
335,248.88000000000002,249.21333333333334,67.0,112.0
336,249.28000000000003,249.46166666666667,67.0,117.0
337,249.48000000000002,249.66333333333336,69.0,79.0
338,249.68,249.985,64.0,99.0
339,250.08,250.31833333333336,62.0,99.0
340,250.28000000000003,250.53000000000003,64.0,92.0
341,250.48000000000002,250.79666666666668,62.0,97.0
342,250.88000000000002,251.26000000000002,55.0,96.0
343,251.28000000000003,251.52,55.0,86.0
344,251.68,252.50000000000003,57.0,100.0
345,252.88000000000002,253.15500000000003,62.0,112.0
346,253.28000000000003,253.5366666666667,62.0,102.0
347,253.68,253.93833333333336,62.0,107.0
348,254.08,254.36833333333334,64.0,107.0
349,254.48000000000002,254.75333333333336,67.0,112.0
350,254.88000000000002,255.3116666666667,64.0,117.0
351,255.68,255.8516666666667,62.0,117.0
352,255.88000000000002,256.04833333333335,64.0,99.0
353,256.08000000000004,256.43666666666667,55.0,97.0
354,256.48,256.8183333333333,57.0,95.0
355,256.88,257.2416666666667,62.0,107.0
356,257.28000000000003,257.6666666666667,64.0,107.0
357,257.68,258.3366666666667,60.0,112.0
358,259.28000000000003,259.555,62.0,112.0
359,259.68,259.93666666666667,62.0,102.0
360,260.08000000000004,260.33833333333337,62.0,107.0
361,260.48,260.7683333333334,64.0,107.0
362,260.88,261.15333333333336,67.0,112.0
363,261.28000000000003,261.7116666666667,64.0,117.0
364,262.08000000000004,262.25166666666667,62.0,117.0
365,262.28000000000003,262.4483333333333,64.0,99.0
366,262.48,262.8366666666667,55.0,97.0
367,262.88,263.21833333333336,57.0,95.0
368,263.28000000000003,263.6416666666667,62.0,107.0
369,263.68,264.06666666666666,64.0,107.0
370,264.08000000000004,264.7366666666667,60.0,112.0
