,start,end,pitch,velocity
0,3.68,4.565,52.0,67.0
1,3.2800000000000002,4.838333333333334,45.0,83.0
2,4.08,5.021666666666667,57.0,90.0
3,4.48,5.128333333333334,64.0,89.0
4,4.88,5.800000000000001,48.0,74.0
5,5.28,6.583333333333334,55.0,56.0
6,6.08,6.633333333333334,60.0,67.0
7,5.680000000000001,6.6883333333333335,64.0,99.0
8,6.880000000000001,7.421666666666667,52.0,89.0
9,6.48,7.458333333333334,45.0,79.0
10,7.28,8.178333333333335,64.0,107.0
11,7.680000000000001,8.195,57.0,83.0
12,8.08,9.280000000000001,43.0,81.0
13,8.48,9.363333333333333,50.0,61.0
14,9.280000000000001,9.700000000000001,59.0,79.0
15,9.48,9.708333333333334,55.0,73.0
16,8.88,9.726666666666667,62.0,99.0
17,10.08,10.871666666666668,52.0,68.0
18,9.680000000000001,11.05,45.0,72.0
19,10.88,11.303333333333335,57.0,92.0
20,10.48,11.47,64.0,95.0
21,11.280000000000001,12.235000000000001,48.0,74.0
22,11.680000000000001,12.508333333333335,55.0,78.0
23,12.08,12.855,64.0,88.0
24,12.48,12.888333333333334,60.0,74.0
25,13.280000000000001,13.736666666666668,55.0,77.0
26,13.48,13.828333333333335,59.0,90.0
27,13.88,14.120000000000001,55.0,77.0
28,12.88,14.366666666666667,43.0,88.0
29,13.08,14.466666666666667,50.0,49.0
30,14.280000000000001,14.510000000000002,59.0,69.0
31,14.08,14.526666666666667,62.0,55.0
32,13.680000000000001,14.575000000000001,67.0,102.0
33,14.88,15.228333333333333,55.0,93.0
34,14.680000000000001,15.276666666666667,50.0,53.0
35,14.48,15.288333333333334,43.0,56.0
36,15.080000000000002,15.378333333333334,67.0,89.0
37,15.48,15.760000000000002,71.0,79.0
38,15.680000000000001,16.085,67.0,102.0
39,15.280000000000001,16.09,74.0,127.0
40,15.88,16.148333333333333,71.0,71.0
41,16.080000000000002,17.23166666666667,48.0,78.0
42,16.48,17.253333333333334,55.0,69.0
43,17.28,17.68,64.0,93.0
44,16.880000000000003,17.68,67.0,107.0
45,18.080000000000002,18.883333333333333,52.0,59.0
46,17.68,19.093333333333334,45.0,78.0
47,18.48,19.335,64.0,93.0
48,18.880000000000003,19.351666666666667,60.0,92.0
49,19.28,20.55,48.0,95.0
50,19.68,20.968333333333334,55.0,75.0
51,20.080000000000002,21.253333333333334,64.0,95.0
52,20.48,21.3,60.0,102.0
53,21.28,21.808333333333334,52.0,65.0
54,20.880000000000003,21.87666666666667,45.0,73.0
55,21.68,22.503333333333334,64.0,102.0
56,22.080000000000002,22.53166666666667,60.0,82.0
57,22.28,22.561666666666667,57.0,83.0
58,22.48,23.915000000000003,43.0,73.0
59,22.880000000000003,23.950000000000003,50.0,62.0
60,23.28,24.875,55.0,86.0
61,24.48,25.048333333333336,50.0,62.0
62,24.080000000000002,25.23,43.0,90.0
63,24.880000000000003,25.62,62.0,86.0
64,24.880000000000003,25.635,59.0,81.0
65,25.28,25.881666666666668,55.0,88.0
66,25.680000000000003,27.241666666666667,48.0,97.0
67,26.880000000000003,27.326666666666668,60.0,85.0
68,26.48,27.33666666666667,64.0,92.0
69,26.080000000000002,27.37666666666667,55.0,93.0
70,27.28,28.593333333333334,43.0,75.0
71,27.680000000000003,28.628333333333334,50.0,61.0
72,28.080000000000002,28.830000000000002,59.0,70.0
73,28.080000000000002,28.831666666666667,62.0,74.0
74,28.48,28.868333333333336,55.0,76.0
75,28.880000000000003,30.331666666666667,48.0,72.0
76,29.28,30.490000000000002,55.0,73.0
77,29.680000000000003,30.883333333333336,67.0,89.0
78,30.080000000000002,30.893333333333334,64.0,75.0
79,30.48,31.963333333333335,48.0,71.0
80,30.880000000000003,32.108333333333334,55.0,69.0
81,31.680000000000003,32.12166666666667,60.0,56.0
82,31.28,32.125,64.0,92.0
83,32.080000000000005,33.56333333333333,48.0,77.0
84,32.480000000000004,33.705000000000005,55.0,65.0
85,33.28,34.25833333333333,64.0,66.0
86,34.080000000000005,34.54833333333333,55.0,76.0
87,34.480000000000004,35.145,62.0,90.0
88,33.68,35.175000000000004,48.0,69.0
89,34.68,35.27666666666667,55.0,57.0
90,35.080000000000005,35.28,60.0,58.0
91,34.88,35.28,64.0,69.0
92,32.88,35.28,67.0,90.0
93,35.28,36.68833333333333,45.0,75.0
94,36.68,36.80166666666667,50.0,30.0
95,35.68,36.83833333333334,52.0,56.0
96,36.480000000000004,37.495000000000005,57.0,90.0
97,36.080000000000005,37.513333333333335,64.0,95.0
98,37.28,37.86833333333333,52.0,51.0
99,36.88,37.91833333333334,45.0,77.0
100,38.080000000000005,38.54666666666667,57.0,73.0
101,37.68,38.550000000000004,64.0,93.0
102,38.88,40.260000000000005,50.0,55.0
103,39.68,40.61666666666667,59.0,83.0
104,39.28,40.906666666666666,55.0,79.0
105,40.480000000000004,41.06,50.0,65.0
106,38.480000000000004,41.13666666666667,43.0,83.0
107,40.080000000000005,41.66833333333334,62.0,95.0
108,40.88,41.705000000000005,59.0,89.0
109,41.28,42.09666666666667,55.0,83.0
110,42.480000000000004,43.52,48.0,53.0
111,42.480000000000004,43.91666666666667,64.0,90.0
112,42.88,43.93833333333334,60.0,86.0
113,42.080000000000005,44.098333333333336,43.0,48.0
114,41.68,44.14166666666667,36.0,83.0
115,43.68,44.26666666666667,48.0,64.0
116,43.28,44.49333333333334,55.0,89.0
117,44.480000000000004,44.95333333333333,60.0,86.0
118,44.080000000000005,44.975,64.0,95.0
119,44.88,46.32666666666667,45.0,69.0
120,45.28,46.48833333333334,52.0,63.0
121,45.68,47.13333333333333,64.0,95.0
122,46.080000000000005,47.22166666666667,60.0,86.0
123,46.88,47.365,52.0,47.0
124,47.480000000000004,47.69666666666667,52.0,59.0
125,46.480000000000004,47.76166666666667,45.0,70.0
126,47.68,48.085,60.0,66.0
127,47.88,48.11000000000001,57.0,70.0
128,47.28,48.11166666666667,64.0,97.0
129,48.080000000000005,49.513333333333335,43.0,74.0
130,48.480000000000004,49.663333333333334,50.0,59.0
131,49.28,49.82666666666667,59.0,86.0
132,48.88,49.86833333333334,62.0,93.0
133,49.68,51.185,43.0,69.0
134,50.080000000000005,51.28666666666667,50.0,39.0
135,50.88,51.36333333333334,59.0,72.0
136,51.080000000000005,51.36666666666667,55.0,59.0
137,50.480000000000004,51.395,62.0,93.0
138,52.080000000000005,52.635000000000005,55.0,81.0
139,51.68000000000001,53.13166666666667,50.0,57.0
140,52.480000000000004,53.34666666666667,59.0,89.0
141,51.28,53.77,43.0,77.0
142,53.28,53.78333333333334,50.0,77.0
143,53.68000000000001,54.428333333333335,62.0,95.0
144,52.88,54.44166666666667,67.0,102.0
145,54.080000000000005,54.44833333333334,59.0,79.0
146,54.480000000000004,55.955000000000005,48.0,83.0
147,54.88,56.09,55.0,59.0
148,55.28,56.61666666666667,67.0,90.0
149,56.080000000000005,57.59166666666667,48.0,62.0
150,56.480000000000004,57.718333333333334,55.0,48.0
151,55.68000000000001,58.28666666666667,60.0,88.0
152,58.080000000000005,58.72833333333334,55.0,72.0
153,56.88,59.040000000000006,67.0,95.0
154,57.28,59.18833333333334,64.0,85.0
155,58.88,59.40166666666667,55.0,63.0
156,57.68000000000001,60.05500000000001,48.0,77.0
157,59.68000000000001,60.05833333333334,55.0,88.0
158,58.480000000000004,60.17666666666667,60.0,89.0
159,59.28,60.82833333333334,67.0,99.0
160,60.080000000000005,60.83166666666667,64.0,117.0
161,60.480000000000004,60.87166666666667,47.0,73.0
162,60.88,62.315000000000005,45.0,74.0
163,61.28,62.55666666666667,52.0,63.0
164,61.68000000000001,63.14166666666667,64.0,97.0
165,62.88,63.465,52.0,53.0
166,62.480000000000004,63.52666666666667,45.0,76.0
167,63.28,64.13000000000001,64.0,95.0
168,63.68000000000001,64.13666666666667,60.0,93.0
169,62.080000000000005,64.155,57.0,89.0
170,64.88000000000001,65.86500000000001,55.0,92.0
171,65.28,66.50666666666667,59.0,89.0
172,66.08,66.64500000000001,55.0,97.0
173,64.08,66.86166666666666,43.0,86.0
174,65.68,67.09666666666666,67.0,102.0
175,66.48,67.17833333333334,62.0,99.0
176,64.48,67.19666666666667,50.0,68.0
177,66.88000000000001,67.27166666666668,59.0,81.0
178,67.28,68.52333333333334,48.0,97.0
179,67.68,68.55666666666667,55.0,74.0
180,68.48,68.94833333333334,60.0,88.0
181,68.08,68.97166666666666,64.0,97.0
182,69.28,69.91000000000001,52.0,48.0
183,69.68,69.92500000000001,55.0,63.0
184,68.88000000000001,69.97666666666667,48.0,79.0
185,69.68,70.50500000000001,64.0,69.0
186,69.68,70.515,67.0,86.0
187,70.08,70.57166666666667,60.0,78.0
188,70.48,71.93,45.0,76.0
189,70.88000000000001,72.075,52.0,56.0
190,71.68,72.59333333333333,57.0,86.0
191,71.28,72.71000000000001,64.0,90.0
192,72.48,73.00166666666667,52.0,95.0
193,73.08,73.26,52.0,63.0
194,72.08,73.31166666666667,45.0,78.0
195,73.48,73.67666666666668,57.0,93.0
196,73.28,73.69166666666668,60.0,97.0
197,72.88000000000001,73.705,64.0,117.0
198,73.68,75.16166666666668,43.0,89.0
199,74.08,75.24833333333333,50.0,76.0
200,74.48,75.86,62.0,117.0
201,74.88000000000001,75.88000000000001,59.0,95.0
202,75.68,76.33833333333334,50.0,77.0
203,75.28,76.42666666666668,43.0,82.0
204,76.08,76.80833333333334,59.0,93.0
205,76.08,76.81166666666667,62.0,97.0
206,76.48,76.90833333333333,55.0,90.0
207,77.68,78.50666666666667,62.0,107.0
208,78.08,78.635,48.0,83.0
209,78.48,79.22666666666667,64.0,127.0
210,78.88000000000001,79.355,48.0,97.0
211,77.28,79.52333333333334,43.0,53.0
212,76.88000000000001,79.57166666666667,36.0,90.0
213,79.28,79.64833333333334,62.0,127.0
214,79.48,79.67500000000001,48.0,90.0
215,79.68,79.95166666666667,64.0,117.0
216,79.88000000000001,80.06666666666668,62.0,112.0
217,80.48,80.75833333333334,57.0,89.0
218,80.68,80.87,60.0,90.0
219,80.28,80.92833333333334,52.0,69.0
220,80.08,81.32000000000001,45.0,83.0
221,81.08,81.50500000000001,52.0,88.0
222,81.28,81.555,60.0,100.0
223,80.88000000000001,81.62166666666667,64.0,99.0
224,81.48,81.64,57.0,82.0
225,81.88000000000001,82.13666666666667,55.0,74.0
226,82.08,82.31166666666667,60.0,83.0
227,81.68,82.58333333333334,48.0,89.0
228,82.28,82.705,55.0,85.0
229,82.68,83.00500000000001,48.0,72.0
230,82.88000000000001,83.16333333333334,60.0,97.0
231,83.08,83.21000000000001,55.0,93.0
232,82.48,83.22166666666668,64.0,96.0
233,83.68,83.89166666666667,57.0,86.0
234,83.88000000000001,84.07833333333333,60.0,88.0
235,83.48,84.16833333333334,52.0,58.0
236,83.28,84.62666666666667,45.0,67.0
237,84.28,84.64666666666668,52.0,83.0
238,84.48,84.78333333333335,60.0,95.0
239,84.08,84.845,64.0,96.0
240,84.68,84.86500000000001,57.0,89.0
241,85.28,85.525,55.0,81.0
242,85.08000000000001,85.74666666666667,50.0,64.0
243,85.48,85.92,59.0,88.0
244,84.88000000000001,86.32333333333334,43.0,71.0
245,86.08000000000001,86.38333333333334,62.0,93.0
246,85.68,86.4,67.0,100.0
247,86.28,86.43,59.0,100.0
248,85.88000000000001,86.45833333333334,50.0,89.0
249,87.08000000000001,87.21666666666667,60.0,88.0
250,86.68,87.32833333333333,52.0,86.0
251,86.88000000000001,87.34833333333334,57.0,78.0
252,86.48,87.94833333333334,45.0,86.0
253,87.68,87.97833333333334,60.0,96.0
254,87.28,87.99000000000001,64.0,99.0
255,87.88000000000001,88.01833333333335,57.0,93.0
256,87.48,88.02166666666668,52.0,74.0
257,88.48,88.66666666666667,57.0,88.0
258,88.68,88.84,60.0,95.0
259,88.28,88.98166666666667,52.0,74.0
260,89.08000000000001,89.185,52.0,63.0
261,88.08000000000001,89.21666666666667,45.0,72.0
262,89.28,89.61666666666667,60.0,100.0
263,88.88000000000001,89.63666666666667,64.0,100.0
264,89.48,89.67833333333334,57.0,89.0
265,90.08000000000001,90.515,52.0,75.0
266,90.28,90.61500000000001,55.0,78.0
267,90.68,90.87666666666668,52.0,76.0
268,89.68,91.17166666666667,40.0,81.0
269,90.88000000000001,91.245,59.0,79.0
270,91.08000000000001,91.26,55.0,96.0
271,89.88000000000001,91.28,47.0,62.0
272,90.48,91.28166666666667,64.0,99.0
273,91.68,92.12333333333333,52.0,83.0
274,91.88000000000001,92.17833333333334,55.0,86.0
275,91.48,92.38833333333334,47.0,73.0
276,91.28,92.45,40.0,73.0
277,92.28,92.49666666666667,52.0,79.0
278,92.48,92.69500000000001,55.0,97.0
279,92.68,92.81833333333334,59.0,99.0
280,92.08000000000001,92.84,64.0,107.0
281,93.28,93.49000000000001,60.0,71.0
282,93.48,93.68833333333333,64.0,95.0
283,93.08000000000001,93.74000000000001,55.0,56.0
284,92.88000000000001,94.35833333333333,48.0,82.0
285,93.68,94.45833333333334,67.0,100.0
286,93.88000000000001,94.46833333333333,55.0,82.0
287,94.28,94.48,60.0,93.0
288,94.08000000000001,94.53666666666668,64.0,90.0
289,95.08000000000001,95.22666666666667,64.0,82.0
290,94.88000000000001,95.235,60.0,83.0
291,94.68,95.31833333333334,55.0,82.0
292,95.48,95.59333333333333,55.0,78.0
293,94.48,95.63166666666667,48.0,72.0
294,95.68,95.97333333333334,64.0,100.0
295,95.28,95.97333333333334,67.0,112.0
296,95.88000000000001,96.06,60.0,97.0
297,96.48,96.72166666666668,57.0,86.0
298,96.68,96.84500000000001,60.0,93.0
299,96.28,96.91000000000001,52.0,59.0
300,96.08000000000001,97.49833333333333,45.0,74.0
301,97.08000000000001,97.61333333333334,52.0,78.0
302,97.48,97.65,57.0,96.0
303,97.28,97.65166666666667,60.0,97.0
304,96.88000000000001,97.665,64.0,112.0
305,98.08000000000001,98.295,57.0,92.0
306,98.28,98.44333333333334,60.0,96.0
307,97.88000000000001,98.63166666666667,52.0,72.0
308,98.68,98.78166666666667,52.0,72.0
309,97.68,98.85333333333334,45.0,64.0
310,98.88000000000001,99.15166666666667,60.0,102.0
311,98.48,99.15833333333335,64.0,112.0
312,99.08000000000001,99.27166666666668,57.0,95.0
313,99.68,100.12,50.0,83.0
314,99.88000000000001,100.24833333333333,57.0,107.0
315,100.28,100.48166666666667,50.0,90.0
316,99.28,100.73,38.0,83.0
317,99.48,100.83833333333334,45.0,73.0
318,100.48,100.84166666666667,62.0,96.0
319,100.08000000000001,100.84833333333334,65.0,102.0
320,100.68,100.85666666666667,57.0,97.0
321,101.28,101.74333333333334,50.0,75.0
322,101.48,101.77333333333334,57.0,88.0
323,101.08000000000001,102.03333333333335,45.0,85.0
324,100.88000000000001,102.06,38.0,68.0
325,101.88000000000001,102.10666666666667,50.0,79.0
326,102.08000000000001,102.35000000000001,62.0,92.0
327,101.68,102.36500000000001,65.0,100.0
328,102.28,102.41333333333334,57.0,96.0
329,102.88000000000001,103.105,55.0,74.0
330,103.08000000000001,103.23833333333334,59.0,95.0
331,102.68,103.34500000000001,50.0,68.0
332,103.48,103.63333333333334,50.0,70.0
333,102.48,103.665,43.0,79.0
334,103.28,103.95166666666667,62.0,112.0
335,103.68,103.96166666666667,59.0,107.0
336,103.88000000000001,104.06333333333335,55.0,100.0
337,104.68,104.87666666666668,55.0,99.0
338,104.48,104.92166666666667,48.0,90.0
339,105.08000000000001,105.26166666666667,48.0,107.0
340,104.88000000000001,105.26166666666667,64.0,122.0
341,105.28,105.54833333333335,62.0,127.0
342,104.28,105.575,43.0,75.0
343,104.08000000000001,105.635,36.0,69.0
344,105.48,105.66166666666668,64.0,107.0
345,106.08000000000001,106.35833333333333,57.0,89.0
346,106.28,106.47000000000001,60.0,90.0
347,105.88000000000001,106.52833333333334,52.0,69.0
348,105.68,106.92,45.0,83.0
349,106.68,107.105,52.0,88.0
350,106.88000000000001,107.155,60.0,100.0
351,106.48,107.22166666666668,64.0,99.0
352,107.08000000000001,107.24000000000001,57.0,82.0
353,107.48,107.73666666666668,55.0,74.0
354,107.68,107.91166666666668,60.0,83.0
355,107.28,108.18333333333334,48.0,89.0
356,107.88000000000001,108.305,55.0,85.0
357,108.28,108.605,48.0,72.0
358,108.48,108.76333333333334,60.0,97.0
359,108.68,108.81,55.0,93.0
360,108.08000000000001,108.82166666666667,64.0,96.0
361,109.28,109.49166666666667,57.0,86.0
362,109.48,109.67833333333334,60.0,88.0
363,109.08000000000001,109.76833333333335,52.0,58.0
364,108.88000000000001,110.22666666666667,45.0,67.0
365,109.88000000000001,110.24666666666667,52.0,83.0
366,110.08000000000001,110.38333333333334,60.0,95.0
367,109.68,110.44500000000001,64.0,96.0
368,110.28,110.465,57.0,89.0
369,110.88000000000001,111.12500000000001,55.0,81.0
370,110.68,111.34666666666668,50.0,64.0
371,111.08000000000001,111.52000000000001,59.0,88.0
372,110.48,111.92333333333335,43.0,71.0
373,111.68,111.98333333333333,62.0,93.0
374,111.28,112.00000000000001,67.0,100.0
375,111.88000000000001,112.03,59.0,100.0
376,111.48,112.05833333333334,50.0,89.0
377,112.68,112.81666666666668,60.0,88.0
378,112.28,112.92833333333334,52.0,86.0
379,112.48,112.94833333333334,57.0,78.0
380,112.08000000000001,113.54833333333335,45.0,86.0
381,113.28,113.57833333333335,60.0,96.0
382,112.88000000000001,113.59,64.0,99.0
383,113.48,113.61833333333334,57.0,93.0
384,113.08000000000001,113.62166666666667,52.0,74.0
385,114.08000000000001,114.26666666666668,57.0,88.0
386,114.28,114.44000000000001,60.0,95.0
387,113.88000000000001,114.58166666666668,52.0,74.0
388,114.68,114.78500000000001,52.0,63.0
389,113.68,114.81666666666668,45.0,72.0
390,114.88000000000001,115.21666666666667,60.0,100.0
391,114.48,115.23666666666668,64.0,100.0
392,115.08000000000001,115.27833333333334,57.0,89.0
393,115.68,116.11500000000001,52.0,75.0
394,115.88000000000001,116.215,55.0,78.0
395,116.28,116.47666666666667,52.0,76.0
396,115.28,116.77166666666668,40.0,81.0
397,116.48,116.84500000000001,59.0,79.0
398,116.68,116.86000000000001,55.0,96.0
399,115.48,116.88000000000001,47.0,62.0
400,116.08000000000001,116.88166666666667,64.0,99.0
401,117.28,117.72333333333334,52.0,83.0
402,117.48,117.77833333333334,55.0,86.0
403,117.08000000000001,117.98833333333334,47.0,73.0
404,116.88000000000001,118.05000000000001,40.0,73.0
405,117.88000000000001,118.09666666666668,52.0,79.0
406,118.08000000000001,118.295,55.0,97.0
407,118.28,118.41833333333334,59.0,99.0
408,117.68,118.44000000000001,64.0,107.0
409,118.88000000000001,119.09,60.0,71.0
410,119.08000000000001,119.28833333333334,64.0,95.0
411,118.68,119.34,55.0,56.0
412,118.48,119.95833333333334,48.0,82.0
413,119.28,120.05833333333334,67.0,100.0
414,119.48,120.06833333333334,55.0,82.0
415,119.88000000000001,120.08000000000001,60.0,93.0
416,119.68,120.13666666666667,64.0,90.0
417,120.68,120.82666666666667,64.0,82.0
418,120.48,120.83500000000001,60.0,83.0
419,120.28,120.91833333333334,55.0,82.0
420,121.08000000000001,121.19333333333334,55.0,78.0
421,120.08000000000001,121.23166666666667,48.0,72.0
422,121.28,121.57333333333334,64.0,100.0
423,120.88000000000001,121.57333333333334,67.0,112.0
424,121.48,121.66000000000001,60.0,97.0
425,122.08000000000001,122.32166666666667,57.0,86.0
426,122.28,122.44500000000001,60.0,93.0
427,121.88000000000001,122.51,52.0,59.0
428,121.68,123.09833333333334,45.0,74.0
429,122.68,123.21333333333334,52.0,78.0
430,123.08000000000001,123.25000000000001,57.0,96.0
431,122.88000000000001,123.25166666666668,60.0,97.0
432,122.48,123.26500000000001,64.0,112.0
433,123.68,123.89500000000001,57.0,92.0
434,123.88000000000001,124.04333333333334,60.0,96.0
435,123.48,124.23166666666667,52.0,72.0
436,124.28,124.38166666666667,52.0,72.0
437,123.28,124.45333333333335,45.0,64.0
438,124.48,124.75166666666668,60.0,102.0
439,124.08000000000001,124.75833333333334,64.0,112.0
440,124.68,124.87166666666667,57.0,95.0
441,125.28,125.72000000000001,50.0,83.0
442,125.48,125.84833333333334,57.0,107.0
443,125.88000000000001,126.08166666666668,50.0,90.0
444,124.88000000000001,126.33000000000001,38.0,83.0
445,125.08000000000001,126.43833333333335,45.0,73.0
446,126.08000000000001,126.44166666666668,62.0,96.0
447,125.68,126.44833333333334,65.0,102.0
448,126.28,126.45666666666668,57.0,97.0
449,126.88000000000001,127.34333333333335,50.0,75.0
450,127.08000000000001,127.37333333333333,57.0,88.0
451,126.68,127.63333333333334,45.0,85.0
452,126.48,127.66000000000001,38.0,68.0
453,127.48,127.70666666666668,50.0,79.0
454,127.68,127.95,62.0,92.0
455,127.28,127.965,65.0,100.0
456,127.88000000000001,128.01333333333335,57.0,96.0
457,128.48000000000002,128.705,55.0,74.0
458,128.68,128.83833333333334,59.0,95.0
459,128.28,128.94500000000002,50.0,68.0
460,129.08,129.23333333333335,50.0,70.0
461,128.08,129.26500000000001,43.0,79.0
462,128.88,129.55166666666668,62.0,112.0
463,129.28,129.56166666666667,59.0,107.0
464,129.48000000000002,129.66333333333336,55.0,100.0
465,130.28,130.4766666666667,55.0,99.0
466,130.08,130.52166666666668,48.0,90.0
467,130.68,130.86166666666668,48.0,107.0
468,130.48000000000002,130.86166666666668,64.0,122.0
469,130.88,131.14833333333334,62.0,127.0
470,129.88,131.175,43.0,75.0
471,129.68,131.235,36.0,69.0
472,131.08,131.26166666666668,64.0,107.0
473,131.68,132.565,52.0,67.0
474,131.28,132.83833333333334,45.0,83.0
475,132.08,133.02166666666668,57.0,90.0
476,132.48000000000002,133.12833333333333,64.0,89.0
477,132.88,133.8,48.0,74.0
478,133.28,134.58333333333334,55.0,56.0
479,134.08,134.63333333333335,60.0,67.0
480,133.68,134.68833333333333,64.0,99.0
481,134.88,135.42166666666668,52.0,89.0
482,134.48000000000002,135.45833333333334,45.0,79.0
483,135.28,136.17833333333334,64.0,107.0
484,135.68,136.19500000000002,57.0,83.0
485,136.08,137.28,43.0,81.0
486,136.48000000000002,137.36333333333334,50.0,61.0
487,137.28,137.70000000000002,59.0,79.0
488,137.48000000000002,137.70833333333334,55.0,73.0
489,136.88,137.7266666666667,62.0,99.0
490,138.08,138.87166666666667,52.0,68.0
491,137.68,139.05,45.0,72.0
492,138.88,139.30333333333334,57.0,92.0
493,138.48000000000002,139.47,64.0,95.0
494,139.28,140.235,48.0,74.0
495,139.68,140.50833333333335,55.0,78.0
496,140.08,140.85500000000002,64.0,88.0
497,140.48000000000002,140.88833333333335,60.0,74.0
498,141.28,141.73666666666668,55.0,77.0
499,141.48000000000002,141.82833333333335,59.0,90.0
500,141.88,142.12,55.0,77.0
501,140.88,142.36666666666667,43.0,88.0
502,141.08,142.46666666666667,50.0,49.0
503,142.28,142.51000000000002,59.0,69.0
504,142.08,142.52666666666667,62.0,55.0
505,141.68,142.57500000000002,67.0,102.0
506,142.88,143.22833333333335,55.0,93.0
507,142.68,143.27666666666667,50.0,53.0
508,142.48000000000002,143.28833333333336,43.0,56.0
509,143.08,143.37833333333333,67.0,89.0
510,143.48000000000002,143.76000000000002,71.0,79.0
511,143.68,144.085,67.0,102.0
512,143.28,144.09,74.0,127.0
513,143.88,144.14833333333334,71.0,71.0
514,144.08,145.23166666666668,48.0,78.0
515,144.48000000000002,145.25333333333333,55.0,69.0
516,145.28,145.68,64.0,93.0
517,144.88,145.68,67.0,107.0
518,146.08,146.88333333333335,52.0,59.0
519,145.68,147.09333333333333,45.0,78.0
520,146.48000000000002,147.335,64.0,93.0
521,146.88,147.3516666666667,60.0,92.0
522,147.28,148.55,48.0,95.0
523,147.68,148.96833333333333,55.0,75.0
524,148.08,149.25333333333333,64.0,95.0
525,148.48000000000002,149.3,60.0,102.0
526,149.28,149.80833333333334,52.0,65.0
527,148.88,149.87666666666667,45.0,73.0
528,149.68,150.50333333333333,64.0,102.0
529,150.08,150.53166666666667,60.0,82.0
530,150.28,150.56166666666667,57.0,83.0
531,150.48000000000002,151.91500000000002,43.0,73.0
532,150.88000000000002,151.95000000000002,50.0,62.0
533,151.28,152.875,55.0,86.0
534,152.48000000000002,153.04833333333335,50.0,62.0
535,152.08,153.23000000000002,43.0,90.0
536,152.88000000000002,153.62,62.0,86.0
537,152.88000000000002,153.63500000000002,59.0,81.0
538,153.28,153.8816666666667,55.0,88.0
539,153.68,155.24166666666667,48.0,97.0
540,154.88000000000002,155.32666666666668,60.0,85.0
541,154.48000000000002,155.33666666666667,64.0,92.0
542,154.08,155.37666666666667,55.0,93.0
543,155.28,156.59333333333333,43.0,75.0
544,155.68,156.62833333333333,50.0,61.0
545,156.08,156.83,59.0,70.0
546,156.08,156.83166666666668,62.0,74.0
547,156.48000000000002,156.86833333333334,55.0,76.0
548,156.88000000000002,158.35500000000002,48.0,83.0
549,157.28,158.49,55.0,59.0
550,157.68,159.01666666666668,67.0,90.0
551,158.48000000000002,159.99166666666667,48.0,62.0
552,158.88000000000002,160.11833333333334,55.0,48.0
553,158.08,160.68666666666667,60.0,88.0
554,160.48000000000002,161.12833333333333,55.0,72.0
555,159.28,161.44,67.0,95.0
556,159.68,161.58833333333334,64.0,85.0
557,161.28,161.80166666666668,55.0,63.0
558,160.08,162.455,48.0,77.0
559,162.08,162.45833333333334,55.0,88.0
560,160.88000000000002,162.57666666666668,60.0,89.0
561,161.68,163.22833333333335,67.0,99.0
562,162.48000000000002,163.23166666666668,64.0,117.0
563,162.88000000000002,163.27166666666668,47.0,73.0
564,163.28,164.715,45.0,74.0
565,163.68,164.95666666666668,52.0,63.0
566,164.08,165.54166666666669,64.0,97.0
567,165.28,165.865,52.0,53.0
568,164.88000000000002,165.92666666666668,45.0,76.0
569,165.68,166.53,64.0,95.0
570,166.08,166.5366666666667,60.0,93.0
571,164.48000000000002,166.555,57.0,89.0
572,167.28,168.26500000000001,55.0,92.0
573,167.68,168.90666666666667,59.0,89.0
574,168.48000000000002,169.04500000000002,55.0,97.0
575,166.48000000000002,169.26166666666668,43.0,86.0
576,168.08,169.49666666666667,67.0,102.0
577,168.88000000000002,169.57833333333335,62.0,99.0
578,166.88000000000002,169.59666666666666,50.0,68.0
579,169.28,169.67166666666668,59.0,81.0
580,169.68,170.92333333333335,48.0,97.0
581,170.08,170.95666666666668,55.0,74.0
582,170.88000000000002,171.34833333333336,60.0,88.0
583,170.48000000000002,171.37166666666667,64.0,97.0
584,171.68,172.31,52.0,48.0
585,172.08,172.32500000000002,55.0,63.0
586,171.28,172.37666666666667,48.0,79.0
587,172.08,172.905,64.0,69.0
588,172.08,172.91500000000002,67.0,86.0
589,172.48000000000002,172.97166666666666,60.0,78.0
590,172.88000000000002,174.33,45.0,76.0
591,173.28,174.47500000000002,52.0,56.0
592,174.08,174.99333333333334,57.0,86.0
593,173.68,175.11,64.0,90.0
594,174.88000000000002,175.40166666666667,52.0,95.0
595,175.48000000000002,175.66000000000003,52.0,63.0
596,174.48000000000002,175.71166666666667,45.0,78.0
597,175.88000000000002,176.07666666666668,57.0,93.0
598,175.68,176.09166666666667,60.0,97.0
599,175.28,176.10500000000002,64.0,117.0
600,176.08,177.56166666666667,43.0,89.0
601,176.48000000000002,177.64833333333334,50.0,76.0
602,176.88000000000002,178.26000000000002,62.0,117.0
603,177.28,178.28,59.0,95.0
604,178.08,178.73833333333334,50.0,77.0
605,177.68,178.82666666666668,43.0,82.0
606,178.48000000000002,179.20833333333334,59.0,93.0
607,178.48000000000002,179.21166666666667,62.0,97.0
608,178.88000000000002,179.30833333333334,55.0,90.0
609,180.08,180.90666666666667,62.0,107.0
610,180.48000000000002,181.03500000000003,48.0,83.0
611,180.88000000000002,181.62666666666667,64.0,127.0
612,181.28,181.75500000000002,48.0,97.0
613,179.68,181.92333333333335,43.0,53.0
614,179.28,181.9716666666667,36.0,90.0
615,181.68,182.04833333333335,62.0,127.0
616,181.88000000000002,182.07500000000002,48.0,90.0
617,182.08,182.3516666666667,64.0,117.0
618,182.28,182.46666666666667,62.0,112.0
619,182.88000000000002,183.15833333333333,57.0,89.0
620,183.08,183.27,60.0,90.0
621,182.68,183.32833333333335,52.0,69.0
622,182.48000000000002,183.72,45.0,83.0
623,183.48000000000002,183.905,52.0,88.0
624,183.68,183.955,60.0,100.0
625,183.28,184.02166666666668,64.0,99.0
626,183.88000000000002,184.04000000000002,57.0,82.0
627,184.28,184.5366666666667,55.0,74.0
628,184.48000000000002,184.71166666666667,60.0,83.0
629,184.08,184.98333333333335,48.0,89.0
630,184.68,185.10500000000002,55.0,85.0
631,185.08,185.405,48.0,72.0
632,185.28,185.56333333333333,60.0,97.0
633,185.48000000000002,185.61,55.0,93.0
634,184.88000000000002,185.62166666666667,64.0,96.0
635,186.08,186.29166666666669,57.0,86.0
636,186.28,186.47833333333335,60.0,88.0
637,185.88000000000002,186.56833333333336,52.0,58.0
638,185.68,187.02666666666667,45.0,67.0
639,186.68,187.04666666666668,52.0,83.0
640,186.88000000000002,187.18333333333334,60.0,95.0
641,186.48000000000002,187.245,64.0,96.0
642,187.08,187.26500000000001,57.0,89.0
643,187.68,187.925,55.0,81.0
644,187.48000000000002,188.14666666666668,50.0,64.0
645,187.88000000000002,188.32000000000002,59.0,88.0
646,187.28,188.72333333333336,43.0,71.0
647,188.48000000000002,188.78333333333333,62.0,93.0
648,188.08,188.8,67.0,100.0
649,188.68,188.83,59.0,100.0
650,188.28,188.85833333333335,50.0,89.0
651,189.48000000000002,189.61666666666667,60.0,88.0
652,189.08,189.72833333333335,52.0,86.0
653,189.28,189.74833333333333,57.0,78.0
654,188.88000000000002,190.34833333333336,45.0,86.0
655,190.08,190.37833333333336,60.0,96.0
656,189.68,190.39000000000001,64.0,99.0
657,190.28,190.41833333333335,57.0,93.0
658,189.88000000000002,190.42166666666668,52.0,74.0
659,190.88000000000002,191.0666666666667,57.0,88.0
660,191.08,191.24,60.0,95.0
661,190.68,191.3816666666667,52.0,74.0
662,191.48000000000002,191.585,52.0,63.0
663,190.48000000000002,191.61666666666667,45.0,72.0
664,191.68,192.01666666666668,60.0,100.0
665,191.28,192.0366666666667,64.0,100.0
666,191.88000000000002,192.07833333333335,57.0,89.0
667,192.48000000000002,192.91500000000002,52.0,75.0
668,192.68,193.01500000000001,55.0,78.0
669,193.08,193.27666666666667,52.0,76.0
670,192.08,193.5716666666667,40.0,81.0
671,193.28,193.645,59.0,79.0
672,193.48000000000002,193.66000000000003,55.0,96.0
673,192.28,193.68,47.0,62.0
674,192.88000000000002,193.68166666666667,64.0,99.0
675,194.08,194.52333333333334,52.0,83.0
676,194.28,194.57833333333335,55.0,86.0
677,193.88000000000002,194.78833333333336,47.0,73.0
678,193.68,194.85000000000002,40.0,73.0
679,194.68,194.89666666666668,52.0,79.0
680,194.88000000000002,195.095,55.0,97.0
681,195.08,195.21833333333333,59.0,99.0
682,194.48000000000002,195.24,64.0,107.0
683,195.68,195.89000000000001,60.0,71.0
684,195.88000000000002,196.08833333333334,64.0,95.0
685,195.48000000000002,196.14000000000001,55.0,56.0
686,195.28,196.75833333333335,48.0,82.0
687,196.08,196.85833333333335,67.0,100.0
688,196.28,196.86833333333334,55.0,82.0
689,196.68,196.88000000000002,60.0,93.0
690,196.48000000000002,196.93666666666667,64.0,90.0
691,197.48000000000002,197.62666666666667,64.0,82.0
692,197.28,197.63500000000002,60.0,83.0
693,197.08,197.71833333333333,55.0,82.0
694,197.88000000000002,197.99333333333334,55.0,78.0
695,196.88000000000002,198.03166666666667,48.0,72.0
696,198.08,198.37333333333333,64.0,100.0
697,197.68,198.37333333333333,67.0,112.0
698,198.28,198.46,60.0,97.0
699,198.88000000000002,199.12166666666667,57.0,86.0
700,199.08,199.245,60.0,93.0
701,198.68,199.31,52.0,59.0
702,198.48000000000002,199.89833333333334,45.0,74.0
703,199.48000000000002,200.01333333333335,52.0,78.0
704,199.88000000000002,200.05,57.0,96.0
705,199.68,200.05166666666668,60.0,97.0
706,199.28,200.06500000000003,64.0,112.0
707,200.48000000000002,200.69500000000002,57.0,92.0
708,200.68,200.84333333333333,60.0,96.0
709,200.28,201.03166666666667,52.0,72.0
710,201.08,201.18166666666667,52.0,72.0
711,200.08,201.25333333333336,45.0,64.0
712,201.28,201.55166666666668,60.0,102.0
713,200.88000000000002,201.55833333333334,64.0,112.0
714,201.48000000000002,201.67166666666668,57.0,95.0
715,202.08,202.52,50.0,83.0
716,202.28,202.64833333333334,57.0,107.0
717,202.68,202.8816666666667,50.0,90.0
718,201.68,203.13000000000002,38.0,83.0
719,201.88000000000002,203.23833333333334,45.0,73.0
720,202.88000000000002,203.24166666666667,62.0,96.0
721,202.48000000000002,203.24833333333333,65.0,102.0
722,203.08,203.2566666666667,57.0,97.0
723,203.68,204.14333333333335,50.0,75.0
724,203.88000000000002,204.17333333333335,57.0,88.0
725,203.48000000000002,204.43333333333334,45.0,85.0
726,203.28,204.46,38.0,68.0
727,204.28,204.5066666666667,50.0,79.0
728,204.48000000000002,204.75,62.0,92.0
729,204.08,204.76500000000001,65.0,100.0
730,204.68,204.81333333333333,57.0,96.0
731,205.28,205.50500000000002,55.0,74.0
732,205.48000000000002,205.63833333333335,59.0,95.0
733,205.08,205.745,50.0,68.0
734,205.88000000000002,206.03333333333336,50.0,70.0
735,204.88000000000002,206.06500000000003,43.0,79.0
736,205.68,206.3516666666667,62.0,112.0
737,206.08,206.36166666666668,59.0,107.0
738,206.28,206.46333333333334,55.0,100.0
739,207.08,207.27666666666667,55.0,99.0
740,206.88000000000002,207.3216666666667,48.0,90.0
741,207.48000000000002,207.6616666666667,48.0,107.0
742,207.28,207.6616666666667,64.0,122.0
743,207.68,207.94833333333335,62.0,127.0
744,206.68,207.97500000000002,43.0,75.0
745,206.48000000000002,208.03500000000003,36.0,69.0
746,207.88000000000002,208.06166666666667,64.0,107.0
747,208.48000000000002,208.75833333333335,57.0,89.0
748,208.68,208.87,60.0,90.0
749,208.28,208.92833333333334,52.0,69.0
750,208.08,209.32000000000002,45.0,83.0
751,209.08,209.50500000000002,52.0,88.0
752,209.28,209.555,60.0,100.0
753,208.88000000000002,209.62166666666667,64.0,99.0
754,209.48000000000002,209.64000000000001,57.0,82.0
755,209.88000000000002,210.13666666666668,55.0,74.0
756,210.08,210.31166666666667,60.0,83.0
757,209.68,210.58333333333334,48.0,89.0
758,210.28,210.705,55.0,85.0
759,210.68,211.00500000000002,48.0,72.0
760,210.88000000000002,211.16333333333336,60.0,97.0
761,211.08,211.21,55.0,93.0
762,210.48000000000002,211.2216666666667,64.0,96.0
763,211.68,211.89166666666668,57.0,86.0
764,211.88000000000002,212.07833333333335,60.0,88.0
765,211.48000000000002,212.16833333333335,52.0,58.0
766,211.28,212.6266666666667,45.0,67.0
767,212.28,212.64666666666668,52.0,83.0
768,212.48000000000002,212.78333333333336,60.0,95.0
769,212.08,212.84500000000003,64.0,96.0
770,212.68,212.865,57.0,89.0
771,213.28,213.525,55.0,81.0
772,213.08,213.74666666666667,50.0,64.0
773,213.48000000000002,213.92000000000002,59.0,88.0
774,212.88000000000002,214.32333333333335,43.0,71.0
775,214.08,214.38333333333335,62.0,93.0
776,213.68,214.4,67.0,100.0
777,214.28,214.43,59.0,100.0
778,213.88000000000002,214.45833333333334,50.0,89.0
779,215.08,215.21666666666667,60.0,88.0
780,214.68,215.32833333333335,52.0,86.0
781,214.88000000000002,215.34833333333336,57.0,78.0
782,214.48000000000002,215.94833333333335,45.0,86.0
783,215.68,215.97833333333335,60.0,96.0
784,215.28,215.99,64.0,99.0
785,215.88000000000002,216.01833333333335,57.0,93.0
786,215.48000000000002,216.02166666666668,52.0,74.0
787,216.48000000000002,216.66666666666669,57.0,88.0
788,216.68,216.84,60.0,95.0
789,216.28,216.98166666666668,52.0,74.0
790,217.08,217.185,52.0,63.0
791,216.08,217.21666666666667,45.0,72.0
792,217.28,217.61666666666667,60.0,100.0
793,216.88000000000002,217.63666666666668,64.0,100.0
794,217.48000000000002,217.67833333333334,57.0,89.0
795,218.08,218.51500000000001,52.0,75.0
796,218.28,218.615,55.0,78.0
797,218.68,218.8766666666667,52.0,76.0
798,217.68,219.17166666666668,40.0,81.0
799,218.88000000000002,219.245,59.0,79.0
800,219.08,219.26000000000002,55.0,96.0
801,217.88000000000002,219.28,47.0,62.0
802,218.48000000000002,219.2816666666667,64.0,99.0
803,219.68,220.12333333333333,52.0,83.0
804,219.88000000000002,220.17833333333334,55.0,86.0
805,219.48000000000002,220.38833333333335,47.0,73.0
806,219.28,220.45000000000002,40.0,73.0
807,220.28,220.49666666666667,52.0,79.0
808,220.48000000000002,220.69500000000002,55.0,97.0
809,220.68,220.81833333333336,59.0,99.0
810,220.08,220.84,64.0,107.0
811,221.28,221.49,60.0,71.0
812,221.48000000000002,221.68833333333336,64.0,95.0
813,221.08,221.74,55.0,56.0
814,220.88000000000002,222.35833333333335,48.0,82.0
815,221.68,222.45833333333334,67.0,100.0
816,221.88000000000002,222.46833333333333,55.0,82.0
817,222.28,222.48000000000002,60.0,93.0
818,222.08,222.5366666666667,64.0,90.0
819,223.08,223.2266666666667,64.0,82.0
820,222.88000000000002,223.235,60.0,83.0
821,222.68,223.31833333333336,55.0,82.0
822,223.48000000000002,223.59333333333333,55.0,78.0
823,222.48000000000002,223.6316666666667,48.0,72.0
824,223.68,223.97333333333336,64.0,100.0
825,223.28,223.97333333333336,67.0,112.0
826,223.88000000000002,224.06,60.0,97.0
827,224.48000000000002,224.7216666666667,57.0,86.0
828,224.68,224.84500000000003,60.0,93.0
829,224.28,224.91000000000003,52.0,59.0
830,224.08,225.49833333333333,45.0,74.0
831,225.08,225.61333333333334,52.0,78.0
832,225.48000000000002,225.65,57.0,96.0
833,225.28,225.65166666666667,60.0,97.0
834,224.88000000000002,225.66500000000002,64.0,112.0
835,226.08,226.29500000000002,57.0,92.0
836,226.28,226.44333333333336,60.0,96.0
837,225.88000000000002,226.6316666666667,52.0,72.0
838,226.68,226.7816666666667,52.0,72.0
839,225.68,226.85333333333335,45.0,64.0
840,226.88000000000002,227.15166666666667,60.0,102.0
841,226.48000000000002,227.15833333333336,64.0,112.0
842,227.08,227.27166666666668,57.0,95.0
843,227.68,228.12,50.0,83.0
844,227.88000000000002,228.24833333333333,57.0,107.0
845,228.28,228.48166666666668,50.0,90.0
846,227.28,228.73000000000002,38.0,83.0
847,227.48000000000002,228.83833333333334,45.0,73.0
848,228.48000000000002,228.84166666666667,62.0,96.0
849,228.08,228.84833333333336,65.0,102.0
850,228.68,228.85666666666668,57.0,97.0
851,229.28,229.74333333333334,50.0,75.0
852,229.48000000000002,229.77333333333334,57.0,88.0
853,229.08,230.03333333333336,45.0,85.0
854,228.88000000000002,230.06,38.0,68.0
855,229.88000000000002,230.10666666666668,50.0,79.0
856,230.08,230.35000000000002,62.0,92.0
857,229.68,230.365,65.0,100.0
858,230.28,230.41333333333336,57.0,96.0
859,230.48000000000002,230.76333333333335,43.0,92.0
860,230.48000000000002,230.77,59.0,86.0
861,230.48000000000002,230.77666666666667,62.0,92.0
862,230.48000000000002,230.78500000000003,55.0,88.0
863,230.88000000000002,231.12166666666667,55.0,92.0
864,230.88000000000002,231.12500000000003,59.0,90.0
865,230.88000000000002,231.16000000000003,62.0,92.0
866,230.88000000000002,231.16666666666669,43.0,82.0
867,232.48000000000002,232.72500000000002,60.0,99.0
868,232.68,232.94833333333335,62.0,86.0
869,232.28,232.96666666666667,55.0,72.0
870,233.08,233.58,55.0,93.0
871,232.08,233.71166666666667,48.0,88.0
872,232.88000000000002,233.72000000000003,67.0,112.0
873,233.28,233.73000000000002,64.0,89.0
874,233.48000000000002,233.75833333333335,60.0,92.0
875,234.08,234.35833333333335,57.0,89.0
876,234.28,234.47000000000003,60.0,90.0
877,233.88000000000002,234.52833333333334,52.0,69.0
878,233.68,234.92000000000002,45.0,83.0
879,234.68,235.10500000000002,52.0,88.0
880,234.88000000000002,235.155,60.0,100.0
881,234.48000000000002,235.2216666666667,64.0,99.0
882,235.08,235.24,57.0,82.0
883,235.48000000000002,235.73666666666668,55.0,74.0
884,235.68,235.9116666666667,60.0,83.0
885,235.28,236.18333333333334,48.0,89.0
886,235.88000000000002,236.305,55.0,85.0
887,236.28,236.60500000000002,48.0,72.0
888,236.48000000000002,236.76333333333335,60.0,97.0
889,236.68,236.81,55.0,93.0
890,236.08,236.8216666666667,64.0,96.0
891,237.28,237.49166666666667,57.0,86.0
892,237.48000000000002,237.67833333333334,60.0,88.0
893,237.08,237.76833333333335,52.0,58.0
894,236.88000000000002,238.2266666666667,45.0,67.0
895,237.88000000000002,238.24666666666667,52.0,83.0
896,238.08,238.38333333333335,60.0,95.0
897,237.68,238.44500000000002,64.0,96.0
898,238.28,238.465,57.0,89.0
899,238.88000000000002,239.12500000000003,55.0,81.0
900,238.68,239.3466666666667,50.0,64.0
901,239.08,239.52,59.0,88.0
902,238.48000000000002,239.92333333333335,43.0,71.0
903,239.68,239.98333333333335,62.0,93.0
904,239.28000000000003,240.00000000000003,67.0,100.0
905,239.88000000000002,240.03000000000003,59.0,100.0
906,239.48000000000002,240.05833333333334,50.0,89.0
907,240.68,240.8166666666667,60.0,88.0
908,240.28000000000003,240.92833333333334,52.0,86.0
909,240.48000000000002,240.94833333333335,57.0,78.0
910,240.08,241.54833333333335,45.0,86.0
911,241.28000000000003,241.57833333333335,60.0,96.0
912,240.88000000000002,241.59,64.0,99.0
913,241.48000000000002,241.61833333333334,57.0,93.0
914,241.08,241.62166666666667,52.0,74.0
915,242.08,242.26666666666668,57.0,88.0
916,242.28000000000003,242.44000000000003,60.0,95.0
917,241.88000000000002,242.58166666666668,52.0,74.0
918,242.68,242.78500000000003,52.0,63.0
919,241.68,242.8166666666667,45.0,72.0
920,242.88000000000002,243.21666666666667,60.0,100.0
921,242.48000000000002,243.23666666666668,64.0,100.0
922,243.08,243.27833333333334,57.0,89.0
923,243.68,244.115,52.0,75.0
924,243.88000000000002,244.215,55.0,78.0
925,244.28000000000003,244.4766666666667,52.0,76.0
926,243.28000000000003,244.77166666666668,40.0,81.0
927,244.48000000000002,244.84500000000003,59.0,79.0
928,244.68,244.86,55.0,96.0
929,243.48000000000002,244.88000000000002,47.0,62.0
930,244.08,244.8816666666667,64.0,99.0
931,245.28000000000003,245.72333333333336,52.0,83.0
932,245.48000000000002,245.77833333333334,55.0,86.0
933,245.08,245.98833333333334,47.0,73.0
934,244.88000000000002,246.05,40.0,73.0
935,245.88000000000002,246.0966666666667,52.0,79.0
936,246.08,246.29500000000002,55.0,97.0
937,246.28000000000003,246.41833333333335,59.0,99.0
938,245.68,246.44000000000003,64.0,107.0
939,246.88000000000002,247.09,60.0,71.0
940,247.08,247.28833333333336,64.0,95.0
941,246.68,247.34,55.0,56.0
942,246.48000000000002,247.95833333333334,48.0,82.0
943,247.28000000000003,248.05833333333334,67.0,100.0
944,247.48000000000002,248.06833333333336,55.0,82.0
945,247.88000000000002,248.08,60.0,93.0
946,247.68,248.13666666666668,64.0,90.0
947,248.68,248.82666666666668,64.0,82.0
948,248.48000000000002,248.835,60.0,83.0
949,248.28000000000003,248.91833333333335,55.0,82.0
950,249.08,249.19333333333336,55.0,78.0
951,248.08,249.23166666666668,48.0,72.0
952,249.28000000000003,249.57333333333335,64.0,100.0
953,248.88000000000002,249.57333333333335,67.0,112.0
954,249.48000000000002,249.66000000000003,60.0,97.0
955,250.08,250.3216666666667,57.0,86.0
956,250.28000000000003,250.44500000000002,60.0,93.0
957,249.88000000000002,250.51000000000002,52.0,59.0
958,249.68,251.09833333333336,45.0,74.0
959,250.68,251.21333333333334,52.0,78.0
960,251.08,251.25000000000003,57.0,96.0
961,250.88000000000002,251.2516666666667,60.0,97.0
962,250.48000000000002,251.26500000000001,64.0,112.0
963,251.68,251.895,57.0,92.0
964,251.88000000000002,252.04333333333335,60.0,96.0
965,251.48000000000002,252.23166666666668,52.0,72.0
966,252.28000000000003,252.3816666666667,52.0,72.0
967,251.28000000000003,252.45333333333335,45.0,64.0
968,252.48000000000002,252.7516666666667,60.0,102.0
969,252.08,252.75833333333335,64.0,112.0
970,252.68,252.87166666666667,57.0,95.0
971,253.28000000000003,253.72000000000003,50.0,83.0
972,253.48000000000002,253.84833333333336,57.0,107.0
973,253.88000000000002,254.08166666666668,50.0,90.0
974,252.88000000000002,254.33,38.0,83.0
975,253.08,254.43833333333336,45.0,73.0
976,254.08,254.4416666666667,62.0,96.0
977,253.68,254.44833333333335,65.0,102.0
978,254.28000000000003,254.45666666666668,57.0,97.0
979,254.88000000000002,255.34333333333336,50.0,75.0
980,255.08,255.37333333333336,57.0,88.0
981,254.68,255.63333333333335,45.0,85.0
982,254.48000000000002,255.66000000000003,38.0,68.0
983,255.48000000000002,255.70666666666668,50.0,79.0
984,255.68,255.95000000000002,62.0,92.0
985,255.28000000000003,255.965,65.0,100.0
986,255.88000000000002,256.0133333333334,57.0,96.0
987,256.08000000000004,256.36333333333334,43.0,92.0
988,256.08000000000004,256.37,59.0,86.0
989,256.08000000000004,256.37666666666667,62.0,92.0
990,256.08000000000004,256.385,55.0,88.0
991,256.48,256.7216666666667,55.0,92.0
992,256.48,256.725,59.0,90.0
993,256.48,256.76,62.0,92.0
994,256.48,256.7666666666667,43.0,82.0
995,258.08000000000004,258.325,60.0,99.0
996,258.28000000000003,258.54833333333335,62.0,86.0
997,257.88,258.56666666666666,55.0,72.0
998,258.68,259.18,55.0,93.0
999,257.68,259.31166666666667,48.0,88.0
1000,258.48,259.32,67.0,112.0
1001,258.88,259.33000000000004,64.0,89.0
1002,259.08000000000004,259.35833333333335,60.0,92.0
1003,259.68,260.12,50.0,83.0
1004,259.88,260.24833333333333,57.0,107.0
1005,260.28000000000003,260.4816666666667,50.0,90.0
1006,259.28000000000003,260.73,38.0,83.0
1007,259.48,260.83833333333337,45.0,73.0
1008,260.48,260.8416666666667,62.0,96.0
1009,260.08000000000004,260.84833333333336,65.0,102.0
1010,260.68,260.8566666666667,57.0,97.0
1011,261.28000000000003,261.74333333333334,50.0,75.0
1012,261.48,261.77333333333337,57.0,88.0
1013,261.08000000000004,262.03333333333336,45.0,85.0
1014,260.88,262.06,38.0,68.0
1015,261.88,262.1066666666667,50.0,79.0
1016,262.08000000000004,262.35,62.0,92.0
1017,261.68,262.365,65.0,100.0
1018,262.28000000000003,262.41333333333336,57.0,96.0
1019,262.48,262.7633333333334,43.0,92.0
1020,262.48,262.77000000000004,59.0,86.0
1021,262.48,262.7766666666667,62.0,92.0
1022,262.48,262.785,55.0,88.0
1023,262.88,263.12166666666667,55.0,92.0
1024,262.88,263.125,59.0,90.0
1025,262.88,263.16,62.0,92.0
1026,262.88,263.1666666666667,43.0,82.0
1027,264.48,264.725,60.0,99.0
1028,264.68,264.9483333333333,62.0,86.0
1029,264.28000000000003,264.9666666666667,55.0,72.0
1030,265.08000000000004,265.58000000000004,55.0,93.0
1031,264.08000000000004,265.7116666666667,48.0,88.0
1032,264.88,265.72,67.0,112.0
1033,265.28000000000003,265.73,64.0,89.0
1034,265.48,265.7583333333333,60.0,92.0
1035,265.68,266.77500000000003,45.0,93.0
1036,266.08000000000004,266.8416666666667,52.0,92.0
1037,266.88,267.33000000000004,47.0,72.0
1038,266.48,267.66833333333335,64.0,102.0
1039,267.28000000000003,268.43666666666667,48.0,95.0
1040,267.68,268.52833333333336,55.0,73.0
1041,268.48,269.055,60.0,69.0
1042,268.08000000000004,269.1116666666667,64.0,97.0
1043,269.28000000000003,269.81333333333333,52.0,57.0
1044,268.88,269.88666666666666,45.0,88.0
1045,270.08000000000004,270.47833333333335,57.0,85.0
1046,269.68,270.49666666666667,64.0,99.0
1047,270.48,271.985,43.0,89.0
1048,270.88,272.0566666666667,50.0,72.0
1049,271.28000000000003,272.0766666666667,62.0,99.0
1050,271.68,272.08000000000004,59.0,92.0
1051,272.08000000000004,272.9716666666667,38.0,81.0
1052,272.48,273.01500000000004,45.0,63.0
1053,273.28000000000003,273.6566666666667,57.0,83.0
1054,272.88,273.66,62.0,97.0
1055,272.88,273.67833333333334,65.0,95.0
1056,274.08000000000004,274.545,55.0,72.0
1057,273.68,274.59000000000003,48.0,89.0
1058,274.48,275.285,64.0,95.0
1059,274.48,275.29833333333335,67.0,93.0
1060,274.88,275.3566666666667,60.0,85.0
1061,275.28000000000003,276.2066666666667,43.0,92.0
1062,275.68,276.21500000000003,50.0,72.0
1063,276.08000000000004,276.7966666666667,59.0,92.0
1064,276.48,276.80833333333334,55.0,78.0
1065,276.08000000000004,276.81333333333333,62.0,97.0
1066,277.28000000000003,277.77500000000003,55.0,67.0
1067,277.68,278.12833333333333,62.0,95.0
1068,277.88,278.48,55.0,77.0
1069,278.08000000000004,278.5083333333333,64.0,77.0
1070,278.28000000000003,278.5116666666667,60.0,89.0
1071,276.88,278.5416666666667,48.0,82.0
1072,279.28000000000003,279.45000000000005,50.0,67.0
1073,278.88,279.4666666666667,45.0,63.0
1074,278.48,279.47833333333335,38.0,93.0
1075,279.28000000000003,280.055,62.0,92.0
1076,279.28000000000003,280.105,65.0,92.0
1077,279.68,280.1516666666667,57.0,54.0
1078,280.48,281.0566666666667,43.0,53.0
1079,280.08000000000004,281.08500000000004,36.0,93.0
1080,280.88,281.19,48.0,64.0
1081,280.88,281.6333333333333,60.0,96.0
1082,280.88,281.6433333333334,64.0,95.0
1083,281.28000000000003,281.68666666666667,55.0,72.0
1084,282.08000000000004,282.6116666666667,50.0,56.0
1085,281.68,282.65000000000003,43.0,76.0
1086,282.48,283.285,59.0,90.0
1087,282.48,283.2916666666667,62.0,96.0
1088,283.28000000000003,284.73833333333334,36.0,65.0
1089,283.68,284.875,43.0,58.0
1090,284.08000000000004,285.2866666666667,48.0,63.0
1091,284.48,285.445,62.0,74.0
1092,284.08000000000004,285.5766666666667,64.0,90.0
1093,284.88,286.3316666666667,36.0,69.0
1094,285.28000000000003,286.52333333333337,43.0,47.0
1095,285.68,286.6366666666667,48.0,55.0
1096,285.68,287.0416666666667,62.0,95.0
1097,286.08000000000004,287.16,64.0,71.0
1098,287.28000000000003,287.7583333333333,62.0,93.0
1099,286.88,288.6,43.0,50.0
1100,287.28000000000003,288.6383333333334,48.0,58.0
1101,287.68,289.21333333333337,60.0,64.0
1102,282.88,289.2266666666667,55.0,78.0
1103,287.68,289.24333333333334,64.0,75.0
1104,286.48,289.3066666666667,36.0,50.0
