,start,end,pitch,velocity
0,16.4486212375,16.882771981250002,67.0,85.0
1,16.9843342375,17.43634208125,69.0,84.0
2,17.520047237500002,17.932992675,74.0,88.0
3,18.0557602375,18.22651875625,72.0,73.0
4,18.3236167375,18.7120086625,74.0,84.0
5,18.8593297375,19.265578762500002,72.0,85.0
6,19.395042737500003,20.4999508,74.0,90.0
7,20.734325237500002,21.09816365,67.0,84.0
8,21.2700382375,21.6428052,69.0,84.0
9,21.8057512375,22.20865205625,74.0,91.0
10,22.341464237500002,22.513338825,72.0,78.0
11,22.609320737500003,22.9977126625,74.0,84.0
12,23.1450337375,23.9463711,76.0,84.0
13,23.948603237500002,24.924047325,74.0,91.0
14,25.0200292375,25.417349712500002,67.0,84.0
15,25.555742237500002,25.956410918750002,69.0,84.0
16,26.0914552375,26.48542750625,74.0,80.0
17,26.6271682375,26.775605381250003,72.0,80.0
18,26.895024737500002,27.40283601875,72.0,81.0
19,27.4307377375,28.057968375,69.0,85.0
20,28.2343072375,28.6762704625,74.0,87.0
21,28.770020237500002,28.929618068750003,76.0,82.0
22,29.0378767375,29.518902368750002,74.0,85.0
23,29.5735897375,30.227606025,72.0,81.0
24,30.377159237500003,30.77671185,74.0,84.0
25,30.9128722375,31.06800579375,72.0,80.0
26,31.1807287375,31.67068291875,72.0,82.0
27,31.716441737500002,32.45416318125,69.0,84.0
28,32.5200112375,33.4798303625,67.0,82.0
29,33.5914372375,34.02558798125,67.0,85.0
30,34.127150237500004,34.57915808125,69.0,84.0
31,34.6628632375,35.075808675000005,74.0,88.0
32,35.1985762375,35.36933475625,72.0,73.0
33,35.4664327375,35.8548246625,74.0,84.0
34,36.0021457375,36.4083947625,72.0,85.0
35,36.5378587375,37.642766800000004,74.0,90.0
36,37.8771412375,38.24097965,67.0,84.0
37,38.4128542375,38.7856212,69.0,84.0
38,38.9485672375,39.35146805625,74.0,91.0
39,39.4842802375,39.656154825,72.0,78.0
40,39.7521367375,40.1405286625,74.0,84.0
41,40.287849737500004,41.089187100000004,76.0,84.0
42,41.0914192375,42.066863325,74.0,91.0
43,42.1628452375,42.5601657125,67.0,84.0
44,42.6985582375,43.09922691875,69.0,84.0
45,43.2342712375,43.62824350625,74.0,80.0
46,43.769984237500005,43.91842138125,72.0,80.0
47,44.037840737500005,44.545652018750005,72.0,81.0
48,44.5735537375,45.200784375000005,69.0,85.0
49,45.3771232375,45.8190864625,74.0,87.0
50,45.9128362375,46.07243406875,76.0,82.0
51,46.1806927375,46.66171836875,74.0,85.0
52,46.716405737500004,47.370422025,72.0,81.0
53,47.5199752375,47.91952785,81.0,84.0
54,48.0556882375,48.21082179375,79.0,80.0
55,48.3235447375,48.81349891875,79.0,82.0
56,48.8592577375,49.59697918125,76.0,84.0
57,49.662827237500004,50.6226463625,74.0,82.0
58,50.7342532375,51.180680737500005,72.0,86.0
59,51.2699662375,51.67733133125,74.0,90.0
60,51.8056792375,52.8815695125,79.0,84.0
61,52.877105237500004,53.29786315625,72.0,83.0
62,53.412818237500005,53.59696958125,74.0,85.0
63,53.680674737500006,54.720850812500004,76.0,80.0
64,55.0199572375,55.2320103,76.0,85.0
65,55.2878137375,55.4217419875,74.0,87.0
66,55.5556702375,55.763259025,74.0,86.0
67,55.8235267375,56.02999945625,72.0,85.0
68,56.091383237500004,56.45187344375,76.0,88.0
69,56.627096237500005,57.01883636875,84.0,85.0
70,57.1628092375,57.541156543750006,83.0,86.0
71,57.6985222375,57.88267358125,81.0,78.0
72,57.9663787375,59.11481348125,76.0,87.0
73,59.305661237500004,59.625972968750006,83.0,85.0
74,59.7074459875,60.012132756250004,81.0,85.0
75,60.1092307375,60.391596131250004,79.0,81.0
76,60.3770872375,61.272174375000006,81.0,83.0
77,61.4485132375,61.74650359375,81.0,85.0
78,61.8502979875,62.192931093750005,79.0,85.0
79,62.252082737500004,62.495385725000006,77.0,80.0
80,62.519939237500004,63.34471404375,79.0,84.0
81,63.5913652375,63.821275400000005,76.0,84.0
82,63.8592217375,64.0601141125,74.0,88.0
83,64.1270782375,64.34359557500001,72.0,85.0
84,64.39493473750001,65.07015633125,74.0,91.0
85,65.1985042375,65.68622628125,72.0,84.0
86,65.7342172375,66.13376985000001,69.0,87.0
87,66.13600198750001,66.5355546,76.0,84.0
88,66.5377867375,66.8034111,74.0,85.0
89,66.8056432375,67.7141232,74.0,81.0
90,67.89604240625,68.34246990625,72.0,86.0
91,68.43175540625,68.8391205,74.0,90.0
92,68.96746840625,70.04335868125,79.0,84.0
93,70.03889440625001,70.45965232500001,72.0,83.0
94,70.57460740625001,70.75875875,74.0,85.0
95,70.84246390625,71.88263998125001,76.0,80.0
96,72.18174640625,72.39379946875,76.0,85.0
97,72.44960290625,72.58353115625,74.0,87.0
98,72.71745940625,72.92504819375,74.0,86.0
99,72.98531590625001,73.191788625,72.0,85.0
100,73.25317240625,73.61366261250001,76.0,88.0
101,73.78888540625,74.1806255375,84.0,85.0
102,74.32459840625,74.7029457125,83.0,86.0
103,74.8413382375,75.02548958125,84.0,78.0
104,75.1091947375,76.25762948125,81.0,87.0
105,76.4484772375,76.89378866875,81.0,85.0
106,76.9841902375,77.41945705,88.0,73.0
107,77.5199032375,77.95963432500001,86.0,86.0
108,78.0556162375,78.49311518750001,83.0,85.0
109,78.5913292375,79.1091851375,79.0,84.0
110,79.1270422375,79.6605231,76.0,84.0
111,79.66275523750001,80.73194910000001,81.0,75.0
112,80.73418123750001,80.92949326875001,76.0,82.0
113,81.0020377375,81.18730515,74.0,87.0
114,81.2698942375,81.4440009625,72.0,84.0
115,81.5377507375,82.29109714375001,74.0,88.0
116,82.3413202375,82.73529250625,81.0,84.0
117,82.8770332375,83.31788039375,81.0,85.0
118,83.4127462375,83.95403958125,79.0,84.0
119,83.9484592375,84.35024398750001,74.0,84.0
120,84.4841722375,85.29108994375001,76.0,90.0
121,85.5555982375,85.94733836875001,74.0,88.0
122,86.09131123750001,88.1046992625,72.0,82.0
123,102.1627012375,102.59685198125,67.0,85.0
124,102.6984142375,103.15042208125,69.0,84.0
125,103.2341272375,103.647072675,74.0,88.0
126,103.7698402375,103.94059875625,72.0,73.0
127,104.0376967375,104.4260886625,74.0,84.0
128,104.5734097375,104.97965876250001,72.0,85.0
129,105.1091227375,106.2140308,74.0,90.0
130,106.4484052375,106.81224365,67.0,84.0
131,106.9841182375,107.35688520000001,69.0,84.0
132,107.5198312375,107.92273205625,74.0,91.0
133,108.0555442375,108.227418825,72.0,78.0
134,108.32340073750001,108.7117926625,74.0,84.0
135,108.85911373750001,109.6604511,76.0,84.0
136,109.6626832375,110.638127325,74.0,91.0
137,110.73410923750001,111.13142971250001,67.0,84.0
138,111.26982223750001,111.67049091875,69.0,84.0
139,111.80553523750001,112.19950750625,74.0,80.0
140,112.34124823750001,112.48968538125,72.0,80.0
141,112.6091047375,113.11691601875,72.0,81.0
142,113.1448177375,113.77204837500001,69.0,85.0
143,113.9483872375,114.39035046250001,74.0,87.0
144,114.4841002375,114.64369806875,76.0,82.0
145,114.75195673750001,115.23298236875,74.0,85.0
146,115.28766973750001,115.94168602500001,72.0,81.0
147,116.0912392375,116.49079185000001,74.0,84.0
148,116.6269522375,116.78208579375,72.0,80.0
149,116.8948087375,117.38476291875,72.0,82.0
150,117.4305217375,118.16824318125,69.0,84.0
151,118.23409123750001,119.1939103625,67.0,82.0
152,119.3055172375,119.73966798125001,67.0,85.0
153,119.8412302375,120.29323808125001,69.0,84.0
154,120.3769432375,120.789888675,74.0,88.0
155,120.9126562375,121.08341475625001,72.0,73.0
156,121.18051273750001,121.5689046625,74.0,84.0
157,121.71622573750001,122.1224747625,72.0,85.0
158,122.25193873750001,123.3568468,74.0,90.0
159,123.59122123750001,123.95505965000001,67.0,84.0
160,124.12693423750001,124.4997012,69.0,84.0
161,124.66264723750001,125.06554805625001,74.0,91.0
162,125.19836023750001,125.37023482500001,72.0,78.0
163,125.4662167375,125.8546086625,74.0,84.0
164,126.0019297375,126.8032671,76.0,84.0
165,126.8054992375,127.78094332500001,74.0,91.0
166,127.8769252375,128.2742457125,67.0,84.0
167,128.4126382375,128.81330691875002,69.0,84.0
168,128.9483512375,129.34232350625,74.0,80.0
169,129.4840642375,129.63250138125,72.0,80.0
170,129.7519207375,130.25973201875001,72.0,81.0
171,130.28763373750002,130.914864375,69.0,85.0
172,131.0912032375,131.5331664625,74.0,87.0
173,131.6269162375,131.78651406875,76.0,82.0
174,131.8947727375,132.37579836875,74.0,85.0
175,132.4304857375,133.084502025,72.0,81.0
176,133.2340552375,133.63360785,81.0,84.0
177,133.76976823750002,133.92490179375,79.0,80.0
178,134.0376247375,134.52757891875,79.0,82.0
179,134.5733377375,135.31105918125002,76.0,84.0
180,135.3769072375,136.3367263625,74.0,82.0
181,138.5911852375,139.0376127375,72.0,86.0
182,139.1268982375,139.53426333125,74.0,90.0
183,139.66261123750002,140.7385015125,79.0,84.0
184,140.73403723750002,141.15479515625,72.0,83.0
185,141.2697502375,141.45390158125,74.0,85.0
186,141.5376067375,142.5777828125,76.0,80.0
187,142.8768892375,143.0889423,76.0,85.0
188,143.14474573750002,143.2786739875,74.0,87.0
189,143.4126022375,143.620191025,74.0,86.0
190,143.6804587375,143.88693145625,72.0,85.0
191,143.9483152375,144.30880544375,76.0,88.0
192,144.4840282375,144.87576836875002,84.0,85.0
193,145.0197412375,145.39808854375,83.0,86.0
194,145.55545423750002,145.73960558125,81.0,78.0
195,145.8233107375,146.97174548125,76.0,87.0
196,147.1625932375,147.48290496875,83.0,85.0
197,147.5643779875,147.86906475625,81.0,85.0
198,147.9661627375,148.24852813125,79.0,81.0
199,148.2340192375,149.129106375,81.0,83.0
200,149.3054452375,149.60343559375,81.0,85.0
201,149.7072299875,150.04986309375002,79.0,85.0
202,150.10901473750002,150.352317725,77.0,80.0
203,150.3768712375,151.20164604375,79.0,84.0
204,151.44829723750001,151.67820740000002,76.0,84.0
205,151.7161537375,151.9170461125,74.0,88.0
206,151.9840102375,152.200527575,72.0,85.0
207,152.2518667375,152.92708833125002,74.0,91.0
208,153.0554362375,153.54315828125002,72.0,84.0
209,153.59114923750002,153.99070185,69.0,87.0
210,153.9929339875,154.3924866,76.0,84.0
211,154.3947187375,154.6603431,74.0,85.0
212,154.6625752375,155.57105520000002,74.0,81.0
213,155.75297440625002,156.19940190625002,72.0,86.0
214,156.28868740625,156.6960525,74.0,90.0
215,156.82440040625,157.90029068125,79.0,84.0
216,157.89582640625,158.316584325,72.0,83.0
217,158.43153940625,158.61569075,74.0,85.0
218,158.69939590625,159.73957198125,76.0,80.0
219,160.03867840625,160.25073146875002,76.0,85.0
220,160.30653490625,160.44046315625002,74.0,87.0
221,160.57439140625002,160.78198019375,74.0,86.0
222,160.84224790625,161.04872062500002,72.0,85.0
223,161.11010440625,161.4705946125,76.0,88.0
224,161.64581740625002,162.03755753750002,84.0,85.0
225,162.18153040625,162.5598777125,83.0,86.0
226,162.6982702375,162.88242158125001,84.0,78.0
227,162.96612673750002,164.11456148125,81.0,87.0
228,164.30540923750002,164.75072066875,81.0,85.0
229,164.8411222375,165.27638905,88.0,73.0
230,165.37683523750002,165.816566325,86.0,86.0
231,165.9125482375,166.3500471875,83.0,85.0
232,166.44826123750002,166.96611713750002,79.0,84.0
233,166.9839742375,167.5174551,76.0,84.0
234,167.5196872375,168.5888811,81.0,75.0
235,168.5911132375,168.78642526875,76.0,82.0
236,168.85896973750002,169.04423715000001,74.0,87.0
237,169.1268262375,169.3009329625,72.0,84.0
238,169.3946827375,170.14802914375,74.0,88.0
239,170.19825223750001,170.59222450625,81.0,84.0
240,170.7339652375,171.17481239375002,81.0,85.0
241,171.26967823750002,171.81097158125002,79.0,84.0
242,171.8053912375,172.2071759875,74.0,84.0
243,172.34110423750002,173.14802194375,76.0,90.0
244,173.4125302375,173.80427036875,74.0,88.0
245,173.9482432375,175.96163126250002,72.0,82.0
246,187.8767812375,188.3232087375,72.0,86.0
247,188.4124942375,188.81985933125,74.0,90.0
248,188.94820723750001,190.02409751250002,79.0,84.0
249,190.01963323750002,190.44039115625,72.0,83.0
250,190.5553462375,190.73949758125002,74.0,85.0
251,190.8232027375,191.8633788125,76.0,80.0
252,192.16248523750002,192.3745383,76.0,85.0
253,192.43034173750002,192.5642699875,74.0,87.0
254,192.6981982375,192.905787025,74.0,86.0
255,192.9660547375,193.17252745625,72.0,85.0
256,193.2339112375,193.59440144375,76.0,88.0
257,193.7696242375,194.16136436875001,84.0,85.0
258,194.3053372375,194.68368454375002,83.0,86.0
259,194.8410502375,195.02520158125,81.0,78.0
260,195.1089067375,196.25734148125,76.0,87.0
261,196.4481892375,196.76850096875,83.0,85.0
262,196.84997398750002,197.15466075625,81.0,85.0
263,197.2517587375,197.53412413125,79.0,81.0
264,197.5196152375,198.41470237500002,81.0,83.0
265,198.5910412375,198.88903159375002,81.0,85.0
266,198.9928259875,199.33545909375002,79.0,85.0
267,199.39461073750002,199.637913725,77.0,80.0
268,199.6624672375,200.48724204375,79.0,84.0
269,200.7338932375,200.96380340000002,76.0,84.0
270,201.0017497375,201.2026421125,74.0,88.0
271,201.2696062375,201.48612357500002,72.0,85.0
272,201.53746273750002,202.21268433125002,74.0,91.0
273,202.3410322375,202.82875428125,72.0,84.0
274,202.87674523750002,203.27629785000002,69.0,87.0
275,203.2785299875,203.6780826,76.0,84.0
276,203.6803147375,203.9459391,74.0,85.0
277,203.94817123750002,204.85665120000002,74.0,81.0
278,205.03857040625002,205.48499790625002,72.0,86.0
279,205.57428340625,205.9816485,74.0,90.0
280,206.10999640625002,207.18588668125,79.0,84.0
281,207.18142240625002,207.602180325,72.0,83.0
282,207.71713540625,207.90128675,74.0,85.0
283,207.98499190625,209.02516798125,76.0,80.0
284,209.32427440625,209.53632746875002,76.0,85.0
285,209.59213090625002,209.72605915625002,74.0,87.0
286,209.85998740625,210.06757619375,74.0,86.0
287,210.12784390625,210.334316625,72.0,85.0
288,210.39570040625,210.7561906125,76.0,88.0
289,210.93141340625002,211.32315353750002,84.0,85.0
290,211.46712640625,211.8454737125,83.0,86.0
291,211.9838662375,212.16801758125,84.0,78.0
292,212.25172273750002,213.40015748125,81.0,87.0
293,213.5910052375,214.03631666875,81.0,85.0
294,214.1267182375,214.56198505,88.0,73.0
295,214.66243123750002,215.10216232500002,86.0,86.0
296,215.1981442375,215.63564318750002,83.0,85.0
297,215.73385723750002,216.25171313750002,79.0,84.0
298,216.2695702375,216.8030511,76.0,84.0
299,216.80528323750002,217.8744771,81.0,75.0
300,217.87670923750002,218.07202126875,76.0,82.0
301,218.14456573750002,218.32983315,74.0,87.0
302,218.4124222375,218.5865289625,72.0,84.0
303,218.6802787375,219.43362514375002,74.0,88.0
304,219.4838482375,219.87782050625,81.0,84.0
305,220.0195612375,220.46040839375001,81.0,85.0
306,220.55527423750002,221.09656758125,79.0,84.0
307,221.0909872375,221.49277198750002,74.0,84.0
308,221.62670023750002,222.43361794375002,76.0,90.0
309,222.69812623750002,223.08986636875002,74.0,88.0
310,223.2338392375,225.24722726250002,72.0,82.0
