,start,end,pitch,velocity
0,0.39620440625000003,1.17522039375,60.0,74.0
1,1.20423818125,2.1093699375,43.0,72.0
2,1.1986578375,2.2611552875000003,59.0,78.0
3,2.23325356875,2.8783413062500003,57.0,70.0
4,2.2343696375,3.09820685,60.0,71.0
5,2.73102023125,4.63503351875,52.0,70.0
6,2.24106605,4.6495424125,45.0,60.0
7,3.28682246875,4.677444131250001,60.0,74.0
8,3.02119810625,4.68190840625,57.0,78.0
9,4.6629352375,4.68190840625,57.0,72.0
10,4.6629352375,5.236594575,64.0,84.0
11,4.9307917375,5.26672843125,52.0,72.0
12,4.6629352375,5.2790051875,45.0,80.0
13,5.1986482375000005,5.31137118125,57.0,75.0
14,5.4665047375,6.11605675,55.0,70.0
15,6.0022177375000005,6.157351293750001,50.0,71.0
16,5.4665047375,6.16627984375,59.0,74.0
17,5.4665047375,6.24440465625,43.0,80.0
18,6.2700742375,6.40958283125,55.0,82.0
19,6.5379307375,6.745519525000001,36.0,80.0
20,6.5379307375,6.950876175,55.0,77.0
21,6.5379307375,7.01225995625,60.0,79.0
22,7.609356737500001,7.92966846875,62.0,79.0
23,7.8772132375,8.2745337125,64.0,85.0
24,8.4129262375,8.53234559375,60.0,73.0
25,7.3415002375,8.83814843125,55.0,70.0
26,8.4129262375,8.854889462500001,67.0,78.0
27,8.4129262375,8.857121600000001,64.0,83.0
28,7.0736437375,8.9039964875,48.0,64.0
29,8.6807827375,8.92296965625,62.0,73.0
30,8.9486392375,9.4464059,64.0,85.0
31,9.2164957375,9.61270014375,55.0,77.0
32,9.4843522375,9.8281014125,60.0,75.0
33,8.9486392375,9.9932795875,48.0,82.0
34,9.7522087375,10.07921688125,64.0,83.0
35,10.0200652375,10.5959567125,62.0,80.0
36,10.5557782375,10.9084559625,55.0,84.0
37,10.0200652375,10.9307773375,47.0,80.0
38,10.2879217375,10.9888129125,50.0,71.0
39,10.8236347375,11.1249733,59.0,77.0
40,11.0914912375,11.7120254625,60.0,79.0
41,11.3593477375,11.976533756250001,52.0,75.0
42,11.6272042375,11.9843462375,57.0,74.0
43,11.0914912375,12.00331940625,45.0,84.0
44,11.8950607375,12.18412254375,60.0,76.0
45,12.1629172375,12.48099683125,55.0,80.0
46,12.1629172375,12.70532665,59.0,80.0
47,12.430773737500001,12.88278158125,50.0,77.0
48,12.1629172375,13.0289865875,43.0,84.0
49,12.9664867375,13.0959507125,59.0,71.0
50,12.6986302375,13.09706678125,55.0,88.0
51,13.234343237500001,13.54795855625,53.0,77.0
52,13.234343237500001,13.7745205125,57.0,84.0
53,13.7700562375,14.58813463125,53.0,79.0
54,14.037912737500001,14.61938455625,60.0,79.0
55,14.56246505,14.7521967375,65.0,79.0
56,13.5021997375,15.32920428125,48.0,71.0
57,13.234343237500001,15.3749631,41.0,83.0
58,15.348177450000001,15.65956063125,55.0,76.0
59,15.3771952375,15.96089919375,62.0,75.0
60,15.9129082375,17.5021901375,55.0,84.0
61,15.645051737500001,17.51000261875,50.0,73.0
62,15.3771952375,17.537904337500002,43.0,82.0
63,16.180764737500002,17.5646899875,62.0,77.0
64,16.7164777375,17.6316541125,67.0,77.0
65,17.520047237500002,17.675180793750002,55.0,74.0
66,17.520047237500002,17.89616240625,60.0,79.0
67,17.787903737500002,18.174063525,55.0,76.0
68,18.0557602375,18.355982731250002,60.0,76.0
69,18.3236167375,18.8325440875,62.0,78.0
70,18.8593297375,19.0557578375,60.0,69.0
71,17.520047237500002,19.15955223125,48.0,78.0
72,19.6628992375,20.01669303125,55.0,71.0
73,19.6628992375,20.35597793125,64.0,84.0
74,20.4664687375,20.613789812500002,55.0,72.0
75,20.734325237500002,21.070261931250002,55.0,83.0
76,20.734325237500002,21.16624384375,60.0,80.0
77,19.6628992375,21.182984875000002,48.0,80.0
78,21.8057512375,22.1584289625,57.0,70.0
79,21.8057512375,22.445258631250002,60.0,78.0
80,22.341464237500002,22.495481725,57.0,71.0
81,22.609320737500003,23.98989778125,57.0,78.0
82,22.0736077375,24.3816379125,52.0,78.0
83,22.609320737500003,24.62605696875,67.0,78.0
84,24.7521727375,25.13275218125,52.0,69.0
85,25.0200292375,25.36489448125,57.0,79.0
86,25.0200292375,25.4977066625,60.0,81.0
87,21.8057512375,25.5378851375,45.0,83.0
88,25.2878857375,25.557974375,52.0,70.0
89,25.555742237500002,25.63944739375,57.0,65.0
90,26.0914552375,26.39390986875,53.0,74.0
91,26.0914552375,26.701944843750002,60.0,78.0
92,26.6271682375,27.0066316125,53.0,81.0
93,26.895024737500002,27.391675331250003,57.0,85.0
94,26.3593117375,27.52671965,48.0,72.0
95,27.4307377375,27.54346068125,60.0,87.0
96,26.0914552375,27.55238923125,41.0,84.0
97,28.2343072375,28.57694034375,52.0,78.0
98,28.2343072375,28.76443989375,59.0,79.0
99,28.770020237500002,29.15952823125,55.0,79.0
100,28.502163737500002,29.6851966125,47.0,72.0
101,28.2343072375,29.744348256250003,40.0,86.0
102,29.5735897375,29.851490856250003,55.0,82.0
103,29.8414462375,29.94300849375,52.0,79.0
104,29.0378767375,29.979838762500002,64.0,86.0
105,30.377159237500003,30.5780516125,57.0,76.0
106,30.377159237500003,30.71086379375,62.0,79.0
107,30.6450157375,31.0244791125,57.0,77.0
108,30.9128722375,31.213094731250003,62.0,79.0
109,30.377159237500003,31.609299137500003,50.0,84.0
110,31.1807287375,31.746575593750002,65.0,85.0
111,31.716441737500002,31.86041460625,62.0,79.0
112,32.5200112375,33.0378671375,60.0,80.0
113,33.0557242375,33.34701818125,55.0,86.0
114,32.7878677375,33.46085719375,50.0,82.0
115,32.5200112375,33.4664375375,43.0,85.0
116,33.3235807375,33.477598225,60.0,86.0
117,33.5914372375,33.93407034375,55.0,84.0
118,33.5914372375,34.1896500875,59.0,87.0
119,33.8592937375,34.2119714625,50.0,75.0
120,33.5914372375,34.2209000125,43.0,84.0
121,34.127150237500004,34.30237303125,55.0,85.0
122,34.6628632375,34.99210351875,55.0,75.0
123,34.6628632375,35.255495743750004,60.0,78.0
124,35.1985762375,35.472013081250005,55.0,82.0
125,35.4664327375,35.8012533625,62.0,81.0
126,36.0021457375,36.083618756250004,60.0,84.0
127,34.9307197375,36.19968990625,43.0,71.0
128,34.6628632375,36.3191092625,36.0,80.0
129,36.8057152375,38.138301325,36.0,81.0
130,37.28004445625,38.43852381875,60.0,68.0
131,38.42066671875,38.8860673875,69.0,74.0
132,38.6070502,38.90727269375,55.0,74.0
133,37.5467848875,38.91954945,64.0,72.0
134,38.9485672375,39.23986118125,57.0,73.0
135,38.9485672375,39.5177623,60.0,80.0
136,39.4842802375,39.65503875625,57.0,79.0
137,39.7521367375,39.92289525625,57.0,77.0
138,39.7521367375,39.9284756,62.0,79.0
139,40.287849737500004,40.383831650000005,60.0,73.0
140,40.287849737500004,40.4106173,57.0,64.0
141,39.2164237375,40.615973950000004,52.0,76.0
142,38.9485672375,40.6606167,45.0,84.0
143,41.0914192375,41.665078575,64.0,80.0
144,41.6271322375,41.80012289375,57.0,81.0
145,41.3592757375,42.0512383625,52.0,73.0
146,41.8949887375,42.19744336875,57.0,80.0
147,41.8949887375,42.64610300625,64.0,86.0
148,42.1628452375,42.727576025000005,52.0,64.0
149,41.0914192375,42.745433125000005,45.0,84.0
150,42.6985582375,42.88382565,62.0,72.0
151,43.2342712375,43.86931435625,60.0,78.0
152,43.769984237500005,44.580250150000005,53.0,79.0
153,44.037840737500005,44.6181964875,57.0,79.0
154,44.5735537375,44.74877653125,60.0,79.0
155,43.502127737500004,44.8101603125,48.0,72.0
156,43.2342712375,44.899445812500005,41.0,84.0
157,45.3771232375,45.666185043750005,52.0,80.0
158,45.3771232375,46.01216635625,55.0,82.0
159,45.9128362375,46.5289061875,52.0,84.0
160,46.1806927375,46.545647218750005,55.0,67.0
161,45.6449797375,46.7967626875,47.0,74.0
162,46.1806927375,46.82466440625,64.0,85.0
163,45.3771232375,46.906137425000004,40.0,85.0
164,46.716405737500004,46.9887265125,59.0,84.0
165,46.984262237500005,47.07466380625,52.0,89.0
166,47.5199752375,47.79564421875,57.0,78.0
167,47.5199752375,48.060152512500004,62.0,79.0
168,48.0556882375,48.40278561875,57.0,84.0
169,47.7878317375,48.785597200000005,45.0,71.0
170,47.5199752375,48.852561325,38.0,85.0
171,48.3235447375,48.8592577375,65.0,90.0
172,48.8592577375,49.1181856875,62.0,85.0
173,49.1271142375,49.3637208125,57.0,80.0
174,49.662827237500004,50.23983478125,55.0,77.0
175,49.3949707375,50.54563761875,62.0,75.0
176,49.662827237500004,50.7342532375,43.0,84.0
177,50.466396737500006,50.835815493750005,55.0,86.0
178,50.198540237500005,50.931797406250006,50.0,83.0
179,51.0021097375,51.3927338,55.0,82.0
180,50.7342532375,51.7610364875,67.0,84.0
181,51.5378227375,51.765500762500004,55.0,78.0
182,50.7342532375,51.78559,62.0,84.0
183,51.2699662375,51.79563461875,50.0,80.0
184,50.736485375,51.810143512500005,43.0,84.0
185,51.8056792375,51.965277068750005,36.0,80.0
186,51.8056792375,53.236479375,67.0,80.0
187,52.6092487375,53.379336175,55.0,85.0
188,52.3413922375,53.402773618750004,48.0,81.0
189,53.144961737500005,53.5021037375,60.0,84.0
190,53.412818237500005,53.8369243625,67.0,80.0
191,53.9485312375,54.27665545,59.0,79.0
192,53.9485312375,54.80232383125,67.0,84.0
193,54.4842442375,55.11482308125,59.0,84.0
194,54.7521007375,55.14160873125,62.0,80.0
195,54.2163877375,55.397188475,50.0,69.0
196,55.2878137375,55.445179431250004,62.0,80.0
197,53.9485312375,55.446295500000005,43.0,84.0
198,55.2878137375,55.473081150000006,59.0,80.0
199,55.2878137375,55.56125058125,67.0,79.0
200,56.091383237500004,56.36482008125,57.0,72.0
201,56.091383237500004,56.63937299375,60.0,77.0
202,56.627096237500005,56.77664945,57.0,78.0
203,56.894952737500006,57.74204891875,57.0,78.0
204,56.894952737500006,57.7833434625,64.0,84.0
205,56.359239737500005,57.870396825,52.0,68.0
206,56.091383237500004,57.902762818750006,45.0,82.0
207,57.6985222375,57.9820037,60.0,86.0
208,57.9663787375,58.13044084375,57.0,81.0
209,58.7699482375,58.9931619875,59.0,76.0
210,59.037804737500004,59.083563556250006,59.0,51.0
211,58.2342352375,59.16168836875,55.0,84.0
212,59.037804737500004,59.4038752875,62.0,79.0
213,59.573517737500005,59.91391870625,67.0,84.0
214,58.5020917375,59.96749000625,50.0,83.0
215,58.2342352375,59.97418641875,43.0,83.0
216,59.841374237500006,60.05231123125,55.0,80.0
217,60.3770872375,60.5958367125,53.0,72.0
218,60.3770872375,60.97418401875,60.0,78.0
219,60.6449437375,61.684003743750004,48.0,85.0
220,61.1806567375,61.728646493750006,65.0,87.0
221,60.3770872375,61.7297625625,41.0,84.0
222,60.9128002375,61.7498518,53.0,84.0
223,61.7163697375,61.82016413125,57.0,80.0
224,61.7163697375,61.858110468750006,60.0,82.0
225,62.519939237500004,63.09471464375,64.0,84.0
226,63.055652237500006,63.252080337500004,55.0,84.0
227,63.3235087375,63.69515963125,55.0,85.0
228,63.3235087375,63.709668525000005,59.0,84.0
229,62.787795737500005,63.83578429375,47.0,79.0
230,62.519939237500004,63.92283765625,40.0,85.0
231,63.8592217375,63.99203391875,55.0,78.0
232,63.8592217375,63.9998464,59.0,84.0
233,63.8592217375,64.0601141125,64.0,84.0
234,64.6627912375,64.9485048375,57.0,74.0
235,64.6627912375,65.41836978125001,65.0,82.0
236,65.1985042375,65.56234265,57.0,84.0
237,65.4663607375,65.7610028875,62.0,82.0
238,64.9306477375,66.04560041875,45.0,76.0
239,64.6627912375,66.08354675625,38.0,84.0
240,66.0020737375,66.1985018375,57.0,84.0
241,66.0020737375,66.3904656625,65.0,79.0
242,66.2699302375,66.5288581875,57.0,74.0
243,66.8056432375,67.0913568375,55.0,76.0
244,66.8056432375,67.14604420625,62.0,77.0
245,67.34135623750001,68.15162215000001,55.0,81.0
246,67.6092127375,68.46523746875,62.0,78.0
247,68.1449257375,68.68621908125,67.0,83.0
248,68.4127822375,68.691799425,55.0,82.0
249,67.0734997375,68.73644217500001,50.0,81.0
250,66.8056432375,68.76211175625001,43.0,83.0
251,68.9484952375,69.19291429375001,55.0,84.0
252,68.9484952375,69.35809246875,60.0,80.0
253,69.4842082375,69.807868175,55.0,86.0
254,69.7520647375,70.3368847625,62.0,85.0
255,68.9484952375,70.388223925,48.0,90.0
256,69.2163517375,70.39380426875,52.0,84.0
257,70.28777773750001,70.59023236875001,60.0,82.0
258,70.5556342375,70.65719649375,55.0,82.0
259,71.0913472375,71.42281965625,59.0,78.0
260,71.0913472375,71.68174760625,64.0,83.0
261,71.3592037375,72.7297361625,47.0,70.0
262,71.0913472375,72.73531650625,40.0,86.0
263,71.8949167375,72.83129841875001,64.0,81.0
264,71.6270602375,72.8368787625,59.0,82.0
265,73.23419923750001,73.531073525,57.0,73.0
266,73.23419923750001,73.772144375,60.0,77.0
267,73.76991223750001,74.11366141250001,57.0,85.0
268,73.23419923750001,74.13151851250001,45.0,85.0
269,73.5020557375,74.1605363,52.0,79.0
270,74.0377687375,74.25986641875001,60.0,70.0
271,74.30562523750001,74.63040124375,55.0,85.0
272,74.5734817375,74.8636596125,50.0,78.0
273,74.30562523750001,74.86700781875,43.0,84.0
274,74.30562523750001,74.88932919375,59.0,85.0
275,74.8413382375,74.9663379375,55.0,87.0
276,75.3770512375,75.575711475,57.0,77.0
277,75.3770512375,75.932853475,60.0,78.0
278,75.9127642375,76.06231745000001,57.0,84.0
279,76.1806207375,76.83910130000001,57.0,79.0
280,75.3770512375,76.88262798125,42.0,85.0
281,75.6449077375,77.11923455625,48.0,68.0
282,76.1806207375,77.8056168375,64.0,86.0
283,77.5199032375,77.8681166875,59.0,79.0
284,77.5199032375,78.30115136250001,67.0,78.0
285,78.0556162375,78.6270434375,59.0,84.0
286,78.3234727375,78.65717729375001,64.0,86.0
287,77.7877597375,78.9640962,47.0,78.0
288,77.5199032375,78.98306936875001,40.0,86.0
289,78.8591857375,79.11922975625001,67.0,78.0
290,78.8591857375,79.12815830625,59.0,84.0
291,79.66275523750001,79.968558075,57.0,75.0
292,79.66275523750001,80.1716825875,69.0,80.0
293,80.19846823750001,80.54110134375,57.0,84.0
294,80.4663247375,80.74980620000001,64.0,85.0
295,79.9306117375,81.20627831875001,52.0,77.0
296,79.66275523750001,81.2297157625,45.0,84.0
297,81.0020377375,81.27547458125001,60.0,83.0
298,81.2698942375,81.89154453125,57.0,85.0
299,81.8056072375,82.40940043125,65.0,84.0
300,82.3413202375,82.68060513750001,57.0,86.0
301,82.60917673750001,82.99422045625,64.0,90.0
302,82.0734637375,83.06564885625001,45.0,69.0
303,81.8056072375,83.11698801875,38.0,82.0
304,83.14488973750001,83.39377306875001,62.0,84.0
305,83.4127462375,83.85805766875,60.0,82.0
306,83.9484592375,84.48528830625,62.0,84.0
307,84.4841722375,85.28885780625001,55.0,84.0
308,84.2163157375,85.48082163125001,50.0,76.0
309,83.9484592375,85.5689910625,43.0,82.0
310,85.2877417375,85.60916953750001,67.0,76.0
311,84.7520287375,85.64599980625,62.0,78.0
312,85.5555982375,85.80448156875,55.0,80.0
313,85.96296333125001,86.85023798750001,60.0,68.0
314,86.04778455625001,87.08796063125,64.0,80.0
315,86.1136326125,87.12367483125,67.0,69.0
316,87.1850586125,87.95291391250001,64.0,74.0
317,87.08126421875001,87.9796995625,60.0,87.0
318,87.19733536875,87.99197631875,67.0,87.0
319,86.59465824375,88.031038725,55.0,68.0
320,86.05671310625,88.08907430000001,48.0,80.0
321,88.13706525625,88.52992145625001,60.0,72.0
322,88.19733296875,89.9752304875,65.0,80.0
323,89.23750904375001,90.19509603125,69.0,80.0
324,88.70626031875,90.21072099375,60.0,66.0
325,88.20179724375001,90.33795283125,53.0,95.0
326,90.26094408750001,91.4640662,55.0,59.0
327,90.3368367625,92.1180824875,59.0,70.0
328,91.40045028125,92.26317142500001,67.0,71.0
329,91.9305829375,92.26875176875001,55.0,80.0
330,90.3770152375,92.32901948125,62.0,66.0
331,90.36473848125,92.37143009375,43.0,93.0
332,90.870317625,92.5064744125,50.0,65.0
333,92.42053711875,93.316740325,57.0,67.0
334,92.49866193125,93.6136146125,60.0,69.0
335,93.54999869375,94.6604871,57.0,80.0
336,94.04106894375,94.67499599375,60.0,74.0
337,92.52544758125,94.6805763375,41.0,93.0
338,93.03772313750001,94.6850406125,48.0,61.0
339,92.5511171625,94.7028977125,65.0,59.0
340,94.64151393125,94.79329928125,55.0,42.0
341,94.70624591875,95.22745002500001,64.0,86.0
342,94.682808475,95.2698606375,60.0,80.0
343,95.20401258125,95.37365503125001,55.0,85.0
344,95.46963694375,96.31784919375,55.0,75.0
345,95.47186908125,96.343518775,64.0,84.0
346,95.47633335625001,96.3747687,60.0,78.0
347,94.9462007,96.548875425,43.0,79.0
348,94.70401378125,96.68391974375001,36.0,83.0
349,96.700660775,96.86360681250001,55.0,67.0
350,96.77097310625001,96.94842803750001,60.0,74.0
351,96.83793723125001,97.42722153125,65.0,83.0
352,97.36025740625,97.441730425,60.0,57.0
353,97.10356159375,98.24864813125001,43.0,63.0
354,96.84909791875,98.29998729375001,36.0,80.0
355,97.34351637500001,98.31226405000001,55.0,86.0
356,97.61583715,98.352442525,60.0,73.0
357,97.58347115625,98.52543318125001,65.0,82.0
358,98.89820014375,99.12141389375,55.0,52.0
359,98.96404820000001,99.42052031875001,62.0,77.0
360,99.47855589375,99.852438925,55.0,93.0
361,99.74418025625,100.3591341375,67.0,88.0
362,99.22855649375,100.52989265625,50.0,77.0
363,100.28658966875001,100.56114258125001,62.0,80.0
364,98.96516426875,100.59908891875,43.0,85.0
365,100.53658906875,100.63591918750001,55.0,85.0
366,100.97855229375,101.2028821125,53.0,67.0
367,101.06783779375,101.50533674375001,57.0,71.0
368,101.08346275625,101.557791975,60.0,83.0
369,101.09015916875,101.60020258750001,41.0,84.0
370,101.99752306250001,102.19283509375,55.0,72.0
371,102.04997829375,102.2430581875,59.0,72.0
372,102.129219175,102.28993307500001,62.0,75.0
373,102.16939765000001,102.46738800625,67.0,82.0
374,102.7341284375,103.13479711875,59.0,80.0
375,102.7162713375,103.13926139375,55.0,77.0
376,102.4216291875,103.1961809,50.0,70.0
377,102.71515526875001,103.22296655000001,65.0,84.0
378,102.17497799375,103.24863613125001,43.0,84.0
379,103.2341272375,103.38926079375,55.0,74.0
380,103.2341272375,103.61024240625001,60.0,79.0
381,103.5019837375,103.888143525,55.0,76.0
382,103.7698402375,104.07006273125,60.0,76.0
383,104.0376967375,104.5466240875,62.0,78.0
384,103.2341272375,104.87363223125,48.0,78.0
385,104.5734097375,105.12809590625001,60.0,69.0
386,105.37697923750001,105.73077303125001,55.0,71.0
387,105.37697923750001,106.07005793125,67.0,84.0
388,105.3859077875,106.12809350625001,59.0,71.0
389,106.1805487375,106.3278698125,55.0,72.0
390,105.37697923750001,106.897064875,48.0,80.0
391,106.4484052375,107.24639439375001,55.0,83.0
392,106.4484052375,107.42273325625,60.0,80.0
393,107.5198312375,107.8725089625,57.0,70.0
394,107.5198312375,108.15933863125001,60.0,78.0
395,108.0555442375,108.209561725,57.0,71.0
396,108.32340073750001,108.5064360125,62.0,78.0
397,108.32340073750001,108.51090028750001,57.0,78.0
398,108.85911373750001,108.9573277875,60.0,73.0
399,108.85911373750001,108.9751848875,57.0,70.0
400,107.78768773750001,110.0957179125,52.0,78.0
401,109.6626832375,110.59683278125,60.0,78.0
402,109.6626832375,110.6068774,57.0,77.0
403,109.6626832375,110.6091095375,64.0,84.0
404,110.4662527375,110.84683218125001,52.0,69.0
405,110.73410923750001,111.07897448125,57.0,79.0
406,110.73410923750001,111.2117866625,60.0,81.0
407,107.5198312375,111.25196513750001,45.0,83.0
408,111.0019657375,111.27205437500001,52.0,70.0
409,111.26982223750001,111.35352739375,57.0,65.0
410,111.80553523750001,112.10798986875001,53.0,74.0
411,111.80553523750001,112.41602484375001,60.0,78.0
412,112.34124823750001,112.72071161250001,53.0,81.0
413,112.6091047375,113.10575533125001,57.0,85.0
414,112.0733917375,113.24079965,48.0,72.0
415,113.1448177375,113.25754068125,60.0,87.0
416,111.80553523750001,113.26646923125,41.0,84.0
417,113.9483872375,114.29102034375,52.0,78.0
418,113.9483872375,114.47851989375,59.0,79.0
419,114.4841002375,114.87360823125,55.0,79.0
420,114.21624373750001,115.3992766125,47.0,72.0
421,113.9483872375,115.45842825625,40.0,86.0
422,115.28766973750001,115.56557085625,55.0,82.0
423,115.5555262375,115.65708849375001,52.0,79.0
424,114.75195673750001,115.6939187625,64.0,86.0
425,116.0912392375,116.2921316125,57.0,76.0
426,116.0912392375,116.42494379375,62.0,79.0
427,116.3590957375,116.7385591125,57.0,77.0
428,116.6269522375,116.92717473125,62.0,79.0
429,116.8948087375,117.17047771875,65.0,85.0
430,116.0912392375,117.3233791375,50.0,84.0
431,117.4305217375,117.57449460625,62.0,79.0
432,117.17270985625001,117.932752675,66.0,85.0
433,118.23409123750001,118.75194713750001,60.0,80.0
434,118.76980423750001,119.06109818125,55.0,86.0
435,118.5019477375,119.17493719375001,50.0,82.0
436,118.23409123750001,119.18051753750001,43.0,85.0
437,119.0376607375,119.191678225,60.0,86.0
438,119.3055172375,119.64815034375,55.0,84.0
439,119.3055172375,119.90373008750001,59.0,87.0
440,119.5733737375,119.9260514625,50.0,75.0
441,119.3055172375,119.9349800125,43.0,84.0
442,119.8412302375,120.01645303125001,55.0,85.0
443,120.3769432375,120.70618351875001,55.0,75.0
444,120.3769432375,120.96957574375,60.0,78.0
445,120.9126562375,121.18609308125001,55.0,82.0
446,121.18051273750001,121.5153333625,62.0,81.0
447,121.71622573750001,121.79769875625,60.0,84.0
448,120.64479973750001,121.91376990625001,43.0,71.0
449,120.3769432375,122.0331892625,36.0,80.0
450,122.5197952375,122.7921160125,55.0,78.0
451,122.5197952375,123.1247045,64.0,84.0
452,123.0555082375,123.38251638125,55.0,82.0
453,123.3233647375,123.75081906875,62.0,86.0
454,122.7876517375,123.8055064375,43.0,56.0
455,122.5197952375,123.85238132500001,36.0,81.0
456,123.8590777375,123.9974702625,55.0,78.0
457,123.8590777375,124.0197916375,60.0,77.0
458,124.66264723750001,124.95394118125,57.0,73.0
459,124.66264723750001,125.23184230000001,60.0,80.0
460,125.19836023750001,125.36911875625,57.0,79.0
461,125.4662167375,125.63697525625001,57.0,77.0
462,125.4662167375,125.64255560000001,62.0,79.0
463,126.0019297375,126.09791165,60.0,73.0
464,126.0019297375,126.12469730000001,57.0,64.0
465,124.9305037375,126.33005395,52.0,76.0
466,124.66264723750001,126.3746967,45.0,84.0
467,126.8054992375,127.379158575,64.0,80.0
468,127.3412122375,127.51420289375001,57.0,81.0
469,127.07335573750001,127.76531836250001,52.0,73.0
470,127.60906873750001,127.91152336875001,57.0,80.0
471,127.60906873750001,128.36018300625,64.0,86.0
472,127.8769252375,128.44165602500001,52.0,64.0
473,126.8054992375,128.459513125,45.0,84.0
474,128.4126382375,128.59790565,62.0,72.0
475,128.9483512375,129.58339435625,60.0,78.0
476,129.4840642375,130.29433015,53.0,79.0
477,129.7519207375,130.3322764875,57.0,79.0
478,130.28763373750002,130.46285653125,60.0,79.0
479,129.2162077375,130.5242403125,48.0,72.0
480,128.9483512375,130.6135258125,41.0,84.0
481,131.0912032375,131.38026504375,52.0,80.0
482,131.0912032375,131.72624635625002,55.0,82.0
483,131.6269162375,132.2429861875,52.0,84.0
484,131.8947727375,132.25972721875002,55.0,67.0
485,131.35905973750002,132.5108426875,47.0,74.0
486,131.8947727375,132.53874440625,64.0,85.0
487,131.0912032375,132.620217425,40.0,85.0
488,132.4304857375,132.70280651250002,59.0,84.0
489,132.69834223750001,132.78874380625,52.0,89.0
490,133.2340552375,133.50972421875,57.0,78.0
491,133.2340552375,133.7742325125,62.0,79.0
492,133.76976823750002,134.11686561875,57.0,84.0
493,133.5019117375,134.4996772,45.0,71.0
494,133.2340552375,134.566641325,38.0,85.0
495,134.0376247375,134.5733377375,65.0,90.0
496,134.5733377375,134.8322656875,62.0,85.0
497,134.84119423750002,135.07780081250002,57.0,80.0
498,135.3769072375,135.95391478125,55.0,77.0
499,135.1090507375,136.25971761875002,62.0,75.0
500,136.18047673750002,136.54989549375,55.0,86.0
501,135.9126202375,136.64587740625,50.0,83.0
502,136.7161897375,137.1068138,55.0,82.0
503,135.3769072375,137.4617236625,43.0,84.0
504,137.25190273750002,137.4795807625,55.0,78.0
505,136.4483332375,137.49967,62.0,84.0
506,136.9840462375,137.50971461875,50.0,80.0
507,136.4483332375,137.530919925,67.0,84.0
508,137.5197592375,137.843419175,55.0,79.0
509,137.5197592375,138.1179720875,62.0,79.0
510,138.0554722375,138.18605228125,55.0,85.0
511,137.7876157375,138.42489099375,50.0,80.0
512,138.3233287375,138.71841707500002,55.0,88.0
513,138.3233287375,138.8188632625,67.0,85.0
514,138.3233287375,138.96953254375,62.0,86.0
515,138.8590417375,138.9974342625,55.0,86.0
516,137.5197592375,139.62801310625,43.0,86.0
517,138.5911852375,139.63136131250002,50.0,86.0
518,139.1268982375,139.64140593125,55.0,88.0
519,139.1268982375,139.65033448125,62.0,85.0
520,139.66261123750002,139.9483248375,55.0,80.0
521,139.66261123750002,140.423770125,64.0,86.0
522,140.1983242375,140.5554662375,55.0,80.0
523,140.4661807375,140.58336795625002,60.0,76.0
524,140.73403723750002,140.9126082375,55.0,83.0
525,140.73403723750002,141.03872400625,60.0,86.0
526,141.0018937375,141.388053525,55.0,80.0
527,140.73403723750002,141.5777852125,64.0,87.0
528,141.2697502375,141.6804635375,60.0,82.0
529,139.66261123750002,141.70390098125,48.0,86.0
530,141.5376067375,141.71394560000002,55.0,66.0
531,141.8054632375,142.22398901875002,55.0,77.0
532,141.8054632375,142.58001495,62.0,70.0
533,142.6090327375,143.04206741250002,59.0,83.0
534,142.3411762375,143.0599245125,55.0,77.0
535,142.07331973750001,143.30211143125,50.0,78.0
536,143.14474573750002,143.46728960625,55.0,85.0
537,143.14474573750002,143.4795663625,59.0,87.0
538,143.14474573750002,143.52755731875,62.0,85.0
539,141.8054632375,143.57443220625,43.0,85.0
540,143.4126022375,143.61126247500002,50.0,83.0
541,143.9483152375,144.27532338125002,57.0,79.0
542,143.9483152375,144.5286709875,60.0,82.0
543,144.4840282375,144.88692905625,57.0,74.0
544,144.21617173750002,145.07331253750002,52.0,76.0
545,145.0197412375,145.33335655625,57.0,79.0
546,145.0197412375,145.50969541875,64.0,86.0
547,145.0197412375,145.5867041625,60.0,85.0
548,145.2875977375,145.77643585,52.0,77.0
549,143.9483152375,145.79764115625,45.0,85.0
550,145.8233107375,145.97621215625,60.0,79.0
551,145.55545423750002,145.99072105000002,57.0,83.0
552,146.0911672375,146.38357725,55.0,80.0
553,146.0911672375,146.65701409375,59.0,82.0
554,146.62688023750002,146.79652268750002,55.0,85.0
555,146.3590237375,147.00857575,50.0,74.0
556,146.8947367375,147.26861976875,55.0,84.0
557,146.8947367375,147.50411027500002,59.0,85.0
558,146.8947367375,147.52531558125,62.0,84.0
559,147.4304497375,147.81549345625,55.0,84.0
560,147.69830623750002,147.90477895625,59.0,85.0
561,147.1625932375,147.9817877,50.0,78.0
562,146.0911672375,147.99183231875,43.0,84.0
563,148.2340192375,148.81325891875,57.0,80.0
564,148.2340192375,148.8143749875,53.0,77.0
565,148.7697322375,148.9081247625,60.0,80.0
566,148.5018757375,149.23178470000002,48.0,79.0
567,149.03758873750002,149.43825741875,53.0,84.0
568,149.03758873750002,149.46057879375002,65.0,85.0
569,149.5733017375,149.66593544375002,57.0,85.0
570,149.3054452375,149.6983014375,48.0,70.0
571,149.5733017375,149.7206228125,60.0,86.0
572,148.2340192375,149.76861376875001,41.0,85.0
573,150.3768712375,150.67932586875,59.0,81.0
574,150.3768712375,150.95499485000002,64.0,85.0
575,150.9125842375,151.04539641875002,59.0,84.0
576,151.1804407375,151.566600525,59.0,87.0
577,151.1804407375,151.6313325125,67.0,82.0
578,150.6447277375,151.89137653125002,47.0,83.0
579,150.3768712375,151.923742525,40.0,84.0
580,151.7161537375,152.00521554375,64.0,86.0
581,151.9840102375,152.0911528375,59.0,80.0
582,152.51972323750002,152.84784745000002,57.0,82.0
583,152.51972323750002,153.11235574375002,65.0,83.0
584,152.7875797375,153.41257823750001,45.0,68.0
585,153.0554362375,153.4348996125,57.0,84.0
586,152.51972323750002,153.47172988125,38.0,86.0
587,153.3232927375,153.50409587500002,62.0,72.0
588,153.59114923750002,153.90030028125,57.0,78.0
589,153.8590057375,154.14806754375002,45.0,66.0
590,153.59114923750002,154.15141575,38.0,87.0
591,153.59114923750002,154.173737125,62.0,85.0
592,153.59114923750002,154.1960585,66.0,84.0
593,154.1268622375,154.26637083125001,57.0,84.0
594,154.6625752375,154.8232891375,53.0,75.0
595,154.6625752375,154.84337837500001,55.0,73.0
596,154.6625752375,155.138020525,62.0,84.0
597,155.1982882375,155.334448625,55.0,84.0
598,154.93043173750002,155.59672478125,50.0,79.0
599,155.4661447375,155.82998315,55.0,86.0
600,155.4661447375,155.88020624375,67.0,84.0
601,154.6625752375,156.08556289375,43.0,84.0
602,155.7340012375,156.15252701875,50.0,64.0
603,156.00185773750002,156.19047335625,55.0,85.0
604,156.00185773750002,156.1982858375,62.0,84.0
605,156.2697142375,156.3924818,43.0,83.0
606,156.8054272375,157.102301525,55.0,85.0
607,156.8054272375,157.39582760625,64.0,85.0
608,157.3411402375,157.46948814375,55.0,81.0
609,157.6089967375,157.75966601875,55.0,86.0
610,157.6089967375,157.81546945625,62.0,85.0
611,157.07328373750002,158.30653970625,43.0,71.0
612,158.1447097375,158.3411378375,55.0,82.0
613,156.8054272375,158.36903955625002,36.0,80.0
614,158.1447097375,158.3991734125,60.0,81.0
615,158.9482792375,159.23064463125002,59.0,81.0
616,158.9482792375,159.55095636250002,64.0,84.0
617,159.48399223750002,159.60117945625,59.0,74.0
618,159.7518487375,159.96501786875,59.0,80.0
619,159.7518487375,160.28421353125,67.0,81.0
620,160.2875617375,160.4214899875,59.0,77.0
621,159.2161357375,160.4884541125,47.0,74.0
622,158.9482792375,160.53086472500001,40.0,86.0
623,160.2875617375,160.6268466375,64.0,84.0
624,160.55541823750002,160.7072035875,59.0,77.0
625,161.0911312375,161.45831785625,57.0,78.0
626,161.0911312375,161.691576225,60.0,83.0
627,161.0911312375,161.6960405,64.0,85.0
628,161.6268442375,161.9839862375,57.0,85.0
629,161.0911312375,162.030861125,45.0,84.0
630,161.3589877375,162.03644146875,52.0,78.0
631,162.1625572375,162.5018421375,55.0,84.0
632,162.1625572375,162.74849333125002,59.0,82.0
633,162.4304137375,162.83554669375002,50.0,80.0
634,162.1625572375,162.8500555875,43.0,84.0
635,162.6982702375,163.0152337625,55.0,91.0
636,162.96612673750002,163.164786975,59.0,78.0
637,163.2339832375,163.5888931,57.0,79.0
638,163.2339832375,163.63465191875,60.0,84.0
639,163.7696962375,163.96612433750002,57.0,86.0
640,163.2339832375,164.69714936875002,42.0,85.0
641,164.0375527375,164.70607791875,57.0,73.0
642,164.0375527375,164.77750631875,64.0,85.0
643,163.5018397375,164.8857649875,48.0,73.0
644,165.37683523750002,166.164779775,67.0,84.0
645,165.6446917375,166.861206675,47.0,71.0
646,165.37683523750002,166.92928686875,40.0,85.0
647,165.9125482375,167.09223290625002,59.0,80.0
648,166.1804047375,167.13575958750002,64.0,85.0
649,167.5196872375,168.0509359625,72.0,84.0
650,168.0554002375,168.31990853125,71.0,81.0
651,167.78754373750002,168.441560025,52.0,77.0
652,167.5196872375,168.7071843875,45.0,84.0
653,168.3232567375,168.887987525,67.0,70.0
654,168.85896973750002,169.1603083,64.0,84.0
655,169.6625392375,169.995127725,62.0,82.0
656,169.6625392375,170.1960201,65.0,84.0
657,170.19825223750001,170.316555525,62.0,80.0
658,169.93039573750002,170.575483475,45.0,73.0
659,170.4661087375,170.74400985625002,62.0,83.0
660,170.4661087375,170.8366435625,65.0,84.0
661,169.6625392375,171.00516994375002,38.0,85.0
662,170.7339652375,171.06990193125,45.0,70.0
663,171.0018217375,171.29757995625002,64.0,84.0
664,171.26967823750002,171.504052675,62.0,80.0
665,171.5375347375,171.82213226875,60.0,80.0
666,171.8053912375,172.40918443125,62.0,82.0
667,172.34110423750002,172.47503248750002,55.0,86.0
668,172.0732477375,172.75739788125,50.0,80.0
669,172.6089607375,173.21721820625,55.0,86.0
670,172.6089607375,173.47168188125002,62.0,86.0
671,173.1446737375,173.51186035625,67.0,82.0
672,172.8768172375,173.51520856250002,50.0,64.0
673,171.8053912375,173.5196728375,43.0,84.0
674,173.4125302375,173.61007440625002,55.0,76.0
675,173.9482432375,174.29757275625002,59.0,84.0
676,173.9482432375,174.6067238,67.0,80.0
677,174.4839562375,174.646902275,59.0,85.0
678,174.75181273750002,175.12569576875,64.0,87.0
679,174.75181273750002,175.13127611250002,59.0,87.0
680,175.2875257375,175.47390921875,59.0,85.0
681,175.2875257375,175.61006960625,67.0,84.0
682,174.2160997375,175.61788208750002,47.0,81.0
683,173.9482432375,175.64913201250002,40.0,86.0
684,175.5553822375,175.762971025,64.0,84.0
685,176.0910952375,176.36676421875,60.0,79.0
686,176.0910952375,176.71720980625,69.0,79.0
687,176.6268082375,176.76185255625,60.0,85.0
688,176.8946647375,177.27636025,60.0,86.0
689,176.8946647375,177.2875209375,65.0,83.0
690,177.4303777375,177.54979709375002,60.0,85.0
691,177.4303777375,177.71051099375,65.0,85.0
692,176.3589517375,177.7250198875,48.0,78.0
693,177.4303777375,177.7250198875,69.0,85.0
694,176.0910952375,177.73618057500002,41.0,85.0
695,177.6982342375,177.816537525,60.0,84.0
696,178.23394723750002,178.5866249625,57.0,84.0
697,178.23394723750002,178.63349985000002,60.0,86.0
698,178.7696602375,178.90247241875,64.0,84.0
699,179.0375167375,179.23394483750002,69.0,85.0
700,179.0375167375,179.28528400000002,57.0,83.0
701,179.57322973750001,179.71608653750002,57.0,84.0
702,178.5018037375,179.879032575,52.0,80.0
703,179.57322973750001,179.90023788125,64.0,85.0
704,178.23394723750002,179.9482288375,45.0,84.0
705,179.8410862375,180.13126411250002,60.0,81.0
706,180.1089427375,180.25291560625,57.0,72.0
707,180.3767992375,180.94041395625,59.0,77.0
708,180.3767992375,180.95492285,55.0,80.0
709,180.9125122375,181.00514594375,62.0,78.0
710,181.1803687375,181.46496626875,67.0,84.0
711,181.1803687375,181.57210886875,55.0,85.0
712,181.71608173750002,182.01183995625001,62.0,86.0
713,180.64465573750002,182.1134022125,50.0,80.0
714,180.3767992375,182.18148240625,43.0,84.0
715,182.2517947375,182.3500087875,62.0,72.0
716,181.9839382375,182.38460691875,55.0,80.0
717,182.5196512375,183.1044712625,60.0,90.0
718,183.05536423750002,183.61563075,53.0,85.0
719,182.78750773750002,183.96942454375,48.0,80.0
720,183.8589337375,184.2071471875,53.0,84.0
721,183.3232207375,184.26406669375,60.0,84.0
722,182.5196512375,184.32433440625002,41.0,84.0
723,184.12679023750002,184.41138776875002,48.0,75.0
724,184.3946467375,184.93147580625,53.0,81.0
725,184.6625032375,185.25960001875,65.0,84.0
726,184.6625032375,185.30201063125,60.0,80.0
727,185.19821623750002,185.48058163125,53.0,80.0
728,185.4660727375,185.69933110625,65.0,81.0
729,184.9303597375,186.4816953,48.0,74.0
730,184.6625032375,186.52633805000002,41.0,84.0
731,186.2696422375,186.55870404375,64.0,78.0
732,186.53749873750002,186.8455337125,65.0,85.0
733,186.8053552375,187.49396965625002,67.0,84.0
734,187.3410682375,188.26405709375,55.0,85.0
735,188.68035073750002,188.96718040625,55.0,78.0
736,188.94820723750001,188.96718040625,55.0,80.0
737,187.0732117375,188.9749928875,50.0,76.0
738,188.4124942375,188.977225025,67.0,80.0
739,187.60892473750002,188.99173391875001,62.0,78.0
740,186.8053552375,189.0107070875,43.0,85.0
741,188.94820723750001,189.709366125,64.0,86.0
742,189.4839202375,189.8410622375,55.0,80.0
743,189.7517767375,189.86896395625,60.0,76.0
744,190.01963323750002,190.19820423750002,55.0,83.0
745,190.01963323750002,190.32432000625002,60.0,86.0
746,190.2874897375,190.673649525,55.0,80.0
747,190.01963323750002,190.8633812125,64.0,87.0
748,190.5553462375,190.9660595375,60.0,82.0
749,188.94820723750001,190.98949698125,48.0,86.0
750,190.8232027375,190.99954160000001,55.0,66.0
751,191.09105923750002,191.50958501875002,55.0,77.0
752,191.09105923750002,191.86561095000002,62.0,70.0
753,191.8946287375,192.32766341250002,59.0,83.0
754,191.6267722375,192.3455205125,55.0,77.0
755,191.3589157375,192.58770743125,50.0,78.0
756,192.43034173750002,192.75288560625,55.0,85.0
757,192.43034173750002,192.7651623625,59.0,87.0
758,192.43034173750002,192.81315331875,62.0,85.0
759,191.09105923750002,192.86002820625,43.0,85.0
760,192.6981982375,192.89685847500002,50.0,83.0
761,193.2339112375,193.56091938125002,57.0,79.0
762,193.2339112375,193.81426698750002,60.0,82.0
763,193.7696242375,194.17252505625,57.0,74.0
764,193.50176773750002,194.3589085375,52.0,76.0
765,194.3053372375,194.61895255625,57.0,79.0
766,194.3053372375,194.79529141875,64.0,86.0
767,194.3053372375,194.8723001625,60.0,85.0
768,194.57319373750002,195.06203185,52.0,77.0
769,193.2339112375,195.08323715625002,45.0,85.0
770,195.1089067375,195.26180815625,60.0,79.0
771,194.8410502375,195.27631705000002,57.0,83.0
772,195.3767632375,195.66917325,55.0,80.0
773,195.3767632375,195.94261009375,59.0,82.0
774,195.91247623750002,196.0821186875,55.0,85.0
775,195.6446197375,196.29417175,50.0,74.0
776,196.1803327375,196.55421576875,55.0,84.0
777,196.1803327375,196.78970627500001,59.0,85.0
778,196.1803327375,196.81091158125,62.0,84.0
779,196.7160457375,197.10108945625,55.0,84.0
780,196.98390223750002,197.19037495625,59.0,85.0
781,196.4481892375,197.2673837,50.0,78.0
782,195.3767632375,197.27742831875,43.0,84.0
783,197.5196152375,198.09885491875002,57.0,80.0
784,197.5196152375,198.0999709875,53.0,77.0
785,198.05532823750002,198.19372076250002,60.0,80.0
786,197.7874717375,198.51738070000002,48.0,79.0
787,198.32318473750001,198.72385341875,53.0,84.0
788,198.32318473750001,198.74617479375001,65.0,85.0
789,198.8588977375,198.95153144375,57.0,85.0
790,198.5910412375,198.98389743750002,48.0,70.0
791,198.8588977375,199.0062188125,60.0,86.0
792,197.5196152375,199.05420976875,41.0,85.0
793,199.6624672375,199.96492186875,59.0,81.0
794,199.6624672375,200.24059085000002,64.0,85.0
795,200.1981802375,200.33099241875001,59.0,84.0
796,200.46603673750002,200.852196525,59.0,87.0
797,200.46603673750002,200.91692851250002,67.0,82.0
798,199.9303237375,201.17697253125002,47.0,83.0
799,199.6624672375,201.20933852500002,40.0,84.0
800,201.0017497375,201.29081154375,64.0,86.0
801,201.2696062375,201.3767488375,59.0,80.0
802,201.80531923750002,202.13344345000002,57.0,82.0
803,201.80531923750002,202.39795174375,65.0,83.0
804,202.0731757375,202.6981742375,45.0,68.0
805,202.3410322375,202.7204956125,57.0,84.0
806,201.80531923750002,202.75732588125,38.0,86.0
807,202.6088887375,202.78969187500002,62.0,72.0
808,202.87674523750002,203.18589628125,57.0,78.0
809,203.1446017375,203.43366354375001,45.0,66.0
810,202.87674523750002,203.43701175,38.0,87.0
811,202.87674523750002,203.459333125,62.0,85.0
812,202.87674523750002,203.48165450000002,66.0,84.0
813,203.4124582375,203.55196683125,57.0,84.0
814,203.94817123750002,204.1088851375,53.0,75.0
815,203.94817123750002,204.128974375,55.0,73.0
816,203.94817123750002,204.423616525,62.0,84.0
817,204.4838842375,204.62004462500002,55.0,84.0
818,204.2160277375,204.88232078125,50.0,79.0
819,204.7517407375,205.11557915,55.0,86.0
820,204.7517407375,205.16580224375002,67.0,84.0
821,203.94817123750002,205.37115889375002,43.0,84.0
822,205.01959723750002,205.43812301875002,50.0,64.0
823,205.28745373750002,205.47606935625,55.0,85.0
824,205.28745373750002,205.4838818375,62.0,84.0
825,205.5553102375,205.6780778,43.0,83.0
826,206.0910232375,206.387897525,55.0,85.0
827,206.0910232375,206.68142360625,64.0,85.0
828,206.6267362375,206.75508414375,55.0,81.0
829,206.8945927375,207.04526201875,55.0,86.0
830,206.8945927375,207.10106545625,62.0,85.0
831,206.35887973750002,207.59213570625002,43.0,71.0
832,207.43030573750002,207.6267338375,55.0,82.0
833,206.0910232375,207.65463555625,36.0,80.0
834,207.43030573750002,207.6847694125,60.0,81.0
835,208.2338752375,208.51624063125,59.0,81.0
836,208.2338752375,208.83655236250002,64.0,84.0
837,208.76958823750002,208.88677545625,59.0,74.0
838,209.0374447375,209.25061386875,59.0,80.0
839,209.0374447375,209.56980953125,67.0,81.0
840,209.5731577375,209.70708598750002,59.0,77.0
841,208.5017317375,209.77405011250002,47.0,74.0
842,208.2338752375,209.816460725,40.0,86.0
843,209.5731577375,209.91244263750002,64.0,84.0
844,209.84101423750002,209.9927995875,59.0,77.0
845,210.3767272375,210.74391385625,57.0,78.0
846,210.3767272375,210.977172225,60.0,83.0
847,210.3767272375,210.9816365,64.0,85.0
848,210.91244023750002,211.2695822375,57.0,85.0
849,210.3767272375,211.316457125,45.0,84.0
850,210.6445837375,211.32203746875,52.0,78.0
851,211.4481532375,211.7874381375,55.0,84.0
852,211.4481532375,212.03408933125002,59.0,82.0
853,211.7160097375,212.12114269375002,50.0,80.0
854,211.4481532375,212.1356515875,43.0,84.0
855,211.9838662375,212.3008297625,55.0,91.0
856,212.25172273750002,212.450382975,59.0,78.0
857,212.5195792375,212.8744891,57.0,79.0
858,212.5195792375,212.92024791875002,60.0,84.0
859,213.0552922375,213.25172033750002,57.0,86.0
860,212.5195792375,213.98274536875002,42.0,85.0
861,213.32314873750002,213.99167391875,57.0,73.0
862,213.32314873750002,214.06310231875,64.0,85.0
863,212.7874357375,214.1713609875,48.0,73.0
864,214.66243123750002,215.450375775,67.0,84.0
865,214.9302877375,216.146802675,47.0,71.0
866,214.66243123750002,216.21488286875,40.0,85.0
867,215.1981442375,216.37782890625002,59.0,80.0
868,215.4660007375,216.42135558750002,64.0,85.0
869,216.80528323750002,217.3365319625,72.0,84.0
870,217.3409962375,217.60550453125,71.0,81.0
871,217.07313973750001,217.727156025,52.0,77.0
872,216.80528323750002,217.9927803875,45.0,84.0
873,217.6088527375,218.173583525,67.0,70.0
874,218.14456573750002,218.4459043,64.0,84.0
875,218.9481352375,219.280723725,62.0,82.0
876,218.9481352375,219.4816161,65.0,84.0
877,219.4838482375,219.602151525,62.0,80.0
878,219.21599173750002,219.861079475,45.0,73.0
879,219.7517047375,220.02960585625001,62.0,83.0
880,219.7517047375,220.1222395625,65.0,84.0
881,218.9481352375,220.29076594375002,38.0,85.0
882,220.0195612375,220.35549793125,45.0,70.0
883,220.28741773750002,220.58317595625002,64.0,84.0
884,220.55527423750002,220.789648675,62.0,80.0
885,220.8231307375,221.10772826875,60.0,80.0
886,221.0909872375,221.69478043125,62.0,82.0
887,221.62670023750002,221.76062848750001,55.0,86.0
888,221.3588437375,222.04299388125,50.0,80.0
889,221.8945567375,222.50281420625,55.0,86.0
890,221.8945567375,222.75727788125002,62.0,86.0
891,222.4302697375,222.79745635625,67.0,82.0
892,222.1624132375,222.80080456250002,50.0,64.0
893,221.0909872375,222.80526883750002,43.0,84.0
894,222.69812623750002,222.89567040625002,55.0,76.0
895,223.2338392375,223.753927275,55.0,73.0
896,223.2338392375,223.9525875125,48.0,77.0
897,223.2338392375,224.0708908,64.0,83.0
898,224.0508015625,224.88673705625,55.0,73.0
899,224.06084618125,224.9659779375,43.0,72.0
900,224.0552658375,225.1177632875,59.0,78.0
901,225.08986156875,225.73494930625,57.0,70.0
902,225.0909776375,225.95481485000002,60.0,71.0
903,225.58762823125002,227.49164151875001,52.0,70.0
904,225.09767405000002,227.5061504125,45.0,60.0
905,226.14343046875,227.53405213125,60.0,74.0
906,225.87780610625,227.53851640625,57.0,78.0
907,227.51954323750002,227.53851640625,57.0,72.0
908,227.51954323750002,228.09320257500002,64.0,84.0
909,227.7873997375,228.12333643125,52.0,72.0
910,227.51954323750002,228.1356131875,45.0,80.0
911,228.0552562375,228.16797918125002,57.0,75.0
912,228.3231127375,228.97266475,55.0,70.0
913,228.8588257375,229.01395929375002,50.0,71.0
914,228.3231127375,229.02288784375,59.0,74.0
915,228.3231127375,229.10101265625002,43.0,80.0
916,229.1266822375,229.26619083125001,55.0,82.0
917,229.3945387375,229.60212752500001,36.0,80.0
918,229.3945387375,229.807484175,55.0,77.0
919,229.3945387375,229.86886795625,60.0,79.0
920,230.4659647375,230.78627646875,62.0,79.0
921,230.7338212375,231.1311417125,64.0,85.0
922,231.2695342375,231.38895359375002,60.0,73.0
923,230.1981082375,231.69475643125,55.0,70.0
924,231.2695342375,231.7114974625,67.0,78.0
925,231.2695342375,231.71372960000002,64.0,83.0
926,229.93025173750001,231.76060448750002,48.0,64.0
927,231.5373907375,231.77957765625,62.0,73.0
928,231.8052472375,232.3030139,64.0,85.0
929,232.07310373750002,232.46930814375,55.0,77.0
930,232.3409602375,232.6847094125,60.0,75.0
931,231.8052472375,232.8498875875,48.0,82.0
932,232.6088167375,232.93582488125,64.0,83.0
933,232.8766732375,233.45256471250002,62.0,80.0
934,233.41238623750002,233.76506396250002,55.0,84.0
935,232.8766732375,233.7873853375,43.0,80.0
936,233.14452973750002,233.8454209125,50.0,71.0
937,233.6802427375,233.98158130000002,59.0,77.0
938,233.9480992375,234.5686334625,60.0,79.0
939,234.2159557375,234.83314175625,52.0,75.0
940,234.48381223750002,234.8409542375,57.0,74.0
941,233.9480992375,234.85992740625002,45.0,84.0
942,234.7516687375,235.04073054375002,60.0,76.0
943,235.0195252375,235.33760483125002,55.0,80.0
944,235.0195252375,235.56193465,59.0,80.0
945,235.2873817375,235.73938958125,50.0,77.0
946,235.0195252375,235.8855945875,43.0,84.0
947,235.8230947375,235.9525587125,59.0,71.0
948,235.55523823750002,235.95367478125002,55.0,88.0
949,236.0909512375,236.40456655625002,53.0,77.0
950,236.0909512375,236.6311285125,57.0,84.0
951,236.62666423750002,237.44474263125002,53.0,79.0
952,236.89452073750002,237.47599255625002,60.0,79.0
953,237.41907305,237.6088047375,65.0,79.0
954,236.3588077375,238.18581228125,48.0,71.0
955,236.0909512375,238.2315711,41.0,83.0
956,238.128892775,238.352106525,55.0,66.0
957,238.19139262500002,238.51951683750002,59.0,80.0
958,238.2494282,238.56527565625,62.0,73.0
959,238.2918388125,238.762819825,67.0,81.0
960,238.7427305875,239.62219276250002,55.0,79.0
961,238.53625786875,240.16013790000002,50.0,73.0
962,238.24384785625,240.18803961875,43.0,84.0
963,239.54518401875,240.5329048625,67.0,77.0
964,239.02174777500002,240.54964589375,62.0,76.0
965,245.24383105625,246.13222178125002,55.0,77.0
966,245.8319992875,246.262801825,62.0,74.0
967,246.1132486125,246.486015575,64.0,73.0
968,246.4525335125,246.63222058125,67.0,79.0
969,246.81525585625002,247.07418380625,72.0,80.0
970,247.18579068125,247.33645996250002,74.0,77.0
971,247.65007528125,248.1266366375,76.0,74.0
972,248.1221723625,248.28846660625,79.0,69.0
973,248.6757424625,248.81190285000002,76.0,63.0
974,248.74047445000002,248.92685793125,79.0,71.0
975,248.82641174375001,249.03176839375,84.0,78.0
976,245.5596785125,249.47484768750002,43.0,75.0
977,245.31079518125,249.54292788125002,36.0,79.0
