,start,end,pitch,velocity
0,20.479528350000002,20.724425550000003,66.0,96.0
1,20.785649850000002,20.970598256250003,68.0,95.0
2,21.091771350000002,21.279270768750003,71.0,97.0
3,21.39789285,21.633861506250003,68.0,92.0
4,21.70401435,21.948911550000002,66.0,94.0
5,22.01013585,22.2320739375,68.0,97.0
6,22.31625735,22.566256575,68.0,96.0
7,22.62237885,22.886408643750002,59.0,96.0
8,22.928500350000004,23.990997056250002,61.0,92.0
9,24.152986350000003,24.344312287500003,64.0,96.0
10,24.459107850000002,25.036912181250003,64.0,95.0
11,25.07135085,25.332829631250004,61.0,93.0
12,25.37747235,25.980786806250002,64.0,99.0
13,25.98971535,26.556040125000003,66.0,93.0
14,26.601958350000004,26.8187944125,68.0,96.0
15,26.908079850000004,27.105783318750003,71.0,96.0
16,27.214201350000003,27.377466150000004,71.0,96.0
17,27.520322850000003,27.767771062500003,66.0,91.0
18,27.826444350000003,28.724400750000004,68.0,91.0
19,29.05093035,29.317511156250003,73.0,96.0
20,29.35705185,29.585367468750004,68.0,94.0
21,29.663173350000005,29.895315487500003,68.0,92.0
22,29.969294850000004,30.173375850000003,71.0,95.0
23,30.275416350000004,31.246076606250003,73.0,97.0
24,31.499902350000003,31.688677275000003,66.0,91.0
25,31.806023850000003,32.0432680125,66.0,90.0
26,32.112145350000006,32.349389512500004,68.0,91.0
27,32.41826685,32.65933753125,66.0,94.0
28,32.724388350000005,33.78688505625,64.0,92.0
29,33.948874350000004,34.152955350000006,66.0,93.0
30,34.25499585,34.453974825,68.0,94.0
31,34.56111735,34.765198350000006,71.0,92.0
32,34.86723885000001,35.117238075,68.0,92.0
33,35.17336035,35.36851280625,66.0,96.0
34,35.479481850000006,35.90805195,66.0,90.0
35,36.091724850000006,36.290703825,68.0,91.0
36,36.39784635,36.65677411875,59.0,82.0
37,36.703967850000005,36.97054865625,56.0,94.0
38,37.01008935,37.24605800625,64.0,91.0
39,37.316210850000004,37.53687343125,63.0,94.0
40,37.62233235,38.81493069375001,61.0,92.0
41,40.071304350000005,40.31620155,66.0,96.0
42,40.37742585,40.56237425625,68.0,95.0
43,40.683547350000005,40.871046768750006,71.0,97.0
44,40.98966885,41.22563750625,68.0,92.0
45,41.295790350000004,41.54068755,66.0,94.0
46,41.60191185,41.82384993750001,68.0,97.0
47,41.908033350000004,42.15803257500001,68.0,96.0
48,42.21415485000001,42.478184643750005,59.0,96.0
49,42.52027635,43.582773056250005,61.0,92.0
50,43.74476235,43.936088287500006,64.0,96.0
51,44.050883850000005,44.628688181250006,64.0,95.0
52,44.663126850000005,44.92460563125,61.0,93.0
53,44.96924835,45.572562806250005,64.0,99.0
54,45.58149135000001,46.147816125000006,66.0,93.0
55,46.19373435000001,46.41057041250001,68.0,96.0
56,46.49985585,46.69755931875,71.0,96.0
57,46.805977350000006,46.96924215000001,71.0,96.0
58,47.11209885,47.359547062500006,66.0,91.0
59,47.418220350000006,48.316176750000004,68.0,91.0
60,48.642706350000005,48.90928715625,73.0,96.0
61,48.94882785000001,49.17714346875,68.0,94.0
62,49.254949350000004,49.4870914875,68.0,92.0
63,49.56107085000001,49.76515185,71.0,95.0
64,49.86719235,50.83785260625,73.0,97.0
65,51.09167835,51.280453275000006,66.0,91.0
66,51.397799850000006,51.6350440125,66.0,90.0
67,51.70392135,51.94116551250001,68.0,91.0
68,52.010042850000005,52.251113531250006,66.0,94.0
69,52.31616435000001,53.37866105625,64.0,92.0
70,53.54065035000001,53.74473135,66.0,93.0
71,53.84677185,54.045750825000006,68.0,94.0
72,54.15289335000001,54.35697435000001,71.0,92.0
73,54.45901485,54.709014075000006,68.0,92.0
74,54.765136350000006,54.960288806250006,66.0,96.0
75,55.07125785,55.499827950000004,68.0,90.0
76,55.68350085000001,55.882479825000004,68.0,91.0
77,55.989622350000005,56.24855011875,59.0,82.0
78,56.29574385000001,56.562324656250006,56.0,94.0
79,56.601865350000004,56.837834006250006,64.0,91.0
80,56.90798685000001,57.128649431250004,63.0,94.0
81,57.214108350000004,58.40670669375,61.0,92.0
82,59.356958850000005,59.608233581250005,68.0,96.0
83,59.66308035000001,59.86716135,73.0,104.0
84,59.969201850000005,60.14139519375001,73.0,106.0
85,60.27532335000001,60.48960840000001,73.0,104.0
86,60.581444850000004,60.82124002500001,76.0,94.0
87,60.88756635000001,61.54317656250001,68.0,101.0
88,61.80593085,62.05975659375001,71.0,92.0
89,62.112052350000006,62.307204806250006,73.0,101.0
90,62.41817385000001,62.617152825000005,73.0,91.0
91,62.724295350000006,62.985774131250004,73.0,95.0
92,63.03041685000001,63.24087538125001,71.0,96.0
93,63.336538350000005,63.55464991875001,73.0,99.0
94,63.64265985000001,63.831434775000005,71.0,101.0
95,63.948781350000004,64.198780575,64.0,92.0
96,64.25490285000001,64.47556543125,66.0,93.0
97,64.56102435000001,65.49214391250001,68.0,91.0
98,65.78551035000001,65.89137736875,73.0,106.0
99,66.09163185000001,66.300814875,73.0,99.0
100,66.39775335,66.596732325,73.0,107.0
101,66.70387485,66.90285382500001,76.0,96.0
102,67.00999635000001,67.48193366250001,78.0,94.0
103,67.62223935,68.11713577500001,78.0,92.0
104,68.23448235000001,68.42325727500001,73.0,96.0
105,68.54060385000001,68.70769516875,73.0,97.0
106,68.84672535,69.08014299375,73.0,97.0
107,69.15284685,69.372233925,76.0,91.0
108,69.45896835,70.20386400000001,68.0,93.0
109,70.68345435,70.91687199375001,66.0,92.0
110,70.98957585000001,71.18217729375,66.0,92.0
111,71.29569735000001,71.48829879375,66.0,92.0
112,71.60181885,71.83778750625001,68.0,94.0
113,71.90794035,72.40921430625,71.0,96.0
114,72.52018335000001,72.71788681875,71.0,92.0
115,72.82630485000001,73.04441641875,68.0,92.0
116,73.13242635,73.34543589375001,66.0,94.0
117,73.43854785,73.668138975,66.0,91.0
118,73.74466935000001,73.94492383125001,66.0,92.0
119,74.05079085000001,74.259973875,68.0,94.0
120,74.35691235,75.29058292500001,61.0,90.0
121,75.58139835,75.790581375,66.0,95.0
122,75.88751985,76.0431316125,66.0,94.0
123,76.19364135000001,76.42450798125,66.0,92.0
124,76.49976285000001,76.72042543125,68.0,95.0
125,76.80588435000001,77.24848501875,71.0,97.0
126,77.41812735,77.96787054375001,71.0,96.0
127,78.03037035000001,78.26889001875001,71.0,95.0
128,78.33649185,78.54057285,75.0,97.0
129,78.64261335,78.85562289375001,75.0,95.0
130,78.94873485000001,79.15791787500001,71.0,97.0
131,79.25485635000001,81.09158535,73.0,99.0
132,81.39770685,81.64898158125001,68.0,96.0
133,81.70382835000001,81.90790935000001,73.0,104.0
134,82.00994985000001,82.18214319375001,73.0,106.0
135,82.31607135,82.5303564,73.0,104.0
136,82.62219285,82.861988025,76.0,94.0
137,82.92831435000001,83.5839245625,68.0,101.0
138,83.84667885,84.10050459375,71.0,92.0
139,84.15280035,84.34795280625,73.0,101.0
140,84.45892185000001,84.65790082500001,73.0,91.0
141,84.76504335000001,85.02652213125,73.0,95.0
142,85.07116485,85.28162338125001,71.0,96.0
143,85.37728635,85.59539791875001,73.0,99.0
144,85.68340785000001,85.87218277500001,71.0,101.0
145,85.98952935000001,86.23952857500001,64.0,92.0
146,86.29565085,86.51631343125001,66.0,93.0
147,86.60177235,87.5328919125,68.0,91.0
148,87.82625835,87.93212536875001,73.0,106.0
149,88.13237985,88.34156287500001,73.0,99.0
150,88.43850135000001,88.63748032500001,73.0,107.0
151,88.74462285000001,88.943601825,76.0,96.0
152,89.05074435,89.5226816625,78.0,94.0
153,89.66298735000001,90.157883775,78.0,92.0
154,90.27523035000002,90.464005275,73.0,96.0
155,90.58135185,90.74844316875001,73.0,97.0
156,90.88747335000001,91.12089099375001,73.0,97.0
157,91.19359485000001,91.41298192500001,76.0,91.0
158,91.49971635000001,92.244612,68.0,93.0
159,92.72420235000001,92.95761999375001,66.0,92.0
160,93.03032385,93.22292529375001,66.0,92.0
161,93.33644535,93.52904679375001,66.0,92.0
162,93.64256685000001,93.87853550625,68.0,94.0
163,93.94868835000001,94.44996230625001,71.0,96.0
164,94.56093135,94.75863481875001,71.0,92.0
165,94.86705285000001,95.08516441875001,68.0,92.0
166,95.17317435000001,95.38618389375002,66.0,94.0
167,95.47929585000001,95.70888697500001,66.0,91.0
168,95.78541735,95.98567183125,66.0,92.0
169,96.09153885,96.30072187500001,68.0,94.0
170,96.39766035000001,97.331330925,61.0,90.0
171,97.62214635000001,97.83132937500001,66.0,95.0
172,97.92826785000001,98.08387961250001,66.0,94.0
173,98.23438935000001,98.46525598125001,66.0,92.0
174,98.54051085,98.76117343125001,68.0,95.0
175,98.84663235000001,99.28923301875001,71.0,97.0
176,99.45887535000001,100.00861854375,71.0,96.0
177,100.07111835,100.30963801875001,71.0,95.0
178,100.37723985000001,100.58132085000001,75.0,97.0
179,100.68336135000001,100.89637089375,75.0,95.0
180,100.98948285000002,101.198665875,71.0,97.0
181,101.29560435,103.13233335000001,73.0,99.0
182,123.33635235000001,123.58124955000001,66.0,96.0
183,123.64247385000002,123.82742225625002,68.0,95.0
184,123.94859535,124.13609476875001,71.0,97.0
185,124.25471685000001,124.49068550625002,68.0,92.0
186,124.56083835000001,124.80573555000001,66.0,94.0
187,124.86695985000001,125.08889793750001,68.0,97.0
188,125.17308135000002,125.42308057500001,68.0,96.0
189,125.47920285000001,125.74323264375,59.0,96.0
190,125.78532435000001,126.84782105625001,61.0,92.0
191,127.00981035000001,127.2011362875,64.0,96.0
192,127.31593185000001,127.89373618125,64.0,95.0
193,127.92817485000002,128.18965363125002,61.0,93.0
194,128.23429635000002,128.83761080625,64.0,99.0
195,128.84653935,129.412864125,66.0,93.0
196,129.45878235,129.6756184125,68.0,96.0
197,129.76490385000002,129.96260731875,71.0,96.0
198,130.07102535,130.23429015000002,71.0,96.0
199,130.37714685,130.62459506250002,66.0,91.0
200,130.68326835000002,131.58122475000002,68.0,91.0
201,131.90775435,132.17433515625,73.0,96.0
202,132.21387585000002,132.44219146875002,68.0,94.0
203,132.51999735,132.75213948750002,68.0,92.0
204,132.82611885,133.03019985,71.0,95.0
205,133.13224035000002,134.10290060625002,73.0,97.0
206,134.35672635,134.54550127500002,66.0,91.0
207,134.66284785000002,134.9000920125,66.0,90.0
208,134.96896935,135.2062135125,68.0,91.0
209,135.27509085000003,135.51616153125002,66.0,94.0
210,135.58121235000002,136.64370905625,64.0,92.0
211,136.80569835,137.00977935,66.0,93.0
212,137.11181985000002,137.310798825,68.0,94.0
213,137.41794135,137.62202235,71.0,92.0
214,137.72406285000002,137.974062075,68.0,92.0
215,138.03018435,138.22533680625003,66.0,96.0
216,138.33630585,138.76487595,68.0,90.0
217,138.94854885,139.14752782500003,68.0,91.0
218,139.25467035000003,139.51359811875002,59.0,82.0
219,139.56079185000002,139.82737265625002,56.0,94.0
220,139.86691335,140.10288200625,64.0,91.0
221,140.17303485000002,140.39369743125002,63.0,94.0
222,140.47915635,141.67175469375002,61.0,92.0
223,142.62200685000002,142.87328158125,68.0,96.0
224,142.92812835,143.13220935,73.0,104.0
225,143.23424985000003,143.40644319375002,73.0,106.0
226,143.54037135000002,143.75465640000002,73.0,104.0
227,143.84649285,144.08628802500002,76.0,94.0
228,144.15261435000002,144.80822456250002,68.0,101.0
229,145.07097885000002,145.32480459375,71.0,92.0
230,145.37710035,145.57225280625002,73.0,101.0
231,145.68322185000002,145.882200825,73.0,91.0
232,145.98934335,146.25082213125,73.0,95.0
233,146.29546485,146.50592338125,71.0,96.0
234,146.60158635000002,146.81969791875002,73.0,99.0
235,146.90770785,147.09648277500003,71.0,101.0
236,147.21382935000003,147.463828575,64.0,92.0
237,147.51995085000001,147.74061343125,66.0,93.0
238,147.82607235,148.75719191250002,68.0,91.0
239,149.05055835000002,149.15642536875,73.0,106.0
240,149.35667985,149.56586287500002,73.0,99.0
241,149.66280135000002,149.861780325,73.0,107.0
242,149.96892285,150.167901825,76.0,96.0
243,150.27504435,150.74698166250002,78.0,94.0
244,150.88728735,151.38218377500002,78.0,92.0
245,151.49953035000001,151.688305275,73.0,96.0
246,151.80565185,151.97274316875001,73.0,97.0
247,152.11177335000002,152.34519099375,73.0,97.0
248,152.41789485,152.63728192500002,76.0,91.0
249,152.72401635000003,153.46891200000002,68.0,93.0
250,153.94850235,154.18191999375003,66.0,92.0
251,154.25462385,154.44722529375002,66.0,92.0
252,154.56074535000002,154.75334679375,66.0,92.0
253,154.86686685,155.10283550625002,68.0,94.0
254,155.17298835000003,155.67426230625003,71.0,96.0
255,155.78523135,155.98293481875,71.0,92.0
256,156.09135285000002,156.30946441875003,68.0,92.0
257,156.39747435,156.61048389375003,66.0,94.0
258,156.70359585000003,156.933186975,66.0,91.0
259,157.00971735000002,157.20997183125002,66.0,92.0
260,157.31583885,157.52502187500002,68.0,94.0
261,157.62196035000002,158.555630925,61.0,90.0
262,158.84644635,159.05562937500002,66.0,95.0
263,159.15256785000003,159.30817961250003,66.0,94.0
264,159.45868935000001,159.68955598125,66.0,92.0
265,159.76481085,159.98547343125003,68.0,95.0
266,160.07093235000002,160.51353301875002,71.0,97.0
267,160.68317535000003,161.23291854375,71.0,96.0
268,161.29541835,161.53393801875,71.0,95.0
269,161.60153985000002,161.80562085000003,75.0,97.0
270,161.90766135,162.12067089375,75.0,95.0
271,162.21378285,162.42296587500002,71.0,97.0
272,162.51990435000002,164.35663335,73.0,99.0
273,164.66275485000003,164.91402958125002,68.0,96.0
274,164.96887635000002,165.17295735000002,73.0,104.0
275,165.27499785,165.44719119375003,73.0,106.0
276,165.58111935000002,165.79540440000002,73.0,104.0
277,165.88724085,166.12703602500002,76.0,94.0
278,166.19336235000003,166.84897256250002,68.0,101.0
279,167.11172685000003,167.36555259375,71.0,92.0
280,167.41784835,167.61300080625003,73.0,101.0
281,167.72396985,167.92294882500002,73.0,91.0
282,168.03009135000002,168.29157013125,73.0,95.0
283,168.33621285,168.54667138125,71.0,96.0
284,168.64233435000003,168.86044591875,73.0,99.0
285,168.94845585000002,169.137230775,71.0,101.0
286,169.25457735,169.50457657500002,64.0,92.0
287,169.56069885000002,169.78136143125002,66.0,93.0
288,169.86682035,170.79793991250003,68.0,91.0
289,171.09130635000002,171.19717336875001,73.0,106.0
290,171.39742785,171.60661087500003,73.0,99.0
291,171.70354935,171.90252832500002,73.0,107.0
292,172.00967085000002,172.208649825,76.0,96.0
293,172.31579235,172.78772966250003,78.0,94.0
294,172.92803535000002,173.42293177500002,78.0,92.0
295,173.54027835000002,173.729053275,73.0,96.0
296,173.84639985,174.01349116875002,73.0,97.0
297,174.15252135000003,174.38593899375002,73.0,97.0
298,174.45864285000002,174.678029925,76.0,91.0
299,174.76476435,175.50966000000003,68.0,93.0
300,175.98925035000002,176.22266799375,66.0,92.0
301,176.29537185,176.48797329375003,66.0,92.0
302,176.60149335000003,176.79409479375002,66.0,92.0
303,176.90761485000002,177.14358350625002,68.0,94.0
304,177.21373635,177.71501030625,71.0,96.0
305,177.82597935,178.02368281875002,71.0,92.0
306,178.13210085000003,178.35021241875,68.0,92.0
307,178.43822235000002,178.65123189375,66.0,94.0
308,178.74434385,178.97393497500002,66.0,91.0
309,179.05046535000002,179.25071983125002,66.0,92.0
310,179.35658685,179.56576987500003,68.0,94.0
311,179.66270835000003,180.596378925,61.0,90.0
312,180.88719435000002,181.096377375,66.0,95.0
313,181.19331585,181.3489276125,66.0,94.0
314,181.49943735000002,181.73030398125002,66.0,92.0
315,181.80555885,182.02622143125,68.0,95.0
316,182.11168035000003,182.55428101875,71.0,97.0
317,182.72392335,183.27366654375,71.0,96.0
318,183.33616635,183.57468601875001,71.0,95.0
319,183.64228785000003,183.84636885,75.0,97.0
320,183.94840935000002,184.16141889375,75.0,95.0
321,184.25453085,184.46371387500002,71.0,97.0
322,184.56065235000003,186.39738135000002,73.0,99.0
323,186.70350285,186.95477758125003,68.0,96.0
324,187.00962435000002,187.21370535000003,73.0,104.0
325,187.31574585,187.48793919375,73.0,106.0
326,187.62186735000003,187.83615240000003,73.0,104.0
327,187.92798885000002,188.16778402500003,76.0,94.0
328,188.23411035,188.88972056250003,68.0,101.0
329,189.15247485,189.40630059375002,71.0,92.0
330,189.45859635000002,189.65374880625,73.0,101.0
331,189.76471785,189.96369682500003,73.0,91.0
332,190.07083935000003,190.33231813125002,73.0,95.0
333,190.37696085000002,190.58741938125002,71.0,96.0
334,190.68308235,190.90119391875,73.0,99.0
335,190.98920385000002,191.177978775,71.0,101.0
336,191.29532535,191.54532457500002,64.0,92.0
337,191.60144685000003,191.82210943125003,66.0,93.0
338,191.90756835000002,192.8386879125,68.0,91.0
339,193.13205435,193.23792136875002,73.0,106.0
340,193.43817585000002,193.647358875,73.0,99.0
341,193.74429735,193.94327632500003,73.0,107.0
342,194.05041885000003,194.24939782500002,76.0,96.0
343,194.35654035000002,194.8284776625,78.0,94.0
344,194.96878335000002,195.46367977500003,78.0,92.0
345,195.58102635000003,195.76980127500002,73.0,96.0
346,195.88714785000002,196.05423916875003,73.0,97.0
347,196.19326935,196.42668699375002,73.0,97.0
348,196.49939085000003,196.718777925,76.0,91.0
349,196.80551235000001,197.55040800000003,68.0,93.0
350,198.02999835000003,198.26341599375002,66.0,92.0
351,198.33611985000002,198.52872129375,66.0,92.0
352,198.64224135,198.83484279375003,66.0,92.0
353,198.94836285000002,199.18433150625003,68.0,94.0
354,199.25448435,199.75575830625002,71.0,96.0
355,199.86672735000002,200.06443081875003,71.0,92.0
356,200.17284885,200.39096041875,68.0,92.0
357,200.47897035000003,200.69197989375002,66.0,94.0
358,200.78509185000001,201.01468297500003,66.0,91.0
359,201.09121335000003,201.29146783125003,66.0,92.0
360,201.39733485000002,201.606517875,68.0,94.0
361,201.70345635,202.63712692500002,61.0,90.0
362,202.92794235000002,203.137125375,66.0,95.0
363,203.23406385,203.3896756125,66.0,94.0
364,203.54018535000003,203.77105198125003,66.0,92.0
365,203.84630685000002,204.06696943125002,68.0,95.0
366,204.15242835,204.59502901875,71.0,97.0
367,204.76467135000001,205.31441454375002,71.0,96.0
368,205.37691435000002,205.61543401875002,71.0,95.0
369,205.68303585,205.88711685,75.0,97.0
370,205.98915735000003,206.20216689375002,75.0,95.0
371,206.29527885000002,206.50446187500003,71.0,97.0
372,206.60140035,208.43812935000003,73.0,99.0
373,208.74425085000001,208.99552558125,68.0,96.0
374,209.05037235000003,209.25445335,73.0,104.0
375,209.35649385000002,209.52868719375002,73.0,106.0
376,209.66261535,209.8769004,73.0,104.0
377,209.96873685000003,210.208532025,76.0,94.0
378,210.27485835000002,210.9304685625,68.0,101.0
379,211.19322285,211.44704859375003,71.0,92.0
380,211.49934435000003,211.69449680625002,73.0,101.0
381,211.80546585000002,212.004444825,73.0,91.0
382,212.11158735,212.37306613125003,73.0,95.0
383,212.41770885000003,212.62816738125002,71.0,96.0
384,212.72383035000001,212.94194191875002,73.0,99.0
385,213.02995185000003,213.21872677500002,71.0,101.0
386,213.33607335000002,213.58607257500003,64.0,92.0
387,213.64219485,213.86285743125,66.0,93.0
388,213.94831635000003,214.8794359125,68.0,91.0
389,215.17280235,215.27866936875003,73.0,106.0
390,215.47892385000003,215.68810687500002,73.0,99.0
391,215.78504535000002,215.984024325,73.0,107.0
392,216.09116685,216.29014582500002,76.0,96.0
393,216.39728835000003,216.8692256625,78.0,94.0
394,217.00953135000003,217.504427775,78.0,92.0
395,217.62177435,217.81054927500003,73.0,96.0
396,217.92789585000003,218.09498716875,73.0,97.0
397,218.23401735000002,218.46743499375003,73.0,97.0
398,218.54013885000003,218.75952592500002,76.0,91.0
399,218.84626035000002,219.591156,68.0,93.0
400,220.07074635,220.30416399375002,66.0,92.0
401,220.37686785000002,220.56946929375002,66.0,92.0
402,220.68298935,220.87559079375,66.0,92.0
403,220.98911085000003,221.22507950625,68.0,94.0
404,221.29523235000002,221.79650630625002,71.0,96.0
405,221.90747535000003,222.10517881875003,71.0,92.0
406,222.21359685000002,222.43170841875002,68.0,92.0
407,222.51971835000003,222.73272789375002,66.0,94.0
408,222.82583985000002,223.055430975,66.0,91.0
409,223.13196135,223.33221583125,66.0,92.0
410,223.43808285000003,223.64726587500002,68.0,94.0
411,223.74420435000002,224.67787492500003,61.0,90.0
412,224.96869035000003,225.17787337500002,66.0,95.0
413,225.27481185000002,225.43042361250002,66.0,94.0
414,225.58093335,225.81179998125003,66.0,92.0
415,225.88705485000003,226.10771743125002,68.0,95.0
416,226.19317635000002,226.63577701875002,71.0,97.0
417,226.80541935000002,227.35516254375003,71.0,96.0
418,227.41766235000003,227.65618201875003,71.0,95.0
419,227.72378385000002,227.92786485000002,75.0,97.0
420,228.02990535000004,228.24291489375003,75.0,95.0
421,228.33602685000002,228.545209875,71.0,97.0
422,228.64214835,230.47887735000003,73.0,99.0
