,start,end,pitch,velocity
0,1.1938738500000001,1.6211684437500002,56.0,83.0
1,1.49999535,1.8647901375000002,61.0,101.0
2,1.8061168500000002,2.2461665062500002,56.0,79.0
3,2.11223835,2.49999225,64.0,95.0
4,2.11223835,2.6147878125000004,61.0,95.0
5,2.4183598500000003,2.7002467312500005,56.0,78.0
6,0.8877523500000001,2.7346854,49.0,96.0
7,2.7244813500000005,3.08289860625,64.0,97.0
8,2.7244813500000005,3.0994801875,68.0,96.0
9,3.03060285,3.1836636000000005,61.0,84.0
10,3.3367243500000003,3.7193762250000004,59.0,90.0
11,3.3367243500000003,4.015293675000001,64.0,88.0
12,3.6428458500000005,4.076517975000001,47.0,82.0
13,3.94896735,4.63391420625,59.0,101.0
14,4.255088850000001,4.752536287500001,47.0,82.0
15,4.5612103500000005,5.174728856250001,64.0,96.0
16,4.5612103500000005,5.2117185375,68.0,91.0
17,3.3367243500000003,5.442585168750001,40.0,90.0
18,4.86733185,5.462993268750001,47.0,82.0
19,5.173453350000001,5.5714113,59.0,95.0
20,5.4795748500000006,5.74360464375,64.0,93.0
21,5.78569635,6.0816138,66.0,84.0
22,5.78569635,6.188756325000001,61.0,92.0
23,6.397939350000001,6.576510225000001,61.0,90.0
24,6.397939350000001,6.915794887500001,69.0,91.0
25,6.70406085,6.929825456250001,61.0,90.0
26,7.010182350000001,7.063753612500001,61.0,77.0
27,7.010182350000001,7.419619856250001,66.0,94.0
28,7.316303850000001,7.530588900000001,61.0,82.0
29,7.62242535,7.77421059375,61.0,96.0
30,5.78569635,7.965536531250001,42.0,91.0
31,6.091817850000001,8.030587350000001,49.0,83.0
32,7.62242535,8.1020157,66.0,96.0
33,7.928546850000001,8.1224238,61.0,86.0
34,8.234668350000002,8.4208922625,63.0,94.0
35,8.234668350000002,9.191298037500001,68.0,91.0
36,8.846911350000001,9.22318569375,56.0,97.0
37,9.15303285,9.362215875,63.0,96.0
38,8.540789850000001,9.684918956250002,51.0,85.0
39,9.45915435,9.862214325,56.0,91.0
40,9.45915435,9.892826475000001,63.0,85.0
41,9.45915435,9.961703812500001,68.0,94.0
42,9.76527585,10.1657848125,51.0,91.0
43,10.071397350000002,10.387722900000002,56.0,96.0
44,10.071397350000002,10.415784037500002,68.0,89.0
45,10.071397350000002,10.42216156875,63.0,96.0
46,8.234668350000002,10.52165105625,44.0,92.0
47,10.377518850000001,10.571395800000001,51.0,91.0
48,10.683640350000001,11.025476025000001,56.0,91.0
49,10.683640350000001,11.37751575,61.0,91.0
50,11.29588335,11.9004733125,56.0,99.0
51,11.602004850000002,11.9463915375,61.0,91.0
52,11.908126350000002,12.23338044375,64.0,95.0
53,12.214247850000001,12.60837928125,56.0,91.0
54,10.98976185,12.77164408125,52.0,77.0
55,10.683640350000001,12.78439914375,49.0,90.0
56,12.520369350000001,13.248683418750002,68.0,89.0
57,12.82649085,13.276744556250001,56.0,97.0
58,13.744855350000002,14.101997100000002,57.0,85.0
59,13.744855350000002,14.122405200000001,61.0,90.0
60,14.050976850000001,14.433628725000002,54.0,92.0
61,14.357098350000001,14.707862568750002,57.0,78.0
62,14.357098350000001,14.74612775625,61.0,90.0
63,14.357098350000001,14.906841543750001,66.0,90.0
64,14.66321985,15.025463625000002,54.0,93.0
65,14.96934135,15.315003543750002,57.0,95.0
66,13.13261235,15.336687150000001,42.0,92.0
67,13.438733850000002,15.390258412500001,49.0,90.0
68,15.275462850000002,15.43745214375,54.0,96.0
69,15.581584350000002,16.260153675,56.0,92.0
70,15.581584350000002,16.27163323125,59.0,92.0
71,16.193827350000003,17.00632483125,63.0,91.0
72,16.499948850000003,17.058620587500002,59.0,85.0
73,17.112191850000002,17.462956068750003,63.0,94.0
74,16.806070350000002,17.4820886625,68.0,87.0
75,15.887705850000001,17.548414987500003,51.0,87.0
76,15.581584350000002,17.6249453625,44.0,92.0
77,17.418313350000002,17.760149025,59.0,93.0
78,17.72443485,17.933617875000003,56.0,94.0
79,18.03055635,18.41958575625,56.0,90.0
80,18.03055635,18.711676687500002,61.0,90.0
81,18.94892085,19.294583043750002,61.0,91.0
82,18.64279935,19.844326237500002,56.0,94.0
83,18.33667785,19.933611675,44.0,83.0
84,18.03055635,19.93488718125,37.0,92.0
85,19.25504235,19.9718768625,64.0,91.0
86,20.479528350000002,20.863455731250003,54.0,72.0
87,20.479528350000002,21.18488330625,57.0,84.0
88,21.091771350000002,21.31626045,54.0,92.0
89,20.479528350000002,21.329015512500003,61.0,88.0
90,20.479528350000002,21.3800357625,42.0,90.0
91,20.785649850000002,21.42722949375,49.0,83.0
92,21.70401435,22.08794173125,56.0,86.0
93,21.70401435,22.3137063375,59.0,87.0
94,22.01013585,22.7014602375,51.0,86.0
95,21.70401435,22.7269703625,44.0,91.0
96,22.31625735,22.739725425000003,56.0,91.0
97,22.62237885,22.970592056250002,59.0,95.0
98,22.928500350000004,23.627477775000003,61.0,90.0
99,23.234621850000003,23.767783462500002,52.0,74.0
100,22.928500350000004,23.800946625,49.0,90.0
101,23.540743350000003,24.00120110625,56.0,95.0
102,24.152986350000003,24.595587018750003,57.0,90.0
103,24.152986350000003,24.832831181250004,61.0,90.0
104,24.3060471,25.46038025625,52.0,79.0
105,24.765229350000002,25.632573600000004,57.0,93.0
106,25.37747235,26.035633575000002,61.0,86.0
107,25.37747235,26.056041675000003,64.0,90.0
108,25.68359385,26.09813338125,52.0,86.0
109,24.152986350000003,26.138949581250003,45.0,93.0
110,25.98971535,26.3494081125,57.0,101.0
111,26.601958350000004,26.994814275000003,56.0,88.0
112,26.601958350000004,27.269048118750003,59.0,93.0
113,26.601958350000004,27.5585880375,40.0,90.0
114,26.908079850000004,27.601955250000003,47.0,84.0
115,27.3672621,27.739709925000003,59.0,89.0
116,27.214201350000003,27.909352256250003,56.0,86.0
117,28.438687350000002,28.904247131250003,56.0,92.0
118,28.132565850000002,28.913175675,51.0,90.0
119,28.438687350000002,28.929757256250003,63.0,93.0
120,27.826444350000003,28.943787825,44.0,92.0
121,29.05093035,29.413174125,56.0,91.0
122,29.05093035,29.692509993750004,61.0,92.0
123,29.203991100000003,29.761387331250003,52.0,78.0
124,29.05093035,29.90679504375,49.0,101.0
125,29.969294850000004,30.429752606250002,61.0,90.0
126,29.663173350000005,30.545823675,56.0,96.0
127,30.428477100000002,30.828986062500004,44.0,79.0
128,30.275416350000004,30.946332637500003,37.0,92.0
129,30.275416350000004,30.951434662500002,64.0,91.0
130,30.887659350000003,31.096842375,56.0,95.0
131,31.499902350000003,32.124900412500004,61.0,88.0
132,31.499902350000003,32.1402064875,54.0,84.0
133,31.499902350000003,32.151686043750004,42.0,91.0
134,31.806023850000003,32.188675725,49.0,90.0
135,32.112145350000006,32.2652061,57.0,92.0
136,32.724388350000005,33.198876675,56.0,85.0
137,32.724388350000005,33.379998562500006,61.0,90.0
138,32.724388350000005,33.419539256250005,49.0,91.0
139,33.03050985,33.436120837500006,52.0,78.0
140,33.336631350000005,33.73331379375,64.0,91.0
141,33.64275285,33.809844168750004,56.0,63.0
142,33.948874350000004,34.311118125,54.0,84.0
143,33.948874350000004,34.59555601875,57.0,78.0
144,33.948874350000004,34.7524432875,42.0,91.0
145,34.56111735,34.7932594875,54.0,91.0
146,34.25499585,34.81366758750001,49.0,89.0
147,35.17336035,35.8901948625,57.0,91.0
148,35.17336035,36.05473516875001,61.0,90.0
149,35.78560335,36.0636637125,54.0,91.0
150,35.17336035,36.1350920625,42.0,92.0
151,35.479481850000006,36.1835613,49.0,91.0
152,36.39784635,36.821314425000004,56.0,87.0
153,36.39784635,37.02284441250001,59.0,91.0
154,36.703967850000005,37.07514016875,51.0,87.0
155,36.39784635,37.123609406250004,44.0,93.0
156,37.01008935,37.418251350000006,56.0,99.0
157,37.316210850000004,37.635087412500006,59.0,101.0
158,37.62233235,38.2728405375,61.0,92.0
159,38.23457535,38.594268112500004,56.0,101.0
160,38.54069685,38.886359043750005,61.0,90.0
161,38.84681835000001,39.242225287500005,64.0,96.0
162,39.15293985,39.325133193750005,56.0,86.0
163,39.459061350000006,40.039416693750006,56.0,90.0
164,39.459061350000006,40.039416693750006,61.0,91.0
165,37.928453850000004,40.06110030000001,44.0,85.0
166,37.62233235,40.06492681875,37.0,97.0
167,40.071304350000005,40.45523173125,54.0,72.0
168,40.071304350000005,40.776659306250004,57.0,84.0
169,40.683547350000005,40.908036450000004,54.0,92.0
170,40.071304350000005,40.9207915125,61.0,88.0
171,40.071304350000005,40.9718117625,42.0,90.0
172,40.37742585,41.01900549375,49.0,83.0
173,41.295790350000004,41.67971773125,56.0,86.0
174,41.295790350000004,41.905482337500004,59.0,87.0
175,41.60191185,42.293236237500004,51.0,86.0
176,41.295790350000004,42.3187463625,44.0,91.0
177,41.908033350000004,42.331501425000006,56.0,91.0
178,42.21415485000001,42.56236805625,59.0,95.0
179,42.52027635,43.219253775000006,61.0,90.0
180,42.826397850000006,43.3595594625,52.0,74.0
181,42.52027635,43.392722625000005,49.0,90.0
182,43.13251935,43.592977106250004,56.0,95.0
183,43.74476235,44.187363018750005,57.0,90.0
184,43.74476235,44.42460718125,61.0,90.0
185,43.897823100000004,45.05215625625,52.0,79.0
186,44.35700535,45.224349600000004,57.0,93.0
187,44.96924835,45.627409575,61.0,86.0
188,44.96924835,45.647817675000006,64.0,90.0
189,45.275369850000004,45.689909381250004,52.0,86.0
190,43.74476235,45.730725581250006,45.0,93.0
191,45.58149135000001,45.941184112500004,57.0,101.0
192,46.19373435000001,46.586590275000006,56.0,88.0
193,46.19373435000001,46.86082411875,59.0,93.0
194,46.19373435000001,47.150364037500005,40.0,90.0
195,46.49985585,47.193731250000006,47.0,84.0
196,46.95903810000001,47.331485925,59.0,89.0
197,46.805977350000006,47.501128256250006,56.0,86.0
198,48.030463350000005,48.496023131250006,56.0,92.0
199,47.72434185,48.50495167500001,51.0,90.0
200,48.030463350000005,48.52153325625,63.0,93.0
201,47.418220350000006,48.535563825000004,44.0,92.0
202,48.642706350000005,49.00495012500001,56.0,91.0
203,48.642706350000005,49.284285993750004,61.0,92.0
204,48.795767100000006,49.35316333125,52.0,78.0
205,48.642706350000005,49.498571043750005,49.0,101.0
206,49.56107085000001,50.02152860625,61.0,90.0
207,49.254949350000004,50.137599675000004,56.0,96.0
208,50.020253100000005,50.4207620625,44.0,79.0
209,49.86719235,50.5381086375,37.0,92.0
210,49.86719235,50.5432106625,64.0,91.0
211,50.47943535,50.688618375000004,56.0,95.0
212,51.09167835,51.71667641250001,61.0,88.0
213,51.09167835,51.731982487500005,54.0,84.0
214,51.09167835,51.74346204375001,42.0,91.0
215,51.397799850000006,51.780451725000006,49.0,90.0
216,51.70392135,51.8569821,57.0,92.0
217,52.31616435000001,52.790652675000004,56.0,85.0
218,52.31616435000001,52.9717745625,61.0,90.0
219,52.31616435000001,53.01131525625001,49.0,91.0
220,52.622285850000004,53.0278968375,52.0,78.0
221,52.92840735000001,53.32508979375,64.0,91.0
222,53.234528850000004,53.40162016875001,56.0,63.0
223,53.54065035000001,53.902894125,54.0,84.0
224,53.54065035000001,54.187332018750006,57.0,78.0
225,53.54065035000001,54.3442192875,42.0,91.0
226,54.15289335000001,54.385035487500005,54.0,91.0
227,53.84677185,54.4054435875,49.0,89.0
228,54.765136350000006,55.481970862500006,57.0,91.0
229,54.765136350000006,55.64651116875,61.0,90.0
230,55.377379350000005,55.655439712500005,54.0,91.0
231,54.765136350000006,55.7268680625,42.0,92.0
232,55.07125785,55.775337300000004,49.0,91.0
233,55.989622350000005,56.41309042500001,56.0,87.0
234,55.989622350000005,56.6146204125,59.0,91.0
235,56.29574385000001,56.66691616875001,51.0,87.0
236,55.989622350000005,56.71538540625001,44.0,93.0
237,56.601865350000004,57.01002735000001,56.0,99.0
238,56.90798685000001,57.2268634125,59.0,101.0
239,57.214108350000004,57.864616537500005,61.0,92.0
240,57.82635135,58.18604411250001,56.0,101.0
241,58.132472850000006,58.47813504375001,61.0,90.0
242,58.43859435,58.83400128750001,64.0,96.0
243,58.744715850000006,58.91690919375001,56.0,86.0
244,59.05083735000001,59.63119269375001,56.0,90.0
245,59.05083735000001,59.63119269375001,61.0,91.0
246,57.52022985000001,59.6528763,44.0,85.0
247,57.214108350000004,59.656702818750006,37.0,97.0
248,59.66308035000001,60.11971158750001,64.0,90.0
249,59.66308035000001,60.12864013125001,56.0,89.0
250,60.27532335000001,60.635016112500004,64.0,96.0
251,60.27532335000001,60.63884263125001,61.0,96.0
252,60.581444850000004,60.822515531250005,56.0,92.0
253,60.88756635000001,61.090371843750006,56.0,92.0
254,60.88756635000001,61.24853461875001,61.0,92.0
255,61.19368785,61.36077916875001,56.0,94.0
256,59.969201850000005,61.495982831250004,44.0,87.0
257,59.66308035000001,61.525319475,37.0,97.0
258,61.49980935000001,61.63118649375001,56.0,92.0
259,61.49980935000001,61.822512431250004,61.0,94.0
260,61.49980935000001,61.87480818750001,64.0,96.0
261,61.80593085,61.932205968750004,56.0,91.0
262,62.26511310000001,62.656693518750004,52.0,91.0
263,62.724295350000006,63.0737840625,57.0,107.0
264,62.87735610000001,63.11842678125001,52.0,83.0
265,63.48959910000001,63.66689446875001,52.0,86.0
266,63.336538350000005,63.687302568750006,57.0,93.0
267,63.336538350000005,63.689853581250006,61.0,91.0
268,62.112052350000006,64.03934229375001,45.0,101.0
269,63.948781350000004,64.05337286250001,52.0,92.0
270,63.948781350000004,64.280412975,57.0,104.0
271,63.948781350000004,64.4564328375,61.0,92.0
272,64.25490285000001,64.46408587500001,52.0,92.0
273,64.56102435000001,65.055920775,56.0,91.0
274,64.56102435000001,65.22811411875,52.0,90.0
275,64.56102435000001,65.38372588125,40.0,92.0
276,65.17326735,65.3875524,56.0,88.0
277,64.86714585,65.38882790625,47.0,84.0
278,65.17326735,65.423266575,59.0,93.0
279,65.78551035000001,65.83908161250001,58.0,78.0
280,65.78551035000001,65.98448932500001,56.0,81.0
281,65.78551035000001,66.17326425,61.0,90.0
282,65.78551035000001,66.43729404375,49.0,91.0
283,66.09163185000001,66.4462225875,56.0,94.0
284,66.39775335,66.56101815000001,61.0,91.0
285,66.55081410000001,66.74086453125001,56.0,72.0
286,66.39775335,66.80081332500001,64.0,92.0
287,67.62223935,67.688565675,61.0,68.0
288,67.00999635000001,67.91943230625,42.0,92.0
289,67.31611785000001,67.94494243125001,49.0,93.0
290,67.62223935,68.01892179375001,54.0,94.0
291,67.92836085,68.08014609375,57.0,97.0
292,68.23448235000001,68.4079512,56.0,91.0
293,68.23448235000001,68.59034859375001,61.0,91.0
294,68.54060385000001,68.94493933125001,56.0,92.0
295,68.23448235000001,69.035500275,49.0,99.0
296,68.84672535,69.2013160875,64.0,96.0
297,68.84672535,69.33141772500001,61.0,101.0
298,69.15284685,69.34799930625,56.0,90.0
299,69.45896835,69.84799775625001,59.0,90.0
300,69.45896835,69.86840585625,56.0,92.0
301,69.45896835,70.1426397,44.0,92.0
302,69.76508985000001,70.1426397,51.0,88.0
303,70.07121135000001,70.270190325,59.0,101.0
304,70.07121135000001,70.32631260000001,56.0,92.0
305,70.07121135000001,70.392638925,63.0,96.0
306,70.68345435,71.32758500625,54.0,90.0
307,70.68345435,71.35437063750001,61.0,90.0
308,70.98957585000001,71.45513563125,49.0,90.0
309,70.68345435,71.484472275,42.0,92.0
310,71.29569735000001,71.64773707500001,57.0,94.0
311,71.60181885,71.75998162500001,54.0,94.0
312,71.90794035,72.32247988125,59.0,93.0
313,71.90794035,72.35309203125,56.0,94.0
314,72.21406185000001,72.555897525,51.0,92.0
315,71.90794035,72.59288720625001,44.0,93.0
316,72.52018335000001,72.8645700375,63.0,99.0
317,72.52018335000001,73.02655933125001,59.0,97.0
318,73.13242635,73.47298651875,54.0,94.0
319,73.13242635,73.54824138750001,59.0,92.0
320,73.43854785,73.82247523125001,42.0,86.0
321,73.74466935000001,73.8390568125,54.0,91.0
322,73.13242635,73.85308738125,35.0,91.0
323,74.05079085000001,74.229361725,54.0,91.0
324,73.74466935000001,74.25742286250001,59.0,99.0
325,73.74466935000001,74.28165748125001,63.0,94.0
326,74.35691235,74.53165670625,56.0,94.0
327,74.35691235,74.76507435,61.0,90.0
328,74.66303385,75.03675718125001,56.0,92.0
329,74.35691235,75.09925698750001,49.0,96.0
330,75.1222161,75.24721571250001,56.0,93.0
331,74.96915535000001,75.25997077500001,61.0,97.0
332,74.96915535000001,75.31609305,64.0,92.0
333,75.58139835,76.02782553750001,54.0,90.0
334,75.58139835,76.06226420625,57.0,84.0
335,75.58139835,76.06736623125,61.0,90.0
336,76.19364135000001,76.24211058750001,61.0,79.0
337,76.19364135000001,76.53802803750001,57.0,92.0
338,75.88751985,76.64644606875001,49.0,90.0
339,76.49976285000001,76.68343575,54.0,104.0
340,75.58139835,76.70256834375,42.0,91.0
341,76.80588435000001,77.2931277375,59.0,96.0
342,76.80588435000001,77.3543520375,54.0,94.0
343,77.41812735,77.48828019375,54.0,62.0
344,77.41812735,77.79950371875,59.0,99.0
345,77.41812735,77.81480979375,63.0,101.0
346,76.80588435000001,77.87093206875001,47.0,94.0
347,77.11200585,77.8977177,51.0,84.0
348,77.72424885000001,77.91685029375,54.0,101.0
349,78.03037035000001,78.48445057500001,59.0,96.0
350,78.03037035000001,78.51633823125,56.0,93.0
351,78.33649185,78.73444980000001,51.0,91.0
352,78.03037035000001,78.79057207500001,44.0,94.0
353,78.64261335,79.01633668125001,63.0,101.0
354,78.64261335,79.02398971875,59.0,101.0
355,78.94873485000001,79.40409058125,56.0,92.0
356,79.25485635000001,79.64643676875001,61.0,91.0
357,79.56097785,79.74337524375001,56.0,91.0
358,79.86709935,80.03419066875001,56.0,92.0
359,79.86709935,80.219139075,64.0,93.0
360,80.17322085,80.51888304375001,63.0,104.0
361,80.47934235000001,80.78929036875,61.0,104.0
362,81.09158535,81.23826856875,56.0,96.0
363,81.09158535,81.4767882375,61.0,104.0
364,81.09158535,81.48954330000001,64.0,94.0
365,81.39770685,81.70255284375001,56.0,95.0
366,80.78546385000001,81.77015467500001,44.0,90.0
367,79.25485635000001,81.77908321875,37.0,95.0
368,81.70382835000001,81.77908321875,37.0,97.0
369,81.70382835000001,82.16045958750001,64.0,90.0
370,81.70382835000001,82.16938813125,56.0,89.0
371,82.31607135,82.6757641125,64.0,96.0
372,82.31607135,82.67959063125001,61.0,96.0
373,82.62219285,82.86326353125001,56.0,92.0
374,82.92831435000001,83.13111984375001,56.0,92.0
375,82.92831435000001,83.28928261875001,61.0,92.0
376,83.23443585000001,83.40152716875001,56.0,94.0
377,82.00994985000001,83.53673083125001,44.0,87.0
378,83.54055735000001,83.67193449375,56.0,92.0
379,83.54055735000001,83.86326043125001,61.0,94.0
380,83.54055735000001,83.9155561875,64.0,96.0
381,83.84667885,83.97295396875,56.0,91.0
382,84.3058611,84.69744151875001,52.0,91.0
383,84.76504335000001,85.1145320625,57.0,107.0
384,84.91810410000001,85.15917478125,52.0,83.0
385,85.53034710000001,85.70764246875001,52.0,86.0
386,85.37728635,85.72805056875,57.0,93.0
387,85.37728635,85.73060158125001,61.0,91.0
388,84.15280035,86.08009029375,45.0,101.0
389,85.98952935000001,86.0941208625,52.0,92.0
390,85.98952935000001,86.32116097500001,57.0,104.0
391,85.98952935000001,86.49718083750001,61.0,92.0
392,86.29565085,86.504833875,52.0,92.0
393,86.60177235,87.09666877500001,56.0,91.0
394,86.60177235,87.26886211875001,52.0,90.0
395,86.60177235,87.42447388125001,40.0,92.0
396,87.21401535000001,87.42830040000001,56.0,88.0
397,86.90789385000001,87.42957590625001,47.0,84.0
398,87.21401535000001,87.46401457500001,59.0,93.0
399,87.82625835,87.8798296125,58.0,78.0
400,87.82625835,88.025237325,56.0,81.0
401,87.82625835,88.21401225000001,61.0,90.0
402,87.82625835,88.47804204375001,49.0,91.0
403,88.13237985,88.48697058750001,56.0,94.0
404,88.43850135000001,88.60176615,61.0,91.0
405,88.5915621,88.78161253125,56.0,72.0
406,88.43850135000001,88.84156132500001,64.0,92.0
407,89.66298735000001,89.72931367500001,61.0,68.0
408,89.05074435,89.96018030625001,42.0,92.0
409,89.35686585,89.98569043125,49.0,93.0
410,89.66298735000001,90.05966979375,54.0,94.0
411,89.96910885000001,90.12089409375001,57.0,97.0
412,90.27523035000002,90.44869920000001,56.0,91.0
413,90.27523035000002,90.63109659375,61.0,91.0
414,90.58135185,90.98568733125,56.0,92.0
415,90.27523035000002,91.07624827500001,49.0,99.0
416,90.88747335000001,91.24206408750001,64.0,96.0
417,90.88747335000001,91.372165725,61.0,101.0
418,91.19359485000001,91.38874730625001,56.0,90.0
419,91.49971635000001,91.88874575625,59.0,90.0
420,91.49971635000001,91.90915385625001,56.0,92.0
421,91.49971635000001,92.18338770000001,44.0,92.0
422,91.80583785,92.18338770000001,51.0,88.0
423,92.11195935,92.31093832500001,59.0,101.0
424,92.11195935,92.3670606,56.0,92.0
425,92.11195935,92.43338692500001,63.0,96.0
426,92.72420235000001,93.36833300625001,54.0,90.0
427,92.72420235000001,93.3951186375,61.0,90.0
428,93.03032385,93.49588363125001,49.0,90.0
429,92.72420235000001,93.52522027500001,42.0,92.0
430,93.33644535,93.688485075,57.0,94.0
431,93.64256685000001,93.800729625,54.0,94.0
432,93.94868835000001,94.36322788125001,59.0,93.0
433,93.94868835000001,94.39384003125001,56.0,94.0
434,94.25480985000002,94.59664552500001,51.0,92.0
435,93.94868835000001,94.63363520625,44.0,93.0
436,94.56093135,94.90531803750001,63.0,99.0
437,94.56093135,95.06730733125,59.0,97.0
438,95.17317435000001,95.51373451875001,54.0,94.0
439,95.17317435000001,95.5889893875,59.0,92.0
440,95.47929585000001,95.86322323125,42.0,86.0
441,95.78541735,95.87980481250001,54.0,91.0
442,95.17317435000001,95.89383538125001,35.0,91.0
443,96.09153885,96.27010972500001,54.0,91.0
444,95.78541735,96.29817086250002,59.0,99.0
445,95.78541735,96.32240548125002,63.0,94.0
446,96.39766035000001,96.57240470625001,56.0,94.0
447,96.39766035000001,96.80582235000001,61.0,90.0
448,96.70378185000001,97.07750518125,56.0,92.0
449,96.39766035000001,97.1400049875,49.0,96.0
450,97.16296410000001,97.28796371250002,56.0,93.0
451,97.00990335000002,97.300718775,61.0,97.0
452,97.00990335000002,97.35684105000001,64.0,92.0
453,97.62214635000001,98.06857353750001,54.0,90.0
454,97.62214635000001,98.10301220625001,57.0,84.0
455,97.62214635000001,98.10811423125001,61.0,90.0
456,98.23438935000001,98.28285858750002,61.0,79.0
457,98.23438935000001,98.5787760375,57.0,92.0
458,97.92826785000001,98.68719406875,49.0,90.0
459,98.54051085,98.72418375000001,54.0,104.0
460,97.62214635000001,98.74331634375001,42.0,91.0
461,98.84663235000001,99.33387573750001,59.0,96.0
462,98.84663235000001,99.39510003750001,54.0,94.0
463,99.45887535000001,99.52902819375001,54.0,62.0
464,99.45887535000001,99.84025171875001,59.0,99.0
465,99.45887535000001,99.85555779375001,63.0,101.0
466,98.84663235000001,99.91168006875002,47.0,94.0
467,99.15275385000001,99.93846570000001,51.0,84.0
468,99.76499685,99.95759829375001,54.0,101.0
469,100.07111835,100.525198575,59.0,96.0
470,100.07111835,100.55708623125001,56.0,93.0
471,100.37723985000001,100.77519780000002,51.0,91.0
472,100.07111835,100.83132007500001,44.0,94.0
473,100.68336135000001,101.05708468125,63.0,101.0
474,100.68336135000001,101.06473771875001,59.0,101.0
475,100.98948285000002,101.44483858125001,56.0,92.0
476,101.29560435,101.68718476875001,61.0,91.0
477,101.60172585000001,101.78412324375002,56.0,91.0
478,101.90784735000001,102.07493866875001,56.0,92.0
479,101.90784735000001,102.25988707500001,64.0,93.0
480,102.21396885000001,102.55963104375002,63.0,104.0
481,102.52009035,102.83003836875001,61.0,104.0
482,103.13233335000001,103.27901656875001,56.0,96.0
483,103.13233335000001,103.51753623750001,61.0,104.0
484,103.13233335000001,103.53029130000002,64.0,94.0
485,103.43845485000001,103.74330084375,56.0,95.0
486,102.82621185,103.81090267500001,44.0,90.0
487,101.29560435,103.81983121875001,37.0,95.0
488,103.74457635000002,104.14125879375001,64.0,97.0
489,104.05069785,104.41166611875,56.0,93.0
490,103.74457635000002,104.4512068125,49.0,101.0
491,104.35681935000001,104.70375705000001,61.0,99.0
492,104.66294085000001,105.18589841250001,56.0,94.0
493,105.58130535000001,105.88870235625001,57.0,97.0
494,105.58130535000001,105.92441653125,61.0,91.0
495,105.27518385,106.00477342500001,49.0,91.0
496,104.96906235000002,106.05451816875001,42.0,95.0
497,105.88742685000001,106.1042629125,54.0,101.0
498,106.19354835000001,106.65400610625001,59.0,91.0
499,106.19354835000001,106.66165914375001,54.0,99.0
500,106.19354835000001,106.96778064375,47.0,99.0
501,106.80579135,106.9920152625,54.0,95.0
502,106.49966985,107.09278025625001,51.0,82.0
503,106.80579135,107.15655556875001,59.0,95.0
504,106.80579135,107.40017726250001,63.0,96.0
505,107.41803435000001,107.91420628125002,56.0,91.0
506,107.41803435000001,107.92441033125002,59.0,92.0
507,107.41803435000001,108.15017493750001,44.0,90.0
508,107.72415585000002,108.18971563125001,51.0,96.0
509,108.03027735,108.37593954375001,63.0,99.0
510,108.33639885000001,108.62721427500001,56.0,97.0
511,108.64252035000001,109.25603885625002,45.0,95.0
512,108.94864185000002,109.27772246250001,52.0,85.0
513,108.64252035000001,109.30068157500001,61.0,92.0
514,109.25476335,109.57363991250001,57.0,97.0
515,109.56088485000001,109.81343508750001,61.0,91.0
516,109.86700635000001,110.32746410625,54.0,91.0
517,109.86700635000001,110.33129062500001,59.0,96.0
518,109.86700635000001,110.57491231875001,47.0,96.0
519,110.17312785000001,110.57873883750001,51.0,90.0
520,110.47924935,110.72032003125001,54.0,92.0
521,110.47924935,110.76878926875001,59.0,96.0
522,110.47924935,111.00220691250001,63.0,95.0
523,111.09149235000001,111.44225656875001,56.0,93.0
524,111.09149235000001,111.47286871875001,52.0,91.0
525,111.70373535000002,112.04812203750001,52.0,97.0
526,111.09149235000001,112.07490766875001,40.0,91.0
527,111.39761385000001,112.12847893125002,47.0,88.0
528,112.00985685,112.33766195625002,54.0,111.0
529,112.31597835000001,112.76750756250001,56.0,94.0
530,112.62209985000001,113.06725153125001,51.0,87.0
531,112.31597835000001,113.38102606875002,44.0,91.0
532,112.92822135000002,113.38740360000001,56.0,106.0
533,113.23434285,113.40653619375001,51.0,94.0
534,114.15270735000001,114.64887928125002,54.0,106.0
535,114.45882885000002,114.657807825,57.0,91.0
536,113.84658585000001,114.96010280625,49.0,91.0
537,114.76495035,115.19352045000001,61.0,92.0
538,114.76495035,115.27642835625001,54.0,95.0
539,115.37719335000001,115.43459113125002,54.0,79.0
540,115.07107185000001,115.47413182500001,49.0,91.0
541,113.54046435000001,115.53408061875001,42.0,94.0
542,115.37719335000001,115.58892738750001,57.0,90.0
543,115.37719335000001,115.64122314375001,61.0,94.0
544,115.37719335000001,115.70372295000001,66.0,91.0
545,115.68331485000002,115.84530414375001,42.0,91.0
546,115.98943635,116.44606758750001,59.0,90.0
547,115.98943635,116.51239391250002,56.0,90.0
548,116.60167935000001,116.92183141875002,59.0,95.0
549,116.60167935000001,116.95882110000001,63.0,94.0
550,116.29555785000001,117.00601483125001,51.0,90.0
551,116.90780085000002,117.1399429875,56.0,92.0
552,115.98943635,117.18331020000001,44.0,88.0
553,117.21392235,117.86698155,61.0,92.0
554,117.52004385000001,118.17565406250002,52.0,72.0
555,117.21392235,118.22922532500002,49.0,95.0
556,117.82616535000001,118.43458183125001,64.0,101.0
557,118.43840835000002,119.05447786875001,61.0,96.0
558,118.74452985,119.19095703750001,52.0,89.0
559,118.43840835000002,119.23304874375002,45.0,106.0
560,119.05065135000001,119.37335443125001,57.0,86.0
561,119.35677285000001,119.65396580625001,61.0,92.0
562,119.66289435000002,120.01365856875002,54.0,78.0
563,119.66289435000002,120.31978006875,59.0,93.0
564,119.66289435000002,120.33891266250001,47.0,95.0
565,119.96901585,120.34529019375002,51.0,90.0
566,120.27513735000001,120.65396270625001,54.0,101.0
567,120.58125885000001,120.841462125,59.0,101.0
568,120.88738035000002,121.11697147500001,56.0,89.0
569,120.88738035000002,121.36314418125001,61.0,86.0
570,121.49962335000001,121.85038756875001,56.0,94.0
571,121.80574485000001,121.90778535000001,61.0,96.0
572,122.11186635000001,122.58125265000001,56.0,96.0
573,122.11186635000001,122.67308910000001,64.0,101.0
574,122.72410935,123.29808716250001,56.0,90.0
575,121.19350185000002,123.31339323750001,44.0,86.0
576,122.72410935,123.31977076875002,61.0,89.0
577,120.88738035000002,123.32232178125001,37.0,93.0
578,123.33635235000001,123.72027973125002,54.0,72.0
579,123.33635235000001,124.04170730625002,57.0,84.0
580,123.94859535,124.17308445000002,54.0,92.0
581,123.33635235000001,124.18583951250001,61.0,88.0
582,123.33635235000001,124.23685976250002,42.0,90.0
583,123.64247385000002,124.28405349375001,49.0,83.0
584,124.56083835000001,124.94476573125002,56.0,86.0
585,124.56083835000001,125.17053033750001,59.0,87.0
586,124.86695985000001,125.55828423750002,51.0,86.0
587,124.56083835000001,125.58379436250002,44.0,91.0
588,125.17308135000002,125.596549425,56.0,91.0
589,125.47920285000001,125.82741605625002,59.0,95.0
590,125.78532435000001,126.484301775,61.0,90.0
591,126.09144585000001,126.62460746250001,52.0,74.0
592,125.78532435000001,126.65777062500001,49.0,90.0
593,126.39756735000002,126.85802510625001,56.0,95.0
594,127.00981035000001,127.45241101875001,57.0,90.0
595,127.00981035000001,127.68965518125002,61.0,90.0
596,127.16287110000002,128.31720425625002,52.0,79.0
597,127.62205335000002,128.48939760000002,57.0,93.0
598,128.23429635000002,128.892457575,61.0,86.0
599,128.23429635000002,128.912865675,64.0,90.0
600,128.54041785,128.95495738125,52.0,86.0
601,127.00981035000001,128.99577358125,45.0,93.0
602,128.84653935,129.2062321125,57.0,101.0
603,129.45878235,129.851638275,56.0,88.0
604,129.45878235,130.12587211875,59.0,93.0
605,129.45878235,130.4154120375,40.0,90.0
606,129.76490385000002,130.45877925000002,47.0,84.0
607,130.22408610000002,130.59653392500002,59.0,89.0
608,130.07102535,130.76617625625002,56.0,86.0
609,131.29551135000003,131.76107113125002,56.0,92.0
610,130.98938985,131.769999675,51.0,90.0
611,131.29551135000003,131.78658125625,63.0,93.0
612,130.68326835000002,131.800611825,44.0,92.0
613,131.90775435,132.269998125,56.0,91.0
614,131.90775435,132.54933399375003,61.0,92.0
615,132.0608151,132.61821133125002,52.0,78.0
616,131.90775435,132.76361904375003,49.0,101.0
617,132.82611885,133.28657660625,61.0,90.0
618,132.51999735,133.40264767500003,56.0,96.0
619,133.28530110000003,133.68581006250002,44.0,79.0
620,133.13224035000002,133.80315663750002,37.0,92.0
621,133.13224035000002,133.8082586625,64.0,91.0
622,133.74448335000002,133.953666375,56.0,95.0
623,134.35672635,134.9817244125,61.0,88.0
624,134.35672635,134.9970304875,54.0,84.0
625,134.35672635,135.00851004375002,42.0,91.0
626,134.66284785000002,135.045499725,49.0,90.0
627,134.96896935,135.12203010000002,57.0,92.0
628,135.58121235000002,136.05570067500003,56.0,85.0
629,135.58121235000002,136.2368225625,61.0,90.0
630,135.58121235000002,136.27636325625002,49.0,91.0
631,135.88733385,136.29294483750002,52.0,78.0
632,136.19345535000002,136.59013779375002,64.0,91.0
633,136.49957685,136.66666816875002,56.0,63.0
634,136.80569835,137.16794212500002,54.0,84.0
635,136.80569835,137.45238001875,57.0,78.0
636,136.80569835,137.60926728750002,42.0,91.0
637,137.41794135,137.6500834875,54.0,91.0
638,137.11181985000002,137.6704915875,49.0,89.0
639,138.03018435,138.7470188625,57.0,91.0
640,138.03018435,138.91155916875002,61.0,90.0
641,138.64242735000002,138.9204877125,54.0,91.0
642,138.03018435,138.99191606250002,42.0,92.0
643,138.33630585,139.04038530000003,49.0,91.0
644,139.25467035000003,139.67813842500001,56.0,87.0
645,139.25467035000003,139.87966841250002,59.0,91.0
646,139.56079185000002,139.93196416875,51.0,87.0
647,139.25467035000003,139.98043340625,44.0,93.0
648,139.86691335,140.27507535,56.0,99.0
649,140.17303485000002,140.4919114125,59.0,101.0
650,140.47915635,141.12966453750002,61.0,92.0
651,141.09139935000002,141.45109211250002,56.0,101.0
652,141.39752085,141.74318304375,61.0,90.0
653,141.70364235000002,142.0990492875,64.0,96.0
654,142.00976385,142.18195719375,56.0,86.0
655,142.31588535,142.89624069375,56.0,90.0
656,142.31588535,142.89624069375,61.0,91.0
657,140.78527785,142.9179243,44.0,85.0
658,140.47915635,142.92175081875,37.0,97.0
659,142.92812835,143.3847595875,64.0,90.0
660,142.92812835,143.39368813125,56.0,89.0
661,143.54037135000002,143.90006411250002,64.0,96.0
662,143.54037135000002,143.90389063125002,61.0,96.0
663,143.84649285,144.08756353125003,56.0,92.0
664,144.15261435000002,144.35541984375,56.0,92.0
665,144.15261435000002,144.51358261875,61.0,92.0
666,144.45873585,144.62582716875002,56.0,94.0
667,143.23424985000003,144.76103083125003,44.0,87.0
668,142.92812835,144.790367475,37.0,97.0
669,144.76485735,144.89623449375,56.0,92.0
670,144.76485735,145.08756043125,61.0,94.0
671,144.76485735,145.13985618750002,64.0,96.0
672,145.07097885000002,145.19725396875,56.0,91.0
673,145.53016110000002,145.92174151875003,52.0,91.0
674,145.98934335,146.33883206250002,57.0,107.0
675,146.14240410000002,146.38347478125002,52.0,83.0
676,146.75464710000003,146.93194246875,52.0,86.0
677,146.60158635000002,146.95235056875,57.0,93.0
678,146.60158635000002,146.95490158125003,61.0,91.0
679,145.37710035,147.30439029375,45.0,101.0
680,147.21382935000003,147.3184208625,52.0,92.0
681,147.21382935000003,147.54546097500003,57.0,104.0
682,147.21382935000003,147.72148083750002,61.0,92.0
683,147.51995085000001,147.729133875,52.0,92.0
684,147.82607235,148.320968775,56.0,91.0
685,147.82607235,148.49316211875,52.0,90.0
686,147.82607235,148.64877388125,40.0,92.0
687,148.43831535,148.6526004,56.0,88.0
688,148.13219385000002,148.65387590625002,47.0,84.0
689,148.43831535,148.68831457500002,59.0,93.0
690,149.05055835000002,149.1041296125,58.0,78.0
691,149.05055835000002,149.249537325,56.0,81.0
692,149.05055835000002,149.43831225000002,61.0,90.0
693,149.05055835000002,149.70234204375,49.0,91.0
694,149.35667985,149.71127058750002,56.0,94.0
695,149.66280135000002,149.82606615,61.0,91.0
696,149.8158621,150.00591253125,56.0,72.0
697,149.66280135000002,150.06586132500001,64.0,92.0
698,150.88728735,150.953613675,61.0,68.0
699,150.27504435,151.18448030625,42.0,92.0
700,150.58116585000002,151.20999043125002,49.0,93.0
701,150.88728735,151.28396979375,54.0,94.0
702,151.19340885000003,151.34519409375002,57.0,97.0
703,151.49953035000001,151.67299920000002,56.0,91.0
704,151.49953035000001,151.85539659375002,61.0,91.0
705,151.80565185,152.20998733125,56.0,92.0
706,151.49953035000001,152.300548275,49.0,99.0
707,152.11177335000002,152.4663640875,64.0,96.0
708,152.11177335000002,152.596465725,61.0,101.0
709,152.41789485,152.61304730625002,56.0,90.0
710,152.72401635000003,153.11304575625002,59.0,90.0
711,152.72401635000003,153.13345385625001,56.0,92.0
712,152.72401635000003,153.40768770000003,44.0,92.0
713,153.03013785000002,153.40768770000003,51.0,88.0
714,153.33625935,153.53523832500002,59.0,101.0
715,153.33625935,153.5913606,56.0,92.0
716,153.33625935,153.657686925,63.0,96.0
717,153.94850235,154.59263300625003,54.0,90.0
718,153.94850235,154.61941863750002,61.0,90.0
719,154.25462385,154.72018363125002,49.0,90.0
720,153.94850235,154.749520275,42.0,92.0
721,154.56074535000002,154.91278507500002,57.0,94.0
722,154.86686685,155.025029625,54.0,94.0
723,155.17298835000003,155.58752788125003,59.0,93.0
724,155.17298835000003,155.61814003125002,56.0,94.0
725,155.47910985000001,155.820945525,51.0,92.0
726,155.17298835000003,155.85793520625,44.0,93.0
727,155.78523135,156.12961803750002,63.0,99.0
728,155.78523135,156.29160733125002,59.0,97.0
729,156.39747435,156.73803451875003,54.0,94.0
730,156.39747435,156.81328938750002,59.0,92.0
731,156.70359585000003,157.08752323125,42.0,86.0
732,157.00971735000002,157.10410481250003,54.0,91.0
733,156.39747435,157.11813538125003,35.0,91.0
734,157.31583885,157.49440972500003,54.0,91.0
735,157.00971735000002,157.52247086250003,59.0,99.0
736,157.00971735000002,157.54670548125,63.0,94.0
737,157.62196035000002,157.79670470625,56.0,94.0
738,157.62196035000002,158.03012235000003,61.0,90.0
739,157.92808185,158.30180518125002,56.0,92.0
740,157.62196035000002,158.36430498750002,49.0,96.0
741,158.3872641,158.51226371250002,56.0,93.0
742,158.23420335,158.525018775,61.0,97.0
743,158.23420335,158.58114105,64.0,92.0
744,158.84644635,159.29287353750001,54.0,90.0
745,158.84644635,159.32731220625,57.0,84.0
746,158.84644635,159.33241423125003,61.0,90.0
747,159.45868935000001,159.50715858750002,61.0,79.0
748,159.45868935000001,159.8030760375,57.0,92.0
749,159.15256785000003,159.91149406875002,49.0,90.0
750,159.76481085,159.94848375,54.0,104.0
751,158.84644635,159.96761634375002,42.0,91.0
752,160.07093235000002,160.55817573750002,59.0,96.0
753,160.07093235000002,160.61940003750001,54.0,94.0
754,160.68317535000003,160.75332819375,54.0,62.0
755,160.68317535000003,161.06455171875,59.0,99.0
756,160.68317535000003,161.07985779375002,63.0,101.0
757,160.07093235000002,161.13598006875,47.0,94.0
758,160.37705385,161.16276570000002,51.0,84.0
759,160.98929685000002,161.18189829375,54.0,101.0
760,161.29541835,161.74949857500002,59.0,96.0
761,161.29541835,161.78138623125002,56.0,93.0
762,161.60153985000002,161.99949780000003,51.0,91.0
763,161.29541835,162.055620075,44.0,94.0
764,161.90766135,162.28138468125002,63.0,101.0
765,161.90766135,162.28903771875002,59.0,101.0
766,162.21378285,162.66913858125002,56.0,92.0
767,162.51990435000002,162.91148476875003,61.0,91.0
768,162.82602585,163.00842324375,56.0,91.0
769,163.13214735000003,163.29923866875,56.0,92.0
770,163.13214735000003,163.48418707500002,64.0,93.0
771,163.43826885000001,163.78393104375002,63.0,104.0
772,163.74439035,164.05433836875002,61.0,104.0
773,164.35663335,164.50331656875002,56.0,96.0
774,164.35663335,164.74183623750002,61.0,104.0
775,164.35663335,164.75459130000002,64.0,94.0
776,164.66275485000003,164.96760084375,56.0,95.0
777,164.05051185000002,165.03520267500002,44.0,90.0
778,162.51990435000002,165.04413121875,37.0,95.0
779,164.96887635000002,165.04413121875,37.0,97.0
780,164.96887635000002,165.42550758750002,64.0,90.0
781,164.96887635000002,165.43443613125,56.0,89.0
782,165.58111935000002,165.94081211250003,64.0,96.0
783,165.58111935000002,165.94463863125003,61.0,96.0
784,165.88724085,166.12831153125,56.0,92.0
785,166.19336235000003,166.39616784375002,56.0,92.0
786,166.19336235000003,166.55433061875001,61.0,92.0
787,166.49948385000002,166.66657516875003,56.0,94.0
788,165.27499785,166.80177883125,44.0,87.0
789,166.80560535,166.93698249375,56.0,92.0
790,166.80560535,167.12830843125002,61.0,94.0
791,166.80560535,167.18060418750002,64.0,96.0
792,167.11172685000003,167.23800196875,56.0,91.0
793,167.57090910000002,167.96248951875,52.0,91.0
794,168.03009135000002,168.37958006250003,57.0,107.0
795,168.18315210000003,168.42422278125002,52.0,83.0
796,168.7953951,168.97269046875002,52.0,86.0
797,168.64233435000003,168.99309856875,57.0,93.0
798,168.64233435000003,168.99564958125,61.0,91.0
799,167.41784835,169.34513829375,45.0,101.0
800,169.25457735,169.3591688625,52.0,92.0
801,169.25457735,169.586208975,57.0,104.0
802,169.25457735,169.7622288375,61.0,92.0
803,169.56069885000002,169.769881875,52.0,92.0
804,169.86682035,170.36171677500002,56.0,91.0
805,169.86682035,170.53391011875001,52.0,90.0
806,169.86682035,170.68952188125002,40.0,92.0
807,170.47906335000002,170.69334840000002,56.0,88.0
808,170.17294185000003,170.69462390625003,47.0,84.0
809,170.47906335000002,170.72906257500003,59.0,93.0
810,171.09130635000002,171.1448776125,58.0,78.0
811,171.09130635000002,171.290285325,56.0,81.0
812,171.09130635000002,171.47906025,61.0,90.0
813,171.09130635000002,171.74309004375002,49.0,91.0
814,171.39742785,171.7520185875,56.0,94.0
815,171.70354935,171.86681415,61.0,91.0
816,171.8566101,172.04666053125,56.0,72.0
817,171.70354935,172.10660932500002,64.0,92.0
818,172.92803535000002,172.99436167500002,61.0,68.0
819,172.31579235,173.22522830625002,42.0,92.0
820,172.62191385000003,173.25073843125003,49.0,93.0
821,172.92803535000002,173.32471779375,54.0,94.0
822,173.23415685,173.38594209375,57.0,97.0
823,173.54027835000002,173.71374720000003,56.0,91.0
824,173.54027835000002,173.89614459375002,61.0,91.0
825,173.84639985,174.25073533125,56.0,92.0
826,173.54027835000002,174.34129627500002,49.0,99.0
827,174.15252135000003,174.50711208750002,64.0,96.0
828,174.15252135000003,174.637213725,61.0,101.0
829,174.45864285000002,174.65379530625,56.0,90.0
830,174.76476435,175.15379375625002,59.0,90.0
831,174.76476435,175.17420185625002,56.0,92.0
832,174.76476435,175.4484357,44.0,92.0
833,175.07088585000002,175.4484357,51.0,88.0
834,175.37700735,175.57598632500003,59.0,101.0
835,175.37700735,175.6321086,56.0,92.0
836,175.37700735,175.69843492500002,63.0,96.0
837,175.98925035000002,176.63338100625,54.0,90.0
838,175.98925035000002,176.66016663750003,61.0,90.0
839,176.29537185,176.76093163125,49.0,90.0
840,175.98925035000002,176.79026827500002,42.0,92.0
841,176.60149335000003,176.95353307500002,57.0,94.0
842,176.90761485000002,177.065777625,54.0,94.0
843,177.21373635,177.62827588125,59.0,93.0
844,177.21373635,177.65888803125003,56.0,94.0
845,177.51985785000002,177.86169352500002,51.0,92.0
846,177.21373635,177.89868320625,44.0,93.0
847,177.82597935,178.1703660375,63.0,99.0
848,177.82597935,178.33235533125003,59.0,97.0
849,178.43822235000002,178.77878251875,54.0,94.0
850,178.43822235000002,178.85403738750003,59.0,92.0
851,178.74434385,179.12827123125,42.0,86.0
852,179.05046535000002,179.1448528125,54.0,91.0
853,178.43822235000002,179.15888338125,35.0,91.0
854,179.35658685,179.535157725,54.0,91.0
855,179.05046535000002,179.5632188625,59.0,99.0
856,179.05046535000002,179.58745348125,63.0,94.0
857,179.66270835000003,179.83745270625002,56.0,94.0
858,179.66270835000003,180.07087035,61.0,90.0
859,179.96882985000002,180.34255318125003,56.0,92.0
860,179.66270835000003,180.40505298750003,49.0,96.0
861,180.42801210000002,180.55301171250002,56.0,93.0
862,180.27495135,180.56576677500001,61.0,97.0
863,180.27495135,180.62188905000002,64.0,92.0
864,180.88719435000002,181.33362153750002,54.0,90.0
865,180.88719435000002,181.36806020625002,57.0,84.0
866,180.88719435000002,181.37316223125,61.0,90.0
867,181.49943735000002,181.54790658750002,61.0,79.0
868,181.49943735000002,181.8438240375,57.0,92.0
869,181.19331585,181.95224206875002,49.0,90.0
870,181.80555885,181.98923175000002,54.0,104.0
871,180.88719435000002,182.00836434375003,42.0,91.0
872,182.11168035000003,182.59892373750003,59.0,96.0
873,182.11168035000003,182.66014803750002,54.0,94.0
874,182.72392335,182.79407619375002,54.0,62.0
875,182.72392335,183.10529971875002,59.0,99.0
876,182.72392335,183.12060579375003,63.0,101.0
877,182.11168035000003,183.17672806875,47.0,94.0
878,182.41780185000002,183.20351370000003,51.0,84.0
879,183.03004485000002,183.22264629375002,54.0,101.0
880,183.33616635,183.79024657500003,59.0,96.0
881,183.33616635,183.82213423125,56.0,93.0
882,183.64228785000003,184.0402458,51.0,91.0
883,183.33616635,184.09636807500002,44.0,94.0
884,183.94840935000002,184.32213268125003,63.0,101.0
885,183.94840935000002,184.32978571875003,59.0,101.0
886,184.25453085,184.70988658125,56.0,92.0
887,184.56065235000003,184.95223276875,61.0,91.0
888,184.86677385000002,185.04917124375,56.0,91.0
889,185.17289535,185.33998666875002,56.0,92.0
890,185.17289535,185.52493507500003,64.0,93.0
891,185.47901685000002,185.82467904375002,63.0,104.0
892,185.78513835,186.09508636875003,61.0,104.0
893,186.39738135000002,186.54406456875003,56.0,96.0
894,186.39738135000002,186.7825842375,61.0,104.0
895,186.39738135000002,186.79533930000002,64.0,94.0
896,186.70350285,187.00834884375,56.0,95.0
897,186.09125985000003,187.07595067500003,44.0,90.0
898,184.56065235000003,187.08487921875002,37.0,95.0
899,187.00962435000002,187.08487921875002,37.0,97.0
900,187.00962435000002,187.46625558750003,64.0,90.0
901,187.00962435000002,187.47518413125002,56.0,89.0
902,187.62186735000003,187.9815601125,64.0,96.0
903,187.62186735000003,187.98538663125,61.0,96.0
904,187.92798885000002,188.16905953125,56.0,92.0
905,188.23411035,188.43691584375003,56.0,92.0
906,188.23411035,188.59507861875002,61.0,92.0
907,188.54023185000003,188.70732316875,56.0,94.0
908,187.31574585,188.84252683125,44.0,87.0
909,188.84635335000002,188.97773049375002,56.0,92.0
910,188.84635335000002,189.16905643125003,61.0,94.0
911,188.84635335000002,189.22135218750003,64.0,96.0
912,189.15247485,189.27874996875002,56.0,91.0
913,189.61165710000003,190.00323751875,52.0,91.0
914,190.07083935000003,190.4203280625,57.0,107.0
915,190.2239001,190.46497078125003,52.0,83.0
916,190.83614310000002,191.01343846875002,52.0,86.0
917,190.68308235,191.03384656875002,57.0,93.0
918,190.68308235,191.03639758125001,61.0,91.0
919,189.45859635000002,191.38588629375002,45.0,101.0
920,191.29532535,191.39991686250002,52.0,92.0
921,191.29532535,191.626956975,57.0,104.0
922,191.29532535,191.8029768375,61.0,92.0
923,191.60144685000003,191.81062987500002,52.0,92.0
924,191.90756835000002,192.40246477500003,56.0,91.0
925,191.90756835000002,192.57465811875002,52.0,90.0
926,191.90756835000002,192.73026988125002,40.0,92.0
927,192.51981135000003,192.73409640000003,56.0,88.0
928,192.21368985,192.73537190625,47.0,84.0
929,192.51981135000003,192.769810575,59.0,93.0
930,193.13205435,193.18562561250002,58.0,78.0
931,193.13205435,193.33103332500002,56.0,81.0
932,193.13205435,193.51980825,61.0,90.0
933,193.13205435,193.78383804375002,49.0,91.0
934,193.43817585000002,193.7927665875,56.0,94.0
935,193.74429735,193.90756215000002,61.0,91.0
936,193.89735810000002,194.08740853125002,56.0,72.0
937,193.74429735,194.14735732500003,64.0,92.0
938,194.96878335000002,195.03510967500003,61.0,68.0
939,194.35654035000002,195.26597630625002,42.0,92.0
940,194.66266185,195.29148643125,49.0,93.0
941,194.96878335000002,195.36546579375002,54.0,94.0
942,195.27490485,195.42669009375,57.0,97.0
943,195.58102635000003,195.7544952,56.0,91.0
944,195.58102635000003,195.93689259375003,61.0,91.0
945,195.88714785000002,196.29148333125002,56.0,92.0
946,195.58102635000003,196.38204427500003,49.0,99.0
947,196.19326935,196.54786008750003,64.0,96.0
948,196.19326935,196.67796172500002,61.0,101.0
949,196.49939085000003,196.69454330625,56.0,90.0
950,196.80551235000001,197.19454175625003,59.0,90.0
951,196.80551235000001,197.21494985625003,56.0,92.0
952,196.80551235000001,197.4891837,44.0,92.0
953,197.11163385000003,197.4891837,51.0,88.0
954,197.41775535000002,197.616734325,59.0,101.0
955,197.41775535000002,197.67285660000002,56.0,92.0
956,197.41775535000002,197.73918292500002,63.0,96.0
957,198.02999835000003,198.67412900625,54.0,90.0
958,198.02999835000003,198.7009146375,61.0,90.0
959,198.33611985000002,198.80167963125,49.0,90.0
960,198.02999835000003,198.83101627500002,42.0,92.0
961,198.64224135,198.99428107500003,57.0,94.0
962,198.94836285000002,199.10652562500002,54.0,94.0
963,199.25448435,199.66902388125,59.0,93.0
964,199.25448435,199.69963603125,56.0,94.0
965,199.56060585000003,199.90244152500003,51.0,92.0
966,199.25448435,199.93943120625002,44.0,93.0
967,199.86672735000002,200.2111140375,63.0,99.0
968,199.86672735000002,200.37310333125,59.0,97.0
969,200.47897035000003,200.81953051875,54.0,94.0
970,200.47897035000003,200.8947853875,59.0,92.0
971,200.78509185000001,201.16901923125002,42.0,86.0
972,201.09121335000003,201.1856008125,54.0,91.0
973,200.47897035000003,201.19963138125001,35.0,91.0
974,201.39733485000002,201.575905725,54.0,91.0
975,201.09121335000003,201.60396686250002,59.0,99.0
976,201.09121335000003,201.62820148125002,63.0,94.0
977,201.70345635,201.87820070625003,56.0,94.0
978,201.70345635,202.11161835000001,61.0,90.0
979,202.00957785000003,202.38330118125003,56.0,92.0
980,201.70345635,202.4458009875,49.0,96.0
981,202.46876010000003,202.59375971250003,56.0,93.0
982,202.31569935000002,202.60651477500002,61.0,97.0
983,202.31569935000002,202.66263705000003,64.0,92.0
984,202.92794235000002,203.37436953750003,54.0,90.0
985,202.92794235000002,203.40880820625003,57.0,84.0
986,202.92794235000002,203.41391023125001,61.0,90.0
987,203.54018535000003,203.58865458750003,61.0,79.0
988,203.54018535000003,203.88457203750002,57.0,92.0
989,203.23406385,203.99299006875003,49.0,90.0
990,203.84630685000002,204.02997975000002,54.0,104.0
991,202.92794235000002,204.04911234375,42.0,91.0
992,204.15242835,204.6396717375,59.0,96.0
993,204.15242835,204.70089603750003,54.0,94.0
994,204.76467135000001,204.83482419375002,54.0,62.0
995,204.76467135000001,205.14604771875003,59.0,99.0
996,204.76467135000001,205.16135379375,63.0,101.0
997,204.15242835,205.21747606875002,47.0,94.0
998,204.45854985000003,205.2442617,51.0,84.0
999,205.07079285000003,205.26339429375003,54.0,101.0
1000,205.37691435000002,205.830994575,59.0,96.0
1001,205.37691435000002,205.86288223125,56.0,93.0
1002,205.68303585,206.08099380000002,51.0,91.0
1003,205.37691435000002,206.13711607500002,44.0,94.0
1004,205.98915735000003,206.36288068125003,63.0,101.0
1005,205.98915735000003,206.37053371875,59.0,101.0
1006,206.29527885000002,206.75063458125,56.0,92.0
1007,206.60140035,206.99298076875002,61.0,91.0
1008,206.90752185000002,207.08991924375002,56.0,91.0
1009,207.21364335,207.38073466875002,56.0,92.0
1010,207.21364335,207.565683075,64.0,93.0
1011,207.51976485000003,207.86542704375003,63.0,104.0
1012,207.82588635000002,208.13583436875,61.0,104.0
1013,208.43812935000003,208.58481256875,56.0,96.0
1014,208.43812935000003,208.8233322375,61.0,104.0
1015,208.43812935000003,208.83608730000003,64.0,94.0
1016,208.74425085000001,209.04909684375002,56.0,95.0
1017,208.13200785,209.116698675,44.0,90.0
1018,206.60140035,209.12562721875003,37.0,95.0
1019,209.05037235000003,209.12562721875003,37.0,97.0
1020,209.05037235000003,209.5070035875,64.0,90.0
1021,209.05037235000003,209.51593213125003,56.0,89.0
1022,209.66261535,210.0223081125,64.0,96.0
1023,209.66261535,210.02613463125002,61.0,96.0
1024,209.96873685000003,210.20980753125002,56.0,92.0
1025,210.27485835000002,210.47766384375,56.0,92.0
1026,210.27485835000002,210.63582661875003,61.0,92.0
1027,210.58097985000003,210.74807116875002,56.0,94.0
1028,209.35649385000002,210.88327483125002,44.0,87.0
1029,210.88710135000002,211.01847849375002,56.0,92.0
1030,210.88710135000002,211.20980443125,61.0,94.0
1031,210.88710135000002,211.2621001875,64.0,96.0
1032,211.19322285,211.31949796875003,56.0,91.0
1033,211.6524051,212.04398551875002,52.0,91.0
1034,212.11158735,212.4610760625,57.0,107.0
1035,212.26464810000002,212.50571878125,52.0,83.0
1036,212.87689110000002,213.05418646875003,52.0,86.0
1037,212.72383035000001,213.07459456875003,57.0,93.0
1038,212.72383035000001,213.07714558125002,61.0,91.0
1039,211.49934435000003,213.42663429375003,45.0,101.0
1040,213.33607335000002,213.44066486250003,52.0,92.0
1041,213.33607335000002,213.66770497500002,57.0,104.0
1042,213.33607335000002,213.84372483750002,61.0,92.0
1043,213.64219485,213.85137787500003,52.0,92.0
1044,213.94831635000003,214.443212775,56.0,91.0
1045,213.94831635000003,214.61540611875003,52.0,90.0
1046,213.94831635000003,214.77101788125003,40.0,92.0
1047,214.56055935000003,214.7748444,56.0,88.0
1048,214.25443785000002,214.77611990625002,47.0,84.0
1049,214.56055935000003,214.81055857500002,59.0,93.0
1050,215.17280235,215.22637361250003,58.0,78.0
1051,215.17280235,215.37178132500003,56.0,81.0
1052,215.17280235,215.56055625000002,61.0,90.0
1053,215.17280235,215.82458604375003,49.0,91.0
1054,215.47892385000003,215.83351458750002,56.0,94.0
1055,215.78504535000002,215.94831015000003,61.0,91.0
1056,215.93810610000003,216.12815653125003,56.0,72.0
1057,215.78504535000002,216.188105325,64.0,92.0
1058,217.00953135000003,217.075857675,61.0,68.0
1059,216.39728835000003,217.30672430625003,42.0,92.0
1060,216.70340985,217.33223443125001,49.0,93.0
1061,217.00953135000003,217.40621379375003,54.0,94.0
1062,217.31565285000002,217.46743809375002,57.0,97.0
1063,217.62177435,217.79524320000002,56.0,91.0
1064,217.62177435,217.97764059375,61.0,91.0
1065,217.92789585000003,218.33223133125003,56.0,92.0
1066,217.62177435,218.42279227500003,49.0,99.0
1067,218.23401735000002,218.58860808750003,64.0,96.0
1068,218.23401735000002,218.71870972500002,61.0,101.0
1069,218.54013885000003,218.73529130625002,56.0,90.0
1070,218.84626035000002,219.23528975625,59.0,90.0
1071,218.84626035000002,219.25569785625,56.0,92.0
1072,218.84626035000002,219.52993170000002,44.0,92.0
1073,219.15238185,219.52993170000002,51.0,88.0
1074,219.45850335000003,219.65748232500002,59.0,101.0
1075,219.45850335000003,219.71360460000002,56.0,92.0
1076,219.45850335000003,219.77993092500003,63.0,96.0
1077,220.07074635,220.71487700625002,54.0,90.0
1078,220.07074635,220.7416626375,61.0,90.0
1079,220.37686785000002,220.84242763125002,49.0,90.0
1080,220.07074635,220.87176427500003,42.0,92.0
1081,220.68298935,221.035029075,57.0,94.0
1082,220.98911085000003,221.14727362500003,54.0,94.0
1083,221.29523235000002,221.70977188125002,59.0,93.0
1084,221.29523235000002,221.74038403125002,56.0,94.0
1085,221.60135385,221.943189525,51.0,92.0
1086,221.29523235000002,221.98017920625003,44.0,93.0
1087,221.90747535000003,222.25186203750002,63.0,99.0
1088,221.90747535000003,222.41385133125002,59.0,97.0
1089,222.51971835000003,222.86027851875002,54.0,94.0
1090,222.51971835000003,222.93553338750002,59.0,92.0
1091,222.82583985000002,223.20976723125003,42.0,86.0
1092,223.13196135,223.22634881250002,54.0,91.0
1093,222.51971835000003,223.24037938125002,35.0,91.0
1094,223.43808285000003,223.61665372500002,54.0,91.0
1095,223.13196135,223.64471486250002,59.0,99.0
1096,223.13196135,223.66894948125002,63.0,94.0
1097,223.74420435000002,223.91894870625003,56.0,94.0
1098,223.74420435000002,224.15236635000002,61.0,90.0
1099,224.05032585,224.42404918125,56.0,92.0
1100,223.74420435000002,224.48654898750002,49.0,96.0
1101,224.50950810000003,224.6345077125,56.0,93.0
1102,224.35644735000002,224.64726277500003,61.0,97.0
1103,224.35644735000002,224.70338505,64.0,92.0
1104,224.96869035000003,225.4151175375,54.0,90.0
1105,224.96869035000003,225.44955620625,57.0,84.0
1106,224.96869035000003,225.45465823125002,61.0,90.0
1107,225.58093335,225.6294025875,61.0,79.0
1108,225.58093335,225.92532003750003,57.0,92.0
1109,225.27481185000002,226.03373806875,49.0,90.0
1110,225.88705485000003,226.07072775000003,54.0,104.0
1111,224.96869035000003,226.08986034375002,42.0,91.0
1112,226.19317635000002,226.68041973750002,59.0,96.0
1113,226.19317635000002,226.7416440375,54.0,94.0
1114,226.80541935000002,226.87557219375003,54.0,62.0
1115,226.80541935000002,227.18679571875003,59.0,99.0
1116,226.80541935000002,227.20210179375002,63.0,101.0
1117,226.19317635000002,227.25822406875002,47.0,94.0
1118,226.49929785000003,227.28500970000002,51.0,84.0
1119,227.11154085,227.30414229375003,54.0,101.0
1120,227.41766235000003,227.871742575,59.0,96.0
1121,227.41766235000003,227.90363023125002,56.0,93.0
1122,227.72378385000002,228.12174180000002,51.0,91.0
1123,227.41766235000003,228.17786407500003,44.0,94.0
1124,228.02990535000004,228.40362868125,63.0,101.0
1125,228.02990535000004,228.41128171875002,59.0,101.0
1126,228.33602685000002,228.79138258125002,56.0,92.0
1127,228.64214835,229.03372876875002,61.0,91.0
1128,228.94826985000003,229.13066724375003,56.0,91.0
1129,229.25439135000002,229.42148266875003,56.0,92.0
1130,229.25439135000002,229.60643107500002,64.0,93.0
1131,229.56051285,229.90617504375,63.0,104.0
1132,229.86663435000003,230.17658236875002,61.0,104.0
1133,230.47887735000003,230.62556056875002,56.0,96.0
1134,230.47887735000003,230.86408023750002,61.0,104.0
1135,230.47887735000003,230.8768353,64.0,94.0
1136,230.78499885000002,231.08984484375003,56.0,95.0
1137,230.17275585000002,231.15744667500002,44.0,90.0
1138,228.64214835,231.16637521875003,37.0,95.0
1139,231.09112035,231.48780279375003,64.0,97.0
1140,231.39724185000003,231.75821011875001,56.0,93.0
1141,231.09112035,231.79775081250003,49.0,101.0
1142,231.70336335000002,232.05030105000003,61.0,99.0
1143,232.00948485000004,232.53244241250002,56.0,94.0
1144,232.92784935000003,233.23524635625003,57.0,97.0
1145,232.92784935000003,233.27096053125,61.0,91.0
1146,232.62172785,233.35131742500002,49.0,91.0
1147,232.31560635000002,233.40106216875003,42.0,95.0
1148,233.23397085000002,233.4508069125,54.0,101.0
1149,233.54009235,234.00055010625002,59.0,91.0
1150,233.54009235,234.00820314375002,54.0,99.0
1151,233.54009235,234.31432464375,47.0,99.0
1152,234.15233535000002,234.3385592625,54.0,95.0
1153,233.84621385000003,234.43932425625002,51.0,82.0
1154,234.15233535000002,234.50309956875003,59.0,95.0
1155,234.15233535000002,234.74672126250002,63.0,96.0
1156,234.76457835000002,235.26075028125,56.0,91.0
1157,234.76457835000002,235.27095433125,59.0,92.0
1158,234.76457835000002,235.49671893750002,44.0,90.0
1159,235.07069985,235.53625963125003,51.0,96.0
1160,235.37682135000003,235.72248354375003,63.0,99.0
1161,235.68294285000002,235.97375827500002,56.0,97.0
1162,235.98906435000004,236.60258285625002,45.0,95.0
1163,236.29518585000002,236.62426646250003,52.0,85.0
1164,235.98906435000004,236.64722557500002,61.0,92.0
1165,236.60130735,236.92018391250002,57.0,97.0
1166,236.90742885000003,237.15997908750003,61.0,91.0
1167,237.21355035000002,237.67400810625003,54.0,91.0
1168,237.21355035000002,237.67783462500003,59.0,96.0
1169,237.21355035000002,237.92145631875002,47.0,96.0
1170,237.51967185,237.92528283750002,51.0,90.0
1171,237.82579335000003,238.06686403125002,54.0,92.0
1172,237.82579335000003,238.11533326875002,59.0,96.0
1173,237.82579335000003,238.3487509125,63.0,95.0
1174,238.43803635000003,238.78880056875002,56.0,93.0
1175,238.43803635000003,238.81941271875002,52.0,91.0
1176,239.05027935,239.39466603750003,52.0,97.0
1177,238.43803635000003,239.42145166875002,40.0,91.0
1178,238.74415785000002,239.47502293125,47.0,88.0
1179,239.35640085000003,239.68420595625003,54.0,111.0
1180,239.66252235000002,240.1140515625,56.0,94.0
1181,239.96864385000003,240.41379553125003,51.0,87.0
1182,239.66252235000002,240.72757006875003,44.0,91.0
1183,240.27476535000002,240.73394760000002,56.0,106.0
1184,240.58088685,240.75308019375,51.0,94.0
1185,241.49925135000004,241.99542328125003,54.0,106.0
1186,241.80537285000003,242.00435182500001,57.0,91.0
1187,241.19312985000002,242.30664680625003,49.0,91.0
1188,242.11149435000002,242.54006445000002,61.0,92.0
1189,242.11149435000002,242.62297235625002,54.0,95.0
1190,242.72373735000002,242.78113513125,54.0,79.0
1191,242.41761585000003,242.82067582500002,49.0,91.0
1192,240.88700835000003,242.88062461875003,42.0,94.0
1193,242.72373735000002,242.93547138750003,57.0,90.0
1194,242.72373735000002,242.98776714375003,61.0,94.0
1195,242.72373735000002,243.05026695000004,66.0,91.0
1196,243.02985885,243.19184814375004,42.0,91.0
1197,243.33598035000003,243.79261158750003,59.0,90.0
1198,243.33598035000003,243.8589379125,56.0,90.0
1199,243.94822335000003,244.26837541875003,59.0,95.0
1200,243.94822335000003,244.30536510000002,63.0,94.0
1201,243.64210185000002,244.35255883125004,51.0,90.0
1202,244.25434485000002,244.48648698750003,56.0,92.0
1203,243.33598035000003,244.52985420000002,44.0,88.0
1204,244.56046635,245.21352555,61.0,92.0
1205,244.86658785000003,245.52219806250002,52.0,72.0
1206,244.56046635,245.575769325,49.0,95.0
1207,245.17270935000002,245.78112583125002,64.0,101.0
1208,245.78495235000003,246.40102186875004,61.0,96.0
1209,246.09107385000001,246.53750103750002,52.0,89.0
1210,245.78495235000003,246.57959274375003,45.0,106.0
1211,246.39719535000003,246.71989843125002,57.0,86.0
1212,246.70331685000002,247.00050980625002,61.0,92.0
1213,246.95841810000002,247.14209100000002,54.0,94.0
1214,246.96607113750002,247.31045782500001,59.0,96.0
1215,246.96352012500003,247.32193738125002,47.0,111.0
1216,246.96734664375003,247.32576390000003,63.0,99.0
1217,247.26709061250003,247.351274025,54.0,94.0
1218,247.43290642500003,247.79515020000002,59.0,95.0
1219,247.43545743750002,247.79515020000002,63.0,97.0
1220,247.43163091875002,247.79642570625003,54.0,101.0
1221,247.41504933750002,247.82321133750003,47.0,116.0
1222,247.94821095000003,249.88442943750002,47.0,111.0
1223,247.95713949375002,251.00559943125003,59.0,94.0
1224,247.95331297500002,251.01070145625002,63.0,93.0
1225,247.95458848125003,251.01452797500002,54.0,93.0
1226,250.69947793125002,251.34998611875002,37.0,106.0
1227,251.04131360625001,251.35508814375004,44.0,79.0
1228,251.30279238750003,251.52345496875003,49.0,90.0
1229,251.51197541250002,251.631873,56.0,87.0
1230,251.72626046250002,251.83595400000002,47.0,66.0
1231,251.70457685625001,251.99284126875003,49.0,90.0
1232,251.88824975625002,252.11911638750001,56.0,83.0
1233,252.07574917500003,252.36273808125003,61.0,93.0
1234,252.28875871875002,252.51834984375003,68.0,87.0
1235,253.10635822500004,253.59997914375003,73.0,95.0
1236,253.46094896250003,253.64079534375003,80.0,84.0
1237,253.7976826125,253.88314153125003,73.0,78.0
1238,252.83850191250002,253.90354963125003,68.0,81.0
1239,252.57192110625002,253.90865165625002,61.0,91.0
1240,253.8563559,253.93033526250002,80.0,82.0
1241,253.89717210000003,254.0017636125,85.0,86.0
