,start,end,pitch,velocity
0,8.46658861875,8.664864335416667,72.0,117.0
1,8.72520911875,8.995683058333334,75.0,116.0
2,8.98382961875,10.242449385416666,72.0,120.0
3,11.05279361875,11.281241727083334,67.0,120.0
4,11.311414118750001,11.459043320833334,70.0,112.0
5,11.57003461875,11.716586235416667,72.0,120.0
6,11.828655118750001,12.0064567125,75.0,116.0
7,12.08727561875,12.78555096875,79.0,111.0
8,12.86313711875,13.025852516666667,77.0,111.0
9,13.121757618750001,13.823265725,82.0,105.0
10,13.89761911875,14.011843172916667,79.0,94.0
11,14.15623961875,15.172402666666667,79.0,123.0
12,15.96658311875,16.134686443750002,74.0,114.0
13,16.22520361875,16.435332775,75.0,112.0
14,16.48382411875,16.712272227083336,72.0,120.0
15,16.74244461875,16.905160016666667,74.0,105.0
16,17.001065118750002,17.148694320833332,75.0,116.0
17,17.25968561875,17.44071996875,79.0,105.0
18,17.51830611875,17.73166803125,82.0,112.0
19,17.77692661875,17.918090308333333,79.0,114.0
20,18.03554711875,18.16485736875,82.0,112.0
21,18.294167618750002,19.7650717125,84.0,117.0
22,20.36313161875,20.475200502083336,89.0,111.0
23,20.49244186875,20.60666592291667,87.0,112.0
24,20.621752118750003,21.086191433333333,86.0,117.0
25,21.13899311875,21.3555877875,82.0,116.0
26,21.39761361875,21.88683739791667,79.0,120.0
27,21.914854618750002,22.56787138125,82.0,116.0
28,22.69071611875,23.206879533333336,79.0,92.0
29,22.69071611875,23.23381916875,84.0,100.0
30,76.48378011875,76.58076280625001,75.0,70.0
31,76.48378011875,76.58615073333334,72.0,76.0
32,76.74240061875,76.82429711041667,72.0,51.0
33,76.74240061875,76.84477123333333,75.0,61.0
34,77.00102111875,77.11847792916667,75.0,96.0
35,77.00102111875,77.12171068541667,72.0,89.0
36,77.25964161875001,77.37386567291666,72.0,67.0
37,77.25964161875001,77.38356394166667,75.0,68.0
38,77.51826211875,77.59369309791667,72.0,34.0
39,77.51826211875,77.62709824583334,75.0,46.0
40,77.77688261875001,77.8770980625,72.0,49.0
41,77.77688261875001,77.89110667291666,75.0,52.0
42,78.03550311875,78.13787373333334,72.0,87.0
43,78.03550311875,78.13787373333334,75.0,93.0
44,78.29412361875,78.37602011041668,75.0,79.0
45,78.29412361875,78.39972698958334,72.0,67.0
46,78.55274411875,78.6788216125,74.0,80.0
47,78.81136461875,78.88679559791667,74.0,69.0
48,78.81136461875,78.89326111041667,70.0,63.0
49,79.06998511875,79.16804539166667,70.0,82.0
50,79.06998511875,79.17882124583333,74.0,92.0
51,79.32860561875,79.41050211041667,74.0,73.0
52,79.32860561875,79.42127796458334,70.0,65.0
53,79.58722611875001,79.66050192708333,70.0,38.0
54,79.58722611875001,79.67235536666666,74.0,55.0
55,79.84584661875,79.91912242708334,70.0,54.0
56,79.84584661875,79.92127759791667,74.0,71.0
57,80.10446711875001,80.20683773333333,70.0,85.0
58,80.10446711875001,80.20683773333333,74.0,89.0
59,80.36308761875,80.43851859791667,70.0,70.0
60,80.36308761875,80.44175135416667,74.0,80.0
61,80.62170811875,80.74886319791668,75.0,90.0
62,80.62170811875,80.75748388125,72.0,69.0
63,80.88032861875,80.9676130375,72.0,60.0
64,80.88032861875,80.97084579375,75.0,74.0
65,81.13894911875,81.24455248958334,72.0,82.0
66,81.13894911875,81.25101800208334,75.0,93.0
67,81.39756961875,81.47300059791667,72.0,50.0
68,81.39756961875,81.50963850208333,75.0,72.0
69,81.65619011875,81.72946592708334,72.0,49.0
70,81.65619011875,81.75856073333334,75.0,59.0
71,81.91481061875,81.97515540208333,72.0,41.0
72,81.91481061875,82.01179330625,75.0,54.0
73,82.17343111875,82.26718105,72.0,76.0
74,82.17343111875,82.27472414791667,75.0,77.0
75,82.43205161875001,82.52256879375,75.0,82.0
76,82.43205161875001,82.5322670625,72.0,62.0
77,82.69067211875,82.77256861041667,70.0,72.0
78,82.69067211875,82.77580136666667,74.0,60.0
79,82.94929261875001,83.01287015833334,74.0,66.0
80,82.94929261875001,83.01610291458334,70.0,54.0
81,83.20791311875,83.30597339166667,70.0,90.0
82,83.20791311875,83.32536992916667,74.0,89.0
83,83.46653361875,83.56028355000001,70.0,65.0
84,83.46653361875,83.56674906250001,74.0,78.0
85,83.72515411875,83.79519717083333,70.0,50.0
86,83.72515411875,83.80381785416667,74.0,66.0
87,83.98377461875,84.06567111041667,70.0,74.0
88,83.98377461875,84.06890386666667,74.0,76.0
89,84.24239511875,84.3426105625,70.0,96.0
90,84.24239511875,84.34476573333333,74.0,89.0
91,84.50101561875,84.57967935416667,70.0,90.0
92,84.50101561875,84.59476555,74.0,92.0
93,84.75963611875001,84.88032568541666,72.0,80.0
94,84.75963611875001,84.892179125,75.0,93.0
95,85.01825661875,85.09692035416667,72.0,60.0
96,85.01825661875,85.1055410375,75.0,77.0
97,85.27687711875001,85.38571324583333,72.0,92.0
98,85.27687711875001,85.38786841666666,75.0,102.0
99,85.53549761875,85.62601479375,72.0,66.0
100,85.53549761875,85.6357130625,75.0,79.0
101,85.79411811875,85.88248012291668,72.0,66.0
102,85.79411811875,85.89648873333334,75.0,79.0
103,86.05273861875,86.13463511041667,72.0,66.0
104,86.05273861875,86.1529540625,75.0,82.0
105,86.31135911875,86.40834180625001,75.0,96.0
106,86.31135911875,86.41372973333334,72.0,82.0
107,86.56997961875,86.66696230625,75.0,90.0
108,86.56997961875,86.69066918541667,72.0,71.0
109,86.82860011875,86.9158845375,70.0,82.0
110,86.82860011875,86.92558280625,74.0,80.0
111,87.08722061875001,87.16049642708333,70.0,70.0
112,87.08722061875001,87.16911711041666,74.0,76.0
113,87.34584111875,87.43635829375,70.0,102.0
114,87.34584111875,87.45467724583334,74.0,94.0
115,87.60446161875001,87.69174603750001,70.0,85.0
116,87.60446161875001,87.69497879375001,74.0,82.0
117,87.86308211875,87.94821136666667,70.0,72.0
118,87.86308211875,87.9503665375,74.0,73.0
119,88.12170261875,88.20036635416668,70.0,63.0
120,88.12170261875,88.20898703750001,74.0,71.0
121,88.38032311875,88.49023683125,70.0,93.0
122,88.38032311875,88.49239200208334,74.0,87.0
123,88.63894361875,88.72084011041667,70.0,85.0
124,88.63894361875,88.72946079375001,74.0,82.0
125,88.89756411875,89.01178817291667,75.0,102.0
126,88.89756411875,89.01502092916667,72.0,84.0
127,89.15618461875,89.24993455,72.0,64.0
128,89.15618461875,89.2564000625,75.0,74.0
129,89.41480511875001,89.52902917291667,75.0,105.0
130,89.41480511875001,89.53549468541667,72.0,92.0
131,89.67342561875,89.7607100375,72.0,55.0
132,89.67342561875,89.77040830625,75.0,79.0
133,89.93204611875001,90.0322615625,74.0,80.0
134,89.93204611875001,90.04088224583333,70.0,77.0
135,90.19066661875,90.28441655,70.0,82.0
136,90.19066661875,90.30273550208334,74.0,76.0
137,90.44928711875001,90.54303705000001,70.0,96.0
138,90.44928711875001,90.54950256250001,74.0,89.0
139,90.70790761875,90.81997650208334,70.0,96.0
140,90.70790761875,90.82213167291667,74.0,89.0
141,90.96652811875,91.07859700208334,75.0,99.0
142,90.96652811875,91.09045044166668,72.0,84.0
143,91.22514861875,91.33398474583333,72.0,69.0
144,91.22514861875,91.34583818541667,75.0,93.0
145,91.48376911875,91.5839845625,75.0,99.0
146,91.48376911875,91.59799317291667,72.0,87.0
147,91.74238961875001,91.8296740375,75.0,99.0
148,91.74238961875001,91.85661367291667,72.0,87.0
149,92.00101011875,92.08290661041667,70.0,87.0
150,92.00101011875,92.0882945375,74.0,92.0
151,92.25963061875001,92.35014779375,70.0,74.0
152,92.25963061875001,92.35661330625,74.0,87.0
153,92.51825111875,92.60014761041667,70.0,93.0
154,92.51825111875,92.60876829375,74.0,92.0
155,92.77687161875001,92.88247498958334,70.0,99.0
156,92.77687161875001,92.89109567291668,74.0,94.0
157,93.03549211875,93.13247480625,75.0,70.0
158,93.03549211875,93.13786273333334,72.0,76.0
159,93.29411261875,93.37600911041667,72.0,51.0
160,93.29411261875,93.39648323333334,75.0,61.0
161,93.55273311875,93.67018992916667,75.0,96.0
162,93.55273311875,93.67342268541667,72.0,89.0
163,93.81135361875,93.92557767291667,72.0,67.0
164,93.81135361875,93.93527594166667,75.0,68.0
165,94.06997411875,94.14540509791667,72.0,34.0
166,94.06997411875,94.17881024583333,75.0,46.0
167,94.32859461875,94.4288100625,72.0,49.0
168,94.32859461875,94.44281867291667,75.0,52.0
169,94.58721511875001,94.68958573333333,72.0,87.0
170,94.58721511875001,94.68958573333333,75.0,93.0
171,94.84583561875,94.92773211041667,75.0,79.0
172,94.84583561875,94.95143898958334,72.0,67.0
173,95.10445611875001,95.2305336125,74.0,80.0
174,95.36307661875,95.43850759791667,74.0,69.0
175,95.36307661875,95.44497311041667,70.0,63.0
176,95.62169711875,95.71975739166668,70.0,82.0
177,95.62169711875,95.73053324583334,74.0,92.0
178,95.88031761875,95.96221411041667,74.0,73.0
179,95.88031761875,95.97298996458333,70.0,65.0
180,96.13893811875,96.21221392708334,70.0,38.0
181,96.13893811875,96.22406736666667,74.0,55.0
182,96.39755861875,96.47083442708333,70.0,54.0
183,96.39755861875,96.47298959791667,74.0,71.0
184,96.65617911875,96.75854973333334,70.0,85.0
185,96.65617911875,96.75854973333334,74.0,89.0
186,96.91479961875001,96.99023059791666,70.0,70.0
187,96.91479961875001,96.99346335416666,74.0,80.0
188,97.17342011875,97.30057519791667,75.0,90.0
189,97.17342011875,97.30919588125,72.0,69.0
190,97.43204061875001,97.51932503750001,72.0,60.0
191,97.43204061875001,97.52255779375001,75.0,74.0
192,97.69066111875,97.79626448958334,72.0,82.0
193,97.69066111875,97.80273000208334,75.0,93.0
194,97.94928161875,98.02471259791668,72.0,50.0
195,97.94928161875,98.06135050208334,75.0,72.0
196,98.20790211875,98.28117792708333,72.0,49.0
197,98.20790211875,98.31027273333333,75.0,59.0
198,98.46652261875,98.52686740208334,72.0,41.0
199,98.46652261875,98.56350530625001,75.0,54.0
200,98.72514311875,98.81889305,72.0,76.0
201,98.72514311875,98.82643614791667,75.0,77.0
202,98.98376361875,99.07428079375,75.0,82.0
203,98.98376361875,99.0839790625,72.0,62.0
204,99.24238411875001,99.32428061041666,70.0,72.0
205,99.24238411875001,99.32751336666666,74.0,60.0
206,99.50100461875,99.56458215833334,74.0,66.0
207,99.50100461875,99.56781491458334,70.0,54.0
208,99.75962511875001,99.85768539166666,70.0,90.0
209,99.75962511875001,99.87708192916666,74.0,89.0
210,100.01824561875,100.11199555,70.0,65.0
211,100.01824561875,100.1184610625,74.0,78.0
212,100.27686611875001,100.34690917083334,70.0,50.0
213,100.27686611875001,100.35552985416668,74.0,66.0
214,100.53548661875,100.61738311041667,70.0,74.0
215,100.53548661875,100.62061586666667,74.0,76.0
216,100.79410711875,100.89432256250001,70.0,96.0
217,100.79410711875,100.89647773333334,74.0,89.0
218,101.05272761875,101.13139135416667,70.0,90.0
219,101.05272761875,101.14647755,74.0,92.0
220,101.31134811875,101.43203768541667,72.0,80.0
221,101.31134811875,101.44389112500001,75.0,93.0
222,101.56996861875001,101.64863235416666,72.0,60.0
223,101.56996861875001,101.6572530375,75.0,77.0
224,101.82858911875,101.93742524583334,72.0,92.0
225,101.82858911875,101.93958041666667,75.0,102.0
226,102.08720961875001,102.17772679375,72.0,66.0
227,102.08720961875001,102.1874250625,75.0,79.0
228,102.34583011875,102.43419212291667,72.0,66.0
229,102.34583011875,102.44820073333334,75.0,79.0
230,102.60445061875001,102.68634711041668,72.0,66.0
231,102.60445061875001,102.70466606250001,75.0,82.0
232,102.86307111875,102.96005380625,75.0,96.0
233,102.86307111875,102.96544173333334,72.0,82.0
234,103.12169161875,103.21867430625001,75.0,90.0
235,103.12169161875,103.24238118541668,72.0,71.0
236,103.38031211875,103.4675965375,70.0,82.0
237,103.38031211875,103.47729480625,74.0,80.0
238,103.63893261875,103.71220842708334,70.0,70.0
239,103.63893261875,103.72082911041667,74.0,76.0
240,103.89755311875001,103.98807029375,70.0,102.0
241,103.89755311875001,104.00638924583333,74.0,94.0
242,104.15617361875,104.2434580375,70.0,85.0
243,104.15617361875,104.24669079375,74.0,82.0
244,104.41479411875001,104.49992336666666,70.0,72.0
245,104.41479411875001,104.5020785375,74.0,73.0
246,104.67341461875,104.75207835416667,70.0,63.0
247,104.67341461875,104.7606990375,74.0,71.0
248,104.93203511875001,105.04194883125001,70.0,93.0
249,104.93203511875001,105.04410400208334,74.0,87.0
250,105.19065561875,105.27255211041667,70.0,85.0
251,105.19065561875,105.28117279375,74.0,82.0
252,105.44927611875,105.56350017291668,75.0,102.0
253,105.44927611875,105.56673292916668,72.0,84.0
254,105.70789661875,105.80164655,72.0,64.0
255,105.70789661875,105.8081120625,75.0,74.0
256,105.96651711875,106.08074117291667,75.0,105.0
257,105.96651711875,106.08720668541667,72.0,92.0
258,106.22513761875,106.3124220375,72.0,55.0
259,106.22513761875,106.32212030625,75.0,79.0
260,106.48375811875,106.5839735625,74.0,80.0
261,106.48375811875,106.59259424583334,70.0,77.0
262,106.74237861875001,106.83612855,70.0,82.0
263,106.74237861875001,106.85444750208333,74.0,76.0
264,107.00099911875,107.09474905,70.0,96.0
265,107.00099911875,107.1012145625,74.0,89.0
266,107.25961961875001,107.37168850208334,70.0,96.0
267,107.25961961875001,107.37384367291668,74.0,89.0
268,107.51824011875,107.63030900208334,75.0,99.0
269,107.51824011875,107.64216244166667,72.0,84.0
270,107.77686061875,107.88569674583334,72.0,69.0
271,107.77686061875,107.89755018541668,75.0,93.0
272,108.03548111875,108.1356965625,75.0,99.0
273,108.03548111875,108.14970517291667,72.0,87.0
274,108.29410161875,108.38138603750001,75.0,99.0
275,108.29410161875,108.40832567291667,72.0,87.0
276,108.55272211875,108.63461861041667,70.0,87.0
277,108.55272211875,108.6400065375,74.0,92.0
278,108.81134261875,108.90185979375,70.0,74.0
279,108.81134261875,108.90832530625,74.0,87.0
280,109.06996311875001,109.15185961041666,70.0,93.0
281,109.06996311875001,109.16048029375,74.0,92.0
282,109.32858361875,109.43418698958334,70.0,99.0
283,109.32858361875,109.44280767291667,74.0,94.0
284,130.27684411875,130.37382680625,75.0,70.0
285,130.27684411875,130.37921473333333,72.0,76.0
286,130.53546461875,130.61736111041668,72.0,51.0
287,130.53546461875,130.63783523333333,75.0,61.0
288,130.79408511875002,130.91154192916667,75.0,96.0
289,130.79408511875002,130.91477468541666,72.0,89.0
290,131.05270561875,131.16692967291667,72.0,67.0
291,131.05270561875,131.17662794166668,75.0,68.0
292,131.31132611875,131.38675709791667,72.0,34.0
293,131.31132611875,131.42016224583332,75.0,46.0
294,131.56994661875,131.6701620625,72.0,49.0
295,131.56994661875,131.68417067291668,75.0,52.0
296,131.82856711875002,131.93093773333334,72.0,87.0
297,131.82856711875002,131.93093773333334,75.0,93.0
298,132.08718761875,132.16908411041666,75.0,79.0
299,132.08718761875,132.19279098958333,72.0,67.0
300,132.34580811875,132.47188561250002,74.0,80.0
301,132.60442861875,132.67985959791667,74.0,69.0
302,132.60442861875,132.68632511041667,70.0,63.0
303,132.86304911875,132.96110939166667,70.0,82.0
304,132.86304911875,132.97188524583333,74.0,92.0
305,133.12166961875002,133.20356611041666,74.0,73.0
306,133.12166961875002,133.21434196458333,70.0,65.0
307,133.38029011875,133.45356592708333,70.0,38.0
308,133.38029011875,133.46541936666668,74.0,55.0
309,133.63891061875,133.71218642708334,70.0,54.0
310,133.63891061875,133.71434159791667,74.0,71.0
311,133.89753111875,133.99990173333333,70.0,85.0
312,133.89753111875,133.99990173333333,74.0,89.0
313,134.15615161875002,134.23158259791668,70.0,70.0
314,134.15615161875002,134.23481535416667,74.0,80.0
315,134.41477211875,134.54192719791666,75.0,90.0
316,134.41477211875,134.55054788125,72.0,69.0
317,134.67339261875,134.76067703750002,72.0,60.0
318,134.67339261875,134.76390979375,75.0,74.0
319,134.93201311875,135.03761648958334,72.0,82.0
320,134.93201311875,135.04408200208334,75.0,93.0
321,135.19063361875,135.26606459791668,72.0,50.0
322,135.19063361875,135.30270250208335,75.0,72.0
323,135.44925411875002,135.52252992708333,72.0,49.0
324,135.44925411875002,135.55162473333334,75.0,59.0
325,135.70787461875,135.76821940208333,72.0,41.0
326,135.70787461875,135.80485730625,75.0,54.0
327,135.96649511875,136.06024505,72.0,76.0
328,135.96649511875,136.06778814791667,75.0,77.0
329,136.22511561875,136.31563279375,75.0,82.0
330,136.22511561875,136.3253310625,72.0,62.0
331,136.48373611875002,136.56563261041669,70.0,72.0
332,136.48373611875002,136.56886536666667,74.0,60.0
333,136.74235661875,136.80593415833334,74.0,66.0
334,136.74235661875,136.80916691458333,70.0,54.0
335,137.00097711875,137.09903739166668,70.0,90.0
336,137.00097711875,137.11843392916668,74.0,89.0
337,137.25959761875,137.35334755,70.0,65.0
338,137.25959761875,137.3598130625,74.0,78.0
339,137.51821811875,137.58826117083333,70.0,50.0
340,137.51821811875,137.59688185416667,74.0,66.0
341,137.77683861875,137.85873511041666,70.0,74.0
342,137.77683861875,137.86196786666667,74.0,76.0
343,138.03545911875,138.13567456250001,70.0,96.0
344,138.03545911875,138.13782973333335,74.0,89.0
345,138.29407961875,138.37274335416666,70.0,90.0
346,138.29407961875,138.38782955,74.0,92.0
347,138.55270011875,138.67338968541668,72.0,80.0
348,138.55270011875,138.685243125,75.0,93.0
349,138.81132061875002,138.88998435416667,72.0,60.0
350,138.81132061875002,138.8986050375,75.0,77.0
351,139.06994111875,139.17877724583334,72.0,92.0
352,139.06994111875,139.18093241666668,75.0,102.0
353,139.32856161875,139.41907879375,72.0,66.0
354,139.32856161875,139.42877706250002,75.0,79.0
355,139.58718211875,139.67554412291668,72.0,66.0
356,139.58718211875,139.68955273333333,75.0,79.0
357,139.84580261875,139.92769911041668,72.0,66.0
358,139.84580261875,139.9460180625,75.0,82.0
359,140.10442311875,140.20140580625,75.0,96.0
360,140.10442311875,140.20679373333334,72.0,82.0
361,140.36304361875,140.46002630625,75.0,90.0
362,140.36304361875,140.48373318541667,72.0,71.0
363,140.62166411875,140.7089485375,70.0,82.0
364,140.62166411875,140.71864680625,74.0,80.0
365,140.88028461875,140.95356042708335,70.0,70.0
366,140.88028461875,140.96218111041668,74.0,76.0
367,141.13890511875002,141.22942229375002,70.0,102.0
368,141.13890511875002,141.24774124583334,74.0,94.0
369,141.39752561875,141.4848100375,70.0,85.0
370,141.39752561875,141.48804279375,74.0,82.0
371,141.65614611875,141.74127536666668,70.0,72.0
372,141.65614611875,141.74343053750002,74.0,73.0
373,141.91476661875,141.99343035416666,70.0,63.0
374,141.91476661875,142.0020510375,74.0,71.0
375,142.17338711875001,142.28330083125002,70.0,93.0
376,142.17338711875001,142.28545600208335,74.0,87.0
377,142.43200761875,142.51390411041666,70.0,85.0
378,142.43200761875,142.52252479375,74.0,82.0
379,142.69062811875,142.80485217291667,75.0,102.0
380,142.69062811875,142.80808492916668,72.0,84.0
381,142.94924861875,143.04299855,72.0,64.0
382,142.94924861875,143.0494640625,75.0,74.0
383,143.20786911875,143.32209317291668,75.0,105.0
384,143.20786911875,143.32855868541668,72.0,92.0
385,143.46648961875002,143.5537740375,72.0,55.0
386,143.46648961875002,143.56347230625,75.0,79.0
387,143.72511011875,143.8253255625,74.0,80.0
388,143.72511011875,143.83394624583335,70.0,77.0
389,143.98373061875,144.07748055000002,70.0,82.0
390,143.98373061875,144.09579950208334,74.0,76.0
391,144.24235111875,144.33610105,70.0,96.0
392,144.24235111875,144.3425665625,74.0,89.0
393,144.50097161875001,144.61304050208335,70.0,96.0
394,144.50097161875001,144.61519567291668,74.0,89.0
395,144.75959211875,144.87166100208333,75.0,99.0
396,144.75959211875,144.88351444166668,72.0,84.0
397,145.01821261875,145.12704874583335,72.0,69.0
398,145.01821261875,145.13890218541667,75.0,93.0
399,145.27683311875,145.3770485625,75.0,99.0
400,145.27683311875,145.39105717291667,72.0,87.0
401,145.53545361875,145.6227380375,75.0,99.0
402,145.53545361875,145.64967767291668,72.0,87.0
403,145.79407411875002,145.87597061041666,70.0,87.0
404,145.79407411875002,145.8813585375,74.0,92.0
405,146.05269461875,146.14321179375,70.0,74.0
406,146.05269461875,146.14967730625,74.0,87.0
407,146.31131511875,146.39321161041667,70.0,93.0
408,146.31131511875,146.40183229375,74.0,92.0
409,146.56993561875,146.67553898958334,70.0,99.0
410,146.56993561875,146.68415967291668,74.0,94.0
411,146.82855611875002,146.92553880625002,75.0,70.0
412,146.82855611875002,146.93092673333334,72.0,76.0
413,147.08717661875,147.16907311041666,72.0,51.0
414,147.08717661875,147.18954723333334,75.0,61.0
415,147.34579711875,147.46325392916668,75.0,96.0
416,147.34579711875,147.46648668541667,72.0,89.0
417,147.60441761875,147.71864167291668,72.0,67.0
418,147.60441761875,147.72833994166666,75.0,68.0
419,147.86303811875,147.93846909791668,72.0,34.0
420,147.86303811875,147.97187424583333,75.0,46.0
421,148.12165861875002,148.2218740625,72.0,49.0
422,148.12165861875002,148.23588267291666,75.0,52.0
423,148.38027911875,148.48264973333335,72.0,87.0
424,148.38027911875,148.48264973333335,75.0,93.0
425,148.63889961875,148.72079611041667,75.0,79.0
426,148.63889961875,148.74450298958334,72.0,67.0
427,148.89752011875,149.0235976125,74.0,80.0
428,149.15614061875002,149.23157159791668,74.0,69.0
429,149.15614061875002,149.23803711041668,70.0,63.0
430,149.41476111875,149.51282139166668,70.0,82.0
431,149.41476111875,149.52359724583334,74.0,92.0
432,149.67338161875,149.75527811041667,74.0,73.0
433,149.67338161875,149.76605396458334,70.0,65.0
434,149.93200211875,150.00527792708334,70.0,38.0
435,149.93200211875,150.01713136666666,74.0,55.0
436,150.19062261875,150.26389842708335,70.0,54.0
437,150.19062261875,150.26605359791668,74.0,71.0
438,150.44924311875002,150.55161373333334,70.0,85.0
439,150.44924311875002,150.55161373333334,74.0,89.0
440,150.70786361875,150.78329459791667,70.0,70.0
441,150.70786361875,150.78652735416668,74.0,80.0
442,150.96648411875,151.09363919791667,75.0,90.0
443,150.96648411875,151.10225988125,72.0,69.0
444,151.22510461875,151.3123890375,72.0,60.0
445,151.22510461875,151.31562179375,75.0,74.0
446,151.48372511875002,151.58932848958335,72.0,82.0
447,151.48372511875002,151.59579400208335,75.0,93.0
448,151.74234561875,151.81777659791666,72.0,50.0
449,151.74234561875,151.85441450208333,75.0,72.0
450,152.00096611875,152.07424192708334,72.0,49.0
451,152.00096611875,152.10333673333335,75.0,59.0
452,152.25958661875,152.31993140208334,72.0,41.0
453,152.25958661875,152.35656930625,75.0,54.0
454,152.51820711875,152.61195705,72.0,76.0
455,152.51820711875,152.61950014791668,75.0,77.0
456,152.77682761875002,152.86734479375,75.0,82.0
457,152.77682761875002,152.8770430625,72.0,62.0
458,153.03544811875,153.11734461041667,70.0,72.0
459,153.03544811875,153.12057736666668,74.0,60.0
460,153.29406861875,153.35764615833335,74.0,66.0
461,153.29406861875,153.36087891458334,70.0,54.0
462,153.55268911875,153.65074939166666,70.0,90.0
463,153.55268911875,153.67014592916667,74.0,89.0
464,153.81130961875002,153.90505955,70.0,65.0
465,153.81130961875002,153.9115250625,74.0,78.0
466,154.06993011875,154.13997317083334,70.0,50.0
467,154.06993011875,154.14859385416668,74.0,66.0
468,154.32855061875,154.41044711041667,70.0,74.0
469,154.32855061875,154.41367986666668,74.0,76.0
470,154.58717111875,154.6873865625,70.0,96.0
471,154.58717111875,154.68954173333333,74.0,89.0
472,154.84579161875,154.92445535416667,70.0,90.0
473,154.84579161875,154.93954155,74.0,92.0
474,155.10441211875002,155.22510168541666,72.0,80.0
475,155.10441211875002,155.236955125,75.0,93.0
476,155.36303261875,155.44169635416668,72.0,60.0
477,155.36303261875,155.4503170375,75.0,77.0
478,155.62165311875,155.73048924583333,72.0,92.0
479,155.62165311875,155.73264441666666,75.0,102.0
480,155.88027361875,155.97079079375,72.0,66.0
481,155.88027361875,155.9804890625,75.0,79.0
482,156.13889411875002,156.22725612291669,72.0,66.0
483,156.13889411875002,156.24126473333334,75.0,79.0
484,156.39751461875,156.47941111041666,72.0,66.0
485,156.39751461875,156.4977300625,75.0,82.0
486,156.65613511875,156.75311780625,75.0,96.0
487,156.65613511875,156.75850573333335,72.0,82.0
488,156.91475561875,157.01173830625,75.0,90.0
489,156.91475561875,157.03544518541668,72.0,71.0
490,157.17337611875,157.2606605375,70.0,82.0
491,157.17337611875,157.27035880625002,74.0,80.0
492,157.43199661875002,157.50527242708333,70.0,70.0
493,157.43199661875002,157.51389311041666,74.0,76.0
494,157.69061711875,157.78113429375,70.0,102.0
495,157.69061711875,157.79945324583335,74.0,94.0
496,157.94923761875,158.0365220375,70.0,85.0
497,157.94923761875,158.03975479375,74.0,82.0
498,158.20785811875,158.29298736666667,70.0,72.0
499,158.20785811875,158.2951425375,74.0,73.0
500,158.46647861875002,158.54514235416667,70.0,63.0
501,158.46647861875002,158.5537630375,74.0,71.0
502,158.72509911875,158.83501283125,70.0,93.0
503,158.72509911875,158.83716800208333,74.0,87.0
504,158.98371961875,159.06561611041667,70.0,85.0
505,158.98371961875,159.07423679375,74.0,82.0
506,159.24234011875,159.35656417291668,75.0,102.0
507,159.24234011875,159.35979692916666,72.0,84.0
508,159.50096061875,159.59471055,72.0,64.0
509,159.50096061875,159.6011760625,75.0,74.0
510,159.75958111875002,159.87380517291666,75.0,105.0
511,159.75958111875002,159.88027068541666,72.0,92.0
512,160.01820161875,160.10548603750001,72.0,55.0
513,160.01820161875,160.11518430625,75.0,79.0
514,160.27682211875,160.3770375625,74.0,80.0
515,160.27682211875,160.38565824583333,70.0,77.0
516,160.53544261875,160.62919255,70.0,82.0
517,160.53544261875,160.64751150208335,74.0,76.0
518,160.79406311875002,160.88781305,70.0,96.0
519,160.79406311875002,160.8942785625,74.0,89.0
520,161.05268361875,161.16475250208333,70.0,96.0
521,161.05268361875,161.16690767291666,74.0,89.0
522,161.31130411875,161.42337300208334,75.0,99.0
523,161.31130411875,161.43522644166669,72.0,84.0
524,161.56992461875,161.67876074583333,72.0,69.0
525,161.56992461875,161.69061418541668,75.0,93.0
526,161.82854511875001,161.9287605625,75.0,99.0
527,161.82854511875001,161.94276917291668,72.0,87.0
528,162.08716561875,162.1744500375,75.0,99.0
529,162.08716561875,162.20138967291666,72.0,87.0
530,162.34578611875,162.42768261041667,70.0,87.0
531,162.34578611875,162.43307053750002,74.0,92.0
532,162.60440661875,162.69492379375,70.0,74.0
533,162.60440661875,162.70138930625,74.0,87.0
534,162.60440661875,162.7046220625,67.0,106.0
535,162.73371686875,162.8210012875,70.0,111.0
536,162.86302711875,162.94492361041668,70.0,93.0
537,162.86302711875,162.95354429375,74.0,92.0
538,162.86302711875,162.97509600208335,72.0,117.0
539,162.99233736875001,163.124880375,74.0,114.0
540,163.12164761875002,163.124880375,74.0,94.0
541,163.12164761875002,163.22725098958335,70.0,99.0
542,163.12164761875002,163.24880269791666,75.0,124.0
543,163.25095786875,163.36302675208333,77.0,112.0
544,163.38026811875,164.92983594791667,79.0,109.0
545,164.93199111875,165.04621517291667,82.0,109.0
546,165.19061161875,165.5235855125,77.0,114.0
547,165.70785261875,165.82530942916668,75.0,116.0
548,165.96647311875,166.07854200208334,74.0,117.0
549,166.22509361875,166.36949006458335,75.0,112.0
550,166.48371411875002,166.74017944791666,74.0,117.0
551,166.74233461875,166.96754997083335,77.0,105.0
552,166.87164486875,166.97401548333335,74.0,94.0
553,167.00095511875,167.10332573333335,70.0,112.0
554,167.13026536875,167.27466181458334,67.0,102.0
555,167.25957561875,167.64535119791668,72.0,97.0
556,167.77681661875002,167.87918723333334,72.0,114.0
557,167.90612686875,167.99664404375,75.0,112.0
558,168.03543711875,168.27573866666668,72.0,111.0
559,168.55267811875,168.71539351666667,70.0,112.0
560,168.81129861875002,168.91690198958335,67.0,108.0
561,169.06991911875,169.2606517375,70.0,116.0
562,169.32853961875,169.51819465208334,67.0,117.0
563,169.84578061875,169.99233223541668,63.0,109.0
564,170.10440111875002,170.28759063958333,65.0,114.0
565,170.36302161875,170.46862498958333,63.0,116.0
566,170.54405596875,170.67983173125,66.0,109.0
567,170.63996107083335,170.76065063750002,67.0,102.0
568,170.88026261875,170.99448667291668,70.0,119.0
569,171.13888311875002,171.26819336875002,72.0,120.0
570,171.39750361875,171.56776211458333,70.0,116.0
571,171.65612411875,172.04944279583333,72.0,117.0
572,172.17336511875,172.4287528625,75.0,116.0
573,172.56129586875,172.67013199583334,72.0,108.0
574,172.69060611875,172.88888183541667,75.0,119.0
575,172.94922661875,173.46431244791668,72.0,120.0
576,173.46646761875002,173.6830622875,67.0,120.0
577,173.98370861875,174.09577750208334,70.0,109.0
578,174.24232911875,174.41043244375,72.0,114.0
579,174.50094961875,174.61517367291668,70.0,116.0
580,174.75957011875002,174.83823385416667,72.0,120.0
581,175.01819061875,175.12056123333335,75.0,116.0
582,175.27681111875,175.56237125416666,77.0,114.0
583,175.53543161875,175.62487120833333,75.0,116.0
584,175.79297453333334,175.91043134375002,78.0,116.0
585,176.18198286875,176.27573280000001,75.0,105.0
586,175.81775899791668,176.44383612500002,79.0,117.0
587,176.31129311875,176.4740085166667,72.0,114.0
588,176.56991361875,177.10655115625002,75.0,116.0
589,177.54297325000002,177.70784381875,72.0,117.0
590,177.65611971875,177.74448172291667,75.0,116.0
591,177.81236960416666,177.92120573125,83.0,97.0
592,177.86301611875,178.89534294791667,84.0,105.0
593,179.15611861875,179.366247775,82.0,116.0
594,179.41473911875002,179.65180791041666,84.0,105.0
595,179.65396308125,179.74124750000001,86.0,111.0
596,179.70137683958333,179.91473875208334,87.0,96.0
597,179.93198011875,181.13025510208334,86.0,114.0
598,181.22508261875,181.48370311875001,87.0,116.0
599,181.48370311875001,181.59577200208335,86.0,114.0
600,181.74232361875002,182.57529714583333,82.0,112.0
601,182.81452110833334,182.9168917229167,78.0,119.0
602,182.82637454791669,183.11193468333335,79.0,117.0
603,183.03542611875,183.19167600416668,77.0,99.0
604,183.16473636875,183.30374488750002,75.0,99.0
605,183.29404661875,183.4502965041667,72.0,107.0
606,183.55266711875,183.81990830208335,77.0,117.0
607,183.81128761875001,184.00094265208335,75.0,109.0
608,184.0742184604167,184.137796,78.0,93.0
609,184.06990811875002,184.16689080625,75.0,70.0
610,184.06990811875002,184.17227873333334,72.0,76.0
611,184.08930465625,184.17227873333334,72.0,84.0
612,184.32852861875,184.41042511041667,72.0,51.0
613,184.32852861875,184.43089923333335,75.0,61.0
614,184.58714911875,184.69490766041667,72.0,89.0
615,184.58714911875,184.70460592916666,75.0,96.0
616,184.09469258333334,184.7390886625,79.0,102.0
617,184.84576961875,184.95999367291668,72.0,67.0
618,184.84576961875,184.96969194166667,75.0,68.0
619,185.10439011875002,185.1798210979167,72.0,34.0
620,185.10439011875002,185.21322624583334,75.0,46.0
621,185.36301061875,185.4632260625,72.0,49.0
622,185.36301061875,185.47723467291667,75.0,52.0
623,185.62163111875,185.72400173333335,72.0,87.0
624,185.62163111875,185.72400173333335,75.0,93.0
625,185.88025161875,185.96214811041668,75.0,79.0
626,185.88025161875,185.98585498958334,72.0,67.0
627,186.13887211875002,186.2649496125,74.0,80.0
628,186.39749261875,186.47292359791666,74.0,69.0
629,186.39749261875,186.47938911041666,70.0,63.0
630,186.65611311875,186.75417339166668,70.0,82.0
631,186.65611311875,186.76494924583335,74.0,92.0
632,186.91473361875,186.99663011041667,74.0,73.0
633,186.91473361875,187.00740596458334,70.0,65.0
634,187.17335411875,187.24662992708335,70.0,38.0
635,187.17335411875,187.25848336666667,74.0,55.0
636,187.43197461875002,187.50525042708335,70.0,54.0
637,187.43197461875002,187.5074055979167,74.0,71.0
638,187.69059511875,187.79296573333335,70.0,85.0
639,187.69059511875,187.79296573333335,74.0,89.0
640,187.94921561875,188.02464659791667,70.0,70.0
641,187.94921561875,188.02787935416669,74.0,80.0
642,188.20783611875,188.33499119791668,75.0,90.0
643,188.20783611875,188.34361188125,72.0,69.0
644,188.46645661875002,188.5537410375,72.0,60.0
645,188.46645661875002,188.55697379375002,75.0,74.0
646,188.72507711875,188.83068048958333,72.0,82.0
647,188.72507711875,188.83714600208333,75.0,93.0
648,188.98369761875,189.05912859791667,72.0,50.0
649,188.98369761875,189.09576650208334,75.0,72.0
650,189.24231811875,189.31559392708334,72.0,49.0
651,189.24231811875,189.34468873333333,75.0,59.0
652,189.50093861875,189.56128340208335,72.0,41.0
653,189.50093861875,189.59792130625002,75.0,54.0
654,189.75955911875002,189.85330905,72.0,76.0
655,189.75955911875002,189.8608521479167,75.0,77.0
656,190.01817961875,190.10869679375,75.0,82.0
657,190.01817961875,190.1183950625,72.0,62.0
658,190.27680011875,190.35869661041667,70.0,72.0
659,190.27680011875,190.3619293666667,74.0,60.0
660,190.53542061875,190.59899815833333,74.0,66.0
661,190.53542061875,190.60223091458334,70.0,54.0
662,190.79404111875002,190.89210139166667,70.0,90.0
663,190.79404111875002,190.91149792916667,74.0,89.0
664,191.05266161875,191.14641155,70.0,65.0
665,191.05266161875,191.1528770625,74.0,78.0
666,191.31128211875,191.38132517083335,70.0,50.0
667,191.31128211875,191.38994585416668,74.0,66.0
668,191.56990261875,191.65179911041668,70.0,74.0
669,191.56990261875,191.65503186666666,74.0,76.0
670,191.82852311875,191.9287385625,70.0,96.0
671,191.82852311875,191.93089373333333,74.0,89.0
672,192.08714361875002,192.16580735416667,70.0,90.0
673,192.08714361875002,192.18089355,74.0,92.0
674,192.34576411875,192.46645368541667,72.0,80.0
675,192.34576411875,192.47830712500001,75.0,93.0
676,192.60438461875,192.6830483541667,72.0,60.0
677,192.60438461875,192.69166903750002,75.0,77.0
678,192.86300511875,192.97184124583333,72.0,92.0
679,192.86300511875,192.97399641666667,75.0,102.0
680,193.12162561875002,193.21214279375002,72.0,66.0
681,193.12162561875002,193.2218410625,75.0,79.0
682,193.38024611875,193.46860812291666,72.0,66.0
683,193.38024611875,193.48261673333334,75.0,79.0
684,193.63886661875,193.72076311041667,72.0,66.0
685,193.63886661875,193.73908206250002,75.0,82.0
686,193.89748711875,193.99446980625,75.0,96.0
687,193.89748711875,193.99985773333333,72.0,82.0
688,194.15610761875,194.25309030625002,75.0,90.0
689,194.15610761875,194.27679718541668,72.0,71.0
690,194.41472811875002,194.5020125375,70.0,82.0
691,194.41472811875002,194.51171080625,74.0,80.0
692,194.67334861875,194.74662442708333,70.0,70.0
693,194.67334861875,194.75524511041667,74.0,76.0
694,194.93196911875,195.02248629375,70.0,102.0
695,194.93196911875,195.04080524583335,74.0,94.0
696,195.19058961875,195.2778740375,70.0,85.0
697,195.19058961875,195.28110679375,74.0,82.0
698,195.44921011875002,195.53433936666667,70.0,72.0
699,195.44921011875002,195.5364945375,74.0,73.0
700,195.70783061875,195.78649435416668,70.0,63.0
701,195.70783061875,195.7951150375,74.0,71.0
702,195.96645111875,196.07636483125,70.0,93.0
703,195.96645111875,196.07852000208334,74.0,87.0
704,196.22507161875,196.30696811041668,70.0,85.0
705,196.22507161875,196.31558879375,74.0,82.0
706,196.48369211875,196.59791617291668,75.0,102.0
707,196.48369211875,196.60114892916667,72.0,84.0
708,196.74231261875002,196.83606255,72.0,64.0
709,196.74231261875002,196.8425280625,75.0,74.0
710,197.00093311875,197.11515717291667,75.0,105.0
711,197.00093311875,197.12162268541667,72.0,92.0
712,197.25955361875,197.34683803750002,72.0,55.0
713,197.25955361875,197.35653630625,75.0,79.0
714,197.51817411875,197.6183895625,74.0,80.0
715,197.51817411875,197.62701024583333,70.0,77.0
716,197.77679461875002,197.87054455,70.0,82.0
717,197.77679461875002,197.88886350208335,74.0,76.0
718,198.03541511875,198.12916505,70.0,96.0
719,198.03541511875,198.1356305625,74.0,89.0
720,198.29403561875,198.40610450208334,70.0,96.0
721,198.29403561875,198.40825967291667,74.0,89.0
722,198.55265611875,198.66472500208334,75.0,99.0
723,198.55265611875,198.67657844166666,72.0,84.0
724,198.81127661875001,198.92011274583334,72.0,69.0
725,198.81127661875001,198.93196618541668,75.0,93.0
726,199.06989711875002,199.1701125625,75.0,99.0
727,199.06989711875002,199.18412117291666,72.0,87.0
728,199.32851761875,199.41580203750001,75.0,99.0
729,199.32851761875,199.44274167291667,72.0,87.0
730,199.58713811875,199.66903461041667,70.0,87.0
731,199.58713811875,199.67442253750002,74.0,92.0
732,199.84575861875,199.93627579375,70.0,74.0
733,199.84575861875,199.94274130625,74.0,87.0
734,200.10437911875002,200.1862756104167,70.0,93.0
735,200.10437911875002,200.19489629375002,74.0,92.0
736,200.36299961875,200.46860298958333,70.0,99.0
737,200.36299961875,200.47722367291667,74.0,94.0
738,200.62162011875,200.71860280625,75.0,70.0
739,200.62162011875,200.72399073333335,72.0,76.0
740,200.88024061875,200.96213711041668,72.0,51.0
741,200.88024061875,200.98261123333333,75.0,61.0
742,201.13886111875001,201.25631792916667,75.0,96.0
743,201.13886111875001,201.25955068541668,72.0,89.0
744,201.39748161875002,201.51170567291666,72.0,67.0
745,201.39748161875002,201.52140394166668,75.0,68.0
746,201.65610211875,201.73153309791667,72.0,34.0
747,201.65610211875,201.76493824583335,75.0,46.0
748,201.91472261875,202.01493806250002,72.0,49.0
749,201.91472261875,202.02894667291667,75.0,52.0
750,202.17334311875,202.27571373333333,72.0,87.0
751,202.17334311875,202.27571373333333,75.0,93.0
752,202.43196361875002,202.5138601104167,75.0,79.0
753,202.43196361875002,202.53756698958335,72.0,67.0
754,202.69058411875,202.8166616125,74.0,80.0
755,202.94920461875,203.02463559791667,74.0,69.0
756,202.94920461875,203.03110111041667,70.0,63.0
757,203.20782511875,203.30588539166666,70.0,82.0
758,203.20782511875,203.31666124583333,74.0,92.0
759,203.46644561875002,203.54834211041668,74.0,73.0
760,203.46644561875002,203.55911796458335,70.0,65.0
761,203.72506611875002,203.79834192708333,70.0,38.0
762,203.72506611875002,203.81019536666668,74.0,55.0
763,203.98368661875,204.05696242708333,70.0,54.0
764,203.98368661875,204.05911759791667,74.0,71.0
765,204.24230711875,204.34467773333333,70.0,85.0
766,204.24230711875,204.34467773333333,74.0,89.0
767,204.50092761875,204.57635859791668,70.0,70.0
768,204.50092761875,204.57959135416667,74.0,80.0
769,204.75954811875002,204.8867031979167,75.0,90.0
770,204.75954811875002,204.89532388125002,72.0,69.0
771,205.01816861875,205.1054530375,72.0,60.0
772,205.01816861875,205.10868579375,75.0,74.0
773,205.27678911875,205.38239248958334,72.0,82.0
774,205.27678911875,205.38885800208334,75.0,93.0
775,205.53540961875,205.61084059791668,72.0,50.0
776,205.53540961875,205.64747850208335,75.0,72.0
777,205.79403011875002,205.86730592708335,72.0,49.0
778,205.79403011875002,205.89640073333334,75.0,59.0
779,206.05265061875002,206.11299540208333,72.0,41.0
780,206.05265061875002,206.14963330625,75.0,54.0
781,206.31127111875,206.40502105000002,72.0,76.0
782,206.31127111875,206.41256414791667,75.0,77.0
783,206.56989161875,206.66040879375,75.0,82.0
784,206.56989161875,206.6701070625,72.0,62.0
785,206.82851211875,206.91040861041668,70.0,72.0
786,206.82851211875,206.91364136666667,74.0,60.0
787,207.08713261875002,207.15071015833334,74.0,66.0
788,207.08713261875002,207.15394291458335,70.0,54.0
789,207.34575311875,207.44381339166668,70.0,90.0
790,207.34575311875,207.46320992916668,74.0,89.0
791,207.60437361875,207.69812355000002,70.0,65.0
792,207.60437361875,207.70458906250002,74.0,78.0
793,207.86299411875,207.93303717083333,70.0,50.0
794,207.86299411875,207.94165785416666,74.0,66.0
795,208.12161461875002,208.20351111041668,70.0,74.0
796,208.12161461875002,208.20674386666667,74.0,76.0
797,208.38023511875002,208.4804505625,70.0,96.0
798,208.38023511875002,208.48260573333334,74.0,89.0
799,208.63885561875,208.71751935416668,70.0,90.0
800,208.63885561875,208.73260555000002,74.0,92.0
801,208.89747611875,209.01816568541668,72.0,80.0
802,208.89747611875,209.030019125,75.0,93.0
803,209.15609661875,209.23476035416667,72.0,60.0
804,209.15609661875,209.2433810375,75.0,77.0
805,209.41471711875002,209.52355324583334,72.0,92.0
806,209.41471711875002,209.52570841666667,75.0,102.0
807,209.67333761875,209.76385479375,72.0,66.0
808,209.67333761875,209.7735530625,75.0,79.0
809,209.93195811875,210.02032012291667,72.0,66.0
810,209.93195811875,210.03432873333335,75.0,79.0
811,210.19057861875,210.27247511041668,72.0,66.0
812,210.19057861875,210.2907940625,75.0,82.0
813,210.44919911875002,210.54618180625002,75.0,96.0
814,210.44919911875002,210.55156973333334,72.0,82.0
815,210.70781961875,210.80480230625,75.0,90.0
816,210.70781961875,210.82850918541666,72.0,71.0
817,210.96644011875,211.05372453750002,70.0,82.0
818,210.96644011875,211.06342280625,74.0,80.0
819,211.22506061875,211.29833642708334,70.0,70.0
820,211.22506061875,211.30695711041668,74.0,76.0
821,211.48368111875,211.57419829375002,70.0,102.0
822,211.48368111875,211.59251724583333,74.0,94.0
823,211.74230161875002,211.8295860375,70.0,85.0
824,211.74230161875002,211.83281879375002,74.0,82.0
825,212.00092211875,212.08605136666668,70.0,72.0
826,212.00092211875,212.0882065375,74.0,73.0
827,212.25954261875,212.3382063541667,70.0,63.0
828,212.25954261875,212.34682703750002,74.0,71.0
829,212.51816311875,212.62807683125,70.0,93.0
830,212.51816311875,212.63023200208335,74.0,87.0
831,212.77678361875002,212.85868011041669,70.0,85.0
832,212.77678361875002,212.86730079375002,74.0,82.0
833,213.03540411875,213.14962817291666,75.0,102.0
834,213.03540411875,213.15286092916668,72.0,84.0
835,213.29402461875,213.38777455000002,72.0,64.0
836,213.29402461875,213.39424006250002,75.0,74.0
837,213.55264511875,213.66686917291668,75.0,105.0
838,213.55264511875,213.67333468541668,72.0,92.0
839,213.81126561875,213.8985500375,72.0,55.0
840,213.81126561875,213.90824830625002,75.0,79.0
841,214.06988611875002,214.1701015625,74.0,80.0
842,214.06988611875002,214.17872224583334,70.0,77.0
843,214.32850661875,214.42225655000001,70.0,82.0
844,214.32850661875,214.44057550208333,74.0,76.0
845,214.58712711875,214.68087705000002,70.0,96.0
846,214.58712711875,214.68734256250002,74.0,89.0
847,214.84574761875,214.95781650208335,70.0,96.0
848,214.84574761875,214.95997167291668,74.0,89.0
849,215.10436811875002,215.21643700208335,75.0,99.0
850,215.10436811875002,215.22829044166667,72.0,84.0
851,215.36298861875,215.47182474583335,72.0,69.0
852,215.36298861875,215.48367818541666,75.0,93.0
853,215.62160911875,215.72182456250002,75.0,99.0
854,215.62160911875,215.73583317291667,72.0,87.0
855,215.88022961875,215.9675140375,75.0,99.0
856,215.88022961875,215.99445367291668,72.0,87.0
857,216.13885011875,216.22074661041668,70.0,87.0
858,216.13885011875,216.2261345375,74.0,92.0
859,216.39747061875002,216.48798779375002,70.0,74.0
860,216.39747061875002,216.49445330625,74.0,87.0
861,216.65609111875,216.73798761041667,70.0,93.0
862,216.65609111875,216.74660829375,74.0,92.0
863,216.91471161875,217.02031498958334,70.0,99.0
864,216.91471161875,217.02893567291667,74.0,94.0
865,217.17333211875,217.28755617291668,75.0,102.0
866,217.17333211875,217.29078892916667,72.0,84.0
867,217.43195261875002,217.52570255,72.0,64.0
868,217.43195261875002,217.5321680625,75.0,74.0
869,217.69057311875,217.80479717291666,75.0,105.0
870,217.69057311875,217.81126268541666,72.0,92.0
871,217.94919361875,218.03647803750002,72.0,55.0
872,217.94919361875,218.04617630625,75.0,79.0
873,218.20781411875,218.3080295625,74.0,80.0
874,218.20781411875,218.31665024583333,70.0,77.0
875,218.46643461875001,218.56018455,70.0,82.0
876,218.46643461875001,218.57850350208335,74.0,76.0
877,218.72505511875002,218.81880505,70.0,96.0
878,218.72505511875002,218.8252705625,74.0,89.0
879,218.98367561875,219.09574450208333,70.0,96.0
880,218.98367561875,219.09789967291667,74.0,89.0
881,219.24229611875,219.35436500208334,75.0,99.0
882,219.24229611875,219.3662184416667,72.0,84.0
883,219.50091661875,219.60975274583333,72.0,69.0
884,219.50091661875,219.62160618541668,75.0,93.0
885,219.75953711875002,219.8597525625,75.0,99.0
886,219.75953711875002,219.8737611729167,72.0,87.0
887,220.01815761875,220.1054420375,75.0,99.0
888,220.01815761875,220.13238167291667,72.0,87.0
889,220.27677811875,220.35867461041667,70.0,87.0
890,220.27677811875,220.36406253750002,74.0,92.0
891,220.53539861875,220.62591579375,70.0,74.0
892,220.53539861875,220.63238130625,74.0,87.0
893,220.79401911875001,220.87591561041668,70.0,93.0
894,220.79401911875001,220.88453629375002,74.0,92.0
895,221.05263961875002,221.15824298958333,70.0,99.0
896,221.05263961875002,221.16686367291666,74.0,94.0
897,221.31126011875,221.42548417291667,75.0,102.0
898,221.31126011875,221.42871692916668,72.0,84.0
899,221.56988061875,221.66363055000002,72.0,64.0
900,221.56988061875,221.67009606250002,75.0,74.0
901,221.82850111875,221.94272517291668,75.0,105.0
902,221.82850111875,221.94919068541668,72.0,92.0
903,222.08712161875002,222.1744060375,72.0,55.0
904,222.08712161875002,222.18410430625002,75.0,79.0
905,222.34574211875,222.4459575625,74.0,80.0
906,222.34574211875,222.45457824583335,70.0,77.0
907,222.60436261875,222.69811255000002,70.0,82.0
908,222.60436261875,222.71643150208334,74.0,76.0
909,222.86298311875,222.95673305,70.0,96.0
910,222.86298311875,222.9631985625,74.0,89.0
911,223.12160361875002,223.23367250208335,70.0,96.0
912,223.12160361875002,223.23582767291668,74.0,89.0
913,223.38022411875002,223.49229300208333,65.0,99.0
914,223.38022411875002,223.50414644166668,72.0,84.0
