,start,end,pitch,velocity
0,2.00107611875,2.606679122916667,63.0,102.0
1,3.03555811875,3.3329716937500002,62.0,108.0
2,3.4234888687500002,3.52047155625,63.0,109.0
3,3.5527991187500003,3.6702559291666668,62.0,111.0
4,3.81141961875,6.04848694375,60.0,114.0
5,23.207957118750002,23.465500033333335,67.0,105.0
6,23.46657761875,23.724120533333334,67.0,108.0
7,23.72519811875,24.241361533333333,67.0,102.0
8,24.24243911875,24.499982033333335,67.0,92.0
9,24.501059618750002,24.758602533333335,67.0,108.0
10,24.75968011875,25.27692111875,67.0,100.0
11,25.27692111875,25.535541618750003,65.0,108.0
12,25.535541618750003,25.794162118750002,63.0,109.0
13,25.794162118750002,26.31140311875,62.0,111.0
14,26.31140311875,27.34588511875,60.0,111.0
15,27.34588511875,27.603428033333334,67.0,108.0
16,27.60450561875,27.862048533333333,67.0,105.0
17,27.86312611875,28.379289533333335,67.0,111.0
18,28.38036711875,28.637910033333334,67.0,108.0
19,28.63898761875,28.89760811875,67.0,102.0
20,28.89760811875,29.414849118750002,70.0,112.0
21,29.414849118750002,29.67346961875,68.0,109.0
22,29.67346961875,29.93209011875,67.0,111.0
23,29.93209011875,30.449331118750003,65.0,117.0
24,30.449331118750003,31.48381311875,63.0,112.0
25,31.48381311875,31.741356033333336,67.0,105.0
26,31.742433618750002,31.999976533333335,67.0,102.0
27,32.00105411875,32.51721753333334,67.0,105.0
28,32.518295118750004,32.775838033333336,67.0,108.0
29,32.77691561875,33.034458533333336,67.0,102.0
30,33.03553611875,33.55277711875,67.0,105.0
31,33.55277711875,33.81139761875,65.0,105.0
32,33.81139761875,34.07001811875,63.0,99.0
33,34.07001811875,34.58725911875,62.0,102.0
34,34.58725911875,35.10450011875,60.0,114.0
35,35.10450011875,35.620663533333335,63.0,109.0
36,35.62174111875,35.88036161875,63.0,112.0
37,35.88036161875,36.13898211875,60.0,108.0
38,36.13898211875,36.65514553333333,63.0,112.0
39,36.65622311875,37.17238653333334,63.0,116.0
40,37.173464118750005,37.689627533333336,63.0,109.0
41,37.69070511875,37.94932561875,63.0,112.0
42,37.94932561875,38.20794611875,67.0,105.0
43,38.20794611875,39.24242811875,65.0,114.0
44,39.24242811875,39.49997103333334,67.0,100.0
45,39.501048618750005,39.75859153333334,67.0,108.0
46,39.759669118750004,40.01721203333334,67.0,108.0
47,40.01828961875,40.275832533333336,67.0,114.0
48,40.27691011875,40.534453033333335,67.0,111.0
49,40.53553061875,40.793073533333335,67.0,108.0
50,40.79415111875,41.051694033333334,67.0,117.0
51,41.05277161875,41.31031453333333,67.0,111.0
52,41.31139211875,41.56893503333333,67.0,111.0
53,41.57001261875,41.82755553333333,67.0,111.0
54,41.82863311875,42.087253618750005,67.0,111.0
55,42.087253618750005,42.34479653333334,65.0,114.0
56,42.345874118750004,43.38035611875,65.0,111.0
57,43.38035611875,43.63789903333333,67.0,84.0
58,43.63897661875,43.89651953333333,67.0,105.0
59,43.89759711875,44.15514003333333,67.0,100.0
60,44.15621761875,44.41376053333334,67.0,102.0
61,44.414838118750005,44.67238103333334,67.0,102.0
62,44.673458618750004,44.93100153333334,67.0,100.0
63,44.93207911875,45.189622033333336,67.0,105.0
64,45.19069961875,45.44932011875,67.0,102.0
65,45.44932011875,45.706863033333335,70.0,112.0
66,45.70794061875,45.96656111875,70.0,102.0
67,45.96656111875,46.22518161875,68.0,109.0
68,46.22518161875,46.48380211875,67.0,111.0
69,46.48380211875,47.51828411875,65.0,117.0
70,47.51828411875,47.775827033333336,67.0,73.0
71,47.77690461875,48.034447533333335,67.0,100.0
72,48.03552511875,48.293068033333334,67.0,100.0
73,48.29414561875,48.55168853333333,67.0,102.0
74,48.55276611875,48.81030903333333,67.0,102.0
75,48.81138661875,49.06892953333333,67.0,100.0
76,49.07000711875,49.32755003333334,67.0,102.0
77,49.328627618750005,49.58617053333334,67.0,97.0
78,49.587248118750004,50.103411533333336,67.0,102.0
79,50.10448911875,50.36310961875,67.0,102.0
80,50.36310961875,50.620652533333335,65.0,108.0
81,50.62173011875,51.656212118750005,65.0,114.0
82,51.656212118750005,52.17237553333334,63.0,112.0
83,52.173453118750004,52.689616533333336,63.0,112.0
84,52.69069411875,53.206857533333334,63.0,112.0
85,53.20793511875,53.72409853333333,63.0,112.0
86,53.72517611875,53.98271903333333,63.0,109.0
87,53.98379661875,54.24133953333334,63.0,109.0
88,54.242417118750005,54.501037618750004,63.0,109.0
89,54.501037618750004,54.75965811875,67.0,100.0
90,54.75965811875,55.79414011875,65.0,108.0
91,55.79414011875,56.05168303333333,67.0,102.0
92,56.05276061875,56.31030353333333,67.0,100.0
93,56.31138111875,56.56892403333334,67.0,97.0
94,56.570001618750005,56.82754453333334,67.0,97.0
95,56.828622118750005,57.08616503333334,67.0,102.0
96,57.087242618750004,57.34478553333334,67.0,102.0
97,57.34586311875,57.603406033333336,67.0,105.0
98,57.60448361875,57.862026533333335,67.0,102.0
99,57.86310411875,58.120647033333334,67.0,102.0
100,58.12172461875,58.37926753333333,67.0,102.0
101,58.38034511875,58.63896561875,67.0,111.0
102,58.63896561875,58.89650853333334,65.0,111.0
103,58.897586118750006,59.93206811875,65.0,111.0
104,59.93206811875,60.189611033333335,67.0,97.0
105,60.19068861875,60.448231533333335,67.0,97.0
106,60.44930911875,60.706852033333334,67.0,105.0
107,60.70792961875,60.96547253333333,67.0,111.0
108,60.96655011875,61.22409303333333,67.0,105.0
109,61.22517061875,61.48271353333334,67.0,102.0
110,61.483791118750005,61.74133403333334,67.0,102.0
111,61.742411618750005,62.001032118750004,67.0,97.0
112,62.001032118750004,62.38788528333333,70.0,109.0
113,62.38896286875,62.51827311875,70.0,99.0
114,62.51827311875,62.77689361875,68.0,105.0
115,62.77689361875,63.03551411875,67.0,108.0
116,63.03551411875,64.06999611875,65.0,114.0
117,64.06999611875,64.32753903333334,67.0,58.0
118,64.32861661875,64.58615953333333,67.0,105.0
119,64.58723711875,64.84478003333334,67.0,97.0
120,64.84585761875,65.10340053333334,67.0,105.0
121,65.10447811875001,65.36202103333333,67.0,108.0
122,65.36309861875,65.62064153333334,67.0,105.0
123,65.62171911875001,65.87926203333333,67.0,111.0
124,65.88033961875,66.13788253333334,67.0,102.0
125,66.13896011875,66.39650303333333,67.0,114.0
126,66.39758061875,66.65512353333334,67.0,105.0
127,66.65620111875,66.91482161875,67.0,111.0
128,66.91482161875,67.17344211875,65.0,108.0
129,67.17344211875,67.43206261875001,67.0,114.0
130,67.43206261875001,68.20792411875,65.0,78.0
131,68.20792411875,68.46654461875,63.0,112.0
132,68.46654461875,68.72516511875,60.0,108.0
133,68.72516511875,68.98378561875,63.0,109.0
134,68.98378561875,69.24240611875,60.0,108.0
135,69.24240611875,69.49994903333334,63.0,112.0
136,69.50102661875,69.75856953333333,63.0,97.0
137,69.75964711875,70.01719003333334,63.0,112.0
138,70.01826761875,70.27581053333334,63.0,105.0
139,70.27688811875001,70.53443103333333,63.0,112.0
140,70.53550861875,70.79305153333334,63.0,105.0
141,70.79412911875,71.05274961875,63.0,109.0
142,71.05274961875,71.31137011875,67.0,102.0
143,71.31137011875,75.44929811875001,65.0,105.0
144,75.44929811875001,75.70791861875,67.0,100.0
145,75.70791861875,75.96653911875,65.0,102.0
146,75.96653911875,76.22515961875,63.0,109.0
147,76.22515961875,76.48378011875,62.0,94.0
148,76.48378011875,77.00102111875,63.0,112.0
149,77.00102111875,77.25964161875001,60.0,82.0
150,77.25964161875001,77.51718453333334,63.0,109.0
151,77.51826211875,77.77580503333334,63.0,112.0
152,77.77688261875001,78.03550311875,63.0,109.0
153,78.03550311875,78.29304603333334,65.0,97.0
154,78.29412361875,78.81136461875,65.0,111.0
155,78.81136461875,79.58722611875001,58.0,112.0
156,79.58722611875001,79.84584661875,67.0,108.0
157,79.84584661875,80.10446711875001,65.0,105.0
158,80.10446711875001,80.36308761875,63.0,96.0
159,80.36308761875,80.62170811875,62.0,102.0
160,80.62170811875,81.13894911875,63.0,109.0
161,81.13894911875,81.39756961875,60.0,111.0
162,81.39756961875,81.65511253333334,63.0,109.0
163,81.65619011875,81.91373303333333,63.0,102.0
164,81.91481061875,82.17343111875,63.0,102.0
165,82.17343111875,82.43097403333334,65.0,108.0
166,82.43205161875001,83.72515411875,65.0,111.0
167,83.72515411875,83.98377461875,67.0,108.0
168,83.98377461875,84.24239511875,65.0,105.0
169,84.24239511875,84.50101561875,63.0,112.0
170,84.50101561875,84.75963611875001,62.0,100.0
171,84.75963611875001,85.27687711875001,63.0,109.0
172,85.27687711875001,85.53549761875,60.0,108.0
173,85.53549761875,85.79304053333334,63.0,109.0
174,85.79411811875,86.05166103333333,63.0,109.0
175,86.05273861875,86.31135911875,63.0,105.0
176,86.31135911875,86.56890203333333,65.0,105.0
177,86.56997961875,87.08722061875001,65.0,114.0
178,87.08722061875001,87.86308211875,58.0,109.0
179,87.86308211875,88.12062503333334,62.0,108.0
180,88.12170261875,88.37924553333333,62.0,108.0
181,88.38032311875,88.89756411875,62.0,114.0
182,88.89756411875,89.93204611875001,63.0,109.0
183,89.93204611875001,90.19066661875,62.0,102.0
184,90.19066661875,90.44928711875001,63.0,105.0
185,90.44928711875001,90.70790761875,62.0,108.0
186,90.70790761875,92.00101011875,60.0,117.0
187,92.00101011875,92.25963061875001,67.0,100.0
188,92.25963061875001,92.51825111875,65.0,102.0
189,92.51825111875,92.77687161875001,63.0,109.0
190,92.77687161875001,93.03549211875,62.0,94.0
191,93.03549211875,93.55273311875,63.0,112.0
192,93.55273311875,93.81135361875,60.0,82.0
193,93.81135361875,94.06889653333333,63.0,109.0
194,94.06997411875,94.32751703333334,63.0,112.0
195,94.32859461875,94.58721511875001,63.0,109.0
196,94.58721511875001,94.84475803333333,65.0,97.0
197,94.84583561875,95.36307661875,65.0,111.0
198,95.36307661875,96.13893811875,58.0,112.0
199,96.13893811875,96.39755861875,67.0,108.0
200,96.39755861875,96.65617911875,65.0,105.0
201,96.65617911875,96.91479961875001,63.0,96.0
202,96.91479961875001,97.17342011875,62.0,102.0
203,97.17342011875,97.69066111875,63.0,109.0
204,97.69066111875,97.94928161875,60.0,111.0
205,97.94928161875,98.20682453333333,63.0,109.0
206,98.20790211875,98.46544503333334,63.0,102.0
207,98.46652261875,98.72514311875,63.0,102.0
208,98.72514311875,98.98268603333334,65.0,108.0
209,98.98376361875,100.27686611875001,65.0,111.0
210,100.27686611875001,100.53548661875,67.0,108.0
211,100.53548661875,100.79410711875,65.0,105.0
212,100.79410711875,101.05272761875,63.0,112.0
213,101.05272761875,101.31134811875,62.0,100.0
214,101.31134811875,101.82858911875,63.0,109.0
215,101.82858911875,102.08720961875001,60.0,108.0
216,102.08720961875001,102.34475253333333,63.0,109.0
217,102.34583011875,102.60337303333334,63.0,109.0
218,102.60445061875001,102.86307111875,63.0,105.0
219,102.86307111875,103.12061403333334,65.0,105.0
220,103.12169161875,103.63893261875,65.0,114.0
221,103.63893261875,104.41479411875001,58.0,109.0
222,104.41479411875001,104.67233703333333,62.0,108.0
223,104.67341461875,104.93095753333334,62.0,108.0
224,104.93203511875001,105.18957803333333,62.0,114.0
225,105.19065561875,105.44927611875,62.0,100.0
226,105.44927611875,106.48375811875,63.0,109.0
227,106.48375811875,106.74237861875001,62.0,102.0
228,106.74237861875001,107.00099911875,63.0,105.0
229,107.00099911875,107.25961961875001,62.0,108.0
230,107.25961961875001,109.58720411875001,60.0,117.0
231,109.58720411875001,109.84474703333333,67.0,102.0
232,109.84582461875,110.10336753333334,67.0,100.0
233,110.10444511875001,110.36198803333333,67.0,97.0
234,110.36306561875,110.62060853333334,67.0,97.0
235,110.62168611875,110.87922903333333,67.0,102.0
236,110.88030661875,111.13784953333334,67.0,102.0
237,111.13892711875,111.39647003333334,67.0,105.0
238,111.39754761875001,111.65509053333334,67.0,102.0
239,111.65616811875,111.91371103333334,67.0,102.0
240,111.91478861875001,112.17233153333333,67.0,102.0
241,112.17340911875,112.43202961875001,67.0,111.0
242,112.43202961875001,112.68957253333333,65.0,111.0
243,112.69065011875,113.72513211875001,65.0,111.0
244,113.72513211875001,113.98267503333334,67.0,97.0
245,113.98375261875,114.24129553333334,67.0,97.0
246,114.24237311875001,114.49991603333334,67.0,105.0
247,114.50099361875,114.75853653333334,67.0,111.0
248,114.75961411875001,115.01715703333333,67.0,105.0
249,115.01823461875,115.27577753333334,67.0,102.0
250,115.27685511875,115.53439803333333,67.0,102.0
251,115.53547561875,115.79409611875,67.0,97.0
252,115.79409611875,116.18094928333333,70.0,109.0
253,116.18202686875,116.31133711875,70.0,99.0
254,116.31133711875,116.56995761875001,68.0,105.0
255,116.56995761875001,116.82857811875,67.0,108.0
256,116.82857811875,117.86306011875,65.0,114.0
257,117.86306011875,118.12060303333334,67.0,58.0
258,118.12168061875,118.37922353333333,67.0,105.0
259,118.38030111875,118.63784403333334,67.0,97.0
260,118.63892161875,118.89646453333334,67.0,105.0
261,118.89754211875001,119.15508503333334,67.0,108.0
262,119.15616261875,119.41370553333334,67.0,105.0
263,119.41478311875001,119.67232603333333,67.0,111.0
264,119.67340361875,119.93094653333334,67.0,102.0
265,119.93202411875001,120.18956703333333,67.0,114.0
266,120.19064461875,120.44818753333334,67.0,105.0
267,120.44926511875,120.70788561875,67.0,111.0
268,120.70788561875,120.96650611875,65.0,108.0
269,120.96650611875,121.22512661875001,67.0,114.0
270,121.22512661875001,121.74236761875001,65.0,78.0
271,121.74236761875001,122.00098811875,60.0,100.0
272,122.00098811875,122.25960861875001,63.0,112.0
273,122.25960861875001,122.51822911875,60.0,108.0
274,122.51822911875,122.77684961875,63.0,109.0
275,122.77684961875,123.03547011875,60.0,108.0
276,123.03547011875,123.55163353333334,63.0,112.0
277,123.55271111875001,123.81025403333334,63.0,112.0
278,123.81133161875,124.06887453333334,63.0,105.0
279,124.06995211875001,124.32749503333334,63.0,112.0
280,124.32857261875,124.58611553333334,63.0,105.0
281,124.58719311875001,124.84581361875,63.0,109.0
282,124.84581361875,125.10443411875,67.0,102.0
283,125.10443411875,129.24236211875,65.0,105.0
284,129.24236211875,129.50098261875002,67.0,100.0
285,129.50098261875002,129.75960311875,65.0,102.0
286,129.75960311875,130.01822361875,63.0,109.0
287,130.01822361875,130.27684411875,62.0,94.0
288,130.27684411875,130.79408511875002,63.0,112.0
289,130.79408511875002,131.05270561875,60.0,82.0
290,131.05270561875,131.31024853333335,63.0,109.0
291,131.31132611875,131.56886903333333,63.0,112.0
292,131.56994661875,131.82856711875002,63.0,109.0
293,131.82856711875002,132.08611003333334,65.0,97.0
294,132.08718761875,132.60442861875,65.0,111.0
295,132.60442861875,133.38029011875,58.0,112.0
296,133.38029011875,133.63891061875,67.0,108.0
297,133.63891061875,133.89753111875,65.0,105.0
298,133.89753111875,134.15615161875002,63.0,96.0
299,134.15615161875002,134.41477211875,62.0,102.0
300,134.41477211875,134.93201311875,63.0,109.0
301,134.93201311875,135.19063361875,60.0,111.0
302,135.19063361875,135.44817653333334,63.0,109.0
303,135.44925411875002,135.70679703333334,63.0,102.0
304,135.70787461875,135.96649511875,63.0,102.0
305,135.96649511875,136.22403803333333,65.0,108.0
306,136.22511561875,137.51821811875,65.0,111.0
307,137.51821811875,137.77683861875,67.0,108.0
308,137.77683861875,138.03545911875,65.0,105.0
309,138.03545911875,138.29407961875,63.0,112.0
310,138.29407961875,138.55270011875,62.0,100.0
311,138.55270011875,139.06994111875,63.0,109.0
312,139.06994111875,139.32856161875,60.0,108.0
313,139.32856161875,139.58610453333333,63.0,109.0
314,139.58718211875,139.84472503333333,63.0,109.0
315,139.84580261875,140.10442311875,63.0,105.0
316,140.10442311875,140.36196603333335,65.0,105.0
317,140.36304361875,140.88028461875,65.0,114.0
318,140.88028461875,141.65614611875,58.0,109.0
319,141.65614611875,141.91368903333333,62.0,108.0
320,141.91476661875,142.17230953333333,62.0,108.0
321,142.17338711875001,142.69062811875,62.0,114.0
322,142.69062811875,143.72511011875,63.0,109.0
323,143.72511011875,143.98373061875,62.0,102.0
324,143.98373061875,144.24235111875,63.0,105.0
325,144.24235111875,144.50097161875001,62.0,108.0
326,144.50097161875001,145.79407411875002,60.0,117.0
327,145.79407411875002,146.05269461875,67.0,100.0
328,146.05269461875,146.31131511875,65.0,102.0
329,146.31131511875,146.56993561875,63.0,109.0
330,146.56993561875,146.82855611875002,62.0,94.0
331,146.82855611875002,147.34579711875,63.0,112.0
332,147.34579711875,147.60441761875,60.0,82.0
333,147.60441761875,147.86196053333333,63.0,109.0
334,147.86303811875,148.12058103333334,63.0,112.0
335,148.12165861875002,148.38027911875,63.0,109.0
336,148.38027911875,148.63782203333335,65.0,97.0
337,148.63889961875,149.15614061875002,65.0,111.0
338,149.15614061875002,149.93200211875,58.0,112.0
339,149.93200211875,150.19062261875,67.0,108.0
340,150.19062261875,150.44924311875002,65.0,105.0
341,150.44924311875002,150.70786361875,63.0,96.0
342,150.70786361875,150.96648411875,62.0,102.0
343,150.96648411875,151.48372511875002,63.0,109.0
344,151.48372511875002,151.74234561875,60.0,111.0
345,151.74234561875,151.99988853333335,63.0,109.0
346,152.00096611875,152.25850903333333,63.0,102.0
347,152.25958661875,152.51820711875,63.0,102.0
348,152.51820711875,152.77575003333334,65.0,108.0
349,152.77682761875002,154.06993011875,65.0,111.0
350,154.06993011875,154.32855061875,67.0,108.0
351,154.32855061875,154.58717111875,65.0,105.0
352,154.58717111875,154.84579161875,63.0,112.0
353,154.84579161875,155.10441211875002,62.0,100.0
354,155.10441211875002,155.62165311875,63.0,109.0
355,155.62165311875,155.88027361875,60.0,108.0
356,155.88027361875,156.13781653333334,63.0,109.0
357,156.13889411875002,156.39643703333334,63.0,109.0
358,156.39751461875,156.65613511875,63.0,105.0
359,156.65613511875,156.91367803333333,65.0,105.0
360,156.91475561875,157.43199661875002,65.0,114.0
361,157.43199661875002,158.20785811875,58.0,109.0
362,158.20785811875,158.46540103333334,62.0,108.0
363,158.46647861875002,158.72402153333334,62.0,108.0
364,158.72509911875,158.98264203333335,62.0,114.0
365,158.98371961875,159.24234011875,62.0,100.0
366,159.24234011875,160.27682211875,63.0,109.0
367,160.27682211875,160.53544261875,62.0,102.0
368,160.53544261875,160.79406311875002,63.0,105.0
369,160.79406311875002,161.05268361875,62.0,108.0
370,161.05268361875,162.41367400000001,60.0,117.0
371,183.03542611875,183.29404661875,67.0,100.0
372,183.29404661875,183.55266711875,65.0,102.0
373,183.55266711875,183.81128761875001,63.0,109.0
374,183.81128761875001,184.06990811875002,62.0,94.0
375,184.06990811875002,184.58714911875,63.0,112.0
376,184.58714911875,184.84576961875,60.0,82.0
377,184.84576961875,185.10331253333334,63.0,109.0
378,185.10439011875002,185.36193303333334,63.0,112.0
379,185.36301061875,185.62163111875,63.0,109.0
380,185.62163111875,185.87917403333333,65.0,97.0
381,185.88025161875,186.39749261875,65.0,111.0
382,186.39749261875,187.17335411875,58.0,112.0
383,187.17335411875,187.43197461875002,67.0,108.0
384,187.43197461875002,187.69059511875,65.0,105.0
385,187.69059511875,187.94921561875,63.0,96.0
386,187.94921561875,188.20783611875,62.0,102.0
387,188.20783611875,188.72507711875,63.0,109.0
388,188.72507711875,188.98369761875,60.0,111.0
389,188.98369761875,189.24124053333335,63.0,109.0
390,189.24231811875,189.49986103333333,63.0,102.0
391,189.50093861875,189.75955911875002,63.0,102.0
392,189.75955911875002,190.01710203333334,65.0,108.0
393,190.01817961875,191.31128211875,65.0,111.0
394,191.31128211875,191.56990261875,67.0,108.0
395,191.56990261875,191.82852311875,65.0,105.0
396,191.82852311875,192.08714361875002,63.0,112.0
397,192.08714361875002,192.34576411875,62.0,100.0
398,192.34576411875,192.86300511875,63.0,109.0
399,192.86300511875,193.12162561875002,60.0,108.0
400,193.12162561875002,193.37916853333334,63.0,109.0
401,193.38024611875,193.63778903333335,63.0,109.0
402,193.63886661875,193.89748711875,63.0,105.0
403,193.89748711875,194.15503003333333,65.0,105.0
404,194.15610761875,194.67334861875,65.0,114.0
405,194.67334861875,195.44921011875002,58.0,109.0
406,195.44921011875002,195.70675303333334,62.0,108.0
407,195.70783061875,195.96537353333335,62.0,108.0
408,195.96645111875,196.48369211875,62.0,114.0
409,196.48369211875,197.51817411875,63.0,109.0
410,197.51817411875,197.77679461875002,62.0,102.0
411,197.77679461875002,198.03541511875,63.0,105.0
412,198.03541511875,198.29403561875,62.0,108.0
413,198.29403561875,199.58713811875,60.0,117.0
414,199.58713811875,199.84575861875,67.0,100.0
415,199.84575861875,200.10437911875002,65.0,102.0
416,200.10437911875002,200.36299961875,63.0,109.0
417,200.36299961875,200.62162011875,62.0,94.0
418,200.62162011875,201.13886111875001,63.0,112.0
419,201.13886111875001,201.39748161875002,60.0,82.0
420,201.39748161875002,201.65502453333335,63.0,109.0
421,201.65610211875,201.91364503333335,63.0,112.0
422,201.91472261875,202.17334311875,63.0,109.0
423,202.17334311875,202.43088603333334,65.0,97.0
424,202.43196361875002,202.94920461875,65.0,111.0
425,202.94920461875,203.72506611875002,58.0,112.0
426,203.72506611875002,203.98368661875,67.0,108.0
427,203.98368661875,204.24230711875,65.0,105.0
428,204.24230711875,204.50092761875,63.0,96.0
429,204.50092761875,204.75954811875002,62.0,102.0
430,204.75954811875002,205.27678911875,63.0,109.0
431,205.27678911875,205.53540961875,60.0,111.0
432,205.53540961875,205.79295253333333,63.0,109.0
433,205.79403011875002,206.05157303333334,63.0,102.0
434,206.05265061875002,206.31127111875,63.0,102.0
435,206.31127111875,206.56881403333335,65.0,108.0
436,206.56989161875,207.86299411875,65.0,111.0
437,207.86299411875,208.12161461875002,67.0,108.0
438,208.12161461875002,208.38023511875002,65.0,105.0
439,208.38023511875002,208.63885561875,63.0,112.0
440,208.63885561875,208.89747611875,62.0,100.0
441,208.89747611875,209.41471711875002,63.0,109.0
442,209.41471711875002,209.67333761875,60.0,108.0
443,209.67333761875,209.93088053333335,63.0,109.0
444,209.93195811875,210.18950103333333,63.0,109.0
445,210.19057861875,210.44919911875002,63.0,105.0
446,210.44919911875002,210.70674203333334,65.0,105.0
447,210.70781961875,211.22506061875,65.0,114.0
448,211.22506061875,212.00092211875,58.0,109.0
449,212.00092211875,212.25846503333335,62.0,108.0
450,212.25954261875,212.51708553333333,62.0,108.0
451,212.51816311875,212.77570603333334,62.0,114.0
452,212.77678361875002,213.03540411875,62.0,100.0
453,213.03540411875,214.06988611875002,63.0,109.0
454,214.06988611875002,214.32850661875,62.0,102.0
455,214.32850661875,214.58712711875,63.0,105.0
456,214.58712711875,214.84574761875,62.0,108.0
457,214.84574761875,217.17333211875,60.0,117.0
458,217.17333211875,218.20781411875,63.0,109.0
459,218.20781411875,218.46643461875001,62.0,102.0
460,218.46643461875001,218.72505511875002,63.0,105.0
461,218.72505511875002,218.98367561875,62.0,108.0
462,218.98367561875,221.31126011875,60.0,117.0
463,221.31126011875,222.34574211875,63.0,109.0
464,222.34574211875,222.60436261875,62.0,102.0
465,222.60436261875,222.86298311875,63.0,105.0
466,222.86298311875,223.12160361875002,62.0,108.0
467,223.12160361875002,224.482594,60.0,117.0
