,start,end,pitch,velocity
0,2.00107611875,2.6314635875000003,63.0,105.0
1,2.00107611875,2.6907307854166667,60.0,89.0
2,2.00107611875,2.719825591666667,67.0,97.0
3,2.00107611875,2.8405151583333335,48.0,100.0
4,3.03555811875,3.49137675,62.0,100.0
5,3.03555811875,3.61098873125,58.0,74.0
6,3.03555811875,3.6627128312500004,65.0,89.0
7,3.03555811875,3.7047386625,46.0,105.0
8,3.81141961875,5.67995273125,60.0,82.0
9,3.81141961875,5.703659610416667,56.0,87.0
10,3.81141961875,5.767237150000001,63.0,85.0
11,3.81141961875,5.772625077083333,44.0,102.0
12,6.13900411875,6.239219562500001,63.0,105.0
13,6.13900411875,6.244607489583333,60.0,92.0
14,6.13900411875,6.262926441666667,67.0,100.0
15,6.39762461875,6.4709004270833335,60.0,94.0
16,6.39762461875,6.4709004270833335,63.0,105.0
17,6.39762461875,6.491374550000001,67.0,92.0
18,6.65624511875,6.728443341666667,60.0,111.0
19,6.65624511875,6.731676097916667,63.0,112.0
20,6.65624511875,6.746762293750001,67.0,108.0
21,6.91486561875,6.975210402083333,60.0,84.0
22,6.91486561875,6.9784431583333335,63.0,102.0
23,6.91486561875,6.990296597916667,67.0,84.0
24,7.1734861187500005,7.237063658333334,63.0,102.0
25,7.1734861187500005,7.240296414583334,60.0,89.0
26,7.1734861187500005,7.246761927083334,67.0,89.0
27,7.432106618750001,7.506460012500001,63.0,102.0
28,7.432106618750001,7.517235866666667,60.0,89.0
29,7.432106618750001,7.528011720833334,67.0,92.0
30,6.13900411875,7.693959875,48.0,102.0
31,6.13900411875,7.7025805583333335,55.0,82.0
32,7.69072711875,7.796330489583334,63.0,102.0
33,7.69072711875,7.799563245833333,60.0,100.0
34,7.69072711875,7.817882197916667,67.0,97.0
35,7.94934761875,8.019390670833333,63.0,102.0
36,7.94934761875,8.04633030625,60.0,97.0
37,7.94934761875,8.066804429166668,67.0,92.0
38,8.207968118750001,8.325424929166667,58.0,85.0
39,8.207968118750001,8.328657685416667,62.0,102.0
40,8.207968118750001,8.362062833333333,67.0,92.0
41,8.46658861875,8.551717866666667,62.0,78.0
42,8.46658861875,8.5538730375,58.0,85.0
43,8.46658861875,8.56033855,67.0,69.0
44,8.72520911875,8.803872854166666,58.0,102.0
45,8.72520911875,8.8124935375,62.0,111.0
46,8.72520911875,8.81572629375,67.0,102.0
47,8.98382961875,9.062493354166667,58.0,102.0
48,8.98382961875,9.063570939583334,67.0,87.0
49,8.98382961875,9.068958866666668,62.0,105.0
50,9.24245011875,9.315725927083333,67.0,80.0
51,9.24245011875,9.324346610416667,58.0,90.0
52,9.24245011875,9.3297345375,62.0,92.0
53,9.501070618750001,9.586199866666668,67.0,82.0
54,9.501070618750001,9.59158779375,58.0,93.0
55,9.501070618750001,9.59482055,62.0,100.0
56,9.75969111875,9.85344105,58.0,102.0
57,9.75969111875,9.85344105,67.0,87.0
58,9.75969111875,9.85667380625,62.0,108.0
59,10.018311618750001,10.106673622916666,58.0,96.0
60,10.018311618750001,10.11529430625,62.0,108.0
61,10.018311618750001,10.11529430625,67.0,94.0
62,8.207968118750001,10.190725285416667,46.0,74.0
63,8.207968118750001,10.193958041666667,53.0,80.0
64,10.27693211875,10.377147562500001,63.0,105.0
65,10.27693211875,10.382535489583335,60.0,92.0
66,10.27693211875,10.400854441666667,67.0,100.0
67,10.53555261875,10.608828427083333,60.0,94.0
68,10.53555261875,10.608828427083333,63.0,105.0
69,10.53555261875,10.62930255,67.0,92.0
70,10.79417311875,10.866371341666667,60.0,111.0
71,10.79417311875,10.869604097916667,63.0,112.0
72,10.79417311875,10.884690293750001,67.0,108.0
73,11.05279361875,11.113138402083333,60.0,84.0
74,11.05279361875,11.116371158333333,63.0,102.0
75,11.05279361875,11.128224597916667,67.0,84.0
76,11.311414118750001,11.374991658333334,63.0,102.0
77,11.311414118750001,11.378224414583334,60.0,89.0
78,11.311414118750001,11.384689927083334,67.0,89.0
79,11.57003461875,11.6443880125,63.0,102.0
80,11.57003461875,11.655163866666667,60.0,89.0
81,11.57003461875,11.665939720833334,67.0,92.0
82,10.27693211875,11.831887875,48.0,102.0
83,10.27693211875,11.840508558333333,55.0,82.0
84,11.828655118750001,11.934258489583334,63.0,102.0
85,11.828655118750001,11.937491245833334,60.0,100.0
86,11.828655118750001,11.955810197916668,67.0,97.0
87,12.08727561875,12.157318670833334,63.0,102.0
88,12.08727561875,12.184258306250001,60.0,97.0
89,12.08727561875,12.204732429166667,67.0,92.0
90,12.34589611875,12.463352929166668,58.0,85.0
91,12.34589611875,12.466585685416668,62.0,102.0
92,12.34589611875,12.499990833333333,67.0,92.0
93,12.60451661875,12.689645866666668,62.0,78.0
94,12.60451661875,12.691801037500001,58.0,85.0
95,12.60451661875,12.698266550000001,67.0,69.0
96,12.86313711875,12.941800854166667,58.0,102.0
97,12.86313711875,12.9504215375,62.0,111.0
98,12.86313711875,12.95365429375,67.0,102.0
99,13.121757618750001,13.200421354166668,58.0,102.0
100,13.121757618750001,13.201498939583335,67.0,87.0
101,13.121757618750001,13.206886866666666,62.0,105.0
102,13.38037811875,13.453653927083334,67.0,80.0
103,13.38037811875,13.462274610416667,58.0,90.0
104,13.38037811875,13.4676625375,62.0,92.0
105,13.638998618750001,13.724127866666667,67.0,82.0
106,13.638998618750001,13.72951579375,58.0,93.0
107,13.638998618750001,13.73274855,62.0,100.0
108,13.89761911875,13.991369050000001,58.0,102.0
109,13.89761911875,13.991369050000001,67.0,87.0
110,13.89761911875,13.994601806250001,62.0,108.0
111,14.15623961875,14.244601622916667,58.0,96.0
112,14.15623961875,14.25322230625,62.0,108.0
113,14.15623961875,14.25322230625,67.0,94.0
114,12.34589611875,14.328653285416667,46.0,74.0
115,12.34589611875,14.331886041666667,53.0,80.0
116,14.414860118750001,14.5150755625,63.0,105.0
117,14.414860118750001,14.520463489583333,60.0,92.0
118,14.414860118750001,14.538782441666667,67.0,100.0
119,14.67348061875,14.746756427083334,60.0,94.0
120,14.67348061875,14.746756427083334,63.0,105.0
121,14.67348061875,14.76723055,67.0,92.0
122,14.932101118750001,15.004299341666668,60.0,111.0
123,14.932101118750001,15.007532097916668,63.0,112.0
124,14.932101118750001,15.02261829375,67.0,108.0
125,15.19072161875,15.251066402083334,60.0,84.0
126,15.19072161875,15.254299158333334,63.0,102.0
127,15.19072161875,15.266152597916667,67.0,84.0
128,15.44934211875,15.512919658333335,63.0,102.0
129,15.44934211875,15.516152414583335,60.0,89.0
130,15.44934211875,15.522617927083333,67.0,89.0
131,15.70796261875,15.7823160125,63.0,102.0
132,15.70796261875,15.793091866666668,60.0,89.0
133,15.70796261875,15.803867720833335,67.0,92.0
134,14.414860118750001,15.969815875,48.0,102.0
135,14.414860118750001,15.978436558333334,55.0,82.0
136,15.96658311875,16.072186489583334,63.0,102.0
137,15.96658311875,16.075419245833334,60.0,100.0
138,15.96658311875,16.093738197916668,67.0,97.0
139,16.22520361875,16.295246670833333,63.0,102.0
140,16.22520361875,16.32218630625,60.0,97.0
141,16.22520361875,16.342660429166667,67.0,92.0
142,16.48382411875,16.601280929166666,58.0,85.0
143,16.48382411875,16.604513685416666,62.0,102.0
144,16.48382411875,16.637918833333334,67.0,92.0
145,16.74244461875,16.82757386666667,62.0,78.0
146,16.74244461875,16.8297290375,58.0,85.0
147,16.74244461875,16.836194550000002,67.0,69.0
148,17.001065118750002,17.079728854166667,58.0,102.0
149,17.001065118750002,17.0883495375,62.0,111.0
150,17.001065118750002,17.09158229375,67.0,102.0
151,17.25968561875,17.338349354166667,58.0,102.0
152,17.25968561875,17.339426939583333,67.0,87.0
153,17.25968561875,17.344814866666667,62.0,105.0
154,17.51830611875,17.591581927083332,67.0,80.0
155,17.51830611875,17.600202610416666,58.0,90.0
156,17.51830611875,17.6055905375,62.0,92.0
157,17.77692661875,17.86205586666667,67.0,82.0
158,17.77692661875,17.867443793750002,58.0,93.0
159,17.77692661875,17.870676550000002,62.0,100.0
160,18.03554711875,18.12929705,58.0,102.0
161,18.03554711875,18.12929705,67.0,87.0
162,18.03554711875,18.13252980625,62.0,108.0
163,18.294167618750002,18.382529622916667,58.0,96.0
164,18.294167618750002,18.39115030625,62.0,108.0
165,18.294167618750002,18.39115030625,67.0,94.0
166,16.48382411875,18.466581285416666,46.0,74.0
167,16.48382411875,18.469814041666666,53.0,80.0
168,18.55278811875,18.661624245833334,60.0,102.0
169,18.55278811875,18.670244929166667,56.0,77.0
170,18.55278811875,18.676710441666668,67.0,92.0
171,18.81140861875,18.878218914583336,67.0,78.0
172,18.81140861875,18.896537866666666,60.0,87.0
173,18.81140861875,18.90192579375,56.0,77.0
174,19.07002911875,19.14869285416667,67.0,89.0
175,19.07002911875,19.15515836666667,60.0,100.0
176,19.07002911875,19.160546293750002,56.0,102.0
177,19.32864961875,19.410546110416668,67.0,87.0
178,19.32864961875,19.413778866666668,60.0,100.0
179,19.32864961875,19.41916679375,56.0,102.0
180,19.587270118750002,19.660545927083334,67.0,80.0
181,19.587270118750002,19.665933854166667,60.0,100.0
182,19.587270118750002,19.672399366666667,56.0,96.0
183,19.84589061875,19.924554354166666,60.0,87.0
184,19.84589061875,19.927787110416666,67.0,76.0
185,19.84589061875,19.931019866666666,56.0,85.0
186,20.10451111875,20.18317485416667,60.0,94.0
187,20.10451111875,20.189640366666666,56.0,87.0
188,20.10451111875,20.189640366666666,67.0,82.0
189,20.36313161875,20.45472637916667,60.0,82.0
190,20.36313161875,20.463347062500002,56.0,85.0
191,20.36313161875,20.465502233333336,67.0,82.0
192,20.621752118750003,20.703648610416668,67.0,87.0
193,20.621752118750003,20.706881366666668,56.0,99.0
194,20.621752118750003,20.706881366666668,60.0,105.0
195,20.880372618750002,20.959036354166667,60.0,97.0
196,20.880372618750002,20.965501866666667,56.0,87.0
197,20.880372618750002,20.97088979375,67.0,84.0
198,18.55278811875,21.136837947916668,44.0,65.0
199,18.55278811875,21.15838965625,51.0,85.0
200,21.13899311875,21.241363733333333,60.0,89.0
201,21.13899311875,21.247829245833334,56.0,87.0
202,21.13899311875,21.256449929166667,67.0,84.0
203,21.39761361875,21.47627735416667,60.0,97.0
204,21.39761361875,21.49459630625,56.0,93.0
205,21.39761361875,21.511837672916666,67.0,87.0
206,21.65623411875,21.756449562500002,62.0,89.0
207,21.65623411875,21.765070245833336,58.0,90.0
208,21.65623411875,21.783389197916666,67.0,94.0
209,21.914854618750002,21.996751110416668,58.0,77.0
210,21.914854618750002,21.999983866666668,62.0,89.0
211,21.914854618750002,22.01183730625,67.0,80.0
212,22.17347511875,22.252138854166667,58.0,102.0
213,22.17347511875,22.258604366666667,62.0,105.0
214,22.17347511875,22.26399229375,67.0,97.0
215,22.43209561875,22.5193800375,62.0,105.0
216,22.43209561875,22.5323110625,58.0,99.0
217,22.43209561875,22.537698989583333,67.0,97.0
218,21.65623411875,22.63037133541667,53.0,78.0
219,21.65623411875,22.632526506250002,46.0,79.0
220,22.69071611875,23.06032791666667,60.0,82.0
221,22.69071611875,23.06032791666667,67.0,92.0
222,22.69071611875,23.080802039583336,63.0,74.0
223,23.207957118750002,23.32864668541667,60.0,100.0
224,22.94933661875,23.399767322916667,55.0,80.0
225,22.69071611875,23.4245517875,48.0,100.0
226,23.46657761875,23.730586045833334,60.0,92.0
227,23.207957118750002,23.79739634166667,63.0,112.0
228,23.207957118750002,24.124982308333333,67.0,100.0
229,24.24243911875,24.425628639583334,56.0,105.0
230,23.72519811875,24.432094152083334,44.0,99.0
231,23.98381861875,24.47519756875,51.0,61.0
232,24.501059618750002,24.696102579166666,56.0,99.0
233,24.24243911875,24.728430141666667,63.0,50.0
234,24.24243911875,25.21657633541667,67.0,94.0
235,25.01830061875,25.39437792916667,53.0,87.0
236,25.27692111875,25.469808908333334,58.0,105.0
237,24.75968011875,25.607739841666668,46.0,96.0
238,25.27692111875,25.6098950125,62.0,102.0
239,25.535541618750003,25.70364494375,53.0,73.0
240,25.27692111875,26.210110089583335,67.0,111.0
241,26.05278261875,26.382523756250002,50.0,80.0
242,26.31140311875,26.407308220833336,55.0,97.0
243,25.794162118750002,26.504290908333335,43.0,108.0
244,26.31140311875,26.737049358333334,58.0,105.0
245,26.57002361875,26.771532091666668,55.0,94.0
246,26.31140311875,26.790928629166668,62.0,111.0
247,26.31140311875,27.020454322916667,67.0,82.0
248,27.08726461875,27.441790220833333,55.0,71.0
249,27.34588511875,27.48166088125,60.0,105.0
250,26.828644118750002,27.607738375,48.0,105.0
251,27.34588511875,27.816789945833335,63.0,112.0
252,27.60450561875,27.853427850000003,60.0,97.0
253,28.121746618750002,28.428858462500003,51.0,52.0
254,27.86312611875,28.460108439583333,44.0,105.0
255,28.38036711875,28.485970489583334,56.0,96.0
256,28.38036711875,28.5193756375,60.0,80.0
257,28.38036711875,28.82433231041667,63.0,85.0
258,28.63898761875,28.854504702083336,56.0,105.0
259,27.34588511875,29.148685520833336,67.0,108.0
260,29.414849118750002,29.50536629375,58.0,96.0
261,29.156228618750003,29.596961054166666,53.0,67.0
262,29.414849118750002,29.742435085416666,62.0,102.0
263,28.89760811875,29.766141964583333,46.0,109.0
264,29.67346961875,29.87497809166667,58.0,99.0
265,29.414849118750002,30.335107064583333,67.0,102.0
266,30.449331118750003,30.50105521875,55.0,92.0
267,30.19071061875,30.670236129166668,50.0,78.0
268,29.93209011875,30.74458952291667,43.0,102.0
269,30.449331118750003,30.770451572916667,58.0,109.0
270,30.449331118750003,30.962261777083334,62.0,108.0
271,30.707951618750002,31.008597950000002,55.0,111.0
272,30.449331118750003,31.027994487500003,67.0,92.0
273,30.96657211875,31.027994487500003,67.0,92.0
274,30.96657211875,31.336183916666666,60.0,82.0
275,30.96657211875,31.356658039583333,63.0,74.0
276,31.48381311875,31.60450268541667,60.0,100.0
277,31.22519261875,31.675623322916667,55.0,80.0
278,30.96657211875,31.7004077875,48.0,100.0
279,31.742433618750002,32.00644204583333,60.0,92.0
280,31.48381311875,32.07325234166667,63.0,112.0
281,31.48381311875,32.400838308333334,67.0,100.0
282,32.518295118750004,32.701484639583335,56.0,105.0
283,32.00105411875,32.707950152083335,44.0,99.0
284,32.259674618750005,32.75105356875,51.0,61.0
285,32.77691561875,32.97195857916667,56.0,99.0
286,32.518295118750004,33.00428614166667,63.0,50.0
287,32.518295118750004,33.492432335416666,67.0,94.0
288,33.29415661875,33.67023392916667,53.0,87.0
289,33.55277711875,33.74566490833333,58.0,105.0
290,33.03553611875,33.88359584166667,46.0,96.0
291,33.55277711875,33.8857510125,62.0,102.0
292,33.81139761875,33.979500943750004,53.0,73.0
293,33.55277711875,34.485966089583336,67.0,111.0
294,34.32863861875,34.65837975625,50.0,80.0
295,34.58725911875,34.68316422083333,55.0,97.0
296,34.07001811875,34.780146908333336,43.0,108.0
297,34.58725911875,35.012905358333335,58.0,105.0
298,34.845879618750004,35.04738809166667,55.0,94.0
299,34.58725911875,35.06678462916667,62.0,111.0
300,34.58725911875,35.29631032291667,67.0,82.0
301,35.10450011875,35.470879160416665,53.0,97.0
302,35.10450011875,35.4827326,56.0,105.0
303,35.10450011875,35.49135328333333,60.0,100.0
304,35.36312061875,35.734887587500005,48.0,78.0
305,35.10450011875,35.859887495833334,41.0,100.0
306,35.62174111875,35.924542620833336,56.0,109.0
307,35.88036161875,35.99243050208334,53.0,111.0
308,35.62174111875,35.996740843750004,60.0,117.0
309,36.13898211875,36.53876630833334,55.0,82.0
310,36.13898211875,36.55277491875,62.0,87.0
311,36.65622311875,36.75320580625,55.0,97.0
312,36.39760261875,36.8081626625,50.0,67.0
313,36.13898211875,36.86742986041667,43.0,89.0
314,36.65622311875,36.94609359583333,58.0,105.0
315,36.65622311875,37.0667831625,62.0,108.0
316,36.91484361875,37.07755901666667,55.0,97.0
317,37.173464118750005,37.470877693750005,56.0,112.0
318,37.173464118750005,37.497817329166665,60.0,102.0
319,37.173464118750005,37.797386075,44.0,99.0
320,37.69070511875,37.808161929166666,56.0,112.0
321,37.432084618750004,37.93639459375,51.0,99.0
322,37.69070511875,37.99673937708334,60.0,117.0
323,37.94932561875,38.09695482083333,56.0,90.0
324,38.20794611875,38.46656661875,58.0,105.0
325,38.20794611875,38.520445889583335,62.0,97.0
326,38.46656661875,38.85341978333334,53.0,89.0
327,38.20794611875,38.92777317708334,46.0,96.0
328,38.98380761875,39.14652301666667,53.0,105.0
329,38.72518711875,39.1486781875,58.0,112.0
330,38.72518711875,39.19932470208334,62.0,108.0
331,39.24242811875,39.61203991666667,60.0,82.0
332,39.24242811875,39.61203991666667,67.0,92.0
333,39.24242811875,39.632514039583334,63.0,74.0
334,39.759669118750004,39.88035868541667,60.0,100.0
335,39.501048618750005,39.95147932291667,55.0,80.0
336,39.24242811875,39.9762637875,48.0,100.0
337,40.01828961875,40.282298045833336,60.0,92.0
338,39.759669118750004,40.34910834166667,63.0,112.0
339,39.759669118750004,40.67669430833333,67.0,100.0
340,40.79415111875,40.97734063958333,56.0,105.0
341,40.27691011875,40.98380615208333,44.0,99.0
342,40.53553061875,41.02690956875,51.0,61.0
343,41.05277161875,41.247814579166665,56.0,99.0
344,40.79415111875,41.280142141666666,63.0,50.0
345,40.79415111875,41.76828833541667,67.0,94.0
346,41.57001261875,41.94608992916667,53.0,87.0
347,41.82863311875,42.021520908333336,58.0,105.0
348,41.31139211875,42.159451841666666,46.0,96.0
349,41.82863311875,42.1616070125,62.0,102.0
350,42.087253618750005,42.25535694375,53.0,73.0
351,41.82863311875,42.76182208958333,67.0,111.0
352,42.60449461875,42.934235756250004,50.0,80.0
353,42.86311511875,42.95902022083334,55.0,97.0
354,42.345874118750004,43.05600290833333,43.0,108.0
355,42.86311511875,43.28876135833333,58.0,105.0
356,43.12173561875,43.323244091666666,55.0,94.0
357,42.86311511875,43.34264062916667,62.0,111.0
358,42.86311511875,43.572166322916665,67.0,82.0
359,43.63897661875,43.993502220833335,55.0,71.0
360,43.89759711875,44.03337288125,60.0,105.0
361,43.38035611875,44.159450375,48.0,105.0
362,43.89759711875,44.36850194583334,63.0,112.0
363,44.15621761875,44.405139850000005,60.0,97.0
364,44.673458618750004,44.980570462500005,51.0,52.0
365,44.414838118750005,45.01182043958333,44.0,105.0
366,44.93207911875,45.03768248958333,56.0,96.0
367,44.93207911875,45.0710876375,60.0,80.0
368,44.93207911875,45.37604431041667,63.0,85.0
369,45.19069961875,45.406216702083334,56.0,105.0
370,43.89759711875,45.700397520833334,67.0,108.0
371,45.96656111875,46.05707829375,58.0,96.0
372,45.70794061875,46.14867305416667,53.0,67.0
373,45.96656111875,46.29414708541667,62.0,102.0
374,45.44932011875,46.317853964583335,46.0,109.0
375,46.22518161875,46.42669009166667,58.0,99.0
376,45.96656111875,46.886819064583335,67.0,102.0
377,47.001043118750005,47.05276721875,55.0,92.0
378,46.742422618750005,47.22194812916667,50.0,78.0
379,46.48380211875,47.29630152291667,43.0,102.0
380,47.001043118750005,47.322163572916665,58.0,109.0
381,47.001043118750005,47.513973777083336,62.0,108.0
382,47.259663618750004,47.560309950000004,55.0,111.0
383,47.001043118750005,47.579706487500005,67.0,92.0
384,47.51828411875,47.579706487500005,67.0,92.0
385,47.51828411875,47.88789591666667,60.0,82.0
386,47.51828411875,47.90837003958333,63.0,74.0
387,48.03552511875,48.15621468541667,60.0,100.0
388,47.77690461875,48.227335322916666,55.0,80.0
389,47.51828411875,48.2521197875,48.0,100.0
390,48.29414561875,48.558154045833334,60.0,92.0
391,48.03552511875,48.62496434166667,63.0,112.0
392,48.03552511875,48.952550308333336,67.0,100.0
393,49.07000711875,49.25319663958334,56.0,105.0
394,48.55276611875,49.25966215208334,44.0,99.0
395,48.81138661875,49.302765568750004,51.0,61.0
396,49.328627618750005,49.52367057916667,56.0,99.0
397,49.07000711875,49.55599814166667,63.0,50.0
398,49.07000711875,50.04414433541667,67.0,94.0
399,49.84586861875,50.221945929166665,53.0,87.0
400,50.10448911875,50.297376908333334,58.0,105.0
401,49.587248118750004,50.43530784166667,46.0,96.0
402,50.10448911875,50.437463012500004,62.0,102.0
403,50.36310961875,50.53121294375,53.0,73.0
404,50.10448911875,51.03767808958334,67.0,111.0
405,50.88035061875,51.21009175625,50.0,80.0
406,51.13897111875,51.234876220833335,55.0,97.0
407,50.62173011875,51.33185890833334,43.0,108.0
408,51.13897111875,51.56461735833334,58.0,105.0
409,51.39759161875,51.59910009166667,55.0,94.0
410,51.13897111875,51.61849662916667,62.0,111.0
411,51.13897111875,51.84802232291667,67.0,82.0
412,51.656212118750005,52.02259116041667,53.0,97.0
413,51.656212118750005,52.0344446,56.0,105.0
414,51.656212118750005,52.043065283333334,60.0,100.0
415,51.914832618750005,52.2865995875,48.0,78.0
416,51.656212118750005,52.411599495833336,41.0,100.0
417,52.173453118750004,52.47625462083334,56.0,109.0
418,52.43207361875,52.54414250208333,53.0,111.0
419,52.173453118750004,52.54845284375,60.0,117.0
420,52.69069411875,53.09047830833334,55.0,82.0
421,52.69069411875,53.104486918750005,62.0,87.0
422,53.20793511875,53.30491780625,55.0,97.0
423,52.94931461875,53.359874662500005,50.0,67.0
424,52.69069411875,53.419141860416666,43.0,89.0
425,53.20793511875,53.497805595833334,58.0,105.0
426,53.20793511875,53.618495162500004,62.0,108.0
427,53.46655561875,53.62927101666667,55.0,97.0
428,53.72517611875,54.02258969375,56.0,112.0
429,53.72517611875,54.04952932916667,60.0,102.0
430,53.72517611875,54.349098075,44.0,99.0
431,54.242417118750005,54.35987392916667,56.0,112.0
432,53.98379661875,54.488106593750004,51.0,99.0
433,54.242417118750005,54.54845137708334,60.0,117.0
434,54.501037618750004,54.648666820833334,56.0,90.0
435,54.75965811875,55.01827861875,58.0,105.0
436,54.75965811875,55.07215788958334,62.0,97.0
437,55.01827861875,55.40513178333334,53.0,89.0
438,54.75965811875,55.47948517708333,46.0,96.0
439,55.53551961875,55.69823501666667,53.0,105.0
440,55.27689911875,55.700390187500005,58.0,112.0
441,55.27689911875,55.75103670208333,62.0,108.0
442,55.79414011875,56.16375191666667,60.0,82.0
443,55.79414011875,56.16375191666667,67.0,92.0
444,55.79414011875,56.184226039583336,63.0,74.0
445,56.31138111875,56.43207068541667,60.0,100.0
446,56.05276061875,56.50319132291667,55.0,80.0
447,55.79414011875,56.527975787500004,48.0,100.0
448,56.570001618750005,56.83401004583334,60.0,92.0
449,56.31138111875,56.900820341666666,63.0,112.0
450,56.31138111875,57.228406308333334,67.0,100.0
451,57.34586311875,57.529052639583334,56.0,105.0
452,56.828622118750005,57.535518152083334,44.0,99.0
453,57.087242618750004,57.57862156875,51.0,61.0
454,57.60448361875,57.79952657916667,56.0,99.0
455,57.34586311875,57.83185414166667,63.0,50.0
456,57.34586311875,58.320000335416665,67.0,94.0
457,58.12172461875,58.49780192916667,53.0,87.0
458,58.38034511875,58.57323290833334,58.0,105.0
459,57.86310411875,58.71116384166667,46.0,96.0
460,58.38034511875,58.7133190125,62.0,102.0
461,58.63896561875,58.807068943750004,53.0,73.0
462,58.38034511875,59.313534089583335,67.0,111.0
463,59.156206618750005,59.48594775625,50.0,80.0
464,59.414827118750004,59.51073222083333,55.0,97.0
465,58.897586118750006,59.607714908333335,43.0,108.0
466,59.414827118750004,59.840473358333334,58.0,105.0
467,59.673447618750004,59.87495609166667,55.0,94.0
468,59.414827118750004,59.89435262916667,62.0,111.0
469,59.414827118750004,60.12387832291667,67.0,82.0
470,60.19068861875,60.54521422083334,55.0,71.0
471,60.44930911875,60.585084881250005,60.0,105.0
472,59.93206811875,60.711162375,48.0,105.0
473,60.44930911875,60.92021394583334,63.0,112.0
474,60.70792961875,60.95685185,60.0,97.0
475,61.22517061875,61.5322824625,51.0,52.0
476,60.96655011875,61.563532439583334,44.0,105.0
477,61.483791118750005,61.589394489583334,56.0,96.0
478,61.483791118750005,61.6227996375,60.0,80.0
479,61.483791118750005,61.92775631041667,63.0,85.0
480,61.742411618750005,61.957928702083336,56.0,105.0
481,60.44930911875,62.252109520833336,67.0,108.0
482,62.51827311875,62.608790293750005,58.0,96.0
483,62.25965261875,62.70038505416667,53.0,67.0
484,62.51827311875,62.84585908541667,62.0,102.0
485,62.001032118750004,62.86956596458334,46.0,109.0
486,62.77689361875,62.978402091666666,58.0,99.0
487,62.51827311875,63.43853106458334,67.0,102.0
488,63.55275511875,63.60447921875,55.0,92.0
489,63.29413461875,63.77366012916667,50.0,78.0
490,63.03551411875,63.848013522916666,43.0,102.0
491,63.55275511875,63.87387557291667,58.0,109.0
492,63.55275511875,64.06568577708333,62.0,108.0
493,63.811375618750006,64.11202195,55.0,111.0
494,63.55275511875,64.1314184875,67.0,92.0
495,64.06999611875,64.1314184875,67.0,92.0
496,64.06999611875,64.43960791666667,60.0,82.0
497,64.06999611875,64.46008203958334,63.0,74.0
498,64.58723711875,64.70792668541667,60.0,100.0
499,64.32861661875,64.77904732291667,55.0,80.0
500,64.06999611875,64.8038317875,48.0,100.0
501,64.84585761875,65.10986604583334,60.0,92.0
502,64.58723711875,65.17667634166666,63.0,112.0
503,64.58723711875,65.50426230833334,67.0,100.0
504,65.62171911875001,65.80490863958333,56.0,105.0
505,65.10447811875001,65.81137415208333,44.0,99.0
506,65.36309861875,65.85447756875,51.0,61.0
507,65.88033961875,66.07538257916667,56.0,99.0
508,65.62171911875001,66.10771014166667,63.0,50.0
509,65.62171911875001,66.59585633541667,67.0,94.0
510,66.39758061875,66.77365792916667,53.0,87.0
511,66.65620111875,66.84908890833334,58.0,105.0
512,66.13896011875,66.98701984166667,46.0,96.0
513,66.65620111875,66.9891750125,62.0,102.0
514,66.91482161875,67.08292494375,53.0,73.0
515,66.65620111875,67.58939008958333,67.0,111.0
516,67.43206261875001,67.76180375625,50.0,80.0
517,67.69068311875,67.78658822083334,55.0,97.0
518,67.17344211875,67.88357090833334,43.0,108.0
519,67.69068311875,68.11632935833333,58.0,105.0
520,67.94930361875001,68.15081209166667,55.0,94.0
521,67.69068311875,68.17020862916667,62.0,111.0
522,67.69068311875,68.39973432291667,67.0,82.0
523,68.20792411875,68.57430316041668,53.0,97.0
524,68.20792411875,68.58615660000001,56.0,105.0
525,68.20792411875,68.59477728333333,60.0,100.0
526,68.46654461875,68.8383115875,48.0,78.0
527,68.20792411875,68.96331149583334,41.0,100.0
528,68.72516511875,69.02796662083334,56.0,109.0
529,68.98378561875,69.09585450208334,53.0,111.0
530,68.72516511875,69.10016484375001,60.0,117.0
531,69.24240611875,69.64219030833334,55.0,82.0
532,69.24240611875,69.65619891875001,62.0,87.0
533,69.75964711875,69.85662980625,55.0,97.0
534,69.50102661875,69.9115866625,50.0,67.0
535,69.24240611875,69.97085386041667,43.0,89.0
536,69.75964711875,70.04951759583334,58.0,105.0
537,69.75964711875,70.1702071625,62.0,108.0
538,70.01826761875,70.18098301666667,55.0,97.0
539,70.27688811875001,70.57430169375,56.0,112.0
540,70.27688811875001,70.60124132916667,60.0,102.0
541,70.27688811875001,70.90081007500001,44.0,99.0
542,70.79412911875,70.91158592916666,56.0,112.0
543,70.53550861875,71.03981859375,51.0,99.0
544,70.79412911875,71.10016337708333,60.0,117.0
545,71.05274961875,71.20037882083334,56.0,90.0
546,71.31137011875,71.56999061875,58.0,105.0
547,71.31137011875,71.62386988958333,62.0,97.0
548,71.56999061875,71.95684378333334,53.0,89.0
549,71.31137011875,72.03119717708334,46.0,96.0
550,72.08723161875,72.24994701666667,53.0,105.0
551,71.82861111875,72.2521021875,58.0,112.0
552,71.82861111875,72.30274870208333,62.0,108.0
553,72.34585211875,72.7240846,53.0,92.0
554,72.34585211875,72.73917079583333,56.0,102.0
555,72.34585211875,72.74240355208333,60.0,100.0
556,72.86309311875,72.918049975,53.0,84.0
557,72.60447261875001,72.96115339166667,48.0,53.0
558,72.34585211875,73.13679981458334,41.0,100.0
559,72.86309311875,73.435290975,56.0,112.0
560,73.12171361875001,73.44606682916667,53.0,67.0
561,72.86309311875,73.48378231875,60.0,111.0
562,73.63895461875,73.76826486875001,53.0,92.0
563,73.89757511875,73.93421302291667,53.0,84.0
564,73.38033411875,74.1206353,48.0,94.0
565,73.38033411875,74.14110942291667,41.0,66.0
566,73.89757511875,74.19391110833334,56.0,116.0
567,73.89757511875,74.27041967291667,60.0,111.0
568,74.15619561875,74.28335069791667,53.0,108.0
569,74.41481611875,74.53550568541667,55.0,97.0
570,74.41481611875,74.75102276875,60.0,114.0
571,74.67343661875,74.81998823541667,55.0,102.0
572,74.41481611875,74.84046235833334,48.0,120.0
573,74.93205711875001,75.07968632083333,53.0,108.0
574,74.93205711875001,75.27472928125,58.0,90.0
575,75.19067761875,75.41266021458334,53.0,105.0
576,74.93205711875001,75.42990158125001,46.0,116.0
577,75.44929811875001,75.88464262708334,58.0,74.0
578,75.44929811875001,75.88679779791667,63.0,105.0
579,75.44929811875001,75.89003055416667,60.0,79.0
580,75.44929811875001,75.92666845833334,51.0,112.0
581,75.96653911875,76.383564675,65.0,108.0
582,75.96653911875,76.39865087083334,58.0,93.0
583,75.96653911875,76.40080604166667,63.0,90.0
584,75.96653911875,76.43744394583334,46.0,105.0
585,76.48378011875,76.85877984375,60.0,87.0
586,76.48378011875,76.86524535625,63.0,109.0
587,76.48378011875,76.88033155208333,67.0,94.0
588,76.48378011875,77.03550385208334,48.0,100.0
589,77.00102111875,77.18421063958334,60.0,105.0
590,77.00102111875,77.418046675,63.0,116.0
591,77.38895186875,77.51610694791667,60.0,71.0
592,77.77688261875001,78.09261514583334,60.0,100.0
593,77.77688261875001,78.15942544166667,63.0,77.0
594,77.77688261875001,78.16050302708334,56.0,93.0
595,77.00102111875,78.16373578333334,67.0,105.0
596,77.51826211875,78.36955459791668,44.0,90.0
597,78.29412361875,78.40295974583334,56.0,59.0
598,78.29412361875,78.40619250208334,63.0,41.0
599,78.29412361875,78.47515796875,67.0,78.0
600,78.55274411875,78.93636452708334,62.0,97.0
601,78.55274411875,78.95145072291668,58.0,87.0
602,78.55274411875,78.96976967500001,67.0,69.0
603,79.06998511875,79.280114275,58.0,102.0
604,78.55274411875,79.48162274791667,46.0,102.0
605,79.06998511875,79.59153646041668,62.0,114.0
606,79.45791586875,79.62063126666666,58.0,46.0
607,79.06998511875,79.74778634583333,67.0,108.0
608,79.84584661875,80.08938092291667,63.0,72.0
609,79.84584661875,80.13140675416668,58.0,105.0
610,79.84584661875,80.17666534166666,55.0,105.0
611,79.84584661875,80.20252739166666,62.0,94.0
612,79.84584661875,80.25963941875,67.0,92.0
613,79.58722611875001,80.29735490833333,43.0,108.0
614,80.36308761875,80.43636342708334,55.0,94.0
615,80.36308761875,80.44175135416667,62.0,97.0
616,80.36308761875,80.4503720375,58.0,105.0
617,80.36308761875,80.5344237,67.0,73.0
618,80.62170811875,81.02364747916667,60.0,80.0
619,80.62170811875,81.04735435833334,67.0,60.0
620,80.62170811875,81.30813002916668,48.0,105.0
621,81.13894911875,81.36416447083333,60.0,108.0
622,81.13894911875,81.44282820625,63.0,112.0
623,81.52687986875,81.59369016458334,63.0,45.0
624,81.52687986875,81.65080219166667,60.0,89.0
625,81.91481061875,82.18205180208334,60.0,97.0
626,81.91481061875,82.28226724583334,63.0,72.0
627,81.91481061875,82.28873275833334,56.0,102.0
628,81.13894911875,82.31890515,67.0,100.0
629,81.65619011875,82.37817234791667,44.0,93.0
630,82.43205161875001,82.50748259791666,60.0,100.0
631,82.43205161875001,82.56136186875,56.0,87.0
632,82.69067211875,83.06028391666668,62.0,89.0
633,82.69067211875,83.07213735625,58.0,93.0
634,82.43205161875001,83.0883011375,67.0,94.0
635,83.20791311875,83.40295607916667,58.0,105.0
636,83.20791311875,83.46006810625,62.0,108.0
637,82.69067211875,83.61955074791668,46.0,99.0
638,83.59584386875001,83.73161963125,58.0,82.0
639,83.20791311875,83.93312810416667,67.0,105.0
640,83.98377461875,84.323214025,58.0,105.0
641,83.98377461875,84.3296795375,62.0,111.0
642,83.98377461875,84.33291229375,55.0,105.0
643,83.98377461875,84.37709329583333,67.0,76.0
644,83.72515411875,84.44713634791667,43.0,105.0
645,84.24239511875,84.45575703125,50.0,78.0
646,84.50101561875,84.57967935416667,55.0,71.0
647,84.50101561875,84.58291211041667,62.0,89.0
648,84.50101561875,84.59153279375,58.0,90.0
649,84.50101561875,84.72084304375001,67.0,71.0
650,84.75963611875001,85.1378686,60.0,89.0
651,84.75963611875001,85.14110135625,67.0,94.0
652,84.75963611875001,85.14864445416667,63.0,93.0
653,85.01825661875,85.34260982916668,55.0,30.0
654,84.75963611875001,85.38571324583333,48.0,94.0
655,85.27687711875001,85.52579935,63.0,112.0
656,85.27687711875001,85.5322648625,60.0,102.0
657,85.27687711875001,85.538730375,67.0,108.0
658,85.66480786875,85.77903192291667,63.0,105.0
659,85.66480786875,85.79411811875,60.0,82.0
660,86.05273861875,86.32860048541667,60.0,100.0
661,86.05273861875,86.41265214791667,63.0,70.0
662,86.05273861875,86.42450558750001,56.0,102.0
663,85.66480786875,86.44066936875001,67.0,89.0
664,85.79411811875,86.63355715833333,44.0,93.0
665,86.56997961875,86.65834162291667,60.0,80.0
666,86.31135911875,86.66911747708333,51.0,79.0
667,86.56997961875,86.77795360416667,56.0,99.0
668,86.56997961875,86.80166048333334,63.0,90.0
669,86.56997961875,87.09476371666668,67.0,94.0
670,87.34584111875,87.59260817916667,58.0,102.0
671,87.34584111875,87.60230644791667,62.0,114.0
672,87.34584111875,87.64325469375001,67.0,108.0
673,86.82860011875,87.72730635625,46.0,105.0
674,87.73377186875,87.80058216458333,62.0,97.0
675,87.73377186875,87.88786658333333,58.0,93.0
676,87.73377186875,87.92665965833334,67.0,80.0
677,88.12170261875,88.45790926875,58.0,102.0
678,88.12170261875,88.46437478125,55.0,97.0
679,88.12170261875,88.48484890416667,62.0,102.0
680,88.12170261875,88.48808166041667,67.0,60.0
681,87.86308211875,88.69066771875,43.0,105.0
682,88.38032311875,88.71652976875001,50.0,78.0
683,88.63894361875,88.84045209166668,55.0,87.0
684,88.63894361875,88.84368484791668,58.0,99.0
685,88.63894361875,88.85877104375,62.0,92.0
686,88.63894361875,88.90941755833333,67.0,82.0
687,88.89756411875,88.90941755833333,67.0,100.0
688,88.89756411875,89.22191732916667,63.0,105.0
689,88.89756411875,89.22515008541667,60.0,92.0
690,89.15618461875,89.60661532291667,55.0,73.0
691,88.89756411875,89.64109805625,48.0,105.0
692,89.41480511875001,89.64648598333333,60.0,105.0
693,89.41480511875001,89.66049459375,63.0,112.0
694,89.41480511875001,89.6701928625,67.0,105.0
695,89.80273586875,89.88786511666667,63.0,102.0
696,89.80273586875,89.92342543541668,60.0,82.0
697,89.80273586875,90.0969166875,67.0,94.0
698,90.19066661875,90.55058014791668,58.0,96.0
699,90.19066661875,90.56243358750001,62.0,102.0
700,90.19066661875,90.56566634375001,55.0,100.0
701,90.19066661875,90.59583873541666,67.0,73.0
702,89.93204611875001,90.74993345,43.0,102.0
703,90.44928711875001,90.76178688958333,50.0,67.0
704,90.70790761875,90.93635572708334,58.0,93.0
705,90.70790761875,90.94497641041667,62.0,100.0
706,90.70790761875,90.969760875,67.0,73.0
707,90.70790761875,90.99670051041667,55.0,84.0
708,90.96652811875,91.32967440416667,56.0,77.0
709,90.96652811875,91.33613991666667,53.0,78.0
710,90.96652811875,91.35014852708333,60.0,92.0
711,91.48376911875,91.68204483541668,53.0,105.0
712,91.48376911875,91.71544998333334,56.0,112.0
713,91.48376911875,91.73053617916668,60.0,108.0
714,90.96652811875,91.84152747708333,41.0,102.0
715,91.87169986875,92.004242875,53.0,78.0
716,91.87169986875,92.03118251041667,56.0,70.0
717,91.87169986875,92.07967385416667,60.0,89.0
718,92.25963061875001,92.48807872708333,58.0,109.0
719,92.38894086875,92.4891563125,59.0,71.0
720,92.25963061875001,92.58075107291667,62.0,100.0
721,92.25963061875001,92.60230278125,55.0,102.0
722,92.51825111875,92.89648360000001,50.0,67.0
723,92.00101011875,92.92126806458333,43.0,102.0
724,92.77687161875001,93.02040592291667,55.0,97.0
725,92.77687161875001,93.02579385,58.0,105.0
726,92.77687161875001,93.04088004583333,62.0,105.0
727,93.03549211875,93.41049184375001,60.0,87.0
728,93.03549211875,93.41695735625001,63.0,109.0
729,93.03549211875,93.43204355208334,67.0,94.0
730,93.03549211875,93.58721585208333,48.0,100.0
731,93.55273311875,93.73592263958334,60.0,105.0
732,93.55273311875,93.96975867500001,63.0,116.0
733,93.94066386875001,94.06781894791666,60.0,71.0
734,94.32859461875,94.64432714583333,60.0,100.0
735,94.32859461875,94.71113744166666,63.0,77.0
736,94.32859461875,94.71221502708333,56.0,93.0
737,93.55273311875,94.71544778333333,67.0,105.0
738,94.06997411875,94.92126659791667,44.0,90.0
739,94.84583561875,94.95467174583334,56.0,59.0
740,94.84583561875,94.95790450208334,63.0,41.0
741,94.84583561875,95.02686996875,67.0,78.0
742,95.10445611875001,95.48807652708334,62.0,97.0
743,95.10445611875001,95.50316272291667,58.0,87.0
744,95.10445611875001,95.521481675,67.0,69.0
745,95.62169711875,95.831826275,58.0,102.0
746,95.10445611875001,96.03333474791667,46.0,102.0
747,95.62169711875,96.14324846041667,62.0,114.0
748,96.00962786875,96.17234326666667,58.0,46.0
749,95.62169711875,96.29949834583334,67.0,108.0
750,96.39755861875,96.64109292291667,63.0,72.0
751,96.39755861875,96.68311875416667,58.0,105.0
752,96.39755861875,96.72837734166667,55.0,105.0
753,96.39755861875,96.75423939166667,62.0,94.0
754,96.39755861875,96.81135141875001,67.0,92.0
755,96.13893811875,96.84906690833334,43.0,108.0
756,96.91479961875001,96.98807542708333,55.0,94.0
757,96.91479961875001,96.99346335416666,62.0,97.0
758,96.91479961875001,97.0020840375,58.0,105.0
759,96.91479961875001,97.0861357,67.0,73.0
760,97.17342011875,97.57535947916666,60.0,80.0
761,97.17342011875,97.59906635833333,67.0,60.0
762,97.17342011875,97.85984202916667,48.0,105.0
763,97.69066111875,97.91587647083334,60.0,108.0
764,97.69066111875,97.99454020625001,63.0,112.0
765,98.07859186875001,98.14540216458333,63.0,45.0
766,98.07859186875001,98.20251419166667,60.0,89.0
767,98.46652261875,98.73376380208333,60.0,97.0
768,98.46652261875,98.83397924583333,63.0,72.0
769,98.46652261875,98.84044475833333,56.0,102.0
770,97.69066111875,98.87061715,67.0,100.0
771,98.20790211875,98.92988434791667,44.0,93.0
772,98.98376361875,99.05919459791667,60.0,100.0
773,98.98376361875,99.11307386875,56.0,87.0
774,99.24238411875001,99.61199591666667,62.0,89.0
775,99.24238411875001,99.62384935625,58.0,93.0
776,98.98376361875,99.6400131375,67.0,94.0
777,99.75962511875001,99.95466807916667,58.0,105.0
778,99.75962511875001,100.01178010625,62.0,108.0
779,99.24238411875001,100.17126274791667,46.0,99.0
780,100.14755586875,100.28333163125001,58.0,82.0
781,99.75962511875001,100.48484010416666,67.0,105.0
782,100.53548661875,100.87492602500001,58.0,105.0
783,100.53548661875,100.88139153750001,62.0,111.0
784,100.53548661875,100.88462429375001,55.0,105.0
785,100.53548661875,100.92880529583334,67.0,76.0
786,100.27686611875001,100.99884834791668,43.0,105.0
787,100.79410711875,101.00746903125001,50.0,78.0
788,101.05272761875,101.13139135416667,55.0,71.0
789,101.05272761875,101.13462411041667,62.0,89.0
790,101.05272761875,101.14324479375,58.0,90.0
791,101.05272761875,101.27255504375,67.0,71.0
792,101.31134811875,101.6895806,60.0,89.0
793,101.31134811875,101.69281335625,67.0,94.0
794,101.31134811875,101.70035645416667,63.0,93.0
795,101.56996861875001,101.89432182916667,55.0,30.0
796,101.31134811875,101.93742524583334,48.0,94.0
797,101.82858911875,102.07751135000001,63.0,112.0
798,101.82858911875,102.08397686250001,60.0,102.0
799,101.82858911875,102.09044237500001,67.0,108.0
800,102.21651986875,102.33074392291667,63.0,105.0
801,102.21651986875,102.34583011875,60.0,82.0
802,102.60445061875001,102.88031248541667,60.0,100.0
803,102.60445061875001,102.96436414791667,63.0,70.0
804,102.60445061875001,102.9762175875,56.0,102.0
805,102.21651986875,102.99238136875,67.0,89.0
806,102.34583011875,103.18526915833334,44.0,93.0
807,103.12169161875,103.21005362291667,60.0,80.0
808,102.86307111875,103.22082947708334,51.0,79.0
809,103.12169161875,103.32966560416666,56.0,99.0
810,103.12169161875,103.35337248333333,63.0,90.0
811,103.12169161875,103.64647571666667,67.0,94.0
812,103.89755311875001,104.14432017916667,58.0,102.0
813,103.89755311875001,104.15401844791667,62.0,114.0
814,103.89755311875001,104.19496669375,67.0,108.0
815,103.38031211875,104.27901835625,46.0,105.0
816,104.28548386875,104.35229416458334,62.0,97.0
817,104.28548386875,104.43957858333334,58.0,93.0
818,104.28548386875,104.47837165833334,67.0,80.0
819,104.67341461875,105.00962126875001,58.0,102.0
820,104.67341461875,105.01608678125001,55.0,97.0
821,104.67341461875,105.03656090416668,62.0,102.0
822,104.67341461875,105.03979366041668,67.0,60.0
823,104.41479411875001,105.24237971875,43.0,105.0
824,104.93203511875001,105.26824176875,50.0,78.0
825,105.19065561875,105.39216409166667,55.0,87.0
826,105.19065561875,105.39539684791667,58.0,99.0
827,105.19065561875,105.41048304375,62.0,92.0
828,105.19065561875,105.46112955833334,67.0,82.0
829,105.44927611875,105.46112955833334,67.0,100.0
830,105.44927611875,105.77362932916667,63.0,105.0
831,105.44927611875,105.77686208541667,60.0,92.0
832,105.70789661875,106.15832732291668,55.0,73.0
833,105.44927611875,106.19281005625001,48.0,105.0
834,105.96651711875,106.19819798333334,60.0,105.0
835,105.96651711875,106.21220659375001,63.0,112.0
836,105.96651711875,106.2219048625,67.0,105.0
837,106.35444786875,106.43957711666667,63.0,102.0
838,106.35444786875,106.47513743541667,60.0,82.0
839,106.35444786875,106.64862868750001,67.0,94.0
840,106.74237861875001,107.10229214791667,58.0,96.0
841,106.74237861875001,107.1141455875,62.0,102.0
842,106.74237861875001,107.11737834375,55.0,100.0
843,106.74237861875001,107.14755073541667,67.0,73.0
844,106.48375811875,107.30164545000001,43.0,102.0
845,107.00099911875,107.31349888958334,50.0,67.0
846,107.25961961875001,107.48806772708333,58.0,93.0
847,107.25961961875001,107.49668841041667,62.0,100.0
848,107.25961961875001,107.521472875,67.0,73.0
849,107.25961961875001,107.54841251041667,55.0,84.0
850,107.51824011875,107.88138640416668,56.0,77.0
851,107.51824011875,107.88785191666668,53.0,78.0
852,107.51824011875,107.90186052708334,60.0,92.0
853,108.03548111875,108.23375683541667,53.0,105.0
854,108.03548111875,108.26716198333334,56.0,112.0
855,108.03548111875,108.28224817916667,60.0,108.0
856,107.51824011875,108.39323947708334,41.0,102.0
857,108.42341186875001,108.555954875,53.0,78.0
858,108.42341186875001,108.58289451041666,56.0,70.0
859,108.42341186875001,108.63138585416667,60.0,89.0
860,108.81134261875,109.03979072708334,58.0,109.0
861,108.94065286875,109.04086831250001,59.0,71.0
862,108.81134261875,109.13246307291666,62.0,100.0
863,108.81134261875,109.15401478125,55.0,102.0
864,109.06996311875001,109.4481956,50.0,67.0
865,108.55272211875,109.47298006458334,43.0,102.0
866,109.32858361875,109.57211792291668,55.0,97.0
867,109.32858361875,109.57750585000001,58.0,105.0
868,109.32858361875,109.59259204583334,62.0,105.0
869,109.58720411875001,109.95681591666667,60.0,82.0
870,109.58720411875001,109.95681591666667,67.0,92.0
871,109.58720411875001,109.97729003958334,63.0,74.0
872,110.10444511875001,110.22513468541668,60.0,100.0
873,109.84582461875,110.29625532291666,55.0,80.0
874,109.58720411875001,110.3210397875,48.0,100.0
875,110.36306561875,110.62707404583334,60.0,92.0
876,110.10444511875001,110.69388434166667,63.0,112.0
877,110.10444511875001,111.02147030833333,67.0,100.0
878,111.13892711875,111.32211663958334,56.0,105.0
879,110.62168611875,111.32858215208334,44.0,99.0
880,110.88030661875,111.37168556875001,51.0,61.0
881,111.39754761875001,111.59259057916667,56.0,99.0
882,111.13892711875,111.62491814166667,63.0,50.0
883,111.13892711875,112.11306433541667,67.0,94.0
884,111.91478861875001,112.29086592916667,53.0,87.0
885,112.17340911875,112.36629690833334,58.0,105.0
886,111.65616811875,112.50422784166668,46.0,96.0
887,112.17340911875,112.50638301250001,62.0,102.0
888,112.43202961875001,112.60013294375,53.0,73.0
889,112.17340911875,113.10659808958334,67.0,111.0
890,112.94927061875,113.27901175625,50.0,80.0
891,113.20789111875,113.30379622083333,55.0,97.0
892,112.69065011875,113.40077890833334,43.0,108.0
893,113.20789111875,113.63353735833334,58.0,105.0
894,113.46651161875,113.66802009166668,55.0,94.0
895,113.20789111875,113.68741662916668,62.0,111.0
896,113.20789111875,113.91694232291667,67.0,82.0
897,113.98375261875,114.33827822083333,55.0,71.0
898,114.24237311875001,114.37814888125,60.0,105.0
899,113.72513211875001,114.504226375,48.0,105.0
900,114.24237311875001,114.71327794583334,63.0,112.0
901,114.50099361875,114.74991585000001,60.0,97.0
902,115.01823461875,115.32534646250001,51.0,52.0
903,114.75961411875001,115.35659643958334,44.0,105.0
904,115.27685511875,115.38245848958334,56.0,96.0
905,115.27685511875,115.41586363750001,60.0,80.0
906,115.27685511875,115.72082031041667,63.0,85.0
907,115.53547561875,115.75099270208334,56.0,105.0
908,114.24237311875001,116.04517352083334,67.0,108.0
909,116.31133711875,116.40185429375,58.0,96.0
910,116.05271661875001,116.49344905416667,53.0,67.0
911,116.31133711875,116.63892308541668,62.0,102.0
912,115.79409611875,116.66262996458333,46.0,109.0
913,116.56995761875001,116.77146609166667,58.0,99.0
914,116.31133711875,117.23159506458333,67.0,102.0
915,117.34581911875,117.39754321875,55.0,92.0
916,117.08719861875001,117.56672412916667,50.0,78.0
917,116.82857811875,117.64107752291667,43.0,102.0
918,117.34581911875,117.66693957291668,58.0,109.0
919,117.34581911875,117.85874977708333,62.0,108.0
920,117.60443961875,117.90508595,55.0,111.0
921,117.34581911875,117.9244824875,67.0,92.0
922,117.86306011875,117.9244824875,67.0,92.0
923,117.86306011875,118.23267191666667,60.0,82.0
924,117.86306011875,118.25314603958334,63.0,74.0
925,118.38030111875,118.50099068541667,60.0,100.0
926,118.12168061875,118.57211132291667,55.0,80.0
927,117.86306011875,118.5968957875,48.0,100.0
928,118.63892161875,118.90293004583334,60.0,92.0
929,118.38030111875,118.96974034166666,63.0,112.0
930,118.38030111875,119.29732630833334,67.0,100.0
931,119.41478311875001,119.59797263958333,56.0,105.0
932,118.89754211875001,119.60443815208333,44.0,99.0
933,119.15616261875,119.64754156875,51.0,61.0
934,119.67340361875,119.86844657916667,56.0,99.0
935,119.41478311875001,119.90077414166667,63.0,50.0
936,119.41478311875001,120.38892033541667,67.0,94.0
937,120.19064461875,120.56672192916668,53.0,87.0
938,120.44926511875,120.64215290833334,58.0,105.0
939,119.93202411875001,120.78008384166667,46.0,96.0
940,120.44926511875,120.7822390125,62.0,102.0
941,120.70788561875,120.87598894375,53.0,73.0
942,120.44926511875,121.38245408958333,67.0,111.0
943,121.22512661875001,121.55486775625,50.0,80.0
944,121.48374711875,121.57965222083334,55.0,97.0
945,120.96650611875,121.67663490833334,43.0,108.0
946,121.48374711875,121.90939335833333,58.0,105.0
947,121.74236761875001,121.94387609166667,55.0,94.0
948,121.48374711875,121.96327262916667,62.0,111.0
949,121.48374711875,122.19279832291667,67.0,82.0
950,122.00098811875,122.36736716041668,53.0,97.0
951,122.00098811875,122.37922060000001,56.0,105.0
952,122.00098811875,122.38784128333334,60.0,100.0
953,122.25960861875001,122.6313755875,48.0,78.0
954,122.00098811875,122.75637549583334,41.0,100.0
955,122.51822911875,122.82103062083334,56.0,109.0
956,122.77684961875,122.88891850208334,53.0,111.0
957,122.51822911875,122.89322884375001,60.0,117.0
958,123.03547011875,123.43525430833334,55.0,82.0
959,123.03547011875,123.44926291875001,62.0,87.0
960,123.55271111875001,123.64969380625,55.0,97.0
961,123.29409061875,123.7046506625,50.0,67.0
962,123.03547011875,123.76391786041667,43.0,89.0
963,123.55271111875001,123.84258159583334,58.0,105.0
964,123.55271111875001,123.9632711625,62.0,108.0
965,123.81133161875,123.97404701666667,55.0,97.0
966,124.06995211875001,124.36736569375,56.0,112.0
967,124.06995211875001,124.39430532916667,60.0,102.0
968,124.06995211875001,124.69387407500001,44.0,99.0
969,124.58719311875001,124.70464992916668,56.0,112.0
970,124.32857261875,124.83288259375,51.0,99.0
971,124.58719311875001,124.89322737708333,60.0,117.0
972,124.84581361875,124.99344282083334,56.0,90.0
973,125.10443411875,125.36305461875,58.0,105.0
974,125.10443411875,125.41693388958333,62.0,97.0
975,125.36305461875,125.74990778333334,53.0,89.0
976,125.10443411875,125.82426117708334,46.0,96.0
977,125.88029561875001,126.04301101666667,53.0,105.0
978,125.62167511875,126.0451661875,58.0,112.0
979,125.62167511875,126.09581270208334,62.0,108.0
980,126.13891611875,126.5171486,53.0,92.0
981,126.13891611875,126.53223479583333,56.0,102.0
982,126.13891611875,126.53546755208333,60.0,100.0
983,126.65615711875,126.711113975,53.0,84.0
984,126.39753661875001,126.75421739166667,48.0,53.0
985,126.13891611875,126.92986381458334,41.0,100.0
986,126.65615711875,127.228354975,56.0,112.0
987,126.91477761875001,127.23913082916667,53.0,67.0
988,126.65615711875,127.27684631875,60.0,111.0
989,127.43201861875,127.56132886875001,53.0,92.0
990,127.69063911875,127.72727702291667,53.0,84.0
991,127.17339811875,127.9136993,48.0,94.0
992,127.17339811875,127.93417342291667,41.0,66.0
993,127.69063911875,127.98697510833334,56.0,116.0
994,127.69063911875,128.06348367291668,60.0,111.0
995,127.94925961875,128.07641469791668,53.0,108.0
996,128.20788011875,128.32856968541668,55.0,97.0
997,128.20788011875,128.54408676875,60.0,114.0
998,128.46650061875002,128.61305223541666,55.0,102.0
999,128.20788011875,128.63352635833334,48.0,120.0
1000,128.72512111875,128.87275032083335,53.0,108.0
1001,128.72512111875,129.06779328125,58.0,90.0
1002,128.98374161875,129.20572421458334,53.0,105.0
1003,128.72512111875,129.22296558125,46.0,116.0
1004,129.24236211875,129.67770662708332,58.0,74.0
1005,129.24236211875,129.67986179791666,63.0,105.0
1006,129.24236211875,129.68309455416667,60.0,79.0
1007,129.24236211875,129.71973245833334,51.0,112.0
1008,129.75960311875,130.17662867500002,65.0,108.0
1009,129.75960311875,130.19171487083335,58.0,93.0
1010,129.75960311875,130.19387004166668,63.0,90.0
1011,129.75960311875,130.23050794583335,46.0,105.0
1012,130.27684411875,130.65184384375002,60.0,87.0
1013,130.27684411875,130.65830935625002,63.0,109.0
1014,130.27684411875,130.67339555208335,67.0,94.0
1015,130.27684411875,130.82856785208332,48.0,100.0
1016,130.79408511875002,130.97727463958333,60.0,105.0
1017,130.79408511875002,131.21111067500001,63.0,116.0
1018,131.18201586875,131.30917094791667,60.0,71.0
1019,131.56994661875,131.88567914583334,60.0,100.0
1020,131.56994661875,131.95248944166667,63.0,77.0
1021,131.56994661875,131.95356702708335,56.0,93.0
1022,130.79408511875002,131.95679978333334,67.0,105.0
1023,131.31132611875,132.16261859791666,44.0,90.0
1024,132.08718761875,132.19602374583334,56.0,59.0
1025,132.08718761875,132.19925650208333,63.0,41.0
1026,132.08718761875,132.26822196875,67.0,78.0
1027,132.34580811875,132.72942852708334,62.0,97.0
1028,132.34580811875,132.74451472291668,58.0,87.0
1029,132.34580811875,132.762833675,67.0,69.0
1030,132.86304911875,133.073178275,58.0,102.0
1031,132.34580811875,133.27468674791666,46.0,102.0
1032,132.86304911875,133.38460046041666,62.0,114.0
1033,133.25097986875,133.41369526666668,58.0,46.0
1034,132.86304911875,133.54085034583335,67.0,108.0
1035,133.63891061875,133.88244492291668,63.0,72.0
1036,133.63891061875,133.92447075416666,58.0,105.0
1037,133.63891061875,133.96972934166666,55.0,105.0
1038,133.63891061875,133.99559139166666,62.0,94.0
1039,133.63891061875,134.05270341875,67.0,92.0
1040,133.38029011875,134.09041890833333,43.0,108.0
1041,134.15615161875002,134.22942742708335,55.0,94.0
1042,134.15615161875002,134.23481535416667,62.0,97.0
1043,134.15615161875002,134.2434360375,58.0,105.0
1044,134.15615161875002,134.3274877,67.0,73.0
1045,134.41477211875,134.81671147916668,60.0,80.0
1046,134.41477211875,134.84041835833335,67.0,60.0
1047,134.41477211875,135.10119402916666,48.0,105.0
1048,134.93201311875,135.15722847083333,60.0,108.0
1049,134.93201311875,135.23589220625,63.0,112.0
1050,135.31994386875002,135.38675416458335,63.0,45.0
1051,135.31994386875002,135.44386619166667,60.0,89.0
1052,135.70787461875,135.97511580208334,60.0,97.0
1053,135.70787461875,136.07533124583333,63.0,72.0
1054,135.70787461875,136.08179675833333,56.0,102.0
1055,134.93201311875,136.11196915,67.0,100.0
1056,135.44925411875002,136.17123634791668,44.0,93.0
1057,136.22511561875,136.30054659791668,60.0,100.0
1058,136.22511561875,136.35442586875,56.0,87.0
1059,136.48373611875002,136.85334791666668,62.0,89.0
1060,136.48373611875002,136.86520135625,58.0,93.0
1061,136.22511561875,136.8813651375,67.0,94.0
1062,137.00097711875,137.19602007916666,58.0,105.0
1063,137.00097711875,137.25313210625,62.0,108.0
1064,136.48373611875002,137.41261474791668,46.0,99.0
1065,137.38890786875,137.52468363125,58.0,82.0
1066,137.00097711875,137.72619210416667,67.0,105.0
1067,137.77683861875,138.116278025,58.0,105.0
1068,137.77683861875,138.1227435375,62.0,111.0
1069,137.77683861875,138.12597629375,55.0,105.0
1070,137.77683861875,138.17015729583335,67.0,76.0
1071,137.51821811875,138.24020034791667,43.0,105.0
1072,138.03545911875,138.24882103125,50.0,78.0
1073,138.29407961875,138.37274335416666,55.0,71.0
1074,138.29407961875,138.37597611041667,62.0,89.0
1075,138.29407961875,138.38459679375,58.0,90.0
1076,138.29407961875,138.51390704375,67.0,71.0
1077,138.55270011875,138.9309326,60.0,89.0
1078,138.55270011875,138.93416535625,67.0,94.0
1079,138.55270011875,138.94170845416667,63.0,93.0
1080,138.81132061875002,139.13567382916668,55.0,30.0
1081,138.55270011875,139.17877724583334,48.0,94.0
1082,139.06994111875,139.31886335000002,63.0,112.0
1083,139.06994111875,139.32532886250002,60.0,102.0
1084,139.06994111875,139.33179437500002,67.0,108.0
1085,139.45787186875,139.57209592291667,63.0,105.0
1086,139.45787186875,139.58718211875,60.0,82.0
1087,139.84580261875,140.12166448541666,60.0,100.0
1088,139.84580261875,140.20571614791666,63.0,70.0
1089,139.84580261875,140.2175695875,56.0,102.0
1090,139.45787186875,140.23373336875,67.0,89.0
1091,139.58718211875,140.42662115833335,44.0,93.0
1092,140.36304361875,140.45140562291667,60.0,80.0
1093,140.10442311875,140.46218147708333,51.0,79.0
1094,140.36304361875,140.57101760416668,56.0,99.0
1095,140.36304361875,140.59472448333335,63.0,90.0
1096,140.36304361875,140.88782771666666,67.0,94.0
1097,141.13890511875002,141.38567217916668,58.0,102.0
1098,141.13890511875002,141.39537044791666,62.0,114.0
1099,141.13890511875002,141.43631869375,67.0,108.0
1100,140.62166411875,141.52037035625,46.0,105.0
1101,141.52683586875,141.59364616458333,62.0,97.0
1102,141.52683586875,141.68093058333335,58.0,93.0
1103,141.52683586875,141.71972365833335,67.0,80.0
1104,141.91476661875,142.25097326875002,58.0,102.0
1105,141.91476661875,142.25743878125002,55.0,97.0
1106,141.91476661875,142.27791290416667,62.0,102.0
1107,141.91476661875,142.28114566041668,67.0,60.0
1108,141.65614611875,142.48373171875,43.0,105.0
1109,142.17338711875001,142.50959376875,50.0,78.0
1110,142.43200761875,142.63351609166668,55.0,87.0
1111,142.43200761875,142.63674884791666,58.0,99.0
1112,142.43200761875,142.65183504375,62.0,92.0
1113,142.43200761875,142.70248155833335,67.0,82.0
1114,142.69062811875,142.70248155833335,67.0,100.0
1115,142.69062811875,143.01498132916666,63.0,105.0
1116,142.69062811875,143.01821408541667,60.0,92.0
1117,142.94924861875,143.39967932291668,55.0,73.0
1118,142.69062811875,143.43416205625002,48.0,105.0
1119,143.20786911875,143.43954998333334,60.0,105.0
1120,143.20786911875,143.45355859375002,63.0,112.0
1121,143.20786911875,143.4632568625,67.0,105.0
1122,143.59579986875,143.68092911666668,63.0,102.0
1123,143.59579986875,143.71648943541666,60.0,82.0
1124,143.59579986875,143.8899806875,67.0,94.0
1125,143.98373061875,144.34364414791668,58.0,96.0
1126,143.98373061875,144.3554975875,62.0,102.0
1127,143.98373061875,144.35873034375,55.0,100.0
1128,143.98373061875,144.38890273541668,67.0,73.0
1129,143.72511011875,144.54299745,43.0,102.0
1130,144.24235111875,144.55485088958335,50.0,67.0
1131,144.50097161875001,144.72941972708333,58.0,93.0
1132,144.50097161875001,144.73804041041666,62.0,100.0
1133,144.50097161875001,144.762824875,67.0,73.0
1134,144.50097161875001,144.78976451041666,55.0,84.0
1135,144.75959211875,145.12273840416668,56.0,77.0
1136,144.75959211875,145.12920391666668,53.0,78.0
1137,144.75959211875,145.14321252708334,60.0,92.0
1138,145.27683311875,145.47510883541668,53.0,105.0
1139,145.27683311875,145.50851398333333,56.0,112.0
1140,145.27683311875,145.52360017916666,60.0,108.0
1141,144.75959211875,145.63459147708335,41.0,102.0
1142,145.66476386875001,145.797306875,53.0,78.0
1143,145.66476386875001,145.82424651041669,56.0,70.0
1144,145.66476386875001,145.87273785416667,60.0,89.0
1145,146.05269461875,146.28114272708333,58.0,109.0
1146,146.18200486875,146.28222031250002,59.0,71.0
1147,146.05269461875,146.37381507291667,62.0,100.0
1148,146.05269461875,146.39536678125,55.0,102.0
1149,146.31131511875,146.6895476,50.0,67.0
1150,145.79407411875002,146.71433206458335,43.0,102.0
1151,146.56993561875,146.81346992291668,55.0,97.0
1152,146.56993561875,146.81885785,58.0,105.0
1153,146.56993561875,146.83394404583333,62.0,105.0
1154,146.82855611875002,147.20355584375,60.0,87.0
1155,146.82855611875002,147.21002135625,63.0,109.0
1156,146.82855611875002,147.22510755208333,67.0,94.0
1157,146.82855611875002,147.38027985208333,48.0,100.0
1158,147.34579711875,147.52898663958334,60.0,105.0
1159,147.34579711875,147.762822675,63.0,116.0
1160,147.73372786875,147.86088294791668,60.0,71.0
1161,148.12165861875002,148.43739114583335,60.0,100.0
1162,148.12165861875002,148.50420144166668,63.0,77.0
1163,148.12165861875002,148.50527902708333,56.0,93.0
1164,147.34579711875,148.50851178333335,67.0,105.0
1165,147.86303811875,148.71433059791667,44.0,90.0
1166,148.63889961875,148.74773574583335,56.0,59.0
1167,148.63889961875,148.75096850208334,63.0,41.0
1168,148.63889961875,148.81993396875,67.0,78.0
1169,148.89752011875,149.28114052708335,62.0,97.0
1170,148.89752011875,149.29622672291669,58.0,87.0
1171,148.89752011875,149.314545675,67.0,69.0
1172,149.41476111875,149.624890275,58.0,102.0
1173,148.89752011875,149.82639874791667,46.0,102.0
1174,149.41476111875,149.93631246041667,62.0,114.0
1175,149.80269186875,149.96540726666666,58.0,46.0
1176,149.41476111875,150.09256234583333,67.0,108.0
1177,150.19062261875,150.43415692291669,63.0,72.0
1178,150.19062261875,150.47618275416667,58.0,105.0
1179,150.19062261875,150.52144134166667,55.0,105.0
1180,150.19062261875,150.54730339166667,62.0,94.0
1181,150.19062261875,150.60441541875,67.0,92.0
1182,149.93200211875,150.64213090833334,43.0,108.0
1183,150.70786361875,150.78113942708333,55.0,94.0
1184,150.70786361875,150.78652735416668,62.0,97.0
1185,150.70786361875,150.7951480375,58.0,105.0
1186,150.70786361875,150.87919970000002,67.0,73.0
1187,150.96648411875,151.36842347916667,60.0,80.0
1188,150.96648411875,151.39213035833333,67.0,60.0
1189,150.96648411875,151.65290602916667,48.0,105.0
1190,151.48372511875002,151.70894047083334,60.0,108.0
1191,151.48372511875002,151.78760420625,63.0,112.0
1192,151.87165586875,151.93846616458333,63.0,45.0
1193,151.87165586875,151.99557819166668,60.0,89.0
1194,152.25958661875,152.52682780208335,60.0,97.0
1195,152.25958661875,152.62704324583333,63.0,72.0
1196,152.25958661875,152.63350875833333,56.0,102.0
1197,151.48372511875002,152.66368115,67.0,100.0
1198,152.00096611875,152.72294834791668,44.0,93.0
1199,152.77682761875002,152.85225859791666,60.0,100.0
1200,152.77682761875002,152.90613786875,56.0,87.0
1201,153.03544811875,153.40505991666666,62.0,89.0
1202,153.03544811875,153.41691335625,58.0,93.0
1203,152.77682761875002,153.4330771375,67.0,94.0
1204,153.55268911875,153.74773207916667,58.0,105.0
1205,153.55268911875,153.80484410625002,62.0,108.0
1206,153.03544811875,153.9643267479167,46.0,99.0
1207,153.94061986875002,154.07639563125,58.0,82.0
1208,153.55268911875,154.27790410416668,67.0,105.0
1209,154.32855061875,154.667990025,58.0,105.0
1210,154.32855061875,154.6744555375,62.0,111.0
1211,154.32855061875,154.67768829375,55.0,105.0
1212,154.32855061875,154.72186929583333,67.0,76.0
1213,154.06993011875,154.79191234791668,43.0,105.0
1214,154.58717111875,154.80053303125,50.0,78.0
1215,154.84579161875,154.92445535416667,55.0,71.0
1216,154.84579161875,154.92768811041668,62.0,89.0
1217,154.84579161875,154.93630879375002,58.0,90.0
1218,154.84579161875,155.06561904375002,67.0,71.0
1219,155.10441211875002,155.48264460000001,60.0,89.0
1220,155.10441211875002,155.48587735625,67.0,94.0
1221,155.10441211875002,155.49342045416668,63.0,93.0
1222,155.36303261875,155.6873858291667,55.0,30.0
1223,155.10441211875002,155.73048924583333,48.0,94.0
1224,155.62165311875,155.87057535,63.0,112.0
1225,155.62165311875,155.8770408625,60.0,102.0
1226,155.62165311875,155.883506375,67.0,108.0
1227,156.00958386875,156.12380792291668,63.0,105.0
1228,156.00958386875,156.13889411875002,60.0,82.0
1229,156.39751461875,156.67337648541667,60.0,100.0
1230,156.39751461875,156.75742814791667,63.0,70.0
1231,156.39751461875,156.76928158750002,56.0,102.0
1232,156.00958386875,156.78544536875,67.0,89.0
1233,156.13889411875002,156.97833315833333,44.0,93.0
1234,156.91475561875,157.00311762291668,60.0,80.0
1235,156.65613511875,157.01389347708334,51.0,79.0
1236,156.91475561875,157.12272960416666,56.0,99.0
1237,156.91475561875,157.14643648333333,63.0,90.0
1238,156.91475561875,157.43953971666667,67.0,94.0
1239,157.69061711875,157.93738417916668,58.0,102.0
1240,157.69061711875,157.94708244791667,62.0,114.0
1241,157.69061711875,157.98803069375,67.0,108.0
1242,157.17337611875,158.07208235625,46.0,105.0
1243,158.07854786875,158.14535816458334,62.0,97.0
1244,158.07854786875,158.23264258333333,58.0,93.0
1245,158.07854786875,158.27143565833333,67.0,80.0
1246,158.46647861875002,158.80268526875,58.0,102.0
1247,158.46647861875002,158.80915078125,55.0,97.0
1248,158.46647861875002,158.82962490416668,62.0,102.0
1249,158.46647861875002,158.83285766041666,67.0,60.0
1250,158.20785811875,159.03544371875,43.0,105.0
1251,158.72509911875,159.06130576875,50.0,78.0
1252,158.98371961875,159.1852280916667,55.0,87.0
1253,158.98371961875,159.18846084791667,58.0,99.0
1254,158.98371961875,159.20354704375,62.0,92.0
1255,158.98371961875,159.25419355833333,67.0,82.0
1256,159.24234011875,159.25419355833333,67.0,100.0
1257,159.24234011875,159.56669332916667,63.0,105.0
1258,159.24234011875,159.56992608541668,60.0,92.0
1259,159.50096061875,159.95139132291666,55.0,73.0
1260,159.24234011875,159.98587405625,48.0,105.0
1261,159.75958111875002,159.99126198333335,60.0,105.0
1262,159.75958111875002,160.00527059375,63.0,112.0
1263,159.75958111875002,160.0149688625,67.0,105.0
1264,160.14751186875,160.23264111666668,63.0,102.0
1265,160.14751186875,160.26820143541667,60.0,82.0
1266,160.14751186875,160.4416926875,67.0,94.0
1267,160.53544261875,160.8953561479167,58.0,96.0
1268,160.53544261875,160.9072095875,62.0,102.0
1269,160.53544261875,160.91044234375002,55.0,100.0
1270,160.53544261875,160.94061473541666,67.0,73.0
1271,160.27682211875,161.09470945,43.0,102.0
1272,160.79406311875002,161.10656288958333,50.0,67.0
1273,161.05268361875,161.28113172708333,58.0,93.0
1274,161.05268361875,161.28975241041667,62.0,100.0
1275,161.05268361875,161.31453687500002,67.0,73.0
1276,161.05268361875,161.34147651041667,55.0,84.0
1277,161.31130411875,161.67445040416666,56.0,77.0
1278,161.31130411875,161.68091591666666,53.0,78.0
1279,161.31130411875,161.69492452708334,60.0,92.0
1280,161.82854511875001,162.0268208354167,53.0,105.0
1281,161.82854511875001,162.06022598333334,56.0,112.0
1282,161.82854511875001,162.07531217916667,60.0,108.0
1283,161.31130411875,162.18630347708333,41.0,102.0
1284,162.21647586875,162.349018875,53.0,78.0
1285,162.21647586875,162.37595851041667,56.0,70.0
1286,162.21647586875,162.42444985416668,60.0,89.0
1287,162.60440661875,162.83285472708334,58.0,109.0
1288,162.73371686875,162.8339323125,59.0,71.0
1289,162.60440661875,162.92552707291668,62.0,100.0
1290,162.60440661875,162.94707878125,55.0,102.0
1291,162.86302711875,163.2412596,50.0,67.0
1292,162.34578611875,163.26604406458333,43.0,102.0
1293,163.12164761875002,163.36518192291666,55.0,97.0
1294,163.12164761875002,163.37056985,58.0,105.0
1295,163.12164761875002,163.38565604583334,62.0,105.0
1296,163.38026811875,163.74987991666669,60.0,82.0
1297,163.38026811875,163.74987991666669,67.0,92.0
1298,163.38026811875,163.77035403958334,63.0,74.0
1299,163.89750911875,164.01819868541668,60.0,100.0
1300,163.63888861875,164.08931932291668,55.0,80.0
1301,163.38026811875,164.1141037875,48.0,100.0
1302,164.15612961875001,164.42013804583334,60.0,92.0
1303,163.89750911875,164.48694834166668,63.0,112.0
1304,163.89750911875,164.81453430833335,67.0,100.0
1305,164.93199111875,165.11518063958334,56.0,105.0
1306,164.41475011875,165.12164615208334,44.0,99.0
1307,164.67337061875,165.16474956875,51.0,61.0
1308,165.19061161875,165.38565457916667,56.0,99.0
1309,164.93199111875,165.41798214166667,63.0,50.0
1310,164.93199111875,165.90612833541667,67.0,94.0
1311,165.70785261875,166.0839299291667,53.0,87.0
1312,165.96647311875,166.15936090833333,58.0,105.0
1313,165.44923211875002,166.29729184166666,46.0,96.0
1314,165.96647311875,166.2994470125,62.0,102.0
1315,166.22509361875,166.39319694375,53.0,73.0
1316,165.96647311875,166.89966208958333,67.0,111.0
1317,166.74233461875,167.07207575625,50.0,80.0
1318,167.00095511875,167.09686022083335,55.0,97.0
1319,166.48371411875002,167.19384290833335,43.0,108.0
1320,167.00095511875,167.42660135833333,58.0,105.0
1321,167.25957561875,167.46108409166666,55.0,94.0
1322,167.00095511875,167.48048062916666,62.0,111.0
1323,167.00095511875,167.71000632291668,67.0,82.0
1324,167.77681661875002,168.13134222083335,55.0,71.0
1325,168.03543711875,168.17121288125,60.0,105.0
1326,167.51819611875,168.29729037500002,48.0,105.0
1327,168.03543711875,168.50634194583333,63.0,112.0
1328,168.29405761875,168.54297985,60.0,97.0
1329,168.81129861875002,169.1184104625,51.0,52.0
1330,168.55267811875,169.14966043958333,44.0,105.0
1331,169.06991911875,169.17552248958333,56.0,96.0
1332,169.06991911875,169.2089276375,60.0,80.0
1333,169.06991911875,169.51388431041667,63.0,85.0
1334,169.32853961875,169.54405670208334,56.0,105.0
1335,168.03543711875,169.83823752083333,67.0,108.0
1336,170.10440111875002,170.19491829375,58.0,96.0
1337,169.84578061875,170.28651305416668,53.0,67.0
1338,170.10440111875002,170.43198708541667,62.0,102.0
1339,169.58716011875,170.45569396458333,46.0,109.0
1340,170.36302161875,170.56453009166668,58.0,99.0
1341,170.10440111875002,171.02465906458335,67.0,102.0
1342,171.13888311875002,171.19060721875002,55.0,92.0
1343,170.88026261875,171.35978812916667,50.0,78.0
1344,170.62164211875,171.43414152291666,43.0,102.0
1345,171.13888311875002,171.46000357291666,58.0,109.0
1346,171.13888311875002,171.65181377708333,62.0,108.0
1347,171.39750361875,171.69814995000002,55.0,111.0
1348,171.13888311875002,171.71754648750002,67.0,92.0
1349,171.65612411875,171.71754648750002,67.0,92.0
1350,171.65612411875,172.02573591666666,60.0,82.0
1351,171.65612411875,172.04621003958334,63.0,74.0
1352,172.17336511875,172.29405468541668,60.0,100.0
1353,171.91474461875,172.36517532291668,55.0,80.0
1354,171.65612411875,172.3899597875,48.0,100.0
1355,172.43198561875002,172.69599404583334,60.0,92.0
1356,172.17336511875,172.76280434166668,63.0,112.0
1357,172.17336511875,173.09039030833333,67.0,100.0
1358,173.20784711875,173.39103663958335,56.0,105.0
1359,172.69060611875,173.39750215208335,44.0,99.0
1360,172.94922661875,173.44060556875002,51.0,61.0
1361,173.46646761875002,173.66151057916667,56.0,99.0
1362,173.20784711875,173.69383814166667,63.0,50.0
1363,173.20784711875,174.18198433541667,67.0,94.0
1364,173.98370861875,174.35978592916666,53.0,87.0
1365,174.24232911875,174.43521690833333,58.0,105.0
1366,173.72508811875,174.57314784166667,46.0,96.0
1367,174.24232911875,174.5753030125,62.0,102.0
1368,174.50094961875,174.66905294375002,53.0,73.0
1369,174.24232911875,175.17551808958333,67.0,111.0
1370,175.01819061875,175.34793175625,50.0,80.0
1371,175.27681111875,175.37271622083335,55.0,97.0
1372,174.75957011875002,175.46969890833333,43.0,108.0
1373,175.27681111875,175.70245735833333,58.0,105.0
1374,175.53543161875,175.73694009166667,55.0,94.0
1375,175.27681111875,175.75633662916667,62.0,111.0
1376,175.27681111875,175.98586232291666,67.0,82.0
1377,175.79405211875002,176.16043116041666,53.0,97.0
1378,175.79405211875002,176.1722846,56.0,105.0
1379,175.79405211875002,176.18090528333335,60.0,100.0
1380,176.05267261875,176.42443958750002,48.0,78.0
1381,175.79405211875002,176.54943949583335,41.0,100.0
1382,176.31129311875,176.61409462083333,56.0,109.0
1383,176.56991361875,176.68198250208334,53.0,111.0
1384,176.31129311875,176.68629284375,60.0,117.0
1385,176.82853411875,177.22831830833334,55.0,82.0
1386,176.82853411875,177.24232691875,62.0,87.0
1387,177.34577511875,177.44275780625,55.0,97.0
1388,177.08715461875002,177.49771466250002,50.0,67.0
1389,176.82853411875,177.55698186041667,43.0,89.0
1390,177.34577511875,177.63564559583335,58.0,105.0
1391,177.34577511875,177.7563351625,62.0,108.0
1392,177.60439561875,177.76711101666666,55.0,97.0
1393,177.86301611875,178.16042969375002,56.0,112.0
1394,177.86301611875,178.18736932916667,60.0,102.0
1395,177.86301611875,178.486938075,44.0,99.0
1396,178.38025711875,178.49771392916668,56.0,112.0
1397,178.12163661875002,178.62594659375,51.0,99.0
1398,178.38025711875,178.68629137708334,60.0,117.0
1399,178.63887761875,178.78650682083335,56.0,90.0
1400,178.89749811875,179.15611861875,58.0,105.0
1401,178.89749811875,179.20999788958335,62.0,97.0
1402,179.15611861875,179.54297178333334,53.0,89.0
1403,178.89749811875,179.61732517708333,46.0,96.0
1404,179.67335961875,179.83607501666668,53.0,105.0
1405,179.41473911875002,179.83823018750002,58.0,112.0
1406,179.41473911875002,179.88887670208334,62.0,108.0
1407,179.93198011875,180.3102126,53.0,92.0
1408,179.93198011875,180.32529879583333,56.0,102.0
1409,179.93198011875,180.32853155208335,60.0,100.0
1410,180.44922111875002,180.504177975,53.0,84.0
1411,180.19060061875,180.54728139166667,48.0,53.0
1412,179.93198011875,180.72292781458333,41.0,100.0
1413,180.44922111875002,181.02141897500002,56.0,112.0
1414,180.70784161875,181.03219482916668,53.0,67.0
1415,180.44922111875002,181.06991031875,60.0,111.0
1416,181.22508261875,181.35439286875,53.0,92.0
1417,181.48370311875001,181.52034102291668,53.0,84.0
1418,180.96646211875,181.7067633,48.0,94.0
1419,180.96646211875,181.7272374229167,41.0,66.0
1420,181.48370311875001,181.78003910833334,56.0,116.0
1421,181.48370311875001,181.85654767291666,60.0,111.0
1422,181.74232361875002,181.86947869791666,53.0,108.0
1423,182.00094411875,182.12163368541667,55.0,97.0
1424,182.00094411875,182.33715076875,60.0,114.0
1425,182.25956461875,182.40611623541668,55.0,102.0
1426,182.00094411875,182.42659035833333,48.0,120.0
1427,182.51818511875,182.66581432083333,53.0,108.0
1428,182.51818511875,182.86085728125002,58.0,90.0
1429,182.77680561875002,182.99878821458333,53.0,105.0
1430,182.51818511875,183.01602958125,46.0,116.0
1431,183.03542611875,183.47077062708334,58.0,74.0
1432,183.03542611875,183.47292579791667,63.0,105.0
1433,183.03542611875,183.4761585541667,60.0,79.0
1434,183.03542611875,183.51279645833333,51.0,112.0
1435,183.55266711875,183.969692675,65.0,108.0
1436,183.55266711875,183.98477887083334,58.0,93.0
1437,183.55266711875,183.98693404166667,63.0,90.0
1438,183.55266711875,184.02357194583334,46.0,105.0
1439,184.06990811875002,184.44490784375,60.0,87.0
1440,184.06990811875002,184.45137335625,63.0,109.0
1441,184.06990811875002,184.46645955208334,67.0,94.0
1442,184.06990811875002,184.62163185208334,48.0,100.0
1443,184.58714911875,184.77033863958334,60.0,105.0
1444,184.58714911875,185.004174675,63.0,116.0
1445,184.97507986875002,185.10223494791668,60.0,71.0
1446,185.36301061875,185.67874314583335,60.0,100.0
1447,185.36301061875,185.7455534416667,63.0,77.0
1448,185.36301061875,185.74663102708334,56.0,93.0
1449,184.58714911875,185.74986378333335,67.0,105.0
1450,185.10439011875002,185.95568259791668,44.0,90.0
1451,185.88025161875,185.98908774583333,56.0,59.0
1452,185.88025161875,185.99232050208334,63.0,41.0
1453,185.88025161875,186.06128596875,67.0,78.0
1454,186.13887211875002,186.52249252708333,62.0,97.0
1455,186.13887211875002,186.53757872291666,58.0,87.0
1456,186.13887211875002,186.555897675,67.0,69.0
1457,186.65611311875,186.86624227500002,58.0,102.0
1458,186.13887211875002,187.06775074791668,46.0,102.0
1459,186.65611311875,187.17766446041668,62.0,114.0
1460,187.04404386875,187.20675926666667,58.0,46.0
1461,186.65611311875,187.33391434583334,67.0,108.0
1462,187.43197461875002,187.67550892291666,63.0,72.0
1463,187.43197461875002,187.71753475416668,58.0,105.0
1464,187.43197461875002,187.76279334166668,55.0,105.0
1465,187.43197461875002,187.78865539166668,62.0,94.0
1466,187.43197461875002,187.84576741875,67.0,92.0
1467,187.17335411875,187.88348290833335,43.0,108.0
1468,187.94921561875,188.02249142708334,55.0,94.0
1469,187.94921561875,188.02787935416669,62.0,97.0
1470,187.94921561875,188.03650003750002,58.0,105.0
1471,187.94921561875,188.12055170000002,67.0,73.0
1472,188.20783611875,188.60977547916667,60.0,80.0
1473,188.20783611875,188.63348235833334,67.0,60.0
1474,188.20783611875,188.89425802916668,48.0,105.0
1475,188.72507711875,188.95029247083335,60.0,108.0
1476,188.72507711875,189.02895620625,63.0,112.0
1477,189.11300786875,189.17981816458334,63.0,45.0
1478,189.11300786875,189.2369301916667,60.0,89.0
1479,189.50093861875,189.76817980208335,60.0,97.0
1480,189.50093861875,189.86839524583334,63.0,72.0
1481,189.50093861875,189.87486075833334,56.0,102.0
1482,188.72507711875,189.90503315,67.0,100.0
1483,189.24231811875,189.96430034791666,44.0,93.0
1484,190.01817961875,190.09361059791667,60.0,100.0
1485,190.01817961875,190.14748986875,56.0,87.0
1486,190.27680011875,190.64641191666666,62.0,89.0
1487,190.27680011875,190.65826535625,58.0,93.0
1488,190.01817961875,190.6744291375,67.0,94.0
1489,190.79404111875002,190.98908407916667,58.0,105.0
1490,190.79404111875002,191.04619610625,62.0,108.0
1491,190.27680011875,191.20567874791666,46.0,99.0
1492,191.18197186875,191.31774763125,58.0,82.0
1493,190.79404111875002,191.5192561041667,67.0,105.0
1494,191.56990261875,191.909342025,58.0,105.0
1495,191.56990261875,191.9158075375,62.0,111.0
1496,191.56990261875,191.91904029375002,55.0,105.0
1497,191.56990261875,191.96322129583334,67.0,76.0
1498,191.31128211875,192.03326434791668,43.0,105.0
1499,191.82852311875,192.04188503125002,50.0,78.0
1500,192.08714361875002,192.16580735416667,55.0,71.0
1501,192.08714361875002,192.1690401104167,62.0,89.0
1502,192.08714361875002,192.17766079375002,58.0,90.0
1503,192.08714361875002,192.30697104375,67.0,71.0
1504,192.34576411875,192.72399660000002,60.0,89.0
1505,192.34576411875,192.72722935625,67.0,94.0
1506,192.34576411875,192.7347724541667,63.0,93.0
1507,192.60438461875,192.92873782916666,55.0,30.0
1508,192.34576411875,192.97184124583333,48.0,94.0
1509,192.86300511875,193.11192735,63.0,112.0
1510,192.86300511875,193.1183928625,60.0,102.0
1511,192.86300511875,193.124858375,67.0,108.0
1512,193.25093586875002,193.36515992291666,63.0,105.0
1513,193.25093586875002,193.38024611875,60.0,82.0
1514,193.63886661875,193.91472848541667,60.0,100.0
1515,193.63886661875,193.99878014791668,63.0,70.0
1516,193.63886661875,194.0106335875,56.0,102.0
1517,193.25093586875002,194.02679736875,67.0,89.0
1518,193.38024611875,194.21968515833333,44.0,93.0
1519,194.15610761875,194.24446962291668,60.0,80.0
1520,193.89748711875,194.25524547708335,51.0,79.0
1521,194.15610761875,194.36408160416667,56.0,99.0
1522,194.15610761875,194.38778848333334,63.0,90.0
1523,194.15610761875,194.68089171666668,67.0,94.0
1524,194.93196911875,195.17873617916666,58.0,102.0
1525,194.93196911875,195.18843444791668,62.0,114.0
1526,194.93196911875,195.22938269375,67.0,108.0
1527,194.41472811875002,195.31343435625,46.0,105.0
1528,195.31989986875,195.38671016458335,62.0,97.0
1529,195.31989986875,195.47399458333334,58.0,93.0
1530,195.31989986875,195.51278765833334,67.0,80.0
1531,195.70783061875,196.04403726875,58.0,102.0
1532,195.70783061875,196.05050278125,55.0,97.0
1533,195.70783061875,196.07097690416668,62.0,102.0
1534,195.70783061875,196.07420966041667,67.0,60.0
1535,195.44921011875002,196.27679571875,43.0,105.0
1536,195.96645111875,196.30265776875,50.0,78.0
1537,196.22507161875,196.42658009166666,55.0,87.0
1538,196.22507161875,196.42981284791668,58.0,99.0
1539,196.22507161875,196.44489904375,62.0,92.0
1540,196.22507161875,196.49554555833333,67.0,82.0
1541,196.48369211875,196.49554555833333,67.0,100.0
1542,196.48369211875,196.80804532916667,63.0,105.0
1543,196.48369211875,196.8112780854167,60.0,92.0
1544,196.74231261875002,197.19274332291667,55.0,73.0
1545,196.48369211875,197.22722605625,48.0,105.0
1546,197.00093311875,197.23261398333335,60.0,105.0
1547,197.00093311875,197.24662259375,63.0,112.0
1548,197.00093311875,197.25632086250002,67.0,105.0
1549,197.38886386875,197.47399311666666,63.0,102.0
1550,197.38886386875,197.50955343541668,60.0,82.0
1551,197.38886386875,197.6830446875,67.0,94.0
1552,197.77679461875002,198.13670814791666,58.0,96.0
1553,197.77679461875002,198.1485615875,62.0,102.0
1554,197.77679461875002,198.15179434375,55.0,100.0
1555,197.77679461875002,198.18196673541667,67.0,73.0
1556,197.51817411875,198.33606145000002,43.0,102.0
1557,198.03541511875,198.34791488958334,50.0,67.0
1558,198.29403561875,198.52248372708334,58.0,93.0
1559,198.29403561875,198.53110441041667,62.0,100.0
1560,198.29403561875,198.555888875,67.0,73.0
1561,198.29403561875,198.58282851041668,55.0,84.0
1562,198.55265611875,198.91580240416667,56.0,77.0
1563,198.55265611875,198.92226791666667,53.0,78.0
1564,198.55265611875,198.93627652708335,60.0,92.0
1565,199.06989711875002,199.26817283541666,53.0,105.0
1566,199.06989711875002,199.30157798333335,56.0,112.0
1567,199.06989711875002,199.31666417916668,60.0,108.0
1568,198.55265611875,199.42765547708333,41.0,102.0
1569,199.45782786875,199.59037087500002,53.0,78.0
1570,199.45782786875,199.61731051041667,56.0,70.0
1571,199.45782786875,199.6658018541667,60.0,89.0
1572,199.84575861875,200.07420672708335,58.0,109.0
1573,199.97506886875001,200.0752843125,59.0,71.0
1574,199.84575861875,200.1668790729167,62.0,100.0
1575,199.84575861875,200.18843078125002,55.0,102.0
1576,200.10437911875002,200.4826116,50.0,67.0
1577,199.58713811875,200.50739606458333,43.0,102.0
1578,200.36299961875,200.60653392291667,55.0,97.0
1579,200.36299961875,200.61192185000002,58.0,105.0
1580,200.36299961875,200.62700804583335,62.0,105.0
1581,200.62162011875,200.99661984375,60.0,87.0
1582,200.62162011875,201.00308535625,63.0,109.0
1583,200.62162011875,201.01817155208334,67.0,94.0
1584,200.62162011875,201.17334385208335,48.0,100.0
1585,201.13886111875001,201.32205063958335,60.0,105.0
1586,201.13886111875001,201.555886675,63.0,116.0
1587,201.52679186875,201.65394694791667,60.0,71.0
1588,201.91472261875,202.23045514583333,60.0,100.0
1589,201.91472261875,202.29726544166667,63.0,77.0
1590,201.91472261875,202.29834302708335,56.0,93.0
1591,201.13886111875001,202.30157578333333,67.0,105.0
1592,201.65610211875,202.5073945979167,44.0,90.0
1593,202.43196361875002,202.54079974583334,56.0,59.0
1594,202.43196361875002,202.54403250208335,63.0,41.0
1595,202.43196361875002,202.61299796875,67.0,78.0
1596,202.69058411875,203.07420452708334,62.0,97.0
1597,202.69058411875,203.08929072291667,58.0,87.0
1598,202.69058411875,203.10760967500002,67.0,69.0
1599,203.20782511875,203.417954275,58.0,102.0
1600,202.69058411875,203.61946274791669,46.0,102.0
1601,203.20782511875,203.7293764604167,62.0,114.0
1602,203.59575586875002,203.75847126666667,58.0,46.0
1603,203.20782511875,203.88562634583334,67.0,108.0
1604,203.98368661875,204.22722092291667,63.0,72.0
1605,203.98368661875,204.2692467541667,58.0,105.0
1606,203.98368661875,204.3145053416667,55.0,105.0
1607,203.98368661875,204.34036739166666,62.0,94.0
1608,203.98368661875,204.39747941875,67.0,92.0
1609,203.72506611875002,204.43519490833333,43.0,108.0
1610,204.50092761875,204.57420342708335,55.0,94.0
1611,204.50092761875,204.57959135416667,62.0,97.0
1612,204.50092761875,204.5882120375,58.0,105.0
1613,204.50092761875,204.6722637,67.0,73.0
1614,204.75954811875002,205.16148747916668,60.0,80.0
1615,204.75954811875002,205.18519435833335,67.0,60.0
1616,204.75954811875002,205.4459700291667,48.0,105.0
1617,205.27678911875,205.50200447083333,60.0,108.0
1618,205.27678911875,205.58066820625,63.0,112.0
1619,205.66471986875,205.73153016458335,63.0,45.0
1620,205.66471986875,205.78864219166667,60.0,89.0
1621,206.05265061875002,206.31989180208333,60.0,97.0
1622,206.05265061875002,206.42010724583335,63.0,72.0
1623,206.05265061875002,206.42657275833335,56.0,102.0
1624,205.27678911875,206.45674515000002,67.0,100.0
1625,205.79403011875002,206.51601234791667,44.0,93.0
1626,206.56989161875,206.64532259791667,60.0,100.0
1627,206.56989161875,206.69920186875,56.0,87.0
1628,206.82851211875,207.19812391666667,62.0,89.0
1629,206.82851211875,207.20997735625002,58.0,93.0
1630,206.56989161875,207.2261411375,67.0,94.0
1631,207.34575311875,207.54079607916668,58.0,105.0
1632,207.34575311875,207.59790810625,62.0,108.0
1633,206.82851211875,207.75739074791667,46.0,99.0
1634,207.73368386875,207.86945963125,58.0,82.0
1635,207.34575311875,208.07096810416667,67.0,105.0
1636,208.12161461875002,208.461054025,58.0,105.0
1637,208.12161461875002,208.4675195375,62.0,111.0
1638,208.12161461875002,208.47075229375,55.0,105.0
1639,208.12161461875002,208.51493329583334,67.0,76.0
1640,207.86299411875,208.58497634791667,43.0,105.0
1641,208.38023511875002,208.59359703125,50.0,78.0
1642,208.63885561875,208.71751935416668,55.0,71.0
1643,208.63885561875,208.72075211041667,62.0,89.0
1644,208.63885561875,208.72937279375,58.0,90.0
1645,208.63885561875,208.85868304375,67.0,71.0
1646,208.89747611875,209.2757086,60.0,89.0
1647,208.89747611875,209.27894135625002,67.0,94.0
1648,208.89747611875,209.28648445416667,63.0,93.0
1649,209.15609661875,209.48044982916667,55.0,30.0
1650,208.89747611875,209.52355324583334,48.0,94.0
1651,209.41471711875002,209.66363935,63.0,112.0
1652,209.41471711875002,209.6701048625,60.0,102.0
1653,209.41471711875002,209.676570375,67.0,108.0
1654,209.80264786875,209.91687192291667,63.0,105.0
1655,209.80264786875,209.93195811875,60.0,82.0
1656,210.19057861875,210.46644048541668,60.0,100.0
1657,210.19057861875,210.55049214791669,63.0,70.0
1658,210.19057861875,210.5623455875,56.0,102.0
1659,209.80264786875,210.57850936875002,67.0,89.0
1660,209.93195811875,210.77139715833334,44.0,93.0
1661,210.70781961875,210.79618162291666,60.0,80.0
1662,210.44919911875002,210.80695747708333,51.0,79.0
1663,210.70781961875,210.91579360416668,56.0,99.0
1664,210.70781961875,210.93950048333335,63.0,90.0
1665,210.70781961875,211.2326037166667,67.0,94.0
1666,211.48368111875,211.73044817916667,58.0,102.0
1667,211.48368111875,211.7401464479167,62.0,114.0
1668,211.48368111875,211.78109469375002,67.0,108.0
1669,210.96644011875,211.86514635625,46.0,105.0
1670,211.87161186875,211.93842216458333,62.0,97.0
1671,211.87161186875,212.02570658333335,58.0,93.0
1672,211.87161186875,212.06449965833335,67.0,80.0
1673,212.25954261875,212.59574926875,58.0,102.0
1674,212.25954261875,212.60221478125,55.0,97.0
1675,212.25954261875,212.62268890416667,62.0,102.0
1676,212.25954261875,212.62592166041668,67.0,60.0
1677,212.00092211875,212.82850771875002,43.0,105.0
1678,212.51816311875,212.85436976875002,50.0,78.0
1679,212.77678361875002,212.97829209166667,55.0,87.0
1680,212.77678361875002,212.9815248479167,58.0,99.0
1681,212.77678361875002,212.99661104375002,62.0,92.0
1682,212.77678361875002,213.04725755833334,67.0,82.0
1683,213.03540411875,213.04725755833334,67.0,100.0
1684,213.03540411875,213.35975732916668,63.0,105.0
1685,213.03540411875,213.36299008541667,60.0,92.0
1686,213.29402461875,213.74445532291668,55.0,73.0
1687,213.03540411875,213.77893805625,48.0,105.0
1688,213.55264511875,213.78432598333333,60.0,105.0
1689,213.55264511875,213.79833459375,63.0,112.0
1690,213.55264511875,213.8080328625,67.0,105.0
1691,213.94057586875002,214.02570511666667,63.0,102.0
1692,213.94057586875002,214.0612654354167,60.0,82.0
1693,213.94057586875002,214.2347566875,67.0,94.0
1694,214.32850661875,214.68842014791667,58.0,96.0
1695,214.32850661875,214.70027358750002,62.0,102.0
1696,214.32850661875,214.70350634375,55.0,100.0
1697,214.32850661875,214.73367873541667,67.0,73.0
1698,214.06988611875002,214.88777345,43.0,102.0
1699,214.58712711875,214.89962688958335,50.0,67.0
1700,214.84574761875,215.07419572708335,58.0,93.0
1701,214.84574761875,215.08281641041668,62.0,100.0
1702,214.84574761875,215.107600875,67.0,73.0
1703,214.84574761875,215.13454051041668,55.0,84.0
1704,215.10436811875002,215.46751440416668,56.0,77.0
1705,215.10436811875002,215.47397991666668,53.0,78.0
1706,215.10436811875002,215.48798852708333,60.0,92.0
1707,215.62160911875,215.81988483541667,53.0,105.0
1708,215.62160911875,215.85328998333335,56.0,112.0
1709,215.62160911875,215.8683761791667,60.0,108.0
1710,215.10436811875002,215.97936747708334,41.0,102.0
1711,216.00953986875,216.142082875,53.0,78.0
1712,216.00953986875,216.16902251041668,56.0,70.0
1713,216.00953986875,216.21751385416667,60.0,89.0
1714,216.39747061875002,216.62591872708333,58.0,109.0
1715,216.52678086875,216.6269963125,59.0,71.0
1716,216.39747061875002,216.71859107291667,62.0,100.0
1717,216.39747061875002,216.74014278125,55.0,102.0
1718,216.65609111875,217.03432360000002,50.0,67.0
1719,216.13885011875,217.05910806458334,43.0,102.0
1720,216.91471161875,217.15824592291668,55.0,97.0
1721,216.91471161875,217.16363385,58.0,105.0
1722,216.91471161875,217.17872004583333,62.0,105.0
1723,217.17333211875,217.49768532916667,63.0,105.0
1724,217.17333211875,217.50091808541669,60.0,92.0
1725,217.17333211875,217.50091808541669,67.0,100.0
1726,217.43195261875002,217.88238332291667,55.0,73.0
1727,217.17333211875,217.91686605625,48.0,105.0
1728,217.69057311875,217.92225398333335,60.0,105.0
1729,217.69057311875,217.93626259375,63.0,112.0
1730,217.69057311875,217.94596086250002,67.0,105.0
1731,218.07850386875,218.1636331166667,63.0,102.0
1732,218.07850386875,218.19919343541667,60.0,82.0
1733,218.07850386875,218.3726846875,67.0,94.0
1734,218.46643461875001,218.82634814791666,58.0,96.0
1735,218.46643461875001,218.8382015875,62.0,102.0
1736,218.46643461875001,218.84143434375,55.0,100.0
1737,218.46643461875001,218.87160673541666,67.0,73.0
1738,218.20781411875,219.02570145,43.0,102.0
1739,218.72505511875002,219.03755488958333,50.0,67.0
1740,218.98367561875,219.21212372708334,58.0,93.0
1741,218.98367561875,219.22074441041667,62.0,100.0
1742,218.98367561875,219.24552887500002,67.0,73.0
1743,218.98367561875,219.27246851041667,55.0,84.0
1744,219.24229611875,219.60544240416667,56.0,77.0
1745,219.24229611875,219.61190791666667,53.0,78.0
1746,219.24229611875,219.62591652708335,60.0,92.0
1747,219.75953711875002,219.9578128354167,53.0,105.0
1748,219.75953711875002,219.99121798333334,56.0,112.0
1749,219.75953711875002,220.00630417916668,60.0,108.0
1750,219.24229611875,220.11729547708333,41.0,102.0
1751,220.14746786875,220.28001087500002,53.0,78.0
1752,220.14746786875,220.30695051041667,56.0,70.0
1753,220.14746786875,220.35544185416668,60.0,89.0
1754,220.53539861875,220.76384672708335,58.0,109.0
1755,220.66470886875,220.7649243125,59.0,71.0
1756,220.53539861875,220.85651907291668,62.0,100.0
1757,220.53539861875,220.87807078125002,55.0,102.0
1758,220.79401911875001,221.1722516,50.0,67.0
1759,220.27677811875,221.19703606458333,43.0,102.0
1760,221.05263961875002,221.29617392291667,55.0,97.0
1761,221.05263961875002,221.30156185,58.0,105.0
1762,221.05263961875002,221.31664804583335,62.0,105.0
1763,221.31126011875,221.6356133291667,63.0,105.0
1764,221.31126011875,221.63884608541667,60.0,92.0
1765,221.31126011875,221.63884608541667,67.0,100.0
1766,221.56988061875,222.02031132291668,55.0,73.0
1767,221.31126011875,222.05479405625002,48.0,105.0
1768,221.82850111875,222.06018198333334,60.0,105.0
1769,221.82850111875,222.07419059375002,63.0,112.0
1770,221.82850111875,222.0838888625,67.0,105.0
1771,222.21643186875002,222.30156111666668,63.0,102.0
1772,222.21643186875002,222.33712143541666,60.0,82.0
1773,222.21643186875002,222.51061268750001,67.0,94.0
1774,222.60436261875,222.96427614791668,58.0,96.0
1775,222.60436261875,222.9761295875,62.0,102.0
1776,222.60436261875,222.97936234375,55.0,100.0
1777,222.60436261875,223.00953473541668,67.0,73.0
1778,222.34574211875,223.16362945,43.0,102.0
1779,222.86298311875,223.17548288958335,50.0,67.0
1780,223.12160361875002,223.35005172708335,58.0,93.0
1781,223.12160361875002,223.3586724104167,62.0,100.0
1782,223.12160361875002,223.383456875,67.0,73.0
1783,223.12160361875002,223.4103965104167,55.0,84.0
1784,223.38022411875002,224.25522347708335,41.0,102.0
1785,223.38022411875002,225.03862807500002,56.0,77.0
1786,223.38022411875002,225.04401600208334,53.0,78.0
1787,223.38022411875002,225.05910219791667,60.0,92.0
