,start,end,pitch,velocity
0,26.5378395625,26.9457344625,60.0,97.0
1,26.9325765625,27.345405675000002,63.0,102.0
2,27.3273135625,27.7220505625,65.0,89.0
3,27.7220505625,28.095405975000002,68.0,112.0
4,28.1167875625,28.549353525,65.0,90.0
5,28.5115245625,29.786196125,70.0,122.0
6,30.4852095625,30.746722825,72.0,100.0
7,30.6825780625,30.9259992125,70.0,90.0
8,30.8799465625,31.898039075,68.0,89.0
9,32.0641575625,32.4292892875,68.0,112.0
10,32.4588945625,32.773039425,70.0,99.0
11,32.8536315625,33.1463948375,72.0,83.0
12,33.2483685625,33.6579082,72.0,112.0
13,33.6431055625,33.94080305,70.0,79.0
14,34.0378425625,34.4605401,70.0,112.0
15,34.4325795625,34.8306060375,68.0,90.0
16,34.8273165625,36.5806067375,65.0,89.0
17,39.1694235625,39.523042125,60.0,93.0
18,39.5641605625,40.213831875000004,63.0,107.0
19,40.3536345625,40.766463675,65.0,93.0
20,40.7483715625,41.189161212500004,68.0,102.0
21,41.143108562500004,41.6266613875,70.0,100.0
22,41.9325825625,42.486859100000004,70.0,112.0
23,42.7220565625,43.194096225,70.0,122.0
24,43.5115305625,43.884885975,70.0,112.0
25,43.9062675625,44.601991525,68.0,100.0
26,44.695741562500004,44.9687679875,70.0,117.0
27,45.0904785625,45.4079129,70.0,122.0
28,45.4852155625,45.7516630375,72.0,97.0
29,45.8799525625,46.259886925,72.0,100.0
30,46.2746895625,46.53291335,70.0,66.0
31,46.6694265625,47.1200846375,70.0,112.0
32,47.0641635625,47.4687689875,68.0,73.0
33,47.4589005625,49.7648225375,65.0,85.0
34,51.8010075625,52.2089024625,60.0,97.0
35,52.1957445625,52.608573675,63.0,102.0
36,52.5904815625,52.9852185625,65.0,89.0
37,52.9852185625,53.358573975,68.0,112.0
38,53.3799555625,53.812521525,65.0,90.0
39,53.7746925625,55.049364125000004,70.0,122.0
40,55.7483775625,56.009890825,72.0,100.0
41,55.9457460625,56.1891672125,70.0,90.0
42,56.1431145625,57.161207075,68.0,89.0
43,57.3273255625,57.6924572875,68.0,112.0
44,57.7220625625,58.036207425,70.0,99.0
45,58.1167995625,58.4095628375,72.0,83.0
46,58.5115365625,58.9210762,72.0,112.0
47,58.9062735625,59.20397105,70.0,79.0
48,59.301010562500004,59.7237081,70.0,112.0
49,59.6957475625,60.0937740375,68.0,90.0
50,60.0904845625,61.8437747375,65.0,89.0
51,64.4325915625,64.786210125,60.0,93.0
52,64.8273285625,65.476999875,63.0,107.0
53,65.6168025625,66.029631675,65.0,93.0
54,66.0115395625,66.4523292125,68.0,102.0
55,66.4062765625,66.8898293875,70.0,100.0
56,67.1957505625,67.7500271,70.0,112.0
57,67.9852245625,68.457264225,70.0,122.0
58,68.7746985625,69.148053975,70.0,112.0
59,69.1694355625,69.865159525,68.0,100.0
60,69.9589095625,70.2319359875,70.0,117.0
61,70.3536465625,70.6710809,70.0,122.0
62,70.7483835625,71.0148310375,72.0,97.0
63,71.1431205625,71.523054925,72.0,100.0
64,71.5378575625,71.79608135,70.0,66.0
65,71.9325945625,72.38325263750001,70.0,112.0
66,72.3273315625,72.7319369875,68.0,73.0
67,72.7220685625,75.0279905375,65.0,85.0
68,77.0641755625,77.3043072375,68.0,82.0
69,77.4589125625,78.102004925,68.0,122.0
70,78.2483865625,78.529636675,70.0,122.0
71,78.6431235625,79.0477289875,72.0,90.0
72,79.0378605625,79.3552949,75.0,122.0
73,79.4325975625,79.7220713625,75.0,102.0
74,79.8273345625,80.180953125,75.0,112.0
75,80.2220715625,80.6069401375,72.0,86.0
76,80.6168085625,80.904637625,75.0,122.0
77,81.0115455625,81.2615456625,77.0,112.0
78,81.4062825625,81.69740110000001,77.0,96.0
79,81.8010195625,82.12503285,75.0,102.0
80,82.1957565625,82.500033,77.0,107.0
81,82.5904935625,82.85694103750001,77.0,107.0
82,82.9852305625,83.24345435000001,77.0,102.0
83,83.3799675625,83.7122045375,75.0,102.0
84,83.7747045625,84.15134945,72.0,107.0
85,84.5641785625,84.9342445,75.0,127.0
86,84.9589155625,85.2812841125,77.0,107.0
87,85.3536525625,85.621744775,80.0,122.0
88,85.7483895625,86.0214159875,80.0,127.0
89,86.1431265625,86.447403,80.0,127.0
90,86.53786356250001,86.7747057625,80.0,127.0
91,86.9326005625,87.1447717,80.0,127.0
92,87.3273375625,87.602008725,77.0,112.0
93,87.7220745625,87.9391799125,77.0,96.0
94,88.1168115625,88.4358906375,80.0,127.0
95,88.5115485625,88.7977328875,77.0,117.0
96,88.9062855625,89.180956725,77.0,99.0
97,89.3010225625,89.5608910875,77.0,107.0
98,89.6957595625,89.95398335,75.0,127.0
99,90.09049656250001,90.674378375,72.0,117.0
100,90.8799705625,91.233589125,75.0,127.0
101,91.2747075625,91.6562866625,72.0,100.0
102,91.6694445625,91.9391815125,70.0,112.0
103,92.0641815625,92.34872115,70.0,112.0
104,92.4589185625,92.779642375,70.0,127.0
105,92.8536555625,93.174379375,68.0,112.0
106,93.2483925625,93.7368796,65.0,100.0
107,94.0378665625,94.3536561625,68.0,127.0
108,94.4326035625,94.6891826125,70.0,112.0
109,94.8273405625,95.516485575,70.0,122.0
110,95.6168145625,95.8964199375,70.0,117.0
111,96.0115515625,96.371749075,72.0,102.0
112,96.4062885625,96.7056307875,75.0,122.0
113,96.8010255625,97.0543151375,77.0,127.0
114,97.19576256250001,97.5789864,77.0,107.0
115,97.5904995625,98.1135260875,75.0,117.0
116,98.3799735625,99.4523424125,72.0,112.0
117,100.3536585625,100.7155008125,68.0,122.0
118,100.74839556250001,101.0378693625,70.0,117.0
119,101.1431325625,101.4605669,75.0,122.0
120,101.5378695625,101.8273433625,75.0,102.0
121,101.9326065625,102.286225125,75.0,112.0
122,102.3273435625,102.7122121375,72.0,86.0
123,102.7220805625,103.009909625,75.0,122.0
124,103.1168175625,103.3668176625,77.0,112.0
125,103.5115545625,103.8026731,77.0,96.0
126,103.9062915625,104.23030485,75.0,102.0
127,104.30102856250001,104.605305,77.0,107.0
128,104.6957655625,104.9622130375,77.0,107.0
129,105.0905025625,105.34872635,77.0,102.0
130,105.4852395625,105.8174765375,75.0,102.0
131,105.8799765625,106.25662145,72.0,107.0
132,106.6694505625,107.0395165,75.0,127.0
133,107.0641875625,107.3865561125,77.0,107.0
134,107.4589245625,107.727016775,80.0,122.0
135,107.85366156250001,108.1266879875,80.0,127.0
136,108.2483985625,108.55267500000001,80.0,127.0
137,108.6431355625,108.8799777625,80.0,127.0
138,109.0378725625,109.2500437,80.0,127.0
139,109.4326095625,109.707280725,77.0,112.0
140,109.8273465625,110.0444519125,77.0,96.0
141,110.2220835625,110.54116263750001,80.0,127.0
142,110.6168205625,110.9030048875,77.0,117.0
143,111.0115575625,111.286228725,77.0,99.0
144,111.40629456250001,111.6661630875,77.0,107.0
145,111.8010315625,112.05925535,75.0,127.0
146,112.1957685625,112.779650375,72.0,117.0
147,112.9852425625,113.33886112500001,75.0,127.0
148,113.3799795625,113.76155866250001,72.0,100.0
149,113.7747165625,114.0444535125,70.0,112.0
150,114.1694535625,114.45399315,70.0,112.0
151,114.5641905625,114.88491437500001,70.0,127.0
152,114.9589275625,115.279651375,68.0,112.0
153,115.3536645625,115.84215160000001,65.0,100.0
154,116.1431385625,116.4589281625,68.0,127.0
155,116.5378755625,116.7944546125,70.0,112.0
156,116.9326125625,117.621757575,70.0,122.0
157,117.7220865625,118.0016919375,70.0,117.0
158,118.1168235625,118.477021075,72.0,102.0
159,118.5115605625,119.1069555375,70.0,107.0
160,119.3010345625,119.667811025,68.0,107.0
161,119.6957715625,119.96715325,65.0,75.0
162,120.0905085625,122.2155094125,65.0,99.0
163,133.9063035625,134.3141984625,60.0,97.0
164,134.3010405625,134.713869675,63.0,102.0
165,134.6957775625,135.0905145625,65.0,89.0
166,135.0905145625,135.463869975,68.0,112.0
167,135.4852515625,135.917817525,65.0,90.0
168,135.8799885625,137.154660125,70.0,122.0
169,137.8536735625,138.115186825,72.0,100.0
170,138.0510420625,138.2944632125,70.0,90.0
171,138.2484105625,139.266503075,68.0,89.0
172,139.4326215625,139.7977532875,68.0,112.0
173,139.8273585625,140.141503425,70.0,99.0
174,140.2220955625,140.51485883750001,72.0,83.0
175,140.6168325625,141.0263722,72.0,112.0
176,141.0115695625,141.30926705,70.0,79.0
177,141.4063065625,141.8290041,70.0,112.0
178,141.8010435625,142.1990700375,68.0,90.0
179,142.1957805625,143.9490707375,65.0,89.0
180,146.5378875625,146.891506125,60.0,93.0
181,146.9326245625,147.582295875,63.0,107.0
182,147.7220985625,148.134927675,65.0,93.0
183,148.1168355625,148.5576252125,68.0,102.0
184,148.5115725625,148.9951253875,70.0,100.0
185,149.3010465625,149.8553231,70.0,112.0
186,150.0905205625,150.562560225,70.0,122.0
187,150.8799945625,151.253349975,70.0,112.0
188,151.2747315625,151.970455525,68.0,100.0
189,152.0642055625,152.3372319875,70.0,117.0
190,152.4589425625,152.7763769,70.0,122.0
191,152.8536795625,153.1201270375,72.0,97.0
192,153.2484165625,153.628350925,72.0,100.0
193,153.6431535625,153.90137735,70.0,66.0
194,154.0378905625,154.4885486375,70.0,112.0
195,154.4326275625,154.8372329875,68.0,73.0
196,154.8273645625,157.1332865375,65.0,85.0
197,159.1694715625,159.4096032375,68.0,82.0
198,159.5642085625,160.207300925,68.0,122.0
199,160.3536825625,160.63493267500002,70.0,122.0
200,160.7484195625,161.1530249875,72.0,90.0
201,161.1431565625,161.4605909,75.0,122.0
202,161.5378935625,161.8273673625,75.0,102.0
203,161.9326305625,162.286249125,75.0,112.0
204,162.3273675625,162.7122361375,72.0,86.0
205,162.7221045625,163.009933625,75.0,122.0
206,163.1168415625,163.3668416625,77.0,112.0
207,163.5115785625,163.8026971,77.0,96.0
208,163.9063155625,164.23032885,75.0,102.0
209,164.3010525625,164.605329,77.0,107.0
210,164.6957895625,164.9622370375,77.0,107.0
211,165.0905265625,165.34875035,77.0,102.0
212,165.4852635625,165.8175005375,75.0,102.0
213,165.88000056250002,166.25664545,72.0,107.0
214,166.6694745625,167.03954050000002,75.0,127.0
215,167.0642115625,167.3865801125,77.0,107.0
216,167.4589485625,167.727040775,80.0,122.0
217,167.8536855625,168.1267119875,80.0,127.0
218,168.2484225625,168.552699,80.0,127.0
219,168.6431595625,168.8800017625,80.0,127.0
220,169.0378965625,169.2500677,80.0,127.0
221,169.4326335625,169.707304725,77.0,112.0
222,169.8273705625,170.0444759125,77.0,96.0
223,170.2221075625,170.5411866375,80.0,127.0
224,170.6168445625,170.9030288875,77.0,117.0
225,171.0115815625,171.286252725,77.0,99.0
226,171.4063185625,171.6661870875,77.0,107.0
227,171.8010555625,172.05927935,75.0,127.0
228,172.1957925625,172.779674375,72.0,117.0
229,172.98526656250002,173.338885125,75.0,127.0
230,173.3800035625,173.7615826625,72.0,100.0
231,173.7747405625,174.0444775125,70.0,112.0
232,174.1694775625,174.45401715,70.0,112.0
233,174.5642145625,174.884938375,70.0,127.0
234,174.9589515625,175.279675375,68.0,112.0
235,175.3536885625,175.8421756,65.0,100.0
236,176.1431625625,176.4589521625,68.0,127.0
237,176.5378995625,176.7944786125,70.0,112.0
238,176.9326365625,177.621781575,70.0,122.0
239,177.7221105625,178.0017159375,70.0,117.0
240,178.1168475625,178.477045075,72.0,102.0
241,178.5115845625,178.8109267875,75.0,122.0
242,178.9063215625,179.1596111375,77.0,127.0
243,179.3010585625,179.6842824,77.0,107.0
244,179.6957955625,180.2188220875,75.0,117.0
245,180.4852695625,181.5576384125,72.0,112.0
246,182.4589545625,182.8207968125,68.0,122.0
247,182.8536915625,183.1431653625,70.0,117.0
248,183.2484285625,183.5658629,75.0,122.0
249,183.6431655625,183.9326393625,75.0,102.0
250,184.0379025625,184.391521125,75.0,112.0
251,184.43263956250001,184.8175081375,72.0,86.0
252,184.8273765625,185.11520562500002,75.0,122.0
253,185.2221135625,185.4721136625,77.0,112.0
254,185.6168505625,185.9079691,77.0,96.0
255,186.0115875625,186.33560085,75.0,102.0
256,186.4063245625,186.710601,77.0,107.0
257,186.8010615625,187.0675090375,77.0,107.0
258,187.19579856250002,187.45402235,77.0,102.0
259,187.5905355625,187.9227725375,75.0,102.0
260,187.9852725625,188.36191745,72.0,107.0
261,188.7747465625,189.1448125,75.0,127.0
262,189.1694835625,189.4918521125,77.0,107.0
263,189.5642205625,189.832312775,80.0,122.0
264,189.9589575625,190.2319839875,80.0,127.0
265,190.3536945625,190.657971,80.0,127.0
266,190.7484315625,190.98527376250001,80.0,127.0
267,191.1431685625,191.3553397,80.0,127.0
268,191.53790556250001,191.812576725,77.0,112.0
269,191.9326425625,192.1497479125,77.0,96.0
270,192.3273795625,192.6464586375,80.0,127.0
271,192.7221165625,193.0083008875,77.0,117.0
272,193.1168535625,193.391524725,77.0,99.0
273,193.5115905625,193.7714590875,77.0,107.0
274,193.9063275625,194.16455135,75.0,127.0
275,194.3010645625,194.884946375,72.0,117.0
276,195.0905385625,195.444157125,75.0,127.0
277,195.4852755625,195.8668546625,72.0,100.0
278,195.8800125625,196.1497495125,70.0,112.0
279,196.2747495625,196.55928915,70.0,112.0
280,196.6694865625,196.990210375,70.0,127.0
281,197.0642235625,197.384947375,68.0,112.0
282,197.4589605625,197.9474476,65.0,100.0
283,198.2484345625,198.5642241625,68.0,127.0
284,198.64317156250002,198.89975061250001,70.0,112.0
285,199.0379085625,199.727053575,70.0,122.0
286,199.8273825625,200.1069879375,70.0,117.0
287,200.2221195625,200.582317075,72.0,102.0
288,200.6168565625,201.2122515375,70.0,107.0
289,201.4063305625,201.773107025,68.0,107.0
290,201.8010675625,202.07244925,65.0,75.0
291,202.1958045625,204.3208054125,65.0,99.0
292,234.9589755625,235.2023967125,68.0,112.0
293,235.3537125625,236.0132523,68.0,127.0
294,236.1431865625,236.5543709375,70.0,127.0
295,236.5379235625,236.7977920875,72.0,112.0
296,236.9326605625,237.2500949,75.0,122.0
297,237.3273975625,237.6168713625,75.0,102.0
298,237.7221345625,238.075753125,75.0,112.0
299,238.1168715625,238.5017401375,72.0,86.0
300,238.51160856250002,238.799437625,75.0,122.0
301,238.9063455625,239.1563456625,77.0,112.0
302,239.3010825625,239.5922011,77.0,96.0
303,239.6958195625,240.01983285,75.0,102.0
304,240.0905565625,240.394833,77.0,107.0
305,240.4852935625,240.7517410375,77.0,107.0
306,240.8800305625,241.13825435,77.0,102.0
307,241.2747675625,241.6070045375,75.0,102.0
308,241.6695045625,242.04614945,72.0,107.0
309,242.4589785625,242.8290445,75.0,127.0
310,242.8537155625,243.1760841125,77.0,107.0
311,243.2484525625,243.516544775,80.0,122.0
312,243.6431895625,243.9162159875,80.0,127.0
313,244.0379265625,244.342203,80.0,127.0
314,244.4326635625,244.6695057625,80.0,127.0
315,244.8274005625,245.0395717,80.0,127.0
316,245.2221375625,245.496808725,77.0,112.0
317,245.61687456250002,245.8339799125,77.0,96.0
318,246.0116115625,246.3306906375,80.0,127.0
319,246.4063485625,246.6925328875,77.0,117.0
320,246.8010855625,247.075756725,77.0,99.0
321,247.1958225625,247.4556910875,77.0,107.0
322,247.5905595625,247.84878335,75.0,127.0
323,247.9852965625,248.569178375,72.0,117.0
324,248.7747705625,249.128389125,75.0,127.0
325,249.1695075625,249.5510866625,72.0,100.0
326,249.5642445625,249.8339815125,70.0,112.0
327,249.9589815625,250.24352115,70.0,112.0
328,250.3537185625,250.674442375,70.0,127.0
329,250.7484555625,251.069179375,68.0,112.0
330,251.1431925625,251.6316796,65.0,100.0
331,251.9326665625,252.2484561625,68.0,127.0
332,252.3274035625,252.5839826125,70.0,112.0
333,252.72214056250002,253.411285575,70.0,122.0
334,253.5116145625,253.79121993750002,70.0,117.0
335,253.9063515625,254.266549075,72.0,102.0
336,254.3010885625,254.60043078750002,75.0,122.0
337,254.6958255625,254.9491151375,77.0,127.0
338,255.0905625625,255.4737864,77.0,107.0
339,255.4852995625,256.0083260875,75.0,117.0
340,256.2747735625,257.3471424125,72.0,112.0
341,258.2484585625,258.6103008125,68.0,122.0
342,258.6431955625,258.9326693625,70.0,117.0
343,259.0379325625,259.3553669,75.0,122.0
344,259.4326695625,259.7221433625,75.0,102.0
345,259.8274065625,260.181025125,75.0,112.0
346,260.2221435625,260.6070121375,72.0,86.0
347,260.6168805625,260.904709625,75.0,122.0
348,261.0116175625,261.2616176625,77.0,112.0
349,261.4063545625,261.6974731,77.0,96.0
350,261.8010915625,262.12510485,75.0,102.0
351,262.1958285625,262.500105,77.0,107.0
352,262.5905655625,262.8570130375,77.0,107.0
353,262.9853025625,263.24352635,77.0,102.0
354,263.38003956250003,263.71227653750003,75.0,102.0
355,263.7747765625,264.15142145,72.0,107.0
356,264.5642505625,264.9343165,75.0,127.0
357,264.9589875625,265.2813561125,77.0,107.0
358,265.3537245625,265.621816775,80.0,122.0
359,265.7484615625,266.0214879875,80.0,127.0
360,266.1431985625,266.447475,80.0,127.0
361,266.5379355625,266.7747777625,80.0,127.0
362,266.9326725625,267.1448437,80.0,127.0
363,267.3274095625,267.602080725,77.0,112.0
364,267.72214656250003,267.9392519125,77.0,96.0
365,268.1168835625,268.4359626375,80.0,127.0
366,268.5116205625,268.7978048875,77.0,117.0
367,268.9063575625,269.181028725,77.0,99.0
368,269.3010945625,269.5609630875,77.0,107.0
369,269.6958315625,269.95405535,75.0,127.0
370,270.0905685625,270.674450375,72.0,117.0
371,270.8800425625,271.233661125,75.0,127.0
372,271.2747795625,271.6563586625,72.0,100.0
373,271.6695165625,271.9392535125,70.0,112.0
374,272.0642535625,272.34879315,70.0,112.0
375,272.4589905625,272.779714375,70.0,127.0
376,272.8537275625,273.174451375,68.0,112.0
377,273.2484645625,273.7369516,65.0,100.0
378,274.0379385625,274.3537281625,68.0,127.0
379,274.4326755625,274.6892546125,70.0,112.0
380,274.8274125625,275.516557575,70.0,122.0
381,275.6168865625,275.8964919375,70.0,117.0
382,276.0116235625,276.371821075,72.0,102.0
383,276.4063605625,277.0017555375,70.0,107.0
384,277.1958345625,277.562611025,68.0,107.0
385,277.59057156250003,277.86195325,65.0,75.0
386,277.9853085625,280.1103094125,65.0,99.0
