,start,end,pitch,velocity
0,0.4851975625,1.0082240875,53.0,48.0
1,1.2746715625,1.7055927875,53.0,36.0
2,0.8799345625,2.0246718625,58.0,66.0
3,2.4588825625,2.529606275,58.0,29.0
4,2.0641455625,2.5838826125,53.0,48.0
5,0.09046056250000001,2.680922125,46.0,83.0
6,2.4588825625,3.1726986375,65.0,60.0
7,1.6694085625,3.2648039375,61.0,66.0
8,2.8536195625,3.2927644750000002,58.0,52.0
9,3.6430935625,4.134870075,48.0,43.0
10,4.0378305625,4.86184405,56.0,63.0
11,4.4325675625,4.91447565,48.0,53.0
12,5.2220415625,5.6759891125,48.0,45.0
13,3.2483565625,5.7450680875,41.0,66.0
14,6.0115155625,6.437502575,53.0,47.0
15,5.6167785625,6.45394995,56.0,77.0
16,4.8273045625,6.5213841875,60.0,69.0
17,6.8009895625,7.368424,48.0,47.0
18,7.1957265625,8.049345325,55.0,58.0
19,7.5904635625,8.1661216875,48.0,53.0
20,7.9852005625,8.4852007625,60.0,65.0
21,6.4062525625,8.924345675,36.0,76.0
22,8.3799375625,9.2500037,48.0,50.0
23,8.7746745625,9.582240675,60.0,67.0
24,9.1694115625,9.648030175,55.0,63.0
25,9.9588855625,10.45395155,48.0,53.0
26,10.7483595625,11.2236887,48.0,52.0
27,10.3536225625,11.3108597875,53.0,69.0
28,11.1430965625,11.8996758125,56.0,67.0
29,9.5641485625,12.213820675000001,41.0,61.0
30,11.5378335625,12.2746759625,48.0,38.0
31,11.9325705625,12.648031375,60.0,82.0
32,12.3273075625,12.674347175,56.0,66.0
33,13.1167815625,13.6102028125,53.0,59.0
34,13.9062555625,14.3832294375,53.0,47.0
35,13.511518562500001,14.5789532,58.0,72.0
36,14.6957295625,15.26974295,53.0,44.0
37,12.7220445625,15.2977034875,46.0,74.0
38,14.3009925625,15.5608614875,65.0,57.0
39,15.0904665625,15.878295825,61.0,47.0
40,15.4852035625,15.94079585,58.0,59.0
41,16.2746775625,16.773033025,48.0,51.0
42,17.0641515625,17.4983622625,48.0,39.0
43,17.4588885625,18.055928275,56.0,67.0
44,16.669414562500002,18.3371783875,53.0,76.0
45,17.8536255625,18.3602047125,48.0,51.0
46,15.8799405625,18.411191575,41.0,61.0
47,18.2483625625,19.088823425,60.0,74.0
48,18.6430995625,19.0937576375,53.0,61.0
49,20.2220475625,20.7352056625,48.0,33.0
50,19.8273105625,21.48027175,51.0,72.0
51,21.0115215625,21.5016533375,48.0,44.0
52,19.0378365625,21.503298075,36.0,69.0
53,19.4325735625,21.523034925,43.0,53.0
54,21.4062585625,22.1825746625,60.0,51.0
55,20.6167845625,22.2319167875,55.0,62.0
56,21.8009955625,22.2417852125,51.0,58.0
57,22.5904695625,23.062509225,48.0,47.0
58,23.3799435625,23.861851650000002,48.0,42.0
59,23.7746805625,24.509878225,56.0,62.0
60,22.9852065625,24.7286283125,53.0,67.0
61,22.1957325625,24.898036275,41.0,62.0
62,24.1694175625,25.3569180375,48.0,40.0
63,25.3536285625,26.8700765375,41.0,58.0
64,24.9588915625,26.976984475000002,56.0,49.0
65,24.5641545625,27.0181029125,60.0,73.0
66,28.9062615625,29.3898143875,53.0,45.0
67,29.6957355625,30.220406825,53.0,38.0
68,29.300998562500002,30.2286305125,58.0,76.0
69,30.4852095625,30.9457360625,53.0,52.0
70,30.0904725625,30.976986075,61.0,74.0
71,28.5115245625,31.042775575,46.0,58.0
72,30.8799465625,31.6398152875,65.0,68.0
73,31.2746835625,31.7187626875,58.0,66.0
74,32.0641575625,32.5740261875,48.0,61.0
75,32.8536315625,33.3371843875,48.0,55.0
76,32.4588945625,33.9342241,53.0,86.0
77,31.6694205625,34.3684348,41.0,69.0
78,33.6431055625,34.8552771,48.0,55.0
79,34.4325795625,34.8931060625,53.0,74.0
80,34.0378425625,34.963829775,56.0,59.0
81,33.2483685625,35.1661324875,60.0,81.0
82,35.2220535625,35.6891590125,48.0,60.0
83,36.0115275625,36.5411330375,48.0,56.0
84,35.6167905625,37.055935875,53.0,86.0
85,36.8010015625,37.213830675,48.0,52.0
86,34.8273165625,37.2878438625,41.0,73.0
87,36.4062645625,37.983567825,60.0,89.0
88,37.1957385625,38.01975205,56.0,88.0
89,37.5904755625,38.0246862625,53.0,66.0
90,39.1694235625,39.66448955,48.0,55.0
91,38.7746865625,39.78291065,51.0,89.0
92,39.9588975625,40.48027935,48.0,63.0
93,38.3799495625,40.5115293625,43.0,58.0
94,37.9852125625,40.5246872625,36.0,71.0
95,39.5641605625,41.1052796,60.0,65.0
96,40.3536345625,41.1463980375,51.0,81.0
97,40.7483715625,41.1496875125,55.0,72.0
98,41.5378455625,42.03291155,46.0,60.0
99,42.3273195625,42.8635039875,46.0,63.0
100,41.9325825625,43.0542935375,49.0,70.0
101,41.143108562500004,43.5213989875,34.0,82.0
102,42.7220565625,43.5658069,58.0,85.0
103,43.1167935625,43.62501745,46.0,59.0
104,43.5115305625,44.049359725,53.0,73.0
105,43.9062675625,44.2894914,58.0,63.0
106,45.4852155625,46.088834225,51.0,63.0
107,44.695741562500004,46.6332423375,46.0,41.0
108,44.3010045625,46.6661370875,39.0,75.0
109,46.2746895625,46.720413425000004,51.0,61.0
110,45.0904785625,46.7319265875,55.0,74.0
111,45.8799525625,47.42765055,63.0,93.0
112,46.6694265625,47.4868611,58.0,86.0
113,47.0641635625,47.50659795,55.0,63.0
114,47.8536375625,48.376664087500004,48.0,57.0
115,48.248374562500004,49.1973881,53.0,81.0
116,48.6431115625,49.220414425,48.0,63.0
117,49.0378485625,49.9473884,56.0,74.0
118,49.8273225625,50.2812701125,55.0,62.0
119,47.4589005625,50.5608754875,41.0,67.0
120,49.4325855625,50.659559737500004,48.0,56.0
121,50.6167965625,53.457258225000004,41.0,63.0
122,50.2220595625,53.5510082625,56.0,44.0
123,50.6167965625,53.5608766875,53.0,42.0
124,50.6167965625,53.5871924875,60.0,35.0
125,54.213837475,54.6973903,53.0,45.0
126,55.003311475000004,55.529627475,53.0,38.0
127,54.608574475,55.536206425,58.0,76.0
128,55.792785475,56.254956712500004,53.0,52.0
129,55.398048475,56.2845619875,61.0,74.0
130,53.819100475,56.351996225,46.0,58.0
131,56.187522475,56.9490359375,65.0,68.0
132,56.582259475,57.0263386,58.0,66.0
133,57.371733475,57.8832468375,48.0,61.0
134,58.161207475,58.6447603,48.0,55.0
135,57.766470475,59.2418000125,53.0,86.0
136,56.976996475,59.67765545,41.0,69.0
137,58.950681475,60.1628530125,48.0,55.0
138,59.740155475,60.200681975,53.0,74.0
139,59.345418475,60.273050425,56.0,59.0
140,58.555944475000004,60.4753531375,60.0,81.0
141,60.529629475,60.996734925,48.0,60.0
142,61.319103475,61.850353687500004,48.0,56.0
143,60.924366475,62.365156525,53.0,86.0
144,62.108577475000004,62.523051325,48.0,52.0
145,60.134892475,62.595419775,41.0,73.0
146,61.713840475,63.292788475,60.0,89.0
147,62.503314475,63.3273279625,56.0,88.0
148,62.898051475,63.3339069125,53.0,66.0
149,64.476999475,64.9737102,48.0,55.0
150,64.08226247500001,65.0921313,51.0,89.0
151,65.266473475,65.7895,48.0,63.0
152,63.687525475,65.819105275,43.0,58.0
153,63.292788475,65.832263175,36.0,71.0
154,64.871736475,66.4128555125,60.0,65.0
155,65.661210475,66.4556186875,51.0,81.0
156,66.055947475,66.4589081625,55.0,72.0
157,66.845421475,67.3421322,46.0,60.0
158,67.63489547500001,68.1710799,46.0,63.0
159,67.240158475,68.36186945,49.0,70.0
160,66.450684475,68.8306196375,34.0,82.0
161,68.029632475,68.87502755,58.0,85.0
162,68.424369475,68.9325933625,46.0,59.0
163,68.819106475,69.358580375,53.0,73.0
164,69.213843475,69.59871205,58.0,63.0
165,70.792791475,71.398054875,51.0,63.0
166,70.003317475,71.94081825,46.0,41.0
167,69.608580475,71.9753577375,39.0,75.0
168,71.582265475,72.0279893375,51.0,61.0
169,70.398054475,72.0395025,55.0,74.0
170,71.18752847500001,72.7368712,63.0,93.0
171,71.977002475,72.7944370125,58.0,86.0
172,72.371739475,72.8158186,55.0,63.0
173,73.161213475,73.6858847375,48.0,57.0
174,73.555950475,74.5049640125,53.0,81.0
175,73.950687475,74.529635075,48.0,63.0
176,74.345424475,75.25660905,56.0,74.0
177,75.134898475,75.588846025,55.0,62.0
178,72.766476475,75.8700961375,41.0,67.0
179,74.74016147500001,75.9687803875,48.0,56.0
180,75.924372475,78.766478875,41.0,63.0
181,75.529635475,78.858584175,56.0,44.0
182,75.924372475,78.8684526,53.0,42.0
183,75.924372475,78.8947684,60.0,35.0
184,79.6299660625,79.871742475,56.0,81.0
185,79.4325975625,79.88818985,60.0,72.0
186,79.8273345625,80.246742625,63.0,97.0
187,79.0378605625,80.51976905000001,44.0,92.0
188,79.2352290625,80.5806243375,51.0,59.0
189,80.0247030625,80.62503225,56.0,79.0
190,80.4194400625,81.0395061,60.0,75.0
191,80.2220715625,81.09871665,68.0,99.0
192,81.0115455625,81.4720720625,56.0,83.0
193,81.2089140625,81.5263484,60.0,82.0
194,80.81417706250001,81.69740110000001,51.0,59.0
195,81.6036510625,81.7187826875,56.0,73.0
196,80.6168085625,81.832269575,44.0,61.0
197,81.8010195625,82.0970723125,63.0,81.0
198,81.4062825625,82.09871705,68.0,100.0
199,81.9983880625,82.213848675,60.0,81.0
200,82.7878620625,82.92766475,56.0,81.0
201,82.3931250625,83.04608585,48.0,64.0
202,82.5904935625,83.055954275,53.0,77.0
203,83.1825990625,83.3470728125,48.0,64.0
204,82.1957565625,83.38819125,41.0,42.0
205,83.3799675625,83.6974019,56.0,97.0
206,82.9852305625,83.7187834875,60.0,95.0
207,83.5773360625,83.799375625,53.0,83.0
208,84.1694415625,84.628323325,53.0,86.0
209,84.36681006250001,84.713849675,56.0,72.0
210,84.7615470625,85.1529945875,53.0,75.0
211,83.9720730625,85.3372051875,48.0,67.0
212,84.9589155625,85.3733894125,60.0,60.0
213,84.5641785625,85.394771,65.0,68.0
214,83.7747045625,85.40134995,41.0,73.0
215,85.1562840625,85.40134995,56.0,66.0
216,85.7483895625,86.213850275,49.0,92.0
217,85.9457580625,86.266481875,53.0,73.0
218,85.3536525625,86.8026663,37.0,82.0
219,85.5510210625,86.884903175,44.0,65.0
220,86.3404950625,86.9589163625,49.0,86.0
221,86.53786356250001,86.9885216375,56.0,66.0
222,86.7352320625,87.00661375,53.0,82.0
223,86.1431265625,87.0312848125,61.0,102.0
224,87.3273375625,87.8026667,49.0,79.0
225,87.5247060625,87.8437851375,53.0,71.0
226,87.1299690625,87.996745725,44.0,33.0
227,86.9326005625,88.0411536375,37.0,78.0
228,87.91944306250001,88.095429975,49.0,82.0
229,87.7220745625,88.404640625,61.0,112.0
230,88.1168115625,88.43424590000001,56.0,77.0
231,88.3141800625,88.4786538125,53.0,75.0
232,88.9062855625,89.312535725,53.0,77.0
233,89.1036540625,89.3536541625,56.0,73.0
234,89.4983910625,89.7023385125,53.0,77.0
235,89.3010225625,89.75990432500001,60.0,75.0
236,88.5115485625,89.891483325,41.0,72.0
237,88.7089170625,90.04608865,48.0,53.0
238,89.6957595625,90.2516808375,56.0,65.0
239,89.8931280625,90.5279967375,60.0,59.0
240,90.4852335625,90.9342469,53.0,73.0
241,90.6826020625,90.9983916625,56.0,73.0
242,90.2878650625,91.1447733,48.0,56.0
243,90.09049656250001,91.167799625,41.0,72.0
244,91.0773390625,91.2895102,53.0,69.0
245,90.8799705625,91.549378725,65.0,60.0
246,91.2747075625,91.5576024125,56.0,89.0
247,91.4720760625,91.65135245,60.0,64.0
248,92.0641815625,92.4720764625,58.0,89.0
249,92.2615500625,92.5049712125,61.0,82.0
250,92.4589185625,92.8964187375,65.0,75.0
251,91.6694445625,93.141484625,46.0,62.0
252,91.8668130625,93.2516820375,53.0,50.0
253,92.6562870625,93.3421426,58.0,81.0
254,92.8536555625,93.3947742,61.0,78.0
255,93.0510240625,93.7023401125,70.0,86.0
256,93.64312956250001,94.1365508125,58.0,86.0
257,93.8404980625,94.3306298375,61.0,78.0
258,93.2483925625,94.7023405125,46.0,72.0
259,94.2352350625,94.78457738750001,58.0,85.0
260,93.4457610625,94.825695825,53.0,63.0
261,94.4326035625,94.9210906,65.0,56.0
262,94.6299720625,94.9737222,61.0,82.0
263,94.0378665625,95.3010249625,70.0,95.0
264,95.2220775625,95.6661566875,58.0,73.0
265,95.4194460625,95.84872255,61.0,78.0
266,94.8273405625,96.27470956250001,46.0,81.0
267,95.0247090625,96.391485925,53.0,63.0
268,95.8141830625,96.470433325,58.0,81.0
269,96.2089200625,96.6579334,61.0,83.0
270,96.0115515625,96.858591375,65.0,65.0
271,95.6168145625,96.970433525,70.0,99.0
272,96.8010255625,97.26977575000001,58.0,88.0
273,96.9983940625,97.411223175,61.0,82.0
274,96.6036570625,97.4753679375,53.0,64.0
275,97.3931310625,97.503328475,58.0,89.0
276,96.4062885625,97.5543153375,46.0,77.0
277,97.7878680625,97.963854975,65.0,66.0
278,97.19576256250001,97.9786576125,70.0,112.0
279,97.5904995625,98.0131971,61.0,82.0
280,98.3799735625,98.70563158750001,48.0,89.0
281,98.5773420625,98.8076053125,51.0,99.0
282,98.1826050625,98.8553027,43.0,64.0
283,97.9852365625,99.40135555,36.0,67.0
284,98.9720790625,99.4720792625,43.0,77.0
285,99.1694475625,99.4951055875,51.0,100.0
286,99.3668160625,99.4983950625,48.0,86.0
287,98.7747105625,99.5082634875,55.0,93.0
288,99.9589215625,100.4210928,48.0,90.0
289,100.1562900625,100.4852375625,60.0,107.0
290,100.5510270625,100.9260272125,48.0,83.0
291,99.7615530625,100.9622114375,43.0,81.0
292,99.5641845625,101.0444483125,36.0,79.0
293,100.74839556250001,101.1579352,63.0,96.0
294,100.9457640625,101.17109310000001,60.0,79.0
295,100.3536585625,101.180961525,67.0,99.0
296,101.7352380625,101.977014475,56.0,81.0
297,101.5378695625,101.99346185,60.0,72.0
298,101.9326065625,102.352014625,63.0,97.0
299,101.1431325625,102.62504105000001,44.0,92.0
300,101.3405010625,102.6858963375,51.0,59.0
301,102.1299750625,102.73030425,56.0,79.0
302,102.5247120625,103.1447781,60.0,75.0
303,102.3273435625,103.20398865,68.0,99.0
304,103.1168175625,103.5773440625,56.0,83.0
305,103.3141860625,103.6316204,60.0,82.0
306,102.91944906250001,103.8026731,51.0,59.0
307,103.7089230625,103.8240546875,56.0,73.0
308,102.7220805625,103.937541575,44.0,61.0
309,103.9062915625,104.2023443125,63.0,81.0
310,103.5115545625,104.20398905,68.0,100.0
311,104.1036600625,104.31912067500001,60.0,81.0
312,104.8931340625,105.03293675,56.0,81.0
313,104.4983970625,105.15135785,48.0,64.0
314,104.6957655625,105.161226275,53.0,77.0
315,105.2878710625,105.4523448125,48.0,64.0
316,104.30102856250001,105.49346325,41.0,42.0
317,105.4852395625,105.8026739,56.0,97.0
318,105.0905025625,105.8240554875,60.0,95.0
319,105.6826080625,105.904647625,53.0,83.0
320,106.2747135625,106.733595325,53.0,86.0
321,106.47208206250001,106.819121675,56.0,72.0
322,106.8668190625,107.2582665875,53.0,75.0
323,106.0773450625,107.4424771875,48.0,67.0
324,107.0641875625,107.4786614125,60.0,60.0
325,106.6694505625,107.500043,65.0,68.0
326,105.8799765625,107.50662195,41.0,73.0
327,107.2615560625,107.50662195,56.0,66.0
328,107.85366156250001,108.319122275,49.0,92.0
329,108.0510300625,108.371753875,53.0,73.0
330,107.4589245625,108.9079383,37.0,82.0
331,107.6562930625,108.990175175,44.0,65.0
332,108.4457670625,109.0641883625,49.0,86.0
333,108.6431355625,109.0937936375,56.0,66.0
334,108.8405040625,109.11188575,53.0,82.0
335,108.2483985625,109.1365568125,61.0,102.0
336,109.4326095625,109.9079387,49.0,79.0
337,109.6299780625,109.9490571375,53.0,71.0
338,109.2352410625,110.102017725,44.0,33.0
339,109.0378725625,110.1464256375,37.0,78.0
340,110.02471506250001,110.200701975,49.0,82.0
341,109.8273465625,110.509912625,61.0,112.0
342,110.2220835625,110.5395179,56.0,77.0
343,110.4194520625,110.5839258125,53.0,75.0
344,111.0115575625,111.417807725,53.0,77.0
345,111.2089260625,111.4589261625,56.0,73.0
346,111.6036630625,111.8076105125,53.0,77.0
347,111.40629456250001,111.86517632500001,60.0,75.0
348,110.6168205625,111.996755325,41.0,72.0
349,110.8141890625,112.15136065,48.0,53.0
350,111.8010315625,112.3569528375,56.0,65.0
351,111.9984000625,112.6332687375,60.0,59.0
352,112.5905055625,113.0395189,53.0,73.0
353,112.7878740625,113.1036636625,56.0,73.0
354,112.3931370625,113.2500453,48.0,56.0
355,112.1957685625,113.273071625,41.0,72.0
356,113.1826110625,113.3947822,53.0,69.0
357,112.9852425625,113.654650725,65.0,60.0
358,113.3799795625,113.6628744125,56.0,89.0
359,113.57734806250001,113.75662445,60.0,64.0
360,114.1694535625,114.5773484625,58.0,89.0
361,114.3668220625,114.6102432125,61.0,82.0
362,114.5641905625,115.0016907375,65.0,75.0
363,113.7747165625,115.246756625,46.0,62.0
364,113.9720850625,115.3569540375,53.0,50.0
365,114.7615590625,115.4474146,58.0,81.0
366,114.9589275625,115.5000462,61.0,78.0
367,115.1562960625,115.8076121125,70.0,86.0
368,115.7484015625,116.2418228125,58.0,86.0
369,115.9457700625,116.4359018375,61.0,78.0
370,115.3536645625,116.8076125125,46.0,72.0
371,116.3405070625,116.8898493875,58.0,85.0
372,115.5510330625,116.930967825,53.0,63.0
373,116.5378755625,117.0263626,65.0,56.0
374,116.7352440625,117.0789942,61.0,82.0
375,116.1431385625,117.40629696250001,70.0,95.0
376,117.3273495625,117.7714286875,58.0,73.0
377,117.5247180625,117.95399455,61.0,78.0
378,116.9326125625,118.3799815625,46.0,81.0
379,117.12998106250001,118.496757925,53.0,63.0
380,117.9194550625,118.575705325,58.0,81.0
381,118.3141920625,118.7632054,61.0,83.0
382,118.1168235625,118.963863375,65.0,65.0
383,117.7220865625,119.075705525,70.0,99.0
384,118.9062975625,119.37504775000001,58.0,88.0
385,119.1036660625,119.516495175,61.0,82.0
386,118.7089290625,119.5806399375,53.0,64.0
387,119.4984030625,119.608600475,58.0,89.0
388,118.5115605625,119.6595873375,46.0,77.0
389,119.8931400625,120.069126975,65.0,66.0
390,119.3010345625,120.0839296125,70.0,112.0
391,119.6957715625,120.0905085625,61.0,82.0
392,120.4852455625,120.91452205,53.0,70.0
393,120.68261406250001,120.98031155,56.0,72.0
394,121.0773510625,121.312548525,53.0,59.0
395,120.0905085625,121.53294335,41.0,89.0
396,120.2878770625,121.6826144625,48.0,56.0
397,120.8799825625,122.13656201250001,65.0,57.0
398,121.4720880625,122.58557535,56.0,81.0
399,122.4589305625,123.0970887125,65.0,18.0
400,121.6694565625,123.16781242500001,41.0,61.0
401,121.2747195625,123.1990624375,60.0,64.0
402,124.4326155625,125.0280105375,53.0,50.0
403,124.0378785625,125.26978695,56.0,63.0
404,125.6168265625,125.6793265875,56.0,21.0
405,125.2220895625,125.8635371875,53.0,53.0
406,123.2484045625,126.200708375,41.0,75.0
407,123.6431415625,126.4688005875,48.0,41.0
408,126.0115635625,126.7763665,56.0,52.0
409,125.6168265625,127.0016955375,65.0,50.0
410,124.8273525625,127.8438011375,60.0,69.0
411,127.5905115625,128.174393375,53.0,52.0
412,127.1957745625,128.233603925,56.0,64.0
413,126.40630056250001,129.42768335,41.0,72.0
414,126.8010375625,129.5641965625,48.0,47.0
415,128.3799855625,129.5641965625,53.0,51.0
416,128.7747225625,129.5641965625,60.0,63.0
417,127.9852485625,129.5641965625,65.0,66.0
418,129.9589335625,130.30926265,48.0,52.0
419,129.5641965625,130.325710025,41.0,76.0
420,130.3536705625,130.674394375,56.0,67.0
421,130.7484075625,132.6628820125,58.0,58.0
422,130.7484075625,132.6727504375,39.0,58.0
423,130.7484075625,132.6859083375,63.0,58.0
424,130.7484075625,132.6924872875,55.0,72.0
425,130.7484075625,132.6957767625,51.0,61.0
426,132.7220925625,134.095448375,53.0,47.0
427,132.7220925625,134.115185225,48.0,51.0
428,132.7220925625,134.134922075,41.0,49.0
429,132.7220925625,134.2319615875,65.0,70.0
430,132.7220925625,134.2385405375,60.0,59.0
431,132.7220925625,134.266501075,68.0,63.0
432,136.319133475,136.8026863,53.0,45.0
433,137.108607475,137.634923475,53.0,38.0
434,136.713870475,137.641502425,58.0,76.0
435,137.898081475,138.3602527125,53.0,52.0
436,137.503344475,138.3898579875,61.0,74.0
437,135.924396475,138.457292225,46.0,58.0
438,138.292818475,139.0543319375,65.0,68.0
439,138.687555475,139.1316346,58.0,66.0
440,139.477029475,139.9885428375,48.0,61.0
441,140.266503475,140.7500563,48.0,55.0
442,139.87176647500002,141.3470960125,53.0,86.0
443,139.082292475,141.78295145,41.0,69.0
444,141.055977475,142.2681490125,48.0,55.0
445,141.845451475,142.305977975,53.0,74.0
446,141.450714475,142.378346425,56.0,59.0
447,140.661240475,142.5806491375,60.0,81.0
448,142.634925475,143.102030925,48.0,60.0
449,143.424399475,143.9556496875,48.0,56.0
450,143.029662475,144.470452525,53.0,86.0
451,144.213873475,144.628347325,48.0,52.0
452,142.240188475,144.700715775,41.0,73.0
453,143.819136475,145.398084475,60.0,89.0
454,144.608610475,145.4326239625,56.0,88.0
455,145.003347475,145.4392029125,53.0,66.0
456,146.582295475,147.0790062,48.0,55.0
457,146.187558475,147.19742730000002,51.0,89.0
458,147.371769475,147.894796,48.0,63.0
459,145.792821475,147.924401275,43.0,58.0
460,145.398084475,147.937559175,36.0,71.0
461,146.97703247500002,148.5181515125,60.0,65.0
462,147.766506475,148.5609146875,51.0,81.0
463,148.161243475,148.5642041625,55.0,72.0
464,148.950717475,149.4474282,46.0,60.0
465,149.740191475,150.2763759,46.0,63.0
466,149.345454475,150.46716545,49.0,70.0
467,148.555980475,150.9359156375,34.0,82.0
468,150.134928475,150.98032355,58.0,85.0
469,150.529665475,151.0378893625,46.0,59.0
470,150.924402475,151.463876375,53.0,73.0
471,151.31913947500001,151.70400805,58.0,63.0
472,152.898087475,153.503350875,51.0,63.0
473,152.108613475,154.04611425,46.0,41.0
474,151.713876475,154.0806537375,39.0,75.0
475,153.687561475,154.1332853375,51.0,61.0
476,152.503350475,154.1447985,55.0,74.0
477,153.292824475,154.8421672,63.0,93.0
478,154.08229847500002,154.8997330125,58.0,86.0
479,154.477035475,154.9211146,55.0,63.0
480,155.266509475,155.7911807375,48.0,57.0
481,155.661246475,156.6102600125,53.0,81.0
482,156.055983475,156.634931075,48.0,63.0
483,156.450720475,157.36190505,56.0,74.0
484,157.240194475,157.694142025,55.0,62.0
485,154.871772475,157.9753921375,41.0,67.0
486,156.845457475,158.0740763875,48.0,56.0
487,158.029668475,160.871774875,41.0,63.0
488,157.634931475,160.963880175,56.0,44.0
489,158.029668475,160.9737486,53.0,42.0
490,158.029668475,161.0000644,60.0,35.0
491,161.7352620625,161.977038475,56.0,81.0
492,161.5378935625,161.99348585,60.0,72.0
493,161.9326305625,162.352038625,63.0,97.0
494,161.1431565625,162.62506505,44.0,92.0
495,161.3405250625,162.6859203375,51.0,59.0
496,162.1299990625,162.73032825,56.0,79.0
497,162.5247360625,163.1448021,60.0,75.0
498,162.3273675625,163.20401265,68.0,99.0
499,163.1168415625,163.5773680625,56.0,83.0
500,163.3142100625,163.6316444,60.0,82.0
501,162.9194730625,163.8026971,51.0,59.0
502,163.70894706250002,163.8240786875,56.0,73.0
503,162.7221045625,163.937565575,44.0,61.0
504,163.9063155625,164.2023683125,63.0,81.0
505,163.5115785625,164.20401305000001,68.0,100.0
506,164.1036840625,164.319144675,60.0,81.0
507,164.8931580625,165.03296075,56.0,81.0
508,164.4984210625,165.15138185,48.0,64.0
509,164.6957895625,165.16125027500001,53.0,77.0
510,165.2878950625,165.4523688125,48.0,64.0
511,164.3010525625,165.49348725000002,41.0,42.0
512,165.4852635625,165.8026979,56.0,97.0
513,165.0905265625,165.8240794875,60.0,95.0
514,165.6826320625,165.904671625,53.0,83.0
515,166.2747375625,166.733619325,53.0,86.0
516,166.4721060625,166.81914567500002,56.0,72.0
517,166.8668430625,167.2582905875,53.0,75.0
518,166.0773690625,167.4425011875,48.0,67.0
519,167.0642115625,167.4786854125,60.0,60.0
520,166.6694745625,167.500067,65.0,68.0
521,165.88000056250002,167.50664595,41.0,73.0
522,167.2615800625,167.50664595,56.0,66.0
523,167.8536855625,168.319146275,49.0,92.0
524,168.05105406250001,168.371777875,53.0,73.0
525,167.4589485625,168.9079623,37.0,82.0
526,167.6563170625,168.99019917500001,44.0,65.0
527,168.4457910625,169.0642123625,49.0,86.0
528,168.6431595625,169.0938176375,56.0,66.0
529,168.8405280625,169.11190975,53.0,82.0
530,168.2484225625,169.1365808125,61.0,102.0
531,169.4326335625,169.9079627,49.0,79.0
532,169.6300020625,169.9490811375,53.0,71.0
533,169.2352650625,170.102041725,44.0,33.0
534,169.0378965625,170.1464496375,37.0,78.0
535,170.0247390625,170.200725975,49.0,82.0
536,169.8273705625,170.509936625,61.0,112.0
537,170.2221075625,170.5395419,56.0,77.0
538,170.4194760625,170.5839498125,53.0,75.0
539,171.0115815625,171.417831725,53.0,77.0
540,171.2089500625,171.4589501625,56.0,73.0
541,171.6036870625,171.80763451250002,53.0,77.0
542,171.4063185625,171.865200325,60.0,75.0
543,170.6168445625,171.996779325,41.0,72.0
544,170.8142130625,172.15138465,48.0,53.0
545,171.8010555625,172.3569768375,56.0,65.0
546,171.9984240625,172.6332927375,60.0,59.0
547,172.5905295625,173.03954290000001,53.0,73.0
548,172.7878980625,173.1036876625,56.0,73.0
549,172.3931610625,173.2500693,48.0,56.0
550,172.1957925625,173.273095625,41.0,72.0
551,173.1826350625,173.3948062,53.0,69.0
552,172.98526656250002,173.654674725,65.0,60.0
553,173.3800035625,173.6628984125,56.0,89.0
554,173.5773720625,173.75664845,60.0,64.0
555,174.1694775625,174.5773724625,58.0,89.0
556,174.3668460625,174.6102672125,61.0,82.0
557,174.5642145625,175.0017147375,65.0,75.0
558,173.7747405625,175.246780625,46.0,62.0
559,173.9721090625,175.3569780375,53.0,50.0
560,174.7615830625,175.4474386,58.0,81.0
561,174.9589515625,175.5000702,61.0,78.0
562,175.15632006250001,175.8076361125,70.0,86.0
563,175.7484255625,176.2418468125,58.0,86.0
564,175.9457940625,176.4359258375,61.0,78.0
565,175.3536885625,176.8076365125,46.0,72.0
566,176.3405310625,176.8898733875,58.0,85.0
567,175.5510570625,176.930991825,53.0,63.0
568,176.5378995625,177.0263866,65.0,56.0
569,176.7352680625,177.0790182,61.0,82.0
570,176.1431625625,177.4063209625,70.0,95.0
571,177.32737356250001,177.77145268750002,58.0,73.0
572,177.5247420625,177.95401855,61.0,78.0
573,176.9326365625,178.3800055625,46.0,81.0
574,177.1300050625,178.496781925,53.0,63.0
575,177.9194790625,178.575729325,58.0,81.0
576,178.3142160625,178.7632294,61.0,83.0
577,178.1168475625,178.963887375,65.0,65.0
578,177.7221105625,179.075729525,70.0,99.0
579,178.9063215625,179.37507175,58.0,88.0
580,179.1036900625,179.516519175,61.0,82.0
581,178.7089530625,179.5806639375,53.0,64.0
582,179.4984270625,179.608624475,58.0,89.0
583,178.5115845625,179.6596113375,46.0,77.0
584,179.8931640625,180.069150975,65.0,66.0
585,179.3010585625,180.0839536125,70.0,112.0
586,179.6957955625,180.1184931,61.0,82.0
587,180.4852695625,180.8109275875,48.0,89.0
588,180.6826380625,180.9129013125,51.0,99.0
589,180.2879010625,180.9605987,43.0,64.0
590,180.09053256250002,181.50665155000002,36.0,67.0
591,181.0773750625,181.5773752625,43.0,77.0
592,181.2747435625,181.6004015875,51.0,100.0
593,181.4721120625,181.6036910625,48.0,86.0
594,180.8800065625,181.6135594875,55.0,93.0
595,182.0642175625,182.5263888,48.0,90.0
596,182.26158606250002,182.5905335625,60.0,107.0
597,182.6563230625,183.0313232125,48.0,83.0
598,181.8668490625,183.0675074375,43.0,81.0
599,181.6694805625,183.1497443125,36.0,79.0
600,182.8536915625,183.2632312,63.0,96.0
601,183.0510600625,183.2763891,60.0,79.0
602,182.4589545625,183.286257525,67.0,99.0
603,183.8405340625,184.082310475,56.0,81.0
604,183.6431655625,184.09875785,60.0,72.0
605,184.0379025625,184.457310625,63.0,97.0
606,183.2484285625,184.73033705,44.0,92.0
607,183.4457970625,184.7911923375,51.0,59.0
608,184.2352710625,184.83560025,56.0,79.0
609,184.6300080625,185.2500741,60.0,75.0
610,184.43263956250001,185.30928465,68.0,99.0
611,185.2221135625,185.6826400625,56.0,83.0
612,185.4194820625,185.7369164,60.0,82.0
613,185.0247450625,185.9079691,51.0,59.0
614,185.8142190625,185.9293506875,56.0,73.0
615,184.8273765625,186.042837575,44.0,61.0
616,186.0115875625,186.3076403125,63.0,81.0
617,185.6168505625,186.30928505,68.0,100.0
618,186.2089560625,186.424416675,60.0,81.0
619,186.9984300625,187.13823275000001,56.0,81.0
620,186.6036930625,187.25665385,48.0,64.0
621,186.8010615625,187.266522275,53.0,77.0
622,187.3931670625,187.5576408125,48.0,64.0
623,186.4063245625,187.59875925,41.0,42.0
624,187.5905355625,187.9079699,56.0,97.0
625,187.19579856250002,187.9293514875,60.0,95.0
626,187.7879040625,188.009943625,53.0,83.0
627,188.3800095625,188.838891325,53.0,86.0
628,188.5773780625,188.924417675,56.0,72.0
629,188.9721150625,189.3635625875,53.0,75.0
630,188.1826410625,189.5477731875,48.0,67.0
631,189.1694835625,189.5839574125,60.0,60.0
632,188.7747465625,189.60533900000001,65.0,68.0
633,187.9852725625,189.61191795,41.0,73.0
634,189.36685206250002,189.61191795,56.0,66.0
635,189.9589575625,190.424418275,49.0,92.0
636,190.1563260625,190.477049875,53.0,73.0
637,189.5642205625,191.0132343,37.0,82.0
638,189.7615890625,191.095471175,44.0,65.0
639,190.5510630625,191.16948436250001,49.0,86.0
640,190.7484315625,191.1990896375,56.0,66.0
641,190.9458000625,191.21718175,53.0,82.0
642,190.3536945625,191.2418528125,61.0,102.0
643,191.53790556250001,192.0132347,49.0,79.0
644,191.7352740625,192.05435313750002,53.0,71.0
645,191.3405370625,192.207313725,44.0,33.0
646,191.1431685625,192.2517216375,37.0,78.0
647,192.1300110625,192.305997975,49.0,82.0
648,191.9326425625,192.615208625,61.0,112.0
649,192.3273795625,192.6448139,56.0,77.0
650,192.5247480625,192.6892218125,53.0,75.0
651,193.1168535625,193.523103725,53.0,77.0
652,193.3142220625,193.56422216250002,56.0,73.0
653,193.7089590625,193.9129065125,53.0,77.0
654,193.5115905625,193.970472325,60.0,75.0
655,192.7221165625,194.102051325,41.0,72.0
656,192.9194850625,194.25665665,48.0,53.0
657,193.9063275625,194.4622488375,56.0,65.0
658,194.1036960625,194.7385647375,60.0,59.0
659,194.6958015625,195.1448149,53.0,73.0
660,194.8931700625,195.2089596625,56.0,73.0
661,194.4984330625,195.3553413,48.0,56.0
662,194.3010645625,195.378367625,41.0,72.0
663,195.2879070625,195.5000782,53.0,69.0
664,195.0905385625,195.759946725,65.0,60.0
665,195.4852755625,195.7681704125,56.0,89.0
666,195.6826440625,195.86192045,60.0,64.0
667,196.2747495625,196.6826444625,58.0,89.0
668,196.47211806250002,196.7155392125,61.0,82.0
669,196.6694865625,197.1069867375,65.0,75.0
670,195.8800125625,197.352052625,46.0,62.0
671,196.0773810625,197.4622500375,53.0,50.0
672,196.8668550625,197.5527106,58.0,81.0
673,197.0642235625,197.6053422,61.0,78.0
674,197.2615920625,197.9129081125,70.0,86.0
675,197.8536975625,198.3471188125,58.0,86.0
676,198.0510660625,198.5411978375,61.0,78.0
677,197.4589605625,198.9129085125,46.0,72.0
678,198.4458030625,198.9951453875,58.0,85.0
679,197.6563290625,199.036263825,53.0,63.0
680,198.64317156250002,199.1316586,65.0,56.0
681,198.8405400625,199.1842902,61.0,82.0
682,198.2484345625,199.5115929625,70.0,95.0
683,199.4326455625,199.8767246875,58.0,73.0
684,199.6300140625,200.05929055000001,61.0,78.0
685,199.0379085625,200.48527756250002,46.0,81.0
686,199.2352770625,200.602053925,53.0,63.0
687,200.0247510625,200.6168565625,58.0,81.0
688,200.4194880625,200.6168565625,61.0,83.0
689,200.2221195625,200.6168565625,65.0,65.0
690,199.8273825625,200.6168565625,70.0,99.0
691,200.6168565625,201.91948866250002,53.0,66.0
692,200.6168565625,201.95567288750001,46.0,55.0
693,200.6168565625,202.03133081250002,61.0,67.0
694,200.6168565625,202.03297555,58.0,55.0
695,200.6168565625,202.056001875,65.0,56.0
696,200.6168565625,202.0740939875,68.0,60.0
697,202.1958045625,203.740213075,41.0,67.0
698,202.5905415625,203.79613415,48.0,57.0
699,203.57738406250002,203.8142262625,53.0,44.0
700,203.3800155625,203.865213125,56.0,51.0
701,202.9852785625,203.91455525,60.0,73.0
702,203.7747525625,205.233634725,41.0,71.0
703,204.1694895625,205.3964637375,48.0,42.0
704,205.1563320625,205.437582175,60.0,47.0
705,204.9589635625,205.4754111375,65.0,46.0
706,204.5642265625,205.7369244,68.0,90.0
707,206.5379115625,207.917846325,60.0,58.0
708,205.3537005625,208.3767280875,41.0,59.0
709,206.9326485625,208.398109675,53.0,53.0
710,205.74843756250002,208.41455705,48.0,38.0
711,206.1431745625,208.503372875,65.0,74.0
712,206.7352800625,208.5280439375,68.0,70.0
713,209.1037020625,209.4129127125,53.0,50.0
714,208.5115965625,209.9556760875,41.0,79.0
715,209.6958075625,210.0527156,56.0,60.0
716,209.8931760625,210.075741925,53.0,65.0
717,208.9063335625,210.0905445625,48.0,56.0
718,209.3010705625,210.095478775,60.0,92.0
719,210.4852815625,210.9359396375,53.0,52.0
720,210.0905445625,210.99350545000001,41.0,62.0
721,210.2879130625,210.996794925,48.0,43.0
722,210.68265006250002,211.352058225,60.0,66.0
723,211.2747555625,211.6629136125,65.0,69.0
724,210.8800185625,211.66455835,68.0,95.0
725,212.0642295625,212.5050192125,51.0,60.0
726,212.2615980625,212.631664,55.0,58.0
727,211.6694925625,213.1069931375,39.0,81.0
728,211.8668610625,213.24021687500002,46.0,35.0
729,212.6563350625,213.30929585,51.0,60.0
730,212.4589665625,213.8635723875,63.0,97.0
731,212.85370356250002,213.8734408125,58.0,47.0
732,213.6431775625,214.0773882625,51.0,65.0
733,213.2484405625,214.1727830375,39.0,83.0
734,213.0510720625,214.1760725125,55.0,56.0
735,214.0379145625,214.76817801250002,63.0,99.0
736,214.6300200625,214.8306780375,55.0,63.0
737,214.4326515625,214.8339675125,58.0,66.0
738,215.02475706250002,215.365217725,49.0,71.0
739,215.4194940625,215.6793625875,49.0,68.0
740,215.2221255625,215.786270525,53.0,58.0
741,214.8273885625,216.26982335,37.0,60.0
742,215.8142310625,216.3010733625,49.0,59.0
743,216.0115995625,216.431007625,56.0,38.0
744,216.2089680625,216.7500867,53.0,72.0
745,215.6168625625,216.9425209875,61.0,83.0
746,216.8010735625,217.2681790125,49.0,67.0
747,216.9984420625,217.41456065,53.0,69.0
748,216.6037050625,217.4852843625,44.0,46.0
749,217.3931790625,217.50666595,49.0,82.0
750,216.4063365625,217.5609422875,37.0,58.0
751,217.5905475625,217.9293634875,56.0,38.0
752,217.19581056250001,217.9474556,61.0,90.0
753,217.7879160625,217.96719245,53.0,63.0
754,218.3800215625,218.832324375,48.0,67.0
755,218.5773900625,219.0116007625,55.0,65.0
756,217.9852845625,219.457324625,36.0,61.0
757,218.1826530625,219.5773904625,43.0,37.0
758,218.9721270625,219.582324675,48.0,68.0
759,219.3668640625,219.983640625,55.0,55.0
760,218.7747585625,220.1234433125,63.0,95.0
761,219.1694955625,220.1333117375,60.0,61.0
762,219.95896956250002,220.444167125,48.0,68.0
763,219.7616010625,220.5675224375,43.0,40.0
764,219.5642325625,220.6826540625,36.0,72.0
765,220.1563380625,221.1201542375,55.0,69.0
766,220.3537065625,221.134956875,63.0,95.0
767,220.7484435625,221.1596279375,60.0,70.0
768,221.5379175625,221.8866019125,53.0,74.0
769,221.7352860625,221.973773,56.0,56.0
770,221.3405490625,222.009957225,48.0,43.0
771,221.1431805625,222.58890482500001,41.0,81.0
772,222.13002306250002,222.6925232875,48.0,53.0
773,222.5247600625,222.8421944,53.0,61.0
774,222.3273915625,222.9655497125,56.0,53.0
775,221.9326545625,223.016536575,60.0,83.0
776,223.3142340625,223.4984446625,56.0,54.0
777,222.9194970625,223.5872604875,48.0,58.0
778,223.1168655625,223.588905225,53.0,62.0
779,222.7221285625,223.62179997500002,41.0,62.0
780,223.7089710625,223.9211422,56.0,63.0
781,223.9063395625,224.292852875,53.0,59.0
782,224.1037080625,224.3043660375,56.0,73.0
783,223.5116025625,224.312589725,60.0,82.0
784,224.6958135625,225.12509005,51.0,73.0
785,224.8931820625,225.2500901,55.0,67.0
786,224.30107656250001,225.746800825,39.0,65.0
787,224.4984450625,225.8421956,46.0,46.0
788,225.2879190625,225.8816693,51.0,57.0
789,225.6826560625,226.338906325,55.0,55.0
790,225.4852875625,226.4589721625,58.0,40.0
791,225.0905505625,226.48035375,63.0,90.0
792,226.2747615625,226.7089722625,51.0,55.0
793,226.4721300625,226.8241038875,55.0,59.0
794,226.0773930625,226.9606171,46.0,53.0
795,226.8668670625,226.963906575,51.0,81.0
796,225.8800245625,227.023117125,39.0,66.0
797,226.6694985625,227.4096304375,63.0,96.0
798,227.06423556250002,227.4359462375,58.0,50.0
799,227.2616040625,227.4589725625,55.0,70.0
800,228.0510780625,228.312591325,53.0,45.0
801,227.8537095625,228.319170275,49.0,69.0
802,227.4589725625,228.92772315,37.0,72.0
803,227.6563410625,229.009960025,44.0,29.0
804,228.4458150625,229.0543679375,49.0,67.0
805,228.2484465625,229.67607871250001,61.0,82.0
806,228.6431835625,229.7056839875,56.0,44.0
807,228.8405520625,229.78298665,53.0,59.0
808,229.4326575625,230.029697275,49.0,50.0
809,229.0379205625,230.1185131,37.0,68.0
810,229.8273945625,230.5181843125,56.0,70.0
811,229.8273945625,230.556013275,61.0,60.0
812,230.2221315625,230.5642369625,53.0,50.0
813,231.0116055625,231.4491057375,48.0,61.0
814,231.2089740625,231.825750625,55.0,52.0
815,230.6168685625,232.0905533625,36.0,73.0
816,230.8142370625,232.181013925,43.0,39.0
817,231.6037110625,232.200750775,48.0,45.0
818,231.8010795625,232.6793693875,60.0,53.0
819,231.40634256250001,232.8290405,63.0,90.0
820,232.1958165625,233.069172175,36.0,75.0
821,232.5905535625,233.365224925,48.0,56.0
822,231.9984480625,233.4523960125,55.0,52.0
823,232.9852905625,233.4820012875,63.0,95.0
824,233.7747645625,234.088909425,60.0,35.0
825,234.16950156250002,234.6448307,48.0,58.0
826,234.9589755625,235.47377840000001,48.0,44.0
827,234.5642385625,236.0050286125,56.0,66.0
828,235.3537125625,236.00831808750002,60.0,62.0
829,235.7484495625,236.2089760625,48.0,67.0
830,236.34055506250002,236.812594725,48.0,65.0
831,233.7747645625,236.89318686250002,41.0,72.0
832,236.5379235625,236.9523974125,56.0,71.0
833,236.1431865625,236.9688447875,60.0,92.0
834,236.7352920625,236.990226375,53.0,92.0
835,237.5247660625,237.766542475,56.0,81.0
836,237.3273975625,237.78298985,60.0,72.0
837,237.7221345625,238.141542625,63.0,97.0
838,236.9326605625,238.41456905,44.0,92.0
839,237.1300290625,238.47542433750002,51.0,59.0
840,237.9195030625,238.51983225,56.0,79.0
841,238.3142400625,238.93430610000001,60.0,75.0
842,238.1168715625,238.99351665,68.0,99.0
843,238.9063455625,239.3668720625,56.0,83.0
844,239.1037140625,239.4211484,60.0,82.0
845,238.7089770625,239.5922011,51.0,59.0
846,239.4984510625,239.6135826875,56.0,73.0
847,238.51160856250002,239.727069575,44.0,61.0
848,239.6958195625,239.9918723125,63.0,81.0
849,239.3010825625,239.99351705,68.0,100.0
850,239.8931880625,240.108648675,60.0,81.0
851,240.68266206250001,240.82246475,56.0,81.0
852,240.2879250625,240.94088585,48.0,64.0
853,240.4852935625,240.950754275,53.0,77.0
854,241.0773990625,241.2418728125,48.0,64.0
855,240.0905565625,241.28299125,41.0,42.0
856,241.2747675625,241.5922019,56.0,97.0
857,240.8800305625,241.6135834875,60.0,95.0
858,241.4721360625,241.694175625,53.0,83.0
859,242.0642415625,242.523123325,53.0,86.0
860,242.2616100625,242.608649675,56.0,72.0
861,242.6563470625,243.0477945875,53.0,75.0
862,241.8668730625,243.2320051875,48.0,67.0
863,242.8537155625,243.2681894125,60.0,60.0
864,242.4589785625,243.289571,65.0,68.0
865,241.6695045625,243.29614995,41.0,73.0
866,243.0510840625,243.29614995,56.0,66.0
867,243.6431895625,244.108650275,49.0,92.0
868,243.8405580625,244.16128187500001,53.0,73.0
869,243.2484525625,244.6974663,37.0,82.0
870,243.44582106250002,244.779703175,44.0,65.0
871,244.2352950625,244.8537163625,49.0,86.0
872,244.4326635625,244.8833216375,56.0,66.0
873,244.6300320625,244.90141375,53.0,82.0
874,244.0379265625,244.9260848125,61.0,102.0
875,245.2221375625,245.6974667,49.0,79.0
876,245.4195060625,245.7385851375,53.0,71.0
877,245.0247690625,245.89154572500001,44.0,33.0
878,244.8274005625,245.9359536375,37.0,78.0
879,245.8142430625,245.990229975,49.0,82.0
880,245.61687456250002,246.29944062500002,61.0,112.0
881,246.0116115625,246.3290459,56.0,77.0
882,246.2089800625,246.3734538125,53.0,75.0
883,246.8010855625,247.207335725,53.0,77.0
884,246.9984540625,247.2484541625,56.0,73.0
885,247.3931910625,247.5971385125,53.0,77.0
886,247.1958225625,247.654704325,60.0,75.0
887,246.4063485625,247.786283325,41.0,72.0
888,246.6037170625,247.94088865,48.0,53.0
889,247.5905595625,248.1464808375,56.0,65.0
890,247.78792806250001,248.4227967375,60.0,59.0
891,248.3800335625,248.8290469,53.0,73.0
892,248.5774020625,248.89319166250002,56.0,73.0
893,248.1826650625,249.0395733,48.0,56.0
894,247.9852965625,249.062599625,41.0,72.0
895,248.9721390625,249.1843102,53.0,69.0
896,248.7747705625,249.444178725,65.0,60.0
897,249.1695075625,249.4524024125,56.0,89.0
898,249.3668760625,249.54615245,60.0,64.0
899,249.9589815625,250.36687646250002,58.0,89.0
900,250.1563500625,250.3997712125,61.0,82.0
901,250.3537185625,250.7912187375,65.0,75.0
902,249.5642445625,251.036284625,46.0,62.0
903,249.7616130625,251.1464820375,53.0,50.0
904,250.55108706250002,251.2369426,58.0,81.0
905,250.7484555625,251.2895742,61.0,78.0
906,250.9458240625,251.5971401125,70.0,86.0
907,251.5379295625,252.0313508125,58.0,86.0
908,251.7352980625,252.2254298375,61.0,78.0
909,251.1431925625,252.5971405125,46.0,72.0
910,252.1300350625,252.6793773875,58.0,85.0
911,251.3405610625,252.720495825,53.0,63.0
912,252.3274035625,252.8158906,65.0,56.0
913,252.5247720625,252.8685222,61.0,82.0
914,251.9326665625,253.1958249625,70.0,95.0
915,253.1168775625,253.5609566875,58.0,73.0
916,253.3142460625,253.74352255,61.0,78.0
917,252.72214056250002,254.1695095625,46.0,81.0
918,252.9195090625,254.28628592500002,53.0,63.0
919,253.7089830625,254.365233325,58.0,81.0
920,254.1037200625,254.5527334,61.0,83.0
921,253.9063515625,254.753391375,65.0,65.0
922,253.5116145625,254.865233525,70.0,99.0
923,254.6958255625,255.16457575,58.0,88.0
924,254.89319406250002,255.306023175,61.0,82.0
925,254.4984570625,255.3701679375,53.0,64.0
926,255.2879310625,255.398128475,58.0,89.0
927,254.3010885625,255.4491153375,46.0,77.0
928,255.6826680625,255.858654975,65.0,66.0
929,255.0905625625,255.8734576125,70.0,112.0
930,255.4852995625,255.90799710000002,61.0,82.0
931,256.2747735625,256.6004315875,48.0,89.0
932,256.4721420625,256.7024053125,51.0,99.0
933,256.0774050625,256.7501027,43.0,64.0
934,255.8800365625,257.29615555,36.0,67.0
935,256.8668790625,257.3668792625,43.0,77.0
936,257.0642475625,257.3899055875,51.0,100.0
937,257.2616160625,257.3931950625,48.0,86.0
938,256.6695105625,257.4030634875,55.0,93.0
939,257.8537215625,258.31589280000003,48.0,90.0
940,258.0510900625,258.3800375625,60.0,107.0
941,258.44582706250003,258.8208272125,48.0,83.0
942,257.6563530625,258.8570114375,43.0,81.0
943,257.4589845625,258.9392483125,36.0,79.0
944,258.6431955625,259.05273520000003,63.0,96.0
945,258.8405640625,259.0658931,60.0,79.0
946,258.2484585625,259.075761525,67.0,99.0
947,259.6300380625,259.871814475,56.0,81.0
948,259.4326695625,259.88826185,60.0,72.0
949,259.8274065625,260.246814625,63.0,97.0
950,259.0379325625,260.51984105,44.0,92.0
951,259.2353010625,260.5806963375,51.0,59.0
952,260.0247750625,260.62510425,56.0,79.0
953,260.4195120625,261.0395781,60.0,75.0
954,260.2221435625,261.09878865,68.0,99.0
955,261.0116175625,261.4721440625,56.0,83.0
956,261.2089860625,261.5264204,60.0,82.0
957,260.8142490625,261.6974731,51.0,59.0
958,261.6037230625,261.7188546875,56.0,73.0
959,260.6168805625,261.832341575,44.0,61.0
960,261.8010915625,262.0971443125,63.0,81.0
961,261.4063545625,262.09878905,68.0,100.0
962,261.9984600625,262.213920675,60.0,81.0
963,262.7879340625,262.92773675,56.0,81.0
964,262.3931970625,263.04615785,48.0,64.0
965,262.5905655625,263.056026275,53.0,77.0
966,263.1826710625,263.3471448125,48.0,64.0
967,262.1958285625,263.38826325,41.0,42.0
968,263.38003956250003,263.6974739,56.0,97.0
969,262.9853025625,263.7188554875,60.0,95.0
970,263.5774080625,263.799447625,53.0,83.0
971,264.1695135625,264.628395325,53.0,86.0
972,264.3668820625,264.713921675,56.0,72.0
973,264.7616190625,265.1530665875,53.0,75.0
974,263.9721450625,265.3372771875,48.0,67.0
975,264.9589875625,265.3734614125,60.0,60.0
976,264.5642505625,265.394843,65.0,68.0
977,263.7747765625,265.40142195,41.0,73.0
978,265.1563560625,265.40142195,56.0,66.0
979,265.7484615625,266.213922275,49.0,92.0
980,265.9458300625,266.266553875,53.0,73.0
981,265.3537245625,266.8027383,37.0,82.0
982,265.5510930625,266.884975175,44.0,65.0
983,266.3405670625,266.9589883625,49.0,86.0
984,266.5379355625,266.9885936375,56.0,66.0
985,266.7353040625,267.00668575000003,53.0,82.0
986,266.1431985625,267.0313568125,61.0,102.0
987,267.3274095625,267.8027387,49.0,79.0
988,267.5247780625,267.8438571375,53.0,71.0
989,267.1300410625,267.996817725,44.0,33.0
990,266.9326725625,268.0412256375,37.0,78.0
991,267.9195150625,268.095501975,49.0,82.0
992,267.72214656250003,268.404712625,61.0,112.0
993,268.1168835625,268.4343179,56.0,77.0
994,268.3142520625,268.4787258125,53.0,75.0
995,268.9063575625,269.312607725,53.0,77.0
996,269.1037260625,269.3537261625,56.0,73.0
997,269.4984630625,269.7024105125,53.0,77.0
998,269.3010945625,269.759976325,60.0,75.0
999,268.5116205625,269.891555325,41.0,72.0
1000,268.7089890625,270.04616065,48.0,53.0
1001,269.6958315625,270.2517528375,56.0,65.0
1002,269.8932000625,270.5280687375,60.0,59.0
1003,270.4853055625,270.9343189,53.0,73.0
1004,270.6826740625,270.9984636625,56.0,73.0
1005,270.2879370625,271.1448453,48.0,56.0
1006,270.0905685625,271.167871625,41.0,72.0
1007,271.0774110625,271.2895822,53.0,69.0
1008,270.8800425625,271.549450725,65.0,60.0
1009,271.2747795625,271.5576744125,56.0,89.0
1010,271.4721480625,271.65142445,60.0,64.0
1011,272.0642535625,272.4721484625,58.0,89.0
1012,272.2616220625,272.5050432125,61.0,82.0
1013,272.4589905625,272.8964907375,65.0,75.0
1014,271.6695165625,273.141556625,46.0,62.0
1015,271.8668850625,273.2517540375,53.0,50.0
1016,272.65635906250003,273.3422146,58.0,81.0
1017,272.8537275625,273.3948462,61.0,78.0
1018,273.0510960625,273.7024121125,70.0,86.0
1019,273.6432015625,274.1366228125,58.0,86.0
1020,273.8405700625,274.3307018375,61.0,78.0
1021,273.2484645625,274.7024125125,46.0,72.0
1022,274.2353070625,274.7846493875,58.0,85.0
1023,273.4458330625,274.825767825,53.0,63.0
1024,274.4326755625,274.9211626,65.0,56.0
1025,274.6300440625,274.9737942,61.0,82.0
1026,274.0379385625,275.3010969625,70.0,95.0
1027,275.2221495625,275.6662286875,58.0,73.0
1028,275.4195180625,275.84879455,61.0,78.0
1029,274.8274125625,276.2747815625,46.0,81.0
1030,275.0247810625,276.39155792500003,53.0,63.0
1031,275.8142550625,276.4063605625,58.0,81.0
1032,276.2089920625,276.4063605625,61.0,83.0
1033,276.0116235625,276.4063605625,65.0,65.0
1034,275.6168865625,276.4063605625,70.0,99.0
1035,276.4063605625,277.4721504625,46.0,83.0
1036,276.4063605625,277.86524272500003,58.0,69.0
1037,276.4063605625,277.8701769375,61.0,71.0
1038,276.4063605625,277.8767558875,65.0,69.0
1039,279.1695195625,279.832348775,53.0,60.0
1040,279.9589935625,280.582349075,53.0,47.0
1041,278.7747825625,280.87511235,60.0,70.0
1042,277.9853085625,281.07248085,41.0,75.0
1043,278.3800455625,281.184323,48.0,44.0
1044,280.7484675625,281.6826784625,65.0,56.0
1045,280.9458360625,281.9343233,60.0,58.0
1046,281.93267856250003,282.9458368625,53.0,47.0
1047,280.3537305625,283.3685344,68.0,99.0
1048,281.93267856250003,283.4326791625,65.0,71.0
1049,283.1168895625,283.8175477375,53.0,47.0
1050,282.3274155625,283.9820214875,60.0,58.0
1051,281.1432045625,284.14320576250003,41.0,63.0
1052,281.5379415625,284.3175479375,48.0,51.0
1053,284.1037320625,284.7813639125,60.0,53.0
1054,283.9063635625,285.131693,65.0,54.0
1055,283.5116265625,286.549456725,68.0,85.0
1056,285.4853115625,286.6333383375,65.0,59.0
1057,285.4853115625,286.7813647125,53.0,42.0
1058,285.0905745625,287.1136016875,60.0,63.0
1059,284.3011005625,287.34879915,41.0,63.0
1060,284.6958375625,287.523141325,48.0,49.0
1061,286.86689106250003,287.6843256,53.0,44.0
1062,287.2616280625,288.167878425,60.0,42.0
1063,286.6695225625,290.431037225,68.0,96.0
1064,287.0642595625,290.4524188125,65.0,52.0
1065,287.4589965625,290.47215566250003,41.0,60.0
1066,288.2484705625,290.4853135625,53.0,51.0
1067,288.6432075625,290.4853135625,60.0,55.0
1068,287.8537335625,290.4951819875,48.0,41.0
1069,290.6168925625,292.4211696,48.0,40.0
1070,290.6168925625,292.4392617125,53.0,38.0
1071,290.6168925625,292.490248575,41.0,46.0
1072,290.6168925625,292.49353805,68.0,41.0
1073,290.6168925625,292.51985385,65.0,49.0
1074,290.6168925625,292.5511038625,60.0,39.0
