,start,end,pitch,velocity
0,21.497725481250004,22.452270856250003,64.0,110.0
1,22.452270856250003,23.406816231250005,69.0,113.0
2,23.406816231250005,23.952270731250003,71.0,114.0
3,23.952270731250003,24.25681616041667,69.0,88.0
4,24.224997981250006,24.859088837500003,71.0,110.0
5,24.770452481250004,25.588634231250005,73.0,91.0
6,25.588634231250005,26.134088731250003,71.0,104.0
7,26.134088731250003,26.406815981250006,69.0,84.0
8,26.406815981250006,27.770452231250005,73.0,109.0
9,27.770452231250005,28.315906731250006,68.0,113.0
10,28.315906731250006,28.588633981250005,66.0,97.0
11,28.588633981250005,29.134088481250004,68.0,106.0
12,29.134088481250004,29.679542981250005,69.0,96.0
13,29.679542981250005,31.04090650416667,66.0,100.0
14,31.043179231250004,31.609088275000005,66.0,113.0
15,31.588633731250006,32.134088231250004,71.0,102.0
16,32.134088231250004,32.67954273125,73.0,106.0
17,32.67954273125,32.952269981250005,71.0,91.0
18,32.952269981250005,33.49772448125,73.0,103.0
19,33.49772448125,34.315906231250004,74.0,100.0
20,34.315906231250004,34.86136073125001,73.0,116.0
21,34.86136073125001,35.134087981250005,71.0,91.0
22,35.134087981250005,36.497724231250004,74.0,107.0
23,36.497724231250004,37.04317873125001,69.0,110.0
24,37.04317873125001,37.315905981250005,68.0,93.0
25,37.315905981250005,37.86136048125,69.0,113.0
26,37.86136048125,38.40681498125001,71.0,94.0
27,38.40681498125001,39.77045123125001,68.0,97.0
28,39.77045123125001,40.31817845833334,64.0,102.0
29,40.315905731250005,40.93863295208334,69.0,89.0
30,40.86136023125,41.40681473125001,71.0,92.0
31,41.40681473125001,41.70908743333334,69.0,85.0
32,41.679541981250004,42.22499648125001,71.0,94.0
33,42.22499648125001,43.04317823125001,73.0,97.0
34,43.04317823125001,43.58863273125001,71.0,98.0
35,43.58863273125001,43.861359981250004,69.0,87.0
36,43.861359981250004,45.22499623125001,73.0,100.0
37,45.22499623125001,45.77045073125001,68.0,113.0
38,45.77045073125001,46.04317798125001,66.0,100.0
39,46.04317798125001,46.58863248125001,68.0,113.0
40,46.58863248125001,47.13408698125001,69.0,114.0
41,47.13408698125001,48.495450504166676,66.0,109.0
42,48.497723231250006,49.04317773125001,66.0,91.0
43,49.04317773125001,49.58863223125001,71.0,89.0
44,49.58863223125001,50.13408673125001,73.0,95.0
45,50.13408673125001,50.40681398125001,71.0,89.0
46,50.40681398125001,50.95226848125001,73.0,95.0
47,50.95226848125001,51.77045023125001,74.0,104.0
48,51.77045023125001,52.31590473125001,73.0,103.0
49,52.31590473125001,52.58863198125001,71.0,94.0
50,52.58863198125001,53.95226823125001,74.0,108.0
51,53.95226823125001,54.49772273125001,69.0,107.0
52,54.49772273125001,54.77044998125001,68.0,93.0
53,54.77044998125001,55.31590448125001,69.0,107.0
54,55.31590448125001,55.86135898125001,71.0,107.0
55,55.86135898125001,57.22499523125001,68.0,106.0
56,57.22499523125001,57.77044973125001,73.0,116.0
57,57.77044973125001,58.31590423125001,74.0,108.0
58,58.31590423125001,61.586358504166675,76.0,113.0
59,61.58863123125001,62.13408573125001,76.0,107.0
60,62.13408573125001,62.67954023125001,68.0,103.0
61,62.67954023125001,65.95226723125,69.0,98.0
62,65.95226723125,66.52499445625001,71.0,108.0
63,66.49772173125001,67.07272168333334,73.0,106.0
64,67.04317623125002,67.31590348125002,74.0,110.0
65,67.31590348125002,67.58863073125,71.0,91.0
66,67.58863073125,67.86590343541668,66.0,97.0
67,67.86135798125001,68.40681248125001,74.0,93.0
68,68.40681248125001,68.94999425416668,71.0,93.0
69,68.95226698125,69.22499423125001,71.0,91.0
70,69.22499423125001,69.49999420833335,74.0,90.0
71,69.49772148125001,69.77044873125001,71.0,88.0
72,69.77044873125001,70.08635779583335,66.0,87.0
73,70.04317598125002,70.58863048125001,74.0,91.0
74,70.58863048125001,70.85908500416667,73.0,113.0
75,70.86135773125001,71.13408498125001,73.0,109.0
76,71.13408498125001,71.40681223125002,74.0,107.0
77,71.40681223125002,71.67953948125002,73.0,106.0
78,71.67953948125002,71.94999400416668,71.0,100.0
79,71.95226673125,72.22272125416669,71.0,107.0
80,72.22499398125001,72.49544850416667,71.0,88.0
81,72.49772123125001,72.77044848125001,71.0,92.0
82,72.77044848125001,73.31590298125002,69.0,92.0
83,73.31590298125002,74.67953923125002,71.0,94.0
84,74.67953923125002,75.22499373125001,73.0,116.0
85,75.22499373125001,75.77044823125001,74.0,108.0
86,75.77044823125001,79.04090250416668,76.0,113.0
87,79.04317523125002,79.58862973125001,76.0,108.0
88,79.58862973125001,80.13408423125001,68.0,109.0
89,80.13408423125001,81.77044773125002,69.0,110.0
90,81.77044773125002,82.37044768125001,71.0,107.0
91,82.31590223125,83.95226573125001,73.0,97.0
92,83.95226573125001,84.22499298125001,71.0,110.0
93,84.22499298125001,84.49772023125001,73.0,93.0
94,84.49772023125001,84.77044748125002,74.0,113.0
95,84.77044748125002,85.04544745833334,71.0,91.0
96,85.04317473125002,85.31590198125001,66.0,91.0
97,85.31590198125001,85.86135648125001,74.0,91.0
98,85.86135648125001,86.40453825416668,71.0,96.0
99,86.40681098125002,86.67953823125002,71.0,88.0
100,86.67953823125002,86.95908366250002,74.0,91.0
101,86.95226548125001,87.23408363958335,71.0,87.0
102,87.22499273125001,87.52726543333335,66.0,87.0
103,87.49771998125001,88.04544720833334,74.0,88.0
104,88.04317448125002,88.31362900416669,73.0,86.0
105,88.31590173125001,88.58862898125001,73.0,93.0
106,88.58862898125001,88.86135623125001,74.0,93.0
107,88.86135623125001,89.13181075416668,76.0,104.0
108,89.13408348125002,89.40453800416668,76.0,88.0
109,89.40681073125002,89.67726525416668,76.0,91.0
110,89.67953798125002,89.94999250416669,76.0,90.0
111,89.95226523125001,90.22499248125001,76.0,98.0
112,90.22499248125001,91.04317423125002,78.0,109.0
113,91.04317423125002,92.13181050416668,76.0,107.0
114,92.13408323125002,92.67953773125002,76.0,114.0
115,92.67953773125002,93.22499223125001,81.0,114.0
116,93.22499223125001,94.04317398125002,78.0,109.0
117,94.04317398125002,96.22271925416668,76.0,107.0
118,96.22499198125001,96.77044648125002,76.0,104.0
119,96.77044648125002,97.04317373125002,73.0,116.0
120,97.04317373125002,97.31590098125001,71.0,104.0
121,97.31590098125001,97.58862823125001,69.0,92.0
122,97.58862823125001,97.88408275208334,71.0,114.0
123,97.86135548125002,98.13862818541668,69.0,96.0
124,98.13408273125002,98.40680998125002,68.0,109.0
125,98.40680998125002,98.67953723125002,69.0,110.0
126,98.67953723125002,98.95226448125001,68.0,97.0
127,98.95226448125001,99.26590081875001,69.0,102.0
128,99.22499173125001,99.49771898125002,68.0,100.0
129,99.49771898125002,99.77044623125002,69.0,110.0
130,99.77044623125002,100.10680983958335,73.0,97.0
131,100.04317348125002,100.58862798125001,68.0,93.0
132,100.58862798125001,101.40680973125002,69.0,102.0
133,101.40680973125002,101.94999150416669,81.0,110.0
134,101.95226423125001,102.77044598125002,81.0,113.0
135,102.77044598125002,104.94999125416669,78.0,113.0
136,104.95226398125001,105.49771848125002,78.0,109.0
137,105.49771848125002,105.77044573125002,73.0,113.0
138,105.77044573125002,106.07499116041669,71.0,113.0
139,106.04317298125002,106.32271841250002,69.0,94.0
140,106.31590023125001,106.58862748125001,71.0,110.0
141,106.58862748125001,106.86135473125002,73.0,100.0
142,106.86135473125002,107.14090016250002,71.0,110.0
143,107.13408198125002,107.40908195833335,73.0,100.0
144,107.40680923125002,107.67953648125001,71.0,93.0
145,107.67953648125001,107.95680918541669,73.0,103.0
146,107.95226373125001,108.22499098125002,71.0,107.0
147,108.22499098125002,108.49771823125002,73.0,100.0
148,108.49771823125002,108.82953638541669,76.0,113.0
149,108.77044548125002,109.31589998125001,78.0,109.0
150,109.31589998125001,110.13408173125002,76.0,114.0
151,110.13408173125002,110.67953623125001,81.0,114.0
152,110.67953623125001,111.49771798125002,78.0,109.0
153,111.49771798125002,113.67726325416669,76.0,107.0
154,113.67953598125001,114.22499048125002,76.0,104.0
155,114.22499048125002,114.49771773125002,73.0,116.0
156,114.49771773125002,114.77044498125002,71.0,104.0
157,114.77044498125002,115.04317223125003,69.0,92.0
158,115.04317223125003,115.33862675208336,71.0,114.0
159,115.31589948125001,115.59317218541669,69.0,96.0
160,115.58862673125002,115.86135398125002,68.0,109.0
161,115.86135398125002,116.13408123125002,69.0,110.0
162,116.13408123125002,116.40680848125002,68.0,97.0
163,116.40680848125002,116.72044481875002,69.0,102.0
164,116.67953573125001,116.95226298125002,68.0,100.0
165,116.95226298125002,117.22499023125002,69.0,110.0
166,117.22499023125002,117.56135383958335,73.0,97.0
167,117.49771748125002,118.04317198125003,68.0,93.0
168,118.04317198125003,118.86135373125002,69.0,102.0
169,118.86135373125002,119.40453550416669,81.0,110.0
170,119.40680823125003,120.22498998125002,81.0,113.0
171,120.22498998125002,122.67726250416669,78.0,113.0
172,122.67953523125001,123.22498973125002,78.0,119.0
173,123.22498973125002,123.77044423125002,81.0,114.0
174,123.77044423125002,124.60226234375003,78.0,116.0
175,124.58862598125002,125.95226223125002,76.0,113.0
176,125.95226223125002,127.04089850416669,78.0,119.0
177,127.04317123125003,127.58862573125002,78.0,119.0
178,127.58862573125002,128.13408023125,83.0,114.0
179,128.13408023125,128.95226198125002,82.0,123.0
180,128.95226198125002,131.1318072541667,78.0,119.0
181,131.13407998125,131.67953448125002,78.0,119.0
182,131.67953448125002,131.95226173125002,75.0,119.0
183,131.95226173125002,132.22498898125002,73.0,116.0
184,132.22498898125002,132.49771623125002,71.0,98.0
185,132.49771623125002,132.77044348125003,70.0,106.0
186,132.77044348125003,133.05907982083335,71.0,91.0
187,133.04317073125003,133.34998888750002,70.0,103.0
188,133.31589798125003,133.59998886666668,71.0,108.0
189,133.58862523125003,133.8863524791667,70.0,106.0
190,133.86135248125,134.13407973125,71.0,96.0
191,134.13407973125,134.40680698125,70.0,103.0
192,134.40680698125,134.67953423125002,71.0,94.0
193,134.67953423125002,134.95226148125002,75.0,119.0
194,134.95226148125002,135.49771598125002,70.0,91.0
195,135.49771598125002,136.31589773125003,71.0,100.0
196,136.31589773125003,136.8590795041667,83.0,98.0
197,136.86135223125,137.67953398125002,83.0,116.0
198,137.67953398125002,138.22498848125002,80.0,116.0
199,138.22498848125002,138.49771573125003,78.0,97.0
200,138.49771573125003,139.86135198125,76.0,107.0
201,139.86135198125,140.40680648125002,80.0,119.0
202,140.40680648125002,140.67953373125002,75.0,116.0
203,140.67953373125002,140.95226098125002,73.0,119.0
204,140.95226098125002,141.22498823125002,71.0,113.0
205,141.22498823125002,141.49771548125003,73.0,116.0
206,141.49771548125003,141.78407909375002,75.0,116.0
207,141.77044273125003,142.04316998125003,73.0,113.0
208,142.04316998125003,142.31589723125003,75.0,109.0
209,142.31589723125003,142.58862448125004,73.0,113.0
210,142.58862448125004,142.86135173125,75.0,91.0
211,142.86135173125,143.13407898125,73.0,106.0
212,143.13407898125,143.40680623125002,75.0,116.0
213,143.40680623125002,143.67953348125002,76.0,117.0
214,143.67953348125002,143.95226073125002,78.0,116.0
215,143.95226073125002,144.22498798125002,76.0,116.0
216,144.22498798125002,144.49771523125003,78.0,116.0
217,144.49771523125003,144.77044248125003,76.0,113.0
218,144.77044248125003,145.04316973125003,78.0,116.0
219,145.04316973125003,145.31589698125003,76.0,117.0
220,145.31589698125003,145.5863515041667,78.0,97.0
221,145.58862423125004,148.5863512541667,78.0,113.0
222,148.58862398125004,149.13407848125001,78.0,119.0
223,149.13407848125001,149.40680573125002,75.0,116.0
224,149.40680573125002,149.67953298125002,73.0,119.0
225,149.67953298125002,149.95226023125002,71.0,114.0
226,149.95226023125002,150.22498748125003,70.0,113.0
227,150.22498748125003,150.50453291250003,71.0,104.0
228,150.49771473125003,150.7818056166667,70.0,113.0
229,150.77044198125003,151.05907832083335,71.0,107.0
230,151.04316923125003,151.32953284375003,70.0,113.0
231,151.31589648125004,151.58862373125004,71.0,104.0
232,151.58862373125004,151.86135098125,70.0,113.0
233,151.86135098125,152.13407823125002,71.0,91.0
234,152.13407823125002,152.40680548125002,75.0,119.0
235,152.40680548125002,152.95225998125002,70.0,119.0
236,152.95225998125002,154.31589623125004,71.0,114.0
237,154.31589623125004,155.95225973125002,83.0,116.0
238,155.95225973125002,156.22498698125003,86.0,116.0
239,156.22498698125003,156.77044148125003,85.0,113.0
240,156.77044148125003,157.86135048125,83.0,117.0
241,157.86135048125,158.13407773125002,80.0,97.0
242,158.13407773125002,159.22498673125003,78.0,109.0
243,159.22498673125003,159.49771398125003,80.0,103.0
244,159.49771398125003,160.31589573125004,78.0,95.0
245,160.31589573125004,160.58862298125004,75.0,116.0
246,160.58862298125004,163.63862272708337,73.0,116.0
247,167.40680423125002,168.49771323125003,78.0,100.0
248,168.49771323125003,169.58862223125004,83.0,94.0
249,169.58862223125004,170.13407673125002,85.0,103.0
250,170.13407673125002,170.44544034166668,83.0,88.0
251,170.40680398125002,170.95225848125003,85.0,97.0
252,170.95225848125003,171.77044023125003,87.0,103.0
253,171.77044023125003,172.31589473125004,85.0,106.0
254,172.31589473125004,172.58862198125004,83.0,88.0
255,172.58862198125004,173.95225823125003,87.0,97.0
256,173.95225823125003,174.49771273125003,82.0,116.0
257,174.49771273125003,174.77043998125004,80.0,95.0
258,174.77043998125004,175.31589448125004,82.0,97.0
259,175.31589448125004,175.86134898125002,83.0,107.0
260,175.86134898125002,177.2227125041667,80.0,106.0
261,177.22498523125003,177.77043973125004,80.0,116.0
262,177.77043973125004,178.31589423125004,85.0,109.0
263,178.31589423125004,178.86134873125002,87.0,116.0
264,178.86134873125002,179.13407598125002,85.0,100.0
265,179.13407598125002,179.67953048125003,87.0,109.0
266,179.67953048125003,180.49771223125003,88.0,110.0
267,180.49771223125003,181.04316673125004,87.0,116.0
268,181.04316673125004,181.31589398125004,85.0,103.0
269,181.31589398125004,182.67953023125003,88.0,114.0
270,182.67953023125003,183.23180291250003,83.0,98.0
271,183.22498473125003,183.77043923125004,82.0,106.0
272,183.77043923125004,184.31589373125004,83.0,104.0
273,184.31589373125004,184.86134823125002,85.0,103.0
274,184.86134823125002,187.63634800000003,82.0,109.0
