,start,end,pitch,velocity
0,19.19456041875,19.454342962500004,52.0,95.0
1,19.455429918750003,19.715212462500002,52.0,96.0
2,19.71629941875,20.23803841875,52.0,102.0
3,20.23803841875,20.498907918750003,49.0,97.0
4,20.498907918750003,20.75977741875,52.0,96.0
5,20.75977741875,21.020646918750003,56.0,99.0
6,21.020646918750003,23.368472418750002,54.0,98.0
7,23.368472418750002,23.6282549625,63.0,95.0
8,23.629341918750004,23.889124462500003,63.0,96.0
9,23.890211418750003,24.1499939625,63.0,97.0
10,24.151080918750004,24.411950418750003,63.0,99.0
11,24.411950418750003,24.67281991875,59.0,99.0
12,24.67281991875,24.933689418750003,63.0,97.0
13,24.933689418750003,25.19455891875,66.0,95.0
14,25.19455891875,27.541297462500005,64.0,97.0
15,27.542384418750004,27.802166962500003,64.0,102.0
16,27.803253918750002,28.063036462500005,64.0,97.0
17,28.064123418750004,28.323905962500003,64.0,97.0
18,28.324992918750002,28.585862418750004,64.0,95.0
19,28.585862418750004,28.846731918750002,61.0,97.0
20,28.846731918750002,29.107601418750004,64.0,94.0
21,29.107601418750004,29.368470918750003,68.0,99.0
22,29.368470918750003,30.672818418750005,66.0,102.0
23,30.672818418750005,30.933687918750003,64.0,98.0
24,30.933687918750003,31.194557418750005,66.0,97.0
25,31.194557418750005,31.455426918750003,64.0,100.0
26,31.455426918750003,31.977165918750003,69.0,96.0
27,31.977165918750003,32.23803541875,68.0,99.0
28,32.23803541875,32.759774418750006,68.0,101.0
29,32.759774418750006,33.019556962500005,66.0,96.0
30,33.020643918750004,33.28151341875,66.0,95.0
31,33.28151341875,33.54238291875,68.0,89.0
32,33.54238291875,34.064121918750004,69.0,99.0
33,34.064121918750004,34.5847739625,68.0,99.0
34,34.58586091875,34.846730418750006,68.0,99.0
35,34.846730418750006,35.106512962500005,66.0,95.0
36,35.107599918750005,35.36846941875,66.0,99.0
37,35.36846941875,35.88912146250001,64.0,101.0
38,35.89020841875001,36.149990962500006,64.0,97.0
39,36.151077918750005,36.410860462500004,64.0,96.0
40,36.41194741875,36.6717299625,64.0,97.0
41,36.67281691875,36.93368641875001,64.0,96.0
42,36.93368641875001,37.194555918750005,61.0,101.0
43,37.194555918750005,37.45542541875,64.0,95.0
44,37.45542541875,37.71629491875,68.0,98.0
45,37.71629491875,40.06412041875,66.0,101.0
46,40.06412041875,40.32390296250001,71.0,96.0
47,40.324989918750006,40.584772462500005,71.0,94.0
48,40.585859418750005,40.845641962500004,71.0,96.0
49,40.84672891875,41.10759841875,71.0,96.0
50,41.10759841875,41.36846791875001,68.0,95.0
51,41.36846791875001,41.629337418750005,66.0,101.0
52,41.629337418750005,42.15107641875,68.0,96.0
53,42.15107641875,42.41194591875001,66.0,99.0
54,42.41194591875001,44.2369454625,64.0,97.0
55,44.23803241875,44.4978149625,64.0,95.0
56,44.49890191875001,44.75868446250001,64.0,96.0
57,44.759771418750006,45.019553962500005,64.0,96.0
58,45.020640918750004,45.28151041875,64.0,100.0
59,45.28151041875,45.54237991875001,61.0,101.0
60,45.54237991875001,45.803249418750006,64.0,99.0
61,45.803249418750006,46.32498841875,68.0,102.0
62,46.32498841875,46.84672741875001,66.0,102.0
63,46.84672741875001,47.106509962500006,63.0,95.0
64,47.107596918750005,47.36846641875,63.0,97.0
65,47.36846641875,47.6282489625,64.0,97.0
66,47.62933591875001,47.89020541875001,64.0,99.0
67,47.89020541875001,48.411944418750004,66.0,97.0
68,48.411944418750004,51.02063941875001,64.0,99.0
69,51.02063941875001,51.28042196250001,71.0,96.0
70,51.281508918750006,51.542378418750005,71.0,99.0
71,51.542378418750005,51.80324791875,69.0,99.0
72,51.80324791875,52.06411741875001,68.0,100.0
73,52.06411741875001,52.32498691875001,69.0,98.0
74,52.32498691875001,53.10759541875001,68.0,109.0
75,53.10759541875001,53.36737796250001,71.0,96.0
76,53.36846491875001,53.629334418750005,71.0,99.0
77,53.629334418750005,53.890203918750004,69.0,91.0
78,53.890203918750004,54.15107341875001,68.0,97.0
79,54.15107341875001,54.41194291875001,69.0,96.0
80,54.41194291875001,54.672812418750006,68.0,101.0
81,54.672812418750006,55.19455141875001,66.0,97.0
82,55.19455141875001,55.45433396250001,71.0,96.0
83,55.45542091875001,55.716290418750006,71.0,97.0
84,55.716290418750006,55.977159918750004,69.0,97.0
85,55.977159918750004,56.23802941875,68.0,100.0
86,56.23802941875,56.49781196250001,66.0,98.0
87,56.49889891875001,56.75868146250001,66.0,90.0
88,56.759768418750006,57.019550962500006,66.0,95.0
89,57.020637918750005,57.28150741875,66.0,99.0
90,57.28150741875,57.54237691875001,64.0,99.0
91,57.54237691875001,57.80324641875001,66.0,96.0
92,57.80324641875001,58.323898462500004,68.0,97.0
93,58.32498541875,59.368463418750004,68.0,99.0
94,59.368463418750004,59.6282459625,71.0,98.0
95,59.62933291875001,59.89020241875001,71.0,98.0
96,59.89020241875001,60.151071918750006,69.0,97.0
97,60.151071918750006,60.411941418750004,68.0,99.0
98,60.411941418750004,60.67281091875001,69.0,96.0
99,60.67281091875001,61.455419418750004,68.0,99.0
100,61.455419418750004,61.715201962500004,71.0,95.0
101,61.71628891875001,61.97715841875001,71.0,99.0
102,61.97715841875001,62.23802791875001,69.0,97.0
103,62.23802791875001,62.498897418750005,68.0,102.0
104,62.498897418750005,63.02063641875001,69.0,96.0
105,63.02063641875001,63.542375418750005,66.0,96.0
106,63.542375418750005,63.802157962500004,71.0,94.0
107,63.80324491875,64.06411441875001,71.0,97.0
108,64.06411441875001,64.32498391875001,69.0,96.0
109,64.32498391875001,64.58585341875,68.0,96.0
110,64.58585341875,64.84563596250001,66.0,95.0
111,64.84672291875,65.10650546250001,66.0,91.0
112,65.10759241875,65.6282444625,66.0,106.0
113,65.62933141875001,65.8891139625,66.0,86.0
114,65.89020091875001,66.15107041875001,66.0,99.0
115,66.15107041875001,66.41193991875001,68.0,100.0
116,66.41193991875001,66.67280941875,69.0,96.0
117,66.67280941875,67.71628741875001,68.0,102.0
118,67.71628741875001,67.9760699625,71.0,99.0
119,67.97715691875001,68.23802641875001,71.0,97.0
120,68.23802641875001,68.49889591875001,69.0,91.0
121,68.49889591875001,68.75976541875,68.0,97.0
122,68.75976541875,69.02063491875,69.0,95.0
123,69.02063491875,69.80324341875001,68.0,100.0
124,69.80324341875001,70.0630259625,71.0,100.0
125,70.06411291875001,70.32498241875001,71.0,97.0
126,70.32498241875001,70.58585191875001,69.0,94.0
127,70.58585191875001,70.84672141875001,68.0,97.0
128,70.84672141875001,71.10759091875,69.0,91.0
129,71.10759091875,71.36846041875,68.0,96.0
130,71.36846041875,71.89019941875,66.0,97.0
131,71.89019941875,72.14998196250001,71.0,97.0
132,72.15106891875001,72.41193841875001,71.0,97.0
133,72.41193841875001,72.67280791875001,69.0,95.0
134,72.67280791875001,72.93367741875001,68.0,99.0
135,72.93367741875001,73.19345996250001,66.0,90.0
136,73.19454691875,73.45432946250001,66.0,96.0
137,73.45541641875,73.97606846250001,66.0,90.0
138,73.97715541875,74.23693796250001,66.0,95.0
139,74.23802491875001,74.49889441875001,66.0,99.0
140,74.49889441875001,74.75976391875001,68.0,98.0
141,74.75976391875001,75.02063341875001,69.0,90.0
142,75.02063341875001,75.28150291875001,66.0,99.0
143,75.28150291875001,76.84671991875001,68.0,101.0
144,76.84671991875001,77.10758941875001,61.0,96.0
145,77.10758941875001,77.36845891875001,63.0,99.0
146,77.36845891875001,77.88911096250001,64.0,97.0
147,77.89019791875,78.41084996250001,64.0,98.0
148,78.41193691875002,78.67280641875001,64.0,101.0
149,78.67280641875001,78.93367591875001,66.0,96.0
150,78.93367591875001,79.19454541875001,68.0,96.0
151,79.19454541875001,80.49889291875,66.0,101.0
152,80.49889291875,80.75976241875001,63.0,100.0
153,80.75976241875001,81.02063191875001,64.0,95.0
154,81.02063191875001,81.28150141875001,66.0,99.0
155,81.28150141875001,82.956501,64.0,99.0
156,102.67280041875001,102.9325829625,64.0,97.0
157,102.93366991875001,103.1934524625,64.0,96.0
158,103.19453941875001,103.45432196250002,64.0,97.0
159,103.45540891875001,103.71627841875001,64.0,96.0
160,103.71627841875001,103.97714791875,61.0,101.0
161,103.97714791875,104.23801741875,64.0,95.0
162,104.23801741875,104.49888691875002,68.0,98.0
163,104.49888691875002,106.84671241875002,66.0,101.0
164,106.84671241875002,107.10649496250001,71.0,96.0
165,107.10758191875001,107.3673644625,71.0,94.0
166,107.36845141875001,107.6282339625,71.0,96.0
167,107.62932091875001,107.89019041875001,71.0,96.0
168,107.89019041875001,108.15105991875001,68.0,95.0
169,108.15105991875001,108.41192941875,66.0,101.0
170,108.41192941875,108.93366841875002,68.0,96.0
171,108.93366841875002,109.19453791875002,66.0,99.0
172,109.19453791875002,111.01953746250001,64.0,97.0
173,111.02062441875002,111.28040696250001,64.0,95.0
174,111.28149391875002,111.54127646250001,64.0,96.0
175,111.54236341875001,111.8021459625,64.0,96.0
176,111.80323291875001,112.06410241875001,64.0,100.0
177,112.06410241875001,112.32497191875001,61.0,101.0
178,112.32497191875001,112.58584141875001,64.0,99.0
179,112.58584141875001,113.10758041875002,68.0,102.0
180,113.10758041875002,113.62931941875001,66.0,102.0
181,113.62931941875001,113.8891019625,63.0,95.0
182,113.89018891875001,114.15105841875001,63.0,97.0
183,114.15105841875001,114.41084096250002,64.0,97.0
184,114.41192791875001,114.67279741875001,64.0,99.0
185,114.67279741875001,115.19453641875002,66.0,97.0
186,115.19453641875002,117.80323141875002,64.0,99.0
187,117.80323141875002,118.06301396250001,71.0,96.0
188,118.06410091875001,118.32497041875001,71.0,99.0
189,118.32497041875001,118.58583991875001,69.0,99.0
190,118.58583991875001,118.84670941875001,68.0,100.0
191,118.84670941875001,119.10757891875001,69.0,98.0
192,119.10757891875001,119.89018741875002,68.0,109.0
193,119.89018741875002,120.14996996250001,71.0,96.0
194,120.15105691875002,120.41192641875001,71.0,99.0
195,120.41192641875001,120.67279591875001,69.0,91.0
196,120.67279591875001,120.93366541875001,68.0,97.0
197,120.93366541875001,121.19453491875001,69.0,96.0
198,121.19453491875001,121.45540441875,68.0,101.0
199,121.45540441875,121.97714341875002,66.0,97.0
200,121.97714341875002,122.23692596250001,71.0,96.0
201,122.23801291875002,122.49888241875001,71.0,97.0
202,122.49888241875001,122.75975191875001,69.0,97.0
203,122.75975191875001,123.02062141875001,68.0,100.0
204,123.02062141875001,123.28040396250002,66.0,98.0
205,123.28149091875001,123.54127346250002,66.0,90.0
206,123.54236041875001,123.80214296250001,66.0,95.0
207,123.80322991875002,124.06409941875002,66.0,99.0
208,124.06409941875002,124.32496891875002,64.0,99.0
209,124.32496891875002,124.58583841875001,66.0,96.0
210,124.58583841875001,125.10649046250002,68.0,97.0
211,125.10757741875001,126.15105541875002,68.0,99.0
212,126.15105541875002,126.41083796250001,71.0,98.0
213,126.41192491875002,126.67279441875002,71.0,98.0
214,126.67279441875002,126.93366391875001,69.0,97.0
215,126.93366391875001,127.19453341875001,68.0,99.0
216,127.19453341875001,127.45540291875001,69.0,96.0
217,127.45540291875001,128.23801141875,68.0,99.0
218,128.23801141875,128.49779396250003,71.0,95.0
219,128.49888091875002,128.75975041875,71.0,99.0
220,128.75975041875,129.02061991875001,69.0,97.0
221,129.02061991875001,129.28148941875003,68.0,102.0
222,129.28148941875003,129.80322841875002,69.0,96.0
223,129.80322841875002,130.32496741875002,66.0,96.0
224,130.32496741875002,130.5847499625,71.0,94.0
225,130.58583691875,130.84670641875002,71.0,97.0
226,130.84670641875002,131.10757591875,69.0,96.0
227,131.10757591875,131.36844541875,68.0,96.0
228,131.36844541875,131.6282279625,66.0,95.0
229,131.62931491875003,131.88909746250002,66.0,91.0
230,131.89018441875,132.41083646250001,66.0,106.0
231,132.41192341875,132.67170596250003,66.0,86.0
232,132.67279291875002,132.93366241875,66.0,99.0
233,132.93366241875,133.19453191875002,68.0,100.0
234,133.19453191875002,133.45540141875003,69.0,96.0
235,133.45540141875003,134.49887941875002,68.0,102.0
236,134.49887941875002,134.7586619625,71.0,99.0
237,134.75974891875,135.02061841875002,71.0,97.0
238,135.02061841875002,135.28148791875,69.0,91.0
239,135.28148791875,135.54235741875002,68.0,97.0
240,135.54235741875002,135.80322691875003,69.0,95.0
241,135.80322691875003,136.58583541875,68.0,100.0
242,136.58583541875,136.84561796250003,71.0,100.0
243,136.84670491875002,137.10757441875,71.0,97.0
244,137.10757441875,137.36844391875002,69.0,94.0
245,137.36844391875002,137.62931341875,68.0,97.0
246,137.62931341875,137.89018291875,69.0,91.0
247,137.89018291875,138.15105241875003,68.0,96.0
248,138.15105241875003,138.67279141875002,66.0,97.0
249,138.67279141875002,138.93257396250002,71.0,97.0
250,138.93366091875,139.19453041875002,71.0,97.0
251,139.19453041875002,139.45539991875,69.0,95.0
252,139.45539991875,139.71626941875002,68.0,99.0
253,139.71626941875002,139.9760519625,66.0,90.0
254,139.97713891875003,140.23692146250002,66.0,96.0
255,140.23800841875,140.75866046250002,66.0,90.0
256,140.75974741875,141.0195299625,66.0,95.0
257,141.02061691875002,141.28148641875,66.0,99.0
258,141.28148641875,141.54235591875002,68.0,98.0
259,141.54235591875002,141.80322541875,69.0,90.0
260,141.80322541875,142.06409491875002,66.0,99.0
261,142.06409491875002,143.62931191875,68.0,101.0
262,143.62931191875,143.89018141875002,61.0,96.0
263,143.89018141875002,144.15105091875,63.0,99.0
264,144.15105091875,144.6717029625,64.0,97.0
265,144.67278991875003,145.1934419625,64.0,98.0
266,145.19452891875002,145.45539841875,64.0,101.0
267,145.45539841875,145.71626791875002,66.0,96.0
268,145.71626791875002,145.97713741875,68.0,96.0
269,145.97713741875,147.28148491875,66.0,101.0
270,147.28148491875,147.54235441875002,63.0,100.0
271,147.54235441875002,147.80322391875,64.0,95.0
272,147.80322391875,148.06409341875002,66.0,99.0
273,148.06409341875002,151.19452741875003,64.0,99.0
274,151.19452741875003,151.45430996250002,71.0,99.0
275,151.45539691875,151.71626641875002,71.0,97.0
276,151.71626641875002,151.97713591875,69.0,91.0
277,151.97713591875,152.23800541875002,68.0,97.0
278,152.23800541875002,152.49887491875,69.0,95.0
279,152.49887491875,153.28148341875,68.0,100.0
280,153.28148341875,153.5412659625,71.0,100.0
281,153.54235291875003,153.80322241875,71.0,97.0
282,153.80322241875,154.06409191875002,69.0,94.0
283,154.06409191875002,154.32496141875,68.0,97.0
284,154.32496141875,154.58583091875002,69.0,91.0
285,154.58583091875002,154.84670041875,68.0,96.0
286,154.84670041875,155.36843941875003,66.0,97.0
287,155.36843941875003,155.62822196250002,71.0,97.0
288,155.62930891875,155.89017841875003,71.0,97.0
289,155.89017841875003,156.15104791875,69.0,95.0
290,156.15104791875,156.41191741875002,68.0,99.0
291,156.41191741875002,156.6716999625,66.0,90.0
292,156.67278691875,156.93256946250003,66.0,96.0
293,156.93365641875002,157.45430846250002,66.0,90.0
294,157.45539541875002,157.7151779625,66.0,95.0
295,157.71626491875003,157.97713441875,66.0,99.0
296,157.97713441875,158.23800391875002,68.0,98.0
297,158.23800391875002,158.49887341875,69.0,90.0
298,158.49887341875,158.75974291875002,66.0,99.0
299,158.75974291875002,160.32495991875,68.0,101.0
300,160.32495991875,160.58582941875002,61.0,96.0
301,160.58582941875002,160.84669891875,63.0,99.0
302,160.84669891875,161.3673509625,64.0,97.0
303,161.36843791875,161.8890899625,64.0,98.0
304,161.89017691875003,162.15104641875,64.0,101.0
305,162.15104641875,162.41191591875003,66.0,96.0
306,162.41191591875003,162.67278541875,68.0,96.0
307,162.67278541875,163.97713291875002,66.0,101.0
308,163.97713291875002,164.23800241875003,63.0,100.0
309,164.23800241875003,164.49887191875,64.0,95.0
310,164.49887191875,164.75974141875002,66.0,99.0
311,164.75974141875002,166.43474100000003,64.0,99.0
