,start,end,pitch,velocity
0,40.69728357291667,40.99017558333334,77.0,107.0
1,40.991401072916666,41.28429308333334,77.0,113.0
2,41.28551857291667,41.57841058333334,77.0,107.0
3,41.57963607291667,41.87375357291667,77.0,113.0
4,41.87375357291667,42.16787107291667,75.0,109.0
5,42.16787107291667,42.46198857291667,74.0,107.0
6,42.46198857291667,42.75610607291667,70.0,109.0
7,42.75610607291667,43.34434107291667,72.0,108.0
8,43.34434107291667,43.63845857291667,74.0,98.0
9,43.63845857291667,44.22546808333334,72.0,114.0
10,44.22669357291667,44.52081107291667,72.0,107.0
11,44.52081107291667,44.81492857291667,74.0,107.0
12,44.81492857291667,45.10904607291667,75.0,95.0
13,45.10904607291667,45.99017308333334,74.0,107.0
14,45.99139857291667,46.13845732291667,74.0,113.0
15,46.13845732291667,46.28551607291667,75.0,88.0
16,46.28551607291667,46.57963357291667,74.0,108.0
17,46.57963357291667,46.87375107291667,72.0,100.0
18,46.87375107291667,47.16786857291667,70.0,109.0
19,47.16786857291667,47.46321156250001,72.0,100.0
20,47.46198607291667,49.22546558333334,67.0,107.0
21,49.22669107291667,49.52080857291667,67.0,107.0
22,49.52080857291667,49.81492607291667,69.0,107.0
23,49.81492607291667,50.40316107291667,70.0,106.0
24,50.40316107291667,50.716886406250005,69.0,104.0
25,50.69727857291667,51.28551357291667,67.0,104.0
26,51.28551357291667,52.167866072916674,74.0,104.0
27,52.167866072916674,52.75610107291667,72.0,98.0
28,52.75610107291667,53.05021857291667,77.0,110.0
29,53.05021857291667,53.63722808333334,72.0,100.0
30,53.63845357291667,53.93257107291667,72.0,113.0
31,53.93257107291667,54.22668857291667,74.0,110.0
32,54.22668857291667,54.52080607291667,75.0,100.0
33,54.52080607291667,59.52080357291667,74.0,114.0
34,59.52080357291667,59.813695583333335,77.0,114.0
35,59.81492107291667,60.10781308333334,77.0,110.0
36,60.109038572916674,60.40193058333334,77.0,108.0
37,60.40315607291667,60.69727357291667,77.0,113.0
38,60.69727357291667,60.99139107291667,75.0,103.0
39,60.99139107291667,61.28550857291667,74.0,110.0
40,61.28550857291667,61.579626072916675,70.0,113.0
41,61.579626072916675,62.16786107291667,72.0,113.0
42,62.16786107291667,62.46197857291667,74.0,114.0
43,62.46197857291667,63.048988083333334,72.0,108.0
44,63.05021357291667,63.344331072916674,72.0,116.0
45,63.344331072916674,63.63844857291667,74.0,113.0
46,63.63844857291667,63.93256607291667,75.0,106.0
47,63.93256607291667,64.81369308333333,74.0,116.0
48,64.81491857291667,64.96197732291667,74.0,114.0
49,64.96197732291667,65.10903607291667,75.0,86.0
50,65.10903607291667,65.40315357291666,74.0,108.0
51,65.40315357291666,65.69727107291668,72.0,98.0
52,65.69727107291668,65.99138857291668,70.0,95.0
53,65.99138857291668,66.28550607291668,72.0,113.0
54,66.28550607291668,68.04898558333333,67.0,113.0
55,68.05021107291667,68.37006385416667,67.0,102.0
56,68.34432857291667,68.63844607291666,69.0,110.0
57,68.63844607291666,69.22668107291668,70.0,119.0
58,69.22668107291668,69.52079857291668,69.0,113.0
59,69.52079857291668,70.10903357291667,67.0,114.0
60,70.10903357291667,70.99138607291667,74.0,116.0
61,70.99138607291667,71.57962107291667,72.0,119.0
62,71.57962107291667,71.87373857291668,77.0,113.0
63,71.87373857291668,72.46074808333334,72.0,110.0
64,72.46197357291668,73.34310058333334,72.0,94.0
65,73.34432607291667,73.64334553125,72.0,113.0
66,73.63844357291667,73.97177673958333,74.0,113.0
67,73.93256107291667,74.22667857291667,75.0,106.0
68,74.22667857291667,76.87373607291667,74.0,116.0
69,76.87373607291667,77.16243323958334,82.0,119.0
70,77.16243323958334,77.45089473958335,81.0,113.0
71,77.45089473958335,77.73935623958334,82.0,106.0
72,77.73935623958334,78.0290196625,81.0,116.0
73,78.02781773958334,79.18166373958334,74.0,108.0
74,79.18166373958334,79.47012523958334,82.0,119.0
75,79.47012523958334,79.71291366875,81.0,110.0
76,79.61435598958334,80.04704823958335,82.0,106.0
77,80.04704823958335,80.33550973958334,81.0,110.0
78,80.33550973958334,81.77781723958334,72.0,117.0
79,81.77781723958334,82.06627873958334,77.0,116.0
80,82.06627873958334,82.35474023958334,82.0,123.0
81,82.35474023958334,82.64320173958335,81.0,113.0
82,82.64320173958335,83.21892281666668,79.0,116.0
83,83.22012473958334,83.50858623958334,79.0,114.0
84,83.50858623958334,83.79704773958335,77.0,113.0
85,83.79704773958335,84.08550923958335,79.0,114.0
86,84.08550923958335,84.37397073958334,81.0,110.0
87,84.37397073958334,84.68046108333334,79.0,113.0
88,84.66243223958334,85.23935523958335,77.0,108.0
89,85.23935523958335,86.68046081666668,74.0,117.0
90,86.68166273958335,86.97012423958334,74.0,119.0
91,86.97012423958334,87.25858573958334,77.0,114.0
92,87.25858573958334,87.83550873958335,79.0,116.0
93,87.83550873958335,88.12397023958334,77.0,114.0
94,88.12397023958334,88.70089323958334,79.0,116.0
95,88.70089323958334,89.27781623958334,74.0,114.0
96,89.27781623958334,91.29704673958334,77.0,116.0
97,91.29704673958334,91.58550823958333,79.0,116.0
98,91.58550823958333,91.87396973958334,81.0,117.0
99,91.87396973958334,92.45089273958334,82.0,119.0
100,92.45089273958334,92.73935423958334,81.0,117.0
101,92.73935423958334,93.31627723958334,79.0,116.0
102,93.31627723958334,94.18166173958335,86.0,119.0
103,94.18166173958335,95.33550773958333,84.0,119.0
104,95.33550773958333,95.62396923958335,82.0,119.0
105,95.62396923958335,95.91243073958334,81.0,116.0
106,95.91243073958334,96.20089223958334,82.0,109.0
107,96.20089223958334,96.48935373958334,81.0,116.0
108,96.48935373958334,97.64319973958334,74.0,117.0
109,97.64319973958334,97.93166123958335,82.0,123.0
110,97.93166123958335,98.22012273958335,81.0,114.0
111,98.22012273958335,98.50858423958334,82.0,113.0
112,98.50858423958334,99.08550723958334,81.0,116.0
113,99.08550723958334,100.23935323958334,72.0,117.0
114,100.23935323958334,100.52781473958333,79.0,116.0
115,100.52781473958333,100.81627623958335,82.0,116.0
116,100.81627623958335,101.10473773958334,81.0,114.0
117,101.10473773958334,101.68045881666667,79.0,117.0
118,101.68166073958334,101.97012223958333,79.0,114.0
119,101.97012223958333,102.25858373958334,77.0,113.0
120,102.25858373958334,102.54704523958334,79.0,113.0
121,102.54704523958334,102.83550673958334,81.0,116.0
122,102.83550673958334,103.12396823958335,79.0,104.0
123,103.12396823958335,103.70089123958334,77.0,116.0
124,103.70089123958334,105.14199681666668,74.0,114.0
125,105.14319873958334,105.43166023958334,74.0,116.0
126,105.43166023958334,105.72012173958333,77.0,113.0
127,105.72012173958333,106.29704473958334,79.0,117.0
128,106.29704473958334,106.58550623958334,77.0,114.0
129,106.58550623958334,107.16242923958333,79.0,117.0
130,107.16242923958333,107.73935223958334,74.0,116.0
131,107.73935223958334,109.75858273958335,77.0,119.0
132,109.75858273958335,110.04704423958334,79.0,116.0
133,110.04704423958334,110.33550573958334,81.0,116.0
134,110.33550573958334,110.91242873958333,82.0,119.0
135,110.91242873958333,111.20089023958334,81.0,117.0
136,111.20089023958334,111.77781323958334,79.0,116.0
137,111.77781323958334,112.64319773958334,86.0,120.0
138,112.64319773958334,113.79704373958333,84.0,117.0
139,113.79704373958333,114.08550523958334,82.0,119.0
140,114.08550523958334,114.37396673958334,81.0,113.0
141,114.37396673958334,114.66242823958333,79.0,110.0
142,114.66242823958333,115.38358198958335,77.0,110.0
143,115.38358198958335,117.25858173958335,79.0,114.0
144,138.36717523958333,138.66006725,77.0,114.0
145,138.66129273958333,138.95418475000002,77.0,110.0
146,138.95541023958336,139.24830225000002,77.0,108.0
147,139.24952773958336,139.54364523958336,77.0,113.0
148,139.54364523958336,139.83776273958335,75.0,103.0
149,139.83776273958335,140.13188023958335,74.0,110.0
150,140.13188023958335,140.42599773958335,70.0,113.0
151,140.42599773958335,141.01423273958335,72.0,113.0
152,141.01423273958335,141.30835023958335,74.0,114.0
153,141.30835023958335,141.89535975,72.0,108.0
154,141.89658523958335,142.19070273958334,72.0,116.0
155,142.19070273958334,142.48482023958334,74.0,113.0
156,142.48482023958334,142.77893773958334,75.0,106.0
157,142.77893773958334,143.66006475,74.0,116.0
158,143.66129023958334,143.80834898958335,74.0,114.0
159,143.80834898958335,143.95540773958334,75.0,86.0
160,143.95540773958334,144.24952523958333,74.0,108.0
161,144.24952523958333,144.54364273958333,72.0,98.0
162,144.54364273958333,144.83776023958333,70.0,95.0
163,144.83776023958333,145.13187773958333,72.0,113.0
164,145.13187773958333,146.89535725000002,67.0,113.0
165,146.89658273958335,147.21643552083336,67.0,102.0
166,147.19070023958335,147.48481773958335,69.0,110.0
167,147.48481773958335,148.07305273958335,70.0,119.0
168,148.07305273958335,148.36717023958334,69.0,113.0
169,148.36717023958334,148.95540523958334,67.0,114.0
170,148.95540523958334,149.83775773958334,74.0,116.0
171,149.83775773958334,150.42599273958334,72.0,119.0
172,150.42599273958334,150.72011023958333,77.0,113.0
173,150.72011023958333,151.30711975000003,72.0,110.0
174,151.30834523958333,152.18947225000002,72.0,94.0
175,152.19069773958336,152.4897171979167,72.0,113.0
176,152.48481523958336,152.81814840625,74.0,113.0
177,152.77893273958335,153.07305023958335,75.0,106.0
178,153.07305023958335,154.54363773958335,74.0,116.0
179,155.6978843729167,155.98634587291667,82.0,119.0
180,155.98634587291667,156.27480737291668,81.0,113.0
181,156.27480737291668,156.5632688729167,82.0,106.0
182,156.5632688729167,156.85293229583334,81.0,116.0
183,156.85173037291668,158.0055763729167,74.0,108.0
184,158.0055763729167,158.29403787291668,82.0,119.0
185,158.29403787291668,158.53682630208334,81.0,110.0
186,158.4382686229167,158.8709608729167,82.0,106.0
187,158.8709608729167,159.15942237291668,81.0,110.0
188,159.15942237291668,160.60172987291668,72.0,117.0
189,160.60172987291668,160.8901913729167,77.0,116.0
190,160.8901913729167,161.17865287291667,82.0,123.0
191,161.17865287291667,161.46711437291668,81.0,113.0
192,161.46711437291668,162.04283545,79.0,116.0
193,162.04403737291668,162.3324988729167,79.0,114.0
194,162.3324988729167,162.62096037291667,77.0,113.0
195,162.62096037291667,162.90942187291668,79.0,114.0
196,162.90942187291668,163.1978833729167,81.0,110.0
197,163.1978833729167,163.5043737166667,79.0,113.0
198,163.48634487291667,164.0632678729167,77.0,108.0
199,164.0632678729167,165.50437345000003,74.0,117.0
200,165.5055753729167,165.79403687291668,74.0,119.0
201,165.79403687291668,166.0824983729167,77.0,114.0
202,166.0824983729167,166.65942137291668,79.0,116.0
203,166.65942137291668,166.9478828729167,77.0,114.0
204,166.9478828729167,167.5248058729167,79.0,116.0
205,167.5248058729167,168.10172887291668,74.0,114.0
206,168.10172887291668,170.12095937291667,77.0,116.0
207,170.12095937291667,170.40942087291668,79.0,116.0
208,170.40942087291668,170.6978823729167,81.0,117.0
209,170.6978823729167,171.2748053729167,82.0,119.0
210,171.2748053729167,171.5632668729167,81.0,117.0
211,171.5632668729167,172.1401898729167,79.0,116.0
212,172.1401898729167,173.00557437291667,86.0,119.0
213,173.00557437291667,174.15942037291668,84.0,119.0
214,174.15942037291668,174.4478818729167,82.0,119.0
215,174.4478818729167,174.73634337291668,81.0,116.0
216,174.73634337291668,175.0248048729167,82.0,109.0
217,175.0248048729167,175.3132663729167,81.0,116.0
218,175.3132663729167,176.4671123729167,74.0,117.0
219,176.4671123729167,176.75557387291667,82.0,123.0
220,176.75557387291667,177.04403537291668,81.0,114.0
221,177.04403537291668,177.3324968729167,82.0,113.0
222,177.3324968729167,177.9094198729167,81.0,116.0
223,177.9094198729167,179.06326587291667,72.0,117.0
224,179.06326587291667,179.35172737291668,79.0,116.0
225,179.35172737291668,179.6401888729167,82.0,116.0
226,179.6401888729167,179.92865037291668,81.0,114.0
227,179.92865037291668,180.50437145,79.0,117.0
228,180.50557337291667,180.79403487291668,79.0,114.0
229,180.79403487291668,181.0824963729167,77.0,113.0
230,181.0824963729167,181.37095787291668,79.0,113.0
231,181.37095787291668,181.6594193729167,81.0,116.0
232,181.6594193729167,181.9478808729167,79.0,104.0
233,181.9478808729167,182.5248038729167,77.0,116.0
234,182.5248038729167,183.96590945000003,74.0,114.0
235,183.9671113729167,184.25557287291667,74.0,116.0
236,184.25557287291667,184.54403437291668,77.0,113.0
237,184.54403437291668,185.12095737291668,79.0,117.0
238,185.12095737291668,185.4094188729167,77.0,114.0
239,185.4094188729167,185.98634187291668,79.0,117.0
240,185.98634187291668,186.56326487291668,74.0,116.0
241,186.56326487291668,188.5824953729167,77.0,119.0
242,188.5824953729167,188.87095687291668,79.0,116.0
243,188.87095687291668,189.1594183729167,81.0,116.0
244,189.1594183729167,189.73634137291668,82.0,119.0
245,189.73634137291668,190.0248028729167,81.0,117.0
246,190.0248028729167,190.6017258729167,79.0,116.0
247,190.6017258729167,191.4671103729167,86.0,120.0
248,191.4671103729167,192.62095637291668,84.0,117.0
249,192.62095637291668,192.9094178729167,82.0,119.0
250,192.9094178729167,193.19787937291667,81.0,113.0
251,193.19787937291667,193.48634087291668,79.0,110.0
252,193.48634087291668,194.20749462291667,77.0,110.0
253,194.20749462291667,196.14379244166668,79.0,114.0
254,197.2363403729167,197.52480187291667,82.0,119.0
255,197.52480187291667,197.81326337291668,81.0,113.0
256,197.81326337291668,198.1017248729167,82.0,106.0
257,198.1017248729167,198.39138829583334,81.0,116.0
258,198.39018637291667,199.5440323729167,74.0,108.0
259,199.5440323729167,199.8324938729167,82.0,119.0
260,199.8324938729167,200.07528230208334,81.0,110.0
261,199.9767246229167,200.4094168729167,82.0,106.0
262,200.4094168729167,200.69787837291668,81.0,110.0
263,200.69787837291668,202.14018587291667,72.0,117.0
264,202.14018587291667,202.42864737291669,77.0,116.0
265,202.42864737291669,202.7171088729167,82.0,123.0
266,202.7171088729167,203.00557037291668,81.0,113.0
267,203.00557037291668,203.58129145,79.0,116.0
268,203.5824933729167,203.87095487291668,79.0,114.0
269,203.87095487291668,204.15941637291667,77.0,113.0
270,204.15941637291667,204.44787787291668,79.0,114.0
271,204.44787787291668,204.7363393729167,81.0,110.0
272,204.7363393729167,205.0428297166667,79.0,113.0
273,205.02480087291667,205.6017238729167,77.0,108.0
274,205.6017238729167,207.04282945000003,74.0,117.0
275,207.0440313729167,207.33249287291667,74.0,119.0
276,207.33249287291667,207.62095437291669,77.0,114.0
277,207.62095437291669,208.19787737291668,79.0,116.0
278,208.19787737291668,208.4863388729167,77.0,114.0
279,208.4863388729167,209.06326187291668,79.0,116.0
280,209.06326187291668,209.64018487291668,74.0,114.0
281,209.64018487291668,211.65941537291667,77.0,116.0
282,211.65941537291667,211.94787687291668,79.0,116.0
283,211.94787687291668,212.2363383729167,81.0,117.0
284,212.2363383729167,212.81326137291668,82.0,119.0
285,212.81326137291668,213.1017228729167,81.0,117.0
286,213.1017228729167,213.6786458729167,79.0,116.0
287,213.6786458729167,214.5440303729167,86.0,119.0
288,214.5440303729167,215.69787637291668,84.0,119.0
289,215.69787637291668,215.9863378729167,82.0,119.0
290,215.9863378729167,216.27479937291668,81.0,116.0
291,216.27479937291668,216.5632608729167,82.0,109.0
292,216.5632608729167,216.8517223729167,81.0,116.0
293,216.8517223729167,218.00556837291668,74.0,117.0
294,218.00556837291668,218.29402987291667,82.0,123.0
295,218.29402987291667,218.58249137291668,81.0,114.0
296,218.58249137291668,218.8709528729167,82.0,113.0
297,218.8709528729167,219.44787587291668,81.0,116.0
298,219.44787587291668,220.6017218729167,72.0,117.0
299,220.6017218729167,220.89018337291668,79.0,116.0
300,220.89018337291668,221.17864487291666,82.0,116.0
301,221.17864487291666,221.4671063729167,81.0,114.0
302,221.4671063729167,222.04282745,79.0,117.0
303,222.04402937291667,222.33249087291668,79.0,114.0
304,222.33249087291668,222.6209523729167,77.0,113.0
305,222.6209523729167,222.90941387291667,79.0,113.0
306,222.90941387291667,223.19787537291668,81.0,116.0
307,223.19787537291668,223.4863368729167,79.0,104.0
308,223.4863368729167,224.0632598729167,77.0,116.0
309,224.0632598729167,225.50436545000002,74.0,114.0
310,225.5055673729167,225.79402887291667,74.0,116.0
311,225.79402887291667,226.08249037291668,77.0,113.0
312,226.08249037291668,226.65941337291667,79.0,117.0
313,226.65941337291667,226.94787487291669,77.0,114.0
314,226.94787487291669,227.52479787291668,79.0,117.0
315,227.52479787291668,228.1017208729167,74.0,116.0
316,228.1017208729167,230.1209513729167,77.0,119.0
317,230.1209513729167,230.40941287291668,79.0,116.0
318,230.40941287291668,230.6978743729167,81.0,116.0
319,230.6978743729167,231.27479737291668,82.0,119.0
320,231.27479737291668,231.56325887291666,81.0,117.0
321,231.56325887291666,232.14018187291668,79.0,116.0
322,232.14018187291668,233.0055663729167,86.0,120.0
323,233.0055663729167,234.15941237291668,84.0,117.0
324,234.15941237291668,234.4478738729167,82.0,119.0
325,234.4478738729167,234.7363353729167,81.0,113.0
326,234.7363353729167,235.02479687291668,79.0,110.0
327,235.02479687291668,235.74595062291667,77.0,110.0
328,235.74595062291667,237.68224844166667,79.0,114.0
