,start,end,pitch,velocity
0,1.5796560729166669,6.810045614583334,70.0,77.0
1,1.5796560729166669,6.824751489583334,62.0,86.0
2,1.5796560729166669,6.832104427083334,67.0,83.0
3,1.5796560729166669,6.873771072916667,43.0,80.0
4,1.5796560729166669,6.900731843750001,55.0,78.0
5,7.609064822916667,9.453426645833334,43.0,86.0
6,7.609064822916667,9.490191333333334,55.0,82.0
7,7.609064822916667,9.710779458333334,67.0,88.0
8,7.609064822916667,9.720583375,72.0,84.0
9,7.609064822916667,9.725485333333333,63.0,85.0
10,9.814946072916667,13.31249334375,55.0,81.0
11,9.814946072916667,13.327199218750001,62.0,81.0
12,9.814946072916667,13.344356072916668,43.0,82.0
13,9.814946072916667,13.3602874375,67.0,80.0
14,9.814946072916667,13.363963906250001,70.0,83.0
15,14.962002322916668,18.52817701041667,62.0,91.0
16,14.962002322916668,18.567392677083333,69.0,91.0
17,14.962002322916668,18.572294635416668,66.0,88.0
18,14.962002322916668,18.588226000000002,50.0,92.0
19,19.52082357291667,20.43748978125,70.0,113.0
20,19.52082357291667,20.520823072916667,62.0,107.0
21,19.52082357291667,20.520823072916667,67.0,114.0
22,19.52082357291667,21.264695250000003,43.0,96.0
23,19.52082357291667,21.43013634375,55.0,107.0
24,20.697293572916667,21.6691068125,70.0,97.0
25,20.697293572916667,21.75979304166667,62.0,94.0
26,20.697293572916667,21.775724406250003,67.0,102.0
27,21.87376357291667,22.8161650625,70.0,91.0
28,21.87376357291667,22.908076781250003,62.0,93.0
29,21.87376357291667,22.912978739583334,65.0,107.0
30,21.87376357291667,23.607831333333333,58.0,86.0
31,21.87376357291667,23.762243020833335,46.0,83.0
32,23.050233572916667,23.960772333333335,70.0,90.0
33,23.050233572916667,23.995086041666667,62.0,92.0
34,23.050233572916667,24.159301645833335,65.0,104.0
35,24.07964482291667,24.159301645833335,65.0,91.0
36,24.07964482291667,25.1396933125,60.0,93.0
37,24.07964482291667,25.166654083333334,69.0,91.0
38,25.25611482291667,25.904398812500002,69.0,86.0
39,25.25611482291667,25.939938010416668,65.0,94.0
40,25.25611482291667,25.95464388541667,60.0,94.0
41,24.07964482291667,25.99140857291667,41.0,84.0
42,24.07964482291667,26.044104625000003,53.0,84.0
43,26.43258482291667,27.22670207291667,67.0,91.0
44,26.43258482291667,27.35660396875,62.0,92.0
45,26.43258482291667,27.435035302083335,58.0,87.0
46,26.43258482291667,28.121309468750002,55.0,87.0
47,26.43258482291667,28.19361335416667,43.0,88.0
48,27.60905482291667,28.438711270833334,67.0,100.0
49,27.60905482291667,28.514691625,62.0,104.0
50,27.60905482291667,28.560034739583337,58.0,95.0
51,28.638466072916668,29.580867562500003,67.0,102.0
52,28.638466072916668,29.685034177083335,58.0,100.0
53,28.638466072916668,29.714445927083336,63.0,97.0
54,28.638466072916668,30.52081807291667,39.0,87.0
55,28.638466072916668,30.563710208333337,51.0,87.0
56,29.81493607291667,30.571063145833335,58.0,90.0
57,29.81493607291667,30.699739552083336,67.0,110.0
58,29.81493607291667,30.867631625,63.0,93.0
59,30.991406072916668,31.95831735416667,65.0,92.0
60,30.991406072916668,31.975474208333335,69.0,94.0
61,30.991406072916668,31.99508204166667,60.0,88.0
62,32.16787607291667,32.808807125,69.0,89.0
63,32.16787607291667,32.84434632291667,65.0,94.0
64,32.16787607291667,32.986503114583336,60.0,91.0
65,30.991406072916668,33.00120898958333,41.0,89.0
66,30.991406072916668,33.08821875,53.0,88.0
67,33.050228572916666,35.02081582291667,62.0,91.0
68,33.050228572916666,35.042874635416666,67.0,91.0
69,33.050228572916666,35.07718834375,43.0,86.0
70,33.050228572916666,35.084541281250004,58.0,86.0
71,33.050228572916666,35.12865890625,55.0,86.0
72,35.69728607291667,37.91419672916667,58.0,89.0
73,35.69728607291667,37.95096141666667,62.0,104.0
74,35.69728607291667,37.9632163125,55.0,91.0
75,35.69728607291667,37.96689278125,43.0,87.0
76,35.69728607291667,38.034294708333334,67.0,100.0
77,39.81493107291667,40.25610732291667,53.0,74.0
78,40.991401072916666,41.87375357291667,58.0,80.0
79,41.87375357291667,42.16787107291667,58.0,89.0
80,41.28551857291667,42.16787107291667,65.0,85.0
81,40.69728357291667,42.227920062500004,53.0,79.0
82,40.40316607291667,42.24875338541667,46.0,76.0
83,42.16787107291667,42.46198857291667,65.0,86.0
84,42.46198857291667,42.60904732291667,53.0,74.0
85,41.28551857291667,42.78306684375001,62.0,87.0
86,42.75610607291667,44.58698751041667,41.0,84.0
87,43.05022357291667,44.64948747916667,53.0,81.0
88,43.93257607291667,44.81492857291667,65.0,97.0
89,43.34434107291667,44.85046777083333,60.0,75.0
90,43.63845857291667,45.062477468750004,69.0,87.0
91,45.99139857291667,46.87375107291667,62.0,87.0
92,45.10904607291667,46.911741250000006,43.0,86.0
93,45.40316357291667,46.92522163541667,50.0,81.0
94,45.69728107291667,47.05634902083334,55.0,81.0
95,46.87375107291667,47.46198607291667,62.0,97.0
96,45.99139857291667,47.610270312500006,70.0,84.0
97,48.05022107291667,49.23159303125,63.0,81.0
98,47.75610357291667,49.236494989583335,58.0,73.0
99,47.46198607291667,49.308798875,51.0,82.0
100,49.22669107291667,49.52080857291667,39.0,97.0
101,48.34433857291667,49.62742616666667,70.0,85.0
102,48.34433857291667,49.659288895833335,67.0,89.0
103,49.52080857291667,49.81492607291667,41.0,97.0
104,49.81492607291667,51.76713097916667,43.0,88.0
105,50.10904357291667,51.78796430208334,55.0,80.0
106,50.99139607291667,51.90316032291667,58.0,84.0
107,50.99139607291667,51.91418972916667,67.0,88.0
108,52.167866072916674,54.10413961458334,41.0,91.0
109,52.46198357291667,54.106590593750006,53.0,74.0
110,53.05021857291667,54.44482571875,69.0,89.0
111,52.75610107291667,54.4926198125,60.0,77.0
112,55.403158572916674,55.80511915625,67.0,89.0
113,55.403158572916674,56.45462863541667,58.0,86.0
114,54.52080607291667,56.60658934375,43.0,83.0
115,55.10904107291667,56.63845207291667,55.0,81.0
116,54.81492357291667,56.64212854166667,50.0,81.0
117,56.873746072916674,57.485265375000004,67.0,91.0
118,57.46198107291667,57.97055925,55.0,83.0
119,56.873746072916674,58.167863072916674,58.0,86.0
120,57.75609857291667,58.61761775,62.0,96.0
121,56.873746072916674,58.68256869791667,43.0,82.0
122,57.16786357291667,58.699725552083336,50.0,81.0
123,58.34433357291667,58.699725552083336,55.0,82.0
124,58.63845107291667,58.971784239583336,58.0,89.0
125,59.81492107291667,60.38477372916667,58.0,84.0
126,60.109038572916674,60.82227351041667,70.0,90.0
127,59.52080357291667,60.99016558333334,53.0,77.0
128,60.69727357291667,61.00977341666667,58.0,84.0
129,60.109038572916674,61.099234156250006,62.0,89.0
130,59.22668607291667,61.13477335416667,46.0,85.0
131,61.28550857291667,61.485263375,70.0,109.0
132,62.16786107291667,62.80021369791667,53.0,75.0
133,61.579626072916675,63.29286051041667,69.0,107.0
134,62.46197857291667,63.497517270833335,60.0,87.0
135,61.579626072916675,63.50487020833334,41.0,82.0
136,61.87374357291667,63.57717409375,48.0,70.0
137,63.344331072916674,63.645801510416675,65.0,87.0
138,63.05021357291667,63.71810539583334,53.0,82.0
139,63.63844857291667,63.93991901041667,69.0,88.0
140,63.93256607291667,64.61884023958334,67.0,93.0
141,64.81491857291667,65.55633977083333,67.0,93.0
142,64.52080107291667,65.720555375,55.0,79.0
143,64.22668357291667,65.75119261458333,50.0,80.0
144,63.93256607291667,65.76222202083333,43.0,83.0
145,64.81491857291667,65.86148667708333,58.0,85.0
146,65.69727107291668,66.58084906250001,62.0,89.0
147,65.99138857291668,66.58575102083334,67.0,84.0
148,66.87374107291667,67.24138794791668,58.0,81.0
149,66.57962357291667,67.55021132291667,51.0,83.0
150,67.16785857291667,68.00364246875,63.0,90.0
151,66.28550607291668,68.11393653125,39.0,84.0
152,67.75609357291667,68.23035804166668,51.0,85.0
153,68.05021107291667,68.47913242708334,58.0,100.0
154,68.34432857291667,68.67030880208334,63.0,81.0
155,69.22668107291668,69.70094554166667,55.0,86.0
156,69.52079857291668,70.27692564583334,67.0,94.0
157,70.10903357291667,70.45094516666667,55.0,84.0
158,68.93256357291668,70.51589611458334,50.0,80.0
159,68.63844607291666,70.57962157291666,43.0,86.0
160,69.52079857291668,70.60168038541667,58.0,89.0
161,70.40315107291667,70.72300385416668,62.0,86.0
162,70.69726857291667,71.01221939583334,67.0,83.0
163,70.99138607291667,71.79040528125,65.0,92.0
164,71.57962107291667,72.04040515625,53.0,84.0
165,71.87373857291668,72.47545395833333,65.0,86.0
166,71.87373857291668,72.76589498958334,57.0,86.0
167,70.99138607291667,72.91417922916668,41.0,62.0
168,71.28550357291667,73.02447329166667,48.0,73.0
169,72.46197357291668,73.12863990625,53.0,81.0
170,73.05020857291667,73.29775746875,57.0,79.0
171,72.75609107291667,73.30020844791667,60.0,82.0
172,73.93256107291667,74.3749628125,55.0,84.0
173,74.22667857291667,74.82226651041667,67.0,90.0
174,74.22667857291667,75.13354086458334,58.0,87.0
175,73.63844357291667,75.15069771875001,50.0,80.0
176,74.66785482291667,75.31368783333333,55.0,78.0
177,73.34432607291667,75.40314857291668,43.0,88.0
178,75.10903107291668,75.41295248958333,62.0,87.0
179,75.40314857291668,75.71074645833333,50.0,72.0
180,75.69726607291668,76.32226576041667,55.0,86.0
181,75.69726607291668,76.62986364583334,67.0,89.0
182,75.69726607291668,76.65192245833335,58.0,87.0
183,76.57961857291667,77.02301018125,50.0,87.0
184,76.87373607291667,77.26339476458334,67.0,96.0
185,75.69726607291668,77.44488512500001,43.0,87.0
186,77.16243323958334,77.45690435416668,50.0,84.0
187,76.87373607291667,77.49176011875001,58.0,109.0
188,77.45089473958335,77.71892355000001,62.0,100.0
189,77.73935623958334,78.00498120416667,67.0,88.0
190,78.02781773958334,78.47252921875001,62.0,89.0
191,78.02781773958334,78.56026959166667,65.0,88.0
192,78.60474073958333,79.09512528958334,58.0,83.0
193,78.89320223958335,79.54464446041668,70.0,106.0
194,78.89320223958335,79.56267330416668,62.0,94.0
195,78.31627923958334,79.78743288958334,53.0,72.0
196,79.47012523958334,79.7886348125,58.0,86.0
197,78.02781773958334,79.87757710833334,46.0,82.0
198,79.75858673958334,80.13599053541668,62.0,107.0
199,79.75858673958334,80.242961675,70.0,103.0
200,80.33550973958334,80.6323847,69.0,104.0
201,80.33550973958334,80.93406735208335,60.0,90.0
202,80.91243273958334,80.93406735208335,60.0,38.0
203,80.91243273958334,81.30065384166667,53.0,84.0
204,81.20089423958333,81.85714415208334,65.0,102.0
205,81.20089423958333,81.91724029791668,57.0,102.0
206,81.77781723958334,82.09993258125,53.0,93.0
207,82.06627873958334,82.291038325,65.0,94.0
208,82.06627873958334,82.29584601666667,57.0,100.0
209,80.33550973958334,82.37276908333334,41.0,86.0
210,82.35474023958334,82.65281712291667,53.0,79.0
211,80.62397123958334,82.66123058333334,48.0,73.0
212,82.64320173958335,83.25257665833334,67.0,94.0
213,82.64320173958335,83.2790189625,62.0,96.0
214,82.64320173958335,83.32349011041667,58.0,90.0
215,83.50858623958334,84.02661501666667,67.0,100.0
216,83.50858623958334,84.04464386041667,62.0,96.0
217,83.50858623958334,84.08550923958335,58.0,95.0
218,84.08550923958335,84.39921112083334,55.0,85.0
219,82.64320173958335,84.42565342500001,43.0,82.0
220,83.22012473958334,84.42805727083334,50.0,81.0
221,84.37397073958334,84.73695146041668,67.0,96.0
222,84.37397073958334,84.79464376041668,62.0,94.0
223,84.37397073958334,84.80305722083334,58.0,97.0
224,84.95089373958334,85.62397057291668,69.0,98.0
225,84.95089373958334,85.74416286458334,62.0,98.0
226,84.95089373958334,85.75017247916668,65.0,108.0
227,84.95089373958334,86.12757627500001,38.0,96.0
228,85.81627823958334,86.22373010833334,50.0,78.0
229,86.10473973958334,86.49055699583334,69.0,107.0
230,86.10473973958334,86.49416276458334,65.0,114.0
231,86.10473973958334,86.50017237916667,62.0,107.0
232,86.39320123958333,86.73574927083334,38.0,102.0
233,86.68166273958335,86.91243193958334,62.0,98.0
234,86.68166273958335,86.96171077916668,69.0,100.0
235,86.68166273958335,86.97613385416668,65.0,104.0
236,87.25858573958334,87.90281642291667,63.0,106.0
237,87.25858573958334,87.99536448750001,70.0,103.0
238,87.25858573958334,88.07228755416668,67.0,110.0
239,87.83550873958335,88.35954713125001,51.0,84.0
240,87.25858573958334,88.38118174375,39.0,89.0
241,88.12397023958334,88.74416246458334,67.0,110.0
242,88.12397023958334,88.75377784791668,63.0,103.0
243,88.12397023958334,88.80065284166668,70.0,95.0
244,88.70089323958334,89.05065280833334,39.0,90.0
245,88.98935473958335,89.16964317708334,63.0,93.0
246,88.98935473958335,89.20570086458333,70.0,93.0
247,88.98935473958335,89.26699893333334,67.0,102.0
248,89.56627773958334,90.09151805416667,69.0,91.0
249,89.56627773958334,90.15762381458335,60.0,90.0
250,89.56627773958334,90.16363342916668,65.0,93.0
251,90.14320073958334,90.65882567083334,53.0,86.0
252,90.43166223958335,91.09031599791668,60.0,96.0
253,90.43166223958335,91.10353715000001,69.0,94.0
254,90.43166223958335,91.12276791666667,65.0,110.0
255,89.56627773958334,91.28983520208334,41.0,89.0
256,91.00858523958334,91.30546020000001,53.0,91.0
257,89.85473923958334,91.32228712083334,48.0,84.0
258,91.29704673958334,91.49296017500001,60.0,88.0
259,91.29704673958334,91.52541209375,69.0,93.0
260,91.29704673958334,91.53142170833334,65.0,107.0
261,91.87396973958334,92.52300811458335,67.0,113.0
262,91.87396973958334,92.52661388333334,63.0,97.0
263,91.87396973958334,92.58430618333334,70.0,100.0
264,91.87396973958334,93.01579651041668,39.0,93.0
265,92.45089273958334,93.01699843333334,51.0,89.0
266,92.73935423958334,93.36675800208334,67.0,108.0
267,92.73935423958334,93.39920992083334,70.0,93.0
268,92.73935423958334,93.44247914583335,63.0,106.0
269,93.31627723958334,93.66964257708334,39.0,109.0
270,93.60473873958334,93.83430601666667,70.0,106.0
271,93.60473873958334,93.84872909166667,63.0,97.0
272,93.60473873958334,93.90041177708335,67.0,108.0
273,94.18166173958335,94.78863281250001,65.0,113.0
274,94.18166173958335,94.80185396458334,69.0,102.0
275,94.18166173958335,94.83310396041668,60.0,108.0
276,94.75858473958334,95.29103659166668,53.0,88.0
277,95.04704623958334,95.66964231041668,69.0,98.0
278,95.04704623958334,95.67204615625,65.0,113.0
279,95.04704623958334,95.68286346250001,60.0,104.0
280,95.62396923958335,95.95930573333334,53.0,110.0
281,94.18166173958335,95.99536342083334,41.0,98.0
282,94.47012323958334,96.01699803333334,48.0,84.0
283,95.91243073958334,96.22613262083334,60.0,104.0
284,95.91243073958334,96.23815185000001,65.0,114.0
285,96.20089223958334,96.25858453958334,41.0,88.0
286,95.91243073958334,96.27541146041668,69.0,102.0
287,96.48935373958334,97.44007476666667,70.0,113.0
288,96.48935373958334,97.44728630416668,65.0,114.0
289,96.48935373958334,97.48334399166667,62.0,104.0
290,97.35473823958334,97.77541126041667,58.0,106.0
291,97.06627673958334,98.03743045625001,53.0,87.0
292,97.64319973958334,98.25377658125001,70.0,113.0
293,97.64319973958334,98.26579581041668,62.0,108.0
294,97.64319973958334,98.26579581041668,65.0,117.0
295,98.22012273958335,98.32829580208335,58.0,113.0
296,96.77781523958333,98.34151695416668,46.0,103.0
297,98.50858423958334,98.7982476625,70.0,106.0
298,98.50858423958334,98.85113227083335,65.0,114.0
299,98.50858423958334,98.86916111458333,62.0,107.0
300,99.37396873958335,99.88238213333334,53.0,100.0
301,99.66243023958334,100.29343977083334,65.0,117.0
302,99.66243023958334,100.2982474625,69.0,110.0
303,99.66243023958334,100.31026669166667,60.0,110.0
304,98.79704573958334,100.666035875,41.0,91.0
305,99.08550723958334,100.70930510000001,48.0,88.0
306,100.23935323958334,100.73935317291668,53.0,113.0
307,100.52781473958333,100.80065124166667,69.0,104.0
308,100.52781473958333,100.80185316458335,60.0,107.0
309,100.52781473958333,100.9472858375,65.0,114.0
310,101.10473773958334,101.68166073958334,70.0,116.0
311,101.10473773958334,101.71771842708334,67.0,116.0
312,101.10473773958334,101.76819918958334,62.0,107.0
313,101.68166073958334,102.08430491666667,55.0,93.0
314,101.97012223958333,102.52420870416668,70.0,116.0
315,101.97012223958333,102.58190100416667,67.0,116.0
316,101.97012223958333,102.613151,62.0,102.0
317,101.10473773958334,102.81867981875001,43.0,91.0
318,101.39319923958334,102.89199711666667,50.0,86.0
319,102.54704523958334,102.92565095833334,55.0,100.0
320,102.83550673958334,103.15882400416668,70.0,116.0
321,102.83550673958334,103.24295860833334,62.0,108.0
322,102.83550673958334,103.29824706250001,67.0,116.0
323,103.41242973958335,103.50137203541667,38.0,100.0
324,103.41242973958335,104.07348734375,69.0,110.0
325,103.41242973958335,104.07468926666667,65.0,114.0
326,103.41242973958335,104.09512195625001,62.0,108.0
327,103.98935273958334,104.55786227916667,50.0,82.0
328,104.27781423958334,104.88358338958334,62.0,113.0
329,104.27781423958334,104.88358338958334,65.0,117.0
330,104.27781423958334,104.88598723541668,69.0,114.0
331,104.85473723958334,105.08911220833335,50.0,88.0
332,105.14319873958334,105.32228525416667,62.0,110.0
333,105.14319873958334,105.33310256041668,69.0,113.0
334,105.14319873958334,105.39079486041668,65.0,116.0
335,105.72012173958333,106.32829473541668,70.0,103.0
336,105.72012173958333,106.34391973333334,63.0,106.0
337,105.72012173958333,106.35113127083335,67.0,116.0
338,106.29704473958334,106.72492929791667,51.0,82.0
339,105.72012173958333,106.77661198333334,39.0,87.0
340,106.58550623958334,107.20690038750001,70.0,109.0
341,106.58550623958334,107.21170807916667,67.0,117.0
342,106.58550623958334,107.23935230625001,63.0,109.0
343,107.16242923958333,107.47252535208334,39.0,95.0
344,107.45089073958334,107.6900734,63.0,100.0
345,107.45089073958334,107.69247724583335,70.0,95.0
346,107.45089073958334,107.87516952916667,67.0,110.0
347,108.02781373958334,108.62637135208334,65.0,110.0
348,108.02781373958334,108.64560211875,60.0,102.0
349,108.02781373958334,108.64680404166667,69.0,104.0
350,108.02781373958334,109.08790975208333,41.0,96.0
351,108.60473673958334,109.09512128958335,48.0,80.0
352,108.89319823958334,109.50858277291667,65.0,114.0
353,108.89319823958334,109.51098661875001,60.0,107.0
354,108.89319823958334,109.52781353958335,69.0,104.0
355,109.47012123958334,109.76218850833334,41.0,107.0
356,109.75858273958335,109.95810194375001,60.0,100.0
357,109.75858273958335,109.97733271041668,69.0,110.0
358,109.75858273958335,110.05065000833335,65.0,114.0
359,110.33550573958334,110.89560181875001,67.0,113.0
360,110.33550573958334,110.99175565208334,63.0,106.0
361,110.33550573958334,111.0434383375,70.0,109.0
362,110.91242873958333,111.28622676666667,51.0,106.0
363,110.33550573958334,111.29464022708333,39.0,88.0
364,111.20089023958334,111.80064977500001,67.0,114.0
365,111.20089023958334,111.81627477291667,63.0,106.0
366,111.20089023958334,111.85593822916667,70.0,109.0
367,111.77781323958334,112.07829396875002,39.0,103.0
368,112.06627473958335,112.25617856041667,63.0,103.0
369,112.06627473958335,112.32468816666668,70.0,93.0
370,112.06627473958335,112.50497660416667,67.0,98.0
371,112.64319773958334,114.34512058958333,65.0,110.0
372,112.64319773958334,114.3607455875,69.0,104.0
373,112.64319773958334,114.44488019166667,41.0,98.0
374,112.64319773958334,114.45088980625,60.0,102.0
375,114.95088973958335,115.50016851250001,67.0,113.0
376,114.80665898958334,115.50497620416667,58.0,76.0
377,114.95088973958335,115.5290146625,62.0,65.0
378,115.52781273958334,116.0193992125,55.0,88.0
379,115.81627423958335,116.33189917083334,57.0,104.0
380,116.68165873958334,116.96170677916668,62.0,82.0
381,116.97012023958334,117.29704327291668,67.0,79.0
382,116.39319723958334,117.59391823333334,55.0,89.0
383,115.23935123958334,117.63838938125001,50.0,78.0
384,117.25858173958335,117.65281245625,62.0,88.0
385,114.95088973958335,117.68286052916667,43.0,91.0
386,117.25858173958335,117.70810091041668,70.0,100.0
387,119.56627373958334,120.13237943333334,58.0,88.0
388,119.56627373958334,120.46891785,69.0,96.0
389,119.56627373958334,120.50136976875001,65.0,100.0
390,119.56627373958334,120.52781207291667,62.0,93.0
391,119.56627373958334,120.81266780416667,46.0,88.0
392,120.43165823958334,120.86915818125001,58.0,85.0
393,121.29704273958333,121.37396580625,46.0,82.0
394,120.72011973958334,121.37516772916668,62.0,104.0
395,120.72011973958334,121.377571575,69.0,102.0
396,120.72011973958334,121.41603310833334,65.0,110.0
397,121.58550423958334,122.38959067083334,53.0,90.0
398,121.58550423958334,122.82468676666667,65.0,110.0
399,121.58550423958334,122.8270906125,69.0,100.0
400,121.58550423958334,122.83430215000001,60.0,104.0
401,122.73935023958333,123.11194634375,53.0,94.0
402,121.58550423958334,123.14680210833333,41.0,104.0
403,123.02781173958334,123.58430205,69.0,107.0
404,123.02781173958334,123.63838858125001,65.0,116.0
405,123.60473473958334,123.75497510416668,41.0,87.0
406,123.02781173958334,123.79824432916666,60.0,113.0
407,123.60473473958334,123.80665778958334,53.0,88.0
408,123.89319623958335,124.52781153958334,55.0,96.0
409,123.89319623958335,124.73694612708334,67.0,104.0
410,123.89319623958335,124.74055189583333,62.0,104.0
411,123.89319623958335,124.82348457708335,58.0,100.0
412,125.04704223958333,125.41242680625001,62.0,113.0
413,125.04704223958333,125.43766718750001,67.0,104.0
414,125.04704223958333,125.47973448958334,58.0,109.0
415,125.04704223958333,125.646801775,55.0,90.0
416,123.89319623958335,125.68766715416668,43.0,89.0
417,126.20088823958335,126.65040741041668,51.0,86.0
418,126.20088823958335,127.41242653958335,67.0,96.0
419,126.20088823958335,127.41723423125,58.0,100.0
420,126.20088823958335,127.46531114791668,63.0,88.0
421,127.35473423958334,127.6876668875,51.0,86.0
422,126.20088823958335,127.74055149583333,39.0,86.0
423,127.64319573958335,128.0999264479167,58.0,109.0
424,127.64319573958335,128.18406105208334,67.0,110.0
425,127.64319573958335,128.19848412708333,63.0,103.0
426,128.22011873958334,128.31987834166668,39.0,91.0
427,128.79704173958334,129.396801275,50.0,88.0
428,128.79704173958334,129.73694546041668,69.0,91.0
429,128.79704173958334,129.742955075,65.0,96.0
430,128.79704173958334,129.74656084375,62.0,91.0
431,129.66242623958334,130.09992618125,50.0,86.0
432,129.95088773958332,130.49415689791667,62.0,100.0
433,129.95088773958332,130.49896458958335,65.0,108.0
434,129.95088773958332,130.50978189583333,69.0,98.0
435,128.79704173958334,130.57468573333335,38.0,91.0
436,130.52781073958334,130.66723379791668,50.0,84.0
437,130.81627223958333,131.41843562083335,51.0,85.0
438,130.81627223958333,131.63357982291666,67.0,107.0
439,130.81627223958333,131.67324327916668,63.0,90.0
440,130.81627223958333,131.72132019583336,70.0,95.0
441,130.81627223958333,132.4977624,39.0,83.0
442,131.97011823958334,132.67684891458333,67.0,107.0
443,131.97011823958334,132.70689698750002,70.0,88.0
444,131.97011823958334,132.74896428958334,63.0,91.0
445,131.97011823958334,132.7946373604167,51.0,80.0
446,133.12396423958333,135.03502167708334,69.0,91.0
447,133.12396423958333,135.1011274375,41.0,87.0
448,133.12396423958333,135.10713705208335,65.0,92.0
449,133.12396423958333,135.14319473958335,60.0,88.0
450,133.12396423958333,135.15761781458335,53.0,86.0
451,135.43165623958333,137.7997735625,67.0,88.0
452,135.43165623958333,137.80222454166667,58.0,85.0
453,135.43165623958333,137.80345003125,62.0,88.0
454,135.43165623958333,137.81202845833334,43.0,83.0
455,135.43165623958333,137.81570492708335,55.0,84.0
456,138.66129273958333,139.23114539583335,58.0,84.0
457,138.95541023958336,139.66864517708333,70.0,90.0
458,138.36717523958333,139.83653725000002,53.0,77.0
459,139.54364523958336,139.85614508333333,58.0,84.0
460,138.95541023958336,139.9456058229167,62.0,89.0
461,138.07305773958333,139.98114502083334,46.0,85.0
462,140.13188023958335,140.3316350416667,70.0,109.0
463,141.01423273958335,141.64658536458336,53.0,75.0
464,140.42599773958335,142.13923217708336,69.0,107.0
465,141.30835023958335,142.34388893750003,60.0,87.0
466,140.42599773958335,142.351241875,41.0,82.0
467,140.72011523958335,142.4235457604167,48.0,70.0
468,142.19070273958334,142.49217317708334,65.0,87.0
469,141.89658523958335,142.5644770625,53.0,82.0
470,142.48482023958334,142.78629067708334,69.0,88.0
471,142.77893773958334,143.46521190625,67.0,93.0
472,143.66129023958334,144.40271143750002,67.0,93.0
473,143.36717273958334,144.56692704166667,55.0,79.0
474,143.07305523958334,144.59756428125002,50.0,80.0
475,142.77893773958334,144.60859368750002,43.0,83.0
476,143.66129023958334,144.70785834375002,58.0,85.0
477,144.54364273958333,145.42722072916666,62.0,89.0
478,144.83776023958333,145.4321226875,67.0,84.0
479,145.72011273958336,146.08775961458335,58.0,81.0
480,145.42599523958336,146.39658298958335,51.0,83.0
481,146.01423023958336,146.85001413541667,63.0,90.0
482,145.13187773958333,146.96030819791667,39.0,84.0
483,146.60246523958335,147.07672970833335,51.0,85.0
484,146.89658273958335,147.32550409375,58.0,100.0
485,147.19070023958335,147.51668046875002,63.0,81.0
486,148.07305273958335,148.54731720833334,55.0,86.0
487,148.36717023958334,149.1232973125,67.0,94.0
488,148.95540523958334,149.29731683333335,55.0,84.0
489,147.77893523958335,149.36226778125,50.0,80.0
490,147.48481773958335,149.42599323958333,43.0,86.0
491,148.36717023958334,149.44805205208334,58.0,89.0
492,149.24952273958334,149.56937552083335,62.0,86.0
493,149.54364023958334,149.8585910625,67.0,83.0
494,149.83775773958334,150.63677694791667,65.0,92.0
495,150.42599273958334,150.8867768229167,53.0,84.0
496,150.72011023958333,151.321825625,65.0,86.0
497,150.72011023958333,151.61226665625,57.0,86.0
498,149.83775773958334,151.76055089583335,41.0,62.0
499,150.13187523958334,151.87084495833335,48.0,73.0
500,151.30834523958333,151.97501157291669,53.0,81.0
501,151.89658023958333,152.14412913541668,57.0,79.0
502,151.60246273958336,152.14658011458334,60.0,82.0
503,152.77893273958335,153.22133447916667,55.0,84.0
504,153.07305023958335,153.66863817708335,67.0,90.0
505,153.07305023958335,153.97991253125002,58.0,87.0
506,152.48481523958336,153.9970693854167,50.0,80.0
507,153.51422648958334,154.16005950000002,55.0,78.0
508,152.19069773958336,154.24952023958335,43.0,88.0
509,153.95540273958335,154.25932415625002,62.0,87.0
510,154.24952023958335,154.55711812500002,50.0,72.0
511,154.54363773958335,155.15701906041667,55.0,86.0
512,154.54363773958335,155.45870171250002,67.0,89.0
513,154.54363773958335,155.48033632500002,58.0,87.0
514,155.40942287291668,155.84692281458337,50.0,87.0
515,155.6978843729167,156.08730739791667,67.0,96.0
516,154.54363773958335,156.26879775833336,43.0,87.0
517,155.98634587291667,156.28081698750003,50.0,84.0
518,155.6978843729167,156.31567275208334,58.0,109.0
519,156.27480737291668,156.54283618333335,62.0,100.0
520,156.5632688729167,156.8288938375,67.0,88.0
521,156.85173037291668,157.29644185208335,62.0,89.0
522,156.85173037291668,157.38418222500002,65.0,88.0
523,157.4286533729167,157.9190379229167,58.0,83.0
524,157.71711487291668,158.36855709375,70.0,106.0
525,157.71711487291668,158.38658593750003,62.0,94.0
526,157.1401918729167,158.61134552291668,53.0,72.0
527,158.29403787291668,158.61254744583334,58.0,86.0
528,156.85173037291668,158.70148974166668,46.0,82.0
529,158.5824993729167,158.95990316875003,62.0,107.0
530,158.5824993729167,159.06687430833335,70.0,103.0
531,159.15942237291668,159.45629733333334,69.0,104.0
532,159.15942237291668,159.75797998541668,60.0,90.0
533,159.73634537291667,159.75797998541668,60.0,38.0
534,159.73634537291667,160.12456647500002,53.0,84.0
535,160.02480687291668,160.68105678541667,65.0,102.0
536,160.02480687291668,160.74115293125,57.0,102.0
537,160.60172987291668,160.92384521458337,53.0,93.0
538,160.8901913729167,161.11495095833334,65.0,94.0
539,160.8901913729167,161.11975865000002,57.0,100.0
540,159.15942237291668,161.1966817166667,41.0,86.0
541,161.17865287291667,161.47672975625002,53.0,79.0
542,159.4478838729167,161.4851432166667,48.0,73.0
543,161.46711437291668,162.0764892916667,67.0,94.0
544,161.46711437291668,162.10293159583335,62.0,96.0
545,161.46711437291668,162.14740274375,58.0,90.0
546,162.3324988729167,162.85052765,67.0,100.0
547,162.3324988729167,162.86855649375002,62.0,96.0
548,162.3324988729167,162.90942187291668,58.0,95.0
549,162.90942187291668,163.2231237541667,55.0,85.0
550,161.46711437291668,163.24956605833336,43.0,82.0
551,162.04403737291668,163.25196990416669,50.0,81.0
552,163.1978833729167,163.56086409375,67.0,96.0
553,163.1978833729167,163.61855639375003,62.0,94.0
554,163.1978833729167,163.62696985416667,58.0,97.0
555,163.7748063729167,164.44788320625003,69.0,98.0
556,163.7748063729167,164.56807549791668,62.0,98.0
557,163.7748063729167,164.57408511250003,65.0,108.0
558,163.7748063729167,164.95148890833335,38.0,96.0
559,164.6401908729167,165.0476427416667,50.0,78.0
560,164.92865237291667,165.3144696291667,69.0,107.0
561,164.92865237291667,165.3180753979167,65.0,114.0
562,164.92865237291667,165.3240850125,62.0,107.0
563,165.21711387291668,165.5596619041667,38.0,102.0
564,165.5055753729167,165.7363445729167,62.0,98.0
565,165.5055753729167,165.78562341250003,69.0,100.0
566,165.5055753729167,165.80004648750003,65.0,104.0
567,166.0824983729167,166.72672905625,63.0,106.0
568,166.0824983729167,166.81927712083336,70.0,103.0
569,166.0824983729167,166.89620018750003,67.0,110.0
570,166.65942137291668,167.18345976458335,51.0,84.0
571,166.0824983729167,167.20509437708336,39.0,89.0
572,166.9478828729167,167.56807509791668,67.0,110.0
573,166.9478828729167,167.57769048125002,63.0,103.0
574,166.9478828729167,167.62456547500003,70.0,95.0
575,167.5248058729167,167.87456544166668,39.0,90.0
576,167.8132673729167,167.9935558104167,63.0,93.0
577,167.8132673729167,168.02961349791667,70.0,93.0
578,167.8132673729167,168.09091156666668,67.0,102.0
579,168.3901903729167,168.91543068750002,69.0,91.0
580,168.3901903729167,168.98153644791668,60.0,90.0
581,168.3901903729167,168.98754606250003,65.0,93.0
582,168.96711337291669,169.48273830416667,53.0,86.0
583,169.2555748729167,169.91422863125,60.0,96.0
584,169.2555748729167,169.92744978333334,69.0,94.0
585,169.2555748729167,169.94668055000002,65.0,110.0
586,168.3901903729167,170.1137478354167,41.0,89.0
587,169.8324978729167,170.12937283333335,53.0,91.0
588,168.67865187291667,170.14619975416667,48.0,84.0
589,170.12095937291667,170.31687280833336,60.0,88.0
590,170.12095937291667,170.34932472708334,69.0,93.0
591,170.12095937291667,170.3553343416667,65.0,107.0
592,170.6978823729167,171.34692074791667,67.0,113.0
593,170.6978823729167,171.3505265166667,63.0,97.0
594,170.6978823729167,171.40821881666668,70.0,100.0
595,170.6978823729167,171.83970914375,39.0,93.0
596,171.2748053729167,171.84091106666668,51.0,89.0
597,171.5632668729167,172.1906706354167,67.0,108.0
598,171.5632668729167,172.22312255416668,70.0,93.0
599,171.5632668729167,172.2663917791667,63.0,106.0
600,172.1401898729167,172.49355521041667,39.0,109.0
601,172.42865137291668,172.65821865,70.0,106.0
602,172.42865137291668,172.672641725,63.0,97.0
603,172.42865137291668,172.72432441041667,67.0,108.0
604,173.00557437291667,173.61254544583335,65.0,113.0
605,173.00557437291667,173.62576659791668,69.0,102.0
606,173.00557437291667,173.65701659375003,60.0,108.0
607,173.5824973729167,174.11494922500003,53.0,88.0
608,173.87095887291667,174.49355494375,69.0,98.0
609,173.87095887291667,174.49595878958334,65.0,113.0
610,173.87095887291667,174.50677609583335,60.0,104.0
611,174.4478818729167,174.7832183666667,53.0,110.0
612,173.00557437291667,174.8192760541667,41.0,98.0
613,173.29403587291668,174.84091066666667,48.0,84.0
614,174.73634337291668,175.0500452541667,60.0,104.0
615,174.73634337291668,175.06206448333336,65.0,114.0
616,175.0248048729167,175.08249717291667,41.0,88.0
617,174.73634337291668,175.09932409375003,69.0,102.0
618,175.3132663729167,176.26398740000002,70.0,113.0
619,175.3132663729167,176.2711989375,65.0,114.0
620,175.3132663729167,176.307256625,62.0,104.0
621,176.17865087291668,176.59932389375,58.0,106.0
622,175.8901893729167,176.86134308958336,53.0,87.0
623,176.4671123729167,177.07768921458336,70.0,113.0
624,176.4671123729167,177.08970844375003,62.0,108.0
625,176.4671123729167,177.08970844375003,65.0,117.0
626,177.04403537291668,177.1522084354167,58.0,113.0
627,175.60172787291668,177.16542958750003,46.0,103.0
628,177.3324968729167,177.62216029583334,70.0,106.0
629,177.3324968729167,177.6750449041667,65.0,114.0
630,177.3324968729167,177.69307374791669,62.0,107.0
631,178.1978813729167,178.70629476666667,53.0,100.0
632,178.48634287291668,179.1173524041667,65.0,117.0
633,178.48634287291668,179.12216009583335,69.0,110.0
634,178.48634287291668,179.13417932500002,60.0,110.0
635,177.62095837291668,179.48994850833336,41.0,91.0
636,177.9094198729167,179.53321773333334,48.0,88.0
637,179.06326587291667,179.56326580625003,53.0,113.0
638,179.35172737291668,179.624563875,69.0,104.0
639,179.35172737291668,179.6257657979167,60.0,107.0
640,179.35172737291668,179.77119847083335,65.0,114.0
641,179.92865037291668,180.50557337291667,70.0,116.0
642,179.92865037291668,180.54163106041668,67.0,116.0
643,179.92865037291668,180.59211182291668,62.0,107.0
644,180.50557337291667,180.90821755000002,55.0,93.0
645,180.79403487291668,181.3481213375,70.0,116.0
646,180.79403487291668,181.40581363750002,67.0,116.0
647,180.79403487291668,181.43706363333337,62.0,102.0
648,179.92865037291668,181.64259245208336,43.0,91.0
649,180.2171118729167,181.71590975,50.0,86.0
650,181.37095787291668,181.74956359166669,55.0,100.0
651,181.6594193729167,181.9827366375,70.0,116.0
652,181.6594193729167,182.0668712416667,62.0,108.0
653,181.6594193729167,182.12215969583335,67.0,116.0
654,182.23634237291668,182.32528466875002,38.0,100.0
655,182.23634237291668,182.89739997708335,69.0,110.0
656,182.23634237291668,182.89860190000002,65.0,114.0
657,182.23634237291668,182.91903458958336,62.0,108.0
658,182.81326537291667,183.38177491250002,50.0,82.0
659,183.1017268729167,183.7074960229167,62.0,113.0
660,183.1017268729167,183.7074960229167,65.0,117.0
661,183.1017268729167,183.70989986875003,69.0,114.0
662,183.67864987291668,183.9130248416667,50.0,88.0
663,183.9671113729167,184.14619788750002,62.0,110.0
664,183.9671113729167,184.15701519375003,69.0,113.0
665,183.9671113729167,184.21470749375,65.0,116.0
666,184.54403437291668,185.15220736875003,70.0,103.0
667,184.54403437291668,185.1678323666667,63.0,106.0
668,184.54403437291668,185.17504390416667,67.0,116.0
669,185.12095737291668,185.54884193125002,51.0,82.0
670,184.54403437291668,185.6005246166667,39.0,87.0
671,185.4094188729167,186.03081302083336,70.0,109.0
672,185.4094188729167,186.03562071250002,67.0,117.0
673,185.4094188729167,186.06326493958335,63.0,109.0
674,185.98634187291668,186.29643798541667,39.0,95.0
675,186.2748033729167,186.51398603333334,63.0,100.0
676,186.2748033729167,186.5163898791667,70.0,95.0
677,186.2748033729167,186.69908216250002,67.0,110.0
678,186.8517263729167,187.4502839854167,65.0,110.0
679,186.8517263729167,187.46951475208334,60.0,102.0
680,186.8517263729167,187.470716675,69.0,104.0
681,186.8517263729167,187.91182238541668,41.0,96.0
682,187.42864937291668,187.9190339229167,48.0,80.0
683,187.7171108729167,188.33249540625002,65.0,114.0
684,187.7171108729167,188.33489925208335,60.0,107.0
685,187.7171108729167,188.3517261729167,69.0,104.0
686,188.29403387291669,188.5861011416667,41.0,107.0
687,188.5824953729167,188.78201457708334,60.0,100.0
688,188.5824953729167,188.80124534375003,69.0,110.0
689,188.5824953729167,188.87456264166667,65.0,114.0
690,189.1594183729167,189.71951445208336,67.0,113.0
691,189.1594183729167,189.81566828541668,63.0,106.0
692,189.1594183729167,189.86735097083334,70.0,109.0
693,189.73634137291668,190.1101394,51.0,106.0
694,189.1594183729167,190.11855286041668,39.0,88.0
695,190.0248028729167,190.62456240833336,67.0,114.0
696,190.0248028729167,190.64018740625002,63.0,106.0
697,190.0248028729167,190.67985086250002,70.0,109.0
698,190.6017258729167,190.90220660208337,39.0,103.0
699,190.89018737291667,191.08009119375,63.0,103.0
700,190.89018737291667,191.14860080000003,70.0,93.0
701,190.89018737291667,191.32888923750002,67.0,98.0
702,191.4671103729167,193.16903322291668,65.0,110.0
703,191.4671103729167,193.18465822083334,69.0,104.0
704,191.4671103729167,193.26879282500002,41.0,98.0
705,191.4671103729167,193.27480243958337,60.0,102.0
706,193.77480237291667,194.32408114583336,67.0,113.0
707,193.63057162291668,194.32888883750002,58.0,76.0
708,193.77480237291667,194.35292729583335,62.0,65.0
709,194.3517253729167,194.84331184583334,55.0,88.0
710,194.64018687291667,195.1558118041667,57.0,104.0
711,195.50557137291668,195.7856194125,62.0,82.0
712,195.7940328729167,196.12095590625,67.0,79.0
713,195.2171098729167,196.4178308666667,55.0,89.0
714,194.06326387291668,196.46230201458334,50.0,78.0
715,196.0824943729167,196.47672508958334,62.0,88.0
716,193.77480237291667,196.50677316250002,43.0,91.0
717,196.0824943729167,196.53201354375003,70.0,100.0
718,198.39018637291667,198.83489785208334,62.0,89.0
719,198.39018637291667,198.92263822500001,65.0,88.0
720,198.9671093729167,199.45749392291668,58.0,83.0
721,199.25557087291668,199.90701309375,70.0,106.0
722,199.25557087291668,199.92504193750003,62.0,94.0
723,198.67864787291668,200.14980152291668,53.0,72.0
724,199.8324938729167,200.15100344583334,58.0,86.0
725,198.39018637291667,200.23994574166667,46.0,82.0
726,200.12095537291668,200.49835916875003,62.0,107.0
727,200.12095537291668,200.60533030833335,70.0,103.0
728,200.69787837291668,200.99475333333334,69.0,104.0
729,200.69787837291668,201.29643598541668,60.0,90.0
730,201.27480137291667,201.29643598541668,60.0,38.0
731,201.27480137291667,201.66302247500002,53.0,84.0
732,201.56326287291668,202.21951278541667,65.0,102.0
733,201.56326287291668,202.27960893125,57.0,102.0
734,202.14018587291667,202.46230121458336,53.0,93.0
735,202.42864737291669,202.65340695833333,65.0,94.0
736,202.42864737291669,202.65821465000002,57.0,100.0
737,200.69787837291668,202.73513771666669,41.0,86.0
738,202.7171088729167,203.01518575625002,53.0,79.0
739,200.9863398729167,203.0235992166667,48.0,73.0
740,203.00557037291668,203.6149452916667,67.0,94.0
741,203.00557037291668,203.64138759583335,62.0,96.0
742,203.00557037291668,203.68585874375003,58.0,90.0
743,203.87095487291668,204.38898365,67.0,100.0
744,203.87095487291668,204.40701249375002,62.0,96.0
745,203.87095487291668,204.44787787291668,58.0,95.0
746,204.44787787291668,204.7615797541667,55.0,85.0
747,203.00557037291668,204.78802205833335,43.0,82.0
748,203.5824933729167,204.79042590416668,50.0,81.0
749,204.7363393729167,205.09932009375,67.0,96.0
750,204.7363393729167,205.15701239375002,62.0,94.0
751,204.7363393729167,205.1654258541667,58.0,97.0
752,205.31326237291668,205.98633920625002,69.0,98.0
753,205.31326237291668,206.10653149791668,62.0,98.0
754,205.31326237291668,206.11254111250003,65.0,108.0
755,205.31326237291668,206.48994490833334,38.0,96.0
756,206.1786468729167,206.5860987416667,50.0,78.0
757,206.4671083729167,206.8529256291667,69.0,107.0
758,206.4671083729167,206.85653139791668,65.0,114.0
759,206.4671083729167,206.8625410125,62.0,107.0
760,206.75556987291668,207.09811790416668,38.0,102.0
761,207.0440313729167,207.2748005729167,62.0,98.0
762,207.0440313729167,207.32407941250003,69.0,100.0
763,207.0440313729167,207.33850248750002,65.0,104.0
764,207.62095437291669,208.26518505625,63.0,106.0
765,207.62095437291669,208.35773312083336,70.0,103.0
766,207.62095437291669,208.43465618750002,67.0,110.0
767,208.19787737291668,208.72191576458334,51.0,84.0
768,207.62095437291669,208.74355037708335,39.0,89.0
769,208.4863388729167,209.10653109791667,67.0,110.0
770,208.4863388729167,209.11614648125,63.0,103.0
771,208.4863388729167,209.16302147500002,70.0,95.0
772,209.06326187291668,209.41302144166667,39.0,90.0
773,209.3517233729167,209.5320118104167,63.0,93.0
774,209.3517233729167,209.56806949791667,70.0,93.0
775,209.3517233729167,209.6293675666667,67.0,102.0
776,209.9286463729167,210.45388668750002,69.0,91.0
777,209.9286463729167,210.51999244791668,60.0,90.0
778,209.9286463729167,210.52600206250003,65.0,93.0
779,210.50556937291668,211.02119430416667,53.0,86.0
780,210.7940308729167,211.45268463125,60.0,96.0
781,210.7940308729167,211.46590578333334,69.0,94.0
782,210.7940308729167,211.48513655000002,65.0,110.0
783,209.9286463729167,211.65220383541669,41.0,89.0
784,211.3709538729167,211.66782883333335,53.0,91.0
785,210.2171078729167,211.68465575416667,48.0,84.0
786,211.65941537291667,211.85532880833335,60.0,88.0
787,211.65941537291667,211.88778072708334,69.0,93.0
788,211.65941537291667,211.8937903416667,65.0,107.0
789,212.2363383729167,212.88537674791667,67.0,113.0
790,212.2363383729167,212.8889825166667,63.0,97.0
791,212.2363383729167,212.9466748166667,70.0,100.0
792,212.2363383729167,213.37816514375,39.0,93.0
793,212.81326137291668,213.37936706666667,51.0,89.0
794,213.1017228729167,213.7291266354167,67.0,108.0
795,213.1017228729167,213.76157855416668,70.0,93.0
796,213.1017228729167,213.8048477791667,63.0,106.0
797,213.6786458729167,214.03201121041667,39.0,109.0
798,213.9671073729167,214.19667465000003,70.0,106.0
799,213.9671073729167,214.211097725,63.0,97.0
800,213.9671073729167,214.26278041041667,67.0,108.0
801,214.5440303729167,215.15100144583334,65.0,113.0
802,214.5440303729167,215.16422259791668,69.0,102.0
803,214.5440303729167,215.19547259375003,60.0,108.0
804,215.1209533729167,215.65340522500003,53.0,88.0
805,215.40941487291667,216.03201094375,69.0,98.0
806,215.40941487291667,216.03441478958337,65.0,113.0
807,215.40941487291667,216.04523209583334,60.0,104.0
808,215.9863378729167,216.32167436666668,53.0,110.0
809,214.5440303729167,216.3577320541667,41.0,98.0
810,214.83249187291668,216.37936666666667,48.0,84.0
811,216.27479937291668,216.5885012541667,60.0,104.0
812,216.27479937291668,216.60052048333336,65.0,114.0
813,216.5632608729167,216.6209531729167,41.0,88.0
814,216.27479937291668,216.63778009375002,69.0,102.0
815,216.8517223729167,217.80244340000002,70.0,113.0
816,216.8517223729167,217.8096549375,65.0,114.0
817,216.8517223729167,217.84571262500003,62.0,104.0
818,217.71710687291667,218.13777989375,58.0,106.0
819,217.4286453729167,218.39979908958335,53.0,87.0
820,218.00556837291668,218.61614521458336,70.0,113.0
821,218.00556837291668,218.62816444375002,62.0,108.0
822,218.00556837291668,218.62816444375002,65.0,117.0
823,218.58249137291668,218.6906644354167,58.0,113.0
824,217.14018387291668,218.7038855875,46.0,103.0
825,218.8709528729167,219.16061629583334,70.0,106.0
826,218.8709528729167,219.21350090416666,65.0,114.0
827,218.8709528729167,219.23152974791668,62.0,107.0
828,219.7363373729167,220.2447507666667,53.0,100.0
829,220.02479887291668,220.6558084041667,65.0,117.0
830,220.02479887291668,220.66061609583335,69.0,110.0
831,220.02479887291668,220.67263532500002,60.0,110.0
832,219.15941437291667,221.02840450833335,41.0,91.0
833,219.44787587291668,221.07167373333334,48.0,88.0
834,220.6017218729167,221.10172180625,53.0,113.0
835,220.89018337291668,221.16301987500003,69.0,104.0
836,220.89018337291668,221.1642217979167,60.0,107.0
837,220.89018337291668,221.30965447083335,65.0,114.0
838,221.4671063729167,222.04402937291667,70.0,116.0
839,221.4671063729167,222.0800870604167,67.0,116.0
840,221.4671063729167,222.1305678229167,62.0,107.0
841,222.04402937291667,222.44667355,55.0,93.0
842,222.33249087291668,222.8865773375,70.0,116.0
843,222.33249087291668,222.9442696375,67.0,116.0
844,222.33249087291668,222.97551963333336,62.0,102.0
845,221.4671063729167,223.18104845208336,43.0,91.0
846,221.75556787291669,223.25436575000003,50.0,86.0
847,222.90941387291667,223.28801959166668,55.0,100.0
848,223.19787537291668,223.5211926375,70.0,116.0
849,223.19787537291668,223.60532724166669,62.0,108.0
850,223.19787537291668,223.66061569583337,67.0,116.0
851,223.77479837291668,223.86374066875,38.0,100.0
852,223.77479837291668,224.43585597708335,69.0,110.0
853,223.77479837291668,224.4370579,65.0,114.0
854,223.77479837291668,224.45749058958336,62.0,108.0
855,224.3517213729167,224.92023091250002,50.0,82.0
856,224.64018287291668,225.2459520229167,62.0,113.0
857,224.64018287291668,225.2459520229167,65.0,117.0
858,224.64018287291668,225.24835586875002,69.0,114.0
859,225.2171058729167,225.4514808416667,50.0,88.0
860,225.5055673729167,225.68465388750002,62.0,110.0
861,225.5055673729167,225.69547119375002,69.0,113.0
862,225.5055673729167,225.75316349375004,65.0,116.0
863,226.08249037291668,226.69066336875002,70.0,103.0
864,226.08249037291668,226.70628836666668,63.0,106.0
865,226.08249037291668,226.71349990416667,67.0,116.0
866,226.65941337291667,227.08729793125002,51.0,82.0
867,226.08249037291668,227.1389806166667,39.0,87.0
868,226.94787487291669,227.56926902083336,70.0,109.0
869,226.94787487291669,227.57407671250002,67.0,117.0
870,226.94787487291669,227.60172093958334,63.0,109.0
871,227.52479787291668,227.83489398541667,39.0,95.0
872,227.8132593729167,228.05244203333336,63.0,100.0
873,227.8132593729167,228.0548458791667,70.0,95.0
874,227.8132593729167,228.23753816250002,67.0,110.0
875,228.39018237291668,228.9887399854167,65.0,110.0
876,228.39018237291668,229.00797075208334,60.0,102.0
877,228.39018237291668,229.009172675,69.0,104.0
878,228.39018237291668,229.45027838541668,41.0,96.0
879,228.96710537291668,229.4574899229167,48.0,80.0
880,229.2555668729167,229.87095140625001,65.0,114.0
881,229.2555668729167,229.87335525208334,60.0,107.0
882,229.2555668729167,229.8901821729167,69.0,104.0
883,229.83248987291668,230.12455714166668,41.0,107.0
884,230.1209513729167,230.32047057708337,60.0,100.0
885,230.1209513729167,230.33970134375002,69.0,110.0
886,230.1209513729167,230.41301864166667,65.0,114.0
887,230.6978743729167,231.25797045208336,67.0,113.0
888,230.6978743729167,231.35412428541667,63.0,106.0
889,230.6978743729167,231.40580697083334,70.0,109.0
890,231.27479737291668,231.64859540000003,51.0,106.0
891,230.6978743729167,231.65700886041668,39.0,88.0
892,231.56325887291666,232.16301840833336,67.0,114.0
893,231.56325887291666,232.17864340625002,63.0,106.0
894,231.56325887291666,232.21830686250001,70.0,109.0
895,232.14018187291668,232.44066260208336,39.0,103.0
896,232.42864337291667,232.61854719375003,63.0,103.0
897,232.42864337291667,232.68705680000002,70.0,93.0
898,232.42864337291667,232.86734523750002,67.0,98.0
899,233.0055663729167,234.70748922291668,65.0,110.0
900,233.0055663729167,234.72311422083334,69.0,104.0
901,233.0055663729167,234.80724882500002,41.0,98.0
902,233.0055663729167,234.81325843958336,60.0,102.0
903,235.31325837291666,235.86253714583336,67.0,113.0
904,235.31325837291666,235.89138329583335,62.0,65.0
905,235.31325837291666,236.01157558750003,58.0,76.0
906,235.8901813729167,236.38176784583334,55.0,88.0
907,236.17864287291667,236.69426780416669,57.0,104.0
908,236.7555658729167,237.43585424375001,55.0,89.0
909,235.6017198729167,237.48032539166667,50.0,78.0
910,235.31325837291666,237.52479653958335,43.0,91.0
911,237.6209503729167,239.68825778958336,67.0,93.0
912,237.6209503729167,239.69787317291667,60.0,92.0
913,237.6209503729167,239.73152701458335,55.0,82.0
914,237.6209503729167,239.74595008958335,43.0,87.0
915,237.6209503729167,239.80845008125002,63.0,103.0
916,239.92864237291667,241.80844981458335,70.0,87.0
917,239.92864237291667,241.89138249583334,43.0,83.0
918,239.92864237291667,241.94186325833334,55.0,83.0
919,239.92864237291667,241.96710363958334,62.0,88.0
920,239.92864237291667,242.01998824791667,67.0,91.0
921,242.2363343729167,244.25917064166669,43.0,85.0
922,242.2363343729167,244.33248793958336,55.0,85.0
923,242.2363343729167,244.34570909166666,60.0,87.0
924,242.2363343729167,244.38296870208336,67.0,89.0
925,242.2363343729167,244.44546869375,63.0,93.0
926,244.54402637291668,246.55364148958336,70.0,84.0
927,244.54402637291668,246.6245549416667,62.0,86.0
928,246.85171837291668,247.92263169166668,62.0,71.0
929,246.85171837291668,247.9695066854167,70.0,79.0
930,244.54402637291668,247.9755163,55.0,87.0
931,244.54402637291668,247.98513168333335,43.0,83.0
932,244.54402637291668,247.98513168333335,67.0,90.0
