,start,end,pitch,velocity
0,27.88731,29.154915,69.0,119.0
1,29.154915,29.5756894375,76.0,113.0
2,29.57745,30.42252,76.0,114.0
3,30.42252,31.26759,74.0,113.0
4,31.26759,31.690125,79.0,108.0
5,31.690125,32.535195,76.0,108.0
6,32.535195,32.95773,74.0,110.0
7,32.95773,34.64787,76.0,113.0
8,34.64787,35.915475,69.0,114.0
9,35.915475,36.3362494375,74.0,107.0
10,36.33801,37.18308,74.0,113.0
11,37.18308,38.02815,72.0,110.0
12,38.02815,38.496459625,76.0,113.0
13,38.450685,38.873219999999996,74.0,104.0
14,38.873219999999996,39.295755,67.0,98.0
15,39.295755,40.140825,72.0,104.0
16,40.140825,41.40843,69.0,102.0
17,41.40843,42.676035,76.0,108.0
18,42.676035,43.0968094375,81.0,113.0
19,43.09857,43.94364,81.0,116.0
20,43.94364,44.78871,79.0,117.0
21,44.78871,45.211245,84.0,114.0
22,45.211245,45.63378,81.0,107.0
23,45.63378,46.056315,79.0,102.0
24,46.056315,46.47885,76.0,104.0
25,46.47885,47.746455,79.0,116.0
26,47.746455,47.9594830625,76.0,104.0
27,47.9577225,48.16899,79.0,89.0
28,48.16899,48.591525,76.0,96.0
29,48.591525,49.0122994375,74.0,87.0
30,49.01406,49.436595,74.0,89.0
31,49.436595,49.6777920625,69.0,91.0
32,49.6478625,49.85913,72.0,88.0
33,49.85913,50.281665,76.0,93.0
34,50.281665,50.4911719375,74.0,91.0
35,50.4929325,50.7024394375,74.0,98.0
36,50.7042,51.126735,74.0,102.0
37,51.126735,51.54927,69.0,98.0
38,51.54927,51.971804999999996,76.0,110.0
39,51.971804999999996,54.92955,74.0,102.0
40,54.92955,56.197155,69.0,119.0
41,56.197155,56.6179294375,76.0,113.0
42,56.61969,57.46476,76.0,114.0
43,57.46476,58.30983,74.0,113.0
44,58.30983,58.732365,79.0,108.0
45,58.732365,59.577435,76.0,108.0
46,59.577435,59.99997,74.0,110.0
47,59.99997,61.69011,76.0,113.0
48,61.69011,62.957715,69.0,114.0
49,62.957715,63.3784894375,74.0,107.0
50,63.38025,64.22532,74.0,113.0
51,64.22532,65.07039,72.0,110.0
52,65.07039,65.53869962499999,76.0,113.0
53,65.492925,65.91546,74.0,104.0
54,65.91546,66.33799499999999,67.0,98.0
55,66.33799499999999,67.183065,72.0,104.0
56,67.183065,68.45067,69.0,102.0
57,68.45067,69.718275,76.0,108.0
58,69.718275,70.1390494375,81.0,113.0
59,70.14081,70.98588,81.0,116.0
60,70.98588,71.83095,79.0,117.0
61,71.83095,72.253485,84.0,114.0
62,72.253485,72.67602,81.0,107.0
63,72.67602,73.098555,79.0,102.0
64,73.098555,73.52109,76.0,104.0
65,73.52109,74.788695,79.0,116.0
66,74.788695,75.0017230625,76.0,104.0
67,74.9999625,75.21123,79.0,89.0
68,75.21123,75.633765,76.0,96.0
69,75.633765,76.0545394375,74.0,87.0
70,76.0563,76.478835,74.0,89.0
71,76.478835,76.7200320625,69.0,91.0
72,76.6901025,76.90137,72.0,88.0
73,76.90137,77.323905,76.0,93.0
74,77.323905,77.5351725,74.0,91.0
75,77.5351725,77.7446794375,72.0,98.0
76,77.74643999999999,78.168975,72.0,102.0
77,78.168975,78.6179184375,74.0,107.0
78,78.59151,81.97179,72.0,107.0
79,81.97179,82.394325,81.0,116.0
80,82.394325,83.239395,83.0,116.0
81,83.239395,83.6601694375,84.0,117.0
82,83.66193,84.0827044375,84.0,119.0
83,84.084465,84.507,84.0,108.0
84,84.507,84.975309625,83.0,116.0
85,84.929535,85.3503094375,81.0,116.0
86,85.35207,85.774605,81.0,114.0
87,85.774605,86.619675,79.0,114.0
88,86.619675,87.04221,76.0,117.0
89,87.04221,88.7305894375,79.0,120.0
90,88.73235,89.154885,79.0,116.0
91,89.154885,89.5756594375,81.0,116.0
92,89.57742,89.9981944375,81.0,116.0
93,89.999955,90.42249,81.0,116.0
94,90.42249,90.84502499999999,79.0,119.0
95,90.84502499999999,91.26756,81.0,114.0
96,91.26756,91.690095,72.0,113.0
97,91.690095,92.53516499999999,74.0,113.0
98,92.53516499999999,95.49291,76.0,117.0
99,95.49291,95.9136844375,74.0,113.0
100,95.915445,96.760515,74.0,116.0
101,96.760515,97.18305,76.0,117.0
102,97.18305,97.6038244375,74.0,117.0
103,97.605585,98.02812,74.0,108.0
104,98.02812,98.45769725,69.0,104.0
105,98.450655,98.87319,72.0,104.0
106,98.87319,99.295725,81.0,114.0
107,99.295725,99.71826,79.0,113.0
108,99.71826,100.140795,76.0,110.0
109,100.140795,102.25347,79.0,117.0
110,102.25347,102.676005,81.0,116.0
111,102.676005,103.09854,83.0,114.0
112,103.09854,103.521075,84.0,117.0
113,103.521075,103.94360999999999,81.0,116.0
114,103.94360999999999,104.3643844375,84.0,117.0
115,104.366145,104.9999475,84.0,114.0
116,104.9999475,105.4224825,83.0,114.0
117,105.4224825,105.63374999999999,81.0,114.0
118,105.63374999999999,106.056285,83.0,114.0
119,106.056285,106.2675525,81.0,92.0
120,106.2675525,109.01403,79.0,107.0
121,109.01403,109.436565,81.0,116.0
122,109.436565,110.281635,83.0,116.0
123,110.281635,110.7024094375,84.0,117.0
124,110.70417,111.1249444375,84.0,119.0
125,111.126705,111.54924,84.0,108.0
126,111.54924,112.017549625,83.0,116.0
127,111.971775,112.3925494375,81.0,116.0
128,112.39431,112.816845,81.0,114.0
129,112.816845,113.661915,79.0,114.0
130,113.661915,114.506985,76.0,117.0
131,114.506985,115.7728294375,79.0,120.0
132,115.77459,116.197125,79.0,116.0
133,116.197125,116.6178994375,81.0,116.0
134,116.61966,117.0404344375,81.0,116.0
135,117.04219499999999,117.46473,81.0,116.0
136,117.46473,117.887265,79.0,119.0
137,117.887265,118.3098,81.0,114.0
138,118.3098,118.73233499999999,72.0,113.0
139,118.73233499999999,119.577405,74.0,113.0
140,119.577405,122.53515,76.0,117.0
141,122.53515,122.9559244375,74.0,113.0
142,122.957685,123.802755,74.0,116.0
143,123.802755,124.22529,76.0,117.0
144,124.22529,124.6460644375,74.0,117.0
145,124.647825,125.07036,74.0,108.0
146,125.07036,125.49993725,69.0,104.0
147,125.492895,125.91543,72.0,104.0
148,125.91543,126.337965,81.0,114.0
149,126.337965,126.7605,79.0,113.0
150,126.7605,127.183035,76.0,110.0
151,127.183035,129.29570999999999,79.0,117.0
152,129.29570999999999,129.718245,81.0,116.0
153,129.718245,130.14078,83.0,114.0
154,130.14078,130.563315,84.0,117.0
155,130.563315,130.98585,81.0,116.0
156,130.98585,132.253455,79.0,117.0
157,132.253455,132.67598999999998,76.0,117.0
158,132.67598999999998,133.904862625,81.0,119.0
159,149.47175625,150.73936125,69.0,119.0
160,150.73936125,151.1601356875,76.0,113.0
161,151.16189624999998,152.00696625,76.0,114.0
162,152.00696625,152.85203625,74.0,113.0
163,152.85203625,153.27457125,79.0,108.0
164,153.27457125,154.11964125,76.0,108.0
165,154.11964125,154.54217625,74.0,110.0
166,154.54217625,156.23231625,76.0,113.0
167,156.23231625,157.49992125,69.0,114.0
168,157.49992125,157.9206956875,74.0,107.0
169,157.92245625,158.76752625,74.0,113.0
170,158.76752625,159.61259625,72.0,110.0
171,159.61259625,160.08090587499998,76.0,113.0
172,160.03513125,160.45766625,74.0,104.0
173,160.45766625,160.88020125,67.0,98.0
174,160.88020125,161.72527125,72.0,104.0
175,161.72527125,162.99287625,69.0,102.0
176,162.99287625,164.26048125,76.0,108.0
177,164.26048125,164.6812556875,81.0,113.0
178,164.68301625,165.52808625,81.0,116.0
179,165.52808625,166.37315625,79.0,117.0
180,166.37315625,166.79569125,84.0,114.0
181,166.79569125,167.21822625,81.0,107.0
182,167.21822625,167.64076125,79.0,102.0
183,167.64076125,168.06329625,76.0,104.0
184,168.06329625,169.33090125,79.0,116.0
185,169.33090125,169.54392931249998,76.0,104.0
186,169.54216875,169.75343625,79.0,89.0
187,169.75343625,170.17597125,76.0,96.0
188,170.17597125,170.5967456875,74.0,87.0
189,170.59850624999999,171.02104125,74.0,89.0
190,171.02104125,171.2622383125,69.0,91.0
191,171.23230875,171.44357625,72.0,88.0
192,171.44357625,171.86611125,76.0,93.0
193,171.86611125,172.07737875,74.0,91.0
194,172.07737875,172.2868856875,72.0,98.0
195,172.28864625,172.71118125,72.0,102.0
196,172.71118125,173.1601246875,74.0,107.0
197,173.13371625,176.3291371875,72.0,107.0
198,176.51399625,176.93653125,81.0,116.0
199,176.93653125,177.78160125,83.0,116.0
200,177.78160125,178.2023756875,84.0,117.0
201,178.20413625,178.6249106875,84.0,119.0
202,178.62667125,179.04920625,84.0,108.0
203,179.04920625,179.517515875,83.0,116.0
204,179.47174125,179.8925156875,81.0,116.0
205,179.89427625,180.31681125,81.0,114.0
206,180.31681125,181.16188125,79.0,114.0
207,181.16188125,181.58441625,76.0,117.0
208,181.58441625,183.2727956875,79.0,120.0
209,183.27455625,183.69709125,79.0,116.0
210,183.69709125,184.1178656875,81.0,116.0
211,184.11962625,184.5404006875,81.0,116.0
212,184.54216125,184.96469625,81.0,116.0
213,184.96469625,185.38723124999999,79.0,119.0
214,185.38723124999999,185.80976625,81.0,114.0
215,185.80976625,186.23230125,72.0,113.0
216,186.23230125,187.07737125,74.0,113.0
217,187.07737125,190.03511625,76.0,117.0
218,190.03511625,190.4558906875,74.0,113.0
219,190.45765125,191.30272125,74.0,116.0
220,191.30272125,191.72525625,76.0,117.0
221,191.72525625,192.1460306875,74.0,117.0
222,192.14779124999998,192.57032625,74.0,108.0
223,192.57032625,192.9999035,69.0,104.0
224,192.99286125,193.41539625,72.0,104.0
225,193.41539625,193.83793125,81.0,114.0
226,193.83793125,194.26046625,79.0,113.0
227,194.26046625,194.68300125,76.0,110.0
228,194.68300125,196.79567624999999,79.0,117.0
229,196.79567624999999,197.21821125,81.0,116.0
230,197.21821125,197.64074625,83.0,114.0
231,197.64074625,198.06328125,84.0,117.0
232,198.06328125,198.48581625,81.0,116.0
233,198.48581625,198.9065906875,84.0,117.0
234,198.90835125,199.54215375,84.0,114.0
235,199.54215375,199.96468875,83.0,114.0
236,199.96468875,200.17595624999998,81.0,114.0
237,200.17595624999998,200.59849125,83.0,114.0
238,200.59849125,200.80975875,81.0,92.0
239,200.80975875,203.55623624999998,79.0,107.0
240,203.55623624999998,203.97877125,81.0,116.0
241,203.97877125,204.82384125,83.0,116.0
242,204.82384125,205.2446156875,84.0,117.0
243,205.24637625,205.6671506875,84.0,119.0
244,205.66891125,206.09144625,84.0,108.0
245,206.09144625,206.559755875,83.0,116.0
246,206.51398125,206.9347556875,81.0,116.0
247,206.93651625,207.35905125,81.0,114.0
248,207.35905125,208.20412125,79.0,114.0
249,208.20412125,209.04919125,76.0,117.0
250,209.04919125,210.3150356875,79.0,120.0
251,210.31679625,210.73933125,79.0,116.0
252,210.73933125,211.1601056875,81.0,116.0
253,211.16186625,211.5826406875,81.0,116.0
254,211.58440124999998,212.00693625,81.0,116.0
255,212.00693625,212.42947125,79.0,119.0
256,212.42947125,212.85200625,81.0,114.0
257,212.85200625,213.27454125,72.0,113.0
258,213.27454125,214.11961125,74.0,113.0
259,214.11961125,217.07735625,76.0,117.0
260,217.07735625,217.4981306875,74.0,113.0
261,217.49989125,218.34496124999998,74.0,116.0
262,218.34496124999998,218.76749625,76.0,117.0
263,218.76749625,219.1882706875,74.0,117.0
264,219.19003125,219.61256625,74.0,108.0
265,219.61256625,220.0421435,69.0,104.0
266,220.03510125,220.45763625,72.0,104.0
267,220.45763625,220.88017125,81.0,114.0
268,220.88017125,221.30270625,79.0,113.0
269,221.30270625,221.72524125,76.0,110.0
270,221.72524125,223.83791625,79.0,117.0
271,223.83791625,224.26045125,81.0,116.0
272,224.26045125,224.68298625,83.0,114.0
273,224.68298625,225.10552125,84.0,117.0
274,225.10552125,225.52805625,81.0,116.0
275,225.52805625,226.79566125,79.0,117.0
276,226.79566125,227.21819625,76.0,117.0
277,227.21819625,228.57558993749998,81.0,119.0
278,230.59847625,231.02101125,81.0,116.0
279,231.02101125,231.86608125,83.0,116.0
280,231.86608125,232.2868556875,84.0,117.0
281,232.28861625,232.7093906875,84.0,119.0
282,232.71115125,233.13368624999998,84.0,108.0
283,233.13368624999998,233.601995875,83.0,116.0
284,233.55622125,233.9769956875,81.0,116.0
285,233.97875625,234.40129124999999,81.0,114.0
286,234.40129124999999,235.24636125,79.0,114.0
287,235.24636125,235.66889625,76.0,117.0
288,235.66889625,237.3572756875,79.0,120.0
289,237.35903625,237.78157124999998,79.0,116.0
290,237.78157124999998,238.20234568749999,81.0,116.0
291,238.20410625,238.6248806875,81.0,116.0
292,238.62664125,239.04917625,81.0,116.0
293,239.04917625,239.47171125,79.0,119.0
294,239.47171125,239.89424625,81.0,114.0
295,239.89424625,240.31678125,72.0,113.0
296,240.31678125,241.16185124999998,74.0,113.0
297,241.16185124999998,244.11959625,76.0,117.0
298,244.11959625,244.5403706875,74.0,113.0
299,244.54213124999998,245.38720125,74.0,116.0
300,245.38720125,245.80973625,76.0,117.0
301,245.80973625,246.2305106875,74.0,117.0
302,246.23227125,246.65480625,74.0,108.0
303,246.65480625,247.0843835,69.0,104.0
304,247.07734125,247.49987625,72.0,104.0
305,247.49987625,247.92241125,81.0,114.0
306,247.92241125,248.34494625,79.0,113.0
307,248.34494625,248.76748125,76.0,110.0
308,248.76748125,250.88015625,79.0,117.0
309,250.88015625,251.30269125,81.0,116.0
310,251.30269125,251.72522625,83.0,114.0
311,251.72522625,252.14776125,84.0,117.0
312,252.14776125,252.57029624999998,81.0,116.0
313,252.57029624999998,253.408324,79.0,116.0
314,253.83790125,254.26043625,76.0,110.0
315,254.26043625,257.74635,81.0,117.0
