,start,end,pitch,velocity
0,36.082436224999995,36.432711131249995,65.0,89.0
1,36.412106724999994,37.730788725,70.0,96.0
2,37.730788725,38.060459224999995,72.0,93.0
3,38.060459224999995,38.43271216458333,77.0,97.0
4,38.390129724999994,40.038482224999996,74.0,85.0
5,40.038482224999996,40.368152724999995,67.0,93.0
6,40.368152724999995,41.357164225,70.0,100.0
7,41.357164225,41.686834725,72.0,107.0
8,41.686834725,42.02337336041666,67.0,93.0
9,42.016505224999996,42.34480209791666,65.0,96.0
10,42.346175724999995,43.993154597916664,65.0,90.0
11,43.994528224999996,44.33656136875,65.0,90.0
12,44.324198724999995,45.642880725,70.0,93.0
13,45.642880725,45.972551225,72.0,100.0
14,45.972551225,46.302221724999995,79.0,100.0
15,46.302221724999995,47.019255062499994,74.0,96.0
16,46.96156272499999,47.65936528333333,72.0,95.0
17,47.62090372499999,48.280244724999996,70.0,102.0
18,48.280244724999996,51.90662022499999,72.0,89.0
19,51.90662022499999,52.236290724999996,65.0,93.0
20,52.236290724999996,53.55497272499999,70.0,112.0
21,53.55497272499999,53.88464322499999,72.0,102.0
22,53.88464322499999,54.214313725,77.0,102.0
23,54.214313725,55.86266622499999,74.0,97.0
24,55.86266622499999,56.19233672499999,67.0,92.0
25,56.19233672499999,57.317337306249996,70.0,100.0
26,57.181348224999994,57.512392352083324,72.0,99.0
27,57.51101872499999,58.17035972499999,67.0,95.0
28,58.17035972499999,59.81871222499999,65.0,93.0
29,59.81871222499999,60.14838272499999,74.0,93.0
30,60.14838272499999,61.46569109791666,77.0,97.0
31,61.46706472499999,62.12640572499999,77.0,107.0
32,62.12640572499999,63.44508772499999,82.0,127.0
33,63.44508772499999,64.10442872499999,70.0,117.0
34,64.10442872499999,65.42311072499999,72.0,127.0
35,65.42311072499999,66.082451725,74.0,117.0
36,66.082451725,67.73080422499999,72.0,102.0
37,67.73080422499999,68.07695824999999,65.0,93.0
38,68.06047472499999,69.37915672499999,70.0,117.0
39,69.37915672499999,69.71294810625,72.0,97.0
40,69.708827225,70.04399223333333,77.0,100.0
41,70.03849772499998,71.68685022499999,74.0,107.0
42,71.68685022499999,72.03575150416665,67.0,99.0
43,72.01652072499999,73.005532225,70.0,117.0
44,73.005532225,73.34893899583332,72.0,100.0
45,73.33520272499999,73.664873225,67.0,82.0
46,73.664873225,73.99317009791666,65.0,69.0
47,73.99454372499999,75.71981934166666,65.0,88.0
48,75.64289622499999,75.972566725,74.0,88.0
49,75.972566725,76.63190772499999,77.0,97.0
50,76.63190772499999,77.31597401249999,74.0,95.0
51,77.29124872499999,78.00416118124998,72.0,93.0
52,77.95058972499999,78.83108468541666,70.0,97.0
53,78.60993072499998,79.29399701249999,72.0,112.0
54,79.269271725,79.97668967291666,74.0,107.0
55,79.928612725,80.93136049583332,72.0,100.0
56,80.917624225,81.24729472499999,70.0,102.0
57,81.24729472499999,81.90663572499999,72.0,100.0
58,81.90663572499999,86.39552299999998,70.0,127.0
59,113.00492272499999,113.33459322499998,74.0,112.0
60,113.33459322499998,113.66289009791664,77.0,117.0
61,113.66426372499998,114.32223109791664,77.0,117.0
62,114.32360472499998,114.98157209791665,77.0,127.0
63,114.98294572499998,115.64228672499998,77.0,112.0
64,115.64228672499998,116.30162772499997,79.0,127.0
65,116.30162772499997,117.29063922499998,77.0,127.0
66,117.29063922499998,117.62030972499998,74.0,122.0
67,117.62030972499998,118.05437588333331,72.0,117.0
68,117.94998022499998,118.27827709791664,70.0,99.0
69,118.27965072499998,119.26866222499999,70.0,107.0
70,119.26866222499999,119.60932174166665,67.0,100.0
71,119.59833272499998,121.24668522499998,70.0,102.0
72,121.24668522499998,121.57498209791665,77.0,117.0
73,121.57635572499998,122.89366409791664,77.0,127.0
74,122.89503772499998,123.55437872499998,77.0,122.0
75,123.55437872499998,124.21371972499998,79.0,117.0
76,124.21371972499998,125.20273122499998,77.0,117.0
77,125.20273122499998,125.53240172499997,74.0,127.0
78,125.53240172499997,129.158777225,72.0,102.0
79,129.158777225,129.488447725,65.0,97.0
80,129.488447725,130.80712972499998,70.0,127.0
81,130.80712972499998,131.13680022499997,72.0,112.0
82,131.13680022499997,131.79614122499999,77.0,112.0
83,131.79614122499999,133.11482322499998,74.0,127.0
84,133.11482322499998,133.44449372499997,67.0,90.0
85,133.44449372499997,134.43350522499998,70.0,100.0
86,134.43350522499998,134.76317572499997,72.0,117.0
87,134.76317572499997,135.42251672499998,67.0,100.0
88,135.42251672499998,137.07086922499997,65.0,102.0
89,137.07086922499997,137.43762765625,67.0,100.0
90,137.400539725,138.71922172499998,70.0,122.0
91,138.71922172499998,139.04889222499997,72.0,112.0
92,139.04889222499997,139.708233225,79.0,127.0
93,139.708233225,140.69724472499996,74.0,127.0
94,140.69724472499996,141.02691522499998,72.0,102.0
95,141.02691522499998,141.35658572499997,70.0,99.0
96,141.35658572499997,144.66226507499997,72.0,122.0
97,144.66226507499997,145.32754318541663,70.0,122.0
98,145.32893207499995,149.20798949999997,70.0,122.0
99,149.20798949999997,149.67673949999997,74.0,127.0
100,149.67673949999997,150.17773379791663,77.0,122.0
101,150.18000652499998,151.17407218541663,77.0,127.0
102,151.175461075,151.84073918541665,77.0,112.0
103,151.84212807499998,152.50879507499997,77.0,122.0
104,152.50879507499997,153.17381372499997,79.0,127.0
105,153.17381372499997,154.16282522499998,77.0,127.0
106,154.16282522499998,154.49249572499997,74.0,127.0
107,154.49249572499997,155.16109371666664,72.0,127.0
108,155.15022414999999,156.12848515,70.0,127.0
109,156.12848515,156.45457215,67.0,102.0
110,156.45457215,158.07290799999998,70.0,122.0
111,158.07290799999998,158.395488,74.0,99.0
112,158.395488,159.68446391666666,77.0,112.0
113,158.395488,159.68446391666666,77.0,112.0
114,159.68580799999998,160.33096799999998,77.0,117.0
115,160.33096799999998,160.97931872499998,79.0,122.0
116,160.97931872499998,161.968330225,77.0,127.0
117,161.968330225,162.29800072499998,74.0,122.0
118,162.29800072499998,166.09039865,72.0,117.0
119,166.09039865,166.442142625,65.0,79.0
120,166.43923565,167.66016515,70.0,117.0
121,167.66016515,168.18342065,72.0,102.0
122,168.18342065,168.5744087875,77.0,107.0
123,168.53225765,170.27644265,74.0,112.0
124,170.27644265,170.62527965,67.0,97.0
125,170.62527965,171.66597687499998,70.0,112.0
126,171.66597687499998,172.00904104999998,72.0,100.0
127,172.00904104999998,172.69085904999997,67.0,96.0
128,172.69085904999997,174.36787968541665,65.0,97.0
129,174.369268575,174.702602075,65.0,95.0
130,174.702602075,176.035936075,70.0,122.0
131,176.035936075,176.369269575,72.0,102.0
132,176.369269575,176.73038086666668,79.0,97.0
133,176.702603075,177.367621725,74.0,97.0
134,177.367621725,178.026962725,72.0,127.0
135,178.026962725,178.686303725,70.0,122.0
136,178.686303725,181.983008725,72.0,107.0
137,181.983008725,182.97064659791667,70.0,122.0
138,182.972020225,187.768726,70.0,117.0
