,start,end,pitch,velocity
0,20.422772333333334,21.3032861,79.0,113.0
1,21.746300333333334,22.025711800000003,81.0,110.0
2,21.966888333333333,22.180123400000003,79.0,92.0
3,22.187476333333336,23.080857733333335,77.0,113.0
4,23.069828333333334,23.507327866666667,74.0,110.0
5,23.511004333333336,23.88232746666667,77.0,93.0
6,23.952180333333335,24.669091333333334,72.0,100.0
7,24.834532333333335,25.207693700000004,69.0,104.0
8,25.275708333333334,25.564310966666667,72.0,94.0
9,25.716884333333336,26.040413400000002,77.0,102.0
10,27.481588333333335,28.6874694,74.0,113.0
11,28.805116333333334,29.174601233333334,77.0,110.0
12,29.246292333333336,29.753644733333335,84.0,114.0
13,29.687468333333335,30.31798236666667,86.0,104.0
14,30.569820333333336,31.04592276666667,81.0,117.0
15,31.010996333333335,31.49261346666667,79.0,113.0
16,34.540404333333335,35.36393286666667,81.0,119.0
17,35.42275633333334,35.77202066666667,79.0,116.0
18,35.86393233333334,36.2040055,81.0,113.0
19,36.30510833333334,37.009151700000004,84.0,114.0
20,37.187460333333334,37.5330482,81.0,110.0
21,38.06981233333334,38.4870913,72.0,108.0
22,38.51098833333334,38.95400256666667,69.0,102.0
23,38.952164333333336,39.31613453333333,72.0,100.0
24,39.393340333333335,39.75731053333334,74.0,110.0
25,39.83451633333333,40.220545333333334,77.0,108.0
26,41.599220333333335,42.32164603333334,74.0,113.0
27,42.92274833333334,43.22789506666667,77.0,104.0
28,43.36392433333334,43.73524746666667,74.0,110.0
29,43.805100333333336,44.450320233333336,72.0,107.0
30,44.68745233333334,44.985246133333334,69.0,107.0
31,45.12862833333334,45.540392600000004,72.0,107.0
32,48.658036333333335,49.5385501,79.0,113.0
33,49.98156433333334,50.260975800000004,81.0,110.0
34,50.20215233333334,50.41538740000001,79.0,92.0
35,50.42274033333334,51.31612173333334,77.0,113.0
36,51.305092333333334,51.74259186666667,74.0,110.0
37,51.74626833333334,52.11759146666667,77.0,93.0
38,52.18744433333334,52.904355333333335,72.0,100.0
39,53.069796333333336,53.4429577,69.0,104.0
40,53.510972333333335,53.79957496666667,72.0,94.0
41,53.95214833333334,54.275677400000006,77.0,102.0
42,55.716852333333335,56.922733400000006,74.0,113.0
43,57.04038033333334,57.409865233333335,77.0,110.0
44,57.48155633333334,57.98890873333334,84.0,114.0
45,57.922732333333336,58.55324636666667,86.0,104.0
46,58.80508433333334,59.28118676666667,81.0,117.0
47,59.24626033333334,59.72787746666667,79.0,113.0
48,62.775668333333336,63.599196866666674,81.0,119.0
49,63.65802033333334,64.00728466666668,79.0,116.0
50,64.09919633333334,64.43926950000001,81.0,113.0
51,64.54037233333334,65.2444157,84.0,114.0
52,65.42272433333333,65.76831220000001,81.0,110.0
53,66.30507633333333,66.7223553,72.0,108.0
54,66.74625233333335,67.18926656666667,69.0,102.0
55,67.18742833333334,67.55139853333334,72.0,100.0
56,67.62860433333334,67.99257453333334,74.0,110.0
57,68.06978033333334,68.45580933333333,77.0,108.0
58,69.83448433333334,70.55691003333334,74.0,113.0
59,71.15801233333333,71.46315906666668,77.0,104.0
60,71.59918833333334,71.97051146666668,74.0,110.0
61,72.04036433333334,72.68558423333334,72.0,107.0
62,72.92271633333334,73.22051013333333,69.0,107.0
63,73.36389233333334,73.7756566,72.0,107.0
64,76.89330033333334,77.5752849,79.0,116.0
65,77.77565233333334,78.09182846666667,79.0,117.0
66,78.21682833333334,78.49991626666667,81.0,114.0
67,78.65800433333334,79.39697413333334,84.0,117.0
68,79.54035633333334,79.97785586666667,86.0,116.0
69,79.98153233333333,80.35653193333334,84.0,110.0
70,80.42270833333333,81.12307523333334,82.0,119.0
71,81.74623633333334,82.03483896666667,84.0,117.0
72,82.18741233333334,82.5440296,84.0,120.0
73,83.95211633333334,84.3528512,84.0,117.0
74,84.39329233333333,84.74071843333334,86.0,102.0
75,84.83446833333333,85.21682086666668,84.0,113.0
76,85.27564433333335,85.70946740000001,81.0,116.0
77,85.71682033333335,86.09365816666667,79.0,117.0
78,86.15799633333334,86.52931946666668,81.0,104.0
79,86.59917233333334,87.03483363333334,77.0,108.0
80,87.04034833333334,87.3583627,74.0,100.0
81,87.48152433333334,87.88225920000001,79.0,114.0
82,91.01093233333334,91.79034326666667,81.0,114.0
83,91.89328433333334,92.23151926666668,79.0,110.0
84,92.33446033333334,92.59732770000001,81.0,117.0
85,92.77563633333334,93.08997423333334,84.0,114.0
86,93.65798833333334,94.02563500000001,81.0,113.0
87,94.54034033333335,94.96313400000001,72.0,113.0
88,94.98151633333335,95.38408943333334,69.0,107.0
89,95.42269233333334,95.81975073333334,72.0,113.0
90,95.86386833333334,96.286662,74.0,113.0
91,96.30504433333334,96.727838,77.0,116.0
92,98.06974833333334,98.52930666666667,74.0,117.0
93,99.39327633333335,99.65246723333334,77.0,117.0
94,99.83445233333335,100.14695200000001,79.0,119.0
95,100.27562833333334,100.49805456666668,74.0,96.0
96,100.71680433333334,100.9851864,77.0,104.0
97,101.15798033333334,101.45577413333334,81.0,108.0
98,101.59915633333334,101.90797953333335,79.0,116.0
99,105.12856433333334,105.81054890000001,79.0,116.0
100,106.01091633333334,106.32709246666667,79.0,117.0
101,106.45209233333334,106.73518026666667,81.0,114.0
102,106.89326833333334,107.63223813333335,84.0,117.0
103,107.77562033333334,108.21311986666667,86.0,116.0
104,108.21679633333333,108.59179593333334,84.0,110.0
105,108.65797233333335,109.35833923333334,82.0,119.0
106,109.98150033333334,110.27010296666667,84.0,117.0
107,110.42267633333334,110.7792936,84.0,120.0
108,112.18738033333334,112.5881152,84.0,117.0
109,112.62855633333334,112.97598243333334,86.0,102.0
110,113.06973233333335,113.45208486666668,84.0,113.0
111,113.51090833333335,113.94473140000001,81.0,116.0
112,113.95208433333335,114.32892216666667,79.0,117.0
113,114.39326033333334,114.76458346666668,81.0,104.0
114,114.83443633333334,115.27009763333334,77.0,108.0
115,115.27561233333334,115.59362670000002,74.0,100.0
116,115.71678833333334,116.11752320000001,79.0,114.0
117,119.24619633333334,120.02560726666668,81.0,114.0
118,120.12854833333334,120.46678326666668,79.0,110.0
119,120.56972433333334,120.83259170000001,81.0,117.0
120,121.01090033333334,121.32523823333334,84.0,114.0
121,121.89325233333334,122.26089900000001,81.0,113.0
122,122.77560433333335,123.19839800000001,72.0,113.0
123,123.21678033333335,123.61935343333334,69.0,107.0
124,123.65795633333335,124.05501473333334,72.0,113.0
125,124.09913233333334,124.52192600000001,74.0,113.0
126,124.54030833333334,124.963102,77.0,116.0
127,126.30501233333334,126.76457066666667,74.0,117.0
128,127.62854033333335,127.88773123333334,77.0,117.0
129,128.06971633333333,128.382216,79.0,119.0
130,128.51089233333335,128.73331856666667,74.0,96.0
131,128.95206833333333,129.2204504,77.0,104.0
132,129.39324433333334,129.69103813333334,81.0,108.0
133,129.83442033333336,130.14324353333333,79.0,116.0
134,161.59909233333335,162.4796061,79.0,113.0
135,162.92262033333336,163.20203180000001,81.0,110.0
136,163.14320833333335,163.35644340000002,79.0,92.0
137,163.36379633333334,164.25717773333335,77.0,113.0
138,164.24614833333334,164.6836478666667,74.0,110.0
139,164.68732433333335,165.05864746666668,77.0,93.0
140,165.12850033333333,165.84541133333335,72.0,100.0
141,166.01085233333333,166.38401370000003,69.0,104.0
142,166.45202833333335,166.74063096666669,72.0,94.0
143,166.89320433333336,167.2167334,77.0,102.0
144,168.65790833333335,169.8637894,74.0,113.0
145,169.98143633333333,170.35092123333334,77.0,110.0
146,170.42261233333335,170.92996473333335,84.0,114.0
147,170.86378833333336,171.4943023666667,86.0,104.0
148,171.74614033333336,172.22224276666668,81.0,117.0
149,172.18731633333334,172.6689334666667,79.0,113.0
150,175.71672433333336,176.5402528666667,81.0,119.0
151,176.59907633333336,176.94834066666667,79.0,116.0
152,177.04025233333334,177.38032550000003,81.0,113.0
153,177.48142833333335,178.18547170000002,84.0,114.0
154,178.36378033333335,178.7093682,81.0,110.0
155,179.24613233333335,179.6634113,72.0,108.0
156,179.68730833333333,180.13032256666668,69.0,102.0
157,180.12848433333335,180.49245453333336,72.0,100.0
158,180.56966033333336,180.93363053333334,74.0,110.0
159,181.01083633333334,181.39686533333335,77.0,108.0
160,182.77554033333334,183.49796603333334,74.0,113.0
161,184.09906833333335,184.4042150666667,77.0,104.0
162,184.54024433333333,184.91156746666667,74.0,110.0
163,184.98142033333335,185.62664023333335,72.0,107.0
164,185.86377233333334,186.16156613333334,69.0,107.0
165,186.30494833333336,186.71671260000002,72.0,107.0
166,189.83435633333335,190.51634090000002,79.0,116.0
167,190.71670833333334,191.03288446666667,79.0,117.0
168,191.15788433333336,191.44097226666668,81.0,114.0
169,191.59906033333334,192.33803013333335,84.0,117.0
170,192.48141233333334,192.9189118666667,86.0,116.0
171,192.92258833333335,193.29758793333335,84.0,110.0
172,193.36376433333334,194.06413123333334,82.0,119.0
173,194.68729233333335,194.9758949666667,84.0,117.0
174,195.12846833333336,195.48508560000002,84.0,120.0
175,196.89317233333335,197.2939072,84.0,117.0
176,197.33434833333334,197.68177443333335,86.0,102.0
177,197.77552433333335,198.15787686666667,84.0,113.0
178,198.21670033333334,198.65052340000003,81.0,116.0
179,198.65787633333335,199.03471416666667,79.0,117.0
180,199.09905233333336,199.4703754666667,81.0,104.0
181,199.54022833333335,199.97588963333334,77.0,108.0
182,199.98140433333336,200.29941870000002,74.0,100.0
183,200.42258033333334,200.82331520000002,79.0,114.0
184,203.95198833333336,204.73139926666667,81.0,114.0
185,204.83434033333336,205.17257526666668,79.0,110.0
186,205.27551633333334,205.53838370000003,81.0,117.0
187,205.71669233333336,206.03103023333335,84.0,114.0
188,206.59904433333335,206.96669100000003,81.0,113.0
189,207.48139633333335,207.90419000000003,72.0,113.0
190,207.92257233333333,208.32514543333335,69.0,107.0
191,208.36374833333335,208.76080673333334,72.0,113.0
192,208.80492433333336,209.227718,74.0,113.0
193,209.24610033333335,209.66889400000002,77.0,116.0
194,211.01080433333334,211.4703626666667,74.0,117.0
195,212.33433233333335,212.59352323333334,77.0,117.0
196,212.77550833333336,213.088008,79.0,119.0
197,213.21668433333335,213.43911056666667,74.0,96.0
198,213.65786033333336,213.9262424,77.0,104.0
199,214.09903633333334,214.39683013333334,81.0,108.0
200,214.54021233333336,214.84903553333334,79.0,116.0
201,218.06962033333335,218.75160490000002,79.0,116.0
202,218.95197233333334,219.26814846666667,79.0,117.0
203,219.39314833333336,219.67623626666668,81.0,114.0
204,219.83432433333334,220.57329413333335,84.0,117.0
205,220.71667633333334,221.1541758666667,86.0,116.0
206,221.15785233333335,221.53285193333335,84.0,110.0
207,221.59902833333334,222.29939523333334,82.0,119.0
208,222.92255633333335,223.2111589666667,84.0,117.0
209,223.36373233333336,223.72034960000002,84.0,120.0
210,225.12843633333335,225.5291712,84.0,117.0
211,225.56961233333334,225.91703843333335,86.0,102.0
212,226.01078833333335,226.39314086666667,84.0,113.0
213,226.45196433333334,226.88578740000003,81.0,116.0
214,226.89314033333335,227.26997816666668,79.0,117.0
215,227.33431633333336,227.7056394666667,81.0,104.0
216,227.77549233333335,228.21115363333334,77.0,108.0
217,228.21666833333336,228.53468270000002,74.0,100.0
218,228.65784433333334,229.05857920000003,79.0,114.0
219,232.18725233333336,232.96666326666667,81.0,114.0
220,233.06960433333336,233.40783926666668,79.0,110.0
221,233.51078033333334,233.77364770000003,81.0,117.0
222,233.95195633333336,234.26629423333335,84.0,114.0
223,234.83430833333335,235.20195500000003,81.0,113.0
224,235.71666033333335,236.13945400000003,72.0,113.0
225,236.15783633333336,236.56040943333335,69.0,107.0
226,236.59901233333335,236.99607073333334,72.0,113.0
227,237.04018833333336,237.462982,74.0,113.0
228,237.48136433333335,237.90415800000002,77.0,116.0
229,239.24606833333334,239.7056266666667,74.0,117.0
230,240.56959633333335,240.82878723333334,77.0,117.0
231,241.01077233333336,241.32327200000003,79.0,119.0
232,241.45194833333335,241.67437456666667,74.0,96.0
233,241.89312433333336,242.1615064,77.0,104.0
234,242.33430033333335,242.63209413333334,81.0,108.0
235,244.54018033333335,244.84900353333336,79.0,116.0
