,start,end,pitch,velocity
0,6.305140333333334,9.312490066666667,72.0,81.0
1,6.305140333333334,9.389695866666667,53.0,76.0
2,6.305140333333334,9.415431133333334,69.0,74.0
3,6.305140333333334,9.487122233333334,65.0,73.0
4,9.834548333333334,12.610280666666668,58.0,82.0
5,9.834548333333334,12.621310066666668,62.0,86.0
6,9.834548333333334,12.6341777,67.0,84.0
7,9.834548333333334,12.865795100000001,55.0,81.0
8,13.363956333333334,16.529394133333334,67.0,85.0
9,13.363956333333334,16.545938233333334,64.0,86.0
10,13.363956333333334,16.590055833333334,60.0,81.0
11,13.363956333333334,16.624982266666667,48.0,75.0
12,16.893364333333334,19.904390533333334,67.0,87.0
13,16.893364333333334,19.961375766666666,64.0,87.0
14,16.893364333333334,19.9797581,48.0,82.0
15,16.893364333333334,19.9852728,60.0,84.0
16,20.422772333333334,20.931962966666667,70.0,80.0
17,20.422772333333334,20.985271733333335,62.0,83.0
18,20.422772333333334,21.011007000000003,67.0,83.0
19,20.422772333333334,21.525712333333335,43.0,77.0
20,21.305124333333335,21.74813856666667,70.0,75.0
21,21.305124333333335,21.775712066666667,62.0,83.0
22,21.305124333333335,21.783065,67.0,83.0
23,21.746300333333334,22.077182333333337,43.0,97.0
24,22.187476333333336,22.661740533333337,70.0,76.0
25,22.187476333333336,22.700343433333334,62.0,76.0
26,22.187476333333336,22.722402233333334,67.0,81.0
27,20.422772333333334,23.41357796666667,55.0,79.0
28,23.069828333333334,23.4485044,70.0,85.0
29,23.069828333333334,23.46872496666667,67.0,92.0
30,23.069828333333334,23.477916133333334,62.0,87.0
31,22.187476333333336,23.621298333333336,43.0,97.0
32,23.952180333333335,24.42276806666667,69.0,86.0
33,23.952180333333335,24.465047433333336,64.0,86.0
34,23.952180333333335,24.477915066666668,60.0,82.0
35,23.952180333333335,25.077179133333335,45.0,72.0
36,23.952180333333335,25.12313496666667,57.0,71.0
37,24.834532333333335,25.33820826666667,60.0,87.0
38,24.834532333333335,25.374972933333336,69.0,88.0
39,24.834532333333335,25.53673746666667,64.0,91.0
40,25.275708333333334,25.606590333333337,45.0,97.0
41,25.716884333333336,26.35291306666667,65.0,86.0
42,25.716884333333336,26.360266000000003,62.0,83.0
43,25.716884333333336,26.422765933333334,69.0,87.0
44,26.599236333333334,27.02203,62.0,83.0
45,26.599236333333334,27.02570646666667,69.0,86.0
46,26.599236333333334,27.0440888,65.0,87.0
47,25.716884333333336,27.242618000000004,50.0,80.0
48,27.481588333333335,27.987102500000002,69.0,83.0
49,27.481588333333335,28.0587936,65.0,86.0
50,27.481588333333335,28.06247006666667,62.0,84.0
51,27.481588333333335,28.584528333333335,50.0,82.0
52,28.363940333333336,28.8639398,69.0,87.0
53,28.363940333333336,28.935630900000003,62.0,86.0
54,28.363940333333336,28.937469133333334,65.0,85.0
55,28.805116333333334,29.135998333333337,50.0,97.0
56,29.246292333333336,29.744453566666667,69.0,85.0
57,29.246292333333336,29.7959241,62.0,84.0
58,29.246292333333336,29.79960056666667,65.0,85.0
59,30.128644333333337,30.487099833333335,65.0,94.0
60,30.128644333333337,30.490776300000004,69.0,91.0
61,30.128644333333337,30.619452633333335,62.0,89.0
62,29.246292333333336,30.680114333333336,50.0,97.0
63,31.010996333333335,31.488937000000004,67.0,85.0
64,31.010996333333335,31.5220252,62.0,86.0
65,31.010996333333335,31.59739276666667,58.0,84.0
66,31.010996333333335,32.113936333333335,43.0,77.0
67,31.893348333333336,32.52937706666667,67.0,81.0
68,31.893348333333336,32.588200533333335,62.0,81.0
69,31.893348333333336,32.624965200000005,58.0,80.0
70,32.334524333333334,32.66540633333334,43.0,97.0
71,32.77570033333333,33.242611600000004,67.0,83.0
72,32.77570033333333,33.332685033333334,62.0,85.0
73,32.77570033333333,33.419082,58.0,83.0
74,32.77570033333333,33.87864033333334,43.0,97.0
75,33.65805233333334,34.027537233333334,58.0,83.0
76,33.65805233333334,34.17827236666667,67.0,87.0
77,31.010996333333335,34.22790466666667,55.0,77.0
78,33.65805233333334,34.29775753333334,62.0,85.0
79,34.540404333333335,35.12128606666667,69.0,87.0
80,34.540404333333335,35.141506633333336,64.0,85.0
81,34.540404333333335,35.147021333333335,60.0,81.0
82,34.540404333333335,35.533050333333335,45.0,82.0
83,35.42275633333334,35.99812336666667,60.0,79.0
84,35.42275633333334,35.999961600000006,69.0,85.0
85,35.42275633333334,36.02018216666667,64.0,84.0
86,35.86393233333334,36.19481433333333,45.0,97.0
87,36.30510833333334,36.84187246666667,69.0,84.0
88,36.30510833333334,36.85657833333334,60.0,80.0
89,36.30510833333334,36.928269433333334,64.0,84.0
90,37.187460333333334,37.69665096666667,69.0,86.0
91,37.187460333333334,37.704003900000004,60.0,82.0
92,34.540404333333335,37.7150333,57.0,81.0
93,37.187460333333334,37.73525386666667,64.0,84.0
94,36.30510833333334,37.84922433333334,45.0,97.0
95,38.06981233333334,38.604738233333336,67.0,77.0
96,38.06981233333334,38.6139294,64.0,79.0
97,38.06981233333334,38.6304735,60.0,76.0
98,38.06981233333334,39.172752333333335,48.0,76.0
99,38.952164333333336,39.54775193333334,60.0,82.0
100,38.952164333333336,39.772016400000005,67.0,83.0
101,39.393340333333335,39.83451633333333,48.0,97.0
102,38.952164333333336,39.84186926666667,64.0,86.0
103,39.83451633333333,40.466868600000005,69.0,83.0
104,39.83451633333333,40.48157446666667,65.0,84.0
105,39.83451633333333,40.49628033333334,62.0,86.0
106,40.71686833333334,41.19480900000001,65.0,81.0
107,40.71686833333334,41.20400016666667,62.0,84.0
108,40.71686833333334,41.20951486666667,69.0,80.0
109,39.83451633333333,41.27017656666667,50.0,74.0
110,41.599220333333335,42.05694043333334,67.0,86.0
111,41.599220333333335,42.187455,58.0,86.0
112,41.599220333333335,42.22238143333334,62.0,85.0
113,41.599220333333335,42.812454333333335,43.0,75.0
114,42.48157233333334,42.9539983,67.0,83.0
115,42.48157233333334,42.9650277,58.0,80.0
116,42.48157233333334,43.02936586666667,62.0,81.0
117,42.92274833333334,43.253630333333334,43.0,97.0
118,43.36392433333334,43.79223270000001,67.0,84.0
119,43.36392433333334,43.79407093333334,58.0,82.0
120,43.36392433333334,43.849217933333335,62.0,84.0
121,44.246276333333334,44.70399643333334,58.0,82.0
122,41.599220333333335,44.74627580000001,55.0,72.0
123,44.246276333333334,44.76098166666667,67.0,87.0
124,43.36392433333334,44.90804033333334,43.0,97.0
125,44.246276333333334,44.933775600000004,62.0,78.0
126,45.12862833333334,45.55509846666667,67.0,84.0
127,45.12862833333334,45.77936293333334,60.0,81.0
128,45.12862833333334,45.8161276,64.0,86.0
129,45.12862833333334,46.34186233333334,48.0,79.0
130,46.010980333333336,46.55325916666667,67.0,79.0
131,46.010980333333336,46.66906786666667,64.0,76.0
132,46.010980333333336,46.68377373333334,60.0,74.0
133,46.452156333333335,46.78303833333334,48.0,97.0
134,46.89333233333333,47.44112586666667,67.0,83.0
135,46.89333233333333,47.55877280000001,64.0,86.0
136,46.89333233333333,47.57899336666667,60.0,83.0
137,47.77568433333334,48.038551700000006,60.0,86.0
138,47.77568433333334,48.093698700000004,67.0,87.0
139,47.77568433333334,48.10840456666667,64.0,85.0
140,46.89333233333333,48.32715433333334,48.0,97.0
141,48.658036333333335,49.687447000000006,67.0,84.0
142,48.658036333333335,49.871270333333335,43.0,75.0
143,48.658036333333335,50.11943183333334,59.0,78.0
144,49.98156433333334,50.312446333333334,43.0,97.0
145,49.98156433333334,50.45582853333334,62.0,78.0
146,50.42274033333334,51.28854823333334,67.0,87.0
147,49.099212333333334,51.74626833333334,50.0,61.0
148,51.305092333333334,51.75913596666667,62.0,86.0
149,50.42274033333334,51.96685633333334,43.0,97.0
150,49.54038833333334,52.19479726666667,55.0,79.0
151,51.74626833333334,52.20031196666667,67.0,89.0
152,52.18744433333334,52.5716351,57.0,76.0
153,52.18744433333334,53.034869900000004,60.0,79.0
154,52.18744433333334,53.466854733333335,45.0,73.0
155,52.62862033333334,53.5311929,52.0,71.0
156,53.510972333333335,53.95214833333334,45.0,63.0
157,53.069796333333336,53.977883600000006,57.0,80.0
158,53.510972333333335,53.99810416666667,60.0,80.0
159,53.95214833333334,54.38780963333334,62.0,86.0
160,53.95214833333334,55.48707316666667,50.0,72.0
161,54.83450033333334,55.69847000000001,62.0,83.0
162,54.39332433333334,55.75177876666667,57.0,67.0
163,55.27567633333334,55.76280816666667,64.0,72.0
164,55.716852333333335,56.709498333333336,50.0,80.0
165,56.59920433333334,57.26832126666667,74.0,93.0
166,57.04038033333334,57.37126233333334,50.0,97.0
167,55.716852333333335,57.540379800000004,65.0,83.0
168,57.04038033333334,58.36023186666667,62.0,79.0
169,57.48155633333334,58.362070100000004,69.0,89.0
170,56.158028333333334,58.363908333333335,57.0,68.0
171,57.48155633333334,58.58449633333334,50.0,97.0
172,58.363908333333335,58.71684913333334,69.0,86.0
173,58.363908333333335,58.744422633333336,65.0,87.0
174,58.363908333333335,58.94479006666667,62.0,87.0
175,59.24626033333334,59.744421566666674,67.0,76.0
176,59.24626033333334,59.744421566666674,67.0,84.0
177,59.24626033333334,60.349200333333336,43.0,78.0
178,59.24626033333334,60.83081746666667,59.0,76.0
179,60.569788333333335,60.90067033333334,43.0,97.0
180,60.569788333333335,61.0587584,62.0,80.0
181,61.01096433333334,61.89883103333334,67.0,86.0
182,61.01096433333334,62.22419833333334,43.0,97.0
183,59.68743633333334,62.30691883333334,50.0,70.0
184,61.89331633333334,62.340007033333336,62.0,83.0
185,62.33449233333334,62.75728600000001,67.0,82.0
186,60.128612333333336,62.78669773333334,55.0,71.0
187,62.775668333333336,63.637799766666674,64.0,82.0
188,62.775668333333336,63.7058144,60.0,81.0
189,62.775668333333336,64.05875520000001,45.0,71.0
190,63.21684433333334,64.10103456666667,52.0,67.0
191,64.09919633333334,64.54037233333334,45.0,97.0
192,63.65802033333334,64.5991958,57.0,82.0
193,64.54037233333334,65.00912183333334,67.0,85.0
194,64.09919633333334,65.0127983,60.0,76.0
195,64.54037233333334,65.05507766666668,64.0,83.0
196,64.98154833333334,65.49441543333334,55.0,65.0
197,64.54037233333334,65.85654740000001,48.0,77.0
198,65.42272433333333,66.06794423333334,60.0,88.0
199,65.86390033333333,66.33816453333334,55.0,74.0
200,66.30507633333333,66.76463466666667,62.0,79.0
201,66.30507633333333,67.1911048,65.0,85.0
202,66.30507633333333,67.51831033333333,50.0,77.0
203,67.62860433333334,67.86205996666668,74.0,65.0
204,67.62860433333334,68.06978033333334,50.0,97.0
205,67.18742833333334,68.67272086666667,62.0,86.0
206,66.74625233333335,68.7186767,57.0,67.0
207,68.06978033333334,68.72051493333333,69.0,87.0
208,68.06978033333334,69.06242633333333,50.0,97.0
209,68.95213233333334,69.55323463333333,65.0,86.0
210,68.95213233333334,69.5624258,62.0,83.0
211,68.95213233333334,69.56977873333334,69.0,80.0
212,69.83448433333334,70.78301273333334,67.0,88.0
213,69.83448433333334,71.04771833333334,43.0,78.0
214,69.83448433333334,71.15249763333334,59.0,85.0
215,71.15801233333333,71.59918833333334,43.0,97.0
216,71.59918833333334,72.22970236666667,62.0,86.0
217,71.15801233333333,72.48705503333333,67.0,91.0
218,70.27566033333333,72.77014296666667,50.0,64.0
219,72.48154033333334,73.00543683333333,59.0,82.0
220,71.59918833333334,73.03301033333334,43.0,97.0
221,70.71683633333333,73.36389233333334,55.0,80.0
222,72.92271633333334,73.4172011,62.0,87.0
223,73.36389233333334,73.83264183333334,60.0,84.0
224,73.36389233333334,74.57712633333334,48.0,69.0
225,74.24624433333334,74.72969970000001,65.0,87.0
226,74.68742033333334,75.01830233333334,48.0,97.0
227,74.68742033333334,75.13594926666667,67.0,87.0
228,74.02565633333334,75.48705183333334,60.0,83.0
229,75.56977233333333,75.65984576666668,72.0,86.0
230,75.12859633333333,75.68006633333334,48.0,97.0
231,75.12859633333333,76.04219830000001,64.0,81.0
232,75.79036033333334,76.047713,76.0,90.0
233,76.01094833333335,76.4502861,79.0,87.0
234,76.01094833333335,76.5054331,60.0,80.0
235,76.45212433333334,76.56241833333334,43.0,97.0
236,76.45212433333334,76.56241833333334,84.0,86.0
237,73.80506833333334,76.60102123333334,55.0,74.0
238,76.45212433333334,76.79955043333334,62.0,88.0
239,76.45212433333334,76.82160923333333,67.0,88.0
240,76.67271233333334,76.89330033333334,45.0,97.0
241,76.89330033333334,77.35469690000001,67.0,87.0
242,76.89330033333334,77.55506433333333,64.0,88.0
243,76.89330033333334,77.56977020000001,60.0,84.0
244,76.89330033333334,78.10653433333334,48.0,82.0
245,77.77565233333334,78.39881343333334,67.0,87.0
246,77.77565233333334,78.44293103333334,64.0,87.0
247,77.77565233333334,78.4521222,60.0,86.0
248,78.21682833333334,78.54771033333334,48.0,97.0
249,78.65800433333334,79.2738125,64.0,88.0
250,78.65800433333334,79.3234448,60.0,86.0
251,78.65800433333334,79.3234448,67.0,87.0
252,78.65800433333334,79.76094433333334,48.0,97.0
253,79.54035633333334,80.0955028,60.0,87.0
254,79.54035633333334,80.09917926666667,67.0,91.0
255,79.54035633333334,80.14145863333334,64.0,93.0
256,79.98153233333333,80.42270833333333,48.0,97.0
257,80.42270833333333,80.88410490000001,67.0,100.0
258,80.42270833333333,80.97417833333334,62.0,91.0
259,80.42270833333333,81.03116356666668,58.0,91.0
260,80.42270833333333,81.63594233333333,43.0,83.0
261,81.30506033333334,81.68741286666668,58.0,95.0
262,81.30506033333334,81.69108933333334,67.0,98.0
263,80.42270833333333,81.86755973333334,55.0,80.0
264,81.30506033333334,82.00726546666667,62.0,108.0
265,81.74623633333334,82.18741233333334,43.0,97.0
266,82.18741233333334,82.7370441,67.0,94.0
267,82.18741233333334,82.82711753333334,64.0,102.0
268,82.18741233333334,82.8363087,60.0,93.0
269,83.06976433333334,83.51829326666667,67.0,91.0
270,83.06976433333334,83.65983723333333,60.0,92.0
271,83.06976433333334,83.6690284,64.0,102.0
272,82.18741233333334,83.6855725,48.0,86.0
273,83.95211633333334,84.5679245,69.0,88.0
274,83.95211633333334,84.61388033333334,62.0,87.0
275,83.95211633333334,84.62674796666667,65.0,91.0
276,83.95211633333334,85.16535033333334,46.0,84.0
277,83.95211633333334,85.26461493333333,58.0,84.0
278,84.83446833333333,85.41535006666668,69.0,89.0
279,84.83446833333333,85.44660003333334,62.0,90.0
280,84.83446833333333,85.55689403333334,65.0,98.0
281,85.27564433333335,85.60652633333333,46.0,97.0
282,85.71682033333335,86.26829033333334,69.0,87.0
283,85.71682033333335,86.33446673333334,64.0,90.0
284,85.71682033333335,86.35468730000001,60.0,88.0
285,85.71682033333335,86.70946633333334,45.0,79.0
286,85.71682033333335,87.04586303333333,57.0,78.0
287,86.59917233333334,87.09549533333335,64.0,92.0
288,86.59917233333334,87.11571590000001,69.0,86.0
289,86.59917233333334,87.1598335,60.0,88.0
290,87.04034833333334,87.37123033333334,45.0,97.0
291,87.48152433333334,87.99990613333334,67.0,87.0
292,87.48152433333334,88.06792076666667,62.0,87.0
293,87.48152433333334,88.1469648,58.0,83.0
294,87.48152433333334,88.58446433333334,43.0,75.0
295,88.36387633333334,88.98519920000001,62.0,88.0
296,88.36387633333334,88.98703743333334,67.0,85.0
297,88.36387633333334,89.10100790000001,58.0,83.0
298,88.80505233333334,89.13593433333334,43.0,97.0
299,89.24622833333333,89.7903454,67.0,86.0
300,89.24622833333333,89.8510071,62.0,89.0
301,89.24622833333333,89.95762463333334,58.0,82.0
302,89.24622833333333,90.56975633333334,43.0,97.0
303,90.12858033333335,90.6230651,58.0,87.0
304,90.12858033333335,90.65799153333334,67.0,88.0
305,87.48152433333334,90.78666786666668,55.0,81.0
306,90.12858033333335,90.81424136666668,62.0,94.0
307,90.56975633333334,90.90063833333333,43.0,97.0
308,91.01093233333334,91.58446113333333,69.0,89.0
309,91.01093233333334,91.6432846,60.0,85.0
310,91.01093233333334,91.6432846,64.0,86.0
311,91.01093233333334,92.22416633333334,45.0,78.0
312,91.89328433333334,92.51828366666668,69.0,86.0
313,91.89328433333334,92.54585716666668,60.0,87.0
314,91.89328433333334,92.56056303333334,64.0,89.0
315,92.33446033333334,92.66534233333334,45.0,97.0
316,92.77563633333334,93.38960626666668,69.0,87.0
317,92.77563633333334,93.40798860000001,60.0,83.0
318,92.77563633333334,93.43188563333334,64.0,87.0
319,92.77563633333334,93.98887033333334,45.0,97.0
320,93.65798833333334,94.11203196666668,64.0,88.0
321,93.65798833333334,94.12122313333334,69.0,87.0
322,93.65798833333334,94.15614956666667,60.0,84.0
323,91.01093233333334,94.17269366666667,57.0,77.0
324,94.09916433333333,94.54034033333335,45.0,97.0
325,94.54034033333335,95.1616632,67.0,87.0
326,94.54034033333335,95.2223249,64.0,88.0
327,94.54034033333335,95.25908956666667,60.0,84.0
328,94.54034033333335,95.75357433333335,48.0,83.0
329,95.42269233333334,96.0054123,60.0,87.0
330,95.86386833333334,96.19475033333335,48.0,97.0
331,95.42269233333334,96.21129443333334,64.0,87.0
332,95.42269233333334,96.21129443333334,67.0,88.0
333,96.30504433333334,96.9263672,69.0,87.0
334,96.30504433333334,96.9815142,62.0,88.0
335,96.30504433333334,96.99070536666667,65.0,89.0
336,96.30504433333334,97.51827833333334,50.0,82.0
337,97.18739633333334,97.6212194,69.0,87.0
338,97.18739633333334,97.62305763333335,65.0,88.0
339,97.18739633333334,97.75357220000001,62.0,85.0
340,97.62857233333334,97.95945433333334,50.0,97.0
341,98.06974833333334,98.75357113333334,69.0,86.0
342,98.06974833333334,98.79401226666667,62.0,83.0
343,98.06974833333334,98.83077693333334,65.0,85.0
344,98.95210033333333,99.39511456666668,69.0,86.0
345,98.95210033333333,99.4686439,65.0,86.0
346,98.95210033333333,99.61386433333334,62.0,87.0
347,98.06974833333334,99.69107013333334,50.0,82.0
348,99.83445233333335,100.45761343333334,67.0,87.0
349,99.83445233333335,100.52011336666668,62.0,89.0
350,99.83445233333335,100.52195160000001,59.0,86.0
351,99.83445233333335,101.04768633333335,43.0,78.0
352,100.71680433333334,101.30320076666668,67.0,87.0
353,100.71680433333334,101.30687723333334,59.0,86.0
354,99.83445233333335,101.37856833333335,55.0,81.0
355,100.71680433333334,101.41900946666668,62.0,89.0
356,101.15798033333334,101.59915633333334,43.0,97.0
357,101.59915633333334,102.24069976666668,67.0,91.0
358,101.59915633333334,102.34364083333334,60.0,89.0
359,101.59915633333334,102.34731730000001,64.0,94.0
360,101.59915633333334,102.92268433333334,48.0,84.0
361,102.48150833333334,103.15613996666667,67.0,88.0
362,102.48150833333334,103.2076105,60.0,89.0
363,102.48150833333334,103.21680166666667,64.0,90.0
364,102.92268433333334,103.25356633333334,48.0,97.0
365,103.36386033333334,103.97599203333334,67.0,89.0
366,103.36386033333334,104.04952136666668,60.0,89.0
367,103.36386033333334,104.06606546666667,64.0,93.0
368,104.24621233333335,104.65613836666668,67.0,88.0
369,104.24621233333335,104.68371186666667,64.0,91.0
370,104.24621233333335,104.68555010000001,60.0,88.0
371,103.36386033333334,104.90797633333334,48.0,97.0
372,105.12856433333334,105.70944606666667,67.0,92.0
373,105.12856433333334,105.84363710000001,60.0,88.0
374,105.12856433333334,105.87488706666667,64.0,92.0
375,105.12856433333334,106.34179833333334,48.0,86.0
376,106.01091633333334,106.60650393333334,67.0,87.0
377,106.01091633333334,106.71128323333335,60.0,88.0
378,106.01091633333334,106.74988613333335,64.0,88.0
379,106.45209233333334,106.89326833333334,48.0,97.0
380,106.89326833333334,107.4925324,67.0,88.0
381,106.89326833333334,107.62856166666667,60.0,88.0
382,106.89326833333334,107.6579734,64.0,89.0
383,106.89326833333334,108.10650233333334,48.0,97.0
384,107.77562033333334,108.22966396666668,64.0,88.0
385,107.77562033333334,108.24804630000001,67.0,85.0
386,107.77562033333334,108.2921639,60.0,87.0
387,108.65797233333335,109.23517760000001,67.0,87.0
388,108.65797233333335,109.29951576666667,62.0,87.0
389,108.65797233333335,109.33628043333334,58.0,84.0
390,108.65797233333335,109.87120633333335,43.0,83.0
391,109.54032433333334,110.1120149,67.0,89.0
392,109.54032433333334,110.12120606666667,58.0,84.0
393,109.54032433333334,110.16716190000001,62.0,88.0
394,108.65797233333335,110.22782360000001,55.0,81.0
395,109.98150033333334,110.42267633333334,43.0,97.0
396,110.42267633333334,111.05686683333334,67.0,86.0
397,110.42267633333334,111.18554316666668,60.0,86.0
398,110.42267633333334,111.24436663333334,64.0,87.0
399,110.42267633333334,111.52561633333335,48.0,84.0
400,111.30502833333334,111.86017480000001,67.0,86.0
401,111.30502833333334,111.87120420000001,60.0,85.0
402,111.30502833333334,111.88774830000001,64.0,88.0
403,111.74620433333334,112.07708633333334,48.0,97.0
404,112.18738033333334,112.77010030000001,65.0,84.0
405,112.18738033333334,112.83260023333334,62.0,87.0
406,112.18738033333334,112.89693840000001,58.0,82.0
407,112.18738033333334,113.40061433333334,46.0,85.0
408,113.06973233333335,113.4704672,58.0,81.0
409,113.06973233333335,113.63039350000001,65.0,85.0
410,113.06973233333335,113.88223146666668,62.0,89.0
411,113.51090833333335,113.95208433333335,46.0,97.0
412,113.95208433333335,114.58995130000001,60.0,83.0
413,113.95208433333335,115.05502433333334,45.0,74.0
414,113.95208433333335,115.25171530000001,69.0,86.0
415,114.83443633333334,115.30318583333334,60.0,83.0
416,113.95208433333335,115.37120046666668,64.0,84.0
417,115.27561233333334,115.60649433333334,45.0,97.0
418,115.71678833333334,116.27193480000001,67.0,87.0
419,115.71678833333334,116.41715523333335,62.0,86.0
420,115.71678833333334,116.4428905,58.0,84.0
421,115.71678833333334,116.93002233333334,43.0,72.0
422,116.59914033333334,117.27009550000001,67.0,88.0
423,116.59914033333334,117.30869840000001,62.0,88.0
424,116.59914033333334,117.31788956666668,58.0,83.0
425,117.04031633333334,117.48149233333334,43.0,97.0
426,117.48149233333334,118.09546226666667,67.0,86.0
427,117.48149233333334,118.10465343333334,62.0,87.0
428,117.48149233333334,118.17634453333335,58.0,80.0
429,118.36384433333335,118.93002020000002,67.0,88.0
430,118.36384433333335,118.93553490000001,58.0,85.0
431,115.71678833333334,119.02193186666668,55.0,44.0
432,118.36384433333335,119.04031420000001,62.0,88.0
433,117.48149233333334,119.13590233333335,43.0,97.0
434,119.24619633333334,120.56972433333334,45.0,88.0
435,120.12854833333334,120.73332710000001,69.0,88.0
436,120.12854833333334,120.80134173333335,60.0,88.0
437,120.12854833333334,120.81972406666668,64.0,98.0
438,120.56972433333334,121.01090033333334,45.0,97.0
439,121.01090033333334,121.57339973333335,69.0,87.0
440,121.01090033333334,121.57707620000001,60.0,84.0
441,121.01090033333334,121.58994383333334,64.0,89.0
442,121.89325233333334,122.4980311,60.0,87.0
443,121.89325233333334,122.51089873333335,69.0,88.0
444,121.89325233333334,122.54950163333335,64.0,90.0
445,119.68737233333334,122.57156043333335,57.0,77.0
446,121.01090033333334,122.66531033333334,45.0,97.0
447,122.77560433333335,123.3583243,67.0,87.0
448,122.77560433333335,123.56788290000001,60.0,86.0
449,122.77560433333335,123.57523583333334,64.0,89.0
450,122.77560433333335,123.98883833333335,48.0,73.0
451,123.65795633333335,124.33810266666667,60.0,85.0
452,124.09913233333334,124.43001433333335,48.0,97.0
453,123.65795633333335,124.49067603333334,67.0,87.0
454,123.65795633333335,124.50722013333335,64.0,87.0
455,124.54030833333334,125.26273403333334,62.0,88.0
456,124.54030833333334,125.2664105,65.0,88.0
457,124.54030833333334,125.29030753333335,69.0,87.0
458,124.54030833333334,125.75354233333334,50.0,82.0
459,125.42266033333334,125.90979216666668,69.0,83.0
460,125.42266033333334,125.91346863333334,65.0,87.0
461,125.42266033333334,126.15795366666667,62.0,85.0
462,125.86383633333334,126.30501233333334,50.0,97.0
463,126.30501233333334,126.95758516666668,69.0,86.0
464,126.30501233333334,127.01457040000001,62.0,86.0
465,126.30501233333334,127.04030566666668,65.0,88.0
466,126.30501233333334,127.51824633333334,50.0,83.0
467,127.18736433333335,127.76456960000002,69.0,85.0
468,127.18736433333335,127.830746,62.0,82.0
469,127.18736433333335,127.84729010000001,65.0,84.0
470,127.62854033333335,127.95942233333334,50.0,97.0
471,128.06971633333333,128.61199516666667,69.0,83.0
472,128.06971633333333,128.62670103333335,62.0,83.0
473,128.06971633333333,128.6616274666667,65.0,83.0
474,128.06971633333333,128.95206833333333,50.0,97.0
475,128.95206833333333,129.4134649,69.0,82.0
476,128.95206833333333,129.46493543333335,62.0,85.0
477,128.95206833333333,129.58625883333335,65.0,83.0
478,129.39324433333334,129.61383233333333,50.0,97.0
479,129.61383233333333,129.83442033333336,53.0,97.0
480,129.83442033333336,130.3564786,67.0,88.0
481,129.83442033333336,130.45206673333334,58.0,86.0
482,129.83442033333336,130.4594196666667,62.0,88.0
483,129.83442033333336,131.15794833333334,43.0,80.0
484,130.71677233333335,131.34544813333335,67.0,88.0
485,130.71677233333335,131.4097863,62.0,92.0
486,130.71677233333335,131.43552156666667,58.0,87.0
487,131.15794833333334,131.59912433333335,43.0,97.0
488,131.59912433333335,132.0825797,67.0,87.0
489,131.59912433333335,132.22228543333335,62.0,91.0
490,131.59912433333335,132.2406677666667,58.0,85.0
491,132.48147633333335,133.00721106666668,58.0,88.0
492,129.83442033333336,133.014564,55.0,82.0
493,132.48147633333335,133.0623580666667,62.0,96.0
494,132.48147633333335,133.0623580666667,67.0,93.0
495,131.59912433333335,133.14324033333335,43.0,97.0
496,133.36382833333334,133.82522490000002,67.0,87.0
497,133.36382833333334,134.02559233333335,64.0,88.0
498,133.36382833333334,134.04029820000002,60.0,84.0
499,133.36382833333334,134.46676833333333,48.0,82.0
500,134.24618033333334,134.86934143333335,67.0,87.0
501,134.24618033333334,134.91345903333334,64.0,87.0
502,134.24618033333334,134.92265020000002,60.0,86.0
503,134.68735633333335,135.12853233333334,48.0,97.0
504,135.12853233333334,135.74434050000002,64.0,88.0
505,135.12853233333334,135.7939728,60.0,86.0
506,135.12853233333334,135.7939728,67.0,87.0
507,136.01088433333334,136.56603080000002,60.0,87.0
508,136.01088433333334,136.56970726666668,67.0,91.0
509,136.01088433333334,136.61198663333334,64.0,93.0
510,135.12853233333334,136.89323633333333,48.0,97.0
511,136.89323633333333,137.3546329,67.0,100.0
512,136.89323633333333,137.44470633333336,62.0,91.0
513,136.89323633333333,137.50169156666666,58.0,91.0
514,136.89323633333333,138.10647033333333,43.0,83.0
515,137.77558833333333,138.15794086666668,58.0,95.0
516,137.77558833333333,138.16161733333334,67.0,98.0
517,136.89323633333333,138.33808773333334,55.0,80.0
518,137.77558833333333,138.47779346666667,62.0,108.0
519,138.21676433333334,138.54764633333335,43.0,97.0
520,138.65794033333336,139.20757210000002,67.0,94.0
521,138.65794033333336,139.29764553333334,64.0,102.0
522,138.65794033333336,139.30683670000002,60.0,93.0
523,139.54029233333335,139.9888212666667,67.0,91.0
524,138.65794033333336,140.09176233333335,48.0,86.0
525,139.54029233333335,140.13036523333335,60.0,92.0
526,139.54029233333335,140.1395564,64.0,102.0
527,140.42264433333335,141.0384525,69.0,88.0
528,140.42264433333335,141.08440833333336,62.0,87.0
529,140.42264433333335,141.09727596666667,65.0,91.0
530,140.42264433333335,141.63587833333335,46.0,84.0
531,140.42264433333335,141.73514293333335,58.0,84.0
532,141.30499633333335,141.88587806666666,69.0,89.0
533,141.30499633333335,141.91712803333334,62.0,90.0
534,141.30499633333335,142.02742203333335,65.0,98.0
535,141.74617233333333,142.07705433333334,46.0,97.0
536,142.18734833333335,142.73881833333334,69.0,87.0
537,142.18734833333335,142.80499473333333,64.0,90.0
538,142.18734833333335,142.82521530000002,60.0,88.0
539,142.18734833333335,143.51087633333336,45.0,79.0
540,142.18734833333335,143.51639103333335,57.0,78.0
541,143.06970033333334,143.56602333333333,64.0,92.0
542,143.06970033333334,143.5862439,69.0,86.0
543,143.06970033333334,143.63036150000002,60.0,88.0
544,143.51087633333336,143.84175833333333,45.0,97.0
545,143.95205233333334,144.47043413333336,67.0,87.0
546,143.95205233333334,144.53844876666668,62.0,87.0
547,143.95205233333334,144.6174928,58.0,83.0
548,143.95205233333334,145.16528633333334,43.0,75.0
549,144.83440433333334,145.4557272,62.0,88.0
550,144.83440433333334,145.45756543333334,67.0,85.0
551,144.83440433333334,145.57153590000001,58.0,83.0
552,145.27558033333335,145.60646233333335,43.0,97.0
553,145.71675633333334,146.2608734,67.0,86.0
554,145.71675633333334,146.3215351,62.0,89.0
555,145.71675633333334,146.42815263333335,58.0,82.0
556,146.59910833333333,147.09359310000002,58.0,87.0
557,146.59910833333333,147.12851953333333,67.0,88.0
558,143.95205233333334,147.25719586666668,55.0,81.0
559,145.71675633333334,147.26087233333334,43.0,97.0
560,146.59910833333333,147.28476936666667,62.0,94.0
561,147.48146033333333,148.05498913333335,69.0,89.0
562,147.48146033333333,148.11381260000002,60.0,85.0
563,147.48146033333333,148.11381260000002,64.0,86.0
564,147.48146033333333,148.80498833333334,45.0,78.0
565,148.36381233333336,148.9888116666667,69.0,86.0
566,148.36381233333336,149.01638516666668,60.0,87.0
567,148.36381233333336,149.03109103333335,64.0,89.0
568,148.80498833333334,149.24616433333335,45.0,97.0
569,149.24616433333335,149.86013426666668,69.0,87.0
570,149.24616433333335,149.8785166,60.0,83.0
571,149.24616433333335,149.90241363333334,64.0,87.0
572,150.12851633333335,150.58255996666668,64.0,88.0
573,150.12851633333335,150.59175113333333,69.0,87.0
574,150.12851633333335,150.62667756666667,60.0,84.0
575,147.48146033333333,150.64322166666668,57.0,77.0
576,149.24616433333335,151.01086833333335,45.0,97.0
577,151.01086833333335,151.63219120000002,67.0,87.0
578,151.01086833333335,151.69285290000002,64.0,88.0
579,151.01086833333335,151.7296175666667,60.0,84.0
580,151.01086833333335,152.33439633333336,48.0,83.0
581,151.89322033333335,152.47594030000002,60.0,87.0
582,152.33439633333336,152.66527833333333,48.0,97.0
583,151.89322033333335,152.68182243333334,64.0,87.0
584,151.89322033333335,152.68182243333334,67.0,88.0
585,152.77557233333334,153.39689520000002,69.0,87.0
586,152.77557233333334,153.45204220000002,62.0,88.0
587,152.77557233333334,153.46123336666668,65.0,89.0
588,153.65792433333334,154.0917474,69.0,87.0
589,153.65792433333334,154.09358563333333,65.0,88.0
590,152.77557233333334,154.09910033333335,50.0,82.0
591,153.65792433333334,154.2241002,62.0,85.0
592,154.54027633333334,155.22409913333334,69.0,86.0
593,154.54027633333334,155.26454026666667,62.0,83.0
594,154.54027633333334,155.30130493333334,65.0,85.0
595,154.54027633333334,155.75351033333334,50.0,82.0
596,155.42262833333334,155.86564256666668,69.0,86.0
597,155.42262833333334,155.93917190000002,65.0,86.0
598,155.42262833333334,156.08439233333334,62.0,87.0
599,155.86380433333335,156.30498033333333,50.0,97.0
600,156.30498033333333,156.92814143333334,67.0,87.0
601,156.30498033333333,156.99064136666667,62.0,89.0
602,156.30498033333333,156.99247960000002,59.0,86.0
603,157.18733233333336,157.77372876666666,67.0,87.0
604,157.18733233333336,157.77740523333335,59.0,86.0
605,156.30498033333333,157.84541986666667,43.0,78.0
606,156.30498033333333,157.84909633333334,55.0,81.0
607,157.18733233333336,157.88953746666667,62.0,89.0
608,158.06968433333336,158.71122776666667,67.0,91.0
609,158.06968433333336,158.81416883333335,60.0,89.0
610,158.06968433333336,158.81784530000002,64.0,94.0
611,158.06968433333336,159.39321233333334,48.0,84.0
612,158.95203633333335,159.62666796666667,67.0,88.0
613,158.95203633333335,159.67813850000002,60.0,89.0
614,158.95203633333335,159.68732966666667,64.0,90.0
615,159.39321233333334,159.83438833333335,48.0,97.0
616,159.83438833333335,160.44652003333334,67.0,89.0
617,159.83438833333335,160.52004936666668,60.0,89.0
618,159.83438833333335,160.5365934666667,64.0,93.0
619,159.83438833333335,161.37850433333335,48.0,97.0
620,161.59909233333335,162.59173833333335,43.0,75.0
621,161.59909233333335,162.62850300000002,67.0,84.0
622,161.59909233333335,163.06048783333335,59.0,78.0
623,162.92262033333336,163.36379633333334,43.0,97.0
624,162.92262033333336,163.39688453333335,62.0,78.0
625,163.36379633333334,164.22960423333333,67.0,87.0
626,162.04026833333336,164.68732433333335,50.0,61.0
627,164.24614833333334,164.70019196666667,62.0,86.0
628,163.36379633333334,165.01820633333335,43.0,97.0
629,162.48144433333334,165.1358532666667,55.0,79.0
630,164.68732433333335,165.14136796666668,67.0,89.0
631,165.12850033333333,165.5126911,57.0,76.0
632,165.12850033333333,165.97592590000002,60.0,79.0
633,165.12850033333333,166.40791073333335,45.0,73.0
634,165.56967633333335,166.4722489,52.0,71.0
635,166.45202833333335,166.89320433333336,45.0,97.0
636,166.01085233333333,166.91893960000002,57.0,80.0
637,166.45202833333335,166.93916016666668,60.0,80.0
638,166.89320433333336,167.32886563333335,62.0,86.0
639,166.89320433333336,168.42812916666668,50.0,72.0
640,167.77555633333336,168.63952600000002,62.0,83.0
641,167.33438033333334,168.6928347666667,57.0,67.0
642,168.21673233333334,168.70386416666668,64.0,72.0
643,168.65790833333335,169.98143633333333,50.0,80.0
644,169.54026033333335,170.20937726666668,74.0,93.0
645,169.98143633333333,170.42261233333335,50.0,97.0
646,168.65790833333335,170.4814358,65.0,83.0
647,169.98143633333333,171.30128786666668,62.0,79.0
648,170.42261233333335,171.30312610000001,69.0,89.0
649,169.09908433333334,171.30496433333334,57.0,68.0
650,171.30496433333334,171.65790513333334,69.0,86.0
651,171.30496433333334,171.68547863333333,65.0,87.0
652,171.30496433333334,171.8858460666667,62.0,87.0
653,170.42261233333335,172.29761033333335,50.0,97.0
654,172.18731633333334,172.6854775666667,67.0,76.0
655,172.18731633333334,172.6854775666667,67.0,84.0
656,172.18731633333334,173.29025633333336,43.0,78.0
657,172.18731633333334,173.77187346666668,59.0,76.0
658,173.51084433333335,173.95202033333334,43.0,97.0
659,173.51084433333335,173.99981440000002,62.0,80.0
660,173.95202033333334,174.83988703333335,67.0,86.0
661,172.62849233333336,175.24797483333336,50.0,70.0
662,174.83437233333333,175.28106303333334,62.0,83.0
663,173.95202033333334,175.49613633333334,43.0,97.0
664,175.27554833333335,175.69834200000003,67.0,82.0
665,173.06966833333334,175.72775373333334,55.0,71.0
666,175.71672433333336,176.5788557666667,64.0,82.0
667,175.71672433333336,176.6468704,60.0,81.0
668,175.71672433333336,176.9998112,45.0,71.0
669,176.15790033333334,177.04209056666667,52.0,67.0
670,177.04025233333334,177.48142833333335,45.0,97.0
671,176.59907633333336,177.54025180000002,57.0,82.0
672,177.48142833333335,177.95017783333336,67.0,85.0
673,177.04025233333334,177.95385430000002,60.0,76.0
674,177.48142833333335,177.99613366666668,64.0,83.0
675,177.92260433333334,178.43547143333333,55.0,65.0
676,177.48142833333335,178.7976034,48.0,77.0
677,178.36378033333335,179.00900023333335,60.0,88.0
678,178.80495633333334,179.27922053333336,55.0,74.0
679,179.24613233333335,179.70569066666667,62.0,79.0
680,179.24613233333335,180.1321608,65.0,85.0
681,179.24613233333335,180.56966033333336,50.0,77.0
682,180.56966033333336,180.80311596666667,74.0,65.0
683,180.56966033333336,181.01083633333334,50.0,97.0
684,180.12848433333335,181.61377686666668,62.0,86.0
685,179.68730833333333,181.6597327,57.0,67.0
686,181.01083633333334,181.66157093333334,69.0,87.0
687,181.89318833333334,182.49429063333335,65.0,86.0
688,181.89318833333334,182.5034818,62.0,83.0
689,181.89318833333334,182.51083473333335,69.0,80.0
690,181.01083633333334,182.55495233333335,50.0,97.0
691,182.77554033333334,183.72406873333335,67.0,88.0
692,182.77554033333334,183.87848033333336,43.0,78.0
693,182.77554033333334,184.09355363333336,59.0,85.0
694,184.09906833333335,184.42995033333335,43.0,97.0
695,184.54024433333333,185.1707583666667,62.0,86.0
696,184.09906833333335,185.42811103333335,67.0,91.0
697,183.21671633333335,185.71119896666667,50.0,64.0
698,185.42259633333336,185.94649283333334,59.0,82.0
699,184.54024433333333,186.19465433333335,43.0,97.0
700,183.65789233333334,186.30494833333336,55.0,80.0
701,185.86377233333334,186.3582571,62.0,87.0
702,186.30494833333336,186.77369783333336,60.0,84.0
703,187.18730033333335,187.6707557,65.0,87.0
704,187.62847633333334,188.07700526666667,67.0,87.0
705,188.06965233333335,188.26818153333335,62.0,78.0
706,186.96671233333333,188.42810783333334,60.0,83.0
707,188.51082833333334,188.60090176666668,72.0,86.0
708,188.06965233333335,188.98325430000003,64.0,81.0
709,188.73141633333336,188.98876900000002,76.0,90.0
710,188.95200433333335,189.3913421,79.0,87.0
711,188.95200433333335,189.4464891,60.0,80.0
712,189.39318033333333,189.50347433333334,84.0,86.0
713,186.74612433333334,189.54207723333334,55.0,74.0
714,186.30494833333336,189.55310663333336,48.0,69.0
715,189.39318033333333,189.74060643333334,62.0,88.0
716,189.39318033333333,189.76266523333334,67.0,88.0
717,189.83435633333335,190.29575290000002,67.0,87.0
718,189.83435633333335,190.49612033333335,64.0,88.0
719,189.83435633333335,190.51082620000003,60.0,84.0
720,189.83435633333335,191.04759033333335,48.0,82.0
721,190.71670833333334,191.33986943333335,67.0,87.0
722,190.71670833333334,191.38398703333334,64.0,87.0
723,190.71670833333334,191.39317820000002,60.0,86.0
724,191.15788433333336,191.59906033333334,48.0,97.0
725,191.59906033333334,192.21486850000002,64.0,88.0
726,191.59906033333334,192.2645008,60.0,86.0
727,191.59906033333334,192.2645008,67.0,87.0
728,192.48141233333334,193.03655880000002,60.0,87.0
729,192.48141233333334,193.04023526666668,67.0,91.0
730,192.48141233333334,193.08251463333335,64.0,93.0
731,191.59906033333334,193.25347033333335,48.0,97.0
732,193.36376433333334,193.82516090000001,67.0,100.0
733,193.36376433333334,193.91523433333336,62.0,91.0
734,193.36376433333334,193.9722195666667,58.0,91.0
735,193.36376433333334,194.57699833333334,43.0,83.0
736,194.24611633333336,194.62846886666668,58.0,95.0
737,194.24611633333336,194.63214533333334,67.0,98.0
738,193.36376433333334,194.80861573333334,55.0,80.0
739,194.24611633333336,194.94832146666667,62.0,108.0
740,194.68729233333335,195.01817433333335,43.0,97.0
741,195.12846833333336,195.67810010000002,67.0,94.0
742,195.12846833333336,195.76817353333334,64.0,102.0
743,195.12846833333336,195.77736470000002,60.0,93.0
744,196.01082033333336,196.4593492666667,67.0,91.0
745,196.01082033333336,196.60089323333335,60.0,92.0
746,196.01082033333336,196.6100844,64.0,102.0
747,195.12846833333336,196.6266285,48.0,86.0
748,196.89317233333335,197.5089805,69.0,88.0
749,196.89317233333335,197.55493633333336,62.0,87.0
750,196.89317233333335,197.56780396666667,65.0,91.0
751,196.89317233333335,198.20567093333335,58.0,84.0
752,196.89317233333335,198.26633263333335,46.0,84.0
753,197.99611233333334,198.26633263333335,46.0,97.0
754,197.77552433333335,198.3564060666667,69.0,89.0
755,197.77552433333335,198.38765603333334,62.0,90.0
756,197.77552433333335,198.49795003333335,65.0,98.0
757,198.65787633333335,199.20934633333334,69.0,87.0
758,198.65787633333335,199.27552273333336,64.0,90.0
759,198.65787633333335,199.29574330000003,60.0,88.0
760,198.65787633333335,199.98691903333335,57.0,78.0
761,199.54022833333335,200.03655133333334,64.0,92.0
762,199.54022833333335,200.0567719,69.0,86.0
763,198.65787633333335,200.07515423333334,45.0,79.0
764,199.54022833333335,200.10088950000002,60.0,88.0
765,200.42258033333334,200.94096213333336,67.0,87.0
766,200.42258033333334,201.00897676666668,62.0,87.0
767,200.42258033333334,201.0880208,58.0,83.0
768,200.42258033333334,201.63581433333334,43.0,75.0
769,201.30493233333334,201.9262552,62.0,88.0
770,201.30493233333334,201.92809343333334,67.0,85.0
771,201.30493233333334,202.04206390000002,58.0,83.0
772,201.74610833333335,202.07699033333336,43.0,97.0
773,202.18728433333334,202.7314014,67.0,86.0
774,202.18728433333334,202.7920631,62.0,89.0
775,202.18728433333334,202.89868063333336,58.0,82.0
776,203.06963633333334,203.56412110000002,58.0,87.0
777,203.06963633333334,203.59904753333336,67.0,88.0
778,200.42258033333334,203.72772386666668,55.0,81.0
779,203.06963633333334,203.7552973666667,62.0,94.0
780,202.18728433333334,203.95198833333336,43.0,97.0
781,203.95198833333336,204.52551713333335,69.0,89.0
782,203.95198833333336,204.58434060000002,60.0,85.0
783,203.95198833333336,204.58434060000002,64.0,86.0
784,203.95198833333336,205.16522233333336,45.0,78.0
785,204.83434033333336,205.4593396666667,69.0,86.0
786,204.83434033333336,205.48691316666668,60.0,87.0
787,204.83434033333336,205.50161903333336,64.0,89.0
788,205.27551633333334,205.60639833333335,45.0,97.0
789,205.71669233333336,206.33066226666668,69.0,87.0
790,205.71669233333336,206.3490446,60.0,83.0
791,205.71669233333336,206.37294163333334,64.0,87.0
792,206.59904433333335,207.05308796666668,64.0,88.0
793,206.59904433333335,207.06227913333336,69.0,87.0
794,206.59904433333335,207.09720556666667,60.0,84.0
795,203.95198833333336,207.11374966666668,57.0,77.0
796,205.71669233333336,207.37110233333334,45.0,97.0
797,207.48139633333335,208.10271920000002,67.0,87.0
798,207.48139633333335,208.16338090000002,64.0,88.0
799,207.48139633333335,208.2001455666667,60.0,84.0
800,208.36374833333335,208.94646830000002,60.0,87.0
801,208.36374833333335,209.15235043333334,64.0,87.0
802,208.36374833333335,209.15235043333334,67.0,88.0
803,207.48139633333335,209.26448266666668,48.0,83.0
804,209.24610033333335,209.86742320000002,69.0,87.0
805,209.24610033333335,209.92257020000002,62.0,88.0
806,209.24610033333335,209.93176136666668,65.0,89.0
807,209.24610033333335,210.34904033333336,50.0,82.0
808,210.12845233333334,210.5622754,69.0,87.0
809,210.12845233333334,210.56411363333336,65.0,88.0
810,210.12845233333334,210.6946282,62.0,85.0
811,210.56962833333336,210.90051033333336,50.0,97.0
812,211.01080433333334,211.69462713333334,69.0,86.0
813,211.01080433333334,211.73506826666667,62.0,83.0
814,211.01080433333334,211.77183293333334,65.0,85.0
815,211.89315633333334,212.33617056666668,69.0,86.0
816,211.89315633333334,212.40969990000002,65.0,86.0
817,211.89315633333334,212.55492033333334,62.0,87.0
818,211.01080433333334,212.63212613333334,50.0,82.0
819,212.77550833333336,213.39866943333334,67.0,87.0
820,212.77550833333336,213.4611693666667,62.0,89.0
821,212.77550833333336,213.46300760000003,59.0,86.0
822,213.65786033333336,214.2442567666667,67.0,87.0
823,213.65786033333336,214.24793323333336,59.0,86.0
824,212.77550833333336,214.31594786666668,43.0,78.0
825,212.77550833333336,214.31962433333334,55.0,81.0
826,213.65786033333336,214.3600654666667,62.0,89.0
827,214.54021233333336,215.1817557666667,67.0,91.0
828,214.54021233333336,215.28469683333336,60.0,89.0
829,214.54021233333336,215.28837330000002,64.0,94.0
830,214.54021233333336,215.86374033333334,48.0,84.0
831,215.42256433333336,216.09719596666667,67.0,88.0
832,215.42256433333336,216.14866650000002,60.0,89.0
833,215.42256433333336,216.15785766666667,64.0,90.0
834,215.86374033333334,216.30491633333335,48.0,97.0
835,216.30491633333335,216.91704803333334,67.0,89.0
836,216.30491633333335,216.99057736666668,60.0,89.0
837,216.30491633333335,217.0071214666667,64.0,93.0
838,217.18726833333335,217.59719436666668,67.0,88.0
839,217.18726833333335,217.62476786666667,64.0,91.0
840,217.18726833333335,217.6266061,60.0,88.0
841,216.30491633333335,217.84903233333335,48.0,97.0
842,218.06962033333335,218.6505020666667,67.0,92.0
843,218.06962033333335,218.78469310000003,60.0,88.0
844,218.06962033333335,218.81594306666668,64.0,92.0
845,218.06962033333335,219.28285433333335,48.0,86.0
846,218.95197233333334,219.54755993333336,67.0,87.0
847,218.95197233333334,219.65233923333335,60.0,88.0
848,218.95197233333334,219.69094213333335,64.0,88.0
849,219.39314833333336,219.72403033333336,48.0,97.0
850,219.83432433333334,220.43358840000002,67.0,88.0
851,219.83432433333334,220.5696176666667,60.0,88.0
852,219.83432433333334,220.5990294,64.0,89.0
853,220.71667633333334,221.1707199666667,64.0,88.0
854,220.71667633333334,221.18910230000003,67.0,85.0
855,220.71667633333334,221.23321990000002,60.0,87.0
856,219.83432433333334,221.37844033333334,48.0,97.0
857,221.59902833333334,222.17623360000002,67.0,87.0
858,221.59902833333334,222.24057176666668,62.0,87.0
859,221.59902833333334,222.27733643333335,58.0,84.0
860,222.48138033333336,223.05307090000002,67.0,89.0
861,222.48138033333336,223.06226206666668,58.0,84.0
862,222.48138033333336,223.10821790000003,62.0,88.0
863,221.59902833333334,223.1118943666667,43.0,83.0
864,221.59902833333334,223.16887960000003,55.0,81.0
865,223.36373233333336,223.99792283333335,67.0,86.0
866,223.36373233333336,224.1265991666667,60.0,86.0
867,223.36373233333336,224.18542263333336,64.0,87.0
868,223.36373233333336,224.68726033333334,48.0,84.0
869,224.24608433333336,224.8012308,67.0,86.0
870,224.24608433333336,224.81226020000003,60.0,85.0
871,224.24608433333336,224.82880430000003,64.0,88.0
872,225.12843633333335,225.71115630000003,65.0,84.0
873,225.12843633333335,225.77365623333336,62.0,87.0
874,225.12843633333335,225.8379944,58.0,82.0
875,225.12843633333335,226.34167033333335,46.0,85.0
876,226.01078833333335,226.4115232,58.0,81.0
877,226.01078833333335,226.57144950000003,65.0,85.0
878,226.01078833333335,226.82328746666667,62.0,89.0
879,226.45196433333334,226.89314033333335,46.0,97.0
880,226.89314033333335,227.53100730000003,60.0,83.0
881,226.89314033333335,228.1927713,69.0,86.0
882,227.77549233333335,228.24424183333335,60.0,83.0
883,226.89314033333335,228.3122564666667,64.0,84.0
884,226.89314033333335,228.61556496666668,45.0,74.0
885,228.65784433333334,229.21299080000003,67.0,87.0
886,228.65784433333334,229.35821123333335,62.0,86.0
887,228.65784433333334,229.3839465,58.0,84.0
888,228.65784433333334,229.87107833333334,43.0,72.0
889,229.54019633333334,230.21115150000003,67.0,88.0
890,229.54019633333334,230.24975440000003,62.0,88.0
891,229.54019633333334,230.25894556666668,58.0,83.0
892,229.98137233333335,230.42254833333334,43.0,97.0
893,230.42254833333334,231.0365182666667,67.0,86.0
894,230.42254833333334,231.04570943333334,62.0,87.0
895,230.42254833333334,231.11740053333335,58.0,80.0
896,231.30490033333336,231.8710762,67.0,88.0
897,231.30490033333336,231.87659090000002,58.0,85.0
898,228.65784433333334,231.96298786666668,55.0,44.0
899,231.30490033333336,231.98137020000001,62.0,88.0
900,230.42254833333334,232.07695833333335,43.0,97.0
901,232.18725233333336,233.29019233333335,45.0,88.0
902,233.06960433333336,233.67438310000003,69.0,88.0
903,233.06960433333336,233.74239773333335,60.0,88.0
904,233.06960433333336,233.76078006666668,64.0,98.0
905,233.51078033333334,233.95195633333336,45.0,97.0
906,233.95195633333336,234.51445573333336,69.0,87.0
907,233.95195633333336,234.51813220000003,60.0,84.0
908,233.95195633333336,234.53099983333334,64.0,89.0
909,234.83430833333335,235.43908710000002,60.0,87.0
910,234.83430833333335,235.45195473333334,69.0,88.0
911,234.83430833333335,235.49055763333334,64.0,90.0
912,232.62842833333335,235.51261643333336,57.0,77.0
913,233.95195633333336,235.71666033333335,45.0,97.0
914,235.71666033333335,236.29938030000002,67.0,87.0
915,235.71666033333335,236.5089389,60.0,86.0
916,235.71666033333335,236.51629183333336,64.0,89.0
917,235.71666033333335,236.92989433333335,48.0,73.0
918,236.59901233333335,237.2791586666667,60.0,85.0
919,237.04018833333336,237.37107033333336,48.0,97.0
920,236.59901233333335,237.43173203333336,67.0,87.0
921,236.59901233333335,237.44827613333334,64.0,87.0
922,237.48136433333335,238.20379003333335,62.0,88.0
923,237.48136433333335,238.2074665,65.0,88.0
924,237.48136433333335,238.23136353333337,69.0,87.0
925,238.36371633333334,238.85084816666668,69.0,83.0
926,238.36371633333334,238.85452463333334,65.0,87.0
927,238.36371633333334,239.0990096666667,62.0,85.0
928,237.48136433333335,239.26077420000001,50.0,82.0
929,239.24606833333334,239.26077420000001,50.0,83.0
930,239.24606833333334,239.8986411666667,69.0,86.0
931,239.24606833333334,239.95562640000003,62.0,86.0
932,239.24606833333334,239.9813616666667,65.0,88.0
933,240.12842033333334,240.70562560000002,69.0,85.0
934,240.12842033333334,240.771802,62.0,82.0
935,240.12842033333334,240.7883461,65.0,84.0
936,240.56959633333335,240.90047833333335,50.0,97.0
937,241.01077233333336,241.55305116666668,69.0,83.0
938,241.01077233333336,241.56775703333335,62.0,83.0
939,241.01077233333336,241.6026834666667,65.0,83.0
940,241.89312433333336,242.15231523333335,65.0,83.0
941,241.89312433333336,242.17437403333335,69.0,82.0
942,241.01077233333336,242.22400633333336,50.0,97.0
943,241.89312433333336,242.22400633333336,62.0,85.0
944,242.33430033333335,244.13760723333334,65.0,83.0
945,242.33430033333335,244.15966603333337,69.0,82.0
946,242.33430033333335,244.20929833333335,50.0,97.0
947,242.33430033333335,244.20929833333335,62.0,85.0
948,244.54018033333335,247.720324,55.0,82.0
949,244.54018033333335,247.77730923333334,43.0,80.0
