,start,end,pitch,velocity
0,9.646725625000002,9.853247075000002,63.0,73.0
1,9.864116625000001,10.032594650000002,68.0,79.0
2,10.081507625000002,10.358681150000002,71.0,67.0
3,10.298898625000001,10.873173183333336,70.0,86.0
4,10.951071625,11.614114175000001,66.0,89.0
5,11.603244625000002,12.030780258333335,63.0,79.0
6,12.038026625000002,12.737301008333334,68.0,67.0
7,12.472808625000003,12.829692183333336,63.0,89.0
8,12.907590625000003,14.699254783333336,63.0,88.0
9,16.603237625000002,16.797077933333338,63.0,72.0
10,16.820628625,17.05613554166667,68.0,60.0
11,17.038019625000004,17.313381558333337,71.0,72.0
12,17.255410625000003,17.83330836666667,70.0,99.0
13,17.907583625000004,18.43656839166667,66.0,90.0
14,18.559756625000002,19.481856783333335,63.0,92.0
15,19.429320625000003,20.99091264166667,68.0,86.0
16,23.559749625000002,23.81156086666667,63.0,69.0
17,23.777140625000005,23.98547366666667,68.0,56.0
18,23.994531625000004,24.293444250000004,71.0,66.0
19,24.211922625000003,24.978225900000005,70.0,96.0
20,24.864095625000004,25.51808021666667,75.0,97.0
21,25.516268625000006,26.005398375000006,70.0,86.0
22,25.951050625000004,26.77894801666667,68.0,75.0
23,26.603223625000005,27.092353375000005,73.0,97.0
24,27.255396625000003,27.755395925000006,68.0,92.0
25,27.690178625000005,28.65394539166667,66.0,82.0
26,29.211915625000003,29.434741400000004,63.0,90.0
27,29.429306625000006,29.89488568333334,64.0,76.0
28,29.864088625000004,30.163001250000004,66.0,66.0
29,30.081479625000004,31.597781850000004,68.0,86.0
30,32.472780625000006,33.14125795,63.0,79.0
31,33.342344625,35.40212435000001,63.0,82.0
32,37.47277362500001,37.679295075000006,63.0,73.0
33,37.69016462500001,37.85864265000001,68.0,79.0
34,37.90755562500001,38.18472915,71.0,67.0
35,38.12494662500001,38.69922118333334,70.0,86.0
36,38.777119625000005,39.440162175000005,66.0,89.0
37,39.42929262500001,39.85682825833334,63.0,79.0
38,39.86407462500001,40.56334900833334,68.0,67.0
39,40.298856625000006,40.65574018333334,63.0,89.0
40,40.733638625000005,42.52530278333334,63.0,88.0
41,44.429285625000006,44.62312593333334,63.0,72.0
42,44.646676625000005,44.88218354166667,68.0,60.0
43,44.864067625000004,45.13942955833334,71.0,72.0
44,45.08145862500001,45.65935636666667,70.0,99.0
45,45.73363162500001,46.262616391666675,66.0,90.0
46,46.385804625000006,47.03435444166667,70.0,92.0
47,47.25536862500001,48.56514940000001,68.0,97.0
48,51.38579762500001,51.637608866666675,63.0,69.0
49,51.60318862500001,51.81152166666668,68.0,56.0
50,51.82057962500001,52.11949225000001,71.0,66.0
51,52.03797062500001,52.804273900000005,70.0,96.0
52,52.69014362500001,53.344128216666675,75.0,97.0
53,53.34231662500001,53.831446375000006,70.0,86.0
54,53.77709862500001,54.12492422500001,68.0,75.0
55,54.211880625000006,54.39303979166667,66.0,93.0
56,54.429271625000005,54.728184250000005,68.0,90.0
57,54.86405362500001,55.25535742500001,71.0,96.0
58,55.51622662500001,56.479993391666675,66.0,82.0
59,57.03796362500001,57.26078940000001,63.0,90.0
60,57.25535462500001,57.72093368333334,64.0,76.0
61,57.69013662500001,57.98904925000001,66.0,66.0
62,57.90752762500001,59.42382985000001,68.0,86.0
63,60.51621962500001,60.69013242500001,63.0,78.0
64,60.73361062500001,60.83143657500001,67.0,76.0
65,60.95100162500001,61.047015983333345,67.0,70.0
66,61.16839262500001,61.25534902500001,67.0,72.0
67,61.38578362500001,61.66839192500001,68.0,127.0
68,61.82056562500001,62.05426095000001,70.0,122.0
69,62.25534762500001,62.40208655000001,68.0,90.0
70,62.47273862500001,62.849549691666674,75.0,100.0
71,62.90752062500001,63.25715781666668,73.0,102.0
72,63.34230262500001,63.65389639166668,71.0,96.0
73,63.77708462500001,64.06693929166667,73.0,117.0
74,64.21186662500001,64.54882267500001,75.0,122.0
75,64.64664862500001,64.98903945,68.0,95.0
76,65.08143062500001,65.36222733333334,75.0,112.0
77,65.51621262500001,65.80969047500001,68.0,99.0
78,65.950994625,66.20099427500001,75.0,127.0
79,66.385776625,66.49266053333335,76.0,96.0
80,66.60316762500001,66.91113820833334,76.0,95.0
81,67.25534062500002,67.48541276666668,76.0,88.0
82,67.47273162500001,67.75171674166668,75.0,85.0
83,67.69012262500001,67.9781657,73.0,100.0
84,68.12490462500001,68.45099112500002,66.0,99.0
85,68.55968662500001,68.78613558333335,73.0,117.0
86,68.99446862500001,69.28613488333335,66.0,102.0
87,69.42925062500001,69.78251100000001,73.0,122.0
88,69.86403262500001,69.98178608333335,75.0,112.0
89,70.08142362500001,70.41837967500001,75.0,112.0
90,70.733596625,70.89120510000001,75.0,117.0
91,70.95098762500001,71.15750907500001,73.0,107.0
92,71.16837862500002,71.38576962500001,71.0,100.0
93,71.60316062500002,71.94736304166668,64.0,99.0
94,72.03794262500001,72.27888431666668,71.0,122.0
95,72.47272462500001,72.79337635000002,64.0,100.0
96,72.90750662500001,73.21004243333334,73.0,127.0
97,73.34228862500001,73.47815800000001,71.0,92.0
98,73.55967962500002,73.95098342500002,70.0,96.0
99,73.99446162500001,74.21004103333334,71.0,102.0
100,74.64663462500002,74.74264898333334,70.0,122.0
101,74.86402562500001,74.96003998333335,70.0,95.0
102,75.08141662500002,75.18467735000002,70.0,112.0
103,75.29880762500001,75.55967682500001,68.0,102.0
104,75.73358962500001,75.99627041666668,70.0,117.0
105,76.168371625,76.31692214166668,63.0,99.0
106,76.38576262500001,76.47271902500002,70.0,112.0
107,76.60315362500002,76.69192161666668,70.0,96.0
108,76.82054462500001,76.929240125,70.0,102.0
109,77.03793562500002,77.23539911666668,71.0,100.0
110,77.47271762500002,77.64300724166668,73.0,127.0
111,78.124890625,78.20460065833335,75.0,122.0
112,78.34228162500001,78.41474529166668,75.0,82.0
113,78.55967262500002,78.64844061666668,75.0,102.0
114,78.77706362500001,78.85677365833334,75.0,107.0
115,78.99445462500002,79.18467175,75.0,107.0
116,79.42923662500002,79.70641015000001,68.0,107.0
117,79.86401862500001,80.03974301666668,75.0,127.0
118,80.29880062500001,80.40749612500001,76.0,95.0
119,80.51619162500002,80.71546670833335,76.0,96.0
120,81.16836462500001,81.35677015833335,76.0,102.0
121,81.38575562500002,81.58503070833335,75.0,95.0
122,81.60314662500001,81.83140717500001,73.0,100.0
123,82.037928625,82.14300094166668,73.0,127.0
124,82.25531962500001,82.45640630000001,73.0,112.0
125,82.69010162500001,83.16473864166667,78.0,112.0
126,83.34227462500002,83.70640455000002,76.0,112.0
127,83.77705662500001,84.00350558333335,75.0,100.0
128,84.21183862500001,84.64843221666668,73.0,112.0
129,84.64662062500001,84.99625781666668,75.0,99.0
130,85.08140262500001,85.42741663333335,71.0,97.0
131,85.51618462500001,85.77705382500001,70.0,100.0
132,85.73357562500001,85.97270572500001,71.0,86.0
133,86.16835762500001,86.57958893333334,64.0,97.0
134,87.47270362500001,87.55241365833335,64.0,96.0
135,87.69009462500001,87.85132628333335,64.0,89.0
136,87.907485625,88.10857230000002,68.0,100.0
137,88.12487662500001,88.32234011666668,71.0,82.0
138,88.34226762500002,88.570528175,73.0,99.0
139,88.55965862500001,88.86038284166668,70.0,112.0
140,88.99444062500001,89.14480273333335,70.0,112.0
141,89.21183162500002,89.52704857500001,68.0,97.0
142,89.64661362500001,91.56690079166668,67.0,96.0
143,108.77702162500002,108.98354307500001,63.0,73.0
144,108.99441262500002,109.16289065000002,68.0,79.0
145,109.21180362500002,109.48897715000001,71.0,67.0
146,109.42919462500002,110.00346918333335,70.0,86.0
147,110.08136762500001,110.74441017500001,66.0,89.0
148,110.73354062500002,111.16107625833335,63.0,79.0
149,111.16832262500002,111.86759700833335,68.0,67.0
150,111.60310462500001,111.95998818333335,63.0,89.0
151,112.03788662500001,113.82955078333335,63.0,88.0
152,115.73353362500002,115.92737393333336,63.0,72.0
153,115.95092462500001,116.18643154166668,68.0,60.0
154,116.16831562500002,116.44367755833335,71.0,72.0
155,116.38570662500001,116.96360436666669,70.0,99.0
156,117.03787962500002,117.56686439166668,66.0,90.0
157,117.69005262500002,118.33860244166668,70.0,92.0
158,118.55961662500002,119.86939740000003,68.0,97.0
159,122.69004562500002,122.94185686666668,63.0,69.0
160,122.90743662500002,123.11576966666668,68.0,56.0
161,123.12482762500002,123.42374025000002,71.0,66.0
162,123.34221862500002,124.10852190000001,70.0,96.0
163,123.99439162500002,124.64837621666669,75.0,97.0
164,124.64656462500002,125.13569437500001,70.0,86.0
165,125.08134662500002,125.42917222500002,68.0,75.0
166,125.51612862500002,125.69728779166668,66.0,93.0
167,125.73351962500001,126.03243225000001,68.0,90.0
168,126.16830162500003,126.55960542500002,71.0,96.0
169,126.82047462500002,127.78424139166668,66.0,82.0
170,128.34221162500003,128.56503740000002,63.0,90.0
171,128.55960262500003,129.02518168333336,64.0,76.0
172,128.994384625,129.29329725000002,66.0,66.0
173,129.21177562500003,130.72807785000003,68.0,86.0
174,131.82046762500002,131.99438042500003,63.0,78.0
175,132.037858625,132.13568457500003,67.0,76.0
176,132.25524962500003,132.35126398333335,67.0,70.0
177,132.47264062500003,132.55959702500002,67.0,72.0
178,132.69003162500002,132.972639925,68.0,127.0
179,133.12481362500003,133.35850895000002,70.0,122.0
180,133.55959562500001,133.70633455,68.0,90.0
181,133.77698662500003,134.15379769166668,75.0,100.0
182,134.21176862500002,134.56140581666668,73.0,102.0
183,134.64655062500003,134.95814439166668,71.0,96.0
184,135.08133262500002,135.3711872916667,73.0,117.0
185,135.51611462500003,135.85307067500003,75.0,122.0
186,135.950896625,136.29328745,68.0,95.0
187,136.38567862500003,136.66647533333335,75.0,112.0
188,136.820460625,137.11393847500003,68.0,99.0
189,137.25524262500002,137.50524227500003,75.0,127.0
190,137.69002462500004,137.79690853333335,76.0,96.0
191,137.90741562500003,138.21538620833334,76.0,95.0
192,138.55958862500003,138.78966076666669,76.0,88.0
193,138.77697962500002,139.05596474166668,75.0,85.0
194,138.99437062500002,139.28241370000003,73.0,100.0
195,139.42915262500003,139.75523912500003,66.0,99.0
196,139.863934625,140.09038358333336,73.0,117.0
197,140.29871662500003,140.59038288333335,66.0,102.0
198,140.733498625,141.08675900000003,73.0,122.0
199,141.16828062500002,141.28603408333336,75.0,112.0
200,141.38567162500001,141.722627675,75.0,112.0
201,142.03784462500002,142.1954531,75.0,117.0
202,142.255235625,142.461757075,73.0,107.0
203,142.47262662500003,142.69001762500002,71.0,100.0
204,142.90740862500002,143.25161104166668,64.0,99.0
205,143.34219062500003,143.58313231666668,71.0,122.0
206,143.776972625,144.09762435000002,64.0,100.0
207,144.21175462500003,144.51429043333334,73.0,127.0
208,144.646536625,144.782406,71.0,92.0
209,144.86392762500003,145.25523142500003,70.0,96.0
210,145.29870962500001,145.51428903333337,71.0,102.0
211,145.95088262500002,146.04689698333337,70.0,122.0
212,146.168273625,146.26428798333336,70.0,95.0
213,146.38566462500003,146.48892535000002,70.0,112.0
214,146.60305562500002,146.86392482500003,68.0,102.0
215,147.037837625,147.30051841666668,70.0,117.0
216,147.47261962500002,147.62117014166668,63.0,99.0
217,147.690010625,147.77696702500003,70.0,112.0
218,147.90740162500003,147.9961696166667,70.0,96.0
219,148.12479262500003,148.23348812500004,70.0,102.0
220,148.34218362500002,148.53964711666669,71.0,100.0
221,148.77696562500003,148.94725524166668,73.0,127.0
222,149.42913862500004,149.50884865833336,75.0,122.0
223,149.64652962500003,149.7189932916667,75.0,82.0
224,149.86392062500002,149.95268861666668,75.0,102.0
225,150.081311625,150.16102165833337,75.0,107.0
226,150.29870262500003,150.48891975000004,75.0,107.0
227,150.73348462500002,151.01065815,68.0,107.0
228,151.16826662500003,151.34399101666668,75.0,127.0
229,151.603048625,151.71174412500002,76.0,95.0
230,151.82043962500003,152.01971470833337,76.0,96.0
231,152.472612625,152.66101815833335,76.0,102.0
232,152.69000362500003,152.88927870833336,75.0,95.0
233,152.90739462500002,153.135655175,73.0,100.0
234,153.34217662500004,153.4472489416667,73.0,127.0
235,153.55956762500003,153.76065430000003,73.0,112.0
236,153.994349625,154.4689866416667,78.0,112.0
237,154.64652262500002,155.01065255000003,76.0,112.0
238,155.08130462500003,155.30775358333335,75.0,100.0
239,155.516086625,155.9526802166667,73.0,112.0
240,155.95086862500003,156.30050581666669,75.0,99.0
241,156.385650625,156.73166463333337,71.0,97.0
242,156.82043262500002,157.08130182500003,70.0,100.0
243,157.03782362500002,157.27695372500003,71.0,86.0
244,157.47260562500003,157.88383693333336,64.0,97.0
245,158.77695162500004,158.85666165833337,64.0,96.0
246,158.99434262500003,159.15557428333335,64.0,89.0
247,159.21173362500002,159.41282030000002,68.0,100.0
248,159.42912462500001,159.62658811666668,71.0,82.0
249,159.64651562500003,159.87477617500002,73.0,99.0
250,159.86390662500003,160.16463084166668,70.0,112.0
251,160.298688625,160.44905073333337,70.0,112.0
252,160.51607962500003,160.83129657500004,68.0,97.0
253,160.95086162500002,162.87114879166668,67.0,96.0
254,163.34216262500001,163.65194480000002,80.0,112.0
255,163.77694462500003,163.90013285833336,75.0,99.0
256,163.99433562500002,164.2515816416667,73.0,99.0
257,164.42911762500003,164.68998682500003,71.0,97.0
258,165.08129062500004,165.15194270000003,70.0,112.0
259,165.29868162500003,165.3602757416667,70.0,99.0
260,165.51607262500002,165.537811725,70.0,99.0
261,165.733463625,165.84578230833336,71.0,107.0
262,166.16824562500003,166.37839025833335,73.0,112.0
263,166.82041862500003,167.06498350000004,80.0,99.0
264,167.25520062500001,167.42911342500003,75.0,99.0
265,167.47259162500004,167.75338833333336,73.0,89.0
266,167.90737362500002,168.2135326166667,71.0,86.0
267,168.55954662500002,168.79686513333337,80.0,122.0
268,168.99432862500004,169.16099505833336,75.0,107.0
269,169.21171962500003,169.47258882500003,73.0,96.0
270,169.646501625,169.76787826666668,71.0,96.0
271,169.86389262500003,170.07584885000003,73.0,117.0
272,170.29867462500002,170.5178772166667,80.0,107.0
273,170.73345662500003,170.82584780000002,75.0,112.0
274,170.95084762500002,171.18997772500003,73.0,107.0
275,171.38562962500004,171.63925245833337,71.0,95.0
276,172.03780262500004,172.1102662916667,70.0,112.0
277,172.25519362500003,172.34215002500002,70.0,89.0
278,172.47258462500002,172.57584535000004,70.0,112.0
279,172.68997562500002,172.9309173166667,71.0,102.0
280,173.12475762500003,173.37294568333337,73.0,117.0
281,173.77693062500003,174.01243754166669,80.0,112.0
282,174.21171262500002,174.3330892666667,75.0,97.0
283,174.42910362500004,174.70627715000003,73.0,96.0
284,174.86388562500002,175.4635224666667,71.0,96.0
285,175.51605862500003,176.33670965000002,70.0,99.0
286,176.38562262500002,176.81859303333337,71.0,112.0
287,176.82040462500004,177.1102592916667,73.0,127.0
288,177.25518662500002,177.33851984166668,75.0,127.0
289,177.472577625,177.54866447500004,75.0,107.0
290,177.68996862500003,177.77149025000003,75.0,127.0
291,177.90735962500003,177.98344647500002,75.0,117.0
292,178.12475062500002,178.3656923166667,75.0,127.0
293,178.55953262500003,178.79322795000002,76.0,117.0
294,178.99431462500002,179.2841692916667,78.0,127.0
295,179.42909662500003,179.51967620833335,73.0,102.0
296,179.64648762500002,179.86025544166668,73.0,127.0
297,180.29866062500002,180.52329799166668,78.0,127.0
298,180.73344262500004,180.9635147666667,76.0,112.0
299,181.16822462500002,181.30952877500002,75.0,127.0
300,181.38561562500004,181.60662980833337,71.0,95.0
301,181.82039762500003,182.30228100833335,76.0,127.0
302,182.47257062500003,182.91097580833338,75.0,127.0
303,183.34213462500003,183.65191680000004,71.0,112.0
304,183.77691662500004,184.04140900833337,73.0,122.0
305,184.21169862500003,184.29322025000002,75.0,122.0
306,184.42908962500002,184.51604602500004,75.0,100.0
307,184.64648062500004,184.72619065833337,75.0,112.0
308,184.86387162500003,184.9417700666667,75.0,127.0
309,185.08126262500002,185.2569870166667,75.0,127.0
310,185.51604462500003,185.7352472166667,76.0,102.0
311,185.95082662500002,186.22256537500002,78.0,122.0
312,186.38560862500003,186.47618820833335,73.0,127.0
313,186.60299962500002,186.8439413166667,73.0,117.0
314,187.25517262500003,187.51966500833336,78.0,127.0
315,187.68995462500004,187.9526354166667,76.0,127.0
316,188.12473662500003,188.27691032500002,75.0,122.0
317,188.34212762500002,188.5993736416667,71.0,107.0
318,188.99430062500002,189.3602421416667,76.0,112.0
319,189.42908262500004,190.38379143333336,75.0,127.0
320,190.29864662500003,190.94357325833337,71.0,122.0
321,191.16821062500003,193.6700187166667,70.0,122.0
322,221.60295062500003,222.28592068333336,76.0,127.0
323,222.47251462500003,222.80947067500003,76.0,122.0
324,222.90729662500004,223.24968745000004,69.0,95.0
325,223.34207862500003,223.62287533333335,76.0,112.0
326,223.77686062500004,224.07033847500003,69.0,99.0
327,224.21164262500002,224.46164227500003,76.0,127.0
328,224.64642462500004,224.75330853333338,77.0,96.0
329,224.86381562500003,225.17178620833337,77.0,95.0
330,225.51598862500003,225.74606076666672,77.0,88.0
331,225.73337962500003,226.01236474166672,76.0,85.0
332,225.95077062500005,226.23881370000004,74.0,100.0
333,226.38555262500003,226.71163912500003,67.0,99.0
334,226.82033462500004,227.04678358333337,74.0,117.0
335,227.25511662500003,227.54678288333338,67.0,102.0
336,227.68989862500004,228.04315900000003,74.0,122.0
337,228.12468062500002,228.24243408333336,76.0,112.0
338,228.34207162500005,228.67902767500004,76.0,112.0
339,228.99424462500002,229.15185310000004,76.0,117.0
340,229.21163562500004,229.41815707500004,74.0,107.0
341,229.42902662500003,229.64641762500003,72.0,100.0
342,229.86380862500005,230.2080110416667,65.0,99.0
343,230.29859062500003,230.5395323166667,72.0,122.0
344,230.73337262500004,231.05402435000005,65.0,100.0
345,231.16815462500003,231.47069043333337,74.0,127.0
346,231.60293662500004,231.73880600000004,72.0,92.0
347,231.82032762500003,232.21163142500004,71.0,96.0
348,232.25510962500005,232.47068903333337,72.0,102.0
349,232.90728262500005,233.00329698333337,71.0,122.0
350,233.12467362500004,233.22068798333336,71.0,95.0
351,233.34206462500003,233.44532535000005,71.0,112.0
352,233.55945562500003,233.82032482500003,69.0,102.0
353,233.99423762500004,234.2569184166667,71.0,117.0
354,234.42901962500002,234.5775701416667,64.0,99.0
355,234.64641062500004,234.73336702500004,71.0,112.0
356,234.86380162500004,234.9525696166667,71.0,96.0
357,235.08119262500003,235.18988812500004,71.0,102.0
358,235.29858362500005,235.49604711666672,72.0,100.0
359,235.73336562500003,235.9036552416667,74.0,127.0
360,236.38553862500004,236.46524865833337,76.0,122.0
361,236.60292962500003,236.6753932916667,76.0,82.0
362,236.82032062500005,236.9090886166667,76.0,102.0
363,237.03771162500004,237.11742165833337,76.0,107.0
364,237.25510262500003,237.44531975000004,76.0,107.0
365,237.68988462500005,237.96705815000004,69.0,107.0
366,238.12466662500003,238.3003910166667,76.0,127.0
367,238.55944862500004,238.66814412500003,77.0,95.0
368,238.77683962500004,238.97611470833337,77.0,96.0
369,239.42901262500004,239.61741815833338,77.0,102.0
370,239.64640362500003,239.84567870833337,76.0,95.0
371,239.86379462500003,240.09205517500004,74.0,100.0
372,240.29857662500004,240.40364894166672,74.0,127.0
373,240.51596762500003,240.71705430000003,74.0,112.0
374,240.95074962500004,241.4253866416667,79.0,112.0
375,241.60292262500005,241.96705255000003,77.0,112.0
376,242.03770462500003,242.26415358333338,76.0,100.0
377,242.47248662500004,242.9090802166667,74.0,112.0
378,242.90726862500003,243.25690581666672,76.0,99.0
379,243.34205062500004,243.68806463333337,72.0,97.0
380,243.77683262500003,244.03770182500003,71.0,100.0
381,243.99422362500005,244.23335372500003,72.0,86.0
382,244.42900562500003,244.84023693333336,65.0,97.0
383,245.73335162500004,245.8329891666667,65.0,112.0
384,245.95074262500003,246.1427713416667,65.0,107.0
385,246.16813362500002,246.3221189166667,69.0,127.0
386,246.38552462500004,246.60291562500004,72.0,122.0
387,246.60291562500004,246.8221182166667,74.0,117.0
388,246.82030662500003,247.20979883333337,71.0,127.0
389,247.25508862500004,247.42356665000003,71.0,127.0
390,247.47247962500003,247.78588498333337,69.0,112.0
391,247.90726162500005,250.32030172500004,68.0,112.0
392,253.55942762500004,255.49783070833337,72.0,90.0
393,255.51594662500003,257.3710164916667,69.0,81.0
