,start,end,pitch,velocity
0,2.0380406250000003,2.773546841666667,51.0,27.0
1,2.4728226250000005,2.784416391666667,56.0,59.0
2,1.6032586250000003,2.8858655250000003,44.0,72.0
3,2.4728226250000005,3.150357908333334,63.0,64.0
4,2.9076046250000003,3.8967336750000006,59.0,61.0
5,3.3423866250000005,4.215573808333334,40.0,65.0
6,3.7771686250000007,4.255428825000001,47.0,41.0
7,4.211950625000001,4.717384700000001,59.0,25.0
8,4.646732625,5.097818950000001,64.0,63.0
9,4.211950625000001,5.097818950000001,68.0,70.0
10,5.0815146250000005,8.559770625,39.0,64.0
11,5.516296625000001,8.559770625,46.0,28.0
12,5.951078625000001,8.559770625,51.0,40.0
13,6.385860625000001,8.559770625,55.0,58.0
14,5.951078625000001,8.559770625,58.0,66.0
15,6.820642625000001,8.559770625,63.0,56.0
16,9.429334625000001,9.938391883333335,56.0,56.0
17,8.994552625,9.943826658333334,51.0,34.0
18,8.559770625,9.969188941666669,44.0,64.0
19,9.864116625000001,10.431144816666668,59.0,56.0
20,10.733680625000002,11.271723350000002,54.0,63.0
21,10.298898625000001,11.52353459166667,42.0,69.0
22,11.603244625000002,12.02896866666667,54.0,56.0
23,11.168462625000002,12.04527299166667,61.0,74.0
24,13.342372625000001,14.112299083333335,59.0,60.0
25,13.777154625000001,14.556139041666668,68.0,58.0
26,12.038026625000002,14.748167758333336,40.0,67.0
27,13.777154625000001,14.760848900000003,64.0,43.0
28,12.472808625000003,14.786211183333336,47.0,55.0
29,12.907590625000003,15.016283325000002,52.0,57.0
30,15.081500625000002,15.567007191666669,64.0,49.0
31,14.646718625000002,15.639470858333336,68.0,63.0
32,15.951064625000003,16.81700544166667,51.0,39.0
33,16.385846625000003,16.835121358333335,56.0,43.0
34,15.516282625000002,16.905773433333337,44.0,53.0
35,16.385846625000003,17.309758375,63.0,63.0
36,16.820628625,17.340555433333336,59.0,51.0
37,17.690192625,18.21917739166667,54.0,56.0
38,17.255410625000003,18.538017525000004,42.0,60.0
39,18.124974625000004,18.983669075,61.0,72.0
40,18.559756625000002,18.99635021666667,54.0,61.0
41,20.298884625000003,20.82243461666667,59.0,50.0
42,19.864102625000005,21.02895606666667,52.0,59.0
43,20.733666625,21.307941183333337,64.0,68.0
44,18.994538625000004,21.666636333333336,40.0,69.0
45,19.429320625000003,21.695621800000005,47.0,42.0
46,21.168448625000003,21.88221574166667,52.0,61.0
47,22.038012625000004,22.472794625000002,59.0,65.0
48,21.603230625000002,22.472794625000002,64.0,70.0
49,20.733666625,22.472794625000002,68.0,61.0
50,22.907576625000004,23.86047384166667,51.0,35.0
51,23.342358625000003,23.885836125000004,56.0,54.0
52,22.472794625000002,24.112285083333337,44.0,67.0
53,23.342358625000003,24.226415358333337,63.0,58.0
54,23.777140625000005,24.259024008333338,59.0,66.0
55,24.211922625000003,25.259022608333336,42.0,66.0
56,24.646704625000005,25.62134094166667,54.0,58.0
57,25.516268625000006,25.885833325000004,58.0,57.0
58,25.081486625000004,25.88764491666667,61.0,79.0
59,25.951050625000004,27.51264264166667,40.0,63.0
60,26.385832625000003,27.51264264166667,47.0,36.0
61,26.820614625000005,27.605033816666673,52.0,60.0
62,27.255396625000003,27.65575838333334,59.0,75.0
63,27.472787625000006,27.663004750000006,64.0,16.0
64,28.559742625000005,29.39850956666667,51.0,39.0
65,28.124960625000003,29.429306625000006,46.0,33.0
66,28.559742625000005,29.434741400000004,63.0,65.0
67,28.559742625000005,29.447422541666672,58.0,67.0
68,28.994524625000004,29.449234133333338,54.0,57.0
69,27.690178625000005,29.50720506666667,39.0,71.0
70,30.733652625000005,31.24089829166667,52.0,54.0
71,30.298870625000006,31.275318533333337,49.0,62.0
72,31.168434625000003,31.92024516666667,56.0,69.0
73,29.864088625000004,32.266259175,44.0,31.0
74,31.603216625000005,32.297056233333336,49.0,39.0
75,29.429306625000006,32.42567924166667,37.0,75.0
76,32.472780625000006,32.91843217500001,52.0,63.0
77,32.03799862500001,32.940171275000004,56.0,79.0
78,31.168434625000003,33.005388575000005,61.0,64.0
79,33.77712662500001,34.84415411666667,51.0,63.0
80,34.21190862500001,35.105023316666674,55.0,41.0
81,34.646690625000005,35.387631616666674,58.0,66.0
82,35.081472625,35.615892166666676,51.0,67.0
83,35.73364562500001,36.05248575833334,51.0,81.0
84,33.342344625,36.079659633333335,46.0,48.0
85,32.907562625000004,36.28980426666667,39.0,86.0
86,35.51625462500001,36.36407952500001,58.0,96.0
87,35.95103662500001,36.369514300000006,55.0,70.0
88,34.646690625000005,36.398499766666674,63.0,64.0
89,37.255382625,37.51444023333334,56.0,49.0
90,36.820600625000004,37.55791843333334,51.0,43.0
91,36.385818625000006,37.635816875,44.0,72.0
92,37.255382625,38.18110596666667,68.0,69.0
93,37.69016462500001,38.19016392500001,59.0,55.0
94,37.255382625,38.21009143333334,63.0,67.0
95,38.994510625000004,39.27349574166667,54.0,53.0
96,38.559728625000005,39.29704643333334,49.0,31.0
97,38.12494662500001,39.43835058333334,42.0,63.0
98,38.994510625000004,39.82421960833334,61.0,68.0
99,38.994510625000004,39.83508915833334,66.0,60.0
100,39.42929262500001,39.88400213333334,58.0,58.0
101,40.733638625000005,41.896680475000004,52.0,89.0
102,41.60320262500001,42.35138998333334,68.0,62.0
103,41.60320262500001,42.41298410000001,64.0,69.0
104,42.03798462500001,42.53979551666667,52.0,50.0
105,41.168420625,42.71008513333334,59.0,60.0
106,40.298856625000006,42.804287900000006,47.0,40.0
107,39.86407462500001,42.81334585833334,40.0,69.0
108,42.690157625000005,42.93472250000001,52.0,67.0
109,43.124939625,43.43834498333334,59.0,73.0
110,42.907548625000004,43.46008408333334,64.0,66.0
111,42.472766625000006,43.49088114166668,68.0,89.0
112,44.211894625000006,44.30066261666667,59.0,47.0
113,44.211894625000006,44.887618316666675,56.0,49.0
114,43.34233062500001,45.08145862500001,44.0,59.0
115,43.77711262500001,45.08145862500001,51.0,56.0
116,44.646676625000005,45.08145862500001,59.0,59.0
117,44.211894625000006,45.08145862500001,63.0,68.0
118,45.95102262500001,46.258993208333344,54.0,55.0
119,45.51624062500001,46.28435549166667,49.0,35.0
120,45.08145862500001,46.418413275000006,42.0,72.0
121,45.95102262500001,46.78978956666668,61.0,53.0
122,46.385804625000006,46.860441641666675,58.0,67.0
123,47.69015062500001,48.91840977500001,52.0,60.0
124,48.559714625000005,49.34594540833334,68.0,83.0
125,48.559714625000005,49.36406132500001,64.0,79.0
126,48.99449662500001,49.48362637500001,52.0,45.0
127,48.12493262500001,49.56514800000001,59.0,61.0
128,49.64666962500001,50.126741416666675,52.0,56.0
129,47.25536862500001,50.13761096666668,47.0,52.0
130,46.820586625000004,50.16659643333334,40.0,66.0
131,49.42927862500001,50.28434989166667,68.0,86.0
132,49.86406062500001,50.28978466666668,59.0,81.0
133,49.42927862500001,50.29159625833334,64.0,69.0
134,51.16840662500001,51.42384105000001,56.0,55.0
135,50.733624625000004,51.48362357500001,51.0,51.0
136,50.298842625000006,51.56514520000001,44.0,71.0
137,51.60318862500001,52.083260416666675,59.0,63.0
138,51.16840662500001,52.112245883333344,63.0,66.0
139,52.90753462500001,53.17927337500001,54.0,44.0
140,52.472752625000005,53.181084966666674,49.0,37.0
141,52.03797062500001,53.30427320000001,42.0,68.0
142,52.90753462500001,53.75173634166668,66.0,58.0
143,52.90753462500001,53.75535952500001,61.0,69.0
144,53.34231662500001,53.77709862500001,58.0,63.0
145,53.77709862500001,54.813329058333345,40.0,72.0
146,54.64666262500001,54.829633383333345,52.0,55.0
147,54.211880625000006,54.887604316666675,47.0,46.0
148,54.64666262500001,55.55427005000001,64.0,67.0
149,54.64666262500001,55.57238596666667,68.0,59.0
150,55.08144462500001,55.57419755833334,59.0,58.0
151,55.95100862500001,56.659340966666676,46.0,44.0
152,56.385790625000006,57.039775216666676,58.0,69.0
153,56.385790625000006,57.05789113333334,54.0,78.0
154,56.82057262500001,57.085065008333345,46.0,33.0
155,56.385790625000006,57.14122435000001,51.0,51.0
156,55.51622662500001,57.21912279166668,39.0,68.0
157,58.12491862500001,58.29158505833334,61.0,59.0
158,57.25535462500001,58.85136688333334,49.0,69.0
159,57.69013662500001,59.03977241666668,56.0,61.0
160,58.12491862500001,59.48180078333334,64.0,50.0
161,58.12491862500001,59.55245285833334,68.0,50.0
162,58.55970062500001,59.77527863333334,61.0,65.0
163,59.86404662500001,59.963684166666674,61.0,61.0
164,59.42926462500001,60.00535077500001,56.0,47.0
165,60.08143762500001,60.208249041666676,56.0,40.0
166,58.99448262500001,60.32600250000001,49.0,65.0
167,59.86404662500001,60.71005993333334,64.0,73.0
168,59.86404662500001,60.75353813333334,68.0,86.0
169,60.298828625000006,60.780712008333346,61.0,76.0
170,61.60317462500001,61.87672496666668,51.0,38.0
171,61.60317462500001,62.03614503333334,67.0,76.0
172,61.60317462500001,62.13397098333334,70.0,62.0
173,61.60317462500001,62.31150696666668,63.0,78.0
174,62.03795662500001,62.54701388333334,51.0,70.0
175,62.47273862500001,62.92744813333334,67.0,97.0
176,62.47273862500001,63.181070966666674,70.0,96.0
177,62.47273862500001,63.21549120833334,63.0,96.0
178,62.90752062500001,63.422012658333344,51.0,72.0
179,61.16839262500001,63.57056317500001,46.0,59.0
180,60.73361062500001,63.59049068333334,39.0,67.0
181,63.34230262500001,63.67020071666668,67.0,117.0
182,63.55969362500001,63.76621507500001,51.0,90.0
183,63.77708462500001,64.16114205833334,63.0,122.0
184,63.34230262500001,64.18469275000001,70.0,122.0
185,63.99447562500001,64.19737389166667,67.0,78.0
186,64.64664862500001,65.124908825,56.0,90.0
187,64.864039625,65.35135778333334,59.0,88.0
188,64.429257625,65.43650259166668,51.0,44.0
189,65.29882162500002,65.46548805833335,56.0,89.0
190,64.21186662500001,65.56331400833335,44.0,89.0
191,65.73360362500001,65.950994625,59.0,95.0
192,65.51621262500001,65.950994625,63.0,127.0
193,65.08143062500001,65.950994625,68.0,122.0
194,66.385776625,66.87309478333334,49.0,67.0
195,66.60316762500001,67.18287695833334,52.0,85.0
196,66.16838562500001,67.29881882500001,44.0,63.0
197,65.950994625,67.31149996666667,37.0,72.0
198,67.03794962500001,67.34410861666667,49.0,85.0
199,67.47273162500001,67.63758646666668,52.0,83.0
200,67.25534062500002,67.65570238333335,56.0,100.0
201,66.820558625,67.68287625833334,61.0,102.0
202,68.342295625,68.51620842500002,58.0,76.0
203,68.12490462500001,68.61403437500002,54.0,75.0
204,68.55968662500001,68.99990340000001,61.0,99.0
205,67.907513625,69.19374370833334,49.0,33.0
206,68.777077625,69.200990075,54.0,89.0
207,68.99446862500001,69.24990305000001,58.0,100.0
208,67.69012262500001,69.28794647500001,42.0,69.0
209,69.21185962500002,69.46367086666667,61.0,93.0
210,69.64664162500002,69.99627881666667,54.0,93.0
211,69.42925062500001,70.01258314166668,47.0,88.0
212,69.86403262500001,70.25714801666668,59.0,77.0
213,70.08142362500001,70.30787258333335,66.0,100.0
214,70.298814625,71.07236426666668,46.0,95.0
215,70.733596625,71.15026270833334,58.0,55.0
216,71.60316062500002,72.10134833333335,52.0,79.0
217,71.82055162500001,72.34047843333335,59.0,73.0
218,72.255333625,72.60497081666668,52.0,78.0
219,71.16837862500002,72.63757946666668,40.0,89.0
220,71.38576962500001,72.64482583333334,47.0,37.0
221,72.03794262500001,72.90931821666668,68.0,117.0
222,72.47272462500001,72.93468050000001,64.0,77.0
223,72.690115625,72.97272392500001,59.0,79.0
224,73.12489762500002,73.83504155833334,49.0,92.0
225,73.34228862500001,73.90025885833334,52.0,82.0
226,73.55967962500002,73.96366456666668,56.0,49.0
227,72.90750662500001,74.41837407500002,37.0,65.0
228,73.99446162500001,74.57417095833334,49.0,77.0
229,74.211852625,74.60677960833334,56.0,85.0
230,73.77707062500001,74.62489552500001,61.0,83.0
231,74.42924362500001,74.64663462500002,52.0,83.0
232,75.08141662500002,75.56148841666668,51.0,89.0
233,75.29880762500001,75.74808235833335,55.0,73.0
234,74.64663462500002,76.27163235000002,39.0,85.0
235,74.86402562500001,76.34228442500002,46.0,60.0
236,75.73358962500001,76.62308113333334,51.0,73.0
237,76.168371625,76.89300829166667,55.0,73.0
238,75.51619862500002,76.95097922500001,63.0,93.0
239,75.95098062500001,76.95279081666668,58.0,74.0
240,76.82054462500001,77.30605119166668,51.0,75.0
241,77.03793562500002,77.48902195000001,55.0,85.0
242,76.60315362500002,77.96184737500002,46.0,34.0
243,77.47271762500002,77.96184737500002,51.0,83.0
244,76.38576262500001,77.99264443333334,39.0,48.0
245,77.69010862500001,78.124890625,58.0,92.0
246,77.25532662500001,78.12670221666667,63.0,95.0
247,77.90749962500001,78.16655723333335,55.0,86.0
248,78.55967262500002,79.03793282500001,56.0,90.0
249,78.77706362500001,79.26438178333335,59.0,88.0
250,78.34228162500001,79.34952659166667,51.0,44.0
251,79.21184562500001,79.37851205833334,56.0,89.0
252,78.124890625,79.47633800833334,44.0,89.0
253,79.64662762500001,79.86401862500001,59.0,95.0
254,79.42923662500002,79.86401862500001,63.0,127.0
255,78.99445462500002,79.86401862500001,68.0,122.0
256,80.29880062500001,80.78611878333335,49.0,67.0
257,80.51619162500002,81.09590095833335,52.0,85.0
258,80.081409625,81.21184282500002,44.0,63.0
259,79.86401862500001,81.22452396666668,37.0,72.0
260,80.95097362500002,81.25713261666668,49.0,85.0
261,81.38575562500002,81.55061046666668,52.0,83.0
262,81.16836462500001,81.56872638333334,56.0,100.0
263,80.73358262500001,81.59590025833334,61.0,102.0
264,82.25531962500001,82.42923242500001,58.0,76.0
265,82.037928625,82.52705837500001,54.0,75.0
266,82.47271062500002,82.91292740000002,61.0,99.0
267,81.82053762500001,83.10676770833335,49.0,33.0
268,82.69010162500001,83.11401407500001,54.0,89.0
269,82.90749262500002,83.16292705000001,58.0,100.0
270,81.60314662500001,83.20097047500002,42.0,69.0
271,83.12488362500001,83.37669486666668,61.0,93.0
272,83.55966562500001,83.90930281666668,54.0,93.0
273,83.34227462500002,83.92560714166667,47.0,88.0
274,83.77705662500001,84.17017201666668,59.0,77.0
275,83.994447625,84.22089658333334,66.0,100.0
276,84.21183862500001,84.98538826666667,46.0,95.0
277,84.64662062500001,85.06328670833335,58.0,55.0
278,85.51618462500001,86.01437233333334,52.0,79.0
279,85.73357562500001,86.25350243333335,59.0,73.0
280,86.16835762500001,86.51799481666669,52.0,78.0
281,85.08140262500001,86.55060346666669,40.0,89.0
282,85.29879362500002,86.55784983333335,47.0,37.0
283,85.950966625,86.82234221666668,68.0,117.0
284,86.38574862500002,86.84770450000002,64.0,77.0
285,86.60313962500001,86.88574792500002,59.0,79.0
286,87.03792162500001,87.74806555833335,49.0,92.0
287,87.25531262500002,87.81328285833335,52.0,82.0
288,87.47270362500001,87.87668856666669,56.0,49.0
289,86.82053062500002,88.33139807500001,37.0,65.0
290,87.907485625,88.48719495833335,49.0,77.0
291,88.12487662500001,88.51980360833335,56.0,85.0
292,87.69009462500001,88.53791952500002,61.0,83.0
293,88.34226762500002,88.55965862500001,52.0,83.0
294,88.99444062500001,89.47451241666668,51.0,89.0
295,89.21183162500002,89.66110635833334,55.0,73.0
296,88.55965862500001,90.18465635000001,39.0,85.0
297,88.77704962500002,90.25530842500001,46.0,60.0
298,89.64661362500001,90.53610513333335,51.0,73.0
299,90.08139562500001,90.80603229166668,55.0,73.0
300,89.42922262500001,90.86400322500002,63.0,93.0
301,89.86400462500002,90.86581481666668,58.0,74.0
302,90.73356862500002,91.21907519166668,51.0,75.0
303,90.95095962500001,91.40204595000002,55.0,85.0
304,90.51617762500001,91.87487137500001,46.0,34.0
305,91.38574162500001,91.87487137500001,51.0,83.0
306,90.29878662500002,91.90566843333335,39.0,48.0
307,91.60313262500001,92.03791462500001,58.0,92.0
308,91.16835062500002,92.03972621666668,63.0,95.0
309,91.82052362500002,92.07958123333334,55.0,86.0
310,92.47269662500001,92.94371045833334,56.0,78.0
311,92.69008762500002,93.25711581666668,59.0,72.0
312,93.12486962500002,93.38392723333335,56.0,78.0
313,92.25530562500002,93.41653588333335,51.0,67.0
314,92.03791462500001,93.60675300833334,44.0,88.0
315,92.90747862500001,93.76617307500001,68.0,100.0
316,93.34226062500001,93.77160785000001,63.0,92.0
317,93.55965162500001,93.79153535833335,59.0,82.0
318,94.21182462500002,94.69914278333334,49.0,63.0
319,94.42921562500001,94.91472219166668,52.0,62.0
320,93.99443362500001,94.94189606666669,44.0,49.0
321,93.77704262500002,95.01073655000002,37.0,74.0
322,94.86399762500001,95.18283775833335,49.0,78.0
323,95.29877962500001,95.50892425833335,52.0,83.0
324,95.08138862500002,95.52341699166668,56.0,82.0
325,94.64660662500002,95.52885176666668,61.0,97.0
326,95.95095262500001,96.41109690833335,54.0,78.0
327,96.16834362500002,96.44914033333335,58.0,66.0
328,96.60312562500002,96.82232821666668,54.0,73.0
329,96.38573462500001,96.83138617500002,61.0,71.0
330,95.73356162500002,96.85131368333334,49.0,65.0
331,95.51617062500002,96.87124119166668,42.0,56.0
332,96.82051662500001,97.15384949166668,58.0,76.0
333,97.03790762500002,97.24261748333335,61.0,82.0
334,97.69008062500002,97.97450051666668,59.0,82.0
335,97.90747162500001,98.19551470000002,63.0,70.0
336,97.47268962500002,98.23174653333335,54.0,69.0
337,98.34225362500001,98.47268822500001,54.0,79.0
338,97.25529862500001,98.49080414166669,47.0,48.0
339,98.12486262500002,98.90022385833335,66.0,107.0
340,98.55964462500002,98.93464410000001,63.0,100.0
341,98.77703562500001,99.15565828333335,59.0,78.0
342,99.42920862500002,99.93826588333334,52.0,76.0
343,99.64659962500002,100.21906259166668,59.0,69.0
344,100.08138162500002,100.27522193333336,52.0,82.0
345,98.99442662500002,100.33319286666668,40.0,69.0
346,99.21181762500001,100.34949719166669,47.0,49.0
347,100.29877262500001,100.73174303333334,64.0,67.0
348,100.51616362500002,100.73355462500001,59.0,90.0
349,99.86399062500001,100.73355462500001,68.0,102.0
350,101.16833662500001,101.60130703333336,49.0,64.0
351,101.38572762500002,101.67558229166669,61.0,62.0
352,101.60311862500002,102.03790062500002,64.0,66.0
353,100.95094562500002,102.39659577500002,44.0,56.0
354,100.73355462500001,102.41108850833335,37.0,86.0
355,101.82050962500001,102.41471169166668,49.0,73.0
356,101.60311862500002,102.43463920000002,68.0,71.0
357,102.25529162500001,102.44188556666668,64.0,76.0
358,102.03790062500002,102.46362466666669,61.0,79.0
359,102.90746462500002,103.39478278333335,51.0,76.0
360,103.12485562500001,103.64115925000002,55.0,63.0
361,103.34224662500002,104.00166599166668,63.0,100.0
362,102.47268262500002,104.08862239166669,39.0,68.0
363,102.69007362500001,104.20456425833335,46.0,62.0
364,103.55963762500002,104.34768000000001,51.0,73.0
365,103.99441962500002,104.65927376666669,55.0,64.0
366,103.77702862500001,104.66652013333335,58.0,78.0
367,104.64659262500001,105.09767895000002,51.0,60.0
368,104.86398362500002,105.44188136666668,55.0,56.0
369,105.08137462500001,105.73717080833335,63.0,83.0
370,104.21181062500001,105.80238810833335,39.0,67.0
371,105.95093862500002,107.69006662500001,39.0,61.0
372,104.42920162500002,107.69006662500001,46.0,35.0
373,105.29876562500002,107.69006662500001,51.0,60.0
374,105.73354762500001,107.69006662500001,55.0,61.0
375,105.51615662500002,107.69006662500001,58.0,59.0
376,105.95093862500002,107.69006662500001,63.0,48.0
377,108.55963062500001,108.81868823333335,56.0,49.0
378,108.12484862500001,108.86216643333336,51.0,43.0
379,107.69006662500001,108.94006487500002,44.0,72.0
380,108.55963062500001,109.48535396666668,68.0,69.0
381,108.99441262500002,109.49441192500002,59.0,55.0
382,108.55963062500001,109.51433943333335,63.0,67.0
383,110.29875862500002,110.57774374166668,54.0,53.0
384,109.86397662500002,110.60129443333335,49.0,31.0
385,109.42919462500002,110.74259858333335,42.0,63.0
386,110.29875862500002,111.12846760833335,61.0,68.0
387,110.29875862500002,111.13933715833335,66.0,60.0
388,110.73354062500002,111.18825013333336,58.0,58.0
389,112.03788662500001,113.20092847500001,52.0,89.0
390,112.90745062500002,113.65563798333335,68.0,62.0
391,112.90745062500002,113.71723210000002,64.0,69.0
392,113.34223262500002,113.84404351666669,52.0,50.0
393,112.47266862500001,114.01433313333335,59.0,60.0
394,111.60310462500001,114.10853590000002,47.0,40.0
395,111.16832262500002,114.11759385833335,40.0,69.0
396,113.99440562500001,114.23897050000002,52.0,67.0
397,114.42918762500001,114.74259298333335,59.0,73.0
398,114.21179662500002,114.76433208333336,64.0,66.0
399,113.77701462500002,114.79512914166668,68.0,89.0
400,115.51614262500001,115.60491061666669,59.0,47.0
401,115.51614262500001,116.19186631666669,56.0,49.0
402,114.64657862500002,116.38570662500001,44.0,59.0
403,115.08136062500002,116.38570662500001,51.0,56.0
404,115.95092462500001,116.38570662500001,59.0,59.0
405,115.51614262500001,116.38570662500001,63.0,68.0
406,117.25527062500002,117.56324120833335,54.0,55.0
407,116.82048862500002,117.58860349166669,49.0,35.0
408,116.38570662500001,117.72266127500002,42.0,72.0
409,117.25527062500002,118.09403756666669,61.0,53.0
410,117.69005262500002,118.16468964166668,58.0,67.0
411,118.99439862500002,120.22265777500002,52.0,60.0
412,119.86396262500001,120.65019340833335,68.0,83.0
413,119.86396262500001,120.66830932500002,64.0,79.0
414,120.29874462500001,120.78787437500002,52.0,45.0
415,119.42918062500001,120.86939600000002,59.0,61.0
416,120.95091762500002,121.43098941666669,52.0,56.0
417,118.55961662500002,121.44185896666669,47.0,52.0
418,118.12483462500002,121.47084443333335,40.0,66.0
419,120.73352662500002,121.58859789166668,68.0,86.0
420,121.16830862500002,121.59403266666669,59.0,81.0
421,120.73352662500002,121.59584425833336,64.0,69.0
422,122.47265462500002,122.72808905000002,56.0,55.0
423,122.03787262500002,122.78787157500003,51.0,51.0
424,121.60309062500002,122.86939320000002,44.0,71.0
425,122.90743662500002,123.38750841666669,59.0,63.0
426,122.47265462500002,123.41649388333336,63.0,66.0
427,124.21178262500003,124.48352137500002,54.0,44.0
428,123.77700062500001,124.48533296666669,49.0,37.0
429,123.34221862500002,124.60852120000001,42.0,68.0
430,124.21178262500003,125.05598434166669,66.0,58.0
431,124.21178262500003,125.05960752500002,61.0,69.0
432,124.64656462500002,125.08134662500002,58.0,63.0
433,125.08134662500002,126.11757705833335,40.0,72.0
434,125.95091062500002,126.13388138333335,52.0,55.0
435,125.51612862500002,126.19185231666668,47.0,46.0
436,125.95091062500002,126.85851805000001,64.0,67.0
437,125.95091062500002,126.87663396666669,68.0,59.0
438,126.38569262500002,126.87844555833335,59.0,58.0
439,127.25525662500002,127.96358896666669,46.0,44.0
440,127.69003862500001,128.3440232166667,58.0,69.0
441,127.69003862500001,128.36213913333336,54.0,78.0
442,128.124820625,128.38931300833335,46.0,33.0
443,127.69003862500001,128.44547235000002,51.0,51.0
444,126.82047462500002,128.52337079166668,39.0,68.0
445,129.42916662500002,129.59583305833334,61.0,59.0
446,128.55960262500003,130.15561488333336,49.0,69.0
447,128.994384625,130.3440204166667,56.0,61.0
448,129.42916662500002,130.78604878333334,64.0,50.0
449,129.42916662500002,130.85670085833334,68.0,50.0
450,129.863948625,131.07952663333336,61.0,65.0
451,131.16829462500002,131.2679321666667,61.0,61.0
452,130.73351262500003,131.309598775,56.0,47.0
453,131.385685625,131.51249704166668,56.0,40.0
454,130.29873062500002,131.63025050000002,49.0,65.0
455,131.16829462500002,132.01430793333336,64.0,73.0
456,131.16829462500002,132.05778613333337,68.0,86.0
457,131.60307662500003,132.08496000833335,61.0,76.0
458,132.907422625,133.1809729666667,51.0,38.0
459,132.907422625,133.34039303333336,67.0,76.0
460,132.907422625,133.43821898333334,70.0,62.0
461,132.907422625,133.61575496666669,63.0,78.0
462,133.34220462500002,133.85126188333336,51.0,70.0
463,133.77698662500003,134.23169613333334,67.0,97.0
464,133.77698662500003,134.48531896666668,70.0,96.0
465,133.77698662500003,134.51973920833336,63.0,96.0
466,134.21176862500002,134.72626065833336,51.0,72.0
467,132.47264062500003,134.87481117500002,46.0,59.0
468,132.037858625,134.89473868333334,39.0,67.0
469,134.64655062500003,134.9744487166667,67.0,117.0
470,134.86394162500002,135.07046307500002,51.0,90.0
471,135.08133262500002,135.46539005833336,63.0,122.0
472,134.64655062500003,135.48894075,70.0,122.0
473,135.298723625,135.5016218916667,67.0,78.0
474,135.950896625,136.42915682500004,56.0,90.0
475,136.16828762500003,136.65560578333336,59.0,88.0
476,135.73350562500002,136.74075059166668,51.0,44.0
477,136.60306962500002,136.76973605833336,56.0,89.0
478,135.51611462500003,136.86756200833335,44.0,89.0
479,137.03785162500003,137.25524262500002,59.0,95.0
480,136.820460625,137.25524262500002,63.0,127.0
481,136.38567862500003,137.25524262500002,68.0,122.0
482,137.69002462500004,138.17734278333336,49.0,67.0
483,137.90741562500003,138.48712495833337,52.0,85.0
484,137.47263362500001,138.603066825,44.0,63.0
485,137.25524262500002,138.61574796666667,37.0,72.0
486,138.342197625,138.6483566166667,49.0,85.0
487,138.77697962500002,138.94183446666668,52.0,83.0
488,138.55958862500003,138.95995038333336,56.0,100.0
489,138.12480662500002,138.98712425833335,61.0,102.0
490,139.64654362500002,139.82045642500003,58.0,76.0
491,139.42915262500003,139.91828237500002,54.0,75.0
492,139.863934625,140.30415140000002,61.0,99.0
493,139.211761625,140.49799170833336,49.0,33.0
494,140.08132562500003,140.50523807500002,54.0,89.0
495,140.29871662500003,140.55415105000003,58.0,100.0
496,138.99437062500002,140.592194475,42.0,69.0
497,140.51610762500002,140.7679188666667,61.0,93.0
498,140.95088962500003,141.3005268166667,54.0,93.0
499,140.733498625,141.31683114166668,47.0,88.0
500,141.16828062500002,141.5613960166667,59.0,77.0
501,141.38567162500001,141.61212058333336,66.0,100.0
502,141.60306262500004,142.37661226666668,46.0,95.0
503,142.03784462500002,142.45451070833334,58.0,55.0
504,142.90740862500002,143.40559633333336,52.0,79.0
505,143.124799625,143.64472643333335,59.0,73.0
506,143.55958162500002,143.90921881666668,52.0,78.0
507,142.47262662500003,143.9418274666667,40.0,89.0
508,142.69001762500002,143.94907383333336,47.0,37.0
509,143.34219062500003,144.2135662166667,68.0,117.0
510,143.776972625,144.23892850000001,64.0,77.0
511,143.99436362500003,144.27697192500003,59.0,79.0
512,144.42914562500002,145.13928955833336,49.0,92.0
513,144.646536625,145.20450685833336,52.0,82.0
514,144.86392762500003,145.2679125666667,56.0,49.0
515,144.21175462500003,145.72262207500003,37.0,65.0
516,145.29870962500001,145.87841895833336,49.0,77.0
517,145.51610062500004,145.91102760833337,56.0,85.0
518,145.08131862500002,145.92914352500003,61.0,83.0
519,145.73349162500003,145.95088262500002,52.0,83.0
520,146.38566462500003,146.8657364166667,51.0,89.0
521,146.60305562500002,147.05233035833336,55.0,73.0
522,145.95088262500002,147.57588035000003,39.0,85.0
523,146.168273625,147.64653242500003,46.0,60.0
524,147.037837625,147.92732913333336,51.0,73.0
525,147.47261962500002,148.1972562916667,55.0,73.0
526,146.82044662500002,148.25522722500003,63.0,93.0
527,147.25522862500003,148.2570388166667,58.0,74.0
528,148.12479262500003,148.61029919166668,51.0,75.0
529,148.34218362500002,148.79326995000002,55.0,85.0
530,147.90740162500003,149.26609537500002,46.0,34.0
531,148.77696562500003,149.26609537500002,51.0,83.0
532,147.690010625,149.29689243333337,39.0,48.0
533,148.99435662500002,149.42913862500004,58.0,92.0
534,148.559574625,149.4309502166667,63.0,95.0
535,149.21174762500002,149.47080523333335,55.0,86.0
536,149.86392062500002,150.342180825,56.0,90.0
537,150.081311625,150.56862978333336,59.0,88.0
538,149.64652962500003,150.6537745916667,51.0,44.0
539,150.51609362500002,150.68276005833334,56.0,89.0
540,149.42913862500004,150.78058600833336,44.0,89.0
541,150.95087562500004,151.16826662500003,59.0,95.0
542,150.73348462500002,151.16826662500003,63.0,127.0
543,150.29870262500003,151.16826662500003,68.0,122.0
544,151.603048625,152.09036678333337,49.0,67.0
545,151.82043962500003,152.40014895833335,52.0,85.0
546,151.38565762500002,152.51609082500002,44.0,63.0
547,151.16826662500003,152.52877196666668,37.0,72.0
548,152.25522162500002,152.5613806166667,49.0,85.0
549,152.69000362500003,152.85485846666668,52.0,83.0
550,152.472612625,152.87297438333334,56.0,100.0
551,152.03783062500003,152.90014825833336,61.0,102.0
552,153.55956762500003,153.733480425,58.0,76.0
553,153.34217662500004,153.83130637500003,54.0,75.0
554,153.77695862500002,154.21717540000003,61.0,99.0
555,153.12478562500002,154.41101570833337,49.0,33.0
556,153.994349625,154.41826207500003,54.0,89.0
557,154.21174062500003,154.46717505000004,58.0,100.0
558,152.90739462500002,154.50521847500002,42.0,69.0
559,154.42913162500002,154.6809428666667,61.0,93.0
560,154.86391362500004,155.2135508166667,54.0,93.0
561,154.64652262500002,155.2298551416667,47.0,88.0
562,155.08130462500003,155.4744200166667,59.0,77.0
563,155.29869562500002,155.52514458333334,66.0,100.0
564,155.516086625,156.2896362666667,46.0,95.0
565,155.95086862500003,156.36753470833335,58.0,55.0
566,156.82043262500002,157.31862033333337,52.0,79.0
567,157.03782362500002,157.55775043333335,59.0,73.0
568,157.47260562500003,157.8222428166667,52.0,78.0
569,156.385650625,157.8548514666667,40.0,89.0
570,156.60304162500003,157.86209783333337,47.0,37.0
571,157.25521462500004,158.1265902166667,68.0,117.0
572,157.68999662500002,158.15195250000002,64.0,77.0
573,157.907387625,158.18999592500003,59.0,79.0
574,158.34216962500003,159.05231355833337,49.0,92.0
575,158.55956062500002,159.11753085833337,52.0,82.0
576,158.77695162500004,159.1809365666667,56.0,49.0
577,158.12477862500003,159.635646075,37.0,65.0
578,159.21173362500002,159.79144295833336,49.0,77.0
579,159.42912462500001,159.82405160833335,56.0,85.0
580,158.99434262500003,159.84216752500004,61.0,83.0
581,159.64651562500003,159.86390662500003,52.0,83.0
582,160.298688625,160.7787604166667,51.0,89.0
583,160.51607962500003,160.96535435833337,55.0,73.0
584,159.86390662500003,161.48890435,39.0,85.0
585,160.08129762500002,161.55955642500004,46.0,60.0
586,160.95086162500002,161.84035313333337,51.0,73.0
587,161.38564362500003,162.1102802916667,55.0,73.0
588,160.73347062500002,162.16825122500003,63.0,93.0
589,161.16825262500004,162.1700628166667,58.0,74.0
590,162.03781662500003,162.5233231916667,51.0,75.0
591,162.25520762500003,162.70629395000003,55.0,85.0
592,161.820425625,163.17911937500003,46.0,34.0
593,162.68998962500004,163.17911937500003,51.0,83.0
594,161.60303462500002,163.20991643333335,39.0,48.0
595,163.12477162500002,163.34216262500001,55.0,86.0
596,162.90738062500003,163.34216262500001,58.0,92.0
597,162.47259862500002,163.34216262500001,63.0,95.0
598,163.77694462500003,164.2244077666667,56.0,90.0
599,163.99433562500002,164.3167989416667,59.0,77.0
600,164.42911762500003,164.6084652,56.0,73.0
601,163.55955362500004,164.61208838333337,51.0,38.0
602,164.211726625,164.6972331916667,63.0,88.0
603,163.34216262500001,164.7189722916667,44.0,82.0
604,164.64650862500002,165.1646238416667,59.0,76.0
605,164.86389962500002,165.19904408333335,63.0,90.0
606,165.51607262500002,165.9417966666667,51.0,62.0
607,165.29868162500003,166.16099925833336,46.0,35.0
608,165.08129062500004,166.23889770000002,39.0,79.0
609,165.733463625,166.25157884166669,55.0,64.0
610,166.16824562500003,166.37476707500002,51.0,74.0
611,165.95085462500003,166.77512883333335,63.0,89.0
612,166.60302762500004,166.78599838333335,55.0,71.0
613,166.38563662500002,166.78599838333335,58.0,67.0
614,167.25520062500001,167.70085217500002,56.0,72.0
615,167.47259162500004,167.76425788333336,59.0,81.0
616,167.03780962500002,167.97259092500002,51.0,61.0
617,167.90737362500002,167.99433002500004,56.0,82.0
618,166.82041862500003,168.03780822500002,44.0,74.0
619,167.68998262500003,168.2244021666667,63.0,93.0
620,168.12476462500004,168.5450538916667,59.0,88.0
621,168.34215562500003,168.60121323333337,63.0,86.0
622,169.21171962500003,169.47077723333337,58.0,72.0
623,168.99432862500004,169.4798351916667,51.0,70.0
624,168.77693762500002,169.78780577500004,46.0,44.0
625,168.55954662500002,169.8276607916667,39.0,67.0
626,169.42911062500002,169.8711389916667,63.0,90.0
627,169.646501625,169.94903743333336,51.0,82.0
628,169.86389262500003,170.15012410833336,58.0,90.0
629,170.08128362500003,170.31497895000004,63.0,100.0
630,170.73345662500003,171.20084727500003,56.0,85.0
631,170.95084762500002,171.25519502500003,59.0,75.0
632,170.51606562500004,171.49251353333335,51.0,64.0
633,171.38562962500004,171.50338308333335,56.0,77.0
634,170.29867462500002,171.5776583416667,44.0,61.0
635,171.16823862500001,171.66642633333336,63.0,92.0
636,171.60302062500003,171.98888965000003,59.0,83.0
637,171.82041162500002,172.15917926666668,63.0,73.0
638,172.47258462500002,172.94359845833335,51.0,75.0
639,172.68997562500002,172.95990278333335,55.0,71.0
640,172.90736662500004,173.41280070000002,58.0,79.0
641,172.25519362500003,173.50338028333337,46.0,39.0
642,173.12475762500003,173.53236575000003,51.0,82.0
643,172.03780262500004,173.54867007500002,39.0,68.0
644,173.34214862500002,173.6646119416667,55.0,92.0
645,173.559539625,173.75156834166668,58.0,96.0
646,173.99432162500003,174.68634964166668,49.0,89.0
647,174.42910362500004,174.70446555833337,56.0,93.0
648,174.21171262500002,174.76605967500004,52.0,66.0
649,173.77693062500003,174.93453770000002,37.0,82.0
650,174.86388562500002,175.08671140000004,49.0,79.0
651,175.08127662500002,175.50518907500003,52.0,78.0
652,175.29866762500004,175.53960931666668,56.0,95.0
653,174.64649462500003,175.5504788666667,61.0,99.0
654,175.95084062500004,176.43997037500003,51.0,83.0
655,176.16823162500003,176.56859338333336,55.0,78.0
656,176.60301362500002,177.04866517500002,51.0,89.0
657,175.73344962500002,177.08127382500004,46.0,64.0
658,175.51605862500003,177.11750565833336,39.0,70.0
659,176.82040462500004,177.21533160833337,58.0,117.0
660,177.03779562500003,177.24250548333336,55.0,88.0
661,176.38562262500002,177.25880980833335,63.0,107.0
662,177.68996862500003,177.91641758333336,59.0,102.0
663,177.90735962500003,178.1754751916667,63.0,112.0
664,177.472577625,178.21170702500004,54.0,112.0
665,177.25518662500002,178.4526487166667,47.0,92.0
666,178.34214162500004,178.45989508333335,54.0,102.0
667,178.12475062500002,178.9852566666667,66.0,117.0
668,178.77692362500002,178.99793780833335,59.0,96.0
669,178.55953262500003,179.0124305416667,63.0,127.0
670,179.42909662500003,179.8711249916667,54.0,86.0
671,179.64648762500002,179.96713935000002,58.0,96.0
672,179.21170562500004,180.15735647500003,49.0,38.0
673,180.08126962500003,180.20626945000004,54.0,97.0
674,178.99431462500002,180.26967515833337,42.0,85.0
675,180.29866062500002,180.57039937500002,61.0,117.0
676,179.86387862500004,180.62474712500003,66.0,107.0
677,180.51605162500002,180.68452965000003,58.0,117.0
678,181.16822462500002,181.6537311916667,52.0,90.0
679,181.82039762500003,181.8982960666667,52.0,83.0
680,180.73344262500004,181.91822357500004,40.0,78.0
681,181.38561562500004,181.9200351666667,59.0,89.0
682,180.95083362500003,181.92909312500004,47.0,75.0
683,182.03778862500002,182.39467218333337,64.0,93.0
684,181.60300662500003,182.42728083333336,68.0,127.0
685,182.25517962500004,182.47257062500003,59.0,99.0
686,182.90735262500002,183.36387372500002,51.0,93.0
687,183.12474362500004,183.5124242416667,55.0,89.0
688,182.68996162500002,183.64104725000004,46.0,52.0
689,182.47257062500003,183.6645979416667,39.0,89.0
690,183.55952562500002,183.73706160833336,51.0,107.0
691,183.77691662500004,184.12474222500003,58.0,127.0
692,183.34213462500003,184.15735087500002,63.0,117.0
693,183.99430762500003,184.16822042500002,55.0,96.0
694,184.64648062500004,184.86930640000003,59.0,97.0
695,184.86387162500003,185.05227715833337,63.0,122.0
696,184.42908962500002,185.1917697166667,54.0,90.0
697,184.21169862500003,185.37836365833337,47.0,88.0
698,185.29865362500004,185.39647957500003,54.0,99.0
699,185.08126262500002,185.85843545000003,66.0,127.0
700,185.51604462500003,185.86387022500003,63.0,127.0
701,185.73343562500003,185.94901503333335,59.0,112.0
702,186.38560862500003,186.84756450000003,54.0,83.0
703,186.60299962500002,186.9200281666667,58.0,96.0
704,186.16821762500004,187.13017280000003,49.0,72.0
705,187.03778162500004,187.13017280000003,54.0,97.0
706,185.95082662500002,187.1808973666667,42.0,88.0
707,187.25517262500003,187.40553473333335,61.0,107.0
708,186.82039062500002,187.45444770833336,66.0,117.0
709,187.47256362500002,187.66096915833336,58.0,112.0
710,188.12473662500003,188.56857658333337,49.0,79.0
711,187.90734562500003,188.81132986666668,44.0,35.0
712,187.68995462500004,188.8819819416667,37.0,75.0
713,188.34212762500002,188.89647467500004,52.0,82.0
714,188.77690962500003,188.93632969166669,49.0,92.0
715,188.99430062500002,189.4145898916667,56.0,102.0
716,189.21169162500004,189.41640148333337,52.0,93.0
717,188.55951862500004,189.42727103333337,61.0,112.0
718,189.86386462500002,190.30951617500003,51.0,81.0
719,190.08125562500004,190.5015448916667,55.0,89.0
720,189.64647362500003,190.86929800000004,46.0,34.0
721,189.42908262500004,190.90552983333336,39.0,85.0
722,190.51603762500002,191.05770353333335,51.0,90.0
723,190.29864662500003,191.11748605833336,63.0,112.0
724,190.73342862500002,191.1211092416667,58.0,107.0
725,190.95081962500004,191.14465993333337,55.0,95.0
726,191.38560162500002,192.02690507500003,51.0,93.0
727,191.82038362500003,192.03777462500003,58.0,96.0
728,191.60299262500004,192.17183240833336,55.0,59.0
729,192.03777462500003,192.74248378333337,63.0,112.0
730,192.47255662500004,192.80770108333337,58.0,93.0
731,191.16821062500003,192.8330633666667,39.0,85.0
732,192.25516562500002,192.8656720166667,51.0,88.0
733,192.68994762500003,193.34755540000003,55.0,70.0
734,192.90733862500002,193.44356975833335,58.0,97.0
735,192.90733862500002,193.62291733333336,63.0,95.0
736,193.34212062500004,193.81313445833337,51.0,72.0
737,193.55951162500003,193.88378653333336,55.0,71.0
738,193.12472962500004,193.93451110000004,46.0,29.0
739,192.90733862500002,194.0069747666667,39.0,86.0
740,193.99429362500004,194.1591484666667,51.0,90.0
741,193.77690262500002,194.28052510833336,58.0,93.0
742,194.21168462500003,194.59030728333337,55.0,93.0
743,193.77690262500002,194.6319738916667,63.0,100.0
744,194.42907562500002,194.64284344166668,58.0,82.0
745,195.08124862500003,195.55407405000003,56.0,86.0
746,195.29863962500002,195.79863892500003,59.0,74.0
747,194.86385762500004,195.86747940833337,51.0,65.0
748,194.64646662500002,195.9308851166667,44.0,86.0
749,195.73342162500003,196.09211677500002,56.0,95.0
750,195.95081262500003,196.3167541416667,63.0,99.0
751,196.16820362500002,196.3384932416667,59.0,96.0
752,195.51603062500004,196.3547975666667,68.0,112.0
753,196.82037662500002,197.1047965166667,64.0,67.0
754,197.03776762500004,197.17363700000004,68.0,100.0
755,196.60298562500003,197.33486865833336,61.0,92.0
756,197.47254962500003,197.60660740833336,61.0,99.0
757,196.38559462500004,197.6482740166667,49.0,90.0
758,197.25515862500004,197.74247678333336,68.0,117.0
759,197.68994062500002,198.00515757500003,64.0,95.0
760,197.90733162500004,198.1319689916667,68.0,102.0
761,198.55950462500005,199.03776482500004,54.0,93.0
762,198.77689562500004,199.07580825000002,58.0,92.0
763,198.34211362500002,199.26059060000003,49.0,63.0
764,198.12472262500003,199.29138765833338,42.0,79.0
765,199.21167762500002,199.4254454416667,54.0,97.0
766,198.99428662500003,199.42906862500004,61.0,102.0
767,199.42906862500004,199.73703920833336,58.0,117.0
768,199.64645962500003,199.7787058166667,61.0,107.0
769,200.08124162500002,200.4091397166667,59.0,92.0
770,199.86385062500003,200.5015308916667,47.0,88.0
771,200.29863262500004,200.7134871166667,66.0,102.0
772,200.51602362500003,200.72797985000003,63.0,100.0
773,200.95080562500004,201.2460950666667,58.0,90.0
774,200.73341462500002,201.3982687666667,46.0,88.0
775,201.16819662500004,201.52689177500002,66.0,88.0
776,201.38558762500003,201.54863087500004,58.0,93.0
777,202.03776062500003,202.54319470000004,52.0,86.0
778,202.25515162500002,202.74428137500004,59.0,81.0
779,201.60297862500002,202.76602047500003,40.0,72.0
780,202.68993362500004,202.7895711666667,52.0,90.0
781,201.82036962500004,202.79138275833336,47.0,77.0
782,202.90732462500003,203.3004400166667,64.0,86.0
783,202.47254262500005,203.30949797500003,68.0,107.0
784,203.12471562500002,203.3656573166667,59.0,93.0
785,203.55949762500003,204.34754000000004,49.0,97.0
786,203.99427962500002,204.35297477500004,56.0,99.0
787,203.77688862500003,204.39282979166668,52.0,69.0
788,203.34210662500004,204.57942373333336,37.0,86.0
789,204.42906162500003,204.74971335000004,49.0,92.0
790,204.64645262500002,204.98703185833335,52.0,95.0
791,204.86384362500004,205.0667418916667,56.0,112.0
792,204.21167062500004,205.0721766666667,61.0,107.0
793,205.51601662500002,205.97253772500002,51.0,77.0
794,205.73340762500004,206.0558709416667,55.0,69.0
795,205.95079862500003,206.42724723333336,63.0,112.0
796,206.38558062500005,206.5395659166667,58.0,70.0
797,205.08123462500004,206.6863048416667,39.0,76.0
798,205.29862562500003,206.75514532500003,46.0,34.0
799,206.16818962500002,207.13376798333337,51.0,96.0
800,206.60297162500004,207.3221735166667,58.0,107.0
801,206.60297162500004,207.33123147500004,55.0,89.0
802,206.60297162500004,207.3330430666667,63.0,100.0
803,207.47253562500003,207.6210861416667,58.0,83.0
804,207.47253562500003,207.62833250833336,63.0,90.0
805,207.47253562500003,207.64101365000002,55.0,66.0
806,207.25514462500004,207.7678250666667,51.0,95.0
807,207.68992662500003,207.7732598416667,55.0,62.0
808,207.03775362500002,207.9960856166667,46.0,46.0
809,206.82036262500003,208.0558681416667,39.0,82.0
810,207.68992662500003,208.0667376916667,58.0,112.0
811,207.90731762500002,208.1536940916667,51.0,99.0
812,208.12470862500004,208.49427332500002,55.0,102.0
813,208.34209962500003,208.53593993333337,58.0,117.0
814,207.68992662500003,208.5449978916667,63.0,99.0
815,208.99427262500004,209.48883715000002,56.0,90.0
816,209.21166362500003,209.71166292500004,59.0,77.0
817,209.64644562500004,209.8384743416667,56.0,95.0
818,208.77688162500004,209.8819525416667,51.0,34.0
819,208.55949062500002,209.97072053333338,44.0,72.0
820,209.42905462500002,210.29499544166669,68.0,122.0
821,209.86383662500003,210.3167345416667,63.0,107.0
822,210.08122762500003,210.3221693166667,59.0,99.0
823,210.51600962500004,211.1862985416667,49.0,86.0
824,210.95079162500002,211.23702310833337,56.0,107.0
825,210.73340062500003,211.2786897166667,52.0,78.0
826,210.29861862500005,211.40006635833336,37.0,102.0
827,211.38557362500003,211.61383417500002,49.0,86.0
828,211.60296462500003,211.9254279416667,52.0,88.0
829,211.16818262500004,211.9689061416667,61.0,107.0
830,211.82035562500002,212.01963070833335,56.0,117.0
831,212.47252862500002,212.93448450000002,54.0,88.0
832,212.68991962500004,213.01962930833338,58.0,77.0
833,212.25513762500003,213.1862957416667,49.0,68.0
834,212.03774662500004,213.22252757500004,42.0,88.0
835,213.12470162500003,213.3275998916667,54.0,90.0
836,213.34209262500002,213.6971645916667,61.0,100.0
837,212.90731062500004,213.72071528333336,66.0,99.0
838,213.55948362500004,213.7297732416667,58.0,97.0
839,213.99426562500003,214.3656419166667,59.0,90.0
840,213.77687462500003,214.45078672500003,47.0,90.0
841,214.21165662500005,214.6482502166667,66.0,102.0
842,214.42904762500004,214.6536849916667,63.0,112.0
843,214.86382962500002,215.18266975833336,58.0,81.0
844,214.64643862500003,215.2678145666667,46.0,92.0
845,215.08122062500004,215.43810418333337,66.0,88.0
846,215.29861162500004,215.45622010000002,58.0,95.0
847,215.95078462500004,216.42723323333337,52.0,85.0
848,216.16817562500003,216.6482474166667,59.0,85.0
849,216.60295762500004,216.67360970000004,52.0,88.0
850,215.51600262500003,216.70621835000003,40.0,89.0
851,215.73339362500005,216.70621835000003,47.0,69.0
852,216.38556662500002,217.22252197500003,68.0,127.0
853,216.82034862500004,217.2460726666667,64.0,88.0
854,217.03773962500003,217.29136245833337,59.0,83.0
855,217.68991262500003,218.16273805000003,49.0,82.0
856,217.90730362500003,218.4199840666667,52.0,83.0
857,217.47252162500004,218.45983908333338,44.0,39.0
858,217.25513062500002,218.4688970416667,37.0,59.0
859,218.34208562500004,218.64643302500002,49.0,88.0
860,218.55947662500003,218.8873747166667,56.0,102.0
861,218.12469462500005,218.8982442666667,61.0,97.0
862,218.77686762500002,218.9362876916667,52.0,89.0
863,219.42904062500003,219.90186605000002,51.0,90.0
864,219.64643162500005,220.11382227500005,55.0,74.0
865,220.08121362500003,220.51599562500004,51.0,93.0
866,219.86382262500004,220.53229995000004,63.0,112.0
867,220.29860462500002,220.59208247500004,58.0,100.0
868,219.21164962500004,221.03229925000002,46.0,53.0
869,220.73338662500004,221.04135720833338,51.0,107.0
870,220.51599562500004,221.0504151666667,55.0,77.0
871,218.99425862500004,221.11382087500004,39.0,75.0
872,220.95077762500003,221.2623713916667,58.0,96.0
873,220.95077762500003,221.28229890000003,63.0,93.0
874,221.16816862500002,221.4091103166667,55.0,100.0
875,221.60295062500003,222.43809438333338,64.0,102.0
876,221.60295062500003,222.4417175666667,47.0,72.0
877,221.60295062500003,222.4417175666667,52.0,102.0
878,221.60295062500003,222.44534075000004,40.0,65.0
879,221.60295062500003,222.45077552500004,59.0,100.0
880,221.60295062500003,222.45077552500004,68.0,102.0
881,222.90729662500004,223.40729592500003,57.0,99.0
882,223.12468762500004,223.42903502500005,64.0,89.0
883,223.55946962500005,223.72070128333337,57.0,99.0
884,222.68990562500002,223.8330199666667,52.0,85.0
885,223.34207862500003,223.8493242916667,69.0,90.0
886,222.47251462500003,223.89461408333338,45.0,102.0
887,223.99425162500003,224.20439625833336,69.0,107.0
888,223.34207862500003,224.22251217500005,72.0,127.0
889,223.77686062500004,224.2732367416667,64.0,100.0
890,224.64642462500004,225.16816302500004,50.0,93.0
891,224.86381562500003,225.27504693333336,62.0,95.0
892,224.21164262500002,225.46164087500003,38.0,75.0
893,224.42903362500005,225.49787270833338,45.0,92.0
894,225.51598862500003,225.82033602500005,65.0,97.0
895,225.29859762500004,225.84207512500004,50.0,79.0
896,225.08120662500002,225.84207512500004,69.0,122.0
897,225.73337962500003,226.11381387500003,62.0,97.0
898,226.38555262500003,226.92359535000003,55.0,93.0
899,226.60294362500002,227.1047545166667,62.0,93.0
900,225.95077062500005,227.33482665833336,43.0,79.0
901,227.03772562500004,227.35837735000004,55.0,90.0
902,226.16816162500004,227.3601889416667,50.0,63.0
903,227.25511662500003,227.67359430000005,67.0,102.0
904,227.47250762500005,227.67902907500005,62.0,102.0
905,226.82033462500004,227.68265225833338,71.0,102.0
906,228.12468062500002,228.34026003333338,60.0,99.0
907,227.90728962500003,228.39098460000002,55.0,89.0
908,227.68989862500004,228.41091210833338,48.0,79.0
909,228.34207162500005,228.5721437666667,64.0,100.0
910,228.77685362500003,229.05765033333336,59.0,99.0
911,228.55946262500004,229.27504133333338,47.0,100.0
912,228.99424462500002,229.32576590000002,60.0,89.0
913,229.21163562500004,229.45620050000002,59.0,86.0
914,230.08119962500004,230.32938768333338,57.0,93.0
915,229.86380862500005,230.37830065833336,53.0,92.0
916,230.51598162500002,230.72250307500005,53.0,88.0
917,230.29859062500003,230.77141605000003,60.0,102.0
918,229.64641762500003,230.89460428333336,48.0,82.0
919,229.42902662500003,230.9145317916667,41.0,86.0
920,230.73337262500004,231.03772002500003,57.0,96.0
921,230.95076362500004,231.13554597500004,60.0,97.0
922,231.60293662500004,232.12829820833338,50.0,86.0
923,231.82032762500003,232.18264595833338,57.0,79.0
924,232.25510962500005,232.4580078916667,50.0,93.0
925,232.03771862500002,232.54134110833337,62.0,89.0
926,232.03771862500002,232.5558338416667,65.0,97.0
927,231.16815462500003,232.74967415000003,38.0,81.0
928,232.47250062500004,232.83481895833336,57.0,97.0
929,232.68989162500003,232.85655805833338,62.0,82.0
930,231.38554562500005,232.86380442500004,45.0,76.0
931,232.68989162500003,232.8764855666667,65.0,73.0
932,233.34206462500003,233.83662915000005,52.0,86.0
933,233.55945562500003,233.9145275916667,59.0,82.0
934,233.99423762500004,234.22068658333336,52.0,93.0
935,233.77684662500005,234.2840922916667,68.0,122.0
936,233.77684662500005,234.28590388333336,64.0,97.0
937,232.90728262500005,234.51416443333338,40.0,86.0
938,233.12467362500004,234.6536569916667,47.0,69.0
939,234.21162862500003,234.68807723333336,59.0,77.0
940,234.42901962500002,234.69532360000002,64.0,88.0
941,234.42901962500002,234.72793225000004,68.0,99.0
942,235.29858362500005,235.42720663333338,64.0,68.0
943,235.29858362500005,235.43807618333338,71.0,81.0
944,235.29858362500005,235.4416993666667,68.0,92.0
945,235.51597462500004,235.5340905416667,70.0,96.0
946,235.51597462500004,235.54858327500003,64.0,66.0
947,235.08119262500003,235.57575715000004,52.0,95.0
948,234.64641062500004,235.8438727166667,40.0,81.0
949,234.86380162500004,235.90184365000005,47.0,72.0
950,235.51597462500004,236.0069159666667,68.0,127.0
951,235.73336562500003,236.2406112916667,52.0,102.0
952,236.16814762500005,236.35292997500002,68.0,127.0
953,235.51597462500004,236.35292997500002,71.0,127.0
954,235.95075662500003,236.49423412500005,64.0,100.0
955,236.82032062500005,237.2460446666667,57.0,100.0
956,236.60292962500003,237.42358065000005,52.0,76.0
957,237.03771162500004,237.4743052166667,64.0,93.0
958,237.47249362500003,237.61560936666672,52.0,89.0
959,236.38553862500004,237.65546438333337,45.0,72.0
960,237.25510262500003,237.9960436166667,72.0,117.0
961,237.68988462500005,238.0123479416667,69.0,102.0
962,237.90727562500004,238.1427825416667,64.0,102.0
963,238.55944862500004,239.0938681666667,50.0,88.0
964,238.77683962500004,239.1047377166667,62.0,92.0
965,238.12466662500003,239.32394030833336,38.0,81.0
966,238.34205762500002,239.33662145000002,45.0,74.0
967,239.21162162500005,239.7297368416667,50.0,88.0
968,238.99423062500003,239.74422957500005,69.0,117.0
969,239.42901262500004,239.75509912500004,65.0,96.0
970,239.64640362500003,239.9308235166667,62.0,100.0
971,240.29857662500004,240.8493004916667,55.0,95.0
972,240.51596762500003,240.85292367500003,62.0,95.0
973,240.95074962500004,241.1047349166667,55.0,90.0
974,240.08118562500005,241.1264740166667,50.0,89.0
975,239.86379462500003,241.17901017500003,43.0,69.0
976,240.73335862500005,241.46705325000005,71.0,122.0
977,241.16814062500004,241.47067643333338,67.0,102.0
978,241.38553162500003,241.6699515166667,62.0,102.0
979,242.03770462500003,242.54313870000004,48.0,93.0
980,242.25509562500002,242.66270375000005,60.0,92.0
981,241.60292262500005,242.82574700000004,36.0,73.0
982,241.82031362500004,242.84567450833336,43.0,71.0
983,242.68987762500004,243.23697830833336,48.0,96.0
984,242.47248662500004,243.25147104166672,67.0,117.0
985,242.90726862500003,243.2677753666667,64.0,122.0
986,243.12465962500005,243.38915200833338,60.0,100.0
987,243.77683262500003,244.29675943333336,53.0,86.0
988,243.99422362500005,244.31487535000005,60.0,92.0
989,244.42900562500003,244.58480250833338,53.0,95.0
990,243.55944162500003,244.65001980833338,48.0,75.0
991,243.34205062500004,244.70617915000003,41.0,79.0
992,244.21161462500004,244.74784575833337,65.0,85.0
993,244.21161462500004,244.75328053333337,69.0,99.0
994,244.64639662500005,245.09567135833336,60.0,92.0
995,244.86378762500004,245.11016409166672,69.0,99.0
996,244.86378762500004,245.12284523333338,65.0,90.0
997,245.73335162500004,245.97248172500005,62.0,81.0
998,245.51596062500005,246.0232062916667,50.0,88.0
999,246.16813362500002,246.37646666666672,50.0,95.0
1000,245.95074262500003,246.4688578416667,65.0,95.0
1001,245.95074262500003,246.47610420833337,69.0,99.0
1002,245.08117862500004,246.67719088333337,38.0,74.0
1003,246.60291562500004,246.7895095666667,65.0,85.0
1004,246.60291562500004,246.80219070833337,69.0,79.0
1005,245.29856962500003,246.8166834416667,45.0,89.0
1006,246.38552462500004,246.82392980833336,62.0,92.0
1007,247.25508862500004,247.75508792500003,52.0,86.0
1008,247.47247962500003,247.88008775000003,64.0,89.0
1009,247.90726162500005,248.17900037500004,52.0,83.0
1010,247.68987062500003,248.40726092500003,71.0,112.0
1011,246.82030662500003,248.43986957500005,40.0,81.0
1012,248.12465262500004,248.4416811666667,68.0,95.0
1013,248.34204362500003,248.53226075000003,64.0,89.0
1014,248.55943462500005,249.34747700000003,71.0,79.0
1015,248.55943462500005,249.36196973333338,68.0,74.0
1016,248.99421662500004,249.47247682500003,52.0,72.0
1017,249.42899862500005,250.20073667500003,71.0,97.0
1018,248.55943462500005,250.20979463333336,40.0,66.0
1019,249.42899862500005,250.21160622500003,68.0,100.0
1020,249.86378062500003,250.21341781666672,52.0,86.0
1021,248.55943462500005,250.2405916916667,64.0,58.0
1022,247.03769762500005,250.25327283333337,47.0,74.0
1023,250.29856262500005,254.67899127500004,52.0,70.0
1024,250.29856262500005,254.69529560000004,47.0,52.0
1025,250.29856262500005,254.71159992500003,68.0,95.0
1026,250.29856262500005,254.73877380000005,71.0,81.0
1027,250.29856262500005,254.7405853916667,40.0,59.0
1028,250.29856262500005,254.7460201666667,64.0,88.0
1029,258.1173922583334,258.42355125000006,57.0,40.0
1030,257.61739295833337,258.55217425833337,52.0,44.0
1031,257.22427756666673,258.5557974416667,45.0,67.0
1032,258.1210154416667,259.07572425000006,69.0,55.0
1033,258.11920385,259.0902169833334,72.0,56.0
1034,258.5358699333334,259.12826040833335,64.0,57.0
1035,259.42717303333336,260.4416643666667,48.0,47.0
1036,258.99963740000004,260.47064983333337,41.0,60.0
1037,260.4054325333334,261.03767802500005,60.0,58.0
1038,259.93623029166673,261.092025775,69.0,57.0
1039,259.9307955166667,261.3112283666667,65.0,58.0
1040,262.29311105000005,262.8565160583334,56.0,67.0
1041,262.78767557500004,263.0014433916667,59.0,66.0
1042,261.80398130000003,265.4489037333334,52.0,63.0
1043,261.3402138333334,265.5630340083334,47.0,56.0
1044,260.87101159166673,265.6952802,40.0,65.0
