,start,end,pitch,velocity
0,13.018295937500001,13.41260497916667,60.0,100.0
1,13.506100937500003,13.636182270833336,60.0,81.0
2,13.750003437500002,13.859759562500003,60.0,85.0
3,13.993905937500003,14.449190604166668,60.0,93.0
4,14.237808437500002,14.859759812500002,65.0,77.0
5,14.969515937500002,15.628052687500002,60.0,92.0
6,15.701223437500003,16.0182966875,65.0,93.0
7,16.189028437500003,16.363825229166668,67.0,107.0
8,16.432930937500004,16.64431310416667,69.0,90.0
9,16.676833437500004,16.890248125000003,67.0,93.0
10,16.9207359375,17.709354020833334,64.0,95.0
11,17.652443437500004,17.77236216666667,62.0,90.0
12,17.8963459375,18.176833812500004,62.0,96.0
13,18.140248437500002,19.1402486875,60.0,69.0
14,20.579273437500003,20.80285072916667,60.0,95.0
15,20.823175937500004,21.158541875000004,67.0,102.0
16,21.310980937500002,21.45528991666667,67.0,100.0
17,21.554883437500003,21.86992416666667,67.0,127.0
18,22.042688437500004,22.414639750000003,67.0,92.0
19,22.286590937500005,23.130087083333336,66.0,99.0
20,23.262200937500005,23.512201000000005,62.0,112.0
21,23.750005937500003,23.993908437500004,62.0,112.0
22,23.993908437500004,24.225615812500003,60.0,92.0
23,24.237810937500004,24.46748579166667,57.0,85.0
24,24.481713437500005,25.128055062500003,60.0,93.0
25,25.213420937500004,26.495941583333337,58.0,112.0
26,27.652445937500005,27.989844395833337,58.0,117.0
27,28.140250937500003,28.457324187500003,60.0,96.0
28,28.628055937500005,29.176836562500004,62.0,117.0
29,29.359763437500003,29.575210645833337,62.0,90.0
30,29.603665937500004,30.08130833333334,64.0,89.0
31,30.091470937500006,30.59960114583334,65.0,90.0
32,30.579275937500004,31.20935739583334,64.0,97.0
33,32.042690937500005,32.45122762500001,62.0,97.0
34,32.53049593750001,33.073179,61.0,99.0
35,33.01830093750001,33.073179,61.0,99.0
36,33.5061059375,33.92074018750001,61.0,107.0
37,33.993910937500004,34.530496437500005,67.0,99.0
38,34.481715937500006,35.54065929166667,65.0,102.0
39,35.701228437500006,36.01017160416667,62.0,95.0
40,36.18903343750001,36.41261072916667,64.0,93.0
41,36.432935937500005,37.24797679166667,65.0,96.0
42,37.164643437500004,37.24797679166667,65.0,78.0
43,37.40854593750001,37.59553785416667,65.0,92.0
44,37.652448437500006,37.918708666666674,67.0,86.0
45,37.8963509375,38.369928291666675,69.0,96.0
46,38.384155937500005,39.08334310416667,67.0,112.0
47,39.1158634375,39.22765208333334,67.0,96.0
48,39.35976593750001,39.552855416666674,67.0,96.0
49,39.603668437500005,39.786595312500005,65.0,90.0
50,39.84757093750001,40.32927837500001,64.0,93.0
51,40.335375937500004,42.979685541666676,65.0,100.0
52,44.23781593750001,44.56911683333334,60.0,99.0
53,44.725620937500004,44.83944210416667,60.0,92.0
54,44.96952343750001,45.08537712500001,60.0,82.0
55,45.213425937500006,45.45936095833334,60.0,95.0
56,45.45732843750001,46.08537737500001,65.0,95.0
57,46.18903593750001,47.032532083333344,60.0,83.0
58,46.92074343750001,47.27236954166668,65.0,96.0
59,47.40854843750001,47.62196312500001,67.0,107.0
60,47.65245093750001,47.91667864583334,69.0,85.0
61,47.89635343750001,48.152451062500006,67.0,96.0
62,48.14025593750001,48.634158500000005,64.0,100.0
63,48.87196343750001,49.01627241666667,62.0,93.0
64,49.11586593750001,49.30895541666668,62.0,112.0
65,49.35976843750001,49.46342700000001,64.0,73.0
66,49.48171968750001,49.62806118750001,62.0,88.0
67,49.603670937500006,50.32928087500001,60.0,92.0
68,51.79879343750001,52.03659837500001,60.0,89.0
69,52.04269593750001,52.406517166666674,67.0,100.0
70,52.53050093750001,52.640257062500005,67.0,112.0
71,52.774403437500006,53.23781818750001,67.0,127.0
72,53.26220843750001,53.65041991666668,67.0,107.0
73,53.75001343750001,54.44107052083334,66.0,112.0
74,54.48172093750001,54.80489175000001,62.0,122.0
75,54.96952593750001,55.144322729166674,62.0,112.0
76,55.213428437500006,55.43700572916668,60.0,93.0
77,55.45733093750001,55.78863183333334,57.0,97.0
78,55.70123343750001,56.233753895833345,60.0,117.0
79,56.18903843750001,56.42277833333334,62.0,69.0
80,56.43294093750001,57.77440468750001,58.0,97.0
81,58.87196593750001,59.28050262500001,58.0,122.0
82,59.35977093750001,59.74798241666667,60.0,99.0
83,59.84757593750001,60.552860666666675,62.0,112.0
84,60.57928343750001,60.69716964583334,62.0,97.0
85,60.82318593750001,61.008145333333346,62.0,99.0
86,61.06708843750001,61.27440556250001,64.0,96.0
87,61.31099093750001,61.83131627083334,65.0,102.0
88,61.79879593750001,62.571153854166674,64.0,102.0
89,63.26221093750001,63.67684518750001,62.0,117.0
90,63.75001593750001,64.12196725000001,61.0,127.0
91,64.2378209375,64.34351202083334,61.0,117.0
92,64.48172343750001,64.58131695833335,61.0,107.0
93,64.72562593750001,65.00204877083334,61.0,122.0
94,64.96952843750002,65.7134310625,67.0,100.0
95,65.70123593750002,66.70123618750002,65.0,102.0
96,66.92074843750001,67.21749647916668,62.0,100.0
97,67.40855343750002,67.56709006250001,64.0,95.0
98,67.65245593750001,68.22156177083335,65.0,100.0
99,68.3841634375,68.48985452083335,65.0,100.0
100,68.62806593750001,68.79270012500001,65.0,102.0
101,68.87196843750002,69.08944816666668,67.0,96.0
102,69.1158709375,69.62400114583335,69.0,112.0
103,69.60367593750001,70.17481429166668,67.0,107.0
104,70.33538343750001,70.44107452083334,67.0,102.0
105,70.57928593750002,70.76018029166667,67.0,117.0
106,70.82318843750001,71.06099337500001,65.0,112.0
107,71.31099343750002,71.44107477083334,64.0,117.0
108,71.5548959375,72.28457091666668,67.0,127.0
109,72.2866034375,74.14229495833335,65.0,127.0
110,74.48172593750002,74.76018129166668,60.0,117.0
111,74.7256284375,74.90449027083335,62.0,102.0
112,74.96953093750001,75.16465293750001,65.0,127.0
113,75.21343343750002,75.35164485416668,67.0,100.0
114,75.4573359375,75.93497833333335,69.0,112.0
115,76.18904343750002,76.65652322916668,69.0,127.0
116,76.67684843750001,76.89229564583334,72.0,102.0
117,76.92075093750002,77.39229577083334,69.0,117.0
118,77.40855593750001,78.03457235416668,67.0,112.0
119,78.14026343750001,78.56506029166668,67.0,107.0
120,78.62806843750002,78.89026362500002,72.0,102.0
121,78.87197093750001,79.30489787500001,67.0,112.0
122,79.35977593750002,79.77847522916667,65.0,102.0
123,80.09148343750002,80.19107695833334,65.0,95.0
124,80.3353859375,80.45530466666668,65.0,97.0
125,80.57928843750001,80.72156489583335,67.0,107.0
126,80.82319093750002,81.01831293750001,69.0,102.0
127,81.06709343750002,81.27441056250001,65.0,107.0
128,81.31099593750001,81.82725622916668,62.0,107.0
129,81.79880093750002,82.00815058333335,67.0,127.0
130,82.04270343750001,82.30083358333334,64.0,95.0
131,82.53050843750002,82.71343531250001,64.0,97.0
132,82.77441093750001,84.09554947916668,65.0,112.0
133,84.23782593750002,84.43701297916668,60.0,107.0
134,84.48172843750001,84.63823254166668,62.0,95.0
135,84.72563093750001,84.97156595833334,65.0,117.0
136,84.96953343750002,85.14433022916668,67.0,97.0
137,85.21343593750001,85.76018404166668,69.0,127.0
138,85.94514343750001,86.39636306250001,69.0,122.0
139,86.43294843750002,86.69107858333335,72.0,99.0
140,86.67685093750002,87.11384291666668,69.0,127.0
141,87.16465593750002,87.71750160416669,67.0,100.0
142,87.89636343750001,88.23985945833334,67.0,112.0
143,88.38416843750001,88.57929043750002,72.0,107.0
144,88.62807093750001,89.07929056250002,67.0,122.0
145,89.11587593750001,89.60164841666668,65.0,102.0
146,90.82319343750001,91.14026668750002,62.0,95.0
147,91.06709593750001,91.74595789583334,64.0,127.0
148,91.79880343750001,92.30490112500001,65.0,107.0
149,92.53051093750001,94.93091804166669,65.0,127.0
150,106.67685593750002,107.00815683333335,60.0,99.0
151,107.16466093750002,107.27848210416668,60.0,92.0
152,107.40856343750002,107.52441712500001,60.0,82.0
153,107.65246593750001,107.89840095833335,60.0,95.0
154,107.89636843750002,108.52441737500001,65.0,95.0
155,108.62807593750001,109.30084033333335,60.0,83.0
156,109.35978343750001,109.71140954166668,65.0,96.0
157,109.84758843750002,110.06100312500001,67.0,107.0
158,110.09149093750001,110.35571864583335,69.0,85.0
159,110.33539343750002,110.59149106250001,67.0,96.0
160,110.57929593750002,111.07319850000002,64.0,100.0
161,111.31100343750002,111.45531241666669,62.0,93.0
162,111.55490593750002,111.74799541666668,62.0,112.0
163,111.79880843750001,111.90246700000002,64.0,73.0
164,111.92075968750002,112.06710118750001,62.0,88.0
165,112.04271093750002,113.50612593750002,60.0,92.0
166,114.23783343750002,114.47563837500002,60.0,89.0
167,114.48173593750002,114.84555716666668,67.0,100.0
168,114.96954093750001,115.07929706250002,67.0,112.0
169,115.21344343750002,115.67685818750002,67.0,127.0
170,115.70124843750001,116.08945991666668,67.0,107.0
171,116.18905343750002,116.88011052083336,66.0,112.0
172,116.92076093750002,117.24393175000002,62.0,122.0
173,117.40856593750001,117.58336272916668,62.0,112.0
174,117.65246843750002,117.87604572916669,60.0,93.0
175,117.89637093750002,118.22767183333335,57.0,97.0
176,118.14027343750001,118.67279389583335,60.0,117.0
177,118.62807843750002,118.86181833333335,62.0,69.0
178,118.87198093750001,120.21344468750002,58.0,97.0
179,121.31100593750001,121.71954262500002,58.0,122.0
180,121.79881093750002,122.1870224166667,60.0,99.0
181,122.28661593750002,122.99190066666668,62.0,112.0
182,123.01832343750002,123.13620964583335,62.0,97.0
183,123.26222593750002,123.44718533333335,62.0,99.0
184,123.50612843750002,123.71344556250001,64.0,96.0
185,123.75003093750001,124.27035627083335,65.0,102.0
186,124.23783593750002,125.01019385416669,64.0,102.0
187,125.70125093750002,126.11588518750003,62.0,117.0
188,126.18905593750002,126.56100725000002,61.0,127.0
189,126.67686093750002,126.78255202083335,61.0,117.0
190,126.92076343750001,127.02035695833335,61.0,107.0
191,127.16466593750002,127.44108877083336,61.0,122.0
192,127.40856843750002,128.1524710625,67.0,100.0
193,128.1402759375,129.1402761875,65.0,102.0
194,129.35978843750001,129.65653647916668,62.0,100.0
195,129.84759343750002,130.00613006250003,64.0,95.0
196,130.0914959375,130.66060177083335,65.0,100.0
197,130.8232034375,130.92889452083335,65.0,100.0
198,131.06710593750003,131.23174012500002,65.0,102.0
199,131.31100843750002,131.52848816666668,67.0,96.0
200,131.5549109375,132.06304114583335,69.0,112.0
201,132.04271593750002,132.61385429166668,67.0,107.0
202,132.77442343750002,132.88011452083336,67.0,102.0
203,133.0183259375,133.19922029166668,67.0,117.0
204,133.26222843750003,133.50003337500002,65.0,112.0
205,133.7500334375,133.88011477083336,64.0,117.0
206,133.99393593750003,134.7236109166667,67.0,127.0
207,134.72564343750003,136.58133495833334,65.0,127.0
208,136.92076593750002,137.1992212916667,60.0,117.0
209,137.1646684375,137.34353027083336,62.0,102.0
210,137.40857093750003,137.60369293750003,65.0,127.0
211,137.65247343750002,137.7906848541667,67.0,100.0
212,137.8963759375,138.37401833333337,69.0,112.0
213,138.6280834375,139.0955632291667,69.0,127.0
214,139.11588843750002,139.33133564583335,72.0,102.0
215,139.3597909375,139.83133577083336,69.0,117.0
216,139.84759593750002,140.47361235416668,67.0,112.0
217,140.57930343750002,141.0041002916667,67.0,107.0
218,141.06710843750002,141.32930362500002,72.0,102.0
219,141.31101093750001,141.74393787500003,67.0,112.0
220,141.79881593750002,142.21751522916668,65.0,102.0
221,142.53052343750002,142.63011695833336,65.0,95.0
222,142.7744259375,142.89434466666668,65.0,97.0
223,143.01832843750003,143.16060489583336,67.0,107.0
224,143.26223093750002,143.45735293750002,69.0,102.0
225,143.5061334375,143.71345056250001,65.0,107.0
226,143.75003593750003,144.2662962291667,62.0,107.0
227,144.2378409375,144.44719058333337,67.0,127.0
228,144.48174343750003,144.73987358333335,64.0,95.0
229,144.96954843750004,145.15247531250003,64.0,97.0
230,145.21345093750003,146.5345894791667,65.0,112.0
231,146.67686593750003,146.8760529791667,60.0,107.0
232,146.92076843750002,147.0772725416667,62.0,95.0
233,147.16467093750003,147.41060595833335,65.0,117.0
234,147.40857343750002,147.5833702291667,67.0,97.0
235,147.65247593750001,148.1992240416667,69.0,127.0
236,148.3841834375,148.83540306250003,69.0,122.0
237,148.87198843750002,149.13011858333337,72.0,99.0
238,149.1158909375,149.5528829166667,69.0,127.0
239,149.60369593750002,150.1565416041667,67.0,100.0
240,150.33540343750002,150.67889945833335,67.0,112.0
241,150.82320843750003,151.01833043750003,72.0,107.0
242,151.06711093750002,151.5183305625,67.0,122.0
243,151.55491593750003,152.04068841666668,65.0,102.0
244,153.26223343750002,153.57930668750004,62.0,95.0
245,153.50613593750003,154.18499789583336,64.0,127.0
246,154.23784343750003,154.74394112500002,65.0,107.0
247,154.96955093750003,157.3699580416667,65.0,127.0
248,173.01833593750004,173.90248250000002,69.0,127.0
249,173.99394593750003,174.36183220833337,67.0,112.0
250,174.48175093750004,174.96549089583337,72.0,127.0
251,174.96955593750002,175.47158858333336,69.0,112.0
252,176.43297093750002,176.87809300000004,67.0,127.0
253,176.92077593750003,177.23784918750002,65.0,127.0
254,177.40858093750003,177.61793058333336,62.0,112.0
255,177.65248343750002,177.8394753541667,64.0,117.0
256,177.89638593750004,178.27036977083336,65.0,127.0
257,178.38419093750002,178.78866258333335,67.0,107.0
258,178.87199593750003,179.66671158333335,60.0,107.0
259,180.82321593750004,181.68906981250004,69.0,127.0
260,181.79882593750003,182.19110245833338,67.0,112.0
261,182.28663093750004,182.75004568750003,72.0,127.0
262,182.77443593750002,183.8577695416667,69.0,127.0
263,184.23785093750004,184.45126562500002,62.0,100.0
264,184.48175343750003,184.61589981250003,64.0,97.0
265,184.72565593750002,186.10980262500004,65.0,127.0
266,187.65248593750002,187.9309412916667,60.0,117.0
267,187.89638843750004,188.07525027083335,62.0,102.0
268,188.14029093750003,188.33541293750002,65.0,127.0
269,188.38419343750002,188.5224048541667,67.0,100.0
270,188.62809593750004,189.10573833333336,69.0,112.0
271,189.35980343750003,189.8272832291667,69.0,127.0
272,189.84760843750004,190.06305564583337,72.0,102.0
273,190.09151093750003,190.56305577083336,69.0,117.0
274,190.57931593750004,191.2053323541667,67.0,112.0
275,191.31102343750004,191.7358202916667,67.0,107.0
276,191.79882843750002,192.06102362500002,72.0,102.0
277,192.04273093750004,192.47565787500002,67.0,112.0
278,192.53053593750002,192.9492352291667,65.0,102.0
279,193.26224343750002,193.36183695833336,65.0,95.0
280,193.50614593750004,193.6260646666667,65.0,97.0
281,193.75004843750003,193.89232489583335,67.0,107.0
282,193.99395093750005,194.18907293750004,69.0,102.0
283,194.23785343750004,194.44517056250004,65.0,107.0
284,194.48175593750003,194.9980162291667,62.0,107.0
285,194.96956093750003,195.17891058333336,67.0,127.0
286,195.21346343750002,195.47159358333337,64.0,95.0
287,195.70126843750003,195.88419531250003,64.0,97.0
288,195.94517093750002,197.2663094791667,65.0,112.0
289,197.40858593750002,197.6077729791667,60.0,107.0
290,197.65248843750004,197.8089925416667,62.0,95.0
291,197.89639093750003,198.14232595833337,65.0,117.0
292,198.14029343750002,198.31509022916669,67.0,97.0
293,198.38419593750004,198.9309440416667,69.0,127.0
294,199.11590343750004,199.56712306250003,69.0,122.0
295,199.60370843750005,199.86183858333337,72.0,99.0
296,199.84761093750004,200.2846029166667,69.0,127.0
297,200.33541593750004,200.8882616041667,67.0,100.0
298,201.06712343750004,201.41061945833337,67.0,112.0
299,201.55492843750002,201.75005043750002,72.0,107.0
300,201.79883093750004,202.25005056250004,67.0,122.0
301,202.28663593750002,202.7724084166667,65.0,102.0
302,203.75005093750002,203.98175831250003,62.0,112.0
303,203.99395343750004,204.4004576041667,64.0,122.0
304,204.60370968750004,204.99598620833336,65.0,112.0
305,205.21346593750005,206.98379158333336,65.0,127.0
306,208.87200343750004,209.2968002916667,67.0,107.0
307,209.35980843750002,209.62200362500005,72.0,102.0
308,209.60371093750004,210.03663787500003,67.0,112.0
309,210.09151593750002,210.5102152291667,65.0,102.0
310,210.82322343750005,210.92281695833336,65.0,95.0
311,211.06712593750004,211.1870446666667,65.0,97.0
312,211.31102843750003,211.45330489583336,67.0,107.0
313,211.55493093750005,211.75005293750004,69.0,102.0
314,211.79883343750004,212.00615056250004,65.0,107.0
315,212.04273593750003,212.5589962291667,62.0,107.0
316,212.53054093750004,212.73989058333336,67.0,127.0
317,212.77444343750003,213.03257358333337,64.0,95.0
318,213.26224843750003,213.44517531250003,64.0,97.0
319,213.50615093750002,214.8272894791667,65.0,112.0
320,214.96956593750002,215.1687529791667,60.0,107.0
321,215.21346843750004,215.3699725416667,62.0,95.0
322,215.45737093750003,215.70330595833337,65.0,117.0
323,215.70127343750002,215.87607022916671,67.0,97.0
324,215.94517593750004,216.4919240416667,69.0,127.0
325,216.67688343750004,217.12810306250003,69.0,122.0
326,217.16468843750005,217.42281858333337,72.0,99.0
327,217.40859093750004,217.8455829166667,69.0,127.0
328,217.89639593750005,218.87200593750003,67.0,100.0
329,219.35981093750004,219.5772906666667,62.0,100.0
330,219.60371343750003,220.28054287500004,64.0,122.0
331,220.33542093750003,220.63013645833337,65.0,102.0
332,220.82322593750004,222.26428320833338,65.0,127.0
333,224.48176343750004,224.9065602916667,67.0,107.0
334,224.96956843750004,225.23176362500004,72.0,102.0
335,225.21347093750003,225.64639787500005,67.0,112.0
336,225.70127593750004,226.1199752291667,65.0,102.0
337,226.43298343750004,226.53257695833338,65.0,95.0
338,226.67688593750003,226.7968046666667,65.0,97.0
339,226.92078843750005,227.06306489583338,67.0,107.0
340,227.16469093750004,227.35981293750004,69.0,102.0
341,227.40859343750003,227.61591056250003,65.0,107.0
342,227.65249593750005,228.16875622916672,62.0,107.0
343,228.14030093750003,228.34965058333336,67.0,127.0
344,228.38420343750005,228.64233358333337,64.0,95.0
345,228.87200843750003,229.05493531250005,64.0,97.0
346,229.11591093750005,230.43704947916672,65.0,112.0
347,230.57932593750004,230.7785129791667,60.0,107.0
348,230.82322843750003,230.9797325416667,62.0,95.0
349,231.06713093750002,231.31306595833337,65.0,117.0
350,231.31103343750004,231.4858302291667,67.0,97.0
351,231.55493593750003,232.10168404166672,69.0,127.0
352,232.28664343750003,232.73786306250003,69.0,122.0
353,232.77444843750004,233.03257858333336,72.0,99.0
354,233.01835093750003,233.4553429166667,69.0,127.0
355,233.50615593750004,234.0590016041667,67.0,100.0
356,234.23786343750004,234.58135945833337,67.0,112.0
357,234.72566843750005,234.92079043750005,72.0,107.0
358,234.96957093750004,235.42079056250003,67.0,122.0
359,235.45737593750005,235.9431484166667,65.0,102.0
360,236.92079093750004,237.04070966666671,62.0,102.0
361,237.16469343750003,237.8760757291667,64.0,127.0
362,237.89640093750003,238.2358319166667,65.0,107.0
363,238.38420593750004,240.56713331250003,65.0,127.0
364,242.04274343750004,242.4675402916667,67.0,107.0
365,242.53054843750004,242.79274362500004,72.0,102.0
366,242.77445093750003,243.20737787500005,67.0,112.0
367,243.26225593750004,243.6809552291667,65.0,102.0
368,243.99396343750004,244.09355695833338,65.0,95.0
369,244.23786593750003,244.3577846666667,65.0,97.0
370,244.48176843750005,244.62404489583338,67.0,107.0
371,244.72567093750004,244.92079293750004,69.0,102.0
372,244.96957343750003,245.17689056250003,65.0,107.0
373,245.21347593750005,245.31306945833336,64.0,127.0
374,245.45737843750004,245.62404514583338,64.0,112.0
375,245.70128093750003,245.82323218750005,65.0,100.0
376,245.94518343750005,246.18908593750004,60.0,112.0
377,246.43298843750003,246.67689093750005,62.0,102.0
378,246.67689093750005,246.95128125000005,65.0,107.0
379,246.92079343750004,247.20941139583337,67.0,90.0
380,247.16469593750003,247.51225700000003,69.0,102.0
381,247.89640343750003,248.28054987500005,69.0,117.0
382,248.38420843750004,248.62811093750005,72.0,112.0
383,248.62811093750005,249.05697283333336,69.0,127.0
384,249.11591593750003,249.60778597916672,67.0,107.0
385,249.84762343750003,250.23786743750003,67.0,107.0
386,250.33542843750004,250.5529081666667,72.0,107.0
387,250.57933093750003,251.05494081250004,67.0,102.0
388,251.31103843750003,252.14843702083337,65.0,102.0
389,252.53055093750004,252.70738025000003,62.0,102.0
390,252.77445343750003,253.4594129583334,64.0,127.0
391,253.50616093750003,254.1016895416667,65.0,122.0
392,254.48177093750004,257.10372281250005,65.0,127.0
