,start,end,pitch,velocity
0,1.5548784375000002,2.2012200625000005,53.0,66.0
1,1.3109759375000003,2.2398379583333337,46.0,89.0
2,1.7987809375000003,2.2398379583333337,58.0,93.0
3,2.0426834375000005,2.304878625,62.0,83.0
4,2.5304884375000003,3.162602416666667,55.0,55.0
5,3.0182934375000006,3.239838208333334,60.0,56.0
6,2.2865859375000004,3.2439032500000007,48.0,69.0
7,2.7743909375000007,3.2520333333333338,64.0,92.0
8,3.7500009375000007,4.182927875000001,62.0,79.0
9,3.9939034375000007,4.197155520833334,65.0,73.0
10,3.2621959375000005,4.2256108125,50.0,70.0
11,3.5060984375000004,4.272358791666667,57.0,68.0
12,4.237805937500001,4.707318250000001,48.0,67.0
13,4.725610937500001,5.193090729166667,64.0,81.0
14,4.969513437500001,5.1971557708333345,60.0,61.0
15,4.481708437500001,5.260163916666667,55.0,70.0
16,5.457318437500001,6.022359229166668,53.0,63.0
17,5.701220937500001,6.081302333333334,58.0,92.0
18,5.945123437500001,6.138212916666667,62.0,70.0
19,5.213415937500001,6.217481229166667,46.0,76.0
20,6.432928437500001,6.8719529375000015,57.0,66.0
21,6.676830937500001,7.126018041666668,64.0,93.0
22,6.920733437500001,7.144310729166667,60.0,64.0
23,6.189025937500001,7.207318875000001,45.0,69.0
24,7.6524409375000015,8.085367875000001,58.0,95.0
25,7.408538437500002,8.115855687500002,55.0,47.0
26,7.164635937500001,8.117888208333335,43.0,69.0
27,7.8963434375000014,8.119920729166669,62.0,77.0
28,8.140245937500001,8.699189166666669,48.0,75.0
29,8.384148437500002,9.028457541666668,55.0,51.0
30,8.628050937500001,9.056912833333335,60.0,67.0
31,8.871953437500002,9.087400645833334,64.0,66.0
32,9.6036609375,10.180896854166669,50.0,69.0
33,9.847563437500002,10.636181520833334,57.0,68.0
34,10.579270937500002,10.886181583333336,62.0,66.0
35,9.115855937500001,10.971547458333335,38.0,76.0
36,10.335368437500001,11.487807750000002,50.0,62.0
37,9.359758437500002,11.522360604166668,45.0,59.0
38,11.067075937500002,11.666669583333336,62.0,82.0
39,10.091465937500002,11.682929750000001,65.0,90.0
40,10.823173437500001,11.873986708333335,57.0,55.0
41,11.067075937500002,12.07723879166667,38.0,60.0
42,12.042685937500002,12.522360854166669,36.0,71.0
43,12.042685937500002,13.010165854166669,55.0,93.0
44,12.042685937500002,13.032523583333335,60.0,85.0
45,12.042685937500002,13.063011395833335,64.0,78.0
46,14.481710937500003,15.121955000000002,57.0,58.0
47,13.993905937500003,15.174800541666668,53.0,55.0
48,14.969515937500002,15.810979562500002,60.0,65.0
49,13.506100937500003,16.296752041666668,48.0,56.0
50,13.018295937500001,16.363825229166668,41.0,72.0
51,14.969515937500002,16.963418875000002,65.0,64.0
52,15.945125937500002,16.995939208333336,60.0,86.0
53,16.432930937500004,17.024394500000003,57.0,63.0
54,18.384150937500003,19.020329958333335,55.0,58.0
55,18.871955937500005,19.715452083333336,64.0,59.0
56,18.871955937500005,19.865858625000005,60.0,63.0
57,17.8963459375,20.042687937500002,48.0,72.0
58,20.091468437500005,20.24187497916667,48.0,55.0
59,16.9207359375,20.47967991666667,36.0,73.0
60,17.408540937500003,20.810980812500002,43.0,60.0
61,20.335370937500002,20.884151562500005,60.0,53.0
62,20.579273437500003,20.88821660416667,55.0,62.0
63,19.847565937500004,20.892281645833336,64.0,79.0
64,21.798785937500003,22.152444562500005,50.0,85.0
65,20.823175937500004,22.69309510416667,38.0,69.0
66,21.310980937500002,22.78455854166667,45.0,49.0
67,22.286590937500005,22.91870491666667,57.0,79.0
68,22.774395937500003,23.615859562500003,66.0,92.0
69,22.774395937500003,23.64431485416667,62.0,64.0
70,22.774395937500003,24.105697083333336,42.0,65.0
71,23.750005937500003,24.79675416666667,62.0,85.0
72,23.750005937500003,24.817079375000002,66.0,117.0
73,24.237810937500004,24.920737937500004,57.0,77.0
74,25.213420937500004,26.176835812500006,50.0,56.0
75,24.725615937500002,26.28252689583334,43.0,72.0
76,25.701225937500006,26.408543187500005,62.0,97.0
77,26.189030937500004,26.475616375000005,58.0,89.0
78,26.676835937500005,27.176836062500005,54.0,69.0
79,26.676835937500005,27.630088208333337,57.0,73.0
80,26.676835937500005,28.148381020833337,42.0,69.0
81,27.652445937500005,28.256104625000006,54.0,72.0
82,26.676835937500005,28.51016972916667,60.0,81.0
83,28.140250937500003,28.642283583333338,57.0,66.0
84,28.628055937500005,29.691064333333337,46.0,68.0
85,30.091470937500006,30.628056437500003,58.0,72.0
86,29.115860937500006,30.678869458333338,53.0,72.0
87,29.603665937500004,30.69106458333334,62.0,90.0
88,30.579275937500004,32.010170604166674,36.0,66.0
89,31.067080937500005,32.02236572916667,43.0,58.0
90,31.554885937500003,32.29675604166667,48.0,48.0
91,31.554885937500003,32.55082114583334,60.0,83.0
92,32.042690937500005,32.579276437500006,55.0,68.0
93,33.01830093750001,33.65041491666667,52.0,67.0
94,32.53049593750001,33.75407347916667,45.0,75.0
95,33.5061059375,34.447163083333336,61.0,117.0
96,33.993910937500004,35.66057802083334,57.0,69.0
97,34.96952093750001,35.851634979166676,45.0,56.0
98,34.481715937500006,35.91057808333334,38.0,66.0
99,35.45732593750001,36.42887089583334,65.0,97.0
100,35.45732593750001,36.4451310625,50.0,43.0
101,36.432935937500005,37.932936312500004,46.0,60.0
102,37.40854593750001,38.384155937500005,62.0,93.0
103,36.92074093750001,38.42277383333334,53.0,82.0
104,37.8963509375,38.42887139583334,58.0,70.0
105,38.871960937500006,39.924806729166676,55.0,69.0
106,38.384155937500005,40.25204258333334,48.0,59.0
107,39.84757093750001,40.457327187500006,60.0,88.0
108,39.35976593750001,40.46139222916667,64.0,95.0
109,41.79879093750001,41.975620250000006,57.0,85.0
110,40.335375937500004,42.23984795833334,41.0,77.0
111,40.823180937500005,42.28456341666667,48.0,58.0
112,42.28659593750001,42.83740908333334,62.0,86.0
113,41.31098593750001,43.058953854166674,53.0,86.0
114,42.28659593750001,43.144319729166675,58.0,107.0
115,42.28659593750001,43.19716527083334,46.0,90.0
116,43.262205937500006,44.14228745833334,48.0,67.0
117,43.262205937500006,44.21545820833334,55.0,82.0
118,43.262205937500006,44.243913500000005,64.0,93.0
119,43.262205937500006,44.25610862500001,60.0,93.0
120,44.23781593750001,46.00814158333334,41.0,83.0
121,44.725620937500004,46.20529610416668,48.0,50.0
122,45.213425937500006,46.94716620833334,60.0,96.0
123,45.70123093750001,47.09350770833334,57.0,52.0
124,46.67684093750001,47.351637854166675,48.0,59.0
125,46.18903593750001,47.48781675000001,41.0,66.0
126,47.65245093750001,48.19716652083334,57.0,71.0
127,47.164645937500005,48.20732912500001,60.0,100.0
128,49.11586593750001,49.60773597916668,48.0,54.0
129,48.14025593750001,49.93090679166667,36.0,75.0
130,48.62806093750001,50.152451562500005,43.0,56.0
131,49.11586593750001,50.95732981250001,60.0,95.0
132,49.603670937500006,51.18293962500001,55.0,71.0
133,51.31098843750001,51.640256812500006,55.0,66.0
134,50.09147593750001,51.873996708333344,36.0,85.0
135,50.57928093750001,52.06098862500001,43.0,54.0
136,51.554890937500005,52.093508958333345,60.0,89.0
137,51.06708593750001,52.11586668750001,64.0,107.0
138,51.79879343750001,52.121964250000005,55.0,88.0
139,53.01830593750001,53.55082639583334,62.0,97.0
140,53.50611093750001,53.743915875000006,57.0,85.0
141,52.04269593750001,53.827249229166675,38.0,79.0
142,53.01830593750001,53.83741183333334,50.0,72.0
143,52.53050093750001,53.91668014583334,45.0,59.0
144,53.75001343750001,54.046761479166676,55.0,70.0
145,54.48172093750001,55.028469041666675,50.0,89.0
146,53.993915937500006,55.245948770833344,42.0,95.0
147,55.45733093750001,55.96952618750001,54.0,92.0
148,54.96952593750001,55.979688791666675,57.0,93.0
149,56.43294093750001,57.40448589583334,50.0,63.0
150,55.94513593750001,57.52643714583334,43.0,90.0
151,57.40855093750001,57.89635593750001,58.0,99.0
152,56.92074593750001,57.89635593750001,62.0,100.0
153,58.384160937500006,58.97765702083334,57.0,62.0
154,57.89635593750001,59.57521814583334,42.0,95.0
155,58.87196593750001,59.821153166666676,60.0,92.0
156,59.35977093750001,59.83538081250001,57.0,73.0
157,60.33538093750001,60.971559958333344,53.0,71.0
158,59.84757593750001,61.28253564583334,46.0,90.0
159,61.31099093750001,61.79879593750001,53.0,59.0
160,60.82318593750001,61.79879593750001,58.0,97.0
161,60.82318593750001,61.79879593750001,62.0,96.0
162,62.28660093750001,62.84554416666668,55.0,69.0
163,61.79879593750001,63.08741414583334,36.0,85.0
164,62.28660093750001,63.26221093750001,48.0,38.0
165,62.77440593750001,63.723593166666674,64.0,90.0
166,63.26221093750001,63.73172325000001,55.0,74.0
167,62.77440593750001,63.741885854166675,60.0,95.0
168,64.2378209375,64.82318693750001,52.0,74.0
169,63.75001593750001,64.89026012500001,45.0,82.0
170,64.72562593750001,65.79066685416667,61.0,90.0
171,64.72562593750001,65.79676441666668,64.0,95.0
172,65.21343093750001,66.00408154166668,57.0,89.0
173,66.18904093750001,66.97156145833334,45.0,47.0
174,65.70123593750002,67.02440700000001,38.0,72.0
175,66.6768459375,67.34351277083334,50.0,76.0
176,66.6768459375,67.36180545833335,65.0,107.0
177,67.16465093750001,67.66871610416668,64.0,93.0
178,66.92074843750001,67.76424458333335,57.0,67.0
179,68.14026093750002,68.67887895833334,53.0,81.0
180,67.65245593750001,68.86993591666668,46.0,92.0
181,68.62806593750001,69.62806618750001,62.0,96.0
182,69.1158709375,69.63009870833335,53.0,72.0
183,68.62806593750001,69.63619627083334,58.0,79.0
184,70.09148093750001,70.77847297916668,55.0,78.0
185,69.60367593750001,71.39839183333335,48.0,75.0
186,71.06709093750001,71.64839189583334,60.0,88.0
187,70.57928593750002,71.65855450000001,64.0,99.0
188,73.01831093750002,73.26424595833335,57.0,75.0
189,72.53050593750001,73.27237604166667,60.0,102.0
190,71.5548959375,73.48579072916668,41.0,92.0
191,72.04270093750002,73.48579072916668,48.0,65.0
192,73.50611593750001,74.0914819375,62.0,97.0
193,73.50611593750001,74.30286410416667,53.0,89.0
194,73.50611593750001,74.37400233333335,58.0,112.0
195,73.50611593750001,74.41262022916668,46.0,86.0
196,74.48172593750002,75.37197006250001,48.0,92.0
197,74.48172593750002,75.44514081250001,60.0,100.0
198,74.48172593750002,75.46343350000001,55.0,95.0
199,74.48172593750002,75.47359610416667,64.0,96.0
200,75.94514093750001,76.34758006250001,53.0,89.0
201,75.70123843750001,76.57115735416667,48.0,88.0
202,76.18904343750002,76.79473464583334,57.0,81.0
203,76.67684843750001,77.04473470833335,48.0,72.0
204,75.4573359375,77.06912495833335,41.0,81.0
205,76.43294593750001,77.29066972916668,65.0,122.0
206,77.16465343750001,77.44717383333335,57.0,92.0
207,76.92075093750002,77.45936895833334,60.0,100.0
208,77.8963609375,78.48579197916668,48.0,95.0
209,78.14026343750001,78.5305074375,55.0,92.0
210,78.62806843750002,78.86790589583335,48.0,97.0
211,77.40855593750001,78.99188966666668,36.0,67.0
212,77.65245843750002,79.0305075625,43.0,78.0
213,78.38416593750001,79.35571089583334,64.0,112.0
214,78.87197093750001,79.39026375000002,60.0,92.0
215,79.11587343750001,79.41465400000001,55.0,100.0
216,79.84758093750001,80.42888189583334,50.0,95.0
217,80.09148343750002,80.47969491666667,57.0,90.0
218,79.60367843750001,80.71343481250001,45.0,69.0
219,79.35977593750002,80.76424783333334,38.0,86.0
220,80.57928843750001,80.97969504166667,50.0,96.0
221,80.3353859375,81.13416662500002,65.0,122.0
222,80.82319093750002,81.14636175000001,62.0,100.0
223,81.06709343750002,81.31099593750001,57.0,97.0
224,81.31099593750001,81.93904487500001,46.0,112.0
225,81.55489843750001,81.97156520833335,53.0,77.0
226,81.79880093750002,82.00611806250001,62.0,102.0
227,82.53050843750002,82.76018329166668,55.0,93.0
228,82.04270343750001,82.80896379166668,48.0,93.0
229,83.5061184375,83.82928925000002,55.0,81.0
230,83.26221593750002,83.93294781250002,53.0,72.0
231,83.75002093750001,83.96140310416668,57.0,59.0
232,83.01831343750001,84.13823241666668,48.0,52.0
233,82.77441093750001,84.15449258333335,41.0,79.0
234,83.99392343750002,84.17888283333335,55.0,82.0
235,84.23782593750002,85.19311072916668,60.0,122.0
236,84.23782593750002,85.20733837500002,48.0,97.0
237,84.23782593750002,85.21343593750001,64.0,102.0
238,84.23782593750002,85.23985870833334,55.0,77.0
239,85.70124093750002,86.03660687500002,53.0,93.0
240,85.45733843750001,86.28457441666669,48.0,81.0
241,85.94514343750001,86.44311104166668,57.0,83.0
242,86.43294843750002,86.66668833333335,48.0,78.0
243,85.21343593750001,86.68091597916668,41.0,72.0
244,86.18904593750001,87.02237947916669,65.0,97.0
245,86.67685093750002,87.18904618750001,60.0,90.0
246,86.92075343750001,87.19920879166668,57.0,86.0
247,87.65246093750001,88.23579441666668,48.0,88.0
248,87.89636343750001,88.28050987500002,55.0,82.0
249,87.40855843750002,88.85571327083335,43.0,58.0
250,87.16465593750002,88.88620108333335,36.0,69.0
251,88.38416843750001,88.94107914583334,48.0,79.0
252,88.14026593750002,89.05083527083335,64.0,112.0
253,88.62807093750001,89.06506291666668,60.0,95.0
254,88.87197343750002,89.07929056250002,55.0,75.0
255,89.60368093750002,90.14229895833334,50.0,82.0
256,89.84758343750002,90.37197381250002,57.0,88.0
257,89.35977843750001,90.37807137500002,45.0,58.0
258,89.11587593750001,90.49189254166669,38.0,81.0
259,90.33538843750001,90.71140479166668,50.0,83.0
260,90.09148593750001,90.90246175000001,65.0,99.0
261,90.57929093750002,90.91668939583334,62.0,89.0
262,90.82319343750001,91.04270568750002,57.0,68.0
263,91.55490093750001,91.67481966666668,62.0,34.0
264,91.31099843750002,91.74189285416668,53.0,40.0
265,91.06709593750001,91.74799041666668,46.0,107.0
266,91.55490093750001,91.75815302083335,58.0,89.0
267,92.53051093750001,94.91465787500002,55.0,64.0
268,92.53051093750001,94.94921072916668,60.0,85.0
269,92.53051093750001,94.96547089583335,64.0,83.0
270,91.79880343750001,94.96750341666669,48.0,92.0
271,94.96953593750001,95.90652804166668,46.0,93.0
272,95.21343843750002,95.91262560416668,53.0,63.0
273,95.70124343750001,95.92685325000002,58.0,88.0
274,95.45734093750002,95.93295081250001,62.0,90.0
275,95.94514593750002,96.77034939583335,48.0,63.0
276,96.18904843750002,96.80083720833335,55.0,53.0
277,96.67685343750001,96.96750391666669,60.0,79.0
278,96.43295093750001,96.99392668750002,64.0,97.0
279,97.40856093750001,97.74189435416669,50.0,74.0
280,96.92075593750002,97.74595939583335,38.0,67.0
281,97.16465843750001,97.79067485416668,45.0,70.0
282,97.65246343750002,97.91262610416668,57.0,82.0
283,97.89636593750002,98.52238235416668,36.0,71.0
284,98.38417093750002,98.84758568750001,64.0,89.0
285,98.62807343750002,98.85165072916668,60.0,70.0
286,98.14026843750001,98.92075643750002,55.0,72.0
287,98.87197593750001,99.72156964583336,46.0,88.0
288,99.11587843750002,99.77035014583335,53.0,67.0
289,99.35978093750002,99.87197618750001,62.0,89.0
290,99.60368343750001,99.87807375000001,58.0,90.0
291,99.84758593750001,100.57929343750001,45.0,72.0
292,100.33539093750002,100.76425283333334,64.0,86.0
293,100.09148843750002,100.78254552083335,57.0,53.0
294,100.57929343750001,100.80896829166669,60.0,77.0
295,101.55490343750002,101.70734250000001,58.0,88.0
296,100.82319593750002,101.72563518750002,43.0,63.0
297,101.31100093750001,101.75205795833335,62.0,95.0
298,101.06709843750002,101.77035064583335,55.0,59.0
299,101.79880593750002,102.30693614583335,48.0,85.0
300,102.04270843750001,102.77238341666668,55.0,58.0
301,102.28661093750001,102.79880618750002,64.0,89.0
302,102.53051343750002,102.80083870833334,60.0,68.0
303,103.26222093750002,103.89230239583335,50.0,71.0
304,103.50612343750002,103.89839995833336,57.0,50.0
305,103.99392843750002,104.55287166666669,50.0,63.0
306,103.75002593750001,105.25205883333335,65.0,97.0
307,103.01831843750001,105.37401008333335,45.0,45.0
308,104.23783093750002,105.39840033333336,64.0,85.0
309,104.48173343750001,105.43498570833334,57.0,32.0
310,102.77441593750002,105.44311579166668,38.0,74.0
311,104.72563593750002,105.71344106250001,50.0,68.0
312,105.70124593750002,106.34962008333335,48.0,71.0
313,105.70124593750002,106.59149006250001,55.0,97.0
314,105.70124593750002,106.61384779166669,60.0,96.0
315,105.70124593750002,106.62401039583335,64.0,93.0
316,106.67685593750002,108.44718158333335,41.0,83.0
317,107.16466093750002,108.64433610416668,48.0,50.0
318,107.65246593750001,109.38620620833335,60.0,96.0
319,108.14027093750002,109.53254770833335,57.0,52.0
320,109.11588093750002,109.79067785416669,48.0,59.0
321,108.62807593750001,109.92685675000001,41.0,66.0
322,110.09149093750001,110.63620652083335,57.0,71.0
323,109.60368593750002,110.64636912500002,60.0,100.0
324,111.55490593750002,112.04677597916668,48.0,54.0
325,110.57929593750002,112.36994679166669,36.0,75.0
326,111.06710093750002,112.59149156250002,43.0,56.0
327,111.55490593750002,113.39636981250001,60.0,95.0
328,112.04271093750002,113.62197962500002,55.0,71.0
329,113.75002843750002,114.07929681250002,55.0,66.0
330,112.53051593750001,114.31303670833336,36.0,85.0
331,113.01832093750002,114.50002862500001,43.0,54.0
332,113.99393093750002,114.53254895833335,60.0,89.0
333,113.50612593750002,114.55490668750002,64.0,107.0
334,114.23783343750002,114.56100425000002,55.0,88.0
335,115.45734593750002,115.98986639583335,62.0,97.0
336,115.94515093750002,116.18295587500002,57.0,85.0
337,114.48173593750002,116.26628922916669,38.0,79.0
338,115.45734593750002,116.27645183333335,50.0,72.0
339,114.96954093750001,116.35572014583335,45.0,59.0
340,116.18905343750002,116.48580147916668,55.0,70.0
341,116.92076093750002,117.46750904166669,50.0,89.0
342,116.43295593750003,117.68498877083336,42.0,95.0
343,117.89637093750002,118.40856618750001,54.0,92.0
344,117.40856593750001,118.41872879166668,57.0,93.0
345,118.87198093750001,119.84352589583335,50.0,63.0
346,118.38417593750002,119.96547714583335,43.0,90.0
347,119.84759093750002,120.33539593750002,58.0,99.0
348,119.35978593750002,120.33539593750002,62.0,100.0
349,120.82320093750002,121.41669702083335,57.0,62.0
350,120.33539593750002,122.01425814583335,42.0,95.0
351,121.31100593750001,122.26019316666668,60.0,92.0
352,121.79881093750002,122.27442081250003,57.0,73.0
353,122.77442093750003,123.41059995833335,53.0,71.0
354,122.28661593750002,123.72157564583335,46.0,90.0
355,123.75003093750001,124.23783593750002,53.0,59.0
356,123.26222593750002,124.23783593750002,58.0,97.0
357,123.26222593750002,124.23783593750002,62.0,96.0
358,124.72564093750002,125.28458416666669,55.0,69.0
359,124.23783593750002,125.52645414583336,36.0,85.0
360,124.72564093750002,125.70125093750002,48.0,38.0
361,125.21344593750003,126.16263316666668,64.0,90.0
362,125.70125093750002,126.17076325000002,55.0,74.0
363,125.21344593750003,126.18092585416669,60.0,95.0
364,126.67686093750002,127.26222693750002,52.0,74.0
365,126.18905593750002,127.32930012500002,45.0,82.0
366,127.16466593750002,128.2297068541667,61.0,90.0
367,127.16466593750002,128.2358044166667,64.0,95.0
368,127.65247093750003,128.4431215416667,57.0,89.0
369,128.62808093750002,129.41060145833336,45.0,47.0
370,128.1402759375,129.46344700000003,38.0,72.0
371,129.11588593750002,129.78255277083335,50.0,76.0
372,129.11588593750002,129.80084545833336,65.0,107.0
373,129.60369093750003,130.1077561041667,64.0,93.0
374,129.35978843750001,130.20328458333336,57.0,67.0
375,130.57930093750002,131.11791895833335,53.0,81.0
376,130.0914959375,131.3089759166667,46.0,92.0
377,131.06710593750003,132.06710618750003,62.0,96.0
378,131.5549109375,132.06913870833336,53.0,72.0
379,131.06710593750003,132.07523627083336,58.0,79.0
380,132.53052093750003,133.21751297916668,55.0,78.0
381,132.04271593750002,133.83743183333337,48.0,75.0
382,133.50613093750002,134.08743189583336,60.0,88.0
383,133.0183259375,134.0975945,64.0,99.0
384,135.45735093750002,135.70328595833337,57.0,75.0
385,134.96954593750002,135.7114160416667,60.0,102.0
386,133.99393593750003,135.9248307291667,41.0,92.0
387,134.48174093750004,135.9248307291667,48.0,65.0
388,135.94515593750003,136.53052193750003,62.0,97.0
389,135.94515593750003,136.74190410416668,53.0,89.0
390,135.94515593750003,136.81304233333336,58.0,112.0
391,135.94515593750003,136.8516602291667,46.0,86.0
392,136.92076593750002,137.81101006250003,48.0,92.0
393,136.92076593750002,137.88418081250003,60.0,100.0
394,136.92076593750002,137.9024735,55.0,95.0
395,136.92076593750002,137.9126361041667,64.0,96.0
396,138.38418093750002,138.78662006250002,53.0,89.0
397,138.14027843750003,139.01019735416668,48.0,88.0
398,138.6280834375,139.23377464583336,57.0,81.0
399,139.11588843750002,139.48377470833336,48.0,72.0
400,137.8963759375,139.50816495833337,41.0,81.0
401,138.87198593750003,139.7297097291667,65.0,122.0
402,139.60369343750003,139.88621383333336,57.0,92.0
403,139.3597909375,139.89840895833336,60.0,100.0
404,140.33540093750003,140.9248319791667,48.0,95.0
405,140.57930343750002,140.9695474375,55.0,92.0
406,141.06710843750002,141.30694589583337,48.0,97.0
407,139.84759593750002,141.43092966666669,36.0,67.0
408,140.09149843750004,141.46954756250003,43.0,78.0
409,140.82320593750003,141.79475089583335,64.0,112.0
410,141.31101093750001,141.82930375000004,60.0,92.0
411,141.55491343750003,141.85369400000002,55.0,100.0
412,142.28662093750003,142.86792189583335,50.0,95.0
413,142.53052343750002,142.9187349166667,57.0,90.0
414,142.0427184375,143.15247481250003,45.0,69.0
415,141.79881593750002,143.20328783333335,38.0,86.0
416,143.01832843750003,143.41873504166668,50.0,96.0
417,142.7744259375,143.573206625,65.0,122.0
418,143.26223093750002,143.58540175000002,62.0,100.0
419,143.5061334375,143.75003593750003,57.0,97.0
420,143.75003593750003,144.378084875,46.0,112.0
421,143.99393843750002,144.41060520833335,53.0,77.0
422,144.2378409375,144.4451580625,62.0,102.0
423,144.96954843750004,145.1992232916667,55.0,93.0
424,144.48174343750003,145.2480037916667,48.0,93.0
425,145.94515843750003,146.26832925000002,55.0,81.0
426,145.70125593750004,146.37198781250004,53.0,72.0
427,146.18906093750002,146.4004431041667,57.0,59.0
428,145.45735343750002,146.5772724166667,48.0,52.0
429,145.21345093750003,146.59353258333337,41.0,79.0
430,146.43296343750004,146.61792283333335,55.0,82.0
431,146.67686593750003,147.63215072916668,60.0,122.0
432,146.67686593750003,147.646378375,48.0,97.0
433,146.67686593750003,147.65247593750001,64.0,102.0
434,146.67686593750003,147.67889870833335,55.0,77.0
435,148.14028093750002,148.47564687500002,53.0,93.0
436,147.89637843750003,148.7236144166667,48.0,81.0
437,148.3841834375,148.8821510416667,57.0,83.0
438,148.87198843750002,149.10572833333336,48.0,78.0
439,147.65247593750001,149.1199559791667,41.0,72.0
440,148.62808593750003,149.4614194791667,65.0,97.0
441,149.1158909375,149.62808618750003,60.0,90.0
442,149.35979343750003,149.63824879166668,57.0,86.0
443,150.09150093750003,150.6748344166667,48.0,88.0
444,150.33540343750002,150.719549875,55.0,82.0
445,149.8475984375,151.29475327083335,43.0,58.0
446,149.60369593750002,151.32524108333337,36.0,69.0
447,150.82320843750003,151.38011914583336,48.0,79.0
448,150.57930593750004,151.48987527083335,64.0,112.0
449,151.06711093750002,151.50410291666668,60.0,95.0
450,151.31101343750004,151.5183305625,55.0,75.0
451,152.04272093750004,152.58133895833336,50.0,82.0
452,152.28662343750003,152.81101381250002,57.0,88.0
453,151.79881843750002,152.81711137500002,45.0,58.0
454,151.55491593750003,152.9309325416667,38.0,81.0
455,152.77442843750003,153.1504447916667,50.0,83.0
456,152.53052593750002,153.34150175000002,65.0,99.0
457,153.01833093750002,153.35572939583335,62.0,89.0
458,153.26223343750002,153.48174568750002,57.0,68.0
459,153.9939409375,154.11385966666668,62.0,34.0
460,153.75003843750002,154.18093285416668,53.0,40.0
461,153.50613593750003,154.1870304166667,46.0,107.0
462,153.9939409375,154.19719302083337,58.0,89.0
463,154.96955093750003,157.35369787500002,55.0,64.0
464,154.96955093750003,157.38825072916669,60.0,85.0
465,154.96955093750003,157.40451089583337,64.0,83.0
466,154.23784343750003,157.4065434166667,48.0,92.0
467,157.65247843750004,158.18296637500003,53.0,89.0
468,157.89638093750003,158.33743795833337,58.0,117.0
469,157.40857593750002,158.35979568750002,46.0,97.0
470,158.14028343750002,158.3943485416667,62.0,93.0
471,158.62808843750003,159.17686906250003,55.0,73.0
472,158.87199093750002,159.31914552083336,64.0,99.0
473,158.38418593750004,159.32930812500004,48.0,86.0
474,159.11589343750003,159.3333731666667,60.0,83.0
475,159.35979593750002,159.91670664583336,50.0,79.0
476,159.84760093750003,160.3354059375,65.0,107.0
477,159.60369843750001,160.3394709791667,57.0,77.0
478,160.09150343750002,160.36589375000003,62.0,90.0
479,160.3354059375,160.92280445833336,48.0,93.0
480,160.82321093750002,161.21345493750002,64.0,102.0
481,161.0671134375,161.2419102291667,60.0,93.0
482,160.57930843750003,161.26020291666669,55.0,70.0
483,161.55491843750002,161.9431299166667,53.0,69.0
484,161.79882093750004,162.15247956250002,58.0,112.0
485,162.04272343750003,162.22768283333335,62.0,93.0
486,161.31101593750003,162.2723982916667,46.0,92.0
487,162.53052843750004,163.03662612500003,57.0,83.0
488,162.77443093750003,163.19516275000004,64.0,107.0
489,163.01833343750002,163.20329283333336,60.0,75.0
490,162.28662593750002,163.20939039583337,45.0,90.0
491,163.75004093750002,164.0833743541667,58.0,107.0
492,163.99394343750004,164.17687031250003,62.0,93.0
493,163.26223593750004,164.22768333333335,43.0,82.0
494,163.50613843750003,164.23987845833335,55.0,70.0
495,164.23784593750003,164.78459404166668,48.0,100.0
496,164.48174843750002,165.0467892291667,55.0,86.0
497,164.96955343750002,165.19313072916668,60.0,97.0
498,164.72565093750003,165.19922829166669,64.0,107.0
499,165.45735843750003,165.87199268750004,58.0,89.0
500,165.70126093750002,165.97565125000003,62.0,107.0
501,165.9451634375,166.1138626666667,65.0,100.0
502,165.21345593750002,166.15248056250002,46.0,102.0
503,166.43296843750002,166.84760268750003,55.0,86.0
504,166.6768709375,167.1016677916667,64.0,107.0
505,166.18906593750003,167.13418812500004,48.0,69.0
506,166.92077343750003,167.25613937500003,60.0,100.0
507,167.65248093750003,168.00207452083336,60.0,112.0
508,167.40857843750004,168.01223712500004,57.0,81.0
509,167.89638343750002,168.07321275000004,64.0,90.0
510,167.16467593750002,168.19922904166668,45.0,83.0
511,168.14028593750004,168.86792839583336,50.0,82.0
512,168.87199343750004,169.08134308333337,62.0,67.0
513,168.62809093750002,169.11183089583335,66.0,127.0
514,168.38418843750003,169.14231870833336,57.0,82.0
515,169.35979843750002,169.75817252083337,53.0,67.0
516,169.60370093750004,169.9858148541667,58.0,107.0
517,169.84760343750003,170.16467668750002,53.0,86.0
518,170.33540843750004,170.67483941666669,53.0,76.0
519,169.11589593750003,170.98175006250003,46.0,92.0
520,170.57931093750003,171.02443300000002,58.0,85.0
521,170.09150593750002,171.05492081250003,62.0,97.0
522,170.82321343750002,171.11792895833335,53.0,68.0
523,171.31101843750002,171.6809372291667,55.0,77.0
524,171.55492093750001,171.93703485416668,60.0,86.0
525,171.79882343750003,172.0224007291667,55.0,95.0
526,171.06711593750003,172.18296987500003,48.0,78.0
527,172.04272593750002,172.59150656250003,60.0,102.0
528,172.28662843750004,172.59353908333335,48.0,112.0
529,172.04272593750002,172.61183177083336,64.0,117.0
530,172.53053093750003,173.05492131250003,55.0,90.0
531,173.26223843750003,173.62199462500004,53.0,83.0
532,173.75004343750004,174.00004350000003,53.0,85.0
533,173.01833593750004,174.0406939166667,46.0,107.0
534,173.50614093750002,174.06305164583335,58.0,127.0
535,174.48175093750004,174.52443387500003,64.0,59.0
536,174.48175093750004,174.92687300000003,60.0,95.0
537,174.23784843750002,174.94110064583336,55.0,86.0
538,173.99394593750003,174.94516568750004,48.0,100.0
539,174.72565343750003,174.95939333333337,64.0,86.0
540,175.45736093750003,175.8638651041667,65.0,99.0
541,174.96955593750002,175.9309382916667,50.0,96.0
542,175.21345843750004,175.9309382916667,57.0,72.0
543,175.70126343750002,175.95329602083336,62.0,92.0
544,175.94516593750004,176.76833687500002,48.0,97.0
545,176.67687343750003,176.86793039583335,60.0,92.0
546,176.43297093750002,176.87199543750003,64.0,102.0
547,176.18906843750003,176.95126375000004,55.0,79.0
548,177.16467843750002,177.81102006250003,53.0,82.0
549,177.65248343750002,177.8333777916667,58.0,117.0
550,177.40858093750003,177.85980056250003,62.0,97.0
551,176.92077593750003,177.88012577083336,46.0,100.0
552,178.14028843750003,178.74597964583336,55.0,70.0
553,177.89638593750004,178.83744308333337,48.0,78.0
554,178.62809343750004,178.84150812500002,64.0,90.0
555,178.38419093750002,178.9126463541667,60.0,107.0
556,179.35980093750004,179.7663051041667,65.0,100.0
557,179.11589843750002,179.80695552083336,57.0,74.0
558,178.87199593750003,179.81711812500004,50.0,92.0
559,179.60370343750003,179.84354089583337,62.0,102.0
560,180.33541093750003,180.7602077916667,64.0,102.0
561,180.57931343750002,180.77443543750002,60.0,99.0
562,179.84760593750002,180.78663056250002,48.0,95.0
563,180.09150843750004,180.85573627083338,55.0,81.0
564,181.06711843750003,181.75614300000004,53.0,70.0
565,180.82321593750004,181.82931375000004,46.0,100.0
566,181.31102093750002,181.8333787916667,62.0,88.0
567,181.55492343750004,181.8516714791667,58.0,117.0
568,182.04272843750002,182.55085864583336,55.0,73.0
569,181.79882593750003,182.7724034166667,48.0,65.0
570,182.28663093750004,182.7785009791667,64.0,97.0
571,182.53053343750003,182.90858231250002,60.0,99.0
572,183.26224093750002,183.62402964583336,64.0,97.0
573,182.77443593750002,183.7480134166667,45.0,81.0
574,183.50614343750004,183.78663131250002,60.0,97.0
575,183.01833843750003,183.82321668750004,57.0,79.0
576,183.75004593750003,184.62606241666668,50.0,117.0
577,184.23785093750004,184.64029006250004,66.0,122.0
578,184.48175343750003,184.69516812500004,62.0,92.0
579,183.99394843750002,184.72159089583337,57.0,85.0
580,184.96955843750004,185.37403008333337,53.0,60.0
581,185.21346093750003,185.57321712500004,58.0,100.0
582,185.45736343750002,185.77443668750004,53.0,72.0
583,184.72565593750002,185.89029037500003,46.0,97.0
584,185.70126593750004,186.2845994166667,58.0,76.0
585,186.18907093750002,186.47565637500003,53.0,86.0
586,185.70126593750004,186.49394906250004,62.0,97.0
587,186.43297343750004,186.57321737500004,58.0,102.0
588,185.94516843750003,186.60370518750003,46.0,86.0
589,186.67687593750003,187.03053456250004,55.0,90.0
590,186.67687593750003,187.2785021041667,60.0,112.0
591,186.67687593750003,187.33744520833335,48.0,107.0
592,186.67687593750003,187.4797216666667,64.0,107.0
593,187.16468093750004,187.63419325000004,55.0,99.0
594,187.40858343750003,187.7175266041667,48.0,89.0
595,187.65248593750002,188.21955925000003,60.0,117.0
596,188.14029093750003,188.48175443750003,55.0,96.0
597,187.89638843750004,188.52443737500002,48.0,127.0
598,187.65248593750002,188.54273006250003,64.0,102.0
599,188.38419343750002,188.5589902291667,60.0,107.0
600,189.11590093750004,189.45736443750002,53.0,107.0
601,188.87199843750003,189.7114295416667,48.0,102.0
602,189.35980343750003,189.81915314583335,57.0,100.0
603,189.84760843750004,190.0955759791667,48.0,96.0
604,188.62809593750004,190.1260637916667,41.0,92.0
605,189.60370593750002,190.34354352083335,65.0,127.0
606,190.33541343750002,190.59354358333337,57.0,99.0
607,190.09151093750003,190.6260639166667,60.0,122.0
608,191.06712093750002,191.64842189583337,48.0,97.0
609,191.31102343750004,191.73785281250002,55.0,96.0
610,191.79882843750002,192.03663337500004,48.0,112.0
611,190.57931593750004,192.4065521666667,36.0,89.0
612,191.55492593750003,192.48175543750003,64.0,127.0
613,190.82321843750003,192.54882862500003,43.0,86.0
614,192.28663343750003,192.55492618750003,55.0,100.0
615,192.04273093750004,193.2236255416667,60.0,97.0
616,193.01834093750003,193.59354433333337,50.0,100.0
617,193.26224343750002,193.65248743750004,57.0,78.0
618,192.77443843750004,193.95126800000003,45.0,95.0
619,193.50614593750004,194.00208102083337,65.0,117.0
620,192.53053593750002,194.05086152083337,38.0,95.0
621,193.50614593750004,194.05492656250004,62.0,102.0
622,193.99395093750005,194.1931379791667,57.0,102.0
623,194.23785343750004,194.33744695833337,58.0,74.0
624,193.75004843750003,194.35980468750003,50.0,107.0
625,194.48175593750003,194.65858525000004,53.0,96.0
626,194.48175593750003,194.94720320833338,65.0,90.0
627,194.48175593750003,195.02647152083335,62.0,97.0
628,194.96956093750003,195.09964227083336,53.0,93.0
629,194.48175593750003,195.10980487500004,58.0,127.0
630,194.48175593750003,195.13013008333337,46.0,117.0
631,195.21346343750002,195.49598383333336,55.0,95.0
632,195.21346343750002,195.71549608333336,64.0,112.0
633,195.21346343750002,195.76224406250003,60.0,112.0
634,195.70126843750003,195.81915464583338,55.0,100.0
635,195.21346343750002,195.9248457291667,48.0,107.0
636,195.94517093750002,196.8699679166667,53.0,107.0
637,195.94517093750002,197.0955777291667,57.0,99.0
638,195.94517093750002,197.10370781250003,60.0,102.0
639,196.92078093750004,197.3211875416667,48.0,59.0
640,195.94517093750002,197.3272851041667,41.0,93.0
641,197.40858593750002,197.8089925416667,64.0,122.0
642,197.40858593750002,197.81102506250002,55.0,112.0
643,197.40858593750002,197.8333827916667,60.0,122.0
644,197.40858593750002,197.9858218541667,48.0,100.0
645,197.89639093750003,198.0833828541667,64.0,117.0
646,197.89639093750003,198.17891133333336,60.0,117.0
647,197.89639093750003,198.2967975416667,55.0,96.0
648,198.38419593750004,198.5346024791667,53.0,100.0
649,198.38419593750004,198.70736675000003,60.0,95.0
650,198.38419593750004,198.71549683333336,57.0,89.0
651,198.87200093750002,199.17687906250003,53.0,100.0
652,198.62809843750003,199.46956206250005,48.0,97.0
653,199.11590343750004,199.58744827083336,55.0,96.0
654,199.60370843750005,199.8699686666667,48.0,93.0
655,198.38419593750004,199.88013127083337,41.0,83.0
656,199.35980593750003,200.09761100000003,60.0,122.0
657,199.84761093750004,200.12200125000004,57.0,112.0
658,200.09151343750003,200.3821639166667,55.0,76.0
659,200.82322093750003,201.40858693750002,48.0,100.0
660,201.06712343750004,201.45126987500004,55.0,93.0
661,201.55492843750002,201.7785057291667,48.0,97.0
662,200.33541593750004,202.13013183333337,36.0,86.0
663,201.31102593750003,202.20127006250004,64.0,127.0
664,201.79883093750004,202.25005056250004,60.0,102.0
665,200.57931843750004,202.3089936666667,43.0,78.0
666,202.04273343750003,202.4675302916667,57.0,95.0
667,202.77444093750003,203.3760671041667,50.0,97.0
668,203.01834343750002,203.38622970833336,57.0,92.0
669,202.53053843750004,203.66671758333337,45.0,93.0
670,202.28663593750002,203.75005093750002,38.0,85.0
671,203.50614843750003,204.02444125000002,50.0,92.0
672,203.75005093750002,204.0285062916667,62.0,117.0
673,203.26224593750004,204.0285062916667,65.0,122.0
674,203.99395343750004,204.1504575416667,57.0,102.0
675,204.48175843750002,204.8516772291667,53.0,86.0
676,204.72566093750004,204.90249025000003,62.0,107.0
677,204.23785593750003,204.98175856250003,46.0,127.0
678,204.96956343750003,205.11793745833336,60.0,86.0
679,205.45736843750004,205.98379133333336,55.0,65.0
680,205.70127093750003,206.12810031250004,64.0,117.0
681,204.96956343750003,206.18501089583336,48.0,107.0
682,205.94517343750005,206.1870434166667,60.0,102.0
683,206.67688093750004,206.98379158333336,53.0,95.0
684,206.92078343750003,207.21956400000002,57.0,102.0
685,206.43297843750003,207.29476727083338,48.0,86.0
686,207.40858843750004,207.6748486666667,48.0,97.0
687,206.18907593750004,207.7114340416667,41.0,99.0
688,207.16468593750002,207.95127150000005,60.0,122.0
689,207.65249093750003,207.9553365416667,57.0,107.0
690,207.89639343750002,208.17078375000003,55.0,88.0
691,208.62810093750002,209.2419222291667,48.0,97.0
692,208.87200343750004,209.38623120833336,55.0,86.0
693,209.35980843750002,209.7724101666667,48.0,95.0
694,208.14029593750004,209.95940208333337,36.0,88.0
695,209.11590593750003,209.99395493750004,64.0,117.0
696,209.60371093750004,210.00005250000004,60.0,95.0
697,208.38419843750003,210.0589956041667,43.0,85.0
698,209.84761343750003,210.10371106250003,55.0,97.0
699,210.57932093750003,211.0955812291667,50.0,99.0
700,210.82322343750005,211.2114349166667,57.0,79.0
701,210.33541843750004,211.50208539583338,45.0,70.0
702,210.09151593750002,211.6016789166667,38.0,93.0
703,211.06712593750004,211.8272887291667,65.0,127.0
704,211.55493093750005,211.84354889583338,62.0,112.0
705,211.31102843750003,211.87403670833336,50.0,99.0
706,211.79883343750004,211.97566275000003,57.0,100.0
707,212.28663843750005,212.64842714583338,53.0,95.0
708,212.04273593750003,212.69720764583337,46.0,127.0
709,212.53054093750004,212.7114352916667,62.0,122.0
710,213.26224843750003,213.75208595833337,55.0,83.0
711,213.50615093750002,213.99395593750003,64.0,112.0
712,212.77444343750003,214.0163136666667,48.0,97.0
713,213.75005343750004,214.0224112291667,60.0,112.0
714,214.48176093750004,214.79883418750003,53.0,102.0
715,214.72566343750003,215.00208627083336,57.0,112.0
716,214.23785843750002,215.11184239583338,48.0,83.0
717,215.21346843750004,215.37810262500003,48.0,86.0
718,213.99395593750003,215.39639531250003,41.0,82.0
719,214.96956593750002,215.9126556041667,60.0,122.0
720,215.45737093750003,215.94111089583336,57.0,112.0
721,215.70127343750002,215.96550114583337,53.0,95.0
722,216.43298093750005,217.06712743750003,48.0,95.0
723,216.18907843750003,217.07932256250004,43.0,78.0
724,216.67688343750004,217.14842827083336,55.0,96.0
725,216.92078593750003,217.68298125000004,64.0,122.0
726,215.94517593750004,217.74598939583336,36.0,86.0
727,217.40859093750004,217.8577780416667,60.0,127.0
728,217.16468843750005,217.87403820833336,43.0,93.0
729,217.65249343750003,217.94517643750004,55.0,96.0
730,218.38420093750003,218.95737181250004,50.0,95.0
731,218.62810343750004,218.9858271041667,57.0,90.0
732,218.14029843750004,219.23785968750005,45.0,96.0
733,217.89639593750005,219.29273775000004,38.0,82.0
734,218.87200593750003,219.65452645833338,65.0,127.0
735,219.11590843750002,219.6626565416667,50.0,95.0
736,219.35981093750004,219.66468906250003,62.0,127.0
737,219.60371343750003,219.81103056250004,57.0,92.0
738,220.09151843750004,220.51225025000002,53.0,96.0
739,219.84761593750002,220.5285104166667,46.0,112.0
740,220.33542093750003,220.5285104166667,62.0,100.0
741,221.06712843750003,221.53664075000003,55.0,93.0
742,221.31103093750005,221.7358277916667,64.0,117.0
743,220.57932343750002,221.83542131250005,48.0,122.0
744,221.55493343750004,221.84761643750002,60.0,127.0
745,222.28664093750004,222.67281989583336,53.0,95.0
746,222.53054343750003,222.87403945833336,57.0,92.0
747,222.04273843750005,222.93908012500003,48.0,90.0
748,223.01834843750004,223.34761681250004,48.0,74.0
749,221.79883593750003,223.3699745416667,41.0,76.0
750,222.77444593750005,223.69314535416672,65.0,112.0
751,223.50615343750005,223.75818602083336,57.0,97.0
752,223.26225093750003,223.7968039166667,60.0,117.0
753,224.23786093750005,224.79477164583338,48.0,92.0
754,224.48176343750004,224.87810500000003,55.0,92.0
755,224.96956843750004,225.20127581250003,48.0,100.0
756,223.75005593750004,225.52038158333337,36.0,86.0
757,224.72566593750003,225.5224141041667,64.0,112.0
758,225.21347093750003,225.64639787500005,60.0,112.0
759,223.99395843750003,225.7114385416667,43.0,92.0
760,225.45737343750002,225.7541214791667,55.0,99.0
761,226.18908093750002,226.7724144166667,50.0,96.0
762,226.43298343750004,226.83135752083336,57.0,88.0
763,225.94517843750003,227.07932506250003,45.0,82.0
764,225.70127593750004,227.12200800000005,38.0,89.0
765,226.92078843750005,227.32322756250002,50.0,99.0
766,227.16469093750004,227.47160158333338,62.0,117.0
767,226.67688593750003,227.4797316666667,65.0,127.0
768,227.40859343750003,227.60981300000003,57.0,117.0
769,227.89639843750004,228.24395950000005,53.0,93.0
770,227.65249593750005,228.28054487500003,46.0,112.0
771,228.14030093750003,228.30087008333336,62.0,112.0
772,228.87200843750003,229.10168329166672,60.0,107.0
773,228.87200843750003,229.10371581250004,64.0,100.0
774,228.38420343750005,229.12404102083337,48.0,112.0
775,229.60371593750003,230.2175372291667,53.0,97.0
776,229.84761843750005,230.22769983333336,57.0,89.0
777,229.35981343750004,230.2846104166667,48.0,86.0
778,230.57932593750004,230.84152112500004,60.0,122.0
779,230.09152093750004,230.84965120833337,65.0,122.0
780,230.82322843750003,231.12810656250005,57.0,65.0
781,231.06713093750002,231.4065619166667,55.0,100.0
782,229.11591093750005,231.45127737500005,41.0,97.0
783,230.33542343750003,231.4858302291667,48.0,100.0
784,231.31103343750004,231.5346107291667,57.0,96.0
785,232.04274093750004,232.35981418750004,53.0,97.0
786,231.79883843750002,232.66672483333338,48.0,83.0
787,232.28664343750003,232.67891995833338,57.0,89.0
788,232.77444843750004,232.9309525416667,48.0,79.0
789,231.55493593750003,232.9675379166667,41.0,92.0
790,232.53054593750005,233.2175379791667,65.0,112.0
791,233.26225343750005,233.50005837500004,57.0,96.0
792,233.01835093750003,233.53664375000002,60.0,96.0
793,233.99396093750005,234.5833919791667,48.0,92.0
794,234.23786343750004,234.60574970833338,55.0,86.0
795,234.72566843750005,234.9858311041667,48.0,100.0
796,234.96957093750004,235.31916452083337,60.0,107.0
797,233.50615593750004,235.3211970416667,36.0,88.0
798,234.48176593750003,235.3394897291667,64.0,112.0
799,233.75005843750003,235.4553434166667,43.0,73.0
800,235.21347343750003,235.49599383333336,55.0,95.0
801,235.94518093750003,236.5285144166667,50.0,95.0
802,236.18908343750005,236.5346119791667,57.0,90.0
803,235.70127843750004,236.82322993750003,45.0,81.0
804,235.45737593750005,236.8821730416667,38.0,92.0
805,236.67688843750003,237.17282352083336,50.0,97.0
806,236.92079093750004,237.22160402083338,62.0,112.0
807,236.43298593750004,237.2602219166667,65.0,127.0
808,237.16469343750003,237.40249837500005,57.0,90.0
809,237.65249843750004,237.9370513541667,58.0,112.0
810,237.89640093750003,238.07932781250003,62.0,97.0
811,237.40859593750002,238.0894904166667,46.0,122.0
812,238.62810843750003,238.98379958333337,55.0,56.0
813,239.11591343750004,239.3272956041667,55.0,93.0
814,238.87201093750005,239.3333931666667,60.0,122.0
815,238.14030343750005,239.33745820833337,48.0,117.0
816,239.84762093750004,240.23786493750004,53.0,89.0
817,239.60371843750005,240.4350194583334,48.0,75.0
818,240.09152343750003,240.48989752083338,57.0,88.0
819,240.57932843750004,240.8394911041667,48.0,95.0
820,239.35981593750003,240.8638813541667,41.0,86.0
821,240.33542593750005,241.16672695833338,65.0,122.0
822,241.06713343750005,241.32526358333337,57.0,99.0
823,240.82323093750003,241.33542618750005,60.0,107.0
824,242.04274343750004,242.4065646666667,55.0,85.0
825,241.79884093750005,242.41469475000005,48.0,89.0
826,241.31103593750004,243.0955892291667,36.0,90.0
827,241.55493843750003,243.12201200000004,43.0,55.0
828,242.77445093750003,243.18502014583336,60.0,112.0
829,242.53054843750004,243.19518275000004,48.0,92.0
830,242.28664593750003,243.1992477916667,64.0,127.0
831,243.01835343750005,243.22160552083338,55.0,99.0
832,243.75006093750005,244.3333944166667,50.0,93.0
833,243.99396343750004,244.37201231250003,57.0,92.0
834,243.50615843750003,244.5711993541667,45.0,89.0
835,243.26225593750004,244.6870530416667,38.0,72.0
836,244.48176843750005,244.89640268750003,50.0,112.0
837,244.72567093750004,244.99802872916672,62.0,127.0
838,244.23786593750003,245.0163214166667,65.0,127.0
839,244.96957343750003,245.16063039583338,57.0,90.0
840,245.45737843750004,245.76428908333338,58.0,107.0
841,245.70128093750003,245.86185008333337,62.0,96.0
842,245.21347593750005,245.90250050000003,46.0,117.0
843,246.43298843750003,246.8211999166667,55.0,90.0
844,246.67689093750005,247.10981787500003,64.0,117.0
845,245.94518343750005,247.17282602083338,48.0,117.0
846,246.92079343750004,247.20941139583337,60.0,122.0
847,247.65250093750004,248.1870539166667,53.0,96.0
848,247.89640343750003,248.23989945833338,57.0,82.0
849,247.40859843750005,248.30494012500003,48.0,89.0
850,248.38420843750004,248.64030606250003,48.0,83.0
851,247.16469593750003,248.67892395833337,41.0,82.0
852,248.62811093750005,249.04274518750003,60.0,100.0
853,248.14030593750005,249.0529077916667,65.0,112.0
854,248.87201343750004,249.06713543750004,57.0,90.0
855,249.84762343750003,250.20331458333337,55.0,89.0
856,249.60372093750004,250.2236397916667,48.0,100.0
857,250.33542843750004,250.59559110416672,48.0,95.0
858,250.09152593750005,250.8821765416667,64.0,122.0
859,249.11591593750003,250.9004692291667,36.0,61.0
860,250.57933093750003,250.90859931250003,55.0,89.0
861,250.82323343750005,251.05494081250004,60.0,107.0
862,249.35981843750005,251.0833961041667,43.0,59.0
863,251.55494093750005,252.15859962500005,50.0,93.0
864,251.79884343750004,252.1748597916667,57.0,75.0
865,251.31103843750003,252.47364035416672,45.0,69.0
866,251.06713593750004,252.4980306041667,38.0,88.0
867,252.28664843750005,252.76429083333338,50.0,93.0
868,252.53055093750004,252.78664856250003,62.0,107.0
869,252.04274593750003,252.79884368750004,65.0,107.0
870,252.77445343750003,252.92892502083336,57.0,92.0
871,253.01835593750005,253.35981943750005,53.0,93.0
872,253.01835593750005,253.59965689583336,62.0,92.0
873,253.01835593750005,253.64030731250003,58.0,112.0
874,253.01835593750005,253.6992504166667,46.0,100.0
875,253.75006343750005,255.53868177083336,55.0,81.0
876,253.75006343750005,255.55087689583337,48.0,90.0
877,253.75006343750005,255.57323462500005,64.0,96.0
878,253.75006343750005,255.5772996666667,60.0,99.0
879,257.1646984375,257.81104006250007,53.0,66.0
880,256.92079593750003,257.84965795833335,46.0,89.0
881,257.40860093750007,257.84965795833335,58.0,93.0
882,257.65250343750006,257.914698625,62.0,83.0
883,258.14030843750004,258.7724224166667,55.0,55.0
884,258.6281134375,258.8496582083334,60.0,56.0
885,257.89640593750005,258.85372325000003,48.0,69.0
886,258.38421093750003,258.8618533333334,64.0,92.0
887,259.35982093750005,259.79274787500003,62.0,79.0
888,259.60372343750004,259.80697552083336,65.0,73.0
889,258.87201593750007,259.8354308125,50.0,70.0
890,259.11591843750006,259.8821787916667,57.0,68.0
891,259.8476259375,260.31713825,48.0,67.0
892,260.33543093750006,260.8029107291667,64.0,81.0
893,260.57933343750005,260.8069757708334,60.0,61.0
894,260.0915284375,260.8699839166667,55.0,70.0
895,261.06713843750003,261.6321792291667,53.0,63.0
896,261.3110409375,261.6911223333334,58.0,92.0
897,261.5549434375,261.7480329166667,62.0,70.0
898,260.82323593750004,261.8273012291667,46.0,76.0
899,262.04274843750005,262.48177293750007,57.0,66.0
900,262.28665093750004,262.7358380416667,64.0,93.0
901,262.53055343750003,262.7541307291667,60.0,64.0
902,261.79884593750006,262.81713887500007,45.0,69.0
903,263.2907162291667,266.9797415416667,55.0,77.0
904,263.5590089791667,267.01226187500004,62.0,72.0
905,263.5447813333334,267.0163269166667,58.0,63.0
906,263.56104150000004,267.0305545625,67.0,59.0
907,262.99396818750006,267.0773025416667,50.0,77.0
908,262.72567543750006,267.2236440416667,43.0,77.0
909,267.109822875,267.47161158333336,46.0,38.0
910,267.10575783333337,267.9614491041667,53.0,59.0
911,267.1626684166667,268.10982312500005,58.0,83.0
912,267.2520993333334,268.14031093750003,62.0,73.0
913,267.2886847083334,268.17689631250005,65.0,79.0
914,268.573237875,269.01226237500003,58.0,75.0
915,268.9187664166667,269.256164875,62.0,69.0
916,269.21957950000007,269.32730310416673,65.0,67.0
917,269.5793356875,270.55697820833336,70.0,72.0
918,268.2703922708334,270.8151083541667,53.0,57.0
919,268.00616456250003,270.8273034791667,46.0,39.0
920,270.9838075833334,271.2216125208334,70.0,73.0
921,270.4289293958334,271.378116625,77.0,88.0
922,270.00616506250003,271.40453939583335,74.0,95.0
923,272.3760843541667,272.7988486875,55.0,55.0
924,272.5874665208334,272.841531625,57.0,58.0
925,272.81714137500006,272.89640968750007,60.0,78.0
926,273.03868614583337,273.35982443750004,65.0,81.0
927,273.2968162916667,273.61795458333336,67.0,63.0
928,273.5874667708334,273.658605,69.0,68.0
929,273.89031237500006,274.2622636875,77.0,51.0
930,274.1972230208334,274.61592231250006,79.0,53.0
931,274.5508816458334,274.68096297916674,81.0,62.0
932,275.54884937500003,276.6057602083334,93.0,37.0
933,275.6016949166667,276.6077927291667,96.0,36.0
934,272.17079975000007,276.6301504583334,53.0,69.0
935,271.9675476666667,276.6382805416667,48.0,61.0
936,275.49397131250004,276.64844314583337,89.0,33.0
937,271.5264906458334,276.6626707916667,41.0,82.0
