,start,end,pitch,velocity
0,18.666437691666665,18.828993566666668,64.0,88.0
1,18.935495691666667,19.102535866666667,66.0,85.0
2,19.204553691666668,19.355898816666667,64.0,85.0
3,19.47361169166667,20.362624166666667,73.0,81.0
4,20.818901691666667,20.988184016666665,64.0,86.0
5,21.08795969166667,21.276300291666665,66.0,81.0
6,21.357017691666666,21.53078431666667,64.0,86.0
7,21.626075691666667,22.654101466666667,71.0,80.0
8,22.97136569166667,23.128316191666666,64.0,84.0
9,23.240423691666667,23.472486216666667,66.0,81.0
10,23.509481691666668,23.667553266666665,64.0,83.0
11,23.778539691666666,24.18997421666667,69.0,81.0
12,24.316655691666668,24.72024269166667,69.0,80.0
13,24.854771691666667,25.02741724166667,71.0,79.0
14,25.123829691666668,25.307685991666666,69.0,80.0
15,25.392887691666665,25.926519391666666,66.0,81.0
16,25.931003691666668,27.076742341666666,64.0,83.0
17,27.276293691666666,27.360374316666665,64.0,88.0
18,27.410822691666667,27.50835621666667,64.0,81.0
19,27.545351691666667,27.68212284166667,66.0,86.0
20,27.81440969166667,27.954544066666667,64.0,86.0
21,28.08346769166667,29.10140379166667,76.0,79.0
22,29.428757691666668,29.600282166666666,64.0,82.0
23,29.69781569166667,29.974721216666666,66.0,81.0
24,29.966873691666667,30.132792791666667,64.0,83.0
25,30.235931691666668,31.36261206666667,74.0,93.0
26,31.58122169166667,31.794225941666667,64.0,90.0
27,31.850279691666664,32.08010006666667,66.0,81.0
28,32.119337691666665,32.28189356666667,64.0,83.0
29,32.388395691666666,32.77068226666667,73.0,81.0
30,32.92651169166667,33.28413461666667,73.0,82.0
31,33.46462769166667,33.65745259166667,73.0,82.0
32,33.733685691666665,33.89512049166667,71.0,81.0
33,34.002743691666666,34.18996321666667,69.0,81.0
34,34.27180169166667,35.530768916666666,71.0,79.0
35,35.88614969166667,36.04870556666667,64.0,88.0
36,36.15520769166667,36.322247866666665,66.0,85.0
37,36.42426569166667,36.57561081666667,64.0,85.0
38,36.69332369166667,37.582336166666664,73.0,81.0
39,38.03861369166667,38.207896016666666,64.0,86.0
40,38.30767169166667,38.496012291666666,66.0,81.0
41,38.57672969166667,38.75049631666667,64.0,86.0
42,38.845787691666665,39.87381346666667,71.0,80.0
43,40.19107769166667,40.348028191666664,64.0,84.0
44,40.460135691666665,40.69219821666667,66.0,81.0
45,40.729193691666666,40.88726526666667,64.0,83.0
46,40.99825169166667,41.40968621666667,69.0,81.0
47,41.53636769166667,41.93995469166667,69.0,80.0
48,42.074483691666664,42.24712924166667,71.0,79.0
49,42.343541691666665,42.52739799166667,69.0,80.0
50,42.61259969166667,43.14623139166667,66.0,81.0
51,43.15071569166667,44.29645434166667,64.0,83.0
52,44.49600569166667,44.580086316666666,64.0,88.0
53,44.63053469166667,44.72806821666667,64.0,81.0
54,44.76506369166667,44.90183484166667,66.0,86.0
55,45.03412169166667,45.174256066666665,64.0,86.0
56,45.30317969166667,46.32111579166667,76.0,79.0
57,46.64846969166667,46.81999416666667,64.0,82.0
58,46.91752769166666,47.19443321666667,66.0,81.0
59,47.186585691666664,47.35250479166667,64.0,83.0
60,47.455643691666666,48.582324066666665,74.0,93.0
61,49.60810769166667,49.758331741666666,73.0,81.0
62,49.87716569166667,50.017300066666664,73.0,79.0
63,50.14622369166666,50.29420559166667,73.0,76.0
64,50.415281691666664,50.58232186666667,73.0,80.0
65,50.684339691666665,50.82223191666667,73.0,83.0
66,50.953397691666666,51.749360941666666,71.0,82.0
67,51.76057169166667,52.94891119166667,69.0,80.0
68,53.913035691666664,54.35137601666666,78.0,82.0
69,54.45115169166667,54.602496816666665,76.0,85.0
70,54.72020969166667,54.913034591666666,74.0,83.0
71,54.98926769166667,55.45451381666667,78.0,80.0
72,55.527383691666664,55.74711439166666,76.0,86.0
73,55.796441691666665,55.973571541666665,74.0,84.0
74,56.065499691666666,56.20227084166667,78.0,85.0
75,56.33455769166667,56.483660666666665,78.0,80.0
76,56.60361569166667,56.730297166666666,78.0,90.0
77,56.87267369166667,57.148458141666666,76.0,81.0
78,57.14173169166666,57.565498041666665,73.0,88.0
79,57.679847691666666,58.009443741666665,76.0,85.0
80,58.21796369166667,58.64621434166666,78.0,81.0
81,58.75607969166666,58.90294051666667,76.0,84.0
82,59.025137691666664,59.182088191666665,74.0,90.0
83,59.294195691666665,59.692177316666665,78.0,83.0
84,59.83231169166667,59.96459854166667,76.0,86.0
85,60.10136969166667,60.285225991666664,74.0,90.0
86,60.37042769166666,60.510562066666665,78.0,83.0
87,60.639485691666664,61.05316236666667,78.0,90.0
88,61.177601691666666,61.33903649166667,76.0,80.0
89,61.44665969166667,61.64957426666667,73.0,82.0
90,61.71571769166667,61.97917031666667,73.0,81.0
91,61.98477569166667,62.31661389166667,71.0,84.0
92,62.522891691666665,62.725806266666666,71.0,78.0
93,62.791949691666666,62.98029029166667,71.0,79.0
94,63.06100769166667,63.24486399166667,71.0,79.0
95,63.33006569166667,64.11257604166667,69.0,82.0
96,64.13723969166666,64.49822584166667,71.0,86.0
97,64.67535569166667,64.83230619166667,73.0,85.0
98,64.94441369166667,65.10024311666668,73.0,77.0
99,65.21347169166667,65.37602756666666,73.0,82.0
100,65.34800069166667,65.51391979166667,71.0,83.0
101,65.61705869166667,65.71122899166667,73.0,83.0
102,65.88611669166667,66.23140779166667,73.0,78.0
103,66.28970369166667,66.67647456666667,76.0,85.0
104,66.82781969166668,66.91190031666667,78.0,83.0
105,66.96234869166668,67.07781941666667,78.0,78.0
106,67.23140669166666,67.31548731666668,78.0,82.0
107,67.36593569166666,67.51728081666667,78.0,79.0
108,67.63499369166666,67.76503839166666,76.0,86.0
109,67.90405169166667,68.45786274166667,78.0,88.0
110,68.98028369166667,69.13947634166666,78.0,81.0
111,69.24934169166667,69.38611284166667,78.0,75.0
112,69.51839969166667,69.64844439166667,78.0,81.0
113,69.78745769166667,69.92422884166668,78.0,75.0
114,70.05651569166668,70.20225544166667,78.0,80.0
115,70.32557369166668,70.90180624166668,73.0,83.0
116,70.86368969166666,73.18992031666667,76.0,86.0
117,74.63050169166667,74.79305756666668,64.0,88.0
118,74.89955969166667,75.06659986666666,66.0,85.0
119,75.16861769166667,75.31996281666667,64.0,85.0
120,75.43767569166667,76.32668816666667,73.0,81.0
121,76.78296569166667,76.95224801666667,64.0,86.0
122,77.05202369166668,77.24036429166667,66.0,81.0
123,77.32108169166666,77.49484831666668,64.0,86.0
124,77.59013969166666,78.61816546666667,71.0,80.0
125,78.93542969166667,79.09238019166666,64.0,84.0
126,79.20448769166667,79.43655021666666,66.0,81.0
127,79.47354569166667,79.63161726666667,64.0,83.0
128,79.74260369166667,80.15403821666666,69.0,81.0
129,80.28071969166666,80.68430669166666,69.0,80.0
130,80.81883569166666,80.99148124166666,71.0,79.0
131,81.08789369166666,81.27174999166667,69.0,80.0
132,81.34798309166666,81.88161479166666,71.0,81.0
133,81.89506769166667,83.04080634166667,69.0,83.0
134,100.45552090416666,100.617351175,64.0,88.0
135,100.72337790416665,100.88967245833332,66.0,85.0
136,100.99123490416666,101.14190446666666,64.0,85.0
137,101.25909190416667,102.14413607499999,73.0,81.0
138,102.59837690416666,102.76690359999999,64.0,86.0
139,102.86623390416666,103.05373380416665,66.0,81.0
140,103.13409090416665,103.30708188333332,64.0,86.0
141,103.40194790416666,104.42538485833333,71.0,80.0
142,104.74123290416667,104.89748282083333,64.0,84.0
143,105.00908990416666,105.24011656666666,66.0,81.0
144,105.27694690416666,105.43431289166666,64.0,83.0
145,105.54480390416666,105.9544019,69.0,81.0
146,106.08051790416665,106.48230340416666,69.0,80.0
147,106.61623190416665,106.78810681249999,71.0,79.0
148,106.88408890416666,107.06712452083333,69.0,80.0
149,107.15194590416667,107.68319562083333,66.0,81.0
150,107.68765990416667,108.82828429583333,64.0,83.0
151,109.02694490416665,109.11065021666666,64.0,88.0
152,109.16087340416667,109.25797156666665,64.0,81.0
153,109.29480190416666,109.43096254583332,66.0,86.0
154,109.56265890416665,109.7022401375,64.0,86.0
155,109.83087530416665,110.84749202083331,76.0,79.0
156,111.17484592083332,111.34637039583332,64.0,82.0
157,111.44390392083332,111.72080944583332,66.0,81.0
158,111.71296192083332,111.87888102083332,64.0,83.0
159,111.98201992083332,113.10870029583332,74.0,93.0
160,113.32730992083332,113.54031417083331,64.0,90.0
161,113.59636792083332,113.82618829583332,66.0,81.0
162,113.86542592083332,114.02798179583331,64.0,83.0
163,114.13448392083332,114.51677049583331,73.0,81.0
164,114.67259992083332,115.03022284583332,73.0,82.0
165,115.21071592083332,115.40354082083331,73.0,82.0
166,115.47977392083332,115.64120872083332,71.0,81.0
167,115.74883192083333,115.93605144583331,69.0,81.0
168,116.01788992083331,117.27685714583332,71.0,79.0
169,117.63223792083332,117.79479379583331,64.0,88.0
170,117.90129592083332,118.06833609583332,66.0,85.0
171,118.17035392083332,118.32169904583331,64.0,85.0
172,118.43941192083332,119.32842439583332,73.0,81.0
173,119.78470192083331,119.95398424583333,64.0,86.0
174,120.05375992083331,120.24210052083332,66.0,81.0
175,120.32281792083332,120.49658454583331,64.0,86.0
176,120.59187592083332,121.61990169583332,71.0,80.0
177,121.93716592083332,122.09411642083332,64.0,84.0
178,122.20622392083332,122.43828644583331,66.0,81.0
179,122.47528192083332,122.63335349583332,64.0,83.0
180,122.74433992083331,123.15577444583332,69.0,81.0
181,123.28245592083331,123.68604292083332,69.0,80.0
182,123.82057192083332,123.99321747083332,71.0,79.0
183,124.08962992083332,124.27348622083332,69.0,80.0
184,124.35868792083332,124.89231962083332,66.0,81.0
185,124.89680392083332,126.04254257083332,64.0,83.0
186,126.24209392083333,126.32617454583333,64.0,88.0
187,126.37662292083331,126.47415644583332,64.0,81.0
188,126.51115192083333,126.64792307083331,66.0,86.0
189,126.78020992083331,126.92034429583332,64.0,86.0
190,127.04926792083332,128.06720402083332,76.0,79.0
191,128.3945579208333,128.56608239583332,64.0,82.0
192,128.6636159208333,128.94052144583333,66.0,81.0
193,128.9326739208333,129.09859302083333,64.0,83.0
194,129.2017319208333,130.32841229583332,74.0,93.0
195,131.35419592083332,131.5044199708333,73.0,81.0
196,131.62325392083332,131.76338829583332,73.0,79.0
197,131.89231192083332,132.0402938208333,73.0,76.0
198,132.16136992083332,132.3284100958333,73.0,80.0
199,132.43042792083332,132.56832014583333,73.0,83.0
200,132.69948592083333,133.49544917083333,71.0,82.0
201,133.50665992083333,134.6949994208333,69.0,80.0
202,135.6591239208333,136.09746424583332,78.0,82.0
203,136.1972399208333,136.34858504583332,76.0,85.0
204,136.4662979208333,136.65912282083332,74.0,83.0
205,136.7353559208333,137.2006020458333,78.0,80.0
206,137.27347192083332,137.49320262083333,76.0,86.0
207,137.54252992083332,137.71965977083332,74.0,84.0
208,137.81158792083332,137.9483590708333,78.0,85.0
209,138.08064592083332,138.22974889583332,78.0,80.0
210,138.34970392083332,138.47638539583332,78.0,90.0
211,138.61876192083332,138.89454637083332,76.0,81.0
212,138.88781992083332,139.31158627083332,73.0,88.0
213,139.42593592083333,139.75553197083332,76.0,85.0
214,139.96405192083333,140.39230257083332,78.0,81.0
215,140.50216792083333,140.64902874583333,76.0,84.0
216,140.77122592083333,140.92817642083332,74.0,90.0
217,141.04028392083333,141.43826554583333,78.0,83.0
218,141.5783999208333,141.71068677083332,76.0,86.0
219,141.84745792083334,142.0313142208333,74.0,90.0
220,142.1165159208333,142.2566502958333,78.0,83.0
221,142.3855739208333,142.7992505958333,78.0,90.0
222,142.9236899208333,143.08512472083333,76.0,80.0
223,143.1927479208333,143.39566249583334,73.0,82.0
224,143.4618059208333,143.72525854583333,73.0,81.0
225,143.73086392083331,144.0627021208333,71.0,84.0
226,144.26897992083332,144.4718944958333,71.0,78.0
227,144.53803792083332,144.72637852083332,71.0,79.0
228,144.80709592083332,144.99095222083332,71.0,79.0
229,145.07615392083332,145.85866427083332,69.0,82.0
230,145.88332792083332,146.24431407083333,71.0,86.0
231,146.42144392083333,146.57839442083332,73.0,85.0
232,146.69050192083333,146.84633134583333,73.0,77.0
233,146.95955992083333,147.1221157958333,73.0,82.0
234,147.09408892083331,147.2600080208333,71.0,83.0
235,147.36314692083332,147.45731722083332,73.0,83.0
236,147.63220492083332,147.9774960208333,73.0,78.0
237,148.03579192083333,148.42256279583333,76.0,85.0
238,148.57390792083334,148.65798854583332,78.0,83.0
239,148.70843692083332,148.82390764583332,78.0,78.0
240,148.97749492083332,149.0615755458333,78.0,82.0
241,149.11202392083334,149.26336904583331,78.0,79.0
242,149.3810819208333,149.51112662083332,76.0,86.0
243,149.6501399208333,150.20395097083332,78.0,88.0
244,150.72637192083332,150.8855645708333,78.0,81.0
245,150.99542992083332,151.13220107083333,78.0,75.0
246,151.26448792083332,151.39453262083333,78.0,81.0
247,151.53354592083332,151.67031707083333,78.0,75.0
248,151.80260392083332,151.9483436708333,78.0,80.0
249,152.07166192083332,152.6478944708333,73.0,83.0
250,152.60977792083332,154.93600854583332,76.0,86.0
251,156.37396665416665,156.5360863208333,64.0,88.0
252,156.64230265416666,156.80889458749996,66.0,85.0
253,156.91063865416663,157.06157765416665,64.0,85.0
254,157.17897465416664,158.0656015208333,73.0,81.0
255,158.52065465416663,158.6894827208333,64.0,86.0
256,158.78899065416664,158.97682585416663,66.0,81.0
257,159.05732665416664,159.2306269875,64.0,86.0
258,159.32566265416665,160.35092978749998,71.0,80.0
259,160.66734265416665,160.82387198749998,64.0,84.0
260,160.93567865416665,161.16711845416665,66.0,81.0
261,161.20401465416666,161.36166205416663,64.0,83.0
262,161.47235065416663,161.8826811208333,69.0,81.0
263,162.00902265416664,162.41152665416664,69.0,80.0
264,162.54569465416665,162.7178769208333,71.0,79.0
265,162.81403065416663,162.99739358749997,69.0,80.0
266,163.08236665416663,163.61456638749996,66.0,81.0
267,163.61903865416664,164.76170278749998,64.0,83.0
268,164.96071865416664,165.04457365416664,64.0,88.0
269,165.09488665416663,165.19215845416664,64.0,81.0
270,165.22905465416665,165.36545878749996,66.0,86.0
271,165.49739065416665,165.63714898749998,64.0,86.0
272,165.76572665416666,166.7809311875,76.0,79.0
273,167.10740665416665,167.27847085416664,64.0,82.0
274,167.37574265416663,167.6519051208333,66.0,81.0
275,167.64407865416663,167.8095525208333,64.0,83.0
276,167.91241465416664,169.03607165416665,74.0,93.0
277,169.25409465416664,169.4665273208333,64.0,90.0
278,169.52243065416664,169.7518758208333,66.0,81.0
279,169.79106065416664,169.9533978208333,64.0,83.0
280,170.05975665416662,170.44152888749997,73.0,81.0
281,170.59714865416663,170.9542904208333,73.0,82.0
282,171.13454065416664,171.3271061208333,73.0,82.0
283,171.40323665416662,171.56445425416663,71.0,81.0
284,171.67193265416662,171.85890028749998,69.0,81.0
285,171.94062865416663,173.1979020208333,71.0,79.0
286,173.55280465416664,173.7151418208333,64.0,88.0
287,173.82150065416664,173.98831608749995,66.0,85.0
288,174.09019665416662,174.24133815416664,64.0,85.0
289,174.35889265416662,175.2467090208333,73.0,81.0
290,175.70237265416662,175.8714272208333,64.0,86.0
291,175.97106865416663,176.15915585416664,66.0,81.0
292,176.23976465416663,176.41329748749996,64.0,86.0
293,176.50846065416664,177.53510328749996,71.0,80.0
294,177.85194065416664,178.00867998749996,64.0,84.0
295,178.12063665416662,178.35238695416663,66.0,81.0
296,178.38933265416662,178.54719155416663,64.0,83.0
297,178.65802865416663,179.0689096208333,69.0,81.0
298,179.19542065416664,179.59846465416663,69.0,80.0
299,179.73281265416662,179.9052259208333,71.0,79.0
300,180.00150865416663,180.18511758749997,69.0,80.0
301,180.27020465416663,180.80311838749998,66.0,81.0
302,180.80759665416664,181.95179378749995,64.0,83.0
303,182.15107665416664,182.23504415416664,64.0,88.0
304,182.28542465416663,182.38282695416663,64.0,81.0
305,182.41977265416662,182.55635978749996,66.0,86.0
306,182.68846865416663,182.82841448749997,64.0,86.0
307,182.95716465416663,183.97373118749996,76.0,79.0
308,184.30064465416663,184.47193835416664,64.0,82.0
309,184.56934065416664,184.8458736208333,66.0,81.0
310,184.83803665416664,185.0037325208333,64.0,83.0
311,185.10673265416662,186.23189715416663,74.0,93.0
312,187.25630065416664,187.40632258749997,73.0,81.0
313,187.52499665416664,187.66494248749996,73.0,79.0
314,187.79369265416662,187.94147545416664,73.0,76.0
315,188.06238865416663,188.22920408749997,73.0,80.0
316,188.33108465416663,188.46879135416663,73.0,83.0
317,188.59978065416664,189.39467298749997,71.0,82.0
318,189.40586865416662,190.5926093208333,69.0,80.0
319,208.7783010291666,209.21675783749996,78.0,82.0
320,209.3164441416666,209.46765370416662,76.0,85.0
321,209.58526114166662,209.77791332499996,74.0,83.0
322,209.85407814166663,210.31890753749997,78.0,80.0
323,210.39171214166663,210.61124602499996,76.0,86.0
324,210.66052914166661,210.83750033333328,74.0,84.0
325,210.92934614166663,211.06599478333328,78.0,85.0
326,211.1981631416666,211.34713256249995,78.0,80.0
327,211.46698014166662,211.5935481458333,78.0,90.0
328,211.7357971416666,212.01133456666662,76.0,81.0
329,212.00461414166662,212.42800091666663,73.0,88.0
330,212.54224814166662,212.8715489666666,76.0,85.0
331,213.07988214166662,213.50774919999995,78.0,81.0
332,213.6175161416666,213.76424542083328,76.0,84.0
333,213.88633314166663,214.0431430583333,74.0,90.0
334,214.1551501416666,214.55277528749994,78.0,83.0
335,214.6927841416666,214.82495249999997,76.0,86.0
336,214.96160114166662,215.14529275833328,74.0,90.0
337,215.23041814166663,215.3704269958333,78.0,83.0
338,215.49923514166662,215.91254127916662,78.0,90.0
339,216.0368691416666,216.1981593416666,76.0,80.0
340,216.30568614166663,216.50841896249995,73.0,82.0
341,216.5745031416666,216.83771978749996,73.0,81.0
342,216.84332014166662,217.1748611083333,71.0,84.0
343,217.38095414166662,217.58368696249994,71.0,78.0
344,217.64977114166663,217.83794304166662,71.0,79.0
345,217.91858814166662,218.10227975833328,71.0,79.0
346,218.18740514166663,218.9692145833333,69.0,82.0
347,218.9938561416666,219.35451894999994,71.0,86.0
348,219.5314901416666,219.68830005833328,73.0,85.0
349,219.80030714166662,219.95599698749996,73.0,77.0
350,220.06912414166663,220.23153441249994,73.0,82.0
351,220.2035326416666,220.36930312499996,71.0,83.0
352,220.47234964166663,220.56643559166662,73.0,83.0
353,220.7411666416666,221.0861484583333,73.0,78.0
354,221.14439214166663,221.5308165791666,76.0,85.0
355,221.68202614166663,221.7660314541666,78.0,83.0
356,221.81643464166663,221.93180193749996,78.0,78.0
357,222.08525164166662,222.16925695416663,78.0,82.0
358,222.21966014166662,222.3708697041666,78.0,79.0
359,222.4884771416666,222.6184053583333,76.0,86.0
360,222.75729414166662,223.3106091333333,78.0,88.0
361,223.8325621416666,223.99161219999996,78.0,81.0
362,224.10137914166663,224.23802778333328,78.0,75.0
363,224.3701961416666,224.5001243583333,78.0,81.0
364,224.63901314166662,224.77566178333328,78.0,75.0
365,224.9078301416666,225.05343934999996,78.0,80.0
366,225.17664714166662,225.75236354999996,73.0,83.0
367,225.71428114166662,228.0384281208333,76.0,86.0
368,229.47771914166663,229.64012941249996,64.0,88.0
369,229.7465361416666,229.9134266958333,66.0,85.0
370,230.01535314166662,230.1665627041666,64.0,85.0
371,230.2841701416666,231.17238631249995,73.0,81.0
372,231.6282551416666,231.79738583749995,64.0,86.0
373,231.89707214166663,232.0852440416666,66.0,81.0
374,232.1658891416666,232.3395001208333,64.0,86.0
375,232.43470614166662,233.4618110958333,71.0,80.0
376,233.77879114166663,233.93560105833328,64.0,84.0
377,234.04760814166661,234.27946280416663,66.0,81.0
378,234.31642514166663,234.4743551291666,64.0,83.0
379,234.5852421416666,234.99630813749997,69.0,81.0
380,235.1228761416666,235.52610164166663,69.0,80.0
381,235.6605101416666,235.83300104999995,71.0,79.0
382,235.92932714166662,236.11301875833328,69.0,80.0
383,236.18918357499996,236.72233729166663,71.0,81.0
384,236.73577814166663,237.88049053333327,69.0,83.0
