,start,end,pitch,velocity
0,2.845980625,3.0178555333333335,59.0,70.0
1,2.310266625,3.984372875,45.0,80.0
2,3.113837625,4.3437476833333335,57.0,73.0
3,2.578123625,4.428569066666666,52.0,78.0
4,3.113837625,4.9720955625,64.0,80.0
5,4.720979625,5.658479125,52.0,73.0
6,4.453122625,5.756693358333334,44.0,75.0
7,4.988836625,5.895086141666667,56.0,80.0
8,5.2566936250000005,5.895086141666667,59.0,81.0
9,5.2566936250000005,5.958702179166667,64.0,82.0
10,6.595978625,7.304683604166667,66.0,74.0
11,7.131692625,7.358255004166667,57.0,76.0
12,6.863835625,7.723210166666667,45.0,67.0
13,6.595978625,7.806915479166667,38.0,82.0
14,7.399549625000001,8.1127188875,57.0,72.0
15,7.399549625000001,8.1696385,62.0,81.0
16,8.738834625,8.98660235,59.0,70.0
17,8.738834625,9.33481645,64.0,76.0
18,9.274548625,9.409593195833333,59.0,83.0
19,9.542405625,9.747762658333334,59.0,79.0
20,9.542405625,9.904012575,68.0,81.0
21,9.006691625,10.1484320875,47.0,69.0
22,8.738834625,10.1685213625,40.0,81.0
23,10.078119625000001,10.246646320833333,64.0,80.0
24,10.078119625000001,10.252226675000001,59.0,79.0
25,10.881690625000001,11.439726041666667,64.0,80.0
26,10.881690625000001,11.508922433333334,57.0,72.0
27,11.417404625,11.543520629166666,59.0,81.0
28,11.149547625,11.859368675,52.0,74.0
29,11.685261625,11.887270445833334,57.0,75.0
30,11.685261625,11.972091829166667,64.0,84.0
31,12.220975625000001,12.440841579166667,57.0,74.0
32,12.220975625000001,12.5256629625,61.0,79.0
33,11.953118625,12.593743283333334,52.0,75.0
34,10.881690625000001,12.6160647,45.0,78.0
35,13.024546625000001,13.292403625,57.0,71.0
36,13.024546625000001,13.602671316666667,62.0,74.0
37,13.560260625,14.013385383333334,57.0,77.0
38,13.828117625,14.4374923,62.0,79.0
39,13.024546625000001,14.6417332625,38.0,77.0
40,13.292403625,14.66517075,45.0,75.0
41,14.631688625,14.878340279166666,64.0,74.0
42,15.168683691666667,15.499400816666666,59.0,75.0
43,15.168683691666667,15.725857966666666,62.0,76.0
44,15.437741691666666,15.737068716666666,54.0,67.0
45,15.168683691666667,15.766216666666667,47.0,80.0
46,15.706799691666667,16.137292491666667,59.0,80.0
47,15.975857691666667,16.278547941666666,62.0,80.0
48,16.513973691666667,16.836843291666668,47.0,72.0
49,16.244915691666666,16.904107791666668,40.0,81.0
50,16.783031691666668,17.012852066666667,52.0,80.0
51,16.244915691666666,17.317784466666666,64.0,80.0
52,17.321147691666667,18.010608816666668,57.0,72.0
53,17.859263691666666,18.021819566666668,61.0,64.0
54,18.128321691666667,18.747155091666666,57.0,78.0
55,18.128321691666667,18.779666266666666,64.0,81.0
56,17.590205691666668,19.050966416666668,52.0,70.0
57,17.321147691666667,19.062177166666668,45.0,80.0
58,19.47361169166667,20.07226574166667,69.0,81.0
59,20.011727691666668,20.60253421666667,57.0,80.0
60,20.280785691666665,20.677646241666668,64.0,81.0
61,19.742669691666666,20.743789666666668,52.0,74.0
62,19.47361169166667,20.81105416666667,45.0,76.0
63,21.626075691666667,21.943339916666666,59.0,72.0
64,21.626075691666667,22.232577266666667,68.0,70.0
65,22.164191691666666,22.944459891666668,64.0,80.0
66,22.433249691666667,23.091320716666665,59.0,82.0
67,21.89513369166667,23.110378991666668,47.0,71.0
68,21.626075691666667,23.197822841666667,40.0,81.0
69,23.778539691666666,24.324503216666667,66.0,79.0
70,24.316655691666668,24.461274366666665,62.0,74.0
71,24.047597691666667,24.462395441666665,57.0,73.0
72,24.58571369166667,24.823381591666667,57.0,75.0
73,24.58571369166667,24.841318791666666,64.0,80.0
74,23.778539691666666,25.221363216666667,50.0,79.0
75,25.123829691666668,25.26956944166667,62.0,74.0
76,25.931003691666668,26.811047566666666,64.0,79.0
77,26.46911969166667,26.840195516666668,52.0,77.0
78,25.931003691666668,27.429880966666666,40.0,80.0
79,26.20006169166667,27.436607416666668,47.0,68.0
80,26.738177691666667,27.447818166666668,59.0,76.0
81,27.276293691666666,27.475845041666666,52.0,81.0
82,28.08346769166667,28.383915791666666,57.0,75.0
83,28.08346769166667,28.507234041666667,61.0,76.0
84,28.621583691666665,28.80992429166667,59.0,80.0
85,28.890641691666666,29.284139016666668,57.0,71.0
86,28.890641691666666,29.325618791666667,64.0,83.0
87,29.428757691666668,29.67539419166667,61.0,81.0
88,28.352525691666667,29.74265869166667,52.0,78.0
89,29.69781569166667,29.855887266666667,57.0,77.0
90,28.08346769166667,29.882793066666668,45.0,81.0
91,30.235931691666668,30.355886716666667,57.0,74.0
92,30.235931691666668,30.580101716666668,62.0,75.0
93,30.504989691666665,30.787500591666667,57.0,73.0
94,30.774047691666667,31.059921816666666,64.0,72.0
95,31.043105691666668,31.320011216666664,62.0,68.0
96,30.235931691666668,31.938844616666664,50.0,82.0
97,32.119337691666665,32.35027914166667,62.0,71.0
98,32.388395691666666,32.891758366666664,61.0,80.0
99,32.92651169166667,33.048708866666665,57.0,80.0
100,32.65745369166667,33.315524716666665,52.0,73.0
101,33.19556969166667,33.598035616666664,57.0,79.0
102,33.19556969166667,33.754986116666664,61.0,80.0
103,32.388395691666666,33.76731794166667,45.0,80.0
104,33.733685691666665,33.98368541666667,59.0,73.0
105,34.002743691666666,34.285254591666664,57.0,80.0
106,34.54085969166667,35.13839266666667,59.0,74.0
107,35.07897569166667,35.45005151666667,52.0,85.0
108,34.80991769166667,36.02516299166667,47.0,70.0
109,36.15520769166667,36.64511746666667,47.0,75.0
110,36.42426569166667,36.657449291666666,52.0,84.0
111,35.348033691666664,36.66081251666667,59.0,79.0
112,35.88614969166667,36.68883939166667,64.0,82.0
113,34.54085969166667,36.70789766666667,40.0,79.0
114,36.69332369166667,37.29197774166667,69.0,81.0
115,37.231439691666665,37.82224621666667,57.0,80.0
116,37.500497691666666,37.897358241666666,64.0,81.0
117,36.962381691666664,37.963501666666666,52.0,74.0
118,36.69332369166667,38.030766166666666,45.0,76.0
119,38.845787691666665,39.16305191666667,59.0,72.0
120,38.845787691666665,39.45228926666667,68.0,70.0
121,39.38390369166667,40.16417189166667,64.0,80.0
122,39.65296169166667,40.311032716666666,59.0,82.0
123,39.114845691666666,40.330090991666665,47.0,71.0
124,38.845787691666665,40.417534841666665,40.0,81.0
125,40.99825169166667,41.544215216666665,66.0,79.0
126,41.53636769166667,41.680986366666666,62.0,74.0
127,41.26730969166667,41.682107441666666,57.0,73.0
128,41.80542569166667,42.04309359166667,57.0,75.0
129,41.80542569166667,42.06103079166667,64.0,80.0
130,40.99825169166667,42.44107521666667,50.0,79.0
131,42.343541691666665,42.48928144166667,62.0,74.0
132,43.15071569166667,44.03075956666667,64.0,79.0
133,43.68883169166667,44.05990751666667,52.0,77.0
134,43.15071569166667,44.64959296666667,40.0,80.0
135,43.41977369166667,44.65631941666667,47.0,68.0
136,43.957889691666665,44.667530166666666,59.0,76.0
137,44.49600569166667,44.69555704166667,52.0,81.0
138,45.30317969166667,45.60362779166667,57.0,75.0
139,45.30317969166667,45.726946041666665,61.0,76.0
140,45.841295691666666,46.02963629166667,59.0,80.0
141,46.11035369166667,46.503851016666665,57.0,71.0
142,46.11035369166667,46.545330791666665,64.0,83.0
143,46.64846969166667,46.89510619166666,61.0,81.0
144,45.572237691666665,46.96237069166666,52.0,78.0
145,46.91752769166666,47.075599266666664,57.0,77.0
146,45.30317969166667,47.102505066666666,45.0,81.0
147,47.455643691666666,47.57559871666667,57.0,74.0
148,47.455643691666666,47.79981371666666,62.0,75.0
149,47.72470169166667,48.007212591666665,57.0,73.0
150,47.99375969166667,48.27963381666667,64.0,72.0
151,48.26281769166667,48.539723216666665,62.0,68.0
152,47.455643691666666,49.158556616666665,50.0,82.0
153,49.339049691666666,49.56999114166667,62.0,71.0
154,49.60810769166667,50.21236711666666,64.0,84.0
155,50.14622369166666,50.30317419166666,52.0,83.0
156,49.87716569166667,50.58568509166667,47.0,74.0
157,50.415281691666664,50.84913771666667,52.0,83.0
158,50.415281691666664,51.18882344166666,59.0,80.0
159,49.60810769166667,51.260572241666665,40.0,83.0
160,50.684339691666665,51.26729869166667,47.0,74.0
161,51.76057169166667,52.127163216666666,57.0,78.0
162,51.76057169166667,52.169764066666666,61.0,72.0
163,52.298687691666665,52.48254399166667,59.0,81.0
164,52.02962969166666,52.66640029166667,52.0,80.0
165,52.567745691666666,52.896220666666665,57.0,75.0
166,52.567745691666666,52.93321614166667,61.0,86.0
167,52.83680369166667,53.23590639166667,52.0,83.0
168,51.76057169166667,53.26617541666666,45.0,79.0
169,53.10586169166667,53.28299154166667,57.0,79.0
170,53.10586169166667,53.31213949166666,61.0,85.0
171,53.10586169166667,53.35361926666667,64.0,83.0
172,53.913035691666664,54.14846144166667,57.0,78.0
173,53.913035691666664,54.23142099166667,62.0,79.0
174,53.913035691666664,54.23366314166667,66.0,72.0
175,54.182093691666665,54.555411666666664,45.0,69.0
176,53.913035691666664,54.59128606666667,38.0,85.0
177,54.45115169166667,54.63388691666667,62.0,84.0
178,54.72020969166667,54.824469666666666,62.0,55.0
179,54.45115169166667,54.82783289166667,66.0,85.0
180,54.72020969166667,54.892855241666666,57.0,83.0
181,54.98926769166667,55.12155454166667,57.0,74.0
182,54.98926769166667,55.33904309166667,62.0,79.0
183,55.25832569166666,55.36370674166667,57.0,74.0
184,55.527383691666664,55.60585894166667,57.0,77.0
185,54.98926769166667,55.85473759166667,50.0,80.0
186,55.527383691666664,55.861464041666665,62.0,84.0
187,55.796441691666665,55.932091766666666,57.0,78.0
188,55.527383691666664,55.93881821666667,66.0,81.0
189,56.065499691666666,56.23029771666667,57.0,82.0
190,56.065499691666666,56.41079079166666,62.0,84.0
191,56.33455769166667,56.438817666666665,57.0,73.0
192,56.60361569166667,56.68657524166667,57.0,77.0
193,56.60361569166667,56.89733734166666,62.0,74.0
194,56.60361569166667,56.91639561666667,66.0,67.0
195,56.065499691666666,56.992628716666665,50.0,86.0
196,56.87267369166667,57.00271839166667,57.0,81.0
197,57.14173169166666,57.452269466666664,61.0,68.0
198,57.14173169166666,57.55092406666667,64.0,80.0
199,57.410789691666665,57.57670879166667,57.0,73.0
200,57.679847691666666,57.77962336666667,57.0,79.0
201,57.14173169166666,58.01392804166667,49.0,90.0
202,57.679847691666666,58.12603554166667,61.0,88.0
203,57.679847691666666,58.145093816666666,64.0,84.0
204,57.94890569166667,58.166394241666666,57.0,74.0
205,58.21796369166667,58.453389441666666,57.0,78.0
206,58.21796369166667,58.536348991666664,62.0,79.0
207,58.21796369166667,58.538591141666664,66.0,72.0
208,58.48702169166667,58.86033966666667,45.0,69.0
209,58.21796369166667,58.896214066666666,38.0,85.0
210,58.75607969166666,58.938814916666665,62.0,84.0
211,59.025137691666664,59.12939766666667,62.0,55.0
212,58.75607969166666,59.13276089166666,66.0,85.0
213,59.025137691666664,59.19778324166666,57.0,83.0
214,59.294195691666665,59.426482541666665,57.0,74.0
215,59.294195691666665,59.643971091666664,62.0,79.0
216,59.56325369166667,59.668634741666665,57.0,74.0
217,59.83231169166667,59.910786941666665,57.0,77.0
218,59.294195691666665,60.159665591666666,50.0,80.0
219,59.83231169166667,60.16639204166667,62.0,84.0
220,60.10136969166667,60.23701976666666,57.0,78.0
221,59.83231169166667,60.243746216666665,66.0,81.0
222,60.37042769166666,60.535225716666666,57.0,82.0
223,60.37042769166666,60.71571879166667,62.0,84.0
224,60.639485691666664,60.74374566666667,57.0,73.0
225,60.908543691666665,60.99150324166666,57.0,77.0
226,60.908543691666665,61.20226534166667,62.0,74.0
227,60.908543691666665,61.221323616666666,66.0,67.0
228,60.37042769166666,61.29755671666667,50.0,86.0
229,61.177601691666666,61.307646391666665,57.0,81.0
230,61.44665969166667,61.75719746666667,61.0,68.0
231,61.44665969166667,61.855852066666664,64.0,80.0
232,61.71571769166667,61.881636791666665,57.0,73.0
233,61.98477569166667,62.084551366666666,57.0,79.0
234,61.44665969166667,62.31885604166666,49.0,90.0
235,61.98477569166667,62.430963541666664,61.0,88.0
236,61.98477569166667,62.45002181666666,64.0,84.0
237,62.253833691666664,62.47132224166667,57.0,74.0
238,62.522891691666665,62.68881079166667,59.0,81.0
239,62.522891691666665,62.82221871666667,62.0,82.0
240,62.522891691666665,62.852487741666664,66.0,81.0
241,62.791949691666666,62.902936116666666,59.0,79.0
242,63.06100769166667,63.26055904166667,59.0,83.0
243,63.06100769166667,63.324460316666666,62.0,83.0
244,63.06100769166667,63.33118676666667,66.0,83.0
245,63.33006569166667,63.72356301666667,54.0,67.0
246,63.59912369166667,63.913024691666664,59.0,82.0
247,63.59912369166667,63.921993291666666,62.0,79.0
248,63.59912369166667,63.957867691666664,66.0,74.0
249,63.86818169166666,64.09239669166666,54.0,72.0
250,62.522891691666665,64.09800206666667,47.0,80.0
251,64.13723969166666,64.23925751666667,59.0,84.0
252,64.13723969166666,64.32221706666667,62.0,81.0
253,64.13723969166666,64.37939189166667,66.0,80.0
254,64.40629769166667,64.53634239166666,59.0,81.0
255,64.67535569166667,64.95562444166667,61.0,74.0
256,64.67535569166667,65.03185754166667,64.0,79.0
257,65.21347169166667,65.28634156666666,56.0,75.0
258,65.21347169166667,65.36705896666668,61.0,81.0
259,65.21347169166667,65.37042219166668,64.0,80.0
260,64.67535569166667,65.61593761666667,49.0,85.0
261,65.48252969166667,65.62939051666667,56.0,80.0
262,65.75158769166667,65.89732744166668,56.0,80.0
263,65.75158769166667,66.16862759166666,64.0,82.0
264,65.75158769166667,66.18992801666667,61.0,80.0
265,66.02064569166667,66.23701316666667,56.0,80.0
266,65.75158769166667,66.36369464166667,49.0,77.0
267,66.28970369166667,66.36705786666667,56.0,80.0
268,66.28970369166667,66.41750624166667,61.0,80.0
269,66.28970369166667,66.43880666666666,64.0,86.0
270,66.82781969166668,67.13835746666668,66.0,74.0
271,66.82781969166668,67.16077896666667,62.0,75.0
272,67.09687769166666,67.21122734166667,57.0,67.0
273,66.82781969166668,67.42983696666667,38.0,83.0
274,67.36593569166666,67.48701179166667,57.0,80.0
275,67.36593569166666,67.50943329166667,62.0,84.0
276,67.36593569166666,67.54194446666666,66.0,83.0
277,67.63499369166666,67.71459001666668,62.0,65.0
278,67.63499369166666,67.76055409166668,57.0,73.0
279,67.90405169166667,68.05651789166667,57.0,74.0
280,67.90405169166667,68.28521719166667,62.0,80.0
281,67.90405169166667,68.29082256666668,66.0,79.0
282,68.17310969166667,68.32109159166667,57.0,73.0
283,68.44216769166667,68.54082229166667,57.0,74.0
284,68.44216769166667,68.77176374166667,62.0,82.0
285,68.71122569166667,68.80539599166667,57.0,74.0
286,68.44216769166667,68.86593404166668,66.0,81.0
287,68.98028369166667,69.02288454166667,59.0,62.0
288,68.98028369166667,69.02288454166667,59.0,79.0
289,68.98028369166667,69.22355696666666,51.0,88.0
290,68.98028369166667,69.28857931666667,63.0,79.0
291,68.98028369166667,69.30987974166666,66.0,76.0
292,69.24934169166667,69.35360166666668,59.0,77.0
293,69.51839969166667,69.60360139166667,59.0,79.0
294,69.51839969166667,69.64283901666667,63.0,88.0
295,69.51839969166667,69.65629191666667,66.0,82.0
296,69.78745769166667,69.91301809166667,59.0,81.0
297,70.05651569166668,70.13611201666667,59.0,75.0
298,70.05651569166668,70.18431824166667,39.0,83.0
299,70.05651569166668,70.20449759166667,63.0,86.0
300,70.05651569166668,70.37826421666666,66.0,82.0
301,70.32557369166668,70.44552871666667,59.0,75.0
302,70.59463169166666,70.67647016666668,59.0,82.0
303,70.59463169166666,70.71570779166667,63.0,90.0
304,70.59463169166666,70.76951939166668,66.0,84.0
305,70.86368969166666,71.02624556666667,59.0,80.0
306,71.13274769166667,71.41413751666667,52.0,79.0
307,71.13274769166667,71.70337486666666,64.0,83.0
308,71.67086369166667,71.80202946666667,52.0,81.0
309,71.40180569166667,72.02176016666667,47.0,72.0
310,71.93992169166667,72.16637884166667,52.0,81.0
311,71.93992169166667,72.17086314166667,64.0,84.0
312,71.13274769166667,72.56548154166667,40.0,83.0
313,72.20897969166667,72.57220799166667,47.0,80.0
314,72.47803769166667,72.61480884166667,52.0,79.0
315,72.47803769166667,72.65292539166667,56.0,71.0
316,72.47803769166667,72.72131096666666,59.0,78.0
317,73.28521169166667,73.55763291666668,52.0,79.0
318,73.28521169166667,73.56211721666666,56.0,67.0
319,73.28521169166667,73.61817096666667,59.0,76.0
320,73.28521169166667,73.68767761666668,64.0,73.0
321,74.36144369166666,74.56996364166667,64.0,80.0
322,74.36144369166666,74.94552376666667,76.0,78.0
323,73.28521169166667,75.03633084166667,40.0,78.0
324,74.63050169166667,75.37153226666668,71.0,69.0
325,74.89955969166667,75.41973849166666,64.0,73.0
326,75.43767569166667,75.79193539166667,69.0,78.0
327,75.43767569166667,75.81435689166668,57.0,72.0
328,75.97579169166667,76.18879594166667,57.0,79.0
329,76.24484969166667,76.43319029166668,59.0,80.0
330,75.70673369166667,76.93767404166667,52.0,73.0
331,76.78296569166667,76.95561124166667,57.0,72.0
332,76.78296569166667,76.97579059166667,61.0,76.0
333,75.43767569166667,77.11144066666667,45.0,79.0
334,77.59013969166666,78.08565484166667,64.0,82.0
335,78.12825569166667,78.29081156666668,59.0,80.0
336,78.39731369166667,78.85583336666667,59.0,80.0
337,78.39731369166667,78.86480196666668,64.0,84.0
338,77.59013969166666,79.15179716666667,40.0,72.0
339,78.93542969166667,79.17421866666666,59.0,79.0
340,78.93542969166667,79.20224554166667,64.0,81.0
341,77.85919769166667,79.38834399166667,52.0,72.0
342,79.74260369166667,79.93654966666666,57.0,69.0
343,79.74260369166667,80.31323086666667,66.0,74.0
344,80.01166169166666,80.41300654166666,57.0,72.0
345,80.28071969166666,80.45000201666667,62.0,76.0
346,80.54977769166666,80.98811801666666,57.0,80.0
347,80.54977769166666,81.27174999166667,64.0,81.0
348,79.74260369166667,81.40179469166667,50.0,73.0
349,81.35695169166667,81.59013529166667,62.0,78.0
350,81.89506769166667,82.19663686666667,61.0,73.0
351,81.89506769166667,82.27847534166666,57.0,72.0
352,82.43318369166667,82.58340774166666,59.0,74.0
353,82.70224169166667,82.90403519166667,57.0,70.0
354,82.70224169166667,82.97129969166667,64.0,80.0
355,82.16412569166667,83.37040239166667,52.0,78.0
356,83.24035769166667,84.05762136666667,61.0,68.0
357,84.04753169166666,84.05762136666667,61.0,60.0
358,83.50941569166666,84.05986351666667,52.0,72.0
359,81.89506769166667,84.06995319166667,45.0,78.0
360,84.04753169166666,84.06995319166667,45.0,79.0
361,84.04753169166666,84.39058064166667,57.0,69.0
362,84.04753169166666,84.57331586666666,69.0,78.0
363,84.58564769166667,84.87376396666667,59.0,80.0
364,84.85470569166667,85.13609551666667,57.0,73.0
365,84.85470569166667,85.19999679166666,61.0,74.0
366,84.31658969166666,85.53295606666667,52.0,79.0
367,85.39282169166667,85.58676766666666,57.0,75.0
368,85.39282169166667,85.65963754166667,64.0,82.0
369,85.66187969166667,85.80201406666667,52.0,71.0
370,86.19999569166667,86.52510744166666,59.0,75.0
371,86.19999569166667,86.71344804166667,62.0,75.0
372,86.73811169166666,86.85358241666667,59.0,81.0
373,87.00716969166666,87.19663136666667,59.0,79.0
374,87.00716969166666,87.27174339166666,66.0,75.0
375,86.46905369166667,87.41972529166667,54.0,74.0
376,86.19999569166667,87.63272954166666,47.0,80.0
377,87.81434369166666,88.16972446666666,62.0,77.0
378,88.08340169166667,88.36142829166667,59.0,71.0
379,88.89057569166667,89.26165151666666,52.0,82.0
380,88.35245969166667,89.76052989166666,64.0,80.0
381,89.15963369166667,89.78070924166667,59.0,80.0
382,88.62151769166667,89.85918449166667,47.0,77.0
383,89.69774969166667,89.89617996666666,52.0,78.0
384,88.35245969166667,89.91187501666667,40.0,80.0
385,89.96680769166667,90.10021561666667,52.0,72.0
386,89.96680769166667,90.14169539166667,56.0,67.0
387,89.96680769166667,90.15851151666666,59.0,72.0
388,89.96680769166667,90.25043966666667,64.0,71.0
389,90.50492369166666,90.83115651666667,61.0,72.0
390,90.50492369166666,91.06994549166667,57.0,72.0
391,91.04303969166666,91.36590929166667,59.0,79.0
392,90.77398169166666,91.51501226666667,52.0,81.0
393,91.31209769166666,91.72129006666667,61.0,85.0
394,91.58115569166667,91.98810591666667,52.0,77.0
395,91.85021369166667,92.01164849166666,57.0,73.0
396,91.85021369166667,92.06433901666666,61.0,79.0
397,91.85021369166667,92.15178286666666,64.0,79.0
398,90.50492369166666,92.17868866666667,45.0,80.0
399,92.11927169166667,92.21904736666667,52.0,78.0
400,92.65738769166667,92.92308246666667,57.0,73.0
401,92.65738769166667,93.25940496666666,66.0,72.0
402,93.46456169166666,93.76725194166667,62.0,79.0
403,93.19550369166667,93.79752096666667,57.0,76.0
404,92.92644569166667,93.98698264166667,45.0,75.0
405,93.73361969166666,94.05312606666666,64.0,81.0
406,92.65738769166667,94.05873144166667,38.0,82.0
407,94.00267769166666,94.26388816666666,62.0,78.0
408,94.54079369166666,94.69774419166667,57.0,72.0
409,94.80985169166667,95.01949271666666,57.0,74.0
410,94.80985169166667,95.20222794166666,62.0,79.0
411,95.34796769166667,95.63496289166666,64.0,73.0
412,95.07890969166667,95.79863984166667,45.0,72.0
413,95.61702569166667,96.12263051666666,62.0,78.0
414,94.80985169166667,96.27958101666667,38.0,82.0
415,95.88608369166667,96.28070209166667,45.0,67.0
416,96.15514169166667,96.44213689166666,57.0,76.0
417,96.42419969166667,96.58899771666667,62.0,78.0
418,96.96231569166666,97.16859349166667,57.0,69.0
419,96.96231569166666,97.54303254166666,64.0,79.0
420,97.50043169166666,97.77957936666667,57.0,80.0
421,97.76948969166666,97.94437739166666,59.0,83.0
422,98.03854769166666,98.19437711666667,57.0,75.0
423,97.23137369166666,98.23922011666667,52.0,78.0
424,98.03854769166666,98.25939946666666,61.0,86.0
425,96.96231569166666,98.28966849166666,45.0,80.0
426,98.30760569166667,98.41298674166667,64.0,79.0
427,99.11477969166667,99.49123570416666,52.0,80.0
428,99.11477969166667,99.96779794999999,64.0,80.0
429,99.65194990416666,99.97561044583333,56.0,77.0
430,100.99123490416666,101.15752945833333,56.0,22.0
431,99.38383769166667,101.1831990875,47.0,70.0
432,99.91980690416666,101.20217229166666,59.0,74.0
433,100.18766390416666,101.20328836249999,64.0,81.0
434,99.11477969166667,101.23119013333333,40.0,83.0
435,101.25909190416667,101.85507372916666,69.0,81.0
436,101.79480590416667,102.38297523333333,57.0,80.0
437,102.06266290416666,102.45775197916666,64.0,81.0
438,101.52694890416666,102.52360015833332,52.0,74.0
439,101.25909190416667,102.59056440833332,45.0,76.0
440,103.40194790416666,103.71779595,59.0,72.0
441,103.40194790416666,104.00574222499999,68.0,70.0
442,103.93766190416666,104.71444720416666,64.0,80.0
443,104.20551890416667,104.86065248333333,59.0,82.0
444,103.66980490416665,104.8796256875,47.0,71.0
445,103.40194790416666,104.9666792125,40.0,81.0
446,105.54480390416666,106.08833039999999,66.0,79.0
447,106.08051790416665,106.22449104166667,62.0,74.0
448,105.81266090416666,106.2256071125,57.0,73.0
449,106.34837490416666,106.58498192083333,57.0,75.0
450,106.34837490416666,106.60283905416667,64.0,80.0
451,105.54480390416666,106.98118706666666,50.0,79.0
452,106.88408890416666,107.02917811249999,62.0,74.0
453,107.68765990416667,108.56377550833332,64.0,79.0
454,108.22337390416666,108.59279335,52.0,77.0
455,107.68765990416667,109.17984660833332,40.0,80.0
456,107.95551690416666,109.18654303333332,47.0,68.0
457,108.49123090416666,109.19770374166666,59.0,76.0
458,109.02694490416665,109.2256055125,52.0,81.0
459,109.83087530416665,110.13065117083333,57.0,75.0
460,109.83087530416665,110.25369350416666,61.0,76.0
461,110.36778730416665,110.55601252083332,59.0,80.0
462,110.63672992083332,111.03022724583332,57.0,71.0
463,110.63672992083332,111.07170702083332,64.0,83.0
464,111.17484592083332,111.42148242083331,61.0,81.0
465,110.09933130416665,111.48874692083332,52.0,78.0
466,111.44390392083332,111.60197549583332,57.0,77.0
467,109.83087530416665,111.62888129583332,45.0,81.0
468,111.98201992083332,112.10197494583332,57.0,74.0
469,111.98201992083332,112.32618994583332,62.0,75.0
470,112.25107792083332,112.53358882083332,57.0,73.0
471,112.52013592083333,112.80601004583332,64.0,72.0
472,112.78919392083331,113.06609944583332,62.0,68.0
473,111.98201992083332,113.68493284583332,50.0,82.0
474,113.86542592083332,114.09636737083332,62.0,71.0
475,114.13448392083332,114.63784659583332,61.0,80.0
476,114.67259992083332,114.79479709583332,57.0,80.0
477,114.40354192083332,115.06161294583332,52.0,73.0
478,114.94165792083332,115.34412384583332,57.0,79.0
479,114.94165792083332,115.50107434583332,61.0,80.0
480,114.13448392083332,115.51340617083332,45.0,80.0
481,115.47977392083332,115.72977364583332,59.0,73.0
482,115.74883192083333,116.03134282083332,57.0,80.0
483,116.28694792083331,116.88448089583332,59.0,74.0
484,116.82506392083332,117.19613974583332,52.0,85.0
485,116.55600592083331,117.77125122083332,47.0,70.0
486,117.90129592083332,118.39120569583332,47.0,75.0
487,118.17035392083332,118.40353752083332,52.0,84.0
488,117.09412192083332,118.40690074583333,59.0,79.0
489,117.63223792083332,118.43492762083332,64.0,82.0
490,116.28694792083331,118.45398589583331,40.0,79.0
491,118.43941192083332,119.03806597083332,69.0,81.0
492,118.97752792083332,119.56833444583332,57.0,80.0
493,119.24658592083333,119.64344647083333,64.0,81.0
494,118.70846992083332,119.70958989583332,52.0,74.0
495,118.43941192083332,119.77685439583333,45.0,76.0
496,120.59187592083332,120.90914014583332,59.0,72.0
497,120.59187592083332,121.19837749583331,68.0,70.0
498,121.12999192083332,121.91026012083331,64.0,80.0
499,121.39904992083332,122.05712094583332,59.0,82.0
500,120.86093392083332,122.07617922083332,47.0,71.0
501,120.59187592083332,122.16362307083332,40.0,81.0
502,122.74433992083331,123.29030344583332,66.0,79.0
503,123.28245592083331,123.42707459583332,62.0,74.0
504,123.01339792083331,123.42819567083332,57.0,73.0
505,123.55151392083332,123.78918182083332,57.0,75.0
506,123.55151392083332,123.80711902083331,64.0,80.0
507,122.74433992083331,124.18716344583332,50.0,79.0
508,124.08962992083332,124.23536967083332,62.0,74.0
509,124.89680392083332,125.77684779583332,64.0,79.0
510,125.43491992083332,125.80599574583331,52.0,77.0
511,124.89680392083332,126.39568119583332,40.0,80.0
512,125.16586192083332,126.40240764583332,47.0,68.0
513,125.70397792083332,126.41361839583332,59.0,76.0
514,126.24209392083333,126.44164527083332,52.0,81.0
515,127.04926792083332,127.34971602083331,57.0,75.0
516,127.04926792083332,127.47303427083332,61.0,76.0
517,127.58738392083332,127.77572452083332,59.0,80.0
518,127.85644192083332,128.24993924583333,57.0,71.0
519,127.85644192083332,128.29141902083333,64.0,83.0
520,128.3945579208333,128.64119442083333,61.0,81.0
521,127.31832592083332,128.70845892083332,52.0,78.0
522,128.6636159208333,128.82168749583332,57.0,77.0
523,127.04926792083332,128.84859329583333,45.0,81.0
524,129.2017319208333,129.32168694583333,57.0,74.0
525,129.2017319208333,129.54590194583332,62.0,75.0
526,129.4707899208333,129.75330082083332,57.0,73.0
527,129.7398479208333,130.02572204583333,64.0,72.0
528,130.0089059208333,130.28581144583333,62.0,68.0
529,129.2017319208333,130.90464484583333,50.0,82.0
530,131.08513792083332,131.3160793708333,62.0,71.0
531,131.35419592083332,131.95845534583333,64.0,84.0
532,131.89231192083332,132.04926242083332,52.0,83.0
533,131.62325392083332,132.33177332083332,47.0,74.0
534,132.16136992083332,132.5952259458333,52.0,83.0
535,132.16136992083332,132.93491167083332,59.0,80.0
536,131.35419592083332,133.0066604708333,40.0,83.0
537,132.43042792083332,133.0133869208333,47.0,74.0
538,133.50665992083333,133.87325144583332,57.0,78.0
539,133.50665992083333,133.9158522958333,61.0,72.0
540,134.04477592083333,134.22863222083333,59.0,81.0
541,133.77571792083333,134.41248852083334,52.0,80.0
542,134.31383392083333,134.6423088958333,57.0,75.0
543,134.31383392083333,134.6793043708333,61.0,86.0
544,134.58289192083333,134.98199462083332,52.0,83.0
545,133.50665992083333,135.01226364583331,45.0,79.0
546,134.8519499208333,135.02907977083333,57.0,79.0
547,134.8519499208333,135.05822772083332,61.0,85.0
548,134.8519499208333,135.09970749583331,64.0,83.0
549,135.6591239208333,135.89454967083333,57.0,78.0
550,135.6591239208333,135.97750922083333,62.0,79.0
551,135.6591239208333,135.97975137083333,66.0,72.0
552,135.9281819208333,136.30149989583333,45.0,69.0
553,135.6591239208333,136.3373742958333,38.0,85.0
554,136.1972399208333,136.37997514583333,62.0,84.0
555,136.4662979208333,136.57055789583333,62.0,55.0
556,136.1972399208333,136.57392112083332,66.0,85.0
557,136.4662979208333,136.6389434708333,57.0,83.0
558,136.7353559208333,136.86764277083333,57.0,74.0
559,136.7353559208333,137.0851313208333,62.0,79.0
560,137.00441392083331,137.10979497083332,57.0,74.0
561,137.27347192083332,137.3519471708333,57.0,77.0
562,136.7353559208333,137.6008258208333,50.0,80.0
563,137.27347192083332,137.6075522708333,62.0,84.0
564,137.54252992083332,137.67817999583332,57.0,78.0
565,137.27347192083332,137.68490644583332,66.0,81.0
566,137.81158792083332,137.97638594583333,57.0,82.0
567,137.81158792083332,138.15687902083332,62.0,84.0
568,138.08064592083332,138.1849058958333,57.0,73.0
569,138.34970392083332,138.43266347083332,57.0,77.0
570,138.34970392083332,138.64342557083333,62.0,74.0
571,138.34970392083332,138.66248384583332,66.0,67.0
572,137.81158792083332,138.73871694583332,50.0,86.0
573,138.61876192083332,138.7488066208333,57.0,81.0
574,138.88781992083332,139.19835769583332,61.0,68.0
575,138.88781992083332,139.29701229583333,64.0,80.0
576,139.15687792083332,139.32279702083332,57.0,73.0
577,139.42593592083333,139.52571159583331,57.0,79.0
578,138.88781992083332,139.76001627083332,49.0,90.0
579,139.42593592083333,139.87212377083333,61.0,88.0
580,139.42593592083333,139.89118204583332,64.0,84.0
581,139.69499392083333,139.9124824708333,57.0,74.0
582,139.96405192083333,140.19947767083332,57.0,78.0
583,139.96405192083333,140.28243722083332,62.0,79.0
584,139.96405192083333,140.28467937083332,66.0,72.0
585,140.23310992083333,140.60642789583332,45.0,69.0
586,139.96405192083333,140.64230229583333,38.0,85.0
587,140.50216792083333,140.68490314583332,62.0,84.0
588,140.77122592083333,140.87548589583332,62.0,55.0
589,140.50216792083333,140.8788491208333,66.0,85.0
590,140.77122592083333,140.94387147083333,57.0,83.0
591,141.04028392083333,141.17257077083332,57.0,74.0
592,141.04028392083333,141.39005932083333,62.0,79.0
593,141.30934192083333,141.4147229708333,57.0,74.0
594,141.5783999208333,141.65687517083333,57.0,77.0
595,141.04028392083333,141.90575382083333,50.0,80.0
596,141.5783999208333,141.91248027083333,62.0,84.0
597,141.84745792083334,141.9831079958333,57.0,78.0
598,141.5783999208333,141.9898344458333,66.0,81.0
599,142.1165159208333,142.28131394583332,57.0,82.0
600,142.1165159208333,142.4618070208333,62.0,84.0
601,142.3855739208333,142.48983389583333,57.0,73.0
602,142.6546319208333,142.7375914708333,57.0,77.0
603,142.6546319208333,142.94835357083332,62.0,74.0
604,142.6546319208333,142.9674118458333,66.0,67.0
605,142.1165159208333,143.0436449458333,50.0,86.0
606,142.9236899208333,143.05373462083332,57.0,81.0
607,143.1927479208333,143.5032856958333,61.0,68.0
608,143.1927479208333,143.60194029583332,64.0,80.0
609,143.4618059208333,143.6277250208333,57.0,73.0
610,143.73086392083331,143.8306395958333,57.0,79.0
611,143.1927479208333,144.06494427083334,49.0,90.0
612,143.73086392083331,144.17705177083332,61.0,88.0
613,143.73086392083331,144.19611004583334,64.0,84.0
614,143.99992192083332,144.21741047083333,57.0,74.0
615,144.26897992083332,144.4348990208333,59.0,81.0
616,144.26897992083332,144.5683069458333,62.0,82.0
617,144.26897992083332,144.59857597083334,66.0,81.0
618,144.53803792083332,144.6490243458333,59.0,79.0
619,144.80709592083332,145.00664727083333,59.0,83.0
620,144.80709592083332,145.07054854583333,62.0,83.0
621,144.80709592083332,145.0772749958333,66.0,83.0
622,145.07615392083332,145.46965124583332,54.0,67.0
623,145.34521192083332,145.6591129208333,59.0,82.0
624,145.34521192083332,145.6680815208333,62.0,79.0
625,145.34521192083332,145.70395592083332,66.0,74.0
626,145.61426992083332,145.8384849208333,54.0,72.0
627,144.26897992083332,145.84409029583333,47.0,80.0
628,145.88332792083332,145.9853457458333,59.0,84.0
629,145.88332792083332,146.0683052958333,62.0,81.0
630,145.88332792083332,146.12548012083332,66.0,80.0
631,146.15238592083332,146.2824306208333,59.0,81.0
632,146.42144392083333,146.70171267083333,61.0,74.0
633,146.42144392083333,146.77794577083333,64.0,79.0
634,146.95955992083333,147.0324297958333,56.0,75.0
635,146.95955992083333,147.11314719583333,61.0,81.0
636,146.95955992083333,147.11651042083332,64.0,80.0
637,146.42144392083333,147.36202584583333,49.0,85.0
638,147.22861792083333,147.37547874583333,56.0,80.0
639,147.49767592083333,147.64341567083332,56.0,80.0
640,147.49767592083333,147.91471582083332,64.0,82.0
641,147.49767592083333,147.93601624583331,61.0,80.0
642,147.7667339208333,147.98310139583333,56.0,80.0
643,147.49767592083333,148.10978287083333,49.0,77.0
644,148.03579192083333,148.11314609583332,56.0,80.0
645,148.03579192083333,148.16359447083332,61.0,80.0
646,148.03579192083333,148.1848948958333,64.0,86.0
647,148.57390792083334,148.88444569583334,66.0,74.0
648,148.57390792083334,148.9068671958333,62.0,75.0
649,148.8429659208333,148.95731557083332,57.0,67.0
650,148.57390792083334,149.17592519583332,38.0,83.0
651,149.11202392083334,149.23310002083332,57.0,80.0
652,149.11202392083334,149.25552152083333,62.0,84.0
653,149.11202392083334,149.28803269583332,66.0,83.0
654,149.3810819208333,149.46067824583332,62.0,65.0
655,149.3810819208333,149.50664232083332,57.0,73.0
656,149.6501399208333,149.80260612083333,57.0,74.0
657,149.6501399208333,150.03130542083332,62.0,80.0
658,149.6501399208333,150.0369107958333,66.0,79.0
659,149.9191979208333,150.0671798208333,57.0,73.0
660,150.1882559208333,150.28691052083332,57.0,74.0
661,150.1882559208333,150.5178519708333,62.0,82.0
662,150.45731392083331,150.55148422083332,57.0,74.0
663,150.1882559208333,150.61202227083334,66.0,81.0
664,150.72637192083332,150.76897277083333,59.0,62.0
665,150.72637192083332,150.76897277083333,59.0,79.0
666,150.72637192083332,150.96964519583332,51.0,88.0
667,150.72637192083332,151.03466754583332,63.0,79.0
668,150.72637192083332,151.0559679708333,66.0,76.0
669,150.99542992083332,151.0996898958333,59.0,77.0
670,151.26448792083332,151.34968962083332,59.0,79.0
671,151.26448792083332,151.38892724583332,63.0,88.0
672,151.26448792083332,151.40238014583332,66.0,82.0
673,151.53354592083332,151.6591063208333,59.0,81.0
674,151.80260392083332,151.8822002458333,59.0,75.0
675,151.80260392083332,151.9304064708333,39.0,83.0
676,151.80260392083332,151.9505858208333,63.0,86.0
677,151.80260392083332,152.12435244583332,66.0,82.0
678,152.07166192083332,152.19161694583332,59.0,75.0
679,152.34071992083332,152.42255839583333,59.0,82.0
680,152.34071992083332,152.46179602083333,63.0,90.0
681,152.34071992083332,152.51560762083332,66.0,84.0
682,152.60977792083332,152.77233379583333,59.0,80.0
683,152.87883592083332,153.16022574583332,52.0,79.0
684,152.87883592083332,153.44946309583332,64.0,83.0
685,153.41695192083333,153.54811769583333,52.0,81.0
686,153.14789392083333,153.7678483958333,47.0,72.0
687,153.68600992083333,153.91246707083332,52.0,81.0
688,153.68600992083333,153.91695137083332,64.0,84.0
689,152.87883592083332,154.31156977083333,40.0,83.0
690,153.95506792083333,154.3182962208333,47.0,80.0
691,154.22412592083333,154.36089707083332,52.0,79.0
692,154.22412592083333,154.39901362083333,56.0,71.0
693,154.22412592083333,154.4673991958333,59.0,78.0
694,155.0312999208333,155.30372114583332,52.0,79.0
695,155.0312999208333,155.30820544583332,56.0,67.0
696,155.0312999208333,155.3642591958333,59.0,76.0
697,155.0312999208333,155.43367258749998,64.0,73.0
698,156.10563065416665,156.31359105416664,64.0,80.0
699,156.10563065416665,156.68814338749996,76.0,78.0
700,155.0312999208333,156.77870678749997,40.0,78.0
701,156.37396665416665,157.1130087208333,71.0,69.0
702,156.64230265416666,157.16108558749997,64.0,73.0
703,157.17897465416664,157.77602225416663,69.0,81.0
704,157.71564665416665,158.30486778749997,57.0,80.0
705,157.98398265416665,158.37977825416664,64.0,81.0
706,157.44731065416664,158.44574418749997,52.0,74.0
707,157.17897465416664,158.51282818749996,45.0,76.0
708,159.32566265416665,159.64207552083332,59.0,72.0
709,159.32566265416665,159.93053672083332,68.0,70.0
710,159.86233465416663,160.64050905416664,64.0,80.0
711,160.13067065416664,160.78697578749998,59.0,82.0
712,159.59399865416665,160.80598292083332,47.0,71.0
713,159.32566265416665,160.8931921208333,40.0,81.0
714,161.47235065416663,162.0168491208333,66.0,79.0
715,162.00902265416664,162.15325325416666,62.0,74.0
716,161.74068665416664,162.15437132083332,57.0,73.0
717,162.27735865416665,162.51438878749997,57.0,75.0
718,162.27735865416665,162.53227785416664,64.0,80.0
719,161.47235065416663,162.91130245416664,50.0,79.0
720,162.81403065416663,162.9593793208333,62.0,74.0
721,163.61903865416664,164.49672098749997,64.0,79.0
722,164.15571065416665,164.5257907208333,52.0,77.0
723,163.61903865416664,165.1138937875,40.0,80.0
724,163.88737465416665,165.12060218749997,47.0,68.0
725,164.42404665416663,165.13178285416663,59.0,76.0
726,164.96071865416664,165.1597345208333,52.0,81.0
727,165.76572665416666,166.06536852083332,57.0,75.0
728,165.76572665416666,166.18835585416664,61.0,76.0
729,166.30239865416664,166.49023385416663,59.0,80.0
730,166.57073465416664,166.96317605416664,57.0,71.0
731,166.57073465416664,167.00454452083332,64.0,83.0
732,167.10740665416665,167.3533813208333,61.0,81.0
733,166.03406265416663,167.4204653208333,52.0,78.0
734,167.37574265416663,167.53339005416663,57.0,77.0
735,165.76572665416666,167.56022365416663,45.0,81.0
736,167.91241465416664,168.03204778749998,57.0,74.0
737,167.91241465416664,168.2556611208333,62.0,75.0
738,168.18075065416664,168.46250345416664,57.0,73.0
739,168.44908665416665,168.73419365416663,64.0,72.0
740,168.71742265416665,168.9935851208333,62.0,68.0
741,167.91241465416664,169.6108104208333,50.0,82.0
742,169.79106065416664,170.02169138749997,62.0,71.0
743,170.05975665416662,170.56244208749996,61.0,80.0
744,170.59714865416663,170.7191814208333,57.0,80.0
745,170.32845265416663,170.98563828749997,52.0,73.0
746,170.86584465416664,171.26776908749997,57.0,79.0
747,170.86584465416664,171.4245084208333,61.0,80.0
748,170.05975665416662,171.43682365416663,45.0,80.0
749,171.40323665416662,171.6529000208333,59.0,73.0
750,171.67193265416662,171.95406345416663,57.0,80.0
751,172.20932465416664,172.80605368749997,59.0,74.0
752,172.74671665416662,173.1172932208333,52.0,85.0
753,172.47802065416664,173.6916309208333,47.0,70.0
754,173.82150065416664,174.31075128749995,47.0,75.0
755,174.09019665416662,174.3230665208333,52.0,84.0
756,173.01541265416662,174.3264252208333,59.0,79.0
757,173.55280465416664,174.35441438749996,64.0,82.0
758,172.20932465416664,174.3734470208333,40.0,79.0
759,174.35889265416662,174.95674125416664,69.0,81.0
760,174.89628465416664,175.48629628749995,57.0,80.0
761,175.16498065416664,175.56130725416662,64.0,81.0
762,174.62758865416663,175.62736168749996,52.0,74.0
763,174.35889265416662,175.69453568749998,45.0,76.0
764,176.50846065416664,176.8252980208333,59.0,72.0
765,176.50846065416664,177.1141462208333,68.0,70.0
766,177.04585265416662,177.82507105416664,64.0,80.0
767,177.31454865416663,177.97173428749997,59.0,82.0
768,176.77715665416662,177.9907669208333,47.0,71.0
769,176.50846065416664,178.0780931208333,40.0,81.0
770,178.65802865416663,179.2032576208333,66.0,79.0
771,179.19542065416664,179.33984475416662,62.0,74.0
772,178.92672465416663,179.3409643208333,57.0,73.0
773,179.46411665416662,179.70146478749996,57.0,75.0
774,179.46411665416662,179.71937785416662,64.0,80.0
775,178.65802865416663,180.09891095416663,50.0,79.0
776,180.00150865416663,180.1470523208333,62.0,74.0
777,180.80759665416664,181.68645648749995,64.0,79.0
778,181.34498865416663,181.7155652208333,52.0,77.0
779,180.80759665416664,182.30445728749996,40.0,80.0
780,181.07629265416662,182.31117468749997,47.0,68.0
781,181.61368465416663,182.32237035416662,59.0,76.0
782,182.15107665416664,182.3503595208333,52.0,81.0
783,182.95716465416663,183.2572085208333,57.0,75.0
784,182.95716465416663,183.38036085416664,61.0,76.0
785,183.49455665416664,183.68264385416663,59.0,80.0
786,183.76325265416662,184.15622055416662,57.0,71.0
787,183.76325265416662,184.1976445208333,64.0,83.0
788,184.30064465416663,184.5469493208333,61.0,81.0
789,183.22586065416664,184.6141233208333,52.0,78.0
790,184.56934065416664,184.72719955416665,57.0,77.0
791,182.95716465416663,184.75406915416664,45.0,81.0
792,185.10673265416662,185.22652628749995,57.0,74.0
793,185.10673265416662,185.4504396208333,62.0,75.0
794,185.37542865416663,185.65755945416663,57.0,73.0
795,185.64412465416663,185.92961415416664,64.0,72.0
796,185.91282065416664,186.1893536208333,62.0,68.0
797,185.10673265416662,186.8073544208333,50.0,82.0
798,186.98760465416663,187.21823538749996,62.0,71.0
799,187.25630065416664,187.85974708749995,64.0,84.0
800,187.79369265416662,187.95043198749997,52.0,83.0
801,187.52499665416664,188.23256278749997,47.0,74.0
802,188.06238865416663,188.49566095416662,52.0,83.0
803,188.06238865416663,188.83488965416663,59.0,80.0
804,187.25630065416664,188.9065419208333,40.0,83.0
805,188.33108465416663,188.9132593208333,47.0,74.0
806,189.40586865416662,189.77196695416663,57.0,78.0
807,189.40586865416662,189.81451048749997,61.0,72.0
808,189.94326065416664,190.12686958749995,59.0,81.0
809,189.67456465416663,190.3104785208333,52.0,80.0
810,190.21195665416664,190.53998968749997,57.0,75.0
811,190.21195665416664,190.57693538749996,61.0,86.0
812,190.48065265416662,190.87921838749998,52.0,83.0
813,189.40586865416662,190.90944668749995,45.0,79.0
814,190.74934865416662,190.92624018749996,57.0,79.0
815,190.74934865416662,190.9553489208333,61.0,85.0
816,190.74934865416662,190.99677288749996,64.0,83.0
817,191.55543665416664,191.85995878749998,57.0,75.0
818,191.55543665416664,192.16224178749997,69.0,75.0
819,192.09282865416662,192.28651368749996,57.0,79.0
820,192.36152465416663,192.69963378749998,64.0,80.0
821,192.36152465416663,192.7153077208333,57.0,75.0
822,192.89891665416664,193.15081915416664,61.0,78.0
823,192.89891665416664,193.2392649208333,64.0,80.0
824,191.55543665416664,193.46653695416663,45.0,80.0
825,191.82413265416662,193.5113196208333,52.0,78.0
826,193.70500465416663,194.10246489374995,61.0,83.0
827,193.97370065416663,194.3357529270833,56.0,69.0
828,194.24266202916664,194.40865543749996,61.0,83.0
829,194.51184052916662,194.87635308124996,64.0,83.0
830,194.51184052916662,194.88644727499997,61.0,76.0
831,194.51184052916662,194.8942983145833,56.0,78.0
832,193.70500465416663,195.1029116520833,49.0,80.0
833,195.05019752916664,195.20497516666663,56.0,77.0
834,195.05019752916664,195.24871667291663,61.0,74.0
835,195.85773302916664,196.19757088541664,55.0,79.0
836,195.85773302916664,196.24916343124997,61.0,78.0
837,196.39609002916663,196.5934875958333,55.0,83.0
838,196.12691152916662,196.85705821041662,52.0,83.0
839,196.6652685291666,196.95800014791664,57.0,80.0
840,196.93444702916662,197.30120273541664,52.0,79.0
841,195.85773302916664,197.3875641708333,45.0,80.0
842,197.20362552916663,197.3909289020833,55.0,80.0
843,197.20362552916663,197.40663098124995,61.0,83.0
844,198.01116102916663,198.3330536520833,59.0,78.0
845,198.01116102916663,198.67064835416662,62.0,79.0
846,198.2803395291666,198.9858115145833,54.0,79.0
847,198.54951802916662,199.22246427916662,59.0,79.0
848,198.81869652916663,199.3873361104166,71.0,81.0
849,199.08787502916664,199.3963087270833,54.0,70.0
850,198.01116102916663,199.5241685145833,47.0,80.0
851,199.35705352916662,199.70474242499995,66.0,86.0
852,199.62623202916663,200.0086898145833,62.0,80.0
853,199.8954105291666,200.0726197083333,59.0,74.0
854,200.16458902916662,200.49208953749996,59.0,77.0
855,200.16458902916662,200.79379377291662,62.0,79.0
856,200.7029460291666,200.86557470624996,59.0,78.0
857,200.97212452916662,201.19195363749995,66.0,32.0
858,200.43376752916663,201.3074760770833,54.0,73.0
859,200.97212452916662,201.56431722916662,59.0,70.0
860,200.97212452916662,201.6035724270833,62.0,75.0
861,201.5104815291666,201.84807623124996,54.0,75.0
862,200.97212452916662,201.90864139374995,71.0,81.0
863,200.16458902916662,202.0342580270833,47.0,81.0
864,201.77966002916662,202.17109043124995,59.0,80.0
865,202.31801702916664,202.6298154583333,59.0,77.0
866,202.31801702916664,202.89002134166662,62.0,75.0
867,202.85637402916663,203.02573216874995,59.0,80.0
868,202.58719552916662,203.2960322458333,54.0,75.0
869,203.1255525291666,203.47211984791662,59.0,75.0
870,203.1255525291666,203.49567296666663,66.0,75.0
871,203.39473102916662,203.75475727291663,54.0,62.0
872,203.66390952916663,203.8142008583333,62.0,81.0
873,202.31801702916664,203.87364444374995,47.0,83.0
874,204.47144502916663,204.61949320416662,59.0,79.0
875,204.47144502916663,204.83147127291662,63.0,81.0
876,204.47144502916663,204.84605177499995,66.0,74.0
877,205.00980202916662,205.3754361583333,63.0,85.0
878,204.7406235291666,205.41356977916664,59.0,81.0
879,205.27898052916663,205.4259071270833,66.0,90.0
880,204.47144502916663,205.96426412708328,47.0,81.0
881,205.81733752916662,206.04726083124996,59.0,80.0
882,205.81733752916662,206.1695127333333,66.0,80.0
883,205.81733752916662,206.19755216041662,63.0,79.0
884,206.08651602916663,206.21886212499996,54.0,75.0
885,206.3556945291666,206.48131116249996,63.0,27.0
886,205.81733752916662,206.58786098541663,69.0,77.0
887,206.3556945291666,206.63272406874995,59.0,81.0
888,206.89405152916663,206.99611504374997,52.0,80.0
889,207.1632300291666,207.26865827499995,56.0,62.0
890,207.1632300291666,207.27202300624995,52.0,70.0
891,207.1632300291666,207.30454874166662,59.0,75.0
892,207.43240852916662,207.5860645895833,47.0,74.0
893,206.62487302916662,207.59840193749997,40.0,84.0
894,207.43240852916662,207.59840193749997,56.0,81.0
895,207.43240852916662,207.60176666874995,52.0,81.0
896,207.43240852916662,207.6028882458333,64.0,80.0
897,207.43240852916662,207.61186086249995,59.0,81.0
898,207.70158702916663,207.8552430895833,47.0,88.0
899,207.70158702916663,207.8552430895833,56.0,81.0
900,207.70158702916663,207.86309412916663,40.0,86.0
901,207.70158702916663,207.8653372833333,52.0,84.0
902,207.70158702916663,207.86870201458328,64.0,83.0
903,207.70158702916663,207.87655305416664,59.0,81.0
904,207.9707655291666,208.1075979333333,47.0,82.0
905,207.9707655291666,208.11881370416663,56.0,83.0
906,207.9707655291666,208.13339420624996,40.0,80.0
907,207.9707655291666,208.13451578333328,52.0,84.0
908,207.9707655291666,208.14012366874996,64.0,81.0
909,207.9707655291666,208.1479747083333,59.0,81.0
910,208.23994402916662,208.3969648208333,47.0,79.0
911,208.23994402916662,208.40145112916662,56.0,82.0
912,208.23994402916662,208.41154532291662,52.0,81.0
913,208.23994402916662,208.41266689999995,64.0,80.0
914,208.23994402916662,208.42949055624996,59.0,80.0
915,208.23994402916662,208.62352339166662,40.0,81.0
916,208.50912252916663,208.66726489791662,52.0,80.0
917,208.50912252916663,208.68521013124996,56.0,76.0
918,208.50912252916663,208.7166142895833,59.0,79.0
919,208.50912252916663,208.72783006041664,64.0,79.0
920,208.7783010291666,209.01383221666663,57.0,78.0
921,208.7783010291666,209.0968289208333,62.0,79.0
922,208.7783010291666,209.09907207499995,66.0,72.0
923,209.04747952916662,209.4206107291666,45.0,69.0
924,208.7783010291666,209.45645299583327,38.0,85.0
925,209.3164441416666,209.49901568749996,62.0,84.0
926,209.58526114166662,209.68942772916662,62.0,55.0
927,209.3164441416666,209.6927879416666,66.0,85.0
928,209.58526114166662,209.75775204999997,57.0,83.0
929,209.85407814166663,209.98624649999996,57.0,74.0
930,209.85407814166663,210.20354024166662,62.0,79.0
931,210.12289514166662,210.22818179999996,57.0,74.0
932,210.39171214166663,210.47011709999995,57.0,77.0
933,209.85407814166663,210.71877282499995,50.0,80.0
934,210.39171214166663,210.72549324999994,62.0,84.0
935,210.66052914166661,210.79605771249996,57.0,78.0
936,210.39171214166663,210.80277813749996,66.0,81.0
937,210.92934614166663,211.0939965541666,57.0,82.0
938,210.92934614166663,211.2743279583333,62.0,84.0
939,211.1981631416666,211.30232972916662,57.0,73.0
940,211.46698014166662,211.5498653833333,57.0,77.0
941,211.46698014166662,211.76043869999995,62.0,74.0
942,211.46698014166662,211.7794799041666,66.0,67.0
943,210.92934614166663,211.85564472083328,50.0,86.0
944,211.7357971416666,211.8657253583333,57.0,81.0
945,212.00461414166662,212.31487376249996,61.0,68.0
946,212.00461414166662,212.4134399958333,64.0,80.0
947,212.2734311416666,212.43920162499995,57.0,73.0
948,212.54224814166662,212.6419344458333,57.0,79.0
949,212.00461414166662,212.87602924999996,49.0,90.0
950,212.54224814166662,212.9880363333333,61.0,88.0
951,212.54224814166662,213.00707753749995,64.0,84.0
952,212.81106514166663,213.02835888333328,57.0,74.0
953,213.07988214166662,213.3150970166666,57.0,78.0
954,213.07988214166662,213.3979822583333,62.0,79.0
955,213.07988214166662,213.40022239999996,66.0,72.0
956,213.34869914166663,213.72168272916662,45.0,69.0
957,213.07988214166662,213.75752499583328,38.0,85.0
958,213.6175161416666,213.80008768749997,62.0,84.0
959,213.88633314166663,213.99049972916663,62.0,55.0
960,213.6175161416666,213.9938599416666,66.0,85.0
961,213.88633314166663,214.05882404999994,57.0,83.0
962,214.1551501416666,214.28731849999994,57.0,74.0
963,214.1551501416666,214.50461224166662,62.0,79.0
964,214.42396714166662,214.52925379999996,57.0,74.0
965,214.6927841416666,214.77118909999996,57.0,77.0
966,214.1551501416666,215.01984482499995,50.0,80.0
967,214.6927841416666,215.02656524999995,62.0,84.0
968,214.96160114166662,215.09712971249996,57.0,78.0
969,214.6927841416666,215.10385013749996,66.0,81.0
970,215.23041814166663,215.3950685541666,57.0,82.0
971,215.23041814166663,215.5753999583333,62.0,84.0
972,215.49923514166662,215.60340172916662,57.0,73.0
973,215.76805214166663,215.85093738333327,57.0,77.0
974,215.76805214166663,216.06151069999996,62.0,74.0
975,215.76805214166663,216.0805519041666,66.0,67.0
976,215.23041814166663,216.1567167208333,50.0,86.0
977,216.0368691416666,216.1667973583333,57.0,81.0
978,216.30568614166663,216.61594576249996,61.0,68.0
979,216.30568614166663,216.71451199583328,64.0,80.0
980,216.5745031416666,216.74027362499996,57.0,73.0
981,216.84332014166662,216.94300644583328,57.0,79.0
982,216.30568614166663,217.17710124999996,49.0,90.0
983,216.84332014166662,217.28910833333327,61.0,88.0
984,216.84332014166662,217.30814953749996,64.0,84.0
985,217.1121371416666,217.3294308833333,57.0,74.0
986,217.38095414166662,217.54672462499997,59.0,81.0
987,217.38095414166662,217.6800130541666,62.0,82.0
988,217.38095414166662,217.7102549666666,66.0,81.0
989,217.64977114166663,217.7606581541666,59.0,79.0
990,217.91858814166662,218.11796074999995,59.0,83.0
991,217.91858814166662,218.18180478749994,62.0,83.0
992,217.91858814166662,218.18852521249994,66.0,83.0
993,218.18740514166663,218.5805500041666,54.0,67.0
994,218.45622214166661,218.76984197499996,59.0,82.0
995,218.45622214166661,218.7788025416666,62.0,79.0
996,218.45622214166661,218.8146448083333,66.0,74.0
997,218.72503914166663,218.94905330833328,54.0,72.0
998,217.38095414166662,218.95465366249996,47.0,80.0
999,218.9938561416666,219.09578258749994,59.0,84.0
1000,218.9938561416666,219.1786678291666,62.0,81.0
1001,218.9938561416666,219.2357914416666,66.0,80.0
1002,219.26267314166662,219.39260135833328,59.0,81.0
1003,219.5314901416666,219.81150784999994,61.0,74.0
1004,219.5314901416666,219.88767266666662,64.0,79.0
1005,220.06912414166663,220.1419287458333,56.0,75.0
1006,220.06912414166663,220.2225738458333,61.0,81.0
1007,220.06912414166663,220.22593405833328,64.0,80.0
1008,219.5314901416666,220.4712295708333,49.0,85.0
1009,220.33794114166662,220.48467042083328,56.0,80.0
1010,220.60675814166663,220.75236734999996,56.0,80.0
1011,220.60675814166663,221.02342449166662,64.0,82.0
1012,220.60675814166663,221.04470583749995,61.0,80.0
1013,220.87557514166662,221.09174881249996,56.0,80.0
1014,220.60675814166663,221.21831681666663,49.0,77.0
1015,221.14439214166663,221.2216770291666,56.0,80.0
1016,221.14439214166663,221.2720802166666,61.0,80.0
1017,221.14439214166663,221.29336156249997,64.0,86.0
1018,221.68202614166663,221.99228576249996,66.0,74.0
1019,221.68202614166663,222.01468717916663,62.0,75.0
1020,221.9508431416666,222.06509036666662,57.0,67.0
1021,221.68202614166663,222.2835041791666,38.0,83.0
1022,222.21966014166662,222.34062779166663,57.0,80.0
1023,222.21966014166662,222.36302920833327,62.0,84.0
1024,222.21966014166662,222.39551126249995,66.0,83.0
1025,222.4884771416666,222.5680021708333,62.0,65.0
1026,222.4884771416666,222.61392507499994,57.0,73.0
1027,222.75729414166662,222.90962377499994,57.0,74.0
1028,222.75729414166662,223.13811822499994,62.0,80.0
1029,222.75729414166662,223.14371857916663,66.0,79.0
1030,223.02611114166663,223.1739604916666,57.0,73.0
1031,223.29492814166662,223.39349437499996,57.0,74.0
1032,223.29492814166662,223.6242289666666,62.0,82.0
1033,223.56374514166663,223.65783109166662,57.0,74.0
1034,223.29492814166662,223.71831491666663,66.0,81.0
1035,223.8325621416666,223.87512483333327,59.0,62.0
1036,223.8325621416666,223.87512483333327,59.0,79.0
1037,223.8325621416666,224.07561751249995,51.0,88.0
1038,223.8325621416666,224.14058162083327,63.0,79.0
1039,223.8325621416666,224.16186296666663,66.0,76.0
1040,224.10137914166663,224.20554572916663,59.0,77.0
1041,224.3701961416666,224.45532152499996,59.0,79.0
1042,224.3701961416666,224.4945240041666,63.0,88.0
1043,224.3701961416666,224.50796485416663,66.0,82.0
1044,224.63901314166662,224.76446107499996,59.0,81.0
1045,224.9078301416666,224.9873551708333,59.0,75.0
1046,224.9078301416666,225.03551821666662,39.0,83.0
1047,224.9078301416666,225.0556794916666,63.0,86.0
1048,224.9078301416666,225.2292904708333,66.0,82.0
1049,225.17664714166662,225.2964947208333,59.0,75.0
1050,225.4454641416666,225.52722931249994,59.0,82.0
1051,225.4454641416666,225.56643179166662,63.0,90.0
1052,225.4454641416666,225.62019519166662,66.0,84.0
1053,225.71428114166662,225.87669141249995,59.0,80.0
1054,225.98309814166663,226.2642359208333,52.0,79.0
1055,225.98309814166663,226.55321419583328,64.0,83.0
1056,226.52073214166663,226.65178042916662,52.0,81.0
1057,226.25191514166661,226.87131431249995,47.0,72.0
1058,226.7895491416666,227.01580344999996,52.0,81.0
1059,226.7895491416666,227.0202837333333,64.0,84.0
1060,225.98309814166663,227.41454866666663,40.0,83.0
1061,227.05836614166662,227.42126909166663,47.0,80.0
1062,227.3271831416666,227.4638317833333,52.0,79.0
1063,227.3271831416666,227.50191419166663,56.0,71.0
1064,227.3271831416666,227.57023851249994,59.0,78.0
1065,228.13363414166662,228.40581135416662,52.0,79.0
1066,228.13363414166662,228.41029163749994,56.0,67.0
1067,228.13363414166662,228.46629517916662,59.0,76.0
1068,228.13363414166662,228.5357395708333,64.0,73.0
1069,229.2089021416666,229.41723531666662,64.0,80.0
1070,229.2089021416666,229.79245904583328,76.0,78.0
1071,228.13363414166662,229.8831847833333,40.0,78.0
1072,229.47771914166663,230.21808596249994,71.0,69.0
1073,229.7465361416666,230.2662490083333,64.0,73.0
1074,230.2841701416666,230.63811252499994,69.0,78.0
1075,230.2841701416666,230.6605139416666,57.0,72.0
1076,230.82180414166663,231.03461759999996,57.0,79.0
1077,231.09062114166662,231.27879304166663,59.0,80.0
1078,230.55298714166662,231.7828249166666,52.0,73.0
1079,231.6282551416666,231.80074604999996,57.0,72.0
1080,231.6282551416666,231.82090732499995,61.0,76.0
1081,230.2841701416666,231.9564358958333,45.0,79.0
1082,232.43470614166662,232.92977744999996,64.0,82.0
1083,232.97234014166662,233.13475041249995,59.0,80.0
1084,233.24115714166663,233.69926611249994,59.0,80.0
1085,233.24115714166663,233.70822667916661,64.0,84.0
1086,232.43470614166662,233.99496481249994,40.0,72.0
1087,233.77879114166663,234.0173662291666,59.0,79.0
1088,233.77879114166663,234.04536799999994,64.0,81.0
1089,232.7035231416666,234.23129975833328,52.0,72.0
1090,234.5852421416666,234.7790143958333,57.0,69.0
1091,234.5852421416666,235.1553581958333,66.0,74.0
1092,234.85405914166662,235.25504449999994,57.0,72.0
1093,235.1228761416666,235.29200683749994,62.0,76.0
1094,235.39169314166662,235.82964083749994,57.0,80.0
1095,235.39169314166662,236.11301875833328,64.0,81.0
1096,234.5852421416666,236.24294697499994,50.0,73.0
1097,236.1981441416666,236.43111887499995,62.0,78.0
1098,236.73577814166663,237.0370771958333,61.0,73.0
1099,236.73577814166663,237.11884236666663,57.0,72.0
1100,237.27341214166663,237.42350163333327,59.0,74.0
1101,237.5422291416666,237.74384189166662,57.0,70.0
1102,237.5422291416666,237.81104614166662,64.0,80.0
1103,237.0045951416666,238.2097913583333,52.0,78.0
1104,238.66902039999997,238.89191449583328,57.0,61.0
1105,238.0798631416666,238.89639477916663,61.0,68.0
1106,238.73734472083328,238.89639477916663,61.0,67.0
1107,238.34868014166662,238.89863492083327,52.0,72.0
1108,236.73577814166663,238.90871555833328,45.0,78.0
1109,238.86727293749996,238.90871555833328,45.0,79.0
1110,238.80454897083328,238.94231768333327,64.0,73.0
1111,238.8695130791666,239.12040894583328,69.0,80.0
1112,239.39706644166662,239.75772924999995,59.0,70.0
1113,239.12600929999996,239.97054270833328,52.0,67.0
1114,239.6726038666666,240.00190469166662,61.0,71.0
1115,240.87892015416662,241.0670920541666,52.0,74.0
1116,240.93716383749995,241.11301495833328,56.0,67.0
1117,241.0122085833333,241.6775306583333,59.0,67.0
1118,241.07157233749996,241.93402687916662,64.0,80.0
1119,241.0290096458333,242.3809351416666,40.0,81.0
1120,241.61480669166662,242.39101577916662,52.0,86.0
1121,241.31798792083327,242.4066967708333,47.0,70.0
1122,241.98555013749996,242.4739010208333,59.0,79.0
1123,243.27587173749995,243.51556689583327,57.0,80.0
1124,243.45844328333328,243.5973320666666,59.0,82.0
1125,243.64437504166662,243.82246630416662,61.0,85.0
1126,243.8627888541666,243.97479593749995,64.0,83.0
1127,244.12040514583327,244.26153407083328,69.0,79.0
1128,244.40154292499994,244.54379192083329,71.0,72.0
1129,245.1351893208333,245.27855838749994,69.0,62.0
1130,245.19343300416662,245.29871966249993,73.0,53.0
1131,245.26735767916662,245.39728589583328,76.0,69.0
1132,243.07649912916662,245.73218707499996,52.0,73.0
1133,242.92752970833328,245.7467479958333,45.0,65.0
