,start,end,pitch,velocity
0,28.2296875,28.5078125,67.0,84.0
1,28.6046875,28.876562500000002,67.0,85.0
2,28.9796875,29.484375,67.0,85.0
3,29.7296875,29.940625,67.0,82.0
4,30.1046875,30.31875,67.0,85.0
5,30.4796875,31.103125000000002,67.0,85.0
6,31.2296875,31.5421875,69.0,84.0
7,31.6046875,31.923437500000002,64.0,86.0
8,31.9796875,33.0984375,65.0,84.0
9,33.104687500000004,33.36875,62.0,83.0
10,33.479687500000004,33.698437500000004,64.0,87.0
11,33.854687500000004,34.115625,65.0,83.0
12,34.229687500000004,34.725,65.0,87.0
13,35.354687500000004,35.640625,65.0,84.0
14,35.729687500000004,36.0546875,55.0,82.0
15,36.104687500000004,36.396875,65.0,86.0
16,36.479687500000004,39.19375,64.0,86.0
17,40.229687500000004,40.4890625,62.0,79.0
18,40.604687500000004,40.892187500000006,62.0,83.0
19,40.979687500000004,41.657812500000006,65.0,84.0
20,41.729687500000004,42.0625,64.0,86.0
21,42.104687500000004,42.434375,62.0,85.0
22,42.479687500000004,42.9921875,60.0,86.0
23,43.229687500000004,43.501562500000006,60.0,82.0
24,43.604687500000004,43.8796875,60.0,83.0
25,43.979687500000004,44.667187500000004,64.0,88.0
26,44.729687500000004,44.990625,67.0,85.0
27,45.104687500000004,45.400000000000006,71.0,84.0
28,45.479687500000004,46.003125000000004,72.0,86.0
29,46.229687500000004,46.501562500000006,60.0,85.0
30,46.604687500000004,46.85,69.0,85.0
31,46.979687500000004,47.589062500000004,69.0,86.0
32,47.729687500000004,48.0,60.0,85.0
33,48.104687500000004,48.396875,62.0,85.0
34,48.479687500000004,50.530971412499994,62.0,85.0
35,52.581428466666644,52.86522562916665,67.0,84.0
36,52.962100629166656,53.23397562916665,67.0,85.0
37,53.337100629166656,53.712100629166656,67.0,85.0
38,53.712100629166656,54.087100629166656,67.0,85.0
39,54.087100629166656,54.298038129166656,67.0,82.0
40,54.837100629166656,55.212100629166656,67.0,85.0
41,55.212100629166656,55.42616312916665,67.0,85.0
42,55.587100629166656,55.899600629166656,72.0,84.0
43,55.962100629166656,56.28085062916665,72.0,86.0
44,56.337100629166656,56.712100629166656,64.0,84.0
45,56.712100629166656,57.455850629166655,65.0,84.0
46,57.462100629166656,57.72616312916665,62.0,83.0
47,57.837100629166656,58.055850629166656,64.0,87.0
48,58.212100629166656,58.47303812916665,65.0,83.0
49,58.587100629166656,59.08241312916665,65.0,87.0
50,59.337100629166656,59.712100629166656,65.0,85.0
51,59.712100629166656,59.99803812916665,65.0,84.0
52,60.087100629166656,60.41210062916665,72.0,82.0
53,60.462100629166656,60.75428812916665,72.0,86.0
54,60.837100629166656,61.212100629166656,62.0,85.0
55,61.212100629166656,63.55116312916665,64.0,86.0
56,64.58710062916666,64.84647562916666,62.0,79.0
57,64.96210062916666,65.24960062916665,62.0,83.0
58,65.33710062916666,66.01522562916665,65.0,84.0
59,66.08710062916666,66.41991312916666,64.0,86.0
60,66.46210062916666,66.79178812916666,62.0,85.0
61,66.83710062916666,67.34960062916666,60.0,86.0
62,67.58710062916666,67.85897562916665,60.0,82.0
63,67.96210062916666,68.23710062916666,60.0,83.0
64,68.33710062916666,69.02460062916666,64.0,88.0
65,69.08710062916666,69.34803812916665,67.0,85.0
66,69.46210062916666,69.75741312916665,71.0,84.0
67,69.83710062916666,70.36053812916666,72.0,86.0
68,70.58710062916666,70.85897562916665,60.0,85.0
69,70.96210062916666,71.20741312916665,69.0,85.0
70,71.33710062916666,71.94647562916666,69.0,86.0
71,72.08710062916666,72.35741312916666,60.0,85.0
72,72.46210062916666,72.75428812916665,64.0,85.0
73,72.83710062916666,74.33710062916666,62.0,85.0
74,74.33710062916666,74.61522562916666,67.0,82.0
75,74.71210062916666,75.00428812916665,69.0,86.0
76,75.08710062916666,75.34491312916666,72.0,85.0
77,75.46210062916666,75.76522562916665,72.0,85.0
78,75.83710062916666,76.11366312916665,69.0,85.0
79,76.21210062916666,76.66053812916665,74.0,89.0
80,76.96210062916666,77.24022562916666,74.0,88.0
81,77.33710062916666,77.58710062916666,71.0,84.0
82,77.71210062916666,77.97772562916666,74.0,87.0
83,78.08710062916666,78.34803812916665,76.0,85.0
84,78.46210062916666,78.77303812916665,76.0,85.0
85,78.83710062916666,79.11366312916665,71.0,85.0
86,79.21210062916666,79.96678812916666,72.0,81.0
87,80.33710062916666,80.59335062916665,72.0,87.0
88,80.71210062916666,81.06210062916665,71.0,84.0
89,81.08710062916666,81.35897562916665,67.0,85.0
90,81.46210062916666,81.72303812916665,69.0,83.0
91,81.83710062916666,82.54803812916666,69.0,85.0
92,82.96210062916666,83.24022562916666,69.0,85.0
93,83.33710062916666,83.60897562916665,67.0,85.0
94,83.71210062916666,83.98710062916666,69.0,88.0
95,84.08710062916666,84.38553812916666,64.0,86.0
96,84.46210062916666,84.80585062916666,64.0,85.0
97,84.83710062916666,85.13241312916665,62.0,86.0
98,85.21210062916666,86.09335062916665,64.0,85.0
99,86.33710062916666,86.60741312916664,67.0,86.0
100,86.71210062916666,86.98085062916665,67.0,84.0
101,87.08710062916666,87.37616312916666,72.0,86.0
102,87.46210062916666,87.75585062916664,77.0,84.0
103,87.83710062916666,88.10116312916665,76.0,87.0
104,88.21210062916666,88.76522562916665,74.0,90.0
105,88.96210062916666,89.27616312916666,74.0,89.0
106,89.33710062916666,89.62772562916666,71.0,85.0
107,89.71210062916666,90.00897562916666,74.0,90.0
108,90.08710062916666,90.33397562916664,76.0,84.0
109,90.46210062916666,90.73397562916665,76.0,86.0
110,90.83710062916666,91.11835062916666,71.0,86.0
111,91.21210062916666,92.02616312916666,72.0,85.0
112,92.33710062916666,92.63085062916666,72.0,85.0
113,92.71210062916666,92.99491312916666,71.0,86.0
114,93.08710062916666,93.34335062916665,76.0,85.0
115,93.46210062916666,93.72303812916665,76.0,86.0
116,93.83710062916666,94.12460062916665,71.0,84.0
117,94.21210062916666,94.80741312916666,69.0,84.0
118,94.96210062916666,95.21366312916666,69.0,86.0
119,95.33710062916666,95.58397562916666,71.0,85.0
120,95.71210062916666,95.95428812916666,72.0,85.0
121,96.08710062916666,96.35897562916665,79.0,84.0
122,96.46210062916666,96.70741312916665,76.0,85.0
123,96.83710062916666,97.11522562916666,77.0,84.0
124,97.21210062916666,97.54178812916666,76.0,85.0
125,97.58710062916666,98.32303812916666,74.0,88.0
126,98.33710062916666,98.61522562916666,67.0,82.0
127,98.71210062916666,99.00428812916665,69.0,86.0
128,99.08710062916666,99.34491312916666,72.0,85.0
129,99.46210062916666,99.76522562916665,72.0,85.0
130,99.83710062916666,100.11366312916665,69.0,85.0
131,100.21210062916666,100.66053812916665,74.0,89.0
132,100.96210062916666,101.24022562916666,74.0,88.0
133,101.33710062916666,101.58710062916666,71.0,84.0
134,101.71210062916666,101.97772562916666,74.0,87.0
135,102.08710062916666,102.34803812916665,76.0,85.0
136,102.46210062916666,102.77303812916665,76.0,85.0
137,102.83710062916666,103.11366312916665,71.0,85.0
138,103.21210062916666,103.96678812916666,72.0,81.0
139,104.33710062916666,104.59335062916665,72.0,87.0
140,104.71210062916666,105.06210062916665,71.0,84.0
141,105.08710062916666,105.35897562916665,67.0,85.0
142,105.46210062916666,105.72303812916665,69.0,83.0
143,105.83710062916666,106.54803812916666,69.0,85.0
144,106.96210062916666,107.24022562916666,69.0,85.0
145,107.33710062916666,107.60897562916665,67.0,85.0
146,107.71210062916666,107.98710062916666,69.0,88.0
147,108.08710062916666,108.38553812916666,64.0,86.0
148,108.46210062916666,108.80585062916666,64.0,85.0
149,108.83710062916666,109.13241312916665,62.0,86.0
150,109.21210062916666,110.09335062916665,64.0,85.0
151,110.33710062916666,110.60741312916666,67.0,86.0
152,110.71210062916666,110.98085062916665,67.0,84.0
153,111.08710062916666,111.37616312916666,72.0,86.0
154,111.46210062916666,111.75585062916666,77.0,84.0
155,111.83710062916666,112.10116312916665,76.0,87.0
156,112.21210062916666,112.76522562916665,74.0,90.0
157,112.96210062916666,113.27616312916666,74.0,89.0
158,113.33710062916666,113.62772562916666,71.0,85.0
159,113.71210062916666,114.00897562916666,74.0,90.0
160,114.08710062916666,114.33397562916666,76.0,84.0
161,114.46210062916666,114.73397562916665,76.0,86.0
162,114.83710062916666,115.11835062916666,71.0,86.0
163,115.21210062916666,116.02616312916666,72.0,85.0
164,116.33710062916666,116.63085062916666,72.0,85.0
165,116.71210062916666,116.99491312916666,71.0,86.0
166,117.08710062916666,117.34335062916665,76.0,85.0
167,117.46210062916666,117.72303812916665,76.0,86.0
168,117.83710062916666,118.12460062916665,71.0,84.0
169,118.21210062916666,118.80741312916666,69.0,84.0
170,118.96210062916666,119.21366312916666,69.0,86.0
171,119.33710062916666,119.58397562916666,72.0,85.0
172,119.71210062916666,119.95428812916666,76.0,85.0
173,120.08710062916666,120.35897562916665,77.0,84.0
174,120.46210062916666,121.96210062916666,74.0,85.0
175,122.33710062916666,122.69803812916666,71.0,86.0
176,122.71210062916666,124.41522562916666,72.0,85.0
177,126.08710062916666,126.36522562916666,67.0,84.0
178,126.46210062916666,126.73397562916665,67.0,85.0
179,126.83710062916666,127.21210062916666,67.0,85.0
180,127.21210062916666,127.58710062916666,67.0,85.0
181,127.58710062916666,127.79803812916666,67.0,82.0
182,128.33710062916666,128.71210062916666,67.0,85.0
183,128.71210062916666,128.92616312916664,67.0,85.0
184,129.08710062916666,129.39960062916666,72.0,84.0
185,129.46210062916666,129.78085062916665,72.0,86.0
186,129.83710062916666,130.21210062916666,64.0,84.0
187,130.21210062916666,130.95585062916666,65.0,84.0
188,130.96210062916666,131.22616312916665,62.0,83.0
189,131.33710062916666,131.55585062916666,64.0,87.0
190,131.71210062916666,131.97303812916664,65.0,83.0
191,132.08710062916666,132.58241312916664,65.0,87.0
192,132.83710062916666,133.21210062916666,65.0,85.0
193,133.21210062916666,133.49803812916667,65.0,84.0
194,133.58710062916666,133.91210062916667,72.0,82.0
195,133.96210062916666,134.25428812916664,72.0,86.0
196,134.33710062916666,134.71210062916666,62.0,85.0
197,134.71210062916666,137.05116312916664,64.0,86.0
198,138.08710062916666,138.34647562916666,62.0,79.0
199,138.46210062916666,138.74960062916665,62.0,83.0
200,138.83710062916666,139.51522562916665,65.0,84.0
201,139.58710062916666,139.91991312916667,64.0,86.0
202,139.96210062916666,140.29178812916666,62.0,85.0
203,140.33710062916666,140.84960062916667,60.0,86.0
204,141.08710062916666,141.35897562916665,60.0,82.0
205,141.46210062916666,141.73710062916666,60.0,83.0
206,141.83710062916666,142.52460062916666,64.0,88.0
207,142.58710062916666,142.84803812916664,67.0,85.0
208,142.96210062916666,143.25741312916665,71.0,84.0
209,143.33710062916666,143.86053812916666,72.0,86.0
210,144.08710062916666,144.35897562916665,60.0,85.0
211,144.46210062916666,144.70741312916664,69.0,85.0
212,144.83710062916666,145.44647562916666,69.0,86.0
213,145.58710062916666,145.85741312916667,72.0,85.0
214,145.96210062916666,146.25428812916664,69.0,85.0
215,146.33710062916666,147.83710062916666,74.0,85.0
216,147.83710062916666,148.11522562916667,67.0,82.0
217,148.21210062916666,148.50428812916664,69.0,86.0
218,148.58710062916666,148.84491312916666,72.0,85.0
219,148.96210062916666,149.26522562916665,72.0,85.0
220,149.33710062916666,149.61366312916664,69.0,85.0
221,149.71210062916666,150.16053812916664,74.0,89.0
222,150.46210062916666,150.74022562916667,74.0,88.0
223,150.83710062916666,151.08710062916666,71.0,84.0
224,151.21210062916666,151.47772562916666,74.0,87.0
225,151.58710062916666,151.84803812916664,76.0,85.0
226,151.96210062916666,152.27303812916665,76.0,85.0
227,152.33710062916666,152.61366312916664,71.0,85.0
228,152.71210062916666,153.46678812916667,72.0,81.0
229,153.83710062916666,154.09335062916665,72.0,87.0
230,154.21210062916666,154.56210062916665,71.0,84.0
231,154.58710062916666,154.85897562916665,67.0,85.0
232,154.96210062916666,155.22303812916664,69.0,83.0
233,155.33710062916666,156.04803812916666,69.0,85.0
234,156.46210062916666,156.74022562916667,69.0,85.0
235,156.83710062916666,157.10897562916665,67.0,85.0
236,157.21210062916666,157.48710062916666,69.0,88.0
237,157.58710062916666,157.88553812916666,64.0,86.0
238,157.96210062916666,158.30585062916666,64.0,85.0
239,158.33710062916666,158.63241312916665,62.0,86.0
240,158.71210062916666,159.59335062916665,64.0,85.0
241,159.83710062916666,160.10741312916667,67.0,86.0
242,160.21210062916666,160.48085062916664,67.0,84.0
243,160.58710062916666,160.87616312916666,72.0,86.0
244,160.96210062916666,161.25585062916667,77.0,84.0
245,161.33710062916666,161.60116312916665,76.0,87.0
246,161.71210062916666,162.26522562916665,74.0,90.0
247,162.46210062916666,162.77616312916666,74.0,89.0
248,162.83710062916666,163.12772562916666,71.0,85.0
249,163.21210062916666,163.50897562916666,74.0,90.0
250,163.58710062916666,163.83397562916667,76.0,84.0
251,163.96210062916666,164.23397562916665,76.0,86.0
252,164.33710062916666,164.61835062916666,71.0,86.0
253,164.71210062916666,165.52616312916666,72.0,85.0
254,165.83710062916666,166.13085062916667,72.0,85.0
255,166.21210062916666,166.49491312916666,71.0,86.0
256,166.58710062916666,166.84335062916665,76.0,85.0
257,166.96210062916666,167.22303812916664,76.0,86.0
258,167.33710062916666,167.62460062916665,71.0,84.0
259,167.71210062916666,168.30741312916666,69.0,84.0
260,168.46210062916666,168.71366312916666,69.0,86.0
261,168.83710062916666,169.08397562916667,71.0,85.0
262,169.21210062916666,169.45428812916666,72.0,85.0
263,169.58710062916666,169.85897562916665,79.0,84.0
264,169.96210062916666,170.20741312916664,76.0,85.0
265,170.33710062916666,170.61522562916667,77.0,84.0
266,170.71210062916666,171.04178812916666,76.0,85.0
267,171.08710062916666,171.82303812916666,74.0,88.0
268,171.83710062916666,172.11522562916667,67.0,82.0
269,172.21210062916666,172.50428812916664,69.0,86.0
270,172.58710062916666,172.84491312916666,72.0,85.0
271,172.96210062916666,173.26522562916665,72.0,85.0
272,173.33710062916666,173.61366312916664,69.0,85.0
273,173.71210062916666,174.16053812916664,74.0,89.0
274,174.46210062916666,174.74022562916667,74.0,88.0
275,174.83710062916666,175.08710062916666,71.0,84.0
276,175.21210062916666,175.47772562916666,74.0,87.0
277,175.58710062916666,175.84803812916664,76.0,85.0
278,175.96210062916666,176.27303812916665,76.0,85.0
279,176.33710062916666,176.61366312916664,71.0,85.0
280,176.71210062916666,177.46678812916667,72.0,81.0
281,177.83710062916666,178.09335062916665,72.0,87.0
282,178.21210062916666,178.56210062916665,71.0,84.0
283,178.58710062916666,178.85897562916665,67.0,85.0
284,178.96210062916666,179.22303812916664,69.0,83.0
285,179.33710062916666,180.04803812916666,69.0,85.0
286,180.46210062916666,180.74022562916667,69.0,85.0
287,180.83710062916666,181.10897562916665,67.0,85.0
288,181.21210062916668,181.48710062916666,69.0,88.0
289,181.58710062916668,181.88553812916666,64.0,86.0
290,181.96210062916668,182.30585062916668,64.0,85.0
291,182.33710062916668,182.63241312916665,62.0,86.0
292,182.71210062916668,183.59335062916665,64.0,85.0
293,183.83710062916668,184.10741312916667,67.0,86.0
294,184.21210062916668,184.48085062916664,67.0,84.0
295,184.58710062916668,184.87616312916668,72.0,86.0
296,184.96210062916668,185.25585062916667,77.0,84.0
297,185.33710062916668,185.60116312916665,76.0,87.0
298,185.71210062916668,186.26522562916665,74.0,90.0
299,186.46210062916668,186.77616312916666,74.0,89.0
300,186.83710062916668,187.12772562916666,71.0,85.0
301,187.21210062916668,187.50897562916668,74.0,90.0
302,187.58710062916668,187.83397562916667,76.0,84.0
303,187.96210062916668,188.23397562916665,76.0,86.0
304,188.33710062916668,188.61835062916668,71.0,86.0
305,188.71210062916668,189.52616312916666,72.0,85.0
306,189.83710062916668,190.13085062916667,72.0,85.0
307,190.21210062916668,190.49491312916666,71.0,86.0
308,190.58710062916668,190.84335062916665,76.0,85.0
309,190.96210062916668,191.22303812916664,76.0,86.0
310,191.33710062916668,191.62460062916665,71.0,84.0
311,191.71210062916668,192.30741312916666,69.0,84.0
312,192.46210062916668,192.71366312916666,69.0,86.0
313,192.83710062916668,193.08397562916667,72.0,85.0
314,193.21210062916668,193.45428812916668,76.0,85.0
315,193.58710062916668,193.85897562916665,77.0,84.0
316,193.96210062916668,194.33710062916668,74.0,85.0
317,194.33710062916668,194.69803812916666,72.0,86.0
318,194.71210062916668,196.96210062916668,72.0,85.0
319,204.83710062916668,205.11522562916667,67.0,82.0
320,205.21210062916668,205.50428812916664,69.0,86.0
321,205.58710062916668,205.84491312916668,72.0,85.0
322,205.96210062916668,206.26522562916665,72.0,85.0
323,206.33710062916668,206.61366312916664,69.0,85.0
324,206.71210062916668,207.16053812916664,74.0,89.0
325,207.46210062916668,207.74022562916667,74.0,88.0
326,207.83710062916668,208.08710062916668,71.0,84.0
327,208.21210062916668,208.47772562916668,74.0,87.0
328,208.58710062916668,208.84803812916664,76.0,85.0
329,208.96210062916668,209.27303812916665,76.0,85.0
330,209.33710062916668,209.61366312916664,71.0,85.0
331,209.71210062916668,210.46678812916667,72.0,81.0
332,210.83710062916668,211.09335062916665,72.0,87.0
333,211.21210062916668,211.56210062916665,71.0,84.0
334,211.58710062916668,211.85897562916665,67.0,85.0
335,211.96210062916668,212.22303812916664,69.0,83.0
336,212.33710062916668,213.04803812916668,69.0,85.0
337,213.46210062916668,213.74022562916667,69.0,85.0
338,213.83710062916668,214.10897562916665,67.0,85.0
339,214.21210062916668,214.48710062916666,69.0,88.0
340,214.58710062916668,214.88553812916666,64.0,86.0
341,214.96210062916668,215.30585062916668,64.0,85.0
342,215.33710062916668,215.63241312916665,62.0,86.0
343,215.71210062916668,216.59335062916665,64.0,85.0
344,216.83710062916668,217.10741312916667,67.0,86.0
345,217.21210062916668,217.48085062916664,67.0,84.0
346,217.58710062916668,217.87616312916668,72.0,86.0
347,217.96210062916668,218.25585062916667,77.0,84.0
348,218.33710062916668,218.60116312916665,76.0,87.0
349,218.71210062916668,219.26522562916665,74.0,90.0
350,219.46210062916668,219.77616312916666,74.0,89.0
351,219.83710062916668,220.12772562916666,71.0,85.0
352,220.21210062916668,220.50897562916668,74.0,90.0
353,220.58710062916668,220.83397562916667,76.0,84.0
354,220.96210062916668,221.23397562916665,76.0,86.0
355,221.33710062916668,221.61835062916668,71.0,86.0
356,221.71210062916668,222.52616312916666,72.0,85.0
357,222.83710062916668,223.13085062916667,72.0,85.0
358,223.21210062916668,223.49491312916666,71.0,86.0
359,223.58710062916668,223.84335062916665,76.0,85.0
360,223.96210062916668,224.22303812916664,76.0,86.0
361,224.33710062916668,224.62460062916665,71.0,84.0
362,224.71210062916668,225.30741312916666,69.0,84.0
363,225.46210062916668,225.71366312916666,69.0,86.0
364,225.83710062916668,226.08397562916667,71.0,85.0
365,226.21210062916668,226.45428812916668,72.0,85.0
366,226.58710062916668,226.85897562916665,79.0,84.0
367,226.96210062916668,227.20741312916664,76.0,85.0
368,227.33710062916668,227.61522562916667,77.0,84.0
369,227.71210062916668,228.04178812916666,76.0,85.0
370,228.08710062916668,228.82303812916666,74.0,88.0
371,228.83710062916668,229.11522562916667,67.0,82.0
372,229.21210062916668,229.50428812916664,69.0,86.0
373,229.58710062916668,229.84491312916668,72.0,85.0
374,229.96210062916668,230.26522562916665,72.0,85.0
375,230.33710062916668,230.61366312916664,69.0,85.0
376,230.71210062916668,231.16053812916664,74.0,89.0
377,231.46210062916668,231.74022562916667,74.0,88.0
378,231.83710062916668,232.08710062916668,71.0,84.0
379,232.21210062916668,232.47772562916668,74.0,87.0
380,232.58710062916668,232.84803812916664,76.0,85.0
381,232.96210062916668,233.27303812916665,76.0,85.0
382,233.33710062916668,233.61366312916664,71.0,85.0
383,233.71210062916668,234.46678812916667,72.0,81.0
384,234.83710062916668,235.09335062916665,72.0,87.0
385,235.21210062916668,235.56210062916665,71.0,84.0
386,235.58710062916668,235.85897562916665,67.0,85.0
387,235.96210062916668,236.22303812916664,69.0,83.0
388,236.33710062916668,237.04803812916668,69.0,85.0
389,237.46210062916668,237.74022562916667,69.0,85.0
390,237.83710062916668,238.10897562916665,67.0,85.0
391,238.21210062916668,238.48710062916666,69.0,88.0
392,238.58710062916668,238.88553812916666,64.0,86.0
393,238.96210062916668,239.30585062916668,64.0,85.0
394,239.33710062916668,239.63241312916665,62.0,86.0
395,239.71210062916668,240.59335062916665,64.0,85.0
396,240.83710062916668,241.10741312916667,67.0,86.0
397,241.21210062916668,241.48085062916664,67.0,84.0
398,241.58710062916668,241.87616312916668,72.0,86.0
399,241.96210062916668,242.25585062916667,77.0,84.0
400,242.33710062916668,242.60116312916665,76.0,87.0
401,242.71210062916668,243.26522562916665,74.0,90.0
402,243.46210062916668,243.77616312916666,74.0,89.0
403,243.83710062916668,244.12772562916666,71.0,85.0
404,244.21210062916668,244.50897562916668,74.0,90.0
405,244.58710062916668,244.83397562916667,76.0,84.0
406,244.96210062916668,245.23397562916665,76.0,86.0
407,245.33710062916668,245.61835062916668,71.0,86.0
408,245.71210062916668,246.52616312916666,72.0,85.0
409,246.83710062916668,247.13085062916667,72.0,85.0
410,247.21210062916668,247.49491312916666,71.0,86.0
411,247.58710062916668,247.84335062916665,76.0,85.0
412,247.96210062916668,248.22303812916664,76.0,86.0
413,248.33710062916668,248.62460062916665,71.0,84.0
414,248.71210062916668,249.30741312916666,69.0,84.0
415,249.46210062916668,249.71366312916666,69.0,86.0
416,249.83710062916668,250.08397562916667,72.0,85.0
417,250.21210062916668,250.45428812916668,76.0,85.0
418,250.58710062916668,250.85897562916665,77.0,84.0
419,250.96210062916668,252.46210062916668,74.0,85.0
420,253.96210062916668,254.33710062916668,71.0,85.0
421,254.33710062916668,257.3371006291667,72.0,86.0
