,start,end,pitch,velocity
0,4.6046875,5.075,60.0,85.0
1,3.8546875000000003,5.2203125,48.0,85.0
2,4.979687500000001,5.7875000000000005,64.0,79.0
3,5.729687500000001,6.184375,59.0,76.0
4,6.104687500000001,6.260937500000001,62.0,75.0
5,4.2296875,6.29375,55.0,72.0
6,5.354687500000001,6.4265625,47.0,74.0
7,6.854687500000001,7.290625,60.0,71.0
8,7.604687500000001,8.1484375,60.0,77.0
9,7.604687500000001,8.1953125,64.0,77.0
10,7.979687500000001,8.3,57.0,64.0
11,8.3546875,8.8046875,60.0,66.0
12,8.7296875,8.903125000000001,57.0,61.0
13,9.1046875,9.3078125,55.0,77.0
14,7.229687500000001,9.56875,52.0,58.0
15,6.854687500000001,9.684375000000001,45.0,71.0
16,9.1046875,9.7671875,59.0,75.0
17,9.4796875,9.815625,55.0,80.0
18,9.8546875,10.350000000000001,64.0,78.0
19,9.8546875,10.65,60.0,71.0
20,10.6046875,10.998437500000001,64.0,83.0
21,10.2296875,11.034375,55.0,72.0
22,9.8546875,11.1046875,48.0,85.0
23,10.6046875,11.409375,67.0,75.0
24,10.9796875,11.435937500000001,60.0,74.0
25,11.3546875,11.8703125,62.0,77.0
26,12.1046875,12.543750000000001,59.0,77.0
27,11.7296875,12.567187500000001,53.0,69.0
28,12.4796875,12.640625,62.0,80.0
29,11.3546875,12.6875,47.0,73.0
30,13.2296875,13.6875,52.0,59.0
31,12.8546875,13.740625000000001,60.0,76.0
32,13.6046875,14.115625000000001,57.0,74.0
33,13.9796875,14.4796875,52.0,67.0
34,14.3546875,14.676562500000001,57.0,72.0
35,14.3546875,14.70625,60.0,75.0
36,15.1046875,15.209375000000001,57.0,69.0
37,14.7296875,15.2359375,52.0,55.0
38,12.8546875,15.39375,45.0,78.0
39,15.1046875,15.631250000000001,60.0,79.0
40,15.1046875,15.631250000000001,64.0,84.0
41,16.6046875,17.075,60.0,85.0
42,15.8546875,17.220312500000002,48.0,85.0
43,16.9796875,17.7875,64.0,79.0
44,17.7296875,18.184375,59.0,76.0
45,18.1046875,18.2609375,62.0,75.0
46,16.2296875,18.29375,55.0,72.0
47,17.3546875,18.4265625,47.0,74.0
48,18.8546875,19.290625000000002,60.0,71.0
49,19.6046875,20.1484375,60.0,77.0
50,19.6046875,20.1953125,64.0,77.0
51,19.9796875,20.3,57.0,64.0
52,20.3546875,20.8046875,60.0,66.0
53,20.7296875,20.903125000000003,57.0,61.0
54,21.1046875,21.3078125,55.0,77.0
55,19.2296875,21.56875,52.0,58.0
56,18.8546875,21.684375000000003,45.0,71.0
57,21.1046875,21.767187500000002,60.0,75.0
58,21.4796875,21.815625,55.0,80.0
59,21.8546875,22.6171875,65.0,76.0
60,22.2296875,22.676562500000003,57.0,78.0
61,22.6046875,23.025000000000002,62.0,86.0
62,21.8546875,23.189062500000002,50.0,84.0
63,22.9796875,23.5421875,57.0,85.0
64,24.1046875,24.459375,62.0,78.0
65,24.1046875,24.512500000000003,55.0,77.0
66,23.7296875,24.5765625,50.0,74.0
67,23.3546875,24.659375,43.0,84.0
68,24.8546875,25.38125,60.0,79.0
69,25.2296875,25.618750000000002,55.0,77.0
70,24.8546875,26.1484375,48.0,76.0
71,25.6046875,26.192187500000003,65.0,79.0
72,25.9796875,26.4375,55.0,72.0
73,26.3546875,26.85,60.0,71.0
74,26.3546875,27.137500000000003,64.0,76.0
75,26.3546875,27.590625000000003,48.0,80.0
76,27.8546875,28.084375,55.0,73.0
77,27.8546875,28.337500000000002,60.0,77.0
78,28.2296875,28.6171875,55.0,78.0
79,27.8546875,28.782812500000002,48.0,83.0
80,28.6046875,28.793750000000003,60.0,78.0
81,28.9796875,29.3046875,55.0,71.0
82,28.9796875,29.348437500000003,60.0,73.0
83,28.9796875,29.3515625,64.0,78.0
84,28.9796875,30.171875,48.0,78.0
85,30.1046875,30.2328125,60.0,79.0
86,30.1046875,30.243750000000002,55.0,75.0
87,30.8546875,31.171875,60.0,77.0
88,30.8546875,31.192187500000003,53.0,73.0
89,31.6046875,31.731250000000003,57.0,69.0
90,31.9796875,32.081250000000004,57.0,76.0
91,31.9796875,32.0859375,53.0,73.0
92,31.9796875,32.121875,65.0,80.0
93,31.2296875,32.9671875,48.0,68.0
94,30.8546875,33.478125,41.0,84.0
95,33.104687500000004,33.5234375,48.0,73.0
96,33.854687500000004,34.2953125,55.0,80.0
97,33.854687500000004,34.3515625,59.0,83.0
98,34.604687500000004,34.7890625,55.0,67.0
99,34.979687500000004,35.1625,55.0,81.0
100,34.979687500000004,35.1640625,62.0,79.0
101,34.229687500000004,35.346875000000004,50.0,74.0
102,33.854687500000004,35.3671875,43.0,84.0
103,35.729687500000004,36.1609375,55.0,69.0
104,36.104687500000004,36.1953125,62.0,74.0
105,36.104687500000004,36.2,59.0,76.0
106,36.104687500000004,36.2546875,67.0,79.0
107,36.854687500000004,37.042187500000004,55.0,72.0
108,36.854687500000004,37.4390625,60.0,78.0
109,37.229687500000004,37.4703125,55.0,70.0
110,37.604687500000004,37.73125,62.0,73.0
111,37.979687500000004,38.1,55.0,81.0
112,37.979687500000004,38.1109375,64.0,84.0
113,38.729687500000004,38.876562500000006,55.0,32.0
114,39.104687500000004,39.229687500000004,55.0,77.0
115,39.104687500000004,39.245312500000004,60.0,81.0
116,36.854687500000004,39.306250000000006,48.0,79.0
117,39.854687500000004,40.3359375,59.0,77.0
118,39.854687500000004,40.6296875,62.0,78.0
119,40.229687500000004,40.706250000000004,53.0,65.0
120,39.854687500000004,40.7890625,47.0,85.0
121,40.604687500000004,40.890625,59.0,81.0
122,41.354687500000004,41.684375,59.0,73.0
123,41.354687500000004,41.8265625,64.0,80.0
124,41.729687500000004,42.220312500000006,47.0,69.0
125,41.354687500000004,42.284375000000004,40.0,84.0
126,42.104687500000004,42.557812500000004,68.0,86.0
127,42.479687500000004,42.909375000000004,64.0,78.0
128,42.854687500000004,43.1625,69.0,77.0
129,43.604687500000004,43.782812500000006,57.0,76.0
130,43.604687500000004,43.9453125,60.0,79.0
131,43.229687500000004,43.95,52.0,47.0
132,42.854687500000004,44.1015625,45.0,81.0
133,44.354687500000004,44.7890625,55.0,69.0
134,44.354687500000004,45.1015625,59.0,74.0
135,45.104687500000004,45.228125000000006,55.0,85.0
136,44.729687500000004,45.271875,50.0,73.0
137,44.354687500000004,45.2890625,43.0,68.0
138,45.854687500000004,46.2390625,57.0,75.0
139,45.854687500000004,46.6328125,65.0,79.0
140,46.229687500000004,46.6953125,48.0,69.0
141,45.854687500000004,46.721875000000004,41.0,82.0
142,46.604687500000004,46.751562500000006,60.0,84.0
143,47.354687500000004,47.875,62.0,83.0
144,47.729687500000004,48.126562500000006,57.0,73.0
145,47.354687500000004,48.2390625,50.0,84.0
146,48.104687500000004,48.485937500000006,65.0,82.0
147,48.479687500000004,48.610937500000006,57.0,79.0
148,48.7578125,49.1296875,59.0,76.0
149,48.684375,49.140625,55.0,67.0
150,48.8109375,49.345312500000006,62.0,64.0
151,49.182812500000004,50.16738776874999,50.0,78.0
152,48.8265625,50.16914709166666,43.0,85.0
153,49.94416933124999,50.238052264583324,59.0,85.0
154,50.373227735416656,51.22970954999999,43.0,82.0
155,50.344635902083326,51.45171443124999,59.0,73.0
156,49.52899111249999,51.45897658958332,55.0,84.0
157,50.52198507916666,51.46442320833332,67.0,75.0
158,50.44834726041666,51.47894752499999,62.0,76.0
159,52.17371824791665,52.65530708333331,60.0,79.0
160,52.17371824791665,53.063663129166656,67.0,77.0
161,52.962100629166656,53.096475629166655,60.0,81.0
162,52.581428466666644,53.48397562916665,55.0,71.0
163,52.17371824791665,53.510538129166655,48.0,87.0
164,53.337100629166656,54.198038129166655,60.0,86.0
165,53.337100629166656,54.21053812916665,67.0,84.0
166,54.087100629166656,54.821475629166656,48.0,62.0
167,54.462100629166656,55.06991312916665,60.0,85.0
168,54.462100629166656,55.080850629166655,67.0,84.0
169,55.212100629166656,55.565225629166655,60.0,85.0
170,55.212100629166656,55.56991312916665,67.0,81.0
171,55.962100629166656,56.15585062916665,60.0,83.0
172,56.337100629166656,56.47303812916665,65.0,85.0
173,56.337100629166656,56.49647562916665,60.0,86.0
174,57.087100629166656,57.21835062916665,60.0,71.0
175,57.462100629166656,57.65428812916665,65.0,86.0
176,57.462100629166656,57.66210062916665,60.0,86.0
177,55.587100629166656,58.126163129166656,55.0,72.0
178,55.212100629166656,58.133975629166656,48.0,87.0
179,58.212100629166656,58.619913129166655,59.0,81.0
180,58.212100629166656,59.00428812916665,62.0,84.0
181,58.962100629166656,59.112100629166655,59.0,70.0
182,59.337100629166656,59.463663129166655,62.0,82.0
183,59.337100629166656,59.469913129166656,59.0,83.0
184,59.337100629166656,59.479288129166655,67.0,73.0
185,60.462100629166656,60.588663129166655,59.0,80.0
186,60.462100629166656,60.643350629166655,62.0,83.0
187,60.462100629166656,60.90428812916665,67.0,80.0
188,60.837100629166656,60.948038129166655,59.0,69.0
189,58.212100629166656,60.99803812916665,48.0,86.0
190,58.587100629166656,61.01210062916665,55.0,62.0
191,61.212100629166656,61.57616312916665,64.0,84.0
192,61.212100629166656,61.69960062916665,60.0,81.0
193,61.962100629166656,62.118350629166656,62.0,73.0
194,62.337100629166656,62.81210062916665,60.0,84.0
195,61.587100629166656,62.95741312916665,55.0,66.0
196,62.337100629166656,63.23397562916665,67.0,80.0
197,63.462100629166656,63.61522562916665,60.0,84.0
198,63.462100629166656,63.91053812916665,64.0,86.0
199,61.212100629166656,63.96678812916665,48.0,85.0
200,63.087100629166656,63.99178812916665,55.0,62.0
201,63.837100629166656,64.01522562916665,60.0,73.0
202,64.21210062916666,65.08553812916665,65.0,77.0
203,64.58710062916666,65.32460062916665,53.0,69.0
204,64.96210062916666,65.40116312916666,59.0,91.0
205,64.21210062916666,65.41210062916666,47.0,84.0
206,65.33710062916666,65.71678812916666,62.0,85.0
207,65.71210062916666,66.01522562916665,64.0,85.0
208,66.08710062916666,66.46522562916665,47.0,66.0
209,65.71210062916666,66.55116312916665,40.0,85.0
210,66.46210062916666,66.62147562916665,64.0,88.0
211,66.46210062916666,66.65585062916665,59.0,84.0
212,67.21210062916666,67.66522562916666,60.0,79.0
213,67.21210062916666,67.69335062916666,57.0,74.0
214,67.96210062916666,68.39960062916666,60.0,84.0
215,67.96210062916666,68.41522562916666,64.0,83.0
216,67.58710062916666,68.41678812916666,52.0,68.0
217,67.21210062916666,68.54647562916665,45.0,84.0
218,68.33710062916666,68.56210062916665,57.0,84.0
219,68.71210062916666,69.48710062916666,55.0,79.0
220,68.71210062916666,69.52460062916666,59.0,77.0
221,69.08710062916666,69.88397562916666,50.0,61.0
222,68.71210062916666,69.99647562916665,43.0,80.0
223,69.83710062916666,70.06835062916666,55.0,86.0
224,69.46210062916666,70.09960062916666,62.0,85.0
225,70.21210062916666,70.71991312916666,57.0,74.0
226,70.21210062916666,70.84491312916666,65.0,80.0
227,70.96210062916666,71.09491312916666,57.0,79.0
228,70.58710062916666,71.13553812916666,48.0,59.0
229,70.21210062916666,71.30116312916665,41.0,84.0
230,70.96210062916666,71.31210062916665,60.0,84.0
231,71.33710062916666,71.78866312916665,57.0,80.0
232,71.71210062916666,72.50116312916666,65.0,81.0
233,72.08710062916666,72.51678812916666,57.0,81.0
234,71.71210062916666,72.54022562916666,38.0,85.0
235,72.46210062916666,72.81210062916665,62.0,85.0
236,72.83710062916666,72.99960062916665,57.0,77.0
237,73.21210062916666,74.02303812916665,62.0,80.0
238,73.96210062916666,74.25897562916666,55.0,89.0
239,73.58710062916666,74.47772562916666,50.0,84.0
240,74.33710062916666,74.51522562916665,59.0,86.0
241,73.21210062916666,74.51835062916666,43.0,78.0
242,74.71210062916666,74.94022562916666,59.0,87.0
243,74.71210062916666,74.97616312916665,55.0,84.0
244,74.71210062916666,74.98241312916666,62.0,84.0
245,75.46210062916666,75.63553812916666,55.0,85.0
246,75.46210062916666,75.81678812916665,59.0,90.0
247,75.46210062916666,75.89803812916665,67.0,84.0
248,75.08710062916666,76.03710062916666,50.0,88.0
249,75.46210062916666,76.07460062916665,62.0,87.0
250,75.83710062916666,76.08710062916666,55.0,85.0
251,74.71210062916666,76.08866312916666,43.0,85.0
252,76.21210062916666,76.59335062916665,53.0,80.0
253,76.21210062916666,76.76053812916666,60.0,79.0
254,76.77460062916666,77.04647562916665,53.0,84.0
255,76.96210062916666,77.08710062916666,57.0,90.0
256,76.58710062916666,77.09178812916666,48.0,81.0
257,77.14960062916666,77.32147562916666,60.0,105.0
258,76.21210062916666,77.43085062916666,41.0,81.0
259,77.33710062916666,77.45272562916665,48.0,90.0
260,77.71210062916666,78.06522562916666,52.0,86.0
261,77.71210062916666,78.11678812916665,56.0,74.0
262,78.08710062916666,78.50585062916666,47.0,75.0
263,78.46210062916666,78.62616312916666,52.0,89.0
264,78.46210062916666,78.67303812916666,59.0,88.0
265,77.71210062916666,78.69960062916665,40.0,88.0
266,78.64960062916666,78.75428812916665,47.0,86.0
267,78.83710062916666,79.05741312916666,52.0,85.0
268,79.02460062916666,79.12460062916665,56.0,85.0
269,79.21210062916666,79.62616312916666,57.0,84.0
270,79.58710062916666,80.00741312916665,52.0,77.0
271,79.96210062916666,80.12928812916665,57.0,84.0
272,79.96210062916666,80.14803812916665,60.0,85.0
273,79.96210062916666,80.17303812916666,64.0,86.0
274,79.21210062916666,80.23710062916666,45.0,86.0
275,80.14960062916666,80.29178812916666,52.0,81.0
276,80.33710062916666,80.56678812916665,57.0,80.0
277,80.52460062916666,80.62303812916666,60.0,75.0
278,80.71210062916666,81.13085062916666,55.0,84.0
279,80.71210062916666,81.13241312916665,59.0,86.0
280,81.08710062916666,81.51210062916665,50.0,77.0
281,80.71210062916666,81.62147562916665,43.0,84.0
282,81.46210062916666,81.90272562916665,55.0,87.0
283,81.83710062916666,81.94491312916665,50.0,85.0
284,81.46210062916666,82.06678812916665,62.0,88.0
285,82.21210062916666,82.41835062916665,57.0,78.0
286,82.21210062916666,82.47928812916666,60.0,80.0
287,82.58710062916666,82.68241312916666,48.0,75.0
288,82.21210062916666,82.69022562916666,41.0,85.0
289,82.96210062916666,83.33397562916666,57.0,86.0
290,82.96210062916666,83.34178812916666,53.0,85.0
291,82.96210062916666,83.41991312916666,60.0,87.0
292,83.33710062916666,83.47460062916666,48.0,84.0
293,83.71210062916666,84.06053812916666,55.0,79.0
294,83.71210062916666,84.08553812916665,59.0,81.0
295,84.08710062916666,84.55428812916665,50.0,72.0
296,83.71210062916666,84.56991312916665,43.0,86.0
297,84.46210062916666,84.84960062916666,59.0,87.0
298,84.46210062916666,84.85897562916665,62.0,84.0
299,84.46210062916666,84.86991312916666,55.0,84.0
300,84.83710062916666,85.13397562916666,43.0,86.0
301,85.21210062916666,85.42303812916666,55.0,81.0
302,85.21210062916666,85.61678812916665,60.0,82.0
303,85.58710062916666,85.70428812916666,55.0,71.0
304,85.21210062916666,86.08085062916666,48.0,89.0
305,85.96210062916666,86.27928812916664,55.0,88.0
306,85.96210062916666,86.32303812916666,64.0,89.0
307,85.96210062916666,86.32616312916664,60.0,93.0
308,86.33710062916666,86.59022562916665,48.0,84.0
309,86.52460062916666,86.62928812916665,55.0,84.0
310,86.71210062916666,86.89022562916665,55.0,84.0
311,86.71210062916666,87.10741312916664,60.0,84.0
312,86.71210062916666,87.16991312916664,64.0,87.0
313,87.08710062916666,87.19960062916665,55.0,84.0
314,87.46210062916666,87.68241312916666,55.0,86.0
315,86.71210062916666,87.74178812916665,48.0,89.0
316,87.46210062916666,87.85585062916665,62.0,85.0
317,87.83710062916666,88.09803812916665,60.0,89.0
318,88.21210062916666,88.45897562916664,62.0,81.0
319,88.21210062916666,88.51522562916665,59.0,83.0
320,88.58710062916666,88.99647562916665,53.0,69.0
321,88.21210062916666,89.11366312916665,47.0,87.0
322,88.96210062916666,89.34335062916665,59.0,86.0
323,88.96210062916666,89.38397562916666,65.0,86.0
324,89.33710062916666,89.44178812916665,53.0,78.0
325,89.52460062916666,89.71366312916666,62.0,82.0
326,89.71210062916666,89.87303812916664,64.0,86.0
327,90.08710062916666,90.49647562916665,47.0,76.0
328,90.27460062916666,90.52460062916666,50.0,84.0
329,90.46210062916666,90.68553812916664,56.0,91.0
330,89.71210062916666,90.70741312916665,40.0,87.0
331,90.64960062916666,90.75585062916664,47.0,86.0
332,90.83710062916666,91.09803812916665,52.0,86.0
333,91.02460062916666,91.15116312916666,56.0,85.0
334,91.21210062916666,91.47460062916666,57.0,85.0
335,91.58710062916666,91.98866312916665,52.0,78.0
336,91.96210062916666,92.16522562916666,57.0,85.0
337,91.96210062916666,92.20897562916666,60.0,91.0
338,91.21210062916666,92.39491312916665,45.0,86.0
339,92.14960062916666,92.43085062916666,52.0,80.0
340,92.33710062916666,92.59803812916665,57.0,84.0
341,92.52460062916666,92.61991312916666,60.0,80.0
342,92.71210062916666,93.05897562916665,55.0,84.0
343,92.71210062916666,93.06210062916665,59.0,87.0
344,93.08710062916666,93.50272562916666,50.0,74.0
345,93.46210062916666,93.64647562916666,55.0,84.0
346,93.46210062916666,93.66678812916666,62.0,86.0
347,93.46210062916666,93.67616312916665,59.0,87.0
348,92.71210062916666,93.71835062916665,43.0,84.0
349,93.64960062916666,93.75585062916666,50.0,80.0
350,93.83710062916666,93.98397562916665,55.0,85.0
351,94.21210062916666,94.45897562916666,57.0,74.0
352,94.21210062916666,94.53241312916666,53.0,74.0
353,94.58710062916666,94.96210062916666,48.0,74.0
354,94.96210062916666,95.12460062916665,53.0,86.0
355,94.96210062916666,95.15428812916666,57.0,89.0
356,94.21210062916666,95.18085062916666,41.0,84.0
357,95.14960062916666,95.24335062916666,48.0,80.0
358,94.96210062916666,95.25585062916666,65.0,84.0
359,95.33710062916666,95.43866312916666,53.0,88.0
360,95.71210062916666,96.07772562916665,57.0,78.0
361,95.71210062916666,96.33710062916666,65.0,80.0
362,96.27460062916666,96.40585062916665,57.0,78.0
363,96.08710062916666,96.54647562916665,45.0,64.0
364,95.71210062916666,96.61366312916665,38.0,86.0
365,96.46210062916666,96.63866312916666,62.0,88.0
366,96.64960062916666,96.78085062916665,57.0,86.0
367,96.83710062916666,96.94178812916665,62.0,80.0
368,97.21210062916666,97.55585062916666,59.0,83.0
369,97.21210062916666,97.56210062916665,55.0,80.0
370,97.58710062916666,97.81835062916666,50.0,71.0
371,97.77460062916666,97.81835062916666,50.0,69.0
372,97.77460062916666,97.91835062916665,62.0,88.0
373,97.77460062916666,97.92147562916665,55.0,86.0
374,98.14960062916666,98.35428812916666,55.0,84.0
375,98.14960062916666,98.37147562916665,59.0,85.0
376,98.33710062916666,98.49960062916665,50.0,80.0
377,97.21210062916666,98.53085062916665,43.0,85.0
378,98.52460062916666,98.63397562916666,55.0,84.0
379,98.71210062916666,98.89335062916666,59.0,86.0
380,98.71210062916666,98.89803812916665,55.0,81.0
381,98.71210062916666,98.95897562916666,62.0,84.0
382,99.08710062916666,99.18241312916666,55.0,82.0
383,98.89960062916666,99.35116312916665,50.0,84.0
384,99.27460062916666,99.39022562916665,62.0,73.0
385,99.27460062916666,99.55585062916666,55.0,85.0
386,99.27460062916666,99.59178812916666,67.0,81.0
387,99.46210062916666,99.66210062916666,50.0,86.0
388,99.64960062916666,99.70741312916665,55.0,75.0
389,98.71210062916666,99.72147562916666,43.0,85.0
390,99.64960062916666,99.88710062916665,62.0,85.0
391,99.64960062916666,99.89803812916665,59.0,86.0
392,99.83710062916666,100.02928812916666,55.0,84.0
393,100.21210062916666,100.59335062916665,53.0,80.0
394,100.21210062916666,100.76053812916666,60.0,79.0
395,100.77460062916666,101.04647562916665,53.0,84.0
396,100.96210062916666,101.08710062916666,57.0,90.0
397,100.58710062916666,101.09178812916666,48.0,81.0
398,101.14960062916666,101.32147562916666,60.0,105.0
399,100.21210062916666,101.43085062916666,41.0,81.0
400,101.33710062916666,101.45272562916665,48.0,90.0
401,101.71210062916666,102.06522562916666,52.0,86.0
402,101.71210062916666,102.11678812916665,56.0,74.0
403,102.08710062916666,102.50585062916666,47.0,75.0
404,102.46210062916666,102.62616312916666,52.0,89.0
405,102.46210062916666,102.67303812916666,59.0,88.0
406,101.71210062916666,102.69960062916665,40.0,88.0
407,102.64960062916666,102.75428812916665,47.0,86.0
408,102.83710062916666,103.05741312916666,52.0,85.0
409,103.02460062916666,103.12460062916665,56.0,85.0
410,103.21210062916666,103.62616312916666,57.0,84.0
411,103.58710062916666,104.00741312916665,52.0,77.0
412,103.96210062916666,104.12928812916665,57.0,84.0
413,103.96210062916666,104.14803812916665,60.0,85.0
414,103.96210062916666,104.17303812916666,64.0,86.0
415,103.21210062916666,104.23710062916666,45.0,86.0
416,104.14960062916666,104.29178812916666,52.0,81.0
417,104.33710062916666,104.56678812916665,57.0,80.0
418,104.52460062916666,104.62303812916666,60.0,75.0
419,104.71210062916666,105.13085062916666,55.0,84.0
420,104.71210062916666,105.13241312916665,59.0,86.0
421,105.08710062916666,105.51210062916665,50.0,77.0
422,104.71210062916666,105.62147562916665,43.0,84.0
423,105.46210062916666,105.90272562916665,55.0,87.0
424,105.83710062916666,105.94491312916665,50.0,85.0
425,105.46210062916666,106.06678812916665,62.0,88.0
426,106.21210062916666,106.41835062916665,57.0,78.0
427,106.21210062916666,106.47928812916666,60.0,80.0
428,106.58710062916666,106.68241312916666,48.0,75.0
429,106.21210062916666,106.69022562916666,41.0,85.0
430,106.96210062916666,107.33397562916666,57.0,86.0
431,106.96210062916666,107.34178812916666,53.0,85.0
432,106.96210062916666,107.41991312916666,60.0,87.0
433,107.33710062916666,107.47460062916666,48.0,84.0
434,107.71210062916666,108.06053812916666,55.0,79.0
435,107.71210062916666,108.08553812916665,59.0,81.0
436,108.08710062916666,108.55428812916665,50.0,72.0
437,107.71210062916666,108.56991312916665,43.0,86.0
438,108.46210062916666,108.84960062916666,59.0,87.0
439,108.46210062916666,108.85897562916665,62.0,84.0
440,108.46210062916666,108.86991312916666,55.0,84.0
441,108.83710062916666,109.13397562916666,43.0,86.0
442,109.21210062916666,109.42303812916666,55.0,81.0
443,109.21210062916666,109.61678812916665,60.0,82.0
444,109.58710062916666,109.70428812916666,55.0,71.0
445,109.21210062916666,110.08085062916666,48.0,89.0
446,109.96210062916666,110.27928812916666,55.0,88.0
447,109.96210062916666,110.32303812916666,64.0,89.0
448,109.96210062916666,110.32616312916666,60.0,93.0
449,110.33710062916666,110.59022562916665,48.0,84.0
450,110.52460062916666,110.62928812916665,55.0,84.0
451,110.71210062916666,110.89022562916665,55.0,84.0
452,110.71210062916666,111.10741312916666,60.0,84.0
453,110.71210062916666,111.16991312916666,64.0,87.0
454,111.08710062916666,111.19960062916665,55.0,84.0
455,111.46210062916666,111.68241312916666,55.0,86.0
456,110.71210062916666,111.74178812916665,48.0,89.0
457,111.46210062916666,111.85585062916665,62.0,85.0
458,111.83710062916666,112.09803812916665,60.0,89.0
459,112.21210062916666,112.45897562916666,62.0,81.0
460,112.21210062916666,112.51522562916665,59.0,83.0
461,112.58710062916666,112.99647562916665,53.0,69.0
462,112.21210062916666,113.11366312916665,47.0,87.0
463,112.96210062916666,113.34335062916665,59.0,86.0
464,112.96210062916666,113.38397562916666,65.0,86.0
465,113.33710062916666,113.44178812916665,53.0,78.0
466,113.52460062916666,113.71366312916666,62.0,82.0
467,113.71210062916666,113.87303812916666,64.0,86.0
468,114.08710062916666,114.49647562916665,47.0,76.0
469,114.27460062916666,114.52460062916666,50.0,84.0
470,114.46210062916666,114.68553812916666,56.0,91.0
471,113.71210062916666,114.70741312916665,40.0,87.0
472,114.64960062916666,114.75585062916666,47.0,86.0
473,114.83710062916666,115.09803812916665,52.0,86.0
474,115.02460062916666,115.15116312916666,56.0,85.0
475,115.21210062916666,115.47460062916666,57.0,85.0
476,115.58710062916666,115.98866312916665,52.0,78.0
477,115.96210062916666,116.16522562916666,57.0,85.0
478,115.96210062916666,116.20897562916666,60.0,91.0
479,115.21210062916666,116.39491312916665,45.0,86.0
480,116.14960062916666,116.43085062916666,52.0,80.0
481,116.33710062916666,116.59803812916665,57.0,84.0
482,116.52460062916666,116.61991312916666,60.0,80.0
483,116.71210062916666,117.05897562916665,55.0,84.0
484,116.71210062916666,117.06210062916665,59.0,87.0
485,117.08710062916666,117.50272562916666,50.0,74.0
486,117.46210062916666,117.64647562916666,55.0,84.0
487,117.46210062916666,117.66678812916666,62.0,86.0
488,117.46210062916666,117.67616312916665,59.0,87.0
489,116.71210062916666,117.71835062916665,43.0,84.0
490,117.64960062916666,117.75585062916666,50.0,80.0
491,117.83710062916666,117.98397562916665,55.0,85.0
492,118.21210062916666,118.45897562916666,57.0,74.0
493,118.21210062916666,118.53241312916666,53.0,74.0
494,118.58710062916666,118.96210062916666,48.0,74.0
495,118.96210062916666,119.12460062916665,53.0,86.0
496,118.96210062916666,119.15428812916666,57.0,89.0
497,118.21210062916666,119.18085062916666,41.0,84.0
498,119.14960062916666,119.24335062916666,48.0,80.0
499,118.96210062916666,119.25585062916666,65.0,84.0
500,119.33710062916666,119.43866312916666,53.0,88.0
501,119.71210062916666,120.15428812916666,55.0,81.0
502,119.71210062916666,120.24178812916665,62.0,79.0
503,120.27460062916666,120.64022562916665,55.0,80.0
504,120.46210062916666,120.69022562916666,59.0,84.0
505,120.64960062916666,120.89178812916666,62.0,89.0
506,120.08710062916666,121.01835062916666,50.0,77.0
507,119.71210062916666,121.08866312916666,43.0,86.0
508,120.83710062916666,121.09803812916665,55.0,86.0
509,121.21210062916666,121.57772562916665,67.0,75.0
510,121.21210062916666,121.60585062916665,55.0,72.0
511,121.21210062916666,121.62772562916666,59.0,76.0
512,121.21210062916666,121.65272562916665,62.0,78.0
513,121.58710062916666,121.84335062916665,50.0,62.0
514,121.21210062916666,121.85897562916665,43.0,84.0
515,121.96210062916666,122.23710062916666,55.0,76.0
516,122.33710062916666,122.75428812916665,59.0,80.0
517,122.33710062916666,122.87460062916665,62.0,82.0
518,123.46210062916666,123.72147562916666,59.0,77.0
519,123.46210062916666,123.85272562916666,62.0,78.0
520,124.21210062916666,124.56366312916666,59.0,76.0
521,124.21210062916666,124.64178812916666,62.0,78.0
522,124.96210062916666,125.10897562916665,55.0,83.0
523,124.96210062916666,125.57460062916665,62.0,81.0
524,125.33710062916666,125.66522562916666,55.0,88.0
525,125.71210062916666,126.15897562916666,60.0,79.0
526,125.71210062916666,126.56366312916666,67.0,77.0
527,126.46210062916666,126.59647562916666,60.0,81.0
528,126.08710062916666,126.98397562916665,55.0,71.0
529,125.71210062916666,127.01053812916666,48.0,87.0
530,126.83710062916666,127.69803812916666,60.0,86.0
531,126.83710062916666,127.71053812916665,67.0,84.0
532,127.58710062916666,128.32147562916666,48.0,62.0
533,127.96210062916666,128.56991312916665,60.0,85.0
534,127.96210062916666,128.58085062916666,67.0,84.0
535,128.71210062916666,129.06522562916666,60.0,85.0
536,128.71210062916666,129.06991312916665,67.0,81.0
537,129.46210062916666,129.65585062916665,60.0,83.0
538,129.83710062916666,129.97303812916664,65.0,85.0
539,129.83710062916666,129.99647562916664,60.0,86.0
540,130.58710062916666,130.71835062916665,60.0,71.0
541,130.96210062916666,131.15428812916667,65.0,86.0
542,130.96210062916666,131.16210062916667,60.0,86.0
543,129.08710062916666,131.62616312916666,55.0,72.0
544,128.71210062916666,131.63397562916666,48.0,87.0
545,131.71210062916666,132.11991312916666,59.0,81.0
546,131.71210062916666,132.50428812916664,62.0,84.0
547,132.46210062916666,132.61210062916666,59.0,70.0
548,132.83710062916666,132.96366312916666,62.0,82.0
549,132.83710062916666,132.96991312916666,59.0,83.0
550,132.83710062916666,132.97928812916666,67.0,73.0
551,133.96210062916666,134.08866312916666,59.0,80.0
552,133.96210062916666,134.14335062916666,62.0,83.0
553,133.96210062916666,134.40428812916667,67.0,80.0
554,134.33710062916666,134.44803812916666,59.0,69.0
555,131.71210062916666,134.49803812916667,48.0,86.0
556,132.08710062916666,134.51210062916664,55.0,62.0
557,134.71210062916666,135.07616312916667,64.0,84.0
558,134.71210062916666,135.19960062916664,60.0,81.0
559,135.46210062916666,135.61835062916666,62.0,73.0
560,135.83710062916666,136.31210062916665,60.0,84.0
561,135.08710062916666,136.45741312916664,55.0,66.0
562,135.83710062916666,136.73397562916665,67.0,80.0
563,136.96210062916666,137.11522562916667,60.0,84.0
564,136.96210062916666,137.41053812916664,64.0,86.0
565,134.71210062916666,137.46678812916667,48.0,85.0
566,136.58710062916666,137.49178812916665,55.0,62.0
567,137.33710062916666,137.51522562916665,60.0,73.0
568,137.71210062916666,138.58553812916665,65.0,77.0
569,138.08710062916666,138.82460062916664,53.0,69.0
570,138.46210062916666,138.90116312916666,59.0,91.0
571,137.71210062916666,138.91210062916667,47.0,84.0
572,138.83710062916666,139.21678812916667,62.0,85.0
573,139.21210062916666,139.51522562916665,64.0,85.0
574,139.58710062916666,139.96522562916664,47.0,66.0
575,139.21210062916666,140.05116312916664,40.0,85.0
576,139.96210062916666,140.12147562916664,64.0,88.0
577,139.96210062916666,140.15585062916665,59.0,84.0
578,140.71210062916666,141.16522562916666,60.0,79.0
579,140.71210062916666,141.19335062916667,57.0,74.0
580,141.46210062916666,141.89960062916666,60.0,84.0
581,141.46210062916666,141.91522562916666,64.0,83.0
582,141.08710062916666,141.91678812916666,52.0,68.0
583,140.71210062916666,142.04647562916665,45.0,84.0
584,141.83710062916666,142.06210062916665,57.0,84.0
585,142.21210062916666,142.98710062916666,55.0,79.0
586,142.21210062916666,143.02460062916666,59.0,77.0
587,142.58710062916666,143.38397562916666,50.0,61.0
588,142.21210062916666,143.49647562916664,43.0,80.0
589,143.33710062916666,143.56835062916667,55.0,86.0
590,142.96210062916666,143.59960062916667,62.0,85.0
591,143.71210062916666,144.21991312916666,57.0,74.0
592,143.71210062916666,144.34491312916666,65.0,80.0
593,144.46210062916666,144.59491312916666,57.0,79.0
594,144.08710062916666,144.63553812916666,48.0,59.0
595,143.71210062916666,144.80116312916664,41.0,84.0
596,144.46210062916666,144.81210062916665,60.0,84.0
597,144.83710062916666,145.28866312916665,57.0,80.0
598,145.21210062916666,146.00116312916666,65.0,81.0
599,145.58710062916666,146.01678812916666,57.0,81.0
600,145.21210062916666,146.04022562916666,38.0,85.0
601,145.96210062916666,146.31210062916665,62.0,85.0
602,146.33710062916666,146.49960062916665,57.0,77.0
603,146.71210062916666,147.52303812916665,62.0,80.0
604,147.46210062916666,147.75897562916666,55.0,89.0
605,147.08710062916666,147.97772562916666,50.0,84.0
606,147.83710062916666,148.01522562916665,59.0,86.0
607,146.71210062916666,148.01835062916666,43.0,78.0
608,148.21210062916666,148.44022562916666,59.0,87.0
609,148.21210062916666,148.47616312916665,55.0,84.0
610,148.21210062916666,148.48241312916667,62.0,84.0
611,148.96210062916666,149.13553812916666,55.0,85.0
612,148.96210062916666,149.31678812916664,59.0,90.0
613,148.96210062916666,149.39803812916665,67.0,84.0
614,148.58710062916666,149.53710062916667,50.0,88.0
615,148.96210062916666,149.57460062916664,62.0,87.0
616,149.33710062916666,149.58710062916666,55.0,85.0
617,148.21210062916666,149.58866312916666,43.0,85.0
618,149.71210062916666,150.09335062916665,53.0,80.0
619,149.71210062916666,150.26053812916666,60.0,79.0
620,150.27460062916666,150.54647562916665,53.0,84.0
621,150.46210062916666,150.58710062916666,57.0,90.0
622,150.08710062916666,150.59178812916667,48.0,81.0
623,150.64960062916666,150.82147562916666,60.0,105.0
624,149.71210062916666,150.93085062916666,41.0,81.0
625,150.83710062916666,150.95272562916665,48.0,90.0
626,151.21210062916666,151.56522562916666,52.0,86.0
627,151.21210062916666,151.61678812916665,56.0,74.0
628,151.58710062916666,152.00585062916667,47.0,75.0
629,151.96210062916666,152.12616312916666,52.0,89.0
630,151.96210062916666,152.17303812916666,59.0,88.0
631,151.21210062916666,152.19960062916664,40.0,88.0
632,152.14960062916666,152.25428812916664,47.0,86.0
633,152.33710062916666,152.55741312916666,52.0,85.0
634,152.52460062916666,152.62460062916665,56.0,85.0
635,152.71210062916666,153.12616312916666,57.0,84.0
636,153.08710062916666,153.50741312916665,52.0,77.0
637,153.46210062916666,153.62928812916664,57.0,84.0
638,153.46210062916666,153.64803812916665,60.0,85.0
639,153.46210062916666,153.67303812916666,64.0,86.0
640,152.71210062916666,153.73710062916666,45.0,86.0
641,153.64960062916666,153.79178812916666,52.0,81.0
642,153.83710062916666,154.06678812916664,57.0,80.0
643,154.02460062916666,154.12303812916667,60.0,75.0
644,154.21210062916666,154.63085062916667,55.0,84.0
645,154.21210062916666,154.63241312916665,59.0,86.0
646,154.58710062916666,155.01210062916664,50.0,77.0
647,154.21210062916666,155.12147562916664,43.0,84.0
648,154.96210062916666,155.40272562916664,55.0,87.0
649,155.33710062916666,155.44491312916665,50.0,85.0
650,154.96210062916666,155.56678812916664,62.0,88.0
651,155.71210062916666,155.91835062916664,57.0,78.0
652,155.71210062916666,155.97928812916666,60.0,80.0
653,156.08710062916666,156.18241312916666,48.0,75.0
654,155.71210062916666,156.19022562916666,41.0,85.0
655,156.46210062916666,156.83397562916667,57.0,86.0
656,156.46210062916666,156.84178812916667,53.0,85.0
657,156.46210062916666,156.91991312916667,60.0,87.0
658,156.83710062916666,156.97460062916667,48.0,84.0
659,157.21210062916666,157.56053812916667,55.0,79.0
660,157.21210062916666,157.58553812916665,59.0,81.0
661,157.58710062916666,158.05428812916665,50.0,72.0
662,157.21210062916666,158.06991312916665,43.0,86.0
663,157.96210062916666,158.34960062916667,59.0,87.0
664,157.96210062916666,158.35897562916665,62.0,84.0
665,157.96210062916666,158.36991312916666,55.0,84.0
666,158.33710062916666,158.63397562916666,43.0,86.0
667,158.71210062916666,158.92303812916666,55.0,81.0
668,158.71210062916666,159.11678812916665,60.0,82.0
669,159.08710062916666,159.20428812916666,55.0,71.0
670,158.71210062916666,159.58085062916666,48.0,89.0
671,159.46210062916666,159.77928812916667,55.0,88.0
672,159.46210062916666,159.82303812916666,64.0,89.0
673,159.46210062916666,159.82616312916667,60.0,93.0
674,159.83710062916666,160.09022562916664,48.0,84.0
675,160.02460062916666,160.12928812916664,55.0,84.0
676,160.21210062916666,160.39022562916665,55.0,84.0
677,160.21210062916666,160.60741312916667,60.0,84.0
678,160.21210062916666,160.66991312916667,64.0,87.0
679,160.58710062916666,160.69960062916664,55.0,84.0
680,160.96210062916666,161.18241312916666,55.0,86.0
681,160.21210062916666,161.24178812916665,48.0,89.0
682,160.96210062916666,161.35585062916664,62.0,85.0
683,161.33710062916666,161.59803812916664,60.0,89.0
684,161.71210062916666,161.95897562916667,62.0,81.0
685,161.71210062916666,162.01522562916665,59.0,83.0
686,162.08710062916666,162.49647562916664,53.0,69.0
687,161.71210062916666,162.61366312916664,47.0,87.0
688,162.46210062916666,162.84335062916665,59.0,86.0
689,162.46210062916666,162.88397562916666,65.0,86.0
690,162.83710062916666,162.94178812916664,53.0,78.0
691,163.02460062916666,163.21366312916666,62.0,82.0
692,163.21210062916666,163.37303812916667,64.0,86.0
693,163.58710062916666,163.99647562916664,47.0,76.0
694,163.77460062916666,164.02460062916666,50.0,84.0
695,163.96210062916666,164.18553812916667,56.0,91.0
696,163.21210062916666,164.20741312916664,40.0,87.0
697,164.14960062916666,164.25585062916667,47.0,86.0
698,164.33710062916666,164.59803812916664,52.0,86.0
699,164.52460062916666,164.65116312916666,56.0,85.0
700,164.71210062916666,164.97460062916667,57.0,85.0
701,165.08710062916666,165.48866312916664,52.0,78.0
702,165.46210062916666,165.66522562916666,57.0,85.0
703,165.46210062916666,165.70897562916667,60.0,91.0
704,164.71210062916666,165.89491312916664,45.0,86.0
705,165.64960062916666,165.93085062916666,52.0,80.0
706,165.83710062916666,166.09803812916664,57.0,84.0
707,166.02460062916666,166.11991312916666,60.0,80.0
708,166.21210062916666,166.55897562916664,55.0,84.0
709,166.21210062916666,166.56210062916665,59.0,87.0
710,166.58710062916666,167.00272562916666,50.0,74.0
711,166.96210062916666,167.14647562916667,55.0,84.0
712,166.96210062916666,167.16678812916666,62.0,86.0
713,166.96210062916666,167.17616312916664,59.0,87.0
714,166.21210062916666,167.21835062916665,43.0,84.0
715,167.14960062916666,167.25585062916667,50.0,80.0
716,167.33710062916666,167.48397562916665,55.0,85.0
717,167.71210062916666,167.95897562916667,57.0,74.0
718,167.71210062916666,168.03241312916666,53.0,74.0
719,168.08710062916666,168.46210062916666,48.0,74.0
720,168.46210062916666,168.62460062916665,53.0,86.0
721,168.46210062916666,168.65428812916667,57.0,89.0
722,167.71210062916666,168.68085062916666,41.0,84.0
723,168.64960062916666,168.74335062916666,48.0,80.0
724,168.46210062916666,168.75585062916667,65.0,84.0
725,168.83710062916666,168.93866312916666,53.0,88.0
726,169.21210062916666,169.57772562916665,57.0,78.0
727,169.21210062916666,169.83710062916666,65.0,80.0
728,169.77460062916666,169.90585062916665,57.0,78.0
729,169.58710062916666,170.04647562916665,45.0,64.0
730,169.21210062916666,170.11366312916664,38.0,86.0
731,169.96210062916666,170.13866312916667,62.0,88.0
732,170.14960062916666,170.28085062916665,57.0,86.0
733,170.33710062916666,170.44178812916664,62.0,80.0
734,170.71210062916666,171.05585062916666,59.0,83.0
735,170.71210062916666,171.06210062916665,55.0,80.0
736,171.08710062916666,171.31835062916667,50.0,71.0
737,171.27460062916666,171.31835062916667,50.0,69.0
738,171.27460062916666,171.41835062916664,62.0,88.0
739,171.27460062916666,171.42147562916665,55.0,86.0
740,171.64960062916666,171.85428812916666,55.0,84.0
741,171.64960062916666,171.87147562916664,59.0,85.0
742,171.83710062916666,171.99960062916665,50.0,80.0
743,170.71210062916666,172.03085062916665,43.0,85.0
744,172.02460062916666,172.13397562916666,55.0,84.0
745,172.21210062916666,172.39335062916666,59.0,86.0
746,172.21210062916666,172.39803812916665,55.0,81.0
747,172.21210062916666,172.45897562916667,62.0,84.0
748,172.58710062916666,172.68241312916666,55.0,82.0
749,172.39960062916666,172.85116312916665,50.0,84.0
750,172.77460062916666,172.89022562916665,62.0,73.0
751,172.77460062916666,173.05585062916666,55.0,85.0
752,172.77460062916666,173.09178812916667,67.0,81.0
753,172.96210062916666,173.16210062916667,50.0,86.0
754,173.14960062916666,173.20741312916664,55.0,75.0
755,172.21210062916666,173.22147562916666,43.0,85.0
756,173.14960062916666,173.38710062916664,62.0,85.0
757,173.14960062916666,173.39803812916665,59.0,86.0
758,173.33710062916666,173.52928812916667,55.0,84.0
759,173.71210062916666,174.09335062916665,53.0,80.0
760,173.71210062916666,174.26053812916666,60.0,79.0
761,174.27460062916666,174.54647562916665,53.0,84.0
762,174.46210062916666,174.58710062916666,57.0,90.0
763,174.08710062916666,174.59178812916667,48.0,81.0
764,174.64960062916666,174.82147562916666,60.0,105.0
765,173.71210062916666,174.93085062916666,41.0,81.0
766,174.83710062916666,174.95272562916665,48.0,90.0
767,175.21210062916666,175.56522562916666,52.0,86.0
768,175.21210062916666,175.61678812916665,56.0,74.0
769,175.58710062916666,176.00585062916667,47.0,75.0
770,175.96210062916666,176.12616312916666,52.0,89.0
771,175.96210062916666,176.17303812916666,59.0,88.0
772,175.21210062916666,176.19960062916664,40.0,88.0
773,176.14960062916666,176.25428812916664,47.0,86.0
774,176.33710062916666,176.55741312916666,52.0,85.0
775,176.52460062916666,176.62460062916665,56.0,85.0
776,176.71210062916666,177.12616312916666,57.0,84.0
777,177.08710062916666,177.50741312916665,52.0,77.0
778,177.46210062916666,177.62928812916664,57.0,84.0
779,177.46210062916666,177.64803812916665,60.0,85.0
780,177.46210062916666,177.67303812916666,64.0,86.0
781,176.71210062916666,177.73710062916666,45.0,86.0
782,177.64960062916666,177.79178812916666,52.0,81.0
783,177.83710062916666,178.06678812916664,57.0,80.0
784,178.02460062916666,178.12303812916667,60.0,75.0
785,178.21210062916666,178.63085062916667,55.0,84.0
786,178.21210062916666,178.63241312916665,59.0,86.0
787,178.58710062916666,179.01210062916664,50.0,77.0
788,178.21210062916666,179.12147562916664,43.0,84.0
789,178.96210062916666,179.40272562916664,55.0,87.0
790,179.33710062916666,179.44491312916665,50.0,85.0
791,178.96210062916666,179.56678812916664,62.0,88.0
792,179.71210062916666,179.91835062916664,57.0,78.0
793,179.71210062916666,179.97928812916666,60.0,80.0
794,180.08710062916666,180.18241312916666,48.0,75.0
795,179.71210062916666,180.19022562916666,41.0,85.0
796,180.46210062916666,180.83397562916667,57.0,86.0
797,180.46210062916666,180.84178812916667,53.0,85.0
798,180.46210062916666,180.91991312916667,60.0,87.0
799,180.83710062916666,180.97460062916667,48.0,84.0
800,181.21210062916668,181.56053812916667,55.0,79.0
801,181.21210062916668,181.58553812916665,59.0,81.0
802,181.58710062916668,182.05428812916665,50.0,72.0
803,181.21210062916668,182.06991312916665,43.0,86.0
804,181.96210062916668,182.34960062916667,59.0,87.0
805,181.96210062916668,182.35897562916665,62.0,84.0
806,181.96210062916668,182.36991312916666,55.0,84.0
807,182.33710062916668,182.63397562916668,43.0,86.0
808,182.71210062916668,182.92303812916668,55.0,81.0
809,182.71210062916668,183.11678812916665,60.0,82.0
810,183.08710062916668,183.20428812916668,55.0,71.0
811,182.71210062916668,183.58085062916666,48.0,89.0
812,183.46210062916668,183.77928812916667,55.0,88.0
813,183.46210062916668,183.82303812916666,64.0,89.0
814,183.46210062916668,183.82616312916667,60.0,93.0
815,183.83710062916668,184.09022562916664,48.0,84.0
816,184.02460062916668,184.12928812916664,55.0,84.0
817,184.21210062916668,184.39022562916665,55.0,84.0
818,184.21210062916668,184.60741312916667,60.0,84.0
819,184.21210062916668,184.66991312916667,64.0,87.0
820,184.58710062916668,184.69960062916664,55.0,84.0
821,184.96210062916668,185.18241312916666,55.0,86.0
822,184.21210062916668,185.24178812916665,48.0,89.0
823,184.96210062916668,185.35585062916664,62.0,85.0
824,185.33710062916668,185.59803812916664,60.0,89.0
825,185.71210062916668,185.95897562916667,62.0,81.0
826,185.71210062916668,186.01522562916665,59.0,83.0
827,186.08710062916668,186.49647562916664,53.0,69.0
828,185.71210062916668,186.61366312916664,47.0,87.0
829,186.46210062916668,186.84335062916665,59.0,86.0
830,186.46210062916668,186.88397562916668,65.0,86.0
831,186.83710062916668,186.94178812916664,53.0,78.0
832,187.02460062916668,187.21366312916666,62.0,82.0
833,187.21210062916668,187.37303812916667,64.0,86.0
834,187.58710062916668,187.99647562916664,47.0,76.0
835,187.77460062916668,188.02460062916668,50.0,84.0
836,187.96210062916668,188.18553812916667,56.0,91.0
837,187.21210062916668,188.20741312916664,40.0,87.0
838,188.14960062916668,188.25585062916667,47.0,86.0
839,188.33710062916668,188.59803812916664,52.0,86.0
840,188.52460062916668,188.65116312916666,56.0,85.0
841,188.71210062916668,188.97460062916667,57.0,85.0
842,189.08710062916668,189.48866312916664,52.0,78.0
843,189.46210062916668,189.66522562916668,57.0,85.0
844,189.46210062916668,189.70897562916667,60.0,91.0
845,188.71210062916668,189.89491312916664,45.0,86.0
846,189.64960062916668,189.93085062916668,52.0,80.0
847,189.83710062916668,190.09803812916664,57.0,84.0
848,190.02460062916668,190.11991312916666,60.0,80.0
849,190.21210062916668,190.55897562916664,55.0,84.0
850,190.21210062916668,190.56210062916665,59.0,87.0
851,190.58710062916668,191.00272562916666,50.0,74.0
852,190.96210062916668,191.14647562916667,55.0,84.0
853,190.96210062916668,191.16678812916666,62.0,86.0
854,190.96210062916668,191.17616312916664,59.0,87.0
855,190.21210062916668,191.21835062916665,43.0,84.0
856,191.14960062916668,191.25585062916667,50.0,80.0
857,191.33710062916668,191.48397562916665,55.0,85.0
858,191.71210062916668,191.95897562916667,57.0,74.0
859,191.71210062916668,192.03241312916668,53.0,74.0
860,192.08710062916668,192.46210062916668,48.0,74.0
861,192.46210062916668,192.62460062916665,53.0,86.0
862,192.46210062916668,192.65428812916667,57.0,89.0
863,191.71210062916668,192.68085062916668,41.0,84.0
864,192.64960062916668,192.74335062916668,48.0,80.0
865,192.46210062916668,192.75585062916667,65.0,84.0
866,192.83710062916668,192.93866312916668,53.0,88.0
867,193.21210062916668,193.65428812916667,55.0,81.0
868,193.21210062916668,193.74178812916665,62.0,79.0
869,193.77460062916668,194.14022562916665,55.0,80.0
870,193.96210062916668,194.19022562916666,59.0,84.0
871,194.14960062916668,194.39178812916668,62.0,89.0
872,193.58710062916668,194.51835062916666,50.0,77.0
873,193.21210062916668,194.58866312916666,43.0,86.0
874,194.33710062916668,194.59803812916664,55.0,86.0
875,194.71210062916668,194.75897562916668,60.0,74.0
876,194.71210062916668,194.78553812916664,63.0,72.0
877,194.71210062916668,194.79647562916665,56.0,70.0
878,194.71210062916668,194.81366312916668,44.0,90.0
879,195.08710062916668,195.49022562916667,60.0,85.0
880,195.08710062916668,195.51991312916664,63.0,79.0
881,195.08710062916668,195.54803812916668,56.0,74.0
882,195.64960062916668,195.74178812916665,60.0,84.0
883,195.64960062916668,195.75272562916666,63.0,82.0
884,195.64960062916668,195.79022562916668,56.0,83.0
885,195.64960062916668,195.84178812916667,68.0,80.0
886,195.08710062916668,196.01053812916666,44.0,101.0
887,196.02460062916668,196.11835062916668,56.0,66.0
888,196.21210062916668,196.53085062916665,60.0,83.0
889,196.21210062916668,196.56210062916665,56.0,76.0
890,196.21210062916668,196.56678812916664,63.0,78.0
891,196.58710062916668,196.73397562916665,51.0,41.0
892,196.77460062916668,196.93241312916666,60.0,72.0
893,196.77460062916668,196.96522562916664,63.0,73.0
894,196.77460062916668,196.96678812916667,56.0,78.0
895,196.21210062916668,197.04178812916666,44.0,85.0
896,196.96210062916668,197.05428812916665,51.0,54.0
897,197.14960062916668,197.45897562916667,56.0,79.0
898,197.33710062916668,197.45897562916667,60.0,78.0
899,197.71210062916668,197.98241312916667,53.0,76.0
900,197.71210062916668,198.00116312916668,58.0,74.0
901,198.08710062916668,198.27772562916664,62.0,85.0
902,198.08710062916668,198.33241312916664,53.0,76.0
903,197.71210062916668,198.59178812916667,46.0,80.0
904,198.64960062916668,198.76522562916665,58.0,84.0
905,198.64960062916668,198.77616312916666,53.0,80.0
906,199.02460062916668,199.13397562916668,53.0,78.0
907,199.21210062916668,199.49960062916665,53.0,73.0
908,199.21210062916668,199.59178812916667,58.0,68.0
909,199.21210062916668,199.81522562916666,46.0,75.0
910,199.77460062916668,199.93085062916668,62.0,84.0
911,199.77460062916668,199.94960062916664,53.0,80.0
912,199.77460062916668,199.95272562916665,58.0,85.0
913,199.96210062916668,200.16835062916664,46.0,74.0
914,200.14960062916668,200.26522562916665,53.0,83.0
915,200.14960062916668,200.35272562916668,58.0,85.0
916,200.52460062916668,200.65741312916668,53.0,81.0
917,201.08710062916668,201.19803812916666,56.0,80.0
918,201.27460062916668,201.36678812916665,60.0,80.0
919,200.89960062916668,201.38241312916665,51.0,75.0
920,201.27460062916668,201.41991312916667,63.0,80.0
921,201.27460062916668,201.44178812916664,56.0,83.0
922,201.46210062916668,201.69647562916668,51.0,59.0
923,201.64960062916668,201.77616312916666,60.0,84.0
924,201.64960062916668,201.78241312916668,56.0,77.0
925,201.64960062916668,201.81991312916665,63.0,78.0
926,200.71210062916668,202.05897562916664,44.0,88.0
927,202.02460062916668,202.11835062916668,56.0,69.0
928,202.21210062916668,202.56522562916666,68.0,82.0
929,202.21210062916668,202.62772562916666,56.0,73.0
930,202.58710062916668,202.78553812916664,51.0,56.0
931,202.21210062916668,202.89335062916666,44.0,85.0
932,202.77460062916668,202.94335062916667,60.0,82.0
933,202.77460062916668,202.97616312916665,56.0,82.0
934,202.77460062916668,202.98866312916664,63.0,80.0
935,202.96210062916668,203.11991312916666,51.0,72.0
936,203.14960062916668,203.20428812916668,60.0,79.0
937,203.14960062916668,203.21053812916665,63.0,73.0
938,203.14960062916668,203.27616312916666,56.0,85.0
939,203.71210062916668,203.96991312916668,55.0,82.0
940,203.71210062916668,204.20897562916667,60.0,83.0
941,204.08710062916668,204.26835062916666,55.0,73.0
942,204.46210062916668,204.72616312916665,55.0,79.0
943,204.46210062916668,205.24022562916667,64.0,85.0
944,204.83710062916668,205.26835062916666,55.0,69.0
945,205.21210062916668,206.03553812916664,62.0,79.0
946,205.58710062916668,206.04647562916665,55.0,66.0
947,206.33710062916668,206.63397562916668,55.0,79.0
948,205.96210062916668,206.63866312916667,60.0,82.0
949,203.71210062916668,206.67303812916668,48.0,75.0
950,206.71210062916668,207.52772562916664,62.0,80.0
951,207.08710062916668,207.73553812916668,53.0,54.0
952,207.46210062916668,207.83397562916667,65.0,83.0
953,206.71210062916668,207.86991312916666,47.0,76.0
954,207.83710062916668,208.27772562916664,59.0,84.0
955,208.21210062916668,208.84960062916667,64.0,83.0
956,208.58710062916668,209.00585062916667,59.0,71.0
957,208.21210062916668,209.05897562916664,52.0,82.0
958,208.96210062916668,209.10741312916667,68.0,76.0
959,209.71210062916668,210.26835062916666,60.0,75.0
960,210.46210062916668,210.94022562916666,64.0,84.0
961,210.08710062916668,210.95272562916665,52.0,73.0
962,209.71210062916668,211.02772562916664,45.0,70.0
963,210.83710062916668,211.04178812916666,57.0,74.0
964,211.21210062916668,211.98553812916668,59.0,80.0
965,211.96210062916668,212.10116312916665,55.0,79.0
966,211.58710062916668,212.15897562916666,50.0,66.0
967,211.21210062916668,212.19960062916664,43.0,73.0
968,212.71210062916668,213.45897562916667,57.0,71.0
969,213.08710062916668,213.51210062916664,48.0,65.0
970,212.71210062916668,213.52616312916666,41.0,77.0
971,212.71210062916668,213.86053812916668,60.0,75.0
972,213.46210062916668,214.12616312916668,65.0,83.0
973,213.83710062916668,214.20897562916667,57.0,77.0
974,214.58710062916668,215.09647562916666,50.0,77.0
975,214.96210062916668,215.09960062916667,55.0,77.0
976,214.21210062916668,215.26522562916665,43.0,84.0
977,214.96210062916668,215.33710062916668,62.0,79.0
978,214.96210062916668,215.39803812916665,59.0,75.0
979,215.33710062916668,215.80428812916665,55.0,80.0
980,216.08710062916668,216.49491312916666,55.0,73.0
981,215.71210062916668,216.50272562916666,60.0,77.0
982,216.46210062916668,217.25897562916668,64.0,85.0
983,216.83710062916668,217.26210062916664,55.0,77.0
984,217.21210062916668,217.77460062916668,62.0,80.0
985,217.58710062916668,217.79022562916668,55.0,74.0
986,217.96210062916668,218.15585062916665,55.0,86.0
987,218.33710062916668,218.61053812916668,55.0,84.0
988,215.71210062916668,218.63241312916665,48.0,80.0
989,217.96210062916668,218.63241312916665,60.0,86.0
990,218.71210062916668,219.18241312916666,65.0,79.0
991,218.71210062916668,219.26053812916666,59.0,76.0
992,219.08710062916668,219.64178812916668,53.0,69.0
993,218.71210062916668,219.72928812916666,47.0,84.0
994,219.46210062916668,219.82772562916665,62.0,88.0
995,219.83710062916668,220.26678812916668,59.0,83.0
996,220.21210062916668,220.66366312916665,64.0,84.0
997,220.58710062916668,221.06991312916665,47.0,66.0
998,220.21210062916668,221.13085062916667,40.0,86.0
999,220.96210062916668,221.15428812916667,64.0,86.0
1000,220.96210062916668,221.17147562916665,59.0,80.0
1001,221.33710062916668,221.57303812916666,62.0,79.0
1002,221.71210062916668,222.10428812916666,60.0,74.0
1003,221.71210062916668,222.15897562916666,57.0,73.0
1004,222.08710062916668,222.52460062916668,52.0,71.0
1005,222.46210062916668,222.66522562916668,57.0,84.0
1006,222.46210062916668,222.71522562916664,64.0,85.0
1007,221.71210062916668,222.79491312916667,45.0,84.0
1008,222.64960062916668,222.81210062916665,52.0,79.0
1009,222.83710062916668,223.02460062916668,62.0,80.0
1010,223.02460062916668,223.24803812916667,60.0,78.0
1011,223.21210062916668,223.40585062916665,59.0,81.0
1012,223.58710062916668,224.03866312916665,50.0,70.0
1013,223.96210062916668,224.06366312916668,59.0,77.0
1014,223.96210062916668,224.10272562916668,55.0,79.0
1015,223.21210062916668,224.20272562916665,43.0,84.0
1016,224.71210062916668,225.47772562916668,53.0,67.0
1017,224.71210062916668,225.49491312916666,57.0,72.0
1018,224.89960062916668,225.56678812916664,48.0,68.0
1019,224.71210062916668,225.74178812916665,41.0,79.0
1020,225.46210062916668,225.79022562916668,60.0,88.0
1021,226.21210062916668,226.41522562916668,57.0,77.0
1022,226.21210062916668,226.76053812916666,62.0,80.0
1023,226.58710062916668,226.78553812916664,57.0,74.0
1024,226.96210062916668,227.11053812916668,57.0,83.0
1025,226.21210062916668,227.22772562916668,50.0,86.0
1026,226.96210062916668,227.28085062916665,62.0,85.0
1027,227.33710062916668,227.41210062916667,57.0,65.0
1028,227.71210062916668,227.86522562916667,59.0,73.0
1029,227.71210062916668,227.88397562916668,55.0,78.0
1030,227.71210062916668,227.88397562916668,62.0,80.0
1031,228.08710062916668,228.33710062916668,62.0,86.0
1032,228.08710062916668,228.49022562916667,55.0,87.0
1033,228.46210062916668,228.68710062916665,50.0,85.0
1034,227.71210062916668,228.70741312916664,43.0,86.0
1035,228.64960062916668,228.83710062916668,55.0,84.0
1036,228.64960062916668,228.86366312916664,59.0,89.0
1037,228.64960062916668,228.87303812916667,62.0,88.0
1038,228.64960062916668,228.87616312916668,67.0,82.0
1039,229.02460062916668,229.10741312916667,55.0,80.0
1040,229.21210062916668,229.60272562916668,59.0,85.0
1041,229.21210062916668,229.61053812916668,55.0,84.0
1042,229.21210062916668,229.63710062916664,62.0,85.0
1043,229.77460062916668,229.87772562916666,55.0,82.0
1044,229.58710062916668,230.01678812916668,50.0,76.0
1045,229.96210062916668,230.16835062916664,59.0,93.0
1046,229.96210062916668,230.18553812916667,62.0,86.0
1047,229.96210062916668,230.18866312916668,55.0,85.0
1048,229.21210062916668,230.20428812916668,43.0,86.0
1049,230.14960062916668,230.26053812916666,50.0,91.0
1050,230.33710062916668,230.49803812916667,43.0,87.0
1051,230.71210062916668,231.05116312916664,57.0,79.0
1052,230.71210062916668,231.08397562916667,53.0,80.0
1053,231.08710062916668,231.51835062916666,48.0,73.0
1054,230.71210062916668,231.67772562916667,41.0,86.0
1055,231.46210062916668,231.69803812916666,53.0,85.0
1056,231.46210062916668,231.72460062916667,57.0,86.0
1057,231.46210062916668,231.74022562916667,60.0,85.0
1058,231.83710062916668,231.97147562916666,48.0,85.0
1059,232.02460062916668,232.15585062916665,53.0,76.0
1060,232.21210062916668,232.44647562916668,59.0,79.0
1061,232.58710062916668,232.70741312916664,52.0,80.0
1062,232.39960062916668,232.83241312916664,47.0,80.0
1063,232.77460062916668,233.00585062916667,52.0,79.0
1064,232.77460062916668,233.05585062916668,56.0,85.0
1065,232.21210062916668,233.07928812916668,40.0,88.0
1066,232.96210062916668,233.13710062916664,47.0,86.0
1067,232.77460062916668,233.31210062916665,59.0,85.0
1068,233.14960062916668,233.43866312916668,52.0,89.0
1069,233.33710062916668,233.45741312916664,56.0,82.0
1070,233.71210062916668,234.11522562916667,60.0,80.0
1071,233.71210062916668,234.14491312916664,57.0,77.0
1072,234.08710062916668,234.30741312916666,52.0,71.0
1073,234.27460062916668,234.47460062916667,57.0,86.0
1074,234.27460062916668,234.49491312916666,64.0,87.0
1075,234.46210062916668,234.72147562916666,52.0,80.0
1076,234.64960062916668,234.75897562916668,57.0,85.0
1077,234.64960062916668,234.88397562916668,60.0,88.0
1078,233.71210062916668,235.09491312916668,45.0,84.0
1079,234.83710062916668,235.12928812916664,52.0,82.0
1080,235.02460062916668,235.14022562916665,57.0,79.0
1081,235.21210062916668,235.58866312916666,55.0,81.0
1082,235.21210062916668,235.61991312916666,59.0,84.0
1083,235.58710062916668,235.97772562916668,50.0,73.0
1084,235.96210062916668,236.13553812916666,55.0,88.0
1085,235.96210062916668,236.17303812916668,59.0,95.0
1086,235.96210062916668,236.18553812916667,62.0,88.0
1087,235.21210062916668,236.22460062916667,43.0,85.0
1088,236.14960062916668,236.29335062916664,50.0,84.0
1089,236.33710062916668,236.51678812916668,55.0,88.0
1090,236.71210062916668,237.10272562916668,57.0,84.0
1091,236.71210062916668,237.14803812916665,53.0,81.0
1092,237.08710062916668,237.48866312916664,48.0,76.0
1093,237.46210062916668,237.61522562916667,53.0,88.0
1094,237.46210062916668,237.69647562916668,60.0,88.0
1095,236.71210062916668,237.77460062916668,41.0,85.0
1096,237.64960062916668,237.86053812916668,48.0,84.0
1097,237.83710062916668,238.09335062916665,53.0,85.0
1098,238.02460062916668,238.21991312916668,57.0,84.0
1099,238.39960062916668,238.82303812916666,50.0,76.0
1100,238.58710062916668,238.91053812916664,55.0,84.0
1101,238.77460062916668,238.97303812916664,59.0,90.0
1102,238.96210062916668,239.16210062916667,50.0,86.0
1103,238.21210062916668,239.18241312916666,43.0,85.0
1104,239.14960062916668,239.36991312916666,55.0,89.0
1105,239.14960062916668,239.40116312916666,59.0,90.0
1106,239.33710062916668,239.58397562916667,43.0,85.0
1107,239.52460062916668,239.63085062916667,55.0,86.0
1108,239.71210062916668,239.90741312916668,55.0,84.0
1109,239.89960062916668,239.90741312916668,55.0,82.0
1110,239.71210062916668,239.98710062916666,60.0,85.0
1111,239.71210062916668,240.32147562916668,48.0,91.0
1112,240.27460062916668,240.32147562916668,48.0,86.0
1113,240.27460062916668,240.48553812916668,55.0,90.0
1114,240.27460062916668,240.50585062916667,60.0,93.0
1115,240.27460062916668,240.50741312916665,64.0,93.0
1116,240.64960062916668,240.84803812916664,55.0,88.0
1117,240.64960062916668,240.88397562916668,60.0,91.0
1118,240.64960062916668,240.88553812916666,64.0,91.0
1119,240.83710062916668,241.03710062916667,48.0,85.0
1120,241.02460062916668,241.12460062916665,55.0,85.0
1121,241.21210062916668,241.42460062916666,55.0,85.0
1122,241.21210062916668,241.66366312916665,62.0,85.0
1123,241.58710062916668,241.70116312916667,55.0,76.0
1124,241.21210062916668,241.90272562916664,48.0,89.0
1125,241.77460062916668,242.00741312916665,55.0,86.0
1126,241.77460062916668,242.02147562916667,60.0,85.0
1127,241.96210062916668,242.20741312916664,48.0,85.0
1128,242.14960062916668,242.28710062916667,55.0,90.0
1129,242.14960062916668,242.34491312916668,60.0,89.0
1130,242.71210062916668,242.89803812916665,59.0,84.0
1131,242.71210062916668,242.95116312916667,62.0,85.0
1132,243.08710062916668,243.20272562916665,59.0,86.0
1133,242.89960062916668,243.33553812916665,53.0,78.0
1134,243.27460062916668,243.58241312916664,65.0,95.0
1135,242.71210062916668,243.59803812916664,47.0,87.0
1136,243.46210062916668,243.61835062916668,53.0,85.0
1137,243.64960062916668,243.81835062916667,62.0,91.0
1138,243.83710062916668,244.08241312916664,59.0,84.0
1139,244.02460062916668,244.13397562916668,62.0,81.0
1140,244.21210062916668,244.50428812916664,64.0,85.0
1141,244.58710062916668,244.68085062916668,59.0,80.0
1142,244.39960062916668,244.83397562916667,47.0,78.0
1143,244.77460062916668,244.91210062916667,64.0,90.0
1144,244.77460062916668,244.95272562916665,59.0,85.0
1145,245.14960062916668,245.29960062916666,68.0,95.0
1146,244.96210062916668,245.34491312916668,47.0,77.0
1147,244.21210062916668,245.39960062916668,40.0,86.0
1148,245.14960062916668,245.49335062916668,59.0,85.0
1149,245.71210062916668,246.09491312916668,69.0,86.0
1150,246.08710062916668,246.31991312916665,52.0,78.0
1151,246.27460062916668,246.54178812916666,64.0,88.0
1152,246.27460062916668,246.59178812916667,72.0,88.0
1153,246.46210062916668,246.68397562916664,52.0,84.0
1154,245.71210062916668,246.73085062916664,45.0,81.0
1155,246.64960062916668,246.82147562916668,64.0,86.0
1156,246.64960062916668,246.90585062916665,69.0,85.0
1157,246.83710062916668,247.00116312916668,45.0,82.0
1158,247.02460062916668,247.11522562916667,64.0,86.0
1159,247.21210062916668,247.26991312916664,62.0,65.0
1160,247.21210062916668,247.62772562916666,67.0,84.0
1161,247.58710062916668,247.81991312916665,50.0,80.0
1162,247.77460062916668,248.04022562916668,62.0,85.0
1163,247.77460062916668,248.05897562916664,67.0,79.0
1164,247.77460062916668,248.07147562916668,71.0,84.0
1165,247.96210062916668,248.19647562916668,50.0,84.0
1166,247.21210062916668,248.20272562916665,43.0,81.0
1167,248.14960062916668,248.28241312916668,62.0,84.0
1168,248.14960062916668,248.40741312916668,67.0,84.0
1169,248.33710062916668,248.48553812916668,62.0,78.0
1170,248.33710062916668,248.50741312916665,43.0,84.0
1171,248.71210062916668,249.06210062916665,60.0,84.0
1172,248.71210062916668,249.09960062916667,65.0,79.0
1173,249.08710062916668,249.31210062916665,48.0,71.0
1174,249.27460062916668,249.47303812916664,60.0,89.0
1175,249.27460062916668,249.54178812916666,69.0,84.0
1176,248.71210062916668,249.72147562916666,41.0,84.0
1177,249.46210062916668,249.74022562916667,48.0,77.0
1178,249.64960062916668,249.85272562916668,65.0,86.0
1179,249.83710062916668,249.97928812916666,60.0,74.0
1180,250.21210062916668,250.50116312916668,67.0,77.0
1181,250.96210062916668,251.19335062916667,55.0,81.0
1182,250.96210062916668,251.23085062916664,59.0,81.0
1183,251.33710062916668,251.38085062916667,59.0,57.0
1184,251.33710062916668,251.70897562916667,62.0,79.0
1185,251.71210062916668,252.04178812916666,67.0,79.0
1186,252.08710062916668,252.35428812916666,55.0,66.0
1187,252.46210062916668,252.84803812916664,59.0,73.0
1188,252.46210062916668,254.05741312916666,62.0,68.0
1189,250.58710062916668,254.25428812916664,50.0,75.0
1190,250.21210062916668,254.28866312916665,43.0,84.0
1191,255.46210062916668,255.93241312916666,60.0,85.0
1192,254.71210062916668,256.07772562916665,48.0,85.0
1193,255.83710062916668,256.64491312916664,64.0,79.0
1194,256.5871006291667,257.04178812916666,59.0,76.0
1195,256.9621006291667,257.1183506291667,62.0,75.0
1196,255.08710062916668,257.15116312916666,55.0,72.0
1197,256.2121006291667,257.28397562916666,47.0,74.0
1198,257.7121006291667,258.14803812916665,60.0,71.0
1199,258.4621006291667,259.0058506291667,60.0,77.0
1200,258.4621006291667,259.0527256291667,64.0,77.0
1201,258.8371006291667,259.1577189541667,57.0,64.0
1202,259.2126122979167,259.66605069583323,60.0,66.0
1203,259.59005329583323,259.7657972833332,57.0,61.0
1204,259.9700402958332,260.17716942916655,55.0,77.0
1205,258.0871006291667,260.4441130145832,52.0,58.0
1206,257.7121006291667,260.5623993937499,45.0,71.0
1207,259.9700402958332,260.6471180166665,60.0,75.0
1208,260.3530005333332,260.6966704187499,55.0,80.0
1209,260.7366320333332,261.52384379791664,65.0,76.0
1210,261.12161949374996,261.5858541770833,57.0,78.0
1211,261.51078898124996,261.9497571916666,62.0,86.0
1212,260.7366320333332,262.1211016604166,50.0,84.0
1213,261.90243348124994,262.48990023125,57.0,85.0
1214,263.07736698124995,263.44779740416664,62.0,78.0
1215,263.07736698124995,263.503280375,55.0,77.0
1216,262.68572248124997,263.5701863104166,50.0,74.0
1217,262.29407798125,263.6566744708333,43.0,84.0
1218,263.86065598125,264.4105901333333,60.0,79.0
1219,264.25230048124996,264.65863164999996,55.0,77.0
1220,263.86065598125,265.21182950624996,48.0,76.0
1221,264.64394498124994,265.2575213645833,65.0,79.0
1222,265.03558948125,265.5137221416666,55.0,72.0
1223,265.42723398124997,265.94453109166665,60.0,71.0
1224,265.42723398124997,266.244791875,64.0,76.0
1225,265.42723398124997,266.7180289791666,48.0,80.0
