,start,end,pitch,velocity
0,18.308804000000002,18.522039066666668,72.0,63.0
1,18.74998,19.18380306666667,72.0,70.0
2,19.191156000000003,19.62497906666667,72.0,59.0
3,19.632332,20.066155066666667,72.0,60.0
4,20.073508,20.50733106666667,76.0,67.0
5,20.514684000000003,20.948507066666668,77.0,75.0
6,20.95586,21.83085906666667,72.0,59.0
7,24.485268,24.698503066666667,67.0,61.0
8,21.838212000000002,24.698503066666667,70.0,60.0
9,24.705856,24.91909106666667,69.0,67.0
10,24.926444000000004,26.46320706666667,70.0,67.0
11,26.691148000000002,27.124971066666667,70.0,66.0
12,27.132324,27.56614706666667,72.0,59.0
13,27.573500000000003,28.007323066666668,67.0,56.0
14,28.014676,28.88967506666667,70.0,66.0
15,28.897028000000002,32.419083066666666,69.0,64.0
16,32.426436,32.86025906666667,69.0,63.0
17,32.867612,33.30143506666667,69.0,72.0
18,33.308788,33.74261106666667,74.0,72.0
19,33.749964000000006,34.18378706666667,74.0,70.0
20,34.191140000000004,34.624963066666666,76.0,66.0
21,34.632316,35.06613906666667,76.0,64.0
22,35.073492,35.50731506666667,77.0,62.0
23,35.514668,36.38966706666667,69.0,68.0
24,36.397020000000005,38.59554706666667,67.0,73.0
25,38.602900000000005,39.03672306666667,65.0,53.0
26,39.044076000000004,39.47789906666667,69.0,66.0
27,39.485252,39.91907506666667,67.0,61.0
28,39.926428,40.36025106666667,67.0,60.0
29,40.367604,40.80142706666667,65.0,59.0
30,40.808780000000006,42.12495506666667,67.0,61.0
31,42.132308,42.56613106666667,65.0,58.0
32,42.573484,43.00730706666667,69.0,67.0
33,43.014660000000006,43.44848306666667,67.0,56.0
34,43.455836000000005,43.88965906666667,67.0,67.0
35,43.897012000000004,44.33083506666667,65.0,63.0
36,44.338188,46.53671506666667,72.0,69.0
37,46.544068,46.97789106666667,72.0,63.0
38,46.985244,47.41906706666667,72.0,70.0
39,47.42642,47.86024306666667,72.0,59.0
40,47.867596000000006,48.30141906666667,72.0,60.0
41,48.308772000000005,48.742595066666674,76.0,67.0
42,48.749948,49.18377106666667,77.0,75.0
43,49.191124,50.06612306666667,72.0,59.0
44,52.720532000000006,52.93376706666667,67.0,61.0
45,50.07347600000001,52.93376706666667,70.0,75.0
46,52.941120000000005,53.15435506666667,69.0,67.0
47,53.161708000000004,54.69847106666667,70.0,67.0
48,54.926412000000006,55.36023506666667,70.0,62.0
49,55.367588000000005,55.801411066666674,72.0,59.0
50,55.808764000000004,56.24258706666667,67.0,56.0
51,56.24994,60.65434706666667,69.0,62.0
52,60.6617,61.09552306666667,69.0,68.0
53,61.102876,61.53669906666667,69.0,72.0
54,61.54405200000001,61.97787506666667,74.0,72.0
55,61.985228000000006,62.41905106666667,74.0,70.0
56,62.426404000000005,62.860227066666674,76.0,66.0
57,62.867580000000004,63.30140306666667,76.0,64.0
58,63.308756,63.74257906666667,77.0,62.0
59,63.74993200000001,64.62493106666668,81.0,68.0
60,64.632284,65.50728306666667,79.0,73.0
61,65.51463600000001,66.83081106666667,74.0,73.0
62,66.838164,67.27198706666667,77.0,76.0
63,67.27934,68.15433906666667,81.0,67.0
64,68.161692,69.03669106666668,79.0,60.0
65,69.044044,70.36021906666667,73.0,72.0
66,70.36757200000001,70.80139506666667,77.0,75.0
67,70.80874800000001,74.33080306666668,79.0,67.0
68,74.33815600000001,74.77197906666667,69.0,57.0
69,74.77933200000001,75.21315506666667,72.0,66.0
70,75.22050800000001,75.65433106666667,76.0,78.0
71,75.66168400000001,76.09550706666667,77.0,74.0
72,76.10286,77.41903506666667,79.0,55.0
73,77.426388,77.86021106666668,81.0,64.0
74,77.867564,79.18373906666667,81.0,75.0
75,79.19109200000001,79.62491506666667,77.0,73.0
76,79.63226800000001,80.94844306666667,79.0,73.0
77,80.955796,81.38961906666667,81.0,75.0
78,81.396972,82.71314706666668,81.0,78.0
79,82.7205,83.15432306666668,84.0,67.0
80,83.161676,83.59549906666668,84.0,72.0
81,83.60285200000001,84.03667506666667,82.0,65.0
82,84.04402800000001,84.47785106666667,81.0,71.0
83,84.48520400000001,84.91902706666667,77.0,69.0
84,84.92638000000001,85.36020306666667,77.0,76.0
85,85.36755600000001,85.80137906666667,79.0,73.0
86,85.808732,86.02196706666668,79.0,76.0
87,86.02932000000001,86.24255506666667,81.0,76.0
88,86.249908,86.68373106666667,82.0,76.0
89,86.691084,87.64696533333334,79.0,76.0
90,87.573436,88.00725906666668,81.0,76.0
91,88.014612,88.45578800000001,79.0,76.0
92,88.45578800000001,88.88961106666667,69.0,57.0
93,88.89696400000001,89.33078706666667,72.0,66.0
94,89.33814000000001,89.77196306666667,76.0,78.0
95,89.77931600000001,90.21313906666667,77.0,77.0
96,90.22049200000001,91.53666706666668,79.0,55.0
97,91.54402,91.97784306666668,81.0,64.0
98,91.985196,93.30137106666668,81.0,75.0
99,93.30872400000001,93.74254706666667,77.0,73.0
100,93.74990000000001,95.06607506666667,79.0,73.0
101,95.073428,95.50725106666667,84.0,75.0
102,95.514604,96.83077906666668,81.0,78.0
103,96.838132,97.27195506666668,84.0,67.0
104,97.279308,97.71313106666668,84.0,72.0
105,97.72048400000001,98.15430706666668,82.0,65.0
106,98.16166000000001,98.59548306666667,81.0,71.0
107,98.60283600000001,99.03665906666667,77.0,69.0
108,99.04401200000001,99.47783506666667,84.0,76.0
109,99.926364,100.4668046,82.0,64.0
110,100.808716,101.22415673333334,81.0,82.0
111,101.249892,101.61202396666667,79.0,73.0
112,101.691068,102.13040576666667,77.0,72.0
113,102.13224400000001,102.67084636666668,76.0,73.0
114,102.57342000000001,103.5384925,79.0,76.0
115,103.45577200000001,104.00908023333334,77.0,73.0
116,117.13222800000001,117.56605106666667,72.0,63.0
117,117.57340400000001,118.00722706666667,72.0,70.0
118,118.01458000000001,118.44840306666667,72.0,59.0
119,118.45575600000001,118.88957906666667,72.0,60.0
120,118.896932,119.33075506666668,76.0,67.0
121,119.338108,119.77193106666668,77.0,75.0
122,119.779284,120.65428306666668,72.0,59.0
123,123.30869200000001,123.52192706666668,67.0,61.0
124,120.66163600000002,123.52192706666668,70.0,68.0
125,123.52928000000001,123.74251506666667,69.0,67.0
126,123.749868,125.28663106666667,70.0,67.0
127,125.51457200000002,125.94839506666668,70.0,62.0
128,125.95574800000001,126.38957106666668,72.0,59.0
129,126.39692400000001,126.83074706666667,67.0,56.0
130,126.83810000000001,131.2425070666667,69.0,62.0
131,131.24986,131.68368306666667,69.0,68.0
132,131.691036,132.1248590666667,69.0,72.0
133,132.132212,132.56603506666667,74.0,72.0
134,132.57338800000002,133.00721106666668,74.0,70.0
135,133.014564,133.44838706666667,76.0,66.0
136,133.45574000000002,133.88956306666668,76.0,64.0
137,133.896916,134.33073906666667,77.0,62.0
138,134.33809200000002,135.21309106666666,81.0,68.0
139,135.22044400000001,136.0954430666667,79.0,73.0
140,136.102796,137.41897106666667,74.0,73.0
141,137.42632400000002,137.86014706666668,77.0,76.0
142,137.8675,138.74249906666668,81.0,67.0
143,138.749852,139.62485106666668,79.0,60.0
144,139.632204,140.9483790666667,73.0,72.0
145,140.955732,141.38955506666667,77.0,75.0
146,141.39690800000002,144.9189630666667,79.0,67.0
147,144.926316,145.3619773,69.0,57.0
148,145.36933023333336,145.80315330000002,72.0,66.0
149,145.81050623333334,146.2443293,76.0,78.0
150,146.25168223333336,146.68550530000002,77.0,74.0
151,146.69285823333334,148.0090333,79.0,55.0
152,148.01638623333335,148.4502093,81.0,64.0
153,148.45756223333333,149.77373730000002,81.0,75.0
154,149.78109023333334,150.2149133,77.0,73.0
155,150.22226623333336,151.53844130000002,79.0,73.0
156,151.54579423333334,151.9796173,81.0,75.0
157,151.98697023333335,153.3031453,81.0,78.0
158,153.31049823333333,153.74432130000002,84.0,67.0
159,153.75167423333335,154.1854973,84.0,72.0
160,154.19285023333333,154.62667330000002,82.0,65.0
161,154.63402623333334,155.0678493,81.0,71.0
162,155.07520223333336,155.50902530000002,77.0,69.0
163,155.51637823333334,155.9502013,77.0,76.0
164,155.95755423333335,156.39137730000002,79.0,73.0
165,156.39873023333334,156.6119653,79.0,76.0
166,156.61931823333333,156.8325533,81.0,76.0
167,156.83990623333335,157.2737293,82.0,76.0
168,157.28108223333334,159.0384333,79.0,76.0
169,159.04578623333336,159.47960930000002,69.0,57.0
170,159.48696223333334,159.9207853,72.0,66.0
171,159.92813823333336,160.36196130000002,76.0,78.0
172,160.36931423333334,160.8031373,77.0,77.0
173,160.81049023333335,162.1266653,79.0,55.0
174,162.13401823333334,162.56784130000003,81.0,64.0
175,162.57519423333335,163.8913693,81.0,75.0
176,163.89872223333336,164.33254530000002,77.0,73.0
177,164.33989823333334,165.6560733,79.0,73.0
178,165.66342623333335,166.09724930000002,84.0,75.0
179,166.10460223333334,167.42077730000003,81.0,78.0
180,167.42813023333335,167.8619533,84.0,67.0
181,167.86930623333333,168.30312930000002,84.0,72.0
182,168.31048223333335,168.7443053,82.0,65.0
183,168.75165823333336,169.18548130000002,81.0,71.0
184,169.19283423333334,169.6266573,77.0,69.0
185,169.63401023333336,170.06783330000002,84.0,76.0
186,170.51636223333335,171.0549646,82.0,64.0
187,171.39687600000002,171.81231673333335,81.0,82.0
188,171.838052,172.20018396666669,79.0,73.0
189,172.27922800000002,172.71856576666667,77.0,72.0
190,172.720404,173.25900636666668,76.0,73.0
191,173.16158000000001,174.1266525,79.0,76.0
192,174.043932,174.59724023333334,77.0,73.0
193,177.13216400000002,177.28657560000002,77.0,56.0
194,177.352752,177.5384135666667,76.0,59.0
195,177.57334,177.83988383333335,77.0,62.0
196,178.01451600000001,178.22775106666668,77.0,50.0
197,178.235104,178.4373096666667,76.0,44.0
198,178.45569200000003,178.6909858666667,77.0,59.0
199,178.896868,179.1211324666667,77.0,55.0
200,179.117456,179.42995566666667,76.0,58.0
201,179.33804400000002,179.6027496,77.0,61.0
202,179.55863200000002,179.78289646666667,79.0,57.0
203,179.77922,180.2093666,81.0,61.0
204,180.661572,180.8545865,77.0,59.0
205,180.88216000000003,181.13767443333336,76.0,59.0
206,181.10274800000002,181.30495366666668,77.0,63.0
207,181.543924,181.75164436666668,77.0,57.0
208,181.76451200000002,182.04024700000002,76.0,57.0
209,181.98510000000002,182.2534820666667,77.0,67.0
210,182.205688,182.2534820666667,77.0,43.0
211,182.426276,182.60826110000002,77.0,64.0
212,182.64686400000002,182.93914310000002,76.0,60.0
213,182.86745200000001,183.06781943333334,77.0,62.0
214,183.08804,183.32149563333334,79.0,61.0
215,183.30862800000003,183.7424510666667,81.0,76.0
216,184.19098000000002,184.40237683333334,77.0,53.0
217,184.41156800000002,184.66156773333336,76.0,54.0
218,184.632156,184.90605276666668,77.0,67.0
219,185.07333200000002,185.24980240000002,77.0,53.0
220,185.29392,185.46855216666668,76.0,49.0
221,185.514508,185.74428716666668,77.0,61.0
222,185.95568400000002,186.29575716666668,76.0,60.0
223,186.39686,186.82333013333334,74.0,64.0
224,186.83803600000002,187.24244733333336,76.0,61.0
225,187.279212,188.0181818,74.0,63.0
226,187.940976,188.23693156666667,72.0,57.0
227,191.249796,191.4593546,77.0,59.0
228,191.47038400000002,191.66891320000002,76.0,47.0
229,191.69097200000002,191.9942805,77.0,62.0
230,192.132148,192.36928010000003,77.0,53.0
231,192.35273600000002,192.60825043333335,76.0,49.0
232,192.573324,192.84354430000002,77.0,61.0
233,193.01450000000003,193.2497938666667,77.0,48.0
234,193.23508800000002,193.48876420000002,76.0,48.0
235,193.455676,193.68177870000002,77.0,55.0
236,193.676264,193.88214613333335,79.0,46.0
237,193.89685200000002,194.47038080000002,81.0,63.0
238,194.77920400000002,194.95935086666668,77.0,58.0
239,194.999792,195.20015943333334,76.0,63.0
240,195.22038,195.48692383333335,77.0,70.0
241,195.66155600000002,195.76449706666668,77.0,58.0
242,195.882144,196.00530563333334,77.0,64.0
243,196.102732,196.51633450000003,84.0,58.0
244,196.54390800000002,196.6431726,84.0,69.0
245,196.764496,196.87111353333336,84.0,72.0
246,196.98508400000003,197.23140726666668,84.0,64.0
247,197.20567200000002,197.50162756666668,77.0,57.0
248,197.42626,197.50162756666668,77.0,67.0
249,197.86743600000003,198.3306708,74.0,69.0
250,198.308612,198.80309676666667,76.0,69.0
251,198.74978800000002,199.2001551666667,77.0,66.0
252,199.190964,199.67258113333335,79.0,61.0
253,199.63214000000002,200.2755216666667,81.0,67.0
254,200.51449200000002,201.02552086666668,82.0,56.0
255,202.72037200000003,202.91890120000002,77.0,55.0
256,201.17625600000002,202.9464747,79.0,67.0
257,202.94096000000002,202.9464747,79.0,64.0
258,203.161548,204.36926730000002,80.0,69.0
259,204.926252,205.36191330000003,70.0,57.0
260,205.36926623333335,205.8030893,73.0,66.0
261,205.81044223333336,206.24426530000002,77.0,78.0
262,206.25161823333335,206.6854413,78.0,74.0
263,206.69279423333336,208.00896930000002,80.0,55.0
264,208.01632223333334,208.4501453,82.0,64.0
265,208.45749823333335,209.7736733,82.0,75.0
266,209.78102623333334,210.21484930000003,78.0,73.0
267,210.22220223333335,211.5383773,80.0,73.0
268,211.54573023333336,211.97955330000002,82.0,75.0
269,211.98690623333334,213.3030813,82.0,78.0
270,213.31043423333335,213.74425730000002,85.0,67.0
271,213.75161023333334,214.18543330000003,85.0,72.0
272,214.19278623333335,214.6266093,83.0,65.0
273,214.63396223333336,215.06778530000003,82.0,71.0
274,215.07513823333335,215.5089613,78.0,69.0
275,215.51631423333336,215.95013730000002,78.0,76.0
276,215.95749023333335,216.3913133,80.0,73.0
277,216.39866623333336,216.61190130000003,80.0,76.0
278,216.61925423333335,216.83248930000002,82.0,76.0
279,216.83984223333334,217.2736653,83.0,76.0
280,217.28101823333336,219.03836930000003,80.0,76.0
281,219.04572223333335,219.4795453,70.0,57.0
282,219.48689823333336,219.92072130000003,73.0,66.0
283,219.92807423333335,220.3618973,77.0,78.0
284,220.36925023333336,220.80307330000002,78.0,77.0
285,220.81042623333335,222.1266013,80.0,55.0
286,222.13395423333336,222.56777730000002,82.0,64.0
287,222.57513023333334,223.89130530000003,82.0,75.0
288,223.89865823333335,224.3324813,78.0,73.0
289,224.33983423333336,225.65600930000002,80.0,73.0
290,225.66336223333334,226.0971853,85.0,75.0
291,226.10453823333336,227.42071330000002,82.0,78.0
292,227.42806623333334,227.86188930000003,85.0,67.0
293,227.86924223333335,228.30306530000001,85.0,72.0
294,228.31041823333334,228.74424130000003,83.0,65.0
295,228.75159423333335,229.1854173,82.0,71.0
296,229.19277023333336,229.62659330000002,78.0,69.0
297,229.63394623333335,230.0677693,85.0,76.0
298,230.51629823333334,231.05490060000002,83.0,64.0
299,231.396812,231.81225273333334,82.0,82.0
300,231.83798800000002,232.20011996666668,80.0,73.0
301,232.279164,232.7185017666667,78.0,72.0
302,236.69092400000002,237.22952636666668,77.0,73.0
303,237.57327600000002,238.12658423333335,78.0,73.0
