,start,end,pitch,velocity
0,3.7499960000000003,4.1746279,69.0,49.0
1,4.191172,4.617642133333334,60.0,41.0
2,3.7499960000000003,4.6378627,53.0,58.0
3,4.191172,4.652568566666667,72.0,51.0
4,4.632348,5.038597566666667,76.0,51.0
5,4.632348,5.124994533333334,64.0,44.0
6,5.073524000000001,6.051464133333334,77.0,52.0
7,6.397052,6.547787133333334,79.0,62.0
8,5.073524000000001,6.630507633333334,65.0,40.0
9,6.617640000000001,6.869477966666667,77.0,47.0
10,6.838228000000001,7.003669,76.0,53.0
11,7.058816,7.2628599000000005,72.0,55.0
12,7.279404,7.738962333333334,70.0,63.0
13,7.279404,7.915432733333334,53.0,60.0
14,7.720580000000001,8.055138466666667,72.0,67.0
15,7.720580000000001,8.123153100000001,62.0,53.0
16,8.161756,8.246314733333334,74.0,42.0
17,8.161756,8.840064100000001,69.0,49.0
18,8.602932000000001,9.411754666666667,81.0,73.0
19,8.602932000000001,9.9485188,70.0,40.0
20,10.808812000000001,11.240796833333334,69.0,75.0
21,11.249988,11.643369933333334,72.0,58.0
22,10.808812000000001,11.678296366666668,53.0,69.0
23,11.249988,11.6801346,60.0,59.0
24,11.691164,12.110281200000001,76.0,52.0
25,11.691164,12.189325233333335,64.0,41.0
26,12.132340000000001,13.0036626,77.0,60.0
27,12.132340000000001,13.413588633333335,65.0,52.0
28,13.455868,13.713220666666668,79.0,67.0
29,13.676456000000002,13.849249933333335,77.0,58.0
30,13.897044000000001,14.154396666666667,76.0,49.0
31,14.117632,14.389690533333335,72.0,49.0
32,14.779396000000002,15.040425133333335,72.0,64.0
33,14.338220000000002,15.051454533333334,70.0,80.0
34,14.338220000000002,15.1764544,53.0,69.0
35,14.779396000000002,15.1985132,62.0,44.0
36,15.220572,15.705865600000001,77.0,56.0
37,15.220572,15.735277333333334,65.0,48.0
38,15.661748000000001,16.571673500000003,67.0,59.0
39,15.661748000000001,16.612114633333334,79.0,76.0
40,17.867628,18.378656866666667,67.0,43.0
41,17.867628,18.400715666666667,65.0,50.0
42,17.867628,18.4080686,72.0,40.0
43,17.867628,18.4301274,60.0,46.0
44,17.867628,18.4411568,69.0,46.0
45,18.74998,19.159906033333336,67.0,37.0
46,18.74998,19.1856413,65.0,40.0
47,18.74998,19.194832466666668,72.0,35.0
48,18.74998,19.2077001,60.0,33.0
49,18.74998,19.286744133333336,69.0,34.0
50,19.632332,20.07166976666667,60.0,31.0
51,19.632332,20.07166976666667,65.0,36.0
52,19.632332,20.119463833333334,69.0,29.0
53,19.85292,20.18196376666667,72.0,19.0
54,20.514684000000003,20.78858076666667,60.0,45.0
55,20.514684000000003,20.81063956666667,72.0,43.0
56,17.867628,20.8124778,53.0,45.0
57,20.514684000000003,20.8124778,69.0,40.0
58,20.514684000000003,20.821668966666667,65.0,50.0
59,21.398874233333334,21.845564933333335,65.0,51.0
60,21.398874233333334,21.851079633333335,62.0,47.0
61,21.398874233333334,21.9319619,70.0,52.0
62,22.279388,22.60843176666667,72.0,22.0
63,22.279388,22.698505200000003,65.0,34.0
64,22.279388,22.755490433333335,62.0,31.0
65,22.279388,22.854755033333333,70.0,36.0
66,23.16174,23.56247486666667,72.0,36.0
67,23.16174,23.5808572,65.0,39.0
68,23.16174,23.60659246666667,62.0,32.0
69,23.16174,23.659901233333336,70.0,34.0
70,21.398874233333334,24.2922535,53.0,54.0
71,24.044092000000003,24.31798876666667,72.0,23.0
72,24.044092000000003,24.413576900000002,65.0,59.0
73,24.044092000000003,24.420929833333336,62.0,48.0
74,24.044092000000003,24.454018033333334,70.0,50.0
75,24.485268,24.917252833333336,53.0,51.0
76,24.926444000000004,25.39886996666667,62.0,55.0
77,24.926444000000004,25.42644346666667,65.0,49.0
78,24.926444000000004,25.49261986666667,58.0,61.0
79,25.808796,26.060633966666668,65.0,47.0
80,24.926444000000004,26.079016300000003,43.0,44.0
81,25.808796,26.113942733333335,62.0,55.0
82,25.808796,26.15438386666667,58.0,49.0
83,24.926444000000004,26.15989856666667,55.0,43.0
84,26.691148000000002,27.134162233333335,60.0,57.0
85,26.691148000000002,27.178279833333335,67.0,46.0
86,26.691148000000002,27.1929857,55.0,45.0
87,26.691148000000002,27.1929857,64.0,49.0
88,27.573500000000003,27.93011726666667,58.0,59.0
89,27.573500000000003,27.9484996,55.0,45.0
90,27.573500000000003,27.955852533333335,64.0,47.0
91,26.691148000000002,27.972396633333336,48.0,58.0
92,28.455852000000004,28.9246015,65.0,57.0
93,28.455852000000004,28.931954433333335,60.0,59.0
94,28.455852000000004,28.939307366666668,57.0,49.0
95,28.455852000000004,29.387836300000004,53.0,52.0
96,29.338204,29.69482126666667,60.0,61.0
97,29.338204,29.724233,57.0,49.0
98,29.338204,29.724233,65.0,49.0
99,29.779380000000003,30.47239396666667,53.0,30.0
100,30.220556000000002,30.64334966666667,60.0,59.0
101,30.220556000000002,30.661732,65.0,47.0
102,30.220556000000002,30.692981966666668,57.0,44.0
103,30.661732,31.323496000000002,53.0,33.0
104,28.455852000000004,31.345554800000002,41.0,46.0
105,31.102908000000003,31.3951871,65.0,59.0
106,31.102908000000003,31.41540766666667,57.0,54.0
107,31.102908000000003,31.4172459,60.0,67.0
108,31.544084,31.95584826666667,64.0,52.0
109,31.985260000000004,32.49628886666667,60.0,67.0
110,31.985260000000004,32.510994733333334,57.0,49.0
111,31.985260000000004,32.51283296666667,65.0,66.0
112,32.867612,33.27202333333334,60.0,48.0
113,32.867612,33.288567433333334,57.0,42.0
114,32.867612,33.3473909,65.0,45.0
115,33.749964000000006,34.12864006666667,60.0,45.0
116,33.749964000000006,34.150698866666666,57.0,36.0
117,33.749964000000006,34.15621356666667,65.0,40.0
118,31.985260000000004,34.84555106666667,38.0,35.0
119,31.985260000000004,34.94297743333333,50.0,45.0
120,34.632316,34.96687446666667,65.0,61.0
121,34.632316,34.97790386666667,60.0,70.0
122,34.632316,34.99996266666667,57.0,61.0
123,35.514668,35.95768223333334,69.0,47.0
124,35.514668,36.02937333333334,65.0,51.0
125,35.514668,36.15253496666667,62.0,41.0
126,35.514668,38.211356300000006,59.0,46.0
127,35.514668,38.3161356,47.0,45.0
128,38.161724,38.5808412,67.0,59.0
129,39.044076000000004,39.49811963333334,65.0,44.0
130,39.044076000000004,39.50363433333334,58.0,54.0
131,38.602900000000005,39.52753136666667,62.0,73.0
132,39.926428,40.39885396666667,62.0,44.0
133,39.926428,40.4117216,58.0,38.0
134,39.926428,40.523853833333334,65.0,35.0
135,40.808780000000006,41.205838400000005,62.0,45.0
136,40.808780000000006,41.25914716666667,65.0,36.0
137,40.808780000000006,41.31245593333334,58.0,46.0
138,41.691132,41.90988176666667,65.0,63.0
139,41.691132,41.952161133333334,58.0,72.0
140,41.691132,41.96319053333334,62.0,69.0
141,39.044076000000004,41.97054346666667,43.0,52.0
142,42.573484,43.01282176666667,64.0,54.0
143,42.573484,43.0422335,60.0,55.0
144,42.573484,43.102895200000006,55.0,48.0
145,42.573484,43.595541733333334,48.0,41.0
146,43.455836000000005,43.6874534,55.0,58.0
147,43.455836000000005,43.7370857,60.0,64.0
148,43.455836000000005,43.7426004,64.0,62.0
149,42.573484,43.924585500000006,36.0,48.0
150,43.897012000000004,43.981570733333335,48.0,42.0
151,44.338188,45.50546616666667,65.0,61.0
152,44.338188,45.51098086666667,61.0,72.0
153,44.338188,45.52384850000001,36.0,62.0
154,44.338188,45.52384850000001,58.0,58.0
155,44.338188,45.56428963333334,48.0,48.0
156,46.102892000000004,46.56428856666667,69.0,54.0
157,46.102892000000004,46.57531796666667,60.0,55.0
158,46.102892000000004,46.584509133333334,65.0,58.0
159,46.985244,47.4098759,67.0,48.0
160,46.985244,47.431934700000006,65.0,47.0
161,46.985244,47.43561116666667,69.0,46.0
162,46.985244,47.442964100000005,60.0,46.0
163,46.102892000000004,48.049581100000005,53.0,48.0
164,47.867596000000006,48.2922279,67.0,48.0
165,47.867596000000006,48.308772000000005,69.0,47.0
166,47.867596000000006,48.32899256666667,65.0,45.0
167,47.867596000000006,48.341860200000006,60.0,44.0
168,48.308772000000005,48.832668500000004,53.0,29.0
169,48.751786233333334,49.086344700000005,60.0,58.0
170,48.751786233333334,49.10472703333334,65.0,59.0
171,48.751786233333334,49.10656526666667,69.0,59.0
172,46.102892000000004,49.16538873333334,41.0,48.0
173,49.191124,49.314285633333334,53.0,52.0
174,49.6323,50.161711200000006,65.0,67.0
175,49.6323,50.1947994,62.0,56.0
176,49.6323,50.20399056666667,70.0,64.0
177,50.514652000000005,50.8841369,65.0,43.0
178,50.514652000000005,50.913548633333335,62.0,39.0
179,50.514652000000005,50.92641626666667,70.0,48.0
180,49.6323,51.58266556666667,53.0,56.0
181,51.397004,51.817959433333336,65.0,37.0
182,51.397004,51.83818,62.0,35.0
183,51.397004,51.91906226666667,70.0,43.0
184,51.83818,52.3455324,53.0,23.0
185,52.27935600000001,52.53670866666667,62.0,62.0
186,52.27935600000001,52.54038513333334,67.0,69.0
187,49.6323,52.681929100000005,41.0,43.0
188,52.499944000000006,52.687443800000004,53.0,45.0
189,53.161708000000004,53.77200146666667,60.0,57.0
190,53.161708000000004,53.7848691,65.0,61.0
191,54.04406,54.29589796666667,65.0,57.0
192,54.04406,54.31428030000001,60.0,48.0
193,54.48523600000001,55.0863383,55.0,44.0
194,54.926412000000006,55.23339696666667,60.0,49.0
195,54.926412000000006,55.237073433333336,64.0,63.0
196,55.367588000000005,55.57347013333334,62.0,47.0
197,55.367588000000005,55.70030823333334,65.0,54.0
198,53.161708000000004,55.847366900000004,48.0,41.0
199,55.808764000000004,55.86574923333334,64.0,59.0
200,55.808764000000004,55.91721976666667,67.0,60.0
201,56.691116,56.98155686666667,65.0,47.0
202,56.691116,56.99074803333334,69.0,46.0
203,56.691116,57.023836233333334,60.0,46.0
204,57.13229200000001,57.5458945,48.0,27.0
205,57.573468000000005,57.887805900000004,65.0,53.0
206,57.573468000000005,57.924570566666674,60.0,50.0
207,57.573468000000005,57.95765876666667,57.0,42.0
208,57.573468000000005,58.0201587,53.0,36.0
209,58.014644000000004,58.49258466666667,48.0,33.0
210,58.45582,58.755452033333334,60.0,39.0
211,58.45582,58.77383436666667,57.0,26.0
212,58.45582,58.78486376666667,65.0,45.0
213,56.691116,58.98155473333334,41.0,50.0
214,58.896996,59.317951433333334,48.0,36.0
215,59.33817200000001,59.698465733333336,55.0,67.0
216,59.33817200000001,59.702142200000004,40.0,61.0
217,59.33817200000001,59.7186863,64.0,70.0
218,59.779348000000006,59.915377266666674,67.0,63.0
219,60.220524000000005,60.63228826666667,65.0,67.0
220,60.220524000000005,60.63780296666667,60.0,53.0
221,60.220524000000005,60.69846466666667,57.0,44.0
222,60.6617,61.040376066666674,53.0,43.0
223,61.102876,61.19478766666667,69.0,67.0
224,61.54405200000001,61.87309576666667,77.0,49.0
225,61.985228000000006,62.22052186666667,76.0,53.0
226,61.985228000000006,62.23155126666667,67.0,49.0
227,61.985228000000006,62.52383036666667,62.0,38.0
228,62.867580000000004,63.02934453333334,69.0,72.0
229,62.867580000000004,63.06794743333334,65.0,62.0
230,62.867580000000004,63.078976833333336,62.0,45.0
231,60.220524000000005,63.2701531,50.0,41.0
232,63.74993200000001,64.17640213333334,69.0,52.0
233,63.74993200000001,64.22419620000001,62.0,53.0
234,63.74993200000001,64.25544616666667,65.0,60.0
235,64.632284,65.14882756666667,71.0,46.0
236,65.07346000000001,65.53485656666668,74.0,49.0
237,65.51463600000001,65.60470943333334,83.0,51.0
238,66.39698800000001,66.47235556666668,74.0,54.0
239,66.39698800000001,66.48154673333333,81.0,63.0
240,64.191108,66.70948766666667,59.0,33.0
241,63.74993200000001,66.8105905,47.0,51.0
242,67.27934,67.68558956666668,62.0,50.0
243,67.27934,67.7866924,65.0,40.0
244,67.27934,67.81242766666668,58.0,61.0
245,67.27934,68.25728013333334,55.0,35.0
246,68.161692,68.63963266666667,62.0,64.0
247,68.161692,68.65066206666667,65.0,62.0
248,68.161692,68.66352970000001,58.0,61.0
249,67.27934,69.0605881,43.0,46.0
250,68.602868,69.15617623333334,55.0,44.0
251,69.044044,69.56058756666667,65.0,59.0
252,69.044044,69.58264636666667,61.0,70.0
253,69.044044,69.6782345,58.0,56.0
254,69.92639600000001,70.06058703333333,65.0,60.0
255,69.92639600000001,70.15066046666668,61.0,70.0
256,69.92639600000001,70.16720456666667,58.0,59.0
257,69.044044,70.18926336666667,46.0,61.0
258,70.80874800000001,71.24808576666668,64.0,58.0
259,70.80874800000001,71.27014456666667,58.0,66.0
260,70.80874800000001,71.29036513333334,55.0,50.0
261,71.24992400000001,71.77565873333334,48.0,40.0
262,71.6911,72.04220256666667,58.0,62.0
263,71.6911,72.0550702,65.0,64.0
264,71.6911,72.07161430000001,55.0,56.0
265,70.80874800000001,72.11389366666667,36.0,61.0
266,72.132276,72.25727586666667,48.0,48.0
267,72.573452,72.82161350000001,55.0,48.0
268,72.573452,72.849187,60.0,66.0
269,72.573452,72.8767605,67.0,60.0
270,72.573452,72.93926043333335,36.0,70.0
271,73.014628,73.45948046666668,38.0,56.0
272,73.455804,73.5716127,69.0,66.0
273,73.455804,73.7701419,40.0,63.0
274,73.89698,74.0017593,70.0,64.0
275,74.33815600000001,74.84734663333334,60.0,67.0
276,74.33815600000001,74.9227142,57.0,61.0
277,74.33815600000001,74.94293476666667,65.0,66.0
278,74.33815600000001,75.39514016666668,53.0,49.0
279,75.22050800000001,75.5679341,65.0,67.0
280,74.33815600000001,75.62491933333334,41.0,53.0
281,75.22050800000001,75.62491933333334,57.0,63.0
282,75.22050800000001,75.6285958,60.0,75.0
283,75.66168400000001,76.11572763333334,53.0,57.0
284,76.10286,76.69844760000001,57.0,59.0
285,76.10286,76.71682993333334,61.0,72.0
286,76.10286,76.80506513333334,67.0,62.0
287,76.10286,77.31425576666668,45.0,64.0
288,76.985212,77.31977046666667,67.0,50.0
289,76.985212,77.37491746666667,61.0,67.0
290,76.985212,77.38962333333333,57.0,60.0
291,76.985212,77.42454976666667,64.0,69.0
292,77.867564,78.2094754,60.0,57.0
293,77.867564,78.28116650000001,65.0,67.0
294,77.867564,78.31241646666668,69.0,70.0
295,78.30874,78.67087196666667,67.0,62.0
296,78.749916,78.99991573333334,62.0,51.0
297,78.749916,79.00175396666667,65.0,50.0
298,78.30874,79.06609213333334,57.0,48.0
299,77.867564,79.08998916666667,50.0,61.0
300,78.749916,79.11756266666667,69.0,63.0
301,79.19109200000001,79.39329766666667,72.0,73.0
302,79.63226800000001,80.09917926666667,63.0,76.0
303,79.63226800000001,80.10469396666667,67.0,72.0
304,79.63226800000001,80.18189976666667,48.0,63.0
305,80.07344400000001,80.18741446666667,60.0,58.0
306,80.51462000000001,80.8234432,41.0,56.0
307,80.51462000000001,80.89513430000001,53.0,50.0
308,80.51462000000001,80.900649,63.0,70.0
309,80.51462000000001,80.90800193333334,69.0,63.0
310,80.51462000000001,80.9171931,60.0,58.0
311,81.396972,81.81608920000001,65.0,60.0
312,81.396972,81.8271186,62.0,49.0
313,81.396972,81.86755973333334,70.0,63.0
314,82.279324,82.53116196666667,58.0,49.0
315,82.279324,82.53851490000001,77.0,58.0
316,81.838148,82.56425016666667,53.0,36.0
317,82.49991200000001,82.64513243333334,76.0,66.0
318,81.396972,82.66719123333334,46.0,59.0
319,82.7205,82.86204396666668,72.0,48.0
320,82.94108800000001,83.09549960000001,67.0,53.0
321,83.161676,83.79402826666667,61.0,67.0
322,83.161676,83.81976353333334,65.0,67.0
323,83.161676,84.30873360000001,58.0,63.0
324,84.04586623333334,84.35468943333333,65.0,67.0
325,84.04586623333334,84.41535113333335,61.0,70.0
326,83.161676,84.42454230000001,46.0,64.0
327,84.92638000000001,85.51461466666667,62.0,66.0
328,84.92638000000001,85.52932053333333,58.0,66.0
329,84.92638000000001,85.57527636666667,65.0,44.0
330,84.92638000000001,85.9962318,55.0,52.0
331,84.92638000000001,86.01461413333334,43.0,58.0
332,85.808732,86.11755520000001,62.0,61.0
333,85.808732,86.12123166666667,65.0,66.0
334,85.808732,86.18005513333334,58.0,76.0
335,86.249908,86.33446673333334,43.0,59.0
336,86.691084,86.91351023333334,48.0,61.0
337,86.691084,87.0164513,64.0,75.0
338,86.691084,87.021966,55.0,67.0
339,86.691084,87.021966,58.0,80.0
340,87.13409823333333,87.67270060000001,48.0,46.0
341,87.57527423333335,87.75358286666668,55.0,73.0
342,87.57527423333335,87.76828873333334,58.0,88.0
343,87.57527423333335,87.82895043333335,65.0,76.0
344,86.691084,87.98520026666667,36.0,75.0
345,88.014612,88.12122953333333,48.0,91.0
346,88.45578800000001,88.8032141,53.0,62.0
347,88.45578800000001,88.82711113333335,57.0,69.0
348,88.45578800000001,88.82894936666668,60.0,75.0
349,88.45578800000001,88.85836110000001,65.0,70.0
350,89.117552,89.57894856666667,53.0,38.0
351,89.33814000000001,89.72968370000001,67.0,80.0
352,89.33814000000001,89.7351984,65.0,69.0
353,89.33814000000001,89.74255133333334,60.0,80.0
354,88.45578800000001,89.7848307,41.0,62.0
355,89.77931600000001,89.90431586666668,53.0,64.0
356,90.22049200000001,90.46497703333334,57.0,75.0
357,90.22049200000001,90.6120357,64.0,80.0
358,90.22049200000001,90.64328566666667,67.0,80.0
359,90.22049200000001,90.71865323333334,61.0,80.0
360,90.22049200000001,90.99255000000001,45.0,76.0
361,90.661668,91.09365283333334,57.0,40.0
362,91.102844,91.49622593333333,64.0,78.0
363,91.102844,91.51277003333334,49.0,70.0
364,91.102844,91.54769646666668,61.0,72.0
365,91.102844,91.60835816666668,72.0,62.0
366,91.985196,92.47784253333334,69.0,70.0
367,91.985196,92.6414453,60.0,72.0
368,91.985196,92.6800482,65.0,78.0
369,91.985196,92.95578320000001,57.0,73.0
370,92.86754800000001,93.11570950000001,60.0,72.0
371,92.86754800000001,93.13041536666667,65.0,75.0
372,92.86754800000001,93.14144476666668,69.0,72.0
373,91.985196,93.26092993333334,50.0,69.0
374,93.088136,93.2646064,57.0,54.0
375,93.30872400000001,93.46129736666667,67.0,63.0
376,93.529312,93.64328246666668,69.0,78.0
377,93.74990000000001,94.1083555,67.0,70.0
378,93.74990000000001,94.11203196666668,36.0,61.0
379,93.74990000000001,94.11570843333334,70.0,73.0
380,93.74990000000001,94.13409076666667,60.0,70.0
381,93.74990000000001,94.13409076666667,63.0,75.0
382,93.74990000000001,94.18004660000001,48.0,60.0
383,94.63409023333334,94.90431053333334,41.0,66.0
384,94.63409023333334,94.9300458,60.0,63.0
385,94.63409023333334,94.9410752,63.0,67.0
386,94.63409023333334,94.95210460000001,65.0,67.0
387,94.63409023333334,94.9576193,69.0,60.0
388,94.63409023333334,95.00541336666667,53.0,69.0
389,95.29401600000001,95.63960386666668,62.0,56.0
390,95.514604,95.79217723333333,65.0,72.0
391,95.514604,95.8013684,70.0,88.0
392,96.396956,96.60283813333334,70.0,63.0
393,96.396956,96.61938223333334,77.0,67.0
394,96.396956,96.66717630000001,58.0,58.0
395,95.95578,96.70394096666668,53.0,46.0
396,95.514604,96.81974966666668,46.0,75.0
397,96.838132,97.13960226666667,76.0,57.0
398,97.279308,97.81239566666667,70.0,72.0
399,97.279308,97.9796749,61.0,73.0
400,97.279308,97.99254253333334,58.0,69.0
401,97.72048400000001,98.03849836666667,67.0,53.0
402,98.16166000000001,98.29952750000001,65.0,78.0
403,98.16166000000001,98.3215863,61.0,72.0
404,98.16166000000001,98.35099803333334,58.0,64.0
405,97.941072,98.4208509,53.0,1.0
406,97.279308,98.43923323333334,46.0,70.0
407,99.04401200000001,99.36018813333334,62.0,72.0
408,99.04401200000001,99.36018813333334,65.0,72.0
409,99.04401200000001,99.37305576666668,58.0,67.0
410,99.48518800000001,100.02930506666668,55.0,40.0
411,99.04401200000001,100.11570203333333,43.0,69.0
412,99.926364,100.25724600000001,62.0,72.0
413,99.926364,100.28481950000001,65.0,78.0
414,99.926364,100.33077533333334,58.0,82.0
415,99.926364,100.34180473333335,57.0,75.0
416,100.36754,100.45026050000001,43.0,59.0
417,100.58812800000001,100.65246616666667,60.0,46.0
418,100.808716,101.00540696666667,48.0,72.0
419,100.808716,101.1120245,64.0,82.0
420,100.808716,101.12673036666668,55.0,60.0
421,100.808716,101.13224506666667,58.0,80.0
422,101.47048000000001,101.80320023333334,48.0,46.0
423,101.691068,101.9061413,65.0,58.0
424,101.691068,101.91900893333334,64.0,59.0
425,101.691068,102.03665586666668,55.0,57.0
426,101.691068,102.05871466666667,58.0,66.0
427,100.808716,102.15614103333334,36.0,70.0
428,102.13224400000001,102.25724386666667,48.0,56.0
429,102.57342000000001,103.01091953333334,69.0,66.0
430,102.57342000000001,103.01827246666667,60.0,67.0
431,102.57342000000001,103.0587136,65.0,70.0
432,102.57342000000001,103.34547800000001,41.0,64.0
433,103.01459600000001,103.4502573,48.0,52.0
434,103.45577200000001,103.84915393333334,70.0,85.0
435,103.45577200000001,103.8804039,62.0,50.0
436,103.45577200000001,104.00908023333334,53.0,39.0
437,103.89694800000001,104.1451095,72.0,70.0
438,103.89694800000001,104.31606520000001,55.0,57.0
439,104.33812400000001,104.80871173333334,60.0,67.0
440,104.33812400000001,104.89694693333334,69.0,72.0
441,104.55871200000001,105.45576986666667,55.0,20.0
442,105.44106400000001,105.59179913333334,72.0,55.0
443,105.661652,105.79216656666668,77.0,70.0
444,105.88224000000001,106.08996036666667,79.0,66.0
445,106.102828,106.65245976666668,72.0,61.0
446,106.102828,106.83444486666667,81.0,60.0
447,106.102828,107.29216496666668,53.0,56.0
448,106.98518000000001,107.36937076666668,77.0,61.0
449,106.98518000000001,107.4429001,65.0,40.0
450,107.42635600000001,107.80503206666667,81.0,58.0
451,106.544004,107.8344438,60.0,43.0
452,107.86753200000001,108.3803991,74.0,53.0
453,107.86753200000001,108.38959026666667,82.0,69.0
454,108.30870800000001,108.7829722,81.0,42.0
455,107.86753200000001,109.025619,55.0,38.0
456,108.74988400000001,109.02745723333334,67.0,35.0
457,108.74988400000001,109.09914833333335,77.0,35.0
458,108.30870800000001,109.12856006666668,62.0,37.0
459,109.632236,110.04400026666667,84.0,48.0
460,109.19106000000001,110.11569136666668,72.0,44.0
461,110.514588,111.13591086666668,69.0,37.0
462,110.514588,111.86752773333335,77.0,45.0
463,109.632236,112.44289476666667,57.0,39.0
464,110.073412,112.49436530000001,64.0,31.0
465,112.49988,112.64510043333334,72.0,48.0
466,112.72046800000001,113.01642356666667,77.0,49.0
467,112.941056,113.21127630000001,84.0,51.0
468,113.16164400000001,113.45759956666667,82.0,60.0
469,113.60282000000001,113.78480510000001,81.0,55.0
470,114.043996,114.2314958,77.0,58.0
471,113.16164400000001,114.31237806666668,46.0,48.0
472,114.043996,114.32340746666668,58.0,47.0
473,113.60282000000001,114.34362803333335,53.0,39.0
474,114.485172,114.63958360000001,72.0,45.0
475,114.926348,115.55134733333334,70.0,34.0
476,114.926348,115.65428840000001,73.0,49.0
477,114.926348,115.80134706666668,58.0,44.0
478,114.926348,115.81789116666667,46.0,46.0
479,116.24987600000001,116.66715496666667,77.0,48.0
480,116.69105200000001,117.20943380000001,65.0,67.0
481,116.69105200000001,117.22965436666668,60.0,64.0
482,116.69105200000001,117.2535514,57.0,61.0
483,117.57340400000001,118.02377116666668,60.0,70.0
484,117.57340400000001,118.03112410000001,57.0,54.0
485,117.57340400000001,118.06972700000001,65.0,57.0
486,118.45575600000001,118.89877023333334,60.0,57.0
487,118.45575600000001,118.89877023333334,65.0,48.0
488,118.45575600000001,118.9189908,57.0,48.0
489,116.69105200000001,119.64876943333334,41.0,62.0
490,119.338108,119.65428413333335,57.0,60.0
491,116.69105200000001,119.68185763333334,53.0,57.0
492,119.338108,119.68921056666667,60.0,70.0
493,119.338108,119.7020782,65.0,64.0
494,120.22046,120.85648873333334,65.0,47.0
495,120.22046,120.86751813333335,62.0,67.0
496,120.22046,120.88038576666668,58.0,57.0
497,121.10281200000001,121.56420856666668,65.0,50.0
498,121.10281200000001,121.58075266666667,62.0,63.0
499,121.10281200000001,121.599135,58.0,59.0
500,120.66163600000002,122.34545773333335,41.0,36.0
501,120.66163600000002,122.38957533333334,53.0,41.0
502,121.98516400000001,122.43001646666667,62.0,66.0
503,121.98516400000001,122.48516346666668,58.0,63.0
504,121.98516400000001,122.48516346666668,65.0,56.0
505,122.42634000000001,122.89876596666667,48.0,37.0
506,122.86751600000001,123.18553036666668,53.0,53.0
507,122.86751600000001,123.3307508,65.0,64.0
508,122.86751600000001,123.34913313333334,58.0,72.0
509,122.86751600000001,123.35464783333335,62.0,66.0
510,122.86751600000001,123.4961918,41.0,66.0
511,123.30869200000001,123.56972113333335,53.0,44.0
512,123.749868,124.21126456666667,65.0,55.0
513,123.749868,124.33994090000002,62.0,69.0
514,123.749868,124.34545560000001,58.0,63.0
515,123.749868,124.77560220000001,55.0,46.0
516,124.63222,124.99619020000002,65.0,41.0
517,124.63222,125.08810186666668,58.0,64.0
518,124.63222,125.12302830000002,62.0,63.0
519,123.749868,125.46126323333334,43.0,56.0
520,125.51457200000002,125.97045386666667,60.0,72.0
521,125.51457200000002,126.13957133333334,67.0,59.0
522,125.073396,126.1487625,55.0,46.0
523,125.51457200000002,126.15427720000001,64.0,62.0
524,126.39876223333334,126.57339440000001,55.0,52.0
525,126.39876223333334,126.58258556666668,60.0,69.0
526,126.39876223333334,126.62486493333334,67.0,55.0
527,126.39876223333334,126.64692373333334,64.0,59.0
528,125.51457200000002,126.75354126666667,48.0,66.0
529,126.83810000000001,127.04030566666668,60.0,64.0
530,127.058688,127.62118740000001,60.0,63.0
531,127.27927600000001,127.66714323333335,41.0,63.0
532,127.058688,128.0329516666667,65.0,63.0
533,127.27927600000001,128.11567216666668,69.0,69.0
534,127.72045200000001,128.2443485,53.0,39.0
535,128.60280400000002,129.00170063333334,60.0,55.0
536,129.04398,129.37302376666668,72.0,73.0
537,129.48515600000002,129.64692053333334,70.0,59.0
538,129.48515600000002,129.6891999,60.0,61.0
539,129.926332,130.11567003333334,69.0,78.0
540,129.926332,130.2057434666667,60.0,60.0
541,128.161628,130.3895668,55.0,60.0
542,130.36750800000002,130.46125790000002,65.0,75.0
543,130.808684,131.25353646666667,65.0,64.0
544,130.808684,131.25721293333334,60.0,66.0
545,130.808684,131.25905116666667,69.0,72.0
546,131.24986,131.91346223333335,57.0,46.0
547,131.691036,132.0936091,69.0,66.0
548,131.691036,132.10096203333333,65.0,69.0
549,131.691036,132.1211826,60.0,61.0
550,132.132212,132.65794673333335,57.0,35.0
551,132.57338800000002,133.03846103333333,65.0,66.0
552,132.57338800000002,133.04581396666669,69.0,60.0
553,132.57338800000002,133.04765220000002,60.0,63.0
554,133.014564,133.53294580000002,57.0,42.0
555,130.808684,133.82338666666666,50.0,62.0
556,133.45574000000002,133.841769,69.0,69.0
557,133.45574000000002,133.84728370000002,65.0,70.0
558,133.45574000000002,133.86198956666667,60.0,69.0
559,133.896916,133.9741218,57.0,64.0
560,134.33809200000002,134.78662093333335,69.0,70.0
561,134.33809200000002,134.81051796666668,65.0,69.0
562,134.33809200000002,134.82706206666668,62.0,70.0
563,134.33809200000002,135.3803703,59.0,67.0
564,135.22044400000001,135.5274289666667,62.0,44.0
565,135.22044400000001,135.5494877666667,65.0,44.0
566,135.22044400000001,135.59912006666667,69.0,43.0
567,136.102796,136.3399281,74.0,66.0
568,136.102796,136.34176633333334,77.0,66.0
569,136.102796,136.36566336666667,71.0,63.0
570,135.66162,136.4171339,59.0,40.0
571,136.985148,137.19654483333335,62.0,72.0
572,136.985148,137.22595656666667,65.0,85.0
573,136.76456000000002,137.28110356666667,59.0,23.0
574,137.205736,137.38955933333335,53.0,47.0
575,134.33809200000002,137.44470633333336,47.0,66.0
576,137.42632400000002,137.53845623333333,64.0,78.0
577,137.8675,138.3197054,46.0,51.0
578,137.8675,138.41161706666668,65.0,73.0
579,137.8675,138.47044053333335,62.0,75.0
580,137.8675,138.54213163333336,58.0,85.0
581,138.749852,139.2572044,58.0,76.0
582,138.749852,139.27558673333334,61.0,66.0
583,138.749852,139.28110143333333,65.0,64.0
584,139.632204,140.06051236666667,65.0,72.0
585,139.632204,140.27007096666668,61.0,59.0
586,139.632204,140.3031591666667,58.0,80.0
587,140.293968,140.6303647,46.0,39.0
588,140.514556,140.8399233,65.0,75.0
589,140.514556,140.87668796666668,61.0,88.0
590,140.514556,140.9226438,58.0,85.0
591,140.955732,141.04580543333336,46.0,73.0
592,141.39690800000002,141.64874596666667,48.0,67.0
593,141.39690800000002,141.86749573333336,55.0,69.0
594,141.39690800000002,141.8766869,64.0,75.0
595,141.39690800000002,141.89506923333334,60.0,75.0
596,141.838084,142.34911286666667,48.0,47.0
597,142.27926000000002,142.68918603333336,55.0,85.0
598,142.27926000000002,142.69470073333335,60.0,80.0
599,142.27926000000002,142.72778893333336,62.0,82.0
600,141.39690800000002,142.73881833333334,36.0,66.0
601,142.720436,142.81050943333335,48.0,66.0
602,142.941024,143.0788915,55.0,56.0
603,143.16161200000002,143.31786183333335,48.0,78.0
604,143.16161200000002,143.47962636666668,55.0,76.0
605,143.16161200000002,143.48881753333333,60.0,76.0
606,143.16161200000002,143.50168516666668,64.0,80.0
607,143.602788,143.71675846666668,60.0,69.0
608,143.602788,143.73697903333334,57.0,59.0
609,143.602788,143.74249373333333,48.0,51.0
610,143.602788,143.7627143,65.0,78.0
611,144.04396400000002,144.11381686666667,60.0,85.0
612,144.04396400000002,144.16161093333335,67.0,76.0
613,144.04396400000002,144.2810961,48.0,63.0
614,143.16161200000002,144.53844876666668,36.0,70.0
615,144.48514,144.55315463333335,62.0,61.0
616,144.48514,144.57337520000002,70.0,99.0
617,144.48514,144.59359576666668,48.0,67.0
618,144.926316,145.47962423333334,60.0,82.0
619,144.926316,145.57521236666668,57.0,75.0
620,144.926316,145.57888883333334,65.0,75.0
621,144.926316,145.93366786666667,53.0,75.0
622,145.808668,146.20756463333333,65.0,82.0
623,144.926316,146.2277852,41.0,69.0
624,145.808668,146.2700645666667,60.0,88.0
625,145.808668,146.2774175,57.0,80.0
626,146.24984400000002,146.36197623333334,53.0,70.0
627,146.69102,147.23329883333335,57.0,78.0
628,146.69102,147.23329883333335,61.0,82.0
629,146.69102,147.36565163333336,64.0,80.0
630,146.69102,147.40976923333335,67.0,69.0
631,146.69102,147.6671219,52.0,59.0
632,146.69102,147.77925413333335,45.0,69.0
633,147.573372,147.91528340000002,64.0,76.0
634,147.573372,147.92447456666667,67.0,75.0
635,147.573372,147.9741068666667,61.0,82.0
636,147.573372,148.01454800000002,57.0,76.0
637,148.01454800000002,148.06969500000002,52.0,64.0
638,148.01454800000002,148.11013613333336,45.0,60.0
639,148.235136,148.46675340000002,62.0,46.0
640,148.455724,148.786606,50.0,73.0
641,148.455724,148.9502087666667,65.0,76.0
642,148.455724,149.02741456666666,57.0,78.0
643,148.455724,149.15241443333335,60.0,72.0
644,149.338076,149.50719346666668,57.0,80.0
645,148.455724,149.64873743333334,38.0,75.0
646,149.55866400000002,149.70020796666668,60.0,61.0
647,149.117488,149.73881086666668,50.0,49.0
648,149.779252,150.01086940000002,62.0,69.0
649,149.99984,150.1156487,64.0,66.0
650,150.220428,150.54211883333335,60.0,69.0
651,150.220428,150.62116286666668,63.0,75.0
652,150.220428,150.62116286666668,67.0,64.0
653,150.220428,150.74248626666667,48.0,64.0
654,150.661604,150.74800096666667,55.0,80.0
655,151.10278000000002,151.3840297,53.0,73.0
656,151.10278000000002,151.46858843333334,60.0,75.0
657,151.10278000000002,151.51270603333336,63.0,88.0
658,151.10278000000002,151.51270603333336,69.0,78.0
659,151.10278000000002,151.54579423333334,41.0,73.0
660,151.54579423333334,151.63402943333335,53.0,63.0
661,151.764544,151.89873503333334,69.0,61.0
662,151.98513200000002,152.39321980000003,62.0,82.0
663,151.98513200000002,152.39873450000002,65.0,82.0
664,151.98513200000002,152.4354991666667,70.0,85.0
665,152.646896,152.84174873333333,65.0,62.0
666,152.646896,152.85277813333335,62.0,60.0
667,152.646896,152.88218986666666,70.0,62.0
668,152.86748400000002,153.12299843333335,58.0,49.0
669,153.088072,153.23329243333333,60.0,80.0
670,153.088072,153.24983653333334,65.0,70.0
671,153.088072,153.28292473333335,69.0,80.0
672,152.426308,153.38218933333334,53.0,45.0
673,151.98513200000002,153.39321873333336,46.0,80.0
674,153.30866,153.44285103333334,58.0,53.0
675,153.74983600000002,154.1854973,58.0,72.0
676,153.74983600000002,154.3399089,65.0,88.0
677,153.74983600000002,154.3932176666667,61.0,76.0
678,153.74983600000002,154.52557046666666,70.0,76.0
679,154.191012,154.82704073333335,58.0,38.0
680,153.74983600000002,154.97226116666667,46.0,70.0
681,155.073364,155.14321686666668,57.0,42.0
682,154.632188,155.15240803333336,61.0,75.0
683,154.632188,155.15792273333335,65.0,80.0
684,155.073364,155.20755503333334,45.0,76.0
685,154.632188,155.2314520666667,70.0,78.0
686,155.51454,155.9373336666667,55.0,67.0
687,155.51454,156.1983628,62.0,67.0
688,155.51454,156.1983628,65.0,80.0
689,155.51454,156.24983333333336,70.0,78.0
690,156.17630400000002,156.61564176666667,55.0,29.0
691,155.51454,156.6340241,43.0,57.0
692,156.39873023333334,156.78475923333335,70.0,72.0
693,156.39873023333334,156.79946510000002,62.0,64.0
694,156.39873023333334,156.87850913333335,65.0,76.0
695,156.83806800000002,156.948362,43.0,67.0
696,157.279244,157.60461130000002,48.0,66.0
697,157.279244,157.66894946666667,67.0,75.0
698,157.279244,157.66894946666667,72.0,70.0
699,157.279244,157.6707877,64.0,75.0
700,157.279244,157.67630240000003,60.0,62.0
701,157.941008,158.38953693333335,48.0,39.0
702,158.161596,158.42630160000002,60.0,75.0
703,158.161596,158.43549276666667,64.0,80.0
704,158.161596,158.52740443333334,70.0,85.0
705,157.279244,158.58990436666667,36.0,82.0
706,158.60277200000002,158.65056606666667,70.0,46.0
707,158.60277200000002,158.68181603333335,64.0,72.0
708,158.60277200000002,158.69836013333335,60.0,72.0
709,158.60277200000002,158.7020366,48.0,60.0
710,158.60277200000002,158.74063950000001,72.0,69.0
711,159.043948,159.36563883333335,53.0,64.0
712,159.043948,159.41894760000002,65.0,61.0
713,159.043948,159.42813876666668,72.0,75.0
714,159.043948,159.44100640000002,60.0,69.0
715,159.705712,160.0200499,53.0,48.0
716,159.92630000000003,160.31049076666667,65.0,78.0
717,159.92630000000003,160.32519663333335,60.0,80.0
718,159.92630000000003,160.3288731,57.0,75.0
719,159.043948,160.38402010000001,41.0,70.0
720,160.367476,160.5145346666667,53.0,64.0
721,160.80865200000002,161.06416643333336,57.0,67.0
722,160.80865200000002,161.0733576,61.0,72.0
723,160.80865200000002,161.10276933333336,64.0,75.0
724,161.69100400000002,161.9557096,57.0,60.0
725,161.69100400000002,161.9777684,69.0,60.0
726,161.69100400000002,162.04026833333336,64.0,64.0
727,160.80865200000002,162.1156359,45.0,70.0
728,161.69100400000002,162.13218,73.0,69.0
729,161.249828,162.13585646666667,52.0,53.0
730,162.13218,162.20387110000001,76.0,57.0
731,162.13218,162.2479887,57.0,41.0
732,162.57335600000002,162.81232633333335,69.0,67.0
733,162.57335600000002,162.90423800000002,77.0,76.0
734,162.57335600000002,162.90607623333335,72.0,70.0
735,163.014532,163.1303407,67.0,49.0
736,163.014532,163.35276693333336,76.0,62.0
737,163.45570800000002,163.52556086666667,72.0,66.0
738,163.45570800000002,163.5549726,77.0,78.0
739,163.45570800000002,163.7847517666667,62.0,54.0
740,162.57335600000002,163.84173700000002,50.0,70.0
741,163.014532,163.86379580000002,57.0,58.0
742,164.11747200000002,164.4207805,72.0,55.0
743,164.33806,164.57703033333334,82.0,70.0
744,164.33806,164.6450449666667,75.0,70.0
745,164.77923600000003,165.08622096666667,60.0,57.0
746,164.33806,165.20202966666668,48.0,66.0
747,164.77923600000003,165.2810737,55.0,66.0
748,165.220412,165.5347499,60.0,70.0
749,165.220412,165.55497046666667,69.0,73.0
750,165.220412,165.5825439666667,63.0,76.0
751,165.220412,165.66894093333335,53.0,78.0
752,165.66158800000002,165.7424702666667,60.0,55.0
753,165.66158800000002,165.7663673,67.0,67.0
754,166.102764,166.3876901666667,62.0,69.0
755,166.102764,166.39136663333335,65.0,75.0
756,166.102764,166.46857243333335,69.0,76.0
757,166.102764,166.8343808666667,58.0,70.0
758,166.764528,166.91342490000002,60.0,62.0
759,166.764528,167.09173353333335,65.0,67.0
760,166.985116,167.17996873333334,58.0,42.0
761,167.20570400000003,167.35827736666667,62.0,73.0
762,167.20570400000003,167.48143900000002,65.0,75.0
763,166.102764,167.52004190000002,53.0,60.0
764,166.102764,167.53842423333336,46.0,73.0
765,167.42629200000002,167.55496833333333,58.0,53.0
766,167.867468,168.39504096666667,65.0,73.0
767,167.867468,168.4777614666667,61.0,69.0
768,167.867468,168.51084966666667,70.0,78.0
769,168.529232,168.9207757,53.0,23.0
770,167.867468,169.02187853333334,58.0,91.0
771,167.867468,169.07151083333335,46.0,69.0
772,168.74982,169.23879006666667,65.0,78.0
773,168.74982,169.24062830000003,61.0,70.0
774,168.74982,169.31599586666667,70.0,78.0
775,169.190996,169.32518703333335,57.0,64.0
776,169.190996,169.34173113333335,45.0,72.0
777,169.63217200000003,170.0788627,67.0,64.0
778,169.63217200000003,170.18548023333335,62.0,61.0
779,169.63217200000003,170.22592136666668,65.0,75.0
780,169.63217200000003,170.3711418,70.0,80.0
781,169.63217200000003,170.7185679,55.0,64.0
782,169.63217200000003,170.72592083333333,43.0,70.0
783,170.51452400000002,170.84172953333334,67.0,69.0
784,170.51452400000002,170.89687653333334,62.0,67.0
785,170.51452400000002,170.91342063333335,65.0,80.0
786,170.51452400000002,170.9648911666667,70.0,82.0
787,170.9557,170.99246466666668,55.0,40.0
788,170.9557,171.08437633333335,43.0,66.0
789,171.39687600000002,171.69099333333335,48.0,66.0
790,171.39687600000002,171.8858460666667,64.0,72.0
791,171.39687600000002,171.9373166,60.0,66.0
792,171.39687600000002,171.93915483333333,70.0,75.0
793,171.39687600000002,171.94650776666668,67.0,66.0
794,172.05864000000003,172.53474243333335,48.0,33.0
795,171.39687600000002,172.70569813333336,36.0,66.0
796,172.27922800000002,172.7240804666667,70.0,62.0
797,172.27922800000002,172.72591870000002,64.0,75.0
798,172.27922800000002,172.7369481,60.0,76.0
799,172.27922800000002,172.73878633333334,67.0,69.0
800,172.720404,172.8233450666667,48.0,73.0
801,173.16158000000001,173.55312370000001,57.0,66.0
802,173.16158000000001,173.56599133333336,60.0,75.0
803,173.16158000000001,173.64871183333335,65.0,69.0
804,173.82334400000002,174.05679963333336,55.0,69.0
805,173.82334400000002,174.18915243333333,64.0,80.0
806,174.48510800000003,174.8104753,60.0,70.0
807,174.48510800000003,174.8270194,65.0,66.0
808,175.146872,175.28657773333336,60.0,35.0
809,175.36746000000002,175.56782743333335,65.0,58.0
810,175.58804800000001,175.77187133333334,67.0,51.0
811,175.808636,175.8729741666667,69.0,35.0
812,176.029224,176.1229739,70.0,44.0
813,173.16158000000001,176.3086354666667,41.0,58.0
814,173.16158000000001,176.31231193333335,53.0,61.0
815,176.24981200000002,176.4704,74.0,73.0
816,176.4704,176.62481160000002,77.0,59.0
817,176.690988,177.1817963,77.0,56.0
818,177.352752,177.60458996666668,74.0,47.0
819,177.57334,177.77003096666667,76.0,57.0
820,177.13216400000002,177.87297203333335,70.0,48.0
821,177.79392800000002,177.9373102,77.0,52.0
822,176.690988,178.04760420000002,58.0,60.0
823,176.91157600000003,178.25348633333334,65.0,36.0
824,178.235104,178.69650056666669,81.0,67.0
825,178.896868,179.52002910000002,70.0,53.0
826,179.117456,179.53289673333336,77.0,51.0
827,178.45569200000003,179.55495553333336,58.0,59.0
828,178.67628000000002,179.58252903333334,65.0,41.0
829,179.55863200000002,179.75532296666668,76.0,61.0
830,179.77922,179.99245506666668,77.0,46.0
831,179.999808,180.14686666666668,79.0,41.0
832,180.22039600000002,180.7001749,77.0,72.0
833,180.661572,181.01083633333334,71.0,55.0
834,180.88216000000003,181.36561536666667,74.0,34.0
835,180.22039600000002,181.4998064,59.0,61.0
836,181.323336,181.5770122,71.0,40.0
837,181.543924,181.7626737666667,76.0,42.0
838,180.44098400000001,181.8233354666667,65.0,49.0
839,181.76451200000002,181.96671766666668,79.0,44.0
840,181.98510000000002,182.33987903333335,77.0,55.0
841,182.64686400000002,182.78656973333335,74.0,54.0
842,182.426276,182.98509893333335,71.0,61.0
843,182.86745200000001,183.04208416666668,76.0,47.0
844,181.98510000000002,183.10090763333335,59.0,67.0
845,182.205688,183.21671633333335,65.0,52.0
846,183.08804,183.27921626666668,77.0,51.0
847,183.30862800000003,183.3968632,77.0,73.0
848,183.749804,184.01083313333334,69.0,54.0
849,184.19098000000002,184.3784798,62.0,38.0
850,183.970392,184.53656786666667,58.0,42.0
851,184.41156800000002,184.80494993333335,62.0,32.0
852,184.41156800000002,184.852744,65.0,64.0
853,183.749804,185.16708190000003,46.0,55.0
854,184.852744,185.20752303333336,58.0,48.0
855,185.07333200000002,185.2608318,62.0,46.0
856,185.29392,185.48325803333336,69.0,61.0
857,185.514508,185.9703898666667,67.0,58.0
858,185.514508,185.97774280000002,64.0,55.0
859,185.514508,185.97958103333335,60.0,45.0
860,186.39686,186.64685973333334,60.0,60.0
861,186.39686,186.67443323333336,65.0,64.0
862,186.61744800000002,186.76450666666668,55.0,40.0
863,185.514508,186.7884037,48.0,53.0
864,186.83803600000002,187.2571532,67.0,57.0
865,187.279212,187.49060883333334,60.0,60.0
866,187.279212,187.50347646666668,69.0,66.0
867,187.940976,188.05310823333335,62.0,54.0
868,187.940976,188.08987290000002,70.0,72.0
869,187.720388,188.30678443333335,53.0,48.0
870,188.38215200000002,188.50715186666667,65.0,61.0
871,188.38215200000002,188.54943123333334,72.0,67.0
872,187.49980000000002,188.6505340666667,48.0,42.0
873,187.279212,188.75531336666668,41.0,58.0
874,189.04391600000002,189.17259233333334,70.0,61.0
875,189.04391600000002,189.19097466666668,60.0,49.0
876,189.26450400000002,189.40604796666668,69.0,46.0
877,189.04391600000002,189.52737136666667,53.0,37.0
878,189.485092,189.68913590000003,65.0,48.0
879,189.70568,189.93545916666667,60.0,49.0
880,189.04391600000002,189.9464885666667,41.0,49.0
881,189.92626800000002,190.0696502,53.0,57.0
882,190.80862000000002,191.3214871,69.0,62.0
883,190.80862000000002,191.3306782666667,65.0,63.0
884,190.80862000000002,191.4814134,62.0,59.0
885,191.69097200000002,192.13398623333336,62.0,62.0
886,191.69097200000002,192.13398623333336,65.0,60.0
887,191.69097200000002,192.15420680000003,69.0,66.0
888,190.80862000000002,192.8104561,58.0,66.0
889,192.573324,193.0034706,69.0,50.0
890,192.573324,193.04391173333335,62.0,49.0
891,192.573324,193.23508800000002,65.0,50.0
892,193.45751423333334,193.62663170000002,64.0,55.0
893,193.45751423333334,193.65604343333334,67.0,64.0
894,193.676264,193.80677856666668,65.0,54.0
895,193.676264,193.83435206666667,69.0,61.0
896,193.23508800000002,193.94280783333335,58.0,40.0
897,190.80862000000002,193.95751370000002,46.0,66.0
898,193.89685200000002,194.01449893333336,65.0,43.0
899,193.89685200000002,194.1229547,72.0,66.0
900,194.338028,194.84170393333335,67.0,64.0
901,194.338028,194.8674392,60.0,64.0
902,194.338028,194.98140966666668,64.0,70.0
903,194.338028,195.38765923333335,57.0,58.0
904,195.22038,195.6725854,64.0,66.0
905,194.338028,195.67442363333336,45.0,61.0
906,195.22038,195.6762618666667,67.0,61.0
907,195.22038,195.6891295,60.0,63.0
908,195.66155600000002,195.79023233333334,57.0,54.0
909,196.102732,196.45199633333334,57.0,62.0
910,196.102732,196.60273146666668,60.0,62.0
911,196.102732,196.6431726,65.0,69.0
912,196.102732,196.65052553333334,69.0,64.0
913,196.764496,197.03287806666668,60.0,59.0
914,196.764496,197.12846620000002,67.0,67.0
915,196.98508400000003,197.2773631,57.0,38.0
916,196.102732,197.31412776666667,50.0,57.0
917,197.20567200000002,197.31412776666667,60.0,59.0
918,197.20567200000002,197.37662770000003,69.0,69.0
919,197.646848,197.8269948666667,69.0,53.0
920,197.86743600000003,198.41339130000003,65.0,61.0
921,197.86743600000003,198.44831773333334,70.0,70.0
922,197.86743600000003,198.49795003333335,62.0,60.0
923,197.86743600000003,198.89500843333335,55.0,53.0
924,198.74978800000002,199.2516257,65.0,69.0
925,198.74978800000002,199.2736845,62.0,61.0
926,198.74978800000002,199.2773609666667,70.0,75.0
927,197.86743600000003,199.32147856666668,43.0,66.0
928,199.190964,199.38581673333334,55.0,42.0
929,199.63214000000002,200.16155120000002,65.0,64.0
930,199.63214000000002,200.1762570666667,70.0,56.0
931,199.63214000000002,200.19463940000003,61.0,59.0
932,199.63214000000002,200.75530056666668,58.0,44.0
933,199.63214000000002,200.77552113333334,46.0,50.0
934,200.51449200000002,200.97405033333334,61.0,64.0
935,200.51449200000002,200.97405033333334,65.0,73.0
936,200.51449200000002,201.0200061666667,70.0,64.0
937,200.955668,201.0586090666667,46.0,70.0
938,201.39684400000002,201.617432,36.0,44.0
939,201.39684400000002,201.62846140000002,72.0,55.0
940,201.39684400000002,201.65235843333335,69.0,58.0
941,201.39684400000002,201.65971136666667,48.0,49.0
942,201.39684400000002,201.6652260666667,65.0,61.0
943,201.39684400000002,201.67074076666668,60.0,47.0
944,201.83802000000003,202.1027256,72.0,45.0
945,201.83802000000003,202.11926970000002,69.0,55.0
946,201.83802000000003,202.12294616666668,48.0,54.0
947,201.83802000000003,202.12846086666667,36.0,59.0
948,201.83802000000003,202.14500496666668,65.0,57.0
949,201.83802000000003,202.15235790000003,60.0,51.0
950,202.279196,202.50713693333336,48.0,49.0
951,202.279196,202.51265163333335,72.0,50.0
952,202.279196,202.53471043333334,36.0,62.0
953,202.279196,202.54941630000002,65.0,64.0
954,202.279196,202.54941630000002,69.0,69.0
955,202.279196,202.5641221666667,60.0,61.0
956,202.72037200000003,202.77184253333334,60.0,48.0
957,202.72037200000003,202.8012542666667,65.0,67.0
958,202.72037200000003,202.82147483333335,69.0,69.0
959,202.72037200000003,202.82515130000002,48.0,69.0
960,202.72037200000003,202.8398571666667,36.0,72.0
961,203.161548,203.6836062666667,65.0,61.0
962,203.161548,203.7736797,68.0,61.0
963,203.161548,203.83617963333336,61.0,56.0
964,203.161548,204.32514970000003,49.0,55.0
965,204.04573823333334,204.4575025,65.0,58.0
966,204.04573823333334,204.4961054,61.0,49.0
967,204.04573823333334,204.50345833333336,68.0,59.0
968,203.161548,204.54941416666668,37.0,56.0
969,204.48691423333335,204.58617883333335,49.0,63.0
970,204.926252,205.3784574,66.0,56.0
971,204.926252,205.4593396666667,61.0,56.0
972,204.926252,205.46301613333335,70.0,57.0
973,205.36742800000002,205.77735403333335,68.0,49.0
974,204.926252,206.0016185,42.0,47.0
975,204.926252,206.08433900000003,54.0,47.0
976,205.808604,206.11926543333334,70.0,48.0
977,206.69095600000003,207.56595506666667,62.0,50.0
978,206.69095600000003,207.64316086666668,65.0,50.0
979,206.69095600000003,207.738749,68.0,41.0
980,206.69095600000003,207.7828666,46.0,44.0
981,206.69095600000003,207.8049254,58.0,40.0
982,208.45566000000002,208.71117443333335,61.0,51.0
983,208.45566000000002,209.1670563,66.0,55.0
984,209.33801200000002,209.57514410000002,63.0,53.0
985,208.45566000000002,209.59352643333335,51.0,58.0
986,208.896836,209.6284528666667,58.0,43.0
987,209.5586,209.67808516666668,65.0,54.0
988,209.779188,210.05124653333334,66.0,57.0
989,210.22036400000002,210.40602556666667,61.0,49.0
990,210.22036400000002,210.46852550000003,49.0,56.0
991,209.99977600000003,210.4722019666667,68.0,45.0
992,210.22036400000002,210.48323136666667,64.0,66.0
993,210.22036400000002,210.4887460666667,71.0,49.0
994,211.10271600000002,211.36925983333336,42.0,59.0
995,211.10271600000002,211.37477453333335,61.0,61.0
996,211.10271600000002,211.41153920000002,64.0,63.0
997,211.10271600000002,211.41889213333334,54.0,51.0
998,211.10271600000002,211.42992153333336,70.0,59.0
999,211.985068,212.7902142,63.0,54.0
1000,211.985068,212.87109646666667,70.0,52.0
1001,211.985068,212.9115376,66.0,56.0
1002,212.42624400000003,213.44094880000003,54.0,52.0
1003,212.86742,213.474037,59.0,70.0
1004,213.30859600000002,213.50161050000003,63.0,48.0
1005,211.985068,213.51080166666668,47.0,63.0
1006,213.749772,214.3343302,62.0,62.0
1007,213.749772,214.36190370000003,66.0,69.0
1008,213.749772,214.78102090000002,71.0,64.0
1009,213.749772,215.01999123333334,59.0,60.0
1010,213.749772,215.0494029666667,47.0,66.0
1011,214.632124,215.08065293333334,62.0,55.0
1012,215.07330000000002,215.42440256666669,66.0,62.0
1013,215.51447600000003,215.99241666666668,63.0,56.0
1014,215.73506400000002,216.0769754,66.0,11.0
1015,215.51447600000003,216.22771053333335,71.0,59.0
1016,215.51447600000003,216.56594546666668,56.0,48.0
1017,215.51447600000003,216.57329840000003,44.0,55.0
1018,216.39682800000003,216.87844513333334,63.0,70.0
1019,216.39682800000003,216.88395983333334,66.0,82.0
1020,216.39682800000003,216.88395983333334,71.0,97.0
1021,216.838004,216.89498923333335,56.0,58.0
1022,216.838004,216.9464597666667,44.0,78.0
1023,217.058592,217.17072423333335,68.0,49.0
1024,217.27918000000003,217.5880032,49.0,91.0
1025,217.27918000000003,217.58984143333336,37.0,85.0
1026,217.27918000000003,217.62476786666667,65.0,85.0
1027,217.27918000000003,217.63212080000002,61.0,82.0
1028,217.27918000000003,217.65785606666668,71.0,78.0
1029,218.16153200000002,218.38947293333334,61.0,95.0
1030,218.38212000000001,218.38947293333334,61.0,82.0
1031,218.16153200000002,218.40234056666668,49.0,85.0
1032,218.16153200000002,218.42256113333335,37.0,78.0
1033,218.16153200000002,218.4262376,65.0,95.0
1034,218.38212000000001,218.66888440000002,66.0,97.0
1035,218.38212000000001,218.7111637666667,39.0,99.0
1036,218.82329600000003,218.91888413333334,41.0,85.0
1037,218.82329600000003,218.98873700000001,61.0,66.0
1038,218.82329600000003,219.05675163333336,68.0,88.0
1039,219.04388400000002,219.4501335666667,61.0,85.0
1040,219.04388400000002,219.45748650000002,70.0,78.0
1041,219.04388400000002,219.45932473333335,66.0,91.0
1042,219.70564800000002,219.9924124,54.0,60.0
1043,219.92623600000002,220.3618973,61.0,80.0
1044,219.04388400000002,220.42072076666668,42.0,99.0
1045,219.92623600000002,220.4391031,66.0,80.0
1046,219.92623600000002,220.45380896666668,70.0,80.0
1047,220.36741200000003,220.49608833333335,54.0,93.0
1048,220.80858800000001,221.04755833333334,58.0,64.0
1049,220.80858800000001,221.09902886666669,46.0,63.0
1050,220.80858800000001,221.1927787666667,62.0,85.0
1051,220.80858800000001,221.19461700000002,65.0,91.0
1052,220.80858800000001,221.24057283333335,70.0,76.0
1053,221.69094,222.03468963333336,65.0,75.0
1054,221.69094,222.0365278666667,68.0,75.0
1055,221.69094,222.05123373333336,62.0,73.0
1056,221.69094,222.0879984,38.0,78.0
1057,221.69094,222.12476306666667,50.0,76.0
1058,222.573292,222.89865930000002,51.0,69.0
1059,222.573292,223.15601196666668,70.0,76.0
1060,222.573292,223.2626295,61.0,75.0
1061,222.573292,223.2791736,66.0,78.0
1062,222.573292,223.53836450000003,39.0,72.0
1063,223.455644,223.59902620000003,61.0,78.0
1064,223.23505600000001,223.62843793333334,51.0,52.0
1065,223.67623200000003,223.99056990000003,66.0,67.0
1066,224.117408,224.25159903333335,70.0,62.0
1067,223.89682000000002,224.26998136666668,68.0,75.0
1068,224.337996,224.59902513333336,61.0,72.0
1069,224.337996,224.62108393333335,71.0,80.0
1070,224.337996,224.6302751,68.0,59.0
1071,224.337996,224.64498096666668,56.0,69.0
1072,224.337996,224.64498096666668,64.0,93.0
1073,224.337996,224.67071623333334,49.0,66.0
1074,225.22034800000003,225.48321536666668,54.0,85.0
1075,225.22034800000003,225.63027403333336,66.0,73.0
1076,225.22034800000003,225.65968576666668,61.0,76.0
1077,225.22034800000003,225.66520046666668,70.0,75.0
1078,225.22034800000003,225.6835828,64.0,78.0
1079,225.22034800000003,225.69093573333336,42.0,75.0
1080,225.66152400000001,225.77365623333336,54.0,58.0
1081,225.882112,226.00159716666667,68.0,45.0
1082,226.10270000000003,226.44828786666667,63.0,88.0
1083,226.10270000000003,226.51997896666668,66.0,80.0
1084,226.10270000000003,226.56042010000002,70.0,76.0
1085,226.543876,226.79203750000002,59.0,53.0
1086,226.764464,226.95012556666669,61.0,73.0
1087,226.764464,227.16887533333335,66.0,76.0
1088,226.98505200000002,227.25527230000003,59.0,45.0
1089,226.543876,227.26446346666668,54.0,31.0
1090,227.20564000000002,227.55490433333335,61.0,75.0
1091,227.426228,227.55674256666668,59.0,72.0
1092,227.20564000000002,227.59350723333336,68.0,78.0
1093,226.10270000000003,227.62108073333334,47.0,78.0
1094,227.86740400000002,228.50710920000003,66.0,75.0
1095,227.86740400000002,228.5788003,62.0,76.0
1096,228.31041823333334,228.8931382,59.0,46.0
1097,227.86740400000002,228.9758587,47.0,61.0
1098,228.74975600000002,229.13762323333336,66.0,88.0
1099,228.74975600000002,229.23137313333336,62.0,85.0
1100,229.190932,229.56225513333334,47.0,78.0
1101,229.63210800000002,230.24975440000003,66.0,62.0
1102,229.63210800000002,230.27181320000003,59.0,88.0
1103,229.63210800000002,230.40600423333336,63.0,75.0
1104,229.63210800000002,230.72585683333335,56.0,75.0
1105,229.63210800000002,230.7736509,44.0,78.0
1106,230.51446,230.84718023333335,66.0,73.0
1107,230.51446,230.88026843333336,63.0,76.0
1108,230.51446,230.9537977666667,59.0,80.0
1109,230.95563600000003,231.05490060000002,44.0,63.0
1110,231.396812,232.60085483333336,37.0,60.0
1111,231.396812,232.60085483333336,56.0,57.0
1112,231.396812,232.62107540000002,59.0,70.0
1113,231.396812,232.63761950000003,65.0,67.0
1114,231.396812,232.65600183333336,49.0,60.0
1115,234.04386800000003,234.2019560666667,73.0,27.0
1116,234.92622000000003,235.03283753333335,85.0,55.0
1117,236.69092400000002,237.34165860000002,78.0,63.0
1118,237.1321,237.48687903333334,54.0,35.0
1119,237.57327600000002,237.90599623333335,59.0,51.0
1120,237.57327600000002,237.96114323333336,77.0,49.0
1121,236.69092400000002,237.9923932,47.0,64.0
1122,238.014452,238.61923076666667,78.0,66.0
1123,238.45562800000002,238.81775996666667,73.0,56.0
1124,238.45562800000002,238.91518633333334,68.0,57.0
1125,238.45562800000002,239.613715,58.0,48.0
1126,238.45562800000002,239.71481783333334,46.0,47.0
1127,239.77915600000003,239.95194993333334,66.0,50.0
1128,239.99974400000002,240.21849376666668,68.0,61.0
1129,240.220332,240.53283166666668,63.0,56.0
1130,240.220332,240.54937576666669,71.0,70.0
1131,241.102684,241.24606620000003,70.0,48.0
1132,241.102684,241.32878670000002,56.0,53.0
1133,240.220332,241.33062493333335,44.0,58.0
1134,241.54386000000002,241.61187463333334,71.0,62.0
1135,241.985036,242.46849136666668,66.0,58.0
1136,241.985036,242.53650600000003,73.0,60.0
1137,241.985036,243.01260843333336,61.0,49.0
1138,242.96849083333336,243.1762112,71.0,48.0
1139,242.97400553333335,243.18172590000003,63.0,46.0
1140,241.985036,243.20562293333336,49.0,49.0
1141,243.90047513333334,244.09532786666668,61.0,58.0
1142,244.0070926666667,244.38760696666668,65.0,64.0
1143,243.81959286666668,244.41885693333336,58.0,38.0
1144,244.35451876666667,244.71113603333336,49.0,48.0
1145,243.92437216666667,244.71848896666668,42.0,48.0
1146,244.62290083333335,244.7736359666667,54.0,53.0
1147,244.8195918,244.9831945666667,66.0,56.0
1148,245.0273121666667,245.22584136666669,68.0,54.0
1149,245.2368707666667,245.3269442,70.0,50.0
1150,245.42988526666667,245.59164980000003,73.0,62.0
1151,245.6559879666667,245.900473,77.0,69.0
1152,245.8949583,245.97951703333337,78.0,53.0
1153,246.13760510000003,246.4115018666667,82.0,44.0
1154,246.38209013333335,246.6265751666667,85.0,48.0
1155,246.6706927666667,246.8765749,89.0,40.0
1156,246.99422183333334,247.07326586666667,90.0,31.0
1157,247.3103979666667,247.4611331,94.0,49.0
1158,247.73135340000002,247.81958860000003,97.0,47.0
