,start,end,pitch,velocity
0,16.3452047875,17.062287035416666,66.0,107.0
1,17.1992977875,17.548052429166667,66.0,117.0
2,17.6263442875,17.955525964583334,66.0,97.0
3,18.0533907875,18.971540762500002,71.0,122.0
4,19.3345302875,19.604993070833334,73.0,127.0
5,19.7615767875,20.1459186375,73.0,127.0
6,20.6156697875,20.955527627083335,71.0,117.0
7,21.0427162875,21.457307264583335,69.0,99.0
8,21.4697627875,22.64947874375,66.0,99.0
9,23.1779487875,23.617450810416667,71.0,127.0
10,23.80250429375,24.03737986875,71.0,97.0
11,24.0320417875,24.569408633333335,69.0,117.0
12,24.6726115375,24.81140165,71.0,122.0
13,24.8861347875,25.49467605,73.0,117.0
14,25.7402277875,26.128128358333335,76.0,112.0
15,26.1672742875,26.583644625,73.0,100.0
16,26.626349275,26.980441997916667,76.0,97.0
17,26.959089672916665,27.868342845833332,78.0,122.0
18,30.010692787500002,30.578308760416668,73.0,127.0
19,30.8647857875,31.2064229875,69.0,102.0
20,31.2918322875,31.562295070833333,71.0,100.0
21,31.7188787875,32.42706423333333,73.0,127.0
22,33.0000182875,33.19396857291667,76.0,117.0
23,33.2135415375,33.371904614583336,78.0,96.0
24,33.4270647875,34.097883664583335,73.0,127.0
25,34.2811577875,34.69930748541667,71.0,117.0
26,34.7082042875,35.09076677708333,69.0,90.0
27,35.1352507875,35.9893437875,61.0,97.0
28,35.9893437875,36.489344064583335,64.0,93.0
29,36.8434367875,37.56229839583333,66.0,122.0
30,37.4840065375,37.89859751458334,64.0,100.0
31,38.1245762875,38.459096045833334,66.0,102.0
32,38.5516227875,39.10144515625,71.0,122.0
33,39.405299299999996,39.8450157,73.0,117.0
34,39.8308313,40.25459025,69.0,97.0
35,40.2563633,41.02409395,66.0,100.0
36,43.6606193,44.31487475,66.0,127.0
37,44.5116833,45.1818962,66.0,122.0
38,45.362747299999995,46.509910649999995,71.0,127.0
39,46.6393433,46.954946199999995,73.0,127.0
40,47.0648753,47.712038549999995,73.0,127.0
41,47.9159393,48.3379252,71.0,117.0
42,48.341471299999995,48.71203875,69.0,89.0
43,48.7670033,50.0542376,66.0,96.0
44,50.4691313,50.899982449999996,71.0,127.0
45,51.1074293,51.32551445,71.0,112.0
46,51.320195299999995,51.65530175,69.0,97.0
47,51.7457273,52.0577841,71.0,127.0
48,52.171259299999996,52.8379261,73.0,127.0
49,53.0223233,53.41416735,76.0,102.0
50,53.4478553,53.84324545,73.0,83.0
51,53.8733873,56.07728845,78.0,117.0
52,57.277643299999994,57.84324624999999,73.0,127.0
53,58.1287073,58.4691329,69.0,102.0
54,58.5542393,58.8237429,71.0,100.0
55,58.979771299999996,59.6854452,73.0,127.0
56,59.9017573,60.0613318,78.0,96.0
57,60.469133299999996,60.5755163,78.0,117.0
58,60.6818993,61.350339149999996,73.0,127.0
59,61.5329633,61.949630049999996,71.0,117.0
60,61.958495299999996,62.33970105,69.0,90.0
61,62.3840273,63.23509129999999,61.0,97.0
62,63.23509129999999,63.73331835,64.0,93.0
63,64.0861553,64.30424045,66.0,122.0
64,64.5116873,64.89821219999999,66.0,102.0
65,64.9372193,65.35033995,64.0,100.0
66,65.3627513,65.6960847,66.0,102.0
67,65.78828329999999,66.33615574999999,71.0,122.0
68,66.6393473,67.0790637,73.0,117.0
69,67.0648793,67.48863825,69.0,97.0
70,67.4904113,70.0436033,66.0,100.0
71,98.14264638750001,98.94224960208334,66.0,107.0
72,99.08109630000001,99.4286141,66.0,117.0
73,99.5066283,99.83464255000001,66.0,97.0
74,99.9321603,100.84705410000001,71.0,122.0
75,101.2087563,101.47825990000001,73.0,127.0
76,101.63428830000001,102.01726710000001,73.0,127.0
77,102.4853523,102.82400485000001,71.0,117.0
78,102.9108843,103.32400495,69.0,99.0
79,103.33641630000001,104.51194845,66.0,99.0
80,105.03854430000001,105.54031745,71.0,127.0
81,105.67329620000001,105.86123950000001,71.0,97.0
82,105.8896083,106.31336725000001,69.0,117.0
83,106.31514030000001,106.45343820000001,71.0,122.0
84,106.74067230000001,107.3470554,73.0,117.0
85,107.59173630000001,107.9782612,76.0,112.0
86,108.01726830000001,108.432162,73.0,100.0
87,108.44634640000001,108.72826135000001,76.0,97.0
88,108.72826135000001,109.71230410000001,78.0,122.0
89,111.8470563,112.41265925,73.0,127.0
90,112.69812030000001,113.0385459,69.0,102.0
91,113.1236523,113.39315590000001,71.0,100.0
92,113.54918430000001,114.2548582,73.0,127.0
93,114.40024830000002,114.59351075000001,73.0,117.0
94,114.8257803,114.98358175000001,78.0,96.0
95,115.25131230000001,115.91975215000001,73.0,127.0
96,116.1023763,116.51904305000001,71.0,117.0
97,116.5279083,116.90911405,69.0,90.0
98,116.95344030000001,117.8045043,61.0,97.0
99,117.8045043,118.30273135000002,64.0,93.0
100,118.65556830000001,119.3718805,66.0,122.0
101,119.5073,119.92277783333334,64.0,100.0
102,119.93526,120.27049533333333,66.0,102.0
103,120.36322,120.9142185,71.0,122.0
104,121.21914,121.66136533333334,73.0,117.0
105,121.64710000000001,122.07327683333334,69.0,97.0
106,122.07506000000001,122.84717116666667,66.0,100.0
107,125.49874,126.1567285,66.0,127.0
108,126.35466,126.67919633333334,66.0,122.0
109,126.78262000000001,127.26229183333334,66.0,112.0
110,127.21058000000001,128.36428883333335,71.0,127.0
111,128.49446,128.81186366666668,73.0,127.0
112,128.92242,129.57327583333333,73.0,127.0
113,129.77834000000001,130.20273366666666,71.0,117.0
114,130.2063,130.57871590625,69.0,89.0
115,130.6337585375,131.92282145,66.0,96.0
116,132.3383045375,132.76976774375,71.0,127.0
117,132.9775092875,133.19590424375,71.0,112.0
118,133.1905775375,133.52616003125,69.0,97.0
119,133.6167140375,133.9292141375,71.0,127.0
120,134.0428505375,134.7104643875,73.0,127.0
121,134.8951235375,135.28752423125,76.0,102.0
122,135.3212600375,135.71721186875,73.0,83.0
123,135.7473965375,137.95442849375,78.0,117.0
124,139.1564885375,139.72289496875,73.0,127.0
125,140.0087615375,140.3496707375,69.0,102.0
126,140.4348980375,140.7047844875,71.0,100.0
127,140.8610345375,141.89263998125,73.0,127.0
128,142.1394440375,142.29746965625,78.0,96.0
129,142.3525122875,142.45904641250002,78.0,117.0
130,142.5655805375,143.23496995625,73.0,127.0
131,143.4178535375,143.83511219375,71.0,117.0
132,143.8439900375,144.22573731875,69.0,90.0
133,144.2701265375,145.1223995375,61.0,97.0
134,145.1223995375,145.62133435625,64.0,93.0
135,145.9746725375,146.58014148125,66.0,122.0
136,146.8269455375,147.24065305625,64.0,100.0
137,147.2530820375,147.5868889625,66.0,102.0
138,147.6792185375,148.22786928125,71.0,122.0
139,148.53149153750002,148.9718325875,73.0,117.0
140,148.9576280375,149.38198896875,69.0,97.0
141,149.38376453749999,151.9405835375,66.0,100.0
142,152.7928565375,153.35926296875,73.0,127.0
143,153.6451295375,153.9860387375,69.0,102.0
144,154.0712660375,154.3411524875,71.0,100.0
145,154.4974025375,155.52900798125,73.0,127.0
146,155.7758120375,155.93383765625,78.0,96.0
147,155.9888802875,156.0954144125,78.0,117.0
148,156.20194853750002,156.87133795625,73.0,127.0
149,157.0542215375,157.47148019375,71.0,117.0
150,157.4803580375,157.86210531875,69.0,90.0
151,157.9064945375,158.7587675375,61.0,97.0
152,158.7587675375,159.25770235625,64.0,93.0
153,159.6110405375,160.21650948125,66.0,122.0
154,160.4633135375,160.87702105625,64.0,100.0
155,160.8894500375,161.2232569625,66.0,102.0
156,161.58369741875,162.78336436875,71.0,112.0
157,162.55451819583334,163.73336444791667,73.0,127.0
158,164.0237490875,165.50106146666664,78.0,127.0
