,start,end,pitch,velocity
0,15.322754554166668,15.768649883333334,76.0,116.0
1,15.770515554166668,16.216410883333335,76.0,117.0
2,16.218276554166668,16.664171883333335,76.0,116.0
3,16.666037554166667,17.113798554166667,76.0,117.0
4,17.113798554166667,17.561559554166667,74.0,116.0
5,17.561559554166667,18.009320554166667,72.0,117.0
6,18.009320554166667,18.457081554166667,71.0,117.0
7,18.457081554166667,18.902976883333334,74.0,116.0
8,18.904842554166667,19.350737883333334,74.0,116.0
9,19.352603554166667,19.800364554166666,74.0,108.0
10,19.800364554166666,21.143647554166666,72.0,113.0
11,21.143647554166666,21.427229520833333,76.0,108.0
12,21.367528054166666,21.591408554166666,74.0,98.0
13,21.591408554166666,22.037303883333333,72.0,114.0
14,22.039169554166666,22.485064883333333,72.0,113.0
15,22.486930554166666,22.710811054166665,72.0,108.0
16,22.710811054166665,22.93469155416667,69.0,107.0
17,22.93469155416667,23.15857205416667,72.0,108.0
18,23.15857205416667,23.38245255416667,69.0,104.0
19,23.38245255416667,23.83021355416667,72.0,116.0
20,23.83021355416667,24.72573555416667,69.0,113.0
21,24.72573555416667,24.955213066666666,76.0,116.0
22,24.94961605416667,25.173496554166668,74.0,102.0
23,25.173496554166668,25.619391883333336,72.0,113.0
24,25.621257554166668,26.067152883333335,72.0,114.0
25,26.069018554166668,26.292899054166668,72.0,113.0
26,26.292899054166668,26.516779554166668,67.0,98.0
27,26.516779554166668,26.740660054166668,72.0,110.0
28,26.740660054166668,26.964540554166668,69.0,104.0
29,26.964540554166668,27.412301554166667,72.0,110.0
30,27.412301554166667,29.651106554166667,74.0,117.0
31,29.651106554166667,30.097001883333334,76.0,104.0
32,30.098867554166667,30.544762883333334,76.0,108.0
33,30.546628554166666,30.992523883333334,76.0,110.0
34,30.994389554166666,31.45521025,76.0,110.0
35,31.442150554166666,31.889911554166666,74.0,108.0
36,31.889911554166666,32.337672554166666,72.0,113.0
37,32.337672554166666,32.822746970833336,74.0,114.0
38,32.785433554166666,33.23132888333333,76.0,114.0
39,33.233194554166666,33.680955554166665,76.0,116.0
40,33.680955554166665,34.352597054166665,77.0,114.0
41,34.352597054166665,35.471999554166665,76.0,114.0
42,35.471999554166665,35.919760554166665,74.0,116.0
43,35.919760554166665,36.367521554166665,76.0,116.0
44,36.367521554166665,36.815282554166664,77.0,114.0
45,36.815282554166664,37.26117788333333,76.0,113.0
46,37.263043554166664,37.710804554166664,76.0,113.0
47,37.710804554166664,39.05222188333333,74.0,114.0
48,39.05408755416667,39.50184855416667,74.0,114.0
49,39.50184855416667,39.94960955416667,76.0,113.0
50,39.94960955416667,40.39737055416667,77.0,113.0
51,40.39737055416667,40.84513155416667,79.0,114.0
52,40.84513155416667,41.29289255416667,76.0,108.0
53,41.29289255416667,43.52983188333334,74.0,116.0
54,43.53169755416667,43.75371238333334,74.0,113.0
55,43.75557805416667,43.97945855416667,74.0,108.0
56,43.97945855416667,44.42721955416667,72.0,114.0
57,44.42721955416667,44.64923438333334,74.0,117.0
58,44.65110005416667,44.87498055416667,74.0,114.0
59,44.87498055416667,45.32274155416667,72.0,114.0
60,45.32274155416667,45.544756383333336,74.0,113.0
61,45.54662205416667,45.77050255416667,74.0,110.0
62,45.77050255416667,46.21826355416667,72.0,100.0
63,46.21826355416667,46.440278383333336,74.0,117.0
64,46.44214405416667,46.66602455416667,74.0,110.0
65,46.66602455416667,47.11378555416667,72.0,113.0
66,47.11378555416667,47.335800383333336,74.0,113.0
67,47.33766605416667,47.56154655416667,74.0,108.0
68,47.56154655416667,48.00930755416667,72.0,108.0
69,48.00930755416667,48.231322383333335,74.0,117.0
70,48.23318805416667,48.45706855416667,74.0,110.0
71,48.45706855416667,48.68094905416667,72.0,114.0
72,48.68094905416667,49.12871005416667,76.0,116.0
73,49.12871005416667,49.35259055416667,74.0,116.0
74,49.35259055416667,49.57647105416667,72.0,108.0
75,49.57647105416667,49.80035155416667,76.0,113.0
76,49.80035155416667,50.24811255416667,74.0,114.0
77,50.24811255416667,51.14363455416667,72.0,117.0
78,51.14363455416667,51.589529883333334,77.0,119.0
79,51.59139555416667,52.03915655416667,77.0,119.0
80,52.03915655416667,52.486917554166666,79.0,117.0
81,52.486917554166666,52.934678554166666,76.0,120.0
82,52.934678554166666,53.158559054166666,72.0,114.0
83,53.158559054166666,53.606320054166666,74.0,114.0
84,53.606320054166666,54.277961554166666,76.0,116.0
85,54.277961554166666,54.72385688333333,77.0,117.0
86,54.725722554166666,54.94773738333333,77.0,117.0
87,54.949603054166666,55.397364054166665,77.0,119.0
88,55.397364054166665,56.069005554166665,79.0,116.0
89,56.069005554166665,56.516766554166665,76.0,116.0
90,56.516766554166665,56.740647054166665,72.0,96.0
91,56.740647054166665,57.188408054166665,69.0,113.0
92,57.188408054166665,58.75557155416667,72.0,116.0
93,58.75557155416667,59.20333255416667,76.0,104.0
94,59.20333255416667,59.65109355416667,77.0,110.0
95,59.65109355416667,60.09885455416667,79.0,116.0
96,60.09885455416667,60.54661555416667,77.0,110.0
97,60.54661555416667,60.99437655416667,76.0,108.0
98,60.99437655416667,61.88803288333334,79.0,117.0
99,61.88989855416667,62.33579388333334,79.0,119.0
100,62.33765955416667,62.78355488333334,79.0,117.0
101,62.78542055416667,63.23131588333334,79.0,117.0
102,63.23318155416667,63.68094255416667,79.0,119.0
103,63.68094255416667,64.12870355416666,81.0,117.0
104,64.12870355416666,64.57646455416666,83.0,116.0
105,64.57646455416666,65.47012088333334,84.0,119.0
106,65.47198655416666,65.91788188333334,84.0,117.0
107,65.91974755416666,66.36750855416666,84.0,116.0
108,66.36750855416666,66.58952338333333,83.0,117.0
109,66.59138905416667,67.03915005416667,83.0,116.0
110,67.03915005416667,67.70892588333334,81.0,120.0
111,67.71079155416666,68.15855255416666,81.0,114.0
112,68.15855255416666,68.60631355416666,83.0,116.0
113,68.60631355416666,69.05407455416668,81.0,114.0
114,69.05407455416668,69.27795505416667,79.0,116.0
115,69.27795505416667,69.72571605416667,76.0,116.0
116,69.72571605416667,70.39735755416667,81.0,116.0
117,70.39735755416667,72.63616255416667,79.0,120.0
118,72.63616255416667,73.08205788333333,81.0,119.0
119,73.08392355416667,73.53168455416667,81.0,113.0
120,73.53168455416667,73.75556505416667,77.0,114.0
121,73.75556505416667,74.42720655416667,76.0,114.0
122,74.42720655416667,74.65108705416667,74.0,116.0
123,74.65108705416667,75.09884805416667,76.0,114.0
124,75.09884805416667,76.21825055416667,77.0,116.0
125,76.21825055416667,76.66414588333333,79.0,113.0
126,76.66601155416667,77.11377255416667,79.0,114.0
127,77.11377255416667,77.33765305416667,76.0,114.0
128,77.33765305416667,78.00929455416667,74.0,113.0
129,78.00929455416667,78.23317505416667,72.0,107.0
130,78.23317505416667,78.68093605416666,74.0,110.0
131,78.68093605416666,79.35257755416667,76.0,116.0
132,79.35257755416667,79.80033855416667,77.0,114.0
133,79.80033855416667,80.02421905416666,76.0,110.0
134,80.02421905416666,80.47198005416666,77.0,117.0
135,80.47198005416666,81.14362155416667,79.0,116.0
136,81.14362155416667,81.59138255416667,76.0,117.0
137,81.59138255416667,81.81526305416666,72.0,107.0
138,81.81526305416666,82.26302405416666,69.0,107.0
139,82.26302405416666,82.93466555416667,72.0,114.0
140,82.93466555416667,83.38056088333333,81.0,113.0
141,83.38242655416667,83.60444138333334,81.0,108.0
142,83.60630705416666,84.05406805416666,81.0,110.0
143,84.05406805416666,84.49996338333334,79.0,116.0
144,84.50182905416666,84.94959005416666,79.0,114.0
145,84.94959005416666,85.39735105416666,76.0,114.0
146,85.39735105416666,85.84511205416666,74.0,119.0
147,85.84511205416666,86.96264888333333,72.0,117.0
148,86.96451455416667,87.41227555416667,72.0,114.0
149,87.41227555416667,87.8898872875,76.0,116.0
150,87.86003655416667,88.30779755416667,77.0,117.0
151,88.30779755416667,88.75555855416667,79.0,119.0
152,88.75555855416667,89.20331955416667,77.0,114.0
153,89.20331955416667,89.65108055416667,76.0,114.0
154,89.65108055416667,90.54473688333333,79.0,117.0
155,90.54660255416667,90.99249788333333,79.0,117.0
156,90.99436355416667,91.44025888333333,79.0,119.0
157,91.44212455416667,91.88801988333334,79.0,117.0
158,91.88988555416667,92.33764655416667,79.0,119.0
159,92.33764655416667,92.56152705416667,81.0,113.0
160,92.56152705416667,93.00928805416667,83.0,116.0
161,93.00928805416667,94.12682488333334,84.0,119.0
162,94.12869055416667,94.57458588333334,84.0,116.0
163,94.57645155416667,95.02421255416667,84.0,114.0
164,95.02421255416667,95.24622738333333,83.0,117.0
165,95.24809305416667,95.69585405416667,83.0,120.0
166,95.69585405416667,96.36562988333334,81.0,120.0
167,96.36749555416667,96.81525655416667,81.0,119.0
168,96.81525655416667,97.26301755416667,83.0,119.0
169,97.26301755416667,97.71077855416667,81.0,116.0
170,97.71077855416667,97.96637545833333,79.0,119.0
171,97.93465905416667,98.38242005416667,76.0,114.0
172,98.38242005416667,99.05406155416667,81.0,116.0
173,99.05406155416667,101.29286655416666,79.0,120.0
174,101.29286655416666,101.73876188333334,81.0,113.0
175,101.74062755416666,102.18838855416666,81.0,114.0
176,102.18838855416666,102.42346307916667,77.0,113.0
177,102.41226905416667,103.08391055416666,76.0,117.0
178,103.08391055416666,103.36562685,74.0,117.0
179,103.30779105416667,103.75555205416667,76.0,110.0
180,103.75555205416667,104.42719355416666,77.0,117.0
181,104.42719355416666,104.87308888333334,79.0,119.0
182,104.87495455416666,105.32084988333334,79.0,117.0
183,105.32271555416666,105.76861088333334,79.0,120.0
184,105.77047655416666,105.99435705416667,79.0,117.0
185,105.99435705416667,106.44211805416667,86.0,119.0
186,106.44211805416667,108.00928155416666,84.0,120.0
187,108.00928155416666,108.45517688333334,77.0,116.0
188,108.45704255416666,108.67905738333333,77.0,114.0
189,108.68092305416667,109.12868405416667,77.0,113.0
190,109.12868405416667,109.80032555416668,79.0,119.0
191,109.80032555416668,110.24808655416668,76.0,116.0
192,110.24808655416668,110.69584755416668,72.0,117.0
193,110.69584755416668,110.97942952083334,69.0,117.0
194,110.91972805416667,112.03913055416668,72.0,116.0
195,112.03913055416668,112.48689155416668,77.0,117.0
196,112.48689155416668,112.93465255416668,76.0,116.0
197,112.93465255416668,113.38241355416667,74.0,119.0
198,113.38241355416667,113.83017455416667,72.0,119.0
199,113.83017455416667,114.27793555416667,69.0,116.0
200,114.27793555416667,114.72569655416667,71.0,113.0
201,114.72569655416667,115.1921142625,72.0,117.0
202,144.27792255416668,144.72381788333334,76.0,116.0
203,144.72568355416666,145.17157888333332,76.0,117.0
204,145.17344455416668,145.61933988333334,76.0,116.0
205,145.62120555416666,146.06896655416668,76.0,117.0
206,146.06896655416668,146.51672755416666,74.0,116.0
207,146.51672755416666,146.96448855416668,72.0,117.0
208,146.96448855416668,147.41224955416666,71.0,117.0
209,147.41224955416666,147.85814488333332,74.0,116.0
210,147.86001055416668,148.30590588333334,74.0,116.0
211,148.30777155416666,148.75553255416668,74.0,108.0
212,148.75553255416668,150.09881555416666,72.0,113.0
213,150.09881555416666,150.38239752083334,76.0,108.0
214,150.32269605416667,150.54657655416668,74.0,98.0
215,150.54657655416668,150.99247188333334,72.0,114.0
216,150.99433755416666,151.44023288333332,72.0,113.0
217,151.44209855416668,151.66597905416668,72.0,108.0
218,151.66597905416668,151.88985955416666,69.0,107.0
219,151.88985955416666,152.11374005416667,72.0,108.0
220,152.11374005416667,152.33762055416668,69.0,104.0
221,152.33762055416668,152.78538155416666,72.0,116.0
222,152.78538155416666,153.68090355416666,69.0,113.0
223,153.68090355416666,153.91038106666667,76.0,116.0
224,153.90478405416667,154.12866455416668,74.0,102.0
225,154.12866455416668,154.57455988333334,72.0,113.0
226,154.57642555416666,155.02232088333335,72.0,114.0
227,155.02418655416668,155.24806705416668,72.0,113.0
228,155.24806705416668,155.47194755416666,67.0,98.0
229,155.47194755416666,155.69582805416667,72.0,110.0
230,155.69582805416667,155.91970855416668,69.0,104.0
231,155.91970855416668,156.36746955416666,72.0,110.0
232,156.36746955416666,158.60627455416667,74.0,117.0
233,158.60627455416667,159.05216988333333,76.0,104.0
234,159.05403555416666,159.49993088333335,76.0,108.0
235,159.50179655416667,159.94769188333333,76.0,110.0
236,159.94955755416666,160.41037825,76.0,110.0
237,160.39731855416667,160.84507955416666,74.0,108.0
238,160.84507955416666,161.29284055416667,72.0,113.0
239,161.29284055416667,161.77791497083334,74.0,114.0
240,161.74060155416666,162.18649688333335,76.0,114.0
241,162.18836255416667,162.63612355416666,76.0,116.0
242,162.63612355416666,163.30776505416668,77.0,114.0
243,163.30776505416668,164.42716755416666,76.0,114.0
244,164.42716755416666,164.87492855416667,74.0,116.0
245,164.87492855416667,165.32268955416666,76.0,116.0
246,165.32268955416666,165.77045055416667,77.0,114.0
247,165.77045055416667,166.21634588333333,76.0,113.0
248,166.21821155416666,166.66597255416667,76.0,113.0
249,166.66597255416667,168.00738988333333,74.0,114.0
250,168.00925555416666,168.45701655416667,74.0,114.0
251,168.45701655416667,168.90477755416666,76.0,113.0
252,168.90477755416666,169.35253855416667,77.0,113.0
253,169.35253855416667,169.80029955416666,79.0,114.0
254,169.80029955416666,170.24806055416667,76.0,108.0
255,170.24806055416667,172.48499988333333,74.0,116.0
256,172.48686555416668,172.70888038333334,74.0,113.0
257,172.71074605416666,172.93462655416667,74.0,108.0
258,172.93462655416667,173.38238755416668,72.0,114.0
259,173.38238755416668,173.60440238333334,74.0,117.0
260,173.60626805416666,173.83014855416667,74.0,114.0
261,173.83014855416667,174.27790955416668,72.0,114.0
262,174.27790955416668,174.49992438333334,74.0,113.0
263,174.50179005416666,174.72567055416667,74.0,110.0
264,174.72567055416667,175.17343155416668,72.0,100.0
265,175.17343155416668,175.39544638333334,74.0,117.0
266,175.39731205416666,175.62119255416667,74.0,110.0
267,175.62119255416667,176.06895355416668,72.0,113.0
268,176.06895355416668,176.29096838333334,74.0,113.0
269,176.29283405416666,176.51671455416667,74.0,108.0
270,176.51671455416667,176.96447555416668,72.0,108.0
271,176.96447555416668,177.18649038333334,74.0,117.0
272,177.18835605416666,177.41223655416667,74.0,110.0
273,177.41223655416667,177.63611705416668,72.0,114.0
274,177.63611705416668,178.08387805416666,76.0,116.0
275,178.08387805416666,178.30775855416667,74.0,116.0
276,178.30775855416667,178.53163905416667,72.0,108.0
277,178.53163905416667,178.75551955416668,76.0,113.0
278,178.75551955416668,179.20328055416667,74.0,114.0
279,179.20328055416667,180.09880255416667,72.0,117.0
280,180.09880255416667,180.54469788333333,77.0,119.0
281,180.54656355416668,180.99432455416667,77.0,119.0
282,180.99432455416667,181.44208555416668,79.0,117.0
283,181.44208555416668,181.88984655416667,76.0,120.0
284,181.88984655416667,182.11372705416667,72.0,114.0
285,182.11372705416667,182.56148805416666,74.0,114.0
286,182.56148805416666,183.23312955416668,76.0,116.0
287,183.23312955416668,183.67902488333334,77.0,117.0
288,183.68089055416667,183.90290538333335,77.0,117.0
289,183.90477105416667,184.35253205416666,77.0,119.0
290,184.35253205416666,185.02417355416668,79.0,116.0
291,185.02417355416668,185.47193455416667,76.0,116.0
292,185.47193455416667,185.69581505416667,72.0,96.0
293,185.69581505416667,186.14357605416666,69.0,113.0
294,186.14357605416666,187.71073955416668,72.0,116.0
295,187.71073955416668,188.15850055416666,76.0,104.0
296,188.15850055416666,188.60626155416668,77.0,110.0
297,188.60626155416668,189.05402255416666,79.0,116.0
298,189.05402255416666,189.50178355416668,77.0,110.0
299,189.50178355416668,189.94954455416666,76.0,108.0
300,189.94954455416666,190.84320088333334,79.0,117.0
301,190.84506655416666,191.29096188333332,79.0,119.0
302,191.29282755416668,191.73872288333334,79.0,117.0
303,191.74058855416666,192.18648388333332,79.0,117.0
304,192.18834955416668,192.63611055416666,79.0,119.0
305,192.63611055416666,193.08387155416668,81.0,117.0
306,193.08387155416668,193.53163255416666,83.0,116.0
307,193.53163255416666,194.42528888333334,84.0,119.0
308,194.42715455416666,194.87304988333335,84.0,117.0
309,194.87491555416668,195.32267655416666,84.0,116.0
310,195.32267655416666,195.54469138333334,83.0,117.0
311,195.54655705416667,195.99431805416668,83.0,116.0
312,195.99431805416668,196.66409388333335,81.0,120.0
313,196.66595955416668,197.11372055416666,81.0,114.0
314,197.11372055416666,197.56148155416668,83.0,116.0
315,197.56148155416668,198.00924255416666,81.0,114.0
316,198.00924255416666,198.23312305416667,79.0,116.0
317,198.23312305416667,198.68088405416668,76.0,116.0
318,198.68088405416668,199.35252555416668,81.0,116.0
319,199.35252555416668,201.59133055416666,79.0,120.0
320,201.59133055416666,202.03722588333335,81.0,119.0
321,202.03909155416667,202.48685255416666,81.0,113.0
322,202.48685255416666,202.71073305416667,77.0,114.0
323,202.71073305416667,203.38237455416666,76.0,114.0
324,203.38237455416666,203.60625505416667,74.0,116.0
325,203.60625505416667,204.05401605416668,76.0,114.0
326,204.05401605416668,205.17341855416666,77.0,116.0
327,205.17341855416666,205.61931388333335,79.0,113.0
328,205.62117955416667,206.06894055416666,79.0,114.0
329,206.06894055416666,206.29282105416667,76.0,114.0
330,206.29282105416667,206.96446255416666,74.0,113.0
331,206.96446255416666,207.18834305416667,72.0,107.0
332,207.18834305416667,207.63610405416668,74.0,110.0
333,207.63610405416668,208.30774555416667,76.0,116.0
334,208.30774555416667,208.75550655416666,77.0,114.0
335,208.75550655416666,208.97938705416666,76.0,110.0
336,208.97938705416666,209.42714805416668,77.0,117.0
337,209.42714805416668,210.09878955416667,79.0,116.0
338,210.09878955416667,210.54655055416666,76.0,117.0
339,210.54655055416666,210.77043105416666,72.0,107.0
340,210.77043105416666,211.21819205416668,69.0,107.0
341,211.21819205416668,211.88983355416667,72.0,114.0
342,211.88983355416667,212.33572888333333,81.0,113.0
343,212.33759455416669,212.55960938333334,81.0,108.0
344,212.56147505416666,213.00923605416668,81.0,110.0
345,213.00923605416668,213.45513138333334,79.0,116.0
346,213.45699705416666,213.90475805416668,79.0,114.0
347,213.90475805416668,214.35251905416666,76.0,114.0
348,214.35251905416666,214.80028005416668,74.0,119.0
349,214.80028005416668,215.91781688333333,72.0,117.0
350,215.91968255416668,216.36744355416667,72.0,114.0
351,216.36744355416667,216.8450552875,76.0,116.0
352,216.81520455416668,217.26296555416667,77.0,117.0
353,217.26296555416667,217.71072655416668,79.0,119.0
354,217.71072655416668,218.15848755416667,77.0,114.0
355,218.15848755416667,218.60624855416668,76.0,114.0
356,218.60624855416668,219.49990488333333,79.0,117.0
357,219.50177055416668,219.94766588333334,79.0,117.0
358,219.94953155416667,220.39542688333333,79.0,119.0
359,220.39729255416668,220.84318788333334,79.0,117.0
360,220.84505355416667,221.29281455416668,79.0,119.0
361,221.29281455416668,221.51669505416666,81.0,113.0
362,221.51669505416666,221.96445605416667,83.0,116.0
363,221.96445605416667,223.08199288333333,84.0,119.0
364,223.08385855416668,223.52975388333334,84.0,116.0
365,223.53161955416667,223.97938055416668,84.0,114.0
366,223.97938055416668,224.20139538333333,83.0,117.0
367,224.20326105416666,224.65102205416667,83.0,120.0
368,224.65102205416667,225.32079788333334,81.0,120.0
369,225.32266355416667,225.77042455416668,81.0,119.0
370,225.77042455416668,226.21818555416667,83.0,119.0
371,226.21818555416667,226.66594655416668,81.0,116.0
372,226.66594655416668,226.92154345833333,79.0,119.0
373,226.88982705416666,227.33758805416667,76.0,114.0
374,227.33758805416667,228.00922955416667,81.0,116.0
375,228.00922955416667,230.24803455416668,79.0,120.0
376,230.24803455416668,230.69392988333334,81.0,113.0
377,230.69579555416666,231.14355655416668,81.0,114.0
378,231.14355655416668,231.37863107916667,77.0,113.0
379,231.36743705416666,232.03907855416668,76.0,117.0
380,232.03907855416668,232.32079485,74.0,117.0
381,232.26295905416669,232.71072005416667,76.0,110.0
382,232.71072005416667,233.38236155416666,77.0,117.0
383,233.38236155416666,233.82825688333332,79.0,119.0
384,233.83012255416668,234.27601788333334,79.0,117.0
385,234.27788355416666,234.72377888333335,79.0,120.0
386,234.72564455416668,234.94952505416668,79.0,117.0
387,234.94952505416668,235.39728605416667,86.0,119.0
388,235.39728605416667,236.96444955416666,84.0,120.0
389,236.96444955416666,237.41034488333335,77.0,116.0
390,237.41221055416668,237.63422538333333,77.0,114.0
391,237.63609105416668,238.08385205416667,77.0,113.0
392,238.08385205416667,238.75549355416666,79.0,119.0
393,238.75549355416666,239.20325455416668,76.0,116.0
394,239.20325455416668,239.65101555416666,72.0,117.0
395,239.65101555416666,239.93459752083334,69.0,117.0
396,239.87489605416667,240.99429855416668,72.0,116.0
397,240.99429855416668,241.44205955416666,77.0,117.0
398,241.44205955416666,241.88982055416668,76.0,116.0
399,241.88982055416668,242.33758155416666,74.0,119.0
400,242.33758155416666,242.78534255416668,72.0,119.0
401,242.78534255416668,243.23310355416666,69.0,116.0
402,243.23310355416666,243.68086455416667,71.0,113.0
403,243.68086455416667,244.1472822625,72.0,117.0
