,start,end,pitch,velocity
0,1.4421635541666666,2.3022378083333335,60.0,76.0
1,2.337685554166667,2.8731330833333333,67.0,81.0
2,2.337685554166667,2.921640525,62.0,79.0
3,2.7854465541666666,3.518655191666667,60.0,42.0
4,0.5466415541666667,3.714550629166667,48.0,90.0
5,0.9944025541666667,3.7182819708333334,55.0,77.0
6,3.233207554166667,4.134326566666667,67.0,83.0
7,3.233207554166667,4.145520591666667,62.0,86.0
8,4.576490554166667,5.268654433333333,53.0,78.0
9,5.024251554166667,5.52984835,60.0,85.0
10,5.024251554166667,5.555967741666667,57.0,83.0
11,5.472012554166667,6.0205197791666665,53.0,56.0
12,5.9197735541666665,6.360071870833333,65.0,85.0
13,5.9197735541666665,6.5541016375000005,57.0,83.0
14,6.367534554166666,6.921638791666667,53.0,48.0
15,4.128729554166667,7.266787895833334,41.0,87.0
16,6.815295554166667,7.322758020833334,57.0,84.0
17,6.815295554166667,7.486937054166667,60.0,91.0
18,7.263056554166667,7.6735041375,53.0,79.0
19,7.710817554166667,8.057832329166667,60.0,76.0
20,7.710817554166667,8.113802454166667,64.0,83.0
21,8.606339554166667,8.873130483333334,62.0,81.0
22,8.606339554166667,8.891787191666667,67.0,85.0
23,9.501861554166666,9.919771820833333,67.0,80.0
24,9.501861554166666,9.966413591666667,62.0,82.0
25,9.949622554166666,10.458950691666667,60.0,68.0
26,8.158578554166667,10.561562587500001,55.0,63.0
27,7.710817554166667,10.617532712500001,48.0,73.0
28,10.397383554166668,11.298502566666667,67.0,88.0
29,10.397383554166668,11.324621958333333,62.0,91.0
30,12.188427554166667,13.3264867625,57.0,80.0
31,12.636188554166667,14.052232716666667,60.0,82.0
32,11.292905554166667,14.1996207125,41.0,84.0
33,11.740666554166667,14.337680354166666,53.0,68.0
34,13.979471554166667,14.4458892625,67.0,86.0
35,14.874993554166666,15.320888883333334,67.0,65.0
36,14.874993554166666,15.451485841666667,60.0,80.0
37,14.874993554166666,15.457082854166668,64.0,78.0
38,15.770515554166668,16.5223809,67.0,84.0
39,15.770515554166668,16.552231633333335,64.0,81.0
40,15.770515554166668,16.555962975,60.0,80.0
41,16.666037554166667,17.343276066666668,67.0,84.0
42,16.666037554166667,17.354470091666666,64.0,86.0
43,16.666037554166667,17.376858141666666,60.0,82.0
44,14.874993554166666,17.981335491666666,48.0,79.0
45,17.561559554166667,18.100738425,64.0,88.0
46,17.561559554166667,18.108201108333333,67.0,87.0
47,17.561559554166667,18.130589158333333,60.0,87.0
48,18.457081554166667,18.858200783333334,64.0,84.0
49,18.457081554166667,18.981335058333332,60.0,81.0
50,18.457081554166667,19.194021533333334,57.0,82.0
51,19.352603554166667,20.041036091666665,64.0,83.0
52,19.352603554166667,20.093274875,57.0,83.0
53,19.352603554166667,20.1044689,60.0,84.0
54,20.248125554166666,20.912304370833333,64.0,86.0
55,20.248125554166666,20.9831998625,60.0,87.0
56,20.248125554166666,20.996259558333335,57.0,85.0
57,21.143647554166666,21.589542883333333,64.0,88.0
58,21.143647554166666,21.597005566666667,57.0,84.0
59,18.457081554166667,21.6324533125,45.0,84.0
60,21.143647554166666,21.636184654166666,60.0,88.0
61,22.039169554166666,22.686557333333333,65.0,88.0
62,22.039169554166666,22.725736420833332,60.0,87.0
63,22.039169554166666,22.76864685,57.0,87.0
64,22.93469155416667,23.617527079166667,65.0,90.0
65,22.93469155416667,23.662303179166667,57.0,88.0
66,22.93469155416667,23.733198670833335,60.0,87.0
67,23.83021355416667,24.51491475,65.0,89.0
68,23.83021355416667,24.5317057875,57.0,87.0
69,23.83021355416667,24.557825179166667,60.0,84.0
70,22.039169554166666,25.277974120833335,41.0,83.0
71,24.72573555416667,25.289168145833333,57.0,88.0
72,24.72573555416667,25.2984965,60.0,88.0
73,22.039169554166666,25.3040935125,53.0,80.0
74,24.72573555416667,25.305959183333332,65.0,88.0
75,25.621257554166668,26.124988679166666,65.0,104.0
76,25.621257554166668,26.1884214875,60.0,96.0
77,25.621257554166668,26.287302041666667,56.0,85.0
78,26.516779554166668,26.9384211625,65.0,96.0
79,26.516779554166668,26.962674883333335,60.0,90.0
80,26.516779554166668,26.979465920833334,56.0,85.0
81,25.621257554166668,27.011182325,41.0,84.0
82,25.621257554166668,27.046630070833334,53.0,81.0
83,27.412301554166667,28.156704216666668,62.0,81.0
84,27.412301554166667,28.233196720833334,55.0,78.0
85,27.412301554166667,28.246256416666668,59.0,81.0
86,28.307823554166667,28.787300958333333,62.0,87.0
87,28.307823554166667,28.8749874875,59.0,84.0
88,28.307823554166667,28.99065907916667,55.0,82.0
89,27.412301554166667,29.100733658333333,43.0,76.0
90,29.203345554166667,29.623121491666666,55.0,76.0
91,29.203345554166667,29.8376736375,64.0,85.0
92,29.203345554166667,29.919763154166667,60.0,82.0
93,30.098867554166667,30.7331956375,64.0,86.0
94,30.098867554166667,30.772374725000002,55.0,87.0
95,30.098867554166667,30.815285154166666,60.0,87.0
96,30.994389554166666,31.61565794166667,64.0,87.0
97,30.994389554166666,31.658568370833333,55.0,87.0
98,30.994389554166666,31.677225079166668,60.0,87.0
99,29.203345554166667,32.30409047916667,48.0,79.0
100,31.889911554166666,32.317150175,55.0,90.0
101,31.889911554166666,32.371254629166664,64.0,88.0
102,31.889911554166666,32.416030729166664,60.0,91.0
103,32.785433554166666,33.46080639583334,62.0,94.0
104,32.785433554166666,33.466403408333335,65.0,93.0
105,32.785433554166666,33.52237353333334,58.0,95.0
106,32.785433554166666,33.90297038333333,46.0,84.0
107,33.680955554166665,34.27797022083333,65.0,96.0
108,33.680955554166665,34.44774626666667,62.0,100.0
109,33.680955554166665,34.513044745833334,58.0,106.0
110,34.128716554166665,34.52610444166667,46.0,95.0
111,34.576477554166665,35.268641433333336,64.0,91.0
112,34.576477554166665,35.339536925,57.0,90.0
113,34.576477554166665,35.34140259583334,61.0,100.0
114,34.576477554166665,35.697745725000004,45.0,86.0
115,35.471999554166665,35.88058146666667,64.0,94.0
116,35.471999554166665,35.9104322,61.0,97.0
117,35.471999554166665,36.25558130416667,57.0,91.0
118,35.919760554166665,36.3302081375,45.0,90.0
119,36.367521554166665,37.095133179166666,65.0,93.0
120,36.367521554166665,37.11752122916667,60.0,93.0
121,36.367521554166665,37.128715254166664,62.0,98.0
122,36.367521554166665,37.14177495,57.0,90.0
123,36.367521554166665,37.50184942083333,50.0,93.0
124,37.263043554166664,37.77237169166667,57.0,90.0
125,37.263043554166664,37.77796870416667,65.0,92.0
126,37.263043554166664,37.96826712916667,62.0,94.0
127,37.263043554166664,38.00558054583333,60.0,94.0
128,37.710804554166664,38.0428939625,50.0,87.0
129,38.158565554166664,38.80222199166667,65.0,85.0
130,38.158565554166664,38.82834138333333,60.0,84.0
131,38.158565554166664,38.833938395833336,62.0,83.0
132,38.158565554166664,38.858192116666665,57.0,80.0
133,39.05408755416667,39.406699341666666,57.0,84.0
134,39.05408755416667,39.42162470833333,60.0,88.0
135,39.05408755416667,39.432818733333335,65.0,87.0
136,39.05408755416667,39.43468440416667,62.0,87.0
137,39.94960955416667,40.604460016666664,65.0,93.0
138,39.94960955416667,40.6175197125,62.0,93.0
139,39.94960955416667,40.69214654583333,56.0,86.0
140,40.84513155416667,41.3283403,62.0,91.0
141,40.84513155416667,41.33020597083333,65.0,91.0
142,40.84513155416667,41.339534325,56.0,85.0
143,39.94960955416667,41.361922375,53.0,83.0
144,39.94960955416667,41.3899074375,41.0,84.0
145,41.74065355416667,42.2966234625,64.0,87.0
146,41.74065355416667,42.382444320833336,59.0,84.0
147,41.74065355416667,42.4029667,56.0,80.0
148,41.74065355416667,42.695877020833336,52.0,72.0
149,41.74065355416667,42.729459095833334,40.0,79.0
150,42.63617555416667,43.167891741666665,56.0,85.0
151,42.63617555416667,43.274234979166664,44.0,86.0
152,42.63617555416667,43.287294675,64.0,91.0
153,42.63617555416667,43.40296626666667,59.0,92.0
154,43.53169755416667,44.17162265,64.0,94.0
155,43.53169755416667,44.2555778375,60.0,100.0
156,43.53169755416667,44.26863753333333,57.0,88.0
157,44.42721955416667,45.085801358333335,64.0,93.0
158,44.42721955416667,45.2070699625,57.0,91.0
159,44.42721955416667,45.238786366666666,60.0,91.0
160,43.53169755416667,45.354457958333334,45.0,87.0
161,45.32274155416667,45.93841292916667,64.0,89.0
162,45.32274155416667,45.98318902916667,55.0,85.0
163,45.32274155416667,46.016771104166665,59.0,88.0
164,46.21826355416667,46.8190095625,55.0,87.0
165,46.21826355416667,46.822740904166665,64.0,88.0
166,45.32274155416667,46.85632297916667,43.0,88.0
167,46.21826355416667,46.96266621666667,59.0,90.0
168,47.11378555416667,47.7481136375,64.0,86.0
169,47.11378555416667,47.78915839583333,60.0,88.0
170,47.11378555416667,47.82460614166667,57.0,85.0
171,48.00930755416667,48.634307283333335,64.0,91.0
172,48.00930755416667,48.68468039583333,60.0,96.0
173,48.00930755416667,48.686546066666665,57.0,91.0
174,47.11378555416667,48.77050125416667,45.0,83.0
175,48.90482955416667,49.39176964166667,64.0,91.0
176,48.90482955416667,49.57647105416667,55.0,87.0
177,48.90482955416667,49.61565014166667,59.0,91.0
178,48.90482955416667,49.9757246125,43.0,86.0
179,49.80035155416667,50.28729164166667,64.0,89.0
180,49.80035155416667,50.294754325,55.0,89.0
181,49.80035155416667,50.45520201666667,59.0,91.0
182,50.24811255416667,50.64363477083334,43.0,83.0
183,50.69587355416667,51.3637837125,65.0,88.0
184,50.69587355416667,51.36751505416667,62.0,87.0
185,50.69587355416667,51.42721652083333,57.0,86.0
186,50.69587355416667,51.8115447125,50.0,84.0
187,51.59139555416667,52.093261008333336,62.0,93.0
188,51.59139555416667,52.09512667916667,60.0,92.0
189,51.59139555416667,52.1025893625,57.0,92.0
190,51.59139555416667,52.108186375,65.0,91.0
191,52.03915655416667,52.20146991666667,50.0,81.0
192,52.486917554166666,53.08020087916667,65.0,87.0
193,52.486917554166666,53.085797891666665,62.0,84.0
194,52.486917554166666,53.10072325833333,60.0,84.0
195,52.486917554166666,53.13617100416667,57.0,85.0
196,52.486917554166666,53.874976654166666,50.0,85.0
197,53.382439554166666,53.876842325,65.0,89.0
198,53.382439554166666,53.9272154375,60.0,89.0
199,53.382439554166666,53.93281245,62.0,88.0
200,53.382439554166666,53.9496034875,57.0,88.0
201,54.277961554166666,54.914155308333335,60.0,92.0
202,54.277961554166666,54.914155308333335,65.0,89.0
203,54.277961554166666,54.929080675,57.0,88.0
204,54.277961554166666,55.74437882916667,41.0,84.0
205,55.173483554166665,55.74997584166667,57.0,91.0
206,55.173483554166665,55.77796090416667,65.0,93.0
207,54.277961554166666,55.8413937125,53.0,86.0
208,55.173483554166665,55.9645279875,60.0,94.0
209,56.069005554166665,56.777960470833335,62.0,107.0
210,56.069005554166665,56.785423154166665,67.0,92.0
211,56.069005554166665,56.7928858375,59.0,92.0
212,56.740647054166665,57.06900512083333,55.0,90.0
213,56.069005554166665,57.44587062916667,43.0,87.0
214,56.516766554166665,57.511169108333334,50.0,71.0
215,56.964527554166665,57.51490045,59.0,104.0
216,56.964527554166665,57.62497502916667,67.0,104.0
217,57.412288554166665,57.73878095,55.0,84.0
218,56.964527554166665,57.76490034166667,62.0,114.0
219,58.531691054166664,58.61564624166667,62.0,83.0
220,58.307810554166664,58.848855095833336,60.0,88.0
221,58.75557155416667,59.304078779166666,67.0,108.0
222,58.75557155416667,59.30594445,62.0,98.0
223,59.20333255416667,59.40482500416667,60.0,80.0
224,58.083930054166665,59.860048687500004,55.0,80.0
225,59.42721305416667,60.35631712916667,67.0,100.0
226,59.42721305416667,60.369376825,62.0,102.0
227,60.32273505416667,60.807809470833334,55.0,87.0
228,57.860049554166665,60.82086916666667,48.0,94.0
229,60.54661555416667,61.0354213125,62.0,114.0
230,60.99437655416667,61.332062975,64.0,88.0
231,60.54661555416667,61.33392864583333,67.0,110.0
232,61.44213755416667,61.95706270416667,64.0,107.0
233,61.44213755416667,62.152958141666666,59.0,104.0
234,61.44213755416667,62.1660178375,67.0,91.0
235,62.11377905416667,62.49437590416667,52.0,88.0
236,62.33765955416667,62.966390625,59.0,108.0
237,62.33765955416667,62.996241358333336,67.0,108.0
238,63.00930105416667,63.647360479166665,52.0,80.0
239,63.23318155416667,63.936539458333336,67.0,107.0
240,63.23318155416667,63.951464825,59.0,108.0
241,63.90482305416667,64.197733375,52.0,89.0
242,61.44213755416667,64.57646455416666,40.0,88.0
243,64.12870355416666,64.62497199583333,59.0,116.0
244,64.12870355416666,64.891762925,67.0,113.0
245,64.57646455416666,64.92534500000001,52.0,87.0
246,65.02422555416666,65.39549405,57.0,91.0
247,65.02422555416666,65.60631485416667,64.0,93.0
248,65.02422555416666,65.742508825,60.0,102.0
249,65.02422555416666,65.7760909,67.0,89.0
250,65.69586705416667,66.04661317083334,57.0,90.0
251,66.36750855416666,66.60071740833334,60.0,38.0
252,65.91974755416666,66.63429948333334,59.0,96.0
253,65.91974755416666,66.67907558333333,64.0,93.0
254,65.91974755416666,66.67907558333333,67.0,91.0
255,66.36750855416666,66.90855309583334,57.0,84.0
256,66.81526955416666,66.97198590416667,59.0,93.0
257,67.03915005416667,67.39549318333333,60.0,44.0
258,66.81526955416666,67.51489611666666,64.0,91.0
259,66.81526955416666,67.5167617875,67.0,100.0
260,67.48691105416667,67.82646314583333,57.0,87.0
261,65.47198655416666,68.059672,52.0,84.0
262,68.15855255416666,68.25743310833333,52.0,86.0
263,67.71079155416666,68.26116445,60.0,113.0
264,65.02422555416666,68.27049280416666,45.0,88.0
265,67.71079155416666,68.272358475,64.0,116.0
266,67.71079155416666,68.47758226666667,67.0,108.0
267,68.60631355416666,69.22571627083333,59.0,96.0
268,68.60631355416666,69.29288042083334,64.0,107.0
269,68.60631355416666,69.302208775,67.0,92.0
270,69.27795505416667,69.5988504375,52.0,100.0
271,69.50183555416668,69.93840252916667,67.0,107.0
272,69.50183555416668,69.96638759166667,64.0,110.0
273,69.50183555416668,70.018626375,59.0,110.0
274,69.05407455416668,70.49623810833333,47.0,72.0
275,69.94959655416667,70.52422317083334,52.0,84.0
276,70.39735755416667,70.85631257916667,55.0,102.0
277,70.39735755416667,71.070864725,62.0,89.0
278,71.06899905416667,71.339521325,52.0,110.0
279,71.29287955416667,71.57273017916667,55.0,117.0
280,71.29287955416667,71.57646152083333,62.0,119.0
281,68.60631355416666,71.78914799583333,40.0,92.0
282,70.84511855416667,71.79847635,47.0,75.0
283,71.51676005416667,71.832058425,52.0,104.0
284,71.74064055416667,71.92907330833333,62.0,107.0
285,71.74064055416667,72.0447449,59.0,110.0
286,72.18840155416667,72.66414761666667,57.0,110.0
287,72.18840155416667,72.89175945833334,60.0,108.0
288,72.18840155416667,72.94213257083334,64.0,108.0
289,73.08392355416667,73.6398934625,57.0,113.0
290,73.08392355416667,73.67534120833334,64.0,110.0
291,72.18840155416667,73.70332627083333,41.0,90.0
292,73.53168455416667,73.87310231666667,53.0,73.0
293,72.63616255416667,73.88429634166667,48.0,76.0
294,73.08392355416667,73.90481872083333,60.0,116.0
295,73.97944555416667,74.65668406666667,59.0,100.0
296,73.97944555416667,74.66228107916668,67.0,107.0
297,73.97944555416667,74.6697437625,62.0,114.0
298,74.65108705416667,75.08765402916667,55.0,92.0
299,74.87496755416667,75.13802714166667,59.0,110.0
300,74.87496755416667,75.15668385000001,67.0,107.0
301,74.42720655416667,75.18093757083334,50.0,84.0
302,73.97944555416667,75.19772860833334,43.0,91.0
303,75.09884805416667,75.2742211125,62.0,94.0
304,75.32272855416667,75.391758375,62.0,83.0
305,75.32272855416667,75.60631052083333,64.0,92.0
306,75.54660905416667,75.65108662083334,67.0,79.0
307,75.77048955416667,76.42907135833333,67.0,102.0
308,75.77048955416667,76.45332507916667,64.0,110.0
309,75.77048955416667,76.47011611666667,59.0,104.0
310,76.44213105416667,76.77608613333334,52.0,90.0
311,76.66601155416667,76.99996663333333,64.0,117.0
312,75.77048955416667,77.13056359166667,40.0,94.0
313,76.66601155416667,77.21451877916667,59.0,110.0
314,76.66601155416667,77.42533958333334,67.0,107.0
315,77.11377255416667,77.4794440375,52.0,87.0
316,77.56153355416667,77.90668265833334,57.0,94.0
317,77.56153355416667,78.2406377375,64.0,91.0
318,77.56153355416667,78.24436907916667,60.0,100.0
319,77.56153355416667,78.28354816666666,67.0,89.0
320,78.45705555416667,78.54101074166667,64.0,86.0
321,78.45705555416667,78.69586142083334,67.0,66.0
322,78.23317505416667,78.75742855833333,57.0,94.0
323,78.45705555416667,78.8227270375,59.0,108.0
324,78.00929455416667,78.82645837916667,52.0,69.0
325,77.56153355416667,78.83018972083333,45.0,88.0
326,78.68093605416666,78.861906125,60.0,107.0
327,78.90481655416667,79.24996565833334,64.0,108.0
328,79.35257755416667,79.91227880416668,57.0,93.0
329,79.35257755416667,80.04101009166666,65.0,96.0
330,79.35257755416667,80.0652638125,60.0,98.0
331,79.35257755416667,80.07459216666666,62.0,104.0
332,80.02421905416666,80.3675024875,50.0,77.0
333,80.24809955416667,80.96824849583334,57.0,107.0
334,80.24809955416667,80.988770875,65.0,104.0
335,80.24809955416667,80.9999649,60.0,113.0
336,80.24809955416667,81.00183057083333,62.0,114.0
337,80.91974105416666,81.36563638333334,50.0,83.0
338,81.14362155416667,81.81526305416666,57.0,96.0
339,81.14362155416667,81.81899439583333,65.0,100.0
340,81.14362155416667,81.82086006666667,62.0,110.0
341,81.14362155416667,81.83205409166666,60.0,110.0
342,81.81526305416666,82.175337525,50.0,100.0
343,79.35257755416667,82.4272030875,38.0,92.0
344,82.03914355416667,82.62496419583333,65.0,110.0
345,82.48690455416667,82.6510835875,40.0,100.0
346,82.03914355416667,82.6510835875,57.0,110.0
347,82.03914355416667,82.72197907916667,62.0,117.0
348,82.03914355416667,82.73690444583333,60.0,117.0
349,82.93466555416667,83.63988912916666,65.0,108.0
350,82.93466555416667,83.6585458375,57.0,110.0
351,82.93466555416667,83.67720254583334,60.0,116.0
352,83.60630705416666,83.9607845125,53.0,110.0
353,82.93466555416667,84.04287402916667,41.0,100.0
354,83.83018755416667,84.51675442083334,57.0,110.0
355,83.83018755416667,84.5372768,65.0,107.0
356,84.27794855416667,84.55033649583333,41.0,102.0
357,84.50182905416666,84.58578424166667,42.0,86.0
358,83.83018755416667,84.58578424166667,60.0,117.0
359,84.72570955416667,85.37496300416667,67.0,114.0
360,84.72570955416667,85.38429135833333,59.0,104.0
361,84.72570955416667,85.40294806666667,62.0,114.0
362,85.17347055416667,85.44772416666667,55.0,110.0
363,84.94959005416666,85.49996295,50.0,89.0
364,84.72570955416667,85.6622763125,43.0,110.0
365,85.39735105416666,86.12869402083334,59.0,113.0
366,85.39735105416666,86.13055969166666,67.0,114.0
367,85.84511205416666,86.19212682916667,43.0,98.0
368,85.62123155416667,86.21264920833333,62.0,117.0
369,86.51675355416667,86.94772351666667,60.0,108.0
370,86.51675355416667,87.2630218875,64.0,117.0
371,86.51675355416667,87.2630218875,67.0,108.0
372,87.18839505416666,87.50742476666667,55.0,87.0
373,87.41227555416667,87.82458880833333,64.0,114.0
374,87.41227555416667,87.87496192083333,60.0,108.0
375,87.41227555416667,87.97757381666666,67.0,110.0
376,88.30779755416667,88.70331977083333,62.0,100.0
377,88.53167805416666,88.78167794583334,64.0,76.0
378,88.30779755416667,89.0596629,67.0,113.0
379,88.97943905416666,89.39921499166667,60.0,102.0
380,89.20331955416667,89.47011048333333,72.0,114.0
381,87.86003655416667,89.50928957083333,55.0,81.0
382,89.20331955416667,89.52608060833333,64.0,114.0
383,86.51675355416667,89.61190146666667,48.0,89.0
384,89.42720005416668,89.77794617083333,67.0,86.0
385,89.65108055416667,89.9831699625,72.0,82.0
386,90.77048305416668,91.1809306375,59.0,92.0
387,90.99436355416667,91.71264682500001,67.0,108.0
388,90.99436355416667,91.73316920416667,62.0,114.0
389,91.66600505416667,91.98316909583333,59.0,86.0
390,90.54660255416667,92.01115415833334,55.0,80.0
391,91.88988555416667,92.60443748333334,67.0,108.0
392,91.88988555416667,92.63988522916667,62.0,110.0
393,92.56152705416667,92.99063134583334,55.0,88.0
394,90.09884155416667,93.1510790375,47.0,107.0
395,92.78540755416667,93.26675062916667,62.0,116.0
396,92.78540755416667,93.29846703333334,67.0,110.0
397,93.68092955416667,94.1473472625,69.0,107.0
398,93.68092955416667,94.24063080416667,64.0,104.0
399,93.68092955416667,94.40667550833334,60.0,89.0
400,94.35257105416667,94.66973509583333,57.0,92.0
401,94.57645155416667,95.14734682916666,59.0,110.0
402,95.02421255416667,95.16973487916667,57.0,83.0
403,93.68092955416667,95.2107796375,45.0,89.0
404,94.57645155416667,95.26488409166667,64.0,114.0
405,94.12869055416667,95.48503325,52.0,77.0
406,95.47197355416667,96.09883895416667,67.0,93.0
407,95.47197355416667,96.11376432083334,59.0,90.0
408,95.47197355416667,96.123092675,62.0,104.0
409,96.14361505416667,96.42906269166667,55.0,79.0
410,95.91973455416667,96.5092865375,52.0,81.0
411,95.47197355416667,96.54473428333334,43.0,86.0
412,96.36749555416667,96.89921174166668,67.0,113.0
413,96.36749555416667,96.90294308333334,59.0,113.0
414,96.81525655416667,96.97197290416666,43.0,86.0
415,96.36749555416667,97.05592809166667,62.0,117.0
416,97.71077855416667,98.24622608333334,52.0,87.0
417,98.15853955416667,98.3003305375,55.0,114.0
418,98.15853955416667,98.61749457916667,64.0,116.0
419,98.60630055416667,99.235031625,52.0,87.0
420,99.05406155416667,99.458912125,59.0,110.0
421,99.05406155416667,99.68092695416667,67.0,110.0
422,99.05406155416667,99.72010604166667,64.0,114.0
423,99.72570305416667,99.98689697083334,52.0,96.0
424,99.94958355416667,100.2480908875,59.0,119.0
425,97.26301755416667,100.4271952875,40.0,104.0
426,100.39734455416666,100.61376237083334,64.0,119.0
427,100.17346405416667,100.66600115416666,52.0,110.0
428,100.84510555416666,101.55406047083333,57.0,100.0
429,100.84510555416666,101.5577918125,60.0,104.0
430,100.62122505416667,101.56712016666667,67.0,91.0
431,101.51674705416667,101.8152543875,53.0,86.0
432,101.74062755416666,102.324582525,57.0,114.0
433,100.84510555416666,102.34323923333334,41.0,91.0
434,101.74062755416666,102.47010485,67.0,102.0
435,101.74062755416666,102.52980631666667,60.0,116.0
436,102.18838855416666,102.59137345416667,53.0,87.0
437,102.63614955416666,103.34697014166667,67.0,102.0
438,102.63614955416666,103.354432825,62.0,116.0
439,102.63614955416666,103.36189550833333,59.0,102.0
440,103.30779105416667,103.74995504166667,53.0,100.0
441,103.53167155416666,103.95517883333333,59.0,110.0
442,103.75555205416667,104.03913402083333,62.0,107.0
443,103.97943255416666,104.35256672083334,67.0,102.0
444,102.63614955416666,104.3674920875,41.0,89.0
445,104.42719355416666,105.11376042083333,59.0,96.0
446,104.42719355416666,105.11376042083333,64.0,113.0
447,104.42719355416666,105.11935743333333,67.0,93.0
448,105.09883505416667,105.41599909583334,52.0,100.0
449,104.42719355416666,105.74249149166667,40.0,88.0
450,105.32271555416666,105.861894425,62.0,117.0
451,105.32271555416666,105.8954765,59.0,110.0
452,105.32271555416666,106.12122267083333,67.0,100.0
453,105.32271555416666,106.12308834166667,64.0,113.0
454,105.77047655416666,106.1473420625,52.0,84.0
455,106.21823755416666,106.76487910833333,57.0,96.0
456,106.21823755416666,107.2443565125,60.0,110.0
457,106.21823755416666,107.26301322083333,64.0,94.0
458,107.11375955416666,107.3339087125,57.0,100.0
459,106.66599855416666,107.40480420416667,52.0,74.0
460,106.21823755416666,107.44771463333333,45.0,87.0
461,106.21823755416666,107.59323695833334,67.0,89.0
462,107.33764005416667,107.71823690416667,59.0,114.0
463,107.56152055416666,107.97756515,60.0,104.0
464,108.00928155416666,108.66413201666667,62.0,98.0
465,108.00928155416666,108.67346037083334,57.0,88.0
466,108.00928155416666,108.6771917125,65.0,93.0
467,108.00928155416666,108.69957976250001,60.0,85.0
468,108.45704255416666,108.973833375,50.0,84.0
469,108.00928155416666,109.3712212625,38.0,87.0
470,108.90480355416666,109.44025108333334,57.0,96.0
471,108.90480355416666,109.44025108333334,65.0,93.0
472,108.90480355416666,109.68838530416667,62.0,98.0
473,108.90480355416666,109.701445,60.0,94.0
474,109.35256455416666,109.78913152916667,50.0,83.0
475,109.80032555416668,110.3786835125,65.0,87.0
476,109.80032555416668,110.44398199166667,60.0,87.0
477,109.80032555416668,110.451444675,62.0,89.0
478,109.80032555416668,110.4794297375,57.0,86.0
479,109.80032555416668,110.83950420833334,50.0,83.0
480,110.69584755416668,111.24435477916667,65.0,98.0
481,110.69584755416668,111.28166819583333,57.0,94.0
482,110.69584755416668,111.48875765833334,62.0,104.0
483,110.69584755416668,111.53353375833333,60.0,98.0
484,111.14360855416668,111.61748894583333,50.0,86.0
485,111.59136955416668,112.1473394625,59.0,91.0
486,111.59136955416668,112.16039915833333,62.0,100.0
487,111.59136955416668,112.16599617083334,67.0,93.0
488,112.48689155416668,112.958906275,59.0,91.0
489,112.48689155416668,113.0092793875,62.0,94.0
490,112.48689155416668,113.0764435375,67.0,91.0
491,112.93465255416668,113.77980144166666,55.0,70.0
492,113.38241355416667,114.11375652083333,57.0,89.0
493,113.38241355416667,114.179055,62.0,89.0
494,113.38241355416667,114.18278634166667,67.0,86.0
495,114.05405505416667,114.3749504375,55.0,81.0
496,111.59136955416668,114.71263685833334,43.0,86.0
497,112.03913055416668,114.74248759166667,50.0,66.0
498,114.50181605416667,114.79845771666668,55.0,80.0
499,114.27793555416667,115.02233821666667,67.0,88.0
500,114.72569655416667,115.04845760833334,62.0,83.0
501,114.27793555416667,115.05592029166667,59.0,93.0
502,115.17345755416667,115.69771105833334,60.0,88.0
503,115.17345755416667,115.79659161250001,64.0,87.0
504,115.84509905416667,116.3450988375,55.0,65.0
505,116.06897955416667,116.44397939166667,60.0,107.0
506,116.06897955416667,116.50927787083333,64.0,107.0
507,116.74062105416667,117.34509840416666,60.0,82.0
508,116.96450155416667,117.5372625,62.0,102.0
509,116.96450155416667,117.6547997625,67.0,107.0
510,117.41226255416667,117.68651616666666,64.0,83.0
511,117.63614305416667,118.040993625,60.0,84.0
512,116.51674055416667,118.13427716666666,55.0,77.0
513,115.17345755416667,118.220098025,48.0,83.0
514,117.86002355416667,118.24062040416666,67.0,110.0
515,117.86002355416667,118.35629199583333,62.0,108.0
516,118.30778455416667,118.73129183333333,64.0,94.0
517,118.30778455416667,118.73315750416667,67.0,87.0
518,119.65106755416667,119.83950030833334,57.0,104.0
519,119.20330655416667,119.8488286625,53.0,83.0
520,119.65106755416667,120.10442556666666,60.0,113.0
521,119.65106755416667,120.2238285,65.0,104.0
522,120.09882855416667,120.62867907083334,53.0,79.0
523,120.54658955416667,120.72382828333333,69.0,108.0
524,120.54658955416667,120.861887925,65.0,108.0
525,120.54658955416667,121.18838032083333,60.0,100.0
526,120.99435055416667,121.66412638333334,53.0,82.0
527,121.21823105416667,121.68651443333333,57.0,94.0
528,121.21823105416667,121.82270840416668,65.0,92.0
529,121.66599205416667,121.99435012083333,60.0,87.0
530,118.75554555416667,122.0092754875,41.0,94.0
531,121.88987255416667,122.30591715,53.0,96.0
532,122.33763355416667,122.7144990625,60.0,94.0
533,122.33763355416667,122.7592751625,64.0,91.0
534,123.00927505416666,123.45517038333334,60.0,86.0
535,123.23315555416667,123.82084186666667,67.0,114.0
536,123.23315555416667,123.8898716875,62.0,113.0
537,123.90479705416666,124.01114029166666,67.0,89.0
538,123.90479705416666,124.01673730416667,64.0,93.0
539,123.68091655416667,124.623080325,60.0,82.0
540,124.35255805416666,124.891736925,67.0,93.0
541,124.35255805416666,124.90479662083334,62.0,102.0
542,124.80031905416666,125.12681145,60.0,90.0
543,122.78539455416667,125.2331546875,55.0,74.0
544,125.02419955416667,125.35069195,67.0,113.0
545,122.33763355416667,125.37308,48.0,90.0
546,125.02419955416667,125.44957250416667,62.0,116.0
547,125.47196055416667,125.58203513333333,64.0,104.0
548,125.47196055416667,125.86934844166667,67.0,84.0
549,125.91972155416667,126.64546750833334,57.0,93.0
550,125.91972155416667,126.65106452083333,60.0,107.0
551,125.91972155416667,126.6659898875,67.0,86.0
552,126.59136305416666,126.91785545,53.0,73.0
553,125.91972155416667,127.40292986666667,41.0,90.0
554,126.81524355416667,127.47569102916667,57.0,108.0
555,126.81524355416667,127.54658652083333,67.0,107.0
556,126.81524355416667,127.60815365833334,60.0,113.0
557,127.26300455416667,127.65292975833334,53.0,83.0
558,127.71076555416667,128.25181009583335,59.0,93.0
559,127.71076555416667,128.38613839583334,62.0,113.0
560,127.71076555416667,128.40852644583333,67.0,92.0
561,128.60628755416667,128.92158592500002,59.0,117.0
562,128.83016805416668,129.02046647916666,62.0,114.0
563,127.71076555416667,129.0447202,43.0,88.0
564,128.15852655416666,129.06337690833334,50.0,85.0
565,129.05404855416666,129.13800374166667,62.0,76.0
566,129.05404855416666,129.4085260125,67.0,110.0
567,128.38240705416666,129.4644961375,55.0,100.0
568,129.50180955416667,130.14360032083334,67.0,91.0
569,129.50180955416667,130.19024209166668,60.0,91.0
570,129.50180955416667,130.19024209166668,64.0,110.0
571,130.17345105416666,130.52419717083333,55.0,79.0
572,130.39733155416667,131.13986854583334,67.0,100.0
573,130.39733155416667,131.15106257083335,64.0,114.0
574,130.39733155416667,131.1547939125,60.0,110.0
575,131.06897305416666,131.38054008333333,55.0,87.0
576,131.29285355416667,131.97942042083335,67.0,93.0
577,131.29285355416667,132.011136825,64.0,104.0
578,131.29285355416667,132.02419652083333,60.0,100.0
579,131.96449505416666,132.4477038,55.0,88.0
580,132.18837555416667,132.55964405,67.0,102.0
581,132.18837555416667,132.5876291125,62.0,116.0
582,129.50180955416667,132.59509179583333,48.0,86.0
583,132.63613655416668,132.99247968333333,64.0,104.0
584,132.63613655416668,132.99247968333333,67.0,84.0
585,133.08389755416667,133.77233009166667,57.0,102.0
586,133.08389755416667,133.8077778375,60.0,113.0
587,133.08389755416667,133.81150917916668,67.0,88.0
588,133.75553905416666,134.07830010833334,53.0,80.0
589,133.97941955416667,134.56710586666668,57.0,110.0
590,133.97941955416667,134.57829989166666,60.0,114.0
591,133.97941955416667,134.58949391666667,67.0,102.0
592,134.65106105416666,134.70703117916668,60.0,98.0
593,134.65106105416666,134.7144938625,57.0,90.0
594,134.65106105416666,134.72755355833334,67.0,89.0
595,134.42718055416668,135.16598620416667,53.0,77.0
596,135.09882205416667,135.57829945833333,57.0,107.0
597,135.09882205416667,135.58576214166666,60.0,110.0
598,135.09882205416667,135.5988218375,67.0,102.0
599,135.54658305416666,135.8338963625,53.0,108.0
600,135.77046355416667,136.11001564583333,57.0,116.0
601,133.08389755416667,136.26113498333333,41.0,89.0
602,135.77046355416667,136.52979158333335,67.0,108.0
603,135.77046355416667,136.55777664583334,60.0,117.0
604,136.21822455416668,136.600687075,53.0,93.0
605,136.66598555416667,137.37120912916666,64.0,108.0
606,136.66598555416667,137.41225388750001,67.0,100.0
607,136.66598555416667,137.43277626666668,60.0,107.0
608,137.33762705416666,137.70143286666666,55.0,81.0
609,137.56150755416667,138.1510595375,64.0,110.0
610,137.56150755416667,138.16785057500002,60.0,110.0
611,137.56150755416667,138.16785057500002,67.0,108.0
612,138.23314905416666,138.30404454583334,60.0,91.0
613,138.23314905416666,138.3133729,64.0,91.0
614,138.23314905416666,138.3189699125,67.0,87.0
615,138.00926855416668,138.70143243333334,55.0,83.0
616,138.68091005416667,139.175312825,64.0,114.0
617,138.68091005416667,139.18464117916668,67.0,107.0
618,138.68091005416667,139.1921038625,60.0,110.0
619,139.12867105416666,139.4383724125,55.0,87.0
620,136.66598555416667,139.623073825,48.0,89.0
621,139.80031255416668,139.87680505833333,48.0,89.0
622,139.35255155416667,139.891730425,60.0,117.0
623,139.35255155416667,140.11187958333335,64.0,119.0
624,139.35255155416667,140.12493927916668,67.0,108.0
625,140.24807355416667,140.966356825,57.0,108.0
626,140.24807355416667,140.97008816666667,64.0,104.0
627,140.24807355416667,140.97381950833335,67.0,93.0
628,140.24807355416667,140.97941652083333,60.0,116.0
629,140.91971505416666,141.23874476666666,53.0,91.0
630,140.24807355416667,141.86561016666667,41.0,96.0
631,141.14359555416667,141.90852059583332,57.0,110.0
632,141.14359555416667,141.93837132916667,67.0,96.0
633,141.14359555416667,141.96262505,64.0,108.0
634,141.14359555416667,141.98687877083333,60.0,116.0
635,141.59135655416668,142.10441603333334,53.0,84.0
636,142.03911755416667,143.08575889166667,57.0,100.0
637,142.03911755416667,143.15852005416667,60.0,107.0
638,142.03911755416667,143.15852005416667,64.0,102.0
639,142.03911755416667,143.30217670833335,67.0,96.0
640,143.15852005416667,143.44396769166667,57.0,91.0
641,142.93463955416667,143.57643032083334,53.0,86.0
642,143.38240055416668,143.66598252083332,60.0,104.0
643,142.03911755416667,143.70143026666668,41.0,93.0
644,143.60628105416666,143.81337051666668,67.0,96.0
645,143.83016155416666,144.27605688333333,67.0,65.0
646,143.83016155416666,144.40665384166667,60.0,80.0
647,143.83016155416666,144.41225085416667,64.0,78.0
648,144.72568355416666,145.47754890000002,67.0,84.0
649,144.72568355416666,145.50739963333334,64.0,81.0
650,144.72568355416666,145.51113097500001,60.0,80.0
651,145.62120555416666,146.29844406666666,67.0,84.0
652,145.62120555416666,146.30963809166667,64.0,86.0
653,145.62120555416666,146.33202614166666,60.0,82.0
654,143.83016155416666,146.93650349166666,48.0,79.0
655,146.51672755416666,147.055906425,64.0,88.0
656,146.51672755416666,147.06336910833335,67.0,87.0
657,146.51672755416666,147.08575715833334,60.0,87.0
658,147.41224955416666,147.81336878333335,64.0,84.0
659,147.41224955416666,147.93650305833333,60.0,81.0
660,147.41224955416666,148.14918953333333,57.0,82.0
661,148.30777155416666,148.99620409166667,64.0,83.0
662,148.30777155416666,149.048442875,57.0,83.0
663,148.30777155416666,149.05963690000002,60.0,84.0
664,149.20329355416666,149.86747237083333,64.0,86.0
665,149.20329355416666,149.9383678625,60.0,87.0
666,149.20329355416666,149.95142755833334,57.0,85.0
667,150.09881555416666,150.54471088333332,64.0,88.0
668,150.09881555416666,150.55217356666668,57.0,84.0
669,147.41224955416666,150.5876213125,45.0,84.0
670,150.09881555416666,150.59135265416668,60.0,88.0
671,150.99433755416666,151.64172533333334,65.0,88.0
672,150.99433755416666,151.68090442083334,60.0,87.0
673,150.99433755416666,151.72381485,57.0,87.0
674,151.88985955416666,152.57269507916666,65.0,90.0
675,151.88985955416666,152.61747117916667,57.0,88.0
676,151.88985955416666,152.68836667083335,60.0,87.0
677,152.78538155416666,153.47008275000002,65.0,89.0
678,152.78538155416666,153.4868737875,57.0,87.0
679,152.78538155416666,153.51299317916667,60.0,84.0
680,150.99433755416666,154.23314212083335,41.0,83.0
681,153.68090355416666,154.24433614583333,57.0,88.0
682,153.68090355416666,154.2536645,60.0,88.0
683,150.99433755416666,154.2592615125,53.0,80.0
684,153.68090355416666,154.26112718333334,65.0,88.0
685,154.57642555416666,155.08015667916666,65.0,104.0
686,154.57642555416666,155.1435894875,60.0,96.0
687,154.57642555416666,155.24247004166668,56.0,85.0
688,155.47194755416666,155.8935891625,65.0,96.0
689,155.47194755416666,155.91784288333335,60.0,90.0
690,155.47194755416666,155.93463392083333,56.0,85.0
691,154.57642555416666,155.966350325,41.0,84.0
692,154.57642555416666,156.00179807083333,53.0,81.0
693,156.36746955416666,157.11187221666668,62.0,81.0
694,156.36746955416666,157.18836472083333,55.0,78.0
695,156.36746955416666,157.20142441666667,59.0,81.0
696,157.26299155416666,157.74246895833335,62.0,87.0
697,157.26299155416666,157.8301554875,59.0,84.0
698,157.26299155416666,157.94582707916666,55.0,82.0
699,156.36746955416666,158.05590165833334,43.0,76.0
700,158.15851355416666,158.57828949166668,55.0,76.0
701,158.15851355416666,158.7928416375,64.0,85.0
702,158.15851355416666,158.87493115416666,60.0,82.0
703,159.05403555416666,159.6883636375,64.0,86.0
704,159.05403555416666,159.727542725,55.0,87.0
705,159.05403555416666,159.77045315416666,60.0,87.0
706,159.94955755416666,160.57082594166667,64.0,87.0
707,159.94955755416666,160.61373637083335,55.0,87.0
708,159.94955755416666,160.63239307916666,60.0,87.0
709,158.15851355416666,161.25925847916668,48.0,79.0
710,160.84507955416666,161.272318175,55.0,90.0
711,160.84507955416666,161.32642262916667,64.0,88.0
712,160.84507955416666,161.37119872916668,60.0,91.0
713,161.74060155416666,162.41597439583333,62.0,94.0
714,161.74060155416666,162.42157140833334,65.0,93.0
715,161.74060155416666,162.47754153333332,58.0,95.0
716,161.74060155416666,162.85813838333334,46.0,84.0
717,162.63612355416666,163.23313822083333,65.0,96.0
718,162.63612355416666,163.40291426666667,62.0,100.0
719,162.63612355416666,163.46821274583334,58.0,106.0
720,163.08388455416667,163.48127244166668,46.0,95.0
721,163.53164555416666,164.22380943333334,64.0,91.0
722,163.53164555416666,164.294704925,57.0,90.0
723,163.53164555416666,164.29657059583334,61.0,100.0
724,163.53164555416666,164.652913725,45.0,86.0
725,164.42716755416666,164.83574946666667,64.0,94.0
726,164.42716755416666,164.86560020000002,61.0,97.0
727,164.42716755416666,165.21074930416668,57.0,91.0
728,164.87492855416667,165.2853761375,45.0,90.0
729,165.32268955416666,166.05030117916667,65.0,93.0
730,165.32268955416666,166.07268922916668,60.0,93.0
731,165.32268955416666,166.08388325416666,62.0,98.0
732,165.32268955416666,166.09694295,57.0,90.0
733,165.32268955416666,166.45701742083332,50.0,93.0
734,166.21821155416666,166.72753969166666,57.0,90.0
735,166.21821155416666,166.73313670416667,65.0,92.0
736,166.21821155416666,166.92343512916668,62.0,94.0
737,166.21821155416666,166.96074854583333,60.0,94.0
738,166.66597255416667,166.9980619625,50.0,87.0
739,167.11373355416666,167.75738999166666,65.0,85.0
740,167.11373355416666,167.78350938333332,60.0,84.0
741,167.11373355416666,167.78910639583333,62.0,83.0
742,167.11373355416666,167.81336011666667,57.0,80.0
743,168.00925555416666,168.36186734166668,57.0,84.0
744,168.00925555416666,168.37679270833334,60.0,88.0
745,168.00925555416666,168.38798673333335,65.0,87.0
746,168.00925555416666,168.38985240416667,62.0,87.0
747,168.90477755416666,169.55962801666666,65.0,93.0
748,168.90477755416666,169.5726877125,62.0,93.0
749,168.90477755416666,169.64731454583332,56.0,86.0
750,169.80029955416666,170.2835083,62.0,91.0
751,169.80029955416666,170.28537397083335,65.0,91.0
752,169.80029955416666,170.294702325,56.0,85.0
753,168.90477755416666,170.317090375,53.0,83.0
754,168.90477755416666,170.34507543750001,41.0,84.0
755,170.69582155416668,171.2517914625,64.0,87.0
756,170.69582155416668,171.33761232083333,59.0,84.0
757,170.69582155416668,171.3581347,56.0,80.0
758,170.69582155416668,171.65104502083335,52.0,72.0
759,170.69582155416668,171.68462709583335,40.0,79.0
760,171.59134355416668,172.12305974166668,56.0,85.0
761,171.59134355416668,172.22940297916668,44.0,86.0
762,171.59134355416668,172.242462675,64.0,91.0
763,171.59134355416668,172.35813426666667,59.0,92.0
764,172.48686555416668,173.12679065,64.0,94.0
765,172.48686555416668,173.2107458375,60.0,100.0
766,172.48686555416668,173.22380553333335,57.0,88.0
767,173.38238755416668,174.04096935833334,64.0,93.0
768,173.38238755416668,174.1622379625,57.0,91.0
769,173.38238755416668,174.19395436666667,60.0,91.0
770,172.48686555416668,174.30962595833333,45.0,87.0
771,174.27790955416668,174.89358092916666,64.0,89.0
772,174.27790955416668,174.93835702916667,55.0,85.0
773,174.27790955416668,174.97193910416667,59.0,88.0
774,175.17343155416668,175.7741775625,55.0,87.0
775,175.17343155416668,175.77790890416668,64.0,88.0
776,174.27790955416668,175.81149097916668,43.0,88.0
777,175.17343155416668,175.91783421666668,59.0,90.0
778,176.06895355416668,176.7032816375,64.0,86.0
779,176.06895355416668,176.74432639583333,60.0,88.0
780,176.06895355416668,176.77977414166668,57.0,85.0
781,176.96447555416668,177.58947528333334,64.0,91.0
782,176.96447555416668,177.63984839583333,60.0,96.0
783,176.96447555416668,177.64171406666668,57.0,91.0
784,176.06895355416668,177.72566925416666,45.0,83.0
785,177.85999755416668,178.34693764166667,64.0,91.0
786,177.85999755416668,178.53163905416667,55.0,87.0
787,177.85999755416668,178.57081814166668,59.0,91.0
788,177.85999755416668,178.9308926125,43.0,86.0
789,178.75551955416668,179.24245964166667,64.0,89.0
790,178.75551955416668,179.249922325,55.0,89.0
791,178.75551955416668,179.41037001666666,59.0,91.0
792,179.20328055416667,179.59880277083334,43.0,83.0
793,179.65104155416668,180.3189517125,65.0,88.0
794,179.65104155416668,180.32268305416667,62.0,87.0
795,179.65104155416668,180.38238452083334,57.0,86.0
796,179.65104155416668,180.7667127125,50.0,84.0
797,180.54656355416668,181.04842900833333,62.0,93.0
798,180.54656355416668,181.05029467916668,60.0,92.0
799,180.54656355416668,181.0577573625,57.0,92.0
800,180.54656355416668,181.06335437500002,65.0,91.0
801,180.99432455416667,181.15663791666668,50.0,81.0
802,181.44208555416668,182.03536887916667,65.0,87.0
803,181.44208555416668,182.04096589166667,62.0,84.0
804,181.44208555416668,182.05589125833333,60.0,84.0
805,181.44208555416668,182.09133900416668,57.0,85.0
806,181.44208555416668,182.83014465416667,50.0,85.0
807,182.33760755416668,182.832010325,65.0,89.0
808,182.33760755416668,182.8823834375,60.0,89.0
809,182.33760755416668,182.88798045000001,62.0,88.0
810,182.33760755416668,182.9047714875,57.0,88.0
811,183.23312955416668,183.86932330833335,60.0,92.0
812,183.23312955416668,183.86932330833335,65.0,89.0
813,183.23312955416668,183.884248675,57.0,88.0
814,183.23312955416668,184.69954682916668,41.0,84.0
815,184.12865155416668,184.70514384166668,57.0,91.0
816,184.12865155416668,184.73312890416668,65.0,93.0
817,183.23312955416668,184.7965617125,53.0,86.0
818,184.12865155416668,184.9196959875,60.0,94.0
819,185.02417355416668,185.73312847083335,62.0,107.0
820,185.02417355416668,185.74059115416668,67.0,92.0
821,185.02417355416668,185.7480538375,59.0,92.0
822,185.69581505416667,186.02417312083332,55.0,90.0
823,185.02417355416668,186.40103862916666,43.0,87.0
824,185.47193455416667,186.46633710833333,50.0,71.0
825,185.91969555416668,186.47006845,59.0,104.0
826,185.91969555416668,186.58014302916666,67.0,104.0
827,186.36745655416667,186.69394895,55.0,84.0
828,185.91969555416668,186.72006834166666,62.0,114.0
829,187.48685905416667,187.57081424166668,62.0,83.0
830,187.26297855416666,187.80402309583334,60.0,88.0
831,187.71073955416668,188.25924677916666,67.0,108.0
832,187.71073955416668,188.26111245,62.0,98.0
833,188.15850055416666,188.35999300416668,60.0,80.0
834,187.03909805416666,188.8152166875,55.0,80.0
835,188.38238105416667,189.31148512916667,67.0,100.0
836,188.38238105416667,189.324544825,62.0,102.0
837,189.27790305416667,189.76297747083333,55.0,87.0
838,186.81521755416668,189.77603716666667,48.0,94.0
839,189.50178355416668,189.9905893125,62.0,114.0
840,189.94954455416666,190.287230975,64.0,88.0
841,189.50178355416668,190.28909664583333,67.0,110.0
842,190.39730555416668,190.91223070416666,64.0,107.0
843,190.39730555416668,191.10812614166667,59.0,104.0
844,190.39730555416668,191.1211858375,67.0,91.0
845,191.06894705416667,191.44954390416666,52.0,88.0
846,191.29282755416668,191.92155862500002,59.0,108.0
847,191.29282755416668,191.95140935833334,67.0,108.0
848,191.96446905416667,192.60252847916666,52.0,80.0
849,192.18834955416668,192.89170745833334,67.0,107.0
850,192.18834955416668,192.906632825,59.0,108.0
851,192.85999105416667,193.152901375,52.0,89.0
852,190.39730555416668,193.53163255416666,40.0,88.0
853,193.08387155416668,193.58013999583335,59.0,116.0
854,193.08387155416668,193.846930925,67.0,113.0
855,193.53163255416666,193.880513,52.0,87.0
856,193.97939355416668,194.35066205,57.0,91.0
857,193.97939355416668,194.56148285416668,64.0,93.0
858,193.97939355416668,194.697676825,60.0,102.0
859,193.97939355416668,194.7312589,67.0,89.0
860,194.65103505416667,195.00178117083334,57.0,90.0
861,195.32267655416666,195.55588540833332,60.0,38.0
862,194.87491555416668,195.58946748333335,59.0,96.0
863,194.87491555416668,195.63424358333333,64.0,93.0
864,194.87491555416668,195.63424358333333,67.0,91.0
865,195.32267655416666,195.86372109583334,57.0,84.0
866,195.77043755416668,195.92715390416666,59.0,93.0
867,195.99431805416668,196.35066118333333,60.0,44.0
868,195.77043755416668,196.47006411666666,64.0,91.0
869,195.77043755416668,196.47192978750002,67.0,100.0
870,196.44207905416667,196.78163114583333,57.0,87.0
871,194.42715455416666,197.01484,52.0,84.0
872,197.11372055416666,197.21260110833333,52.0,86.0
873,196.66595955416668,197.21633245,60.0,113.0
874,193.97939355416668,197.22566080416667,45.0,88.0
875,196.66595955416668,197.227526475,64.0,116.0
876,196.66595955416668,197.43275026666666,67.0,108.0
877,197.56148155416668,198.18088427083333,59.0,96.0
878,197.56148155416668,198.24804842083333,64.0,107.0
879,197.56148155416668,198.257376775,67.0,92.0
880,198.23312305416667,198.5540184375,52.0,100.0
881,198.45700355416668,198.89357052916668,67.0,107.0
882,198.45700355416668,198.92155559166667,64.0,110.0
883,198.45700355416668,198.973794375,59.0,110.0
884,198.00924255416666,199.45140610833334,47.0,72.0
885,198.90476455416666,199.47939117083334,52.0,84.0
886,199.35252555416668,199.81148057916667,55.0,102.0
887,199.35252555416668,200.026032725,62.0,89.0
888,200.02416705416667,200.294689325,52.0,110.0
889,200.24804755416667,200.52789817916667,55.0,117.0
890,200.24804755416667,200.53162952083335,62.0,119.0
891,197.56148155416668,200.74431599583335,40.0,92.0
892,199.80028655416666,200.75364435,47.0,75.0
893,200.47192805416668,200.787226425,52.0,104.0
894,200.69580855416666,200.88424130833334,62.0,107.0
895,200.69580855416666,200.9999129,59.0,110.0
896,201.14356955416667,201.61931561666668,57.0,110.0
897,201.14356955416667,201.84692745833334,60.0,108.0
898,201.14356955416667,201.89730057083335,64.0,108.0
899,202.03909155416667,202.5950614625,57.0,113.0
900,202.03909155416667,202.63050920833334,64.0,110.0
901,201.14356955416667,202.65849427083333,41.0,90.0
902,202.48685255416666,202.82827031666667,53.0,73.0
903,201.59133055416666,202.83946434166668,48.0,76.0
904,202.03909155416667,202.85998672083335,60.0,116.0
905,202.93461355416667,203.61185206666667,59.0,100.0
906,202.93461355416667,203.61744907916668,67.0,107.0
907,202.93461355416667,203.6249117625,62.0,114.0
908,203.60625505416667,204.04282202916667,55.0,92.0
909,203.83013555416667,204.09319514166668,59.0,110.0
910,203.83013555416667,204.11185185,67.0,107.0
911,203.38237455416666,204.13610557083334,50.0,84.0
912,202.93461355416667,204.15289660833335,43.0,91.0
913,204.05401605416668,204.2293891125,62.0,94.0
914,204.27789655416666,204.346926375,62.0,83.0
915,204.27789655416666,204.56147852083333,64.0,92.0
916,204.50177705416667,204.60625462083334,67.0,79.0
917,204.72565755416667,205.38423935833333,67.0,102.0
918,204.72565755416667,205.40849307916667,64.0,110.0
919,204.72565755416667,205.42528411666666,59.0,104.0
920,205.39729905416667,205.73125413333335,52.0,90.0
921,205.62117955416667,205.95513463333333,64.0,117.0
922,204.72565755416667,206.08573159166667,40.0,94.0
923,205.62117955416667,206.16968677916668,59.0,110.0
924,205.62117955416667,206.38050758333333,67.0,107.0
925,206.06894055416666,206.43461203750002,52.0,87.0
926,206.51670155416667,206.86185065833334,57.0,94.0
927,206.51670155416667,207.1958057375,64.0,91.0
928,206.51670155416667,207.19953707916667,60.0,100.0
929,206.51670155416667,207.23871616666668,67.0,89.0
930,207.41222355416667,207.49617874166668,64.0,86.0
931,207.41222355416667,207.65102942083334,67.0,66.0
932,207.18834305416667,207.71259655833333,57.0,94.0
933,207.41222355416667,207.7778950375,59.0,108.0
934,206.96446255416666,207.78162637916668,52.0,69.0
935,206.51670155416667,207.78535772083333,45.0,88.0
936,207.63610405416668,207.817074125,60.0,107.0
937,207.85998455416666,208.20513365833332,64.0,108.0
938,208.30774555416667,208.86744680416666,57.0,93.0
939,208.30774555416667,208.99617809166668,65.0,96.0
940,208.30774555416667,209.0204318125,60.0,98.0
941,208.30774555416667,209.02976016666668,62.0,104.0
942,208.97938705416666,209.3226704875,50.0,77.0
943,209.20326755416667,209.92341649583335,57.0,107.0
944,209.20326755416667,209.94393887500001,65.0,104.0
945,209.20326755416667,209.9551329,60.0,113.0
946,209.20326755416667,209.95699857083335,62.0,114.0
947,209.87490905416666,210.32080438333332,50.0,83.0
948,210.09878955416667,210.77043105416666,57.0,96.0
949,210.09878955416667,210.77416239583334,65.0,100.0
950,210.09878955416667,210.77602806666667,62.0,110.0
951,210.09878955416667,210.78722209166668,60.0,110.0
952,210.77043105416666,211.13050552500002,50.0,100.0
953,208.30774555416667,211.3823710875,38.0,92.0
954,210.99431155416667,211.58013219583333,65.0,110.0
955,211.44207255416669,211.6062515875,40.0,100.0
956,210.99431155416667,211.6062515875,57.0,110.0
957,210.99431155416667,211.67714707916667,62.0,117.0
958,210.99431155416667,211.69207244583333,60.0,117.0
959,211.88983355416667,212.59505712916666,65.0,108.0
960,211.88983355416667,212.6137138375,57.0,110.0
961,211.88983355416667,212.63237054583334,60.0,116.0
962,212.56147505416666,212.9159525125,53.0,110.0
963,211.88983355416667,212.99804202916667,41.0,100.0
964,212.78535555416667,213.47192242083335,57.0,110.0
965,212.78535555416667,213.49244480000002,65.0,107.0
966,213.23311655416668,213.50550449583335,41.0,102.0
967,213.45699705416666,213.54095224166667,42.0,86.0
968,212.78535555416667,213.54095224166667,60.0,117.0
969,213.68087755416667,214.33013100416667,67.0,114.0
970,213.68087755416667,214.33945935833333,59.0,104.0
971,213.68087755416667,214.35811606666667,62.0,114.0
972,214.12863855416668,214.40289216666667,55.0,110.0
973,213.90475805416668,214.45513095,50.0,89.0
974,213.68087755416667,214.6174443125,43.0,110.0
975,214.35251905416666,215.08386202083335,59.0,113.0
976,214.35251905416666,215.08572769166668,67.0,114.0
977,214.80028005416668,215.14729482916667,43.0,98.0
978,214.57639955416667,215.16781720833333,62.0,117.0
979,215.47192155416667,215.90289151666667,60.0,108.0
980,215.47192155416667,216.21818988750002,64.0,117.0
981,215.47192155416667,216.21818988750002,67.0,108.0
982,216.14356305416666,216.46259276666666,55.0,87.0
983,216.36744355416667,216.77975680833333,64.0,114.0
984,216.36744355416667,216.83012992083334,60.0,108.0
985,216.36744355416667,216.93274181666666,67.0,110.0
986,217.26296555416667,217.65848777083335,62.0,100.0
987,217.48684605416668,217.73684594583335,64.0,76.0
988,217.26296555416667,218.0148309,67.0,113.0
989,217.93460705416666,218.35438299166668,60.0,102.0
990,218.15848755416667,218.42527848333333,72.0,114.0
991,216.81520455416668,218.46445757083333,55.0,81.0
992,218.15848755416667,218.48124860833335,64.0,114.0
993,215.47192155416667,218.56706946666668,48.0,89.0
994,218.38236805416668,218.73311417083335,67.0,86.0
995,218.60624855416668,218.93833796250001,72.0,82.0
996,219.72565105416666,220.1360986375,59.0,92.0
997,219.94953155416667,220.667814825,67.0,108.0
998,219.94953155416667,220.68833720416666,62.0,114.0
999,220.62117305416666,220.93833709583333,59.0,86.0
1000,219.50177055416668,220.96632215833333,55.0,80.0
1001,220.84505355416667,221.55960548333334,67.0,108.0
1002,220.84505355416667,221.59505322916667,62.0,110.0
1003,221.51669505416666,221.94579934583334,55.0,88.0
1004,219.05400955416667,222.1062470375,47.0,107.0
1005,221.74057555416667,222.22191862916668,62.0,116.0
1006,221.74057555416667,222.25363503333332,67.0,110.0
1007,222.63609755416667,223.1025152625,69.0,107.0
1008,222.63609755416667,223.19579880416669,64.0,104.0
1009,222.63609755416667,223.36184350833335,60.0,89.0
1010,223.30773905416666,223.62490309583333,57.0,92.0
1011,223.53161955416667,224.10251482916667,59.0,110.0
1012,223.97938055416668,224.12490287916668,57.0,83.0
1013,222.63609755416667,224.1659476375,45.0,89.0
1014,223.53161955416667,224.22005209166667,64.0,114.0
1015,223.08385855416668,224.44020125,52.0,77.0
1016,224.42714155416667,225.05400695416668,67.0,93.0
1017,224.42714155416667,225.06893232083334,59.0,90.0
1018,224.42714155416667,225.078260675,62.0,104.0
1019,225.09878305416666,225.38423069166666,55.0,79.0
1020,224.87490255416668,225.46445453750002,52.0,81.0
1021,224.42714155416667,225.49990228333334,43.0,86.0
1022,225.32266355416667,225.85437974166666,67.0,113.0
1023,225.32266355416667,225.85811108333334,59.0,113.0
1024,225.77042455416668,225.92714090416666,43.0,86.0
1025,225.32266355416667,226.01109609166667,62.0,117.0
1026,226.66594655416668,227.20139408333333,52.0,87.0
1027,227.11370755416667,227.25549853750002,55.0,114.0
1028,227.11370755416667,227.57266257916666,64.0,116.0
1029,227.56146855416668,228.190199625,52.0,87.0
1030,228.00922955416667,228.414080125,59.0,110.0
1031,228.00922955416667,228.63609495416668,67.0,110.0
1032,228.00922955416667,228.67527404166668,64.0,114.0
1033,228.68087105416666,228.94206497083334,52.0,96.0
1034,228.90475155416667,229.2032588875,59.0,119.0
1035,226.21818555416667,229.3823632875,40.0,104.0
1036,229.35251255416668,229.56893037083333,64.0,119.0
1037,229.12863205416667,229.62116915416667,52.0,110.0
1038,229.80027355416667,230.50922847083334,57.0,100.0
1039,229.80027355416667,230.51295981250001,60.0,104.0
1040,229.57639305416666,230.52228816666667,67.0,91.0
1041,230.47191505416666,230.7704223875,53.0,86.0
1042,230.69579555416666,231.279750525,57.0,114.0
1043,229.80027355416667,231.29840723333334,41.0,91.0
1044,230.69579555416666,231.42527285,67.0,102.0
1045,230.69579555416666,231.48497431666667,60.0,116.0
1046,231.14355655416668,231.54654145416666,53.0,87.0
1047,231.59131755416666,232.30213814166666,67.0,102.0
1048,231.59131755416666,232.30960082500002,62.0,116.0
1049,231.59131755416666,232.31706350833335,59.0,102.0
1050,232.26295905416669,232.70512304166667,53.0,100.0
1051,232.48683955416666,232.91034683333334,59.0,110.0
1052,232.71072005416667,232.99430202083335,62.0,107.0
1053,232.93460055416668,233.30773472083334,67.0,102.0
1054,231.59131755416666,233.3226600875,41.0,89.0
1055,233.38236155416666,234.06892842083334,59.0,96.0
1056,233.38236155416666,234.06892842083334,64.0,113.0
1057,233.38236155416666,234.07452543333335,67.0,93.0
1058,234.05400305416669,234.37116709583333,52.0,100.0
1059,233.38236155416666,234.69765949166668,40.0,88.0
1060,234.27788355416666,234.81706242500002,62.0,117.0
1061,234.27788355416666,234.85064450000002,59.0,110.0
1062,234.27788355416666,235.07639067083335,67.0,100.0
1063,234.27788355416666,235.07825634166667,64.0,113.0
1064,234.72564455416668,235.10251006250002,52.0,84.0
1065,235.17340555416666,235.72004710833335,57.0,96.0
1066,235.17340555416666,236.1995245125,60.0,110.0
1067,235.17340555416666,236.21818122083334,64.0,94.0
1068,236.06892755416666,236.2890767125,57.0,100.0
1069,235.62116655416668,236.35997220416667,52.0,74.0
1070,235.17340555416666,236.40288263333335,45.0,87.0
1071,235.17340555416666,236.54840495833335,67.0,89.0
1072,236.29280805416667,236.67340490416666,59.0,114.0
1073,236.51668855416668,236.93273315000002,60.0,104.0
1074,236.96444955416666,237.61930001666667,62.0,98.0
1075,236.96444955416666,237.62862837083333,57.0,88.0
1076,236.96444955416666,237.6323597125,65.0,93.0
1077,236.96444955416666,237.6547477625,60.0,85.0
1078,237.41221055416668,237.929001375,50.0,84.0
1079,236.96444955416666,238.32638926250002,38.0,87.0
1080,237.85997155416666,238.39541908333334,57.0,96.0
1081,237.85997155416666,238.39541908333334,65.0,93.0
1082,237.85997155416666,238.64355330416666,62.0,98.0
1083,237.85997155416666,238.656613,60.0,94.0
1084,238.30773255416668,238.74429952916668,50.0,83.0
1085,238.75549355416666,239.33385151250002,65.0,87.0
1086,238.75549355416666,239.39914999166666,60.0,87.0
1087,238.75549355416666,239.406612675,62.0,89.0
1088,238.75549355416666,239.4345977375,57.0,86.0
1089,238.75549355416666,239.79467220833334,50.0,83.0
1090,239.65101555416666,240.19952277916667,65.0,98.0
1091,239.65101555416666,240.23683619583335,57.0,94.0
1092,239.65101555416666,240.44392565833334,62.0,104.0
1093,239.65101555416666,240.48870175833335,60.0,98.0
1094,240.09877655416668,240.57265694583333,50.0,86.0
1095,240.54653755416666,241.1025074625,59.0,91.0
1096,240.54653755416666,241.11556715833333,62.0,100.0
1097,240.54653755416666,241.12116417083334,67.0,93.0
1098,241.44205955416666,241.91407427500002,59.0,91.0
1099,241.44205955416666,241.9644473875,62.0,94.0
1100,241.44205955416666,242.0316115375,67.0,91.0
1101,241.88982055416668,242.73496944166666,55.0,70.0
1102,242.33758155416666,243.06892452083335,57.0,89.0
1103,242.33758155416666,243.134223,62.0,89.0
1104,242.33758155416666,243.13795434166667,67.0,86.0
1105,243.00922305416668,243.3301184375,55.0,81.0
1106,240.54653755416666,243.66780485833334,43.0,86.0
1107,240.99429855416668,243.69765559166666,50.0,66.0
1108,243.45698405416667,243.75362571666668,55.0,80.0
1109,243.23310355416666,243.97750621666668,67.0,88.0
1110,243.68086455416667,244.00362560833335,62.0,83.0
1111,243.23310355416666,244.01108829166668,59.0,93.0
1112,244.12862555416666,245.42340111250002,67.0,86.0
1113,244.12862555416666,245.5241473375,62.0,84.0
1114,245.47190855416667,246.3133261,60.0,80.0
1115,245.47190855416667,246.5651916625,67.0,80.0
1116,246.36743055416667,246.59690806666669,62.0,70.0
1117,245.02414755416666,246.97563924583335,55.0,61.0
1118,244.12862555416666,247.1192959,48.0,80.0
1119,246.81519155416666,247.242430175,62.0,94.0
1120,246.81519155416666,247.58571360833335,67.0,88.0
1121,247.71071355416666,248.4122057875,60.0,86.0
1122,247.71071355416666,248.42713115416666,57.0,82.0
1123,247.71071355416666,248.48310127916668,67.0,82.0
1124,248.60623555416666,249.3189218125,57.0,78.0
1125,248.60623555416666,249.36742925416667,60.0,83.0
1126,248.60623555416666,249.38048895,67.0,75.0
1127,249.50175755416666,250.1584736875,57.0,82.0
1128,249.50175755416666,250.17899606666668,60.0,79.0
1129,249.50175755416666,250.2368318625,67.0,77.0
1130,247.71071355416666,250.79839878333334,41.0,77.0
1131,250.39727955416666,250.824518175,57.0,79.0
1132,247.71071355416666,250.94578677916667,53.0,73.0
1133,250.39727955416666,251.08011507916666,60.0,83.0
1134,250.39727955416666,251.14727922916668,67.0,82.0
1135,251.29280155416666,252.61369650416668,40.0,85.0
1136,252.1883235541667,253.063323175,55.0,83.0
1137,251.74056255416667,253.06518884583335,52.0,74.0
1138,252.63608455416667,253.20138281666667,59.0,83.0
1139,253.0838455541667,254.50362105833335,45.0,86.0
1140,253.53160655416667,254.518546425,52.0,81.0
1141,254.42712855416667,254.85809851666667,59.0,86.0
1142,253.97936755416669,254.91406864166666,55.0,83.0
1143,255.77041155416669,256.2610829833333,60.0,80.0
1144,255.32265055416667,256.27787402083334,57.0,75.0
1145,254.87488955416669,256.29466505833335,50.0,87.0
1146,256.2181725541667,258.08570905833335,62.0,84.0
1147,258.0092165541667,258.44578352916665,60.0,84.0
1148,257.11369455416667,261.4308568625,50.0,79.0
1149,256.66593355416666,261.44391655833334,43.0,86.0
1150,257.5614555541667,261.52227473333335,55.0,82.0
1151,258.45697755416666,261.67525974166665,59.0,85.0
1152,262.88234877083335,263.1416770166667,62.0,81.0
1153,263.1043636,263.182721775,64.0,87.0
1154,263.3282441,263.518542525,67.0,86.0
1155,263.5763783208333,263.70884095,72.0,81.0
1156,263.8077215041667,264.03533334583335,74.0,83.0
1157,264.05212438333336,264.1398109125,76.0,82.0
1158,264.3170496416667,264.6752584416667,79.0,87.0
1159,264.6323480125,265.04466126666665,84.0,84.0
1160,265.0036165083333,265.1491388333333,91.0,83.0
1161,262.6603339416667,265.1696612125,60.0,78.0
1162,262.3935430125,265.23309402083333,55.0,74.0
1163,262.0017521375,265.2890641458333,48.0,86.0
