,start,end,pitch,velocity
0,1.16,1.57625,87.0,67.0
1,1.46,1.78875,75.0,55.0
2,1.76,2.2,80.0,61.0
3,2.06,2.4125,83.0,59.0
4,2.36,2.74125,87.0,54.0
5,2.66,3.27625,75.0,54.0
6,2.96,3.3850000000000002,80.0,59.0
7,3.2600000000000002,3.61625,83.0,59.0
8,3.56,3.9362500000000002,87.0,58.0
9,3.86,4.44,75.0,53.0
10,4.16,4.7075000000000005,80.0,59.0
11,4.46,4.83,83.0,59.0
12,4.76,5.17125,87.0,50.0
13,5.0600000000000005,5.6000000000000005,75.0,51.0
14,5.36,5.79625,80.0,55.0
15,5.66,5.99625,83.0,58.0
16,5.96,6.3812500000000005,87.0,59.0
17,6.26,6.6537500000000005,75.0,46.0
18,6.5600000000000005,6.98625,80.0,53.0
19,6.86,7.1375,83.0,65.0
20,7.16,7.5525,87.0,65.0
21,7.46,7.85125,75.0,57.0
22,7.76,8.16875,80.0,59.0
23,8.06,8.38625,83.0,65.0
24,8.36,8.72875,87.0,59.0
25,8.66,9.02,68.0,50.0
26,8.96,9.44875,80.0,60.0
27,9.26,9.59,83.0,68.0
28,9.86,10.22875,68.0,56.0
29,10.16,10.6075,80.0,62.0
30,10.46,10.78,83.0,61.0
31,10.76,11.1525,87.0,65.0
32,11.06,11.385,75.0,58.0
33,11.36,11.78,80.0,70.0
34,11.66,12.0075,83.0,59.0
35,11.96,12.51625,87.0,55.0
36,12.26,12.89,75.0,59.0
37,12.56,13.02125,80.0,62.0
38,12.86,13.1725,83.0,58.0
39,13.16,13.665000000000001,87.0,70.0
40,13.46,14.0725,75.0,59.0
41,13.76,14.342500000000001,80.0,61.0
42,14.06,14.3675,83.0,58.0
43,14.36,14.79625,87.0,64.0
44,14.66,15.215,75.0,56.0
45,14.96,15.41625,80.0,61.0
46,15.26,15.610000000000001,83.0,58.0
47,15.56,15.92,85.0,60.0
48,15.860000000000001,16.4625,73.0,52.0
49,16.16,16.48,78.0,60.0
50,16.31,16.736250000000002,80.0,64.0
51,16.76,17.21125,85.0,52.0
52,17.06,17.63625,73.0,59.0
53,17.36,17.7175,78.0,60.0
54,17.66,18.01875,80.0,70.0
55,17.96,18.56625,85.0,61.0
56,18.56,18.855,78.0,61.0
57,18.26,18.9175,73.0,58.0
58,18.86,19.208750000000002,80.0,64.0
59,19.16,19.7875,85.0,73.0
60,19.46,20.118750000000002,73.0,59.0
61,19.76,20.150000000000002,78.0,65.0
62,20.06,20.38,80.0,63.0
63,20.36,20.96,87.0,46.0
64,20.66,21.22125,75.0,59.0
65,20.96,21.30125,80.0,62.0
66,21.26,21.62625,83.0,65.0
67,21.56,21.990000000000002,87.0,58.0
68,22.16,22.62625,80.0,59.0
69,21.86,22.69125,75.0,60.0
70,22.46,22.765,83.0,67.0
71,22.76,23.355,87.0,58.0
72,23.06,23.935000000000002,75.0,57.0
73,23.36,23.975,80.0,64.0
74,23.66,24.0075,83.0,61.0
75,23.96,24.315,87.0,65.0
76,25.76,25.885,80.0,79.0
77,26.060000000000002,26.1825,80.0,83.0
78,26.36,26.736250000000002,80.0,90.0
79,26.96,27.26875,78.0,75.0
80,27.26,27.595,75.0,61.0
81,27.560000000000002,27.92625,78.0,67.0
82,27.86,28.25,80.0,64.0
83,28.16,28.45375,82.0,93.0
84,29.66,29.94375,75.0,59.0
85,28.46,30.00125,80.0,81.0
86,29.96,30.00125,80.0,86.0
87,30.560000000000002,30.7075,80.0,79.0
88,30.86,31.02375,83.0,62.0
89,31.16,31.32,80.0,60.0
90,31.46,31.716250000000002,78.0,75.0
91,31.76,32.05375,73.0,70.0
92,32.06,33.32875,75.0,76.0
93,35.36,35.48375,80.0,93.0
94,35.660000000000004,35.77875,80.0,90.0
95,35.96,36.3775,80.0,98.0
96,36.56,36.847500000000004,78.0,81.0
97,36.86,37.1725,75.0,74.0
98,37.160000000000004,37.42,78.0,73.0
99,37.46,37.78375,80.0,70.0
100,37.76,38.03375,75.0,104.0
101,39.26,39.455,68.0,69.0
102,38.06,39.52125,73.0,83.0
103,39.410000000000004,39.57625,70.0,63.0
104,39.56,39.68875,71.0,83.0
105,39.86,40.1925,75.0,75.0
106,40.160000000000004,40.49875,73.0,66.0
107,40.46,40.84625,71.0,69.0
108,40.76,41.1025,70.0,65.0
109,41.06,41.44,68.0,66.0
110,41.36,41.70875,66.0,65.0
111,41.660000000000004,44.27875,68.0,83.0
112,61.76,62.11875,68.0,86.0
113,62.06,62.3525,70.0,88.0
114,62.36,62.628750000000004,71.0,79.0
115,62.660000000000004,62.8975,68.0,69.0
116,62.96,64.56,80.0,95.0
117,71.06,71.40125,66.0,59.0
118,71.36,71.68375,78.0,70.0
119,71.66,72.02,66.0,53.0
120,71.96000000000001,72.32125,75.0,67.0
121,72.26,72.55625,66.0,60.0
122,72.56,73.33,70.0,66.0
123,74.06,74.41375000000001,71.0,59.0
124,74.36,75.64750000000001,73.0,58.0
125,76.16,76.6525,71.0,64.0
126,76.76,77.87875,73.0,52.0
127,80.66,80.995,75.0,67.0
128,80.96000000000001,81.29125,82.0,73.0
129,81.26,81.6575,73.0,59.0
130,81.56,81.90875,78.0,72.0
131,81.86,82.19500000000001,71.0,61.0
132,82.16,82.4625,73.0,77.0
133,82.46000000000001,82.7675,66.0,65.0
134,82.76,83.32875,68.0,81.0
135,83.96000000000001,84.28375,71.0,86.0
136,84.26,84.5775,73.0,63.0
137,84.56,84.72500000000001,75.0,83.0
138,84.86,84.99625,78.0,79.0
139,85.16,88.38,80.0,108.0
140,92.96000000000001,93.25750000000001,83.0,65.0
141,93.26,93.56125,82.0,59.0
142,93.56,94.1875,80.0,63.0
143,94.16,94.7925,75.0,93.0
144,94.76,96.12,73.0,74.0
145,102.56,103.21625,79.0,76.0
146,103.16,103.7775,83.0,70.0
147,103.76,104.39750000000001,85.0,86.0
148,104.36,105.62625,87.0,90.0
149,124.16,124.5,75.0,70.0
150,124.46000000000001,124.86125,78.0,63.0
151,124.76,124.9575,80.0,67.0
152,125.06,125.2125,82.0,81.0
153,125.36,125.52250000000001,85.0,75.0
154,125.66,125.82375,90.0,79.0
155,125.96000000000001,126.33875,87.0,95.0
156,128.96,129.3175,75.0,74.0
157,129.26,129.60750000000002,78.0,71.0
158,129.56,129.87625,80.0,76.0
159,129.86,130.21625,82.0,83.0
160,130.16,130.48875,80.0,93.0
161,130.46,130.77875,78.0,74.0
162,130.76,133.09875,75.0,87.0
163,133.76,134.36,66.0,63.0
164,134.36,134.85625,68.0,59.0
165,134.96,135.48375000000001,75.0,71.0
166,135.56,136.65,73.0,70.0
167,136.76,137.32625000000002,63.0,87.0
168,137.36,137.96875,66.0,76.0
169,137.96,138.78,68.0,87.0
170,138.86,139.53875,75.0,90.0
171,139.46,139.8125,73.0,71.0
172,139.76,140.02875,71.0,63.0
173,140.06,140.3975,66.0,67.0
174,140.36,142.475,68.0,74.0
175,150.56,151.24,75.0,65.0
176,151.16,151.74125,78.0,79.0
177,151.76,152.415,80.0,70.0
178,152.36,154.5625,73.0,61.0
179,161.96,165.18,80.0,108.0
180,169.76,170.0575,83.0,65.0
181,170.06,170.36125,82.0,59.0
182,170.36,170.9875,80.0,63.0
183,170.96,171.5925,75.0,93.0
184,171.56,172.92000000000002,73.0,74.0
185,179.36,180.01625,79.0,76.0
186,179.96,180.57750000000001,83.0,70.0
187,180.56,181.1975,85.0,86.0
188,181.16,182.42625,87.0,90.0
189,182.96,183.57750000000001,68.0,72.0
190,183.56,184.115,71.0,77.0
191,184.16,184.72625,75.0,70.0
192,184.76,185.32,73.0,104.0
193,185.36,186.19375,78.0,83.0
194,185.96,187.8375,76.0,68.0
195,187.76,188.07750000000001,75.0,74.0
196,188.06,188.4,73.0,90.0
197,188.36,188.88125,71.0,75.0
198,188.96,189.27875,70.0,65.0
199,189.26,189.61375,71.0,60.0
200,189.56,190.84875,63.0,73.0
201,191.36,191.98250000000002,61.0,77.0
202,191.96,192.52,63.0,67.0
203,192.56,193.11,66.0,67.0
204,193.16,194.39875,70.0,77.0
205,194.36,194.92375,71.0,72.0
206,194.96,195.50375,68.0,86.0
207,195.56,197.88125,66.0,65.0
208,198.26,198.55875,75.0,59.0
209,198.56,198.8975,80.0,68.0
210,198.86,199.20875,82.0,71.0
211,199.16,199.49375,83.0,70.0
212,199.46,199.84,82.0,65.0
213,199.76,199.91125,83.0,75.0
214,200.06,200.19625,85.0,66.0
215,200.36,200.97625,87.0,73.0
216,200.36,203.58,80.0,108.0
217,204.26,204.52625,80.0,60.0
218,204.56,204.8425,83.0,62.0
219,204.86,205.17000000000002,87.0,75.0
220,205.16,206.75375,85.0,59.0
221,208.16,208.4575,83.0,65.0
222,208.46,208.76125000000002,82.0,59.0
223,208.76,209.38750000000002,80.0,63.0
224,209.36,209.9925,75.0,93.0
225,209.96,211.32,73.0,74.0
226,217.76,218.41625,79.0,76.0
227,218.36,218.9775,83.0,70.0
228,218.96,219.5975,85.0,86.0
229,219.56,220.82625000000002,87.0,90.0
