,start,end,pitch,velocity
0,5.96,9.24,87.0,85.0
1,9.56,9.865,85.0,87.0
2,9.86,10.213750000000001,87.0,98.0
3,10.16,10.47375,85.0,83.0
4,10.46,10.785,80.0,72.0
5,10.76,13.18875,87.0,93.0
6,14.36,14.66625,85.0,83.0
7,14.66,14.94125,87.0,74.0
8,14.96,15.59,80.0,68.0
9,15.56,18.9525,85.0,98.0
10,19.16,19.44375,83.0,73.0
11,19.46,19.7625,85.0,83.0
12,19.76,20.33875,83.0,79.0
13,20.36,24.035,80.0,81.0
14,44.36,44.5,80.0,87.0
15,44.660000000000004,44.78,80.0,73.0
16,44.96,45.07625,80.0,81.0
17,45.26,45.38125,80.0,85.0
18,45.56,45.905,80.0,86.0
19,46.160000000000004,46.28375,75.0,67.0
20,46.46,46.643750000000004,75.0,74.0
21,46.76,47.09375,78.0,72.0
22,47.06,47.27125,80.0,68.0
23,47.36,47.72875,82.0,90.0
24,47.96,48.85,80.0,87.0
25,49.160000000000004,49.276250000000005,80.0,74.0
26,49.46,49.5725,80.0,68.0
27,49.76,49.91375,80.0,72.0
28,49.910000000000004,50.09375,82.0,93.0
29,50.36,50.71875,80.0,76.0
30,50.96,51.21,78.0,79.0
31,51.26,51.57625,80.0,66.0
32,51.56,53.776250000000005,75.0,83.0
33,53.96,54.08,73.0,74.0
34,54.26,54.37375,73.0,79.0
35,54.56,54.66625,73.0,79.0
36,54.86,54.980000000000004,73.0,74.0
37,55.160000000000004,55.4525,73.0,93.0
38,55.76,56.0675,71.0,74.0
39,56.06,56.36625,68.0,60.0
40,56.36,56.6975,71.0,73.0
41,56.660000000000004,56.83375,73.0,85.0
42,56.96,57.3175,75.0,74.0
43,57.56,58.487500000000004,73.0,79.0
44,58.76,58.870000000000005,73.0,72.0
45,59.06,59.151250000000005,73.0,72.0
46,59.36,59.48125,73.0,67.0
47,59.660000000000004,59.80375,75.0,64.0
48,59.96,60.215,73.0,69.0
49,60.26,60.432500000000005,71.0,60.0
50,60.56,60.77,68.0,54.0
51,60.86,61.14125,71.0,68.0
52,61.160000000000004,63.55875,68.0,63.0
53,63.56,63.7,80.0,87.0
54,63.86,63.980000000000004,80.0,73.0
55,64.16,64.27625,80.0,81.0
56,64.46000000000001,64.58125,80.0,85.0
57,64.76,65.105,80.0,86.0
58,65.36,65.48375,75.0,67.0
59,65.66,65.84375,75.0,74.0
60,65.96000000000001,66.29375,78.0,72.0
61,66.26,66.47125,80.0,68.0
62,66.56,66.92875000000001,82.0,90.0
63,67.16,68.05,80.0,87.0
64,68.36,68.47625000000001,80.0,74.0
65,68.66,68.77250000000001,80.0,68.0
66,68.96000000000001,69.11375,80.0,72.0
67,69.11,69.29375,82.0,93.0
68,69.56,69.91875,80.0,76.0
69,70.16,70.41,78.0,79.0
70,70.46000000000001,70.77625,80.0,66.0
71,70.76,72.97625000000001,75.0,83.0
72,73.16,73.28,73.0,74.0
73,73.46000000000001,73.57375,73.0,79.0
74,74.06,74.18,73.0,74.0
75,74.36,74.6525,73.0,93.0
76,74.96000000000001,75.2675,71.0,74.0
77,75.26,75.56625,68.0,60.0
78,75.56,75.89750000000001,71.0,73.0
79,75.86,76.03375,73.0,85.0
80,76.16,76.5175,75.0,74.0
81,76.76,77.6875,73.0,79.0
82,77.96000000000001,78.07000000000001,73.0,72.0
83,78.26,78.35125000000001,73.0,72.0
84,78.56,78.68125,73.0,67.0
85,78.86,79.00375,75.0,64.0
86,79.16,79.415,73.0,69.0
87,79.46000000000001,79.63250000000001,71.0,60.0
88,79.76,79.97,68.0,54.0
89,80.06,80.34125,71.0,68.0
90,80.36,82.75875,68.0,63.0
91,85.16,85.285,80.0,68.0
92,85.46000000000001,85.57000000000001,80.0,74.0
93,85.76,85.9225,80.0,76.0
94,86.06,86.17125,83.0,93.0
95,86.36,86.75375,83.0,93.0
96,86.96000000000001,87.0725,80.0,81.0
97,87.26,87.4825,80.0,77.0
98,87.56,87.69,83.0,87.0
99,87.86,87.9675,85.0,87.0
100,88.16,88.5875,87.0,111.0
101,88.76,89.67125,85.0,117.0
102,89.96000000000001,90.07875,85.0,111.0
103,90.26,90.37375,85.0,90.0
104,90.56,90.67875000000001,85.0,111.0
105,90.86,90.99125000000001,87.0,98.0
106,91.16,91.5725,85.0,95.0
107,91.46000000000001,91.67125,83.0,77.0
108,91.76,91.87125,80.0,70.0
109,92.06,92.175,83.0,95.0
110,92.36,94.53625,80.0,86.0
111,94.46000000000001,94.63125000000001,75.0,76.0
112,94.76,95.59,73.0,85.0
113,95.66,95.76875,75.0,68.0
114,95.96000000000001,96.32000000000001,78.0,93.0
115,96.41,97.1575,75.0,83.0
116,97.16,97.48875,78.0,86.0
117,97.46000000000001,97.61875,80.0,63.0
118,97.76,97.87875,83.0,72.0
119,98.06,98.1825,85.0,83.0
120,98.21000000000001,98.35625,83.0,79.0
121,98.36,99.3925,80.0,77.0
122,99.56,99.685,85.0,85.0
123,99.86,99.96125,85.0,104.0
124,100.16,100.2775,85.0,112.0
125,100.46000000000001,100.56875000000001,85.0,104.0
126,100.76,100.88375,85.0,117.0
127,101.06,101.1675,83.0,90.0
128,101.36,101.48625,83.0,85.0
129,101.66,101.77250000000001,85.0,104.0
130,101.96000000000001,102.74125000000001,87.0,112.0
131,104.36,104.485,80.0,68.0
132,104.66,104.77,80.0,74.0
133,104.96000000000001,105.1225,80.0,76.0
134,105.26,105.37125,83.0,93.0
135,105.56,105.95375,83.0,93.0
136,106.16,106.27250000000001,80.0,81.0
137,106.46000000000001,106.6825,80.0,77.0
138,106.76,106.89,83.0,87.0
139,107.06,107.1675,85.0,87.0
140,107.36,107.78750000000001,87.0,111.0
141,107.96000000000001,108.87125,85.0,117.0
142,109.16,109.27875,85.0,111.0
143,109.46000000000001,109.57375,85.0,90.0
144,109.76,109.87875,85.0,111.0
145,110.06,110.19125,87.0,98.0
146,110.36,110.77250000000001,85.0,95.0
147,110.66,110.87125,83.0,77.0
148,110.96000000000001,111.07125,80.0,70.0
149,111.26,111.375,83.0,95.0
150,111.56,113.73625,80.0,86.0
151,113.66,113.83125,75.0,76.0
152,113.96000000000001,114.79,73.0,85.0
153,114.86,114.96875,75.0,68.0
154,115.16,115.52,78.0,93.0
155,115.61,116.3575,75.0,83.0
156,116.36,116.68875,78.0,86.0
157,116.66,116.81875000000001,80.0,63.0
158,116.96000000000001,117.07875,83.0,72.0
159,117.26,117.38250000000001,85.0,83.0
160,117.41,117.55625,83.0,79.0
161,117.56,118.5925,80.0,77.0
162,118.76,118.8875,78.0,90.0
163,119.06,119.175,78.0,83.0
164,119.36,119.59875,78.0,98.0
165,119.66,120.0275,75.0,69.0
166,119.96000000000001,120.28,78.0,70.0
167,120.26,120.39,80.0,75.0
168,120.56,120.72125,83.0,86.0
169,120.86,121.01125,82.0,83.0
170,121.16,122.96000000000001,80.0,85.0
171,122.96000000000001,123.1875,83.0,93.0
172,123.26,123.37125,85.0,87.0
173,123.56,126.92125,87.0,112.0
174,127.16,127.5325,85.0,87.0
175,127.46000000000001,127.77125000000001,87.0,74.0
176,127.76,128.0875,90.0,90.0
177,128.06,128.375,92.0,100.0
178,128.36,131.67375,87.0,85.0
179,131.96,132.615,80.0,81.0
180,132.56,132.73625,83.0,74.0
181,132.86,132.97375,87.0,104.0
182,133.16,136.69125,85.0,111.0
183,136.76,137.05,85.0,83.0
184,137.06,137.375,87.0,83.0
185,137.36,137.695,85.0,77.0
186,137.66,138.0,83.0,61.0
187,137.96,142.5375,80.0,75.0
188,142.76,142.9,80.0,87.0
189,143.06,143.18,80.0,73.0
190,143.36,143.47625,80.0,81.0
191,143.66,143.78125,80.0,85.0
192,143.96,144.305,80.0,86.0
193,144.56,144.68375,75.0,67.0
194,144.86,145.04375000000002,75.0,74.0
195,145.16,145.49375,78.0,72.0
196,145.46,145.67125000000001,80.0,68.0
197,145.76,146.12875,82.0,90.0
198,146.36,147.25,80.0,87.0
199,147.56,147.67625,80.0,74.0
200,147.86,147.9725,80.0,68.0
201,148.16,148.31375,80.0,72.0
202,148.46,148.64375,82.0,93.0
203,148.76,149.11875,80.0,76.0
204,149.36,149.61,75.0,79.0
205,149.66,149.97625,78.0,66.0
206,149.96,152.17625,75.0,83.0
207,152.36,152.48,73.0,74.0
208,152.66,152.77375,73.0,79.0
209,152.96,153.06625,73.0,79.0
210,153.26,153.38,73.0,74.0
211,153.56,153.8525,73.0,93.0
212,154.16,154.4675,71.0,74.0
213,154.46,154.76625,68.0,60.0
214,154.76,155.0975,71.0,73.0
215,155.06,155.23375000000001,73.0,85.0
216,155.36,155.7175,75.0,74.0
217,155.96,156.88750000000002,73.0,79.0
218,157.16,157.27,73.0,72.0
219,157.46,157.55125,73.0,72.0
220,157.76,157.88125,73.0,67.0
221,158.06,158.20375,75.0,64.0
222,158.36,158.615,73.0,69.0
223,158.66,158.8325,71.0,60.0
224,158.96,159.17000000000002,68.0,54.0
225,159.26,159.54125,71.0,68.0
226,159.56,161.95875,68.0,63.0
227,161.96,162.085,80.0,68.0
228,162.26,162.37,80.0,74.0
229,162.56,162.7225,80.0,76.0
230,162.86,162.97125,83.0,93.0
231,163.16,163.55375,83.0,93.0
232,163.76,163.8725,80.0,81.0
233,164.06,164.2825,80.0,77.0
234,164.36,164.49,83.0,87.0
235,164.66,164.7675,85.0,87.0
236,164.96,165.38750000000002,87.0,111.0
237,165.56,166.47125,85.0,117.0
238,166.76,166.87875,85.0,111.0
239,167.06,167.17375,85.0,90.0
240,167.36,167.47875,85.0,111.0
241,167.66,167.79125,87.0,98.0
242,167.96,168.3725,85.0,95.0
243,168.26,168.47125,83.0,77.0
244,168.56,168.67125000000001,80.0,70.0
245,168.86,168.975,83.0,95.0
246,169.16,171.12625,80.0,86.0
247,171.26,171.43125,75.0,76.0
248,171.56,172.39000000000001,73.0,85.0
249,172.46,172.56875,75.0,68.0
250,172.76,173.12,78.0,93.0
251,173.36,173.9575,75.0,83.0
252,173.96,174.28875,78.0,86.0
253,174.26,174.41875000000002,80.0,63.0
254,174.56,174.67875,83.0,72.0
255,174.86,174.98250000000002,85.0,83.0
256,175.01,175.15625,83.0,79.0
257,175.16,176.1925,80.0,77.0
258,176.36,176.485,85.0,85.0
259,176.66,176.76125,85.0,104.0
260,176.96,177.07750000000001,85.0,112.0
261,177.26,177.36875,85.0,104.0
262,177.56,177.68375,85.0,117.0
263,177.86,177.9675,83.0,90.0
264,178.16,178.28625,83.0,85.0
265,178.46,178.5725,85.0,104.0
266,178.76,180.56,87.0,112.0
267,181.16,181.285,80.0,68.0
268,181.46,181.57,80.0,74.0
269,181.76,181.9225,80.0,76.0
270,182.06,182.17125000000001,83.0,93.0
271,182.36,182.75375,83.0,93.0
272,182.96,183.0725,80.0,81.0
273,183.26,183.48250000000002,80.0,77.0
274,183.56,183.69,83.0,87.0
275,183.86,183.9675,85.0,87.0
276,184.16,184.5875,87.0,111.0
277,184.76,185.67125000000001,85.0,117.0
278,185.96,186.07875,85.0,111.0
279,186.26,186.37375,85.0,90.0
280,186.56,186.67875,85.0,111.0
281,186.86,186.99125,87.0,98.0
282,187.16,187.5725,85.0,95.0
283,187.46,187.67125000000001,83.0,77.0
284,187.76,187.87125,80.0,70.0
285,188.06,188.175,83.0,95.0
286,188.36,190.53625,80.0,86.0
287,190.46,190.63125,75.0,76.0
288,190.76,191.59,73.0,85.0
289,191.66,191.76875,75.0,68.0
290,191.96,192.32,78.0,93.0
291,192.41,193.1575,75.0,83.0
292,193.16,193.48875,78.0,86.0
293,193.46,193.61875,80.0,63.0
294,193.76,193.87875,83.0,72.0
295,194.06,194.1825,85.0,83.0
296,194.21,194.35625000000002,83.0,79.0
297,194.36,195.3925,80.0,77.0
298,195.56,195.6875,78.0,90.0
299,195.86,195.975,78.0,83.0
300,196.16,196.39875,78.0,98.0
301,196.46,196.82750000000001,75.0,69.0
302,196.76,197.08,78.0,70.0
303,197.06,197.19,80.0,75.0
304,197.36,197.52125,83.0,86.0
305,197.66,197.81125,82.0,83.0
306,197.96,199.76,80.0,85.0
307,200.36,200.485,80.0,68.0
308,200.66,200.77,80.0,74.0
309,200.96,201.1225,80.0,76.0
310,201.26,201.37125,83.0,93.0
311,201.56,201.95375,83.0,93.0
312,202.16,202.2725,80.0,81.0
313,202.46,202.6825,80.0,77.0
314,202.76,202.89000000000001,83.0,87.0
315,203.06,203.16750000000002,85.0,87.0
316,203.36,203.7875,87.0,111.0
317,203.96,204.87125,85.0,117.0
318,205.16,205.27875,85.0,111.0
319,205.46,205.57375000000002,85.0,90.0
320,205.76,205.87875,85.0,111.0
321,206.06,206.19125,87.0,98.0
322,206.36,206.7725,85.0,95.0
323,206.66,206.87125,83.0,77.0
324,206.96,207.07125,80.0,70.0
325,207.26,207.375,83.0,95.0
326,207.56,209.73625,80.0,86.0
327,209.66,209.83125,75.0,76.0
328,209.96,210.79,73.0,85.0
329,211.16,211.52,78.0,93.0
330,211.76,212.35750000000002,75.0,83.0
331,212.36,212.68875,78.0,86.0
332,212.66,212.81875,80.0,63.0
333,212.96,213.07875,83.0,72.0
334,213.26,213.3825,85.0,83.0
335,213.41,213.55625,83.0,79.0
336,213.56,214.5925,80.0,77.0
337,214.76,214.885,85.0,85.0
338,215.06,215.16125,85.0,104.0
339,215.36,215.4775,85.0,112.0
340,215.66,215.76875,85.0,104.0
341,215.96,216.08375,85.0,117.0
342,216.26,216.3675,83.0,90.0
343,216.56,216.68625,83.0,85.0
344,216.86,216.9725,85.0,104.0
345,217.16,217.94125,87.0,112.0
346,219.56,219.685,80.0,68.0
347,219.86,219.97,80.0,74.0
348,220.16,220.3225,80.0,76.0
349,220.46,220.57125,83.0,93.0
350,220.76,221.15375,83.0,93.0
351,221.31625,221.43,80.0,81.0
352,221.61625,221.83875,80.0,77.0
353,221.91625,222.04625000000001,83.0,87.0
354,222.21625,222.32500000000002,85.0,87.0
355,222.51625,222.945,87.0,111.0
356,223.11625,224.02875,85.0,117.0
357,224.31625,224.435,85.0,111.0
358,224.61625,224.73000000000002,85.0,90.0
359,224.91625,225.03625,85.0,111.0
360,225.21625,225.3475,87.0,98.0
361,225.51625,225.92875,85.0,95.0
362,225.81625,226.0275,83.0,77.0
363,226.11625,226.2275,80.0,70.0
364,226.41625,226.53125,83.0,95.0
365,226.71625,228.51625,80.0,86.0
366,228.81625,228.98875,75.0,76.0
367,229.11625,229.9475,73.0,85.0
368,230.01625,230.12625,75.0,68.0
369,230.31625,230.6775,78.0,93.0
370,230.76625,231.51375000000002,75.0,83.0
371,231.51625,231.84625,78.0,86.0
372,231.81625,231.975,80.0,63.0
373,232.11625,232.23625,83.0,72.0
374,232.41625,232.54,85.0,83.0
375,232.56625,232.71375,83.0,79.0
376,232.71625,233.75,80.0,77.0
377,233.91625,234.04375000000002,78.0,90.0
378,234.21625,234.3325,78.0,83.0
379,234.51625,234.755,78.0,98.0
380,234.81625,235.18375,75.0,69.0
381,235.11625,235.4375,78.0,70.0
382,235.41625,235.54625000000001,80.0,75.0
383,235.71625,235.8775,83.0,86.0
384,236.01625,236.16750000000002,82.0,83.0
385,236.31625,238.11625,80.0,85.0
386,238.41625,238.58875,75.0,76.0
387,238.71625,239.5475,73.0,85.0
388,239.61625,239.72625,75.0,68.0
389,239.91625,240.2775,78.0,93.0
390,240.36625,241.11375,75.0,83.0
391,241.11625,241.44625,78.0,86.0
392,241.41625,241.57500000000002,80.0,63.0
393,241.71625,241.83625,83.0,72.0
394,242.01625,242.14000000000001,85.0,83.0
395,242.16625,242.31375,83.0,79.0
396,242.31625,243.35,80.0,77.0
397,243.53125,243.72375,78.0,67.0
398,243.94125,244.0925,78.0,67.0
399,244.34625,244.70375,78.0,66.0
400,244.70000000000002,245.2125,75.0,59.0
401,245.13,245.82,78.0,67.0
402,245.56375,246.01125000000002,80.0,64.0
403,245.9575,246.92125000000001,83.0,59.0
404,246.87875,247.8825,82.0,71.0
405,248.69875000000002,248.74,85.0,36.0
406,247.82500000000002,251.07250000000002,80.0,64.0
