,start,end,pitch,velocity
0,1.5655728833333336,1.883195654166667,61.0,94.0
1,1.8114743833333335,2.0963102875,66.0,86.0
2,2.0573758833333335,2.2868839500000004,68.0,86.0
3,2.3032773833333335,2.6290968708333335,69.0,94.0
4,2.5491788833333335,2.8381131458333337,73.0,98.0
5,2.0573758833333335,3.0163917333333337,54.0,90.0
6,1.0737698833333336,3.0348343458333336,42.0,96.0
7,2.0573758833333335,3.0430310625000003,57.0,88.0
8,2.5491788833333335,3.0491786000000003,61.0,85.0
9,1.5655728833333336,3.0553261375000003,49.0,83.0
10,2.7950803833333335,3.1106539750000004,78.0,88.0
11,3.0409818833333335,4.223358262500001,76.0,96.0
12,3.0409818833333335,4.809423504166667,40.0,97.0
13,3.532784883333334,4.811472683333334,47.0,84.0
14,4.516390883333334,5.032784033333334,52.0,85.0
15,4.024587883333334,5.057374183333334,56.0,90.0
16,4.024587883333334,5.0840135125,59.0,89.0
17,5.008193883333334,5.297128145833334,57.0,83.0
18,5.991799883333334,6.897537075000001,50.0,90.0
19,5.499996883333334,6.9446681958333345,45.0,77.0
20,6.483602883333334,6.952864912500001,54.0,87.0
21,5.008193883333334,6.991799316666667,38.0,95.0
22,5.008193883333334,6.991799316666667,62.0,89.0
23,6.975405883333334,8.002044645833335,59.0,90.0
24,7.467208883333335,8.368847716666668,47.0,87.0
25,6.975405883333334,8.387290329166667,40.0,94.0
26,7.959011883333335,8.459011600000002,56.0,101.0
27,8.450814883333335,8.602454141666668,52.0,96.0
28,8.942617883333334,10.020486125000001,54.0,83.0
29,8.942617883333334,10.168027025,57.0,89.0
30,8.942617883333334,10.784829954166668,42.0,93.0
31,9.434420883333335,10.793026670833335,49.0,84.0
32,10.418026883333335,10.963108541666669,54.0,96.0
33,9.926223883333334,10.987698691666669,61.0,90.0
34,10.909829883333336,11.565567216666668,66.0,90.0
35,10.909829883333336,11.573763933333336,62.0,93.0
36,10.909829883333336,11.659829458333334,59.0,89.0
37,10.909829883333336,11.743845804166668,47.0,96.0
38,11.893435883333336,12.536878141666667,57.0,85.0
39,11.893435883333336,12.717205908333336,45.0,97.0
40,11.893435883333336,12.901632033333335,64.0,97.0
41,12.877041883333336,13.442615333333336,59.0,84.0
42,12.877041883333336,13.504090708333335,62.0,90.0
43,12.877041883333336,13.536877575000002,55.0,81.0
44,13.368844883333335,14.100401845833336,50.0,84.0
45,13.860647883333336,14.82376209166667,55.0,91.0
46,12.877041883333336,14.827860450000003,43.0,89.0
47,13.860647883333336,14.838106345833335,62.0,94.0
48,13.860647883333336,14.852450600000003,59.0,91.0
49,14.352450883333335,14.862696495833335,50.0,83.0
50,15.827859883333335,16.1311384,59.0,87.0
51,15.581958383333335,16.18236787916667,56.0,87.0
52,15.090155383333336,16.344253033333334,47.0,84.0
53,14.844253883333336,16.547121770833336,44.0,96.0
54,15.336056883333335,16.547121770833336,50.0,87.0
55,16.319662883333336,16.764334762500003,56.0,82.0
56,16.073761383333334,16.918023200000004,62.0,92.0
57,17.057367383333336,17.715153895833335,56.0,71.0
58,17.303268883333335,17.86064561666667,61.0,96.0
59,17.549170383333337,17.881137408333334,68.0,93.0
60,16.811465883333337,18.5594157125,49.0,102.0
61,18.040973383333334,18.59835011666667,65.0,77.0
62,18.040973383333334,18.653677954166668,61.0,78.0
63,18.286874883333336,18.6577763125,68.0,86.0
64,17.795071883333335,18.682366462500003,56.0,82.0
65,18.778677883333337,19.514333204166668,65.0,92.0
66,18.778677883333337,19.5184315625,68.0,86.0
67,18.778677883333337,19.547120070833337,73.0,87.0
68,18.778677883333337,19.579906937500002,61.0,84.0
69,19.762283883333335,19.836054333333337,61.0,73.0
70,19.762283883333335,20.00613620416667,73.0,49.0
71,18.778677883333337,20.3053163625,49.0,85.0
72,18.778677883333337,20.342201587500004,56.0,88.0
73,19.762283883333335,20.649578462500003,65.0,88.0
74,19.762283883333335,20.678266970833334,68.0,83.0
75,20.745889883333337,21.54302057916667,61.0,91.0
76,21.729495883333335,22.209003808333335,66.0,94.0
77,21.729495883333335,22.21924970416667,61.0,99.0
78,22.713101883333337,22.889331291666668,57.0,76.0
79,22.713101883333337,23.24588846666667,61.0,84.0
80,23.204904883333338,23.469248995833336,57.0,83.0
81,23.696707883333335,23.868838933333336,57.0,92.0
82,23.696707883333335,23.999986400000004,66.0,90.0
83,23.696707883333335,24.010232295833337,61.0,99.0
84,20.745889883333337,24.01433065416667,42.0,97.0
85,21.237692883333334,24.018429012500004,49.0,81.0
86,24.680313883333337,25.432362637500002,59.0,91.0
87,24.680313883333337,25.752034587500003,52.0,91.0
88,25.663919883333335,26.106542583333336,56.0,91.0
89,25.663919883333335,26.15367370416667,64.0,96.0
90,25.663919883333335,26.180313033333338,59.0,90.0
91,26.647525883333337,27.090148583333338,56.0,97.0
92,27.139328883333338,27.454902475000004,52.0,82.0
93,27.63113188333334,27.803262933333336,59.0,95.0
94,27.63113188333334,27.805312112500005,56.0,97.0
95,24.680313883333337,27.811459650000003,40.0,98.0
96,25.172116883333338,27.815558008333337,47.0,82.0
97,27.63113188333334,27.91186942916667,64.0,97.0
98,28.614737883333337,29.40777022083334,62.0,92.0
99,28.614737883333337,29.682360229166672,59.0,91.0
100,29.106540883333338,29.938507625000003,54.0,81.0
101,29.59834388333334,29.979491208333336,66.0,99.0
102,30.090146883333336,30.79711369583334,54.0,76.0
103,30.581949883333337,31.073752883333338,62.0,91.0
104,30.581949883333337,31.124982362500003,59.0,90.0
105,31.56555588333334,31.678260737500004,62.0,93.0
106,31.073752883333338,31.69465417083334,54.0,60.0
107,31.56555588333334,31.731539395833337,66.0,94.0
108,31.56555588333334,31.749982008333337,59.0,94.0
109,28.614737883333337,31.891375370833337,47.0,96.0
110,32.54916188333334,33.15776809583334,68.0,90.0
111,32.54916188333334,33.342194220833335,61.0,89.0
112,33.532767883333335,33.79506281666667,61.0,89.0
113,33.532767883333335,34.020472525,64.0,96.0
114,34.02457088333334,34.295062533333336,61.0,89.0
115,34.51637388333334,34.79916060833334,61.0,95.0
116,34.51637388333334,34.98153755416667,68.0,88.0
117,35.49997988333334,35.5880945875,64.0,101.0
118,35.49997988333334,35.637274887500006,68.0,97.0
119,35.49997988333334,35.641373245833336,61.0,96.0
120,32.54916188333334,35.668012575000006,37.0,94.0
121,33.04096488333334,35.69055354583334,44.0,76.0
122,36.48358588333334,37.217192025,61.0,88.0
123,36.48358588333334,37.32579852083334,57.0,86.0
124,37.467191883333335,37.99178175000001,66.0,100.0
125,37.95899488333334,38.27047011666667,57.0,98.0
126,38.45079788333334,38.79505998333334,57.0,95.0
127,38.45079788333334,38.82579767083334,61.0,91.0
128,39.43440388333334,39.59833821666667,57.0,96.0
129,39.43440388333334,39.604485754166674,61.0,100.0
130,36.97538888333334,39.65776441250001,49.0,83.0
131,39.43440388333334,39.663911950000006,66.0,94.0
132,36.48358588333334,39.672108666666674,42.0,95.0
133,40.41800988333334,41.151616025,59.0,90.0
134,40.41800988333334,41.233583191666675,68.0,94.0
135,41.40161588333334,41.94874672083334,64.0,97.0
136,41.89341888333334,42.20694329583334,59.0,90.0
137,42.38522188333334,42.99997563333334,68.0,87.0
138,42.38522188333334,43.083991979166676,64.0,95.0
139,42.38522188333334,43.09628705416667,59.0,92.0
140,43.36882788333334,43.67005722083334,64.0,97.0
141,43.36882788333334,43.6782539375,68.0,96.0
142,43.36882788333334,43.71308998333334,59.0,96.0
143,40.90981288333334,43.81349976250001,47.0,82.0
144,40.41800988333334,43.89546692916667,40.0,95.0
145,44.35243388333334,45.010220395833336,66.0,88.0
146,44.35243388333334,45.03481054583334,62.0,95.0
147,44.84423688333334,45.23153174583334,57.0,79.0
148,44.35243388333334,45.67415444583334,38.0,98.0
149,45.33603988333334,45.682351162500005,57.0,95.0
150,45.33603988333334,45.70694131250001,62.0,97.0
151,45.33603988333334,45.811449450000005,66.0,94.0
152,46.31964588333334,47.01226844166667,64.0,97.0
153,46.31964588333334,47.028661875000004,61.0,91.0
154,46.31964588333334,47.42620263333334,49.0,97.0
155,46.81144888333334,47.45284196250001,56.0,85.0
156,47.30325188333334,47.48562882916667,64.0,98.0
157,47.30325188333334,47.51841569583334,68.0,91.0
158,47.30325188333334,47.52251405416667,61.0,96.0
159,48.28685788333334,49.01636566666667,66.0,88.0
160,48.28685788333334,49.07374268333334,59.0,89.0
161,48.28685788333334,49.11062790833334,62.0,91.0
162,48.77866088333334,49.63521777500001,54.0,85.0
163,49.27046388333334,49.80120128750001,62.0,96.0
164,48.28685788333334,49.81759472083334,47.0,95.0
165,49.76226688333334,50.30325018333334,59.0,98.0
166,51.23767588333334,51.50816753333334,56.0,106.0
167,50.25406988333334,51.592183879166676,64.0,94.0
168,51.48357738333334,51.752019854166676,52.0,97.0
169,51.72947888333334,51.77661000416667,64.0,58.0
170,51.97538038333334,52.19259337500001,52.0,94.0
171,51.72947888333334,52.19874091250001,59.0,96.0
172,50.74587288333334,52.22947860000001,47.0,89.0
173,50.25406988333334,52.24792121250001,40.0,96.0
174,52.22128188333334,52.784806154166674,61.0,102.0
175,52.71308488333334,53.260215720833344,57.0,93.0
176,52.95898638333334,53.43849430833334,61.0,100.0
177,53.450789383333344,53.747920362500004,66.0,101.0
178,53.69669088333334,53.91800223333334,57.0,85.0
179,52.22128188333334,54.04300216250001,42.0,98.0
180,52.46718338333334,54.05324805833334,49.0,81.0
181,54.188493883333344,54.81964106666668,61.0,86.0
182,54.188493883333344,54.93439510000001,57.0,84.0
183,54.188493883333344,55.57988653750001,42.0,94.0
184,55.17209988333334,56.03480431250001,57.0,95.0
185,55.17209988333334,56.05939446250001,61.0,104.0
186,55.17209988333334,56.06349282083334,66.0,96.0
187,56.647508883333344,57.04504964166667,57.0,98.0
188,56.89341038333334,57.094229941666676,61.0,100.0
189,57.385213383333344,57.62086898750001,57.0,91.0
190,57.385213383333344,57.674147645833344,61.0,102.0
191,57.385213383333344,57.743819737500004,64.0,97.0
192,58.12291788333334,58.372917741666676,57.0,89.0
193,58.12291788333334,58.39136035416667,61.0,90.0
194,58.86062238333334,58.96513052083334,57.0,67.0
195,56.40160738333334,59.42414665416668,52.0,92.0
196,59.10652388333334,59.42824501250001,64.0,97.0
197,59.10652388333334,59.434392550000005,61.0,102.0
198,59.10652388333334,59.45693352083334,57.0,95.0
199,56.15570588333334,59.48562202916668,45.0,97.0
200,60.581932883333344,60.999965433333344,59.0,96.0
201,60.82783438333334,61.133162079166674,62.0,96.0
202,61.319637383333344,61.545047091666675,59.0,79.0
203,61.319637383333344,61.569637241666676,62.0,95.0
204,61.319637383333344,61.569637241666676,66.0,96.0
205,62.05734188333334,62.65160384166668,62.0,88.0
206,62.05734188333334,62.66799727500001,59.0,83.0
207,60.33603138333334,63.31143953333334,54.0,92.0
208,63.040947883333345,63.370865729166674,62.0,96.0
209,63.040947883333345,63.38930834166668,66.0,95.0
210,60.09012988333334,63.401603416666674,47.0,99.0
211,63.040947883333345,63.40365259583334,59.0,94.0
212,64.02455388333334,64.192586575,61.0,93.0
213,64.02455388333334,64.20693082916668,64.0,93.0
214,64.51635688333334,65.07988115416667,61.0,88.0
215,64.76225838333335,65.14135652916667,64.0,94.0
216,64.02455388333334,65.35856952083334,49.0,100.0
217,64.27045538333334,65.3606187,56.0,86.0
218,65.25406138333334,65.57373333333334,68.0,101.0
219,65.49996288333334,65.88725774583334,61.0,86.0
220,65.99176588333334,66.58192948333334,64.0,96.0
221,65.99176588333334,66.64955239583334,61.0,89.0
222,66.48356888333335,67.15979800833334,44.0,70.0
223,66.97537188333334,67.266355325,61.0,96.0
224,66.97537188333334,67.44258473333335,64.0,101.0
225,66.97537188333334,67.56553548333335,68.0,97.0
226,65.99176588333334,67.84627302916668,37.0,93.0
227,67.46717488333334,67.86061728333334,61.0,92.0
228,67.22127338333334,67.87496153750001,44.0,88.0
229,67.71307638333334,67.88930579166667,64.0,95.0
230,67.95897788333335,68.27660065416667,57.0,94.0
231,67.95897788333335,68.51840379583334,66.0,89.0
232,68.45078088333334,68.79094462500001,57.0,88.0
233,68.69668238333334,69.02045269166668,61.0,104.0
234,69.18848538333334,69.42823934583335,57.0,93.0
235,69.18848538333334,69.50200979583335,61.0,106.0
236,69.18848538333334,69.69053427916667,66.0,96.0
237,67.95897788333335,69.81143585000001,42.0,98.0
238,68.20487938333335,69.85856697083334,49.0,83.0
239,69.92618988333334,70.58807475416667,61.0,91.0
240,69.92618988333334,70.62086162083334,57.0,91.0
241,70.90979588333335,71.18438589166668,57.0,95.0
242,69.92618988333334,71.21102522083335,42.0,92.0
243,70.90979588333335,71.24586126666668,61.0,111.0
244,71.15569738333335,71.27659895416667,49.0,95.0
245,70.90979588333335,71.37700873333334,66.0,98.0
246,71.40159888333335,71.58807418750001,57.0,97.0
247,71.89340188333334,72.20077875833334,59.0,87.0
248,71.89340188333334,72.40569667500002,64.0,96.0
249,72.38520488333334,72.73561452083334,59.0,91.0
250,72.63110638333335,72.83192594166668,64.0,95.0
251,73.12290938333334,73.31553222500001,59.0,96.0
252,73.12290938333334,73.37905677916667,68.0,96.0
253,72.13930338333334,73.71102380416667,47.0,93.0
254,71.89340188333334,73.76635164166667,40.0,96.0
255,73.86061388333334,74.66389211666667,59.0,91.0
256,73.86061388333334,74.70282652083334,64.0,96.0
257,74.59831838333335,75.09217056250002,47.0,82.0
258,73.86061388333334,75.14954757916668,40.0,93.0
259,74.84421988333334,75.30938355416667,59.0,98.0
260,75.09012138333334,75.35651467500001,64.0,97.0
261,75.33602288333334,75.42413758750001,68.0,97.0
262,75.82782588333335,75.98151432083334,57.0,87.0
263,75.82782588333335,76.10856342916668,62.0,91.0
264,76.31962888333334,76.44462881250001,62.0,90.0
265,76.07372738333335,76.45487470833335,57.0,88.0
266,76.56553038333334,77.19053002916668,57.0,89.0
267,76.56553038333334,77.22536607500001,62.0,97.0
268,76.56553038333334,77.3114316,66.0,96.0
269,75.82782588333335,77.31552995833334,50.0,98.0
270,77.79503788333335,78.09831640000002,61.0,93.0
271,77.79503788333335,78.30528349583335,64.0,98.0
272,78.28684088333334,78.79503731666668,61.0,91.0
273,78.53274238333334,78.81552910833335,64.0,91.0
274,77.79503788333335,78.88315202083335,49.0,104.0
275,78.04093938333334,78.88725037916667,56.0,83.0
276,79.02454538333335,79.14954531250001,64.0,98.0
277,79.02454538333335,79.18438135833334,68.0,96.0
278,79.02454538333335,79.19872561250001,61.0,94.0
279,79.76224988333334,80.28888892916667,59.0,95.0
280,79.76224988333334,80.29708564583335,62.0,96.0
281,79.76224988333334,80.766347675,66.0,95.0
282,80.49995438333335,80.87085581250001,59.0,97.0
283,80.25405288333334,81.06347865416667,54.0,85.0
284,79.76224988333334,81.12290485000001,47.0,98.0
285,80.99175738333335,81.12905238750001,59.0,98.0
286,80.99175738333335,81.13110156666667,62.0,97.0
287,81.72946188333334,82.47946145833335,64.0,90.0
288,81.72946188333334,82.48151063750001,76.0,91.0
289,82.46716638333335,82.84831370833335,59.0,97.0
290,82.95896938333334,83.28069051250002,56.0,95.0
291,82.71306788333334,83.39749372500002,64.0,102.0
292,82.71306788333334,83.63929686666668,68.0,104.0
293,83.45077238333334,83.7110181375,64.0,95.0
294,81.72946188333334,83.72126403333334,52.0,96.0
295,83.20487088333334,83.72741157083334,59.0,97.0
296,82.71306788333334,83.73355910833334,71.0,100.0
297,83.69667388333335,84.25405061666667,66.0,101.0
298,84.43437838333334,84.77249294583335,61.0,106.0
299,84.18847688333335,84.78273884166668,57.0,96.0
300,83.69667388333335,85.04298459583335,42.0,96.0
301,83.94257538333335,85.05323049166668,49.0,79.0
302,84.92618138333334,85.3093778875,61.0,97.0
303,84.92618138333334,85.46716468333335,66.0,96.0
304,85.41798438333335,85.53273841666667,57.0,78.0
305,85.66388588333335,85.84011529166668,57.0,95.0
306,85.66388588333335,85.97741029583335,62.0,99.0
307,85.90978738333334,86.29298388750001,57.0,90.0
308,86.15568888333334,86.32372157500001,62.0,90.0
309,86.40159038333334,86.44257396666667,62.0,84.0
310,86.40159038333334,86.91388517500002,66.0,104.0
311,85.66388588333335,86.93437696666668,50.0,97.0
312,86.89339338333335,87.01224577500001,62.0,95.0
313,87.63109788333334,87.88724527916668,59.0,92.0
314,87.63109788333334,88.12904842083334,64.0,96.0
315,88.12290088333334,88.49380231250001,59.0,93.0
316,88.36880238333335,88.56552358333334,64.0,92.0
317,87.87699938333334,88.98150695416668,47.0,89.0
318,87.63109788333334,89.01224464166668,40.0,97.0
319,88.86060538333335,89.08806427083334,64.0,101.0
320,88.86060538333335,89.11470360000001,68.0,95.0
321,88.86060538333335,89.11880195833335,59.0,93.0
322,89.59830988333334,89.86470317500002,57.0,91.0
323,89.59830988333334,90.06347355416668,61.0,95.0
324,89.59830988333334,90.41183401250001,64.0,97.0
325,90.33601438333335,90.65978469166667,61.0,102.0
326,90.09011288333335,90.69257155833334,57.0,90.0
327,89.84421138333335,90.93847305833334,52.0,85.0
328,90.82781738333334,91.02453858333334,57.0,95.0
329,90.82781738333334,91.11265328750001,64.0,101.0
330,90.82781738333334,91.11880082500001,61.0,101.0
331,89.59830988333334,91.13929261666668,45.0,96.0
332,91.07371888333334,91.19871881250002,52.0,96.0
333,91.56552188333335,91.64339069166668,57.0,90.0
334,91.56552188333335,92.10240682500002,61.0,97.0
335,92.05732488333335,92.76019333750001,57.0,96.0
336,92.30322638333334,92.81347199583334,61.0,97.0
337,91.81142338333335,92.86470147500002,49.0,89.0
338,91.56552188333335,92.87699655000002,42.0,100.0
339,92.79502938333334,93.17002917083335,66.0,99.0
340,93.04093088333335,93.27453730833335,61.0,82.0
341,93.28683238333335,93.38724216250002,57.0,88.0
342,93.53273388333335,93.69461903750002,57.0,91.0
343,93.53273388333335,93.83191404166668,62.0,94.0
344,93.77863538333335,94.17412696250001,57.0,87.0
345,94.02453688333334,94.35035637083335,62.0,90.0
346,94.27043838333334,94.76019220416669,66.0,97.0
347,94.76224138333335,94.94871668750001,62.0,97.0
348,93.53273388333335,95.01633960000001,50.0,96.0
349,95.49994588333334,95.79092932500001,59.0,92.0
350,95.49994588333334,96.02863410833335,62.0,96.0
351,95.49994588333334,96.26838807083335,66.0,90.0
352,95.99174888333334,96.35445359583335,59.0,94.0
353,96.23765038333335,96.54092890000001,62.0,95.0
354,95.49994588333334,96.78273204166668,47.0,98.0
355,96.48355188333335,96.80937137083335,54.0,96.0
356,96.72945338333335,96.90568279166668,59.0,95.0
357,96.72945338333335,97.16183018750002,62.0,98.0
358,96.72945338333335,97.24789571250001,66.0,95.0
359,97.22125638333334,97.35240385000002,59.0,85.0
360,97.46715788333334,97.69871512916669,59.0,95.0
361,97.46715788333334,97.90978058333334,64.0,99.0
362,97.95896088333335,98.12494439583335,59.0,91.0
363,98.20486238333335,98.55732120000002,59.0,97.0
364,98.20486238333335,98.56346873750002,64.0,101.0
365,98.69666538333334,98.85240300000001,59.0,96.0
366,97.71305938333334,98.88109150833334,47.0,94.0
367,97.46715788333334,98.92002591250001,40.0,99.0
368,98.69666538333334,99.03068158750001,64.0,100.0
369,98.69666538333334,99.20691099583334,68.0,101.0
370,98.94256688333334,99.42207480833335,59.0,95.0
371,99.43436988333335,99.99174661666667,66.0,101.0
372,100.17207438333335,100.51018894583335,61.0,106.0
373,99.92617288333335,100.52043484166668,57.0,96.0
374,99.43436988333335,100.78068059583335,42.0,96.0
375,99.68027138333335,100.79092649166668,49.0,79.0
376,100.66387738333334,101.04707388750002,61.0,97.0
377,100.66387738333334,101.20486068333335,66.0,96.0
378,101.15568038333335,101.27043441666667,57.0,78.0
379,101.40158188333335,101.57781129166668,57.0,95.0
380,101.40158188333335,101.71510629583335,62.0,99.0
381,101.64748338333335,102.03067988750001,57.0,90.0
382,101.89338488333335,102.06141757500001,62.0,90.0
383,102.13928638333334,102.18026996666669,62.0,84.0
384,102.13928638333334,102.65158117500002,66.0,104.0
385,101.40158188333335,102.67207296666668,50.0,97.0
386,102.63108938333335,102.74994177500001,62.0,95.0
387,103.36879388333335,103.62494127916668,59.0,92.0
388,103.36879388333335,103.86674442083334,64.0,96.0
389,103.86059688333334,104.23149831250001,59.0,93.0
390,104.10649838333335,104.30321958333334,64.0,92.0
391,103.61469538333334,104.71920295416668,47.0,89.0
392,103.36879388333335,104.74994064166668,40.0,97.0
393,104.59830138333335,104.82576027083334,64.0,101.0
394,104.59830138333335,104.85239960000001,68.0,95.0
395,104.59830138333335,104.85649795833335,59.0,93.0
396,105.33600588333334,105.60854671250002,61.0,90.0
397,105.33600588333334,105.77862858333334,64.0,99.0
398,105.82780888333335,106.21715292500001,61.0,92.0
399,106.07371038333335,106.46715278333335,64.0,99.0
400,105.58190738333334,106.73149689583335,44.0,95.0
401,106.56551338333335,106.92207055833335,61.0,99.0
402,106.56551338333335,107.13723437083335,64.0,106.0
403,105.33600588333334,107.22944743333335,37.0,96.0
404,106.56551338333335,107.29092280833335,68.0,97.0
405,106.81141488333334,107.29707034583335,44.0,90.0
406,107.05731638333334,107.30116870416668,61.0,95.0
407,107.30321788333335,107.55936527916668,57.0,92.0
408,107.30321788333335,107.67821767083335,62.0,95.0
409,107.79502088333335,108.17206985000001,57.0,99.0
410,108.04092238333335,108.33395500416668,62.0,101.0
411,108.53272538333334,108.70485643333335,57.0,96.0
412,107.54911938333335,108.79297113750002,45.0,91.0
413,108.53272538333334,108.84624979583334,62.0,100.0
414,107.30321788333335,108.95075793333335,38.0,98.0
415,108.53272538333334,109.11059390833334,66.0,97.0
416,108.77862688333335,109.18231517916668,57.0,91.0
417,109.02452838333335,109.23969219583334,62.0,96.0
418,109.27042988333335,109.59010183333335,59.0,96.0
419,109.27042988333335,109.82165907916668,66.0,97.0
420,109.76223288333335,109.91182296250001,59.0,99.0
421,109.51633138333335,110.09010155000001,54.0,95.0
422,110.00813438333334,110.37083909583335,62.0,98.0
423,110.00813438333334,110.38313417083334,59.0,97.0
424,110.25403588333334,110.61264223750001,54.0,89.0
425,110.49993738333335,110.66387171666668,59.0,99.0
426,109.27042988333335,110.69665858333335,47.0,96.0
427,110.49993738333335,110.85444537916668,62.0,101.0
428,110.49993738333335,111.00813381666669,66.0,101.0
429,110.99174038333335,111.13518292500001,59.0,98.0
430,111.23764188333335,111.48764174166668,59.0,96.0
431,111.23764188333335,111.67821540416668,64.0,101.0
432,111.97534638333335,112.35034617083335,64.0,95.0
433,111.72944488333334,112.35649370833335,59.0,97.0
434,111.48354338333336,112.56550998333334,47.0,94.0
435,112.46714938333335,112.72739513750001,59.0,97.0
436,112.46714938333335,112.76632954166668,64.0,102.0
437,111.23764188333335,112.84214917083335,40.0,99.0
438,112.46714938333335,112.84829670833335,68.0,101.0
439,112.71305088333335,112.87288685833335,47.0,96.0
440,113.20485388333334,113.73968964583335,66.0,96.0
441,113.69665688333335,114.25403361666669,57.0,96.0
442,113.94255838333335,114.28067294583335,61.0,99.0
443,113.20485388333334,115.09419707500001,42.0,98.0
444,113.45075538333334,115.09829543333335,49.0,89.0
445,114.43436138333335,115.17411506250002,61.0,96.0
446,114.43436138333335,115.19460685416668,66.0,97.0
447,115.17206588333335,115.19460685416668,66.0,97.0
448,115.66386888333335,116.02247523750002,57.0,93.0
449,115.90977038333335,116.13313091250002,62.0,91.0
450,116.40157338333334,116.72944205000002,62.0,90.0
451,115.17206588333335,116.98354026666668,50.0,96.0
452,116.40157338333334,117.19050736250001,66.0,84.0
453,117.87698238333336,118.21509694583335,57.0,86.0
454,118.12288388333334,118.47739187916669,66.0,100.0
455,117.13927788333335,118.49378531250002,50.0,95.0
456,118.36878538333335,118.62288360000002,62.0,90.0
457,118.61468688333335,118.78067039583335,57.0,92.0
458,119.10648988333335,119.30526026250001,61.0,86.0
459,119.10648988333335,119.38722742916669,64.0,94.0
460,119.84419438333335,120.44665305833335,61.0,95.0
461,119.59829288333334,120.67411194583335,56.0,81.0
462,119.10648988333335,120.70894799166668,49.0,91.0
463,120.33599738333335,120.87083314583334,68.0,97.0
464,120.58189888333335,120.92616098333335,61.0,78.0
465,121.07370188333336,121.84829160833335,64.0,91.0
466,121.07370188333336,121.90771780416668,61.0,81.0
467,121.07370188333336,122.27657005416668,37.0,85.0
468,122.05730788333335,122.36673393750002,61.0,95.0
469,122.05730788333335,122.38107819166669,68.0,91.0
470,123.04091388333335,123.73968397916668,66.0,95.0
471,123.53271688333335,124.31140496666669,59.0,95.0
472,123.77861838333335,124.32574922083334,62.0,91.0
473,124.27042138333336,124.77247027916668,66.0,89.0
474,125.00812588333335,125.64951896250001,62.0,91.0
475,125.00812588333335,125.65976485833335,59.0,85.0
476,123.28681538333335,126.14132196250002,54.0,84.0
477,125.99173188333334,126.29705957916669,59.0,96.0
478,126.23763338333335,126.48148570416669,54.0,89.0
479,123.04091388333335,126.55115779583335,47.0,95.0
480,125.99173188333334,126.57984630416668,66.0,95.0
481,126.48353488333335,126.97943624166669,59.0,97.0
482,126.97533788333335,128.19050112916668,66.0,87.0
483,128.45074688333335,128.64132054583334,66.0,90.0
484,128.45074688333335,128.68025495,61.0,85.0
485,126.97533788333335,128.73353360833335,37.0,92.0
486,127.46714088333336,128.76632047500001,44.0,81.0
487,128.94254988333336,130.2232868625,37.0,88.0
488,128.94254988333336,130.35443432916668,61.0,82.0
489,128.94254988333336,130.45279492916669,65.0,86.0
490,130.90976188333335,131.4732861541667,61.0,102.0
491,131.40156488333335,131.94869572083334,57.0,93.0
492,131.64746638333335,132.12697430833336,61.0,100.0
493,132.13926938333336,132.43640036250002,66.0,101.0
494,132.38517088333336,132.60648223333334,57.0,85.0
495,130.90976188333335,132.73148216250001,42.0,98.0
496,131.15566338333335,132.74172805833336,49.0,81.0
497,132.87697388333336,133.5081210666667,61.0,86.0
498,132.87697388333336,133.62287510000002,57.0,84.0
499,132.87697388333336,134.26836653750001,42.0,94.0
500,133.86057988333334,134.72328431250003,57.0,95.0
501,133.86057988333334,134.74787446250002,61.0,104.0
502,133.86057988333334,134.75197282083334,66.0,96.0
503,135.33598888333336,135.73352964166668,57.0,98.0
504,135.58189038333336,135.7827099416667,61.0,100.0
505,136.07369338333336,136.30934898750002,57.0,91.0
506,136.07369338333336,136.36262764583336,61.0,102.0
507,136.07369338333336,136.43229973750002,64.0,97.0
508,136.81139788333334,137.0613977416667,57.0,89.0
509,136.81139788333334,137.0798403541667,61.0,90.0
510,137.54910238333335,137.65361052083335,57.0,67.0
511,135.09008738333335,138.1126266541667,52.0,92.0
512,137.79500388333335,138.1167250125,64.0,97.0
513,137.79500388333335,138.12287255,61.0,102.0
514,137.79500388333335,138.14541352083336,57.0,95.0
515,134.84418588333335,138.17410202916668,45.0,97.0
516,139.27041288333336,139.68844543333336,59.0,96.0
517,139.51631438333337,139.82164207916668,62.0,96.0
518,140.00811738333334,140.23352709166667,59.0,79.0
519,140.00811738333334,140.2581172416667,62.0,95.0
520,140.00811738333334,140.2581172416667,66.0,96.0
521,140.74582188333335,141.34008384166668,62.0,88.0
522,140.74582188333335,141.35647727500003,59.0,83.0
523,139.02451138333336,141.99991953333335,54.0,92.0
524,141.72942788333336,142.0593457291667,62.0,96.0
525,141.72942788333336,142.0777883416667,66.0,95.0
526,138.77860988333336,142.0900834166667,47.0,99.0
527,141.72942788333336,142.09213259583336,59.0,94.0
528,142.71303388333337,142.881066575,61.0,93.0
529,142.71303388333337,142.89541082916668,64.0,93.0
530,143.20483688333334,143.76836115416668,61.0,88.0
531,143.45073838333334,143.8298365291667,64.0,94.0
532,142.71303388333337,144.04704952083335,49.0,100.0
533,142.95893538333334,144.04909870000003,56.0,86.0
534,143.94254138333335,144.26221333333336,68.0,101.0
535,144.18844288333335,144.57573774583335,61.0,86.0
536,144.68024588333336,145.27040948333337,64.0,96.0
537,144.68024588333336,145.33803239583335,61.0,89.0
538,145.17204888333336,145.84827800833335,44.0,70.0
539,145.66385188333336,145.95483532500003,61.0,96.0
540,145.66385188333336,146.13106473333335,64.0,101.0
541,145.66385188333336,146.25401548333335,68.0,97.0
542,144.68024588333336,146.5347530291667,37.0,93.0
543,146.15565488333334,146.54909728333337,61.0,92.0
544,145.90975338333337,146.5634415375,44.0,88.0
545,146.40155638333334,146.57778579166668,64.0,95.0
546,146.64745788333335,146.96508065416668,57.0,94.0
547,146.64745788333335,147.20688379583336,66.0,89.0
548,147.13926088333335,147.479424625,57.0,88.0
549,147.38516238333335,147.7089326916667,61.0,104.0
550,147.87696538333336,148.11671934583336,57.0,93.0
551,147.87696538333336,148.19048979583334,61.0,106.0
552,147.87696538333336,148.37901427916668,66.0,96.0
553,146.64745788333335,148.49991585,42.0,98.0
554,146.89335938333335,148.54704697083335,49.0,83.0
555,148.61466988333336,149.27655475416668,61.0,91.0
556,148.61466988333336,149.30934162083335,57.0,91.0
557,149.59827588333334,149.8728658916667,57.0,95.0
558,148.61466988333336,149.89950522083336,42.0,92.0
559,149.59827588333334,149.93434126666668,61.0,111.0
560,149.84417738333335,149.9650789541667,49.0,95.0
561,149.59827588333334,150.06548873333335,66.0,98.0
562,150.09007888333335,150.2765541875,57.0,97.0
563,150.58188188333335,150.88925875833334,59.0,87.0
564,150.58188188333335,151.09417667500003,64.0,96.0
565,151.07368488333336,151.42409452083336,59.0,91.0
566,151.31958638333336,151.5204059416667,64.0,95.0
567,151.81138938333336,152.00401222500003,59.0,96.0
568,151.81138938333336,152.0675367791667,68.0,96.0
569,150.82778338333335,152.3995038041667,47.0,93.0
570,150.58188188333335,152.4548316416667,40.0,96.0
571,152.54909388333334,153.3523721166667,59.0,91.0
572,152.54909388333334,153.39130652083335,64.0,96.0
573,153.28679838333335,153.78065056250003,47.0,82.0
574,152.54909388333334,153.8380275791667,40.0,93.0
575,153.53269988333335,153.99786355416668,59.0,98.0
576,153.77860138333335,154.04499467500003,64.0,97.0
577,154.02450288333335,154.1126175875,68.0,97.0
578,154.51630588333336,154.66999432083335,57.0,87.0
579,154.51630588333336,154.79704342916668,62.0,91.0
580,155.00810888333336,155.1331088125,62.0,90.0
581,154.76220738333336,155.14335470833336,57.0,88.0
582,155.25401038333337,155.8790100291667,57.0,89.0
583,155.25401038333337,155.913846075,62.0,97.0
584,155.25401038333337,155.99991160000002,66.0,96.0
585,154.51630588333336,156.00400995833334,50.0,98.0
586,156.48351788333335,156.78679640000001,61.0,93.0
587,156.48351788333335,156.99376349583335,64.0,98.0
588,156.97532088333335,157.48351731666668,61.0,91.0
589,157.22122238333336,157.50400910833335,64.0,91.0
590,156.48351788333335,157.57163202083336,49.0,104.0
591,156.72941938333335,157.57573037916669,56.0,83.0
592,157.71302538333336,157.8380253125,64.0,98.0
593,157.71302538333336,157.87286135833335,68.0,96.0
594,157.71302538333336,157.88720561250003,61.0,94.0
595,158.45072988333337,158.9773689291667,59.0,95.0
596,158.45072988333337,158.98556564583336,62.0,96.0
597,158.45072988333337,159.45482767500002,66.0,95.0
598,159.18843438333334,159.55933581250002,59.0,97.0
599,158.94253288333334,159.75195865416669,54.0,85.0
600,158.45072988333337,159.81138485000002,47.0,98.0
601,159.68023738333335,159.81753238750002,59.0,98.0
602,159.68023738333335,159.8195815666667,62.0,97.0
603,160.41794188333336,161.16794145833336,64.0,90.0
604,160.41794188333336,161.16999063750004,76.0,91.0
605,161.15564638333336,161.53679370833336,59.0,97.0
606,161.64744938333337,161.96917051250003,56.0,95.0
607,161.40154788333336,162.08597372500003,64.0,102.0
608,161.40154788333336,162.32777686666668,68.0,104.0
609,162.13925238333334,162.39949813750002,64.0,95.0
610,160.41794188333336,162.40974403333337,52.0,96.0
611,161.89335088333337,162.41589157083337,59.0,97.0
612,161.40154788333336,162.42203910833337,71.0,100.0
613,162.38515388333334,162.9425306166667,66.0,101.0
614,163.12285838333335,163.46097294583336,61.0,106.0
615,162.87695688333335,163.47121884166668,57.0,96.0
616,162.38515388333334,163.73146459583336,42.0,96.0
617,162.63105538333335,163.74171049166668,49.0,79.0
618,163.61466138333336,163.99785788750003,61.0,97.0
619,163.61466138333336,164.15564468333335,66.0,96.0
620,164.10646438333336,164.2212184166667,57.0,78.0
621,164.35236588333336,164.52859529166668,57.0,95.0
622,164.35236588333336,164.66589029583335,62.0,99.0
623,164.59826738333336,164.9814638875,57.0,90.0
624,164.84416888333337,165.01220157500003,62.0,90.0
625,165.09007038333337,165.13105396666668,62.0,84.0
626,165.09007038333337,165.60236517500002,66.0,104.0
627,164.35236588333336,165.6228569666667,50.0,97.0
628,165.58187338333335,165.70072577500002,62.0,95.0
629,166.31957788333335,166.57572527916668,59.0,92.0
630,166.31957788333335,166.81752842083336,64.0,96.0
631,166.81138088333336,167.18228231250004,59.0,93.0
632,167.05728238333336,167.25400358333334,64.0,92.0
633,166.56547938333335,167.6699869541667,47.0,89.0
634,166.31957788333335,167.70072464166668,40.0,97.0
635,167.54908538333336,167.77654427083337,64.0,101.0
636,167.54908538333336,167.8031836,68.0,95.0
637,167.54908538333336,167.80728195833336,59.0,93.0
638,168.28678988333337,168.55318317500002,57.0,91.0
639,168.28678988333337,168.75195355416668,61.0,95.0
640,168.28678988333337,169.10031401250004,64.0,97.0
641,169.02449438333335,169.34826469166669,61.0,102.0
642,168.77859288333335,169.38105155833335,57.0,90.0
643,168.53269138333334,169.62695305833336,52.0,85.0
644,169.51629738333335,169.71301858333337,57.0,95.0
645,169.51629738333335,169.80113328750002,64.0,101.0
646,169.51629738333335,169.80728082500002,61.0,101.0
647,168.28678988333337,169.8277726166667,45.0,96.0
648,169.76219888333335,169.88719881250003,52.0,96.0
649,170.25400188333336,170.3318706916667,57.0,90.0
650,170.25400188333336,170.79088682500003,61.0,97.0
651,170.74580488333336,171.44867333750003,57.0,96.0
652,170.99170638333337,171.50195199583337,61.0,97.0
653,170.49990338333336,171.55318147500003,49.0,89.0
654,170.25400188333336,171.56547655000003,42.0,100.0
655,171.48350938333337,171.85850917083334,66.0,99.0
656,171.72941088333334,171.96301730833335,61.0,82.0
657,171.97531238333335,172.07572216250003,57.0,88.0
658,172.22121388333335,172.38309903750002,57.0,91.0
659,172.22121388333335,172.5203940416667,62.0,94.0
660,172.46711538333335,172.86260696250002,57.0,87.0
661,172.71301688333335,173.03883637083337,62.0,90.0
662,172.95891838333335,173.44867220416668,66.0,97.0
663,173.45072138333336,173.63719668750002,62.0,97.0
664,172.22121388333335,173.70481960000004,50.0,96.0
665,174.18842588333337,174.47940932500003,59.0,92.0
666,174.18842588333337,174.71711410833336,62.0,96.0
667,174.18842588333337,174.95686807083337,66.0,90.0
668,174.68022888333337,175.04293359583335,59.0,94.0
669,174.92613038333334,175.2294089,62.0,95.0
670,174.18842588333337,175.4712120416667,47.0,98.0
671,175.17203188333335,175.49785137083336,54.0,96.0
672,175.41793338333335,175.5941627916667,59.0,95.0
673,175.41793338333335,175.8503101875,62.0,98.0
674,175.41793338333335,175.93637571250002,66.0,95.0
675,175.90973638333335,176.04088385000003,59.0,85.0
676,176.15563788333336,176.38719512916668,59.0,95.0
677,176.15563788333336,176.59826058333337,64.0,99.0
678,176.64744088333336,176.81342439583335,59.0,91.0
679,176.89334238333336,177.24580120000002,59.0,97.0
680,176.89334238333336,177.25194873750002,64.0,101.0
681,177.38514538333337,177.54088300000004,59.0,96.0
682,176.40153938333336,177.56957150833335,47.0,94.0
683,176.15563788333336,177.60850591250002,40.0,99.0
684,177.38514538333337,177.71916158750003,64.0,100.0
685,177.38514538333337,177.89539099583337,68.0,101.0
686,177.63104688333337,178.11055480833335,59.0,95.0
687,178.12284988333334,178.6802266166667,66.0,101.0
688,178.86055438333335,179.19866894583336,61.0,106.0
689,178.61465288333335,179.20891484166668,57.0,96.0
690,178.12284988333334,179.46916059583336,42.0,96.0
691,178.36875138333335,179.47940649166668,49.0,79.0
692,179.35235738333336,179.73555388750003,61.0,97.0
693,179.35235738333336,179.89334068333335,66.0,96.0
694,179.84416038333336,179.9589144166667,57.0,78.0
695,180.09006188333336,180.2662912916667,57.0,95.0
696,180.09006188333336,180.40358629583335,62.0,99.0
697,180.33596338333336,180.7191598875,57.0,90.0
698,180.58186488333337,180.74989757500003,62.0,90.0
699,180.82776638333337,180.86874996666668,62.0,84.0
700,180.82776638333337,181.34006117500002,66.0,104.0
701,180.09006188333336,181.3605529666667,50.0,97.0
702,181.31956938333335,181.43842177500002,62.0,95.0
703,182.05727388333335,182.3134212791667,59.0,92.0
704,182.05727388333335,182.55522442083335,64.0,96.0
705,182.54907688333336,182.91997831250004,59.0,93.0
706,182.79497838333336,182.99169958333337,64.0,92.0
707,182.30317538333335,183.4076829541667,47.0,89.0
708,182.05727388333335,183.43842064166668,40.0,97.0
709,183.28678138333336,183.51424027083337,64.0,101.0
710,183.28678138333336,183.5408796,68.0,95.0
711,183.28678138333336,183.54497795833336,59.0,93.0
712,184.02448588333337,184.2970267125,61.0,90.0
713,184.02448588333337,184.46710858333336,64.0,99.0
714,184.51628888333335,184.90563292500002,61.0,92.0
715,184.76219038333335,185.15563278333335,64.0,99.0
716,184.27038738333337,185.41997689583337,44.0,95.0
717,185.25399338333335,185.61055055833336,61.0,99.0
718,185.25399338333335,185.82571437083337,64.0,106.0
719,184.02448588333337,185.91792743333335,37.0,96.0
720,185.25399338333335,185.97940280833336,68.0,97.0
721,185.49989488333335,185.98555034583336,44.0,90.0
722,185.74579638333336,185.98964870416668,61.0,95.0
723,185.99169788333336,186.24784527916668,57.0,92.0
724,185.99169788333336,186.36669767083336,62.0,95.0
725,186.48350088333336,186.86054985,57.0,99.0
726,186.72940238333337,187.02243500416668,62.0,101.0
727,187.22120538333337,187.39333643333336,57.0,96.0
728,186.23759938333336,187.48145113750002,45.0,91.0
729,187.22120538333337,187.53472979583336,62.0,100.0
730,185.99169788333336,187.63923793333336,38.0,98.0
731,187.22120538333337,187.79907390833336,66.0,97.0
732,187.46710688333337,187.8707951791667,57.0,91.0
733,187.71300838333335,187.92817219583335,62.0,96.0
734,187.95890988333335,188.27858183333336,59.0,96.0
735,187.95890988333335,188.5101390791667,66.0,97.0
736,188.45071288333335,188.60030296250002,59.0,99.0
737,188.20481138333335,188.77858155,54.0,95.0
738,188.69661438333335,189.05931909583336,62.0,98.0
739,188.69661438333335,189.07161417083336,59.0,97.0
740,188.94251588333336,189.30112223750004,54.0,89.0
741,189.18841738333336,189.3523517166667,59.0,99.0
742,187.95890988333335,189.38513858333337,47.0,96.0
743,189.18841738333336,189.5429253791667,62.0,101.0
744,189.18841738333336,189.69661381666668,66.0,101.0
745,189.68022038333336,189.82366292500004,59.0,98.0
746,189.92612188333337,190.1761217416667,59.0,96.0
747,189.92612188333337,190.3666954041667,64.0,101.0
748,190.66382638333337,191.03882617083335,64.0,95.0
749,190.41792488333337,191.04497370833337,59.0,97.0
750,190.17202338333337,191.25398998333335,47.0,94.0
751,191.15562938333335,191.41587513750002,59.0,97.0
752,191.15562938333335,191.4548095416667,64.0,102.0
753,189.92612188333337,191.53062917083335,40.0,99.0
754,191.15562938333335,191.53677670833335,68.0,101.0
755,191.40153088333335,191.56136685833337,47.0,96.0
756,191.89333388333336,192.42816964583335,66.0,96.0
757,192.38513688333336,192.9425136166667,57.0,96.0
758,192.63103838333336,192.96915294583337,61.0,99.0
759,191.89333388333336,193.78267707500004,42.0,98.0
760,192.13923538333336,193.78677543333336,49.0,89.0
761,193.12284138333337,193.86259506250002,61.0,96.0
762,193.12284138333337,193.8830868541667,66.0,97.0
763,193.86054588333337,194.1043982041667,50.0,95.0
764,193.86054588333337,194.14333260833337,57.0,95.0
765,194.35234888333335,194.50193896250002,57.0,98.0
766,194.10644738333335,194.71505359583335,45.0,92.0
767,194.59825038333335,194.98759442500003,57.0,101.0
768,194.59825038333335,195.00398785833335,62.0,101.0
769,194.84415188333335,195.2662827916667,45.0,88.0
770,195.09005338333336,195.3584958541667,57.0,96.0
771,193.86054588333337,195.3707909291667,38.0,101.0
772,195.09005338333336,195.70685631250004,62.0,96.0
773,195.58185638333336,195.76013497083335,57.0,84.0
774,195.09005338333336,195.7826759416667,66.0,96.0
775,195.82775788333336,196.09005281666668,57.0,96.0
776,195.82775788333336,196.35234775000004,62.0,97.0
777,196.31956088333337,196.4343149166667,57.0,90.0
778,196.07365938333336,196.70070820833337,45.0,92.0
779,196.56546238333337,196.97324903750004,62.0,100.0
780,196.56546238333337,196.98759329166668,57.0,100.0
781,196.56546238333337,196.98964247083336,66.0,97.0
782,197.05726538333337,197.27857673333335,62.0,96.0
783,197.05726538333337,197.28062591250003,66.0,89.0
784,197.05726538333337,197.2949701666667,57.0,95.0
785,196.81136388333337,197.3195603166667,45.0,79.0
786,195.82775788333336,197.56136345833335,38.0,101.0
787,197.79496988333335,197.89947802083336,38.0,101.0
788,197.79496988333335,198.18226474583335,57.0,96.0
789,198.04087138333335,198.32570728750002,45.0,89.0
790,198.28677288333336,198.55726453333335,50.0,91.0
791,197.79496988333335,198.83390372083335,65.0,94.0
792,199.02447738333336,199.32775590000003,57.0,96.0
793,198.53267438333336,199.6371819541667,53.0,93.0
794,199.02447738333336,199.66382128333336,65.0,97.0
795,199.51628038333337,199.68841143333336,57.0,89.0
796,199.76218188333337,199.80726382500004,57.0,76.0
797,199.76218188333337,200.29291928750004,62.0,101.0
798,200.49988638333335,200.89537796250002,62.0,99.0
799,200.25398488333337,200.90152550000002,57.0,90.0
800,200.00808338333337,201.10029587916668,53.0,89.0
801,200.99168938333335,201.12693520833335,57.0,95.0
802,199.76218188333337,201.13308274583335,50.0,102.0
803,200.99168938333335,201.1433286416667,62.0,98.0
804,200.99168938333335,201.17611550833337,65.0,97.0
805,201.72939388333336,202.0101314291667,61.0,94.0
806,201.72939388333336,202.2560329291667,64.0,98.0
807,202.46709838333337,202.88103257500003,64.0,93.0
808,202.22119688333336,202.91177026250003,61.0,91.0
809,201.72939388333336,202.9384095916667,37.0,99.0
810,201.97529538333336,202.9875898916667,44.0,89.0
811,202.95890138333337,203.01832757916668,61.0,73.0
812,202.95890138333337,203.03881937083335,64.0,97.0
813,202.95890138333337,203.13103243333336,68.0,97.0
814,203.69660588333335,203.97939260833337,54.0,91.0
815,204.18840888333335,204.52037590833336,54.0,91.0
816,203.69660588333335,204.52652344583336,58.0,85.0
817,204.43431038333335,204.82365442500003,61.0,96.0
818,203.69660588333335,204.95890025000003,42.0,95.0
819,203.94250738333335,204.98144122083337,49.0,83.0
820,204.92611338333336,205.10029361250002,58.0,93.0
821,204.92611338333336,205.1146378666667,54.0,99.0
822,204.92611338333336,205.11668704583337,61.0,92.0
823,204.92611338333336,205.27652302083337,66.0,94.0
824,205.66381788333337,205.93021117500004,59.0,92.0
825,205.66381788333337,206.1166864791667,62.0,93.0
826,205.66381788333337,206.4179158166667,66.0,89.0
827,206.15562088333337,206.52037477500002,59.0,95.0
828,206.40152238333337,206.8052106791667,62.0,93.0
829,205.90971938333337,206.98758762500003,54.0,95.0
830,205.66381788333337,207.1740629291667,47.0,97.0
831,206.89332538333335,207.39947263750003,66.0,98.0
832,207.13922688333335,207.47734144583336,59.0,95.0
833,207.38512838333335,207.5552102541667,62.0,88.0
834,208.12283288333336,208.7170948416667,61.0,95.0
835,208.36873438333336,208.75398006666668,64.0,96.0
836,207.87693138333336,208.9875864916667,56.0,85.0
837,207.63102988333335,209.02652089583336,49.0,96.0
838,208.86053738333337,209.61053695833337,64.0,101.0
839,208.86053738333337,209.62897957083337,61.0,96.0
840,208.86053738333337,209.64332382500004,68.0,94.0
841,210.09004488333335,210.69455273750003,52.0,99.0
842,210.33594638333335,210.72938878333335,56.0,99.0
843,210.58184788333335,211.18840491666668,59.0,90.0
844,209.84414338333337,211.27856880000002,47.0,95.0
845,209.59824188333337,211.28266715833337,40.0,96.0
846,210.82774938333336,211.4158638041667,64.0,97.0
847,211.07365088333336,211.41996216250004,52.0,87.0
848,211.56545388333336,212.70889585833336,40.0,96.0
849,211.56545388333336,213.32569878750002,52.0,88.0
850,211.56545388333336,213.32569878750002,56.0,88.0
851,211.56545388333336,213.32569878750002,59.0,93.0
852,211.56545388333336,213.32569878750002,64.0,94.0
853,213.53266588333335,214.0900426166667,66.0,101.0
854,214.27037038333336,214.60848494583337,61.0,106.0
855,214.02446888333336,214.6187308416667,57.0,96.0
856,213.53266588333335,214.87897659583336,42.0,96.0
857,213.77856738333335,214.8892224916667,49.0,79.0
858,214.76217338333336,215.14536988750004,61.0,97.0
859,214.76217338333336,215.30315668333336,66.0,96.0
860,215.25397638333337,215.3687304166667,57.0,78.0
861,215.49987788333337,215.67610729166668,57.0,95.0
862,215.49987788333337,215.81340229583336,62.0,99.0
863,215.74577938333337,216.12897588750002,57.0,90.0
864,215.99168088333337,216.15971357500004,62.0,90.0
865,216.23758238333338,216.2785659666667,62.0,84.0
866,216.23758238333338,216.74987717500002,66.0,104.0
867,215.49987788333337,216.7703689666667,50.0,97.0
868,216.72938538333335,216.84823777500003,62.0,95.0
869,217.46708988333336,217.72323727916668,59.0,92.0
870,217.46708988333336,217.96504042083336,64.0,96.0
871,217.95889288333336,218.32979431250004,59.0,93.0
872,218.20479438333336,218.40151558333335,64.0,92.0
873,217.71299138333336,218.8174989541667,47.0,89.0
874,217.46708988333336,218.8482366416667,40.0,97.0
875,218.69659738333337,218.92405627083338,64.0,101.0
876,218.69659738333337,218.95069560000002,68.0,95.0
877,218.69659738333337,218.95479395833337,59.0,93.0
878,219.43430188333338,219.70069517500002,57.0,91.0
879,219.43430188333338,219.8994655541667,61.0,95.0
880,219.43430188333338,220.24782601250004,64.0,97.0
881,220.17200638333335,220.4957766916667,61.0,102.0
882,219.92610488333335,220.52856355833336,57.0,90.0
883,219.68020338333335,220.77446505833336,52.0,85.0
884,220.66380938333336,220.86053058333337,57.0,95.0
885,220.66380938333336,220.94864528750003,64.0,101.0
886,220.66380938333336,220.95479282500003,61.0,101.0
887,219.43430188333338,220.9752846166667,45.0,96.0
888,220.90971088333336,221.03471081250004,52.0,96.0
889,221.40151388333337,221.4793826916667,57.0,90.0
890,221.40151388333337,221.93839882500004,61.0,97.0
891,221.89331688333337,222.59618533750003,57.0,96.0
892,222.13921838333337,222.64946399583337,61.0,97.0
893,221.64741538333337,222.70069347500004,49.0,89.0
894,221.40151388333337,222.71298855000003,42.0,100.0
895,222.63102138333338,223.00602117083335,66.0,99.0
896,222.87692288333335,223.11052930833335,61.0,82.0
897,223.12282438333335,223.22323416250003,57.0,88.0
898,223.36872588333335,223.53061103750002,57.0,91.0
899,223.36872588333335,223.6679060416667,62.0,94.0
900,223.61462738333336,224.01011896250003,57.0,87.0
901,223.86052888333336,224.18634837083337,62.0,90.0
902,224.10643038333336,224.5961842041667,66.0,97.0
903,224.59823338333337,224.78470868750003,62.0,97.0
904,223.36872588333335,224.85233160000004,50.0,96.0
905,225.33593788333337,225.62692132500004,59.0,92.0
906,225.33593788333337,225.86462610833337,62.0,96.0
907,225.33593788333337,226.10438007083337,66.0,90.0
908,225.82774088333338,226.19044559583335,59.0,94.0
909,226.07364238333335,226.37692090000004,62.0,95.0
910,225.33593788333337,226.6187240416667,47.0,98.0
911,226.31954388333335,226.64536337083337,54.0,96.0
912,226.56544538333335,226.7416747916667,59.0,95.0
913,226.56544538333335,226.99782218750002,62.0,98.0
914,226.56544538333335,227.08388771250003,66.0,95.0
915,227.05724838333336,227.18839585000003,59.0,85.0
916,227.30314988333336,227.5347071291667,59.0,95.0
917,227.30314988333336,227.74577258333338,64.0,99.0
918,227.79495288333337,227.96093639583336,59.0,91.0
919,228.04085438333337,228.39331320000002,59.0,97.0
920,228.04085438333337,228.39946073750002,64.0,101.0
921,228.53265738333337,228.68839500000004,59.0,96.0
922,227.54905138333336,228.71708350833336,47.0,94.0
923,227.30314988333336,228.75601791250003,40.0,99.0
924,228.53265738333337,228.86667358750003,64.0,100.0
925,228.53265738333337,229.04290299583337,68.0,101.0
926,228.77855888333337,229.25806680833335,59.0,95.0
927,229.27036188333335,229.8277386166667,66.0,101.0
928,230.00806638333336,230.34618094583337,61.0,106.0
929,229.76216488333336,230.3564268416667,57.0,96.0
930,229.27036188333335,230.61667259583336,42.0,96.0
931,229.51626338333335,230.6269184916667,49.0,79.0
932,230.49986938333336,230.88306588750004,61.0,97.0
933,230.49986938333336,231.04085268333336,66.0,96.0
934,230.99167238333337,231.1064264166667,57.0,78.0
935,231.23757388333337,231.4138032916667,57.0,95.0
936,231.23757388333337,231.55109829583336,62.0,99.0
937,231.48347538333337,231.86667188750002,57.0,90.0
938,231.72937688333337,231.89740957500004,62.0,90.0
939,231.97527838333338,232.0162619666667,62.0,84.0
940,231.97527838333338,232.48757317500002,66.0,104.0
941,231.23757388333337,232.5080649666667,50.0,97.0
942,232.46708138333335,232.58593377500003,62.0,95.0
943,233.20478588333336,233.4609332791667,59.0,92.0
944,233.20478588333336,233.70273642083336,64.0,96.0
945,233.69658888333336,234.06749031250004,59.0,93.0
946,233.94249038333336,234.13921158333338,64.0,92.0
947,233.45068738333336,234.5551949541667,47.0,89.0
948,233.20478588333336,234.5859326416667,40.0,97.0
949,234.43429338333337,234.66175227083338,64.0,101.0
950,234.43429338333337,234.68839160000005,68.0,95.0
951,234.43429338333337,234.69248995833337,59.0,93.0
952,235.17199788333338,235.44453871250002,61.0,90.0
953,235.17199788333338,235.61462058333336,64.0,99.0
954,235.66380088333335,236.05314492500003,61.0,92.0
955,235.90970238333335,236.30314478333335,64.0,99.0
956,235.41789938333338,236.56748889583338,44.0,95.0
957,236.40150538333336,236.75806255833336,61.0,99.0
958,236.40150538333336,236.97322637083337,64.0,106.0
959,235.17199788333338,237.06543943333335,37.0,96.0
960,236.40150538333336,237.12691480833337,68.0,97.0
961,236.64740688333336,237.13306234583337,44.0,90.0
962,236.89330838333336,237.1371607041667,61.0,95.0
963,237.13920988333336,237.3953572791667,57.0,92.0
964,237.13920988333336,237.51420967083337,62.0,95.0
965,237.63101288333337,238.00806185000002,57.0,99.0
966,237.87691438333337,238.1699470041667,62.0,101.0
967,238.36871738333338,238.54084843333337,57.0,96.0
968,237.38511138333337,238.62896313750002,45.0,91.0
969,238.36871738333338,238.68224179583336,62.0,100.0
970,237.13920988333336,238.78674993333337,38.0,98.0
971,238.36871738333338,238.94658590833336,66.0,97.0
972,238.61461888333338,239.0183071791667,57.0,91.0
973,238.86052038333335,239.07568419583336,62.0,96.0
974,239.10642188333335,239.42609383333337,59.0,96.0
975,239.10642188333335,239.6576510791667,66.0,97.0
976,239.59822488333336,239.74781496250003,59.0,99.0
977,239.35232338333336,239.92609355000002,54.0,95.0
978,239.84412638333336,240.20683109583337,62.0,98.0
979,239.84412638333336,240.21912617083336,59.0,97.0
980,240.09002788333336,240.44863423750004,54.0,89.0
981,240.33592938333337,240.4998637166667,59.0,99.0
982,239.10642188333335,240.53265058333338,47.0,96.0
983,240.33592938333337,240.6904373791667,62.0,101.0
984,240.33592938333337,240.8441258166667,66.0,101.0
985,240.82773238333337,240.97117492500004,59.0,98.0
986,241.07363388333337,241.3236337416667,59.0,96.0
987,241.07363388333337,241.5142074041667,64.0,101.0
988,241.81133838333338,242.18633817083335,64.0,95.0
989,241.56543688333338,242.19248570833338,59.0,97.0
990,241.31953538333337,242.40150198333336,47.0,94.0
991,242.30314138333335,242.56338713750003,59.0,97.0
992,242.30314138333335,242.6023215416667,64.0,102.0
993,241.07363388333337,242.67814117083336,40.0,99.0
994,242.30314138333335,242.68428870833336,68.0,101.0
995,242.54904288333336,242.70887885833338,47.0,96.0
996,243.04084588333336,243.57568164583336,66.0,96.0
997,243.53264888333337,244.0900256166667,57.0,96.0
998,243.77855038333337,244.11666494583338,61.0,99.0
999,243.04084588333336,244.93018907500004,42.0,98.0
1000,243.28674738333336,244.93428743333337,49.0,89.0
1001,244.27035338333337,245.01010706250003,61.0,96.0
1002,244.27035338333337,245.0305988541667,66.0,97.0
1003,245.00805788333338,245.29699214583337,57.0,83.0
1004,245.99166388333336,246.89740107500003,50.0,90.0
1005,245.49986088333335,246.94453219583337,45.0,77.0
1006,246.48346688333336,246.95272891250002,54.0,87.0
1007,245.00805788333338,246.9916633166667,38.0,95.0
1008,245.00805788333338,246.9916633166667,62.0,89.0
1009,246.97526988333337,248.00190864583337,59.0,90.0
1010,247.46707288333337,248.3687117166667,47.0,87.0
1011,246.97526988333337,248.3871543291667,40.0,94.0
1012,247.95887588333338,248.45887560000003,56.0,101.0
1013,248.45067888333335,248.6023181416667,52.0,96.0
1014,248.94248188333336,250.02035012500002,54.0,83.0
1015,248.94248188333336,250.16789102500005,57.0,89.0
1016,248.94248188333336,250.7846939541667,42.0,93.0
1017,249.43428488333336,250.79289067083337,49.0,84.0
1018,250.41789088333337,250.9629725416667,54.0,96.0
1019,249.92608788333337,250.9875626916667,61.0,90.0
1020,250.90969388333338,251.5654312166667,66.0,90.0
1021,250.90969388333338,251.57362793333337,62.0,93.0
1022,250.90969388333338,251.65969345833338,59.0,89.0
1023,250.90969388333338,251.7437098041667,47.0,96.0
1024,251.89329988333336,252.5367421416667,57.0,85.0
1025,251.89329988333336,252.71706990833337,45.0,97.0
1026,251.89329988333336,252.90149603333336,64.0,97.0
1027,252.87690588333336,253.44247933333338,59.0,84.0
1028,252.87690588333336,253.50395470833337,62.0,90.0
1029,252.87690588333336,253.53674157500004,55.0,81.0
1030,253.36870888333337,254.10026584583338,50.0,84.0
1031,253.86051188333337,254.8236260916667,55.0,91.0
1032,252.87690588333336,254.82772445000003,43.0,89.0
1033,253.86051188333337,254.83797034583336,62.0,94.0
1034,253.86051188333337,254.85231460000003,59.0,91.0
1035,254.35231488333338,254.86256049583338,50.0,83.0
1036,255.82772388333336,256.13100240000006,59.0,87.0
1037,255.58182238333336,256.1822318791667,56.0,87.0
1038,255.09001938333336,256.34411703333336,47.0,84.0
1039,254.84411788333335,256.5469857708334,44.0,96.0
1040,255.33592088333336,256.5469857708334,50.0,87.0
1041,256.31952688333337,256.76419876250003,56.0,82.0
1042,256.07362538333336,256.91788720000005,62.0,92.0
1043,257.0572313833334,257.71501789583334,56.0,71.0
1044,257.3031328833334,257.8605096166667,61.0,96.0
1045,257.5490343833334,257.88100140833336,68.0,93.0
1046,256.81132988333337,258.55927971250003,49.0,102.0
1047,258.0408373833334,258.5982141166667,65.0,77.0
1048,258.0408373833334,258.6535419541667,61.0,78.0
1049,258.2867388833334,258.6576403125,68.0,86.0
1050,257.7949358833334,258.68223046250006,56.0,82.0
1051,258.7785418833334,259.5141972041667,65.0,92.0
1052,258.7785418833334,259.51829556250004,68.0,86.0
1053,258.7785418833334,259.5469840708334,73.0,87.0
1054,258.7785418833334,259.57977093750003,61.0,84.0
1055,259.76214788333334,259.8359183333334,61.0,73.0
1056,259.76214788333334,260.0060002041667,73.0,49.0
1057,258.7785418833334,260.30518036250004,49.0,85.0
1058,259.9937051291667,260.30518036250004,49.0,90.0
1059,258.7785418833334,260.34206558750003,56.0,88.0
1060,260.21706565833335,260.34206558750003,56.0,76.0
1061,259.76214788333334,260.6494424625,65.0,88.0
1062,259.76214788333334,260.67813097083337,68.0,83.0
1063,260.70886865833336,262.4322283375,68.0,84.0
1064,260.4670655166667,262.4957528916667,61.0,80.0
1065,262.8707526791667,263.30927702083335,54.0,81.0
1066,263.0182935791667,263.32976881250005,57.0,86.0
1067,263.1350967916667,263.4117359791667,66.0,83.0
1068,262.6371462541667,263.54903098333335,42.0,72.0
1069,262.79288387083335,263.54903098333335,49.0,72.0
