,start,end,pitch,velocity
0,14.862298033333335,15.076065850000003,64.0,82.0
1,15.079689033333336,15.217370000000003,66.0,78.0
2,15.297080033333335,15.641282450000002,71.0,79.0
3,15.731862033333336,15.858673450000003,69.0,78.0
4,15.949253033333337,16.53983191666667,69.0,77.0
5,16.601426033333336,16.733672225000003,68.0,78.0
6,16.818817033333335,17.032584850000003,68.0,79.0
7,17.036208033333335,17.46736685,71.0,79.0
8,17.470990033333337,17.586931900000003,69.0,73.0
9,17.688381033333336,18.23548171666667,69.0,78.0
10,18.775336033333335,19.139465958333336,68.0,80.0
11,19.210118033333337,19.525334983333337,66.0,79.0
12,19.644900033333336,19.98004449166667,66.0,79.0
13,20.079682033333338,20.24091369166667,65.0,78.0
14,20.297073033333337,21.423883050000004,66.0,74.0
15,22.036201033333338,22.184751550000005,66.0,79.0
16,22.253592033333337,22.61047559166667,73.0,79.0
17,22.688374033333336,22.820620225000003,71.0,73.0
18,22.90576503333334,23.391271600000003,71.0,78.0
19,23.557938033333336,23.672068308333337,66.0,78.0
20,23.775329033333335,23.913010000000003,66.0,76.0
21,23.992720033333338,24.31699494166667,73.0,79.0
22,24.427502033333337,24.55612504166667,71.0,73.0
23,24.644893033333336,25.39851516666667,71.0,78.0
24,25.73184803333334,26.06155771666667,68.0,79.0
25,26.166630033333337,26.476412208333336,66.0,80.0
26,26.601412033333336,26.739093000000004,66.0,79.0
27,26.81880303333334,27.23546911666667,66.0,72.0
28,27.253585033333337,28.614090375000004,64.0,79.0
29,28.77532203333334,28.923872550000006,64.0,79.0
30,28.992713033333338,29.124959225000005,66.0,78.0
31,29.210104033333337,29.543436900000003,71.0,79.0
32,29.64488603333334,29.766262675000004,69.0,74.0
33,29.86227703333334,30.46372546666667,69.0,78.0
34,30.51445003333334,30.65575418333334,69.0,72.0
35,30.73184103333334,30.945608850000006,68.0,80.0
36,30.949232033333338,31.30068081666667,71.0,70.0
37,31.384014033333337,31.494521125000006,69.0,73.0
38,31.60140503333334,32.25357803333334,69.0,79.0
39,32.68836003333334,33.054301550000005,68.0,78.0
40,33.12314203333334,33.43835898333334,66.0,79.0
41,33.557924033333336,33.940169875,66.0,79.0
42,33.99270603333334,34.16118405833334,68.0,66.0
43,34.21009703333334,35.797051333333336,66.0,79.0
44,35.94922503333334,36.092340775000004,66.0,79.0
45,36.16661603333334,36.50719526666667,73.0,79.0
46,36.60139803333334,36.73183263333334,71.0,74.0
47,36.81878903333334,37.41480269166667,71.0,78.0
48,37.470962033333336,37.84233832500001,66.0,70.0
49,37.90574403333334,38.26443918333334,73.0,79.0
50,38.34052603333334,38.469149041666675,71.0,71.0
51,38.55791703333334,39.34414781666667,71.0,78.0
52,39.427481033333336,39.56516200000001,71.0,77.0
53,39.64487203333334,39.99088604166667,71.0,80.0
54,40.07965403333334,40.41298690000001,73.0,76.0
55,40.51443603333334,40.67385610000001,73.0,79.0
56,40.73182703333334,41.114072875000005,74.0,79.0
57,41.16660903333334,41.37313048333334,73.0,78.0
58,41.384000033333336,42.08870919166667,71.0,74.0
59,42.25356403333334,42.46008548333334,69.0,75.0
60,42.47095503333334,42.62312873333334,71.0,78.0
61,42.68834603333334,42.849577691666674,76.0,79.0
62,42.90573703333334,43.05972232500001,74.0,81.0
63,43.12312803333334,43.75899670833334,73.0,79.0
64,43.77530103333334,43.98001089166667,71.0,74.0
65,43.99269203333334,44.64305344166667,73.0,78.0
66,44.64486503333334,44.90573423333334,71.0,75.0
67,44.86225603333334,45.510805850000004,73.0,78.0
68,45.51442903333334,45.72095048333334,71.0,79.0
69,45.73182003333334,45.98181968333334,73.0,74.0
70,45.94921103333334,46.17747158333334,71.0,78.0
71,46.16660203333334,46.398485766666674,69.0,73.0
72,46.38399303333334,46.652108600000005,68.0,80.0
73,46.60138403333334,48.33688885000001,69.0,79.0
74,49.210076033333344,49.63036530000001,66.0,80.0
75,49.64485803333334,49.98906045000001,76.0,80.0
76,50.07964003333334,50.782537600000005,74.0,84.0
77,50.73181303333334,50.994493825000006,73.0,77.0
78,50.94920403333334,51.595942258333345,74.0,87.0
79,51.60137703333334,51.833260766666676,73.0,65.0
80,51.81876803333334,52.525288783333345,74.0,83.0
81,52.68833203333334,52.914780991666674,74.0,85.0
82,52.905723033333345,53.15753427500001,73.0,79.0
83,53.123114033333344,53.32420070833334,71.0,78.0
84,53.34050503333334,53.54159170833334,69.0,73.0
85,53.55789603333334,55.40209635000001,71.0,80.0
86,56.16658803333334,56.373109483333344,69.0,75.0
87,56.38397903333334,56.536152733333346,71.0,78.0
88,56.60137003333334,56.762601691666674,76.0,79.0
89,56.818761033333345,56.97274632500001,74.0,81.0
90,57.036152033333344,57.67202070833334,73.0,79.0
91,57.68832503333334,57.89303489166667,71.0,74.0
92,57.90571603333334,58.55607744166667,73.0,78.0
93,58.55788903333334,58.81875823333334,71.0,75.0
94,58.775280033333345,59.42382985000001,73.0,78.0
95,59.42745303333334,59.63397448333334,71.0,79.0
96,59.64484403333334,59.89484368333334,73.0,74.0
97,59.86223503333334,60.09049558333334,71.0,78.0
98,60.07962603333334,60.311509766666674,69.0,73.0
99,60.29701703333334,60.56513260000001,68.0,80.0
100,60.514408033333346,62.24991285000001,69.0,79.0
101,63.123100033333344,63.54338930000001,66.0,80.0
102,63.55788203333334,63.90208445000001,76.0,80.0
103,63.99266403333334,64.6955616,74.0,84.0
104,64.64483703333335,64.90751782500001,73.0,77.0
105,64.86222803333334,65.50896625833334,74.0,87.0
106,65.51440103333334,65.74628476666668,73.0,65.0
107,65.73179203333335,66.43831278333334,74.0,83.0
108,66.60135603333335,66.7172979,74.0,89.0
109,66.81874703333334,66.92563094166668,74.0,84.0
110,67.03613803333334,67.19555810000001,74.0,80.0
111,67.25352903333335,67.86947020000001,76.0,82.0
112,67.90570203333334,70.71366911666668,71.0,80.0
113,70.51439403333335,70.72816185,64.0,82.0
114,70.73178503333334,70.86946600000002,66.0,78.0
115,70.94917603333334,71.29337845,71.0,79.0
116,71.38395803333334,71.51076945000001,69.0,78.0
117,71.60134903333335,72.19192791666667,69.0,77.0
118,72.25352203333334,72.385768225,68.0,78.0
119,72.47091303333335,72.68468085,68.0,79.0
120,72.68830403333334,73.11946285,71.0,79.0
121,73.12308603333335,73.23902790000001,69.0,73.0
122,73.34047703333334,73.88757771666668,69.0,78.0
123,74.42743203333335,74.79156195833335,68.0,80.0
124,74.86221403333334,75.17743098333335,66.0,79.0
125,75.29699603333334,75.63214049166668,66.0,79.0
126,75.73177803333334,75.89300969166668,65.0,78.0
127,75.94916903333335,77.07597905000002,66.0,74.0
128,77.68829703333334,77.83684755000002,66.0,79.0
129,77.90568803333335,78.26257159166668,73.0,79.0
130,78.34047003333335,78.47271622500001,71.0,73.0
131,78.55786103333334,79.04336760000001,71.0,78.0
132,79.21003403333334,79.32416430833335,66.0,78.0
133,79.42742503333335,79.56510600000001,66.0,76.0
134,79.64481603333334,79.96909094166668,73.0,79.0
135,80.07959803333334,80.20822104166668,71.0,73.0
136,80.29698903333335,81.05061116666668,71.0,78.0
137,81.16655303333334,81.38032085000002,69.0,79.0
138,81.38394403333335,81.71365371666668,68.0,79.0
139,81.81872603333335,82.12850820833334,66.0,80.0
140,82.25350803333335,82.39118900000001,66.0,79.0
141,82.47089903333335,82.88756511666668,66.0,72.0
142,82.90568103333335,84.26618637500002,64.0,79.0
143,84.42741803333335,84.57596855000001,64.0,79.0
144,84.64480903333335,84.77705522500001,66.0,78.0
145,84.86220003333335,85.19553290000002,71.0,79.0
146,85.29698203333335,85.41835867500001,69.0,74.0
147,85.51437303333334,86.11582146666667,69.0,78.0
148,86.16654603333335,86.30785018333334,69.0,72.0
149,86.38393703333335,86.59770485000001,68.0,80.0
150,86.60132803333335,86.95277681666668,71.0,70.0
151,87.03611003333334,87.14661712500002,69.0,73.0
152,87.25350103333335,87.90567403333334,69.0,79.0
153,88.34045603333335,88.70639755000002,68.0,78.0
154,88.77523803333335,89.09045498333334,66.0,79.0
155,89.21002003333335,89.59226587500001,66.0,79.0
156,89.64480203333335,89.81328005833335,68.0,66.0
157,89.86219303333334,91.44914733333334,66.0,79.0
158,91.60132103333335,91.74443677500001,66.0,79.0
159,91.81871203333334,92.15929126666668,73.0,79.0
160,92.25349403333335,92.38392863333335,71.0,74.0
161,92.47088503333335,93.06689869166668,71.0,78.0
162,93.12305803333335,93.49443432500001,66.0,70.0
163,93.55784003333335,93.91653518333335,73.0,79.0
164,93.99262203333335,94.12124504166668,71.0,71.0
165,94.21001303333335,94.99624381666668,71.0,78.0
166,95.07957703333335,95.21725800000002,71.0,77.0
167,95.29696803333334,95.64298204166668,71.0,80.0
168,95.73175003333334,96.06508290000002,73.0,76.0
169,96.16653203333335,96.32595210000001,73.0,79.0
170,96.38392303333335,96.76616887500002,74.0,79.0
171,96.81870503333334,97.02522648333336,73.0,78.0
172,97.03609603333335,97.74080519166668,71.0,74.0
173,97.90566003333335,98.11218148333334,69.0,75.0
174,98.12305103333335,98.27522473333335,71.0,78.0
175,98.34044203333335,98.50167369166668,76.0,79.0
176,98.55783303333335,98.71181832500001,74.0,81.0
177,98.77522403333334,99.41109270833334,73.0,79.0
178,99.42739703333335,99.63210689166668,71.0,74.0
179,99.64478803333336,100.29514944166668,73.0,78.0
180,100.29696103333335,100.55783023333335,71.0,75.0
181,100.51435203333335,101.16290185000001,73.0,78.0
182,101.16652503333334,101.37304648333335,71.0,79.0
183,101.38391603333335,101.63391568333336,73.0,74.0
184,101.60130703333336,101.82956758333334,71.0,78.0
185,101.81869803333335,102.05058176666668,69.0,73.0
186,102.03608903333335,102.30420460000002,68.0,80.0
187,102.25348003333335,103.98898485000002,69.0,79.0
188,104.86217203333335,105.28246130000002,66.0,80.0
189,105.29695403333335,105.64115645000001,76.0,80.0
190,105.73173603333335,106.43463360000001,74.0,84.0
191,106.38390903333335,106.64658982500002,73.0,77.0
192,106.60130003333335,107.24803825833335,74.0,87.0
193,107.25347303333335,107.48535676666668,73.0,65.0
194,107.47086403333336,108.17738478333335,74.0,83.0
195,108.34042803333335,108.56687699166669,74.0,85.0
196,108.55781903333335,108.80963027500002,73.0,79.0
197,108.77521003333335,108.97629670833335,71.0,78.0
198,108.99260103333334,109.19368770833336,69.0,73.0
199,109.20999203333335,111.05419235000002,71.0,80.0
200,111.81868403333335,112.02520548333335,69.0,75.0
201,112.03607503333335,112.18824873333335,71.0,78.0
202,112.25346603333335,112.41469769166669,76.0,79.0
203,112.47085703333335,112.62484232500002,74.0,81.0
204,112.68824803333335,113.32411670833335,73.0,79.0
205,113.34042103333336,113.54513089166669,71.0,74.0
206,113.55781203333335,114.20817344166669,73.0,78.0
207,114.20998503333335,114.47085423333336,71.0,75.0
208,114.42737603333335,115.07592585000002,73.0,78.0
209,115.07954903333335,115.28607048333335,71.0,79.0
210,115.29694003333336,115.54693968333335,73.0,74.0
211,115.51433103333335,115.74259158333335,71.0,78.0
212,115.73172203333336,115.96360576666669,69.0,73.0
213,115.94911303333335,116.21722860000001,68.0,80.0
214,116.16650403333335,117.90200885000002,69.0,79.0
215,118.77519603333336,119.19548530000002,66.0,80.0
216,119.20997803333336,119.55418045000002,76.0,80.0
217,119.64476003333336,120.34765760000002,74.0,84.0
218,120.29693303333335,120.55961382500001,73.0,77.0
219,120.51432403333335,121.16106225833335,74.0,87.0
220,121.16649703333336,121.39838076666669,73.0,65.0
221,121.38388803333335,122.09040878333336,74.0,83.0
222,122.25345203333335,122.36939390000002,74.0,89.0
223,122.47084303333335,122.57772694166668,74.0,84.0
224,122.68823403333336,122.84765410000001,74.0,80.0
225,122.90562503333335,123.52156620000002,76.0,82.0
226,123.55779803333336,125.72808485000002,71.0,80.0
227,140.07951403333337,140.29328185000003,64.0,82.0
228,140.29690503333336,140.43458600000002,66.0,78.0
229,140.51429603333335,140.85849845,71.0,79.0
230,140.94907803333336,141.07588945000003,69.0,78.0
231,141.16646903333336,141.7570479166667,69.0,77.0
232,141.81864203333336,141.95088822500003,68.0,78.0
233,142.03603303333335,142.24980085,68.0,79.0
234,142.25342403333335,142.68458285000003,71.0,79.0
235,142.68820603333336,142.80414790000003,69.0,73.0
236,142.90559703333335,143.45269771666668,69.0,78.0
237,143.99255203333337,144.35668195833335,68.0,80.0
238,144.42733403333335,144.74255098333336,66.0,79.0
239,144.86211603333336,145.1972604916667,66.0,79.0
240,145.29689803333335,145.4581296916667,65.0,78.0
241,145.51428903333337,146.64109905000004,66.0,74.0
242,147.25341703333336,147.40196755000002,66.0,79.0
243,147.47080803333336,147.82769159166668,73.0,79.0
244,147.90559003333337,148.03783622500004,71.0,73.0
245,148.12298103333336,148.60848760000002,71.0,78.0
246,148.77515403333337,148.88928430833334,66.0,78.0
247,148.99254503333336,149.13022600000002,66.0,76.0
248,149.20993603333335,149.5342109416667,73.0,79.0
249,149.64471803333336,149.7733410416667,71.0,73.0
250,149.86210903333335,150.61573116666668,71.0,78.0
251,150.73167303333335,150.94544085,69.0,79.0
252,150.94906403333334,151.27877371666668,68.0,79.0
253,151.38384603333336,151.69362820833337,66.0,80.0
254,151.81862803333337,151.95630900000003,66.0,79.0
255,152.03601903333336,152.4526851166667,66.0,72.0
256,152.47080103333334,153.83130637500003,64.0,79.0
257,153.99253803333335,154.14108855000003,64.0,79.0
258,154.20992903333337,154.34217522500003,66.0,78.0
259,154.42732003333336,154.76065290000003,71.0,79.0
260,154.86210203333334,154.98347867500001,69.0,74.0
261,155.07949303333336,155.6809414666667,69.0,78.0
262,155.73166603333337,155.87297018333336,69.0,72.0
263,155.94905703333336,156.16282485000002,68.0,80.0
264,156.16644803333335,156.51789681666668,71.0,70.0
265,156.60123003333337,156.711737125,69.0,73.0
266,156.81862103333336,157.47079403333336,69.0,79.0
267,157.90557603333335,158.27151755000003,68.0,78.0
268,158.34035803333336,158.65557498333337,66.0,79.0
269,158.77514003333337,159.15738587500002,66.0,79.0
270,159.20992203333336,159.37840005833337,68.0,66.0
271,159.42731303333335,161.01426733333335,66.0,79.0
272,161.16644103333337,161.30955677500003,66.0,79.0
273,161.38383203333336,161.7244112666667,73.0,79.0
274,161.81861403333335,161.94904863333335,71.0,74.0
275,162.03600503333337,162.6320186916667,71.0,78.0
276,162.68817803333337,163.05955432500002,66.0,70.0
277,163.12296003333336,163.48165518333334,73.0,79.0
278,163.55774203333337,163.6863650416667,71.0,71.0
279,163.77513303333336,164.5613638166667,71.0,78.0
280,164.64469703333336,164.78237800000002,71.0,77.0
281,164.86208803333335,165.2081020416667,71.0,80.0
282,165.29687003333336,165.63020290000003,73.0,76.0
283,165.73165203333335,165.89107210000003,73.0,79.0
284,165.94904303333337,166.331288875,74.0,79.0
285,166.38382503333335,166.59034648333335,73.0,78.0
286,166.60121603333337,167.3059251916667,71.0,74.0
287,167.47078003333337,167.67730148333337,69.0,75.0
288,167.68817103333336,167.84034473333335,71.0,78.0
289,167.90556203333335,168.0667936916667,76.0,79.0
290,168.12295303333335,168.27693832500003,74.0,81.0
291,168.34034403333337,168.97621270833335,73.0,79.0
292,168.99251703333337,169.1972268916667,71.0,74.0
293,169.20990803333336,169.8602694416667,73.0,78.0
294,169.86208103333337,170.12295023333337,71.0,75.0
295,170.07947203333336,170.72802185000003,73.0,78.0
296,170.73164503333336,170.93816648333336,71.0,79.0
297,170.94903603333336,171.19903568333336,73.0,74.0
298,171.16642703333335,171.39468758333336,71.0,78.0
299,171.38381803333337,171.6157017666667,69.0,73.0
300,171.60120903333336,171.86932460000003,68.0,80.0
301,171.81860003333335,173.55410485000002,69.0,79.0
302,174.42729203333337,174.84758130000003,66.0,80.0
303,174.86207403333336,175.20627645000002,76.0,80.0
304,175.29685603333337,175.99975360000002,74.0,84.0
305,175.94902903333337,176.211709825,73.0,77.0
306,176.16642003333337,176.81315825833337,74.0,87.0
307,176.81859303333337,177.0504767666667,73.0,65.0
308,177.03598403333336,177.74250478333337,74.0,83.0
309,177.90554803333336,178.13199699166668,74.0,85.0
310,178.12293903333335,178.37475027500003,73.0,79.0
311,178.34033003333337,178.54141670833337,71.0,78.0
312,178.55772103333337,178.75880770833336,69.0,73.0
313,178.77511203333336,180.61931235000003,71.0,80.0
314,181.38380403333335,181.59032548333337,69.0,75.0
315,181.60119503333337,181.75336873333336,71.0,78.0
316,181.81858603333336,181.97981769166668,76.0,79.0
317,182.03597703333335,182.18996232500004,74.0,81.0
318,182.25336803333337,182.88923670833336,73.0,79.0
319,182.90554103333335,183.1102508916667,71.0,74.0
320,183.12293203333337,183.7732934416667,73.0,78.0
321,183.77510503333338,184.03597423333335,71.0,75.0
322,183.99249603333337,184.64104585000004,73.0,78.0
323,184.64466903333337,184.85119048333337,71.0,79.0
324,184.86206003333336,185.11205968333337,73.0,74.0
325,185.07945103333336,185.30771158333337,71.0,78.0
326,185.29684203333335,185.5287257666667,69.0,73.0
327,185.51423303333337,185.78234860000003,68.0,80.0
328,185.73162403333336,187.46712885000002,69.0,79.0
329,188.34031603333335,188.76060530000004,66.0,80.0
330,188.77509803333336,189.11930045000003,76.0,80.0
331,189.20988003333338,189.91277760000003,74.0,84.0
332,189.86205303333335,190.12473382500002,73.0,77.0
333,190.07944403333337,190.72618225833335,74.0,87.0
334,190.73161703333335,190.9635007666667,73.0,65.0
335,190.94900803333337,191.65552878333335,74.0,83.0
336,191.81857203333337,191.93451390000004,74.0,89.0
337,192.03596303333336,192.1428469416667,74.0,84.0
338,192.25335403333335,192.41277410000004,74.0,80.0
339,192.47074503333337,193.08668620000003,76.0,82.0
340,193.12291803333338,195.29320485000002,71.0,80.0
341,195.73161003333337,195.94537785000003,64.0,82.0
342,195.94900103333336,196.08668200000002,66.0,78.0
343,196.16639203333335,196.51059445000004,71.0,79.0
344,196.60117403333336,196.72798545000003,69.0,78.0
345,196.81856503333336,197.4091439166667,69.0,77.0
346,197.47073803333336,197.60298422500003,68.0,78.0
347,197.68812903333335,197.90189685000004,68.0,79.0
348,197.90552003333337,198.33667885000003,71.0,79.0
349,198.34030203333336,198.45624390000003,69.0,73.0
350,198.55769303333335,199.1047937166667,69.0,78.0
351,199.64464803333337,200.00877795833335,68.0,80.0
352,200.07943003333335,200.39464698333336,66.0,79.0
353,200.51421203333337,200.8493564916667,66.0,79.0
354,200.94899403333338,201.1102256916667,65.0,78.0
355,201.16638503333337,202.29319505000004,66.0,74.0
356,202.90551303333336,203.05406355000002,66.0,79.0
357,203.12290403333336,203.4797875916667,73.0,79.0
358,203.55768603333337,203.68993222500004,71.0,73.0
359,203.77507703333336,204.26058360000002,71.0,78.0
360,204.42725003333337,204.54138030833337,66.0,78.0
361,204.64464103333336,204.78232200000002,66.0,76.0
362,204.86203203333338,205.1863069416667,73.0,79.0
363,205.29681403333336,205.4254370416667,71.0,73.0
364,205.51420503333335,206.2678271666667,71.0,78.0
365,206.38376903333338,206.59753685000004,69.0,79.0
366,206.60116003333337,206.9308697166667,68.0,79.0
367,207.03594203333336,207.34572420833337,66.0,80.0
368,207.47072403333337,207.60840500000003,66.0,79.0
369,207.68811503333336,208.1047811166667,66.0,72.0
370,208.12289703333337,209.48340237500003,64.0,79.0
371,209.64463403333338,209.79318455000003,64.0,79.0
372,209.86202503333337,209.99427122500003,66.0,78.0
373,210.07941603333336,210.41274890000003,71.0,79.0
374,210.51419803333337,210.63557467500004,69.0,74.0
375,210.73158903333336,211.3330374666667,69.0,78.0
376,211.38376203333337,211.52506618333337,69.0,72.0
377,211.60115303333336,211.81492085000002,68.0,80.0
378,211.81854403333335,212.1699928166667,71.0,70.0
379,212.25332603333337,212.36383312500004,69.0,73.0
380,212.47071703333336,213.12289003333336,69.0,79.0
381,213.55767203333338,213.92361355000003,68.0,78.0
382,213.99245403333336,214.30767098333337,66.0,79.0
383,214.42723603333337,214.80948187500005,66.0,79.0
384,214.86201803333336,215.03049605833337,68.0,66.0
385,215.07940903333338,216.66636333333338,66.0,79.0
386,216.81853703333337,216.96165277500003,66.0,79.0
387,217.03592803333336,217.3765072666667,73.0,79.0
388,217.47071003333338,217.60114463333338,71.0,74.0
389,217.68810103333337,218.2841146916667,71.0,78.0
390,218.34027403333337,218.71165032500002,66.0,70.0
391,218.77505603333336,219.13375118333337,73.0,79.0
392,219.20983803333337,219.3384610416667,71.0,71.0
393,219.42722903333336,220.2134598166667,71.0,78.0
394,220.29679303333336,220.43447400000002,71.0,77.0
395,220.51418403333338,220.8601980416667,71.0,80.0
396,220.94896603333336,221.28229890000003,73.0,76.0
397,221.38374803333338,221.54316810000003,73.0,79.0
398,221.60113903333337,221.98338487500004,74.0,79.0
399,222.03592103333338,222.24244248333338,73.0,78.0
400,222.25331203333337,222.9580211916667,71.0,74.0
