,start,end,pitch,velocity
0,1.3840560333333336,1.8405771333333336,57.0,67.0
1,1.3840560333333336,1.9003596583333335,64.0,76.0
2,1.8188380333333336,2.306156191666667,52.0,61.0
3,2.2536200333333336,2.6938368083333337,57.0,73.0
4,2.2536200333333336,2.6974599916666673,64.0,77.0
5,1.3840560333333336,2.9239089500000004,45.0,79.0
6,2.688402033333334,2.952894416666667,52.0,66.0
7,2.905793033333334,3.289850466666667,57.0,71.0
8,2.905793033333334,3.4184734750000003,64.0,78.0
9,3.557966033333334,3.6956470000000006,57.0,73.0
10,3.3405750333333337,3.8260816000000006,52.0,65.0
11,3.775357033333334,3.9637625666666674,69.0,59.0
12,3.775357033333334,4.106878308333334,57.0,73.0
13,3.775357033333334,4.201081075,64.0,79.0
14,3.992748033333334,4.335138858333334,52.0,73.0
15,3.1231840333333336,4.3822402416666675,45.0,74.0
16,4.210139033333334,4.485500966666668,57.0,80.0
17,4.427530033333334,4.599631241666668,64.0,78.0
18,4.8623120333333345,5.355064966666667,57.0,70.0
19,4.8623120333333345,5.358688150000001,61.0,72.0
20,5.297094033333334,5.842383125000001,49.0,55.0
21,4.8623120333333345,5.958324991666667,42.0,78.0
22,5.731876033333334,6.052527758333334,57.0,73.0
23,5.731876033333334,6.063397308333334,66.0,73.0
24,5.731876033333334,6.072455266666668,61.0,72.0
25,6.166658033333334,6.355063566666668,49.0,53.0
26,6.384049033333334,6.630425500000001,64.0,79.0
27,6.384049033333334,6.6449182333333345,57.0,73.0
28,6.818831033333335,7.068830683333334,57.0,71.0
29,6.818831033333335,7.096004558333335,61.0,72.0
30,6.6014400333333345,7.235497116666668,42.0,69.0
31,7.036222033333335,7.2481782583333345,49.0,57.0
32,7.253613033333335,7.538032925000001,61.0,67.0
33,7.253613033333335,7.5452792916666676,57.0,72.0
34,7.253613033333335,7.548902475000001,66.0,69.0
35,7.471004033333334,7.874988975000001,42.0,73.0
36,7.688395033333334,7.913032400000001,57.0,79.0
37,7.688395033333334,7.960133783333335,61.0,71.0
38,7.905786033333334,7.998177208333335,49.0,71.0
39,8.340568033333335,9.005422175000001,57.0,71.0
40,8.340568033333335,9.018103316666668,62.0,74.0
41,8.775350033333334,9.273537741666669,54.0,65.0
42,9.210132033333334,9.409407116666667,57.0,75.0
43,9.210132033333334,9.465566458333335,62.0,79.0
44,9.210132033333334,9.713754516666668,66.0,74.0
45,9.644914033333334,9.749986350000002,57.0,72.0
46,8.340568033333335,9.786218183333334,47.0,79.0
47,9.427523033333335,9.831507975000001,54.0,66.0
48,9.862305033333335,10.318826133333335,57.0,79.0
49,9.862305033333335,10.574260558333336,62.0,81.0
50,10.514478033333335,10.603246025000002,57.0,69.0
51,10.297087033333336,10.782593600000002,54.0,63.0
52,10.731869033333336,11.036216433333335,57.0,78.0
53,10.731869033333336,11.317013141666669,62.0,79.0
54,10.949260033333335,11.385853625000001,54.0,73.0
55,10.079696033333335,11.516288225000002,47.0,78.0
56,11.384042033333335,11.677519883333336,57.0,80.0
57,11.601433033333334,11.954693408333336,62.0,71.0
58,11.818824033333335,12.483678175000001,64.0,78.0
59,12.470997033333335,12.536214333333335,59.0,69.0
60,12.253606033333336,12.733677825000003,47.0,65.0
61,12.688388033333336,12.932952908333336,59.0,78.0
62,12.688388033333336,13.18114096666667,64.0,80.0
63,13.123170033333336,13.239111900000003,59.0,78.0
64,12.905779033333335,13.277155325000003,47.0,65.0
65,11.818824033333335,13.342372625000001,40.0,79.0
66,13.340561033333335,13.594183866666668,68.0,65.0
67,13.340561033333335,13.626792516666669,59.0,72.0
68,13.340561033333335,13.659401166666669,64.0,78.0
69,13.775343033333336,14.012661541666668,68.0,79.0
70,13.775343033333336,14.028965866666669,59.0,78.0
71,13.775343033333336,14.074255658333335,64.0,79.0
72,14.210125033333336,14.33331326666667,59.0,78.0
73,13.992734033333335,14.519907208333336,47.0,68.0
74,14.427516033333335,14.652153400000003,59.0,80.0
75,14.427516033333335,14.720993883333335,68.0,70.0
76,14.644907033333336,15.150341108333336,47.0,73.0
77,13.557952033333336,15.15939906666667,40.0,78.0
78,14.862298033333335,15.215558408333335,59.0,79.0
79,15.079689033333336,15.282587300000003,64.0,78.0
80,15.731862033333336,15.865919816666668,57.0,79.0
81,15.949253033333337,16.447440741666668,64.0,78.0
82,15.949253033333337,16.516281225000004,57.0,78.0
83,15.514471033333336,16.84417931666667,52.0,69.0
84,15.297080033333335,16.856860458333337,45.0,80.0
85,16.818817033333335,17.266280175000002,57.0,68.0
86,16.818817033333335,17.29345405,61.0,67.0
87,16.818817033333335,17.487294358333337,64.0,78.0
88,17.470990033333337,17.59417826666667,57.0,72.0
89,17.688381033333336,17.923887950000005,69.0,74.0
90,17.688381033333336,17.95287341666667,57.0,78.0
91,17.253599033333337,18.36591631666667,52.0,66.0
92,17.036208033333335,18.41482929166667,45.0,77.0
93,18.123163033333338,18.44200316666667,61.0,69.0
94,18.123163033333338,18.595988458333338,64.0,78.0
95,18.340554033333337,18.650336208333336,57.0,73.0
96,19.210118033333337,19.42026266666667,57.0,74.0
97,19.427509033333337,19.677508683333336,66.0,80.0
98,18.775336033333335,20.336928050000004,42.0,77.0
99,18.992727033333335,20.438377183333337,49.0,68.0
100,20.297073033333337,21.00178219166667,61.0,80.0
101,20.94924603333334,21.0651879,57.0,69.0
102,20.731855033333336,21.29526004166667,49.0,62.0
103,21.166637033333338,21.454680108333335,57.0,76.0
104,21.166637033333338,21.465549658333337,61.0,74.0
105,20.514464033333336,21.65938996666667,42.0,79.0
106,21.384028033333337,21.67025951666667,49.0,67.0
107,21.601419033333336,21.791636158333336,57.0,78.0
108,21.601419033333336,21.818810033333335,61.0,79.0
109,21.601419033333336,21.874969375000003,66.0,74.0
110,22.253592033333337,22.499968500000005,59.0,70.0
111,22.253592033333337,22.684750850000004,62.0,76.0
112,22.688374033333336,22.79525794166667,59.0,75.0
113,22.90576503333334,23.71373491666667,66.0,72.0
114,22.253592033333337,23.853227475000004,47.0,79.0
115,22.470983033333336,23.889459308333336,54.0,70.0
116,23.775329033333335,24.478226600000003,62.0,79.0
117,24.427502033333337,24.612284383333336,57.0,72.0
118,24.644893033333336,25.172066208333337,62.0,81.0
119,24.210111033333337,25.17750098333334,54.0,67.0
120,25.297066033333337,25.402138350000005,54.0,68.0
121,23.992720033333338,25.427500633333338,47.0,77.0
122,25.079675033333338,25.566993191666672,66.0,78.0
123,25.514457033333336,25.847789900000006,59.0,70.0
124,25.73184803333334,26.079673633333336,64.0,76.0
125,26.384021033333337,26.751774141666672,52.0,77.0
126,26.166630033333337,27.298874825000006,47.0,64.0
127,25.73184803333334,27.315179150000006,40.0,79.0
128,27.253585033333337,27.64307724166667,52.0,78.0
129,26.81880303333334,27.760830700000003,59.0,75.0
130,27.90575803333334,28.25720681666667,52.0,78.0
131,28.123149033333338,28.586916500000005,59.0,78.0
132,27.68836703333334,28.673872900000003,47.0,66.0
133,27.470976033333336,28.849597291666672,40.0,80.0
134,28.77532203333334,29.05793033333334,52.0,81.0
135,28.992713033333338,29.233654725000005,59.0,74.0
136,28.557931033333336,29.29524884166667,64.0,81.0
137,29.64488603333334,29.86227703333334,57.0,73.0
138,29.86227703333334,30.43655159166667,64.0,79.0
139,29.427495033333336,30.733652625000005,52.0,70.0
140,29.210104033333337,30.757203316666672,45.0,80.0
141,30.73184103333334,31.315173550000004,61.0,80.0
142,31.384014033333337,31.541622508333337,59.0,73.0
143,31.60140503333334,31.90031765833334,57.0,70.0
144,31.60140503333334,31.938361083333337,64.0,79.0
145,31.166623033333337,32.150317308333335,52.0,69.0
146,32.03618703333334,32.25357803333334,57.0,73.0
147,32.03618703333334,32.391259000000005,61.0,80.0
148,30.949232033333338,32.54524429166667,45.0,78.0
149,32.25357803333334,32.548867475,52.0,74.0
150,32.47096903333334,32.771693250000006,57.0,76.0
151,33.12314203333334,33.38219964166667,57.0,78.0
152,33.34053303333334,33.499953100000006,61.0,80.0
153,32.68836003333334,34.168430425000004,42.0,79.0
154,32.90575103333334,34.217343400000004,49.0,66.0
155,34.21009703333334,34.94016847500001,66.0,78.0
156,34.86227003333334,34.978211900000005,57.0,74.0
157,34.64487903333334,35.19379130833334,49.0,64.0
158,35.07966103333334,35.35683455833334,57.0,79.0
159,35.07966103333334,35.35683455833334,61.0,79.0
160,35.29705203333334,35.534370541666675,49.0,67.0
161,34.42748803333334,35.53799372500001,42.0,68.0
162,35.514443033333336,35.583283516666675,57.0,71.0
163,35.514443033333336,35.80248610833334,61.0,80.0
164,35.73183403333334,35.88038455,57.0,68.0
165,35.514443033333336,35.94197866666667,66.0,78.0
166,36.16661603333334,36.434731600000006,57.0,71.0
167,36.16661603333334,36.664803741666674,62.0,78.0
168,36.60139803333334,36.762629691666675,57.0,73.0
169,36.81878903333334,37.728208050000006,66.0,78.0
170,36.16661603333334,37.766251475000004,47.0,78.0
171,36.38400703333334,37.77168625000001,54.0,66.0
172,37.68835303333334,38.38943900833334,62.0,77.0
173,38.34052603333334,38.46733745000001,57.0,70.0
174,38.55791703333334,38.882191941666676,57.0,75.0
175,38.55791703333334,38.89487308333334,62.0,79.0
176,38.12313503333334,39.05791633333334,54.0,67.0
177,37.90574403333334,39.15211910000001,47.0,79.0
178,38.99269903333334,39.304292800000006,62.0,79.0
179,39.21009003333334,39.39668397500001,57.0,75.0
180,38.99269903333334,39.44197376666667,66.0,74.0
181,39.64487203333334,39.89487168333334,59.0,71.0
182,39.64487203333334,39.951031025000006,64.0,77.0
183,40.07965403333334,40.262624791666674,59.0,80.0
184,40.29704503333334,40.360450741666675,59.0,55.0
185,40.29704503333334,40.61769675833334,64.0,83.0
186,40.73182703333334,41.03798602500001,68.0,82.0
187,39.86226303333334,41.211898825000006,47.0,70.0
188,39.64487203333334,41.257188616666674,40.0,79.0
189,40.94921803333334,41.559724425000006,59.0,74.0
190,41.16660903333334,41.72639085833334,64.0,78.0
191,41.81878203333334,41.96008618333334,59.0,79.0
192,41.60139103333334,42.09052078333334,47.0,69.0
193,42.03617303333334,42.35320157500001,64.0,84.0
194,42.03617303333334,42.36407112500001,59.0,79.0
195,42.25356403333334,42.54523029166668,47.0,74.0
196,41.384000033333336,42.55609984166667,40.0,81.0
197,42.47095503333334,42.56878098333334,59.0,73.0
198,42.47095503333334,42.73544741666667,64.0,81.0
199,42.47095503333334,42.755374925000005,68.0,80.0
200,42.68834603333334,42.81334585833334,59.0,75.0
201,43.12312803333334,43.521678200000004,64.0,87.0
202,43.55791003333334,44.00356158333334,57.0,80.0
203,43.77530103333334,44.614067975000005,61.0,75.0
204,43.34051903333334,44.75537212500001,52.0,75.0
205,43.12312803333334,44.760806900000006,45.0,87.0
206,44.64486503333334,45.211893225000004,64.0,86.0
207,45.297038033333344,45.826022800000004,57.0,77.0
208,45.07964703333334,46.11406587500001,52.0,78.0
209,44.86225603333334,46.141239750000004,45.0,86.0
210,45.51442903333334,46.18290635833334,61.0,83.0
211,46.16660203333334,46.44196396666668,57.0,80.0
212,46.38399303333334,46.762615691666674,61.0,80.0
213,47.03616603333334,47.360440941666674,57.0,85.0
214,47.253557033333344,47.90754162500001,66.0,78.0
215,46.60138403333334,48.121309441666675,42.0,89.0
216,47.90573003333334,48.18109196666668,61.0,74.0
217,46.81877503333334,48.18833833333334,49.0,70.0
218,48.12312103333334,48.90029385833334,66.0,73.0
219,48.34051203333334,49.30971357500001,42.0,83.0
220,48.77529403333334,49.32601790000001,57.0,82.0
221,48.55790303333334,49.35862655000001,49.0,70.0
222,48.99268503333334,49.39485838333334,61.0,79.0
223,50.07964003333334,50.556088641666676,62.0,79.0
224,50.51442203333334,50.80971147500001,59.0,80.0
225,50.73181303333334,51.186522541666676,66.0,80.0
226,50.29703103333334,51.56514520000001,54.0,74.0
227,50.07964003333334,51.605000216666674,47.0,84.0
228,51.38398603333334,51.61224658333334,62.0,79.0
229,51.60137703333334,52.27891231666668,66.0,79.0
230,52.25355003333334,52.56152061666668,59.0,79.0
231,52.03615903333334,52.706447950000005,54.0,74.0
232,51.81876803333334,52.74811455833334,47.0,87.0
233,52.47094103333334,52.95282441666667,62.0,80.0
234,53.55789603333334,54.28072110833334,64.0,84.0
235,53.99267803333334,54.32601090000001,52.0,80.0
236,53.77528703333334,55.047024383333344,47.0,79.0
237,53.55789603333334,55.05245915833334,40.0,87.0
238,54.21006903333334,55.108618500000006,59.0,82.0
239,55.079633033333344,55.47093683333334,52.0,87.0
240,54.862242033333345,55.95282021666667,64.0,79.0
241,55.73180603333334,56.04702298333334,52.0,79.0
242,55.94919703333334,56.44194996666668,59.0,81.0
243,56.60137003333334,56.87492037500001,52.0,86.0
244,55.51441503333334,57.02709407500001,47.0,81.0
245,55.297024033333344,57.03071725833334,40.0,88.0
246,56.818761033333345,57.03796362500001,59.0,80.0
247,56.38397903333334,57.04702158333334,64.0,87.0
248,57.036152033333344,57.04702158333334,64.0,87.0
249,57.47093403333334,57.916585583333344,57.0,80.0
250,57.68832503333334,58.52709197500001,61.0,75.0
251,57.253543033333344,58.66839612500001,52.0,75.0
252,57.036152033333344,58.673830900000006,45.0,87.0
253,58.55788903333334,59.12491722500001,64.0,86.0
254,59.210062033333344,59.73904680000001,57.0,77.0
255,58.992671033333345,60.02708987500001,52.0,78.0
256,58.775280033333345,60.05426375000001,45.0,86.0
257,59.42745303333334,60.09593035833334,61.0,83.0
258,60.07962603333334,60.35498796666668,57.0,80.0
259,60.29701703333334,60.675639691666674,61.0,80.0
260,60.949190033333345,61.273464941666674,57.0,85.0
261,61.166581033333344,61.82056562500001,66.0,78.0
262,60.514408033333346,62.034333441666675,42.0,89.0
263,61.81875403333334,62.09411596666668,61.0,74.0
264,60.731799033333346,62.10136233333334,49.0,70.0
265,62.03614503333334,62.81331785833334,66.0,73.0
266,62.25353603333334,63.22273757500001,42.0,83.0
267,62.688318033333346,63.23904190000001,57.0,82.0
268,62.470927033333346,63.27165055000001,49.0,70.0
269,62.905709033333345,63.30788238333334,61.0,79.0
270,63.99266403333334,64.46911264166668,62.0,79.0
271,64.42744603333334,64.72273547500001,59.0,80.0
272,64.64483703333335,65.09954654166668,66.0,80.0
273,64.21005503333335,65.47816920000001,54.0,74.0
274,63.99266403333334,65.51802421666667,47.0,84.0
275,65.29701003333335,65.52527058333334,62.0,79.0
276,65.51440103333334,66.19193631666667,66.0,79.0
277,66.16657403333335,66.47454461666668,59.0,79.0
278,65.94918303333334,66.61947195,54.0,74.0
279,65.73179203333335,66.66113855833335,47.0,87.0
280,66.38396503333334,66.86584841666668,62.0,80.0
281,67.47092003333334,68.19374510833335,64.0,84.0
282,67.90570203333334,68.23903490000001,52.0,80.0
283,67.68831103333335,68.96004838333334,47.0,79.0
284,67.47092003333334,68.96548315833334,40.0,87.0
285,68.12309303333335,69.02164250000001,59.0,82.0
286,68.99265703333334,69.38396083333335,52.0,87.0
287,68.77526603333334,69.86584421666667,64.0,79.0
288,69.64483003333335,69.96004698333334,52.0,79.0
289,69.86222103333334,70.35497396666668,59.0,81.0
290,70.51439403333335,70.78794437500001,52.0,86.0
291,69.42743903333334,70.94011807500002,47.0,81.0
292,69.21004803333335,70.94374125833335,40.0,88.0
293,70.73178503333334,70.95098762500001,59.0,80.0
294,70.29700303333334,70.96004558333334,64.0,87.0
295,71.38395803333334,71.51801581666668,57.0,79.0
296,71.60134903333335,72.09953674166668,64.0,78.0
297,71.60134903333335,72.16837722500001,57.0,78.0
298,71.16656703333335,72.49627531666668,52.0,69.0
299,70.94917603333334,72.50895645833334,45.0,80.0
300,72.47091303333335,72.918376175,57.0,68.0
301,72.47091303333335,72.94555005000001,61.0,67.0
302,72.47091303333335,73.13939035833334,64.0,78.0
303,73.12308603333335,73.24627426666667,57.0,72.0
304,73.34047703333334,73.57598395000001,69.0,74.0
305,73.34047703333334,73.60496941666668,57.0,78.0
306,72.90569503333334,74.01801231666668,52.0,66.0
307,72.68830403333334,74.06692529166668,45.0,77.0
308,73.77525903333334,74.09409916666668,61.0,69.0
309,73.77525903333334,74.24808445833334,64.0,78.0
310,73.99265003333335,74.30243220833334,57.0,73.0
311,74.86221403333334,75.07235866666667,57.0,74.0
312,75.07960503333335,75.32960468333334,66.0,80.0
313,74.42743203333335,75.98902405000001,42.0,77.0
314,74.64482303333334,76.09047318333334,49.0,68.0
315,75.94916903333335,76.65387819166668,61.0,80.0
316,76.60134203333334,76.71728390000001,57.0,69.0
317,76.38395103333335,76.94735604166668,49.0,62.0
318,76.81873303333334,77.10677610833335,57.0,76.0
319,76.81873303333334,77.11764565833334,61.0,74.0
320,76.16656003333334,77.31148596666668,42.0,79.0
321,77.03612403333335,77.32235551666668,49.0,67.0
322,77.25351503333334,77.44373215833335,57.0,78.0
323,77.25351503333334,77.47090603333335,61.0,79.0
324,77.25351503333334,77.527065375,66.0,74.0
325,77.90568803333335,78.15206450000001,59.0,70.0
326,77.90568803333335,78.33684685000001,62.0,76.0
327,78.34047003333335,78.44735394166668,59.0,75.0
328,78.55786103333334,79.36583091666668,66.0,72.0
329,77.90568803333335,79.50532347500001,47.0,79.0
330,78.12307903333334,79.54155530833334,54.0,70.0
331,79.42742503333335,80.13032260000001,62.0,79.0
332,80.07959803333334,80.26438038333335,57.0,72.0
333,80.29698903333335,80.82416220833335,62.0,81.0
334,79.86220703333335,80.82959698333335,54.0,67.0
335,80.94916203333335,81.05423435000002,54.0,68.0
336,79.64481603333334,81.07959663333335,47.0,77.0
337,80.73177103333335,81.21908919166668,66.0,78.0
338,81.16655303333334,81.49988590000001,59.0,70.0
339,81.38394403333335,81.73176963333334,64.0,76.0
340,82.03611703333334,82.40387014166667,52.0,77.0
341,81.81872603333335,82.95097082500001,47.0,64.0
342,81.38394403333335,82.96727515,40.0,79.0
343,82.90568103333335,83.29517324166667,52.0,78.0
344,82.47089903333335,83.41292670000001,59.0,75.0
345,83.55785403333334,83.90930281666668,52.0,78.0
346,83.77524503333335,84.23901250000002,59.0,78.0
347,83.34046303333335,84.3259689,47.0,66.0
348,83.12307203333334,84.50169329166668,40.0,80.0
349,84.42741803333335,84.71002633333335,52.0,81.0
350,84.64480903333335,84.88575072500001,59.0,74.0
351,84.21002703333335,84.94734484166668,64.0,81.0
352,85.29698203333335,85.51437303333334,57.0,73.0
353,85.51437303333334,86.08864759166669,64.0,79.0
354,85.07959103333334,86.38574862500002,52.0,70.0
355,84.86220003333335,86.40929931666668,45.0,80.0
356,86.38393703333335,86.96726955000001,61.0,80.0
357,87.03611003333334,87.19371850833335,59.0,73.0
358,87.25350103333335,87.55241365833335,57.0,70.0
359,87.25350103333335,87.59045708333335,64.0,79.0
360,86.81871903333335,87.80241330833334,52.0,69.0
361,87.68828303333335,87.90567403333334,57.0,73.0
362,87.68828303333335,88.04335500000002,61.0,80.0
363,86.60132803333335,88.19734029166668,45.0,78.0
364,87.90567403333334,88.20096347500001,52.0,74.0
365,88.12306503333335,88.42378925000001,57.0,76.0
366,88.77523803333335,89.03429564166667,57.0,78.0
367,88.99262903333334,89.15204910000001,61.0,80.0
368,88.34045603333335,89.82052642500001,42.0,79.0
369,88.55784703333335,89.86943940000002,49.0,66.0
370,89.86219303333334,90.59226447500001,66.0,78.0
371,90.51436603333335,90.63030790000002,57.0,74.0
372,90.29697503333335,90.84588730833335,49.0,64.0
373,90.73175703333335,91.00893055833335,57.0,79.0
374,90.73175703333335,91.00893055833335,61.0,79.0
375,90.94914803333334,91.18646654166668,49.0,67.0
376,90.07958403333335,91.19008972500002,42.0,68.0
377,91.16653903333335,91.23537951666668,57.0,71.0
378,91.16653903333335,91.45458210833334,61.0,80.0
379,91.38393003333334,91.53248055000002,57.0,68.0
380,91.16653903333335,91.59407466666669,66.0,78.0
381,91.81871203333334,92.08682760000002,57.0,71.0
382,91.81871203333334,92.31689974166667,62.0,78.0
383,92.25349403333335,92.41472569166667,57.0,73.0
384,92.47088503333335,93.38030405000002,66.0,78.0
385,91.81871203333334,93.41834747500002,47.0,78.0
386,92.03610303333335,93.42378225000002,54.0,66.0
387,93.34044903333334,94.04153500833335,62.0,77.0
388,93.99262203333335,94.11943345000002,57.0,70.0
389,94.21001303333335,94.53428794166668,57.0,75.0
390,94.21001303333335,94.54696908333335,62.0,79.0
391,93.77523103333334,94.71001233333335,54.0,67.0
392,93.55784003333335,94.80421510000002,47.0,79.0
393,94.64479503333335,94.95638880000001,62.0,79.0
394,94.86218603333334,95.04877997500002,57.0,75.0
395,94.64479503333335,95.09406976666668,66.0,74.0
396,95.29696803333334,95.54696768333335,59.0,71.0
397,95.29696803333334,95.60312702500002,64.0,77.0
398,95.73175003333334,95.91472079166668,59.0,80.0
399,95.94914103333335,96.01254674166668,59.0,55.0
400,95.94914103333335,96.26979275833335,64.0,83.0
401,96.38392303333335,96.69008202500001,68.0,82.0
402,95.51435903333335,96.86399482500002,47.0,70.0
403,95.29696803333334,96.90928461666668,40.0,79.0
404,96.60131403333335,97.21182042500001,59.0,74.0
405,96.81870503333334,97.37848685833335,64.0,78.0
406,97.47087803333335,97.61218218333335,59.0,79.0
407,97.25348703333334,97.74261678333335,47.0,69.0
408,97.68826903333336,98.00529757500001,64.0,84.0
409,97.68826903333336,98.01616712500001,59.0,79.0
410,97.90566003333335,98.19732629166668,47.0,74.0
411,97.03609603333335,98.20819584166668,40.0,81.0
412,98.12305103333335,98.22087698333335,59.0,73.0
413,98.12305103333335,98.38754341666669,64.0,81.0
414,98.12305103333335,98.40747092500001,68.0,80.0
415,98.34044203333335,98.46544185833335,59.0,75.0
416,98.77522403333334,99.17377420000001,64.0,87.0
417,99.21000603333334,99.65565758333335,57.0,80.0
418,99.42739703333335,100.26616397500001,61.0,75.0
419,98.99261503333335,100.40746812500002,52.0,75.0
420,98.77522403333334,100.41290290000002,45.0,87.0
421,100.29696103333335,100.86398922500001,64.0,86.0
422,100.94913403333335,101.47811880000002,57.0,77.0
423,100.73174303333334,101.76616187500001,52.0,78.0
424,100.51435203333335,101.79333575000001,45.0,86.0
425,101.16652503333334,101.83500235833336,61.0,83.0
426,101.81869803333335,102.09405996666668,57.0,80.0
427,102.03608903333335,102.41471169166668,61.0,80.0
428,102.68826203333334,103.01253694166668,57.0,85.0
429,102.90565303333335,103.55963762500002,66.0,78.0
430,102.25348003333335,103.77340544166668,42.0,89.0
431,103.55782603333336,103.83318796666669,61.0,74.0
432,102.47087103333335,103.84043433333335,49.0,70.0
433,103.77521703333335,104.55238985833336,66.0,73.0
434,103.99260803333335,104.96180957500002,42.0,83.0
435,104.42739003333335,104.97811390000001,57.0,82.0
436,104.20999903333335,105.01072255000001,49.0,70.0
437,104.64478103333335,105.04695438333334,61.0,79.0
438,105.73173603333335,106.20818464166668,62.0,79.0
439,106.16651803333335,106.46180747500001,59.0,80.0
440,106.38390903333335,106.83861854166668,66.0,80.0
441,105.94912703333335,107.21724120000002,54.0,74.0
442,105.73173603333335,107.25709621666668,47.0,84.0
443,107.03608203333334,107.26434258333335,62.0,79.0
444,107.25347303333335,107.93100831666668,66.0,79.0
445,107.90564603333335,108.21361661666668,59.0,79.0
446,107.68825503333335,108.35854395000001,54.0,74.0
447,107.47086403333336,108.40021055833336,47.0,87.0
448,108.12303703333335,108.60492041666669,62.0,80.0
449,109.20999203333335,109.93281710833335,64.0,84.0
450,109.64477403333335,109.97810690000001,52.0,80.0
451,109.42738303333336,110.69912038333335,47.0,79.0
452,109.20999203333335,110.70455515833335,40.0,87.0
453,109.86216503333335,110.76071450000002,59.0,82.0
454,110.73172903333335,111.12303283333335,52.0,87.0
455,110.51433803333335,111.60491621666668,64.0,79.0
456,111.38390203333336,111.69911898333335,52.0,79.0
457,111.60129303333335,112.09404596666668,59.0,81.0
458,112.25346603333335,112.52701637500002,52.0,86.0
459,111.16651103333335,112.67919007500002,47.0,81.0
460,110.94912003333334,112.68281325833335,40.0,88.0
461,112.47085703333335,112.69005962500002,59.0,80.0
462,112.03607503333335,112.69911758333335,64.0,87.0
463,112.68824803333335,112.69911758333335,64.0,87.0
464,113.12303003333335,113.56868158333334,57.0,80.0
465,113.34042103333336,114.17918797500002,61.0,75.0
466,112.90563903333334,114.32049212500002,52.0,75.0
467,112.68824803333335,114.32592690000001,45.0,87.0
468,114.20998503333335,114.77701322500002,64.0,86.0
469,114.86215803333336,115.39114280000001,57.0,77.0
470,114.64476703333335,115.67918587500002,52.0,78.0
471,114.42737603333335,115.70635975000002,45.0,86.0
472,115.07954903333335,115.74802635833335,61.0,83.0
473,115.73172203333336,116.00708396666668,57.0,80.0
474,115.94911303333335,116.32773569166669,61.0,80.0
475,116.60128603333335,116.92556094166669,57.0,85.0
476,116.81867703333336,117.47266162500001,66.0,78.0
477,116.16650403333335,117.68642944166669,42.0,89.0
478,117.47085003333335,117.74621196666668,61.0,74.0
479,116.38389503333335,117.75345833333336,49.0,70.0
480,117.68824103333336,118.46541385833335,66.0,73.0
481,117.90563203333335,118.87483357500003,42.0,83.0
482,118.34041403333335,118.89113790000002,57.0,82.0
483,118.12302303333335,118.92374655000002,49.0,70.0
484,118.55780503333335,118.95997838333335,61.0,79.0
485,119.64476003333336,120.12120864166668,62.0,79.0
486,120.07954203333335,120.37483147500002,59.0,80.0
487,120.29693303333335,120.75164254166668,66.0,80.0
488,119.86215103333335,121.13026520000003,54.0,74.0
489,119.64476003333336,121.17012021666669,47.0,84.0
490,120.94910603333335,121.17736658333335,62.0,79.0
491,121.16649703333336,121.84403231666668,66.0,79.0
492,121.81867003333335,122.12664061666669,59.0,79.0
493,121.60127903333336,122.27156795000002,54.0,74.0
494,121.38388803333335,122.31323455833335,47.0,87.0
495,122.03606103333335,122.51794441666668,62.0,80.0
496,123.12301603333336,123.84584110833335,64.0,84.0
497,123.55779803333336,123.89113090000002,52.0,80.0
498,123.34040703333335,124.61214438333336,47.0,79.0
499,123.12301603333336,124.61757915833336,40.0,87.0
500,123.77518903333335,124.67373850000001,59.0,82.0
501,124.64475303333336,125.03605683333335,52.0,87.0
502,124.42736203333335,125.51794021666669,64.0,79.0
503,125.29692603333335,125.61214298333336,52.0,79.0
504,125.51431703333336,126.00706996666669,59.0,81.0
505,126.16649003333335,126.44004037500002,52.0,86.0
506,125.07953503333336,126.59221407500002,47.0,81.0
507,124.86214403333335,126.59583725833335,40.0,88.0
508,126.38388103333335,126.60308362500002,59.0,80.0
509,125.94909903333335,126.61214158333335,64.0,87.0
510,126.60127203333336,126.81141666666669,57.0,71.0
511,126.60127203333336,126.99076424166668,61.0,69.0
512,127.03605403333336,127.15743067500001,57.0,71.0
513,127.25344503333335,127.58858949166668,64.0,78.0
514,127.68822703333335,127.99982080000002,69.0,80.0
515,126.81866303333335,128.1483713166667,52.0,67.0
516,126.60127203333336,128.16105245833336,45.0,78.0
517,128.12300903333335,128.67916767500003,64.0,78.0
518,128.77518203333335,128.8820659416667,57.0,74.0
519,128.55779103333336,129.07952943333336,52.0,70.0
520,128.99257303333334,129.266123375,57.0,78.0
521,128.99257303333334,129.3005436166667,61.0,79.0
522,128.99257303333334,129.49438392500002,64.0,80.0
523,129.20996403333336,129.6266301166667,52.0,71.0
524,128.34040003333337,129.67735468333336,45.0,78.0
525,129.42735503333336,129.70452855833335,57.0,74.0
526,129.64474603333335,129.8820645416667,61.0,87.0
527,129.86213703333334,130.15199170000002,57.0,78.0
528,130.51431003333335,130.80959947500003,57.0,81.0
529,130.73170103333337,131.10307732500002,62.0,79.0
530,131.16648303333335,131.3983667666667,64.0,82.0
531,130.29691903333335,131.60307662500003,45.0,72.0
532,130.07952803333336,131.62481572500002,38.0,83.0
533,131.38387403333334,131.69184461666669,62.0,73.0
534,131.60126503333336,131.96901814166668,57.0,78.0
535,132.25343803333337,132.34582920833336,57.0,79.0
536,132.03604703333335,132.61756795833335,45.0,72.0
537,132.47082903333336,132.70452435833334,57.0,82.0
538,132.47082903333336,132.7244518666667,66.0,78.0
539,132.90561103333334,133.05416155000003,57.0,78.0
540,132.68822003333335,133.0831470166667,45.0,57.0
541,132.90561103333334,133.3693785,62.0,80.0
542,133.12300203333336,133.47807400000002,45.0,78.0
543,131.81865603333335,133.494378325,38.0,89.0
544,133.34039303333336,133.505247875,57.0,83.0
545,133.55778403333335,133.76792866666668,57.0,71.0
546,133.55778403333335,133.94727624166669,61.0,69.0
547,133.99256603333336,134.11394267500003,57.0,71.0
548,134.20995703333335,134.54510149166668,64.0,78.0
549,134.64473903333337,134.9563328,69.0,80.0
550,133.77517503333334,135.1048833166667,52.0,67.0
551,133.55778403333335,135.11756445833336,45.0,78.0
552,135.07952103333335,135.63567967500003,64.0,78.0
553,135.73169403333335,135.8385779416667,57.0,74.0
554,135.51430303333336,136.03604143333337,52.0,70.0
555,135.94908503333335,136.222635375,57.0,78.0
556,135.94908503333335,136.2570556166667,61.0,79.0
557,135.94908503333335,136.45089592500003,64.0,80.0
558,136.16647603333337,136.5831421166667,52.0,71.0
559,135.29691203333334,136.63386668333337,45.0,78.0
560,136.38386703333336,136.66104055833335,57.0,74.0
561,136.60125803333335,136.8385765416667,61.0,87.0
562,136.81864903333334,137.10850370000003,57.0,78.0
563,137.47082203333335,137.76611147500003,57.0,81.0
564,137.68821303333334,138.05958932500002,62.0,79.0
565,138.12299503333335,138.3548787666667,64.0,82.0
566,137.25343103333336,138.55958862500003,45.0,72.0
567,137.03604003333336,138.58132772500002,38.0,83.0
568,138.34038603333335,138.6483566166667,62.0,73.0
569,138.55777703333337,138.92553014166668,57.0,78.0
570,139.20995003333334,139.30234120833336,57.0,79.0
571,138.99255903333335,139.57407995833336,45.0,72.0
572,139.42734103333336,139.66103635833335,57.0,82.0
573,139.42734103333336,139.6809638666667,66.0,78.0
574,139.86212303333335,140.01067355000004,57.0,78.0
575,139.64473203333336,140.0396590166667,45.0,57.0
576,139.86212303333335,140.3258905,62.0,80.0
577,140.07951403333337,140.43458600000002,45.0,78.0
578,138.77516803333336,140.45089032500002,38.0,89.0
579,140.29690503333336,140.461759875,57.0,83.0
580,140.94907803333336,141.0831358166667,57.0,79.0
581,141.16646903333336,141.66465674166668,64.0,78.0
582,141.16646903333336,141.73349722500004,57.0,78.0
583,140.73168703333334,142.06139531666668,52.0,69.0
584,140.51429603333335,142.07407645833337,45.0,80.0
585,142.03603303333335,142.48349617500003,57.0,68.0
586,142.03603303333335,142.51067005000002,61.0,67.0
587,142.03603303333335,142.70451035833335,64.0,78.0
588,142.68820603333336,142.8113942666667,57.0,72.0
589,142.90559703333335,143.14110395000003,69.0,74.0
590,142.90559703333335,143.17008941666668,57.0,78.0
591,142.47081503333337,143.58313231666668,52.0,66.0
592,142.25342403333335,143.63204529166669,45.0,77.0
593,143.34037903333336,143.6592191666667,61.0,69.0
594,143.34037903333336,143.81320445833336,64.0,78.0
595,143.55777003333336,143.86755220833336,57.0,73.0
596,144.42733403333335,144.63747866666668,57.0,74.0
597,144.64472503333334,144.89472468333335,66.0,80.0
598,143.99255203333337,145.55414405000002,42.0,77.0
599,144.20994303333336,145.65559318333337,49.0,68.0
600,145.51428903333337,146.21899819166669,61.0,80.0
601,146.16646203333335,146.28240390000002,57.0,69.0
602,145.94907103333335,146.5124760416667,49.0,62.0
603,146.38385303333337,146.67189610833336,57.0,76.0
604,146.38385303333337,146.68276565833335,61.0,74.0
605,145.73168003333336,146.8766059666667,42.0,79.0
606,146.60124403333336,146.88747551666668,49.0,67.0
607,146.81863503333335,147.00885215833335,57.0,78.0
608,146.81863503333335,147.03602603333334,61.0,79.0
609,146.81863503333335,147.092185375,66.0,74.0
610,147.47080803333336,147.71718450000003,59.0,70.0
611,147.47080803333336,147.90196685000004,62.0,76.0
612,147.90559003333337,148.01247394166668,59.0,75.0
613,148.12298103333336,148.9309509166667,66.0,72.0
614,147.47080803333336,149.07044347500002,47.0,79.0
615,147.68819903333335,149.10667530833337,54.0,70.0
616,148.99254503333336,149.69544260000004,62.0,79.0
617,149.64471803333336,149.82950038333337,57.0,72.0
618,149.86210903333335,150.38928220833336,62.0,81.0
619,149.42732703333337,150.39471698333335,54.0,67.0
620,150.51428203333336,150.61935435000004,54.0,68.0
621,149.20993603333335,150.64471663333336,47.0,77.0
622,150.29689103333337,150.7842091916667,66.0,78.0
623,150.73167303333335,151.06500590000002,59.0,70.0
624,150.94906403333334,151.29688963333336,64.0,76.0
625,151.60123703333335,151.9689901416667,52.0,77.0
626,151.38384603333336,152.51609082500002,47.0,64.0
627,150.94906403333334,152.53239515,40.0,79.0
628,152.47080103333334,152.86029324166668,52.0,78.0
629,152.03601903333336,152.97804670000002,59.0,75.0
630,153.12297403333335,153.4744228166667,52.0,78.0
631,153.34036503333337,153.80413250000004,59.0,78.0
632,152.90558303333336,153.89108890000003,47.0,66.0
633,152.68819203333337,154.0668132916667,40.0,80.0
634,153.99253803333335,154.27514633333337,52.0,81.0
635,154.20992903333337,154.45087072500002,59.0,74.0
636,153.77514703333335,154.51246484166668,64.0,81.0
637,154.86210203333334,155.07949303333336,57.0,73.0
638,155.07949303333336,155.65376759166668,64.0,79.0
639,154.64471103333335,155.95086862500003,52.0,70.0
640,154.42732003333336,155.97441931666668,45.0,80.0
641,155.94905703333336,156.53238955000003,61.0,80.0
642,156.60123003333337,156.75883850833335,59.0,73.0
643,156.81862103333336,157.11753365833337,57.0,70.0
644,156.81862103333336,157.15557708333336,64.0,79.0
645,156.38383903333335,157.36753330833335,52.0,69.0
646,157.25340303333337,157.47079403333336,57.0,73.0
647,157.25340303333337,157.60847500000003,61.0,80.0
648,156.16644803333335,157.76246029166668,45.0,78.0
649,157.47079403333336,157.76608347500002,52.0,74.0
650,157.68818503333335,157.98890925000003,57.0,76.0
651,158.34035803333336,158.5994156416667,57.0,78.0
652,158.55774903333335,158.71716910000004,61.0,80.0
653,157.90557603333335,159.38564642500003,42.0,79.0
654,158.12296703333337,159.4345594,49.0,66.0
655,159.42731303333335,160.15738447500001,66.0,78.0
656,160.07948603333335,160.19542790000003,57.0,74.0
657,159.86209503333336,160.41100730833335,49.0,64.0
658,160.29687703333335,160.57405055833337,57.0,79.0
659,160.29687703333335,160.57405055833337,61.0,79.0
660,160.51426803333337,160.75158654166668,49.0,67.0
661,159.64470403333337,160.75520972500001,42.0,68.0
662,160.73165903333336,160.8004995166667,57.0,71.0
663,160.73165903333336,161.01970210833335,61.0,80.0
664,160.94905003333335,161.09760055000004,57.0,68.0
665,160.73165903333336,161.15919466666668,66.0,78.0
666,161.38383203333336,161.65194760000003,57.0,71.0
667,161.38383203333336,161.88201974166668,62.0,78.0
668,161.81861403333335,161.9798456916667,57.0,73.0
669,162.03600503333337,162.94542405,66.0,78.0
670,161.38383203333336,162.98346747500003,47.0,78.0
671,161.60122303333335,162.98890225000002,54.0,66.0
672,162.90556903333336,163.60665500833335,62.0,77.0
673,163.55774203333337,163.68455345000004,57.0,70.0
674,163.77513303333336,164.0994079416667,57.0,75.0
675,163.77513303333336,164.11208908333336,62.0,79.0
676,163.34035103333335,164.27513233333335,54.0,67.0
677,163.12296003333336,164.36933510000003,47.0,79.0
678,164.20991503333335,164.52150880000002,62.0,79.0
679,164.42730603333337,164.61389997500004,57.0,75.0
680,164.20991503333335,164.65918976666669,66.0,74.0
681,164.86208803333335,165.11208768333336,59.0,71.0
682,164.86208803333335,165.16824702500003,64.0,77.0
683,165.29687003333336,165.4798407916667,59.0,80.0
684,165.51426103333336,165.5776667416667,59.0,55.0
685,165.51426103333336,165.83491275833336,64.0,83.0
686,165.94904303333337,166.25520202500002,68.0,82.0
687,165.07947903333337,166.42911482500003,47.0,70.0
688,164.86208803333335,166.4744046166667,40.0,79.0
689,166.16643403333336,166.77694042500002,59.0,74.0
690,166.38382503333335,166.94360685833337,64.0,78.0
691,167.03599803333336,167.17730218333335,59.0,79.0
692,166.81860703333336,167.30773678333335,47.0,69.0
693,167.25338903333335,167.57041757500002,64.0,84.0
694,167.25338903333335,167.58128712500002,59.0,79.0
695,167.47078003333337,167.7624462916667,47.0,74.0
696,166.60121603333337,167.7733158416667,40.0,81.0
697,167.68817103333336,167.78599698333335,59.0,73.0
698,167.68817103333336,167.9526634166667,64.0,81.0
699,167.68817103333336,167.97259092500002,68.0,80.0
700,167.90556203333335,168.03056185833336,59.0,75.0
701,168.34034403333337,168.73889420000003,64.0,87.0
702,168.77512603333335,169.22077758333336,57.0,80.0
703,168.99251703333337,169.83128397500002,61.0,75.0
704,168.55773503333336,169.97258812500002,52.0,75.0
705,168.34034403333337,169.9780229,45.0,87.0
706,169.86208103333337,170.42910922500002,64.0,86.0
707,170.51425403333337,171.04323880000004,57.0,77.0
708,170.29686303333335,171.33128187500003,52.0,78.0
709,170.07947203333336,171.35845575000002,45.0,86.0
710,170.73164503333336,171.40012235833336,61.0,83.0
711,171.38381803333337,171.6591799666667,57.0,80.0
712,171.60120903333336,171.9798316916667,61.0,80.0
713,172.25338203333337,172.5776569416667,57.0,85.0
714,172.47077303333336,173.12475762500003,66.0,78.0
715,171.81860003333335,173.3385254416667,42.0,89.0
716,173.12294603333336,173.3983079666667,61.0,74.0
717,172.03599103333335,173.40555433333336,49.0,70.0
718,173.34033703333336,174.11750985833336,66.0,73.0
719,173.55772803333335,174.52692957500003,42.0,83.0
720,173.99251003333336,174.54323390000002,57.0,82.0
721,173.77511903333337,174.57584255000003,49.0,70.0
722,174.20990103333335,174.61207438333335,61.0,79.0
723,175.29685603333337,175.7733046416667,62.0,79.0
724,175.73163803333335,176.02692747500004,59.0,80.0
725,175.94902903333337,176.40373854166668,66.0,80.0
726,175.51424703333336,176.78236120000003,54.0,74.0
727,175.29685603333337,176.8222162166667,47.0,84.0
728,176.60120203333335,176.82946258333337,62.0,79.0
729,176.81859303333337,177.4961283166667,66.0,79.0
730,177.47076603333335,177.7787366166667,59.0,79.0
731,177.25337503333336,177.92366395000002,54.0,74.0
732,177.03598403333336,177.96533055833336,47.0,87.0
733,177.68815703333337,178.1700404166667,62.0,80.0
734,178.77511203333336,179.49793710833336,64.0,84.0
735,179.20989403333337,179.54322690000004,52.0,80.0
736,178.99250303333335,180.26424038333337,47.0,79.0
737,178.77511203333336,180.26967515833337,40.0,87.0
738,179.42728503333336,180.32583450000004,59.0,82.0
739,180.29684903333336,180.68815283333336,52.0,87.0
740,180.07945803333337,181.1700362166667,64.0,79.0
741,180.94902203333336,181.26423898333337,52.0,79.0
742,181.16641303333336,181.6591659666667,59.0,81.0
743,181.81858603333336,182.09213637500002,52.0,86.0
744,181.60119503333337,182.16097685833336,64.0,87.0
745,180.73163103333337,182.24431007500002,47.0,81.0
746,180.51424003333335,182.24793325833338,40.0,88.0
747,182.03597703333335,182.25517962500004,59.0,80.0
748,182.25336803333337,182.65191820000004,64.0,87.0
749,182.68815003333336,183.13380158333337,57.0,80.0
750,182.90554103333335,183.74430797500003,61.0,75.0
751,182.47075903333337,183.88561212500002,52.0,75.0
752,182.25336803333337,183.89104690000002,45.0,87.0
753,183.77510503333338,184.34213322500003,64.0,86.0
754,184.42727803333335,184.95626280000002,57.0,77.0
755,184.20988703333336,185.24430587500004,52.0,78.0
756,183.99249603333337,185.27147975000003,45.0,86.0
757,184.64466903333337,185.31314635833337,61.0,83.0
758,185.29684203333335,185.5722039666667,57.0,80.0
759,185.51423303333337,185.89285569166668,61.0,80.0
760,186.16640603333337,186.49068094166668,57.0,85.0
761,186.38379703333337,187.03778162500004,66.0,78.0
762,185.73162403333336,187.2515494416667,42.0,89.0
763,187.03597003333337,187.3113319666667,61.0,74.0
764,185.94901503333335,187.31857833333336,49.0,70.0
765,187.25336103333336,188.03053385833337,66.0,73.0
766,187.47075203333335,188.43995357500003,42.0,83.0
767,187.90553403333337,188.45625790000003,57.0,82.0
768,187.68814303333338,188.48886655000004,49.0,70.0
769,188.12292503333336,188.52509838333336,61.0,79.0
770,189.20988003333338,189.6863286416667,62.0,79.0
771,189.64466203333336,189.93995147500004,59.0,80.0
772,189.86205303333335,190.3167625416667,66.0,80.0
773,189.42727103333337,190.69538520000003,54.0,74.0
774,189.20988003333338,190.7352402166667,47.0,84.0
775,190.51422603333336,190.74248658333337,62.0,79.0
776,190.73161703333335,191.4091523166667,66.0,79.0
777,191.38379003333336,191.6917606166667,59.0,79.0
778,191.16639903333336,191.83668795000003,54.0,74.0
779,190.94900803333337,191.87835455833337,47.0,87.0
780,191.60118103333338,192.0830644166667,62.0,80.0
781,192.68813603333336,193.41096110833337,64.0,84.0
782,193.12291803333338,193.45625090000004,52.0,80.0
783,192.90552703333336,194.17726438333335,47.0,79.0
784,192.68813603333336,194.18269915833335,40.0,87.0
785,193.34030903333337,194.23885850000002,59.0,82.0
786,194.20987303333337,194.60117683333337,52.0,87.0
787,193.99248203333337,195.0830602166667,64.0,79.0
788,194.86204603333337,195.17726298333335,52.0,79.0
789,195.07943703333336,195.57218996666668,59.0,81.0
790,195.73161003333337,196.00516037500003,52.0,86.0
791,194.64465503333335,196.15733407500002,47.0,81.0
792,194.42726403333336,196.16095725833335,40.0,88.0
793,195.94900103333336,196.16820362500002,59.0,80.0
794,195.51421903333338,196.17726158333338,64.0,87.0
795,196.16639203333335,196.17726158333338,64.0,87.0
796,196.60117403333336,197.04682558333337,57.0,80.0
797,196.81856503333336,197.65733197500003,61.0,75.0
798,196.38378303333337,197.79863612500003,52.0,75.0
799,196.16639203333335,197.80407090000003,45.0,87.0
800,197.68812903333335,198.25515722500003,64.0,86.0
801,198.34030203333336,198.86928680000003,57.0,77.0
802,198.12291103333337,199.15732987500004,52.0,78.0
803,197.90552003333337,199.18450375000003,45.0,86.0
804,198.55769303333335,199.22617035833338,61.0,83.0
805,199.20986603333336,199.48522796666668,57.0,80.0
806,199.42725703333338,199.8058796916667,61.0,80.0
807,200.07943003333335,200.4037049416667,57.0,85.0
808,200.29682103333337,200.95080562500004,66.0,78.0
809,199.64464803333337,201.1645734416667,42.0,89.0
810,200.94899403333338,201.2243559666667,61.0,74.0
811,199.86203903333336,201.23160233333337,49.0,70.0
812,201.16638503333337,201.94355785833338,66.0,73.0
813,201.38377603333336,202.35297757500004,42.0,83.0
814,201.81855803333337,202.36928190000003,57.0,82.0
815,201.60116703333335,202.40189055000002,49.0,70.0
816,202.03594903333337,202.43812238333336,61.0,79.0
817,203.12290403333336,203.5993526416667,62.0,79.0
818,203.55768603333337,203.85297547500002,59.0,80.0
819,203.77507703333336,204.2297865416667,66.0,80.0
820,203.34029503333338,204.60840920000004,54.0,74.0
821,203.12290403333336,204.6482642166667,47.0,84.0
822,204.42725003333337,204.65551058333335,62.0,79.0
823,204.64464103333336,205.32217631666668,66.0,79.0
824,205.29681403333336,205.6047846166667,59.0,79.0
825,205.07942303333337,205.74971195000003,54.0,74.0
826,204.86203203333338,205.79137855833338,47.0,87.0
827,205.51420503333335,205.9960884166667,62.0,80.0
828,206.60116003333337,207.32398510833337,64.0,84.0
829,207.03594203333336,207.36927490000002,52.0,80.0
830,206.81855103333336,208.09028838333336,47.0,79.0
831,206.60116003333337,208.09572315833336,40.0,87.0
832,207.25333303333338,208.15188250000003,59.0,82.0
833,208.12289703333337,208.51420083333338,52.0,87.0
834,207.90550603333335,208.9960842166667,64.0,79.0
835,208.77507003333338,209.09028698333336,52.0,79.0
836,208.99246103333337,209.4852139666667,59.0,81.0
837,209.64463403333338,209.91818437500004,52.0,86.0
838,208.55767903333336,210.07035807500003,47.0,81.0
839,208.34028803333337,210.07398125833336,40.0,88.0
840,209.86202503333337,210.08122762500003,59.0,80.0
841,209.42724303333335,210.09028558333335,64.0,87.0
842,210.07941603333336,210.09028558333335,64.0,87.0
843,210.51419803333337,210.95984958333338,57.0,80.0
844,210.73158903333336,211.57035597500004,61.0,75.0
845,210.29680703333338,211.71166012500004,52.0,75.0
846,210.07941603333336,211.71709490000003,45.0,87.0
847,211.60115303333336,212.16818122500004,64.0,86.0
848,212.25332603333337,212.78231080000003,57.0,77.0
849,212.03593503333337,213.07035387500002,52.0,78.0
850,211.81854403333335,213.09752775000004,45.0,86.0
851,212.47071703333336,213.13919435833336,61.0,83.0
852,213.12289003333336,213.3982519666667,57.0,80.0
853,213.34028103333335,213.7189036916667,61.0,80.0
854,213.99245403333336,214.3167289416667,57.0,85.0
855,214.20984503333338,214.86382962500002,66.0,78.0
856,213.55767203333338,215.0775974416667,42.0,89.0
857,214.86201803333336,215.1373799666667,61.0,74.0
858,213.77506303333337,215.14462633333338,49.0,70.0
859,215.07940903333338,215.85658185833336,66.0,73.0
860,215.29680003333337,216.26600157500005,42.0,83.0
861,215.73158203333335,216.28230590000004,57.0,82.0
862,215.51419103333336,216.31491455000003,49.0,70.0
863,215.94897303333337,216.35114638333337,61.0,79.0
864,217.03592803333336,217.5123766416667,62.0,79.0
865,217.47071003333338,217.76599947500003,59.0,80.0
866,217.68810103333337,218.1428105416667,66.0,80.0
867,217.25331903333336,218.52143320000005,54.0,74.0
868,217.03592803333336,218.5612882166667,47.0,84.0
869,218.34027403333337,218.56853458333336,62.0,79.0
870,218.55766503333336,219.2352003166667,66.0,79.0
871,219.20983803333337,219.5178086166667,59.0,79.0
872,218.99244703333338,219.66273595000004,54.0,74.0
873,218.77505603333336,219.70440255833336,47.0,87.0
874,219.42722903333336,219.9091124166667,62.0,80.0
875,220.51418403333338,221.23700910833338,64.0,84.0
876,220.94896603333336,221.28229890000003,52.0,80.0
877,220.73157503333337,222.00331238333337,47.0,79.0
878,220.51418403333338,222.00874715833336,40.0,87.0
879,221.16635703333336,222.06490650000003,59.0,82.0
880,222.03592103333338,222.42722483333336,52.0,87.0
881,221.81853003333336,222.9091082166667,64.0,79.0
882,222.68809403333336,223.00331098333336,52.0,79.0
883,222.90548503333338,223.3982379666667,59.0,81.0
884,223.55765803333338,223.83120837500005,52.0,86.0
885,222.47070303333336,223.98338207500004,47.0,81.0
886,222.25331203333337,223.98700525833337,40.0,88.0
887,223.77504903333337,223.99425162500003,59.0,80.0
888,223.34026703333336,224.00330958333336,64.0,87.0
889,223.99244003333337,224.00330958333336,64.0,87.0
890,224.42722203333338,224.87287358333336,57.0,80.0
891,224.64461303333337,225.48337997500005,61.0,75.0
892,224.20983103333336,225.62468412500004,52.0,75.0
893,223.99244003333337,225.63011890000004,45.0,87.0
894,225.51417703333337,226.08120522500005,64.0,82.0
895,226.16635003333337,226.69533480000004,57.0,80.0
896,225.94895903333338,226.98337787500003,52.0,80.0
897,225.73156803333336,227.01055175000005,45.0,82.0
898,226.38374103333337,227.05221835833336,61.0,80.0
899,227.03591403333337,227.3112759666667,57.0,74.0
900,227.25330503333336,227.6319276916667,61.0,74.0
901,227.90547803333337,228.2297529416667,57.0,71.0
902,228.12286903333336,228.77685362500003,66.0,69.0
903,227.47069603333338,228.9906214416667,42.0,74.0
904,228.77504203333336,229.0504039666667,61.0,66.0
905,227.68808703333337,229.05765033333336,49.0,71.0
906,228.99243303333336,229.76960585833336,66.0,66.0
907,229.20982403333338,230.17902557500003,42.0,63.0
908,229.64460603333336,230.19532990000005,57.0,63.0
909,229.42721503333337,230.22793855000003,49.0,63.0
910,229.86199703333338,230.26417038333338,61.0,60.0
911,230.94895203333337,231.4254006416667,62.0,55.0
912,231.38373403333338,231.67902347500004,59.0,52.0
913,231.60112503333337,232.0558345416667,66.0,52.0
914,231.16634303333336,232.43445720000003,54.0,55.0
915,230.94895203333337,232.4743122166667,47.0,55.0
916,232.25329803333338,232.48155858333337,62.0,49.0
917,232.47068903333337,233.1482243166667,66.0,46.0
918,233.12286203333338,233.4308326166667,59.0,44.0
919,232.90547103333336,233.57575995000005,54.0,46.0
920,232.68808003333336,233.61742655833336,47.0,46.0
921,233.34025303333337,233.8221364166667,62.0,44.0
922,234.42720803333336,235.15003310833336,64.0,38.0
923,234.86199003333337,235.19532290000004,52.0,35.0
924,234.64459903333338,235.91633638333337,47.0,35.0
925,234.42720803333336,235.92177115833337,40.0,38.0
926,235.07938103333336,235.97793050000004,59.0,35.0
927,235.94894503333336,236.34024883333336,52.0,30.0
928,235.73155403333337,236.82213221666672,64.0,30.0
929,236.60111803333336,236.91633498333337,52.0,27.0
930,236.81850903333336,237.3112619666667,59.0,24.0
931,237.47068203333336,237.74423237500002,52.0,22.0
932,236.38372703333337,237.89640607500004,47.0,27.0
933,236.16633603333338,237.90002925833338,40.0,30.0
934,237.68807303333338,237.90727562500004,59.0,22.0
935,237.25329103333337,237.91633358333337,64.0,24.0
936,237.87466697500003,238.7949555416667,57.0,19.0
937,238.13372458333336,238.81488305000005,69.0,19.0
938,237.95075382500005,238.82575260000004,61.0,19.0
939,238.04857977500004,238.84749170000003,64.0,19.0
940,237.81307285833336,238.88372353333338,45.0,22.0
