,start,end,pitch,velocity
0,23.774607866666667,24.237635256249998,69.0,114.0
1,24.197142366666668,24.619676866666666,67.0,100.0
2,24.619676866666666,25.042211366666667,65.0,107.0
3,25.042211366666667,25.887280366666666,72.0,108.0
4,25.887280366666666,26.309814866666667,77.0,108.0
5,26.309814866666667,26.732349366666668,76.0,107.0
6,26.732349366666668,26.96122222083333,72.0,98.0
7,26.943616616666667,28.845021866666666,69.0,98.0
8,28.845021866666666,29.267556366666668,74.0,110.0
9,29.267556366666668,29.690090866666665,72.0,104.0
10,29.690090866666665,30.112625366666666,67.0,108.0
11,30.112625366666666,31.802763366666667,65.0,96.0
12,31.802763366666667,32.64783236666667,74.0,100.0
13,32.64783236666667,33.07036686666667,72.0,96.0
14,33.07036686666667,33.492901366666665,69.0,98.0
15,33.492901366666665,37.295711866666664,67.0,93.0
16,37.295711866666664,37.71824636666667,69.0,108.0
17,37.71824636666667,38.14078086666667,67.0,93.0
18,38.14078086666667,38.563315366666664,65.0,88.0
19,38.563315366666664,39.40838436666667,72.0,94.0
20,39.40838436666667,39.830918866666664,77.0,104.0
21,39.830918866666664,40.04218611666666,76.0,102.0
22,40.04218611666666,40.46296005625,77.0,104.0
23,40.46472061666667,42.366125866666664,77.0,110.0
24,42.366125866666664,42.84323773958333,69.0,110.0
25,42.78866036666667,43.211194866666666,70.0,106.0
26,43.211194866666666,43.633729366666664,72.0,108.0
27,43.633729366666664,45.32210680625,74.0,113.0
28,45.32386736666667,46.168936366666664,74.0,88.0
29,46.168936366666664,46.59147086666667,72.0,91.0
30,46.59147086666667,47.014005366666666,67.0,90.0
31,47.014005366666666,50.39428136666667,65.0,91.0
32,50.39428136666667,50.60554861666667,74.0,82.0
33,50.60554861666667,50.816815866666666,76.0,87.0
34,50.816815866666666,51.249913729166664,77.0,98.0
35,51.23935036666666,51.66188486666667,76.0,90.0
36,51.66188486666667,52.084419366666665,77.0,104.0
37,52.084419366666665,52.92948836666667,79.0,113.0
38,52.92948836666667,53.352022866666665,77.0,108.0
39,53.352022866666665,53.77279680625,81.0,114.0
40,53.77455736666666,57.154833366666665,81.0,117.0
41,57.154833366666665,57.366100616666664,74.0,107.0
42,57.366100616666664,57.57736786666667,76.0,107.0
43,57.57736786666667,57.99990236666667,77.0,113.0
44,57.99990236666667,58.422436866666665,76.0,113.0
45,58.422436866666665,58.84497136666667,77.0,110.0
46,58.84497136666667,59.690040366666665,79.0,116.0
47,59.690040366666665,60.11257486666667,77.0,113.0
48,60.11257486666667,60.53334880625,81.0,116.0
49,60.53510936666667,62.225247366666665,81.0,119.0
50,62.225247366666665,62.64778186666667,77.0,117.0
51,62.64778186666667,63.07031636666667,86.0,117.0
52,63.07031636666667,63.492850866666664,84.0,117.0
53,63.492850866666664,63.91538536666667,79.0,114.0
54,63.91538536666667,64.54918711666667,77.0,114.0
55,64.54918711666667,64.76045436666666,74.0,113.0
56,64.76045436666666,64.97172161666667,77.0,108.0
57,64.97172161666667,65.18298886666666,74.0,114.0
58,65.18298886666666,65.60376280625,77.0,113.0
59,65.60552336666666,65.81679061666667,77.0,113.0
60,65.81679061666667,66.45059236666667,79.0,117.0
61,66.45059236666667,66.66185961666666,77.0,110.0
62,66.66185961666666,67.29566136666666,79.0,114.0
63,67.29566136666666,67.71819586666666,77.0,116.0
64,67.71819586666666,68.14073036666666,81.0,120.0
65,68.14073036666666,68.56326486666667,82.0,123.0
66,68.56326486666667,68.98579936666667,84.0,116.0
67,68.98579936666667,69.83086836666666,77.0,116.0
68,69.83086836666666,70.25340286666666,76.0,113.0
69,70.25340286666666,70.46467011666667,77.0,98.0
70,70.46467011666667,70.67593736666666,76.0,88.0
71,70.67593736666666,72.36431480625,74.0,104.0
72,72.36607536666666,72.78684930625,74.0,114.0
73,72.78860986666666,73.21114436666667,74.0,116.0
74,73.21114436666667,74.05445280625,76.0,114.0
75,74.05621336666667,76.59142036666667,76.0,120.0
76,76.59142036666667,77.01395486666667,81.0,117.0
77,77.01395486666667,77.43648936666666,79.0,116.0
78,77.43648936666666,79.12486680625,77.0,119.0
79,79.12662736666667,79.33789461666666,77.0,117.0
80,79.33789461666666,79.97169636666666,79.0,114.0
81,79.97169636666666,80.18296361666667,77.0,116.0
82,80.18296361666667,80.60549811666667,79.0,116.0
83,80.60549811666667,81.02803261666666,77.0,113.0
84,81.02803261666666,83.35021180625,81.0,117.0
85,83.35197236666667,83.77450686666667,81.0,116.0
86,83.77450686666667,84.19704136666667,79.0,114.0
87,84.19704136666667,85.67591211666667,77.0,116.0
88,85.67591211666667,85.88717936666667,74.0,113.0
89,85.88717936666667,86.09844661666666,77.0,113.0
90,86.09844661666666,86.30971386666667,74.0,110.0
91,86.30971386666667,86.73224836666667,79.0,119.0
92,86.73224836666667,86.94351561666667,77.0,114.0
93,86.94351561666667,87.36605011666667,79.0,119.0
94,87.36605011666667,87.78858461666667,82.0,119.0
95,87.78858461666667,90.11076380625,81.0,117.0
96,90.11252436666666,90.53505886666666,81.0,117.0
97,90.53505886666666,90.95759336666667,79.0,116.0
98,90.95759336666667,91.59139511666666,77.0,117.0
99,91.59139511666666,91.80266236666667,74.0,107.0
100,91.80266236666667,92.01392961666667,77.0,110.0
101,92.01392961666667,92.22519686666666,74.0,108.0
102,92.22519686666666,92.64597080625,77.0,113.0
103,92.64773136666666,92.85899861666667,77.0,113.0
104,92.85899861666667,93.49280036666667,79.0,119.0
105,93.49280036666667,93.70406761666666,77.0,108.0
106,93.70406761666666,94.12660211666666,79.0,107.0
107,94.12660211666666,94.76040386666666,77.0,110.0
108,94.76040386666666,95.18293836666666,81.0,119.0
109,95.18293836666666,95.60547286666666,79.0,114.0
110,95.60547286666666,96.02800736666667,77.0,117.0
111,96.02800736666667,96.87307636666667,86.0,123.0
112,96.87307636666667,97.71814536666666,79.0,119.0
113,97.71814536666666,98.56321436666667,77.0,119.0
114,98.56321436666667,98.98574886666667,74.0,117.0
115,98.98574886666667,99.40828336666667,77.0,117.0
116,99.40828336666667,100.25335236666666,79.0,119.0
117,100.25335236666666,100.67588686666667,81.0,110.0
118,100.67588686666667,101.09842136666667,79.0,116.0
119,101.09842136666667,101.55968819583333,77.0,117.0
120,115.02293904791665,115.48596643749998,69.0,114.0
121,115.44547354791665,115.86800804791666,67.0,100.0
122,115.86800804791666,116.29054254791666,65.0,107.0
123,116.29054254791666,117.13561154791665,72.0,108.0
124,117.13561154791665,117.55814604791665,77.0,108.0
125,117.55814604791665,117.98068054791665,76.0,107.0
126,117.98068054791665,118.20955340208332,72.0,98.0
127,118.19194779791665,120.09335304791665,69.0,98.0
128,120.09335304791665,120.51588754791665,74.0,110.0
129,120.51588754791665,120.93842204791666,72.0,104.0
130,120.93842204791666,121.36095654791666,67.0,108.0
131,121.36095654791666,123.05109454791665,65.0,96.0
132,123.05109454791665,123.89616354791666,74.0,100.0
133,123.89616354791666,124.31869804791666,72.0,96.0
134,124.31869804791666,124.74123254791665,69.0,98.0
135,124.74123254791665,128.54404304791666,67.0,93.0
136,128.54404304791666,128.96657754791664,69.0,108.0
137,128.96657754791664,129.38911204791665,67.0,93.0
138,129.38911204791665,129.81164654791667,65.0,88.0
139,129.81164654791667,130.65671554791666,72.0,94.0
140,130.65671554791666,131.07925004791664,77.0,104.0
141,131.07925004791664,131.29051729791667,76.0,102.0
142,131.29051729791667,131.71129123749998,77.0,104.0
143,131.71305179791665,133.61445704791666,77.0,110.0
144,133.61445704791666,134.0915689208333,69.0,110.0
145,134.03699154791664,134.45952604791665,70.0,106.0
146,134.45952604791665,134.88206054791664,72.0,108.0
147,134.88206054791664,136.5704379875,74.0,113.0
148,136.57219854791666,137.41726754791665,74.0,88.0
149,137.41726754791665,137.83980204791666,72.0,91.0
150,137.83980204791666,138.26233654791665,67.0,90.0
151,138.26233654791665,141.64261254791666,65.0,91.0
152,141.64261254791666,141.85387979791665,74.0,82.0
153,141.85387979791665,142.06514704791664,76.0,87.0
154,142.06514704791664,142.49824491041664,77.0,98.0
155,142.48768154791665,142.91021604791666,76.0,90.0
156,142.91021604791666,143.33275054791665,77.0,104.0
157,143.33275054791665,144.17781954791664,79.0,113.0
158,144.17781954791664,144.60035404791665,77.0,108.0
159,144.60035404791665,145.0211279875,81.0,114.0
160,145.02288854791666,148.40316454791665,81.0,117.0
161,148.40316454791665,148.61443179791667,74.0,107.0
162,148.61443179791667,148.82569904791666,76.0,107.0
163,148.82569904791666,149.24823354791664,77.0,113.0
164,149.24823354791664,149.67076804791665,76.0,113.0
165,149.67076804791665,150.09330254791666,77.0,110.0
166,150.09330254791666,150.93837154791666,79.0,116.0
167,150.93837154791666,151.36090604791664,77.0,113.0
168,151.36090604791664,151.78167998749998,81.0,116.0
169,151.78344054791665,153.47357854791665,81.0,119.0
170,153.47357854791665,153.89611304791666,77.0,117.0
171,153.89611304791666,154.31864754791667,86.0,117.0
172,154.31864754791667,154.74118204791665,84.0,117.0
173,154.74118204791665,155.16371654791664,79.0,114.0
174,155.16371654791664,155.79751829791667,77.0,114.0
175,155.79751829791667,156.00878554791666,74.0,113.0
176,156.00878554791666,156.22005279791665,77.0,108.0
177,156.22005279791665,156.43132004791664,74.0,114.0
178,156.43132004791664,156.85209398749998,77.0,113.0
179,156.85385454791665,157.06512179791665,77.0,113.0
180,157.06512179791665,157.69892354791665,79.0,117.0
181,157.69892354791665,157.91019079791664,77.0,110.0
182,157.91019079791664,158.54399254791664,79.0,114.0
183,158.54399254791664,158.96652704791666,77.0,116.0
184,158.96652704791666,159.38906154791664,81.0,120.0
185,159.38906154791664,159.81159604791665,82.0,123.0
186,159.81159604791665,160.23413054791666,84.0,116.0
187,160.23413054791666,161.07919954791666,77.0,116.0
188,161.07919954791666,161.50173404791667,76.0,113.0
189,161.50173404791667,161.71300129791666,77.0,98.0
190,161.71300129791666,161.92426854791665,76.0,88.0
191,161.92426854791665,163.6126459875,74.0,104.0
192,163.61440654791664,164.03518048749999,74.0,114.0
193,164.03694104791666,164.45947554791667,74.0,116.0
194,164.45947554791667,165.3027839875,76.0,114.0
195,165.30454454791666,166.57214804791664,76.0,120.0
196,167.83975154791665,168.26228604791666,81.0,117.0
197,168.26228604791666,168.68482054791664,79.0,116.0
198,168.68482054791664,170.3731979875,77.0,119.0
199,170.37495854791666,170.58622579791665,77.0,117.0
200,170.58622579791665,171.22002754791666,79.0,114.0
201,171.22002754791666,171.43129479791665,77.0,116.0
202,171.43129479791665,171.85382929791666,79.0,116.0
203,171.85382929791666,172.27636379791664,77.0,113.0
204,172.27636379791664,174.5985429875,81.0,117.0
205,174.60030354791667,175.02283804791665,81.0,116.0
206,175.02283804791665,175.44537254791666,79.0,114.0
207,175.44537254791666,176.92424329791666,77.0,116.0
208,176.92424329791666,177.13551054791665,74.0,113.0
209,177.13551054791665,177.34677779791664,77.0,113.0
210,177.34677779791664,177.55804504791666,74.0,110.0
211,177.55804504791666,177.98057954791665,79.0,119.0
212,177.98057954791665,178.19184679791664,77.0,114.0
213,178.19184679791664,178.61438129791665,79.0,119.0
214,178.61438129791665,179.03691579791666,82.0,119.0
215,179.03691579791666,181.3590949875,81.0,117.0
216,181.36085554791666,181.78339004791667,81.0,117.0
217,181.78339004791667,182.20592454791665,79.0,116.0
218,182.20592454791665,182.83972629791666,77.0,117.0
219,182.83972629791666,183.05099354791665,74.0,107.0
220,183.05099354791665,183.26226079791667,77.0,110.0
221,183.26226079791667,183.47352804791666,74.0,108.0
222,183.47352804791666,183.8943019875,77.0,113.0
223,183.89606254791664,184.10732979791663,77.0,113.0
224,184.10732979791663,184.74113154791667,79.0,119.0
225,184.74113154791667,184.95239879791666,77.0,108.0
226,184.95239879791666,185.37493329791664,79.0,107.0
227,185.37493329791664,186.00873504791667,77.0,110.0
228,186.00873504791667,186.43126954791666,81.0,119.0
229,186.43126954791666,186.85380404791664,79.0,114.0
230,186.85380404791664,187.27633854791665,77.0,117.0
231,187.27633854791665,188.12140754791665,86.0,123.0
232,188.12140754791665,188.96647654791667,79.0,119.0
233,188.96647654791667,189.81154554791664,77.0,119.0
234,189.81154554791664,190.23408004791665,74.0,117.0
235,190.23408004791665,190.65661454791666,77.0,117.0
236,190.65661454791666,191.50168354791666,79.0,119.0
237,191.50168354791666,191.92421804791667,81.0,110.0
238,191.92421804791667,192.34675254791665,79.0,116.0
239,192.34675254791665,196.14956304791667,77.0,117.0
240,196.14956304791667,196.57033698749999,74.0,117.0
241,196.57209754791666,196.9928714875,74.0,117.0
242,196.99463204791664,197.41540598749998,74.0,119.0
243,197.41716654791665,197.8379404875,74.0,119.0
244,197.83970104791666,198.2604749875,74.0,119.0
245,198.26223554791665,198.6830094875,74.0,119.0
246,198.68477004791666,199.10554398749997,74.0,119.0
247,199.10730454791667,199.52983904791665,74.0,119.0
248,199.52983904791665,199.9506129875,76.0,116.0
249,199.95237354791664,200.37314748749998,76.0,110.0
250,200.37490804791665,200.7956819875,76.0,110.0
251,200.79744254791666,201.2182164875,76.0,107.0
252,201.21997704791664,201.64075098749998,76.0,102.0
253,201.64251154791665,202.06328548749997,76.0,107.0
254,202.06504604791667,202.48581998749998,76.0,100.0
255,202.48758054791665,202.91011504791663,76.0,108.0
256,202.91011504791663,203.33088898749997,77.0,114.0
257,203.33264954791667,203.7534234875,77.0,114.0
258,203.75518404791666,204.1759579875,77.0,113.0
259,204.17771854791664,204.59849248749998,77.0,113.0
260,204.60025304791665,205.02278754791666,77.0,114.0
261,205.02278754791666,205.44532204791665,79.0,114.0
262,205.44532204791665,205.86785654791666,81.0,116.0
263,205.86785654791666,209.67066704791665,77.0,117.0
264,209.67066704791665,210.0914409875,76.0,117.0
265,210.09320154791664,210.51397548749998,76.0,114.0
266,210.51573604791665,210.9365099875,76.0,114.0
267,210.93827054791666,211.3590444875,76.0,114.0
268,211.36080504791664,211.78157898749998,76.0,114.0
269,211.78333954791665,212.20411348749997,76.0,113.0
270,212.20587404791667,212.6266479875,76.0,116.0
271,212.62840854791665,213.05094304791663,76.0,114.0
272,213.05094304791663,213.47171698749997,77.0,117.0
273,213.47347754791667,213.8942514875,77.0,117.0
274,213.89601204791666,214.3167859875,77.0,119.0
275,214.31854654791664,214.73932048749998,77.0,116.0
276,214.74108104791665,215.16361554791666,77.0,116.0
277,215.16361554791666,215.37488279791665,79.0,113.0
278,215.37488279791665,215.79741729791664,81.0,114.0
279,215.79741729791664,216.43121904791667,77.0,117.0
280,216.43121904791667,216.85199298749998,79.0,117.0
281,216.85375354791665,217.2745274875,79.0,117.0
282,217.27628804791664,217.69706198749998,79.0,114.0
283,217.69882254791665,218.1195964875,79.0,113.0
284,218.12135704791666,218.54389154791664,79.0,114.0
285,218.54389154791664,218.96642604791666,81.0,113.0
286,218.96642604791666,219.38896054791667,82.0,119.0
287,219.38896054791667,220.23402954791663,81.0,119.0
288,220.23402954791663,223.19177104791663,85.0,123.0
289,225.30444354791666,225.72697804791665,81.0,119.0
290,225.72697804791665,226.14951254791666,79.0,114.0
291,226.14951254791666,227.83788998749998,77.0,117.0
292,227.83965054791665,228.05091779791667,77.0,100.0
293,228.05091779791667,228.68471954791664,79.0,110.0
294,228.68471954791664,228.89598679791663,77.0,108.0
295,228.89598679791663,229.31852129791665,79.0,113.0
296,229.31852129791665,229.74105579791666,77.0,113.0
297,229.74105579791666,232.06323498749998,81.0,114.0
298,232.06499554791665,232.48753004791666,81.0,116.0
299,232.48753004791666,232.91006454791665,79.0,114.0
300,232.91006454791665,234.38893529791665,77.0,116.0
301,234.38893529791665,234.60020254791664,74.0,113.0
302,234.60020254791664,234.81146979791666,77.0,113.0
303,234.81146979791666,235.02273704791665,74.0,110.0
304,235.02273704791665,235.44527154791666,79.0,119.0
305,235.44527154791666,235.65653879791665,77.0,114.0
306,235.65653879791665,236.07907329791664,79.0,119.0
307,236.07907329791664,236.50160779791665,82.0,119.0
308,236.50160779791665,238.8237869875,81.0,117.0
309,238.82554754791664,239.24808204791665,81.0,117.0
310,239.24808204791665,239.67061654791667,79.0,116.0
311,239.67061654791667,240.30441829791664,77.0,117.0
312,240.30441829791664,240.51568554791663,74.0,107.0
313,240.51568554791663,240.72695279791665,77.0,110.0
314,240.72695279791665,240.93822004791667,74.0,108.0
315,240.93822004791667,241.35899398749999,77.0,113.0
316,241.36075454791666,241.57202179791665,77.0,113.0
317,241.57202179791665,242.20582354791665,79.0,119.0
318,242.20582354791665,242.41709079791667,77.0,108.0
319,242.41709079791667,242.83962529791665,79.0,107.0
320,242.83962529791665,243.47342704791666,77.0,110.0
321,243.47342704791666,243.89596154791664,81.0,119.0
322,243.89596154791664,244.31849604791665,79.0,114.0
323,244.31849604791665,244.74103054791667,77.0,117.0
324,244.74103054791667,245.58609954791666,86.0,123.0
325,245.58609954791666,246.43116854791666,79.0,119.0
326,246.43116854791666,247.27623754791665,77.0,119.0
327,247.27623754791665,247.69877204791666,74.0,117.0
328,247.69877204791666,248.12130654791665,77.0,117.0
329,248.12130654791665,248.96637554791664,79.0,119.0
330,248.96637554791664,249.38891004791665,81.0,110.0
331,249.38891004791665,249.81144454791666,79.0,116.0
332,249.81144454791666,250.54031656041664,77.0,117.0
333,252.34665154791665,252.76918604791666,81.0,117.0
334,252.76918604791666,253.19172054791665,79.0,116.0
335,253.19172054791665,253.82552229791665,77.0,117.0
336,253.82552229791665,254.03678954791664,74.0,107.0
337,254.03678954791664,254.24805679791666,77.0,110.0
338,254.24805679791666,254.45932404791665,74.0,108.0
339,254.45932404791665,254.8800979875,77.0,113.0
340,254.88185854791666,255.09312579791666,77.0,113.0
341,255.09312579791666,255.72692754791666,79.0,119.0
342,255.72692754791666,255.93819479791665,77.0,108.0
343,255.93819479791665,256.3607292979167,79.0,107.0
344,256.3607292979167,256.99453104791667,77.0,110.0
345,256.99453104791667,257.41706554791665,81.0,119.0
346,257.41706554791665,257.83960004791663,79.0,114.0
347,257.83960004791663,258.2621345479166,77.0,117.0
348,258.2621345479166,259.1054429875,86.0,123.0
349,259.10720354791664,259.95227254791666,86.0,110.0
350,259.95227254791666,260.1741031604166,81.0,108.0
351,260.16353979791666,260.37480704791665,79.0,102.0
352,260.37480704791665,263.7550830479166,77.0,113.0
353,266.29029004791664,267.13535904791667,81.0,114.0
354,267.13535904791667,267.58782307499996,79.0,116.0
355,267.55789354791665,268.82549704791666,77.0,113.0
