,start,end,pitch,velocity
0,6.873227866666666,8.23414106875,46.0,83.0
1,7.295762366666667,8.258788914583333,53.0,70.0
2,7.718296866666667,8.262310035416666,58.0,67.0
3,8.563365866666667,9.943645233333333,48.0,84.0
4,9.408434866666667,9.994701485416666,60.0,73.0
5,8.985900366666666,10.00878596875,55.0,65.0
6,11.098572866666666,13.063358291666667,62.0,80.0
7,10.676038366666667,13.174273597916667,57.0,77.0
8,10.253503866666666,13.2358932125,50.0,86.0
9,11.521107366666667,13.308076189583334,65.0,81.0
10,13.633779866666666,15.056312683333333,46.0,84.0
11,14.478848866666667,15.08448165,58.0,81.0
12,14.056314366666667,15.093284452083333,53.0,80.0
13,15.323917866666667,16.68483106875,48.0,86.0
14,16.168986866666668,16.720042277083333,60.0,73.0
15,15.746452366666666,16.749971804166666,55.0,76.0
16,18.070392116666667,18.26933544375,60.0,88.0
17,17.014055866666666,18.492926616666665,50.0,84.0
18,18.281659366666666,18.551025110416667,64.0,87.0
19,18.492926616666665,18.748207877083335,65.0,86.0
20,18.704193866666667,19.408418033333334,67.0,88.0
21,18.704193866666667,19.496446054166668,43.0,81.0
22,20.077430991666667,20.700669379166666,84.0,76.0
23,20.183064616666666,20.7358805875,89.0,84.0
24,20.288698241666665,20.802781883333335,93.0,84.0
25,20.394331866666665,20.809824125,96.0,93.0
26,22.929538866666668,23.603833506249998,72.0,68.0
27,23.774607866666667,25.036929685416666,81.0,82.0
28,23.774607866666667,25.09678873958333,65.0,75.0
29,23.774607866666667,25.119676025,77.0,67.0
30,23.774607866666667,25.16721115625,72.0,38.0
31,25.464745866666668,26.563335566666666,64.0,65.0
32,25.464745866666668,26.6513635875,72.0,69.0
33,25.464745866666668,26.681293114583333,79.0,74.0
34,25.464745866666668,26.686574795833334,76.0,76.0
35,27.154883866666665,27.510517070833334,77.0,71.0
36,27.154883866666665,27.668967508333335,74.0,77.0
37,27.154883866666665,28.44185353125,81.0,82.0
38,27.999952866666668,28.506994266666666,72.0,77.0
39,28.422487366666665,29.718259833333335,74.0,86.0
40,27.577418366666667,29.734104877083332,69.0,58.0
41,27.154883866666665,29.7781188875,62.0,76.0
42,29.690090866666665,30.075653597916666,60.0,82.0
43,29.690090866666665,30.19537170625,79.0,82.0
44,29.690090866666665,30.3274137375,72.0,82.0
45,29.690090866666665,30.352061583333334,76.0,86.0
46,30.535159866666667,31.802763366666667,58.0,80.0
47,31.380228866666666,31.820368970833332,70.0,81.0
48,30.957694366666665,31.82212953125,65.0,77.0
49,30.535159866666667,31.90135475,77.0,81.0
50,30.535159866666667,32.16719937291666,74.0,87.0
51,34.33797036666667,34.87670185416667,67.0,81.0
52,34.760504866666665,35.621418910416665,77.0,104.0
53,35.60557386666667,36.471769591666664,76.0,110.0
54,35.18303936666667,36.570360975,67.0,70.0
55,33.91543586666667,36.603811622916666,60.0,86.0
56,36.45064286666667,37.1090924625,72.0,102.0
57,36.87317736666667,37.27634570208333,70.0,106.0
58,38.14078086666667,38.556273125,65.0,82.0
59,37.295711866666664,38.628456102083334,53.0,88.0
60,37.295711866666664,38.971765383333334,69.0,96.0
61,37.71824636666667,38.992892108333336,60.0,79.0
62,38.98584986666667,39.528102475,72.0,86.0
63,38.98584986666667,39.54042639791667,67.0,86.0
64,39.40838436666667,40.19183375208333,60.0,76.0
65,39.830918866666664,40.63373441666667,72.0,100.0
66,39.830918866666664,40.64429777916666,67.0,104.0
67,38.98584986666667,40.66014282291667,52.0,83.0
68,40.67598786666667,41.852042225,69.0,88.0
69,40.67598786666667,41.896056235416665,65.0,85.0
70,41.52105686666667,41.98584481666666,62.0,82.0
71,40.67598786666667,42.033379947916664,50.0,82.0
72,41.098522366666664,42.37316810833333,57.0,77.0
73,42.366125866666664,42.93478688125,67.0,91.0
74,41.943591366666666,43.033378264583334,64.0,86.0
75,43.211194866666666,43.644292729166665,67.0,102.0
76,42.366125866666664,43.989362570833336,48.0,91.0
77,43.633729366666664,44.07563003125,64.0,89.0
78,44.05626386666667,45.1795014125,65.0,91.0
79,44.05626386666667,45.198867577083334,62.0,86.0
80,44.901332866666664,45.3907686625,58.0,84.0
81,44.05626386666667,45.413655947916666,46.0,85.0
82,44.478798366666666,45.75872578958333,53.0,74.0
83,47.436539866666664,47.81506035625,77.0,91.0
84,47.85907436666667,48.170693560416666,72.0,87.0
85,48.281608866666666,48.67245327916667,79.0,102.0
86,48.70414336666666,49.195339722916664,72.0,88.0
87,49.549212366666666,49.947099020833335,72.0,94.0
88,49.12667786666667,49.966465185416666,81.0,96.0
89,48.281608866666666,49.98759191041667,65.0,80.0
90,47.436539866666664,49.992873591666665,53.0,87.0
91,47.85907436666667,50.02456367916667,60.0,67.0
92,49.97174686666666,50.399563047916665,84.0,108.0
93,50.816815866666666,51.32033614583333,89.0,100.0
94,50.816815866666666,51.33089950833333,81.0,74.0
95,50.816815866666666,51.4330120125,84.0,86.0
96,50.816815866666666,51.899560522916666,62.0,87.0
97,52.084419366666665,52.3625879125,62.0,86.0
98,51.66188486666667,52.381954077083336,89.0,102.0
99,52.50695386666666,53.19005130833333,88.0,94.0
100,52.50695386666666,53.212938593749996,79.0,94.0
101,53.352022866666665,53.61434636875,89.0,104.0
102,53.563290116666664,53.860824827083334,88.0,87.0
103,53.77455736666666,53.971740133333334,84.0,93.0
104,52.50695386666666,54.05096535208333,64.0,86.0
105,53.98582461666667,54.18652850416667,79.0,84.0
106,54.19709186666667,54.619626366666665,77.0,88.0
107,55.04216086666666,55.348498379166664,65.0,78.0
108,54.19709186666667,55.35730118125,69.0,83.0
109,54.619626366666665,55.371385664583336,60.0,52.0
110,54.19709186666667,55.408357433333336,53.0,78.0
111,55.887229866666665,56.471735925,70.0,87.0
112,55.887229866666665,56.498144331249996,76.0,86.0
113,55.887229866666665,56.59321459375,67.0,86.0
114,55.887229866666665,56.62138356041667,60.0,84.0
115,55.887229866666665,56.675960933333336,48.0,88.0
116,55.887229866666665,56.70941158125,72.0,88.0
117,56.73229886666667,57.18828401458333,53.0,88.0
118,56.73229886666667,57.32384716666667,65.0,96.0
119,56.73229886666667,57.478776483333334,69.0,93.0
120,56.73229886666667,57.485818725,72.0,88.0
121,57.57736786666667,57.92419826875,74.0,88.0
122,57.57736786666667,57.952367235416666,70.0,87.0
123,57.57736786666667,58.34673276875,65.0,92.0
124,57.57736786666667,58.9329993875,46.0,86.0
125,58.422436866666665,58.952365552083336,58.0,81.0
126,58.422436866666665,58.96645003541666,62.0,92.0
127,57.99990236666667,58.9752528375,53.0,78.0
128,58.422436866666665,59.11257655,70.0,87.0
129,58.84497136666667,59.211167933333336,65.0,86.0
130,59.26750586666667,59.7569416625,72.0,89.0
131,59.26750586666667,59.77982894791666,67.0,91.0
132,59.26750586666667,59.78687118958333,64.0,86.0
133,59.26750586666667,60.600250102083336,48.0,87.0
134,60.11257486666667,60.651306354166664,64.0,92.0
135,59.690040366666665,60.65834859583333,55.0,75.0
136,60.11257486666667,60.700602045833335,60.0,84.0
137,60.11257486666667,60.739334375,72.0,88.0
138,60.11257486666667,60.874897527083334,67.0,96.0
139,60.957643866666665,61.51926263958333,72.0,86.0
140,60.957643866666665,61.65658635208333,65.0,87.0
141,60.957643866666665,61.72348764791666,69.0,91.0
142,61.80271286666667,62.244613531249996,67.0,104.0
143,62.225247366666665,62.68827475625,65.0,85.0
144,62.64778186666667,63.02982347708333,72.0,113.0
145,62.64778186666667,63.10376701458333,67.0,107.0
146,63.07031636666667,63.53334375625,65.0,88.0
147,61.38017836666667,63.908343125,60.0,81.0
148,60.957643866666665,63.9189064875,53.0,86.0
149,63.492850866666664,63.99108946458333,75.0,109.0
150,63.492850866666664,64.119610375,67.0,110.0
151,63.91538536666667,64.28158193333333,65.0,81.0
152,64.33791986666667,64.92770760625,74.0,91.0
153,64.33791986666667,65.01397506666666,70.0,97.0
154,64.33791986666667,65.02101730833333,65.0,102.0
155,64.33791986666667,65.46467853333333,58.0,88.0
156,65.18298886666666,65.69707250833333,74.0,91.0
157,65.18298886666666,65.69883306875,65.0,102.0
158,65.18298886666666,65.95235376875,70.0,109.0
159,65.60552336666666,66.00693114166667,58.0,100.0
160,66.02805786666667,66.96291544791667,64.0,96.0
161,66.02805786666667,67.03157730416666,72.0,94.0
162,66.02805786666667,67.10023916041666,67.0,107.0
163,66.02805786666667,67.36784434375,48.0,88.0
164,67.08439411666667,67.38192882708333,64.0,86.0
165,66.66185961666666,67.3836893875,55.0,88.0
166,66.87312686666667,67.62136504375,60.0,94.0
167,67.29566136666666,67.64953401041667,67.0,98.0
168,67.71819586666666,68.21467390416666,69.0,108.0
169,67.71819586666666,68.21467390416666,72.0,93.0
170,67.71819586666666,68.26749071666667,65.0,91.0
171,68.14073036666666,68.39072994583333,60.0,77.0
172,67.71819586666666,68.42418059375,53.0,88.0
173,68.56326486666667,69.09143299166666,64.0,93.0
174,68.56326486666667,69.21291166041667,72.0,88.0
175,68.56326486666667,69.23755950625,67.0,102.0
176,68.56326486666667,69.3062213625,52.0,91.0
177,69.40833386666667,69.89600910208333,62.0,87.0
178,69.40833386666667,69.97699488125,69.0,88.0
179,69.40833386666667,70.02805113333334,65.0,92.0
180,69.40833386666667,70.50692356666667,50.0,89.0
181,70.04213561666667,70.60023326875,57.0,67.0
182,70.25340286666666,70.67417680625,62.0,102.0
183,70.25340286666666,70.68474016875,69.0,104.0
184,70.25340286666666,70.89248629791666,65.0,110.0
185,71.09847186666667,71.63544279375,70.0,90.0
186,71.09847186666667,71.64600615625,65.0,94.0
187,71.09847186666667,71.65128783749999,62.0,88.0
188,71.52100636666667,72.0315688875,58.0,79.0
189,71.94354086666667,72.40480769583333,70.0,100.0
190,71.09847186666667,72.41537105833333,46.0,90.0
191,71.94354086666667,72.48403291458334,62.0,107.0
192,72.36607536666666,72.57382149583333,58.0,88.0
193,71.94354086666667,72.69353960416666,65.0,113.0
194,72.78860986666666,73.2991723875,72.0,92.0
195,72.78860986666666,73.35727088125,67.0,102.0
196,72.78860986666666,73.37663704583333,64.0,89.0
197,73.63367886666667,74.22170604583333,60.0,83.0
198,73.63367886666667,74.23226940833334,72.0,93.0
199,72.78860986666666,74.23402996875,48.0,89.0
200,73.63367886666667,74.25691725416667,67.0,108.0
201,73.63367886666667,74.26219893541666,64.0,102.0
202,73.21114436666667,74.27804397916667,55.0,80.0
203,74.90128236666666,75.45585889791667,57.0,91.0
204,74.47874786666667,75.93825245208333,45.0,93.0
205,75.32381686666666,76.00163262708334,73.0,116.0
206,75.74635136666667,76.03860439583333,57.0,104.0
207,76.16888586666667,76.61254709166667,57.0,96.0
208,76.16888586666667,76.82029322083334,64.0,107.0
209,76.16888586666667,76.85022274791666,73.0,91.0
210,76.16888586666667,76.86430723125,69.0,113.0
211,76.80268761666666,77.11430681041666,57.0,114.0
212,76.16888586666667,77.43472880624999,45.0,94.0
213,77.01395486666667,77.45585553125,73.0,103.0
214,77.01395486666667,77.4928273,64.0,110.0
215,77.01395486666667,77.66888334166667,69.0,117.0
216,77.43648936666666,77.73402407708333,57.0,114.0
217,77.85902386666666,78.39247367291667,74.0,113.0
218,77.85902386666666,78.54212130833334,69.0,114.0
219,77.85902386666666,78.54388186875,65.0,107.0
220,78.49282561666666,78.78507864583334,62.0,102.0
221,78.70409286666667,79.17768361875,74.0,113.0
222,78.70409286666667,79.28331724375,65.0,114.0
223,79.12662736666667,79.30268340833334,62.0,100.0
224,77.85902386666666,79.36078190208333,50.0,108.0
225,78.28155836666667,79.36430302291667,57.0,81.0
226,78.70409286666667,79.41888039583333,69.0,117.0
227,79.54916186666667,80.14951296875,72.0,102.0
228,79.54916186666667,80.18472417708334,64.0,108.0
229,79.54916186666667,80.20056922083333,67.0,116.0
230,80.18296361666667,80.48401944791667,60.0,110.0
231,79.76042911666667,80.69528669791667,55.0,81.0
232,79.54916186666667,80.81324424583333,48.0,100.0
233,80.39423086666666,80.9259201125,64.0,114.0
234,80.39423086666666,81.0421171,72.0,107.0
235,80.39423086666666,81.14422960416667,67.0,117.0
236,80.81676536666667,81.18296193333333,60.0,104.0
237,81.23929986666667,81.79035527708334,72.0,107.0
238,81.23929986666667,81.91007338541667,69.0,117.0
239,81.23929986666667,81.91535506666666,65.0,102.0
240,81.87310161666666,82.26570658958333,60.0,89.0
241,82.08436886666667,82.56676242083333,72.0,96.0
242,82.08436886666667,82.6371848375,67.0,117.0
243,82.71817061666667,82.79211415416667,69.0,113.0
244,82.71817061666667,82.79387471458334,65.0,107.0
245,82.71817061666667,82.80795919791666,72.0,94.0
246,82.92943786666666,82.96112795416667,69.0,83.0
247,82.50690336666666,83.26746546666666,60.0,84.0
248,83.14070511666667,83.51042280416667,72.0,107.0
249,83.14070511666667,83.58612690208334,67.0,114.0
250,81.23929986666667,83.97697131458334,53.0,92.0
251,83.56323961666666,83.99809803958333,60.0,93.0
252,83.77450686666667,84.2428159375,72.0,104.0
253,83.77450686666667,84.26570322291667,65.0,113.0
254,84.19704136666667,84.32380171666667,53.0,94.0
255,84.19704136666667,84.47697047291666,69.0,100.0
256,85.25337761666667,85.56147568958333,58.0,113.0
257,84.61957586666666,85.99105243125,46.0,106.0
258,85.46464486666666,86.00513691458333,62.0,114.0
259,85.46464486666666,86.02450307916666,70.0,116.0
260,85.88717936666667,86.15654511041667,58.0,113.0
261,85.46464486666666,86.19879856041666,65.0,120.0
262,86.30971386666667,86.89774104583333,72.0,110.0
263,86.30971386666667,86.93471281458334,64.0,107.0
264,86.30971386666667,86.94175505625,67.0,116.0
265,86.94351561666667,87.2005574375,60.0,110.0
266,86.30971386666667,87.528021675,48.0,98.0
267,86.73224836666667,87.61957081666667,55.0,83.0
268,87.15478286666666,87.65126090416666,72.0,113.0
269,87.15478286666666,87.73048612291666,64.0,116.0
270,87.36605011666667,87.78682405625,60.0,100.0
271,87.57731736666666,87.87837319791667,67.0,102.0
272,87.99985186666666,88.59140016666666,74.0,91.0
273,87.99985186666666,88.60372408958334,65.0,96.0
274,87.99985186666666,88.63365361666666,69.0,104.0
275,88.63365361666666,88.96287841458333,62.0,82.0
276,88.84492086666667,89.47872261666667,74.0,89.0
277,88.84492086666667,89.50865214375,65.0,102.0
278,88.84492086666667,89.5456239125,69.0,113.0
279,89.47872261666667,89.90301767708333,62.0,87.0
280,89.68998986666666,90.29386208958333,69.0,108.0
281,89.68998986666666,90.30090433125,74.0,104.0
282,89.68998986666666,90.30442545208334,65.0,100.0
283,90.32379161666667,90.697030425,62.0,96.0
284,87.99985186666666,90.70055154583333,50.0,89.0
285,90.95759336666667,91.0984382,48.0,98.0
286,90.53505886666666,91.11780436458334,65.0,108.0
287,90.53505886666666,91.21991686875,74.0,107.0
288,90.53505886666666,91.29033928541666,69.0,117.0
289,91.38012786666667,91.99104233125,74.0,100.0
290,91.38012786666667,92.05442250625,70.0,116.0
291,91.38012786666667,92.06322530833333,65.0,100.0
292,92.01392961666667,92.35899945833333,58.0,109.0
293,92.22519686666666,92.70230873958333,65.0,113.0
294,91.38012786666667,92.75512555208333,46.0,97.0
295,92.22519686666666,92.84843525416666,74.0,104.0
296,92.64773136666666,92.90301262708333,58.0,106.0
297,92.22519686666666,92.98751952708334,70.0,119.0
298,93.07026586666666,93.65829304583333,72.0,102.0
299,93.07026586666666,93.697025375,64.0,110.0
300,93.07026586666666,93.7181521,67.0,117.0
301,93.70406761666666,94.01920793125,60.0,102.0
302,93.07026586666666,94.34667216875,48.0,93.0
303,93.49280036666667,94.3942073,55.0,82.0
304,93.91533486666667,94.43998187083334,64.0,114.0
305,93.91533486666667,94.49103812291666,72.0,107.0
306,93.91533486666667,94.64596743958333,67.0,117.0
307,94.33786936666667,94.66181248333334,60.0,93.0
308,94.76040386666666,95.41709290208333,72.0,98.0
309,94.76040386666666,95.46286747291667,65.0,94.0
310,94.76040386666666,95.48751531875,69.0,108.0
311,95.60547286666666,95.74279657916667,69.0,107.0
312,95.60547286666666,95.75335994166666,72.0,90.0
313,95.60547286666666,95.767444425,65.0,92.0
314,94.76040386666666,95.8202612375,53.0,96.0
315,96.02800736666667,97.17061107708334,65.0,110.0
316,96.02800736666667,97.18645612083333,74.0,107.0
317,96.02800736666667,97.18821668125,71.0,117.0
318,96.02800736666667,97.51568091875,59.0,100.0
319,97.29561086666666,97.73046928958333,71.0,117.0
320,97.29561086666666,97.77096217916666,74.0,107.0
321,97.29561086666666,97.80441282708333,65.0,108.0
322,97.71814536666666,97.82025787083333,59.0,91.0
323,98.14067986666666,98.66532687083333,62.0,108.0
324,98.14067986666666,98.6723691125,70.0,109.0
325,98.14067986666666,98.70581976041666,65.0,116.0
326,98.56321436666667,99.0526501625,58.0,83.0
327,98.14067986666666,99.41708616875,46.0,106.0
328,98.98574886666667,99.56673380416666,70.0,106.0
329,98.98574886666667,99.57377604583333,62.0,107.0
330,99.40828336666667,99.697015275,58.0,103.0
331,98.98574886666667,99.70581807708334,65.0,116.0
332,99.83081786666666,100.44877457291666,72.0,108.0
333,100.67588686666667,100.94877373125,72.0,36.0
334,99.83081786666666,100.99806942291667,64.0,107.0
335,99.83081786666666,101.01919614791666,67.0,114.0
336,99.83081786666666,101.0808157625,48.0,94.0
337,101.52095586666667,102.88186906874999,46.0,83.0
338,101.94349036666667,102.90651691458334,53.0,70.0
339,102.36602486666666,102.91003803541666,58.0,67.0
340,103.21109386666667,104.59137323333333,48.0,84.0
341,104.05616286666667,104.64242948541667,60.0,73.0
342,103.63362836666667,104.65651396875,55.0,65.0
343,105.74630086666667,107.71108629166666,62.0,80.0
344,105.32376636666666,107.82200159791667,57.0,77.0
345,104.90123186666666,107.8836212125,50.0,86.0
346,106.16883536666667,107.95580418958333,65.0,81.0
347,108.28150786666667,109.70404068333333,46.0,84.0
348,109.12657686666667,109.73220965,58.0,81.0
349,108.70404236666667,109.74101245208334,53.0,80.0
350,109.97164586666666,111.33255906875,48.0,86.0
351,110.81671486666667,111.36777027708334,60.0,73.0
352,110.39418036666666,111.39769980416666,55.0,76.0
353,112.717190375,112.91570312500001,60.0,88.0
354,111.66178386666667,113.138780075,50.0,84.0
355,112.928000375,113.19650285,64.0,87.0
356,113.138780075,113.39241045,65.0,86.0
357,113.348681075,114.047980375,67.0,88.0
358,113.348681075,114.13501787499999,43.0,81.0
359,115.02293904791665,115.49300867916665,72.0,87.0
360,115.02293904791665,115.57399445833332,69.0,90.0
361,115.02293904791665,115.57575501874999,65.0,87.0
362,115.86800804791666,116.38561281041666,65.0,91.0
363,115.86800804791666,116.38561281041666,72.0,88.0
364,115.86800804791666,116.62504902708332,69.0,91.0
365,115.44547354791665,116.66378135624998,60.0,38.0
366,115.02293904791665,116.69723200416665,53.0,85.0
367,116.71307704791666,117.26941413958332,72.0,88.0
368,116.71307704791666,117.37504776458331,64.0,87.0
369,116.71307704791666,117.38737168749999,67.0,92.0
370,117.55814604791665,118.02293399791665,64.0,92.0
371,117.55814604791665,118.06518744791666,72.0,87.0
372,117.55814604791665,118.26941245624998,67.0,94.0
373,116.71307704791666,118.39441224583332,52.0,82.0
374,118.40321504791666,119.01060839166665,69.0,87.0
375,118.40321504791666,119.08279136874998,62.0,87.0
376,118.40321504791666,119.11272089583332,65.0,91.0
377,119.24828404791666,119.80990282083332,69.0,88.0
378,119.24828404791666,119.82750842499999,62.0,88.0
379,119.24828404791666,119.85215627083332,65.0,91.0
380,120.09335304791665,120.57222548124999,65.0,94.0
381,120.09335304791665,120.66201406249999,62.0,91.0
382,120.09335304791665,120.84335178541666,69.0,91.0
383,118.40321504791666,120.92081644374998,50.0,84.0
384,120.93842204791666,121.48067465624999,60.0,88.0
385,120.93842204791666,121.61271668749998,48.0,86.0
386,120.93842204791666,121.62151948958332,67.0,91.0
387,120.93842204791666,121.68842078541665,64.0,102.0
388,121.78349104791666,122.33982813958332,69.0,91.0
389,121.78349104791666,122.40496887499998,62.0,89.0
390,121.78349104791666,122.41905335833331,65.0,96.0
391,122.20602554791665,123.04405230624998,53.0,67.0
392,122.62856004791665,123.07398183333332,62.0,91.0
393,121.78349104791666,123.10215079999999,46.0,86.0
394,122.62856004791665,123.17433377708332,69.0,91.0
395,122.62856004791665,123.37327710416665,65.0,98.0
396,123.05109454791665,123.46834736666665,58.0,82.0
397,123.47362904791666,124.08102239166665,62.0,88.0
398,123.47362904791666,124.14088144583332,65.0,100.0
399,123.47362904791666,124.22714890625,70.0,87.0
400,124.31869804791666,124.87855626041666,62.0,96.0
401,124.31869804791666,124.89264074374998,70.0,89.0
402,124.31869804791666,125.08806295,65.0,102.0
403,125.16376704791665,126.15672312291666,72.0,85.0
404,125.16376704791665,126.21130049583331,64.0,88.0
405,125.16376704791665,126.27820179166665,67.0,89.0
406,126.43137054791666,126.80636991666665,65.0,90.0
407,126.00883604791666,127.13559471458332,60.0,88.0
408,126.85390504791665,127.47186175416665,72.0,88.0
409,126.85390504791665,127.50883352291666,64.0,91.0
410,126.85390504791665,127.52643912708332,67.0,92.0
411,127.48770679791666,127.86446672708333,60.0,84.0
412,127.69897404791665,128.1074240645833,64.0,100.0
413,127.69897404791665,128.1179874270833,72.0,96.0
414,127.69897404791665,128.12326910833332,67.0,108.0
415,125.16376704791665,128.38911373124998,48.0,87.0
416,128.12150854791665,128.39263485208332,60.0,87.0
417,125.58630154791665,128.40495877499998,55.0,78.0
418,128.54404304791666,129.05108444791665,72.0,85.0
419,128.54404304791666,129.14615471041665,69.0,90.0
420,128.54404304791666,129.16199975416666,65.0,87.0
421,128.96657754791664,129.82573103124997,60.0,70.0
422,129.38911204791665,129.95249138124998,65.0,93.0
423,129.38911204791665,129.98066034791665,72.0,88.0
424,129.38911204791665,130.1091812583333,69.0,94.0
425,128.54404304791666,130.23594160833332,53.0,87.0
426,130.23418104791665,130.83629271041664,72.0,88.0
427,130.23418104791665,130.88558840208333,67.0,90.0
428,130.23418104791665,130.89967288541666,64.0,87.0
429,130.23418104791665,131.25882721041665,52.0,81.0
430,131.07925004791664,131.54403799791666,72.0,91.0
431,131.07925004791664,131.573967525,64.0,93.0
432,131.07925004791664,131.81868542291664,67.0,102.0
433,131.50178454791666,131.92960072916665,52.0,85.0
434,131.92431904791664,132.47361389791666,74.0,91.0
435,131.92431904791664,132.47713501874998,69.0,92.0
436,131.92431904791664,132.52114902916665,65.0,89.0
437,132.34685354791665,132.84685270625,57.0,74.0
438,132.76938804791666,133.32044345833333,74.0,89.0
439,132.76938804791666,133.3591757875,65.0,93.0
440,132.76938804791666,133.36621802916665,69.0,93.0
441,133.61445704791666,134.07220275625,65.0,87.0
442,133.61445704791666,134.08100555833332,74.0,88.0
443,131.92431904791664,134.22008983125,50.0,86.0
444,133.19192254791665,134.30283617083333,57.0,75.0
445,133.61445704791666,134.41903315833332,69.0,88.0
446,134.45952604791665,134.89614503125,67.0,100.0
447,134.45952604791665,134.91375063541665,64.0,94.0
448,134.45952604791665,135.081003875,72.0,88.0
449,134.45952604791665,135.15494741249998,48.0,89.0
450,135.30459504791665,135.85036877708333,70.0,88.0
451,135.30459504791665,135.85565045833332,62.0,92.0
452,135.30459504791665,135.8662138208333,65.0,100.0
453,135.72712954791666,136.2676215958333,58.0,75.0
454,136.14966404791664,136.64438152499997,70.0,91.0
455,135.30459504791665,136.64966320624998,46.0,90.0
456,136.14966404791664,136.66726881041666,65.0,104.0
457,136.14966404791664,136.67607161249998,62.0,93.0
458,136.57219854791666,137.00529641041666,58.0,83.0
459,136.99473304791667,137.44543651458332,72.0,89.0
460,136.99473304791667,137.48064772291664,64.0,98.0
461,136.99473304791667,137.52818285416666,67.0,100.0
462,137.41726754791665,137.93839343124998,60.0,79.0
463,136.99473304791667,137.95952015625,48.0,88.0
464,137.83980204791666,138.30987167916666,72.0,90.0
465,137.83980204791666,138.33628008541666,64.0,98.0
466,138.26233654791665,138.4225475458333,48.0,84.0
467,137.83980204791666,138.54754733541665,67.0,100.0
468,138.68487104791666,139.0633915375,69.0,88.0
469,138.68487104791666,139.12149003124998,60.0,88.0
470,138.68487104791666,139.12501115208332,65.0,88.0
471,139.10740554791664,139.69015104583332,53.0,77.0
472,139.52994004791665,140.05810817291666,69.0,92.0
473,139.52994004791665,140.08803769999997,60.0,93.0
474,139.52994004791665,140.11444610625,65.0,96.0
475,139.95247454791667,140.54050172708332,53.0,77.0
476,140.37500904791665,140.85212092083333,60.0,89.0
477,140.37500904791665,140.86620540416666,69.0,91.0
478,140.37500904791665,140.95071230416664,65.0,91.0
479,140.79754354791666,141.27993710208332,53.0,82.0
480,138.68487104791666,141.52641556041664,41.0,89.0
481,141.22007804791664,141.75704897499998,60.0,108.0
482,141.22007804791664,141.79578130416667,69.0,98.0
483,141.22007804791664,141.84859811666666,65.0,110.0
484,141.64261254791666,141.88028820416665,53.0,76.0
485,142.06514704791664,142.54401948125,69.0,102.0
486,142.06514704791664,142.64613198541664,62.0,96.0
487,142.06514704791664,142.65141366666666,65.0,113.0
488,142.48768154791665,143.03697639791665,57.0,72.0
489,142.91021604791666,143.46831369999998,69.0,104.0
490,143.33275054791665,143.48767986458333,57.0,79.0
491,142.91021604791666,143.50176434791666,62.0,104.0
492,142.91021604791666,143.5616234020833,65.0,113.0
493,142.06514704791664,143.56690508333332,50.0,96.0
494,143.75528504791666,144.30281933749998,64.0,98.0
495,143.75528504791666,144.30457989791665,72.0,88.0
496,143.75528504791666,144.33979110624998,67.0,110.0
497,144.17781954791664,144.70070599166667,60.0,80.0
498,143.75528504791666,144.99119846041665,48.0,91.0
499,144.60035404791665,145.12147993124998,64.0,108.0
500,144.60035404791665,145.16373338124998,72.0,92.0
501,144.60035404791665,145.3098598958333,67.0,116.0
502,145.02288854791666,145.42077520208332,60.0,86.0
503,145.44542304791665,146.02640798541665,72.0,98.0
504,145.44542304791665,146.11971768749999,65.0,100.0
505,145.44542304791665,146.13732329166666,69.0,113.0
506,145.44542304791665,146.56690003333333,53.0,91.0
507,146.29049204791664,146.72182934999998,69.0,110.0
508,146.29049204791664,146.73063215208333,65.0,100.0
509,146.29049204791664,146.7623222395833,72.0,93.0
510,146.71302654791666,147.08626535624998,53.0,83.0
511,147.13556104791667,147.63203908541664,70.0,116.0
512,147.13556104791667,147.70070094166664,76.0,102.0
513,147.13556104791667,147.74119383124997,67.0,102.0
514,147.13556104791667,147.85739081875,48.0,89.0
515,147.13556104791667,147.8732358625,60.0,93.0
516,147.98063004791666,148.62499516041666,65.0,104.0
517,147.98063004791666,148.64964300625,72.0,108.0
518,147.98063004791666,148.68309365416667,69.0,116.0
519,147.98063004791666,148.73414990625,53.0,100.0
520,148.82569904791666,149.39259950208333,69.0,100.0
521,148.82569904791666,149.4577402375,62.0,100.0
522,148.82569904791666,149.4577402375,65.0,110.0
523,149.67076804791665,150.22710513958333,62.0,104.0
524,149.67076804791665,150.30809091875,69.0,100.0
525,148.82569904791666,150.3221754020833,50.0,96.0
526,149.67076804791665,150.40316118124997,65.0,110.0
527,150.51583704791665,151.11266702916666,72.0,108.0
528,150.51583704791665,151.14259655625,64.0,93.0
529,150.51583704791665,151.15315991875,67.0,108.0
530,151.36090604791664,151.88731361249998,64.0,104.0
531,151.36090604791664,151.9084403375,72.0,96.0
532,151.36090604791664,152.05104573124999,67.0,114.0
533,150.51583704791665,152.0598485333333,52.0,87.0
534,152.20597504791664,152.83273455625,72.0,96.0
535,152.20597504791664,152.88379080833332,69.0,113.0
536,152.20597504791664,152.89083304999997,65.0,96.0
537,153.05104404791666,153.47886022916666,69.0,113.0
538,153.05104404791666,153.48238135,65.0,102.0
539,153.05104404791666,153.51759255833332,72.0,92.0
540,152.20597504791664,153.77287381874999,53.0,93.0
541,153.89611304791666,154.42956285416665,65.0,104.0
542,153.89611304791666,154.45773182083332,75.0,103.0
543,153.89611304791666,154.45949238125,69.0,113.0
544,153.89611304791666,154.88378744166664,53.0,98.0
545,154.74118204791665,155.22885728333333,75.0,109.0
546,155.16371654791664,155.28871633749998,53.0,92.0
547,154.74118204791665,155.33273034791665,65.0,113.0
548,154.74118204791665,155.4242794895833,69.0,119.0
549,155.58625104791665,156.01934891041665,70.0,113.0
550,155.58625104791665,156.12674309583332,65.0,107.0
551,156.22005279791665,156.57568600208333,58.0,84.0
552,155.58625104791665,156.9295586458333,46.0,100.0
553,156.43132004791664,157.01758666666666,62.0,113.0
554,156.43132004791664,157.05631899583332,70.0,109.0
555,156.85385454791665,157.11441748958333,58.0,86.0
556,156.43132004791664,157.16547374166666,65.0,116.0
557,157.27638904791667,157.855613425,72.0,108.0
558,157.27638904791667,157.90314855625,64.0,104.0
559,157.27638904791667,157.91371191874998,67.0,114.0
560,157.91019079791664,157.99469769791665,60.0,102.0
561,157.27638904791667,158.34152809999998,48.0,92.0
562,158.12145804791666,158.60913328333334,72.0,110.0
563,158.12145804791666,158.63378112916666,64.0,114.0
564,158.12145804791666,158.73413307291665,67.0,117.0
565,158.54399254791664,158.78166820416666,48.0,84.0
566,158.96652704791666,159.42427275625,69.0,100.0
567,158.96652704791666,159.4594839645833,60.0,98.0
568,158.96652704791666,159.4929346125,65.0,108.0
569,158.96652704791666,159.73765251041664,53.0,93.0
570,159.81159604791665,159.96300424375,64.0,98.0
571,159.81159604791665,159.97356760625,72.0,92.0
572,159.81159604791665,159.99469433125,67.0,108.0
573,159.81159604791665,160.03518722083334,52.0,92.0
574,160.23413054791666,161.66370560624998,74.0,107.0
575,160.23413054791666,161.67955064999998,65.0,94.0
576,160.23413054791666,161.68131121041665,69.0,108.0
577,160.23413054791666,161.75173362708333,50.0,100.0
578,162.34680304791664,162.90666126041666,65.0,102.0
579,162.34680304791664,162.91546406249998,70.0,90.0
580,162.34680304791664,162.94187246874998,62.0,93.0
581,162.34680304791664,163.29926623333333,58.0,87.0
582,162.34680304791664,163.63025159166665,46.0,86.0
583,163.19187204791666,163.71651905208333,62.0,107.0
584,163.19187204791666,163.76053306249997,70.0,113.0
585,163.61440654791664,163.8168709958333,58.0,100.0
586,163.19187204791666,163.90489901666666,65.0,116.0
587,164.03694104791666,164.51757404166665,72.0,104.0
588,164.03694104791666,164.57567253541666,64.0,98.0
589,164.03694104791666,164.57919365624997,67.0,114.0
590,164.45947554791667,164.98060143125,60.0,81.0
591,164.88201004791665,165.3556008,64.0,108.0
592,164.88201004791665,165.36264304166664,72.0,104.0
593,164.88201004791665,165.36792472291665,67.0,114.0
594,165.30454454791666,165.45947386458332,60.0,84.0
595,164.03694104791666,165.47531890833332,48.0,92.0
596,166.14961354791666,166.70419007916666,57.0,104.0
597,166.57214804791664,167.02109095416665,69.0,114.0
598,166.57214804791664,167.03693599791666,61.0,109.0
599,166.57214804791664,167.15489354583332,64.0,117.0
600,166.99468254791665,167.66017438541667,57.0,107.0
601,167.41721704791667,168.04221599583332,69.0,114.0
602,167.41721704791667,168.05101879791664,61.0,116.0
603,167.41721704791667,168.05101879791664,64.0,117.0
604,168.05101879791664,168.40137032083334,57.0,102.0
605,165.72707904791665,168.40665200208332,45.0,98.0
606,168.26228604791666,168.67953886666666,61.0,113.0
607,168.26228604791666,168.75876408541666,69.0,116.0
608,168.26228604791666,168.9401018083333,64.0,119.0
609,168.68482054791664,168.95594685208331,45.0,96.0
610,169.10735504791666,169.64080485416665,74.0,113.0
611,169.10735504791666,169.79045248958332,69.0,114.0
612,169.10735504791666,169.79221305,65.0,107.0
613,169.74115679791666,170.03340982708332,62.0,102.0
614,169.95242404791665,170.4260148,74.0,113.0
615,169.95242404791665,170.531648425,65.0,114.0
616,170.37495854791666,170.5510145895833,62.0,100.0
617,169.10735504791666,170.6091130833333,50.0,108.0
618,169.52988954791664,170.61263420416665,57.0,81.0
619,169.95242404791665,170.66721157708332,69.0,117.0
620,170.79749304791665,171.39784414999997,72.0,102.0
621,170.79749304791665,171.43305535833332,64.0,108.0
622,170.79749304791665,171.44890040208332,67.0,116.0
623,171.43129479791665,171.73235062916666,60.0,110.0
624,171.00876029791664,171.94361787916665,55.0,81.0
625,170.79749304791665,172.0615754270833,48.0,100.0
626,171.64256204791667,172.17425129375,64.0,114.0
627,171.64256204791667,172.29044828124998,72.0,107.0
628,171.64256204791667,172.39256078541666,67.0,117.0
629,172.06509654791665,172.43129311458333,60.0,104.0
630,172.48763104791664,173.0386864583333,72.0,107.0
631,172.48763104791664,173.15840456666666,69.0,117.0
632,172.48763104791664,173.16368624791664,65.0,102.0
633,173.12143279791667,173.5140377708333,60.0,89.0
634,173.33270004791666,173.81509360208332,72.0,96.0
635,173.33270004791666,173.88551601875,67.0,117.0
636,173.96650179791666,174.04044533541665,69.0,113.0
637,173.96650179791666,174.04220589583332,65.0,107.0
638,173.96650179791666,174.05629037916665,72.0,94.0
639,174.17776904791666,174.20945913541664,69.0,83.0
640,173.75523454791664,174.51579664791666,60.0,84.0
641,174.38903629791665,174.75875398541666,72.0,107.0
642,174.38903629791665,174.83445808333332,67.0,114.0
643,172.48763104791664,175.22530249583332,53.0,92.0
644,174.81157079791666,175.2464292208333,60.0,93.0
645,175.02283804791665,175.49114711874998,72.0,104.0
646,175.02283804791665,175.51403440416664,65.0,113.0
647,175.44537254791666,175.57213289791665,53.0,94.0
648,175.44537254791666,175.72530165416666,69.0,100.0
649,176.50170879791665,176.8098068708333,58.0,113.0
650,175.86790704791665,177.23938361249998,46.0,106.0
651,176.71297604791664,177.2534680958333,62.0,114.0
652,176.71297604791664,177.27283426041666,70.0,116.0
653,177.13551054791665,177.40487629166665,58.0,113.0
654,176.71297604791664,177.44712974166666,65.0,120.0
655,177.55804504791666,178.14607222708332,72.0,110.0
656,177.55804504791666,178.18304399583332,64.0,107.0
657,177.55804504791666,178.1900862375,67.0,116.0
658,178.19184679791664,178.44888861874998,60.0,110.0
659,177.55804504791666,178.77635285624999,48.0,98.0
660,177.98057954791665,178.86790199791665,55.0,83.0
661,178.40311404791666,178.89959208541666,72.0,113.0
662,178.40311404791666,178.97881730416665,64.0,116.0
663,178.61438129791665,179.0351552375,60.0,100.0
664,178.82564854791664,179.12670437916665,67.0,102.0
665,179.24818304791665,179.83973134791665,74.0,91.0
666,179.24818304791665,179.85205527083332,65.0,96.0
667,179.24818304791665,179.88198479791666,69.0,104.0
668,179.88198479791666,180.21120959583334,62.0,82.0
669,180.09325204791665,180.72705379791665,74.0,89.0
670,180.09325204791665,180.756983325,65.0,102.0
671,180.09325204791665,180.79395509375,69.0,113.0
672,180.72705379791665,181.15134885833334,62.0,87.0
673,180.93832104791665,181.5421932708333,69.0,108.0
674,180.93832104791665,181.5492355125,74.0,104.0
675,180.93832104791665,181.55275663333333,65.0,100.0
676,181.57212279791665,181.94536160625,62.0,96.0
677,179.24818304791665,181.94888272708332,50.0,89.0
678,182.20592454791665,182.34676938125,48.0,98.0
679,181.78339004791667,182.36613554583332,65.0,108.0
680,181.78339004791667,182.46824805,74.0,107.0
681,181.78339004791667,182.53867046666664,69.0,117.0
682,182.62845904791664,183.23937351249998,74.0,100.0
683,182.62845904791664,183.3027536875,70.0,116.0
684,182.62845904791664,183.31155648958332,65.0,100.0
685,183.26226079791667,183.60733063958332,58.0,109.0
686,183.47352804791666,183.95063992083334,65.0,113.0
687,182.62845904791664,184.00345673333334,46.0,97.0
688,183.47352804791666,184.09676643541667,74.0,104.0
689,183.89606254791664,184.1513438083333,58.0,106.0
690,183.47352804791666,184.23585070833332,70.0,119.0
691,184.31859704791665,184.9066242270833,72.0,102.0
692,184.31859704791665,184.94535655624998,64.0,110.0
693,184.31859704791665,184.96648328125,67.0,117.0
694,184.95239879791666,185.2675391125,60.0,102.0
695,184.31859704791665,185.59500334999998,48.0,93.0
696,184.74113154791667,185.64253848124997,55.0,82.0
697,185.16366604791665,185.68831305208332,64.0,114.0
698,185.16366604791665,185.73936930416664,72.0,107.0
699,185.16366604791665,185.89429862083333,67.0,117.0
700,185.58620054791663,185.9101436645833,60.0,93.0
701,186.00873504791667,186.66542408333333,72.0,98.0
702,186.00873504791667,186.71119865416665,65.0,94.0
703,186.00873504791667,186.73584649999998,69.0,108.0
704,186.85380404791664,186.99112776041665,69.0,107.0
705,186.85380404791664,187.00169112291667,72.0,90.0
706,186.85380404791664,187.01577560624997,65.0,92.0
707,186.00873504791667,187.06859241874997,53.0,96.0
708,187.27633854791665,188.41894225833332,65.0,110.0
709,187.27633854791665,188.43478730208332,74.0,107.0
710,187.27633854791665,188.4365478625,71.0,117.0
711,187.27633854791665,188.7640121,59.0,100.0
712,188.54394204791666,188.97880047083333,71.0,117.0
713,188.54394204791666,189.01929336041667,74.0,107.0
714,188.54394204791666,189.05274400833332,65.0,108.0
715,188.96647654791667,189.06858905208333,59.0,91.0
716,189.38901104791665,189.91365805208332,62.0,108.0
717,189.38901104791665,189.92070029374997,70.0,109.0
718,189.38901104791665,189.95415094166665,65.0,116.0
719,189.81154554791664,190.30098134374998,58.0,83.0
720,189.38901104791665,190.66541734999998,46.0,106.0
721,190.23408004791665,190.81506498541665,70.0,106.0
722,190.23408004791665,190.82210722708334,62.0,107.0
723,190.65661454791666,190.94534645624998,58.0,103.0
724,190.23408004791665,190.9541492583333,65.0,116.0
725,191.07914904791664,191.69710575416667,72.0,108.0
726,191.92421804791667,192.19710491249998,72.0,36.0
727,191.07914904791664,192.24640060416664,64.0,107.0
728,191.07914904791664,192.26752732916665,67.0,114.0
729,191.07914904791664,192.32914694375,48.0,94.0
730,192.76928704791663,193.28161012916667,72.0,98.0
731,192.76928704791663,193.34851142499997,69.0,110.0
732,192.76928704791663,193.36787758958332,65.0,100.0
733,193.19182154791665,193.83618666041667,60.0,79.0
734,193.61435604791666,194.14604529374998,72.0,93.0
735,193.61435604791666,194.26928452291665,69.0,110.0
736,193.61435604791666,194.28336900624998,65.0,104.0
737,194.03689054791664,194.6037910020833,60.0,72.0
738,194.45942504791665,194.94533972291666,72.0,98.0
739,194.45942504791665,195.04393110625,65.0,102.0
740,194.45942504791665,195.04745222708334,69.0,108.0
741,195.30449404791665,195.8625917,72.0,94.0
742,195.30449404791665,195.90484514999997,69.0,104.0
743,195.30449404791665,195.9083662708333,65.0,104.0
744,194.88195954791667,195.93125355625,60.0,77.0
745,192.76928704791663,195.95942252291667,53.0,91.0
746,196.14956304791667,196.41716823125,69.0,91.0
747,196.14956304791667,196.41892879166664,50.0,98.0
748,196.14956304791667,196.4470977583333,62.0,89.0
749,196.14956304791667,196.45061887916665,65.0,94.0
750,196.57209754791666,196.83794217083332,69.0,86.0
751,196.57209754791666,196.85906889583333,62.0,86.0
752,196.57209754791666,196.86611113749998,50.0,94.0
753,196.57209754791666,196.86787169791666,65.0,85.0
754,196.99463204791664,197.27984283541667,69.0,86.0
755,196.99463204791664,197.29040619791664,50.0,94.0
756,196.99463204791664,197.30449068125,62.0,86.0
757,196.99463204791664,197.320335725,65.0,88.0
758,197.41716654791665,197.6830111708333,69.0,87.0
759,197.41716654791665,197.69181397291663,50.0,90.0
760,197.41716654791665,197.7199829395833,62.0,87.0
761,197.41716654791665,197.73406742291667,65.0,89.0
762,197.83970104791666,198.08617950625,50.0,91.0
763,197.83970104791666,198.12491183541664,69.0,87.0
764,197.83970104791666,198.13195407708332,62.0,86.0
765,197.83970104791666,198.1530808020833,65.0,87.0
766,198.26223554791665,198.50519288541665,50.0,88.0
767,198.26223554791665,198.51399568749997,62.0,86.0
768,198.26223554791665,198.5351224125,65.0,88.0
769,198.26223554791665,198.54920689583332,69.0,88.0
770,198.68477004791666,198.90660066041664,50.0,89.0
771,198.68477004791666,198.90660066041664,62.0,82.0
772,198.68477004791666,198.93300906666667,69.0,86.0
773,198.68477004791666,198.94885411041665,65.0,88.0
774,199.10730454791667,199.24286769999998,62.0,85.0
775,199.10730454791667,199.2745577875,50.0,90.0
776,199.10730454791667,199.28512114999998,69.0,88.0
777,199.10730454791667,199.30800843541664,65.0,90.0
778,199.52983904791665,199.7904019895833,49.0,85.0
779,199.52983904791665,199.80800759375,61.0,91.0
780,199.52983904791665,199.83265543958333,69.0,89.0
781,199.52983904791665,199.83969768125,64.0,104.0
782,199.95237354791664,200.18652808333331,49.0,86.0
783,199.95237354791664,200.20941536875,61.0,89.0
784,199.95237354791664,200.26399274166664,69.0,90.0
785,199.95237354791664,200.2763166645833,64.0,91.0
786,200.37490804791665,200.60025978124997,49.0,91.0
787,200.37490804791665,200.64251323125,61.0,86.0
788,200.37490804791665,200.66187939583332,69.0,92.0
789,200.37490804791665,200.69004836249997,64.0,91.0
790,200.79744254791666,201.00870979791665,49.0,86.0
791,200.79744254791666,201.038639325,61.0,86.0
792,200.79744254791666,201.09321669791666,69.0,93.0
793,200.79744254791666,201.11962510416666,64.0,93.0
794,201.21997704791664,201.42420205624998,49.0,89.0
795,201.21997704791664,201.44532878125,61.0,86.0
796,201.21997704791664,201.49990615416664,69.0,91.0
797,201.21997704791664,201.53863848333333,64.0,92.0
798,201.64251154791665,201.85377879791665,49.0,88.0
799,201.64251154791665,201.87138440208332,61.0,86.0
800,201.64251154791665,201.90483504999997,69.0,91.0
801,201.64251154791665,201.95237018125,64.0,92.0
802,202.06504604791667,202.26751049583333,49.0,89.0
803,202.06504604791667,202.28335553958334,61.0,87.0
804,202.06504604791667,202.32560898958332,69.0,91.0
805,202.06504604791667,202.38194692291665,64.0,94.0
806,202.48758054791665,202.59673529375,49.0,91.0
807,202.48758054791665,202.70589003958332,69.0,93.0
808,202.48758054791665,202.7182139625,61.0,88.0
809,202.48758054791665,202.73405900625,64.0,98.0
810,202.91011504791663,203.1618751875,46.0,91.0
811,202.91011504791663,203.18476247291665,58.0,95.0
812,202.91011504791663,203.19532583541667,69.0,104.0
813,202.91011504791663,203.21117087916667,62.0,104.0
814,202.91011504791663,203.22701592291665,65.0,113.0
815,203.33264954791667,203.57560688541665,46.0,90.0
816,203.33264954791667,203.60377585208332,58.0,90.0
817,203.33264954791667,203.60377585208332,69.0,104.0
818,203.33264954791667,203.61609977499998,62.0,98.0
819,203.33264954791667,203.61962089583332,65.0,110.0
820,203.75518404791666,203.9787752208333,46.0,95.0
821,203.75518404791666,203.99814138541666,58.0,89.0
822,203.75518404791666,204.01222586874997,69.0,96.0
823,203.75518404791666,204.02807091249997,65.0,107.0
824,203.75518404791666,204.02983147291667,62.0,91.0
825,204.17771854791664,204.41539420416666,46.0,95.0
826,204.17771854791664,204.44356317083333,69.0,102.0
827,204.17771854791664,204.44532373124997,58.0,93.0
828,204.17771854791664,204.45236597291665,62.0,94.0
829,204.17771854791664,204.45940821458333,65.0,108.0
830,204.60025304791665,204.84321038541665,46.0,93.0
831,204.60025304791665,204.8660976708333,69.0,102.0
832,204.60025304791665,204.86785823124998,58.0,87.0
833,204.60025304791665,204.86961879166665,62.0,98.0
834,204.60025304791665,204.8731399125,65.0,108.0
835,205.02278754791666,205.25870264374998,46.0,89.0
836,205.02278754791666,205.27278712708332,58.0,93.0
837,205.02278754791666,205.27982936874997,69.0,98.0
838,205.02278754791666,205.29391385208334,62.0,98.0
839,205.02278754791666,205.29391385208334,65.0,108.0
840,205.44532204791665,205.65834985833334,46.0,97.0
841,205.44532204791665,205.67419490208331,58.0,95.0
842,205.44532204791665,205.67771602291666,69.0,100.0
843,205.44532204791665,205.70588498958332,62.0,98.0
844,205.44532204791665,205.70764555,65.0,110.0
845,205.86785654791666,206.0879266,46.0,90.0
846,205.86785654791666,206.09320828124999,58.0,103.0
847,205.86785654791666,206.10025052291667,69.0,96.0
848,205.86785654791666,206.12489836875,62.0,98.0
849,205.86785654791666,206.13370117083332,65.0,108.0
850,206.29039104791667,206.51222166041666,69.0,88.0
851,206.29039104791667,206.53686950624999,53.0,91.0
852,206.29039104791667,206.54743286874998,60.0,90.0
853,206.29039104791667,206.56503847291665,41.0,84.0
854,206.29039104791667,206.56855959374997,65.0,100.0
855,206.71292554791665,206.97524905,41.0,88.0
856,206.71292554791665,206.97700961041664,69.0,87.0
857,206.71292554791665,206.98581241249997,53.0,88.0
858,206.71292554791665,207.00341801666667,60.0,88.0
859,206.71292554791665,207.03862922499997,65.0,91.0
860,207.13546004791664,207.36081178125,69.0,87.0
861,207.13546004791664,207.36961458333332,41.0,88.0
862,207.13546004791664,207.37313570416666,53.0,91.0
863,207.13546004791664,207.38369906666665,60.0,89.0
864,207.13546004791664,207.39250186875,65.0,93.0
865,207.55799454791665,207.79390964375,41.0,87.0
866,207.55799454791665,207.79743076458334,69.0,84.0
867,207.55799454791665,207.8079941270833,53.0,87.0
868,207.55799454791665,207.83264197291663,65.0,86.0
869,207.55799454791665,207.85024757708334,60.0,84.0
870,207.98052904791666,208.2252469458333,69.0,87.0
871,207.98052904791666,208.25165535208333,60.0,86.0
872,207.98052904791666,208.26573983541664,65.0,90.0
873,207.98052904791666,208.40306354791664,41.0,88.0
874,207.98052904791666,208.41362691041667,53.0,87.0
875,208.40306354791664,208.58616183124997,69.0,81.0
876,208.40306354791664,208.6266547208333,60.0,81.0
877,208.40306354791664,208.63897864374997,65.0,86.0
878,208.61433079791664,208.91010494791664,53.0,96.0
879,208.61433079791664,208.92418943125,41.0,98.0
880,209.24813254791667,209.35024505208332,41.0,91.0
881,208.82559804791666,209.36080841458332,60.0,110.0
882,208.82559804791666,209.39954074374998,69.0,113.0
883,209.24813254791667,209.404822425,53.0,102.0
884,208.82559804791666,209.43475195208333,65.0,117.0
885,209.67066704791665,209.92242718749998,69.0,98.0
886,209.67066704791665,209.93475111041664,61.0,93.0
887,209.67066704791665,209.95587783541666,64.0,102.0
888,210.09320154791664,210.37489121458333,69.0,84.0
889,210.09320154791664,210.39073625833333,61.0,84.0
890,210.09320154791664,210.39601793958332,64.0,88.0
891,210.51573604791665,210.78334123125,64.0,102.0
892,210.51573604791665,210.78686235208332,61.0,89.0
893,210.51573604791665,210.7886229125,69.0,104.0
894,210.93827054791666,211.24460806041665,64.0,90.0
895,210.93827054791666,211.24460806041665,69.0,89.0
896,210.93827054791666,211.25869254375,61.0,85.0
897,211.36080504791664,211.64249471458334,69.0,98.0
898,211.36080504791664,211.64425527499998,64.0,98.0
899,211.36080504791664,211.64953695625,61.0,87.0
900,209.67066704791665,211.8238324375,57.0,88.0
901,211.78333954791665,212.02101520416664,64.0,89.0
902,211.78333954791665,212.02277576458332,69.0,88.0
903,211.78333954791665,212.03509968749998,61.0,83.0
904,211.99460679791665,212.29038094791667,57.0,94.0
905,209.67066704791665,212.66890143749998,45.0,87.0
906,212.20587404791667,212.69883096458332,61.0,97.0
907,212.20587404791667,212.73932385416666,69.0,113.0
908,212.20587404791667,212.74108441458333,64.0,116.0
909,212.62840854791665,212.76749282083333,57.0,92.0
910,213.05094304791663,213.33439327499997,62.0,107.0
911,213.05094304791663,213.34143551666665,70.0,103.0
912,213.05094304791663,213.34847775833333,65.0,114.0
913,213.05094304791663,213.5016465145833,46.0,89.0
914,213.05094304791663,213.52629436041667,58.0,93.0
915,213.47347754791667,213.69706872083333,62.0,83.0
916,213.47347754791667,213.69882928124997,70.0,85.0
917,213.47347754791667,213.71467432499998,65.0,89.0
918,213.89601204791666,214.16009611041665,70.0,116.0
919,213.89601204791666,214.17594115416665,65.0,117.0
920,213.89601204791666,214.17770171458332,62.0,108.0
921,214.31854654791664,214.61960237916665,62.0,100.0
922,214.31854654791664,214.6231235,70.0,103.0
923,214.31854654791664,214.6266446208333,65.0,110.0
924,213.68474479791666,214.82734850833333,58.0,97.0
925,214.74108104791665,215.0139679125,62.0,94.0
926,214.74108104791665,215.01748903333333,70.0,103.0
927,214.74108104791665,215.02101015416665,65.0,110.0
928,215.16361554791666,215.39953064374998,65.0,107.0
929,215.16361554791666,215.40305176458332,62.0,96.0
930,215.16361554791666,215.40305176458332,70.0,95.0
931,215.37488279791665,215.65481190416665,58.0,91.0
932,213.68474479791666,216.08438864583331,46.0,88.0
933,215.58615004791665,216.10903649166664,70.0,113.0
934,215.58615004791665,216.1107970520833,62.0,110.0
935,215.58615004791665,216.17065610625,65.0,116.0
936,216.00868454791666,216.21467011666664,58.0,90.0
937,216.43121904791667,216.65304966041666,70.0,113.0
938,216.43121904791667,216.68121862708333,62.0,108.0
939,216.43121904791667,216.69002142916665,67.0,116.0
940,216.85375354791665,217.10727424791665,70.0,86.0
941,216.85375354791665,217.13368265416665,62.0,89.0
942,216.85375354791665,217.15304881875,67.0,102.0
943,217.27628804791664,217.54213267083333,70.0,100.0
944,217.27628804791664,217.55445659375,62.0,104.0
945,217.27628804791664,217.57734387916665,67.0,113.0
946,216.43121904791667,217.78332944791666,43.0,100.0
947,217.69882254791665,217.92065316041663,62.0,100.0
948,217.69882254791665,217.95586436874999,70.0,103.0
949,217.69882254791665,217.97699109374997,67.0,114.0
950,218.12135704791666,218.45586352708332,68.0,119.0
951,218.12135704791666,218.45938464791664,62.0,107.0
952,218.54389154791664,218.83086289583332,62.0,102.0
953,218.54389154791664,218.83966569791664,68.0,109.0
954,218.96642604791666,219.24107347291664,62.0,110.0
955,218.96642604791666,219.249876275,68.0,119.0
956,218.96642604791666,219.40832671249998,56.0,103.0
957,218.12135704791666,219.45586184374997,44.0,109.0
958,219.38896054791667,219.55445322708331,68.0,116.0
959,219.38896054791667,219.587903875,62.0,108.0
960,219.81149504791665,220.55445154375,64.0,119.0
961,219.81149504791665,220.57557826875,69.0,119.0
962,219.81149504791665,220.59494443333332,61.0,113.0
963,220.65656404791665,220.94705651666663,69.0,110.0
964,220.65656404791665,220.96466212083334,64.0,113.0
965,220.65656404791665,220.96818324166665,61.0,97.0
966,221.07909854791666,221.35022485208333,69.0,102.0
967,221.07909854791666,221.36606989583333,64.0,104.0
968,221.07909854791666,221.37839381875,61.0,90.0
969,221.29036579791665,221.70585805624998,57.0,77.0
970,221.50163304791664,222.14071647916666,69.0,117.0
971,221.50163304791664,222.14247703958333,61.0,109.0
972,221.50163304791664,222.14599816041664,64.0,119.0
973,222.13543479791667,222.46818071666667,57.0,96.0
974,222.34670204791666,222.83965896458332,69.0,116.0
975,222.34670204791666,222.84846176666667,61.0,113.0
976,222.34670204791666,222.8731096125,64.0,117.0
977,219.81149504791665,223.02275724791667,45.0,98.0
978,222.76923654791665,223.04036285208332,57.0,86.0
979,220.23402954791663,223.05268677499998,52.0,81.0
980,223.19177104791663,223.78684046874997,64.0,117.0
981,223.19177104791663,223.79564327083332,61.0,106.0
982,223.19177104791663,223.82557279791666,69.0,116.0
983,223.19177104791663,224.17944544166664,57.0,104.0
984,224.03684004791666,224.5245152833333,61.0,103.0
985,224.03684004791666,224.53155752499998,69.0,116.0
986,224.03684004791666,224.53331808541665,64.0,117.0
987,223.19177104791663,224.7146558083333,45.0,94.0
988,224.45937454791664,224.7639515,57.0,86.0
989,224.88190904791665,225.86254119999998,64.0,117.0
990,224.88190904791665,225.86606232083332,61.0,109.0
991,224.88190904791665,225.87310456249998,69.0,119.0
992,224.88190904791665,225.95937202291665,45.0,94.0
993,224.88190904791665,225.99282267083333,57.0,108.0
994,226.57204704791667,227.151271425,69.0,84.0
995,226.57204704791667,227.23753888541665,65.0,87.0
996,226.57204704791667,227.25162336875,62.0,84.0
997,227.41711604791664,227.97873482083332,69.0,88.0
998,227.41711604791664,228.00866434791664,62.0,87.0
999,227.41711604791664,228.13718525833332,65.0,87.0
1000,226.57204704791667,228.14598806041664,50.0,86.0
1001,228.26218504791666,228.80091653541666,72.0,88.0
1002,228.26218504791666,228.8607755895833,64.0,85.0
1003,228.26218504791666,228.86957839166666,67.0,86.0
1004,229.10725404791665,229.51922518541664,72.0,87.0
1005,229.10725404791665,229.52978854791667,64.0,87.0
1006,229.10725404791665,229.56147863541665,67.0,88.0
1007,228.26218504791666,229.73753467708332,48.0,85.0
1008,229.95232304791665,230.49633621666663,69.0,88.0
1009,229.95232304791665,230.57204031458332,60.0,87.0
1010,229.95232304791665,230.61253320416665,65.0,88.0
1011,230.79739204791667,231.39246146874999,69.0,86.0
1012,230.79739204791667,231.43999659999997,60.0,86.0
1013,230.79739204791667,231.4804894895833,65.0,88.0
1014,231.64246104791664,232.21816430416663,60.0,88.0
1015,231.64246104791664,232.21816430416663,69.0,88.0
1016,231.64246104791664,232.25513607291666,65.0,96.0
1017,231.64246104791664,232.25865719374997,63.0,100.0
1018,229.95232304791665,232.81147316458333,53.0,86.0
1019,232.48753004791666,232.95759967916666,60.0,94.0
1020,232.48753004791666,232.98048696458332,69.0,98.0
1021,232.48753004791666,233.07379666666665,65.0,108.0
1022,233.33259904791666,233.90830230416665,65.0,94.0
1023,233.33259904791666,233.94879519375,62.0,87.0
1024,233.33259904791666,233.95055575416666,70.0,90.0
1025,233.33259904791666,234.3026678375,46.0,85.0
1026,233.33259904791666,234.32555512291665,58.0,87.0
1027,234.17766804791665,234.67590664583332,70.0,97.0
1028,234.60020254791664,234.68647000833332,46.0,89.0
1029,234.17766804791665,234.70231505208332,62.0,92.0
1030,234.60020254791664,234.75865298541663,58.0,95.0
1031,234.17766804791665,234.93118790625,65.0,110.0
1032,235.02273704791665,235.36780688958333,48.0,91.0
1033,235.02273704791665,235.59491918333333,60.0,108.0
1034,235.02273704791665,235.62836983124998,67.0,110.0
1035,235.02273704791665,235.65125711666667,64.0,114.0
1036,235.44527154791666,235.84667932291666,48.0,107.0
1037,235.65653879791665,236.25865046041665,60.0,108.0
1038,235.86780604791664,236.37660800833333,67.0,116.0
1039,236.07907329791664,236.39597417291665,48.0,107.0
1040,235.86780604791664,236.5139317208333,64.0,119.0
1041,236.71287504791667,237.30970502916665,69.0,108.0
1042,236.71287504791667,237.37836688541665,65.0,114.0
1043,236.71287504791667,237.39421192916666,62.0,107.0
1044,237.34667679791664,237.7463240125,57.0,87.0
1045,237.55794404791664,238.03505592083332,69.0,110.0
1046,237.55794404791664,238.08435161249997,65.0,116.0
1047,237.55794404791664,238.0878727333333,62.0,110.0
1048,238.19174579791667,238.2621682145833,69.0,92.0
1049,238.19174579791667,238.26392877499998,65.0,100.0
1050,238.19174579791667,238.26568933541665,62.0,93.0
1051,237.98047854791665,238.63540702291664,57.0,84.0
1052,238.61428029791665,239.0139275125,69.0,104.0
1053,238.61428029791665,239.05970208333332,62.0,102.0
1054,238.61428029791665,239.0649837645833,65.0,113.0
1055,236.71287504791667,239.43470145208332,50.0,102.0
1056,239.03681479791663,239.47695490208332,57.0,94.0
1057,239.24808204791665,239.7780107333333,69.0,113.0
1058,239.67061654791667,239.79561633749998,48.0,96.0
1059,239.24808204791665,239.94526397291665,62.0,110.0
1060,239.24808204791665,239.95934845624998,65.0,117.0
1061,240.09315104791665,240.78329073125,70.0,103.0
1062,240.09315104791665,240.7868118520833,62.0,107.0
1063,240.09315104791665,240.79033297291664,65.0,114.0
1064,240.72695279791665,241.09490992499997,58.0,109.0
1065,240.09315104791665,241.45054312916665,46.0,93.0
1066,240.93822004791667,241.5315289083333,62.0,110.0
1067,241.36075454791666,241.6054724458333,58.0,109.0
1068,240.93822004791667,241.63892309374998,70.0,113.0
1069,240.93822004791667,241.68117654374998,65.0,117.0
1070,241.78328904791664,242.42413303958332,72.0,107.0
1071,241.78328904791664,242.43469640208332,64.0,110.0
1072,241.78328904791664,242.44173864375,67.0,114.0
1073,242.41709079791667,242.7533578375,60.0,104.0
1074,241.78328904791664,243.11955440416665,48.0,102.0
1075,242.62835804791666,243.25687811666666,72.0,107.0
1076,242.62835804791666,243.2639203583333,64.0,110.0
1077,242.62835804791666,243.3237794125,67.0,114.0
1078,243.05089254791665,243.32553997291666,60.0,98.0
1079,243.47342704791666,244.06145422708332,65.0,108.0
1080,243.47342704791666,244.06497534791666,72.0,104.0
1081,243.47342704791666,244.11779216041666,69.0,117.0
1082,243.47342704791666,244.18117233541665,53.0,93.0
1083,244.74103054791667,246.15300000208333,59.0,96.0
1084,244.74103054791667,246.1952534520833,71.0,104.0
1085,244.74103054791667,246.21461961666665,62.0,104.0
1086,244.74103054791667,246.2375069020833,65.0,110.0
1087,246.43116854791666,246.65299916041664,71.0,91.0
1088,246.43116854791666,246.72870325833333,62.0,91.0
1089,246.43116854791666,246.74806942291664,65.0,102.0
1090,246.85370304791664,247.30264595416665,58.0,89.0
1091,246.85370304791664,247.559687775,62.0,96.0
1092,246.85370304791664,247.559687775,70.0,93.0
1093,246.85370304791664,247.58257506041664,65.0,107.0
1094,247.48750479791664,247.86778584791665,58.0,97.0
1095,246.85370304791664,247.87130696875,46.0,86.0
1096,248.12130654791665,248.22165849166666,46.0,93.0
1097,248.12130654791665,248.30968651249998,58.0,93.0
1098,247.69877204791666,248.32201043541664,70.0,109.0
1099,247.69877204791666,248.33257379791667,62.0,102.0
1100,247.69877204791666,248.44877078541666,65.0,114.0
1101,248.54384104791666,249.84665575625,64.0,107.0
1102,248.54384104791666,249.85369799791664,72.0,104.0
1103,248.54384104791666,249.89419088749997,67.0,113.0
1104,248.54384104791666,249.93820489791665,48.0,93.0
1105,250.23397904791665,250.76390773333333,69.0,91.0
1106,250.23397904791665,250.82024566666666,62.0,91.0
1107,250.23397904791665,250.83609071041664,65.0,102.0
1108,250.86778079791665,251.21637176041665,57.0,85.0
1109,251.07904804791664,251.73749764374998,69.0,108.0
1110,251.07904804791664,251.785032775,62.0,108.0
1111,251.07904804791664,251.79031445624997,65.0,113.0
1112,251.50158254791666,252.26038408749997,57.0,85.0
1113,251.92411704791664,252.54559487499998,69.0,94.0
1114,251.92411704791664,252.5702427208333,62.0,100.0
1115,251.92411704791664,252.58256664375,65.0,107.0
1116,252.55791879791664,252.93115760625,57.0,86.0
1117,250.23397904791665,253.25157960208332,50.0,96.0
1118,253.19172054791665,253.29735417291664,57.0,88.0
1119,252.76918604791666,253.31495977708332,69.0,108.0
1120,252.76918604791666,253.39770611666665,62.0,108.0
1121,252.76918604791666,253.45580461041666,65.0,116.0
1122,253.61425504791666,254.23749343541664,70.0,100.0
1123,253.61425504791666,254.24805679791666,62.0,98.0
1124,253.61425504791666,254.2550990395833,65.0,110.0
1125,254.03678954791664,254.49453525624997,58.0,84.0
1126,253.61425504791666,254.95932320625,46.0,93.0
1127,254.45932404791665,255.05439346875,62.0,107.0
1128,254.45932404791665,255.07728075416665,70.0,113.0
1129,254.88185854791666,255.10897084166666,58.0,100.0
1130,254.45932404791665,255.16354821458333,65.0,116.0
1131,255.30439304791665,255.89946246875,72.0,108.0
1132,255.30439304791665,255.95051872083332,64.0,104.0
1133,255.30439304791665,255.95580040208333,67.0,114.0
1134,255.72692754791666,256.0702368291667,60.0,91.0
1135,256.14946204791664,256.6758696125,64.0,108.0
1136,256.14946204791664,256.6934752166667,72.0,107.0
1137,256.5719965479167,256.78678491874996,60.0,87.0
1138,256.14946204791664,256.78678491874996,67.0,114.0
1139,255.30439304791665,256.81847500624997,48.0,83.0
1140,256.99453104791667,257.55967094166664,60.0,107.0
1141,256.99453104791667,257.66354400625,69.0,110.0
1142,256.99453104791667,257.72692418124996,65.0,116.0
1143,256.99453104791667,257.75861426874997,53.0,94.0
1144,257.83960004791663,257.9082619041667,60.0,98.0
1145,257.83960004791663,257.91706470625,65.0,113.0
1146,257.83960004791663,257.9364308708333,69.0,100.0
1147,257.83960004791663,257.95755759583335,53.0,100.0
1148,258.2621345479166,259.6688223208333,71.0,108.0
1149,258.2621345479166,259.72516025416667,65.0,114.0
1150,258.2621345479166,259.73044193541665,62.0,108.0
1151,259.95227254791666,260.12656802916666,71.0,107.0
1152,259.95227254791666,260.16353979791666,62.0,110.0
1153,259.95227254791666,260.1741031604166,65.0,116.0
1154,260.37480704791665,260.60191934166664,70.0,103.0
1155,260.37480704791665,260.6142432645833,62.0,96.0
1156,260.37480704791665,260.6142432645833,65.0,110.0
1157,260.79734154791663,261.05086224791665,70.0,103.0
1158,260.79734154791663,261.0702284125,65.0,110.0
1159,260.79734154791663,261.07198897291664,62.0,98.0
1160,261.2198760479166,261.4927629125,70.0,103.0
1161,261.2198760479166,261.50332627499995,65.0,110.0
1162,261.2198760479166,261.50508683541665,62.0,96.0
1163,261.64241054791665,261.90649461041664,70.0,97.0
1164,261.64241054791665,261.91529741249997,62.0,94.0
1165,261.64241054791665,261.91705797291667,65.0,108.0
1166,262.0649450479167,262.31142350625,70.0,97.0
1167,262.0649450479167,262.32550798958334,62.0,94.0
1168,262.0649450479167,262.32550798958334,65.0,108.0
1169,260.37480704791665,262.53677523958333,58.0,87.0
1170,262.4874795479167,262.7269157645833,70.0,88.0
1171,262.4874795479167,262.7304368854167,65.0,98.0
1172,262.4874795479167,262.7321974458333,62.0,90.0
1173,262.69874679791667,262.9716336625,58.0,89.0
1174,262.91001404791666,263.1652953083333,65.0,114.0
1175,262.91001404791666,263.16881642916667,70.0,113.0
1176,262.91001404791666,263.1705769895833,62.0,107.0
1177,263.33254854791664,263.6406466208333,70.0,97.0
1178,263.33254854791664,263.6476888625,62.0,98.0
1179,263.33254854791664,263.65120998333333,65.0,110.0
1180,260.37480704791665,263.67937895,46.0,87.0
1181,263.7550830479166,266.3413463,64.0,100.0
1182,263.7550830479166,266.35367022291666,60.0,87.0
1183,263.7550830479166,266.36775470625,72.0,98.0
1184,263.7550830479166,266.3712758270833,67.0,113.0
1185,263.7550830479166,266.41176871666664,48.0,88.0
1186,267.13535904791667,268.49627224999995,46.0,83.0
1187,267.55789354791665,268.52092009583333,53.0,70.0
1188,267.9804280479167,268.5244412166667,58.0,67.0
1189,268.82549704791666,270.2057764145833,48.0,84.0
1190,269.6705660479166,270.25683266666664,60.0,73.0
1191,269.24803154791664,270.27091714999995,55.0,65.0
1192,271.36070404791667,273.3254894729166,62.0,80.0
1193,270.9381695479167,273.43640477916665,57.0,77.0
1194,270.51563504791665,273.49802439375,50.0,86.0
1195,271.78323854791665,273.5702073708333,65.0,81.0
1196,273.8959110479167,275.3184438645833,46.0,84.0
1197,274.74098004791665,275.34661283125,58.0,81.0
1198,274.31844554791667,275.35541563333334,53.0,80.0
1199,275.5860490479166,276.94696224999996,48.0,86.0
1200,276.43111804791664,276.9821734583333,60.0,73.0
1201,276.00858354791666,277.0121029854166,55.0,76.0
1202,278.3325232979166,278.531466625,60.0,88.0
1203,277.27618704791666,278.75505779791666,50.0,84.0
1204,278.5437905479166,278.81315629166664,64.0,87.0
1205,278.75505779791666,279.01033905833333,65.0,86.0
1206,278.96632504791665,279.67054921458333,67.0,88.0
1207,278.96632504791665,279.7585772354166,43.0,81.0
1208,283.93110542291663,284.0367390479166,57.0,90.0
1209,283.82547179791663,285.85363739791666,60.0,79.0
1210,284.0367390479166,285.9346231770833,53.0,91.0
1211,284.0367390479166,286.30962254583335,29.0,87.0
1212,284.0367390479166,286.3307492708333,41.0,84.0
