,start,end,pitch,velocity
0,8.207675208333333,9.0576734375,72.0,90.0
1,9.130750208333334,9.821133385416667,68.0,87.0
2,10.053825208333333,10.35574765625,60.0,92.0
3,10.515362708333333,10.686516197916667,58.0,86.0
4,10.746131458333334,11.103823020833334,60.0,87.0
5,11.207668958333333,11.77497546875,68.0,87.0
6,11.899975208333334,12.05189796875,68.0,85.0
7,12.130743958333333,12.232666822916666,67.0,88.0
8,12.361512708333333,12.511512395833334,68.0,82.0
9,12.592281458333334,12.715358125,67.0,88.0
10,12.823050208333333,13.155741822916667,68.0,87.0
11,13.284587708333333,13.746125208333334,70.0,87.0
12,13.746125208333334,14.886507447916667,60.0,83.0
13,15.592275208333334,16.47881182291667,72.0,87.0
14,16.515350208333334,17.0768875,68.0,78.0
15,17.207656458333332,17.357656145833335,60.0,83.0
16,17.438425208333335,17.834578229166667,60.0,87.0
17,17.899962708333334,18.04227010416667,58.0,87.0
18,18.130731458333333,18.646115,60.0,87.0
19,18.592268958333335,19.22880609375,68.0,86.0
20,19.284575208333333,20.996110104166668,67.0,83.0
21,22.976875208333333,23.649950729166665,72.0,84.0
22,23.899950208333333,24.526871979166668,68.0,84.0
23,24.823025208333334,25.10187078125,60.0,88.0
24,25.284562708333333,25.461485416666665,58.0,85.0
25,25.515331458333332,25.830715416666667,60.0,88.0
26,25.976868958333334,26.565329270833335,68.0,89.0
27,26.669175208333332,26.805713385416666,68.0,82.0
28,26.899943958333335,27.026866770833333,67.0,86.0
29,27.130712708333334,27.249943229166668,68.0,84.0
30,27.361481458333333,27.486481197916667,67.0,88.0
31,27.592250208333333,27.96340328125,68.0,84.0
32,28.053787708333335,28.4653253125,70.0,87.0
33,28.515325208333334,29.899937708333333,60.0,88.0
34,29.899937708333333,30.04032203125,58.0,87.0
35,30.130706458333332,30.280706145833335,60.0,82.0
36,30.361475208333335,30.96339703125,61.0,89.0
37,31.053781458333333,32.37108640625,68.0,85.0
38,33.13070020833333,33.592237708333336,70.0,87.0
39,33.592237708333336,34.092236666666665,68.0,87.0
40,34.053775208333334,35.813386927083336,67.0,86.0
41,37.515306458333335,37.65569078125,63.0,88.0
42,37.74607520833333,37.88645953125,65.0,93.0
43,37.97684395833333,38.086459114583334,63.0,88.0
44,38.207612708333336,38.34030473958333,65.0,90.0
45,38.43838145833333,39.971070572916666,73.0,93.0
46,40.28453145833333,40.43453114583333,73.0,83.0
47,40.515300208333336,40.67491526041667,73.0,87.0
48,40.74606895833333,40.92299166666667,75.0,90.0
49,40.976837708333335,41.165298854166664,73.0,89.0
50,41.20760645833333,41.34606770833334,72.0,86.0
51,41.43837520833333,41.73068229166667,72.0,95.0
52,41.89991270833333,42.04029703125,65.0,87.0
53,42.130681458333335,43.67683208333333,65.0,88.0
54,44.899906458333334,45.00759854166667,67.0,84.0
55,45.13067520833334,45.482597552083334,67.0,88.0
56,45.592212708333335,45.757596979166664,70.0,84.0
57,45.82298145833333,46.249903645833335,67.0,88.0
58,46.28451895833334,47.61143927083334,63.0,87.0
59,47.899900208333335,48.06336140625,63.0,86.0
60,48.13066895833333,48.27105328125,65.0,88.0
61,48.361437708333334,48.496052812500004,67.0,87.0
62,48.59220645833334,48.73643692708333,68.0,86.0
63,48.82297520833333,49.48258921875,67.0,87.0
64,49.515281458333334,50.70181744791667,65.0,89.0
65,52.05373770833334,52.39796776041667,72.0,102.0
66,52.515275208333335,52.869120625,77.0,90.0
67,52.976812708333334,53.28835052083333,79.0,91.0
68,53.43835020833333,53.72873421875,75.0,93.0
69,53.89988770833333,54.215271666666666,77.0,91.0
70,54.36142520833334,54.69411682291667,72.0,89.0
71,54.822962708333336,54.97873161458333,73.0,81.0
72,55.05373145833333,55.68834552083333,70.0,91.0
73,56.20757520833333,56.376805625,68.0,86.0
74,56.438343958333334,56.55757447916667,67.0,87.0
75,56.66911270833334,56.77872786458333,68.0,85.0
76,56.89988145833333,57.032573489583335,67.0,90.0
77,57.130650208333336,57.469111041666665,68.0,87.0
78,57.592187708333334,57.93257161458333,73.0,87.0
79,58.05372520833333,59.28641494791667,72.0,88.0
80,59.438337708333336,59.75949088541667,72.0,95.0
81,59.899875208333334,60.20179765625,79.0,91.0
82,60.36141270833333,60.655642864583335,80.0,88.0
83,60.82295020833333,61.10948807291667,75.0,95.0
84,61.28448770833334,61.5806409375,77.0,89.0
85,61.746025208333336,62.109485989583334,72.0,90.0
86,62.207562708333334,62.38256234375,75.0,88.0
87,62.43833145833334,63.07871473958333,70.0,90.0
88,63.59217520833333,63.74217489583334,68.0,82.0
89,63.82294395833333,63.94217447916667,67.0,86.0
90,64.05371270833334,64.176789375,68.0,85.0
91,64.28448145833333,64.41332734375,67.0,86.0
92,64.51525020833333,64.86524947916666,68.0,86.0
93,64.97678770833333,65.41717140625,72.0,90.0
94,65.43832520833334,66.63639963541667,67.0,84.0
95,66.82293770833333,67.09216791666667,65.0,90.0
96,67.28447520833333,67.62870526041667,65.0,93.0
97,67.74601270833334,67.94408921875,73.0,88.0
98,67.97678145833333,68.51139572916667,72.0,90.0
99,68.66908770833334,68.80947203125,65.0,90.0
100,68.89985645833333,69.02485619791666,63.0,88.0
101,69.13062520833333,69.44408609375,65.0,92.0
102,69.59216270833333,69.85754677083334,73.0,93.0
103,69.82293145833333,70.41716098958334,72.0,87.0
104,70.51523770833333,70.64408359375,65.0,88.0
105,70.74600645833334,70.87100619791667,63.0,88.0
106,70.97677520833334,71.29985145833334,65.0,90.0
107,71.43831270833333,71.63062000000001,67.0,89.0
108,71.66908145833334,72.3575415625,68.0,81.0
109,72.36138770833334,72.82869442708333,75.0,92.0
110,72.82292520833333,73.85946151041666,72.0,86.0
111,74.20753770833333,74.52869088541667,72.0,93.0
112,74.66907520833334,74.99792067708333,77.0,92.0
113,75.13061270833333,75.46330432291667,79.0,88.0
114,75.59215020833334,75.93830333333334,75.0,93.0
115,76.05368770833333,76.39791776041666,77.0,90.0
116,76.51522520833333,76.86330140625,72.0,88.0
117,76.97676270833334,77.15176234375,73.0,87.0
118,77.20753145833334,77.61329984375,70.0,87.0
119,77.66906895833334,78.14599104166666,72.0,87.0
120,78.13060645833333,79.2575271875,68.0,78.0
121,80.66906270833333,80.86137,65.0,86.0
122,80.89983145833334,81.08829260416667,63.0,87.0
123,81.13060020833333,81.69790671875,65.0,90.0
124,81.82290645833334,82.44598208333333,73.0,87.0
125,82.51521270833334,85.65559078125,72.0,86.0
126,89.43827520833334,90.2882734375,72.0,90.0
127,90.36135020833333,91.05173338541667,68.0,87.0
128,91.28442520833333,91.58634765625,60.0,92.0
129,91.74596270833334,91.91711619791667,58.0,86.0
130,91.97673145833333,92.33442302083333,60.0,87.0
131,92.43826895833334,93.00557546875,68.0,87.0
132,93.13057520833334,93.28249796875001,68.0,85.0
133,93.36134395833334,93.46326682291667,67.0,88.0
134,93.59211270833333,93.74211239583333,68.0,82.0
135,93.82288145833333,93.945958125,67.0,88.0
136,94.05365020833334,94.38634182291666,68.0,87.0
137,94.51518770833333,94.97672520833333,70.0,87.0
138,94.97672520833333,96.11710744791667,60.0,83.0
139,96.82287520833333,97.70941182291666,72.0,87.0
140,97.74595020833334,98.30748750000001,68.0,78.0
141,98.43825645833333,98.58825614583333,60.0,83.0
142,98.66902520833334,99.06517822916666,60.0,87.0
143,99.13056270833333,99.27287010416667,58.0,87.0
144,99.36133145833334,99.876715,60.0,87.0
145,99.82286895833333,100.45940609375,68.0,86.0
146,100.51517520833333,102.22671010416667,67.0,83.0
147,104.20747520833334,104.88055072916667,72.0,84.0
148,105.13055020833333,105.75747197916667,68.0,84.0
149,106.05362520833333,106.33247078125,60.0,88.0
150,106.51516270833334,106.69208541666667,58.0,85.0
151,106.74593145833333,107.06131541666667,60.0,88.0
152,107.20746895833334,107.79592927083334,68.0,89.0
153,107.89977520833334,108.03631338541666,68.0,82.0
154,108.13054395833333,108.25746677083333,67.0,86.0
155,108.36131270833333,108.48054322916667,68.0,84.0
156,108.59208145833334,108.71708119791667,67.0,88.0
157,108.82285020833334,109.19400328125,68.0,84.0
158,109.28438770833334,109.6959253125,70.0,87.0
159,109.74592520833333,111.13053770833334,60.0,88.0
160,111.13053770833334,111.27092203125,58.0,87.0
161,111.36130645833333,111.51130614583333,60.0,82.0
162,111.59207520833334,112.19399703125,61.0,89.0
163,112.28438145833333,113.60168640625,68.0,85.0
164,114.36130020833333,114.82283770833334,70.0,87.0
165,114.82283770833334,115.32283666666667,68.0,87.0
166,115.28437520833333,117.04398692708334,67.0,86.0
167,118.74590645833334,118.88629078125,63.0,88.0
168,118.97667520833333,119.11705953125,65.0,93.0
169,119.20744395833333,119.31705911458333,63.0,88.0
170,119.43821270833334,119.57090473958334,65.0,90.0
171,119.66898145833333,121.20167057291667,73.0,93.0
172,121.51513145833333,121.66513114583333,73.0,83.0
173,121.74590020833334,121.90551526041666,73.0,87.0
174,121.97666895833333,122.15359166666667,75.0,90.0
175,122.20743770833333,122.39589885416667,73.0,89.0
176,122.43820645833334,122.57666770833333,72.0,86.0
177,122.66897520833334,122.96128229166666,72.0,95.0
178,123.13051270833333,123.27089703125,65.0,87.0
179,123.36128145833334,124.90743208333333,65.0,88.0
180,126.13050645833333,126.23819854166666,67.0,84.0
181,126.36127520833334,126.71319755208333,67.0,88.0
182,126.82281270833333,126.98819697916667,70.0,84.0
183,127.05358145833334,127.48050364583334,67.0,88.0
184,127.51511895833333,128.84203927083334,63.0,87.0
185,129.13050020833333,129.29396140625,63.0,86.0
186,129.36126895833334,129.50165328125001,65.0,88.0
187,129.59203770833332,129.7266528125,67.0,87.0
188,129.82280645833333,129.96703692708334,68.0,86.0
189,130.05357520833334,130.71318921875,67.0,87.0
190,130.74588145833334,131.93241744791666,65.0,89.0
191,135.13048770833333,135.47471776041667,72.0,102.0
192,135.59202520833333,135.945870625,77.0,90.0
193,136.05356270833335,136.36510052083332,79.0,91.0
194,136.51510020833334,136.80548421875,75.0,93.0
195,136.97663770833333,137.29202166666667,77.0,91.0
196,137.43817520833335,137.77086682291667,72.0,89.0
197,137.89971270833334,138.05548161458333,73.0,81.0
198,138.13048145833332,138.76509552083334,70.0,91.0
199,139.28432520833334,139.453555625,68.0,86.0
200,139.51509395833332,139.63432447916668,67.0,87.0
201,139.74586270833333,139.85547786458332,68.0,85.0
202,139.97663145833334,140.10932348958335,67.0,90.0
203,140.20740020833333,140.54586104166665,68.0,87.0
204,140.66893770833335,141.00932161458334,73.0,87.0
205,141.13047520833334,142.36316494791666,72.0,88.0
206,142.51508770833334,142.83624088541666,72.0,95.0
207,142.97662520833333,143.27854765625,79.0,91.0
208,143.43816270833332,143.73239286458335,80.0,88.0
209,143.89970020833334,144.18623807291667,75.0,95.0
210,144.36123770833333,144.6573909375,77.0,89.0
211,144.82277520833333,145.18623598958334,72.0,90.0
212,145.28431270833335,145.45931234375,75.0,88.0
213,145.51508145833333,146.15546473958332,70.0,90.0
214,146.66892520833335,146.81892489583333,68.0,82.0
215,146.89969395833333,147.01892447916666,67.0,86.0
216,147.13046270833334,147.253539375,68.0,85.0
217,147.36123145833332,147.49007734375,67.0,86.0
218,147.59200020833333,147.94199947916667,68.0,86.0
219,148.05353770833332,148.49392140625,72.0,90.0
220,148.51507520833334,149.71314963541667,67.0,84.0
221,149.89968770833335,150.16891791666666,65.0,90.0
222,150.36122520833334,150.70545526041667,65.0,93.0
223,150.82276270833333,151.02083921875,73.0,88.0
224,151.05353145833334,151.58814572916665,72.0,90.0
225,151.74583770833334,151.88622203125,65.0,90.0
226,151.97660645833332,152.10160619791668,63.0,88.0
227,152.20737520833333,152.52083609375,65.0,92.0
228,152.66891270833332,152.93429677083333,73.0,93.0
229,152.89968145833333,153.49391098958333,72.0,87.0
230,153.59198770833333,153.72083359375,65.0,88.0
231,153.82275645833334,153.94775619791668,63.0,88.0
232,154.05352520833333,154.37660145833334,65.0,90.0
233,154.51506270833335,154.70737,67.0,89.0
234,154.74583145833333,155.4342915625,68.0,81.0
235,155.43813770833333,155.90544442708332,75.0,92.0
236,155.89967520833332,156.93621151041665,72.0,86.0
237,157.28428770833332,157.60544088541667,72.0,93.0
238,157.74582520833334,158.07467067708333,77.0,92.0
239,158.20736270833333,158.54005432291666,79.0,88.0
240,158.66890020833333,159.01505333333333,75.0,93.0
241,159.13043770833335,159.47466776041668,77.0,90.0
242,159.59197520833334,159.94005140625,72.0,88.0
243,160.05351270833333,160.22851234375,73.0,87.0
244,160.28428145833334,160.69004984375,70.0,87.0
245,160.74581895833333,161.22274104166667,72.0,87.0
246,161.20735645833332,162.3342771875,68.0,78.0
247,163.74581270833335,163.93812,65.0,86.0
248,163.97658145833333,164.16504260416667,63.0,87.0
249,164.20735020833334,164.77465671875,65.0,90.0
250,164.89965645833334,165.52273208333332,73.0,87.0
251,165.59196270833334,168.73234078125,72.0,86.0
252,168.82272520833334,171.36887375,67.0,90.0
253,171.59195020833334,172.43425614583333,72.0,90.0
254,172.51502520833333,175.29386557291667,65.0,91.0
255,179.43808770833334,179.78231776041667,72.0,102.0
256,179.89962520833333,180.253470625,77.0,90.0
257,180.36116270833332,180.67270052083333,79.0,91.0
258,180.82270020833334,181.11308421875,75.0,93.0
259,181.28423770833334,181.59962166666668,77.0,91.0
260,181.74577520833333,182.07846682291668,72.0,89.0
261,182.20731270833335,182.36308161458334,73.0,81.0
262,182.43808145833333,183.07269552083332,70.0,91.0
263,183.59192520833332,183.76115562500001,68.0,86.0
264,183.82269395833333,183.94192447916666,67.0,87.0
265,184.05346270833334,184.16307786458333,68.0,85.0
266,184.28423145833332,184.41692348958333,67.0,90.0
267,184.51500020833333,184.85346104166666,68.0,87.0
268,184.97653770833332,185.31692161458332,73.0,87.0
269,185.43807520833334,186.67076494791667,72.0,88.0
270,186.82268770833335,187.14384088541667,72.0,95.0
271,187.28422520833334,187.58614765625,79.0,91.0
272,187.74576270833333,188.03999286458333,80.0,88.0
273,188.20730020833332,188.49383807291667,75.0,95.0
274,188.66883770833334,188.9649909375,77.0,89.0
275,189.13037520833333,189.49383598958335,72.0,90.0
276,189.59191270833333,189.76691234375,75.0,88.0
277,189.82268145833334,190.46306473958333,70.0,90.0
278,190.97652520833333,191.12652489583334,68.0,82.0
279,191.20729395833334,191.32652447916666,67.0,86.0
280,191.43806270833335,191.561139375,68.0,85.0
281,191.66883145833333,191.79767734375,67.0,86.0
282,191.89960020833334,192.24959947916668,68.0,86.0
283,192.36113770833333,192.80152140625,72.0,90.0
284,192.82267520833332,194.02074963541668,67.0,84.0
285,194.20728770833333,194.47651791666667,65.0,90.0
286,194.66882520833335,195.01305526041668,65.0,93.0
287,195.13036270833334,195.32843921875,73.0,88.0
288,195.36113145833335,195.89574572916666,72.0,90.0
289,196.05343770833335,196.19382203125,65.0,90.0
290,196.28420645833333,196.40920619791666,63.0,88.0
291,196.51497520833334,196.82843609375,65.0,92.0
292,196.97651270833333,197.24189677083334,73.0,93.0
293,197.20728145833334,197.80151098958333,72.0,87.0
294,197.89958770833334,198.02843359375,65.0,88.0
295,198.13035645833332,198.25535619791665,63.0,88.0
296,198.36112520833333,198.68420145833335,65.0,90.0
297,198.82266270833333,199.01497,67.0,89.0
298,199.05343145833334,199.7418915625,68.0,81.0
299,199.74573770833334,200.21304442708333,75.0,92.0
300,200.20727520833333,201.24381151041666,72.0,86.0
301,201.59188770833333,201.91304088541668,72.0,93.0
302,202.05342520833332,202.38227067708334,77.0,92.0
303,202.51496270833334,202.84765432291667,79.0,88.0
304,202.97650020833333,203.32265333333334,75.0,93.0
305,203.43803770833333,203.78226776041666,77.0,90.0
306,203.89957520833335,204.24765140625001,72.0,88.0
307,204.36111270833334,204.53611234375,73.0,87.0
308,204.59188145833335,204.99764984375,70.0,87.0
309,205.05341895833334,205.53034104166667,72.0,87.0
310,205.51495645833333,206.6418771875,68.0,78.0
311,208.05341270833333,208.24572,65.0,86.0
312,208.28418145833334,208.47264260416668,63.0,87.0
313,208.51495020833335,209.08225671875,65.0,90.0
314,209.20725645833335,209.83033208333333,73.0,87.0
315,209.89956270833335,213.03994078125,72.0,86.0
316,218.66877520833333,219.45146588541667,72.0,87.0
317,219.59185020833334,220.24761807291668,68.0,87.0
318,220.51492520833332,220.85530911458332,60.0,90.0
319,220.97646270833334,221.14953927083334,58.0,82.0
320,221.20723145833333,221.58607682291668,60.0,85.0
321,221.66876895833335,222.27646000000001,68.0,84.0
322,222.46299807291666,222.68607453125,68.0,82.0
323,222.73415135416667,222.91876635416668,67.0,87.0
324,223.00530463541668,223.19376578125,68.0,79.0
325,223.24761182291667,223.45145755208333,67.0,77.0
326,223.58607265625,224.12068692708334,68.0,82.0
327,224.14184072916666,225.30914598958333,70.0,80.0
328,225.27837682291667,226.9495271875,72.0,77.0
