,start,end,pitch,velocity
0,25.616309197916664,25.756934141666665,69.0,90.0
1,25.824642447916666,25.923600741666665,69.0,90.0
2,26.032975697916665,26.171864531249998,69.0,91.0
3,26.241308947916664,26.371517229166667,67.0,90.0
4,26.449642197916667,26.8333226,69.0,92.0
5,26.866308697916665,27.184016904166665,72.0,90.0
6,27.282975197916667,28.772557935416664,72.0,91.0
7,28.949641197916666,29.059016154166667,74.0,97.0
8,29.157974447916665,29.253460520833332,74.0,97.0
9,29.366307697916664,29.51387708333333,74.0,101.0
10,29.574640947916667,29.663182579166666,72.0,92.0
11,29.782974197916666,30.116307397916664,69.0,93.0
12,30.199640697916664,30.6145710875,74.0,97.0
13,30.616307197916665,32.10588993541666,72.0,92.0
14,32.28297319791667,32.4166537,77.0,91.0
15,32.491306447916664,32.600681404166664,77.0,91.0
16,32.699639697916666,32.88193129166667,77.0,88.0
17,32.90797294791666,33.059014554166666,74.0,97.0
18,33.116306197916664,33.44443106666667,79.0,94.0
19,33.53297269791666,33.937486424999996,77.0,96.0
20,33.94963919791667,34.925333252083334,72.0,94.0
21,35.61630519791667,35.73609681666667,74.0,92.0
22,35.82463844791666,35.92880507291667,74.0,93.0
23,36.032971697916665,36.1979021875,74.0,99.0
24,36.24130494791667,36.39408266458333,77.0,97.0
25,36.44963819791666,36.84026304166667,74.0,107.0
26,36.86630469791667,37.006929641666666,72.0,94.0
27,37.07463794791666,37.63887383333333,69.0,94.0
28,37.699637697916664,38.70137340833333,67.0,89.0
29,38.949637197916665,39.083317699999995,69.0,88.0
30,39.15797044791667,39.272553735416665,69.0,90.0
31,39.36630369791666,39.520817525,69.0,91.0
32,39.574636947916666,39.72394244375,67.0,89.0
33,39.78297019791666,40.126720060416666,69.0,96.0
34,40.19963669791667,40.343733862499995,72.0,91.0
35,40.40796994791666,42.0520665125,72.0,91.0
36,42.282969197916664,42.41491358958333,74.0,93.0
37,42.49130244791667,42.611094066666666,74.0,95.0
38,42.69963569791666,42.84894119375,74.0,96.0
39,42.907968947916665,43.05553833333333,72.0,94.0
40,43.11630219791667,43.506927041666664,69.0,97.0
41,43.532968697916665,43.84199635208333,74.0,89.0
42,43.94963519791666,45.145815275,72.0,90.0
43,45.61630119791666,45.93053718333333,77.0,92.0
44,46.03296769791667,46.210050960416666,77.0,92.0
45,46.24130094791666,46.40275921666667,74.0,96.0
46,46.449634197916666,46.772550735416665,79.0,94.0
47,46.866300697916664,47.248244989583334,77.0,94.0
48,47.28296719791666,48.64060554375,72.0,93.0
49,48.94963319791666,49.04338316041667,74.0,99.0
50,49.157966447916664,49.25518863125,74.0,93.0
51,49.366299697916666,49.486091316666666,74.0,94.0
52,49.57463294791666,49.70136900833333,77.0,94.0
53,49.782966197916664,50.13366050208333,74.0,106.0
54,50.19963269791666,50.54859089166666,81.0,92.0
55,50.61629919791666,52.37497905,79.0,92.0
56,52.70113700624999,53.00008775625,72.0,101.0
57,53.12071700625,53.468618756249995,77.0,92.0
58,53.54029700624999,53.816520506249994,79.0,95.0
59,53.95987700625,54.31196736249999,81.0,94.0
60,54.37793955833333,54.86231436458333,79.0,94.0
61,54.79460605833333,55.181758681249995,77.0,96.0
62,55.21127255833333,55.59495296041666,76.0,97.0
63,55.627939058333325,56.09148053958333,77.0,92.0
64,56.04460555833333,56.419605408333325,76.0,86.0
65,56.46127205833333,56.79286914791666,74.0,95.0
66,56.87793855833333,57.19564676458333,72.0,92.0
67,57.29460505833333,58.97168772083333,74.0,97.0
68,60.211270558333325,60.33800661874999,77.0,96.0
69,60.41960380833333,60.54286764791666,79.0,92.0
70,60.62793705833333,60.93870082291666,81.0,96.0
71,61.04460355833333,61.34147843958333,79.0,93.0
72,61.46127005833333,61.79807547916666,77.0,97.0
73,61.87793655833333,62.01335317083333,76.0,97.0
74,62.08626980833333,62.65745013541666,77.0,94.0
75,62.71126955833333,63.00293610833333,76.0,92.0
76,63.127936058333326,63.46821369999999,69.0,94.0
77,63.544602558333324,63.68175528124999,72.0,93.0
78,63.752935808333326,65.96994881041667,74.0,97.0
79,66.87793455833332,67.02376783333332,74.0,101.0
80,67.08626780833333,67.20605942708333,72.0,92.0
81,67.29460105833333,67.66092035624999,74.0,104.0
82,67.71126755833333,69.16960030833333,77.0,95.0
83,69.37793355833332,70.07932216666666,77.0,96.0
84,70.21126655833334,70.56022475208333,79.0,92.0
85,70.62793305833333,70.94043293333333,81.0,90.0
86,71.04459955833333,71.38834942083332,82.0,94.0
87,71.46126605833332,71.82584924583333,81.0,95.0
88,71.87793255833333,72.05501582083332,79.0,96.0
89,72.08626580833332,73.18001537083333,77.0,90.0
90,73.54459855833332,73.65918184583333,74.0,106.0
91,73.75293180833333,73.88661231041667,77.0,96.0
92,73.96126505833332,74.27897326458333,82.0,97.0
93,74.37793155833333,74.74772307708332,81.0,94.0
94,74.79459805833332,75.13140347916666,79.0,96.0
95,75.21126455833333,75.36751449583332,77.0,92.0
96,75.41959780833332,75.88313928958333,82.0,94.0
97,76.04459755833332,76.33800021875,81.0,94.0
98,76.46126405833333,76.85015279166666,79.0,96.0
99,76.87793055833333,77.20084709583332,77.0,91.0
100,77.29459705833332,79.04112413749999,79.0,97.0
101,79.79459605833333,80.11577648541666,81.0,94.0
102,80.21126255833333,80.53591520625,79.0,96.0
103,80.62792905833332,81.32410933541667,77.0,97.0
104,81.46126205833332,81.8119563625,77.0,95.0
105,81.87792855833332,81.9994562875,79.0,93.0
106,82.08626180833332,83.12792805833332,81.0,96.0
107,83.54459455833333,83.83105277708333,77.0,96.0
108,83.96126105833332,84.24077483541666,86.0,94.0
109,84.37792755833333,84.62619134791666,84.0,97.0
110,84.79459405833333,84.94216344374999,81.0,94.0
111,85.00292730833333,85.12271892708333,79.0,89.0
112,85.21126055833332,85.54632986875,77.0,101.0
113,85.62792705833333,87.39181524166666,74.0,101.0
114,87.71125955833332,88.01855110208334,72.0,97.0
115,88.12792605833333,88.405703725,77.0,93.0
116,88.54459255833333,88.81021745208332,81.0,92.0
117,88.96125905833333,89.25466171874999,84.0,97.0
118,89.37792555833332,89.64007823124999,86.0,95.0
119,89.79459205833334,89.95257810625,81.0,101.0
120,90.00292530833332,90.14355025208333,79.0,91.0
121,90.21125855833333,90.58625840833332,77.0,101.0
122,90.62792505833332,90.95604992708333,74.0,101.0
123,91.04459155833332,91.28417479583332,77.0,92.0
124,91.46125805833333,91.61229966458333,77.0,94.0
125,91.66959130833332,92.14875778333332,79.0,94.0
126,92.29459105833332,95.07583994583332,77.0,92.0
127,112.29458305833333,112.43520800208333,69.0,90.0
128,112.50291630833333,112.60187460208333,69.0,90.0
129,112.71124955833332,112.85013839166666,69.0,91.0
130,112.91958280833333,113.04979108958332,67.0,90.0
131,113.12791605833333,113.51159646041665,69.0,92.0
132,113.54458255833333,113.86229076458332,72.0,90.0
133,113.96124905833332,115.45083179583332,72.0,91.0
134,115.62791505833331,115.73729001458332,74.0,97.0
135,115.83624830833332,115.93173438124998,74.0,97.0
136,116.04458155833333,116.19215094375,74.0,101.0
137,116.25291480833332,116.34145643958333,72.0,92.0
138,116.46124805833333,116.79458125833332,69.0,93.0
139,116.87791455833332,117.29284494791665,74.0,97.0
140,117.29458105833332,118.78416379583332,72.0,92.0
141,118.96124705833333,119.09492756041666,77.0,91.0
142,119.16958030833332,119.27895526458333,77.0,91.0
143,119.37791355833332,119.56020515208333,77.0,88.0
144,119.58624680833333,119.73728841458332,74.0,97.0
145,119.79458005833332,120.12270492708332,79.0,94.0
146,120.21124655833333,120.61576028541666,77.0,96.0
147,120.62791305833332,121.60360711249999,72.0,94.0
148,122.29457905833333,122.41437067708333,74.0,92.0
149,122.50291230833332,122.60707893333333,74.0,93.0
150,122.71124555833333,122.87617604791666,74.0,99.0
151,122.91957880833333,123.07235652499999,77.0,97.0
152,123.12791205833332,123.51853690208333,74.0,107.0
153,123.54457855833333,123.68520350208333,72.0,94.0
154,123.75291180833332,124.31714769374999,69.0,94.0
155,124.37791155833332,125.37964726874999,67.0,89.0
156,125.62791105833332,125.76159156041666,69.0,88.0
157,125.83624430833332,125.95082759583333,69.0,90.0
158,126.04457755833333,126.19909138541665,69.0,91.0
159,126.25291080833333,126.40221630416666,67.0,89.0
160,126.46124405833332,126.80499392083333,69.0,96.0
161,126.87791055833333,127.02200772291665,72.0,91.0
162,127.08624380833332,128.73034037291666,72.0,91.0
163,128.9612430583333,129.09318745,74.0,93.0
164,129.16957630833332,129.28936792708333,74.0,95.0
165,129.37790955833333,129.52721505416667,74.0,96.0
166,129.58624280833334,129.73381219375,72.0,94.0
167,129.79457605833332,130.18520090208332,69.0,97.0
168,130.2112425583333,130.5202702125,74.0,89.0
169,130.62790905833333,131.82408913541667,72.0,90.0
170,132.29457505833332,132.60881104375,77.0,92.0
171,132.7112415583333,132.8883248208333,77.0,92.0
172,132.91957480833332,133.0810330770833,74.0,96.0
173,133.12790805833333,133.45082459583332,79.0,94.0
174,133.54457455833332,133.92651884999998,77.0,94.0
175,133.96124105833331,135.31887940416664,72.0,93.0
176,135.62790705833334,135.72165702083333,74.0,99.0
177,135.83624030833334,135.93346249166666,74.0,93.0
178,136.04457355833333,136.1643651770833,74.0,94.0
179,136.2529068083333,136.37964286875,77.0,94.0
180,136.46124005833332,136.81193436249998,74.0,106.0
181,136.87790655833334,137.22686475208332,81.0,92.0
182,137.29457305833333,139.05325291041666,79.0,92.0
183,139.3800071833333,139.6800070895833,72.0,101.0
184,139.8010596833333,140.15018238124998,77.0,92.0
185,140.2221121833333,140.49930507916665,79.0,95.0
186,140.6431646833333,140.99623473749998,81.0,94.0
187,141.06220693333333,141.54658173958333,79.0,94.0
188,141.47887343333332,141.86602605624998,77.0,96.0
189,141.8955399333333,142.27922033541665,76.0,97.0
190,142.31220643333333,142.77574791458332,77.0,92.0
191,142.72887293333332,143.10387278333332,76.0,86.0
192,143.1455394333333,143.47713652291665,74.0,95.0
193,143.56220593333333,143.87991413958332,72.0,92.0
194,143.97887243333332,145.65595509583332,74.0,97.0
195,146.89553793333332,147.02227399375,77.0,96.0
196,147.10387118333333,147.22713502291666,79.0,92.0
197,147.3122044333333,147.62296819791666,81.0,96.0
198,147.72887093333333,148.02574581458333,79.0,93.0
199,148.14553743333332,148.48234285416666,77.0,97.0
200,148.5622039333333,148.69762054583333,76.0,97.0
201,148.77053718333332,149.34171751041666,77.0,94.0
202,149.39553693333332,149.68720348333332,76.0,92.0
203,149.8122034333333,150.152481075,69.0,94.0
204,150.22886993333333,150.36602265624998,72.0,93.0
205,150.4372031833333,152.65421618541666,74.0,97.0
206,153.5622019333333,153.7080352083333,74.0,101.0
207,153.77053518333332,153.8903268020833,72.0,92.0
208,153.97886843333333,154.34518773124998,74.0,104.0
209,154.39553493333332,155.8538676833333,77.0,95.0
210,156.06220093333332,156.76358954166665,77.0,96.0
211,156.89553393333333,157.24449212708333,79.0,92.0
212,157.31220043333332,157.62470030833333,81.0,90.0
213,157.7288669333333,158.0726167958333,82.0,94.0
214,158.14553343333333,158.51011662083332,81.0,95.0
215,158.56219993333332,158.7392831958333,79.0,96.0
216,158.77053318333333,159.86428274583332,77.0,90.0
217,160.2288659333333,160.34344922083332,74.0,106.0
218,160.43719918333332,160.57087968541666,77.0,96.0
219,160.64553243333333,160.96324063958332,82.0,97.0
220,161.06219893333332,161.4319904520833,81.0,94.0
221,161.4788654333333,161.81567085416665,79.0,96.0
222,161.89553193333333,162.0517818708333,77.0,92.0
223,162.1038651833333,162.56740666458333,82.0,94.0
224,162.7288649333333,163.02226759374997,81.0,94.0
225,163.1455314333333,163.53442016666665,79.0,96.0
226,163.56219793333332,163.88511447083332,77.0,91.0
227,163.9788644333333,165.72539151249998,79.0,97.0
228,166.47886343333332,166.80004386041665,81.0,94.0
229,166.8955299333333,167.22018258125,79.0,96.0
230,167.31219643333333,168.00837671041666,77.0,97.0
231,168.1455294333333,168.49622373749997,77.0,95.0
232,168.56219593333333,168.68372366249997,79.0,93.0
233,168.7705291833333,169.81219543333333,81.0,96.0
234,170.22886193333332,170.51532015208332,77.0,96.0
235,170.6455284333333,170.92504221041665,86.0,94.0
236,171.06219493333333,171.31045872291665,84.0,97.0
237,171.47886143333332,171.62643081874998,81.0,94.0
238,171.6871946833333,171.80698630208332,79.0,89.0
239,171.8955279333333,172.23059724374997,77.0,101.0
240,172.31219443333333,174.07608261666667,74.0,101.0
241,174.39552693333331,174.70281847708333,72.0,97.0
242,174.81219343333333,175.08997109999999,77.0,93.0
243,175.22885993333333,175.4944848270833,81.0,92.0
244,175.64552643333332,175.93892909374998,84.0,97.0
245,176.06219293333334,176.32434560624998,86.0,95.0
246,176.47885943333333,176.63684548125,81.0,101.0
247,176.6871926833333,176.82781762708333,79.0,91.0
248,176.89552593333332,177.2705257833333,77.0,101.0
249,177.3121924333333,177.6403173020833,74.0,101.0
250,177.72885893333333,177.96844217083333,77.0,92.0
251,178.14552543333332,178.29656703958332,77.0,94.0
252,178.35385868333333,178.83302515833333,79.0,94.0
253,178.9788584333333,181.76010732083333,77.0,92.0
254,187.73248973124998,188.03039880625,72.0,101.0
255,188.15060773125,188.49973751666667,77.0,92.0
256,188.57243248125,188.85257405208333,79.0,95.0
257,188.99796398125,189.35316466041667,81.0,94.0
258,189.41913685625,189.9035116625,79.0,94.0
259,189.83580335624998,190.22295597916667,77.0,96.0
260,190.25246985625,190.63615025833332,76.0,97.0
261,190.66913635625,191.13267783749998,77.0,92.0
262,191.08580285624998,191.46080270625,76.0,86.0
263,191.50246935625,191.83406644583332,74.0,95.0
264,191.91913585625,192.23684406249998,72.0,92.0
265,192.33580235624999,194.01288501874998,74.0,97.0
266,195.25246785625,195.37920391666665,77.0,96.0
267,195.46080110625,195.58406494583332,79.0,92.0
268,195.66913435625,195.97989812083333,81.0,96.0
269,196.08580085625,196.3826757375,79.0,93.0
270,196.50246735624998,196.83927277708332,77.0,97.0
271,196.91913385625,197.05455046875,76.0,97.0
272,197.12746710624998,197.69864743333332,77.0,94.0
273,197.75246685624998,198.04413340624998,76.0,92.0
274,198.16913335625,198.50941099791666,69.0,94.0
275,198.58579985625,198.72295257916664,72.0,93.0
276,198.79413310625,201.01114610833332,74.0,97.0
277,201.91913185625,202.06496513125,74.0,101.0
278,202.12746510624999,202.247256725,72.0,92.0
279,202.33579835625,202.70211765416667,74.0,104.0
280,202.75246485625,204.21079760625,77.0,95.0
281,204.41913085624998,205.12051946458334,77.0,96.0
282,205.25246385625,205.60142205,79.0,92.0
283,205.66913035624998,205.98163023125,81.0,90.0
284,206.08579685625,206.42954671875,82.0,94.0
285,206.50246335625,206.86704654375,81.0,95.0
286,206.91912985624998,207.09621311875,79.0,96.0
287,207.12746310625,208.22121266874998,77.0,90.0
288,208.58579585625,208.70037914374998,74.0,106.0
289,208.79412910624998,208.92780960833332,77.0,96.0
290,209.00246235625,209.32017056249998,82.0,97.0
291,209.41912885624998,209.788920375,81.0,94.0
292,209.83579535625,210.17260077708332,79.0,96.0
293,210.25246185625,210.40871179375,77.0,92.0
294,210.46079510625,210.9243365875,82.0,94.0
295,211.08579485625,211.37919751666666,81.0,94.0
296,211.50246135625,211.89135008958334,79.0,96.0
297,211.91912785625,212.24204439375,77.0,91.0
298,212.33579435625,214.08232143541665,79.0,97.0
299,214.83579335625,215.1569737833333,81.0,94.0
300,215.25245985625,215.57711250416665,79.0,96.0
301,215.66912635625,216.36530663333332,77.0,97.0
302,216.50245935625,216.85315366041667,77.0,95.0
303,216.91912585625,217.04065358541666,79.0,93.0
304,217.12745910625,218.16912535625,81.0,96.0
305,218.58579185624998,218.87225007499998,77.0,96.0
306,219.00245835625,219.28197213333334,86.0,94.0
307,219.41912485625,219.6673886458333,84.0,97.0
308,219.83579135624998,219.98336074166667,81.0,94.0
309,220.04412460625,220.16391622499998,79.0,89.0
310,220.25245785625,220.58752716666666,77.0,101.0
311,220.66912435625,222.43301253958333,74.0,101.0
312,222.75245685624998,223.0597484,72.0,97.0
313,223.16912335625,223.44690102291665,77.0,93.0
314,223.58578985625,223.85141475,81.0,92.0
315,224.00245635624998,224.29585901666667,84.0,97.0
316,224.41912285625,224.68127552916667,86.0,95.0
317,224.83578935625,224.99377540416666,81.0,101.0
318,225.04412260625,225.18474755,79.0,91.0
319,225.25245585624998,225.62745570624998,77.0,101.0
320,225.66912235625,225.997247225,74.0,101.0
321,226.08578885625,226.32537209375,77.0,92.0
322,226.50245535624998,226.6534969625,77.0,94.0
323,226.71078860625,227.18995508125,79.0,94.0
324,227.33578835625,230.11703724375,77.0,92.0
