,start,end,pitch,velocity
0,0.55729144375,1.0121523729166666,48.0,89.0
1,0.5642358854166666,1.0329856979166665,36.0,89.0
2,0.36979151875,1.6788187729166666,72.0,84.0
3,0.4895831375,1.7986103916666665,64.0,80.0
4,0.56770810625,1.8298603791666666,60.0,85.0
5,0.43402760416666664,1.8298603791666666,67.0,84.0
6,2.6996516979166665,3.008679352083333,64.0,89.0
7,2.6996516979166665,3.0208321249999996,60.0,83.0
8,2.6996516979166665,3.0225682354166663,48.0,87.0
9,2.6996516979166665,3.0277765666666667,55.0,85.0
10,3.1163181979166663,3.4409708458333332,48.0,96.0
11,3.1163181979166663,3.4444430666666666,64.0,92.0
12,3.1163181979166663,3.4496513979166665,55.0,89.0
13,3.1163181979166663,3.451387508333333,60.0,90.0
14,3.5329846979166666,3.8767345604166663,55.0,91.0
15,3.5329846979166666,3.8993039958333333,60.0,90.0
16,3.5329846979166666,3.8993039958333333,64.0,92.0
17,3.5329846979166666,3.9427067562499998,48.0,95.0
18,3.9496511979166664,4.3906232437499995,57.0,83.0
19,3.9496511979166664,4.449650997916667,60.0,89.0
20,4.366317697916666,4.88020638125,48.0,69.0
21,4.782984197916666,5.111109066666667,57.0,88.0
22,4.782984197916666,5.152775716666667,65.0,89.0
23,4.782984197916666,5.1666646,60.0,90.0
24,4.991317447916666,5.329858979166667,48.0,79.0
25,3.9496511979166664,5.5104144625,41.0,91.0
26,5.407983947916667,5.534720008333333,57.0,78.0
27,5.616317197916667,6.147566985416666,57.0,85.0
28,5.616317197916667,6.1666642,60.0,85.0
29,6.032983697916666,6.526039056249999,48.0,72.0
30,5.616317197916667,6.6354140125,41.0,90.0
31,6.449650197916666,6.644094564583333,57.0,90.0
32,6.449650197916666,6.6562473375,60.0,93.0
33,6.449650197916666,6.659719558333333,65.0,91.0
34,7.282983197916666,7.673608041666666,64.0,91.0
35,7.282983197916666,7.710066360416667,60.0,87.0
36,7.282983197916666,7.7187469124999994,57.0,86.0
37,7.699649697916667,8.173607841666666,52.0,76.0
38,8.116316197916666,8.38020498125,57.0,90.0
39,8.116316197916666,8.413191079166666,60.0,92.0
40,8.324649447916666,8.649302095833333,52.0,80.0
41,7.282983197916666,8.831593689583332,45.0,90.0
42,8.741315947916666,8.852427014583332,57.0,78.0
43,8.949649197916667,9.362843477083333,60.0,84.0
44,8.949649197916667,9.376732360416666,57.0,86.0
45,9.366315697916667,9.824648847916666,52.0,72.0
46,9.782982197916667,9.977426564583332,57.0,93.0
47,9.782982197916667,9.989579337499999,64.0,92.0
48,8.949649197916667,10.199648697916667,45.0,90.0
49,9.991315447916666,10.277773666666667,52.0,85.0
50,10.199648697916667,10.423606941666666,60.0,85.0
51,10.407981947916666,10.565967995833333,57.0,83.0
52,10.616315197916666,11.171870531249999,62.0,84.0
53,11.032981697916666,11.609370356249999,53.0,83.0
54,11.449648197916666,12.045134070833333,58.0,92.0
55,10.616315197916666,12.0729118375,46.0,92.0
56,11.449648197916666,12.092009052083332,62.0,92.0
57,11.866314697916666,12.392356154166666,53.0,77.0
58,12.282981197916666,12.932286493749999,58.0,83.0
59,12.282981197916666,12.97395314375,62.0,87.0
60,12.699647697916665,13.1979113875,53.0,71.0
61,12.282981197916666,13.381939091666666,46.0,83.0
62,13.116314197916665,13.383675202083333,58.0,91.0
63,13.116314197916665,13.553814022916667,62.0,91.0
64,13.116314197916665,13.612841777083332,65.0,88.0
65,13.324647447916666,13.628466770833333,53.0,85.0
66,13.532980697916665,13.703119518749999,46.0,83.0
67,13.949647197916667,14.409716458333332,62.0,90.0
68,13.949647197916667,14.456591439583333,59.0,86.0
69,14.782980197916666,15.288188329166665,65.0,78.0
70,14.782980197916666,15.305549433333333,59.0,91.0
71,15.199646697916666,15.355896635416666,62.0,90.0
72,13.949647197916667,15.465271591666665,47.0,91.0
73,14.366313697916667,15.4895771375,53.0,81.0
74,15.407979947916665,15.734368706249999,59.0,81.0
75,15.407979947916665,15.878465870833333,62.0,87.0
76,15.616313197916666,15.982632495833332,71.0,78.0
77,15.616313197916666,16.022563035416667,65.0,77.0
78,16.032979697916666,16.571173927083333,53.0,73.0
79,15.616313197916666,16.652771116666667,47.0,92.0
80,16.449646197916667,16.692701656249998,62.0,92.0
81,16.449646197916667,16.704854429166666,65.0,91.0
82,16.449646197916667,16.70832665,59.0,88.0
83,16.866312697916666,17.010409862499998,47.0,90.0
84,17.282979197916667,18.33158988958333,55.0,86.0
85,17.282979197916667,18.33853433125,60.0,90.0
86,17.282979197916667,18.522562035416666,48.0,95.0
87,18.949645197916666,19.463533881249997,57.0,83.0
88,18.949645197916666,19.524297745833334,60.0,87.0
89,18.949645197916666,19.692700456249998,45.0,90.0
90,19.782978197916666,20.012144772916667,50.0,90.0
91,19.782978197916666,20.03645031875,62.0,88.0
92,19.782978197916666,20.050339202083332,57.0,81.0
93,20.616311197916666,20.980894385416665,55.0,82.0
94,20.616311197916666,21.032977697916664,62.0,87.0
95,20.616311197916666,21.053811022916666,43.0,90.0
96,21.449644197916665,21.72394964375,60.0,89.0
97,21.449644197916665,21.770824625,55.0,90.0
98,21.449644197916665,21.814227385416665,48.0,95.0
99,22.282977197916665,22.644088164583334,57.0,82.0
100,22.282977197916665,22.772560335416664,53.0,80.0
101,23.116310197916665,23.602421114583333,57.0,80.0
102,23.116310197916665,23.64061554375,60.0,86.0
103,23.532976697916666,23.715268291666664,53.0,62.0
104,22.699643697916667,24.09894869375,48.0,64.0
105,23.949643197916664,24.25346252083333,57.0,79.0
106,24.574642947916665,24.69096234583333,53.0,83.0
107,24.366309697916666,24.828115068749998,48.0,67.0
108,24.782976197916664,24.970476122916665,53.0,90.0
109,24.782976197916664,24.996517779166666,58.0,90.0
110,24.991309447916667,25.295128770833333,48.0,84.0
111,25.199642697916666,25.3333232,53.0,83.0
112,22.282977197916665,25.383670402083332,41.0,90.0
113,25.616309197916664,26.138878433333332,57.0,83.0
114,25.616309197916664,26.569433816666667,53.0,79.0
115,26.032975697916665,26.649294895833332,48.0,59.0
116,25.616309197916664,26.807280943749998,41.0,86.0
117,26.449642197916667,26.897558685416666,60.0,91.0
118,26.866308697916665,27.064225285416665,65.0,86.0
119,27.282975197916667,27.74478056875,60.0,84.0
120,27.282975197916667,27.965266591666666,57.0,78.0
121,28.116308197916666,28.31596089583333,57.0,74.0
122,28.116308197916666,28.3229053375,60.0,88.0
123,28.116308197916666,28.347210883333332,64.0,90.0
124,27.699641697916665,28.425335852083332,52.0,74.0
125,27.282975197916667,28.4895719375,45.0,90.0
126,28.949641197916666,29.168391110416664,57.0,82.0
127,28.949641197916666,29.529502077083333,65.0,87.0
128,29.366307697916664,29.876724160416664,57.0,79.0
129,28.949641197916666,30.230890685416664,50.0,89.0
130,29.782974197916666,30.26387678333333,65.0,95.0
131,30.199640697916664,30.387140622916665,57.0,86.0
132,30.616307197916665,31.071168127083332,60.0,82.0
133,30.616307197916665,31.25345972083333,57.0,76.0
134,30.616307197916665,31.61283457708333,45.0,90.0
135,31.449640197916665,31.623251239583333,64.0,90.0
136,31.032973697916663,31.64061234375,52.0,77.0
137,31.449640197916665,31.673598441666666,57.0,86.0
138,32.28297319791667,33.142347854166665,62.0,70.0
139,32.699639697916666,33.4479032875,53.0,76.0
140,32.28297319791667,33.461792170833334,46.0,86.0
141,33.116306197916664,33.48088938541667,58.0,87.0
142,32.28297319791667,33.491306047916666,65.0,86.0
143,33.94963919791667,34.79165275,57.0,77.0
144,33.94963919791667,34.871513829166666,60.0,79.0
145,34.366305697916665,34.94269435625,48.0,74.0
146,33.94963919791667,35.01908321458333,41.0,79.0
147,34.78297219791666,35.513874683333334,65.0,90.0
148,35.19963869791666,35.53818022916666,57.0,84.0
149,35.61630519791667,35.699638497916666,57.0,63.0
150,36.032971697916665,36.53297149791666,57.0,83.0
151,35.61630519791667,36.541652049999996,62.0,85.0
152,35.61630519791667,36.60588813541666,50.0,86.0
153,36.44963819791666,37.137137922916665,65.0,86.0
154,37.282971197916666,37.57637385833333,55.0,84.0
155,37.282971197916666,37.96699870208333,62.0,85.0
156,37.699637697916664,38.012137572916664,50.0,83.0
157,37.282971197916666,38.04685978125,43.0,91.0
158,38.11630419791666,38.36283187708333,55.0,85.0
159,38.11630419791666,38.57984567916667,60.0,85.0
160,38.11630419791666,38.60935955625,48.0,90.0
161,38.53297069791667,38.72567895416667,55.0,87.0
162,38.949637197916665,39.82637295833333,57.0,82.0
163,38.949637197916665,40.03991453958333,53.0,78.0
164,39.36630369791666,40.104150624999996,48.0,74.0
165,38.949637197916665,40.133664502083334,41.0,90.0
166,39.78297019791666,40.16491448958333,60.0,88.0
167,40.616303197916665,41.46699730208333,60.0,80.0
168,40.616303197916665,41.54338616041667,57.0,75.0
169,41.44963619791667,41.88366380208333,64.0,93.0
170,41.03296969791666,41.887136022916664,52.0,82.0
171,40.616303197916665,41.88887213333333,45.0,90.0
172,41.866302697916666,42.286441418749995,60.0,86.0
173,42.282969197916664,43.19963549791667,65.0,90.0
174,42.69963569791666,43.38887153333333,53.0,72.0
175,42.282969197916664,43.40449652708333,50.0,86.0
176,43.11630219791667,43.496510379166665,57.0,81.0
177,43.11630219791667,43.522552035416666,62.0,83.0
178,43.94963519791666,44.49824608958333,60.0,81.0
179,43.94963519791666,44.85935705625,57.0,75.0
180,43.94963519791666,44.986093116666666,45.0,84.0
181,44.36630169791666,45.03817642916666,52.0,77.0
182,44.78296819791667,45.16491248958333,64.0,92.0
183,45.199634697916665,45.355884635416665,60.0,75.0
184,45.61630119791666,46.27255093541667,62.0,84.0
185,46.03296769791667,46.579842479166665,53.0,77.0
186,45.61630119791666,46.61109246666666,46.0,90.0
187,46.449634197916666,46.70484242916667,58.0,84.0
188,46.449634197916666,46.75171741041667,62.0,88.0
189,47.28296719791666,47.567689306249996,60.0,79.0
190,47.28296719791666,47.66317537916667,57.0,73.0
191,47.28296719791666,48.512133372916665,41.0,88.0
192,47.69963369791667,48.51386948333333,48.0,76.0
193,48.116300197916665,48.53470280833333,53.0,85.0
194,48.32463344791666,48.58678612083333,57.0,84.0
195,48.53296669791666,48.642341654166664,60.0,80.0
196,48.94963319791666,49.37845247083333,62.0,86.0
197,48.94963319791666,49.39234135416666,58.0,85.0
198,48.94963319791666,49.413174679166666,55.0,84.0
199,49.366299697916666,49.942688356249995,50.0,77.0
200,49.782966197916664,50.16317437916666,58.0,91.0
201,49.782966197916664,50.255188231249996,62.0,91.0
202,48.94963319791666,50.26734100416667,43.0,91.0
203,50.19963269791666,50.50866035208333,55.0,89.0
204,50.61629919791666,50.76560469375,55.0,85.0
205,50.61629919791666,50.81074356458333,60.0,91.0
206,50.61629919791666,50.84546577291666,64.0,92.0
207,50.61629919791666,50.897549085416664,48.0,90.0
208,51.032965697916666,51.552062712499996,46.0,90.0
209,51.449632197916664,51.725673754166664,50.0,99.0
210,51.032965697916666,51.762132072916664,58.0,74.0
211,51.449632197916664,51.885395912499995,62.0,90.0
212,51.86629869791666,52.09199305208333,53.0,86.0
213,51.86629869791666,52.21699300208333,65.0,91.0
214,52.28296519791667,52.60847975624999,64.0,97.0
215,52.28296519791667,52.68015800625,60.0,90.0
216,52.91092700624999,53.026311506249996,60.0,95.0
217,52.70113700624999,53.09274500624999,55.0,85.0
218,53.12071700625,53.40218525624999,62.0,99.0
219,52.28296519791667,53.47561175625,48.0,101.0
220,53.12071700625,53.47561175625,55.0,89.0
221,53.54029700624999,53.660926256249994,60.0,101.0
222,53.95987700625,54.13120550624999,55.0,82.0
223,53.95987700625,54.567175593749994,57.0,84.0
224,53.95987700625,54.67481443958333,53.0,80.0
225,54.37793955833333,54.942175443749996,48.0,84.0
226,54.79460605833333,54.952592106249995,57.0,93.0
227,54.79460605833333,54.97689765208333,60.0,91.0
228,53.95987700625,55.16786979791666,41.0,90.0
229,55.21127255833333,55.36057805416666,48.0,66.0
230,55.41960580833333,55.96648058958333,53.0,87.0
231,55.627939058333325,56.030716674999994,57.0,82.0
232,55.627939058333325,56.10536942291666,60.0,83.0
233,55.627939058333325,56.13141107916666,65.0,90.0
234,56.04460555833333,56.535924806249994,48.0,76.0
235,55.627939058333325,56.78418859583333,41.0,91.0
236,56.66960530833333,56.79286914791666,48.0,91.0
237,56.46127205833333,56.86578578541666,60.0,96.0
238,56.87793855833333,57.00641072916666,57.0,90.0
239,57.29460505833333,58.06022975208333,57.0,83.0
240,57.29460505833333,58.169604708333324,62.0,83.0
241,58.12793805833333,58.59321565,65.0,91.0
242,58.33627130833333,58.62272952708333,57.0,86.0
243,57.29460505833333,58.71995171041666,50.0,90.0
244,57.71127155833333,58.747729477083325,53.0,75.0
245,58.544604558333326,58.86231276458333,62.0,90.0
246,58.75293780833333,58.88314608958333,57.0,78.0
247,58.961271058333324,59.20779873749999,57.0,85.0
248,58.961271058333324,59.43349309166666,62.0,90.0
249,59.37793755833333,59.575854145833326,57.0,85.0
250,59.79460405833333,60.10189560208333,57.0,92.0
251,58.961271058333324,60.16960390833333,50.0,92.0
252,59.79460405833333,60.218214999999994,65.0,92.0
253,60.211270558333325,60.38314548958333,62.0,87.0
254,60.62793705833333,60.992520245833326,57.0,81.0
255,60.62793705833333,61.07758965625,60.0,82.0
256,61.46127005833333,61.90571432499999,53.0,91.0
257,61.66960330833333,61.92307542916666,57.0,88.0
258,61.04460355833333,62.103630912499995,48.0,71.0
259,61.87793655833333,62.11925590625,60.0,89.0
260,60.62793705833333,62.153978114583325,41.0,90.0
261,62.08626980833333,62.226894752083325,65.0,92.0
262,62.29460305833333,62.31543638333333,57.0,81.0
263,62.29460305833333,62.815436183333325,65.0,90.0
264,62.29460305833333,62.83279728749999,60.0,92.0
265,62.29460305833333,62.992519445833324,53.0,92.0
266,62.71126955833333,63.20953324791666,48.0,82.0
267,63.127936058333326,63.26161656041666,57.0,93.0
268,63.127936058333326,63.26508878124999,53.0,91.0
269,63.127936058333326,63.331060977083325,60.0,93.0
270,62.29460305833333,63.39876928333333,41.0,91.0
271,63.544602558333324,63.66960250833333,48.0,85.0
272,63.96126905833333,64.03418569583333,38.0,90.0
273,63.96126905833333,64.84321315,57.0,88.0
274,63.96126905833333,64.97862976249999,65.0,90.0
275,65.00293530833332,65.23383799375,57.0,95.0
276,65.21126855833333,65.42654625,62.0,92.0
277,64.79460205833333,65.4682129,53.0,91.0
278,64.37793555833332,65.59321284999999,45.0,77.0
279,65.41960180833333,65.6869628125,57.0,87.0
280,65.62793505833332,66.25293480833332,65.0,92.0
281,65.62793505833332,66.54633746875,50.0,91.0
282,66.04460155833333,66.55328191041666,53.0,82.0
283,66.46126805833333,66.60015689166666,62.0,92.0
284,66.46126805833333,66.65918464583334,57.0,91.0
285,67.71126755833333,67.76161476041666,55.0,62.0
286,67.29460105833333,67.83626750833332,62.0,85.0
287,67.29460105833333,67.88140637916666,65.0,90.0
288,67.29460105833333,68.03765631666666,58.0,82.0
289,67.71126755833333,68.31196176249999,53.0,66.0
290,68.12793405833332,68.47689225208333,58.0,90.0
291,68.12793405833332,68.48383669374999,62.0,94.0
292,68.12793405833332,68.50467001874999,65.0,94.0
293,67.29460105833333,68.7494615875,46.0,91.0
294,68.54460055833333,68.86751709583334,53.0,73.0
295,68.75293380833332,68.90918374583333,58.0,89.0
296,68.96126705833333,69.45085019583333,58.0,86.0
297,68.96126705833333,69.53591960624999,62.0,91.0
298,69.58626680833333,69.71126675833332,58.0,84.0
299,69.37793355833332,69.89529446249999,53.0,86.0
300,69.79460005833333,70.06716939374999,58.0,91.0
301,69.79460005833333,70.12272492708333,65.0,92.0
302,68.96126705833333,70.16439157708334,46.0,93.0
303,70.00293330833333,70.22168322083333,53.0,90.0
304,70.21126655833334,70.40918314583332,58.0,83.0
305,70.62793305833333,70.75466911875,57.0,77.0
306,70.62793305833333,71.28939112708332,55.0,80.0
307,70.62793305833333,71.31022445208333,61.0,86.0
308,71.04459955833333,71.57932156666666,52.0,83.0
309,71.46126605833332,71.71473817916666,55.0,96.0
310,71.46126605833332,71.71473817916666,61.0,95.0
311,70.62793305833333,71.72168262083332,45.0,92.0
312,72.29459905833332,72.74251554583333,57.0,88.0
313,72.29459905833332,73.01855710208332,65.0,90.0
314,72.91959880833332,73.03070987499999,57.0,77.0
315,72.71126555833332,73.25987645,45.0,73.0
316,72.29459905833332,73.35362641249999,38.0,92.0
317,73.12793205833333,73.364043075,62.0,92.0
318,73.12793205833333,73.40918194583332,57.0,93.0
319,73.54459855833332,73.6452929625,38.0,91.0
320,73.96126505833332,74.45258430624999,58.0,80.0
321,73.96126505833332,74.49251484583333,62.0,90.0
322,73.96126505833332,74.57063981458333,55.0,86.0
323,74.79459805833332,75.01682019166665,55.0,91.0
324,74.79459805833332,75.0619590625,62.0,91.0
325,75.00293130833333,75.20605622708332,58.0,88.0
326,74.37793155833333,75.4994588875,50.0,76.0
327,75.21126455833333,75.52550054375,55.0,91.0
328,73.96126505833332,75.53418109583333,43.0,91.0
329,75.41959780833332,75.54806997916666,58.0,91.0
330,75.62793105833333,75.73209768333332,58.0,56.0
331,75.62793105833333,76.07758365625,67.0,93.0
332,76.04459755833332,76.26161136041665,62.0,91.0
333,76.25293080833333,76.36751409583333,55.0,84.0
334,75.83626430833333,76.60188900208333,50.0,85.0
335,75.62793105833333,76.66959730833332,43.0,92.0
336,76.46126405833333,76.78765281666666,58.0,97.0
337,76.46126405833333,76.82237502499999,55.0,91.0
338,76.46126405833333,76.87619444791666,62.0,96.0
339,76.87793055833333,77.16786099791666,43.0,92.0
340,77.29459705833332,77.45779143749999,55.0,90.0
341,77.29459705833332,77.47168032083333,60.0,90.0
342,77.29459705833332,77.51681919166666,48.0,91.0
343,77.71126355833333,77.822374625,48.0,79.0
344,77.71126355833333,77.83799961874999,55.0,78.0
345,77.71126355833333,77.83973572916666,60.0,82.0
346,78.12793005833333,78.36056885416666,55.0,90.0
347,78.12793005833333,78.37098551666666,60.0,93.0
348,78.12793005833333,78.68869372291667,48.0,99.0
349,78.54459655833332,78.77202702291666,55.0,94.0
350,78.54459655833332,78.79980478958333,62.0,95.0
351,78.96126305833333,79.16959630833333,48.0,104.0
352,78.96126305833333,79.20605462708332,64.0,99.0
353,78.96126305833333,79.21473517916667,55.0,92.0
354,78.96126305833333,79.22341573124999,60.0,96.0
355,79.37792955833334,79.56369337291666,55.0,92.0
356,79.37792955833334,79.57411003541665,60.0,92.0
357,79.37792955833334,79.61577668541666,48.0,96.0
358,79.79459605833333,80.44216524375,61.0,97.0
359,79.79459605833333,80.51508188125,45.0,94.0
360,79.79459605833333,80.53765131666665,57.0,87.0
361,80.62792905833332,80.83452619791666,57.0,90.0
362,80.62792905833332,80.8744567375,65.0,88.0
363,81.04459555833333,81.26334547083333,57.0,78.0
364,81.04459555833333,81.27202602291666,65.0,86.0
365,81.04459555833333,81.27897046458332,62.0,85.0
366,81.46126205833332,81.67480363958333,57.0,90.0
367,81.46126205833332,81.71820639999999,62.0,94.0
368,81.46126205833332,81.71820639999999,65.0,92.0
369,81.87792855833332,82.09841458125,62.0,83.0
370,81.87792855833332,82.17653955,65.0,78.0
371,81.87792855833332,82.19216454375,57.0,78.0
372,80.62792905833332,82.33452559791667,50.0,95.0
373,82.29459505833333,82.52376163333332,57.0,81.0
374,82.29459505833333,82.56542828333332,61.0,90.0
375,82.29459505833333,82.56542828333332,65.0,88.0
376,82.71126155833332,82.82584484583333,57.0,64.0
377,82.71126155833332,82.84667817083333,65.0,73.0
378,82.71126155833332,82.85362261249999,61.0,76.0
379,83.12792805833332,83.24251134583332,57.0,90.0
380,83.12792805833332,83.25640022916666,61.0,94.0
381,83.12792805833332,83.27202522291665,65.0,90.0
382,82.29459505833333,83.31716409375,49.0,91.0
383,83.54459455833333,83.64876118333333,61.0,86.0
384,83.54459455833333,83.67480283958332,57.0,78.0
385,83.54459455833333,83.7077889375,65.0,81.0
386,83.96126105833332,84.14876098333332,57.0,83.0
387,83.96126105833332,84.17133041874999,65.0,86.0
388,83.96126105833332,84.1869554125,60.0,91.0
389,84.37792755833333,84.48730251458332,57.0,75.0
390,84.37792755833333,84.4994552875,65.0,78.0
391,84.37792755833333,84.50292750833333,60.0,81.0
392,84.79459405833333,84.90396901458332,57.0,90.0
393,84.79459405833333,84.91612178749999,60.0,94.0
394,84.79459405833333,84.93174678125,65.0,91.0
395,85.21126055833332,85.38834382083333,57.0,81.0
396,85.21126055833332,85.41438547708333,60.0,87.0
397,83.96126105833332,85.47514934166666,48.0,91.0
398,85.21126055833332,85.49251044583332,65.0,85.0
399,85.62792705833333,85.82063531458333,65.0,78.0
400,85.62792705833333,85.87271862708333,62.0,82.0
401,85.62792705833333,85.87619084791666,59.0,80.0
402,86.04459355833333,86.14528796249999,62.0,86.0
403,86.04459355833333,86.14876018333332,59.0,83.0
404,86.04459355833333,86.15396851458333,65.0,83.0
405,86.46126005833332,87.16959310833332,59.0,97.0
406,85.62792705833333,87.19042643333333,47.0,87.0
407,86.46126005833332,87.20605142708332,62.0,101.0
408,86.46126005833332,87.23382919374998,65.0,101.0
409,86.87792655833333,87.29806527916665,53.0,85.0
410,87.29459305833333,87.57757905624999,55.0,85.0
411,87.29459305833333,87.73730121458333,64.0,90.0
412,87.29459305833333,87.77896786458334,60.0,88.0
413,88.12792605833333,88.3119537625,55.0,93.0
414,88.12792605833333,88.51681479166666,60.0,95.0
415,88.12792605833333,88.53591200624999,64.0,97.0
416,87.29459305833333,88.58452309791666,48.0,91.0
417,88.96125905833333,89.16959230833334,57.0,87.0
418,88.96125905833333,89.32410613541666,60.0,90.0
419,88.96125905833333,89.33105057708332,64.0,93.0
420,89.37792555833332,89.67827266041667,57.0,90.0
421,88.96125905833333,89.69910598541665,45.0,91.0
422,89.79459205833334,89.92480033958333,57.0,80.0
423,89.79459205833334,90.04459195833333,62.0,89.0
424,89.79459205833334,90.09841138125,50.0,91.0
425,89.79459205833334,90.10882804375,65.0,89.0
426,90.62792505833332,90.8119527625,55.0,82.0
427,90.62792505833332,90.91959160833332,58.0,77.0
428,90.62792505833332,91.12618874791666,62.0,86.0
429,91.04459155833332,91.33625810833333,55.0,86.0
430,90.62792505833332,91.51334137083333,43.0,90.0
431,91.46125805833333,91.7911190375,60.0,91.0
432,91.46125805833333,91.83625790833332,55.0,96.0
433,91.46125805833333,91.93695231249998,48.0,96.0
434,92.29459105833332,92.68347979166666,57.0,82.0
435,92.29459105833332,92.76160476041666,53.0,80.0
436,93.12792405833332,93.32063231458332,53.0,83.0
437,93.12792405833332,93.33799341874999,57.0,90.0
438,93.12792405833332,93.36924340624999,60.0,86.0
439,92.71125755833333,93.67132661874999,48.0,76.0
440,92.29459105833332,93.74424325625,41.0,91.0
441,93.54459055833333,93.81021545208333,53.0,82.0
442,93.96125705833333,94.29806247916666,53.0,85.0
443,93.96125705833333,94.34840968124999,57.0,91.0
444,93.96125705833333,94.38660411041667,60.0,92.0
445,93.96125705833333,94.405701325,65.0,87.0
446,94.58625680833333,94.69563176458333,53.0,93.0
447,94.37792355833332,94.87445113749999,48.0,90.0
448,94.79459005833333,95.04806217916666,53.0,94.0
449,94.79459005833333,95.07063161458333,57.0,97.0
450,93.96125705833333,95.07931216666665,41.0,91.0
451,94.79459005833333,95.0827843875,65.0,92.0
452,94.79459005833333,95.09493716041666,60.0,97.0
453,95.21125655833333,95.24597876666667,60.0,59.0
454,95.21125655833333,95.60188140208334,53.0,97.0
455,95.41958980833333,95.62792305833332,65.0,96.0
456,95.00292330833332,95.71820079999999,48.0,104.0
457,95.62792305833332,96.11403397499998,65.0,91.0
458,95.62792305833332,96.15222840416666,58.0,87.0
459,96.46125605833333,96.85188090208332,58.0,93.0
460,96.87792255833332,97.15917244583332,65.0,91.0
461,95.62792305833332,97.16438077708332,46.0,92.0
462,96.04458955833333,97.18000577083333,53.0,87.0
463,96.66958930833333,97.18521410208334,62.0,91.0
464,97.29458905833332,97.83278328749999,65.0,91.0
465,97.29458905833332,97.84840828124999,62.0,90.0
466,97.08625580833333,97.94215824374999,58.0,84.0
467,97.29458905833332,98.32410253541666,46.0,99.0
468,98.12792205833333,98.32410253541666,58.0,91.0
469,98.12792205833333,98.32757475624999,62.0,92.0
470,97.71125555833333,98.3952830625,53.0,83.0
471,98.12792205833333,98.41785249791667,65.0,91.0
472,98.54458855833332,98.84319955,46.0,90.0
473,98.96125505833334,99.29458825833333,55.0,91.0
474,98.96125505833334,99.37618544791667,60.0,91.0
475,99.37792155833333,99.91437967708333,52.0,79.0
476,99.79458805833332,100.01160186041666,64.0,95.0
477,99.79458805833332,100.02375463333333,57.0,92.0
478,100.21125455833332,100.29458785833333,57.0,76.0
479,100.00292130833333,100.51333777083332,52.0,83.0
480,100.41958780833332,100.51507388124999,57.0,86.0
481,98.96125505833334,100.54805997916665,45.0,92.0
482,100.41958780833332,100.55500442083333,60.0,86.0
483,100.62792105833333,101.10361531249998,55.0,92.0
484,100.62792105833333,101.13139307916666,60.0,91.0
485,101.04458755833332,101.62965676874998,52.0,79.0
486,101.46125405833332,101.67653175,64.0,97.0
487,100.62792105833333,101.68000397083333,45.0,93.0
488,101.46125405833332,101.68868452291666,60.0,97.0
489,101.46125405833332,101.69562896458334,55.0,92.0
490,101.87792055833333,102.07062881458333,45.0,92.0
491,102.29458705833332,102.85882294375,58.0,85.0
492,102.29458705833332,102.89875348333332,62.0,90.0
493,102.29458705833332,103.25292000833332,55.0,90.0
494,103.12792005833333,103.39528106249999,67.0,95.0
495,103.33625330833333,103.60014209166667,62.0,94.0
496,103.54458655833332,103.71125315833334,58.0,94.0
497,102.71125355833333,103.73555870416666,50.0,77.0
498,102.29458705833332,103.81541978333333,43.0,91.0
499,103.75291980833333,103.89528086249999,55.0,91.0
500,103.96125305833333,104.47514174166666,58.0,84.0
501,103.96125305833333,104.49076673541666,62.0,90.0
502,103.96125305833333,104.50639172916667,55.0,81.0
503,104.37791955833333,104.93521100208332,50.0,75.0
504,103.96125305833333,104.95604432708333,43.0,91.0
505,104.79458605833332,104.98034987291666,58.0,96.0
506,104.79458605833332,105.00291930833333,55.0,93.0
507,104.79458605833332,105.05673873125,62.0,96.0
508,105.21125255833333,105.38833582083333,43.0,91.0
509,105.62791905833333,105.72166902083333,36.0,89.0
510,105.62791905833333,105.91784949791665,55.0,88.0
511,105.62791905833333,105.95257170624998,60.0,90.0
512,105.62791905833333,106.01333557083333,64.0,92.0
513,106.46125205833332,106.71125195833332,60.0,92.0
514,106.66958530833332,106.92132131874999,62.0,94.0
515,106.87791855833333,107.12791845833333,64.0,99.0
516,106.25291880833333,107.16090455624999,55.0,90.0
517,106.04458555833332,107.18173788125,48.0,84.0
518,107.08625180833332,107.20604342708333,60.0,85.0
519,107.29458505833333,107.88833482083334,67.0,90.0
520,107.29458505833333,107.89180704166665,64.0,90.0
521,107.29458505833333,107.92479313958333,60.0,90.0
522,107.71125155833332,108.13659861041666,55.0,78.0
523,107.29458505833333,108.18000137083332,48.0,95.0
524,108.12791805833334,108.19736247499999,64.0,90.0
525,108.12791805833334,108.22166802083333,60.0,90.0
526,108.12791805833334,108.22340413124999,67.0,88.0
527,108.96125105833332,109.52548694375,60.0,89.0
528,108.96125105833332,109.56020915208333,53.0,77.0
529,109.37791755833332,109.92479233958332,48.0,72.0
530,109.79458405833333,110.27027831249998,53.0,84.0
531,109.79458405833333,110.50638932916667,60.0,85.0
532,110.62791705833332,111.03590300624998,58.0,85.0
533,110.62791705833332,111.20604182708333,53.0,87.0
534,111.46125005833332,111.58104167708333,58.0,93.0
535,111.46125005833332,111.59145833958333,53.0,91.0
536,111.66958330833333,111.8327776875,57.0,90.0
537,111.87791655833333,112.06715259375,55.0,90.0
538,108.96125105833332,112.13312478958332,41.0,90.0
539,112.08624980833332,112.37270802708332,53.0,83.0
540,112.29458305833333,112.37270802708332,53.0,79.0
541,112.29458305833333,112.81715229374998,57.0,83.0
542,112.71124955833332,113.32756875624999,48.0,59.0
543,112.29458305833333,113.48555480416667,41.0,86.0
544,113.12791605833333,113.57583254583332,60.0,91.0
545,113.54458255833333,113.74249914583334,65.0,86.0
546,113.96124905833332,114.42305442916665,60.0,84.0
547,113.96124905833332,114.64354045208333,57.0,78.0
548,114.79458205833333,114.99423475625,57.0,74.0
549,114.79458205833333,115.00117919791666,60.0,88.0
550,114.79458205833333,115.02548474374998,64.0,90.0
551,114.37791555833333,115.10360971249999,52.0,74.0
552,113.96124905833332,115.16784579791666,45.0,90.0
553,115.62791505833331,115.84666497083333,57.0,82.0
554,115.62791505833331,116.20777593749999,65.0,87.0
555,116.04458155833333,116.55499802083332,57.0,79.0
556,115.62791505833331,116.90916454583333,50.0,89.0
557,116.46124805833333,116.94215064374998,65.0,95.0
558,116.87791455833332,117.06541448333333,57.0,86.0
559,117.29458105833332,117.74944198749999,60.0,82.0
560,117.29458105833332,117.93173358125,57.0,76.0
561,117.29458105833332,118.29110843749999,45.0,90.0
562,118.12791405833332,118.30152509999999,64.0,90.0
563,117.71124755833333,118.31888620416666,52.0,77.0
564,118.12791405833332,118.35187230208332,57.0,86.0
565,118.96124705833333,119.82062171458333,62.0,70.0
566,119.37791355833332,120.12617714791666,53.0,76.0
567,118.96124705833333,120.14006603124999,46.0,86.0
568,119.79458005833332,120.15916324583333,58.0,87.0
569,118.96124705833333,120.16957990833332,65.0,86.0
570,120.62791305833332,121.46992661041666,57.0,77.0
571,120.62791305833332,121.54978768958333,60.0,79.0
572,121.04457955833333,121.62096821666665,48.0,74.0
573,120.62791305833332,121.69735707499999,41.0,79.0
574,121.46124605833333,122.19214854375,65.0,90.0
575,121.87791255833332,122.21645408958332,57.0,84.0
576,122.29457905833333,122.37791235833332,57.0,63.0
577,122.71124555833333,123.21124535833333,57.0,83.0
578,122.29457905833333,123.21992591041666,62.0,85.0
579,122.29457905833333,123.28416199583333,50.0,86.0
580,123.12791205833332,123.81541178333332,65.0,86.0
581,123.96124505833332,124.25464771875,55.0,84.0
582,123.96124505833332,124.6452725625,62.0,85.0
583,124.37791155833332,124.69041143333332,50.0,83.0
584,123.96124505833332,124.72513364166666,43.0,91.0
585,124.79457805833333,125.04110573749999,55.0,85.0
586,124.79457805833333,125.25811953958332,60.0,85.0
587,124.79457805833333,125.28763341666665,48.0,90.0
588,125.21124455833332,125.40395281458332,55.0,87.0
589,125.62791105833332,126.50464681874999,57.0,82.0
590,125.62791105833332,126.71818839999999,53.0,78.0
591,126.04457755833333,126.78242448541666,48.0,74.0
592,125.62791105833332,126.81193836249999,41.0,90.0
593,126.46124405833332,126.84318834999999,60.0,88.0
594,127.29457705833333,128.1452711625,60.0,80.0
595,127.29457705833333,128.22166002083333,57.0,75.0
596,128.12791005833333,128.5619376625,64.0,93.0
597,127.71124355833332,128.56540988333333,52.0,82.0
598,127.29457705833333,128.56714599375,45.0,90.0
599,128.54457655833332,128.96471527916665,60.0,86.0
600,128.9612430583333,129.87790935833334,65.0,90.0
601,129.37790955833333,130.06714539375,53.0,72.0
602,128.9612430583333,130.08277038749998,50.0,86.0
603,129.79457605833332,130.17478423958332,57.0,81.0
604,129.79457605833332,130.2008258958333,62.0,83.0
605,130.62790905833333,131.17651995,60.0,81.0
606,130.62790905833333,131.53763091666667,57.0,75.0
607,130.62790905833333,131.66436697708332,45.0,84.0
608,131.04457555833332,131.71645028958332,52.0,77.0
609,131.4612420583333,131.84318635,64.0,92.0
610,131.87790855833333,132.0341584958333,60.0,75.0
611,132.29457505833332,132.95082479583334,62.0,84.0
612,132.7112415583333,133.25811633958332,53.0,77.0
613,132.29457505833332,133.28936632708331,46.0,90.0
614,133.12790805833333,133.3831162895833,58.0,84.0
615,133.12790805833333,133.42999127083334,62.0,88.0
616,133.96124105833331,134.24596316666666,60.0,79.0
617,133.96124105833331,134.3414492395833,57.0,73.0
618,133.96124105833331,135.1904072333333,41.0,88.0
619,134.37790755833333,135.19214334375,48.0,76.0
620,134.79457405833332,135.21297666875,53.0,85.0
621,135.0029073083333,135.26505998124998,57.0,84.0
622,135.21124055833332,135.32061551458332,60.0,80.0
623,135.62790705833334,136.05672633125,62.0,86.0
624,135.62790705833334,136.0706152145833,58.0,85.0
625,135.62790705833334,136.09144853958333,55.0,84.0
626,136.04457355833333,136.62096221666667,50.0,77.0
627,136.46124005833332,136.84144823958331,58.0,91.0
628,136.46124005833332,136.93346209166666,62.0,91.0
629,135.62790705833334,136.94561486458332,43.0,91.0
630,136.87790655833334,137.18693421249998,55.0,89.0
631,137.29457305833333,137.44387855416664,55.0,85.0
632,137.29457305833333,137.489017425,60.0,91.0
633,137.29457305833333,137.52373963333332,64.0,92.0
634,137.29457305833333,137.57582294583332,48.0,90.0
635,137.71123955833332,138.23033657291666,46.0,90.0
636,138.12790605833334,138.40394761458333,50.0,99.0
637,137.71123955833332,138.44040593333332,58.0,74.0
638,138.12790605833334,138.56366977291665,62.0,90.0
639,138.54457255833333,138.7702669125,53.0,86.0
640,138.54457255833333,138.8952668625,65.0,91.0
641,138.96123905833332,139.28702475625,64.0,97.0
642,138.96123905833332,139.35895455833332,60.0,90.0
643,139.59053343333332,139.7063228708333,60.0,95.0
644,139.3800071833333,139.77298951666666,55.0,85.0
645,139.8010596833333,140.08351573541665,62.0,99.0
646,138.96123905833332,140.15719992291665,48.0,101.0
647,139.8010596833333,140.15719992291665,55.0,89.0
648,140.2221121833333,140.3431647770833,60.0,101.0
649,140.6431646833333,140.81509445416665,55.0,82.0
650,140.6431646833333,141.25144296874998,57.0,84.0
651,140.6431646833333,141.35908181458333,53.0,80.0
652,141.06220693333333,141.62644281874998,48.0,84.0
653,141.47887343333332,141.63685948124999,57.0,93.0
654,141.47887343333332,141.6611650270833,60.0,91.0
655,140.6431646833333,141.85213717291666,41.0,90.0
656,141.8955399333333,142.04484542916666,48.0,66.0
657,142.10387318333332,142.65074796458333,53.0,87.0
658,142.31220643333333,142.71498405,57.0,82.0
659,142.31220643333333,142.78963679791664,60.0,83.0
660,142.31220643333333,142.81567845416666,65.0,90.0
661,142.72887293333332,143.22019218124998,48.0,76.0
662,142.31220643333333,143.46845597083333,41.0,91.0
663,143.35387268333332,143.47713652291665,48.0,91.0
664,143.1455394333333,143.55005316041667,60.0,96.0
665,143.56220593333333,143.69067810416666,57.0,90.0
666,143.97887243333332,144.74449712708332,57.0,83.0
667,143.97887243333332,144.85387208333333,62.0,83.0
668,144.81220543333333,145.27748302499998,65.0,91.0
669,145.0205386833333,145.3069969020833,57.0,86.0
670,143.97887243333332,145.40421908541666,50.0,90.0
671,144.3955389333333,145.43199685208333,53.0,75.0
672,145.22887193333332,145.5465801395833,62.0,90.0
673,145.43720518333333,145.56741346458332,57.0,78.0
674,145.64553843333331,145.89206611249998,57.0,85.0
675,145.64553843333331,146.11776046666665,62.0,90.0
676,146.0622049333333,146.2601215208333,57.0,85.0
677,146.47887143333332,146.7861629770833,57.0,92.0
678,145.64553843333331,146.85387128333332,50.0,92.0
679,146.47887143333332,146.90248237499998,65.0,92.0
680,146.89553793333332,147.06741286458333,62.0,87.0
681,147.3122044333333,147.67678762083332,57.0,81.0
682,147.3122044333333,147.76185703124997,60.0,82.0
683,148.14553743333332,148.58998169999998,53.0,91.0
684,148.35387068333333,148.60734280416665,57.0,88.0
685,147.72887093333333,148.78789828749998,48.0,71.0
686,148.5622039333333,148.80352328125,60.0,89.0
687,147.3122044333333,148.83824548958333,41.0,90.0
688,148.77053718333332,148.91116212708332,65.0,92.0
689,148.97887043333333,148.9997037583333,57.0,81.0
690,148.97887043333333,149.49970355833332,65.0,90.0
691,148.97887043333333,149.5170646625,60.0,92.0
692,148.97887043333333,149.6767868208333,53.0,92.0
693,149.39553693333332,149.89380062291664,48.0,82.0
694,149.8122034333333,149.94588393541665,57.0,93.0
695,149.8122034333333,149.94935615625,53.0,91.0
696,149.8122034333333,150.01532835208332,60.0,93.0
697,148.97887043333333,150.08303665833333,41.0,91.0
698,150.22886993333333,150.35386988333332,48.0,85.0
699,150.64553643333332,150.71845307083333,38.0,90.0
700,150.64553643333332,151.527480525,57.0,88.0
701,150.64553643333332,151.66289713749998,65.0,90.0
702,151.6872026833333,151.91810536875,57.0,95.0
703,151.89553593333332,152.110813625,62.0,92.0
704,151.47886943333333,152.152480275,53.0,91.0
705,151.0622029333333,152.27748022499998,45.0,77.0
706,152.10386918333333,152.37123018749998,57.0,87.0
707,152.3122024333333,152.9372021833333,65.0,92.0
708,152.3122024333333,153.23060484374997,50.0,91.0
709,152.72886893333333,153.23754928541666,53.0,82.0
710,153.14553543333332,153.28442426666666,62.0,92.0
711,153.14553543333332,153.34345202083333,57.0,91.0
712,154.39553493333332,154.44588213541664,55.0,62.0
713,153.97886843333333,154.5205348833333,62.0,85.0
714,153.97886843333333,154.56567375416665,65.0,90.0
715,153.97886843333333,154.72192369166666,58.0,82.0
716,154.39553493333332,154.9962291375,53.0,66.0
717,154.8122014333333,155.16115962708332,58.0,90.0
718,154.8122014333333,155.16810406874998,62.0,94.0
719,154.8122014333333,155.18893739375,65.0,94.0
720,153.97886843333333,155.4337289625,46.0,91.0
721,155.22886793333333,155.55178447083333,53.0,73.0
722,155.43720118333331,155.59345112083332,58.0,89.0
723,155.64553443333332,156.13511757083333,58.0,86.0
724,155.64553443333332,156.22018698124998,62.0,91.0
725,156.27053418333333,156.3955341333333,58.0,84.0
726,156.06220093333332,156.5795618375,53.0,86.0
727,156.4788674333333,156.75143676874998,58.0,91.0
728,156.4788674333333,156.80699230208333,65.0,92.0
729,155.64553443333332,156.84865895208333,46.0,93.0
730,156.68720068333332,156.9059505958333,53.0,90.0
731,156.89553393333333,157.09345052083333,58.0,83.0
732,157.31220043333332,157.43893649375,57.0,77.0
733,157.31220043333332,157.9736585020833,55.0,80.0
734,157.31220043333332,157.99449182708332,61.0,86.0
735,157.7288669333333,158.26358894166665,52.0,83.0
736,158.14553343333333,158.39900555416665,55.0,96.0
737,158.14553343333333,158.39900555416665,61.0,95.0
738,157.31220043333332,158.4059499958333,45.0,92.0
739,158.9788664333333,159.42678292083332,57.0,88.0
740,158.9788664333333,159.7028244770833,65.0,90.0
741,159.6038661833333,159.71497724999998,57.0,77.0
742,159.39553293333333,159.944143825,45.0,73.0
743,158.9788664333333,160.0378937875,38.0,92.0
744,159.81219943333332,160.04831044999997,62.0,92.0
745,159.81219943333332,160.09344932083332,57.0,93.0
746,160.2288659333333,160.32956033749997,38.0,91.0
747,160.64553243333333,161.13685168125,58.0,80.0
748,160.64553243333333,161.17678222083333,62.0,90.0
749,160.64553243333333,161.25490718958332,55.0,86.0
750,161.4788654333333,161.70108756666664,55.0,91.0
751,161.4788654333333,161.74622643749998,62.0,91.0
752,161.68719868333332,161.89032360208333,58.0,88.0
753,161.06219893333332,162.1837262625,50.0,76.0
754,161.89553193333333,162.20976791874998,55.0,91.0
755,160.64553243333333,162.21844847083332,43.0,91.0
756,162.1038651833333,162.23233735416665,58.0,91.0
757,162.31219843333332,162.41636505833333,58.0,56.0
758,162.31219843333332,162.76185103125,67.0,93.0
759,162.7288649333333,162.94587873541664,62.0,91.0
760,162.93719818333332,163.0517814708333,55.0,84.0
761,162.52053168333333,163.28615637708333,50.0,85.0
762,162.31219843333332,163.3538646833333,43.0,92.0
763,163.1455314333333,163.47192019166664,58.0,97.0
764,163.1455314333333,163.50664239999998,55.0,91.0
765,163.1455314333333,163.56046182291664,62.0,96.0
766,163.56219793333332,163.85212837291664,43.0,92.0
767,163.9788644333333,164.14205881249998,55.0,90.0
768,163.9788644333333,164.15594769583333,60.0,90.0
769,163.9788644333333,164.20108656666665,48.0,91.0
770,164.3955309333333,164.506642,48.0,79.0
771,164.3955309333333,164.52226699374998,55.0,78.0
772,164.3955309333333,164.52400310416664,60.0,82.0
773,164.81219743333332,165.04483622916666,55.0,90.0
774,164.81219743333332,165.05525289166664,60.0,93.0
775,164.81219743333332,165.37296109791666,48.0,99.0
776,165.22886393333332,165.45629439791665,55.0,94.0
777,165.22886393333332,165.48407216458332,62.0,95.0
778,165.6455304333333,165.85386368333332,48.0,104.0
779,165.6455304333333,165.8903220020833,64.0,99.0
780,165.6455304333333,165.89900255416666,55.0,92.0
781,165.6455304333333,165.90768310624998,60.0,96.0
782,166.06219693333333,166.24796074791664,55.0,92.0
783,166.06219693333333,166.25837741041664,60.0,92.0
784,166.06219693333333,166.30004406041667,48.0,96.0
785,166.47886343333332,167.12643261875,61.0,97.0
786,166.47886343333332,167.19934925624997,45.0,94.0
787,166.47886343333332,167.22191869166664,57.0,87.0
788,167.31219643333333,167.51879357291665,57.0,90.0
789,167.31219643333333,167.5587241125,65.0,88.0
790,167.72886293333332,167.9476128458333,57.0,78.0
791,167.72886293333332,167.95629339791665,65.0,86.0
792,167.72886293333332,167.96323783958331,62.0,85.0
793,168.1455294333333,168.35907101458332,57.0,90.0
794,168.1455294333333,168.40247377499998,62.0,94.0
795,168.1455294333333,168.40247377499998,65.0,92.0
796,168.56219593333333,168.78268195624997,62.0,83.0
797,168.56219593333333,168.860806925,65.0,78.0
798,168.56219593333333,168.87643191874997,57.0,78.0
799,167.31219643333333,169.01879297291666,50.0,95.0
800,168.97886243333332,169.2080290083333,57.0,81.0
801,168.97886243333332,169.2496956583333,61.0,90.0
802,168.97886243333332,169.2496956583333,65.0,88.0
803,169.3955289333333,169.51011222083332,57.0,64.0
804,169.3955289333333,169.53094554583333,65.0,73.0
805,169.3955289333333,169.5378899875,61.0,76.0
806,169.81219543333333,169.9267787208333,57.0,90.0
807,169.81219543333333,169.94066760416666,61.0,94.0
808,169.81219543333333,169.95629259791664,65.0,90.0
809,168.97886243333332,170.00143146874998,49.0,91.0
810,170.22886193333332,170.33302855833333,61.0,86.0
811,170.22886193333332,170.3590702145833,57.0,78.0
812,170.22886193333332,170.3920563125,65.0,81.0
813,170.6455284333333,170.8330283583333,57.0,83.0
814,170.6455284333333,170.85559779374998,65.0,86.0
815,170.6455284333333,170.8712227875,60.0,91.0
816,171.06219493333333,171.1715698895833,57.0,75.0
817,171.06219493333333,171.18372266249997,65.0,78.0
818,171.06219493333333,171.18719488333332,60.0,81.0
819,171.47886143333332,171.58823638958333,57.0,90.0
820,171.47886143333332,171.6003891625,60.0,94.0
821,171.47886143333332,171.61601415624997,65.0,91.0
822,171.8955279333333,172.0726111958333,57.0,81.0
823,171.8955279333333,172.09865285208332,60.0,87.0
824,170.6455284333333,172.15941671666664,48.0,91.0
825,171.8955279333333,172.1767778208333,65.0,85.0
826,172.31219443333333,172.50490268958333,65.0,78.0
827,172.31219443333333,172.5569860020833,62.0,82.0
828,172.31219443333333,172.56045822291665,59.0,80.0
829,172.72886093333332,172.82955533749998,62.0,86.0
830,172.72886093333332,172.83302755833333,59.0,83.0
831,172.72886093333332,172.8382358895833,65.0,83.0
832,173.1455274333333,173.85386048333334,59.0,97.0
833,172.31219443333333,173.87469380833332,47.0,87.0
834,173.1455274333333,173.89031880208333,62.0,101.0
835,173.1455274333333,173.91809656875,65.0,101.0
836,173.56219393333333,173.98233265416667,53.0,85.0
837,173.97886043333332,174.26184643124998,55.0,85.0
838,173.97886043333332,174.42156858958333,64.0,90.0
839,173.97886043333332,174.46323523958333,60.0,88.0
840,174.81219343333333,174.9962211375,55.0,93.0
841,174.81219343333333,175.20108216666665,60.0,95.0
842,174.81219343333333,175.22017938124998,64.0,97.0
843,173.97886043333332,175.26879047291663,48.0,91.0
844,175.64552643333332,175.85385968333333,57.0,87.0
845,175.64552643333332,176.00837351041665,60.0,90.0
846,175.64552643333332,176.0153179520833,64.0,93.0
847,176.06219293333334,176.36254003541666,57.0,90.0
848,175.64552643333332,176.38337336041664,45.0,91.0
849,176.47885943333333,176.60906771458332,57.0,80.0
850,176.47885943333333,176.72885933333333,62.0,89.0
851,176.47885943333333,176.78267875625,50.0,91.0
852,176.47885943333333,176.79309541875,65.0,89.0
853,177.3121924333333,177.4962201375,55.0,82.0
854,177.3121924333333,177.6038589833333,58.0,77.0
855,177.3121924333333,177.81045612291666,62.0,86.0
856,177.72885893333333,178.0205254833333,55.0,86.0
857,177.3121924333333,178.19760874583332,43.0,90.0
858,178.14552543333332,178.47538641249997,60.0,91.0
859,178.14552543333332,178.5205252833333,55.0,96.0
860,178.14552543333332,178.6212196875,48.0,96.0
861,178.9788584333333,179.36774716666665,57.0,82.0
862,178.9788584333333,179.44587213541666,53.0,80.0
863,179.8121914333333,180.0048996895833,53.0,83.0
864,179.8121914333333,180.02226079374998,57.0,90.0
865,179.8121914333333,180.05351078125,60.0,86.0
866,179.39552493333332,180.35559399374998,48.0,76.0
867,178.9788584333333,180.42851063125,41.0,91.0
868,180.2288579333333,180.49448282708332,53.0,82.0
869,180.64552443333332,180.98232985416666,53.0,85.0
870,180.64552443333332,181.03267705624998,57.0,91.0
871,180.64552443333332,181.07087148541666,60.0,92.0
872,180.64552443333332,181.0899687,65.0,87.0
873,181.27052418333332,181.3798991395833,53.0,93.0
874,181.0621909333333,181.55871851249998,48.0,90.0
875,181.4788574333333,181.73232955416665,53.0,94.0
876,181.4788574333333,181.75489898958332,57.0,97.0
877,180.64552443333332,181.76357954166664,41.0,91.0
878,181.4788574333333,181.7670517625,65.0,92.0
879,181.4788574333333,181.77920453541665,60.0,97.0
880,181.89552393333332,181.93024614166666,60.0,59.0
881,181.89552393333332,182.28614877708333,53.0,97.0
882,182.10385718333333,182.3121904333333,65.0,96.0
883,181.6871906833333,182.40246817499997,48.0,104.0
884,182.3121904333333,182.5361486770833,57.0,86.0
885,182.3121904333333,182.57607921666664,65.0,91.0
886,182.7288569333333,182.84517633124997,57.0,81.0
887,182.7288569333333,182.86948187708333,62.0,83.0
888,182.7288569333333,182.87642631875,65.0,85.0
889,182.3121904333333,183.360801125,38.0,96.0
890,183.14552343333332,183.36600945624997,57.0,95.0
891,183.14552343333332,183.4059399958333,65.0,99.0
892,183.14552343333332,183.40941221666665,62.0,97.0
893,183.56218993333331,183.6923982145833,57.0,90.0
894,183.9788564333333,184.28614797708332,59.0,91.0
895,183.9788564333333,184.32434240624997,55.0,90.0
896,184.60385618333333,184.694133925,59.0,79.0
897,184.60385618333333,184.7444811270833,62.0,86.0
898,184.39552293333332,184.8920505125,50.0,82.0
899,184.81218943333332,185.04830045,55.0,96.0
900,184.81218943333332,185.06913377499998,59.0,95.0
901,184.81218943333332,185.08996709999997,67.0,92.0
902,184.81218943333332,185.09864765208332,62.0,92.0
903,183.9788564333333,185.13336986041665,43.0,92.0
904,185.02052268333333,185.13684208125,50.0,91.0
905,185.2288559333333,185.34864755208332,55.0,96.0
906,185.64552243333333,185.72711962291666,36.0,91.0
907,185.64552243333333,185.92330009999998,60.0,93.0
908,185.64552243333333,185.93371676249998,55.0,94.0
909,186.06218893333332,186.1976055458333,48.0,80.0
910,186.06218893333332,186.21149442916663,60.0,81.0
911,186.06218893333332,186.21843887083332,64.0,86.0
912,186.06218893333332,186.22538331249999,55.0,81.0
913,186.4788554333333,186.6611470270833,48.0,104.0
914,186.4788554333333,186.69067904791666,64.0,91.0
915,186.4788554333333,186.69590552291666,55.0,91.0
916,186.4788554333333,186.69764768125,60.0,91.0
917,186.89625373125,187.09660193958334,48.0,96.0
918,186.89625373125,187.09834409791665,64.0,91.0
919,186.89625373125,187.10182841458334,55.0,88.0
920,186.89625373125,187.10357057291665,60.0,88.0
921,187.31437173125,187.61228080625,55.0,93.0
922,187.31437173125,187.63318670625,60.0,92.0
923,187.31437173125,187.64712397291666,64.0,94.0
924,187.31437173125,187.65235044791666,48.0,107.0
925,187.73248973124998,188.04433607291665,48.0,96.0
926,187.73248973124998,188.04956254791665,55.0,93.0
927,187.73248973124998,188.05653118125,60.0,92.0
928,188.15060773125,188.43413474375,48.0,106.0
929,188.15060773125,188.44299998333332,65.0,90.0
930,188.15060773125,188.45186522291667,55.0,90.0
931,188.15060773125,188.46959570208332,60.0,91.0
932,188.57243248125,188.71427631458334,60.0,90.0
933,188.57243248125,188.93236120833333,67.0,92.0
934,188.57243248125,188.98909874166668,48.0,97.0
935,188.99796398125,189.17172267708332,55.0,82.0
936,188.99796398125,189.60837289166665,57.0,84.0
937,188.99796398125,189.7160117375,53.0,80.0
938,189.41913685625,189.98337274166667,48.0,84.0
939,189.83580335624998,189.99378940416665,57.0,93.0
940,189.83580335624998,190.01809495,60.0,91.0
941,188.99796398125,190.20906709583332,41.0,90.0
942,190.25246985625,190.40177535208332,48.0,66.0
943,190.46080310624998,191.0076778875,53.0,87.0
944,190.66913635625,191.07191397291666,57.0,82.0
945,190.66913635625,191.14656672083333,60.0,83.0
946,190.66913635625,191.17260837708332,65.0,90.0
947,191.08580285624998,191.57712210416665,48.0,76.0
948,190.66913635625,191.82538589375,41.0,91.0
949,191.71080260624998,191.83406644583332,48.0,91.0
950,191.50246935625,191.90698308333333,60.0,96.0
951,191.91913585625,192.04760802708333,57.0,90.0
952,192.33580235624999,193.10142704999998,57.0,83.0
953,192.33580235624999,193.21080200625,62.0,83.0
954,193.16913535625,193.63441294791667,65.0,91.0
955,193.37746860625,193.663926825,57.0,86.0
956,192.33580235624999,193.76114900833332,50.0,90.0
957,192.75246885625,193.788926775,53.0,75.0
958,193.58580185625,193.9035100625,62.0,90.0
959,193.79413510625,193.9243433875,57.0,78.0
960,194.00246835625,194.24899603541667,57.0,85.0
961,194.00246835625,194.47469038958332,62.0,90.0
962,194.41913485625,194.61705144375,57.0,85.0
963,194.83580135625,195.1430929,57.0,92.0
964,194.00246835625,195.21080120624998,50.0,92.0
965,194.83580135625,195.25941229791667,65.0,92.0
966,195.25246785625,195.4243427875,62.0,87.0
967,195.66913435625,196.03371754375,57.0,81.0
968,195.66913435625,196.11878695416667,60.0,82.0
969,196.50246735624998,196.94691162291667,53.0,91.0
970,196.71080060625,196.9642727270833,57.0,88.0
971,196.08580085625,197.14482821041665,48.0,71.0
972,196.91913385625,197.16045320416666,60.0,89.0
973,195.66913435625,197.1951754125,41.0,90.0
974,197.12746710624998,197.26809205,65.0,92.0
975,197.33580035625,197.35663368125,57.0,81.0
976,197.33580035625,197.85663348125,65.0,90.0
977,197.33580035625,197.87399458541665,60.0,92.0
978,197.33580035625,198.03371674375,53.0,92.0
979,197.75246685624998,198.25073054583333,48.0,82.0
980,198.16913335625,198.30281385833334,57.0,93.0
981,198.16913335625,198.30628607916665,53.0,91.0
982,198.16913335625,198.37225827499998,60.0,93.0
983,197.33580035625,198.43996658125,41.0,91.0
984,198.58579985625,198.71079980624998,48.0,85.0
985,199.00246635624998,199.07538299375,38.0,90.0
986,199.00246635624998,199.88441044791665,57.0,88.0
987,199.00246635624998,200.01982706041667,65.0,90.0
988,200.04413260625,200.27503529166665,57.0,95.0
989,200.25246585624998,200.46774354791665,62.0,92.0
990,199.83579935625,200.50941019791665,53.0,91.0
991,199.41913285625,200.63441014791667,45.0,77.0
992,200.46079910625,200.72816011041667,57.0,87.0
993,200.66913235625,201.29413210625,65.0,92.0
994,200.66913235625,201.58753476666666,50.0,91.0
995,201.08579885625,201.59447920833333,53.0,82.0
996,201.50246535624999,201.64135418958332,62.0,92.0
997,201.50246535624999,201.70038194375,57.0,91.0
998,202.75246485625,202.80281205833333,55.0,62.0
999,202.33579835625,202.87746480625,62.0,85.0
1000,202.33579835625,202.92260367708332,65.0,90.0
1001,202.33579835625,203.07885361458332,58.0,82.0
1002,202.75246485625,203.35315906041666,53.0,66.0
1003,203.16913135625,203.51808954999998,58.0,90.0
1004,203.16913135625,203.52503399166665,62.0,94.0
1005,203.16913135625,203.54586731666666,65.0,94.0
1006,202.33579835625,203.79065888541666,46.0,91.0
1007,203.58579785625,203.90871439375,53.0,73.0
1008,203.79413110625,203.95038104374999,58.0,89.0
1009,204.00246435625,204.49204749375,58.0,86.0
1010,204.00246435625,204.57711690416667,62.0,91.0
1011,204.62746410625,204.75246405625,58.0,84.0
1012,204.41913085624998,204.93649176041666,53.0,86.0
1013,204.83579735625,205.10836669166667,58.0,91.0
1014,204.83579735625,205.163922225,65.0,92.0
1015,204.00246435625,205.205588875,46.0,93.0
1016,205.04413060625,205.26288051875,53.0,90.0
1017,205.25246385625,205.45038044375,58.0,83.0
1018,205.66913035624998,205.79586641666666,57.0,77.0
1019,205.66913035624998,206.330588425,55.0,80.0
1020,205.66913035624998,206.35142175,61.0,86.0
1021,206.08579685625,206.62051886458332,52.0,83.0
1022,206.50246335625,206.7559354770833,55.0,96.0
1023,206.50246335625,206.7559354770833,61.0,95.0
1024,205.66913035624998,206.76287991875,45.0,92.0
1025,207.33579635625,207.78371284374998,57.0,88.0
1026,207.33579635625,208.0597544,65.0,90.0
1027,207.96079610625,208.07190717291667,57.0,77.0
1028,207.75246285625,208.30107374791666,45.0,73.0
1029,207.33579635625,208.39482371041666,38.0,92.0
1030,208.16912935624998,208.40524037291667,62.0,92.0
1031,208.16912935624998,208.45037924374998,57.0,93.0
1032,208.58579585625,208.68649026041666,38.0,91.0
1033,209.00246235625,209.49378160416666,58.0,80.0
1034,209.00246235625,209.53371214375,62.0,90.0
1035,209.00246235625,209.61183711249998,55.0,86.0
1036,209.83579535625,210.05801748958334,55.0,91.0
1037,209.83579535625,210.10315636041665,62.0,91.0
1038,210.04412860624998,210.247253525,58.0,88.0
1039,209.41912885624998,210.54065618541665,50.0,76.0
1040,210.25246185625,210.56669784166667,55.0,91.0
1041,209.00246235625,210.57537839375,43.0,91.0
1042,210.46079510625,210.58926727708334,58.0,91.0
1043,210.66912835624998,210.77329498125,58.0,56.0
1044,210.66912835624998,211.11878095416665,67.0,93.0
1045,211.08579485625,211.30280865833333,62.0,91.0
1046,211.29412810624999,211.40871139375,55.0,84.0
1047,210.87746160625,211.6430863,50.0,85.0
1048,210.66912835624998,211.71079460625,43.0,92.0
1049,211.50246135625,211.82885011458333,58.0,97.0
1050,211.50246135625,211.86357232291667,55.0,91.0
1051,211.50246135625,211.91739174583333,62.0,96.0
1052,211.91912785625,212.20905829583333,43.0,92.0
1053,212.33579435625,212.49898873541667,55.0,90.0
1054,212.33579435625,212.51287761875,60.0,90.0
1055,212.33579435625,212.55801648958334,48.0,91.0
1056,212.75246085625,212.86357192291666,48.0,79.0
1057,212.75246085625,212.87919691666667,55.0,78.0
1058,212.75246085625,212.88093302708333,60.0,82.0
1059,213.16912735625,213.40176615208333,55.0,90.0
1060,213.16912735625,213.41218281458333,60.0,93.0
1061,213.16912735625,213.72989102083332,48.0,99.0
1062,213.58579385625,213.8132243208333,55.0,94.0
1063,213.58579385625,213.8410020875,62.0,95.0
1064,214.00246035625,214.21079360624998,48.0,104.0
1065,214.00246035625,214.247251925,64.0,99.0
1066,214.00246035625,214.25593247708332,55.0,92.0
1067,214.00246035625,214.26461302916667,60.0,96.0
1068,214.41912685625,214.60489067083333,55.0,92.0
1069,214.41912685625,214.61530733333333,60.0,92.0
1070,214.41912685625,214.65697398333333,48.0,96.0
1071,214.83579335625,215.48336254166665,61.0,97.0
1072,214.83579335625,215.55627917916667,45.0,94.0
1073,214.83579335625,215.57884861458334,57.0,87.0
1074,215.66912635625,215.8757234958333,57.0,90.0
1075,215.66912635625,215.91565403541665,65.0,88.0
1076,216.08579285624998,216.30454276875,57.0,78.0
1077,216.08579285624998,216.31322332083332,65.0,86.0
1078,216.08579285624998,216.32016776249998,62.0,85.0
1079,216.50245935625,216.71600093749998,57.0,90.0
1080,216.50245935625,216.75940369791667,62.0,94.0
1081,216.50245935625,216.75940369791667,65.0,92.0
1082,216.91912585625,217.13961187916667,62.0,83.0
1083,216.91912585625,217.21773684791665,65.0,78.0
1084,216.91912585625,217.23336184166666,57.0,78.0
1085,215.66912635625,217.37572289583332,50.0,95.0
1086,217.33579235624998,217.56495893125,57.0,81.0
1087,217.33579235624998,217.60662558125,61.0,90.0
1088,217.33579235624998,217.60662558125,65.0,88.0
1089,217.75245885625,217.86704214374998,57.0,64.0
1090,217.75245885625,217.88787546875,65.0,73.0
1091,217.75245885625,217.89481991041666,61.0,76.0
1092,218.16912535625,218.28370864375,57.0,90.0
1093,218.16912535625,218.29759752708333,61.0,94.0
1094,218.16912535625,218.31322252083334,65.0,90.0
1095,217.33579235624998,218.35836139166665,49.0,91.0
1096,218.58579185624998,218.68995848125,61.0,86.0
1097,218.58579185624998,218.7160001375,57.0,78.0
1098,218.58579185624998,218.74898623541665,65.0,81.0
1099,219.00245835625,219.18995828125,57.0,83.0
1100,219.00245835625,219.21252771666667,65.0,86.0
1101,219.00245835625,219.22815271041665,60.0,91.0
1102,219.41912485625,219.5284998125,57.0,75.0
1103,219.41912485625,219.54065258541667,65.0,78.0
1104,219.41912485625,219.54412480624998,60.0,81.0
1105,219.83579135624998,219.9451663125,57.0,90.0
1106,219.83579135624998,219.95731908541666,60.0,94.0
1107,219.83579135624998,219.97294407916667,65.0,91.0
1108,220.25245785625,220.42954111875,57.0,81.0
1109,220.25245785625,220.45558277499998,60.0,87.0
1110,219.00245835625,220.51634663958333,48.0,91.0
1111,220.25245785625,220.53370774375,65.0,85.0
1112,220.66912435625,220.8618326125,65.0,78.0
1113,220.66912435625,220.913915925,62.0,82.0
1114,220.66912435625,220.9173881458333,59.0,80.0
1115,221.08579085625,221.18648526041665,62.0,86.0
1116,221.08579085625,221.18995748125,59.0,83.0
1117,221.08579085625,221.1951658125,65.0,83.0
1118,221.50245735624998,222.21079040625,59.0,97.0
1119,220.66912435625,222.23162373124998,47.0,87.0
1120,221.50245735624998,222.247248725,62.0,101.0
1121,221.50245735624998,222.27502649166667,65.0,101.0
1122,221.91912385625,222.33926257708333,53.0,85.0
1123,222.33579035625,222.61877635416664,55.0,85.0
1124,222.33579035625,222.7784985125,64.0,90.0
1125,222.33579035625,222.8201651625,60.0,88.0
1126,223.16912335625,223.35315106041665,55.0,93.0
1127,223.16912335625,223.55801208958331,60.0,95.0
1128,223.16912335625,223.57710930416667,64.0,97.0
1129,222.33579035625,223.62572039583333,48.0,91.0
1130,224.00245635624998,224.21078960625,57.0,87.0
1131,224.00245635624998,224.36530343333334,60.0,90.0
1132,224.00245635624998,224.372247875,64.0,93.0
1133,224.41912285625,224.71946995833332,57.0,90.0
1134,224.00245635624998,224.74030328333333,45.0,91.0
1135,224.83578935625,224.96599763749998,57.0,80.0
1136,224.83578935625,225.08578925625,62.0,89.0
1137,224.83578935625,225.13960867916666,50.0,91.0
1138,224.83578935625,225.15002534166666,65.0,89.0
1139,225.66912235625,225.85315006041665,55.0,82.0
1140,225.66912235625,225.96078890625,58.0,77.0
1141,225.66912235625,226.16738604583333,62.0,86.0
1142,226.08578885625,226.37745540625,55.0,86.0
1143,225.66912235625,226.55453866874998,43.0,90.0
1144,226.50245535624998,226.83231633541666,60.0,91.0
1145,226.50245535624998,226.87745520624998,55.0,96.0
1146,226.50245535624998,226.97814961041666,48.0,96.0
1147,227.33578835625,227.72467708958334,57.0,82.0
1148,227.33578835625,227.80280205833333,53.0,80.0
1149,228.16912135625,228.3618296125,53.0,83.0
1150,228.16912135625,228.37919071666664,57.0,90.0
1151,228.16912135625,228.41044070416666,60.0,86.0
1152,227.75245485624998,228.71252391666667,48.0,76.0
1153,227.33578835625,228.78544055416666,41.0,91.0
1154,228.58578785625,228.85141275,53.0,82.0
1155,229.00245435624998,229.33925977708333,53.0,85.0
1156,229.00245435624998,229.38960697916667,57.0,91.0
1157,229.00245435624998,229.42780140833332,60.0,92.0
1158,229.00245435624998,229.44689862291665,65.0,87.0
1159,229.62745410624998,229.7368290625,53.0,93.0
1160,229.41912085625,229.91564843541664,48.0,90.0
1161,229.83578735625,230.08925947708332,53.0,94.0
1162,229.83578735625,230.1118289125,57.0,97.0
1163,229.00245435624998,230.12050946458334,41.0,91.0
1164,229.83578735625,230.12398168541665,65.0,92.0
1165,229.83578735625,230.13613445833332,60.0,97.0
1166,230.25245385624999,230.28717606458332,60.0,59.0
1167,230.25245385624999,230.6430787,53.0,97.0
1168,230.46078710625,230.66912035625,65.0,96.0
1169,230.04412060624998,230.75939809791666,48.0,104.0
1170,230.66912035625,230.91564803541667,62.0,88.0
1171,230.66912035625,230.92953691875,65.0,86.0
1172,231.08578685625,231.25418956666667,57.0,74.0
1173,231.08578685625,231.26981456041665,62.0,81.0
1174,231.08578685625,231.27502289166665,65.0,76.0
1175,231.50245335625,231.71946715833332,57.0,90.0
1176,231.50245335625,231.74377270416664,62.0,92.0
1177,231.50245335625,231.747244925,65.0,91.0
1178,231.91911985625,232.10488367083332,62.0,90.0
1179,231.91911985625,232.20731418541666,65.0,87.0
1180,231.91911985625,232.21252251666667,57.0,82.0
1181,230.66912035625,232.27502249166668,50.0,91.0
1182,232.33578635625,232.5701612625,57.0,82.0
1183,232.33578635625,232.59793902916667,61.0,87.0
1184,232.33578635625,232.60661958125,65.0,88.0
1185,232.75245285625,232.8930778,57.0,66.0
1186,232.75245285625,232.92085556666666,61.0,82.0
1187,232.75245285625,232.92432778749998,65.0,79.0
1188,232.33578635625,233.30800818958332,49.0,91.0
1189,233.16911935625,233.330577625,57.0,91.0
1190,233.16911935625,233.34273039791665,61.0,99.0
1191,233.16911935625,233.37050816458333,65.0,90.0
1192,233.58578585625,233.7298830208333,61.0,89.0
1193,233.58578585625,233.7368274625,57.0,85.0
1194,233.58578585625,233.85141074999999,65.0,83.0
1195,233.95210515416665,234.56668824166667,59.0,83.0
1196,233.97293847916666,234.60488267083332,62.0,90.0
1197,233.98335514166666,234.62571599583333,65.0,84.0
1198,234.39134108958334,234.872243675,53.0,75.0
1199,233.99029958333333,234.93474365,47.0,93.0
1200,234.82884091458334,235.06147971041665,71.0,90.0
1201,234.830577025,235.0736324833333,65.0,88.0
1202,234.82363258333334,235.09272969791667,62.0,91.0
1203,234.83578535625,235.11529913333334,59.0,83.0
1204,235.65002114166666,236.66390962499997,58.0,80.0
1205,235.68647946041665,236.7159929375,46.0,91.0
1206,235.78717386458334,236.73161793124999,62.0,83.0
1207,235.87571549583333,236.7368262625,65.0,84.0
1208,237.06842335208333,238.34446450833332,43.0,81.0
1209,237.1326594375,238.40870059374998,50.0,81.0
1210,237.02154837083333,239.0076586875,65.0,83.0
1211,237.07363168333333,239.01633923958332,70.0,87.0
1212,237.1743260875,239.01807535,73.0,78.0
1213,239.43300573958334,239.60140845,53.0,83.0
1214,239.58925567708332,239.70036674374998,55.0,90.0
1215,239.7767556020833,240.01460272916665,57.0,82.0
1216,239.9642555270833,240.19342210208333,60.0,88.0
1217,240.18300543958333,240.3409914875,65.0,85.0
1218,240.43300533958333,240.56147751041667,67.0,66.0
1219,240.65522747291666,241.03717176458332,69.0,80.0
1220,240.95731068541664,241.28196333333332,72.0,79.0
1221,241.26460222916666,241.40001884166665,77.0,82.0
1222,241.87050476458333,241.9764075,81.0,59.0
1223,241.94515751249997,242.05453246874998,89.0,87.0
1224,239.23335304166665,243.05974039999998,48.0,84.0
1225,238.99897813541665,243.080573725,41.0,92.0
