,start,end,pitch,velocity
0,13.339587625,13.547134250000001,53.0,74.0
1,13.716945125,14.010969510416668,53.0,71.0
2,14.094302625000001,14.676062104166668,58.0,96.0
3,14.849017625,15.385179739583334,60.0,90.0
4,15.603732625000001,18.271964614583336,62.0,102.0
5,19.377307625,19.569131020833336,62.0,92.0
6,19.754665125000002,19.954350135416668,62.0,79.0
7,20.132022625,20.721643718750002,65.0,99.0
8,20.886737625000002,21.182334333333333,63.0,100.0
9,21.264095125,21.490509625,62.0,75.0
10,21.641452625,21.842709958333334,62.0,90.0
11,21.830131375,21.842709958333334,62.0,69.0
12,22.018810125,24.602136677083333,58.0,85.0
13,25.415027625,25.630435864583333,58.0,82.0
14,25.792385125000003,26.028233562500002,58.0,70.0
15,26.169742625,27.050243458333334,60.0,88.0
16,27.301815125,27.507789427083335,58.0,100.0
17,27.679172625,28.311246437500003,65.0,112.0
18,28.811245125000003,29.03923194791667,58.0,92.0
19,29.188602625,30.62885041666667,58.0,86.0
20,31.452747625,31.731048781250003,63.0,100.0
21,31.830105125000003,31.977903479166667,62.0,82.0
22,32.207462625000005,32.56123528125,62.0,70.0
23,32.584820125,33.23261716666667,60.0,72.0
24,33.339535125000005,33.547081750000004,60.0,76.0
25,33.528213875,33.70431404166667,58.0,67.0
26,33.716892625,36.52348903125,60.0,82.0
27,37.490467625,37.72159909375,53.0,88.0
28,37.867825125,38.15241557291667,53.0,85.0
29,38.245182625000005,38.54864094791667,58.0,112.0
30,38.622540125,39.16656385416667,60.0,85.0
31,39.377255125000005,42.471586625,62.0,93.0
32,43.528187625,43.7451681875,62.0,97.0
33,43.905545125,44.07221135416667,62.0,93.0
34,44.282902625000006,44.65239851041667,67.0,99.0
35,44.660260125,45.124095385416666,65.0,92.0
36,45.414975125000005,45.5942199375,62.0,79.0
37,45.792332625,46.11465882291667,60.0,85.0
38,46.169690125,49.41181997916667,58.0,82.0
39,49.565907625,49.76087566666667,58.0,102.0
40,49.943265125,50.15081175,58.0,107.0
41,50.320622625000006,50.65238276041667,60.0,100.0
42,51.452695125000005,51.70269446875,58.0,127.0
43,51.830052625,52.83005,65.0,122.0
44,53.38350766666667,54.73413305208334,70.0,102.0
45,55.603627625,55.92123685416667,63.0,122.0
46,55.980985125000004,56.1413620625,62.0,64.0
47,56.358342625000006,56.6790965,62.0,102.0
48,56.735700125,57.271862239583335,60.0,99.0
49,57.490415125000006,57.90079140625,60.0,97.0
50,58.245130125,59.87248434375,58.0,100.0
51,64.660207625,64.97938917708333,67.0,112.0
52,65.037565125,65.42750120833334,63.0,102.0
53,65.414922625,65.96838029166668,60.0,100.0
54,66.16963762500001,66.52183795833334,60.0,107.0
55,66.54699512500001,66.88032758333334,67.0,100.0
56,66.924352625,68.433782625,65.0,122.0
57,68.433782625,69.188497625,67.0,122.0
58,70.697927625,70.92905909375,63.0,107.0
59,71.07528512500001,71.44006404166667,58.0,99.0
60,71.45264262500001,72.09572269791667,57.0,92.0
61,72.584715125,72.96521727083334,57.0,97.0
62,72.962072625,73.33785780208333,63.0,100.0
63,73.32370689583334,74.76081004166667,62.0,89.0
64,76.735647625,77.02181039583334,67.0,99.0
65,77.113005125,77.47778404166667,63.0,112.0
66,77.490362625,78.47463677083334,60.0,99.0
67,78.62243512500001,79.27180448958333,67.0,107.0
68,79.377150125,79.87085952083333,65.0,100.0
69,80.131865125,80.40387698958334,62.0,78.0
70,80.509222625,80.80010236458334,60.0,99.0
71,80.88658012500001,82.00764636458334,58.0,102.0
72,82.396010125,82.68217289583333,55.0,93.0
73,82.773367625,83.1412911875,63.0,122.0
74,83.15072512500001,83.50607010416667,62.0,96.0
75,83.52808262500001,84.018647375,62.0,100.0
76,83.905440125,84.12399301041667,60.0,100.0
77,84.282797625,84.61770240625,60.0,99.0
78,84.660155125,84.93531163541667,58.0,107.0
79,85.037512625,87.89914033333334,60.0,117.0
80,91.829947625,92.03749425000001,53.0,74.0
81,92.207305125,92.50132951041667,53.0,71.0
82,92.584662625,92.9525861875,58.0,96.0
83,92.96202012500001,93.27962935416667,60.0,95.0
84,93.33937762500001,93.72302441666668,58.0,89.0
85,93.716735125,96.38496711458333,62.0,102.0
86,97.86766762500001,98.05949102083333,62.0,92.0
87,98.245025125,98.44471013541667,62.0,79.0
88,98.622382625,99.21200371875001,67.0,99.0
89,99.18841887500001,99.63653090625,65.0,99.0
90,99.754455125,99.99659285416668,62.0,99.0
91,100.13181262500001,100.43841559375001,60.0,97.0
92,100.50917012500001,102.12080111458334,58.0,102.0
93,103.905387625,104.12079586458334,58.0,82.0
94,104.282745125,104.5185935625,58.0,70.0
95,104.66010262500001,105.54060345833334,60.0,88.0
96,105.792175125,105.99814942708333,58.0,100.0
97,106.169532625,106.8016064375,65.0,112.0
98,107.490283875,109.27172573958335,70.0,112.0
99,109.94310762500001,110.26071685416667,63.0,122.0
100,110.32046512500001,110.67581010416667,65.0,89.0
101,110.697822625,111.57046184375001,62.0,102.0
102,111.82989512500001,112.0657435625,60.0,97.0
103,112.20725262500001,114.39120915625,58.0,102.0
104,137.112847625,137.32039425000002,53.0,74.0
105,137.49020512500002,137.78422951041668,53.0,71.0
106,137.867562625,138.44932210416667,58.0,96.0
107,138.622277625,139.15843973958334,60.0,90.0
108,139.376992625,142.04522461458333,62.0,102.0
109,143.150567625,143.34239102083333,62.0,92.0
110,143.527925125,143.72761013541668,62.0,79.0
111,143.905282625,144.49490371875,65.0,99.0
112,144.65999762500002,144.95559433333335,63.0,100.0
113,145.037355125,145.263769625,62.0,75.0
114,145.41471262500002,145.61596995833335,62.0,90.0
115,145.603391375,145.61596995833335,62.0,69.0
116,145.792070125,148.37539667708333,58.0,85.0
117,149.18828762500002,149.40369586458334,58.0,82.0
118,149.565645125,149.8014935625,58.0,70.0
119,149.94300262500002,150.82350345833333,60.0,88.0
120,151.075075125,151.28104942708333,58.0,100.0
121,151.452432625,152.0845064375,65.0,112.0
122,152.58450512500002,152.81249194791667,58.0,92.0
123,152.961862625,154.4021104166667,58.0,86.0
124,155.226007625,155.50430878125002,63.0,100.0
125,155.603365125,155.75116347916668,62.0,82.0
126,155.980722625,156.33449528125,62.0,70.0
127,156.35808012500001,157.00587716666666,60.0,72.0
128,157.11279512500002,157.32034175,60.0,76.0
129,157.301473875,157.47757404166668,58.0,67.0
130,157.490152625,160.29674903125002,60.0,82.0
131,161.263727625,161.49485909375,53.0,88.0
132,161.64108512500002,161.92567557291667,53.0,85.0
133,162.018442625,162.32190094791667,58.0,112.0
134,162.39580012500002,162.93982385416666,60.0,85.0
135,163.150515125,166.244846625,62.0,93.0
136,167.301447625,167.5184281875,62.0,97.0
137,167.678805125,167.84547135416668,62.0,93.0
138,168.056162625,168.42565851041667,67.0,99.0
139,168.433520125,168.8973553854167,65.0,92.0
140,169.188235125,169.3674799375,62.0,79.0
141,169.56559262500002,169.88791882291667,60.0,85.0
142,169.942950125,173.1850799791667,58.0,82.0
143,173.33916762500002,173.53413566666669,58.0,102.0
144,173.716525125,173.92407175,58.0,107.0
145,174.09388262500002,174.42564276041668,60.0,100.0
146,175.225955125,175.47595446875002,58.0,127.0
147,175.603312625,176.60331000000002,65.0,122.0
148,177.15676766666667,178.50739305208333,70.0,102.0
149,179.37688762500002,179.6944968541667,63.0,122.0
150,179.754245125,179.9146220625,62.0,64.0
151,180.131602625,180.4523565,62.0,102.0
152,180.50896012500002,181.04512223958335,60.0,99.0
153,181.26367512500002,181.67405140625002,60.0,97.0
154,182.018390125,183.64574434375,58.0,100.0
155,188.43346762500002,188.75264917708336,67.0,112.0
156,188.810825125,189.20076120833335,63.0,102.0
157,189.188182625,189.74164029166667,60.0,100.0
158,189.942897625,190.29509795833334,60.0,107.0
159,190.32025512500002,190.65358758333335,67.0,100.0
160,190.697612625,192.207042625,65.0,122.0
161,192.207042625,192.96175762500002,67.0,122.0
162,194.471187625,194.70231909375002,63.0,107.0
163,194.84854512500002,195.21332404166668,58.0,99.0
164,195.225902625,195.86898269791666,57.0,92.0
165,196.357975125,196.73847727083336,57.0,97.0
166,196.735332625,197.11111780208336,63.0,100.0
167,197.09696689583333,198.53407004166667,62.0,89.0
168,200.508907625,200.79507039583333,67.0,99.0
169,200.88626512500002,201.2510440416667,63.0,112.0
170,201.263622625,202.24789677083334,60.0,99.0
171,202.395695125,203.04506448958335,67.0,107.0
172,203.150410125,203.64411952083336,65.0,100.0
173,203.905125125,204.17713698958335,62.0,78.0
174,204.282482625,204.57336236458335,60.0,99.0
175,204.65984012500002,205.78090636458333,58.0,102.0
176,206.169270125,206.45543289583335,55.0,93.0
177,206.546627625,206.91455118750002,63.0,122.0
178,206.923985125,207.2793301041667,62.0,96.0
179,207.30134262500002,207.79190737500002,62.0,100.0
180,207.678700125,207.89725301041668,60.0,100.0
181,208.05605762500002,208.39096240625,60.0,99.0
182,208.433415125,208.7085716354167,58.0,107.0
183,208.810772625,211.67240033333334,60.0,117.0
184,215.603207625,215.81075425,53.0,74.0
185,215.980565125,216.2745895104167,53.0,71.0
186,216.35792262500001,216.72584618750003,58.0,96.0
187,216.735280125,217.05288935416667,60.0,95.0
188,217.11263762500002,217.49628441666667,58.0,89.0
189,217.489995125,220.15822711458335,62.0,102.0
190,221.64092762500002,221.83275102083334,62.0,92.0
191,222.018285125,222.21797013541666,62.0,79.0
192,222.39564262500002,222.98526371875002,67.0,99.0
193,222.96167887500002,223.40979090625,65.0,99.0
194,223.52771512500001,223.7698528541667,62.0,99.0
195,223.905072625,224.21167559375002,60.0,97.0
196,224.28243012500002,225.89406111458334,58.0,102.0
197,227.67864762500002,227.89405586458335,58.0,82.0
198,228.056005125,228.29185356250002,58.0,70.0
199,228.433362625,229.31386345833334,60.0,88.0
200,229.56543512500002,229.77140942708334,58.0,100.0
201,229.942792625,230.57486643750002,65.0,112.0
202,231.263543875,233.04498573958335,70.0,112.0
203,233.716367625,234.03397685416667,63.0,122.0
204,234.09372512500002,234.44907010416668,65.0,89.0
205,234.471082625,235.34372184375002,62.0,102.0
206,235.603155125,235.8390035625,60.0,97.0
207,235.98051262500002,238.16446915625002,58.0,102.0
208,239.754087625,239.96949586458334,58.0,82.0
209,240.131445125,240.3672935625,58.0,70.0
210,240.50880262500002,241.38930345833336,60.0,88.0
211,241.640875125,241.84684942708336,58.0,100.0
212,242.01823262500002,242.6503064375,65.0,112.0
213,243.33898387500003,245.12042573958334,70.0,112.0
214,246.54495030208335,246.94589264583334,63.0,93.0
215,246.93645870833333,247.33897337500002,65.0,79.0
216,247.34997963541667,248.6990326979167,62.0,95.0
217,248.49305839583334,248.96475527083334,60.0,74.0
218,248.92859184375,253.56065515625002,58.0,88.0
