,start,end,pitch,velocity
0,15.838104597916667,16.030411847916668,79.0,92.0
1,16.030411847916668,16.32207784375,74.0,73.0
2,16.222719097916666,16.44868011666667,78.0,96.0
3,16.41502634791667,16.79323060625,79.0,94.0
4,16.607333597916668,16.991948097916666,71.0,63.0
5,16.799640847916667,17.11214012916667,74.0,78.0
6,16.991948097916666,17.222716797916668,78.0,96.0
7,17.184255347916668,17.541626320833334,79.0,97.0
8,17.568869847916666,17.929445941666668,74.0,76.0
9,17.76117709791667,17.99515091875,78.0,93.0
10,17.953484347916667,18.315663002083333,79.0,100.0
11,18.145791597916666,18.530406097916668,71.0,63.0
12,18.33809884791667,18.65380325,74.0,69.0
13,18.530406097916668,18.740341512500002,78.0,85.0
14,18.145791597916666,18.823674654166666,62.0,117.0
15,18.722713347916667,18.9326487625,79.0,78.0
16,18.915020597916666,18.9326487625,79.0,92.0
17,19.107327847916668,19.398993843750002,74.0,73.0
18,19.299635097916667,19.525596116666666,78.0,96.0
19,19.491942347916666,19.87014660625,79.0,94.0
20,19.68424959791667,20.068864097916666,71.0,63.0
21,19.876556847916667,20.189056129166666,74.0,78.0
22,20.068864097916666,20.29963279791667,78.0,96.0
23,20.26117134791667,20.618542320833335,79.0,97.0
24,20.645785847916667,21.00636194166667,74.0,76.0
25,18.915020597916666,21.022387545833332,67.0,114.0
26,20.838093097916666,21.07206691875,78.0,93.0
27,21.030400347916668,21.392579002083334,79.0,100.0
28,21.222707597916667,21.556040164583333,71.0,63.0
29,21.222707597916667,21.556040164583333,71.0,114.0
30,21.415014847916666,21.73071925,74.0,69.0
31,21.60732209791667,21.748347414583336,69.0,114.0
32,21.60732209791667,21.8172575125,78.0,85.0
33,21.799629347916667,21.905398335416667,67.0,105.0
34,21.799629347916667,22.009564762500002,79.0,78.0
35,21.991936597916666,22.286807714583333,71.0,62.0
36,22.18424384791667,22.434243272916667,74.0,71.0
37,22.376551097916668,22.634563325000002,78.0,79.0
38,22.568858347916667,22.8364859375,79.0,76.0
39,22.761165597916666,23.10090840625,71.0,82.0
40,22.953472847916668,23.1826389875,74.0,64.0
41,23.145780097916667,23.397382083333333,78.0,82.0
42,23.338087347916666,23.616932860416668,79.0,55.0
43,21.991936597916666,23.788406825,66.0,99.0
44,23.53039459791667,23.905393735416666,71.0,82.0
45,23.722701847916667,24.04000881041667,74.0,52.0
46,23.915009097916666,24.173021325,78.0,54.0
47,24.10731634791667,24.342892729166667,79.0,71.0
48,24.299623597916668,24.6057126375,69.0,108.0
49,24.299623597916668,24.62013568125,71.0,69.0
50,24.491930847916667,24.81885317291667,74.0,64.0
51,24.68423809791667,24.82846853541667,67.0,105.0
52,24.68423809791667,24.935840083333336,78.0,46.0
53,24.876545347916668,25.0095578625,66.0,109.0
54,24.876545347916668,25.04321163125,79.0,66.0
55,25.068852597916667,25.4134030875,79.0,87.0
56,25.261159847916666,25.560838645833336,71.0,64.0
57,25.45346709791667,25.666607633333335,76.0,80.0
58,25.645774347916667,25.916607058333334,78.0,79.0
59,25.838081597916666,26.174619285416668,79.0,80.0
60,26.03038884791667,26.253144745833335,71.0,66.0
61,26.222696097916668,26.411798227083334,76.0,69.0
62,26.415003347916667,26.652182289583333,71.0,45.0
63,26.60731059791667,26.9518610875,79.0,76.0
64,26.799617847916668,27.022373745833335,71.0,52.0
65,25.068852597916667,27.030386547916667,64.0,108.0
66,26.991925097916667,27.208270754166666,76.0,64.0
67,27.184232347916666,27.469488102083336,71.0,64.0
68,27.37653959791667,27.589680133333335,79.0,76.0
69,27.37653959791667,27.703461922916667,67.0,100.0
70,27.568846847916667,27.839679558333334,71.0,53.0
71,27.761154097916666,27.90538453541667,66.0,112.0
72,27.761154097916666,27.94384598541667,76.0,71.0
73,27.95346134791667,28.06243545625,64.0,108.0
74,27.95346134791667,28.070448258333336,71.0,60.0
75,28.145768597916668,28.392562902083334,79.0,82.0
76,28.338075847916667,28.560831745833333,72.0,80.0
77,28.53038309791667,28.777177402083336,76.0,78.0
78,28.145768597916668,28.7787799625,60.0,111.0
79,28.722690347916668,28.932625762500003,72.0,71.0
80,28.914997597916667,29.18743286875,64.0,111.0
81,28.914997597916667,29.25153528541667,79.0,82.0
82,29.29961209791667,29.450252777083335,76.0,55.0
83,29.491919347916667,29.591278093750002,79.0,53.0
84,29.29961209791667,30.45345559791667,72.0,111.0
85,29.684226597916666,30.47749400416667,79.0,94.0
86,30.45345559791667,30.618519320833336,69.0,100.0
87,30.645762847916668,30.770762560416667,67.0,84.0
88,30.838070097916667,30.974287733333334,66.0,112.0
89,31.03037734791667,33.102487966666665,67.0,105.0
90,33.53037159791667,33.65697387083333,59.0,100.0
91,33.72267884791667,33.85889648333333,57.0,87.0
92,33.91498609791667,34.20024185208334,55.0,102.0
93,34.299600597916665,35.652161589583336,57.0,105.0
94,36.60728759791667,36.88933823125,57.0,97.0
95,36.991902097916665,37.118504370833335,55.0,92.0
96,37.18420934791667,37.33164490625,54.0,102.0
97,37.37651659791667,38.34286052916667,52.0,102.0
98,54.29955459791667,54.788335525,60.0,89.0
99,54.29955459791667,54.839617458333336,55.0,82.0
100,55.06878359791667,55.281924133333334,59.0,108.0
101,55.26109084791667,55.44378273541667,57.0,82.0
102,55.45339809791667,55.67775655625,55.0,94.0
103,55.64570534791667,55.78673066458334,57.0,80.0
104,56.22262709791667,56.69057473958333,62.0,82.0
105,55.838012597916666,57.21941967708334,55.0,94.0
106,56.99185609791667,57.579995770833335,62.0,67.0
107,56.60724159791667,57.60723929791667,67.0,82.0
108,57.76108509791667,58.19537897083333,62.0,51.0
109,58.14569959791667,58.7690956,67.0,78.0
110,59.29954309791667,59.74345233333334,62.0,44.0
111,60.06877209791667,60.67133481458333,62.0,71.0
112,59.684157597916666,61.0767826,66.0,96.0
113,61.22261559791667,61.93575498333333,66.0,79.0
114,61.60723009791667,62.13126735416667,62.0,62.0
115,62.76107359791667,63.20818795416667,67.0,87.0
116,63.14568809791667,63.74504569375,62.0,76.0
117,63.91491709791667,64.32357000416667,62.0,73.0
118,64.68414609791667,65.1633116625,62.0,27.0
119,64.29953159791667,65.21940127708334,67.0,87.0
120,65.45337509791666,65.711387325,62.0,25.0
121,65.83798959791667,66.27228347083333,66.0,85.0
122,66.22260409791667,66.942153725,62.0,78.0
123,66.99183309791667,67.41490904791667,62.0,62.0
124,67.76106209791666,68.31875312291668,62.0,76.0
125,67.37644759791667,68.34439408958333,66.0,99.0
126,68.53029109791667,68.90849535625,62.0,57.0
127,68.91490559791667,69.42772493125,67.0,94.0
128,69.29952009791667,69.85721112291667,60.0,67.0
129,70.06874909791667,70.4709917625,62.0,73.0
130,70.45336359791666,70.94855476666667,66.0,99.0
131,70.83797809791668,71.41009216666667,62.0,47.0
132,71.99182159791667,72.60399967708334,66.0,61.0
133,72.37643609791667,72.95816552916666,62.0,58.0
134,73.14566509791666,73.61040761875,62.0,64.0
135,73.53027959791667,73.98380419583333,67.0,97.0
136,73.91489409791667,74.23700874166667,62.0,69.0
137,74.68412309791667,75.10399392708334,60.0,44.0
138,75.06873759791667,75.56873644791666,67.0,89.0
139,75.45335209791666,76.34117056875,60.0,71.0
140,76.60719559791667,77.36841179583334,62.0,97.0
141,78.14565359791666,78.38283253958333,62.0,78.0
142,78.14565359791666,78.59917819583333,67.0,92.0
143,78.53026809791668,79.21295883541667,62.0,82.0
144,78.91488259791667,79.49340690833334,67.0,87.0
145,79.29949709791667,79.59917589583334,62.0,69.0
146,79.68411159791667,79.87321372708334,62.0,102.0
147,79.68411159791667,80.41167402708334,67.0,102.0
148,80.06872609791667,80.45334059791666,62.0,69.0
149,80.45334059791666,80.55269934375,64.0,71.0
150,80.45334059791666,80.55590446458334,67.0,73.0
151,80.83795509791666,80.94051896458333,64.0,66.0
152,80.83795509791666,80.94692920625,67.0,71.0
153,81.22256959791667,81.33474882708333,64.0,67.0
154,81.22256959791667,81.33474882708333,67.0,78.0
155,81.60718409791667,81.71615820625,67.0,69.0
156,81.60718409791667,81.72417100833333,64.0,66.0
157,81.99179859791667,82.10077270625,63.0,105.0
158,81.99179859791667,82.14884951875,66.0,85.0
159,82.37641309791667,82.46775904166667,63.0,30.0
160,82.37641309791667,82.50622049166667,66.0,54.0
161,82.76102759791667,82.85718122291667,63.0,52.0
162,82.76102759791667,82.89404011250001,66.0,61.0
163,83.14564209791666,83.25141108541666,63.0,48.0
164,83.14564209791666,83.27544949166666,66.0,59.0
165,83.53025659791668,83.64243582708333,64.0,66.0
166,83.53025659791668,83.64243582708333,67.0,82.0
167,83.91487109791667,84.02705032708333,64.0,52.0
168,83.91487109791667,84.0286528875,67.0,73.0
169,84.29948559791667,84.39884434375,67.0,78.0
170,84.29948559791667,84.40845970625,64.0,67.0
171,84.68410009791667,84.79627932708334,67.0,66.0
172,84.68410009791667,84.80429212916667,64.0,64.0
173,85.06871459791667,85.18890662916667,64.0,80.0
174,85.06871459791667,85.19050918958334,69.0,82.0
175,85.45332909791667,85.57352112916666,64.0,53.0
176,85.45332909791667,85.58954673333334,69.0,69.0
177,85.83794359791666,85.95973818958333,64.0,66.0
178,85.83794359791666,85.97896891458333,69.0,80.0
179,86.22255809791668,86.36037829375,64.0,52.0
180,86.22255809791668,86.38121157916667,69.0,62.0
181,86.60717259791667,86.73056975,64.0,66.0
182,86.60717259791667,86.73377487083333,67.0,82.0
183,86.99178709791667,87.12960729375,64.0,53.0
184,86.99178709791667,87.12960729375,67.0,69.0
185,87.37640159791667,87.50620899166667,67.0,80.0
186,87.37640159791667,87.51422179375,64.0,78.0
187,87.76101609791667,87.89883629375001,64.0,64.0
188,87.76101609791667,87.91966957916667,67.0,71.0
189,88.14563059791666,88.30268151875,62.0,64.0
190,88.14563059791666,88.30428407916666,66.0,63.0
191,88.53024509791668,88.68889857916668,62.0,55.0
192,88.53024509791668,88.70492418333333,66.0,46.0
193,88.91485959791667,89.06550027708333,66.0,70.0
194,88.91485959791667,89.06870539791667,62.0,73.0
195,89.29947409791667,89.43729429375,62.0,64.0
196,89.29947409791667,89.43729429375,66.0,68.0
197,89.68408859791667,89.80748575,67.0,52.0
198,89.68408859791667,89.82511391458334,71.0,71.0
199,90.06870309791667,90.16165160208334,67.0,47.0
200,90.06870309791667,90.19210025,71.0,67.0
201,90.45331759791667,90.56870194791667,67.0,60.0
202,90.45331759791667,90.59594547500001,71.0,76.0
203,90.83793209791666,90.93088060208333,67.0,52.0
204,90.83793209791666,90.9517138875,71.0,60.0
205,91.22254659791668,91.3363283875,67.0,66.0
206,91.22254659791668,91.36036679375,71.0,78.0
207,91.60716109791667,91.69850704166667,67.0,71.0
208,91.60716109791667,91.71613520625,71.0,80.0
209,91.99177559791667,92.09433946458334,67.0,82.0
210,91.99177559791667,92.1055573875,71.0,84.0
211,92.37639009791667,92.47574884375,67.0,69.0
212,92.37639009791667,92.49658212916667,71.0,78.0
213,92.76100459791667,92.86837614583334,64.0,62.0
214,92.76100459791667,92.87318382708334,67.0,80.0
215,93.14561909791666,93.25459320625001,64.0,58.0
216,93.14561909791666,93.25940088750001,67.0,71.0
217,93.53023359791666,93.63920770625,64.0,71.0
218,93.53023359791666,93.65042562916668,67.0,84.0
219,93.91484809791667,94.0286298875,67.0,78.0
220,93.91484809791667,94.0478606125,64.0,73.0
221,94.29946259791667,94.43568023333333,63.0,77.0
222,94.29946259791667,94.44689815625,66.0,82.0
223,94.68407709791667,94.80106400833334,66.0,59.0
224,94.68407709791667,94.80426912916667,63.0,68.0
225,95.06869159791667,95.17766570625,63.0,72.0
226,95.06869159791667,95.19849899166667,66.0,68.0
227,95.45330609791667,95.56548532708334,63.0,77.0
228,95.45330609791667,95.57349812916667,66.0,72.0
229,95.83792059791666,95.96452287083333,67.0,84.0
230,95.83792059791666,95.96772799166666,64.0,58.0
231,96.22253509791668,96.33952200833333,67.0,64.0
232,96.22253509791668,96.34593225,64.0,53.0
233,96.60714959791667,96.71932882708333,67.0,78.0
234,96.60714959791667,96.72734162916667,64.0,71.0
235,96.99176409791667,97.10875100833334,67.0,76.0
236,96.99176409791667,97.11996893125,64.0,69.0
237,97.37637859791667,97.47573734375,67.0,73.0
238,97.37637859791667,97.4901603875,62.0,67.0
239,97.76099309791667,97.87477488750001,67.0,67.0
240,97.76099309791667,97.87798000833334,62.0,52.0
241,98.14560759791667,98.26579962916666,67.0,80.0
242,98.14560759791667,98.27220987083334,62.0,73.0
243,98.53022209791666,98.66002949166666,67.0,76.0
244,98.53022209791666,98.68086277708333,62.0,58.0
245,98.91483659791668,99.04143887083333,64.0,73.0
246,98.91483659791668,99.05586191458333,67.0,34.0
247,99.29945109791667,99.39560472291667,64.0,62.0
248,99.29945109791667,99.4324636125,67.0,80.0
249,99.68406559791667,99.7690013,64.0,57.0
250,99.68406559791667,99.82028323333334,67.0,71.0
251,100.06868009791667,100.1536158,64.0,66.0
252,100.06868009791667,100.19528237083334,67.0,80.0
253,100.45329459791667,100.57989687083334,64.0,67.0
254,100.45329459791667,100.58310199166667,67.0,84.0
255,100.83790909791666,100.95329344791666,67.0,87.0
256,100.83790909791666,100.95810112916666,64.0,76.0
257,101.22252359791668,101.33149770625,64.0,76.0
258,101.22252359791668,101.3363053875,67.0,87.0
259,101.60713809791667,101.7401506125,64.0,60.0
260,101.60713809791667,101.74335573333333,67.0,80.0
261,101.99175259791667,102.09111134375,66.0,90.0
262,101.99175259791667,102.10072670625,71.0,89.0
263,102.37636709791667,102.4901488875,71.0,76.0
264,102.37636709791667,102.49335400833334,66.0,70.0
265,102.76098159791667,102.86034034375,66.0,87.0
266,102.76098159791667,102.88437875,71.0,84.0
267,103.14559609791667,103.26578812916667,66.0,93.0
268,103.14559609791667,103.27059581041667,71.0,84.0
269,103.53021059791666,104.57828511041667,66.0,96.0
270,103.53021059791666,104.57828511041667,71.0,92.0
271,105.06866859791667,105.49815478958334,76.0,92.0
272,105.45328309791667,105.93885890416666,71.0,71.0
273,105.83789759791667,106.37796045833333,76.0,92.0
274,106.22251209791666,106.69847254166667,71.0,58.0
275,106.60712659791668,107.08308704166667,76.0,87.0
276,106.99174109791667,107.44366313541667,71.0,55.0
277,107.37635559791667,107.85071348125,76.0,89.0
278,107.76097009791667,108.19846909166667,71.0,71.0
279,108.14558459791667,108.64077576666666,75.0,85.0
280,108.53019909791666,108.98372369583333,71.0,76.0
281,108.91481359791668,109.37635099791667,75.0,61.0
282,109.29942809791667,109.75455525625,71.0,76.0
283,109.68404259791667,110.11032366875,75.0,87.0
284,110.06865709791667,110.53660473958334,71.0,76.0
285,110.45327159791667,111.19365451041666,78.0,79.0
286,111.22250059791666,111.75615321666668,76.0,94.0
287,111.60711509791668,112.04140897083333,71.0,64.0
288,111.99172959791667,112.40038250416667,76.0,84.0
289,112.37634409791667,112.85070198125,71.0,80.0
290,112.76095859791667,113.20807295416667,76.0,92.0
291,113.53018759791667,113.93563538333333,76.0,87.0
292,113.14557309791667,113.9901224375,71.0,67.0
293,113.91480209791666,114.32826268541668,78.0,70.0
294,114.29941659791668,114.76736423958334,75.0,90.0
295,114.68403109791667,115.16640178333334,71.0,60.0
296,115.06864559791667,115.557426525,75.0,99.0
297,115.45326009791667,115.96287431041667,71.0,71.0
298,115.83787459791667,116.3170401625,75.0,99.0
299,116.22248909791666,116.61832152083333,71.0,67.0
300,116.60710359791668,117.05421795416667,76.0,89.0
301,116.99171809791667,117.3074225,75.0,93.0
302,117.37633259791667,117.79620342708334,76.0,87.0
303,117.76094709791667,118.23530498125001,69.0,73.0
304,118.14556159791667,118.57665035000001,76.0,69.0
305,118.53017609791667,118.93562388333334,69.0,80.0
306,118.91479059791666,119.33145630625,75.0,82.0
307,119.29940509791668,119.77536554166667,71.0,84.0
308,119.68401959791667,120.12151859166667,75.0,96.0
309,120.06863409791667,120.46767164166667,71.0,67.0
310,120.45324859791667,120.86350406458334,75.0,105.0
311,120.83786309791667,121.29619537708334,71.0,71.0
312,121.22247759791667,121.66638683333333,75.0,87.0
313,121.60709209791668,121.82023263333333,71.0,50.0
314,121.99170659791668,122.46766704166667,76.0,89.0
315,122.37632109791667,122.8170252125,71.0,76.0
316,122.76093559791667,123.23689604166667,76.0,89.0
317,123.14555009791667,123.43080585208334,71.0,69.0
318,123.53016459791667,123.85388180208334,78.0,70.0
319,123.91477909791666,124.28977823541668,73.0,45.0
320,124.29939359791668,124.71285418541667,78.0,77.0
321,124.68400809791667,125.08144308125,73.0,50.0
322,125.06862259791667,125.50291647083334,78.0,54.0
323,125.45323709791667,125.78656966458334,73.0,44.0
324,125.83785159791667,126.25932498750001,78.0,74.0
325,126.22246609791667,126.49490136875,73.0,72.0
326,126.60708059791666,126.9131696375,78.0,87.0
327,126.99169509791668,127.37791215833333,71.0,87.0
328,127.37630959791667,127.87150076666667,78.0,87.0
329,127.76092409791667,128.00451328125,71.0,71.0
330,128.14553859791667,128.77534484166668,73.0,105.0
331,128.91476759791666,129.69681708125,75.0,109.0
332,129.68399659791666,130.11348278958334,76.0,92.0
333,130.06861109791666,130.55418690416667,71.0,71.0
334,130.45322559791668,130.99328845833332,76.0,92.0
335,130.83784009791668,131.31380054166667,71.0,58.0
336,131.22245459791668,131.69841504166666,76.0,87.0
337,131.60706909791668,132.05899113541668,71.0,55.0
338,131.99168359791668,132.46604148125002,76.0,89.0
339,132.37629809791667,132.81379709166666,71.0,71.0
340,132.76091259791667,133.25610376666668,75.0,85.0
341,133.14552709791667,133.59905169583334,71.0,76.0
342,133.53014159791667,133.99167899791667,75.0,61.0
343,133.91475609791667,134.36988325625,71.0,76.0
344,134.29937059791666,134.72565166875,75.0,87.0
345,134.68398509791666,135.15193273958334,71.0,76.0
346,135.06859959791666,135.80898251041668,78.0,79.0
347,135.83782859791668,136.37148121666667,76.0,94.0
348,136.22244309791668,136.65673697083335,71.0,64.0
349,136.60705759791668,137.01571050416666,76.0,84.0
350,136.99167209791668,137.46602998125002,71.0,80.0
351,137.37628659791667,137.82340095416666,76.0,92.0
352,138.14551559791667,138.55096338333334,76.0,87.0
353,137.76090109791667,138.6054504375,71.0,67.0
354,138.53013009791667,138.94359068541667,78.0,70.0
355,138.91474459791667,139.38269223958335,75.0,90.0
356,139.29935909791666,139.78172978333333,71.0,60.0
357,139.68397359791666,140.17275452500002,75.0,99.0
358,140.06858809791666,140.57820231041666,71.0,71.0
359,140.45320259791666,140.9323681625,75.0,99.0
360,140.83781709791668,141.23364952083332,71.0,67.0
361,141.22243159791668,141.66954595416667,76.0,89.0
362,141.60704609791668,141.9227505,75.0,93.0
363,141.99166059791668,142.41153142708333,76.0,87.0
364,142.37627509791668,142.85063298125002,69.0,73.0
365,142.76088959791667,143.19197835,76.0,69.0
366,143.14550409791667,143.55095188333334,69.0,80.0
367,143.53011859791667,143.94678430625,75.0,82.0
368,143.91473309791667,144.39069354166668,71.0,84.0
369,144.29934759791666,144.73684659166668,75.0,96.0
370,144.68396209791666,145.08299964166667,71.0,67.0
371,145.06857659791666,145.47883206458334,75.0,105.0
372,145.45319109791666,145.91152337708334,71.0,71.0
373,145.83780559791668,146.28171483333333,75.0,87.0
374,146.22242009791668,146.43556063333332,71.0,50.0
375,146.60703459791668,147.08299504166666,76.0,89.0
376,146.99164909791668,147.4323532125,71.0,76.0
377,147.37626359791668,147.85222404166666,76.0,89.0
378,147.76087809791667,148.04613385208333,71.0,69.0
379,148.14549259791667,148.46920980208333,78.0,70.0
380,148.53010709791667,148.90510623541667,73.0,45.0
381,148.91472159791667,149.32818218541667,78.0,77.0
382,149.29933609791667,149.69677108125,73.0,50.0
383,149.68395059791666,150.34580805000002,75.0,99.0
384,150.45317959791666,150.83458897708334,75.0,105.0
385,150.83779409791669,151.14708825833333,71.0,96.0
386,151.22240859791668,152.49484156875002,76.0,100.0
387,152.37625209791668,152.65509761041668,71.0,87.0
388,152.76086659791667,154.11983783125,71.0,89.0
389,152.76086659791667,154.12945319375,76.0,97.0
390,154.29932459791667,154.49163184791666,79.0,92.0
391,154.49163184791666,154.78329784375,74.0,73.0
392,154.68393909791666,154.90990011666668,78.0,96.0
393,154.87624634791666,155.25445060625,79.0,94.0
394,155.06855359791666,155.45316809791666,71.0,63.0
395,155.26086084791666,155.57336012916667,74.0,78.0
396,155.45316809791666,155.68393679791666,78.0,96.0
397,155.64547534791666,156.00284632083333,79.0,97.0
398,156.03008984791668,156.39066594166667,74.0,76.0
399,156.22239709791668,156.45637091875,78.0,93.0
400,156.41470434791668,156.77688300208334,79.0,100.0
401,156.60701159791668,156.99162609791668,71.0,63.0
402,156.79931884791668,157.11502325,74.0,69.0
403,156.99162609791668,157.2015615125,78.0,85.0
404,156.60701159791668,157.28489465416666,62.0,117.0
405,157.18393334791668,157.3938687625,79.0,78.0
406,157.37624059791668,157.3938687625,79.0,92.0
407,157.56854784791668,157.86021384375002,74.0,73.0
408,157.76085509791668,157.98681611666666,78.0,96.0
409,157.95316234791667,158.33136660625001,79.0,94.0
410,158.14546959791667,158.53008409791667,71.0,63.0
411,158.33777684791667,158.65027612916668,74.0,78.0
412,158.53008409791667,158.76085279791667,78.0,96.0
413,158.72239134791667,159.07976232083334,79.0,97.0
414,159.10700584791667,159.46758194166668,74.0,76.0
415,157.37624059791668,159.48360754583334,67.0,114.0
416,159.29931309791667,159.53328691875,78.0,93.0
417,159.49162034791667,159.85379900208335,79.0,100.0
418,159.68392759791666,160.01742668125002,71.0,63.0
419,159.68392759791666,160.01742668125002,71.0,114.0
420,159.87623484791666,160.19437455625,74.0,69.0
421,160.06937468125,160.21223168125002,69.0,114.0
422,160.06937468125,160.28203680625,78.0,85.0
423,160.26417968125,160.37132243125,67.0,105.0
424,160.26417968125,160.47684180625,79.0,78.0
425,160.45898468125,160.75768568125,71.0,62.0
426,160.65378968125,160.90703618125,74.0,71.0
427,160.84859468125,161.10995805625,78.0,79.0
428,161.04339968125,161.31450330625,79.0,76.0
429,161.23820468125,161.58236018125,71.0,82.0
430,161.43300968125,161.66515230625,74.0,64.0
431,161.62781468125002,161.88268455625,78.0,82.0
432,161.82261968125002,162.10508693125,79.0,55.0
433,160.45898468125,162.27878805625,66.0,99.0
434,162.01742468125,162.39729443125,71.0,82.0
435,162.21222968125,162.53365793125002,74.0,52.0
436,162.40703468125,162.66839805625,78.0,54.0
437,162.60183968125,162.84047580625,79.0,71.0
438,162.79664468125,163.10670930625,69.0,108.0
439,162.79664468125,163.12131968125001,71.0,69.0
440,162.99144968125,163.32261818125,74.0,64.0
441,163.18625468125,163.33235843125001,67.0,105.0
442,163.18625468125,163.44112455625,78.0,46.0
443,163.38105968125,163.51579980625002,66.0,109.0
444,163.38105968125,163.54989068125002,79.0,66.0
445,163.57586468125,163.92489030625,79.0,87.0
446,163.77066968125,164.07424080625,71.0,64.0
447,163.96547468125002,164.18138355625,76.0,80.0
448,164.16027968125002,164.43463005625,78.0,79.0
449,164.35508468125,164.69599343125,79.0,80.0
450,164.54988968125,164.77553880625,71.0,66.0
451,164.74469468125,164.93625293125,76.0,69.0
452,164.93949968125,165.17975918125,71.0,45.0
453,165.13430468125,165.48333030625,79.0,76.0
454,165.32910968125,165.55475880625,71.0,52.0
455,163.57586468125,165.56287568125,64.0,108.0
456,165.52391468125,165.74307030625002,76.0,64.0
457,165.71871968125,166.00768043125,71.0,64.0
458,165.91352468125,166.12943355625,79.0,76.0
459,165.91352468125,166.24469318125,67.0,100.0
460,166.10832968125,166.38268005625,71.0,53.0
461,166.30313468125001,166.44923843125,66.0,112.0
462,166.30313468125001,166.48819943125,76.0,71.0
463,166.49793968125002,166.60832918125,64.0,108.0
464,166.49793968125002,166.61644605625,71.0,60.0
465,166.69274468125002,167.60995155625,74.0,78.0
466,166.69274468125002,167.60995155625,78.0,99.0
467,168.64079468125001,169.10907535625,62.0,82.0
468,169.41035671458334,169.9984963875,62.0,67.0
469,169.02574221458335,170.02573991458334,67.0,82.0
470,170.17958571458334,170.6138795875,62.0,51.0
471,170.56420021458334,171.18759621666666,67.0,78.0
472,171.71804371458333,172.16195295,62.0,44.0
473,172.48727271458333,173.08983543125,62.0,71.0
474,172.10265821458333,173.49528321666668,66.0,96.0
475,173.64111621458335,174.35425560000002,66.0,79.0
476,174.02573071458335,174.54976797083333,62.0,62.0
477,175.17957421458334,175.62668857083335,67.0,87.0
478,175.56418871458334,176.16354631041668,62.0,76.0
479,176.33341771458333,176.74207062083335,62.0,73.0
480,177.10264671458333,177.58181227916668,62.0,27.0
481,176.71803221458333,177.63790189375,67.0,87.0
482,177.87187571458333,178.12988794166668,62.0,25.0
483,178.25649021458335,178.6907840875,66.0,85.0
484,178.64110471458335,179.36065434166667,62.0,78.0
485,179.41033371458334,179.83340966458334,62.0,62.0
486,180.17956271458334,180.73725373958334,62.0,76.0
487,179.79494821458334,180.76289470625,66.0,99.0
488,180.94879171458334,181.32699597291668,62.0,57.0
489,181.33340621458333,181.84622554791667,67.0,94.0
490,181.71802071458333,182.27571173958333,60.0,67.0
491,182.48724971458333,182.88949237916668,62.0,73.0
492,182.87186421458333,183.36705538333334,66.0,99.0
493,183.25647871458335,183.82859278333333,62.0,47.0
494,184.41032221458335,185.02250029375,66.0,61.0
495,184.79493671458334,185.37666614583333,62.0,58.0
496,185.56416571458334,186.02890823541668,62.0,64.0
497,185.94878021458334,186.4023048125,67.0,97.0
498,186.33339471458333,186.65550935833335,62.0,69.0
499,187.10262371458333,187.52249454375,60.0,44.0
500,187.48723821458333,187.98723706458333,67.0,89.0
501,187.87185271458333,188.75967118541666,60.0,71.0
502,189.02569621458335,189.78691241250002,62.0,97.0
503,190.56415421458334,190.80133315625,62.0,78.0
504,190.56415421458334,191.0176788125,67.0,92.0
505,190.94876871458334,191.63145945208333,62.0,82.0
506,191.33338321458334,191.911907525,67.0,87.0
507,191.71799771458333,192.0176765125,62.0,69.0
508,192.10261221458333,192.29171434375002,62.0,102.0
509,192.10261221458333,192.83017464375,67.0,102.0
510,192.48722671458333,192.87184121458333,62.0,69.0
511,192.87184121458333,192.97119996041667,64.0,71.0
512,192.87184121458333,192.97440508125,67.0,73.0
513,193.25645571458335,193.35901958125,64.0,66.0
514,193.25645571458335,193.36542982291667,67.0,71.0
515,193.64107021458335,193.75324944375,64.0,67.0
516,193.64107021458335,193.75324944375,67.0,78.0
517,194.02568471458335,194.13465882291666,67.0,69.0
518,194.02568471458335,194.142671625,64.0,66.0
519,194.41029921458335,194.51927332291666,63.0,105.0
520,194.41029921458335,194.56735013541666,66.0,85.0
521,194.79491371458334,194.88625965833333,63.0,30.0
522,194.79491371458334,194.92472110833333,66.0,54.0
523,195.17952821458334,195.27568183958334,63.0,52.0
524,195.17952821458334,195.31254072916667,66.0,61.0
525,195.56414271458334,195.66991170208334,63.0,48.0
526,195.56414271458334,195.69395010833335,66.0,59.0
527,195.94875721458334,196.06093644375,64.0,66.0
528,195.94875721458334,196.06093644375,67.0,82.0
529,196.33337171458334,196.44555094375,64.0,52.0
530,196.33337171458334,196.44715350416666,67.0,73.0
531,196.71798621458333,196.81734496041668,67.0,78.0
532,196.71798621458333,196.82696032291668,64.0,67.0
533,197.10260071458333,197.21477994375002,67.0,66.0
534,197.10260071458333,197.22279274583335,64.0,64.0
535,197.48721521458333,197.60740724583334,64.0,80.0
536,197.48721521458333,197.60900980625001,69.0,82.0
537,197.87182971458333,197.99202174583334,64.0,53.0
538,197.87182971458333,198.00804735,69.0,69.0
539,198.25644421458333,198.37823880625,64.0,66.0
540,198.25644421458333,198.39746953125,69.0,80.0
541,198.64105871458335,198.77887891041667,64.0,52.0
542,198.64105871458335,198.79971219583334,69.0,62.0
543,199.02567321458335,199.14907036666668,64.0,66.0
544,199.02567321458335,199.1522754875,67.0,82.0
545,199.41028771458335,199.54810791041666,64.0,53.0
546,199.41028771458335,199.54810791041666,67.0,69.0
547,199.79490221458335,199.92470960833333,67.0,80.0
548,199.79490221458335,199.93272241041666,64.0,78.0
549,200.17951671458334,200.31733691041666,64.0,64.0
550,200.17951671458334,200.33817019583333,67.0,71.0
551,200.56413121458334,200.72118213541668,62.0,64.0
552,200.56413121458334,200.72278469583335,66.0,63.0
553,200.94874571458334,201.10739919583335,62.0,55.0
554,200.94874571458334,201.1234248,66.0,46.0
555,201.33336021458334,201.48400089375002,66.0,70.0
556,201.33336021458334,201.48720601458334,62.0,73.0
557,201.71797471458333,201.85579491041668,62.0,64.0
558,201.71797471458333,201.85579491041668,66.0,68.0
559,202.10258921458333,202.2259863666667,67.0,52.0
560,202.10258921458333,202.24361453125,71.0,71.0
561,202.48720371458333,202.58015221875002,67.0,47.0
562,202.48720371458333,202.6106008666667,71.0,67.0
563,202.87181821458336,202.98720256458336,67.0,60.0
564,202.87181821458336,203.01444609166668,71.0,76.0
565,203.25643271458335,203.34938121875,67.0,52.0
566,203.25643271458335,203.37021450416668,71.0,60.0
567,203.64104721458335,203.75482900416668,67.0,66.0
568,203.64104721458335,203.77886741041667,71.0,78.0
569,204.02566171458335,204.11700765833334,67.0,71.0
570,204.02566171458335,204.13463582291666,71.0,80.0
571,204.41027621458335,204.51284008125,67.0,82.0
572,204.41027621458335,204.52405800416668,71.0,84.0
573,204.79489071458335,204.8942494604167,67.0,69.0
574,204.79489071458335,204.91508274583333,71.0,78.0
575,205.17950521458334,205.28687676250001,64.0,62.0
576,205.17950521458334,205.29168444375,67.0,80.0
577,205.56411971458334,205.67309382291666,64.0,58.0
578,205.56411971458334,205.67790150416667,67.0,71.0
579,205.94873421458334,206.05770832291668,64.0,71.0
580,205.94873421458334,206.06892624583332,67.0,84.0
581,206.33334871458334,206.44713050416667,67.0,78.0
582,206.33334871458334,206.46636122916667,64.0,73.0
583,206.71796321458334,206.85418085,63.0,77.0
584,206.71796321458334,206.86539877291668,66.0,82.0
585,207.10257771458333,207.219564625,66.0,59.0
586,207.10257771458333,207.22276974583335,63.0,68.0
587,207.48719221458333,207.59616632291667,63.0,72.0
588,207.48719221458333,207.61699960833334,66.0,68.0
589,207.87180671458333,207.98398594375,63.0,77.0
590,207.87180671458333,207.99199874583334,66.0,72.0
591,208.25642121458333,208.3830234875,67.0,84.0
592,208.25642121458333,208.38622860833334,64.0,58.0
593,208.64103571458332,208.75802262500002,67.0,64.0
594,208.64103571458332,208.76443286666668,64.0,53.0
595,209.02565021458332,209.13782944375,67.0,78.0
596,209.02565021458332,209.14584224583334,64.0,71.0
597,209.41026471458335,209.52725162500002,67.0,76.0
598,209.41026471458335,209.5384695479167,64.0,69.0
599,209.79487921458335,209.89423796041666,67.0,73.0
600,209.79487921458335,209.90866100416667,62.0,67.0
601,210.17949371458334,210.29327550416667,67.0,67.0
602,210.17949371458334,210.29648062500002,62.0,52.0
603,210.56410821458334,210.68430024583336,67.0,80.0
604,210.56410821458334,210.6907104875,62.0,73.0
605,210.94872271458334,211.07853010833333,67.0,76.0
606,210.94872271458334,211.09936339375,62.0,58.0
607,211.33333721458334,211.4599394875,64.0,73.0
608,211.33333721458334,211.47436253125,67.0,34.0
609,211.71795171458334,211.81410533958334,64.0,62.0
610,211.71795171458334,211.85096422916666,67.0,80.0
611,212.10256621458333,212.1875019166667,64.0,57.0
612,212.10256621458333,212.23878385,67.0,71.0
613,212.48718071458333,212.5721164166667,64.0,66.0
614,212.48718071458333,212.6137829875,67.0,80.0
615,212.87179521458333,212.9983974875,64.0,67.0
616,212.87179521458333,213.00160260833334,67.0,84.0
617,213.25640971458336,213.37179406458336,67.0,87.0
618,213.25640971458336,213.37660174583334,64.0,76.0
619,213.64102421458335,213.74999832291667,64.0,76.0
620,213.64102421458335,213.75480600416668,67.0,87.0
621,214.02563871458335,214.15865122916668,64.0,60.0
622,214.02563871458335,214.16185635,67.0,80.0
623,214.41025321458335,214.50961196041666,66.0,90.0
624,214.41025321458335,214.51922732291666,71.0,89.0
625,214.79486771458335,214.90864950416668,71.0,76.0
626,214.79486771458335,214.911854625,66.0,70.0
627,215.17948221458335,215.2788409604167,66.0,87.0
628,215.17948221458335,215.30287936666667,71.0,84.0
629,215.56409671458334,215.68428874583333,66.0,93.0
630,215.56409671458334,215.68909642708334,71.0,84.0
631,215.94871121458334,216.99678572708333,66.0,96.0
632,215.94871121458334,216.99678572708333,71.0,92.0
633,217.48716921458333,217.91665540625002,76.0,92.0
634,217.87178371458333,218.35735952083334,71.0,71.0
635,218.25639821458333,218.796461075,76.0,92.0
636,218.64101271458333,219.11697315833334,71.0,58.0
637,219.02562721458332,219.50158765833334,76.0,87.0
638,219.41024171458335,219.86216375208335,71.0,55.0
639,219.79485621458335,220.2692140979167,76.0,89.0
640,220.17947071458335,220.61696970833333,71.0,71.0
641,220.56408521458334,221.05927638333333,75.0,85.0
642,220.94869971458334,221.4022243125,71.0,76.0
643,221.33331421458334,221.79485161458334,75.0,61.0
644,221.71792871458334,222.17305587291668,71.0,76.0
645,222.10254321458333,222.52882428541668,75.0,87.0
646,222.48715771458333,222.95510535625002,71.0,76.0
647,222.87177221458333,223.61215512708333,78.0,79.0
648,223.64100121458335,224.17465383333334,76.0,94.0
649,224.02561571458335,224.45990958750002,71.0,64.0
650,224.41023021458335,224.81888312083333,76.0,84.0
651,224.79484471458335,225.26920259791666,71.0,80.0
652,225.17945921458335,225.62657357083333,76.0,92.0
653,225.94868821458334,226.354136,76.0,87.0
654,225.56407371458334,226.40862305416667,71.0,67.0
655,226.33330271458334,226.74676330208334,78.0,70.0
656,226.71791721458334,227.18586485625002,75.0,90.0
657,227.10253171458334,227.5849024,71.0,60.0
658,227.48714621458333,227.97592714166666,75.0,99.0
659,227.87176071458333,228.38137492708336,71.0,71.0
660,228.25637521458333,228.73554077916668,75.0,99.0
661,228.64098971458333,229.0368221375,71.0,67.0
662,229.02560421458332,229.47271857083334,76.0,89.0
663,229.41021871458332,229.72592311666668,75.0,93.0
664,229.79483321458335,230.21470404375,76.0,87.0
665,230.17944771458335,230.6538055979167,69.0,73.0
666,230.56406221458334,230.99515096666667,76.0,69.0
667,230.94867671458334,231.3541245,69.0,80.0
668,231.33329121458334,231.74995692291668,75.0,82.0
669,231.71790571458334,232.19386615833335,71.0,84.0
670,232.10252021458334,232.54001920833335,75.0,96.0
671,232.48713471458333,232.88617225833335,71.0,67.0
672,232.87174921458336,233.28200468125,75.0,105.0
673,233.25636371458336,233.71469599375,71.0,71.0
674,233.64097821458336,234.08488745,75.0,87.0
675,234.02559271458335,234.23873325,71.0,50.0
676,234.41020721458335,234.88616765833333,76.0,89.0
677,234.79482171458335,235.23552582916668,71.0,76.0
678,235.17943621458335,235.65539665833336,76.0,89.0
679,235.56405071458335,235.84930646875,71.0,69.0
680,235.94866521458334,236.27238241875,78.0,70.0
681,236.33327971458334,236.70827885208334,73.0,45.0
682,236.71789421458334,237.13135480208334,78.0,77.0
683,237.10250871458334,237.49994369791668,73.0,50.0
684,237.48712321458333,237.9214170875,78.0,54.0
685,237.87173771458333,238.20507028125002,73.0,44.0
686,238.25635221458333,238.67782560416669,78.0,74.0
687,238.64096671458333,238.91340198541667,73.0,72.0
688,239.02558121458333,239.33167025416668,78.0,87.0
689,239.41019571458332,239.79641277500002,71.0,87.0
690,239.79481021458332,240.29000138333333,78.0,87.0
691,240.17942471458332,240.4230138979167,71.0,71.0
692,240.56403921458335,241.19384545833333,73.0,105.0
693,241.33326821458334,242.11531769791668,75.0,109.0
694,242.10249721458334,242.53198340625,76.0,92.0
695,242.48711171458334,242.97268752083335,71.0,71.0
696,242.87172621458336,243.411789075,76.0,92.0
697,243.25634071458336,243.73230115833334,71.0,58.0
698,243.64095521458336,244.11691565833334,76.0,87.0
699,244.02556971458336,244.47749175208332,71.0,55.0
700,244.41018421458335,244.88454209791666,76.0,89.0
701,244.79479871458335,245.23229770833333,71.0,71.0
702,245.17941321458335,245.67460438333336,75.0,85.0
703,245.56402771458335,246.01755231250002,71.0,76.0
704,245.94864221458334,246.41017961458334,75.0,61.0
705,246.33325671458334,246.78838387291665,71.0,76.0
706,246.71787121458334,247.14415228541668,75.0,87.0
707,247.10248571458334,247.57043335625002,71.0,76.0
708,247.48710021458334,248.22748312708336,78.0,79.0
709,248.25632921458333,248.78998183333334,76.0,94.0
710,248.64094371458333,249.0752375875,71.0,64.0
711,249.02555821458333,249.43421112083334,76.0,84.0
712,249.41017271458333,249.8845305979167,71.0,80.0
713,249.79478721458332,250.24190157083333,76.0,92.0
714,250.56401621458335,250.96946400000002,76.0,87.0
715,250.17940171458332,251.02395105416667,71.0,67.0
716,250.94863071458335,251.36209130208334,78.0,70.0
717,251.33324521458334,251.80119285625,75.0,90.0
718,251.71785971458334,252.2002304,71.0,60.0
719,252.10247421458334,252.5912551416667,75.0,99.0
720,252.48708871458334,252.99670292708333,71.0,71.0
721,252.87170321458333,253.35086877916666,75.0,99.0
722,253.25631771458336,253.6521501375,71.0,67.0
723,253.64093221458336,254.08804657083334,76.0,89.0
724,254.02554671458336,254.34125111666668,75.0,93.0
725,254.41016121458335,254.83003204375,76.0,87.0
726,254.79477571458335,255.26913359791666,69.0,73.0
727,255.17939021458335,255.61047896666668,76.0,69.0
728,255.56400471458335,255.9694525,69.0,80.0
729,255.94861921458335,256.36528492291666,75.0,82.0
730,256.33323371458334,256.80919415833336,71.0,84.0
731,256.71784821458334,257.15534720833335,75.0,96.0
732,257.10246271458334,257.50150025833335,71.0,67.0
733,257.48707721458334,257.89733268125,75.0,105.0
734,257.87169171458333,258.33002399375,71.0,71.0
735,258.25630621458333,258.70021545,75.0,87.0
736,258.64092071458333,258.85406125,71.0,50.0
737,259.02553521458333,259.50149565833334,76.0,89.0
738,259.4101497145833,259.8508538291667,71.0,76.0
739,265.94859621458335,266.62647927083333,59.0,117.0
740,266.71782521458334,266.91013246458334,76.0,92.0
741,266.91013246458334,267.2017984604167,71.0,73.0
742,267.10243971458334,267.32840073333335,75.0,96.0
743,267.29474696458334,267.6729512229167,76.0,94.0
744,267.48705421458334,267.87166871458334,68.0,63.0
745,267.67936146458334,267.9918607458333,71.0,78.0
746,267.87166871458334,268.10243741458333,75.0,96.0
747,268.06397596458334,268.4213469375,76.0,97.0
748,268.44859046458333,268.80916655833335,71.0,76.0
749,266.71782521458334,268.8251921625,64.0,114.0
750,268.64089771458333,268.8748715354167,75.0,93.0
751,268.83320496458333,269.19538361875004,76.0,100.0
752,269.02551221458333,269.35884478125,68.0,63.0
753,269.02551221458333,269.35884478125,68.0,114.0
754,269.21781946458333,269.53352386666666,71.0,69.0
755,269.4101267145833,269.55115203125,66.0,114.0
756,269.4101267145833,269.6200621291667,75.0,85.0
757,269.6024339645833,269.70820295208335,64.0,105.0
758,269.6024339645833,269.8123693791667,76.0,78.0
759,269.7947412145833,270.08961233125,68.0,62.0
760,269.9870484645833,270.2370478895833,71.0,71.0
761,270.1793557145833,270.4373679416667,75.0,79.0
762,270.3716629645833,270.6392905541667,76.0,76.0
763,270.5639702145833,270.9037130229167,68.0,82.0
764,270.7562774645834,270.9854436041667,71.0,64.0
765,270.9485847145834,271.2001867,75.0,82.0
766,271.1408919645834,271.41973747708334,76.0,55.0
767,269.7947412145833,271.5912114416667,63.0,99.0
768,271.3331992145834,271.70819835208334,68.0,82.0
769,271.5255064645834,271.84281342708334,71.0,52.0
770,271.7178137145834,271.9758259416667,75.0,54.0
771,271.91012096458337,272.14569734583336,76.0,71.0
772,272.10242821458337,272.40851725416667,66.0,108.0
773,272.10242821458337,272.4229402979167,68.0,69.0
774,272.29473546458337,272.6216577895833,71.0,64.0
775,272.48704271458337,272.63127315208334,64.0,105.0
776,272.48704271458337,272.7386447,75.0,46.0
777,272.67934996458337,272.81236247916667,63.0,109.0
778,272.67934996458337,272.8460162479167,76.0,66.0
779,272.87165721458337,273.21620770416666,76.0,87.0
780,273.06396446458336,273.3636432625,68.0,64.0
781,273.25627171458336,273.46941225,73.0,80.0
782,273.44857896458336,273.719411675,75.0,79.0
783,273.64088621458336,273.97742390208333,76.0,80.0
784,273.83319346458336,274.0559493625,68.0,66.0
785,274.02550071458336,274.21460284375,73.0,69.0
786,274.21780796458336,274.45498690625004,68.0,45.0
787,274.41011521458336,274.75466570416665,76.0,76.0
788,274.60242246458336,274.8251783625,68.0,52.0
789,272.87165721458337,274.83319116458335,61.0,108.0
790,274.79472971458335,275.01107537083334,73.0,64.0
791,274.98703696458335,275.27229271875,68.0,64.0
792,275.17934421458335,275.39248475,76.0,76.0
793,275.17934421458335,275.50626653958335,64.0,100.0
794,275.37165146458335,275.642484175,68.0,53.0
795,275.56395871458335,275.7081891520833,63.0,112.0
796,275.56395871458335,275.7466506020833,73.0,71.0
797,275.75626596458335,275.86524007291666,61.0,108.0
798,275.75626596458335,275.873252875,68.0,60.0
799,275.94857321458335,276.19536751875,76.0,82.0
800,276.14088046458335,276.3636363625,69.0,80.0
801,276.33318771458335,276.57998201875,73.0,78.0
802,275.94857321458335,276.5815845791667,57.0,111.0
803,276.52549496458334,276.7354303791667,69.0,71.0
804,276.71780221458334,276.9902374854167,61.0,111.0
805,276.71780221458334,277.05433990208337,76.0,82.0
806,277.10241671458334,277.25305739375,73.0,55.0
807,277.29472396458334,277.3940827104167,76.0,53.0
808,277.10241671458334,278.2616313375,69.0,111.0
809,277.48703121458334,278.28696914999995,76.0,94.0
810,278.2616313375,278.4356176499999,66.0,100.0
811,278.46433383749996,278.5980889041666,64.0,84.0
812,278.6720324416666,278.8216800770833,63.0,112.0
813,278.88329969166665,281.1597043104166,64.0,105.0
