,start,end,pitch,velocity
0,31.22268459791667,31.4133892875,62.0,94.0
1,31.414991847916667,31.605696537500002,62.0,92.0
2,31.607299097916666,31.7980037875,62.0,92.0
3,31.79960634791667,32.56883534791667,62.0,102.0
4,32.56883534791667,32.76114259791667,59.0,100.0
5,32.76114259791667,33.145757097916665,64.0,102.0
6,33.145757097916665,33.53037159791667,62.0,105.0
7,33.53037159791667,33.72267884791667,59.0,108.0
8,33.72267884791667,33.91498609791667,57.0,102.0
9,33.91498609791667,34.299600597916665,55.0,102.0
10,34.299600597916665,36.22267309791667,57.0,117.0
11,36.22267309791667,36.60728759791667,62.0,108.0
12,36.60728759791667,36.991902097916665,64.0,105.0
13,36.991902097916665,37.37651659791667,66.0,105.0
14,37.37651659791667,37.7595285375,67.0,102.0
15,37.76113109791667,37.9518357875,67.0,94.0
16,37.953438347916666,38.7210647875,67.0,108.0
17,38.72266734791667,38.91497459791667,67.0,92.0
18,38.91497459791667,39.299589097916666,69.0,105.0
19,39.299589097916666,39.68420359791667,67.0,108.0
20,39.68420359791667,40.06881809791667,66.0,112.0
21,40.06881809791667,40.45343259791667,59.0,108.0
22,40.45343259791667,40.842854779166665,64.0,102.0
23,40.838047097916665,42.3749025375,62.0,105.0
24,42.37650509791667,42.76111959791667,62.0,102.0
25,42.76111959791667,43.145734097916666,67.0,100.0
26,43.145734097916666,43.53034859791667,62.0,102.0
27,43.53034859791667,44.10727034791667,64.0,105.0
28,44.10727034791667,44.5479744625,67.0,108.0
29,44.491884847916666,44.8748967875,64.0,105.0
30,44.87649934791667,45.06880659791667,64.0,92.0
31,45.06880659791667,45.4518185375,62.0,100.0
32,45.45342109791667,45.645728347916666,62.0,100.0
33,45.645728347916666,46.03034284791667,69.0,100.0
34,46.03034284791667,46.2210475375,62.0,87.0
35,46.22265009791667,46.41495734791667,62.0,100.0
36,46.41495734791667,46.60726459791667,59.0,100.0
37,46.60726459791667,46.9902765375,62.0,69.0
38,46.991879097916666,47.1825837875,62.0,89.0
39,47.184186347916665,47.37649359791667,62.0,92.0
40,47.37649359791667,47.76110809791667,69.0,100.0
41,47.76110809791667,47.95341534791667,66.0,102.0
42,47.95341534791667,48.91495159791667,67.0,105.0
43,48.91495159791667,49.10725884791667,59.0,100.0
44,49.10725884791667,49.29956609791667,57.0,108.0
45,49.29956609791667,49.491873347916666,55.0,100.0
46,49.491873347916666,49.87648784791667,59.0,108.0
47,49.87648784791667,51.030331347916665,57.0,97.0
48,51.030331347916665,51.22263859791667,55.0,92.0
49,51.22263859791667,51.60725309791667,59.0,97.0
50,51.60725309791667,51.9902650375,57.0,102.0
51,51.99186759791667,52.37648209791667,57.0,111.0
52,52.37648209791667,52.76109659791667,55.0,102.0
53,52.76109659791667,53.91494009791667,59.0,92.0
54,53.91494009791667,54.2979520375,57.0,108.0
55,54.29955459791667,55.838012597916666,57.0,102.0
56,55.838012597916666,56.0287172875,62.0,94.0
57,56.030319847916665,56.2210245375,62.0,92.0
58,56.22262709791667,56.4133317875,62.0,92.0
59,56.41493434791667,57.184163347916666,62.0,102.0
60,57.184163347916666,57.376470597916665,59.0,100.0
61,57.376470597916665,57.76108509791667,64.0,102.0
62,57.76108509791667,58.14569959791667,62.0,105.0
63,58.14569959791667,58.33800684791667,59.0,108.0
64,58.33800684791667,58.530314097916666,57.0,102.0
65,58.530314097916666,58.91492859791667,55.0,102.0
66,58.91492859791667,60.83800109791667,57.0,117.0
67,60.83800109791667,61.22261559791667,62.0,108.0
68,61.22261559791667,61.60723009791667,64.0,105.0
69,61.60723009791667,61.99184459791667,66.0,105.0
70,61.99184459791667,62.3748565375,67.0,102.0
71,62.376459097916666,62.5671637875,67.0,94.0
72,62.56876634791667,63.3363927875,67.0,108.0
73,63.33799534791667,63.530302597916666,67.0,92.0
74,63.530302597916666,63.91491709791667,69.0,105.0
75,63.91491709791667,64.29953159791667,67.0,108.0
76,64.29953159791667,64.68414609791667,66.0,112.0
77,64.68414609791667,65.06876059791666,59.0,108.0
78,65.06876059791666,65.45818277916666,64.0,102.0
79,65.45337509791666,66.9902305375,62.0,105.0
80,66.99183309791667,67.37644759791667,62.0,102.0
81,67.37644759791667,67.76106209791666,67.0,100.0
82,67.76106209791666,68.14567659791666,62.0,102.0
83,68.14567659791666,68.72259834791667,64.0,105.0
84,68.72259834791667,69.1633024625,67.0,108.0
85,69.10721284791667,69.4902247875,64.0,105.0
86,69.49182734791667,69.68413459791667,64.0,92.0
87,69.68413459791667,70.06714653750001,62.0,100.0
88,70.06874909791667,70.26105634791666,62.0,100.0
89,70.26105634791666,70.64567084791666,69.0,100.0
90,70.64567084791666,70.8363755375,62.0,87.0
91,70.83797809791668,71.03028534791667,62.0,100.0
92,71.03028534791667,71.22259259791667,59.0,100.0
93,71.22259259791667,71.6056045375,62.0,69.0
94,71.60720709791667,71.7979117875,62.0,89.0
95,71.79951434791667,71.99182159791667,62.0,92.0
96,71.99182159791667,72.37643609791667,69.0,100.0
97,72.37643609791667,72.56874334791667,66.0,102.0
98,72.56874334791667,73.53027959791667,67.0,105.0
99,73.53027959791667,73.72258684791667,59.0,100.0
100,73.72258684791667,73.91489409791667,57.0,108.0
101,73.91489409791667,74.10720134791667,55.0,100.0
102,74.10720134791667,74.49181584791667,59.0,108.0
103,74.49181584791667,75.64565934791666,57.0,97.0
104,75.64565934791666,75.83796659791668,55.0,92.0
105,75.83796659791668,76.22258109791667,59.0,97.0
106,76.22258109791667,76.6055930375,57.0,102.0
107,76.60719559791667,76.99181009791667,57.0,111.0
108,76.99181009791667,77.3748220375,55.0,102.0
109,77.37642459791667,79.68411159791667,55.0,92.0
110,79.68411159791667,80.06872609791667,59.0,117.0
111,80.06872609791667,80.45334059791666,62.0,108.0
112,80.45334059791666,80.64564784791666,64.0,97.0
113,80.64564784791666,80.83795509791666,63.0,109.0
114,80.83795509791666,81.03026234791668,64.0,89.0
115,81.03026234791668,81.22256959791667,63.0,109.0
116,81.22256959791667,81.41487684791667,64.0,92.0
117,81.41487684791667,81.60718409791667,63.0,109.0
118,81.60718409791667,81.7978887875,64.0,97.0
119,81.79949134791667,81.99179859791667,64.0,105.0
120,81.99179859791667,82.18410584791667,66.0,89.0
121,82.18410584791667,82.37641309791667,64.0,102.0
122,82.37641309791667,82.56872034791667,66.0,84.0
123,82.56872034791667,82.76102759791667,64.0,105.0
124,82.76102759791667,82.95333484791666,66.0,92.0
125,82.95333484791666,83.14564209791666,64.0,89.0
126,83.14564209791666,83.33794934791666,66.0,109.0
127,83.33794934791666,83.53025659791668,64.0,94.0
128,83.53025659791668,83.72256384791667,67.0,97.0
129,83.72256384791667,83.91487109791667,66.0,59.0
130,83.91487109791667,84.10717834791667,67.0,84.0
131,84.10717834791667,84.29948559791667,66.0,77.0
132,84.29948559791667,84.49179284791667,67.0,87.0
133,84.49179284791667,84.87640734791667,69.0,108.0
134,84.87640734791667,86.22255809791668,67.0,100.0
135,86.22255809791668,86.41486534791667,64.0,94.0
136,86.41486534791667,86.60717259791667,66.0,102.0
137,86.60717259791667,86.99178709791667,67.0,108.0
138,86.99178709791667,87.3747990375,66.0,93.0
139,87.37640159791667,87.76101609791667,66.0,112.0
140,87.76101609791667,87.95172078750001,64.0,97.0
141,87.95332334791667,88.53024509791668,64.0,100.0
142,88.53024509791668,88.91485959791667,62.0,97.0
143,88.91485959791667,89.29947409791667,57.0,105.0
144,89.29947409791667,89.49178134791667,60.0,100.0
145,89.49178134791667,91.9901730375,59.0,102.0
146,91.99177559791667,92.37639009791667,59.0,117.0
147,92.37639009791667,92.76100459791667,62.0,108.0
148,92.76100459791667,92.95331184791667,64.0,97.0
149,92.95331184791667,93.14561909791666,63.0,109.0
150,93.14561909791666,93.33792634791666,64.0,89.0
151,93.33792634791666,93.53023359791666,63.0,109.0
152,93.53023359791666,93.72254084791668,64.0,92.0
153,93.72254084791668,93.91484809791667,63.0,109.0
154,93.91484809791667,94.1055527875,64.0,97.0
155,94.10715534791667,94.29946259791667,64.0,105.0
156,94.29946259791667,94.49176984791667,66.0,89.0
157,94.49176984791667,94.68407709791667,64.0,102.0
158,94.68407709791667,94.87638434791667,66.0,84.0
159,94.87638434791667,95.06869159791667,64.0,105.0
160,95.06869159791667,95.26099884791667,66.0,92.0
161,95.26099884791667,95.45330609791667,64.0,89.0
162,95.45330609791667,95.64561334791667,66.0,109.0
163,95.64561334791667,95.83792059791666,64.0,94.0
164,95.83792059791666,96.03022784791666,67.0,97.0
165,96.03022784791666,96.22253509791668,66.0,59.0
166,96.22253509791668,96.41484234791668,67.0,84.0
167,96.41484234791668,96.60714959791667,66.0,77.0
168,96.60714959791667,96.79945684791667,67.0,87.0
169,96.79945684791667,97.18407134791667,69.0,108.0
170,97.18407134791667,98.33791484791666,71.0,100.0
171,98.33791484791666,98.53022209791666,64.0,92.0
172,98.53022209791666,98.72252934791668,67.0,89.0
173,98.72252934791668,98.91483659791668,66.0,102.0
174,98.91483659791668,99.2978485375,67.0,108.0
175,99.29945109791667,99.6824630375,67.0,100.0
176,99.68406559791667,100.0670775375,67.0,105.0
177,100.06868009791667,100.2593847875,67.0,108.0
178,100.26098734791667,100.45169203750001,67.0,94.0
179,100.45329459791667,100.83790909791666,67.0,102.0
180,100.83790909791666,101.2209210375,66.0,105.0
181,101.22252359791668,101.60713809791667,66.0,112.0
182,101.60713809791667,101.85072728125,64.0,108.0
183,101.79944534791667,104.29943959791667,66.0,82.0
184,104.29943959791667,104.68405409791667,59.0,114.0
185,104.68405409791667,105.06866859791667,63.0,109.0
186,105.06866859791667,105.83789759791667,64.0,108.0
187,105.83789759791667,106.60712659791668,59.0,108.0
188,106.60712659791668,106.99174109791667,66.0,112.0
189,106.99174109791667,107.37635559791667,64.0,89.0
190,107.37635559791667,107.76097009791667,63.0,112.0
191,107.76097009791667,108.14558459791667,64.0,105.0
192,108.14558459791667,108.53019909791666,59.0,111.0
193,108.53019909791666,108.7209037875,66.0,109.0
194,108.72250634791666,109.10712084791668,66.0,102.0
195,109.10712084791668,109.49173534791667,68.0,99.0
196,109.49173534791667,110.45327159791667,66.0,105.0
197,110.45327159791667,110.83788609791667,59.0,111.0
198,110.83788609791667,111.22250059791666,63.0,105.0
199,111.22250059791666,111.9901270375,64.0,102.0
200,111.99172959791667,112.76095859791667,64.0,102.0
201,112.76095859791667,113.14557309791667,66.0,96.0
202,113.14557309791667,113.53018759791667,64.0,105.0
203,113.53018759791667,113.91480209791666,63.0,102.0
204,113.91480209791666,114.29941659791668,64.0,100.0
205,114.29941659791668,114.68403109791667,66.0,108.0
206,114.68403109791667,114.8747357875,68.0,109.0
207,114.87633834791667,115.26095284791667,68.0,102.0
208,115.26095284791667,115.64556734791667,69.0,102.0
209,115.64556734791667,116.99171809791667,68.0,109.0
210,116.99171809791667,117.3747300375,71.0,100.0
211,117.37633259791667,117.76094709791667,71.0,102.0
212,117.76094709791667,118.1439590375,64.0,92.0
213,118.14556159791667,118.53017609791667,64.0,97.0
214,118.53017609791667,118.9131880375,66.0,102.0
215,118.91479059791666,119.68401959791667,66.0,102.0
216,119.68401959791667,120.06863409791667,68.0,99.0
217,120.06863409791667,120.4516460375,71.0,97.0
218,120.45324859791667,120.83786309791667,71.0,100.0
219,120.83786309791667,121.22087503750001,63.0,102.0
220,121.22247759791667,121.60709209791668,63.0,105.0
221,121.60709209791668,121.9901040375,64.0,89.0
222,121.99170659791668,122.7593330375,64.0,102.0
223,122.76093559791667,122.95324284791667,64.0,105.0
224,122.95324284791667,123.14555009791667,66.0,102.0
225,123.14555009791667,123.53016459791667,68.0,109.0
226,123.53016459791667,124.10708634791668,66.0,109.0
227,124.10708634791668,124.68400809791667,64.0,102.0
228,124.68400809791667,125.83785159791667,61.0,105.0
229,125.83785159791667,126.03015884791667,64.0,94.0
230,126.03015884791667,126.22246609791667,66.0,99.0
231,126.22246609791667,126.6054780375,68.0,105.0
232,126.60708059791666,127.18400234791667,68.0,109.0
233,127.18400234791667,127.76092409791667,66.0,102.0
234,127.76092409791667,128.1439360375,64.0,100.0
235,128.14553859791667,128.53015309791667,64.0,102.0
236,128.53015309791667,128.91476759791666,66.0,109.0
237,128.91476759791666,129.29938209791666,59.0,114.0
238,129.29938209791666,129.68399659791666,63.0,109.0
239,129.68399659791666,130.45322559791668,64.0,108.0
240,130.45322559791668,131.22245459791668,59.0,108.0
241,131.22245459791668,131.60706909791668,66.0,112.0
242,131.60706909791668,131.99168359791668,64.0,89.0
243,131.99168359791668,132.37629809791667,63.0,112.0
244,132.37629809791667,132.76091259791667,64.0,105.0
245,132.76091259791667,133.14552709791667,59.0,111.0
246,133.14552709791667,133.3362317875,66.0,109.0
247,133.33783434791667,133.72244884791667,66.0,102.0
248,133.72244884791667,134.10706334791666,68.0,99.0
249,134.10706334791666,135.06859959791666,66.0,105.0
250,135.06859959791666,135.45321409791666,59.0,111.0
251,135.45321409791666,135.83782859791668,63.0,105.0
252,135.83782859791668,136.6054550375,64.0,102.0
253,136.60705759791668,136.99167209791668,64.0,102.0
254,136.99167209791668,137.37628659791667,64.0,114.0
255,137.37628659791667,137.76090109791667,66.0,96.0
256,137.76090109791667,137.95320834791667,64.0,105.0
257,137.95320834791667,138.53013009791667,63.0,102.0
258,138.53013009791667,138.91474459791667,64.0,100.0
259,138.91474459791667,139.29935909791666,66.0,108.0
260,139.29935909791666,139.4900637875,68.0,109.0
261,139.49166634791666,139.87628084791666,68.0,102.0
262,139.87628084791666,140.26089534791666,69.0,102.0
263,140.26089534791666,141.60704609791668,68.0,109.0
264,141.60704609791668,141.9900580375,71.0,100.0
265,141.99166059791668,142.37627509791668,71.0,102.0
266,142.37627509791668,142.7592870375,64.0,92.0
267,142.76088959791667,143.14550409791667,64.0,97.0
268,143.14550409791667,143.5285160375,66.0,102.0
269,143.53011859791667,144.29934759791666,66.0,102.0
270,144.29934759791666,144.68396209791666,68.0,99.0
271,144.68396209791666,145.06697403750002,71.0,97.0
272,145.06857659791666,145.45319109791666,71.0,100.0
273,145.45319109791666,145.8362030375,63.0,102.0
274,145.83780559791668,146.22242009791668,63.0,105.0
275,146.22242009791668,146.6054320375,64.0,89.0
276,146.60703459791668,147.3746610375,64.0,102.0
277,147.37626359791668,147.56857084791667,64.0,105.0
278,147.56857084791667,147.76087809791667,66.0,102.0
279,147.76087809791667,148.14549259791667,68.0,109.0
280,148.14549259791667,148.53010709791667,66.0,112.0
281,148.53010709791667,148.9131190375,64.0,102.0
282,148.91472159791667,149.29933609791667,64.0,100.0
283,149.29933609791667,149.68395059791666,61.0,105.0
284,149.68395059791666,150.06696253750002,63.0,109.0
285,150.06856509791666,150.45157703750002,63.0,92.0
286,150.45317959791666,150.83779409791669,63.0,89.0
287,150.83779409791669,151.2208060375,64.0,109.0
288,151.22240859791668,152.5284953375,64.0,97.0
289,168.25118468125,168.44436630625,62.0,94.0
290,168.44598968125,168.63917130625,62.0,92.0
291,168.64079468125001,168.83183240416668,62.0,92.0
292,168.83343496458335,169.60266396458334,62.0,102.0
293,169.60266396458334,169.79497121458334,59.0,100.0
294,169.79497121458334,170.17958571458334,64.0,102.0
295,170.17958571458334,170.56420021458334,62.0,105.0
296,170.56420021458334,170.75650746458334,59.0,108.0
297,170.75650746458334,170.94881471458334,57.0,102.0
298,170.94881471458334,171.33342921458333,55.0,102.0
299,171.33342921458333,173.25650171458335,57.0,117.0
300,173.25650171458335,173.64111621458335,62.0,108.0
301,173.64111621458335,174.02573071458335,64.0,105.0
302,174.02573071458335,174.41034521458334,66.0,105.0
303,174.41034521458334,174.79335715416667,67.0,102.0
304,174.79495971458334,174.98566440416667,67.0,94.0
305,174.98726696458334,175.75489340416667,67.0,108.0
306,175.75649596458334,175.94880321458334,67.0,92.0
307,175.94880321458334,176.33341771458333,69.0,105.0
308,176.33341771458333,176.71803221458333,67.0,108.0
309,176.71803221458333,177.10264671458333,66.0,112.0
310,177.10264671458333,177.48726121458333,59.0,108.0
311,177.48726121458333,177.87668339583334,64.0,102.0
312,177.87187571458333,179.40873115416667,62.0,105.0
313,179.41033371458334,179.79494821458334,62.0,102.0
314,179.79494821458334,180.17956271458334,67.0,100.0
315,180.17956271458334,180.56417721458334,62.0,102.0
316,180.56417721458334,181.14109896458334,64.0,105.0
317,181.14109896458334,181.58180307916666,67.0,108.0
318,181.52571346458333,181.90872540416666,64.0,105.0
319,181.91032796458333,182.10263521458333,64.0,92.0
320,182.10263521458333,182.48564715416668,62.0,100.0
321,182.48724971458333,182.67955696458333,62.0,100.0
322,182.67955696458333,183.06417146458335,69.0,100.0
323,183.06417146458335,183.25487615416668,62.0,87.0
324,183.25647871458335,183.44878596458335,62.0,100.0
325,183.44878596458335,183.64109321458335,59.0,100.0
326,183.64109321458335,184.02410515416668,62.0,69.0
327,184.02570771458335,184.21641240416668,62.0,89.0
328,184.21801496458335,184.41032221458335,62.0,92.0
329,184.41032221458335,184.79493671458334,69.0,100.0
330,184.79493671458334,184.98724396458334,66.0,102.0
331,184.98724396458334,185.94878021458334,67.0,105.0
332,185.94878021458334,186.14108746458334,59.0,100.0
333,186.14108746458334,186.33339471458333,57.0,108.0
334,186.33339471458333,186.52570196458333,55.0,100.0
335,186.52570196458333,186.91031646458333,59.0,108.0
336,186.91031646458333,188.06415996458333,57.0,97.0
337,188.06415996458333,188.25646721458332,55.0,92.0
338,188.25646721458332,188.64108171458335,59.0,97.0
339,188.64108171458335,189.02409365416668,57.0,102.0
340,189.02569621458335,189.41031071458335,57.0,111.0
341,189.41031071458335,189.79332265416667,55.0,102.0
342,189.79492521458334,192.10261221458333,55.0,92.0
343,192.10261221458333,192.48722671458333,59.0,117.0
344,192.48722671458333,192.87184121458333,62.0,108.0
345,192.87184121458333,193.06414846458335,64.0,97.0
346,193.06414846458335,193.25645571458335,63.0,109.0
347,193.25645571458335,193.44876296458335,64.0,89.0
348,193.44876296458335,193.64107021458335,63.0,109.0
349,193.64107021458335,193.83337746458335,64.0,92.0
350,193.83337746458335,194.02568471458335,63.0,109.0
351,194.02568471458335,194.21638940416668,64.0,97.0
352,194.21799196458335,194.41029921458335,64.0,105.0
353,194.41029921458335,194.60260646458335,66.0,89.0
354,194.60260646458335,194.79491371458334,64.0,102.0
355,194.79491371458334,194.98722096458334,66.0,84.0
356,194.98722096458334,195.17952821458334,64.0,105.0
357,195.17952821458334,195.37183546458334,66.0,92.0
358,195.37183546458334,195.56414271458334,64.0,89.0
359,195.56414271458334,195.75644996458334,66.0,109.0
360,195.75644996458334,195.94875721458334,64.0,94.0
361,195.94875721458334,196.14106446458334,67.0,97.0
362,196.14106446458334,196.33337171458334,66.0,59.0
363,196.33337171458334,196.52567896458334,67.0,84.0
364,196.52567896458334,196.71798621458333,66.0,77.0
365,196.71798621458333,196.91029346458333,67.0,87.0
366,196.91029346458333,197.29490796458333,69.0,108.0
367,197.29490796458333,198.64105871458335,67.0,100.0
368,198.64105871458335,198.83336596458335,64.0,94.0
369,198.83336596458335,199.02567321458335,66.0,102.0
370,199.02567321458335,199.41028771458335,67.0,108.0
371,199.41028771458335,199.79329965416667,66.0,93.0
372,199.79490221458335,200.17951671458334,66.0,112.0
373,200.17951671458334,200.37022140416667,64.0,97.0
374,200.37182396458334,200.94874571458334,64.0,100.0
375,200.94874571458334,201.33336021458334,62.0,97.0
376,201.33336021458334,201.71797471458333,57.0,105.0
377,201.71797471458333,201.91028196458333,60.0,100.0
378,201.91028196458333,204.40867365416668,59.0,102.0
379,204.41027621458335,204.79489071458335,59.0,117.0
380,204.79489071458335,205.17950521458334,62.0,108.0
381,205.17950521458334,205.37181246458334,64.0,97.0
382,205.37181246458334,205.56411971458334,63.0,109.0
383,205.56411971458334,205.75642696458334,64.0,89.0
384,205.75642696458334,205.94873421458334,63.0,109.0
385,205.94873421458334,206.14104146458334,64.0,92.0
386,206.14104146458334,206.33334871458334,63.0,109.0
387,206.33334871458334,206.52405340416666,64.0,97.0
388,206.52565596458334,206.71796321458334,64.0,105.0
389,206.71796321458334,206.91027046458333,66.0,89.0
390,206.91027046458333,207.10257771458333,64.0,102.0
391,207.10257771458333,207.29488496458333,66.0,84.0
392,207.29488496458333,207.48719221458333,64.0,105.0
393,207.48719221458333,207.67949946458333,66.0,92.0
394,207.67949946458333,207.87180671458333,64.0,89.0
395,207.87180671458333,208.06411396458333,66.0,109.0
396,208.06411396458333,208.25642121458333,64.0,94.0
397,208.25642121458333,208.44872846458333,67.0,97.0
398,208.44872846458333,208.64103571458332,66.0,59.0
399,208.64103571458332,208.83334296458332,67.0,84.0
400,208.83334296458332,209.02565021458332,66.0,77.0
401,209.02565021458332,209.21795746458335,67.0,87.0
402,209.21795746458335,209.60257196458335,69.0,108.0
403,209.60257196458335,210.75641546458334,71.0,100.0
404,210.75641546458334,210.94872271458334,64.0,92.0
405,210.94872271458334,211.14102996458334,67.0,89.0
406,211.14102996458334,211.33333721458334,66.0,102.0
407,211.33333721458334,211.71634915416666,67.0,108.0
408,211.71795171458334,212.10096365416666,67.0,100.0
409,212.10256621458333,212.48557815416666,67.0,105.0
410,212.48718071458333,212.67788540416666,67.0,108.0
411,212.67948796458333,212.87019265416666,67.0,94.0
412,212.87179521458333,213.25640971458336,67.0,102.0
413,213.25640971458336,213.63942165416668,66.0,105.0
414,213.64102421458335,214.02563871458335,66.0,112.0
415,214.02563871458335,214.26922789791666,64.0,108.0
416,214.21794596458335,216.71794021458334,66.0,82.0
417,216.71794021458334,217.10255471458333,59.0,114.0
418,217.10255471458333,217.48716921458333,63.0,109.0
419,217.48716921458333,218.25639821458333,64.0,108.0
420,218.25639821458333,219.02562721458332,59.0,108.0
421,219.02562721458332,219.41024171458335,66.0,112.0
422,219.41024171458335,219.79485621458335,64.0,89.0
423,219.79485621458335,220.17947071458335,63.0,112.0
424,220.17947071458335,220.56408521458334,64.0,105.0
425,220.56408521458334,220.94869971458334,59.0,111.0
426,220.94869971458334,221.13940440416667,66.0,109.0
427,221.14100696458334,221.52562146458334,66.0,102.0
428,221.52562146458334,221.91023596458334,68.0,99.0
429,221.91023596458334,222.87177221458333,66.0,105.0
430,222.87177221458333,223.25638671458336,59.0,111.0
431,223.25638671458336,223.64100121458335,63.0,105.0
432,223.64100121458335,224.40862765416668,64.0,102.0
433,224.41023021458335,225.17945921458335,64.0,102.0
434,225.17945921458335,225.56407371458334,66.0,96.0
435,225.56407371458334,225.94868821458334,64.0,105.0
436,225.94868821458334,226.33330271458334,63.0,102.0
437,226.33330271458334,226.71791721458334,64.0,100.0
438,226.71791721458334,227.10253171458334,66.0,108.0
439,227.10253171458334,227.29323640416666,68.0,109.0
440,227.29483896458333,227.67945346458333,68.0,102.0
441,227.67945346458333,228.06406796458333,69.0,102.0
442,228.06406796458333,229.41021871458332,68.0,109.0
443,229.41021871458332,229.79323065416668,71.0,100.0
444,229.79483321458335,230.17944771458335,71.0,102.0
445,230.17944771458335,230.56245965416667,64.0,92.0
446,230.56406221458334,230.94867671458334,64.0,97.0
447,230.94867671458334,231.33168865416667,66.0,102.0
448,231.33329121458334,232.10252021458334,66.0,102.0
449,232.10252021458334,232.48713471458333,68.0,99.0
450,232.48713471458333,232.87014665416666,71.0,97.0
451,232.87174921458336,233.25636371458336,71.0,100.0
452,233.25636371458336,233.63937565416666,63.0,102.0
453,233.64097821458336,234.02559271458335,63.0,105.0
454,234.02559271458335,234.40860465416668,64.0,89.0
455,234.41020721458335,235.17783365416668,64.0,102.0
456,235.17943621458335,235.37174346458335,64.0,105.0
457,235.37174346458335,235.56405071458335,66.0,102.0
458,235.56405071458335,235.94866521458334,68.0,109.0
459,235.94866521458334,236.52558696458334,66.0,109.0
460,236.52558696458334,237.10250871458334,64.0,102.0
461,237.10250871458334,238.25635221458333,61.0,105.0
462,238.25635221458333,238.44865946458333,64.0,94.0
463,238.44865946458333,238.64096671458333,66.0,99.0
464,238.64096671458333,239.02397865416668,68.0,105.0
465,239.02558121458333,239.60250296458332,68.0,109.0
466,239.60250296458332,240.17942471458332,66.0,102.0
467,240.17942471458332,240.56243665416667,64.0,100.0
468,240.56403921458335,240.94865371458334,64.0,102.0
469,240.94865371458334,241.33326821458334,66.0,109.0
470,241.33326821458334,241.71788271458334,59.0,114.0
471,241.71788271458334,242.10249721458334,63.0,109.0
472,242.10249721458334,242.87172621458336,64.0,108.0
473,242.87172621458336,243.64095521458336,59.0,108.0
474,243.64095521458336,244.02556971458336,66.0,112.0
475,244.02556971458336,244.41018421458335,64.0,89.0
476,244.41018421458335,244.79479871458335,63.0,112.0
477,244.79479871458335,245.17941321458335,64.0,105.0
478,245.17941321458335,245.56402771458335,59.0,111.0
479,245.56402771458335,245.75473240416667,66.0,109.0
480,245.75633496458335,246.14094946458334,66.0,102.0
481,246.14094946458334,246.52556396458334,68.0,99.0
482,246.52556396458334,247.48710021458334,66.0,105.0
483,247.48710021458334,247.87171471458333,59.0,111.0
484,247.87171471458333,248.25632921458333,63.0,105.0
485,248.25632921458333,249.02395565416668,64.0,102.0
486,249.02555821458333,249.41017271458333,64.0,102.0
487,249.41017271458333,249.79478721458332,64.0,114.0
488,249.79478721458332,250.17940171458332,66.0,96.0
489,250.17940171458332,250.37170896458332,64.0,105.0
490,250.37170896458332,250.94863071458335,63.0,102.0
491,250.94863071458335,251.33324521458334,64.0,100.0
492,251.33324521458334,251.71785971458334,66.0,108.0
493,251.71785971458334,251.90856440416667,68.0,109.0
494,251.91016696458334,252.29478146458334,68.0,102.0
495,252.29478146458334,252.67939596458334,69.0,102.0
496,252.67939596458334,254.02554671458336,68.0,109.0
497,254.02554671458336,254.40855865416665,71.0,100.0
498,254.41016121458335,254.79477571458335,71.0,102.0
499,254.79477571458335,255.17778765416668,64.0,92.0
500,255.17939021458335,255.56400471458335,64.0,97.0
501,255.56400471458335,255.94701665416667,66.0,102.0
502,255.94861921458335,256.71784821458334,66.0,102.0
503,256.71784821458334,257.10246271458334,68.0,99.0
504,257.10246271458334,257.4854746541667,71.0,97.0
505,257.48707721458334,257.87169171458333,71.0,100.0
506,257.87169171458333,258.2547036541667,63.0,102.0
507,258.25630621458333,258.64092071458333,63.0,105.0
508,258.64092071458333,259.0239326541667,64.0,89.0
509,259.02553521458333,259.7931616541667,64.0,102.0
510,259.7947642145833,259.9870714645833,64.0,105.0
511,259.9870714645833,260.1793787145833,66.0,102.0
512,260.1793787145833,260.5639932145833,68.0,109.0
513,260.5639932145833,260.9486077145833,66.0,112.0
514,260.9486077145833,261.3316196541667,64.0,102.0
515,261.3332222145833,261.7178367145833,64.0,100.0
516,261.7178367145833,262.1024512145833,61.0,105.0
517,262.1024512145833,262.48546315416667,63.0,109.0
518,262.4870657145833,262.87007765416666,63.0,92.0
519,262.8716802145833,263.25629471458336,63.0,89.0
520,263.25629471458336,263.63930665416666,64.0,109.0
521,263.64090921458336,266.2643006166667,64.0,97.0
